<REAPER_PROJECT 0.1 "7.27/win64" 1707000000
  <NOTES 0 2
    |ReapNES Studio Project
    |MIDI Import - Chip_n_Dale_title_rom_v1
  >
  RIPPLE 0
  GROUPOVERRIDE 0 0 0
  AUTOXFADE 129
  ENVATTACH 3
  POOLEDENVATTACH 0
  MIXERUIFLAGS 11 48
  ENVFADESZ10 40
  PEAKGAIN 1
  FEEDBACK 0
  PANLAW 1
  PROJOFFS 0 0 0
  MAXPROJLEN 0 0
  GRID 3199 8 1 8 1 0 0 0
  TIMEMODE 1 5 -1 30 0 0 -1
  VIDEO_CONFIG 0 0 65792
  PANMODE 3
  PANLAWFLAGS 3
  CURSOR 0
  ZOOM 100 0 0
  VZOOMEX 6 0
  USE_REC_CFG 0
  RECMODE 1
  SMPTESYNC 0 30 100 40 1000 300 0 0 1 0 0
  LOOP 0
  LOOPGRAN 0 4
  RECORD_PATH "Media" ""
  <RECORD_CFG
    ZXZhdxgAAQ==
  >
  <APPLYFX_CFG
  >
  RENDER_FILE ""
  RENDER_PATTERN ""
  RENDER_FMT 0 2 0
  RENDER_1X 0
  RENDER_RANGE 1 0 0 18 1000
  RENDER_RESAMPLE 3 0 1
  RENDER_ADDTOPROJ 0
  RENDER_STEMS 0
  RENDER_DITHER 0
  TIMELOCKMODE 1
  TEMPOENVLOCKMODE 1
  ITEMMIX 1
  DEFPITCHMODE 589824 0
  TAKELANE 1
  SAMPLERATE 44100 0 0
  <RENDER_CFG
    ZXZhdxgAAQ==
  >
  LOCK 1
  <METRONOME 6 2
    VOL 0.25 0.125
    BEATLEN 4
    FREQ 1760 880 1
    SAMPLES "" ""
    SPLIGNORE 0 0
    SPLDEF 2 660 "" 0
    SPLDEF 3 440 "" 0
    PATTERN 0 169
    PATTERNSTR ABBB
    MULT 1
  >
  GLOBAL_AUTO -1
  TEMPO 128.59999614200012 4 4
  PLAYRATE 1 0 0.25 4
  SELECTION 0 0
  SELECTION2 0 0
  MASTERAUTOMODE 0
  MASTERTRACKHEIGHT 0 0
  MASTERPEAKCOL 16576
  MASTERMUTESOLO 0
  MASTERTRACKVIEW 0 0.6667 0.5 0.5 0 0 0 0 0 0 0 0 0 0
  MASTERHWOUT 0 0 1 0 0 0 0 -1
  MASTER_NCH 2 2
  MASTER_VOLUME 1 0 -1 -1 1
  MASTER_PANMODE 3
  MASTER_PANLAWFLAGS 3
  MASTER_FX 1
  MASTER_SEL 0
  <MASTERPLAYSPEEDENV
    EGUID {A444B762-B515-4819-8022-C077B4E7C661}
    ACT 0 -1
    VIS 0 1 1
    LANEHEIGHT 0 0
    ARM 0
    DEFSHAPE 0 -1 -1
  >
  <TEMPOENVEX
    EGUID {5B8BA17C-E962-4DA1-8858-E3392A010D60}
    ACT 1 -1
    VIS 1 0 1
    LANEHEIGHT 0 0
    ARM 0
    DEFSHAPE 1 -1 -1
  >
  <PROJBAY
  >
  <TRACK {55E8426B-FDC4-4CE2-91D5-BF4EFEF3ACCF}
    NAME "NES - Pulse 1 [ch0]"
    PEAKCOL 16576606
    BEAT -1
    AUTOMODE 0
    PANLAWFLAGS 3
    VOLPAN 1 0 -1 -1 1
    MUTESOLO 0 0 0
    IPHASE 0
    PLAYOFFS 0 1
    ISBUS 0 0
    BUSCOMP 0 0 0 0 0
    SHOWINMIX 1 0.6667 0.5 1 0.5 0 0 0
    FIXEDLANES 9 0 0 0 0
    SEL 1
    REC 1 5088 1 0 0 0 0 0
    VU 2
    TRACKHEIGHT 0 0 0 0 0 0 0
    INQ 0 0 0 0.5 100 0 0 100
    NCHAN 2
    FX 1
    TRACKID {55E8426B-FDC4-4CE2-91D5-BF4EFEF3ACCF}
    PERF 0
    MIDIOUT -1
    MAINSEND 1 0
    <FXCHAIN
      WNDRECT 24 52 700 560
      SHOW 0
      LASTSEL 0
      DOCKED 0
      BYPASS 0 0 0
      <JS "ReapNES Studio/ReapNES_Console.jsfx" ""
        2 15 1 10 80 10 100 2 1 15 1 5 60 10 80 1 1 0 50 0 0 15 1 0 100 0 0 0.500000 0.500000 0.400000 0.300000 0.800000 0 1 0 0 0 0 - - - - - - - - - - - - - - - - - - - - - - - - - -
      >
      FLOATPOS 0 0 0 0
      FXID {D9B67420-BAB3-4CBA-BD0B-F465BAAA7F28}
      WAK 0 0
    >
    <ITEM
      POSITION 0
      LENGTH 74.2923817
      LOOP 0
      ALLTAKES 0
      FADEIN 0 0 0 0 0 0 0
      FADEOUT 0 0 0 0 0 0 0
      MUTE 0 0
      SEL 0
      IGUID {F00859A3-FB37-4248-8D5A-503515ECFFE5}
      <SOURCE MIDI
        HASDATA 1 480 QN
        CCINTERP 32
        E 0 c0 50
        E 0 b0 0c 60
        E 0 b0 0b 7f
        E 0 90 3e 7f
        E 16 b0 0b 5d
        E 16 b0 0b 3b
        E 16 b0 0b 55
        E 48 b0 0b 3b
        E 16 b0 0b 55
        E 48 b0 0b 3b
        E 16 b0 0b 55
        E 16 b0 0b 44
        E 16 b0 0b 33
        E 16 b0 0b 22
        E 16 b0 0b 19
        E 16 b0 0b 08
        E 16 80 3e 00
        E 64 b0 0b 7f
        E 0 90 3e 7f
        E 16 b0 0b 66
        E 16 b0 0b 55
        E 16 b0 0b 3b
        E 16 b0 0b 2a
        E 16 b0 0b 22
        E 16 b0 0b 19
        E 64 b0 0b 7f
        E 16 b0 0b 66
        E 16 b0 0b 55
        E 16 b0 0b 3b
        E 16 b0 0b 2a
        E 16 b0 0b 22
        E 16 b0 0b 19
        E 80 b0 0b 7f
        E 16 b0 0b 66
        E 16 b0 0b 55
        E 16 b0 0b 3b
        E 16 b0 0b 2a
        E 16 b0 0b 22
        E 16 b0 0b 19
        E 64 b0 0b 7f
        E 16 b0 0b 66
        E 16 b0 0b 55
        E 16 b0 0b 3b
        E 16 b0 0b 2a
        E 16 b0 0b 22
        E 16 b0 0b 19
        E 80 b0 0b 7f
        E 16 b0 0b 66
        E 16 b0 0b 55
        E 16 b0 0b 3b
        E 16 b0 0b 2a
        E 16 b0 0b 22
        E 16 b0 0b 19
        E 64 b0 0b 7f
        E 16 b0 0b 66
        E 16 b0 0b 55
        E 16 b0 0b 3b
        E 16 b0 0b 2a
        E 16 b0 0b 22
        E 16 b0 0b 19
        E 80 b0 0b 7f
        E 16 b0 0b 66
        E 16 b0 0b 55
        E 16 b0 0b 3b
        E 16 b0 0b 2a
        E 16 b0 0b 22
        E 16 b0 0b 19
        E 64 b0 0b 7f
        E 16 b0 0b 66
        E 16 b0 0b 55
        E 16 b0 0b 3b
        E 16 b0 0b 2a
        E 16 b0 0b 22
        E 16 b0 0b 19
        E 80 b0 0b 7f
        E 16 b0 0b 66
        E 16 b0 0b 55
        E 16 b0 0b 3b
        E 16 b0 0b 2a
        E 16 b0 0b 22
        E 16 b0 0b 19
        E 64 b0 0b 7f
        E 16 b0 0b 66
        E 16 b0 0b 55
        E 16 b0 0b 3b
        E 16 b0 0b 2a
        E 16 b0 0b 22
        E 16 b0 0b 19
        E 80 b0 0b 7f
        E 16 b0 0b 66
        E 16 b0 0b 55
        E 16 b0 0b 3b
        E 16 b0 0b 2a
        E 16 b0 0b 22
        E 16 b0 0b 19
        E 64 b0 0b 7f
        E 16 b0 0b 66
        E 16 b0 0b 55
        E 16 b0 0b 3b
        E 16 b0 0b 2a
        E 16 b0 0b 22
        E 16 b0 0b 19
        E 80 b0 0b 7f
        E 16 b0 0b 66
        E 16 b0 0b 55
        E 16 b0 0b 3b
        E 16 b0 0b 2a
        E 16 b0 0b 22
        E 16 b0 0b 19
        E 64 b0 0b 7f
        E 16 b0 0b 66
        E 16 b0 0b 55
        E 16 b0 0b 3b
        E 16 b0 0b 2a
        E 16 b0 0b 22
        E 16 b0 0b 19
        E 80 b0 0b 2a
        E 0 80 3e 00
        E 0 90 37 2a
        E 16 b0 0b 55
        E 16 b0 0b 7f
        E 16 b0 0b 66
        E 144 b0 0b 4c
        E 16 b0 0b 3b
        E 16 b0 0b 2a
        E 16 b0 0b 19
        E 16 b0 0b 08
        E 16 80 37 00
        E 224 b0 0b 2a
        E 0 90 3e 2a
        E 16 b0 0b 55
        E 16 b0 0b 7f
        E 16 b0 0b 66
        E 576 80 3e 00
        E 224 b0 0b 2a
        E 0 90 37 2a
        E 16 b0 0b 55
        E 16 b0 0b 7f
        E 16 b0 0b 66
        E 144 b0 0b 4c
        E 16 b0 0b 3b
        E 16 b0 0b 2a
        E 16 b0 0b 19
        E 16 b0 0b 08
        E 16 80 37 00
        E 224 b0 0b 2a
        E 0 90 3e 2a
        E 16 b0 0b 55
        E 16 b0 0b 7f
        E 16 b0 0b 66
        E 576 80 3e 00
        E 560 b0 0b 2a
        E 0 90 37 2a
        E 16 b0 0b 55
        E 16 b0 0b 7f
        E 16 b0 0b 66
        E 144 b0 0b 4c
        E 16 b0 0b 3b
        E 16 b0 0b 2a
        E 16 b0 0b 19
        E 16 b0 0b 08
        E 16 80 37 00
        E 64 b0 0b 2a
        E 0 90 3a 2a
        E 16 b0 0b 55
        E 16 b0 0b 7f
        E 16 b0 0b 66
        E 48 b0 0b 4c
        E 16 b0 0b 3b
        E 16 b0 0b 2a
        E 16 b0 0b 19
        E 16 b0 0b 2a
        E 0 80 3a 00
        E 0 90 3e 2a
        E 16 b0 0b 55
        E 16 b0 0b 7f
        E 16 b0 0b 66
        E 144 b0 0b 4c
        E 16 b0 0b 3b
        E 16 b0 0b 2a
        E 16 b0 0b 19
        E 16 b0 0b 08
        E 16 80 3e 00
        E 64 b0 0b 2a
        E 0 90 3c 2a
        E 16 b0 0b 55
        E 16 b0 0b 7f
        E 16 b0 0b 66
        E 224 b0 0b 4c
        E 16 b0 0b 3b
        E 16 b0 0b 2a
        E 16 b0 0b 19
        E 16 b0 0b 2a
        E 0 80 3c 00
        E 0 90 3a 2a
        E 16 b0 0b 55
        E 16 b0 0b 7f
        E 16 b0 0b 66
        E 144 b0 0b 4c
        E 16 b0 0b 3b
        E 16 b0 0b 2a
        E 16 b0 0b 19
        E 16 b0 0b 08
        E 16 80 3a 00
        E 64 b0 0b 2a
        E 0 90 39 2a
        E 16 b0 0b 55
        E 16 b0 0b 7f
        E 16 b0 0b 66
        E 256 b0 0b 4c
        E 16 b0 0b 3b
        E 16 b0 0b 2a
        E 16 b0 0b 19
        E 16 b0 0b 08
        E 16 80 39 00
        E 128 b0 0b 2a
        E 0 90 36 2a
        E 16 b0 0b 55
        E 16 b0 0b 7f
        E 16 b0 0b 66
        E 144 b0 0b 4c
        E 16 b0 0b 3b
        E 16 b0 0b 2a
        E 16 b0 0b 19
        E 16 b0 0b 08
        E 16 80 36 00
        E 64 b0 0b 2a
        E 0 90 37 2a
        E 16 b0 0b 55
        E 16 b0 0b 7f
        E 16 b0 0b 66
        E 144 b0 0b 4c
        E 16 b0 0b 3b
        E 16 b0 0b 2a
        E 16 b0 0b 19
        E 16 b0 0b 08
        E 16 80 37 00
        E 224 b0 0b 2a
        E 0 90 3e 2a
        E 16 b0 0b 55
        E 16 b0 0b 7f
        E 16 b0 0b 66
        E 592 80 3e 00
        E 208 b0 0b 2a
        E 0 90 37 2a
        E 16 b0 0b 55
        E 16 b0 0b 7f
        E 16 b0 0b 66
        E 144 b0 0b 4c
        E 16 b0 0b 3b
        E 16 b0 0b 2a
        E 16 b0 0b 19
        E 16 b0 0b 08
        E 16 80 37 00
        E 224 b0 0b 2a
        E 0 90 3e 2a
        E 16 b0 0b 55
        E 16 b0 0b 7f
        E 16 b0 0b 66
        E 592 80 3e 00
        E 544 b0 0b 2a
        E 0 90 37 2a
        E 16 b0 0b 55
        E 16 b0 0b 7f
        E 16 b0 0b 66
        E 144 b0 0b 4c
        E 16 b0 0b 3b
        E 16 b0 0b 2a
        E 16 b0 0b 19
        E 16 b0 0b 08
        E 16 80 37 00
        E 64 b0 0b 2a
        E 0 90 3a 2a
        E 16 b0 0b 55
        E 16 b0 0b 7f
        E 16 b0 0b 66
        E 48 b0 0b 4c
        E 16 b0 0b 3b
        E 16 b0 0b 2a
        E 16 b0 0b 19
        E 16 b0 0b 2a
        E 0 80 3a 00
        E 0 90 3e 2a
        E 16 b0 0b 55
        E 16 b0 0b 7f
        E 16 b0 0b 66
        E 144 b0 0b 4c
        E 16 b0 0b 3b
        E 16 b0 0b 2a
        E 16 b0 0b 19
        E 16 b0 0b 08
        E 16 80 3e 00
        E 64 b0 0b 2a
        E 0 90 3e 2a
        E 16 b0 0b 55
        E 16 b0 0b 7f
        E 16 b0 0b 66
        E 224 b0 0b 4c
        E 16 b0 0b 3b
        E 16 b0 0b 2a
        E 16 b0 0b 19
        E 16 b0 0b 2a
        E 0 80 3e 00
        E 0 90 3c 2a
        E 16 b0 0b 55
        E 16 b0 0b 7f
        E 16 b0 0b 66
        E 144 b0 0b 4c
        E 16 b0 0b 3b
        E 16 b0 0b 2a
        E 16 b0 0b 19
        E 16 b0 0b 08
        E 16 80 3c 00
        E 64 b0 0b 2a
        E 0 90 3c 2a
        E 16 b0 0b 55
        E 16 b0 0b 7f
        E 16 b0 0b 66
        E 48 b0 0b 4c
        E 16 b0 0b 3b
        E 16 b0 0b 2a
        E 16 b0 0b 19
        E 16 b0 0b 08
        E 16 80 3c 00
        E 160 b0 0b 2a
        E 0 90 3a 2a
        E 16 b0 0b 55
        E 16 b0 0b 7f
        E 16 b0 0b 66
        E 48 b0 0b 4c
        E 16 b0 0b 3b
        E 16 b0 0b 2a
        E 16 b0 0b 19
        E 16 b0 0b 08
        E 16 b0 0b 2a
        E 0 80 3a 00
        E 0 90 3c 2a
        E 16 b0 0b 55
        E 16 b0 0b 7f
        E 16 b0 0b 66
        E 144 b0 0b 4c
        E 16 b0 0b 3b
        E 16 b0 0b 2a
        E 16 b0 0b 19
        E 16 b0 0b 08
        E 16 80 3c 00
        E 64 b0 0b 2a
        E 0 90 3f 2a
        E 16 b0 0b 55
        E 16 b0 0b 7f
        E 16 b0 0b 66
        E 144 b0 0b 4c
        E 16 b0 0b 3b
        E 16 b0 0b 2a
        E 16 b0 0b 19
        E 16 b0 0b 08
        E 16 80 3f 00
        E 64 b0 0b 2a
        E 0 90 3e 2a
        E 16 b0 0b 55
        E 16 b0 0b 7f
        E 16 b0 0b 66
        E 48 b0 0b 4c
        E 16 b0 0b 3b
        E 16 b0 0b 2a
        E 16 b0 0b 19
        E 16 b0 0b 2a
        E 16 b0 0b 55
        E 16 b0 0b 7f
        E 16 b0 0b 66
        E 144 b0 0b 4c
        E 16 b0 0b 3b
        E 16 b0 0b 2a
        E 16 b0 0b 19
        E 16 b0 0b 08
        E 16 80 3e 00
        E 64 b0 0b 2a
        E 0 90 3a 2a
        E 16 b0 0b 55
        E 16 b0 0b 7f
        E 16 b0 0b 66
        E 144 b0 0b 4c
        E 16 b0 0b 3b
        E 16 b0 0b 2a
        E 16 b0 0b 19
        E 16 b0 0b 08
        E 16 80 3a 00
        E 64 b0 0b 2a
        E 0 90 3f 2a
        E 16 b0 0b 55
        E 16 b0 0b 7f
        E 16 b0 0b 66
        E 224 b0 0b 4c
        E 16 b0 0b 3b
        E 16 b0 0b 2a
        E 16 b0 0b 19
        E 16 b0 0b 2a
        E 0 80 3f 00
        E 0 90 3e 2a
        E 16 b0 0b 55
        E 16 b0 0b 7f
        E 16 b0 0b 66
        E 160 b0 0b 4c
        E 16 b0 0b 3b
        E 16 b0 0b 2a
        E 16 b0 0b 19
        E 16 b0 0b 08
        E 16 80 3e 00
        E 48 b0 0b 2a
        E 0 90 3e 2a
        E 16 b0 0b 55
        E 16 b0 0b 7f
        E 16 b0 0b 66
        E 256 b0 0b 4c
        E 16 b0 0b 3b
        E 16 b0 0b 2a
        E 16 b0 0b 19
        E 16 b0 0b 08
        E 16 80 3e 00
        E 288 b0 0b 2a
        E 0 90 3a 2a
        E 16 b0 0b 55
        E 16 b0 0b 7f
        E 16 b0 0b 66
        E 48 b0 0b 4c
        E 16 b0 0b 3b
        E 16 b0 0b 2a
        E 16 b0 0b 19
        E 16 b0 0b 08
        E 16 b0 0b 2a
        E 0 80 3a 00
        E 0 90 3c 2a
        E 16 b0 0b 55
        E 16 b0 0b 7f
        E 16 b0 0b 66
        E 48 b0 0b 4c
        E 16 b0 0b 3b
        E 16 b0 0b 2a
        E 16 b0 0b 19
        E 16 b0 0b 2a
        E 0 80 3c 00
        E 0 90 3e 2a
        E 16 b0 0b 55
        E 16 b0 0b 7f
        E 16 b0 0b 66
        E 160 b0 0b 4c
        E 16 b0 0b 3b
        E 16 b0 0b 2a
        E 16 b0 0b 19
        E 16 b0 0b 08
        E 16 80 3e 00
        E 48 b0 0b 2a
        E 0 90 3e 2a
        E 16 b0 0b 55
        E 16 b0 0b 7f
        E 16 b0 0b 66
        E 160 b0 0b 4c
        E 16 b0 0b 3b
        E 16 b0 0b 2a
        E 16 b0 0b 19
        E 16 b0 0b 08
        E 16 80 3e 00
        E 48 b0 0b 2a
        E 0 90 3c 2a
        E 16 b0 0b 55
        E 16 b0 0b 7f
        E 16 b0 0b 66
        E 160 b0 0b 4c
        E 16 b0 0b 3b
        E 16 b0 0b 2a
        E 16 b0 0b 19
        E 16 b0 0b 08
        E 16 80 3c 00
        E 48 b0 0b 2a
        E 0 90 3e 2a
        E 16 b0 0b 55
        E 16 b0 0b 7f
        E 16 b0 0b 66
        E 48 b0 0b 4c
        E 16 b0 0b 3b
        E 16 b0 0b 2a
        E 16 b0 0b 19
        E 16 b0 0b 08
        E 16 80 3e 00
        E 160 b0 0b 7f
        E 0 90 41 7f
        E 16 b0 0b 6e
        E 48 b0 0b 5d
        E 16 b0 0b 55
        E 16 b0 0b 44
        E 16 b0 0b 3b
        E 16 b0 0b 33
        E 16 b0 0b 22
        E 16 b0 0b 19
        E 16 b0 0b 7f
        E 16 b0 0b 6e
        E 48 b0 0b 5d
        E 16 b0 0b 55
        E 16 b0 0b 44
        E 16 b0 0b 3b
        E 16 b0 0b 33
        E 16 b0 0b 22
        E 16 b0 0b 7f
        E 16 b0 0b 6e
        E 48 b0 0b 5d
        E 16 b0 0b 55
        E 16 b0 0b 44
        E 16 b0 0b 3b
        E 16 b0 0b 33
        E 16 b0 0b 22
        E 16 b0 0b 19
        E 16 b0 0b 7f
        E 16 b0 0b 6e
        E 48 b0 0b 5d
        E 16 b0 0b 55
        E 16 b0 0b 44
        E 16 b0 0b 3b
        E 16 b0 0b 33
        E 16 b0 0b 22
        E 16 b0 0b 7f
        E 16 b0 0b 6e
        E 112 b0 0b 5d
        E 16 b0 0b 55
        E 16 b0 0b 44
        E 16 b0 0b 3b
        E 16 b0 0b 33
        E 16 b0 0b 22
        E 16 b0 0b 19
        E 16 b0 0b 11
        E 16 80 41 00
        E 80 b0 0b 7f
        E 0 90 40 7f
        E 16 b0 0b 6e
        E 528 b0 0b 5d
        E 16 b0 0b 55
        E 16 b0 0b 44
        E 16 b0 0b 3b
        E 16 b0 0b 33
        E 16 b0 0b 22
        E 16 b0 0b 19
        E 16 b0 0b 11
        E 16 80 40 00
        E 176 b0 0b 7f
        E 0 90 40 7f
        E 16 b0 0b 6e
        E 112 b0 0b 5d
        E 16 b0 0b 55
        E 16 b0 0b 44
        E 16 b0 0b 3b
        E 16 b0 0b 33
        E 16 b0 0b 22
        E 16 b0 0b 19
        E 16 b0 0b 11
        E 16 80 40 00
        E 80 b0 0b 7f
        E 0 90 3c 7f
        E 16 b0 0b 6e
        E 48 b0 0b 5d
        E 16 b0 0b 55
        E 16 b0 0b 44
        E 16 b0 0b 3b
        E 16 b0 0b 33
        E 16 b0 0b 22
        E 16 b0 0b 7f
        E 0 80 3c 00
        E 0 90 3e 7f
        E 16 b0 0b 6e
        E 224 b0 0b 5d
        E 16 b0 0b 55
        E 16 b0 0b 44
        E 16 b0 0b 3b
        E 16 b0 0b 33
        E 16 b0 0b 22
        E 16 b0 0b 7f
        E 0 80 3e 00
        E 0 90 40 7f
        E 16 b0 0b 6e
        E 48 b0 0b 5d
        E 16 b0 0b 55
        E 16 b0 0b 44
        E 16 b0 0b 3b
        E 16 b0 0b 33
        E 16 b0 0b 22
        E 16 b0 0b 19
        E 16 b0 0b 7f
        E 0 80 40 00
        E 0 90 41 7f
        E 16 b0 0b 6e
        E 48 b0 0b 5d
        E 16 b0 0b 55
        E 16 b0 0b 44
        E 16 b0 0b 3b
        E 16 b0 0b 33
        E 16 b0 0b 22
        E 16 b0 0b 7f
        E 16 b0 0b 6e
        E 48 b0 0b 5d
        E 16 b0 0b 55
        E 16 b0 0b 44
        E 16 b0 0b 3b
        E 16 b0 0b 33
        E 16 b0 0b 22
        E 16 b0 0b 19
        E 16 b0 0b 7f
        E 16 b0 0b 6e
        E 48 b0 0b 5d
        E 16 b0 0b 55
        E 16 b0 0b 44
        E 16 b0 0b 3b
        E 16 b0 0b 33
        E 16 b0 0b 22
        E 16 b0 0b 7f
        E 16 b0 0b 6e
        E 112 b0 0b 5d
        E 16 b0 0b 55
        E 16 b0 0b 44
        E 16 b0 0b 3b
        E 16 b0 0b 33
        E 16 b0 0b 22
        E 16 b0 0b 19
        E 16 b0 0b 11
        E 16 80 41 00
        E 80 b0 0b 7f
        E 0 90 40 7f
        E 16 b0 0b 6e
        E 224 b0 0b 5d
        E 16 b0 0b 55
        E 16 b0 0b 44
        E 16 b0 0b 3b
        E 16 b0 0b 33
        E 16 b0 0b 22
        E 16 b0 0b 7f
        E 0 80 40 00
        E 0 90 43 7f
        E 16 b0 0b 6e
        E 48 b0 0b 5d
        E 16 b0 0b 55
        E 16 b0 0b 44
        E 16 b0 0b 3b
        E 16 b0 0b 33
        E 16 b0 0b 22
        E 16 b0 0b 19
        E 16 b0 0b 7f
        E 0 80 43 00
        E 0 90 41 7f
        E 16 b0 0b 6e
        E 48 b0 0b 5d
        E 16 b0 0b 55
        E 16 b0 0b 44
        E 16 b0 0b 3b
        E 16 b0 0b 33
        E 16 b0 0b 22
        E 16 b0 0b 7f
        E 0 80 41 00
        E 0 90 40 7f
        E 16 b0 0b 6e
        E 112 b0 0b 5d
        E 16 b0 0b 55
        E 16 b0 0b 44
        E 16 b0 0b 3b
        E 16 b0 0b 33
        E 16 b0 0b 22
        E 16 b0 0b 19
        E 16 b0 0b 11
        E 16 80 40 00
        E 80 b0 0b 7f
        E 0 90 3c 7f
        E 16 b0 0b 6e
        E 560 b0 0b 5d
        E 16 b0 0b 55
        E 16 b0 0b 44
        E 16 b0 0b 3b
        E 16 b0 0b 33
        E 16 b0 0b 22
        E 16 b0 0b 7f
        E 0 80 3c 00
        E 0 90 41 7f
        E 16 b0 0b 6e
        E 48 b0 0b 5d
        E 16 b0 0b 55
        E 16 b0 0b 44
        E 16 b0 0b 3b
        E 16 b0 0b 33
        E 16 b0 0b 22
        E 16 b0 0b 19
        E 16 b0 0b 7f
        E 16 b0 0b 6e
        E 48 b0 0b 5d
        E 16 b0 0b 55
        E 16 b0 0b 44
        E 16 b0 0b 3b
        E 16 b0 0b 33
        E 16 b0 0b 22
        E 16 b0 0b 7f
        E 16 b0 0b 6e
        E 48 b0 0b 5d
        E 16 b0 0b 55
        E 16 b0 0b 44
        E 16 b0 0b 3b
        E 16 b0 0b 33
        E 16 b0 0b 22
        E 16 b0 0b 19
        E 16 b0 0b 7f
        E 16 b0 0b 6e
        E 48 b0 0b 5d
        E 16 b0 0b 55
        E 16 b0 0b 44
        E 16 b0 0b 3b
        E 16 b0 0b 33
        E 16 b0 0b 22
        E 16 b0 0b 7f
        E 16 b0 0b 6e
        E 112 b0 0b 5d
        E 16 b0 0b 55
        E 16 b0 0b 44
        E 16 b0 0b 3b
        E 16 b0 0b 33
        E 16 b0 0b 22
        E 16 b0 0b 19
        E 16 b0 0b 11
        E 16 80 41 00
        E 80 b0 0b 7f
        E 0 90 43 7f
        E 16 b0 0b 6e
        E 288 b0 0b 5d
        E 16 b0 0b 55
        E 16 b0 0b 44
        E 16 b0 0b 3b
        E 16 b0 0b 33
        E 16 b0 0b 22
        E 16 b0 0b 19
        E 16 b0 0b 11
        E 16 80 43 00
        E 80 b0 0b 7f
        E 0 90 41 7f
        E 16 b0 0b 6e
        E 112 b0 0b 5d
        E 16 b0 0b 55
        E 16 b0 0b 44
        E 16 b0 0b 3b
        E 16 b0 0b 33
        E 16 b0 0b 22
        E 16 b0 0b 19
        E 16 b0 0b 11
        E 16 80 41 00
        E 80 b0 0b 7f
        E 0 90 3f 7f
        E 16 b0 0b 6e
        E 48 b0 0b 5d
        E 16 b0 0b 55
        E 16 b0 0b 44
        E 16 b0 0b 3b
        E 16 b0 0b 33
        E 16 b0 0b 22
        E 16 b0 0b 7f
        E 0 80 3f 00
        E 0 90 3e 7f
        E 16 b0 0b 6e
        E 112 b0 0b 5d
        E 16 b0 0b 55
        E 16 b0 0b 44
        E 16 b0 0b 3b
        E 16 b0 0b 33
        E 16 b0 0b 22
        E 16 b0 0b 19
        E 16 b0 0b 11
        E 16 80 3e 00
        E 80 b0 0b 7f
        E 0 90 3f 7f
        E 16 b0 0b 6e
        E 288 b0 0b 5d
        E 16 b0 0b 55
        E 16 b0 0b 44
        E 16 b0 0b 3b
        E 16 b0 0b 33
        E 16 b0 0b 22
        E 16 b0 0b 19
        E 16 b0 0b 11
        E 16 80 3f 00
        E 80 b0 0b 7f
        E 0 90 3c 7f
        E 16 b0 0b 6e
        E 112 b0 0b 5d
        E 16 b0 0b 55
        E 16 b0 0b 44
        E 16 b0 0b 3b
        E 16 b0 0b 33
        E 16 b0 0b 22
        E 16 b0 0b 19
        E 16 b0 0b 11
        E 16 80 3c 00
        E 80 b0 0b 7f
        E 0 90 3e 7f
        E 16 b0 0b 6e
        E 112 b0 0b 5d
        E 16 b0 0b 55
        E 16 b0 0b 44
        E 16 b0 0b 3b
        E 16 b0 0b 33
        E 16 b0 0b 22
        E 16 b0 0b 19
        E 16 b0 0b 11
        E 16 80 3e 00
        E 80 b0 0b 7f
        E 0 90 3f 7f
        E 16 b0 0b 6e
        E 112 b0 0b 5d
        E 16 b0 0b 55
        E 16 b0 0b 44
        E 16 b0 0b 3b
        E 16 b0 0b 33
        E 16 b0 0b 22
        E 16 b0 0b 19
        E 16 b0 0b 11
        E 16 80 3f 00
        E 80 b0 0b 7f
        E 0 90 43 7f
        E 16 b0 0b 6e
        E 48 b0 0b 5d
        E 16 b0 0b 55
        E 16 b0 0b 44
        E 16 b0 0b 3b
        E 16 b0 0b 33
        E 16 b0 0b 22
        E 16 b0 0b 7f
        E 0 80 43 00
        E 0 90 41 7f
        E 16 b0 0b 6e
        E 112 b0 0b 5d
        E 16 b0 0b 55
        E 16 b0 0b 44
        E 16 b0 0b 3b
        E 16 b0 0b 33
        E 16 b0 0b 22
        E 16 b0 0b 19
        E 16 b0 0b 11
        E 16 80 41 00
        E 80 b0 0b 7f
        E 0 90 41 7f
        E 16 b0 0b 6e
        E 112 b0 0b 5d
        E 16 b0 0b 55
        E 16 b0 0b 44
        E 16 b0 0b 3b
        E 16 b0 0b 33
        E 16 b0 0b 22
        E 16 b0 0b 19
        E 16 b0 0b 11
        E 16 80 41 00
        E 80 b0 0b 7f
        E 0 90 3f 7f
        E 16 b0 0b 6e
        E 112 b0 0b 5d
        E 16 b0 0b 55
        E 16 b0 0b 44
        E 16 b0 0b 3b
        E 16 b0 0b 33
        E 16 b0 0b 22
        E 16 b0 0b 19
        E 16 b0 0b 11
        E 16 80 3f 00
        E 80 b0 0b 7f
        E 0 90 41 7f
        E 16 b0 0b 6e
        E 48 b0 0b 5d
        E 16 b0 0b 55
        E 16 b0 0b 44
        E 16 b0 0b 3b
        E 16 b0 0b 33
        E 16 b0 0b 22
        E 16 b0 0b 19
        E 16 b0 0b 11
        E 16 80 41 00
        E 144 b0 0b 7f
        E 0 90 44 7f
        E 16 b0 0b 6e
        E 48 b0 0b 5d
        E 16 b0 0b 55
        E 16 b0 0b 44
        E 16 b0 0b 3b
        E 16 b0 0b 33
        E 16 b0 0b 22
        E 16 b0 0b 19
        E 16 b0 0b 7f
        E 16 b0 0b 6e
        E 48 b0 0b 5d
        E 16 b0 0b 55
        E 16 b0 0b 44
        E 16 b0 0b 3b
        E 16 b0 0b 33
        E 16 b0 0b 22
        E 16 b0 0b 7f
        E 16 b0 0b 6e
        E 48 b0 0b 5d
        E 16 b0 0b 55
        E 16 b0 0b 44
        E 16 b0 0b 3b
        E 16 b0 0b 33
        E 16 b0 0b 22
        E 16 b0 0b 19
        E 16 b0 0b 7f
        E 16 b0 0b 6e
        E 48 b0 0b 5d
        E 16 b0 0b 55
        E 16 b0 0b 44
        E 16 b0 0b 3b
        E 16 b0 0b 33
        E 16 b0 0b 22
        E 16 b0 0b 7f
        E 16 b0 0b 6e
        E 112 b0 0b 5d
        E 16 b0 0b 55
        E 16 b0 0b 44
        E 16 b0 0b 3b
        E 16 b0 0b 33
        E 16 b0 0b 22
        E 16 b0 0b 19
        E 16 b0 0b 11
        E 16 80 44 00
        E 80 b0 0b 7f
        E 0 90 43 7f
        E 16 b0 0b 6e
        E 528 b0 0b 5d
        E 16 b0 0b 55
        E 16 b0 0b 44
        E 16 b0 0b 3b
        E 16 b0 0b 33
        E 16 b0 0b 22
        E 16 b0 0b 19
        E 16 b0 0b 11
        E 16 80 43 00
        E 176 b0 0b 7f
        E 0 90 43 7f
        E 16 b0 0b 6e
        E 112 b0 0b 5d
        E 16 b0 0b 55
        E 16 b0 0b 44
        E 16 b0 0b 3b
        E 16 b0 0b 33
        E 16 b0 0b 22
        E 16 b0 0b 19
        E 16 b0 0b 11
        E 16 80 43 00
        E 80 b0 0b 7f
        E 0 90 3f 7f
        E 16 b0 0b 6e
        E 48 b0 0b 5d
        E 16 b0 0b 55
        E 16 b0 0b 44
        E 16 b0 0b 3b
        E 16 b0 0b 33
        E 16 b0 0b 22
        E 16 b0 0b 7f
        E 0 80 3f 00
        E 0 90 41 7f
        E 16 b0 0b 6e
        E 224 b0 0b 5d
        E 16 b0 0b 55
        E 16 b0 0b 44
        E 16 b0 0b 3b
        E 16 b0 0b 33
        E 16 b0 0b 22
        E 16 b0 0b 7f
        E 0 80 41 00
        E 0 90 43 7f
        E 16 b0 0b 6e
        E 48 b0 0b 5d
        E 16 b0 0b 55
        E 16 b0 0b 44
        E 16 b0 0b 3b
        E 16 b0 0b 33
        E 16 b0 0b 22
        E 16 b0 0b 19
        E 16 b0 0b 7f
        E 0 80 43 00
        E 0 90 44 7f
        E 16 b0 0b 6e
        E 48 b0 0b 5d
        E 16 b0 0b 55
        E 16 b0 0b 44
        E 16 b0 0b 3b
        E 16 b0 0b 33
        E 16 b0 0b 22
        E 16 b0 0b 7f
        E 16 b0 0b 6e
        E 48 b0 0b 5d
        E 16 b0 0b 55
        E 16 b0 0b 44
        E 16 b0 0b 3b
        E 16 b0 0b 33
        E 16 b0 0b 22
        E 16 b0 0b 19
        E 16 b0 0b 7f
        E 16 b0 0b 6e
        E 48 b0 0b 5d
        E 16 b0 0b 55
        E 16 b0 0b 44
        E 16 b0 0b 3b
        E 16 b0 0b 33
        E 16 b0 0b 22
        E 16 b0 0b 19
        E 16 b0 0b 7f
        E 16 b0 0b 6e
        E 112 b0 0b 5d
        E 16 b0 0b 55
        E 16 b0 0b 44
        E 16 b0 0b 3b
        E 16 b0 0b 33
        E 16 b0 0b 22
        E 16 b0 0b 19
        E 16 b0 0b 11
        E 16 80 44 00
        E 80 b0 0b 7f
        E 0 90 43 7f
        E 16 b0 0b 6e
        E 208 b0 0b 5d
        E 16 b0 0b 55
        E 16 b0 0b 44
        E 16 b0 0b 3b
        E 16 b0 0b 33
        E 16 b0 0b 22
        E 16 b0 0b 19
        E 16 b0 0b 7f
        E 0 80 43 00
        E 0 90 46 7f
        E 16 b0 0b 6e
        E 48 b0 0b 5d
        E 16 b0 0b 55
        E 16 b0 0b 44
        E 16 b0 0b 3b
        E 16 b0 0b 33
        E 16 b0 0b 22
        E 16 b0 0b 7f
        E 0 80 46 00
        E 0 90 44 7f
        E 16 b0 0b 6e
        E 48 b0 0b 5d
        E 16 b0 0b 55
        E 16 b0 0b 44
        E 16 b0 0b 3b
        E 16 b0 0b 33
        E 16 b0 0b 22
        E 16 b0 0b 19
        E 16 b0 0b 7f
        E 0 80 44 00
        E 0 90 43 7f
        E 16 b0 0b 6e
        E 112 b0 0b 5d
        E 16 b0 0b 55
        E 16 b0 0b 44
        E 16 b0 0b 3b
        E 16 b0 0b 33
        E 16 b0 0b 22
        E 16 b0 0b 19
        E 16 b0 0b 11
        E 16 80 43 00
        E 80 b0 0b 7f
        E 0 90 3f 7f
        E 16 b0 0b 6e
        E 544 b0 0b 5d
        E 16 b0 0b 55
        E 16 b0 0b 44
        E 16 b0 0b 3b
        E 16 b0 0b 33
        E 16 b0 0b 22
        E 16 b0 0b 19
        E 16 b0 0b 7f
        E 0 80 3f 00
        E 0 90 44 7f
        E 16 b0 0b 6e
        E 48 b0 0b 5d
        E 16 b0 0b 55
        E 16 b0 0b 44
        E 16 b0 0b 3b
        E 16 b0 0b 33
        E 16 b0 0b 22
        E 16 b0 0b 7f
        E 16 b0 0b 6e
        E 48 b0 0b 5d
        E 16 b0 0b 55
        E 16 b0 0b 44
        E 16 b0 0b 3b
        E 16 b0 0b 33
        E 16 b0 0b 22
        E 16 b0 0b 19
        E 16 b0 0b 7f
        E 16 b0 0b 6e
        E 48 b0 0b 5d
        E 16 b0 0b 55
        E 16 b0 0b 44
        E 16 b0 0b 3b
        E 16 b0 0b 33
        E 16 b0 0b 22
        E 16 b0 0b 7f
        E 16 b0 0b 6e
        E 48 b0 0b 5d
        E 16 b0 0b 55
        E 16 b0 0b 44
        E 16 b0 0b 3b
        E 16 b0 0b 33
        E 16 b0 0b 22
        E 16 b0 0b 19
        E 16 b0 0b 7f
        E 16 b0 0b 6e
        E 112 b0 0b 5d
        E 16 b0 0b 55
        E 16 b0 0b 44
        E 16 b0 0b 3b
        E 16 b0 0b 33
        E 16 b0 0b 22
        E 16 b0 0b 19
        E 16 80 44 00
        E 16 b0 0c 40
        E 0 b0 0b 3b
        E 0 90 4e 3b
        E 16 b0 0b 7f
        E 16 b0 0b 11
        E 32 b0 0b 7f
        E 0 80 4e 00
        E 0 90 4a 7f
        E 16 b0 0b 77
        E 16 b0 0b 66
        E 32 b0 0b 7f
        E 0 80 4a 00
        E 0 90 54 7f
        E 16 b0 0b 77
        E 16 b0 0b 66
        E 32 b0 0b 7f
        E 0 80 54 00
        E 0 90 5a 7f
        E 16 b0 0b 77
        E 16 b0 0b 66
        E 32 b0 0b 7f
        E 0 80 5a 00
        E 0 90 52 7f
        E 16 b0 0b 77
        E 16 b0 0b 66
        E 32 b0 0b 7f
        E 0 80 52 00
        E 0 90 5d 7f
        E 16 b0 0b 77
        E 16 b0 0b 66
        E 32 b0 0b 7f
        E 0 80 5d 00
        E 0 90 60 7f
        E 16 b0 0b 77
        E 16 b0 0b 66
        E 16 b0 0c 60
        E 0 b0 0b 33
        E 0 80 60 00
        E 0 90 46 33
        E 16 b0 0b 22
        E 16 b0 0b 19
        E 16 b0 0b 11
        E 16 80 46 00
        E 80 b0 0b 7f
        E 0 90 44 7f
        E 16 b0 0b 6e
        E 112 b0 0b 5d
        E 16 b0 0b 55
        E 16 b0 0b 44
        E 16 b0 0b 3b
        E 16 b0 0b 33
        E 16 b0 0b 22
        E 16 b0 0b 19
        E 16 b0 0b 11
        E 16 80 44 00
        E 80 b0 0b 7f
        E 0 90 42 7f
        E 16 b0 0b 6e
        E 48 b0 0b 5d
        E 16 b0 0b 55
        E 16 b0 0b 44
        E 16 b0 0b 3b
        E 16 b0 0b 33
        E 16 b0 0b 22
        E 16 b0 0b 19
        E 16 b0 0b 7f
        E 0 80 42 00
        E 0 90 41 7f
        E 16 b0 0b 6e
        E 112 b0 0b 5d
        E 16 b0 0b 55
        E 16 b0 0b 44
        E 16 b0 0b 3b
        E 16 b0 0b 33
        E 16 b0 0b 22
        E 16 b0 0b 19
        E 16 b0 0b 11
        E 16 80 41 00
        E 80 b0 0b 7f
        E 0 90 42 7f
        E 16 b0 0b 6e
        E 272 b0 0b 5d
        E 16 b0 0b 55
        E 16 b0 0b 44
        E 16 b0 0b 3b
        E 16 b0 0b 33
        E 16 b0 0b 22
        E 16 b0 0b 19
        E 16 b0 0b 11
        E 16 80 42 00
        E 80 b0 0b 7f
        E 0 90 3f 7f
        E 16 b0 0b 6e
        E 112 b0 0b 5d
        E 16 b0 0b 55
        E 16 b0 0b 44
        E 16 b0 0b 3b
        E 16 b0 0b 33
        E 16 b0 0b 22
        E 16 b0 0b 19
        E 16 b0 0b 11
        E 16 80 3f 00
        E 80 b0 0b 7f
        E 0 90 41 7f
        E 16 b0 0b 6e
        E 112 b0 0b 5d
        E 16 b0 0b 55
        E 16 b0 0b 44
        E 16 b0 0b 3b
        E 16 b0 0b 33
        E 16 b0 0b 22
        E 16 b0 0b 19
        E 16 b0 0b 11
        E 16 80 41 00
        E 80 b0 0b 7f
        E 0 90 42 7f
        E 16 b0 0b 6e
        E 112 b0 0b 5d
        E 16 b0 0b 55
        E 16 b0 0b 44
        E 16 b0 0b 3b
        E 16 b0 0b 33
        E 16 b0 0b 22
        E 16 b0 0b 19
        E 16 b0 0b 11
        E 16 80 42 00
        E 80 b0 0b 7f
        E 0 90 46 7f
        E 16 b0 0b 6e
        E 48 b0 0b 5d
        E 16 b0 0b 55
        E 16 b0 0b 44
        E 16 b0 0b 3b
        E 16 b0 0b 33
        E 16 b0 0b 22
        E 16 b0 0b 19
        E 16 b0 0b 7f
        E 0 80 46 00
        E 0 90 44 7f
        E 16 b0 0b 6e
        E 112 b0 0b 5d
        E 16 b0 0b 55
        E 16 b0 0b 44
        E 16 b0 0b 3b
        E 16 b0 0b 33
        E 16 b0 0b 22
        E 16 b0 0b 19
        E 16 b0 0b 11
        E 16 80 44 00
        E 80 b0 0b 7f
        E 0 90 44 7f
        E 16 b0 0b 6e
        E 112 b0 0b 5d
        E 16 b0 0b 55
        E 16 b0 0b 44
        E 16 b0 0b 3b
        E 16 b0 0b 33
        E 16 b0 0b 22
        E 16 b0 0b 19
        E 16 b0 0b 11
        E 16 80 44 00
        E 80 b0 0b 7f
        E 0 90 42 7f
        E 16 b0 0b 6e
        E 112 b0 0b 5d
        E 16 b0 0b 55
        E 16 b0 0b 44
        E 16 b0 0b 3b
        E 16 b0 0b 33
        E 16 b0 0b 22
        E 16 b0 0b 19
        E 16 b0 0b 11
        E 16 80 42 00
        E 80 b0 0b 7f
        E 0 90 44 7f
        E 16 b0 0b 6e
        E 48 b0 0b 5d
        E 16 b0 0b 55
        E 16 b0 0b 44
        E 16 b0 0b 3b
        E 16 b0 0b 33
        E 16 b0 0b 22
        E 16 b0 0b 19
        E 16 b0 0b 11
        E 16 80 44 00
        E 144 b0 0b 7f
        E 0 90 47 7f
        E 16 b0 0b 6e
        E 48 b0 0b 5d
        E 16 b0 0b 55
        E 16 b0 0b 44
        E 16 b0 0b 3b
        E 16 b0 0b 33
        E 16 b0 0b 22
        E 16 b0 0b 7f
        E 16 b0 0b 6e
        E 48 b0 0b 5d
        E 16 b0 0b 55
        E 16 b0 0b 44
        E 16 b0 0b 3b
        E 16 b0 0b 33
        E 16 b0 0b 22
        E 16 b0 0b 19
        E 16 b0 0b 7f
        E 16 b0 0b 6e
        E 48 b0 0b 5d
        E 16 b0 0b 55
        E 16 b0 0b 44
        E 16 b0 0b 3b
        E 16 b0 0b 33
        E 16 b0 0b 22
        E 16 b0 0b 7f
        E 16 b0 0b 6e
        E 48 b0 0b 5d
        E 16 b0 0b 55
        E 16 b0 0b 44
        E 16 b0 0b 3b
        E 16 b0 0b 33
        E 16 b0 0b 22
        E 16 b0 0b 19
        E 16 b0 0b 7f
        E 16 b0 0b 6e
        E 112 b0 0b 5d
        E 16 b0 0b 55
        E 16 b0 0b 44
        E 16 b0 0b 3b
        E 16 b0 0b 33
        E 16 b0 0b 22
        E 16 b0 0b 19
        E 16 b0 0b 11
        E 16 80 47 00
        E 80 b0 0b 7f
        E 0 90 46 7f
        E 16 b0 0b 6e
        E 512 b0 0b 5d
        E 16 b0 0b 55
        E 16 b0 0b 44
        E 16 b0 0b 3b
        E 16 b0 0b 33
        E 16 b0 0b 22
        E 16 b0 0b 19
        E 16 b0 0b 11
        E 16 80 46 00
        E 176 b0 0b 7f
        E 0 90 46 7f
        E 16 b0 0b 6e
        E 112 b0 0b 5d
        E 16 b0 0b 55
        E 16 b0 0b 44
        E 16 b0 0b 3b
        E 16 b0 0b 33
        E 16 b0 0b 22
        E 16 b0 0b 19
        E 16 b0 0b 11
        E 16 80 46 00
        E 80 b0 0b 7f
        E 0 90 42 7f
        E 16 b0 0b 6e
        E 48 b0 0b 5d
        E 16 b0 0b 55
        E 16 b0 0b 44
        E 16 b0 0b 3b
        E 16 b0 0b 33
        E 16 b0 0b 22
        E 16 b0 0b 19
        E 16 b0 0b 7f
        E 0 80 42 00
        E 0 90 44 7f
        E 16 b0 0b 6e
        E 208 b0 0b 5d
        E 16 b0 0b 55
        E 16 b0 0b 44
        E 16 b0 0b 3b
        E 16 b0 0b 33
        E 16 b0 0b 22
        E 16 b0 0b 19
        E 16 b0 0b 7f
        E 0 80 44 00
        E 0 90 46 7f
        E 16 b0 0b 6e
        E 48 b0 0b 5d
        E 16 b0 0b 55
        E 16 b0 0b 44
        E 16 b0 0b 3b
        E 16 b0 0b 33
        E 16 b0 0b 22
        E 16 b0 0b 7f
        E 0 80 46 00
        E 0 90 47 7f
        E 16 b0 0b 6e
        E 48 b0 0b 5d
        E 16 b0 0b 55
        E 16 b0 0b 44
        E 16 b0 0b 3b
        E 16 b0 0b 33
        E 16 b0 0b 22
        E 16 b0 0b 19
        E 16 b0 0b 7f
        E 16 b0 0b 6e
        E 48 b0 0b 5d
        E 16 b0 0b 55
        E 16 b0 0b 44
        E 16 b0 0b 3b
        E 16 b0 0b 33
        E 16 b0 0b 22
        E 16 b0 0b 7f
        E 16 b0 0b 6e
        E 48 b0 0b 5d
        E 16 b0 0b 55
        E 16 b0 0b 44
        E 16 b0 0b 3b
        E 16 b0 0b 33
        E 16 b0 0b 22
        E 16 b0 0b 19
        E 16 b0 0b 7f
        E 16 b0 0b 6e
        E 112 b0 0b 5d
        E 16 b0 0b 55
        E 16 b0 0b 44
        E 16 b0 0b 3b
        E 16 b0 0b 33
        E 16 b0 0b 22
        E 16 b0 0b 19
        E 16 b0 0b 11
        E 16 80 47 00
        E 80 b0 0b 7f
        E 0 90 46 7f
        E 16 b0 0b 6e
        E 208 b0 0b 5d
        E 16 b0 0b 55
        E 16 b0 0b 44
        E 16 b0 0b 3b
        E 16 b0 0b 33
        E 16 b0 0b 22
        E 16 b0 0b 19
        E 16 b0 0b 7f
        E 0 80 46 00
        E 0 90 49 7f
        E 16 b0 0b 6e
        E 48 b0 0b 5d
        E 16 b0 0b 55
        E 16 b0 0b 44
        E 16 b0 0b 3b
        E 16 b0 0b 33
        E 16 b0 0b 22
        E 16 b0 0b 7f
        E 0 80 49 00
        E 0 90 47 7f
        E 16 b0 0b 6e
        E 48 b0 0b 5d
        E 16 b0 0b 55
        E 16 b0 0b 44
        E 16 b0 0b 3b
        E 16 b0 0b 33
        E 16 b0 0b 22
        E 16 b0 0b 19
        E 16 b0 0b 7f
        E 0 80 47 00
        E 0 90 46 7f
        E 16 b0 0b 6e
        E 112 b0 0b 5d
        E 16 b0 0b 55
        E 16 b0 0b 44
        E 16 b0 0b 3b
        E 16 b0 0b 33
        E 16 b0 0b 22
        E 16 b0 0b 19
        E 16 b0 0b 11
        E 16 80 46 00
        E 80 b0 0b 7f
        E 0 90 42 7f
        E 16 b0 0b 6e
        E 544 b0 0b 5d
        E 16 b0 0b 55
        E 16 b0 0b 44
        E 16 b0 0b 3b
        E 16 b0 0b 33
        E 16 b0 0b 22
        E 16 b0 0b 19
        E 16 b0 0b 7f
        E 0 80 42 00
        E 0 90 47 7f
        E 16 b0 0b 6e
        E 48 b0 0b 5d
        E 16 b0 0b 55
        E 16 b0 0b 44
        E 16 b0 0b 3b
        E 16 b0 0b 33
        E 16 b0 0b 22
        E 16 b0 0b 7f
        E 16 b0 0b 6e
        E 48 b0 0b 5d
        E 16 b0 0b 55
        E 16 b0 0b 44
        E 16 b0 0b 3b
        E 16 b0 0b 33
        E 16 b0 0b 22
        E 16 b0 0b 19
        E 16 b0 0b 7f
        E 16 b0 0b 6e
        E 48 b0 0b 5d
        E 16 b0 0b 55
        E 16 b0 0b 44
        E 16 b0 0b 3b
        E 16 b0 0b 33
        E 16 b0 0b 22
        E 16 b0 0b 7f
        E 16 b0 0b 6e
        E 48 b0 0b 5d
        E 16 b0 0b 55
        E 16 b0 0b 44
        E 16 b0 0b 3b
        E 16 b0 0b 33
        E 16 b0 0b 22
        E 16 b0 0b 19
        E 16 b0 0b 7f
        E 16 b0 0b 6e
        E 112 b0 0b 5d
        E 16 b0 0b 55
        E 16 b0 0b 44
        E 16 b0 0b 3b
        E 16 b0 0b 33
        E 16 b0 0b 22
        E 16 b0 0b 19
        E 16 b0 0b 11
        E 16 80 47 00
        E 80 b0 0b 7f
        E 0 90 49 7f
        E 16 b0 0b 6e
        E 272 b0 0b 5d
        E 16 b0 0b 55
        E 16 b0 0b 44
        E 16 b0 0b 3b
        E 16 b0 0b 33
        E 16 b0 0b 22
        E 16 b0 0b 19
        E 16 b0 0b 11
        E 16 80 49 00
        E 1264 b0 0b 7f
        E 0 90 3f 7f
        E 16 b0 0b 5d
        E 16 b0 0b 3b
        E 16 b0 0b 55
        E 48 b0 0b 3b
        E 16 b0 0b 33
        E 16 b0 0b 22
        E 16 b0 0b 19
        E 16 b0 0b 08
        E 16 b0 0b 7f
        E 16 b0 0b 5d
        E 16 b0 0b 3b
        E 16 b0 0b 55
        E 48 b0 0b 3b
        E 16 b0 0b 55
        E 48 b0 0b 3b
        E 16 b0 0b 55
        E 16 b0 0b 44
        E 16 b0 0b 33
        E 16 b0 0b 22
        E 16 b0 0b 19
        E 16 b0 0b 08
        E 16 80 3f 00
        E 64 b0 0b 7f
        E 0 90 3f 7f
        E 16 b0 0b 5d
        E 16 b0 0b 3b
        E 16 b0 0b 55
        E 48 b0 0b 3b
        E 16 b0 0b 33
        E 16 b0 0b 22
        E 16 b0 0b 19
        E 16 b0 0b 7f
        E 16 b0 0b 5d
        E 16 b0 0b 3b
        E 16 b0 0b 55
        E 48 b0 0b 3b
        E 16 b0 0b 55
        E 48 b0 0b 3b
        E 16 b0 0b 55
        E 48 b0 0b 3b
        E 16 b0 0b 55
        E 48 b0 0b 3b
        E 16 b0 0b 33
        E 16 b0 0b 22
        E 16 b0 0b 19
        E 16 b0 0b 08
        E 16 80 3f 00
        E 144 b0 0b 7f
        E 0 90 3e 7f
        E 16 b0 0b 5d
        E 16 b0 0b 3b
        E 16 b0 0b 55
        E 48 b0 0b 3b
        E 16 b0 0b 55
        E 48 b0 0b 3b
        E 16 b0 0b 55
        E 16 b0 0b 44
        E 16 b0 0b 33
        E 16 b0 0b 22
        E 16 b0 0b 19
        E 16 b0 0b 08
        E 16 80 3e 00
        E 64 b0 0b 7f
        E 0 90 3e 7f
        E 16 b0 0b 66
        E 16 b0 0b 55
        E 16 b0 0b 3b
        E 16 b0 0b 2a
        E 16 b0 0b 22
        E 16 b0 0b 19
        E 64 b0 0b 7f
        E 16 b0 0b 66
        E 16 b0 0b 55
        E 16 b0 0b 3b
        E 16 b0 0b 2a
        E 16 b0 0b 22
        E 16 b0 0b 19
        E 80 b0 0b 7f
        E 16 b0 0b 66
        E 16 b0 0b 55
        E 16 b0 0b 3b
        E 16 b0 0b 2a
        E 16 b0 0b 22
        E 16 b0 0b 19
        E 64 b0 0b 7f
        E 16 b0 0b 66
        E 16 b0 0b 55
        E 16 b0 0b 3b
        E 16 b0 0b 2a
        E 16 b0 0b 22
        E 16 b0 0b 19
        E 80 b0 0b 7f
        E 16 b0 0b 66
        E 16 b0 0b 55
        E 16 b0 0b 3b
        E 16 b0 0b 2a
        E 16 b0 0b 22
        E 16 b0 0b 19
        E 64 b0 0b 7f
        E 16 b0 0b 66
        E 16 b0 0b 55
        E 16 b0 0b 3b
        E 16 b0 0b 2a
        E 16 b0 0b 22
        E 16 b0 0b 19
        E 80 b0 0b 7f
        E 16 b0 0b 66
        E 16 b0 0b 55
        E 16 b0 0b 3b
        E 16 b0 0b 2a
        E 16 b0 0b 22
        E 16 b0 0b 19
        E 64 b0 0b 7f
        E 16 b0 0b 66
        E 16 b0 0b 55
        E 16 b0 0b 3b
        E 16 b0 0b 2a
        E 16 b0 0b 22
        E 16 b0 0b 19
        E 80 b0 0b 7f
        E 16 b0 0b 66
        E 16 b0 0b 55
        E 16 b0 0b 3b
        E 16 b0 0b 2a
        E 16 b0 0b 22
        E 16 b0 0b 19
        E 64 b0 0b 7f
        E 16 b0 0b 66
        E 16 b0 0b 55
        E 16 b0 0b 3b
        E 16 b0 0b 2a
        E 16 b0 0b 22
        E 16 b0 0b 19
        E 80 b0 0b 7f
        E 16 b0 0b 66
        E 16 b0 0b 55
        E 16 b0 0b 3b
        E 16 b0 0b 2a
        E 16 b0 0b 22
        E 16 b0 0b 19
        E 64 b0 0b 7f
        E 16 b0 0b 66
        E 16 b0 0b 55
        E 16 b0 0b 3b
        E 16 b0 0b 2a
        E 16 b0 0b 22
        E 16 b0 0b 19
        E 80 b0 0b 7f
        E 16 b0 0b 66
        E 16 b0 0b 55
        E 16 b0 0b 3b
        E 16 b0 0b 2a
        E 16 b0 0b 22
        E 16 b0 0b 19
        E 64 b0 0b 7f
        E 16 b0 0b 66
        E 16 b0 0b 55
        E 16 b0 0b 3b
        E 16 b0 0b 2a
        E 16 b0 0b 22
        E 16 b0 0b 19
        E 80 b0 0b 2a
        E 0 80 3e 00
        E 0 90 37 2a
        E 16 b0 0b 55
        E 16 b0 0b 7f
        E 16 b0 0b 66
        E 144 b0 0b 4c
        E 16 b0 0b 3b
        E 16 b0 0b 2a
        E 16 b0 0b 19
        E 16 b0 0b 08
        E 16 80 37 00
        E 224 b0 0b 2a
        E 0 90 3e 2a
        E 16 b0 0b 55
        E 16 b0 0b 7f
        E 16 b0 0b 66
        E 576 80 3e 00
        E 224 b0 0b 2a
        E 0 90 37 2a
        E 16 b0 0b 55
        E 16 b0 0b 7f
        E 16 b0 0b 66
        E 144 b0 0b 4c
        E 16 b0 0b 3b
        E 16 b0 0b 2a
        E 16 b0 0b 19
        E 16 b0 0b 08
        E 16 80 37 00
        E 224 b0 0b 2a
        E 0 90 3e 2a
        E 16 b0 0b 55
        E 16 b0 0b 7f
        E 16 b0 0b 66
        E 576 80 3e 00
        E 560 b0 0b 2a
        E 0 90 37 2a
        E 16 b0 0b 55
        E 16 b0 0b 7f
        E 16 b0 0b 66
        E 144 b0 0b 4c
        E 16 b0 0b 3b
        E 16 b0 0b 2a
        E 16 b0 0b 19
        E 16 b0 0b 08
        E 16 80 37 00
        E 64 b0 0b 2a
        E 0 90 3a 2a
        E 16 b0 0b 55
        E 16 b0 0b 7f
        E 16 b0 0b 66
        E 48 b0 0b 4c
        E 16 b0 0b 3b
        E 16 b0 0b 2a
        E 16 b0 0b 19
        E 16 b0 0b 2a
        E 0 80 3a 00
        E 0 90 3e 2a
        E 16 b0 0b 55
        E 16 b0 0b 7f
        E 16 b0 0b 66
        E 144 b0 0b 4c
        E 16 b0 0b 3b
        E 16 b0 0b 2a
        E 16 b0 0b 19
        E 16 b0 0b 08
        E 16 80 3e 00
        E 64 b0 0b 2a
        E 0 90 3c 2a
        E 16 b0 0b 55
        E 16 b0 0b 7f
        E 16 b0 0b 66
        E 224 b0 0b 4c
        E 16 b0 0b 3b
        E 16 b0 0b 2a
        E 16 b0 0b 19
        E 16 b0 0b 2a
        E 0 80 3c 00
        E 0 90 3a 2a
        E 16 b0 0b 55
        E 16 b0 0b 7f
        E 16 b0 0b 66
        E 144 b0 0b 4c
        E 16 b0 0b 3b
        E 16 b0 0b 2a
        E 16 b0 0b 19
        E 16 b0 0b 08
        E 16 80 3a 00
        E 64 b0 0b 2a
        E 0 90 39 2a
        E 16 b0 0b 55
        E 16 b0 0b 7f
        E 16 b0 0b 66
        E 256 b0 0b 4c
        E 16 b0 0b 3b
        E 16 b0 0b 2a
        E 16 b0 0b 19
        E 16 b0 0b 08
        E 16 80 39 00
        E 128 b0 0b 2a
        E 0 90 36 2a
        E 16 b0 0b 55
        E 16 b0 0b 7f
        E 16 b0 0b 66
        E 144 b0 0b 4c
        E 16 b0 0b 3b
        E 16 b0 0b 2a
        E 16 b0 0b 19
        E 16 b0 0b 08
        E 16 80 36 00
        E 64 b0 0b 2a
        E 0 90 37 2a
        E 16 b0 0b 55
        E 16 b0 0b 7f
        E 16 b0 0b 66
        E 144 b0 0b 4c
        E 16 b0 0b 3b
        E 16 b0 0b 2a
        E 16 b0 0b 19
        E 16 b0 0b 08
        E 16 80 37 00
        E 224 b0 0b 2a
        E 0 90 3e 2a
        E 16 b0 0b 55
        E 16 b0 0b 7f
        E 16 b0 0b 66
        E 592 80 3e 00
        E 208 b0 0b 2a
        E 0 90 37 2a
        E 16 b0 0b 55
        E 16 b0 0b 7f
        E 16 b0 0b 66
        E 144 b0 0b 4c
        E 16 b0 0b 3b
        E 16 b0 0b 2a
        E 16 b0 0b 19
        E 16 b0 0b 08
        E 16 80 37 00
        E 224 b0 0b 2a
        E 0 90 3e 2a
        E 16 b0 0b 55
        E 16 b0 0b 7f
        E 16 b0 0b 66
        E 592 80 3e 00
        E 544 b0 0b 2a
        E 0 90 37 2a
        E 16 b0 0b 55
        E 16 b0 0b 7f
        E 16 b0 0b 66
        E 144 b0 0b 4c
        E 16 b0 0b 3b
        E 16 b0 0b 2a
        E 16 b0 0b 19
        E 16 b0 0b 08
        E 16 80 37 00
        E 64 b0 0b 2a
        E 0 90 3a 2a
        E 16 b0 0b 55
        E 16 b0 0b 7f
        E 16 b0 0b 66
        E 48 b0 0b 4c
        E 16 b0 0b 3b
        E 16 b0 0b 2a
        E 16 b0 0b 19
        E 16 b0 0b 2a
        E 0 80 3a 00
        E 0 90 3e 2a
        E 16 b0 0b 55
        E 16 b0 0b 7f
        E 16 b0 0b 66
        E 144 b0 0b 4c
        E 16 b0 0b 3b
        E 16 b0 0b 2a
        E 16 b0 0b 19
        E 16 b0 0b 08
        E 16 80 3e 00
        E 64 b0 0b 2a
        E 0 90 3e 2a
        E 16 b0 0b 55
        E 16 b0 0b 7f
        E 16 b0 0b 66
        E 224 b0 0b 4c
        E 16 b0 0b 3b
        E 16 b0 0b 2a
        E 16 b0 0b 19
        E 16 b0 0b 2a
        E 0 80 3e 00
        E 0 90 3c 2a
        E 16 b0 0b 55
        E 16 b0 0b 7f
        E 16 b0 0b 66
        E 144 b0 0b 4c
        E 16 b0 0b 3b
        E 16 b0 0b 2a
        E 16 b0 0b 19
        E 16 b0 0b 08
        E 16 80 3c 00
        E 64 b0 0b 2a
        E 0 90 3c 2a
        E 16 b0 0b 55
        E 16 b0 0b 7f
        E 16 b0 0b 66
        E 48 b0 0b 4c
        E 16 b0 0b 3b
        E 16 b0 0b 2a
        E 16 b0 0b 19
        E 16 b0 0b 08
        E 16 80 3c 00
        E 160 b0 0b 2a
        E 0 90 3a 2a
        E 16 b0 0b 55
        E 16 b0 0b 7f
        E 16 b0 0b 66
        E 48 b0 0b 4c
        E 16 b0 0b 3b
        E 16 b0 0b 2a
        E 16 b0 0b 19
        E 16 b0 0b 08
        E 16 b0 0b 2a
        E 0 80 3a 00
        E 0 90 3c 2a
        E 16 b0 0b 55
        E 16 b0 0b 7f
        E 16 b0 0b 66
        E 144 b0 0b 4c
        E 16 b0 0b 3b
        E 16 b0 0b 2a
        E 16 b0 0b 19
        E 16 b0 0b 08
        E 16 80 3c 00
        E 64 b0 0b 2a
        E 0 90 3f 2a
        E 16 b0 0b 55
        E 16 b0 0b 7f
        E 16 b0 0b 66
        E 144 b0 0b 4c
        E 16 b0 0b 3b
        E 16 b0 0b 2a
        E 16 b0 0b 19
        E 16 b0 0b 08
        E 16 80 3f 00
        E 64 b0 0b 2a
        E 0 90 3e 2a
        E 16 b0 0b 55
        E 16 b0 0b 7f
        E 16 b0 0b 66
        E 48 b0 0b 4c
        E 16 b0 0b 3b
        E 16 b0 0b 2a
        E 16 b0 0b 19
        E 16 b0 0b 2a
        E 16 b0 0b 55
        E 16 b0 0b 7f
        E 16 b0 0b 66
        E 144 b0 0b 4c
        E 16 80 3e 00
        E 16 b0 0c 40
        E 0 b0 0b 3b
        E 0 90 4e 3b
        E 16 b0 0b 7f
        E 16 b0 0b 11
        E 32 b0 0b 7f
        E 0 80 4e 00
        E 0 90 4a 7f
        E 16 b0 0b 77
        E 16 b0 0b 66
        E 32 b0 0b 7f
        E 0 80 4a 00
        E 0 90 54 7f
        E 16 b0 0b 77
        E 16 b0 0b 66
        E 32 b0 0b 7f
        E 0 80 54 00
        E 0 90 5a 7f
        E 16 b0 0b 77
        E 16 b0 0b 66
        E 32 b0 0b 7f
        E 0 80 5a 00
        E 0 90 52 7f
        E 16 b0 0b 77
        E 16 b0 0b 66
        E 32 b0 0b 7f
        E 0 80 52 00
        E 0 90 5d 7f
        E 16 b0 0b 77
        E 16 b0 0b 66
        E 32 b0 0b 7f
        E 0 80 5d 00
        E 0 90 60 7f
        E 16 b0 0b 77
        E 16 b0 0b 66
        E 16 80 60 00
        E 16 b0 0c 60
        E 0 b0 0b 2a
        E 0 90 3f 2a
        E 16 b0 0b 55
        E 16 b0 0b 7f
        E 16 b0 0b 66
        E 224 b0 0b 4c
        E 16 b0 0b 3b
        E 16 b0 0b 2a
        E 16 b0 0b 19
        E 16 b0 0b 2a
        E 0 80 3f 00
        E 0 90 3e 2a
        E 16 b0 0b 55
        E 16 b0 0b 7f
        E 16 b0 0b 66
        E 80 80 3e 00
        E 16 b0 0c 20
        E 0 b0 0b 7f
        E 0 90 3c 7f
        E 16 b0 0b 6e
        E 16 b0 0b 66
        E 32 b0 0b 5d
        E 16 b0 0b 55
        E 16 b0 0b 4c
        E 16 b0 0b 44
        E 16 b0 0b 3b
        E 16 b0 0b 33
        E 16 b0 0b 2a
        E 16 b0 0b 7f
        E 0 80 3c 00
        E 0 90 3a 7f
        E 16 b0 0b 6e
        E 16 b0 0b 66
        E 16 b0 0b 5d
        E 16 b0 0b 55
        E 16 b0 0b 7f
        E 0 80 3a 00
        E 0 90 39 7f
        E 16 b0 0b 6e
        E 16 b0 0b 66
        E 16 b0 0b 5d
        E 16 b0 0b 55
        E 16 b0 0b 4c
        E 16 b0 0b 7f
        E 0 80 39 00
        E 0 90 37 7f
        E 16 b0 0b 6e
        E 16 b0 0b 66
        E 32 b0 0b 5d
        E 16 b0 0b 55
        E 16 b0 0b 4c
        E 16 b0 0b 44
        E 16 b0 0b 3b
        E 16 b0 0b 33
        E 16 b0 0b 7f
        E 0 80 37 00
        E 0 90 39 7f
        E 16 b0 0b 6e
        E 16 b0 0b 66
        E 16 b0 0b 5d
        E 16 b0 0b 55
        E 16 b0 0b 7f
        E 0 80 39 00
        E 0 90 3a 7f
        E 16 b0 0b 6e
        E 16 b0 0b 66
        E 16 b0 0b 5d
        E 16 b0 0b 55
        E 16 b0 0b 4c
        E 16 b0 0b 7f
        E 0 80 3a 00
        E 0 90 39 7f
        E 16 b0 0b 6e
        E 16 b0 0b 66
        E 32 b0 0b 5d
        E 16 b0 0b 55
        E 16 b0 0b 4c
        E 16 b0 0b 44
        E 16 b0 0b 3b
        E 16 b0 0b 33
        E 16 b0 0b 7f
        E 0 80 39 00
        E 0 90 35 7f
        E 16 b0 0b 6e
        E 16 b0 0b 66
        E 32 b0 0b 5d
        E 16 b0 0b 55
        E 16 b0 0b 4c
        E 16 b0 0b 44
        E 16 b0 0b 3b
        E 16 b0 0b 33
        E 16 b0 0b 2a
        E 16 b0 0b 7f
        E 0 80 35 00
        E 0 90 39 7f
        E 16 b0 0b 6e
        E 16 b0 0b 66
        E 32 b0 0b 5d
        E 16 b0 0b 55
        E 16 b0 0b 4c
        E 16 b0 0b 44
        E 16 b0 0b 3b
        E 16 b0 0b 33
        E 16 b0 0b 7f
        E 0 80 39 00
        E 0 90 3a 7f
        E 16 b0 0b 6e
        E 16 b0 0b 66
        E 32 b0 0b 5d
        E 16 b0 0b 55
        E 16 b0 0b 4c
        E 16 b0 0b 44
        E 16 b0 0b 3b
        E 16 b0 0b 33
        E 16 b0 0b 2a
        E 16 b0 0b 7f
        E 0 80 3a 00
        E 0 90 3c 7f
        E 16 b0 0b 6e
        E 16 b0 0b 66
        E 32 b0 0b 5d
        E 16 b0 0b 55
        E 16 b0 0b 4c
        E 16 b0 0b 44
        E 16 b0 0b 3b
        E 16 b0 0b 33
        E 16 b0 0b 7f
        E 0 80 3c 00
        E 0 90 3a 7f
        E 16 b0 0b 6e
        E 16 b0 0b 66
        E 16 b0 0b 5d
        E 16 b0 0b 55
        E 16 b0 0b 7f
        E 0 80 3a 00
        E 0 90 39 7f
        E 16 b0 0b 6e
        E 16 b0 0b 66
        E 16 b0 0b 5d
        E 16 b0 0b 55
        E 16 b0 0b 4c
        E 16 b0 0b 7f
        E 0 80 39 00
        E 0 90 37 7f
        E 16 b0 0b 6e
        E 16 b0 0b 66
        E 32 b0 0b 5d
        E 16 b0 0b 55
        E 16 b0 0b 4c
        E 16 b0 0b 44
        E 16 b0 0b 3b
        E 16 b0 0b 33
        E 16 b0 0b 7f
        E 0 80 37 00
        E 0 90 39 7f
        E 16 b0 0b 6e
        E 16 b0 0b 66
        E 16 b0 0b 5d
        E 16 b0 0b 55
        E 16 b0 0b 7f
        E 0 80 39 00
        E 0 90 3a 7f
        E 16 b0 0b 6e
        E 16 b0 0b 66
        E 16 b0 0b 5d
        E 16 b0 0b 55
        E 16 b0 0b 4c
        E 16 b0 0b 7f
        E 0 80 3a 00
        E 0 90 39 7f
        E 16 b0 0b 6e
        E 16 b0 0b 66
        E 32 b0 0b 5d
        E 16 b0 0b 55
        E 16 b0 0b 4c
        E 16 b0 0b 44
        E 16 b0 0b 3b
        E 16 b0 0b 33
        E 16 b0 0b 7f
        E 0 80 39 00
        E 0 90 35 7f
        E 16 b0 0b 6e
        E 16 b0 0b 66
        E 32 b0 0b 5d
        E 16 b0 0b 55
        E 16 b0 0b 4c
        E 16 b0 0b 44
        E 16 b0 0b 3b
        E 16 b0 0b 33
        E 16 b0 0b 2a
        E 16 b0 0c 40
        E 0 b0 0b 7f
        E 0 80 35 00
        E 0 90 45 7f
        E 16 b0 0b 6e
        E 16 b0 0b 66
        E 32 b0 0b 5d
        E 16 b0 0b 55
        E 16 b0 0b 4c
        E 16 b0 0b 44
        E 16 b0 0b 3b
        E 16 b0 0b 33
        E 16 b0 0b 7f
        E 16 b0 0b 6e
        E 16 b0 0b 66
        E 32 b0 0b 5d
        E 16 b0 0b 55
        E 16 b0 0b 4c
        E 16 b0 0b 44
        E 16 b0 0b 3b
        E 16 b0 0b 33
        E 16 b0 0b 2a
        E 16 b0 0c 20
        E 0 b0 0b 7f
        E 0 80 45 00
        E 0 90 3f 7f
        E 16 b0 0b 6e
        E 16 b0 0b 66
        E 32 b0 0b 5d
        E 16 b0 0b 55
        E 16 b0 0b 4c
        E 16 b0 0b 44
        E 16 b0 0b 3b
        E 16 b0 0b 33
        E 16 b0 0b 7f
        E 0 80 3f 00
        E 0 90 3d 7f
        E 16 b0 0b 6e
        E 16 b0 0b 66
        E 16 b0 0b 5d
        E 16 b0 0b 55
        E 16 b0 0b 7f
        E 0 80 3d 00
        E 0 90 3c 7f
        E 16 b0 0b 6e
        E 16 b0 0b 66
        E 16 b0 0b 5d
        E 16 b0 0b 55
        E 16 b0 0b 4c
        E 16 b0 0b 7f
        E 0 80 3c 00
        E 0 90 3a 7f
        E 16 b0 0b 6e
        E 16 b0 0b 66
        E 32 b0 0b 5d
        E 16 b0 0b 55
        E 16 b0 0b 4c
        E 16 b0 0b 44
        E 16 b0 0b 3b
        E 16 b0 0b 33
        E 16 b0 0b 7f
        E 0 80 3a 00
        E 0 90 3c 7f
        E 16 b0 0b 6e
        E 16 b0 0b 66
        E 16 b0 0b 5d
        E 16 b0 0b 55
        E 16 b0 0b 7f
        E 0 80 3c 00
        E 0 90 3d 7f
        E 16 b0 0b 6e
        E 16 b0 0b 66
        E 16 b0 0b 5d
        E 16 b0 0b 55
        E 16 b0 0b 4c
        E 16 b0 0b 7f
        E 0 80 3d 00
        E 0 90 3c 7f
        E 16 b0 0b 6e
        E 16 b0 0b 66
        E 32 b0 0b 5d
        E 16 b0 0b 55
        E 16 b0 0b 4c
        E 16 b0 0b 44
        E 16 b0 0b 3b
        E 16 b0 0b 33
        E 16 b0 0b 7f
        E 0 80 3c 00
        E 0 90 38 7f
        E 16 b0 0b 6e
        E 16 b0 0b 66
        E 32 b0 0b 5d
        E 16 b0 0b 55
        E 16 b0 0b 4c
        E 16 b0 0b 44
        E 16 b0 0b 3b
        E 16 b0 0b 33
        E 16 b0 0b 2a
        E 16 b0 0b 7f
        E 0 80 38 00
        E 0 90 3c 7f
        E 16 b0 0b 6e
        E 16 b0 0b 66
        E 32 b0 0b 5d
        E 16 b0 0b 55
        E 16 b0 0b 4c
        E 16 b0 0b 44
        E 16 b0 0b 3b
        E 16 b0 0b 33
        E 16 b0 0b 7f
        E 0 80 3c 00
        E 0 90 3d 7f
        E 16 b0 0b 6e
        E 16 b0 0b 66
        E 32 b0 0b 5d
        E 16 b0 0b 55
        E 16 b0 0b 4c
        E 16 b0 0b 44
        E 16 b0 0b 3b
        E 16 b0 0b 33
        E 16 b0 0b 2a
        E 16 b0 0b 7f
        E 0 80 3d 00
        E 0 90 3f 7f
        E 16 b0 0b 6e
        E 16 b0 0b 66
        E 32 b0 0b 5d
        E 16 b0 0b 55
        E 16 b0 0b 4c
        E 16 b0 0b 44
        E 16 b0 0b 3b
        E 16 b0 0b 33
        E 16 b0 0b 7f
        E 0 80 3f 00
        E 0 90 3d 7f
        E 16 b0 0b 6e
        E 16 b0 0b 66
        E 16 b0 0b 5d
        E 16 b0 0b 55
        E 16 b0 0b 7f
        E 0 80 3d 00
        E 0 90 3c 7f
        E 16 b0 0b 6e
        E 16 b0 0b 66
        E 16 b0 0b 5d
        E 16 b0 0b 55
        E 16 b0 0b 4c
        E 16 b0 0b 7f
        E 0 80 3c 00
        E 0 90 3a 7f
        E 16 b0 0b 6e
        E 16 b0 0b 66
        E 32 b0 0b 5d
        E 16 b0 0b 55
        E 16 b0 0b 4c
        E 16 b0 0b 44
        E 16 b0 0b 3b
        E 16 b0 0b 33
        E 16 b0 0b 7f
        E 0 80 3a 00
        E 0 90 3c 7f
        E 16 b0 0b 6e
        E 16 b0 0b 66
        E 16 b0 0b 5d
        E 16 b0 0b 55
        E 16 b0 0b 7f
        E 0 80 3c 00
        E 0 90 3e 7f
        E 16 b0 0b 6e
        E 16 b0 0b 66
        E 16 b0 0b 5d
        E 16 b0 0b 55
        E 16 b0 0b 4c
        E 16 b0 0b 7f
        E 0 80 3e 00
        E 0 90 3c 7f
        E 16 b0 0b 6e
        E 16 b0 0b 66
        E 32 b0 0b 5d
        E 16 b0 0b 55
        E 16 b0 0b 4c
        E 16 b0 0b 44
        E 16 b0 0b 3b
        E 16 b0 0b 33
        E 16 b0 0b 7f
        E 0 80 3c 00
        E 0 90 40 7f
        E 16 b0 0b 6e
        E 16 b0 0b 66
        E 32 b0 0b 5d
        E 16 b0 0b 55
        E 16 b0 0b 4c
        E 16 b0 0b 44
        E 16 b0 0b 3b
        E 16 b0 0b 33
        E 16 b0 0b 2a
        E 16 b0 0b 7f
        E 0 80 40 00
        E 0 90 41 7f
        E 16 b0 0b 6e
        E 16 b0 0b 66
        E 32 b0 0b 5d
        E 16 b0 0b 55
        E 16 b0 0b 4c
        E 16 b0 0b 44
        E 16 b0 0b 3b
        E 16 b0 0b 33
        E 16 b0 0b 7f
        E 0 80 41 00
        E 0 90 43 7f
        E 16 b0 0b 6e
        E 16 b0 0b 66
        E 32 b0 0b 5d
        E 16 b0 0b 55
        E 16 b0 0b 4c
        E 16 b0 0b 44
        E 16 b0 0b 3b
        E 16 b0 0b 33
        E 16 b0 0b 2a
        E 16 b0 0b 7f
        E 0 80 43 00
        E 0 90 3c 7f
        E 16 b0 0b 6e
        E 16 b0 0b 66
        E 32 b0 0b 5d
        E 16 b0 0b 55
        E 16 b0 0b 4c
        E 16 b0 0b 44
        E 16 b0 0b 3b
        E 16 b0 0b 33
        E 16 b0 0b 7f
        E 0 80 3c 00
        E 0 90 3a 7f
        E 16 b0 0b 6e
        E 16 b0 0b 66
        E 16 b0 0b 5d
        E 16 b0 0b 55
        E 16 b0 0b 7f
        E 0 80 3a 00
        E 0 90 39 7f
        E 16 b0 0b 6e
        E 16 b0 0b 66
        E 16 b0 0b 5d
        E 16 b0 0b 55
        E 16 b0 0b 4c
        E 16 b0 0b 7f
        E 0 80 39 00
        E 0 90 37 7f
        E 16 b0 0b 6e
        E 16 b0 0b 66
        E 32 b0 0b 5d
        E 16 b0 0b 55
        E 16 b0 0b 4c
        E 16 b0 0b 44
        E 16 b0 0b 3b
        E 16 b0 0b 33
        E 16 b0 0b 7f
        E 0 80 37 00
        E 0 90 39 7f
        E 16 b0 0b 6e
        E 16 b0 0b 66
        E 16 b0 0b 5d
        E 16 b0 0b 55
        E 16 b0 0b 7f
        E 0 80 39 00
        E 0 90 3a 7f
        E 16 b0 0b 6e
        E 16 b0 0b 66
        E 16 b0 0b 5d
        E 16 b0 0b 55
        E 16 b0 0b 4c
        E 16 b0 0b 7f
        E 0 80 3a 00
        E 0 90 39 7f
        E 16 b0 0b 6e
        E 16 b0 0b 66
        E 32 b0 0b 5d
        E 16 b0 0b 55
        E 16 b0 0b 4c
        E 16 b0 0b 44
        E 16 b0 0b 3b
        E 16 b0 0b 33
        E 16 b0 0b 7f
        E 0 80 39 00
        E 0 90 35 7f
        E 16 b0 0b 6e
        E 16 b0 0b 66
        E 32 b0 0b 5d
        E 16 b0 0b 55
        E 16 b0 0b 4c
        E 16 b0 0b 44
        E 16 b0 0b 3b
        E 16 b0 0b 33
        E 16 b0 0b 2a
        E 16 b0 0b 7f
        E 0 80 35 00
        E 0 90 39 7f
        E 16 b0 0b 6e
        E 16 b0 0b 66
        E 32 b0 0b 5d
        E 16 b0 0b 55
        E 16 b0 0b 4c
        E 16 b0 0b 44
        E 16 b0 0b 3b
        E 16 b0 0b 33
        E 16 b0 0b 7f
        E 0 80 39 00
        E 0 90 3a 7f
        E 16 b0 0b 6e
        E 16 b0 0b 66
        E 32 b0 0b 5d
        E 16 b0 0b 55
        E 16 b0 0b 4c
        E 16 b0 0b 44
        E 16 b0 0b 3b
        E 16 b0 0b 33
        E 16 b0 0b 2a
        E 16 b0 0b 7f
        E 0 80 3a 00
        E 0 90 3c 7f
        E 16 b0 0b 6e
        E 16 b0 0b 66
        E 32 b0 0b 5d
        E 16 b0 0b 55
        E 16 b0 0b 4c
        E 16 b0 0b 44
        E 16 b0 0b 3b
        E 16 b0 0b 33
        E 16 b0 0b 7f
        E 0 80 3c 00
        E 0 90 3a 7f
        E 16 b0 0b 6e
        E 16 b0 0b 66
        E 16 b0 0b 5d
        E 16 b0 0b 55
        E 16 b0 0b 7f
        E 0 80 3a 00
        E 0 90 39 7f
        E 16 b0 0b 6e
        E 16 b0 0b 66
        E 16 b0 0b 5d
        E 16 b0 0b 55
        E 16 b0 0b 4c
        E 16 b0 0b 7f
        E 0 80 39 00
        E 0 90 37 7f
        E 16 b0 0b 6e
        E 16 b0 0b 66
        E 32 b0 0b 5d
        E 16 b0 0b 55
        E 16 b0 0b 4c
        E 16 b0 0b 44
        E 16 b0 0b 3b
        E 16 b0 0b 33
        E 16 b0 0b 7f
        E 0 80 37 00
        E 0 90 39 7f
        E 16 b0 0b 6e
        E 16 b0 0b 66
        E 16 b0 0b 5d
        E 16 b0 0b 55
        E 16 b0 0b 7f
        E 0 80 39 00
        E 0 90 3a 7f
        E 16 b0 0b 6e
        E 16 b0 0b 66
        E 16 b0 0b 5d
        E 16 b0 0b 55
        E 16 b0 0b 4c
        E 16 b0 0b 7f
        E 0 80 3a 00
        E 0 90 39 7f
        E 16 b0 0b 6e
        E 16 b0 0b 66
        E 32 b0 0b 5d
        E 16 b0 0b 55
        E 16 b0 0b 4c
        E 16 b0 0b 44
        E 16 b0 0b 3b
        E 16 b0 0b 33
        E 16 b0 0b 7f
        E 0 80 39 00
        E 0 90 35 7f
        E 16 b0 0b 6e
        E 16 b0 0b 66
        E 32 b0 0b 5d
        E 16 b0 0b 55
        E 16 b0 0b 4c
        E 16 b0 0b 44
        E 16 b0 0b 3b
        E 16 b0 0b 33
        E 16 b0 0b 2a
        E 16 b0 0c 40
        E 0 b0 0b 7f
        E 0 80 35 00
        E 0 90 45 7f
        E 16 b0 0b 6e
        E 16 b0 0b 66
        E 32 b0 0b 5d
        E 16 b0 0b 55
        E 16 b0 0b 4c
        E 16 b0 0b 44
        E 16 b0 0b 3b
        E 16 b0 0b 33
        E 16 b0 0b 7f
        E 16 b0 0b 6e
        E 16 b0 0b 66
        E 32 b0 0b 5d
        E 16 b0 0b 55
        E 16 80 45 00
        E 192 b0 0c 60
        E 0 b0 0b 7f
        E 0 90 3f 7f
        E 16 b0 0b 5d
        E 16 b0 0b 3b
        E 16 b0 0b 55
        E 48 b0 0b 3b
        E 16 b0 0b 33
        E 16 b0 0b 22
        E 16 b0 0b 19
        E 16 b0 0b 08
        E 16 b0 0b 7f
        E 16 b0 0b 5d
        E 16 b0 0b 3b
        E 16 b0 0b 55
        E 48 b0 0b 3b
        E 16 b0 0b 55
        E 48 b0 0b 3b
        E 16 b0 0b 55
        E 16 b0 0b 44
        E 16 b0 0b 33
        E 16 b0 0b 22
        E 16 b0 0b 19
        E 16 b0 0b 08
        E 16 80 3f 00
        E 64 b0 0b 7f
        E 0 90 3f 7f
        E 16 b0 0b 5d
        E 16 b0 0b 3b
        E 16 b0 0b 55
        E 48 b0 0b 3b
        E 16 b0 0b 33
        E 16 b0 0b 22
        E 16 b0 0b 19
        E 16 b0 0b 7f
        E 16 b0 0b 5d
        E 16 b0 0b 3b
        E 16 b0 0b 55
        E 48 b0 0b 3b
        E 16 b0 0b 55
        E 48 b0 0b 3b
        E 16 b0 0b 55
        E 48 b0 0b 3b
        E 16 b0 0b 55
        E 48 b0 0b 3b
        E 16 b0 0b 33
        E 16 b0 0b 22
        E 16 b0 0b 19
        E 16 b0 0b 08
        E 16 80 3f 00
        E 144 b0 0b 7f
        E 0 90 3e 7f
        E 16 b0 0b 5d
        E 16 b0 0b 3b
        E 16 b0 0b 55
        E 48 b0 0b 3b
        E 16 b0 0b 55
        E 48 b0 0b 3b
        E 16 b0 0b 55
        E 16 b0 0b 44
        E 16 b0 0b 33
        E 16 b0 0b 22
        E 16 b0 0b 19
        E 16 b0 0b 08
        E 16 80 3e 00
        E 64 b0 0b 7f
        E 0 90 3e 7f
        E 16 b0 0b 66
        E 16 b0 0b 55
        E 16 b0 0b 3b
        E 16 b0 0b 2a
        E 16 b0 0b 22
        E 16 b0 0b 19
        E 64 b0 0b 7f
        E 16 b0 0b 66
        E 16 b0 0b 55
        E 16 b0 0b 3b
        E 16 b0 0b 2a
        E 16 b0 0b 22
        E 16 b0 0b 19
        E 80 b0 0b 7f
        E 16 b0 0b 66
        E 16 b0 0b 55
        E 16 b0 0b 3b
        E 16 b0 0b 2a
        E 16 b0 0b 22
        E 16 b0 0b 19
        E 64 b0 0b 7f
        E 16 b0 0b 66
        E 16 b0 0b 55
        E 16 b0 0b 3b
        E 16 b0 0b 2a
        E 16 b0 0b 22
        E 16 b0 0b 19
        E 80 b0 0b 7f
        E 16 b0 0b 66
        E 16 b0 0b 55
        E 16 b0 0b 3b
        E 16 b0 0b 2a
        E 16 b0 0b 22
        E 16 b0 0b 19
        E 64 b0 0b 7f
        E 16 b0 0b 66
        E 16 b0 0b 55
        E 16 b0 0b 3b
        E 16 b0 0b 2a
        E 16 b0 0b 22
        E 16 b0 0b 19
        E 80 b0 0b 7f
        E 16 b0 0b 66
        E 16 b0 0b 55
        E 16 b0 0b 3b
        E 16 b0 0b 2a
        E 16 b0 0b 22
        E 16 b0 0b 19
        E 64 b0 0b 7f
        E 16 b0 0b 66
        E 16 b0 0b 55
        E 16 b0 0b 3b
        E 16 b0 0b 2a
        E 16 b0 0b 22
        E 16 b0 0b 19
        E 80 b0 0b 7f
        E 16 b0 0b 66
        E 16 b0 0b 55
        E 16 b0 0b 3b
        E 16 b0 0b 2a
        E 16 b0 0b 22
        E 16 b0 0b 19
        E 64 b0 0b 7f
        E 16 b0 0b 66
        E 16 b0 0b 55
        E 16 b0 0b 3b
        E 16 b0 0b 2a
        E 16 b0 0b 22
        E 16 b0 0b 19
        E 80 b0 0b 7f
        E 16 b0 0b 66
        E 16 b0 0b 55
        E 16 b0 0b 3b
        E 16 b0 0b 2a
        E 16 b0 0b 22
        E 16 b0 0b 19
        E 64 b0 0b 7f
        E 16 b0 0b 66
        E 16 b0 0b 55
        E 16 b0 0b 3b
        E 16 b0 0b 2a
        E 16 b0 0b 22
        E 16 b0 0b 19
        E 80 b0 0b 7f
        E 16 b0 0b 66
        E 16 b0 0b 55
        E 16 b0 0b 3b
        E 16 b0 0b 2a
        E 16 b0 0b 22
        E 16 b0 0b 19
        E 64 b0 0b 7f
        E 16 b0 0b 66
        E 16 b0 0b 55
        E 16 b0 0b 3b
        E 16 b0 0b 2a
        E 16 b0 0b 22
        E 16 b0 0b 19
        E 80 b0 0b 2a
        E 0 80 3e 00
        E 0 90 37 2a
        E 16 b0 0b 55
        E 16 b0 0b 7f
        E 16 b0 0b 66
        E 144 b0 0b 4c
        E 16 b0 0b 3b
        E 16 b0 0b 2a
        E 16 b0 0b 19
        E 16 b0 0b 08
        E 16 80 37 00
        E 224 b0 0b 2a
        E 0 90 3e 2a
        E 16 b0 0b 55
        E 16 b0 0b 7f
        E 16 b0 0b 66
        E 336 80 3e 00
        E 0 b0 7b 00
        E 0 ff 2f 00
      >
    >
  >
  <TRACK {EC1FEB56-C4A0-4C43-B9D4-72144F07882F}
    NAME "NES - Pulse 2 [ch1]"
    PEAKCOL 10092441
    BEAT -1
    AUTOMODE 0
    PANLAWFLAGS 3
    VOLPAN 1 0 -1 -1 1
    MUTESOLO 0 0 0
    IPHASE 0
    PLAYOFFS 0 1
    ISBUS 0 0
    BUSCOMP 0 0 0 0 0
    SHOWINMIX 1 0.6667 0.5 1 0.5 0 0 0
    FIXEDLANES 9 0 0 0 0
    SEL 0
    REC 0 5088 1 0 0 0 0 0
    VU 2
    TRACKHEIGHT 0 0 0 0 0 0 0
    INQ 0 0 0 0.5 100 0 0 100
    NCHAN 2
    FX 1
    TRACKID {EC1FEB56-C4A0-4C43-B9D4-72144F07882F}
    PERF 0
    MIDIOUT -1
    MAINSEND 1 0
    <FXCHAIN
      WNDRECT 24 52 700 560
      SHOW 0
      LASTSEL 0
      DOCKED 0
      BYPASS 0 0 0
      <JS "ReapNES Studio/ReapNES_Console.jsfx" ""
        2 15 1 10 80 10 100 2 1 15 1 5 60 10 80 1 1 0 50 0 0 15 1 0 100 0 0 0.500000 0.500000 0.400000 0.300000 0.800000 1 1 0 0 0 0 - - - - - - - - - - - - - - - - - - - - - - - - - -
      >
      FLOATPOS 0 0 0 0
      FXID {3DB8D7EA-1820-418B-9DC2-55EDF4211087}
      WAK 0 0
    >
    <ITEM
      POSITION 0
      LENGTH 74.2923817
      LOOP 0
      ALLTAKES 0
      FADEIN 0 0 0 0 0 0 0
      FADEOUT 0 0 0 0 0 0 0
      MUTE 0 0
      SEL 0
      IGUID {80404506-E0E5-4E33-ABA0-1056E1D405E7}
      <SOURCE MIDI
        HASDATA 1 480 QN
        CCINTERP 32
        E 0 c1 51
        E 0 b1 0c 10
        E 0 b1 0b 7f
        E 0 91 2e 7f
        E 16 b1 0b 66
        E 16 b1 0b 55
        E 16 b1 0b 3b
        E 16 b1 0b 2a
        E 16 b1 0b 22
        E 32 b1 0b 19
        E 48 b1 0b 7f
        E 16 b1 0b 66
        E 16 b1 0b 55
        E 16 b1 0b 3b
        E 16 b1 0b 2a
        E 16 b1 0b 22
        E 32 b1 0b 19
        E 64 b1 0b 7f
        E 16 b1 0b 66
        E 16 b1 0b 55
        E 16 b1 0b 3b
        E 16 b1 0b 2a
        E 16 b1 0b 22
        E 32 b1 0b 19
        E 48 b1 0b 7f
        E 16 b1 0b 66
        E 16 b1 0b 55
        E 16 b1 0b 3b
        E 16 b1 0b 2a
        E 16 b1 0b 22
        E 32 b1 0b 19
        E 64 b1 0b 7f
        E 16 b1 0b 66
        E 16 b1 0b 55
        E 16 b1 0b 3b
        E 16 b1 0b 2a
        E 16 b1 0b 22
        E 32 b1 0b 19
        E 48 b1 0b 7f
        E 16 b1 0b 66
        E 16 b1 0b 55
        E 16 b1 0b 3b
        E 16 b1 0b 2a
        E 16 b1 0b 22
        E 32 b1 0b 19
        E 64 b1 0b 7f
        E 16 b1 0b 66
        E 16 b1 0b 55
        E 16 b1 0b 3b
        E 16 b1 0b 2a
        E 16 b1 0b 22
        E 32 b1 0b 19
        E 48 b1 0b 7f
        E 16 b1 0b 66
        E 16 b1 0b 55
        E 16 b1 0b 3b
        E 16 b1 0b 2a
        E 16 b1 0b 22
        E 32 b1 0b 19
        E 64 b1 0b 7f
        E 16 b1 0b 66
        E 16 b1 0b 55
        E 16 b1 0b 3b
        E 16 b1 0b 2a
        E 16 b1 0b 22
        E 32 b1 0b 19
        E 48 b1 0b 7f
        E 16 b1 0b 66
        E 16 b1 0b 55
        E 16 b1 0b 3b
        E 16 b1 0b 2a
        E 16 b1 0b 22
        E 32 b1 0b 19
        E 64 b1 0b 7f
        E 16 b1 0b 66
        E 16 b1 0b 55
        E 16 b1 0b 3b
        E 16 b1 0b 2a
        E 16 b1 0b 22
        E 32 b1 0b 19
        E 48 b1 0b 7f
        E 16 b1 0b 66
        E 16 b1 0b 55
        E 16 b1 0b 3b
        E 16 b1 0b 2a
        E 16 b1 0b 22
        E 32 b1 0b 19
        E 64 b1 0b 7f
        E 16 b1 0b 66
        E 16 b1 0b 55
        E 16 b1 0b 3b
        E 16 b1 0b 2a
        E 16 b1 0b 22
        E 32 b1 0b 19
        E 48 b1 0b 7f
        E 16 b1 0b 66
        E 16 b1 0b 55
        E 16 b1 0b 3b
        E 16 b1 0b 2a
        E 16 b1 0b 22
        E 32 b1 0b 19
        E 64 b1 0b 7f
        E 16 b1 0b 66
        E 16 b1 0b 55
        E 16 b1 0b 3b
        E 16 b1 0b 2a
        E 16 b1 0b 22
        E 32 b1 0b 19
        E 48 b1 0b 7f
        E 16 b1 0b 66
        E 16 b1 0b 55
        E 16 b1 0b 3b
        E 16 b1 0b 2a
        E 16 b1 0b 22
        E 32 b1 0b 19
        E 64 b1 0b 7f
        E 0 81 2e 00
        E 0 91 32 7f
        E 16 b1 0b 66
        E 16 b1 0b 55
        E 16 b1 0b 3b
        E 16 b1 0b 2a
        E 16 b1 0b 22
        E 32 b1 0b 19
        E 48 b1 0b 7f
        E 16 b1 0b 66
        E 16 b1 0b 55
        E 16 b1 0b 3b
        E 16 b1 0b 2a
        E 16 b1 0b 22
        E 32 b1 0b 19
        E 64 b1 0b 7f
        E 16 b1 0b 66
        E 16 b1 0b 55
        E 16 b1 0b 3b
        E 16 b1 0b 2a
        E 16 b1 0b 22
        E 32 b1 0b 19
        E 48 b1 0b 7f
        E 16 b1 0b 66
        E 16 b1 0b 55
        E 16 b1 0b 3b
        E 16 b1 0b 2a
        E 16 b1 0b 22
        E 32 b1 0b 19
        E 64 b1 0b 7f
        E 16 b1 0b 66
        E 16 b1 0b 55
        E 16 b1 0b 3b
        E 16 b1 0b 2a
        E 16 b1 0b 22
        E 32 b1 0b 19
        E 48 b1 0b 7f
        E 16 b1 0b 66
        E 16 b1 0b 55
        E 16 b1 0b 3b
        E 16 b1 0b 2a
        E 16 b1 0b 22
        E 32 b1 0b 19
        E 64 b1 0b 7f
        E 16 b1 0b 66
        E 16 b1 0b 55
        E 16 b1 0b 3b
        E 16 b1 0b 2a
        E 16 b1 0b 22
        E 32 b1 0b 19
        E 48 b1 0b 7f
        E 16 b1 0b 66
        E 16 b1 0b 55
        E 16 b1 0b 3b
        E 16 b1 0b 2a
        E 16 b1 0b 22
        E 32 b1 0b 19
        E 64 b1 0b 7f
        E 16 b1 0b 66
        E 16 b1 0b 55
        E 16 b1 0b 3b
        E 16 b1 0b 2a
        E 16 b1 0b 22
        E 32 b1 0b 19
        E 48 b1 0b 7f
        E 16 b1 0b 66
        E 16 b1 0b 55
        E 16 b1 0b 3b
        E 16 b1 0b 2a
        E 16 b1 0b 22
        E 32 b1 0b 19
        E 64 b1 0b 7f
        E 16 b1 0b 66
        E 16 b1 0b 55
        E 16 b1 0b 3b
        E 16 b1 0b 2a
        E 16 b1 0b 22
        E 32 b1 0b 19
        E 48 b1 0b 7f
        E 16 b1 0b 66
        E 16 b1 0b 55
        E 16 b1 0b 3b
        E 16 b1 0b 2a
        E 16 b1 0b 22
        E 32 b1 0b 19
        E 64 b1 0b 7f
        E 16 b1 0b 66
        E 16 b1 0b 55
        E 16 b1 0b 3b
        E 16 b1 0b 2a
        E 16 b1 0b 22
        E 32 b1 0b 19
        E 48 b1 0b 7f
        E 16 b1 0b 66
        E 16 b1 0b 55
        E 16 b1 0b 3b
        E 16 b1 0b 2a
        E 16 b1 0b 22
        E 32 b1 0b 19
        E 64 b1 0b 7f
        E 16 b1 0b 66
        E 16 b1 0b 55
        E 16 b1 0b 3b
        E 16 b1 0b 2a
        E 16 b1 0b 22
        E 32 b1 0b 19
        E 48 b1 0b 7f
        E 16 b1 0b 66
        E 16 b1 0b 55
        E 16 b1 0b 3b
        E 16 b1 0b 2a
        E 16 b1 0b 22
        E 32 b1 0b 19
        E 64 b1 0b 7f
        E 0 81 32 00
        E 0 91 33 7f
        E 16 b1 0b 66
        E 16 b1 0b 55
        E 16 b1 0b 3b
        E 16 b1 0b 2a
        E 16 b1 0b 22
        E 32 b1 0b 19
        E 48 b1 0b 7f
        E 16 b1 0b 66
        E 16 b1 0b 55
        E 16 b1 0b 3b
        E 16 b1 0b 2a
        E 16 b1 0b 22
        E 32 b1 0b 19
        E 64 b1 0b 7f
        E 16 b1 0b 66
        E 16 b1 0b 55
        E 16 b1 0b 3b
        E 16 b1 0b 2a
        E 16 b1 0b 22
        E 32 b1 0b 19
        E 48 b1 0b 7f
        E 16 b1 0b 66
        E 16 b1 0b 55
        E 16 b1 0b 3b
        E 16 b1 0b 2a
        E 16 b1 0b 22
        E 32 b1 0b 19
        E 64 b1 0b 7f
        E 16 b1 0b 66
        E 16 b1 0b 55
        E 16 b1 0b 3b
        E 16 b1 0b 2a
        E 16 b1 0b 22
        E 32 b1 0b 19
        E 48 b1 0b 7f
        E 16 b1 0b 66
        E 16 b1 0b 55
        E 16 b1 0b 3b
        E 16 b1 0b 2a
        E 16 b1 0b 22
        E 32 b1 0b 19
        E 64 b1 0b 7f
        E 16 b1 0b 66
        E 16 b1 0b 55
        E 16 b1 0b 3b
        E 16 b1 0b 2a
        E 16 b1 0b 22
        E 32 b1 0b 19
        E 48 b1 0b 7f
        E 16 b1 0b 66
        E 16 b1 0b 55
        E 16 b1 0b 3b
        E 16 b1 0b 2a
        E 16 b1 0b 22
        E 32 b1 0b 19
        E 64 b1 0b 7f
        E 0 81 33 00
        E 0 91 30 7f
        E 16 b1 0b 66
        E 16 b1 0b 55
        E 16 b1 0b 3b
        E 16 b1 0b 2a
        E 16 b1 0b 22
        E 32 b1 0b 19
        E 48 b1 0b 7f
        E 16 b1 0b 66
        E 16 b1 0b 55
        E 16 b1 0b 3b
        E 16 b1 0b 2a
        E 16 b1 0b 22
        E 32 b1 0b 19
        E 64 b1 0b 7f
        E 16 b1 0b 66
        E 16 b1 0b 55
        E 16 b1 0b 3b
        E 16 b1 0b 2a
        E 16 b1 0b 22
        E 32 b1 0b 19
        E 48 b1 0b 7f
        E 16 b1 0b 66
        E 16 b1 0b 55
        E 16 b1 0b 3b
        E 16 b1 0b 2a
        E 16 b1 0b 22
        E 32 b1 0b 19
        E 64 b1 0b 7f
        E 16 b1 0b 66
        E 16 b1 0b 55
        E 16 b1 0b 3b
        E 16 b1 0b 2a
        E 16 b1 0b 22
        E 32 b1 0b 19
        E 48 b1 0b 7f
        E 16 b1 0b 66
        E 16 b1 0b 55
        E 16 b1 0b 3b
        E 16 b1 0b 2a
        E 16 b1 0b 22
        E 32 b1 0b 19
        E 64 b1 0b 7f
        E 16 b1 0b 66
        E 16 b1 0b 55
        E 16 b1 0b 3b
        E 16 b1 0b 2a
        E 16 b1 0b 22
        E 32 b1 0b 19
        E 48 b1 0b 7f
        E 16 b1 0b 66
        E 16 b1 0b 55
        E 16 b1 0b 3b
        E 16 b1 0b 2a
        E 16 b1 0b 22
        E 32 b1 0b 19
        E 64 b1 0b 7f
        E 0 81 30 00
        E 0 91 32 7f
        E 16 b1 0b 66
        E 16 b1 0b 55
        E 16 b1 0b 3b
        E 16 b1 0b 2a
        E 16 b1 0b 22
        E 32 b1 0b 19
        E 48 b1 0b 7f
        E 16 b1 0b 66
        E 16 b1 0b 55
        E 16 b1 0b 3b
        E 16 b1 0b 2a
        E 16 b1 0b 22
        E 32 b1 0b 19
        E 64 b1 0b 7f
        E 16 b1 0b 66
        E 16 b1 0b 55
        E 16 b1 0b 3b
        E 16 b1 0b 2a
        E 16 b1 0b 22
        E 32 b1 0b 19
        E 48 b1 0b 7f
        E 16 b1 0b 66
        E 16 b1 0b 55
        E 16 b1 0b 3b
        E 16 b1 0b 2a
        E 16 b1 0b 22
        E 32 b1 0b 19
        E 64 b1 0b 7f
        E 16 b1 0b 66
        E 16 b1 0b 55
        E 16 b1 0b 3b
        E 16 b1 0b 2a
        E 16 b1 0b 22
        E 32 b1 0b 19
        E 48 b1 0b 7f
        E 16 b1 0b 66
        E 16 b1 0b 55
        E 16 b1 0b 3b
        E 16 b1 0b 2a
        E 16 b1 0b 22
        E 32 b1 0b 19
        E 64 b1 0b 7f
        E 16 b1 0b 66
        E 16 b1 0b 55
        E 16 b1 0b 3b
        E 16 b1 0b 2a
        E 16 b1 0b 22
        E 32 b1 0b 19
        E 48 b1 0b 7f
        E 16 b1 0b 66
        E 16 b1 0b 55
        E 16 b1 0b 3b
        E 16 b1 0b 2a
        E 16 b1 0b 22
        E 32 b1 0b 19
        E 64 b1 0b 7f
        E 16 b1 0b 66
        E 16 b1 0b 55
        E 16 b1 0b 3b
        E 16 b1 0b 2a
        E 16 b1 0b 22
        E 32 b1 0b 19
        E 48 b1 0b 7f
        E 16 b1 0b 66
        E 16 b1 0b 55
        E 16 b1 0b 3b
        E 16 b1 0b 2a
        E 16 b1 0b 22
        E 32 b1 0b 19
        E 64 b1 0b 7f
        E 16 b1 0b 66
        E 16 b1 0b 55
        E 16 b1 0b 3b
        E 16 b1 0b 2a
        E 16 b1 0b 22
        E 32 b1 0b 19
        E 48 b1 0b 7f
        E 16 b1 0b 66
        E 16 b1 0b 55
        E 16 b1 0b 3b
        E 16 b1 0b 2a
        E 16 b1 0b 22
        E 32 b1 0b 19
        E 64 b1 0b 7f
        E 16 b1 0b 66
        E 16 b1 0b 55
        E 16 b1 0b 3b
        E 16 b1 0b 2a
        E 16 b1 0b 22
        E 32 b1 0b 19
        E 48 b1 0b 7f
        E 16 b1 0b 66
        E 16 b1 0b 55
        E 16 b1 0b 3b
        E 16 b1 0b 2a
        E 16 b1 0b 22
        E 32 b1 0b 19
        E 64 b1 0b 7f
        E 16 b1 0b 66
        E 16 b1 0b 55
        E 16 b1 0b 3b
        E 16 b1 0b 2a
        E 16 b1 0b 22
        E 32 b1 0b 19
        E 48 b1 0b 7f
        E 16 b1 0b 66
        E 16 b1 0b 55
        E 16 b1 0b 3b
        E 16 b1 0b 2a
        E 16 b1 0b 22
        E 32 b1 0b 19
        E 64 b1 0b 7f
        E 0 81 32 00
        E 0 91 33 7f
        E 16 b1 0b 66
        E 16 b1 0b 55
        E 16 b1 0b 3b
        E 16 b1 0b 2a
        E 16 b1 0b 22
        E 32 b1 0b 19
        E 48 b1 0b 7f
        E 16 b1 0b 66
        E 16 b1 0b 55
        E 16 b1 0b 3b
        E 16 b1 0b 2a
        E 16 b1 0b 22
        E 32 b1 0b 19
        E 64 b1 0b 7f
        E 16 b1 0b 66
        E 16 b1 0b 55
        E 16 b1 0b 3b
        E 16 b1 0b 2a
        E 16 b1 0b 22
        E 32 b1 0b 19
        E 48 b1 0b 7f
        E 16 b1 0b 66
        E 16 b1 0b 55
        E 16 b1 0b 3b
        E 16 b1 0b 2a
        E 16 b1 0b 22
        E 32 b1 0b 19
        E 64 b1 0b 7f
        E 16 b1 0b 66
        E 16 b1 0b 55
        E 16 b1 0b 3b
        E 16 b1 0b 2a
        E 16 b1 0b 22
        E 32 b1 0b 19
        E 48 b1 0b 7f
        E 16 b1 0b 66
        E 16 b1 0b 55
        E 16 b1 0b 3b
        E 16 b1 0b 2a
        E 16 b1 0b 22
        E 32 b1 0b 19
        E 64 b1 0b 7f
        E 16 b1 0b 66
        E 16 b1 0b 55
        E 16 b1 0b 3b
        E 16 b1 0b 2a
        E 16 b1 0b 22
        E 32 b1 0b 19
        E 48 b1 0b 7f
        E 16 b1 0b 66
        E 16 b1 0b 55
        E 16 b1 0b 3b
        E 16 b1 0b 2a
        E 16 b1 0b 22
        E 32 b1 0b 19
        E 64 b1 0b 7f
        E 0 81 33 00
        E 0 91 2d 7f
        E 16 b1 0b 66
        E 16 b1 0b 55
        E 16 b1 0b 3b
        E 16 b1 0b 2a
        E 16 b1 0b 22
        E 32 b1 0b 19
        E 48 b1 0b 7f
        E 16 b1 0b 66
        E 16 b1 0b 55
        E 16 b1 0b 3b
        E 16 b1 0b 2a
        E 16 b1 0b 22
        E 32 b1 0b 19
        E 64 b1 0b 7f
        E 16 b1 0b 66
        E 16 b1 0b 55
        E 16 b1 0b 3b
        E 16 b1 0b 2a
        E 16 b1 0b 22
        E 32 b1 0b 19
        E 48 b1 0b 7f
        E 16 b1 0b 66
        E 16 b1 0b 55
        E 16 b1 0b 3b
        E 16 b1 0b 2a
        E 16 b1 0b 22
        E 32 b1 0b 19
        E 64 b1 0b 7f
        E 16 b1 0b 66
        E 16 b1 0b 55
        E 16 b1 0b 3b
        E 16 b1 0b 2a
        E 16 b1 0b 22
        E 32 b1 0b 19
        E 48 b1 0b 7f
        E 16 b1 0b 66
        E 16 b1 0b 55
        E 16 b1 0b 3b
        E 16 b1 0b 2a
        E 16 b1 0b 22
        E 32 b1 0b 19
        E 64 b1 0b 7f
        E 16 b1 0b 66
        E 16 b1 0b 55
        E 16 b1 0b 3b
        E 16 b1 0b 2a
        E 16 b1 0b 22
        E 32 b1 0b 19
        E 48 b1 0b 7f
        E 16 b1 0b 66
        E 16 b1 0b 55
        E 16 b1 0b 3b
        E 16 b1 0b 2a
        E 16 b1 0b 22
        E 32 b1 0b 19
        E 64 b1 0c 60
        E 0 b1 0b 7f
        E 0 81 2d 00
        E 0 91 2b 7f
        E 16 b1 0b 5d
        E 16 b1 0b 3b
        E 16 b1 0b 55
        E 48 b1 0b 3b
        E 16 b1 0b 55
        E 48 b1 0b 3b
        E 16 b1 0b 44
        E 16 b1 0b 33
        E 16 b1 0b 22
        E 16 b1 0b 19
        E 16 b1 0b 08
        E 16 81 2b 00
        E 80 b1 0b 7f
        E 0 91 29 7f
        E 16 b1 0b 5d
        E 16 b1 0b 3b
        E 16 b1 0b 55
        E 32 b1 0b 44
        E 16 b1 0b 33
        E 16 b1 0b 22
        E 16 b1 0b 19
        E 16 b1 0b 08
        E 16 b1 0b 7f
        E 16 b1 0b 5d
        E 16 b1 0b 3b
        E 16 b1 0b 55
        E 48 b1 0b 3b
        E 16 b1 0b 55
        E 48 b1 0b 3b
        E 16 b1 0b 55
        E 16 b1 0b 44
        E 16 b1 0b 33
        E 16 b1 0b 22
        E 16 b1 0b 19
        E 16 b1 0b 08
        E 16 81 29 00
        E 64 b1 0b 7f
        E 0 91 29 7f
        E 16 b1 0b 5d
        E 16 b1 0b 3b
        E 16 b1 0b 55
        E 48 b1 0b 3b
        E 16 81 29 00
        E 16 b1 0c 40
        E 0 b1 0b 7f
        E 0 91 47 7f
        E 16 b1 0b 77
        E 48 b1 0b 7f
        E 16 b1 0b 77
        E 32 b1 0b 7f
        E 0 81 47 00
        E 0 91 44 7f
        E 16 b1 0b 77
        E 48 81 44 00
        E 32 b1 0c 60
        E 0 b1 0b 7f
        E 0 91 2b 7f
        E 16 b1 0b 5d
        E 16 b1 0b 3b
        E 16 b1 0b 55
        E 48 b1 0b 3b
        E 16 b1 0b 55
        E 48 b1 0b 3b
        E 16 b1 0b 55
        E 48 b1 0b 3b
        E 16 b1 0b 55
        E 16 b1 0b 44
        E 16 b1 0b 33
        E 16 b1 0b 22
        E 16 b1 0b 19
        E 16 b1 0b 08
        E 16 b1 0b 7f
        E 0 81 2b 00
        E 0 91 29 7f
        E 16 b1 0b 5d
        E 16 b1 0b 3b
        E 16 b1 0b 55
        E 48 b1 0b 3b
        E 16 b1 0b 55
        E 48 b1 0b 3b
        E 16 b1 0b 55
        E 16 b1 0b 44
        E 16 b1 0b 33
        E 16 b1 0b 22
        E 16 b1 0b 19
        E 16 b1 0b 08
        E 16 81 29 00
        E 64 b1 0b 7f
        E 0 91 29 7f
        E 16 b1 0b 5d
        E 16 b1 0b 3b
        E 16 b1 0b 55
        E 48 b1 0b 3b
        E 16 b1 0b 55
        E 48 b1 0b 3b
        E 16 b1 0b 55
        E 48 b1 0b 3b
        E 16 b1 0b 55
        E 32 b1 0b 44
        E 16 b1 0b 33
        E 16 b1 0b 22
        E 16 b1 0b 19
        E 16 b1 0b 08
        E 16 81 29 00
        E 320 b1 0b 7f
        E 0 91 29 7f
        E 16 b1 0b 5d
        E 16 b1 0b 3b
        E 16 b1 0b 55
        E 48 b1 0b 3b
        E 16 b1 0b 33
        E 16 b1 0b 22
        E 16 b1 0b 19
        E 16 b1 0b 08
        E 16 b1 0b 7f
        E 0 81 29 00
        E 0 91 2d 7f
        E 16 b1 0b 5d
        E 16 b1 0b 3b
        E 16 b1 0b 55
        E 32 b1 0b 44
        E 16 b1 0b 33
        E 16 b1 0b 22
        E 16 b1 0b 19
        E 16 b1 0b 08
        E 16 b1 0b 7f
        E 16 b1 0b 5d
        E 16 b1 0b 3b
        E 16 b1 0b 55
        E 48 b1 0b 3b
        E 16 b1 0b 55
        E 48 b1 0b 3b
        E 16 b1 0b 55
        E 16 b1 0b 44
        E 16 b1 0b 33
        E 16 b1 0b 22
        E 16 b1 0b 19
        E 16 b1 0b 08
        E 16 81 2d 00
        E 64 b1 0b 7f
        E 0 91 2d 7f
        E 16 b1 0b 5d
        E 16 b1 0b 3b
        E 16 b1 0b 55
        E 48 b1 0b 3b
        E 16 b1 0b 55
        E 48 b1 0b 3b
        E 16 b1 0b 55
        E 16 b1 0b 44
        E 16 b1 0b 33
        E 16 b1 0b 22
        E 16 b1 0b 19
        E 16 b1 0b 08
        E 16 81 2d 00
        E 64 b1 0b 7f
        E 0 91 2d 7f
        E 16 b1 0b 5d
        E 16 b1 0b 3b
        E 16 b1 0b 55
        E 48 b1 0b 3b
        E 16 81 2d 00
        E 16 b1 0c 40
        E 0 b1 0b 7f
        E 0 91 47 7f
        E 16 b1 0b 77
        E 32 b1 0b 7f
        E 0 81 47 00
        E 0 91 44 7f
        E 16 b1 0b 77
        E 48 b1 0c 60
        E 0 b1 0b 19
        E 0 81 44 00
        E 0 91 2d 19
        E 16 b1 0b 08
        E 16 81 2d 00
        E 64 b1 0b 7f
        E 0 91 29 7f
        E 16 b1 0b 5d
        E 16 b1 0b 3b
        E 16 b1 0b 55
        E 48 b1 0b 3b
        E 16 b1 0b 33
        E 16 b1 0b 22
        E 16 b1 0b 19
        E 16 b1 0b 08
        E 16 81 29 00
        E 160 b1 0b 7f
        E 0 91 2d 7f
        E 16 b1 0b 5d
        E 16 b1 0b 3b
        E 16 b1 0b 55
        E 48 b1 0b 3b
        E 16 b1 0b 33
        E 16 b1 0b 22
        E 16 b1 0b 19
        E 16 81 2d 00
        E 16 b1 0c 40
        E 0 b1 0b 7f
        E 0 91 47 7f
        E 16 b1 0b 77
        E 32 b1 0b 7f
        E 0 81 47 00
        E 0 91 44 7f
        E 16 b1 0b 77
        E 48 b1 0c 60
        E 0 b1 0b 22
        E 0 81 44 00
        E 0 91 2d 22
        E 16 b1 0b 19
        E 16 b1 0b 08
        E 16 b1 0b 7f
        E 16 b1 0b 5d
        E 16 b1 0b 3b
        E 16 81 2d 00
        E 16 b1 0c 40
        E 0 b1 0b 7f
        E 0 91 47 7f
        E 16 b1 0b 77
        E 32 b1 0b 7f
        E 0 81 47 00
        E 0 91 44 7f
        E 16 b1 0b 77
        E 48 b1 0c 60
        E 0 b1 0b 7f
        E 0 81 44 00
        E 0 91 2d 7f
        E 16 b1 0b 5d
        E 16 b1 0b 3b
        E 16 b1 0b 55
        E 32 b1 0b 44
        E 16 b1 0b 33
        E 16 b1 0b 22
        E 16 b1 0b 19
        E 16 b1 0b 08
        E 16 b1 0b 7f
        E 16 b1 0b 5d
        E 16 b1 0b 3b
        E 16 b1 0b 55
        E 48 b1 0b 3b
        E 16 b1 0b 55
        E 48 b1 0b 3b
        E 16 b1 0b 55
        E 16 b1 0b 44
        E 16 b1 0b 33
        E 16 b1 0b 22
        E 16 b1 0b 19
        E 16 b1 0b 08
        E 16 81 2d 00
        E 32 b1 0c 40
        E 0 b1 0b 7f
        E 0 91 47 7f
        E 16 b1 0b 77
        E 32 b1 0b 7f
        E 0 81 47 00
        E 0 91 44 7f
        E 16 b1 0b 77
        E 48 b1 0c 60
        E 0 b1 0b 55
        E 0 81 44 00
        E 0 91 30 55
        E 16 b1 0b 3b
        E 16 b1 0b 55
        E 48 b1 0b 3b
        E 16 b1 0b 55
        E 48 b1 0b 3b
        E 16 b1 0b 55
        E 48 b1 0b 3b
        E 16 b1 0b 55
        E 16 81 30 00
        E 16 b1 0c 40
        E 0 b1 0b 7f
        E 0 91 47 7f
        E 32 b1 0c 20
        E 0 81 47 00
        E 0 91 56 7f
        E 16 b1 0b 33
        E 16 81 56 00
        E 64 b1 0b 44
        E 0 91 56 44
        E 16 b1 0b 4c
        E 16 b1 0b 2a
        E 16 81 56 00
        E 48 b1 0b 08
        E 0 91 56 08
        E 16 b1 0b 19
        E 16 b1 0b 11
        E 32 b1 0b 7f
        E 16 b1 0b 33
        E 16 81 56 00
        E 64 b1 0b 44
        E 0 91 56 44
        E 32 b1 0c 60
        E 0 b1 0b 7f
        E 0 81 56 00
        E 0 91 39 7f
        E 32 b1 0c 10
        E 0 81 39 00
        E 0 91 44 7f
        E 16 b1 0b 77
        E 16 b1 0b 66
        E 16 b1 0b 77
        E 16 b1 0b 7f
        E 16 b1 0b 77
        E 32 b1 0c 20
        E 0 b1 0b 7f
        E 0 81 44 00
        E 0 91 53 7f
        E 16 b1 0b 77
        E 16 b1 0b 66
        E 16 b1 0b 6e
        E 48 b1 0b 66
        E 48 b1 0b 5d
        E 32 b1 0b 55
        E 48 b1 0b 4c
        E 32 b1 0c 40
        E 0 b1 0b 7f
        E 0 81 53 00
        E 0 91 52 7f
        E 16 b1 0b 6e
        E 16 b1 0b 5d
        E 16 b1 0b 4c
        E 32 b1 0b 7f
        E 0 81 52 00
        E 0 91 54 7f
        E 16 b1 0b 77
        E 32 b1 0b 6e
        E 48 b1 0b 66
        E 48 b1 0b 5d
        E 32 b1 0b 55
        E 48 b1 0b 4c
        E 48 b1 0b 44
        E 32 b1 0b 3b
        E 48 b1 0c 60
        E 0 b1 0b 55
        E 0 81 54 00
        E 0 91 29 55
        E 64 81 29 00
        E 16 b1 0c 40
        E 0 b1 0b 19
        E 0 91 3d 19
        E 16 b1 0b 3b
        E 16 b1 0b 5d
        E 16 b1 0b 7f
        E 32 b1 0c 20
        E 0 b1 0b 19
        E 0 81 3d 00
        E 0 91 47 19
        E 16 b1 0b 3b
        E 16 b1 0b 5d
        E 16 b1 0b 7f
        E 16 b1 0b 66
        E 32 b1 0c 40
        E 0 b1 0b 19
        E 0 81 47 00
        E 0 91 4b 19
        E 16 b1 0b 3b
        E 16 b1 0b 5d
        E 16 b1 0b 7f
        E 16 b1 0b 66
        E 16 b1 0b 55
        E 16 b1 0b 3b
        E 16 b1 0b 2a
        E 16 b1 0b 11
        E 16 81 4b 00
        E 64 b1 0c 60
        E 0 b1 0b 55
        E 0 91 29 55
        E 240 b1 0b 33
        E 16 b1 0b 11
        E 16 81 29 00
        E 32 b1 0b 7f
        E 0 91 30 7f
        E 16 b1 0b 5d
        E 16 b1 0b 3b
        E 16 b1 0b 55
        E 48 b1 0b 3b
        E 16 b1 0b 55
        E 48 b1 0b 3b
        E 16 b1 0b 55
        E 16 b1 0b 44
        E 16 b1 0b 33
        E 16 b1 0b 22
        E 16 b1 0b 19
        E 16 81 30 00
        E 16 b1 0c 40
        E 0 b1 0b 7f
        E 0 91 47 7f
        E 16 b1 0b 77
        E 32 b1 0b 7f
        E 0 81 47 00
        E 0 91 44 7f
        E 16 b1 0b 77
        E 48 b1 0c 60
        E 0 b1 0b 55
        E 0 81 44 00
        E 0 91 30 55
        E 48 b1 0b 3b
        E 16 b1 0b 55
        E 48 b1 0b 3b
        E 16 b1 0b 55
        E 48 b1 0b 3b
        E 16 b1 0b 55
        E 48 b1 0b 3b
        E 16 b1 0b 55
        E 288 81 30 00
        E 16 b1 0c 40
        E 0 b1 0b 7f
        E 0 91 47 7f
        E 16 b1 0b 77
        E 32 b1 0b 7f
        E 0 81 47 00
        E 0 91 44 7f
        E 16 b1 0b 77
        E 48 81 44 00
        E 32 b1 0c 20
        E 0 b1 0b 7f
        E 0 91 56 7f
        E 16 b1 0b 33
        E 16 81 56 00
        E 64 b1 0b 44
        E 0 91 56 44
        E 16 b1 0b 4c
        E 16 b1 0b 2a
        E 16 81 56 00
        E 48 b1 0b 08
        E 0 91 56 08
        E 16 b1 0b 19
        E 16 b1 0b 11
        E 48 b1 0c 60
        E 0 b1 0b 7f
        E 0 81 56 00
        E 0 91 39 7f
        E 32 b1 0c 10
        E 0 81 39 00
        E 0 91 44 7f
        E 16 b1 0b 77
        E 16 b1 0b 66
        E 16 b1 0b 77
        E 16 b1 0b 7f
        E 16 b1 0b 77
        E 32 b1 0c 20
        E 0 b1 0b 7f
        E 0 81 44 00
        E 0 91 53 7f
        E 16 b1 0b 77
        E 16 b1 0b 66
        E 16 b1 0b 6e
        E 48 b1 0b 66
        E 48 b1 0b 5d
        E 32 b1 0b 55
        E 48 b1 0b 4c
        E 48 b1 0b 44
        E 32 b1 0b 3b
        E 48 b1 0b 33
        E 64 b1 0c 40
        E 0 b1 0b 7f
        E 0 81 53 00
        E 0 91 52 7f
        E 16 b1 0b 6e
        E 16 b1 0b 5d
        E 16 b1 0b 4c
        E 32 b1 0b 7f
        E 0 81 52 00
        E 0 91 54 7f
        E 16 b1 0b 77
        E 32 b1 0b 6e
        E 48 b1 0b 66
        E 48 b1 0b 5d
        E 32 b1 0b 55
        E 48 b1 0b 4c
        E 48 b1 0b 44
        E 32 b1 0b 3b
        E 48 81 54 00
        E 176 b1 0c 60
        E 0 b1 0b 7f
        E 0 91 30 7f
        E 16 b1 0b 5d
        E 16 b1 0b 3b
        E 16 b1 0b 55
        E 48 b1 0b 3b
        E 16 b1 0b 33
        E 16 b1 0b 22
        E 16 b1 0b 19
        E 16 b1 0b 7f
        E 16 b1 0b 5d
        E 16 b1 0b 3b
        E 16 b1 0b 55
        E 48 b1 0b 3b
        E 16 b1 0b 55
        E 48 b1 0b 3b
        E 16 b1 0b 55
        E 48 b1 0b 3b
        E 16 b1 0b 55
        E 32 b1 0b 44
        E 16 b1 0b 33
        E 16 b1 0b 22
        E 16 b1 0b 19
        E 16 b1 0b 08
        E 16 81 30 00
        E 80 b1 0c 40
        E 0 b1 0b 7f
        E 0 91 47 7f
        E 16 b1 0b 77
        E 48 b1 0b 7f
        E 16 b1 0b 77
        E 32 b1 0b 7f
        E 0 81 47 00
        E 0 91 44 7f
        E 16 b1 0b 77
        E 48 81 44 00
        E 64 b1 0c 10
        E 0 b1 0b 7f
        E 0 91 2c 7f
        E 16 b1 0b 66
        E 16 b1 0b 55
        E 16 b1 0b 3b
        E 16 b1 0b 2a
        E 16 b1 0b 22
        E 16 b1 0b 19
        E 48 81 2c 00
        E 16 b1 0c 40
        E 0 91 3d 19
        E 16 b1 0b 3b
        E 16 b1 0b 5d
        E 16 b1 0b 7f
        E 32 b1 0c 20
        E 0 b1 0b 19
        E 0 81 3d 00
        E 0 91 47 19
        E 16 b1 0b 3b
        E 16 b1 0b 5d
        E 16 b1 0b 7f
        E 16 b1 0b 66
        E 32 b1 0c 40
        E 0 b1 0b 19
        E 0 81 47 00
        E 0 91 4b 19
        E 16 b1 0b 3b
        E 16 b1 0b 5d
        E 16 b1 0b 7f
        E 16 b1 0b 66
        E 16 b1 0b 55
        E 16 b1 0b 3b
        E 16 b1 0b 2a
        E 16 b1 0b 11
        E 16 81 4b 00
        E 64 b1 0c 10
        E 0 b1 0b 19
        E 0 91 33 19
        E 16 b1 0b 11
        E 112 b1 0b 7f
        E 0 81 33 00
        E 0 91 2c 7f
        E 16 b1 0b 66
        E 16 b1 0b 55
        E 16 b1 0b 3b
        E 16 81 2c 00
        E 16 b1 0c 40
        E 0 b1 0b 7f
        E 0 91 47 7f
        E 16 b1 0b 77
        E 32 b1 0b 7f
        E 0 81 47 00
        E 0 91 44 7f
        E 16 b1 0b 77
        E 48 b1 0c 10
        E 0 b1 0b 66
        E 0 81 44 00
        E 0 91 30 66
        E 16 b1 0b 55
        E 16 b1 0b 3b
        E 16 b1 0b 2a
        E 16 b1 0b 22
        E 16 b1 0b 19
        E 64 b1 0b 7f
        E 0 81 30 00
        E 0 91 33 7f
        E 16 b1 0b 66
        E 16 b1 0b 55
        E 16 b1 0b 3b
        E 16 b1 0b 2a
        E 16 b1 0b 22
        E 16 b1 0b 19
        E 80 81 33 00
        E 16 b1 0c 40
        E 0 b1 0b 7f
        E 0 91 47 7f
        E 16 b1 0b 77
        E 32 b1 0b 7f
        E 0 81 47 00
        E 0 91 44 7f
        E 16 b1 0b 77
        E 48 b1 0c 10
        E 0 b1 0b 11
        E 0 81 44 00
        E 0 91 33 11
        E 32 b1 0b 7f
        E 0 81 33 00
        E 0 91 2c 7f
        E 16 b1 0b 66
        E 16 b1 0b 55
        E 16 b1 0b 3b
        E 16 b1 0b 2a
        E 16 b1 0b 22
        E 16 b1 0b 19
        E 80 b1 0b 7f
        E 0 81 2c 00
        E 0 91 30 7f
        E 16 b1 0b 66
        E 16 b1 0b 55
        E 16 b1 0b 3b
        E 16 b1 0b 2a
        E 16 b1 0b 22
        E 16 b1 0b 19
        E 64 b1 0b 7f
        E 0 81 30 00
        E 0 91 33 7f
        E 16 b1 0b 66
        E 16 b1 0b 55
        E 16 b1 0b 3b
        E 16 b1 0b 2a
        E 16 b1 0b 22
        E 16 b1 0b 19
        E 80 81 33 00
        E 16 b1 0c 40
        E 0 b1 0b 7f
        E 0 91 47 7f
        E 16 b1 0b 77
        E 32 b1 0b 7f
        E 0 81 47 00
        E 0 91 44 7f
        E 16 b1 0b 77
        E 48 b1 0c 10
        E 0 b1 0b 11
        E 0 81 44 00
        E 0 91 33 11
        E 32 b1 0b 7f
        E 0 81 33 00
        E 0 91 2c 7f
        E 16 b1 0b 66
        E 16 b1 0b 55
        E 16 b1 0b 3b
        E 16 b1 0b 2a
        E 16 b1 0b 22
        E 16 b1 0b 19
        E 80 b1 0b 7f
        E 0 81 2c 00
        E 0 91 30 7f
        E 16 b1 0b 66
        E 16 b1 0b 55
        E 16 b1 0b 3b
        E 16 b1 0b 2a
        E 16 b1 0b 22
        E 16 b1 0b 19
        E 64 b1 0b 7f
        E 0 81 30 00
        E 0 91 33 7f
        E 16 b1 0b 66
        E 16 b1 0b 55
        E 16 b1 0b 3b
        E 16 b1 0b 2a
        E 16 b1 0b 22
        E 16 b1 0b 19
        E 48 81 33 00
        E 16 b1 0c 40
        E 0 b1 0b 7f
        E 0 91 47 7f
        E 16 b1 0b 77
        E 32 b1 0b 7f
        E 0 81 47 00
        E 0 91 44 7f
        E 32 b1 0c 20
        E 0 81 44 00
        E 0 91 56 7f
        E 32 b1 0c 60
        E 0 81 56 00
        E 0 91 39 7f
        E 16 b1 0b 77
        E 0 81 39 00
        E 0 91 37 77
        E 64 b1 0c 40
        E 0 b1 0b 7f
        E 0 81 37 00
        E 0 91 52 7f
        E 16 b1 0b 6e
        E 16 b1 0b 5d
        E 16 b1 0b 4c
        E 32 b1 0b 7f
        E 0 81 52 00
        E 0 91 54 7f
        E 16 b1 0b 77
        E 32 b1 0b 6e
        E 48 b1 0b 66
        E 48 b1 0b 5d
        E 48 b1 0b 7f
        E 0 81 54 00
        E 0 91 52 7f
        E 16 b1 0b 6e
        E 16 b1 0b 5d
        E 16 b1 0b 4c
        E 32 b1 0b 7f
        E 0 81 52 00
        E 0 91 54 7f
        E 16 b1 0b 77
        E 32 b1 0b 6e
        E 48 b1 0b 66
        E 48 b1 0b 5d
        E 32 b1 0b 55
        E 48 b1 0b 4c
        E 48 b1 0b 44
        E 32 b1 0b 3b
        E 48 b1 0c 10
        E 0 b1 0b 55
        E 0 81 54 00
        E 0 91 33 55
        E 48 81 33 00
        E 16 b1 0b 7f
        E 0 91 44 7f
        E 16 b1 0b 77
        E 16 b1 0b 66
        E 16 b1 0b 77
        E 16 b1 0b 7f
        E 16 b1 0b 77
        E 32 b1 0c 20
        E 0 b1 0b 7f
        E 0 81 44 00
        E 0 91 53 7f
        E 16 b1 0b 77
        E 16 b1 0b 66
        E 16 b1 0b 6e
        E 48 b1 0b 66
        E 48 b1 0b 5d
        E 32 b1 0b 55
        E 48 b1 0c 40
        E 0 b1 0b 7f
        E 0 81 53 00
        E 0 91 52 7f
        E 16 b1 0b 6e
        E 16 b1 0b 5d
        E 16 b1 0b 4c
        E 32 b1 0b 7f
        E 0 81 52 00
        E 0 91 54 7f
        E 16 b1 0b 77
        E 32 b1 0b 6e
        E 48 b1 0b 66
        E 48 b1 0b 5d
        E 32 b1 0b 55
        E 32 b1 0b 7f
        E 0 81 54 00
        E 0 91 52 7f
        E 16 b1 0b 6e
        E 16 b1 0b 5d
        E 16 b1 0b 4c
        E 32 b1 0b 7f
        E 0 81 52 00
        E 0 91 54 7f
        E 16 b1 0b 77
        E 32 b1 0b 6e
        E 48 b1 0b 66
        E 48 b1 0b 5d
        E 32 b1 0b 55
        E 48 b1 0b 4c
        E 48 b1 0b 44
        E 32 b1 0b 3b
        E 48 b1 0c 60
        E 0 b1 0b 08
        E 0 81 54 00
        E 0 91 30 08
        E 16 b1 0b 7f
        E 16 b1 0b 5d
        E 16 b1 0b 3b
        E 16 b1 0b 55
        E 16 81 30 00
        E 16 b1 0c 40
        E 0 b1 0b 19
        E 0 91 3d 19
        E 16 b1 0b 3b
        E 16 b1 0b 5d
        E 16 b1 0b 7f
        E 32 b1 0c 20
        E 0 b1 0b 19
        E 0 81 3d 00
        E 0 91 47 19
        E 16 b1 0b 3b
        E 16 b1 0b 5d
        E 16 b1 0b 7f
        E 16 b1 0b 66
        E 32 b1 0c 40
        E 0 b1 0b 19
        E 0 81 47 00
        E 0 91 4b 19
        E 16 b1 0b 3b
        E 16 b1 0b 5d
        E 16 b1 0b 7f
        E 16 b1 0b 66
        E 16 b1 0b 55
        E 16 b1 0b 3b
        E 16 b1 0b 2a
        E 16 b1 0b 11
        E 16 81 4b 00
        E 96 b1 0c 60
        E 0 b1 0b 7f
        E 0 91 33 7f
        E 16 b1 0b 5d
        E 16 b1 0b 3b
        E 16 b1 0b 55
        E 48 b1 0b 3b
        E 16 b1 0b 55
        E 48 b1 0b 3b
        E 16 b1 0b 55
        E 48 b1 0b 3b
        E 16 b1 0b 55
        E 48 b1 0b 3b
        E 16 b1 0b 55
        E 80 81 33 00
        E 16 b1 0c 40
        E 0 b1 0b 7f
        E 0 91 47 7f
        E 16 b1 0b 77
        E 48 b1 0b 7f
        E 16 b1 0b 77
        E 32 b1 0b 7f
        E 0 81 47 00
        E 0 91 44 7f
        E 16 b1 0b 77
        E 48 b1 0c 60
        E 0 b1 0b 55
        E 0 81 44 00
        E 0 91 33 55
        E 48 b1 0b 33
        E 16 b1 0b 11
        E 16 81 33 00
        E 192 b1 0c 40
        E 0 b1 0b 7f
        E 0 91 47 7f
        E 16 b1 0b 77
        E 32 b1 0b 7f
        E 0 81 47 00
        E 0 91 44 7f
        E 16 b1 0b 77
        E 48 b1 0c 60
        E 0 b1 0b 55
        E 0 81 44 00
        E 0 91 2e 55
        E 48 81 2e 00
        E 16 b1 0c 40
        E 0 b1 0b 19
        E 0 91 3d 19
        E 16 b1 0b 3b
        E 16 b1 0b 5d
        E 16 b1 0b 7f
        E 32 b1 0c 20
        E 0 b1 0b 19
        E 0 81 3d 00
        E 0 91 47 19
        E 16 b1 0b 3b
        E 16 b1 0b 5d
        E 16 b1 0b 7f
        E 16 b1 0b 66
        E 32 b1 0c 40
        E 0 b1 0b 19
        E 0 81 47 00
        E 0 91 4b 19
        E 16 b1 0b 3b
        E 16 b1 0b 5d
        E 16 b1 0b 7f
        E 16 b1 0b 66
        E 16 b1 0b 55
        E 16 b1 0b 3b
        E 16 b1 0b 2a
        E 16 b1 0b 11
        E 16 81 4b 00
        E 64 b1 0c 60
        E 0 b1 0b 55
        E 0 91 2c 55
        E 16 81 2c 00
        E 16 b1 0b 7f
        E 0 91 39 7f
        E 16 b1 0b 77
        E 0 81 39 00
        E 0 91 37 77
        E 48 b1 0c 40
        E 0 b1 0b 7f
        E 0 81 37 00
        E 0 91 46 7f
        E 32 b1 0c 10
        E 0 81 46 00
        E 0 91 44 7f
        E 16 b1 0b 77
        E 16 b1 0b 66
        E 16 b1 0b 77
        E 16 b1 0b 7f
        E 16 b1 0b 77
        E 32 b1 0c 20
        E 0 b1 0b 7f
        E 0 81 44 00
        E 0 91 53 7f
        E 16 b1 0b 77
        E 16 b1 0b 66
        E 16 b1 0b 6e
        E 48 b1 0b 66
        E 48 b1 0b 5d
        E 32 b1 0b 55
        E 48 b1 0b 4c
        E 48 b1 0b 44
        E 32 b1 0b 3b
        E 48 b1 0b 33
        E 48 b1 0b 2a
        E 16 81 53 00
        E 0 91 36 2a
        E 16 b1 0b 22
        E 16 81 36 00
        E 0 91 3a 22
        E 32 b1 0b 19
        E 32 81 3a 00
        E 0 91 38 19
        E 16 b1 0b 11
        E 16 b1 0c 60
        E 0 b1 0b 55
        E 0 81 38 00
        E 0 91 2c 55
        E 32 b1 0b 3b
        E 16 b1 0b 44
        E 16 b1 0b 33
        E 16 b1 0b 7f
        E 0 81 2c 00
        E 0 91 2b 7f
        E 16 81 2b 00
        E 16 b1 0c 40
        E 0 91 52 7f
        E 16 b1 0b 6e
        E 16 b1 0b 5d
        E 16 b1 0b 4c
        E 32 b1 0b 7f
        E 0 81 52 00
        E 0 91 54 7f
        E 16 b1 0b 77
        E 32 b1 0b 6e
        E 48 b1 0b 66
        E 48 b1 0b 5d
        E 32 b1 0b 55
        E 48 b1 0b 4c
        E 48 b1 0b 44
        E 32 b1 0b 3b
        E 48 b1 0c 60
        E 0 81 54 00
        E 0 91 33 3b
        E 16 b1 0b 44
        E 16 b1 0b 33
        E 16 b1 0b 7f
        E 0 81 33 00
        E 0 91 35 7f
        E 16 b1 0b 5d
        E 16 b1 0b 3b
        E 16 b1 0b 44
        E 16 b1 0b 33
        E 16 b1 0b 7f
        E 0 81 35 00
        E 0 91 37 7f
        E 16 b1 0b 5d
        E 16 b1 0b 3b
        E 16 b1 0b 55
        E 48 b1 0b 3b
        E 16 b1 0b 55
        E 48 b1 0b 3b
        E 16 b1 0b 55
        E 48 b1 0b 3b
        E 16 b1 0b 55
        E 48 b1 0b 3b
        E 16 b1 0b 55
        E 48 b1 0b 44
        E 32 b1 0b 33
        E 16 b1 0b 22
        E 16 b1 0b 19
        E 16 b1 0b 08
        E 16 81 37 00
        E 16 b1 0c 40
        E 0 b1 0b 19
        E 0 91 3d 19
        E 16 b1 0b 3b
        E 16 b1 0b 5d
        E 16 b1 0b 7f
        E 32 b1 0c 20
        E 0 b1 0b 19
        E 0 81 3d 00
        E 0 91 47 19
        E 16 b1 0b 3b
        E 16 b1 0b 5d
        E 16 b1 0b 7f
        E 16 b1 0b 66
        E 32 b1 0c 40
        E 0 b1 0b 19
        E 0 81 47 00
        E 0 91 4b 19
        E 16 b1 0b 3b
        E 16 b1 0b 5d
        E 16 b1 0b 7f
        E 16 b1 0b 66
        E 16 b1 0b 55
        E 16 b1 0b 3b
        E 16 b1 0b 2a
        E 16 b1 0b 11
        E 16 81 4b 00
        E 64 b1 0c 60
        E 0 b1 0b 55
        E 0 91 2e 55
        E 48 b1 0b 3b
        E 16 b1 0b 55
        E 32 b1 0b 44
        E 16 b1 0b 33
        E 16 b1 0b 22
        E 16 b1 0b 19
        E 16 b1 0b 08
        E 16 81 2e 00
        E 160 b1 0b 7f
        E 0 91 2c 7f
        E 16 81 2c 00
        E 16 b1 0c 40
        E 0 91 47 7f
        E 16 b1 0b 77
        E 32 b1 0b 7f
        E 16 b1 0b 77
        E 32 b1 0b 7f
        E 0 81 47 00
        E 0 91 44 7f
        E 16 b1 0b 77
        E 48 b1 0c 60
        E 0 b1 0b 55
        E 0 81 44 00
        E 0 91 2c 55
        E 32 b1 0b 3b
        E 16 b1 0b 55
        E 48 b1 0b 3b
        E 16 b1 0b 55
        E 144 81 2c 00
        E 0 91 2d 55
        E 16 81 2d 00
        E 0 91 2c 55
        E 112 81 2c 00
        E 0 91 2d 55
        E 32 b1 0b 33
        E 16 b1 0b 11
        E 16 81 2d 00
        E 32 b1 0c 40
        E 0 b1 0b 7f
        E 0 91 47 7f
        E 16 b1 0b 77
        E 32 b1 0b 7f
        E 0 81 47 00
        E 0 91 44 7f
        E 16 b1 0b 77
        E 48 81 44 00
        E 64 b1 0b 7f
        E 0 91 47 7f
        E 16 b1 0b 77
        E 32 b1 0b 7f
        E 0 81 47 00
        E 0 91 44 7f
        E 16 b1 0b 77
        E 48 b1 0c 60
        E 0 b1 0b 22
        E 0 81 44 00
        E 0 91 2f 22
        E 16 b1 0b 19
        E 16 b1 0b 08
        E 16 b1 0b 7f
        E 16 b1 0b 5d
        E 16 b1 0b 3b
        E 16 b1 0b 55
        E 48 b1 0b 3b
        E 16 b1 0b 55
        E 48 b1 0b 3b
        E 16 b1 0b 55
        E 48 b1 0b 3b
        E 16 81 2f 00
        E 16 b1 0b 7f
        E 0 91 52 7f
        E 16 b1 0b 66
        E 16 b1 0b 55
        E 32 b1 0b 7f
        E 0 81 52 00
        E 0 91 4c 7f
        E 16 b1 0b 66
        E 16 b1 0b 55
        E 32 b1 0b 7f
        E 0 81 4c 00
        E 0 91 51 7f
        E 16 b1 0b 66
        E 16 b1 0b 55
        E 32 b1 0b 7f
        E 0 81 51 00
        E 0 91 54 7f
        E 16 b1 0b 66
        E 16 b1 0b 55
        E 32 b1 0b 7f
        E 0 81 54 00
        E 0 91 56 7f
        E 16 b1 0b 66
        E 16 b1 0b 55
        E 32 b1 0b 7f
        E 0 81 56 00
        E 0 91 5b 7f
        E 16 b1 0b 66
        E 16 b1 0b 55
        E 32 b1 0b 7f
        E 0 81 5b 00
        E 0 91 5f 7f
        E 16 b1 0b 66
        E 16 b1 0b 55
        E 16 b1 0c 10
        E 0 b1 0b 66
        E 0 81 5f 00
        E 0 91 2c 66
        E 16 b1 0b 55
        E 16 81 2c 00
        E 16 b1 0c 40
        E 0 b1 0b 7f
        E 0 91 47 7f
        E 16 b1 0b 77
        E 32 b1 0b 7f
        E 0 81 47 00
        E 0 91 44 7f
        E 16 b1 0b 77
        E 48 b1 0c 10
        E 0 b1 0b 66
        E 0 81 44 00
        E 0 91 2f 66
        E 16 b1 0b 55
        E 16 b1 0b 3b
        E 16 b1 0b 2a
        E 16 b1 0b 22
        E 16 b1 0b 19
        E 80 b1 0b 7f
        E 0 81 2f 00
        E 0 91 33 7f
        E 16 b1 0b 66
        E 16 b1 0b 55
        E 16 b1 0b 3b
        E 16 b1 0b 2a
        E 16 b1 0b 22
        E 16 b1 0b 19
        E 128 b1 0b 11
        E 96 81 33 00
        E 16 b1 0c 40
        E 0 b1 0b 7f
        E 0 91 47 7f
        E 16 b1 0b 77
        E 32 b1 0b 7f
        E 0 81 47 00
        E 0 91 44 7f
        E 16 b1 0b 77
        E 48 b1 0c 10
        E 0 b1 0b 19
        E 0 81 44 00
        E 0 91 2c 19
        E 48 b1 0b 7f
        E 0 81 2c 00
        E 0 91 2f 7f
        E 16 b1 0b 66
        E 16 b1 0b 55
        E 16 b1 0b 3b
        E 16 b1 0b 2a
        E 16 b1 0b 22
        E 16 b1 0b 19
        E 64 81 2f 00
        E 16 b1 0c 40
        E 0 b1 0b 7f
        E 0 91 47 7f
        E 16 b1 0b 77
        E 32 b1 0b 7f
        E 0 81 47 00
        E 0 91 44 7f
        E 16 b1 0b 77
        E 48 b1 0c 10
        E 0 b1 0b 19
        E 0 81 44 00
        E 0 91 33 19
        E 64 81 33 00
        E 16 b1 0c 40
        E 0 b1 0b 7f
        E 0 91 52 7f
        E 16 b1 0b 6e
        E 16 b1 0b 5d
        E 16 b1 0b 4c
        E 32 b1 0b 7f
        E 0 81 52 00
        E 0 91 54 7f
        E 16 b1 0b 77
        E 32 b1 0b 6e
        E 48 b1 0b 66
        E 48 b1 0b 5d
        E 32 b1 0b 55
        E 48 b1 0b 4c
        E 48 b1 0b 44
        E 32 b1 0b 3b
        E 48 b1 0c 10
        E 0 b1 0b 19
        E 0 81 54 00
        E 0 91 2f 19
        E 48 b1 0b 7f
        E 0 81 2f 00
        E 0 91 33 7f
        E 16 b1 0b 66
        E 16 b1 0b 55
        E 16 b1 0b 3b
        E 16 b1 0b 2a
        E 16 b1 0b 22
        E 16 b1 0b 19
        E 128 b1 0b 11
        E 112 b1 0b 7f
        E 0 81 33 00
        E 0 91 2c 7f
        E 16 b1 0b 66
        E 16 b1 0b 55
        E 16 b1 0b 3b
        E 16 b1 0b 2a
        E 16 b1 0b 22
        E 16 b1 0b 19
        E 64 b1 0b 7f
        E 0 81 2c 00
        E 0 91 2f 7f
        E 16 b1 0b 66
        E 16 b1 0b 55
        E 16 81 2f 00
        E 16 b1 0c 40
        E 0 b1 0b 7f
        E 0 91 47 7f
        E 16 b1 0b 77
        E 48 b1 0b 7f
        E 16 b1 0b 77
        E 32 b1 0b 7f
        E 0 81 47 00
        E 0 91 44 7f
        E 16 b1 0b 77
        E 48 b1 0c 10
        E 0 b1 0b 2a
        E 0 81 44 00
        E 0 91 33 2a
        E 16 b1 0b 22
        E 16 b1 0b 19
        E 64 b1 0b 08
        E 16 81 33 00
        E 48 b1 0c 20
        E 0 b1 0b 7f
        E 0 91 56 7f
        E 16 b1 0b 33
        E 16 81 56 00
        E 64 b1 0b 44
        E 0 91 56 44
        E 16 b1 0b 4c
        E 16 b1 0b 2a
        E 16 81 56 00
        E 48 b1 0b 08
        E 0 91 56 08
        E 16 b1 0b 19
        E 16 b1 0b 11
        E 32 b1 0b 7f
        E 16 b1 0b 33
        E 16 81 56 00
        E 64 b1 0b 44
        E 0 91 56 44
        E 16 b1 0b 4c
        E 16 b1 0b 2a
        E 16 81 56 00
        E 48 b1 0b 08
        E 0 91 56 08
        E 16 b1 0b 19
        E 16 b1 0b 11
        E 32 b1 0c 40
        E 0 b1 0b 7f
        E 0 81 56 00
        E 0 91 3b 7f
        E 16 b1 0b 6e
        E 0 81 3b 00
        E 0 91 38 6e
        E 80 b1 0c 10
        E 0 b1 0b 5d
        E 0 81 38 00
        E 0 91 43 5d
        E 80 81 43 00
        E 0 91 39 5d
        E 96 81 39 00
        E 0 91 2c 5d
        E 32 81 2c 00
        E 64 b1 0b 3b
        E 0 91 36 3b
        E 16 b1 0b 55
        E 48 b1 0b 3b
        E 16 b1 0b 44
        E 16 81 36 00
        E 16 b1 0c 40
        E 0 b1 0b 7f
        E 0 91 52 7f
        E 16 b1 0b 6e
        E 16 b1 0b 5d
        E 16 b1 0b 4c
        E 32 b1 0b 7f
        E 0 81 52 00
        E 0 91 54 7f
        E 16 b1 0b 77
        E 32 b1 0b 6e
        E 48 b1 0b 66
        E 48 b1 0b 5d
        E 32 b1 0b 55
        E 48 b1 0b 4c
        E 48 b1 0b 44
        E 32 b1 0b 3b
        E 48 81 54 00
        E 32 b1 0c 60
        E 0 b1 0b 7f
        E 0 91 33 7f
        E 16 b1 0b 5d
        E 16 b1 0b 3b
        E 16 b1 0b 55
        E 48 b1 0b 3b
        E 16 b1 0b 33
        E 16 b1 0b 22
        E 16 b1 0b 19
        E 16 b1 0b 7f
        E 16 b1 0b 5d
        E 16 b1 0b 3b
        E 16 81 33 00
        E 16 b1 0c 40
        E 0 b1 0b 7f
        E 0 91 52 7f
        E 16 b1 0b 6e
        E 16 b1 0b 5d
        E 16 b1 0b 4c
        E 32 b1 0b 7f
        E 0 81 52 00
        E 0 91 54 7f
        E 16 b1 0b 77
        E 32 b1 0b 6e
        E 48 b1 0b 66
        E 48 b1 0b 5d
        E 32 b1 0b 55
        E 48 b1 0b 4c
        E 48 b1 0b 44
        E 32 b1 0b 3b
        E 48 b1 0c 60
        E 0 b1 0b 08
        E 0 81 54 00
        E 0 91 33 08
        E 16 b1 0b 7f
        E 16 b1 0b 5d
        E 16 b1 0b 3b
        E 16 b1 0b 55
        E 48 b1 0b 3b
        E 16 b1 0b 55
        E 16 81 33 00
        E 16 b1 0c 40
        E 0 b1 0b 7f
        E 0 91 47 7f
        E 16 b1 0b 77
        E 32 b1 0b 7f
        E 0 81 47 00
        E 0 91 44 7f
        E 16 b1 0b 77
        E 48 81 44 00
        E 80 b1 0c 60
        E 0 b1 0b 7f
        E 0 91 36 7f
        E 16 b1 0b 5d
        E 16 b1 0b 3b
        E 16 b1 0b 55
        E 48 b1 0b 3b
        E 16 b1 0b 55
        E 48 b1 0b 3b
        E 16 b1 0b 55
        E 48 b1 0b 3b
        E 16 b1 0b 55
        E 48 b1 0b 3b
        E 16 b1 0b 55
        E 288 81 36 00
        E 16 b1 0c 20
        E 0 b1 0b 7f
        E 0 91 56 7f
        E 16 b1 0b 33
        E 16 81 56 00
        E 64 b1 0b 44
        E 0 91 56 44
        E 16 b1 0b 4c
        E 16 b1 0b 2a
        E 16 81 56 00
        E 48 b1 0b 08
        E 0 91 56 08
        E 32 b1 0c 60
        E 0 b1 0b 7f
        E 0 81 56 00
        E 0 91 39 7f
        E 16 b1 0b 77
        E 0 81 39 00
        E 0 91 37 77
        E 48 b1 0c 40
        E 0 b1 0b 7f
        E 0 81 37 00
        E 0 91 46 7f
        E 16 b1 0b 77
        E 32 b1 0b 6e
        E 48 b1 0b 66
        E 48 b1 0c 60
        E 0 b1 0b 7f
        E 0 81 46 00
        E 0 91 37 7f
        E 16 b1 0b 77
        E 32 b1 0b 6e
        E 48 b1 0b 7f
        E 0 81 37 00
        E 0 91 39 7f
        E 16 b1 0b 77
        E 0 81 39 00
        E 0 91 37 77
        E 64 b1 0c 10
        E 0 b1 0b 7f
        E 0 81 37 00
        E 0 91 44 7f
        E 16 b1 0b 77
        E 16 b1 0b 66
        E 16 b1 0b 77
        E 16 b1 0b 7f
        E 16 b1 0b 77
        E 32 b1 0c 20
        E 0 b1 0b 7f
        E 0 81 44 00
        E 0 91 53 7f
        E 16 b1 0b 77
        E 16 b1 0b 66
        E 16 b1 0b 6e
        E 48 b1 0b 66
        E 48 b1 0b 5d
        E 32 b1 0b 55
        E 48 b1 0b 4c
        E 48 b1 0b 44
        E 32 b1 0b 3b
        E 48 b1 0b 33
        E 48 b1 0b 2a
        E 16 81 53 00
        E 0 91 36 2a
        E 16 b1 0b 22
        E 16 81 36 00
        E 0 91 3a 22
        E 32 b1 0b 19
        E 32 81 3a 00
        E 0 91 38 19
        E 16 b1 0b 11
        E 16 b1 0c 60
        E 0 b1 0b 55
        E 0 81 38 00
        E 0 91 2f 55
        E 160 b1 0b 33
        E 16 b1 0b 11
        E 16 81 2f 00
        E 272 b1 0c 40
        E 0 b1 0b 7f
        E 0 91 47 7f
        E 16 b1 0b 77
        E 32 b1 0b 7f
        E 0 81 47 00
        E 0 91 44 7f
        E 16 b1 0b 77
        E 48 b1 0c 60
        E 0 b1 0b 3b
        E 0 81 44 00
        E 0 91 36 3b
        E 16 b1 0b 55
        E 48 b1 0b 3b
        E 16 81 36 00
        E 16 b1 0c 40
        E 0 b1 0b 7f
        E 0 91 47 7f
        E 16 b1 0b 77
        E 32 b1 0b 7f
        E 0 81 47 00
        E 0 91 44 7f
        E 16 b1 0b 77
        E 48 81 44 00
        E 32 b1 0c 60
        E 0 b1 0b 7f
        E 0 91 36 7f
        E 16 b1 0b 5d
        E 16 b1 0b 3b
        E 16 b1 0b 55
        E 48 b1 0b 3b
        E 16 b1 0b 55
        E 48 b1 0b 3b
        E 16 b1 0b 55
        E 16 81 36 00
        E 16 b1 0c 40
        E 0 b1 0b 7f
        E 0 91 47 7f
        E 16 b1 0b 77
        E 32 b1 0b 7f
        E 0 81 47 00
        E 0 91 44 7f
        E 16 b1 0b 77
        E 48 b1 0c 60
        E 0 b1 0b 55
        E 0 81 44 00
        E 0 91 36 55
        E 288 b1 0b 33
        E 16 b1 0b 11
        E 16 81 36 00
        E 32 b1 0c 40
        E 0 b1 0b 7f
        E 0 91 52 7f
        E 16 b1 0b 6e
        E 16 b1 0b 5d
        E 16 b1 0b 4c
        E 32 b1 0b 7f
        E 0 81 52 00
        E 0 91 54 7f
        E 16 b1 0b 77
        E 32 b1 0b 6e
        E 48 b1 0b 66
        E 48 b1 0b 5d
        E 32 b1 0b 55
        E 48 b1 0b 4c
        E 48 b1 0b 44
        E 32 b1 0b 3b
        E 48 b1 0c 60
        E 0 b1 0b 44
        E 0 81 54 00
        E 0 91 31 44
        E 16 b1 0b 33
        E 16 b1 0b 22
        E 16 b1 0b 19
        E 16 81 31 00
        E 16 b1 0c 40
        E 0 b1 0b 7f
        E 0 91 47 7f
        E 16 b1 0b 77
        E 32 b1 0b 7f
        E 0 81 47 00
        E 0 91 44 7f
        E 16 b1 0b 77
        E 48 81 44 00
        E 48 b1 0c 60
        E 0 b1 0b 7f
        E 0 91 2f 7f
        E 16 b1 0b 5d
        E 16 b1 0b 3b
        E 16 b1 0b 55
        E 48 b1 0b 3b
        E 16 b1 0b 55
        E 48 b1 0b 3b
        E 16 b1 0b 55
        E 48 b1 0b 3b
        E 16 b1 0b 55
        E 48 b1 0b 3b
        E 16 b1 0b 55
        E 240 81 2f 00
        E 16 b1 0b 7f
        E 0 91 39 7f
        E 16 b1 0b 77
        E 0 81 39 00
        E 0 91 37 77
        E 48 b1 0c 40
        E 0 b1 0b 7f
        E 0 81 37 00
        E 0 91 46 7f
        E 16 b1 0b 77
        E 32 b1 0b 6e
        E 48 b1 0b 66
        E 48 b1 0c 60
        E 0 b1 0b 7f
        E 0 81 46 00
        E 0 91 37 7f
        E 16 b1 0b 77
        E 32 b1 0b 6e
        E 48 b1 0b 66
        E 48 b1 0b 5d
        E 32 b1 0b 55
        E 0 81 37 00
        E 0 91 2d 55
        E 32 b1 0b 19
        E 0 81 2d 00
        E 0 91 36 19
        E 16 b1 0b 08
        E 16 b1 0b 7f
        E 16 b1 0b 5d
        E 16 b1 0b 3b
        E 16 b1 0b 55
        E 48 b1 0b 3b
        E 16 b1 0b 55
        E 48 b1 0b 3b
        E 16 b1 0b 44
        E 16 b1 0b 33
        E 16 b1 0b 22
        E 16 b1 0b 19
        E 16 b1 0b 08
        E 16 81 36 00
        E 80 b1 0c 40
        E 0 b1 0b 7f
        E 0 91 47 7f
        E 16 b1 0b 77
        E 32 b1 0b 7f
        E 0 81 47 00
        E 0 91 44 7f
        E 16 b1 0b 77
        E 48 b1 0c 60
        E 0 b1 0b 55
        E 0 81 44 00
        E 0 91 3a 55
        E 48 b1 0b 3b
        E 16 b1 0b 55
        E 48 b1 0b 3b
        E 16 b1 0b 55
        E 48 b1 0b 3b
        E 16 b1 0b 55
        E 48 b1 0b 44
        E 16 b1 0b 33
        E 16 b1 0b 22
        E 16 b1 0b 19
        E 16 b1 0b 08
        E 16 81 3a 00
        E 176 b1 0c 40
        E 0 b1 0b 19
        E 0 91 3d 19
        E 16 b1 0b 3b
        E 16 b1 0b 5d
        E 16 b1 0b 7f
        E 32 b1 0c 20
        E 0 b1 0b 19
        E 0 81 3d 00
        E 0 91 47 19
        E 16 b1 0b 3b
        E 16 b1 0b 5d
        E 16 b1 0b 7f
        E 16 b1 0b 66
        E 32 b1 0c 40
        E 0 b1 0b 19
        E 0 81 47 00
        E 0 91 4b 19
        E 16 b1 0b 3b
        E 16 b1 0b 5d
        E 16 b1 0b 7f
        E 16 b1 0b 66
        E 16 b1 0b 55
        E 16 b1 0b 3b
        E 16 b1 0b 2a
        E 16 b1 0b 11
        E 16 81 4b 00
        E 752 b1 0c 60
        E 0 b1 0b 7f
        E 0 91 30 7f
        E 16 b1 0b 5d
        E 16 b1 0b 3b
        E 16 b1 0b 55
        E 16 81 30 00
        E 16 b1 0c 40
        E 0 b1 0b 7f
        E 0 91 47 7f
        E 16 b1 0b 77
        E 32 b1 0b 7f
        E 0 81 47 00
        E 0 91 44 7f
        E 16 b1 0b 77
        E 48 b1 0c 60
        E 0 b1 0b 5d
        E 0 81 44 00
        E 0 91 30 5d
        E 16 b1 0b 3b
        E 16 b1 0b 55
        E 48 b1 0b 3b
        E 16 b1 0b 55
        E 48 b1 0b 3b
        E 16 b1 0b 55
        E 48 b1 0b 3b
        E 16 b1 0b 33
        E 16 b1 0b 22
        E 16 b1 0b 19
        E 16 b1 0b 08
        E 16 81 30 00
        E 32 b1 0b 7f
        E 0 91 30 7f
        E 16 b1 0b 5d
        E 16 b1 0b 3b
        E 16 b1 0b 55
        E 48 b1 0b 3b
        E 16 b1 0b 44
        E 16 b1 0b 33
        E 16 b1 0b 22
        E 16 b1 0b 7f
        E 16 b1 0b 5d
        E 16 b1 0b 3b
        E 16 b1 0b 55
        E 48 b1 0b 3b
        E 16 b1 0b 55
        E 48 b1 0b 3b
        E 16 b1 0b 55
        E 48 b1 0b 3b
        E 16 b1 0b 55
        E 16 81 30 00
        E 16 b1 0c 40
        E 0 b1 0b 7f
        E 0 91 47 7f
        E 16 b1 0b 77
        E 32 b1 0b 7f
        E 0 81 47 00
        E 0 91 44 7f
        E 16 b1 0b 77
        E 48 b1 0c 60
        E 0 b1 0b 19
        E 0 81 44 00
        E 0 91 30 19
        E 16 b1 0b 08
        E 16 81 30 00
        E 96 b1 0b 7f
        E 0 91 2e 7f
        E 16 b1 0b 66
        E 16 b1 0b 55
        E 16 b1 0b 3b
        E 16 b1 0b 2a
        E 16 b1 0b 22
        E 32 b1 0b 19
        E 48 b1 0b 7f
        E 16 b1 0b 66
        E 16 b1 0b 55
        E 16 b1 0b 3b
        E 16 b1 0b 2a
        E 16 b1 0b 22
        E 32 b1 0b 19
        E 64 b1 0b 7f
        E 16 b1 0b 66
        E 16 b1 0b 55
        E 16 b1 0b 3b
        E 16 b1 0b 2a
        E 16 b1 0b 22
        E 32 b1 0b 19
        E 48 b1 0b 7f
        E 16 b1 0b 66
        E 16 b1 0b 55
        E 16 b1 0b 3b
        E 16 b1 0b 2a
        E 16 b1 0b 22
        E 32 b1 0b 19
        E 32 81 2e 00
        E 16 b1 0c 40
        E 0 b1 0b 7f
        E 0 91 47 7f
        E 16 b1 0b 77
        E 32 b1 0b 7f
        E 0 81 47 00
        E 0 91 44 7f
        E 16 b1 0b 77
        E 48 b1 0c 60
        E 0 b1 0b 22
        E 0 81 44 00
        E 0 91 2e 22
        E 16 b1 0b 19
        E 48 b1 0b 7f
        E 16 b1 0b 66
        E 16 b1 0b 55
        E 16 b1 0b 3b
        E 16 b1 0b 2a
        E 16 b1 0b 22
        E 32 b1 0b 19
        E 64 b1 0b 7f
        E 16 b1 0b 66
        E 16 b1 0b 55
        E 16 b1 0b 3b
        E 16 b1 0b 2a
        E 16 b1 0b 22
        E 32 b1 0b 19
        E 48 b1 0b 7f
        E 16 b1 0b 66
        E 16 b1 0b 55
        E 16 b1 0b 3b
        E 16 b1 0b 2a
        E 16 b1 0b 22
        E 32 b1 0b 19
        E 64 b1 0b 7f
        E 16 b1 0b 66
        E 16 b1 0b 55
        E 16 b1 0b 3b
        E 16 b1 0b 2a
        E 16 b1 0b 22
        E 32 b1 0b 19
        E 48 b1 0b 7f
        E 16 b1 0b 66
        E 16 b1 0b 55
        E 16 b1 0b 3b
        E 16 b1 0b 2a
        E 16 b1 0b 22
        E 32 b1 0b 19
        E 64 b1 0b 7f
        E 16 b1 0b 66
        E 16 b1 0b 55
        E 16 b1 0b 3b
        E 16 b1 0b 2a
        E 16 b1 0b 22
        E 16 81 2e 00
        E 16 b1 0c 40
        E 0 b1 0b 7f
        E 0 91 47 7f
        E 16 b1 0b 77
        E 32 b1 0b 7f
        E 0 81 47 00
        E 0 91 44 7f
        E 16 b1 0b 77
        E 48 b1 0c 60
        E 0 b1 0b 2a
        E 0 81 44 00
        E 0 91 2e 2a
        E 16 b1 0b 22
        E 32 b1 0b 19
        E 64 b1 0b 7f
        E 16 b1 0b 66
        E 16 b1 0b 55
        E 16 b1 0b 3b
        E 16 b1 0b 2a
        E 16 b1 0b 22
        E 32 b1 0b 19
        E 48 b1 0b 7f
        E 16 b1 0b 66
        E 16 b1 0b 55
        E 16 b1 0b 3b
        E 16 b1 0b 2a
        E 16 b1 0b 22
        E 32 b1 0b 19
        E 64 b1 0b 7f
        E 16 b1 0b 66
        E 16 b1 0b 55
        E 16 b1 0b 3b
        E 16 b1 0b 2a
        E 16 b1 0b 22
        E 32 b1 0b 19
        E 48 b1 0b 7f
        E 16 b1 0b 66
        E 16 b1 0b 55
        E 16 b1 0b 3b
        E 16 b1 0b 2a
        E 16 b1 0b 22
        E 32 b1 0b 19
        E 64 b1 0b 7f
        E 0 81 2e 00
        E 0 91 32 7f
        E 16 b1 0b 66
        E 16 b1 0b 55
        E 16 b1 0b 3b
        E 16 b1 0b 2a
        E 16 b1 0b 22
        E 32 b1 0b 19
        E 48 b1 0b 7f
        E 16 b1 0b 66
        E 16 b1 0b 55
        E 16 b1 0b 3b
        E 16 b1 0b 2a
        E 16 81 32 00
        E 16 b1 0c 40
        E 0 b1 0b 7f
        E 0 91 47 7f
        E 16 b1 0b 77
        E 32 b1 0b 7f
        E 0 81 47 00
        E 0 91 44 7f
        E 16 b1 0b 77
        E 48 b1 0c 60
        E 0 b1 0b 55
        E 0 81 44 00
        E 0 91 32 55
        E 16 b1 0b 3b
        E 16 b1 0b 2a
        E 16 b1 0b 22
        E 32 b1 0b 19
        E 48 b1 0b 7f
        E 16 b1 0b 66
        E 16 b1 0b 55
        E 16 b1 0b 3b
        E 16 b1 0b 2a
        E 16 b1 0b 22
        E 32 b1 0b 19
        E 64 b1 0b 7f
        E 16 b1 0b 66
        E 16 b1 0b 55
        E 16 b1 0b 3b
        E 16 b1 0b 2a
        E 16 b1 0b 22
        E 32 b1 0b 19
        E 48 b1 0b 7f
        E 16 b1 0b 66
        E 16 b1 0b 55
        E 16 b1 0b 3b
        E 16 b1 0b 2a
        E 16 b1 0b 22
        E 32 b1 0b 19
        E 64 b1 0b 7f
        E 16 b1 0b 66
        E 16 b1 0b 55
        E 16 b1 0b 3b
        E 16 b1 0b 2a
        E 16 81 32 00
        E 16 b1 0c 40
        E 0 b1 0b 7f
        E 0 91 47 7f
        E 16 b1 0b 77
        E 32 b1 0b 7f
        E 0 81 47 00
        E 0 91 44 7f
        E 16 b1 0b 77
        E 48 b1 0c 60
        E 0 b1 0b 3b
        E 0 81 44 00
        E 0 91 32 3b
        E 16 b1 0b 2a
        E 16 b1 0b 22
        E 32 b1 0b 19
        E 64 b1 0b 7f
        E 16 b1 0b 66
        E 16 b1 0b 55
        E 16 b1 0b 3b
        E 16 b1 0b 2a
        E 16 b1 0b 22
        E 32 b1 0b 19
        E 48 b1 0b 7f
        E 16 b1 0b 66
        E 16 b1 0b 55
        E 16 b1 0b 3b
        E 16 b1 0b 2a
        E 16 b1 0b 22
        E 32 b1 0b 19
        E 64 b1 0b 7f
        E 16 b1 0b 66
        E 16 b1 0b 55
        E 16 b1 0b 3b
        E 16 b1 0b 2a
        E 16 b1 0b 22
        E 32 b1 0b 19
        E 48 b1 0b 7f
        E 16 b1 0b 66
        E 16 b1 0b 55
        E 16 b1 0b 3b
        E 16 b1 0b 2a
        E 16 b1 0b 22
        E 32 81 32 00
        E 16 b1 0c 40
        E 0 b1 0b 7f
        E 0 91 52 7f
        E 16 b1 0b 6e
        E 16 b1 0b 5d
        E 16 b1 0b 4c
        E 32 b1 0b 7f
        E 0 81 52 00
        E 0 91 54 7f
        E 32 81 54 00
        E 0 91 52 7f
        E 16 b1 0b 6e
        E 16 b1 0b 5d
        E 16 b1 0b 4c
        E 32 b1 0b 7f
        E 0 81 52 00
        E 0 91 54 7f
        E 16 b1 0b 77
        E 32 b1 0b 6e
        E 48 b1 0b 66
        E 48 b1 0b 5d
        E 32 b1 0b 55
        E 48 b1 0b 4c
        E 48 b1 0b 44
        E 32 b1 0b 3b
        E 48 b1 0c 60
        E 0 b1 0b 7f
        E 0 81 54 00
        E 0 91 32 7f
        E 16 b1 0b 66
        E 16 b1 0b 55
        E 16 b1 0b 3b
        E 16 b1 0b 2a
        E 16 b1 0b 22
        E 32 b1 0b 19
        E 64 b1 0b 7f
        E 0 81 32 00
        E 0 91 33 7f
        E 16 b1 0b 66
        E 16 b1 0b 55
        E 16 b1 0b 3b
        E 16 b1 0b 2a
        E 16 b1 0b 22
        E 32 b1 0b 19
        E 48 b1 0b 7f
        E 16 b1 0b 66
        E 16 b1 0b 55
        E 16 b1 0b 3b
        E 16 b1 0b 2a
        E 16 b1 0b 22
        E 32 b1 0b 19
        E 64 b1 0b 7f
        E 16 b1 0b 66
        E 16 b1 0b 55
        E 16 b1 0b 3b
        E 16 b1 0b 2a
        E 16 b1 0b 22
        E 32 81 33 00
        E 16 b1 0c 40
        E 0 b1 0b 7f
        E 0 91 47 7f
        E 16 b1 0b 77
        E 32 b1 0b 7f
        E 0 81 47 00
        E 0 91 44 7f
        E 16 b1 0b 77
        E 48 b1 0c 60
        E 0 b1 0b 22
        E 0 81 44 00
        E 0 91 33 22
        E 32 b1 0b 19
        E 64 b1 0b 7f
        E 16 b1 0b 66
        E 16 b1 0b 55
        E 16 b1 0b 3b
        E 16 b1 0b 2a
        E 16 b1 0b 22
        E 32 b1 0b 19
        E 48 b1 0b 7f
        E 16 b1 0b 66
        E 16 b1 0b 55
        E 16 b1 0b 3b
        E 16 b1 0b 2a
        E 16 b1 0b 22
        E 32 b1 0b 19
        E 64 b1 0b 7f
        E 16 b1 0b 66
        E 16 b1 0b 55
        E 16 b1 0b 3b
        E 16 b1 0b 2a
        E 16 b1 0b 22
        E 32 b1 0b 19
        E 48 b1 0b 7f
        E 16 b1 0b 66
        E 16 b1 0b 55
        E 16 b1 0b 3b
        E 16 b1 0b 2a
        E 16 b1 0b 22
        E 32 b1 0b 19
        E 64 b1 0b 7f
        E 0 81 33 00
        E 0 91 30 7f
        E 16 b1 0b 66
        E 16 b1 0b 55
        E 16 b1 0b 3b
        E 16 b1 0b 2a
        E 16 b1 0b 22
        E 32 b1 0b 19
        E 48 b1 0b 7f
        E 16 81 30 00
        E 16 b1 0c 40
        E 0 91 47 7f
        E 16 b1 0b 77
        E 32 b1 0b 7f
        E 0 81 47 00
        E 0 91 44 7f
        E 16 b1 0b 77
        E 48 b1 0c 60
        E 0 b1 0b 19
        E 0 81 44 00
        E 0 91 30 19
        E 32 b1 0b 7f
        E 16 b1 0b 66
        E 16 b1 0b 55
        E 16 b1 0b 3b
        E 16 b1 0b 2a
        E 16 b1 0b 22
        E 32 b1 0b 19
        E 32 81 30 00
        E 16 b1 0c 20
        E 0 b1 0b 7f
        E 0 91 56 7f
        E 16 b1 0b 33
        E 16 81 56 00
        E 64 b1 0b 44
        E 0 91 56 44
        E 16 b1 0b 4c
        E 16 b1 0b 2a
        E 16 81 56 00
        E 48 b1 0b 08
        E 0 91 56 08
        E 16 b1 0b 19
        E 16 b1 0b 11
        E 32 b1 0b 7f
        E 16 b1 0b 33
        E 16 81 56 00
        E 64 b1 0b 44
        E 0 91 56 44
        E 16 b1 0b 4c
        E 16 b1 0b 2a
        E 16 81 56 00
        E 48 b1 0b 08
        E 0 91 56 08
        E 16 b1 0b 19
        E 16 b1 0b 11
        E 32 b1 0b 7f
        E 16 b1 0b 33
        E 16 81 56 00
        E 64 b1 0b 44
        E 0 91 56 44
        E 16 b1 0b 4c
        E 16 b1 0b 2a
        E 16 81 56 00
        E 48 b1 0b 08
        E 0 91 56 08
        E 16 b1 0b 19
        E 16 b1 0b 11
        E 32 b1 0b 7f
        E 16 b1 0b 33
        E 16 81 56 00
        E 64 b1 0b 44
        E 0 91 56 44
        E 16 b1 0b 4c
        E 16 b1 0b 2a
        E 16 81 56 00
        E 48 b1 0b 08
        E 0 91 56 08
        E 16 b1 0b 19
        E 16 b1 0b 11
        E 32 b1 0b 7f
        E 16 b1 0b 33
        E 16 81 56 00
        E 64 b1 0b 44
        E 0 91 56 44
        E 16 b1 0b 4c
        E 16 b1 0b 2a
        E 16 81 56 00
        E 48 b1 0b 08
        E 0 91 56 08
        E 16 b1 0b 19
        E 16 b1 0b 11
        E 32 b1 0b 7f
        E 16 b1 0b 33
        E 16 81 56 00
        E 64 b1 0b 44
        E 0 91 56 44
        E 16 b1 0b 4c
        E 16 b1 0b 2a
        E 16 81 56 00
        E 48 b1 0b 08
        E 0 91 56 08
        E 16 b1 0b 19
        E 16 b1 0b 11
        E 32 b1 0b 7f
        E 16 b1 0b 33
        E 16 81 56 00
        E 64 b1 0b 44
        E 0 91 56 44
        E 16 b1 0b 4c
        E 16 b1 0b 2a
        E 16 81 56 00
        E 48 b1 0b 08
        E 0 91 56 08
        E 16 b1 0b 19
        E 16 b1 0b 11
        E 32 b1 0b 7f
        E 16 b1 0b 33
        E 16 81 56 00
        E 64 b1 0b 44
        E 0 91 56 44
        E 16 b1 0b 4c
        E 16 b1 0b 2a
        E 16 81 56 00
        E 48 b1 0b 08
        E 0 91 56 08
        E 16 b1 0b 19
        E 16 b1 0b 11
        E 32 b1 0b 7f
        E 16 b1 0b 33
        E 16 81 56 00
        E 64 b1 0b 44
        E 0 91 56 44
        E 16 b1 0b 4c
        E 16 b1 0b 2a
        E 16 81 56 00
        E 48 b1 0b 08
        E 0 91 56 08
        E 16 b1 0b 19
        E 16 b1 0b 11
        E 32 b1 0b 7f
        E 16 b1 0b 33
        E 16 81 56 00
        E 64 b1 0b 44
        E 0 91 56 44
        E 16 b1 0b 4c
        E 16 b1 0b 2a
        E 16 81 56 00
        E 48 b1 0b 08
        E 0 91 56 08
        E 16 b1 0b 19
        E 16 b1 0b 11
        E 32 b1 0b 7f
        E 16 b1 0b 33
        E 16 81 56 00
        E 64 b1 0b 44
        E 0 91 56 44
        E 16 b1 0b 4c
        E 16 b1 0b 2a
        E 16 81 56 00
        E 48 b1 0b 08
        E 0 91 56 08
        E 16 b1 0b 19
        E 16 b1 0b 11
        E 32 b1 0b 7f
        E 16 b1 0b 33
        E 16 81 56 00
        E 64 b1 0b 44
        E 0 91 56 44
        E 16 b1 0b 4c
        E 16 b1 0b 2a
        E 16 81 56 00
        E 48 b1 0b 08
        E 0 91 56 08
        E 16 b1 0b 19
        E 16 b1 0b 11
        E 32 b1 0b 7f
        E 16 b1 0b 33
        E 16 81 56 00
        E 64 b1 0b 44
        E 0 91 56 44
        E 16 b1 0b 4c
        E 16 b1 0b 2a
        E 16 81 56 00
        E 48 b1 0b 08
        E 0 91 56 08
        E 16 b1 0b 19
        E 16 b1 0b 11
        E 32 b1 0b 7f
        E 16 b1 0b 33
        E 16 81 56 00
        E 64 b1 0b 44
        E 0 91 56 44
        E 16 b1 0b 4c
        E 16 b1 0b 2a
        E 16 81 56 00
        E 48 b1 0b 08
        E 0 91 56 08
        E 16 b1 0b 19
        E 16 b1 0b 11
        E 32 b1 0b 7f
        E 16 b1 0b 33
        E 16 81 56 00
        E 64 b1 0b 44
        E 0 91 56 44
        E 16 b1 0b 4c
        E 16 b1 0b 2a
        E 16 81 56 00
        E 48 b1 0b 08
        E 0 91 56 08
        E 16 b1 0b 19
        E 16 b1 0b 11
        E 32 b1 0b 7f
        E 16 b1 0b 33
        E 16 81 56 00
        E 64 b1 0b 44
        E 0 91 56 44
        E 16 b1 0b 4c
        E 16 b1 0b 2a
        E 16 81 56 00
        E 48 b1 0b 08
        E 0 91 56 08
        E 16 b1 0b 19
        E 16 b1 0b 11
        E 32 b1 0b 7f
        E 16 b1 0b 33
        E 16 81 56 00
        E 64 b1 0b 44
        E 0 91 56 44
        E 16 b1 0b 4c
        E 16 b1 0b 2a
        E 16 81 56 00
        E 48 b1 0b 08
        E 0 91 56 08
        E 16 b1 0b 19
        E 16 b1 0b 11
        E 32 b1 0b 7f
        E 16 b1 0b 33
        E 16 81 56 00
        E 64 b1 0b 44
        E 0 91 56 44
        E 16 b1 0b 4c
        E 16 b1 0b 2a
        E 16 81 56 00
        E 48 b1 0b 08
        E 0 91 56 08
        E 16 b1 0b 19
        E 16 b1 0b 11
        E 16 b1 0b 08
        E 16 81 56 00
        E 64 b1 0c 60
        E 0 b1 0b 19
        E 0 91 33 19
        E 32 b1 0b 7f
        E 16 b1 0b 66
        E 16 b1 0b 55
        E 16 b1 0b 3b
        E 16 b1 0b 2a
        E 16 b1 0b 22
        E 32 b1 0b 19
        E 64 b1 0b 7f
        E 0 81 33 00
        E 0 91 2d 7f
        E 16 b1 0b 66
        E 16 b1 0b 55
        E 16 b1 0b 3b
        E 16 b1 0b 2a
        E 16 b1 0b 22
        E 32 b1 0b 19
        E 48 b1 0b 7f
        E 16 b1 0b 66
        E 16 b1 0b 55
        E 16 b1 0b 3b
        E 16 b1 0b 2a
        E 16 b1 0b 22
        E 32 b1 0b 19
        E 64 b1 0b 7f
        E 16 b1 0b 66
        E 16 b1 0b 55
        E 16 b1 0b 3b
        E 16 b1 0b 2a
        E 16 b1 0b 22
        E 32 b1 0b 19
        E 48 b1 0b 7f
        E 16 b1 0b 66
        E 16 b1 0b 55
        E 16 b1 0b 3b
        E 16 b1 0b 2a
        E 16 b1 0b 22
        E 32 b1 0b 19
        E 64 b1 0b 7f
        E 16 b1 0b 66
        E 16 b1 0b 55
        E 16 b1 0b 3b
        E 16 b1 0b 2a
        E 16 b1 0b 22
        E 32 b1 0b 19
        E 48 b1 0b 7f
        E 16 b1 0b 66
        E 16 b1 0b 55
        E 16 b1 0b 3b
        E 16 b1 0b 2a
        E 16 b1 0b 22
        E 32 b1 0b 19
        E 64 b1 0b 7f
        E 16 b1 0b 66
        E 16 b1 0b 55
        E 16 b1 0b 3b
        E 16 b1 0b 2a
        E 16 b1 0b 22
        E 32 b1 0b 19
        E 48 b1 0b 7f
        E 16 b1 0b 66
        E 16 b1 0b 55
        E 16 b1 0b 3b
        E 16 b1 0b 2a
        E 16 b1 0b 22
        E 32 b1 0b 19
        E 64 b1 0b 7f
        E 0 81 2d 00
        E 0 91 2b 7f
        E 16 b1 0b 5d
        E 16 b1 0b 3b
        E 16 b1 0b 55
        E 48 b1 0b 3b
        E 16 b1 0b 55
        E 48 b1 0b 3b
        E 16 b1 0b 44
        E 16 b1 0b 33
        E 16 b1 0b 22
        E 16 b1 0b 19
        E 16 b1 0b 08
        E 16 81 2b 00
        E 80 b1 0b 7f
        E 0 91 29 7f
        E 16 b1 0b 5d
        E 16 b1 0b 3b
        E 16 b1 0b 55
        E 32 b1 0b 44
        E 16 b1 0b 33
        E 16 b1 0b 22
        E 16 b1 0b 19
        E 16 b1 0b 08
        E 16 b1 0b 7f
        E 16 b1 0b 5d
        E 16 b1 0b 3b
        E 16 b1 0b 55
        E 48 b1 0b 3b
        E 16 b1 0b 55
        E 48 b1 0b 3b
        E 16 b1 0b 55
        E 16 b1 0b 44
        E 16 81 29 00
        E 16 b1 0b 7f
        E 0 91 52 7f
        E 16 b1 0b 66
        E 16 b1 0b 55
        E 32 b1 0b 7f
        E 0 81 52 00
        E 0 91 4c 7f
        E 16 b1 0b 66
        E 16 b1 0b 55
        E 32 b1 0b 7f
        E 0 81 4c 00
        E 0 91 51 7f
        E 16 b1 0b 66
        E 16 b1 0b 55
        E 32 b1 0b 7f
        E 0 81 51 00
        E 0 91 54 7f
        E 16 b1 0b 66
        E 16 b1 0b 55
        E 32 b1 0b 7f
        E 0 81 54 00
        E 0 91 56 7f
        E 16 b1 0b 66
        E 16 b1 0b 55
        E 32 b1 0b 7f
        E 0 81 56 00
        E 0 91 5b 7f
        E 16 b1 0b 66
        E 16 b1 0b 55
        E 32 b1 0b 7f
        E 0 81 5b 00
        E 0 91 5f 7f
        E 16 b1 0b 66
        E 16 b1 0b 55
        E 16 81 5f 00
        E 16 b1 0b 7f
        E 0 91 2b 7f
        E 16 b1 0b 5d
        E 16 b1 0b 3b
        E 16 b1 0b 55
        E 48 b1 0b 3b
        E 16 b1 0b 55
        E 48 b1 0b 3b
        E 16 b1 0b 55
        E 48 b1 0b 3b
        E 16 b1 0b 55
        E 16 b1 0b 44
        E 16 b1 0b 33
        E 16 b1 0b 22
        E 16 b1 0b 19
        E 16 b1 0b 08
        E 16 b1 0b 7f
        E 0 81 2b 00
        E 0 91 29 7f
        E 16 b1 0b 5d
        E 16 b1 0b 3b
        E 16 b1 0b 55
        E 48 b1 0b 3b
        E 16 b1 0b 55
        E 16 81 29 00
        E 16 b1 0c 20
        E 0 b1 0b 6e
        E 0 91 39 6e
        E 16 b1 0b 5d
        E 16 b1 0b 55
        E 240 b1 0b 4c
        E 16 b1 0b 44
        E 16 b1 0b 3b
        E 16 b1 0b 33
        E 16 81 39 00
        E 16 b1 0c 10
        E 0 b1 0b 7f
        E 0 91 44 7f
        E 16 b1 0b 77
        E 16 b1 0b 66
        E 16 b1 0b 77
        E 16 b1 0b 7f
        E 16 b1 0b 77
        E 32 b1 0c 20
        E 0 b1 0b 7f
        E 0 81 44 00
        E 0 91 53 7f
        E 16 b1 0b 77
        E 16 b1 0b 66
        E 16 b1 0b 6e
        E 48 b1 0b 66
        E 48 b1 0b 5d
        E 32 b1 0b 55
        E 48 b1 0b 4c
        E 48 b1 0b 44
        E 32 b1 0b 3b
        E 48 b1 0b 33
        E 48 b1 0b 2a
        E 16 81 53 00
        E 0 91 36 2a
        E 16 b1 0b 22
        E 16 81 36 00
        E 0 91 3a 22
        E 32 b1 0b 19
        E 32 81 3a 00
        E 0 91 38 19
        E 16 b1 0b 11
        E 16 b1 0b 2a
        E 0 81 38 00
        E 0 91 3c 2a
        E 16 b1 0b 6e
        E 0 81 3c 00
        E 0 91 35 6e
        E 16 b1 0b 5d
        E 16 b1 0b 55
        E 96 b1 0b 4c
        E 16 b1 0b 44
        E 16 b1 0b 6e
        E 0 81 35 00
        E 0 91 37 6e
        E 16 b1 0b 5d
        E 16 b1 0b 55
        E 96 b1 0b 4c
        E 16 b1 0b 44
        E 16 b1 0b 3b
        E 16 b1 0b 6e
        E 0 81 37 00
        E 0 91 39 6e
        E 16 b1 0b 5d
        E 16 b1 0b 55
        E 32 81 39 00
        E 16 b1 0c 40
        E 0 b1 0b 7f
        E 0 91 47 7f
        E 16 b1 0b 77
        E 32 b1 0b 7f
        E 0 81 47 00
        E 0 91 44 7f
        E 16 b1 0b 77
        E 48 b1 0c 20
        E 0 b1 0b 55
        E 0 81 44 00
        E 0 91 39 55
        E 64 b1 0b 4c
        E 16 b1 0b 44
        E 16 b1 0b 3b
        E 16 b1 0b 33
        E 16 b1 0b 2a
        E 16 b1 0b 6e
        E 0 81 39 00
        E 0 91 3a 6e
        E 16 b1 0b 5d
        E 16 b1 0b 55
        E 224 b1 0b 4c
        E 16 b1 0b 44
        E 16 b1 0b 3b
        E 16 b1 0b 33
        E 16 b1 0b 2a
        E 16 b1 0b 6e
        E 0 81 3a 00
        E 0 91 3c 6e
        E 16 b1 0b 5d
        E 16 b1 0b 55
        E 224 b1 0b 4c
        E 16 b1 0b 44
        E 16 b1 0b 3b
        E 16 b1 0b 33
        E 16 b1 0b 2a
        E 16 b1 0c 40
        E 0 b1 0b 6e
        E 0 81 3c 00
        E 0 91 43 6e
        E 16 b1 0b 5d
        E 16 b1 0b 55
        E 96 b1 0b 4c
        E 16 b1 0b 44
        E 16 81 43 00
        E 16 b1 0c 10
        E 0 b1 0b 7f
        E 0 91 44 7f
        E 16 b1 0b 77
        E 16 b1 0b 66
        E 16 b1 0b 77
        E 16 b1 0b 7f
        E 16 b1 0b 77
        E 32 b1 0c 20
        E 0 b1 0b 7f
        E 0 81 44 00
        E 0 91 53 7f
        E 16 b1 0b 77
        E 16 b1 0b 66
        E 16 b1 0b 6e
        E 48 b1 0b 66
        E 48 b1 0b 5d
        E 32 b1 0b 55
        E 48 b1 0b 4c
        E 48 b1 0b 44
        E 32 b1 0b 3b
        E 48 b1 0b 33
        E 48 b1 0c 10
        E 0 b1 0b 7f
        E 0 81 53 00
        E 0 91 44 7f
        E 16 b1 0b 77
        E 16 b1 0b 66
        E 16 b1 0b 77
        E 16 b1 0b 7f
        E 16 b1 0b 77
        E 32 b1 0c 20
        E 0 b1 0b 7f
        E 0 81 44 00
        E 0 91 53 7f
        E 16 b1 0b 77
        E 16 b1 0b 66
        E 16 b1 0b 6e
        E 48 b1 0b 66
        E 48 b1 0b 5d
        E 32 b1 0b 55
        E 48 b1 0b 4c
        E 48 b1 0b 44
        E 32 b1 0b 3b
        E 48 b1 0b 33
        E 48 b1 0b 2a
        E 16 81 53 00
        E 0 91 36 2a
        E 16 b1 0b 22
        E 16 81 36 00
        E 0 91 3a 22
        E 32 b1 0b 19
        E 32 81 3a 00
        E 0 91 38 19
        E 16 b1 0b 11
        E 16 b1 0c 60
        E 0 b1 0b 6e
        E 16 b1 0b 5d
        E 16 b1 0b 55
        E 96 b1 0b 4c
        E 16 b1 0b 44
        E 16 b1 0b 6e
        E 0 81 38 00
        E 0 91 3a 6e
        E 16 b1 0b 5d
        E 16 b1 0b 55
        E 96 b1 0b 4c
        E 16 b1 0b 44
        E 16 b1 0b 3b
        E 16 b1 0b 6e
        E 0 81 3a 00
        E 0 91 3c 6e
        E 16 b1 0b 5d
        E 16 b1 0b 55
        E 96 b1 0b 4c
        E 16 b1 0b 44
        E 16 b1 0b 6e
        E 0 81 3c 00
        E 0 91 3a 6e
        E 16 b1 0b 5d
        E 16 b1 0b 55
        E 32 b1 0b 4c
        E 16 b1 0b 6e
        E 0 81 3a 00
        E 0 91 38 6e
        E 16 b1 0b 5d
        E 16 b1 0b 55
        E 32 b1 0b 4c
        E 16 b1 0b 44
        E 16 b1 0b 6e
        E 0 81 38 00
        E 0 91 37 6e
        E 16 b1 0b 5d
        E 16 b1 0b 55
        E 16 81 37 00
        E 16 b1 0c 40
        E 0 b1 0b 7f
        E 0 91 47 7f
        E 16 b1 0b 77
        E 32 b1 0b 7f
        E 0 81 47 00
        E 0 91 44 7f
        E 16 b1 0b 77
        E 48 b1 0c 60
        E 0 b1 0b 5d
        E 0 81 44 00
        E 0 91 39 5d
        E 16 b1 0b 55
        E 32 b1 0b 4c
        E 16 b1 0b 6e
        E 0 81 39 00
        E 0 91 3a 6e
        E 16 b1 0b 5d
        E 16 b1 0b 55
        E 32 b1 0b 4c
        E 16 b1 0b 44
        E 16 b1 0b 6e
        E 0 81 3a 00
        E 0 91 34 6e
        E 16 b1 0b 5d
        E 16 b1 0b 55
        E 96 b1 0b 4c
        E 16 b1 0b 44
        E 16 b1 0b 6e
        E 0 81 34 00
        E 0 91 37 6e
        E 16 b1 0b 5d
        E 16 b1 0b 55
        E 96 b1 0b 4c
        E 16 b1 0b 44
        E 16 b1 0b 3b
        E 16 b1 0b 6e
        E 0 81 37 00
        E 0 91 39 6e
        E 16 b1 0b 5d
        E 16 b1 0b 55
        E 96 b1 0b 4c
        E 16 b1 0b 44
        E 16 b1 0b 6e
        E 0 81 39 00
        E 0 91 3a 6e
        E 16 b1 0b 5d
        E 16 b1 0b 55
        E 96 b1 0b 4c
        E 16 b1 0b 44
        E 16 b1 0b 3b
        E 16 b1 0c 20
        E 0 b1 0b 6e
        E 0 81 3a 00
        E 0 91 39 6e
        E 16 b1 0b 5d
        E 16 b1 0b 55
        E 64 81 39 00
        E 16 b1 0c 40
        E 0 b1 0b 7f
        E 0 91 52 7f
        E 16 b1 0b 6e
        E 16 b1 0b 5d
        E 16 b1 0b 4c
        E 32 b1 0b 7f
        E 0 81 52 00
        E 0 91 54 7f
        E 16 b1 0b 77
        E 32 b1 0b 6e
        E 48 b1 0b 66
        E 48 b1 0b 5d
        E 32 b1 0b 55
        E 48 b1 0b 4c
        E 48 b1 0b 44
        E 32 b1 0b 3b
        E 48 b1 0c 20
        E 0 b1 0b 55
        E 0 81 54 00
        E 0 91 3a 55
        E 48 b1 0b 4c
        E 16 b1 0b 44
        E 16 b1 0b 3b
        E 16 b1 0b 33
        E 16 b1 0b 2a
        E 16 b1 0b 6e
        E 0 81 3a 00
        E 0 91 3c 6e
        E 16 b1 0b 5d
        E 16 b1 0b 55
        E 16 81 3c 00
        E 16 b1 0c 10
        E 0 b1 0b 7f
        E 0 91 44 7f
        E 16 b1 0b 77
        E 16 b1 0b 66
        E 16 b1 0b 77
        E 16 b1 0b 7f
        E 16 b1 0b 77
        E 32 b1 0c 20
        E 0 b1 0b 7f
        E 0 81 44 00
        E 0 91 53 7f
        E 16 b1 0b 77
        E 16 b1 0b 66
        E 16 b1 0b 6e
        E 48 b1 0b 66
        E 48 b1 0b 5d
        E 32 b1 0b 55
        E 48 b1 0b 4c
        E 48 b1 0b 44
        E 32 b1 0b 3b
        E 48 b1 0b 33
        E 48 b1 0b 2a
        E 16 81 53 00
        E 0 91 36 2a
        E 16 b1 0b 22
        E 16 81 36 00
        E 0 91 3a 22
        E 32 b1 0b 19
        E 32 81 3a 00
        E 0 91 38 19
        E 16 b1 0b 11
        E 16 b1 0b 55
        E 0 81 38 00
        E 0 91 39 55
        E 80 81 39 00
        E 16 b1 0c 40
        E 0 b1 0b 7f
        E 0 91 47 7f
        E 48 b1 0b 77
        E 32 b1 0b 7f
        E 0 81 47 00
        E 0 91 44 7f
        E 16 b1 0b 77
        E 48 b1 0c 20
        E 0 b1 0b 3b
        E 0 81 44 00
        E 0 91 39 3b
        E 16 b1 0b 33
        E 16 b1 0b 2a
        E 16 b1 0b 6e
        E 0 81 39 00
        E 0 91 3a 6e
        E 16 b1 0b 5d
        E 16 b1 0b 55
        E 112 81 3a 00
        E 16 b1 0c 10
        E 0 b1 0b 7f
        E 0 91 44 7f
        E 16 b1 0b 77
        E 16 b1 0b 66
        E 16 b1 0b 77
        E 16 b1 0b 7f
        E 16 b1 0b 77
        E 32 b1 0c 20
        E 0 b1 0b 7f
        E 0 81 44 00
        E 0 91 53 7f
        E 16 b1 0b 77
        E 16 b1 0b 66
        E 16 b1 0b 6e
        E 48 b1 0b 66
        E 48 b1 0b 5d
        E 32 b1 0b 55
        E 48 b1 0b 4c
        E 48 b1 0b 44
        E 32 b1 0b 3b
        E 48 b1 0b 33
        E 48 b1 0b 2a
        E 16 81 53 00
        E 0 91 36 2a
        E 16 b1 0b 22
        E 16 81 36 00
        E 0 91 3a 22
        E 32 b1 0b 19
        E 32 81 3a 00
        E 0 91 38 19
        E 16 b1 0b 11
        E 16 b1 0c 40
        E 0 b1 0b 44
        E 0 81 38 00
        E 0 91 43 44
        E 16 b1 0b 6e
        E 16 b1 0b 5d
        E 16 b1 0b 55
        E 64 81 43 00
        E 16 b1 0b 7f
        E 0 91 47 7f
        E 16 b1 0b 77
        E 32 b1 0b 7f
        E 0 81 47 00
        E 0 91 44 7f
        E 16 b1 0b 77
        E 48 81 44 00
        E 64 b1 0c 10
        E 0 b1 0b 7f
        E 0 91 30 7f
        E 16 b1 0b 5d
        E 16 b1 0b 3b
        E 16 b1 0b 55
        E 48 b1 0b 3b
        E 16 b1 0b 44
        E 16 b1 0b 33
        E 16 b1 0b 22
        E 16 b1 0b 19
        E 16 b1 0b 7f
        E 16 b1 0b 5d
        E 16 b1 0b 3b
        E 16 b1 0b 55
        E 48 b1 0b 3b
        E 16 81 30 00
        E 16 b1 0c 40
        E 0 b1 0b 7f
        E 0 91 47 7f
        E 16 b1 0b 77
        E 32 b1 0b 7f
        E 0 81 47 00
        E 0 91 44 7f
        E 16 b1 0b 77
        E 48 b1 0c 10
        E 0 b1 0b 33
        E 0 81 44 00
        E 0 91 30 33
        E 16 b1 0b 22
        E 16 b1 0b 19
        E 16 b1 0b 08
        E 16 81 30 00
        E 48 b1 0c 40
        E 0 b1 0b 7f
        E 0 91 47 7f
        E 16 b1 0b 77
        E 32 b1 0b 7f
        E 0 81 47 00
        E 0 91 44 7f
        E 16 b1 0b 77
        E 48 b1 0c 10
        E 0 b1 0b 33
        E 0 81 44 00
        E 0 91 30 33
        E 16 b1 0b 22
        E 16 b1 0b 7f
        E 16 b1 0b 5d
        E 16 b1 0b 3b
        E 16 b1 0b 55
        E 48 b1 0b 3b
        E 16 b1 0b 55
        E 48 b1 0b 3b
        E 16 b1 0b 55
        E 48 b1 0b 3b
        E 16 b1 0b 55
        E 48 b1 0b 3b
        E 16 b1 0b 55
        E 32 b1 0b 44
        E 16 81 30 00
        E 16 b1 0c 40
        E 0 b1 0b 7f
        E 0 91 47 7f
        E 16 b1 0b 77
        E 32 b1 0b 7f
        E 0 81 47 00
        E 0 91 44 7f
        E 16 b1 0b 77
        E 48 81 44 00
        E 32 b1 0c 10
        E 0 b1 0b 7f
        E 0 91 2e 7f
        E 16 81 2e 00
        E 16 b1 0c 40
        E 0 91 47 7f
        E 16 b1 0b 77
        E 32 b1 0b 7f
        E 0 81 47 00
        E 0 91 44 7f
        E 16 b1 0b 77
        E 48 b1 0c 10
        E 0 b1 0b 19
        E 0 81 44 00
        E 0 91 2e 19
        E 16 b1 0b 7f
        E 16 b1 0b 66
        E 16 b1 0b 55
        E 16 b1 0b 3b
        E 16 b1 0b 2a
        E 16 b1 0b 22
        E 32 b1 0b 19
        E 64 81 2e 00
        E 16 b1 0c 40
        E 0 91 3d 19
        E 16 b1 0b 3b
        E 16 b1 0b 5d
        E 16 b1 0b 7f
        E 32 b1 0c 20
        E 0 b1 0b 19
        E 0 81 3d 00
        E 0 91 47 19
        E 16 b1 0b 3b
        E 16 b1 0b 5d
        E 16 b1 0b 7f
        E 16 b1 0b 66
        E 32 b1 0c 40
        E 0 b1 0b 19
        E 0 81 47 00
        E 0 91 4b 19
        E 16 b1 0b 3b
        E 16 b1 0b 5d
        E 16 b1 0b 7f
        E 16 b1 0b 66
        E 16 b1 0b 55
        E 16 b1 0b 3b
        E 16 b1 0b 2a
        E 16 b1 0b 11
        E 16 81 4b 00
        E 64 b1 0c 10
        E 0 b1 0b 2a
        E 0 91 2e 2a
        E 16 b1 0b 22
        E 32 b1 0b 19
        E 48 b1 0b 7f
        E 16 b1 0b 66
        E 16 b1 0b 55
        E 16 b1 0b 3b
        E 16 b1 0b 2a
        E 16 b1 0b 22
        E 32 b1 0b 19
        E 64 b1 0b 7f
        E 16 b1 0b 66
        E 16 81 2e 00
        E 16 b1 0c 40
        E 0 b1 0b 7f
        E 0 91 47 7f
        E 16 b1 0b 77
        E 32 b1 0b 7f
        E 0 81 47 00
        E 0 91 44 7f
        E 16 b1 0b 77
        E 48 b1 0c 10
        E 0 b1 0b 7f
        E 0 81 44 00
        E 0 91 2e 7f
        E 16 b1 0b 66
        E 16 b1 0b 55
        E 16 b1 0b 3b
        E 16 b1 0b 2a
        E 16 b1 0b 22
        E 16 81 2e 00
        E 16 b1 0c 40
        E 0 b1 0b 7f
        E 0 91 52 7f
        E 16 b1 0b 6e
        E 16 b1 0b 5d
        E 16 b1 0b 4c
        E 32 b1 0b 7f
        E 0 81 52 00
        E 0 91 54 7f
        E 16 b1 0b 77
        E 32 b1 0b 6e
        E 48 b1 0b 66
        E 48 b1 0b 5d
        E 32 b1 0b 55
        E 48 b1 0b 4c
        E 48 b1 0b 44
        E 32 b1 0b 3b
        E 48 b1 0c 10
        E 0 b1 0b 55
        E 0 81 54 00
        E 0 91 2e 55
        E 16 b1 0b 3b
        E 16 b1 0b 2a
        E 16 b1 0b 22
        E 32 b1 0b 19
        E 48 b1 0b 7f
        E 16 b1 0b 66
        E 16 b1 0b 55
        E 16 b1 0b 3b
        E 16 b1 0b 2a
        E 16 b1 0b 22
        E 32 b1 0b 19
        E 64 b1 0b 7f
        E 16 b1 0b 66
        E 16 b1 0b 55
        E 16 b1 0b 3b
        E 16 81 2e 00
        E 16 b1 0c 40
        E 0 b1 0b 7f
        E 0 91 52 7f
        E 16 b1 0b 6e
        E 16 b1 0b 5d
        E 16 b1 0b 4c
        E 32 b1 0b 7f
        E 0 81 52 00
        E 0 91 54 7f
        E 16 b1 0b 77
        E 32 b1 0b 6e
        E 48 b1 0b 66
        E 48 b1 0b 5d
        E 32 b1 0b 55
        E 48 b1 0b 4c
        E 48 b1 0b 44
        E 32 b1 0b 3b
        E 48 b1 0c 10
        E 0 b1 0b 66
        E 0 81 54 00
        E 0 91 2e 66
        E 16 b1 0b 55
        E 16 b1 0b 3b
        E 16 b1 0b 2a
        E 16 81 2e 00
        E 16 b1 0c 40
        E 0 b1 0b 7f
        E 0 91 52 7f
        E 16 b1 0b 6e
        E 16 b1 0b 5d
        E 16 b1 0b 4c
        E 32 b1 0b 7f
        E 0 81 52 00
        E 0 91 54 7f
        E 16 b1 0b 77
        E 32 b1 0b 6e
        E 48 b1 0b 7f
        E 0 81 54 00
        E 0 91 52 7f
        E 16 b1 0b 6e
        E 16 b1 0b 5d
        E 16 b1 0b 4c
        E 32 b1 0b 7f
        E 0 81 52 00
        E 0 91 54 7f
        E 16 b1 0b 77
        E 32 b1 0b 6e
        E 48 b1 0b 66
        E 48 b1 0b 5d
        E 32 b1 0b 55
        E 48 b1 0b 4c
        E 48 b1 0b 44
        E 32 b1 0b 3b
        E 48 b1 0c 10
        E 0 b1 0b 55
        E 0 81 54 00
        E 0 91 32 55
        E 16 b1 0b 3b
        E 16 b1 0b 2a
        E 16 b1 0b 22
        E 32 b1 0b 19
        E 64 b1 0b 7f
        E 16 b1 0b 66
        E 16 b1 0b 55
        E 16 b1 0b 3b
        E 16 b1 0b 2a
        E 16 b1 0b 22
        E 32 b1 0b 19
        E 48 b1 0b 7f
        E 16 b1 0b 66
        E 16 b1 0b 55
        E 16 81 32 00
        E 0 b1 7b 00
        E 0 ff 2f 00
      >
    >
  >
  <TRACK {E6CFAE06-7614-4F5B-B688-C6B2C4F9141B}
    NAME "NES - Triangle [ch2]"
    PEAKCOL 16744192
    BEAT -1
    AUTOMODE 0
    PANLAWFLAGS 3
    VOLPAN 1 0 -1 -1 1
    MUTESOLO 0 0 0
    IPHASE 0
    PLAYOFFS 0 1
    ISBUS 0 0
    BUSCOMP 0 0 0 0 0
    SHOWINMIX 1 0.6667 0.5 1 0.5 0 0 0
    FIXEDLANES 9 0 0 0 0
    SEL 0
    REC 0 5088 1 0 0 0 0 0
    VU 2
    TRACKHEIGHT 0 0 0 0 0 0 0
    INQ 0 0 0 0.5 100 0 0 100
    NCHAN 2
    FX 1
    TRACKID {E6CFAE06-7614-4F5B-B688-C6B2C4F9141B}
    PERF 0
    MIDIOUT -1
    MAINSEND 1 0
    <FXCHAIN
      WNDRECT 24 52 700 560
      SHOW 0
      LASTSEL 0
      DOCKED 0
      BYPASS 0 0 0
      <JS "ReapNES Studio/ReapNES_Console.jsfx" ""
        2 15 1 10 80 10 100 2 1 15 1 5 60 10 80 1 1 0 50 0 0 15 1 0 100 0 0 0.500000 0.500000 0.400000 0.300000 0.800000 2 1 0 0 0 0 - - - - - - - - - - - - - - - - - - - - - - - - - -
      >
      FLOATPOS 0 0 0 0
      FXID {454F68A5-D967-4ADB-8BF6-006109C98D16}
      WAK 0 0
    >
    <ITEM
      POSITION 0
      LENGTH 74.2923817
      LOOP 0
      ALLTAKES 0
      FADEIN 0 0 0 0 0 0 0
      FADEOUT 0 0 0 0 0 0 0
      MUTE 0 0
      SEL 0
      IGUID {61E62E34-B522-43D2-8CF0-C015905F8369}
      <SOURCE MIDI
        HASDATA 1 480 QN
        CCINTERP 32
        E 0 c2 26
        E 0 b2 0b 7f
        E 0 92 1f 7f
        E 112 82 1f 00
        E 384 b2 0b 7f
        E 0 92 26 7f
        E 240 82 26 00
        E 96 b2 0b 7f
        E 0 92 32 7f
        E 128 82 32 00
        E 48 b2 0b 7f
        E 0 92 2d 7f
        E 112 82 2d 00
        E 48 b2 0b 7f
        E 0 92 2e 7f
        E 128 82 2e 00
        E 48 b2 0b 7f
        E 0 92 1f 7f
        E 112 82 1f 00
        E 384 b2 0b 7f
        E 0 92 26 7f
        E 240 82 26 00
        E 96 b2 0b 7f
        E 0 92 32 7f
        E 128 82 32 00
        E 48 b2 0b 7f
        E 0 92 2d 7f
        E 112 82 2d 00
        E 48 b2 0b 7f
        E 0 92 2e 7f
        E 128 82 2e 00
        E 48 b2 0b 7f
        E 0 92 1f 7f
        E 112 82 1f 00
        E 384 b2 0b 7f
        E 0 92 26 7f
        E 240 82 26 00
        E 96 b2 0b 7f
        E 0 92 32 7f
        E 128 82 32 00
        E 48 b2 0b 7f
        E 0 92 2d 7f
        E 112 82 2d 00
        E 48 b2 0b 7f
        E 0 92 2e 7f
        E 128 82 2e 00
        E 48 b2 0b 7f
        E 0 92 22 7f
        E 112 82 22 00
        E 384 b2 0b 7f
        E 0 92 26 7f
        E 240 82 26 00
        E 96 b2 0b 7f
        E 0 92 32 7f
        E 128 82 32 00
        E 48 b2 0b 7f
        E 0 92 2d 7f
        E 112 82 2d 00
        E 48 b2 0b 7f
        E 0 92 2e 7f
        E 128 82 2e 00
        E 48 b2 0b 7f
        E 0 92 24 7f
        E 112 82 24 00
        E 384 b2 0b 7f
        E 0 92 1f 7f
        E 496 82 1f 00
        E 176 b2 0b 7f
        E 0 92 1f 7f
        E 128 82 1f 00
        E 48 b2 0b 7f
        E 0 92 1d 7f
        E 112 82 1d 00
        E 384 b2 0b 7f
        E 0 92 1e 7f
        E 240 82 1e 00
        E 96 b2 0b 7f
        E 0 92 2d 7f
        E 128 82 2d 00
        E 48 b2 0b 7f
        E 0 92 32 7f
        E 128 82 32 00
        E 32 b2 0b 7f
        E 0 92 36 7f
        E 128 82 36 00
        E 48 b2 0b 7f
        E 0 92 1f 7f
        E 128 82 1f 00
        E 368 b2 0b 7f
        E 0 92 26 7f
        E 240 82 26 00
        E 96 b2 0b 7f
        E 0 92 32 7f
        E 128 82 32 00
        E 48 b2 0b 7f
        E 0 92 2d 7f
        E 128 82 2d 00
        E 32 b2 0b 7f
        E 0 92 2e 7f
        E 128 82 2e 00
        E 48 b2 0b 7f
        E 0 92 22 7f
        E 128 82 22 00
        E 368 b2 0b 7f
        E 0 92 26 7f
        E 240 82 26 00
        E 96 b2 0b 7f
        E 0 92 32 7f
        E 128 82 32 00
        E 48 b2 0b 7f
        E 0 92 2d 7f
        E 128 82 2d 00
        E 32 b2 0b 7f
        E 0 92 2e 7f
        E 128 82 2e 00
        E 48 b2 0b 7f
        E 0 92 24 7f
        E 128 82 24 00
        E 368 b2 0b 7f
        E 0 92 2b 7f
        E 496 82 2b 00
        E 176 b2 0b 7f
        E 0 92 27 7f
        E 128 82 27 00
        E 48 b2 0b 7f
        E 0 92 29 7f
        E 128 82 29 00
        E 368 b2 0b 7f
        E 0 92 29 7f
        E 128 82 29 00
        E 48 b2 0b 7f
        E 0 92 29 7f
        E 128 82 29 00
        E 32 b2 0b 7f
        E 0 92 29 7f
        E 128 82 29 00
        E 48 b2 0b 7f
        E 0 92 29 7f
        E 128 82 29 00
        E 32 b2 0b 7f
        E 0 92 29 7f
        E 128 82 29 00
        E 48 b2 0b 7f
        E 0 92 22 7f
        E 128 82 22 00
        E 32 b2 0b 7f
        E 0 92 22 7f
        E 128 82 22 00
        E 48 b2 0b 7f
        E 0 92 22 7f
        E 128 82 22 00
        E 32 b2 0b 7f
        E 0 92 22 7f
        E 128 82 22 00
        E 48 b2 0b 7f
        E 0 92 22 7f
        E 128 82 22 00
        E 32 b2 0b 7f
        E 0 92 22 7f
        E 128 82 22 00
        E 48 b2 0b 7f
        E 0 92 22 7f
        E 128 82 22 00
        E 32 b2 0b 7f
        E 0 92 22 7f
        E 128 82 22 00
        E 48 b2 0b 7f
        E 0 92 22 7f
        E 128 82 22 00
        E 32 b2 0b 7f
        E 0 92 22 7f
        E 128 82 22 00
        E 48 b2 0b 7f
        E 0 92 22 7f
        E 128 82 22 00
        E 32 b2 0b 7f
        E 0 92 22 7f
        E 128 82 22 00
        E 48 b2 0b 7f
        E 0 92 22 7f
        E 128 82 22 00
        E 32 b2 0b 7f
        E 0 92 22 7f
        E 128 82 22 00
        E 48 b2 0b 7f
        E 0 92 22 7f
        E 128 82 22 00
        E 32 b2 0b 7f
        E 0 92 22 7f
        E 128 82 22 00
        E 48 b2 0b 7f
        E 0 92 29 7f
        E 128 82 29 00
        E 32 b2 0b 7f
        E 0 92 29 7f
        E 128 82 29 00
        E 208 b2 0b 7f
        E 0 92 29 7f
        E 128 82 29 00
        E 48 b2 0b 7f
        E 0 92 29 7f
        E 128 82 29 00
        E 32 b2 0b 7f
        E 0 92 29 7f
        E 128 82 29 00
        E 48 b2 0b 7f
        E 0 92 29 7f
        E 128 82 29 00
        E 32 b2 0b 7f
        E 0 92 29 7f
        E 544 82 29 00
        E 128 b2 0b 7f
        E 0 92 1f 7f
        E 128 82 1f 00
        E 48 b2 0b 7f
        E 0 92 21 7f
        E 128 82 21 00
        E 32 b2 0b 7f
        E 0 92 23 7f
        E 368 82 23 00
        E 144 b2 0b 7f
        E 0 92 24 7f
        E 128 82 24 00
        E 32 b2 0b 7f
        E 0 92 30 7f
        E 64 82 30 00
        E 112 b2 0b 7f
        E 0 92 24 7f
        E 128 82 24 00
        E 32 b2 0b 7f
        E 0 92 30 7f
        E 64 82 30 00
        E 112 b2 0b 7f
        E 0 92 24 7f
        E 128 82 24 00
        E 32 b2 0b 7f
        E 0 92 30 7f
        E 64 82 30 00
        E 112 b2 0b 7f
        E 0 92 24 7f
        E 128 82 24 00
        E 32 b2 0b 7f
        E 0 92 30 7f
        E 64 82 30 00
        E 112 b2 0b 7f
        E 0 92 24 7f
        E 128 82 24 00
        E 32 b2 0b 7f
        E 0 92 30 7f
        E 64 82 30 00
        E 112 b2 0b 7f
        E 0 92 24 7f
        E 128 82 24 00
        E 32 b2 0b 7f
        E 0 92 30 7f
        E 64 82 30 00
        E 112 b2 0b 7f
        E 0 92 24 7f
        E 128 82 24 00
        E 32 b2 0b 7f
        E 0 92 30 7f
        E 64 82 30 00
        E 112 b2 0b 7f
        E 0 92 24 7f
        E 128 82 24 00
        E 32 b2 0b 7f
        E 0 92 30 7f
        E 64 82 30 00
        E 112 b2 0b 7f
        E 0 92 24 7f
        E 128 82 24 00
        E 32 b2 0b 7f
        E 0 92 30 7f
        E 64 82 30 00
        E 112 b2 0b 7f
        E 0 92 24 7f
        E 128 82 24 00
        E 32 b2 0b 7f
        E 0 92 30 7f
        E 64 82 30 00
        E 112 b2 0b 7f
        E 0 92 24 7f
        E 128 82 24 00
        E 32 b2 0b 7f
        E 0 92 30 7f
        E 64 82 30 00
        E 112 b2 0b 7f
        E 0 92 24 7f
        E 128 82 24 00
        E 32 b2 0b 7f
        E 0 92 30 7f
        E 64 82 30 00
        E 112 b2 0b 7f
        E 0 92 24 7f
        E 128 82 24 00
        E 32 b2 0b 7f
        E 0 92 30 7f
        E 64 82 30 00
        E 112 b2 0b 7f
        E 0 92 24 7f
        E 128 82 24 00
        E 32 b2 0b 7f
        E 0 92 30 7f
        E 64 82 30 00
        E 112 b2 0b 7f
        E 0 92 24 7f
        E 128 82 24 00
        E 32 b2 0b 7f
        E 0 92 24 7f
        E 128 82 24 00
        E 48 b2 0b 7f
        E 0 92 26 7f
        E 128 82 26 00
        E 32 b2 0b 7f
        E 0 92 27 7f
        E 128 82 27 00
        E 48 b2 0b 7f
        E 0 92 29 7f
        E 128 82 29 00
        E 32 b2 0b 7f
        E 0 92 29 7f
        E 128 82 29 00
        E 208 b2 0b 7f
        E 0 92 29 7f
        E 128 82 29 00
        E 48 b2 0b 7f
        E 0 92 29 7f
        E 128 82 29 00
        E 32 b2 0b 7f
        E 0 92 29 7f
        E 128 82 29 00
        E 48 b2 0b 7f
        E 0 92 2b 7f
        E 128 82 2b 00
        E 32 b2 0b 7f
        E 0 92 2c 7f
        E 128 82 2c 00
        E 48 b2 0b 7f
        E 0 92 2c 7f
        E 128 82 2c 00
        E 32 b2 0b 7f
        E 0 92 2c 7f
        E 128 82 2c 00
        E 48 b2 0b 7f
        E 0 92 2c 7f
        E 128 82 2c 00
        E 32 b2 0b 7f
        E 0 92 2c 7f
        E 128 82 2c 00
        E 48 b2 0b 7f
        E 0 92 2c 7f
        E 128 82 2c 00
        E 32 b2 0b 7f
        E 0 92 2c 7f
        E 128 82 2c 00
        E 48 b2 0b 7f
        E 0 92 2c 7f
        E 128 82 2c 00
        E 32 b2 0b 7f
        E 0 92 2c 7f
        E 128 82 2c 00
        E 48 b2 0b 7f
        E 0 92 2e 7f
        E 128 82 2e 00
        E 32 b2 0b 7f
        E 0 92 2e 7f
        E 128 82 2e 00
        E 48 b2 0b 7f
        E 0 92 2e 7f
        E 128 82 2e 00
        E 32 b2 0b 7f
        E 0 92 2e 7f
        E 128 82 2e 00
        E 48 b2 0b 7f
        E 0 92 2e 7f
        E 128 82 2e 00
        E 32 b2 0b 7f
        E 0 92 2e 7f
        E 128 82 2e 00
        E 48 b2 0b 7f
        E 0 92 2e 7f
        E 128 82 2e 00
        E 32 b2 0b 7f
        E 0 92 2e 7f
        E 128 82 2e 00
        E 48 b2 0b 7f
        E 0 92 2e 7f
        E 128 82 2e 00
        E 208 b2 0b 7f
        E 0 92 22 7f
        E 240 82 22 00
        E 96 b2 0b 7f
        E 0 92 24 7f
        E 128 82 24 00
        E 32 b2 0b 7f
        E 0 92 26 7f
        E 384 82 26 00
        E 128 b2 0b 7f
        E 0 92 27 7f
        E 128 82 27 00
        E 32 b2 0b 7f
        E 0 92 33 7f
        E 64 82 33 00
        E 112 b2 0b 7f
        E 0 92 27 7f
        E 128 82 27 00
        E 32 b2 0b 7f
        E 0 92 33 7f
        E 64 82 33 00
        E 112 b2 0b 7f
        E 0 92 27 7f
        E 128 82 27 00
        E 32 b2 0b 7f
        E 0 92 33 7f
        E 64 82 33 00
        E 112 b2 0b 7f
        E 0 92 27 7f
        E 128 82 27 00
        E 32 b2 0b 7f
        E 0 92 33 7f
        E 64 82 33 00
        E 112 b2 0b 7f
        E 0 92 27 7f
        E 128 82 27 00
        E 32 b2 0b 7f
        E 0 92 33 7f
        E 64 82 33 00
        E 112 b2 0b 7f
        E 0 92 27 7f
        E 128 82 27 00
        E 32 b2 0b 7f
        E 0 92 33 7f
        E 64 82 33 00
        E 112 b2 0b 7f
        E 0 92 27 7f
        E 128 82 27 00
        E 48 b2 0b 7f
        E 0 92 33 7f
        E 48 82 33 00
        E 112 b2 0b 7f
        E 0 92 27 7f
        E 128 82 27 00
        E 48 b2 0b 7f
        E 0 92 33 7f
        E 48 82 33 00
        E 112 b2 0b 7f
        E 0 92 27 7f
        E 128 82 27 00
        E 48 b2 0b 7f
        E 0 92 33 7f
        E 48 82 33 00
        E 112 b2 0b 7f
        E 0 92 27 7f
        E 128 82 27 00
        E 48 b2 0b 7f
        E 0 92 33 7f
        E 48 82 33 00
        E 112 b2 0b 7f
        E 0 92 27 7f
        E 128 82 27 00
        E 48 b2 0b 7f
        E 0 92 33 7f
        E 48 82 33 00
        E 112 b2 0b 7f
        E 0 92 27 7f
        E 128 82 27 00
        E 48 b2 0b 7f
        E 0 92 33 7f
        E 48 82 33 00
        E 112 b2 0b 7f
        E 0 92 27 7f
        E 128 82 27 00
        E 48 b2 0b 7f
        E 0 92 33 7f
        E 48 82 33 00
        E 112 b2 0b 7f
        E 0 92 27 7f
        E 128 82 27 00
        E 48 b2 0b 7f
        E 0 92 33 7f
        E 48 82 33 00
        E 112 b2 0b 7f
        E 0 92 27 7f
        E 128 82 27 00
        E 48 b2 0b 7f
        E 0 92 27 7f
        E 112 82 27 00
        E 48 b2 0b 7f
        E 0 92 29 7f
        E 128 82 29 00
        E 48 b2 0b 7f
        E 0 92 2a 7f
        E 112 82 2a 00
        E 48 b2 0b 7f
        E 0 92 2c 7f
        E 128 82 2c 00
        E 48 b2 0b 7f
        E 0 92 2c 7f
        E 112 82 2c 00
        E 224 b2 0b 7f
        E 0 92 2c 7f
        E 112 82 2c 00
        E 48 b2 0b 7f
        E 0 92 2c 7f
        E 128 82 2c 00
        E 48 b2 0b 7f
        E 0 92 2c 7f
        E 112 82 2c 00
        E 48 b2 0b 7f
        E 0 92 2e 7f
        E 128 82 2e 00
        E 48 b2 0b 7f
        E 0 92 2f 7f
        E 112 82 2f 00
        E 48 b2 0b 7f
        E 0 92 2f 7f
        E 128 82 2f 00
        E 48 b2 0b 7f
        E 0 92 2f 7f
        E 112 82 2f 00
        E 48 b2 0b 7f
        E 0 92 2f 7f
        E 128 82 2f 00
        E 48 b2 0b 7f
        E 0 92 2f 7f
        E 112 82 2f 00
        E 48 b2 0b 7f
        E 0 92 2f 7f
        E 128 82 2f 00
        E 48 b2 0b 7f
        E 0 92 2f 7f
        E 112 82 2f 00
        E 48 b2 0b 7f
        E 0 92 2f 7f
        E 128 82 2f 00
        E 48 b2 0b 7f
        E 0 92 2f 7f
        E 112 82 2f 00
        E 48 b2 0b 7f
        E 0 92 31 7f
        E 128 82 31 00
        E 48 b2 0b 7f
        E 0 92 31 7f
        E 112 82 31 00
        E 48 b2 0b 7f
        E 0 92 31 7f
        E 128 82 31 00
        E 48 b2 0b 7f
        E 0 92 31 7f
        E 112 82 31 00
        E 48 b2 0b 7f
        E 0 92 31 7f
        E 128 82 31 00
        E 48 b2 0b 7f
        E 0 92 31 7f
        E 112 82 31 00
        E 48 b2 0b 7f
        E 0 92 31 7f
        E 128 82 31 00
        E 48 b2 0b 7f
        E 0 92 31 7f
        E 112 82 31 00
        E 48 b2 0b 7f
        E 0 92 31 7f
        E 128 82 31 00
        E 208 b2 0b 7f
        E 0 92 25 7f
        E 240 82 25 00
        E 96 b2 0b 7f
        E 0 92 27 7f
        E 128 82 27 00
        E 48 b2 0b 7f
        E 0 92 29 7f
        E 368 82 29 00
        E 128 b2 0b 7f
        E 0 92 2a 7f
        E 128 82 2a 00
        E 48 b2 0b 7f
        E 0 92 36 7f
        E 64 82 36 00
        E 96 b2 0b 7f
        E 0 92 2a 7f
        E 128 82 2a 00
        E 48 b2 0b 7f
        E 0 92 36 7f
        E 64 82 36 00
        E 96 b2 0b 7f
        E 0 92 2a 7f
        E 128 82 2a 00
        E 48 b2 0b 7f
        E 0 92 36 7f
        E 64 82 36 00
        E 96 b2 0b 7f
        E 0 92 2a 7f
        E 128 82 2a 00
        E 48 b2 0b 7f
        E 0 92 36 7f
        E 64 82 36 00
        E 96 b2 0b 7f
        E 0 92 2a 7f
        E 128 82 2a 00
        E 48 b2 0b 7f
        E 0 92 36 7f
        E 64 82 36 00
        E 96 b2 0b 7f
        E 0 92 2a 7f
        E 128 82 2a 00
        E 48 b2 0b 7f
        E 0 92 36 7f
        E 64 82 36 00
        E 96 b2 0b 7f
        E 0 92 2a 7f
        E 128 82 2a 00
        E 48 b2 0b 7f
        E 0 92 36 7f
        E 64 82 36 00
        E 96 b2 0b 7f
        E 0 92 2a 7f
        E 128 82 2a 00
        E 48 b2 0b 7f
        E 0 92 36 7f
        E 64 82 36 00
        E 96 b2 0b 7f
        E 0 92 2a 7f
        E 128 82 2a 00
        E 48 b2 0b 7f
        E 0 92 36 7f
        E 64 82 36 00
        E 96 b2 0b 7f
        E 0 92 2a 7f
        E 128 82 2a 00
        E 48 b2 0b 7f
        E 0 92 36 7f
        E 64 82 36 00
        E 96 b2 0b 7f
        E 0 92 2a 7f
        E 128 82 2a 00
        E 48 b2 0b 7f
        E 0 92 36 7f
        E 64 82 36 00
        E 96 b2 0b 7f
        E 0 92 2a 7f
        E 128 82 2a 00
        E 48 b2 0b 7f
        E 0 92 36 7f
        E 64 82 36 00
        E 96 b2 0b 7f
        E 0 92 2a 7f
        E 128 82 2a 00
        E 48 b2 0b 7f
        E 0 92 36 7f
        E 64 82 36 00
        E 96 b2 0b 7f
        E 0 92 2a 7f
        E 128 82 2a 00
        E 48 b2 0b 7f
        E 0 92 36 7f
        E 64 82 36 00
        E 96 b2 0b 7f
        E 0 92 2a 7f
        E 128 82 2a 00
        E 48 b2 0b 7f
        E 0 92 2a 7f
        E 128 82 2a 00
        E 32 b2 0b 7f
        E 0 92 2c 7f
        E 128 82 2c 00
        E 48 b2 0b 7f
        E 0 92 2d 7f
        E 128 82 2d 00
        E 32 b2 0b 7f
        E 0 92 2a 7f
        E 256 82 2a 00
        E 1264 b2 0b 7f
        E 0 92 2a 7f
        E 128 82 2a 00
        E 48 b2 0b 7f
        E 0 92 2a 7f
        E 240 82 2a 00
        E 96 b2 0b 7f
        E 0 92 2a 7f
        E 112 82 2a 00
        E 48 b2 0b 7f
        E 0 92 2a 7f
        E 368 82 2a 00
        E 144 b2 0b 7f
        E 0 92 1f 7f
        E 112 82 1f 00
        E 384 b2 0b 7f
        E 0 92 26 7f
        E 240 82 26 00
        E 96 b2 0b 7f
        E 0 92 32 7f
        E 128 82 32 00
        E 48 b2 0b 7f
        E 0 92 2d 7f
        E 112 82 2d 00
        E 48 b2 0b 7f
        E 0 92 2e 7f
        E 128 82 2e 00
        E 48 b2 0b 7f
        E 0 92 1f 7f
        E 112 82 1f 00
        E 384 b2 0b 7f
        E 0 92 26 7f
        E 240 82 26 00
        E 96 b2 0b 7f
        E 0 92 32 7f
        E 128 82 32 00
        E 48 b2 0b 7f
        E 0 92 2d 7f
        E 112 82 2d 00
        E 48 b2 0b 7f
        E 0 92 2e 7f
        E 128 82 2e 00
        E 48 b2 0b 7f
        E 0 92 1f 7f
        E 112 82 1f 00
        E 384 b2 0b 7f
        E 0 92 26 7f
        E 240 82 26 00
        E 96 b2 0b 7f
        E 0 92 32 7f
        E 128 82 32 00
        E 48 b2 0b 7f
        E 0 92 2d 7f
        E 112 82 2d 00
        E 48 b2 0b 7f
        E 0 92 2e 7f
        E 128 82 2e 00
        E 48 b2 0b 7f
        E 0 92 22 7f
        E 112 82 22 00
        E 384 b2 0b 7f
        E 0 92 26 7f
        E 240 82 26 00
        E 96 b2 0b 7f
        E 0 92 32 7f
        E 128 82 32 00
        E 48 b2 0b 7f
        E 0 92 2d 7f
        E 112 82 2d 00
        E 48 b2 0b 7f
        E 0 92 2e 7f
        E 128 82 2e 00
        E 48 b2 0b 7f
        E 0 92 24 7f
        E 112 82 24 00
        E 384 b2 0b 7f
        E 0 92 1f 7f
        E 496 82 1f 00
        E 176 b2 0b 7f
        E 0 92 1f 7f
        E 128 82 1f 00
        E 48 b2 0b 7f
        E 0 92 1d 7f
        E 112 82 1d 00
        E 384 b2 0b 7f
        E 0 92 1e 7f
        E 240 82 1e 00
        E 96 b2 0b 7f
        E 0 92 2d 7f
        E 128 82 2d 00
        E 48 b2 0b 7f
        E 0 92 32 7f
        E 128 82 32 00
        E 32 b2 0b 7f
        E 0 92 36 7f
        E 128 82 36 00
        E 48 b2 0b 7f
        E 0 92 1f 7f
        E 128 82 1f 00
        E 368 b2 0b 7f
        E 0 92 26 7f
        E 240 82 26 00
        E 96 b2 0b 7f
        E 0 92 32 7f
        E 128 82 32 00
        E 48 b2 0b 7f
        E 0 92 2d 7f
        E 128 82 2d 00
        E 32 b2 0b 7f
        E 0 92 2e 7f
        E 128 82 2e 00
        E 48 b2 0b 7f
        E 0 92 22 7f
        E 128 82 22 00
        E 368 b2 0b 7f
        E 0 92 26 7f
        E 240 82 26 00
        E 96 b2 0b 7f
        E 0 92 32 7f
        E 128 82 32 00
        E 48 b2 0b 7f
        E 0 92 2d 7f
        E 128 82 2d 00
        E 32 b2 0b 7f
        E 0 92 2e 7f
        E 128 82 2e 00
        E 48 b2 0b 7f
        E 0 92 24 7f
        E 128 82 24 00
        E 368 b2 0b 7f
        E 0 92 2b 7f
        E 496 82 2b 00
        E 176 b2 0b 7f
        E 0 92 27 7f
        E 128 82 27 00
        E 48 b2 0b 7f
        E 0 92 29 7f
        E 128 82 29 00
        E 368 b2 0b 7f
        E 0 92 29 7f
        E 128 82 29 00
        E 48 b2 0b 7f
        E 0 92 29 7f
        E 128 82 29 00
        E 32 b2 0b 7f
        E 0 92 29 7f
        E 128 82 29 00
        E 48 b2 0b 7f
        E 0 92 29 7f
        E 128 82 29 00
        E 32 b2 0b 7f
        E 0 92 29 7f
        E 128 82 29 00
        E 48 b2 0b 7f
        E 0 92 22 7f
        E 128 82 22 00
        E 32 b2 0b 7f
        E 0 92 22 7f
        E 128 82 22 00
        E 48 b2 0b 7f
        E 0 92 22 7f
        E 128 82 22 00
        E 32 b2 0b 7f
        E 0 92 22 7f
        E 128 82 22 00
        E 48 b2 0b 7f
        E 0 92 22 7f
        E 128 82 22 00
        E 32 b2 0b 7f
        E 0 92 22 7f
        E 128 82 22 00
        E 48 b2 0b 7f
        E 0 92 22 7f
        E 128 82 22 00
        E 32 b2 0b 7f
        E 0 92 22 7f
        E 128 82 22 00
        E 48 b2 0b 7f
        E 0 92 22 7f
        E 128 82 22 00
        E 32 b2 0b 7f
        E 0 92 22 7f
        E 128 82 22 00
        E 16 b2 0b 7f
        E 0 92 29 7f
        E 128 82 29 00
        E 48 b2 0b 7f
        E 0 92 30 7f
        E 128 82 30 00
        E 48 b2 0b 7f
        E 0 92 27 7f
        E 128 82 27 00
        E 32 b2 0b 7f
        E 0 92 2e 7f
        E 128 82 2e 00
        E 48 b2 0b 7f
        E 0 92 29 7f
        E 128 82 29 00
        E 32 b2 0b 7f
        E 0 92 30 7f
        E 128 82 30 00
        E 48 b2 0b 7f
        E 0 92 27 7f
        E 128 82 27 00
        E 32 b2 0b 7f
        E 0 92 2e 7f
        E 128 82 2e 00
        E 48 b2 0b 7f
        E 0 92 29 7f
        E 128 82 29 00
        E 32 b2 0b 7f
        E 0 92 30 7f
        E 128 82 30 00
        E 48 b2 0b 7f
        E 0 92 27 7f
        E 128 82 27 00
        E 32 b2 0b 7f
        E 0 92 2e 7f
        E 128 82 2e 00
        E 48 b2 0b 7f
        E 0 92 29 7f
        E 128 82 29 00
        E 32 b2 0b 7f
        E 0 92 30 7f
        E 128 82 30 00
        E 48 b2 0b 7f
        E 0 92 41 7f
        E 128 82 41 00
        E 32 b2 0b 7f
        E 0 92 41 7f
        E 128 82 41 00
        E 48 b2 0b 7f
        E 0 92 2c 7f
        E 128 82 2c 00
        E 32 b2 0b 7f
        E 0 92 33 7f
        E 128 82 33 00
        E 48 b2 0b 7f
        E 0 92 2a 7f
        E 128 82 2a 00
        E 32 b2 0b 7f
        E 0 92 31 7f
        E 128 82 31 00
        E 48 b2 0b 7f
        E 0 92 2c 7f
        E 128 82 2c 00
        E 32 b2 0b 7f
        E 0 92 33 7f
        E 128 82 33 00
        E 48 b2 0b 7f
        E 0 92 2a 7f
        E 128 82 2a 00
        E 32 b2 0b 7f
        E 0 92 31 7f
        E 128 82 31 00
        E 48 b2 0b 7f
        E 0 92 2c 7f
        E 128 82 2c 00
        E 32 b2 0b 7f
        E 0 92 33 7f
        E 128 82 33 00
        E 48 b2 0b 7f
        E 0 92 2b 7f
        E 128 82 2b 00
        E 32 b2 0b 7f
        E 0 92 32 7f
        E 128 82 32 00
        E 48 b2 0b 7f
        E 0 92 30 7f
        E 128 82 30 00
        E 32 b2 0b 7f
        E 0 92 2e 7f
        E 128 82 2e 00
        E 48 b2 0b 7f
        E 0 92 2d 7f
        E 128 82 2d 00
        E 32 b2 0b 7f
        E 0 92 2b 7f
        E 128 82 2b 00
        E 48 b2 0b 7f
        E 0 92 29 7f
        E 128 82 29 00
        E 32 b2 0b 7f
        E 0 92 30 7f
        E 128 82 30 00
        E 48 b2 0b 7f
        E 0 92 27 7f
        E 128 82 27 00
        E 32 b2 0b 7f
        E 0 92 2e 7f
        E 128 82 2e 00
        E 48 b2 0b 7f
        E 0 92 29 7f
        E 128 82 29 00
        E 32 b2 0b 7f
        E 0 92 30 7f
        E 128 82 30 00
        E 48 b2 0b 7f
        E 0 92 27 7f
        E 128 82 27 00
        E 32 b2 0b 7f
        E 0 92 2e 7f
        E 128 82 2e 00
        E 48 b2 0b 7f
        E 0 92 29 7f
        E 128 82 29 00
        E 32 b2 0b 7f
        E 0 92 30 7f
        E 128 82 30 00
        E 48 b2 0b 7f
        E 0 92 27 7f
        E 128 82 27 00
        E 32 b2 0b 7f
        E 0 92 2e 7f
        E 128 82 2e 00
        E 48 b2 0b 7f
        E 0 92 29 7f
        E 128 82 29 00
        E 32 b2 0b 7f
        E 0 92 30 7f
        E 128 82 30 00
        E 48 b2 0b 7f
        E 0 92 41 7f
        E 128 82 41 00
        E 32 b2 0b 7f
        E 0 92 41 7f
        E 96 82 41 00
        E 192 b2 0b 7f
        E 0 92 2a 7f
        E 128 82 2a 00
        E 48 b2 0b 7f
        E 0 92 2a 7f
        E 240 82 2a 00
        E 96 b2 0b 7f
        E 0 92 2a 7f
        E 112 82 2a 00
        E 48 b2 0b 7f
        E 0 92 2a 7f
        E 368 82 2a 00
        E 144 b2 0b 7f
        E 0 92 1f 7f
        E 112 82 1f 00
        E 384 b2 0b 7f
        E 0 92 26 7f
        E 240 82 26 00
        E 96 b2 0b 7f
        E 0 92 32 7f
        E 128 82 32 00
        E 48 b2 0b 7f
        E 0 92 2d 7f
        E 112 82 2d 00
        E 48 b2 0b 7f
        E 0 92 2e 7f
        E 128 82 2e 00
        E 48 b2 0b 7f
        E 0 92 1f 7f
        E 112 82 1f 00
        E 384 b2 0b 7f
        E 0 92 26 7f
        E 240 82 26 00
        E 96 b2 0b 7f
        E 0 92 32 7f
        E 128 82 32 00
        E 48 b2 0b 7f
        E 0 92 2d 7f
        E 112 82 2d 00
        E 48 b2 0b 7f
        E 0 92 2e 7f
        E 128 82 2e 00
        E 48 b2 0b 7f
        E 0 92 1f 7f
        E 112 82 1f 00
        E 384 b2 0b 7f
        E 0 92 26 7f
        E 240 82 26 00
        E 96 b2 0b 7f
        E 0 92 32 7f
        E 48 82 32 00
        E 0 b2 7b 00
        E 0 ff 2f 00
      >
    >
  >
  <TRACK {0207E901-345D-40A9-BE21-A1992A5EC2A8}
    NAME "NES - Noise / Drums [ch3]"
    PEAKCOL 11184810
    BEAT -1
    AUTOMODE 0
    PANLAWFLAGS 3
    VOLPAN 1 0 -1 -1 1
    MUTESOLO 0 0 0
    IPHASE 0
    PLAYOFFS 0 1
    ISBUS 0 0
    BUSCOMP 0 0 0 0 0
    SHOWINMIX 1 0.6667 0.5 1 0.5 0 0 0
    FIXEDLANES 9 0 0 0 0
    SEL 0
    REC 0 5088 1 0 0 0 0 0
    VU 2
    TRACKHEIGHT 0 0 0 0 0 0 0
    INQ 0 0 0 0.5 100 0 0 100
    NCHAN 2
    FX 1
    TRACKID {0207E901-345D-40A9-BE21-A1992A5EC2A8}
    PERF 0
    MIDIOUT -1
    MAINSEND 1 0
    <FXCHAIN
      WNDRECT 24 52 700 560
      SHOW 0
      LASTSEL 0
      DOCKED 0
      BYPASS 0 0 0
      <JS "ReapNES Studio/ReapNES_Console.jsfx" ""
        2 15 1 10 80 10 100 2 1 15 1 5 60 10 80 1 1 0 50 0 0 15 1 0 100 0 0 0.500000 0.500000 0.400000 0.300000 0.800000 3 1 0 0 0 0 - - - - - - - - - - - - - - - - - - - - - - - - - -
      >
      FLOATPOS 0 0 0 0
      FXID {C386EA77-66A7-43C9-8C69-B26E43EF0DE8}
      WAK 0 0
    >
    <ITEM
      POSITION 0
      LENGTH 74.2923817
      LOOP 0
      ALLTAKES 0
      FADEIN 0 0 0 0 0 0 0
      FADEOUT 0 0 0 0 0 0 0
      MUTE 0 0
      SEL 0
      IGUID {D14F42DD-F0DB-4FF3-9B22-08675E151142}
      <SOURCE MIDI
        HASDATA 1 480 QN
        CCINTERP 32
        E 0 93 2a 6e
        E 96 83 2a 00
        E 240 93 2a 6e
        E 96 83 2a 00
        E 64 93 2a 6e
        E 96 83 2a 00
        E 240 93 2a 6e
        E 96 83 2a 00
        E 80 93 2a 6e
        E 96 83 2a 00
        E 240 93 2a 6e
        E 96 83 2a 00
        E 64 93 2a 6e
        E 96 83 2a 00
        E 80 93 2a 6e
        E 96 83 2a 00
        E 64 93 2a 6e
        E 96 83 2a 00
        E 240 93 2a 6e
        E 96 83 2a 00
        E 80 93 2a 6e
        E 96 83 2a 00
        E 240 93 2a 6e
        E 96 83 2a 00
        E 240 93 2a 6e
        E 16 83 2a 00
        E 144 93 2a 6e
        E 96 83 2a 00
        E 240 93 2a 6e
        E 96 83 2a 00
        E 80 93 2a 6e
        E 16 83 2a 00
        E 320 93 2a 6e
        E 96 83 2a 00
        E 240 93 2a 6e
        E 16 83 2a 00
        E 144 93 2a 6e
        E 96 83 2a 00
        E 240 93 2a 6e
        E 96 83 2a 00
        E 80 93 2a 6e
        E 16 83 2a 00
        E 320 93 2a 6e
        E 96 83 2a 00
        E 240 93 2a 6e
        E 16 83 2a 00
        E 144 93 2a 6e
        E 96 83 2a 00
        E 240 93 2a 6e
        E 96 83 2a 00
        E 80 93 2a 6e
        E 16 83 2a 00
        E 320 93 2a 6e
        E 96 83 2a 00
        E 240 93 2a 6e
        E 16 83 2a 00
        E 144 93 2a 6e
        E 96 83 2a 00
        E 240 93 2a 6e
        E 96 83 2a 00
        E 80 93 2a 6e
        E 16 83 2a 00
        E 320 93 2a 6e
        E 96 83 2a 00
        E 240 93 2a 6e
        E 16 83 2a 00
        E 144 93 2a 6e
        E 96 83 2a 00
        E 240 93 2a 6e
        E 96 83 2a 00
        E 80 93 2a 6e
        E 16 83 2a 00
        E 320 93 2a 6e
        E 96 83 2a 00
        E 240 93 2a 6e
        E 16 83 2a 00
        E 144 93 2a 6e
        E 96 83 2a 00
        E 240 93 2a 6e
        E 96 83 2a 00
        E 80 93 2a 6e
        E 16 83 2a 00
        E 320 93 2a 6e
        E 96 83 2a 00
        E 240 93 2a 6e
        E 16 83 2a 00
        E 144 93 2a 6e
        E 96 83 2a 00
        E 240 93 2a 6e
        E 96 83 2a 00
        E 80 93 2a 6e
        E 16 83 2a 00
        E 320 93 2a 6e
        E 96 83 2a 00
        E 240 93 2a 6e
        E 16 83 2a 00
        E 144 93 2a 6e
        E 96 83 2a 00
        E 240 93 2a 6e
        E 96 83 2a 00
        E 80 93 2a 6e
        E 96 83 2a 00
        E 64 93 2a 6e
        E 176 83 2a 00
        E 0 93 2a 6e
        E 96 83 2a 00
        E 240 93 2a 6e
        E 96 83 2a 00
        E 240 93 2a 6e
        E 96 83 2a 00
        E 64 93 2a 6e
        E 96 83 2a 00
        E 80 93 2a 6e
        E 96 83 2a 00
        E 64 93 2a 6e
        E 96 83 2a 00
        E 80 93 2a 6e
        E 96 83 2a 00
        E 240 93 2a 6e
        E 96 83 2a 00
        E 240 93 2a 6e
        E 96 83 2a 00
        E 64 93 2a 6e
        E 96 83 2a 00
        E 80 93 2a 6e
        E 96 83 2a 00
        E 64 93 2a 6e
        E 96 83 2a 00
        E 80 93 2a 6e
        E 96 83 2a 00
        E 240 93 2a 6e
        E 96 83 2a 00
        E 240 93 2a 6e
        E 96 83 2a 00
        E 64 93 2a 6e
        E 96 83 2a 00
        E 80 93 2a 6e
        E 96 83 2a 00
        E 64 93 2a 6e
        E 96 83 2a 00
        E 80 93 2a 6e
        E 176 83 2a 00
        E 832 93 2a 6e
        E 96 83 2a 00
        E 64 93 2a 6e
        E 176 83 2a 00
        E 0 93 2a 6e
        E 96 83 2a 00
        E 64 93 2a 6e
        E 16 83 2a 00
        E 16 93 2a 7f
        E 32 83 2a 00
        E 64 93 2a 44
        E 48 83 2a 00
        E 48 93 2a 08
        E 96 83 2a 00
        E 64 93 2a 44
        E 16 83 2a 00
        E 0 93 2a 19
        E 32 83 2a 00
        E 16 93 2a 4c
        E 80 83 2a 00
        E 0 93 2a 4c
        E 16 83 2a 00
        E 128 93 2a 6e
        E 96 83 2a 00
        E 48 93 2a 5d
        E 16 83 2a 00
        E 0 93 2a 55
        E 48 83 2a 00
        E 0 93 2a 3b
        E 64 83 2a 00
        E 64 93 2a 6e
        E 96 83 2a 00
        E 80 93 2a 6e
        E 96 83 2a 00
        E 64 93 2a 6e
        E 96 83 2a 00
        E 80 93 2a 6e
        E 96 83 2a 00
        E 64 93 2a 6e
        E 96 83 2a 00
        E 240 93 2a 6e
        E 96 83 2a 00
        E 80 93 2a 6e
        E 96 83 2a 00
        E 64 93 2a 6e
        E 96 83 2a 00
        E 80 93 2a 6e
        E 96 83 2a 00
        E 64 93 2a 6e
        E 96 83 2a 00
        E 80 93 2a 6e
        E 96 83 2a 00
        E 64 93 2a 6e
        E 64 83 2a 00
        E 16 93 2a 7f
        E 32 83 2a 00
        E 64 93 2a 44
        E 48 83 2a 00
        E 48 93 2a 08
        E 64 83 2a 00
        E 0 93 2a 6e
        E 32 83 2a 00
        E 16 93 2a 4c
        E 80 83 2a 00
        E 0 93 2a 4c
        E 16 83 2a 00
        E 32 93 2a 6e
        E 96 83 2a 00
        E 64 93 2a 6e
        E 96 83 2a 00
        E 80 93 2a 6e
        E 32 83 2a 00
        E 32 93 2a 5d
        E 16 83 2a 00
        E 0 93 2a 55
        E 48 83 2a 00
        E 32 93 2a 6e
        E 96 83 2a 00
        E 80 93 2a 6e
        E 96 83 2a 00
        E 64 93 2a 6e
        E 96 83 2a 00
        E 240 93 2a 6e
        E 96 83 2a 00
        E 80 93 2a 6e
        E 96 83 2a 00
        E 64 93 2a 6e
        E 96 83 2a 00
        E 80 93 2a 6e
        E 96 83 2a 00
        E 240 93 2a 6e
        E 96 83 2a 00
        E 64 93 2a 6e
        E 96 83 2a 00
        E 80 93 2a 6e
        E 96 83 2a 00
        E 240 93 2a 6e
        E 96 83 2a 00
        E 240 93 2a 6e
        E 96 83 2a 00
        E 240 93 2a 6e
        E 96 83 2a 00
        E 64 93 2a 6e
        E 96 83 2a 00
        E 80 93 2a 6e
        E 96 83 2a 00
        E 240 93 2a 6e
        E 96 83 2a 00
        E 240 93 2a 6e
        E 48 83 2a 00
        E 16 93 2a 7f
        E 16 83 2a 00
        E 0 93 2a 08
        E 16 83 2a 00
        E 80 93 2a 5d
        E 16 83 2a 00
        E 0 93 2a 55
        E 48 83 2a 00
        E 96 93 2a 6e
        E 96 83 2a 00
        E 16 93 2a 5d
        E 16 83 2a 00
        E 0 93 2a 55
        E 48 83 2a 00
        E 0 93 2a 55
        E 80 83 2a 00
        E 80 93 2a 6e
        E 96 83 2a 00
        E 176 93 2a 4c
        E 80 83 2a 00
        E 0 93 2a 4c
        E 16 83 2a 00
        E 0 93 2a 3b
        E 64 83 2a 00
        E 176 93 2a 5d
        E 16 83 2a 00
        E 0 93 2a 55
        E 48 83 2a 00
        E 0 93 2a 6e
        E 176 83 2a 00
        E 48 93 2a 5d
        E 16 83 2a 00
        E 0 93 2a 55
        E 48 83 2a 00
        E 720 93 2a 6e
        E 96 83 2a 00
        E 64 93 2a 6e
        E 176 83 2a 00
        E 0 93 2a 6e
        E 96 83 2a 00
        E 64 93 2a 6e
        E 96 83 2a 00
        E 80 93 2a 6e
        E 96 83 2a 00
        E 64 93 2a 6e
        E 96 83 2a 00
        E 240 93 2a 6e
        E 96 83 2a 00
        E 80 93 2a 6e
        E 96 83 2a 00
        E 64 93 2a 6e
        E 96 83 2a 00
        E 96 93 2a 4c
        E 80 83 2a 00
        E 0 93 2a 4c
        E 16 83 2a 00
        E 48 93 2a 6e
        E 96 83 2a 00
        E 80 93 2a 6e
        E 96 83 2a 00
        E 64 93 2a 6e
        E 96 83 2a 00
        E 192 93 2a 5d
        E 16 83 2a 00
        E 0 93 2a 55
        E 48 83 2a 00
        E 0 93 2a 6e
        E 96 83 2a 00
        E 64 93 2a 6e
        E 96 83 2a 00
        E 80 93 2a 6e
        E 96 83 2a 00
        E 64 93 2a 6e
        E 96 83 2a 00
        E 80 93 2a 6e
        E 96 83 2a 00
        E 64 93 2a 6e
        E 96 83 2a 00
        E 80 93 2a 6e
        E 96 83 2a 00
        E 240 93 2a 6e
        E 96 83 2a 00
        E 64 93 2a 6e
        E 96 83 2a 00
        E 80 93 2a 6e
        E 96 83 2a 00
        E 64 93 2a 6e
        E 96 83 2a 00
        E 80 93 2a 6e
        E 96 83 2a 00
        E 64 93 2a 6e
        E 96 83 2a 00
        E 80 93 2a 6e
        E 96 83 2a 00
        E 240 93 2a 6e
        E 96 83 2a 00
        E 64 93 2a 6e
        E 80 83 2a 00
        E 16 93 2a 7f
        E 64 83 2a 00
        E 0 93 2a 7f
        E 64 83 2a 00
        E 0 93 2a 7f
        E 64 83 2a 00
        E 0 93 2a 7f
        E 64 83 2a 00
        E 0 93 2a 7f
        E 64 83 2a 00
        E 0 93 2a 7f
        E 64 83 2a 00
        E 0 93 2a 7f
        E 48 83 2a 00
        E 144 93 2a 6e
        E 96 83 2a 00
        E 80 93 2a 6e
        E 96 83 2a 00
        E 64 93 2a 6e
        E 96 83 2a 00
        E 240 93 2a 6e
        E 96 83 2a 00
        E 240 93 2a 6e
        E 16 83 2a 00
        E 16 93 2a 5d
        E 16 83 2a 00
        E 0 93 2a 55
        E 48 83 2a 00
        E 240 93 2a 6e
        E 96 83 2a 00
        E 80 93 2a 6e
        E 96 83 2a 00
        E 64 93 2a 6e
        E 96 83 2a 00
        E 240 93 2a 6e
        E 96 83 2a 00
        E 240 93 2a 6e
        E 48 83 2a 00
        E 16 93 2a 7f
        E 32 83 2a 00
        E 64 93 2a 44
        E 48 83 2a 00
        E 48 93 2a 08
        E 96 83 2a 00
        E 64 93 2a 44
        E 48 83 2a 00
        E 48 93 2a 08
        E 64 83 2a 00
        E 0 93 2a 7f
        E 96 83 2a 00
        E 0 93 2a 55
        E 80 83 2a 00
        E 0 93 2a 55
        E 64 83 2a 00
        E 0 93 2a 55
        E 64 83 2a 00
        E 128 93 2a 6e
        E 32 83 2a 00
        E 16 93 2a 5d
        E 16 83 2a 00
        E 0 93 2a 55
        E 48 83 2a 00
        E 224 93 2a 6e
        E 176 83 2a 00
        E 224 93 2a 5d
        E 16 83 2a 00
        E 0 93 2a 55
        E 48 83 2a 00
        E 544 93 2a 6e
        E 96 83 2a 00
        E 80 93 2a 6e
        E 160 83 2a 00
        E 0 93 2a 6e
        E 96 83 2a 00
        E 80 93 2a 6e
        E 96 83 2a 00
        E 64 93 2a 6e
        E 96 83 2a 00
        E 16 93 2a 7f
        E 32 83 2a 00
        E 64 93 2a 44
        E 48 83 2a 00
        E 48 93 2a 08
        E 16 83 2a 00
        E 192 93 2a 6e
        E 96 83 2a 00
        E 64 93 2a 6e
        E 32 83 2a 00
        E 16 93 2a 4c
        E 80 83 2a 00
        E 0 93 2a 4c
        E 16 83 2a 00
        E 32 93 2a 6e
        E 96 83 2a 00
        E 64 93 2a 6e
        E 96 83 2a 00
        E 80 93 2a 6e
        E 96 83 2a 00
        E 64 93 2a 6e
        E 96 83 2a 00
        E 80 93 2a 6e
        E 96 83 2a 00
        E 240 93 2a 6e
        E 96 83 2a 00
        E 64 93 2a 6e
        E 96 83 2a 00
        E 80 93 2a 6e
        E 96 83 2a 00
        E 64 93 2a 6e
        E 96 83 2a 00
        E 80 93 2a 6e
        E 96 83 2a 00
        E 64 93 2a 6e
        E 96 83 2a 00
        E 80 93 2a 5d
        E 16 83 2a 00
        E 0 93 2a 55
        E 48 83 2a 00
        E 0 93 2a 19
        E 32 83 2a 00
        E 240 93 2a 6e
        E 96 83 2a 00
        E 64 93 2a 6e
        E 96 83 2a 00
        E 80 93 2a 6e
        E 96 83 2a 00
        E 64 93 2a 6e
        E 96 83 2a 00
        E 80 93 2a 6e
        E 96 83 2a 00
        E 64 93 2a 6e
        E 96 83 2a 00
        E 80 93 2a 6e
        E 96 83 2a 00
        E 240 93 2a 6e
        E 96 83 2a 00
        E 64 93 2a 6e
        E 96 83 2a 00
        E 80 93 2a 6e
        E 96 83 2a 00
        E 64 93 2a 6e
        E 320 83 2a 00
        E 0 93 2a 08
        E 32 83 2a 00
        E 992 93 2a 6e
        E 96 83 2a 00
        E 80 93 2a 6e
        E 96 83 2a 00
        E 80 93 2a 6e
        E 96 83 2a 00
        E 240 93 2a 6e
        E 96 83 2a 00
        E 64 93 2a 6e
        E 96 83 2a 00
        E 240 93 2a 6e
        E 96 83 2a 00
        E 80 93 2a 6e
        E 96 83 2a 00
        E 240 93 2a 6e
        E 96 83 2a 00
        E 64 93 2a 6e
        E 96 83 2a 00
        E 240 93 2a 6e
        E 96 83 2a 00
        E 80 93 2a 6e
        E 96 83 2a 00
        E 240 93 2a 6e
        E 96 83 2a 00
        E 64 93 2a 6e
        E 96 83 2a 00
        E 80 93 2a 6e
        E 96 83 2a 00
        E 64 93 2a 6e
        E 96 83 2a 00
        E 240 93 2a 6e
        E 96 83 2a 00
        E 80 93 2a 6e
        E 96 83 2a 00
        E 240 93 2a 6e
        E 96 83 2a 00
        E 240 93 2a 6e
        E 16 83 2a 00
        E 144 93 2a 6e
        E 96 83 2a 00
        E 240 93 2a 6e
        E 96 83 2a 00
        E 80 93 2a 6e
        E 16 83 2a 00
        E 320 93 2a 6e
        E 96 83 2a 00
        E 240 93 2a 6e
        E 16 83 2a 00
        E 144 93 2a 6e
        E 96 83 2a 00
        E 32 93 2a 5d
        E 16 83 2a 00
        E 0 93 2a 55
        E 48 83 2a 00
        E 48 93 2a 5d
        E 16 83 2a 00
        E 0 93 2a 55
        E 48 83 2a 00
        E 32 93 2a 6e
        E 96 83 2a 00
        E 80 93 2a 6e
        E 16 83 2a 00
        E 320 93 2a 6e
        E 96 83 2a 00
        E 240 93 2a 6e
        E 16 83 2a 00
        E 144 93 2a 6e
        E 96 83 2a 00
        E 240 93 2a 6e
        E 96 83 2a 00
        E 80 93 2a 6e
        E 16 83 2a 00
        E 320 93 2a 6e
        E 96 83 2a 00
        E 240 93 2a 6e
        E 16 83 2a 00
        E 144 93 2a 7f
        E 32 83 2a 00
        E 64 93 2a 44
        E 48 83 2a 00
        E 48 93 2a 08
        E 96 83 2a 00
        E 64 93 2a 44
        E 48 83 2a 00
        E 48 93 2a 08
        E 96 83 2a 00
        E 64 93 2a 44
        E 48 83 2a 00
        E 48 93 2a 08
        E 96 83 2a 00
        E 64 93 2a 44
        E 48 83 2a 00
        E 48 93 2a 08
        E 96 83 2a 00
        E 64 93 2a 44
        E 48 83 2a 00
        E 48 93 2a 08
        E 96 83 2a 00
        E 64 93 2a 44
        E 48 83 2a 00
        E 48 93 2a 08
        E 96 83 2a 00
        E 64 93 2a 44
        E 48 83 2a 00
        E 48 93 2a 08
        E 96 83 2a 00
        E 64 93 2a 44
        E 48 83 2a 00
        E 48 93 2a 08
        E 96 83 2a 00
        E 64 93 2a 44
        E 48 83 2a 00
        E 48 93 2a 08
        E 96 83 2a 00
        E 64 93 2a 44
        E 48 83 2a 00
        E 48 93 2a 08
        E 96 83 2a 00
        E 64 93 2a 44
        E 48 83 2a 00
        E 48 93 2a 08
        E 96 83 2a 00
        E 64 93 2a 44
        E 48 83 2a 00
        E 48 93 2a 08
        E 96 83 2a 00
        E 64 93 2a 44
        E 48 83 2a 00
        E 48 93 2a 08
        E 96 83 2a 00
        E 64 93 2a 44
        E 48 83 2a 00
        E 48 93 2a 08
        E 96 83 2a 00
        E 64 93 2a 44
        E 48 83 2a 00
        E 48 93 2a 08
        E 96 83 2a 00
        E 64 93 2a 44
        E 48 83 2a 00
        E 48 93 2a 08
        E 96 83 2a 00
        E 64 93 2a 44
        E 48 83 2a 00
        E 48 93 2a 08
        E 96 83 2a 00
        E 64 93 2a 44
        E 48 83 2a 00
        E 48 93 2a 08
        E 64 83 2a 00
        E 272 93 2a 6e
        E 96 83 2a 00
        E 240 93 2a 6e
        E 16 83 2a 00
        E 144 93 2a 6e
        E 96 83 2a 00
        E 240 93 2a 6e
        E 96 83 2a 00
        E 80 93 2a 6e
        E 96 83 2a 00
        E 64 93 2a 6e
        E 176 83 2a 00
        E 0 93 2a 6e
        E 96 83 2a 00
        E 240 93 2a 6e
        E 96 83 2a 00
        E 240 93 2a 6e
        E 32 83 2a 00
        E 16 93 2a 7f
        E 64 83 2a 00
        E 0 93 2a 7f
        E 64 83 2a 00
        E 0 93 2a 7f
        E 64 83 2a 00
        E 0 93 2a 7f
        E 64 83 2a 00
        E 0 93 2a 7f
        E 64 83 2a 00
        E 0 93 2a 7f
        E 64 83 2a 00
        E 0 93 2a 7f
        E 48 83 2a 00
        E 16 93 2a 6e
        E 96 83 2a 00
        E 80 93 2a 6e
        E 96 83 2a 00
        E 560 93 2a 4c
        E 80 83 2a 00
        E 0 93 2a 4c
        E 16 83 2a 00
        E 2096 93 2a 4c
        E 80 83 2a 00
        E 0 93 2a 4c
        E 16 83 2a 00
        E 416 93 2a 4c
        E 80 83 2a 00
        E 0 93 2a 4c
        E 16 83 2a 00
        E 2352 93 2a 5d
        E 16 83 2a 00
        E 0 93 2a 55
        E 48 83 2a 00
        E 560 93 2a 4c
        E 80 83 2a 00
        E 0 93 2a 4c
        E 16 83 2a 00
        E 1008 93 2a 4c
        E 80 83 2a 00
        E 0 93 2a 4c
        E 16 83 2a 00
        E 688 93 2a 6e
        E 96 83 2a 00
        E 80 93 2a 6e
        E 96 83 2a 00
        E 80 93 2a 6e
        E 96 83 2a 00
        E 240 93 2a 6e
        E 96 83 2a 00
        E 64 93 2a 6e
        E 96 83 2a 00
        E 240 93 2a 6e
        E 96 83 2a 00
        E 80 93 2a 6e
        E 96 83 2a 00
        E 240 93 2a 6e
        E 96 83 2a 00
        E 64 93 2a 6e
        E 96 83 2a 00
        E 240 93 2a 6e
        E 96 83 2a 00
        E 80 93 2a 6e
        E 96 83 2a 00
        E 176 93 2a 5d
        E 16 83 2a 00
        E 0 93 2a 55
        E 48 83 2a 00
        E 0 93 2a 6e
        E 96 83 2a 00
        E 64 93 2a 6e
        E 96 83 2a 00
        E 80 93 2a 6e
        E 96 83 2a 00
        E 64 93 2a 6e
        E 96 83 2a 00
        E 160 93 2a 5d
        E 16 83 2a 00
        E 0 93 2a 55
        E 48 83 2a 00
        E 16 93 2a 6e
        E 96 83 2a 00
        E 80 93 2a 6e
        E 96 83 2a 00
        E 160 93 2a 5d
        E 16 83 2a 00
        E 0 93 2a 55
        E 48 83 2a 00
        E 16 93 2a 6e
        E 80 83 2a 00
        E 16 93 2a 5d
        E 16 83 2a 00
        E 0 93 2a 55
        E 48 83 2a 00
        E 176 93 2a 6e
        E 16 83 2a 00
        E 144 93 2a 6e
        E 96 83 2a 00
        E 240 93 2a 6e
        E 48 83 2a 00
        E 0 b3 7b 00
        E 0 ff 2f 00
      >
    >
  >
>