<REAPER_PROJECT 0.1 "7.27/win64" 1707000000
  <NOTES 0 2
    |ReapNES Studio Project
    |MIDI Import - Bio_Force_Ape_title_rom_v1
  >
  RIPPLE 0
  GROUPOVERRIDE 0 0 0
  AUTOXFADE 129
  ENVATTACH 3
  POOLEDENVATTACH 0
  MIXERUIFLAGS 11 48
  ENVFADESZ10 40
  PEAKGAIN 1
  FEEDBACK 0
  PANLAW 1
  PROJOFFS 0 0 0
  MAXPROJLEN 0 0
  GRID 3199 8 1 8 1 0 0 0
  TIMEMODE 1 5 -1 30 0 0 -1
  VIDEO_CONFIG 0 0 65792
  PANMODE 3
  PANLAWFLAGS 3
  CURSOR 0
  ZOOM 100 0 0
  VZOOMEX 6 0
  USE_REC_CFG 0
  RECMODE 1
  SMPTESYNC 0 30 100 40 1000 300 0 0 1 0 0
  LOOP 0
  LOOPGRAN 0 4
  RECORD_PATH "Media" ""
  <RECORD_CFG
    ZXZhdxgAAQ==
  >
  <APPLYFX_CFG
  >
  RENDER_FILE ""
  RENDER_PATTERN ""
  RENDER_FMT 0 2 0
  RENDER_1X 0
  RENDER_RANGE 1 0 0 18 1000
  RENDER_RESAMPLE 3 0 1
  RENDER_ADDTOPROJ 0
  RENDER_STEMS 0
  RENDER_DITHER 0
  TIMELOCKMODE 1
  TEMPOENVLOCKMODE 1
  ITEMMIX 1
  DEFPITCHMODE 589824 0
  TAKELANE 1
  SAMPLERATE 44100 0 0
  <RENDER_CFG
    ZXZhdxgAAQ==
  >
  LOCK 1
  <METRONOME 6 2
    VOL 0.25 0.125
    BEATLEN 4
    FREQ 1760 880 1
    SAMPLES "" ""
    SPLIGNORE 0 0
    SPLDEF 2 660 "" 0
    SPLDEF 3 440 "" 0
    PATTERN 0 169
    PATTERNSTR ABBB
    MULT 1
  >
  GLOBAL_AUTO -1
  TEMPO 128.59999614200012 4 4
  PLAYRATE 1 0 0.25 4
  SELECTION 0 0
  SELECTION2 0 0
  MASTERAUTOMODE 0
  MASTERTRACKHEIGHT 0 0
  MASTERPEAKCOL 16576
  MASTERMUTESOLO 0
  MASTERTRACKVIEW 0 0.6667 0.5 0.5 0 0 0 0 0 0 0 0 0 0
  MASTERHWOUT 0 0 1 0 0 0 0 -1
  MASTER_NCH 2 2
  MASTER_VOLUME 1 0 -1 -1 1
  MASTER_PANMODE 3
  MASTER_PANLAWFLAGS 3
  MASTER_FX 1
  MASTER_SEL 0
  <MASTERPLAYSPEEDENV
    EGUID {0F053661-EDAF-4A1B-A694-C632878AB192}
    ACT 0 -1
    VIS 0 1 1
    LANEHEIGHT 0 0
    ARM 0
    DEFSHAPE 0 -1 -1
  >
  <TEMPOENVEX
    EGUID {9B7DED68-73B7-4D58-82F5-CFD336D80B9E}
    ACT 1 -1
    VIS 1 0 1
    LANEHEIGHT 0 0
    ARM 0
    DEFSHAPE 1 -1 -1
  >
  <PROJBAY
  >
  <TRACK {7DCDD310-402D-41B4-AD41-2D5BF099718D}
    NAME "NES - Pulse 1 [ch0]"
    PEAKCOL 16576606
    BEAT -1
    AUTOMODE 0
    PANLAWFLAGS 3
    VOLPAN 1 0 -1 -1 1
    MUTESOLO 0 0 0
    IPHASE 0
    PLAYOFFS 0 1
    ISBUS 0 0
    BUSCOMP 0 0 0 0 0
    SHOWINMIX 1 0.6667 0.5 1 0.5 0 0 0
    FIXEDLANES 9 0 0 0 0
    SEL 1
    REC 1 5088 1 0 0 0 0 0
    VU 2
    TRACKHEIGHT 0 0 0 0 0 0 0
    INQ 0 0 0 0.5 100 0 0 100
    NCHAN 2
    FX 1
    TRACKID {7DCDD310-402D-41B4-AD41-2D5BF099718D}
    PERF 0
    MIDIOUT -1
    MAINSEND 1 0
    <FXCHAIN
      WNDRECT 24 52 700 560
      SHOW 0
      LASTSEL 0
      DOCKED 0
      BYPASS 0 0 0
      <JS "ReapNES Studio/ReapNES_Console.jsfx" ""
        2 15 1 10 80 10 100 2 1 15 1 5 60 10 80 1 1 0 50 0 0 15 1 0 100 0 0 0.500000 0.500000 0.400000 0.300000 0.800000 0 1 0 0 0 0 - - - - - - - - - - - - - - - - - - - - - - - - - -
      >
      FLOATPOS 0 0 0 0
      FXID {71483143-EE55-4290-ADBA-A2BED2794384}
      WAK 0 0
    >
    <ITEM
      POSITION 0
      LENGTH 7.3561433
      LOOP 0
      ALLTAKES 0
      FADEIN 0 0 0 0 0 0 0
      FADEOUT 0 0 0 0 0 0 0
      MUTE 0 0
      SEL 0
      IGUID {A89E4852-1241-42E5-BF47-EA523BB62BAA}
      <SOURCE MIDI
        HASDATA 1 480 QN
        CCINTERP 32
        E 0 c0 50
        E 6208 b0 0c 10
        E 0 b0 0b 55
        E 0 90 2e 55
        E 16 b0 0c 40
        E 0 b0 0b 66
        E 16 b0 0b 44
        E 16 b0 0b 3b
        E 16 b0 0b 33
        E 16 b0 0b 2a
        E 16 b0 0b 19
        E 16 b0 0c 10
        E 0 b0 0b 3b
        E 16 b0 0c 40
        E 0 b0 0b 44
        E 16 b0 0b 3b
        E 16 b0 0b 22
        E 80 b0 0c 10
        E 0 b0 0b 55
        E 0 80 2e 00
        E 0 90 40 55
        E 16 b0 0c 40
        E 0 b0 0b 66
        E 16 b0 0b 44
        E 16 b0 0b 3b
        E 16 b0 0b 33
        E 16 b0 0b 2a
        E 16 b0 0b 19
        E 16 b0 0c 10
        E 0 b0 0b 3b
        E 16 b0 0c 40
        E 0 b0 0b 44
        E 16 b0 0b 3b
        E 16 b0 0b 2a
        E 112 b0 0b 22
        E 80 b0 0c 10
        E 0 b0 0b 55
        E 16 b0 0c 40
        E 0 b0 0b 66
        E 16 b0 0b 44
        E 16 b0 0b 3b
        E 16 b0 0b 33
        E 16 b0 0b 2a
        E 16 b0 0b 19
        E 16 b0 0c 10
        E 0 b0 0b 3b
        E 16 b0 0c 40
        E 0 b0 0b 44
        E 16 b0 0b 3b
        E 16 b0 0b 2a
        E 112 b0 0b 22
        E 96 b0 0c 10
        E 0 b0 0b 55
        E 0 80 40 00
        E 0 90 2d 55
        E 16 b0 0c 40
        E 0 b0 0b 66
        E 16 b0 0b 44
        E 16 b0 0b 3b
        E 16 b0 0b 33
        E 16 b0 0b 2a
        E 16 b0 0b 19
        E 16 b0 0c 10
        E 0 b0 0b 3b
        E 16 b0 0c 40
        E 0 b0 0b 44
        E 16 b0 0b 3b
        E 16 b0 0b 2a
        E 112 b0 0b 22
        E 112 b0 0b 19
        E 16 80 2d 00
        E 0 b0 7b 00
        E 0 ff 2f 00
      >
    >
  >
  <TRACK {78EBC48C-7F41-4DA1-8072-234B7E95B2E3}
    NAME "NES - Pulse 2 [ch1]"
    PEAKCOL 10092441
    BEAT -1
    AUTOMODE 0
    PANLAWFLAGS 3
    VOLPAN 1 0 -1 -1 1
    MUTESOLO 0 0 0
    IPHASE 0
    PLAYOFFS 0 1
    ISBUS 0 0
    BUSCOMP 0 0 0 0 0
    SHOWINMIX 1 0.6667 0.5 1 0.5 0 0 0
    FIXEDLANES 9 0 0 0 0
    SEL 0
    REC 0 5088 1 0 0 0 0 0
    VU 2
    TRACKHEIGHT 0 0 0 0 0 0 0
    INQ 0 0 0 0.5 100 0 0 100
    NCHAN 2
    FX 1
    TRACKID {78EBC48C-7F41-4DA1-8072-234B7E95B2E3}
    PERF 0
    MIDIOUT -1
    MAINSEND 1 0
    <FXCHAIN
      WNDRECT 24 52 700 560
      SHOW 0
      LASTSEL 0
      DOCKED 0
      BYPASS 0 0 0
      <JS "ReapNES Studio/ReapNES_Console.jsfx" ""
        2 15 1 10 80 10 100 2 1 15 1 5 60 10 80 1 1 0 50 0 0 15 1 0 100 0 0 0.500000 0.500000 0.400000 0.300000 0.800000 1 1 0 0 0 0 - - - - - - - - - - - - - - - - - - - - - - - - - -
      >
      FLOATPOS 0 0 0 0
      FXID {337A5616-4B3D-4436-8E66-9926FEF81937}
      WAK 0 0
    >
    <ITEM
      POSITION 0
      LENGTH 7.3561433
      LOOP 0
      ALLTAKES 0
      FADEIN 0 0 0 0 0 0 0
      FADEOUT 0 0 0 0 0 0 0
      MUTE 0 0
      SEL 0
      IGUID {EEA5CC97-FFB8-4801-AA76-FEB795C2502B}
      <SOURCE MIDI
        HASDATA 1 480 QN
        CCINTERP 32
        E 0 c1 51
        E 0 b1 0c 20
        E 0 b1 0b 11
        E 0 91 35 11
        E 16 b1 0c 10
        E 0 b1 0b 22
        E 16 b1 0b 33
        E 16 b1 0b 3b
        E 16 b1 0b 44
        E 16 81 35 00
        E 32 b1 0c 20
        E 0 b1 0b 11
        E 0 91 35 11
        E 16 b1 0c 10
        E 0 b1 0b 22
        E 16 b1 0b 33
        E 16 b1 0b 3b
        E 16 b1 0b 44
        E 32 81 35 00
        E 32 b1 0c 20
        E 0 b1 0b 11
        E 0 91 35 11
        E 16 b1 0c 10
        E 0 b1 0b 22
        E 16 b1 0b 33
        E 16 81 35 00
        E 16 b1 0b 44
        E 0 91 37 44
        E 16 81 37 00
        E 32 b1 0c 20
        E 0 b1 0b 11
        E 0 91 5d 11
        E 16 b1 0c 10
        E 0 b1 0b 22
        E 16 b1 0b 33
        E 16 b1 0b 3b
        E 16 b1 0b 44
        E 16 b1 0b 4c
        E 32 b1 0b 55
        E 32 b1 0c 20
        E 0 b1 0b 4c
        E 64 b1 0b 44
        E 32 b1 0b 3b
        E 32 b1 0b 33
        E 32 b1 0b 22
        E 32 81 5d 00
        E 32 b1 0b 11
        E 0 91 2d 11
        E 16 b1 0c 10
        E 0 b1 0b 22
        E 16 b1 0b 33
        E 16 b1 0b 3b
        E 16 b1 0b 44
        E 16 81 2d 00
        E 32 b1 0c 20
        E 0 b1 0b 11
        E 0 91 2d 11
        E 16 b1 0c 10
        E 0 b1 0b 22
        E 16 b1 0b 33
        E 16 b1 0b 3b
        E 16 b1 0b 44
        E 32 81 2d 00
        E 32 b1 0c 20
        E 0 b1 0b 11
        E 0 91 2d 11
        E 16 b1 0c 10
        E 0 b1 0b 22
        E 16 b1 0b 33
        E 16 b1 0b 3b
        E 16 b1 0b 44
        E 16 81 2d 00
        E 32 b1 0c 20
        E 0 b1 0b 11
        E 0 91 5d 11
        E 16 b1 0c 10
        E 0 b1 0b 22
        E 16 b1 0b 33
        E 16 b1 0b 3b
        E 16 b1 0b 44
        E 16 b1 0b 4c
        E 32 b1 0b 55
        E 32 b1 0c 20
        E 0 b1 0b 4c
        E 64 b1 0b 44
        E 32 b1 0b 3b
        E 32 b1 0b 33
        E 176 81 5d 00
        E 128 b1 0c 10
        E 0 b1 0b 19
        E 0 91 5d 19
        E 16 b1 0c 40
        E 0 b1 0b 33
        E 16 b1 0b 44
        E 320 b1 0c 10
        E 0 b1 0b 19
        E 16 b1 0c 40
        E 0 b1 0b 33
        E 16 b1 0b 44
        E 336 b1 0c 10
        E 0 b1 0b 19
        E 16 b1 0c 40
        E 0 b1 0b 33
        E 16 b1 0b 44
        E 1168 b1 0c 10
        E 0 b1 0b 55
        E 16 b1 0c 40
        E 0 b1 0b 66
        E 16 b1 0b 44
        E 16 b1 0b 3b
        E 16 b1 0b 33
        E 16 b1 0b 2a
        E 16 b1 0b 19
        E 16 b1 0c 10
        E 0 b1 0b 3b
        E 16 b1 0c 40
        E 0 b1 0b 44
        E 16 b1 0b 3b
        E 16 b1 0b 2a
        E 112 b1 0b 22
        E 80 b1 0c 10
        E 0 b1 0b 55
        E 16 b1 0c 40
        E 0 b1 0b 66
        E 16 b1 0b 44
        E 16 b1 0b 7f
        E 0 81 5d 00
        E 0 91 1d 7f
        E 48 81 1d 00
        E 0 91 26 7f
        E 16 81 26 00
        E 0 91 1d 7f
        E 16 b1 0b 66
        E 16 b1 0b 55
        E 16 b1 0b 66
        E 0 81 1d 00
        E 0 91 25 66
        E 16 b1 0b 55
        E 16 81 25 00
        E 48 b1 0b 22
        E 0 91 25 22
        E 112 b1 0b 19
        E 16 b1 0c 10
        E 0 b1 0b 55
        E 0 81 25 00
        E 0 91 2d 55
        E 16 b1 0c 40
        E 0 b1 0b 66
        E 16 b1 0b 44
        E 16 b1 0b 3b
        E 16 b1 0b 33
        E 16 b1 0b 2a
        E 16 b1 0b 19
        E 16 b1 0c 10
        E 0 b1 0b 3b
        E 16 b1 0c 40
        E 0 b1 0b 44
        E 16 b1 0b 3b
        E 16 b1 0b 2a
        E 112 b1 0b 22
        E 112 b1 0b 19
        E 112 b1 0b 11
        E 112 b1 0b 08
        E 112 81 2d 00
        E 480 b1 0c 10
        E 0 b1 0b 55
        E 0 91 5e 55
        E 16 b1 0c 40
        E 0 b1 0b 66
        E 16 b1 0b 44
        E 16 b1 0b 3b
        E 16 b1 0b 33
        E 16 b1 0b 2a
        E 16 b1 0b 19
        E 16 b1 0c 10
        E 0 b1 0b 55
        E 16 b1 0c 40
        E 0 b1 0b 66
        E 16 b1 0b 44
        E 16 b1 0b 3b
        E 16 b1 0b 33
        E 16 b1 0b 2a
        E 16 b1 0b 19
        E 16 b1 0c 10
        E 0 b1 0b 3b
        E 16 b1 0b 55
        E 16 b1 0c 40
        E 0 b1 0b 66
        E 16 b1 0b 44
        E 16 b1 0b 3b
        E 16 b1 0b 33
        E 16 b1 0b 2a
        E 16 b1 0b 19
        E 16 b1 0c 10
        E 0 b1 0b 55
        E 16 b1 0c 40
        E 0 b1 0b 66
        E 16 b1 0b 44
        E 16 b1 0b 3b
        E 16 b1 0b 33
        E 16 b1 0b 2a
        E 16 b1 0b 19
        E 16 b1 0c 10
        E 0 b1 0b 3b
        E 16 b1 0c 40
        E 0 b1 0b 44
        E 16 b1 0b 3b
        E 16 b1 0b 22
        E 112 81 5e 00
        E 96 b1 0c 10
        E 0 b1 0b 55
        E 0 91 32 55
        E 16 b1 0c 40
        E 0 b1 0b 66
        E 16 b1 0b 44
        E 16 b1 0b 3b
        E 16 b1 0b 33
        E 16 b1 0b 2a
        E 16 b1 0b 19
        E 16 b1 0c 10
        E 0 b1 0b 3b
        E 16 b1 0c 40
        E 0 b1 0b 44
        E 16 b1 0b 3b
        E 16 b1 0b 22
        E 80 b1 0c 10
        E 0 b1 0b 55
        E 16 b1 0c 40
        E 0 b1 0b 66
        E 16 b1 0b 44
        E 16 b1 0b 3b
        E 16 b1 0b 33
        E 16 b1 0b 2a
        E 16 b1 0b 19
        E 16 b1 0c 10
        E 0 b1 0b 3b
        E 16 b1 0c 40
        E 0 b1 0b 44
        E 16 b1 0b 3b
        E 16 b1 0b 2a
        E 112 b1 0b 22
        E 80 b1 0c 10
        E 0 b1 0b 55
        E 16 b1 0c 40
        E 0 b1 0b 66
        E 16 b1 0b 44
        E 16 b1 0b 3b
        E 16 b1 0b 33
        E 16 b1 0b 2a
        E 16 b1 0b 19
        E 16 b1 0c 10
        E 0 b1 0b 3b
        E 16 b1 0c 40
        E 0 b1 0b 44
        E 16 b1 0b 3b
        E 16 b1 0b 2a
        E 112 b1 0b 22
        E 96 b1 0c 10
        E 0 b1 0b 55
        E 16 b1 0c 40
        E 0 b1 0b 66
        E 16 b1 0b 44
        E 16 b1 0b 3b
        E 16 b1 0b 33
        E 16 b1 0b 2a
        E 16 b1 0b 19
        E 16 b1 0c 10
        E 0 b1 0b 3b
        E 16 b1 0c 40
        E 0 b1 0b 44
        E 16 b1 0b 3b
        E 16 b1 0b 2a
        E 112 b1 0b 22
        E 112 b1 0b 19
        E 16 81 32 00
        E 0 b1 7b 00
        E 0 ff 2f 00
      >
    >
  >
  <TRACK {72A5D6BE-6F55-4F52-84B5-553C41DF3490}
    NAME "NES - Triangle [ch2]"
    PEAKCOL 16744192
    BEAT -1
    AUTOMODE 0
    PANLAWFLAGS 3
    VOLPAN 1 0 -1 -1 1
    MUTESOLO 0 0 0
    IPHASE 0
    PLAYOFFS 0 1
    ISBUS 0 0
    BUSCOMP 0 0 0 0 0
    SHOWINMIX 1 0.6667 0.5 1 0.5 0 0 0
    FIXEDLANES 9 0 0 0 0
    SEL 0
    REC 0 5088 1 0 0 0 0 0
    VU 2
    TRACKHEIGHT 0 0 0 0 0 0 0
    INQ 0 0 0 0.5 100 0 0 100
    NCHAN 2
    FX 1
    TRACKID {72A5D6BE-6F55-4F52-84B5-553C41DF3490}
    PERF 0
    MIDIOUT -1
    MAINSEND 1 0
    <FXCHAIN
      WNDRECT 24 52 700 560
      SHOW 0
      LASTSEL 0
      DOCKED 0
      BYPASS 0 0 0
      <JS "ReapNES Studio/ReapNES_Console.jsfx" ""
        2 15 1 10 80 10 100 2 1 15 1 5 60 10 80 1 1 0 50 0 0 15 1 0 100 0 0 0.500000 0.500000 0.400000 0.300000 0.800000 2 1 0 0 0 0 - - - - - - - - - - - - - - - - - - - - - - - - - -
      >
      FLOATPOS 0 0 0 0
      FXID {6CAC0B95-FC4B-4355-93F2-955E9BCF4E37}
      WAK 0 0
    >
    <ITEM
      POSITION 0
      LENGTH 7.3561433
      LOOP 0
      ALLTAKES 0
      FADEIN 0 0 0 0 0 0 0
      FADEOUT 0 0 0 0 0 0 0
      MUTE 0 0
      SEL 0
      IGUID {8AE6B6AF-7F27-476D-AD2D-65BF1C48E1EE}
      <SOURCE MIDI
        HASDATA 1 480 QN
        CCINTERP 32
        E 0 c2 26
        E 0 b2 0b 7f
        E 0 92 21 7f
        E 80 82 21 00
        E 0 b2 0b 7f
        E 0 92 1d 7f
        E 112 82 1d 00
        E 16 b2 0b 7f
        E 0 92 1e 7f
        E 112 82 1e 00
        E 0 b2 0b 7f
        E 0 92 29 7f
        E 256 82 29 00
        E 0 b2 0b 7f
        E 0 92 22 7f
        E 64 82 22 00
        E 48 b2 0b 7f
        E 0 92 1b 7f
        E 112 82 1b 00
        E 0 b2 0b 7f
        E 0 92 1d 7f
        E 112 82 1d 00
        E 16 b2 0b 7f
        E 0 92 1e 7f
        E 112 82 1e 00
        E 0 b2 0b 7f
        E 0 92 29 7f
        E 256 82 29 00
        E 0 b2 0b 7f
        E 0 92 22 7f
        E 336 82 22 00
        E 16 b2 0b 7f
        E 0 92 1b 7f
        E 256 82 1b 00
        E 0 b2 0b 7f
        E 0 92 1f 7f
        E 64 82 1f 00
        E 32 b2 0b 7f
        E 0 92 1f 7f
        E 320 82 1f 00
        E 48 b2 0b 7f
        E 0 92 1f 7f
        E 560 82 1f 00
        E 32 b2 0b 7f
        E 0 92 1f 7f
        E 16 82 1f 00
        E 16 b2 0b 7f
        E 0 92 29 7f
        E 16 82 29 00
        E 0 b2 0b 7f
        E 0 92 21 7f
        E 16 82 21 00
        E 0 b2 0b 7f
        E 0 92 23 7f
        E 16 82 23 00
        E 0 b2 0b 7f
        E 0 92 25 7f
        E 32 82 25 00
        E 0 b2 0b 7f
        E 0 92 27 7f
        E 16 82 27 00
        E 0 b2 0b 7f
        E 0 92 29 7f
        E 16 82 29 00
        E 0 b2 0b 7f
        E 0 92 52 7f
        E 16 82 52 00
        E 0 b2 0b 7f
        E 0 92 2d 7f
        E 32 82 2d 00
        E 0 b2 0b 7f
        E 0 92 2f 7f
        E 16 82 2f 00
        E 0 b2 0b 7f
        E 0 92 30 7f
        E 16 82 30 00
        E 0 b2 0b 7f
        E 0 92 31 7f
        E 48 82 31 00
        E 0 b2 0b 7f
        E 0 92 30 7f
        E 16 82 30 00
        E 0 b2 0b 7f
        E 0 92 2f 7f
        E 16 82 2f 00
        E 0 b2 0b 7f
        E 0 92 21 7f
        E 16 82 21 00
        E 0 b2 0b 7f
        E 0 92 2b 7f
        E 32 82 2b 00
        E 0 b2 0b 7f
        E 0 92 29 7f
        E 16 82 29 00
        E 0 b2 0b 7f
        E 0 92 27 7f
        E 16 82 27 00
        E 0 b2 0b 7f
        E 0 92 25 7f
        E 16 82 25 00
        E 0 b2 0b 7f
        E 0 92 23 7f
        E 32 82 23 00
        E 0 b2 0b 7f
        E 0 92 1a 7f
        E 16 82 1a 00
        E 0 b2 0b 7f
        E 0 92 1f 7f
        E 16 82 1f 00
        E 0 b2 0b 7f
        E 0 92 1d 7f
        E 16 82 1d 00
        E 0 b2 0b 7f
        E 0 92 16 7f
        E 32 82 16 00
        E 0 b2 0b 7f
        E 0 92 19 7f
        E 16 82 19 00
        E 0 b2 0b 7f
        E 0 92 17 7f
        E 16 82 17 00
        E 0 b2 0b 7f
        E 0 92 11 7f
        E 16 82 11 00
        E 0 b2 0b 7f
        E 0 92 0f 7f
        E 32 82 0f 00
        E 0 b2 0b 7f
        E 0 92 11 7f
        E 16 82 11 00
        E 0 b2 0b 7f
        E 0 92 25 7f
        E 128 82 25 00
        E 224 b2 0b 7f
        E 0 92 24 7f
        E 144 82 24 00
        E 224 b2 0b 7f
        E 0 92 1b 7f
        E 128 82 1b 00
        E 224 b2 0b 7f
        E 0 92 1f 7f
        E 128 82 1f 00
        E 0 b2 0b 7f
        E 0 92 29 7f
        E 240 82 29 00
        E 0 b2 0b 7f
        E 0 92 22 7f
        E 240 82 22 00
        E 0 b2 0b 7f
        E 0 92 26 7f
        E 240 82 26 00
        E 0 b2 0b 7f
        E 0 92 22 7f
        E 128 82 22 00
        E 224 b2 0b 7f
        E 0 92 24 7f
        E 144 82 24 00
        E 224 b2 0b 7f
        E 0 92 1b 7f
        E 128 82 1b 00
        E 224 b2 0b 7f
        E 0 92 1f 7f
        E 128 82 1f 00
        E 0 b2 0b 7f
        E 0 92 29 7f
        E 240 82 29 00
        E 0 b2 0b 7f
        E 0 92 22 7f
        E 112 82 22 00
        E 0 b2 0b 7f
        E 0 92 27 7f
        E 128 82 27 00
        E 0 b2 0b 7f
        E 0 92 26 7f
        E 240 82 26 00
        E 0 b2 0b 7f
        E 0 92 22 7f
        E 128 82 22 00
        E 32 b2 7b 00
        E 0 ff 2f 00
      >
    >
  >
  <TRACK {D34E1237-F483-42B3-A53C-C265A7AA98DA}
    NAME "NES - Noise / Drums [ch3]"
    PEAKCOL 11184810
    BEAT -1
    AUTOMODE 0
    PANLAWFLAGS 3
    VOLPAN 1 0 -1 -1 1
    MUTESOLO 0 0 0
    IPHASE 0
    PLAYOFFS 0 1
    ISBUS 0 0
    BUSCOMP 0 0 0 0 0
    SHOWINMIX 1 0.6667 0.5 1 0.5 0 0 0
    FIXEDLANES 9 0 0 0 0
    SEL 0
    REC 0 5088 1 0 0 0 0 0
    VU 2
    TRACKHEIGHT 0 0 0 0 0 0 0
    INQ 0 0 0 0.5 100 0 0 100
    NCHAN 2
    FX 1
    TRACKID {D34E1237-F483-42B3-A53C-C265A7AA98DA}
    PERF 0
    MIDIOUT -1
    MAINSEND 1 0
    <FXCHAIN
      WNDRECT 24 52 700 560
      SHOW 0
      LASTSEL 0
      DOCKED 0
      BYPASS 0 0 0
      <JS "ReapNES Studio/ReapNES_Console.jsfx" ""
        2 15 1 10 80 10 100 2 1 15 1 5 60 10 80 1 1 0 50 0 0 15 1 0 100 0 0 0.500000 0.500000 0.400000 0.300000 0.800000 3 1 0 0 0 0 - - - - - - - - - - - - - - - - - - - - - - - - - -
      >
      FLOATPOS 0 0 0 0
      FXID {7841DEEE-9546-4332-89DA-0FD50F416E40}
      WAK 0 0
    >
    <ITEM
      POSITION 0
      LENGTH 7.3561433
      LOOP 0
      ALLTAKES 0
      FADEIN 0 0 0 0 0 0 0
      FADEOUT 0 0 0 0 0 0 0
      MUTE 0 0
      SEL 0
      IGUID {A236E04E-C97C-48A2-B19A-49448336D289}
      <SOURCE MIDI
        HASDATA 1 480 QN
        CCINTERP 32
        E 0 93 2a 33
        E 80 83 2a 00
        E 0 93 2a 4c
        E 16 83 2a 00
        E 0 93 2a 3b
        E 32 83 2a 00
        E 0 93 2a 19
        E 16 83 2a 00
        E 64 93 2a 4c
        E 16 83 2a 00
        E 0 93 2a 3b
        E 32 83 2a 00
        E 0 93 2a 19
        E 16 83 2a 00
        E 16 93 2a 6e
        E 48 83 2a 00
        E 0 93 2a 66
        E 16 83 2a 00
        E 0 93 2a 22
        E 48 83 2a 00
        E 16 93 2a 2a
        E 272 83 2a 00
        E 0 93 2a 66
        E 16 83 2a 00
        E 0 93 2a 3b
        E 96 83 2a 00
        E 0 93 2a 4c
        E 16 83 2a 00
        E 0 93 2a 3b
        E 32 83 2a 00
        E 0 93 2a 19
        E 16 83 2a 00
        E 64 93 2a 4c
        E 16 83 2a 00
        E 0 93 2a 3b
        E 32 83 2a 00
        E 0 93 2a 19
        E 16 83 2a 00
        E 48 93 2a 66
        E 16 83 2a 00
        E 0 93 2a 3b
        E 352 83 2a 00
        E 0 93 2a 33
        E 16 83 2a 00
        E 0 93 2a 22
        E 32 83 2a 00
        E 32 93 2a 33
        E 16 83 2a 00
        E 0 93 2a 22
        E 32 83 2a 00
        E 32 93 2a 33
        E 16 83 2a 00
        E 0 93 2a 22
        E 32 83 2a 00
        E 32 93 2a 66
        E 16 83 2a 00
        E 0 93 2a 3b
        E 336 83 2a 00
        E 0 93 2a 66
        E 16 83 2a 00
        E 0 93 2a 3b
        E 352 83 2a 00
        E 0 93 2a 66
        E 16 83 2a 00
        E 0 93 2a 3b
        E 352 83 2a 00
        E 112 93 2a 77
        E 32 83 2a 00
        E 80 93 2a 77
        E 32 83 2a 00
        E 96 93 2a 77
        E 32 83 2a 00
        E 448 93 2a 44
        E 16 83 2a 00
        E 0 93 2a 19
        E 16 83 2a 00
        E 0 93 2a 11
        E 16 83 2a 00
        E 0 93 2a 08
        E 16 83 2a 00
        E 48 93 2a 77
        E 32 83 2a 00
        E 96 93 2a 77
        E 32 83 2a 00
        E 80 93 2a 66
        E 16 83 2a 00
        E 0 93 2a 3b
        E 112 83 2a 00
        E 0 93 2a 77
        E 32 83 2a 00
        E 64 93 2a 7f
        E 16 83 2a 00
        E 0 93 2a 7f
        E 32 83 2a 00
        E 32 93 2a 5d
        E 32 83 2a 00
        E 0 93 2a 5d
        E 16 83 2a 00
        E 32 93 2a 77
        E 32 83 2a 00
        E 0 93 2a 77
        E 32 83 2a 00
        E 16 93 2a 4c
        E 32 83 2a 00
        E 0 93 2a 4c
        E 32 83 2a 00
        E 32 93 2a 4c
        E 48 83 2a 00
        E 0 93 2a 44
        E 32 83 2a 00
        E 32 93 2a 3b
        E 32 83 2a 00
        E 0 93 2a 3b
        E 16 83 2a 00
        E 32 93 2a 33
        E 32 83 2a 00
        E 0 93 2a 33
        E 32 83 2a 00
        E 16 93 2a 2a
        E 32 83 2a 00
        E 0 93 2a 2a
        E 32 83 2a 00
        E 192 93 2a 66
        E 16 83 2a 00
        E 0 93 2a 3b
        E 96 83 2a 00
        E 0 93 2a 77
        E 32 83 2a 00
        E 96 93 2a 77
        E 32 83 2a 00
        E 208 93 2a 44
        E 16 83 2a 00
        E 0 93 2a 19
        E 16 83 2a 00
        E 0 93 2a 11
        E 16 83 2a 00
        E 0 93 2a 08
        E 16 83 2a 00
        E 48 93 2a 77
        E 32 83 2a 00
        E 96 93 2a 77
        E 32 83 2a 00
        E 80 93 2a 66
        E 16 83 2a 00
        E 0 93 2a 3b
        E 112 83 2a 00
        E 0 93 2a 77
        E 32 83 2a 00
        E 80 93 2a 77
        E 32 83 2a 00
        E 96 93 2a 44
        E 16 83 2a 00
        E 0 93 2a 19
        E 16 83 2a 00
        E 0 93 2a 11
        E 16 83 2a 00
        E 0 93 2a 08
        E 16 83 2a 00
        E 48 93 2a 77
        E 32 83 2a 00
        E 96 93 2a 77
        E 32 83 2a 00
        E 80 93 2a 44
        E 16 83 2a 00
        E 0 93 2a 19
        E 16 83 2a 00
        E 0 93 2a 11
        E 16 83 2a 00
        E 0 93 2a 08
        E 16 83 2a 00
        E 64 93 2a 77
        E 32 83 2a 00
        E 208 93 2a 66
        E 16 83 2a 00
        E 0 93 2a 3b
        E 96 83 2a 00
        E 0 93 2a 77
        E 32 83 2a 00
        E 96 93 2a 66
        E 16 83 2a 00
        E 0 93 2a 3b
        E 224 83 2a 00
        E 0 93 2a 44
        E 16 83 2a 00
        E 0 93 2a 19
        E 16 83 2a 00
        E 0 93 2a 11
        E 16 83 2a 00
        E 0 93 2a 08
        E 16 83 2a 00
        E 48 93 2a 77
        E 32 83 2a 00
        E 16 b3 7b 00
        E 0 ff 2f 00
      >
    >
  >
>