<REAPER_PROJECT 0.1 "7.27/win64" 1707000000
  <NOTES 0 2
    |ReapNES Studio Project
    |MIDI Import - Bubble_Bobble_title_rom_v1
  >
  RIPPLE 0
  GROUPOVERRIDE 0 0 0
  AUTOXFADE 129
  ENVATTACH 3
  POOLEDENVATTACH 0
  MIXERUIFLAGS 11 48
  ENVFADESZ10 40
  PEAKGAIN 1
  FEEDBACK 0
  PANLAW 1
  PROJOFFS 0 0 0
  MAXPROJLEN 0 0
  GRID 3199 8 1 8 1 0 0 0
  TIMEMODE 1 5 -1 30 0 0 -1
  VIDEO_CONFIG 0 0 65792
  PANMODE 3
  PANLAWFLAGS 3
  CURSOR 0
  ZOOM 100 0 0
  VZOOMEX 6 0
  USE_REC_CFG 0
  RECMODE 1
  SMPTESYNC 0 30 100 40 1000 300 0 0 1 0 0
  LOOP 0
  LOOPGRAN 0 4
  RECORD_PATH "Media" ""
  <RECORD_CFG
    ZXZhdxgAAQ==
  >
  <APPLYFX_CFG
  >
  RENDER_FILE ""
  RENDER_PATTERN ""
  RENDER_FMT 0 2 0
  RENDER_1X 0
  RENDER_RANGE 1 0 0 18 1000
  RENDER_RESAMPLE 3 0 1
  RENDER_ADDTOPROJ 0
  RENDER_STEMS 0
  RENDER_DITHER 0
  TIMELOCKMODE 1
  TEMPOENVLOCKMODE 1
  ITEMMIX 1
  DEFPITCHMODE 589824 0
  TAKELANE 1
  SAMPLERATE 44100 0 0
  <RENDER_CFG
    ZXZhdxgAAQ==
  >
  LOCK 1
  <METRONOME 6 2
    VOL 0.25 0.125
    BEATLEN 4
    FREQ 1760 880 1
    SAMPLES "" ""
    SPLIGNORE 0 0
    SPLDEF 2 660 "" 0
    SPLDEF 3 440 "" 0
    PATTERN 0 169
    PATTERNSTR ABBB
    MULT 1
  >
  GLOBAL_AUTO -1
  TEMPO 128.59999614200012 4 4
  PLAYRATE 1 0 0.25 4
  SELECTION 0 0
  SELECTION2 0 0
  MASTERAUTOMODE 0
  MASTERTRACKHEIGHT 0 0
  MASTERPEAKCOL 16576
  MASTERMUTESOLO 0
  MASTERTRACKVIEW 0 0.6667 0.5 0.5 0 0 0 0 0 0 0 0 0 0
  MASTERHWOUT 0 0 1 0 0 0 0 -1
  MASTER_NCH 2 2
  MASTER_VOLUME 1 0 -1 -1 1
  MASTER_PANMODE 3
  MASTER_PANLAWFLAGS 3
  MASTER_FX 1
  MASTER_SEL 0
  <MASTERPLAYSPEEDENV
    EGUID {716794EE-F524-4471-A5CB-8FC15C92DCD2}
    ACT 0 -1
    VIS 0 1 1
    LANEHEIGHT 0 0
    ARM 0
    DEFSHAPE 0 -1 -1
  >
  <TEMPOENVEX
    EGUID {B2205C53-F47B-408B-9C42-CE7CDB015464}
    ACT 1 -1
    VIS 1 0 1
    LANEHEIGHT 0 0
    ARM 0
    DEFSHAPE 1 -1 -1
  >
  <PROJBAY
  >
  <TRACK {DFAD826E-EADE-4D68-8B94-05F3DBE297B6}
    NAME "NES - Pulse 1 [ch0]"
    PEAKCOL 16576606
    BEAT -1
    AUTOMODE 0
    PANLAWFLAGS 3
    VOLPAN 1 0 -1 -1 1
    MUTESOLO 0 0 0
    IPHASE 0
    PLAYOFFS 0 1
    ISBUS 0 0
    BUSCOMP 0 0 0 0 0
    SHOWINMIX 1 0.6667 0.5 1 0.5 0 0 0
    FIXEDLANES 9 0 0 0 0
    SEL 1
    REC 1 5088 1 0 0 0 0 0
    VU 2
    TRACKHEIGHT 0 0 0 0 0 0 0
    INQ 0 0 0 0.5 100 0 0 100
    NCHAN 2
    FX 1
    TRACKID {DFAD826E-EADE-4D68-8B94-05F3DBE297B6}
    PERF 0
    MIDIOUT -1
    MAINSEND 1 0
    <FXCHAIN
      WNDRECT 24 52 700 560
      SHOW 0
      LASTSEL 0
      DOCKED 0
      BYPASS 0 0 0
      <JS "ReapNES Studio/ReapNES_Console.jsfx" ""
        2 15 1 10 80 10 100 2 1 15 1 5 60 10 80 1 1 0 50 0 0 15 1 0 100 0 0 0.500000 0.500000 0.400000 0.300000 0.800000 0 1 0 0 0 0 - - - - - - - - - - - - - - - - - - - - - - - - - -
      >
      FLOATPOS 0 0 0 0
      FXID {B79ACDDD-A2FB-4A3E-99E4-4E8CDE2F3A88}
      WAK 0 0
    >
    <ITEM
      POSITION 0
      LENGTH 3.5614309000000004
      LOOP 0
      ALLTAKES 0
      FADEIN 0 0 0 0 0 0 0
      FADEOUT 0 0 0 0 0 0 0
      MUTE 0 0
      SEL 0
      IGUID {2286277B-8287-4C2F-BAD2-965E01C0A18D}
      <SOURCE MIDI
        HASDATA 1 480 QN
        CCINTERP 32
        E 0 c0 50
        E 96 b0 0c 40
        E 0 b0 0b 6e
        E 0 90 50 6e
        E 32 b0 0b 5d
        E 16 b0 0b 44
        E 16 b0 0b 2a
        E 16 b0 0b 11
        E 16 b0 0b 08
        E 16 b0 0b 11
        E 16 b0 0b 2a
        E 16 b0 0b 44
        E 16 b0 0b 4c
        E 16 b0 0b 5d
        E 16 b0 0b 6e
        E 0 80 50 00
        E 0 90 55 6e
        E 32 b0 0b 5d
        E 16 b0 0b 44
        E 16 b0 0b 2a
        E 16 b0 0b 11
        E 16 b0 0b 08
        E 16 b0 0b 11
        E 16 b0 0b 2a
        E 16 b0 0b 44
        E 16 b0 0b 4c
        E 16 b0 0b 5d
        E 16 b0 0b 6e
        E 0 80 55 00
        E 0 90 50 6e
        E 32 b0 0b 5d
        E 16 b0 0b 44
        E 16 b0 0b 2a
        E 16 b0 0b 11
        E 16 b0 0b 08
        E 16 b0 0b 11
        E 16 b0 0b 2a
        E 16 b0 0b 44
        E 16 b0 0b 4c
        E 16 b0 0b 5d
        E 16 b0 0b 6e
        E 0 80 50 00
        E 0 90 55 6e
        E 32 b0 0b 5d
        E 16 b0 0b 44
        E 16 b0 0b 2a
        E 16 b0 0b 11
        E 16 b0 0b 08
        E 16 b0 0b 11
        E 16 b0 0b 2a
        E 16 b0 0b 44
        E 16 b0 0b 4c
        E 16 b0 0b 5d
        E 16 b0 0b 6e
        E 0 80 55 00
        E 0 90 50 6e
        E 32 b0 0b 5d
        E 16 b0 0b 44
        E 16 b0 0b 2a
        E 16 b0 0b 11
        E 16 b0 0b 08
        E 16 b0 0b 11
        E 16 b0 0b 2a
        E 16 b0 0b 44
        E 16 b0 0b 4c
        E 16 b0 0b 5d
        E 16 b0 0b 6e
        E 0 80 50 00
        E 0 90 55 6e
        E 32 b0 0b 5d
        E 16 b0 0b 44
        E 16 b0 0b 2a
        E 16 b0 0b 11
        E 16 b0 0b 08
        E 16 b0 0b 11
        E 16 b0 0b 2a
        E 16 b0 0b 44
        E 16 b0 0b 4c
        E 16 b0 0b 5d
        E 16 b0 0b 6e
        E 0 80 55 00
        E 0 90 50 6e
        E 32 b0 0b 5d
        E 16 b0 0b 44
        E 16 b0 0b 2a
        E 16 b0 0b 11
        E 16 b0 0b 08
        E 16 b0 0b 11
        E 16 b0 0b 2a
        E 16 b0 0b 44
        E 16 b0 0b 4c
        E 16 b0 0b 5d
        E 16 b0 0b 6e
        E 0 80 50 00
        E 0 90 55 6e
        E 32 b0 0b 5d
        E 16 b0 0b 44
        E 16 b0 0b 2a
        E 16 b0 0b 11
        E 16 b0 0b 08
        E 16 b0 0b 11
        E 16 b0 0b 2a
        E 16 b0 0b 44
        E 16 b0 0b 4c
        E 16 b0 0b 5d
        E 16 b0 0b 6e
        E 0 80 55 00
        E 0 90 50 6e
        E 32 b0 0b 5d
        E 16 b0 0b 44
        E 16 b0 0b 2a
        E 16 b0 0b 11
        E 16 b0 0b 08
        E 16 b0 0b 11
        E 16 b0 0b 2a
        E 16 b0 0b 44
        E 16 b0 0b 4c
        E 16 b0 0b 5d
        E 16 b0 0b 6e
        E 0 80 50 00
        E 0 90 55 6e
        E 32 b0 0b 5d
        E 16 b0 0b 44
        E 16 b0 0b 2a
        E 16 b0 0b 11
        E 16 b0 0b 08
        E 16 b0 0b 11
        E 16 b0 0b 2a
        E 16 b0 0b 44
        E 16 b0 0b 4c
        E 16 b0 0b 5d
        E 16 b0 0b 6e
        E 0 80 55 00
        E 0 90 2a 6e
        E 32 b0 0b 5d
        E 16 b0 0b 44
        E 16 b0 0b 2a
        E 16 b0 0b 11
        E 16 b0 0b 08
        E 16 b0 0b 11
        E 16 b0 0b 2a
        E 16 b0 0b 44
        E 16 b0 0b 4c
        E 16 b0 0b 5d
        E 16 b0 0b 6e
        E 0 80 2a 00
        E 0 90 2e 6e
        E 32 b0 0b 5d
        E 16 b0 0b 44
        E 16 b0 0b 2a
        E 16 b0 0b 11
        E 16 b0 0b 08
        E 16 b0 0b 11
        E 16 b0 0b 2a
        E 16 b0 0b 44
        E 16 b0 0b 4c
        E 16 b0 0b 5d
        E 16 b0 0b 6e
        E 0 80 2e 00
        E 0 90 33 6e
        E 32 b0 0b 5d
        E 16 b0 0b 44
        E 16 b0 0b 2a
        E 16 b0 0b 11
        E 16 b0 0b 08
        E 16 b0 0b 11
        E 16 b0 0b 2a
        E 16 b0 0b 44
        E 16 b0 0b 4c
        E 16 b0 0b 5d
        E 16 b0 0b 6e
        E 0 80 33 00
        E 0 90 38 6e
        E 32 b0 0b 5d
        E 16 b0 0b 44
        E 16 b0 0b 2a
        E 16 b0 0b 11
        E 16 b0 0b 08
        E 16 b0 0b 11
        E 16 b0 0b 2a
        E 16 b0 0b 44
        E 16 b0 0b 4c
        E 16 b0 0b 5d
        E 16 b0 0b 6e
        E 0 80 38 00
        E 0 90 3d 6e
        E 32 b0 0b 5d
        E 16 b0 0b 44
        E 16 b0 0b 2a
        E 16 b0 0b 11
        E 16 b0 0b 08
        E 16 b0 0b 11
        E 16 b0 0b 2a
        E 16 b0 0b 44
        E 16 b0 0b 4c
        E 16 b0 0b 5d
        E 16 b0 0b 6e
        E 0 80 3d 00
        E 0 90 42 6e
        E 32 b0 0b 5d
        E 16 b0 0b 44
        E 16 b0 0b 2a
        E 16 b0 0b 11
        E 16 b0 0b 08
        E 16 b0 0b 11
        E 16 b0 0b 2a
        E 16 b0 0b 44
        E 16 b0 0b 4c
        E 16 b0 0b 5d
        E 16 b0 0b 6e
        E 0 80 42 00
        E 0 90 46 6e
        E 32 b0 0b 5d
        E 16 b0 0b 44
        E 16 b0 0b 2a
        E 16 b0 0b 11
        E 16 b0 0b 08
        E 16 b0 0b 11
        E 16 b0 0b 2a
        E 16 b0 0b 44
        E 16 b0 0b 4c
        E 16 b0 0b 5d
        E 16 b0 0b 6e
        E 0 80 46 00
        E 0 90 4b 6e
        E 32 b0 0b 5d
        E 16 b0 0b 44
        E 16 b0 0b 2a
        E 16 b0 0b 11
        E 16 b0 0b 08
        E 16 b0 0b 11
        E 16 b0 0b 2a
        E 16 b0 0b 44
        E 16 b0 0b 4c
        E 16 b0 0b 5d
        E 16 80 4b 00
        E 112 b0 7b 00
        E 0 ff 2f 00
      >
    >
  >
  <TRACK {2F029283-37D7-42A3-BE04-651882481EF9}
    NAME "NES - Pulse 2 [ch1]"
    PEAKCOL 10092441
    BEAT -1
    AUTOMODE 0
    PANLAWFLAGS 3
    VOLPAN 1 0 -1 -1 1
    MUTESOLO 0 0 0
    IPHASE 0
    PLAYOFFS 0 1
    ISBUS 0 0
    BUSCOMP 0 0 0 0 0
    SHOWINMIX 1 0.6667 0.5 1 0.5 0 0 0
    FIXEDLANES 9 0 0 0 0
    SEL 0
    REC 0 5088 1 0 0 0 0 0
    VU 2
    TRACKHEIGHT 0 0 0 0 0 0 0
    INQ 0 0 0 0.5 100 0 0 100
    NCHAN 2
    FX 1
    TRACKID {2F029283-37D7-42A3-BE04-651882481EF9}
    PERF 0
    MIDIOUT -1
    MAINSEND 1 0
    <FXCHAIN
      WNDRECT 24 52 700 560
      SHOW 0
      LASTSEL 0
      DOCKED 0
      BYPASS 0 0 0
      <JS "ReapNES Studio/ReapNES_Console.jsfx" ""
        2 15 1 10 80 10 100 2 1 15 1 5 60 10 80 1 1 0 50 0 0 15 1 0 100 0 0 0.500000 0.500000 0.400000 0.300000 0.800000 1 1 0 0 0 0 - - - - - - - - - - - - - - - - - - - - - - - - - -
      >
      FLOATPOS 0 0 0 0
      FXID {B5B906C3-C2BE-486E-BD97-213BBF3FCE4B}
      WAK 0 0
    >
    <ITEM
      POSITION 0
      LENGTH 3.5614309000000004
      LOOP 0
      ALLTAKES 0
      FADEIN 0 0 0 0 0 0 0
      FADEOUT 0 0 0 0 0 0 0
      MUTE 0 0
      SEL 0
      IGUID {1C5DE60C-18DD-4986-B20D-36CF1E42DCEE}
      <SOURCE MIDI
        HASDATA 1 480 QN
        CCINTERP 32
        E 0 c1 51
        E 0 b1 0c 40
        E 0 b1 0b 6e
        E 0 91 57 6e
        E 32 b1 0b 5d
        E 16 b1 0b 44
        E 16 b1 0b 2a
        E 16 b1 0b 11
        E 16 b1 0b 08
        E 16 b1 0b 11
        E 16 b1 0b 2a
        E 16 b1 0b 44
        E 16 b1 0b 4c
        E 16 b1 0b 5d
        E 16 b1 0b 6e
        E 0 81 57 00
        E 0 91 52 6e
        E 32 b1 0b 5d
        E 16 b1 0b 44
        E 16 b1 0b 2a
        E 16 b1 0b 11
        E 16 b1 0b 08
        E 16 b1 0b 11
        E 16 b1 0b 2a
        E 16 b1 0b 44
        E 16 b1 0b 4c
        E 16 b1 0b 5d
        E 16 b1 0b 6e
        E 0 81 52 00
        E 0 91 57 6e
        E 32 b1 0b 5d
        E 16 b1 0b 44
        E 16 b1 0b 2a
        E 16 b1 0b 11
        E 16 b1 0b 08
        E 16 b1 0b 11
        E 16 b1 0b 2a
        E 16 b1 0b 44
        E 16 b1 0b 4c
        E 16 b1 0b 5d
        E 16 b1 0b 6e
        E 0 81 57 00
        E 0 91 52 6e
        E 32 b1 0b 5d
        E 16 b1 0b 44
        E 16 b1 0b 2a
        E 16 b1 0b 11
        E 16 b1 0b 08
        E 16 b1 0b 11
        E 16 b1 0b 2a
        E 16 b1 0b 44
        E 16 b1 0b 4c
        E 16 b1 0b 5d
        E 16 b1 0b 6e
        E 0 81 52 00
        E 0 91 57 6e
        E 32 b1 0b 5d
        E 16 b1 0b 44
        E 16 b1 0b 2a
        E 16 b1 0b 11
        E 16 b1 0b 08
        E 16 b1 0b 11
        E 16 b1 0b 2a
        E 16 b1 0b 44
        E 16 b1 0b 4c
        E 16 b1 0b 5d
        E 16 b1 0b 6e
        E 0 81 57 00
        E 0 91 52 6e
        E 32 b1 0b 5d
        E 16 b1 0b 44
        E 16 b1 0b 2a
        E 16 b1 0b 11
        E 16 b1 0b 08
        E 16 b1 0b 11
        E 16 b1 0b 2a
        E 16 b1 0b 44
        E 16 b1 0b 4c
        E 16 b1 0b 5d
        E 16 b1 0b 6e
        E 0 81 52 00
        E 0 91 57 6e
        E 32 b1 0b 5d
        E 16 b1 0b 44
        E 16 b1 0b 2a
        E 16 b1 0b 11
        E 16 b1 0b 08
        E 16 b1 0b 11
        E 16 b1 0b 2a
        E 16 b1 0b 44
        E 16 b1 0b 4c
        E 16 b1 0b 5d
        E 16 b1 0b 6e
        E 0 81 57 00
        E 0 91 52 6e
        E 32 b1 0b 5d
        E 16 b1 0b 44
        E 16 b1 0b 2a
        E 16 b1 0b 11
        E 16 b1 0b 08
        E 16 b1 0b 11
        E 16 b1 0b 2a
        E 16 b1 0b 44
        E 16 b1 0b 4c
        E 16 b1 0b 5d
        E 16 b1 0b 6e
        E 0 81 52 00
        E 0 91 57 6e
        E 32 b1 0b 5d
        E 16 b1 0b 44
        E 16 b1 0b 2a
        E 16 b1 0b 11
        E 16 b1 0b 08
        E 16 b1 0b 11
        E 16 b1 0b 2a
        E 16 b1 0b 44
        E 16 b1 0b 4c
        E 16 b1 0b 5d
        E 16 b1 0b 6e
        E 0 81 57 00
        E 0 91 52 6e
        E 32 b1 0b 5d
        E 16 b1 0b 44
        E 16 b1 0b 2a
        E 16 b1 0b 11
        E 16 b1 0b 08
        E 16 b1 0b 11
        E 16 b1 0b 2a
        E 16 b1 0b 44
        E 16 b1 0b 4c
        E 16 b1 0b 5d
        E 16 b1 0b 6e
        E 0 81 52 00
        E 0 91 57 6e
        E 32 b1 0b 5d
        E 16 b1 0b 44
        E 16 b1 0b 2a
        E 16 b1 0b 11
        E 16 b1 0b 08
        E 16 b1 0b 11
        E 16 b1 0b 2a
        E 16 b1 0b 44
        E 16 b1 0b 4c
        E 16 b1 0b 5d
        E 16 b1 0b 6e
        E 0 81 57 00
        E 0 91 2c 6e
        E 32 b1 0b 5d
        E 16 b1 0b 44
        E 16 b1 0b 2a
        E 16 b1 0b 11
        E 16 b1 0b 08
        E 16 b1 0b 11
        E 16 b1 0b 2a
        E 16 b1 0b 44
        E 16 b1 0b 4c
        E 16 b1 0b 5d
        E 16 b1 0b 6e
        E 0 81 2c 00
        E 0 91 31 6e
        E 32 b1 0b 5d
        E 16 b1 0b 44
        E 16 b1 0b 2a
        E 16 b1 0b 11
        E 16 b1 0b 08
        E 16 b1 0b 11
        E 16 b1 0b 2a
        E 16 b1 0b 44
        E 16 b1 0b 4c
        E 16 b1 0b 5d
        E 16 b1 0b 6e
        E 0 81 31 00
        E 0 91 36 6e
        E 32 b1 0b 5d
        E 16 b1 0b 44
        E 16 b1 0b 2a
        E 16 b1 0b 11
        E 16 b1 0b 08
        E 16 b1 0b 11
        E 16 b1 0b 2a
        E 16 b1 0b 44
        E 16 b1 0b 4c
        E 16 b1 0b 5d
        E 16 b1 0b 6e
        E 0 81 36 00
        E 0 91 3a 6e
        E 32 b1 0b 5d
        E 16 b1 0b 44
        E 16 b1 0b 2a
        E 16 b1 0b 11
        E 16 b1 0b 08
        E 16 b1 0b 11
        E 16 b1 0b 2a
        E 16 b1 0b 44
        E 16 b1 0b 4c
        E 16 b1 0b 5d
        E 16 b1 0b 6e
        E 0 81 3a 00
        E 0 91 3f 6e
        E 32 b1 0b 5d
        E 16 b1 0b 44
        E 16 b1 0b 2a
        E 16 b1 0b 11
        E 16 b1 0b 08
        E 16 b1 0b 11
        E 16 b1 0b 2a
        E 16 b1 0b 44
        E 16 b1 0b 4c
        E 16 b1 0b 5d
        E 16 b1 0b 6e
        E 0 81 3f 00
        E 0 91 44 6e
        E 32 b1 0b 5d
        E 16 b1 0b 44
        E 16 b1 0b 2a
        E 16 b1 0b 11
        E 16 b1 0b 08
        E 16 b1 0b 11
        E 16 b1 0b 2a
        E 16 b1 0b 44
        E 16 b1 0b 4c
        E 16 b1 0b 5d
        E 16 b1 0b 6e
        E 0 81 44 00
        E 0 91 49 6e
        E 32 b1 0b 5d
        E 16 b1 0b 44
        E 16 b1 0b 2a
        E 16 b1 0b 11
        E 16 b1 0b 08
        E 16 b1 0b 11
        E 16 b1 0b 2a
        E 16 b1 0b 44
        E 16 b1 0b 4c
        E 16 b1 0b 5d
        E 16 b1 0b 6e
        E 0 81 49 00
        E 0 91 4e 6e
        E 32 b1 0b 5d
        E 16 b1 0b 44
        E 16 b1 0b 2a
        E 16 b1 0b 11
        E 16 b1 0b 08
        E 16 b1 0b 11
        E 16 b1 0b 2a
        E 16 b1 0b 44
        E 16 b1 0b 4c
        E 16 b1 0b 5d
        E 16 81 4e 00
        E 16 b1 7b 00
        E 0 ff 2f 00
      >
    >
  >
  <TRACK {66172090-7669-4EEA-970E-4BF7AA9CA022}
    NAME "NES - Triangle"
    PEAKCOL 16744192
    BEAT -1
    AUTOMODE 0
    PANLAWFLAGS 3
    VOLPAN 1 0 -1 -1 1
    MUTESOLO 0 0 0
    IPHASE 0
    PLAYOFFS 0 1
    ISBUS 0 0
    BUSCOMP 0 0 0 0 0
    SHOWINMIX 1 0.6667 0.5 1 0.5 0 0 0
    FIXEDLANES 9 0 0 0 0
    SEL 0
    REC 0 5088 1 0 0 0 0 0
    VU 2
    TRACKHEIGHT 0 0 0 0 0 0 0
    INQ 0 0 0 0.5 100 0 0 100
    NCHAN 2
    FX 1
    TRACKID {66172090-7669-4EEA-970E-4BF7AA9CA022}
    PERF 0
    MIDIOUT -1
    MAINSEND 1 0
    <FXCHAIN
      WNDRECT 24 52 700 560
      SHOW 0
      LASTSEL 0
      DOCKED 0
      BYPASS 0 0 0
      <JS "ReapNES Studio/ReapNES_Console.jsfx" ""
        2 15 1 10 80 10 100 2 1 15 1 5 60 10 80 1 1 0 50 0 0 15 1 0 100 0 0 0.500000 0.500000 0.400000 0.300000 0.800000 2 1 0 0 0 0 - - - - - - - - - - - - - - - - - - - - - - - - - -
      >
      FLOATPOS 0 0 0 0
      FXID {5210A5ED-EE54-4E4D-91BD-B0226D736493}
      WAK 0 0
    >
  >
  <TRACK {C31C8C05-EC86-43AB-BDB4-CB0B8BC783CE}
    NAME "NES - Noise / Drums"
    PEAKCOL 11184810
    BEAT -1
    AUTOMODE 0
    PANLAWFLAGS 3
    VOLPAN 1 0 -1 -1 1
    MUTESOLO 0 0 0
    IPHASE 0
    PLAYOFFS 0 1
    ISBUS 0 0
    BUSCOMP 0 0 0 0 0
    SHOWINMIX 1 0.6667 0.5 1 0.5 0 0 0
    FIXEDLANES 9 0 0 0 0
    SEL 0
    REC 0 5088 1 0 0 0 0 0
    VU 2
    TRACKHEIGHT 0 0 0 0 0 0 0
    INQ 0 0 0 0.5 100 0 0 100
    NCHAN 2
    FX 1
    TRACKID {C31C8C05-EC86-43AB-BDB4-CB0B8BC783CE}
    PERF 0
    MIDIOUT -1
    MAINSEND 1 0
    <FXCHAIN
      WNDRECT 24 52 700 560
      SHOW 0
      LASTSEL 0
      DOCKED 0
      BYPASS 0 0 0
      <JS "ReapNES Studio/ReapNES_Console.jsfx" ""
        2 15 1 10 80 10 100 2 1 15 1 5 60 10 80 1 1 0 50 0 0 15 1 0 100 0 0 0.500000 0.500000 0.400000 0.300000 0.800000 3 1 0 0 0 0 - - - - - - - - - - - - - - - - - - - - - - - - - -
      >
      FLOATPOS 0 0 0 0
      FXID {716D17B7-A1BD-4544-A5C0-155BE01D4A6A}
      WAK 0 0
    >
  >
>