<REAPER_PROJECT 0.1 "7.27/win64" 1707000000
  <NOTES 0 2
    |ReapNES Studio Project
    |MIDI Import - Bionic_Commando_title_rom_v1
  >
  RIPPLE 0
  GROUPOVERRIDE 0 0 0
  AUTOXFADE 129
  ENVATTACH 3
  POOLEDENVATTACH 0
  MIXERUIFLAGS 11 48
  ENVFADESZ10 40
  PEAKGAIN 1
  FEEDBACK 0
  PANLAW 1
  PROJOFFS 0 0 0
  MAXPROJLEN 0 0
  GRID 3199 8 1 8 1 0 0 0
  TIMEMODE 1 5 -1 30 0 0 -1
  VIDEO_CONFIG 0 0 65792
  PANMODE 3
  PANLAWFLAGS 3
  CURSOR 0
  ZOOM 100 0 0
  VZOOMEX 6 0
  USE_REC_CFG 0
  RECMODE 1
  SMPTESYNC 0 30 100 40 1000 300 0 0 1 0 0
  LOOP 0
  LOOPGRAN 0 4
  RECORD_PATH "Media" ""
  <RECORD_CFG
    ZXZhdxgAAQ==
  >
  <APPLYFX_CFG
  >
  RENDER_FILE ""
  RENDER_PATTERN ""
  RENDER_FMT 0 2 0
  RENDER_1X 0
  RENDER_RANGE 1 0 0 18 1000
  RENDER_RESAMPLE 3 0 1
  RENDER_ADDTOPROJ 0
  RENDER_STEMS 0
  RENDER_DITHER 0
  TIMELOCKMODE 1
  TEMPOENVLOCKMODE 1
  ITEMMIX 1
  DEFPITCHMODE 589824 0
  TAKELANE 1
  SAMPLERATE 44100 0 0
  <RENDER_CFG
    ZXZhdxgAAQ==
  >
  LOCK 1
  <METRONOME 6 2
    VOL 0.25 0.125
    BEATLEN 4
    FREQ 1760 880 1
    SAMPLES "" ""
    SPLIGNORE 0 0
    SPLDEF 2 660 "" 0
    SPLDEF 3 440 "" 0
    PATTERN 0 169
    PATTERNSTR ABBB
    MULT 1
  >
  GLOBAL_AUTO -1
  TEMPO 128.59999614200012 4 4
  PLAYRATE 1 0 0.25 4
  SELECTION 0 0
  SELECTION2 0 0
  MASTERAUTOMODE 0
  MASTERTRACKHEIGHT 0 0
  MASTERPEAKCOL 16576
  MASTERMUTESOLO 0
  MASTERTRACKVIEW 0 0.6667 0.5 0.5 0 0 0 0 0 0 0 0 0 0
  MASTERHWOUT 0 0 1 0 0 0 0 -1
  MASTER_NCH 2 2
  MASTER_VOLUME 1 0 -1 -1 1
  MASTER_PANMODE 3
  MASTER_PANLAWFLAGS 3
  MASTER_FX 1
  MASTER_SEL 0
  <MASTERPLAYSPEEDENV
    EGUID {3D2A3327-9286-4F7A-9714-86BF731CCDA1}
    ACT 0 -1
    VIS 0 1 1
    LANEHEIGHT 0 0
    ARM 0
    DEFSHAPE 0 -1 -1
  >
  <TEMPOENVEX
    EGUID {4D8737F7-7B68-4401-9412-67A4145329F5}
    ACT 1 -1
    VIS 1 0 1
    LANEHEIGHT 0 0
    ARM 0
    DEFSHAPE 1 -1 -1
  >
  <PROJBAY
  >
  <TRACK {5604A0AA-14EB-4277-A085-DA496E07FE5F}
    NAME "NES - Pulse 1 [ch0]"
    PEAKCOL 16576606
    BEAT -1
    AUTOMODE 0
    PANLAWFLAGS 3
    VOLPAN 1 0 -1 -1 1
    MUTESOLO 0 0 0
    IPHASE 0
    PLAYOFFS 0 1
    ISBUS 0 0
    BUSCOMP 0 0 0 0 0
    SHOWINMIX 1 0.6667 0.5 1 0.5 0 0 0
    FIXEDLANES 9 0 0 0 0
    SEL 1
    REC 1 5088 1 0 0 0 0 0
    VU 2
    TRACKHEIGHT 0 0 0 0 0 0 0
    INQ 0 0 0 0.5 100 0 0 100
    NCHAN 2
    FX 1
    TRACKID {5604A0AA-14EB-4277-A085-DA496E07FE5F}
    PERF 0
    MIDIOUT -1
    MAINSEND 1 0
    <FXCHAIN
      WNDRECT 24 52 700 560
      SHOW 0
      LASTSEL 0
      DOCKED 0
      BYPASS 0 0 0
      <JS "ReapNES Studio/ReapNES_Console.jsfx" ""
        2 15 1 10 80 10 100 2 1 15 1 5 60 10 80 1 1 0 50 0 0 15 1 0 100 0 0 0.500000 0.500000 0.400000 0.300000 0.800000 0 1 0 0 0 0 - - - - - - - - - - - - - - - - - - - - - - - - - -
      >
      FLOATPOS 0 0 0 0
      FXID {09F63BF2-395C-436A-A9B4-49047D2D26E6}
      WAK 0 0
    >
    <ITEM
      POSITION 0
      LENGTH 55.738726400000004
      LOOP 0
      ALLTAKES 0
      FADEIN 0 0 0 0 0 0 0
      FADEOUT 0 0 0 0 0 0 0
      MUTE 0 0
      SEL 0
      IGUID {732E47F7-AC35-4D01-8D1D-67FB4922E25B}
      <SOURCE MIDI
        HASDATA 1 480 QN
        CCINTERP 32
        E 0 c0 50
        E 0 b0 0c 40
        E 0 b0 0b 55
        E 0 90 38 55
        E 320 80 38 00
        E 16 90 38 55
        E 96 80 38 00
        E 16 90 3d 55
        E 656 80 3d 00
        E 16 90 3d 55
        E 208 80 3d 00
        E 16 90 3b 55
        E 432 80 3b 00
        E 16 90 39 55
        E 96 80 39 00
        E 16 90 38 55
        E 96 80 38 00
        E 16 90 39 55
        E 96 80 39 00
        E 16 90 36 55
        E 96 80 36 00
        E 16 90 38 55
        E 320 80 38 00
        E 16 90 31 55
        E 96 80 31 00
        E 16 90 31 55
        E 432 80 31 00
        E 464 90 38 55
        E 320 80 38 00
        E 16 90 38 55
        E 96 80 38 00
        E 16 90 3d 55
        E 656 80 3d 00
        E 16 90 3d 55
        E 208 80 3d 00
        E 16 90 3b 55
        E 432 80 3b 00
        E 16 90 39 55
        E 96 80 39 00
        E 16 90 38 55
        E 96 80 38 00
        E 16 90 39 55
        E 96 80 39 00
        E 16 90 36 55
        E 96 80 36 00
        E 16 90 38 55
        E 320 80 38 00
        E 16 90 3f 55
        E 96 80 3f 00
        E 16 90 3f 55
        E 880 80 3f 00
        E 16 90 38 55
        E 320 80 38 00
        E 16 90 38 55
        E 96 80 38 00
        E 16 90 40 55
        E 320 80 40 00
        E 16 90 3f 55
        E 96 80 3f 00
        E 16 90 3d 55
        E 656 80 3d 00
        E 16 90 3b 55
        E 432 80 3b 00
        E 16 90 38 55
        E 96 80 38 00
        E 16 90 36 55
        E 96 80 36 00
        E 16 90 34 55
        E 432 80 34 00
        E 16 90 38 55
        E 320 80 38 00
        E 16 90 36 55
        E 96 80 36 00
        E 16 90 34 55
        E 432 80 34 00
        E 16 90 36 55
        E 160 80 36 00
        E 16 90 34 55
        E 160 80 34 00
        E 16 90 36 55
        E 160 80 36 00
        E 16 90 33 55
        E 96 b0 0b 4c
        E 112 b0 0b 44
        E 112 b0 0b 3b
        E 112 b0 0b 33
        E 112 b0 0b 2a
        E 112 b0 0b 22
        E 112 b0 0b 19
        E 112 b0 0b 11
        E 112 b0 0b 08
        E 112 80 33 00
        E 2144 b0 0c 20
        E 0 b0 0b 55
        E 0 90 49 55
        E 32 b0 0b 3b
        E 48 80 49 00
        E 16 b0 0b 55
        E 0 90 43 55
        E 32 b0 0b 3b
        E 48 80 43 00
        E 16 b0 0b 55
        E 0 90 42 55
        E 32 b0 0b 3b
        E 48 80 42 00
        E 16 b0 0b 55
        E 0 90 48 55
        E 32 b0 0b 3b
        E 48 80 48 00
        E 16 b0 0b 55
        E 0 90 47 55
        E 32 b0 0b 3b
        E 48 80 47 00
        E 16 b0 0b 55
        E 0 90 46 55
        E 32 b0 0b 3b
        E 48 80 46 00
        E 16 b0 0b 55
        E 0 90 45 55
        E 32 b0 0b 3b
        E 48 80 45 00
        E 16 b0 0b 55
        E 0 90 3f 55
        E 32 b0 0b 3b
        E 48 80 3f 00
        E 16 b0 0b 55
        E 0 90 44 55
        E 32 b0 0b 3b
        E 48 80 44 00
        E 16 b0 0b 55
        E 0 90 43 55
        E 32 b0 0b 3b
        E 48 80 43 00
        E 16 b0 0b 55
        E 0 90 3d 55
        E 32 b0 0b 3b
        E 48 80 3d 00
        E 16 b0 0b 55
        E 0 90 3c 55
        E 32 b0 0b 3b
        E 48 80 3c 00
        E 16 b0 0b 55
        E 0 90 49 55
        E 32 b0 0b 3b
        E 48 80 49 00
        E 16 b0 0b 55
        E 0 90 43 55
        E 32 b0 0b 3b
        E 48 80 43 00
        E 16 b0 0b 55
        E 0 90 42 55
        E 32 b0 0b 3b
        E 48 80 42 00
        E 16 b0 0b 55
        E 0 90 48 55
        E 32 b0 0b 3b
        E 48 80 48 00
        E 16 b0 0b 55
        E 0 90 47 55
        E 32 b0 0b 3b
        E 48 80 47 00
        E 16 b0 0b 55
        E 0 90 46 55
        E 32 b0 0b 3b
        E 48 80 46 00
        E 16 b0 0b 55
        E 0 90 45 55
        E 32 b0 0b 3b
        E 48 80 45 00
        E 16 b0 0b 55
        E 0 90 3f 55
        E 32 b0 0b 3b
        E 48 80 3f 00
        E 16 b0 0b 55
        E 0 90 44 55
        E 32 b0 0b 3b
        E 48 80 44 00
        E 16 b0 0b 55
        E 0 90 43 55
        E 32 b0 0b 3b
        E 48 80 43 00
        E 16 b0 0b 55
        E 0 90 3d 55
        E 32 b0 0b 3b
        E 48 80 3d 00
        E 16 b0 0b 55
        E 0 90 3c 55
        E 32 b0 0b 3b
        E 48 80 3c 00
        E 16 b0 0b 55
        E 0 90 49 55
        E 32 b0 0b 3b
        E 48 80 49 00
        E 16 b0 0b 55
        E 0 90 43 55
        E 32 b0 0b 3b
        E 48 80 43 00
        E 16 b0 0b 55
        E 0 90 42 55
        E 32 b0 0b 3b
        E 48 80 42 00
        E 16 b0 0b 55
        E 0 90 48 55
        E 32 b0 0b 3b
        E 48 80 48 00
        E 16 b0 0b 55
        E 0 90 47 55
        E 32 b0 0b 3b
        E 48 80 47 00
        E 16 b0 0b 55
        E 0 90 46 55
        E 32 b0 0b 3b
        E 48 80 46 00
        E 16 b0 0b 55
        E 0 90 45 55
        E 32 b0 0b 3b
        E 48 80 45 00
        E 16 b0 0b 55
        E 0 90 3f 55
        E 32 b0 0b 3b
        E 48 80 3f 00
        E 16 b0 0b 55
        E 0 90 44 55
        E 32 b0 0b 3b
        E 48 80 44 00
        E 16 b0 0b 55
        E 0 90 43 55
        E 32 b0 0b 3b
        E 48 80 43 00
        E 16 b0 0b 55
        E 0 90 3d 55
        E 32 b0 0b 3b
        E 48 80 3d 00
        E 16 b0 0b 55
        E 0 90 3c 55
        E 32 b0 0b 3b
        E 48 80 3c 00
        E 16 b0 0b 55
        E 0 90 49 55
        E 32 b0 0b 3b
        E 48 80 49 00
        E 16 b0 0b 55
        E 0 90 43 55
        E 32 b0 0b 3b
        E 48 80 43 00
        E 16 b0 0b 55
        E 0 90 42 55
        E 32 b0 0b 3b
        E 48 80 42 00
        E 16 b0 0b 55
        E 0 90 48 55
        E 32 b0 0b 3b
        E 48 80 48 00
        E 16 b0 0b 55
        E 0 90 47 55
        E 32 b0 0b 3b
        E 48 80 47 00
        E 16 b0 0b 55
        E 0 90 46 55
        E 32 b0 0b 3b
        E 48 80 46 00
        E 16 b0 0b 55
        E 0 90 45 55
        E 32 b0 0b 3b
        E 48 80 45 00
        E 16 b0 0b 55
        E 0 90 3f 55
        E 32 b0 0b 3b
        E 48 80 3f 00
        E 16 b0 0b 55
        E 0 90 44 55
        E 32 b0 0b 3b
        E 48 80 44 00
        E 16 b0 0b 55
        E 0 90 43 55
        E 32 b0 0b 3b
        E 48 80 43 00
        E 16 b0 0b 55
        E 0 90 3d 55
        E 32 b0 0b 3b
        E 48 80 3d 00
        E 16 b0 0b 55
        E 0 90 3c 55
        E 32 b0 0b 3b
        E 48 80 3c 00
        E 16 b0 0b 55
        E 0 90 49 55
        E 32 b0 0b 3b
        E 48 80 49 00
        E 16 b0 0b 55
        E 0 90 43 55
        E 32 b0 0b 3b
        E 48 80 43 00
        E 16 b0 0b 55
        E 0 90 42 55
        E 32 b0 0b 3b
        E 48 80 42 00
        E 16 b0 0b 55
        E 0 90 48 55
        E 32 b0 0b 3b
        E 48 80 48 00
        E 16 b0 0b 55
        E 0 90 47 55
        E 32 b0 0b 3b
        E 48 80 47 00
        E 16 b0 0b 55
        E 0 90 46 55
        E 32 b0 0b 3b
        E 48 80 46 00
        E 16 b0 0b 55
        E 0 90 45 55
        E 32 b0 0b 3b
        E 48 80 45 00
        E 16 b0 0b 55
        E 0 90 3f 55
        E 32 b0 0b 3b
        E 48 80 3f 00
        E 16 b0 0b 55
        E 0 90 44 55
        E 32 b0 0b 3b
        E 48 80 44 00
        E 16 b0 0b 55
        E 0 90 43 55
        E 32 b0 0b 3b
        E 48 80 43 00
        E 16 b0 0b 55
        E 0 90 3d 55
        E 32 b0 0b 3b
        E 48 80 3d 00
        E 16 b0 0b 55
        E 0 90 3c 55
        E 32 b0 0b 3b
        E 48 80 3c 00
        E 16 b0 0b 55
        E 0 90 49 55
        E 32 b0 0b 3b
        E 48 80 49 00
        E 16 b0 0b 55
        E 0 90 43 55
        E 32 b0 0b 3b
        E 48 80 43 00
        E 16 b0 0b 55
        E 0 90 42 55
        E 32 b0 0b 3b
        E 48 80 42 00
        E 16 b0 0b 55
        E 0 90 48 55
        E 32 b0 0b 3b
        E 48 80 48 00
        E 16 b0 0b 55
        E 0 90 47 55
        E 32 b0 0b 3b
        E 48 80 47 00
        E 16 b0 0b 55
        E 0 90 46 55
        E 32 b0 0b 3b
        E 48 80 46 00
        E 16 b0 0b 55
        E 0 90 45 55
        E 32 b0 0b 3b
        E 48 80 45 00
        E 16 b0 0b 55
        E 0 90 3f 55
        E 32 b0 0b 3b
        E 48 80 3f 00
        E 16 b0 0b 55
        E 0 90 44 55
        E 32 b0 0b 3b
        E 48 80 44 00
        E 16 b0 0b 55
        E 0 90 43 55
        E 32 b0 0b 3b
        E 48 80 43 00
        E 16 b0 0b 55
        E 0 90 3d 55
        E 32 b0 0b 3b
        E 48 80 3d 00
        E 16 b0 0b 55
        E 0 90 3c 55
        E 32 b0 0b 3b
        E 48 80 3c 00
        E 16 b0 0b 55
        E 0 90 49 55
        E 32 b0 0b 3b
        E 48 80 49 00
        E 16 b0 0b 55
        E 0 90 43 55
        E 32 b0 0b 3b
        E 48 80 43 00
        E 16 b0 0b 55
        E 0 90 42 55
        E 32 b0 0b 3b
        E 48 80 42 00
        E 16 b0 0b 55
        E 0 90 48 55
        E 32 b0 0b 3b
        E 48 80 48 00
        E 16 b0 0b 55
        E 0 90 47 55
        E 32 b0 0b 3b
        E 48 80 47 00
        E 16 b0 0b 55
        E 0 90 46 55
        E 32 b0 0b 3b
        E 48 80 46 00
        E 16 b0 0b 55
        E 0 90 45 55
        E 32 b0 0b 3b
        E 48 80 45 00
        E 16 b0 0b 55
        E 0 90 3f 55
        E 32 b0 0b 3b
        E 48 80 3f 00
        E 16 b0 0b 55
        E 0 90 44 55
        E 32 b0 0b 3b
        E 48 80 44 00
        E 16 b0 0b 55
        E 0 90 43 55
        E 32 b0 0b 3b
        E 48 80 43 00
        E 16 b0 0b 55
        E 0 90 3d 55
        E 32 b0 0b 3b
        E 48 80 3d 00
        E 16 b0 0b 55
        E 0 90 3c 55
        E 32 b0 0b 3b
        E 48 80 3c 00
        E 16 b0 0b 55
        E 0 90 49 55
        E 32 b0 0b 3b
        E 48 80 49 00
        E 16 b0 0b 55
        E 0 90 43 55
        E 32 b0 0b 3b
        E 48 80 43 00
        E 16 b0 0b 55
        E 0 90 42 55
        E 32 b0 0b 3b
        E 48 80 42 00
        E 16 b0 0b 55
        E 0 90 48 55
        E 32 b0 0b 3b
        E 48 80 48 00
        E 16 b0 0b 55
        E 0 90 47 55
        E 32 b0 0b 3b
        E 48 80 47 00
        E 16 b0 0b 55
        E 0 90 46 55
        E 32 b0 0b 3b
        E 48 80 46 00
        E 16 b0 0b 55
        E 0 90 45 55
        E 32 b0 0b 3b
        E 48 80 45 00
        E 16 b0 0b 55
        E 0 90 3f 55
        E 32 b0 0b 3b
        E 48 80 3f 00
        E 16 b0 0b 55
        E 0 90 44 55
        E 32 b0 0b 3b
        E 48 80 44 00
        E 16 b0 0b 55
        E 0 90 43 55
        E 32 b0 0b 3b
        E 48 80 43 00
        E 16 b0 0b 55
        E 0 90 3d 55
        E 32 b0 0b 3b
        E 48 80 3d 00
        E 16 b0 0b 55
        E 0 90 3c 55
        E 32 b0 0b 3b
        E 48 80 3c 00
        E 5792 b0 0c 40
        E 0 b0 0b 55
        E 0 90 33 55
        E 320 80 33 00
        E 16 90 33 55
        E 96 80 33 00
        E 16 90 38 55
        E 320 80 38 00
        E 16 90 38 55
        E 96 80 38 00
        E 16 90 36 55
        E 2672 80 36 00
        E 16 90 34 55
        E 96 80 34 00
        E 16 90 33 55
        E 96 80 33 00
        E 16 90 34 55
        E 96 80 34 00
        E 16 90 31 55
        E 96 80 31 00
        E 16 90 33 55
        E 320 80 33 00
        E 16 90 2c 55
        E 96 80 2c 00
        E 16 90 2c 55
        E 2672 80 2c 00
        E 16 90 33 55
        E 320 80 33 00
        E 16 90 33 55
        E 96 80 33 00
        E 16 90 38 55
        E 320 80 38 00
        E 16 90 38 55
        E 96 80 38 00
        E 16 90 36 55
        E 2672 80 36 00
        E 16 90 3a 55
        E 96 80 3a 00
        E 16 90 38 55
        E 96 80 38 00
        E 16 90 3a 55
        E 96 80 3a 00
        E 16 90 36 55
        E 96 80 36 00
        E 16 90 3d 55
        E 880 80 3d 00
        E 16 90 3b 55
        E 880 80 3b 00
        E 16 90 3a 55
        E 880 80 3a 00
        E 16 90 3b 55
        E 880 80 3b 00
        E 3152 90 33 55
        E 288 b0 0b 4c
        E 32 80 33 00
        E 16 90 33 4c
        E 96 80 33 00
        E 16 90 38 4c
        E 320 80 38 00
        E 16 90 38 4c
        E 16 b0 0b 44
        E 80 80 38 00
        E 16 90 36 44
        E 416 b0 0b 3b
        E 512 b0 0b 33
        E 512 b0 0b 2a
        E 512 b0 0b 22
        E 512 b0 0b 19
        E 208 80 36 00
        E 16 90 34 19
        E 16 80 34 00
        E 6304 b0 7b 00
        E 0 ff 2f 00
      >
    >
  >
  <TRACK {E785965A-4046-451B-AD01-BCF53C3B5AA7}
    NAME "NES - Pulse 2 [ch1]"
    PEAKCOL 10092441
    BEAT -1
    AUTOMODE 0
    PANLAWFLAGS 3
    VOLPAN 1 0 -1 -1 1
    MUTESOLO 0 0 0
    IPHASE 0
    PLAYOFFS 0 1
    ISBUS 0 0
    BUSCOMP 0 0 0 0 0
    SHOWINMIX 1 0.6667 0.5 1 0.5 0 0 0
    FIXEDLANES 9 0 0 0 0
    SEL 0
    REC 0 5088 1 0 0 0 0 0
    VU 2
    TRACKHEIGHT 0 0 0 0 0 0 0
    INQ 0 0 0 0.5 100 0 0 100
    NCHAN 2
    FX 1
    TRACKID {E785965A-4046-451B-AD01-BCF53C3B5AA7}
    PERF 0
    MIDIOUT -1
    MAINSEND 1 0
    <FXCHAIN
      WNDRECT 24 52 700 560
      SHOW 0
      LASTSEL 0
      DOCKED 0
      BYPASS 0 0 0
      <JS "ReapNES Studio/ReapNES_Console.jsfx" ""
        2 15 1 10 80 10 100 2 1 15 1 5 60 10 80 1 1 0 50 0 0 15 1 0 100 0 0 0.500000 0.500000 0.400000 0.300000 0.800000 1 1 0 0 0 0 - - - - - - - - - - - - - - - - - - - - - - - - - -
      >
      FLOATPOS 0 0 0 0
      FXID {F2E0EEC9-1060-4DF6-96BF-40352472450D}
      WAK 0 0
    >
    <ITEM
      POSITION 0
      LENGTH 55.738726400000004
      LOOP 0
      ALLTAKES 0
      FADEIN 0 0 0 0 0 0 0
      FADEOUT 0 0 0 0 0 0 0
      MUTE 0 0
      SEL 0
      IGUID {41A77AA8-8387-4386-9ABA-182806AD350C}
      <SOURCE MIDI
        HASDATA 1 480 QN
        CCINTERP 32
        E 0 c1 51
        E 0 b1 0c 20
        E 0 b1 0b 55
        E 0 91 30 55
        E 432 81 30 00
        E 16 91 34 55
        E 880 81 34 00
        E 16 91 36 55
        E 880 81 36 00
        E 16 91 34 55
        E 880 81 34 00
        E 16 91 2f 55
        E 96 81 2f 00
        E 128 91 2f 55
        E 96 81 2f 00
        E 352 91 2f 55
        E 208 81 2f 00
        E 16 91 34 55
        E 880 81 34 00
        E 16 91 36 55
        E 880 81 36 00
        E 16 91 30 55
        E 320 81 30 00
        E 16 91 3c 55
        E 96 81 3c 00
        E 16 91 3c 55
        E 880 81 3c 00
        E 16 91 36 55
        E 432 81 36 00
        E 16 91 39 55
        E 320 81 39 00
        E 16 91 36 55
        E 96 81 36 00
        E 16 91 34 55
        E 432 81 34 00
        E 16 91 32 55
        E 880 81 32 00
        E 16 91 31 55
        E 432 81 31 00
        E 16 91 2f 55
        E 432 81 2f 00
        E 16 91 31 55
        E 432 81 31 00
        E 16 91 2f 55
        E 96 b1 0b 4c
        E 112 b1 0b 44
        E 112 b1 0b 3b
        E 112 b1 0b 33
        E 112 b1 0b 2a
        E 112 b1 0b 22
        E 112 b1 0b 19
        E 112 b1 0b 11
        E 112 b1 0b 08
        E 112 81 2f 00
        E 7664 b1 0c 40
        E 0 b1 0b 33
        E 0 91 59 33
        E 16 81 59 00
        E 16 91 5a 33
        E 16 81 5a 00
        E 16 91 59 33
        E 16 81 59 00
        E 112 91 59 33
        E 16 81 59 00
        E 16 91 5a 33
        E 16 81 5a 00
        E 16 91 59 33
        E 16 81 59 00
        E 16 91 5a 33
        E 16 81 5a 00
        E 16 91 59 33
        E 16 81 59 00
        E 16 91 5a 33
        E 64 b1 0b 2a
        E 80 b1 0b 22
        E 64 81 5a 00
        E 784 b1 0b 33
        E 0 91 59 33
        E 16 81 59 00
        E 16 91 5a 33
        E 16 81 5a 00
        E 16 91 59 33
        E 16 81 59 00
        E 16 91 5a 33
        E 16 81 5a 00
        E 16 91 59 33
        E 16 81 59 00
        E 16 91 5a 33
        E 64 b1 0b 2a
        E 80 b1 0b 22
        E 64 81 5a 00
        E 5152 b1 0c 20
        E 0 b1 0b 55
        E 0 91 2c 55
        E 32 b1 0b 4c
        E 48 b1 0b 44
        E 48 b1 0b 3b
        E 48 b1 0b 33
        E 48 b1 0b 2a
        E 48 b1 0b 22
        E 48 b1 0b 19
        E 48 b1 0b 11
        E 48 b1 0b 08
        E 16 81 2c 00
        E 16 b1 0b 55
        E 0 91 2c 55
        E 32 b1 0b 4c
        E 48 b1 0b 44
        E 48 b1 0b 3b
        E 48 b1 0b 33
        E 48 b1 0b 2a
        E 48 b1 0b 22
        E 48 b1 0b 19
        E 48 b1 0b 11
        E 48 b1 0b 08
        E 16 81 2c 00
        E 16 b1 0b 55
        E 0 91 2c 55
        E 32 b1 0b 4c
        E 48 b1 0b 44
        E 48 b1 0b 3b
        E 48 b1 0b 33
        E 48 b1 0b 2a
        E 48 b1 0b 22
        E 48 b1 0b 19
        E 48 b1 0b 11
        E 48 b1 0b 08
        E 16 81 2c 00
        E 16 b1 0b 55
        E 0 91 2c 55
        E 32 b1 0b 4c
        E 48 b1 0b 44
        E 48 b1 0b 3b
        E 48 b1 0b 33
        E 48 b1 0b 2a
        E 48 b1 0b 22
        E 48 b1 0b 19
        E 48 b1 0b 11
        E 48 b1 0b 08
        E 16 81 2c 00
        E 16 b1 0b 55
        E 0 91 2c 55
        E 32 b1 0b 4c
        E 48 b1 0b 44
        E 48 b1 0b 3b
        E 48 b1 0b 33
        E 48 b1 0b 2a
        E 48 b1 0b 22
        E 48 b1 0b 19
        E 48 b1 0b 11
        E 48 b1 0b 08
        E 16 81 2c 00
        E 16 b1 0b 55
        E 0 91 2c 55
        E 32 b1 0b 4c
        E 48 b1 0b 44
        E 48 b1 0b 3b
        E 48 b1 0b 33
        E 48 b1 0b 2a
        E 48 b1 0b 22
        E 48 b1 0b 19
        E 48 b1 0b 11
        E 48 b1 0b 08
        E 16 81 2c 00
        E 16 b1 0b 55
        E 0 91 2c 55
        E 32 b1 0b 4c
        E 48 b1 0b 44
        E 48 b1 0b 3b
        E 48 b1 0b 33
        E 48 b1 0b 2a
        E 48 b1 0b 22
        E 48 b1 0b 19
        E 48 b1 0b 11
        E 48 b1 0b 08
        E 16 81 2c 00
        E 16 b1 0b 55
        E 0 91 2c 55
        E 32 b1 0b 4c
        E 48 b1 0b 44
        E 48 b1 0b 3b
        E 48 b1 0b 33
        E 48 b1 0b 2a
        E 48 b1 0b 22
        E 48 b1 0b 19
        E 48 b1 0b 11
        E 48 b1 0b 08
        E 16 81 2c 00
        E 16 b1 0b 55
        E 0 91 2c 55
        E 32 b1 0b 4c
        E 48 b1 0b 44
        E 48 b1 0b 3b
        E 48 b1 0b 33
        E 48 b1 0b 2a
        E 48 b1 0b 22
        E 48 b1 0b 19
        E 48 b1 0b 11
        E 48 b1 0b 08
        E 16 81 2c 00
        E 16 b1 0b 55
        E 0 91 33 55
        E 320 81 33 00
        E 16 91 33 55
        E 96 81 33 00
        E 16 91 3a 55
        E 432 81 3a 00
        E 16 91 36 55
        E 320 81 36 00
        E 16 91 36 55
        E 96 81 36 00
        E 16 91 3f 55
        E 880 81 3f 00
        E 16 91 3d 55
        E 880 81 3d 00
        E 16 91 3b 55
        E 880 81 3b 00
        E 16 91 3a 55
        E 880 81 3a 00
        E 16 91 3d 55
        E 880 81 3d 00
        E 16 91 3b 55
        E 880 81 3b 00
        E 464 91 33 55
        E 320 81 33 00
        E 16 91 33 55
        E 96 81 33 00
        E 16 91 3a 55
        E 432 81 3a 00
        E 16 91 36 55
        E 320 81 36 00
        E 16 91 36 55
        E 96 81 36 00
        E 16 91 3f 55
        E 880 81 3f 00
        E 16 91 3d 55
        E 432 81 3d 00
        E 16 91 3d 55
        E 96 81 3d 00
        E 16 91 3b 55
        E 96 81 3b 00
        E 16 91 3d 55
        E 96 81 3d 00
        E 16 91 3a 55
        E 96 81 3a 00
        E 16 91 3f 55
        E 3568 81 3f 00
        E 16 91 2c 55
        E 32 b1 0b 4c
        E 48 b1 0b 44
        E 48 b1 0b 3b
        E 48 b1 0b 33
        E 48 b1 0b 2a
        E 48 b1 0b 22
        E 48 b1 0b 19
        E 48 b1 0b 11
        E 48 b1 0b 08
        E 16 81 2c 00
        E 16 b1 0b 55
        E 0 91 2c 55
        E 32 b1 0b 4c
        E 48 b1 0b 44
        E 48 b1 0b 3b
        E 48 b1 0b 33
        E 48 b1 0b 2a
        E 48 b1 0b 22
        E 48 b1 0b 19
        E 48 b1 0b 11
        E 48 b1 0b 08
        E 16 81 2c 00
        E 16 b1 0b 55
        E 0 91 2c 55
        E 32 b1 0b 4c
        E 48 b1 0b 44
        E 48 b1 0b 3b
        E 48 b1 0b 33
        E 48 b1 0b 2a
        E 48 b1 0b 22
        E 48 b1 0b 19
        E 48 b1 0b 11
        E 48 b1 0b 08
        E 16 81 2c 00
        E 16 b1 0b 55
        E 0 91 2c 55
        E 32 b1 0b 4c
        E 48 b1 0b 44
        E 48 b1 0b 3b
        E 48 b1 0b 33
        E 48 b1 0b 2a
        E 48 b1 0b 22
        E 48 b1 0b 19
        E 48 b1 0b 11
        E 48 b1 0b 08
        E 16 81 2c 00
        E 16 b1 0b 55
        E 0 91 2c 55
        E 32 b1 0b 4c
        E 48 b1 0b 44
        E 48 b1 0b 3b
        E 48 b1 0b 33
        E 48 b1 0b 2a
        E 48 b1 0b 22
        E 48 b1 0b 19
        E 48 b1 0b 11
        E 48 b1 0b 08
        E 16 81 2c 00
        E 16 b1 0b 55
        E 0 91 2c 55
        E 32 b1 0b 4c
        E 48 b1 0b 44
        E 48 b1 0b 3b
        E 48 b1 0b 33
        E 48 b1 0b 2a
        E 48 b1 0b 22
        E 48 b1 0b 19
        E 48 b1 0b 11
        E 48 b1 0b 08
        E 16 81 2c 00
        E 16 b1 0b 55
        E 0 91 2c 55
        E 32 b1 0b 4c
        E 48 b1 0b 44
        E 48 b1 0b 3b
        E 48 b1 0b 33
        E 48 b1 0b 2a
        E 48 b1 0b 22
        E 48 b1 0b 19
        E 48 b1 0b 11
        E 48 b1 0b 08
        E 16 81 2c 00
        E 16 b1 0b 55
        E 0 91 2c 55
        E 32 b1 0b 4c
        E 48 b1 0b 44
        E 48 b1 0b 3b
        E 48 b1 0b 33
        E 48 b1 0b 2a
        E 48 b1 0b 22
        E 48 b1 0b 19
        E 48 b1 0b 11
        E 48 b1 0b 08
        E 16 81 2c 00
        E 16 b1 0b 4c
        E 0 91 2c 4c
        E 32 b1 0b 44
        E 48 b1 0b 3b
        E 48 b1 0b 33
        E 48 b1 0b 2a
        E 48 b1 0b 22
        E 48 b1 0b 19
        E 48 b1 0b 11
        E 48 b1 0b 08
        E 48 81 2c 00
        E 32 b1 0b 44
        E 0 91 33 44
        E 320 81 33 00
        E 16 91 33 44
        E 80 b1 0b 3b
        E 16 81 33 00
        E 16 91 3a 3b
        E 432 81 3a 00
        E 16 91 36 3b
        E 32 b1 0b 33
        E 288 81 36 00
        E 16 91 36 33
        E 96 81 36 00
        E 16 91 3f 33
        E 96 b1 0b 2a
        E 512 b1 0b 22
        E 272 81 3f 00
        E 16 91 3d 22
        E 224 b1 0b 19
        E 240 81 3d 00
        E 6304 b1 7b 00
        E 0 ff 2f 00
      >
    >
  >
  <TRACK {1728C4B3-767C-432F-AF23-E2DD9C5E89D6}
    NAME "NES - Triangle [ch2]"
    PEAKCOL 16744192
    BEAT -1
    AUTOMODE 0
    PANLAWFLAGS 3
    VOLPAN 1 0 -1 -1 1
    MUTESOLO 0 0 0
    IPHASE 0
    PLAYOFFS 0 1
    ISBUS 0 0
    BUSCOMP 0 0 0 0 0
    SHOWINMIX 1 0.6667 0.5 1 0.5 0 0 0
    FIXEDLANES 9 0 0 0 0
    SEL 0
    REC 0 5088 1 0 0 0 0 0
    VU 2
    TRACKHEIGHT 0 0 0 0 0 0 0
    INQ 0 0 0 0.5 100 0 0 100
    NCHAN 2
    FX 1
    TRACKID {1728C4B3-767C-432F-AF23-E2DD9C5E89D6}
    PERF 0
    MIDIOUT -1
    MAINSEND 1 0
    <FXCHAIN
      WNDRECT 24 52 700 560
      SHOW 0
      LASTSEL 0
      DOCKED 0
      BYPASS 0 0 0
      <JS "ReapNES Studio/ReapNES_Console.jsfx" ""
        2 15 1 10 80 10 100 2 1 15 1 5 60 10 80 1 1 0 50 0 0 15 1 0 100 0 0 0.500000 0.500000 0.400000 0.300000 0.800000 2 1 0 0 0 0 - - - - - - - - - - - - - - - - - - - - - - - - - -
      >
      FLOATPOS 0 0 0 0
      FXID {3E65907A-43D1-410F-ABED-727DDC13214C}
      WAK 0 0
    >
    <ITEM
      POSITION 0
      LENGTH 55.738726400000004
      LOOP 0
      ALLTAKES 0
      FADEIN 0 0 0 0 0 0 0
      FADEOUT 0 0 0 0 0 0 0
      MUTE 0 0
      SEL 0
      IGUID {A50C191B-5774-436A-9F4A-B3DCC3212422}
      <SOURCE MIDI
        HASDATA 1 480 QN
        CCINTERP 32
        E 0 c2 26
        E 0 b2 0b 7f
        E 0 92 2c 7f
        E 432 82 2c 00
        E 464 b2 0b 7f
        E 0 92 31 7f
        E 320 82 31 00
        E 16 b2 0b 7f
        E 0 92 31 7f
        E 96 82 31 00
        E 16 b2 0b 7f
        E 0 92 32 7f
        E 208 82 32 00
        E 16 b2 0b 7f
        E 0 92 32 7f
        E 208 82 32 00
        E 688 b2 0b 7f
        E 0 92 31 7f
        E 208 82 31 00
        E 16 b2 0b 7f
        E 0 92 31 7f
        E 96 82 31 00
        E 16 b2 0b 7f
        E 0 92 31 7f
        E 208 82 31 00
        E 16 b2 0b 7f
        E 0 92 31 7f
        E 96 82 31 00
        E 16 b2 0b 7f
        E 0 92 2c 7f
        E 96 82 2c 00
        E 16 b2 0b 7f
        E 0 92 2c 7f
        E 96 82 2c 00
        E 16 b2 0b 7f
        E 0 92 2c 7f
        E 208 82 2c 00
        E 240 b2 0b 7f
        E 0 92 2c 7f
        E 208 82 2c 00
        E 464 b2 0b 7f
        E 0 92 31 7f
        E 320 82 31 00
        E 16 b2 0b 7f
        E 0 92 31 7f
        E 96 82 31 00
        E 16 b2 0b 7f
        E 0 92 32 7f
        E 208 82 32 00
        E 16 b2 0b 7f
        E 0 92 32 7f
        E 208 82 32 00
        E 688 b2 0b 7f
        E 0 92 2c 7f
        E 208 82 2c 00
        E 16 b2 0b 7f
        E 0 92 2c 7f
        E 96 82 2c 00
        E 16 b2 0b 7f
        E 0 92 2c 7f
        E 208 82 2c 00
        E 16 b2 0b 7f
        E 0 92 2c 7f
        E 96 82 2c 00
        E 16 b2 0b 7f
        E 0 92 2c 7f
        E 208 82 2c 00
        E 16 b2 0b 7f
        E 0 92 2c 7f
        E 208 82 2c 00
        E 240 b2 0b 7f
        E 0 92 2c 7f
        E 208 82 2c 00
        E 16 b2 0b 7f
        E 0 92 2a 7f
        E 320 82 2a 00
        E 16 b2 0b 7f
        E 0 92 2c 7f
        E 96 82 2c 00
        E 16 b2 0b 7f
        E 0 92 2d 7f
        E 96 82 2d 00
        E 128 b2 0b 7f
        E 0 92 2d 7f
        E 96 82 2d 00
        E 16 b2 0b 7f
        E 0 92 2d 7f
        E 96 82 2d 00
        E 16 b2 0b 7f
        E 0 92 28 7f
        E 96 82 28 00
        E 128 b2 0b 7f
        E 0 92 28 7f
        E 96 82 28 00
        E 16 b2 0b 7f
        E 0 92 28 7f
        E 96 82 28 00
        E 16 b2 0b 7f
        E 0 92 28 7f
        E 96 82 28 00
        E 16 b2 0b 7f
        E 0 92 28 7f
        E 96 82 28 00
        E 16 b2 0b 7f
        E 0 92 28 7f
        E 96 82 28 00
        E 16 b2 0b 7f
        E 0 92 28 7f
        E 96 82 28 00
        E 16 b2 0b 7f
        E 0 92 2d 7f
        E 96 82 2d 00
        E 128 b2 0b 7f
        E 0 92 2d 7f
        E 96 82 2d 00
        E 16 b2 0b 7f
        E 0 92 2d 7f
        E 96 82 2d 00
        E 16 b2 0b 7f
        E 0 92 28 7f
        E 96 82 28 00
        E 128 b2 0b 7f
        E 0 92 28 7f
        E 96 82 28 00
        E 16 b2 0b 7f
        E 0 92 28 7f
        E 96 82 28 00
        E 16 b2 0b 7f
        E 0 92 2d 7f
        E 96 82 2d 00
        E 128 b2 0b 7f
        E 0 92 2d 7f
        E 96 82 2d 00
        E 16 b2 0b 7f
        E 0 92 2d 7f
        E 96 82 2d 00
        E 16 b2 0b 7f
        E 0 92 2c 7f
        E 160 82 2c 00
        E 16 b2 0b 7f
        E 0 92 2c 7f
        E 160 82 2c 00
        E 16 b2 0b 7f
        E 0 92 2c 7f
        E 160 82 2c 00
        E 16 b2 0b 7f
        E 0 92 2c 7f
        E 160 82 2c 00
        E 3280 b2 0b 7f
        E 0 92 43 7f
        E 80 82 43 00
        E 16 b2 0b 7f
        E 0 92 3d 7f
        E 80 82 3d 00
        E 16 b2 0b 7f
        E 0 92 3c 7f
        E 80 82 3c 00
        E 16 b2 0b 7f
        E 0 92 42 7f
        E 80 82 42 00
        E 16 b2 0b 7f
        E 0 92 41 7f
        E 80 82 41 00
        E 16 b2 0b 7f
        E 0 92 40 7f
        E 80 82 40 00
        E 16 b2 0b 7f
        E 0 92 3f 7f
        E 80 82 3f 00
        E 16 b2 0b 7f
        E 0 92 39 7f
        E 80 82 39 00
        E 16 b2 0b 7f
        E 0 92 3e 7f
        E 80 82 3e 00
        E 16 b2 0b 7f
        E 0 92 3d 7f
        E 80 82 3d 00
        E 16 b2 0b 7f
        E 0 92 37 7f
        E 80 82 37 00
        E 16 b2 0b 7f
        E 0 92 36 7f
        E 80 82 36 00
        E 16 b2 0b 7f
        E 0 92 43 7f
        E 80 82 43 00
        E 16 b2 0b 7f
        E 0 92 3d 7f
        E 80 82 3d 00
        E 16 b2 0b 7f
        E 0 92 3c 7f
        E 80 82 3c 00
        E 16 b2 0b 7f
        E 0 92 42 7f
        E 80 82 42 00
        E 16 b2 0b 7f
        E 0 92 41 7f
        E 80 82 41 00
        E 16 b2 0b 7f
        E 0 92 40 7f
        E 80 82 40 00
        E 16 b2 0b 7f
        E 0 92 3f 7f
        E 80 82 3f 00
        E 16 b2 0b 7f
        E 0 92 39 7f
        E 80 82 39 00
        E 16 b2 0b 7f
        E 0 92 3e 7f
        E 80 82 3e 00
        E 16 b2 0b 7f
        E 0 92 3d 7f
        E 80 82 3d 00
        E 16 b2 0b 7f
        E 0 92 37 7f
        E 80 82 37 00
        E 16 b2 0b 7f
        E 0 92 36 7f
        E 80 82 36 00
        E 16 b2 0b 7f
        E 0 92 43 7f
        E 80 82 43 00
        E 16 b2 0b 7f
        E 0 92 3d 7f
        E 80 82 3d 00
        E 16 b2 0b 7f
        E 0 92 3c 7f
        E 80 82 3c 00
        E 16 b2 0b 7f
        E 0 92 42 7f
        E 80 82 42 00
        E 16 b2 0b 7f
        E 0 92 41 7f
        E 80 82 41 00
        E 16 b2 0b 7f
        E 0 92 40 7f
        E 80 82 40 00
        E 16 b2 0b 7f
        E 0 92 3f 7f
        E 80 82 3f 00
        E 16 b2 0b 7f
        E 0 92 39 7f
        E 80 82 39 00
        E 16 b2 0b 7f
        E 0 92 3e 7f
        E 80 82 3e 00
        E 16 b2 0b 7f
        E 0 92 3d 7f
        E 80 82 3d 00
        E 16 b2 0b 7f
        E 0 92 37 7f
        E 80 82 37 00
        E 16 b2 0b 7f
        E 0 92 36 7f
        E 80 82 36 00
        E 16 b2 0b 7f
        E 0 92 43 7f
        E 80 82 43 00
        E 16 b2 0b 7f
        E 0 92 3d 7f
        E 80 82 3d 00
        E 16 b2 0b 7f
        E 0 92 3c 7f
        E 80 82 3c 00
        E 16 b2 0b 7f
        E 0 92 42 7f
        E 80 82 42 00
        E 16 b2 0b 7f
        E 0 92 41 7f
        E 80 82 41 00
        E 16 b2 0b 7f
        E 0 92 40 7f
        E 80 82 40 00
        E 16 b2 0b 7f
        E 0 92 3f 7f
        E 80 82 3f 00
        E 16 b2 0b 7f
        E 0 92 39 7f
        E 80 82 39 00
        E 16 b2 0b 7f
        E 0 92 3e 7f
        E 80 82 3e 00
        E 16 b2 0b 7f
        E 0 92 3d 7f
        E 80 82 3d 00
        E 16 b2 0b 7f
        E 0 92 37 7f
        E 80 82 37 00
        E 16 b2 0b 7f
        E 0 92 36 7f
        E 80 82 36 00
        E 16 b2 0b 7f
        E 0 92 37 7f
        E 80 82 37 00
        E 16 b2 0b 7f
        E 0 92 31 7f
        E 80 82 31 00
        E 16 b2 0b 7f
        E 0 92 30 7f
        E 80 82 30 00
        E 16 b2 0b 7f
        E 0 92 36 7f
        E 80 82 36 00
        E 16 b2 0b 7f
        E 0 92 35 7f
        E 80 82 35 00
        E 16 b2 0b 7f
        E 0 92 34 7f
        E 80 82 34 00
        E 16 b2 0b 7f
        E 0 92 33 7f
        E 80 82 33 00
        E 16 b2 0b 7f
        E 0 92 2d 7f
        E 80 82 2d 00
        E 16 b2 0b 7f
        E 0 92 32 7f
        E 80 82 32 00
        E 16 b2 0b 7f
        E 0 92 31 7f
        E 80 82 31 00
        E 16 b2 0b 7f
        E 0 92 2b 7f
        E 80 82 2b 00
        E 16 b2 0b 7f
        E 0 92 2a 7f
        E 80 82 2a 00
        E 16 b2 0b 7f
        E 0 92 37 7f
        E 80 82 37 00
        E 16 b2 0b 7f
        E 0 92 31 7f
        E 80 82 31 00
        E 16 b2 0b 7f
        E 0 92 30 7f
        E 80 82 30 00
        E 16 b2 0b 7f
        E 0 92 36 7f
        E 80 82 36 00
        E 16 b2 0b 7f
        E 0 92 35 7f
        E 80 82 35 00
        E 16 b2 0b 7f
        E 0 92 34 7f
        E 80 82 34 00
        E 16 b2 0b 7f
        E 0 92 33 7f
        E 80 82 33 00
        E 16 b2 0b 7f
        E 0 92 2d 7f
        E 80 82 2d 00
        E 16 b2 0b 7f
        E 0 92 32 7f
        E 80 82 32 00
        E 16 b2 0b 7f
        E 0 92 31 7f
        E 80 82 31 00
        E 16 b2 0b 7f
        E 0 92 2b 7f
        E 80 82 2b 00
        E 16 b2 0b 7f
        E 0 92 2a 7f
        E 80 82 2a 00
        E 16 b2 0b 7f
        E 0 92 37 7f
        E 80 82 37 00
        E 16 b2 0b 7f
        E 0 92 31 7f
        E 80 82 31 00
        E 16 b2 0b 7f
        E 0 92 30 7f
        E 80 82 30 00
        E 16 b2 0b 7f
        E 0 92 36 7f
        E 80 82 36 00
        E 16 b2 0b 7f
        E 0 92 35 7f
        E 80 82 35 00
        E 16 b2 0b 7f
        E 0 92 34 7f
        E 80 82 34 00
        E 16 b2 0b 7f
        E 0 92 33 7f
        E 80 82 33 00
        E 16 b2 0b 7f
        E 0 92 2d 7f
        E 80 82 2d 00
        E 16 b2 0b 7f
        E 0 92 32 7f
        E 80 82 32 00
        E 16 b2 0b 7f
        E 0 92 31 7f
        E 80 82 31 00
        E 16 b2 0b 7f
        E 0 92 2b 7f
        E 80 82 2b 00
        E 16 b2 0b 7f
        E 0 92 2a 7f
        E 80 82 2a 00
        E 16 b2 0b 7f
        E 0 92 37 7f
        E 80 82 37 00
        E 16 b2 0b 7f
        E 0 92 31 7f
        E 80 82 31 00
        E 16 b2 0b 7f
        E 0 92 30 7f
        E 80 82 30 00
        E 16 b2 0b 7f
        E 0 92 36 7f
        E 80 82 36 00
        E 16 b2 0b 7f
        E 0 92 35 7f
        E 80 82 35 00
        E 16 b2 0b 7f
        E 0 92 34 7f
        E 80 82 34 00
        E 16 b2 0b 7f
        E 0 92 33 7f
        E 80 82 33 00
        E 16 b2 0b 7f
        E 0 92 2d 7f
        E 80 82 2d 00
        E 16 b2 0b 7f
        E 0 92 32 7f
        E 80 82 32 00
        E 16 b2 0b 7f
        E 0 92 31 7f
        E 80 82 31 00
        E 2656 b2 0b 7f
        E 0 92 2c 7f
        E 432 82 2c 00
        E 16 b2 0b 7f
        E 0 92 2c 7f
        E 432 82 2c 00
        E 16 b2 0b 7f
        E 0 92 2c 7f
        E 432 82 2c 00
        E 16 b2 0b 7f
        E 0 92 2c 7f
        E 432 82 2c 00
        E 16 b2 0b 7f
        E 0 92 2c 7f
        E 432 82 2c 00
        E 16 b2 0b 7f
        E 0 92 2c 7f
        E 432 82 2c 00
        E 16 b2 0b 7f
        E 0 92 2c 7f
        E 432 82 2c 00
        E 16 b2 0b 7f
        E 0 92 2c 7f
        E 432 82 2c 00
        E 16 b2 0b 7f
        E 0 92 2c 7f
        E 432 82 2c 00
        E 16 b2 0b 7f
        E 0 92 2c 7f
        E 432 82 2c 00
        E 16 b2 0b 7f
        E 0 92 2c 7f
        E 432 82 2c 00
        E 16 b2 0b 7f
        E 0 92 2c 7f
        E 432 82 2c 00
        E 16 b2 0b 7f
        E 0 92 2c 7f
        E 432 82 2c 00
        E 16 b2 0b 7f
        E 0 92 2c 7f
        E 432 82 2c 00
        E 16 b2 0b 7f
        E 0 92 2c 7f
        E 432 82 2c 00
        E 16 b2 0b 7f
        E 0 92 2c 7f
        E 432 82 2c 00
        E 16 b2 0b 7f
        E 0 92 2c 7f
        E 432 82 2c 00
        E 16 b2 0b 7f
        E 0 92 2c 7f
        E 432 82 2c 00
        E 16 b2 0b 7f
        E 0 92 2c 7f
        E 432 82 2c 00
        E 16 b2 0b 7f
        E 0 92 2c 7f
        E 432 82 2c 00
        E 16 b2 0b 7f
        E 0 92 2c 7f
        E 432 82 2c 00
        E 16 b2 0b 7f
        E 0 92 2c 7f
        E 432 82 2c 00
        E 16 b2 0b 7f
        E 0 92 2c 7f
        E 432 82 2c 00
        E 16 b2 0b 7f
        E 0 92 2c 7f
        E 432 82 2c 00
        E 16 b2 0b 7f
        E 0 92 2c 7f
        E 432 82 2c 00
        E 16 b2 0b 7f
        E 0 92 2c 7f
        E 432 82 2c 00
        E 16 b2 0b 7f
        E 0 92 2c 7f
        E 432 82 2c 00
        E 16 b2 0b 7f
        E 0 92 2c 7f
        E 432 82 2c 00
        E 16 b2 0b 7f
        E 0 92 2c 7f
        E 432 82 2c 00
        E 16 b2 0b 7f
        E 0 92 2c 7f
        E 432 82 2c 00
        E 16 b2 0b 7f
        E 0 92 2c 7f
        E 432 82 2c 00
        E 16 b2 0b 7f
        E 0 92 2c 7f
        E 432 82 2c 00
        E 16 b2 0b 7f
        E 0 92 2c 7f
        E 432 82 2c 00
        E 16 b2 0b 7f
        E 0 92 2c 7f
        E 432 82 2c 00
        E 16 b2 0b 7f
        E 0 92 2c 7f
        E 432 82 2c 00
        E 16 b2 0b 7f
        E 0 92 2c 7f
        E 432 82 2c 00
        E 16 b2 0b 7f
        E 0 92 2c 7f
        E 432 82 2c 00
        E 16 b2 0b 7f
        E 0 92 2c 7f
        E 432 82 2c 00
        E 16 b2 0b 7f
        E 0 92 2c 7f
        E 432 82 2c 00
        E 16 b2 0b 7f
        E 0 92 2c 7f
        E 432 82 2c 00
        E 16 b2 0b 7f
        E 0 92 2c 7f
        E 432 82 2c 00
        E 16 b2 0b 7f
        E 0 92 2c 7f
        E 432 82 2c 00
        E 16 b2 0b 7f
        E 0 92 2c 7f
        E 432 82 2c 00
        E 16 b2 0b 7f
        E 0 92 2c 7f
        E 432 82 2c 00
        E 16 b2 0b 7f
        E 0 92 2c 7f
        E 432 82 2c 00
        E 16 b2 0b 7f
        E 0 92 2c 7f
        E 432 82 2c 00
        E 16 b2 0b 7f
        E 0 92 2c 7f
        E 432 82 2c 00
        E 16 b2 0b 7f
        E 0 92 2c 7f
        E 432 82 2c 00
        E 16 b2 0b 7f
        E 0 92 2c 7f
        E 432 82 2c 00
        E 16 b2 0b 7f
        E 0 92 2c 7f
        E 432 82 2c 00
        E 16 b2 0b 7f
        E 0 92 2c 7f
        E 432 82 2c 00
        E 16 b2 0b 7f
        E 0 92 2c 7f
        E 432 82 2c 00
        E 16 b2 0b 7f
        E 0 92 2c 7f
        E 432 82 2c 00
        E 16 b2 0b 7f
        E 0 92 2c 7f
        E 432 82 2c 00
        E 16 b2 0b 7f
        E 0 92 2c 7f
        E 432 82 2c 00
        E 16 b2 0b 7f
        E 0 92 2c 7f
        E 16 82 2c 00
        E 6304 b2 7b 00
        E 0 ff 2f 00
      >
    >
  >
  <TRACK {89308B68-E84D-460F-9CB8-4DDCE7B70F20}
    NAME "NES - Noise / Drums [ch3]"
    PEAKCOL 11184810
    BEAT -1
    AUTOMODE 0
    PANLAWFLAGS 3
    VOLPAN 1 0 -1 -1 1
    MUTESOLO 0 0 0
    IPHASE 0
    PLAYOFFS 0 1
    ISBUS 0 0
    BUSCOMP 0 0 0 0 0
    SHOWINMIX 1 0.6667 0.5 1 0.5 0 0 0
    FIXEDLANES 9 0 0 0 0
    SEL 0
    REC 0 5088 1 0 0 0 0 0
    VU 2
    TRACKHEIGHT 0 0 0 0 0 0 0
    INQ 0 0 0 0.5 100 0 0 100
    NCHAN 2
    FX 1
    TRACKID {89308B68-E84D-460F-9CB8-4DDCE7B70F20}
    PERF 0
    MIDIOUT -1
    MAINSEND 1 0
    <FXCHAIN
      WNDRECT 24 52 700 560
      SHOW 0
      LASTSEL 0
      DOCKED 0
      BYPASS 0 0 0
      <JS "ReapNES Studio/ReapNES_Console.jsfx" ""
        2 15 1 10 80 10 100 2 1 15 1 5 60 10 80 1 1 0 50 0 0 15 1 0 100 0 0 0.500000 0.500000 0.400000 0.300000 0.800000 3 1 0 0 0 0 - - - - - - - - - - - - - - - - - - - - - - - - - -
      >
      FLOATPOS 0 0 0 0
      FXID {026FE7A2-3572-4A06-AC72-4C1210D047CA}
      WAK 0 0
    >
    <ITEM
      POSITION 0
      LENGTH 55.738726400000004
      LOOP 0
      ALLTAKES 0
      FADEIN 0 0 0 0 0 0 0
      FADEOUT 0 0 0 0 0 0 0
      MUTE 0 0
      SEL 0
      IGUID {860FFFDF-8CB7-4978-94B9-69E1C7442315}
      <SOURCE MIDI
        HASDATA 1 480 QN
        CCINTERP 32
        E 0 93 2a 7f
        E 448 83 2a 00
        E 0 93 2a 7f
        E 80 83 2a 00
        E 0 93 2a 7f
        E 2032 83 2a 00
        E 0 93 2a 7f
        E 16 83 2a 00
        E 0 93 2a 7f
        E 80 83 2a 00
        E 32 93 2a 7f
        E 80 83 2a 00
        E 32 93 2a 7f
        E 80 83 2a 00
        E 144 93 2a 7f
        E 80 83 2a 00
        E 32 93 2a 7f
        E 80 83 2a 00
        E 144 93 2a 7f
        E 80 83 2a 00
        E 144 93 2a 7f
        E 448 83 2a 00
        E 0 93 2a 7f
        E 528 83 2a 00
        E 144 93 2a 7f
        E 80 83 2a 00
        E 32 93 2a 7f
        E 80 83 2a 00
        E 32 93 2a 7f
        E 80 83 2a 00
        E 32 93 2a 7f
        E 80 83 2a 00
        E 32 93 2a 7f
        E 80 83 2a 00
        E 144 93 2a 7f
        E 80 83 2a 00
        E 32 93 2a 7f
        E 80 83 2a 00
        E 32 93 2a 7f
        E 80 83 2a 00
        E 32 93 2a 7f
        E 80 83 2a 00
        E 32 93 2a 7f
        E 48 83 2a 00
        E 0 93 2a 7f
        E 1456 83 2a 00
        E 0 93 2a 7f
        E 16 83 2a 00
        E 0 93 2a 44
        E 352 83 2a 00
        E 0 93 2a 7f
        E 64 83 2a 00
        E 0 93 2a 7f
        E 80 83 2a 00
        E 0 93 2a 7f
        E 80 83 2a 00
        E 0 93 2a 7f
        E 64 83 2a 00
        E 0 93 2a 7f
        E 80 83 2a 00
        E 0 93 2a 7f
        E 80 83 2a 00
        E 144 93 2a 7f
        E 80 83 2a 00
        E 32 93 2a 7f
        E 80 83 2a 00
        E 32 93 2a 7f
        E 80 83 2a 00
        E 144 93 2a 7f
        E 80 83 2a 00
        E 32 93 2a 7f
        E 80 83 2a 00
        E 32 93 2a 7f
        E 80 83 2a 00
        E 32 93 2a 7f
        E 80 83 2a 00
        E 32 93 2a 7f
        E 80 83 2a 00
        E 32 93 2a 7f
        E 80 83 2a 00
        E 32 93 2a 7f
        E 80 83 2a 00
        E 0 93 2a 7f
        E 64 83 2a 00
        E 0 93 2a 7f
        E 80 83 2a 00
        E 0 93 2a 7f
        E 80 83 2a 00
        E 0 93 2a 7f
        E 64 83 2a 00
        E 0 93 2a 7f
        E 80 83 2a 00
        E 0 93 2a 7f
        E 80 83 2a 00
        E 144 93 2a 7f
        E 80 83 2a 00
        E 32 93 2a 7f
        E 80 83 2a 00
        E 32 93 2a 7f
        E 80 83 2a 00
        E 144 93 2a 7f
        E 80 83 2a 00
        E 32 93 2a 7f
        E 80 83 2a 00
        E 32 93 2a 7f
        E 80 83 2a 00
        E 96 93 2a 7f
        E 80 83 2a 00
        E 96 93 2a 7f
        E 80 83 2a 00
        E 96 93 2a 7f
        E 80 83 2a 00
        E 3712 93 2a 7f
        E 2032 83 2a 00
        E 0 93 2a 7f
        E 496 83 2a 00
        E 32 93 2a 08
        E 2784 83 2a 00
        E 0 93 2a 7f
        E 1264 83 2a 00
        E 0 93 2a 7f
        E 16 83 2a 00
        E 32 93 2a 08
        E 4656 83 2a 00
        E 0 93 2a 7f
        E 544 83 2a 00
        E 0 93 2a 7f
        E 2032 83 2a 00
        E 0 93 2a 7f
        E 16 83 2a 00
        E 0 93 2a 44
        E 64 83 2a 00
        E 32 93 2a 7f
        E 80 83 2a 00
        E 144 93 2a 7f
        E 80 83 2a 00
        E 144 93 2a 7f
        E 64 83 2a 00
        E 0 93 2a 7f
        E 80 83 2a 00
        E 0 93 2a 7f
        E 80 83 2a 00
        E 0 93 2a 7f
        E 64 83 2a 00
        E 0 93 2a 7f
        E 80 83 2a 00
        E 0 93 2a 7f
        E 80 83 2a 00
        E 0 93 2a 7f
        E 1424 83 2a 00
        E 144 93 2a 7f
        E 80 83 2a 00
        E 144 93 2a 7f
        E 80 83 2a 00
        E 32 93 2a 7f
        E 80 83 2a 00
        E 32 93 2a 7f
        E 80 83 2a 00
        E 32 93 2a 7f
        E 80 83 2a 00
        E 32 93 2a 7f
        E 64 83 2a 00
        E 0 93 2a 7f
        E 2032 83 2a 00
        E 0 93 2a 7f
        E 592 83 2a 00
        E 0 93 2a 7f
        E 80 83 2a 00
        E 144 93 2a 7f
        E 80 83 2a 00
        E 144 93 2a 7f
        E 80 83 2a 00
        E 32 93 2a 7f
        E 80 83 2a 00
        E 32 93 2a 7f
        E 80 83 2a 00
        E 32 93 2a 7f
        E 80 83 2a 00
        E 32 93 2a 7f
        E 80 83 2a 00
        E 32 93 2a 7f
        E 80 83 2a 00
        E 32 93 2a 7f
        E 80 83 2a 00
        E 32 93 2a 7f
        E 80 83 2a 00
        E 32 93 2a 7f
        E 80 83 2a 00
        E 144 93 2a 7f
        E 80 83 2a 00
        E 144 93 2a 7f
        E 64 83 2a 00
        E 0 93 2a 7f
        E 80 83 2a 00
        E 0 93 2a 7f
        E 80 83 2a 00
        E 0 93 2a 7f
        E 64 83 2a 00
        E 0 93 2a 7f
        E 80 83 2a 00
        E 0 93 2a 7f
        E 80 83 2a 00
        E 0 93 2a 7f
        E 480 83 2a 00
        E 0 93 2a 7f
        E 2032 83 2a 00
        E 0 93 2a 7f
        E 16 83 2a 00
        E 0 93 2a 08
        E 16 83 2a 00
        E 32 93 2a 7f
        E 80 83 2a 00
        E 32 93 2a 7f
        E 80 83 2a 00
        E 144 93 2a 7f
        E 80 83 2a 00
        E 144 93 2a 7f
        E 64 83 2a 00
        E 0 93 2a 7f
        E 80 83 2a 00
        E 0 93 2a 7f
        E 80 83 2a 00
        E 0 93 2a 7f
        E 64 83 2a 00
        E 0 93 2a 7f
        E 80 83 2a 00
        E 0 93 2a 7f
        E 80 83 2a 00
        E 0 93 2a 7f
        E 1424 83 2a 00
        E 144 93 2a 7f
        E 80 83 2a 00
        E 144 93 2a 7f
        E 80 83 2a 00
        E 32 93 2a 7f
        E 80 83 2a 00
        E 32 93 2a 7f
        E 80 83 2a 00
        E 32 93 2a 7f
        E 80 83 2a 00
        E 32 93 2a 7f
        E 1520 83 2a 00
        E 0 93 2a 7f
        E 16 83 2a 00
        E 0 93 2a 08
        E 1232 83 2a 00
        E 144 93 2a 7f
        E 80 83 2a 00
        E 144 93 2a 7f
        E 80 83 2a 00
        E 32 93 2a 7f
        E 80 83 2a 00
        E 32 93 2a 7f
        E 80 83 2a 00
        E 32 93 2a 7f
        E 80 83 2a 00
        E 32 93 2a 7f
        E 80 83 2a 00
        E 32 93 2a 7f
        E 80 83 2a 00
        E 32 93 2a 7f
        E 80 83 2a 00
        E 32 93 2a 7f
        E 80 83 2a 00
        E 32 93 2a 7f
        E 80 83 2a 00
        E 144 93 2a 7f
        E 80 83 2a 00
        E 144 93 2a 7f
        E 64 83 2a 00
        E 0 93 2a 7f
        E 80 83 2a 00
        E 0 93 2a 7f
        E 80 83 2a 00
        E 0 93 2a 7f
        E 64 83 2a 00
        E 0 93 2a 77
        E 64 83 2a 00
        E 16 93 2a 77
        E 48 83 2a 00
        E 32 93 2a 77
        E 48 83 2a 00
        E 16 93 2a 77
        E 64 83 2a 00
        E 16 93 2a 77
        E 48 83 2a 00
        E 1152 93 2a 66
        E 48 83 2a 00
        E 176 93 2a 5d
        E 48 83 2a 00
        E 176 93 2a 5d
        E 48 83 2a 00
        E 64 93 2a 55
        E 48 83 2a 00
        E 64 93 2a 55
        E 48 83 2a 00
        E 64 93 2a 55
        E 48 83 2a 00
        E 64 93 2a 55
        E 48 83 2a 00
        E 64 93 2a 55
        E 48 83 2a 00
        E 64 93 2a 4c
        E 48 83 2a 00
        E 64 93 2a 4c
        E 48 83 2a 00
        E 64 93 2a 4c
        E 48 83 2a 00
        E 176 93 2a 44
        E 48 83 2a 00
        E 176 93 2a 44
        E 6320 83 2a 00
        E 0 b3 7b 00
        E 0 ff 2f 00
      >
    >
  >
>