<REAPER_PROJECT 0.1 "7.27/win64" 1707000000
  <NOTES 0 2
    |ReapNES Studio Project
    |MIDI Import - Battletoads_trace_01_Ragnoraks_Canyon_v1
  >
  RIPPLE 0
  GROUPOVERRIDE 0 0 0
  AUTOXFADE 129
  ENVATTACH 3
  POOLEDENVATTACH 0
  MIXERUIFLAGS 11 48
  ENVFADESZ10 40
  PEAKGAIN 1
  FEEDBACK 0
  PANLAW 1
  PROJOFFS 0 0 0
  MAXPROJLEN 0 0
  GRID 3199 8 1 8 1 0 0 0
  TIMEMODE 1 5 -1 30 0 0 -1
  VIDEO_CONFIG 0 0 65792
  PANMODE 3
  PANLAWFLAGS 3
  CURSOR 0
  ZOOM 100 0 0
  VZOOMEX 6 0
  USE_REC_CFG 0
  RECMODE 1
  SMPTESYNC 0 30 100 40 1000 300 0 0 1 0 0
  LOOP 0
  LOOPGRAN 0 4
  RECORD_PATH "Media" ""
  <RECORD_CFG
    ZXZhdxgAAQ==
  >
  <APPLYFX_CFG
  >
  RENDER_FILE ""
  RENDER_PATTERN ""
  RENDER_FMT 0 2 0
  RENDER_1X 0
  RENDER_RANGE 1 0 0 18 1000
  RENDER_RESAMPLE 3 0 1
  RENDER_ADDTOPROJ 0
  RENDER_STEMS 0
  RENDER_DITHER 0
  TIMELOCKMODE 1
  TEMPOENVLOCKMODE 1
  ITEMMIX 1
  DEFPITCHMODE 589824 0
  TAKELANE 1
  SAMPLERATE 44100 0 0
  <RENDER_CFG
    ZXZhdxgAAQ==
  >
  LOCK 1
  <METRONOME 6 2
    VOL 0.25 0.125
    BEATLEN 4
    FREQ 1760 880 1
    SAMPLES "" ""
    SPLIGNORE 0 0
    SPLDEF 2 660 "" 0
    SPLDEF 3 440 "" 0
    PATTERN 0 169
    PATTERNSTR ABBB
    MULT 1
  >
  GLOBAL_AUTO -1
  TEMPO 128.59999614200012 4 4
  PLAYRATE 1 0 0.25 4
  SELECTION 0 0
  SELECTION2 0 0
  MASTERAUTOMODE 0
  MASTERTRACKHEIGHT 0 0
  MASTERPEAKCOL 16576
  MASTERMUTESOLO 0
  MASTERTRACKVIEW 0 0.6667 0.5 0.5 0 0 0 0 0 0 0 0 0 0
  MASTERHWOUT 0 0 1 0 0 0 0 -1
  MASTER_NCH 2 2
  MASTER_VOLUME 1 0 -1 -1 1
  MASTER_PANMODE 3
  MASTER_PANLAWFLAGS 3
  MASTER_FX 1
  MASTER_SEL 0
  <MASTERPLAYSPEEDENV
    EGUID {3344FF37-23BF-4637-831F-B0DAF3BE91CE}
    ACT 0 -1
    VIS 0 1 1
    LANEHEIGHT 0 0
    ARM 0
    DEFSHAPE 0 -1 -1
  >
  <TEMPOENVEX
    EGUID {58732AD7-B5E2-4CCC-B37E-E5AAFC785241}
    ACT 1 -1
    VIS 1 0 1
    LANEHEIGHT 0 0
    ARM 0
    DEFSHAPE 1 -1 -1
  >
  <PROJBAY
  >
  <TRACK {F66780A2-D20B-4521-9A14-02BC620A0D6B}
    NAME "NES - Pulse 1 [ch0]"
    PEAKCOL 16576606
    BEAT -1
    AUTOMODE 0
    PANLAWFLAGS 3
    VOLPAN 1 0 -1 -1 1
    MUTESOLO 0 0 0
    IPHASE 0
    PLAYOFFS 0 1
    ISBUS 0 0
    BUSCOMP 0 0 0 0 0
    SHOWINMIX 1 0.6667 0.5 1 0.5 0 0 0
    FIXEDLANES 9 0 0 0 0
    SEL 1
    REC 1 5088 1 0 0 0 0 0
    VU 2
    TRACKHEIGHT 0 0 0 0 0 0 0
    INQ 0 0 0 0.5 100 0 0 100
    NCHAN 2
    FX 1
    TRACKID {F66780A2-D20B-4521-9A14-02BC620A0D6B}
    PERF 0
    MIDIOUT -1
    MAINSEND 1 0
    <FXCHAIN
      WNDRECT 24 52 700 560
      SHOW 0
      LASTSEL 0
      DOCKED 0
      BYPASS 0 0 0
      <JS "ReapNES Studio/ReapNES_Console.jsfx" ""
        2 15 1 10 80 10 100 2 1 15 1 5 60 10 80 1 1 0 50 0 0 15 1 0 100 0 0 0.500000 0.500000 0.400000 0.300000 0.800000 0 1 0 0 0 0 - - - - - - - - - - - - - - - - - - - - - - - - - -
      >
      FLOATPOS 0 0 0 0
      FXID {FA8475F4-5E16-418D-9DAC-DF0ED1DF0F84}
      WAK 0 0
    >
    <ITEM
      POSITION 0
      LENGTH 147.6516374
      LOOP 0
      ALLTAKES 0
      FADEIN 0 0 0 0 0 0 0
      FADEOUT 0 0 0 0 0 0 0
      MUTE 0 0
      SEL 0
      IGUID {ED022ADD-E418-45A0-A134-3C7F48B036A4}
      <SOURCE MIDI
        HASDATA 1 480 QN
        CCINTERP 32
        E 0 c0 50
        E 2128 b0 0c 40
        E 0 b0 0b 60
        E 0 90 3f 60
        E 16 80 3f 00
        E 0 90 3b 60
        E 16 80 3b 00
        E 0 90 39 60
        E 16 80 39 00
        E 0 90 35 60
        E 16 80 35 00
        E 0 90 31 60
        E 16 80 31 00
        E 0 90 2f 60
        E 16 80 2f 00
        E 0 90 2b 60
        E 16 80 2b 00
        E 0 90 29 60
        E 16 80 29 00
        E 0 90 25 60
        E 16 80 25 00
        E 112 90 41 60
        E 16 80 41 00
        E 0 90 3f 60
        E 16 80 3f 00
        E 0 90 3b 60
        E 16 80 3b 00
        E 0 90 37 60
        E 16 80 37 00
        E 0 90 35 60
        E 16 80 35 00
        E 0 90 31 60
        E 16 80 31 00
        E 0 90 2f 60
        E 16 80 2f 00
        E 0 90 2b 60
        E 16 80 2b 00
        E 0 90 27 60
        E 16 80 27 00
        E 1536 b0 0c 10
        E 0 b0 0b 20
        E 0 90 34 20
        E 16 b0 0b 18
        E 32 b0 0b 10
        E 32 b0 0b 08
        E 32 80 34 00
        E 32 b0 0b 18
        E 0 90 34 18
        E 16 b0 0b 10
        E 32 b0 0b 08
        E 32 80 34 00
        E 48 b0 0b 10
        E 0 90 34 10
        E 48 b0 0b 08
        E 64 80 34 00
        E 16 90 34 08
        E 64 80 34 00
        E 80 b0 0b 20
        E 0 90 34 20
        E 16 b0 0b 18
        E 32 b0 0b 10
        E 32 b0 0b 08
        E 32 80 34 00
        E 16 b0 0b 18
        E 0 90 34 18
        E 16 b0 0b 10
        E 32 b0 0b 08
        E 32 80 34 00
        E 64 b0 0b 10
        E 0 90 34 10
        E 48 b0 0b 08
        E 64 80 34 00
        E 16 90 34 08
        E 80 80 34 00
        E 48 b0 0b 20
        E 0 90 34 20
        E 16 b0 0b 18
        E 32 b0 0b 10
        E 16 b0 0b 08
        E 32 80 34 00
        E 48 b0 0b 18
        E 0 90 34 18
        E 16 b0 0b 10
        E 32 b0 0b 08
        E 32 80 34 00
        E 48 b0 0b 10
        E 0 90 34 10
        E 48 b0 0b 08
        E 64 80 34 00
        E 32 90 34 08
        E 80 80 34 00
        E 48 b0 0b 20
        E 0 90 34 20
        E 16 b0 0b 18
        E 32 b0 0b 10
        E 32 b0 0b 08
        E 32 80 34 00
        E 16 b0 0b 18
        E 0 90 34 18
        E 16 b0 0b 10
        E 32 b0 0b 08
        E 32 80 34 00
        E 64 b0 0b 10
        E 0 90 34 10
        E 48 b0 0b 08
        E 64 80 34 00
        E 16 90 34 08
        E 80 80 34 00
        E 48 b0 0b 20
        E 0 90 34 20
        E 16 b0 0b 18
        E 16 b0 0b 10
        E 32 b0 0b 08
        E 32 80 34 00
        E 48 b0 0b 18
        E 0 90 34 18
        E 16 b0 0b 10
        E 32 b0 0b 08
        E 32 80 34 00
        E 48 b0 0b 10
        E 0 90 34 10
        E 48 b0 0b 08
        E 48 80 34 00
        E 48 90 34 08
        E 80 80 34 00
        E 48 b0 0b 20
        E 0 90 34 20
        E 16 b0 0b 18
        E 32 b0 0b 10
        E 32 b0 0b 08
        E 32 80 34 00
        E 16 b0 0b 18
        E 0 90 34 18
        E 16 b0 0b 10
        E 16 b0 0b 08
        E 32 80 34 00
        E 80 b0 0b 10
        E 0 90 34 10
        E 48 b0 0b 08
        E 64 80 34 00
        E 16 90 34 08
        E 80 80 34 00
        E 64 b0 0b 20
        E 0 90 34 20
        E 16 b0 0b 18
        E 32 b0 0b 10
        E 32 b0 0b 08
        E 32 80 34 00
        E 16 b0 0b 18
        E 0 90 34 18
        E 16 b0 0b 10
        E 32 b0 0b 08
        E 32 80 34 00
        E 48 b0 0b 10
        E 0 90 34 10
        E 32 b0 0b 08
        E 64 80 34 00
        E 48 90 34 08
        E 80 80 34 00
        E 48 b0 0b 20
        E 0 90 34 20
        E 16 b0 0b 18
        E 32 b0 0b 10
        E 32 b0 0b 08
        E 32 80 34 00
        E 32 b0 0b 18
        E 0 90 34 18
        E 16 b0 0b 10
        E 32 b0 0b 08
        E 32 80 34 00
        E 48 b0 0b 10
        E 0 90 34 10
        E 48 b0 0b 08
        E 64 80 34 00
        E 16 90 34 08
        E 64 80 34 00
        E 80 b0 0c 40
        E 0 b0 0b 38
        E 0 90 28 38
        E 16 b0 0b 30
        E 32 b0 0b 28
        E 32 b0 0b 20
        E 32 b0 0b 18
        E 16 b0 0b 20
        E 16 b0 0b 18
        E 32 b0 0b 10
        E 32 b0 0b 08
        E 32 80 28 00
        E 32 b0 0b 10
        E 0 90 28 10
        E 48 b0 0b 08
        E 64 80 28 00
        E 16 90 28 08
        E 80 80 28 00
        E 48 b0 0b 38
        E 0 90 28 38
        E 16 b0 0b 30
        E 32 b0 0b 28
        E 16 b0 0b 20
        E 32 b0 0b 18
        E 32 b0 0b 10
        E 16 b0 0b 38
        E 0 80 28 00
        E 0 90 26 38
        E 16 b0 0b 30
        E 32 b0 0b 28
        E 32 b0 0b 20
        E 32 b0 0b 18
        E 16 b0 0b 20
        E 16 b0 0b 18
        E 32 b0 0b 10
        E 32 b0 0b 08
        E 32 80 26 00
        E 32 b0 0b 10
        E 0 90 26 10
        E 48 b0 0b 08
        E 64 80 26 00
        E 16 b0 0b 58
        E 0 90 28 58
        E 16 b0 0b 50
        E 32 b0 0b 48
        E 32 b0 0b 40
        E 32 b0 0b 38
        E 32 b0 0b 30
        E 32 b0 0b 28
        E 16 b0 0b 20
        E 32 b0 0b 18
        E 32 b0 0b 10
        E 16 80 28 00
        E 0 90 33 10
        E 144 b0 0b 18
        E 144 b0 0b 20
        E 160 b0 0b 28
        E 160 b0 0b 30
        E 144 b0 0b 38
        E 48 b0 0c 60
        E 0 b0 0b 30
        E 0 80 33 00
        E 0 90 2d 30
        E 128 80 2d 00
        E 0 90 37 30
        E 16 b0 0b 28
        E 16 b0 0b 20
        E 32 b0 0b 18
        E 32 b0 0b 10
        E 32 b0 0b 08
        E 16 b0 0b 30
        E 16 b0 0b 28
        E 32 b0 0b 20
        E 32 b0 0b 18
        E 32 b0 0b 10
        E 16 b0 0b 30
        E 0 80 37 00
        E 0 90 2d 30
        E 16 b0 0b 28
        E 32 b0 0b 20
        E 32 b0 0b 18
        E 16 b0 0b 10
        E 32 b0 0b 08
        E 16 b0 0b 30
        E 0 80 2d 00
        E 0 90 34 30
        E 16 b0 0b 28
        E 32 b0 0b 20
        E 32 b0 0b 18
        E 32 b0 0b 10
        E 16 b0 0b 30
        E 0 80 34 00
        E 0 90 2d 30
        E 16 b0 0b 28
        E 32 b0 0b 20
        E 32 b0 0b 18
        E 32 b0 0b 10
        E 16 b0 0b 30
        E 0 80 2d 00
        E 0 90 34 30
        E 16 b0 0b 28
        E 16 b0 0b 20
        E 32 b0 0b 18
        E 32 b0 0b 10
        E 32 b0 0b 08
        E 16 b0 0b 30
        E 16 b0 0b 28
        E 32 b0 0b 20
        E 32 b0 0b 18
        E 32 b0 0b 10
        E 16 b0 0b 30
        E 0 80 34 00
        E 0 90 2d 30
        E 16 b0 0b 28
        E 32 b0 0b 20
        E 32 b0 0b 18
        E 16 b0 0b 10
        E 32 b0 0b 08
        E 16 b0 0b 30
        E 0 80 2d 00
        E 0 90 37 30
        E 16 b0 0b 28
        E 32 b0 0b 20
        E 32 b0 0b 18
        E 32 b0 0b 10
        E 16 b0 0b 30
        E 16 b0 0b 28
        E 32 b0 0b 20
        E 32 b0 0b 18
        E 32 b0 0b 10
        E 16 b0 0b 30
        E 0 80 37 00
        E 0 90 2d 30
        E 16 b0 0b 28
        E 32 b0 0b 20
        E 16 b0 0b 18
        E 32 b0 0b 10
        E 32 b0 0b 08
        E 16 b0 0b 30
        E 0 80 2d 00
        E 0 90 34 30
        E 16 b0 0b 28
        E 32 b0 0b 20
        E 32 b0 0b 18
        E 32 b0 0b 10
        E 16 b0 0b 30
        E 0 80 34 00
        E 0 90 2d 30
        E 16 b0 0b 28
        E 32 b0 0b 20
        E 32 b0 0b 18
        E 32 b0 0b 10
        E 16 b0 0b 08
        E 16 b0 0b 30
        E 0 80 2d 00
        E 0 90 34 30
        E 16 b0 0b 28
        E 32 b0 0b 20
        E 32 b0 0b 18
        E 32 b0 0b 10
        E 16 b0 0b 30
        E 16 b0 0b 28
        E 32 b0 0b 20
        E 32 b0 0b 18
        E 32 b0 0b 10
        E 16 b0 0c 20
        E 0 b0 0b 38
        E 0 80 34 00
        E 0 90 23 38
        E 16 b0 0b 30
        E 32 b0 0b 28
        E 16 b0 0b 20
        E 32 b0 0b 18
        E 32 b0 0b 10
        E 32 b0 0b 08
        E 32 80 23 00
        E 80 b0 0b 38
        E 0 90 23 38
        E 16 b0 0b 30
        E 32 b0 0b 28
        E 32 b0 0b 20
        E 32 b0 0b 18
        E 16 b0 0b 10
        E 32 b0 0b 08
        E 32 80 23 00
        E 80 b0 0b 38
        E 0 90 23 38
        E 16 b0 0b 30
        E 32 b0 0b 28
        E 32 b0 0b 20
        E 32 b0 0b 18
        E 16 b0 0b 38
        E 0 80 23 00
        E 0 90 21 38
        E 48 b0 0b 30
        E 48 b0 0b 28
        E 64 b0 0b 20
        E 64 b0 0b 18
        E 48 b0 0b 38
        E 0 80 21 00
        E 0 90 23 38
        E 16 b0 0b 30
        E 32 b0 0b 28
        E 32 b0 0b 20
        E 32 b0 0b 18
        E 16 b0 0b 10
        E 32 b0 0b 08
        E 32 80 23 00
        E 80 b0 0b 38
        E 0 90 23 38
        E 16 b0 0b 30
        E 32 b0 0b 28
        E 32 b0 0b 20
        E 32 b0 0b 18
        E 16 b0 0b 38
        E 16 b0 0b 30
        E 32 b0 0b 28
        E 32 b0 0b 20
        E 16 b0 0b 18
        E 32 b0 0b 10
        E 32 b0 0b 08
        E 32 80 23 00
        E 80 b0 0b 38
        E 0 90 23 38
        E 16 b0 0b 30
        E 32 b0 0b 28
        E 32 b0 0b 20
        E 32 b0 0b 18
        E 16 b0 0b 38
        E 0 80 23 00
        E 0 90 26 38
        E 32 b0 0b 30
        E 64 b0 0b 28
        E 64 b0 0b 20
        E 64 b0 0b 18
        E 64 b0 0b 10
        E 64 b0 0b 08
        E 48 80 26 00
        E 16 b0 0b 38
        E 0 90 23 38
        E 16 b0 0b 30
        E 32 b0 0b 28
        E 32 b0 0b 20
        E 32 b0 0b 18
        E 32 b0 0b 10
        E 32 b0 0b 08
        E 32 80 23 00
        E 48 b0 0b 38
        E 0 90 23 38
        E 16 b0 0b 30
        E 16 b0 0b 28
        E 32 b0 0b 20
        E 32 b0 0b 18
        E 32 b0 0b 10
        E 32 b0 0b 08
        E 32 80 23 00
        E 80 b0 0b 38
        E 0 90 23 38
        E 16 b0 0b 30
        E 32 b0 0b 28
        E 32 b0 0b 20
        E 16 b0 0b 18
        E 32 b0 0b 10
        E 16 b0 0b 38
        E 0 80 23 00
        E 0 90 21 38
        E 48 b0 0b 30
        E 64 b0 0b 28
        E 64 b0 0b 20
        E 64 b0 0b 18
        E 16 b0 0b 38
        E 0 80 21 00
        E 0 90 23 38
        E 16 b0 0b 30
        E 16 b0 0b 28
        E 32 b0 0b 20
        E 32 b0 0b 18
        E 32 b0 0b 10
        E 32 b0 0b 08
        E 32 80 23 00
        E 80 b0 0b 38
        E 0 90 23 38
        E 16 b0 0b 30
        E 32 b0 0b 28
        E 32 b0 0b 20
        E 32 b0 0b 18
        E 16 b0 0b 10
        E 16 b0 0b 38
        E 16 b0 0b 30
        E 32 b0 0b 28
        E 32 b0 0b 20
        E 32 b0 0b 18
        E 32 b0 0b 10
        E 32 b0 0b 08
        E 32 80 23 00
        E 48 b0 0b 38
        E 0 90 23 38
        E 16 b0 0b 30
        E 32 b0 0b 28
        E 16 b0 0b 20
        E 32 b0 0b 18
        E 32 b0 0b 10
        E 16 b0 0b 38
        E 0 80 23 00
        E 0 90 26 38
        E 48 b0 0b 30
        E 64 b0 0b 28
        E 64 b0 0b 20
        E 64 b0 0b 18
        E 48 b0 0b 10
        E 64 b0 0b 08
        E 48 b0 0c 60
        E 0 b0 0b 30
        E 0 80 26 00
        E 0 90 2d 30
        E 16 b0 0b 28
        E 64 b0 0b 20
        E 48 b0 0b 30
        E 0 80 2d 00
        E 0 90 37 30
        E 16 b0 0b 28
        E 32 b0 0b 20
        E 16 b0 0b 18
        E 32 b0 0b 10
        E 32 b0 0b 08
        E 16 b0 0b 30
        E 16 b0 0b 28
        E 32 b0 0b 20
        E 32 b0 0b 18
        E 32 b0 0b 10
        E 16 b0 0b 30
        E 0 80 37 00
        E 0 90 2d 30
        E 16 b0 0b 28
        E 32 b0 0b 20
        E 32 b0 0b 18
        E 32 b0 0b 10
        E 16 b0 0b 08
        E 16 b0 0b 30
        E 0 80 2d 00
        E 0 90 34 30
        E 16 b0 0b 28
        E 32 b0 0b 20
        E 32 b0 0b 18
        E 32 b0 0b 10
        E 16 b0 0b 30
        E 0 80 34 00
        E 0 90 2d 30
        E 16 b0 0b 28
        E 32 b0 0b 20
        E 32 b0 0b 18
        E 32 b0 0b 10
        E 16 b0 0b 30
        E 0 80 2d 00
        E 0 90 34 30
        E 16 b0 0b 28
        E 32 b0 0b 20
        E 16 b0 0b 18
        E 32 b0 0b 10
        E 32 b0 0b 08
        E 16 b0 0b 30
        E 16 b0 0b 28
        E 32 b0 0b 20
        E 32 b0 0b 18
        E 32 b0 0b 10
        E 16 b0 0b 30
        E 0 80 34 00
        E 0 90 2d 30
        E 16 b0 0b 28
        E 32 b0 0b 20
        E 32 b0 0b 18
        E 32 b0 0b 10
        E 16 b0 0b 30
        E 0 80 2d 00
        E 0 90 37 30
        E 16 b0 0b 28
        E 16 b0 0b 20
        E 32 b0 0b 18
        E 32 b0 0b 10
        E 32 b0 0b 08
        E 16 b0 0b 30
        E 16 b0 0b 28
        E 32 b0 0b 20
        E 32 b0 0b 18
        E 32 b0 0b 10
        E 16 b0 0b 30
        E 0 80 37 00
        E 0 90 2d 30
        E 16 b0 0b 28
        E 32 b0 0b 20
        E 32 b0 0b 18
        E 16 b0 0b 10
        E 32 b0 0b 08
        E 16 b0 0b 30
        E 0 80 2d 00
        E 0 90 34 30
        E 16 b0 0b 28
        E 32 b0 0b 20
        E 32 b0 0b 18
        E 32 b0 0b 10
        E 16 b0 0b 30
        E 0 80 34 00
        E 0 90 2d 30
        E 16 b0 0b 28
        E 32 b0 0b 20
        E 32 b0 0b 18
        E 32 b0 0b 10
        E 16 b0 0b 30
        E 0 80 2d 00
        E 0 90 34 30
        E 16 b0 0b 28
        E 16 b0 0b 20
        E 32 b0 0b 18
        E 32 b0 0b 10
        E 32 b0 0b 08
        E 16 b0 0b 30
        E 16 b0 0b 28
        E 32 b0 0b 20
        E 32 b0 0b 18
        E 32 b0 0b 10
        E 16 b0 0c 10
        E 0 b0 0b 38
        E 0 80 34 00
        E 0 90 2f 38
        E 16 b0 0b 30
        E 32 b0 0b 28
        E 32 b0 0b 20
        E 16 b0 0b 18
        E 32 b0 0b 10
        E 16 b0 0b 20
        E 128 b0 0b 38
        E 0 80 2f 00
        E 0 90 36 38
        E 144 b0 0b 30
        E 16 b0 0b 28
        E 32 b0 0b 20
        E 32 b0 0b 18
        E 32 b0 0b 10
        E 16 b0 0b 20
        E 128 b0 0b 38
        E 0 80 36 00
        E 0 90 37 38
        E 16 b0 0b 30
        E 32 b0 0b 28
        E 32 b0 0b 20
        E 16 b0 0b 18
        E 32 b0 0b 10
        E 16 b0 0b 20
        E 16 b0 0b 18
        E 32 b0 0b 10
        E 32 b0 0b 08
        E 32 80 37 00
        E 16 b0 0b 38
        E 0 90 39 38
        E 16 b0 0b 30
        E 32 b0 0b 28
        E 32 b0 0b 20
        E 32 b0 0b 18
        E 16 b0 0b 20
        E 16 b0 0b 18
        E 32 b0 0b 10
        E 16 b0 0b 08
        E 32 80 39 00
        E 48 b0 0b 10
        E 0 90 39 10
        E 128 b0 0b 38
        E 272 b0 0b 20
        E 128 b0 0b 38
        E 144 b0 0b 20
        E 128 b0 0b 10
        E 144 80 39 00
        E 12880 b0 0b 20
        E 0 90 34 20
        E 16 b0 0b 18
        E 32 b0 0b 10
        E 16 b0 0b 08
        E 32 80 34 00
        E 48 b0 0b 18
        E 0 90 34 18
        E 16 b0 0b 10
        E 32 b0 0b 08
        E 32 80 34 00
        E 48 b0 0b 10
        E 0 90 34 10
        E 48 b0 0b 08
        E 64 80 34 00
        E 16 90 34 08
        E 64 80 34 00
        E 80 b0 0b 20
        E 0 90 34 20
        E 16 b0 0b 18
        E 32 b0 0b 10
        E 32 b0 0b 08
        E 32 80 34 00
        E 16 b0 0b 18
        E 0 90 34 18
        E 16 b0 0b 10
        E 32 b0 0b 08
        E 32 80 34 00
        E 64 b0 0b 10
        E 0 90 34 10
        E 48 b0 0b 08
        E 64 80 34 00
        E 16 90 34 08
        E 80 80 34 00
        E 48 b0 0b 20
        E 0 90 34 20
        E 16 b0 0b 18
        E 16 b0 0b 10
        E 32 b0 0b 08
        E 32 80 34 00
        E 48 b0 0b 18
        E 0 90 34 18
        E 16 b0 0b 10
        E 32 b0 0b 08
        E 32 80 34 00
        E 48 b0 0b 10
        E 0 90 34 10
        E 48 b0 0b 08
        E 48 80 34 00
        E 48 90 34 08
        E 80 80 34 00
        E 48 b0 0b 20
        E 0 90 34 20
        E 16 b0 0b 18
        E 32 b0 0b 10
        E 32 b0 0b 08
        E 32 80 34 00
        E 16 b0 0b 18
        E 0 90 34 18
        E 16 b0 0b 10
        E 16 b0 0b 08
        E 32 80 34 00
        E 80 b0 0b 10
        E 0 90 34 10
        E 48 b0 0b 08
        E 64 80 34 00
        E 16 90 34 08
        E 80 80 34 00
        E 64 b0 0b 20
        E 0 90 34 20
        E 16 b0 0b 18
        E 32 b0 0b 10
        E 32 b0 0b 08
        E 32 80 34 00
        E 16 b0 0b 18
        E 0 90 34 18
        E 16 b0 0b 10
        E 32 b0 0b 08
        E 32 80 34 00
        E 48 b0 0b 10
        E 0 90 34 10
        E 48 b0 0b 08
        E 48 80 34 00
        E 48 90 34 08
        E 80 80 34 00
        E 48 b0 0b 20
        E 0 90 34 20
        E 16 b0 0b 18
        E 32 b0 0b 10
        E 32 b0 0b 08
        E 32 80 34 00
        E 32 b0 0b 18
        E 0 90 34 18
        E 16 b0 0b 10
        E 32 b0 0b 08
        E 32 80 34 00
        E 48 b0 0b 10
        E 0 90 34 10
        E 48 b0 0b 08
        E 64 80 34 00
        E 16 90 34 08
        E 64 80 34 00
        E 80 b0 0b 20
        E 0 90 34 20
        E 16 b0 0b 18
        E 32 b0 0b 10
        E 32 b0 0b 08
        E 32 80 34 00
        E 16 b0 0b 18
        E 0 90 34 18
        E 16 b0 0b 10
        E 32 b0 0b 08
        E 32 80 34 00
        E 64 b0 0b 10
        E 0 90 34 10
        E 48 b0 0b 08
        E 64 80 34 00
        E 16 90 34 08
        E 80 80 34 00
        E 48 b0 0b 20
        E 0 90 34 20
        E 16 b0 0b 18
        E 32 b0 0b 10
        E 16 b0 0b 08
        E 32 80 34 00
        E 48 b0 0b 18
        E 0 90 34 18
        E 16 b0 0b 10
        E 32 b0 0b 08
        E 32 80 34 00
        E 48 b0 0b 10
        E 0 90 34 10
        E 48 b0 0b 08
        E 64 80 34 00
        E 32 90 34 08
        E 80 80 34 00
        E 48 b0 0b 20
        E 0 90 3b 20
        E 16 b0 0b 18
        E 32 b0 0b 10
        E 32 b0 0b 08
        E 32 80 3b 00
        E 16 b0 0b 18
        E 0 90 3b 18
        E 16 b0 0b 10
        E 32 b0 0b 08
        E 32 80 3b 00
        E 64 b0 0b 10
        E 0 90 3b 10
        E 48 b0 0b 08
        E 64 80 3b 00
        E 16 90 3b 08
        E 80 80 3b 00
        E 48 b0 0b 20
        E 0 90 3b 20
        E 16 b0 0b 18
        E 16 b0 0b 10
        E 32 b0 0b 08
        E 32 80 3b 00
        E 48 b0 0b 18
        E 0 90 3b 18
        E 16 b0 0b 10
        E 32 b0 0b 08
        E 32 80 3b 00
        E 48 b0 0b 10
        E 0 90 3b 10
        E 48 b0 0b 08
        E 48 80 3b 00
        E 48 90 3b 08
        E 80 80 3b 00
        E 48 b0 0b 20
        E 0 90 3b 20
        E 16 b0 0b 18
        E 32 b0 0b 10
        E 32 b0 0b 08
        E 32 80 3b 00
        E 16 b0 0b 18
        E 0 90 3b 18
        E 16 b0 0b 10
        E 16 b0 0b 08
        E 32 80 3b 00
        E 80 b0 0b 10
        E 0 90 3b 10
        E 48 b0 0b 08
        E 64 80 3b 00
        E 16 90 3b 08
        E 80 80 3b 00
        E 64 b0 0b 20
        E 0 90 3b 20
        E 16 b0 0b 18
        E 32 b0 0b 10
        E 32 b0 0b 08
        E 32 80 3b 00
        E 16 b0 0b 18
        E 0 90 3b 18
        E 16 b0 0b 10
        E 32 b0 0b 08
        E 32 80 3b 00
        E 48 b0 0b 10
        E 0 90 3b 10
        E 32 b0 0b 08
        E 64 80 3b 00
        E 48 90 3b 08
        E 80 80 3b 00
        E 48 b0 0b 20
        E 0 90 3b 20
        E 16 b0 0b 18
        E 32 b0 0b 10
        E 32 b0 0b 08
        E 32 80 3b 00
        E 32 b0 0b 18
        E 0 90 3b 18
        E 16 b0 0b 10
        E 32 b0 0b 08
        E 32 80 3b 00
        E 48 b0 0b 10
        E 0 90 3b 10
        E 48 b0 0b 08
        E 64 80 3b 00
        E 16 90 3b 08
        E 64 80 3b 00
        E 80 b0 0b 20
        E 0 90 3b 20
        E 16 b0 0b 18
        E 32 b0 0b 10
        E 32 b0 0b 08
        E 32 80 3b 00
        E 16 b0 0b 18
        E 0 90 3b 18
        E 16 b0 0b 10
        E 32 b0 0b 08
        E 32 80 3b 00
        E 64 b0 0b 10
        E 0 90 3b 10
        E 48 b0 0b 08
        E 64 80 3b 00
        E 16 90 3b 08
        E 80 80 3b 00
        E 48 b0 0b 20
        E 0 90 3b 20
        E 16 b0 0b 18
        E 32 b0 0b 10
        E 16 b0 0b 08
        E 32 80 3b 00
        E 48 b0 0b 18
        E 0 90 3b 18
        E 16 b0 0b 10
        E 32 b0 0b 08
        E 32 80 3b 00
        E 48 b0 0b 10
        E 0 90 3b 10
        E 48 b0 0b 08
        E 64 80 3b 00
        E 32 90 3b 08
        E 80 80 3b 00
        E 48 b0 0b 20
        E 0 90 3b 20
        E 16 b0 0b 18
        E 32 b0 0b 10
        E 32 b0 0b 08
        E 32 80 3b 00
        E 16 b0 0b 18
        E 0 90 3b 18
        E 16 b0 0b 10
        E 32 b0 0b 08
        E 16 80 3b 00
        E 80 b0 0b 10
        E 0 90 3b 10
        E 48 b0 0b 08
        E 64 80 3b 00
        E 16 90 3b 08
        E 80 80 3b 00
        E 48 b0 0c 40
        E 0 b0 0b 30
        E 0 90 3b 30
        E 64 b0 0b 28
        E 80 b0 0b 30
        E 0 80 3b 00
        E 0 90 43 30
        E 16 b0 0b 28
        E 48 b0 0b 18
        E 0 80 43 00
        E 0 90 3b 18
        E 64 b0 0b 30
        E 0 80 3b 00
        E 0 90 42 30
        E 48 b0 0b 28
        E 16 b0 0b 18
        E 0 80 42 00
        E 0 90 43 18
        E 64 b0 0b 10
        E 16 b0 0b 30
        E 0 80 43 00
        E 0 90 3e 30
        E 64 b0 0b 18
        E 0 80 3e 00
        E 0 90 42 18
        E 16 b0 0b 10
        E 48 b0 0b 30
        E 0 80 42 00
        E 0 90 39 30
        E 48 b0 0b 28
        E 16 b0 0b 18
        E 0 80 39 00
        E 0 90 3e 18
        E 64 b0 0b 30
        E 16 b0 0b 28
        E 64 b0 0b 18
        E 0 80 3e 00
        E 0 90 39 18
        E 16 b0 0b 10
        E 48 b0 0b 30
        E 0 80 39 00
        E 0 90 3b 30
        E 48 b0 0b 28
        E 16 b0 0b 18
        E 0 80 3b 00
        E 0 90 3e 18
        E 64 b0 0b 30
        E 0 80 3e 00
        E 0 90 40 30
        E 16 b0 0b 28
        E 48 b0 0b 18
        E 0 80 40 00
        E 0 90 3b 18
        E 32 b0 0b 10
        E 48 b0 0b 30
        E 0 80 3b 00
        E 0 90 40 30
        E 48 b0 0b 28
        E 16 b0 0b 18
        E 64 b0 0b 10
        E 64 b0 0b 08
        E 64 b0 0b 30
        E 0 80 40 00
        E 0 90 3e 30
        E 80 b0 0b 18
        E 0 80 3e 00
        E 0 90 40 18
        E 16 b0 0b 10
        E 48 b0 0b 30
        E 0 80 40 00
        E 0 90 3b 30
        E 48 b0 0b 28
        E 16 b0 0b 18
        E 0 80 3b 00
        E 0 90 3e 18
        E 64 b0 0b 30
        E 0 80 3e 00
        E 0 90 39 30
        E 16 b0 0b 28
        E 48 b0 0b 18
        E 0 80 39 00
        E 0 90 3b 18
        E 32 b0 0b 10
        E 48 b0 0b 30
        E 48 b0 0b 28
        E 16 b0 0b 18
        E 0 80 3b 00
        E 0 90 39 18
        E 64 b0 0b 30
        E 0 80 39 00
        E 0 90 3e 30
        E 16 b0 0b 28
        E 48 b0 0b 18
        E 0 80 3e 00
        E 0 90 3b 18
        E 48 b0 0b 10
        E 16 b0 0b 30
        E 0 80 3b 00
        E 0 90 40 30
        E 64 b0 0b 28
        E 16 b0 0b 18
        E 0 80 40 00
        E 0 90 3e 18
        E 64 b0 0b 30
        E 0 80 3e 00
        E 0 90 3b 30
        E 16 b0 0b 28
        E 96 b0 0b 20
        E 16 b0 0b 30
        E 0 80 3b 00
        E 0 90 43 30
        E 64 b0 0b 18
        E 0 80 43 00
        E 0 90 3b 18
        E 80 b0 0b 30
        E 0 80 3b 00
        E 0 90 42 30
        E 16 b0 0b 28
        E 48 b0 0b 18
        E 0 80 42 00
        E 0 90 43 18
        E 48 b0 0b 10
        E 16 b0 0b 30
        E 0 80 43 00
        E 0 90 3e 30
        E 64 b0 0b 18
        E 0 80 3e 00
        E 0 90 42 18
        E 16 b0 0b 10
        E 48 b0 0b 30
        E 0 80 42 00
        E 0 90 39 30
        E 48 b0 0b 28
        E 32 b0 0b 18
        E 0 80 39 00
        E 0 90 3e 18
        E 48 b0 0b 10
        E 16 b0 0b 30
        E 64 b0 0b 18
        E 0 80 3e 00
        E 0 90 39 18
        E 16 b0 0b 10
        E 48 b0 0b 30
        E 0 80 39 00
        E 0 90 3b 30
        E 48 b0 0b 28
        E 16 b0 0b 18
        E 0 80 3b 00
        E 0 90 3e 18
        E 64 b0 0b 10
        E 16 b0 0b 30
        E 0 80 3e 00
        E 0 90 40 30
        E 64 b0 0b 18
        E 0 80 40 00
        E 0 90 3b 18
        E 16 b0 0b 10
        E 48 b0 0b 30
        E 0 80 3b 00
        E 0 90 40 30
        E 48 b0 0b 28
        E 16 b0 0b 18
        E 64 b0 0b 10
        E 80 b0 0b 08
        E 64 b0 0b 30
        E 0 80 40 00
        E 0 90 3e 30
        E 64 b0 0b 18
        E 0 80 3e 00
        E 0 90 40 18
        E 16 b0 0b 10
        E 48 b0 0b 30
        E 0 80 40 00
        E 0 90 3b 30
        E 48 b0 0b 28
        E 16 b0 0b 18
        E 0 80 3b 00
        E 0 90 3e 18
        E 64 b0 0b 10
        E 16 b0 0b 30
        E 0 80 3e 00
        E 0 90 39 30
        E 64 b0 0b 18
        E 0 80 39 00
        E 0 90 3b 18
        E 16 b0 0b 10
        E 48 b0 0b 30
        E 48 b0 0b 28
        E 16 b0 0b 18
        E 0 80 3b 00
        E 0 90 39 18
        E 64 b0 0b 30
        E 0 80 39 00
        E 0 90 3e 30
        E 16 b0 0b 28
        E 48 b0 0b 18
        E 0 80 3e 00
        E 0 90 3b 18
        E 32 b0 0b 10
        E 48 b0 0b 30
        E 0 80 3b 00
        E 0 90 40 30
        E 48 b0 0b 28
        E 16 b0 0b 18
        E 0 80 40 00
        E 0 90 3e 18
        E 64 b0 0b 30
        E 0 80 3e 00
        E 0 90 3b 30
        E 16 b0 0b 28
        E 96 b0 0b 20
        E 16 b0 0b 30
        E 0 80 3b 00
        E 0 90 43 30
        E 64 b0 0b 28
        E 16 b0 0b 18
        E 0 80 43 00
        E 0 90 3b 18
        E 64 b0 0b 30
        E 0 80 3b 00
        E 0 90 42 30
        E 64 b0 0b 18
        E 0 80 42 00
        E 0 90 43 18
        E 16 b0 0b 10
        E 48 b0 0b 30
        E 0 80 43 00
        E 0 90 3e 30
        E 48 b0 0b 28
        E 16 b0 0b 18
        E 0 80 3e 00
        E 0 90 42 18
        E 64 b0 0b 10
        E 16 b0 0b 30
        E 0 80 42 00
        E 0 90 39 30
        E 64 b0 0b 18
        E 0 80 39 00
        E 0 90 3e 18
        E 16 b0 0b 10
        E 48 b0 0b 30
        E 48 b0 0b 28
        E 16 b0 0b 18
        E 0 80 3e 00
        E 0 90 39 18
        E 64 b0 0b 30
        E 0 80 39 00
        E 0 90 3b 30
        E 16 b0 0b 28
        E 64 b0 0b 18
        E 0 80 3b 00
        E 0 90 3e 18
        E 16 b0 0b 10
        E 48 b0 0b 30
        E 0 80 3e 00
        E 0 90 40 30
        E 48 b0 0b 28
        E 16 b0 0b 18
        E 0 80 40 00
        E 0 90 3b 18
        E 64 b0 0b 30
        E 0 80 3b 00
        E 0 90 40 30
        E 16 b0 0b 28
        E 48 b0 0b 18
        E 32 b0 0b 10
        E 112 b0 0b 08
        E 64 b0 0b 30
        E 0 80 40 00
        E 0 90 3e 30
        E 64 b0 0b 18
        E 0 80 3e 00
        E 0 90 40 18
        E 48 b0 0b 10
        E 16 b0 0b 30
        E 0 80 40 00
        E 0 90 3b 30
        E 64 b0 0b 28
        E 16 b0 0b 18
        E 0 80 3b 00
        E 0 90 3e 18
        E 64 b0 0b 30
        E 0 80 3e 00
        E 0 90 39 30
        E 16 b0 0b 28
        E 48 b0 0b 18
        E 0 80 39 00
        E 0 90 3b 18
        E 48 b0 0b 10
        E 16 b0 0b 30
        E 64 b0 0b 18
        E 0 80 3b 00
        E 0 90 39 18
        E 16 b0 0b 10
        E 64 b0 0b 30
        E 0 80 39 00
        E 0 90 3e 30
        E 16 b0 0b 28
        E 48 b0 0b 18
        E 0 80 3e 00
        E 0 90 3b 18
        E 48 b0 0b 10
        E 16 b0 0b 30
        E 0 80 3b 00
        E 0 90 40 30
        E 64 b0 0b 18
        E 0 80 40 00
        E 0 90 3e 18
        E 16 b0 0b 10
        E 48 b0 0b 30
        E 0 80 3e 00
        E 0 90 3b 30
        E 48 b0 0b 28
        E 80 b0 0b 20
        E 16 b0 0b 30
        E 0 80 3b 00
        E 0 90 43 30
        E 64 b0 0b 18
        E 0 80 43 00
        E 0 90 3b 18
        E 64 b0 0b 30
        E 0 80 3b 00
        E 0 90 42 30
        E 16 b0 0b 28
        E 48 b0 0b 18
        E 0 80 42 00
        E 0 90 43 18
        E 48 b0 0b 10
        E 32 b0 0b 30
        E 0 80 43 00
        E 0 90 3e 30
        E 48 b0 0b 28
        E 16 b0 0b 18
        E 0 80 3e 00
        E 0 90 42 18
        E 64 b0 0b 30
        E 0 80 42 00
        E 0 90 39 30
        E 16 b0 0b 28
        E 48 b0 0b 18
        E 0 80 39 00
        E 0 90 3e 18
        E 48 b0 0b 10
        E 16 b0 0b 30
        E 64 b0 0b 28
        E 16 b0 0b 18
        E 0 80 3e 00
        E 0 90 39 18
        E 64 b0 0b 30
        E 0 80 39 00
        E 0 90 3b 30
        E 16 b0 0b 28
        E 48 b0 0b 18
        E 0 80 3b 00
        E 0 90 3e 18
        E 48 b0 0b 10
        E 16 b0 0b 30
        E 0 80 3e 00
        E 0 90 40 30
        E 64 b0 0b 18
        E 0 80 40 00
        E 0 90 3b 18
        E 16 b0 0b 10
        E 64 b0 0b 30
        E 0 80 3b 00
        E 0 90 40 30
        E 16 b0 0b 28
        E 48 b0 0b 18
        E 48 b0 0b 10
        E 80 b0 0b 08
        E 64 b0 0b 30
        E 0 80 40 00
        E 0 90 3e 30
        E 80 b0 0b 18
        E 0 80 3e 00
        E 0 90 40 18
        E 64 b0 0b 30
        E 0 80 40 00
        E 0 90 3b 30
        E 16 b0 0b 28
        E 48 b0 0b 18
        E 0 80 3b 00
        E 0 90 3e 18
        E 48 b0 0b 10
        E 16 b0 0b 30
        E 0 80 3e 00
        E 0 90 39 30
        E 64 b0 0b 18
        E 0 80 39 00
        E 0 90 3b 18
        E 16 b0 0b 10
        E 48 b0 0b 30
        E 32 b0 0b 28
        E 48 b0 0b 18
        E 0 80 3b 00
        E 0 90 39 18
        E 48 b0 0b 10
        E 16 b0 0b 30
        E 0 80 39 00
        E 0 90 3e 30
        E 64 b0 0b 18
        E 0 80 3e 00
        E 0 90 3b 18
        E 16 b0 0b 10
        E 48 b0 0b 30
        E 0 80 3b 00
        E 0 90 40 30
        E 48 b0 0b 28
        E 16 b0 0b 18
        E 0 80 40 00
        E 0 90 3e 18
        E 64 b0 0b 10
        E 16 b0 0b 48
        E 0 80 3e 00
        E 0 90 26 48
        E 16 b0 0b 40
        E 32 b0 0b 38
        E 32 b0 0b 30
        E 32 b0 0b 28
        E 16 b0 0b 48
        E 0 80 26 00
        E 0 90 28 48
        E 16 b0 0b 40
        E 32 b0 0b 38
        E 32 b0 0b 30
        E 32 b0 0b 28
        E 16 b0 0c 10
        E 0 b0 0b 38
        E 0 80 28 00
        E 0 90 36 38
        E 16 b0 0b 30
        E 16 b0 0b 28
        E 32 b0 0b 20
        E 32 b0 0b 18
        E 32 b0 0b 10
        E 16 b0 0b 38
        E 0 80 36 00
        E 0 90 37 38
        E 16 b0 0b 30
        E 32 b0 0b 28
        E 32 b0 0b 20
        E 32 b0 0b 18
        E 16 b0 0b 20
        E 144 b0 0b 38
        E 16 b0 0b 30
        E 32 b0 0b 28
        E 32 b0 0b 20
        E 32 b0 0b 18
        E 16 b0 0b 20
        E 16 b0 0b 18
        E 32 b0 0b 10
        E 32 b0 0b 08
        E 32 80 37 00
        E 16 b0 0b 38
        E 0 90 37 38
        E 16 b0 0b 30
        E 16 b0 0b 28
        E 32 b0 0b 20
        E 32 b0 0b 18
        E 32 b0 0b 10
        E 16 b0 0b 20
        E 16 b0 0b 18
        E 32 b0 0b 10
        E 32 b0 0b 08
        E 32 80 37 00
        E 16 b0 0b 10
        E 0 90 37 10
        E 144 b0 0b 38
        E 256 b0 0b 20
        E 16 b0 0b 18
        E 32 b0 0b 10
        E 16 b0 0b 08
        E 32 80 37 00
        E 48 b0 0b 38
        E 0 90 37 38
        E 16 b0 0b 30
        E 32 b0 0b 28
        E 32 b0 0b 20
        E 32 b0 0b 18
        E 16 b0 0b 20
        E 16 b0 0b 18
        E 32 b0 0b 10
        E 32 b0 0b 08
        E 32 80 37 00
        E 32 b0 0c 40
        E 0 b0 0b 48
        E 0 90 28 48
        E 16 b0 0b 40
        E 32 b0 0b 38
        E 32 b0 0b 30
        E 32 b0 0b 28
        E 16 b0 0b 48
        E 0 80 28 00
        E 0 90 26 48
        E 16 b0 0b 40
        E 32 b0 0b 38
        E 32 b0 0b 30
        E 32 b0 0b 28
        E 16 b0 0b 48
        E 0 80 26 00
        E 0 90 28 48
        E 16 b0 0b 40
        E 32 b0 0b 38
        E 16 b0 0b 30
        E 32 b0 0b 28
        E 32 b0 0b 20
        E 16 b0 0c 10
        E 0 b0 0b 38
        E 0 80 28 00
        E 0 90 36 38
        E 16 b0 0b 30
        E 32 b0 0b 28
        E 32 b0 0b 20
        E 32 b0 0b 18
        E 16 b0 0b 38
        E 0 80 36 00
        E 0 90 37 38
        E 16 b0 0b 30
        E 32 b0 0b 28
        E 32 b0 0b 20
        E 32 b0 0b 18
        E 16 b0 0b 10
        E 16 b0 0b 20
        E 128 b0 0b 38
        E 16 b0 0b 30
        E 32 b0 0b 28
        E 32 b0 0b 20
        E 32 b0 0b 18
        E 16 b0 0b 20
        E 16 b0 0b 18
        E 32 b0 0b 10
        E 16 b0 0b 08
        E 32 80 37 00
        E 48 b0 0b 38
        E 0 90 37 38
        E 16 b0 0b 30
        E 32 b0 0b 28
        E 32 b0 0b 20
        E 32 b0 0b 18
        E 16 b0 0b 20
        E 16 b0 0b 18
        E 32 b0 0b 10
        E 32 b0 0b 08
        E 32 80 37 00
        E 32 b0 0b 10
        E 0 90 37 10
        E 128 b0 0b 38
        E 272 b0 0b 20
        E 16 b0 0b 18
        E 32 b0 0b 10
        E 32 b0 0b 08
        E 32 80 37 00
        E 16 b0 0b 38
        E 0 90 37 38
        E 16 b0 0b 30
        E 32 b0 0b 28
        E 32 b0 0b 20
        E 32 b0 0b 18
        E 16 b0 0b 20
        E 16 b0 0b 18
        E 16 b0 0b 10
        E 32 b0 0b 08
        E 32 80 37 00
        E 48 b0 0c 40
        E 0 b0 0b 48
        E 0 90 28 48
        E 16 b0 0b 40
        E 32 b0 0b 38
        E 32 b0 0b 30
        E 32 b0 0b 28
        E 16 b0 0b 48
        E 0 80 28 00
        E 0 90 26 48
        E 16 b0 0b 40
        E 32 b0 0b 38
        E 32 b0 0b 30
        E 16 b0 0b 28
        E 32 b0 0b 20
        E 16 b0 0b 48
        E 0 80 26 00
        E 0 90 28 48
        E 16 b0 0b 40
        E 32 b0 0b 38
        E 32 b0 0b 30
        E 32 b0 0b 28
        E 16 b0 0c 10
        E 0 b0 0b 38
        E 0 80 28 00
        E 0 90 36 38
        E 16 b0 0b 30
        E 32 b0 0b 28
        E 32 b0 0b 20
        E 32 b0 0b 18
        E 16 b0 0b 38
        E 0 80 36 00
        E 0 90 37 38
        E 16 b0 0b 30
        E 16 b0 0b 28
        E 32 b0 0b 20
        E 32 b0 0b 18
        E 32 b0 0b 10
        E 16 b0 0b 20
        E 128 b0 0b 38
        E 16 b0 0b 30
        E 32 b0 0b 28
        E 32 b0 0b 20
        E 16 b0 0b 18
        E 32 b0 0b 10
        E 16 b0 0b 20
        E 16 b0 0b 18
        E 32 b0 0b 10
        E 32 b0 0b 08
        E 32 80 37 00
        E 16 b0 0b 38
        E 0 90 37 38
        E 16 b0 0b 30
        E 32 b0 0b 28
        E 32 b0 0b 20
        E 32 b0 0b 18
        E 16 b0 0b 20
        E 16 b0 0b 18
        E 16 b0 0b 10
        E 32 b0 0b 08
        E 32 80 37 00
        E 48 b0 0b 10
        E 0 90 37 10
        E 128 b0 0b 38
        E 272 b0 0b 20
        E 16 b0 0b 18
        E 32 b0 0b 10
        E 32 b0 0b 08
        E 32 80 37 00
        E 16 b0 0b 38
        E 0 90 37 38
        E 16 b0 0b 30
        E 32 b0 0b 28
        E 16 b0 0b 20
        E 32 b0 0b 18
        E 32 b0 0b 10
        E 16 b0 0b 20
        E 16 b0 0b 18
        E 32 b0 0b 10
        E 32 b0 0b 08
        E 32 80 37 00
        E 16 b0 0c 40
        E 0 b0 0b 48
        E 0 90 28 48
        E 16 b0 0b 40
        E 32 b0 0b 38
        E 32 b0 0b 30
        E 32 b0 0b 28
        E 16 b0 0b 20
        E 16 b0 0b 48
        E 0 80 28 00
        E 0 90 26 48
        E 16 b0 0b 40
        E 32 b0 0b 38
        E 32 b0 0b 30
        E 32 b0 0b 28
        E 16 b0 0b 48
        E 0 80 26 00
        E 0 90 28 48
        E 16 b0 0b 40
        E 32 b0 0b 38
        E 32 b0 0b 30
        E 32 b0 0b 28
        E 16 b0 0c 10
        E 0 b0 0b 38
        E 0 80 28 00
        E 0 90 36 38
        E 16 b0 0b 30
        E 32 b0 0b 28
        E 16 b0 0b 20
        E 32 b0 0b 18
        E 32 b0 0b 10
        E 16 b0 0b 38
        E 0 80 36 00
        E 0 90 37 38
        E 16 b0 0b 30
        E 32 b0 0b 28
        E 32 b0 0b 20
        E 32 b0 0b 18
        E 16 b0 0b 20
        E 144 b0 0b 38
        E 16 b0 0b 30
        E 32 b0 0b 28
        E 32 b0 0b 20
        E 32 b0 0b 18
        E 16 b0 0b 20
        E 16 b0 0b 18
        E 32 b0 0b 10
        E 32 b0 0b 08
        E 32 80 37 00
        E 16 b0 0b 38
        E 0 90 37 38
        E 16 b0 0b 30
        E 32 b0 0b 28
        E 16 b0 0b 20
        E 32 b0 0b 18
        E 32 b0 0b 10
        E 16 b0 0b 20
        E 16 b0 0b 18
        E 32 b0 0b 10
        E 32 b0 0b 08
        E 32 80 37 00
        E 16 b0 0b 10
        E 0 90 37 10
        E 128 b0 0b 38
        E 272 b0 0b 20
        E 16 b0 0b 18
        E 32 b0 0b 10
        E 32 b0 0b 08
        E 16 80 37 00
        E 48 b0 0b 38
        E 0 90 37 38
        E 16 b0 0b 30
        E 32 b0 0b 28
        E 32 b0 0b 20
        E 32 b0 0b 18
        E 16 b0 0b 20
        E 16 b0 0b 18
        E 32 b0 0b 10
        E 32 b0 0b 08
        E 32 80 37 00
        E 16 b0 0c 40
        E 0 b0 0b 48
        E 0 90 28 48
        E 16 b0 0b 40
        E 16 b0 0b 38
        E 32 b0 0b 30
        E 32 b0 0b 28
        E 32 b0 0b 20
        E 16 b0 0b 30
        E 0 80 28 00
        E 0 90 21 30
        E 16 b0 0b 28
        E 32 b0 0b 20
        E 32 b0 0b 18
        E 32 b0 0b 10
        E 16 b0 0b 30
        E 0 80 21 00
        E 0 90 24 30
        E 16 b0 0b 28
        E 32 b0 0b 20
        E 16 b0 0b 18
        E 0 80 24 00
        E 0 90 21 18
        E 80 b0 0b 30
        E 0 80 21 00
        E 0 90 28 30
        E 16 b0 0b 28
        E 32 b0 0b 20
        E 16 b0 0b 18
        E 0 80 28 00
        E 0 90 24 18
        E 16 b0 0b 10
        E 32 b0 0b 08
        E 16 b0 0b 30
        E 0 80 24 00
        E 0 90 2b 30
        E 16 b0 0b 28
        E 32 b0 0b 20
        E 16 b0 0b 18
        E 0 80 2b 00
        E 0 90 28 18
        E 16 b0 0b 10
        E 32 b0 0b 08
        E 16 b0 0b 30
        E 16 b0 0b 28
        E 16 b0 0b 20
        E 32 b0 0b 18
        E 16 80 28 00
        E 0 90 2b 18
        E 16 b0 0b 10
        E 32 b0 0b 08
        E 16 b0 0b 30
        E 0 80 2b 00
        E 0 90 24 30
        E 16 b0 0b 28
        E 32 b0 0b 20
        E 16 b0 0b 18
        E 0 80 24 00
        E 0 90 28 18
        E 16 b0 0b 10
        E 32 b0 0b 08
        E 16 b0 0b 30
        E 16 b0 0b 28
        E 32 b0 0b 20
        E 16 b0 0b 18
        E 0 80 28 00
        E 0 90 24 18
        E 16 b0 0b 10
        E 16 b0 0b 08
        E 32 80 24 00
        E 16 b0 0b 30
        E 0 90 2b 30
        E 16 b0 0b 28
        E 32 b0 0b 20
        E 16 b0 0b 18
        E 0 80 2b 00
        E 0 90 28 18
        E 16 b0 0b 10
        E 32 b0 0b 08
        E 16 b0 0b 30
        E 0 80 28 00
        E 0 90 2d 30
        E 16 b0 0b 28
        E 32 b0 0b 20
        E 16 b0 0b 18
        E 0 80 2d 00
        E 0 90 2b 18
        E 16 b0 0b 10
        E 32 b0 0b 08
        E 16 b0 0b 30
        E 0 80 2b 00
        E 0 90 30 30
        E 16 b0 0b 28
        E 32 b0 0b 20
        E 16 b0 0b 18
        E 16 80 30 00
        E 0 90 2d 18
        E 16 b0 0b 10
        E 32 b0 0b 08
        E 16 b0 0b 30
        E 0 80 2d 00
        E 0 90 34 30
        E 16 b0 0b 28
        E 32 b0 0b 20
        E 16 b0 0b 18
        E 0 80 34 00
        E 0 90 30 18
        E 16 b0 0b 10
        E 32 b0 0b 08
        E 16 b0 0b 30
        E 0 80 30 00
        E 0 90 37 30
        E 16 b0 0b 28
        E 32 b0 0b 20
        E 16 b0 0b 18
        E 0 80 37 00
        E 0 90 34 18
        E 16 b0 0b 10
        E 32 b0 0b 08
        E 16 80 34 00
        E 16 b0 0b 30
        E 0 90 39 30
        E 16 b0 0b 28
        E 32 b0 0b 20
        E 16 b0 0b 18
        E 0 80 39 00
        E 0 90 37 18
        E 16 b0 0b 10
        E 32 b0 0b 08
        E 16 b0 0b 30
        E 0 80 37 00
        E 0 90 3c 30
        E 16 b0 0b 28
        E 32 b0 0b 20
        E 16 b0 0b 18
        E 0 80 3c 00
        E 0 90 39 18
        E 16 b0 0b 10
        E 32 b0 0b 08
        E 16 b0 0b 30
        E 0 80 39 00
        E 0 90 40 30
        E 16 b0 0b 28
        E 32 b0 0b 20
        E 16 b0 0b 18
        E 16 80 40 00
        E 0 90 3c 18
        E 16 b0 0b 10
        E 32 b0 0b 08
        E 16 b0 0b 30
        E 0 80 3c 00
        E 0 90 43 30
        E 16 b0 0b 28
        E 32 b0 0b 20
        E 16 b0 0b 18
        E 0 80 43 00
        E 0 90 40 18
        E 16 b0 0b 10
        E 32 b0 0b 08
        E 16 b0 0b 30
        E 0 80 40 00
        E 0 90 23 30
        E 16 b0 0b 28
        E 32 b0 0b 20
        E 16 b0 0b 18
        E 0 80 23 00
        E 0 90 43 18
        E 16 b0 0b 10
        E 32 b0 0b 08
        E 16 80 43 00
        E 16 b0 0b 30
        E 0 90 27 30
        E 16 b0 0b 28
        E 32 b0 0b 20
        E 16 b0 0b 18
        E 0 80 27 00
        E 0 90 23 18
        E 16 b0 0b 10
        E 32 b0 0b 08
        E 16 b0 0b 30
        E 0 80 23 00
        E 0 90 2a 30
        E 16 b0 0b 28
        E 32 b0 0b 20
        E 16 b0 0b 18
        E 0 80 2a 00
        E 0 90 27 18
        E 16 b0 0b 10
        E 32 b0 0b 08
        E 16 b0 0b 30
        E 0 80 27 00
        E 0 90 2d 30
        E 16 b0 0b 28
        E 32 b0 0b 20
        E 16 b0 0b 18
        E 16 80 2d 00
        E 0 90 2a 18
        E 16 b0 0b 10
        E 32 b0 0b 08
        E 16 b0 0b 30
        E 16 b0 0b 28
        E 32 b0 0b 20
        E 16 b0 0b 18
        E 0 80 2a 00
        E 0 90 2d 18
        E 16 b0 0b 10
        E 32 b0 0b 08
        E 16 b0 0b 30
        E 0 80 2d 00
        E 0 90 27 30
        E 16 b0 0b 28
        E 32 b0 0b 20
        E 16 b0 0b 18
        E 0 80 27 00
        E 0 90 2a 18
        E 16 b0 0b 10
        E 32 b0 0b 08
        E 16 80 2a 00
        E 16 b0 0b 30
        E 0 90 2a 30
        E 16 b0 0b 28
        E 32 b0 0b 20
        E 16 b0 0b 18
        E 0 80 2a 00
        E 0 90 27 18
        E 16 b0 0b 10
        E 32 b0 0b 08
        E 16 b0 0b 30
        E 0 80 27 00
        E 0 90 2d 30
        E 16 b0 0b 28
        E 32 b0 0b 20
        E 16 b0 0b 18
        E 0 80 2d 00
        E 0 90 2a 18
        E 16 b0 0b 10
        E 32 b0 0b 08
        E 16 b0 0b 30
        E 0 80 2a 00
        E 0 90 2f 30
        E 16 b0 0b 28
        E 32 b0 0b 20
        E 16 b0 0b 18
        E 0 80 2f 00
        E 0 90 39 18
        E 16 b0 0b 10
        E 16 b0 0b 08
        E 32 80 39 00
        E 16 b0 0b 30
        E 0 90 33 30
        E 16 b0 0b 28
        E 32 b0 0b 20
        E 16 b0 0b 18
        E 0 80 33 00
        E 0 90 2f 18
        E 16 b0 0b 10
        E 32 b0 0b 08
        E 16 b0 0b 30
        E 0 80 2f 00
        E 0 90 36 30
        E 16 b0 0b 28
        E 32 b0 0b 20
        E 16 b0 0b 18
        E 0 80 36 00
        E 0 90 33 18
        E 16 b0 0b 10
        E 32 b0 0b 08
        E 16 b0 0b 30
        E 0 80 33 00
        E 0 90 39 30
        E 16 b0 0b 28
        E 16 b0 0b 20
        E 32 b0 0b 18
        E 16 80 39 00
        E 0 90 36 18
        E 16 b0 0b 10
        E 32 b0 0b 08
        E 16 b0 0b 30
        E 0 80 36 00
        E 0 90 3b 30
        E 16 b0 0b 28
        E 32 b0 0b 20
        E 16 b0 0b 18
        E 0 80 3b 00
        E 0 90 39 18
        E 16 b0 0b 10
        E 32 b0 0b 08
        E 16 b0 0b 30
        E 0 80 39 00
        E 0 90 3f 30
        E 16 b0 0b 28
        E 32 b0 0b 20
        E 16 b0 0b 18
        E 0 80 3f 00
        E 0 90 3b 18
        E 16 b0 0b 10
        E 16 b0 0b 08
        E 32 80 3b 00
        E 16 b0 0b 30
        E 0 90 42 30
        E 16 b0 0b 28
        E 32 b0 0b 20
        E 16 b0 0b 18
        E 0 80 42 00
        E 0 90 3f 18
        E 16 b0 0b 10
        E 32 b0 0b 08
        E 16 b0 0b 30
        E 0 80 3f 00
        E 0 90 45 30
        E 16 b0 0b 28
        E 32 b0 0b 20
        E 16 b0 0b 18
        E 0 80 45 00
        E 0 90 42 18
        E 64 80 42 00
        E 4304 b0 0c 10
        E 0 b0 0b 20
        E 0 90 34 20
        E 16 b0 0b 18
        E 32 b0 0b 10
        E 32 b0 0b 08
        E 32 80 34 00
        E 16 b0 0b 18
        E 0 90 34 18
        E 16 b0 0b 10
        E 16 b0 0b 08
        E 32 80 34 00
        E 80 b0 0b 10
        E 0 90 34 10
        E 48 b0 0b 08
        E 64 80 34 00
        E 16 90 34 08
        E 80 80 34 00
        E 64 b0 0b 20
        E 0 90 34 20
        E 16 b0 0b 18
        E 32 b0 0b 10
        E 32 b0 0b 08
        E 32 80 34 00
        E 16 b0 0b 18
        E 0 90 34 18
        E 16 b0 0b 10
        E 32 b0 0b 08
        E 32 80 34 00
        E 48 b0 0b 10
        E 0 90 34 10
        E 48 b0 0b 08
        E 48 80 34 00
        E 48 90 34 08
        E 80 80 34 00
        E 48 b0 0b 20
        E 0 90 34 20
        E 16 b0 0b 18
        E 32 b0 0b 10
        E 32 b0 0b 08
        E 32 80 34 00
        E 32 b0 0b 18
        E 0 90 34 18
        E 16 b0 0b 10
        E 32 b0 0b 08
        E 32 80 34 00
        E 48 b0 0b 10
        E 0 90 34 10
        E 48 b0 0b 08
        E 64 80 34 00
        E 16 90 34 08
        E 64 80 34 00
        E 80 b0 0b 20
        E 0 90 34 20
        E 16 b0 0b 18
        E 32 b0 0b 10
        E 32 b0 0b 08
        E 32 80 34 00
        E 16 b0 0b 18
        E 0 90 34 18
        E 16 b0 0b 10
        E 32 b0 0b 08
        E 32 80 34 00
        E 64 b0 0b 10
        E 0 90 34 10
        E 48 b0 0b 08
        E 64 80 34 00
        E 16 90 34 08
        E 80 80 34 00
        E 48 b0 0b 20
        E 0 90 34 20
        E 16 b0 0b 18
        E 32 b0 0b 10
        E 16 b0 0b 08
        E 32 80 34 00
        E 48 b0 0b 18
        E 0 90 34 18
        E 16 b0 0b 10
        E 32 b0 0b 08
        E 32 80 34 00
        E 48 b0 0b 10
        E 0 90 34 10
        E 48 b0 0b 08
        E 64 80 34 00
        E 32 90 34 08
        E 80 80 34 00
        E 48 b0 0b 20
        E 0 90 34 20
        E 16 b0 0b 18
        E 32 b0 0b 10
        E 32 b0 0b 08
        E 32 80 34 00
        E 16 b0 0b 18
        E 0 90 34 18
        E 16 b0 0b 10
        E 32 b0 0b 08
        E 32 80 34 00
        E 64 b0 0b 10
        E 0 90 34 10
        E 48 b0 0b 08
        E 64 80 34 00
        E 16 90 34 08
        E 80 80 34 00
        E 48 b0 0b 20
        E 0 90 34 20
        E 16 b0 0b 18
        E 16 b0 0b 10
        E 32 b0 0b 08
        E 32 80 34 00
        E 48 b0 0b 18
        E 0 90 34 18
        E 16 b0 0b 10
        E 32 b0 0b 08
        E 32 80 34 00
        E 48 b0 0b 10
        E 0 90 34 10
        E 48 b0 0b 08
        E 48 80 34 00
        E 48 90 34 08
        E 80 80 34 00
        E 48 b0 0b 20
        E 0 90 34 20
        E 16 b0 0b 18
        E 32 b0 0b 10
        E 32 b0 0b 08
        E 32 80 34 00
        E 16 b0 0b 18
        E 0 90 34 18
        E 16 b0 0b 10
        E 16 b0 0b 08
        E 32 80 34 00
        E 80 b0 0b 10
        E 0 90 34 10
        E 48 b0 0b 08
        E 64 80 34 00
        E 16 90 34 08
        E 80 80 34 00
        E 64 b0 0c 40
        E 0 b0 0b 38
        E 0 90 28 38
        E 16 b0 0b 30
        E 32 b0 0b 28
        E 32 b0 0b 20
        E 32 b0 0b 18
        E 16 b0 0b 20
        E 16 b0 0b 18
        E 32 b0 0b 10
        E 32 b0 0b 08
        E 32 80 28 00
        E 16 b0 0b 10
        E 0 90 28 10
        E 32 b0 0b 08
        E 64 80 28 00
        E 48 90 28 08
        E 80 80 28 00
        E 48 b0 0b 38
        E 0 90 28 38
        E 16 b0 0b 30
        E 32 b0 0b 28
        E 32 b0 0b 20
        E 32 b0 0b 18
        E 16 b0 0b 10
        E 16 b0 0b 38
        E 0 80 28 00
        E 0 90 26 38
        E 16 b0 0b 30
        E 32 b0 0b 28
        E 32 b0 0b 20
        E 32 b0 0b 18
        E 16 b0 0b 20
        E 16 b0 0b 18
        E 32 b0 0b 10
        E 32 b0 0b 08
        E 32 80 26 00
        E 16 b0 0b 10
        E 0 90 26 10
        E 48 b0 0b 08
        E 48 80 26 00
        E 48 b0 0b 58
        E 0 90 28 58
        E 16 b0 0b 50
        E 32 b0 0b 48
        E 32 b0 0b 40
        E 32 b0 0b 38
        E 32 b0 0b 30
        E 32 b0 0b 28
        E 32 b0 0b 20
        E 32 b0 0b 18
        E 16 b0 0b 10
        E 16 80 28 00
        E 0 90 33 10
        E 144 b0 0b 18
        E 160 b0 0b 20
        E 144 b0 0b 28
        E 160 b0 0b 30
        E 144 b0 0b 38
        E 48 b0 0c 60
        E 0 b0 0b 30
        E 0 80 33 00
        E 0 90 2d 30
        E 128 80 2d 00
        E 0 90 37 30
        E 16 b0 0b 28
        E 32 b0 0b 20
        E 16 b0 0b 18
        E 32 b0 0b 10
        E 32 b0 0b 08
        E 16 b0 0b 30
        E 16 b0 0b 28
        E 32 b0 0b 20
        E 32 b0 0b 18
        E 32 b0 0b 10
        E 16 b0 0b 30
        E 0 80 37 00
        E 0 90 2d 30
        E 16 b0 0b 28
        E 32 b0 0b 20
        E 32 b0 0b 18
        E 32 b0 0b 10
        E 16 b0 0b 30
        E 0 80 2d 00
        E 0 90 34 30
        E 16 b0 0b 28
        E 16 b0 0b 20
        E 32 b0 0b 18
        E 32 b0 0b 10
        E 32 b0 0b 08
        E 16 b0 0b 30
        E 0 80 34 00
        E 0 90 2d 30
        E 16 b0 0b 28
        E 32 b0 0b 20
        E 32 b0 0b 18
        E 32 b0 0b 10
        E 16 b0 0b 30
        E 0 80 2d 00
        E 0 90 34 30
        E 16 b0 0b 28
        E 32 b0 0b 20
        E 32 b0 0b 18
        E 16 b0 0b 10
        E 32 b0 0b 08
        E 16 b0 0b 30
        E 16 b0 0b 28
        E 32 b0 0b 20
        E 32 b0 0b 18
        E 32 b0 0b 10
        E 16 b0 0b 30
        E 0 80 34 00
        E 0 90 2d 30
        E 16 b0 0b 28
        E 32 b0 0b 20
        E 32 b0 0b 18
        E 32 b0 0b 10
        E 16 b0 0b 30
        E 0 80 2d 00
        E 0 90 37 30
        E 16 b0 0b 28
        E 16 b0 0b 20
        E 32 b0 0b 18
        E 32 b0 0b 10
        E 32 b0 0b 08
        E 16 b0 0b 30
        E 16 b0 0b 28
        E 32 b0 0b 20
        E 32 b0 0b 18
        E 32 b0 0b 10
        E 16 b0 0b 30
        E 0 80 37 00
        E 0 90 2d 30
        E 16 b0 0b 28
        E 32 b0 0b 20
        E 32 b0 0b 18
        E 16 b0 0b 10
        E 32 b0 0b 08
        E 16 b0 0b 30
        E 0 80 2d 00
        E 0 90 34 30
        E 16 b0 0b 28
        E 32 b0 0b 20
        E 32 b0 0b 18
        E 32 b0 0b 10
        E 16 b0 0b 30
        E 0 80 34 00
        E 0 90 2d 30
        E 16 b0 0b 28
        E 32 b0 0b 20
        E 32 b0 0b 18
        E 32 b0 0b 10
        E 16 b0 0b 30
        E 0 80 2d 00
        E 0 90 34 30
        E 16 b0 0b 28
        E 16 b0 0b 20
        E 32 b0 0b 18
        E 32 b0 0b 10
        E 32 b0 0b 08
        E 16 b0 0b 30
        E 16 b0 0b 28
        E 32 b0 0b 20
        E 32 b0 0b 18
        E 32 b0 0b 10
        E 16 b0 0c 20
        E 0 b0 0b 38
        E 0 80 34 00
        E 0 90 23 38
        E 16 b0 0b 30
        E 32 b0 0b 28
        E 32 b0 0b 20
        E 16 b0 0b 18
        E 32 b0 0b 10
        E 32 b0 0b 08
        E 32 80 23 00
        E 80 b0 0b 38
        E 0 90 23 38
        E 16 b0 0b 30
        E 32 b0 0b 28
        E 32 b0 0b 20
        E 32 b0 0b 18
        E 32 b0 0b 10
        E 32 b0 0b 08
        E 16 80 23 00
        E 80 b0 0b 38
        E 0 90 23 38
        E 16 b0 0b 30
        E 32 b0 0b 28
        E 32 b0 0b 20
        E 32 b0 0b 18
        E 16 b0 0b 38
        E 0 80 23 00
        E 0 90 21 38
        E 48 b0 0b 30
        E 64 b0 0b 28
        E 48 b0 0b 20
        E 64 b0 0b 18
        E 48 b0 0b 38
        E 0 80 21 00
        E 0 90 23 38
        E 16 b0 0b 30
        E 32 b0 0b 28
        E 32 b0 0b 20
        E 32 b0 0b 18
        E 32 b0 0b 10
        E 32 b0 0b 08
        E 16 80 23 00
        E 80 b0 0b 38
        E 0 90 23 38
        E 16 b0 0b 30
        E 32 b0 0b 28
        E 32 b0 0b 20
        E 32 b0 0b 18
        E 16 b0 0b 38
        E 16 b0 0b 30
        E 32 b0 0b 28
        E 32 b0 0b 20
        E 32 b0 0b 18
        E 16 b0 0b 10
        E 32 b0 0b 08
        E 32 80 23 00
        E 80 b0 0b 38
        E 0 90 23 38
        E 16 b0 0b 30
        E 32 b0 0b 28
        E 32 b0 0b 20
        E 32 b0 0b 18
        E 16 b0 0b 38
        E 0 80 23 00
        E 0 90 26 38
        E 48 b0 0b 30
        E 48 b0 0b 28
        E 64 b0 0b 20
        E 64 b0 0b 18
        E 64 b0 0b 10
        E 64 b0 0b 08
        E 48 80 26 00
        E 16 b0 0b 38
        E 0 90 23 38
        E 16 b0 0b 30
        E 32 b0 0b 28
        E 32 b0 0b 20
        E 32 b0 0b 18
        E 32 b0 0b 10
        E 32 b0 0b 08
        E 32 80 23 00
        E 48 b0 0b 38
        E 0 90 23 38
        E 16 b0 0b 30
        E 32 b0 0b 28
        E 32 b0 0b 20
        E 16 b0 0b 18
        E 32 b0 0b 10
        E 32 b0 0b 08
        E 32 80 23 00
        E 80 b0 0b 38
        E 0 90 23 38
        E 16 b0 0b 30
        E 32 b0 0b 28
        E 32 b0 0b 20
        E 32 b0 0b 18
        E 16 b0 0b 38
        E 0 80 23 00
        E 0 90 21 38
        E 32 b0 0b 30
        E 64 b0 0b 28
        E 64 b0 0b 20
        E 64 b0 0b 18
        E 48 b0 0b 38
        E 0 80 21 00
        E 0 90 23 38
        E 16 b0 0b 30
        E 32 b0 0b 28
        E 32 b0 0b 20
        E 16 b0 0b 18
        E 32 b0 0b 10
        E 32 b0 0b 08
        E 32 80 23 00
        E 80 b0 0b 38
        E 0 90 23 38
        E 16 b0 0b 30
        E 32 b0 0b 28
        E 32 b0 0b 20
        E 32 b0 0b 18
        E 16 b0 0b 38
        E 16 b0 0b 30
        E 16 b0 0b 28
        E 32 b0 0b 20
        E 32 b0 0b 18
        E 32 b0 0b 10
        E 32 b0 0b 08
        E 32 80 23 00
        E 80 b0 0b 38
        E 0 90 23 38
        E 16 b0 0b 30
        E 32 b0 0b 28
        E 32 b0 0b 20
        E 16 b0 0b 18
        E 32 b0 0b 10
        E 16 b0 0b 38
        E 0 80 23 00
        E 0 90 26 38
        E 48 b0 0b 30
        E 64 b0 0b 28
        E 64 b0 0b 20
        E 64 b0 0b 18
        E 48 b0 0b 10
        E 64 b0 0b 08
        E 48 b0 0c 60
        E 0 b0 0b 30
        E 0 80 26 00
        E 0 90 2d 30
        E 16 b0 0b 28
        E 64 b0 0b 20
        E 48 b0 0b 30
        E 0 80 2d 00
        E 0 90 37 30
        E 16 b0 0b 28
        E 32 b0 0b 20
        E 32 b0 0b 18
        E 32 b0 0b 10
        E 16 b0 0b 08
        E 16 b0 0b 30
        E 16 b0 0b 28
        E 32 b0 0b 20
        E 32 b0 0b 18
        E 32 b0 0b 10
        E 16 b0 0b 30
        E 0 80 37 00
        E 0 90 2d 30
        E 16 b0 0b 28
        E 32 b0 0b 20
        E 32 b0 0b 18
        E 32 b0 0b 10
        E 16 b0 0b 30
        E 0 80 2d 00
        E 0 90 34 30
        E 16 b0 0b 28
        E 32 b0 0b 20
        E 16 b0 0b 18
        E 32 b0 0b 10
        E 32 b0 0b 08
        E 16 b0 0b 30
        E 0 80 34 00
        E 0 90 2d 30
        E 16 b0 0b 28
        E 32 b0 0b 20
        E 32 b0 0b 18
        E 32 b0 0b 10
        E 16 b0 0b 30
        E 0 80 2d 00
        E 0 90 34 30
        E 16 b0 0b 28
        E 32 b0 0b 20
        E 32 b0 0b 18
        E 32 b0 0b 10
        E 16 b0 0b 08
        E 16 b0 0b 30
        E 16 b0 0b 28
        E 32 b0 0b 20
        E 32 b0 0b 18
        E 32 b0 0b 10
        E 16 b0 0b 30
        E 0 80 34 00
        E 0 90 2d 30
        E 16 b0 0b 28
        E 32 b0 0b 20
        E 32 b0 0b 18
        E 32 b0 0b 10
        E 16 b0 0b 30
        E 0 80 2d 00
        E 0 90 37 30
        E 16 b0 0b 28
        E 32 b0 0b 20
        E 16 b0 0b 18
        E 32 b0 0b 10
        E 32 b0 0b 08
        E 16 b0 0b 30
        E 16 b0 0b 28
        E 32 b0 0b 20
        E 32 b0 0b 18
        E 32 b0 0b 10
        E 16 b0 0b 30
        E 0 80 37 00
        E 0 90 2d 30
        E 16 b0 0b 28
        E 32 b0 0b 20
        E 32 b0 0b 18
        E 32 b0 0b 10
        E 16 b0 0b 08
        E 16 b0 0b 30
        E 0 80 2d 00
        E 0 90 34 30
        E 16 b0 0b 28
        E 32 b0 0b 20
        E 32 b0 0b 18
        E 32 b0 0b 10
        E 16 b0 0b 30
        E 0 80 34 00
        E 0 90 2d 30
        E 16 b0 0b 28
        E 32 b0 0b 20
        E 32 b0 0b 18
        E 32 b0 0b 10
        E 16 b0 0b 30
        E 0 80 2d 00
        E 0 90 34 30
        E 16 b0 0b 28
        E 32 b0 0b 20
        E 16 b0 0b 18
        E 32 b0 0b 10
        E 32 b0 0b 08
        E 16 b0 0b 30
        E 16 b0 0b 28
        E 32 b0 0b 20
        E 32 b0 0b 18
        E 32 b0 0b 10
        E 16 b0 0c 10
        E 0 b0 0b 38
        E 0 80 34 00
        E 0 90 2f 38
        E 16 b0 0b 30
        E 32 b0 0b 28
        E 32 b0 0b 20
        E 32 b0 0b 18
        E 16 b0 0b 20
        E 144 b0 0b 38
        E 0 80 2f 00
        E 0 90 36 38
        E 144 b0 0b 30
        E 32 b0 0b 28
        E 32 b0 0b 20
        E 16 b0 0b 18
        E 32 b0 0b 10
        E 16 b0 0b 20
        E 128 b0 0b 38
        E 0 80 36 00
        E 0 90 37 38
        E 16 b0 0b 30
        E 32 b0 0b 28
        E 32 b0 0b 20
        E 32 b0 0b 18
        E 16 b0 0b 20
        E 16 b0 0b 18
        E 16 b0 0b 10
        E 32 b0 0b 08
        E 32 80 37 00
        E 48 b0 0b 38
        E 0 90 39 38
        E 16 b0 0b 30
        E 32 b0 0b 28
        E 32 b0 0b 20
        E 32 b0 0b 18
        E 16 b0 0b 20
        E 16 b0 0b 18
        E 32 b0 0b 10
        E 32 b0 0b 08
        E 16 80 39 00
        E 48 b0 0b 10
        E 0 90 39 10
        E 128 b0 0b 38
        E 272 b0 0b 20
        E 128 b0 0b 38
        E 144 b0 0b 20
        E 128 b0 0b 10
        E 128 80 39 00
        E 12896 b0 0b 20
        E 0 90 34 20
        E 16 b0 0b 18
        E 32 b0 0b 10
        E 32 b0 0b 08
        E 32 80 34 00
        E 32 b0 0b 18
        E 0 90 34 18
        E 16 b0 0b 10
        E 32 b0 0b 08
        E 32 80 34 00
        E 48 b0 0b 10
        E 0 90 34 10
        E 48 b0 0b 08
        E 64 80 34 00
        E 16 90 34 08
        E 64 80 34 00
        E 80 b0 0b 20
        E 0 90 34 20
        E 16 b0 0b 18
        E 32 b0 0b 10
        E 32 b0 0b 08
        E 32 80 34 00
        E 16 b0 0b 18
        E 0 90 34 18
        E 16 b0 0b 10
        E 32 b0 0b 08
        E 32 80 34 00
        E 64 b0 0b 10
        E 0 90 34 10
        E 48 b0 0b 08
        E 64 80 34 00
        E 16 90 34 08
        E 80 80 34 00
        E 48 b0 0b 20
        E 0 90 34 20
        E 16 b0 0b 18
        E 32 b0 0b 10
        E 16 b0 0b 08
        E 32 80 34 00
        E 48 b0 0b 18
        E 0 90 34 18
        E 16 b0 0b 10
        E 32 b0 0b 08
        E 32 80 34 00
        E 48 b0 0b 10
        E 0 90 34 10
        E 48 b0 0b 08
        E 64 80 34 00
        E 16 90 34 08
        E 64 80 34 00
        E 80 b0 0b 20
        E 0 90 34 20
        E 16 b0 0b 18
        E 32 b0 0b 10
        E 32 b0 0b 08
        E 32 80 34 00
        E 16 b0 0b 18
        E 0 90 34 18
        E 16 b0 0b 10
        E 32 b0 0b 08
        E 32 80 34 00
        E 64 b0 0b 10
        E 0 90 34 10
        E 48 b0 0b 08
        E 64 80 34 00
        E 16 90 34 08
        E 80 80 34 00
        E 48 b0 0b 20
        E 0 90 34 20
        E 16 b0 0b 18
        E 16 b0 0b 10
        E 32 b0 0b 08
        E 32 80 34 00
        E 48 b0 0b 18
        E 0 90 34 18
        E 16 b0 0b 10
        E 32 b0 0b 08
        E 32 80 34 00
        E 48 b0 0b 10
        E 0 90 34 10
        E 48 b0 0b 08
        E 48 80 34 00
        E 48 90 34 08
        E 80 80 34 00
        E 48 b0 0b 20
        E 0 90 34 20
        E 16 b0 0b 18
        E 32 b0 0b 10
        E 32 b0 0b 08
        E 32 80 34 00
        E 16 b0 0b 18
        E 0 90 34 18
        E 16 b0 0b 10
        E 16 b0 0b 08
        E 32 80 34 00
        E 80 b0 0b 10
        E 0 90 34 10
        E 48 b0 0b 08
        E 64 80 34 00
        E 16 90 34 08
        E 80 80 34 00
        E 64 b0 0b 20
        E 0 90 34 20
        E 16 b0 0b 18
        E 32 b0 0b 10
        E 32 b0 0b 08
        E 32 80 34 00
        E 16 b0 0b 18
        E 0 90 34 18
        E 16 b0 0b 10
        E 32 b0 0b 08
        E 32 80 34 00
        E 48 b0 0b 10
        E 0 90 34 10
        E 48 b0 0b 08
        E 48 80 34 00
        E 48 90 34 08
        E 80 80 34 00
        E 48 b0 0b 20
        E 0 90 34 20
        E 16 b0 0b 18
        E 32 b0 0b 10
        E 32 b0 0b 08
        E 32 80 34 00
        E 32 b0 0b 18
        E 0 90 34 18
        E 16 b0 0b 10
        E 32 b0 0b 08
        E 32 80 34 00
        E 48 b0 0b 10
        E 0 90 34 10
        E 48 b0 0b 08
        E 64 80 34 00
        E 16 90 34 08
        E 64 80 34 00
        E 80 b0 0b 20
        E 0 90 3b 20
        E 16 b0 0b 18
        E 32 b0 0b 10
        E 32 b0 0b 08
        E 32 80 3b 00
        E 16 b0 0b 18
        E 0 90 3b 18
        E 16 b0 0b 10
        E 32 b0 0b 08
        E 32 80 3b 00
        E 64 b0 0b 10
        E 0 90 3b 10
        E 48 b0 0b 08
        E 64 80 3b 00
        E 16 90 3b 08
        E 80 80 3b 00
        E 48 b0 0b 20
        E 0 90 3b 20
        E 16 b0 0b 18
        E 32 b0 0b 10
        E 16 b0 0b 08
        E 32 80 3b 00
        E 48 b0 0b 18
        E 0 90 3b 18
        E 16 b0 0b 10
        E 32 b0 0b 08
        E 32 80 3b 00
        E 48 b0 0b 10
        E 0 90 3b 10
        E 48 b0 0b 08
        E 64 80 3b 00
        E 32 90 3b 08
        E 80 80 3b 00
        E 48 b0 0b 20
        E 0 90 3b 20
        E 16 b0 0b 18
        E 32 b0 0b 10
        E 32 b0 0b 08
        E 32 80 3b 00
        E 16 b0 0b 18
        E 0 90 3b 18
        E 16 b0 0b 10
        E 32 b0 0b 08
        E 32 80 3b 00
        E 64 b0 0b 10
        E 0 90 3b 10
        E 48 b0 0b 08
        E 64 80 3b 00
        E 16 90 3b 08
        E 80 80 3b 00
        E 48 b0 0b 20
        E 0 90 3b 20
        E 16 b0 0b 18
        E 16 b0 0b 10
        E 32 b0 0b 08
        E 32 80 3b 00
        E 48 b0 0b 18
        E 0 90 3b 18
        E 16 b0 0b 10
        E 32 b0 0b 08
        E 32 80 3b 00
        E 48 b0 0b 10
        E 0 90 3b 10
        E 48 b0 0b 08
        E 48 80 3b 00
        E 48 90 3b 08
        E 80 80 3b 00
        E 48 b0 0b 20
        E 0 90 3b 20
        E 16 b0 0b 18
        E 32 b0 0b 10
        E 32 b0 0b 08
        E 32 80 3b 00
        E 16 b0 0b 18
        E 0 90 3b 18
        E 16 b0 0b 10
        E 16 b0 0b 08
        E 32 80 3b 00
        E 80 b0 0b 10
        E 0 90 3b 10
        E 48 b0 0b 08
        E 64 80 3b 00
        E 16 90 3b 08
        E 80 80 3b 00
        E 64 b0 0b 20
        E 0 90 3b 20
        E 16 b0 0b 18
        E 32 b0 0b 10
        E 32 b0 0b 08
        E 32 80 3b 00
        E 16 b0 0b 18
        E 0 90 3b 18
        E 16 b0 0b 10
        E 32 b0 0b 08
        E 32 80 3b 00
        E 48 b0 0b 10
        E 0 90 3b 10
        E 32 b0 0b 08
        E 64 80 3b 00
        E 48 90 3b 08
        E 80 80 3b 00
        E 48 b0 0b 20
        E 0 90 3b 20
        E 16 b0 0b 18
        E 32 b0 0b 10
        E 32 b0 0b 08
        E 32 80 3b 00
        E 32 b0 0b 18
        E 0 90 3b 18
        E 16 b0 0b 10
        E 32 b0 0b 08
        E 32 80 3b 00
        E 48 b0 0b 10
        E 0 90 3b 10
        E 48 b0 0b 08
        E 64 80 3b 00
        E 16 90 3b 08
        E 64 80 3b 00
        E 80 b0 0b 20
        E 0 90 3b 20
        E 16 b0 0b 18
        E 32 b0 0b 10
        E 32 b0 0b 08
        E 32 80 3b 00
        E 16 b0 0b 18
        E 0 90 3b 18
        E 16 b0 0b 10
        E 32 b0 0b 08
        E 32 80 3b 00
        E 64 b0 0b 10
        E 0 90 3b 10
        E 48 b0 0b 08
        E 64 80 3b 00
        E 16 90 3b 08
        E 80 80 3b 00
        E 48 b0 0c 40
        E 0 b0 0b 30
        E 0 90 3b 30
        E 64 b0 0b 28
        E 80 b0 0b 30
        E 0 80 3b 00
        E 0 90 43 30
        E 16 b0 0b 28
        E 48 b0 0b 18
        E 0 80 43 00
        E 0 90 3b 18
        E 64 b0 0b 30
        E 0 80 3b 00
        E 0 90 42 30
        E 48 b0 0b 28
        E 16 b0 0b 18
        E 0 80 42 00
        E 0 90 43 18
        E 64 b0 0b 10
        E 16 b0 0b 30
        E 0 80 43 00
        E 0 90 3e 30
        E 64 b0 0b 18
        E 0 80 3e 00
        E 0 90 42 18
        E 16 b0 0b 10
        E 48 b0 0b 30
        E 0 80 42 00
        E 0 90 39 30
        E 48 b0 0b 28
        E 16 b0 0b 18
        E 0 80 39 00
        E 0 90 3e 18
        E 64 b0 0b 30
        E 16 b0 0b 28
        E 64 b0 0b 18
        E 0 80 3e 00
        E 0 90 39 18
        E 16 b0 0b 10
        E 48 b0 0b 30
        E 0 80 39 00
        E 0 90 3b 30
        E 48 b0 0b 28
        E 16 b0 0b 18
        E 0 80 3b 00
        E 0 90 3e 18
        E 64 b0 0b 30
        E 0 80 3e 00
        E 0 90 40 30
        E 16 b0 0b 28
        E 48 b0 0b 18
        E 0 80 40 00
        E 0 90 3b 18
        E 48 b0 0b 10
        E 16 b0 0b 30
        E 0 80 3b 00
        E 0 90 40 30
        E 64 b0 0b 28
        E 16 b0 0b 18
        E 64 b0 0b 10
        E 64 b0 0b 08
        E 64 b0 0b 30
        E 0 80 40 00
        E 0 90 3e 30
        E 64 b0 0b 18
        E 0 80 3e 00
        E 0 90 40 18
        E 16 b0 0b 10
        E 64 b0 0b 30
        E 0 80 40 00
        E 0 90 3b 30
        E 16 b0 0b 28
        E 48 b0 0b 18
        E 0 80 3b 00
        E 0 90 3e 18
        E 48 b0 0b 10
        E 16 b0 0b 30
        E 0 80 3e 00
        E 0 90 39 30
        E 64 b0 0b 18
        E 0 80 39 00
        E 0 90 3b 18
        E 16 b0 0b 10
        E 48 b0 0b 30
        E 32 b0 0b 28
        E 48 b0 0b 18
        E 0 80 3b 00
        E 0 90 39 18
        E 48 b0 0b 10
        E 16 b0 0b 30
        E 0 80 39 00
        E 0 90 3e 30
        E 64 b0 0b 18
        E 0 80 3e 00
        E 0 90 3b 18
        E 16 b0 0b 10
        E 48 b0 0b 30
        E 0 80 3b 00
        E 0 90 40 30
        E 48 b0 0b 28
        E 16 b0 0b 18
        E 0 80 40 00
        E 0 90 3e 18
        E 64 b0 0b 10
        E 16 b0 0b 30
        E 0 80 3e 00
        E 0 90 3b 30
        E 80 b0 0b 28
        E 48 b0 0b 30
        E 0 80 3b 00
        E 0 90 43 30
        E 48 b0 0b 28
        E 16 b0 0b 18
        E 0 80 43 00
        E 0 90 3b 18
        E 64 b0 0b 30
        E 0 80 3b 00
        E 0 90 42 30
        E 64 b0 0b 28
        E 16 b0 0b 18
        E 0 80 42 00
        E 0 90 43 18
        E 64 b0 0b 30
        E 0 80 43 00
        E 0 90 3e 30
        E 16 b0 0b 28
        E 48 b0 0b 18
        E 0 80 3e 00
        E 0 90 42 18
        E 48 b0 0b 10
        E 16 b0 0b 30
        E 0 80 42 00
        E 0 90 39 30
        E 64 b0 0b 18
        E 0 80 39 00
        E 0 90 3e 18
        E 16 b0 0b 10
        E 64 b0 0b 30
        E 16 b0 0b 28
        E 48 b0 0b 18
        E 0 80 3e 00
        E 0 90 39 18
        E 48 b0 0b 10
        E 16 b0 0b 30
        E 0 80 39 00
        E 0 90 3b 30
        E 64 b0 0b 18
        E 0 80 3b 00
        E 0 90 3e 18
        E 16 b0 0b 10
        E 48 b0 0b 30
        E 0 80 3e 00
        E 0 90 40 30
        E 48 b0 0b 28
        E 32 b0 0b 18
        E 0 80 40 00
        E 0 90 3b 18
        E 48 b0 0b 10
        E 16 b0 0b 30
        E 0 80 3b 00
        E 0 90 40 30
        E 64 b0 0b 18
        E 16 b0 0b 10
        E 112 b0 0b 08
        E 80 b0 0b 30
        E 0 80 40 00
        E 0 90 3e 30
        E 64 b0 0b 18
        E 0 80 3e 00
        E 0 90 40 18
        E 48 b0 0b 10
        E 16 b0 0b 30
        E 0 80 40 00
        E 0 90 3b 30
        E 64 b0 0b 18
        E 0 80 3b 00
        E 0 90 3e 18
        E 16 b0 0b 10
        E 48 b0 0b 30
        E 0 80 3e 00
        E 0 90 39 30
        E 48 b0 0b 28
        E 32 b0 0b 18
        E 0 80 39 00
        E 0 90 3b 18
        E 48 b0 0b 10
        E 16 b0 0b 30
        E 64 b0 0b 18
        E 0 80 3b 00
        E 0 90 39 18
        E 16 b0 0b 10
        E 48 b0 0b 30
        E 0 80 39 00
        E 0 90 3e 30
        E 48 b0 0b 28
        E 16 b0 0b 18
        E 0 80 3e 00
        E 0 90 3b 18
        E 64 b0 0b 10
        E 16 b0 0b 30
        E 0 80 3b 00
        E 0 90 40 30
        E 64 b0 0b 18
        E 0 80 40 00
        E 0 90 3e 18
        E 16 b0 0b 10
        E 48 b0 0b 30
        E 0 80 3e 00
        E 0 90 3b 30
        E 48 b0 0b 28
        E 80 b0 0b 30
        E 0 80 3b 00
        E 0 90 43 30
        E 16 b0 0b 28
        E 64 b0 0b 18
        E 0 80 43 00
        E 0 90 3b 18
        E 64 b0 0b 30
        E 0 80 3b 00
        E 0 90 42 30
        E 16 b0 0b 28
        E 48 b0 0b 18
        E 0 80 42 00
        E 0 90 43 18
        E 48 b0 0b 10
        E 16 b0 0b 30
        E 0 80 43 00
        E 0 90 3e 30
        E 64 b0 0b 18
        E 0 80 3e 00
        E 0 90 42 18
        E 16 b0 0b 10
        E 64 b0 0b 30
        E 0 80 42 00
        E 0 90 39 30
        E 16 b0 0b 28
        E 48 b0 0b 18
        E 0 80 39 00
        E 0 90 3e 18
        E 48 b0 0b 10
        E 16 b0 0b 30
        E 64 b0 0b 18
        E 0 80 3e 00
        E 0 90 39 18
        E 16 b0 0b 10
        E 48 b0 0b 30
        E 0 80 39 00
        E 0 90 3b 30
        E 48 b0 0b 28
        E 16 b0 0b 18
        E 0 80 3b 00
        E 0 90 3e 18
        E 64 b0 0b 10
        E 16 b0 0b 30
        E 0 80 3e 00
        E 0 90 40 30
        E 64 b0 0b 18
        E 0 80 40 00
        E 0 90 3b 18
        E 16 b0 0b 10
        E 48 b0 0b 30
        E 0 80 3b 00
        E 0 90 40 30
        E 48 b0 0b 28
        E 16 b0 0b 18
        E 64 b0 0b 10
        E 80 b0 0b 08
        E 64 b0 0b 30
        E 0 80 40 00
        E 0 90 3e 30
        E 64 b0 0b 18
        E 0 80 3e 00
        E 0 90 40 18
        E 16 b0 0b 10
        E 48 b0 0b 30
        E 0 80 40 00
        E 0 90 3b 30
        E 48 b0 0b 28
        E 16 b0 0b 18
        E 0 80 3b 00
        E 0 90 3e 18
        E 64 b0 0b 10
        E 16 b0 0b 30
        E 0 80 3e 00
        E 0 90 39 30
        E 64 b0 0b 18
        E 0 80 39 00
        E 0 90 3b 18
        E 16 b0 0b 10
        E 48 b0 0b 30
        E 48 b0 0b 28
        E 16 b0 0b 18
        E 0 80 3b 00
        E 0 90 39 18
        E 64 b0 0b 30
        E 0 80 39 00
        E 0 90 3e 30
        E 16 b0 0b 28
        E 64 b0 0b 18
        E 0 80 3e 00
        E 0 90 3b 18
        E 16 b0 0b 10
        E 48 b0 0b 30
        E 0 80 3b 00
        E 0 90 40 30
        E 48 b0 0b 28
        E 16 b0 0b 18
        E 0 80 40 00
        E 0 90 3e 18
        E 64 b0 0b 30
        E 0 80 3e 00
        E 0 90 3b 30
        E 16 b0 0b 28
        E 80 b0 0b 20
        E 48 b0 0b 30
        E 0 80 3b 00
        E 0 90 43 30
        E 48 b0 0b 28
        E 16 b0 0b 18
        E 0 80 43 00
        E 0 90 3b 18
        E 64 b0 0b 30
        E 0 80 3b 00
        E 0 90 42 30
        E 64 b0 0b 18
        E 0 80 42 00
        E 0 90 43 18
        E 16 b0 0b 10
        E 48 b0 0b 30
        E 0 80 43 00
        E 0 90 3e 30
        E 32 b0 0b 28
        E 48 b0 0b 18
        E 0 80 3e 00
        E 0 90 42 18
        E 48 b0 0b 10
        E 16 b0 0b 30
        E 0 80 42 00
        E 0 90 39 30
        E 64 b0 0b 18
        E 0 80 39 00
        E 0 90 3e 18
        E 16 b0 0b 10
        E 48 b0 0b 30
        E 48 b0 0b 28
        E 16 b0 0b 18
        E 0 80 3e 00
        E 0 90 39 18
        E 64 b0 0b 10
        E 16 b0 0b 30
        E 0 80 39 00
        E 0 90 3b 30
        E 64 b0 0b 18
        E 0 80 3b 00
        E 0 90 3e 18
        E 16 b0 0b 10
        E 48 b0 0b 30
        E 0 80 3e 00
        E 0 90 40 30
        E 48 b0 0b 28
        E 16 b0 0b 18
        E 0 80 40 00
        E 0 90 3b 18
        E 64 b0 0b 30
        E 0 80 3b 00
        E 0 90 40 30
        E 16 b0 0b 28
        E 64 b0 0b 18
        E 16 b0 0b 10
        E 112 b0 0b 08
        E 64 b0 0b 30
        E 0 80 40 00
        E 0 90 3e 30
        E 64 b0 0b 18
        E 0 80 3e 00
        E 0 90 40 18
        E 48 b0 0b 10
        E 32 b0 0b 30
        E 0 80 40 00
        E 0 90 3b 30
        E 48 b0 0b 28
        E 16 b0 0b 18
        E 0 80 3b 00
        E 0 90 3e 18
        E 64 b0 0b 30
        E 0 80 3e 00
        E 0 90 39 30
        E 16 b0 0b 28
        E 48 b0 0b 18
        E 0 80 39 00
        E 0 90 3b 18
        E 48 b0 0b 10
        E 16 b0 0b 30
        E 64 b0 0b 28
        E 16 b0 0b 18
        E 0 80 3b 00
        E 0 90 39 18
        E 64 b0 0b 30
        E 0 80 39 00
        E 0 90 3e 30
        E 16 b0 0b 28
        E 48 b0 0b 18
        E 0 80 3e 00
        E 0 90 3b 18
        E 48 b0 0b 10
        E 16 b0 0b 30
        E 0 80 3b 00
        E 0 90 40 30
        E 64 b0 0b 18
        E 0 80 40 00
        E 0 90 3e 18
        E 16 b0 0b 10
        E 64 b0 0b 48
        E 0 80 3e 00
        E 0 90 26 48
        E 16 b0 0b 40
        E 32 b0 0b 38
        E 32 b0 0b 30
        E 32 b0 0b 28
        E 16 b0 0b 48
        E 0 80 26 00
        E 0 90 28 48
        E 16 b0 0b 40
        E 32 b0 0b 38
        E 32 b0 0b 30
        E 32 b0 0b 28
        E 16 b0 0c 10
        E 0 b0 0b 38
        E 0 80 28 00
        E 0 90 36 38
        E 16 b0 0b 30
        E 32 b0 0b 28
        E 16 b0 0b 20
        E 32 b0 0b 18
        E 32 b0 0b 10
        E 16 b0 0b 38
        E 0 80 36 00
        E 0 90 37 38
        E 16 b0 0b 30
        E 32 b0 0b 28
        E 32 b0 0b 20
        E 32 b0 0b 18
        E 16 b0 0b 20
        E 128 b0 0b 38
        E 16 b0 0b 30
        E 16 b0 0b 28
        E 32 b0 0b 20
        E 32 b0 0b 18
        E 32 b0 0b 10
        E 16 b0 0b 20
        E 16 b0 0b 18
        E 32 b0 0b 10
        E 32 b0 0b 08
        E 32 80 37 00
        E 16 b0 0b 38
        E 0 90 37 38
        E 16 b0 0b 30
        E 32 b0 0b 28
        E 32 b0 0b 20
        E 16 b0 0b 18
        E 32 b0 0b 10
        E 16 b0 0b 20
        E 16 b0 0b 18
        E 32 b0 0b 10
        E 32 b0 0b 08
        E 32 80 37 00
        E 16 b0 0b 10
        E 0 90 37 10
        E 128 b0 0b 38
        E 272 b0 0b 20
        E 16 b0 0b 18
        E 32 b0 0b 10
        E 32 b0 0b 08
        E 16 80 37 00
        E 48 b0 0b 38
        E 0 90 37 38
        E 16 b0 0b 30
        E 32 b0 0b 28
        E 32 b0 0b 20
        E 32 b0 0b 18
        E 16 b0 0b 20
        E 16 b0 0b 18
        E 32 b0 0b 10
        E 32 b0 0b 08
        E 32 80 37 00
        E 16 b0 0c 40
        E 0 b0 0b 48
        E 0 90 28 48
        E 16 b0 0b 40
        E 16 b0 0b 38
        E 32 b0 0b 30
        E 32 b0 0b 28
        E 32 b0 0b 20
        E 16 b0 0b 48
        E 0 80 28 00
        E 0 90 26 48
        E 16 b0 0b 40
        E 32 b0 0b 38
        E 32 b0 0b 30
        E 32 b0 0b 28
        E 16 b0 0b 48
        E 0 80 26 00
        E 0 90 28 48
        E 16 b0 0b 40
        E 32 b0 0b 38
        E 32 b0 0b 30
        E 16 b0 0b 28
        E 32 b0 0b 20
        E 16 b0 0c 10
        E 0 b0 0b 38
        E 0 80 28 00
        E 0 90 36 38
        E 16 b0 0b 30
        E 32 b0 0b 28
        E 32 b0 0b 20
        E 32 b0 0b 18
        E 16 b0 0b 38
        E 0 80 36 00
        E 0 90 37 38
        E 16 b0 0b 30
        E 32 b0 0b 28
        E 32 b0 0b 20
        E 32 b0 0b 18
        E 16 b0 0b 20
        E 144 b0 0b 38
        E 16 b0 0b 30
        E 32 b0 0b 28
        E 32 b0 0b 20
        E 32 b0 0b 18
        E 16 b0 0b 20
        E 16 b0 0b 18
        E 32 b0 0b 10
        E 32 b0 0b 08
        E 32 80 37 00
        E 32 b0 0b 38
        E 0 90 37 38
        E 16 b0 0b 30
        E 32 b0 0b 28
        E 32 b0 0b 20
        E 32 b0 0b 18
        E 16 b0 0b 20
        E 16 b0 0b 18
        E 32 b0 0b 10
        E 32 b0 0b 08
        E 32 80 37 00
        E 16 b0 0b 10
        E 0 90 37 10
        E 144 b0 0b 38
        E 272 b0 0b 20
        E 16 b0 0b 18
        E 32 b0 0b 10
        E 32 b0 0b 08
        E 32 80 37 00
        E 16 b0 0b 38
        E 0 90 37 38
        E 16 b0 0b 30
        E 32 b0 0b 28
        E 32 b0 0b 20
        E 32 b0 0b 18
        E 16 b0 0b 20
        E 16 b0 0b 18
        E 32 b0 0b 10
        E 16 b0 0b 08
        E 32 80 37 00
        E 48 b0 0c 40
        E 0 b0 0b 48
        E 0 90 28 48
        E 16 b0 0b 40
        E 32 b0 0b 38
        E 32 b0 0b 30
        E 32 b0 0b 28
        E 16 b0 0b 48
        E 0 80 28 00
        E 0 90 26 48
        E 16 b0 0b 40
        E 32 b0 0b 38
        E 32 b0 0b 30
        E 32 b0 0b 28
        E 16 b0 0b 20
        E 16 b0 0b 48
        E 0 80 26 00
        E 0 90 28 48
        E 16 b0 0b 40
        E 32 b0 0b 38
        E 32 b0 0b 30
        E 32 b0 0b 28
        E 16 b0 0c 10
        E 0 b0 0b 38
        E 0 80 28 00
        E 0 90 36 38
        E 16 b0 0b 30
        E 32 b0 0b 28
        E 32 b0 0b 20
        E 32 b0 0b 18
        E 16 b0 0b 38
        E 0 80 36 00
        E 0 90 37 38
        E 16 b0 0b 30
        E 32 b0 0b 28
        E 32 b0 0b 20
        E 16 b0 0b 18
        E 32 b0 0b 10
        E 16 b0 0b 20
        E 128 b0 0b 38
        E 16 b0 0b 30
        E 32 b0 0b 28
        E 32 b0 0b 20
        E 32 b0 0b 18
        E 16 b0 0b 20
        E 16 b0 0b 18
        E 16 b0 0b 10
        E 32 b0 0b 08
        E 32 80 37 00
        E 48 b0 0b 38
        E 0 90 37 38
        E 16 b0 0b 30
        E 32 b0 0b 28
        E 32 b0 0b 20
        E 32 b0 0b 18
        E 16 b0 0b 20
        E 16 b0 0b 18
        E 32 b0 0b 10
        E 32 b0 0b 08
        E 16 80 37 00
        E 48 b0 0b 10
        E 0 90 37 10
        E 128 b0 0b 38
        E 272 b0 0b 20
        E 16 b0 0b 18
        E 32 b0 0b 10
        E 32 b0 0b 08
        E 32 80 37 00
        E 16 b0 0b 38
        E 0 90 37 38
        E 16 b0 0b 30
        E 32 b0 0b 28
        E 32 b0 0b 20
        E 16 b0 0b 18
        E 32 b0 0b 10
        E 16 b0 0b 20
        E 16 b0 0b 18
        E 32 b0 0b 10
        E 32 b0 0b 08
        E 32 80 37 00
        E 16 b0 0c 40
        E 0 b0 0b 48
        E 0 90 28 48
        E 16 b0 0b 40
        E 32 b0 0b 38
        E 32 b0 0b 30
        E 32 b0 0b 28
        E 16 b0 0b 48
        E 0 80 28 00
        E 0 90 26 48
        E 16 b0 0b 40
        E 16 b0 0b 38
        E 32 b0 0b 30
        E 32 b0 0b 28
        E 32 b0 0b 20
        E 16 b0 0b 48
        E 0 80 26 00
        E 0 90 28 48
        E 16 b0 0b 40
        E 32 b0 0b 38
        E 32 b0 0b 30
        E 32 b0 0b 28
        E 16 b0 0c 10
        E 0 b0 0b 38
        E 0 80 28 00
        E 0 90 36 38
        E 16 b0 0b 30
        E 32 b0 0b 28
        E 32 b0 0b 20
        E 32 b0 0b 18
        E 16 b0 0b 10
        E 16 b0 0b 38
        E 0 80 36 00
        E 0 90 37 38
        E 16 b0 0b 30
        E 32 b0 0b 28
        E 32 b0 0b 20
        E 32 b0 0b 18
        E 16 b0 0b 20
        E 128 b0 0b 38
        E 16 b0 0b 30
        E 32 b0 0b 28
        E 16 b0 0b 20
        E 32 b0 0b 18
        E 32 b0 0b 10
        E 16 b0 0b 20
        E 16 b0 0b 18
        E 32 b0 0b 10
        E 32 b0 0b 08
        E 32 80 37 00
        E 16 b0 0b 38
        E 0 90 37 38
        E 16 b0 0b 30
        E 32 b0 0b 28
        E 32 b0 0b 20
        E 32 b0 0b 18
        E 16 b0 0b 10
        E 16 b0 0b 20
        E 16 b0 0b 18
        E 32 b0 0b 10
        E 32 b0 0b 08
        E 32 80 37 00
        E 16 b0 0b 10
        E 0 90 37 10
        E 128 b0 0b 38
        E 272 b0 0b 20
        E 16 b0 0b 18
        E 32 b0 0b 10
        E 32 b0 0b 08
        E 32 80 37 00
        E 32 b0 0b 38
        E 0 90 37 38
        E 16 b0 0b 30
        E 32 b0 0b 28
        E 32 b0 0b 20
        E 32 b0 0b 18
        E 16 b0 0b 20
        E 16 b0 0b 18
        E 32 b0 0b 10
        E 32 b0 0b 08
        E 32 80 37 00
        E 16 b0 0c 40
        E 0 b0 0b 48
        E 0 90 28 48
        E 16 b0 0b 40
        E 32 b0 0b 38
        E 16 b0 0b 30
        E 32 b0 0b 28
        E 32 b0 0b 20
        E 16 b0 0b 30
        E 0 80 28 00
        E 0 90 21 30
        E 16 b0 0b 28
        E 32 b0 0b 20
        E 32 b0 0b 18
        E 32 b0 0b 10
        E 16 b0 0b 30
        E 0 80 21 00
        E 0 90 24 30
        E 16 b0 0b 28
        E 32 b0 0b 20
        E 16 b0 0b 18
        E 0 80 24 00
        E 0 90 21 18
        E 64 b0 0b 30
        E 0 80 21 00
        E 0 90 28 30
        E 16 b0 0b 28
        E 16 b0 0b 20
        E 32 b0 0b 18
        E 16 80 28 00
        E 0 90 24 18
        E 16 b0 0b 10
        E 32 b0 0b 08
        E 16 b0 0b 30
        E 0 80 24 00
        E 0 90 2b 30
        E 16 b0 0b 28
        E 32 b0 0b 20
        E 16 b0 0b 18
        E 0 80 2b 00
        E 0 90 28 18
        E 16 b0 0b 10
        E 32 b0 0b 08
        E 16 b0 0b 30
        E 16 b0 0b 28
        E 32 b0 0b 20
        E 16 b0 0b 18
        E 0 80 28 00
        E 0 90 2b 18
        E 16 b0 0b 10
        E 16 b0 0b 08
        E 32 80 2b 00
        E 16 b0 0b 30
        E 0 90 24 30
        E 16 b0 0b 28
        E 32 b0 0b 20
        E 16 b0 0b 18
        E 0 80 24 00
        E 0 90 28 18
        E 16 b0 0b 10
        E 32 b0 0b 08
        E 16 b0 0b 30
        E 16 b0 0b 28
        E 32 b0 0b 20
        E 16 b0 0b 18
        E 0 80 28 00
        E 0 90 24 18
        E 16 b0 0b 10
        E 32 b0 0b 08
        E 16 b0 0b 30
        E 0 80 24 00
        E 0 90 2b 30
        E 16 b0 0b 28
        E 16 b0 0b 20
        E 32 b0 0b 18
        E 16 80 2b 00
        E 0 90 28 18
        E 16 b0 0b 10
        E 32 b0 0b 08
        E 16 b0 0b 30
        E 0 80 28 00
        E 0 90 2d 30
        E 16 b0 0b 28
        E 32 b0 0b 20
        E 16 b0 0b 18
        E 0 80 2d 00
        E 0 90 2b 18
        E 16 b0 0b 10
        E 32 b0 0b 08
        E 16 b0 0b 30
        E 0 80 2b 00
        E 0 90 30 30
        E 16 b0 0b 28
        E 32 b0 0b 20
        E 16 b0 0b 18
        E 0 80 30 00
        E 0 90 2d 18
        E 16 b0 0b 10
        E 16 b0 0b 08
        E 32 80 2d 00
        E 16 b0 0b 30
        E 0 90 34 30
        E 16 b0 0b 28
        E 32 b0 0b 20
        E 16 b0 0b 18
        E 0 80 34 00
        E 0 90 30 18
        E 16 b0 0b 10
        E 32 b0 0b 08
        E 16 b0 0b 30
        E 0 80 30 00
        E 0 90 37 30
        E 16 b0 0b 28
        E 32 b0 0b 20
        E 16 b0 0b 18
        E 0 80 37 00
        E 0 90 34 18
        E 16 b0 0b 10
        E 32 b0 0b 08
        E 16 b0 0b 30
        E 0 80 34 00
        E 0 90 39 30
        E 16 b0 0b 28
        E 16 b0 0b 20
        E 32 b0 0b 18
        E 16 80 39 00
        E 0 90 37 18
        E 16 b0 0b 10
        E 32 b0 0b 08
        E 16 b0 0b 30
        E 0 80 37 00
        E 0 90 3c 30
        E 16 b0 0b 28
        E 32 b0 0b 20
        E 16 b0 0b 18
        E 0 80 3c 00
        E 0 90 39 18
        E 16 b0 0b 10
        E 32 b0 0b 08
        E 16 b0 0b 30
        E 0 80 39 00
        E 0 90 40 30
        E 16 b0 0b 28
        E 32 b0 0b 20
        E 16 b0 0b 18
        E 0 80 40 00
        E 0 90 3c 18
        E 16 b0 0b 10
        E 16 b0 0b 08
        E 32 80 3c 00
        E 16 b0 0b 30
        E 0 90 43 30
        E 16 b0 0b 28
        E 32 b0 0b 20
        E 16 b0 0b 18
        E 0 80 43 00
        E 0 90 40 18
        E 16 b0 0b 10
        E 32 b0 0b 08
        E 16 b0 0b 30
        E 0 80 40 00
        E 0 90 23 30
        E 16 b0 0b 28
        E 32 b0 0b 20
        E 16 b0 0b 18
        E 0 80 23 00
        E 0 90 43 18
        E 16 b0 0b 10
        E 32 b0 0b 08
        E 16 b0 0b 30
        E 0 80 43 00
        E 0 90 27 30
        E 16 b0 0b 28
        E 32 b0 0b 20
        E 16 b0 0b 18
        E 16 80 27 00
        E 0 90 23 18
        E 16 b0 0b 10
        E 32 b0 0b 08
        E 16 b0 0b 30
        E 0 80 23 00
        E 0 90 2a 30
        E 16 b0 0b 28
        E 32 b0 0b 20
        E 16 b0 0b 18
        E 0 80 2a 00
        E 0 90 27 18
        E 16 b0 0b 10
        E 32 b0 0b 08
        E 16 b0 0b 30
        E 0 80 27 00
        E 0 90 2d 30
        E 16 b0 0b 28
        E 32 b0 0b 20
        E 16 b0 0b 18
        E 0 80 2d 00
        E 0 90 2a 18
        E 16 b0 0b 10
        E 32 b0 0b 08
        E 16 80 2a 00
        E 16 b0 0b 30
        E 0 90 2a 30
        E 16 b0 0b 28
        E 32 b0 0b 20
        E 16 b0 0b 18
        E 0 80 2a 00
        E 0 90 2d 18
        E 16 b0 0b 10
        E 32 b0 0b 08
        E 16 b0 0b 30
        E 0 80 2d 00
        E 0 90 27 30
        E 16 b0 0b 28
        E 32 b0 0b 20
        E 16 b0 0b 18
        E 0 80 27 00
        E 0 90 2a 18
        E 16 b0 0b 10
        E 32 b0 0b 08
        E 16 b0 0b 30
        E 16 b0 0b 28
        E 32 b0 0b 20
        E 16 b0 0b 18
        E 16 80 2a 00
        E 0 90 27 18
        E 16 b0 0b 10
        E 32 b0 0b 08
        E 16 b0 0b 30
        E 0 80 27 00
        E 0 90 2d 30
        E 16 b0 0b 28
        E 32 b0 0b 20
        E 16 b0 0b 18
        E 0 80 2d 00
        E 0 90 2a 18
        E 16 b0 0b 10
        E 32 b0 0b 08
        E 16 b0 0b 30
        E 0 80 2a 00
        E 0 90 2f 30
        E 16 b0 0b 28
        E 32 b0 0b 20
        E 16 b0 0b 18
        E 0 80 2f 00
        E 0 90 39 18
        E 16 b0 0b 10
        E 32 b0 0b 08
        E 16 80 39 00
        E 16 b0 0b 30
        E 0 90 33 30
        E 16 b0 0b 28
        E 32 b0 0b 20
        E 16 b0 0b 18
        E 0 80 33 00
        E 0 90 2f 18
        E 16 b0 0b 10
        E 32 b0 0b 08
        E 16 b0 0b 30
        E 0 80 2f 00
        E 0 90 36 30
        E 16 b0 0b 28
        E 32 b0 0b 20
        E 16 b0 0b 18
        E 0 80 36 00
        E 0 90 33 18
        E 16 b0 0b 10
        E 32 b0 0b 08
        E 16 b0 0b 30
        E 0 80 33 00
        E 0 90 39 30
        E 16 b0 0b 28
        E 32 b0 0b 20
        E 16 b0 0b 18
        E 16 80 39 00
        E 0 90 36 18
        E 16 b0 0b 10
        E 32 b0 0b 08
        E 16 b0 0b 30
        E 0 80 36 00
        E 0 90 3b 30
        E 16 b0 0b 28
        E 32 b0 0b 20
        E 16 b0 0b 18
        E 0 80 3b 00
        E 0 90 39 18
        E 16 b0 0b 10
        E 32 b0 0b 08
        E 16 b0 0b 30
        E 0 80 39 00
        E 0 90 3f 30
        E 16 b0 0b 28
        E 32 b0 0b 20
        E 16 b0 0b 18
        E 0 80 3f 00
        E 0 90 3b 18
        E 16 b0 0b 10
        E 32 b0 0b 08
        E 16 80 3b 00
        E 16 b0 0b 30
        E 0 90 42 30
        E 16 b0 0b 28
        E 32 b0 0b 20
        E 16 b0 0b 18
        E 0 80 42 00
        E 0 90 3f 18
        E 16 b0 0b 10
        E 32 b0 0b 08
        E 16 b0 0b 30
        E 0 80 3f 00
        E 0 90 45 30
        E 16 b0 0b 28
        E 32 b0 0b 20
        E 16 b0 0b 18
        E 0 80 45 00
        E 0 90 42 18
        E 64 80 42 00
        E 4304 b0 0c 10
        E 0 b0 0b 20
        E 0 90 34 20
        E 16 b0 0b 18
        E 32 b0 0b 10
        E 32 b0 0b 08
        E 32 80 34 00
        E 16 b0 0b 18
        E 0 90 34 18
        E 16 b0 0b 10
        E 32 b0 0b 08
        E 32 80 34 00
        E 64 b0 0b 10
        E 0 90 34 10
        E 48 b0 0b 08
        E 64 80 34 00
        E 16 90 34 08
        E 80 80 34 00
        E 48 b0 0b 20
        E 0 90 34 20
        E 16 b0 0b 18
        E 16 b0 0b 10
        E 32 b0 0b 08
        E 32 80 34 00
        E 48 b0 0b 18
        E 0 90 34 18
        E 16 b0 0b 10
        E 32 b0 0b 08
        E 32 80 34 00
        E 48 b0 0b 10
        E 0 90 34 10
        E 48 b0 0b 08
        E 48 80 34 00
        E 48 90 34 08
        E 80 80 34 00
        E 48 b0 0b 20
        E 0 90 34 20
        E 16 b0 0b 18
        E 32 b0 0b 10
        E 32 b0 0b 08
        E 32 80 34 00
        E 16 b0 0b 18
        E 0 90 34 18
        E 16 b0 0b 10
        E 16 b0 0b 08
        E 32 80 34 00
        E 80 b0 0b 10
        E 0 90 34 10
        E 48 b0 0b 08
        E 64 80 34 00
        E 16 90 34 08
        E 80 80 34 00
        E 64 b0 0b 20
        E 0 90 34 20
        E 16 b0 0b 18
        E 32 b0 0b 10
        E 32 b0 0b 08
        E 32 80 34 00
        E 16 b0 0b 18
        E 0 90 34 18
        E 16 b0 0b 10
        E 32 b0 0b 08
        E 32 80 34 00
        E 48 b0 0b 10
        E 0 90 34 10
        E 48 b0 0b 08
        E 48 80 34 00
        E 48 90 34 08
        E 80 80 34 00
        E 48 b0 0b 20
        E 0 90 34 20
        E 16 b0 0b 18
        E 32 b0 0b 10
        E 32 b0 0b 08
        E 32 80 34 00
        E 32 b0 0b 18
        E 0 90 34 18
        E 16 b0 0b 10
        E 32 b0 0b 08
        E 32 80 34 00
        E 48 b0 0b 10
        E 0 90 34 10
        E 48 b0 0b 08
        E 64 80 34 00
        E 16 90 34 08
        E 64 80 34 00
        E 80 b0 0b 20
        E 0 90 34 20
        E 16 b0 0b 18
        E 32 b0 0b 10
        E 32 b0 0b 08
        E 32 80 34 00
        E 16 b0 0b 18
        E 0 90 34 18
        E 16 b0 0b 10
        E 32 b0 0b 08
        E 32 80 34 00
        E 64 b0 0b 10
        E 0 90 34 10
        E 48 b0 0b 08
        E 64 80 34 00
        E 16 90 34 08
        E 80 80 34 00
        E 48 b0 0b 20
        E 0 90 34 20
        E 16 b0 0b 18
        E 32 b0 0b 10
        E 16 b0 0b 08
        E 32 80 34 00
        E 48 b0 0b 18
        E 0 90 34 18
        E 16 b0 0b 10
        E 32 b0 0b 08
        E 32 80 34 00
        E 48 b0 0b 10
        E 0 90 34 10
        E 48 b0 0b 08
        E 64 80 34 00
        E 32 90 34 08
        E 80 80 34 00
        E 48 b0 0b 20
        E 0 90 34 20
        E 16 b0 0b 18
        E 32 b0 0b 10
        E 32 b0 0b 08
        E 32 80 34 00
        E 16 b0 0b 18
        E 0 90 34 18
        E 16 b0 0b 10
        E 32 b0 0b 08
        E 32 80 34 00
        E 64 b0 0b 10
        E 0 90 34 10
        E 48 b0 0b 08
        E 64 80 34 00
        E 16 90 34 08
        E 80 80 34 00
        E 48 b0 0c 40
        E 0 b0 0b 38
        E 0 90 28 38
        E 16 b0 0b 30
        E 16 b0 0b 28
        E 32 b0 0b 20
        E 32 b0 0b 18
        E 32 b0 0b 10
        E 16 b0 0b 20
        E 16 b0 0b 18
        E 32 b0 0b 10
        E 32 b0 0b 08
        E 32 80 28 00
        E 16 b0 0b 10
        E 0 90 28 10
        E 48 b0 0b 08
        E 48 80 28 00
        E 48 90 28 08
        E 80 80 28 00
        E 48 b0 0b 38
        E 0 90 28 38
        E 16 b0 0b 30
        E 32 b0 0b 28
        E 32 b0 0b 20
        E 32 b0 0b 18
        E 16 b0 0b 38
        E 0 80 28 00
        E 0 90 26 38
        E 16 b0 0b 30
        E 16 b0 0b 28
        E 32 b0 0b 20
        E 32 b0 0b 18
        E 32 b0 0b 10
        E 16 b0 0b 20
        E 16 b0 0b 18
        E 32 b0 0b 10
        E 32 b0 0b 08
        E 32 80 26 00
        E 16 b0 0b 10
        E 0 90 26 10
        E 48 b0 0b 08
        E 48 80 26 00
        E 48 b0 0b 58
        E 0 90 28 58
        E 16 b0 0b 50
        E 32 b0 0b 48
        E 32 b0 0b 40
        E 32 b0 0b 38
        E 32 b0 0b 30
        E 32 b0 0b 28
        E 32 b0 0b 20
        E 32 b0 0b 18
        E 16 b0 0b 10
        E 0 80 28 00
        E 0 90 33 10
        E 128 b0 0b 18
        E 160 b0 0b 20
        E 144 b0 0b 28
        E 160 b0 0b 30
        E 144 b0 0b 38
        E 80 b0 0c 60
        E 0 b0 0b 30
        E 0 80 33 00
        E 0 90 2d 30
        E 128 80 2d 00
        E 0 90 37 30
        E 16 b0 0b 28
        E 32 b0 0b 20
        E 32 b0 0b 18
        E 32 b0 0b 10
        E 16 b0 0b 08
        E 16 b0 0b 30
        E 16 b0 0b 28
        E 32 b0 0b 20
        E 32 b0 0b 18
        E 32 b0 0b 10
        E 16 b0 0b 30
        E 0 80 37 00
        E 0 90 2d 30
        E 16 b0 0b 28
        E 32 b0 0b 20
        E 32 b0 0b 18
        E 32 b0 0b 10
        E 16 b0 0b 30
        E 0 80 2d 00
        E 0 90 34 30
        E 16 b0 0b 28
        E 32 b0 0b 20
        E 16 b0 0b 18
        E 32 b0 0b 10
        E 32 b0 0b 08
        E 16 b0 0b 30
        E 0 80 34 00
        E 0 90 2d 30
        E 16 b0 0b 28
        E 32 b0 0b 20
        E 32 b0 0b 18
        E 32 b0 0b 10
        E 16 b0 0b 30
        E 0 80 2d 00
        E 0 90 34 30
        E 16 b0 0b 28
        E 32 b0 0b 20
        E 32 b0 0b 18
        E 32 b0 0b 10
        E 16 b0 0b 08
        E 16 b0 0b 30
        E 16 b0 0b 28
        E 32 b0 0b 20
        E 32 b0 0b 18
        E 32 b0 0b 10
        E 16 b0 0b 30
        E 0 80 34 00
        E 0 90 2d 30
        E 16 b0 0b 28
        E 32 b0 0b 20
        E 32 b0 0b 18
        E 32 b0 0b 10
        E 16 b0 0b 30
        E 0 80 2d 00
        E 0 90 37 30
        E 16 b0 0b 28
        E 32 b0 0b 20
        E 16 b0 0b 18
        E 32 b0 0b 10
        E 32 b0 0b 08
        E 16 b0 0b 30
        E 16 b0 0b 28
        E 32 b0 0b 20
        E 32 b0 0b 18
        E 32 b0 0b 10
        E 16 b0 0b 30
        E 0 80 37 00
        E 0 90 2d 30
        E 16 b0 0b 28
        E 32 b0 0b 20
        E 32 b0 0b 18
        E 32 b0 0b 10
        E 16 b0 0b 30
        E 0 80 2d 00
        E 0 90 34 30
        E 16 b0 0b 28
        E 16 b0 0b 20
        E 32 b0 0b 18
        E 32 b0 0b 10
        E 32 b0 0b 08
        E 16 b0 0b 30
        E 0 80 34 00
        E 0 90 2d 30
        E 16 b0 0b 28
        E 32 b0 0b 20
        E 32 b0 0b 18
        E 32 b0 0b 10
        E 16 b0 0b 30
        E 0 80 2d 00
        E 0 90 34 30
        E 16 b0 0b 28
        E 32 b0 0b 20
        E 32 b0 0b 18
        E 16 b0 0b 10
        E 32 b0 0b 08
        E 16 b0 0b 30
        E 16 b0 0b 28
        E 32 b0 0b 20
        E 32 b0 0b 18
        E 32 b0 0b 10
        E 16 b0 0c 20
        E 0 b0 0b 38
        E 0 80 34 00
        E 0 90 23 38
        E 16 b0 0b 30
        E 32 b0 0b 28
        E 32 b0 0b 20
        E 32 b0 0b 18
        E 32 b0 0b 10
        E 16 b0 0b 08
        E 32 80 23 00
        E 80 b0 0b 38
        E 0 90 23 38
        E 16 b0 0b 30
        E 32 b0 0b 28
        E 32 b0 0b 20
        E 32 b0 0b 18
        E 32 b0 0b 10
        E 32 b0 0b 08
        E 32 80 23 00
        E 64 b0 0b 38
        E 0 90 23 38
        E 16 b0 0b 30
        E 32 b0 0b 28
        E 32 b0 0b 20
        E 32 b0 0b 18
        E 16 b0 0b 38
        E 0 80 23 00
        E 0 90 21 38
        E 48 b0 0b 30
        E 64 b0 0b 28
        E 48 b0 0b 20
        E 64 b0 0b 18
        E 48 b0 0b 38
        E 0 80 21 00
        E 0 90 23 38
        E 16 b0 0b 30
        E 32 b0 0b 28
        E 32 b0 0b 20
        E 32 b0 0b 18
        E 32 b0 0b 10
        E 32 b0 0b 08
        E 32 80 23 00
        E 64 b0 0b 38
        E 0 90 23 38
        E 16 b0 0b 30
        E 32 b0 0b 28
        E 32 b0 0b 20
        E 32 b0 0b 18
        E 16 b0 0b 38
        E 16 b0 0b 30
        E 32 b0 0b 28
        E 32 b0 0b 20
        E 32 b0 0b 18
        E 32 b0 0b 10
        E 32 b0 0b 08
        E 16 80 23 00
        E 80 b0 0b 38
        E 0 90 23 38
        E 16 b0 0b 30
        E 32 b0 0b 28
        E 32 b0 0b 20
        E 32 b0 0b 18
        E 16 b0 0b 38
        E 0 80 23 00
        E 0 90 26 38
        E 48 b0 0b 30
        E 64 b0 0b 28
        E 48 b0 0b 20
        E 64 b0 0b 18
        E 64 b0 0b 10
        E 64 b0 0b 08
        E 48 b0 0b 38
        E 0 80 26 00
        E 0 90 23 38
        E 16 b0 0b 30
        E 32 b0 0b 28
        E 16 b0 0b 20
        E 32 b0 0b 18
        E 32 b0 0b 10
        E 32 b0 0b 08
        E 32 80 23 00
        E 80 b0 0b 38
        E 0 90 23 38
        E 16 b0 0b 30
        E 32 b0 0b 28
        E 32 b0 0b 20
        E 32 b0 0b 18
        E 16 b0 0b 10
        E 32 b0 0b 08
        E 32 80 23 00
        E 80 b0 0b 38
        E 0 90 23 38
        E 16 b0 0b 30
        E 32 b0 0b 28
        E 32 b0 0b 20
        E 32 b0 0b 18
        E 16 b0 0b 38
        E 0 80 23 00
        E 0 90 21 38
        E 48 b0 0b 30
        E 48 b0 0b 28
        E 64 b0 0b 20
        E 64 b0 0b 18
        E 48 b0 0b 38
        E 0 80 21 00
        E 0 90 23 38
        E 16 b0 0b 30
        E 32 b0 0b 28
        E 32 b0 0b 20
        E 32 b0 0b 18
        E 16 b0 0b 10
        E 32 b0 0b 08
        E 32 80 23 00
        E 80 b0 0b 38
        E 0 90 23 38
        E 16 b0 0b 30
        E 32 b0 0b 28
        E 32 b0 0b 20
        E 32 b0 0b 18
        E 16 b0 0b 38
        E 16 b0 0b 30
        E 32 b0 0b 28
        E 32 b0 0b 20
        E 16 b0 0b 18
        E 32 b0 0b 10
        E 32 b0 0b 08
        E 32 80 23 00
        E 80 b0 0b 38
        E 0 90 23 38
        E 16 b0 0b 30
        E 32 b0 0b 28
        E 32 b0 0b 20
        E 32 b0 0b 18
        E 16 b0 0b 38
        E 0 80 23 00
        E 0 90 26 38
        E 32 b0 0b 30
        E 64 b0 0b 28
        E 64 b0 0b 20
        E 64 b0 0b 18
        E 64 b0 0b 10
        E 64 b0 0b 08
        E 48 80 26 00
        E 16 b0 0c 60
        E 0 b0 0b 30
        E 0 90 2d 30
        E 48 b0 0b 28
        E 64 b0 0b 20
        E 16 b0 0b 30
        E 0 80 2d 00
        E 0 90 37 30
        E 16 b0 0b 28
        E 32 b0 0b 20
        E 32 b0 0b 18
        E 32 b0 0b 10
        E 16 b0 0b 30
        E 16 b0 0b 28
        E 16 b0 0b 20
        E 32 b0 0b 18
        E 32 b0 0b 10
        E 32 b0 0b 08
        E 16 b0 0b 30
        E 0 80 37 00
        E 0 90 2d 30
        E 16 b0 0b 28
        E 32 b0 0b 20
        E 32 b0 0b 18
        E 32 b0 0b 10
        E 16 b0 0b 30
        E 0 80 2d 00
        E 0 90 34 30
        E 16 b0 0b 28
        E 32 b0 0b 20
        E 32 b0 0b 18
        E 16 b0 0b 10
        E 32 b0 0b 08
        E 16 b0 0b 30
        E 0 80 34 00
        E 0 90 2d 30
        E 16 b0 0b 28
        E 32 b0 0b 20
        E 32 b0 0b 18
        E 32 b0 0b 10
        E 16 b0 0b 30
        E 0 80 2d 00
        E 0 90 34 30
        E 16 b0 0b 28
        E 32 b0 0b 20
        E 32 b0 0b 18
        E 32 b0 0b 10
        E 16 b0 0b 30
        E 16 b0 0b 28
        E 16 b0 0b 20
        E 32 b0 0b 18
        E 32 b0 0b 10
        E 32 b0 0b 08
        E 16 b0 0b 30
        E 0 80 34 00
        E 0 90 2d 30
        E 16 b0 0b 28
        E 32 b0 0b 20
        E 32 b0 0b 18
        E 32 b0 0b 10
        E 16 b0 0b 30
        E 0 80 2d 00
        E 0 90 37 30
        E 16 b0 0b 28
        E 32 b0 0b 20
        E 32 b0 0b 18
        E 32 b0 0b 10
        E 16 b0 0b 08
        E 16 b0 0b 30
        E 16 b0 0b 28
        E 32 b0 0b 20
        E 32 b0 0b 18
        E 32 b0 0b 10
        E 16 b0 0b 30
        E 0 80 37 00
        E 0 90 2d 30
        E 16 b0 0b 28
        E 32 b0 0b 20
        E 32 b0 0b 18
        E 32 b0 0b 10
        E 16 b0 0b 30
        E 0 80 2d 00
        E 0 90 34 30
        E 16 b0 0b 28
        E 32 b0 0b 20
        E 16 b0 0b 18
        E 32 b0 0b 10
        E 32 b0 0b 08
        E 16 b0 0b 30
        E 0 80 34 00
        E 0 90 2d 30
        E 16 b0 0b 28
        E 32 b0 0b 20
        E 32 b0 0b 18
        E 32 b0 0b 10
        E 16 b0 0b 30
        E 0 80 2d 00
        E 0 90 34 30
        E 16 b0 0b 28
        E 32 b0 0b 20
        E 32 b0 0b 18
        E 32 b0 0b 10
        E 16 b0 0b 08
        E 16 b0 0b 30
        E 16 b0 0b 28
        E 32 b0 0b 20
        E 32 b0 0b 18
        E 32 b0 0b 10
        E 16 b0 0c 10
        E 0 b0 0b 38
        E 0 80 34 00
        E 0 90 2f 38
        E 16 b0 0b 30
        E 32 b0 0b 28
        E 32 b0 0b 20
        E 32 b0 0b 18
        E 16 b0 0b 20
        E 144 b0 0b 38
        E 0 80 2f 00
        E 0 90 36 38
        E 144 b0 0b 30
        E 32 b0 0b 28
        E 32 b0 0b 20
        E 32 b0 0b 18
        E 16 b0 0b 10
        E 16 b0 0b 20
        E 128 b0 0b 38
        E 0 80 36 00
        E 0 90 37 38
        E 16 b0 0b 30
        E 32 b0 0b 28
        E 32 b0 0b 20
        E 32 b0 0b 18
        E 16 b0 0b 20
        E 16 b0 0b 18
        E 32 b0 0b 10
        E 16 b0 0b 08
        E 32 80 37 00
        E 48 b0 0b 38
        E 0 90 39 38
        E 16 b0 0b 30
        E 32 b0 0b 28
        E 32 b0 0b 20
        E 32 b0 0b 18
        E 16 b0 0b 20
        E 16 b0 0b 18
        E 32 b0 0b 10
        E 32 b0 0b 08
        E 32 80 39 00
        E 16 b0 0b 10
        E 0 90 39 10
        E 144 b0 0b 38
        E 272 b0 0b 20
        E 128 b0 0b 38
        E 128 b0 0b 20
        E 144 b0 0b 10
        E 128 80 39 00
        E 0 ff 2f 00
      >
    >
  >
  <TRACK {4BC92F43-2096-472A-BF60-316C64AE3BB8}
    NAME "NES - Pulse 2 [ch1]"
    PEAKCOL 10092441
    BEAT -1
    AUTOMODE 0
    PANLAWFLAGS 3
    VOLPAN 1 0 -1 -1 1
    MUTESOLO 0 0 0
    IPHASE 0
    PLAYOFFS 0 1
    ISBUS 0 0
    BUSCOMP 0 0 0 0 0
    SHOWINMIX 1 0.6667 0.5 1 0.5 0 0 0
    FIXEDLANES 9 0 0 0 0
    SEL 0
    REC 0 5088 1 0 0 0 0 0
    VU 2
    TRACKHEIGHT 0 0 0 0 0 0 0
    INQ 0 0 0 0.5 100 0 0 100
    NCHAN 2
    FX 1
    TRACKID {4BC92F43-2096-472A-BF60-316C64AE3BB8}
    PERF 0
    MIDIOUT -1
    MAINSEND 1 0
    <FXCHAIN
      WNDRECT 24 52 700 560
      SHOW 0
      LASTSEL 0
      DOCKED 0
      BYPASS 0 0 0
      <JS "ReapNES Studio/ReapNES_Console.jsfx" ""
        2 15 1 10 80 10 100 2 1 15 1 5 60 10 80 1 1 0 50 0 0 15 1 0 100 0 0 0.500000 0.500000 0.400000 0.300000 0.800000 1 1 0 0 0 0 - - - - - - - - - - - - - - - - - - - - - - - - - -
      >
      FLOATPOS 0 0 0 0
      FXID {FBD168FE-27BF-4C8E-B768-470C7045042B}
      WAK 0 0
    >
    <ITEM
      POSITION 0
      LENGTH 147.6516374
      LOOP 0
      ALLTAKES 0
      FADEIN 0 0 0 0 0 0 0
      FADEOUT 0 0 0 0 0 0 0
      MUTE 0 0
      SEL 0
      IGUID {A4267C32-C2DD-4787-88DD-30522EA82F87}
      <SOURCE MIDI
        HASDATA 1 480 QN
        CCINTERP 32
        E 0 c1 51
        E 0 b1 0c 20
        E 0 b1 0b 10
        E 0 91 34 10
        E 16 b1 0b 08
        E 32 81 34 00
        E 16 b1 0b 30
        E 0 91 34 30
        E 16 b1 0b 28
        E 16 b1 0b 20
        E 32 b1 0b 18
        E 32 b1 0b 10
        E 32 b1 0b 08
        E 32 81 34 00
        E 112 b1 0b 30
        E 0 91 34 30
        E 16 b1 0b 28
        E 32 b1 0b 20
        E 32 b1 0b 18
        E 16 b1 0b 10
        E 32 b1 0b 08
        E 16 b1 0b 30
        E 0 81 34 00
        E 0 91 2d 30
        E 48 b1 0b 28
        E 64 b1 0b 20
        E 64 b1 0b 18
        E 64 b1 0b 10
        E 16 b1 0b 30
        E 0 81 2d 00
        E 0 91 34 30
        E 16 b1 0b 28
        E 16 b1 0b 20
        E 32 b1 0b 18
        E 32 b1 0b 10
        E 32 b1 0b 08
        E 32 81 34 00
        E 112 b1 0b 30
        E 0 91 34 30
        E 16 b1 0b 28
        E 32 b1 0b 20
        E 32 b1 0b 18
        E 16 b1 0b 10
        E 32 b1 0b 08
        E 16 b1 0b 30
        E 16 b1 0b 28
        E 32 b1 0b 20
        E 32 b1 0b 18
        E 32 b1 0b 10
        E 32 b1 0b 08
        E 32 81 34 00
        E 80 b1 0b 30
        E 0 91 34 30
        E 16 b1 0b 28
        E 16 b1 0b 20
        E 32 b1 0b 18
        E 32 b1 0b 10
        E 32 b1 0b 08
        E 16 b1 0b 30
        E 0 81 34 00
        E 0 91 46 30
        E 48 b1 0b 28
        E 64 b1 0b 20
        E 64 b1 0b 18
        E 64 b1 0b 10
        E 48 b1 0b 08
        E 64 81 46 00
        E 48 b1 0b 30
        E 0 91 34 30
        E 16 b1 0b 28
        E 32 b1 0b 20
        E 32 b1 0b 18
        E 32 b1 0b 10
        E 32 b1 0b 08
        E 32 81 34 00
        E 96 b1 0b 30
        E 0 91 34 30
        E 16 b1 0b 28
        E 32 b1 0b 20
        E 32 b1 0b 18
        E 32 b1 0b 10
        E 32 b1 0b 08
        E 32 81 34 00
        E 96 b1 0b 30
        E 0 91 34 30
        E 16 b1 0b 28
        E 32 b1 0b 20
        E 32 b1 0b 18
        E 32 b1 0b 10
        E 16 b1 0b 30
        E 0 81 34 00
        E 0 91 2d 30
        E 48 b1 0b 28
        E 64 b1 0b 20
        E 64 b1 0b 18
        E 48 b1 0b 10
        E 48 b1 0b 30
        E 0 81 2d 00
        E 0 91 34 30
        E 16 b1 0b 28
        E 32 b1 0b 20
        E 32 b1 0b 18
        E 32 b1 0b 10
        E 32 b1 0b 08
        E 32 81 34 00
        E 96 b1 0b 30
        E 0 91 34 30
        E 16 b1 0b 28
        E 32 b1 0b 20
        E 32 b1 0b 18
        E 32 b1 0b 10
        E 16 b1 0b 30
        E 16 b1 0b 28
        E 32 b1 0b 20
        E 32 b1 0b 18
        E 32 b1 0b 10
        E 32 b1 0b 08
        E 32 81 34 00
        E 96 b1 0b 30
        E 0 91 34 30
        E 16 b1 0b 28
        E 32 b1 0b 20
        E 32 b1 0b 18
        E 32 b1 0b 10
        E 16 b1 0b 30
        E 0 81 34 00
        E 0 91 46 30
        E 48 b1 0b 28
        E 64 b1 0b 20
        E 48 b1 0b 18
        E 64 b1 0b 10
        E 64 b1 0b 08
        E 64 81 46 00
        E 48 b1 0b 30
        E 0 91 34 30
        E 16 b1 0b 28
        E 32 b1 0b 20
        E 32 b1 0b 18
        E 16 b1 0b 10
        E 32 b1 0b 08
        E 32 81 34 00
        E 112 b1 0b 30
        E 0 91 34 30
        E 16 b1 0b 28
        E 32 b1 0b 20
        E 32 b1 0b 18
        E 32 b1 0b 10
        E 32 b1 0b 08
        E 16 81 34 00
        E 112 b1 0b 30
        E 0 91 34 30
        E 16 b1 0b 28
        E 32 b1 0b 20
        E 32 b1 0b 18
        E 32 b1 0b 10
        E 16 b1 0b 30
        E 0 81 34 00
        E 0 91 2d 30
        E 48 b1 0b 28
        E 48 b1 0b 20
        E 64 b1 0b 18
        E 64 b1 0b 10
        E 48 b1 0b 30
        E 0 81 2d 00
        E 0 91 34 30
        E 16 b1 0b 28
        E 32 b1 0b 20
        E 32 b1 0b 18
        E 32 b1 0b 10
        E 32 b1 0b 08
        E 16 81 34 00
        E 112 b1 0b 30
        E 0 91 34 30
        E 16 b1 0b 28
        E 32 b1 0b 20
        E 32 b1 0b 18
        E 32 b1 0b 10
        E 16 b1 0b 30
        E 16 b1 0b 28
        E 32 b1 0b 20
        E 32 b1 0b 18
        E 16 b1 0b 10
        E 32 b1 0b 08
        E 32 81 34 00
        E 112 b1 0b 30
        E 0 91 34 30
        E 16 b1 0b 28
        E 32 b1 0b 20
        E 32 b1 0b 18
        E 32 b1 0b 10
        E 16 b1 0b 30
        E 0 81 34 00
        E 0 91 46 30
        E 48 b1 0b 28
        E 48 b1 0b 20
        E 64 b1 0b 18
        E 64 b1 0b 10
        E 64 b1 0b 08
        E 64 81 46 00
        E 64 b1 0b 30
        E 0 91 34 30
        E 16 b1 0b 28
        E 32 b1 0b 20
        E 32 b1 0b 18
        E 32 b1 0b 10
        E 32 b1 0b 08
        E 32 81 34 00
        E 80 b1 0b 30
        E 0 91 34 30
        E 16 b1 0b 28
        E 32 b1 0b 20
        E 16 b1 0b 18
        E 32 b1 0b 10
        E 32 b1 0b 08
        E 32 81 34 00
        E 112 b1 0b 30
        E 0 91 34 30
        E 16 b1 0b 28
        E 32 b1 0b 20
        E 32 b1 0b 18
        E 32 b1 0b 10
        E 16 b1 0b 08
        E 16 b1 0b 30
        E 0 81 34 00
        E 0 91 2d 30
        E 48 b1 0b 28
        E 64 b1 0b 20
        E 64 b1 0b 18
        E 64 b1 0b 10
        E 16 b1 0b 30
        E 0 81 2d 00
        E 0 91 34 30
        E 16 b1 0b 28
        E 32 b1 0b 20
        E 16 b1 0b 18
        E 32 b1 0b 10
        E 32 b1 0b 08
        E 32 81 34 00
        E 112 b1 0b 30
        E 0 91 34 30
        E 16 b1 0b 28
        E 32 b1 0b 20
        E 32 b1 0b 18
        E 32 b1 0b 10
        E 16 b1 0b 08
        E 16 b1 0b 30
        E 16 b1 0b 28
        E 32 b1 0b 20
        E 32 b1 0b 18
        E 32 b1 0b 10
        E 32 b1 0b 08
        E 32 81 34 00
        E 80 b1 0b 30
        E 0 91 34 30
        E 16 b1 0b 28
        E 32 b1 0b 20
        E 32 b1 0b 18
        E 16 b1 0b 10
        E 32 b1 0b 08
        E 16 b1 0b 30
        E 0 81 34 00
        E 0 91 46 30
        E 48 b1 0b 28
        E 64 b1 0b 20
        E 64 b1 0b 18
        E 64 b1 0b 10
        E 48 b1 0b 08
        E 64 81 46 00
        E 48 b1 0c 40
        E 0 b1 0b 38
        E 0 91 23 38
        E 16 b1 0b 30
        E 32 b1 0b 28
        E 32 b1 0b 20
        E 32 b1 0b 18
        E 16 b1 0b 20
        E 16 b1 0b 18
        E 32 b1 0b 10
        E 32 b1 0b 08
        E 16 81 23 00
        E 48 b1 0b 10
        E 0 91 23 10
        E 48 b1 0b 08
        E 64 81 23 00
        E 16 91 23 08
        E 80 81 23 00
        E 48 b1 0b 38
        E 0 91 23 38
        E 16 b1 0b 30
        E 16 b1 0b 28
        E 32 b1 0b 20
        E 32 b1 0b 18
        E 32 b1 0b 10
        E 16 b1 0b 38
        E 0 81 23 00
        E 0 91 21 38
        E 16 b1 0b 30
        E 32 b1 0b 28
        E 32 b1 0b 20
        E 32 b1 0b 18
        E 16 b1 0b 20
        E 16 b1 0b 18
        E 32 b1 0b 10
        E 32 b1 0b 08
        E 16 81 21 00
        E 48 b1 0b 10
        E 0 91 21 10
        E 48 b1 0b 08
        E 64 81 21 00
        E 16 b1 0b 58
        E 0 91 23 58
        E 16 b1 0b 50
        E 32 b1 0b 48
        E 32 b1 0b 40
        E 32 b1 0b 38
        E 32 b1 0b 30
        E 16 b1 0b 28
        E 32 b1 0b 20
        E 32 b1 0b 18
        E 32 b1 0b 10
        E 16 81 23 00
        E 0 91 2d 10
        E 144 b1 0b 18
        E 144 b1 0b 20
        E 160 b1 0b 28
        E 144 b1 0b 30
        E 160 b1 0b 38
        E 48 b1 0c 60
        E 0 b1 0b 30
        E 0 81 2d 00
        E 0 91 21 30
        E 128 b1 0b 38
        E 16 b1 0b 30
        E 0 81 21 00
        E 0 91 34 30
        E 16 b1 0b 28
        E 32 b1 0b 20
        E 32 b1 0b 18
        E 32 b1 0b 10
        E 16 b1 0b 30
        E 16 b1 0b 28
        E 32 b1 0b 20
        E 32 b1 0b 18
        E 32 b1 0b 10
        E 16 b1 0b 30
        E 0 81 34 00
        E 0 91 21 30
        E 16 b1 0b 28
        E 32 b1 0b 20
        E 16 b1 0b 18
        E 32 b1 0b 10
        E 32 b1 0b 08
        E 16 b1 0b 30
        E 0 81 21 00
        E 0 91 30 30
        E 16 b1 0b 28
        E 32 b1 0b 20
        E 32 b1 0b 18
        E 32 b1 0b 10
        E 16 b1 0b 30
        E 0 81 30 00
        E 0 91 21 30
        E 16 b1 0b 28
        E 32 b1 0b 20
        E 32 b1 0b 18
        E 32 b1 0b 10
        E 16 b1 0b 08
        E 16 b1 0b 30
        E 0 81 21 00
        E 0 91 30 30
        E 16 b1 0b 28
        E 32 b1 0b 20
        E 32 b1 0b 18
        E 32 b1 0b 10
        E 16 b1 0b 30
        E 16 b1 0b 28
        E 32 b1 0b 20
        E 32 b1 0b 18
        E 32 b1 0b 10
        E 16 b1 0b 30
        E 0 81 30 00
        E 0 91 21 30
        E 16 b1 0b 28
        E 32 b1 0b 20
        E 16 b1 0b 18
        E 32 b1 0b 10
        E 32 b1 0b 08
        E 16 b1 0b 30
        E 0 81 21 00
        E 0 91 34 30
        E 16 b1 0b 28
        E 32 b1 0b 20
        E 32 b1 0b 18
        E 32 b1 0b 10
        E 16 b1 0b 30
        E 16 b1 0b 28
        E 32 b1 0b 20
        E 32 b1 0b 18
        E 32 b1 0b 10
        E 16 b1 0b 30
        E 0 81 34 00
        E 0 91 21 30
        E 16 b1 0b 28
        E 16 b1 0b 20
        E 32 b1 0b 18
        E 32 b1 0b 10
        E 32 b1 0b 08
        E 16 b1 0b 30
        E 0 81 21 00
        E 0 91 30 30
        E 16 b1 0b 28
        E 32 b1 0b 20
        E 32 b1 0b 18
        E 32 b1 0b 10
        E 16 b1 0b 30
        E 0 81 30 00
        E 0 91 21 30
        E 16 b1 0b 28
        E 32 b1 0b 20
        E 32 b1 0b 18
        E 16 b1 0b 10
        E 32 b1 0b 08
        E 16 b1 0b 30
        E 0 81 21 00
        E 0 91 30 30
        E 16 b1 0b 28
        E 32 b1 0b 20
        E 32 b1 0b 18
        E 32 b1 0b 10
        E 16 b1 0b 30
        E 16 b1 0b 28
        E 32 b1 0b 20
        E 32 b1 0b 18
        E 32 b1 0b 10
        E 16 b1 0c 20
        E 0 b1 0b 38
        E 0 81 30 00
        E 0 91 34 38
        E 16 b1 0b 30
        E 16 b1 0b 28
        E 32 b1 0b 20
        E 32 b1 0b 18
        E 32 b1 0b 10
        E 32 b1 0b 08
        E 32 81 34 00
        E 80 b1 0b 38
        E 0 91 34 38
        E 16 b1 0b 30
        E 32 b1 0b 28
        E 32 b1 0b 20
        E 16 b1 0b 18
        E 32 b1 0b 10
        E 32 b1 0b 08
        E 32 81 34 00
        E 80 b1 0b 38
        E 0 91 34 38
        E 16 b1 0b 30
        E 32 b1 0b 28
        E 32 b1 0b 20
        E 32 b1 0b 18
        E 16 b1 0b 38
        E 0 81 34 00
        E 0 91 2d 38
        E 32 b1 0b 30
        E 64 b1 0b 28
        E 64 b1 0b 20
        E 64 b1 0b 18
        E 48 b1 0b 38
        E 0 81 2d 00
        E 0 91 34 38
        E 16 b1 0b 30
        E 32 b1 0b 28
        E 32 b1 0b 20
        E 16 b1 0b 18
        E 32 b1 0b 10
        E 32 b1 0b 08
        E 32 81 34 00
        E 80 b1 0b 38
        E 0 91 34 38
        E 16 b1 0b 30
        E 32 b1 0b 28
        E 32 b1 0b 20
        E 32 b1 0b 18
        E 16 b1 0b 38
        E 16 b1 0b 30
        E 32 b1 0b 28
        E 16 b1 0b 20
        E 32 b1 0b 18
        E 32 b1 0b 10
        E 32 b1 0b 08
        E 32 81 34 00
        E 80 b1 0b 38
        E 0 91 34 38
        E 16 b1 0b 30
        E 32 b1 0b 28
        E 32 b1 0b 20
        E 32 b1 0b 18
        E 16 b1 0b 10
        E 16 b1 0b 38
        E 0 81 34 00
        E 0 91 46 38
        E 48 b1 0b 30
        E 64 b1 0b 28
        E 64 b1 0b 20
        E 64 b1 0b 18
        E 64 b1 0b 10
        E 48 b1 0b 08
        E 48 b1 0b 38
        E 0 81 46 00
        E 0 91 34 38
        E 16 b1 0b 30
        E 32 b1 0b 28
        E 32 b1 0b 20
        E 32 b1 0b 18
        E 32 b1 0b 10
        E 32 b1 0b 08
        E 32 81 34 00
        E 64 b1 0b 38
        E 0 91 34 38
        E 16 b1 0b 30
        E 32 b1 0b 28
        E 32 b1 0b 20
        E 32 b1 0b 18
        E 32 b1 0b 10
        E 32 b1 0b 08
        E 32 81 34 00
        E 48 b1 0b 38
        E 0 91 34 38
        E 16 b1 0b 30
        E 32 b1 0b 28
        E 16 b1 0b 20
        E 32 b1 0b 18
        E 32 b1 0b 10
        E 16 b1 0b 38
        E 0 81 34 00
        E 0 91 2d 38
        E 48 b1 0b 30
        E 64 b1 0b 28
        E 64 b1 0b 20
        E 64 b1 0b 18
        E 32 b1 0b 38
        E 0 81 2d 00
        E 0 91 34 38
        E 16 b1 0b 30
        E 32 b1 0b 28
        E 32 b1 0b 20
        E 32 b1 0b 18
        E 32 b1 0b 10
        E 32 b1 0b 08
        E 32 81 34 00
        E 48 b1 0b 38
        E 0 91 34 38
        E 16 b1 0b 30
        E 32 b1 0b 28
        E 32 b1 0b 20
        E 16 b1 0b 18
        E 32 b1 0b 10
        E 16 b1 0b 38
        E 16 b1 0b 30
        E 32 b1 0b 28
        E 32 b1 0b 20
        E 32 b1 0b 18
        E 32 b1 0b 10
        E 32 b1 0b 08
        E 32 81 34 00
        E 48 b1 0b 38
        E 0 91 34 38
        E 16 b1 0b 30
        E 16 b1 0b 28
        E 32 b1 0b 20
        E 32 b1 0b 18
        E 32 b1 0b 10
        E 16 b1 0b 38
        E 0 81 34 00
        E 0 91 46 38
        E 48 b1 0b 30
        E 64 b1 0b 28
        E 64 b1 0b 20
        E 48 b1 0b 18
        E 64 b1 0b 10
        E 64 b1 0b 08
        E 48 b1 0c 60
        E 0 b1 0b 30
        E 0 81 46 00
        E 0 91 21 30
        E 16 b1 0b 28
        E 64 b1 0b 20
        E 48 b1 0b 30
        E 0 81 21 00
        E 0 91 34 30
        E 16 b1 0b 28
        E 16 b1 0b 20
        E 32 b1 0b 18
        E 32 b1 0b 10
        E 32 b1 0b 08
        E 16 b1 0b 30
        E 16 b1 0b 28
        E 32 b1 0b 20
        E 32 b1 0b 18
        E 32 b1 0b 10
        E 16 b1 0b 30
        E 0 81 34 00
        E 0 91 21 30
        E 16 b1 0b 28
        E 32 b1 0b 20
        E 32 b1 0b 18
        E 16 b1 0b 10
        E 32 b1 0b 08
        E 16 b1 0b 30
        E 0 81 21 00
        E 0 91 30 30
        E 16 b1 0b 28
        E 32 b1 0b 20
        E 32 b1 0b 18
        E 32 b1 0b 10
        E 16 b1 0b 30
        E 0 81 30 00
        E 0 91 21 30
        E 16 b1 0b 28
        E 32 b1 0b 20
        E 32 b1 0b 18
        E 32 b1 0b 10
        E 16 b1 0b 30
        E 0 81 21 00
        E 0 91 30 30
        E 16 b1 0b 28
        E 16 b1 0b 20
        E 32 b1 0b 18
        E 32 b1 0b 10
        E 32 b1 0b 08
        E 16 b1 0b 30
        E 16 b1 0b 28
        E 32 b1 0b 20
        E 32 b1 0b 18
        E 32 b1 0b 10
        E 16 b1 0b 30
        E 0 81 30 00
        E 0 91 21 30
        E 16 b1 0b 28
        E 32 b1 0b 20
        E 32 b1 0b 18
        E 32 b1 0b 10
        E 16 b1 0b 08
        E 16 b1 0b 30
        E 0 81 21 00
        E 0 91 34 30
        E 16 b1 0b 28
        E 32 b1 0b 20
        E 32 b1 0b 18
        E 32 b1 0b 10
        E 16 b1 0b 30
        E 16 b1 0b 28
        E 32 b1 0b 20
        E 32 b1 0b 18
        E 32 b1 0b 10
        E 16 b1 0b 30
        E 0 81 34 00
        E 0 91 21 30
        E 16 b1 0b 28
        E 32 b1 0b 20
        E 16 b1 0b 18
        E 32 b1 0b 10
        E 32 b1 0b 08
        E 16 b1 0b 30
        E 0 81 21 00
        E 0 91 30 30
        E 16 b1 0b 28
        E 32 b1 0b 20
        E 32 b1 0b 18
        E 32 b1 0b 10
        E 16 b1 0b 30
        E 0 81 30 00
        E 0 91 21 30
        E 16 b1 0b 28
        E 32 b1 0b 20
        E 32 b1 0b 18
        E 32 b1 0b 10
        E 16 b1 0b 08
        E 16 b1 0b 30
        E 0 81 21 00
        E 0 91 30 30
        E 16 b1 0b 28
        E 32 b1 0b 20
        E 32 b1 0b 18
        E 32 b1 0b 10
        E 16 b1 0b 30
        E 16 b1 0b 28
        E 32 b1 0b 20
        E 32 b1 0b 18
        E 32 b1 0b 10
        E 16 b1 0c 10
        E 0 b1 0b 38
        E 0 81 30 00
        E 0 91 23 38
        E 16 b1 0b 30
        E 32 b1 0b 28
        E 16 b1 0b 20
        E 32 b1 0b 18
        E 32 b1 0b 10
        E 16 b1 0b 20
        E 128 b1 0b 38
        E 0 81 23 00
        E 0 91 33 38
        E 160 b1 0b 30
        E 32 b1 0b 28
        E 32 b1 0b 20
        E 32 b1 0b 18
        E 16 b1 0b 20
        E 128 b1 0b 38
        E 0 81 33 00
        E 0 91 36 38
        E 16 b1 0b 30
        E 32 b1 0b 28
        E 16 b1 0b 20
        E 32 b1 0b 18
        E 32 b1 0b 10
        E 16 b1 0b 20
        E 16 b1 0b 18
        E 32 b1 0b 10
        E 32 b1 0b 08
        E 32 81 36 00
        E 16 b1 0b 38
        E 0 91 36 38
        E 16 b1 0b 30
        E 32 b1 0b 28
        E 32 b1 0b 20
        E 32 b1 0b 18
        E 16 b1 0b 20
        E 16 b1 0b 18
        E 16 b1 0b 10
        E 32 b1 0b 08
        E 32 81 36 00
        E 48 b1 0b 10
        E 0 91 36 10
        E 128 b1 0b 38
        E 272 b1 0b 20
        E 128 b1 0b 38
        E 144 b1 0b 20
        E 128 b1 0b 10
        E 144 b1 0c 20
        E 0 b1 0b 30
        E 0 81 36 00
        E 0 91 34 30
        E 16 b1 0b 28
        E 32 b1 0b 20
        E 32 b1 0b 18
        E 32 b1 0b 10
        E 32 b1 0b 08
        E 32 81 34 00
        E 80 b1 0b 30
        E 0 91 34 30
        E 16 b1 0b 28
        E 16 b1 0b 20
        E 32 b1 0b 18
        E 32 b1 0b 10
        E 32 b1 0b 08
        E 32 81 34 00
        E 112 b1 0b 30
        E 0 91 34 30
        E 16 b1 0b 28
        E 32 b1 0b 20
        E 32 b1 0b 18
        E 16 b1 0b 10
        E 32 b1 0b 08
        E 16 b1 0b 30
        E 0 81 34 00
        E 0 91 2d 30
        E 48 b1 0b 28
        E 64 b1 0b 20
        E 64 b1 0b 18
        E 64 b1 0b 10
        E 16 b1 0b 30
        E 0 81 2d 00
        E 0 91 34 30
        E 16 b1 0b 28
        E 32 b1 0b 20
        E 16 b1 0b 18
        E 32 b1 0b 10
        E 32 b1 0b 08
        E 32 81 34 00
        E 112 b1 0b 30
        E 0 91 34 30
        E 16 b1 0b 28
        E 32 b1 0b 20
        E 32 b1 0b 18
        E 32 b1 0b 10
        E 16 b1 0b 08
        E 16 b1 0b 30
        E 16 b1 0b 28
        E 32 b1 0b 20
        E 32 b1 0b 18
        E 32 b1 0b 10
        E 32 b1 0b 08
        E 32 81 34 00
        E 80 b1 0b 30
        E 0 91 34 30
        E 16 b1 0b 28
        E 32 b1 0b 20
        E 16 b1 0b 18
        E 32 b1 0b 10
        E 32 b1 0b 08
        E 16 b1 0b 30
        E 0 81 34 00
        E 0 91 46 30
        E 48 b1 0b 28
        E 64 b1 0b 20
        E 64 b1 0b 18
        E 64 b1 0b 10
        E 48 b1 0b 08
        E 64 81 46 00
        E 48 b1 0b 30
        E 0 91 34 30
        E 16 b1 0b 28
        E 32 b1 0b 20
        E 32 b1 0b 18
        E 32 b1 0b 10
        E 32 b1 0b 08
        E 32 81 34 00
        E 96 b1 0b 30
        E 0 91 34 30
        E 16 b1 0b 28
        E 32 b1 0b 20
        E 32 b1 0b 18
        E 32 b1 0b 10
        E 32 b1 0b 08
        E 32 81 34 00
        E 96 b1 0b 30
        E 0 91 34 30
        E 16 b1 0b 28
        E 32 b1 0b 20
        E 32 b1 0b 18
        E 32 b1 0b 10
        E 16 b1 0b 30
        E 0 81 34 00
        E 0 91 2d 30
        E 48 b1 0b 28
        E 64 b1 0b 20
        E 64 b1 0b 18
        E 48 b1 0b 10
        E 48 b1 0b 30
        E 0 81 2d 00
        E 0 91 34 30
        E 16 b1 0b 28
        E 32 b1 0b 20
        E 32 b1 0b 18
        E 32 b1 0b 10
        E 32 b1 0b 08
        E 32 81 34 00
        E 80 b1 0b 30
        E 0 91 34 30
        E 16 b1 0b 28
        E 16 b1 0b 20
        E 32 b1 0b 18
        E 32 b1 0b 10
        E 32 b1 0b 08
        E 16 b1 0b 30
        E 16 b1 0b 28
        E 32 b1 0b 20
        E 32 b1 0b 18
        E 32 b1 0b 10
        E 32 b1 0b 08
        E 32 81 34 00
        E 96 b1 0b 30
        E 0 91 34 30
        E 16 b1 0b 28
        E 32 b1 0b 20
        E 32 b1 0b 18
        E 32 b1 0b 10
        E 16 b1 0b 30
        E 0 81 34 00
        E 0 91 46 30
        E 48 b1 0b 28
        E 64 b1 0b 20
        E 48 b1 0b 18
        E 64 b1 0b 10
        E 64 b1 0b 08
        E 64 81 46 00
        E 48 b1 0b 30
        E 0 91 34 30
        E 16 b1 0b 28
        E 32 b1 0b 20
        E 32 b1 0b 18
        E 16 b1 0b 10
        E 32 b1 0b 08
        E 32 81 34 00
        E 112 b1 0b 30
        E 0 91 34 30
        E 16 b1 0b 28
        E 32 b1 0b 20
        E 32 b1 0b 18
        E 32 b1 0b 10
        E 32 b1 0b 08
        E 16 81 34 00
        E 112 b1 0b 30
        E 0 91 34 30
        E 16 b1 0b 28
        E 32 b1 0b 20
        E 32 b1 0b 18
        E 32 b1 0b 10
        E 16 b1 0b 30
        E 0 81 34 00
        E 0 91 2d 30
        E 48 b1 0b 28
        E 64 b1 0b 20
        E 48 b1 0b 18
        E 64 b1 0b 10
        E 48 b1 0b 30
        E 0 81 2d 00
        E 0 91 34 30
        E 16 b1 0b 28
        E 32 b1 0b 20
        E 32 b1 0b 18
        E 32 b1 0b 10
        E 32 b1 0b 08
        E 32 81 34 00
        E 96 b1 0b 30
        E 0 91 34 30
        E 16 b1 0b 28
        E 32 b1 0b 20
        E 32 b1 0b 18
        E 32 b1 0b 10
        E 16 b1 0b 30
        E 16 b1 0b 28
        E 32 b1 0b 20
        E 32 b1 0b 18
        E 32 b1 0b 10
        E 16 b1 0b 08
        E 32 81 34 00
        E 112 b1 0b 30
        E 0 91 34 30
        E 16 b1 0b 28
        E 32 b1 0b 20
        E 32 b1 0b 18
        E 32 b1 0b 10
        E 16 b1 0b 30
        E 0 81 34 00
        E 0 91 46 30
        E 48 b1 0b 28
        E 48 b1 0b 20
        E 64 b1 0b 18
        E 64 b1 0b 10
        E 64 b1 0b 08
        E 64 81 46 00
        E 64 b1 0b 30
        E 0 91 34 30
        E 16 b1 0b 28
        E 32 b1 0b 20
        E 32 b1 0b 18
        E 32 b1 0b 10
        E 32 b1 0b 08
        E 32 81 34 00
        E 80 b1 0b 30
        E 0 91 34 30
        E 16 b1 0b 28
        E 32 b1 0b 20
        E 16 b1 0b 18
        E 32 b1 0b 10
        E 32 b1 0b 08
        E 32 81 34 00
        E 112 b1 0b 30
        E 0 91 34 30
        E 16 b1 0b 28
        E 32 b1 0b 20
        E 32 b1 0b 18
        E 32 b1 0b 10
        E 16 b1 0b 30
        E 0 81 34 00
        E 0 91 2d 30
        E 32 b1 0b 28
        E 64 b1 0b 20
        E 64 b1 0b 18
        E 64 b1 0b 10
        E 48 b1 0b 30
        E 0 81 2d 00
        E 0 91 34 30
        E 16 b1 0b 28
        E 32 b1 0b 20
        E 32 b1 0b 18
        E 16 b1 0b 10
        E 32 b1 0b 08
        E 32 81 34 00
        E 112 b1 0b 30
        E 0 91 34 30
        E 16 b1 0b 28
        E 32 b1 0b 20
        E 32 b1 0b 18
        E 32 b1 0b 10
        E 16 b1 0b 30
        E 16 b1 0b 28
        E 16 b1 0b 20
        E 32 b1 0b 18
        E 32 b1 0b 10
        E 32 b1 0b 08
        E 32 81 34 00
        E 112 b1 0b 30
        E 0 91 34 30
        E 16 b1 0b 28
        E 32 b1 0b 20
        E 32 b1 0b 18
        E 16 b1 0b 10
        E 32 b1 0b 08
        E 16 b1 0b 30
        E 0 81 34 00
        E 0 91 46 30
        E 48 b1 0b 28
        E 64 b1 0b 20
        E 64 b1 0b 18
        E 64 b1 0b 10
        E 48 b1 0b 08
        E 64 81 46 00
        E 48 b1 0b 30
        E 0 91 34 30
        E 16 b1 0b 28
        E 32 b1 0b 20
        E 32 b1 0b 18
        E 32 b1 0b 10
        E 32 b1 0b 08
        E 32 81 34 00
        E 96 b1 0b 30
        E 0 91 34 30
        E 16 b1 0b 28
        E 32 b1 0b 20
        E 32 b1 0b 18
        E 32 b1 0b 10
        E 32 b1 0b 08
        E 32 81 34 00
        E 80 b1 0b 30
        E 0 91 34 30
        E 16 b1 0b 28
        E 32 b1 0b 20
        E 16 b1 0b 18
        E 32 b1 0b 10
        E 32 b1 0b 08
        E 16 b1 0b 30
        E 0 81 34 00
        E 0 91 2d 30
        E 48 b1 0b 28
        E 64 b1 0b 20
        E 64 b1 0b 18
        E 64 b1 0b 10
        E 32 b1 0b 30
        E 0 81 2d 00
        E 0 91 34 30
        E 16 b1 0b 28
        E 32 b1 0b 20
        E 32 b1 0b 18
        E 32 b1 0b 10
        E 32 b1 0b 08
        E 32 81 34 00
        E 80 b1 0b 30
        E 0 91 34 30
        E 16 b1 0b 28
        E 32 b1 0b 20
        E 16 b1 0b 18
        E 32 b1 0b 10
        E 32 b1 0b 08
        E 16 b1 0b 30
        E 16 b1 0b 28
        E 32 b1 0b 20
        E 32 b1 0b 18
        E 32 b1 0b 10
        E 32 b1 0b 08
        E 32 81 34 00
        E 96 b1 0b 30
        E 0 91 34 30
        E 16 b1 0b 28
        E 32 b1 0b 20
        E 32 b1 0b 18
        E 32 b1 0b 10
        E 16 b1 0b 30
        E 0 81 34 00
        E 0 91 46 30
        E 48 b1 0b 28
        E 64 b1 0b 20
        E 64 b1 0b 18
        E 48 b1 0b 10
        E 64 b1 0b 08
        E 64 81 46 00
        E 48 b1 0b 30
        E 0 91 34 30
        E 16 b1 0b 28
        E 32 b1 0b 20
        E 32 b1 0b 18
        E 32 b1 0b 10
        E 16 b1 0b 08
        E 32 81 34 00
        E 112 b1 0b 30
        E 0 91 34 30
        E 16 b1 0b 28
        E 32 b1 0b 20
        E 32 b1 0b 18
        E 32 b1 0b 10
        E 32 b1 0b 08
        E 32 81 34 00
        E 96 b1 0b 30
        E 0 91 34 30
        E 16 b1 0b 28
        E 32 b1 0b 20
        E 32 b1 0b 18
        E 32 b1 0b 10
        E 16 b1 0b 30
        E 0 81 34 00
        E 0 91 2d 30
        E 48 b1 0b 28
        E 64 b1 0b 20
        E 48 b1 0b 18
        E 64 b1 0b 10
        E 48 b1 0b 30
        E 0 81 2d 00
        E 0 91 34 30
        E 16 b1 0b 28
        E 32 b1 0b 20
        E 32 b1 0b 18
        E 32 b1 0b 10
        E 32 b1 0b 08
        E 32 81 34 00
        E 96 b1 0b 30
        E 0 91 34 30
        E 16 b1 0b 28
        E 32 b1 0b 20
        E 32 b1 0b 18
        E 32 b1 0b 10
        E 16 b1 0b 30
        E 16 b1 0b 28
        E 32 b1 0b 20
        E 32 b1 0b 18
        E 32 b1 0b 10
        E 32 b1 0b 08
        E 16 81 34 00
        E 112 b1 0b 30
        E 0 91 34 30
        E 16 b1 0b 28
        E 32 b1 0b 20
        E 32 b1 0b 18
        E 32 b1 0b 10
        E 16 b1 0b 30
        E 0 81 34 00
        E 0 91 46 30
        E 48 b1 0b 28
        E 48 b1 0b 20
        E 64 b1 0b 18
        E 64 b1 0b 10
        E 64 b1 0b 08
        E 64 81 46 00
        E 48 b1 0b 30
        E 0 91 34 30
        E 16 b1 0b 28
        E 16 b1 0b 20
        E 32 b1 0b 18
        E 32 b1 0b 10
        E 32 b1 0b 08
        E 32 81 34 00
        E 112 b1 0b 30
        E 0 91 34 30
        E 16 b1 0b 28
        E 32 b1 0b 20
        E 32 b1 0b 18
        E 32 b1 0b 10
        E 16 b1 0b 08
        E 32 81 34 00
        E 112 b1 0b 30
        E 0 91 34 30
        E 16 b1 0b 28
        E 32 b1 0b 20
        E 32 b1 0b 18
        E 32 b1 0b 10
        E 16 b1 0b 30
        E 0 81 34 00
        E 0 91 2d 30
        E 48 b1 0b 28
        E 48 b1 0b 20
        E 64 b1 0b 18
        E 64 b1 0b 10
        E 48 b1 0b 30
        E 0 81 2d 00
        E 0 91 34 30
        E 16 b1 0b 28
        E 32 b1 0b 20
        E 32 b1 0b 18
        E 32 b1 0b 10
        E 16 b1 0b 08
        E 32 81 34 00
        E 112 b1 0b 30
        E 0 91 34 30
        E 16 b1 0b 28
        E 32 b1 0b 20
        E 32 b1 0b 18
        E 32 b1 0b 10
        E 16 b1 0b 30
        E 16 b1 0b 28
        E 32 b1 0b 20
        E 16 b1 0b 18
        E 32 b1 0b 10
        E 32 b1 0b 08
        E 32 81 34 00
        E 112 b1 0b 30
        E 0 91 34 30
        E 16 b1 0b 28
        E 32 b1 0b 20
        E 32 b1 0b 18
        E 32 b1 0b 10
        E 16 b1 0b 08
        E 16 b1 0b 30
        E 0 81 34 00
        E 0 91 46 30
        E 48 b1 0b 28
        E 64 b1 0b 20
        E 64 b1 0b 18
        E 64 b1 0b 10
        E 64 b1 0b 08
        E 48 81 46 00
        E 48 b1 0b 30
        E 0 91 34 30
        E 16 b1 0b 28
        E 32 b1 0b 20
        E 32 b1 0b 18
        E 32 b1 0b 10
        E 32 b1 0b 08
        E 32 81 34 00
        E 80 b1 0b 30
        E 0 91 34 30
        E 16 b1 0b 28
        E 16 b1 0b 20
        E 32 b1 0b 18
        E 32 b1 0b 10
        E 32 b1 0b 08
        E 32 81 34 00
        E 112 b1 0b 30
        E 0 91 34 30
        E 16 b1 0b 28
        E 32 b1 0b 20
        E 32 b1 0b 18
        E 16 b1 0b 10
        E 32 b1 0b 08
        E 16 b1 0b 30
        E 0 81 34 00
        E 0 91 2d 30
        E 48 b1 0b 28
        E 64 b1 0b 20
        E 64 b1 0b 18
        E 64 b1 0b 10
        E 16 b1 0b 30
        E 0 81 2d 00
        E 0 91 34 30
        E 16 b1 0b 28
        E 16 b1 0b 20
        E 32 b1 0b 18
        E 32 b1 0b 10
        E 32 b1 0b 08
        E 32 81 34 00
        E 112 b1 0b 30
        E 0 91 34 30
        E 16 b1 0b 28
        E 32 b1 0b 20
        E 32 b1 0b 18
        E 16 b1 0b 10
        E 32 b1 0b 08
        E 16 b1 0b 30
        E 16 b1 0b 28
        E 32 b1 0b 20
        E 32 b1 0b 18
        E 32 b1 0b 10
        E 32 b1 0b 08
        E 32 81 34 00
        E 80 b1 0b 30
        E 0 91 34 30
        E 16 b1 0b 28
        E 16 b1 0b 20
        E 32 b1 0b 18
        E 32 b1 0b 10
        E 32 b1 0b 08
        E 16 b1 0b 30
        E 0 81 34 00
        E 0 91 46 30
        E 48 b1 0b 28
        E 64 b1 0b 20
        E 64 b1 0b 18
        E 48 b1 0b 10
        E 64 b1 0b 08
        E 64 81 46 00
        E 48 b1 0b 30
        E 0 91 23 30
        E 16 b1 0b 28
        E 32 b1 0b 20
        E 32 b1 0b 18
        E 32 b1 0b 10
        E 32 b1 0b 08
        E 32 81 23 00
        E 96 b1 0b 30
        E 0 91 23 30
        E 16 b1 0b 28
        E 32 b1 0b 20
        E 32 b1 0b 18
        E 32 b1 0b 10
        E 32 b1 0b 08
        E 32 81 23 00
        E 96 b1 0b 30
        E 0 91 23 30
        E 16 b1 0b 28
        E 32 b1 0b 20
        E 32 b1 0b 18
        E 32 b1 0b 10
        E 16 b1 0b 30
        E 0 81 23 00
        E 0 91 21 30
        E 48 b1 0b 28
        E 64 b1 0b 20
        E 64 b1 0b 18
        E 48 b1 0b 10
        E 48 b1 0b 30
        E 0 81 21 00
        E 0 91 23 30
        E 16 b1 0b 28
        E 32 b1 0b 20
        E 32 b1 0b 18
        E 32 b1 0b 10
        E 32 b1 0b 08
        E 32 81 23 00
        E 96 b1 0b 30
        E 0 91 23 30
        E 16 b1 0b 28
        E 32 b1 0b 20
        E 32 b1 0b 18
        E 32 b1 0b 10
        E 16 b1 0b 30
        E 16 b1 0b 28
        E 32 b1 0b 20
        E 32 b1 0b 18
        E 32 b1 0b 10
        E 32 b1 0b 08
        E 32 81 23 00
        E 96 b1 0b 30
        E 0 91 23 30
        E 16 b1 0b 28
        E 32 b1 0b 20
        E 32 b1 0b 18
        E 32 b1 0b 10
        E 16 b1 0b 30
        E 0 81 23 00
        E 0 91 26 30
        E 48 b1 0b 28
        E 64 b1 0b 20
        E 48 b1 0b 18
        E 64 b1 0b 10
        E 64 b1 0b 08
        E 64 81 26 00
        E 48 b1 0b 30
        E 0 91 23 30
        E 16 b1 0b 28
        E 32 b1 0b 20
        E 32 b1 0b 18
        E 16 b1 0b 10
        E 32 b1 0b 08
        E 32 81 23 00
        E 112 b1 0b 30
        E 0 91 23 30
        E 16 b1 0b 28
        E 32 b1 0b 20
        E 32 b1 0b 18
        E 32 b1 0b 10
        E 32 b1 0b 08
        E 16 81 23 00
        E 112 b1 0b 30
        E 0 91 23 30
        E 16 b1 0b 28
        E 32 b1 0b 20
        E 32 b1 0b 18
        E 32 b1 0b 10
        E 16 b1 0b 30
        E 0 81 23 00
        E 0 91 21 30
        E 48 b1 0b 28
        E 48 b1 0b 20
        E 64 b1 0b 18
        E 64 b1 0b 10
        E 48 b1 0b 30
        E 0 81 21 00
        E 0 91 23 30
        E 16 b1 0b 28
        E 32 b1 0b 20
        E 32 b1 0b 18
        E 32 b1 0b 10
        E 32 b1 0b 08
        E 16 81 23 00
        E 112 b1 0b 30
        E 0 91 23 30
        E 16 b1 0b 28
        E 32 b1 0b 20
        E 32 b1 0b 18
        E 32 b1 0b 10
        E 16 b1 0b 30
        E 16 b1 0b 28
        E 32 b1 0b 20
        E 32 b1 0b 18
        E 16 b1 0b 10
        E 32 b1 0b 08
        E 32 81 23 00
        E 112 b1 0b 30
        E 0 91 23 30
        E 16 b1 0b 28
        E 32 b1 0b 20
        E 32 b1 0b 18
        E 32 b1 0b 10
        E 16 b1 0b 30
        E 0 81 23 00
        E 0 91 26 30
        E 32 b1 0b 28
        E 64 b1 0b 20
        E 64 b1 0b 18
        E 64 b1 0b 10
        E 64 b1 0b 08
        E 64 81 26 00
        E 64 b1 0b 30
        E 0 91 34 30
        E 16 b1 0b 28
        E 32 b1 0b 20
        E 32 b1 0b 18
        E 32 b1 0b 10
        E 32 b1 0b 08
        E 32 81 34 00
        E 80 b1 0b 30
        E 0 91 34 30
        E 16 b1 0b 28
        E 32 b1 0b 20
        E 16 b1 0b 18
        E 32 b1 0b 10
        E 32 b1 0b 08
        E 32 81 34 00
        E 112 b1 0b 30
        E 0 91 34 30
        E 16 b1 0b 28
        E 32 b1 0b 20
        E 32 b1 0b 18
        E 32 b1 0b 10
        E 16 b1 0b 08
        E 16 b1 0b 30
        E 0 81 34 00
        E 0 91 2d 30
        E 48 b1 0b 28
        E 64 b1 0b 20
        E 64 b1 0b 18
        E 64 b1 0b 10
        E 16 b1 0b 30
        E 0 81 2d 00
        E 0 91 34 30
        E 16 b1 0b 28
        E 32 b1 0b 20
        E 16 b1 0b 18
        E 32 b1 0b 10
        E 32 b1 0b 08
        E 32 81 34 00
        E 112 b1 0b 30
        E 0 91 34 30
        E 16 b1 0b 28
        E 32 b1 0b 20
        E 32 b1 0b 18
        E 32 b1 0b 10
        E 16 b1 0b 08
        E 16 b1 0b 30
        E 16 b1 0b 28
        E 32 b1 0b 20
        E 32 b1 0b 18
        E 32 b1 0b 10
        E 32 b1 0b 08
        E 32 81 34 00
        E 80 b1 0b 30
        E 0 91 34 30
        E 16 b1 0b 28
        E 32 b1 0b 20
        E 16 b1 0b 18
        E 32 b1 0b 10
        E 32 b1 0b 08
        E 16 b1 0b 30
        E 0 81 34 00
        E 0 91 46 30
        E 48 b1 0b 28
        E 64 b1 0b 20
        E 64 b1 0b 18
        E 64 b1 0b 10
        E 48 b1 0b 08
        E 64 81 46 00
        E 48 b1 0b 30
        E 0 91 34 30
        E 16 b1 0b 28
        E 32 b1 0b 20
        E 32 b1 0b 18
        E 32 b1 0b 10
        E 32 b1 0b 08
        E 32 81 34 00
        E 96 b1 0b 30
        E 0 91 34 30
        E 16 b1 0b 28
        E 32 b1 0b 20
        E 32 b1 0b 18
        E 32 b1 0b 10
        E 32 b1 0b 08
        E 32 81 34 00
        E 80 b1 0b 30
        E 0 91 34 30
        E 16 b1 0b 28
        E 16 b1 0b 20
        E 32 b1 0b 18
        E 32 b1 0b 10
        E 32 b1 0b 08
        E 16 b1 0b 30
        E 0 81 34 00
        E 0 91 2d 30
        E 48 b1 0b 28
        E 64 b1 0b 20
        E 64 b1 0b 18
        E 48 b1 0b 10
        E 48 b1 0b 30
        E 0 81 2d 00
        E 0 91 34 30
        E 16 b1 0b 28
        E 32 b1 0b 20
        E 32 b1 0b 18
        E 32 b1 0b 10
        E 32 b1 0b 08
        E 32 81 34 00
        E 80 b1 0b 30
        E 0 91 34 30
        E 16 b1 0b 28
        E 16 b1 0b 20
        E 32 b1 0b 18
        E 32 b1 0b 10
        E 32 b1 0b 08
        E 16 b1 0b 30
        E 16 b1 0b 28
        E 32 b1 0b 20
        E 32 b1 0b 18
        E 32 b1 0b 10
        E 32 b1 0b 08
        E 32 81 34 00
        E 96 b1 0b 30
        E 0 91 34 30
        E 16 b1 0b 28
        E 32 b1 0b 20
        E 32 b1 0b 18
        E 32 b1 0b 10
        E 16 b1 0b 30
        E 0 81 34 00
        E 0 91 46 30
        E 48 b1 0b 28
        E 64 b1 0b 20
        E 64 b1 0b 18
        E 48 b1 0b 10
        E 64 b1 0b 08
        E 64 81 46 00
        E 48 b1 0b 28
        E 0 91 46 28
        E 224 b1 0b 20
        E 192 b1 0b 18
        E 1728 b1 0b 28
        E 0 81 46 00
        E 0 91 23 28
        E 224 b1 0b 20
        E 176 b1 0b 18
        E 1760 b1 0c 40
        E 0 b1 0b 48
        E 0 81 23 00
        E 0 91 2d 48
        E 16 b1 0b 40
        E 32 b1 0b 38
        E 32 b1 0b 30
        E 32 b1 0b 28
        E 16 b1 0b 48
        E 0 81 2d 00
        E 0 91 34 48
        E 16 b1 0b 40
        E 32 b1 0b 38
        E 32 b1 0b 30
        E 32 b1 0b 28
        E 16 b1 0b 20
        E 16 b1 0c 10
        E 0 b1 0b 38
        E 0 81 34 00
        E 0 91 33 38
        E 16 b1 0b 30
        E 32 b1 0b 28
        E 32 b1 0b 20
        E 32 b1 0b 18
        E 16 b1 0b 38
        E 0 81 33 00
        E 0 91 34 38
        E 16 b1 0b 30
        E 32 b1 0b 28
        E 32 b1 0b 20
        E 32 b1 0b 18
        E 16 b1 0b 20
        E 144 b1 0b 38
        E 16 b1 0b 30
        E 32 b1 0b 28
        E 32 b1 0b 20
        E 32 b1 0b 18
        E 16 b1 0b 20
        E 16 b1 0b 18
        E 32 b1 0b 10
        E 32 b1 0b 08
        E 32 81 34 00
        E 32 b1 0b 38
        E 0 91 34 38
        E 16 b1 0b 30
        E 32 b1 0b 28
        E 32 b1 0b 20
        E 32 b1 0b 18
        E 16 b1 0b 20
        E 16 b1 0b 18
        E 32 b1 0b 10
        E 32 b1 0b 08
        E 32 81 34 00
        E 16 b1 0b 10
        E 0 91 34 10
        E 144 b1 0b 38
        E 256 b1 0b 20
        E 144 b1 0b 38
        E 128 b1 0b 20
        E 144 b1 0c 40
        E 0 b1 0b 48
        E 16 b1 0b 40
        E 32 b1 0b 38
        E 32 b1 0b 30
        E 32 b1 0b 28
        E 16 b1 0b 48
        E 0 81 34 00
        E 0 91 2d 48
        E 16 b1 0b 40
        E 32 b1 0b 38
        E 32 b1 0b 30
        E 32 b1 0b 28
        E 16 b1 0b 48
        E 0 81 2d 00
        E 0 91 34 48
        E 16 b1 0b 40
        E 16 b1 0b 38
        E 32 b1 0b 30
        E 32 b1 0b 28
        E 32 b1 0b 20
        E 16 b1 0c 10
        E 0 b1 0b 38
        E 0 81 34 00
        E 0 91 33 38
        E 16 b1 0b 30
        E 32 b1 0b 28
        E 32 b1 0b 20
        E 32 b1 0b 18
        E 16 b1 0b 38
        E 0 81 33 00
        E 0 91 34 38
        E 16 b1 0b 30
        E 32 b1 0b 28
        E 32 b1 0b 20
        E 16 b1 0b 18
        E 32 b1 0b 10
        E 16 b1 0b 20
        E 128 b1 0b 38
        E 16 b1 0b 30
        E 32 b1 0b 28
        E 32 b1 0b 20
        E 32 b1 0b 18
        E 16 b1 0b 20
        E 16 b1 0b 18
        E 16 b1 0b 10
        E 32 b1 0b 08
        E 32 81 34 00
        E 48 b1 0b 38
        E 0 91 34 38
        E 16 b1 0b 30
        E 32 b1 0b 28
        E 32 b1 0b 20
        E 32 b1 0b 18
        E 16 b1 0b 20
        E 16 b1 0b 18
        E 32 b1 0b 10
        E 32 b1 0b 08
        E 16 81 34 00
        E 48 b1 0b 10
        E 0 91 34 10
        E 128 b1 0b 38
        E 272 b1 0b 20
        E 128 b1 0b 38
        E 144 b1 0b 20
        E 128 b1 0c 40
        E 0 b1 0b 48
        E 16 b1 0b 40
        E 32 b1 0b 38
        E 32 b1 0b 30
        E 32 b1 0b 28
        E 16 b1 0b 48
        E 0 81 34 00
        E 0 91 2d 48
        E 16 b1 0b 40
        E 32 b1 0b 38
        E 16 b1 0b 30
        E 32 b1 0b 28
        E 32 b1 0b 20
        E 16 b1 0b 48
        E 0 81 2d 00
        E 0 91 34 48
        E 16 b1 0b 40
        E 32 b1 0b 38
        E 32 b1 0b 30
        E 32 b1 0b 28
        E 16 b1 0c 10
        E 0 b1 0b 38
        E 0 81 34 00
        E 0 91 33 38
        E 16 b1 0b 30
        E 32 b1 0b 28
        E 32 b1 0b 20
        E 32 b1 0b 18
        E 16 b1 0b 10
        E 16 b1 0b 38
        E 0 81 33 00
        E 0 91 34 38
        E 16 b1 0b 30
        E 32 b1 0b 28
        E 32 b1 0b 20
        E 32 b1 0b 18
        E 16 b1 0b 20
        E 128 b1 0b 38
        E 16 b1 0b 30
        E 32 b1 0b 28
        E 16 b1 0b 20
        E 32 b1 0b 18
        E 32 b1 0b 10
        E 16 b1 0b 20
        E 16 b1 0b 18
        E 32 b1 0b 10
        E 32 b1 0b 08
        E 32 81 34 00
        E 16 b1 0b 38
        E 0 91 34 38
        E 16 b1 0b 30
        E 32 b1 0b 28
        E 32 b1 0b 20
        E 32 b1 0b 18
        E 16 b1 0b 10
        E 16 b1 0b 20
        E 16 b1 0b 18
        E 32 b1 0b 10
        E 32 b1 0b 08
        E 32 81 34 00
        E 16 b1 0b 10
        E 0 91 34 10
        E 128 b1 0b 38
        E 272 b1 0b 20
        E 128 b1 0b 38
        E 144 b1 0b 20
        E 128 b1 0c 40
        E 0 b1 0b 48
        E 16 b1 0b 40
        E 32 b1 0b 38
        E 32 b1 0b 30
        E 16 b1 0b 28
        E 32 b1 0b 20
        E 16 b1 0b 48
        E 0 81 34 00
        E 0 91 2d 48
        E 16 b1 0b 40
        E 32 b1 0b 38
        E 32 b1 0b 30
        E 32 b1 0b 28
        E 16 b1 0b 48
        E 0 81 2d 00
        E 0 91 34 48
        E 16 b1 0b 40
        E 32 b1 0b 38
        E 32 b1 0b 30
        E 32 b1 0b 28
        E 16 b1 0c 10
        E 0 b1 0b 38
        E 0 81 34 00
        E 0 91 33 38
        E 16 b1 0b 30
        E 16 b1 0b 28
        E 32 b1 0b 20
        E 32 b1 0b 18
        E 32 b1 0b 10
        E 16 b1 0b 38
        E 0 81 33 00
        E 0 91 34 38
        E 16 b1 0b 30
        E 32 b1 0b 28
        E 32 b1 0b 20
        E 32 b1 0b 18
        E 16 b1 0b 20
        E 144 b1 0b 38
        E 16 b1 0b 30
        E 32 b1 0b 28
        E 32 b1 0b 20
        E 32 b1 0b 18
        E 16 b1 0b 20
        E 16 b1 0b 18
        E 32 b1 0b 10
        E 32 b1 0b 08
        E 32 81 34 00
        E 16 b1 0b 38
        E 0 91 34 38
        E 16 b1 0b 30
        E 16 b1 0b 28
        E 32 b1 0b 20
        E 32 b1 0b 18
        E 32 b1 0b 10
        E 16 b1 0b 20
        E 16 b1 0b 18
        E 32 b1 0b 10
        E 32 b1 0b 08
        E 32 81 34 00
        E 16 b1 0b 10
        E 0 91 34 10
        E 144 b1 0b 38
        E 256 b1 0b 20
        E 144 b1 0b 38
        E 128 b1 0b 20
        E 144 b1 0c 40
        E 0 b1 0b 48
        E 16 b1 0b 40
        E 32 b1 0b 38
        E 32 b1 0b 30
        E 32 b1 0b 28
        E 16 b1 0b 30
        E 0 81 34 00
        E 0 91 2d 30
        E 16 b1 0b 28
        E 32 b1 0b 20
        E 32 b1 0b 18
        E 32 b1 0b 10
        E 16 b1 0b 30
        E 0 81 2d 00
        E 0 91 30 30
        E 16 b1 0b 28
        E 32 b1 0b 20
        E 16 b1 0b 18
        E 16 81 30 00
        E 0 91 2d 18
        E 64 b1 0b 30
        E 0 81 2d 00
        E 0 91 34 30
        E 16 b1 0b 28
        E 32 b1 0b 20
        E 16 b1 0b 18
        E 0 81 34 00
        E 0 91 30 18
        E 16 b1 0b 10
        E 32 b1 0b 08
        E 16 b1 0b 30
        E 0 81 30 00
        E 0 91 37 30
        E 16 b1 0b 28
        E 32 b1 0b 20
        E 16 b1 0b 18
        E 0 81 37 00
        E 0 91 34 18
        E 16 b1 0b 10
        E 32 b1 0b 08
        E 16 81 34 00
        E 16 b1 0b 30
        E 0 91 34 30
        E 16 b1 0b 28
        E 32 b1 0b 20
        E 16 b1 0b 18
        E 0 81 34 00
        E 0 91 37 18
        E 16 b1 0b 10
        E 32 b1 0b 08
        E 16 b1 0b 30
        E 0 81 37 00
        E 0 91 30 30
        E 16 b1 0b 28
        E 32 b1 0b 20
        E 16 b1 0b 18
        E 0 81 30 00
        E 0 91 34 18
        E 16 b1 0b 10
        E 32 b1 0b 08
        E 16 b1 0b 30
        E 16 b1 0b 28
        E 32 b1 0b 20
        E 16 b1 0b 18
        E 16 81 34 00
        E 0 91 30 18
        E 16 b1 0b 10
        E 32 b1 0b 08
        E 16 b1 0b 30
        E 0 81 30 00
        E 0 91 37 30
        E 16 b1 0b 28
        E 32 b1 0b 20
        E 16 b1 0b 18
        E 0 81 37 00
        E 0 91 34 18
        E 16 b1 0b 10
        E 32 b1 0b 08
        E 16 b1 0b 30
        E 0 81 34 00
        E 0 91 39 30
        E 16 b1 0b 28
        E 32 b1 0b 20
        E 16 b1 0b 18
        E 0 81 39 00
        E 0 91 37 18
        E 16 b1 0b 10
        E 32 b1 0b 08
        E 16 b1 0b 30
        E 0 81 37 00
        E 0 91 3c 30
        E 16 b1 0b 28
        E 16 b1 0b 20
        E 32 b1 0b 18
        E 16 81 3c 00
        E 0 91 39 18
        E 16 b1 0b 10
        E 32 b1 0b 08
        E 16 b1 0b 30
        E 0 81 39 00
        E 0 91 40 30
        E 16 b1 0b 28
        E 32 b1 0b 20
        E 16 b1 0b 18
        E 0 81 40 00
        E 0 91 3c 18
        E 16 b1 0b 10
        E 32 b1 0b 08
        E 16 b1 0b 30
        E 0 81 3c 00
        E 0 91 43 30
        E 16 b1 0b 28
        E 32 b1 0b 20
        E 16 b1 0b 18
        E 0 81 43 00
        E 0 91 40 18
        E 16 b1 0b 10
        E 16 b1 0b 08
        E 32 81 40 00
        E 16 b1 0b 30
        E 0 91 45 30
        E 16 b1 0b 28
        E 32 b1 0b 20
        E 16 b1 0b 18
        E 0 81 45 00
        E 0 91 43 18
        E 16 b1 0b 10
        E 32 b1 0b 08
        E 16 b1 0b 30
        E 0 81 43 00
        E 0 91 48 30
        E 16 b1 0b 28
        E 32 b1 0b 20
        E 16 b1 0b 18
        E 0 81 48 00
        E 0 91 45 18
        E 16 b1 0b 10
        E 32 b1 0b 08
        E 16 b1 0b 30
        E 0 81 45 00
        E 0 91 4c 30
        E 16 b1 0b 28
        E 16 b1 0b 20
        E 32 b1 0b 18
        E 16 81 4c 00
        E 0 91 48 18
        E 16 b1 0b 10
        E 32 b1 0b 08
        E 16 b1 0b 30
        E 0 81 48 00
        E 0 91 4f 30
        E 16 b1 0b 28
        E 32 b1 0b 20
        E 16 b1 0b 18
        E 0 81 4f 00
        E 0 91 4c 18
        E 16 b1 0b 10
        E 32 b1 0b 08
        E 16 b1 0b 30
        E 0 81 4c 00
        E 0 91 2f 30
        E 16 b1 0b 28
        E 32 b1 0b 20
        E 16 b1 0b 18
        E 0 81 2f 00
        E 0 91 4f 18
        E 16 b1 0b 10
        E 16 b1 0b 08
        E 32 81 4f 00
        E 16 b1 0b 30
        E 0 91 33 30
        E 16 b1 0b 28
        E 32 b1 0b 20
        E 16 b1 0b 18
        E 0 81 33 00
        E 0 91 2f 18
        E 16 b1 0b 10
        E 32 b1 0b 08
        E 16 b1 0b 30
        E 0 81 2f 00
        E 0 91 36 30
        E 16 b1 0b 28
        E 32 b1 0b 20
        E 16 b1 0b 18
        E 0 81 36 00
        E 0 91 33 18
        E 16 b1 0b 10
        E 32 b1 0b 08
        E 16 b1 0b 30
        E 0 81 33 00
        E 0 91 39 30
        E 16 b1 0b 28
        E 16 b1 0b 20
        E 32 b1 0b 18
        E 16 81 39 00
        E 0 91 36 18
        E 16 b1 0b 10
        E 32 b1 0b 08
        E 16 b1 0b 30
        E 16 b1 0b 28
        E 32 b1 0b 20
        E 16 b1 0b 18
        E 0 81 36 00
        E 0 91 39 18
        E 16 b1 0b 10
        E 32 b1 0b 08
        E 16 b1 0b 30
        E 0 81 39 00
        E 0 91 33 30
        E 16 b1 0b 28
        E 32 b1 0b 20
        E 16 b1 0b 18
        E 0 81 33 00
        E 0 91 36 18
        E 16 b1 0b 10
        E 16 b1 0b 08
        E 32 81 36 00
        E 16 b1 0b 30
        E 0 91 36 30
        E 16 b1 0b 28
        E 32 b1 0b 20
        E 16 b1 0b 18
        E 0 81 36 00
        E 0 91 33 18
        E 16 b1 0b 10
        E 32 b1 0b 08
        E 16 b1 0b 30
        E 0 81 33 00
        E 0 91 39 30
        E 16 b1 0b 28
        E 32 b1 0b 20
        E 16 b1 0b 18
        E 0 81 39 00
        E 0 91 36 18
        E 16 b1 0b 10
        E 32 b1 0b 08
        E 16 b1 0b 30
        E 0 81 36 00
        E 0 91 3b 30
        E 16 b1 0b 28
        E 32 b1 0b 20
        E 16 b1 0b 18
        E 16 81 3b 00
        E 0 91 29 18
        E 16 b1 0b 10
        E 32 b1 0b 08
        E 16 b1 0b 30
        E 0 81 29 00
        E 0 91 3f 30
        E 16 b1 0b 28
        E 32 b1 0b 20
        E 16 b1 0b 18
        E 0 81 3f 00
        E 0 91 3b 18
        E 16 b1 0b 10
        E 32 b1 0b 08
        E 16 b1 0b 30
        E 0 81 3b 00
        E 0 91 42 30
        E 16 b1 0b 28
        E 32 b1 0b 20
        E 16 b1 0b 18
        E 0 81 42 00
        E 0 91 3f 18
        E 16 b1 0b 10
        E 32 b1 0b 08
        E 16 81 3f 00
        E 16 b1 0b 30
        E 0 91 45 30
        E 16 b1 0b 28
        E 32 b1 0b 20
        E 16 b1 0b 18
        E 0 81 45 00
        E 0 91 42 18
        E 16 b1 0b 10
        E 32 b1 0b 08
        E 16 b1 0b 30
        E 0 81 42 00
        E 0 91 47 30
        E 16 b1 0b 28
        E 32 b1 0b 20
        E 16 b1 0b 18
        E 0 81 47 00
        E 0 91 45 18
        E 16 b1 0b 10
        E 32 b1 0b 08
        E 16 b1 0b 30
        E 0 81 45 00
        E 0 91 4b 30
        E 16 b1 0b 28
        E 32 b1 0b 20
        E 16 b1 0b 18
        E 16 81 4b 00
        E 0 91 47 18
        E 16 b1 0b 10
        E 32 b1 0b 08
        E 16 b1 0b 30
        E 0 81 47 00
        E 0 91 4e 30
        E 16 b1 0b 28
        E 32 b1 0b 20
        E 16 b1 0b 18
        E 0 81 4e 00
        E 0 91 4b 18
        E 16 b1 0b 10
        E 32 b1 0b 08
        E 16 b1 0b 30
        E 0 81 4b 00
        E 0 91 51 30
        E 16 b1 0b 28
        E 32 b1 0b 20
        E 16 b1 0b 18
        E 0 81 51 00
        E 0 91 4e 18
        E 80 b1 0c 20
        E 0 b1 0b 30
        E 0 81 4e 00
        E 0 91 34 30
        E 16 b1 0b 28
        E 16 b1 0b 30
        E 16 b1 0b 28
        E 16 b1 0b 30
        E 16 b1 0b 28
        E 32 b1 0b 20
        E 32 b1 0b 18
        E 32 b1 0b 10
        E 32 b1 0b 08
        E 32 81 34 00
        E 16 b1 0b 30
        E 0 91 34 30
        E 16 b1 0b 28
        E 32 b1 0b 20
        E 16 b1 0b 18
        E 32 b1 0b 10
        E 32 b1 0b 08
        E 32 81 34 00
        E 112 b1 0b 30
        E 0 91 34 30
        E 16 b1 0b 28
        E 32 b1 0b 20
        E 32 b1 0b 18
        E 32 b1 0b 10
        E 16 b1 0b 08
        E 16 b1 0b 30
        E 0 81 34 00
        E 0 91 2d 30
        E 48 b1 0b 28
        E 64 b1 0b 20
        E 64 b1 0b 18
        E 64 b1 0b 10
        E 16 b1 0b 30
        E 0 81 2d 00
        E 0 91 34 30
        E 16 b1 0b 28
        E 32 b1 0b 20
        E 32 b1 0b 18
        E 16 b1 0b 10
        E 32 b1 0b 08
        E 32 81 34 00
        E 112 b1 0b 30
        E 0 91 34 30
        E 16 b1 0b 28
        E 32 b1 0b 20
        E 32 b1 0b 18
        E 32 b1 0b 10
        E 16 b1 0b 30
        E 16 b1 0b 28
        E 16 b1 0b 20
        E 32 b1 0b 18
        E 32 b1 0b 10
        E 32 b1 0b 08
        E 32 81 34 00
        E 112 b1 0b 30
        E 0 91 34 30
        E 16 b1 0b 28
        E 32 b1 0b 20
        E 32 b1 0b 18
        E 16 b1 0b 10
        E 32 b1 0b 08
        E 16 b1 0b 30
        E 0 81 34 00
        E 0 91 46 30
        E 48 b1 0b 28
        E 64 b1 0b 20
        E 64 b1 0b 18
        E 64 b1 0b 10
        E 48 b1 0b 08
        E 64 81 46 00
        E 48 b1 0b 30
        E 0 91 34 30
        E 16 b1 0b 28
        E 32 b1 0b 20
        E 32 b1 0b 18
        E 32 b1 0b 10
        E 32 b1 0b 08
        E 32 81 34 00
        E 96 b1 0b 30
        E 0 91 34 30
        E 16 b1 0b 28
        E 32 b1 0b 20
        E 32 b1 0b 18
        E 32 b1 0b 10
        E 32 b1 0b 08
        E 32 81 34 00
        E 80 b1 0b 30
        E 0 91 34 30
        E 16 b1 0b 28
        E 16 b1 0b 20
        E 32 b1 0b 18
        E 32 b1 0b 10
        E 32 b1 0b 08
        E 16 b1 0b 30
        E 0 81 34 00
        E 0 91 2d 30
        E 48 b1 0b 28
        E 64 b1 0b 20
        E 64 b1 0b 18
        E 64 b1 0b 10
        E 32 b1 0b 30
        E 0 81 2d 00
        E 0 91 34 30
        E 16 b1 0b 28
        E 32 b1 0b 20
        E 32 b1 0b 18
        E 32 b1 0b 10
        E 32 b1 0b 08
        E 32 81 34 00
        E 80 b1 0b 30
        E 0 91 34 30
        E 16 b1 0b 28
        E 32 b1 0b 20
        E 16 b1 0b 18
        E 32 b1 0b 10
        E 32 b1 0b 08
        E 16 b1 0b 30
        E 16 b1 0b 28
        E 32 b1 0b 20
        E 32 b1 0b 18
        E 32 b1 0b 10
        E 32 b1 0b 08
        E 32 81 34 00
        E 96 b1 0b 30
        E 0 91 34 30
        E 16 b1 0b 28
        E 32 b1 0b 20
        E 32 b1 0b 18
        E 32 b1 0b 10
        E 16 b1 0b 30
        E 0 81 34 00
        E 0 91 46 30
        E 48 b1 0b 28
        E 64 b1 0b 20
        E 64 b1 0b 18
        E 48 b1 0b 10
        E 64 b1 0b 08
        E 64 81 46 00
        E 48 b1 0b 30
        E 0 91 34 30
        E 16 b1 0b 28
        E 32 b1 0b 20
        E 32 b1 0b 18
        E 32 b1 0b 10
        E 16 b1 0b 08
        E 32 81 34 00
        E 112 b1 0b 30
        E 0 91 34 30
        E 16 b1 0b 28
        E 32 b1 0b 20
        E 32 b1 0b 18
        E 32 b1 0b 10
        E 32 b1 0b 08
        E 32 81 34 00
        E 96 b1 0b 30
        E 0 91 34 30
        E 16 b1 0b 28
        E 32 b1 0b 20
        E 32 b1 0b 18
        E 32 b1 0b 10
        E 16 b1 0b 30
        E 0 81 34 00
        E 0 91 2d 30
        E 48 b1 0b 28
        E 64 b1 0b 20
        E 48 b1 0b 18
        E 64 b1 0b 10
        E 48 b1 0b 30
        E 0 81 2d 00
        E 0 91 34 30
        E 16 b1 0b 28
        E 32 b1 0b 20
        E 32 b1 0b 18
        E 32 b1 0b 10
        E 32 b1 0b 08
        E 32 81 34 00
        E 96 b1 0b 30
        E 0 91 34 30
        E 16 b1 0b 28
        E 32 b1 0b 20
        E 32 b1 0b 18
        E 32 b1 0b 10
        E 16 b1 0b 30
        E 16 b1 0b 28
        E 32 b1 0b 20
        E 32 b1 0b 18
        E 32 b1 0b 10
        E 32 b1 0b 08
        E 16 81 34 00
        E 112 b1 0b 30
        E 0 91 34 30
        E 16 b1 0b 28
        E 32 b1 0b 20
        E 32 b1 0b 18
        E 32 b1 0b 10
        E 16 b1 0b 30
        E 0 81 34 00
        E 0 91 46 30
        E 48 b1 0b 28
        E 48 b1 0b 20
        E 64 b1 0b 18
        E 64 b1 0b 10
        E 64 b1 0b 08
        E 64 81 46 00
        E 48 b1 0b 30
        E 0 91 34 30
        E 16 b1 0b 28
        E 16 b1 0b 20
        E 32 b1 0b 18
        E 32 b1 0b 10
        E 32 b1 0b 08
        E 32 81 34 00
        E 112 b1 0b 30
        E 0 91 34 30
        E 16 b1 0b 28
        E 32 b1 0b 20
        E 32 b1 0b 18
        E 16 b1 0b 10
        E 32 b1 0b 08
        E 32 81 34 00
        E 112 b1 0b 30
        E 0 91 34 30
        E 16 b1 0b 28
        E 32 b1 0b 20
        E 32 b1 0b 18
        E 32 b1 0b 10
        E 16 b1 0b 30
        E 0 81 34 00
        E 0 91 2d 30
        E 48 b1 0b 28
        E 48 b1 0b 20
        E 64 b1 0b 18
        E 64 b1 0b 10
        E 48 b1 0b 30
        E 0 81 2d 00
        E 0 91 34 30
        E 16 b1 0b 28
        E 32 b1 0b 20
        E 32 b1 0b 18
        E 32 b1 0b 10
        E 16 b1 0b 08
        E 32 81 34 00
        E 112 b1 0b 30
        E 0 91 34 30
        E 16 b1 0b 28
        E 32 b1 0b 20
        E 32 b1 0b 18
        E 32 b1 0b 10
        E 16 b1 0b 30
        E 16 b1 0b 28
        E 32 b1 0b 20
        E 16 b1 0b 18
        E 32 b1 0b 10
        E 32 b1 0b 08
        E 32 81 34 00
        E 112 b1 0b 30
        E 0 91 34 30
        E 16 b1 0b 28
        E 32 b1 0b 20
        E 32 b1 0b 18
        E 32 b1 0b 10
        E 16 b1 0b 08
        E 16 b1 0b 30
        E 0 81 34 00
        E 0 91 46 30
        E 48 b1 0b 28
        E 64 b1 0b 20
        E 64 b1 0b 18
        E 64 b1 0b 10
        E 64 b1 0b 08
        E 48 81 46 00
        E 48 b1 0c 40
        E 0 b1 0b 38
        E 0 91 23 38
        E 16 b1 0b 30
        E 32 b1 0b 28
        E 32 b1 0b 20
        E 32 b1 0b 18
        E 16 b1 0b 20
        E 16 b1 0b 18
        E 32 b1 0b 10
        E 32 b1 0b 08
        E 32 81 23 00
        E 32 b1 0b 10
        E 0 91 23 10
        E 48 b1 0b 08
        E 64 81 23 00
        E 16 91 23 08
        E 80 81 23 00
        E 48 b1 0b 38
        E 0 91 23 38
        E 16 b1 0b 30
        E 32 b1 0b 28
        E 32 b1 0b 20
        E 16 b1 0b 18
        E 32 b1 0b 10
        E 16 b1 0b 38
        E 0 81 23 00
        E 0 91 21 38
        E 16 b1 0b 30
        E 32 b1 0b 28
        E 32 b1 0b 20
        E 32 b1 0b 18
        E 16 b1 0b 20
        E 16 b1 0b 18
        E 32 b1 0b 10
        E 32 b1 0b 08
        E 32 81 21 00
        E 16 b1 0b 10
        E 0 91 21 10
        E 32 b1 0b 08
        E 64 81 21 00
        E 48 b1 0b 58
        E 0 91 23 58
        E 16 b1 0b 50
        E 32 b1 0b 48
        E 32 b1 0b 40
        E 32 b1 0b 38
        E 32 b1 0b 30
        E 32 b1 0b 28
        E 32 b1 0b 20
        E 16 b1 0b 18
        E 32 b1 0b 10
        E 16 81 23 00
        E 0 91 2d 10
        E 144 b1 0b 18
        E 144 b1 0b 20
        E 160 b1 0b 28
        E 160 b1 0b 30
        E 144 b1 0b 38
        E 48 b1 0c 60
        E 0 b1 0b 30
        E 0 81 2d 00
        E 0 91 21 30
        E 128 81 21 00
        E 0 91 34 30
        E 16 b1 0b 28
        E 16 b1 0b 20
        E 32 b1 0b 18
        E 32 b1 0b 10
        E 32 b1 0b 08
        E 16 b1 0b 30
        E 16 b1 0b 28
        E 32 b1 0b 20
        E 32 b1 0b 18
        E 32 b1 0b 10
        E 16 b1 0b 30
        E 0 81 34 00
        E 0 91 21 30
        E 16 b1 0b 28
        E 32 b1 0b 20
        E 32 b1 0b 18
        E 32 b1 0b 10
        E 16 b1 0b 08
        E 16 b1 0b 30
        E 0 81 21 00
        E 0 91 30 30
        E 16 b1 0b 28
        E 32 b1 0b 20
        E 32 b1 0b 18
        E 32 b1 0b 10
        E 16 b1 0b 30
        E 0 81 30 00
        E 0 91 21 30
        E 16 b1 0b 28
        E 32 b1 0b 20
        E 32 b1 0b 18
        E 32 b1 0b 10
        E 16 b1 0b 30
        E 0 81 21 00
        E 0 91 30 30
        E 16 b1 0b 28
        E 32 b1 0b 20
        E 16 b1 0b 18
        E 32 b1 0b 10
        E 32 b1 0b 08
        E 16 b1 0b 30
        E 16 b1 0b 28
        E 32 b1 0b 20
        E 32 b1 0b 18
        E 32 b1 0b 10
        E 16 b1 0b 30
        E 0 81 30 00
        E 0 91 21 30
        E 16 b1 0b 28
        E 32 b1 0b 20
        E 32 b1 0b 18
        E 32 b1 0b 10
        E 16 b1 0b 08
        E 16 b1 0b 30
        E 0 81 21 00
        E 0 91 34 30
        E 16 b1 0b 28
        E 32 b1 0b 20
        E 32 b1 0b 18
        E 32 b1 0b 10
        E 16 b1 0b 30
        E 16 b1 0b 28
        E 32 b1 0b 20
        E 32 b1 0b 18
        E 32 b1 0b 10
        E 16 b1 0b 30
        E 0 81 34 00
        E 0 91 21 30
        E 16 b1 0b 28
        E 32 b1 0b 20
        E 16 b1 0b 18
        E 32 b1 0b 10
        E 32 b1 0b 08
        E 16 b1 0b 30
        E 0 81 21 00
        E 0 91 30 30
        E 16 b1 0b 28
        E 32 b1 0b 20
        E 32 b1 0b 18
        E 32 b1 0b 10
        E 16 b1 0b 30
        E 0 81 30 00
        E 0 91 21 30
        E 16 b1 0b 28
        E 32 b1 0b 20
        E 32 b1 0b 18
        E 32 b1 0b 10
        E 16 b1 0b 08
        E 16 b1 0b 30
        E 0 81 21 00
        E 0 91 30 30
        E 16 b1 0b 28
        E 32 b1 0b 20
        E 32 b1 0b 18
        E 32 b1 0b 10
        E 16 b1 0b 30
        E 16 b1 0b 28
        E 32 b1 0b 20
        E 32 b1 0b 18
        E 32 b1 0b 10
        E 16 b1 0c 20
        E 0 b1 0b 38
        E 0 81 30 00
        E 0 91 34 38
        E 16 b1 0b 30
        E 32 b1 0b 28
        E 16 b1 0b 20
        E 32 b1 0b 18
        E 32 b1 0b 10
        E 32 b1 0b 08
        E 32 81 34 00
        E 80 b1 0b 38
        E 0 91 34 38
        E 16 b1 0b 30
        E 32 b1 0b 28
        E 32 b1 0b 20
        E 32 b1 0b 18
        E 32 b1 0b 10
        E 16 b1 0b 08
        E 32 81 34 00
        E 80 b1 0b 38
        E 0 91 34 38
        E 16 b1 0b 30
        E 32 b1 0b 28
        E 32 b1 0b 20
        E 32 b1 0b 18
        E 16 b1 0b 38
        E 0 81 34 00
        E 0 91 2d 38
        E 48 b1 0b 30
        E 48 b1 0b 28
        E 64 b1 0b 20
        E 64 b1 0b 18
        E 48 b1 0b 38
        E 0 81 2d 00
        E 0 91 34 38
        E 16 b1 0b 30
        E 32 b1 0b 28
        E 32 b1 0b 20
        E 32 b1 0b 18
        E 32 b1 0b 10
        E 16 b1 0b 08
        E 32 81 34 00
        E 80 b1 0b 38
        E 0 91 34 38
        E 16 b1 0b 30
        E 32 b1 0b 28
        E 32 b1 0b 20
        E 32 b1 0b 18
        E 16 b1 0b 38
        E 16 b1 0b 30
        E 32 b1 0b 28
        E 32 b1 0b 20
        E 16 b1 0b 18
        E 32 b1 0b 10
        E 32 b1 0b 08
        E 32 81 34 00
        E 80 b1 0b 38
        E 0 91 34 38
        E 16 b1 0b 30
        E 32 b1 0b 28
        E 32 b1 0b 20
        E 32 b1 0b 18
        E 16 b1 0b 38
        E 0 81 34 00
        E 0 91 46 38
        E 32 b1 0b 30
        E 64 b1 0b 28
        E 64 b1 0b 20
        E 64 b1 0b 18
        E 64 b1 0b 10
        E 64 b1 0b 08
        E 48 81 46 00
        E 16 b1 0b 38
        E 0 91 34 38
        E 16 b1 0b 30
        E 32 b1 0b 28
        E 32 b1 0b 20
        E 32 b1 0b 18
        E 32 b1 0b 10
        E 32 b1 0b 08
        E 32 81 34 00
        E 48 b1 0b 38
        E 0 91 34 38
        E 16 b1 0b 30
        E 32 b1 0b 28
        E 16 b1 0b 20
        E 32 b1 0b 18
        E 32 b1 0b 10
        E 32 b1 0b 08
        E 32 81 34 00
        E 80 b1 0b 38
        E 0 91 34 38
        E 16 b1 0b 30
        E 32 b1 0b 28
        E 32 b1 0b 20
        E 32 b1 0b 18
        E 16 b1 0b 10
        E 16 b1 0b 38
        E 0 81 34 00
        E 0 91 2d 38
        E 48 b1 0b 30
        E 64 b1 0b 28
        E 64 b1 0b 20
        E 64 b1 0b 18
        E 16 b1 0b 38
        E 0 81 2d 00
        E 0 91 34 38
        E 16 b1 0b 30
        E 32 b1 0b 28
        E 16 b1 0b 20
        E 32 b1 0b 18
        E 32 b1 0b 10
        E 32 b1 0b 08
        E 32 81 34 00
        E 80 b1 0b 38
        E 0 91 34 38
        E 16 b1 0b 30
        E 32 b1 0b 28
        E 32 b1 0b 20
        E 32 b1 0b 18
        E 16 b1 0b 10
        E 16 b1 0b 38
        E 16 b1 0b 30
        E 32 b1 0b 28
        E 32 b1 0b 20
        E 32 b1 0b 18
        E 32 b1 0b 10
        E 32 b1 0b 08
        E 32 81 34 00
        E 48 b1 0b 38
        E 0 91 34 38
        E 16 b1 0b 30
        E 32 b1 0b 28
        E 16 b1 0b 20
        E 32 b1 0b 18
        E 32 b1 0b 10
        E 16 b1 0b 38
        E 0 81 34 00
        E 0 91 46 38
        E 48 b1 0b 30
        E 64 b1 0b 28
        E 64 b1 0b 20
        E 64 b1 0b 18
        E 48 b1 0b 10
        E 64 b1 0b 08
        E 48 b1 0c 60
        E 0 b1 0b 30
        E 0 81 46 00
        E 0 91 21 30
        E 16 b1 0b 28
        E 64 b1 0b 20
        E 48 b1 0b 30
        E 0 81 21 00
        E 0 91 34 30
        E 16 b1 0b 28
        E 32 b1 0b 20
        E 32 b1 0b 18
        E 16 b1 0b 10
        E 32 b1 0b 08
        E 16 b1 0b 30
        E 16 b1 0b 28
        E 32 b1 0b 20
        E 32 b1 0b 18
        E 32 b1 0b 10
        E 16 b1 0b 30
        E 0 81 34 00
        E 0 91 21 30
        E 16 b1 0b 28
        E 32 b1 0b 20
        E 32 b1 0b 18
        E 32 b1 0b 10
        E 16 b1 0b 30
        E 0 81 21 00
        E 0 91 30 30
        E 16 b1 0b 28
        E 16 b1 0b 20
        E 32 b1 0b 18
        E 32 b1 0b 10
        E 32 b1 0b 08
        E 16 b1 0b 30
        E 0 81 30 00
        E 0 91 21 30
        E 16 b1 0b 28
        E 32 b1 0b 20
        E 32 b1 0b 18
        E 32 b1 0b 10
        E 16 b1 0b 30
        E 0 81 21 00
        E 0 91 30 30
        E 16 b1 0b 28
        E 32 b1 0b 20
        E 32 b1 0b 18
        E 16 b1 0b 10
        E 32 b1 0b 08
        E 16 b1 0b 30
        E 16 b1 0b 28
        E 32 b1 0b 20
        E 32 b1 0b 18
        E 32 b1 0b 10
        E 16 b1 0b 30
        E 0 81 30 00
        E 0 91 21 30
        E 16 b1 0b 28
        E 32 b1 0b 20
        E 32 b1 0b 18
        E 32 b1 0b 10
        E 16 b1 0b 30
        E 0 81 21 00
        E 0 91 34 30
        E 16 b1 0b 28
        E 16 b1 0b 20
        E 32 b1 0b 18
        E 32 b1 0b 10
        E 32 b1 0b 08
        E 16 b1 0b 30
        E 16 b1 0b 28
        E 32 b1 0b 20
        E 32 b1 0b 18
        E 32 b1 0b 10
        E 16 b1 0b 30
        E 0 81 34 00
        E 0 91 21 30
        E 16 b1 0b 28
        E 32 b1 0b 20
        E 32 b1 0b 18
        E 16 b1 0b 10
        E 32 b1 0b 08
        E 16 b1 0b 30
        E 0 81 21 00
        E 0 91 30 30
        E 16 b1 0b 28
        E 32 b1 0b 20
        E 32 b1 0b 18
        E 32 b1 0b 10
        E 16 b1 0b 30
        E 0 81 30 00
        E 0 91 21 30
        E 16 b1 0b 28
        E 32 b1 0b 20
        E 32 b1 0b 18
        E 32 b1 0b 10
        E 16 b1 0b 30
        E 0 81 21 00
        E 0 91 30 30
        E 16 b1 0b 28
        E 16 b1 0b 20
        E 32 b1 0b 18
        E 32 b1 0b 10
        E 32 b1 0b 08
        E 16 b1 0b 30
        E 16 b1 0b 28
        E 32 b1 0b 20
        E 32 b1 0b 18
        E 32 b1 0b 10
        E 16 b1 0c 10
        E 0 b1 0b 38
        E 0 81 30 00
        E 0 91 23 38
        E 16 b1 0b 30
        E 32 b1 0b 28
        E 32 b1 0b 20
        E 32 b1 0b 18
        E 16 b1 0b 10
        E 16 b1 0b 20
        E 128 b1 0b 38
        E 0 81 23 00
        E 0 91 33 38
        E 144 b1 0b 30
        E 32 b1 0b 28
        E 16 b1 0b 20
        E 32 b1 0b 18
        E 32 b1 0b 10
        E 16 b1 0b 20
        E 128 b1 0b 38
        E 0 81 33 00
        E 0 91 36 38
        E 16 b1 0b 30
        E 32 b1 0b 28
        E 32 b1 0b 20
        E 32 b1 0b 18
        E 16 b1 0b 10
        E 16 b1 0b 20
        E 16 b1 0b 18
        E 32 b1 0b 10
        E 32 b1 0b 08
        E 32 81 36 00
        E 16 b1 0b 38
        E 0 91 36 38
        E 16 b1 0b 30
        E 32 b1 0b 28
        E 32 b1 0b 20
        E 32 b1 0b 18
        E 16 b1 0b 20
        E 16 b1 0b 18
        E 32 b1 0b 10
        E 16 b1 0b 08
        E 32 81 36 00
        E 48 b1 0b 10
        E 0 91 36 10
        E 128 b1 0b 38
        E 272 b1 0b 20
        E 128 b1 0b 38
        E 144 b1 0b 20
        E 128 b1 0b 10
        E 128 b1 0c 20
        E 0 b1 0b 30
        E 0 81 36 00
        E 0 91 34 30
        E 16 b1 0b 28
        E 16 b1 0b 20
        E 32 b1 0b 18
        E 32 b1 0b 10
        E 32 b1 0b 08
        E 32 81 34 00
        E 112 b1 0b 30
        E 0 91 34 30
        E 16 b1 0b 28
        E 32 b1 0b 20
        E 32 b1 0b 18
        E 16 b1 0b 10
        E 32 b1 0b 08
        E 32 81 34 00
        E 112 b1 0b 30
        E 0 91 34 30
        E 16 b1 0b 28
        E 32 b1 0b 20
        E 32 b1 0b 18
        E 32 b1 0b 10
        E 16 b1 0b 30
        E 0 81 34 00
        E 0 91 2d 30
        E 32 b1 0b 28
        E 64 b1 0b 20
        E 64 b1 0b 18
        E 64 b1 0b 10
        E 48 b1 0b 30
        E 0 81 2d 00
        E 0 91 34 30
        E 16 b1 0b 28
        E 32 b1 0b 20
        E 32 b1 0b 18
        E 16 b1 0b 10
        E 32 b1 0b 08
        E 32 81 34 00
        E 112 b1 0b 30
        E 0 91 34 30
        E 16 b1 0b 28
        E 32 b1 0b 20
        E 32 b1 0b 18
        E 32 b1 0b 10
        E 16 b1 0b 30
        E 16 b1 0b 28
        E 16 b1 0b 20
        E 32 b1 0b 18
        E 32 b1 0b 10
        E 32 b1 0b 08
        E 32 81 34 00
        E 112 b1 0b 30
        E 0 91 34 30
        E 16 b1 0b 28
        E 32 b1 0b 20
        E 32 b1 0b 18
        E 16 b1 0b 10
        E 32 b1 0b 08
        E 16 b1 0b 30
        E 0 81 34 00
        E 0 91 46 30
        E 48 b1 0b 28
        E 64 b1 0b 20
        E 64 b1 0b 18
        E 64 b1 0b 10
        E 64 b1 0b 08
        E 48 81 46 00
        E 48 b1 0b 30
        E 0 91 34 30
        E 16 b1 0b 28
        E 32 b1 0b 20
        E 32 b1 0b 18
        E 32 b1 0b 10
        E 32 b1 0b 08
        E 32 81 34 00
        E 96 b1 0b 30
        E 0 91 34 30
        E 16 b1 0b 28
        E 32 b1 0b 20
        E 32 b1 0b 18
        E 32 b1 0b 10
        E 32 b1 0b 08
        E 32 81 34 00
        E 80 b1 0b 30
        E 0 91 34 30
        E 16 b1 0b 28
        E 32 b1 0b 20
        E 16 b1 0b 18
        E 32 b1 0b 10
        E 32 b1 0b 08
        E 16 b1 0b 30
        E 0 81 34 00
        E 0 91 2d 30
        E 48 b1 0b 28
        E 64 b1 0b 20
        E 64 b1 0b 18
        E 64 b1 0b 10
        E 32 b1 0b 30
        E 0 81 2d 00
        E 0 91 34 30
        E 16 b1 0b 28
        E 32 b1 0b 20
        E 32 b1 0b 18
        E 32 b1 0b 10
        E 32 b1 0b 08
        E 32 81 34 00
        E 80 b1 0b 30
        E 0 91 34 30
        E 16 b1 0b 28
        E 32 b1 0b 20
        E 16 b1 0b 18
        E 32 b1 0b 10
        E 32 b1 0b 08
        E 16 b1 0b 30
        E 16 b1 0b 28
        E 32 b1 0b 20
        E 32 b1 0b 18
        E 32 b1 0b 10
        E 32 b1 0b 08
        E 32 81 34 00
        E 96 b1 0b 30
        E 0 91 34 30
        E 16 b1 0b 28
        E 32 b1 0b 20
        E 32 b1 0b 18
        E 32 b1 0b 10
        E 16 b1 0b 30
        E 0 81 34 00
        E 0 91 46 30
        E 48 b1 0b 28
        E 64 b1 0b 20
        E 64 b1 0b 18
        E 48 b1 0b 10
        E 64 b1 0b 08
        E 64 81 46 00
        E 48 b1 0b 30
        E 0 91 34 30
        E 16 b1 0b 28
        E 32 b1 0b 20
        E 32 b1 0b 18
        E 32 b1 0b 10
        E 32 b1 0b 08
        E 16 81 34 00
        E 112 b1 0b 30
        E 0 91 34 30
        E 16 b1 0b 28
        E 32 b1 0b 20
        E 32 b1 0b 18
        E 32 b1 0b 10
        E 32 b1 0b 08
        E 32 81 34 00
        E 96 b1 0b 30
        E 0 91 34 30
        E 16 b1 0b 28
        E 32 b1 0b 20
        E 32 b1 0b 18
        E 32 b1 0b 10
        E 16 b1 0b 30
        E 0 81 34 00
        E 0 91 2d 30
        E 48 b1 0b 28
        E 64 b1 0b 20
        E 48 b1 0b 18
        E 64 b1 0b 10
        E 48 b1 0b 30
        E 0 81 2d 00
        E 0 91 34 30
        E 16 b1 0b 28
        E 32 b1 0b 20
        E 32 b1 0b 18
        E 32 b1 0b 10
        E 32 b1 0b 08
        E 32 81 34 00
        E 96 b1 0b 30
        E 0 91 34 30
        E 16 b1 0b 28
        E 32 b1 0b 20
        E 32 b1 0b 18
        E 32 b1 0b 10
        E 16 b1 0b 30
        E 16 b1 0b 28
        E 32 b1 0b 20
        E 32 b1 0b 18
        E 32 b1 0b 10
        E 32 b1 0b 08
        E 16 81 34 00
        E 112 b1 0b 30
        E 0 91 34 30
        E 16 b1 0b 28
        E 32 b1 0b 20
        E 32 b1 0b 18
        E 32 b1 0b 10
        E 16 b1 0b 30
        E 0 81 34 00
        E 0 91 46 30
        E 48 b1 0b 28
        E 64 b1 0b 20
        E 48 b1 0b 18
        E 64 b1 0b 10
        E 64 b1 0b 08
        E 64 81 46 00
        E 48 b1 0b 30
        E 0 91 34 30
        E 16 b1 0b 28
        E 32 b1 0b 20
        E 16 b1 0b 18
        E 32 b1 0b 10
        E 32 b1 0b 08
        E 32 81 34 00
        E 112 b1 0b 30
        E 0 91 34 30
        E 16 b1 0b 28
        E 32 b1 0b 20
        E 32 b1 0b 18
        E 32 b1 0b 10
        E 16 b1 0b 08
        E 32 81 34 00
        E 112 b1 0b 30
        E 0 91 34 30
        E 16 b1 0b 28
        E 32 b1 0b 20
        E 32 b1 0b 18
        E 32 b1 0b 10
        E 16 b1 0b 30
        E 0 81 34 00
        E 0 91 2d 30
        E 48 b1 0b 28
        E 48 b1 0b 20
        E 64 b1 0b 18
        E 64 b1 0b 10
        E 48 b1 0b 30
        E 0 81 2d 00
        E 0 91 34 30
        E 16 b1 0b 28
        E 32 b1 0b 20
        E 32 b1 0b 18
        E 32 b1 0b 10
        E 16 b1 0b 08
        E 32 81 34 00
        E 112 b1 0b 30
        E 0 91 34 30
        E 16 b1 0b 28
        E 32 b1 0b 20
        E 32 b1 0b 18
        E 32 b1 0b 10
        E 16 b1 0b 30
        E 16 b1 0b 28
        E 32 b1 0b 20
        E 16 b1 0b 18
        E 32 b1 0b 10
        E 32 b1 0b 08
        E 32 81 34 00
        E 112 b1 0b 30
        E 0 91 34 30
        E 16 b1 0b 28
        E 32 b1 0b 20
        E 32 b1 0b 18
        E 32 b1 0b 10
        E 16 b1 0b 30
        E 0 81 34 00
        E 0 91 46 30
        E 32 b1 0b 28
        E 64 b1 0b 20
        E 64 b1 0b 18
        E 64 b1 0b 10
        E 64 b1 0b 08
        E 64 81 46 00
        E 64 b1 0b 30
        E 0 91 34 30
        E 16 b1 0b 28
        E 32 b1 0b 20
        E 32 b1 0b 18
        E 32 b1 0b 10
        E 32 b1 0b 08
        E 32 81 34 00
        E 80 b1 0b 30
        E 0 91 34 30
        E 16 b1 0b 28
        E 16 b1 0b 20
        E 32 b1 0b 18
        E 32 b1 0b 10
        E 32 b1 0b 08
        E 32 81 34 00
        E 112 b1 0b 30
        E 0 91 34 30
        E 16 b1 0b 28
        E 32 b1 0b 20
        E 32 b1 0b 18
        E 16 b1 0b 10
        E 32 b1 0b 08
        E 16 b1 0b 30
        E 0 81 34 00
        E 0 91 2d 30
        E 48 b1 0b 28
        E 64 b1 0b 20
        E 64 b1 0b 18
        E 64 b1 0b 10
        E 16 b1 0b 30
        E 0 81 2d 00
        E 0 91 34 30
        E 16 b1 0b 28
        E 16 b1 0b 20
        E 32 b1 0b 18
        E 32 b1 0b 10
        E 32 b1 0b 08
        E 32 81 34 00
        E 112 b1 0b 30
        E 0 91 34 30
        E 16 b1 0b 28
        E 32 b1 0b 20
        E 32 b1 0b 18
        E 16 b1 0b 10
        E 32 b1 0b 08
        E 16 b1 0b 30
        E 16 b1 0b 28
        E 32 b1 0b 20
        E 32 b1 0b 18
        E 32 b1 0b 10
        E 32 b1 0b 08
        E 32 81 34 00
        E 80 b1 0b 30
        E 0 91 34 30
        E 16 b1 0b 28
        E 32 b1 0b 20
        E 16 b1 0b 18
        E 32 b1 0b 10
        E 32 b1 0b 08
        E 16 b1 0b 30
        E 0 81 34 00
        E 0 91 46 30
        E 48 b1 0b 28
        E 64 b1 0b 20
        E 64 b1 0b 18
        E 64 b1 0b 10
        E 48 b1 0b 08
        E 64 81 46 00
        E 48 b1 0b 30
        E 0 91 34 30
        E 16 b1 0b 28
        E 32 b1 0b 20
        E 32 b1 0b 18
        E 32 b1 0b 10
        E 32 b1 0b 08
        E 32 81 34 00
        E 96 b1 0b 30
        E 0 91 34 30
        E 16 b1 0b 28
        E 32 b1 0b 20
        E 32 b1 0b 18
        E 32 b1 0b 10
        E 32 b1 0b 08
        E 32 81 34 00
        E 96 b1 0b 30
        E 0 91 34 30
        E 16 b1 0b 28
        E 32 b1 0b 20
        E 32 b1 0b 18
        E 32 b1 0b 10
        E 16 b1 0b 30
        E 0 81 34 00
        E 0 91 2d 30
        E 48 b1 0b 28
        E 64 b1 0b 20
        E 64 b1 0b 18
        E 48 b1 0b 10
        E 48 b1 0b 30
        E 0 81 2d 00
        E 0 91 34 30
        E 16 b1 0b 28
        E 32 b1 0b 20
        E 32 b1 0b 18
        E 32 b1 0b 10
        E 32 b1 0b 08
        E 32 81 34 00
        E 96 b1 0b 30
        E 0 91 34 30
        E 16 b1 0b 28
        E 32 b1 0b 20
        E 32 b1 0b 18
        E 32 b1 0b 10
        E 16 b1 0b 30
        E 16 b1 0b 28
        E 32 b1 0b 20
        E 32 b1 0b 18
        E 32 b1 0b 10
        E 32 b1 0b 08
        E 32 81 34 00
        E 96 b1 0b 30
        E 0 91 34 30
        E 16 b1 0b 28
        E 32 b1 0b 20
        E 32 b1 0b 18
        E 32 b1 0b 10
        E 16 b1 0b 30
        E 0 81 34 00
        E 0 91 46 30
        E 48 b1 0b 28
        E 64 b1 0b 20
        E 48 b1 0b 18
        E 64 b1 0b 10
        E 64 b1 0b 08
        E 64 81 46 00
        E 48 b1 0b 30
        E 0 91 34 30
        E 16 b1 0b 28
        E 32 b1 0b 20
        E 32 b1 0b 18
        E 16 b1 0b 10
        E 32 b1 0b 08
        E 32 81 34 00
        E 112 b1 0b 30
        E 0 91 34 30
        E 16 b1 0b 28
        E 32 b1 0b 20
        E 32 b1 0b 18
        E 32 b1 0b 10
        E 32 b1 0b 08
        E 16 81 34 00
        E 112 b1 0b 30
        E 0 91 34 30
        E 16 b1 0b 28
        E 32 b1 0b 20
        E 32 b1 0b 18
        E 32 b1 0b 10
        E 16 b1 0b 30
        E 0 81 34 00
        E 0 91 2d 30
        E 48 b1 0b 28
        E 48 b1 0b 20
        E 64 b1 0b 18
        E 64 b1 0b 10
        E 48 b1 0b 30
        E 0 81 2d 00
        E 0 91 34 30
        E 16 b1 0b 28
        E 32 b1 0b 20
        E 32 b1 0b 18
        E 32 b1 0b 10
        E 32 b1 0b 08
        E 16 81 34 00
        E 112 b1 0b 30
        E 0 91 34 30
        E 16 b1 0b 28
        E 32 b1 0b 20
        E 32 b1 0b 18
        E 32 b1 0b 10
        E 16 b1 0b 30
        E 16 b1 0b 28
        E 32 b1 0b 20
        E 32 b1 0b 18
        E 32 b1 0b 10
        E 16 b1 0b 08
        E 32 81 34 00
        E 112 b1 0b 30
        E 0 91 34 30
        E 16 b1 0b 28
        E 32 b1 0b 20
        E 32 b1 0b 18
        E 32 b1 0b 10
        E 16 b1 0b 30
        E 0 81 34 00
        E 0 91 46 30
        E 48 b1 0b 28
        E 48 b1 0b 20
        E 64 b1 0b 18
        E 64 b1 0b 10
        E 64 b1 0b 08
        E 64 81 46 00
        E 64 b1 0b 30
        E 0 91 34 30
        E 16 b1 0b 28
        E 32 b1 0b 20
        E 32 b1 0b 18
        E 32 b1 0b 10
        E 32 b1 0b 08
        E 32 81 34 00
        E 80 b1 0b 30
        E 0 91 34 30
        E 16 b1 0b 28
        E 32 b1 0b 20
        E 16 b1 0b 18
        E 32 b1 0b 10
        E 32 b1 0b 08
        E 32 81 34 00
        E 112 b1 0b 30
        E 0 91 34 30
        E 16 b1 0b 28
        E 32 b1 0b 20
        E 32 b1 0b 18
        E 32 b1 0b 10
        E 16 b1 0b 08
        E 16 b1 0b 30
        E 0 81 34 00
        E 0 91 2d 30
        E 48 b1 0b 28
        E 64 b1 0b 20
        E 64 b1 0b 18
        E 64 b1 0b 10
        E 16 b1 0b 30
        E 0 81 2d 00
        E 0 91 34 30
        E 16 b1 0b 28
        E 32 b1 0b 20
        E 16 b1 0b 18
        E 32 b1 0b 10
        E 32 b1 0b 08
        E 32 81 34 00
        E 112 b1 0b 30
        E 0 91 34 30
        E 16 b1 0b 28
        E 32 b1 0b 20
        E 32 b1 0b 18
        E 32 b1 0b 10
        E 16 b1 0b 30
        E 16 b1 0b 28
        E 16 b1 0b 20
        E 32 b1 0b 18
        E 32 b1 0b 10
        E 32 b1 0b 08
        E 32 81 34 00
        E 112 b1 0b 30
        E 0 91 34 30
        E 16 b1 0b 28
        E 32 b1 0b 20
        E 32 b1 0b 18
        E 16 b1 0b 10
        E 32 b1 0b 08
        E 16 b1 0b 30
        E 0 81 34 00
        E 0 91 46 30
        E 48 b1 0b 28
        E 64 b1 0b 20
        E 64 b1 0b 18
        E 64 b1 0b 10
        E 48 b1 0b 08
        E 64 81 46 00
        E 48 b1 0b 30
        E 0 91 23 30
        E 16 b1 0b 28
        E 32 b1 0b 20
        E 32 b1 0b 18
        E 32 b1 0b 10
        E 32 b1 0b 08
        E 32 81 23 00
        E 96 b1 0b 30
        E 0 91 23 30
        E 16 b1 0b 28
        E 32 b1 0b 20
        E 32 b1 0b 18
        E 32 b1 0b 10
        E 32 b1 0b 08
        E 32 81 23 00
        E 80 b1 0b 30
        E 0 91 23 30
        E 16 b1 0b 28
        E 16 b1 0b 20
        E 32 b1 0b 18
        E 32 b1 0b 10
        E 32 b1 0b 08
        E 16 b1 0b 30
        E 0 81 23 00
        E 0 91 21 30
        E 48 b1 0b 28
        E 64 b1 0b 20
        E 64 b1 0b 18
        E 48 b1 0b 10
        E 48 b1 0b 30
        E 0 81 21 00
        E 0 91 23 30
        E 16 b1 0b 28
        E 32 b1 0b 20
        E 32 b1 0b 18
        E 32 b1 0b 10
        E 32 b1 0b 08
        E 32 81 23 00
        E 80 b1 0b 30
        E 0 91 23 30
        E 16 b1 0b 28
        E 32 b1 0b 20
        E 16 b1 0b 18
        E 32 b1 0b 10
        E 32 b1 0b 08
        E 16 b1 0b 30
        E 16 b1 0b 28
        E 32 b1 0b 20
        E 32 b1 0b 18
        E 32 b1 0b 10
        E 32 b1 0b 08
        E 32 81 23 00
        E 96 b1 0b 30
        E 0 91 23 30
        E 16 b1 0b 28
        E 32 b1 0b 20
        E 32 b1 0b 18
        E 32 b1 0b 10
        E 16 b1 0b 30
        E 0 81 23 00
        E 0 91 26 30
        E 48 b1 0b 28
        E 64 b1 0b 20
        E 64 b1 0b 18
        E 48 b1 0b 10
        E 64 b1 0b 08
        E 64 81 26 00
        E 48 b1 0b 30
        E 0 91 23 30
        E 16 b1 0b 28
        E 32 b1 0b 20
        E 32 b1 0b 18
        E 32 b1 0b 10
        E 16 b1 0b 08
        E 32 81 23 00
        E 112 b1 0b 30
        E 0 91 23 30
        E 16 b1 0b 28
        E 32 b1 0b 20
        E 32 b1 0b 18
        E 32 b1 0b 10
        E 32 b1 0b 08
        E 32 81 23 00
        E 96 b1 0b 30
        E 0 91 23 30
        E 16 b1 0b 28
        E 32 b1 0b 20
        E 32 b1 0b 18
        E 32 b1 0b 10
        E 16 b1 0b 30
        E 0 81 23 00
        E 0 91 21 30
        E 48 b1 0b 28
        E 64 b1 0b 20
        E 48 b1 0b 18
        E 64 b1 0b 10
        E 48 b1 0b 30
        E 0 81 21 00
        E 0 91 23 30
        E 16 b1 0b 28
        E 32 b1 0b 20
        E 32 b1 0b 18
        E 32 b1 0b 10
        E 32 b1 0b 08
        E 32 81 23 00
        E 96 b1 0b 30
        E 0 91 23 30
        E 16 b1 0b 28
        E 32 b1 0b 20
        E 32 b1 0b 18
        E 32 b1 0b 10
        E 16 b1 0b 30
        E 16 b1 0b 28
        E 32 b1 0b 20
        E 32 b1 0b 18
        E 32 b1 0b 10
        E 32 b1 0b 08
        E 16 81 23 00
        E 112 b1 0b 30
        E 0 91 23 30
        E 16 b1 0b 28
        E 32 b1 0b 20
        E 32 b1 0b 18
        E 32 b1 0b 10
        E 16 b1 0b 30
        E 0 81 23 00
        E 0 91 26 30
        E 48 b1 0b 28
        E 48 b1 0b 20
        E 64 b1 0b 18
        E 64 b1 0b 10
        E 64 b1 0b 08
        E 64 81 26 00
        E 48 b1 0b 30
        E 0 91 34 30
        E 16 b1 0b 28
        E 16 b1 0b 20
        E 32 b1 0b 18
        E 32 b1 0b 10
        E 32 b1 0b 08
        E 32 81 34 00
        E 112 b1 0b 30
        E 0 91 34 30
        E 16 b1 0b 28
        E 32 b1 0b 20
        E 32 b1 0b 18
        E 16 b1 0b 10
        E 32 b1 0b 08
        E 32 81 34 00
        E 112 b1 0b 30
        E 0 91 34 30
        E 16 b1 0b 28
        E 32 b1 0b 20
        E 32 b1 0b 18
        E 32 b1 0b 10
        E 16 b1 0b 30
        E 0 81 34 00
        E 0 91 2d 30
        E 32 b1 0b 28
        E 64 b1 0b 20
        E 64 b1 0b 18
        E 64 b1 0b 10
        E 48 b1 0b 30
        E 0 81 2d 00
        E 0 91 34 30
        E 16 b1 0b 28
        E 32 b1 0b 20
        E 32 b1 0b 18
        E 32 b1 0b 10
        E 16 b1 0b 08
        E 32 81 34 00
        E 112 b1 0b 30
        E 0 91 34 30
        E 16 b1 0b 28
        E 32 b1 0b 20
        E 32 b1 0b 18
        E 32 b1 0b 10
        E 16 b1 0b 30
        E 16 b1 0b 28
        E 32 b1 0b 20
        E 16 b1 0b 18
        E 32 b1 0b 10
        E 32 b1 0b 08
        E 32 81 34 00
        E 112 b1 0b 30
        E 0 91 34 30
        E 16 b1 0b 28
        E 32 b1 0b 20
        E 32 b1 0b 18
        E 32 b1 0b 10
        E 16 b1 0b 08
        E 16 b1 0b 30
        E 0 81 34 00
        E 0 91 46 30
        E 48 b1 0b 28
        E 64 b1 0b 20
        E 64 b1 0b 18
        E 64 b1 0b 10
        E 64 b1 0b 08
        E 48 81 46 00
        E 48 b1 0b 30
        E 0 91 34 30
        E 16 b1 0b 28
        E 32 b1 0b 20
        E 32 b1 0b 18
        E 32 b1 0b 10
        E 32 b1 0b 08
        E 32 81 34 00
        E 96 b1 0b 30
        E 0 91 34 30
        E 16 b1 0b 28
        E 32 b1 0b 20
        E 32 b1 0b 18
        E 32 b1 0b 10
        E 32 b1 0b 08
        E 32 81 34 00
        E 80 b1 0b 30
        E 0 91 34 30
        E 16 b1 0b 28
        E 32 b1 0b 20
        E 16 b1 0b 18
        E 32 b1 0b 10
        E 32 b1 0b 08
        E 16 b1 0b 30
        E 0 81 34 00
        E 0 91 2d 30
        E 48 b1 0b 28
        E 64 b1 0b 20
        E 64 b1 0b 18
        E 64 b1 0b 10
        E 16 b1 0b 30
        E 0 81 2d 00
        E 0 91 34 30
        E 16 b1 0b 28
        E 16 b1 0b 20
        E 32 b1 0b 18
        E 32 b1 0b 10
        E 32 b1 0b 08
        E 32 81 34 00
        E 112 b1 0b 30
        E 0 91 34 30
        E 16 b1 0b 28
        E 32 b1 0b 20
        E 32 b1 0b 18
        E 16 b1 0b 10
        E 32 b1 0b 08
        E 16 b1 0b 30
        E 16 b1 0b 28
        E 32 b1 0b 20
        E 32 b1 0b 18
        E 32 b1 0b 10
        E 32 b1 0b 08
        E 32 81 34 00
        E 80 b1 0b 30
        E 0 91 34 30
        E 16 b1 0b 28
        E 16 b1 0b 20
        E 32 b1 0b 18
        E 32 b1 0b 10
        E 32 b1 0b 08
        E 16 b1 0b 30
        E 0 81 34 00
        E 0 91 46 30
        E 48 b1 0b 28
        E 64 b1 0b 20
        E 64 b1 0b 18
        E 48 b1 0b 10
        E 64 b1 0b 08
        E 64 81 46 00
        E 48 b1 0b 28
        E 0 91 46 28
        E 224 b1 0b 20
        E 192 b1 0b 18
        E 1728 b1 0b 28
        E 0 81 46 00
        E 0 91 23 28
        E 224 b1 0b 20
        E 176 b1 0b 18
        E 1760 b1 0c 40
        E 0 b1 0b 48
        E 0 81 23 00
        E 0 91 2d 48
        E 16 b1 0b 40
        E 32 b1 0b 38
        E 32 b1 0b 30
        E 32 b1 0b 28
        E 16 b1 0b 48
        E 0 81 2d 00
        E 0 91 34 48
        E 16 b1 0b 40
        E 32 b1 0b 38
        E 32 b1 0b 30
        E 32 b1 0b 28
        E 16 b1 0c 10
        E 0 b1 0b 38
        E 0 81 34 00
        E 0 91 33 38
        E 16 b1 0b 30
        E 16 b1 0b 28
        E 32 b1 0b 20
        E 32 b1 0b 18
        E 32 b1 0b 10
        E 16 b1 0b 38
        E 0 81 33 00
        E 0 91 34 38
        E 16 b1 0b 30
        E 32 b1 0b 28
        E 32 b1 0b 20
        E 32 b1 0b 18
        E 16 b1 0b 20
        E 144 b1 0b 38
        E 16 b1 0b 30
        E 32 b1 0b 28
        E 32 b1 0b 20
        E 32 b1 0b 18
        E 16 b1 0b 20
        E 16 b1 0b 18
        E 32 b1 0b 10
        E 32 b1 0b 08
        E 32 81 34 00
        E 16 b1 0b 38
        E 0 91 34 38
        E 16 b1 0b 30
        E 32 b1 0b 28
        E 16 b1 0b 20
        E 32 b1 0b 18
        E 32 b1 0b 10
        E 16 b1 0b 20
        E 16 b1 0b 18
        E 32 b1 0b 10
        E 32 b1 0b 08
        E 32 81 34 00
        E 16 b1 0b 10
        E 0 91 34 10
        E 144 b1 0b 38
        E 256 b1 0b 20
        E 144 b1 0b 38
        E 128 b1 0b 20
        E 144 b1 0c 40
        E 0 b1 0b 48
        E 16 b1 0b 40
        E 32 b1 0b 38
        E 32 b1 0b 30
        E 32 b1 0b 28
        E 16 b1 0b 48
        E 0 81 34 00
        E 0 91 2d 48
        E 16 b1 0b 40
        E 32 b1 0b 38
        E 32 b1 0b 30
        E 32 b1 0b 28
        E 16 b1 0b 48
        E 0 81 2d 00
        E 0 91 34 48
        E 16 b1 0b 40
        E 32 b1 0b 38
        E 16 b1 0b 30
        E 32 b1 0b 28
        E 32 b1 0b 20
        E 16 b1 0c 10
        E 0 b1 0b 38
        E 0 81 34 00
        E 0 91 33 38
        E 16 b1 0b 30
        E 32 b1 0b 28
        E 32 b1 0b 20
        E 32 b1 0b 18
        E 16 b1 0b 38
        E 0 81 33 00
        E 0 91 34 38
        E 16 b1 0b 30
        E 32 b1 0b 28
        E 32 b1 0b 20
        E 32 b1 0b 18
        E 16 b1 0b 20
        E 144 b1 0b 38
        E 16 b1 0b 30
        E 32 b1 0b 28
        E 32 b1 0b 20
        E 32 b1 0b 18
        E 16 b1 0b 20
        E 16 b1 0b 18
        E 32 b1 0b 10
        E 32 b1 0b 08
        E 16 81 34 00
        E 48 b1 0b 38
        E 0 91 34 38
        E 16 b1 0b 30
        E 32 b1 0b 28
        E 32 b1 0b 20
        E 32 b1 0b 18
        E 16 b1 0b 20
        E 16 b1 0b 18
        E 32 b1 0b 10
        E 32 b1 0b 08
        E 32 81 34 00
        E 16 b1 0b 10
        E 0 91 34 10
        E 144 b1 0b 38
        E 272 b1 0b 20
        E 128 b1 0b 38
        E 128 b1 0b 20
        E 144 b1 0c 40
        E 0 b1 0b 48
        E 16 b1 0b 40
        E 32 b1 0b 38
        E 32 b1 0b 30
        E 32 b1 0b 28
        E 16 b1 0b 48
        E 0 81 34 00
        E 0 91 2d 48
        E 16 b1 0b 40
        E 32 b1 0b 38
        E 32 b1 0b 30
        E 16 b1 0b 28
        E 32 b1 0b 20
        E 16 b1 0b 48
        E 0 81 2d 00
        E 0 91 34 48
        E 16 b1 0b 40
        E 32 b1 0b 38
        E 32 b1 0b 30
        E 32 b1 0b 28
        E 16 b1 0c 10
        E 0 b1 0b 38
        E 0 81 34 00
        E 0 91 33 38
        E 16 b1 0b 30
        E 32 b1 0b 28
        E 32 b1 0b 20
        E 32 b1 0b 18
        E 16 b1 0b 38
        E 0 81 33 00
        E 0 91 34 38
        E 16 b1 0b 30
        E 32 b1 0b 28
        E 16 b1 0b 20
        E 32 b1 0b 18
        E 32 b1 0b 10
        E 16 b1 0b 20
        E 128 b1 0b 38
        E 16 b1 0b 30
        E 32 b1 0b 28
        E 32 b1 0b 20
        E 32 b1 0b 18
        E 16 b1 0b 10
        E 16 b1 0b 20
        E 16 b1 0b 18
        E 32 b1 0b 10
        E 32 b1 0b 08
        E 32 81 34 00
        E 16 b1 0b 38
        E 0 91 34 38
        E 16 b1 0b 30
        E 32 b1 0b 28
        E 32 b1 0b 20
        E 32 b1 0b 18
        E 16 b1 0b 20
        E 16 b1 0b 18
        E 32 b1 0b 10
        E 16 b1 0b 08
        E 32 81 34 00
        E 48 b1 0b 10
        E 0 91 34 10
        E 128 b1 0b 38
        E 272 b1 0b 20
        E 128 b1 0b 38
        E 144 b1 0b 20
        E 128 b1 0c 40
        E 0 b1 0b 48
        E 16 b1 0b 40
        E 32 b1 0b 38
        E 32 b1 0b 30
        E 32 b1 0b 28
        E 16 b1 0b 20
        E 16 b1 0b 48
        E 0 81 34 00
        E 0 91 2d 48
        E 16 b1 0b 40
        E 32 b1 0b 38
        E 32 b1 0b 30
        E 32 b1 0b 28
        E 16 b1 0b 48
        E 0 81 2d 00
        E 0 91 34 48
        E 16 b1 0b 40
        E 32 b1 0b 38
        E 32 b1 0b 30
        E 32 b1 0b 28
        E 16 b1 0c 10
        E 0 b1 0b 38
        E 0 81 34 00
        E 0 91 33 38
        E 16 b1 0b 30
        E 32 b1 0b 28
        E 32 b1 0b 20
        E 16 b1 0b 18
        E 32 b1 0b 10
        E 16 b1 0b 38
        E 0 81 33 00
        E 0 91 34 38
        E 16 b1 0b 30
        E 32 b1 0b 28
        E 32 b1 0b 20
        E 32 b1 0b 18
        E 16 b1 0b 20
        E 128 b1 0b 38
        E 16 b1 0b 30
        E 16 b1 0b 28
        E 32 b1 0b 20
        E 32 b1 0b 18
        E 32 b1 0b 10
        E 16 b1 0b 20
        E 16 b1 0b 18
        E 32 b1 0b 10
        E 32 b1 0b 08
        E 32 81 34 00
        E 16 b1 0b 38
        E 0 91 34 38
        E 16 b1 0b 30
        E 32 b1 0b 28
        E 32 b1 0b 20
        E 16 b1 0b 18
        E 32 b1 0b 10
        E 16 b1 0b 20
        E 16 b1 0b 18
        E 32 b1 0b 10
        E 32 b1 0b 08
        E 32 81 34 00
        E 16 b1 0b 10
        E 0 91 34 10
        E 128 b1 0b 38
        E 272 b1 0b 20
        E 144 b1 0b 38
        E 128 b1 0b 20
        E 128 b1 0c 40
        E 0 b1 0b 48
        E 16 b1 0b 40
        E 16 b1 0b 38
        E 32 b1 0b 30
        E 32 b1 0b 28
        E 32 b1 0b 20
        E 16 b1 0b 30
        E 0 81 34 00
        E 0 91 2d 30
        E 16 b1 0b 28
        E 32 b1 0b 20
        E 32 b1 0b 18
        E 32 b1 0b 10
        E 16 b1 0b 30
        E 0 81 2d 00
        E 0 91 30 30
        E 16 b1 0b 28
        E 32 b1 0b 20
        E 16 b1 0b 18
        E 0 81 30 00
        E 0 91 2d 18
        E 80 b1 0b 30
        E 0 81 2d 00
        E 0 91 34 30
        E 16 b1 0b 28
        E 32 b1 0b 20
        E 16 b1 0b 18
        E 0 81 34 00
        E 0 91 30 18
        E 16 b1 0b 10
        E 32 b1 0b 08
        E 16 b1 0b 30
        E 0 81 30 00
        E 0 91 37 30
        E 16 b1 0b 28
        E 32 b1 0b 20
        E 16 b1 0b 18
        E 0 81 37 00
        E 0 91 34 18
        E 16 b1 0b 10
        E 32 b1 0b 08
        E 16 b1 0b 30
        E 16 b1 0b 28
        E 32 b1 0b 20
        E 16 b1 0b 18
        E 16 81 34 00
        E 0 91 37 18
        E 16 b1 0b 10
        E 32 b1 0b 08
        E 16 b1 0b 30
        E 0 81 37 00
        E 0 91 30 30
        E 16 b1 0b 28
        E 32 b1 0b 20
        E 16 b1 0b 18
        E 0 81 30 00
        E 0 91 34 18
        E 16 b1 0b 10
        E 32 b1 0b 08
        E 16 b1 0b 30
        E 16 b1 0b 28
        E 32 b1 0b 20
        E 16 b1 0b 18
        E 0 81 34 00
        E 0 91 30 18
        E 16 b1 0b 10
        E 32 b1 0b 08
        E 16 81 30 00
        E 16 b1 0b 30
        E 0 91 37 30
        E 16 b1 0b 28
        E 32 b1 0b 20
        E 16 b1 0b 18
        E 0 81 37 00
        E 0 91 34 18
        E 16 b1 0b 10
        E 32 b1 0b 08
        E 16 b1 0b 30
        E 0 81 34 00
        E 0 91 39 30
        E 16 b1 0b 28
        E 32 b1 0b 20
        E 16 b1 0b 18
        E 0 81 39 00
        E 0 91 37 18
        E 16 b1 0b 10
        E 32 b1 0b 08
        E 16 b1 0b 30
        E 0 81 37 00
        E 0 91 3c 30
        E 16 b1 0b 28
        E 32 b1 0b 20
        E 16 b1 0b 18
        E 16 81 3c 00
        E 0 91 39 18
        E 16 b1 0b 10
        E 32 b1 0b 08
        E 16 b1 0b 30
        E 0 81 39 00
        E 0 91 40 30
        E 16 b1 0b 28
        E 32 b1 0b 20
        E 16 b1 0b 18
        E 0 81 40 00
        E 0 91 3c 18
        E 16 b1 0b 10
        E 32 b1 0b 08
        E 16 b1 0b 30
        E 0 81 3c 00
        E 0 91 43 30
        E 16 b1 0b 28
        E 32 b1 0b 20
        E 16 b1 0b 18
        E 0 81 43 00
        E 0 91 40 18
        E 16 b1 0b 10
        E 32 b1 0b 08
        E 16 81 40 00
        E 16 b1 0b 30
        E 0 91 45 30
        E 16 b1 0b 28
        E 32 b1 0b 20
        E 16 b1 0b 18
        E 0 81 45 00
        E 0 91 43 18
        E 16 b1 0b 10
        E 32 b1 0b 08
        E 16 b1 0b 30
        E 0 81 43 00
        E 0 91 48 30
        E 16 b1 0b 28
        E 32 b1 0b 20
        E 16 b1 0b 18
        E 0 81 48 00
        E 0 91 45 18
        E 16 b1 0b 10
        E 32 b1 0b 08
        E 16 b1 0b 30
        E 0 81 45 00
        E 0 91 4c 30
        E 16 b1 0b 28
        E 32 b1 0b 20
        E 16 b1 0b 18
        E 16 81 4c 00
        E 0 91 48 18
        E 16 b1 0b 10
        E 32 b1 0b 08
        E 16 b1 0b 30
        E 0 81 48 00
        E 0 91 4f 30
        E 16 b1 0b 28
        E 32 b1 0b 20
        E 16 b1 0b 18
        E 0 81 4f 00
        E 0 91 4c 18
        E 16 b1 0b 10
        E 32 b1 0b 08
        E 16 b1 0b 30
        E 0 81 4c 00
        E 0 91 2f 30
        E 16 b1 0b 28
        E 32 b1 0b 20
        E 16 b1 0b 18
        E 0 81 2f 00
        E 0 91 4f 18
        E 16 b1 0b 10
        E 32 b1 0b 08
        E 16 b1 0b 30
        E 0 81 4f 00
        E 0 91 33 30
        E 16 b1 0b 28
        E 16 b1 0b 20
        E 32 b1 0b 18
        E 16 81 33 00
        E 0 91 2f 18
        E 16 b1 0b 10
        E 32 b1 0b 08
        E 16 b1 0b 30
        E 0 81 2f 00
        E 0 91 36 30
        E 16 b1 0b 28
        E 32 b1 0b 20
        E 16 b1 0b 18
        E 0 81 36 00
        E 0 91 33 18
        E 16 b1 0b 10
        E 32 b1 0b 08
        E 16 b1 0b 30
        E 0 81 33 00
        E 0 91 39 30
        E 16 b1 0b 28
        E 32 b1 0b 20
        E 16 b1 0b 18
        E 0 81 39 00
        E 0 91 36 18
        E 16 b1 0b 10
        E 16 b1 0b 08
        E 32 81 36 00
        E 16 b1 0b 30
        E 0 91 36 30
        E 16 b1 0b 28
        E 32 b1 0b 20
        E 16 b1 0b 18
        E 0 81 36 00
        E 0 91 39 18
        E 16 b1 0b 10
        E 32 b1 0b 08
        E 16 b1 0b 30
        E 0 81 39 00
        E 0 91 33 30
        E 16 b1 0b 28
        E 32 b1 0b 20
        E 16 b1 0b 18
        E 0 81 33 00
        E 0 91 36 18
        E 16 b1 0b 10
        E 32 b1 0b 08
        E 16 b1 0b 30
        E 16 b1 0b 28
        E 16 b1 0b 20
        E 32 b1 0b 18
        E 16 81 36 00
        E 0 91 33 18
        E 16 b1 0b 10
        E 32 b1 0b 08
        E 16 b1 0b 30
        E 0 81 33 00
        E 0 91 39 30
        E 16 b1 0b 28
        E 32 b1 0b 20
        E 16 b1 0b 18
        E 0 81 39 00
        E 0 91 36 18
        E 16 b1 0b 10
        E 32 b1 0b 08
        E 16 b1 0b 30
        E 0 81 36 00
        E 0 91 3b 30
        E 16 b1 0b 28
        E 32 b1 0b 20
        E 16 b1 0b 18
        E 0 81 3b 00
        E 0 91 29 18
        E 16 b1 0b 10
        E 16 b1 0b 08
        E 32 81 29 00
        E 16 b1 0b 30
        E 0 91 3f 30
        E 16 b1 0b 28
        E 32 b1 0b 20
        E 16 b1 0b 18
        E 0 81 3f 00
        E 0 91 3b 18
        E 16 b1 0b 10
        E 32 b1 0b 08
        E 16 b1 0b 30
        E 0 81 3b 00
        E 0 91 42 30
        E 16 b1 0b 28
        E 32 b1 0b 20
        E 16 b1 0b 18
        E 0 81 42 00
        E 0 91 3f 18
        E 16 b1 0b 10
        E 32 b1 0b 08
        E 16 b1 0b 30
        E 0 81 3f 00
        E 0 91 45 30
        E 16 b1 0b 28
        E 16 b1 0b 20
        E 32 b1 0b 18
        E 16 81 45 00
        E 0 91 42 18
        E 16 b1 0b 10
        E 32 b1 0b 08
        E 16 b1 0b 30
        E 0 81 42 00
        E 0 91 47 30
        E 16 b1 0b 28
        E 32 b1 0b 20
        E 16 b1 0b 18
        E 0 81 47 00
        E 0 91 45 18
        E 16 b1 0b 10
        E 32 b1 0b 08
        E 16 b1 0b 30
        E 0 81 45 00
        E 0 91 4b 30
        E 16 b1 0b 28
        E 32 b1 0b 20
        E 16 b1 0b 18
        E 0 81 4b 00
        E 0 91 47 18
        E 16 b1 0b 10
        E 16 b1 0b 08
        E 32 81 47 00
        E 16 b1 0b 30
        E 0 91 4e 30
        E 16 b1 0b 28
        E 32 b1 0b 20
        E 16 b1 0b 18
        E 0 81 4e 00
        E 0 91 4b 18
        E 16 b1 0b 10
        E 32 b1 0b 08
        E 16 b1 0b 30
        E 0 81 4b 00
        E 0 91 51 30
        E 16 b1 0b 28
        E 32 b1 0b 20
        E 16 b1 0b 18
        E 0 81 51 00
        E 0 91 4e 18
        E 64 b1 0c 20
        E 0 b1 0b 30
        E 0 81 4e 00
        E 0 91 34 30
        E 16 b1 0b 28
        E 16 b1 0b 30
        E 16 b1 0b 28
        E 16 b1 0b 20
        E 16 b1 0b 30
        E 16 b1 0b 28
        E 32 b1 0b 20
        E 32 b1 0b 18
        E 32 b1 0b 10
        E 32 b1 0b 08
        E 32 81 34 00
        E 16 b1 0b 30
        E 0 91 34 30
        E 16 b1 0b 28
        E 32 b1 0b 20
        E 32 b1 0b 18
        E 32 b1 0b 10
        E 16 b1 0b 08
        E 32 81 34 00
        E 112 b1 0b 30
        E 0 91 34 30
        E 16 b1 0b 28
        E 32 b1 0b 20
        E 32 b1 0b 18
        E 32 b1 0b 10
        E 16 b1 0b 30
        E 0 81 34 00
        E 0 91 2d 30
        E 48 b1 0b 28
        E 48 b1 0b 20
        E 64 b1 0b 18
        E 64 b1 0b 10
        E 48 b1 0b 30
        E 0 81 2d 00
        E 0 91 34 30
        E 16 b1 0b 28
        E 32 b1 0b 20
        E 32 b1 0b 18
        E 32 b1 0b 10
        E 16 b1 0b 08
        E 32 81 34 00
        E 112 b1 0b 30
        E 0 91 34 30
        E 16 b1 0b 28
        E 32 b1 0b 20
        E 32 b1 0b 18
        E 32 b1 0b 10
        E 16 b1 0b 30
        E 16 b1 0b 28
        E 32 b1 0b 20
        E 16 b1 0b 18
        E 32 b1 0b 10
        E 32 b1 0b 08
        E 32 81 34 00
        E 112 b1 0b 30
        E 0 91 34 30
        E 16 b1 0b 28
        E 32 b1 0b 20
        E 32 b1 0b 18
        E 32 b1 0b 10
        E 16 b1 0b 08
        E 16 b1 0b 30
        E 0 81 34 00
        E 0 91 46 30
        E 48 b1 0b 28
        E 64 b1 0b 20
        E 64 b1 0b 18
        E 64 b1 0b 10
        E 64 b1 0b 08
        E 48 81 46 00
        E 48 b1 0b 30
        E 0 91 34 30
        E 16 b1 0b 28
        E 32 b1 0b 20
        E 32 b1 0b 18
        E 32 b1 0b 10
        E 32 b1 0b 08
        E 32 81 34 00
        E 80 b1 0b 30
        E 0 91 34 30
        E 16 b1 0b 28
        E 16 b1 0b 20
        E 32 b1 0b 18
        E 32 b1 0b 10
        E 32 b1 0b 08
        E 32 81 34 00
        E 112 b1 0b 30
        E 0 91 34 30
        E 16 b1 0b 28
        E 32 b1 0b 20
        E 32 b1 0b 18
        E 16 b1 0b 10
        E 32 b1 0b 08
        E 16 b1 0b 30
        E 0 81 34 00
        E 0 91 2d 30
        E 48 b1 0b 28
        E 64 b1 0b 20
        E 64 b1 0b 18
        E 64 b1 0b 10
        E 16 b1 0b 30
        E 0 81 2d 00
        E 0 91 34 30
        E 16 b1 0b 28
        E 16 b1 0b 20
        E 32 b1 0b 18
        E 32 b1 0b 10
        E 32 b1 0b 08
        E 32 81 34 00
        E 112 b1 0b 30
        E 0 91 34 30
        E 16 b1 0b 28
        E 32 b1 0b 20
        E 32 b1 0b 18
        E 16 b1 0b 10
        E 32 b1 0b 08
        E 16 b1 0b 30
        E 16 b1 0b 28
        E 32 b1 0b 20
        E 32 b1 0b 18
        E 32 b1 0b 10
        E 32 b1 0b 08
        E 32 81 34 00
        E 80 b1 0b 30
        E 0 91 34 30
        E 16 b1 0b 28
        E 16 b1 0b 20
        E 32 b1 0b 18
        E 32 b1 0b 10
        E 32 b1 0b 08
        E 16 b1 0b 30
        E 0 81 34 00
        E 0 91 46 30
        E 48 b1 0b 28
        E 64 b1 0b 20
        E 64 b1 0b 18
        E 64 b1 0b 10
        E 48 b1 0b 08
        E 64 81 46 00
        E 48 b1 0b 30
        E 0 91 34 30
        E 16 b1 0b 28
        E 32 b1 0b 20
        E 32 b1 0b 18
        E 32 b1 0b 10
        E 32 b1 0b 08
        E 32 81 34 00
        E 96 b1 0b 30
        E 0 91 34 30
        E 16 b1 0b 28
        E 32 b1 0b 20
        E 32 b1 0b 18
        E 32 b1 0b 10
        E 32 b1 0b 08
        E 32 81 34 00
        E 96 b1 0b 30
        E 0 91 34 30
        E 16 b1 0b 28
        E 32 b1 0b 20
        E 32 b1 0b 18
        E 32 b1 0b 10
        E 16 b1 0b 30
        E 0 81 34 00
        E 0 91 2d 30
        E 48 b1 0b 28
        E 64 b1 0b 20
        E 64 b1 0b 18
        E 48 b1 0b 10
        E 48 b1 0b 30
        E 0 81 2d 00
        E 0 91 34 30
        E 16 b1 0b 28
        E 32 b1 0b 20
        E 32 b1 0b 18
        E 32 b1 0b 10
        E 32 b1 0b 08
        E 32 81 34 00
        E 96 b1 0b 30
        E 0 91 34 30
        E 16 b1 0b 28
        E 32 b1 0b 20
        E 32 b1 0b 18
        E 32 b1 0b 10
        E 16 b1 0b 30
        E 16 b1 0b 28
        E 32 b1 0b 20
        E 32 b1 0b 18
        E 32 b1 0b 10
        E 32 b1 0b 08
        E 32 81 34 00
        E 96 b1 0b 30
        E 0 91 34 30
        E 16 b1 0b 28
        E 32 b1 0b 20
        E 32 b1 0b 18
        E 32 b1 0b 10
        E 16 b1 0b 30
        E 0 81 34 00
        E 0 91 46 30
        E 48 b1 0b 28
        E 64 b1 0b 20
        E 48 b1 0b 18
        E 64 b1 0b 10
        E 64 b1 0b 08
        E 64 81 46 00
        E 48 b1 0b 30
        E 0 91 34 30
        E 16 b1 0b 28
        E 32 b1 0b 20
        E 32 b1 0b 18
        E 16 b1 0b 10
        E 32 b1 0b 08
        E 32 81 34 00
        E 112 b1 0b 30
        E 0 91 34 30
        E 16 b1 0b 28
        E 32 b1 0b 20
        E 32 b1 0b 18
        E 32 b1 0b 10
        E 32 b1 0b 08
        E 16 81 34 00
        E 112 b1 0b 30
        E 0 91 34 30
        E 16 b1 0b 28
        E 32 b1 0b 20
        E 32 b1 0b 18
        E 32 b1 0b 10
        E 16 b1 0b 30
        E 0 81 34 00
        E 0 91 2d 30
        E 48 b1 0b 28
        E 48 b1 0b 20
        E 64 b1 0b 18
        E 64 b1 0b 10
        E 48 b1 0b 30
        E 0 81 2d 00
        E 0 91 34 30
        E 16 b1 0b 28
        E 32 b1 0b 20
        E 32 b1 0b 18
        E 32 b1 0b 10
        E 32 b1 0b 08
        E 16 81 34 00
        E 112 b1 0b 30
        E 0 91 34 30
        E 16 b1 0b 28
        E 32 b1 0b 20
        E 32 b1 0b 18
        E 32 b1 0b 10
        E 16 b1 0b 30
        E 16 b1 0b 28
        E 32 b1 0b 20
        E 32 b1 0b 18
        E 16 b1 0b 10
        E 32 b1 0b 08
        E 32 81 34 00
        E 112 b1 0b 30
        E 0 91 34 30
        E 16 b1 0b 28
        E 32 b1 0b 20
        E 32 b1 0b 18
        E 32 b1 0b 10
        E 16 b1 0b 30
        E 0 81 34 00
        E 0 91 46 30
        E 48 b1 0b 28
        E 48 b1 0b 20
        E 64 b1 0b 18
        E 64 b1 0b 10
        E 64 b1 0b 08
        E 64 81 46 00
        E 64 b1 0c 40
        E 0 b1 0b 38
        E 0 91 23 38
        E 16 b1 0b 30
        E 32 b1 0b 28
        E 32 b1 0b 20
        E 32 b1 0b 18
        E 16 b1 0b 20
        E 16 b1 0b 18
        E 32 b1 0b 10
        E 32 b1 0b 08
        E 32 81 23 00
        E 16 b1 0b 10
        E 0 91 23 10
        E 48 b1 0b 08
        E 48 81 23 00
        E 48 91 23 08
        E 80 81 23 00
        E 48 b1 0b 38
        E 0 91 23 38
        E 16 b1 0b 30
        E 32 b1 0b 28
        E 32 b1 0b 20
        E 32 b1 0b 18
        E 16 b1 0b 10
        E 16 b1 0b 38
        E 0 81 23 00
        E 0 91 21 38
        E 16 b1 0b 30
        E 32 b1 0b 28
        E 32 b1 0b 20
        E 32 b1 0b 18
        E 16 b1 0b 20
        E 16 b1 0b 18
        E 32 b1 0b 10
        E 32 b1 0b 08
        E 32 81 21 00
        E 16 b1 0b 10
        E 0 91 21 10
        E 48 b1 0b 08
        E 48 81 21 00
        E 48 b1 0b 58
        E 0 91 23 58
        E 16 b1 0b 50
        E 32 b1 0b 48
        E 32 b1 0b 40
        E 32 b1 0b 38
        E 32 b1 0b 30
        E 32 b1 0b 28
        E 32 b1 0b 20
        E 32 b1 0b 18
        E 16 b1 0b 10
        E 16 81 23 00
        E 0 91 2d 10
        E 144 b1 0b 18
        E 160 b1 0b 20
        E 144 b1 0b 28
        E 160 b1 0b 30
        E 144 b1 0b 38
        E 48 b1 0c 60
        E 0 b1 0b 30
        E 0 81 2d 00
        E 0 91 21 30
        E 128 81 21 00
        E 0 91 34 30
        E 16 b1 0b 28
        E 32 b1 0b 20
        E 32 b1 0b 18
        E 16 b1 0b 10
        E 32 b1 0b 08
        E 16 b1 0b 30
        E 16 b1 0b 28
        E 32 b1 0b 20
        E 32 b1 0b 18
        E 32 b1 0b 10
        E 16 b1 0b 30
        E 0 81 34 00
        E 0 91 21 30
        E 16 b1 0b 28
        E 32 b1 0b 20
        E 32 b1 0b 18
        E 32 b1 0b 10
        E 16 b1 0b 30
        E 0 81 21 00
        E 0 91 30 30
        E 16 b1 0b 28
        E 16 b1 0b 20
        E 32 b1 0b 18
        E 32 b1 0b 10
        E 32 b1 0b 08
        E 16 b1 0b 30
        E 0 81 30 00
        E 0 91 21 30
        E 16 b1 0b 28
        E 32 b1 0b 20
        E 32 b1 0b 18
        E 32 b1 0b 10
        E 16 b1 0b 30
        E 0 81 21 00
        E 0 91 30 30
        E 16 b1 0b 28
        E 32 b1 0b 20
        E 32 b1 0b 18
        E 16 b1 0b 10
        E 32 b1 0b 08
        E 16 b1 0b 30
        E 16 b1 0b 28
        E 32 b1 0b 20
        E 32 b1 0b 18
        E 32 b1 0b 10
        E 16 b1 0b 30
        E 0 81 30 00
        E 0 91 21 30
        E 16 b1 0b 28
        E 32 b1 0b 20
        E 32 b1 0b 18
        E 32 b1 0b 10
        E 16 b1 0b 30
        E 0 81 21 00
        E 0 91 34 30
        E 16 b1 0b 28
        E 16 b1 0b 20
        E 32 b1 0b 18
        E 32 b1 0b 10
        E 32 b1 0b 08
        E 16 b1 0b 30
        E 16 b1 0b 28
        E 32 b1 0b 20
        E 32 b1 0b 18
        E 32 b1 0b 10
        E 16 b1 0b 30
        E 0 81 34 00
        E 0 91 21 30
        E 16 b1 0b 28
        E 32 b1 0b 20
        E 32 b1 0b 18
        E 32 b1 0b 10
        E 16 b1 0b 08
        E 16 b1 0b 30
        E 0 81 21 00
        E 0 91 30 30
        E 16 b1 0b 28
        E 32 b1 0b 20
        E 32 b1 0b 18
        E 32 b1 0b 10
        E 16 b1 0b 30
        E 0 81 30 00
        E 0 91 21 30
        E 16 b1 0b 28
        E 32 b1 0b 20
        E 32 b1 0b 18
        E 32 b1 0b 10
        E 16 b1 0b 30
        E 0 81 21 00
        E 0 91 30 30
        E 16 b1 0b 28
        E 32 b1 0b 20
        E 16 b1 0b 18
        E 32 b1 0b 10
        E 32 b1 0b 08
        E 16 b1 0b 30
        E 16 b1 0b 28
        E 32 b1 0b 20
        E 32 b1 0b 18
        E 32 b1 0b 10
        E 16 b1 0c 20
        E 0 b1 0b 38
        E 0 81 30 00
        E 0 91 34 38
        E 16 b1 0b 30
        E 32 b1 0b 28
        E 32 b1 0b 20
        E 32 b1 0b 18
        E 16 b1 0b 10
        E 32 b1 0b 08
        E 32 81 34 00
        E 80 b1 0b 38
        E 0 91 34 38
        E 16 b1 0b 30
        E 32 b1 0b 28
        E 32 b1 0b 20
        E 32 b1 0b 18
        E 32 b1 0b 10
        E 32 b1 0b 08
        E 16 81 34 00
        E 80 b1 0b 38
        E 0 91 34 38
        E 16 b1 0b 30
        E 32 b1 0b 28
        E 32 b1 0b 20
        E 32 b1 0b 18
        E 16 b1 0b 38
        E 0 81 34 00
        E 0 91 2d 38
        E 48 b1 0b 30
        E 64 b1 0b 28
        E 48 b1 0b 20
        E 64 b1 0b 18
        E 48 b1 0b 38
        E 0 81 2d 00
        E 0 91 34 38
        E 16 b1 0b 30
        E 32 b1 0b 28
        E 32 b1 0b 20
        E 32 b1 0b 18
        E 32 b1 0b 10
        E 32 b1 0b 08
        E 16 81 34 00
        E 80 b1 0b 38
        E 0 91 34 38
        E 16 b1 0b 30
        E 32 b1 0b 28
        E 32 b1 0b 20
        E 32 b1 0b 18
        E 16 b1 0b 38
        E 16 b1 0b 30
        E 32 b1 0b 28
        E 32 b1 0b 20
        E 32 b1 0b 18
        E 32 b1 0b 10
        E 16 b1 0b 08
        E 32 81 34 00
        E 80 b1 0b 38
        E 0 91 34 38
        E 16 b1 0b 30
        E 32 b1 0b 28
        E 32 b1 0b 20
        E 32 b1 0b 18
        E 16 b1 0b 38
        E 0 81 34 00
        E 0 91 46 38
        E 48 b1 0b 30
        E 48 b1 0b 28
        E 64 b1 0b 20
        E 64 b1 0b 18
        E 64 b1 0b 10
        E 64 b1 0b 08
        E 48 b1 0b 38
        E 0 81 46 00
        E 0 91 34 38
        E 16 b1 0b 30
        E 16 b1 0b 28
        E 32 b1 0b 20
        E 32 b1 0b 18
        E 32 b1 0b 10
        E 32 b1 0b 08
        E 32 81 34 00
        E 80 b1 0b 38
        E 0 91 34 38
        E 16 b1 0b 30
        E 32 b1 0b 28
        E 32 b1 0b 20
        E 16 b1 0b 18
        E 32 b1 0b 10
        E 32 b1 0b 08
        E 32 81 34 00
        E 80 b1 0b 38
        E 0 91 34 38
        E 16 b1 0b 30
        E 32 b1 0b 28
        E 32 b1 0b 20
        E 32 b1 0b 18
        E 16 b1 0b 38
        E 0 81 34 00
        E 0 91 2d 38
        E 32 b1 0b 30
        E 64 b1 0b 28
        E 64 b1 0b 20
        E 64 b1 0b 18
        E 48 b1 0b 38
        E 0 81 2d 00
        E 0 91 34 38
        E 16 b1 0b 30
        E 32 b1 0b 28
        E 32 b1 0b 20
        E 16 b1 0b 18
        E 32 b1 0b 10
        E 32 b1 0b 08
        E 32 81 34 00
        E 80 b1 0b 38
        E 0 91 34 38
        E 16 b1 0b 30
        E 32 b1 0b 28
        E 32 b1 0b 20
        E 32 b1 0b 18
        E 16 b1 0b 38
        E 16 b1 0b 30
        E 32 b1 0b 28
        E 16 b1 0b 20
        E 32 b1 0b 18
        E 32 b1 0b 10
        E 32 b1 0b 08
        E 32 81 34 00
        E 80 b1 0b 38
        E 0 91 34 38
        E 16 b1 0b 30
        E 32 b1 0b 28
        E 32 b1 0b 20
        E 32 b1 0b 18
        E 16 b1 0b 10
        E 16 b1 0b 38
        E 0 81 34 00
        E 0 91 46 38
        E 48 b1 0b 30
        E 64 b1 0b 28
        E 64 b1 0b 20
        E 64 b1 0b 18
        E 64 b1 0b 10
        E 48 b1 0b 08
        E 48 b1 0c 60
        E 0 b1 0b 30
        E 0 81 46 00
        E 0 91 21 30
        E 16 b1 0b 28
        E 64 b1 0b 20
        E 48 b1 0b 30
        E 0 81 21 00
        E 0 91 34 30
        E 16 b1 0b 28
        E 32 b1 0b 20
        E 32 b1 0b 18
        E 32 b1 0b 10
        E 16 b1 0b 08
        E 16 b1 0b 30
        E 16 b1 0b 28
        E 32 b1 0b 20
        E 32 b1 0b 18
        E 32 b1 0b 10
        E 16 b1 0b 30
        E 0 81 34 00
        E 0 91 21 30
        E 16 b1 0b 28
        E 32 b1 0b 20
        E 32 b1 0b 18
        E 32 b1 0b 10
        E 16 b1 0b 30
        E 0 81 21 00
        E 0 91 30 30
        E 16 b1 0b 28
        E 32 b1 0b 20
        E 16 b1 0b 18
        E 32 b1 0b 10
        E 32 b1 0b 08
        E 16 b1 0b 30
        E 0 81 30 00
        E 0 91 21 30
        E 16 b1 0b 28
        E 32 b1 0b 20
        E 32 b1 0b 18
        E 32 b1 0b 10
        E 16 b1 0b 30
        E 0 81 21 00
        E 0 91 30 30
        E 16 b1 0b 28
        E 32 b1 0b 20
        E 32 b1 0b 18
        E 32 b1 0b 10
        E 16 b1 0b 08
        E 16 b1 0b 30
        E 16 b1 0b 28
        E 32 b1 0b 20
        E 32 b1 0b 18
        E 32 b1 0b 10
        E 16 b1 0b 30
        E 0 81 30 00
        E 0 91 21 30
        E 16 b1 0b 28
        E 32 b1 0b 20
        E 32 b1 0b 18
        E 32 b1 0b 10
        E 16 b1 0b 30
        E 0 81 21 00
        E 0 91 34 30
        E 16 b1 0b 28
        E 32 b1 0b 20
        E 32 b1 0b 18
        E 16 b1 0b 10
        E 32 b1 0b 08
        E 16 b1 0b 30
        E 16 b1 0b 28
        E 32 b1 0b 20
        E 32 b1 0b 18
        E 32 b1 0b 10
        E 16 b1 0b 30
        E 0 81 34 00
        E 0 91 21 30
        E 16 b1 0b 28
        E 32 b1 0b 20
        E 32 b1 0b 18
        E 32 b1 0b 10
        E 16 b1 0b 30
        E 0 81 21 00
        E 0 91 30 30
        E 16 b1 0b 28
        E 16 b1 0b 20
        E 32 b1 0b 18
        E 32 b1 0b 10
        E 32 b1 0b 08
        E 16 b1 0b 30
        E 0 81 30 00
        E 0 91 21 30
        E 16 b1 0b 28
        E 32 b1 0b 20
        E 32 b1 0b 18
        E 32 b1 0b 10
        E 16 b1 0b 30
        E 0 81 21 00
        E 0 91 30 30
        E 16 b1 0b 28
        E 32 b1 0b 20
        E 32 b1 0b 18
        E 16 b1 0b 10
        E 32 b1 0b 08
        E 16 b1 0b 30
        E 16 b1 0b 28
        E 32 b1 0b 20
        E 32 b1 0b 18
        E 32 b1 0b 10
        E 16 b1 0c 10
        E 0 b1 0b 38
        E 0 81 30 00
        E 0 91 23 38
        E 16 b1 0b 30
        E 32 b1 0b 28
        E 32 b1 0b 20
        E 32 b1 0b 18
        E 16 b1 0b 20
        E 144 b1 0b 38
        E 0 81 23 00
        E 0 91 33 38
        E 144 b1 0b 30
        E 32 b1 0b 28
        E 32 b1 0b 20
        E 16 b1 0b 18
        E 32 b1 0b 10
        E 16 b1 0b 20
        E 128 b1 0b 38
        E 0 81 33 00
        E 0 91 36 38
        E 16 b1 0b 30
        E 32 b1 0b 28
        E 32 b1 0b 20
        E 32 b1 0b 18
        E 16 b1 0b 20
        E 16 b1 0b 18
        E 16 b1 0b 10
        E 32 b1 0b 08
        E 32 81 36 00
        E 48 b1 0b 38
        E 0 91 36 38
        E 16 b1 0b 30
        E 32 b1 0b 28
        E 32 b1 0b 20
        E 32 b1 0b 18
        E 16 b1 0b 20
        E 16 b1 0b 18
        E 32 b1 0b 10
        E 32 b1 0b 08
        E 32 81 36 00
        E 32 b1 0b 10
        E 0 91 36 10
        E 128 b1 0b 38
        E 272 b1 0b 20
        E 128 b1 0b 38
        E 144 b1 0b 20
        E 128 b1 0b 10
        E 128 b1 0c 20
        E 0 b1 0b 30
        E 0 81 36 00
        E 0 91 34 30
        E 16 b1 0b 28
        E 32 b1 0b 20
        E 16 b1 0b 18
        E 32 b1 0b 10
        E 32 b1 0b 08
        E 32 81 34 00
        E 112 b1 0b 30
        E 0 91 34 30
        E 16 b1 0b 28
        E 32 b1 0b 20
        E 32 b1 0b 18
        E 32 b1 0b 10
        E 16 b1 0b 08
        E 32 81 34 00
        E 112 b1 0b 30
        E 0 91 34 30
        E 16 b1 0b 28
        E 32 b1 0b 20
        E 32 b1 0b 18
        E 32 b1 0b 10
        E 16 b1 0b 30
        E 0 81 34 00
        E 0 91 2d 30
        E 48 b1 0b 28
        E 48 b1 0b 20
        E 64 b1 0b 18
        E 64 b1 0b 10
        E 48 b1 0b 30
        E 0 81 2d 00
        E 0 91 34 30
        E 16 b1 0b 28
        E 32 b1 0b 20
        E 32 b1 0b 18
        E 32 b1 0b 10
        E 32 b1 0b 08
        E 16 81 34 00
        E 112 b1 0b 30
        E 0 91 34 30
        E 16 b1 0b 28
        E 32 b1 0b 20
        E 32 b1 0b 18
        E 32 b1 0b 10
        E 16 b1 0b 30
        E 16 b1 0b 28
        E 32 b1 0b 20
        E 32 b1 0b 18
        E 16 b1 0b 10
        E 32 b1 0b 08
        E 32 81 34 00
        E 112 b1 0b 30
        E 0 91 34 30
        E 16 b1 0b 28
        E 32 b1 0b 20
        E 32 81 34 00
        E 0 ff 2f 00
      >
    >
  >
  <TRACK {64F9C424-AB70-4441-B051-AB4BC0C17DEA}
    NAME "NES - Triangle [ch2]"
    PEAKCOL 16744192
    BEAT -1
    AUTOMODE 0
    PANLAWFLAGS 3
    VOLPAN 1 0 -1 -1 1
    MUTESOLO 0 0 0
    IPHASE 0
    PLAYOFFS 0 1
    ISBUS 0 0
    BUSCOMP 0 0 0 0 0
    SHOWINMIX 1 0.6667 0.5 1 0.5 0 0 0
    FIXEDLANES 9 0 0 0 0
    SEL 0
    REC 0 5088 1 0 0 0 0 0
    VU 2
    TRACKHEIGHT 0 0 0 0 0 0 0
    INQ 0 0 0 0.5 100 0 0 100
    NCHAN 2
    FX 1
    TRACKID {64F9C424-AB70-4441-B051-AB4BC0C17DEA}
    PERF 0
    MIDIOUT -1
    MAINSEND 1 0
    <FXCHAIN
      WNDRECT 24 52 700 560
      SHOW 0
      LASTSEL 0
      DOCKED 0
      BYPASS 0 0 0
      <JS "ReapNES Studio/ReapNES_Console.jsfx" ""
        2 15 1 10 80 10 100 2 1 15 1 5 60 10 80 1 1 0 50 0 0 15 1 0 100 0 0 0.500000 0.500000 0.400000 0.300000 0.800000 2 1 0 0 0 0 - - - - - - - - - - - - - - - - - - - - - - - - - -
      >
      FLOATPOS 0 0 0 0
      FXID {6A85B24E-4EBF-4F68-9BD8-96288A973E22}
      WAK 0 0
    >
    <ITEM
      POSITION 0
      LENGTH 147.6516374
      LOOP 0
      ALLTAKES 0
      FADEIN 0 0 0 0 0 0 0
      FADEOUT 0 0 0 0 0 0 0
      MUTE 0 0
      SEL 0
      IGUID {7AC04423-2011-4039-94A7-52C20C58C2CE}
      <SOURCE MIDI
        HASDATA 1 480 QN
        CCINTERP 32
        E 0 c2 26
        E 8368 b2 0b 7f
        E 0 92 28 7f
        E 144 82 28 00
        E 384 b2 0b 7f
        E 0 92 28 7f
        E 144 82 28 00
        E 0 b2 0b 7f
        E 0 92 26 7f
        E 336 82 26 00
        E 64 b2 0b 7f
        E 0 92 28 7f
        E 160 82 28 00
        E 912 b2 0b 7f
        E 0 92 2d 7f
        E 128 82 2d 00
        E 0 b2 0b 7f
        E 0 92 3c 7f
        E 272 82 3c 00
        E 0 b2 0b 7f
        E 0 92 2d 7f
        E 144 82 2d 00
        E 0 b2 0b 7f
        E 0 92 39 7f
        E 128 82 39 00
        E 0 b2 0b 7f
        E 0 92 2d 7f
        E 128 82 2d 00
        E 0 b2 0b 7f
        E 0 92 39 7f
        E 272 82 39 00
        E 0 b2 0b 7f
        E 0 92 2d 7f
        E 144 82 2d 00
        E 0 b2 0b 7f
        E 0 92 3c 7f
        E 256 82 3c 00
        E 0 b2 0b 7f
        E 0 92 2d 7f
        E 144 82 2d 00
        E 0 b2 0b 7f
        E 0 92 39 7f
        E 128 82 39 00
        E 0 b2 0b 7f
        E 0 92 2d 7f
        E 144 82 2d 00
        E 0 b2 0b 7f
        E 0 92 39 7f
        E 256 82 39 00
        E 4304 b2 0b 7f
        E 0 92 2d 7f
        E 128 82 2d 00
        E 0 b2 0b 7f
        E 0 92 3c 7f
        E 272 82 3c 00
        E 0 b2 0b 7f
        E 0 92 2d 7f
        E 144 82 2d 00
        E 0 b2 0b 7f
        E 0 92 39 7f
        E 128 82 39 00
        E 0 b2 0b 7f
        E 0 92 2d 7f
        E 128 82 2d 00
        E 0 b2 0b 7f
        E 0 92 39 7f
        E 272 82 39 00
        E 0 b2 0b 7f
        E 0 92 2d 7f
        E 128 82 2d 00
        E 0 b2 0b 7f
        E 0 92 3c 7f
        E 272 82 3c 00
        E 0 b2 0b 7f
        E 0 92 2d 7f
        E 144 82 2d 00
        E 0 b2 0b 7f
        E 0 92 39 7f
        E 128 82 39 00
        E 0 b2 0b 7f
        E 0 92 2d 7f
        E 128 82 2d 00
        E 0 b2 0b 7f
        E 0 92 39 7f
        E 272 82 39 00
        E 0 b2 0b 7f
        E 0 92 2f 7f
        E 144 82 2f 00
        E 128 b2 0b 7f
        E 0 92 3b 7f
        E 272 82 3b 00
        E 128 b2 0b 7f
        E 0 92 3f 7f
        E 160 82 3f 00
        E 112 b2 0b 7f
        E 0 92 3f 7f
        E 160 82 3f 00
        E 240 b2 0b 7f
        E 0 92 3f 7f
        E 304 82 3f 00
        E 96 b2 0b 7f
        E 0 92 3f 7f
        E 160 82 3f 00
        E 8912 b2 0b 7f
        E 0 92 34 7f
        E 144 82 34 00
        E 0 b2 0b 7f
        E 0 92 33 7f
        E 48 82 33 00
        E 0 b2 0b 7f
        E 0 92 32 7f
        E 64 82 32 00
        E 0 b2 0b 7f
        E 0 92 31 7f
        E 64 82 31 00
        E 0 b2 0b 7f
        E 0 92 30 7f
        E 96 82 30 00
        E 0 b2 0b 7f
        E 0 92 2f 7f
        E 112 82 2f 00
        E 80 b2 0b 7f
        E 0 92 32 7f
        E 160 82 32 00
        E 96 b2 0b 7f
        E 0 92 34 7f
        E 160 82 34 00
        E 112 b2 0b 7f
        E 0 92 28 7f
        E 304 82 28 00
        E 96 b2 0b 7f
        E 0 92 28 7f
        E 144 82 28 00
        E 0 b2 0b 7f
        E 0 92 2b 7f
        E 128 82 2b 00
        E 0 b2 0b 7f
        E 0 92 2d 7f
        E 144 82 2d 00
        E 0 b2 0b 7f
        E 0 92 2f 7f
        E 128 82 2f 00
        E 64 b2 0b 7f
        E 0 92 34 7f
        E 160 82 34 00
        E 0 b2 0b 7f
        E 0 92 33 7f
        E 32 82 33 00
        E 0 b2 0b 7f
        E 0 92 32 7f
        E 64 82 32 00
        E 0 b2 0b 7f
        E 0 92 31 7f
        E 96 82 31 00
        E 0 b2 0b 7f
        E 0 92 30 7f
        E 64 82 30 00
        E 0 b2 0b 7f
        E 0 92 2f 7f
        E 128 82 2f 00
        E 64 b2 0b 7f
        E 0 92 32 7f
        E 144 82 32 00
        E 128 b2 0b 7f
        E 0 92 34 7f
        E 160 82 34 00
        E 112 b2 0b 7f
        E 0 92 28 7f
        E 288 82 28 00
        E 112 b2 0b 7f
        E 0 92 28 7f
        E 128 82 28 00
        E 0 b2 0b 7f
        E 0 92 2b 7f
        E 144 82 2b 00
        E 0 b2 0b 7f
        E 0 92 2d 7f
        E 128 82 2d 00
        E 0 b2 0b 7f
        E 0 92 2f 7f
        E 128 82 2f 00
        E 80 b2 0b 7f
        E 0 92 34 7f
        E 176 82 34 00
        E 0 b2 0b 7f
        E 0 92 33 7f
        E 32 82 33 00
        E 0 b2 0b 7f
        E 0 92 32 7f
        E 64 82 32 00
        E 0 b2 0b 7f
        E 0 92 31 7f
        E 80 82 31 00
        E 0 b2 0b 7f
        E 0 92 30 7f
        E 64 82 30 00
        E 0 b2 0b 7f
        E 0 92 2f 7f
        E 112 82 2f 00
        E 64 b2 0b 7f
        E 0 92 32 7f
        E 160 82 32 00
        E 112 b2 0b 7f
        E 0 92 34 7f
        E 144 82 34 00
        E 128 b2 0b 7f
        E 0 92 28 7f
        E 288 82 28 00
        E 112 b2 0b 7f
        E 0 92 28 7f
        E 128 82 28 00
        E 0 b2 0b 7f
        E 0 92 2b 7f
        E 144 82 2b 00
        E 0 b2 0b 7f
        E 0 92 2d 7f
        E 128 82 2d 00
        E 0 b2 0b 7f
        E 0 92 2f 7f
        E 144 82 2f 00
        E 64 b2 0b 7f
        E 0 92 34 7f
        E 176 82 34 00
        E 0 b2 0b 7f
        E 0 92 33 7f
        E 32 82 33 00
        E 0 b2 0b 7f
        E 0 92 32 7f
        E 48 82 32 00
        E 0 b2 0b 7f
        E 0 92 31 7f
        E 96 82 31 00
        E 0 b2 0b 7f
        E 0 92 30 7f
        E 64 82 30 00
        E 0 b2 0b 7f
        E 0 92 2f 7f
        E 112 82 2f 00
        E 80 b2 0b 7f
        E 0 92 32 7f
        E 160 82 32 00
        E 96 b2 0b 7f
        E 0 92 34 7f
        E 160 82 34 00
        E 112 b2 0b 7f
        E 0 92 28 7f
        E 288 82 28 00
        E 112 b2 0b 7f
        E 0 92 28 7f
        E 144 82 28 00
        E 0 b2 0b 7f
        E 0 92 2b 7f
        E 128 82 2b 00
        E 0 b2 0b 7f
        E 0 92 2d 7f
        E 144 82 2d 00
        E 0 b2 0b 7f
        E 0 92 2f 7f
        E 128 82 2f 00
        E 64 b2 0b 7f
        E 0 92 2f 7f
        E 160 82 2f 00
        E 0 b2 0b 7f
        E 0 92 2e 7f
        E 64 82 2e 00
        E 0 b2 0b 7f
        E 0 92 2d 7f
        E 96 82 2d 00
        E 0 b2 0b 7f
        E 0 92 2c 7f
        E 96 82 2c 00
        E 0 b2 0b 7f
        E 0 92 2b 7f
        E 128 82 2b 00
        E 64 b2 0b 7f
        E 0 92 2d 7f
        E 160 82 2d 00
        E 112 b2 0b 7f
        E 0 92 2f 7f
        E 160 82 2f 00
        E 96 b2 0b 7f
        E 0 92 23 7f
        E 304 82 23 00
        E 112 b2 0b 7f
        E 0 92 23 7f
        E 128 82 23 00
        E 0 b2 0b 7f
        E 0 92 26 7f
        E 128 82 26 00
        E 0 b2 0b 7f
        E 0 92 28 7f
        E 144 82 28 00
        E 0 b2 0b 7f
        E 0 92 2a 7f
        E 128 82 2a 00
        E 64 b2 0b 7f
        E 0 92 2f 7f
        E 160 82 2f 00
        E 0 b2 0b 7f
        E 0 92 2e 7f
        E 64 82 2e 00
        E 0 b2 0b 7f
        E 0 92 2d 7f
        E 96 82 2d 00
        E 0 b2 0b 7f
        E 0 92 2c 7f
        E 80 82 2c 00
        E 0 b2 0b 7f
        E 0 92 2b 7f
        E 144 82 2b 00
        E 64 b2 0b 7f
        E 0 92 2d 7f
        E 160 82 2d 00
        E 112 b2 0b 7f
        E 0 92 2f 7f
        E 160 82 2f 00
        E 112 b2 0b 7f
        E 0 92 23 7f
        E 288 82 23 00
        E 112 b2 0b 7f
        E 0 92 23 7f
        E 128 82 23 00
        E 0 b2 0b 7f
        E 0 92 26 7f
        E 144 82 26 00
        E 0 b2 0b 7f
        E 0 92 28 7f
        E 128 82 28 00
        E 0 b2 0b 7f
        E 0 92 2a 7f
        E 128 82 2a 00
        E 80 b2 0b 7f
        E 0 92 34 7f
        E 144 82 34 00
        E 0 b2 0b 7f
        E 0 92 33 7f
        E 64 82 33 00
        E 0 b2 0b 7f
        E 0 92 32 7f
        E 64 82 32 00
        E 0 b2 0b 7f
        E 0 92 31 7f
        E 48 82 31 00
        E 0 b2 0b 7f
        E 0 92 30 7f
        E 96 82 30 00
        E 0 b2 0b 7f
        E 0 92 2f 7f
        E 112 82 2f 00
        E 64 b2 0b 7f
        E 0 92 32 7f
        E 144 82 32 00
        E 128 b2 0b 7f
        E 0 92 34 7f
        E 160 82 34 00
        E 112 b2 0b 7f
        E 0 92 28 7f
        E 288 82 28 00
        E 112 b2 0b 7f
        E 0 92 28 7f
        E 144 82 28 00
        E 0 b2 0b 7f
        E 0 92 2b 7f
        E 128 82 2b 00
        E 0 b2 0b 7f
        E 0 92 2d 7f
        E 128 82 2d 00
        E 0 b2 0b 7f
        E 0 92 2f 7f
        E 144 82 2f 00
        E 64 b2 0b 7f
        E 0 92 34 7f
        E 144 82 34 00
        E 0 b2 0b 7f
        E 0 92 33 7f
        E 48 82 33 00
        E 0 b2 0b 7f
        E 0 92 32 7f
        E 64 82 32 00
        E 0 b2 0b 7f
        E 0 92 31 7f
        E 64 82 31 00
        E 0 b2 0b 7f
        E 0 92 30 7f
        E 96 82 30 00
        E 0 b2 0b 7f
        E 0 92 2f 7f
        E 128 82 2f 00
        E 64 b2 0b 7f
        E 0 92 32 7f
        E 144 82 32 00
        E 128 b2 0b 7f
        E 0 92 34 7f
        E 144 82 34 00
        E 112 b2 0b 7f
        E 0 92 28 7f
        E 288 82 28 00
        E 128 b2 0b 7f
        E 0 92 28 7f
        E 128 82 28 00
        E 0 b2 0b 7f
        E 0 92 2b 7f
        E 128 82 2b 00
        E 0 b2 0b 7f
        E 0 92 2d 7f
        E 144 82 2d 00
        E 0 b2 0b 7f
        E 0 92 2f 7f
        E 128 82 2f 00
        E 0 b2 0b 7f
        E 0 92 24 7f
        E 2144 82 24 00
        E 0 b2 0b 7f
        E 0 92 2a 7f
        E 2160 82 2a 00
        E 0 b2 0b 7f
        E 0 92 26 7f
        E 128 82 26 00
        E 0 b2 0b 7f
        E 0 92 28 7f
        E 128 82 28 00
        E 0 b2 0b 7f
        E 0 92 3d 7f
        E 144 82 3d 00
        E 0 b2 0b 7f
        E 0 92 3e 7f
        E 160 82 3e 00
        E 112 b2 0b 7f
        E 0 92 3e 7f
        E 160 82 3e 00
        E 96 b2 0b 7f
        E 0 92 3e 7f
        E 160 82 3e 00
        E 256 b2 0b 7f
        E 0 92 3e 7f
        E 288 82 3e 00
        E 112 b2 0b 7f
        E 0 92 3e 7f
        E 144 82 3e 00
        E 128 b2 0b 7f
        E 0 92 28 7f
        E 128 82 28 00
        E 0 b2 0b 7f
        E 0 92 26 7f
        E 128 82 26 00
        E 0 b2 0b 7f
        E 0 92 28 7f
        E 144 82 28 00
        E 0 b2 0b 7f
        E 0 92 3d 7f
        E 128 82 3d 00
        E 0 b2 0b 7f
        E 0 92 3e 7f
        E 144 82 3e 00
        E 128 b2 0b 7f
        E 0 92 3e 7f
        E 160 82 3e 00
        E 112 b2 0b 7f
        E 0 92 3e 7f
        E 144 82 3e 00
        E 256 b2 0b 7f
        E 0 92 3e 7f
        E 288 82 3e 00
        E 112 b2 0b 7f
        E 0 92 3e 7f
        E 144 82 3e 00
        E 128 b2 0b 7f
        E 0 92 28 7f
        E 128 82 28 00
        E 0 b2 0b 7f
        E 0 92 26 7f
        E 144 82 26 00
        E 0 b2 0b 7f
        E 0 92 28 7f
        E 128 82 28 00
        E 0 b2 0b 7f
        E 0 92 3d 7f
        E 128 82 3d 00
        E 0 b2 0b 7f
        E 0 92 3e 7f
        E 144 82 3e 00
        E 128 b2 0b 7f
        E 0 92 3e 7f
        E 144 82 3e 00
        E 128 b2 0b 7f
        E 0 92 3e 7f
        E 144 82 3e 00
        E 256 b2 0b 7f
        E 0 92 3e 7f
        E 304 82 3e 00
        E 96 b2 0b 7f
        E 0 92 3e 7f
        E 144 82 3e 00
        E 128 b2 0b 7f
        E 0 92 28 7f
        E 144 82 28 00
        E 0 b2 0b 7f
        E 0 92 26 7f
        E 128 82 26 00
        E 0 b2 0b 7f
        E 0 92 28 7f
        E 128 82 28 00
        E 0 b2 0b 7f
        E 0 92 3d 7f
        E 144 82 3d 00
        E 0 b2 0b 7f
        E 0 92 3e 7f
        E 160 82 3e 00
        E 112 b2 0b 7f
        E 0 92 3e 7f
        E 160 82 3e 00
        E 96 b2 0b 7f
        E 0 92 3e 7f
        E 144 82 3e 00
        E 256 b2 0b 7f
        E 0 92 3e 7f
        E 288 82 3e 00
        E 128 b2 0b 7f
        E 0 92 3e 7f
        E 160 82 3e 00
        E 96 b2 0b 7f
        E 0 92 28 7f
        E 144 82 28 00
        E 0 b2 0b 7f
        E 0 92 2d 7f
        E 160 82 2d 00
        E 112 b2 0b 7f
        E 0 92 2d 7f
        E 160 82 2d 00
        E 96 b2 0b 7f
        E 0 92 2d 7f
        E 160 82 2d 00
        E 112 b2 0b 7f
        E 0 92 2d 7f
        E 160 82 2d 00
        E 112 b2 0b 7f
        E 0 92 2d 7f
        E 160 82 2d 00
        E 112 b2 0b 7f
        E 0 92 2d 7f
        E 144 82 2d 00
        E 128 b2 0b 7f
        E 0 92 2d 7f
        E 144 82 2d 00
        E 112 b2 0b 7f
        E 0 92 2d 7f
        E 144 82 2d 00
        E 128 b2 0b 7f
        E 0 92 2f 7f
        E 160 82 2f 00
        E 112 b2 0b 7f
        E 0 92 2f 7f
        E 160 82 2f 00
        E 112 b2 0b 7f
        E 0 92 2f 7f
        E 144 82 2f 00
        E 128 b2 0b 7f
        E 0 92 2f 7f
        E 160 82 2f 00
        E 96 b2 0b 7f
        E 0 92 2f 7f
        E 160 82 2f 00
        E 112 b2 0b 7f
        E 0 92 2f 7f
        E 144 82 2f 00
        E 128 b2 0b 7f
        E 0 92 2f 7f
        E 160 82 2f 00
        E 112 b2 0b 7f
        E 0 92 2f 7f
        E 160 82 2f 00
        E 8704 b2 0b 7f
        E 0 92 28 7f
        E 160 82 28 00
        E 368 b2 0b 7f
        E 0 92 28 7f
        E 144 82 28 00
        E 0 b2 0b 7f
        E 0 92 26 7f
        E 336 82 26 00
        E 64 b2 0b 7f
        E 0 92 28 7f
        E 160 82 28 00
        E 912 b2 0b 7f
        E 0 92 2d 7f
        E 128 82 2d 00
        E 0 b2 0b 7f
        E 0 92 3c 7f
        E 272 82 3c 00
        E 0 b2 0b 7f
        E 0 92 2d 7f
        E 128 82 2d 00
        E 0 b2 0b 7f
        E 0 92 39 7f
        E 144 82 39 00
        E 0 b2 0b 7f
        E 0 92 2d 7f
        E 128 82 2d 00
        E 0 b2 0b 7f
        E 0 92 39 7f
        E 272 82 39 00
        E 0 b2 0b 7f
        E 0 92 2d 7f
        E 128 82 2d 00
        E 0 b2 0b 7f
        E 0 92 3c 7f
        E 272 82 3c 00
        E 0 b2 0b 7f
        E 0 92 2d 7f
        E 144 82 2d 00
        E 0 b2 0b 7f
        E 0 92 39 7f
        E 128 82 39 00
        E 0 b2 0b 7f
        E 0 92 2d 7f
        E 128 82 2d 00
        E 0 b2 0b 7f
        E 0 92 39 7f
        E 272 82 39 00
        E 4304 b2 0b 7f
        E 0 92 2d 7f
        E 128 82 2d 00
        E 0 b2 0b 7f
        E 0 92 3c 7f
        E 272 82 3c 00
        E 0 b2 0b 7f
        E 0 92 2d 7f
        E 128 82 2d 00
        E 0 b2 0b 7f
        E 0 92 39 7f
        E 144 82 39 00
        E 0 b2 0b 7f
        E 0 92 2d 7f
        E 128 82 2d 00
        E 0 b2 0b 7f
        E 0 92 39 7f
        E 272 82 39 00
        E 0 b2 0b 7f
        E 0 92 2d 7f
        E 128 82 2d 00
        E 0 b2 0b 7f
        E 0 92 3c 7f
        E 272 82 3c 00
        E 0 b2 0b 7f
        E 0 92 2d 7f
        E 144 82 2d 00
        E 0 b2 0b 7f
        E 0 92 39 7f
        E 128 82 39 00
        E 0 b2 0b 7f
        E 0 92 2d 7f
        E 128 82 2d 00
        E 0 b2 0b 7f
        E 0 92 39 7f
        E 272 82 39 00
        E 0 b2 0b 7f
        E 0 92 2f 7f
        E 160 82 2f 00
        E 112 b2 0b 7f
        E 0 92 3b 7f
        E 288 82 3b 00
        E 112 b2 0b 7f
        E 0 92 3f 7f
        E 160 82 3f 00
        E 112 b2 0b 7f
        E 0 92 3f 7f
        E 160 82 3f 00
        E 240 b2 0b 7f
        E 0 92 3f 7f
        E 288 82 3f 00
        E 112 b2 0b 7f
        E 0 92 3f 7f
        E 144 82 3f 00
        E 8928 b2 0b 7f
        E 0 92 34 7f
        E 176 82 34 00
        E 0 b2 0b 7f
        E 0 92 33 7f
        E 32 82 33 00
        E 0 b2 0b 7f
        E 0 92 32 7f
        E 48 82 32 00
        E 0 b2 0b 7f
        E 0 92 31 7f
        E 96 82 31 00
        E 0 b2 0b 7f
        E 0 92 30 7f
        E 64 82 30 00
        E 0 b2 0b 7f
        E 0 92 2f 7f
        E 112 82 2f 00
        E 80 b2 0b 7f
        E 0 92 32 7f
        E 144 82 32 00
        E 112 b2 0b 7f
        E 0 92 34 7f
        E 160 82 34 00
        E 112 b2 0b 7f
        E 0 92 28 7f
        E 304 82 28 00
        E 96 b2 0b 7f
        E 0 92 28 7f
        E 144 82 28 00
        E 0 b2 0b 7f
        E 0 92 2b 7f
        E 128 82 2b 00
        E 0 b2 0b 7f
        E 0 92 2d 7f
        E 128 82 2d 00
        E 0 b2 0b 7f
        E 0 92 2f 7f
        E 144 82 2f 00
        E 64 b2 0b 7f
        E 0 92 34 7f
        E 144 82 34 00
        E 0 b2 0b 7f
        E 0 92 33 7f
        E 48 82 33 00
        E 0 b2 0b 7f
        E 0 92 32 7f
        E 64 82 32 00
        E 0 b2 0b 7f
        E 0 92 31 7f
        E 64 82 31 00
        E 0 b2 0b 7f
        E 0 92 30 7f
        E 96 82 30 00
        E 0 b2 0b 7f
        E 0 92 2f 7f
        E 128 82 2f 00
        E 64 b2 0b 7f
        E 0 92 32 7f
        E 144 82 32 00
        E 128 b2 0b 7f
        E 0 92 34 7f
        E 160 82 34 00
        E 96 b2 0b 7f
        E 0 92 28 7f
        E 304 82 28 00
        E 112 b2 0b 7f
        E 0 92 28 7f
        E 128 82 28 00
        E 0 b2 0b 7f
        E 0 92 2b 7f
        E 128 82 2b 00
        E 0 b2 0b 7f
        E 0 92 2d 7f
        E 144 82 2d 00
        E 0 b2 0b 7f
        E 0 92 2f 7f
        E 128 82 2f 00
        E 64 b2 0b 7f
        E 0 92 34 7f
        E 128 82 34 00
        E 0 b2 0b 7f
        E 0 92 33 7f
        E 64 82 33 00
        E 0 b2 0b 7f
        E 0 92 32 7f
        E 64 82 32 00
        E 0 b2 0b 7f
        E 0 92 31 7f
        E 64 82 31 00
        E 0 b2 0b 7f
        E 0 92 30 7f
        E 80 82 30 00
        E 0 b2 0b 7f
        E 0 92 2f 7f
        E 144 82 2f 00
        E 64 b2 0b 7f
        E 0 92 32 7f
        E 144 82 32 00
        E 128 b2 0b 7f
        E 0 92 34 7f
        E 160 82 34 00
        E 112 b2 0b 7f
        E 0 92 28 7f
        E 288 82 28 00
        E 112 b2 0b 7f
        E 0 92 28 7f
        E 128 82 28 00
        E 0 b2 0b 7f
        E 0 92 2b 7f
        E 144 82 2b 00
        E 0 b2 0b 7f
        E 0 92 2d 7f
        E 128 82 2d 00
        E 0 b2 0b 7f
        E 0 92 2f 7f
        E 128 82 2f 00
        E 80 b2 0b 7f
        E 0 92 34 7f
        E 144 82 34 00
        E 0 b2 0b 7f
        E 0 92 33 7f
        E 64 82 33 00
        E 0 b2 0b 7f
        E 0 92 32 7f
        E 64 82 32 00
        E 0 b2 0b 7f
        E 0 92 31 7f
        E 48 82 31 00
        E 0 b2 0b 7f
        E 0 92 30 7f
        E 96 82 30 00
        E 0 b2 0b 7f
        E 0 92 2f 7f
        E 112 82 2f 00
        E 64 b2 0b 7f
        E 0 92 32 7f
        E 144 82 32 00
        E 128 b2 0b 7f
        E 0 92 34 7f
        E 144 82 34 00
        E 128 b2 0b 7f
        E 0 92 28 7f
        E 288 82 28 00
        E 112 b2 0b 7f
        E 0 92 28 7f
        E 144 82 28 00
        E 0 b2 0b 7f
        E 0 92 2b 7f
        E 128 82 2b 00
        E 0 b2 0b 7f
        E 0 92 2d 7f
        E 128 82 2d 00
        E 0 b2 0b 7f
        E 0 92 2f 7f
        E 144 82 2f 00
        E 64 b2 0b 7f
        E 0 92 2f 7f
        E 176 82 2f 00
        E 0 b2 0b 7f
        E 0 92 2e 7f
        E 48 82 2e 00
        E 0 b2 0b 7f
        E 0 92 2d 7f
        E 96 82 2d 00
        E 0 b2 0b 7f
        E 0 92 2c 7f
        E 96 82 2c 00
        E 0 b2 0b 7f
        E 0 92 2b 7f
        E 128 82 2b 00
        E 64 b2 0b 7f
        E 0 92 2d 7f
        E 144 82 2d 00
        E 128 b2 0b 7f
        E 0 92 2f 7f
        E 144 82 2f 00
        E 112 b2 0b 7f
        E 0 92 23 7f
        E 288 82 23 00
        E 112 b2 0b 7f
        E 0 92 23 7f
        E 144 82 23 00
        E 0 b2 0b 7f
        E 0 92 26 7f
        E 128 82 26 00
        E 0 b2 0b 7f
        E 0 92 28 7f
        E 144 82 28 00
        E 0 b2 0b 7f
        E 0 92 2a 7f
        E 128 82 2a 00
        E 64 b2 0b 7f
        E 0 92 2f 7f
        E 160 82 2f 00
        E 0 b2 0b 7f
        E 0 92 2e 7f
        E 64 82 2e 00
        E 0 b2 0b 7f
        E 0 92 2d 7f
        E 96 82 2d 00
        E 0 b2 0b 7f
        E 0 92 2c 7f
        E 96 82 2c 00
        E 0 b2 0b 7f
        E 0 92 2b 7f
        E 128 82 2b 00
        E 64 b2 0b 7f
        E 0 92 2d 7f
        E 144 82 2d 00
        E 128 b2 0b 7f
        E 0 92 2f 7f
        E 160 82 2f 00
        E 112 b2 0b 7f
        E 0 92 23 7f
        E 288 82 23 00
        E 112 b2 0b 7f
        E 0 92 23 7f
        E 128 82 23 00
        E 0 b2 0b 7f
        E 0 92 26 7f
        E 144 82 26 00
        E 0 b2 0b 7f
        E 0 92 28 7f
        E 128 82 28 00
        E 0 b2 0b 7f
        E 0 92 2a 7f
        E 128 82 2a 00
        E 80 b2 0b 7f
        E 0 92 34 7f
        E 144 82 34 00
        E 0 b2 0b 7f
        E 0 92 33 7f
        E 64 82 33 00
        E 0 b2 0b 7f
        E 0 92 32 7f
        E 64 82 32 00
        E 0 b2 0b 7f
        E 0 92 31 7f
        E 48 82 31 00
        E 0 b2 0b 7f
        E 0 92 30 7f
        E 96 82 30 00
        E 0 b2 0b 7f
        E 0 92 2f 7f
        E 112 82 2f 00
        E 64 b2 0b 7f
        E 0 92 32 7f
        E 144 82 32 00
        E 128 b2 0b 7f
        E 0 92 34 7f
        E 160 82 34 00
        E 112 b2 0b 7f
        E 0 92 28 7f
        E 288 82 28 00
        E 112 b2 0b 7f
        E 0 92 28 7f
        E 128 82 28 00
        E 0 b2 0b 7f
        E 0 92 2b 7f
        E 144 82 2b 00
        E 0 b2 0b 7f
        E 0 92 2d 7f
        E 128 82 2d 00
        E 0 b2 0b 7f
        E 0 92 2f 7f
        E 144 82 2f 00
        E 64 b2 0b 7f
        E 0 92 34 7f
        E 144 82 34 00
        E 0 b2 0b 7f
        E 0 92 33 7f
        E 64 82 33 00
        E 0 b2 0b 7f
        E 0 92 32 7f
        E 48 82 32 00
        E 0 b2 0b 7f
        E 0 92 31 7f
        E 64 82 31 00
        E 0 b2 0b 7f
        E 0 92 30 7f
        E 96 82 30 00
        E 0 b2 0b 7f
        E 0 92 2f 7f
        E 112 82 2f 00
        E 80 b2 0b 7f
        E 0 92 32 7f
        E 160 82 32 00
        E 96 b2 0b 7f
        E 0 92 34 7f
        E 160 82 34 00
        E 112 b2 0b 7f
        E 0 92 28 7f
        E 304 82 28 00
        E 96 b2 0b 7f
        E 0 92 28 7f
        E 144 82 28 00
        E 0 b2 0b 7f
        E 0 92 2b 7f
        E 128 82 2b 00
        E 0 b2 0b 7f
        E 0 92 2d 7f
        E 144 82 2d 00
        E 0 b2 0b 7f
        E 0 92 2f 7f
        E 128 82 2f 00
        E 0 b2 0b 7f
        E 0 92 24 7f
        E 2144 82 24 00
        E 0 b2 0b 7f
        E 0 92 2a 7f
        E 2160 82 2a 00
        E 0 b2 0b 7f
        E 0 92 26 7f
        E 128 82 26 00
        E 0 b2 0b 7f
        E 0 92 28 7f
        E 128 82 28 00
        E 0 b2 0b 7f
        E 0 92 3d 7f
        E 144 82 3d 00
        E 0 b2 0b 7f
        E 0 92 3e 7f
        E 160 82 3e 00
        E 96 b2 0b 7f
        E 0 92 3e 7f
        E 144 82 3e 00
        E 128 b2 0b 7f
        E 0 92 3e 7f
        E 160 82 3e 00
        E 240 b2 0b 7f
        E 0 92 3e 7f
        E 288 82 3e 00
        E 128 b2 0b 7f
        E 0 92 3e 7f
        E 144 82 3e 00
        E 112 b2 0b 7f
        E 0 92 28 7f
        E 144 82 28 00
        E 0 b2 0b 7f
        E 0 92 26 7f
        E 128 82 26 00
        E 0 b2 0b 7f
        E 0 92 28 7f
        E 144 82 28 00
        E 0 b2 0b 7f
        E 0 92 3d 7f
        E 128 82 3d 00
        E 0 b2 0b 7f
        E 0 92 3e 7f
        E 160 82 3e 00
        E 112 b2 0b 7f
        E 0 92 3e 7f
        E 160 82 3e 00
        E 112 b2 0b 7f
        E 0 92 3e 7f
        E 160 82 3e 00
        E 240 b2 0b 7f
        E 0 92 3e 7f
        E 288 82 3e 00
        E 112 b2 0b 7f
        E 0 92 3e 7f
        E 160 82 3e 00
        E 112 b2 0b 7f
        E 0 92 28 7f
        E 128 82 28 00
        E 0 b2 0b 7f
        E 0 92 26 7f
        E 144 82 26 00
        E 0 b2 0b 7f
        E 0 92 28 7f
        E 128 82 28 00
        E 0 b2 0b 7f
        E 0 92 3d 7f
        E 128 82 3d 00
        E 0 b2 0b 7f
        E 0 92 3e 7f
        E 160 82 3e 00
        E 112 b2 0b 7f
        E 0 92 3e 7f
        E 160 82 3e 00
        E 112 b2 0b 7f
        E 0 92 3e 7f
        E 160 82 3e 00
        E 240 b2 0b 7f
        E 0 92 3e 7f
        E 288 82 3e 00
        E 112 b2 0b 7f
        E 0 92 3e 7f
        E 160 82 3e 00
        E 112 b2 0b 7f
        E 0 92 28 7f
        E 128 82 28 00
        E 0 b2 0b 7f
        E 0 92 26 7f
        E 144 82 26 00
        E 0 b2 0b 7f
        E 0 92 28 7f
        E 128 82 28 00
        E 0 b2 0b 7f
        E 0 92 3d 7f
        E 144 82 3d 00
        E 0 b2 0b 7f
        E 0 92 3e 7f
        E 144 82 3e 00
        E 112 b2 0b 7f
        E 0 92 3e 7f
        E 144 82 3e 00
        E 128 b2 0b 7f
        E 0 92 3e 7f
        E 160 82 3e 00
        E 240 b2 0b 7f
        E 0 92 3e 7f
        E 304 82 3e 00
        E 112 b2 0b 7f
        E 0 92 3e 7f
        E 160 82 3e 00
        E 96 b2 0b 7f
        E 0 92 28 7f
        E 144 82 28 00
        E 0 b2 0b 7f
        E 0 92 2d 7f
        E 160 82 2d 00
        E 96 b2 0b 7f
        E 0 92 2d 7f
        E 144 82 2d 00
        E 128 b2 0b 7f
        E 0 92 2d 7f
        E 160 82 2d 00
        E 112 b2 0b 7f
        E 0 92 2d 7f
        E 144 82 2d 00
        E 128 b2 0b 7f
        E 0 92 2d 7f
        E 144 82 2d 00
        E 128 b2 0b 7f
        E 0 92 2d 7f
        E 160 82 2d 00
        E 96 b2 0b 7f
        E 0 92 2d 7f
        E 144 82 2d 00
        E 128 b2 0b 7f
        E 0 92 2d 7f
        E 160 82 2d 00
        E 112 b2 0b 7f
        E 0 92 2f 7f
        E 160 82 2f 00
        E 112 b2 0b 7f
        E 0 92 2f 7f
        E 160 82 2f 00
        E 112 b2 0b 7f
        E 0 92 2f 7f
        E 160 82 2f 00
        E 96 b2 0b 7f
        E 0 92 2f 7f
        E 160 82 2f 00
        E 112 b2 0b 7f
        E 0 92 2f 7f
        E 160 82 2f 00
        E 112 b2 0b 7f
        E 0 92 2f 7f
        E 144 82 2f 00
        E 128 b2 0b 7f
        E 0 92 2f 7f
        E 144 82 2f 00
        E 128 b2 0b 7f
        E 0 92 2f 7f
        E 160 82 2f 00
        E 8688 b2 0b 7f
        E 0 92 28 7f
        E 160 82 28 00
        E 384 b2 0b 7f
        E 0 92 28 7f
        E 128 82 28 00
        E 0 b2 0b 7f
        E 0 92 26 7f
        E 336 82 26 00
        E 80 b2 0b 7f
        E 0 92 28 7f
        E 160 82 28 00
        E 912 b2 0b 7f
        E 0 92 2d 7f
        E 128 82 2d 00
        E 0 b2 0b 7f
        E 0 92 3c 7f
        E 272 82 3c 00
        E 0 b2 0b 7f
        E 0 92 2d 7f
        E 128 82 2d 00
        E 0 b2 0b 7f
        E 0 92 39 7f
        E 144 82 39 00
        E 0 b2 0b 7f
        E 0 92 2d 7f
        E 128 82 2d 00
        E 0 b2 0b 7f
        E 0 92 39 7f
        E 272 82 39 00
        E 0 b2 0b 7f
        E 0 92 2d 7f
        E 128 82 2d 00
        E 0 b2 0b 7f
        E 0 92 3c 7f
        E 272 82 3c 00
        E 0 b2 0b 7f
        E 0 92 2d 7f
        E 128 82 2d 00
        E 0 b2 0b 7f
        E 0 92 39 7f
        E 144 82 39 00
        E 0 b2 0b 7f
        E 0 92 2d 7f
        E 128 82 2d 00
        E 0 b2 0b 7f
        E 0 92 39 7f
        E 272 82 39 00
        E 4304 b2 0b 7f
        E 0 92 2d 7f
        E 128 82 2d 00
        E 0 b2 0b 7f
        E 0 92 3c 7f
        E 272 82 3c 00
        E 0 b2 0b 7f
        E 0 92 2d 7f
        E 128 82 2d 00
        E 0 b2 0b 7f
        E 0 92 39 7f
        E 144 82 39 00
        E 0 b2 0b 7f
        E 0 92 2d 7f
        E 128 82 2d 00
        E 0 b2 0b 7f
        E 0 92 39 7f
        E 272 82 39 00
        E 0 b2 0b 7f
        E 0 92 2d 7f
        E 128 82 2d 00
        E 0 b2 0b 7f
        E 0 92 3c 7f
        E 272 82 3c 00
        E 0 b2 0b 7f
        E 0 92 2d 7f
        E 128 82 2d 00
        E 0 b2 0b 7f
        E 0 92 39 7f
        E 144 82 39 00
        E 0 b2 0b 7f
        E 0 92 2d 7f
        E 128 82 2d 00
        E 0 b2 0b 7f
        E 0 92 39 7f
        E 272 82 39 00
        E 0 b2 0b 7f
        E 0 92 2f 7f
        E 144 82 2f 00
        E 128 b2 0b 7f
        E 0 92 3b 7f
        E 272 82 3b 00
        E 128 b2 0b 7f
        E 0 92 3f 7f
        E 160 82 3f 00
        E 112 b2 0b 7f
        E 0 92 3f 7f
        E 160 82 3f 00
        E 240 b2 0b 7f
        E 0 92 3f 7f
        E 272 82 3f 00
        E 128 b2 0b 7f
        E 0 92 3f 7f
        E 144 82 3f 00
        E 0 ff 2f 00
      >
    >
  >
  <TRACK {14A16E4F-98AA-4DA9-B5B0-C357168C2FAB}
    NAME "NES - Noise / Drums [ch3]"
    PEAKCOL 11184810
    BEAT -1
    AUTOMODE 0
    PANLAWFLAGS 3
    VOLPAN 1 0 -1 -1 1
    MUTESOLO 0 0 0
    IPHASE 0
    PLAYOFFS 0 1
    ISBUS 0 0
    BUSCOMP 0 0 0 0 0
    SHOWINMIX 1 0.6667 0.5 1 0.5 0 0 0
    FIXEDLANES 9 0 0 0 0
    SEL 0
    REC 0 5088 1 0 0 0 0 0
    VU 2
    TRACKHEIGHT 0 0 0 0 0 0 0
    INQ 0 0 0 0.5 100 0 0 100
    NCHAN 2
    FX 1
    TRACKID {14A16E4F-98AA-4DA9-B5B0-C357168C2FAB}
    PERF 0
    MIDIOUT -1
    MAINSEND 1 0
    <FXCHAIN
      WNDRECT 24 52 700 560
      SHOW 0
      LASTSEL 0
      DOCKED 0
      BYPASS 0 0 0
      <JS "ReapNES Studio/ReapNES_Console.jsfx" ""
        2 15 1 10 80 10 100 2 1 15 1 5 60 10 80 1 1 0 50 0 0 15 1 0 100 0 0 0.500000 0.500000 0.400000 0.300000 0.800000 3 1 0 0 0 0 - - - - - - - - - - - - - - - - - - - - - - - - - -
      >
      FLOATPOS 0 0 0 0
      FXID {2CB9F125-73FC-47A8-A1C2-CA8EA6D2EDBB}
      WAK 0 0
    >
    <ITEM
      POSITION 0
      LENGTH 147.6516374
      LOOP 0
      ALLTAKES 0
      FADEIN 0 0 0 0 0 0 0
      FADEOUT 0 0 0 0 0 0 0
      MUTE 0 0
      SEL 0
      IGUID {94FF4452-B54C-4AC4-8B74-DA74E0CF8349}
      <SOURCE MIDI
        HASDATA 1 480 QN
        CCINTERP 32
        E 8400 93 24 38
        E 208 83 24 00
        E 16 83 24 00
        E 16 83 24 00
        E 16 83 24 00
        E 16 83 24 00
        E 16 83 24 00
        E 16 83 24 00
        E 16 83 24 00
        E 16 83 24 00
        E 16 83 24 00
        E 16 83 24 00
        E 16 83 24 00
        E 16 83 24 00
        E 16 83 24 00
        E 16 83 24 00
        E 16 83 24 00
        E 16 83 24 00
        E 16 83 24 00
        E 16 83 24 00
        E 16 83 24 00
        E 16 83 24 00
        E 16 83 24 00
        E 16 83 24 00
        E 16 83 24 00
        E 16 83 24 00
        E 16 83 24 00
        E 16 83 24 00
        E 16 83 24 00
        E 16 83 24 00
        E 16 83 24 00
        E 16 83 24 00
        E 16 83 24 00
        E 16 83 24 00
        E 16 83 24 00
        E 16 83 24 00
        E 16 83 24 00
        E 16 83 24 00
        E 16 83 24 00
        E 16 83 24 00
        E 16 83 24 00
        E 16 83 24 00
        E 16 83 24 00
        E 16 83 24 00
        E 16 83 24 00
        E 16 83 24 00
        E 16 83 24 00
        E 16 83 24 00
        E 16 83 24 00
        E 16 83 24 00
        E 16 83 24 00
        E 16 83 24 00
        E 16 83 24 00
        E 16 83 24 00
        E 16 83 24 00
        E 16 83 24 00
        E 16 83 24 00
        E 16 83 24 00
        E 16 83 24 00
        E 16 83 24 00
        E 16 83 24 00
        E 16 83 24 00
        E 16 83 24 00
        E 16 83 24 00
        E 16 83 24 00
        E 16 83 24 00
        E 16 83 24 00
        E 16 83 24 00
        E 16 83 24 00
        E 16 83 24 00
        E 16 83 24 00
        E 16 83 24 00
        E 16 83 24 00
        E 16 83 24 00
        E 16 83 24 00
        E 16 83 24 00
        E 16 83 24 00
        E 16 83 24 00
        E 16 83 24 00
        E 16 83 24 00
        E 16 83 24 00
        E 16 83 24 00
        E 16 83 24 00
        E 16 83 24 00
        E 16 83 24 00
        E 16 83 24 00
        E 16 83 24 00
        E 16 83 24 00
        E 16 83 24 00
        E 16 83 24 00
        E 16 83 24 00
        E 16 83 24 00
        E 16 83 24 00
        E 16 83 24 00
        E 16 83 24 00
        E 16 83 24 00
        E 16 83 24 00
        E 16 83 24 00
        E 16 83 24 00
        E 16 83 24 00
        E 16 83 24 00
        E 16 83 24 00
        E 16 83 24 00
        E 16 83 24 00
        E 16 83 24 00
        E 16 83 24 00
        E 16 83 24 00
        E 16 83 24 00
        E 16 83 24 00
        E 16 83 24 00
        E 16 83 24 00
        E 16 83 24 00
        E 16 83 24 00
        E 16 83 24 00
        E 16 83 24 00
        E 16 83 24 00
        E 16 83 24 00
        E 16 83 24 00
        E 16 83 24 00
        E 16 83 24 00
        E 16 83 24 00
        E 16 83 24 00
        E 16 83 24 00
        E 16 83 24 00
        E 16 83 24 00
        E 16 83 24 00
        E 16 83 24 00
        E 16 83 24 00
        E 16 83 24 00
        E 16 83 24 00
        E 16 83 24 00
        E 16 83 24 00
        E 16 83 24 00
        E 16 83 24 00
        E 16 83 24 00
        E 80 93 2a 38
        E 176 83 2a 00
        E 16 83 2a 00
        E 80 93 26 38
        E 176 83 26 00
        E 16 83 26 00
        E 16 83 26 00
        E 64 93 2a 38
        E 176 83 2a 00
        E 16 83 2a 00
        E 16 83 2a 00
        E 48 93 24 38
        E 160 83 24 00
        E 16 83 24 00
        E 16 83 24 00
        E 80 93 2a 38
        E 160 83 2a 00
        E 16 83 2a 00
        E 16 83 2a 00
        E 80 93 26 38
        E 176 83 26 00
        E 16 83 26 00
        E 16 83 26 00
        E 64 93 2a 38
        E 176 83 2a 00
        E 16 83 2a 00
        E 16 83 2a 00
        E 48 93 24 38
        E 160 83 24 00
        E 16 83 24 00
        E 16 83 24 00
        E 80 93 2a 38
        E 160 83 2a 00
        E 16 83 2a 00
        E 16 83 2a 00
        E 80 93 26 38
        E 160 83 26 00
        E 16 83 26 00
        E 16 83 26 00
        E 80 93 2a 38
        E 176 83 2a 00
        E 16 83 2a 00
        E 16 83 2a 00
        E 64 93 24 38
        E 176 83 24 00
        E 16 83 24 00
        E 16 83 24 00
        E 48 93 2a 38
        E 160 83 2a 00
        E 16 83 2a 00
        E 16 83 2a 00
        E 80 93 26 38
        E 160 83 26 00
        E 16 83 26 00
        E 16 83 26 00
        E 80 93 2a 38
        E 176 83 2a 00
        E 16 83 2a 00
        E 80 93 24 38
        E 176 83 24 00
        E 16 83 24 00
        E 16 83 24 00
        E 64 93 2a 38
        E 176 83 2a 00
        E 16 83 2a 00
        E 16 83 2a 00
        E 48 93 26 38
        E 160 83 26 00
        E 16 83 26 00
        E 16 83 26 00
        E 80 93 2a 38
        E 160 83 2a 00
        E 16 83 2a 00
        E 16 83 2a 00
        E 80 93 24 38
        E 176 83 24 00
        E 16 83 24 00
        E 16 83 24 00
        E 64 93 2a 38
        E 176 83 2a 00
        E 16 83 2a 00
        E 16 83 2a 00
        E 48 93 26 38
        E 160 83 26 00
        E 16 83 26 00
        E 16 83 26 00
        E 80 93 2a 38
        E 160 83 2a 00
        E 16 83 2a 00
        E 16 83 2a 00
        E 80 93 24 38
        E 160 83 24 00
        E 16 83 24 00
        E 16 83 24 00
        E 80 93 2a 38
        E 176 83 2a 00
        E 16 83 2a 00
        E 16 83 2a 00
        E 64 93 26 38
        E 176 83 26 00
        E 16 83 26 00
        E 16 83 26 00
        E 48 93 2a 38
        E 160 83 2a 00
        E 16 83 2a 00
        E 16 83 2a 00
        E 80 93 24 38
        E 160 83 24 00
        E 16 83 24 00
        E 16 83 24 00
        E 80 93 2a 38
        E 176 83 2a 00
        E 16 83 2a 00
        E 80 93 26 38
        E 176 83 26 00
        E 16 83 26 00
        E 16 83 26 00
        E 64 93 2a 38
        E 176 83 2a 00
        E 16 83 2a 00
        E 16 83 2a 00
        E 48 93 24 58
        E 208 83 24 00
        E 16 83 24 00
        E 16 83 24 00
        E 16 83 24 00
        E 16 83 24 00
        E 16 83 24 00
        E 16 83 24 00
        E 16 83 24 00
        E 16 83 24 00
        E 16 83 24 00
        E 16 83 24 00
        E 16 83 24 00
        E 16 83 24 00
        E 16 83 24 00
        E 16 83 24 00
        E 16 83 24 00
        E 16 83 24 00
        E 16 83 24 00
        E 16 83 24 00
        E 16 83 24 00
        E 16 83 24 00
        E 16 83 24 00
        E 16 83 24 00
        E 16 83 24 00
        E 16 83 24 00
        E 16 83 24 00
        E 16 83 24 00
        E 16 83 24 00
        E 16 83 24 00
        E 16 83 24 00
        E 16 83 24 00
        E 16 83 24 00
        E 16 83 24 00
        E 16 83 24 00
        E 16 83 24 00
        E 16 83 24 00
        E 16 83 24 00
        E 16 83 24 00
        E 16 83 24 00
        E 16 83 24 00
        E 16 83 24 00
        E 16 83 24 00
        E 16 83 24 00
        E 16 83 24 00
        E 16 83 24 00
        E 16 83 24 00
        E 16 83 24 00
        E 16 83 24 00
        E 16 83 24 00
        E 16 83 24 00
        E 16 83 24 00
        E 16 83 24 00
        E 16 83 24 00
        E 16 83 24 00
        E 16 83 24 00
        E 16 83 24 00
        E 16 83 24 00
        E 16 83 24 00
        E 16 83 24 00
        E 16 83 24 00
        E 16 83 24 00
        E 16 83 24 00
        E 16 83 24 00
        E 16 83 24 00
        E 16 83 24 00
        E 16 83 24 00
        E 16 83 24 00
        E 16 83 24 00
        E 16 83 24 00
        E 16 83 24 00
        E 16 83 24 00
        E 16 83 24 00
        E 16 83 24 00
        E 16 83 24 00
        E 16 83 24 00
        E 16 83 24 00
        E 16 83 24 00
        E 16 83 24 00
        E 16 83 24 00
        E 16 83 24 00
        E 16 83 24 00
        E 16 83 24 00
        E 16 83 24 00
        E 16 83 24 00
        E 16 83 24 00
        E 16 83 24 00
        E 16 83 24 00
        E 16 83 24 00
        E 16 83 24 00
        E 16 83 24 00
        E 16 83 24 00
        E 16 83 24 00
        E 16 83 24 00
        E 16 83 24 00
        E 16 83 24 00
        E 16 83 24 00
        E 16 83 24 00
        E 16 83 24 00
        E 16 83 24 00
        E 16 83 24 00
        E 16 83 24 00
        E 16 83 24 00
        E 16 83 24 00
        E 16 83 24 00
        E 16 83 24 00
        E 16 83 24 00
        E 16 83 24 00
        E 16 83 24 00
        E 16 83 24 00
        E 16 83 24 00
        E 16 83 24 00
        E 16 83 24 00
        E 16 83 24 00
        E 16 83 24 00
        E 16 83 24 00
        E 16 83 24 00
        E 16 83 24 00
        E 16 83 24 00
        E 16 83 24 00
        E 16 83 24 00
        E 16 83 24 00
        E 16 83 24 00
        E 16 83 24 00
        E 16 83 24 00
        E 16 83 24 00
        E 16 83 24 00
        E 16 83 24 00
        E 16 83 24 00
        E 16 83 24 00
        E 16 83 24 00
        E 16 83 24 00
        E 16 83 24 00
        E 16 83 24 00
        E 16 83 24 00
        E 16 83 24 00
        E 16 83 24 00
        E 16 83 24 00
        E 16 83 24 00
        E 16 83 24 00
        E 16 83 24 00
        E 16 83 24 00
        E 16 83 24 00
        E 16 83 24 00
        E 16 83 24 00
        E 16 83 24 00
        E 16 83 24 00
        E 16 83 24 00
        E 16 83 24 00
        E 16 83 24 00
        E 16 83 24 00
        E 16 83 24 00
        E 16 83 24 00
        E 16 83 24 00
        E 16 83 24 00
        E 16 83 24 00
        E 16 83 24 00
        E 16 83 24 00
        E 16 83 24 00
        E 16 83 24 00
        E 16 83 24 00
        E 16 83 24 00
        E 16 83 24 00
        E 16 83 24 00
        E 16 83 24 00
        E 16 83 24 00
        E 16 83 24 00
        E 16 83 24 00
        E 16 83 24 00
        E 16 83 24 00
        E 16 83 24 00
        E 16 83 24 00
        E 16 83 24 00
        E 16 83 24 00
        E 16 83 24 00
        E 16 83 24 00
        E 16 83 24 00
        E 16 83 24 00
        E 16 83 24 00
        E 16 83 24 00
        E 16 83 24 00
        E 16 83 24 00
        E 16 83 24 00
        E 16 83 24 00
        E 16 83 24 00
        E 16 83 24 00
        E 16 83 24 00
        E 16 83 24 00
        E 16 83 24 00
        E 16 83 24 00
        E 16 83 24 00
        E 16 83 24 00
        E 16 83 24 00
        E 16 83 24 00
        E 16 83 24 00
        E 16 83 24 00
        E 16 83 24 00
        E 16 83 24 00
        E 16 83 24 00
        E 16 83 24 00
        E 16 83 24 00
        E 16 83 24 00
        E 16 83 24 00
        E 16 83 24 00
        E 16 83 24 00
        E 16 83 24 00
        E 16 83 24 00
        E 16 83 24 00
        E 16 83 24 00
        E 16 83 24 00
        E 16 83 24 00
        E 16 83 24 00
        E 16 83 24 00
        E 16 83 24 00
        E 16 83 24 00
        E 16 83 24 00
        E 16 83 24 00
        E 16 83 24 00
        E 16 83 24 00
        E 16 83 24 00
        E 16 83 24 00
        E 16 83 24 00
        E 16 83 24 00
        E 16 83 24 00
        E 16 83 24 00
        E 16 83 24 00
        E 16 83 24 00
        E 16 83 24 00
        E 16 83 24 00
        E 16 83 24 00
        E 16 83 24 00
        E 16 83 24 00
        E 16 83 24 00
        E 16 83 24 00
        E 16 83 24 00
        E 16 83 24 00
        E 16 83 24 00
        E 16 83 24 00
        E 16 83 24 00
        E 16 83 24 00
        E 16 83 24 00
        E 16 83 24 00
        E 16 83 24 00
        E 16 83 24 00
        E 16 83 24 00
        E 16 83 24 00
        E 16 83 24 00
        E 16 83 24 00
        E 16 83 24 00
        E 16 83 24 00
        E 16 83 24 00
        E 16 83 24 00
        E 16 83 24 00
        E 16 83 24 00
        E 16 83 24 00
        E 16 83 24 00
        E 16 83 24 00
        E 16 83 24 00
        E 16 83 24 00
        E 16 83 24 00
        E 16 83 24 00
        E 16 83 24 00
        E 16 83 24 00
        E 16 83 24 00
        E 16 83 24 00
        E 16 83 24 00
        E 16 83 24 00
        E 16 83 24 00
        E 16 83 24 00
        E 16 83 24 00
        E 16 83 24 00
        E 16 83 24 00
        E 16 83 24 00
        E 16 83 24 00
        E 16 83 24 00
        E 16 83 24 00
        E 16 83 24 00
        E 16 83 24 00
        E 16 83 24 00
        E 16 83 24 00
        E 16 83 24 00
        E 16 83 24 00
        E 16 83 24 00
        E 16 83 24 00
        E 16 83 24 00
        E 16 83 24 00
        E 16 83 24 00
        E 16 83 24 00
        E 16 83 24 00
        E 16 83 24 00
        E 16 83 24 00
        E 16 83 24 00
        E 16 83 24 00
        E 16 83 24 00
        E 16 83 24 00
        E 16 83 24 00
        E 16 83 24 00
        E 16 83 24 00
        E 16 83 24 00
        E 16 83 24 00
        E 16 83 24 00
        E 16 83 24 00
        E 16 83 24 00
        E 16 83 24 00
        E 16 83 24 00
        E 16 83 24 00
        E 16 83 24 00
        E 16 83 24 00
        E 16 83 24 00
        E 16 83 24 00
        E 16 83 24 00
        E 16 83 24 00
        E 16 83 24 00
        E 16 83 24 00
        E 16 83 24 00
        E 16 83 24 00
        E 16 83 24 00
        E 16 83 24 00
        E 16 83 24 00
        E 16 83 24 00
        E 16 83 24 00
        E 16 83 24 00
        E 16 83 24 00
        E 16 83 24 00
        E 16 83 24 00
        E 16 83 24 00
        E 16 83 24 00
        E 16 83 24 00
        E 16 83 24 00
        E 16 83 24 00
        E 16 83 24 00
        E 16 83 24 00
        E 16 83 24 00
        E 16 83 24 00
        E 16 83 24 00
        E 16 83 24 00
        E 16 83 24 00
        E 16 83 24 00
        E 16 83 24 00
        E 16 83 24 00
        E 16 83 24 00
        E 16 83 24 00
        E 16 83 24 00
        E 16 83 24 00
        E 16 83 24 00
        E 16 83 24 00
        E 16 83 24 00
        E 16 83 24 00
        E 16 83 24 00
        E 16 83 24 00
        E 16 83 24 00
        E 16 83 24 00
        E 16 83 24 00
        E 16 83 24 00
        E 16 83 24 00
        E 16 83 24 00
        E 16 83 24 00
        E 16 83 24 00
        E 16 83 24 00
        E 16 83 24 00
        E 16 83 24 00
        E 16 83 24 00
        E 16 83 24 00
        E 16 83 24 00
        E 16 83 24 00
        E 16 83 24 00
        E 16 83 24 00
        E 16 83 24 00
        E 16 83 24 00
        E 16 83 24 00
        E 16 83 24 00
        E 16 83 24 00
        E 16 83 24 00
        E 16 83 24 00
        E 16 83 24 00
        E 16 83 24 00
        E 16 83 24 00
        E 16 83 24 00
        E 16 83 24 00
        E 16 83 24 00
        E 16 83 24 00
        E 16 83 24 00
        E 16 83 24 00
        E 16 83 24 00
        E 16 83 24 00
        E 16 83 24 00
        E 16 83 24 00
        E 16 83 24 00
        E 16 83 24 00
        E 16 83 24 00
        E 16 83 24 00
        E 16 83 24 00
        E 16 83 24 00
        E 16 83 24 00
        E 16 83 24 00
        E 16 83 24 00
        E 16 83 24 00
        E 16 83 24 00
        E 16 83 24 00
        E 16 83 24 00
        E 16 83 24 00
        E 16 83 24 00
        E 16 83 24 00
        E 16 83 24 00
        E 16 83 24 00
        E 16 83 24 00
        E 16 83 24 00
        E 16 83 24 00
        E 16 83 24 00
        E 16 83 24 00
        E 16 83 24 00
        E 16 83 24 00
        E 16 83 24 00
        E 16 83 24 00
        E 16 83 24 00
        E 16 83 24 00
        E 16 83 24 00
        E 16 83 24 00
        E 16 83 24 00
        E 16 83 24 00
        E 16 83 24 00
        E 16 83 24 00
        E 16 83 24 00
        E 16 83 24 00
        E 16 83 24 00
        E 16 83 24 00
        E 16 83 24 00
        E 16 83 24 00
        E 16 83 24 00
        E 16 83 24 00
        E 16 83 24 00
        E 16 83 24 00
        E 16 83 24 00
        E 16 83 24 00
        E 16 83 24 00
        E 16 83 24 00
        E 16 83 24 00
        E 16 83 24 00
        E 16 83 24 00
        E 16 83 24 00
        E 16 83 24 00
        E 16 83 24 00
        E 16 83 24 00
        E 16 83 24 00
        E 16 83 24 00
        E 16 83 24 00
        E 16 83 24 00
        E 16 83 24 00
        E 16 83 24 00
        E 16 83 24 00
        E 16 83 24 00
        E 16 83 24 00
        E 16 83 24 00
        E 16 83 24 00
        E 16 83 24 00
        E 16 83 24 00
        E 16 83 24 00
        E 16 83 24 00
        E 16 83 24 00
        E 16 83 24 00
        E 16 83 24 00
        E 16 83 24 00
        E 16 83 24 00
        E 16 83 24 00
        E 16 83 24 00
        E 16 83 24 00
        E 16 83 24 00
        E 16 83 24 00
        E 16 83 24 00
        E 16 83 24 00
        E 16 83 24 00
        E 16 83 24 00
        E 16 83 24 00
        E 16 83 24 00
        E 16 83 24 00
        E 16 83 24 00
        E 16 83 24 00
        E 16 83 24 00
        E 16 83 24 00
        E 16 83 24 00
        E 16 83 24 00
        E 16 83 24 00
        E 16 83 24 00
        E 16 83 24 00
        E 16 83 24 00
        E 16 83 24 00
        E 16 83 24 00
        E 16 83 24 00
        E 16 83 24 00
        E 16 83 24 00
        E 16 83 24 00
        E 16 83 24 00
        E 16 83 24 00
        E 16 83 24 00
        E 16 83 24 00
        E 16 83 24 00
        E 16 83 24 00
        E 16 83 24 00
        E 16 83 24 00
        E 16 83 24 00
        E 16 83 24 00
        E 16 83 24 00
        E 16 83 24 00
        E 16 83 24 00
        E 16 83 24 00
        E 16 83 24 00
        E 16 83 24 00
        E 16 83 24 00
        E 16 83 24 00
        E 16 83 24 00
        E 16 83 24 00
        E 16 83 24 00
        E 16 83 24 00
        E 16 83 24 00
        E 16 83 24 00
        E 16 83 24 00
        E 16 83 24 00
        E 16 83 24 00
        E 16 83 24 00
        E 16 83 24 00
        E 16 83 24 00
        E 16 83 24 00
        E 16 83 24 00
        E 16 83 24 00
        E 16 83 24 00
        E 16 83 24 00
        E 16 83 24 00
        E 16 83 24 00
        E 16 83 24 00
        E 16 83 24 00
        E 16 83 24 00
        E 16 83 24 00
        E 16 83 24 00
        E 16 83 24 00
        E 16 83 24 00
        E 16 83 24 00
        E 16 83 24 00
        E 16 83 24 00
        E 16 83 24 00
        E 16 83 24 00
        E 16 83 24 00
        E 16 83 24 00
        E 16 83 24 00
        E 16 83 24 00
        E 16 83 24 00
        E 16 83 24 00
        E 16 83 24 00
        E 16 83 24 00
        E 16 83 24 00
        E 16 83 24 00
        E 16 83 24 00
        E 16 83 24 00
        E 16 83 24 00
        E 16 83 24 00
        E 16 83 24 00
        E 16 83 24 00
        E 16 83 24 00
        E 16 83 24 00
        E 16 83 24 00
        E 16 83 24 00
        E 16 83 24 00
        E 16 83 24 00
        E 16 83 24 00
        E 16 83 24 00
        E 16 83 24 00
        E 16 83 24 00
        E 16 83 24 00
        E 16 83 24 00
        E 16 83 24 00
        E 16 83 24 00
        E 16 83 24 00
        E 16 83 24 00
        E 16 83 24 00
        E 16 83 24 00
        E 16 83 24 00
        E 16 83 24 00
        E 16 83 24 00
        E 16 83 24 00
        E 16 83 24 00
        E 16 83 24 00
        E 16 83 24 00
        E 16 83 24 00
        E 16 83 24 00
        E 16 83 24 00
        E 16 83 24 00
        E 16 83 24 00
        E 16 83 24 00
        E 16 83 24 00
        E 16 83 24 00
        E 16 83 24 00
        E 16 83 24 00
        E 16 83 24 00
        E 16 83 24 00
        E 16 83 24 00
        E 16 83 24 00
        E 16 83 24 00
        E 16 83 24 00
        E 16 83 24 00
        E 16 83 24 00
        E 16 83 24 00
        E 16 83 24 00
        E 16 83 24 00
        E 16 83 24 00
        E 16 83 24 00
        E 16 83 24 00
        E 16 83 24 00
        E 16 83 24 00
        E 16 83 24 00
        E 16 83 24 00
        E 16 83 24 00
        E 16 83 24 00
        E 16 83 24 00
        E 16 83 24 00
        E 16 83 24 00
        E 16 83 24 00
        E 16 83 24 00
        E 16 83 24 00
        E 16 83 24 00
        E 16 83 24 00
        E 16 83 24 00
        E 16 83 24 00
        E 16 83 24 00
        E 16 83 24 00
        E 16 83 24 00
        E 16 83 24 00
        E 16 83 24 00
        E 16 83 24 00
        E 16 83 24 00
        E 16 83 24 00
        E 16 83 24 00
        E 16 83 24 00
        E 16 83 24 00
        E 16 83 24 00
        E 16 83 24 00
        E 16 83 24 00
        E 16 83 24 00
        E 16 83 24 00
        E 16 83 24 00
        E 16 83 24 00
        E 16 83 24 00
        E 16 83 24 00
        E 16 83 24 00
        E 16 83 24 00
        E 16 83 24 00
        E 16 83 24 00
        E 16 83 24 00
        E 16 83 24 00
        E 16 83 24 00
        E 16 83 24 00
        E 16 83 24 00
        E 16 83 24 00
        E 16 83 24 00
        E 16 83 24 00
        E 16 83 24 00
        E 16 83 24 00
        E 16 83 24 00
        E 16 83 24 00
        E 16 83 24 00
        E 16 83 24 00
        E 16 83 24 00
        E 16 83 24 00
        E 16 83 24 00
        E 16 83 24 00
        E 16 83 24 00
        E 16 83 24 00
        E 16 83 24 00
        E 16 83 24 00
        E 16 83 24 00
        E 16 83 24 00
        E 16 83 24 00
        E 16 83 24 00
        E 16 83 24 00
        E 16 83 24 00
        E 16 83 24 00
        E 16 83 24 00
        E 16 83 24 00
        E 16 83 24 00
        E 16 83 24 00
        E 16 83 24 00
        E 16 83 24 00
        E 16 83 24 00
        E 16 83 24 00
        E 16 83 24 00
        E 16 83 24 00
        E 16 83 24 00
        E 16 83 24 00
        E 16 83 24 00
        E 16 83 24 00
        E 16 83 24 00
        E 16 83 24 00
        E 16 83 24 00
        E 16 83 24 00
        E 16 83 24 00
        E 16 83 24 00
        E 16 83 24 00
        E 16 83 24 00
        E 16 83 24 00
        E 16 83 24 00
        E 16 83 24 00
        E 16 83 24 00
        E 16 83 24 00
        E 16 83 24 00
        E 16 83 24 00
        E 16 83 24 00
        E 16 83 24 00
        E 16 83 24 00
        E 16 83 24 00
        E 16 83 24 00
        E 16 83 24 00
        E 16 83 24 00
        E 16 83 24 00
        E 16 83 24 00
        E 16 83 24 00
        E 16 83 24 00
        E 16 83 24 00
        E 16 83 24 00
        E 16 83 24 00
        E 16 83 24 00
        E 16 83 24 00
        E 16 83 24 00
        E 16 83 24 00
        E 16 83 24 00
        E 16 83 24 00
        E 16 83 24 00
        E 16 83 24 00
        E 16 83 24 00
        E 16 83 24 00
        E 16 83 24 00
        E 16 83 24 00
        E 16 83 24 00
        E 16 83 24 00
        E 16 83 24 00
        E 16 83 24 00
        E 16 83 24 00
        E 16 83 24 00
        E 16 83 24 00
        E 16 83 24 00
        E 16 83 24 00
        E 16 83 24 00
        E 16 83 24 00
        E 16 83 24 00
        E 16 83 24 00
        E 16 83 24 00
        E 16 83 24 00
        E 16 83 24 00
        E 16 83 24 00
        E 16 83 24 00
        E 16 83 24 00
        E 16 83 24 00
        E 16 83 24 00
        E 16 83 24 00
        E 16 83 24 00
        E 16 83 24 00
        E 16 83 24 00
        E 16 83 24 00
        E 16 83 24 00
        E 16 83 24 00
        E 16 83 24 00
        E 16 83 24 00
        E 16 83 24 00
        E 16 83 24 00
        E 16 83 24 00
        E 16 83 24 00
        E 16 83 24 00
        E 16 83 24 00
        E 16 83 24 00
        E 16 83 24 00
        E 16 83 24 00
        E 16 83 24 00
        E 16 83 24 00
        E 16 83 24 00
        E 16 83 24 00
        E 16 83 24 00
        E 16 83 24 00
        E 16 83 24 00
        E 16 83 24 00
        E 16 83 24 00
        E 16 83 24 00
        E 16 83 24 00
        E 16 83 24 00
        E 16 83 24 00
        E 16 83 24 00
        E 16 83 24 00
        E 16 83 24 00
        E 16 83 24 00
        E 16 83 24 00
        E 16 83 24 00
        E 16 83 24 00
        E 16 83 24 00
        E 16 83 24 00
        E 16 83 24 00
        E 16 83 24 00
        E 16 83 24 00
        E 16 83 24 00
        E 16 83 24 00
        E 16 83 24 00
        E 16 83 24 00
        E 16 83 24 00
        E 16 83 24 00
        E 16 83 24 00
        E 16 83 24 00
        E 16 83 24 00
        E 16 83 24 00
        E 16 83 24 00
        E 16 83 24 00
        E 16 83 24 00
        E 16 83 24 00
        E 16 83 24 00
        E 16 83 24 00
        E 16 83 24 00
        E 16 83 24 00
        E 16 83 24 00
        E 16 83 24 00
        E 16 83 24 00
        E 16 83 24 00
        E 16 83 24 00
        E 16 83 24 00
        E 16 83 24 00
        E 16 83 24 00
        E 16 83 24 00
        E 16 83 24 00
        E 16 83 24 00
        E 16 83 24 00
        E 16 83 24 00
        E 16 83 24 00
        E 16 83 24 00
        E 16 83 24 00
        E 16 83 24 00
        E 16 83 24 00
        E 16 83 24 00
        E 16 83 24 00
        E 16 83 24 00
        E 16 83 24 00
        E 16 83 24 00
        E 16 83 24 00
        E 16 83 24 00
        E 16 83 24 00
        E 16 83 24 00
        E 16 83 24 00
        E 16 83 24 00
        E 16 83 24 00
        E 16 83 24 00
        E 16 83 24 00
        E 16 83 24 00
        E 16 83 24 00
        E 16 83 24 00
        E 16 83 24 00
        E 16 83 24 00
        E 16 83 24 00
        E 16 83 24 00
        E 16 83 24 00
        E 16 83 24 00
        E 16 83 24 00
        E 16 83 24 00
        E 16 83 24 00
        E 16 83 24 00
        E 16 83 24 00
        E 16 83 24 00
        E 16 83 24 00
        E 16 83 24 00
        E 16 83 24 00
        E 16 83 24 00
        E 16 83 24 00
        E 16 83 24 00
        E 16 83 24 00
        E 16 83 24 00
        E 16 83 24 00
        E 16 83 24 00
        E 16 83 24 00
        E 16 83 24 00
        E 16 83 24 00
        E 16 83 24 00
        E 16 83 24 00
        E 16 83 24 00
        E 16 83 24 00
        E 16 83 24 00
        E 16 83 24 00
        E 16 83 24 00
        E 16 83 24 00
        E 16 83 24 00
        E 16 83 24 00
        E 16 83 24 00
        E 16 83 24 00
        E 16 83 24 00
        E 16 83 24 00
        E 16 83 24 00
        E 16 83 24 00
        E 16 83 24 00
        E 16 83 24 00
        E 16 83 24 00
        E 16 83 24 00
        E 16 83 24 00
        E 16 83 24 00
        E 16 83 24 00
        E 16 83 24 00
        E 16 83 24 00
        E 16 83 24 00
        E 16 83 24 00
        E 16 83 24 00
        E 16 83 24 00
        E 16 83 24 00
        E 16 83 24 00
        E 16 83 24 00
        E 16 83 24 00
        E 16 83 24 00
        E 16 83 24 00
        E 16 83 24 00
        E 16 83 24 00
        E 16 83 24 00
        E 16 83 24 00
        E 16 83 24 00
        E 16 83 24 00
        E 16 83 24 00
        E 16 83 24 00
        E 16 83 24 00
        E 16 83 24 00
        E 16 83 24 00
        E 16 83 24 00
        E 16 83 24 00
        E 16 83 24 00
        E 16 83 24 00
        E 16 83 24 00
        E 16 83 24 00
        E 16 83 24 00
        E 16 83 24 00
        E 16 83 24 00
        E 16 83 24 00
        E 16 83 24 00
        E 16 83 24 00
        E 16 83 24 00
        E 16 83 24 00
        E 16 83 24 00
        E 16 83 24 00
        E 16 83 24 00
        E 16 83 24 00
        E 16 83 24 00
        E 16 83 24 00
        E 16 83 24 00
        E 16 83 24 00
        E 16 83 24 00
        E 16 83 24 00
        E 16 83 24 00
        E 16 83 24 00
        E 16 83 24 00
        E 16 83 24 00
        E 16 83 24 00
        E 16 83 24 00
        E 16 83 24 00
        E 16 83 24 00
        E 16 83 24 00
        E 16 83 24 00
        E 16 83 24 00
        E 16 83 24 00
        E 16 83 24 00
        E 16 83 24 00
        E 16 83 24 00
        E 16 83 24 00
        E 16 83 24 00
        E 16 83 24 00
        E 16 83 24 00
        E 16 83 24 00
        E 16 83 24 00
        E 16 83 24 00
        E 16 83 24 00
        E 16 83 24 00
        E 16 83 24 00
        E 16 83 24 00
        E 16 83 24 00
        E 16 83 24 00
        E 16 83 24 00
        E 16 83 24 00
        E 16 83 24 00
        E 16 83 24 00
        E 16 83 24 00
        E 16 83 24 00
        E 16 83 24 00
        E 16 83 24 00
        E 16 83 24 00
        E 16 83 24 00
        E 16 83 24 00
        E 16 83 24 00
        E 16 83 24 00
        E 16 83 24 00
        E 16 83 24 00
        E 16 83 24 00
        E 16 83 24 00
        E 16 83 24 00
        E 16 83 24 00
        E 16 83 24 00
        E 16 83 24 00
        E 16 83 24 00
        E 16 83 24 00
        E 16 83 24 00
        E 16 83 24 00
        E 16 83 24 00
        E 16 83 24 00
        E 16 83 24 00
        E 16 83 24 00
        E 16 83 24 00
        E 16 83 24 00
        E 16 83 24 00
        E 16 83 24 00
        E 16 83 24 00
        E 16 83 24 00
        E 16 83 24 00
        E 16 83 24 00
        E 16 83 24 00
        E 16 83 24 00
        E 16 83 24 00
        E 16 83 24 00
        E 16 83 24 00
        E 16 83 24 00
        E 16 83 24 00
        E 16 83 24 00
        E 16 83 24 00
        E 16 83 24 00
        E 16 83 24 00
        E 16 83 24 00
        E 16 83 24 00
        E 16 83 24 00
        E 16 83 24 00
        E 16 83 24 00
        E 16 83 24 00
        E 16 83 24 00
        E 16 83 24 00
        E 16 83 24 00
        E 16 83 24 00
        E 16 83 24 00
        E 16 83 24 00
        E 16 83 24 00
        E 16 83 24 00
        E 16 83 24 00
        E 16 83 24 00
        E 16 83 24 00
        E 16 83 24 00
        E 16 83 24 00
        E 16 83 24 00
        E 16 83 24 00
        E 16 83 24 00
        E 16 83 24 00
        E 16 83 24 00
        E 16 83 24 00
        E 16 83 24 00
        E 16 83 24 00
        E 16 83 24 00
        E 16 83 24 00
        E 16 83 24 00
        E 16 83 24 00
        E 16 83 24 00
        E 16 83 24 00
        E 16 83 24 00
        E 16 83 24 00
        E 16 83 24 00
        E 16 83 24 00
        E 16 83 24 00
        E 16 83 24 00
        E 16 83 24 00
        E 16 83 24 00
        E 16 83 24 00
        E 16 83 24 00
        E 16 83 24 00
        E 16 83 24 00
        E 16 83 24 00
        E 16 83 24 00
        E 16 83 24 00
        E 16 83 24 00
        E 16 83 24 00
        E 16 83 24 00
        E 16 83 24 00
        E 16 83 24 00
        E 16 83 24 00
        E 16 83 24 00
        E 16 83 24 00
        E 16 83 24 00
        E 16 83 24 00
        E 16 83 24 00
        E 16 83 24 00
        E 16 83 24 00
        E 16 83 24 00
        E 16 83 24 00
        E 16 83 24 00
        E 16 83 24 00
        E 16 83 24 00
        E 16 83 24 00
        E 16 83 24 00
        E 16 83 24 00
        E 16 83 24 00
        E 16 83 24 00
        E 16 83 24 00
        E 16 83 24 00
        E 16 83 24 00
        E 16 83 24 00
        E 16 83 24 00
        E 16 83 24 00
        E 16 83 24 00
        E 16 83 24 00
        E 16 83 24 00
        E 16 83 24 00
        E 16 83 24 00
        E 16 83 24 00
        E 16 83 24 00
        E 16 83 24 00
        E 16 83 24 00
        E 16 83 24 00
        E 16 83 24 00
        E 16 83 24 00
        E 16 83 24 00
        E 16 83 24 00
        E 16 83 24 00
        E 16 83 24 00
        E 16 83 24 00
        E 16 83 24 00
        E 16 83 24 00
        E 16 83 24 00
        E 16 83 24 00
        E 16 83 24 00
        E 16 83 24 00
        E 16 83 24 00
        E 16 83 24 00
        E 16 83 24 00
        E 16 83 24 00
        E 16 83 24 00
        E 16 83 24 00
        E 16 83 24 00
        E 16 83 24 00
        E 16 83 24 00
        E 16 83 24 00
        E 16 83 24 00
        E 16 83 24 00
        E 16 83 24 00
        E 16 83 24 00
        E 16 83 24 00
        E 16 83 24 00
        E 16 83 24 00
        E 16 83 24 00
        E 16 83 24 00
        E 16 83 24 00
        E 16 83 24 00
        E 16 83 24 00
        E 16 83 24 00
        E 16 83 24 00
        E 16 83 24 00
        E 16 83 24 00
        E 16 83 24 00
        E 16 83 24 00
        E 16 83 24 00
        E 16 83 24 00
        E 16 83 24 00
        E 16 83 24 00
        E 16 83 24 00
        E 16 83 24 00
        E 16 83 24 00
        E 16 83 24 00
        E 16 83 24 00
        E 16 83 24 00
        E 16 83 24 00
        E 16 83 24 00
        E 16 83 24 00
        E 16 83 24 00
        E 16 83 24 00
        E 16 83 24 00
        E 16 83 24 00
        E 16 83 24 00
        E 16 83 24 00
        E 16 83 24 00
        E 16 83 24 00
        E 16 83 24 00
        E 16 83 24 00
        E 16 83 24 00
        E 16 83 24 00
        E 16 83 24 00
        E 16 83 24 00
        E 16 83 24 00
        E 16 83 24 00
        E 16 83 24 00
        E 16 83 24 00
        E 16 83 24 00
        E 16 83 24 00
        E 16 83 24 00
        E 16 83 24 00
        E 16 83 24 00
        E 16 83 24 00
        E 16 83 24 00
        E 16 83 24 00
        E 16 83 24 00
        E 16 83 24 00
        E 16 83 24 00
        E 16 83 24 00
        E 16 83 24 00
        E 16 83 24 00
        E 16 83 24 00
        E 16 83 24 00
        E 16 83 24 00
        E 16 83 24 00
        E 16 83 24 00
        E 16 83 24 00
        E 16 83 24 00
        E 16 83 24 00
        E 16 83 24 00
        E 16 83 24 00
        E 16 83 24 00
        E 16 83 24 00
        E 16 83 24 00
        E 16 83 24 00
        E 16 83 24 00
        E 16 83 24 00
        E 16 83 24 00
        E 16 83 24 00
        E 16 83 24 00
        E 16 83 24 00
        E 16 83 24 00
        E 16 83 24 00
        E 16 83 24 00
        E 16 83 24 00
        E 16 83 24 00
        E 16 83 24 00
        E 16 83 24 00
        E 16 83 24 00
        E 16 83 24 00
        E 16 83 24 00
        E 16 83 24 00
        E 16 83 24 00
        E 16 83 24 00
        E 16 83 24 00
        E 16 83 24 00
        E 16 83 24 00
        E 16 83 24 00
        E 16 83 24 00
        E 16 83 24 00
        E 16 83 24 00
        E 16 83 24 00
        E 16 83 24 00
        E 16 83 24 00
        E 16 83 24 00
        E 16 83 24 00
        E 16 83 24 00
        E 16 83 24 00
        E 16 83 24 00
        E 16 83 24 00
        E 16 83 24 00
        E 16 83 24 00
        E 16 83 24 00
        E 16 83 24 00
        E 16 83 24 00
        E 16 83 24 00
        E 16 83 24 00
        E 16 83 24 00
        E 16 83 24 00
        E 16 83 24 00
        E 16 83 24 00
        E 16 83 24 00
        E 16 83 24 00
        E 16 83 24 00
        E 16 83 24 00
        E 16 83 24 00
        E 16 83 24 00
        E 16 83 24 00
        E 16 83 24 00
        E 16 83 24 00
        E 16 83 24 00
        E 16 83 24 00
        E 16 83 24 00
        E 16 83 24 00
        E 16 83 24 00
        E 16 83 24 00
        E 16 83 24 00
        E 16 83 24 00
        E 16 83 24 00
        E 16 83 24 00
        E 16 83 24 00
        E 16 83 24 00
        E 16 83 24 00
        E 16 83 24 00
        E 16 83 24 00
        E 16 83 24 00
        E 16 83 24 00
        E 16 83 24 00
        E 16 83 24 00
        E 16 83 24 00
        E 16 83 24 00
        E 16 83 24 00
        E 16 83 24 00
        E 16 83 24 00
        E 16 83 24 00
        E 16 83 24 00
        E 16 83 24 00
        E 16 83 24 00
        E 16 83 24 00
        E 16 83 24 00
        E 16 83 24 00
        E 16 83 24 00
        E 16 83 24 00
        E 16 83 24 00
        E 16 83 24 00
        E 16 83 24 00
        E 16 83 24 00
        E 16 83 24 00
        E 16 83 24 00
        E 16 83 24 00
        E 16 83 24 00
        E 16 83 24 00
        E 16 83 24 00
        E 16 83 24 00
        E 16 83 24 00
        E 16 83 24 00
        E 16 83 24 00
        E 16 83 24 00
        E 16 83 24 00
        E 16 83 24 00
        E 16 83 24 00
        E 16 83 24 00
        E 16 83 24 00
        E 16 83 24 00
        E 16 83 24 00
        E 16 83 24 00
        E 16 83 24 00
        E 16 83 24 00
        E 16 83 24 00
        E 16 83 24 00
        E 16 83 24 00
        E 16 83 24 00
        E 16 83 24 00
        E 16 83 24 00
        E 16 83 24 00
        E 16 83 24 00
        E 16 83 24 00
        E 16 83 24 00
        E 16 83 24 00
        E 16 83 24 00
        E 16 83 24 00
        E 16 83 24 00
        E 16 83 24 00
        E 16 83 24 00
        E 16 83 24 00
        E 16 83 24 00
        E 16 83 24 00
        E 16 83 24 00
        E 16 83 24 00
        E 16 83 24 00
        E 16 83 24 00
        E 16 83 24 00
        E 16 83 24 00
        E 16 83 24 00
        E 16 83 24 00
        E 16 83 24 00
        E 16 83 24 00
        E 16 83 24 00
        E 16 83 24 00
        E 16 83 24 00
        E 16 83 24 00
        E 16 83 24 00
        E 16 83 24 00
        E 16 83 24 00
        E 16 83 24 00
        E 16 83 24 00
        E 16 83 24 00
        E 16 83 24 00
        E 16 83 24 00
        E 16 83 24 00
        E 16 83 24 00
        E 16 83 24 00
        E 16 83 24 00
        E 16 83 24 00
        E 16 83 24 00
        E 16 83 24 00
        E 16 83 24 00
        E 16 83 24 00
        E 16 83 24 00
        E 16 83 24 00
        E 16 83 24 00
        E 16 83 24 00
        E 16 83 24 00
        E 16 83 24 00
        E 16 83 24 00
        E 16 83 24 00
        E 16 83 24 00
        E 16 83 24 00
        E 16 83 24 00
        E 16 83 24 00
        E 16 83 24 00
        E 16 83 24 00
        E 16 83 24 00
        E 16 83 24 00
        E 16 83 24 00
        E 16 83 24 00
        E 16 83 24 00
        E 16 83 24 00
        E 16 83 24 00
        E 16 83 24 00
        E 16 83 24 00
        E 16 83 24 00
        E 16 83 24 00
        E 16 83 24 00
        E 16 83 24 00
        E 16 83 24 00
        E 16 83 24 00
        E 16 83 24 00
        E 16 83 24 00
        E 16 83 24 00
        E 16 83 24 00
        E 16 83 24 00
        E 16 83 24 00
        E 16 83 24 00
        E 16 83 24 00
        E 16 83 24 00
        E 16 83 24 00
        E 16 83 24 00
        E 16 83 24 00
        E 16 83 24 00
        E 16 83 24 00
        E 16 83 24 00
        E 16 83 24 00
        E 16 83 24 00
        E 16 83 24 00
        E 16 83 24 00
        E 16 83 24 00
        E 16 83 24 00
        E 16 83 24 00
        E 16 83 24 00
        E 16 83 24 00
        E 16 83 24 00
        E 16 83 24 00
        E 16 83 24 00
        E 16 83 24 00
        E 16 83 24 00
        E 16 83 24 00
        E 16 83 24 00
        E 16 83 24 00
        E 16 83 24 00
        E 16 83 24 00
        E 16 83 24 00
        E 16 83 24 00
        E 16 83 24 00
        E 16 83 24 00
        E 16 83 24 00
        E 16 83 24 00
        E 16 83 24 00
        E 16 83 24 00
        E 16 83 24 00
        E 16 83 24 00
        E 16 83 24 00
        E 16 83 24 00
        E 16 83 24 00
        E 16 83 24 00
        E 16 83 24 00
        E 16 83 24 00
        E 16 83 24 00
        E 16 83 24 00
        E 16 83 24 00
        E 16 83 24 00
        E 16 83 24 00
        E 16 83 24 00
        E 16 83 24 00
        E 16 83 24 00
        E 16 83 24 00
        E 16 83 24 00
        E 16 83 24 00
        E 16 83 24 00
        E 16 83 24 00
        E 16 83 24 00
        E 16 83 24 00
        E 16 83 24 00
        E 16 83 24 00
        E 16 83 24 00
        E 16 83 24 00
        E 16 83 24 00
        E 16 83 24 00
        E 16 83 24 00
        E 16 83 24 00
        E 16 83 24 00
        E 16 83 24 00
        E 16 83 24 00
        E 16 83 24 00
        E 16 83 24 00
        E 16 83 24 00
        E 16 83 24 00
        E 16 83 24 00
        E 16 83 24 00
        E 16 83 24 00
        E 16 83 24 00
        E 16 83 24 00
        E 16 83 24 00
        E 16 83 24 00
        E 16 83 24 00
        E 16 83 24 00
        E 16 83 24 00
        E 16 83 24 00
        E 16 83 24 00
        E 16 83 24 00
        E 16 83 24 00
        E 16 83 24 00
        E 16 83 24 00
        E 16 83 24 00
        E 16 83 24 00
        E 16 83 24 00
        E 16 83 24 00
        E 16 83 24 00
        E 16 83 24 00
        E 16 83 24 00
        E 16 83 24 00
        E 16 83 24 00
        E 16 83 24 00
        E 16 83 24 00
        E 16 83 24 00
        E 16 83 24 00
        E 16 83 24 00
        E 16 83 24 00
        E 16 83 24 00
        E 16 83 24 00
        E 16 83 24 00
        E 16 83 24 00
        E 16 83 24 00
        E 16 83 24 00
        E 16 83 24 00
        E 16 83 24 00
        E 16 83 24 00
        E 16 83 24 00
        E 16 83 24 00
        E 16 83 24 00
        E 16 83 24 00
        E 16 83 24 00
        E 16 83 24 00
        E 16 83 24 00
        E 16 83 24 00
        E 16 83 24 00
        E 16 83 24 00
        E 16 83 24 00
        E 16 83 24 00
        E 16 83 24 00
        E 16 83 24 00
        E 16 83 24 00
        E 16 83 24 00
        E 16 83 24 00
        E 16 83 24 00
        E 16 83 24 00
        E 16 83 24 00
        E 16 83 24 00
        E 16 83 24 00
        E 16 83 24 00
        E 16 83 24 00
        E 16 83 24 00
        E 16 83 24 00
        E 16 83 24 00
        E 16 83 24 00
        E 16 83 24 00
        E 16 83 24 00
        E 16 83 24 00
        E 16 83 24 00
        E 16 83 24 00
        E 16 83 24 00
        E 16 83 24 00
        E 16 83 24 00
        E 16 83 24 00
        E 16 83 24 00
        E 16 83 24 00
        E 16 83 24 00
        E 16 83 24 00
        E 16 83 24 00
        E 16 83 24 00
        E 16 83 24 00
        E 16 83 24 00
        E 16 83 24 00
        E 16 83 24 00
        E 16 83 24 00
        E 16 83 24 00
        E 16 83 24 00
        E 16 83 24 00
        E 16 83 24 00
        E 16 83 24 00
        E 16 83 24 00
        E 16 83 24 00
        E 16 83 24 00
        E 16 83 24 00
        E 16 83 24 00
        E 16 83 24 00
        E 16 83 24 00
        E 16 83 24 00
        E 16 83 24 00
        E 16 83 24 00
        E 16 83 24 00
        E 16 83 24 00
        E 16 83 24 00
        E 16 83 24 00
        E 16 83 24 00
        E 16 83 24 00
        E 16 83 24 00
        E 16 83 24 00
        E 16 83 24 00
        E 16 83 24 00
        E 16 83 24 00
        E 16 83 24 00
        E 16 83 24 00
        E 16 83 24 00
        E 16 83 24 00
        E 16 83 24 00
        E 16 83 24 00
        E 16 83 24 00
        E 16 83 24 00
        E 16 83 24 00
        E 16 83 24 00
        E 16 83 24 00
        E 16 83 24 00
        E 16 83 24 00
        E 16 83 24 00
        E 16 83 24 00
        E 16 83 24 00
        E 16 83 24 00
        E 16 83 24 00
        E 16 83 24 00
        E 16 83 24 00
        E 16 83 24 00
        E 16 83 24 00
        E 16 83 24 00
        E 16 83 24 00
        E 16 83 24 00
        E 16 83 24 00
        E 16 83 24 00
        E 16 83 24 00
        E 16 83 24 00
        E 16 83 24 00
        E 16 83 24 00
        E 16 83 24 00
        E 16 83 24 00
        E 16 83 24 00
        E 16 83 24 00
        E 16 83 24 00
        E 16 83 24 00
        E 16 83 24 00
        E 16 83 24 00
        E 16 83 24 00
        E 16 83 24 00
        E 16 83 24 00
        E 16 83 24 00
        E 16 83 24 00
        E 16 83 24 00
        E 16 83 24 00
        E 16 83 24 00
        E 16 83 24 00
        E 16 83 24 00
        E 16 83 24 00
        E 16 83 24 00
        E 16 83 24 00
        E 16 83 24 00
        E 16 83 24 00
        E 16 83 24 00
        E 16 83 24 00
        E 16 83 24 00
        E 16 83 24 00
        E 16 83 24 00
        E 16 83 24 00
        E 16 83 24 00
        E 16 83 24 00
        E 16 83 24 00
        E 16 83 24 00
        E 16 83 24 00
        E 16 83 24 00
        E 16 83 24 00
        E 16 83 24 00
        E 16 83 24 00
        E 16 83 24 00
        E 16 83 24 00
        E 16 83 24 00
        E 16 83 24 00
        E 16 83 24 00
        E 16 83 24 00
        E 16 83 24 00
        E 16 83 24 00
        E 16 83 24 00
        E 16 83 24 00
        E 16 83 24 00
        E 16 83 24 00
        E 16 83 24 00
        E 16 83 24 00
        E 16 83 24 00
        E 16 83 24 00
        E 16 83 24 00
        E 16 83 24 00
        E 16 83 24 00
        E 16 83 24 00
        E 16 83 24 00
        E 16 83 24 00
        E 16 83 24 00
        E 16 83 24 00
        E 16 83 24 00
        E 16 83 24 00
        E 16 83 24 00
        E 16 83 24 00
        E 16 83 24 00
        E 16 83 24 00
        E 16 83 24 00
        E 16 83 24 00
        E 16 83 24 00
        E 16 83 24 00
        E 16 83 24 00
        E 16 83 24 00
        E 16 83 24 00
        E 16 83 24 00
        E 16 83 24 00
        E 16 83 24 00
        E 16 83 24 00
        E 16 83 24 00
        E 16 83 24 00
        E 16 83 24 00
        E 16 83 24 00
        E 16 83 24 00
        E 16 83 24 00
        E 16 83 24 00
        E 16 83 24 00
        E 16 83 24 00
        E 16 83 24 00
        E 16 83 24 00
        E 16 83 24 00
        E 16 83 24 00
        E 16 83 24 00
        E 16 83 24 00
        E 16 83 24 00
        E 16 83 24 00
        E 16 83 24 00
        E 16 83 24 00
        E 16 83 24 00
        E 16 83 24 00
        E 16 83 24 00
        E 16 83 24 00
        E 16 83 24 00
        E 16 83 24 00
        E 16 83 24 00
        E 16 83 24 00
        E 16 83 24 00
        E 16 83 24 00
        E 16 83 24 00
        E 16 83 24 00
        E 16 83 24 00
        E 16 83 24 00
        E 16 83 24 00
        E 16 83 24 00
        E 16 83 24 00
        E 16 83 24 00
        E 16 83 24 00
        E 16 83 24 00
        E 16 83 24 00
        E 16 83 24 00
        E 16 83 24 00
        E 16 83 24 00
        E 16 83 24 00
        E 16 83 24 00
        E 16 83 24 00
        E 16 83 24 00
        E 80 93 2a 38
        E 176 83 2a 00
        E 16 83 2a 00
        E 80 93 26 38
        E 176 83 26 00
        E 16 83 26 00
        E 16 83 26 00
        E 64 93 2a 38
        E 176 83 2a 00
        E 16 83 2a 00
        E 16 83 2a 00
        E 48 93 24 38
        E 160 83 24 00
        E 16 83 24 00
        E 16 83 24 00
        E 80 93 2a 38
        E 160 83 2a 00
        E 16 83 2a 00
        E 16 83 2a 00
        E 80 93 26 38
        E 176 83 26 00
        E 16 83 26 00
        E 16 83 26 00
        E 64 93 2a 38
        E 176 83 2a 00
        E 16 83 2a 00
        E 16 83 2a 00
        E 48 93 24 38
        E 160 83 24 00
        E 16 83 24 00
        E 16 83 24 00
        E 80 93 2a 38
        E 160 83 2a 00
        E 16 83 2a 00
        E 16 83 2a 00
        E 80 93 26 38
        E 160 83 26 00
        E 16 83 26 00
        E 16 83 26 00
        E 80 93 2a 38
        E 176 83 2a 00
        E 16 83 2a 00
        E 16 83 2a 00
        E 64 93 24 38
        E 176 83 24 00
        E 16 83 24 00
        E 16 83 24 00
        E 48 93 2a 38
        E 160 83 2a 00
        E 16 83 2a 00
        E 16 83 2a 00
        E 80 93 26 38
        E 160 83 26 00
        E 16 83 26 00
        E 16 83 26 00
        E 80 93 2a 38
        E 176 83 2a 00
        E 16 83 2a 00
        E 80 93 24 38
        E 176 83 24 00
        E 16 83 24 00
        E 16 83 24 00
        E 64 93 2a 38
        E 176 83 2a 00
        E 16 83 2a 00
        E 16 83 2a 00
        E 48 93 26 38
        E 160 83 26 00
        E 16 83 26 00
        E 16 83 26 00
        E 80 93 2a 38
        E 160 83 2a 00
        E 16 83 2a 00
        E 16 83 2a 00
        E 80 93 24 38
        E 176 83 24 00
        E 16 83 24 00
        E 80 93 2a 38
        E 176 83 2a 00
        E 16 83 2a 00
        E 16 83 2a 00
        E 48 93 26 38
        E 160 83 26 00
        E 16 83 26 00
        E 16 83 26 00
        E 80 93 2a 38
        E 160 83 2a 00
        E 16 83 2a 00
        E 16 83 2a 00
        E 80 93 24 38
        E 160 83 24 00
        E 16 83 24 00
        E 16 83 24 00
        E 80 93 2a 38
        E 176 83 2a 00
        E 16 83 2a 00
        E 16 83 2a 00
        E 64 93 26 38
        E 208 83 26 00
        E 16 83 26 00
        E 16 83 26 00
        E 16 93 2a 38
        E 160 83 2a 00
        E 16 83 2a 00
        E 16 83 2a 00
        E 80 93 24 38
        E 160 83 24 00
        E 16 83 24 00
        E 16 83 24 00
        E 80 93 2a 38
        E 176 83 2a 00
        E 16 83 2a 00
        E 80 93 26 38
        E 176 83 26 00
        E 16 83 26 00
        E 16 83 26 00
        E 64 93 2a 38
        E 176 83 2a 00
        E 16 83 2a 00
        E 16 83 2a 00
        E 48 93 24 38
        E 160 83 24 00
        E 16 83 24 00
        E 16 83 24 00
        E 80 93 2a 38
        E 160 83 2a 00
        E 16 83 2a 00
        E 16 83 2a 00
        E 80 93 26 38
        E 176 83 26 00
        E 16 83 26 00
        E 80 93 2a 38
        E 176 83 2a 00
        E 16 83 2a 00
        E 16 83 2a 00
        E 64 93 24 38
        E 176 83 24 00
        E 16 83 24 00
        E 16 83 24 00
        E 48 93 2a 38
        E 160 83 2a 00
        E 16 83 2a 00
        E 16 83 2a 00
        E 80 93 26 38
        E 160 83 26 00
        E 16 83 26 00
        E 16 83 26 00
        E 80 93 2a 38
        E 176 83 2a 00
        E 16 83 2a 00
        E 16 83 2a 00
        E 64 93 24 38
        E 176 83 24 00
        E 16 83 24 00
        E 16 83 24 00
        E 48 93 2a 38
        E 160 83 2a 00
        E 16 83 2a 00
        E 16 83 2a 00
        E 80 93 26 38
        E 160 83 26 00
        E 16 83 26 00
        E 16 83 26 00
        E 80 93 2a 38
        E 160 83 2a 00
        E 16 83 2a 00
        E 16 83 2a 00
        E 80 93 24 38
        E 176 83 24 00
        E 16 83 24 00
        E 16 83 24 00
        E 64 93 2a 38
        E 176 83 2a 00
        E 16 83 2a 00
        E 16 83 2a 00
        E 48 93 26 38
        E 160 83 26 00
        E 16 83 26 00
        E 16 83 26 00
        E 80 93 2a 38
        E 160 83 2a 00
        E 16 83 2a 00
        E 16 83 2a 00
        E 80 93 2a 40
        E 208 83 2a 00
        E 16 83 2a 00
        E 16 83 2a 00
        E 16 83 2a 00
        E 16 83 2a 00
        E 16 83 2a 00
        E 16 83 2a 00
        E 16 83 2a 00
        E 16 83 2a 00
        E 16 83 2a 00
        E 16 83 2a 00
        E 16 83 2a 00
        E 16 83 2a 00
        E 16 83 2a 00
        E 16 83 2a 00
        E 16 83 2a 00
        E 16 83 2a 00
        E 16 83 2a 00
        E 16 83 2a 00
        E 16 83 2a 00
        E 16 83 2a 00
        E 16 83 2a 00
        E 16 83 2a 00
        E 16 83 2a 00
        E 16 83 2a 00
        E 16 83 2a 00
        E 16 83 2a 00
        E 16 83 2a 00
        E 16 83 2a 00
        E 16 83 2a 00
        E 16 83 2a 00
        E 16 83 2a 00
        E 16 83 2a 00
        E 16 83 2a 00
        E 16 83 2a 00
        E 16 83 2a 00
        E 16 83 2a 00
        E 16 83 2a 00
        E 16 83 2a 00
        E 16 83 2a 00
        E 16 83 2a 00
        E 16 83 2a 00
        E 16 83 2a 00
        E 16 83 2a 00
        E 16 83 2a 00
        E 16 83 2a 00
        E 16 83 2a 00
        E 16 83 2a 00
        E 16 83 2a 00
        E 16 83 2a 00
        E 16 83 2a 00
        E 16 83 2a 00
        E 16 83 2a 00
        E 16 83 2a 00
        E 16 83 2a 00
        E 16 83 2a 00
        E 16 83 2a 00
        E 16 83 2a 00
        E 16 83 2a 00
        E 16 83 2a 00
        E 16 83 2a 00
        E 16 83 2a 00
        E 16 83 2a 00
        E 16 83 2a 00
        E 16 83 2a 00
        E 16 83 2a 00
        E 16 83 2a 00
        E 16 83 2a 00
        E 16 83 2a 00
        E 16 83 2a 00
        E 16 83 2a 00
        E 16 83 2a 00
        E 16 83 2a 00
        E 16 83 2a 00
        E 16 83 2a 00
        E 16 83 2a 00
        E 16 83 2a 00
        E 16 83 2a 00
        E 16 83 2a 00
        E 16 83 2a 00
        E 16 83 2a 00
        E 16 83 2a 00
        E 16 83 2a 00
        E 16 83 2a 00
        E 16 83 2a 00
        E 16 83 2a 00
        E 16 83 2a 00
        E 16 83 2a 00
        E 16 83 2a 00
        E 16 83 2a 00
        E 16 83 2a 00
        E 16 83 2a 00
        E 16 83 2a 00
        E 16 83 2a 00
        E 16 83 2a 00
        E 16 83 2a 00
        E 16 83 2a 00
        E 16 83 2a 00
        E 16 83 2a 00
        E 16 83 2a 00
        E 16 83 2a 00
        E 16 83 2a 00
        E 16 83 2a 00
        E 16 83 2a 00
        E 16 83 2a 00
        E 16 83 2a 00
        E 16 83 2a 00
        E 16 83 2a 00
        E 16 83 2a 00
        E 16 83 2a 00
        E 16 83 2a 00
        E 16 83 2a 00
        E 16 83 2a 00
        E 16 83 2a 00
        E 16 83 2a 00
        E 16 83 2a 00
        E 16 83 2a 00
        E 16 83 2a 00
        E 16 83 2a 00
        E 16 83 2a 00
        E 16 83 2a 00
        E 16 83 2a 00
        E 16 83 2a 00
        E 16 83 2a 00
        E 16 83 2a 00
        E 16 83 2a 00
        E 16 83 2a 00
        E 16 83 2a 00
        E 16 83 2a 00
        E 16 83 2a 00
        E 16 83 2a 00
        E 16 83 2a 00
        E 16 83 2a 00
        E 16 83 2a 00
        E 16 83 2a 00
        E 16 83 2a 00
        E 16 83 2a 00
        E 16 83 2a 00
        E 16 83 2a 00
        E 16 83 2a 00
        E 16 83 2a 00
        E 16 83 2a 00
        E 16 83 2a 00
        E 16 83 2a 00
        E 16 83 2a 00
        E 16 83 2a 00
        E 16 83 2a 00
        E 16 83 2a 00
        E 16 83 2a 00
        E 16 83 2a 00
        E 16 83 2a 00
        E 16 83 2a 00
        E 16 83 2a 00
        E 16 83 2a 00
        E 16 83 2a 00
        E 16 83 2a 00
        E 16 83 2a 00
        E 16 83 2a 00
        E 16 83 2a 00
        E 16 83 2a 00
        E 16 83 2a 00
        E 16 83 2a 00
        E 16 83 2a 00
        E 16 83 2a 00
        E 16 83 2a 00
        E 16 83 2a 00
        E 16 83 2a 00
        E 16 83 2a 00
        E 16 83 2a 00
        E 16 83 2a 00
        E 16 83 2a 00
        E 16 83 2a 00
        E 16 83 2a 00
        E 16 83 2a 00
        E 16 83 2a 00
        E 16 83 2a 00
        E 16 83 2a 00
        E 16 83 2a 00
        E 16 83 2a 00
        E 16 83 2a 00
        E 16 83 2a 00
        E 16 83 2a 00
        E 16 83 2a 00
        E 16 83 2a 00
        E 16 83 2a 00
        E 16 83 2a 00
        E 16 83 2a 00
        E 16 83 2a 00
        E 16 83 2a 00
        E 16 83 2a 00
        E 16 83 2a 00
        E 16 83 2a 00
        E 16 83 2a 00
        E 16 83 2a 00
        E 16 83 2a 00
        E 16 83 2a 00
        E 16 83 2a 00
        E 16 83 2a 00
        E 16 83 2a 00
        E 16 83 2a 00
        E 16 83 2a 00
        E 16 83 2a 00
        E 16 83 2a 00
        E 16 83 2a 00
        E 16 83 2a 00
        E 16 83 2a 00
        E 16 83 2a 00
        E 16 83 2a 00
        E 16 83 2a 00
        E 16 83 2a 00
        E 16 83 2a 00
        E 16 83 2a 00
        E 16 83 2a 00
        E 16 83 2a 00
        E 16 83 2a 00
        E 16 83 2a 00
        E 16 83 2a 00
        E 16 83 2a 00
        E 16 83 2a 00
        E 16 83 2a 00
        E 16 83 2a 00
        E 16 83 2a 00
        E 16 83 2a 00
        E 16 83 2a 00
        E 16 83 2a 00
        E 16 83 2a 00
        E 16 83 2a 00
        E 16 83 2a 00
        E 16 83 2a 00
        E 16 83 2a 00
        E 16 83 2a 00
        E 16 83 2a 00
        E 16 83 2a 00
        E 16 83 2a 00
        E 16 83 2a 00
        E 16 83 2a 00
        E 16 83 2a 00
        E 16 83 2a 00
        E 16 83 2a 00
        E 16 83 2a 00
        E 16 83 2a 00
        E 16 83 2a 00
        E 16 83 2a 00
        E 16 83 2a 00
        E 16 83 2a 00
        E 16 83 2a 00
        E 16 83 2a 00
        E 16 83 2a 00
        E 16 83 2a 00
        E 16 83 2a 00
        E 16 83 2a 00
        E 16 83 2a 00
        E 16 83 2a 00
        E 16 83 2a 00
        E 16 83 2a 00
        E 16 83 2a 00
        E 16 83 2a 00
        E 16 93 2a 78
        E 32 83 2a 00
        E 4256 93 2a 78
        E 32 83 2a 00
        E 4256 93 24 38
        E 208 83 24 00
        E 16 83 24 00
        E 16 83 24 00
        E 16 83 24 00
        E 16 83 24 00
        E 16 83 24 00
        E 16 83 24 00
        E 16 83 24 00
        E 16 83 24 00
        E 16 83 24 00
        E 16 83 24 00
        E 16 83 24 00
        E 16 83 24 00
        E 16 83 24 00
        E 16 83 24 00
        E 16 83 24 00
        E 16 83 24 00
        E 16 83 24 00
        E 16 83 24 00
        E 16 83 24 00
        E 16 83 24 00
        E 16 83 24 00
        E 16 83 24 00
        E 16 83 24 00
        E 16 83 24 00
        E 16 83 24 00
        E 16 83 24 00
        E 16 83 24 00
        E 16 83 24 00
        E 16 83 24 00
        E 16 83 24 00
        E 16 83 24 00
        E 16 83 24 00
        E 16 83 24 00
        E 16 83 24 00
        E 16 83 24 00
        E 16 83 24 00
        E 16 83 24 00
        E 16 83 24 00
        E 16 83 24 00
        E 16 83 24 00
        E 16 83 24 00
        E 16 83 24 00
        E 16 83 24 00
        E 16 83 24 00
        E 16 83 24 00
        E 16 83 24 00
        E 16 83 24 00
        E 16 83 24 00
        E 16 83 24 00
        E 16 83 24 00
        E 16 83 24 00
        E 16 83 24 00
        E 16 83 24 00
        E 16 83 24 00
        E 16 83 24 00
        E 16 83 24 00
        E 16 83 24 00
        E 16 83 24 00
        E 16 83 24 00
        E 16 83 24 00
        E 16 83 24 00
        E 16 83 24 00
        E 16 83 24 00
        E 16 83 24 00
        E 16 83 24 00
        E 16 83 24 00
        E 16 83 24 00
        E 16 83 24 00
        E 16 83 24 00
        E 16 83 24 00
        E 16 83 24 00
        E 16 83 24 00
        E 16 83 24 00
        E 16 83 24 00
        E 16 83 24 00
        E 16 83 24 00
        E 16 83 24 00
        E 16 83 24 00
        E 16 83 24 00
        E 16 83 24 00
        E 16 83 24 00
        E 16 83 24 00
        E 16 83 24 00
        E 16 83 24 00
        E 16 83 24 00
        E 16 83 24 00
        E 16 83 24 00
        E 16 83 24 00
        E 16 83 24 00
        E 16 83 24 00
        E 16 83 24 00
        E 16 83 24 00
        E 16 83 24 00
        E 16 83 24 00
        E 16 83 24 00
        E 16 83 24 00
        E 16 83 24 00
        E 16 83 24 00
        E 16 83 24 00
        E 16 83 24 00
        E 16 83 24 00
        E 16 83 24 00
        E 16 83 24 00
        E 16 83 24 00
        E 16 83 24 00
        E 16 83 24 00
        E 16 83 24 00
        E 16 83 24 00
        E 16 83 24 00
        E 16 83 24 00
        E 16 83 24 00
        E 16 83 24 00
        E 16 83 24 00
        E 16 83 24 00
        E 16 83 24 00
        E 16 83 24 00
        E 16 83 24 00
        E 16 83 24 00
        E 16 83 24 00
        E 16 83 24 00
        E 16 83 24 00
        E 16 83 24 00
        E 16 83 24 00
        E 16 83 24 00
        E 16 83 24 00
        E 16 83 24 00
        E 16 83 24 00
        E 16 83 24 00
        E 16 83 24 00
        E 16 83 24 00
        E 16 83 24 00
        E 16 83 24 00
        E 16 83 24 00
        E 80 93 2a 38
        E 176 83 2a 00
        E 16 83 2a 00
        E 16 83 2a 00
        E 64 93 26 38
        E 176 83 26 00
        E 16 83 26 00
        E 16 83 26 00
        E 48 93 2a 38
        E 160 83 2a 00
        E 16 83 2a 00
        E 16 83 2a 00
        E 80 93 24 38
        E 160 83 24 00
        E 16 83 24 00
        E 16 83 24 00
        E 80 93 2a 38
        E 176 83 2a 00
        E 16 83 2a 00
        E 80 93 26 38
        E 176 83 26 00
        E 16 83 26 00
        E 16 83 26 00
        E 64 93 2a 38
        E 176 83 2a 00
        E 16 83 2a 00
        E 16 83 2a 00
        E 48 93 24 38
        E 160 83 24 00
        E 16 83 24 00
        E 16 83 24 00
        E 80 93 2a 38
        E 160 83 2a 00
        E 16 83 2a 00
        E 16 83 2a 00
        E 80 93 26 38
        E 176 83 26 00
        E 16 83 26 00
        E 16 83 26 00
        E 64 93 2a 38
        E 176 83 2a 00
        E 16 83 2a 00
        E 16 83 2a 00
        E 48 93 24 38
        E 160 83 24 00
        E 16 83 24 00
        E 16 83 24 00
        E 80 93 2a 38
        E 160 83 2a 00
        E 16 83 2a 00
        E 16 83 2a 00
        E 80 93 26 38
        E 160 83 26 00
        E 16 83 26 00
        E 16 83 26 00
        E 80 93 2a 38
        E 176 83 2a 00
        E 16 83 2a 00
        E 16 83 2a 00
        E 64 93 24 38
        E 176 83 24 00
        E 16 83 24 00
        E 16 83 24 00
        E 48 93 2a 38
        E 160 83 2a 00
        E 16 83 2a 00
        E 16 83 2a 00
        E 80 93 26 38
        E 160 83 26 00
        E 16 83 26 00
        E 16 83 26 00
        E 80 93 2a 38
        E 176 83 2a 00
        E 16 83 2a 00
        E 80 93 24 38
        E 176 83 24 00
        E 16 83 24 00
        E 16 83 24 00
        E 64 93 2a 38
        E 176 83 2a 00
        E 16 83 2a 00
        E 16 83 2a 00
        E 48 93 26 38
        E 160 83 26 00
        E 16 83 26 00
        E 16 83 26 00
        E 80 93 2a 38
        E 160 83 2a 00
        E 16 83 2a 00
        E 16 83 2a 00
        E 80 93 24 38
        E 176 83 24 00
        E 16 83 24 00
        E 16 83 24 00
        E 64 93 2a 38
        E 176 83 2a 00
        E 16 83 2a 00
        E 16 83 2a 00
        E 48 93 26 38
        E 160 83 26 00
        E 16 83 26 00
        E 16 83 26 00
        E 80 93 2a 38
        E 160 83 2a 00
        E 16 83 2a 00
        E 16 83 2a 00
        E 80 93 24 38
        E 160 83 24 00
        E 16 83 24 00
        E 16 83 24 00
        E 80 93 2a 38
        E 176 83 2a 00
        E 16 83 2a 00
        E 16 83 2a 00
        E 64 93 26 38
        E 176 83 26 00
        E 16 83 26 00
        E 16 83 26 00
        E 48 93 2a 38
        E 160 83 2a 00
        E 16 83 2a 00
        E 16 83 2a 00
        E 80 93 24 58
        E 208 83 24 00
        E 16 83 24 00
        E 16 83 24 00
        E 16 83 24 00
        E 16 83 24 00
        E 16 83 24 00
        E 16 83 24 00
        E 16 83 24 00
        E 16 83 24 00
        E 16 83 24 00
        E 16 83 24 00
        E 16 83 24 00
        E 16 83 24 00
        E 16 83 24 00
        E 16 83 24 00
        E 16 83 24 00
        E 16 83 24 00
        E 16 83 24 00
        E 16 83 24 00
        E 16 83 24 00
        E 16 83 24 00
        E 16 83 24 00
        E 16 83 24 00
        E 16 83 24 00
        E 16 83 24 00
        E 16 83 24 00
        E 16 83 24 00
        E 16 83 24 00
        E 16 83 24 00
        E 16 83 24 00
        E 16 83 24 00
        E 16 83 24 00
        E 16 83 24 00
        E 16 83 24 00
        E 16 83 24 00
        E 16 83 24 00
        E 16 83 24 00
        E 16 83 24 00
        E 16 83 24 00
        E 16 83 24 00
        E 16 83 24 00
        E 16 83 24 00
        E 16 83 24 00
        E 16 83 24 00
        E 16 83 24 00
        E 16 83 24 00
        E 16 83 24 00
        E 16 83 24 00
        E 16 83 24 00
        E 16 83 24 00
        E 16 83 24 00
        E 16 83 24 00
        E 16 83 24 00
        E 16 83 24 00
        E 16 83 24 00
        E 16 83 24 00
        E 16 83 24 00
        E 16 83 24 00
        E 16 83 24 00
        E 16 83 24 00
        E 16 83 24 00
        E 16 83 24 00
        E 16 83 24 00
        E 16 83 24 00
        E 16 83 24 00
        E 16 83 24 00
        E 16 83 24 00
        E 16 83 24 00
        E 16 83 24 00
        E 16 83 24 00
        E 16 83 24 00
        E 16 83 24 00
        E 16 83 24 00
        E 16 83 24 00
        E 16 83 24 00
        E 16 83 24 00
        E 16 83 24 00
        E 16 83 24 00
        E 16 83 24 00
        E 16 83 24 00
        E 16 83 24 00
        E 16 83 24 00
        E 16 83 24 00
        E 16 83 24 00
        E 16 83 24 00
        E 16 83 24 00
        E 16 83 24 00
        E 16 83 24 00
        E 16 83 24 00
        E 16 83 24 00
        E 16 83 24 00
        E 16 83 24 00
        E 16 83 24 00
        E 16 83 24 00
        E 16 83 24 00
        E 16 83 24 00
        E 16 83 24 00
        E 16 83 24 00
        E 16 83 24 00
        E 16 83 24 00
        E 16 83 24 00
        E 16 83 24 00
        E 16 83 24 00
        E 16 83 24 00
        E 16 83 24 00
        E 16 83 24 00
        E 16 83 24 00
        E 16 83 24 00
        E 16 83 24 00
        E 16 83 24 00
        E 16 83 24 00
        E 16 83 24 00
        E 16 83 24 00
        E 16 83 24 00
        E 16 83 24 00
        E 16 83 24 00
        E 16 83 24 00
        E 16 83 24 00
        E 16 83 24 00
        E 16 83 24 00
        E 16 83 24 00
        E 16 83 24 00
        E 16 83 24 00
        E 16 83 24 00
        E 16 83 24 00
        E 16 83 24 00
        E 16 83 24 00
        E 16 83 24 00
        E 16 83 24 00
        E 16 83 24 00
        E 16 83 24 00
        E 16 83 24 00
        E 16 83 24 00
        E 16 83 24 00
        E 16 83 24 00
        E 16 83 24 00
        E 16 83 24 00
        E 16 83 24 00
        E 16 83 24 00
        E 16 83 24 00
        E 16 83 24 00
        E 16 83 24 00
        E 16 83 24 00
        E 16 83 24 00
        E 16 83 24 00
        E 16 83 24 00
        E 16 83 24 00
        E 16 83 24 00
        E 16 83 24 00
        E 16 83 24 00
        E 16 83 24 00
        E 16 83 24 00
        E 16 83 24 00
        E 16 83 24 00
        E 16 83 24 00
        E 16 83 24 00
        E 16 83 24 00
        E 16 83 24 00
        E 16 83 24 00
        E 16 83 24 00
        E 16 83 24 00
        E 16 83 24 00
        E 16 83 24 00
        E 16 83 24 00
        E 16 83 24 00
        E 16 83 24 00
        E 16 83 24 00
        E 16 83 24 00
        E 16 83 24 00
        E 16 83 24 00
        E 16 83 24 00
        E 16 83 24 00
        E 16 83 24 00
        E 16 83 24 00
        E 16 83 24 00
        E 16 83 24 00
        E 16 83 24 00
        E 16 83 24 00
        E 16 83 24 00
        E 16 83 24 00
        E 16 83 24 00
        E 16 83 24 00
        E 16 83 24 00
        E 16 83 24 00
        E 16 83 24 00
        E 16 83 24 00
        E 16 83 24 00
        E 16 83 24 00
        E 16 83 24 00
        E 16 83 24 00
        E 16 83 24 00
        E 16 83 24 00
        E 16 83 24 00
        E 16 83 24 00
        E 16 83 24 00
        E 16 83 24 00
        E 16 83 24 00
        E 16 83 24 00
        E 16 83 24 00
        E 16 83 24 00
        E 16 83 24 00
        E 16 83 24 00
        E 16 83 24 00
        E 16 83 24 00
        E 16 83 24 00
        E 16 83 24 00
        E 16 83 24 00
        E 16 83 24 00
        E 16 83 24 00
        E 16 83 24 00
        E 16 83 24 00
        E 16 83 24 00
        E 16 83 24 00
        E 16 83 24 00
        E 16 83 24 00
        E 16 83 24 00
        E 16 83 24 00
        E 16 83 24 00
        E 16 83 24 00
        E 16 83 24 00
        E 16 83 24 00
        E 16 83 24 00
        E 16 83 24 00
        E 16 83 24 00
        E 16 83 24 00
        E 16 83 24 00
        E 16 83 24 00
        E 16 83 24 00
        E 16 83 24 00
        E 16 83 24 00
        E 16 83 24 00
        E 16 83 24 00
        E 16 83 24 00
        E 16 83 24 00
        E 16 83 24 00
        E 16 83 24 00
        E 16 83 24 00
        E 16 83 24 00
        E 16 83 24 00
        E 16 83 24 00
        E 16 83 24 00
        E 16 83 24 00
        E 16 83 24 00
        E 16 83 24 00
        E 16 83 24 00
        E 16 83 24 00
        E 16 83 24 00
        E 16 83 24 00
        E 16 83 24 00
        E 16 83 24 00
        E 16 83 24 00
        E 16 83 24 00
        E 16 83 24 00
        E 16 83 24 00
        E 16 83 24 00
        E 16 83 24 00
        E 16 83 24 00
        E 16 83 24 00
        E 16 83 24 00
        E 16 83 24 00
        E 16 83 24 00
        E 16 83 24 00
        E 16 83 24 00
        E 16 83 24 00
        E 16 83 24 00
        E 16 83 24 00
        E 16 83 24 00
        E 16 83 24 00
        E 16 83 24 00
        E 16 83 24 00
        E 16 83 24 00
        E 16 83 24 00
        E 16 83 24 00
        E 16 83 24 00
        E 16 83 24 00
        E 16 83 24 00
        E 16 83 24 00
        E 16 83 24 00
        E 16 83 24 00
        E 16 83 24 00
        E 16 83 24 00
        E 16 83 24 00
        E 16 83 24 00
        E 16 83 24 00
        E 16 83 24 00
        E 16 83 24 00
        E 16 83 24 00
        E 16 83 24 00
        E 16 83 24 00
        E 16 83 24 00
        E 16 83 24 00
        E 16 83 24 00
        E 16 83 24 00
        E 16 83 24 00
        E 16 83 24 00
        E 16 83 24 00
        E 16 83 24 00
        E 16 83 24 00
        E 16 83 24 00
        E 16 83 24 00
        E 16 83 24 00
        E 16 83 24 00
        E 16 83 24 00
        E 16 83 24 00
        E 16 83 24 00
        E 16 83 24 00
        E 16 83 24 00
        E 16 83 24 00
        E 16 83 24 00
        E 16 83 24 00
        E 16 83 24 00
        E 16 83 24 00
        E 16 83 24 00
        E 16 83 24 00
        E 16 83 24 00
        E 16 83 24 00
        E 16 83 24 00
        E 16 83 24 00
        E 16 83 24 00
        E 16 83 24 00
        E 16 83 24 00
        E 16 83 24 00
        E 16 83 24 00
        E 16 83 24 00
        E 16 83 24 00
        E 16 83 24 00
        E 16 83 24 00
        E 16 83 24 00
        E 16 83 24 00
        E 16 83 24 00
        E 16 83 24 00
        E 16 83 24 00
        E 16 83 24 00
        E 16 83 24 00
        E 16 83 24 00
        E 16 83 24 00
        E 16 83 24 00
        E 16 83 24 00
        E 16 83 24 00
        E 16 83 24 00
        E 16 83 24 00
        E 16 83 24 00
        E 16 83 24 00
        E 16 83 24 00
        E 16 83 24 00
        E 16 83 24 00
        E 16 83 24 00
        E 16 83 24 00
        E 16 83 24 00
        E 16 83 24 00
        E 16 83 24 00
        E 16 83 24 00
        E 16 83 24 00
        E 16 83 24 00
        E 16 83 24 00
        E 16 83 24 00
        E 16 83 24 00
        E 16 83 24 00
        E 16 83 24 00
        E 16 83 24 00
        E 16 83 24 00
        E 16 83 24 00
        E 16 83 24 00
        E 16 83 24 00
        E 16 83 24 00
        E 16 83 24 00
        E 16 83 24 00
        E 16 83 24 00
        E 16 83 24 00
        E 16 83 24 00
        E 16 83 24 00
        E 16 83 24 00
        E 16 83 24 00
        E 16 83 24 00
        E 16 83 24 00
        E 16 83 24 00
        E 16 83 24 00
        E 16 83 24 00
        E 16 83 24 00
        E 16 83 24 00
        E 16 83 24 00
        E 16 83 24 00
        E 16 83 24 00
        E 16 83 24 00
        E 16 83 24 00
        E 16 83 24 00
        E 16 83 24 00
        E 16 83 24 00
        E 16 83 24 00
        E 16 83 24 00
        E 16 83 24 00
        E 16 83 24 00
        E 16 83 24 00
        E 16 83 24 00
        E 16 83 24 00
        E 16 83 24 00
        E 16 83 24 00
        E 16 83 24 00
        E 16 83 24 00
        E 16 83 24 00
        E 16 83 24 00
        E 16 83 24 00
        E 16 83 24 00
        E 16 83 24 00
        E 16 83 24 00
        E 16 83 24 00
        E 16 83 24 00
        E 16 83 24 00
        E 16 83 24 00
        E 16 83 24 00
        E 16 83 24 00
        E 16 83 24 00
        E 16 83 24 00
        E 16 83 24 00
        E 16 83 24 00
        E 16 83 24 00
        E 16 83 24 00
        E 16 83 24 00
        E 16 83 24 00
        E 16 83 24 00
        E 16 83 24 00
        E 16 83 24 00
        E 16 83 24 00
        E 16 83 24 00
        E 16 83 24 00
        E 16 83 24 00
        E 16 83 24 00
        E 16 83 24 00
        E 16 83 24 00
        E 16 83 24 00
        E 16 83 24 00
        E 16 83 24 00
        E 16 83 24 00
        E 16 83 24 00
        E 16 83 24 00
        E 16 83 24 00
        E 16 83 24 00
        E 16 83 24 00
        E 16 83 24 00
        E 16 83 24 00
        E 16 83 24 00
        E 16 83 24 00
        E 16 83 24 00
        E 16 83 24 00
        E 16 83 24 00
        E 16 83 24 00
        E 16 83 24 00
        E 16 83 24 00
        E 16 83 24 00
        E 16 83 24 00
        E 16 83 24 00
        E 16 83 24 00
        E 16 83 24 00
        E 16 83 24 00
        E 16 83 24 00
        E 16 83 24 00
        E 16 83 24 00
        E 16 83 24 00
        E 16 83 24 00
        E 16 83 24 00
        E 16 83 24 00
        E 16 83 24 00
        E 16 83 24 00
        E 16 83 24 00
        E 16 83 24 00
        E 16 83 24 00
        E 16 83 24 00
        E 16 83 24 00
        E 16 83 24 00
        E 16 83 24 00
        E 16 83 24 00
        E 16 83 24 00
        E 16 83 24 00
        E 16 83 24 00
        E 16 83 24 00
        E 16 83 24 00
        E 16 83 24 00
        E 16 83 24 00
        E 16 83 24 00
        E 16 83 24 00
        E 16 83 24 00
        E 16 83 24 00
        E 16 83 24 00
        E 16 83 24 00
        E 16 83 24 00
        E 16 83 24 00
        E 16 83 24 00
        E 16 83 24 00
        E 16 83 24 00
        E 16 83 24 00
        E 16 83 24 00
        E 16 83 24 00
        E 16 83 24 00
        E 16 83 24 00
        E 16 83 24 00
        E 16 83 24 00
        E 16 83 24 00
        E 16 83 24 00
        E 16 83 24 00
        E 16 83 24 00
        E 16 83 24 00
        E 16 83 24 00
        E 16 83 24 00
        E 16 83 24 00
        E 16 83 24 00
        E 16 83 24 00
        E 16 83 24 00
        E 16 83 24 00
        E 16 83 24 00
        E 16 83 24 00
        E 16 83 24 00
        E 16 83 24 00
        E 16 83 24 00
        E 16 83 24 00
        E 16 83 24 00
        E 16 83 24 00
        E 16 83 24 00
        E 16 83 24 00
        E 16 83 24 00
        E 16 83 24 00
        E 16 83 24 00
        E 16 83 24 00
        E 16 83 24 00
        E 16 83 24 00
        E 16 83 24 00
        E 16 83 24 00
        E 16 83 24 00
        E 16 83 24 00
        E 16 83 24 00
        E 16 83 24 00
        E 16 83 24 00
        E 16 83 24 00
        E 16 83 24 00
        E 16 83 24 00
        E 16 83 24 00
        E 16 83 24 00
        E 16 83 24 00
        E 16 83 24 00
        E 16 83 24 00
        E 16 83 24 00
        E 16 83 24 00
        E 16 83 24 00
        E 16 83 24 00
        E 16 83 24 00
        E 16 83 24 00
        E 16 83 24 00
        E 16 83 24 00
        E 16 83 24 00
        E 16 83 24 00
        E 16 83 24 00
        E 16 83 24 00
        E 16 83 24 00
        E 16 83 24 00
        E 16 83 24 00
        E 16 83 24 00
        E 16 83 24 00
        E 16 83 24 00
        E 16 83 24 00
        E 16 83 24 00
        E 16 83 24 00
        E 16 83 24 00
        E 16 83 24 00
        E 16 83 24 00
        E 16 83 24 00
        E 16 83 24 00
        E 16 83 24 00
        E 16 83 24 00
        E 16 83 24 00
        E 16 83 24 00
        E 16 83 24 00
        E 16 83 24 00
        E 16 83 24 00
        E 16 83 24 00
        E 16 83 24 00
        E 16 83 24 00
        E 16 83 24 00
        E 16 83 24 00
        E 16 83 24 00
        E 16 83 24 00
        E 16 83 24 00
        E 16 83 24 00
        E 16 83 24 00
        E 16 83 24 00
        E 16 83 24 00
        E 16 83 24 00
        E 16 83 24 00
        E 16 83 24 00
        E 16 83 24 00
        E 16 83 24 00
        E 16 83 24 00
        E 16 83 24 00
        E 16 83 24 00
        E 16 83 24 00
        E 16 83 24 00
        E 16 83 24 00
        E 16 83 24 00
        E 16 83 24 00
        E 16 83 24 00
        E 16 83 24 00
        E 16 83 24 00
        E 16 83 24 00
        E 16 83 24 00
        E 16 83 24 00
        E 16 83 24 00
        E 16 83 24 00
        E 16 83 24 00
        E 16 83 24 00
        E 16 83 24 00
        E 16 83 24 00
        E 16 83 24 00
        E 16 83 24 00
        E 16 83 24 00
        E 16 83 24 00
        E 16 83 24 00
        E 16 83 24 00
        E 16 83 24 00
        E 16 83 24 00
        E 16 83 24 00
        E 16 83 24 00
        E 16 83 24 00
        E 16 83 24 00
        E 16 83 24 00
        E 16 83 24 00
        E 16 83 24 00
        E 16 83 24 00
        E 16 83 24 00
        E 16 83 24 00
        E 16 83 24 00
        E 16 83 24 00
        E 16 83 24 00
        E 16 83 24 00
        E 16 83 24 00
        E 16 83 24 00
        E 16 83 24 00
        E 16 83 24 00
        E 16 83 24 00
        E 16 83 24 00
        E 16 83 24 00
        E 16 83 24 00
        E 16 83 24 00
        E 16 83 24 00
        E 16 83 24 00
        E 16 83 24 00
        E 16 83 24 00
        E 16 83 24 00
        E 16 83 24 00
        E 16 83 24 00
        E 16 83 24 00
        E 16 83 24 00
        E 16 83 24 00
        E 16 83 24 00
        E 16 83 24 00
        E 16 83 24 00
        E 16 83 24 00
        E 16 83 24 00
        E 16 83 24 00
        E 16 83 24 00
        E 16 83 24 00
        E 16 83 24 00
        E 16 83 24 00
        E 16 83 24 00
        E 16 83 24 00
        E 16 83 24 00
        E 16 83 24 00
        E 16 83 24 00
        E 16 83 24 00
        E 16 83 24 00
        E 16 83 24 00
        E 16 83 24 00
        E 16 83 24 00
        E 16 83 24 00
        E 16 83 24 00
        E 16 83 24 00
        E 16 83 24 00
        E 16 83 24 00
        E 16 83 24 00
        E 16 83 24 00
        E 16 83 24 00
        E 16 83 24 00
        E 16 83 24 00
        E 16 83 24 00
        E 16 83 24 00
        E 16 83 24 00
        E 16 83 24 00
        E 16 83 24 00
        E 16 83 24 00
        E 16 83 24 00
        E 16 83 24 00
        E 16 83 24 00
        E 16 83 24 00
        E 16 83 24 00
        E 16 83 24 00
        E 16 83 24 00
        E 16 83 24 00
        E 16 83 24 00
        E 16 83 24 00
        E 16 83 24 00
        E 16 83 24 00
        E 16 83 24 00
        E 16 83 24 00
        E 16 83 24 00
        E 16 83 24 00
        E 16 83 24 00
        E 16 83 24 00
        E 16 83 24 00
        E 16 83 24 00
        E 16 83 24 00
        E 16 83 24 00
        E 16 83 24 00
        E 16 83 24 00
        E 16 83 24 00
        E 16 83 24 00
        E 16 83 24 00
        E 16 83 24 00
        E 16 83 24 00
        E 16 83 24 00
        E 16 83 24 00
        E 16 83 24 00
        E 16 83 24 00
        E 16 83 24 00
        E 16 83 24 00
        E 16 83 24 00
        E 16 83 24 00
        E 16 83 24 00
        E 16 83 24 00
        E 16 83 24 00
        E 16 83 24 00
        E 16 83 24 00
        E 16 83 24 00
        E 16 83 24 00
        E 16 83 24 00
        E 16 83 24 00
        E 16 83 24 00
        E 16 83 24 00
        E 16 83 24 00
        E 16 83 24 00
        E 16 83 24 00
        E 16 83 24 00
        E 16 83 24 00
        E 16 83 24 00
        E 16 83 24 00
        E 16 83 24 00
        E 16 83 24 00
        E 16 83 24 00
        E 16 83 24 00
        E 16 83 24 00
        E 16 83 24 00
        E 16 83 24 00
        E 16 83 24 00
        E 16 83 24 00
        E 16 83 24 00
        E 16 83 24 00
        E 16 83 24 00
        E 16 83 24 00
        E 16 83 24 00
        E 16 83 24 00
        E 16 83 24 00
        E 16 83 24 00
        E 16 83 24 00
        E 16 83 24 00
        E 16 83 24 00
        E 16 83 24 00
        E 16 83 24 00
        E 16 83 24 00
        E 16 83 24 00
        E 16 83 24 00
        E 16 83 24 00
        E 16 83 24 00
        E 16 83 24 00
        E 16 83 24 00
        E 16 83 24 00
        E 16 83 24 00
        E 16 83 24 00
        E 16 83 24 00
        E 16 83 24 00
        E 16 83 24 00
        E 16 83 24 00
        E 16 83 24 00
        E 16 83 24 00
        E 16 83 24 00
        E 16 83 24 00
        E 16 83 24 00
        E 16 83 24 00
        E 16 83 24 00
        E 16 83 24 00
        E 16 83 24 00
        E 16 83 24 00
        E 16 83 24 00
        E 16 83 24 00
        E 16 83 24 00
        E 16 83 24 00
        E 16 83 24 00
        E 16 83 24 00
        E 16 83 24 00
        E 16 83 24 00
        E 16 83 24 00
        E 16 83 24 00
        E 16 83 24 00
        E 16 83 24 00
        E 16 83 24 00
        E 16 83 24 00
        E 16 83 24 00
        E 16 83 24 00
        E 16 83 24 00
        E 16 83 24 00
        E 16 83 24 00
        E 16 83 24 00
        E 16 83 24 00
        E 16 83 24 00
        E 16 83 24 00
        E 16 83 24 00
        E 16 83 24 00
        E 16 83 24 00
        E 16 83 24 00
        E 16 83 24 00
        E 16 83 24 00
        E 16 83 24 00
        E 16 83 24 00
        E 16 83 24 00
        E 16 83 24 00
        E 16 83 24 00
        E 16 83 24 00
        E 16 83 24 00
        E 16 83 24 00
        E 16 83 24 00
        E 16 83 24 00
        E 16 83 24 00
        E 16 83 24 00
        E 16 83 24 00
        E 16 83 24 00
        E 16 83 24 00
        E 16 83 24 00
        E 16 83 24 00
        E 16 83 24 00
        E 16 83 24 00
        E 16 83 24 00
        E 16 83 24 00
        E 16 83 24 00
        E 16 83 24 00
        E 16 83 24 00
        E 16 83 24 00
        E 16 83 24 00
        E 16 83 24 00
        E 16 83 24 00
        E 16 83 24 00
        E 16 83 24 00
        E 16 83 24 00
        E 16 83 24 00
        E 16 83 24 00
        E 16 83 24 00
        E 16 83 24 00
        E 16 83 24 00
        E 16 83 24 00
        E 16 83 24 00
        E 16 83 24 00
        E 16 83 24 00
        E 16 83 24 00
        E 16 83 24 00
        E 16 83 24 00
        E 16 83 24 00
        E 16 83 24 00
        E 16 83 24 00
        E 16 83 24 00
        E 16 83 24 00
        E 16 83 24 00
        E 16 83 24 00
        E 16 83 24 00
        E 16 83 24 00
        E 16 83 24 00
        E 16 83 24 00
        E 16 83 24 00
        E 16 83 24 00
        E 16 83 24 00
        E 16 83 24 00
        E 16 83 24 00
        E 16 83 24 00
        E 16 83 24 00
        E 16 83 24 00
        E 16 83 24 00
        E 16 83 24 00
        E 16 83 24 00
        E 16 83 24 00
        E 16 83 24 00
        E 16 83 24 00
        E 16 83 24 00
        E 16 83 24 00
        E 16 83 24 00
        E 16 83 24 00
        E 16 83 24 00
        E 16 83 24 00
        E 16 83 24 00
        E 16 83 24 00
        E 16 83 24 00
        E 16 83 24 00
        E 16 83 24 00
        E 16 83 24 00
        E 16 83 24 00
        E 16 83 24 00
        E 16 83 24 00
        E 16 83 24 00
        E 16 83 24 00
        E 16 83 24 00
        E 16 83 24 00
        E 16 83 24 00
        E 16 83 24 00
        E 16 83 24 00
        E 16 83 24 00
        E 16 83 24 00
        E 16 83 24 00
        E 16 83 24 00
        E 16 83 24 00
        E 16 83 24 00
        E 16 83 24 00
        E 16 83 24 00
        E 16 83 24 00
        E 16 83 24 00
        E 16 83 24 00
        E 16 83 24 00
        E 16 83 24 00
        E 16 83 24 00
        E 16 83 24 00
        E 16 83 24 00
        E 16 83 24 00
        E 16 83 24 00
        E 16 83 24 00
        E 16 83 24 00
        E 16 83 24 00
        E 16 83 24 00
        E 16 83 24 00
        E 16 83 24 00
        E 16 83 24 00
        E 16 83 24 00
        E 16 83 24 00
        E 16 83 24 00
        E 16 83 24 00
        E 16 83 24 00
        E 16 83 24 00
        E 16 83 24 00
        E 16 83 24 00
        E 16 83 24 00
        E 16 83 24 00
        E 16 83 24 00
        E 16 83 24 00
        E 16 83 24 00
        E 16 83 24 00
        E 16 83 24 00
        E 16 83 24 00
        E 16 83 24 00
        E 16 83 24 00
        E 16 83 24 00
        E 16 83 24 00
        E 16 83 24 00
        E 16 83 24 00
        E 16 83 24 00
        E 16 83 24 00
        E 16 83 24 00
        E 16 83 24 00
        E 16 83 24 00
        E 16 83 24 00
        E 16 83 24 00
        E 16 83 24 00
        E 16 83 24 00
        E 16 83 24 00
        E 16 83 24 00
        E 16 83 24 00
        E 16 83 24 00
        E 16 83 24 00
        E 16 83 24 00
        E 16 83 24 00
        E 16 83 24 00
        E 16 83 24 00
        E 16 83 24 00
        E 16 83 24 00
        E 16 83 24 00
        E 16 83 24 00
        E 16 83 24 00
        E 16 83 24 00
        E 16 83 24 00
        E 16 83 24 00
        E 16 83 24 00
        E 16 83 24 00
        E 16 83 24 00
        E 16 83 24 00
        E 16 83 24 00
        E 16 83 24 00
        E 16 83 24 00
        E 16 83 24 00
        E 16 83 24 00
        E 16 83 24 00
        E 16 83 24 00
        E 16 83 24 00
        E 16 83 24 00
        E 16 83 24 00
        E 16 83 24 00
        E 16 83 24 00
        E 16 83 24 00
        E 16 83 24 00
        E 16 83 24 00
        E 16 83 24 00
        E 16 83 24 00
        E 16 83 24 00
        E 16 83 24 00
        E 16 83 24 00
        E 16 83 24 00
        E 16 83 24 00
        E 16 83 24 00
        E 16 83 24 00
        E 16 83 24 00
        E 16 83 24 00
        E 16 83 24 00
        E 16 83 24 00
        E 16 83 24 00
        E 16 83 24 00
        E 16 83 24 00
        E 16 83 24 00
        E 16 83 24 00
        E 16 83 24 00
        E 16 83 24 00
        E 16 83 24 00
        E 16 83 24 00
        E 16 83 24 00
        E 16 83 24 00
        E 16 83 24 00
        E 16 83 24 00
        E 16 83 24 00
        E 16 83 24 00
        E 16 83 24 00
        E 16 83 24 00
        E 16 83 24 00
        E 16 83 24 00
        E 16 83 24 00
        E 16 83 24 00
        E 16 83 24 00
        E 16 83 24 00
        E 16 83 24 00
        E 16 83 24 00
        E 16 83 24 00
        E 16 83 24 00
        E 16 83 24 00
        E 16 83 24 00
        E 16 83 24 00
        E 16 83 24 00
        E 16 83 24 00
        E 16 83 24 00
        E 16 83 24 00
        E 16 83 24 00
        E 16 83 24 00
        E 16 83 24 00
        E 16 83 24 00
        E 16 83 24 00
        E 16 83 24 00
        E 16 83 24 00
        E 16 83 24 00
        E 16 83 24 00
        E 16 83 24 00
        E 16 83 24 00
        E 16 83 24 00
        E 16 83 24 00
        E 16 83 24 00
        E 16 83 24 00
        E 16 83 24 00
        E 16 83 24 00
        E 16 83 24 00
        E 16 83 24 00
        E 16 83 24 00
        E 16 83 24 00
        E 16 83 24 00
        E 16 83 24 00
        E 16 83 24 00
        E 16 83 24 00
        E 16 83 24 00
        E 16 83 24 00
        E 16 83 24 00
        E 16 83 24 00
        E 16 83 24 00
        E 16 83 24 00
        E 16 83 24 00
        E 16 83 24 00
        E 16 83 24 00
        E 16 83 24 00
        E 16 83 24 00
        E 16 83 24 00
        E 16 83 24 00
        E 16 83 24 00
        E 16 83 24 00
        E 16 83 24 00
        E 16 83 24 00
        E 16 83 24 00
        E 16 83 24 00
        E 16 83 24 00
        E 16 83 24 00
        E 16 83 24 00
        E 16 83 24 00
        E 16 83 24 00
        E 16 83 24 00
        E 16 83 24 00
        E 16 83 24 00
        E 16 83 24 00
        E 16 83 24 00
        E 16 83 24 00
        E 16 83 24 00
        E 16 83 24 00
        E 16 83 24 00
        E 16 83 24 00
        E 16 83 24 00
        E 16 83 24 00
        E 16 83 24 00
        E 16 83 24 00
        E 16 83 24 00
        E 16 83 24 00
        E 16 83 24 00
        E 16 83 24 00
        E 16 83 24 00
        E 16 83 24 00
        E 16 83 24 00
        E 16 83 24 00
        E 16 83 24 00
        E 16 83 24 00
        E 16 83 24 00
        E 16 83 24 00
        E 16 83 24 00
        E 16 83 24 00
        E 16 83 24 00
        E 16 83 24 00
        E 16 83 24 00
        E 16 83 24 00
        E 16 83 24 00
        E 16 83 24 00
        E 16 83 24 00
        E 16 83 24 00
        E 16 83 24 00
        E 16 83 24 00
        E 16 83 24 00
        E 16 83 24 00
        E 16 83 24 00
        E 16 83 24 00
        E 16 83 24 00
        E 16 83 24 00
        E 16 83 24 00
        E 16 83 24 00
        E 16 83 24 00
        E 16 83 24 00
        E 16 83 24 00
        E 16 83 24 00
        E 16 83 24 00
        E 16 83 24 00
        E 16 83 24 00
        E 16 83 24 00
        E 16 83 24 00
        E 16 83 24 00
        E 16 83 24 00
        E 16 83 24 00
        E 16 83 24 00
        E 16 83 24 00
        E 16 83 24 00
        E 16 83 24 00
        E 16 83 24 00
        E 16 83 24 00
        E 16 83 24 00
        E 16 83 24 00
        E 16 83 24 00
        E 16 83 24 00
        E 16 83 24 00
        E 16 83 24 00
        E 16 83 24 00
        E 16 83 24 00
        E 16 83 24 00
        E 16 83 24 00
        E 16 83 24 00
        E 16 83 24 00
        E 16 83 24 00
        E 16 83 24 00
        E 16 83 24 00
        E 16 83 24 00
        E 16 83 24 00
        E 16 83 24 00
        E 16 83 24 00
        E 16 83 24 00
        E 16 83 24 00
        E 16 83 24 00
        E 16 83 24 00
        E 16 83 24 00
        E 16 83 24 00
        E 16 83 24 00
        E 16 83 24 00
        E 16 83 24 00
        E 16 83 24 00
        E 16 83 24 00
        E 16 83 24 00
        E 16 83 24 00
        E 16 83 24 00
        E 16 83 24 00
        E 16 83 24 00
        E 16 83 24 00
        E 16 83 24 00
        E 16 83 24 00
        E 16 83 24 00
        E 16 83 24 00
        E 16 83 24 00
        E 16 83 24 00
        E 16 83 24 00
        E 16 83 24 00
        E 16 83 24 00
        E 16 83 24 00
        E 16 83 24 00
        E 16 83 24 00
        E 16 83 24 00
        E 16 83 24 00
        E 16 83 24 00
        E 16 83 24 00
        E 16 83 24 00
        E 16 83 24 00
        E 16 83 24 00
        E 16 83 24 00
        E 16 83 24 00
        E 16 83 24 00
        E 16 83 24 00
        E 16 83 24 00
        E 16 83 24 00
        E 16 83 24 00
        E 16 83 24 00
        E 16 83 24 00
        E 16 83 24 00
        E 16 83 24 00
        E 16 83 24 00
        E 16 83 24 00
        E 16 83 24 00
        E 16 83 24 00
        E 16 83 24 00
        E 16 83 24 00
        E 16 83 24 00
        E 16 83 24 00
        E 16 83 24 00
        E 16 83 24 00
        E 16 83 24 00
        E 16 83 24 00
        E 16 83 24 00
        E 16 83 24 00
        E 16 83 24 00
        E 16 83 24 00
        E 16 83 24 00
        E 16 83 24 00
        E 16 83 24 00
        E 16 83 24 00
        E 16 83 24 00
        E 16 83 24 00
        E 16 83 24 00
        E 16 83 24 00
        E 16 83 24 00
        E 16 83 24 00
        E 16 83 24 00
        E 16 83 24 00
        E 16 83 24 00
        E 16 83 24 00
        E 16 83 24 00
        E 16 83 24 00
        E 16 83 24 00
        E 16 83 24 00
        E 16 83 24 00
        E 16 83 24 00
        E 16 83 24 00
        E 16 83 24 00
        E 16 83 24 00
        E 16 83 24 00
        E 16 83 24 00
        E 16 83 24 00
        E 16 83 24 00
        E 16 83 24 00
        E 16 83 24 00
        E 16 83 24 00
        E 16 83 24 00
        E 16 83 24 00
        E 16 83 24 00
        E 16 83 24 00
        E 16 83 24 00
        E 16 83 24 00
        E 16 83 24 00
        E 16 83 24 00
        E 16 83 24 00
        E 16 83 24 00
        E 16 83 24 00
        E 16 83 24 00
        E 16 83 24 00
        E 16 83 24 00
        E 16 83 24 00
        E 16 83 24 00
        E 16 83 24 00
        E 16 83 24 00
        E 16 83 24 00
        E 16 83 24 00
        E 16 83 24 00
        E 16 83 24 00
        E 16 83 24 00
        E 16 83 24 00
        E 16 83 24 00
        E 16 83 24 00
        E 16 83 24 00
        E 16 83 24 00
        E 16 83 24 00
        E 16 83 24 00
        E 16 83 24 00
        E 16 83 24 00
        E 16 83 24 00
        E 16 83 24 00
        E 16 83 24 00
        E 16 83 24 00
        E 16 83 24 00
        E 16 83 24 00
        E 16 83 24 00
        E 16 83 24 00
        E 16 83 24 00
        E 16 83 24 00
        E 16 83 24 00
        E 16 83 24 00
        E 16 83 24 00
        E 16 83 24 00
        E 16 83 24 00
        E 16 83 24 00
        E 16 83 24 00
        E 16 83 24 00
        E 16 83 24 00
        E 16 83 24 00
        E 16 83 24 00
        E 16 83 24 00
        E 16 83 24 00
        E 16 83 24 00
        E 16 83 24 00
        E 16 83 24 00
        E 16 83 24 00
        E 16 83 24 00
        E 16 83 24 00
        E 16 83 24 00
        E 16 83 24 00
        E 16 83 24 00
        E 16 83 24 00
        E 16 83 24 00
        E 16 83 24 00
        E 16 83 24 00
        E 16 83 24 00
        E 16 83 24 00
        E 16 83 24 00
        E 16 83 24 00
        E 16 83 24 00
        E 16 83 24 00
        E 16 83 24 00
        E 16 83 24 00
        E 16 83 24 00
        E 16 83 24 00
        E 16 83 24 00
        E 16 83 24 00
        E 16 83 24 00
        E 16 83 24 00
        E 16 83 24 00
        E 16 83 24 00
        E 16 83 24 00
        E 16 83 24 00
        E 16 83 24 00
        E 16 83 24 00
        E 16 83 24 00
        E 16 83 24 00
        E 16 83 24 00
        E 16 83 24 00
        E 16 83 24 00
        E 16 83 24 00
        E 16 83 24 00
        E 16 83 24 00
        E 16 83 24 00
        E 16 83 24 00
        E 16 83 24 00
        E 16 83 24 00
        E 16 83 24 00
        E 16 83 24 00
        E 16 83 24 00
        E 16 83 24 00
        E 16 83 24 00
        E 16 83 24 00
        E 16 83 24 00
        E 16 83 24 00
        E 16 83 24 00
        E 16 83 24 00
        E 16 83 24 00
        E 16 83 24 00
        E 16 83 24 00
        E 16 83 24 00
        E 16 83 24 00
        E 16 83 24 00
        E 16 83 24 00
        E 16 83 24 00
        E 16 83 24 00
        E 16 83 24 00
        E 16 83 24 00
        E 16 83 24 00
        E 16 83 24 00
        E 16 83 24 00
        E 16 83 24 00
        E 16 83 24 00
        E 16 83 24 00
        E 16 83 24 00
        E 16 83 24 00
        E 16 83 24 00
        E 16 83 24 00
        E 16 83 24 00
        E 16 83 24 00
        E 16 83 24 00
        E 16 83 24 00
        E 16 83 24 00
        E 16 83 24 00
        E 16 83 24 00
        E 16 83 24 00
        E 16 83 24 00
        E 16 83 24 00
        E 16 83 24 00
        E 16 83 24 00
        E 16 83 24 00
        E 16 83 24 00
        E 16 83 24 00
        E 16 83 24 00
        E 16 83 24 00
        E 16 83 24 00
        E 16 83 24 00
        E 16 83 24 00
        E 16 83 24 00
        E 16 83 24 00
        E 16 83 24 00
        E 16 83 24 00
        E 16 83 24 00
        E 16 83 24 00
        E 16 83 24 00
        E 16 83 24 00
        E 16 83 24 00
        E 16 83 24 00
        E 16 83 24 00
        E 16 83 24 00
        E 16 83 24 00
        E 16 83 24 00
        E 16 83 24 00
        E 16 83 24 00
        E 16 83 24 00
        E 16 83 24 00
        E 16 83 24 00
        E 16 83 24 00
        E 16 83 24 00
        E 16 83 24 00
        E 16 83 24 00
        E 16 83 24 00
        E 16 83 24 00
        E 16 83 24 00
        E 16 83 24 00
        E 16 83 24 00
        E 16 83 24 00
        E 16 83 24 00
        E 16 83 24 00
        E 16 83 24 00
        E 16 83 24 00
        E 16 83 24 00
        E 16 83 24 00
        E 16 83 24 00
        E 16 83 24 00
        E 16 83 24 00
        E 16 83 24 00
        E 16 83 24 00
        E 16 83 24 00
        E 16 83 24 00
        E 16 83 24 00
        E 16 83 24 00
        E 16 83 24 00
        E 16 83 24 00
        E 16 83 24 00
        E 16 83 24 00
        E 16 83 24 00
        E 16 83 24 00
        E 16 83 24 00
        E 16 83 24 00
        E 16 83 24 00
        E 16 83 24 00
        E 16 83 24 00
        E 16 83 24 00
        E 16 83 24 00
        E 16 83 24 00
        E 16 83 24 00
        E 16 83 24 00
        E 16 83 24 00
        E 16 83 24 00
        E 16 83 24 00
        E 16 83 24 00
        E 16 83 24 00
        E 16 83 24 00
        E 16 83 24 00
        E 16 83 24 00
        E 16 83 24 00
        E 16 83 24 00
        E 16 83 24 00
        E 16 83 24 00
        E 16 83 24 00
        E 16 83 24 00
        E 16 83 24 00
        E 16 83 24 00
        E 16 83 24 00
        E 16 83 24 00
        E 16 83 24 00
        E 16 83 24 00
        E 16 83 24 00
        E 16 83 24 00
        E 16 83 24 00
        E 16 83 24 00
        E 16 83 24 00
        E 16 83 24 00
        E 16 83 24 00
        E 16 83 24 00
        E 16 83 24 00
        E 16 83 24 00
        E 16 83 24 00
        E 16 83 24 00
        E 16 83 24 00
        E 16 83 24 00
        E 16 83 24 00
        E 16 83 24 00
        E 16 83 24 00
        E 16 83 24 00
        E 16 83 24 00
        E 16 83 24 00
        E 16 83 24 00
        E 16 83 24 00
        E 16 83 24 00
        E 16 83 24 00
        E 16 83 24 00
        E 16 83 24 00
        E 16 83 24 00
        E 16 83 24 00
        E 16 83 24 00
        E 16 83 24 00
        E 16 83 24 00
        E 16 83 24 00
        E 16 83 24 00
        E 16 83 24 00
        E 16 83 24 00
        E 16 83 24 00
        E 16 83 24 00
        E 16 83 24 00
        E 16 83 24 00
        E 16 83 24 00
        E 16 83 24 00
        E 16 83 24 00
        E 16 83 24 00
        E 16 83 24 00
        E 16 83 24 00
        E 16 83 24 00
        E 16 83 24 00
        E 16 83 24 00
        E 16 83 24 00
        E 16 83 24 00
        E 16 83 24 00
        E 16 83 24 00
        E 16 83 24 00
        E 16 83 24 00
        E 16 83 24 00
        E 16 83 24 00
        E 16 83 24 00
        E 16 83 24 00
        E 16 83 24 00
        E 16 83 24 00
        E 16 83 24 00
        E 16 83 24 00
        E 16 83 24 00
        E 16 83 24 00
        E 16 83 24 00
        E 16 83 24 00
        E 16 83 24 00
        E 16 83 24 00
        E 16 83 24 00
        E 16 83 24 00
        E 16 83 24 00
        E 16 83 24 00
        E 16 83 24 00
        E 16 83 24 00
        E 16 83 24 00
        E 16 83 24 00
        E 16 83 24 00
        E 16 83 24 00
        E 16 83 24 00
        E 16 83 24 00
        E 16 83 24 00
        E 16 83 24 00
        E 16 83 24 00
        E 16 83 24 00
        E 16 83 24 00
        E 16 83 24 00
        E 16 83 24 00
        E 16 83 24 00
        E 16 83 24 00
        E 16 83 24 00
        E 16 83 24 00
        E 16 83 24 00
        E 16 83 24 00
        E 16 83 24 00
        E 16 83 24 00
        E 16 83 24 00
        E 16 83 24 00
        E 16 83 24 00
        E 16 83 24 00
        E 16 83 24 00
        E 16 83 24 00
        E 16 83 24 00
        E 16 83 24 00
        E 16 83 24 00
        E 16 83 24 00
        E 16 83 24 00
        E 16 83 24 00
        E 16 83 24 00
        E 16 83 24 00
        E 16 83 24 00
        E 16 83 24 00
        E 16 83 24 00
        E 16 83 24 00
        E 16 83 24 00
        E 16 83 24 00
        E 16 83 24 00
        E 16 83 24 00
        E 16 83 24 00
        E 16 83 24 00
        E 16 83 24 00
        E 16 83 24 00
        E 16 83 24 00
        E 16 83 24 00
        E 16 83 24 00
        E 16 83 24 00
        E 16 83 24 00
        E 16 83 24 00
        E 16 83 24 00
        E 16 83 24 00
        E 16 83 24 00
        E 16 83 24 00
        E 16 83 24 00
        E 16 83 24 00
        E 16 83 24 00
        E 16 83 24 00
        E 16 83 24 00
        E 16 83 24 00
        E 16 83 24 00
        E 16 83 24 00
        E 16 83 24 00
        E 16 83 24 00
        E 16 83 24 00
        E 16 83 24 00
        E 16 83 24 00
        E 16 83 24 00
        E 16 83 24 00
        E 16 83 24 00
        E 16 83 24 00
        E 16 83 24 00
        E 16 83 24 00
        E 16 83 24 00
        E 16 83 24 00
        E 16 83 24 00
        E 16 83 24 00
        E 16 83 24 00
        E 16 83 24 00
        E 16 83 24 00
        E 16 83 24 00
        E 16 83 24 00
        E 16 83 24 00
        E 16 83 24 00
        E 16 83 24 00
        E 16 83 24 00
        E 16 83 24 00
        E 16 83 24 00
        E 16 83 24 00
        E 16 83 24 00
        E 16 83 24 00
        E 16 83 24 00
        E 16 83 24 00
        E 16 83 24 00
        E 16 83 24 00
        E 16 83 24 00
        E 16 83 24 00
        E 16 83 24 00
        E 16 83 24 00
        E 16 83 24 00
        E 16 83 24 00
        E 16 83 24 00
        E 16 83 24 00
        E 16 83 24 00
        E 16 83 24 00
        E 16 83 24 00
        E 16 83 24 00
        E 16 83 24 00
        E 16 83 24 00
        E 16 83 24 00
        E 16 83 24 00
        E 16 83 24 00
        E 16 83 24 00
        E 16 83 24 00
        E 16 83 24 00
        E 16 83 24 00
        E 16 83 24 00
        E 16 83 24 00
        E 16 83 24 00
        E 16 83 24 00
        E 16 83 24 00
        E 16 83 24 00
        E 16 83 24 00
        E 16 83 24 00
        E 16 83 24 00
        E 16 83 24 00
        E 16 83 24 00
        E 16 83 24 00
        E 16 83 24 00
        E 16 83 24 00
        E 16 83 24 00
        E 16 83 24 00
        E 16 83 24 00
        E 16 83 24 00
        E 16 83 24 00
        E 16 83 24 00
        E 16 83 24 00
        E 16 83 24 00
        E 16 83 24 00
        E 16 83 24 00
        E 16 83 24 00
        E 16 83 24 00
        E 16 83 24 00
        E 16 83 24 00
        E 16 83 24 00
        E 16 83 24 00
        E 16 83 24 00
        E 16 83 24 00
        E 16 83 24 00
        E 16 83 24 00
        E 16 83 24 00
        E 16 83 24 00
        E 16 83 24 00
        E 16 83 24 00
        E 16 83 24 00
        E 16 83 24 00
        E 16 83 24 00
        E 16 83 24 00
        E 16 83 24 00
        E 16 83 24 00
        E 16 83 24 00
        E 16 83 24 00
        E 16 83 24 00
        E 16 83 24 00
        E 16 83 24 00
        E 16 83 24 00
        E 16 83 24 00
        E 16 83 24 00
        E 80 93 2a 38
        E 176 83 2a 00
        E 16 83 2a 00
        E 16 83 2a 00
        E 64 93 26 38
        E 176 83 26 00
        E 16 83 26 00
        E 16 83 26 00
        E 48 93 2a 38
        E 160 83 2a 00
        E 16 83 2a 00
        E 16 83 2a 00
        E 80 93 24 38
        E 160 83 24 00
        E 16 83 24 00
        E 16 83 24 00
        E 80 93 2a 38
        E 176 83 2a 00
        E 16 83 2a 00
        E 80 93 26 38
        E 176 83 26 00
        E 16 83 26 00
        E 16 83 26 00
        E 64 93 2a 38
        E 176 83 2a 00
        E 16 83 2a 00
        E 16 83 2a 00
        E 48 93 24 38
        E 160 83 24 00
        E 16 83 24 00
        E 16 83 24 00
        E 80 93 2a 38
        E 160 83 2a 00
        E 16 83 2a 00
        E 16 83 2a 00
        E 80 93 26 38
        E 176 83 26 00
        E 16 83 26 00
        E 16 83 26 00
        E 64 93 2a 38
        E 176 83 2a 00
        E 16 83 2a 00
        E 16 83 2a 00
        E 48 93 24 38
        E 160 83 24 00
        E 16 83 24 00
        E 16 83 24 00
        E 80 93 2a 38
        E 160 83 2a 00
        E 16 83 2a 00
        E 16 83 2a 00
        E 80 93 26 38
        E 160 83 26 00
        E 16 83 26 00
        E 16 83 26 00
        E 80 93 2a 38
        E 176 83 2a 00
        E 16 83 2a 00
        E 16 83 2a 00
        E 64 93 24 38
        E 176 83 24 00
        E 16 83 24 00
        E 16 83 24 00
        E 48 93 2a 38
        E 160 83 2a 00
        E 16 83 2a 00
        E 16 83 2a 00
        E 80 93 26 38
        E 160 83 26 00
        E 16 83 26 00
        E 16 83 26 00
        E 80 93 2a 38
        E 176 83 2a 00
        E 16 83 2a 00
        E 80 93 24 38
        E 176 83 24 00
        E 16 83 24 00
        E 16 83 24 00
        E 64 93 2a 38
        E 176 83 2a 00
        E 16 83 2a 00
        E 16 83 2a 00
        E 48 93 26 38
        E 160 83 26 00
        E 16 83 26 00
        E 16 83 26 00
        E 80 93 2a 38
        E 160 83 2a 00
        E 16 83 2a 00
        E 16 83 2a 00
        E 80 93 24 38
        E 176 83 24 00
        E 16 83 24 00
        E 80 93 2a 38
        E 176 83 2a 00
        E 16 83 2a 00
        E 16 83 2a 00
        E 48 93 26 38
        E 160 83 26 00
        E 16 83 26 00
        E 16 83 26 00
        E 80 93 2a 38
        E 160 83 2a 00
        E 16 83 2a 00
        E 16 83 2a 00
        E 80 93 24 38
        E 160 83 24 00
        E 16 83 24 00
        E 16 83 24 00
        E 80 93 2a 38
        E 176 83 2a 00
        E 16 83 2a 00
        E 16 83 2a 00
        E 64 93 26 38
        E 176 83 26 00
        E 16 83 26 00
        E 16 83 26 00
        E 48 93 2a 38
        E 160 83 2a 00
        E 16 83 2a 00
        E 16 83 2a 00
        E 80 93 24 38
        E 160 83 24 00
        E 16 83 24 00
        E 16 83 24 00
        E 80 93 2a 38
        E 176 83 2a 00
        E 16 83 2a 00
        E 80 93 26 38
        E 176 83 26 00
        E 16 83 26 00
        E 16 83 26 00
        E 64 93 2a 38
        E 176 83 2a 00
        E 16 83 2a 00
        E 16 83 2a 00
        E 48 93 24 38
        E 160 83 24 00
        E 16 83 24 00
        E 16 83 24 00
        E 80 93 2a 38
        E 160 83 2a 00
        E 16 83 2a 00
        E 16 83 2a 00
        E 80 93 26 38
        E 176 83 26 00
        E 16 83 26 00
        E 80 93 2a 38
        E 176 83 2a 00
        E 16 83 2a 00
        E 16 83 2a 00
        E 64 93 24 38
        E 176 83 24 00
        E 16 83 24 00
        E 16 83 24 00
        E 48 93 2a 38
        E 160 83 2a 00
        E 16 83 2a 00
        E 16 83 2a 00
        E 80 93 26 38
        E 160 83 26 00
        E 16 83 26 00
        E 16 83 26 00
        E 80 93 2a 38
        E 176 83 2a 00
        E 16 83 2a 00
        E 16 83 2a 00
        E 64 93 24 38
        E 176 83 24 00
        E 16 83 24 00
        E 16 83 24 00
        E 48 93 2a 38
        E 160 83 2a 00
        E 16 83 2a 00
        E 16 83 2a 00
        E 80 93 26 38
        E 160 83 26 00
        E 16 83 26 00
        E 16 83 26 00
        E 80 93 2a 38
        E 160 83 2a 00
        E 16 83 2a 00
        E 16 83 2a 00
        E 80 93 2a 40
        E 208 83 2a 00
        E 16 83 2a 00
        E 16 83 2a 00
        E 16 83 2a 00
        E 16 83 2a 00
        E 16 83 2a 00
        E 16 83 2a 00
        E 16 83 2a 00
        E 16 83 2a 00
        E 16 83 2a 00
        E 16 83 2a 00
        E 16 83 2a 00
        E 16 83 2a 00
        E 16 83 2a 00
        E 16 83 2a 00
        E 16 83 2a 00
        E 16 83 2a 00
        E 16 83 2a 00
        E 16 83 2a 00
        E 16 83 2a 00
        E 16 83 2a 00
        E 16 83 2a 00
        E 16 83 2a 00
        E 16 83 2a 00
        E 16 83 2a 00
        E 16 83 2a 00
        E 16 83 2a 00
        E 16 83 2a 00
        E 16 83 2a 00
        E 16 83 2a 00
        E 16 83 2a 00
        E 16 83 2a 00
        E 16 83 2a 00
        E 16 83 2a 00
        E 16 83 2a 00
        E 16 83 2a 00
        E 16 83 2a 00
        E 16 83 2a 00
        E 16 83 2a 00
        E 16 83 2a 00
        E 16 83 2a 00
        E 16 83 2a 00
        E 16 83 2a 00
        E 16 83 2a 00
        E 16 83 2a 00
        E 16 83 2a 00
        E 16 83 2a 00
        E 16 83 2a 00
        E 16 83 2a 00
        E 16 83 2a 00
        E 16 83 2a 00
        E 16 83 2a 00
        E 16 83 2a 00
        E 16 83 2a 00
        E 16 83 2a 00
        E 16 83 2a 00
        E 16 83 2a 00
        E 16 83 2a 00
        E 16 83 2a 00
        E 16 83 2a 00
        E 16 83 2a 00
        E 16 83 2a 00
        E 16 83 2a 00
        E 16 83 2a 00
        E 16 83 2a 00
        E 16 83 2a 00
        E 16 83 2a 00
        E 16 83 2a 00
        E 16 83 2a 00
        E 16 83 2a 00
        E 16 83 2a 00
        E 16 83 2a 00
        E 16 83 2a 00
        E 16 83 2a 00
        E 16 83 2a 00
        E 16 83 2a 00
        E 16 83 2a 00
        E 16 83 2a 00
        E 16 83 2a 00
        E 16 83 2a 00
        E 16 83 2a 00
        E 16 83 2a 00
        E 16 83 2a 00
        E 16 83 2a 00
        E 16 83 2a 00
        E 16 83 2a 00
        E 16 83 2a 00
        E 16 83 2a 00
        E 16 83 2a 00
        E 16 83 2a 00
        E 16 83 2a 00
        E 16 83 2a 00
        E 16 83 2a 00
        E 16 83 2a 00
        E 16 83 2a 00
        E 16 83 2a 00
        E 16 83 2a 00
        E 16 83 2a 00
        E 16 83 2a 00
        E 16 83 2a 00
        E 16 83 2a 00
        E 16 83 2a 00
        E 16 83 2a 00
        E 16 83 2a 00
        E 16 83 2a 00
        E 16 83 2a 00
        E 16 83 2a 00
        E 16 83 2a 00
        E 16 83 2a 00
        E 16 83 2a 00
        E 16 83 2a 00
        E 16 83 2a 00
        E 16 83 2a 00
        E 16 83 2a 00
        E 16 83 2a 00
        E 16 83 2a 00
        E 16 83 2a 00
        E 16 83 2a 00
        E 16 83 2a 00
        E 16 83 2a 00
        E 16 83 2a 00
        E 16 83 2a 00
        E 16 83 2a 00
        E 16 83 2a 00
        E 16 83 2a 00
        E 16 83 2a 00
        E 16 83 2a 00
        E 16 83 2a 00
        E 16 83 2a 00
        E 16 83 2a 00
        E 16 83 2a 00
        E 16 83 2a 00
        E 16 83 2a 00
        E 16 83 2a 00
        E 16 83 2a 00
        E 16 83 2a 00
        E 16 83 2a 00
        E 16 83 2a 00
        E 16 83 2a 00
        E 16 83 2a 00
        E 16 83 2a 00
        E 16 83 2a 00
        E 16 83 2a 00
        E 16 83 2a 00
        E 16 83 2a 00
        E 16 83 2a 00
        E 16 83 2a 00
        E 16 83 2a 00
        E 16 83 2a 00
        E 16 83 2a 00
        E 16 83 2a 00
        E 16 83 2a 00
        E 16 83 2a 00
        E 16 83 2a 00
        E 16 83 2a 00
        E 16 83 2a 00
        E 16 83 2a 00
        E 16 83 2a 00
        E 16 83 2a 00
        E 16 83 2a 00
        E 16 83 2a 00
        E 16 83 2a 00
        E 16 83 2a 00
        E 16 83 2a 00
        E 16 83 2a 00
        E 16 83 2a 00
        E 16 83 2a 00
        E 16 83 2a 00
        E 16 83 2a 00
        E 16 83 2a 00
        E 16 83 2a 00
        E 16 83 2a 00
        E 16 83 2a 00
        E 16 83 2a 00
        E 16 83 2a 00
        E 16 83 2a 00
        E 16 83 2a 00
        E 16 83 2a 00
        E 16 83 2a 00
        E 16 83 2a 00
        E 16 83 2a 00
        E 16 83 2a 00
        E 16 83 2a 00
        E 16 83 2a 00
        E 16 83 2a 00
        E 16 83 2a 00
        E 16 83 2a 00
        E 16 83 2a 00
        E 16 83 2a 00
        E 16 83 2a 00
        E 16 83 2a 00
        E 16 83 2a 00
        E 16 83 2a 00
        E 16 83 2a 00
        E 16 83 2a 00
        E 16 83 2a 00
        E 16 83 2a 00
        E 16 83 2a 00
        E 16 83 2a 00
        E 16 83 2a 00
        E 16 83 2a 00
        E 16 83 2a 00
        E 16 83 2a 00
        E 16 83 2a 00
        E 16 83 2a 00
        E 16 83 2a 00
        E 16 83 2a 00
        E 16 83 2a 00
        E 16 83 2a 00
        E 16 83 2a 00
        E 16 83 2a 00
        E 16 83 2a 00
        E 16 83 2a 00
        E 16 83 2a 00
        E 16 83 2a 00
        E 16 83 2a 00
        E 16 83 2a 00
        E 16 83 2a 00
        E 16 83 2a 00
        E 16 83 2a 00
        E 16 83 2a 00
        E 16 83 2a 00
        E 16 83 2a 00
        E 16 83 2a 00
        E 16 83 2a 00
        E 16 83 2a 00
        E 16 83 2a 00
        E 16 83 2a 00
        E 16 83 2a 00
        E 16 83 2a 00
        E 16 83 2a 00
        E 16 83 2a 00
        E 16 83 2a 00
        E 16 83 2a 00
        E 16 83 2a 00
        E 16 83 2a 00
        E 16 83 2a 00
        E 16 83 2a 00
        E 16 83 2a 00
        E 16 83 2a 00
        E 16 83 2a 00
        E 16 83 2a 00
        E 16 83 2a 00
        E 16 83 2a 00
        E 16 83 2a 00
        E 16 83 2a 00
        E 16 83 2a 00
        E 16 83 2a 00
        E 16 83 2a 00
        E 16 83 2a 00
        E 16 83 2a 00
        E 16 83 2a 00
        E 16 83 2a 00
        E 16 83 2a 00
        E 16 83 2a 00
        E 16 83 2a 00
        E 16 93 2a 78
        E 32 83 2a 00
        E 4272 93 2a 78
        E 32 83 2a 00
        E 4256 93 24 38
        E 208 83 24 00
        E 16 83 24 00
        E 16 83 24 00
        E 16 83 24 00
        E 16 83 24 00
        E 16 83 24 00
        E 16 83 24 00
        E 16 83 24 00
        E 16 83 24 00
        E 16 83 24 00
        E 16 83 24 00
        E 16 83 24 00
        E 16 83 24 00
        E 16 83 24 00
        E 16 83 24 00
        E 16 83 24 00
        E 16 83 24 00
        E 16 83 24 00
        E 16 83 24 00
        E 16 83 24 00
        E 16 83 24 00
        E 16 83 24 00
        E 16 83 24 00
        E 16 83 24 00
        E 16 83 24 00
        E 16 83 24 00
        E 16 83 24 00
        E 16 83 24 00
        E 16 83 24 00
        E 16 83 24 00
        E 16 83 24 00
        E 16 83 24 00
        E 16 83 24 00
        E 16 83 24 00
        E 16 83 24 00
        E 16 83 24 00
        E 16 83 24 00
        E 16 83 24 00
        E 16 83 24 00
        E 16 83 24 00
        E 16 83 24 00
        E 16 83 24 00
        E 16 83 24 00
        E 16 83 24 00
        E 16 83 24 00
        E 16 83 24 00
        E 16 83 24 00
        E 16 83 24 00
        E 16 83 24 00
        E 16 83 24 00
        E 16 83 24 00
        E 16 83 24 00
        E 16 83 24 00
        E 16 83 24 00
        E 16 83 24 00
        E 16 83 24 00
        E 16 83 24 00
        E 16 83 24 00
        E 16 83 24 00
        E 16 83 24 00
        E 16 83 24 00
        E 16 83 24 00
        E 16 83 24 00
        E 16 83 24 00
        E 16 83 24 00
        E 16 83 24 00
        E 16 83 24 00
        E 16 83 24 00
        E 16 83 24 00
        E 16 83 24 00
        E 16 83 24 00
        E 16 83 24 00
        E 16 83 24 00
        E 16 83 24 00
        E 16 83 24 00
        E 16 83 24 00
        E 16 83 24 00
        E 16 83 24 00
        E 16 83 24 00
        E 16 83 24 00
        E 16 83 24 00
        E 16 83 24 00
        E 16 83 24 00
        E 16 83 24 00
        E 16 83 24 00
        E 16 83 24 00
        E 16 83 24 00
        E 16 83 24 00
        E 16 83 24 00
        E 16 83 24 00
        E 16 83 24 00
        E 16 83 24 00
        E 16 83 24 00
        E 16 83 24 00
        E 16 83 24 00
        E 16 83 24 00
        E 16 83 24 00
        E 16 83 24 00
        E 16 83 24 00
        E 16 83 24 00
        E 16 83 24 00
        E 16 83 24 00
        E 16 83 24 00
        E 16 83 24 00
        E 16 83 24 00
        E 16 83 24 00
        E 16 83 24 00
        E 16 83 24 00
        E 16 83 24 00
        E 16 83 24 00
        E 16 83 24 00
        E 16 83 24 00
        E 16 83 24 00
        E 16 83 24 00
        E 16 83 24 00
        E 16 83 24 00
        E 16 83 24 00
        E 16 83 24 00
        E 16 83 24 00
        E 16 83 24 00
        E 16 83 24 00
        E 16 83 24 00
        E 16 83 24 00
        E 16 83 24 00
        E 16 83 24 00
        E 16 83 24 00
        E 16 83 24 00
        E 16 83 24 00
        E 16 83 24 00
        E 16 83 24 00
        E 16 83 24 00
        E 16 83 24 00
        E 16 83 24 00
        E 16 83 24 00
        E 16 83 24 00
        E 64 93 2a 38
        E 176 83 2a 00
        E 16 83 2a 00
        E 16 83 2a 00
        E 48 93 26 38
        E 160 83 26 00
        E 16 83 26 00
        E 16 83 26 00
        E 80 93 2a 38
        E 160 83 2a 00
        E 16 83 2a 00
        E 16 83 2a 00
        E 80 93 24 38
        E 160 83 24 00
        E 16 83 24 00
        E 16 83 24 00
        E 80 93 2a 38
        E 176 83 2a 00
        E 16 83 2a 00
        E 16 83 2a 00
        E 64 93 26 38
        E 176 83 26 00
        E 16 83 26 00
        E 16 83 26 00
        E 48 93 2a 38
        E 160 83 2a 00
        E 16 83 2a 00
        E 16 83 2a 00
        E 80 93 24 38
        E 160 83 24 00
        E 16 83 24 00
        E 16 83 24 00
        E 80 93 2a 38
        E 176 83 2a 00
        E 16 83 2a 00
        E 80 93 26 38
        E 176 83 26 00
        E 16 83 26 00
        E 16 83 26 00
        E 64 93 2a 38
        E 176 83 2a 00
        E 16 83 2a 00
        E 16 83 2a 00
        E 48 93 24 38
        E 160 83 24 00
        E 16 83 24 00
        E 16 83 24 00
        E 80 93 2a 38
        E 160 83 2a 00
        E 16 83 2a 00
        E 16 83 2a 00
        E 80 93 26 38
        E 176 83 26 00
        E 16 83 26 00
        E 16 83 26 00
        E 64 93 2a 38
        E 176 83 2a 00
        E 16 83 2a 00
        E 16 83 2a 00
        E 48 93 24 38
        E 160 83 24 00
        E 16 83 24 00
        E 16 83 24 00
        E 80 93 2a 38
        E 160 83 2a 00
        E 16 83 2a 00
        E 16 83 2a 00
        E 80 93 26 38
        E 160 83 26 00
        E 16 83 26 00
        E 16 83 26 00
        E 80 93 2a 38
        E 176 83 2a 00
        E 16 83 2a 00
        E 16 83 2a 00
        E 64 93 24 38
        E 176 83 24 00
        E 16 83 24 00
        E 16 83 24 00
        E 48 93 2a 38
        E 160 83 2a 00
        E 16 83 2a 00
        E 16 83 2a 00
        E 80 93 26 38
        E 160 83 26 00
        E 16 83 26 00
        E 16 83 26 00
        E 80 93 2a 38
        E 176 83 2a 00
        E 16 83 2a 00
        E 80 93 24 38
        E 208 83 24 00
        E 16 83 24 00
        E 16 83 24 00
        E 16 83 24 00
        E 16 83 24 00
        E 16 83 24 00
        E 16 83 24 00
        E 16 83 24 00
        E 16 83 24 00
        E 16 83 24 00
        E 16 83 24 00
        E 16 83 24 00
        E 16 83 24 00
        E 16 83 24 00
        E 16 83 24 00
        E 16 83 24 00
        E 16 83 24 00
        E 16 83 24 00
        E 48 93 26 38
        E 160 83 26 00
        E 16 83 26 00
        E 16 83 26 00
        E 80 93 2a 38
        E 160 83 2a 00
        E 16 83 2a 00
        E 16 83 2a 00
        E 80 93 24 38
        E 176 83 24 00
        E 16 83 24 00
        E 16 83 24 00
        E 64 93 2a 38
        E 176 83 2a 00
        E 16 83 2a 00
        E 16 83 2a 00
        E 48 93 26 38
        E 160 83 26 00
        E 16 83 26 00
        E 16 83 26 00
        E 80 93 2a 38
        E 160 83 2a 00
        E 16 83 2a 00
        E 16 83 2a 00
        E 80 93 24 58
        E 208 83 24 00
        E 16 83 24 00
        E 16 83 24 00
        E 16 83 24 00
        E 16 83 24 00
        E 16 83 24 00
        E 16 83 24 00
        E 16 83 24 00
        E 16 83 24 00
        E 16 83 24 00
        E 16 83 24 00
        E 16 83 24 00
        E 16 83 24 00
        E 16 83 24 00
        E 16 83 24 00
        E 16 83 24 00
        E 16 83 24 00
        E 16 83 24 00
        E 16 83 24 00
        E 16 83 24 00
        E 16 83 24 00
        E 16 83 24 00
        E 16 83 24 00
        E 16 83 24 00
        E 16 83 24 00
        E 16 83 24 00
        E 16 83 24 00
        E 16 83 24 00
        E 16 83 24 00
        E 16 83 24 00
        E 16 83 24 00
        E 16 83 24 00
        E 16 83 24 00
        E 16 83 24 00
        E 16 83 24 00
        E 16 83 24 00
        E 16 83 24 00
        E 16 83 24 00
        E 16 83 24 00
        E 16 83 24 00
        E 16 83 24 00
        E 16 83 24 00
        E 16 83 24 00
        E 16 83 24 00
        E 16 83 24 00
        E 16 83 24 00
        E 16 83 24 00
        E 16 83 24 00
        E 16 83 24 00
        E 16 83 24 00
        E 16 83 24 00
        E 16 83 24 00
        E 16 83 24 00
        E 16 83 24 00
        E 16 83 24 00
        E 16 83 24 00
        E 16 83 24 00
        E 16 83 24 00
        E 16 83 24 00
        E 16 83 24 00
        E 16 83 24 00
        E 16 83 24 00
        E 16 83 24 00
        E 16 83 24 00
        E 16 83 24 00
        E 16 83 24 00
        E 16 83 24 00
        E 16 83 24 00
        E 16 83 24 00
        E 16 83 24 00
        E 16 83 24 00
        E 16 83 24 00
        E 16 83 24 00
        E 16 83 24 00
        E 16 83 24 00
        E 16 83 24 00
        E 16 83 24 00
        E 16 83 24 00
        E 16 83 24 00
        E 16 83 24 00
        E 16 83 24 00
        E 16 83 24 00
        E 16 83 24 00
        E 16 83 24 00
        E 16 83 24 00
        E 16 83 24 00
        E 16 83 24 00
        E 16 83 24 00
        E 16 83 24 00
        E 16 83 24 00
        E 16 83 24 00
        E 16 83 24 00
        E 16 83 24 00
        E 16 83 24 00
        E 16 83 24 00
        E 16 83 24 00
        E 16 83 24 00
        E 16 83 24 00
        E 16 83 24 00
        E 16 83 24 00
        E 16 83 24 00
        E 16 83 24 00
        E 16 83 24 00
        E 16 83 24 00
        E 16 83 24 00
        E 16 83 24 00
        E 16 83 24 00
        E 16 83 24 00
        E 16 83 24 00
        E 16 83 24 00
        E 16 83 24 00
        E 16 83 24 00
        E 16 83 24 00
        E 16 83 24 00
        E 16 83 24 00
        E 16 83 24 00
        E 16 83 24 00
        E 16 83 24 00
        E 16 83 24 00
        E 16 83 24 00
        E 16 83 24 00
        E 16 83 24 00
        E 16 83 24 00
        E 16 83 24 00
        E 16 83 24 00
        E 16 83 24 00
        E 16 83 24 00
        E 16 83 24 00
        E 16 83 24 00
        E 16 83 24 00
        E 16 83 24 00
        E 16 83 24 00
        E 16 83 24 00
        E 16 83 24 00
        E 16 83 24 00
        E 16 83 24 00
        E 16 83 24 00
        E 16 83 24 00
        E 16 83 24 00
        E 16 83 24 00
        E 16 83 24 00
        E 16 83 24 00
        E 16 83 24 00
        E 16 83 24 00
        E 16 83 24 00
        E 16 83 24 00
        E 16 83 24 00
        E 16 83 24 00
        E 16 83 24 00
        E 16 83 24 00
        E 16 83 24 00
        E 16 83 24 00
        E 16 83 24 00
        E 16 83 24 00
        E 16 83 24 00
        E 16 83 24 00
        E 16 83 24 00
        E 16 83 24 00
        E 16 83 24 00
        E 16 83 24 00
        E 16 83 24 00
        E 16 83 24 00
        E 16 83 24 00
        E 16 83 24 00
        E 16 83 24 00
        E 16 83 24 00
        E 16 83 24 00
        E 16 83 24 00
        E 16 83 24 00
        E 16 83 24 00
        E 16 83 24 00
        E 16 83 24 00
        E 16 83 24 00
        E 16 83 24 00
        E 16 83 24 00
        E 16 83 24 00
        E 16 83 24 00
        E 16 83 24 00
        E 16 83 24 00
        E 16 83 24 00
        E 16 83 24 00
        E 16 83 24 00
        E 16 83 24 00
        E 16 83 24 00
        E 16 83 24 00
        E 16 83 24 00
        E 16 83 24 00
        E 16 83 24 00
        E 16 83 24 00
        E 16 83 24 00
        E 16 83 24 00
        E 16 83 24 00
        E 16 83 24 00
        E 16 83 24 00
        E 16 83 24 00
        E 16 83 24 00
        E 16 83 24 00
        E 16 83 24 00
        E 16 83 24 00
        E 16 83 24 00
        E 16 83 24 00
        E 16 83 24 00
        E 16 83 24 00
        E 16 83 24 00
        E 16 83 24 00
        E 16 83 24 00
        E 16 83 24 00
        E 16 83 24 00
        E 16 83 24 00
        E 16 83 24 00
        E 16 83 24 00
        E 16 83 24 00
        E 16 83 24 00
        E 16 83 24 00
        E 16 83 24 00
        E 16 83 24 00
        E 16 83 24 00
        E 16 83 24 00
        E 16 83 24 00
        E 16 83 24 00
        E 16 83 24 00
        E 16 83 24 00
        E 16 83 24 00
        E 16 83 24 00
        E 16 83 24 00
        E 16 83 24 00
        E 16 83 24 00
        E 16 83 24 00
        E 0 ff 2f 00
      >
    >
  >
>