<REAPER_PROJECT 0.1 "7.27/win64" 1707000000
  <NOTES 0 2
    |ReapNES Studio Project
    |MIDI Import - Contra_title_rom_v1
  >
  RIPPLE 0
  GROUPOVERRIDE 0 0 0
  AUTOXFADE 129
  ENVATTACH 3
  POOLEDENVATTACH 0
  MIXERUIFLAGS 11 48
  ENVFADESZ10 40
  PEAKGAIN 1
  FEEDBACK 0
  PANLAW 1
  PROJOFFS 0 0 0
  MAXPROJLEN 0 0
  GRID 3199 8 1 8 1 0 0 0
  TIMEMODE 1 5 -1 30 0 0 -1
  VIDEO_CONFIG 0 0 65792
  PANMODE 3
  PANLAWFLAGS 3
  CURSOR 0
  ZOOM 100 0 0
  VZOOMEX 6 0
  USE_REC_CFG 0
  RECMODE 1
  SMPTESYNC 0 30 100 40 1000 300 0 0 1 0 0
  LOOP 0
  LOOPGRAN 0 4
  RECORD_PATH "Media" ""
  <RECORD_CFG
    ZXZhdxgAAQ==
  >
  <APPLYFX_CFG
  >
  RENDER_FILE ""
  RENDER_PATTERN ""
  RENDER_FMT 0 2 0
  RENDER_1X 0
  RENDER_RANGE 1 0 0 18 1000
  RENDER_RESAMPLE 3 0 1
  RENDER_ADDTOPROJ 0
  RENDER_STEMS 0
  RENDER_DITHER 0
  TIMELOCKMODE 1
  TEMPOENVLOCKMODE 1
  ITEMMIX 1
  DEFPITCHMODE 589824 0
  TAKELANE 1
  SAMPLERATE 44100 0 0
  <RENDER_CFG
    ZXZhdxgAAQ==
  >
  LOCK 1
  <METRONOME 6 2
    VOL 0.25 0.125
    BEATLEN 4
    FREQ 1760 880 1
    SAMPLES "" ""
    SPLIGNORE 0 0
    SPLDEF 2 660 "" 0
    SPLDEF 3 440 "" 0
    PATTERN 0 169
    PATTERNSTR ABBB
    MULT 1
  >
  GLOBAL_AUTO -1
  TEMPO 128.59999614200012 4 4
  PLAYRATE 1 0 0.25 4
  SELECTION 0 0
  SELECTION2 0 0
  MASTERAUTOMODE 0
  MASTERTRACKHEIGHT 0 0
  MASTERPEAKCOL 16576
  MASTERMUTESOLO 0
  MASTERTRACKVIEW 0 0.6667 0.5 0.5 0 0 0 0 0 0 0 0 0 0
  MASTERHWOUT 0 0 1 0 0 0 0 -1
  MASTER_NCH 2 2
  MASTER_VOLUME 1 0 -1 -1 1
  MASTER_PANMODE 3
  MASTER_PANLAWFLAGS 3
  MASTER_FX 1
  MASTER_SEL 0
  <MASTERPLAYSPEEDENV
    EGUID {B5EBB6D1-E542-43D6-A3E2-D4CC90A31411}
    ACT 0 -1
    VIS 0 1 1
    LANEHEIGHT 0 0
    ARM 0
    DEFSHAPE 0 -1 -1
  >
  <TEMPOENVEX
    EGUID {CFA2B27B-F03D-4066-9BF9-9F329FE61F3B}
    ACT 1 -1
    VIS 1 0 1
    LANEHEIGHT 0 0
    ARM 0
    DEFSHAPE 1 -1 -1
  >
  <PROJBAY
  >
  <TRACK {A9D5D148-7CE5-49E1-9790-2809D85C17A2}
    NAME "NES - Pulse 1 [ch0]"
    PEAKCOL 16576606
    BEAT -1
    AUTOMODE 0
    PANLAWFLAGS 3
    VOLPAN 1 0 -1 -1 1
    MUTESOLO 0 0 0
    IPHASE 0
    PLAYOFFS 0 1
    ISBUS 0 0
    BUSCOMP 0 0 0 0 0
    SHOWINMIX 1 0.6667 0.5 1 0.5 0 0 0
    FIXEDLANES 9 0 0 0 0
    SEL 1
    REC 1 5088 1 0 0 0 0 0
    VU 2
    TRACKHEIGHT 0 0 0 0 0 0 0
    INQ 0 0 0 0.5 100 0 0 100
    NCHAN 2
    FX 1
    TRACKID {A9D5D148-7CE5-49E1-9790-2809D85C17A2}
    PERF 0
    MIDIOUT -1
    MAINSEND 1 0
    <FXCHAIN
      WNDRECT 24 52 700 560
      SHOW 0
      LASTSEL 0
      DOCKED 0
      BYPASS 0 0 0
      <JS "ReapNES Studio/ReapNES_Console.jsfx" ""
        2 15 1 10 80 10 100 2 1 15 1 5 60 10 80 1 1 0 50 0 0 15 1 0 100 0 0 0.500000 0.500000 0.400000 0.300000 0.800000 0 1 0 0 0 0 - - - - - - - - - - - - - - - - - - - - - - - - - -
      >
      FLOATPOS 0 0 0 0
      FXID {292432A4-2A79-484A-A5E5-49FBE7910827}
      WAK 0 0
    >
    <ITEM
      POSITION 0
      LENGTH 73.70140190000001
      LOOP 0
      ALLTAKES 0
      FADEIN 0 0 0 0 0 0 0
      FADEOUT 0 0 0 0 0 0 0
      MUTE 0 0
      SEL 0
      IGUID {E6D3BAA0-FA87-4346-B440-B360C177A25E}
      <SOURCE MIDI
        HASDATA 1 480 QN
        CCINTERP 32
        E 0 c0 50
        E 0 b0 0c 60
        E 0 b0 0b 44
        E 0 90 26 44
        E 16 b0 0b 3b
        E 16 b0 0b 33
        E 16 b0 0b 2a
        E 16 b0 0b 22
        E 16 b0 0b 19
        E 16 b0 0b 11
        E 16 b0 0b 08
        E 464 b0 0b 3b
        E 0 80 26 00
        E 0 90 4b 3b
        E 16 b0 0b 33
        E 16 b0 0b 2a
        E 16 b0 0b 22
        E 16 b0 0b 19
        E 336 b0 0b 11
        E 16 b0 0b 08
        E 160 b0 0b 3b
        E 0 80 4b 00
        E 0 90 2d 3b
        E 16 b0 0b 33
        E 16 b0 0b 2a
        E 16 b0 0b 22
        E 16 b0 0b 19
        E 336 b0 0b 11
        E 16 b0 0b 08
        E 160 b0 0b 3b
        E 16 b0 0b 33
        E 16 b0 0b 2a
        E 16 b0 0b 22
        E 16 b0 0b 19
        E 336 b0 0b 11
        E 16 b0 0b 08
        E 160 b0 0b 3b
        E 16 b0 0b 33
        E 16 b0 0b 2a
        E 16 b0 0b 22
        E 16 b0 0b 19
        E 2208 b0 0b 11
        E 16 b0 0b 08
        E 272 80 2d 00
        E 1664 b0 0c 10
        E 0 b0 0b 22
        E 0 90 4c 22
        E 16 80 4c 00
        E 32 b0 0c 60
        E 0 b0 0b 11
        E 0 90 4c 11
        E 16 b0 0b 08
        E 16 80 4c 00
        E 736 b0 0c 20
        E 0 b0 0b 6e
        E 0 90 2c 6e
        E 80 b0 0b 5d
        E 0 80 2c 00
        E 0 90 44 5d
        E 32 80 44 00
        E 16 b0 0b 6e
        E 0 90 27 6e
        E 80 b0 0b 5d
        E 0 80 27 00
        E 0 90 44 5d
        E 32 80 44 00
        E 16 b0 0b 6e
        E 0 90 27 6e
        E 80 b0 0b 5d
        E 0 80 27 00
        E 0 90 44 5d
        E 32 80 44 00
        E 16 b0 0b 6e
        E 0 90 27 6e
        E 80 b0 0b 5d
        E 0 80 27 00
        E 0 90 44 5d
        E 80 b0 0c 60
        E 0 b0 0b 55
        E 0 80 44 00
        E 0 90 3e 55
        E 16 b0 0c 20
        E 0 b0 0b 33
        E 0 80 3e 00
        E 0 90 71 33
        E 80 b0 0c 60
        E 0 b0 0b 55
        E 0 80 71 00
        E 0 90 3a 55
        E 16 b0 0c 20
        E 0 b0 0b 2a
        E 0 80 3a 00
        E 0 90 38 2a
        E 80 b0 0b 22
        E 0 80 38 00
        E 0 90 36 22
        E 16 80 36 00
        E 16 b0 0b 6e
        E 0 90 29 6e
        E 80 b0 0b 5d
        E 0 80 29 00
        E 0 90 44 5d
        E 32 80 44 00
        E 16 b0 0b 6e
        E 0 90 27 6e
        E 80 b0 0b 5d
        E 0 80 27 00
        E 0 90 44 5d
        E 32 80 44 00
        E 16 b0 0b 6e
        E 0 90 27 6e
        E 80 b0 0b 5d
        E 0 80 27 00
        E 0 90 44 5d
        E 32 80 44 00
        E 16 b0 0b 6e
        E 0 90 27 6e
        E 80 b0 0b 5d
        E 0 80 27 00
        E 0 90 44 5d
        E 32 80 44 00
        E 16 b0 0b 6e
        E 0 90 27 6e
        E 80 b0 0b 5d
        E 0 80 27 00
        E 0 90 44 5d
        E 32 80 44 00
        E 16 b0 0b 6e
        E 0 90 27 6e
        E 80 b0 0b 5d
        E 0 80 27 00
        E 0 90 44 5d
        E 32 80 44 00
        E 32 b0 0c 40
        E 0 b0 0b 7f
        E 0 90 32 7f
        E 128 b0 0c 60
        E 0 80 32 00
        E 0 90 6b 7f
        E 128 b0 0b 66
        E 0 80 6b 00
        E 0 90 39 66
        E 128 b0 0b 2a
        E 0 80 39 00
        E 0 90 3c 2a
        E 128 b0 0b 19
        E 0 80 3c 00
        E 0 90 3f 19
        E 128 b0 0b 08
        E 0 80 3f 00
        E 0 90 41 08
        E 112 80 41 00
        E 16 b0 0c 40
        E 0 b0 0b 7f
        E 0 90 30 7f
        E 128 b0 0c 60
        E 0 80 30 00
        E 0 90 6b 7f
        E 128 b0 0b 66
        E 0 80 6b 00
        E 0 90 39 66
        E 128 b0 0b 2a
        E 0 80 39 00
        E 0 90 3c 2a
        E 128 b0 0b 19
        E 0 80 3c 00
        E 0 90 3f 19
        E 128 b0 0b 08
        E 0 80 3f 00
        E 0 90 41 08
        E 128 80 41 00
        E 112 b0 0c 20
        E 0 b0 0b 6e
        E 0 90 28 6e
        E 80 b0 0b 5d
        E 0 80 28 00
        E 0 90 44 5d
        E 32 80 44 00
        E 16 b0 0b 6e
        E 0 90 27 6e
        E 16 80 27 00
        E 16 b0 0c 40
        E 0 b0 0b 7f
        E 0 90 32 7f
        E 128 b0 0c 60
        E 0 80 32 00
        E 0 90 6b 7f
        E 128 b0 0b 66
        E 0 80 6b 00
        E 0 90 39 66
        E 128 b0 0b 2a
        E 0 80 39 00
        E 0 90 3c 2a
        E 16 80 3c 00
        E 16 b0 0c 40
        E 0 b0 0b 7f
        E 0 90 30 7f
        E 128 b0 0c 60
        E 0 80 30 00
        E 0 90 6b 7f
        E 128 b0 0b 66
        E 0 80 6b 00
        E 0 90 39 66
        E 48 80 39 00
        E 16 b0 0c 40
        E 0 b0 0b 7f
        E 0 90 2e 7f
        E 128 b0 0c 60
        E 0 80 2e 00
        E 0 90 6b 7f
        E 128 b0 0b 66
        E 0 80 6b 00
        E 0 90 39 66
        E 128 b0 0b 2a
        E 0 80 39 00
        E 0 90 3c 2a
        E 128 b0 0b 19
        E 0 80 3c 00
        E 0 90 3f 19
        E 128 b0 0b 08
        E 0 80 3f 00
        E 0 90 41 08
        E 128 80 41 00
        E 128 b0 0c 20
        E 0 b0 0b 6e
        E 0 90 28 6e
        E 80 b0 0b 5d
        E 0 80 28 00
        E 0 90 44 5d
        E 32 80 44 00
        E 16 b0 0b 6e
        E 0 90 27 6e
        E 80 b0 0b 5d
        E 0 80 27 00
        E 0 90 44 5d
        E 32 80 44 00
        E 16 b0 0b 6e
        E 0 90 27 6e
        E 80 b0 0b 5d
        E 0 80 27 00
        E 0 90 44 5d
        E 32 80 44 00
        E 16 b0 0b 6e
        E 0 90 27 6e
        E 80 b0 0b 5d
        E 0 80 27 00
        E 0 90 44 5d
        E 32 80 44 00
        E 16 b0 0b 6e
        E 0 90 27 6e
        E 80 b0 0b 5d
        E 0 80 27 00
        E 0 90 44 5d
        E 32 80 44 00
        E 16 b0 0b 6e
        E 0 90 27 6e
        E 80 b0 0b 5d
        E 0 80 27 00
        E 0 90 44 5d
        E 32 80 44 00
        E 16 b0 0b 6e
        E 0 90 27 6e
        E 80 b0 0b 5d
        E 0 80 27 00
        E 0 90 44 5d
        E 32 80 44 00
        E 16 b0 0b 6e
        E 0 90 27 6e
        E 80 b0 0b 5d
        E 0 80 27 00
        E 0 90 44 5d
        E 32 80 44 00
        E 16 b0 0b 6e
        E 0 90 27 6e
        E 80 b0 0b 5d
        E 0 80 27 00
        E 0 90 44 5d
        E 32 80 44 00
        E 32 b0 0c 40
        E 0 b0 0b 55
        E 0 90 23 55
        E 128 b0 0b 5d
        E 0 80 23 00
        E 0 90 2d 5d
        E 128 b0 0b 3b
        E 0 80 2d 00
        E 0 90 45 3b
        E 128 b0 0b 2a
        E 128 b0 0b 22
        E 0 80 45 00
        E 0 90 4a 22
        E 128 b0 0b 19
        E 128 b0 0b 11
        E 128 b0 0b 08
        E 128 80 4a 00
        E 128 b0 0c 60
        E 0 b0 0b 66
        E 0 90 29 66
        E 16 b0 0b 44
        E 0 80 29 00
        E 0 90 35 44
        E 16 b0 0b 3b
        E 0 80 35 00
        E 0 90 38 3b
        E 16 b0 0b 66
        E 0 80 38 00
        E 0 90 3d 66
        E 16 80 3d 00
        E 0 90 2d 66
        E 16 b0 0b 44
        E 0 80 2d 00
        E 0 90 35 44
        E 16 b0 0b 3b
        E 0 80 35 00
        E 0 90 38 3b
        E 16 80 38 00
        E 16 b0 0b 66
        E 0 90 2d 66
        E 16 b0 0b 44
        E 0 80 2d 00
        E 0 90 35 44
        E 16 b0 0b 3b
        E 0 80 35 00
        E 0 90 38 3b
        E 16 b0 0b 66
        E 0 80 38 00
        E 0 90 3d 66
        E 16 80 3d 00
        E 0 90 2d 66
        E 16 b0 0b 44
        E 0 80 2d 00
        E 0 90 35 44
        E 16 b0 0b 3b
        E 0 80 35 00
        E 0 90 38 3b
        E 16 b0 0b 66
        E 0 80 38 00
        E 0 90 3d 66
        E 16 b0 0b 33
        E 0 80 3d 00
        E 0 90 73 33
        E 80 b0 0b 5d
        E 0 80 73 00
        E 0 90 3a 5d
        E 16 80 3a 00
        E 16 b0 0b 66
        E 0 90 2b 66
        E 16 b0 0b 44
        E 0 80 2b 00
        E 0 90 35 44
        E 16 b0 0b 3b
        E 0 80 35 00
        E 0 90 38 3b
        E 16 b0 0b 66
        E 0 80 38 00
        E 0 90 3d 66
        E 16 80 3d 00
        E 0 90 2d 66
        E 16 b0 0b 44
        E 0 80 2d 00
        E 0 90 35 44
        E 16 b0 0b 3b
        E 0 80 35 00
        E 0 90 38 3b
        E 16 80 38 00
        E 16 b0 0b 66
        E 0 90 2d 66
        E 16 b0 0b 44
        E 0 80 2d 00
        E 0 90 35 44
        E 16 b0 0b 3b
        E 0 80 35 00
        E 0 90 38 3b
        E 16 b0 0b 66
        E 0 80 38 00
        E 0 90 3d 66
        E 16 80 3d 00
        E 0 90 2d 66
        E 16 b0 0b 44
        E 0 80 2d 00
        E 0 90 35 44
        E 16 b0 0b 3b
        E 0 80 35 00
        E 0 90 38 3b
        E 16 80 38 00
        E 16 b0 0b 66
        E 0 90 2d 66
        E 16 b0 0b 44
        E 0 80 2d 00
        E 0 90 35 44
        E 16 b0 0b 3b
        E 0 80 35 00
        E 0 90 38 3b
        E 16 b0 0b 66
        E 0 80 38 00
        E 0 90 3d 66
        E 16 80 3d 00
        E 0 90 2d 66
        E 16 b0 0b 44
        E 0 80 2d 00
        E 0 90 35 44
        E 16 b0 0b 3b
        E 0 80 35 00
        E 0 90 38 3b
        E 16 80 38 00
        E 16 b0 0b 66
        E 0 90 2d 66
        E 16 b0 0b 44
        E 0 80 2d 00
        E 0 90 35 44
        E 16 b0 0b 3b
        E 0 80 35 00
        E 0 90 38 3b
        E 16 b0 0b 66
        E 0 80 38 00
        E 0 90 3d 66
        E 16 80 3d 00
        E 0 90 2d 66
        E 16 b0 0b 44
        E 0 80 2d 00
        E 0 90 35 44
        E 16 b0 0b 3b
        E 0 80 35 00
        E 0 90 38 3b
        E 16 80 38 00
        E 16 b0 0b 66
        E 0 90 2d 66
        E 16 b0 0b 44
        E 0 80 2d 00
        E 0 90 35 44
        E 16 b0 0b 3b
        E 0 80 35 00
        E 0 90 38 3b
        E 16 b0 0b 66
        E 0 80 38 00
        E 0 90 3d 66
        E 16 80 3d 00
        E 0 90 2d 66
        E 16 b0 0b 44
        E 0 80 2d 00
        E 0 90 35 44
        E 16 b0 0b 3b
        E 0 80 35 00
        E 0 90 38 3b
        E 16 80 38 00
        E 16 b0 0b 66
        E 0 90 2d 66
        E 16 b0 0b 44
        E 0 80 2d 00
        E 0 90 35 44
        E 16 b0 0b 3b
        E 0 80 35 00
        E 0 90 38 3b
        E 16 b0 0b 66
        E 0 80 38 00
        E 0 90 3d 66
        E 16 80 3d 00
        E 0 90 2d 66
        E 16 b0 0b 44
        E 0 80 2d 00
        E 0 90 35 44
        E 16 b0 0b 3b
        E 0 80 35 00
        E 0 90 38 3b
        E 16 80 38 00
        E 16 b0 0b 66
        E 0 90 2d 66
        E 16 80 2d 00
        E 16 b0 0c 40
        E 0 b0 0b 55
        E 0 90 26 55
        E 128 b0 0b 5d
        E 0 80 26 00
        E 0 90 2d 5d
        E 128 b0 0b 3b
        E 0 80 2d 00
        E 0 90 45 3b
        E 128 b0 0b 2a
        E 128 b0 0b 22
        E 0 80 45 00
        E 0 90 4a 22
        E 128 b0 0b 19
        E 128 b0 0b 11
        E 128 b0 0b 08
        E 128 80 4a 00
        E 80 b0 0c 60
        E 0 b0 0b 66
        E 0 90 2a 66
        E 16 b0 0b 44
        E 0 80 2a 00
        E 0 90 35 44
        E 16 b0 0b 3b
        E 0 80 35 00
        E 0 90 38 3b
        E 16 b0 0b 66
        E 0 80 38 00
        E 0 90 3d 66
        E 16 80 3d 00
        E 0 90 2d 66
        E 16 b0 0b 44
        E 0 80 2d 00
        E 0 90 35 44
        E 16 b0 0b 3b
        E 0 80 35 00
        E 0 90 38 3b
        E 16 b0 0b 66
        E 0 80 38 00
        E 0 90 3d 66
        E 16 b0 0b 33
        E 0 80 3d 00
        E 0 90 73 33
        E 48 80 73 00
        E 16 b0 0b 66
        E 0 90 26 66
        E 16 b0 0b 44
        E 0 80 26 00
        E 0 90 35 44
        E 16 b0 0b 3b
        E 0 80 35 00
        E 0 90 38 3b
        E 16 b0 0b 66
        E 0 80 38 00
        E 0 90 3d 66
        E 16 80 3d 00
        E 0 90 2d 66
        E 16 b0 0b 44
        E 0 80 2d 00
        E 0 90 35 44
        E 16 b0 0b 3b
        E 0 80 35 00
        E 0 90 38 3b
        E 16 b0 0b 66
        E 0 80 38 00
        E 0 90 3d 66
        E 16 b0 0b 33
        E 0 80 3d 00
        E 0 90 73 33
        E 80 b0 0b 5d
        E 0 80 73 00
        E 0 90 3a 5d
        E 16 80 3a 00
        E 16 b0 0b 66
        E 0 90 2b 66
        E 16 b0 0b 44
        E 0 80 2b 00
        E 0 90 35 44
        E 16 b0 0b 3b
        E 0 80 35 00
        E 0 90 38 3b
        E 16 b0 0b 66
        E 0 80 38 00
        E 0 90 3d 66
        E 16 80 3d 00
        E 0 90 2d 66
        E 16 b0 0b 44
        E 0 80 2d 00
        E 0 90 35 44
        E 16 b0 0b 3b
        E 0 80 35 00
        E 0 90 38 3b
        E 16 b0 0b 66
        E 0 80 38 00
        E 0 90 3d 66
        E 16 b0 0b 33
        E 0 80 3d 00
        E 0 90 73 33
        E 16 80 73 00
        E 16 b0 0b 66
        E 0 90 26 66
        E 16 b0 0b 44
        E 0 80 26 00
        E 0 90 35 44
        E 16 b0 0b 3b
        E 0 80 35 00
        E 0 90 38 3b
        E 16 b0 0b 66
        E 0 80 38 00
        E 0 90 3d 66
        E 16 80 3d 00
        E 0 90 2d 66
        E 16 b0 0b 44
        E 0 80 2d 00
        E 0 90 35 44
        E 16 b0 0b 3b
        E 0 80 35 00
        E 0 90 38 3b
        E 16 80 38 00
        E 16 b0 0b 66
        E 0 90 2d 66
        E 16 b0 0b 44
        E 0 80 2d 00
        E 0 90 35 44
        E 16 b0 0b 3b
        E 0 80 35 00
        E 0 90 38 3b
        E 16 b0 0b 66
        E 0 80 38 00
        E 0 90 3d 66
        E 16 80 3d 00
        E 0 90 2d 66
        E 16 b0 0b 44
        E 0 80 2d 00
        E 0 90 35 44
        E 16 b0 0b 3b
        E 0 80 35 00
        E 0 90 38 3b
        E 16 b0 0b 66
        E 0 80 38 00
        E 0 90 3d 66
        E 16 b0 0b 33
        E 0 80 3d 00
        E 0 90 73 33
        E 32 80 73 00
        E 16 b0 0c 40
        E 0 b0 0b 7f
        E 0 90 2d 7f
        E 128 b0 0c 60
        E 0 80 2d 00
        E 0 90 6b 7f
        E 128 b0 0b 66
        E 0 80 6b 00
        E 0 90 39 66
        E 128 b0 0b 2a
        E 0 80 39 00
        E 0 90 3c 2a
        E 128 b0 0b 19
        E 0 80 3c 00
        E 0 90 3f 19
        E 128 b0 0b 08
        E 0 80 3f 00
        E 0 90 41 08
        E 32 80 41 00
        E 16 b0 0c 40
        E 0 b0 0b 7f
        E 0 90 30 7f
        E 48 80 30 00
        E 16 90 38 7f
        E 128 b0 0c 60
        E 0 80 38 00
        E 0 90 6b 7f
        E 128 b0 0b 66
        E 0 80 6b 00
        E 0 90 39 66
        E 128 b0 0b 2a
        E 0 80 39 00
        E 0 90 3c 2a
        E 128 b0 0b 19
        E 0 80 3c 00
        E 0 90 3f 19
        E 128 b0 0b 08
        E 0 80 3f 00
        E 0 90 41 08
        E 128 80 41 00
        E 32 b0 0c 20
        E 0 b0 0b 6e
        E 0 90 28 6e
        E 80 80 28 00
        E 16 b0 0c 60
        E 0 b0 0b 66
        E 0 90 27 66
        E 16 b0 0b 44
        E 0 80 27 00
        E 0 90 35 44
        E 16 b0 0b 3b
        E 0 80 35 00
        E 0 90 38 3b
        E 16 b0 0b 66
        E 0 80 38 00
        E 0 90 3d 66
        E 16 80 3d 00
        E 0 90 2d 66
        E 16 b0 0b 44
        E 0 80 2d 00
        E 0 90 35 44
        E 16 b0 0b 3b
        E 0 80 35 00
        E 0 90 38 3b
        E 16 80 38 00
        E 16 b0 0b 66
        E 0 90 2d 66
        E 16 b0 0b 44
        E 0 80 2d 00
        E 0 90 35 44
        E 16 b0 0b 3b
        E 0 80 35 00
        E 0 90 38 3b
        E 16 b0 0b 66
        E 0 80 38 00
        E 0 90 3d 66
        E 16 80 3d 00
        E 0 90 2d 66
        E 16 b0 0b 44
        E 0 80 2d 00
        E 0 90 35 44
        E 16 b0 0b 3b
        E 0 80 35 00
        E 0 90 38 3b
        E 16 80 38 00
        E 16 b0 0b 66
        E 0 90 2d 66
        E 16 b0 0b 44
        E 0 80 2d 00
        E 0 90 35 44
        E 16 b0 0b 3b
        E 0 80 35 00
        E 0 90 38 3b
        E 16 b0 0b 66
        E 0 80 38 00
        E 0 90 3d 66
        E 16 80 3d 00
        E 0 90 2d 66
        E 16 b0 0b 44
        E 0 80 2d 00
        E 0 90 35 44
        E 16 b0 0b 3b
        E 0 80 35 00
        E 0 90 38 3b
        E 16 80 38 00
        E 16 b0 0b 66
        E 0 90 2d 66
        E 16 b0 0b 44
        E 0 80 2d 00
        E 0 90 35 44
        E 16 b0 0b 3b
        E 0 80 35 00
        E 0 90 38 3b
        E 16 b0 0b 66
        E 0 80 38 00
        E 0 90 3d 66
        E 16 80 3d 00
        E 0 90 2d 66
        E 16 b0 0b 44
        E 0 80 2d 00
        E 0 90 35 44
        E 16 b0 0b 3b
        E 0 80 35 00
        E 0 90 38 3b
        E 16 b0 0b 66
        E 0 80 38 00
        E 0 90 3d 66
        E 16 b0 0b 33
        E 0 80 3d 00
        E 0 90 73 33
        E 80 b0 0b 5d
        E 0 80 73 00
        E 0 90 3a 5d
        E 16 80 3a 00
        E 16 b0 0b 66
        E 0 90 2b 66
        E 16 b0 0b 44
        E 0 80 2b 00
        E 0 90 35 44
        E 16 b0 0b 3b
        E 0 80 35 00
        E 0 90 38 3b
        E 16 b0 0b 66
        E 0 80 38 00
        E 0 90 3d 66
        E 16 80 3d 00
        E 0 90 2d 66
        E 16 b0 0b 44
        E 0 80 2d 00
        E 0 90 35 44
        E 16 b0 0b 3b
        E 0 80 35 00
        E 0 90 38 3b
        E 16 b0 0b 66
        E 0 80 38 00
        E 0 90 3d 66
        E 16 b0 0b 33
        E 0 80 3d 00
        E 0 90 73 33
        E 80 b0 0b 5d
        E 0 80 73 00
        E 0 90 3a 5d
        E 16 b0 0b 2a
        E 0 80 3a 00
        E 0 90 38 2a
        E 80 80 38 00
        E 16 b0 0b 66
        E 0 90 29 66
        E 16 b0 0b 44
        E 0 80 29 00
        E 0 90 35 44
        E 16 b0 0b 3b
        E 0 80 35 00
        E 0 90 38 3b
        E 16 b0 0b 66
        E 0 80 38 00
        E 0 90 3d 66
        E 16 80 3d 00
        E 0 90 2d 66
        E 16 b0 0b 44
        E 0 80 2d 00
        E 0 90 35 44
        E 16 b0 0b 3b
        E 0 80 35 00
        E 0 90 38 3b
        E 16 80 38 00
        E 16 b0 0b 66
        E 0 90 2d 66
        E 16 b0 0b 44
        E 0 80 2d 00
        E 0 90 35 44
        E 16 b0 0b 3b
        E 0 80 35 00
        E 0 90 38 3b
        E 16 b0 0b 66
        E 0 80 38 00
        E 0 90 3d 66
        E 16 80 3d 00
        E 0 90 2d 66
        E 16 b0 0b 44
        E 0 80 2d 00
        E 0 90 35 44
        E 16 b0 0b 3b
        E 0 80 35 00
        E 0 90 38 3b
        E 16 80 38 00
        E 16 b0 0b 66
        E 0 90 2d 66
        E 16 b0 0b 44
        E 0 80 2d 00
        E 0 90 35 44
        E 16 b0 0b 3b
        E 0 80 35 00
        E 0 90 38 3b
        E 16 b0 0b 66
        E 0 80 38 00
        E 0 90 3d 66
        E 16 80 3d 00
        E 0 90 2d 66
        E 16 b0 0b 44
        E 0 80 2d 00
        E 0 90 35 44
        E 16 b0 0b 3b
        E 0 80 35 00
        E 0 90 38 3b
        E 16 80 38 00
        E 16 b0 0b 66
        E 0 90 2d 66
        E 16 b0 0b 44
        E 0 80 2d 00
        E 0 90 35 44
        E 16 b0 0b 3b
        E 0 80 35 00
        E 0 90 38 3b
        E 16 b0 0b 66
        E 0 80 38 00
        E 0 90 3d 66
        E 16 80 3d 00
        E 0 90 2d 66
        E 16 b0 0b 44
        E 0 80 2d 00
        E 0 90 35 44
        E 16 b0 0b 3b
        E 0 80 35 00
        E 0 90 38 3b
        E 16 80 38 00
        E 16 b0 0b 66
        E 0 90 2d 66
        E 16 b0 0b 44
        E 0 80 2d 00
        E 0 90 35 44
        E 16 b0 0b 3b
        E 0 80 35 00
        E 0 90 38 3b
        E 16 b0 0b 66
        E 0 80 38 00
        E 0 90 3d 66
        E 16 80 3d 00
        E 0 90 2d 66
        E 16 b0 0b 44
        E 0 80 2d 00
        E 0 90 35 44
        E 16 b0 0b 3b
        E 0 80 35 00
        E 0 90 38 3b
        E 16 80 38 00
        E 16 b0 0b 66
        E 0 90 2d 66
        E 16 b0 0b 44
        E 0 80 2d 00
        E 0 90 35 44
        E 16 b0 0b 3b
        E 0 80 35 00
        E 0 90 38 3b
        E 16 b0 0b 66
        E 0 80 38 00
        E 0 90 3d 66
        E 16 80 3d 00
        E 0 90 2d 66
        E 16 b0 0b 44
        E 0 80 2d 00
        E 0 90 35 44
        E 16 b0 0b 3b
        E 0 80 35 00
        E 0 90 38 3b
        E 16 b0 0b 66
        E 0 80 38 00
        E 0 90 3d 66
        E 16 b0 0b 33
        E 0 80 3d 00
        E 0 90 73 33
        E 80 b0 0b 5d
        E 0 80 73 00
        E 0 90 3a 5d
        E 16 80 3a 00
        E 16 b0 0b 66
        E 0 90 2b 66
        E 16 b0 0b 44
        E 0 80 2b 00
        E 0 90 35 44
        E 16 b0 0b 3b
        E 0 80 35 00
        E 0 90 38 3b
        E 16 b0 0b 66
        E 0 80 38 00
        E 0 90 3d 66
        E 16 80 3d 00
        E 0 90 2d 66
        E 16 b0 0b 44
        E 0 80 2d 00
        E 0 90 35 44
        E 16 b0 0b 3b
        E 0 80 35 00
        E 0 90 38 3b
        E 16 b0 0b 66
        E 0 80 38 00
        E 0 90 3d 66
        E 16 b0 0b 33
        E 0 80 3d 00
        E 0 90 73 33
        E 80 b0 0b 5d
        E 0 80 73 00
        E 0 90 3a 5d
        E 16 b0 0b 2a
        E 0 80 3a 00
        E 0 90 38 2a
        E 80 80 38 00
        E 16 b0 0b 66
        E 0 90 29 66
        E 16 b0 0b 44
        E 0 80 29 00
        E 0 90 35 44
        E 16 b0 0b 3b
        E 0 80 35 00
        E 0 90 38 3b
        E 16 80 38 00
        E 16 b0 0c 40
        E 0 b0 0b 7f
        E 0 90 38 7f
        E 128 b0 0c 60
        E 0 80 38 00
        E 0 90 6b 7f
        E 128 b0 0b 66
        E 0 80 6b 00
        E 0 90 39 66
        E 128 b0 0b 2a
        E 0 80 39 00
        E 0 90 3c 2a
        E 128 b0 0b 19
        E 0 80 3c 00
        E 0 90 3f 19
        E 128 b0 0b 08
        E 0 80 3f 00
        E 0 90 41 08
        E 128 80 41 00
        E 128 b0 0c 20
        E 0 b0 0b 6e
        E 0 90 28 6e
        E 80 b0 0b 5d
        E 0 80 28 00
        E 0 90 44 5d
        E 16 80 44 00
        E 16 b0 0c 60
        E 0 b0 0b 66
        E 0 90 27 66
        E 16 b0 0b 44
        E 0 80 27 00
        E 0 90 35 44
        E 16 b0 0b 3b
        E 0 80 35 00
        E 0 90 38 3b
        E 16 b0 0b 66
        E 0 80 38 00
        E 0 90 3d 66
        E 16 80 3d 00
        E 0 90 2d 66
        E 16 b0 0b 44
        E 0 80 2d 00
        E 0 90 35 44
        E 16 b0 0b 3b
        E 0 80 35 00
        E 0 90 38 3b
        E 16 80 38 00
        E 16 b0 0b 66
        E 0 90 2d 66
        E 16 b0 0b 44
        E 0 80 2d 00
        E 0 90 35 44
        E 16 b0 0b 3b
        E 0 80 35 00
        E 0 90 38 3b
        E 16 b0 0b 66
        E 0 80 38 00
        E 0 90 3d 66
        E 16 80 3d 00
        E 0 90 2d 66
        E 16 b0 0b 44
        E 0 80 2d 00
        E 0 90 35 44
        E 16 b0 0b 3b
        E 0 80 35 00
        E 0 90 38 3b
        E 16 80 38 00
        E 16 b0 0b 66
        E 0 90 2d 66
        E 16 b0 0b 44
        E 0 80 2d 00
        E 0 90 35 44
        E 16 b0 0b 3b
        E 0 80 35 00
        E 0 90 38 3b
        E 16 b0 0b 66
        E 0 80 38 00
        E 0 90 3d 66
        E 16 80 3d 00
        E 0 90 2d 66
        E 16 b0 0b 44
        E 0 80 2d 00
        E 0 90 35 44
        E 16 b0 0b 3b
        E 0 80 35 00
        E 0 90 38 3b
        E 16 80 38 00
        E 16 b0 0b 66
        E 0 90 2d 66
        E 16 b0 0b 44
        E 0 80 2d 00
        E 0 90 35 44
        E 16 b0 0b 3b
        E 0 80 35 00
        E 0 90 38 3b
        E 16 b0 0b 66
        E 0 80 38 00
        E 0 90 3d 66
        E 16 80 3d 00
        E 0 90 2d 66
        E 16 b0 0b 44
        E 0 80 2d 00
        E 0 90 35 44
        E 16 b0 0b 3b
        E 0 80 35 00
        E 0 90 38 3b
        E 16 b0 0b 66
        E 0 80 38 00
        E 0 90 3d 66
        E 16 b0 0b 33
        E 0 80 3d 00
        E 0 90 73 33
        E 48 80 73 00
        E 16 b0 0b 66
        E 0 90 26 66
        E 16 b0 0b 44
        E 0 80 26 00
        E 0 90 35 44
        E 16 b0 0b 3b
        E 0 80 35 00
        E 0 90 38 3b
        E 16 b0 0b 66
        E 0 80 38 00
        E 0 90 3d 66
        E 16 80 3d 00
        E 0 90 2d 66
        E 16 b0 0b 44
        E 0 80 2d 00
        E 0 90 35 44
        E 16 b0 0b 3b
        E 0 80 35 00
        E 0 90 38 3b
        E 16 80 38 00
        E 16 b0 0b 66
        E 0 90 2d 66
        E 16 b0 0b 44
        E 0 80 2d 00
        E 0 90 35 44
        E 16 b0 0b 3b
        E 0 80 35 00
        E 0 90 38 3b
        E 16 b0 0b 66
        E 0 80 38 00
        E 0 90 3d 66
        E 16 80 3d 00
        E 0 90 2d 66
        E 16 b0 0b 44
        E 0 80 2d 00
        E 0 90 35 44
        E 16 b0 0b 3b
        E 0 80 35 00
        E 0 90 38 3b
        E 16 b0 0b 66
        E 0 80 38 00
        E 0 90 3d 66
        E 16 b0 0b 33
        E 0 80 3d 00
        E 0 90 73 33
        E 16 80 73 00
        E 16 b0 0b 66
        E 0 90 26 66
        E 16 b0 0b 44
        E 0 80 26 00
        E 0 90 35 44
        E 16 b0 0b 3b
        E 0 80 35 00
        E 0 90 38 3b
        E 16 b0 0b 66
        E 0 80 38 00
        E 0 90 3d 66
        E 16 80 3d 00
        E 0 90 2d 66
        E 16 b0 0b 44
        E 0 80 2d 00
        E 0 90 35 44
        E 16 b0 0b 3b
        E 0 80 35 00
        E 0 90 38 3b
        E 16 80 38 00
        E 16 b0 0b 66
        E 0 90 2d 66
        E 16 b0 0b 44
        E 0 80 2d 00
        E 0 90 35 44
        E 16 b0 0b 3b
        E 0 80 35 00
        E 0 90 38 3b
        E 16 b0 0b 66
        E 0 80 38 00
        E 0 90 3d 66
        E 16 80 3d 00
        E 0 90 2d 66
        E 16 b0 0b 44
        E 0 80 2d 00
        E 0 90 35 44
        E 16 b0 0b 3b
        E 0 80 35 00
        E 0 90 38 3b
        E 16 80 38 00
        E 16 b0 0b 66
        E 0 90 2d 66
        E 16 b0 0b 44
        E 0 80 2d 00
        E 0 90 35 44
        E 16 b0 0b 3b
        E 0 80 35 00
        E 0 90 38 3b
        E 16 b0 0b 66
        E 0 80 38 00
        E 0 90 3d 66
        E 16 80 3d 00
        E 0 90 2d 66
        E 16 b0 0b 44
        E 0 80 2d 00
        E 0 90 35 44
        E 16 b0 0b 3b
        E 0 80 35 00
        E 0 90 38 3b
        E 16 80 38 00
        E 16 b0 0b 66
        E 0 90 2d 66
        E 16 b0 0b 44
        E 0 80 2d 00
        E 0 90 35 44
        E 16 b0 0b 3b
        E 0 80 35 00
        E 0 90 38 3b
        E 16 b0 0b 66
        E 0 80 38 00
        E 0 90 3d 66
        E 16 80 3d 00
        E 0 90 2d 66
        E 16 b0 0b 44
        E 0 80 2d 00
        E 0 90 35 44
        E 16 b0 0b 3b
        E 0 80 35 00
        E 0 90 38 3b
        E 16 80 38 00
        E 16 b0 0b 66
        E 0 90 2d 66
        E 16 b0 0b 44
        E 0 80 2d 00
        E 0 90 35 44
        E 16 b0 0b 3b
        E 0 80 35 00
        E 0 90 38 3b
        E 16 b0 0b 66
        E 0 80 38 00
        E 0 90 3d 66
        E 16 80 3d 00
        E 0 90 2d 66
        E 16 b0 0b 44
        E 0 80 2d 00
        E 0 90 35 44
        E 16 b0 0b 3b
        E 0 80 35 00
        E 0 90 38 3b
        E 16 80 38 00
        E 16 b0 0b 66
        E 0 90 2d 66
        E 16 b0 0b 44
        E 0 80 2d 00
        E 0 90 35 44
        E 16 b0 0b 3b
        E 0 80 35 00
        E 0 90 38 3b
        E 16 b0 0b 66
        E 0 80 38 00
        E 0 90 3d 66
        E 16 80 3d 00
        E 0 90 2d 66
        E 16 b0 0b 44
        E 0 80 2d 00
        E 0 90 35 44
        E 16 b0 0b 3b
        E 0 80 35 00
        E 0 90 38 3b
        E 16 b0 0b 66
        E 0 80 38 00
        E 0 90 3d 66
        E 16 b0 0b 33
        E 0 80 3d 00
        E 0 90 73 33
        E 80 b0 0b 5d
        E 0 80 73 00
        E 0 90 3a 5d
        E 16 80 3a 00
        E 16 b0 0b 66
        E 0 90 2b 66
        E 16 b0 0b 44
        E 0 80 2b 00
        E 0 90 35 44
        E 16 b0 0b 3b
        E 0 80 35 00
        E 0 90 38 3b
        E 16 b0 0b 66
        E 0 80 38 00
        E 0 90 3d 66
        E 16 80 3d 00
        E 0 90 2d 66
        E 16 b0 0b 44
        E 0 80 2d 00
        E 0 90 35 44
        E 16 b0 0b 3b
        E 0 80 35 00
        E 0 90 38 3b
        E 16 80 38 00
        E 16 b0 0b 66
        E 0 90 2d 66
        E 16 b0 0b 44
        E 0 80 2d 00
        E 0 90 35 44
        E 16 b0 0b 3b
        E 0 80 35 00
        E 0 90 38 3b
        E 16 b0 0b 66
        E 0 80 38 00
        E 0 90 3d 66
        E 16 80 3d 00
        E 0 90 2d 66
        E 16 b0 0b 44
        E 0 80 2d 00
        E 0 90 35 44
        E 16 b0 0b 3b
        E 0 80 35 00
        E 0 90 38 3b
        E 16 80 38 00
        E 16 b0 0b 66
        E 0 90 2d 66
        E 16 b0 0b 44
        E 0 80 2d 00
        E 0 90 35 44
        E 16 b0 0b 3b
        E 0 80 35 00
        E 0 90 38 3b
        E 16 b0 0b 66
        E 0 80 38 00
        E 0 90 3d 66
        E 16 80 3d 00
        E 0 90 2d 66
        E 16 b0 0b 44
        E 0 80 2d 00
        E 0 90 35 44
        E 16 b0 0b 3b
        E 0 80 35 00
        E 0 90 38 3b
        E 16 80 38 00
        E 16 b0 0b 66
        E 0 90 2d 66
        E 16 b0 0b 44
        E 0 80 2d 00
        E 0 90 35 44
        E 16 b0 0b 3b
        E 0 80 35 00
        E 0 90 38 3b
        E 16 b0 0b 66
        E 0 80 38 00
        E 0 90 3d 66
        E 16 80 3d 00
        E 0 90 2d 66
        E 16 b0 0b 44
        E 0 80 2d 00
        E 0 90 35 44
        E 16 b0 0b 3b
        E 0 80 35 00
        E 0 90 38 3b
        E 16 80 38 00
        E 16 b0 0b 66
        E 0 90 2d 66
        E 16 b0 0b 44
        E 0 80 2d 00
        E 0 90 35 44
        E 16 b0 0b 3b
        E 0 80 35 00
        E 0 90 38 3b
        E 16 b0 0b 66
        E 0 80 38 00
        E 0 90 3d 66
        E 16 80 3d 00
        E 0 90 2d 66
        E 16 b0 0b 44
        E 0 80 2d 00
        E 0 90 35 44
        E 16 b0 0b 3b
        E 0 80 35 00
        E 0 90 38 3b
        E 16 80 38 00
        E 16 b0 0b 66
        E 0 90 2d 66
        E 16 b0 0b 44
        E 0 80 2d 00
        E 0 90 35 44
        E 16 b0 0b 3b
        E 0 80 35 00
        E 0 90 38 3b
        E 16 b0 0b 66
        E 0 80 38 00
        E 0 90 3d 66
        E 16 80 3d 00
        E 0 90 2d 66
        E 16 b0 0b 44
        E 0 80 2d 00
        E 0 90 35 44
        E 16 b0 0b 3b
        E 0 80 35 00
        E 0 90 38 3b
        E 16 80 38 00
        E 16 b0 0b 66
        E 0 90 2d 66
        E 16 b0 0b 44
        E 0 80 2d 00
        E 0 90 35 44
        E 16 b0 0b 3b
        E 0 80 35 00
        E 0 90 38 3b
        E 16 b0 0b 66
        E 0 80 38 00
        E 0 90 3d 66
        E 16 80 3d 00
        E 0 90 2d 66
        E 16 b0 0b 44
        E 0 80 2d 00
        E 0 90 35 44
        E 16 b0 0b 3b
        E 0 80 35 00
        E 0 90 38 3b
        E 16 b0 0b 66
        E 0 80 38 00
        E 0 90 3d 66
        E 16 b0 0b 33
        E 0 80 3d 00
        E 0 90 73 33
        E 80 b0 0b 5d
        E 0 80 73 00
        E 0 90 3a 5d
        E 16 80 3a 00
        E 16 b0 0b 66
        E 0 90 2b 66
        E 16 b0 0b 44
        E 0 80 2b 00
        E 0 90 35 44
        E 16 b0 0b 3b
        E 0 80 35 00
        E 0 90 38 3b
        E 16 b0 0b 66
        E 0 80 38 00
        E 0 90 3d 66
        E 16 80 3d 00
        E 0 90 2d 66
        E 16 b0 0b 44
        E 0 80 2d 00
        E 0 90 35 44
        E 16 b0 0b 3b
        E 0 80 35 00
        E 0 90 38 3b
        E 16 80 38 00
        E 16 b0 0b 66
        E 0 90 2d 66
        E 16 b0 0b 44
        E 0 80 2d 00
        E 0 90 35 44
        E 16 b0 0b 3b
        E 0 80 35 00
        E 0 90 38 3b
        E 16 b0 0b 66
        E 0 80 38 00
        E 0 90 3d 66
        E 16 80 3d 00
        E 0 90 2d 66
        E 16 b0 0b 44
        E 0 80 2d 00
        E 0 90 35 44
        E 16 b0 0b 3b
        E 0 80 35 00
        E 0 90 38 3b
        E 16 80 38 00
        E 16 b0 0b 66
        E 0 90 2d 66
        E 16 b0 0b 44
        E 0 80 2d 00
        E 0 90 35 44
        E 16 b0 0b 3b
        E 0 80 35 00
        E 0 90 38 3b
        E 16 b0 0b 66
        E 0 80 38 00
        E 0 90 3d 66
        E 16 80 3d 00
        E 0 90 2d 66
        E 16 b0 0b 44
        E 0 80 2d 00
        E 0 90 35 44
        E 16 b0 0b 3b
        E 0 80 35 00
        E 0 90 38 3b
        E 16 80 38 00
        E 16 b0 0b 66
        E 0 90 2d 66
        E 16 b0 0b 44
        E 0 80 2d 00
        E 0 90 35 44
        E 16 b0 0b 3b
        E 0 80 35 00
        E 0 90 38 3b
        E 16 b0 0b 66
        E 0 80 38 00
        E 0 90 3d 66
        E 16 80 3d 00
        E 0 90 2d 66
        E 16 b0 0b 44
        E 0 80 2d 00
        E 0 90 35 44
        E 16 b0 0b 3b
        E 0 80 35 00
        E 0 90 38 3b
        E 16 80 38 00
        E 16 b0 0b 66
        E 0 90 2d 66
        E 16 b0 0b 44
        E 0 80 2d 00
        E 0 90 35 44
        E 16 b0 0b 3b
        E 0 80 35 00
        E 0 90 38 3b
        E 16 b0 0b 66
        E 0 80 38 00
        E 0 90 3d 66
        E 16 80 3d 00
        E 0 90 2d 66
        E 16 b0 0b 44
        E 0 80 2d 00
        E 0 90 35 44
        E 16 b0 0b 3b
        E 0 80 35 00
        E 0 90 38 3b
        E 16 80 38 00
        E 16 b0 0b 66
        E 0 90 2d 66
        E 16 b0 0b 44
        E 0 80 2d 00
        E 0 90 35 44
        E 16 b0 0b 3b
        E 0 80 35 00
        E 0 90 38 3b
        E 16 b0 0b 66
        E 0 80 38 00
        E 0 90 3d 66
        E 16 80 3d 00
        E 0 90 2d 66
        E 16 b0 0b 44
        E 0 80 2d 00
        E 0 90 35 44
        E 16 b0 0b 3b
        E 0 80 35 00
        E 0 90 38 3b
        E 16 80 38 00
        E 16 b0 0b 66
        E 0 90 2d 66
        E 16 b0 0b 44
        E 0 80 2d 00
        E 0 90 35 44
        E 16 b0 0b 3b
        E 0 80 35 00
        E 0 90 38 3b
        E 16 b0 0b 66
        E 0 80 38 00
        E 0 90 3d 66
        E 16 80 3d 00
        E 0 90 2d 66
        E 16 b0 0b 44
        E 0 80 2d 00
        E 0 90 35 44
        E 16 b0 0b 3b
        E 0 80 35 00
        E 0 90 38 3b
        E 16 b0 0b 66
        E 0 80 38 00
        E 0 90 3d 66
        E 16 b0 0b 33
        E 0 80 3d 00
        E 0 90 73 33
        E 80 b0 0b 5d
        E 0 80 73 00
        E 0 90 3a 5d
        E 16 80 3a 00
        E 16 b0 0b 66
        E 0 90 2b 66
        E 16 b0 0b 44
        E 0 80 2b 00
        E 0 90 35 44
        E 16 b0 0b 3b
        E 0 80 35 00
        E 0 90 38 3b
        E 16 b0 0b 66
        E 0 80 38 00
        E 0 90 3d 66
        E 16 80 3d 00
        E 0 90 2d 66
        E 16 b0 0b 44
        E 0 80 2d 00
        E 0 90 35 44
        E 16 b0 0b 3b
        E 0 80 35 00
        E 0 90 38 3b
        E 16 80 38 00
        E 16 b0 0b 66
        E 0 90 2d 66
        E 16 b0 0b 44
        E 0 80 2d 00
        E 0 90 35 44
        E 16 b0 0b 3b
        E 0 80 35 00
        E 0 90 38 3b
        E 16 b0 0b 66
        E 0 80 38 00
        E 0 90 3d 66
        E 16 80 3d 00
        E 0 90 2d 66
        E 16 b0 0b 44
        E 0 80 2d 00
        E 0 90 35 44
        E 16 b0 0b 3b
        E 0 80 35 00
        E 0 90 38 3b
        E 16 80 38 00
        E 16 b0 0b 66
        E 0 90 2d 66
        E 16 b0 0b 44
        E 0 80 2d 00
        E 0 90 35 44
        E 16 b0 0b 3b
        E 0 80 35 00
        E 0 90 38 3b
        E 16 b0 0b 66
        E 0 80 38 00
        E 0 90 3d 66
        E 16 80 3d 00
        E 0 90 2d 66
        E 16 b0 0b 44
        E 0 80 2d 00
        E 0 90 35 44
        E 16 b0 0b 3b
        E 0 80 35 00
        E 0 90 38 3b
        E 16 80 38 00
        E 16 b0 0b 66
        E 0 90 2d 66
        E 16 b0 0b 44
        E 0 80 2d 00
        E 0 90 35 44
        E 16 b0 0b 3b
        E 0 80 35 00
        E 0 90 38 3b
        E 16 b0 0b 66
        E 0 80 38 00
        E 0 90 3d 66
        E 16 80 3d 00
        E 0 90 2d 66
        E 16 b0 0b 44
        E 0 80 2d 00
        E 0 90 35 44
        E 16 b0 0b 3b
        E 0 80 35 00
        E 0 90 38 3b
        E 16 80 38 00
        E 16 b0 0b 66
        E 0 90 2d 66
        E 16 b0 0b 44
        E 0 80 2d 00
        E 0 90 35 44
        E 16 b0 0b 3b
        E 0 80 35 00
        E 0 90 38 3b
        E 16 b0 0b 66
        E 0 80 38 00
        E 0 90 3d 66
        E 16 80 3d 00
        E 0 90 2d 66
        E 16 b0 0b 44
        E 0 80 2d 00
        E 0 90 35 44
        E 16 b0 0b 3b
        E 0 80 35 00
        E 0 90 38 3b
        E 16 80 38 00
        E 16 b0 0b 66
        E 0 90 2d 66
        E 16 b0 0b 44
        E 0 80 2d 00
        E 0 90 35 44
        E 16 b0 0b 3b
        E 0 80 35 00
        E 0 90 38 3b
        E 16 b0 0b 66
        E 0 80 38 00
        E 0 90 3d 66
        E 16 80 3d 00
        E 0 90 2d 66
        E 16 b0 0b 44
        E 0 80 2d 00
        E 0 90 35 44
        E 16 b0 0b 3b
        E 0 80 35 00
        E 0 90 38 3b
        E 16 80 38 00
        E 16 b0 0b 66
        E 0 90 2d 66
        E 16 b0 0b 44
        E 0 80 2d 00
        E 0 90 35 44
        E 16 b0 0b 3b
        E 0 80 35 00
        E 0 90 38 3b
        E 16 b0 0b 66
        E 0 80 38 00
        E 0 90 3d 66
        E 16 80 3d 00
        E 0 90 2d 66
        E 16 b0 0b 44
        E 0 80 2d 00
        E 0 90 35 44
        E 16 b0 0b 3b
        E 0 80 35 00
        E 0 90 38 3b
        E 16 b0 0b 66
        E 0 80 38 00
        E 0 90 3d 66
        E 16 b0 0b 33
        E 0 80 3d 00
        E 0 90 73 33
        E 80 b0 0b 5d
        E 0 80 73 00
        E 0 90 3a 5d
        E 16 80 3a 00
        E 16 b0 0b 66
        E 0 90 2b 66
        E 16 b0 0b 44
        E 0 80 2b 00
        E 0 90 35 44
        E 16 b0 0b 3b
        E 0 80 35 00
        E 0 90 38 3b
        E 16 b0 0b 66
        E 0 80 38 00
        E 0 90 3d 66
        E 16 80 3d 00
        E 0 90 2d 66
        E 16 b0 0b 44
        E 0 80 2d 00
        E 0 90 35 44
        E 16 b0 0b 3b
        E 0 80 35 00
        E 0 90 38 3b
        E 16 80 38 00
        E 16 b0 0b 66
        E 0 90 2d 66
        E 16 b0 0b 44
        E 0 80 2d 00
        E 0 90 35 44
        E 16 b0 0b 3b
        E 0 80 35 00
        E 0 90 38 3b
        E 16 b0 0b 66
        E 0 80 38 00
        E 0 90 3d 66
        E 16 80 3d 00
        E 0 90 2d 66
        E 16 b0 0b 44
        E 0 80 2d 00
        E 0 90 35 44
        E 16 b0 0b 3b
        E 0 80 35 00
        E 0 90 38 3b
        E 16 80 38 00
        E 16 b0 0b 66
        E 0 90 2d 66
        E 16 b0 0b 44
        E 0 80 2d 00
        E 0 90 35 44
        E 16 b0 0b 3b
        E 0 80 35 00
        E 0 90 38 3b
        E 16 b0 0b 66
        E 0 80 38 00
        E 0 90 3d 66
        E 16 80 3d 00
        E 0 90 2d 66
        E 16 b0 0b 44
        E 0 80 2d 00
        E 0 90 35 44
        E 16 b0 0b 3b
        E 0 80 35 00
        E 0 90 38 3b
        E 16 80 38 00
        E 16 b0 0b 66
        E 0 90 2d 66
        E 16 b0 0b 44
        E 0 80 2d 00
        E 0 90 35 44
        E 16 b0 0b 3b
        E 0 80 35 00
        E 0 90 38 3b
        E 16 b0 0b 66
        E 0 80 38 00
        E 0 90 3d 66
        E 16 80 3d 00
        E 0 90 2d 66
        E 16 b0 0b 44
        E 0 80 2d 00
        E 0 90 35 44
        E 16 b0 0b 3b
        E 0 80 35 00
        E 0 90 38 3b
        E 16 80 38 00
        E 16 b0 0b 66
        E 0 90 2d 66
        E 16 b0 0b 44
        E 0 80 2d 00
        E 0 90 35 44
        E 16 b0 0b 3b
        E 0 80 35 00
        E 0 90 38 3b
        E 16 b0 0b 66
        E 0 80 38 00
        E 0 90 3d 66
        E 16 80 3d 00
        E 0 90 2d 66
        E 16 b0 0b 44
        E 0 80 2d 00
        E 0 90 35 44
        E 16 b0 0b 3b
        E 0 80 35 00
        E 0 90 38 3b
        E 16 80 38 00
        E 16 b0 0b 66
        E 0 90 2d 66
        E 16 b0 0b 44
        E 0 80 2d 00
        E 0 90 35 44
        E 16 b0 0b 3b
        E 0 80 35 00
        E 0 90 38 3b
        E 16 b0 0b 66
        E 0 80 38 00
        E 0 90 3d 66
        E 16 80 3d 00
        E 0 90 2d 66
        E 16 b0 0b 44
        E 0 80 2d 00
        E 0 90 35 44
        E 16 b0 0b 3b
        E 0 80 35 00
        E 0 90 38 3b
        E 16 80 38 00
        E 16 b0 0b 66
        E 0 90 2d 66
        E 16 80 2d 00
        E 16 b0 0c 40
        E 0 b0 0b 7f
        E 0 90 38 7f
        E 112 80 38 00
        E 16 90 38 7f
        E 128 b0 0c 60
        E 0 80 38 00
        E 0 90 6b 7f
        E 128 b0 0b 66
        E 0 80 6b 00
        E 0 90 39 66
        E 48 80 39 00
        E 16 b0 0c 40
        E 0 b0 0b 7f
        E 0 90 2e 7f
        E 128 b0 0c 60
        E 0 80 2e 00
        E 0 90 6b 7f
        E 128 b0 0b 66
        E 0 80 6b 00
        E 0 90 39 66
        E 112 80 39 00
        E 16 b0 0c 40
        E 0 b0 0b 7f
        E 0 90 2e 7f
        E 128 b0 0c 60
        E 0 80 2e 00
        E 0 90 6b 7f
        E 128 b0 0b 66
        E 0 80 6b 00
        E 0 90 39 66
        E 128 b0 0b 2a
        E 0 80 39 00
        E 0 90 3c 2a
        E 128 b0 0b 19
        E 0 80 3c 00
        E 0 90 3f 19
        E 128 b0 0b 08
        E 0 80 3f 00
        E 0 90 41 08
        E 128 80 41 00
        E 16 b0 0c 20
        E 0 b0 0b 6e
        E 0 90 28 6e
        E 32 80 28 00
        E 16 b0 0c 60
        E 0 b0 0b 66
        E 0 90 29 66
        E 16 b0 0b 44
        E 0 80 29 00
        E 0 90 35 44
        E 16 b0 0b 3b
        E 0 80 35 00
        E 0 90 38 3b
        E 16 80 38 00
        E 16 b0 0b 5d
        E 0 90 73 5d
        E 48 b0 0c 10
        E 0 80 73 00
        E 0 90 54 5d
        E 32 b0 0b 3b
        E 0 80 54 00
        E 0 90 49 3b
        E 32 80 49 00
        E 16 b0 0c 60
        E 0 b0 0b 5d
        E 0 90 4d 5d
        E 48 b0 0c 10
        E 0 80 4d 00
        E 0 90 54 5d
        E 16 80 54 00
        E 16 b0 0c 60
        E 0 90 49 5d
        E 48 b0 0c 10
        E 0 80 49 00
        E 0 90 54 5d
        E 16 80 54 00
        E 16 b0 0c 40
        E 0 b0 0b 7f
        E 0 90 33 7f
        E 128 b0 0c 60
        E 0 80 33 00
        E 0 90 6b 7f
        E 128 b0 0b 66
        E 0 80 6b 00
        E 0 90 39 66
        E 128 b0 0b 2a
        E 0 80 39 00
        E 0 90 3c 2a
        E 128 b0 0b 19
        E 0 80 3c 00
        E 0 90 3f 19
        E 128 b0 0b 08
        E 0 80 3f 00
        E 0 90 41 08
        E 128 80 41 00
        E 16 b0 0b 66
        E 0 90 28 66
        E 16 b0 0b 44
        E 0 80 28 00
        E 0 90 35 44
        E 16 b0 0b 3b
        E 0 80 35 00
        E 0 90 38 3b
        E 16 b0 0b 66
        E 0 80 38 00
        E 0 90 3d 66
        E 16 80 3d 00
        E 0 90 2d 66
        E 16 b0 0b 44
        E 0 80 2d 00
        E 0 90 35 44
        E 16 b0 0b 3b
        E 0 80 35 00
        E 0 90 38 3b
        E 16 80 38 00
        E 16 b0 0b 66
        E 0 90 2d 66
        E 16 b0 0b 44
        E 0 80 2d 00
        E 0 90 35 44
        E 16 b0 0b 3b
        E 0 80 35 00
        E 0 90 38 3b
        E 16 b0 0b 66
        E 0 80 38 00
        E 0 90 3d 66
        E 16 80 3d 00
        E 0 90 2d 66
        E 16 b0 0b 44
        E 0 80 2d 00
        E 0 90 35 44
        E 16 b0 0b 3b
        E 0 80 35 00
        E 0 90 38 3b
        E 16 80 38 00
        E 16 b0 0c 40
        E 0 b0 0b 7f
        E 0 90 38 7f
        E 128 b0 0c 60
        E 0 80 38 00
        E 0 90 6b 7f
        E 128 b0 0b 66
        E 0 80 6b 00
        E 0 90 39 66
        E 128 b0 0b 2a
        E 0 80 39 00
        E 0 90 3c 2a
        E 80 80 3c 00
        E 4128 b0 0b 44
        E 0 90 22 44
        E 16 b0 0b 3b
        E 16 b0 0b 33
        E 16 b0 0b 2a
        E 16 b0 0b 22
        E 16 b0 0b 19
        E 16 b0 0b 11
        E 16 b0 0b 08
        E 464 b0 0b 3b
        E 0 80 22 00
        E 0 90 4b 3b
        E 16 b0 0b 33
        E 16 b0 0b 2a
        E 16 b0 0b 22
        E 16 b0 0b 19
        E 336 b0 0b 11
        E 16 b0 0b 08
        E 160 b0 0b 3b
        E 0 80 4b 00
        E 0 90 2d 3b
        E 16 b0 0b 33
        E 16 b0 0b 2a
        E 16 b0 0b 22
        E 16 b0 0b 19
        E 336 b0 0b 11
        E 16 b0 0b 08
        E 160 b0 0b 3b
        E 16 b0 0b 33
        E 16 b0 0b 2a
        E 16 b0 0b 22
        E 16 b0 0b 19
        E 336 b0 0b 11
        E 16 b0 0b 08
        E 160 b0 0b 3b
        E 16 b0 0b 33
        E 16 b0 0b 2a
        E 16 b0 0b 22
        E 16 b0 0b 19
        E 2208 b0 0b 11
        E 16 b0 0b 08
        E 272 80 2d 00
        E 2448 b0 0c 10
        E 0 b0 0b 22
        E 0 90 4c 22
        E 16 80 4c 00
        E 32 b0 0c 60
        E 0 b0 0b 11
        E 0 90 4c 11
        E 16 b0 0b 08
        E 16 80 4c 00
        E 736 b0 0c 20
        E 0 b0 0b 6e
        E 0 90 2c 6e
        E 80 b0 0b 5d
        E 0 80 2c 00
        E 0 90 44 5d
        E 32 80 44 00
        E 16 b0 0b 6e
        E 0 90 27 6e
        E 80 b0 0b 5d
        E 0 80 27 00
        E 0 90 44 5d
        E 32 80 44 00
        E 16 b0 0b 6e
        E 0 90 27 6e
        E 80 b0 0b 5d
        E 0 80 27 00
        E 0 90 44 5d
        E 32 80 44 00
        E 16 b0 0b 6e
        E 0 90 27 6e
        E 80 b0 0b 5d
        E 0 80 27 00
        E 0 90 44 5d
        E 80 b0 0c 60
        E 0 b0 0b 55
        E 0 80 44 00
        E 0 90 3e 55
        E 16 b0 0c 20
        E 0 b0 0b 33
        E 0 80 3e 00
        E 0 90 71 33
        E 80 b0 0c 60
        E 0 b0 0b 55
        E 0 80 71 00
        E 0 90 3a 55
        E 16 b0 0c 20
        E 0 b0 0b 2a
        E 0 80 3a 00
        E 0 90 38 2a
        E 80 b0 0b 22
        E 0 80 38 00
        E 0 90 36 22
        E 80 b0 0b 19
        E 0 80 36 00
        E 0 90 32 19
        E 64 80 32 00
        E 16 b0 0b 6e
        E 0 90 27 6e
        E 80 b0 0b 5d
        E 0 80 27 00
        E 0 90 44 5d
        E 32 80 44 00
        E 16 b0 0b 6e
        E 0 90 27 6e
        E 80 b0 0b 5d
        E 0 80 27 00
        E 0 90 44 5d
        E 32 80 44 00
        E 16 b0 0b 6e
        E 0 90 27 6e
        E 80 b0 0b 5d
        E 0 80 27 00
        E 0 90 44 5d
        E 32 80 44 00
        E 16 b0 0b 6e
        E 0 90 27 6e
        E 80 b0 0b 5d
        E 0 80 27 00
        E 0 90 44 5d
        E 80 b0 0c 60
        E 0 b0 0b 55
        E 0 80 44 00
        E 0 90 3e 55
        E 16 b0 0c 20
        E 0 b0 0b 33
        E 0 80 3e 00
        E 0 90 71 33
        E 80 b0 0c 60
        E 0 b0 0b 55
        E 0 80 71 00
        E 0 90 3a 55
        E 16 b0 0c 20
        E 0 b0 0b 2a
        E 0 80 3a 00
        E 0 90 38 2a
        E 80 b0 0b 22
        E 0 80 38 00
        E 0 90 36 22
        E 80 b0 0b 19
        E 0 80 36 00
        E 0 90 32 19
        E 64 80 32 00
        E 16 b0 0b 6e
        E 0 90 27 6e
        E 80 b0 0b 5d
        E 0 80 27 00
        E 0 90 44 5d
        E 32 80 44 00
        E 16 b0 0b 6e
        E 0 90 27 6e
        E 80 b0 0b 5d
        E 0 80 27 00
        E 0 90 44 5d
        E 32 80 44 00
        E 16 b0 0b 6e
        E 0 90 27 6e
        E 80 b0 0b 5d
        E 0 80 27 00
        E 0 90 44 5d
        E 32 80 44 00
        E 16 b0 0b 6e
        E 0 90 27 6e
        E 48 80 27 00
        E 16 b0 0c 40
        E 0 b0 0b 7f
        E 0 90 32 7f
        E 128 b0 0c 60
        E 0 80 32 00
        E 0 90 6b 7f
        E 128 b0 0b 66
        E 0 80 6b 00
        E 0 90 39 66
        E 128 b0 0b 2a
        E 0 80 39 00
        E 0 90 3c 2a
        E 128 b0 0b 19
        E 0 80 3c 00
        E 0 90 3f 19
        E 96 80 3f 00
        E 16 b0 0c 40
        E 0 b0 0b 7f
        E 0 90 30 7f
        E 128 b0 0c 60
        E 0 80 30 00
        E 0 90 6b 7f
        E 128 b0 0b 66
        E 0 80 6b 00
        E 0 90 39 66
        E 128 b0 0b 2a
        E 0 80 39 00
        E 0 90 3c 2a
        E 128 b0 0b 19
        E 0 80 3c 00
        E 0 90 3f 19
        E 128 b0 0b 08
        E 0 80 3f 00
        E 0 90 41 08
        E 112 80 41 00
        E 16 b0 0c 40
        E 0 b0 0b 7f
        E 0 90 30 7f
        E 128 b0 0c 60
        E 0 80 30 00
        E 0 90 6b 7f
        E 128 b0 0b 66
        E 0 80 6b 00
        E 0 90 39 66
        E 128 b0 0b 2a
        E 0 80 39 00
        E 0 90 3c 2a
        E 128 b0 0b 19
        E 0 80 3c 00
        E 0 90 3f 19
        E 128 b0 0b 08
        E 0 80 3f 00
        E 0 90 41 08
        E 128 80 41 00
        E 80 b0 0c 20
        E 0 b0 0b 6e
        E 0 90 28 6e
        E 80 b0 0b 5d
        E 0 80 28 00
        E 0 90 44 5d
        E 32 80 44 00
        E 16 b0 0b 6e
        E 0 90 27 6e
        E 80 b0 0b 5d
        E 0 80 27 00
        E 0 90 44 5d
        E 32 80 44 00
        E 16 b0 0b 6e
        E 0 90 27 6e
        E 80 b0 0b 5d
        E 0 80 27 00
        E 0 90 44 5d
        E 32 80 44 00
        E 16 b0 0b 6e
        E 0 90 27 6e
        E 80 b0 0b 5d
        E 0 80 27 00
        E 0 90 44 5d
        E 80 b0 0c 60
        E 0 b0 0b 55
        E 0 80 44 00
        E 0 90 3e 55
        E 16 b0 0c 20
        E 0 b0 0b 33
        E 0 80 3e 00
        E 0 90 71 33
        E 80 80 71 00
        E 16 b0 0c 60
        E 0 b0 0b 5d
        E 0 90 6f 5d
        E 48 b0 0c 10
        E 0 80 6f 00
        E 0 90 54 5d
        E 32 b0 0b 3b
        E 0 80 54 00
        E 0 90 49 3b
        E 32 b0 0b 2a
        E 0 80 49 00
        E 0 90 4b 2a
        E 32 b0 0b 22
        E 0 80 4b 00
        E 0 90 4d 22
        E 32 b0 0b 19
        E 0 80 4d 00
        E 0 90 4f 19
        E 32 80 4f 00
        E 0 90 51 19
        E 32 80 51 00
        E 16 b0 0c 60
        E 0 b0 0b 5d
        E 0 90 51 5d
        E 48 b0 0c 10
        E 0 80 51 00
        E 0 90 54 5d
        E 32 b0 0b 3b
        E 0 80 54 00
        E 0 90 49 3b
        E 32 80 49 00
        E 16 b0 0c 60
        E 0 b0 0b 5d
        E 0 90 4d 5d
        E 48 b0 0c 10
        E 0 80 4d 00
        E 0 90 54 5d
        E 32 b0 0b 3b
        E 0 80 54 00
        E 0 90 49 3b
        E 32 b0 0b 2a
        E 0 80 49 00
        E 0 90 4b 2a
        E 32 b0 0b 22
        E 0 80 4b 00
        E 0 90 4d 22
        E 32 b0 0b 19
        E 0 80 4d 00
        E 0 90 4f 19
        E 32 80 4f 00
        E 0 90 51 19
        E 32 b0 0b 11
        E 64 b0 0b 08
        E 64 80 51 00
        E 48 b0 0c 40
        E 0 b0 0b 7f
        E 0 90 35 7f
        E 128 b0 0c 60
        E 0 80 35 00
        E 0 90 6b 7f
        E 128 b0 0b 66
        E 0 80 6b 00
        E 0 90 39 66
        E 128 b0 0b 2a
        E 0 80 39 00
        E 0 90 3c 2a
        E 128 80 3c 00
        E 16 b0 0c 40
        E 0 b0 0b 7f
        E 0 90 30 7f
        E 128 b0 0c 60
        E 0 80 30 00
        E 0 90 6b 7f
        E 96 80 6b 00
        E 32 b0 0c 40
        E 0 90 38 7f
        E 128 b0 0c 60
        E 0 80 38 00
        E 0 90 6b 7f
        E 128 b0 0b 66
        E 0 80 6b 00
        E 0 90 39 66
        E 128 b0 0b 2a
        E 0 80 39 00
        E 0 90 3c 2a
        E 128 b0 0b 19
        E 0 80 3c 00
        E 0 90 3f 19
        E 128 b0 0b 08
        E 0 80 3f 00
        E 0 90 41 08
        E 128 80 41 00
        E 192 b0 0c 20
        E 0 b0 0b 6e
        E 0 90 28 6e
        E 80 b0 0b 5d
        E 0 80 28 00
        E 0 90 44 5d
        E 32 80 44 00
        E 16 b0 0b 6e
        E 0 90 27 6e
        E 80 b0 0b 5d
        E 0 80 27 00
        E 0 90 44 5d
        E 32 80 44 00
        E 16 b0 0b 6e
        E 0 90 27 6e
        E 80 b0 0b 5d
        E 0 80 27 00
        E 0 90 44 5d
        E 32 80 44 00
        E 16 b0 0b 6e
        E 0 90 27 6e
        E 80 b0 0b 5d
        E 0 80 27 00
        E 0 90 44 5d
        E 32 80 44 00
        E 16 b0 0b 6e
        E 0 90 27 6e
        E 80 b0 0b 5d
        E 0 80 27 00
        E 0 90 44 5d
        E 80 b0 0c 60
        E 0 b0 0b 55
        E 0 80 44 00
        E 0 90 3e 55
        E 16 b0 0c 20
        E 0 b0 0b 33
        E 0 80 3e 00
        E 0 90 71 33
        E 64 80 71 00
        E 16 b0 0b 6e
        E 0 90 26 6e
        E 80 b0 0b 5d
        E 0 80 26 00
        E 0 90 44 5d
        E 32 80 44 00
        E 16 b0 0b 6e
        E 0 90 27 6e
        E 80 b0 0b 5d
        E 0 80 27 00
        E 0 90 44 5d
        E 32 80 44 00
        E 16 b0 0b 6e
        E 0 90 27 6e
        E 80 b0 0b 5d
        E 0 80 27 00
        E 0 90 44 5d
        E 32 80 44 00
        E 16 b0 0b 6e
        E 0 90 27 6e
        E 80 b0 0b 5d
        E 0 80 27 00
        E 0 90 44 5d
        E 32 80 44 00
        E 16 b0 0b 6e
        E 0 90 27 6e
        E 80 b0 0b 5d
        E 0 80 27 00
        E 0 90 44 5d
        E 80 b0 0c 60
        E 0 b0 0b 55
        E 0 80 44 00
        E 0 90 3e 55
        E 16 b0 0c 20
        E 0 b0 0b 33
        E 0 80 3e 00
        E 0 90 71 33
        E 64 80 71 00
        E 16 b0 0b 6e
        E 0 90 26 6e
        E 80 b0 0b 5d
        E 0 80 26 00
        E 0 90 44 5d
        E 32 80 44 00
        E 16 b0 0b 6e
        E 0 90 27 6e
        E 80 b0 0b 5d
        E 0 80 27 00
        E 0 90 44 5d
        E 32 80 44 00
        E 16 b0 0b 6e
        E 0 90 27 6e
        E 80 b0 0b 5d
        E 0 80 27 00
        E 0 90 44 5d
        E 32 80 44 00
        E 16 b0 0b 6e
        E 0 90 27 6e
        E 80 b0 0b 5d
        E 0 80 27 00
        E 0 90 44 5d
        E 32 80 44 00
        E 16 b0 0b 6e
        E 0 90 27 6e
        E 80 b0 0b 5d
        E 0 80 27 00
        E 0 90 44 5d
        E 80 b0 0c 60
        E 0 b0 0b 55
        E 0 80 44 00
        E 0 90 3e 55
        E 16 b0 0c 20
        E 0 b0 0b 33
        E 0 80 3e 00
        E 0 90 71 33
        E 64 80 71 00
        E 16 b0 0b 6e
        E 0 90 26 6e
        E 80 b0 0b 5d
        E 0 80 26 00
        E 0 90 44 5d
        E 32 80 44 00
        E 16 b0 0b 6e
        E 0 90 27 6e
        E 80 b0 0b 5d
        E 0 80 27 00
        E 0 90 44 5d
        E 32 80 44 00
        E 16 b0 0b 6e
        E 0 90 27 6e
        E 80 b0 0b 5d
        E 0 80 27 00
        E 0 90 44 5d
        E 32 80 44 00
        E 16 b0 0b 6e
        E 0 90 27 6e
        E 80 b0 0b 5d
        E 0 80 27 00
        E 0 90 44 5d
        E 32 80 44 00
        E 16 b0 0b 6e
        E 0 90 27 6e
        E 80 b0 0b 5d
        E 0 80 27 00
        E 0 90 44 5d
        E 80 b0 0c 60
        E 0 b0 0b 55
        E 0 80 44 00
        E 0 90 3e 55
        E 16 b0 0c 20
        E 0 b0 0b 33
        E 0 80 3e 00
        E 0 90 71 33
        E 64 80 71 00
        E 16 b0 0b 6e
        E 0 90 26 6e
        E 80 b0 0b 5d
        E 0 80 26 00
        E 0 90 44 5d
        E 80 b0 0c 60
        E 0 b0 0b 55
        E 0 80 44 00
        E 0 90 3e 55
        E 16 b0 0c 20
        E 0 b0 0b 33
        E 0 80 3e 00
        E 0 90 71 33
        E 64 80 71 00
        E 16 b0 0b 6e
        E 0 90 26 6e
        E 80 b0 0b 5d
        E 0 80 26 00
        E 0 90 44 5d
        E 32 80 44 00
        E 16 b0 0b 6e
        E 0 90 27 6e
        E 80 b0 0b 5d
        E 0 80 27 00
        E 0 90 44 5d
        E 32 80 44 00
        E 16 b0 0b 6e
        E 0 90 27 6e
        E 80 b0 0b 5d
        E 0 80 27 00
        E 0 90 44 5d
        E 32 80 44 00
        E 16 b0 0b 6e
        E 0 90 27 6e
        E 80 b0 0b 5d
        E 0 80 27 00
        E 0 90 44 5d
        E 80 b0 0c 60
        E 0 b0 0b 55
        E 0 80 44 00
        E 0 90 3e 55
        E 16 b0 0c 20
        E 0 b0 0b 33
        E 0 80 3e 00
        E 0 90 71 33
        E 64 80 71 00
        E 16 b0 0b 6e
        E 0 90 26 6e
        E 80 b0 0b 5d
        E 0 80 26 00
        E 0 90 44 5d
        E 80 b0 0c 60
        E 0 b0 0b 55
        E 0 80 44 00
        E 0 90 3e 55
        E 16 b0 0c 20
        E 0 b0 0b 33
        E 0 80 3e 00
        E 0 90 71 33
        E 64 80 71 00
        E 16 b0 0b 6e
        E 0 90 26 6e
        E 80 b0 0b 5d
        E 0 80 26 00
        E 0 90 44 5d
        E 32 80 44 00
        E 16 b0 0b 6e
        E 0 90 27 6e
        E 80 b0 0b 5d
        E 0 80 27 00
        E 0 90 44 5d
        E 32 80 44 00
        E 16 b0 0b 6e
        E 0 90 27 6e
        E 80 b0 0b 5d
        E 0 80 27 00
        E 0 90 44 5d
        E 32 80 44 00
        E 16 b0 0b 6e
        E 0 90 27 6e
        E 80 b0 0b 5d
        E 0 80 27 00
        E 0 90 44 5d
        E 80 b0 0c 60
        E 0 b0 0b 55
        E 0 80 44 00
        E 0 90 3e 55
        E 16 b0 0c 20
        E 0 b0 0b 33
        E 0 80 3e 00
        E 0 90 71 33
        E 64 80 71 00
        E 16 b0 0b 6e
        E 0 90 26 6e
        E 80 b0 0b 5d
        E 0 80 26 00
        E 0 90 44 5d
        E 80 b0 0c 60
        E 0 b0 0b 55
        E 0 80 44 00
        E 0 90 3e 55
        E 16 b0 0c 20
        E 0 b0 0b 33
        E 0 80 3e 00
        E 0 90 71 33
        E 64 80 71 00
        E 16 b0 0b 6e
        E 0 90 26 6e
        E 80 b0 0b 5d
        E 0 80 26 00
        E 0 90 44 5d
        E 32 80 44 00
        E 16 b0 0b 6e
        E 0 90 27 6e
        E 80 b0 0b 5d
        E 0 80 27 00
        E 0 90 44 5d
        E 32 80 44 00
        E 16 b0 0b 6e
        E 0 90 27 6e
        E 80 b0 0b 5d
        E 0 80 27 00
        E 0 90 44 5d
        E 32 80 44 00
        E 32 b0 0c 60
        E 0 90 44 5d
        E 48 b0 0c 10
        E 0 80 44 00
        E 0 90 54 5d
        E 32 b0 0b 3b
        E 0 80 54 00
        E 0 90 49 3b
        E 32 b0 0b 2a
        E 0 80 49 00
        E 0 90 4b 2a
        E 32 b0 0b 22
        E 0 80 4b 00
        E 0 90 4d 22
        E 32 b0 0b 19
        E 0 80 4d 00
        E 0 90 4f 19
        E 32 80 4f 00
        E 0 90 51 19
        E 32 80 51 00
        E 16 b0 0c 60
        E 0 b0 0b 5d
        E 0 90 51 5d
        E 48 b0 0c 10
        E 0 80 51 00
        E 0 90 54 5d
        E 32 b0 0b 3b
        E 0 80 54 00
        E 0 90 49 3b
        E 32 80 49 00
        E 16 b0 0c 60
        E 0 b0 0b 5d
        E 0 90 4d 5d
        E 48 b0 0c 10
        E 0 80 4d 00
        E 0 90 54 5d
        E 32 b0 0b 3b
        E 0 80 54 00
        E 0 90 49 3b
        E 32 b0 0b 2a
        E 0 80 49 00
        E 0 90 4b 2a
        E 32 80 4b 00
        E 16 b0 0c 40
        E 0 b0 0b 7f
        E 0 90 35 7f
        E 128 b0 0c 60
        E 0 80 35 00
        E 0 90 6b 7f
        E 128 b0 0b 66
        E 0 80 6b 00
        E 0 90 39 66
        E 128 b0 0b 2a
        E 0 80 39 00
        E 0 90 3c 2a
        E 128 b0 0b 19
        E 0 80 3c 00
        E 0 90 3f 19
        E 128 b0 0b 08
        E 0 80 3f 00
        E 0 90 41 08
        E 128 80 41 00
        E 80 b0 0c 20
        E 0 b0 0b 6e
        E 0 90 28 6e
        E 80 b0 0b 5d
        E 0 80 28 00
        E 0 90 44 5d
        E 32 80 44 00
        E 16 b0 0b 6e
        E 0 90 27 6e
        E 80 b0 0b 5d
        E 0 80 27 00
        E 0 90 44 5d
        E 32 80 44 00
        E 16 b0 0b 6e
        E 0 90 27 6e
        E 80 b0 0b 5d
        E 0 80 27 00
        E 0 90 44 5d
        E 32 80 44 00
        E 16 b0 0b 6e
        E 0 90 27 6e
        E 48 80 27 00
        E 16 b0 0c 40
        E 0 b0 0b 7f
        E 0 90 32 7f
        E 128 b0 0c 60
        E 0 80 32 00
        E 0 90 6b 7f
        E 96 80 6b 00
        E 16 b0 0c 40
        E 0 90 2d 7f
        E 128 b0 0c 60
        E 0 80 2d 00
        E 0 90 6b 7f
        E 112 80 6b 00
        E 16 b0 0c 40
        E 0 90 2d 7f
        E 128 b0 0c 60
        E 0 80 2d 00
        E 0 90 6b 7f
        E 128 b0 0b 66
        E 0 80 6b 00
        E 0 90 39 66
        E 128 b0 0b 2a
        E 0 80 39 00
        E 0 90 3c 2a
        E 128 b0 0b 19
        E 0 80 3c 00
        E 0 90 3f 19
        E 128 b0 0b 08
        E 0 80 3f 00
        E 0 90 41 08
        E 112 80 41 00
        E 16 b0 0c 40
        E 0 b0 0b 7f
        E 0 90 30 7f
        E 128 b0 0c 60
        E 0 80 30 00
        E 0 90 6b 7f
        E 128 b0 0b 66
        E 0 80 6b 00
        E 0 90 39 66
        E 128 b0 0b 2a
        E 0 80 39 00
        E 0 90 3c 2a
        E 128 b0 0b 19
        E 0 80 3c 00
        E 0 90 3f 19
        E 128 b0 0b 08
        E 0 80 3f 00
        E 0 90 41 08
        E 128 80 41 00
        E 48 b0 0c 10
        E 0 b0 0b 22
        E 0 90 41 22
        E 16 80 41 00
        E 32 b0 0c 60
        E 0 b0 0b 11
        E 0 90 41 11
        E 16 b0 0b 08
        E 16 80 41 00
        E 32 b0 0c 10
        E 0 b0 0b 6e
        E 0 90 38 6e
        E 16 80 38 00
        E 0 90 2d 6e
        E 608 80 2d 00
        E 16 b0 0c 60
        E 0 b0 0b 7f
        E 0 90 39 7f
        E 48 b0 0b 3b
        E 48 b0 0b 19
        E 48 80 39 00
        E 64 b0 0c 10
        E 0 b0 0b 7f
        E 0 90 43 7f
        E 32 80 43 00
        E 0 90 42 7f
        E 32 80 42 00
        E 0 90 41 7f
        E 32 80 41 00
        E 0 90 40 7f
        E 16 80 40 00
        E 16 b0 0c 60
        E 0 90 3f 7f
        E 48 b0 0b 3b
        E 0 80 3f 00
        E 0 90 39 3b
        E 48 b0 0b 19
        E 48 80 39 00
        E 64 b0 0c 10
        E 0 b0 0b 7f
        E 0 90 43 7f
        E 32 80 43 00
        E 0 90 42 7f
        E 32 80 42 00
        E 0 90 41 7f
        E 32 80 41 00
        E 0 90 40 7f
        E 32 80 40 00
        E 0 90 3f 7f
        E 32 80 3f 00
        E 0 90 3d 7f
        E 32 80 3d 00
        E 0 90 3c 7f
        E 32 b0 0b 77
        E 0 80 3c 00
        E 0 90 2d 77
        E 32 80 2d 00
        E 0 90 39 77
        E 32 80 39 00
        E 0 90 37 77
        E 32 80 37 00
        E 0 90 36 77
        E 32 b0 0b 6e
        E 0 80 36 00
        E 0 90 34 6e
        E 32 80 34 00
        E 0 90 33 6e
        E 32 80 33 00
        E 0 90 31 6e
        E 32 80 31 00
        E 0 90 30 6e
        E 32 b0 0b 66
        E 0 80 30 00
        E 0 90 26 66
        E 32 80 26 00
        E 0 90 2d 66
        E 32 80 2d 00
        E 0 90 2b 66
        E 32 80 2b 00
        E 0 90 2a 66
        E 32 b0 0b 5d
        E 0 80 2a 00
        E 0 90 28 5d
        E 32 80 28 00
        E 0 90 22 5d
        E 32 80 22 00
        E 0 90 25 5d
        E 32 80 25 00
        E 0 90 24 5d
        E 32 80 24 00
        E 0 90 22 5d
        E 32 80 22 00
        E 0 90 1d 5d
        E 32 80 1d 00
        E 0 90 1f 5d
        E 32 80 1f 00
        E 0 90 1b 5d
        E 32 80 1b 00
        E 0 90 1c 5d
        E 32 80 1c 00
        E 0 90 18 5d
        E 32 80 18 00
        E 0 90 19 5d
        E 32 80 19 00
        E 0 90 18 5d
        E 32 80 18 00
        E 176 b0 0c 20
        E 0 b0 0b 6e
        E 0 90 28 6e
        E 80 b0 0b 5d
        E 0 80 28 00
        E 0 90 44 5d
        E 32 80 44 00
        E 16 b0 0b 6e
        E 0 90 27 6e
        E 80 b0 0b 5d
        E 0 80 27 00
        E 0 90 44 5d
        E 32 80 44 00
        E 16 b0 0b 6e
        E 0 90 27 6e
        E 80 b0 0b 5d
        E 0 80 27 00
        E 0 90 44 5d
        E 32 80 44 00
        E 16 b0 0b 6e
        E 0 90 27 6e
        E 80 b0 0b 5d
        E 0 80 27 00
        E 0 90 44 5d
        E 32 80 44 00
        E 16 b0 0b 6e
        E 0 90 27 6e
        E 80 b0 0b 5d
        E 0 80 27 00
        E 0 90 44 5d
        E 32 80 44 00
        E 16 b0 0b 6e
        E 0 90 27 6e
        E 80 b0 0b 5d
        E 0 80 27 00
        E 0 90 44 5d
        E 32 80 44 00
        E 16 b0 0b 6e
        E 0 90 27 6e
        E 80 b0 0b 5d
        E 0 80 27 00
        E 0 90 44 5d
        E 32 80 44 00
        E 16 b0 0b 6e
        E 0 90 27 6e
        E 80 b0 0b 5d
        E 0 80 27 00
        E 0 90 44 5d
        E 32 80 44 00
        E 16 b0 0b 6e
        E 0 90 27 6e
        E 80 b0 0b 5d
        E 0 80 27 00
        E 0 90 44 5d
        E 32 80 44 00
        E 16 b0 0b 6e
        E 0 90 27 6e
        E 80 b0 0b 5d
        E 0 80 27 00
        E 0 90 44 5d
        E 32 80 44 00
        E 16 b0 0b 6e
        E 0 90 27 6e
        E 80 b0 0b 5d
        E 0 80 27 00
        E 0 90 44 5d
        E 32 80 44 00
        E 16 b0 0b 6e
        E 0 90 27 6e
        E 80 b0 0b 5d
        E 0 80 27 00
        E 0 90 44 5d
        E 32 80 44 00
        E 16 b0 0b 6e
        E 0 90 27 6e
        E 80 b0 0b 5d
        E 0 80 27 00
        E 0 90 44 5d
        E 32 80 44 00
        E 16 b0 0b 6e
        E 0 90 27 6e
        E 80 b0 0b 5d
        E 0 80 27 00
        E 0 90 44 5d
        E 32 80 44 00
        E 16 b0 0b 6e
        E 0 90 27 6e
        E 80 b0 0b 5d
        E 0 80 27 00
        E 0 90 44 5d
        E 32 80 44 00
        E 16 b0 0b 6e
        E 0 90 27 6e
        E 80 b0 0b 5d
        E 0 80 27 00
        E 0 90 44 5d
        E 32 80 44 00
        E 16 b0 0b 6e
        E 0 90 27 6e
        E 80 b0 0b 5d
        E 0 80 27 00
        E 0 90 44 5d
        E 32 80 44 00
        E 16 b0 0b 6e
        E 0 90 27 6e
        E 80 b0 0b 5d
        E 0 80 27 00
        E 0 90 44 5d
        E 32 80 44 00
        E 16 b0 0b 6e
        E 0 90 27 6e
        E 80 b0 0b 5d
        E 0 80 27 00
        E 0 90 44 5d
        E 32 80 44 00
        E 16 b0 0b 6e
        E 0 90 27 6e
        E 80 b0 0b 5d
        E 0 80 27 00
        E 0 90 44 5d
        E 32 80 44 00
        E 16 b0 0b 6e
        E 0 90 27 6e
        E 80 b0 0b 5d
        E 0 80 27 00
        E 0 90 44 5d
        E 32 80 44 00
        E 16 b0 0b 6e
        E 0 90 27 6e
        E 80 b0 0b 5d
        E 0 80 27 00
        E 0 90 44 5d
        E 32 80 44 00
        E 16 b0 0b 6e
        E 0 90 27 6e
        E 80 b0 0b 5d
        E 0 80 27 00
        E 0 90 44 5d
        E 32 80 44 00
        E 16 b0 0b 6e
        E 0 90 27 6e
        E 80 b0 0b 5d
        E 0 80 27 00
        E 0 90 44 5d
        E 32 80 44 00
        E 16 b0 0b 6e
        E 0 90 27 6e
        E 80 b0 0b 5d
        E 0 80 27 00
        E 0 90 44 5d
        E 32 80 44 00
        E 16 b0 0b 6e
        E 0 90 27 6e
        E 80 b0 0b 5d
        E 0 80 27 00
        E 0 90 44 5d
        E 32 80 44 00
        E 16 b0 0b 6e
        E 0 90 27 6e
        E 32 80 27 00
        E 16 b0 0c 10
        E 0 90 32 6e
        E 16 80 32 00
        E 0 90 2d 6e
        E 624 b0 0b 66
        E 16 b0 0b 5d
        E 32 b0 0b 4c
        E 32 b0 0b 3b
        E 16 b0 0b 33
        E 16 b0 0b 2a
        E 32 b0 0b 19
        E 32 80 2d 00
        E 32 b0 0c 20
        E 0 b0 0b 6e
        E 0 90 26 6e
        E 80 b0 0b 5d
        E 0 80 26 00
        E 0 90 44 5d
        E 32 80 44 00
        E 16 b0 0b 6e
        E 0 90 27 6e
        E 80 b0 0b 5d
        E 0 80 27 00
        E 0 90 44 5d
        E 32 80 44 00
        E 16 b0 0b 6e
        E 0 90 27 6e
        E 32 80 27 00
        E 16 b0 0c 40
        E 0 b0 0b 7f
        E 0 90 32 7f
        E 128 b0 0c 60
        E 0 80 32 00
        E 0 90 6b 7f
        E 128 b0 0b 66
        E 0 80 6b 00
        E 0 90 39 66
        E 128 b0 0b 2a
        E 0 80 39 00
        E 0 90 3c 2a
        E 32 80 3c 00
        E 4128 b0 0b 44
        E 0 90 22 44
        E 16 b0 0b 3b
        E 16 b0 0b 33
        E 16 b0 0b 2a
        E 16 b0 0b 22
        E 16 b0 0b 19
        E 16 b0 0b 11
        E 16 b0 0b 08
        E 464 b0 0b 3b
        E 0 80 22 00
        E 0 90 4b 3b
        E 16 b0 0b 33
        E 16 b0 0b 2a
        E 16 b0 0b 22
        E 16 b0 0b 19
        E 336 b0 0b 11
        E 16 b0 0b 08
        E 160 b0 0b 3b
        E 0 80 4b 00
        E 0 90 2d 3b
        E 16 b0 0b 33
        E 16 b0 0b 2a
        E 16 b0 0b 22
        E 16 b0 0b 19
        E 336 b0 0b 11
        E 16 b0 0b 08
        E 160 b0 0b 3b
        E 16 b0 0b 33
        E 16 b0 0b 2a
        E 16 b0 0b 22
        E 16 b0 0b 19
        E 336 b0 0b 11
        E 16 b0 0b 08
        E 160 b0 0b 3b
        E 16 b0 0b 33
        E 16 b0 0b 2a
        E 16 b0 0b 22
        E 16 b0 0b 19
        E 768 80 2d 00
        E 0 b0 7b 00
        E 0 ff 2f 00
      >
    >
  >
  <TRACK {924A4A85-C6AE-46EB-B485-F0BCFEF01D91}
    NAME "NES - Pulse 2 [ch1]"
    PEAKCOL 10092441
    BEAT -1
    AUTOMODE 0
    PANLAWFLAGS 3
    VOLPAN 1 0 -1 -1 1
    MUTESOLO 0 0 0
    IPHASE 0
    PLAYOFFS 0 1
    ISBUS 0 0
    BUSCOMP 0 0 0 0 0
    SHOWINMIX 1 0.6667 0.5 1 0.5 0 0 0
    FIXEDLANES 9 0 0 0 0
    SEL 0
    REC 0 5088 1 0 0 0 0 0
    VU 2
    TRACKHEIGHT 0 0 0 0 0 0 0
    INQ 0 0 0 0.5 100 0 0 100
    NCHAN 2
    FX 1
    TRACKID {924A4A85-C6AE-46EB-B485-F0BCFEF01D91}
    PERF 0
    MIDIOUT -1
    MAINSEND 1 0
    <FXCHAIN
      WNDRECT 24 52 700 560
      SHOW 0
      LASTSEL 0
      DOCKED 0
      BYPASS 0 0 0
      <JS "ReapNES Studio/ReapNES_Console.jsfx" ""
        2 15 1 10 80 10 100 2 1 15 1 5 60 10 80 1 1 0 50 0 0 15 1 0 100 0 0 0.500000 0.500000 0.400000 0.300000 0.800000 1 1 0 0 0 0 - - - - - - - - - - - - - - - - - - - - - - - - - -
      >
      FLOATPOS 0 0 0 0
      FXID {49406A18-3623-4050-A2D8-0FACC892152A}
      WAK 0 0
    >
    <ITEM
      POSITION 0
      LENGTH 73.70140190000001
      LOOP 0
      ALLTAKES 0
      FADEIN 0 0 0 0 0 0 0
      FADEOUT 0 0 0 0 0 0 0
      MUTE 0 0
      SEL 0
      IGUID {95515B2B-11CB-49A0-B12D-77E2BBC88E6F}
      <SOURCE MIDI
        HASDATA 1 480 QN
        CCINTERP 32
        E 0 c1 51
        E 0 b1 0c 10
        E 0 b1 0b 4c
        E 0 91 2d 4c
        E 16 b1 0b 44
        E 16 b1 0b 3b
        E 16 b1 0b 33
        E 16 b1 0b 2a
        E 16 b1 0b 22
        E 16 b1 0b 19
        E 160 b1 0b 11
        E 16 b1 0b 08
        E 304 b1 0b 55
        E 0 81 2d 00
        E 0 91 45 55
        E 16 b1 0b 4c
        E 16 b1 0b 44
        E 16 b1 0b 3b
        E 16 b1 0b 33
        E 16 b1 0b 2a
        E 16 b1 0b 22
        E 16 b1 0b 19
        E 320 b1 0b 11
        E 16 b1 0b 08
        E 128 b1 0b 55
        E 16 b1 0b 4c
        E 16 b1 0b 44
        E 16 b1 0b 3b
        E 16 b1 0b 33
        E 16 b1 0b 2a
        E 16 b1 0b 22
        E 16 b1 0b 19
        E 320 b1 0b 11
        E 16 b1 0b 08
        E 128 b1 0b 55
        E 0 81 45 00
        E 0 91 2e 55
        E 16 b1 0b 4c
        E 16 b1 0b 44
        E 16 b1 0b 3b
        E 16 b1 0b 33
        E 16 b1 0b 2a
        E 16 b1 0b 22
        E 16 b1 0b 19
        E 320 b1 0b 11
        E 16 b1 0b 08
        E 128 b1 0b 44
        E 0 81 2e 00
        E 0 91 5e 44
        E 16 b1 0b 3b
        E 16 b1 0b 33
        E 16 b1 0b 2a
        E 16 b1 0b 22
        E 16 b1 0b 19
        E 736 b1 0b 11
        E 16 b1 0b 08
        E 128 b1 0b 44
        E 16 b1 0b 3b
        E 16 b1 0b 33
        E 16 b1 0b 2a
        E 16 b1 0b 22
        E 16 b1 0b 19
        E 224 b1 0b 11
        E 16 b1 0b 44
        E 16 b1 0b 3b
        E 16 b1 0b 33
        E 16 b1 0b 2a
        E 16 b1 0b 22
        E 16 b1 0b 19
        E 992 b1 0b 11
        E 16 b1 0b 08
        E 192 81 5e 00
        E 31040 b1 0b 4c
        E 0 91 28 4c
        E 16 b1 0b 44
        E 16 b1 0b 3b
        E 16 b1 0b 33
        E 16 b1 0b 2a
        E 16 b1 0b 22
        E 16 b1 0b 19
        E 160 b1 0b 11
        E 16 b1 0b 08
        E 304 b1 0b 55
        E 0 81 28 00
        E 0 91 45 55
        E 16 b1 0b 4c
        E 16 b1 0b 44
        E 16 b1 0b 3b
        E 16 b1 0b 33
        E 16 b1 0b 2a
        E 16 b1 0b 22
        E 16 b1 0b 19
        E 320 b1 0b 11
        E 16 b1 0b 08
        E 128 b1 0b 55
        E 16 b1 0b 4c
        E 16 b1 0b 44
        E 16 b1 0b 3b
        E 16 b1 0b 33
        E 16 b1 0b 2a
        E 16 b1 0b 22
        E 16 b1 0b 19
        E 320 b1 0b 11
        E 16 b1 0b 08
        E 128 b1 0b 55
        E 0 81 45 00
        E 0 91 2e 55
        E 16 b1 0b 4c
        E 16 b1 0b 44
        E 16 b1 0b 3b
        E 16 b1 0b 33
        E 16 b1 0b 2a
        E 16 b1 0b 22
        E 16 b1 0b 19
        E 320 b1 0b 11
        E 16 b1 0b 08
        E 128 b1 0b 44
        E 0 81 2e 00
        E 0 91 5e 44
        E 16 b1 0b 3b
        E 16 b1 0b 33
        E 16 b1 0b 2a
        E 16 b1 0b 22
        E 16 b1 0b 19
        E 736 b1 0b 11
        E 16 b1 0b 08
        E 128 b1 0b 44
        E 16 b1 0b 3b
        E 16 b1 0b 33
        E 16 b1 0b 2a
        E 16 b1 0b 22
        E 16 b1 0b 19
        E 224 b1 0b 11
        E 16 b1 0b 44
        E 16 b1 0b 3b
        E 16 b1 0b 33
        E 16 b1 0b 2a
        E 16 b1 0b 22
        E 16 b1 0b 19
        E 992 b1 0b 11
        E 16 b1 0b 08
        E 192 81 5e 00
        E 31920 b1 0b 4c
        E 0 91 28 4c
        E 16 b1 0b 44
        E 16 b1 0b 3b
        E 16 b1 0b 33
        E 16 b1 0b 2a
        E 16 b1 0b 22
        E 16 b1 0b 19
        E 160 b1 0b 11
        E 16 b1 0b 08
        E 304 b1 0b 55
        E 0 81 28 00
        E 0 91 45 55
        E 16 b1 0b 4c
        E 16 b1 0b 44
        E 16 b1 0b 3b
        E 16 b1 0b 33
        E 16 b1 0b 2a
        E 16 b1 0b 22
        E 16 b1 0b 19
        E 320 b1 0b 11
        E 16 b1 0b 08
        E 128 b1 0b 55
        E 16 b1 0b 4c
        E 16 b1 0b 44
        E 16 b1 0b 3b
        E 16 b1 0b 33
        E 16 b1 0b 2a
        E 16 b1 0b 22
        E 16 b1 0b 19
        E 320 b1 0b 11
        E 16 b1 0b 08
        E 128 b1 0b 55
        E 0 81 45 00
        E 0 91 2e 55
        E 16 b1 0b 4c
        E 16 b1 0b 44
        E 16 b1 0b 3b
        E 16 b1 0b 33
        E 16 b1 0b 2a
        E 16 b1 0b 22
        E 16 b1 0b 19
        E 320 b1 0b 11
        E 16 b1 0b 08
        E 128 b1 0b 44
        E 0 81 2e 00
        E 0 91 5e 44
        E 16 b1 0b 3b
        E 16 b1 0b 33
        E 16 b1 0b 2a
        E 16 b1 0b 22
        E 16 b1 0b 19
        E 736 b1 0b 11
        E 16 81 5e 00
        E 0 b1 7b 00
        E 0 ff 2f 00
      >
    >
  >
  <TRACK {27CED9F1-7BD0-4808-8DDF-C4050F06B686}
    NAME "NES - Triangle [ch2]"
    PEAKCOL 16744192
    BEAT -1
    AUTOMODE 0
    PANLAWFLAGS 3
    VOLPAN 1 0 -1 -1 1
    MUTESOLO 0 0 0
    IPHASE 0
    PLAYOFFS 0 1
    ISBUS 0 0
    BUSCOMP 0 0 0 0 0
    SHOWINMIX 1 0.6667 0.5 1 0.5 0 0 0
    FIXEDLANES 9 0 0 0 0
    SEL 0
    REC 0 5088 1 0 0 0 0 0
    VU 2
    TRACKHEIGHT 0 0 0 0 0 0 0
    INQ 0 0 0 0.5 100 0 0 100
    NCHAN 2
    FX 1
    TRACKID {27CED9F1-7BD0-4808-8DDF-C4050F06B686}
    PERF 0
    MIDIOUT -1
    MAINSEND 1 0
    <FXCHAIN
      WNDRECT 24 52 700 560
      SHOW 0
      LASTSEL 0
      DOCKED 0
      BYPASS 0 0 0
      <JS "ReapNES Studio/ReapNES_Console.jsfx" ""
        2 15 1 10 80 10 100 2 1 15 1 5 60 10 80 1 1 0 50 0 0 15 1 0 100 0 0 0.500000 0.500000 0.400000 0.300000 0.800000 2 1 0 0 0 0 - - - - - - - - - - - - - - - - - - - - - - - - - -
      >
      FLOATPOS 0 0 0 0
      FXID {646BDC46-E51C-4FCB-A561-E75E6B7B1952}
      WAK 0 0
    >
    <ITEM
      POSITION 0
      LENGTH 73.70140190000001
      LOOP 0
      ALLTAKES 0
      FADEIN 0 0 0 0 0 0 0
      FADEOUT 0 0 0 0 0 0 0
      MUTE 0 0
      SEL 0
      IGUID {3A1AC367-E614-4956-9607-36EC802D46A7}
      <SOURCE MIDI
        HASDATA 1 480 QN
        CCINTERP 32
        E 0 c2 26
        E 0 b2 0b 7f
        E 0 92 21 7f
        E 576 82 21 00
        E 0 b2 0b 7f
        E 0 92 39 7f
        E 576 82 39 00
        E 0 b2 0b 7f
        E 0 92 34 7f
        E 576 82 34 00
        E 0 b2 0b 7f
        E 0 92 32 7f
        E 576 82 32 00
        E 0 b2 0b 7f
        E 0 92 22 7f
        E 960 82 22 00
        E 0 b2 0b 7f
        E 0 92 1a 7f
        E 320 82 1a 00
        E 0 b2 0b 7f
        E 0 92 21 7f
        E 1280 82 21 00
        E 31040 b2 0b 7f
        E 0 92 1a 7f
        E 576 82 1a 00
        E 0 b2 0b 7f
        E 0 92 39 7f
        E 576 82 39 00
        E 0 b2 0b 7f
        E 0 92 34 7f
        E 576 82 34 00
        E 0 b2 0b 7f
        E 0 92 32 7f
        E 576 82 32 00
        E 0 b2 0b 7f
        E 0 92 22 7f
        E 960 82 22 00
        E 0 b2 0b 7f
        E 0 92 1a 7f
        E 320 82 1a 00
        E 0 b2 0b 7f
        E 0 92 21 7f
        E 1280 82 21 00
        E 31920 b2 0b 7f
        E 0 92 1a 7f
        E 576 82 1a 00
        E 0 b2 0b 7f
        E 0 92 39 7f
        E 576 82 39 00
        E 0 b2 0b 7f
        E 0 92 34 7f
        E 576 82 34 00
        E 0 b2 0b 7f
        E 0 92 32 7f
        E 576 82 32 00
        E 0 b2 0b 7f
        E 0 92 22 7f
        E 832 82 22 00
        E 0 b2 7b 00
        E 0 ff 2f 00
      >
    >
  >
  <TRACK {7A701910-B597-40AB-ADB0-901FBF55C440}
    NAME "NES - Noise / Drums [ch3]"
    PEAKCOL 11184810
    BEAT -1
    AUTOMODE 0
    PANLAWFLAGS 3
    VOLPAN 1 0 -1 -1 1
    MUTESOLO 0 0 0
    IPHASE 0
    PLAYOFFS 0 1
    ISBUS 0 0
    BUSCOMP 0 0 0 0 0
    SHOWINMIX 1 0.6667 0.5 1 0.5 0 0 0
    FIXEDLANES 9 0 0 0 0
    SEL 0
    REC 0 5088 1 0 0 0 0 0
    VU 2
    TRACKHEIGHT 0 0 0 0 0 0 0
    INQ 0 0 0 0.5 100 0 0 100
    NCHAN 2
    FX 1
    TRACKID {7A701910-B597-40AB-ADB0-901FBF55C440}
    PERF 0
    MIDIOUT -1
    MAINSEND 1 0
    <FXCHAIN
      WNDRECT 24 52 700 560
      SHOW 0
      LASTSEL 0
      DOCKED 0
      BYPASS 0 0 0
      <JS "ReapNES Studio/ReapNES_Console.jsfx" ""
        2 15 1 10 80 10 100 2 1 15 1 5 60 10 80 1 1 0 50 0 0 15 1 0 100 0 0 0.500000 0.500000 0.400000 0.300000 0.800000 3 1 0 0 0 0 - - - - - - - - - - - - - - - - - - - - - - - - - -
      >
      FLOATPOS 0 0 0 0
      FXID {24E71A52-7222-4DAF-B9DD-F96DE422348D}
      WAK 0 0
    >
    <ITEM
      POSITION 0
      LENGTH 73.70140190000001
      LOOP 0
      ALLTAKES 0
      FADEIN 0 0 0 0 0 0 0
      FADEOUT 0 0 0 0 0 0 0
      MUTE 0 0
      SEL 0
      IGUID {8F6F5EBE-8CED-4891-9AE4-05387C064F65}
      <SOURCE MIDI
        HASDATA 1 480 QN
        CCINTERP 32
        E 0 93 2a 33
        E 16 83 2a 00
        E 0 93 2a 08
        E 16 83 2a 00
        E 544 93 2a 33
        E 16 83 2a 00
        E 0 93 2a 08
        E 16 83 2a 00
        E 544 93 2a 33
        E 16 83 2a 00
        E 0 93 2a 08
        E 16 83 2a 00
        E 544 93 2a 33
        E 16 83 2a 00
        E 0 93 2a 08
        E 16 83 2a 00
        E 544 93 2a 7f
        E 16 83 2a 00
        E 0 93 2a 7f
        E 16 83 2a 00
        E 0 93 2a 7f
        E 16 83 2a 00
        E 0 93 2a 7f
        E 16 83 2a 00
        E 0 93 2a 7f
        E 16 83 2a 00
        E 0 93 2a 7f
        E 16 83 2a 00
        E 0 93 2a 7f
        E 16 83 2a 00
        E 0 93 2a 7f
        E 48 83 2a 00
        E 0 93 2a 7f
        E 32 83 2a 00
        E 0 93 2a 7f
        E 32 83 2a 00
        E 0 93 2a 7f
        E 112 83 2a 00
        E 0 93 2a 7f
        E 560 83 2a 00
        E 0 93 2a 66
        E 112 83 2a 00
        E 0 93 2a 5d
        E 112 83 2a 00
        E 0 93 2a 55
        E 448 83 2a 00
        E 0 93 2a 33
        E 112 83 2a 00
        E 0 93 2a 2a
        E 224 83 2a 00
        E 0 93 2a 19
        E 224 83 2a 00
        E 0 93 2a 08
        E 112 83 2a 00
        E 1984 93 2a 7f
        E 16 83 2a 00
        E 0 93 2a 7f
        E 16 83 2a 00
        E 0 93 2a 19
        E 48 83 2a 00
        E 736 93 2a 7f
        E 16 83 2a 00
        E 0 93 2a 6e
        E 16 83 2a 00
        E 0 93 2a 11
        E 16 83 2a 00
        E 0 93 2a 11
        E 16 83 2a 00
        E 16 93 2a 7f
        E 16 83 2a 00
        E 0 93 2a 6e
        E 16 83 2a 00
        E 16 93 2a 7f
        E 16 83 2a 00
        E 0 93 2a 6e
        E 16 83 2a 00
        E 0 93 2a 11
        E 16 83 2a 00
        E 0 93 2a 11
        E 16 83 2a 00
        E 16 93 2a 7f
        E 16 83 2a 00
        E 0 93 2a 6e
        E 16 83 2a 00
        E 16 93 2a 7f
        E 16 83 2a 00
        E 0 93 2a 6e
        E 16 83 2a 00
        E 0 93 2a 11
        E 16 83 2a 00
        E 0 93 2a 11
        E 16 83 2a 00
        E 16 93 2a 7f
        E 16 83 2a 00
        E 0 93 2a 6e
        E 16 83 2a 00
        E 16 93 2a 7f
        E 16 83 2a 00
        E 0 93 2a 6e
        E 16 83 2a 00
        E 0 93 2a 11
        E 16 83 2a 00
        E 0 93 2a 11
        E 16 83 2a 00
        E 16 93 2a 7f
        E 16 83 2a 00
        E 0 93 2a 6e
        E 16 83 2a 00
        E 0 93 2a 11
        E 16 83 2a 00
        E 0 93 2a 11
        E 16 83 2a 00
        E 16 93 2a 3b
        E 48 83 2a 00
        E 0 93 2a 11
        E 96 83 2a 00
        E 0 93 2a 11
        E 48 83 2a 00
        E 32 93 2a 7f
        E 16 83 2a 00
        E 0 93 2a 6e
        E 16 83 2a 00
        E 0 93 2a 11
        E 16 83 2a 00
        E 0 93 2a 11
        E 16 83 2a 00
        E 16 93 2a 7f
        E 16 83 2a 00
        E 0 93 2a 6e
        E 16 83 2a 00
        E 16 93 2a 7f
        E 16 83 2a 00
        E 0 93 2a 6e
        E 16 83 2a 00
        E 0 93 2a 11
        E 16 83 2a 00
        E 0 93 2a 11
        E 16 83 2a 00
        E 16 93 2a 7f
        E 16 83 2a 00
        E 0 93 2a 6e
        E 16 83 2a 00
        E 16 93 2a 7f
        E 16 83 2a 00
        E 0 93 2a 6e
        E 16 83 2a 00
        E 0 93 2a 11
        E 16 83 2a 00
        E 0 93 2a 11
        E 16 83 2a 00
        E 16 93 2a 7f
        E 16 83 2a 00
        E 0 93 2a 6e
        E 16 83 2a 00
        E 16 93 2a 7f
        E 16 83 2a 00
        E 0 93 2a 6e
        E 16 83 2a 00
        E 0 93 2a 11
        E 16 83 2a 00
        E 0 93 2a 11
        E 16 83 2a 00
        E 16 93 2a 7f
        E 16 83 2a 00
        E 0 93 2a 6e
        E 16 83 2a 00
        E 16 93 2a 7f
        E 16 83 2a 00
        E 0 93 2a 6e
        E 16 83 2a 00
        E 0 93 2a 11
        E 16 83 2a 00
        E 0 93 2a 11
        E 16 83 2a 00
        E 16 93 2a 7f
        E 16 83 2a 00
        E 0 93 2a 6e
        E 16 83 2a 00
        E 16 93 2a 7f
        E 16 83 2a 00
        E 0 93 2a 6e
        E 16 83 2a 00
        E 0 93 2a 11
        E 16 83 2a 00
        E 0 93 2a 11
        E 16 83 2a 00
        E 16 93 2a 7f
        E 16 83 2a 00
        E 0 93 2a 6e
        E 16 83 2a 00
        E 16 93 2a 7f
        E 16 83 2a 00
        E 0 93 2a 6e
        E 16 83 2a 00
        E 0 93 2a 11
        E 16 83 2a 00
        E 0 93 2a 11
        E 16 83 2a 00
        E 16 93 2a 7f
        E 16 83 2a 00
        E 0 93 2a 6e
        E 16 83 2a 00
        E 16 93 2a 7f
        E 16 83 2a 00
        E 0 93 2a 6e
        E 16 83 2a 00
        E 0 93 2a 11
        E 16 83 2a 00
        E 0 93 2a 11
        E 16 83 2a 00
        E 16 93 2a 7f
        E 16 83 2a 00
        E 0 93 2a 6e
        E 16 83 2a 00
        E 16 93 2a 7f
        E 16 83 2a 00
        E 0 93 2a 6e
        E 16 83 2a 00
        E 0 93 2a 11
        E 16 83 2a 00
        E 0 93 2a 11
        E 16 83 2a 00
        E 16 93 2a 7f
        E 16 83 2a 00
        E 0 93 2a 6e
        E 16 83 2a 00
        E 16 93 2a 7f
        E 16 83 2a 00
        E 0 93 2a 6e
        E 16 83 2a 00
        E 0 93 2a 11
        E 16 83 2a 00
        E 0 93 2a 11
        E 16 83 2a 00
        E 16 93 2a 7f
        E 16 83 2a 00
        E 0 93 2a 6e
        E 16 83 2a 00
        E 16 93 2a 7f
        E 16 83 2a 00
        E 0 93 2a 6e
        E 16 83 2a 00
        E 0 93 2a 11
        E 16 83 2a 00
        E 0 93 2a 11
        E 16 83 2a 00
        E 16 93 2a 7f
        E 16 83 2a 00
        E 0 93 2a 6e
        E 16 83 2a 00
        E 16 93 2a 7f
        E 16 83 2a 00
        E 0 93 2a 6e
        E 16 83 2a 00
        E 0 93 2a 11
        E 16 83 2a 00
        E 0 93 2a 11
        E 16 83 2a 00
        E 16 93 2a 7f
        E 16 83 2a 00
        E 0 93 2a 6e
        E 16 83 2a 00
        E 16 93 2a 7f
        E 16 83 2a 00
        E 0 93 2a 6e
        E 16 83 2a 00
        E 0 93 2a 11
        E 16 83 2a 00
        E 0 93 2a 11
        E 16 83 2a 00
        E 16 93 2a 7f
        E 16 83 2a 00
        E 0 93 2a 6e
        E 16 83 2a 00
        E 16 93 2a 7f
        E 16 83 2a 00
        E 0 93 2a 6e
        E 16 83 2a 00
        E 0 93 2a 11
        E 16 83 2a 00
        E 0 93 2a 11
        E 16 83 2a 00
        E 16 93 2a 7f
        E 16 83 2a 00
        E 0 93 2a 6e
        E 16 83 2a 00
        E 16 93 2a 7f
        E 16 83 2a 00
        E 0 93 2a 6e
        E 16 83 2a 00
        E 0 93 2a 11
        E 16 83 2a 00
        E 0 93 2a 11
        E 16 83 2a 00
        E 16 93 2a 7f
        E 16 83 2a 00
        E 0 93 2a 6e
        E 16 83 2a 00
        E 16 93 2a 7f
        E 16 83 2a 00
        E 0 93 2a 6e
        E 16 83 2a 00
        E 0 93 2a 11
        E 16 83 2a 00
        E 0 93 2a 11
        E 16 83 2a 00
        E 16 93 2a 7f
        E 16 83 2a 00
        E 0 93 2a 6e
        E 16 83 2a 00
        E 16 93 2a 7f
        E 16 83 2a 00
        E 0 93 2a 6e
        E 16 83 2a 00
        E 0 93 2a 11
        E 16 83 2a 00
        E 0 93 2a 11
        E 16 83 2a 00
        E 16 93 2a 7f
        E 16 83 2a 00
        E 0 93 2a 6e
        E 16 83 2a 00
        E 16 93 2a 7f
        E 16 83 2a 00
        E 0 93 2a 6e
        E 16 83 2a 00
        E 0 93 2a 11
        E 16 83 2a 00
        E 0 93 2a 11
        E 16 83 2a 00
        E 16 93 2a 7f
        E 16 83 2a 00
        E 0 93 2a 6e
        E 16 83 2a 00
        E 16 93 2a 7f
        E 16 83 2a 00
        E 0 93 2a 6e
        E 16 83 2a 00
        E 0 93 2a 11
        E 16 83 2a 00
        E 0 93 2a 11
        E 16 83 2a 00
        E 16 93 2a 7f
        E 16 83 2a 00
        E 0 93 2a 6e
        E 16 83 2a 00
        E 16 93 2a 7f
        E 16 83 2a 00
        E 0 93 2a 6e
        E 16 83 2a 00
        E 0 93 2a 11
        E 16 83 2a 00
        E 0 93 2a 11
        E 16 83 2a 00
        E 16 93 2a 7f
        E 16 83 2a 00
        E 0 93 2a 6e
        E 16 83 2a 00
        E 16 93 2a 7f
        E 16 83 2a 00
        E 0 93 2a 6e
        E 16 83 2a 00
        E 0 93 2a 11
        E 16 83 2a 00
        E 0 93 2a 11
        E 16 83 2a 00
        E 16 93 2a 7f
        E 16 83 2a 00
        E 0 93 2a 6e
        E 16 83 2a 00
        E 16 93 2a 7f
        E 16 83 2a 00
        E 0 93 2a 6e
        E 16 83 2a 00
        E 0 93 2a 11
        E 16 83 2a 00
        E 0 93 2a 11
        E 16 83 2a 00
        E 16 93 2a 7f
        E 16 83 2a 00
        E 0 93 2a 6e
        E 16 83 2a 00
        E 16 93 2a 7f
        E 16 83 2a 00
        E 0 93 2a 6e
        E 16 83 2a 00
        E 0 93 2a 11
        E 16 83 2a 00
        E 0 93 2a 11
        E 16 83 2a 00
        E 16 93 2a 7f
        E 16 83 2a 00
        E 0 93 2a 6e
        E 16 83 2a 00
        E 16 93 2a 7f
        E 16 83 2a 00
        E 0 93 2a 6e
        E 16 83 2a 00
        E 0 93 2a 11
        E 16 83 2a 00
        E 0 93 2a 11
        E 16 83 2a 00
        E 16 93 2a 7f
        E 16 83 2a 00
        E 0 93 2a 6e
        E 16 83 2a 00
        E 16 93 2a 7f
        E 16 83 2a 00
        E 0 93 2a 6e
        E 16 83 2a 00
        E 0 93 2a 11
        E 16 83 2a 00
        E 0 93 2a 11
        E 16 83 2a 00
        E 16 93 2a 7f
        E 16 83 2a 00
        E 0 93 2a 6e
        E 16 83 2a 00
        E 16 93 2a 7f
        E 16 83 2a 00
        E 0 93 2a 6e
        E 16 83 2a 00
        E 0 93 2a 11
        E 16 83 2a 00
        E 0 93 2a 11
        E 16 83 2a 00
        E 16 93 2a 7f
        E 16 83 2a 00
        E 0 93 2a 6e
        E 16 83 2a 00
        E 16 93 2a 7f
        E 16 83 2a 00
        E 0 93 2a 6e
        E 16 83 2a 00
        E 0 93 2a 11
        E 16 83 2a 00
        E 0 93 2a 11
        E 16 83 2a 00
        E 16 93 2a 7f
        E 16 83 2a 00
        E 0 93 2a 6e
        E 16 83 2a 00
        E 16 93 2a 7f
        E 16 83 2a 00
        E 0 93 2a 6e
        E 16 83 2a 00
        E 0 93 2a 11
        E 16 83 2a 00
        E 0 93 2a 11
        E 16 83 2a 00
        E 16 93 2a 7f
        E 16 83 2a 00
        E 0 93 2a 6e
        E 16 83 2a 00
        E 0 93 2a 11
        E 16 83 2a 00
        E 0 93 2a 11
        E 16 83 2a 00
        E 16 93 2a 3b
        E 48 83 2a 00
        E 0 93 2a 11
        E 32 83 2a 00
        E 16 93 2a 7f
        E 16 83 2a 00
        E 0 93 2a 6e
        E 16 83 2a 00
        E 0 93 2a 11
        E 16 83 2a 00
        E 0 93 2a 11
        E 16 83 2a 00
        E 16 93 2a 7f
        E 16 83 2a 00
        E 0 93 2a 6e
        E 16 83 2a 00
        E 16 93 2a 7f
        E 16 83 2a 00
        E 0 93 2a 6e
        E 16 83 2a 00
        E 0 93 2a 11
        E 16 83 2a 00
        E 0 93 2a 11
        E 16 83 2a 00
        E 16 93 2a 7f
        E 16 83 2a 00
        E 0 93 2a 6e
        E 16 83 2a 00
        E 16 93 2a 7f
        E 16 83 2a 00
        E 0 93 2a 6e
        E 16 83 2a 00
        E 0 93 2a 11
        E 16 83 2a 00
        E 0 93 2a 11
        E 16 83 2a 00
        E 16 93 2a 7f
        E 16 83 2a 00
        E 0 93 2a 6e
        E 16 83 2a 00
        E 16 93 2a 7f
        E 16 83 2a 00
        E 0 93 2a 6e
        E 16 83 2a 00
        E 0 93 2a 11
        E 16 83 2a 00
        E 0 93 2a 11
        E 16 83 2a 00
        E 16 93 2a 7f
        E 16 83 2a 00
        E 0 93 2a 6e
        E 16 83 2a 00
        E 16 93 2a 7f
        E 16 83 2a 00
        E 0 93 2a 6e
        E 16 83 2a 00
        E 0 93 2a 11
        E 16 83 2a 00
        E 0 93 2a 11
        E 16 83 2a 00
        E 16 93 2a 7f
        E 16 83 2a 00
        E 0 93 2a 6e
        E 16 83 2a 00
        E 16 93 2a 7f
        E 16 83 2a 00
        E 0 93 2a 6e
        E 16 83 2a 00
        E 0 93 2a 11
        E 16 83 2a 00
        E 0 93 2a 11
        E 16 83 2a 00
        E 16 93 2a 7f
        E 16 83 2a 00
        E 0 93 2a 6e
        E 16 83 2a 00
        E 16 93 2a 7f
        E 16 83 2a 00
        E 0 93 2a 6e
        E 16 83 2a 00
        E 0 93 2a 11
        E 16 83 2a 00
        E 0 93 2a 11
        E 16 83 2a 00
        E 16 93 2a 7f
        E 16 83 2a 00
        E 0 93 2a 6e
        E 16 83 2a 00
        E 16 93 2a 7f
        E 16 83 2a 00
        E 0 93 2a 6e
        E 16 83 2a 00
        E 0 93 2a 11
        E 16 83 2a 00
        E 0 93 2a 11
        E 16 83 2a 00
        E 16 93 2a 7f
        E 16 83 2a 00
        E 0 93 2a 6e
        E 16 83 2a 00
        E 16 93 2a 7f
        E 16 83 2a 00
        E 0 93 2a 6e
        E 16 83 2a 00
        E 0 93 2a 11
        E 16 83 2a 00
        E 0 93 2a 11
        E 16 83 2a 00
        E 16 93 2a 7f
        E 16 83 2a 00
        E 0 93 2a 6e
        E 16 83 2a 00
        E 16 93 2a 7f
        E 16 83 2a 00
        E 0 93 2a 6e
        E 16 83 2a 00
        E 0 93 2a 11
        E 16 83 2a 00
        E 0 93 2a 11
        E 16 83 2a 00
        E 16 93 2a 7f
        E 16 83 2a 00
        E 0 93 2a 6e
        E 16 83 2a 00
        E 16 93 2a 7f
        E 16 83 2a 00
        E 0 93 2a 6e
        E 16 83 2a 00
        E 0 93 2a 11
        E 16 83 2a 00
        E 0 93 2a 11
        E 16 83 2a 00
        E 16 93 2a 7f
        E 16 83 2a 00
        E 0 93 2a 6e
        E 16 83 2a 00
        E 16 93 2a 7f
        E 16 83 2a 00
        E 0 93 2a 6e
        E 16 83 2a 00
        E 0 93 2a 11
        E 16 83 2a 00
        E 0 93 2a 11
        E 16 83 2a 00
        E 16 93 2a 7f
        E 16 83 2a 00
        E 0 93 2a 6e
        E 16 83 2a 00
        E 16 93 2a 7f
        E 16 83 2a 00
        E 0 93 2a 6e
        E 16 83 2a 00
        E 0 93 2a 11
        E 16 83 2a 00
        E 0 93 2a 11
        E 16 83 2a 00
        E 16 93 2a 7f
        E 16 83 2a 00
        E 0 93 2a 6e
        E 16 83 2a 00
        E 16 93 2a 7f
        E 16 83 2a 00
        E 16 93 2a 7f
        E 16 83 2a 00
        E 0 93 2a 6e
        E 16 83 2a 00
        E 0 93 2a 11
        E 16 83 2a 00
        E 0 93 2a 08
        E 32 83 2a 00
        E 0 93 2a 6e
        E 16 83 2a 00
        E 0 93 2a 11
        E 16 83 2a 00
        E 16 93 2a 7f
        E 16 83 2a 00
        E 0 93 2a 6e
        E 16 83 2a 00
        E 0 93 2a 11
        E 16 83 2a 00
        E 0 93 2a 08
        E 32 83 2a 00
        E 0 93 2a 6e
        E 16 83 2a 00
        E 0 93 2a 11
        E 16 83 2a 00
        E 0 93 2a 08
        E 16 83 2a 00
        E 0 93 2a 3b
        E 48 83 2a 00
        E 0 93 2a 11
        E 64 83 2a 00
        E 16 93 2a 7f
        E 16 83 2a 00
        E 0 93 2a 6e
        E 16 83 2a 00
        E 0 93 2a 11
        E 16 83 2a 00
        E 0 93 2a 08
        E 32 83 2a 00
        E 0 93 2a 6e
        E 16 83 2a 00
        E 0 93 2a 11
        E 16 83 2a 00
        E 0 93 2a 08
        E 16 83 2a 00
        E 0 93 2a 3b
        E 48 83 2a 00
        E 0 93 2a 11
        E 48 83 2a 00
        E 16 93 2a 7f
        E 16 83 2a 00
        E 0 93 2a 6e
        E 16 83 2a 00
        E 0 93 2a 11
        E 16 83 2a 00
        E 0 93 2a 08
        E 32 83 2a 00
        E 0 93 2a 6e
        E 16 83 2a 00
        E 0 93 2a 11
        E 16 83 2a 00
        E 16 93 2a 7f
        E 16 83 2a 00
        E 0 93 2a 6e
        E 16 83 2a 00
        E 0 93 2a 11
        E 16 83 2a 00
        E 0 93 2a 08
        E 32 83 2a 00
        E 0 93 2a 6e
        E 16 83 2a 00
        E 0 93 2a 11
        E 16 83 2a 00
        E 16 93 2a 7f
        E 16 83 2a 00
        E 0 93 2a 6e
        E 16 83 2a 00
        E 0 93 2a 11
        E 16 83 2a 00
        E 0 93 2a 08
        E 32 83 2a 00
        E 0 93 2a 6e
        E 16 83 2a 00
        E 0 93 2a 11
        E 16 83 2a 00
        E 16 93 2a 7f
        E 16 83 2a 00
        E 0 93 2a 6e
        E 16 83 2a 00
        E 0 93 2a 11
        E 16 83 2a 00
        E 0 93 2a 08
        E 32 83 2a 00
        E 0 93 2a 6e
        E 16 83 2a 00
        E 0 93 2a 11
        E 16 83 2a 00
        E 16 93 2a 7f
        E 16 83 2a 00
        E 0 93 2a 6e
        E 16 83 2a 00
        E 0 93 2a 11
        E 16 83 2a 00
        E 0 93 2a 08
        E 32 83 2a 00
        E 0 93 2a 6e
        E 16 83 2a 00
        E 0 93 2a 11
        E 16 83 2a 00
        E 16 93 2a 7f
        E 16 83 2a 00
        E 0 93 2a 6e
        E 16 83 2a 00
        E 0 93 2a 11
        E 16 83 2a 00
        E 0 93 2a 08
        E 32 83 2a 00
        E 0 93 2a 6e
        E 16 83 2a 00
        E 0 93 2a 11
        E 16 83 2a 00
        E 0 93 2a 08
        E 16 83 2a 00
        E 0 93 2a 3b
        E 48 83 2a 00
        E 0 93 2a 11
        E 48 83 2a 00
        E 16 93 2a 7f
        E 16 83 2a 00
        E 0 93 2a 6e
        E 16 83 2a 00
        E 0 93 2a 11
        E 16 83 2a 00
        E 0 93 2a 08
        E 32 83 2a 00
        E 0 93 2a 6e
        E 16 83 2a 00
        E 0 93 2a 11
        E 16 83 2a 00
        E 16 93 2a 7f
        E 16 83 2a 00
        E 0 93 2a 6e
        E 16 83 2a 00
        E 0 93 2a 11
        E 16 83 2a 00
        E 0 93 2a 08
        E 32 83 2a 00
        E 0 93 2a 6e
        E 16 83 2a 00
        E 0 93 2a 11
        E 16 83 2a 00
        E 16 93 2a 7f
        E 16 83 2a 00
        E 0 93 2a 6e
        E 16 83 2a 00
        E 0 93 2a 11
        E 16 83 2a 00
        E 0 93 2a 08
        E 32 83 2a 00
        E 0 93 2a 6e
        E 16 83 2a 00
        E 0 93 2a 11
        E 16 83 2a 00
        E 16 93 2a 7f
        E 16 83 2a 00
        E 0 93 2a 6e
        E 16 83 2a 00
        E 0 93 2a 11
        E 16 83 2a 00
        E 0 93 2a 08
        E 32 83 2a 00
        E 0 93 2a 6e
        E 16 83 2a 00
        E 0 93 2a 11
        E 16 83 2a 00
        E 16 93 2a 7f
        E 16 83 2a 00
        E 0 93 2a 6e
        E 16 83 2a 00
        E 0 93 2a 11
        E 16 83 2a 00
        E 0 93 2a 08
        E 32 83 2a 00
        E 0 93 2a 6e
        E 16 83 2a 00
        E 0 93 2a 11
        E 16 83 2a 00
        E 16 93 2a 7f
        E 16 83 2a 00
        E 0 93 2a 6e
        E 16 83 2a 00
        E 0 93 2a 11
        E 16 83 2a 00
        E 0 93 2a 08
        E 32 83 2a 00
        E 0 93 2a 6e
        E 16 83 2a 00
        E 0 93 2a 11
        E 16 83 2a 00
        E 16 93 2a 7f
        E 16 83 2a 00
        E 0 93 2a 6e
        E 16 83 2a 00
        E 0 93 2a 11
        E 16 83 2a 00
        E 0 93 2a 08
        E 32 83 2a 00
        E 0 93 2a 6e
        E 16 83 2a 00
        E 0 93 2a 11
        E 16 83 2a 00
        E 0 93 2a 08
        E 16 83 2a 00
        E 0 93 2a 3b
        E 48 83 2a 00
        E 0 93 2a 11
        E 96 83 2a 00
        E 0 93 2a 11
        E 48 83 2a 00
        E 48 93 2a 19
        E 48 83 2a 00
        E 0 93 2a 11
        E 48 83 2a 00
        E 0 93 2a 08
        E 32 83 2a 00
        E 16 93 2a 7f
        E 16 83 2a 00
        E 0 93 2a 6e
        E 16 83 2a 00
        E 0 93 2a 11
        E 16 83 2a 00
        E 0 93 2a 08
        E 32 83 2a 00
        E 0 93 2a 6e
        E 16 83 2a 00
        E 0 93 2a 11
        E 16 83 2a 00
        E 16 93 2a 7f
        E 16 83 2a 00
        E 0 93 2a 6e
        E 16 83 2a 00
        E 0 93 2a 11
        E 16 83 2a 00
        E 0 93 2a 08
        E 32 83 2a 00
        E 0 93 2a 6e
        E 16 83 2a 00
        E 0 93 2a 11
        E 16 83 2a 00
        E 16 93 2a 7f
        E 16 83 2a 00
        E 0 93 2a 6e
        E 16 83 2a 00
        E 0 93 2a 11
        E 16 83 2a 00
        E 0 93 2a 08
        E 32 83 2a 00
        E 0 93 2a 6e
        E 16 83 2a 00
        E 0 93 2a 11
        E 16 83 2a 00
        E 0 93 2a 08
        E 16 83 2a 00
        E 0 93 2a 3b
        E 32 83 2a 00
        E 16 93 2a 7f
        E 16 83 2a 00
        E 0 93 2a 6e
        E 16 83 2a 00
        E 0 93 2a 11
        E 16 83 2a 00
        E 0 93 2a 08
        E 32 83 2a 00
        E 0 93 2a 6e
        E 16 83 2a 00
        E 0 93 2a 11
        E 16 83 2a 00
        E 0 93 2a 08
        E 16 83 2a 00
        E 0 93 2a 3b
        E 48 83 2a 00
        E 16 93 2a 7f
        E 16 83 2a 00
        E 0 93 2a 6e
        E 16 83 2a 00
        E 0 93 2a 11
        E 16 83 2a 00
        E 0 93 2a 08
        E 32 83 2a 00
        E 0 93 2a 6e
        E 16 83 2a 00
        E 0 93 2a 11
        E 16 83 2a 00
        E 0 93 2a 08
        E 16 83 2a 00
        E 0 93 2a 3b
        E 48 83 2a 00
        E 16 93 2a 7f
        E 16 83 2a 00
        E 0 93 2a 6e
        E 16 83 2a 00
        E 0 93 2a 11
        E 16 83 2a 00
        E 0 93 2a 08
        E 32 83 2a 00
        E 0 93 2a 6e
        E 16 83 2a 00
        E 0 93 2a 11
        E 16 83 2a 00
        E 0 93 2a 08
        E 16 83 2a 00
        E 0 93 2a 3b
        E 48 83 2a 00
        E 0 93 2a 11
        E 48 83 2a 00
        E 16 93 2a 7f
        E 16 83 2a 00
        E 0 93 2a 6e
        E 16 83 2a 00
        E 0 93 2a 11
        E 16 83 2a 00
        E 0 93 2a 08
        E 32 83 2a 00
        E 0 93 2a 6e
        E 16 83 2a 00
        E 0 93 2a 11
        E 16 83 2a 00
        E 0 93 2a 08
        E 16 83 2a 00
        E 0 93 2a 3b
        E 16 83 2a 00
        E 16 93 2a 7f
        E 16 83 2a 00
        E 0 93 2a 6e
        E 16 83 2a 00
        E 0 93 2a 11
        E 16 83 2a 00
        E 0 93 2a 08
        E 32 83 2a 00
        E 0 93 2a 6e
        E 16 83 2a 00
        E 0 93 2a 11
        E 16 83 2a 00
        E 16 93 2a 7f
        E 16 83 2a 00
        E 0 93 2a 6e
        E 16 83 2a 00
        E 0 93 2a 11
        E 16 83 2a 00
        E 0 93 2a 08
        E 32 83 2a 00
        E 0 93 2a 6e
        E 16 83 2a 00
        E 0 93 2a 11
        E 16 83 2a 00
        E 0 93 2a 08
        E 16 83 2a 00
        E 0 93 2a 3b
        E 32 83 2a 00
        E 16 93 2a 7f
        E 16 83 2a 00
        E 0 93 2a 6e
        E 16 83 2a 00
        E 0 93 2a 11
        E 16 83 2a 00
        E 0 93 2a 08
        E 32 83 2a 00
        E 0 93 2a 6e
        E 16 83 2a 00
        E 0 93 2a 11
        E 16 83 2a 00
        E 0 93 2a 08
        E 16 83 2a 00
        E 0 93 2a 3b
        E 48 83 2a 00
        E 16 93 2a 7f
        E 16 83 2a 00
        E 0 93 2a 6e
        E 16 83 2a 00
        E 0 93 2a 11
        E 16 83 2a 00
        E 0 93 2a 08
        E 32 83 2a 00
        E 0 93 2a 6e
        E 16 83 2a 00
        E 0 93 2a 11
        E 16 83 2a 00
        E 0 93 2a 08
        E 16 83 2a 00
        E 0 93 2a 3b
        E 48 83 2a 00
        E 16 93 2a 7f
        E 16 83 2a 00
        E 0 93 2a 6e
        E 16 83 2a 00
        E 0 93 2a 11
        E 16 83 2a 00
        E 0 93 2a 08
        E 32 83 2a 00
        E 0 93 2a 6e
        E 16 83 2a 00
        E 0 93 2a 11
        E 16 83 2a 00
        E 16 93 2a 7f
        E 16 83 2a 00
        E 0 93 2a 6e
        E 16 83 2a 00
        E 0 93 2a 11
        E 16 83 2a 00
        E 0 93 2a 08
        E 32 83 2a 00
        E 0 93 2a 6e
        E 16 83 2a 00
        E 0 93 2a 11
        E 16 83 2a 00
        E 16 93 2a 7f
        E 16 83 2a 00
        E 0 93 2a 6e
        E 16 83 2a 00
        E 0 93 2a 11
        E 16 83 2a 00
        E 0 93 2a 08
        E 32 83 2a 00
        E 0 93 2a 6e
        E 16 83 2a 00
        E 0 93 2a 11
        E 16 83 2a 00
        E 16 93 2a 7f
        E 16 83 2a 00
        E 0 93 2a 6e
        E 16 83 2a 00
        E 0 93 2a 11
        E 16 83 2a 00
        E 0 93 2a 08
        E 32 83 2a 00
        E 0 93 2a 6e
        E 16 83 2a 00
        E 0 93 2a 11
        E 16 83 2a 00
        E 16 93 2a 7f
        E 16 83 2a 00
        E 0 93 2a 6e
        E 16 83 2a 00
        E 0 93 2a 11
        E 16 83 2a 00
        E 0 93 2a 08
        E 32 83 2a 00
        E 0 93 2a 6e
        E 16 83 2a 00
        E 0 93 2a 11
        E 16 83 2a 00
        E 16 93 2a 7f
        E 16 83 2a 00
        E 0 93 2a 6e
        E 16 83 2a 00
        E 0 93 2a 11
        E 16 83 2a 00
        E 0 93 2a 08
        E 32 83 2a 00
        E 0 93 2a 6e
        E 16 83 2a 00
        E 0 93 2a 11
        E 16 83 2a 00
        E 0 93 2a 08
        E 16 83 2a 00
        E 0 93 2a 3b
        E 48 83 2a 00
        E 0 93 2a 11
        E 48 83 2a 00
        E 16 93 2a 7f
        E 16 83 2a 00
        E 0 93 2a 6e
        E 16 83 2a 00
        E 0 93 2a 11
        E 16 83 2a 00
        E 0 93 2a 08
        E 32 83 2a 00
        E 0 93 2a 6e
        E 16 83 2a 00
        E 0 93 2a 11
        E 16 83 2a 00
        E 16 93 2a 7f
        E 16 83 2a 00
        E 0 93 2a 6e
        E 16 83 2a 00
        E 0 93 2a 11
        E 16 83 2a 00
        E 0 93 2a 08
        E 32 83 2a 00
        E 0 93 2a 6e
        E 16 83 2a 00
        E 16 93 2a 7f
        E 16 83 2a 00
        E 0 93 2a 7f
        E 16 83 2a 00
        E 0 93 2a 7f
        E 16 83 2a 00
        E 16 93 2a 7f
        E 16 83 2a 00
        E 0 93 2a 7f
        E 16 83 2a 00
        E 0 93 2a 7f
        E 16 83 2a 00
        E 16 93 2a 7f
        E 16 83 2a 00
        E 0 93 2a 7f
        E 16 83 2a 00
        E 0 93 2a 7f
        E 16 83 2a 00
        E 0 93 2a 7f
        E 48 83 2a 00
        E 0 93 2a 7f
        E 32 83 2a 00
        E 0 93 2a 7f
        E 32 83 2a 00
        E 0 93 2a 7f
        E 32 83 2a 00
        E 0 93 2a 7f
        E 32 83 2a 00
        E 0 93 2a 7f
        E 32 83 2a 00
        E 0 93 2a 7f
        E 160 83 2a 00
        E 0 93 2a 66
        E 32 83 2a 00
        E 0 93 2a 5d
        E 32 83 2a 00
        E 0 93 2a 55
        E 256 83 2a 00
        E 0 93 2a 19
        E 16 83 2a 00
        E 16 93 2a 7f
        E 16 83 2a 00
        E 0 93 2a 7f
        E 16 83 2a 00
        E 0 93 2a 7f
        E 16 83 2a 00
        E 16 93 2a 7f
        E 16 83 2a 00
        E 0 93 2a 7f
        E 16 83 2a 00
        E 0 93 2a 7f
        E 16 83 2a 00
        E 16 93 2a 7f
        E 16 83 2a 00
        E 0 93 2a 7f
        E 16 83 2a 00
        E 0 93 2a 7f
        E 16 83 2a 00
        E 0 93 2a 7f
        E 48 83 2a 00
        E 0 93 2a 7f
        E 32 83 2a 00
        E 0 93 2a 7f
        E 32 83 2a 00
        E 0 93 2a 7f
        E 32 83 2a 00
        E 0 93 2a 7f
        E 32 83 2a 00
        E 0 93 2a 7f
        E 32 83 2a 00
        E 0 93 2a 7f
        E 160 83 2a 00
        E 0 93 2a 66
        E 32 83 2a 00
        E 0 93 2a 5d
        E 32 83 2a 00
        E 0 93 2a 55
        E 256 83 2a 00
        E 0 93 2a 19
        E 16 83 2a 00
        E 16 93 2a 7f
        E 16 83 2a 00
        E 0 93 2a 7f
        E 16 83 2a 00
        E 0 93 2a 7f
        E 16 83 2a 00
        E 16 93 2a 7f
        E 16 83 2a 00
        E 0 93 2a 7f
        E 16 83 2a 00
        E 0 93 2a 7f
        E 16 83 2a 00
        E 16 93 2a 7f
        E 16 83 2a 00
        E 0 93 2a 7f
        E 16 83 2a 00
        E 0 93 2a 7f
        E 16 83 2a 00
        E 0 93 2a 7f
        E 48 83 2a 00
        E 0 93 2a 7f
        E 32 83 2a 00
        E 0 93 2a 7f
        E 32 83 2a 00
        E 0 93 2a 7f
        E 32 83 2a 00
        E 0 93 2a 7f
        E 32 83 2a 00
        E 0 93 2a 7f
        E 32 83 2a 00
        E 0 93 2a 7f
        E 160 83 2a 00
        E 0 93 2a 66
        E 32 83 2a 00
        E 0 93 2a 5d
        E 32 83 2a 00
        E 0 93 2a 55
        E 256 83 2a 00
        E 0 93 2a 19
        E 16 83 2a 00
        E 16 93 2a 7f
        E 16 83 2a 00
        E 0 93 2a 7f
        E 16 83 2a 00
        E 0 93 2a 7f
        E 16 83 2a 00
        E 16 93 2a 7f
        E 16 83 2a 00
        E 0 93 2a 7f
        E 16 83 2a 00
        E 0 93 2a 7f
        E 16 83 2a 00
        E 16 93 2a 7f
        E 16 83 2a 00
        E 0 93 2a 7f
        E 16 83 2a 00
        E 0 93 2a 7f
        E 16 83 2a 00
        E 0 93 2a 7f
        E 48 83 2a 00
        E 0 93 2a 7f
        E 32 83 2a 00
        E 0 93 2a 7f
        E 32 83 2a 00
        E 0 93 2a 7f
        E 32 83 2a 00
        E 0 93 2a 7f
        E 32 83 2a 00
        E 0 93 2a 7f
        E 32 83 2a 00
        E 0 93 2a 7f
        E 160 83 2a 00
        E 0 93 2a 66
        E 32 83 2a 00
        E 0 93 2a 5d
        E 32 83 2a 00
        E 0 93 2a 55
        E 256 83 2a 00
        E 0 93 2a 19
        E 96 83 2a 00
        E 0 93 2a 08
        E 48 83 2a 00
        E 48 93 2a 7f
        E 16 83 2a 00
        E 0 93 2a 6e
        E 16 83 2a 00
        E 0 93 2a 11
        E 16 83 2a 00
        E 0 93 2a 08
        E 32 83 2a 00
        E 0 93 2a 6e
        E 16 83 2a 00
        E 0 93 2a 11
        E 16 83 2a 00
        E 0 93 2a 08
        E 16 83 2a 00
        E 0 93 2a 3b
        E 48 83 2a 00
        E 16 93 2a 7f
        E 16 83 2a 00
        E 0 93 2a 6e
        E 16 83 2a 00
        E 0 93 2a 11
        E 16 83 2a 00
        E 0 93 2a 08
        E 32 83 2a 00
        E 0 93 2a 6e
        E 16 83 2a 00
        E 0 93 2a 11
        E 16 83 2a 00
        E 16 93 2a 7f
        E 16 83 2a 00
        E 0 93 2a 6e
        E 16 83 2a 00
        E 0 93 2a 11
        E 16 83 2a 00
        E 0 93 2a 08
        E 32 83 2a 00
        E 0 93 2a 6e
        E 16 83 2a 00
        E 0 93 2a 11
        E 16 83 2a 00
        E 0 93 2a 08
        E 16 83 2a 00
        E 0 93 2a 3b
        E 16 83 2a 00
        E 16 93 2a 7f
        E 16 83 2a 00
        E 0 93 2a 6e
        E 16 83 2a 00
        E 0 93 2a 11
        E 16 83 2a 00
        E 0 93 2a 08
        E 32 83 2a 00
        E 0 93 2a 6e
        E 16 83 2a 00
        E 0 93 2a 11
        E 16 83 2a 00
        E 16 93 2a 7f
        E 16 83 2a 00
        E 0 93 2a 6e
        E 16 83 2a 00
        E 0 93 2a 11
        E 16 83 2a 00
        E 0 93 2a 08
        E 32 83 2a 00
        E 0 93 2a 6e
        E 16 83 2a 00
        E 0 93 2a 11
        E 16 83 2a 00
        E 16 93 2a 7f
        E 16 83 2a 00
        E 0 93 2a 6e
        E 16 83 2a 00
        E 0 93 2a 11
        E 16 83 2a 00
        E 0 93 2a 08
        E 32 83 2a 00
        E 0 93 2a 6e
        E 16 83 2a 00
        E 0 93 2a 11
        E 16 83 2a 00
        E 16 93 2a 7f
        E 16 83 2a 00
        E 0 93 2a 6e
        E 16 83 2a 00
        E 0 93 2a 11
        E 16 83 2a 00
        E 0 93 2a 08
        E 32 83 2a 00
        E 0 93 2a 6e
        E 16 83 2a 00
        E 0 93 2a 11
        E 16 83 2a 00
        E 16 93 2a 7f
        E 16 83 2a 00
        E 0 93 2a 6e
        E 16 83 2a 00
        E 0 93 2a 11
        E 16 83 2a 00
        E 0 93 2a 08
        E 32 83 2a 00
        E 0 93 2a 6e
        E 16 83 2a 00
        E 0 93 2a 11
        E 16 83 2a 00
        E 16 93 2a 7f
        E 16 83 2a 00
        E 0 93 2a 6e
        E 16 83 2a 00
        E 0 93 2a 11
        E 16 83 2a 00
        E 0 93 2a 08
        E 32 83 2a 00
        E 0 93 2a 6e
        E 16 83 2a 00
        E 0 93 2a 11
        E 16 83 2a 00
        E 0 93 2a 08
        E 16 83 2a 00
        E 0 93 2a 3b
        E 48 83 2a 00
        E 0 93 2a 11
        E 48 83 2a 00
        E 16 93 2a 7f
        E 16 83 2a 00
        E 0 93 2a 6e
        E 16 83 2a 00
        E 0 93 2a 11
        E 16 83 2a 00
        E 0 93 2a 08
        E 32 83 2a 00
        E 0 93 2a 6e
        E 16 83 2a 00
        E 0 93 2a 11
        E 16 83 2a 00
        E 16 93 2a 7f
        E 16 83 2a 00
        E 0 93 2a 6e
        E 16 83 2a 00
        E 0 93 2a 11
        E 16 83 2a 00
        E 0 93 2a 08
        E 32 83 2a 00
        E 0 93 2a 6e
        E 16 83 2a 00
        E 0 93 2a 11
        E 16 83 2a 00
        E 16 93 2a 7f
        E 16 83 2a 00
        E 0 93 2a 6e
        E 16 83 2a 00
        E 0 93 2a 11
        E 16 83 2a 00
        E 0 93 2a 08
        E 32 83 2a 00
        E 0 93 2a 6e
        E 16 83 2a 00
        E 0 93 2a 11
        E 16 83 2a 00
        E 16 93 2a 7f
        E 16 83 2a 00
        E 0 93 2a 6e
        E 16 83 2a 00
        E 0 93 2a 11
        E 16 83 2a 00
        E 0 93 2a 08
        E 32 83 2a 00
        E 0 93 2a 6e
        E 16 83 2a 00
        E 0 93 2a 11
        E 16 83 2a 00
        E 16 93 2a 7f
        E 16 83 2a 00
        E 0 93 2a 6e
        E 16 83 2a 00
        E 0 93 2a 11
        E 16 83 2a 00
        E 0 93 2a 08
        E 32 83 2a 00
        E 0 93 2a 6e
        E 16 83 2a 00
        E 0 93 2a 11
        E 16 83 2a 00
        E 16 93 2a 7f
        E 16 83 2a 00
        E 0 93 2a 6e
        E 16 83 2a 00
        E 0 93 2a 11
        E 16 83 2a 00
        E 0 93 2a 08
        E 32 83 2a 00
        E 0 93 2a 6e
        E 16 83 2a 00
        E 0 93 2a 11
        E 16 83 2a 00
        E 16 93 2a 7f
        E 16 83 2a 00
        E 0 93 2a 6e
        E 16 83 2a 00
        E 0 93 2a 11
        E 16 83 2a 00
        E 0 93 2a 08
        E 32 83 2a 00
        E 0 93 2a 6e
        E 16 83 2a 00
        E 0 93 2a 11
        E 16 83 2a 00
        E 0 93 2a 08
        E 16 83 2a 00
        E 0 93 2a 3b
        E 48 83 2a 00
        E 0 93 2a 11
        E 48 83 2a 00
        E 16 93 2a 7f
        E 16 83 2a 00
        E 0 93 2a 6e
        E 16 83 2a 00
        E 0 93 2a 11
        E 16 83 2a 00
        E 0 93 2a 08
        E 32 83 2a 00
        E 0 93 2a 6e
        E 16 83 2a 00
        E 0 93 2a 11
        E 16 83 2a 00
        E 16 93 2a 7f
        E 16 83 2a 00
        E 0 93 2a 6e
        E 16 83 2a 00
        E 0 93 2a 11
        E 16 83 2a 00
        E 0 93 2a 08
        E 32 83 2a 00
        E 0 93 2a 6e
        E 16 83 2a 00
        E 0 93 2a 11
        E 16 83 2a 00
        E 16 93 2a 7f
        E 16 83 2a 00
        E 0 93 2a 6e
        E 16 83 2a 00
        E 0 93 2a 11
        E 16 83 2a 00
        E 0 93 2a 08
        E 32 83 2a 00
        E 0 93 2a 6e
        E 16 83 2a 00
        E 0 93 2a 11
        E 16 83 2a 00
        E 16 93 2a 7f
        E 16 83 2a 00
        E 0 93 2a 6e
        E 16 83 2a 00
        E 0 93 2a 11
        E 16 83 2a 00
        E 0 93 2a 08
        E 32 83 2a 00
        E 0 93 2a 6e
        E 16 83 2a 00
        E 0 93 2a 11
        E 16 83 2a 00
        E 16 93 2a 7f
        E 16 83 2a 00
        E 0 93 2a 6e
        E 16 83 2a 00
        E 0 93 2a 11
        E 16 83 2a 00
        E 0 93 2a 08
        E 32 83 2a 00
        E 0 93 2a 6e
        E 16 83 2a 00
        E 0 93 2a 11
        E 16 83 2a 00
        E 16 93 2a 7f
        E 16 83 2a 00
        E 0 93 2a 7f
        E 16 83 2a 00
        E 0 93 2a 7f
        E 16 83 2a 00
        E 16 93 2a 7f
        E 16 83 2a 00
        E 0 93 2a 7f
        E 16 83 2a 00
        E 0 93 2a 7f
        E 16 83 2a 00
        E 16 93 2a 7f
        E 16 83 2a 00
        E 0 93 2a 7f
        E 16 83 2a 00
        E 0 93 2a 7f
        E 16 83 2a 00
        E 0 93 2a 7f
        E 48 83 2a 00
        E 0 93 2a 7f
        E 32 83 2a 00
        E 0 93 2a 7f
        E 32 83 2a 00
        E 0 93 2a 7f
        E 32 83 2a 00
        E 0 93 2a 7f
        E 32 83 2a 00
        E 0 93 2a 7f
        E 32 83 2a 00
        E 0 93 2a 7f
        E 160 83 2a 00
        E 0 93 2a 66
        E 32 83 2a 00
        E 0 93 2a 5d
        E 32 83 2a 00
        E 0 93 2a 55
        E 256 83 2a 00
        E 0 93 2a 19
        E 16 83 2a 00
        E 16 93 2a 7f
        E 16 83 2a 00
        E 0 93 2a 7f
        E 16 83 2a 00
        E 0 93 2a 7f
        E 16 83 2a 00
        E 16 93 2a 7f
        E 16 83 2a 00
        E 0 93 2a 7f
        E 16 83 2a 00
        E 0 93 2a 7f
        E 16 83 2a 00
        E 16 93 2a 7f
        E 16 83 2a 00
        E 0 93 2a 7f
        E 16 83 2a 00
        E 0 93 2a 7f
        E 16 83 2a 00
        E 0 93 2a 7f
        E 48 83 2a 00
        E 0 93 2a 7f
        E 32 83 2a 00
        E 0 93 2a 7f
        E 32 83 2a 00
        E 0 93 2a 7f
        E 32 83 2a 00
        E 0 93 2a 7f
        E 32 83 2a 00
        E 0 93 2a 7f
        E 32 83 2a 00
        E 0 93 2a 7f
        E 160 83 2a 00
        E 0 93 2a 66
        E 32 83 2a 00
        E 0 93 2a 5d
        E 32 83 2a 00
        E 0 93 2a 55
        E 256 83 2a 00
        E 0 93 2a 19
        E 16 83 2a 00
        E 16 93 2a 7f
        E 16 83 2a 00
        E 0 93 2a 7f
        E 16 83 2a 00
        E 0 93 2a 7f
        E 16 83 2a 00
        E 16 93 2a 7f
        E 16 83 2a 00
        E 0 93 2a 7f
        E 16 83 2a 00
        E 0 93 2a 7f
        E 16 83 2a 00
        E 16 93 2a 7f
        E 16 83 2a 00
        E 0 93 2a 7f
        E 16 83 2a 00
        E 0 93 2a 7f
        E 16 83 2a 00
        E 0 93 2a 7f
        E 48 83 2a 00
        E 0 93 2a 7f
        E 32 83 2a 00
        E 0 93 2a 7f
        E 32 83 2a 00
        E 0 93 2a 7f
        E 32 83 2a 00
        E 0 93 2a 7f
        E 32 83 2a 00
        E 0 93 2a 7f
        E 32 83 2a 00
        E 0 93 2a 7f
        E 160 83 2a 00
        E 0 93 2a 66
        E 32 83 2a 00
        E 0 93 2a 5d
        E 32 83 2a 00
        E 0 93 2a 55
        E 256 83 2a 00
        E 0 93 2a 19
        E 16 83 2a 00
        E 16 93 2a 7f
        E 16 83 2a 00
        E 0 93 2a 7f
        E 16 83 2a 00
        E 0 93 2a 7f
        E 16 83 2a 00
        E 16 93 2a 7f
        E 16 83 2a 00
        E 0 93 2a 7f
        E 16 83 2a 00
        E 0 93 2a 7f
        E 16 83 2a 00
        E 16 93 2a 7f
        E 16 83 2a 00
        E 0 93 2a 7f
        E 16 83 2a 00
        E 0 93 2a 7f
        E 16 83 2a 00
        E 0 93 2a 7f
        E 48 83 2a 00
        E 0 93 2a 7f
        E 32 83 2a 00
        E 0 93 2a 7f
        E 32 83 2a 00
        E 0 93 2a 7f
        E 32 83 2a 00
        E 0 93 2a 7f
        E 32 83 2a 00
        E 0 93 2a 7f
        E 32 83 2a 00
        E 0 93 2a 7f
        E 160 83 2a 00
        E 0 93 2a 66
        E 32 83 2a 00
        E 0 93 2a 5d
        E 32 83 2a 00
        E 0 93 2a 55
        E 256 83 2a 00
        E 0 93 2a 19
        E 96 83 2a 00
        E 0 93 2a 08
        E 48 83 2a 00
        E 16 93 2a 7f
        E 16 83 2a 00
        E 0 93 2a 6e
        E 16 83 2a 00
        E 0 93 2a 11
        E 16 83 2a 00
        E 0 93 2a 08
        E 32 83 2a 00
        E 0 93 2a 6e
        E 16 83 2a 00
        E 0 93 2a 11
        E 16 83 2a 00
        E 16 93 2a 7f
        E 16 83 2a 00
        E 0 93 2a 6e
        E 16 83 2a 00
        E 0 93 2a 11
        E 16 83 2a 00
        E 16 93 2a 6e
        E 16 83 2a 00
        E 0 93 2a 2a
        E 16 83 2a 00
        E 0 93 2a 19
        E 16 83 2a 00
        E 0 93 2a 3b
        E 16 83 2a 00
        E 0 93 2a 2a
        E 32 83 2a 00
        E 0 93 2a 22
        E 16 83 2a 00
        E 16 93 2a 6e
        E 16 83 2a 00
        E 0 93 2a 2a
        E 16 83 2a 00
        E 0 93 2a 19
        E 16 83 2a 00
        E 0 93 2a 3b
        E 16 83 2a 00
        E 16 93 2a 6e
        E 16 83 2a 00
        E 0 93 2a 2a
        E 16 83 2a 00
        E 0 93 2a 19
        E 16 83 2a 00
        E 0 93 2a 3b
        E 16 83 2a 00
        E 0 93 2a 2a
        E 32 83 2a 00
        E 0 93 2a 22
        E 16 83 2a 00
        E 0 93 2a 22
        E 112 83 2a 00
        E 0 93 2a 08
        E 16 83 2a 00
        E 240 93 2a 7f
        E 16 83 2a 00
        E 0 93 2a 6e
        E 16 83 2a 00
        E 0 93 2a 11
        E 16 83 2a 00
        E 0 93 2a 08
        E 32 83 2a 00
        E 0 93 2a 6e
        E 16 83 2a 00
        E 0 93 2a 11
        E 16 83 2a 00
        E 16 93 2a 7f
        E 16 83 2a 00
        E 0 93 2a 6e
        E 16 83 2a 00
        E 0 93 2a 11
        E 16 83 2a 00
        E 0 93 2a 08
        E 32 83 2a 00
        E 0 93 2a 6e
        E 16 83 2a 00
        E 0 93 2a 11
        E 16 83 2a 00
        E 16 93 2a 7f
        E 16 83 2a 00
        E 0 93 2a 6e
        E 16 83 2a 00
        E 0 93 2a 11
        E 16 83 2a 00
        E 0 93 2a 08
        E 32 83 2a 00
        E 0 93 2a 6e
        E 16 83 2a 00
        E 0 93 2a 11
        E 16 83 2a 00
        E 16 93 2a 7f
        E 16 83 2a 00
        E 0 93 2a 6e
        E 16 83 2a 00
        E 0 93 2a 11
        E 16 83 2a 00
        E 0 93 2a 08
        E 32 83 2a 00
        E 0 93 2a 6e
        E 16 83 2a 00
        E 0 93 2a 11
        E 16 83 2a 00
        E 16 93 2a 7f
        E 16 83 2a 00
        E 0 93 2a 6e
        E 16 83 2a 00
        E 0 93 2a 11
        E 16 83 2a 00
        E 0 93 2a 08
        E 32 83 2a 00
        E 0 93 2a 6e
        E 16 83 2a 00
        E 0 93 2a 11
        E 16 83 2a 00
        E 16 93 2a 7f
        E 16 83 2a 00
        E 0 93 2a 6e
        E 16 83 2a 00
        E 0 93 2a 11
        E 16 83 2a 00
        E 0 93 2a 08
        E 32 83 2a 00
        E 0 93 2a 6e
        E 16 83 2a 00
        E 0 93 2a 11
        E 16 83 2a 00
        E 16 93 2a 7f
        E 16 83 2a 00
        E 0 93 2a 6e
        E 16 83 2a 00
        E 0 93 2a 11
        E 16 83 2a 00
        E 0 93 2a 08
        E 32 83 2a 00
        E 0 93 2a 6e
        E 16 83 2a 00
        E 0 93 2a 11
        E 16 83 2a 00
        E 0 93 2a 08
        E 16 83 2a 00
        E 0 93 2a 3b
        E 48 83 2a 00
        E 0 93 2a 11
        E 48 83 2a 00
        E 16 93 2a 7f
        E 16 83 2a 00
        E 0 93 2a 6e
        E 16 83 2a 00
        E 0 93 2a 11
        E 16 83 2a 00
        E 0 93 2a 08
        E 32 83 2a 00
        E 0 93 2a 6e
        E 16 83 2a 00
        E 4128 93 2a 33
        E 16 83 2a 00
        E 0 93 2a 08
        E 16 83 2a 00
        E 544 93 2a 33
        E 16 83 2a 00
        E 0 93 2a 08
        E 16 83 2a 00
        E 544 93 2a 33
        E 16 83 2a 00
        E 0 93 2a 08
        E 16 83 2a 00
        E 544 93 2a 33
        E 16 83 2a 00
        E 0 93 2a 08
        E 16 83 2a 00
        E 544 93 2a 7f
        E 16 83 2a 00
        E 0 93 2a 7f
        E 16 83 2a 00
        E 0 93 2a 7f
        E 16 83 2a 00
        E 0 93 2a 7f
        E 16 83 2a 00
        E 0 93 2a 7f
        E 16 83 2a 00
        E 0 93 2a 7f
        E 16 83 2a 00
        E 0 93 2a 7f
        E 16 83 2a 00
        E 0 93 2a 7f
        E 48 83 2a 00
        E 0 93 2a 7f
        E 32 83 2a 00
        E 0 93 2a 7f
        E 32 83 2a 00
        E 0 93 2a 7f
        E 112 83 2a 00
        E 0 93 2a 7f
        E 560 83 2a 00
        E 0 93 2a 66
        E 112 83 2a 00
        E 0 93 2a 5d
        E 112 83 2a 00
        E 0 93 2a 55
        E 448 83 2a 00
        E 0 93 2a 33
        E 112 83 2a 00
        E 0 93 2a 2a
        E 224 83 2a 00
        E 0 93 2a 19
        E 224 83 2a 00
        E 0 93 2a 08
        E 112 83 2a 00
        E 2768 93 2a 7f
        E 16 83 2a 00
        E 0 93 2a 7f
        E 16 83 2a 00
        E 0 93 2a 19
        E 48 83 2a 00
        E 736 93 2a 7f
        E 16 83 2a 00
        E 0 93 2a 6e
        E 16 83 2a 00
        E 0 93 2a 11
        E 16 83 2a 00
        E 0 93 2a 11
        E 16 83 2a 00
        E 16 93 2a 7f
        E 16 83 2a 00
        E 0 93 2a 6e
        E 16 83 2a 00
        E 16 93 2a 7f
        E 16 83 2a 00
        E 0 93 2a 6e
        E 16 83 2a 00
        E 0 93 2a 11
        E 16 83 2a 00
        E 0 93 2a 11
        E 16 83 2a 00
        E 16 93 2a 7f
        E 16 83 2a 00
        E 0 93 2a 6e
        E 16 83 2a 00
        E 16 93 2a 7f
        E 16 83 2a 00
        E 0 93 2a 6e
        E 16 83 2a 00
        E 0 93 2a 11
        E 16 83 2a 00
        E 0 93 2a 11
        E 16 83 2a 00
        E 16 93 2a 7f
        E 16 83 2a 00
        E 0 93 2a 6e
        E 16 83 2a 00
        E 16 93 2a 7f
        E 16 83 2a 00
        E 0 93 2a 6e
        E 16 83 2a 00
        E 0 93 2a 11
        E 16 83 2a 00
        E 0 93 2a 11
        E 16 83 2a 00
        E 16 93 2a 7f
        E 16 83 2a 00
        E 0 93 2a 6e
        E 16 83 2a 00
        E 0 93 2a 11
        E 16 83 2a 00
        E 0 93 2a 11
        E 16 83 2a 00
        E 16 93 2a 3b
        E 48 83 2a 00
        E 0 93 2a 11
        E 96 83 2a 00
        E 0 93 2a 11
        E 48 83 2a 00
        E 48 93 2a 19
        E 48 83 2a 00
        E 0 93 2a 11
        E 48 83 2a 00
        E 16 93 2a 7f
        E 16 83 2a 00
        E 0 93 2a 6e
        E 16 83 2a 00
        E 0 93 2a 11
        E 16 83 2a 00
        E 0 93 2a 11
        E 16 83 2a 00
        E 16 93 2a 7f
        E 16 83 2a 00
        E 0 93 2a 6e
        E 16 83 2a 00
        E 16 93 2a 7f
        E 16 83 2a 00
        E 0 93 2a 6e
        E 16 83 2a 00
        E 0 93 2a 11
        E 16 83 2a 00
        E 0 93 2a 11
        E 16 83 2a 00
        E 16 93 2a 7f
        E 16 83 2a 00
        E 0 93 2a 6e
        E 16 83 2a 00
        E 16 93 2a 7f
        E 16 83 2a 00
        E 0 93 2a 6e
        E 16 83 2a 00
        E 0 93 2a 11
        E 16 83 2a 00
        E 0 93 2a 11
        E 16 83 2a 00
        E 16 93 2a 7f
        E 16 83 2a 00
        E 0 93 2a 6e
        E 16 83 2a 00
        E 16 93 2a 7f
        E 16 83 2a 00
        E 0 93 2a 6e
        E 16 83 2a 00
        E 0 93 2a 11
        E 16 83 2a 00
        E 0 93 2a 11
        E 16 83 2a 00
        E 16 93 2a 7f
        E 16 83 2a 00
        E 0 93 2a 6e
        E 16 83 2a 00
        E 0 93 2a 11
        E 16 83 2a 00
        E 0 93 2a 11
        E 16 83 2a 00
        E 16 93 2a 3b
        E 48 83 2a 00
        E 0 93 2a 11
        E 96 83 2a 00
        E 0 93 2a 11
        E 48 83 2a 00
        E 48 93 2a 19
        E 48 83 2a 00
        E 0 93 2a 11
        E 48 83 2a 00
        E 16 93 2a 7f
        E 16 83 2a 00
        E 0 93 2a 6e
        E 16 83 2a 00
        E 0 93 2a 11
        E 16 83 2a 00
        E 0 93 2a 11
        E 16 83 2a 00
        E 16 93 2a 7f
        E 16 83 2a 00
        E 0 93 2a 6e
        E 16 83 2a 00
        E 16 93 2a 7f
        E 16 83 2a 00
        E 0 93 2a 6e
        E 16 83 2a 00
        E 0 93 2a 11
        E 16 83 2a 00
        E 0 93 2a 11
        E 16 83 2a 00
        E 16 93 2a 7f
        E 16 83 2a 00
        E 0 93 2a 6e
        E 16 83 2a 00
        E 16 93 2a 7f
        E 16 83 2a 00
        E 0 93 2a 6e
        E 16 83 2a 00
        E 0 93 2a 11
        E 16 83 2a 00
        E 0 93 2a 11
        E 16 83 2a 00
        E 16 93 2a 7f
        E 16 83 2a 00
        E 0 93 2a 6e
        E 16 83 2a 00
        E 16 93 2a 7f
        E 16 83 2a 00
        E 0 93 2a 6e
        E 16 83 2a 00
        E 0 93 2a 11
        E 16 83 2a 00
        E 0 93 2a 11
        E 16 83 2a 00
        E 16 93 2a 7f
        E 16 83 2a 00
        E 0 93 2a 6e
        E 16 83 2a 00
        E 0 93 2a 11
        E 16 83 2a 00
        E 0 93 2a 11
        E 16 83 2a 00
        E 16 93 2a 3b
        E 48 83 2a 00
        E 0 93 2a 11
        E 96 83 2a 00
        E 0 93 2a 11
        E 48 83 2a 00
        E 48 93 2a 19
        E 48 83 2a 00
        E 0 93 2a 11
        E 48 83 2a 00
        E 16 93 2a 7f
        E 16 83 2a 00
        E 0 93 2a 6e
        E 16 83 2a 00
        E 0 93 2a 11
        E 16 83 2a 00
        E 0 93 2a 11
        E 16 83 2a 00
        E 16 93 2a 7f
        E 16 83 2a 00
        E 0 93 2a 6e
        E 16 83 2a 00
        E 32 93 2a 6e
        E 16 83 2a 00
        E 0 93 2a 2a
        E 16 83 2a 00
        E 0 93 2a 19
        E 16 83 2a 00
        E 0 93 2a 3b
        E 16 83 2a 00
        E 0 93 2a 2a
        E 32 83 2a 00
        E 0 93 2a 22
        E 16 83 2a 00
        E 0 93 2a 22
        E 112 83 2a 00
        E 0 93 2a 08
        E 16 83 2a 00
        E 384 93 2a 7f
        E 16 83 2a 00
        E 0 93 2a 6e
        E 16 83 2a 00
        E 0 93 2a 11
        E 16 83 2a 00
        E 0 93 2a 11
        E 16 83 2a 00
        E 16 93 2a 7f
        E 16 83 2a 00
        E 0 93 2a 6e
        E 16 83 2a 00
        E 16 93 2a 7f
        E 16 83 2a 00
        E 0 93 2a 6e
        E 16 83 2a 00
        E 0 93 2a 11
        E 16 83 2a 00
        E 0 93 2a 11
        E 16 83 2a 00
        E 16 93 2a 7f
        E 16 83 2a 00
        E 0 93 2a 6e
        E 16 83 2a 00
        E 32 93 2a 6e
        E 16 83 2a 00
        E 0 93 2a 2a
        E 16 83 2a 00
        E 0 93 2a 19
        E 16 83 2a 00
        E 0 93 2a 3b
        E 16 83 2a 00
        E 0 93 2a 2a
        E 32 83 2a 00
        E 0 93 2a 22
        E 16 83 2a 00
        E 0 93 2a 22
        E 112 83 2a 00
        E 0 93 2a 08
        E 16 83 2a 00
        E 272 93 2a 6e
        E 16 83 2a 00
        E 0 93 2a 2a
        E 16 83 2a 00
        E 0 93 2a 19
        E 16 83 2a 00
        E 0 93 2a 3b
        E 16 83 2a 00
        E 0 93 2a 2a
        E 32 83 2a 00
        E 0 93 2a 22
        E 16 83 2a 00
        E 16 93 2a 6e
        E 16 83 2a 00
        E 0 93 2a 2a
        E 16 83 2a 00
        E 0 93 2a 19
        E 16 83 2a 00
        E 0 93 2a 3b
        E 16 83 2a 00
        E 0 93 2a 2a
        E 32 83 2a 00
        E 0 93 2a 22
        E 16 83 2a 00
        E 0 93 2a 22
        E 112 83 2a 00
        E 0 93 2a 08
        E 16 83 2a 00
        E 128 93 2a 7f
        E 16 83 2a 00
        E 0 93 2a 6e
        E 16 83 2a 00
        E 0 93 2a 11
        E 16 83 2a 00
        E 0 93 2a 11
        E 16 83 2a 00
        E 16 93 2a 7f
        E 16 83 2a 00
        E 0 93 2a 6e
        E 16 83 2a 00
        E 16 93 2a 7f
        E 16 83 2a 00
        E 0 93 2a 6e
        E 16 83 2a 00
        E 0 93 2a 11
        E 16 83 2a 00
        E 0 93 2a 11
        E 16 83 2a 00
        E 16 93 2a 7f
        E 16 83 2a 00
        E 0 93 2a 6e
        E 16 83 2a 00
        E 0 93 2a 11
        E 16 83 2a 00
        E 0 93 2a 11
        E 16 83 2a 00
        E 16 93 2a 3b
        E 48 83 2a 00
        E 0 93 2a 11
        E 48 83 2a 00
        E 16 93 2a 6e
        E 16 83 2a 00
        E 0 93 2a 2a
        E 16 83 2a 00
        E 0 93 2a 19
        E 16 83 2a 00
        E 0 93 2a 3b
        E 16 83 2a 00
        E 0 93 2a 2a
        E 32 83 2a 00
        E 0 93 2a 22
        E 16 83 2a 00
        E 0 93 2a 22
        E 112 83 2a 00
        E 0 93 2a 08
        E 16 83 2a 00
        E 16 93 2a 6e
        E 16 83 2a 00
        E 0 93 2a 2a
        E 16 83 2a 00
        E 0 93 2a 19
        E 16 83 2a 00
        E 0 93 2a 3b
        E 16 83 2a 00
        E 0 93 2a 2a
        E 32 83 2a 00
        E 0 93 2a 22
        E 16 83 2a 00
        E 16 93 2a 6e
        E 16 83 2a 00
        E 0 93 2a 2a
        E 16 83 2a 00
        E 0 93 2a 19
        E 16 83 2a 00
        E 0 93 2a 3b
        E 16 83 2a 00
        E 0 93 2a 2a
        E 32 83 2a 00
        E 0 93 2a 22
        E 16 83 2a 00
        E 0 93 2a 22
        E 112 83 2a 00
        E 0 93 2a 08
        E 16 83 2a 00
        E 256 93 2a 7f
        E 16 83 2a 00
        E 0 93 2a 6e
        E 16 83 2a 00
        E 0 93 2a 11
        E 16 83 2a 00
        E 0 93 2a 11
        E 16 83 2a 00
        E 16 93 2a 7f
        E 16 83 2a 00
        E 0 93 2a 6e
        E 16 83 2a 00
        E 16 93 2a 7f
        E 16 83 2a 00
        E 0 93 2a 6e
        E 16 83 2a 00
        E 0 93 2a 11
        E 16 83 2a 00
        E 0 93 2a 11
        E 16 83 2a 00
        E 16 93 2a 7f
        E 16 83 2a 00
        E 0 93 2a 6e
        E 16 83 2a 00
        E 16 93 2a 7f
        E 16 83 2a 00
        E 0 93 2a 6e
        E 16 83 2a 00
        E 0 93 2a 11
        E 16 83 2a 00
        E 0 93 2a 11
        E 16 83 2a 00
        E 16 93 2a 7f
        E 16 83 2a 00
        E 0 93 2a 6e
        E 16 83 2a 00
        E 16 93 2a 7f
        E 16 83 2a 00
        E 0 93 2a 6e
        E 16 83 2a 00
        E 0 93 2a 11
        E 16 83 2a 00
        E 0 93 2a 11
        E 16 83 2a 00
        E 32 93 2a 7f
        E 16 83 2a 00
        E 0 93 2a 7f
        E 16 83 2a 00
        E 0 93 2a 7f
        E 16 83 2a 00
        E 0 93 2a 7f
        E 16 83 2a 00
        E 0 93 2a 7f
        E 16 83 2a 00
        E 0 93 2a 7f
        E 16 83 2a 00
        E 0 93 2a 7f
        E 16 83 2a 00
        E 0 93 2a 7f
        E 48 83 2a 00
        E 0 93 2a 7f
        E 32 83 2a 00
        E 0 93 2a 7f
        E 32 83 2a 00
        E 0 93 2a 7f
        E 112 83 2a 00
        E 0 93 2a 7f
        E 560 83 2a 00
        E 0 93 2a 66
        E 112 83 2a 00
        E 0 93 2a 5d
        E 112 83 2a 00
        E 0 93 2a 55
        E 448 83 2a 00
        E 0 93 2a 33
        E 112 83 2a 00
        E 0 93 2a 2a
        E 224 83 2a 00
        E 0 93 2a 19
        E 224 83 2a 00
        E 0 93 2a 08
        E 112 83 2a 00
        E 48 93 2a 7f
        E 16 83 2a 00
        E 0 93 2a 7f
        E 16 83 2a 00
        E 16 93 2a 7f
        E 16 83 2a 00
        E 0 93 2a 6e
        E 16 83 2a 00
        E 0 93 2a 11
        E 16 83 2a 00
        E 0 93 2a 11
        E 16 83 2a 00
        E 16 93 2a 7f
        E 16 83 2a 00
        E 0 93 2a 6e
        E 16 83 2a 00
        E 16 93 2a 7f
        E 16 83 2a 00
        E 0 93 2a 6e
        E 16 83 2a 00
        E 0 93 2a 11
        E 16 83 2a 00
        E 0 93 2a 11
        E 16 83 2a 00
        E 16 93 2a 7f
        E 16 83 2a 00
        E 0 93 2a 6e
        E 16 83 2a 00
        E 0 93 2a 11
        E 16 83 2a 00
        E 0 93 2a 11
        E 16 83 2a 00
        E 16 93 2a 3b
        E 48 83 2a 00
        E 0 93 2a 11
        E 32 83 2a 00
        E 16 93 2a 7f
        E 16 83 2a 00
        E 0 93 2a 6e
        E 16 83 2a 00
        E 0 93 2a 11
        E 16 83 2a 00
        E 0 93 2a 11
        E 16 83 2a 00
        E 16 93 2a 7f
        E 16 83 2a 00
        E 0 93 2a 6e
        E 16 83 2a 00
        E 16 93 2a 7f
        E 16 83 2a 00
        E 0 93 2a 6e
        E 16 83 2a 00
        E 0 93 2a 11
        E 16 83 2a 00
        E 0 93 2a 11
        E 16 83 2a 00
        E 16 93 2a 7f
        E 16 83 2a 00
        E 0 93 2a 6e
        E 16 83 2a 00
        E 16 93 2a 7f
        E 16 83 2a 00
        E 0 93 2a 6e
        E 16 83 2a 00
        E 0 93 2a 11
        E 16 83 2a 00
        E 0 93 2a 11
        E 16 83 2a 00
        E 16 93 2a 7f
        E 16 83 2a 00
        E 0 93 2a 6e
        E 16 83 2a 00
        E 16 93 2a 7f
        E 16 83 2a 00
        E 0 93 2a 6e
        E 16 83 2a 00
        E 0 93 2a 11
        E 16 83 2a 00
        E 0 93 2a 11
        E 16 83 2a 00
        E 16 93 2a 7f
        E 16 83 2a 00
        E 0 93 2a 6e
        E 16 83 2a 00
        E 16 93 2a 7f
        E 16 83 2a 00
        E 0 93 2a 6e
        E 16 83 2a 00
        E 0 93 2a 11
        E 16 83 2a 00
        E 0 93 2a 11
        E 16 83 2a 00
        E 16 93 2a 7f
        E 16 83 2a 00
        E 0 93 2a 6e
        E 16 83 2a 00
        E 0 93 2a 11
        E 16 83 2a 00
        E 0 93 2a 11
        E 16 83 2a 00
        E 16 93 2a 3b
        E 48 83 2a 00
        E 0 93 2a 11
        E 32 83 2a 00
        E 16 93 2a 7f
        E 16 83 2a 00
        E 0 93 2a 6e
        E 16 83 2a 00
        E 0 93 2a 11
        E 16 83 2a 00
        E 0 93 2a 11
        E 16 83 2a 00
        E 16 93 2a 7f
        E 16 83 2a 00
        E 0 93 2a 6e
        E 16 83 2a 00
        E 16 93 2a 7f
        E 16 83 2a 00
        E 0 93 2a 6e
        E 16 83 2a 00
        E 0 93 2a 11
        E 16 83 2a 00
        E 0 93 2a 11
        E 16 83 2a 00
        E 16 93 2a 7f
        E 16 83 2a 00
        E 0 93 2a 6e
        E 16 83 2a 00
        E 16 93 2a 7f
        E 16 83 2a 00
        E 0 93 2a 6e
        E 16 83 2a 00
        E 0 93 2a 11
        E 16 83 2a 00
        E 0 93 2a 11
        E 16 83 2a 00
        E 16 93 2a 7f
        E 16 83 2a 00
        E 0 93 2a 6e
        E 16 83 2a 00
        E 16 93 2a 7f
        E 16 83 2a 00
        E 0 93 2a 6e
        E 16 83 2a 00
        E 0 93 2a 11
        E 16 83 2a 00
        E 0 93 2a 11
        E 16 83 2a 00
        E 16 93 2a 7f
        E 16 83 2a 00
        E 0 93 2a 6e
        E 16 83 2a 00
        E 16 93 2a 7f
        E 16 83 2a 00
        E 0 93 2a 6e
        E 16 83 2a 00
        E 0 93 2a 11
        E 16 83 2a 00
        E 0 93 2a 11
        E 16 83 2a 00
        E 16 93 2a 7f
        E 16 83 2a 00
        E 0 93 2a 6e
        E 16 83 2a 00
        E 0 93 2a 11
        E 16 83 2a 00
        E 0 93 2a 11
        E 16 83 2a 00
        E 16 93 2a 3b
        E 48 83 2a 00
        E 0 93 2a 11
        E 32 83 2a 00
        E 16 93 2a 7f
        E 16 83 2a 00
        E 0 93 2a 6e
        E 16 83 2a 00
        E 0 93 2a 11
        E 16 83 2a 00
        E 0 93 2a 11
        E 16 83 2a 00
        E 16 93 2a 7f
        E 16 83 2a 00
        E 0 93 2a 6e
        E 16 83 2a 00
        E 0 93 2a 11
        E 16 83 2a 00
        E 0 93 2a 11
        E 16 83 2a 00
        E 16 93 2a 3b
        E 48 83 2a 00
        E 0 93 2a 11
        E 32 83 2a 00
        E 16 93 2a 7f
        E 16 83 2a 00
        E 0 93 2a 6e
        E 16 83 2a 00
        E 0 93 2a 11
        E 16 83 2a 00
        E 0 93 2a 11
        E 16 83 2a 00
        E 16 93 2a 7f
        E 16 83 2a 00
        E 0 93 2a 6e
        E 16 83 2a 00
        E 16 93 2a 7f
        E 16 83 2a 00
        E 0 93 2a 6e
        E 16 83 2a 00
        E 0 93 2a 11
        E 16 83 2a 00
        E 0 93 2a 11
        E 16 83 2a 00
        E 16 93 2a 7f
        E 16 83 2a 00
        E 0 93 2a 6e
        E 16 83 2a 00
        E 16 93 2a 7f
        E 16 83 2a 00
        E 0 93 2a 6e
        E 16 83 2a 00
        E 0 93 2a 11
        E 16 83 2a 00
        E 0 93 2a 11
        E 16 83 2a 00
        E 16 93 2a 7f
        E 16 83 2a 00
        E 0 93 2a 6e
        E 16 83 2a 00
        E 16 93 2a 7f
        E 16 83 2a 00
        E 0 93 2a 6e
        E 16 83 2a 00
        E 0 93 2a 11
        E 16 83 2a 00
        E 0 93 2a 11
        E 16 83 2a 00
        E 16 93 2a 7f
        E 16 83 2a 00
        E 0 93 2a 6e
        E 16 83 2a 00
        E 0 93 2a 11
        E 16 83 2a 00
        E 0 93 2a 11
        E 16 83 2a 00
        E 16 93 2a 3b
        E 48 83 2a 00
        E 0 93 2a 11
        E 32 83 2a 00
        E 16 93 2a 7f
        E 16 83 2a 00
        E 0 93 2a 6e
        E 16 83 2a 00
        E 0 93 2a 11
        E 16 83 2a 00
        E 0 93 2a 11
        E 16 83 2a 00
        E 16 93 2a 7f
        E 16 83 2a 00
        E 0 93 2a 6e
        E 16 83 2a 00
        E 0 93 2a 11
        E 16 83 2a 00
        E 0 93 2a 11
        E 16 83 2a 00
        E 16 93 2a 3b
        E 48 83 2a 00
        E 0 93 2a 11
        E 32 83 2a 00
        E 16 93 2a 7f
        E 16 83 2a 00
        E 0 93 2a 6e
        E 16 83 2a 00
        E 0 93 2a 11
        E 16 83 2a 00
        E 0 93 2a 11
        E 16 83 2a 00
        E 16 93 2a 7f
        E 16 83 2a 00
        E 0 93 2a 6e
        E 16 83 2a 00
        E 16 93 2a 7f
        E 16 83 2a 00
        E 0 93 2a 6e
        E 16 83 2a 00
        E 0 93 2a 11
        E 16 83 2a 00
        E 0 93 2a 11
        E 16 83 2a 00
        E 16 93 2a 7f
        E 16 83 2a 00
        E 0 93 2a 6e
        E 16 83 2a 00
        E 16 93 2a 7f
        E 16 83 2a 00
        E 0 93 2a 6e
        E 16 83 2a 00
        E 0 93 2a 11
        E 16 83 2a 00
        E 0 93 2a 11
        E 16 83 2a 00
        E 16 93 2a 7f
        E 16 83 2a 00
        E 0 93 2a 6e
        E 16 83 2a 00
        E 16 93 2a 7f
        E 16 83 2a 00
        E 0 93 2a 6e
        E 16 83 2a 00
        E 0 93 2a 11
        E 16 83 2a 00
        E 0 93 2a 11
        E 16 83 2a 00
        E 16 93 2a 7f
        E 16 83 2a 00
        E 0 93 2a 6e
        E 16 83 2a 00
        E 0 93 2a 11
        E 16 83 2a 00
        E 0 93 2a 11
        E 16 83 2a 00
        E 16 93 2a 3b
        E 48 83 2a 00
        E 0 93 2a 11
        E 32 83 2a 00
        E 16 93 2a 7f
        E 16 83 2a 00
        E 0 93 2a 6e
        E 16 83 2a 00
        E 0 93 2a 11
        E 16 83 2a 00
        E 0 93 2a 11
        E 16 83 2a 00
        E 16 93 2a 7f
        E 16 83 2a 00
        E 0 93 2a 6e
        E 16 83 2a 00
        E 0 93 2a 11
        E 16 83 2a 00
        E 0 93 2a 11
        E 16 83 2a 00
        E 16 93 2a 3b
        E 48 83 2a 00
        E 0 93 2a 11
        E 32 83 2a 00
        E 16 93 2a 7f
        E 16 83 2a 00
        E 0 93 2a 6e
        E 16 83 2a 00
        E 0 93 2a 11
        E 16 83 2a 00
        E 0 93 2a 11
        E 16 83 2a 00
        E 16 93 2a 7f
        E 16 83 2a 00
        E 0 93 2a 6e
        E 16 83 2a 00
        E 16 93 2a 7f
        E 16 83 2a 00
        E 0 93 2a 6e
        E 16 83 2a 00
        E 0 93 2a 11
        E 16 83 2a 00
        E 0 93 2a 11
        E 16 83 2a 00
        E 16 93 2a 7f
        E 16 83 2a 00
        E 0 93 2a 6e
        E 16 83 2a 00
        E 16 93 2a 7f
        E 16 83 2a 00
        E 0 93 2a 6e
        E 16 83 2a 00
        E 0 93 2a 11
        E 16 83 2a 00
        E 0 93 2a 11
        E 16 83 2a 00
        E 16 93 2a 7f
        E 16 83 2a 00
        E 0 93 2a 6e
        E 16 83 2a 00
        E 32 93 2a 6e
        E 16 83 2a 00
        E 0 93 2a 2a
        E 16 83 2a 00
        E 0 93 2a 19
        E 16 83 2a 00
        E 0 93 2a 3b
        E 16 83 2a 00
        E 0 93 2a 2a
        E 32 83 2a 00
        E 0 93 2a 22
        E 16 83 2a 00
        E 0 93 2a 22
        E 112 83 2a 00
        E 0 93 2a 08
        E 16 83 2a 00
        E 16 93 2a 6e
        E 16 83 2a 00
        E 0 93 2a 2a
        E 16 83 2a 00
        E 0 93 2a 19
        E 16 83 2a 00
        E 0 93 2a 3b
        E 16 83 2a 00
        E 0 93 2a 2a
        E 32 83 2a 00
        E 0 93 2a 22
        E 16 83 2a 00
        E 16 93 2a 6e
        E 16 83 2a 00
        E 0 93 2a 2a
        E 16 83 2a 00
        E 0 93 2a 19
        E 16 83 2a 00
        E 0 93 2a 3b
        E 16 83 2a 00
        E 0 93 2a 2a
        E 32 83 2a 00
        E 0 93 2a 22
        E 16 83 2a 00
        E 0 93 2a 22
        E 112 83 2a 00
        E 0 93 2a 08
        E 16 83 2a 00
        E 128 93 2a 7f
        E 16 83 2a 00
        E 0 93 2a 6e
        E 16 83 2a 00
        E 0 93 2a 11
        E 16 83 2a 00
        E 0 93 2a 11
        E 16 83 2a 00
        E 16 93 2a 7f
        E 16 83 2a 00
        E 0 93 2a 6e
        E 16 83 2a 00
        E 16 93 2a 7f
        E 16 83 2a 00
        E 0 93 2a 6e
        E 16 83 2a 00
        E 0 93 2a 11
        E 16 83 2a 00
        E 0 93 2a 11
        E 16 83 2a 00
        E 16 93 2a 7f
        E 16 83 2a 00
        E 0 93 2a 6e
        E 16 83 2a 00
        E 16 93 2a 7f
        E 16 83 2a 00
        E 0 93 2a 6e
        E 16 83 2a 00
        E 0 93 2a 11
        E 16 83 2a 00
        E 0 93 2a 11
        E 16 83 2a 00
        E 16 93 2a 7f
        E 16 83 2a 00
        E 0 93 2a 6e
        E 16 83 2a 00
        E 16 93 2a 7f
        E 16 83 2a 00
        E 0 93 2a 6e
        E 16 83 2a 00
        E 0 93 2a 11
        E 16 83 2a 00
        E 0 93 2a 11
        E 16 83 2a 00
        E 16 93 2a 7f
        E 16 83 2a 00
        E 0 93 2a 6e
        E 16 83 2a 00
        E 16 93 2a 7f
        E 16 83 2a 00
        E 0 93 2a 6e
        E 16 83 2a 00
        E 0 93 2a 11
        E 16 83 2a 00
        E 0 93 2a 11
        E 16 83 2a 00
        E 16 93 2a 7f
        E 16 83 2a 00
        E 0 93 2a 6e
        E 16 83 2a 00
        E 16 93 2a 7f
        E 16 83 2a 00
        E 0 93 2a 6e
        E 16 83 2a 00
        E 0 93 2a 11
        E 16 83 2a 00
        E 0 93 2a 11
        E 16 83 2a 00
        E 16 93 2a 7f
        E 16 83 2a 00
        E 0 93 2a 6e
        E 16 83 2a 00
        E 16 93 2a 7f
        E 16 83 2a 00
        E 0 93 2a 6e
        E 16 83 2a 00
        E 0 93 2a 11
        E 16 83 2a 00
        E 0 93 2a 11
        E 16 83 2a 00
        E 16 93 2a 7f
        E 16 83 2a 00
        E 0 93 2a 6e
        E 16 83 2a 00
        E 16 93 2a 7f
        E 16 83 2a 00
        E 0 93 2a 6e
        E 16 83 2a 00
        E 0 93 2a 11
        E 16 83 2a 00
        E 0 93 2a 11
        E 16 83 2a 00
        E 16 93 2a 7f
        E 16 83 2a 00
        E 0 93 2a 6e
        E 16 83 2a 00
        E 16 93 2a 7f
        E 16 83 2a 00
        E 0 93 2a 6e
        E 16 83 2a 00
        E 0 93 2a 11
        E 16 83 2a 00
        E 0 93 2a 11
        E 16 83 2a 00
        E 16 93 2a 7f
        E 16 83 2a 00
        E 0 93 2a 6e
        E 16 83 2a 00
        E 16 93 2a 7f
        E 16 83 2a 00
        E 0 93 2a 6e
        E 16 83 2a 00
        E 0 93 2a 11
        E 16 83 2a 00
        E 0 93 2a 11
        E 16 83 2a 00
        E 16 93 2a 7f
        E 16 83 2a 00
        E 0 93 2a 6e
        E 16 83 2a 00
        E 0 93 2a 11
        E 16 83 2a 00
        E 0 93 2a 11
        E 16 83 2a 00
        E 16 93 2a 3b
        E 48 83 2a 00
        E 0 93 2a 11
        E 32 83 2a 00
        E 16 93 2a 7f
        E 16 83 2a 00
        E 0 93 2a 6e
        E 16 83 2a 00
        E 0 93 2a 11
        E 16 83 2a 00
        E 0 93 2a 11
        E 16 83 2a 00
        E 16 93 2a 7f
        E 16 83 2a 00
        E 0 93 2a 6e
        E 16 83 2a 00
        E 16 93 2a 7f
        E 16 83 2a 00
        E 0 93 2a 6e
        E 16 83 2a 00
        E 0 93 2a 11
        E 16 83 2a 00
        E 0 93 2a 11
        E 16 83 2a 00
        E 16 93 2a 7f
        E 16 83 2a 00
        E 0 93 2a 6e
        E 16 83 2a 00
        E 16 93 2a 7f
        E 16 83 2a 00
        E 0 93 2a 6e
        E 16 83 2a 00
        E 0 93 2a 11
        E 16 83 2a 00
        E 0 93 2a 11
        E 16 83 2a 00
        E 16 93 2a 7f
        E 16 83 2a 00
        E 0 93 2a 6e
        E 16 83 2a 00
        E 16 93 2a 7f
        E 16 83 2a 00
        E 0 93 2a 6e
        E 16 83 2a 00
        E 0 93 2a 11
        E 16 83 2a 00
        E 0 93 2a 11
        E 16 83 2a 00
        E 16 93 2a 7f
        E 16 83 2a 00
        E 0 93 2a 6e
        E 16 83 2a 00
        E 16 93 2a 7f
        E 16 83 2a 00
        E 0 93 2a 6e
        E 16 83 2a 00
        E 0 93 2a 11
        E 16 83 2a 00
        E 0 93 2a 11
        E 16 83 2a 00
        E 16 93 2a 7f
        E 16 83 2a 00
        E 0 93 2a 6e
        E 16 83 2a 00
        E 16 93 2a 7f
        E 16 83 2a 00
        E 0 93 2a 6e
        E 16 83 2a 00
        E 0 93 2a 11
        E 16 83 2a 00
        E 0 93 2a 11
        E 16 83 2a 00
        E 16 93 2a 7f
        E 16 83 2a 00
        E 0 93 2a 6e
        E 16 83 2a 00
        E 16 93 2a 7f
        E 16 83 2a 00
        E 0 93 2a 6e
        E 16 83 2a 00
        E 0 93 2a 11
        E 16 83 2a 00
        E 0 93 2a 11
        E 16 83 2a 00
        E 16 93 2a 7f
        E 16 83 2a 00
        E 0 93 2a 6e
        E 16 83 2a 00
        E 0 93 2a 11
        E 16 83 2a 00
        E 0 93 2a 11
        E 16 83 2a 00
        E 16 93 2a 3b
        E 48 83 2a 00
        E 0 93 2a 11
        E 32 83 2a 00
        E 16 93 2a 7f
        E 16 83 2a 00
        E 0 93 2a 6e
        E 16 83 2a 00
        E 0 93 2a 11
        E 16 83 2a 00
        E 0 93 2a 11
        E 16 83 2a 00
        E 16 93 2a 7f
        E 16 83 2a 00
        E 0 93 2a 6e
        E 16 83 2a 00
        E 16 93 2a 7f
        E 16 83 2a 00
        E 0 93 2a 6e
        E 16 83 2a 00
        E 0 93 2a 11
        E 16 83 2a 00
        E 0 93 2a 11
        E 16 83 2a 00
        E 16 93 2a 7f
        E 16 83 2a 00
        E 0 93 2a 6e
        E 16 83 2a 00
        E 16 93 2a 7f
        E 16 83 2a 00
        E 0 93 2a 6e
        E 16 83 2a 00
        E 0 93 2a 11
        E 16 83 2a 00
        E 0 93 2a 11
        E 16 83 2a 00
        E 16 93 2a 7f
        E 16 83 2a 00
        E 0 93 2a 6e
        E 16 83 2a 00
        E 16 93 2a 7f
        E 16 83 2a 00
        E 0 93 2a 6e
        E 16 83 2a 00
        E 0 93 2a 11
        E 16 83 2a 00
        E 0 93 2a 11
        E 16 83 2a 00
        E 16 93 2a 7f
        E 16 83 2a 00
        E 0 93 2a 6e
        E 16 83 2a 00
        E 16 93 2a 7f
        E 16 83 2a 00
        E 0 93 2a 6e
        E 16 83 2a 00
        E 0 93 2a 11
        E 16 83 2a 00
        E 0 93 2a 11
        E 16 83 2a 00
        E 16 93 2a 7f
        E 16 83 2a 00
        E 0 93 2a 6e
        E 16 83 2a 00
        E 16 93 2a 7f
        E 16 83 2a 00
        E 0 93 2a 6e
        E 16 83 2a 00
        E 0 93 2a 11
        E 16 83 2a 00
        E 0 93 2a 11
        E 16 83 2a 00
        E 16 93 2a 7f
        E 16 83 2a 00
        E 0 93 2a 6e
        E 16 83 2a 00
        E 0 93 2a 11
        E 16 83 2a 00
        E 0 93 2a 11
        E 16 83 2a 00
        E 16 93 2a 3b
        E 32 83 2a 00
        E 16 93 2a 3b
        E 624 83 2a 00
        E 16 93 2a 2a
        E 48 83 2a 00
        E 0 93 2a 22
        E 48 83 2a 00
        E 0 93 2a 19
        E 48 83 2a 00
        E 32 93 2a 2a
        E 64 83 2a 00
        E 0 93 2a 2a
        E 64 83 2a 00
        E 0 93 2a 2a
        E 16 83 2a 00
        E 16 93 2a 2a
        E 48 83 2a 00
        E 0 93 2a 22
        E 48 83 2a 00
        E 0 93 2a 19
        E 48 83 2a 00
        E 32 93 2a 2a
        E 64 83 2a 00
        E 0 93 2a 2a
        E 64 83 2a 00
        E 0 93 2a 2a
        E 64 83 2a 00
        E 0 93 2a 2a
        E 64 83 2a 00
        E 0 93 2a 2a
        E 64 83 2a 00
        E 0 93 2a 2a
        E 64 83 2a 00
        E 0 93 2a 33
        E 64 83 2a 00
        E 0 93 2a 33
        E 64 83 2a 00
        E 0 93 2a 33
        E 64 83 2a 00
        E 0 93 2a 33
        E 64 83 2a 00
        E 0 93 2a 3b
        E 64 83 2a 00
        E 0 93 2a 3b
        E 64 83 2a 00
        E 0 93 2a 3b
        E 64 83 2a 00
        E 0 93 2a 3b
        E 64 83 2a 00
        E 304 93 2a 7f
        E 16 83 2a 00
        E 0 93 2a 6e
        E 16 83 2a 00
        E 0 93 2a 11
        E 16 83 2a 00
        E 0 93 2a 11
        E 16 83 2a 00
        E 16 93 2a 7f
        E 16 83 2a 00
        E 0 93 2a 6e
        E 16 83 2a 00
        E 16 93 2a 7f
        E 16 83 2a 00
        E 0 93 2a 6e
        E 16 83 2a 00
        E 0 93 2a 11
        E 16 83 2a 00
        E 0 93 2a 11
        E 16 83 2a 00
        E 16 93 2a 7f
        E 16 83 2a 00
        E 0 93 2a 6e
        E 16 83 2a 00
        E 16 93 2a 7f
        E 16 83 2a 00
        E 0 93 2a 6e
        E 16 83 2a 00
        E 0 93 2a 11
        E 16 83 2a 00
        E 0 93 2a 11
        E 16 83 2a 00
        E 16 93 2a 7f
        E 16 83 2a 00
        E 0 93 2a 6e
        E 16 83 2a 00
        E 16 93 2a 7f
        E 16 83 2a 00
        E 0 93 2a 6e
        E 16 83 2a 00
        E 0 93 2a 11
        E 16 83 2a 00
        E 0 93 2a 11
        E 16 83 2a 00
        E 16 93 2a 7f
        E 16 83 2a 00
        E 0 93 2a 6e
        E 16 83 2a 00
        E 16 93 2a 7f
        E 16 83 2a 00
        E 0 93 2a 6e
        E 16 83 2a 00
        E 0 93 2a 11
        E 16 83 2a 00
        E 0 93 2a 11
        E 16 83 2a 00
        E 16 93 2a 7f
        E 16 83 2a 00
        E 0 93 2a 6e
        E 16 83 2a 00
        E 16 93 2a 7f
        E 16 83 2a 00
        E 0 93 2a 6e
        E 16 83 2a 00
        E 0 93 2a 11
        E 16 83 2a 00
        E 0 93 2a 11
        E 16 83 2a 00
        E 16 93 2a 7f
        E 16 83 2a 00
        E 0 93 2a 6e
        E 16 83 2a 00
        E 16 93 2a 7f
        E 16 83 2a 00
        E 0 93 2a 6e
        E 16 83 2a 00
        E 0 93 2a 11
        E 16 83 2a 00
        E 0 93 2a 11
        E 16 83 2a 00
        E 16 93 2a 7f
        E 16 83 2a 00
        E 0 93 2a 6e
        E 16 83 2a 00
        E 16 93 2a 7f
        E 16 83 2a 00
        E 0 93 2a 6e
        E 16 83 2a 00
        E 0 93 2a 11
        E 16 83 2a 00
        E 0 93 2a 11
        E 16 83 2a 00
        E 16 93 2a 7f
        E 16 83 2a 00
        E 0 93 2a 6e
        E 16 83 2a 00
        E 16 93 2a 7f
        E 16 83 2a 00
        E 0 93 2a 6e
        E 16 83 2a 00
        E 0 93 2a 11
        E 16 83 2a 00
        E 0 93 2a 11
        E 16 83 2a 00
        E 16 93 2a 7f
        E 16 83 2a 00
        E 0 93 2a 6e
        E 16 83 2a 00
        E 16 93 2a 7f
        E 16 83 2a 00
        E 0 93 2a 6e
        E 16 83 2a 00
        E 0 93 2a 11
        E 16 83 2a 00
        E 0 93 2a 11
        E 16 83 2a 00
        E 16 93 2a 7f
        E 16 83 2a 00
        E 0 93 2a 6e
        E 16 83 2a 00
        E 16 93 2a 7f
        E 16 83 2a 00
        E 0 93 2a 6e
        E 16 83 2a 00
        E 0 93 2a 11
        E 16 83 2a 00
        E 0 93 2a 11
        E 16 83 2a 00
        E 16 93 2a 7f
        E 16 83 2a 00
        E 0 93 2a 6e
        E 16 83 2a 00
        E 16 93 2a 7f
        E 16 83 2a 00
        E 0 93 2a 6e
        E 16 83 2a 00
        E 0 93 2a 11
        E 16 83 2a 00
        E 0 93 2a 11
        E 16 83 2a 00
        E 16 93 2a 7f
        E 16 83 2a 00
        E 0 93 2a 6e
        E 16 83 2a 00
        E 16 93 2a 7f
        E 16 83 2a 00
        E 0 93 2a 6e
        E 16 83 2a 00
        E 0 93 2a 11
        E 16 83 2a 00
        E 0 93 2a 11
        E 16 83 2a 00
        E 16 93 2a 7f
        E 16 83 2a 00
        E 0 93 2a 6e
        E 16 83 2a 00
        E 16 93 2a 7f
        E 16 83 2a 00
        E 0 93 2a 6e
        E 16 83 2a 00
        E 0 93 2a 11
        E 16 83 2a 00
        E 0 93 2a 11
        E 16 83 2a 00
        E 16 93 2a 7f
        E 16 83 2a 00
        E 0 93 2a 6e
        E 16 83 2a 00
        E 16 93 2a 7f
        E 16 83 2a 00
        E 0 93 2a 6e
        E 16 83 2a 00
        E 0 93 2a 11
        E 16 83 2a 00
        E 0 93 2a 11
        E 16 83 2a 00
        E 16 93 2a 7f
        E 16 83 2a 00
        E 0 93 2a 6e
        E 16 83 2a 00
        E 16 93 2a 7f
        E 16 83 2a 00
        E 0 93 2a 6e
        E 16 83 2a 00
        E 0 93 2a 11
        E 16 83 2a 00
        E 0 93 2a 11
        E 16 83 2a 00
        E 16 93 2a 7f
        E 16 83 2a 00
        E 0 93 2a 6e
        E 16 83 2a 00
        E 16 93 2a 7f
        E 16 83 2a 00
        E 0 93 2a 6e
        E 16 83 2a 00
        E 0 93 2a 11
        E 16 83 2a 00
        E 0 93 2a 11
        E 16 83 2a 00
        E 16 93 2a 7f
        E 16 83 2a 00
        E 0 93 2a 6e
        E 16 83 2a 00
        E 16 93 2a 7f
        E 16 83 2a 00
        E 0 93 2a 6e
        E 16 83 2a 00
        E 0 93 2a 11
        E 16 83 2a 00
        E 0 93 2a 11
        E 16 83 2a 00
        E 16 93 2a 7f
        E 16 83 2a 00
        E 0 93 2a 6e
        E 16 83 2a 00
        E 16 93 2a 7f
        E 16 83 2a 00
        E 0 93 2a 6e
        E 16 83 2a 00
        E 0 93 2a 11
        E 16 83 2a 00
        E 0 93 2a 11
        E 16 83 2a 00
        E 16 93 2a 7f
        E 16 83 2a 00
        E 0 93 2a 6e
        E 16 83 2a 00
        E 16 93 2a 7f
        E 16 83 2a 00
        E 0 93 2a 6e
        E 16 83 2a 00
        E 0 93 2a 11
        E 16 83 2a 00
        E 0 93 2a 11
        E 16 83 2a 00
        E 16 93 2a 7f
        E 16 83 2a 00
        E 0 93 2a 6e
        E 16 83 2a 00
        E 16 93 2a 7f
        E 16 83 2a 00
        E 0 93 2a 6e
        E 16 83 2a 00
        E 0 93 2a 11
        E 16 83 2a 00
        E 0 93 2a 11
        E 16 83 2a 00
        E 16 93 2a 7f
        E 16 83 2a 00
        E 0 93 2a 6e
        E 16 83 2a 00
        E 16 93 2a 7f
        E 16 83 2a 00
        E 0 93 2a 6e
        E 16 83 2a 00
        E 0 93 2a 11
        E 16 83 2a 00
        E 0 93 2a 11
        E 16 83 2a 00
        E 16 93 2a 7f
        E 16 83 2a 00
        E 0 93 2a 6e
        E 16 83 2a 00
        E 16 93 2a 7f
        E 16 83 2a 00
        E 0 93 2a 6e
        E 16 83 2a 00
        E 0 93 2a 11
        E 16 83 2a 00
        E 0 93 2a 11
        E 16 83 2a 00
        E 16 93 2a 7f
        E 16 83 2a 00
        E 0 93 2a 6e
        E 16 83 2a 00
        E 16 93 2a 7f
        E 16 83 2a 00
        E 0 93 2a 6e
        E 16 83 2a 00
        E 0 93 2a 11
        E 16 83 2a 00
        E 0 93 2a 11
        E 16 83 2a 00
        E 16 93 2a 7f
        E 16 83 2a 00
        E 0 93 2a 6e
        E 16 83 2a 00
        E 16 93 2a 7f
        E 16 83 2a 00
        E 0 93 2a 6e
        E 16 83 2a 00
        E 0 93 2a 11
        E 16 83 2a 00
        E 0 93 2a 11
        E 16 83 2a 00
        E 16 93 2a 7f
        E 16 83 2a 00
        E 0 93 2a 6e
        E 16 83 2a 00
        E 16 93 2a 7f
        E 16 83 2a 00
        E 0 93 2a 6e
        E 16 83 2a 00
        E 0 93 2a 11
        E 16 83 2a 00
        E 0 93 2a 11
        E 16 83 2a 00
        E 16 93 2a 7f
        E 16 83 2a 00
        E 0 93 2a 6e
        E 16 83 2a 00
        E 16 93 2a 7f
        E 16 83 2a 00
        E 0 93 2a 6e
        E 16 83 2a 00
        E 16 93 2a 3b
        E 800 83 2a 00
        E 48 93 2a 7f
        E 16 83 2a 00
        E 0 93 2a 6e
        E 16 83 2a 00
        E 0 93 2a 11
        E 16 83 2a 00
        E 0 93 2a 11
        E 16 83 2a 00
        E 16 93 2a 7f
        E 16 83 2a 00
        E 0 93 2a 6e
        E 16 83 2a 00
        E 16 93 2a 7f
        E 16 83 2a 00
        E 0 93 2a 6e
        E 16 83 2a 00
        E 0 93 2a 11
        E 16 83 2a 00
        E 0 93 2a 11
        E 16 83 2a 00
        E 16 93 2a 7f
        E 16 83 2a 00
        E 0 93 2a 6e
        E 16 83 2a 00
        E 16 93 2a 7f
        E 16 83 2a 00
        E 0 93 2a 6e
        E 16 83 2a 00
        E 0 93 2a 11
        E 16 83 2a 00
        E 0 93 2a 11
        E 16 83 2a 00
        E 16 93 2a 7f
        E 16 83 2a 00
        E 0 93 2a 6e
        E 16 83 2a 00
        E 16 93 2a 7f
        E 16 83 2a 00
        E 0 93 2a 6e
        E 16 83 2a 00
        E 0 93 2a 11
        E 16 83 2a 00
        E 0 93 2a 11
        E 16 83 2a 00
        E 16 93 2a 7f
        E 16 83 2a 00
        E 0 93 2a 6e
        E 16 83 2a 00
        E 16 93 2a 7f
        E 16 83 2a 00
        E 0 93 2a 6e
        E 16 83 2a 00
        E 0 93 2a 11
        E 16 83 2a 00
        E 0 93 2a 11
        E 16 83 2a 00
        E 16 93 2a 7f
        E 16 83 2a 00
        E 0 93 2a 6e
        E 16 83 2a 00
        E 16 93 2a 7f
        E 16 83 2a 00
        E 0 93 2a 6e
        E 16 83 2a 00
        E 0 93 2a 11
        E 16 83 2a 00
        E 0 93 2a 11
        E 16 83 2a 00
        E 4144 93 2a 33
        E 16 83 2a 00
        E 0 93 2a 08
        E 16 83 2a 00
        E 544 93 2a 33
        E 16 83 2a 00
        E 0 93 2a 08
        E 16 83 2a 00
        E 544 93 2a 33
        E 16 83 2a 00
        E 0 93 2a 08
        E 16 83 2a 00
        E 544 93 2a 33
        E 16 83 2a 00
        E 0 93 2a 08
        E 16 83 2a 00
        E 544 93 2a 7f
        E 16 83 2a 00
        E 0 93 2a 7f
        E 16 83 2a 00
        E 0 93 2a 7f
        E 16 83 2a 00
        E 0 93 2a 7f
        E 16 83 2a 00
        E 0 93 2a 7f
        E 16 83 2a 00
        E 0 93 2a 7f
        E 16 83 2a 00
        E 0 93 2a 7f
        E 16 83 2a 00
        E 0 93 2a 7f
        E 48 83 2a 00
        E 0 93 2a 7f
        E 32 83 2a 00
        E 0 93 2a 7f
        E 32 83 2a 00
        E 0 93 2a 7f
        E 112 83 2a 00
        E 0 93 2a 7f
        E 496 83 2a 00
        E 0 b3 7b 00
        E 0 ff 2f 00
      >
    >
  >
>