<REAPER_PROJECT 0.1 "7.27/win64" 1707000000
  <NOTES 0 2
    |ReapNES Studio Project
    |MIDI Import - Battletoads_trace_01_Title_Screen_v1
  >
  RIPPLE 0
  GROUPOVERRIDE 0 0 0
  AUTOXFADE 129
  ENVATTACH 3
  POOLEDENVATTACH 0
  MIXERUIFLAGS 11 48
  ENVFADESZ10 40
  PEAKGAIN 1
  FEEDBACK 0
  PANLAW 1
  PROJOFFS 0 0 0
  MAXPROJLEN 0 0
  GRID 3199 8 1 8 1 0 0 0
  TIMEMODE 1 5 -1 30 0 0 -1
  VIDEO_CONFIG 0 0 65792
  PANMODE 3
  PANLAWFLAGS 3
  CURSOR 0
  ZOOM 100 0 0
  VZOOMEX 6 0
  USE_REC_CFG 0
  RECMODE 1
  SMPTESYNC 0 30 100 40 1000 300 0 0 1 0 0
  LOOP 0
  LOOPGRAN 0 4
  RECORD_PATH "Media" ""
  <RECORD_CFG
    ZXZhdxgAAQ==
  >
  <APPLYFX_CFG
  >
  RENDER_FILE ""
  RENDER_PATTERN ""
  RENDER_FMT 0 2 0
  RENDER_1X 0
  RENDER_RANGE 1 0 0 18 1000
  RENDER_RESAMPLE 3 0 1
  RENDER_ADDTOPROJ 0
  RENDER_STEMS 0
  RENDER_DITHER 0
  TIMELOCKMODE 1
  TEMPOENVLOCKMODE 1
  ITEMMIX 1
  DEFPITCHMODE 589824 0
  TAKELANE 1
  SAMPLERATE 44100 0 0
  <RENDER_CFG
    ZXZhdxgAAQ==
  >
  LOCK 1
  <METRONOME 6 2
    VOL 0.25 0.125
    BEATLEN 4
    FREQ 1760 880 1
    SAMPLES "" ""
    SPLIGNORE 0 0
    SPLDEF 2 660 "" 0
    SPLDEF 3 440 "" 0
    PATTERN 0 169
    PATTERNSTR ABBB
    MULT 1
  >
  GLOBAL_AUTO -1
  TEMPO 128.59999614200012 4 4
  PLAYRATE 1 0 0.25 4
  SELECTION 0 0
  SELECTION2 0 0
  MASTERAUTOMODE 0
  MASTERTRACKHEIGHT 0 0
  MASTERPEAKCOL 16576
  MASTERMUTESOLO 0
  MASTERTRACKVIEW 0 0.6667 0.5 0.5 0 0 0 0 0 0 0 0 0 0
  MASTERHWOUT 0 0 1 0 0 0 0 -1
  MASTER_NCH 2 2
  MASTER_VOLUME 1 0 -1 -1 1
  MASTER_PANMODE 3
  MASTER_PANLAWFLAGS 3
  MASTER_FX 1
  MASTER_SEL 0
  <MASTERPLAYSPEEDENV
    EGUID {8D391742-4592-48E0-B4A9-6CF5AC715A8F}
    ACT 0 -1
    VIS 0 1 1
    LANEHEIGHT 0 0
    ARM 0
    DEFSHAPE 0 -1 -1
  >
  <TEMPOENVEX
    EGUID {83A6A6C9-B8FC-4866-AF1C-0FE2C5F8641B}
    ACT 1 -1
    VIS 1 0 1
    LANEHEIGHT 0 0
    ARM 0
    DEFSHAPE 1 -1 -1
  >
  <PROJBAY
  >
  <TRACK {595BCB0B-79CE-48A4-89A4-7DBA595D2F73}
    NAME "NES - Pulse 1 [ch0]"
    PEAKCOL 16576606
    BEAT -1
    AUTOMODE 0
    PANLAWFLAGS 3
    VOLPAN 1 0 -1 -1 1
    MUTESOLO 0 0 0
    IPHASE 0
    PLAYOFFS 0 1
    ISBUS 0 0
    BUSCOMP 0 0 0 0 0
    SHOWINMIX 1 0.6667 0.5 1 0.5 0 0 0
    FIXEDLANES 9 0 0 0 0
    SEL 1
    REC 0 5088 1 0 0 0 0 0
    VU 2
    TRACKHEIGHT 0 0 0 0 0 0 0
    INQ 0 0 0 0.5 100 0 0 100
    NCHAN 2
    FX 1
    TRACKID {595BCB0B-79CE-48A4-89A4-7DBA595D2F73}
    PERF 0
    MIDIOUT -1
    MAINSEND 1 0
    <FXCHAIN
      WNDRECT 24 52 700 560
      SHOW 0
      LASTSEL 0
      DOCKED 0
      BYPASS 0 0 0
      <JS "ReapNES Studio/ReapNES_Console.jsfx" ""
        2 15 1 10 80 10 100 2 1 15 1 5 60 10 80 1 1 0 50 0 0 15 1 0 100 0 0 0.500000 0.500000 0.400000 0.300000 0.800000 0 1 0 0 0 0 - - - - - - - - - - - - - - - - - - - - - - - - - -
      >
      FLOATPOS 0 0 0 0
      FXID {626338C5-7CF7-43DE-AF3C-145E935BBAC8}
      WAK 0 0
    >
    <ITEM
      POSITION 0
      LENGTH 79.73561670000001
      LOOP 0
      ALLTAKES 0
      FADEIN 0 0 0 0 0 0 0
      FADEOUT 0 0 0 0 0 0 0
      MUTE 0 0
      SEL 0
      IGUID {9CE59EDF-79FE-4416-81C9-2393EE52E43E}
      <SOURCE MIDI
        HASDATA 1 480 QN
        CCINTERP 32
        X 0 18 ff 03 0f 53 71 75 61 72 65 20 31 20 5b 6c 65 61 64 5d
        E 0 c0 50
        E 16 b0 0c 10
        E 0 b0 0b 20
        E 0 90 3d 20
        E 16 80 3d 00
        E 0 90 3e 20
        E 32 80 3e 00
        E 0 90 3f 20
        E 48 80 3f 00
        E 0 90 34 20
        E 192 b0 0b 18
        E 176 b0 0b 10
        E 0 80 34 00
        E 0 90 33 10
        E 560 80 33 00
        E 0 90 32 10
        E 624 80 32 00
        E 0 90 31 10
        E 688 80 31 00
        E 0 90 30 10
        E 688 80 30 00
        E 0 90 2f 10
        E 736 80 2f 00
        E 0 90 2e 10
        E 800 80 2e 00
        E 0 90 2d 10
        E 704 b0 0b 20
        E 0 80 2d 00
        E 0 90 26 20
        E 176 80 26 00
        E 0 90 28 20
        E 80 b0 0b 18
        E 96 b0 0b 20
        E 0 80 28 00
        E 0 90 43 20
        E 128 b0 0b 18
        E 48 b0 0c 20
        E 0 b0 0b 38
        E 0 80 43 00
        E 0 90 28 38
        E 64 b0 0b 30
        E 112 b0 0b 28
        E 112 80 28 00
        E 80 b0 0b 38
        E 0 90 2a 38
        E 48 b0 0b 30
        E 112 b0 0b 28
        E 112 b0 0b 20
        E 16 80 2a 00
        E 64 b0 0b 38
        E 0 90 2b 38
        E 32 b0 0b 30
        E 112 b0 0b 28
        E 112 b0 0b 20
        E 32 80 2b 00
        E 240 b0 0c 10
        E 0 b0 0b 30
        E 0 90 37 30
        E 80 b0 0b 28
        E 0 80 37 00
        E 0 90 38 28
        E 112 b0 0b 20
        E 48 80 38 00
        E 0 90 39 20
        E 64 b0 0b 18
        E 64 b0 0b 30
        E 48 b0 0b 28
        E 112 b0 0b 20
        E 16 b0 0b 30
        E 96 b0 0b 28
        E 80 b0 0b 30
        E 32 b0 0b 28
        E 112 b0 0b 20
        E 32 b0 0b 30
        E 80 b0 0b 28
        E 96 b0 0b 30
        E 0 80 39 00
        E 0 90 37 30
        E 32 b0 0b 28
        E 112 b0 0b 20
        E 112 b0 0b 18
        E 112 b0 0b 10
        E 112 b0 0b 08
        E 48 b0 0c 20
        E 0 b0 0b 38
        E 0 80 37 00
        E 0 90 2d 38
        E 64 b0 0b 30
        E 112 b0 0b 28
        E 112 b0 0b 20
        E 16 80 2d 00
        E 64 b0 0b 38
        E 0 90 2a 38
        E 32 b0 0b 30
        E 128 b0 0b 28
        E 112 b0 0b 20
        E 16 80 2a 00
        E 64 b0 0b 38
        E 0 90 2b 38
        E 32 b0 0b 30
        E 112 b0 0b 28
        E 112 b0 0b 20
        E 32 80 2b 00
        E 240 b0 0c 10
        E 0 b0 0b 30
        E 0 90 21 30
        E 16 b0 0b 28
        E 48 b0 0b 20
        E 64 b0 0b 18
        E 48 b0 0b 10
        E 64 b0 0b 08
        E 64 80 21 00
        E 64 b0 0b 30
        E 0 90 21 30
        E 48 b0 0b 28
        E 48 b0 0b 20
        E 64 b0 0b 18
        E 16 b0 0b 30
        E 0 80 21 00
        E 0 90 23 30
        E 32 b0 0b 28
        E 64 b0 0b 20
        E 48 b0 0b 18
        E 32 b0 0b 30
        E 32 b0 0b 28
        E 64 b0 0b 20
        E 48 b0 0b 18
        E 32 b0 0b 30
        E 0 80 23 00
        E 0 90 24 30
        E 32 b0 0b 28
        E 48 b0 0b 20
        E 64 b0 0b 18
        E 32 b0 0b 30
        E 0 80 24 00
        E 0 90 26 30
        E 16 b0 0b 28
        E 64 b0 0b 20
        E 48 b0 0b 18
        E 48 b0 0b 30
        E 0 80 26 00
        E 0 90 28 30
        E 16 b0 0b 28
        E 64 b0 0b 20
        E 48 b0 0b 18
        E 48 b0 0b 20
        E 0 80 28 00
        E 0 90 43 20
        E 176 b0 0b 18
        E 16 b0 0c 20
        E 0 b0 0b 38
        E 0 80 43 00
        E 0 90 28 38
        E 96 b0 0b 30
        E 128 b0 0b 28
        E 64 80 28 00
        E 64 b0 0b 38
        E 0 90 2a 38
        E 96 b0 0b 30
        E 112 b0 0b 28
        E 80 80 2a 00
        E 64 b0 0b 38
        E 0 90 2b 38
        E 80 b0 0b 30
        E 112 b0 0b 28
        E 96 80 2b 00
        E 240 b0 0c 10
        E 0 b0 0b 30
        E 0 90 37 30
        E 64 b0 0b 28
        E 0 80 37 00
        E 0 90 38 28
        E 112 b0 0b 20
        E 64 80 38 00
        E 0 90 39 20
        E 48 b0 0b 18
        E 80 b0 0b 30
        E 32 b0 0b 28
        E 128 b0 0b 20
        E 16 b0 0b 30
        E 96 b0 0b 28
        E 80 b0 0b 30
        E 32 b0 0b 28
        E 112 b0 0b 20
        E 32 b0 0b 30
        E 80 b0 0b 28
        E 96 b0 0b 30
        E 0 80 39 00
        E 0 90 37 30
        E 16 b0 0b 28
        E 128 b0 0b 20
        E 128 b0 0b 18
        E 112 b0 0b 10
        E 128 b0 0b 08
        E 64 b0 0c 20
        E 0 b0 0b 38
        E 0 80 37 00
        E 0 90 2d 38
        E 96 b0 0b 30
        E 32 b0 0c 60
        E 0 b0 0b 68
        E 0 80 2d 00
        E 0 90 32 68
        E 16 80 32 00
        E 0 90 2e 68
        E 16 80 2e 00
        E 0 90 2a 68
        E 16 80 2a 00
        E 0 90 23 68
        E 16 b0 0b 20
        E 0 80 23 00
        E 0 90 52 20
        E 16 80 52 00
        E 0 90 4b 20
        E 16 80 4b 00
        E 0 90 43 20
        E 16 80 43 00
        E 0 90 3f 20
        E 16 b0 0c 20
        E 0 b0 0b 28
        E 0 80 3f 00
        E 0 90 2d 28
        E 32 80 2d 00
        E 64 b0 0b 38
        E 0 90 2a 38
        E 96 b0 0b 30
        E 112 b0 0b 28
        E 80 b0 0c 60
        E 0 b0 0b 68
        E 0 80 2a 00
        E 0 90 32 68
        E 16 80 32 00
        E 0 90 2e 68
        E 16 80 2e 00
        E 0 90 2a 68
        E 16 80 2a 00
        E 0 90 23 68
        E 16 b0 0b 20
        E 0 80 23 00
        E 0 90 4f 20
        E 16 80 4f 00
        E 0 90 4b 20
        E 16 80 4b 00
        E 0 90 43 20
        E 16 80 43 00
        E 0 90 3f 20
        E 16 b0 0c 20
        E 0 b0 0b 38
        E 0 80 3f 00
        E 0 90 2b 38
        E 16 b0 0b 30
        E 112 b0 0b 28
        E 96 80 2b 00
        E 160 b0 0c 60
        E 0 b0 0b 68
        E 0 90 32 68
        E 16 80 32 00
        E 0 90 2e 68
        E 16 80 2e 00
        E 0 90 2a 68
        E 16 80 2a 00
        E 0 90 23 68
        E 16 b0 0b 20
        E 0 80 23 00
        E 0 90 52 20
        E 16 80 52 00
        E 0 90 4b 20
        E 16 80 4b 00
        E 0 90 43 20
        E 16 80 43 00
        E 0 90 3f 20
        E 16 b0 0c 10
        E 0 b0 0b 30
        E 0 80 3f 00
        E 0 90 21 30
        E 16 b0 0b 28
        E 48 b0 0b 20
        E 64 b0 0b 18
        E 64 b0 0b 10
        E 48 b0 0b 08
        E 64 80 21 00
        E 16 b0 0b 30
        E 0 90 21 30
        E 32 b0 0b 28
        E 64 b0 0b 20
        E 48 b0 0b 18
        E 32 b0 0b 30
        E 0 80 21 00
        E 0 90 23 30
        E 32 b0 0b 28
        E 48 b0 0b 20
        E 64 b0 0b 18
        E 32 b0 0b 30
        E 32 b0 0b 28
        E 48 b0 0b 20
        E 64 b0 0b 18
        E 32 b0 0b 30
        E 0 80 23 00
        E 0 90 24 30
        E 16 b0 0b 28
        E 64 b0 0b 20
        E 48 b0 0b 18
        E 48 b0 0b 30
        E 0 80 24 00
        E 0 90 26 30
        E 16 b0 0b 28
        E 48 b0 0b 20
        E 64 b0 0b 18
        E 48 b0 0b 30
        E 0 80 26 00
        E 0 90 28 30
        E 16 b0 0b 28
        E 48 b0 0b 20
        E 64 b0 0b 18
        E 48 b0 0b 10
        E 16 b0 0b 20
        E 0 80 28 00
        E 0 90 43 20
        E 176 b0 0b 30
        E 0 80 43 00
        E 0 90 2d 30
        E 96 b0 0b 28
        E 112 b0 0b 20
        E 80 80 2d 00
        E 64 b0 0b 30
        E 0 90 2d 30
        E 80 b0 0b 28
        E 112 b0 0b 20
        E 128 b0 0b 18
        E 32 80 2d 00
        E 192 b0 0b 30
        E 0 90 2d 30
        E 16 b0 0b 28
        E 112 b0 0b 20
        E 112 b0 0b 18
        E 112 b0 0b 10
        E 16 80 2d 00
        E 176 b0 0b 30
        E 0 90 2b 30
        E 32 b0 0b 28
        E 112 b0 0b 20
        E 128 b0 0b 18
        E 16 80 2b 00
        E 64 b0 0b 30
        E 0 90 2b 30
        E 32 b0 0b 28
        E 112 b0 0b 20
        E 112 b0 0b 18
        E 96 80 2b 00
        E 176 b0 0b 30
        E 0 90 2b 30
        E 64 b0 0b 28
        E 112 b0 0b 20
        E 112 b0 0b 18
        E 80 80 2b 00
        E 176 b0 0b 30
        E 0 90 2a 30
        E 96 b0 0b 28
        E 112 b0 0b 20
        E 80 80 2a 00
        E 64 b0 0b 30
        E 0 90 2a 30
        E 80 b0 0b 28
        E 112 b0 0b 20
        E 112 b0 0b 18
        E 48 80 2a 00
        E 176 b0 0b 30
        E 0 90 2a 30
        E 16 b0 0b 28
        E 112 b0 0b 20
        E 112 b0 0b 18
        E 112 b0 0b 10
        E 16 80 2a 00
        E 176 b0 0b 30
        E 0 90 2d 30
        E 32 b0 0b 28
        E 112 b0 0b 20
        E 112 b0 0b 18
        E 96 b0 0b 28
        E 0 80 2d 00
        E 0 90 3c 28
        E 16 b0 0b 20
        E 96 b0 0b 10
        E 0 80 3c 00
        E 0 90 2d 10
        E 64 b0 0b 28
        E 0 80 2d 00
        E 0 90 3b 28
        E 16 b0 0b 20
        E 96 b0 0b 10
        E 0 80 3b 00
        E 0 90 3c 10
        E 16 b0 0b 08
        E 48 b0 0b 28
        E 0 80 3c 00
        E 0 90 37 28
        E 64 b0 0b 20
        E 48 b0 0b 10
        E 0 80 37 00
        E 0 90 3b 10
        E 64 b0 0b 08
        E 16 b0 0b 28
        E 0 80 3b 00
        E 0 90 39 28
        E 96 b0 0b 10
        E 0 80 39 00
        E 0 90 37 10
        E 16 b0 0b 08
        E 64 b0 0b 28
        E 0 80 37 00
        E 0 90 34 28
        E 48 b0 0b 20
        E 64 b0 0b 10
        E 0 80 34 00
        E 0 90 39 10
        E 48 b0 0b 08
        E 16 b0 0b 28
        E 0 80 39 00
        E 0 90 37 28
        E 96 b0 0b 20
        E 16 b0 0b 10
        E 0 80 37 00
        E 0 90 34 10
        E 64 b0 0b 30
        E 0 80 34 00
        E 0 90 2d 30
        E 96 b0 0b 28
        E 112 b0 0b 20
        E 80 80 2d 00
        E 64 b0 0b 30
        E 0 90 2d 30
        E 80 b0 0b 28
        E 112 b0 0b 20
        E 112 b0 0b 18
        E 48 80 2d 00
        E 192 b0 0b 30
        E 0 90 2d 30
        E 96 b0 0b 28
        E 128 b0 0b 20
        E 112 b0 0b 18
        E 16 80 2d 00
        E 176 b0 0b 30
        E 0 90 2b 30
        E 32 b0 0b 28
        E 112 b0 0b 20
        E 112 b0 0b 18
        E 32 80 2b 00
        E 64 b0 0b 30
        E 0 90 2b 30
        E 16 b0 0b 28
        E 112 b0 0b 20
        E 112 b0 0b 18
        E 112 80 2b 00
        E 192 b0 0b 30
        E 0 90 2b 30
        E 48 b0 0b 28
        E 112 b0 0b 20
        E 112 b0 0b 18
        E 80 80 2b 00
        E 176 b0 0b 30
        E 0 90 2a 30
        E 80 b0 0b 28
        E 112 b0 0b 20
        E 96 80 2a 00
        E 64 b0 0b 30
        E 0 90 2a 30
        E 80 b0 0b 28
        E 112 b0 0b 20
        E 112 b0 0b 18
        E 64 80 2a 00
        E 176 b0 0b 30
        E 0 90 2a 30
        E 96 b0 0b 28
        E 112 b0 0b 20
        E 128 b0 0b 18
        E 32 80 2a 00
        E 176 b0 0b 30
        E 0 90 2d 30
        E 32 b0 0b 28
        E 112 b0 0b 20
        E 112 b0 0b 18
        E 32 80 2d 00
        E 64 b0 0b 30
        E 0 90 2d 30
        E 16 b0 0b 28
        E 112 b0 0b 20
        E 112 b0 0b 18
        E 112 b0 0b 10
        E 16 80 2d 00
        E 176 b0 0b 30
        E 0 90 2f 30
        E 48 b0 0b 28
        E 112 b0 0b 20
        E 112 b0 0b 18
        E 80 b0 0b 20
        E 0 80 2f 00
        E 0 90 37 20
        E 208 b0 0b 18
        E 160 b0 0b 10
        E 64 80 37 00
        E 0 90 36 10
        E 512 80 36 00
        E 0 90 35 10
        E 272 b0 0c 40
        E 0 b0 0b 58
        E 0 80 35 00
        E 0 90 2a 58
        E 32 80 2a 00
        E 0 90 2b 58
        E 48 80 2b 00
        E 0 90 2c 58
        E 32 80 2c 00
        E 0 90 2d 58
        E 16 80 2d 00
        E 0 90 2e 58
        E 48 80 2e 00
        E 0 90 2f 58
        E 32 80 2f 00
        E 0 90 30 58
        E 48 b0 0b 40
        E 0 80 30 00
        E 0 90 31 40
        E 48 80 31 00
        E 0 90 32 40
        E 32 80 32 00
        E 0 90 33 40
        E 48 80 33 00
        E 0 90 34 40
        E 32 80 34 00
        E 0 90 35 40
        E 32 80 35 00
        E 0 90 36 40
        E 32 80 36 00
        E 0 90 37 40
        E 32 80 37 00
        E 0 90 2e 40
        E 48 80 2e 00
        E 0 90 2f 40
        E 32 80 2f 00
        E 0 90 30 40
        E 16 80 30 00
        E 0 90 31 40
        E 48 80 31 00
        E 0 90 32 40
        E 32 80 32 00
        E 0 90 33 40
        E 48 80 33 00
        E 0 90 34 40
        E 32 b0 0c 10
        E 0 b0 0b 10
        E 32 b0 0c 40
        E 0 b0 0b 58
        E 0 80 34 00
        E 0 90 2a 58
        E 16 80 2a 00
        E 0 90 2b 58
        E 48 80 2b 00
        E 0 90 2c 58
        E 32 80 2c 00
        E 0 90 2d 58
        E 32 80 2d 00
        E 0 90 2e 58
        E 32 80 2e 00
        E 0 90 2f 58
        E 48 80 2f 00
        E 0 90 30 58
        E 32 80 30 00
        E 0 90 31 58
        E 16 b0 0b 40
        E 32 80 31 00
        E 0 90 32 40
        E 32 80 32 00
        E 0 90 33 40
        E 48 80 33 00
        E 0 90 34 40
        E 32 80 34 00
        E 0 90 35 40
        E 16 80 35 00
        E 0 90 36 40
        E 48 80 36 00
        E 0 90 37 40
        E 32 80 37 00
        E 0 90 38 40
        E 16 80 38 00
        E 0 90 2e 40
        E 48 80 2e 00
        E 0 90 2f 40
        E 32 80 2f 00
        E 0 90 30 40
        E 16 80 30 00
        E 0 90 31 40
        E 48 80 31 00
        E 0 90 32 40
        E 32 80 32 00
        E 0 90 33 40
        E 48 80 33 00
        E 0 90 34 40
        E 32 b0 0c 10
        E 0 b0 0b 10
        E 0 80 34 00
        E 0 90 32 10
        E 32 b0 0c 40
        E 0 b0 0b 58
        E 0 80 32 00
        E 0 90 2a 58
        E 16 80 2a 00
        E 0 90 2b 58
        E 48 80 2b 00
        E 0 90 2c 58
        E 48 80 2c 00
        E 0 90 2d 58
        E 16 80 2d 00
        E 0 90 2e 58
        E 32 80 2e 00
        E 0 90 2f 58
        E 48 80 2f 00
        E 0 90 30 58
        E 32 80 30 00
        E 0 90 31 58
        E 16 b0 0b 40
        E 32 80 31 00
        E 0 90 32 40
        E 32 80 32 00
        E 0 90 33 40
        E 48 80 33 00
        E 0 90 34 40
        E 32 80 34 00
        E 0 90 35 40
        E 32 80 35 00
        E 0 90 36 40
        E 32 80 36 00
        E 0 90 37 40
        E 48 80 37 00
        E 0 90 2e 40
        E 48 80 2e 00
        E 0 90 2f 40
        E 32 80 2f 00
        E 0 90 30 40
        E 32 80 30 00
        E 0 90 31 40
        E 32 80 31 00
        E 0 90 32 40
        E 48 80 32 00
        E 0 90 33 40
        E 32 80 33 00
        E 0 90 34 40
        E 32 b0 0c 20
        E 0 b0 0b 28
        E 0 80 34 00
        E 0 90 2a 28
        E 32 b0 0c 40
        E 0 b0 0b 58
        E 32 80 2a 00
        E 0 90 2b 58
        E 32 80 2b 00
        E 0 90 2c 58
        E 48 80 2c 00
        E 0 90 2d 58
        E 16 80 2d 00
        E 0 90 2e 58
        E 32 80 2e 00
        E 0 90 2f 58
        E 48 80 2f 00
        E 0 90 30 58
        E 32 80 30 00
        E 0 90 31 58
        E 16 b0 0b 40
        E 32 80 31 00
        E 0 90 32 40
        E 32 80 32 00
        E 0 90 33 40
        E 48 80 33 00
        E 0 90 34 40
        E 32 80 34 00
        E 0 90 35 40
        E 32 80 35 00
        E 0 90 36 40
        E 32 80 36 00
        E 0 90 37 40
        E 48 80 37 00
        E 0 90 2e 40
        E 48 80 2e 00
        E 0 90 2f 40
        E 32 80 2f 00
        E 0 90 30 40
        E 32 80 30 00
        E 0 90 31 40
        E 32 80 31 00
        E 0 90 32 40
        E 16 b0 0b 78
        E 0 80 32 00
        E 0 90 2b 78
        E 16 80 2b 00
        E 0 90 29 78
        E 16 80 29 00
        E 0 90 25 78
        E 16 80 25 00
        E 0 90 21 78
        E 16 80 21 00
        E 0 90 1f 78
        E 16 80 1f 00
        E 0 90 1b 78
        E 16 80 1b 00
        E 0 90 19 78
        E 16 80 19 00
        E 0 90 16 78
        E 64 b0 0b 60
        E 0 80 16 00
        E 0 90 2d 60
        E 16 80 2d 00
        E 0 90 29 60
        E 16 80 29 00
        E 0 90 25 60
        E 16 80 25 00
        E 0 90 23 60
        E 16 80 23 00
        E 0 90 1f 60
        E 16 80 1f 00
        E 0 90 1d 60
        E 16 80 1d 00
        E 0 90 19 60
        E 16 80 19 00
        E 0 90 17 60
        E 64 b0 0b 40
        E 0 80 17 00
        E 0 90 2d 40
        E 16 80 2d 00
        E 0 90 29 40
        E 16 80 29 00
        E 0 90 27 40
        E 16 80 27 00
        E 0 90 23 40
        E 16 80 23 00
        E 0 90 21 40
        E 16 80 21 00
        E 0 90 1d 40
        E 16 80 1d 00
        E 0 90 19 40
        E 16 80 19 00
        E 0 90 16 40
        E 64 b0 0b 20
        E 0 80 16 00
        E 0 90 2b 20
        E 16 80 2b 00
        E 0 90 29 20
        E 16 80 29 00
        E 0 90 25 20
        E 16 80 25 00
        E 0 90 23 20
        E 16 80 23 00
        E 0 90 1f 20
        E 16 80 1f 00
        E 0 90 1b 20
        E 16 80 1b 00
        E 0 90 19 20
        E 16 80 19 00
        E 0 90 17 20
        E 64 b0 0c 10
        E 0 80 17 00
        E 0 90 39 20
        E 16 b0 0b 30
        E 48 b0 0b 28
        E 112 b0 0b 20
        E 16 b0 0b 30
        E 96 b0 0b 28
        E 80 b0 0b 30
        E 0 80 39 00
        E 0 90 37 30
        E 32 b0 0b 28
        E 112 b0 0b 20
        E 112 b0 0b 18
        E 112 b0 0b 10
        E 128 b0 0b 08
        E 32 b0 0c 20
        E 0 b0 0b 38
        E 0 80 37 00
        E 0 90 2d 38
        E 80 b0 0b 30
        E 112 b0 0b 28
        E 96 80 2d 00
        E 80 b0 0b 38
        E 0 90 2a 38
        E 48 b0 0b 30
        E 112 b0 0b 28
        E 112 b0 0b 20
        E 16 80 2a 00
        E 64 b0 0b 38
        E 0 90 2b 38
        E 32 b0 0b 30
        E 112 b0 0b 28
        E 128 b0 0b 20
        E 16 80 2b 00
        E 240 b0 0c 10
        E 0 b0 0b 30
        E 0 90 21 30
        E 16 b0 0b 28
        E 64 b0 0b 20
        E 48 b0 0b 18
        E 64 b0 0b 10
        E 64 b0 0b 08
        E 64 80 21 00
        E 48 b0 0b 30
        E 0 90 21 30
        E 16 b0 0b 28
        E 48 b0 0b 20
        E 64 b0 0b 18
        E 48 b0 0b 10
        E 16 b0 0b 30
        E 0 80 21 00
        E 0 90 23 30
        E 48 b0 0b 28
        E 48 b0 0b 20
        E 64 b0 0b 18
        E 16 b0 0b 30
        E 48 b0 0b 28
        E 48 b0 0b 20
        E 64 b0 0b 18
        E 16 b0 0b 30
        E 0 80 23 00
        E 0 90 24 30
        E 32 b0 0b 28
        E 64 b0 0b 20
        E 48 b0 0b 18
        E 32 b0 0b 30
        E 0 80 24 00
        E 0 90 26 30
        E 32 b0 0b 28
        E 48 b0 0b 20
        E 64 b0 0b 18
        E 32 b0 0b 30
        E 0 80 26 00
        E 0 90 28 30
        E 32 b0 0b 28
        E 48 b0 0b 20
        E 64 b0 0b 18
        E 32 b0 0b 20
        E 0 80 28 00
        E 0 90 43 20
        E 176 b0 0c 20
        E 0 b0 0b 38
        E 0 80 43 00
        E 0 90 28 38
        E 64 b0 0b 30
        E 128 b0 0b 28
        E 96 80 28 00
        E 80 b0 0b 38
        E 0 90 2a 38
        E 48 b0 0b 30
        E 112 b0 0b 28
        E 112 b0 0b 20
        E 16 80 2a 00
        E 64 b0 0b 38
        E 0 90 2b 38
        E 32 b0 0b 30
        E 112 b0 0b 28
        E 112 b0 0b 20
        E 32 80 2b 00
        E 240 b0 0c 10
        E 0 b0 0b 30
        E 0 90 37 30
        E 80 b0 0b 28
        E 0 80 37 00
        E 0 90 38 28
        E 112 b0 0b 20
        E 48 80 38 00
        E 0 90 39 20
        E 64 b0 0b 18
        E 64 b0 0b 30
        E 48 b0 0b 28
        E 112 b0 0b 20
        E 16 b0 0b 30
        E 96 b0 0b 28
        E 80 b0 0b 30
        E 32 b0 0b 28
        E 112 b0 0b 20
        E 32 b0 0b 30
        E 96 b0 0b 28
        E 80 b0 0b 30
        E 0 80 39 00
        E 0 90 37 30
        E 32 b0 0b 28
        E 112 b0 0b 20
        E 112 b0 0b 18
        E 112 b0 0b 10
        E 112 b0 0b 08
        E 48 b0 0c 20
        E 0 b0 0b 38
        E 0 80 37 00
        E 0 90 2d 38
        E 64 b0 0b 30
        E 112 b0 0b 28
        E 112 b0 0b 20
        E 16 80 2d 00
        E 64 b0 0b 38
        E 0 90 2a 38
        E 48 b0 0b 30
        E 112 b0 0b 28
        E 112 b0 0b 20
        E 16 80 2a 00
        E 64 b0 0b 38
        E 0 90 2b 38
        E 32 b0 0b 30
        E 112 b0 0b 28
        E 112 b0 0b 20
        E 32 80 2b 00
        E 240 b0 0c 10
        E 0 b0 0b 30
        E 0 90 21 30
        E 16 b0 0b 28
        E 48 b0 0b 20
        E 64 b0 0b 18
        E 64 b0 0b 10
        E 48 b0 0b 08
        E 64 80 21 00
        E 64 b0 0b 30
        E 0 90 21 30
        E 48 b0 0b 28
        E 48 b0 0b 20
        E 64 b0 0b 18
        E 16 b0 0b 30
        E 0 80 21 00
        E 0 90 23 30
        E 32 b0 0b 28
        E 64 b0 0b 20
        E 64 b0 0b 18
        E 16 b0 0b 30
        E 32 b0 0b 28
        E 64 b0 0b 20
        E 48 b0 0b 18
        E 32 b0 0b 30
        E 0 80 23 00
        E 0 90 24 30
        E 32 b0 0b 28
        E 48 b0 0b 20
        E 64 b0 0b 18
        E 32 b0 0b 30
        E 0 80 24 00
        E 0 90 26 30
        E 16 b0 0b 28
        E 64 b0 0b 20
        E 64 b0 0b 18
        E 32 b0 0b 30
        E 0 80 26 00
        E 0 90 28 30
        E 16 b0 0b 28
        E 64 b0 0b 20
        E 48 b0 0b 18
        E 48 b0 0b 20
        E 0 80 28 00
        E 0 90 43 20
        E 176 b0 0b 18
        E 16 b0 0b 30
        E 0 80 43 00
        E 0 90 2d 30
        E 112 b0 0b 28
        E 112 b0 0b 20
        E 64 80 2d 00
        E 64 b0 0b 30
        E 0 90 2d 30
        E 96 b0 0b 28
        E 112 b0 0b 20
        E 112 b0 0b 18
        E 32 80 2d 00
        E 176 b0 0b 30
        E 0 90 2d 30
        E 16 b0 0b 28
        E 112 b0 0b 20
        E 128 b0 0b 18
        E 96 80 2d 00
        E 192 b0 0b 30
        E 0 90 2b 30
        E 48 b0 0b 28
        E 112 b0 0b 20
        E 112 b0 0b 18
        E 16 80 2b 00
        E 64 b0 0b 30
        E 0 90 2b 30
        E 32 b0 0b 28
        E 112 b0 0b 20
        E 112 b0 0b 18
        E 96 80 2b 00
        E 176 b0 0b 30
        E 0 90 2b 30
        E 80 b0 0b 28
        E 112 b0 0b 20
        E 112 b0 0b 18
        E 48 80 2b 00
        E 192 b0 0b 30
        E 0 90 2a 30
        E 96 b0 0b 28
        E 112 b0 0b 20
        E 80 80 2a 00
        E 64 b0 0b 30
        E 0 90 2a 30
        E 96 b0 0b 28
        E 112 b0 0b 20
        E 112 b0 0b 18
        E 32 80 2a 00
        E 176 b0 0b 30
        E 0 90 2a 30
        E 16 b0 0b 28
        E 112 b0 0b 20
        E 112 b0 0b 18
        E 112 b0 0b 10
        E 16 80 2a 00
        E 176 b0 0b 30
        E 0 90 2d 30
        E 48 b0 0b 28
        E 112 b0 0b 20
        E 112 b0 0b 18
        E 80 b0 0b 28
        E 0 80 2d 00
        E 0 90 3c 28
        E 32 b0 0b 20
        E 80 b0 0b 10
        E 0 80 3c 00
        E 0 90 2d 10
        E 64 b0 0b 28
        E 0 80 2d 00
        E 0 90 3b 28
        E 32 b0 0b 20
        E 80 b0 0b 10
        E 0 80 3b 00
        E 0 90 3c 10
        E 32 b0 0b 08
        E 32 b0 0b 28
        E 0 80 3c 00
        E 0 90 37 28
        E 80 b0 0b 20
        E 32 b0 0b 10
        E 0 80 37 00
        E 0 90 3b 10
        E 64 b0 0b 28
        E 0 80 3b 00
        E 0 90 39 28
        E 16 b0 0b 20
        E 96 b0 0b 10
        E 0 80 39 00
        E 0 90 37 10
        E 16 b0 0b 08
        E 48 b0 0b 28
        E 0 80 37 00
        E 0 90 34 28
        E 64 b0 0b 20
        E 48 b0 0b 10
        E 0 80 34 00
        E 0 90 39 10
        E 64 b0 0b 08
        E 16 b0 0b 28
        E 0 80 39 00
        E 0 90 37 28
        E 96 b0 0b 20
        E 16 b0 0b 10
        E 0 80 37 00
        E 0 90 34 10
        E 64 b0 0b 30
        E 0 80 34 00
        E 0 90 2d 30
        E 96 b0 0b 28
        E 112 b0 0b 20
        E 80 80 2d 00
        E 64 b0 0b 30
        E 0 90 2d 30
        E 80 b0 0b 28
        E 128 b0 0b 20
        E 112 b0 0b 18
        E 32 80 2d 00
        E 176 b0 0b 30
        E 0 90 2d 30
        E 16 b0 0b 28
        E 112 b0 0b 20
        E 112 b0 0b 18
        E 112 b0 0b 10
        E 16 80 2d 00
        E 176 b0 0b 30
        E 0 90 2b 30
        E 32 b0 0b 28
        E 128 b0 0b 20
        E 112 b0 0b 18
        E 16 80 2b 00
        E 64 b0 0b 30
        E 0 90 2b 30
        E 32 b0 0b 28
        E 112 b0 0b 20
        E 112 b0 0b 18
        E 96 80 2b 00
        E 176 b0 0b 30
        E 0 90 2b 30
        E 64 b0 0b 28
        E 112 b0 0b 20
        E 128 b0 0b 18
        E 64 80 2b 00
        E 176 b0 0b 30
        E 0 90 2a 30
        E 96 b0 0b 28
        E 112 b0 0b 20
        E 80 80 2a 00
        E 64 b0 0b 30
        E 0 90 2a 30
        E 80 b0 0b 28
        E 112 b0 0b 20
        E 112 b0 0b 18
        E 48 80 2a 00
        E 176 b0 0b 30
        E 0 90 2a 30
        E 16 b0 0b 28
        E 112 b0 0b 20
        E 112 b0 0b 18
        E 112 b0 0b 10
        E 16 80 2a 00
        E 176 b0 0b 30
        E 0 90 2d 30
        E 32 b0 0b 28
        E 112 b0 0b 20
        E 112 b0 0b 18
        E 128 b0 0b 10
        E 112 b0 0b 08
        E 112 80 2d 00
        E 96 b0 0b 30
        E 0 90 2d 30
        E 64 b0 0b 28
        E 128 b0 0b 20
        E 32 b0 0b 30
        E 80 b0 0b 28
        E 112 b0 0b 20
        E 64 b0 0b 30
        E 0 80 2d 00
        E 0 90 2e 30
        E 48 b0 0b 28
        E 112 b0 0b 20
        E 80 b0 0b 30
        E 0 80 2e 00
        E 0 90 2f 30
        E 96 b0 0b 28
        E 112 b0 0b 20
        E 80 80 2f 00
        E 64 b0 0b 30
        E 0 90 2f 30
        E 80 b0 0b 28
        E 112 b0 0b 20
        E 112 b0 0b 18
        E 48 80 2f 00
        E 192 b0 0b 30
        E 0 90 2f 30
        E 112 b0 0b 28
        E 112 b0 0b 20
        E 112 b0 0b 18
        E 16 80 2f 00
        E 176 b0 0b 30
        E 0 90 2d 30
        E 32 b0 0b 28
        E 112 b0 0b 20
        E 112 b0 0b 18
        E 32 80 2d 00
        E 64 b0 0b 30
        E 0 90 2d 30
        E 16 b0 0b 28
        E 112 b0 0b 20
        E 128 b0 0b 18
        E 96 80 2d 00
        E 192 b0 0b 30
        E 0 90 2d 30
        E 48 b0 0b 28
        E 112 b0 0b 20
        E 112 b0 0b 18
        E 80 80 2d 00
        E 176 b0 0b 30
        E 0 90 2c 30
        E 80 b0 0b 28
        E 128 b0 0b 20
        E 80 80 2c 00
        E 64 b0 0b 30
        E 0 90 2c 30
        E 80 b0 0b 28
        E 112 b0 0b 20
        E 112 b0 0b 18
        E 48 80 2c 00
        E 192 b0 0b 30
        E 0 90 2c 30
        E 96 b0 0b 28
        E 112 b0 0b 20
        E 128 b0 0b 18
        E 16 80 2c 00
        E 176 b0 0b 30
        E 0 90 2f 30
        E 32 b0 0b 28
        E 112 b0 0b 20
        E 112 b0 0b 18
        E 96 b0 0b 28
        E 0 80 2f 00
        E 0 90 3e 28
        E 16 b0 0b 20
        E 32 b0 0b 10
        E 0 80 3e 00
        E 0 90 2f 10
        E 48 b0 0b 28
        E 0 80 2f 00
        E 0 90 3d 28
        E 48 b0 0b 10
        E 0 80 3d 00
        E 0 90 3e 10
        E 32 b0 0b 28
        E 0 80 3e 00
        E 0 90 39 28
        E 16 b0 0b 20
        E 32 b0 0b 10
        E 0 80 39 00
        E 0 90 3d 10
        E 48 b0 0b 28
        E 0 80 3d 00
        E 0 90 3b 28
        E 32 b0 0b 20
        E 16 b0 0b 10
        E 0 80 3b 00
        E 0 90 39 10
        E 48 b0 0b 28
        E 0 80 39 00
        E 0 90 36 28
        E 32 b0 0b 10
        E 0 80 36 00
        E 0 90 3b 10
        E 16 b0 0b 08
        E 32 b0 0b 28
        E 0 80 3b 00
        E 0 90 39 28
        E 48 b0 0b 10
        E 0 80 39 00
        E 0 90 36 10
        E 32 b0 0b 08
        E 16 b0 0b 28
        E 0 80 36 00
        E 0 90 3e 28
        E 32 b0 0b 10
        E 0 80 3e 00
        E 0 90 39 10
        E 48 b0 0b 28
        E 0 80 39 00
        E 0 90 3d 28
        E 16 b0 0b 20
        E 32 b0 0b 10
        E 0 80 3d 00
        E 0 90 3e 10
        E 48 b0 0b 28
        E 0 80 3e 00
        E 0 90 39 28
        E 32 b0 0b 20
        E 16 b0 0b 10
        E 0 80 39 00
        E 0 90 3d 10
        E 32 b0 0b 28
        E 0 80 3d 00
        E 0 90 3b 28
        E 48 b0 0b 10
        E 0 80 3b 00
        E 0 90 39 10
        E 16 b0 0b 08
        E 32 b0 0b 28
        E 0 80 39 00
        E 0 90 36 28
        E 48 b0 0b 10
        E 0 80 36 00
        E 0 90 3b 10
        E 32 b0 0b 28
        E 0 80 3b 00
        E 0 90 39 28
        E 16 b0 0b 20
        E 32 b0 0b 10
        E 0 80 39 00
        E 0 90 36 10
        E 48 b0 0b 30
        E 0 80 36 00
        E 0 90 2f 30
        E 80 b0 0b 28
        E 112 b0 0b 20
        E 96 80 2f 00
        E 64 b0 0b 30
        E 0 90 2f 30
        E 80 b0 0b 28
        E 112 b0 0b 20
        E 112 b0 0b 18
        E 64 80 2f 00
        E 176 b0 0b 30
        E 0 90 2f 30
        E 96 b0 0b 28
        E 112 b0 0b 20
        E 112 b0 0b 18
        E 32 80 2f 00
        E 176 b0 0b 30
        E 0 90 2d 30
        E 32 b0 0b 28
        E 112 b0 0b 20
        E 112 b0 0b 18
        E 32 80 2d 00
        E 64 b0 0b 30
        E 0 90 2d 30
        E 16 b0 0b 28
        E 112 b0 0b 20
        E 112 b0 0b 18
        E 112 b0 0b 10
        E 16 80 2d 00
        E 176 b0 0b 30
        E 0 90 2d 30
        E 32 b0 0b 28
        E 128 b0 0b 20
        E 112 b0 0b 18
        E 80 80 2d 00
        E 176 b0 0b 30
        E 0 90 2c 30
        E 80 b0 0b 28
        E 112 b0 0b 20
        E 96 80 2c 00
        E 80 b0 0b 30
        E 0 90 2c 30
        E 64 b0 0b 28
        E 112 b0 0b 20
        E 128 b0 0b 18
        E 64 80 2c 00
        E 176 b0 0b 30
        E 0 90 2c 30
        E 96 b0 0b 28
        E 112 b0 0b 20
        E 112 b0 0b 18
        E 32 80 2c 00
        E 176 b0 0b 30
        E 0 90 2f 30
        E 16 b0 0b 28
        E 112 b0 0b 20
        E 128 b0 0b 18
        E 32 80 2f 00
        E 64 b0 0b 30
        E 0 90 2f 30
        E 16 b0 0b 28
        E 112 b0 0b 20
        E 112 b0 0b 18
        E 112 b0 0b 10
        E 16 80 2f 00
        E 176 b0 0b 30
        E 0 90 31 30
        E 32 b0 0b 28
        E 112 b0 0b 20
        E 112 b0 0b 18
        E 96 b0 0b 20
        E 0 80 31 00
        E 0 90 39 20
        E 192 b0 0b 18
        E 176 b0 0b 10
        E 0 80 39 00
        E 0 90 38 10
        E 448 80 38 00
        E 0 90 37 10
        E 464 80 37 00
        E 0 90 36 10
        E 512 80 36 00
        E 0 90 35 10
        E 512 80 35 00
        E 0 90 34 10
        E 560 80 34 00
        E 0 90 33 10
        E 624 80 33 00
        E 0 90 32 10
        E 640 80 32 00
        E 0 90 31 10
        E 640 80 31 00
        E 0 90 30 10
        E 736 80 30 00
        E 0 90 2f 10
        E 32 80 2f 00
        E 0 ff 2f 00
      >
    >
  >
  <TRACK {45E45D83-F26F-4F40-9546-0FF316FE5762}
    NAME "NES - Pulse 2 [ch1]"
    PEAKCOL 10092441
    BEAT -1
    AUTOMODE 0
    PANLAWFLAGS 3
    VOLPAN 1 0 -1 -1 1
    MUTESOLO 0 0 0
    IPHASE 0
    PLAYOFFS 0 1
    ISBUS 0 0
    BUSCOMP 0 0 0 0 0
    SHOWINMIX 1 0.6667 0.5 1 0.5 0 0 0
    FIXEDLANES 9 0 0 0 0
    SEL 0
    REC 0 5088 1 0 0 0 0 0
    VU 2
    TRACKHEIGHT 0 0 0 0 0 0 0
    INQ 0 0 0 0.5 100 0 0 100
    NCHAN 2
    FX 1
    TRACKID {45E45D83-F26F-4F40-9546-0FF316FE5762}
    PERF 0
    MIDIOUT -1
    MAINSEND 1 0
    <FXCHAIN
      WNDRECT 24 52 700 560
      SHOW 0
      LASTSEL 0
      DOCKED 0
      BYPASS 0 0 0
      <JS "ReapNES Studio/ReapNES_Console.jsfx" ""
        2 15 1 10 80 10 100 2 1 15 1 5 60 10 80 1 1 0 50 0 0 15 1 0 100 0 0 0.500000 0.500000 0.400000 0.300000 0.800000 1 1 0 0 0 0 - - - - - - - - - - - - - - - - - - - - - - - - - -
      >
      FLOATPOS 0 0 0 0
      FXID {8617A8D6-E60E-48BF-8127-98F37E5110F6}
      WAK 0 0
    >
    <ITEM
      POSITION 0
      LENGTH 79.73561670000001
      LOOP 0
      ALLTAKES 0
      FADEIN 0 0 0 0 0 0 0
      FADEOUT 0 0 0 0 0 0 0
      MUTE 0 0
      SEL 0
      IGUID {3C924345-9F8F-4C80-8B77-04D6FEFA15DC}
      <SOURCE MIDI
        HASDATA 1 480 QN
        CCINTERP 32
        X 0 21 ff 03 12 53 71 75 61 72 65 20 32 20 5b 68 61 72 6d 6f 6e 79 5d
        E 0 c1 51
        E 16 b1 0c 10
        E 0 b1 0b 20
        E 0 91 38 20
        E 32 81 38 00
        E 0 91 39 20
        E 48 81 39 00
        E 0 91 3a 20
        E 48 81 3a 00
        E 0 91 2f 20
        E 208 b1 0b 18
        E 176 b1 0b 10
        E 64 81 2f 00
        E 0 91 2e 10
        E 784 81 2e 00
        E 0 91 2d 10
        E 864 81 2d 00
        E 0 91 2c 10
        E 848 81 2c 00
        E 0 91 2b 10
        E 976 81 2b 00
        E 0 91 2a 10
        E 960 81 2a 00
        E 0 91 29 10
        E 272 b1 0b 20
        E 0 81 29 00
        E 0 91 1a 20
        E 176 b1 0b 18
        E 16 b1 0b 20
        E 0 81 1a 00
        E 0 91 1c 20
        E 176 81 1c 00
        E 0 91 3e 20
        E 96 b1 0b 18
        E 80 b1 0c 20
        E 0 b1 0b 38
        E 0 81 3e 00
        E 0 91 23 38
        E 96 b1 0b 30
        E 112 b1 0b 28
        E 80 81 23 00
        E 64 b1 0b 38
        E 0 91 25 38
        E 80 b1 0b 30
        E 112 b1 0b 28
        E 96 81 25 00
        E 64 b1 0b 38
        E 0 91 26 38
        E 80 b1 0b 30
        E 112 b1 0b 28
        E 96 81 26 00
        E 496 b1 0c 10
        E 0 b1 0b 18
        E 0 91 37 18
        E 80 81 37 00
        E 0 91 38 18
        E 176 b1 0b 10
        E 0 81 38 00
        E 0 91 39 10
        E 96 b1 0b 18
        E 192 b1 0b 10
        E 176 b1 0b 18
        E 112 b1 0b 10
        E 64 b1 0b 18
        E 176 81 39 00
        E 0 91 37 18
        E 32 b1 0b 10
        E 256 b1 0c 20
        E 0 b1 0b 38
        E 0 81 37 00
        E 0 91 28 38
        E 96 b1 0b 30
        E 112 b1 0b 28
        E 80 81 28 00
        E 64 b1 0b 38
        E 0 91 25 38
        E 80 b1 0b 30
        E 112 b1 0b 28
        E 96 81 25 00
        E 64 b1 0b 38
        E 0 91 26 38
        E 64 b1 0b 30
        E 112 b1 0b 28
        E 112 81 26 00
        E 416 b1 0c 10
        E 0 b1 0b 18
        E 0 91 21 18
        E 48 b1 0b 10
        E 64 b1 0b 08
        E 48 81 21 00
        E 192 b1 0b 18
        E 0 91 21 18
        E 32 b1 0b 10
        E 64 b1 0b 08
        E 48 81 21 00
        E 32 b1 0b 18
        E 0 91 23 18
        E 32 b1 0b 10
        E 64 b1 0b 08
        E 48 81 23 00
        E 32 b1 0b 18
        E 0 91 23 18
        E 32 b1 0b 10
        E 48 b1 0b 08
        E 64 81 23 00
        E 32 b1 0b 18
        E 0 91 24 18
        E 16 b1 0b 10
        E 64 b1 0b 08
        E 48 81 24 00
        E 48 b1 0b 18
        E 0 91 26 18
        E 16 b1 0b 10
        E 64 b1 0b 08
        E 48 81 26 00
        E 48 b1 0b 18
        E 0 91 28 18
        E 16 b1 0b 10
        E 16 b1 0b 20
        E 0 81 28 00
        E 0 91 3e 20
        E 176 b1 0c 20
        E 0 b1 0b 38
        E 0 81 3e 00
        E 0 91 23 38
        E 80 b1 0b 30
        E 128 b1 0b 28
        E 80 81 23 00
        E 64 b1 0b 38
        E 0 91 25 38
        E 80 b1 0b 30
        E 112 b1 0b 28
        E 96 81 25 00
        E 64 b1 0b 38
        E 0 91 26 38
        E 64 b1 0b 30
        E 112 b1 0b 28
        E 112 b1 0b 20
        E 16 81 26 00
        E 480 b1 0c 10
        E 0 b1 0b 18
        E 0 91 37 18
        E 80 81 37 00
        E 0 91 38 18
        E 176 b1 0b 10
        E 0 81 38 00
        E 0 91 39 10
        E 96 b1 0b 18
        E 176 b1 0b 10
        E 16 b1 0b 18
        E 272 b1 0b 10
        E 96 b1 0b 18
        E 192 81 39 00
        E 0 91 37 18
        E 32 b1 0b 10
        E 256 b1 0c 20
        E 0 b1 0b 38
        E 0 81 37 00
        E 0 91 28 38
        E 80 b1 0b 30
        E 112 b1 0b 28
        E 96 81 28 00
        E 64 b1 0b 38
        E 0 91 25 38
        E 80 b1 0b 30
        E 112 b1 0b 28
        E 96 81 25 00
        E 80 b1 0b 38
        E 0 91 26 38
        E 48 b1 0b 30
        E 112 b1 0b 28
        E 112 b1 0b 20
        E 16 81 26 00
        E 400 b1 0c 10
        E 0 b1 0b 18
        E 0 91 21 18
        E 48 b1 0b 10
        E 48 b1 0b 08
        E 64 81 21 00
        E 192 b1 0b 18
        E 0 91 21 18
        E 32 b1 0b 10
        E 48 b1 0b 08
        E 64 81 21 00
        E 32 b1 0b 18
        E 0 91 23 18
        E 32 b1 0b 10
        E 48 b1 0b 08
        E 64 81 23 00
        E 32 b1 0b 18
        E 0 91 23 18
        E 16 b1 0b 10
        E 64 b1 0b 08
        E 48 81 23 00
        E 48 b1 0b 18
        E 0 91 24 18
        E 16 b1 0b 10
        E 48 b1 0b 08
        E 64 81 24 00
        E 48 b1 0b 18
        E 0 91 26 18
        E 16 b1 0b 10
        E 48 b1 0b 08
        E 64 81 26 00
        E 64 b1 0b 18
        E 0 91 28 18
        E 16 b1 0b 20
        E 0 81 28 00
        E 0 91 3e 20
        E 176 b1 0b 30
        E 0 81 3e 00
        E 0 91 28 30
        E 80 b1 0b 28
        E 112 b1 0b 20
        E 96 81 28 00
        E 64 b1 0b 30
        E 0 91 28 30
        E 64 b1 0b 28
        E 112 b1 0b 20
        E 128 b1 0b 18
        E 64 81 28 00
        E 192 b1 0b 30
        E 0 91 28 30
        E 96 b1 0b 28
        E 112 b1 0b 20
        E 112 b1 0b 18
        E 32 81 28 00
        E 176 b1 0b 30
        E 0 91 26 30
        E 16 b1 0b 28
        E 112 b1 0b 20
        E 128 b1 0b 18
        E 32 81 26 00
        E 64 b1 0b 30
        E 0 91 26 30
        E 16 b1 0b 28
        E 112 b1 0b 20
        E 112 b1 0b 18
        E 112 b1 0b 10
        E 16 81 26 00
        E 176 b1 0b 30
        E 0 91 26 30
        E 32 b1 0b 28
        E 112 b1 0b 20
        E 112 b1 0b 18
        E 96 81 26 00
        E 176 b1 0b 30
        E 0 91 26 30
        E 80 b1 0b 28
        E 112 b1 0b 20
        E 96 81 26 00
        E 64 b1 0b 30
        E 0 91 26 30
        E 64 b1 0b 28
        E 112 b1 0b 20
        E 112 b1 0b 18
        E 80 81 26 00
        E 176 b1 0b 30
        E 0 91 26 30
        E 96 b1 0b 28
        E 112 b1 0b 20
        E 112 b1 0b 18
        E 32 81 26 00
        E 176 b1 0b 30
        E 0 91 28 30
        E 16 b1 0b 28
        E 112 b1 0b 20
        E 112 b1 0b 18
        E 112 b1 0b 10
        E 16 b1 0b 28
        E 0 81 28 00
        E 0 91 48 28
        E 96 b1 0b 10
        E 0 81 48 00
        E 0 91 39 10
        E 80 b1 0b 28
        E 0 81 39 00
        E 0 91 47 28
        E 48 b1 0b 20
        E 64 b1 0b 10
        E 0 81 47 00
        E 0 91 48 10
        E 48 b1 0b 08
        E 16 b1 0b 28
        E 0 81 48 00
        E 0 91 43 28
        E 96 b1 0b 20
        E 16 b1 0b 10
        E 0 81 43 00
        E 0 91 47 10
        E 64 b1 0b 28
        E 0 81 47 00
        E 0 91 45 28
        E 32 b1 0b 20
        E 80 b1 0b 10
        E 0 81 45 00
        E 0 91 43 10
        E 32 b1 0b 08
        E 32 b1 0b 28
        E 0 81 43 00
        E 0 91 40 28
        E 80 b1 0b 20
        E 32 b1 0b 10
        E 0 81 40 00
        E 0 91 45 10
        E 64 b1 0b 28
        E 0 81 45 00
        E 0 91 43 28
        E 16 b1 0b 20
        E 96 b1 0b 10
        E 0 81 43 00
        E 0 91 40 10
        E 16 b1 0b 08
        E 48 b1 0b 30
        E 0 81 40 00
        E 0 91 28 30
        E 80 b1 0b 28
        E 112 b1 0b 20
        E 96 81 28 00
        E 80 b1 0b 30
        E 0 91 28 30
        E 48 b1 0b 28
        E 112 b1 0b 20
        E 112 b1 0b 18
        E 80 81 28 00
        E 176 b1 0b 30
        E 0 91 28 30
        E 80 b1 0b 28
        E 128 b1 0b 20
        E 112 b1 0b 18
        E 32 81 28 00
        E 176 b1 0b 30
        E 0 91 26 30
        E 16 b1 0b 28
        E 112 b1 0b 20
        E 112 b1 0b 18
        E 48 81 26 00
        E 80 b1 0b 30
        E 0 91 26 30
        E 96 b1 0b 28
        E 112 b1 0b 20
        E 128 b1 0b 18
        E 16 81 26 00
        E 176 b1 0b 30
        E 0 91 26 30
        E 32 b1 0b 28
        E 112 b1 0b 20
        E 112 b1 0b 18
        E 96 81 26 00
        E 176 b1 0b 30
        E 0 91 26 30
        E 64 b1 0b 28
        E 112 b1 0b 20
        E 112 81 26 00
        E 80 b1 0b 30
        E 0 91 26 30
        E 48 b1 0b 28
        E 112 b1 0b 20
        E 112 b1 0b 18
        E 80 81 26 00
        E 176 b1 0b 30
        E 0 91 26 30
        E 80 b1 0b 28
        E 112 b1 0b 20
        E 128 b1 0b 18
        E 48 81 26 00
        E 176 b1 0b 30
        E 0 91 28 30
        E 16 b1 0b 28
        E 112 b1 0b 20
        E 112 b1 0b 18
        E 64 81 28 00
        E 64 b1 0b 30
        E 0 91 28 30
        E 96 b1 0b 28
        E 112 b1 0b 20
        E 112 b1 0b 18
        E 32 81 28 00
        E 176 b1 0b 30
        E 0 91 2a 30
        E 32 b1 0b 28
        E 112 b1 0b 20
        E 112 b1 0b 18
        E 96 b1 0b 20
        E 0 81 2a 00
        E 0 91 34 20
        E 192 b1 0b 18
        E 160 b1 0b 10
        E 112 81 34 00
        E 0 91 33 10
        E 576 81 33 00
        E 0 91 32 10
        E 640 81 32 00
        E 0 91 31 10
        E 688 81 31 00
        E 0 91 30 10
        E 496 b1 0b 20
        E 0 81 30 00
        E 0 91 3e 20
        E 176 b1 0b 18
        E 16 b1 0c 20
        E 0 b1 0b 38
        E 0 81 3e 00
        E 0 91 23 38
        E 96 b1 0b 30
        E 128 b1 0b 28
        E 64 81 23 00
        E 64 b1 0b 38
        E 0 91 25 38
        E 96 b1 0b 30
        E 112 b1 0b 28
        E 80 81 25 00
        E 64 b1 0b 38
        E 0 91 26 38
        E 80 b1 0b 30
        E 112 b1 0b 28
        E 96 81 26 00
        E 496 b1 0c 10
        E 0 b1 0b 18
        E 0 91 37 18
        E 96 81 37 00
        E 0 91 38 18
        E 176 b1 0b 10
        E 0 81 38 00
        E 0 91 39 10
        E 80 b1 0b 18
        E 192 b1 0b 10
        E 160 b1 0b 18
        E 128 b1 0b 10
        E 48 b1 0b 18
        E 192 81 39 00
        E 0 91 37 18
        E 48 b1 0b 10
        E 240 b1 0c 20
        E 0 b1 0b 38
        E 0 81 37 00
        E 0 91 28 38
        E 96 b1 0b 30
        E 112 b1 0b 28
        E 80 81 28 00
        E 64 b1 0b 38
        E 0 91 25 38
        E 96 b1 0b 30
        E 112 b1 0b 28
        E 80 81 25 00
        E 64 b1 0b 38
        E 0 91 26 38
        E 80 b1 0b 30
        E 112 b1 0b 28
        E 96 81 26 00
        E 400 b1 0c 10
        E 0 b1 0b 18
        E 0 91 21 18
        E 16 b1 0b 10
        E 64 b1 0b 08
        E 64 81 21 00
        E 240 b1 0b 18
        E 0 91 21 18
        E 48 b1 0b 10
        E 48 b1 0b 08
        E 64 81 21 00
        E 16 b1 0b 18
        E 0 91 23 18
        E 48 b1 0b 10
        E 48 b1 0b 08
        E 64 81 23 00
        E 16 b1 0b 18
        E 0 91 23 18
        E 32 b1 0b 10
        E 64 b1 0b 08
        E 48 81 23 00
        E 32 b1 0b 18
        E 0 91 24 18
        E 32 b1 0b 10
        E 48 b1 0b 08
        E 64 81 24 00
        E 32 b1 0b 18
        E 0 91 26 18
        E 32 b1 0b 10
        E 48 b1 0b 08
        E 64 81 26 00
        E 32 b1 0b 18
        E 0 91 28 18
        E 16 b1 0b 10
        E 16 b1 0b 20
        E 0 81 28 00
        E 0 91 3e 20
        E 176 b1 0c 20
        E 0 b1 0b 38
        E 0 81 3e 00
        E 0 91 23 38
        E 96 b1 0b 30
        E 112 b1 0b 28
        E 80 81 23 00
        E 64 b1 0b 38
        E 0 91 25 38
        E 80 b1 0b 30
        E 112 b1 0b 28
        E 96 81 25 00
        E 64 b1 0b 38
        E 0 91 26 38
        E 80 b1 0b 30
        E 112 b1 0b 28
        E 96 81 26 00
        E 496 b1 0c 10
        E 0 b1 0b 18
        E 0 91 37 18
        E 80 81 37 00
        E 0 91 38 18
        E 176 b1 0b 10
        E 0 81 38 00
        E 0 91 39 10
        E 96 b1 0b 18
        E 192 b1 0b 10
        E 160 b1 0b 18
        E 128 b1 0b 10
        E 64 b1 0b 18
        E 176 81 39 00
        E 0 91 37 18
        E 32 b1 0b 10
        E 256 b1 0c 20
        E 0 b1 0b 38
        E 0 81 37 00
        E 0 91 28 38
        E 96 b1 0b 30
        E 112 b1 0b 28
        E 80 81 28 00
        E 64 b1 0b 38
        E 0 91 25 38
        E 80 b1 0b 30
        E 112 b1 0b 28
        E 96 81 25 00
        E 64 b1 0b 38
        E 0 91 26 38
        E 64 b1 0b 30
        E 128 b1 0b 28
        E 96 81 26 00
        E 400 b1 0c 10
        E 0 b1 0b 18
        E 0 91 21 18
        E 16 b1 0b 10
        E 48 b1 0b 08
        E 64 81 21 00
        E 240 b1 0b 18
        E 0 91 21 18
        E 32 b1 0b 10
        E 64 b1 0b 08
        E 64 81 21 00
        E 16 b1 0b 18
        E 0 91 23 18
        E 32 b1 0b 10
        E 64 b1 0b 08
        E 48 81 23 00
        E 32 b1 0b 18
        E 0 91 23 18
        E 32 b1 0b 10
        E 48 b1 0b 08
        E 64 81 23 00
        E 32 b1 0b 18
        E 0 91 24 18
        E 16 b1 0b 10
        E 64 b1 0b 08
        E 64 81 24 00
        E 32 b1 0b 18
        E 0 91 26 18
        E 16 b1 0b 10
        E 64 b1 0b 08
        E 48 81 26 00
        E 48 b1 0b 18
        E 0 91 28 18
        E 16 b1 0b 10
        E 16 b1 0b 20
        E 0 81 28 00
        E 0 91 3e 20
        E 176 b1 0b 30
        E 0 81 3e 00
        E 0 91 28 30
        E 96 b1 0b 28
        E 112 b1 0b 20
        E 80 81 28 00
        E 64 b1 0b 30
        E 0 91 28 30
        E 80 b1 0b 28
        E 112 b1 0b 20
        E 112 b1 0b 18
        E 48 81 28 00
        E 192 b1 0b 30
        E 0 91 28 30
        E 96 b1 0b 28
        E 128 b1 0b 20
        E 112 b1 0b 18
        E 16 81 28 00
        E 176 b1 0b 30
        E 0 91 26 30
        E 32 b1 0b 28
        E 112 b1 0b 20
        E 112 b1 0b 18
        E 32 81 26 00
        E 64 b1 0b 30
        E 0 91 26 30
        E 16 b1 0b 28
        E 112 b1 0b 20
        E 112 b1 0b 18
        E 112 81 26 00
        E 192 b1 0b 30
        E 0 91 26 30
        E 48 b1 0b 28
        E 112 b1 0b 20
        E 112 b1 0b 18
        E 80 81 26 00
        E 176 b1 0b 30
        E 0 91 26 30
        E 80 b1 0b 28
        E 112 b1 0b 20
        E 96 81 26 00
        E 64 b1 0b 30
        E 0 91 26 30
        E 80 b1 0b 28
        E 112 b1 0b 20
        E 112 b1 0b 18
        E 64 81 26 00
        E 176 b1 0b 30
        E 0 91 26 30
        E 96 b1 0b 28
        E 112 b1 0b 20
        E 112 b1 0b 18
        E 32 81 26 00
        E 176 b1 0b 30
        E 0 91 28 30
        E 32 b1 0b 28
        E 112 b1 0b 20
        E 112 b1 0b 18
        E 96 b1 0b 28
        E 0 81 28 00
        E 0 91 48 28
        E 16 b1 0b 20
        E 96 b1 0b 10
        E 0 81 48 00
        E 0 91 39 10
        E 64 b1 0b 28
        E 0 81 39 00
        E 0 91 47 28
        E 16 b1 0b 20
        E 96 b1 0b 10
        E 0 81 47 00
        E 0 91 48 10
        E 16 b1 0b 08
        E 64 b1 0b 28
        E 0 81 48 00
        E 0 91 43 28
        E 48 b1 0b 20
        E 64 b1 0b 10
        E 0 81 43 00
        E 0 91 47 10
        E 48 b1 0b 08
        E 16 b1 0b 28
        E 0 81 47 00
        E 0 91 45 28
        E 96 b1 0b 20
        E 16 b1 0b 10
        E 0 81 45 00
        E 0 91 43 10
        E 64 b1 0b 28
        E 0 81 43 00
        E 0 91 40 28
        E 32 b1 0b 20
        E 80 b1 0b 10
        E 0 81 40 00
        E 0 91 45 10
        E 32 b1 0b 08
        E 32 b1 0b 28
        E 0 81 45 00
        E 0 91 43 28
        E 80 b1 0b 20
        E 32 b1 0b 10
        E 0 81 43 00
        E 0 91 40 10
        E 64 b1 0b 30
        E 0 81 40 00
        E 0 91 28 30
        E 80 b1 0b 28
        E 112 b1 0b 20
        E 96 81 28 00
        E 64 b1 0b 30
        E 0 91 28 30
        E 64 b1 0b 28
        E 128 b1 0b 20
        E 112 b1 0b 18
        E 64 81 28 00
        E 176 b1 0b 30
        E 0 91 28 30
        E 96 b1 0b 28
        E 112 b1 0b 20
        E 112 b1 0b 18
        E 32 81 28 00
        E 176 b1 0b 30
        E 0 91 26 30
        E 16 b1 0b 28
        E 128 b1 0b 20
        E 112 b1 0b 18
        E 32 81 26 00
        E 64 b1 0b 30
        E 0 91 26 30
        E 16 b1 0b 28
        E 112 b1 0b 20
        E 112 b1 0b 18
        E 112 b1 0b 10
        E 16 81 26 00
        E 176 b1 0b 30
        E 0 91 26 30
        E 32 b1 0b 28
        E 112 b1 0b 20
        E 128 b1 0b 18
        E 80 81 26 00
        E 176 b1 0b 30
        E 0 91 26 30
        E 80 b1 0b 28
        E 112 b1 0b 20
        E 96 81 26 00
        E 64 b1 0b 30
        E 0 91 26 30
        E 64 b1 0b 28
        E 112 b1 0b 20
        E 112 b1 0b 18
        E 80 81 26 00
        E 176 b1 0b 30
        E 0 91 26 30
        E 96 b1 0b 28
        E 112 b1 0b 20
        E 112 b1 0b 18
        E 32 81 26 00
        E 176 b1 0b 30
        E 0 91 28 30
        E 16 b1 0b 28
        E 112 b1 0b 20
        E 112 b1 0b 18
        E 128 b1 0b 10
        E 112 b1 0b 08
        E 112 81 28 00
        E 128 b1 0b 30
        E 0 91 28 30
        E 96 b1 0b 28
        E 112 b1 0b 20
        E 16 b1 0b 30
        E 96 b1 0b 28
        E 112 b1 0b 20
        E 32 b1 0b 30
        E 0 81 28 00
        E 0 91 29 30
        E 80 b1 0b 28
        E 128 b1 0b 20
        E 32 b1 0b 30
        E 0 81 29 00
        E 0 91 2a 30
        E 80 b1 0b 28
        E 112 b1 0b 20
        E 96 81 2a 00
        E 80 b1 0b 30
        E 0 91 2a 30
        E 48 b1 0b 28
        E 112 b1 0b 20
        E 112 b1 0b 18
        E 80 81 2a 00
        E 176 b1 0b 30
        E 0 91 2a 30
        E 96 b1 0b 28
        E 112 b1 0b 20
        E 112 b1 0b 18
        E 32 81 2a 00
        E 176 b1 0b 30
        E 0 91 28 30
        E 16 b1 0b 28
        E 112 b1 0b 20
        E 112 b1 0b 18
        E 48 81 28 00
        E 80 b1 0b 30
        E 0 91 28 30
        E 96 b1 0b 28
        E 128 b1 0b 20
        E 112 b1 0b 18
        E 16 81 28 00
        E 176 b1 0b 30
        E 0 91 28 30
        E 32 b1 0b 28
        E 112 b1 0b 20
        E 112 b1 0b 18
        E 96 81 28 00
        E 176 b1 0b 30
        E 0 91 28 30
        E 64 b1 0b 28
        E 128 b1 0b 20
        E 96 81 28 00
        E 80 b1 0b 30
        E 0 91 28 30
        E 48 b1 0b 28
        E 112 b1 0b 20
        E 112 b1 0b 18
        E 80 81 28 00
        E 176 b1 0b 30
        E 0 91 28 30
        E 80 b1 0b 28
        E 112 b1 0b 20
        E 128 b1 0b 18
        E 32 81 28 00
        E 176 b1 0b 30
        E 0 91 2a 30
        E 16 b1 0b 28
        E 112 b1 0b 20
        E 112 b1 0b 18
        E 112 b1 0b 10
        E 16 b1 0b 28
        E 0 81 2a 00
        E 0 91 4a 28
        E 32 b1 0b 10
        E 0 81 4a 00
        E 0 91 3b 10
        E 48 b1 0b 28
        E 0 81 3b 00
        E 0 91 49 28
        E 48 b1 0b 10
        E 0 81 49 00
        E 0 91 4a 10
        E 32 b1 0b 08
        E 16 b1 0b 28
        E 0 81 4a 00
        E 0 91 45 28
        E 48 b1 0b 10
        E 0 81 45 00
        E 0 91 49 10
        E 32 b1 0b 28
        E 0 81 49 00
        E 0 91 47 28
        E 16 b1 0b 20
        E 32 b1 0b 10
        E 0 81 47 00
        E 0 91 45 10
        E 48 b1 0b 28
        E 0 81 45 00
        E 0 91 42 28
        E 32 b1 0b 20
        E 16 b1 0b 10
        E 0 81 42 00
        E 0 91 47 10
        E 32 b1 0b 28
        E 0 81 47 00
        E 0 91 45 28
        E 48 b1 0b 10
        E 0 81 45 00
        E 0 91 42 10
        E 16 b1 0b 08
        E 32 b1 0b 28
        E 0 81 42 00
        E 0 91 4a 28
        E 48 b1 0b 10
        E 0 81 4a 00
        E 0 91 45 10
        E 32 b1 0b 08
        E 16 b1 0b 28
        E 0 81 45 00
        E 0 91 49 28
        E 32 b1 0b 10
        E 0 81 49 00
        E 0 91 4a 10
        E 48 b1 0b 28
        E 0 81 4a 00
        E 0 91 45 28
        E 16 b1 0b 20
        E 32 b1 0b 10
        E 0 81 45 00
        E 0 91 49 10
        E 48 b1 0b 28
        E 0 81 49 00
        E 0 91 47 28
        E 32 b1 0b 20
        E 16 b1 0b 10
        E 0 81 47 00
        E 0 91 45 10
        E 32 b1 0b 28
        E 0 81 45 00
        E 0 91 42 28
        E 48 b1 0b 10
        E 0 81 42 00
        E 0 91 47 10
        E 32 b1 0b 08
        E 16 b1 0b 28
        E 0 81 47 00
        E 0 91 45 28
        E 48 b1 0b 10
        E 0 81 45 00
        E 0 91 42 10
        E 32 b1 0b 30
        E 0 81 42 00
        E 0 91 2a 30
        E 64 b1 0b 28
        E 112 b1 0b 20
        E 112 b1 0b 18
        E 16 81 2a 00
        E 64 b1 0b 30
        E 0 91 2a 30
        E 48 b1 0b 28
        E 112 b1 0b 20
        E 112 b1 0b 18
        E 80 81 2a 00
        E 176 b1 0b 30
        E 0 91 2a 30
        E 80 b1 0b 28
        E 112 b1 0b 20
        E 112 b1 0b 18
        E 48 81 2a 00
        E 176 b1 0b 30
        E 0 91 28 30
        E 16 b1 0b 28
        E 112 b1 0b 20
        E 112 b1 0b 18
        E 64 81 28 00
        E 64 b1 0b 30
        E 0 91 28 30
        E 96 b1 0b 28
        E 112 b1 0b 20
        E 112 b1 0b 18
        E 32 81 28 00
        E 176 b1 0b 30
        E 0 91 28 30
        E 16 b1 0b 28
        E 128 b1 0b 20
        E 112 b1 0b 18
        E 96 81 28 00
        E 192 b1 0b 30
        E 0 91 28 30
        E 48 b1 0b 28
        E 112 b1 0b 20
        E 112 b1 0b 18
        E 16 81 28 00
        E 80 b1 0b 30
        E 0 91 28 30
        E 32 b1 0b 28
        E 112 b1 0b 20
        E 128 b1 0b 18
        E 80 81 28 00
        E 176 b1 0b 30
        E 0 91 28 30
        E 80 b1 0b 28
        E 112 b1 0b 20
        E 112 b1 0b 18
        E 48 81 28 00
        E 192 b1 0b 30
        E 0 91 2a 30
        E 96 b1 0b 28
        E 128 b1 0b 20
        E 64 81 2a 00
        E 64 b1 0b 30
        E 0 91 2a 30
        E 96 b1 0b 28
        E 112 b1 0b 20
        E 112 b1 0b 18
        E 32 81 2a 00
        E 176 b1 0b 30
        E 0 91 2c 30
        E 16 b1 0b 28
        E 112 b1 0b 20
        E 112 b1 0b 18
        E 112 b1 0b 20
        E 0 81 2c 00
        E 0 91 36 20
        E 176 b1 0b 18
        E 176 b1 0b 10
        E 48 81 36 00
        E 0 91 35 10
        E 512 81 35 00
        E 0 91 34 10
        E 576 81 34 00
        E 0 91 33 10
        E 624 81 33 00
        E 0 91 32 10
        E 624 81 32 00
        E 0 91 31 10
        E 624 81 31 00
        E 0 91 30 10
        E 752 81 30 00
        E 0 91 2f 10
        E 752 81 2f 00
        E 0 91 2e 10
        E 688 81 2e 00
        E 0 ff 2f 00
      >
    >
  >
  <TRACK {588195AB-A945-4412-A461-D9016EEB80B3}
    NAME "NES - Triangle [ch2]"
    PEAKCOL 16744192
    BEAT -1
    AUTOMODE 0
    PANLAWFLAGS 3
    VOLPAN 1 0 -1 -1 1
    MUTESOLO 0 0 0
    IPHASE 0
    PLAYOFFS 0 1
    ISBUS 0 0
    BUSCOMP 0 0 0 0 0
    SHOWINMIX 1 0.6667 0.5 1 0.5 0 0 0
    FIXEDLANES 9 0 0 0 0
    SEL 0
    REC 0 5088 1 0 0 0 0 0
    VU 2
    TRACKHEIGHT 0 0 0 0 0 0 0
    INQ 0 0 0 0.5 100 0 0 100
    NCHAN 2
    FX 1
    TRACKID {588195AB-A945-4412-A461-D9016EEB80B3}
    PERF 0
    MIDIOUT -1
    MAINSEND 1 0
    <FXCHAIN
      WNDRECT 24 52 700 560
      SHOW 0
      LASTSEL 0
      DOCKED 0
      BYPASS 0 0 0
      <JS "ReapNES Studio/ReapNES_Console.jsfx" ""
        2 15 1 10 80 10 100 2 1 15 1 5 60 10 80 1 1 0 50 0 0 15 1 0 100 0 0 0.500000 0.500000 0.400000 0.300000 0.800000 2 1 0 0 0 0 - - - - - - - - - - - - - - - - - - - - - - - - - -
      >
      FLOATPOS 0 0 0 0
      FXID {D3466BAA-46FC-425C-958B-489A5CA74287}
      WAK 0 0
    >
    <ITEM
      POSITION 0
      LENGTH 79.73561670000001
      LOOP 0
      ALLTAKES 0
      FADEIN 0 0 0 0 0 0 0
      FADEOUT 0 0 0 0 0 0 0
      MUTE 0 0
      SEL 0
      IGUID {8DABA92D-BEAD-4BD2-A6E3-CD9306DB8475}
      <SOURCE MIDI
        HASDATA 1 480 QN
        CCINTERP 32
        X 0 18 ff 03 0f 54 72 69 61 6e 67 6c 65 20 5b 62 61 73 73 5d
        E 0 c2 26
        E 16 b2 0b 7f
        E 0 92 34 7f
        E 16 82 34 00
        E 0 b2 0b 7f
        E 0 92 35 7f
        E 32 82 35 00
        E 0 b2 0b 7f
        E 0 92 36 7f
        E 48 82 36 00
        E 0 b2 0b 7f
        E 0 92 28 7f
        E 160 82 28 00
        E 16 b2 0b 7f
        E 0 92 28 7f
        E 144 82 28 00
        E 32 b2 0b 7f
        E 0 92 28 7f
        E 144 82 28 00
        E 48 b2 0b 7f
        E 0 92 28 7f
        E 144 82 28 00
        E 32 b2 0b 7f
        E 0 92 28 7f
        E 144 82 28 00
        E 32 b2 0b 7f
        E 0 92 28 7f
        E 144 82 28 00
        E 32 b2 0b 7f
        E 0 92 28 7f
        E 144 82 28 00
        E 32 b2 0b 7f
        E 0 92 28 7f
        E 144 82 28 00
        E 32 b2 0b 7f
        E 0 92 28 7f
        E 144 82 28 00
        E 32 b2 0b 7f
        E 0 92 28 7f
        E 144 82 28 00
        E 48 b2 0b 7f
        E 0 92 28 7f
        E 144 82 28 00
        E 32 b2 0b 7f
        E 0 92 28 7f
        E 144 82 28 00
        E 32 b2 0b 7f
        E 0 92 28 7f
        E 160 82 28 00
        E 16 b2 0b 7f
        E 0 92 28 7f
        E 160 82 28 00
        E 16 b2 0b 7f
        E 0 92 28 7f
        E 144 82 28 00
        E 32 b2 0b 7f
        E 0 92 28 7f
        E 144 82 28 00
        E 32 b2 0b 7f
        E 0 92 28 7f
        E 144 82 28 00
        E 32 b2 0b 7f
        E 0 92 28 7f
        E 144 82 28 00
        E 48 b2 0b 7f
        E 0 92 28 7f
        E 144 82 28 00
        E 32 b2 0b 7f
        E 0 92 28 7f
        E 144 82 28 00
        E 32 b2 0b 7f
        E 0 92 28 7f
        E 144 82 28 00
        E 32 b2 0b 7f
        E 0 92 28 7f
        E 144 82 28 00
        E 32 b2 0b 7f
        E 0 92 28 7f
        E 144 82 28 00
        E 32 b2 0b 7f
        E 0 92 28 7f
        E 144 82 28 00
        E 32 b2 0b 7f
        E 0 92 28 7f
        E 144 82 28 00
        E 32 b2 0b 7f
        E 0 92 28 7f
        E 144 82 28 00
        E 48 b2 0b 7f
        E 0 92 28 7f
        E 144 82 28 00
        E 32 b2 0b 7f
        E 0 92 28 7f
        E 160 82 28 00
        E 16 b2 0b 7f
        E 0 92 28 7f
        E 160 82 28 00
        E 16 b2 0b 7f
        E 0 92 28 7f
        E 160 82 28 00
        E 16 b2 0b 7f
        E 0 92 28 7f
        E 144 82 28 00
        E 32 b2 0b 7f
        E 0 92 28 7f
        E 144 82 28 00
        E 32 b2 0b 7f
        E 0 92 28 7f
        E 144 82 28 00
        E 48 b2 0b 7f
        E 0 92 28 7f
        E 144 82 28 00
        E 32 b2 0b 7f
        E 0 92 2a 7f
        E 144 82 2a 00
        E 32 b2 0b 7f
        E 0 92 2a 7f
        E 144 82 2a 00
        E 32 b2 0b 7f
        E 0 92 2b 7f
        E 144 82 2b 00
        E 32 b2 0b 7f
        E 0 92 2b 7f
        E 144 82 2b 00
        E 32 b2 0b 7f
        E 0 92 2d 7f
        E 144 82 2d 00
        E 32 b2 0b 7f
        E 0 92 28 7f
        E 288 82 28 00
        E 80 b2 0b 7f
        E 0 92 28 7f
        E 160 82 28 00
        E 16 b2 0b 7f
        E 0 92 2a 7f
        E 160 82 2a 00
        E 16 b2 0b 7f
        E 0 92 2a 7f
        E 144 82 2a 00
        E 32 b2 0b 7f
        E 0 92 2b 7f
        E 160 82 2b 00
        E 16 b2 0b 7f
        E 0 92 2b 7f
        E 144 82 2b 00
        E 32 b2 0b 7f
        E 0 92 2f 7f
        E 144 82 2f 00
        E 32 b2 0b 7f
        E 0 92 2b 7f
        E 144 82 2b 00
        E 32 b2 0b 7f
        E 0 92 2d 7f
        E 144 82 2d 00
        E 48 b2 0b 7f
        E 0 92 2d 7f
        E 144 82 2d 00
        E 32 b2 0b 7f
        E 0 92 2a 7f
        E 144 82 2a 00
        E 32 b2 0b 7f
        E 0 92 2a 7f
        E 144 82 2a 00
        E 32 b2 0b 7f
        E 0 92 2b 7f
        E 144 82 2b 00
        E 32 b2 0b 7f
        E 0 92 26 7f
        E 144 82 26 00
        E 32 b2 0b 7f
        E 0 92 28 7f
        E 144 82 28 00
        E 32 b2 0b 7f
        E 0 92 2d 7f
        E 288 82 2d 00
        E 80 b2 0b 7f
        E 0 92 2d 7f
        E 160 82 2d 00
        E 16 b2 0b 7f
        E 0 92 2f 7f
        E 160 82 2f 00
        E 16 b2 0b 7f
        E 0 92 2f 7f
        E 160 82 2f 00
        E 16 b2 0b 7f
        E 0 92 30 7f
        E 144 82 30 00
        E 32 b2 0b 7f
        E 0 92 32 7f
        E 144 82 32 00
        E 32 b2 0b 7f
        E 0 92 34 7f
        E 144 82 34 00
        E 32 b2 0b 7f
        E 0 92 2b 7f
        E 144 82 2b 00
        E 48 b2 0b 7f
        E 0 92 28 7f
        E 144 82 28 00
        E 32 b2 0b 7f
        E 0 92 28 7f
        E 144 82 28 00
        E 32 b2 0b 7f
        E 0 92 2a 7f
        E 144 82 2a 00
        E 32 b2 0b 7f
        E 0 92 2a 7f
        E 144 82 2a 00
        E 32 b2 0b 7f
        E 0 92 2b 7f
        E 144 82 2b 00
        E 32 b2 0b 7f
        E 0 92 2b 7f
        E 144 82 2b 00
        E 32 b2 0b 7f
        E 0 92 2d 7f
        E 144 82 2d 00
        E 32 b2 0b 7f
        E 0 92 28 7f
        E 304 82 28 00
        E 64 b2 0b 7f
        E 0 92 28 7f
        E 160 82 28 00
        E 16 b2 0b 7f
        E 0 92 2a 7f
        E 160 82 2a 00
        E 16 b2 0b 7f
        E 0 92 2a 7f
        E 160 82 2a 00
        E 16 b2 0b 7f
        E 0 92 2b 7f
        E 160 82 2b 00
        E 16 b2 0b 7f
        E 0 92 2b 7f
        E 144 82 2b 00
        E 80 b2 0b 7f
        E 0 92 2f 7f
        E 144 82 2f 00
        E 32 b2 0b 7f
        E 0 92 2b 7f
        E 160 82 2b 00
        E 16 b2 0b 7f
        E 0 92 2d 7f
        E 160 82 2d 00
        E 16 b2 0b 7f
        E 0 92 2d 7f
        E 160 82 2d 00
        E 32 b2 0b 7f
        E 0 92 2a 7f
        E 144 82 2a 00
        E 16 b2 0b 7f
        E 0 92 2a 7f
        E 160 82 2a 00
        E 16 b2 0b 7f
        E 0 92 2b 7f
        E 160 82 2b 00
        E 16 b2 0b 7f
        E 0 92 26 7f
        E 160 82 26 00
        E 16 b2 0b 7f
        E 0 92 28 7f
        E 160 82 28 00
        E 48 b2 0b 7f
        E 0 92 2d 7f
        E 272 82 2d 00
        E 64 b2 0b 7f
        E 0 92 2d 7f
        E 160 82 2d 00
        E 32 b2 0b 7f
        E 0 92 2f 7f
        E 144 82 2f 00
        E 32 b2 0b 7f
        E 0 92 2f 7f
        E 144 82 2f 00
        E 32 b2 0b 7f
        E 0 92 30 7f
        E 144 82 30 00
        E 32 b2 0b 7f
        E 0 92 32 7f
        E 144 82 32 00
        E 32 b2 0b 7f
        E 0 92 34 7f
        E 144 82 34 00
        E 48 b2 0b 7f
        E 0 92 2b 7f
        E 144 82 2b 00
        E 32 b2 0b 7f
        E 0 92 2d 7f
        E 144 82 2d 00
        E 16 b2 0b 7f
        E 0 92 2d 7f
        E 160 82 2d 00
        E 16 b2 0b 7f
        E 0 92 2d 7f
        E 160 82 2d 00
        E 32 b2 0b 7f
        E 0 92 2d 7f
        E 144 82 2d 00
        E 16 b2 0b 7f
        E 0 92 2d 7f
        E 160 82 2d 00
        E 32 b2 0b 7f
        E 0 92 2d 7f
        E 160 82 2d 00
        E 32 b2 0b 7f
        E 0 92 2d 7f
        E 160 82 2d 00
        E 16 b2 0b 7f
        E 0 92 2d 7f
        E 144 82 2d 00
        E 32 b2 0b 7f
        E 0 92 2d 7f
        E 160 82 2d 00
        E 16 b2 0b 7f
        E 0 92 2d 7f
        E 160 82 2d 00
        E 16 b2 0b 7f
        E 0 92 2d 7f
        E 144 82 2d 00
        E 32 b2 0b 7f
        E 0 92 2d 7f
        E 144 82 2d 00
        E 32 b2 0b 7f
        E 0 92 2d 7f
        E 144 82 2d 00
        E 32 b2 0b 7f
        E 0 92 2d 7f
        E 144 82 2d 00
        E 48 b2 0b 7f
        E 0 92 2d 7f
        E 144 82 2d 00
        E 32 b2 0b 7f
        E 0 92 2d 7f
        E 144 82 2d 00
        E 32 b2 0b 7f
        E 0 92 2d 7f
        E 144 82 2d 00
        E 32 b2 0b 7f
        E 0 92 2d 7f
        E 144 82 2d 00
        E 32 b2 0b 7f
        E 0 92 2d 7f
        E 144 82 2d 00
        E 32 b2 0b 7f
        E 0 92 2d 7f
        E 144 82 2d 00
        E 32 b2 0b 7f
        E 0 92 2d 7f
        E 144 82 2d 00
        E 32 b2 0b 7f
        E 0 92 2d 7f
        E 160 82 2d 00
        E 32 b2 0b 7f
        E 0 92 2d 7f
        E 160 82 2d 00
        E 16 b2 0b 7f
        E 0 92 2d 7f
        E 288 82 2d 00
        E 64 b2 0b 7f
        E 0 92 2d 7f
        E 144 82 2d 00
        E 32 b2 0b 7f
        E 0 92 2a 7f
        E 160 82 2a 00
        E 16 b2 0b 7f
        E 0 92 2a 7f
        E 144 82 2a 00
        E 32 b2 0b 7f
        E 0 92 2b 7f
        E 144 82 2b 00
        E 48 b2 0b 7f
        E 0 92 2b 7f
        E 160 82 2b 00
        E 16 b2 0b 7f
        E 0 92 26 7f
        E 144 82 26 00
        E 32 b2 0b 7f
        E 0 92 28 7f
        E 144 82 28 00
        E 32 b2 0b 7f
        E 0 92 2d 7f
        E 144 82 2d 00
        E 32 b2 0b 7f
        E 0 92 2d 7f
        E 144 82 2d 00
        E 32 b2 0b 7f
        E 0 92 2d 7f
        E 160 82 2d 00
        E 16 b2 0b 7f
        E 0 92 2d 7f
        E 160 82 2d 00
        E 16 b2 0b 7f
        E 0 92 2d 7f
        E 160 82 2d 00
        E 32 b2 0b 7f
        E 0 92 2d 7f
        E 160 82 2d 00
        E 16 b2 0b 7f
        E 0 92 2d 7f
        E 160 82 2d 00
        E 16 b2 0b 7f
        E 0 92 2d 7f
        E 160 82 2d 00
        E 16 b2 0b 7f
        E 0 92 2d 7f
        E 160 82 2d 00
        E 16 b2 0b 7f
        E 0 92 2d 7f
        E 144 82 2d 00
        E 32 b2 0b 7f
        E 0 92 2d 7f
        E 160 82 2d 00
        E 16 b2 0b 7f
        E 0 92 2d 7f
        E 160 82 2d 00
        E 16 b2 0b 7f
        E 0 92 2d 7f
        E 160 82 2d 00
        E 32 b2 0b 7f
        E 0 92 2d 7f
        E 144 82 2d 00
        E 32 b2 0b 7f
        E 0 92 2d 7f
        E 144 82 2d 00
        E 32 b2 0b 7f
        E 0 92 2d 7f
        E 144 82 2d 00
        E 32 b2 0b 7f
        E 0 92 2d 7f
        E 144 82 2d 00
        E 32 b2 0b 7f
        E 0 92 2d 7f
        E 144 82 2d 00
        E 32 b2 0b 7f
        E 0 92 2d 7f
        E 160 82 2d 00
        E 16 b2 0b 7f
        E 0 92 2d 7f
        E 160 82 2d 00
        E 32 b2 0b 7f
        E 0 92 2d 7f
        E 160 82 2d 00
        E 16 b2 0b 7f
        E 0 92 2d 7f
        E 144 82 2d 00
        E 32 b2 0b 7f
        E 0 92 2d 7f
        E 160 82 2d 00
        E 32 b2 0b 7f
        E 0 92 2d 7f
        E 144 82 2d 00
        E 32 b2 0b 7f
        E 0 92 2d 7f
        E 144 82 2d 00
        E 32 b2 0b 7f
        E 0 92 2d 7f
        E 144 82 2d 00
        E 32 b2 0b 7f
        E 0 92 2d 7f
        E 144 82 2d 00
        E 32 b2 0b 7f
        E 0 92 2d 7f
        E 144 82 2d 00
        E 48 b2 0b 7f
        E 0 92 2d 7f
        E 144 82 2d 00
        E 32 b2 0b 7f
        E 0 92 2d 7f
        E 144 82 2d 00
        E 32 b2 0b 7f
        E 0 92 2d 7f
        E 144 82 2d 00
        E 32 b2 0b 7f
        E 0 92 30 7f
        E 144 82 30 00
        E 32 b2 0b 7f
        E 0 92 30 7f
        E 160 82 30 00
        E 16 b2 0b 7f
        E 0 92 30 7f
        E 144 82 30 00
        E 32 b2 0b 7f
        E 0 92 30 7f
        E 160 82 30 00
        E 16 b2 0b 7f
        E 0 92 30 7f
        E 144 82 30 00
        E 48 b2 0b 7f
        E 0 92 30 7f
        E 144 82 30 00
        E 32 b2 0b 7f
        E 0 92 30 7f
        E 144 82 30 00
        E 48 b2 0b 7f
        E 0 92 30 7f
        E 160 82 30 00
        E 32 b2 0b 7f
        E 0 92 30 7f
        E 144 82 30 00
        E 16 b2 0b 7f
        E 0 92 30 7f
        E 160 82 30 00
        E 16 b2 0b 7f
        E 0 92 30 7f
        E 160 82 30 00
        E 16 b2 0b 7f
        E 0 92 30 7f
        E 160 82 30 00
        E 32 b2 0b 7f
        E 0 92 30 7f
        E 160 82 30 00
        E 16 b2 0b 7f
        E 0 92 30 7f
        E 160 82 30 00
        E 16 b2 0b 7f
        E 0 92 30 7f
        E 160 82 30 00
        E 16 b2 0b 7f
        E 0 92 30 7f
        E 160 82 30 00
        E 16 b2 0b 7f
        E 0 92 30 7f
        E 160 82 30 00
        E 16 b2 0b 7f
        E 0 92 28 7f
        E 160 82 28 00
        E 16 b2 0b 7f
        E 0 92 28 7f
        E 160 82 28 00
        E 16 b2 0b 7f
        E 0 92 2a 7f
        E 160 82 2a 00
        E 48 b2 0b 7f
        E 0 92 2a 7f
        E 144 82 2a 00
        E 16 b2 0b 7f
        E 0 92 2b 7f
        E 160 82 2b 00
        E 16 b2 0b 7f
        E 0 92 2b 7f
        E 160 82 2b 00
        E 16 b2 0b 7f
        E 0 92 2d 7f
        E 160 82 2d 00
        E 16 b2 0b 7f
        E 0 92 28 7f
        E 288 82 28 00
        E 64 b2 0b 7f
        E 0 92 28 7f
        E 160 82 28 00
        E 16 b2 0b 7f
        E 0 92 2a 7f
        E 160 82 2a 00
        E 32 b2 0b 7f
        E 0 92 2a 7f
        E 160 82 2a 00
        E 32 b2 0b 7f
        E 0 92 2b 7f
        E 144 82 2b 00
        E 16 b2 0b 7f
        E 0 92 2b 7f
        E 160 82 2b 00
        E 16 b2 0b 7f
        E 0 92 2f 7f
        E 160 82 2f 00
        E 16 b2 0b 7f
        E 0 92 2b 7f
        E 160 82 2b 00
        E 32 b2 0b 7f
        E 0 92 2d 7f
        E 144 82 2d 00
        E 16 b2 0b 7f
        E 0 92 2d 7f
        E 160 82 2d 00
        E 32 b2 0b 7f
        E 0 92 2a 7f
        E 160 82 2a 00
        E 16 b2 0b 7f
        E 0 92 2a 7f
        E 160 82 2a 00
        E 32 b2 0b 7f
        E 0 92 2b 7f
        E 144 82 2b 00
        E 16 b2 0b 7f
        E 0 92 26 7f
        E 160 82 26 00
        E 16 b2 0b 7f
        E 0 92 28 7f
        E 160 82 28 00
        E 16 b2 0b 7f
        E 0 92 2d 7f
        E 288 82 2d 00
        E 80 b2 0b 7f
        E 0 92 2d 7f
        E 144 82 2d 00
        E 48 b2 0b 7f
        E 0 92 2f 7f
        E 144 82 2f 00
        E 32 b2 0b 7f
        E 0 92 2f 7f
        E 144 82 2f 00
        E 32 b2 0b 7f
        E 0 92 30 7f
        E 160 82 30 00
        E 16 b2 0b 7f
        E 0 92 32 7f
        E 144 82 32 00
        E 32 b2 0b 7f
        E 0 92 34 7f
        E 160 82 34 00
        E 16 b2 0b 7f
        E 0 92 2b 7f
        E 160 82 2b 00
        E 16 b2 0b 7f
        E 0 92 28 7f
        E 160 82 28 00
        E 16 b2 0b 7f
        E 0 92 28 7f
        E 160 82 28 00
        E 32 b2 0b 7f
        E 0 92 2a 7f
        E 160 82 2a 00
        E 32 b2 0b 7f
        E 0 92 2a 7f
        E 144 82 2a 00
        E 32 b2 0b 7f
        E 0 92 2b 7f
        E 144 82 2b 00
        E 16 b2 0b 7f
        E 0 92 2b 7f
        E 160 82 2b 00
        E 32 b2 0b 7f
        E 0 92 2d 7f
        E 144 82 2d 00
        E 16 b2 0b 7f
        E 0 92 28 7f
        E 288 82 28 00
        E 80 b2 0b 7f
        E 0 92 28 7f
        E 160 82 28 00
        E 16 b2 0b 7f
        E 0 92 2a 7f
        E 160 82 2a 00
        E 16 b2 0b 7f
        E 0 92 2a 7f
        E 160 82 2a 00
        E 32 b2 0b 7f
        E 0 92 2b 7f
        E 144 82 2b 00
        E 32 b2 0b 7f
        E 0 92 2b 7f
        E 144 82 2b 00
        E 32 b2 0b 7f
        E 0 92 2f 7f
        E 144 82 2f 00
        E 32 b2 0b 7f
        E 0 92 2b 7f
        E 144 82 2b 00
        E 32 b2 0b 7f
        E 0 92 2d 7f
        E 144 82 2d 00
        E 48 b2 0b 7f
        E 0 92 2d 7f
        E 144 82 2d 00
        E 32 b2 0b 7f
        E 0 92 2a 7f
        E 144 82 2a 00
        E 32 b2 0b 7f
        E 0 92 2a 7f
        E 144 82 2a 00
        E 32 b2 0b 7f
        E 0 92 2b 7f
        E 144 82 2b 00
        E 32 b2 0b 7f
        E 0 92 26 7f
        E 144 82 26 00
        E 32 b2 0b 7f
        E 0 92 28 7f
        E 144 82 28 00
        E 16 b2 0b 7f
        E 0 92 2d 7f
        E 288 82 2d 00
        E 80 b2 0b 7f
        E 0 92 2d 7f
        E 160 82 2d 00
        E 16 b2 0b 7f
        E 0 92 2f 7f
        E 160 82 2f 00
        E 32 b2 0b 7f
        E 0 92 2f 7f
        E 144 82 2f 00
        E 32 b2 0b 7f
        E 0 92 30 7f
        E 144 82 30 00
        E 32 b2 0b 7f
        E 0 92 32 7f
        E 144 82 32 00
        E 32 b2 0b 7f
        E 0 92 34 7f
        E 144 82 34 00
        E 32 b2 0b 7f
        E 0 92 2b 7f
        E 144 82 2b 00
        E 32 b2 0b 7f
        E 0 92 2d 7f
        E 160 82 2d 00
        E 32 b2 0b 7f
        E 0 92 2d 7f
        E 144 82 2d 00
        E 16 b2 0b 7f
        E 0 92 2d 7f
        E 160 82 2d 00
        E 16 b2 0b 7f
        E 0 92 2d 7f
        E 160 82 2d 00
        E 16 b2 0b 7f
        E 0 92 2d 7f
        E 160 82 2d 00
        E 16 b2 0b 7f
        E 0 92 2d 7f
        E 160 82 2d 00
        E 16 b2 0b 7f
        E 0 92 2d 7f
        E 160 82 2d 00
        E 16 b2 0b 7f
        E 0 92 2d 7f
        E 160 82 2d 00
        E 32 b2 0b 7f
        E 0 92 2d 7f
        E 160 82 2d 00
        E 16 b2 0b 7f
        E 0 92 2d 7f
        E 160 82 2d 00
        E 16 b2 0b 7f
        E 0 92 2d 7f
        E 160 82 2d 00
        E 16 b2 0b 7f
        E 0 92 2d 7f
        E 160 82 2d 00
        E 16 b2 0b 7f
        E 0 92 2d 7f
        E 160 82 2d 00
        E 16 b2 0b 7f
        E 0 92 2d 7f
        E 160 82 2d 00
        E 32 b2 0b 7f
        E 0 92 2d 7f
        E 144 82 2d 00
        E 16 b2 0b 7f
        E 0 92 2d 7f
        E 160 82 2d 00
        E 32 b2 0b 7f
        E 0 92 2d 7f
        E 160 82 2d 00
        E 16 b2 0b 7f
        E 0 92 2d 7f
        E 160 82 2d 00
        E 16 b2 0b 7f
        E 0 92 2d 7f
        E 160 82 2d 00
        E 16 b2 0b 7f
        E 0 92 2d 7f
        E 144 82 2d 00
        E 32 b2 0b 7f
        E 0 92 2d 7f
        E 144 82 2d 00
        E 32 b2 0b 7f
        E 0 92 2d 7f
        E 144 82 2d 00
        E 32 b2 0b 7f
        E 0 92 2d 7f
        E 144 82 2d 00
        E 48 b2 0b 7f
        E 0 92 2d 7f
        E 288 82 2d 00
        E 64 b2 0b 7f
        E 0 92 2d 7f
        E 160 82 2d 00
        E 16 b2 0b 7f
        E 0 92 2a 7f
        E 160 82 2a 00
        E 16 b2 0b 7f
        E 0 92 2a 7f
        E 160 82 2a 00
        E 16 b2 0b 7f
        E 0 92 2b 7f
        E 144 82 2b 00
        E 32 b2 0b 7f
        E 0 92 2b 7f
        E 160 82 2b 00
        E 16 b2 0b 7f
        E 0 92 26 7f
        E 160 82 26 00
        E 32 b2 0b 7f
        E 0 92 28 7f
        E 144 82 28 00
        E 32 b2 0b 7f
        E 0 92 2d 7f
        E 144 82 2d 00
        E 32 b2 0b 7f
        E 0 92 2d 7f
        E 144 82 2d 00
        E 32 b2 0b 7f
        E 0 92 2d 7f
        E 144 82 2d 00
        E 32 b2 0b 7f
        E 0 92 2d 7f
        E 144 82 2d 00
        E 32 b2 0b 7f
        E 0 92 2d 7f
        E 144 82 2d 00
        E 32 b2 0b 7f
        E 0 92 2d 7f
        E 144 82 2d 00
        E 32 b2 0b 7f
        E 0 92 2d 7f
        E 144 82 2d 00
        E 48 b2 0b 7f
        E 0 92 2d 7f
        E 160 82 2d 00
        E 16 b2 0b 7f
        E 0 92 2d 7f
        E 144 82 2d 00
        E 32 b2 0b 7f
        E 0 92 2d 7f
        E 160 82 2d 00
        E 16 b2 0b 7f
        E 0 92 2d 7f
        E 160 82 2d 00
        E 16 b2 0b 7f
        E 0 92 2d 7f
        E 160 82 2d 00
        E 16 b2 0b 7f
        E 0 92 2d 7f
        E 160 82 2d 00
        E 16 b2 0b 7f
        E 0 92 2d 7f
        E 144 82 2d 00
        E 48 b2 0b 7f
        E 0 92 2d 7f
        E 144 82 2d 00
        E 32 b2 0b 7f
        E 0 92 2d 7f
        E 144 82 2d 00
        E 32 b2 0b 7f
        E 0 92 2d 7f
        E 144 82 2d 00
        E 32 b2 0b 7f
        E 0 92 2d 7f
        E 144 82 2d 00
        E 32 b2 0b 7f
        E 0 92 2d 7f
        E 144 82 2d 00
        E 32 b2 0b 7f
        E 0 92 2d 7f
        E 144 82 2d 00
        E 32 b2 0b 7f
        E 0 92 2d 7f
        E 144 82 2d 00
        E 32 b2 0b 7f
        E 0 92 2d 7f
        E 144 82 2d 00
        E 48 b2 0b 7f
        E 0 92 2d 7f
        E 160 82 2d 00
        E 16 b2 0b 7f
        E 0 92 2d 7f
        E 160 82 2d 00
        E 16 b2 0b 7f
        E 0 92 2d 7f
        E 160 82 2d 00
        E 16 b2 0b 7f
        E 0 92 2d 7f
        E 144 82 2d 00
        E 32 b2 0b 7f
        E 0 92 2d 7f
        E 160 82 2d 00
        E 16 b2 0b 7f
        E 0 92 2d 7f
        E 160 82 2d 00
        E 16 b2 0b 7f
        E 0 92 2d 7f
        E 144 82 2d 00
        E 80 b2 0b 7f
        E 0 92 2d 7f
        E 144 82 2d 00
        E 112 b2 0b 7f
        E 0 92 2e 7f
        E 144 82 2e 00
        E 96 b2 0b 7f
        E 0 92 2f 7f
        E 144 82 2f 00
        E 32 b2 0b 7f
        E 0 92 2f 7f
        E 144 82 2f 00
        E 32 b2 0b 7f
        E 0 92 2f 7f
        E 144 82 2f 00
        E 32 b2 0b 7f
        E 0 92 2f 7f
        E 144 82 2f 00
        E 32 b2 0b 7f
        E 0 92 2f 7f
        E 160 82 2f 00
        E 32 b2 0b 7f
        E 0 92 2f 7f
        E 144 82 2f 00
        E 32 b2 0b 7f
        E 0 92 2f 7f
        E 160 82 2f 00
        E 16 b2 0b 7f
        E 0 92 2f 7f
        E 160 82 2f 00
        E 16 b2 0b 7f
        E 0 92 2f 7f
        E 160 82 2f 00
        E 16 b2 0b 7f
        E 0 92 2f 7f
        E 160 82 2f 00
        E 16 b2 0b 7f
        E 0 92 2f 7f
        E 144 82 2f 00
        E 32 b2 0b 7f
        E 0 92 2f 7f
        E 144 82 2f 00
        E 32 b2 0b 7f
        E 0 92 2f 7f
        E 144 82 2f 00
        E 48 b2 0b 7f
        E 0 92 2f 7f
        E 144 82 2f 00
        E 32 b2 0b 7f
        E 0 92 2f 7f
        E 144 82 2f 00
        E 32 b2 0b 7f
        E 0 92 2f 7f
        E 144 82 2f 00
        E 32 b2 0b 7f
        E 0 92 2f 7f
        E 144 82 2f 00
        E 32 b2 0b 7f
        E 0 92 2f 7f
        E 144 82 2f 00
        E 32 b2 0b 7f
        E 0 92 2f 7f
        E 144 82 2f 00
        E 32 b2 0b 7f
        E 0 92 2f 7f
        E 160 82 2f 00
        E 16 b2 0b 7f
        E 0 92 2f 7f
        E 160 82 2f 00
        E 32 b2 0b 7f
        E 0 92 2f 7f
        E 160 82 2f 00
        E 16 b2 0b 7f
        E 0 92 2f 7f
        E 144 82 2f 00
        E 32 b2 0b 7f
        E 0 92 2f 7f
        E 288 82 2f 00
        E 64 b2 0b 7f
        E 0 92 2f 7f
        E 160 82 2f 00
        E 16 b2 0b 7f
        E 0 92 2c 7f
        E 160 82 2c 00
        E 16 b2 0b 7f
        E 0 92 2c 7f
        E 144 82 2c 00
        E 48 b2 0b 7f
        E 0 92 2d 7f
        E 144 82 2d 00
        E 32 b2 0b 7f
        E 0 92 2d 7f
        E 144 82 2d 00
        E 32 b2 0b 7f
        E 0 92 28 7f
        E 144 82 28 00
        E 32 b2 0b 7f
        E 0 92 2a 7f
        E 144 82 2a 00
        E 32 b2 0b 7f
        E 0 92 2f 7f
        E 144 82 2f 00
        E 32 b2 0b 7f
        E 0 92 2f 7f
        E 144 82 2f 00
        E 32 b2 0b 7f
        E 0 92 2f 7f
        E 160 82 2f 00
        E 16 b2 0b 7f
        E 0 92 2f 7f
        E 144 82 2f 00
        E 48 b2 0b 7f
        E 0 92 2f 7f
        E 160 82 2f 00
        E 16 b2 0b 7f
        E 0 92 2f 7f
        E 160 82 2f 00
        E 16 b2 0b 7f
        E 0 92 2f 7f
        E 160 82 2f 00
        E 16 b2 0b 7f
        E 0 92 2f 7f
        E 144 82 2f 00
        E 32 b2 0b 7f
        E 0 92 2f 7f
        E 160 82 2f 00
        E 16 b2 0b 7f
        E 0 92 2f 7f
        E 144 82 2f 00
        E 32 b2 0b 7f
        E 0 92 2f 7f
        E 144 82 2f 00
        E 32 b2 0b 7f
        E 0 92 2f 7f
        E 144 82 2f 00
        E 48 b2 0b 7f
        E 0 92 2f 7f
        E 144 82 2f 00
        E 32 b2 0b 7f
        E 0 92 2f 7f
        E 144 82 2f 00
        E 32 b2 0b 7f
        E 0 92 2f 7f
        E 144 82 2f 00
        E 32 b2 0b 7f
        E 0 92 2f 7f
        E 144 82 2f 00
        E 32 b2 0b 7f
        E 0 92 2f 7f
        E 144 82 2f 00
        E 32 b2 0b 7f
        E 0 92 2f 7f
        E 160 82 2f 00
        E 32 b2 0b 7f
        E 0 92 2f 7f
        E 160 82 2f 00
        E 32 b2 0b 7f
        E 0 92 2f 7f
        E 160 82 2f 00
        E 16 b2 0b 7f
        E 0 92 2f 7f
        E 160 82 2f 00
        E 16 b2 0b 7f
        E 0 92 2f 7f
        E 160 82 2f 00
        E 16 b2 0b 7f
        E 0 92 2f 7f
        E 160 82 2f 00
        E 16 b2 0b 7f
        E 0 92 2f 7f
        E 144 82 2f 00
        E 32 b2 0b 7f
        E 0 92 2f 7f
        E 160 82 2f 00
        E 16 b2 0b 7f
        E 0 92 2f 7f
        E 160 82 2f 00
        E 16 b2 0b 7f
        E 0 92 2f 7f
        E 144 82 2f 00
        E 48 b2 0b 7f
        E 0 92 2f 7f
        E 144 82 2f 00
        E 32 b2 0b 7f
        E 0 92 2f 7f
        E 144 82 2f 00
        E 32 b2 0b 7f
        E 0 92 2f 7f
        E 144 82 2f 00
        E 32 b2 0b 7f
        E 0 92 2f 7f
        E 160 82 2f 00
        E 16 b2 0b 7f
        E 0 92 32 7f
        E 160 82 32 00
        E 16 b2 0b 7f
        E 0 92 32 7f
        E 160 82 32 00
        E 16 b2 0b 7f
        E 0 92 32 7f
        E 160 82 32 00
        E 32 b2 0b 7f
        E 0 92 32 7f
        E 144 82 32 00
        E 32 b2 0b 7f
        E 0 92 32 7f
        E 160 82 32 00
        E 16 b2 0b 7f
        E 0 92 32 7f
        E 160 82 32 00
        E 16 b2 0b 7f
        E 0 92 32 7f
        E 160 82 32 00
        E 32 b2 0b 7f
        E 0 92 32 7f
        E 144 82 32 00
        E 16 b2 0b 7f
        E 0 92 32 7f
        E 160 82 32 00
        E 16 b2 0b 7f
        E 0 92 32 7f
        E 160 82 32 00
        E 16 b2 0b 7f
        E 0 92 32 7f
        E 160 82 32 00
        E 48 b2 0b 7f
        E 0 92 32 7f
        E 144 82 32 00
        E 16 b2 0b 7f
        E 0 92 32 7f
        E 160 82 32 00
        E 16 b2 0b 7f
        E 0 92 32 7f
        E 160 82 32 00
        E 16 b2 0b 7f
        E 0 92 32 7f
        E 160 82 32 00
        E 16 b2 0b 7f
        E 0 92 32 7f
        E 160 82 32 00
        E 16 b2 0b 7f
        E 0 92 32 7f
        E 160 82 32 00
        E 16 b2 0b 7f
        E 0 92 32 7f
        E 160 82 32 00
        E 16 b2 0b 7f
        E 0 92 32 7f
        E 160 82 32 00
        E 48 b2 0b 7f
        E 0 92 32 7f
        E 144 82 32 00
        E 16 b2 0b 7f
        E 0 92 32 7f
        E 160 82 32 00
        E 16 b2 0b 7f
        E 0 92 32 7f
        E 160 82 32 00
        E 16 b2 0b 7f
        E 0 92 32 7f
        E 160 82 32 00
        E 16 b2 0b 7f
        E 0 92 32 7f
        E 160 82 32 00
        E 32 b2 0b 7f
        E 0 92 32 7f
        E 144 82 32 00
        E 16 b2 0b 7f
        E 0 92 32 7f
        E 160 82 32 00
        E 16 b2 0b 7f
        E 0 92 32 7f
        E 160 82 32 00
        E 48 b2 0b 7f
        E 0 92 32 7f
        E 144 82 32 00
        E 32 b2 0b 7f
        E 0 92 32 7f
        E 144 82 32 00
        E 32 b2 0b 7f
        E 0 92 32 7f
        E 144 82 32 00
        E 32 b2 0b 7f
        E 0 92 32 7f
        E 160 82 32 00
        E 16 b2 0b 7f
        E 0 92 32 7f
        E 160 82 32 00
        E 16 b2 0b 7f
        E 0 92 32 7f
        E 160 82 32 00
        E 0 ff 2f 00
      >
    >
  >
  <TRACK {6D10CC02-E06B-410B-9ADB-7E643D0471F5}
    NAME "NES - Noise / Drums [ch3]"
    PEAKCOL 11184810
    BEAT -1
    AUTOMODE 0
    PANLAWFLAGS 3
    VOLPAN 1 0 -1 -1 1
    MUTESOLO 0 0 0
    IPHASE 0
    PLAYOFFS 0 1
    ISBUS 0 0
    BUSCOMP 0 0 0 0 0
    SHOWINMIX 1 0.6667 0.5 1 0.5 0 0 0
    FIXEDLANES 9 0 0 0 0
    SEL 0
    REC 0 5088 1 0 0 0 0 0
    VU 2
    TRACKHEIGHT 0 0 0 0 0 0 0
    INQ 0 0 0 0.5 100 0 0 100
    NCHAN 2
    FX 1
    TRACKID {6D10CC02-E06B-410B-9ADB-7E643D0471F5}
    PERF 0
    MIDIOUT -1
    MAINSEND 1 0
    <FXCHAIN
      WNDRECT 24 52 700 560
      SHOW 0
      LASTSEL 0
      DOCKED 0
      BYPASS 0 0 0
      <JS "ReapNES Studio/ReapNES_Console.jsfx" ""
        2 15 1 10 80 10 100 2 1 15 1 5 60 10 80 1 1 0 50 0 0 15 1 0 100 0 0 0.500000 0.500000 0.400000 0.300000 0.800000 3 1 0 0 0 0 - - - - - - - - - - - - - - - - - - - - - - - - - -
      >
      FLOATPOS 0 0 0 0
      FXID {FA037888-0412-46F6-834C-8CAFE20234FF}
      WAK 0 0
    >
    <ITEM
      POSITION 0
      LENGTH 79.73561670000001
      LOOP 0
      ALLTAKES 0
      FADEIN 0 0 0 0 0 0 0
      FADEOUT 0 0 0 0 0 0 0
      MUTE 0 0
      SEL 0
      IGUID {B7C2D4F8-4AF0-43CB-A584-30A2F2456ACD}
      <SOURCE MIDI
        HASDATA 1 480 QN
        CCINTERP 32
        X 0 16 ff 03 0d 4e 6f 69 73 65 20 5b 64 72 75 6d 73 5d
        E 16 93 2a 28
        E 82016 83 2a 00
        E 0 ff 2f 00
      >
    >
  >
>