<REAPER_PROJECT 0.1 "7.27/win64" 1707000000
  <NOTES 0 2
    |ReapNES Studio Project
    |MIDI Import - Casino_Kid_title_rom_v1
  >
  RIPPLE 0
  GROUPOVERRIDE 0 0 0
  AUTOXFADE 129
  ENVATTACH 3
  POOLEDENVATTACH 0
  MIXERUIFLAGS 11 48
  ENVFADESZ10 40
  PEAKGAIN 1
  FEEDBACK 0
  PANLAW 1
  PROJOFFS 0 0 0
  MAXPROJLEN 0 0
  GRID 3199 8 1 8 1 0 0 0
  TIMEMODE 1 5 -1 30 0 0 -1
  VIDEO_CONFIG 0 0 65792
  PANMODE 3
  PANLAWFLAGS 3
  CURSOR 0
  ZOOM 100 0 0
  VZOOMEX 6 0
  USE_REC_CFG 0
  RECMODE 1
  SMPTESYNC 0 30 100 40 1000 300 0 0 1 0 0
  LOOP 0
  LOOPGRAN 0 4
  RECORD_PATH "Media" ""
  <RECORD_CFG
    ZXZhdxgAAQ==
  >
  <APPLYFX_CFG
  >
  RENDER_FILE ""
  RENDER_PATTERN ""
  RENDER_FMT 0 2 0
  RENDER_1X 0
  RENDER_RANGE 1 0 0 18 1000
  RENDER_RESAMPLE 3 0 1
  RENDER_ADDTOPROJ 0
  RENDER_STEMS 0
  RENDER_DITHER 0
  TIMELOCKMODE 1
  TEMPOENVLOCKMODE 1
  ITEMMIX 1
  DEFPITCHMODE 589824 0
  TAKELANE 1
  SAMPLERATE 44100 0 0
  <RENDER_CFG
    ZXZhdxgAAQ==
  >
  LOCK 1
  <METRONOME 6 2
    VOL 0.25 0.125
    BEATLEN 4
    FREQ 1760 880 1
    SAMPLES "" ""
    SPLIGNORE 0 0
    SPLDEF 2 660 "" 0
    SPLDEF 3 440 "" 0
    PATTERN 0 169
    PATTERNSTR ABBB
    MULT 1
  >
  GLOBAL_AUTO -1
  TEMPO 128.59999614200012 4 4
  PLAYRATE 1 0 0.25 4
  SELECTION 0 0
  SELECTION2 0 0
  MASTERAUTOMODE 0
  MASTERTRACKHEIGHT 0 0
  MASTERPEAKCOL 16576
  MASTERMUTESOLO 0
  MASTERTRACKVIEW 0 0.6667 0.5 0.5 0 0 0 0 0 0 0 0 0 0
  MASTERHWOUT 0 0 1 0 0 0 0 -1
  MASTER_NCH 2 2
  MASTER_VOLUME 1 0 -1 -1 1
  MASTER_PANMODE 3
  MASTER_PANLAWFLAGS 3
  MASTER_FX 1
  MASTER_SEL 0
  <MASTERPLAYSPEEDENV
    EGUID {7C9ED077-98E7-443B-B9DF-24C946218D67}
    ACT 0 -1
    VIS 0 1 1
    LANEHEIGHT 0 0
    ARM 0
    DEFSHAPE 0 -1 -1
  >
  <TEMPOENVEX
    EGUID {1AC1ACD1-E0A6-4875-9802-E017324F75F0}
    ACT 1 -1
    VIS 1 0 1
    LANEHEIGHT 0 0
    ARM 0
    DEFSHAPE 1 -1 -1
  >
  <PROJBAY
  >
  <TRACK {442CFDBE-9D37-4A4A-9AA0-D5BDF8452EB9}
    NAME "NES - Pulse 1 [ch0]"
    PEAKCOL 16576606
    BEAT -1
    AUTOMODE 0
    PANLAWFLAGS 3
    VOLPAN 1 0 -1 -1 1
    MUTESOLO 0 0 0
    IPHASE 0
    PLAYOFFS 0 1
    ISBUS 0 0
    BUSCOMP 0 0 0 0 0
    SHOWINMIX 1 0.6667 0.5 1 0.5 0 0 0
    FIXEDLANES 9 0 0 0 0
    SEL 1
    REC 1 5088 1 0 0 0 0 0
    VU 2
    TRACKHEIGHT 0 0 0 0 0 0 0
    INQ 0 0 0 0.5 100 0 0 100
    NCHAN 2
    FX 1
    TRACKID {442CFDBE-9D37-4A4A-9AA0-D5BDF8452EB9}
    PERF 0
    MIDIOUT -1
    MAINSEND 1 0
    <FXCHAIN
      WNDRECT 24 52 700 560
      SHOW 0
      LASTSEL 0
      DOCKED 0
      BYPASS 0 0 0
      <JS "ReapNES Studio/ReapNES_Console.jsfx" ""
        2 15 1 10 80 10 100 2 1 15 1 5 60 10 80 1 1 0 50 0 0 15 1 0 100 0 0 0.500000 0.500000 0.400000 0.300000 0.800000 0 1 0 0 0 0 - - - - - - - - - - - - - - - - - - - - - - - - - -
      >
      FLOATPOS 0 0 0 0
      FXID {835A509E-6A1F-4F62-BF2F-0DF28CAAC119}
      WAK 0 0
    >
    <ITEM
      POSITION 0
      LENGTH 6.1119753
      LOOP 0
      ALLTAKES 0
      FADEIN 0 0 0 0 0 0 0
      FADEOUT 0 0 0 0 0 0 0
      MUTE 0 0
      SEL 0
      IGUID {6FB2EEB7-7F95-4145-8BC7-B31C960F7636}
      <SOURCE MIDI
        HASDATA 1 480 QN
        CCINTERP 32
        E 0 c0 50
        E 0 b0 0c 60
        E 0 b0 0b 6e
        E 0 90 37 6e
        E 144 b0 0b 66
        E 64 b0 0b 5d
        E 64 b0 0b 55
        E 64 b0 0b 4c
        E 48 b0 0b 6e
        E 0 80 37 00
        E 0 90 39 6e
        E 32 b0 0b 66
        E 64 b0 0b 5d
        E 32 b0 0b 6e
        E 0 80 39 00
        E 0 90 37 6e
        E 32 b0 0b 66
        E 64 b0 0b 5d
        E 32 b0 0b 6e
        E 0 80 37 00
        E 0 90 35 6e
        E 32 b0 0b 66
        E 64 b0 0b 5d
        E 32 b0 0b 6e
        E 0 80 35 00
        E 0 90 37 6e
        E 240 b0 0b 66
        E 64 b0 0b 5d
        E 64 b0 0b 55
        E 64 b0 0b 4c
        E 64 b0 0b 44
        E 64 b0 0b 3b
        E 64 b0 0b 33
        E 64 b0 0b 2a
        E 64 b0 0b 22
        E 16 b0 0b 6e
        E 144 b0 0b 66
        E 64 b0 0b 5d
        E 64 b0 0b 55
        E 64 b0 0b 4c
        E 48 b0 0b 6e
        E 0 80 37 00
        E 0 90 39 6e
        E 32 b0 0b 66
        E 64 b0 0b 5d
        E 32 b0 0b 6e
        E 0 80 39 00
        E 0 90 37 6e
        E 32 b0 0b 66
        E 64 b0 0b 5d
        E 32 b0 0b 6e
        E 0 80 37 00
        E 0 90 35 6e
        E 32 b0 0b 66
        E 64 b0 0b 5d
        E 32 b0 0b 6e
        E 0 80 35 00
        E 0 90 37 6e
        E 240 b0 0b 66
        E 64 b0 0b 5d
        E 64 b0 0b 55
        E 64 b0 0b 4c
        E 64 b0 0b 44
        E 64 b0 0b 3b
        E 64 b0 0b 33
        E 64 b0 0b 2a
        E 64 b0 0b 22
        E 16 b0 0b 6e
        E 0 80 37 00
        E 0 90 32 6e
        E 144 b0 0b 66
        E 64 b0 0b 5d
        E 64 b0 0b 55
        E 64 b0 0b 4c
        E 48 b0 0b 6e
        E 32 b0 0b 66
        E 64 b0 0b 5d
        E 32 b0 0b 6e
        E 0 80 32 00
        E 0 90 34 6e
        E 32 b0 0b 66
        E 64 b0 0b 5d
        E 32 b0 0b 6e
        E 0 80 34 00
        E 0 90 3b 6e
        E 32 b0 0b 66
        E 64 b0 0b 5d
        E 32 b0 0b 6e
        E 0 80 3b 00
        E 0 90 39 6e
        E 144 b0 0b 66
        E 64 b0 0b 5d
        E 64 b0 0b 55
        E 64 b0 0b 4c
        E 48 b0 0b 6e
        E 32 b0 0b 66
        E 64 b0 0b 5d
        E 32 b0 0b 6e
        E 0 80 39 00
        E 0 90 37 6e
        E 32 b0 0b 66
        E 64 b0 0b 5d
        E 32 b0 0b 6e
        E 0 80 37 00
        E 0 90 36 6e
        E 32 b0 0b 66
        E 64 b0 0b 5d
        E 32 b0 0b 6e
        E 0 80 36 00
        E 0 90 37 6e
        E 144 b0 0b 66
        E 64 b0 0b 5d
        E 64 b0 0b 55
        E 64 b0 0b 4c
        E 48 b0 0b 6e
        E 32 b0 0b 66
        E 64 b0 0b 5d
        E 32 b0 0b 6e
        E 0 80 37 00
        E 0 90 36 6e
        E 32 b0 0b 66
        E 64 b0 0b 5d
        E 32 b0 0b 6e
        E 0 80 36 00
        E 0 90 37 6e
        E 32 b0 0b 66
        E 64 b0 0b 5d
        E 32 b0 0b 6e
        E 32 b0 0b 66
        E 64 b0 0b 5d
        E 32 b0 0b 6e
        E 0 80 37 00
        E 0 90 32 6e
        E 32 b0 0b 66
        E 64 b0 0b 5d
        E 32 b0 0b 6e
        E 0 80 32 00
        E 0 90 36 6e
        E 32 b0 0b 66
        E 64 b0 0b 5d
        E 32 b0 0b 6e
        E 0 80 36 00
        E 0 90 39 6e
        E 32 b0 0b 66
        E 64 b0 0b 5d
        E 32 b0 0b 6e
        E 0 80 39 00
        E 0 90 37 6e
        E 32 b0 0b 66
        E 64 b0 0b 5d
        E 32 b0 0b 6e
        E 0 80 37 00
        E 0 90 34 6e
        E 32 b0 0b 66
        E 64 b0 0b 5d
        E 32 b0 0b 6e
        E 0 80 34 00
        E 0 90 32 6e
        E 144 80 32 00
        E 0 b0 7b 00
        E 0 ff 2f 00
      >
    >
  >
  <TRACK {BFF0BD8E-5006-4B3A-AE78-D387B4A9EDD9}
    NAME "NES - Pulse 2 [ch1]"
    PEAKCOL 10092441
    BEAT -1
    AUTOMODE 0
    PANLAWFLAGS 3
    VOLPAN 1 0 -1 -1 1
    MUTESOLO 0 0 0
    IPHASE 0
    PLAYOFFS 0 1
    ISBUS 0 0
    BUSCOMP 0 0 0 0 0
    SHOWINMIX 1 0.6667 0.5 1 0.5 0 0 0
    FIXEDLANES 9 0 0 0 0
    SEL 0
    REC 0 5088 1 0 0 0 0 0
    VU 2
    TRACKHEIGHT 0 0 0 0 0 0 0
    INQ 0 0 0 0.5 100 0 0 100
    NCHAN 2
    FX 1
    TRACKID {BFF0BD8E-5006-4B3A-AE78-D387B4A9EDD9}
    PERF 0
    MIDIOUT -1
    MAINSEND 1 0
    <FXCHAIN
      WNDRECT 24 52 700 560
      SHOW 0
      LASTSEL 0
      DOCKED 0
      BYPASS 0 0 0
      <JS "ReapNES Studio/ReapNES_Console.jsfx" ""
        2 15 1 10 80 10 100 2 1 15 1 5 60 10 80 1 1 0 50 0 0 15 1 0 100 0 0 0.500000 0.500000 0.400000 0.300000 0.800000 1 1 0 0 0 0 - - - - - - - - - - - - - - - - - - - - - - - - - -
      >
      FLOATPOS 0 0 0 0
      FXID {2E2E8168-1072-4253-BD71-DA15F9F20E03}
      WAK 0 0
    >
    <ITEM
      POSITION 0
      LENGTH 6.1119753
      LOOP 0
      ALLTAKES 0
      FADEIN 0 0 0 0 0 0 0
      FADEOUT 0 0 0 0 0 0 0
      MUTE 0 0
      SEL 0
      IGUID {C155F4AD-1BA6-4F39-8656-B393EA505B3D}
      <SOURCE MIDI
        HASDATA 1 480 QN
        CCINTERP 32
        E 0 c1 51
        E 0 b1 0c 60
        E 0 b1 0b 55
        E 0 91 30 55
        E 144 b1 0b 4c
        E 64 b1 0b 44
        E 64 b1 0b 3b
        E 64 b1 0b 33
        E 48 b1 0b 55
        E 144 b1 0b 4c
        E 64 b1 0b 44
        E 64 b1 0b 3b
        E 64 b1 0b 33
        E 48 b1 0b 55
        E 240 b1 0b 4c
        E 64 b1 0b 44
        E 64 b1 0b 3b
        E 64 b1 0b 33
        E 64 b1 0b 2a
        E 64 b1 0b 22
        E 64 b1 0b 19
        E 64 b1 0b 11
        E 64 b1 0b 08
        E 16 b1 0b 55
        E 144 b1 0b 4c
        E 64 b1 0b 44
        E 64 b1 0b 3b
        E 64 b1 0b 33
        E 48 b1 0b 55
        E 144 b1 0b 4c
        E 64 b1 0b 44
        E 64 b1 0b 3b
        E 64 b1 0b 33
        E 48 b1 0b 55
        E 240 b1 0b 4c
        E 64 b1 0b 44
        E 64 b1 0b 3b
        E 64 b1 0b 33
        E 64 b1 0b 2a
        E 64 b1 0b 22
        E 64 b1 0b 19
        E 64 b1 0b 11
        E 64 b1 0b 08
        E 16 b1 0b 55
        E 0 81 30 00
        E 0 91 2d 55
        E 144 b1 0b 4c
        E 64 b1 0b 44
        E 64 b1 0b 3b
        E 64 b1 0b 33
        E 48 b1 0b 55
        E 32 b1 0b 4c
        E 64 b1 0b 44
        E 32 b1 0b 55
        E 32 b1 0b 4c
        E 64 b1 0b 44
        E 32 b1 0b 55
        E 0 81 2d 00
        E 0 91 32 55
        E 32 b1 0b 4c
        E 64 b1 0b 44
        E 32 b1 0b 55
        E 0 81 32 00
        E 0 91 30 55
        E 144 b1 0b 4c
        E 64 b1 0b 44
        E 64 b1 0b 3b
        E 64 b1 0b 33
        E 48 b1 0b 55
        E 32 b1 0b 4c
        E 64 b1 0b 44
        E 32 b1 0b 55
        E 0 81 30 00
        E 0 91 2f 55
        E 32 b1 0b 4c
        E 64 b1 0b 44
        E 32 b1 0b 55
        E 0 81 2f 00
        E 0 91 2d 55
        E 32 b1 0b 4c
        E 64 b1 0b 44
        E 32 b1 0b 55
        E 0 81 2d 00
        E 0 91 2f 55
        E 144 b1 0b 4c
        E 64 b1 0b 44
        E 64 b1 0b 3b
        E 64 b1 0b 33
        E 48 b1 0b 55
        E 32 b1 0b 4c
        E 64 b1 0b 44
        E 32 b1 0b 55
        E 0 81 2f 00
        E 0 91 2d 55
        E 32 b1 0b 4c
        E 64 b1 0b 44
        E 32 b1 0b 55
        E 0 81 2d 00
        E 0 91 2f 55
        E 32 b1 0b 4c
        E 64 b1 0b 44
        E 32 b1 0b 55
        E 0 81 2f 00
        E 0 91 34 55
        E 32 b1 0b 4c
        E 64 b1 0b 44
        E 32 b1 0b 55
        E 0 81 34 00
        E 0 91 2d 55
        E 32 b1 0b 4c
        E 64 b1 0b 44
        E 32 b1 0b 55
        E 32 b1 0b 4c
        E 64 b1 0b 44
        E 32 b1 0b 55
        E 0 81 2d 00
        E 0 91 34 55
        E 32 b1 0b 4c
        E 64 b1 0b 44
        E 32 b1 0b 55
        E 32 b1 0b 4c
        E 64 b1 0b 44
        E 32 b1 0b 55
        E 0 81 34 00
        E 0 91 31 55
        E 32 b1 0b 4c
        E 64 b1 0b 44
        E 32 b1 0b 55
        E 0 81 31 00
        E 0 91 2d 55
        E 144 81 2d 00
        E 0 b1 7b 00
        E 0 ff 2f 00
      >
    >
  >
  <TRACK {B878D0CC-ECE5-446F-BD08-994DBB00AF6A}
    NAME "NES - Triangle [ch2]"
    PEAKCOL 16744192
    BEAT -1
    AUTOMODE 0
    PANLAWFLAGS 3
    VOLPAN 1 0 -1 -1 1
    MUTESOLO 0 0 0
    IPHASE 0
    PLAYOFFS 0 1
    ISBUS 0 0
    BUSCOMP 0 0 0 0 0
    SHOWINMIX 1 0.6667 0.5 1 0.5 0 0 0
    FIXEDLANES 9 0 0 0 0
    SEL 0
    REC 0 5088 1 0 0 0 0 0
    VU 2
    TRACKHEIGHT 0 0 0 0 0 0 0
    INQ 0 0 0 0.5 100 0 0 100
    NCHAN 2
    FX 1
    TRACKID {B878D0CC-ECE5-446F-BD08-994DBB00AF6A}
    PERF 0
    MIDIOUT -1
    MAINSEND 1 0
    <FXCHAIN
      WNDRECT 24 52 700 560
      SHOW 0
      LASTSEL 0
      DOCKED 0
      BYPASS 0 0 0
      <JS "ReapNES Studio/ReapNES_Console.jsfx" ""
        2 15 1 10 80 10 100 2 1 15 1 5 60 10 80 1 1 0 50 0 0 15 1 0 100 0 0 0.500000 0.500000 0.400000 0.300000 0.800000 2 1 0 0 0 0 - - - - - - - - - - - - - - - - - - - - - - - - - -
      >
      FLOATPOS 0 0 0 0
      FXID {96F58AF6-80EE-4D33-A1D2-6A534AF34F04}
      WAK 0 0
    >
    <ITEM
      POSITION 0
      LENGTH 6.1119753
      LOOP 0
      ALLTAKES 0
      FADEIN 0 0 0 0 0 0 0
      FADEOUT 0 0 0 0 0 0 0
      MUTE 0 0
      SEL 0
      IGUID {EDC79622-D1B2-4C27-AC91-AB70ACB47B56}
      <SOURCE MIDI
        HASDATA 1 480 QN
        CCINTERP 32
        E 0 c2 26
        E 1152 b2 0b 7f
        E 0 92 24 7f
        E 384 82 24 00
        E 0 b2 0b 7f
        E 0 92 30 7f
        E 688 82 30 00
        E 80 b2 0b 7f
        E 0 92 2b 7f
        E 688 82 2b 00
        E 80 b2 0b 7f
        E 0 92 26 7f
        E 112 82 26 00
        E 16 b2 0b 7f
        E 0 92 32 7f
        E 112 82 32 00
        E 16 b2 0b 7f
        E 0 92 26 7f
        E 112 82 26 00
        E 16 b2 0b 7f
        E 0 92 26 7f
        E 112 82 26 00
        E 16 b2 0b 7f
        E 0 92 32 7f
        E 112 82 32 00
        E 16 b2 0b 7f
        E 0 92 26 7f
        E 112 82 26 00
        E 16 b2 0b 7f
        E 0 92 24 7f
        E 112 82 24 00
        E 16 b2 0b 7f
        E 0 92 34 7f
        E 112 82 34 00
        E 16 b2 0b 7f
        E 0 92 24 7f
        E 112 82 24 00
        E 16 b2 0b 7f
        E 0 92 24 7f
        E 112 82 24 00
        E 16 b2 0b 7f
        E 0 92 30 7f
        E 112 82 30 00
        E 16 b2 0b 7f
        E 0 92 24 7f
        E 112 82 24 00
        E 16 b2 0b 7f
        E 0 92 2f 7f
        E 112 82 2f 00
        E 16 b2 0b 7f
        E 0 92 3b 7f
        E 112 82 3b 00
        E 16 b2 0b 7f
        E 0 92 2f 7f
        E 112 82 2f 00
        E 16 b2 0b 7f
        E 0 92 2f 7f
        E 112 82 2f 00
        E 16 b2 0b 7f
        E 0 92 2f 7f
        E 112 82 2f 00
        E 16 b2 0b 7f
        E 0 92 32 7f
        E 112 82 32 00
        E 16 b2 0b 7f
        E 0 92 2d 7f
        E 112 82 2d 00
        E 16 b2 0b 7f
        E 0 92 39 7f
        E 112 82 39 00
        E 16 b2 0b 7f
        E 0 92 2d 7f
        E 112 82 2d 00
        E 16 b2 0b 7f
        E 0 92 2d 7f
        E 112 82 2d 00
        E 16 b2 0b 7f
        E 0 92 2d 7f
        E 112 82 2d 00
        E 16 b2 0b 7f
        E 0 92 34 7f
        E 112 82 34 00
        E 16 b2 0b 7f
        E 0 92 26 7f
        E 112 82 26 00
        E 16 b2 0b 7f
        E 0 92 32 7f
        E 16 82 32 00
        E 0 b2 7b 00
        E 0 ff 2f 00
      >
    >
  >
  <TRACK {3C9FB8EB-5C4B-4598-9E83-9FA589BABB3F}
    NAME "NES - Noise / Drums"
    PEAKCOL 11184810
    BEAT -1
    AUTOMODE 0
    PANLAWFLAGS 3
    VOLPAN 1 0 -1 -1 1
    MUTESOLO 0 0 0
    IPHASE 0
    PLAYOFFS 0 1
    ISBUS 0 0
    BUSCOMP 0 0 0 0 0
    SHOWINMIX 1 0.6667 0.5 1 0.5 0 0 0
    FIXEDLANES 9 0 0 0 0
    SEL 0
    REC 0 5088 1 0 0 0 0 0
    VU 2
    TRACKHEIGHT 0 0 0 0 0 0 0
    INQ 0 0 0 0.5 100 0 0 100
    NCHAN 2
    FX 1
    TRACKID {3C9FB8EB-5C4B-4598-9E83-9FA589BABB3F}
    PERF 0
    MIDIOUT -1
    MAINSEND 1 0
    <FXCHAIN
      WNDRECT 24 52 700 560
      SHOW 0
      LASTSEL 0
      DOCKED 0
      BYPASS 0 0 0
      <JS "ReapNES Studio/ReapNES_Console.jsfx" ""
        2 15 1 10 80 10 100 2 1 15 1 5 60 10 80 1 1 0 50 0 0 15 1 0 100 0 0 0.500000 0.500000 0.400000 0.300000 0.800000 3 1 0 0 0 0 - - - - - - - - - - - - - - - - - - - - - - - - - -
      >
      FLOATPOS 0 0 0 0
      FXID {97DBB6FB-0C1F-49F8-8180-099390B15141}
      WAK 0 0
    >
  >
>