<REAPER_PROJECT 0.1 "7.27/win64" 1707000000
  <NOTES 0 2
    |ReapNES Studio Project
    |MIDI Import - BreakThru_title_rom_v1
  >
  RIPPLE 0
  GROUPOVERRIDE 0 0 0
  AUTOXFADE 129
  ENVATTACH 3
  POOLEDENVATTACH 0
  MIXERUIFLAGS 11 48
  ENVFADESZ10 40
  PEAKGAIN 1
  FEEDBACK 0
  PANLAW 1
  PROJOFFS 0 0 0
  MAXPROJLEN 0 0
  GRID 3199 8 1 8 1 0 0 0
  TIMEMODE 1 5 -1 30 0 0 -1
  VIDEO_CONFIG 0 0 65792
  PANMODE 3
  PANLAWFLAGS 3
  CURSOR 0
  ZOOM 100 0 0
  VZOOMEX 6 0
  USE_REC_CFG 0
  RECMODE 1
  SMPTESYNC 0 30 100 40 1000 300 0 0 1 0 0
  LOOP 0
  LOOPGRAN 0 4
  RECORD_PATH "Media" ""
  <RECORD_CFG
    ZXZhdxgAAQ==
  >
  <APPLYFX_CFG
  >
  RENDER_FILE ""
  RENDER_PATTERN ""
  RENDER_FMT 0 2 0
  RENDER_1X 0
  RENDER_RANGE 1 0 0 18 1000
  RENDER_RESAMPLE 3 0 1
  RENDER_ADDTOPROJ 0
  RENDER_STEMS 0
  RENDER_DITHER 0
  TIMELOCKMODE 1
  TEMPOENVLOCKMODE 1
  ITEMMIX 1
  DEFPITCHMODE 589824 0
  TAKELANE 1
  SAMPLERATE 44100 0 0
  <RENDER_CFG
    ZXZhdxgAAQ==
  >
  LOCK 1
  <METRONOME 6 2
    VOL 0.25 0.125
    BEATLEN 4
    FREQ 1760 880 1
    SAMPLES "" ""
    SPLIGNORE 0 0
    SPLDEF 2 660 "" 0
    SPLDEF 3 440 "" 0
    PATTERN 0 169
    PATTERNSTR ABBB
    MULT 1
  >
  GLOBAL_AUTO -1
  TEMPO 128.59999614200012 4 4
  PLAYRATE 1 0 0.25 4
  SELECTION 0 0
  SELECTION2 0 0
  MASTERAUTOMODE 0
  MASTERTRACKHEIGHT 0 0
  MASTERPEAKCOL 16576
  MASTERMUTESOLO 0
  MASTERTRACKVIEW 0 0.6667 0.5 0.5 0 0 0 0 0 0 0 0 0 0
  MASTERHWOUT 0 0 1 0 0 0 0 -1
  MASTER_NCH 2 2
  MASTER_VOLUME 1 0 -1 -1 1
  MASTER_PANMODE 3
  MASTER_PANLAWFLAGS 3
  MASTER_FX 1
  MASTER_SEL 0
  <MASTERPLAYSPEEDENV
    EGUID {D223522F-74B4-4EB1-BB61-24221ECAA65A}
    ACT 0 -1
    VIS 0 1 1
    LANEHEIGHT 0 0
    ARM 0
    DEFSHAPE 0 -1 -1
  >
  <TEMPOENVEX
    EGUID {059182B8-B907-4882-A364-3AE764F13DEE}
    ACT 1 -1
    VIS 1 0 1
    LANEHEIGHT 0 0
    ARM 0
    DEFSHAPE 1 -1 -1
  >
  <PROJBAY
  >
  <TRACK {8AD9C885-BDEF-4E39-9EE3-E13FEAD571B4}
    NAME "NES - Pulse 1 [ch0]"
    PEAKCOL 16576606
    BEAT -1
    AUTOMODE 0
    PANLAWFLAGS 3
    VOLPAN 1 0 -1 -1 1
    MUTESOLO 0 0 0
    IPHASE 0
    PLAYOFFS 0 1
    ISBUS 0 0
    BUSCOMP 0 0 0 0 0
    SHOWINMIX 1 0.6667 0.5 1 0.5 0 0 0
    FIXEDLANES 9 0 0 0 0
    SEL 1
    REC 1 5088 1 0 0 0 0 0
    VU 2
    TRACKHEIGHT 0 0 0 0 0 0 0
    INQ 0 0 0 0.5 100 0 0 100
    NCHAN 2
    FX 1
    TRACKID {8AD9C885-BDEF-4E39-9EE3-E13FEAD571B4}
    PERF 0
    MIDIOUT -1
    MAINSEND 1 0
    <FXCHAIN
      WNDRECT 24 52 700 560
      SHOW 0
      LASTSEL 0
      DOCKED 0
      BYPASS 0 0 0
      <JS "ReapNES Studio/ReapNES_Console.jsfx" ""
        2 15 1 10 80 10 100 2 1 15 1 5 60 10 80 1 1 0 50 0 0 15 1 0 100 0 0 0.500000 0.500000 0.400000 0.300000 0.800000 0 1 0 0 0 0 - - - - - - - - - - - - - - - - - - - - - - - - - -
      >
      FLOATPOS 0 0 0 0
      FXID {4B11FE23-CABE-4CE3-9641-B280E95DD583}
      WAK 0 0
    >
    <ITEM
      POSITION 0
      LENGTH 10.171073400000001
      LOOP 0
      ALLTAKES 0
      FADEIN 0 0 0 0 0 0 0
      FADEOUT 0 0 0 0 0 0 0
      MUTE 0 0
      SEL 0
      IGUID {41F83E0C-B505-4DB8-8D09-5A662817977F}
      <SOURCE MIDI
        HASDATA 1 480 QN
        CCINTERP 32
        E 0 c0 50
        E 0 b0 0c 20
        E 0 b0 0b 44
        E 0 90 24 44
        E 304 b0 0c 10
        E 0 80 24 00
        E 0 90 2a 44
        E 16 b0 0b 3b
        E 32 b0 0b 33
        E 32 b0 0b 44
        E 0 80 2a 00
        E 0 90 2e 44
        E 16 b0 0b 3b
        E 32 b0 0b 33
        E 16 b0 0b 44
        E 0 80 2e 00
        E 0 90 31 44
        E 32 b0 0b 3b
        E 32 b0 0b 33
        E 16 b0 0b 44
        E 0 80 31 00
        E 0 90 36 44
        E 32 b0 0b 3b
        E 16 b0 0b 33
        E 32 b0 0b 44
        E 0 80 36 00
        E 0 90 3a 44
        E 32 b0 0b 3b
        E 16 b0 0b 33
        E 32 b0 0b 44
        E 0 80 3a 00
        E 0 90 36 44
        E 16 b0 0b 3b
        E 32 b0 0b 33
        E 32 b0 0b 44
        E 0 80 36 00
        E 0 90 31 44
        E 16 b0 0b 3b
        E 32 b0 0b 33
        E 16 b0 0b 44
        E 0 80 31 00
        E 0 90 2e 44
        E 32 b0 0b 3b
        E 32 b0 0b 33
        E 16 80 2e 00
        E 304 b0 0c 20
        E 0 b0 0b 44
        E 0 90 24 44
        E 304 b0 0c 10
        E 0 80 24 00
        E 0 90 30 44
        E 16 b0 0b 3b
        E 32 b0 0b 33
        E 16 b0 0b 44
        E 0 80 30 00
        E 0 90 2e 44
        E 32 b0 0b 3b
        E 16 b0 0b 33
        E 32 b0 0b 44
        E 0 80 2e 00
        E 0 90 31 44
        E 32 b0 0b 3b
        E 16 b0 0b 33
        E 32 b0 0b 44
        E 0 80 31 00
        E 0 90 28 44
        E 16 b0 0b 3b
        E 32 b0 0b 33
        E 16 b0 0b 44
        E 0 80 28 00
        E 0 90 25 44
        E 32 b0 0b 3b
        E 32 b0 0b 33
        E 16 b0 0b 44
        E 0 80 25 00
        E 0 90 22 44
        E 112 b0 0b 3b
        E 16 b0 0b 33
        E 32 80 22 00
        E 144 b0 0b 44
        E 0 90 27 44
        E 224 80 27 00
        E 208 90 27 44
        E 224 80 27 00
        E 208 90 29 44
        E 224 80 29 00
        E 144 90 25 44
        E 64 80 25 00
        E 0 90 2a 44
        E 80 80 2a 00
        E 0 90 2f 44
        E 1040 b0 0b 3b
        E 112 b0 0b 33
        E 96 b0 0b 2a
        E 160 80 2f 00
        E 192 b0 0c 20
        E 0 90 22 2a
        E 944 b0 0b 22
        E 176 b0 0b 19
        E 176 b0 0b 11
        E 48 b0 0b 2a
        E 464 b0 0b 22
        E 464 b0 0b 19
        E 464 b0 0b 11
        E 144 b0 0b 2a
        E 0 80 22 00
        E 0 90 31 2a
        E 80 b0 0b 22
        E 80 b0 0b 19
        E 80 b0 0b 11
        E 48 80 31 00
        E 96 b0 0b 2a
        E 0 90 2e 2a
        E 32 b0 0b 22
        E 16 b0 0b 19
        E 16 b0 0b 11
        E 16 b0 0b 08
        E 16 b0 0b 2a
        E 0 80 2e 00
        E 0 90 33 2a
        E 32 b0 0b 22
        E 16 b0 0b 19
        E 16 b0 0b 11
        E 16 b0 0b 08
        E 16 b0 0b 2a
        E 0 80 33 00
        E 0 90 2b 2a
        E 32 b0 0b 22
        E 16 b0 0b 19
        E 16 b0 0b 11
        E 16 b0 0b 08
        E 16 b0 0b 2a
        E 0 80 2b 00
        E 0 90 2e 2a
        E 32 b0 0b 22
        E 16 b0 0b 19
        E 16 b0 0b 11
        E 16 b0 0b 08
        E 16 b0 0b 2a
        E 0 80 2e 00
        E 0 90 27 2a
        E 32 b0 0b 22
        E 16 b0 0b 19
        E 16 b0 0b 11
        E 16 b0 0b 08
        E 16 b0 0b 2a
        E 0 80 27 00
        E 0 90 2b 2a
        E 32 b0 0b 22
        E 16 b0 0b 19
        E 16 b0 0b 11
        E 16 b0 0b 08
        E 16 b0 0b 2a
        E 0 80 2b 00
        E 0 90 22 2a
        E 32 b0 0b 22
        E 16 b0 0b 19
        E 16 b0 0b 11
        E 16 b0 0b 08
        E 16 b0 0b 2a
        E 0 80 22 00
        E 0 90 27 2a
        E 32 b0 0b 22
        E 16 b0 0b 19
        E 16 b0 0b 11
        E 16 b0 0b 08
        E 16 b0 0b 2a
        E 0 80 27 00
        E 0 90 2b 2a
        E 32 b0 0b 22
        E 16 b0 0b 19
        E 16 b0 0b 11
        E 16 b0 0b 08
        E 16 b0 0b 2a
        E 0 80 2b 00
        E 0 90 2e 2a
        E 32 b0 0b 22
        E 16 b0 0b 19
        E 16 b0 0b 11
        E 16 b0 0b 08
        E 16 b0 0b 2a
        E 0 80 2e 00
        E 0 90 27 2a
        E 32 b0 0b 22
        E 16 b0 0b 19
        E 16 b0 0b 11
        E 16 b0 0b 08
        E 16 b0 0b 2a
        E 0 80 27 00
        E 0 90 2b 2a
        E 32 b0 0b 22
        E 16 b0 0b 19
        E 16 b0 0b 11
        E 16 b0 0b 08
        E 16 b0 0b 2a
        E 0 80 2b 00
        E 0 90 22 2a
        E 32 b0 0b 22
        E 16 b0 0b 19
        E 16 b0 0b 11
        E 16 b0 0b 08
        E 16 b0 0b 2a
        E 0 80 22 00
        E 0 90 27 2a
        E 32 b0 0b 22
        E 16 b0 0b 19
        E 16 b0 0b 11
        E 16 b0 0b 08
        E 16 b0 0b 2a
        E 0 80 27 00
        E 0 90 2b 2a
        E 32 b0 0b 22
        E 16 b0 0b 19
        E 16 b0 0b 11
        E 16 b0 0b 08
        E 16 b0 0b 2a
        E 0 80 2b 00
        E 0 90 2e 2a
        E 32 b0 0b 22
        E 16 b0 0b 19
        E 16 b0 0b 11
        E 16 b0 0b 08
        E 16 b0 0b 2a
        E 0 80 2e 00
        E 0 90 27 2a
        E 32 b0 0b 22
        E 16 b0 0b 19
        E 16 b0 0b 11
        E 16 b0 0b 08
        E 16 b0 0b 2a
        E 0 80 27 00
        E 0 90 2b 2a
        E 32 b0 0b 22
        E 16 b0 0b 19
        E 16 b0 0b 11
        E 16 b0 0b 08
        E 16 b0 0b 2a
        E 0 80 2b 00
        E 0 90 22 2a
        E 32 b0 0b 22
        E 16 b0 0b 19
        E 16 b0 0b 11
        E 16 b0 0b 08
        E 16 b0 0b 2a
        E 0 80 22 00
        E 0 90 27 2a
        E 32 b0 0b 22
        E 16 b0 0b 19
        E 16 b0 0b 11
        E 16 b0 0b 08
        E 16 b0 0b 2a
        E 0 80 27 00
        E 0 90 2b 2a
        E 32 b0 0b 22
        E 16 b0 0b 19
        E 16 b0 0b 11
        E 16 b0 0b 08
        E 16 b0 0b 2a
        E 0 80 2b 00
        E 0 90 27 2a
        E 16 80 27 00
        E 0 b0 7b 00
        E 0 ff 2f 00
      >
    >
  >
  <TRACK {DCC10064-D1EA-4E47-A062-13A4BCBEA420}
    NAME "NES - Pulse 2 [ch1]"
    PEAKCOL 10092441
    BEAT -1
    AUTOMODE 0
    PANLAWFLAGS 3
    VOLPAN 1 0 -1 -1 1
    MUTESOLO 0 0 0
    IPHASE 0
    PLAYOFFS 0 1
    ISBUS 0 0
    BUSCOMP 0 0 0 0 0
    SHOWINMIX 1 0.6667 0.5 1 0.5 0 0 0
    FIXEDLANES 9 0 0 0 0
    SEL 0
    REC 0 5088 1 0 0 0 0 0
    VU 2
    TRACKHEIGHT 0 0 0 0 0 0 0
    INQ 0 0 0 0.5 100 0 0 100
    NCHAN 2
    FX 1
    TRACKID {DCC10064-D1EA-4E47-A062-13A4BCBEA420}
    PERF 0
    MIDIOUT -1
    MAINSEND 1 0
    <FXCHAIN
      WNDRECT 24 52 700 560
      SHOW 0
      LASTSEL 0
      DOCKED 0
      BYPASS 0 0 0
      <JS "ReapNES Studio/ReapNES_Console.jsfx" ""
        2 15 1 10 80 10 100 2 1 15 1 5 60 10 80 1 1 0 50 0 0 15 1 0 100 0 0 0.500000 0.500000 0.400000 0.300000 0.800000 1 1 0 0 0 0 - - - - - - - - - - - - - - - - - - - - - - - - - -
      >
      FLOATPOS 0 0 0 0
      FXID {B4FA5FC5-02F5-4A91-A627-5E0DF2734378}
      WAK 0 0
    >
    <ITEM
      POSITION 0
      LENGTH 10.171073400000001
      LOOP 0
      ALLTAKES 0
      FADEIN 0 0 0 0 0 0 0
      FADEOUT 0 0 0 0 0 0 0
      MUTE 0 0
      SEL 0
      IGUID {4E70087C-368A-4277-921B-3135EA69AE1D}
      <SOURCE MIDI
        HASDATA 1 480 QN
        CCINTERP 32
        E 0 c1 51
        E 0 b1 0c 20
        E 0 b1 0b 44
        E 0 91 38 44
        E 304 81 38 00
        E 0 91 36 44
        E 96 b1 0b 3b
        E 112 b1 0b 33
        E 96 b1 0b 2a
        E 80 b1 0b 22
        E 96 b1 0b 19
        E 112 b1 0b 11
        E 16 81 36 00
        E 304 b1 0b 44
        E 0 91 35 44
        E 304 81 35 00
        E 0 91 34 44
        E 96 b1 0b 3b
        E 96 b1 0b 33
        E 96 b1 0b 2a
        E 80 b1 0b 22
        E 176 b1 0b 19
        E 96 b1 0b 11
        E 32 b1 0b 44
        E 0 81 34 00
        E 0 91 30 44
        E 224 81 30 00
        E 208 91 2e 44
        E 224 81 2e 00
        E 208 91 31 44
        E 224 81 31 00
        E 144 b1 0c 10
        E 0 b1 0b 66
        E 0 91 25 66
        E 64 81 25 00
        E 0 91 2a 66
        E 80 81 2a 00
        E 0 91 2f 66
        E 80 81 2f 00
        E 0 91 34 66
        E 64 81 34 00
        E 0 91 39 66
        E 880 b1 0b 5d
        E 48 b1 0b 55
        E 80 b1 0b 4c
        E 48 b1 0b 44
        E 64 b1 0b 3b
        E 144 81 39 00
        E 768 b1 0c 20
        E 0 b1 0b 2a
        E 0 91 35 2a
        E 160 b1 0b 22
        E 160 b1 0b 19
        E 144 b1 0b 11
        E 160 b1 0b 08
        E 144 b1 0b 2a
        E 0 81 35 00
        E 0 91 3a 2a
        E 320 b1 0b 22
        E 304 b1 0b 19
        E 304 b1 0b 11
        E 304 b1 0b 08
        E 304 b1 0b 2a
        E 0 81 3a 00
        E 0 91 3c 2a
        E 64 b1 0b 22
        E 48 b1 0b 19
        E 48 b1 0b 11
        E 48 b1 0b 08
        E 48 81 3c 00
        E 32 b1 0b 2a
        E 0 91 37 2a
        E 1568 b1 0b 22
        E 304 b1 0b 19
        E 256 81 37 00
        E 0 b1 7b 00
        E 0 ff 2f 00
      >
    >
  >
  <TRACK {D5D770E8-9753-43A6-88F3-EB31CEF9123B}
    NAME "NES - Triangle [ch2]"
    PEAKCOL 16744192
    BEAT -1
    AUTOMODE 0
    PANLAWFLAGS 3
    VOLPAN 1 0 -1 -1 1
    MUTESOLO 0 0 0
    IPHASE 0
    PLAYOFFS 0 1
    ISBUS 0 0
    BUSCOMP 0 0 0 0 0
    SHOWINMIX 1 0.6667 0.5 1 0.5 0 0 0
    FIXEDLANES 9 0 0 0 0
    SEL 0
    REC 0 5088 1 0 0 0 0 0
    VU 2
    TRACKHEIGHT 0 0 0 0 0 0 0
    INQ 0 0 0 0.5 100 0 0 100
    NCHAN 2
    FX 1
    TRACKID {D5D770E8-9753-43A6-88F3-EB31CEF9123B}
    PERF 0
    MIDIOUT -1
    MAINSEND 1 0
    <FXCHAIN
      WNDRECT 24 52 700 560
      SHOW 0
      LASTSEL 0
      DOCKED 0
      BYPASS 0 0 0
      <JS "ReapNES Studio/ReapNES_Console.jsfx" ""
        2 15 1 10 80 10 100 2 1 15 1 5 60 10 80 1 1 0 50 0 0 15 1 0 100 0 0 0.500000 0.500000 0.400000 0.300000 0.800000 2 1 0 0 0 0 - - - - - - - - - - - - - - - - - - - - - - - - - -
      >
      FLOATPOS 0 0 0 0
      FXID {A7DFD95D-4E22-4CA0-8DAC-C4B4AE9B662A}
      WAK 0 0
    >
    <ITEM
      POSITION 0
      LENGTH 10.171073400000001
      LOOP 0
      ALLTAKES 0
      FADEIN 0 0 0 0 0 0 0
      FADEOUT 0 0 0 0 0 0 0
      MUTE 0 0
      SEL 0
      IGUID {7B3FBF24-14FD-47AA-8FDC-CA39EE9D45D8}
      <SOURCE MIDI
        HASDATA 1 480 QN
        CCINTERP 32
        E 0 c2 26
        E 608 b2 0b 7f
        E 0 92 1b 7f
        E 48 82 1b 00
        E 48 b2 0b 7f
        E 0 92 24 7f
        E 64 82 24 00
        E 48 b2 0b 7f
        E 0 92 1b 7f
        E 48 82 1b 00
        E 48 b2 0b 7f
        E 0 92 24 7f
        E 448 82 24 00
        E 448 b2 0b 7f
        E 0 92 1b 7f
        E 64 82 1b 00
        E 128 b2 0b 7f
        E 0 92 24 7f
        E 48 82 24 00
        E 48 b2 0b 7f
        E 0 92 1b 7f
        E 48 82 1b 00
        E 48 b2 0b 7f
        E 0 92 24 7f
        E 224 82 24 00
        E 208 b2 0b 7f
        E 0 92 24 7f
        E 224 82 24 00
        E 208 b2 0b 7f
        E 0 92 24 7f
        E 224 82 24 00
        E 64 b2 0b 7f
        E 0 92 19 7f
        E 1472 82 19 00
        E 256 b2 0b 7f
        E 0 92 2e 7f
        E 32 82 2e 00
        E 160 b2 0b 7f
        E 0 92 22 7f
        E 32 82 22 00
        E 64 b2 0b 7f
        E 0 92 27 7f
        E 32 82 27 00
        E 64 b2 0b 7f
        E 0 92 29 7f
        E 32 82 29 00
        E 160 b2 0b 7f
        E 0 92 2c 7f
        E 32 82 2c 00
        E 160 b2 0b 7f
        E 0 92 2e 7f
        E 32 82 2e 00
        E 160 b2 0b 7f
        E 0 92 22 7f
        E 32 82 22 00
        E 64 b2 0b 7f
        E 0 92 27 7f
        E 32 82 27 00
        E 64 b2 0b 7f
        E 0 92 28 7f
        E 32 82 28 00
        E 64 b2 0b 7f
        E 0 92 29 7f
        E 32 82 29 00
        E 64 b2 0b 7f
        E 0 92 2c 7f
        E 32 82 2c 00
        E 160 b2 0b 7f
        E 0 92 2e 7f
        E 32 82 2e 00
        E 160 b2 0b 7f
        E 0 92 22 7f
        E 32 82 22 00
        E 64 b2 0b 7f
        E 0 92 27 7f
        E 32 82 27 00
        E 64 b2 0b 7f
        E 0 92 29 7f
        E 32 82 29 00
        E 160 b2 0b 7f
        E 0 92 2c 7f
        E 32 82 2c 00
        E 160 b2 0b 7f
        E 0 92 2e 7f
        E 32 82 2e 00
        E 160 b2 0b 7f
        E 0 92 22 7f
        E 32 82 22 00
        E 64 b2 0b 7f
        E 0 92 27 7f
        E 32 82 27 00
        E 64 b2 0b 7f
        E 0 92 29 7f
        E 32 82 29 00
        E 64 b2 0b 7f
        E 0 92 20 7f
        E 96 82 20 00
        E 96 b2 0b 7f
        E 0 92 2c 7f
        E 32 82 2c 00
        E 64 b2 0b 7f
        E 0 92 2e 7f
        E 32 82 2e 00
        E 160 b2 0b 7f
        E 0 92 22 7f
        E 32 82 22 00
        E 64 b2 0b 7f
        E 0 92 27 7f
        E 32 82 27 00
        E 64 b2 0b 7f
        E 0 92 29 7f
        E 32 82 29 00
        E 160 b2 0b 7f
        E 0 92 2c 7f
        E 32 82 2c 00
        E 160 b2 0b 7f
        E 0 92 2e 7f
        E 32 82 2e 00
        E 160 b2 0b 7f
        E 0 92 22 7f
        E 32 82 22 00
        E 64 b2 0b 7f
        E 0 92 27 7f
        E 32 82 27 00
        E 64 b2 0b 7f
        E 0 92 29 7f
        E 32 82 29 00
        E 160 b2 0b 7f
        E 0 92 2c 7f
        E 32 82 2c 00
        E 160 b2 0b 7f
        E 0 92 2e 7f
        E 32 82 2e 00
        E 160 b2 0b 7f
        E 0 92 22 7f
        E 32 82 22 00
        E 64 b2 0b 7f
        E 0 92 27 7f
        E 32 82 27 00
        E 64 b2 0b 7f
        E 0 92 29 7f
        E 32 82 29 00
        E 160 b2 0b 7f
        E 0 92 2c 7f
        E 32 82 2c 00
        E 160 b2 0b 7f
        E 0 92 2e 7f
        E 16 82 2e 00
        E 0 b2 7b 00
        E 0 ff 2f 00
      >
    >
  >
  <TRACK {3EB3B2C2-6D64-407B-98A1-9BBFE624A6AC}
    NAME "NES - Noise / Drums [ch3]"
    PEAKCOL 11184810
    BEAT -1
    AUTOMODE 0
    PANLAWFLAGS 3
    VOLPAN 1 0 -1 -1 1
    MUTESOLO 0 0 0
    IPHASE 0
    PLAYOFFS 0 1
    ISBUS 0 0
    BUSCOMP 0 0 0 0 0
    SHOWINMIX 1 0.6667 0.5 1 0.5 0 0 0
    FIXEDLANES 9 0 0 0 0
    SEL 0
    REC 0 5088 1 0 0 0 0 0
    VU 2
    TRACKHEIGHT 0 0 0 0 0 0 0
    INQ 0 0 0 0.5 100 0 0 100
    NCHAN 2
    FX 1
    TRACKID {3EB3B2C2-6D64-407B-98A1-9BBFE624A6AC}
    PERF 0
    MIDIOUT -1
    MAINSEND 1 0
    <FXCHAIN
      WNDRECT 24 52 700 560
      SHOW 0
      LASTSEL 0
      DOCKED 0
      BYPASS 0 0 0
      <JS "ReapNES Studio/ReapNES_Console.jsfx" ""
        2 15 1 10 80 10 100 2 1 15 1 5 60 10 80 1 1 0 50 0 0 15 1 0 100 0 0 0.500000 0.500000 0.400000 0.300000 0.800000 3 1 0 0 0 0 - - - - - - - - - - - - - - - - - - - - - - - - - -
      >
      FLOATPOS 0 0 0 0
      FXID {9F5A2ED7-9ECA-446F-9867-0B417A882517}
      WAK 0 0
    >
    <ITEM
      POSITION 0
      LENGTH 10.171073400000001
      LOOP 0
      ALLTAKES 0
      FADEIN 0 0 0 0 0 0 0
      FADEOUT 0 0 0 0 0 0 0
      MUTE 0 0
      SEL 0
      IGUID {69F3314B-E32D-42A8-8D80-4369B8709070}
      <SOURCE MIDI
        HASDATA 1 480 QN
        CCINTERP 32
        E 608 93 2a 66
        E 400 83 2a 00
        E 800 93 2a 66
        E 528 83 2a 00
        E 224 93 2a 66
        E 208 83 2a 00
        E 224 93 2a 66
        E 208 83 2a 00
        E 2160 93 2a 4c
        E 64 83 2a 00
        E 704 93 2a 4c
        E 64 83 2a 00
        E 704 93 2a 4c
        E 64 83 2a 00
        E 320 93 2a 4c
        E 64 83 2a 00
        E 224 93 2a 4c
        E 64 83 2a 00
        E 32 93 2a 4c
        E 64 83 2a 00
        E 32 93 2a 4c
        E 64 83 2a 00
        E 32 93 2a 4c
        E 64 83 2a 00
        E 512 93 2a 4c
        E 64 83 2a 00
        E 704 93 2a 4c
        E 64 83 2a 00
        E 704 93 2a 4c
        E 64 83 2a 00
        E 432 b3 7b 00
        E 0 ff 2f 00
      >
    >
  >
>