<REAPER_PROJECT 0.1 "7.27/win64" 1707000000
  <NOTES 0 2
    |ReapNES Studio Project
    |MIDI Import - Wizards_&_Warriors_04_Ice_Cave_v1
  >
  RIPPLE 0
  GROUPOVERRIDE 0 0 0
  AUTOXFADE 129
  ENVATTACH 3
  POOLEDENVATTACH 0
  MIXERUIFLAGS 11 48
  ENVFADESZ10 40
  PEAKGAIN 1
  FEEDBACK 0
  PANLAW 1
  PROJOFFS 0 0 0
  MAXPROJLEN 0 0
  GRID 3199 8 1 8 1 0 0 0
  TIMEMODE 1 5 -1 30 0 0 -1
  VIDEO_CONFIG 0 0 65792
  PANMODE 3
  PANLAWFLAGS 3
  CURSOR 0
  ZOOM 100 0 0
  VZOOMEX 6 0
  USE_REC_CFG 0
  RECMODE 1
  SMPTESYNC 0 30 100 40 1000 300 0 0 1 0 0
  LOOP 0
  LOOPGRAN 0 4
  RECORD_PATH "Media" ""
  <RECORD_CFG
    ZXZhdxgAAQ==
  >
  <APPLYFX_CFG
  >
  RENDER_FILE ""
  RENDER_PATTERN ""
  RENDER_FMT 0 2 0
  RENDER_1X 0
  RENDER_RANGE 1 0 0 18 1000
  RENDER_RESAMPLE 3 0 1
  RENDER_ADDTOPROJ 0
  RENDER_STEMS 0
  RENDER_DITHER 0
  TIMELOCKMODE 1
  TEMPOENVLOCKMODE 1
  ITEMMIX 1
  DEFPITCHMODE 589824 0
  TAKELANE 1
  SAMPLERATE 44100 0 0
  <RENDER_CFG
    ZXZhdxgAAQ==
  >
  LOCK 1
  <METRONOME 6 2
    VOL 0.25 0.125
    BEATLEN 4
    FREQ 1760 880 1
    SAMPLES "" ""
    SPLIGNORE 0 0
    SPLDEF 2 660 "" 0
    SPLDEF 3 440 "" 0
    PATTERN 0 169
    PATTERNSTR ABBB
    MULT 1
  >
  GLOBAL_AUTO -1
  TEMPO 128.59999614200012 4 4
  PLAYRATE 1 0 0.25 4
  SELECTION 0 0
  SELECTION2 0 0
  MASTERAUTOMODE 0
  MASTERTRACKHEIGHT 0 0
  MASTERPEAKCOL 16576
  MASTERMUTESOLO 0
  MASTERTRACKVIEW 0 0.6667 0.5 0.5 0 0 0 0 0 0 0 0 0 0
  MASTERHWOUT 0 0 1 0 0 0 0 -1
  MASTER_NCH 2 2
  MASTER_VOLUME 1 0 -1 -1 1
  MASTER_PANMODE 3
  MASTER_PANLAWFLAGS 3
  MASTER_FX 1
  MASTER_SEL 0
  <MASTERPLAYSPEEDENV
    EGUID {3B7AB06A-4E2D-454E-A184-CC0ED47D9AAC}
    ACT 0 -1
    VIS 0 1 1
    LANEHEIGHT 0 0
    ARM 0
    DEFSHAPE 0 -1 -1
  >
  <TEMPOENVEX
    EGUID {34EF41A9-71A8-45AD-AA0B-4C241EE344B9}
    ACT 1 -1
    VIS 1 0 1
    LANEHEIGHT 0 0
    ARM 0
    DEFSHAPE 1 -1 -1
  >
  <PROJBAY
  >
  <TRACK {A13E3299-F516-4B94-B6A6-B1FAA598B958}
    NAME "NES - Pulse 1 [ch0]"
    PEAKCOL 16576606
    BEAT -1
    AUTOMODE 0
    PANLAWFLAGS 3
    VOLPAN 1 0 -1 -1 1
    MUTESOLO 0 0 0
    IPHASE 0
    PLAYOFFS 0 1
    ISBUS 0 0
    BUSCOMP 0 0 0 0 0
    SHOWINMIX 1 0.6667 0.5 1 0.5 0 0 0
    FIXEDLANES 9 0 0 0 0
    SEL 1
    REC 1 5088 1 0 0 0 0 0
    VU 2
    TRACKHEIGHT 0 0 0 0 0 0 0
    INQ 0 0 0 0.5 100 0 0 100
    NCHAN 2
    FX 1
    TRACKID {A13E3299-F516-4B94-B6A6-B1FAA598B958}
    PERF 0
    MIDIOUT -1
    MAINSEND 1 0
    <FXCHAIN
      WNDRECT 24 52 700 560
      SHOW 0
      LASTSEL 0
      DOCKED 0
      BYPASS 0 0 0
      <JS "ReapNES Studio/ReapNES_Console.jsfx" ""
        2 15 1 10 80 10 100 2 1 15 1 5 60 10 80 1 1 0 50 0 0 15 1 0 100 0 0 0.500000 0.500000 0.400000 0.300000 0.800000 0 1 0 0 0 0 - - - - - - - - - - - - - - - - - - - - - - - - - -
      >
      FLOATPOS 0 0 0 0
      FXID {25D5C70D-2E8D-4FB5-B2BA-E58DD88FC422}
      WAK 0 0
    >
    <ITEM
      POSITION 0
      LENGTH 83.98134
      LOOP 0
      ALLTAKES 0
      FADEIN 0 0 0 0 0 0 0
      FADEOUT 0 0 0 0 0 0 0
      MUTE 0 0
      SEL 0
      IGUID {9A99FE2C-703B-42DE-A249-D9AC8C3691E3}
      <SOURCE MIDI
        HASDATA 1 480 QN
        CCINTERP 32
        E 0 c0 50
        E 0 b0 0c 40
        E 0 b0 0b 20
        E 0 90 18 20
        E 576 80 18 00
        E 0 90 30 20
        E 48 80 30 00
        E 0 90 32 20
        E 48 80 32 00
        E 0 90 33 20
        E 96 80 33 00
        E 0 90 32 20
        E 192 80 32 00
        E 0 90 31 20
        E 192 80 31 00
        E 0 90 2b 20
        E 192 b0 0b 78
        E 0 80 2b 00
        E 0 90 2c 78
        E 864 b0 0b 20
        E 0 80 2c 00
        E 0 90 2b 20
        E 48 80 2b 00
        E 0 90 2c 20
        E 48 80 2c 00
        E 0 90 2b 20
        E 192 80 2b 00
        E 0 90 29 20
        E 192 80 29 00
        E 0 90 27 20
        E 192 80 27 00
        E 0 90 26 20
        E 192 80 26 00
        E 0 90 24 20
        E 576 80 24 00
        E 0 90 30 20
        E 48 80 30 00
        E 0 90 32 20
        E 48 80 32 00
        E 0 90 33 20
        E 96 80 33 00
        E 0 90 32 20
        E 192 80 32 00
        E 0 90 31 20
        E 192 80 31 00
        E 0 90 2b 20
        E 576 b0 0b 78
        E 0 80 2b 00
        E 0 90 2f 78
        E 384 b0 0b 20
        E 0 80 2f 00
        E 0 90 2b 20
        E 192 80 2b 00
        E 0 90 29 20
        E 384 80 29 00
        E 0 90 27 20
        E 192 80 27 00
        E 0 90 24 20
        E 1728 80 24 00
        E 0 90 18 20
        E 576 80 18 00
        E 0 90 30 20
        E 48 80 30 00
        E 0 90 32 20
        E 48 80 32 00
        E 0 90 33 20
        E 96 80 33 00
        E 0 90 32 20
        E 192 80 32 00
        E 0 90 31 20
        E 192 80 31 00
        E 0 90 2b 20
        E 192 b0 0b 78
        E 0 80 2b 00
        E 0 90 2c 78
        E 864 b0 0b 20
        E 0 80 2c 00
        E 0 90 2b 20
        E 48 80 2b 00
        E 0 90 2c 20
        E 48 80 2c 00
        E 0 90 2b 20
        E 192 80 2b 00
        E 0 90 29 20
        E 192 80 29 00
        E 0 90 27 20
        E 192 80 27 00
        E 0 90 26 20
        E 192 80 26 00
        E 0 90 24 20
        E 576 80 24 00
        E 0 90 30 20
        E 48 80 30 00
        E 0 90 32 20
        E 48 80 32 00
        E 0 90 33 20
        E 96 80 33 00
        E 0 90 32 20
        E 192 80 32 00
        E 0 90 31 20
        E 192 80 31 00
        E 0 90 2b 20
        E 576 b0 0b 78
        E 0 80 2b 00
        E 0 90 2f 78
        E 384 b0 0b 20
        E 0 80 2f 00
        E 0 90 2b 20
        E 192 80 2b 00
        E 0 90 29 20
        E 384 80 29 00
        E 0 90 27 20
        E 192 80 27 00
        E 0 90 24 20
        E 1728 80 24 00
        E 0 90 18 20
        E 576 80 18 00
        E 0 90 30 20
        E 48 80 30 00
        E 0 90 32 20
        E 48 80 32 00
        E 0 90 33 20
        E 96 80 33 00
        E 0 90 32 20
        E 192 80 32 00
        E 0 90 31 20
        E 192 80 31 00
        E 0 90 2b 20
        E 192 b0 0b 78
        E 0 80 2b 00
        E 0 90 2c 78
        E 864 b0 0b 20
        E 0 80 2c 00
        E 0 90 2b 20
        E 48 80 2b 00
        E 0 90 2c 20
        E 48 80 2c 00
        E 0 90 2b 20
        E 192 80 2b 00
        E 0 90 29 20
        E 192 80 29 00
        E 0 90 27 20
        E 192 80 27 00
        E 0 90 26 20
        E 192 80 26 00
        E 0 90 24 20
        E 576 80 24 00
        E 0 90 30 20
        E 48 80 30 00
        E 0 90 32 20
        E 48 80 32 00
        E 0 90 33 20
        E 96 80 33 00
        E 0 90 32 20
        E 192 80 32 00
        E 0 90 31 20
        E 192 80 31 00
        E 0 90 2b 20
        E 576 b0 0b 78
        E 0 80 2b 00
        E 0 90 2f 78
        E 384 b0 0b 20
        E 0 80 2f 00
        E 0 90 2b 20
        E 192 80 2b 00
        E 0 90 29 20
        E 384 80 29 00
        E 0 90 27 20
        E 192 80 27 00
        E 0 90 24 20
        E 1728 80 24 00
        E 0 90 18 20
        E 576 80 18 00
        E 0 90 30 20
        E 48 80 30 00
        E 0 90 32 20
        E 48 80 32 00
        E 0 90 33 20
        E 96 80 33 00
        E 0 90 32 20
        E 192 80 32 00
        E 0 90 31 20
        E 192 80 31 00
        E 0 90 2b 20
        E 192 b0 0b 78
        E 0 80 2b 00
        E 0 90 2c 78
        E 864 b0 0b 20
        E 0 80 2c 00
        E 0 90 2b 20
        E 48 80 2b 00
        E 0 90 2c 20
        E 48 80 2c 00
        E 0 90 2b 20
        E 192 80 2b 00
        E 0 90 29 20
        E 192 80 29 00
        E 0 90 27 20
        E 192 80 27 00
        E 0 90 26 20
        E 192 80 26 00
        E 0 90 24 20
        E 576 80 24 00
        E 0 90 30 20
        E 48 80 30 00
        E 0 90 32 20
        E 48 80 32 00
        E 0 90 33 20
        E 96 80 33 00
        E 0 90 32 20
        E 192 80 32 00
        E 0 90 31 20
        E 192 80 31 00
        E 0 90 2b 20
        E 576 b0 0b 78
        E 0 80 2b 00
        E 0 90 2f 78
        E 384 b0 0b 20
        E 0 80 2f 00
        E 0 90 2b 20
        E 192 80 2b 00
        E 0 90 29 20
        E 384 80 29 00
        E 0 90 27 20
        E 192 80 27 00
        E 0 90 24 20
        E 1728 b0 0c 10
        E 0 b0 0b 18
        E 384 80 24 00
        E 0 90 2b 18
        E 192 80 2b 00
        E 0 90 24 18
        E 384 b0 0b 60
        E 0 80 24 00
        E 0 90 26 60
        E 576 b0 0b 18
        E 0 80 26 00
        E 0 90 24 18
        E 384 80 24 00
        E 0 90 2b 18
        E 192 80 2b 00
        E 0 90 24 18
        E 384 b0 0b 60
        E 0 80 24 00
        E 0 90 2e 60
        E 576 b0 0b 18
        E 0 80 2e 00
        E 0 90 24 18
        E 384 80 24 00
        E 0 90 2b 18
        E 192 80 2b 00
        E 0 90 24 18
        E 384 b0 0b 60
        E 0 80 24 00
        E 0 90 26 60
        E 576 b0 0b 18
        E 0 80 26 00
        E 0 90 24 18
        E 384 80 24 00
        E 0 90 2b 18
        E 192 80 2b 00
        E 0 90 24 18
        E 384 b0 0b 60
        E 0 80 24 00
        E 0 90 2e 60
        E 576 b0 0b 18
        E 0 80 2e 00
        E 0 90 24 18
        E 384 80 24 00
        E 0 90 2b 18
        E 192 80 2b 00
        E 0 90 24 18
        E 384 b0 0b 60
        E 0 80 24 00
        E 0 90 26 60
        E 576 b0 0b 18
        E 0 80 26 00
        E 0 90 24 18
        E 384 80 24 00
        E 0 90 2b 18
        E 192 80 2b 00
        E 0 90 24 18
        E 384 b0 0b 60
        E 0 80 24 00
        E 0 90 2e 60
        E 576 b0 0b 18
        E 0 80 2e 00
        E 0 90 24 18
        E 384 80 24 00
        E 0 90 2b 18
        E 192 80 2b 00
        E 0 90 24 18
        E 384 b0 0b 60
        E 0 80 24 00
        E 0 90 26 60
        E 576 b0 0b 18
        E 0 80 26 00
        E 0 90 24 18
        E 384 80 24 00
        E 0 90 2b 18
        E 192 80 2b 00
        E 0 90 24 18
        E 384 b0 0b 60
        E 0 80 24 00
        E 0 90 2e 60
        E 576 b0 0c 40
        E 0 b0 0b 68
        E 0 80 2e 00
        E 0 90 34 68
        E 256 80 34 00
        E 0 90 35 68
        E 256 80 35 00
        E 0 90 36 68
        E 256 80 36 00
        E 0 90 37 68
        E 256 80 37 00
        E 0 90 38 68
        E 256 80 38 00
        E 0 90 39 68
        E 128 80 39 00
        E 0 90 3a 68
        E 1152 b0 0b 18
        E 256 b0 0b 20
        E 0 80 3a 00
        E 0 90 18 20
        E 576 80 18 00
        E 0 90 30 20
        E 48 80 30 00
        E 0 90 32 20
        E 48 80 32 00
        E 0 90 33 20
        E 96 80 33 00
        E 0 90 32 20
        E 192 80 32 00
        E 0 90 31 20
        E 192 80 31 00
        E 0 90 2b 20
        E 192 b0 0b 78
        E 0 80 2b 00
        E 0 90 2c 78
        E 864 b0 0b 20
        E 0 80 2c 00
        E 0 90 2b 20
        E 48 80 2b 00
        E 0 90 2c 20
        E 48 80 2c 00
        E 0 90 2b 20
        E 192 80 2b 00
        E 0 90 29 20
        E 192 80 29 00
        E 0 90 27 20
        E 192 80 27 00
        E 0 90 26 20
        E 192 80 26 00
        E 0 90 24 20
        E 576 80 24 00
        E 0 90 30 20
        E 48 80 30 00
        E 0 90 32 20
        E 48 80 32 00
        E 0 90 33 20
        E 96 80 33 00
        E 0 90 32 20
        E 192 80 32 00
        E 0 90 31 20
        E 192 80 31 00
        E 0 90 2b 20
        E 576 b0 0b 78
        E 0 80 2b 00
        E 0 90 2f 78
        E 384 b0 0b 20
        E 0 80 2f 00
        E 0 90 2b 20
        E 192 80 2b 00
        E 0 90 29 20
        E 384 80 29 00
        E 0 90 27 20
        E 192 80 27 00
        E 0 90 24 20
        E 1728 80 24 00
        E 0 90 18 20
        E 576 80 18 00
        E 0 90 30 20
        E 48 80 30 00
        E 0 90 32 20
        E 48 80 32 00
        E 0 90 33 20
        E 96 80 33 00
        E 0 90 32 20
        E 192 80 32 00
        E 0 90 31 20
        E 192 80 31 00
        E 0 90 2b 20
        E 192 b0 0b 78
        E 0 80 2b 00
        E 0 90 2c 78
        E 864 b0 0b 20
        E 0 80 2c 00
        E 0 90 2b 20
        E 48 80 2b 00
        E 0 90 2c 20
        E 48 80 2c 00
        E 0 90 2b 20
        E 192 80 2b 00
        E 0 90 29 20
        E 192 80 29 00
        E 0 90 27 20
        E 192 80 27 00
        E 0 90 26 20
        E 192 80 26 00
        E 0 90 24 20
        E 576 80 24 00
        E 0 90 30 20
        E 48 80 30 00
        E 0 90 32 20
        E 48 80 32 00
        E 0 90 33 20
        E 96 80 33 00
        E 0 90 32 20
        E 192 80 32 00
        E 0 90 31 20
        E 192 80 31 00
        E 0 90 2b 20
        E 576 b0 0b 78
        E 0 80 2b 00
        E 0 90 2f 78
        E 384 b0 0b 20
        E 0 80 2f 00
        E 0 90 2b 20
        E 192 80 2b 00
        E 0 90 29 20
        E 384 80 29 00
        E 0 90 27 20
        E 192 80 27 00
        E 0 90 24 20
        E 1728 80 24 00
        E 0 90 18 20
        E 576 80 18 00
        E 0 90 30 20
        E 48 80 30 00
        E 0 90 32 20
        E 48 80 32 00
        E 0 90 33 20
        E 96 80 33 00
        E 0 90 32 20
        E 192 80 32 00
        E 0 90 31 20
        E 192 80 31 00
        E 0 90 2b 20
        E 192 b0 0b 78
        E 0 80 2b 00
        E 0 90 2c 78
        E 864 b0 0b 20
        E 0 80 2c 00
        E 0 90 2b 20
        E 48 80 2b 00
        E 0 90 2c 20
        E 48 80 2c 00
        E 0 90 2b 20
        E 192 80 2b 00
        E 0 90 29 20
        E 192 80 29 00
        E 0 90 27 20
        E 192 80 27 00
        E 0 90 26 20
        E 192 80 26 00
        E 0 90 24 20
        E 576 80 24 00
        E 0 90 30 20
        E 48 80 30 00
        E 0 90 32 20
        E 48 80 32 00
        E 0 90 33 20
        E 96 80 33 00
        E 0 90 32 20
        E 192 80 32 00
        E 0 90 31 20
        E 192 80 31 00
        E 0 90 2b 20
        E 576 b0 0b 78
        E 0 80 2b 00
        E 0 90 2f 78
        E 384 b0 0b 20
        E 0 80 2f 00
        E 0 90 2b 20
        E 192 80 2b 00
        E 0 90 29 20
        E 384 80 29 00
        E 0 90 27 20
        E 192 80 27 00
        E 0 90 24 20
        E 1728 80 24 00
        E 0 90 18 20
        E 576 80 18 00
        E 0 90 30 20
        E 48 80 30 00
        E 0 90 32 20
        E 48 80 32 00
        E 0 90 33 20
        E 96 80 33 00
        E 0 90 32 20
        E 192 80 32 00
        E 0 90 31 20
        E 192 80 31 00
        E 0 90 2b 20
        E 192 b0 0b 78
        E 0 80 2b 00
        E 0 90 2c 78
        E 864 b0 0b 20
        E 0 80 2c 00
        E 0 90 2b 20
        E 48 80 2b 00
        E 0 90 2c 20
        E 48 80 2c 00
        E 0 90 2b 20
        E 192 80 2b 00
        E 0 90 29 20
        E 192 80 29 00
        E 0 90 27 20
        E 192 80 27 00
        E 0 90 26 20
        E 192 80 26 00
        E 0 90 24 20
        E 576 80 24 00
        E 0 90 30 20
        E 48 80 30 00
        E 0 90 32 20
        E 48 80 32 00
        E 0 90 33 20
        E 96 80 33 00
        E 0 90 32 20
        E 192 80 32 00
        E 0 90 31 20
        E 192 80 31 00
        E 0 90 2b 20
        E 576 b0 0b 78
        E 0 80 2b 00
        E 0 90 2f 78
        E 384 b0 0b 20
        E 0 80 2f 00
        E 0 90 2b 20
        E 192 80 2b 00
        E 0 90 29 20
        E 384 80 29 00
        E 0 90 27 20
        E 192 80 27 00
        E 0 90 24 20
        E 1728 b0 0c 10
        E 0 b0 0b 18
        E 384 80 24 00
        E 0 90 2b 18
        E 192 80 2b 00
        E 0 90 24 18
        E 384 b0 0b 60
        E 0 80 24 00
        E 0 90 26 60
        E 576 b0 0b 18
        E 0 80 26 00
        E 0 90 24 18
        E 384 80 24 00
        E 0 90 2b 18
        E 192 80 2b 00
        E 0 90 24 18
        E 384 b0 0b 60
        E 0 80 24 00
        E 0 90 2e 60
        E 576 b0 0b 18
        E 0 80 2e 00
        E 0 90 24 18
        E 384 80 24 00
        E 0 90 2b 18
        E 192 80 2b 00
        E 0 90 24 18
        E 384 b0 0b 60
        E 0 80 24 00
        E 0 90 26 60
        E 576 b0 0b 18
        E 0 80 26 00
        E 0 90 24 18
        E 384 80 24 00
        E 0 90 2b 18
        E 192 80 2b 00
        E 0 90 24 18
        E 384 b0 0b 60
        E 0 80 24 00
        E 0 90 2e 60
        E 576 b0 0b 18
        E 0 80 2e 00
        E 0 90 24 18
        E 384 80 24 00
        E 0 90 2b 18
        E 192 80 2b 00
        E 0 90 24 18
        E 384 b0 0b 60
        E 0 80 24 00
        E 0 90 26 60
        E 576 b0 0b 18
        E 0 80 26 00
        E 0 90 24 18
        E 384 80 24 00
        E 0 90 2b 18
        E 192 80 2b 00
        E 0 90 24 18
        E 384 b0 0b 60
        E 0 80 24 00
        E 0 90 2e 60
        E 576 b0 0b 18
        E 0 80 2e 00
        E 0 90 24 18
        E 384 80 24 00
        E 0 90 2b 18
        E 192 80 2b 00
        E 0 90 24 18
        E 64 80 24 00
        E 0 ff 2f 00
      >
    >
  >
  <TRACK {CAC1AD49-6577-447D-9791-0494AA852A11}
    NAME "NES - Pulse 2 [ch1]"
    PEAKCOL 10092441
    BEAT -1
    AUTOMODE 0
    PANLAWFLAGS 3
    VOLPAN 1 0 -1 -1 1
    MUTESOLO 0 0 0
    IPHASE 0
    PLAYOFFS 0 1
    ISBUS 0 0
    BUSCOMP 0 0 0 0 0
    SHOWINMIX 1 0.6667 0.5 1 0.5 0 0 0
    FIXEDLANES 9 0 0 0 0
    SEL 0
    REC 0 5088 1 0 0 0 0 0
    VU 2
    TRACKHEIGHT 0 0 0 0 0 0 0
    INQ 0 0 0 0.5 100 0 0 100
    NCHAN 2
    FX 1
    TRACKID {CAC1AD49-6577-447D-9791-0494AA852A11}
    PERF 0
    MIDIOUT -1
    MAINSEND 1 0
    <FXCHAIN
      WNDRECT 24 52 700 560
      SHOW 0
      LASTSEL 0
      DOCKED 0
      BYPASS 0 0 0
      <JS "ReapNES Studio/ReapNES_Console.jsfx" ""
        2 15 1 10 80 10 100 2 1 15 1 5 60 10 80 1 1 0 50 0 0 15 1 0 100 0 0 0.500000 0.500000 0.400000 0.300000 0.800000 1 1 0 0 0 0 - - - - - - - - - - - - - - - - - - - - - - - - - -
      >
      FLOATPOS 0 0 0 0
      FXID {578EDE9E-00BE-411A-9517-C0D07D708054}
      WAK 0 0
    >
    <ITEM
      POSITION 0
      LENGTH 83.98134
      LOOP 0
      ALLTAKES 0
      FADEIN 0 0 0 0 0 0 0
      FADEOUT 0 0 0 0 0 0 0
      MUTE 0 0
      SEL 0
      IGUID {5FE9BDE3-33A0-4F5E-82E7-2FEF33FEAEDA}
      <SOURCE MIDI
        HASDATA 1 480 QN
        CCINTERP 32
        E 0 c1 51
        E 0 b1 0c 10
        E 0 b1 0b 20
        E 0 91 24 20
        E 624 81 24 00
        E 0 91 26 20
        E 48 81 26 00
        E 0 91 27 20
        E 96 81 27 00
        E 0 91 26 20
        E 192 81 26 00
        E 0 91 25 20
        E 192 81 25 00
        E 0 91 1f 20
        E 192 b1 0b 78
        E 0 81 1f 00
        E 0 91 20 78
        E 864 b1 0b 20
        E 0 81 20 00
        E 0 91 1f 20
        E 48 81 1f 00
        E 0 91 20 20
        E 48 81 20 00
        E 0 91 1f 20
        E 192 81 1f 00
        E 0 91 1d 20
        E 192 81 1d 00
        E 0 91 1b 20
        E 192 81 1b 00
        E 0 91 1a 20
        E 192 81 1a 00
        E 0 91 18 20
        E 576 81 18 00
        E 0 91 24 20
        E 48 81 24 00
        E 0 91 26 20
        E 48 81 26 00
        E 0 91 27 20
        E 96 81 27 00
        E 0 91 26 20
        E 192 81 26 00
        E 0 91 25 20
        E 192 81 25 00
        E 0 91 1f 20
        E 576 b1 0b 78
        E 0 81 1f 00
        E 0 91 23 78
        E 384 b1 0b 20
        E 0 81 23 00
        E 0 91 1f 20
        E 192 81 1f 00
        E 0 91 1d 20
        E 384 81 1d 00
        E 0 91 1b 20
        E 192 81 1b 00
        E 0 91 18 20
        E 1728 81 18 00
        E 0 91 24 20
        E 624 81 24 00
        E 0 91 26 20
        E 48 81 26 00
        E 0 91 27 20
        E 96 81 27 00
        E 0 91 26 20
        E 192 81 26 00
        E 0 91 25 20
        E 192 81 25 00
        E 0 91 1f 20
        E 192 b1 0b 78
        E 0 81 1f 00
        E 0 91 20 78
        E 864 b1 0b 20
        E 0 81 20 00
        E 0 91 1f 20
        E 48 81 1f 00
        E 0 91 20 20
        E 48 81 20 00
        E 0 91 1f 20
        E 192 81 1f 00
        E 0 91 1d 20
        E 192 81 1d 00
        E 0 91 1b 20
        E 192 81 1b 00
        E 0 91 1a 20
        E 192 81 1a 00
        E 0 91 18 20
        E 576 81 18 00
        E 0 91 24 20
        E 48 81 24 00
        E 0 91 26 20
        E 48 81 26 00
        E 0 91 27 20
        E 96 81 27 00
        E 0 91 26 20
        E 192 81 26 00
        E 0 91 25 20
        E 192 81 25 00
        E 0 91 1f 20
        E 576 b1 0b 78
        E 0 81 1f 00
        E 0 91 23 78
        E 384 b1 0b 20
        E 0 81 23 00
        E 0 91 1f 20
        E 192 81 1f 00
        E 0 91 1d 20
        E 384 81 1d 00
        E 0 91 1b 20
        E 192 81 1b 00
        E 0 91 18 20
        E 1728 81 18 00
        E 0 91 24 20
        E 624 81 24 00
        E 0 91 26 20
        E 48 81 26 00
        E 0 91 27 20
        E 96 81 27 00
        E 0 91 26 20
        E 192 81 26 00
        E 0 91 25 20
        E 192 81 25 00
        E 0 91 1f 20
        E 192 b1 0b 78
        E 0 81 1f 00
        E 0 91 20 78
        E 864 b1 0b 20
        E 0 81 20 00
        E 0 91 1f 20
        E 48 81 1f 00
        E 0 91 20 20
        E 48 81 20 00
        E 0 91 1f 20
        E 192 81 1f 00
        E 0 91 1d 20
        E 192 81 1d 00
        E 0 91 1b 20
        E 192 81 1b 00
        E 0 91 1a 20
        E 192 81 1a 00
        E 0 91 18 20
        E 576 81 18 00
        E 0 91 24 20
        E 48 81 24 00
        E 0 91 26 20
        E 48 81 26 00
        E 0 91 27 20
        E 96 81 27 00
        E 0 91 26 20
        E 192 81 26 00
        E 0 91 25 20
        E 192 81 25 00
        E 0 91 1f 20
        E 576 b1 0b 78
        E 0 81 1f 00
        E 0 91 23 78
        E 384 b1 0b 20
        E 0 81 23 00
        E 0 91 1f 20
        E 192 81 1f 00
        E 0 91 1d 20
        E 384 81 1d 00
        E 0 91 1b 20
        E 192 81 1b 00
        E 0 91 18 20
        E 1728 81 18 00
        E 0 91 24 20
        E 624 81 24 00
        E 0 91 26 20
        E 48 81 26 00
        E 0 91 27 20
        E 96 81 27 00
        E 0 91 26 20
        E 192 81 26 00
        E 0 91 25 20
        E 192 81 25 00
        E 0 91 1f 20
        E 192 b1 0b 78
        E 0 81 1f 00
        E 0 91 20 78
        E 864 b1 0b 20
        E 0 81 20 00
        E 0 91 1f 20
        E 48 81 1f 00
        E 0 91 20 20
        E 48 81 20 00
        E 0 91 1f 20
        E 192 81 1f 00
        E 0 91 1d 20
        E 192 81 1d 00
        E 0 91 1b 20
        E 192 81 1b 00
        E 0 91 1a 20
        E 192 81 1a 00
        E 0 91 18 20
        E 576 81 18 00
        E 0 91 24 20
        E 48 81 24 00
        E 0 91 26 20
        E 48 81 26 00
        E 0 91 27 20
        E 96 81 27 00
        E 0 91 26 20
        E 192 81 26 00
        E 0 91 25 20
        E 192 81 25 00
        E 0 91 1f 20
        E 576 b1 0b 78
        E 0 81 1f 00
        E 0 91 23 78
        E 384 b1 0b 20
        E 0 81 23 00
        E 0 91 1f 20
        E 192 81 1f 00
        E 0 91 1d 20
        E 384 81 1d 00
        E 0 91 1b 20
        E 192 81 1b 00
        E 0 91 18 20
        E 1728 b1 0b 18
        E 384 81 18 00
        E 0 91 30 18
        E 192 81 30 00
        E 0 91 18 18
        E 384 b1 0b 60
        E 0 81 18 00
        E 0 91 2b 60
        E 576 b1 0b 18
        E 0 81 2b 00
        E 0 91 18 18
        E 384 81 18 00
        E 0 91 30 18
        E 192 81 30 00
        E 0 91 18 18
        E 384 b1 0b 60
        E 0 81 18 00
        E 0 91 33 60
        E 384 81 33 00
        E 0 91 32 60
        E 192 b1 0b 18
        E 0 81 32 00
        E 0 91 18 18
        E 384 81 18 00
        E 0 91 30 18
        E 192 81 30 00
        E 0 91 18 18
        E 384 b1 0b 60
        E 0 81 18 00
        E 0 91 2b 60
        E 576 b1 0b 18
        E 0 81 2b 00
        E 0 91 18 18
        E 384 81 18 00
        E 0 91 30 18
        E 192 81 30 00
        E 0 91 18 18
        E 384 b1 0b 60
        E 0 81 18 00
        E 0 91 33 60
        E 384 81 33 00
        E 0 91 32 60
        E 192 b1 0b 18
        E 0 81 32 00
        E 0 91 18 18
        E 384 81 18 00
        E 0 91 30 18
        E 192 81 30 00
        E 0 91 18 18
        E 384 b1 0b 60
        E 0 81 18 00
        E 0 91 2b 60
        E 576 b1 0b 18
        E 0 81 2b 00
        E 0 91 18 18
        E 384 81 18 00
        E 0 91 30 18
        E 192 81 30 00
        E 0 91 18 18
        E 384 b1 0b 60
        E 0 81 18 00
        E 0 91 33 60
        E 384 81 33 00
        E 0 91 32 60
        E 192 b1 0b 18
        E 0 81 32 00
        E 0 91 18 18
        E 384 81 18 00
        E 0 91 30 18
        E 192 81 30 00
        E 0 91 18 18
        E 384 b1 0b 60
        E 0 81 18 00
        E 0 91 2b 60
        E 576 b1 0b 18
        E 0 81 2b 00
        E 0 91 18 18
        E 384 81 18 00
        E 0 91 30 18
        E 192 81 30 00
        E 0 91 18 18
        E 384 b1 0b 60
        E 0 81 18 00
        E 0 91 33 60
        E 384 81 33 00
        E 0 91 32 60
        E 192 b1 0c 40
        E 0 b1 0b 68
        E 0 81 32 00
        E 0 91 2a 68
        E 256 81 2a 00
        E 0 91 2b 68
        E 256 81 2b 00
        E 0 91 2c 68
        E 256 81 2c 00
        E 0 91 2d 68
        E 256 81 2d 00
        E 0 91 2e 68
        E 256 81 2e 00
        E 0 91 2f 68
        E 128 81 2f 00
        E 0 91 30 68
        E 1152 b1 0b 18
        E 256 b1 0c 10
        E 0 b1 0b 20
        E 0 81 30 00
        E 0 91 24 20
        E 624 81 24 00
        E 0 91 26 20
        E 48 81 26 00
        E 0 91 27 20
        E 96 81 27 00
        E 0 91 26 20
        E 192 81 26 00
        E 0 91 25 20
        E 192 81 25 00
        E 0 91 1f 20
        E 192 b1 0b 78
        E 0 81 1f 00
        E 0 91 20 78
        E 864 b1 0b 20
        E 0 81 20 00
        E 0 91 1f 20
        E 48 81 1f 00
        E 0 91 20 20
        E 48 81 20 00
        E 0 91 1f 20
        E 192 81 1f 00
        E 0 91 1d 20
        E 192 81 1d 00
        E 0 91 1b 20
        E 192 81 1b 00
        E 0 91 1a 20
        E 192 81 1a 00
        E 0 91 18 20
        E 576 81 18 00
        E 0 91 24 20
        E 48 81 24 00
        E 0 91 26 20
        E 48 81 26 00
        E 0 91 27 20
        E 96 81 27 00
        E 0 91 26 20
        E 192 81 26 00
        E 0 91 25 20
        E 192 81 25 00
        E 0 91 1f 20
        E 576 b1 0b 78
        E 0 81 1f 00
        E 0 91 23 78
        E 384 b1 0b 20
        E 0 81 23 00
        E 0 91 1f 20
        E 192 81 1f 00
        E 0 91 1d 20
        E 384 81 1d 00
        E 0 91 1b 20
        E 192 81 1b 00
        E 0 91 18 20
        E 1728 81 18 00
        E 0 91 24 20
        E 624 81 24 00
        E 0 91 26 20
        E 48 81 26 00
        E 0 91 27 20
        E 96 81 27 00
        E 0 91 26 20
        E 192 81 26 00
        E 0 91 25 20
        E 192 81 25 00
        E 0 91 1f 20
        E 192 b1 0b 78
        E 0 81 1f 00
        E 0 91 20 78
        E 864 b1 0b 20
        E 0 81 20 00
        E 0 91 1f 20
        E 48 81 1f 00
        E 0 91 20 20
        E 48 81 20 00
        E 0 91 1f 20
        E 192 81 1f 00
        E 0 91 1d 20
        E 192 81 1d 00
        E 0 91 1b 20
        E 192 81 1b 00
        E 0 91 1a 20
        E 192 81 1a 00
        E 0 91 18 20
        E 576 81 18 00
        E 0 91 24 20
        E 48 81 24 00
        E 0 91 26 20
        E 48 81 26 00
        E 0 91 27 20
        E 96 81 27 00
        E 0 91 26 20
        E 192 81 26 00
        E 0 91 25 20
        E 192 81 25 00
        E 0 91 1f 20
        E 576 b1 0b 78
        E 0 81 1f 00
        E 0 91 23 78
        E 384 b1 0b 20
        E 0 81 23 00
        E 0 91 1f 20
        E 192 81 1f 00
        E 0 91 1d 20
        E 384 81 1d 00
        E 0 91 1b 20
        E 192 81 1b 00
        E 0 91 18 20
        E 1728 81 18 00
        E 0 91 24 20
        E 624 81 24 00
        E 0 91 26 20
        E 48 81 26 00
        E 0 91 27 20
        E 96 81 27 00
        E 0 91 26 20
        E 192 81 26 00
        E 0 91 25 20
        E 192 81 25 00
        E 0 91 1f 20
        E 192 b1 0b 78
        E 0 81 1f 00
        E 0 91 20 78
        E 864 b1 0b 20
        E 0 81 20 00
        E 0 91 1f 20
        E 48 81 1f 00
        E 0 91 20 20
        E 48 81 20 00
        E 0 91 1f 20
        E 192 81 1f 00
        E 0 91 1d 20
        E 192 81 1d 00
        E 0 91 1b 20
        E 192 81 1b 00
        E 0 91 1a 20
        E 192 81 1a 00
        E 0 91 18 20
        E 576 81 18 00
        E 0 91 24 20
        E 48 81 24 00
        E 0 91 26 20
        E 48 81 26 00
        E 0 91 27 20
        E 96 81 27 00
        E 0 91 26 20
        E 192 81 26 00
        E 0 91 25 20
        E 192 81 25 00
        E 0 91 1f 20
        E 576 b1 0b 78
        E 0 81 1f 00
        E 0 91 23 78
        E 384 b1 0b 20
        E 0 81 23 00
        E 0 91 1f 20
        E 192 81 1f 00
        E 0 91 1d 20
        E 384 81 1d 00
        E 0 91 1b 20
        E 192 81 1b 00
        E 0 91 18 20
        E 1728 81 18 00
        E 0 91 24 20
        E 624 81 24 00
        E 0 91 26 20
        E 48 81 26 00
        E 0 91 27 20
        E 96 81 27 00
        E 0 91 26 20
        E 192 81 26 00
        E 0 91 25 20
        E 192 81 25 00
        E 0 91 1f 20
        E 192 b1 0b 78
        E 0 81 1f 00
        E 0 91 20 78
        E 864 b1 0b 20
        E 0 81 20 00
        E 0 91 1f 20
        E 48 81 1f 00
        E 0 91 20 20
        E 48 81 20 00
        E 0 91 1f 20
        E 192 81 1f 00
        E 0 91 1d 20
        E 192 81 1d 00
        E 0 91 1b 20
        E 192 81 1b 00
        E 0 91 1a 20
        E 192 81 1a 00
        E 0 91 18 20
        E 576 81 18 00
        E 0 91 24 20
        E 48 81 24 00
        E 0 91 26 20
        E 48 81 26 00
        E 0 91 27 20
        E 96 81 27 00
        E 0 91 26 20
        E 192 81 26 00
        E 0 91 25 20
        E 192 81 25 00
        E 0 91 1f 20
        E 576 b1 0b 78
        E 0 81 1f 00
        E 0 91 23 78
        E 384 b1 0b 20
        E 0 81 23 00
        E 0 91 1f 20
        E 192 81 1f 00
        E 0 91 1d 20
        E 384 81 1d 00
        E 0 91 1b 20
        E 192 81 1b 00
        E 0 91 18 20
        E 1728 b1 0b 18
        E 384 81 18 00
        E 0 91 30 18
        E 192 81 30 00
        E 0 91 18 18
        E 384 b1 0b 60
        E 0 81 18 00
        E 0 91 2b 60
        E 576 b1 0b 18
        E 0 81 2b 00
        E 0 91 18 18
        E 384 81 18 00
        E 0 91 30 18
        E 192 81 30 00
        E 0 91 18 18
        E 384 b1 0b 60
        E 0 81 18 00
        E 0 91 33 60
        E 384 81 33 00
        E 0 91 32 60
        E 192 b1 0b 18
        E 0 81 32 00
        E 0 91 18 18
        E 384 81 18 00
        E 0 91 30 18
        E 192 81 30 00
        E 0 91 18 18
        E 384 b1 0b 60
        E 0 81 18 00
        E 0 91 2b 60
        E 576 b1 0b 18
        E 0 81 2b 00
        E 0 91 18 18
        E 384 81 18 00
        E 0 91 30 18
        E 192 81 30 00
        E 0 91 18 18
        E 384 b1 0b 60
        E 0 81 18 00
        E 0 91 33 60
        E 384 81 33 00
        E 0 91 32 60
        E 192 b1 0b 18
        E 0 81 32 00
        E 0 91 18 18
        E 384 81 18 00
        E 0 91 30 18
        E 192 81 30 00
        E 0 91 18 18
        E 384 b1 0b 60
        E 0 81 18 00
        E 0 91 2b 60
        E 576 b1 0b 18
        E 0 81 2b 00
        E 0 91 18 18
        E 384 81 18 00
        E 0 91 30 18
        E 192 81 30 00
        E 0 91 18 18
        E 384 b1 0b 60
        E 0 81 18 00
        E 0 91 33 60
        E 384 81 33 00
        E 0 91 32 60
        E 192 b1 0b 18
        E 0 81 32 00
        E 0 91 18 18
        E 384 81 18 00
        E 0 91 30 18
        E 192 81 30 00
        E 0 91 18 18
        E 64 81 18 00
        E 0 ff 2f 00
      >
    >
  >
  <TRACK {22080C73-D719-4AB9-871D-99039FB404BE}
    NAME "NES - Triangle [ch2]"
    PEAKCOL 16744192
    BEAT -1
    AUTOMODE 0
    PANLAWFLAGS 3
    VOLPAN 1 0 -1 -1 1
    MUTESOLO 0 0 0
    IPHASE 0
    PLAYOFFS 0 1
    ISBUS 0 0
    BUSCOMP 0 0 0 0 0
    SHOWINMIX 1 0.6667 0.5 1 0.5 0 0 0
    FIXEDLANES 9 0 0 0 0
    SEL 0
    REC 0 5088 1 0 0 0 0 0
    VU 2
    TRACKHEIGHT 0 0 0 0 0 0 0
    INQ 0 0 0 0.5 100 0 0 100
    NCHAN 2
    FX 1
    TRACKID {22080C73-D719-4AB9-871D-99039FB404BE}
    PERF 0
    MIDIOUT -1
    MAINSEND 1 0
    <FXCHAIN
      WNDRECT 24 52 700 560
      SHOW 0
      LASTSEL 0
      DOCKED 0
      BYPASS 0 0 0
      <JS "ReapNES Studio/ReapNES_Console.jsfx" ""
        2 15 1 10 80 10 100 2 1 15 1 5 60 10 80 1 1 0 50 0 0 15 1 0 100 0 0 0.500000 0.500000 0.400000 0.300000 0.800000 2 1 0 0 0 0 - - - - - - - - - - - - - - - - - - - - - - - - - -
      >
      FLOATPOS 0 0 0 0
      FXID {93ADEA1D-E88D-4CE8-BC82-6DA09D59A990}
      WAK 0 0
    >
    <ITEM
      POSITION 0
      LENGTH 83.98134
      LOOP 0
      ALLTAKES 0
      FADEIN 0 0 0 0 0 0 0
      FADEOUT 0 0 0 0 0 0 0
      MUTE 0 0
      SEL 0
      IGUID {7B7CD6B4-77BD-495A-B6D5-8542761429B1}
      <SOURCE MIDI
        HASDATA 1 480 QN
        CCINTERP 32
        E 0 c2 26
        E 0 b2 0b 7f
        E 0 92 24 7f
        E 576 82 24 00
        E 0 b2 0b 7f
        E 0 92 30 7f
        E 48 82 30 00
        E 0 b2 0b 7f
        E 0 92 32 7f
        E 48 82 32 00
        E 0 b2 0b 7f
        E 0 92 33 7f
        E 96 82 33 00
        E 0 b2 0b 7f
        E 0 92 32 7f
        E 192 82 32 00
        E 0 b2 0b 7f
        E 0 92 31 7f
        E 192 82 31 00
        E 0 b2 0b 7f
        E 0 92 2b 7f
        E 192 82 2b 00
        E 0 b2 0b 7f
        E 0 92 2c 7f
        E 864 82 2c 00
        E 0 b2 0b 7f
        E 0 92 2b 7f
        E 48 82 2b 00
        E 0 b2 0b 7f
        E 0 92 2c 7f
        E 48 82 2c 00
        E 0 b2 0b 7f
        E 0 92 2b 7f
        E 192 82 2b 00
        E 0 b2 0b 7f
        E 0 92 29 7f
        E 192 82 29 00
        E 0 b2 0b 7f
        E 0 92 27 7f
        E 192 82 27 00
        E 0 b2 0b 7f
        E 0 92 26 7f
        E 192 82 26 00
        E 0 b2 0b 7f
        E 0 92 24 7f
        E 576 82 24 00
        E 0 b2 0b 7f
        E 0 92 30 7f
        E 48 82 30 00
        E 0 b2 0b 7f
        E 0 92 32 7f
        E 48 82 32 00
        E 0 b2 0b 7f
        E 0 92 33 7f
        E 96 82 33 00
        E 0 b2 0b 7f
        E 0 92 32 7f
        E 192 82 32 00
        E 0 b2 0b 7f
        E 0 92 31 7f
        E 192 82 31 00
        E 0 b2 0b 7f
        E 0 92 2b 7f
        E 576 82 2b 00
        E 0 b2 0b 7f
        E 0 92 2f 7f
        E 384 82 2f 00
        E 0 b2 0b 7f
        E 0 92 2b 7f
        E 192 82 2b 00
        E 0 b2 0b 7f
        E 0 92 29 7f
        E 384 82 29 00
        E 0 b2 0b 7f
        E 0 92 27 7f
        E 192 82 27 00
        E 0 b2 0b 7f
        E 0 92 24 7f
        E 2304 82 24 00
        E 0 b2 0b 7f
        E 0 92 30 7f
        E 48 82 30 00
        E 0 b2 0b 7f
        E 0 92 32 7f
        E 48 82 32 00
        E 0 b2 0b 7f
        E 0 92 33 7f
        E 96 82 33 00
        E 0 b2 0b 7f
        E 0 92 32 7f
        E 192 82 32 00
        E 0 b2 0b 7f
        E 0 92 31 7f
        E 192 82 31 00
        E 0 b2 0b 7f
        E 0 92 2b 7f
        E 192 82 2b 00
        E 0 b2 0b 7f
        E 0 92 2c 7f
        E 864 82 2c 00
        E 0 b2 0b 7f
        E 0 92 2b 7f
        E 48 82 2b 00
        E 0 b2 0b 7f
        E 0 92 2c 7f
        E 48 82 2c 00
        E 0 b2 0b 7f
        E 0 92 2b 7f
        E 192 82 2b 00
        E 0 b2 0b 7f
        E 0 92 29 7f
        E 192 82 29 00
        E 0 b2 0b 7f
        E 0 92 27 7f
        E 192 82 27 00
        E 0 b2 0b 7f
        E 0 92 26 7f
        E 192 82 26 00
        E 0 b2 0b 7f
        E 0 92 24 7f
        E 576 82 24 00
        E 0 b2 0b 7f
        E 0 92 30 7f
        E 48 82 30 00
        E 0 b2 0b 7f
        E 0 92 32 7f
        E 48 82 32 00
        E 0 b2 0b 7f
        E 0 92 33 7f
        E 96 82 33 00
        E 0 b2 0b 7f
        E 0 92 32 7f
        E 192 82 32 00
        E 0 b2 0b 7f
        E 0 92 31 7f
        E 192 82 31 00
        E 0 b2 0b 7f
        E 0 92 2b 7f
        E 576 82 2b 00
        E 0 b2 0b 7f
        E 0 92 2f 7f
        E 384 82 2f 00
        E 0 b2 0b 7f
        E 0 92 2b 7f
        E 192 82 2b 00
        E 0 b2 0b 7f
        E 0 92 29 7f
        E 384 82 29 00
        E 0 b2 0b 7f
        E 0 92 27 7f
        E 192 82 27 00
        E 0 b2 0b 7f
        E 0 92 24 7f
        E 2304 82 24 00
        E 0 b2 0b 7f
        E 0 92 30 7f
        E 48 82 30 00
        E 0 b2 0b 7f
        E 0 92 32 7f
        E 48 82 32 00
        E 0 b2 0b 7f
        E 0 92 33 7f
        E 96 82 33 00
        E 0 b2 0b 7f
        E 0 92 32 7f
        E 192 82 32 00
        E 0 b2 0b 7f
        E 0 92 31 7f
        E 192 82 31 00
        E 0 b2 0b 7f
        E 0 92 2b 7f
        E 192 82 2b 00
        E 0 b2 0b 7f
        E 0 92 2c 7f
        E 864 82 2c 00
        E 0 b2 0b 7f
        E 0 92 2b 7f
        E 48 82 2b 00
        E 0 b2 0b 7f
        E 0 92 2c 7f
        E 48 82 2c 00
        E 0 b2 0b 7f
        E 0 92 2b 7f
        E 192 82 2b 00
        E 0 b2 0b 7f
        E 0 92 29 7f
        E 192 82 29 00
        E 0 b2 0b 7f
        E 0 92 27 7f
        E 192 82 27 00
        E 0 b2 0b 7f
        E 0 92 26 7f
        E 192 82 26 00
        E 0 b2 0b 7f
        E 0 92 24 7f
        E 576 82 24 00
        E 0 b2 0b 7f
        E 0 92 30 7f
        E 48 82 30 00
        E 0 b2 0b 7f
        E 0 92 32 7f
        E 48 82 32 00
        E 0 b2 0b 7f
        E 0 92 33 7f
        E 96 82 33 00
        E 0 b2 0b 7f
        E 0 92 32 7f
        E 192 82 32 00
        E 0 b2 0b 7f
        E 0 92 31 7f
        E 192 82 31 00
        E 0 b2 0b 7f
        E 0 92 2b 7f
        E 576 82 2b 00
        E 0 b2 0b 7f
        E 0 92 2f 7f
        E 384 82 2f 00
        E 0 b2 0b 7f
        E 0 92 2b 7f
        E 192 82 2b 00
        E 0 b2 0b 7f
        E 0 92 29 7f
        E 384 82 29 00
        E 0 b2 0b 7f
        E 0 92 27 7f
        E 192 82 27 00
        E 0 b2 0b 7f
        E 0 92 24 7f
        E 2304 82 24 00
        E 0 b2 0b 7f
        E 0 92 30 7f
        E 48 82 30 00
        E 0 b2 0b 7f
        E 0 92 32 7f
        E 48 82 32 00
        E 0 b2 0b 7f
        E 0 92 33 7f
        E 96 82 33 00
        E 0 b2 0b 7f
        E 0 92 32 7f
        E 192 82 32 00
        E 0 b2 0b 7f
        E 0 92 31 7f
        E 192 82 31 00
        E 0 b2 0b 7f
        E 0 92 2b 7f
        E 192 82 2b 00
        E 0 b2 0b 7f
        E 0 92 2c 7f
        E 864 82 2c 00
        E 0 b2 0b 7f
        E 0 92 2b 7f
        E 48 82 2b 00
        E 0 b2 0b 7f
        E 0 92 2c 7f
        E 48 82 2c 00
        E 0 b2 0b 7f
        E 0 92 2b 7f
        E 192 82 2b 00
        E 0 b2 0b 7f
        E 0 92 29 7f
        E 192 82 29 00
        E 0 b2 0b 7f
        E 0 92 27 7f
        E 192 82 27 00
        E 0 b2 0b 7f
        E 0 92 26 7f
        E 192 82 26 00
        E 0 b2 0b 7f
        E 0 92 24 7f
        E 576 82 24 00
        E 0 b2 0b 7f
        E 0 92 30 7f
        E 48 82 30 00
        E 0 b2 0b 7f
        E 0 92 32 7f
        E 48 82 32 00
        E 0 b2 0b 7f
        E 0 92 33 7f
        E 96 82 33 00
        E 0 b2 0b 7f
        E 0 92 32 7f
        E 192 82 32 00
        E 0 b2 0b 7f
        E 0 92 31 7f
        E 192 82 31 00
        E 0 b2 0b 7f
        E 0 92 2b 7f
        E 576 82 2b 00
        E 0 b2 0b 7f
        E 0 92 2f 7f
        E 384 82 2f 00
        E 0 b2 0b 7f
        E 0 92 2b 7f
        E 192 82 2b 00
        E 0 b2 0b 7f
        E 0 92 29 7f
        E 384 82 29 00
        E 0 b2 0b 7f
        E 0 92 27 7f
        E 192 82 27 00
        E 0 b2 0b 7f
        E 0 92 24 7f
        E 1728 82 24 00
        E 0 b2 0b 7f
        E 0 92 30 7f
        E 384 82 30 00
        E 0 b2 0b 7f
        E 0 92 3a 7f
        E 576 82 3a 00
        E 0 b2 0b 7f
        E 0 92 35 7f
        E 576 82 35 00
        E 0 b2 0b 7f
        E 0 92 30 7f
        E 384 82 30 00
        E 0 b2 0b 7f
        E 0 92 3a 7f
        E 576 82 3a 00
        E 0 b2 0b 7f
        E 0 92 3c 7f
        E 576 82 3c 00
        E 0 b2 0b 7f
        E 0 92 30 7f
        E 384 82 30 00
        E 0 b2 0b 7f
        E 0 92 3a 7f
        E 576 82 3a 00
        E 0 b2 0b 7f
        E 0 92 35 7f
        E 576 82 35 00
        E 0 b2 0b 7f
        E 0 92 30 7f
        E 384 82 30 00
        E 0 b2 0b 7f
        E 0 92 3a 7f
        E 576 82 3a 00
        E 0 b2 0b 7f
        E 0 92 3c 7f
        E 576 82 3c 00
        E 0 b2 0b 7f
        E 0 92 30 7f
        E 384 82 30 00
        E 0 b2 0b 7f
        E 0 92 3a 7f
        E 576 82 3a 00
        E 0 b2 0b 7f
        E 0 92 35 7f
        E 576 82 35 00
        E 0 b2 0b 7f
        E 0 92 30 7f
        E 384 82 30 00
        E 0 b2 0b 7f
        E 0 92 3a 7f
        E 576 82 3a 00
        E 0 b2 0b 7f
        E 0 92 3c 7f
        E 576 82 3c 00
        E 0 b2 0b 7f
        E 0 92 30 7f
        E 384 82 30 00
        E 0 b2 0b 7f
        E 0 92 3a 7f
        E 576 82 3a 00
        E 0 b2 0b 7f
        E 0 92 35 7f
        E 576 82 35 00
        E 0 b2 0b 7f
        E 0 92 30 7f
        E 384 82 30 00
        E 0 b2 0b 7f
        E 0 92 3a 7f
        E 576 82 3a 00
        E 0 b2 0b 7f
        E 0 92 3c 7f
        E 832 82 3c 00
        E 0 b2 0b 7f
        E 0 92 3d 7f
        E 256 82 3d 00
        E 0 b2 0b 7f
        E 0 92 3e 7f
        E 256 82 3e 00
        E 0 b2 0b 7f
        E 0 92 3f 7f
        E 256 82 3f 00
        E 0 b2 0b 7f
        E 0 92 40 7f
        E 256 82 40 00
        E 0 b2 0b 7f
        E 0 92 41 7f
        E 128 82 41 00
        E 0 b2 0b 7f
        E 0 92 42 7f
        E 32 82 42 00
        E 0 b2 0b 7f
        E 0 92 41 7f
        E 32 82 41 00
        E 0 b2 0b 7f
        E 0 92 42 7f
        E 32 82 42 00
        E 0 b2 0b 7f
        E 0 92 41 7f
        E 32 82 41 00
        E 0 b2 0b 7f
        E 0 92 42 7f
        E 32 82 42 00
        E 0 b2 0b 7f
        E 0 92 41 7f
        E 32 82 41 00
        E 0 b2 0b 7f
        E 0 92 42 7f
        E 32 82 42 00
        E 0 b2 0b 7f
        E 0 92 41 7f
        E 32 82 41 00
        E 0 b2 0b 7f
        E 0 92 42 7f
        E 32 82 42 00
        E 0 b2 0b 7f
        E 0 92 41 7f
        E 32 82 41 00
        E 0 b2 0b 7f
        E 0 92 42 7f
        E 32 82 42 00
        E 0 b2 0b 7f
        E 0 92 41 7f
        E 32 82 41 00
        E 0 b2 0b 7f
        E 0 92 42 7f
        E 32 82 42 00
        E 0 b2 0b 7f
        E 0 92 41 7f
        E 32 82 41 00
        E 0 b2 0b 7f
        E 0 92 42 7f
        E 32 82 42 00
        E 0 b2 0b 7f
        E 0 92 41 7f
        E 32 82 41 00
        E 0 b2 0b 7f
        E 0 92 42 7f
        E 32 82 42 00
        E 0 b2 0b 7f
        E 0 92 41 7f
        E 32 82 41 00
        E 0 b2 0b 7f
        E 0 92 42 7f
        E 32 82 42 00
        E 0 b2 0b 7f
        E 0 92 41 7f
        E 32 82 41 00
        E 0 b2 0b 7f
        E 0 92 42 7f
        E 32 82 42 00
        E 0 b2 0b 7f
        E 0 92 41 7f
        E 32 82 41 00
        E 0 b2 0b 7f
        E 0 92 42 7f
        E 32 82 42 00
        E 0 b2 0b 7f
        E 0 92 41 7f
        E 32 82 41 00
        E 0 b2 0b 7f
        E 0 92 42 7f
        E 32 82 42 00
        E 0 b2 0b 7f
        E 0 92 41 7f
        E 32 82 41 00
        E 0 b2 0b 7f
        E 0 92 42 7f
        E 32 82 42 00
        E 0 b2 0b 7f
        E 0 92 41 7f
        E 32 82 41 00
        E 0 b2 0b 7f
        E 0 92 42 7f
        E 32 82 42 00
        E 0 b2 0b 7f
        E 0 92 41 7f
        E 32 82 41 00
        E 0 b2 0b 7f
        E 0 92 42 7f
        E 32 82 42 00
        E 0 b2 0b 7f
        E 0 92 41 7f
        E 32 82 41 00
        E 0 b2 0b 7f
        E 0 92 42 7f
        E 32 82 42 00
        E 0 b2 0b 7f
        E 0 92 41 7f
        E 32 82 41 00
        E 0 b2 0b 7f
        E 0 92 42 7f
        E 32 82 42 00
        E 0 b2 0b 7f
        E 0 92 41 7f
        E 32 82 41 00
        E 0 b2 0b 7f
        E 0 92 42 7f
        E 256 82 42 00
        E 0 b2 0b 7f
        E 0 92 24 7f
        E 576 82 24 00
        E 0 b2 0b 7f
        E 0 92 30 7f
        E 48 82 30 00
        E 0 b2 0b 7f
        E 0 92 32 7f
        E 48 82 32 00
        E 0 b2 0b 7f
        E 0 92 33 7f
        E 96 82 33 00
        E 0 b2 0b 7f
        E 0 92 32 7f
        E 192 82 32 00
        E 0 b2 0b 7f
        E 0 92 31 7f
        E 192 82 31 00
        E 0 b2 0b 7f
        E 0 92 2b 7f
        E 192 82 2b 00
        E 0 b2 0b 7f
        E 0 92 2c 7f
        E 864 82 2c 00
        E 0 b2 0b 7f
        E 0 92 2b 7f
        E 48 82 2b 00
        E 0 b2 0b 7f
        E 0 92 2c 7f
        E 48 82 2c 00
        E 0 b2 0b 7f
        E 0 92 2b 7f
        E 192 82 2b 00
        E 0 b2 0b 7f
        E 0 92 29 7f
        E 192 82 29 00
        E 0 b2 0b 7f
        E 0 92 27 7f
        E 192 82 27 00
        E 0 b2 0b 7f
        E 0 92 26 7f
        E 192 82 26 00
        E 0 b2 0b 7f
        E 0 92 24 7f
        E 576 82 24 00
        E 0 b2 0b 7f
        E 0 92 30 7f
        E 48 82 30 00
        E 0 b2 0b 7f
        E 0 92 32 7f
        E 48 82 32 00
        E 0 b2 0b 7f
        E 0 92 33 7f
        E 96 82 33 00
        E 0 b2 0b 7f
        E 0 92 32 7f
        E 192 82 32 00
        E 0 b2 0b 7f
        E 0 92 31 7f
        E 192 82 31 00
        E 0 b2 0b 7f
        E 0 92 2b 7f
        E 576 82 2b 00
        E 0 b2 0b 7f
        E 0 92 2f 7f
        E 384 82 2f 00
        E 0 b2 0b 7f
        E 0 92 2b 7f
        E 192 82 2b 00
        E 0 b2 0b 7f
        E 0 92 29 7f
        E 384 82 29 00
        E 0 b2 0b 7f
        E 0 92 27 7f
        E 192 82 27 00
        E 0 b2 0b 7f
        E 0 92 24 7f
        E 2304 82 24 00
        E 0 b2 0b 7f
        E 0 92 30 7f
        E 48 82 30 00
        E 0 b2 0b 7f
        E 0 92 32 7f
        E 48 82 32 00
        E 0 b2 0b 7f
        E 0 92 33 7f
        E 96 82 33 00
        E 0 b2 0b 7f
        E 0 92 32 7f
        E 192 82 32 00
        E 0 b2 0b 7f
        E 0 92 31 7f
        E 192 82 31 00
        E 0 b2 0b 7f
        E 0 92 2b 7f
        E 192 82 2b 00
        E 0 b2 0b 7f
        E 0 92 2c 7f
        E 864 82 2c 00
        E 0 b2 0b 7f
        E 0 92 2b 7f
        E 48 82 2b 00
        E 0 b2 0b 7f
        E 0 92 2c 7f
        E 48 82 2c 00
        E 0 b2 0b 7f
        E 0 92 2b 7f
        E 192 82 2b 00
        E 0 b2 0b 7f
        E 0 92 29 7f
        E 192 82 29 00
        E 0 b2 0b 7f
        E 0 92 27 7f
        E 192 82 27 00
        E 0 b2 0b 7f
        E 0 92 26 7f
        E 192 82 26 00
        E 0 b2 0b 7f
        E 0 92 24 7f
        E 576 82 24 00
        E 0 b2 0b 7f
        E 0 92 30 7f
        E 48 82 30 00
        E 0 b2 0b 7f
        E 0 92 32 7f
        E 48 82 32 00
        E 0 b2 0b 7f
        E 0 92 33 7f
        E 96 82 33 00
        E 0 b2 0b 7f
        E 0 92 32 7f
        E 192 82 32 00
        E 0 b2 0b 7f
        E 0 92 31 7f
        E 192 82 31 00
        E 0 b2 0b 7f
        E 0 92 2b 7f
        E 576 82 2b 00
        E 0 b2 0b 7f
        E 0 92 2f 7f
        E 384 82 2f 00
        E 0 b2 0b 7f
        E 0 92 2b 7f
        E 192 82 2b 00
        E 0 b2 0b 7f
        E 0 92 29 7f
        E 384 82 29 00
        E 0 b2 0b 7f
        E 0 92 27 7f
        E 192 82 27 00
        E 0 b2 0b 7f
        E 0 92 24 7f
        E 2304 82 24 00
        E 0 b2 0b 7f
        E 0 92 30 7f
        E 48 82 30 00
        E 0 b2 0b 7f
        E 0 92 32 7f
        E 48 82 32 00
        E 0 b2 0b 7f
        E 0 92 33 7f
        E 96 82 33 00
        E 0 b2 0b 7f
        E 0 92 32 7f
        E 192 82 32 00
        E 0 b2 0b 7f
        E 0 92 31 7f
        E 192 82 31 00
        E 0 b2 0b 7f
        E 0 92 2b 7f
        E 192 82 2b 00
        E 0 b2 0b 7f
        E 0 92 2c 7f
        E 864 82 2c 00
        E 0 b2 0b 7f
        E 0 92 2b 7f
        E 48 82 2b 00
        E 0 b2 0b 7f
        E 0 92 2c 7f
        E 48 82 2c 00
        E 0 b2 0b 7f
        E 0 92 2b 7f
        E 192 82 2b 00
        E 0 b2 0b 7f
        E 0 92 29 7f
        E 192 82 29 00
        E 0 b2 0b 7f
        E 0 92 27 7f
        E 192 82 27 00
        E 0 b2 0b 7f
        E 0 92 26 7f
        E 192 82 26 00
        E 0 b2 0b 7f
        E 0 92 24 7f
        E 576 82 24 00
        E 0 b2 0b 7f
        E 0 92 30 7f
        E 48 82 30 00
        E 0 b2 0b 7f
        E 0 92 32 7f
        E 48 82 32 00
        E 0 b2 0b 7f
        E 0 92 33 7f
        E 96 82 33 00
        E 0 b2 0b 7f
        E 0 92 32 7f
        E 192 82 32 00
        E 0 b2 0b 7f
        E 0 92 31 7f
        E 192 82 31 00
        E 0 b2 0b 7f
        E 0 92 2b 7f
        E 576 82 2b 00
        E 0 b2 0b 7f
        E 0 92 2f 7f
        E 384 82 2f 00
        E 0 b2 0b 7f
        E 0 92 2b 7f
        E 192 82 2b 00
        E 0 b2 0b 7f
        E 0 92 29 7f
        E 384 82 29 00
        E 0 b2 0b 7f
        E 0 92 27 7f
        E 192 82 27 00
        E 0 b2 0b 7f
        E 0 92 24 7f
        E 2304 82 24 00
        E 0 b2 0b 7f
        E 0 92 30 7f
        E 48 82 30 00
        E 0 b2 0b 7f
        E 0 92 32 7f
        E 48 82 32 00
        E 0 b2 0b 7f
        E 0 92 33 7f
        E 96 82 33 00
        E 0 b2 0b 7f
        E 0 92 32 7f
        E 192 82 32 00
        E 0 b2 0b 7f
        E 0 92 31 7f
        E 192 82 31 00
        E 0 b2 0b 7f
        E 0 92 2b 7f
        E 192 82 2b 00
        E 0 b2 0b 7f
        E 0 92 2c 7f
        E 864 82 2c 00
        E 0 b2 0b 7f
        E 0 92 2b 7f
        E 48 82 2b 00
        E 0 b2 0b 7f
        E 0 92 2c 7f
        E 48 82 2c 00
        E 0 b2 0b 7f
        E 0 92 2b 7f
        E 192 82 2b 00
        E 0 b2 0b 7f
        E 0 92 29 7f
        E 192 82 29 00
        E 0 b2 0b 7f
        E 0 92 27 7f
        E 192 82 27 00
        E 0 b2 0b 7f
        E 0 92 26 7f
        E 192 82 26 00
        E 0 b2 0b 7f
        E 0 92 24 7f
        E 576 82 24 00
        E 0 b2 0b 7f
        E 0 92 30 7f
        E 48 82 30 00
        E 0 b2 0b 7f
        E 0 92 32 7f
        E 48 82 32 00
        E 0 b2 0b 7f
        E 0 92 33 7f
        E 96 82 33 00
        E 0 b2 0b 7f
        E 0 92 32 7f
        E 192 82 32 00
        E 0 b2 0b 7f
        E 0 92 31 7f
        E 192 82 31 00
        E 0 b2 0b 7f
        E 0 92 2b 7f
        E 576 82 2b 00
        E 0 b2 0b 7f
        E 0 92 2f 7f
        E 384 82 2f 00
        E 0 b2 0b 7f
        E 0 92 2b 7f
        E 192 82 2b 00
        E 0 b2 0b 7f
        E 0 92 29 7f
        E 384 82 29 00
        E 0 b2 0b 7f
        E 0 92 27 7f
        E 192 82 27 00
        E 0 b2 0b 7f
        E 0 92 24 7f
        E 1728 82 24 00
        E 0 b2 0b 7f
        E 0 92 30 7f
        E 384 82 30 00
        E 0 b2 0b 7f
        E 0 92 3a 7f
        E 576 82 3a 00
        E 0 b2 0b 7f
        E 0 92 35 7f
        E 576 82 35 00
        E 0 b2 0b 7f
        E 0 92 30 7f
        E 384 82 30 00
        E 0 b2 0b 7f
        E 0 92 3a 7f
        E 576 82 3a 00
        E 0 b2 0b 7f
        E 0 92 3c 7f
        E 576 82 3c 00
        E 0 b2 0b 7f
        E 0 92 30 7f
        E 384 82 30 00
        E 0 b2 0b 7f
        E 0 92 3a 7f
        E 576 82 3a 00
        E 0 b2 0b 7f
        E 0 92 35 7f
        E 576 82 35 00
        E 0 b2 0b 7f
        E 0 92 30 7f
        E 384 82 30 00
        E 0 b2 0b 7f
        E 0 92 3a 7f
        E 576 82 3a 00
        E 0 b2 0b 7f
        E 0 92 3c 7f
        E 576 82 3c 00
        E 0 b2 0b 7f
        E 0 92 30 7f
        E 384 82 30 00
        E 0 b2 0b 7f
        E 0 92 3a 7f
        E 576 82 3a 00
        E 0 b2 0b 7f
        E 0 92 35 7f
        E 576 82 35 00
        E 0 b2 0b 7f
        E 0 92 30 7f
        E 384 82 30 00
        E 0 b2 0b 7f
        E 0 92 3a 7f
        E 576 82 3a 00
        E 0 b2 0b 7f
        E 0 92 3c 7f
        E 576 82 3c 00
        E 0 b2 0b 7f
        E 0 92 30 7f
        E 384 82 30 00
        E 0 b2 0b 7f
        E 0 92 3a 7f
        E 256 82 3a 00
        E 0 ff 2f 00
      >
    >
  >
  <TRACK {6D720A3A-AB1C-4CF9-9F77-E5D03F4D9280}
    NAME "NES - Noise / Drums"
    PEAKCOL 11184810
    BEAT -1
    AUTOMODE 0
    PANLAWFLAGS 3
    VOLPAN 1 0 -1 -1 1
    MUTESOLO 0 0 0
    IPHASE 0
    PLAYOFFS 0 1
    ISBUS 0 0
    BUSCOMP 0 0 0 0 0
    SHOWINMIX 1 0.6667 0.5 1 0.5 0 0 0
    FIXEDLANES 9 0 0 0 0
    SEL 0
    REC 0 5088 1 0 0 0 0 0
    VU 2
    TRACKHEIGHT 0 0 0 0 0 0 0
    INQ 0 0 0 0.5 100 0 0 100
    NCHAN 2
    FX 1
    TRACKID {6D720A3A-AB1C-4CF9-9F77-E5D03F4D9280}
    PERF 0
    MIDIOUT -1
    MAINSEND 1 0
    <FXCHAIN
      WNDRECT 24 52 700 560
      SHOW 0
      LASTSEL 0
      DOCKED 0
      BYPASS 0 0 0
      <JS "ReapNES Studio/ReapNES_Console.jsfx" ""
        2 15 1 10 80 10 100 2 1 15 1 5 60 10 80 1 1 0 50 0 0 15 1 0 100 0 0 0.500000 0.500000 0.400000 0.300000 0.800000 3 1 0 0 0 0 - - - - - - - - - - - - - - - - - - - - - - - - - -
      >
      FLOATPOS 0 0 0 0
      FXID {87DD1284-4B36-4F78-9E4F-CB8BF0C91737}
      WAK 0 0
    >
  >
>