<REAPER_PROJECT 0.1 "7.27/win64" 1707000000
  <NOTES 0 2
    |ReapNES Studio Project
    |MIDI Import - Wizards_&_Warriors_14_Inside_the_Big_Tree_v1
  >
  RIPPLE 0
  GROUPOVERRIDE 0 0 0
  AUTOXFADE 129
  ENVATTACH 3
  POOLEDENVATTACH 0
  MIXERUIFLAGS 11 48
  ENVFADESZ10 40
  PEAKGAIN 1
  FEEDBACK 0
  PANLAW 1
  PROJOFFS 0 0 0
  MAXPROJLEN 0 0
  GRID 3199 8 1 8 1 0 0 0
  TIMEMODE 1 5 -1 30 0 0 -1
  VIDEO_CONFIG 0 0 65792
  PANMODE 3
  PANLAWFLAGS 3
  CURSOR 0
  ZOOM 100 0 0
  VZOOMEX 6 0
  USE_REC_CFG 0
  RECMODE 1
  SMPTESYNC 0 30 100 40 1000 300 0 0 1 0 0
  LOOP 0
  LOOPGRAN 0 4
  RECORD_PATH "Media" ""
  <RECORD_CFG
    ZXZhdxgAAQ==
  >
  <APPLYFX_CFG
  >
  RENDER_FILE ""
  RENDER_PATTERN ""
  RENDER_FMT 0 2 0
  RENDER_1X 0
  RENDER_RANGE 1 0 0 18 1000
  RENDER_RESAMPLE 3 0 1
  RENDER_ADDTOPROJ 0
  RENDER_STEMS 0
  RENDER_DITHER 0
  TIMELOCKMODE 1
  TEMPOENVLOCKMODE 1
  ITEMMIX 1
  DEFPITCHMODE 589824 0
  TAKELANE 1
  SAMPLERATE 44100 0 0
  <RENDER_CFG
    ZXZhdxgAAQ==
  >
  LOCK 1
  <METRONOME 6 2
    VOL 0.25 0.125
    BEATLEN 4
    FREQ 1760 880 1
    SAMPLES "" ""
    SPLIGNORE 0 0
    SPLDEF 2 660 "" 0
    SPLDEF 3 440 "" 0
    PATTERN 0 169
    PATTERNSTR ABBB
    MULT 1
  >
  GLOBAL_AUTO -1
  TEMPO 128.59999614200012 4 4
  PLAYRATE 1 0 0.25 4
  SELECTION 0 0
  SELECTION2 0 0
  MASTERAUTOMODE 0
  MASTERTRACKHEIGHT 0 0
  MASTERPEAKCOL 16576
  MASTERMUTESOLO 0
  MASTERTRACKVIEW 0 0.6667 0.5 0.5 0 0 0 0 0 0 0 0 0 0
  MASTERHWOUT 0 0 1 0 0 0 0 -1
  MASTER_NCH 2 2
  MASTER_VOLUME 1 0 -1 -1 1
  MASTER_PANMODE 3
  MASTER_PANLAWFLAGS 3
  MASTER_FX 1
  MASTER_SEL 0
  <MASTERPLAYSPEEDENV
    EGUID {39DA4A88-770E-433E-8DCD-00FB32879DAE}
    ACT 0 -1
    VIS 0 1 1
    LANEHEIGHT 0 0
    ARM 0
    DEFSHAPE 0 -1 -1
  >
  <TEMPOENVEX
    EGUID {ADB7FB9E-B5F8-454B-AB63-E932B98082A9}
    ACT 1 -1
    VIS 1 0 1
    LANEHEIGHT 0 0
    ARM 0
    DEFSHAPE 1 -1 -1
  >
  <PROJBAY
  >
  <TRACK {FC28B11C-F780-4C03-AF32-44BE11F4196B}
    NAME "NES - Pulse 1 [ch0]"
    PEAKCOL 16576606
    BEAT -1
    AUTOMODE 0
    PANLAWFLAGS 3
    VOLPAN 1 0 -1 -1 1
    MUTESOLO 0 0 0
    IPHASE 0
    PLAYOFFS 0 1
    ISBUS 0 0
    BUSCOMP 0 0 0 0 0
    SHOWINMIX 1 0.6667 0.5 1 0.5 0 0 0
    FIXEDLANES 9 0 0 0 0
    SEL 1
    REC 1 5088 1 0 0 0 0 0
    VU 2
    TRACKHEIGHT 0 0 0 0 0 0 0
    INQ 0 0 0 0.5 100 0 0 100
    NCHAN 2
    FX 1
    TRACKID {FC28B11C-F780-4C03-AF32-44BE11F4196B}
    PERF 0
    MIDIOUT -1
    MAINSEND 1 0
    <FXCHAIN
      WNDRECT 24 52 700 560
      SHOW 0
      LASTSEL 0
      DOCKED 0
      BYPASS 0 0 0
      <JS "ReapNES Studio/ReapNES_Console.jsfx" ""
        2 15 1 10 80 10 100 2 1 15 1 5 60 10 80 1 1 0 50 0 0 15 1 0 100 0 0 0.500000 0.500000 0.400000 0.300000 0.800000 0 1 0 0 0 0 - - - - - - - - - - - - - - - - - - - - - - - - - -
      >
      FLOATPOS 0 0 0 0
      FXID {00685D5A-1AF2-438B-A365-DE05A22B3EB8}
      WAK 0 0
    >
    <ITEM
      POSITION 0
      LENGTH 83.98134
      LOOP 0
      ALLTAKES 0
      FADEIN 0 0 0 0 0 0 0
      FADEOUT 0 0 0 0 0 0 0
      MUTE 0 0
      SEL 0
      IGUID {D7378C12-D4D7-4E21-AD35-E126764FE948}
      <SOURCE MIDI
        HASDATA 1 480 QN
        CCINTERP 32
        E 0 c0 50
        E 0 b0 0c 20
        E 0 b0 0b 40
        E 0 90 23 40
        E 576 80 23 00
        E 0 90 24 40
        E 2496 80 24 00
        E 0 90 23 40
        E 576 80 23 00
        E 0 90 24 40
        E 2496 80 24 00
        E 0 90 23 40
        E 576 80 23 00
        E 0 90 24 40
        E 960 80 24 00
        E 0 90 23 40
        E 576 80 23 00
        E 0 90 24 40
        E 960 80 24 00
        E 0 90 23 40
        E 384 80 23 00
        E 0 90 24 40
        E 384 80 24 00
        E 0 90 23 40
        E 384 80 23 00
        E 0 90 24 40
        E 384 80 24 00
        E 0 90 23 40
        E 192 80 23 00
        E 0 90 24 40
        E 192 80 24 00
        E 0 90 23 40
        E 192 80 23 00
        E 0 90 24 40
        E 192 80 24 00
        E 0 90 23 40
        E 192 80 23 00
        E 0 90 24 40
        E 192 80 24 00
        E 0 90 23 40
        E 192 80 23 00
        E 0 90 24 40
        E 192 80 24 00
        E 0 90 36 40
        E 1536 80 36 00
        E 0 90 34 40
        E 1536 80 34 00
        E 0 90 36 40
        E 1536 80 36 00
        E 0 90 37 40
        E 1536 80 37 00
        E 0 90 36 40
        E 4608 80 36 00
        E 0 90 23 40
        E 576 80 23 00
        E 0 90 24 40
        E 2496 80 24 00
        E 0 90 23 40
        E 576 80 23 00
        E 0 90 24 40
        E 2496 80 24 00
        E 0 90 23 40
        E 576 80 23 00
        E 0 90 24 40
        E 960 80 24 00
        E 0 90 23 40
        E 576 80 23 00
        E 0 90 24 40
        E 960 80 24 00
        E 0 90 23 40
        E 384 80 23 00
        E 0 90 24 40
        E 384 80 24 00
        E 0 90 23 40
        E 384 80 23 00
        E 0 90 24 40
        E 384 80 24 00
        E 0 90 23 40
        E 192 80 23 00
        E 0 90 24 40
        E 192 80 24 00
        E 0 90 23 40
        E 192 80 23 00
        E 0 90 24 40
        E 192 80 24 00
        E 0 90 23 40
        E 192 80 23 00
        E 0 90 24 40
        E 192 80 24 00
        E 0 90 23 40
        E 192 80 23 00
        E 0 90 24 40
        E 192 80 24 00
        E 0 90 36 40
        E 1536 80 36 00
        E 0 90 34 40
        E 1536 80 34 00
        E 0 90 36 40
        E 1536 80 36 00
        E 0 90 37 40
        E 1536 80 37 00
        E 0 90 36 40
        E 4608 80 36 00
        E 0 90 23 40
        E 576 80 23 00
        E 0 90 24 40
        E 2496 80 24 00
        E 0 90 23 40
        E 576 80 23 00
        E 0 90 24 40
        E 2496 80 24 00
        E 0 90 23 40
        E 576 80 23 00
        E 0 90 24 40
        E 960 80 24 00
        E 0 90 23 40
        E 576 80 23 00
        E 0 90 24 40
        E 960 80 24 00
        E 0 90 23 40
        E 384 80 23 00
        E 0 90 24 40
        E 384 80 24 00
        E 0 90 23 40
        E 384 80 23 00
        E 0 90 24 40
        E 384 80 24 00
        E 0 90 23 40
        E 192 80 23 00
        E 0 90 24 40
        E 192 80 24 00
        E 0 90 23 40
        E 192 80 23 00
        E 0 90 24 40
        E 192 80 24 00
        E 0 90 23 40
        E 192 80 23 00
        E 0 90 24 40
        E 192 80 24 00
        E 0 90 23 40
        E 192 80 23 00
        E 0 90 24 40
        E 192 80 24 00
        E 0 90 36 40
        E 1536 80 36 00
        E 0 90 34 40
        E 1536 80 34 00
        E 0 90 36 40
        E 1536 80 36 00
        E 0 90 37 40
        E 1536 80 37 00
        E 0 90 36 40
        E 4608 80 36 00
        E 0 90 23 40
        E 576 80 23 00
        E 0 90 24 40
        E 2496 80 24 00
        E 0 90 23 40
        E 576 80 23 00
        E 0 90 24 40
        E 2496 80 24 00
        E 0 90 23 40
        E 576 80 23 00
        E 0 90 24 40
        E 960 80 24 00
        E 0 90 23 40
        E 576 80 23 00
        E 0 90 24 40
        E 960 80 24 00
        E 0 90 23 40
        E 384 80 23 00
        E 0 90 24 40
        E 384 80 24 00
        E 0 90 23 40
        E 384 80 23 00
        E 0 90 24 40
        E 384 80 24 00
        E 0 90 23 40
        E 192 80 23 00
        E 0 90 24 40
        E 192 80 24 00
        E 0 90 23 40
        E 192 80 23 00
        E 0 90 24 40
        E 192 80 24 00
        E 0 90 23 40
        E 192 80 23 00
        E 0 90 24 40
        E 192 80 24 00
        E 0 90 23 40
        E 192 80 23 00
        E 0 90 24 40
        E 192 80 24 00
        E 0 90 36 40
        E 1536 80 36 00
        E 0 90 34 40
        E 1536 80 34 00
        E 0 90 36 40
        E 1536 80 36 00
        E 0 90 37 40
        E 384 80 37 00
        E 0 ff 2f 00
      >
    >
  >
  <TRACK {1D9BEE7E-FED2-432A-8A0D-706E06C7F88F}
    NAME "NES - Pulse 2 [ch1]"
    PEAKCOL 10092441
    BEAT -1
    AUTOMODE 0
    PANLAWFLAGS 3
    VOLPAN 1 0 -1 -1 1
    MUTESOLO 0 0 0
    IPHASE 0
    PLAYOFFS 0 1
    ISBUS 0 0
    BUSCOMP 0 0 0 0 0
    SHOWINMIX 1 0.6667 0.5 1 0.5 0 0 0
    FIXEDLANES 9 0 0 0 0
    SEL 0
    REC 0 5088 1 0 0 0 0 0
    VU 2
    TRACKHEIGHT 0 0 0 0 0 0 0
    INQ 0 0 0 0.5 100 0 0 100
    NCHAN 2
    FX 1
    TRACKID {1D9BEE7E-FED2-432A-8A0D-706E06C7F88F}
    PERF 0
    MIDIOUT -1
    MAINSEND 1 0
    <FXCHAIN
      WNDRECT 24 52 700 560
      SHOW 0
      LASTSEL 0
      DOCKED 0
      BYPASS 0 0 0
      <JS "ReapNES Studio/ReapNES_Console.jsfx" ""
        2 15 1 10 80 10 100 2 1 15 1 5 60 10 80 1 1 0 50 0 0 15 1 0 100 0 0 0.500000 0.500000 0.400000 0.300000 0.800000 1 1 0 0 0 0 - - - - - - - - - - - - - - - - - - - - - - - - - -
      >
      FLOATPOS 0 0 0 0
      FXID {ABD8E3CD-7792-4589-B34C-F70F98C353EB}
      WAK 0 0
    >
    <ITEM
      POSITION 0
      LENGTH 83.98134
      LOOP 0
      ALLTAKES 0
      FADEIN 0 0 0 0 0 0 0
      FADEOUT 0 0 0 0 0 0 0
      MUTE 0 0
      SEL 0
      IGUID {4BBEE090-09FD-4922-9699-25F7C5963A7C}
      <SOURCE MIDI
        HASDATA 1 480 QN
        CCINTERP 32
        E 0 c1 51
        E 12288 b1 0c 20
        E 0 b1 0b 40
        E 0 91 3b 40
        E 1536 81 3b 00
        E 0 91 3a 40
        E 1536 81 3a 00
        E 0 91 3b 40
        E 1536 81 3b 00
        E 0 91 3d 40
        E 1536 81 3d 00
        E 0 91 3b 40
        E 1536 81 3b 00
        E 0 91 3a 40
        E 1536 81 3a 00
        E 0 91 3b 40
        E 15360 81 3b 00
        E 0 91 3a 40
        E 1536 81 3a 00
        E 0 91 3b 40
        E 1536 81 3b 00
        E 0 91 3d 40
        E 1536 81 3d 00
        E 0 91 3b 40
        E 1536 81 3b 00
        E 0 91 3a 40
        E 1536 81 3a 00
        E 0 91 3b 40
        E 15360 81 3b 00
        E 0 91 3a 40
        E 1536 81 3a 00
        E 0 91 3b 40
        E 1536 81 3b 00
        E 0 91 3d 40
        E 1536 81 3d 00
        E 0 91 3b 40
        E 1536 81 3b 00
        E 0 91 3a 40
        E 1536 81 3a 00
        E 0 91 3b 40
        E 15360 81 3b 00
        E 0 91 3a 40
        E 1536 81 3a 00
        E 0 91 3b 40
        E 1536 81 3b 00
        E 0 91 3d 40
        E 384 81 3d 00
        E 0 ff 2f 00
      >
    >
  >
  <TRACK {F22B94CE-201F-45C2-9E81-DA987B00FDEF}
    NAME "NES - Triangle [ch2]"
    PEAKCOL 16744192
    BEAT -1
    AUTOMODE 0
    PANLAWFLAGS 3
    VOLPAN 1 0 -1 -1 1
    MUTESOLO 0 0 0
    IPHASE 0
    PLAYOFFS 0 1
    ISBUS 0 0
    BUSCOMP 0 0 0 0 0
    SHOWINMIX 1 0.6667 0.5 1 0.5 0 0 0
    FIXEDLANES 9 0 0 0 0
    SEL 0
    REC 0 5088 1 0 0 0 0 0
    VU 2
    TRACKHEIGHT 0 0 0 0 0 0 0
    INQ 0 0 0 0.5 100 0 0 100
    NCHAN 2
    FX 1
    TRACKID {F22B94CE-201F-45C2-9E81-DA987B00FDEF}
    PERF 0
    MIDIOUT -1
    MAINSEND 1 0
    <FXCHAIN
      WNDRECT 24 52 700 560
      SHOW 0
      LASTSEL 0
      DOCKED 0
      BYPASS 0 0 0
      <JS "ReapNES Studio/ReapNES_Console.jsfx" ""
        2 15 1 10 80 10 100 2 1 15 1 5 60 10 80 1 1 0 50 0 0 15 1 0 100 0 0 0.500000 0.500000 0.400000 0.300000 0.800000 2 1 0 0 0 0 - - - - - - - - - - - - - - - - - - - - - - - - - -
      >
      FLOATPOS 0 0 0 0
      FXID {B2196C4E-A5BA-466B-BE59-2CC2205A5C55}
      WAK 0 0
    >
    <ITEM
      POSITION 0
      LENGTH 83.98134
      LOOP 0
      ALLTAKES 0
      FADEIN 0 0 0 0 0 0 0
      FADEOUT 0 0 0 0 0 0 0
      MUTE 0 0
      SEL 0
      IGUID {DA507FA0-E9F0-42DD-94C4-0ED67A837590}
      <SOURCE MIDI
        HASDATA 1 480 QN
        CCINTERP 32
        E 0 c2 26
        E 0 b2 0b 7f
        E 0 92 22 7f
        E 192 82 22 00
        E 0 b2 0b 7f
        E 0 92 23 7f
        E 192 82 23 00
        E 0 b2 0b 7f
        E 0 92 22 7f
        E 192 82 22 00
        E 0 b2 0b 7f
        E 0 92 23 7f
        E 192 82 23 00
        E 0 b2 0b 7f
        E 0 92 22 7f
        E 192 82 22 00
        E 0 b2 0b 7f
        E 0 92 23 7f
        E 192 82 23 00
        E 0 b2 0b 7f
        E 0 92 22 7f
        E 192 82 22 00
        E 0 b2 0b 7f
        E 0 92 23 7f
        E 192 82 23 00
        E 0 b2 0b 7f
        E 0 92 22 7f
        E 192 82 22 00
        E 0 b2 0b 7f
        E 0 92 23 7f
        E 192 82 23 00
        E 0 b2 0b 7f
        E 0 92 22 7f
        E 192 82 22 00
        E 0 b2 0b 7f
        E 0 92 23 7f
        E 192 82 23 00
        E 0 b2 0b 7f
        E 0 92 22 7f
        E 192 82 22 00
        E 0 b2 0b 7f
        E 0 92 23 7f
        E 192 82 23 00
        E 0 b2 0b 7f
        E 0 92 22 7f
        E 192 82 22 00
        E 0 b2 0b 7f
        E 0 92 23 7f
        E 192 82 23 00
        E 0 b2 0b 7f
        E 0 92 22 7f
        E 192 82 22 00
        E 0 b2 0b 7f
        E 0 92 23 7f
        E 192 82 23 00
        E 0 b2 0b 7f
        E 0 92 22 7f
        E 192 82 22 00
        E 0 b2 0b 7f
        E 0 92 23 7f
        E 192 82 23 00
        E 0 b2 0b 7f
        E 0 92 22 7f
        E 192 82 22 00
        E 0 b2 0b 7f
        E 0 92 23 7f
        E 192 82 23 00
        E 0 b2 0b 7f
        E 0 92 22 7f
        E 192 82 22 00
        E 0 b2 0b 7f
        E 0 92 23 7f
        E 192 82 23 00
        E 0 b2 0b 7f
        E 0 92 22 7f
        E 192 82 22 00
        E 0 b2 0b 7f
        E 0 92 23 7f
        E 192 82 23 00
        E 0 b2 0b 7f
        E 0 92 22 7f
        E 192 82 22 00
        E 0 b2 0b 7f
        E 0 92 23 7f
        E 192 82 23 00
        E 0 b2 0b 7f
        E 0 92 22 7f
        E 192 82 22 00
        E 0 b2 0b 7f
        E 0 92 23 7f
        E 192 82 23 00
        E 0 b2 0b 7f
        E 0 92 22 7f
        E 192 82 22 00
        E 0 b2 0b 7f
        E 0 92 23 7f
        E 192 82 23 00
        E 0 b2 0b 7f
        E 0 92 22 7f
        E 192 82 22 00
        E 0 b2 0b 7f
        E 0 92 23 7f
        E 192 82 23 00
        E 0 b2 0b 7f
        E 0 92 22 7f
        E 192 82 22 00
        E 0 b2 0b 7f
        E 0 92 23 7f
        E 192 82 23 00
        E 0 b2 0b 7f
        E 0 92 22 7f
        E 192 82 22 00
        E 0 b2 0b 7f
        E 0 92 23 7f
        E 192 82 23 00
        E 0 b2 0b 7f
        E 0 92 22 7f
        E 192 82 22 00
        E 0 b2 0b 7f
        E 0 92 23 7f
        E 192 82 23 00
        E 0 b2 0b 7f
        E 0 92 22 7f
        E 192 82 22 00
        E 0 b2 0b 7f
        E 0 92 23 7f
        E 192 82 23 00
        E 0 b2 0b 7f
        E 0 92 22 7f
        E 192 82 22 00
        E 0 b2 0b 7f
        E 0 92 23 7f
        E 192 82 23 00
        E 0 b2 0b 7f
        E 0 92 22 7f
        E 192 82 22 00
        E 0 b2 0b 7f
        E 0 92 23 7f
        E 192 82 23 00
        E 0 b2 0b 7f
        E 0 92 22 7f
        E 192 82 22 00
        E 0 b2 0b 7f
        E 0 92 23 7f
        E 192 82 23 00
        E 0 b2 0b 7f
        E 0 92 22 7f
        E 192 82 22 00
        E 0 b2 0b 7f
        E 0 92 23 7f
        E 192 82 23 00
        E 0 b2 0b 7f
        E 0 92 22 7f
        E 192 82 22 00
        E 0 b2 0b 7f
        E 0 92 23 7f
        E 192 82 23 00
        E 0 b2 0b 7f
        E 0 92 22 7f
        E 192 82 22 00
        E 0 b2 0b 7f
        E 0 92 23 7f
        E 192 82 23 00
        E 0 b2 0b 7f
        E 0 92 22 7f
        E 192 82 22 00
        E 0 b2 0b 7f
        E 0 92 23 7f
        E 192 82 23 00
        E 0 b2 0b 7f
        E 0 92 22 7f
        E 192 82 22 00
        E 0 b2 0b 7f
        E 0 92 23 7f
        E 192 82 23 00
        E 0 b2 0b 7f
        E 0 92 22 7f
        E 192 82 22 00
        E 0 b2 0b 7f
        E 0 92 23 7f
        E 192 82 23 00
        E 0 b2 0b 7f
        E 0 92 22 7f
        E 192 82 22 00
        E 0 b2 0b 7f
        E 0 92 23 7f
        E 192 82 23 00
        E 0 b2 0b 7f
        E 0 92 22 7f
        E 192 82 22 00
        E 0 b2 0b 7f
        E 0 92 23 7f
        E 192 82 23 00
        E 0 b2 0b 7f
        E 0 92 32 7f
        E 192 82 32 00
        E 0 b2 0b 7f
        E 0 92 23 7f
        E 192 82 23 00
        E 0 b2 0b 7f
        E 0 92 22 7f
        E 192 82 22 00
        E 0 b2 0b 7f
        E 0 92 23 7f
        E 192 82 23 00
        E 0 b2 0b 7f
        E 0 92 22 7f
        E 192 82 22 00
        E 0 b2 0b 7f
        E 0 92 23 7f
        E 192 82 23 00
        E 0 b2 0b 7f
        E 0 92 22 7f
        E 192 82 22 00
        E 0 b2 0b 7f
        E 0 92 23 7f
        E 192 82 23 00
        E 0 b2 0b 7f
        E 0 92 31 7f
        E 192 82 31 00
        E 0 b2 0b 7f
        E 0 92 1f 7f
        E 192 82 1f 00
        E 0 b2 0b 7f
        E 0 92 1e 7f
        E 192 82 1e 00
        E 0 b2 0b 7f
        E 0 92 1f 7f
        E 192 82 1f 00
        E 0 b2 0b 7f
        E 0 92 1e 7f
        E 192 82 1e 00
        E 0 b2 0b 7f
        E 0 92 1f 7f
        E 192 82 1f 00
        E 0 b2 0b 7f
        E 0 92 1e 7f
        E 192 82 1e 00
        E 0 b2 0b 7f
        E 0 92 1f 7f
        E 192 82 1f 00
        E 0 b2 0b 7f
        E 0 92 32 7f
        E 192 82 32 00
        E 0 b2 0b 7f
        E 0 92 23 7f
        E 192 82 23 00
        E 0 b2 0b 7f
        E 0 92 22 7f
        E 192 82 22 00
        E 0 b2 0b 7f
        E 0 92 23 7f
        E 192 82 23 00
        E 0 b2 0b 7f
        E 0 92 22 7f
        E 192 82 22 00
        E 0 b2 0b 7f
        E 0 92 23 7f
        E 192 82 23 00
        E 0 b2 0b 7f
        E 0 92 22 7f
        E 192 82 22 00
        E 0 b2 0b 7f
        E 0 92 23 7f
        E 192 82 23 00
        E 0 b2 0b 7f
        E 0 92 34 7f
        E 192 82 34 00
        E 0 b2 0b 7f
        E 0 92 25 7f
        E 192 82 25 00
        E 0 b2 0b 7f
        E 0 92 24 7f
        E 192 82 24 00
        E 0 b2 0b 7f
        E 0 92 25 7f
        E 192 82 25 00
        E 0 b2 0b 7f
        E 0 92 24 7f
        E 192 82 24 00
        E 0 b2 0b 7f
        E 0 92 25 7f
        E 192 82 25 00
        E 0 b2 0b 7f
        E 0 92 24 7f
        E 192 82 24 00
        E 0 b2 0b 7f
        E 0 92 25 7f
        E 192 82 25 00
        E 0 b2 0b 7f
        E 0 92 32 7f
        E 192 82 32 00
        E 0 b2 0b 7f
        E 0 92 23 7f
        E 192 82 23 00
        E 0 b2 0b 7f
        E 0 92 22 7f
        E 192 82 22 00
        E 0 b2 0b 7f
        E 0 92 23 7f
        E 192 82 23 00
        E 0 b2 0b 7f
        E 0 92 22 7f
        E 192 82 22 00
        E 0 b2 0b 7f
        E 0 92 23 7f
        E 192 82 23 00
        E 0 b2 0b 7f
        E 0 92 22 7f
        E 192 82 22 00
        E 0 b2 0b 7f
        E 0 92 23 7f
        E 192 82 23 00
        E 0 b2 0b 7f
        E 0 92 31 7f
        E 192 82 31 00
        E 0 b2 0b 7f
        E 0 92 1f 7f
        E 192 82 1f 00
        E 0 b2 0b 7f
        E 0 92 1e 7f
        E 192 82 1e 00
        E 0 b2 0b 7f
        E 0 92 1f 7f
        E 192 82 1f 00
        E 0 b2 0b 7f
        E 0 92 1e 7f
        E 192 82 1e 00
        E 0 b2 0b 7f
        E 0 92 1f 7f
        E 192 82 1f 00
        E 0 b2 0b 7f
        E 0 92 1e 7f
        E 192 82 1e 00
        E 0 b2 0b 7f
        E 0 92 1f 7f
        E 192 82 1f 00
        E 0 b2 0b 7f
        E 0 92 32 7f
        E 192 82 32 00
        E 0 b2 0b 7f
        E 0 92 23 7f
        E 192 82 23 00
        E 0 b2 0b 7f
        E 0 92 22 7f
        E 192 82 22 00
        E 0 b2 0b 7f
        E 0 92 23 7f
        E 192 82 23 00
        E 0 b2 0b 7f
        E 0 92 22 7f
        E 192 82 22 00
        E 0 b2 0b 7f
        E 0 92 23 7f
        E 192 82 23 00
        E 0 b2 0b 7f
        E 0 92 22 7f
        E 192 82 22 00
        E 0 b2 0b 7f
        E 0 92 23 7f
        E 192 82 23 00
        E 0 b2 0b 7f
        E 0 92 22 7f
        E 192 82 22 00
        E 0 b2 0b 7f
        E 0 92 23 7f
        E 192 82 23 00
        E 0 b2 0b 7f
        E 0 92 22 7f
        E 192 82 22 00
        E 0 b2 0b 7f
        E 0 92 23 7f
        E 192 82 23 00
        E 0 b2 0b 7f
        E 0 92 22 7f
        E 192 82 22 00
        E 0 b2 0b 7f
        E 0 92 23 7f
        E 192 82 23 00
        E 0 b2 0b 7f
        E 0 92 22 7f
        E 192 82 22 00
        E 0 b2 0b 7f
        E 0 92 23 7f
        E 192 82 23 00
        E 0 b2 0b 7f
        E 0 92 22 7f
        E 192 82 22 00
        E 0 b2 0b 7f
        E 0 92 23 7f
        E 192 82 23 00
        E 0 b2 0b 7f
        E 0 92 22 7f
        E 192 82 22 00
        E 0 b2 0b 7f
        E 0 92 23 7f
        E 192 82 23 00
        E 0 b2 0b 7f
        E 0 92 22 7f
        E 192 82 22 00
        E 0 b2 0b 7f
        E 0 92 23 7f
        E 192 82 23 00
        E 0 b2 0b 7f
        E 0 92 22 7f
        E 192 82 22 00
        E 0 b2 0b 7f
        E 0 92 23 7f
        E 192 82 23 00
        E 0 b2 0b 7f
        E 0 92 22 7f
        E 192 82 22 00
        E 0 b2 0b 7f
        E 0 92 23 7f
        E 192 82 23 00
        E 0 b2 0b 7f
        E 0 92 22 7f
        E 192 82 22 00
        E 0 b2 0b 7f
        E 0 92 23 7f
        E 192 82 23 00
        E 0 b2 0b 7f
        E 0 92 22 7f
        E 192 82 22 00
        E 0 b2 0b 7f
        E 0 92 23 7f
        E 192 82 23 00
        E 0 b2 0b 7f
        E 0 92 22 7f
        E 192 82 22 00
        E 0 b2 0b 7f
        E 0 92 23 7f
        E 192 82 23 00
        E 0 b2 0b 7f
        E 0 92 22 7f
        E 192 82 22 00
        E 0 b2 0b 7f
        E 0 92 23 7f
        E 192 82 23 00
        E 0 b2 0b 7f
        E 0 92 22 7f
        E 192 82 22 00
        E 0 b2 0b 7f
        E 0 92 23 7f
        E 192 82 23 00
        E 0 b2 0b 7f
        E 0 92 22 7f
        E 192 82 22 00
        E 0 b2 0b 7f
        E 0 92 23 7f
        E 192 82 23 00
        E 0 b2 0b 7f
        E 0 92 22 7f
        E 192 82 22 00
        E 0 b2 0b 7f
        E 0 92 23 7f
        E 192 82 23 00
        E 0 b2 0b 7f
        E 0 92 22 7f
        E 192 82 22 00
        E 0 b2 0b 7f
        E 0 92 23 7f
        E 192 82 23 00
        E 0 b2 0b 7f
        E 0 92 22 7f
        E 192 82 22 00
        E 0 b2 0b 7f
        E 0 92 23 7f
        E 192 82 23 00
        E 0 b2 0b 7f
        E 0 92 22 7f
        E 192 82 22 00
        E 0 b2 0b 7f
        E 0 92 23 7f
        E 192 82 23 00
        E 0 b2 0b 7f
        E 0 92 22 7f
        E 192 82 22 00
        E 0 b2 0b 7f
        E 0 92 23 7f
        E 192 82 23 00
        E 0 b2 0b 7f
        E 0 92 22 7f
        E 192 82 22 00
        E 0 b2 0b 7f
        E 0 92 23 7f
        E 192 82 23 00
        E 0 b2 0b 7f
        E 0 92 22 7f
        E 192 82 22 00
        E 0 b2 0b 7f
        E 0 92 23 7f
        E 192 82 23 00
        E 0 b2 0b 7f
        E 0 92 22 7f
        E 192 82 22 00
        E 0 b2 0b 7f
        E 0 92 23 7f
        E 192 82 23 00
        E 0 b2 0b 7f
        E 0 92 22 7f
        E 192 82 22 00
        E 0 b2 0b 7f
        E 0 92 23 7f
        E 192 82 23 00
        E 0 b2 0b 7f
        E 0 92 22 7f
        E 192 82 22 00
        E 0 b2 0b 7f
        E 0 92 23 7f
        E 192 82 23 00
        E 0 b2 0b 7f
        E 0 92 22 7f
        E 192 82 22 00
        E 0 b2 0b 7f
        E 0 92 23 7f
        E 192 82 23 00
        E 0 b2 0b 7f
        E 0 92 22 7f
        E 192 82 22 00
        E 0 b2 0b 7f
        E 0 92 23 7f
        E 192 82 23 00
        E 0 b2 0b 7f
        E 0 92 22 7f
        E 192 82 22 00
        E 0 b2 0b 7f
        E 0 92 23 7f
        E 192 82 23 00
        E 0 b2 0b 7f
        E 0 92 22 7f
        E 192 82 22 00
        E 0 b2 0b 7f
        E 0 92 23 7f
        E 192 82 23 00
        E 0 b2 0b 7f
        E 0 92 22 7f
        E 192 82 22 00
        E 0 b2 0b 7f
        E 0 92 23 7f
        E 192 82 23 00
        E 0 b2 0b 7f
        E 0 92 22 7f
        E 192 82 22 00
        E 0 b2 0b 7f
        E 0 92 23 7f
        E 192 82 23 00
        E 0 b2 0b 7f
        E 0 92 22 7f
        E 192 82 22 00
        E 0 b2 0b 7f
        E 0 92 23 7f
        E 192 82 23 00
        E 0 b2 0b 7f
        E 0 92 32 7f
        E 192 82 32 00
        E 0 b2 0b 7f
        E 0 92 23 7f
        E 192 82 23 00
        E 0 b2 0b 7f
        E 0 92 22 7f
        E 192 82 22 00
        E 0 b2 0b 7f
        E 0 92 23 7f
        E 192 82 23 00
        E 0 b2 0b 7f
        E 0 92 22 7f
        E 192 82 22 00
        E 0 b2 0b 7f
        E 0 92 23 7f
        E 192 82 23 00
        E 0 b2 0b 7f
        E 0 92 22 7f
        E 192 82 22 00
        E 0 b2 0b 7f
        E 0 92 23 7f
        E 192 82 23 00
        E 0 b2 0b 7f
        E 0 92 31 7f
        E 192 82 31 00
        E 0 b2 0b 7f
        E 0 92 1f 7f
        E 192 82 1f 00
        E 0 b2 0b 7f
        E 0 92 1e 7f
        E 192 82 1e 00
        E 0 b2 0b 7f
        E 0 92 1f 7f
        E 192 82 1f 00
        E 0 b2 0b 7f
        E 0 92 1e 7f
        E 192 82 1e 00
        E 0 b2 0b 7f
        E 0 92 1f 7f
        E 192 82 1f 00
        E 0 b2 0b 7f
        E 0 92 1e 7f
        E 192 82 1e 00
        E 0 b2 0b 7f
        E 0 92 1f 7f
        E 192 82 1f 00
        E 0 b2 0b 7f
        E 0 92 32 7f
        E 192 82 32 00
        E 0 b2 0b 7f
        E 0 92 23 7f
        E 192 82 23 00
        E 0 b2 0b 7f
        E 0 92 22 7f
        E 192 82 22 00
        E 0 b2 0b 7f
        E 0 92 23 7f
        E 192 82 23 00
        E 0 b2 0b 7f
        E 0 92 22 7f
        E 192 82 22 00
        E 0 b2 0b 7f
        E 0 92 23 7f
        E 192 82 23 00
        E 0 b2 0b 7f
        E 0 92 22 7f
        E 192 82 22 00
        E 0 b2 0b 7f
        E 0 92 23 7f
        E 192 82 23 00
        E 0 b2 0b 7f
        E 0 92 34 7f
        E 192 82 34 00
        E 0 b2 0b 7f
        E 0 92 25 7f
        E 192 82 25 00
        E 0 b2 0b 7f
        E 0 92 24 7f
        E 192 82 24 00
        E 0 b2 0b 7f
        E 0 92 25 7f
        E 192 82 25 00
        E 0 b2 0b 7f
        E 0 92 24 7f
        E 192 82 24 00
        E 0 b2 0b 7f
        E 0 92 25 7f
        E 192 82 25 00
        E 0 b2 0b 7f
        E 0 92 24 7f
        E 192 82 24 00
        E 0 b2 0b 7f
        E 0 92 25 7f
        E 192 82 25 00
        E 0 b2 0b 7f
        E 0 92 32 7f
        E 192 82 32 00
        E 0 b2 0b 7f
        E 0 92 23 7f
        E 192 82 23 00
        E 0 b2 0b 7f
        E 0 92 22 7f
        E 192 82 22 00
        E 0 b2 0b 7f
        E 0 92 23 7f
        E 192 82 23 00
        E 0 b2 0b 7f
        E 0 92 22 7f
        E 192 82 22 00
        E 0 b2 0b 7f
        E 0 92 23 7f
        E 192 82 23 00
        E 0 b2 0b 7f
        E 0 92 22 7f
        E 192 82 22 00
        E 0 b2 0b 7f
        E 0 92 23 7f
        E 192 82 23 00
        E 0 b2 0b 7f
        E 0 92 31 7f
        E 192 82 31 00
        E 0 b2 0b 7f
        E 0 92 1f 7f
        E 192 82 1f 00
        E 0 b2 0b 7f
        E 0 92 1e 7f
        E 192 82 1e 00
        E 0 b2 0b 7f
        E 0 92 1f 7f
        E 192 82 1f 00
        E 0 b2 0b 7f
        E 0 92 1e 7f
        E 192 82 1e 00
        E 0 b2 0b 7f
        E 0 92 1f 7f
        E 192 82 1f 00
        E 0 b2 0b 7f
        E 0 92 1e 7f
        E 192 82 1e 00
        E 0 b2 0b 7f
        E 0 92 1f 7f
        E 192 82 1f 00
        E 0 b2 0b 7f
        E 0 92 32 7f
        E 192 82 32 00
        E 0 b2 0b 7f
        E 0 92 23 7f
        E 192 82 23 00
        E 0 b2 0b 7f
        E 0 92 22 7f
        E 192 82 22 00
        E 0 b2 0b 7f
        E 0 92 23 7f
        E 192 82 23 00
        E 0 b2 0b 7f
        E 0 92 22 7f
        E 192 82 22 00
        E 0 b2 0b 7f
        E 0 92 23 7f
        E 192 82 23 00
        E 0 b2 0b 7f
        E 0 92 22 7f
        E 192 82 22 00
        E 0 b2 0b 7f
        E 0 92 23 7f
        E 192 82 23 00
        E 0 b2 0b 7f
        E 0 92 22 7f
        E 192 82 22 00
        E 0 b2 0b 7f
        E 0 92 23 7f
        E 192 82 23 00
        E 0 b2 0b 7f
        E 0 92 22 7f
        E 192 82 22 00
        E 0 b2 0b 7f
        E 0 92 23 7f
        E 192 82 23 00
        E 0 b2 0b 7f
        E 0 92 22 7f
        E 192 82 22 00
        E 0 b2 0b 7f
        E 0 92 23 7f
        E 192 82 23 00
        E 0 b2 0b 7f
        E 0 92 22 7f
        E 192 82 22 00
        E 0 b2 0b 7f
        E 0 92 23 7f
        E 192 82 23 00
        E 0 b2 0b 7f
        E 0 92 22 7f
        E 192 82 22 00
        E 0 b2 0b 7f
        E 0 92 23 7f
        E 192 82 23 00
        E 0 b2 0b 7f
        E 0 92 22 7f
        E 192 82 22 00
        E 0 b2 0b 7f
        E 0 92 23 7f
        E 192 82 23 00
        E 0 b2 0b 7f
        E 0 92 22 7f
        E 192 82 22 00
        E 0 b2 0b 7f
        E 0 92 23 7f
        E 192 82 23 00
        E 0 b2 0b 7f
        E 0 92 22 7f
        E 192 82 22 00
        E 0 b2 0b 7f
        E 0 92 23 7f
        E 192 82 23 00
        E 0 b2 0b 7f
        E 0 92 22 7f
        E 192 82 22 00
        E 0 b2 0b 7f
        E 0 92 23 7f
        E 192 82 23 00
        E 0 b2 0b 7f
        E 0 92 22 7f
        E 192 82 22 00
        E 0 b2 0b 7f
        E 0 92 23 7f
        E 192 82 23 00
        E 0 b2 0b 7f
        E 0 92 22 7f
        E 192 82 22 00
        E 0 b2 0b 7f
        E 0 92 23 7f
        E 192 82 23 00
        E 0 b2 0b 7f
        E 0 92 22 7f
        E 192 82 22 00
        E 0 b2 0b 7f
        E 0 92 23 7f
        E 192 82 23 00
        E 0 b2 0b 7f
        E 0 92 22 7f
        E 192 82 22 00
        E 0 b2 0b 7f
        E 0 92 23 7f
        E 192 82 23 00
        E 0 b2 0b 7f
        E 0 92 22 7f
        E 192 82 22 00
        E 0 b2 0b 7f
        E 0 92 23 7f
        E 192 82 23 00
        E 0 b2 0b 7f
        E 0 92 22 7f
        E 192 82 22 00
        E 0 b2 0b 7f
        E 0 92 23 7f
        E 192 82 23 00
        E 0 b2 0b 7f
        E 0 92 22 7f
        E 192 82 22 00
        E 0 b2 0b 7f
        E 0 92 23 7f
        E 192 82 23 00
        E 0 b2 0b 7f
        E 0 92 22 7f
        E 192 82 22 00
        E 0 b2 0b 7f
        E 0 92 23 7f
        E 192 82 23 00
        E 0 b2 0b 7f
        E 0 92 22 7f
        E 192 82 22 00
        E 0 b2 0b 7f
        E 0 92 23 7f
        E 192 82 23 00
        E 0 b2 0b 7f
        E 0 92 22 7f
        E 192 82 22 00
        E 0 b2 0b 7f
        E 0 92 23 7f
        E 192 82 23 00
        E 0 b2 0b 7f
        E 0 92 22 7f
        E 192 82 22 00
        E 0 b2 0b 7f
        E 0 92 23 7f
        E 192 82 23 00
        E 0 b2 0b 7f
        E 0 92 22 7f
        E 192 82 22 00
        E 0 b2 0b 7f
        E 0 92 23 7f
        E 192 82 23 00
        E 0 b2 0b 7f
        E 0 92 22 7f
        E 192 82 22 00
        E 0 b2 0b 7f
        E 0 92 23 7f
        E 192 82 23 00
        E 0 b2 0b 7f
        E 0 92 22 7f
        E 192 82 22 00
        E 0 b2 0b 7f
        E 0 92 23 7f
        E 192 82 23 00
        E 0 b2 0b 7f
        E 0 92 22 7f
        E 192 82 22 00
        E 0 b2 0b 7f
        E 0 92 23 7f
        E 192 82 23 00
        E 0 b2 0b 7f
        E 0 92 22 7f
        E 192 82 22 00
        E 0 b2 0b 7f
        E 0 92 23 7f
        E 192 82 23 00
        E 0 b2 0b 7f
        E 0 92 22 7f
        E 192 82 22 00
        E 0 b2 0b 7f
        E 0 92 23 7f
        E 192 82 23 00
        E 0 b2 0b 7f
        E 0 92 22 7f
        E 192 82 22 00
        E 0 b2 0b 7f
        E 0 92 23 7f
        E 192 82 23 00
        E 0 b2 0b 7f
        E 0 92 22 7f
        E 192 82 22 00
        E 0 b2 0b 7f
        E 0 92 23 7f
        E 192 82 23 00
        E 0 b2 0b 7f
        E 0 92 22 7f
        E 192 82 22 00
        E 0 b2 0b 7f
        E 0 92 23 7f
        E 192 82 23 00
        E 0 b2 0b 7f
        E 0 92 22 7f
        E 192 82 22 00
        E 0 b2 0b 7f
        E 0 92 23 7f
        E 192 82 23 00
        E 0 b2 0b 7f
        E 0 92 22 7f
        E 192 82 22 00
        E 0 b2 0b 7f
        E 0 92 23 7f
        E 192 82 23 00
        E 0 b2 0b 7f
        E 0 92 22 7f
        E 192 82 22 00
        E 0 b2 0b 7f
        E 0 92 23 7f
        E 192 82 23 00
        E 0 b2 0b 7f
        E 0 92 32 7f
        E 192 82 32 00
        E 0 b2 0b 7f
        E 0 92 23 7f
        E 192 82 23 00
        E 0 b2 0b 7f
        E 0 92 22 7f
        E 192 82 22 00
        E 0 b2 0b 7f
        E 0 92 23 7f
        E 192 82 23 00
        E 0 b2 0b 7f
        E 0 92 22 7f
        E 192 82 22 00
        E 0 b2 0b 7f
        E 0 92 23 7f
        E 192 82 23 00
        E 0 b2 0b 7f
        E 0 92 22 7f
        E 192 82 22 00
        E 0 b2 0b 7f
        E 0 92 23 7f
        E 192 82 23 00
        E 0 b2 0b 7f
        E 0 92 31 7f
        E 192 82 31 00
        E 0 b2 0b 7f
        E 0 92 1f 7f
        E 192 82 1f 00
        E 0 b2 0b 7f
        E 0 92 1e 7f
        E 192 82 1e 00
        E 0 b2 0b 7f
        E 0 92 1f 7f
        E 192 82 1f 00
        E 0 b2 0b 7f
        E 0 92 1e 7f
        E 192 82 1e 00
        E 0 b2 0b 7f
        E 0 92 1f 7f
        E 192 82 1f 00
        E 0 b2 0b 7f
        E 0 92 1e 7f
        E 192 82 1e 00
        E 0 b2 0b 7f
        E 0 92 1f 7f
        E 192 82 1f 00
        E 0 b2 0b 7f
        E 0 92 32 7f
        E 192 82 32 00
        E 0 b2 0b 7f
        E 0 92 23 7f
        E 192 82 23 00
        E 0 b2 0b 7f
        E 0 92 22 7f
        E 192 82 22 00
        E 0 b2 0b 7f
        E 0 92 23 7f
        E 192 82 23 00
        E 0 b2 0b 7f
        E 0 92 22 7f
        E 192 82 22 00
        E 0 b2 0b 7f
        E 0 92 23 7f
        E 192 82 23 00
        E 0 b2 0b 7f
        E 0 92 22 7f
        E 192 82 22 00
        E 0 b2 0b 7f
        E 0 92 23 7f
        E 192 82 23 00
        E 0 b2 0b 7f
        E 0 92 34 7f
        E 192 82 34 00
        E 0 b2 0b 7f
        E 0 92 25 7f
        E 192 82 25 00
        E 0 b2 0b 7f
        E 0 92 24 7f
        E 192 82 24 00
        E 0 b2 0b 7f
        E 0 92 25 7f
        E 192 82 25 00
        E 0 b2 0b 7f
        E 0 92 24 7f
        E 192 82 24 00
        E 0 b2 0b 7f
        E 0 92 25 7f
        E 192 82 25 00
        E 0 b2 0b 7f
        E 0 92 24 7f
        E 192 82 24 00
        E 0 b2 0b 7f
        E 0 92 25 7f
        E 192 82 25 00
        E 0 b2 0b 7f
        E 0 92 32 7f
        E 192 82 32 00
        E 0 b2 0b 7f
        E 0 92 23 7f
        E 192 82 23 00
        E 0 b2 0b 7f
        E 0 92 22 7f
        E 192 82 22 00
        E 0 b2 0b 7f
        E 0 92 23 7f
        E 192 82 23 00
        E 0 b2 0b 7f
        E 0 92 22 7f
        E 192 82 22 00
        E 0 b2 0b 7f
        E 0 92 23 7f
        E 192 82 23 00
        E 0 b2 0b 7f
        E 0 92 22 7f
        E 192 82 22 00
        E 0 b2 0b 7f
        E 0 92 23 7f
        E 192 82 23 00
        E 0 b2 0b 7f
        E 0 92 31 7f
        E 192 82 31 00
        E 0 b2 0b 7f
        E 0 92 1f 7f
        E 192 82 1f 00
        E 0 b2 0b 7f
        E 0 92 1e 7f
        E 192 82 1e 00
        E 0 b2 0b 7f
        E 0 92 1f 7f
        E 192 82 1f 00
        E 0 b2 0b 7f
        E 0 92 1e 7f
        E 192 82 1e 00
        E 0 b2 0b 7f
        E 0 92 1f 7f
        E 192 82 1f 00
        E 0 b2 0b 7f
        E 0 92 1e 7f
        E 192 82 1e 00
        E 0 b2 0b 7f
        E 0 92 1f 7f
        E 192 82 1f 00
        E 0 b2 0b 7f
        E 0 92 32 7f
        E 192 82 32 00
        E 0 b2 0b 7f
        E 0 92 23 7f
        E 192 82 23 00
        E 0 b2 0b 7f
        E 0 92 22 7f
        E 192 82 22 00
        E 0 b2 0b 7f
        E 0 92 23 7f
        E 192 82 23 00
        E 0 b2 0b 7f
        E 0 92 22 7f
        E 192 82 22 00
        E 0 b2 0b 7f
        E 0 92 23 7f
        E 192 82 23 00
        E 0 b2 0b 7f
        E 0 92 22 7f
        E 192 82 22 00
        E 0 b2 0b 7f
        E 0 92 23 7f
        E 192 82 23 00
        E 0 b2 0b 7f
        E 0 92 22 7f
        E 192 82 22 00
        E 0 b2 0b 7f
        E 0 92 23 7f
        E 192 82 23 00
        E 0 b2 0b 7f
        E 0 92 22 7f
        E 192 82 22 00
        E 0 b2 0b 7f
        E 0 92 23 7f
        E 192 82 23 00
        E 0 b2 0b 7f
        E 0 92 22 7f
        E 192 82 22 00
        E 0 b2 0b 7f
        E 0 92 23 7f
        E 192 82 23 00
        E 0 b2 0b 7f
        E 0 92 22 7f
        E 192 82 22 00
        E 0 b2 0b 7f
        E 0 92 23 7f
        E 192 82 23 00
        E 0 b2 0b 7f
        E 0 92 22 7f
        E 192 82 22 00
        E 0 b2 0b 7f
        E 0 92 23 7f
        E 192 82 23 00
        E 0 b2 0b 7f
        E 0 92 22 7f
        E 192 82 22 00
        E 0 b2 0b 7f
        E 0 92 23 7f
        E 192 82 23 00
        E 0 b2 0b 7f
        E 0 92 22 7f
        E 192 82 22 00
        E 0 b2 0b 7f
        E 0 92 23 7f
        E 192 82 23 00
        E 0 b2 0b 7f
        E 0 92 22 7f
        E 192 82 22 00
        E 0 b2 0b 7f
        E 0 92 23 7f
        E 192 82 23 00
        E 0 b2 0b 7f
        E 0 92 22 7f
        E 192 82 22 00
        E 0 b2 0b 7f
        E 0 92 23 7f
        E 192 82 23 00
        E 0 b2 0b 7f
        E 0 92 22 7f
        E 192 82 22 00
        E 0 b2 0b 7f
        E 0 92 23 7f
        E 192 82 23 00
        E 0 b2 0b 7f
        E 0 92 22 7f
        E 192 82 22 00
        E 0 b2 0b 7f
        E 0 92 23 7f
        E 192 82 23 00
        E 0 b2 0b 7f
        E 0 92 22 7f
        E 192 82 22 00
        E 0 b2 0b 7f
        E 0 92 23 7f
        E 192 82 23 00
        E 0 b2 0b 7f
        E 0 92 22 7f
        E 192 82 22 00
        E 0 b2 0b 7f
        E 0 92 23 7f
        E 192 82 23 00
        E 0 b2 0b 7f
        E 0 92 22 7f
        E 192 82 22 00
        E 0 b2 0b 7f
        E 0 92 23 7f
        E 192 82 23 00
        E 0 b2 0b 7f
        E 0 92 22 7f
        E 192 82 22 00
        E 0 b2 0b 7f
        E 0 92 23 7f
        E 192 82 23 00
        E 0 b2 0b 7f
        E 0 92 22 7f
        E 192 82 22 00
        E 0 b2 0b 7f
        E 0 92 23 7f
        E 192 82 23 00
        E 0 b2 0b 7f
        E 0 92 22 7f
        E 192 82 22 00
        E 0 b2 0b 7f
        E 0 92 23 7f
        E 192 82 23 00
        E 0 b2 0b 7f
        E 0 92 22 7f
        E 192 82 22 00
        E 0 b2 0b 7f
        E 0 92 23 7f
        E 192 82 23 00
        E 0 b2 0b 7f
        E 0 92 22 7f
        E 192 82 22 00
        E 0 b2 0b 7f
        E 0 92 23 7f
        E 192 82 23 00
        E 0 b2 0b 7f
        E 0 92 22 7f
        E 192 82 22 00
        E 0 b2 0b 7f
        E 0 92 23 7f
        E 192 82 23 00
        E 0 b2 0b 7f
        E 0 92 22 7f
        E 192 82 22 00
        E 0 b2 0b 7f
        E 0 92 23 7f
        E 192 82 23 00
        E 0 b2 0b 7f
        E 0 92 22 7f
        E 192 82 22 00
        E 0 b2 0b 7f
        E 0 92 23 7f
        E 192 82 23 00
        E 0 b2 0b 7f
        E 0 92 22 7f
        E 192 82 22 00
        E 0 b2 0b 7f
        E 0 92 23 7f
        E 192 82 23 00
        E 0 b2 0b 7f
        E 0 92 22 7f
        E 192 82 22 00
        E 0 b2 0b 7f
        E 0 92 23 7f
        E 192 82 23 00
        E 0 b2 0b 7f
        E 0 92 22 7f
        E 192 82 22 00
        E 0 b2 0b 7f
        E 0 92 23 7f
        E 192 82 23 00
        E 0 b2 0b 7f
        E 0 92 22 7f
        E 192 82 22 00
        E 0 b2 0b 7f
        E 0 92 23 7f
        E 192 82 23 00
        E 0 b2 0b 7f
        E 0 92 22 7f
        E 192 82 22 00
        E 0 b2 0b 7f
        E 0 92 23 7f
        E 192 82 23 00
        E 0 b2 0b 7f
        E 0 92 22 7f
        E 192 82 22 00
        E 0 b2 0b 7f
        E 0 92 23 7f
        E 192 82 23 00
        E 0 b2 0b 7f
        E 0 92 22 7f
        E 192 82 22 00
        E 0 b2 0b 7f
        E 0 92 23 7f
        E 192 82 23 00
        E 0 b2 0b 7f
        E 0 92 22 7f
        E 192 82 22 00
        E 0 b2 0b 7f
        E 0 92 23 7f
        E 192 82 23 00
        E 0 b2 0b 7f
        E 0 92 22 7f
        E 192 82 22 00
        E 0 b2 0b 7f
        E 0 92 23 7f
        E 192 82 23 00
        E 0 b2 0b 7f
        E 0 92 22 7f
        E 192 82 22 00
        E 0 b2 0b 7f
        E 0 92 23 7f
        E 192 82 23 00
        E 0 b2 0b 7f
        E 0 92 32 7f
        E 192 82 32 00
        E 0 b2 0b 7f
        E 0 92 23 7f
        E 192 82 23 00
        E 0 b2 0b 7f
        E 0 92 22 7f
        E 192 82 22 00
        E 0 b2 0b 7f
        E 0 92 23 7f
        E 192 82 23 00
        E 0 b2 0b 7f
        E 0 92 22 7f
        E 192 82 22 00
        E 0 b2 0b 7f
        E 0 92 23 7f
        E 192 82 23 00
        E 0 b2 0b 7f
        E 0 92 22 7f
        E 192 82 22 00
        E 0 b2 0b 7f
        E 0 92 23 7f
        E 192 82 23 00
        E 0 b2 0b 7f
        E 0 92 31 7f
        E 192 82 31 00
        E 0 b2 0b 7f
        E 0 92 1f 7f
        E 192 82 1f 00
        E 0 b2 0b 7f
        E 0 92 1e 7f
        E 192 82 1e 00
        E 0 b2 0b 7f
        E 0 92 1f 7f
        E 192 82 1f 00
        E 0 b2 0b 7f
        E 0 92 1e 7f
        E 192 82 1e 00
        E 0 b2 0b 7f
        E 0 92 1f 7f
        E 192 82 1f 00
        E 0 b2 0b 7f
        E 0 92 1e 7f
        E 192 82 1e 00
        E 0 b2 0b 7f
        E 0 92 1f 7f
        E 192 82 1f 00
        E 0 b2 0b 7f
        E 0 92 32 7f
        E 192 82 32 00
        E 0 b2 0b 7f
        E 0 92 23 7f
        E 192 82 23 00
        E 0 b2 0b 7f
        E 0 92 22 7f
        E 192 82 22 00
        E 0 b2 0b 7f
        E 0 92 23 7f
        E 192 82 23 00
        E 0 b2 0b 7f
        E 0 92 22 7f
        E 192 82 22 00
        E 0 b2 0b 7f
        E 0 92 23 7f
        E 192 82 23 00
        E 0 b2 0b 7f
        E 0 92 22 7f
        E 192 82 22 00
        E 0 b2 0b 7f
        E 0 92 23 7f
        E 192 82 23 00
        E 0 b2 0b 7f
        E 0 92 34 7f
        E 192 82 34 00
        E 0 b2 0b 7f
        E 0 92 25 7f
        E 192 82 25 00
        E 0 ff 2f 00
      >
    >
  >
  <TRACK {38EC9A4E-315B-4E8E-A997-DA75CF2096D1}
    NAME "NES - Noise / Drums"
    PEAKCOL 11184810
    BEAT -1
    AUTOMODE 0
    PANLAWFLAGS 3
    VOLPAN 1 0 -1 -1 1
    MUTESOLO 0 0 0
    IPHASE 0
    PLAYOFFS 0 1
    ISBUS 0 0
    BUSCOMP 0 0 0 0 0
    SHOWINMIX 1 0.6667 0.5 1 0.5 0 0 0
    FIXEDLANES 9 0 0 0 0
    SEL 0
    REC 0 5088 1 0 0 0 0 0
    VU 2
    TRACKHEIGHT 0 0 0 0 0 0 0
    INQ 0 0 0 0.5 100 0 0 100
    NCHAN 2
    FX 1
    TRACKID {38EC9A4E-315B-4E8E-A997-DA75CF2096D1}
    PERF 0
    MIDIOUT -1
    MAINSEND 1 0
    <FXCHAIN
      WNDRECT 24 52 700 560
      SHOW 0
      LASTSEL 0
      DOCKED 0
      BYPASS 0 0 0
      <JS "ReapNES Studio/ReapNES_Console.jsfx" ""
        2 15 1 10 80 10 100 2 1 15 1 5 60 10 80 1 1 0 50 0 0 15 1 0 100 0 0 0.500000 0.500000 0.400000 0.300000 0.800000 3 1 0 0 0 0 - - - - - - - - - - - - - - - - - - - - - - - - - -
      >
      FLOATPOS 0 0 0 0
      FXID {57C42635-75D2-4C58-803D-9FAFB2CEDA68}
      WAK 0 0
    >
  >
>