<REAPER_PROJECT 0.1 "7.27/win64" 1707000000
  <NOTES 0 2
    |ReapNES Studio Project
    |MIDI Import - Wizards_&_Warriors_01_Wizards_&_Warriors_Title_audiblestate_v4
  >
  RIPPLE 0
  GROUPOVERRIDE 0 0 0
  AUTOXFADE 129
  ENVATTACH 3
  POOLEDENVATTACH 0
  MIXERUIFLAGS 11 48
  ENVFADESZ10 40
  PEAKGAIN 1
  FEEDBACK 0
  PANLAW 1
  PROJOFFS 0 0 0
  MAXPROJLEN 0 0
  GRID 3199 8 1 8 1 0 0 0
  TIMEMODE 1 5 -1 30 0 0 -1
  VIDEO_CONFIG 0 0 65792
  PANMODE 3
  PANLAWFLAGS 3
  CURSOR 0
  ZOOM 100 0 0
  VZOOMEX 6 0
  USE_REC_CFG 0
  RECMODE 1
  SMPTESYNC 0 30 100 40 1000 300 0 0 1 0 0
  LOOP 0
  LOOPGRAN 0 4
  RECORD_PATH "Media" ""
  <RECORD_CFG
    ZXZhdxgAAQ==
  >
  <APPLYFX_CFG
  >
  RENDER_FILE ""
  RENDER_PATTERN ""
  RENDER_FMT 0 2 0
  RENDER_1X 0
  RENDER_RANGE 1 0 0 18 1000
  RENDER_RESAMPLE 3 0 1
  RENDER_ADDTOPROJ 0
  RENDER_STEMS 0
  RENDER_DITHER 0
  TIMELOCKMODE 1
  TEMPOENVLOCKMODE 1
  ITEMMIX 1
  DEFPITCHMODE 589824 0
  TAKELANE 1
  SAMPLERATE 44100 0 0
  <RENDER_CFG
    ZXZhdxgAAQ==
  >
  LOCK 1
  <METRONOME 6 2
    VOL 0.25 0.125
    BEATLEN 4
    FREQ 1760 880 1
    SAMPLES "" ""
    SPLIGNORE 0 0
    SPLDEF 2 660 "" 0
    SPLDEF 3 440 "" 0
    PATTERN 0 169
    PATTERNSTR ABBB
    MULT 1
  >
  GLOBAL_AUTO -1
  TEMPO 128.59999614200012 4 4
  PLAYRATE 1 0 0.25 4
  SELECTION 0 0
  SELECTION2 0 0
  MASTERAUTOMODE 0
  MASTERTRACKHEIGHT 0 0
  MASTERPEAKCOL 16576
  MASTERMUTESOLO 0
  MASTERTRACKVIEW 0 0.6667 0.5 0.5 0 0 0 0 0 0 0 0 0 0
  MASTERHWOUT 0 0 1 0 0 0 0 -1
  MASTER_NCH 2 2
  MASTER_VOLUME 1 0 -1 -1 1
  MASTER_PANMODE 3
  MASTER_PANLAWFLAGS 3
  MASTER_FX 1
  MASTER_SEL 0
  <MASTERPLAYSPEEDENV
    EGUID {56865DCA-2850-43EF-BAA9-708FCA51B331}
    ACT 0 -1
    VIS 0 1 1
    LANEHEIGHT 0 0
    ARM 0
    DEFSHAPE 0 -1 -1
  >
  <TEMPOENVEX
    EGUID {0A3D7B47-AFCB-45E7-81A9-C49B6565FF50}
    ACT 1 -1
    VIS 1 0 1
    LANEHEIGHT 0 0
    ARM 0
    DEFSHAPE 1 -1 -1
  >
  <PROJBAY
  >
  <TRACK {6C780290-FA9F-45B5-8A74-76C2766E160E}
    NAME "NES - Pulse 1 [ch0]"
    PEAKCOL 16576606
    BEAT -1
    AUTOMODE 0
    PANLAWFLAGS 3
    VOLPAN 1 0 -1 -1 1
    MUTESOLO 0 0 0
    IPHASE 0
    PLAYOFFS 0 1
    ISBUS 0 0
    BUSCOMP 0 0 0 0 0
    SHOWINMIX 1 0.6667 0.5 1 0.5 0 0 0
    FIXEDLANES 9 0 0 0 0
    SEL 1
    REC 1 5088 1 0 0 0 0 0
    VU 2
    TRACKHEIGHT 0 0 0 0 0 0 0
    INQ 0 0 0 0.5 100 0 0 100
    NCHAN 2
    FX 1
    TRACKID {6C780290-FA9F-45B5-8A74-76C2766E160E}
    PERF 0
    MIDIOUT -1
    MAINSEND 1 0
    <FXCHAIN
      WNDRECT 24 52 700 560
      SHOW 0
      LASTSEL 0
      DOCKED 0
      BYPASS 0 0 0
      <JS "ReapNES Studio/ReapNES_Console.jsfx" ""
        2 15 1 10 80 10 100 2 1 15 1 5 60 10 80 1 1 0 50 0 0 15 1 0 100 0 0 0.500000 0.500000 0.400000 0.300000 0.800000 0 1 0 0 0 0 - - - - - - - - - - - - - - - - - - - - - - - - - -
      >
      FLOATPOS 0 0 0 0
      FXID {034BEE95-3219-4D7A-B3AC-F1F3996DE7D7}
      WAK 0 0
    >
    <ITEM
      POSITION 0
      LENGTH 34.6345267
      LOOP 0
      ALLTAKES 0
      FADEIN 0 0 0 0 0 0 0
      FADEOUT 0 0 0 0 0 0 0
      MUTE 0 0
      SEL 0
      IGUID {B7A57D68-1A03-41B8-965E-B7394ABD6F21}
      <SOURCE MIDI
        HASDATA 1 480 QN
        CCINTERP 32
        E 0 c0 50
        E 8192 b0 0c 20
        E 0 b0 0b 28
        E 0 90 32 28
        E 640 80 32 00
        E 0 b0 0b 28
        E 0 90 32 28
        E 128 80 32 00
        E 0 90 34 28
        E 128 80 34 00
        E 0 90 35 28
        E 128 80 35 00
        E 0 90 37 28
        E 640 80 37 00
        E 0 b0 0b 28
        E 0 90 37 28
        E 128 80 37 00
        E 0 90 39 28
        E 128 80 39 00
        E 0 90 3a 28
        E 128 80 3a 00
        E 0 90 3c 28
        E 640 80 3c 00
        E 0 90 3a 28
        E 128 80 3a 00
        E 0 90 39 28
        E 128 80 39 00
        E 0 90 37 28
        E 128 80 37 00
        E 0 90 35 28
        E 256 80 35 00
        E 0 90 37 28
        E 256 80 37 00
        E 0 90 39 28
        E 256 80 39 00
        E 0 90 35 28
        E 256 80 35 00
        E 0 90 3a 28
        E 640 80 3a 00
        E 0 90 3c 28
        E 128 80 3c 00
        E 0 90 3a 28
        E 128 80 3a 00
        E 0 90 39 28
        E 128 80 39 00
        E 0 90 37 28
        E 640 80 37 00
        E 0 90 39 28
        E 128 80 39 00
        E 0 90 3a 28
        E 128 80 3a 00
        E 0 90 37 28
        E 128 80 37 00
        E 0 90 39 28
        E 512 80 39 00
        E 0 b0 0b 28
        E 0 90 39 28
        E 512 80 39 00
        E 0 b0 0b 28
        E 0 90 39 28
        E 256 80 39 00
        E 0 90 37 28
        E 256 80 37 00
        E 0 90 35 28
        E 256 80 35 00
        E 0 90 34 28
        E 256 80 34 00
        E 0 90 32 28
        E 640 80 32 00
        E 0 b0 0b 28
        E 0 90 32 28
        E 128 80 32 00
        E 0 90 34 28
        E 128 80 34 00
        E 0 90 35 28
        E 128 80 35 00
        E 0 90 37 28
        E 640 80 37 00
        E 0 b0 0b 28
        E 0 90 37 28
        E 128 80 37 00
        E 0 90 39 28
        E 128 80 39 00
        E 0 90 3a 28
        E 128 80 3a 00
        E 0 90 3c 28
        E 640 80 3c 00
        E 0 90 3a 28
        E 128 80 3a 00
        E 0 90 39 28
        E 128 80 39 00
        E 0 90 37 28
        E 128 80 37 00
        E 0 90 35 28
        E 256 80 35 00
        E 0 90 37 28
        E 256 80 37 00
        E 0 90 39 28
        E 256 80 39 00
        E 0 90 35 28
        E 256 80 35 00
        E 0 90 3a 28
        E 640 80 3a 00
        E 0 90 3c 28
        E 128 80 3c 00
        E 0 90 3a 28
        E 128 80 3a 00
        E 0 90 39 28
        E 128 80 39 00
        E 0 90 37 28
        E 640 80 37 00
        E 0 90 39 28
        E 128 80 39 00
        E 0 90 3a 28
        E 128 80 3a 00
        E 0 90 37 28
        E 128 80 37 00
        E 0 90 39 28
        E 512 80 39 00
        E 0 b0 0b 28
        E 0 90 39 28
        E 512 80 39 00
        E 0 b0 0b 28
        E 0 90 39 28
        E 256 80 39 00
        E 0 90 37 28
        E 256 80 37 00
        E 0 90 35 28
        E 256 80 35 00
        E 0 90 34 28
        E 256 80 34 00
        E 0 90 32 28
        E 640 80 32 00
        E 0 b0 0b 28
        E 0 90 32 28
        E 128 80 32 00
        E 0 90 34 28
        E 128 80 34 00
        E 0 90 35 28
        E 128 80 35 00
        E 0 90 37 28
        E 640 80 37 00
        E 0 b0 0b 28
        E 0 90 37 28
        E 128 80 37 00
        E 0 90 39 28
        E 128 80 39 00
        E 0 90 3a 28
        E 128 80 3a 00
        E 0 90 3c 28
        E 640 80 3c 00
        E 0 90 3a 28
        E 128 80 3a 00
        E 0 90 39 28
        E 128 80 39 00
        E 0 90 37 28
        E 128 80 37 00
        E 0 90 35 28
        E 256 80 35 00
        E 0 90 37 28
        E 256 80 37 00
        E 0 90 39 28
        E 256 80 39 00
        E 0 90 35 28
        E 256 80 35 00
        E 0 90 3a 28
        E 640 80 3a 00
        E 0 90 3c 28
        E 128 80 3c 00
        E 0 90 3a 28
        E 128 80 3a 00
        E 0 90 39 28
        E 128 80 39 00
        E 0 90 37 28
        E 640 80 37 00
        E 0 90 39 28
        E 128 80 39 00
        E 0 90 3a 28
        E 128 80 3a 00
        E 0 90 37 28
        E 128 80 37 00
        E 0 90 39 28
        E 512 80 39 00
        E 0 b0 0b 28
        E 0 90 39 28
        E 512 80 39 00
        E 0 b0 0b 28
        E 0 90 39 28
        E 256 80 39 00
        E 0 90 37 28
        E 256 80 37 00
        E 0 90 35 28
        E 256 80 35 00
        E 0 90 34 28
        E 256 80 34 00
        E 0 b0 0b 28
        E 0 90 34 28
        E 1024 80 34 00
        E 0 b0 0b 28
        E 0 90 34 28
        E 512 80 34 00
        E 0 b0 0b 28
        E 0 90 34 28
        E 384 80 34 00
        E 0 ff 2f 00
      >
    >
  >
  <TRACK {0C6DFEF6-D0A8-4EFE-B950-086B275992CD}
    NAME "NES - Pulse 2 [ch1]"
    PEAKCOL 10092441
    BEAT -1
    AUTOMODE 0
    PANLAWFLAGS 3
    VOLPAN 1 0 -1 -1 1
    MUTESOLO 0 0 0
    IPHASE 0
    PLAYOFFS 0 1
    ISBUS 0 0
    BUSCOMP 0 0 0 0 0
    SHOWINMIX 1 0.6667 0.5 1 0.5 0 0 0
    FIXEDLANES 9 0 0 0 0
    SEL 0
    REC 0 5088 1 0 0 0 0 0
    VU 2
    TRACKHEIGHT 0 0 0 0 0 0 0
    INQ 0 0 0 0.5 100 0 0 100
    NCHAN 2
    FX 1
    TRACKID {0C6DFEF6-D0A8-4EFE-B950-086B275992CD}
    PERF 0
    MIDIOUT -1
    MAINSEND 1 0
    <FXCHAIN
      WNDRECT 24 52 700 560
      SHOW 0
      LASTSEL 0
      DOCKED 0
      BYPASS 0 0 0
      <JS "ReapNES Studio/ReapNES_Console.jsfx" ""
        2 15 1 10 80 10 100 2 1 15 1 5 60 10 80 1 1 0 50 0 0 15 1 0 100 0 0 0.500000 0.500000 0.400000 0.300000 0.800000 1 1 0 0 0 0 - - - - - - - - - - - - - - - - - - - - - - - - - -
      >
      FLOATPOS 0 0 0 0
      FXID {31AF33EF-D867-4CB7-9FB9-D3778A1DBA0D}
      WAK 0 0
    >
    <ITEM
      POSITION 0
      LENGTH 34.6345267
      LOOP 0
      ALLTAKES 0
      FADEIN 0 0 0 0 0 0 0
      FADEOUT 0 0 0 0 0 0 0
      MUTE 0 0
      SEL 0
      IGUID {33E3BBB0-A39B-42EC-8EFA-1BBFB522C151}
      <SOURCE MIDI
        HASDATA 1 480 QN
        CCINTERP 32
        E 0 c1 51
        E 0 b1 0c 20
        E 0 b1 0b 18
        E 0 91 4a 18
        E 128 81 4a 00
        E 0 91 45 18
        E 128 81 45 00
        E 0 91 4c 18
        E 128 81 4c 00
        E 0 91 45 18
        E 128 81 45 00
        E 0 91 4d 18
        E 128 81 4d 00
        E 0 91 45 18
        E 128 81 45 00
        E 0 91 4f 18
        E 128 81 4f 00
        E 0 91 45 18
        E 128 81 45 00
        E 0 91 46 18
        E 128 81 46 00
        E 0 91 43 18
        E 128 81 43 00
        E 0 91 4a 18
        E 128 81 4a 00
        E 0 91 43 18
        E 128 81 43 00
        E 0 91 4f 18
        E 128 81 4f 00
        E 0 91 43 18
        E 128 81 43 00
        E 0 91 4d 18
        E 128 81 4d 00
        E 0 91 43 18
        E 128 81 43 00
        E 0 91 4c 18
        E 128 81 4c 00
        E 0 91 48 18
        E 128 81 48 00
        E 0 91 4d 18
        E 128 81 4d 00
        E 0 91 48 18
        E 128 81 48 00
        E 0 91 4f 18
        E 128 81 4f 00
        E 0 91 43 18
        E 128 81 43 00
        E 0 91 48 18
        E 128 81 48 00
        E 0 91 43 18
        E 128 81 43 00
        E 0 91 46 18
        E 128 81 46 00
        E 0 91 41 18
        E 128 81 41 00
        E 0 91 45 18
        E 128 81 45 00
        E 0 91 41 18
        E 128 81 41 00
        E 0 91 4d 18
        E 128 81 4d 00
        E 0 91 41 18
        E 128 81 41 00
        E 0 91 4c 18
        E 128 81 4c 00
        E 0 91 41 18
        E 128 81 41 00
        E 0 91 4a 18
        E 128 81 4a 00
        E 0 91 46 18
        E 128 81 46 00
        E 0 91 4c 18
        E 128 81 4c 00
        E 0 91 46 18
        E 128 81 46 00
        E 0 91 4d 18
        E 128 81 4d 00
        E 0 91 46 18
        E 128 81 46 00
        E 0 91 4a 18
        E 128 81 4a 00
        E 0 91 46 18
        E 128 81 46 00
        E 0 91 4a 18
        E 128 81 4a 00
        E 0 91 43 18
        E 128 81 43 00
        E 0 91 4c 18
        E 128 81 4c 00
        E 0 91 43 18
        E 128 81 43 00
        E 0 91 4d 18
        E 128 81 4d 00
        E 0 91 43 18
        E 128 81 43 00
        E 0 91 4a 18
        E 128 81 4a 00
        E 0 91 43 18
        E 128 81 43 00
        E 0 91 4c 18
        E 128 81 4c 00
        E 0 91 45 18
        E 128 81 45 00
        E 0 91 49 18
        E 128 81 49 00
        E 0 91 45 18
        E 128 81 45 00
        E 0 91 4c 18
        E 128 81 4c 00
        E 0 91 45 18
        E 128 81 45 00
        E 0 91 49 18
        E 128 81 49 00
        E 0 91 45 18
        E 128 81 45 00
        E 0 91 51 18
        E 128 81 51 00
        E 0 91 45 18
        E 128 81 45 00
        E 0 91 49 18
        E 128 81 49 00
        E 0 91 45 18
        E 128 81 45 00
        E 0 91 51 18
        E 128 81 51 00
        E 0 91 49 18
        E 128 81 49 00
        E 0 91 51 18
        E 128 81 51 00
        E 0 91 45 18
        E 128 81 45 00
        E 0 91 4a 18
        E 128 81 4a 00
        E 0 91 45 18
        E 128 81 45 00
        E 0 91 4c 18
        E 128 81 4c 00
        E 0 91 45 18
        E 128 81 45 00
        E 0 91 4d 18
        E 128 81 4d 00
        E 0 91 45 18
        E 128 81 45 00
        E 0 91 4f 18
        E 128 81 4f 00
        E 0 91 45 18
        E 128 81 45 00
        E 0 91 46 18
        E 128 81 46 00
        E 0 91 43 18
        E 128 81 43 00
        E 0 91 4a 18
        E 128 81 4a 00
        E 0 91 43 18
        E 128 81 43 00
        E 0 91 4f 18
        E 128 81 4f 00
        E 0 91 43 18
        E 128 81 43 00
        E 0 91 4d 18
        E 128 81 4d 00
        E 0 91 43 18
        E 128 81 43 00
        E 0 91 4c 18
        E 128 81 4c 00
        E 0 91 48 18
        E 128 81 48 00
        E 0 91 4d 18
        E 128 81 4d 00
        E 0 91 48 18
        E 128 81 48 00
        E 0 91 4f 18
        E 128 81 4f 00
        E 0 91 43 18
        E 128 81 43 00
        E 0 91 48 18
        E 128 81 48 00
        E 0 91 43 18
        E 128 81 43 00
        E 0 91 46 18
        E 128 81 46 00
        E 0 91 41 18
        E 128 81 41 00
        E 0 91 45 18
        E 128 81 45 00
        E 0 91 41 18
        E 128 81 41 00
        E 0 91 4d 18
        E 128 81 4d 00
        E 0 91 41 18
        E 128 81 41 00
        E 0 91 4c 18
        E 128 81 4c 00
        E 0 91 41 18
        E 128 81 41 00
        E 0 91 4a 18
        E 128 81 4a 00
        E 0 91 46 18
        E 128 81 46 00
        E 0 91 4c 18
        E 128 81 4c 00
        E 0 91 46 18
        E 128 81 46 00
        E 0 91 4d 18
        E 128 81 4d 00
        E 0 91 46 18
        E 128 81 46 00
        E 0 91 4a 18
        E 128 81 4a 00
        E 0 91 46 18
        E 128 81 46 00
        E 0 91 4a 18
        E 128 81 4a 00
        E 0 91 43 18
        E 128 81 43 00
        E 0 91 4c 18
        E 128 81 4c 00
        E 0 91 43 18
        E 128 81 43 00
        E 0 91 4d 18
        E 128 81 4d 00
        E 0 91 43 18
        E 128 81 43 00
        E 0 91 4a 18
        E 128 81 4a 00
        E 0 91 43 18
        E 128 81 43 00
        E 0 91 4c 18
        E 128 81 4c 00
        E 0 91 45 18
        E 128 81 45 00
        E 0 91 49 18
        E 128 81 49 00
        E 0 91 45 18
        E 128 81 45 00
        E 0 91 4c 18
        E 128 81 4c 00
        E 0 91 45 18
        E 128 81 45 00
        E 0 91 49 18
        E 128 81 49 00
        E 0 91 45 18
        E 128 81 45 00
        E 0 91 51 18
        E 128 81 51 00
        E 0 91 45 18
        E 128 81 45 00
        E 0 91 49 18
        E 128 81 49 00
        E 0 91 45 18
        E 128 81 45 00
        E 0 91 51 18
        E 128 81 51 00
        E 0 91 49 18
        E 128 81 49 00
        E 0 91 51 18
        E 128 81 51 00
        E 0 91 45 18
        E 128 81 45 00
        E 0 91 4d 18
        E 128 81 4d 00
        E 0 91 45 18
        E 128 81 45 00
        E 0 91 4a 18
        E 128 81 4a 00
        E 0 91 45 18
        E 128 81 45 00
        E 0 91 4d 18
        E 128 81 4d 00
        E 0 91 4f 18
        E 128 81 4f 00
        E 0 91 51 18
        E 128 81 51 00
        E 0 91 45 18
        E 128 81 45 00
        E 0 91 51 18
        E 128 81 51 00
        E 0 91 46 18
        E 128 81 46 00
        E 0 91 4a 18
        E 128 81 4a 00
        E 0 91 52 18
        E 128 81 52 00
        E 0 91 51 18
        E 128 81 51 00
        E 0 91 46 18
        E 128 81 46 00
        E 0 91 4a 18
        E 128 81 4a 00
        E 0 91 52 18
        E 128 81 52 00
        E 0 91 4f 18
        E 128 81 4f 00
        E 0 91 43 18
        E 128 81 43 00
        E 0 91 48 18
        E 128 81 48 00
        E 0 91 43 18
        E 128 81 43 00
        E 0 91 4c 18
        E 128 81 4c 00
        E 0 91 4d 18
        E 128 81 4d 00
        E 0 91 4f 18
        E 128 81 4f 00
        E 0 91 48 18
        E 128 81 48 00
        E 0 91 4f 18
        E 128 81 4f 00
        E 0 91 45 18
        E 128 81 45 00
        E 0 91 48 18
        E 128 81 48 00
        E 0 91 51 18
        E 128 81 51 00
        E 0 91 4d 18
        E 128 81 4d 00
        E 0 91 45 18
        E 128 81 45 00
        E 0 91 4c 18
        E 128 81 4c 00
        E 0 91 48 18
        E 128 81 48 00
        E 0 91 4d 18
        E 128 81 4d 00
        E 0 91 46 18
        E 128 81 46 00
        E 0 91 4a 18
        E 128 81 4a 00
        E 0 91 46 18
        E 128 81 46 00
        E 0 91 4a 18
        E 128 81 4a 00
        E 0 91 4c 18
        E 128 81 4c 00
        E 0 91 4d 18
        E 128 81 4d 00
        E 0 91 46 18
        E 128 81 46 00
        E 0 91 4d 18
        E 128 81 4d 00
        E 0 91 43 18
        E 128 81 43 00
        E 0 91 46 18
        E 128 81 46 00
        E 0 91 43 18
        E 128 81 43 00
        E 0 91 4a 18
        E 128 81 4a 00
        E 0 91 4c 18
        E 128 81 4c 00
        E 0 91 4d 18
        E 128 81 4d 00
        E 0 91 43 18
        E 128 81 43 00
        E 0 91 4d 18
        E 128 81 4d 00
        E 0 91 45 18
        E 128 81 45 00
        E 0 91 49 18
        E 128 81 49 00
        E 0 91 45 18
        E 128 81 45 00
        E 0 91 4c 18
        E 128 81 4c 00
        E 0 91 45 18
        E 128 81 45 00
        E 0 91 49 18
        E 128 81 49 00
        E 0 91 45 18
        E 128 81 45 00
        E 0 91 51 18
        E 128 81 51 00
        E 0 91 45 18
        E 128 81 45 00
        E 0 91 49 18
        E 128 81 49 00
        E 0 91 45 18
        E 128 81 45 00
        E 0 91 51 18
        E 128 81 51 00
        E 0 91 49 18
        E 128 81 49 00
        E 0 91 51 18
        E 128 81 51 00
        E 0 91 45 18
        E 128 81 45 00
        E 0 91 4d 18
        E 128 81 4d 00
        E 0 91 45 18
        E 128 81 45 00
        E 0 91 4a 18
        E 128 81 4a 00
        E 0 91 45 18
        E 128 81 45 00
        E 0 91 4d 18
        E 128 81 4d 00
        E 0 91 4f 18
        E 128 81 4f 00
        E 0 91 51 18
        E 128 81 51 00
        E 0 91 45 18
        E 128 81 45 00
        E 0 91 51 18
        E 128 81 51 00
        E 0 91 46 18
        E 128 81 46 00
        E 0 91 4a 18
        E 128 81 4a 00
        E 0 91 52 18
        E 128 81 52 00
        E 0 91 51 18
        E 128 81 51 00
        E 0 91 46 18
        E 128 81 46 00
        E 0 91 4a 18
        E 128 81 4a 00
        E 0 91 52 18
        E 128 81 52 00
        E 0 91 4f 18
        E 128 81 4f 00
        E 0 91 43 18
        E 128 81 43 00
        E 0 91 48 18
        E 128 81 48 00
        E 0 91 43 18
        E 128 81 43 00
        E 0 91 4c 18
        E 128 81 4c 00
        E 0 91 4d 18
        E 128 81 4d 00
        E 0 91 4f 18
        E 128 81 4f 00
        E 0 91 48 18
        E 128 81 48 00
        E 0 91 4f 18
        E 128 81 4f 00
        E 0 91 45 18
        E 128 81 45 00
        E 0 91 48 18
        E 128 81 48 00
        E 0 91 51 18
        E 128 81 51 00
        E 0 91 4d 18
        E 128 81 4d 00
        E 0 91 45 18
        E 128 81 45 00
        E 0 91 4c 18
        E 128 81 4c 00
        E 0 91 48 18
        E 128 81 48 00
        E 0 91 4d 18
        E 128 81 4d 00
        E 0 91 46 18
        E 128 81 46 00
        E 0 91 4a 18
        E 128 81 4a 00
        E 0 91 46 18
        E 128 81 46 00
        E 0 91 4a 18
        E 128 81 4a 00
        E 0 91 4c 18
        E 128 81 4c 00
        E 0 91 4d 18
        E 128 81 4d 00
        E 0 91 46 18
        E 128 81 46 00
        E 0 91 4d 18
        E 128 81 4d 00
        E 0 91 43 18
        E 128 81 43 00
        E 0 91 46 18
        E 128 81 46 00
        E 0 91 43 18
        E 128 81 43 00
        E 0 91 4a 18
        E 128 81 4a 00
        E 0 91 4c 18
        E 128 81 4c 00
        E 0 91 4d 18
        E 128 81 4d 00
        E 0 91 43 18
        E 128 81 43 00
        E 0 91 4d 18
        E 128 81 4d 00
        E 0 91 45 18
        E 128 81 45 00
        E 0 91 49 18
        E 128 81 49 00
        E 0 91 45 18
        E 128 81 45 00
        E 0 91 4c 18
        E 128 81 4c 00
        E 0 91 45 18
        E 128 81 45 00
        E 0 91 49 18
        E 128 81 49 00
        E 0 91 45 18
        E 128 81 45 00
        E 0 91 51 18
        E 128 81 51 00
        E 0 91 45 18
        E 128 81 45 00
        E 0 91 49 18
        E 128 81 49 00
        E 0 91 45 18
        E 128 81 45 00
        E 0 91 51 18
        E 128 81 51 00
        E 0 91 49 18
        E 128 81 49 00
        E 0 91 51 18
        E 128 81 51 00
        E 0 91 45 18
        E 128 b1 0c 40
        E 0 b1 0b 68
        E 0 81 45 00
        E 0 91 4a 68
        E 128 81 4a 00
        E 0 91 45 68
        E 128 81 45 00
        E 0 91 4c 68
        E 128 81 4c 00
        E 0 91 4d 68
        E 128 b1 0b 48
        E 0 81 4d 00
        E 0 91 4a 48
        E 128 81 4a 00
        E 0 91 45 48
        E 128 81 45 00
        E 0 91 4c 48
        E 128 81 4c 00
        E 0 91 4d 48
        E 128 b1 0b 30
        E 0 81 4d 00
        E 0 91 4a 30
        E 128 81 4a 00
        E 0 91 45 30
        E 128 81 45 00
        E 0 91 4c 30
        E 128 81 4c 00
        E 0 91 4d 30
        E 128 b1 0b 18
        E 0 81 4d 00
        E 0 91 4a 18
        E 128 81 4a 00
        E 0 b1 0b 18
        E 0 91 4a 18
        E 256 81 4a 00
        E 0 ff 2f 00
      >
    >
  >
  <TRACK {5ED40749-FC39-4A67-ADF6-07E02AE00B55}
    NAME "NES - Triangle [ch2]"
    PEAKCOL 16744192
    BEAT -1
    AUTOMODE 0
    PANLAWFLAGS 3
    VOLPAN 1 0 -1 -1 1
    MUTESOLO 0 0 0
    IPHASE 0
    PLAYOFFS 0 1
    ISBUS 0 0
    BUSCOMP 0 0 0 0 0
    SHOWINMIX 1 0.6667 0.5 1 0.5 0 0 0
    FIXEDLANES 9 0 0 0 0
    SEL 0
    REC 0 5088 1 0 0 0 0 0
    VU 2
    TRACKHEIGHT 0 0 0 0 0 0 0
    INQ 0 0 0 0.5 100 0 0 100
    NCHAN 2
    FX 1
    TRACKID {5ED40749-FC39-4A67-ADF6-07E02AE00B55}
    PERF 0
    MIDIOUT -1
    MAINSEND 1 0
    <FXCHAIN
      WNDRECT 24 52 700 560
      SHOW 0
      LASTSEL 0
      DOCKED 0
      BYPASS 0 0 0
      <JS "ReapNES Studio/ReapNES_Console.jsfx" ""
        2 15 1 10 80 10 100 2 1 15 1 5 60 10 80 1 1 0 50 0 0 15 1 0 100 0 0 0.500000 0.500000 0.400000 0.300000 0.800000 2 1 0 0 0 0 - - - - - - - - - - - - - - - - - - - - - - - - - -
      >
      FLOATPOS 0 0 0 0
      FXID {DBD7210C-9BE1-4230-A467-00EF92FCD994}
      WAK 0 0
    >
    <ITEM
      POSITION 0
      LENGTH 34.6345267
      LOOP 0
      ALLTAKES 0
      FADEIN 0 0 0 0 0 0 0
      FADEOUT 0 0 0 0 0 0 0
      MUTE 0 0
      SEL 0
      IGUID {310ACDCE-BED1-4E72-A654-746A63CDCD1F}
      <SOURCE MIDI
        HASDATA 1 480 QN
        CCINTERP 32
        E 0 c2 26
        E 8192 b2 0b 7f
        E 0 92 26 7f
        E 512 82 26 00
        E 0 b2 0b 7f
        E 0 92 32 7f
        E 512 82 32 00
        E 0 b2 0b 7f
        E 0 92 37 7f
        E 512 82 37 00
        E 0 b2 0b 7f
        E 0 92 2b 7f
        E 512 82 2b 00
        E 0 b2 0b 7f
        E 0 92 24 7f
        E 512 82 24 00
        E 0 b2 0b 7f
        E 0 92 30 7f
        E 512 82 30 00
        E 0 b2 0b 7f
        E 0 92 35 7f
        E 512 82 35 00
        E 0 b2 0b 7f
        E 0 92 29 7f
        E 512 82 29 00
        E 0 b2 0b 7f
        E 0 92 22 7f
        E 512 82 22 00
        E 0 b2 0b 7f
        E 0 92 2e 7f
        E 512 82 2e 00
        E 0 b2 0b 7f
        E 0 92 37 7f
        E 512 82 37 00
        E 0 b2 0b 7f
        E 0 92 2b 7f
        E 512 82 2b 00
        E 0 b2 0b 7f
        E 0 92 2d 7f
        E 512 82 2d 00
        E 0 b2 0b 7f
        E 0 92 39 7f
        E 512 82 39 00
        E 0 b2 0b 7f
        E 0 92 39 7f
        E 256 82 39 00
        E 0 b2 0b 7f
        E 0 92 37 7f
        E 256 82 37 00
        E 0 b2 0b 7f
        E 0 92 35 7f
        E 256 82 35 00
        E 0 b2 0b 7f
        E 0 92 34 7f
        E 256 82 34 00
        E 0 b2 0b 7f
        E 0 92 26 7f
        E 512 82 26 00
        E 0 b2 0b 7f
        E 0 92 32 7f
        E 512 82 32 00
        E 0 b2 0b 7f
        E 0 92 37 7f
        E 512 82 37 00
        E 0 b2 0b 7f
        E 0 92 2b 7f
        E 512 82 2b 00
        E 0 b2 0b 7f
        E 0 92 24 7f
        E 512 82 24 00
        E 0 b2 0b 7f
        E 0 92 30 7f
        E 512 82 30 00
        E 0 b2 0b 7f
        E 0 92 35 7f
        E 512 82 35 00
        E 0 b2 0b 7f
        E 0 92 29 7f
        E 512 82 29 00
        E 0 b2 0b 7f
        E 0 92 22 7f
        E 512 82 22 00
        E 0 b2 0b 7f
        E 0 92 2e 7f
        E 512 82 2e 00
        E 0 b2 0b 7f
        E 0 92 37 7f
        E 512 82 37 00
        E 0 b2 0b 7f
        E 0 92 2b 7f
        E 512 82 2b 00
        E 0 b2 0b 7f
        E 0 92 2d 7f
        E 512 82 2d 00
        E 0 b2 0b 7f
        E 0 92 39 7f
        E 512 82 39 00
        E 0 b2 0b 7f
        E 0 92 39 7f
        E 256 82 39 00
        E 0 b2 0b 7f
        E 0 92 37 7f
        E 256 82 37 00
        E 0 b2 0b 7f
        E 0 92 35 7f
        E 256 82 35 00
        E 0 b2 0b 7f
        E 0 92 34 7f
        E 256 82 34 00
        E 0 b2 0b 7f
        E 0 92 26 7f
        E 512 82 26 00
        E 0 b2 0b 7f
        E 0 92 32 7f
        E 512 82 32 00
        E 0 b2 0b 7f
        E 0 92 37 7f
        E 512 82 37 00
        E 0 b2 0b 7f
        E 0 92 2b 7f
        E 512 82 2b 00
        E 0 b2 0b 7f
        E 0 92 24 7f
        E 512 82 24 00
        E 0 b2 0b 7f
        E 0 92 30 7f
        E 512 82 30 00
        E 0 b2 0b 7f
        E 0 92 35 7f
        E 512 82 35 00
        E 0 b2 0b 7f
        E 0 92 29 7f
        E 512 82 29 00
        E 0 b2 0b 7f
        E 0 92 22 7f
        E 512 82 22 00
        E 0 b2 0b 7f
        E 0 92 2e 7f
        E 512 82 2e 00
        E 0 b2 0b 7f
        E 0 92 37 7f
        E 512 82 37 00
        E 0 b2 0b 7f
        E 0 92 2b 7f
        E 512 82 2b 00
        E 0 b2 0b 7f
        E 0 92 2d 7f
        E 512 82 2d 00
        E 0 b2 0b 7f
        E 0 92 39 7f
        E 512 82 39 00
        E 0 b2 0b 7f
        E 0 92 39 7f
        E 256 82 39 00
        E 0 b2 0b 7f
        E 0 92 37 7f
        E 256 82 37 00
        E 0 b2 0b 7f
        E 0 92 35 7f
        E 256 82 35 00
        E 0 b2 0b 7f
        E 0 92 34 7f
        E 256 82 34 00
        E 0 b2 0b 7f
        E 0 92 26 7f
        E 768 82 26 00
        E 0 b2 0b 7f
        E 0 92 26 7f
        E 512 82 26 00
        E 0 b2 0b 7f
        E 0 92 26 7f
        E 256 82 26 00
        E 0 b2 0b 7f
        E 0 92 26 7f
        E 1328 82 26 00
        E 0 ff 2f 00
      >
    >
  >
  <TRACK {50051199-C0C4-4142-83D4-A4E847A3AAAE}
    NAME "NES - Noise / Drums"
    PEAKCOL 11184810
    BEAT -1
    AUTOMODE 0
    PANLAWFLAGS 3
    VOLPAN 1 0 -1 -1 1
    MUTESOLO 0 0 0
    IPHASE 0
    PLAYOFFS 0 1
    ISBUS 0 0
    BUSCOMP 0 0 0 0 0
    SHOWINMIX 1 0.6667 0.5 1 0.5 0 0 0
    FIXEDLANES 9 0 0 0 0
    SEL 0
    REC 0 5088 1 0 0 0 0 0
    VU 2
    TRACKHEIGHT 0 0 0 0 0 0 0
    INQ 0 0 0 0.5 100 0 0 100
    NCHAN 2
    FX 1
    TRACKID {50051199-C0C4-4142-83D4-A4E847A3AAAE}
    PERF 0
    MIDIOUT -1
    MAINSEND 1 0
    <FXCHAIN
      WNDRECT 24 52 700 560
      SHOW 0
      LASTSEL 0
      DOCKED 0
      BYPASS 0 0 0
      <JS "ReapNES Studio/ReapNES_Console.jsfx" ""
        2 15 1 10 80 10 100 2 1 15 1 5 60 10 80 1 1 0 50 0 0 15 1 0 100 0 0 0.500000 0.500000 0.400000 0.300000 0.800000 3 1 0 0 0 0 - - - - - - - - - - - - - - - - - - - - - - - - - -
      >
      FLOATPOS 0 0 0 0
      FXID {FBDEC65B-2CE4-4686-8656-4DFB723B38C0}
      WAK 0 0
    >
  >
>