<REAPER_PROJECT 0.1 "7.27/win64" 1707000000
  <NOTES 0 2
    |ReapNES Studio Project
    |MIDI Import - Wizards_&_Warriors_03_Tree_v1
  >
  RIPPLE 0
  GROUPOVERRIDE 0 0 0
  AUTOXFADE 129
  ENVATTACH 3
  POOLEDENVATTACH 0
  MIXERUIFLAGS 11 48
  ENVFADESZ10 40
  PEAKGAIN 1
  FEEDBACK 0
  PANLAW 1
  PROJOFFS 0 0 0
  MAXPROJLEN 0 0
  GRID 3199 8 1 8 1 0 0 0
  TIMEMODE 1 5 -1 30 0 0 -1
  VIDEO_CONFIG 0 0 65792
  PANMODE 3
  PANLAWFLAGS 3
  CURSOR 0
  ZOOM 100 0 0
  VZOOMEX 6 0
  USE_REC_CFG 0
  RECMODE 1
  SMPTESYNC 0 30 100 40 1000 300 0 0 1 0 0
  LOOP 0
  LOOPGRAN 0 4
  RECORD_PATH "Media" ""
  <RECORD_CFG
    ZXZhdxgAAQ==
  >
  <APPLYFX_CFG
  >
  RENDER_FILE ""
  RENDER_PATTERN ""
  RENDER_FMT 0 2 0
  RENDER_1X 0
  RENDER_RANGE 1 0 0 18 1000
  RENDER_RESAMPLE 3 0 1
  RENDER_ADDTOPROJ 0
  RENDER_STEMS 0
  RENDER_DITHER 0
  TIMELOCKMODE 1
  TEMPOENVLOCKMODE 1
  ITEMMIX 1
  DEFPITCHMODE 589824 0
  TAKELANE 1
  SAMPLERATE 44100 0 0
  <RENDER_CFG
    ZXZhdxgAAQ==
  >
  LOCK 1
  <METRONOME 6 2
    VOL 0.25 0.125
    BEATLEN 4
    FREQ 1760 880 1
    SAMPLES "" ""
    SPLIGNORE 0 0
    SPLDEF 2 660 "" 0
    SPLDEF 3 440 "" 0
    PATTERN 0 169
    PATTERNSTR ABBB
    MULT 1
  >
  GLOBAL_AUTO -1
  TEMPO 128.59999614200012 4 4
  PLAYRATE 1 0 0.25 4
  SELECTION 0 0
  SELECTION2 0 0
  MASTERAUTOMODE 0
  MASTERTRACKHEIGHT 0 0
  MASTERPEAKCOL 16576
  MASTERMUTESOLO 0
  MASTERTRACKVIEW 0 0.6667 0.5 0.5 0 0 0 0 0 0 0 0 0 0
  MASTERHWOUT 0 0 1 0 0 0 0 -1
  MASTER_NCH 2 2
  MASTER_VOLUME 1 0 -1 -1 1
  MASTER_PANMODE 3
  MASTER_PANLAWFLAGS 3
  MASTER_FX 1
  MASTER_SEL 0
  <MASTERPLAYSPEEDENV
    EGUID {20D43E15-6002-4FF0-B671-A357821C90A4}
    ACT 0 -1
    VIS 0 1 1
    LANEHEIGHT 0 0
    ARM 0
    DEFSHAPE 0 -1 -1
  >
  <TEMPOENVEX
    EGUID {328C5676-AFD8-448B-B334-8D92A8DE4E9E}
    ACT 1 -1
    VIS 1 0 1
    LANEHEIGHT 0 0
    ARM 0
    DEFSHAPE 1 -1 -1
  >
  <PROJBAY
  >
  <TRACK {5FAD2DEF-04EA-4C19-B8F2-2002F6D9AF88}
    NAME "NES - Pulse 1 [ch0]"
    PEAKCOL 16576606
    BEAT -1
    AUTOMODE 0
    PANLAWFLAGS 3
    VOLPAN 1 0 -1 -1 1
    MUTESOLO 0 0 0
    IPHASE 0
    PLAYOFFS 0 1
    ISBUS 0 0
    BUSCOMP 0 0 0 0 0
    SHOWINMIX 1 0.6667 0.5 1 0.5 0 0 0
    FIXEDLANES 9 0 0 0 0
    SEL 1
    REC 1 5088 1 0 0 0 0 0
    VU 2
    TRACKHEIGHT 0 0 0 0 0 0 0
    INQ 0 0 0 0.5 100 0 0 100
    NCHAN 2
    FX 1
    TRACKID {5FAD2DEF-04EA-4C19-B8F2-2002F6D9AF88}
    PERF 0
    MIDIOUT -1
    MAINSEND 1 0
    <FXCHAIN
      WNDRECT 24 52 700 560
      SHOW 0
      LASTSEL 0
      DOCKED 0
      BYPASS 0 0 0
      <JS "ReapNES Studio/ReapNES_Console.jsfx" ""
        2 15 1 10 80 10 100 2 1 15 1 5 60 10 80 1 1 0 50 0 0 15 1 0 100 0 0 0.500000 0.500000 0.400000 0.300000 0.800000 0 1 0 0 0 0 - - - - - - - - - - - - - - - - - - - - - - - - - -
      >
      FLOATPOS 0 0 0 0
      FXID {56F1BC8D-90AB-4B8B-8DE3-96011D7C12DB}
      WAK 0 0
    >
    <ITEM
      POSITION 0
      LENGTH 83.98134
      LOOP 0
      ALLTAKES 0
      FADEIN 0 0 0 0 0 0 0
      FADEOUT 0 0 0 0 0 0 0
      MUTE 0 0
      SEL 0
      IGUID {47D615BA-57C5-4462-BD27-15398830E1A9}
      <SOURCE MIDI
        HASDATA 1 480 QN
        CCINTERP 32
        E 0 c0 50
        E 0 b0 0c 40
        E 0 b0 0b 28
        E 0 90 35 28
        E 768 80 35 00
        E 0 90 2e 28
        E 1344 b0 0b 78
        E 0 80 2e 00
        E 0 90 29 78
        E 96 80 29 00
        E 0 90 2c 78
        E 96 80 2c 00
        E 0 90 33 78
        E 384 80 33 00
        E 0 90 31 78
        E 192 80 31 00
        E 192 b0 0b 28
        E 0 90 30 28
        E 192 80 30 00
        E 0 90 31 28
        E 192 80 31 00
        E 0 90 30 28
        E 384 80 30 00
        E 0 90 2c 28
        E 1152 80 2c 00
        E 0 90 30 28
        E 192 80 30 00
        E 0 90 31 28
        E 192 80 31 00
        E 0 90 30 28
        E 384 80 30 00
        E 0 90 2b 28
        E 1536 80 2b 00
        E 0 90 35 28
        E 768 80 35 00
        E 0 90 2e 28
        E 1344 b0 0b 78
        E 0 80 2e 00
        E 0 90 29 78
        E 96 80 29 00
        E 0 90 2c 78
        E 96 80 2c 00
        E 0 90 33 78
        E 384 80 33 00
        E 0 90 31 78
        E 192 80 31 00
        E 192 b0 0b 28
        E 0 90 30 28
        E 192 80 30 00
        E 0 90 31 28
        E 192 80 31 00
        E 0 90 30 28
        E 384 80 30 00
        E 0 90 2c 28
        E 1152 80 2c 00
        E 0 90 30 28
        E 192 80 30 00
        E 0 90 31 28
        E 192 80 31 00
        E 0 90 30 28
        E 384 80 30 00
        E 0 90 2b 28
        E 1536 80 2b 00
        E 0 90 35 28
        E 768 80 35 00
        E 0 90 2e 28
        E 1344 b0 0b 78
        E 0 80 2e 00
        E 0 90 29 78
        E 96 80 29 00
        E 0 90 2c 78
        E 96 80 2c 00
        E 0 90 33 78
        E 384 80 33 00
        E 0 90 31 78
        E 192 80 31 00
        E 192 b0 0b 28
        E 0 90 30 28
        E 192 80 30 00
        E 0 90 31 28
        E 192 80 31 00
        E 0 90 30 28
        E 384 80 30 00
        E 0 90 2c 28
        E 1152 80 2c 00
        E 0 90 30 28
        E 192 80 30 00
        E 0 90 31 28
        E 192 80 31 00
        E 0 90 30 28
        E 384 80 30 00
        E 0 90 2b 28
        E 1536 80 2b 00
        E 0 90 35 28
        E 768 80 35 00
        E 0 90 2e 28
        E 1344 b0 0b 78
        E 0 80 2e 00
        E 0 90 29 78
        E 96 80 29 00
        E 0 90 2c 78
        E 96 80 2c 00
        E 0 90 33 78
        E 384 80 33 00
        E 0 90 31 78
        E 192 80 31 00
        E 192 b0 0b 28
        E 0 90 30 28
        E 192 80 30 00
        E 0 90 31 28
        E 192 80 31 00
        E 0 90 30 28
        E 384 80 30 00
        E 0 90 2c 28
        E 1152 80 2c 00
        E 0 90 30 28
        E 192 80 30 00
        E 0 90 31 28
        E 192 80 31 00
        E 0 90 30 28
        E 384 80 30 00
        E 0 90 2b 28
        E 1536 80 2b 00
        E 0 90 35 28
        E 768 80 35 00
        E 0 90 2e 28
        E 1344 b0 0b 78
        E 0 80 2e 00
        E 0 90 29 78
        E 96 80 29 00
        E 0 90 2c 78
        E 96 80 2c 00
        E 0 90 33 78
        E 384 80 33 00
        E 0 90 31 78
        E 192 80 31 00
        E 192 b0 0b 28
        E 0 90 30 28
        E 192 80 30 00
        E 0 90 31 28
        E 192 80 31 00
        E 0 90 30 28
        E 384 80 30 00
        E 0 90 2c 28
        E 1152 80 2c 00
        E 0 90 30 28
        E 192 80 30 00
        E 0 90 31 28
        E 192 80 31 00
        E 0 90 30 28
        E 384 80 30 00
        E 0 90 2b 28
        E 1536 80 2b 00
        E 0 90 35 28
        E 768 80 35 00
        E 0 90 2e 28
        E 1344 b0 0b 78
        E 0 80 2e 00
        E 0 90 29 78
        E 96 80 29 00
        E 0 90 2c 78
        E 96 80 2c 00
        E 0 90 33 78
        E 384 80 33 00
        E 0 90 31 78
        E 192 80 31 00
        E 192 b0 0b 28
        E 0 90 30 28
        E 192 80 30 00
        E 0 90 31 28
        E 192 80 31 00
        E 0 90 30 28
        E 384 80 30 00
        E 0 90 2c 28
        E 1152 80 2c 00
        E 0 90 30 28
        E 192 80 30 00
        E 0 90 31 28
        E 192 80 31 00
        E 0 90 30 28
        E 384 80 30 00
        E 0 90 2b 28
        E 1536 80 2b 00
        E 0 90 35 28
        E 768 80 35 00
        E 0 90 2e 28
        E 1344 b0 0b 78
        E 0 80 2e 00
        E 0 90 29 78
        E 96 80 29 00
        E 0 90 2c 78
        E 96 80 2c 00
        E 0 90 33 78
        E 384 80 33 00
        E 0 90 31 78
        E 192 80 31 00
        E 192 b0 0b 28
        E 0 90 30 28
        E 192 80 30 00
        E 0 90 31 28
        E 192 80 31 00
        E 0 90 30 28
        E 384 80 30 00
        E 0 90 2c 28
        E 1152 80 2c 00
        E 0 90 30 28
        E 192 80 30 00
        E 0 90 31 28
        E 192 80 31 00
        E 0 90 30 28
        E 384 80 30 00
        E 0 90 2b 28
        E 1536 80 2b 00
        E 0 90 35 28
        E 768 80 35 00
        E 0 90 2e 28
        E 1344 b0 0b 78
        E 0 80 2e 00
        E 0 90 29 78
        E 96 80 29 00
        E 0 90 2c 78
        E 96 80 2c 00
        E 0 90 33 78
        E 384 80 33 00
        E 0 90 31 78
        E 192 80 31 00
        E 192 b0 0b 28
        E 0 90 30 28
        E 192 80 30 00
        E 0 90 31 28
        E 192 80 31 00
        E 0 90 30 28
        E 384 80 30 00
        E 0 90 2c 28
        E 1152 80 2c 00
        E 0 90 30 28
        E 192 80 30 00
        E 0 90 31 28
        E 192 80 31 00
        E 0 90 30 28
        E 384 80 30 00
        E 0 90 2b 28
        E 1536 80 2b 00
        E 0 90 35 28
        E 768 80 35 00
        E 0 90 2e 28
        E 1344 b0 0b 78
        E 0 80 2e 00
        E 0 90 29 78
        E 96 80 29 00
        E 0 90 2c 78
        E 96 80 2c 00
        E 0 90 33 78
        E 384 80 33 00
        E 0 90 31 78
        E 192 80 31 00
        E 192 b0 0b 28
        E 0 90 30 28
        E 192 80 30 00
        E 0 90 31 28
        E 192 80 31 00
        E 0 90 30 28
        E 384 80 30 00
        E 0 90 2c 28
        E 1152 80 2c 00
        E 0 90 30 28
        E 192 80 30 00
        E 0 90 31 28
        E 192 80 31 00
        E 0 90 30 28
        E 384 80 30 00
        E 0 90 2b 28
        E 1536 80 2b 00
        E 0 90 35 28
        E 768 80 35 00
        E 0 90 2e 28
        E 1344 b0 0b 78
        E 0 80 2e 00
        E 0 90 29 78
        E 96 80 29 00
        E 0 90 2c 78
        E 96 80 2c 00
        E 0 90 33 78
        E 384 80 33 00
        E 0 90 31 78
        E 192 80 31 00
        E 192 b0 0b 28
        E 0 90 30 28
        E 192 80 30 00
        E 0 90 31 28
        E 192 80 31 00
        E 0 90 30 28
        E 384 80 30 00
        E 0 90 2c 28
        E 1152 80 2c 00
        E 0 90 30 28
        E 192 80 30 00
        E 0 90 31 28
        E 192 80 31 00
        E 0 90 30 28
        E 384 80 30 00
        E 0 90 2b 28
        E 1536 80 2b 00
        E 0 90 35 28
        E 768 80 35 00
        E 0 90 2e 28
        E 1344 b0 0b 78
        E 0 80 2e 00
        E 0 90 29 78
        E 96 80 29 00
        E 0 90 2c 78
        E 96 80 2c 00
        E 0 90 33 78
        E 384 80 33 00
        E 0 90 31 78
        E 192 80 31 00
        E 192 b0 0b 28
        E 0 90 30 28
        E 192 80 30 00
        E 0 90 31 28
        E 192 80 31 00
        E 0 90 30 28
        E 384 80 30 00
        E 0 90 2c 28
        E 1152 80 2c 00
        E 0 90 30 28
        E 192 80 30 00
        E 0 90 31 28
        E 192 80 31 00
        E 0 90 30 28
        E 384 80 30 00
        E 0 90 2b 28
        E 1536 80 2b 00
        E 0 90 35 28
        E 768 80 35 00
        E 0 90 2e 28
        E 1344 b0 0b 78
        E 0 80 2e 00
        E 0 90 29 78
        E 96 80 29 00
        E 0 90 2c 78
        E 96 80 2c 00
        E 0 90 33 78
        E 384 80 33 00
        E 0 90 31 78
        E 192 80 31 00
        E 192 b0 0b 28
        E 0 90 30 28
        E 192 80 30 00
        E 0 90 31 28
        E 192 80 31 00
        E 0 90 30 28
        E 384 80 30 00
        E 0 90 2c 28
        E 1152 80 2c 00
        E 0 90 30 28
        E 192 80 30 00
        E 0 90 31 28
        E 192 80 31 00
        E 0 90 30 28
        E 384 80 30 00
        E 0 90 2b 28
        E 384 80 2b 00
        E 0 ff 2f 00
      >
    >
  >
  <TRACK {840F0D48-5362-4158-A171-44A7DFA2F7E5}
    NAME "NES - Pulse 2 [ch1]"
    PEAKCOL 10092441
    BEAT -1
    AUTOMODE 0
    PANLAWFLAGS 3
    VOLPAN 1 0 -1 -1 1
    MUTESOLO 0 0 0
    IPHASE 0
    PLAYOFFS 0 1
    ISBUS 0 0
    BUSCOMP 0 0 0 0 0
    SHOWINMIX 1 0.6667 0.5 1 0.5 0 0 0
    FIXEDLANES 9 0 0 0 0
    SEL 0
    REC 0 5088 1 0 0 0 0 0
    VU 2
    TRACKHEIGHT 0 0 0 0 0 0 0
    INQ 0 0 0 0.5 100 0 0 100
    NCHAN 2
    FX 1
    TRACKID {840F0D48-5362-4158-A171-44A7DFA2F7E5}
    PERF 0
    MIDIOUT -1
    MAINSEND 1 0
    <FXCHAIN
      WNDRECT 24 52 700 560
      SHOW 0
      LASTSEL 0
      DOCKED 0
      BYPASS 0 0 0
      <JS "ReapNES Studio/ReapNES_Console.jsfx" ""
        2 15 1 10 80 10 100 2 1 15 1 5 60 10 80 1 1 0 50 0 0 15 1 0 100 0 0 0.500000 0.500000 0.400000 0.300000 0.800000 1 1 0 0 0 0 - - - - - - - - - - - - - - - - - - - - - - - - - -
      >
      FLOATPOS 0 0 0 0
      FXID {B1CDAF23-F1D7-469A-B5F3-66E8D04AA837}
      WAK 0 0
    >
    <ITEM
      POSITION 0
      LENGTH 83.98134
      LOOP 0
      ALLTAKES 0
      FADEIN 0 0 0 0 0 0 0
      FADEOUT 0 0 0 0 0 0 0
      MUTE 0 0
      SEL 0
      IGUID {DED06D5B-4E43-4D70-9795-7AA81FCAB22D}
      <SOURCE MIDI
        HASDATA 1 480 QN
        CCINTERP 32
        E 0 c1 51
        E 0 b1 0c 40
        E 0 b1 0b 28
        E 0 91 1d 28
        E 192 81 1d 00
        E 0 91 24 28
        E 192 81 24 00
        E 0 91 29 28
        E 192 81 29 00
        E 0 91 27 28
        E 192 81 27 00
        E 0 91 24 28
        E 1536 b1 0b 78
        E 0 81 24 00
        E 0 91 25 78
        E 576 81 25 00
        E 192 b1 0b 28
        E 0 91 24 28
        E 768 81 24 00
        E 0 91 1d 28
        E 1152 81 1d 00
        E 0 91 22 28
        E 768 81 22 00
        E 0 91 1c 28
        E 1536 81 1c 00
        E 0 91 1d 28
        E 192 81 1d 00
        E 0 91 24 28
        E 192 81 24 00
        E 0 91 29 28
        E 192 81 29 00
        E 0 91 27 28
        E 192 81 27 00
        E 0 91 24 28
        E 1536 b1 0b 78
        E 0 81 24 00
        E 0 91 25 78
        E 576 81 25 00
        E 192 b1 0b 28
        E 0 91 24 28
        E 768 81 24 00
        E 0 91 1d 28
        E 1152 81 1d 00
        E 0 91 22 28
        E 768 81 22 00
        E 0 91 1c 28
        E 1536 81 1c 00
        E 0 91 1d 28
        E 192 81 1d 00
        E 0 91 24 28
        E 192 81 24 00
        E 0 91 29 28
        E 192 81 29 00
        E 0 91 27 28
        E 192 81 27 00
        E 0 91 24 28
        E 1536 b1 0b 78
        E 0 81 24 00
        E 0 91 25 78
        E 576 81 25 00
        E 192 b1 0b 28
        E 0 91 24 28
        E 768 81 24 00
        E 0 91 1d 28
        E 1152 81 1d 00
        E 0 91 22 28
        E 768 81 22 00
        E 0 91 1c 28
        E 1536 81 1c 00
        E 0 91 1d 28
        E 192 81 1d 00
        E 0 91 24 28
        E 192 81 24 00
        E 0 91 29 28
        E 192 81 29 00
        E 0 91 27 28
        E 192 81 27 00
        E 0 91 24 28
        E 1536 b1 0b 78
        E 0 81 24 00
        E 0 91 25 78
        E 576 81 25 00
        E 192 b1 0b 28
        E 0 91 24 28
        E 768 81 24 00
        E 0 91 1d 28
        E 1152 81 1d 00
        E 0 91 22 28
        E 768 81 22 00
        E 0 91 1c 28
        E 1536 81 1c 00
        E 0 91 1d 28
        E 192 81 1d 00
        E 0 91 24 28
        E 192 81 24 00
        E 0 91 29 28
        E 192 81 29 00
        E 0 91 27 28
        E 192 81 27 00
        E 0 91 24 28
        E 1536 b1 0b 78
        E 0 81 24 00
        E 0 91 25 78
        E 576 81 25 00
        E 192 b1 0b 28
        E 0 91 24 28
        E 768 81 24 00
        E 0 91 1d 28
        E 1152 81 1d 00
        E 0 91 22 28
        E 768 81 22 00
        E 0 91 1c 28
        E 1536 81 1c 00
        E 0 91 1d 28
        E 192 81 1d 00
        E 0 91 24 28
        E 192 81 24 00
        E 0 91 29 28
        E 192 81 29 00
        E 0 91 27 28
        E 192 81 27 00
        E 0 91 24 28
        E 1536 b1 0b 78
        E 0 81 24 00
        E 0 91 25 78
        E 576 81 25 00
        E 192 b1 0b 28
        E 0 91 24 28
        E 768 81 24 00
        E 0 91 1d 28
        E 1152 81 1d 00
        E 0 91 22 28
        E 768 81 22 00
        E 0 91 1c 28
        E 1536 81 1c 00
        E 0 91 1d 28
        E 192 81 1d 00
        E 0 91 24 28
        E 192 81 24 00
        E 0 91 29 28
        E 192 81 29 00
        E 0 91 27 28
        E 192 81 27 00
        E 0 91 24 28
        E 1536 b1 0b 78
        E 0 81 24 00
        E 0 91 25 78
        E 576 81 25 00
        E 192 b1 0b 28
        E 0 91 24 28
        E 768 81 24 00
        E 0 91 1d 28
        E 1152 81 1d 00
        E 0 91 22 28
        E 768 81 22 00
        E 0 91 1c 28
        E 1536 81 1c 00
        E 0 91 1d 28
        E 192 81 1d 00
        E 0 91 24 28
        E 192 81 24 00
        E 0 91 29 28
        E 192 81 29 00
        E 0 91 27 28
        E 192 81 27 00
        E 0 91 24 28
        E 1536 b1 0b 78
        E 0 81 24 00
        E 0 91 25 78
        E 576 81 25 00
        E 192 b1 0b 28
        E 0 91 24 28
        E 768 81 24 00
        E 0 91 1d 28
        E 1152 81 1d 00
        E 0 91 22 28
        E 768 81 22 00
        E 0 91 1c 28
        E 1536 81 1c 00
        E 0 91 1d 28
        E 192 81 1d 00
        E 0 91 24 28
        E 192 81 24 00
        E 0 91 29 28
        E 192 81 29 00
        E 0 91 27 28
        E 192 81 27 00
        E 0 91 24 28
        E 1536 b1 0b 78
        E 0 81 24 00
        E 0 91 25 78
        E 576 81 25 00
        E 192 b1 0b 28
        E 0 91 24 28
        E 768 81 24 00
        E 0 91 1d 28
        E 1152 81 1d 00
        E 0 91 22 28
        E 768 81 22 00
        E 0 91 1c 28
        E 1536 81 1c 00
        E 0 91 1d 28
        E 192 81 1d 00
        E 0 91 24 28
        E 192 81 24 00
        E 0 91 29 28
        E 192 81 29 00
        E 0 91 27 28
        E 192 81 27 00
        E 0 91 24 28
        E 1536 b1 0b 78
        E 0 81 24 00
        E 0 91 25 78
        E 576 81 25 00
        E 192 b1 0b 28
        E 0 91 24 28
        E 768 81 24 00
        E 0 91 1d 28
        E 1152 81 1d 00
        E 0 91 22 28
        E 768 81 22 00
        E 0 91 1c 28
        E 1536 81 1c 00
        E 0 91 1d 28
        E 192 81 1d 00
        E 0 91 24 28
        E 192 81 24 00
        E 0 91 29 28
        E 192 81 29 00
        E 0 91 27 28
        E 192 81 27 00
        E 0 91 24 28
        E 1536 b1 0b 78
        E 0 81 24 00
        E 0 91 25 78
        E 576 81 25 00
        E 192 b1 0b 28
        E 0 91 24 28
        E 768 81 24 00
        E 0 91 1d 28
        E 1152 81 1d 00
        E 0 91 22 28
        E 768 81 22 00
        E 0 91 1c 28
        E 1536 81 1c 00
        E 0 91 1d 28
        E 192 81 1d 00
        E 0 91 24 28
        E 192 81 24 00
        E 0 91 29 28
        E 192 81 29 00
        E 0 91 27 28
        E 192 81 27 00
        E 0 91 24 28
        E 1536 b1 0b 78
        E 0 81 24 00
        E 0 91 25 78
        E 576 81 25 00
        E 192 b1 0b 28
        E 0 91 24 28
        E 768 81 24 00
        E 0 91 1d 28
        E 1152 81 1d 00
        E 0 91 22 28
        E 768 81 22 00
        E 0 91 1c 28
        E 384 81 1c 00
        E 0 ff 2f 00
      >
    >
  >
  <TRACK {E40A0C32-7B5F-4A07-BB2D-A6AE6D5A2ACA}
    NAME "NES - Triangle [ch2]"
    PEAKCOL 16744192
    BEAT -1
    AUTOMODE 0
    PANLAWFLAGS 3
    VOLPAN 1 0 -1 -1 1
    MUTESOLO 0 0 0
    IPHASE 0
    PLAYOFFS 0 1
    ISBUS 0 0
    BUSCOMP 0 0 0 0 0
    SHOWINMIX 1 0.6667 0.5 1 0.5 0 0 0
    FIXEDLANES 9 0 0 0 0
    SEL 0
    REC 0 5088 1 0 0 0 0 0
    VU 2
    TRACKHEIGHT 0 0 0 0 0 0 0
    INQ 0 0 0 0.5 100 0 0 100
    NCHAN 2
    FX 1
    TRACKID {E40A0C32-7B5F-4A07-BB2D-A6AE6D5A2ACA}
    PERF 0
    MIDIOUT -1
    MAINSEND 1 0
    <FXCHAIN
      WNDRECT 24 52 700 560
      SHOW 0
      LASTSEL 0
      DOCKED 0
      BYPASS 0 0 0
      <JS "ReapNES Studio/ReapNES_Console.jsfx" ""
        2 15 1 10 80 10 100 2 1 15 1 5 60 10 80 1 1 0 50 0 0 15 1 0 100 0 0 0.500000 0.500000 0.400000 0.300000 0.800000 2 1 0 0 0 0 - - - - - - - - - - - - - - - - - - - - - - - - - -
      >
      FLOATPOS 0 0 0 0
      FXID {14A415FD-EF8A-44E7-A7D5-F93159FFEB14}
      WAK 0 0
    >
    <ITEM
      POSITION 0
      LENGTH 83.98134
      LOOP 0
      ALLTAKES 0
      FADEIN 0 0 0 0 0 0 0
      FADEOUT 0 0 0 0 0 0 0
      MUTE 0 0
      SEL 0
      IGUID {45785564-1FC4-46CD-A4BB-DB1E759452D8}
      <SOURCE MIDI
        HASDATA 1 480 QN
        CCINTERP 32
        E 0 c2 26
        E 0 b2 0b 7f
        E 0 92 3c 7f
        E 768 82 3c 00
        E 0 b2 0b 7f
        E 0 92 37 7f
        E 2304 82 37 00
        E 0 b2 0b 7f
        E 0 92 34 7f
        E 768 82 34 00
        E 0 b2 0b 7f
        E 0 92 30 7f
        E 1152 82 30 00
        E 0 b2 0b 7f
        E 0 92 31 7f
        E 768 82 31 00
        E 0 b2 0b 7f
        E 0 92 30 7f
        E 1536 82 30 00
        E 0 b2 0b 7f
        E 0 92 3c 7f
        E 768 82 3c 00
        E 0 b2 0b 7f
        E 0 92 37 7f
        E 2304 82 37 00
        E 0 b2 0b 7f
        E 0 92 34 7f
        E 768 82 34 00
        E 0 b2 0b 7f
        E 0 92 30 7f
        E 1152 82 30 00
        E 0 b2 0b 7f
        E 0 92 31 7f
        E 768 82 31 00
        E 0 b2 0b 7f
        E 0 92 30 7f
        E 1536 82 30 00
        E 0 b2 0b 7f
        E 0 92 3c 7f
        E 768 82 3c 00
        E 0 b2 0b 7f
        E 0 92 37 7f
        E 2304 82 37 00
        E 0 b2 0b 7f
        E 0 92 34 7f
        E 768 82 34 00
        E 0 b2 0b 7f
        E 0 92 30 7f
        E 1152 82 30 00
        E 0 b2 0b 7f
        E 0 92 31 7f
        E 768 82 31 00
        E 0 b2 0b 7f
        E 0 92 30 7f
        E 1536 82 30 00
        E 0 b2 0b 7f
        E 0 92 3c 7f
        E 768 82 3c 00
        E 0 b2 0b 7f
        E 0 92 37 7f
        E 2304 82 37 00
        E 0 b2 0b 7f
        E 0 92 34 7f
        E 768 82 34 00
        E 0 b2 0b 7f
        E 0 92 30 7f
        E 1152 82 30 00
        E 0 b2 0b 7f
        E 0 92 31 7f
        E 768 82 31 00
        E 0 b2 0b 7f
        E 0 92 30 7f
        E 1536 82 30 00
        E 0 b2 0b 7f
        E 0 92 3c 7f
        E 768 82 3c 00
        E 0 b2 0b 7f
        E 0 92 37 7f
        E 2304 82 37 00
        E 0 b2 0b 7f
        E 0 92 34 7f
        E 768 82 34 00
        E 0 b2 0b 7f
        E 0 92 30 7f
        E 1152 82 30 00
        E 0 b2 0b 7f
        E 0 92 31 7f
        E 768 82 31 00
        E 0 b2 0b 7f
        E 0 92 30 7f
        E 1536 82 30 00
        E 0 b2 0b 7f
        E 0 92 3c 7f
        E 768 82 3c 00
        E 0 b2 0b 7f
        E 0 92 37 7f
        E 2304 82 37 00
        E 0 b2 0b 7f
        E 0 92 34 7f
        E 768 82 34 00
        E 0 b2 0b 7f
        E 0 92 30 7f
        E 1152 82 30 00
        E 0 b2 0b 7f
        E 0 92 31 7f
        E 768 82 31 00
        E 0 b2 0b 7f
        E 0 92 30 7f
        E 1536 82 30 00
        E 0 b2 0b 7f
        E 0 92 3c 7f
        E 768 82 3c 00
        E 0 b2 0b 7f
        E 0 92 37 7f
        E 2304 82 37 00
        E 0 b2 0b 7f
        E 0 92 34 7f
        E 768 82 34 00
        E 0 b2 0b 7f
        E 0 92 30 7f
        E 1152 82 30 00
        E 0 b2 0b 7f
        E 0 92 31 7f
        E 768 82 31 00
        E 0 b2 0b 7f
        E 0 92 30 7f
        E 1536 82 30 00
        E 0 b2 0b 7f
        E 0 92 3c 7f
        E 768 82 3c 00
        E 0 b2 0b 7f
        E 0 92 37 7f
        E 2304 82 37 00
        E 0 b2 0b 7f
        E 0 92 34 7f
        E 768 82 34 00
        E 0 b2 0b 7f
        E 0 92 30 7f
        E 1152 82 30 00
        E 0 b2 0b 7f
        E 0 92 31 7f
        E 768 82 31 00
        E 0 b2 0b 7f
        E 0 92 30 7f
        E 1536 82 30 00
        E 0 b2 0b 7f
        E 0 92 3c 7f
        E 768 82 3c 00
        E 0 b2 0b 7f
        E 0 92 37 7f
        E 2304 82 37 00
        E 0 b2 0b 7f
        E 0 92 34 7f
        E 768 82 34 00
        E 0 b2 0b 7f
        E 0 92 30 7f
        E 1152 82 30 00
        E 0 b2 0b 7f
        E 0 92 31 7f
        E 768 82 31 00
        E 0 b2 0b 7f
        E 0 92 30 7f
        E 1536 82 30 00
        E 0 b2 0b 7f
        E 0 92 3c 7f
        E 768 82 3c 00
        E 0 b2 0b 7f
        E 0 92 37 7f
        E 2304 82 37 00
        E 0 b2 0b 7f
        E 0 92 34 7f
        E 768 82 34 00
        E 0 b2 0b 7f
        E 0 92 30 7f
        E 1152 82 30 00
        E 0 b2 0b 7f
        E 0 92 31 7f
        E 768 82 31 00
        E 0 b2 0b 7f
        E 0 92 30 7f
        E 1536 82 30 00
        E 0 b2 0b 7f
        E 0 92 3c 7f
        E 768 82 3c 00
        E 0 b2 0b 7f
        E 0 92 37 7f
        E 2304 82 37 00
        E 0 b2 0b 7f
        E 0 92 34 7f
        E 768 82 34 00
        E 0 b2 0b 7f
        E 0 92 30 7f
        E 1152 82 30 00
        E 0 b2 0b 7f
        E 0 92 31 7f
        E 768 82 31 00
        E 0 b2 0b 7f
        E 0 92 30 7f
        E 1536 82 30 00
        E 0 b2 0b 7f
        E 0 92 3c 7f
        E 768 82 3c 00
        E 0 b2 0b 7f
        E 0 92 37 7f
        E 2304 82 37 00
        E 0 b2 0b 7f
        E 0 92 34 7f
        E 768 82 34 00
        E 0 b2 0b 7f
        E 0 92 30 7f
        E 1152 82 30 00
        E 0 b2 0b 7f
        E 0 92 31 7f
        E 768 82 31 00
        E 0 b2 0b 7f
        E 0 92 30 7f
        E 384 82 30 00
        E 0 ff 2f 00
      >
    >
  >
  <TRACK {7123BEFD-B8E7-45C7-8536-F0093075E70F}
    NAME "NES - Noise / Drums"
    PEAKCOL 11184810
    BEAT -1
    AUTOMODE 0
    PANLAWFLAGS 3
    VOLPAN 1 0 -1 -1 1
    MUTESOLO 0 0 0
    IPHASE 0
    PLAYOFFS 0 1
    ISBUS 0 0
    BUSCOMP 0 0 0 0 0
    SHOWINMIX 1 0.6667 0.5 1 0.5 0 0 0
    FIXEDLANES 9 0 0 0 0
    SEL 0
    REC 0 5088 1 0 0 0 0 0
    VU 2
    TRACKHEIGHT 0 0 0 0 0 0 0
    INQ 0 0 0 0.5 100 0 0 100
    NCHAN 2
    FX 1
    TRACKID {7123BEFD-B8E7-45C7-8536-F0093075E70F}
    PERF 0
    MIDIOUT -1
    MAINSEND 1 0
    <FXCHAIN
      WNDRECT 24 52 700 560
      SHOW 0
      LASTSEL 0
      DOCKED 0
      BYPASS 0 0 0
      <JS "ReapNES Studio/ReapNES_Console.jsfx" ""
        2 15 1 10 80 10 100 2 1 15 1 5 60 10 80 1 1 0 50 0 0 15 1 0 100 0 0 0.500000 0.500000 0.400000 0.300000 0.800000 3 1 0 0 0 0 - - - - - - - - - - - - - - - - - - - - - - - - - -
      >
      FLOATPOS 0 0 0 0
      FXID {DED29A4C-6E6B-4FB5-9255-D68242CAC12D}
      WAK 0 0
    >
  >
>