<REAPER_PROJECT 0.1 "7.27/win64" 1707000000
  <NOTES 0 2
    |ReapNES Studio Project
    |MIDI Import - Wizards_&_Warriors_16_Forest_of_Elrond_(alt)_v1
  >
  RIPPLE 0
  GROUPOVERRIDE 0 0 0
  AUTOXFADE 129
  ENVATTACH 3
  POOLEDENVATTACH 0
  MIXERUIFLAGS 11 48
  ENVFADESZ10 40
  PEAKGAIN 1
  FEEDBACK 0
  PANLAW 1
  PROJOFFS 0 0 0
  MAXPROJLEN 0 0
  GRID 3199 8 1 8 1 0 0 0
  TIMEMODE 1 5 -1 30 0 0 -1
  VIDEO_CONFIG 0 0 65792
  PANMODE 3
  PANLAWFLAGS 3
  CURSOR 0
  ZOOM 100 0 0
  VZOOMEX 6 0
  USE_REC_CFG 0
  RECMODE 1
  SMPTESYNC 0 30 100 40 1000 300 0 0 1 0 0
  LOOP 0
  LOOPGRAN 0 4
  RECORD_PATH "Media" ""
  <RECORD_CFG
    ZXZhdxgAAQ==
  >
  <APPLYFX_CFG
  >
  RENDER_FILE ""
  RENDER_PATTERN ""
  RENDER_FMT 0 2 0
  RENDER_1X 0
  RENDER_RANGE 1 0 0 18 1000
  RENDER_RESAMPLE 3 0 1
  RENDER_ADDTOPROJ 0
  RENDER_STEMS 0
  RENDER_DITHER 0
  TIMELOCKMODE 1
  TEMPOENVLOCKMODE 1
  ITEMMIX 1
  DEFPITCHMODE 589824 0
  TAKELANE 1
  SAMPLERATE 44100 0 0
  <RENDER_CFG
    ZXZhdxgAAQ==
  >
  LOCK 1
  <METRONOME 6 2
    VOL 0.25 0.125
    BEATLEN 4
    FREQ 1760 880 1
    SAMPLES "" ""
    SPLIGNORE 0 0
    SPLDEF 2 660 "" 0
    SPLDEF 3 440 "" 0
    PATTERN 0 169
    PATTERNSTR ABBB
    MULT 1
  >
  GLOBAL_AUTO -1
  TEMPO 128.59999614200012 4 4
  PLAYRATE 1 0 0.25 4
  SELECTION 0 0
  SELECTION2 0 0
  MASTERAUTOMODE 0
  MASTERTRACKHEIGHT 0 0
  MASTERPEAKCOL 16576
  MASTERMUTESOLO 0
  MASTERTRACKVIEW 0 0.6667 0.5 0.5 0 0 0 0 0 0 0 0 0 0
  MASTERHWOUT 0 0 1 0 0 0 0 -1
  MASTER_NCH 2 2
  MASTER_VOLUME 1 0 -1 -1 1
  MASTER_PANMODE 3
  MASTER_PANLAWFLAGS 3
  MASTER_FX 1
  MASTER_SEL 0
  <MASTERPLAYSPEEDENV
    EGUID {F364F7D7-A728-4BBE-8697-9E19B95C967A}
    ACT 0 -1
    VIS 0 1 1
    LANEHEIGHT 0 0
    ARM 0
    DEFSHAPE 0 -1 -1
  >
  <TEMPOENVEX
    EGUID {239FE3C4-B9C5-441C-9C76-E588CCE24620}
    ACT 1 -1
    VIS 1 0 1
    LANEHEIGHT 0 0
    ARM 0
    DEFSHAPE 1 -1 -1
  >
  <PROJBAY
  >
  <TRACK {4E5673F8-B5D4-4C3B-B325-C8D355931A3B}
    NAME "NES - Pulse 1"
    PEAKCOL 16576606
    BEAT -1
    AUTOMODE 0
    PANLAWFLAGS 3
    VOLPAN 1 0 -1 -1 1
    MUTESOLO 0 0 0
    IPHASE 0
    PLAYOFFS 0 1
    ISBUS 0 0
    BUSCOMP 0 0 0 0 0
    SHOWINMIX 1 0.6667 0.5 1 0.5 0 0 0
    FIXEDLANES 9 0 0 0 0
    SEL 1
    REC 1 5088 1 0 0 0 0 0
    VU 2
    TRACKHEIGHT 0 0 0 0 0 0 0
    INQ 0 0 0 0.5 100 0 0 100
    NCHAN 2
    FX 1
    TRACKID {4E5673F8-B5D4-4C3B-B325-C8D355931A3B}
    PERF 0
    MIDIOUT -1
    MAINSEND 1 0
    <FXCHAIN
      WNDRECT 24 52 700 560
      SHOW 0
      LASTSEL 0
      DOCKED 0
      BYPASS 0 0 0
      <JS "ReapNES Studio/ReapNES_Console.jsfx" ""
        2 15 1 10 80 10 100 2 1 15 1 5 60 10 80 1 1 0 50 0 0 15 1 0 100 0 0 0.500000 0.500000 0.400000 0.300000 0.800000 0 1 0 0 0 0 - - - - - - - - - - - - - - - - - - - - - - - - - -
      >
      FLOATPOS 0 0 0 0
      FXID {8B0C875B-A2ED-4CCF-AB4C-6A669F2C6C64}
      WAK 0 0
    >
  >
  <TRACK {8FD4C6FA-B206-4FBB-B61D-E8D6B65F2DA4}
    NAME "NES - Pulse 2 [ch1]"
    PEAKCOL 10092441
    BEAT -1
    AUTOMODE 0
    PANLAWFLAGS 3
    VOLPAN 1 0 -1 -1 1
    MUTESOLO 0 0 0
    IPHASE 0
    PLAYOFFS 0 1
    ISBUS 0 0
    BUSCOMP 0 0 0 0 0
    SHOWINMIX 1 0.6667 0.5 1 0.5 0 0 0
    FIXEDLANES 9 0 0 0 0
    SEL 0
    REC 0 5088 1 0 0 0 0 0
    VU 2
    TRACKHEIGHT 0 0 0 0 0 0 0
    INQ 0 0 0 0.5 100 0 0 100
    NCHAN 2
    FX 1
    TRACKID {8FD4C6FA-B206-4FBB-B61D-E8D6B65F2DA4}
    PERF 0
    MIDIOUT -1
    MAINSEND 1 0
    <FXCHAIN
      WNDRECT 24 52 700 560
      SHOW 0
      LASTSEL 0
      DOCKED 0
      BYPASS 0 0 0
      <JS "ReapNES Studio/ReapNES_Console.jsfx" ""
        2 15 1 10 80 10 100 2 1 15 1 5 60 10 80 1 1 0 50 0 0 15 1 0 100 0 0 0.500000 0.500000 0.400000 0.300000 0.800000 1 1 0 0 0 0 - - - - - - - - - - - - - - - - - - - - - - - - - -
      >
      FLOATPOS 0 0 0 0
      FXID {931A8E6C-0FA1-4CCF-8EDD-B65FCFCBC7FC}
      WAK 0 0
    >
    <ITEM
      POSITION 0
      LENGTH 83.98134
      LOOP 0
      ALLTAKES 0
      FADEIN 0 0 0 0 0 0 0
      FADEOUT 0 0 0 0 0 0 0
      MUTE 0 0
      SEL 0
      IGUID {489C8222-C75E-4220-A1CC-02CE925BB0F9}
      <SOURCE MIDI
        HASDATA 1 480 QN
        CCINTERP 32
        E 0 c1 51
        E 0 b1 0c 20
        E 0 b1 0b 20
        E 0 91 30 20
        E 192 81 30 00
        E 0 91 24 20
        E 576 81 24 00
        E 0 91 26 20
        E 192 81 26 00
        E 0 91 27 20
        E 576 81 27 00
        E 0 91 29 20
        E 768 81 29 00
        E 0 91 2a 20
        E 192 81 2a 00
        E 0 91 2b 20
        E 576 81 2b 00
        E 0 91 30 20
        E 192 81 30 00
        E 0 91 24 20
        E 576 81 24 00
        E 0 91 26 20
        E 192 81 26 00
        E 0 91 27 20
        E 576 81 27 00
        E 0 91 29 20
        E 768 81 29 00
        E 0 91 2a 20
        E 192 81 2a 00
        E 0 91 2b 20
        E 576 81 2b 00
        E 0 91 30 20
        E 192 81 30 00
        E 0 91 24 20
        E 576 81 24 00
        E 0 91 26 20
        E 192 81 26 00
        E 0 91 27 20
        E 576 81 27 00
        E 0 91 29 20
        E 768 81 29 00
        E 0 91 2a 20
        E 192 81 2a 00
        E 0 91 2b 20
        E 576 81 2b 00
        E 0 91 30 20
        E 192 81 30 00
        E 0 91 24 20
        E 576 81 24 00
        E 0 91 26 20
        E 192 81 26 00
        E 0 91 27 20
        E 576 81 27 00
        E 0 91 29 20
        E 768 81 29 00
        E 0 91 2a 20
        E 192 81 2a 00
        E 0 91 2b 20
        E 576 81 2b 00
        E 0 91 30 20
        E 192 81 30 00
        E 0 91 24 20
        E 576 81 24 00
        E 0 91 26 20
        E 192 81 26 00
        E 0 91 27 20
        E 576 81 27 00
        E 0 91 29 20
        E 768 81 29 00
        E 0 91 2a 20
        E 192 81 2a 00
        E 0 91 2b 20
        E 576 81 2b 00
        E 0 91 30 20
        E 192 81 30 00
        E 0 91 24 20
        E 576 81 24 00
        E 0 91 26 20
        E 192 81 26 00
        E 0 91 27 20
        E 576 81 27 00
        E 0 91 29 20
        E 768 81 29 00
        E 0 91 2a 20
        E 192 81 2a 00
        E 0 91 2b 20
        E 576 81 2b 00
        E 0 91 30 20
        E 192 81 30 00
        E 0 91 24 20
        E 576 81 24 00
        E 0 91 26 20
        E 192 81 26 00
        E 0 91 27 20
        E 576 81 27 00
        E 0 91 29 20
        E 768 81 29 00
        E 0 91 2a 20
        E 192 81 2a 00
        E 0 91 2b 20
        E 576 81 2b 00
        E 0 91 30 20
        E 192 81 30 00
        E 0 91 24 20
        E 576 81 24 00
        E 0 91 26 20
        E 192 81 26 00
        E 0 91 27 20
        E 576 81 27 00
        E 0 91 29 20
        E 768 81 29 00
        E 0 91 2a 20
        E 192 81 2a 00
        E 0 91 2b 20
        E 576 81 2b 00
        E 0 91 30 20
        E 192 81 30 00
        E 0 91 24 20
        E 576 81 24 00
        E 0 91 26 20
        E 192 81 26 00
        E 0 91 27 20
        E 576 81 27 00
        E 0 91 29 20
        E 768 81 29 00
        E 0 91 2a 20
        E 192 81 2a 00
        E 0 91 2b 20
        E 576 81 2b 00
        E 0 91 30 20
        E 192 81 30 00
        E 0 91 24 20
        E 576 81 24 00
        E 0 91 26 20
        E 192 81 26 00
        E 0 91 27 20
        E 576 81 27 00
        E 0 91 29 20
        E 768 81 29 00
        E 0 91 2a 20
        E 192 81 2a 00
        E 0 91 2b 20
        E 576 81 2b 00
        E 0 91 30 20
        E 192 81 30 00
        E 0 91 24 20
        E 576 81 24 00
        E 0 91 26 20
        E 192 81 26 00
        E 0 91 27 20
        E 576 81 27 00
        E 0 91 29 20
        E 768 81 29 00
        E 0 91 2a 20
        E 192 81 2a 00
        E 0 91 2b 20
        E 576 81 2b 00
        E 0 91 30 20
        E 192 81 30 00
        E 0 91 24 20
        E 576 81 24 00
        E 0 91 26 20
        E 192 81 26 00
        E 0 91 27 20
        E 576 81 27 00
        E 0 91 29 20
        E 768 81 29 00
        E 0 91 2a 20
        E 192 81 2a 00
        E 0 91 2b 20
        E 576 81 2b 00
        E 0 91 30 20
        E 192 81 30 00
        E 0 91 24 20
        E 576 81 24 00
        E 0 91 26 20
        E 192 81 26 00
        E 0 91 27 20
        E 576 81 27 00
        E 0 91 29 20
        E 768 81 29 00
        E 0 91 2a 20
        E 192 81 2a 00
        E 0 91 2b 20
        E 576 81 2b 00
        E 0 91 30 20
        E 192 81 30 00
        E 0 91 24 20
        E 576 81 24 00
        E 0 91 26 20
        E 192 81 26 00
        E 0 91 27 20
        E 576 81 27 00
        E 0 91 29 20
        E 768 81 29 00
        E 0 91 2a 20
        E 192 81 2a 00
        E 0 91 2b 20
        E 576 81 2b 00
        E 0 91 30 20
        E 192 81 30 00
        E 0 91 24 20
        E 576 81 24 00
        E 0 91 26 20
        E 192 81 26 00
        E 0 91 27 20
        E 576 81 27 00
        E 0 91 29 20
        E 768 81 29 00
        E 0 91 2a 20
        E 192 81 2a 00
        E 0 91 2b 20
        E 576 81 2b 00
        E 0 91 30 20
        E 192 81 30 00
        E 0 91 24 20
        E 576 81 24 00
        E 0 91 26 20
        E 192 81 26 00
        E 0 91 27 20
        E 576 81 27 00
        E 0 91 29 20
        E 768 81 29 00
        E 0 91 2a 20
        E 192 81 2a 00
        E 0 91 2b 20
        E 576 81 2b 00
        E 0 91 30 20
        E 192 81 30 00
        E 0 91 24 20
        E 576 81 24 00
        E 0 91 26 20
        E 192 81 26 00
        E 0 91 27 20
        E 576 81 27 00
        E 0 91 29 20
        E 768 81 29 00
        E 0 91 2a 20
        E 192 81 2a 00
        E 0 91 2b 20
        E 576 81 2b 00
        E 0 91 30 20
        E 192 81 30 00
        E 0 91 24 20
        E 576 81 24 00
        E 0 91 26 20
        E 192 81 26 00
        E 0 91 27 20
        E 576 81 27 00
        E 0 91 29 20
        E 768 81 29 00
        E 0 91 2a 20
        E 192 81 2a 00
        E 0 91 2b 20
        E 576 81 2b 00
        E 0 91 30 20
        E 192 81 30 00
        E 0 91 24 20
        E 576 81 24 00
        E 0 91 26 20
        E 192 81 26 00
        E 0 91 27 20
        E 576 81 27 00
        E 0 91 29 20
        E 768 81 29 00
        E 0 91 2a 20
        E 192 81 2a 00
        E 0 91 2b 20
        E 576 81 2b 00
        E 0 91 30 20
        E 192 81 30 00
        E 0 91 24 20
        E 576 81 24 00
        E 0 91 26 20
        E 192 81 26 00
        E 0 91 27 20
        E 576 81 27 00
        E 0 91 29 20
        E 768 81 29 00
        E 0 91 2a 20
        E 192 81 2a 00
        E 0 91 2b 20
        E 576 81 2b 00
        E 0 91 30 20
        E 192 81 30 00
        E 0 91 24 20
        E 576 81 24 00
        E 0 91 26 20
        E 192 81 26 00
        E 0 91 27 20
        E 576 81 27 00
        E 0 91 29 20
        E 768 81 29 00
        E 0 91 2a 20
        E 192 81 2a 00
        E 0 91 2b 20
        E 576 81 2b 00
        E 0 91 30 20
        E 192 81 30 00
        E 0 91 24 20
        E 576 81 24 00
        E 0 91 26 20
        E 192 81 26 00
        E 0 91 27 20
        E 576 81 27 00
        E 0 91 29 20
        E 768 81 29 00
        E 0 91 2a 20
        E 192 81 2a 00
        E 0 91 2b 20
        E 576 81 2b 00
        E 0 91 30 20
        E 192 81 30 00
        E 0 91 24 20
        E 576 81 24 00
        E 0 91 26 20
        E 192 81 26 00
        E 0 91 27 20
        E 576 81 27 00
        E 0 91 29 20
        E 768 81 29 00
        E 0 91 2a 20
        E 192 81 2a 00
        E 0 91 2b 20
        E 576 81 2b 00
        E 0 91 30 20
        E 192 81 30 00
        E 0 91 24 20
        E 576 81 24 00
        E 0 91 26 20
        E 192 81 26 00
        E 0 91 27 20
        E 576 81 27 00
        E 0 91 29 20
        E 768 81 29 00
        E 0 91 2a 20
        E 192 81 2a 00
        E 0 91 2b 20
        E 576 81 2b 00
        E 0 91 30 20
        E 192 81 30 00
        E 0 91 24 20
        E 576 81 24 00
        E 0 91 26 20
        E 192 81 26 00
        E 0 91 27 20
        E 576 81 27 00
        E 0 91 29 20
        E 768 81 29 00
        E 0 91 2a 20
        E 192 81 2a 00
        E 0 91 2b 20
        E 576 81 2b 00
        E 0 91 30 20
        E 192 81 30 00
        E 0 91 24 20
        E 576 81 24 00
        E 0 91 26 20
        E 192 81 26 00
        E 0 91 27 20
        E 576 81 27 00
        E 0 91 29 20
        E 768 81 29 00
        E 0 91 2a 20
        E 192 81 2a 00
        E 0 91 2b 20
        E 576 81 2b 00
        E 0 91 30 20
        E 192 81 30 00
        E 0 91 24 20
        E 576 81 24 00
        E 0 91 26 20
        E 192 81 26 00
        E 0 91 27 20
        E 576 81 27 00
        E 0 91 29 20
        E 768 81 29 00
        E 0 91 2a 20
        E 192 81 2a 00
        E 0 91 2b 20
        E 576 81 2b 00
        E 0 91 30 20
        E 192 81 30 00
        E 0 91 24 20
        E 576 81 24 00
        E 0 91 26 20
        E 192 81 26 00
        E 0 91 27 20
        E 576 81 27 00
        E 0 91 29 20
        E 768 81 29 00
        E 0 91 2a 20
        E 192 81 2a 00
        E 0 91 2b 20
        E 576 81 2b 00
        E 0 91 30 20
        E 192 81 30 00
        E 0 91 24 20
        E 192 81 24 00
        E 0 ff 2f 00
      >
    >
  >
  <TRACK {198CA3F8-8C6F-4E31-B91D-C936D4E88F13}
    NAME "NES - Triangle [ch2]"
    PEAKCOL 16744192
    BEAT -1
    AUTOMODE 0
    PANLAWFLAGS 3
    VOLPAN 1 0 -1 -1 1
    MUTESOLO 0 0 0
    IPHASE 0
    PLAYOFFS 0 1
    ISBUS 0 0
    BUSCOMP 0 0 0 0 0
    SHOWINMIX 1 0.6667 0.5 1 0.5 0 0 0
    FIXEDLANES 9 0 0 0 0
    SEL 0
    REC 0 5088 1 0 0 0 0 0
    VU 2
    TRACKHEIGHT 0 0 0 0 0 0 0
    INQ 0 0 0 0.5 100 0 0 100
    NCHAN 2
    FX 1
    TRACKID {198CA3F8-8C6F-4E31-B91D-C936D4E88F13}
    PERF 0
    MIDIOUT -1
    MAINSEND 1 0
    <FXCHAIN
      WNDRECT 24 52 700 560
      SHOW 0
      LASTSEL 0
      DOCKED 0
      BYPASS 0 0 0
      <JS "ReapNES Studio/ReapNES_Console.jsfx" ""
        2 15 1 10 80 10 100 2 1 15 1 5 60 10 80 1 1 0 50 0 0 15 1 0 100 0 0 0.500000 0.500000 0.400000 0.300000 0.800000 2 1 0 0 0 0 - - - - - - - - - - - - - - - - - - - - - - - - - -
      >
      FLOATPOS 0 0 0 0
      FXID {334A1EA1-B2B0-4367-BBD4-A9E37E788016}
      WAK 0 0
    >
    <ITEM
      POSITION 0
      LENGTH 83.98134
      LOOP 0
      ALLTAKES 0
      FADEIN 0 0 0 0 0 0 0
      FADEOUT 0 0 0 0 0 0 0
      MUTE 0 0
      SEL 0
      IGUID {278ECBDC-2A8B-4D1F-804F-590536534E93}
      <SOURCE MIDI
        HASDATA 1 480 QN
        CCINTERP 32
        E 0 c2 26
        E 0 b2 0b 7f
        E 0 92 24 7f
        E 192 82 24 00
        E 0 b2 0b 7f
        E 0 92 18 7f
        E 576 82 18 00
        E 0 b2 0b 7f
        E 0 92 1a 7f
        E 192 82 1a 00
        E 0 b2 0b 7f
        E 0 92 1b 7f
        E 576 82 1b 00
        E 0 b2 0b 7f
        E 0 92 1d 7f
        E 768 82 1d 00
        E 0 b2 0b 7f
        E 0 92 1e 7f
        E 192 82 1e 00
        E 0 b2 0b 7f
        E 0 92 1f 7f
        E 576 82 1f 00
        E 0 b2 0b 7f
        E 0 92 24 7f
        E 192 82 24 00
        E 0 b2 0b 7f
        E 0 92 18 7f
        E 576 82 18 00
        E 0 b2 0b 7f
        E 0 92 1a 7f
        E 192 82 1a 00
        E 0 b2 0b 7f
        E 0 92 1b 7f
        E 576 82 1b 00
        E 0 b2 0b 7f
        E 0 92 1d 7f
        E 768 82 1d 00
        E 0 b2 0b 7f
        E 0 92 1e 7f
        E 192 82 1e 00
        E 0 b2 0b 7f
        E 0 92 1f 7f
        E 576 82 1f 00
        E 0 b2 0b 7f
        E 0 92 24 7f
        E 192 82 24 00
        E 0 b2 0b 7f
        E 0 92 18 7f
        E 576 82 18 00
        E 0 b2 0b 7f
        E 0 92 1a 7f
        E 192 82 1a 00
        E 0 b2 0b 7f
        E 0 92 1b 7f
        E 576 82 1b 00
        E 0 b2 0b 7f
        E 0 92 1d 7f
        E 768 82 1d 00
        E 0 b2 0b 7f
        E 0 92 1e 7f
        E 192 82 1e 00
        E 0 b2 0b 7f
        E 0 92 1f 7f
        E 576 82 1f 00
        E 0 b2 0b 7f
        E 0 92 24 7f
        E 192 82 24 00
        E 0 b2 0b 7f
        E 0 92 18 7f
        E 576 82 18 00
        E 0 b2 0b 7f
        E 0 92 1a 7f
        E 192 82 1a 00
        E 0 b2 0b 7f
        E 0 92 1b 7f
        E 576 82 1b 00
        E 0 b2 0b 7f
        E 0 92 1d 7f
        E 768 82 1d 00
        E 0 b2 0b 7f
        E 0 92 1e 7f
        E 192 82 1e 00
        E 0 b2 0b 7f
        E 0 92 1f 7f
        E 576 82 1f 00
        E 0 b2 0b 7f
        E 0 92 24 7f
        E 192 82 24 00
        E 0 b2 0b 7f
        E 0 92 18 7f
        E 576 82 18 00
        E 0 b2 0b 7f
        E 0 92 1a 7f
        E 192 82 1a 00
        E 0 b2 0b 7f
        E 0 92 1b 7f
        E 576 82 1b 00
        E 0 b2 0b 7f
        E 0 92 1d 7f
        E 768 82 1d 00
        E 0 b2 0b 7f
        E 0 92 1e 7f
        E 192 82 1e 00
        E 0 b2 0b 7f
        E 0 92 1f 7f
        E 576 82 1f 00
        E 0 b2 0b 7f
        E 0 92 24 7f
        E 192 82 24 00
        E 0 b2 0b 7f
        E 0 92 18 7f
        E 576 82 18 00
        E 0 b2 0b 7f
        E 0 92 1a 7f
        E 192 82 1a 00
        E 0 b2 0b 7f
        E 0 92 1b 7f
        E 576 82 1b 00
        E 0 b2 0b 7f
        E 0 92 1d 7f
        E 768 82 1d 00
        E 0 b2 0b 7f
        E 0 92 1e 7f
        E 192 82 1e 00
        E 0 b2 0b 7f
        E 0 92 1f 7f
        E 576 82 1f 00
        E 0 b2 0b 7f
        E 0 92 24 7f
        E 192 82 24 00
        E 0 b2 0b 7f
        E 0 92 18 7f
        E 576 82 18 00
        E 0 b2 0b 7f
        E 0 92 1a 7f
        E 192 82 1a 00
        E 0 b2 0b 7f
        E 0 92 1b 7f
        E 576 82 1b 00
        E 0 b2 0b 7f
        E 0 92 1d 7f
        E 768 82 1d 00
        E 0 b2 0b 7f
        E 0 92 1e 7f
        E 192 82 1e 00
        E 0 b2 0b 7f
        E 0 92 1f 7f
        E 576 82 1f 00
        E 0 b2 0b 7f
        E 0 92 24 7f
        E 192 82 24 00
        E 0 b2 0b 7f
        E 0 92 18 7f
        E 576 82 18 00
        E 0 b2 0b 7f
        E 0 92 1a 7f
        E 192 82 1a 00
        E 0 b2 0b 7f
        E 0 92 1b 7f
        E 576 82 1b 00
        E 0 b2 0b 7f
        E 0 92 1d 7f
        E 768 82 1d 00
        E 0 b2 0b 7f
        E 0 92 1e 7f
        E 192 82 1e 00
        E 0 b2 0b 7f
        E 0 92 1f 7f
        E 576 82 1f 00
        E 0 b2 0b 7f
        E 0 92 24 7f
        E 192 82 24 00
        E 0 b2 0b 7f
        E 0 92 18 7f
        E 576 82 18 00
        E 0 b2 0b 7f
        E 0 92 1a 7f
        E 192 82 1a 00
        E 0 b2 0b 7f
        E 0 92 1b 7f
        E 576 82 1b 00
        E 0 b2 0b 7f
        E 0 92 1d 7f
        E 768 82 1d 00
        E 0 b2 0b 7f
        E 0 92 1e 7f
        E 192 82 1e 00
        E 0 b2 0b 7f
        E 0 92 1f 7f
        E 576 82 1f 00
        E 0 b2 0b 7f
        E 0 92 24 7f
        E 192 82 24 00
        E 0 b2 0b 7f
        E 0 92 18 7f
        E 576 82 18 00
        E 0 b2 0b 7f
        E 0 92 1a 7f
        E 192 82 1a 00
        E 0 b2 0b 7f
        E 0 92 1b 7f
        E 576 82 1b 00
        E 0 b2 0b 7f
        E 0 92 1d 7f
        E 768 82 1d 00
        E 0 b2 0b 7f
        E 0 92 1e 7f
        E 192 82 1e 00
        E 0 b2 0b 7f
        E 0 92 1f 7f
        E 576 82 1f 00
        E 0 b2 0b 7f
        E 0 92 24 7f
        E 192 82 24 00
        E 0 b2 0b 7f
        E 0 92 18 7f
        E 576 82 18 00
        E 0 b2 0b 7f
        E 0 92 1a 7f
        E 192 82 1a 00
        E 0 b2 0b 7f
        E 0 92 1b 7f
        E 576 82 1b 00
        E 0 b2 0b 7f
        E 0 92 1d 7f
        E 768 82 1d 00
        E 0 b2 0b 7f
        E 0 92 1e 7f
        E 192 82 1e 00
        E 0 b2 0b 7f
        E 0 92 1f 7f
        E 576 82 1f 00
        E 0 b2 0b 7f
        E 0 92 24 7f
        E 192 82 24 00
        E 0 b2 0b 7f
        E 0 92 18 7f
        E 576 82 18 00
        E 0 b2 0b 7f
        E 0 92 1a 7f
        E 192 82 1a 00
        E 0 b2 0b 7f
        E 0 92 1b 7f
        E 576 82 1b 00
        E 0 b2 0b 7f
        E 0 92 1d 7f
        E 768 82 1d 00
        E 0 b2 0b 7f
        E 0 92 1e 7f
        E 192 82 1e 00
        E 0 b2 0b 7f
        E 0 92 1f 7f
        E 576 82 1f 00
        E 0 b2 0b 7f
        E 0 92 24 7f
        E 192 82 24 00
        E 0 b2 0b 7f
        E 0 92 18 7f
        E 576 82 18 00
        E 0 b2 0b 7f
        E 0 92 1a 7f
        E 192 82 1a 00
        E 0 b2 0b 7f
        E 0 92 1b 7f
        E 576 82 1b 00
        E 0 b2 0b 7f
        E 0 92 1d 7f
        E 768 82 1d 00
        E 0 b2 0b 7f
        E 0 92 1e 7f
        E 192 82 1e 00
        E 0 b2 0b 7f
        E 0 92 1f 7f
        E 576 82 1f 00
        E 0 b2 0b 7f
        E 0 92 24 7f
        E 192 82 24 00
        E 0 b2 0b 7f
        E 0 92 18 7f
        E 576 82 18 00
        E 0 b2 0b 7f
        E 0 92 1a 7f
        E 192 82 1a 00
        E 0 b2 0b 7f
        E 0 92 1b 7f
        E 576 82 1b 00
        E 0 b2 0b 7f
        E 0 92 1d 7f
        E 768 82 1d 00
        E 0 b2 0b 7f
        E 0 92 1e 7f
        E 192 82 1e 00
        E 0 b2 0b 7f
        E 0 92 1f 7f
        E 576 82 1f 00
        E 0 b2 0b 7f
        E 0 92 24 7f
        E 192 82 24 00
        E 0 b2 0b 7f
        E 0 92 18 7f
        E 576 82 18 00
        E 0 b2 0b 7f
        E 0 92 1a 7f
        E 192 82 1a 00
        E 0 b2 0b 7f
        E 0 92 1b 7f
        E 576 82 1b 00
        E 0 b2 0b 7f
        E 0 92 1d 7f
        E 768 82 1d 00
        E 0 b2 0b 7f
        E 0 92 1e 7f
        E 192 82 1e 00
        E 0 b2 0b 7f
        E 0 92 1f 7f
        E 576 82 1f 00
        E 0 b2 0b 7f
        E 0 92 24 7f
        E 192 82 24 00
        E 0 b2 0b 7f
        E 0 92 18 7f
        E 576 82 18 00
        E 0 b2 0b 7f
        E 0 92 1a 7f
        E 192 82 1a 00
        E 0 b2 0b 7f
        E 0 92 1b 7f
        E 576 82 1b 00
        E 0 b2 0b 7f
        E 0 92 1d 7f
        E 768 82 1d 00
        E 0 b2 0b 7f
        E 0 92 1e 7f
        E 192 82 1e 00
        E 0 b2 0b 7f
        E 0 92 1f 7f
        E 576 82 1f 00
        E 0 b2 0b 7f
        E 0 92 24 7f
        E 192 82 24 00
        E 0 b2 0b 7f
        E 0 92 18 7f
        E 576 82 18 00
        E 0 b2 0b 7f
        E 0 92 1a 7f
        E 192 82 1a 00
        E 0 b2 0b 7f
        E 0 92 1b 7f
        E 576 82 1b 00
        E 0 b2 0b 7f
        E 0 92 1d 7f
        E 768 82 1d 00
        E 0 b2 0b 7f
        E 0 92 1e 7f
        E 192 82 1e 00
        E 0 b2 0b 7f
        E 0 92 1f 7f
        E 576 82 1f 00
        E 0 b2 0b 7f
        E 0 92 24 7f
        E 192 82 24 00
        E 0 b2 0b 7f
        E 0 92 18 7f
        E 576 82 18 00
        E 0 b2 0b 7f
        E 0 92 1a 7f
        E 192 82 1a 00
        E 0 b2 0b 7f
        E 0 92 1b 7f
        E 576 82 1b 00
        E 0 b2 0b 7f
        E 0 92 1d 7f
        E 768 82 1d 00
        E 0 b2 0b 7f
        E 0 92 1e 7f
        E 192 82 1e 00
        E 0 b2 0b 7f
        E 0 92 1f 7f
        E 576 82 1f 00
        E 0 b2 0b 7f
        E 0 92 24 7f
        E 192 82 24 00
        E 0 b2 0b 7f
        E 0 92 18 7f
        E 576 82 18 00
        E 0 b2 0b 7f
        E 0 92 1a 7f
        E 192 82 1a 00
        E 0 b2 0b 7f
        E 0 92 1b 7f
        E 576 82 1b 00
        E 0 b2 0b 7f
        E 0 92 1d 7f
        E 768 82 1d 00
        E 0 b2 0b 7f
        E 0 92 1e 7f
        E 192 82 1e 00
        E 0 b2 0b 7f
        E 0 92 1f 7f
        E 576 82 1f 00
        E 0 b2 0b 7f
        E 0 92 24 7f
        E 192 82 24 00
        E 0 b2 0b 7f
        E 0 92 18 7f
        E 576 82 18 00
        E 0 b2 0b 7f
        E 0 92 1a 7f
        E 192 82 1a 00
        E 0 b2 0b 7f
        E 0 92 1b 7f
        E 576 82 1b 00
        E 0 b2 0b 7f
        E 0 92 1d 7f
        E 768 82 1d 00
        E 0 b2 0b 7f
        E 0 92 1e 7f
        E 192 82 1e 00
        E 0 b2 0b 7f
        E 0 92 1f 7f
        E 576 82 1f 00
        E 0 b2 0b 7f
        E 0 92 24 7f
        E 192 82 24 00
        E 0 b2 0b 7f
        E 0 92 18 7f
        E 576 82 18 00
        E 0 b2 0b 7f
        E 0 92 1a 7f
        E 192 82 1a 00
        E 0 b2 0b 7f
        E 0 92 1b 7f
        E 576 82 1b 00
        E 0 b2 0b 7f
        E 0 92 1d 7f
        E 768 82 1d 00
        E 0 b2 0b 7f
        E 0 92 1e 7f
        E 192 82 1e 00
        E 0 b2 0b 7f
        E 0 92 1f 7f
        E 576 82 1f 00
        E 0 b2 0b 7f
        E 0 92 24 7f
        E 192 82 24 00
        E 0 b2 0b 7f
        E 0 92 18 7f
        E 576 82 18 00
        E 0 b2 0b 7f
        E 0 92 1a 7f
        E 192 82 1a 00
        E 0 b2 0b 7f
        E 0 92 1b 7f
        E 576 82 1b 00
        E 0 b2 0b 7f
        E 0 92 1d 7f
        E 768 82 1d 00
        E 0 b2 0b 7f
        E 0 92 1e 7f
        E 192 82 1e 00
        E 0 b2 0b 7f
        E 0 92 1f 7f
        E 576 82 1f 00
        E 0 b2 0b 7f
        E 0 92 24 7f
        E 192 82 24 00
        E 0 b2 0b 7f
        E 0 92 18 7f
        E 576 82 18 00
        E 0 b2 0b 7f
        E 0 92 1a 7f
        E 192 82 1a 00
        E 0 b2 0b 7f
        E 0 92 1b 7f
        E 576 82 1b 00
        E 0 b2 0b 7f
        E 0 92 1d 7f
        E 768 82 1d 00
        E 0 b2 0b 7f
        E 0 92 1e 7f
        E 192 82 1e 00
        E 0 b2 0b 7f
        E 0 92 1f 7f
        E 576 82 1f 00
        E 0 b2 0b 7f
        E 0 92 24 7f
        E 192 82 24 00
        E 0 b2 0b 7f
        E 0 92 18 7f
        E 576 82 18 00
        E 0 b2 0b 7f
        E 0 92 1a 7f
        E 192 82 1a 00
        E 0 b2 0b 7f
        E 0 92 1b 7f
        E 576 82 1b 00
        E 0 b2 0b 7f
        E 0 92 1d 7f
        E 768 82 1d 00
        E 0 b2 0b 7f
        E 0 92 1e 7f
        E 192 82 1e 00
        E 0 b2 0b 7f
        E 0 92 1f 7f
        E 576 82 1f 00
        E 0 b2 0b 7f
        E 0 92 24 7f
        E 192 82 24 00
        E 0 b2 0b 7f
        E 0 92 18 7f
        E 576 82 18 00
        E 0 b2 0b 7f
        E 0 92 1a 7f
        E 192 82 1a 00
        E 0 b2 0b 7f
        E 0 92 1b 7f
        E 576 82 1b 00
        E 0 b2 0b 7f
        E 0 92 1d 7f
        E 768 82 1d 00
        E 0 b2 0b 7f
        E 0 92 1e 7f
        E 192 82 1e 00
        E 0 b2 0b 7f
        E 0 92 1f 7f
        E 576 82 1f 00
        E 0 b2 0b 7f
        E 0 92 24 7f
        E 192 82 24 00
        E 0 b2 0b 7f
        E 0 92 18 7f
        E 576 82 18 00
        E 0 b2 0b 7f
        E 0 92 1a 7f
        E 192 82 1a 00
        E 0 b2 0b 7f
        E 0 92 1b 7f
        E 576 82 1b 00
        E 0 b2 0b 7f
        E 0 92 1d 7f
        E 768 82 1d 00
        E 0 b2 0b 7f
        E 0 92 1e 7f
        E 192 82 1e 00
        E 0 b2 0b 7f
        E 0 92 1f 7f
        E 576 82 1f 00
        E 0 b2 0b 7f
        E 0 92 24 7f
        E 192 82 24 00
        E 0 b2 0b 7f
        E 0 92 18 7f
        E 576 82 18 00
        E 0 b2 0b 7f
        E 0 92 1a 7f
        E 192 82 1a 00
        E 0 b2 0b 7f
        E 0 92 1b 7f
        E 576 82 1b 00
        E 0 b2 0b 7f
        E 0 92 1d 7f
        E 768 82 1d 00
        E 0 b2 0b 7f
        E 0 92 1e 7f
        E 192 82 1e 00
        E 0 b2 0b 7f
        E 0 92 1f 7f
        E 576 82 1f 00
        E 0 b2 0b 7f
        E 0 92 24 7f
        E 192 82 24 00
        E 0 b2 0b 7f
        E 0 92 18 7f
        E 576 82 18 00
        E 0 b2 0b 7f
        E 0 92 1a 7f
        E 192 82 1a 00
        E 0 b2 0b 7f
        E 0 92 1b 7f
        E 576 82 1b 00
        E 0 b2 0b 7f
        E 0 92 1d 7f
        E 768 82 1d 00
        E 0 b2 0b 7f
        E 0 92 1e 7f
        E 192 82 1e 00
        E 0 b2 0b 7f
        E 0 92 1f 7f
        E 576 82 1f 00
        E 0 b2 0b 7f
        E 0 92 24 7f
        E 192 82 24 00
        E 0 b2 0b 7f
        E 0 92 18 7f
        E 192 82 18 00
        E 0 ff 2f 00
      >
    >
  >
  <TRACK {16999A0D-058E-49F8-BD01-A285015E8826}
    NAME "NES - Noise / Drums [ch3]"
    PEAKCOL 11184810
    BEAT -1
    AUTOMODE 0
    PANLAWFLAGS 3
    VOLPAN 1 0 -1 -1 1
    MUTESOLO 0 0 0
    IPHASE 0
    PLAYOFFS 0 1
    ISBUS 0 0
    BUSCOMP 0 0 0 0 0
    SHOWINMIX 1 0.6667 0.5 1 0.5 0 0 0
    FIXEDLANES 9 0 0 0 0
    SEL 0
    REC 0 5088 1 0 0 0 0 0
    VU 2
    TRACKHEIGHT 0 0 0 0 0 0 0
    INQ 0 0 0 0.5 100 0 0 100
    NCHAN 2
    FX 1
    TRACKID {16999A0D-058E-49F8-BD01-A285015E8826}
    PERF 0
    MIDIOUT -1
    MAINSEND 1 0
    <FXCHAIN
      WNDRECT 24 52 700 560
      SHOW 0
      LASTSEL 0
      DOCKED 0
      BYPASS 0 0 0
      <JS "ReapNES Studio/ReapNES_Console.jsfx" ""
        2 15 1 10 80 10 100 2 1 15 1 5 60 10 80 1 1 0 50 0 0 15 1 0 100 0 0 0.500000 0.500000 0.400000 0.300000 0.800000 3 1 0 0 0 0 - - - - - - - - - - - - - - - - - - - - - - - - - -
      >
      FLOATPOS 0 0 0 0
      FXID {4A695383-AA92-4106-A04C-3D529FF42F1D}
      WAK 0 0
    >
    <ITEM
      POSITION 0
      LENGTH 83.98134
      LOOP 0
      ALLTAKES 0
      FADEIN 0 0 0 0 0 0 0
      FADEOUT 0 0 0 0 0 0 0
      MUTE 0 0
      SEL 0
      IGUID {0A6F22A5-4048-4504-8D4A-9CCBE2AB2112}
      <SOURCE MIDI
        HASDATA 1 480 QN
        CCINTERP 32
        E 0 93 24 10
        E 208 83 24 00
        E 16 83 24 00
        E 16 83 24 00
        E 16 83 24 00
        E 16 83 24 00
        E 16 83 24 00
        E 16 83 24 00
        E 16 83 24 00
        E 16 83 24 00
        E 16 83 24 00
        E 16 83 24 00
        E 16 83 24 00
        E 16 83 24 00
        E 16 83 24 00
        E 16 83 24 00
        E 16 83 24 00
        E 16 83 24 00
        E 16 83 24 00
        E 16 83 24 00
        E 16 83 24 00
        E 16 83 24 00
        E 16 83 24 00
        E 16 83 24 00
        E 16 83 24 00
        E 16 83 24 00
        E 16 83 24 00
        E 16 83 24 00
        E 16 83 24 00
        E 16 83 24 00
        E 16 83 24 00
        E 16 83 24 00
        E 16 83 24 00
        E 16 83 24 00
        E 16 83 24 00
        E 16 83 24 00
        E 16 83 24 00
        E 16 83 24 00
        E 16 83 24 00
        E 16 83 24 00
        E 16 83 24 00
        E 16 83 24 00
        E 16 83 24 00
        E 16 83 24 00
        E 16 83 24 00
        E 16 83 24 00
        E 16 83 24 00
        E 16 83 24 00
        E 16 83 24 00
        E 16 83 24 00
        E 16 83 24 00
        E 16 83 24 00
        E 16 83 24 00
        E 16 83 24 00
        E 16 83 24 00
        E 16 83 24 00
        E 16 83 24 00
        E 16 83 24 00
        E 16 83 24 00
        E 16 83 24 00
        E 16 83 24 00
        E 16 83 24 00
        E 16 83 24 00
        E 16 83 24 00
        E 16 83 24 00
        E 16 83 24 00
        E 16 83 24 00
        E 16 83 24 00
        E 16 83 24 00
        E 16 83 24 00
        E 16 83 24 00
        E 16 83 24 00
        E 16 83 24 00
        E 16 83 24 00
        E 16 83 24 00
        E 16 83 24 00
        E 16 83 24 00
        E 16 83 24 00
        E 16 83 24 00
        E 16 83 24 00
        E 16 83 24 00
        E 16 83 24 00
        E 16 83 24 00
        E 16 83 24 00
        E 16 83 24 00
        E 16 83 24 00
        E 16 83 24 00
        E 16 83 24 00
        E 16 83 24 00
        E 16 83 24 00
        E 16 83 24 00
        E 16 83 24 00
        E 16 83 24 00
        E 16 83 24 00
        E 16 83 24 00
        E 16 83 24 00
        E 16 83 24 00
        E 16 83 24 00
        E 16 83 24 00
        E 16 83 24 00
        E 16 83 24 00
        E 16 83 24 00
        E 16 83 24 00
        E 16 83 24 00
        E 16 83 24 00
        E 16 83 24 00
        E 16 83 24 00
        E 16 83 24 00
        E 16 83 24 00
        E 16 83 24 00
        E 16 83 24 00
        E 16 83 24 00
        E 16 83 24 00
        E 16 83 24 00
        E 16 83 24 00
        E 16 83 24 00
        E 16 83 24 00
        E 16 83 24 00
        E 16 83 24 00
        E 16 83 24 00
        E 16 83 24 00
        E 16 83 24 00
        E 16 83 24 00
        E 16 83 24 00
        E 16 83 24 00
        E 16 83 24 00
        E 16 83 24 00
        E 16 83 24 00
        E 16 83 24 00
        E 16 83 24 00
        E 16 83 24 00
        E 16 83 24 00
        E 16 83 24 00
        E 16 83 24 00
        E 16 83 24 00
        E 16 83 24 00
        E 16 83 24 00
        E 16 83 24 00
        E 16 83 24 00
        E 16 83 24 00
        E 16 83 24 00
        E 16 83 24 00
        E 16 83 24 00
        E 16 83 24 00
        E 16 83 24 00
        E 16 83 24 00
        E 16 83 24 00
        E 16 83 24 00
        E 16 83 24 00
        E 16 83 24 00
        E 16 83 24 00
        E 16 83 24 00
        E 16 83 24 00
        E 16 83 24 00
        E 16 83 24 00
        E 16 83 24 00
        E 16 83 24 00
        E 16 83 24 00
        E 16 83 24 00
        E 16 83 24 00
        E 16 83 24 00
        E 16 83 24 00
        E 16 83 24 00
        E 16 83 24 00
        E 16 83 24 00
        E 16 83 24 00
        E 16 83 24 00
        E 16 83 24 00
        E 16 83 24 00
        E 16 83 24 00
        E 16 83 24 00
        E 16 83 24 00
        E 16 83 24 00
        E 16 83 24 00
        E 16 83 24 00
        E 16 83 24 00
        E 16 83 24 00
        E 16 83 24 00
        E 16 83 24 00
        E 16 83 24 00
        E 16 83 24 00
        E 16 83 24 00
        E 16 83 24 00
        E 16 83 24 00
        E 16 83 24 00
        E 16 83 24 00
        E 16 83 24 00
        E 16 83 24 00
        E 16 83 24 00
        E 16 83 24 00
        E 16 83 24 00
        E 16 83 24 00
        E 16 83 24 00
        E 16 83 24 00
        E 16 83 24 00
        E 16 83 24 00
        E 16 83 24 00
        E 16 83 24 00
        E 16 83 24 00
        E 16 83 24 00
        E 16 83 24 00
        E 16 83 24 00
        E 16 83 24 00
        E 16 83 24 00
        E 16 83 24 00
        E 16 83 24 00
        E 16 83 24 00
        E 16 83 24 00
        E 16 83 24 00
        E 16 83 24 00
        E 16 83 24 00
        E 16 83 24 00
        E 16 83 24 00
        E 16 83 24 00
        E 16 83 24 00
        E 16 83 24 00
        E 16 83 24 00
        E 16 83 24 00
        E 16 83 24 00
        E 16 83 24 00
        E 16 83 24 00
        E 16 83 24 00
        E 16 83 24 00
        E 16 83 24 00
        E 16 83 24 00
        E 16 83 24 00
        E 16 83 24 00
        E 16 83 24 00
        E 16 83 24 00
        E 16 83 24 00
        E 16 83 24 00
        E 16 83 24 00
        E 16 83 24 00
        E 16 83 24 00
        E 16 83 24 00
        E 16 83 24 00
        E 16 83 24 00
        E 16 83 24 00
        E 16 83 24 00
        E 16 83 24 00
        E 16 83 24 00
        E 16 83 24 00
        E 16 83 24 00
        E 16 83 24 00
        E 16 83 24 00
        E 16 83 24 00
        E 16 83 24 00
        E 16 83 24 00
        E 16 83 24 00
        E 16 83 24 00
        E 16 83 24 00
        E 16 83 24 00
        E 16 83 24 00
        E 16 83 24 00
        E 16 83 24 00
        E 16 83 24 00
        E 16 83 24 00
        E 16 83 24 00
        E 16 83 24 00
        E 16 83 24 00
        E 16 83 24 00
        E 16 83 24 00
        E 16 83 24 00
        E 16 83 24 00
        E 16 83 24 00
        E 16 83 24 00
        E 16 83 24 00
        E 16 83 24 00
        E 16 83 24 00
        E 16 83 24 00
        E 16 83 24 00
        E 16 83 24 00
        E 16 83 24 00
        E 16 83 24 00
        E 16 83 24 00
        E 16 83 24 00
        E 16 83 24 00
        E 16 83 24 00
        E 16 83 24 00
        E 16 83 24 00
        E 16 83 24 00
        E 16 83 24 00
        E 16 83 24 00
        E 16 83 24 00
        E 16 83 24 00
        E 16 83 24 00
        E 16 83 24 00
        E 16 83 24 00
        E 16 83 24 00
        E 16 83 24 00
        E 16 83 24 00
        E 16 83 24 00
        E 16 83 24 00
        E 16 83 24 00
        E 16 83 24 00
        E 16 83 24 00
        E 16 83 24 00
        E 16 83 24 00
        E 16 83 24 00
        E 16 83 24 00
        E 16 83 24 00
        E 16 83 24 00
        E 16 83 24 00
        E 16 83 24 00
        E 16 83 24 00
        E 16 83 24 00
        E 16 83 24 00
        E 16 83 24 00
        E 16 83 24 00
        E 16 83 24 00
        E 16 83 24 00
        E 16 83 24 00
        E 16 83 24 00
        E 16 83 24 00
        E 16 83 24 00
        E 16 83 24 00
        E 16 83 24 00
        E 16 83 24 00
        E 16 83 24 00
        E 16 83 24 00
        E 16 83 24 00
        E 16 83 24 00
        E 16 83 24 00
        E 16 83 24 00
        E 16 83 24 00
        E 16 83 24 00
        E 16 83 24 00
        E 16 83 24 00
        E 16 83 24 00
        E 16 83 24 00
        E 16 83 24 00
        E 16 83 24 00
        E 16 83 24 00
        E 16 83 24 00
        E 16 83 24 00
        E 16 83 24 00
        E 16 83 24 00
        E 16 83 24 00
        E 16 83 24 00
        E 16 83 24 00
        E 16 83 24 00
        E 16 83 24 00
        E 16 83 24 00
        E 16 83 24 00
        E 16 83 24 00
        E 16 83 24 00
        E 16 83 24 00
        E 16 83 24 00
        E 16 83 24 00
        E 16 83 24 00
        E 16 83 24 00
        E 16 83 24 00
        E 16 83 24 00
        E 16 83 24 00
        E 16 83 24 00
        E 16 83 24 00
        E 16 83 24 00
        E 16 83 24 00
        E 16 83 24 00
        E 16 83 24 00
        E 16 83 24 00
        E 16 83 24 00
        E 16 83 24 00
        E 16 83 24 00
        E 16 83 24 00
        E 16 83 24 00
        E 16 83 24 00
        E 16 83 24 00
        E 16 83 24 00
        E 16 83 24 00
        E 16 83 24 00
        E 16 83 24 00
        E 16 83 24 00
        E 16 83 24 00
        E 16 83 24 00
        E 16 83 24 00
        E 16 83 24 00
        E 16 83 24 00
        E 16 83 24 00
        E 16 83 24 00
        E 16 83 24 00
        E 16 83 24 00
        E 16 83 24 00
        E 16 83 24 00
        E 16 83 24 00
        E 16 83 24 00
        E 16 83 24 00
        E 16 83 24 00
        E 16 83 24 00
        E 16 83 24 00
        E 16 83 24 00
        E 16 83 24 00
        E 16 83 24 00
        E 16 83 24 00
        E 16 83 24 00
        E 16 83 24 00
        E 16 83 24 00
        E 16 83 24 00
        E 16 83 24 00
        E 16 83 24 00
        E 16 83 24 00
        E 16 83 24 00
        E 16 83 24 00
        E 16 83 24 00
        E 16 83 24 00
        E 16 83 24 00
        E 16 83 24 00
        E 16 83 24 00
        E 16 83 24 00
        E 16 83 24 00
        E 16 83 24 00
        E 16 83 24 00
        E 16 83 24 00
        E 16 83 24 00
        E 16 83 24 00
        E 16 83 24 00
        E 16 83 24 00
        E 16 83 24 00
        E 16 83 24 00
        E 16 83 24 00
        E 16 83 24 00
        E 16 83 24 00
        E 16 83 24 00
        E 16 83 24 00
        E 16 83 24 00
        E 16 83 24 00
        E 16 83 24 00
        E 16 83 24 00
        E 16 83 24 00
        E 16 83 24 00
        E 16 83 24 00
        E 16 83 24 00
        E 16 83 24 00
        E 16 83 24 00
        E 16 83 24 00
        E 16 83 24 00
        E 16 83 24 00
        E 16 83 24 00
        E 16 83 24 00
        E 16 83 24 00
        E 16 83 24 00
        E 16 83 24 00
        E 16 83 24 00
        E 16 83 24 00
        E 16 83 24 00
        E 16 83 24 00
        E 16 83 24 00
        E 16 83 24 00
        E 16 83 24 00
        E 16 83 24 00
        E 16 83 24 00
        E 16 83 24 00
        E 16 83 24 00
        E 16 83 24 00
        E 16 83 24 00
        E 16 83 24 00
        E 16 83 24 00
        E 16 83 24 00
        E 16 83 24 00
        E 16 83 24 00
        E 16 83 24 00
        E 16 83 24 00
        E 16 83 24 00
        E 16 83 24 00
        E 16 83 24 00
        E 16 83 24 00
        E 16 83 24 00
        E 16 83 24 00
        E 16 83 24 00
        E 16 83 24 00
        E 16 83 24 00
        E 16 83 24 00
        E 16 83 24 00
        E 16 83 24 00
        E 16 83 24 00
        E 16 83 24 00
        E 16 83 24 00
        E 16 83 24 00
        E 16 83 24 00
        E 16 83 24 00
        E 16 83 24 00
        E 16 83 24 00
        E 16 83 24 00
        E 16 83 24 00
        E 16 83 24 00
        E 16 83 24 00
        E 16 83 24 00
        E 16 83 24 00
        E 16 83 24 00
        E 16 83 24 00
        E 16 83 24 00
        E 16 83 24 00
        E 16 83 24 00
        E 16 83 24 00
        E 16 83 24 00
        E 16 83 24 00
        E 16 83 24 00
        E 16 83 24 00
        E 16 83 24 00
        E 16 83 24 00
        E 16 83 24 00
        E 16 83 24 00
        E 16 83 24 00
        E 16 83 24 00
        E 16 83 24 00
        E 16 83 24 00
        E 16 83 24 00
        E 16 83 24 00
        E 16 83 24 00
        E 16 83 24 00
        E 16 83 24 00
        E 16 83 24 00
        E 16 83 24 00
        E 16 83 24 00
        E 16 83 24 00
        E 16 83 24 00
        E 16 83 24 00
        E 16 83 24 00
        E 16 83 24 00
        E 16 83 24 00
        E 16 83 24 00
        E 16 83 24 00
        E 16 83 24 00
        E 16 83 24 00
        E 16 83 24 00
        E 16 83 24 00
        E 16 83 24 00
        E 16 83 24 00
        E 16 83 24 00
        E 16 83 24 00
        E 16 83 24 00
        E 16 83 24 00
        E 16 83 24 00
        E 16 83 24 00
        E 16 83 24 00
        E 16 83 24 00
        E 16 83 24 00
        E 16 83 24 00
        E 16 83 24 00
        E 16 83 24 00
        E 16 83 24 00
        E 16 83 24 00
        E 16 83 24 00
        E 16 83 24 00
        E 16 83 24 00
        E 16 83 24 00
        E 16 83 24 00
        E 16 83 24 00
        E 16 83 24 00
        E 16 83 24 00
        E 16 83 24 00
        E 16 83 24 00
        E 16 83 24 00
        E 16 83 24 00
        E 16 83 24 00
        E 16 83 24 00
        E 16 83 24 00
        E 16 83 24 00
        E 16 83 24 00
        E 16 83 24 00
        E 16 83 24 00
        E 16 83 24 00
        E 16 83 24 00
        E 16 83 24 00
        E 16 83 24 00
        E 16 83 24 00
        E 16 83 24 00
        E 16 83 24 00
        E 16 83 24 00
        E 16 83 24 00
        E 16 83 24 00
        E 16 83 24 00
        E 16 83 24 00
        E 16 83 24 00
        E 16 83 24 00
        E 16 83 24 00
        E 16 83 24 00
        E 16 83 24 00
        E 16 83 24 00
        E 16 83 24 00
        E 16 83 24 00
        E 16 83 24 00
        E 16 83 24 00
        E 16 83 24 00
        E 16 83 24 00
        E 16 83 24 00
        E 16 83 24 00
        E 16 83 24 00
        E 16 83 24 00
        E 16 83 24 00
        E 16 83 24 00
        E 16 83 24 00
        E 16 83 24 00
        E 16 83 24 00
        E 16 83 24 00
        E 16 83 24 00
        E 16 83 24 00
        E 16 83 24 00
        E 16 83 24 00
        E 16 83 24 00
        E 16 83 24 00
        E 16 83 24 00
        E 16 83 24 00
        E 16 83 24 00
        E 16 83 24 00
        E 16 83 24 00
        E 16 83 24 00
        E 16 83 24 00
        E 16 83 24 00
        E 16 83 24 00
        E 16 83 24 00
        E 16 83 24 00
        E 16 83 24 00
        E 16 83 24 00
        E 16 83 24 00
        E 16 83 24 00
        E 16 83 24 00
        E 16 83 24 00
        E 16 83 24 00
        E 16 83 24 00
        E 16 83 24 00
        E 16 83 24 00
        E 16 83 24 00
        E 16 83 24 00
        E 16 83 24 00
        E 16 83 24 00
        E 16 83 24 00
        E 16 83 24 00
        E 16 83 24 00
        E 16 83 24 00
        E 16 83 24 00
        E 16 83 24 00
        E 16 83 24 00
        E 16 83 24 00
        E 16 83 24 00
        E 16 83 24 00
        E 16 83 24 00
        E 16 83 24 00
        E 16 83 24 00
        E 16 83 24 00
        E 16 83 24 00
        E 16 83 24 00
        E 16 83 24 00
        E 16 83 24 00
        E 16 83 24 00
        E 16 83 24 00
        E 16 83 24 00
        E 16 83 24 00
        E 16 83 24 00
        E 16 83 24 00
        E 16 83 24 00
        E 16 83 24 00
        E 16 83 24 00
        E 16 83 24 00
        E 16 83 24 00
        E 16 83 24 00
        E 16 83 24 00
        E 16 83 24 00
        E 16 83 24 00
        E 16 83 24 00
        E 16 83 24 00
        E 16 83 24 00
        E 16 83 24 00
        E 16 83 24 00
        E 16 83 24 00
        E 16 83 24 00
        E 16 83 24 00
        E 16 83 24 00
        E 16 83 24 00
        E 16 83 24 00
        E 16 83 24 00
        E 16 83 24 00
        E 16 83 24 00
        E 16 83 24 00
        E 16 83 24 00
        E 16 83 24 00
        E 16 83 24 00
        E 16 83 24 00
        E 16 83 24 00
        E 16 83 24 00
        E 16 83 24 00
        E 16 83 24 00
        E 16 83 24 00
        E 16 83 24 00
        E 16 83 24 00
        E 16 83 24 00
        E 16 83 24 00
        E 16 83 24 00
        E 16 83 24 00
        E 16 83 24 00
        E 16 83 24 00
        E 16 83 24 00
        E 16 83 24 00
        E 16 83 24 00
        E 16 83 24 00
        E 16 83 24 00
        E 16 83 24 00
        E 16 83 24 00
        E 16 83 24 00
        E 16 83 24 00
        E 16 83 24 00
        E 16 83 24 00
        E 16 83 24 00
        E 16 83 24 00
        E 16 83 24 00
        E 16 83 24 00
        E 16 83 24 00
        E 16 83 24 00
        E 16 83 24 00
        E 16 83 24 00
        E 16 83 24 00
        E 16 83 24 00
        E 16 83 24 00
        E 16 83 24 00
        E 16 83 24 00
        E 16 83 24 00
        E 16 83 24 00
        E 16 83 24 00
        E 16 83 24 00
        E 16 83 24 00
        E 16 83 24 00
        E 16 83 24 00
        E 16 83 24 00
        E 16 83 24 00
        E 16 83 24 00
        E 16 83 24 00
        E 16 83 24 00
        E 16 83 24 00
        E 16 83 24 00
        E 16 83 24 00
        E 16 83 24 00
        E 16 83 24 00
        E 16 83 24 00
        E 16 83 24 00
        E 16 83 24 00
        E 16 83 24 00
        E 16 83 24 00
        E 16 83 24 00
        E 16 83 24 00
        E 16 83 24 00
        E 16 83 24 00
        E 16 83 24 00
        E 16 83 24 00
        E 16 83 24 00
        E 16 83 24 00
        E 16 83 24 00
        E 16 83 24 00
        E 16 83 24 00
        E 16 83 24 00
        E 16 83 24 00
        E 16 83 24 00
        E 16 83 24 00
        E 16 83 24 00
        E 16 83 24 00
        E 16 83 24 00
        E 16 83 24 00
        E 16 83 24 00
        E 16 83 24 00
        E 16 83 24 00
        E 16 83 24 00
        E 16 83 24 00
        E 16 83 24 00
        E 16 83 24 00
        E 16 83 24 00
        E 16 83 24 00
        E 16 83 24 00
        E 16 83 24 00
        E 16 83 24 00
        E 16 83 24 00
        E 16 83 24 00
        E 16 83 24 00
        E 16 83 24 00
        E 16 83 24 00
        E 16 83 24 00
        E 16 83 24 00
        E 16 83 24 00
        E 16 83 24 00
        E 16 83 24 00
        E 16 83 24 00
        E 16 83 24 00
        E 16 83 24 00
        E 16 83 24 00
        E 16 83 24 00
        E 16 83 24 00
        E 16 83 24 00
        E 16 83 24 00
        E 16 83 24 00
        E 16 83 24 00
        E 16 83 24 00
        E 16 83 24 00
        E 16 83 24 00
        E 16 83 24 00
        E 16 83 24 00
        E 16 83 24 00
        E 16 83 24 00
        E 16 83 24 00
        E 16 83 24 00
        E 16 83 24 00
        E 16 83 24 00
        E 16 83 24 00
        E 16 83 24 00
        E 16 83 24 00
        E 16 83 24 00
        E 16 83 24 00
        E 16 83 24 00
        E 16 83 24 00
        E 16 83 24 00
        E 16 83 24 00
        E 16 83 24 00
        E 16 83 24 00
        E 16 83 24 00
        E 16 83 24 00
        E 16 83 24 00
        E 16 83 24 00
        E 16 83 24 00
        E 16 83 24 00
        E 16 83 24 00
        E 16 83 24 00
        E 16 83 24 00
        E 16 83 24 00
        E 16 83 24 00
        E 16 83 24 00
        E 16 83 24 00
        E 16 83 24 00
        E 16 83 24 00
        E 16 83 24 00
        E 16 83 24 00
        E 16 83 24 00
        E 16 83 24 00
        E 16 83 24 00
        E 16 83 24 00
        E 16 83 24 00
        E 16 83 24 00
        E 16 83 24 00
        E 16 83 24 00
        E 16 83 24 00
        E 16 83 24 00
        E 16 83 24 00
        E 16 83 24 00
        E 16 83 24 00
        E 16 83 24 00
        E 16 83 24 00
        E 16 83 24 00
        E 16 83 24 00
        E 16 83 24 00
        E 16 83 24 00
        E 16 83 24 00
        E 16 83 24 00
        E 16 83 24 00
        E 16 83 24 00
        E 16 83 24 00
        E 16 83 24 00
        E 16 83 24 00
        E 16 83 24 00
        E 16 83 24 00
        E 16 83 24 00
        E 16 83 24 00
        E 16 83 24 00
        E 16 83 24 00
        E 16 83 24 00
        E 16 83 24 00
        E 16 83 24 00
        E 16 83 24 00
        E 16 83 24 00
        E 16 83 24 00
        E 16 83 24 00
        E 16 83 24 00
        E 16 83 24 00
        E 16 83 24 00
        E 16 83 24 00
        E 16 83 24 00
        E 16 83 24 00
        E 16 83 24 00
        E 16 83 24 00
        E 16 83 24 00
        E 16 83 24 00
        E 16 83 24 00
        E 16 83 24 00
        E 16 83 24 00
        E 16 83 24 00
        E 16 83 24 00
        E 16 83 24 00
        E 16 83 24 00
        E 16 83 24 00
        E 16 83 24 00
        E 16 83 24 00
        E 16 83 24 00
        E 16 83 24 00
        E 16 83 24 00
        E 16 83 24 00
        E 16 83 24 00
        E 16 83 24 00
        E 16 83 24 00
        E 16 83 24 00
        E 16 83 24 00
        E 16 83 24 00
        E 16 83 24 00
        E 16 83 24 00
        E 16 83 24 00
        E 16 83 24 00
        E 16 83 24 00
        E 16 83 24 00
        E 16 83 24 00
        E 16 83 24 00
        E 16 83 24 00
        E 16 83 24 00
        E 16 83 24 00
        E 16 83 24 00
        E 16 83 24 00
        E 16 83 24 00
        E 16 83 24 00
        E 16 83 24 00
        E 16 83 24 00
        E 16 83 24 00
        E 16 83 24 00
        E 16 83 24 00
        E 16 83 24 00
        E 16 83 24 00
        E 16 83 24 00
        E 16 83 24 00
        E 16 83 24 00
        E 16 83 24 00
        E 16 83 24 00
        E 16 83 24 00
        E 16 83 24 00
        E 16 83 24 00
        E 16 83 24 00
        E 16 83 24 00
        E 16 83 24 00
        E 16 83 24 00
        E 16 83 24 00
        E 16 83 24 00
        E 16 83 24 00
        E 16 83 24 00
        E 16 83 24 00
        E 16 83 24 00
        E 16 83 24 00
        E 16 83 24 00
        E 16 83 24 00
        E 16 83 24 00
        E 16 83 24 00
        E 16 83 24 00
        E 16 83 24 00
        E 16 83 24 00
        E 16 83 24 00
        E 16 83 24 00
        E 16 83 24 00
        E 16 83 24 00
        E 16 83 24 00
        E 16 83 24 00
        E 16 83 24 00
        E 16 83 24 00
        E 16 83 24 00
        E 16 83 24 00
        E 16 83 24 00
        E 16 83 24 00
        E 16 83 24 00
        E 16 83 24 00
        E 16 83 24 00
        E 16 83 24 00
        E 16 83 24 00
        E 16 83 24 00
        E 16 83 24 00
        E 16 83 24 00
        E 16 83 24 00
        E 16 83 24 00
        E 16 83 24 00
        E 16 83 24 00
        E 16 83 24 00
        E 16 83 24 00
        E 16 83 24 00
        E 16 83 24 00
        E 16 83 24 00
        E 16 83 24 00
        E 16 83 24 00
        E 16 83 24 00
        E 16 83 24 00
        E 16 83 24 00
        E 16 83 24 00
        E 16 83 24 00
        E 16 83 24 00
        E 16 83 24 00
        E 16 83 24 00
        E 16 83 24 00
        E 16 83 24 00
        E 16 83 24 00
        E 16 83 24 00
        E 16 83 24 00
        E 16 83 24 00
        E 16 83 24 00
        E 16 83 24 00
        E 16 83 24 00
        E 16 83 24 00
        E 16 83 24 00
        E 16 83 24 00
        E 16 83 24 00
        E 16 83 24 00
        E 16 83 24 00
        E 16 83 24 00
        E 16 83 24 00
        E 16 83 24 00
        E 16 83 24 00
        E 16 83 24 00
        E 16 83 24 00
        E 16 83 24 00
        E 16 83 24 00
        E 16 83 24 00
        E 16 83 24 00
        E 16 83 24 00
        E 16 83 24 00
        E 16 83 24 00
        E 16 83 24 00
        E 16 83 24 00
        E 16 83 24 00
        E 16 83 24 00
        E 16 83 24 00
        E 16 83 24 00
        E 16 83 24 00
        E 16 83 24 00
        E 16 83 24 00
        E 16 83 24 00
        E 16 83 24 00
        E 16 83 24 00
        E 16 83 24 00
        E 16 83 24 00
        E 16 83 24 00
        E 16 83 24 00
        E 16 83 24 00
        E 16 83 24 00
        E 16 83 24 00
        E 16 83 24 00
        E 16 83 24 00
        E 16 83 24 00
        E 16 83 24 00
        E 16 83 24 00
        E 16 83 24 00
        E 16 83 24 00
        E 16 83 24 00
        E 16 83 24 00
        E 16 83 24 00
        E 16 83 24 00
        E 16 83 24 00
        E 16 83 24 00
        E 16 83 24 00
        E 16 83 24 00
        E 16 83 24 00
        E 16 83 24 00
        E 16 83 24 00
        E 16 83 24 00
        E 16 83 24 00
        E 16 83 24 00
        E 16 83 24 00
        E 16 83 24 00
        E 16 83 24 00
        E 16 83 24 00
        E 16 83 24 00
        E 16 83 24 00
        E 16 83 24 00
        E 16 83 24 00
        E 16 83 24 00
        E 16 83 24 00
        E 16 83 24 00
        E 16 83 24 00
        E 16 83 24 00
        E 16 83 24 00
        E 16 83 24 00
        E 16 83 24 00
        E 16 83 24 00
        E 16 83 24 00
        E 16 83 24 00
        E 16 83 24 00
        E 16 83 24 00
        E 16 83 24 00
        E 16 83 24 00
        E 16 83 24 00
        E 16 83 24 00
        E 16 83 24 00
        E 16 83 24 00
        E 16 83 24 00
        E 16 83 24 00
        E 16 83 24 00
        E 16 83 24 00
        E 16 83 24 00
        E 16 83 24 00
        E 16 83 24 00
        E 16 83 24 00
        E 16 83 24 00
        E 16 83 24 00
        E 16 83 24 00
        E 16 83 24 00
        E 16 83 24 00
        E 16 83 24 00
        E 16 83 24 00
        E 16 83 24 00
        E 16 83 24 00
        E 16 83 24 00
        E 16 83 24 00
        E 16 83 24 00
        E 16 83 24 00
        E 16 83 24 00
        E 16 83 24 00
        E 16 83 24 00
        E 16 83 24 00
        E 16 83 24 00
        E 16 83 24 00
        E 16 83 24 00
        E 16 83 24 00
        E 16 83 24 00
        E 16 83 24 00
        E 16 83 24 00
        E 16 83 24 00
        E 16 83 24 00
        E 16 83 24 00
        E 16 83 24 00
        E 16 83 24 00
        E 16 83 24 00
        E 16 83 24 00
        E 16 83 24 00
        E 16 83 24 00
        E 16 83 24 00
        E 16 83 24 00
        E 16 83 24 00
        E 16 83 24 00
        E 16 83 24 00
        E 16 83 24 00
        E 16 83 24 00
        E 16 83 24 00
        E 16 83 24 00
        E 16 83 24 00
        E 16 83 24 00
        E 16 83 24 00
        E 16 83 24 00
        E 16 83 24 00
        E 16 83 24 00
        E 16 83 24 00
        E 16 83 24 00
        E 16 83 24 00
        E 16 83 24 00
        E 16 83 24 00
        E 16 83 24 00
        E 16 83 24 00
        E 16 83 24 00
        E 16 83 24 00
        E 16 83 24 00
        E 16 83 24 00
        E 16 83 24 00
        E 16 83 24 00
        E 16 83 24 00
        E 16 83 24 00
        E 16 83 24 00
        E 16 83 24 00
        E 16 83 24 00
        E 16 83 24 00
        E 16 83 24 00
        E 16 83 24 00
        E 16 83 24 00
        E 16 83 24 00
        E 16 83 24 00
        E 16 83 24 00
        E 16 83 24 00
        E 16 83 24 00
        E 16 83 24 00
        E 16 83 24 00
        E 16 83 24 00
        E 16 83 24 00
        E 16 83 24 00
        E 16 83 24 00
        E 16 83 24 00
        E 16 83 24 00
        E 16 83 24 00
        E 16 83 24 00
        E 16 83 24 00
        E 16 83 24 00
        E 16 83 24 00
        E 16 83 24 00
        E 16 83 24 00
        E 16 83 24 00
        E 16 83 24 00
        E 16 83 24 00
        E 16 83 24 00
        E 16 83 24 00
        E 16 83 24 00
        E 16 83 24 00
        E 16 83 24 00
        E 16 83 24 00
        E 16 83 24 00
        E 16 83 24 00
        E 16 83 24 00
        E 16 83 24 00
        E 16 83 24 00
        E 16 83 24 00
        E 16 83 24 00
        E 16 83 24 00
        E 16 83 24 00
        E 16 83 24 00
        E 16 83 24 00
        E 16 83 24 00
        E 16 83 24 00
        E 16 83 24 00
        E 16 83 24 00
        E 16 83 24 00
        E 16 83 24 00
        E 16 83 24 00
        E 16 83 24 00
        E 16 83 24 00
        E 16 83 24 00
        E 16 83 24 00
        E 16 83 24 00
        E 16 83 24 00
        E 16 83 24 00
        E 16 83 24 00
        E 16 83 24 00
        E 16 83 24 00
        E 16 83 24 00
        E 16 83 24 00
        E 16 83 24 00
        E 16 83 24 00
        E 16 83 24 00
        E 16 83 24 00
        E 16 83 24 00
        E 16 83 24 00
        E 16 83 24 00
        E 16 83 24 00
        E 16 83 24 00
        E 16 83 24 00
        E 16 83 24 00
        E 16 83 24 00
        E 16 83 24 00
        E 16 83 24 00
        E 16 83 24 00
        E 16 83 24 00
        E 16 83 24 00
        E 16 83 24 00
        E 16 83 24 00
        E 16 83 24 00
        E 16 83 24 00
        E 16 83 24 00
        E 16 83 24 00
        E 16 83 24 00
        E 16 83 24 00
        E 16 83 24 00
        E 16 83 24 00
        E 16 83 24 00
        E 16 83 24 00
        E 16 83 24 00
        E 16 83 24 00
        E 16 83 24 00
        E 16 83 24 00
        E 16 83 24 00
        E 16 83 24 00
        E 16 83 24 00
        E 16 83 24 00
        E 16 83 24 00
        E 16 83 24 00
        E 16 83 24 00
        E 16 83 24 00
        E 16 83 24 00
        E 16 83 24 00
        E 16 83 24 00
        E 16 83 24 00
        E 16 83 24 00
        E 16 83 24 00
        E 16 83 24 00
        E 16 83 24 00
        E 16 83 24 00
        E 16 83 24 00
        E 16 83 24 00
        E 16 83 24 00
        E 16 83 24 00
        E 16 83 24 00
        E 16 83 24 00
        E 16 83 24 00
        E 16 83 24 00
        E 16 83 24 00
        E 16 83 24 00
        E 16 83 24 00
        E 16 83 24 00
        E 16 83 24 00
        E 16 83 24 00
        E 16 83 24 00
        E 16 83 24 00
        E 16 83 24 00
        E 16 83 24 00
        E 16 83 24 00
        E 16 83 24 00
        E 16 83 24 00
        E 16 83 24 00
        E 16 83 24 00
        E 16 83 24 00
        E 16 83 24 00
        E 16 83 24 00
        E 16 83 24 00
        E 16 83 24 00
        E 16 83 24 00
        E 16 83 24 00
        E 16 83 24 00
        E 16 83 24 00
        E 16 83 24 00
        E 16 83 24 00
        E 16 83 24 00
        E 16 83 24 00
        E 16 83 24 00
        E 16 83 24 00
        E 16 83 24 00
        E 16 83 24 00
        E 16 83 24 00
        E 16 83 24 00
        E 16 83 24 00
        E 16 83 24 00
        E 16 83 24 00
        E 16 83 24 00
        E 16 83 24 00
        E 16 83 24 00
        E 16 83 24 00
        E 16 83 24 00
        E 16 83 24 00
        E 16 83 24 00
        E 16 83 24 00
        E 16 83 24 00
        E 16 83 24 00
        E 16 83 24 00
        E 16 83 24 00
        E 16 83 24 00
        E 16 83 24 00
        E 16 83 24 00
        E 16 83 24 00
        E 16 83 24 00
        E 16 83 24 00
        E 16 83 24 00
        E 16 83 24 00
        E 16 83 24 00
        E 16 83 24 00
        E 16 83 24 00
        E 16 83 24 00
        E 16 83 24 00
        E 16 83 24 00
        E 16 83 24 00
        E 16 83 24 00
        E 16 83 24 00
        E 16 83 24 00
        E 16 83 24 00
        E 16 83 24 00
        E 16 83 24 00
        E 16 83 24 00
        E 16 83 24 00
        E 16 83 24 00
        E 16 83 24 00
        E 16 83 24 00
        E 16 83 24 00
        E 16 83 24 00
        E 16 83 24 00
        E 16 83 24 00
        E 16 83 24 00
        E 16 83 24 00
        E 16 83 24 00
        E 16 83 24 00
        E 16 83 24 00
        E 16 83 24 00
        E 16 83 24 00
        E 16 83 24 00
        E 16 83 24 00
        E 16 83 24 00
        E 16 83 24 00
        E 16 83 24 00
        E 16 83 24 00
        E 16 83 24 00
        E 16 83 24 00
        E 16 83 24 00
        E 16 83 24 00
        E 16 83 24 00
        E 16 83 24 00
        E 16 83 24 00
        E 16 83 24 00
        E 16 83 24 00
        E 16 83 24 00
        E 16 83 24 00
        E 16 83 24 00
        E 16 83 24 00
        E 16 83 24 00
        E 16 83 24 00
        E 16 83 24 00
        E 16 83 24 00
        E 16 83 24 00
        E 16 83 24 00
        E 16 83 24 00
        E 16 83 24 00
        E 16 83 24 00
        E 16 83 24 00
        E 16 83 24 00
        E 16 83 24 00
        E 16 83 24 00
        E 16 83 24 00
        E 16 83 24 00
        E 16 83 24 00
        E 16 83 24 00
        E 16 83 24 00
        E 16 83 24 00
        E 16 83 24 00
        E 16 83 24 00
        E 16 83 24 00
        E 16 83 24 00
        E 16 83 24 00
        E 16 83 24 00
        E 16 83 24 00
        E 16 83 24 00
        E 16 83 24 00
        E 16 83 24 00
        E 16 83 24 00
        E 16 83 24 00
        E 16 83 24 00
        E 16 83 24 00
        E 16 83 24 00
        E 16 83 24 00
        E 16 83 24 00
        E 16 83 24 00
        E 16 83 24 00
        E 16 83 24 00
        E 16 83 24 00
        E 16 83 24 00
        E 16 83 24 00
        E 16 83 24 00
        E 16 83 24 00
        E 16 83 24 00
        E 16 83 24 00
        E 16 83 24 00
        E 16 83 24 00
        E 16 83 24 00
        E 16 83 24 00
        E 16 83 24 00
        E 16 83 24 00
        E 16 83 24 00
        E 16 83 24 00
        E 16 83 24 00
        E 16 83 24 00
        E 16 83 24 00
        E 16 83 24 00
        E 16 83 24 00
        E 16 83 24 00
        E 16 83 24 00
        E 16 83 24 00
        E 16 83 24 00
        E 16 83 24 00
        E 16 83 24 00
        E 16 83 24 00
        E 16 83 24 00
        E 16 83 24 00
        E 16 83 24 00
        E 16 83 24 00
        E 16 83 24 00
        E 16 83 24 00
        E 16 83 24 00
        E 16 83 24 00
        E 16 83 24 00
        E 16 83 24 00
        E 16 83 24 00
        E 16 83 24 00
        E 16 83 24 00
        E 16 83 24 00
        E 16 83 24 00
        E 16 83 24 00
        E 16 83 24 00
        E 16 83 24 00
        E 16 83 24 00
        E 16 83 24 00
        E 16 83 24 00
        E 16 83 24 00
        E 16 83 24 00
        E 16 83 24 00
        E 16 83 24 00
        E 16 83 24 00
        E 16 83 24 00
        E 16 83 24 00
        E 16 83 24 00
        E 16 83 24 00
        E 16 83 24 00
        E 16 83 24 00
        E 16 83 24 00
        E 16 83 24 00
        E 16 83 24 00
        E 16 83 24 00
        E 16 83 24 00
        E 16 83 24 00
        E 16 83 24 00
        E 16 83 24 00
        E 16 83 24 00
        E 16 83 24 00
        E 16 83 24 00
        E 16 83 24 00
        E 16 83 24 00
        E 16 83 24 00
        E 16 83 24 00
        E 16 83 24 00
        E 16 83 24 00
        E 16 83 24 00
        E 16 83 24 00
        E 16 83 24 00
        E 16 83 24 00
        E 16 83 24 00
        E 16 83 24 00
        E 16 83 24 00
        E 16 83 24 00
        E 16 83 24 00
        E 16 83 24 00
        E 16 83 24 00
        E 16 83 24 00
        E 16 83 24 00
        E 16 83 24 00
        E 16 83 24 00
        E 16 83 24 00
        E 16 83 24 00
        E 16 83 24 00
        E 16 83 24 00
        E 16 83 24 00
        E 16 83 24 00
        E 16 83 24 00
        E 16 83 24 00
        E 16 83 24 00
        E 16 83 24 00
        E 16 83 24 00
        E 16 83 24 00
        E 16 83 24 00
        E 16 83 24 00
        E 16 83 24 00
        E 16 83 24 00
        E 16 83 24 00
        E 16 83 24 00
        E 16 83 24 00
        E 16 83 24 00
        E 16 83 24 00
        E 16 83 24 00
        E 16 83 24 00
        E 16 83 24 00
        E 16 83 24 00
        E 16 83 24 00
        E 16 83 24 00
        E 16 83 24 00
        E 16 83 24 00
        E 16 83 24 00
        E 16 83 24 00
        E 16 83 24 00
        E 16 83 24 00
        E 16 83 24 00
        E 16 83 24 00
        E 16 83 24 00
        E 16 83 24 00
        E 16 83 24 00
        E 16 83 24 00
        E 16 83 24 00
        E 16 83 24 00
        E 16 83 24 00
        E 16 83 24 00
        E 16 83 24 00
        E 16 83 24 00
        E 16 83 24 00
        E 16 83 24 00
        E 16 83 24 00
        E 16 83 24 00
        E 16 83 24 00
        E 16 83 24 00
        E 16 83 24 00
        E 16 83 24 00
        E 16 83 24 00
        E 16 83 24 00
        E 16 83 24 00
        E 16 83 24 00
        E 16 83 24 00
        E 16 83 24 00
        E 16 83 24 00
        E 16 83 24 00
        E 16 83 24 00
        E 16 83 24 00
        E 16 83 24 00
        E 16 83 24 00
        E 16 83 24 00
        E 16 83 24 00
        E 16 83 24 00
        E 16 83 24 00
        E 16 83 24 00
        E 16 83 24 00
        E 16 83 24 00
        E 16 83 24 00
        E 16 83 24 00
        E 16 83 24 00
        E 16 83 24 00
        E 16 83 24 00
        E 16 83 24 00
        E 16 83 24 00
        E 16 83 24 00
        E 16 83 24 00
        E 16 83 24 00
        E 16 83 24 00
        E 16 83 24 00
        E 16 83 24 00
        E 16 83 24 00
        E 16 83 24 00
        E 16 83 24 00
        E 16 83 24 00
        E 16 83 24 00
        E 16 83 24 00
        E 16 83 24 00
        E 16 83 24 00
        E 16 83 24 00
        E 16 83 24 00
        E 16 83 24 00
        E 16 83 24 00
        E 16 83 24 00
        E 16 83 24 00
        E 16 83 24 00
        E 16 83 24 00
        E 16 83 24 00
        E 16 83 24 00
        E 16 83 24 00
        E 16 83 24 00
        E 16 83 24 00
        E 16 83 24 00
        E 16 83 24 00
        E 16 83 24 00
        E 16 83 24 00
        E 16 83 24 00
        E 16 83 24 00
        E 16 83 24 00
        E 16 83 24 00
        E 16 83 24 00
        E 16 83 24 00
        E 16 83 24 00
        E 16 83 24 00
        E 16 83 24 00
        E 16 83 24 00
        E 16 83 24 00
        E 16 83 24 00
        E 16 83 24 00
        E 16 83 24 00
        E 16 83 24 00
        E 16 83 24 00
        E 16 83 24 00
        E 16 83 24 00
        E 16 83 24 00
        E 16 83 24 00
        E 16 83 24 00
        E 16 83 24 00
        E 16 83 24 00
        E 16 83 24 00
        E 16 83 24 00
        E 16 83 24 00
        E 16 83 24 00
        E 16 83 24 00
        E 16 83 24 00
        E 16 83 24 00
        E 16 83 24 00
        E 16 83 24 00
        E 16 83 24 00
        E 16 83 24 00
        E 16 83 24 00
        E 16 83 24 00
        E 16 83 24 00
        E 16 83 24 00
        E 16 83 24 00
        E 16 83 24 00
        E 16 83 24 00
        E 16 83 24 00
        E 16 83 24 00
        E 16 83 24 00
        E 16 83 24 00
        E 16 83 24 00
        E 16 83 24 00
        E 16 83 24 00
        E 16 83 24 00
        E 16 83 24 00
        E 16 83 24 00
        E 16 83 24 00
        E 16 83 24 00
        E 16 83 24 00
        E 16 83 24 00
        E 16 83 24 00
        E 16 83 24 00
        E 16 83 24 00
        E 16 83 24 00
        E 16 83 24 00
        E 16 83 24 00
        E 16 83 24 00
        E 16 83 24 00
        E 16 83 24 00
        E 16 83 24 00
        E 16 83 24 00
        E 16 83 24 00
        E 16 83 24 00
        E 16 83 24 00
        E 16 83 24 00
        E 16 83 24 00
        E 16 83 24 00
        E 16 83 24 00
        E 16 83 24 00
        E 16 83 24 00
        E 16 83 24 00
        E 16 83 24 00
        E 16 83 24 00
        E 16 83 24 00
        E 16 83 24 00
        E 16 83 24 00
        E 16 83 24 00
        E 16 83 24 00
        E 16 83 24 00
        E 16 83 24 00
        E 16 83 24 00
        E 16 83 24 00
        E 16 83 24 00
        E 16 83 24 00
        E 16 83 24 00
        E 16 83 24 00
        E 16 83 24 00
        E 16 83 24 00
        E 16 83 24 00
        E 16 83 24 00
        E 16 83 24 00
        E 16 83 24 00
        E 16 83 24 00
        E 16 83 24 00
        E 16 83 24 00
        E 16 83 24 00
        E 16 83 24 00
        E 16 83 24 00
        E 16 83 24 00
        E 16 83 24 00
        E 16 83 24 00
        E 16 83 24 00
        E 16 83 24 00
        E 16 83 24 00
        E 16 83 24 00
        E 16 83 24 00
        E 16 83 24 00
        E 16 83 24 00
        E 16 83 24 00
        E 16 83 24 00
        E 16 83 24 00
        E 16 83 24 00
        E 16 83 24 00
        E 16 83 24 00
        E 16 83 24 00
        E 16 83 24 00
        E 16 83 24 00
        E 16 83 24 00
        E 16 83 24 00
        E 16 83 24 00
        E 16 83 24 00
        E 16 83 24 00
        E 16 83 24 00
        E 16 83 24 00
        E 16 83 24 00
        E 16 83 24 00
        E 16 83 24 00
        E 16 83 24 00
        E 16 83 24 00
        E 16 83 24 00
        E 16 83 24 00
        E 16 83 24 00
        E 16 83 24 00
        E 16 83 24 00
        E 16 83 24 00
        E 16 83 24 00
        E 16 83 24 00
        E 16 83 24 00
        E 16 83 24 00
        E 16 83 24 00
        E 16 83 24 00
        E 16 83 24 00
        E 16 83 24 00
        E 16 83 24 00
        E 16 83 24 00
        E 16 83 24 00
        E 16 83 24 00
        E 16 83 24 00
        E 16 83 24 00
        E 16 83 24 00
        E 16 83 24 00
        E 16 83 24 00
        E 16 83 24 00
        E 16 83 24 00
        E 16 83 24 00
        E 16 83 24 00
        E 16 83 24 00
        E 16 83 24 00
        E 16 83 24 00
        E 16 83 24 00
        E 16 83 24 00
        E 16 83 24 00
        E 16 83 24 00
        E 16 83 24 00
        E 16 83 24 00
        E 16 83 24 00
        E 16 83 24 00
        E 16 83 24 00
        E 16 83 24 00
        E 16 83 24 00
        E 16 83 24 00
        E 16 83 24 00
        E 16 83 24 00
        E 16 83 24 00
        E 16 83 24 00
        E 16 83 24 00
        E 16 83 24 00
        E 16 83 24 00
        E 16 83 24 00
        E 16 83 24 00
        E 16 83 24 00
        E 16 83 24 00
        E 16 83 24 00
        E 16 83 24 00
        E 16 83 24 00
        E 16 83 24 00
        E 16 83 24 00
        E 16 83 24 00
        E 16 83 24 00
        E 16 83 24 00
        E 16 83 24 00
        E 16 83 24 00
        E 16 83 24 00
        E 16 83 24 00
        E 16 83 24 00
        E 16 83 24 00
        E 16 83 24 00
        E 16 83 24 00
        E 16 83 24 00
        E 16 83 24 00
        E 16 83 24 00
        E 16 83 24 00
        E 16 83 24 00
        E 16 83 24 00
        E 16 83 24 00
        E 16 83 24 00
        E 16 83 24 00
        E 16 83 24 00
        E 16 83 24 00
        E 16 83 24 00
        E 16 83 24 00
        E 16 83 24 00
        E 16 83 24 00
        E 16 83 24 00
        E 16 83 24 00
        E 16 83 24 00
        E 16 83 24 00
        E 16 83 24 00
        E 16 83 24 00
        E 16 83 24 00
        E 16 83 24 00
        E 16 83 24 00
        E 16 83 24 00
        E 16 83 24 00
        E 16 83 24 00
        E 16 83 24 00
        E 16 83 24 00
        E 16 83 24 00
        E 16 83 24 00
        E 16 83 24 00
        E 16 83 24 00
        E 16 83 24 00
        E 16 83 24 00
        E 16 83 24 00
        E 16 83 24 00
        E 16 83 24 00
        E 16 83 24 00
        E 16 83 24 00
        E 16 83 24 00
        E 16 83 24 00
        E 16 83 24 00
        E 16 83 24 00
        E 16 83 24 00
        E 16 83 24 00
        E 16 83 24 00
        E 16 83 24 00
        E 16 83 24 00
        E 16 83 24 00
        E 16 83 24 00
        E 16 83 24 00
        E 16 83 24 00
        E 16 83 24 00
        E 16 83 24 00
        E 16 83 24 00
        E 16 83 24 00
        E 16 83 24 00
        E 16 83 24 00
        E 16 83 24 00
        E 16 83 24 00
        E 16 83 24 00
        E 16 83 24 00
        E 16 83 24 00
        E 16 83 24 00
        E 16 83 24 00
        E 16 83 24 00
        E 16 83 24 00
        E 16 83 24 00
        E 16 83 24 00
        E 16 83 24 00
        E 16 83 24 00
        E 16 83 24 00
        E 16 83 24 00
        E 16 83 24 00
        E 16 83 24 00
        E 16 83 24 00
        E 16 83 24 00
        E 16 83 24 00
        E 16 83 24 00
        E 16 83 24 00
        E 16 83 24 00
        E 16 83 24 00
        E 16 83 24 00
        E 16 83 24 00
        E 16 83 24 00
        E 16 83 24 00
        E 16 83 24 00
        E 16 83 24 00
        E 16 83 24 00
        E 16 83 24 00
        E 16 83 24 00
        E 16 83 24 00
        E 16 83 24 00
        E 16 83 24 00
        E 16 83 24 00
        E 16 83 24 00
        E 16 83 24 00
        E 16 83 24 00
        E 16 83 24 00
        E 16 83 24 00
        E 16 83 24 00
        E 16 83 24 00
        E 16 83 24 00
        E 16 83 24 00
        E 16 83 24 00
        E 16 83 24 00
        E 16 83 24 00
        E 16 83 24 00
        E 16 83 24 00
        E 16 83 24 00
        E 16 83 24 00
        E 16 83 24 00
        E 16 83 24 00
        E 16 83 24 00
        E 16 83 24 00
        E 16 83 24 00
        E 16 83 24 00
        E 16 83 24 00
        E 16 83 24 00
        E 16 83 24 00
        E 16 83 24 00
        E 16 83 24 00
        E 16 83 24 00
        E 16 83 24 00
        E 16 83 24 00
        E 16 83 24 00
        E 16 83 24 00
        E 16 83 24 00
        E 16 83 24 00
        E 16 83 24 00
        E 16 83 24 00
        E 16 83 24 00
        E 16 83 24 00
        E 16 83 24 00
        E 16 83 24 00
        E 16 83 24 00
        E 16 83 24 00
        E 16 83 24 00
        E 16 83 24 00
        E 16 83 24 00
        E 16 83 24 00
        E 16 83 24 00
        E 16 83 24 00
        E 16 83 24 00
        E 16 83 24 00
        E 16 83 24 00
        E 16 83 24 00
        E 16 83 24 00
        E 16 83 24 00
        E 16 83 24 00
        E 16 83 24 00
        E 16 83 24 00
        E 16 83 24 00
        E 16 83 24 00
        E 16 83 24 00
        E 16 83 24 00
        E 16 83 24 00
        E 16 83 24 00
        E 16 83 24 00
        E 16 83 24 00
        E 16 83 24 00
        E 16 83 24 00
        E 16 83 24 00
        E 16 83 24 00
        E 16 83 24 00
        E 16 83 24 00
        E 16 83 24 00
        E 16 83 24 00
        E 16 83 24 00
        E 16 83 24 00
        E 16 83 24 00
        E 16 83 24 00
        E 16 83 24 00
        E 16 83 24 00
        E 16 83 24 00
        E 16 83 24 00
        E 16 83 24 00
        E 16 83 24 00
        E 16 83 24 00
        E 16 83 24 00
        E 16 83 24 00
        E 16 83 24 00
        E 16 83 24 00
        E 16 83 24 00
        E 16 83 24 00
        E 16 83 24 00
        E 16 83 24 00
        E 16 83 24 00
        E 16 83 24 00
        E 16 83 24 00
        E 16 83 24 00
        E 16 83 24 00
        E 16 83 24 00
        E 16 83 24 00
        E 16 83 24 00
        E 16 83 24 00
        E 16 83 24 00
        E 16 83 24 00
        E 16 83 24 00
        E 16 83 24 00
        E 16 83 24 00
        E 16 83 24 00
        E 16 83 24 00
        E 16 83 24 00
        E 16 83 24 00
        E 16 83 24 00
        E 16 83 24 00
        E 16 83 24 00
        E 16 83 24 00
        E 16 83 24 00
        E 16 83 24 00
        E 16 83 24 00
        E 16 83 24 00
        E 16 83 24 00
        E 16 83 24 00
        E 16 83 24 00
        E 16 83 24 00
        E 16 83 24 00
        E 16 83 24 00
        E 16 83 24 00
        E 16 83 24 00
        E 16 83 24 00
        E 16 83 24 00
        E 16 83 24 00
        E 16 83 24 00
        E 16 83 24 00
        E 16 83 24 00
        E 16 83 24 00
        E 16 83 24 00
        E 16 83 24 00
        E 16 83 24 00
        E 16 83 24 00
        E 16 83 24 00
        E 16 83 24 00
        E 16 83 24 00
        E 16 83 24 00
        E 16 83 24 00
        E 16 83 24 00
        E 16 83 24 00
        E 16 83 24 00
        E 16 83 24 00
        E 16 83 24 00
        E 16 83 24 00
        E 16 83 24 00
        E 16 83 24 00
        E 16 83 24 00
        E 16 83 24 00
        E 16 83 24 00
        E 16 83 24 00
        E 16 83 24 00
        E 16 83 24 00
        E 16 83 24 00
        E 16 83 24 00
        E 16 83 24 00
        E 16 83 24 00
        E 16 83 24 00
        E 16 83 24 00
        E 16 83 24 00
        E 16 83 24 00
        E 16 83 24 00
        E 16 83 24 00
        E 16 83 24 00
        E 16 83 24 00
        E 16 83 24 00
        E 16 83 24 00
        E 16 83 24 00
        E 16 83 24 00
        E 16 83 24 00
        E 16 83 24 00
        E 16 83 24 00
        E 16 83 24 00
        E 16 83 24 00
        E 16 83 24 00
        E 16 83 24 00
        E 16 83 24 00
        E 16 83 24 00
        E 16 83 24 00
        E 16 83 24 00
        E 16 83 24 00
        E 16 83 24 00
        E 16 83 24 00
        E 16 83 24 00
        E 16 83 24 00
        E 16 83 24 00
        E 16 83 24 00
        E 16 83 24 00
        E 16 83 24 00
        E 16 83 24 00
        E 16 83 24 00
        E 16 83 24 00
        E 16 83 24 00
        E 16 83 24 00
        E 16 83 24 00
        E 16 83 24 00
        E 16 83 24 00
        E 16 83 24 00
        E 16 83 24 00
        E 16 83 24 00
        E 16 83 24 00
        E 16 83 24 00
        E 16 83 24 00
        E 16 83 24 00
        E 16 83 24 00
        E 16 83 24 00
        E 16 83 24 00
        E 16 83 24 00
        E 16 83 24 00
        E 16 83 24 00
        E 16 83 24 00
        E 16 83 24 00
        E 16 83 24 00
        E 16 83 24 00
        E 16 83 24 00
        E 16 83 24 00
        E 16 83 24 00
        E 16 83 24 00
        E 16 83 24 00
        E 16 83 24 00
        E 16 83 24 00
        E 16 83 24 00
        E 16 83 24 00
        E 16 83 24 00
        E 16 83 24 00
        E 16 83 24 00
        E 16 83 24 00
        E 16 83 24 00
        E 16 83 24 00
        E 16 83 24 00
        E 16 83 24 00
        E 16 83 24 00
        E 16 83 24 00
        E 16 83 24 00
        E 16 83 24 00
        E 16 83 24 00
        E 16 83 24 00
        E 16 83 24 00
        E 16 83 24 00
        E 16 83 24 00
        E 16 83 24 00
        E 16 83 24 00
        E 16 83 24 00
        E 16 83 24 00
        E 16 83 24 00
        E 16 83 24 00
        E 16 83 24 00
        E 16 83 24 00
        E 16 83 24 00
        E 16 83 24 00
        E 16 83 24 00
        E 16 83 24 00
        E 16 83 24 00
        E 16 83 24 00
        E 16 83 24 00
        E 16 83 24 00
        E 16 83 24 00
        E 16 83 24 00
        E 16 83 24 00
        E 16 83 24 00
        E 16 83 24 00
        E 16 83 24 00
        E 16 83 24 00
        E 16 83 24 00
        E 16 83 24 00
        E 16 83 24 00
        E 16 83 24 00
        E 16 83 24 00
        E 16 83 24 00
        E 16 83 24 00
        E 16 83 24 00
        E 16 83 24 00
        E 16 83 24 00
        E 16 83 24 00
        E 16 83 24 00
        E 16 83 24 00
        E 16 83 24 00
        E 16 83 24 00
        E 16 83 24 00
        E 16 83 24 00
        E 16 83 24 00
        E 16 83 24 00
        E 16 83 24 00
        E 16 83 24 00
        E 16 83 24 00
        E 16 83 24 00
        E 16 83 24 00
        E 16 83 24 00
        E 16 83 24 00
        E 16 83 24 00
        E 16 83 24 00
        E 16 83 24 00
        E 16 83 24 00
        E 16 83 24 00
        E 16 83 24 00
        E 16 83 24 00
        E 16 83 24 00
        E 16 83 24 00
        E 16 83 24 00
        E 16 83 24 00
        E 16 83 24 00
        E 16 83 24 00
        E 16 83 24 00
        E 16 83 24 00
        E 16 83 24 00
        E 16 83 24 00
        E 16 83 24 00
        E 16 83 24 00
        E 16 83 24 00
        E 16 83 24 00
        E 16 83 24 00
        E 16 83 24 00
        E 16 83 24 00
        E 16 83 24 00
        E 16 83 24 00
        E 16 83 24 00
        E 16 83 24 00
        E 16 83 24 00
        E 16 83 24 00
        E 16 83 24 00
        E 16 83 24 00
        E 16 83 24 00
        E 16 83 24 00
        E 16 83 24 00
        E 16 83 24 00
        E 16 83 24 00
        E 16 83 24 00
        E 16 83 24 00
        E 16 83 24 00
        E 16 83 24 00
        E 16 83 24 00
        E 16 83 24 00
        E 16 83 24 00
        E 16 83 24 00
        E 16 83 24 00
        E 16 83 24 00
        E 16 83 24 00
        E 16 83 24 00
        E 16 83 24 00
        E 16 83 24 00
        E 16 83 24 00
        E 16 83 24 00
        E 16 83 24 00
        E 16 83 24 00
        E 16 83 24 00
        E 16 83 24 00
        E 16 83 24 00
        E 16 83 24 00
        E 16 83 24 00
        E 16 83 24 00
        E 16 83 24 00
        E 16 83 24 00
        E 16 83 24 00
        E 16 83 24 00
        E 16 83 24 00
        E 16 83 24 00
        E 16 83 24 00
        E 16 83 24 00
        E 16 83 24 00
        E 16 83 24 00
        E 16 83 24 00
        E 16 83 24 00
        E 16 83 24 00
        E 16 83 24 00
        E 16 83 24 00
        E 16 83 24 00
        E 16 83 24 00
        E 16 83 24 00
        E 16 83 24 00
        E 16 83 24 00
        E 16 83 24 00
        E 16 83 24 00
        E 16 83 24 00
        E 16 83 24 00
        E 16 83 24 00
        E 16 83 24 00
        E 16 83 24 00
        E 16 83 24 00
        E 16 83 24 00
        E 16 83 24 00
        E 16 83 24 00
        E 16 83 24 00
        E 16 83 24 00
        E 16 83 24 00
        E 16 83 24 00
        E 16 83 24 00
        E 16 83 24 00
        E 16 83 24 00
        E 16 83 24 00
        E 16 83 24 00
        E 16 83 24 00
        E 16 83 24 00
        E 16 83 24 00
        E 16 83 24 00
        E 16 83 24 00
        E 16 83 24 00
        E 16 83 24 00
        E 16 83 24 00
        E 16 83 24 00
        E 16 83 24 00
        E 16 83 24 00
        E 16 83 24 00
        E 16 83 24 00
        E 16 83 24 00
        E 16 83 24 00
        E 16 83 24 00
        E 16 83 24 00
        E 16 83 24 00
        E 16 83 24 00
        E 16 83 24 00
        E 16 83 24 00
        E 16 83 24 00
        E 16 83 24 00
        E 16 83 24 00
        E 16 83 24 00
        E 16 83 24 00
        E 16 83 24 00
        E 16 83 24 00
        E 16 83 24 00
        E 16 83 24 00
        E 16 83 24 00
        E 16 83 24 00
        E 16 83 24 00
        E 16 83 24 00
        E 16 83 24 00
        E 16 83 24 00
        E 16 83 24 00
        E 16 83 24 00
        E 16 83 24 00
        E 16 83 24 00
        E 16 83 24 00
        E 16 83 24 00
        E 16 83 24 00
        E 16 83 24 00
        E 16 83 24 00
        E 16 83 24 00
        E 16 83 24 00
        E 16 83 24 00
        E 16 83 24 00
        E 16 83 24 00
        E 16 83 24 00
        E 16 83 24 00
        E 16 83 24 00
        E 16 83 24 00
        E 16 83 24 00
        E 16 83 24 00
        E 16 83 24 00
        E 16 83 24 00
        E 16 83 24 00
        E 16 83 24 00
        E 16 83 24 00
        E 16 83 24 00
        E 16 83 24 00
        E 16 83 24 00
        E 16 83 24 00
        E 16 83 24 00
        E 16 83 24 00
        E 16 83 24 00
        E 16 83 24 00
        E 16 83 24 00
        E 16 83 24 00
        E 16 83 24 00
        E 16 83 24 00
        E 16 83 24 00
        E 16 83 24 00
        E 16 83 24 00
        E 16 83 24 00
        E 16 83 24 00
        E 16 83 24 00
        E 16 83 24 00
        E 16 83 24 00
        E 16 83 24 00
        E 16 83 24 00
        E 16 83 24 00
        E 16 83 24 00
        E 16 83 24 00
        E 16 83 24 00
        E 16 83 24 00
        E 16 83 24 00
        E 16 83 24 00
        E 16 83 24 00
        E 16 83 24 00
        E 16 83 24 00
        E 16 83 24 00
        E 16 83 24 00
        E 16 83 24 00
        E 16 83 24 00
        E 16 83 24 00
        E 16 83 24 00
        E 16 83 24 00
        E 16 83 24 00
        E 16 83 24 00
        E 16 83 24 00
        E 16 83 24 00
        E 16 83 24 00
        E 16 83 24 00
        E 16 83 24 00
        E 16 83 24 00
        E 16 83 24 00
        E 16 83 24 00
        E 16 83 24 00
        E 16 83 24 00
        E 16 83 24 00
        E 16 83 24 00
        E 16 83 24 00
        E 16 83 24 00
        E 16 83 24 00
        E 16 83 24 00
        E 16 83 24 00
        E 16 83 24 00
        E 16 83 24 00
        E 16 83 24 00
        E 16 83 24 00
        E 16 83 24 00
        E 16 83 24 00
        E 16 83 24 00
        E 16 83 24 00
        E 16 83 24 00
        E 16 83 24 00
        E 16 83 24 00
        E 16 83 24 00
        E 16 83 24 00
        E 16 83 24 00
        E 16 83 24 00
        E 16 83 24 00
        E 16 83 24 00
        E 16 83 24 00
        E 16 83 24 00
        E 16 83 24 00
        E 16 83 24 00
        E 16 83 24 00
        E 16 83 24 00
        E 16 83 24 00
        E 16 83 24 00
        E 16 83 24 00
        E 16 83 24 00
        E 16 83 24 00
        E 16 83 24 00
        E 16 83 24 00
        E 16 83 24 00
        E 16 83 24 00
        E 16 83 24 00
        E 16 83 24 00
        E 16 83 24 00
        E 16 83 24 00
        E 16 83 24 00
        E 16 83 24 00
        E 16 83 24 00
        E 16 83 24 00
        E 16 83 24 00
        E 16 83 24 00
        E 16 83 24 00
        E 16 83 24 00
        E 16 83 24 00
        E 16 83 24 00
        E 16 83 24 00
        E 16 83 24 00
        E 16 83 24 00
        E 16 83 24 00
        E 16 83 24 00
        E 16 83 24 00
        E 16 83 24 00
        E 16 83 24 00
        E 16 83 24 00
        E 16 83 24 00
        E 16 83 24 00
        E 16 83 24 00
        E 16 83 24 00
        E 16 83 24 00
        E 16 83 24 00
        E 16 83 24 00
        E 16 83 24 00
        E 16 83 24 00
        E 16 83 24 00
        E 16 83 24 00
        E 16 83 24 00
        E 16 83 24 00
        E 16 83 24 00
        E 16 83 24 00
        E 16 83 24 00
        E 16 83 24 00
        E 16 83 24 00
        E 16 83 24 00
        E 16 83 24 00
        E 16 83 24 00
        E 16 83 24 00
        E 16 83 24 00
        E 16 83 24 00
        E 16 83 24 00
        E 16 83 24 00
        E 16 83 24 00
        E 16 83 24 00
        E 16 83 24 00
        E 16 83 24 00
        E 16 83 24 00
        E 16 83 24 00
        E 16 83 24 00
        E 16 83 24 00
        E 16 83 24 00
        E 16 83 24 00
        E 16 83 24 00
        E 16 83 24 00
        E 16 83 24 00
        E 16 83 24 00
        E 16 83 24 00
        E 16 83 24 00
        E 16 83 24 00
        E 16 83 24 00
        E 16 83 24 00
        E 16 83 24 00
        E 16 83 24 00
        E 16 83 24 00
        E 16 83 24 00
        E 16 83 24 00
        E 16 83 24 00
        E 16 83 24 00
        E 16 83 24 00
        E 16 83 24 00
        E 16 83 24 00
        E 16 83 24 00
        E 16 83 24 00
        E 16 83 24 00
        E 16 83 24 00
        E 16 83 24 00
        E 16 83 24 00
        E 16 83 24 00
        E 16 83 24 00
        E 16 83 24 00
        E 16 83 24 00
        E 16 83 24 00
        E 16 83 24 00
        E 16 83 24 00
        E 16 83 24 00
        E 16 83 24 00
        E 16 83 24 00
        E 16 83 24 00
        E 16 83 24 00
        E 16 83 24 00
        E 16 83 24 00
        E 16 83 24 00
        E 16 83 24 00
        E 16 83 24 00
        E 16 83 24 00
        E 16 83 24 00
        E 16 83 24 00
        E 16 83 24 00
        E 16 83 24 00
        E 16 83 24 00
        E 16 83 24 00
        E 16 83 24 00
        E 16 83 24 00
        E 16 83 24 00
        E 16 83 24 00
        E 16 83 24 00
        E 16 83 24 00
        E 16 83 24 00
        E 16 83 24 00
        E 16 83 24 00
        E 16 83 24 00
        E 16 83 24 00
        E 16 83 24 00
        E 16 83 24 00
        E 16 83 24 00
        E 16 83 24 00
        E 16 83 24 00
        E 16 83 24 00
        E 16 83 24 00
        E 16 83 24 00
        E 16 83 24 00
        E 16 83 24 00
        E 16 83 24 00
        E 16 83 24 00
        E 16 83 24 00
        E 16 83 24 00
        E 16 83 24 00
        E 16 83 24 00
        E 16 83 24 00
        E 16 83 24 00
        E 16 83 24 00
        E 16 83 24 00
        E 16 83 24 00
        E 16 83 24 00
        E 16 83 24 00
        E 16 83 24 00
        E 16 83 24 00
        E 16 83 24 00
        E 16 83 24 00
        E 16 83 24 00
        E 16 83 24 00
        E 16 83 24 00
        E 16 83 24 00
        E 16 83 24 00
        E 16 83 24 00
        E 16 83 24 00
        E 16 83 24 00
        E 16 83 24 00
        E 16 83 24 00
        E 16 83 24 00
        E 16 83 24 00
        E 16 83 24 00
        E 16 83 24 00
        E 16 83 24 00
        E 16 83 24 00
        E 16 83 24 00
        E 16 83 24 00
        E 16 83 24 00
        E 16 83 24 00
        E 16 83 24 00
        E 16 83 24 00
        E 16 83 24 00
        E 16 83 24 00
        E 16 83 24 00
        E 16 83 24 00
        E 16 83 24 00
        E 16 83 24 00
        E 16 83 24 00
        E 16 83 24 00
        E 16 83 24 00
        E 16 83 24 00
        E 16 83 24 00
        E 16 83 24 00
        E 16 83 24 00
        E 16 83 24 00
        E 16 83 24 00
        E 16 83 24 00
        E 16 83 24 00
        E 16 83 24 00
        E 16 83 24 00
        E 16 83 24 00
        E 16 83 24 00
        E 16 83 24 00
        E 16 83 24 00
        E 16 83 24 00
        E 16 83 24 00
        E 16 83 24 00
        E 16 83 24 00
        E 16 83 24 00
        E 16 83 24 00
        E 16 83 24 00
        E 16 83 24 00
        E 16 83 24 00
        E 16 83 24 00
        E 16 83 24 00
        E 16 83 24 00
        E 16 83 24 00
        E 16 83 24 00
        E 16 83 24 00
        E 16 83 24 00
        E 16 83 24 00
        E 16 83 24 00
        E 16 83 24 00
        E 16 83 24 00
        E 16 83 24 00
        E 16 83 24 00
        E 16 83 24 00
        E 16 83 24 00
        E 16 83 24 00
        E 16 83 24 00
        E 16 83 24 00
        E 16 83 24 00
        E 16 83 24 00
        E 16 83 24 00
        E 16 83 24 00
        E 16 83 24 00
        E 16 83 24 00
        E 16 83 24 00
        E 16 83 24 00
        E 16 83 24 00
        E 16 83 24 00
        E 16 83 24 00
        E 16 83 24 00
        E 16 83 24 00
        E 16 83 24 00
        E 16 83 24 00
        E 16 83 24 00
        E 16 83 24 00
        E 16 83 24 00
        E 16 83 24 00
        E 16 83 24 00
        E 16 83 24 00
        E 16 83 24 00
        E 16 83 24 00
        E 16 83 24 00
        E 16 83 24 00
        E 16 83 24 00
        E 16 83 24 00
        E 16 83 24 00
        E 16 83 24 00
        E 16 83 24 00
        E 16 83 24 00
        E 16 83 24 00
        E 16 83 24 00
        E 16 83 24 00
        E 16 83 24 00
        E 16 83 24 00
        E 16 83 24 00
        E 16 83 24 00
        E 16 83 24 00
        E 16 83 24 00
        E 16 83 24 00
        E 16 83 24 00
        E 16 83 24 00
        E 16 83 24 00
        E 16 83 24 00
        E 16 83 24 00
        E 16 83 24 00
        E 16 83 24 00
        E 16 83 24 00
        E 16 83 24 00
        E 16 83 24 00
        E 16 83 24 00
        E 16 83 24 00
        E 16 83 24 00
        E 16 83 24 00
        E 16 83 24 00
        E 16 83 24 00
        E 16 83 24 00
        E 16 83 24 00
        E 16 83 24 00
        E 16 83 24 00
        E 16 83 24 00
        E 16 83 24 00
        E 16 83 24 00
        E 16 83 24 00
        E 16 83 24 00
        E 16 83 24 00
        E 16 83 24 00
        E 16 83 24 00
        E 16 83 24 00
        E 16 83 24 00
        E 16 83 24 00
        E 16 83 24 00
        E 16 83 24 00
        E 16 83 24 00
        E 16 83 24 00
        E 16 83 24 00
        E 16 83 24 00
        E 16 83 24 00
        E 16 83 24 00
        E 16 83 24 00
        E 16 83 24 00
        E 16 83 24 00
        E 16 83 24 00
        E 16 83 24 00
        E 16 83 24 00
        E 16 83 24 00
        E 16 83 24 00
        E 16 83 24 00
        E 16 83 24 00
        E 16 83 24 00
        E 16 83 24 00
        E 16 83 24 00
        E 16 83 24 00
        E 16 83 24 00
        E 16 83 24 00
        E 16 83 24 00
        E 16 83 24 00
        E 16 83 24 00
        E 16 83 24 00
        E 16 83 24 00
        E 16 83 24 00
        E 16 83 24 00
        E 16 83 24 00
        E 16 83 24 00
        E 16 83 24 00
        E 16 83 24 00
        E 16 83 24 00
        E 16 83 24 00
        E 16 83 24 00
        E 16 83 24 00
        E 16 83 24 00
        E 16 83 24 00
        E 16 83 24 00
        E 16 83 24 00
        E 16 83 24 00
        E 16 83 24 00
        E 16 83 24 00
        E 16 83 24 00
        E 16 83 24 00
        E 16 83 24 00
        E 16 83 24 00
        E 16 83 24 00
        E 16 83 24 00
        E 16 83 24 00
        E 16 83 24 00
        E 16 83 24 00
        E 16 83 24 00
        E 16 83 24 00
        E 16 83 24 00
        E 16 83 24 00
        E 16 83 24 00
        E 16 83 24 00
        E 16 83 24 00
        E 16 83 24 00
        E 16 83 24 00
        E 16 83 24 00
        E 16 83 24 00
        E 16 83 24 00
        E 16 83 24 00
        E 16 83 24 00
        E 16 83 24 00
        E 16 83 24 00
        E 16 83 24 00
        E 16 83 24 00
        E 16 83 24 00
        E 16 83 24 00
        E 16 83 24 00
        E 16 83 24 00
        E 16 83 24 00
        E 16 83 24 00
        E 16 83 24 00
        E 16 83 24 00
        E 16 83 24 00
        E 16 83 24 00
        E 16 83 24 00
        E 16 83 24 00
        E 16 83 24 00
        E 16 83 24 00
        E 16 83 24 00
        E 16 83 24 00
        E 16 83 24 00
        E 16 83 24 00
        E 16 83 24 00
        E 16 83 24 00
        E 16 83 24 00
        E 16 83 24 00
        E 16 83 24 00
        E 16 83 24 00
        E 16 83 24 00
        E 16 83 24 00
        E 16 83 24 00
        E 16 83 24 00
        E 16 83 24 00
        E 16 83 24 00
        E 16 83 24 00
        E 16 83 24 00
        E 16 83 24 00
        E 16 83 24 00
        E 16 83 24 00
        E 16 83 24 00
        E 16 83 24 00
        E 16 83 24 00
        E 16 83 24 00
        E 16 83 24 00
        E 16 83 24 00
        E 16 83 24 00
        E 16 83 24 00
        E 16 83 24 00
        E 16 83 24 00
        E 16 83 24 00
        E 16 83 24 00
        E 16 83 24 00
        E 16 83 24 00
        E 16 83 24 00
        E 16 83 24 00
        E 16 83 24 00
        E 16 83 24 00
        E 16 83 24 00
        E 16 83 24 00
        E 16 83 24 00
        E 16 83 24 00
        E 16 83 24 00
        E 16 83 24 00
        E 16 83 24 00
        E 16 83 24 00
        E 16 83 24 00
        E 16 83 24 00
        E 16 83 24 00
        E 16 83 24 00
        E 16 83 24 00
        E 16 83 24 00
        E 16 83 24 00
        E 16 83 24 00
        E 16 83 24 00
        E 16 83 24 00
        E 16 83 24 00
        E 16 83 24 00
        E 16 83 24 00
        E 16 83 24 00
        E 16 83 24 00
        E 16 83 24 00
        E 16 83 24 00
        E 16 83 24 00
        E 16 83 24 00
        E 16 83 24 00
        E 16 83 24 00
        E 16 83 24 00
        E 16 83 24 00
        E 16 83 24 00
        E 16 83 24 00
        E 16 83 24 00
        E 16 83 24 00
        E 16 83 24 00
        E 16 83 24 00
        E 16 83 24 00
        E 16 83 24 00
        E 16 83 24 00
        E 16 83 24 00
        E 16 83 24 00
        E 16 83 24 00
        E 16 83 24 00
        E 16 83 24 00
        E 16 83 24 00
        E 16 83 24 00
        E 16 83 24 00
        E 16 83 24 00
        E 16 83 24 00
        E 16 83 24 00
        E 16 83 24 00
        E 16 83 24 00
        E 16 83 24 00
        E 16 83 24 00
        E 16 83 24 00
        E 16 83 24 00
        E 16 83 24 00
        E 16 83 24 00
        E 16 83 24 00
        E 16 83 24 00
        E 16 83 24 00
        E 16 83 24 00
        E 16 83 24 00
        E 16 83 24 00
        E 16 83 24 00
        E 16 83 24 00
        E 16 83 24 00
        E 16 83 24 00
        E 16 83 24 00
        E 16 83 24 00
        E 16 83 24 00
        E 16 83 24 00
        E 16 83 24 00
        E 16 83 24 00
        E 16 83 24 00
        E 16 83 24 00
        E 16 83 24 00
        E 16 83 24 00
        E 16 83 24 00
        E 16 83 24 00
        E 16 83 24 00
        E 16 83 24 00
        E 16 83 24 00
        E 16 83 24 00
        E 16 83 24 00
        E 16 83 24 00
        E 16 83 24 00
        E 16 83 24 00
        E 16 83 24 00
        E 16 83 24 00
        E 16 83 24 00
        E 16 83 24 00
        E 16 83 24 00
        E 16 83 24 00
        E 16 83 24 00
        E 16 83 24 00
        E 16 83 24 00
        E 16 83 24 00
        E 16 83 24 00
        E 16 83 24 00
        E 16 83 24 00
        E 16 83 24 00
        E 16 83 24 00
        E 16 83 24 00
        E 16 83 24 00
        E 16 83 24 00
        E 16 83 24 00
        E 16 83 24 00
        E 16 83 24 00
        E 16 83 24 00
        E 16 83 24 00
        E 16 83 24 00
        E 16 83 24 00
        E 16 83 24 00
        E 16 83 24 00
        E 16 83 24 00
        E 16 83 24 00
        E 16 83 24 00
        E 16 83 24 00
        E 16 83 24 00
        E 16 83 24 00
        E 16 83 24 00
        E 16 83 24 00
        E 16 83 24 00
        E 16 83 24 00
        E 16 83 24 00
        E 16 83 24 00
        E 16 83 24 00
        E 16 83 24 00
        E 16 83 24 00
        E 16 83 24 00
        E 16 83 24 00
        E 16 83 24 00
        E 16 83 24 00
        E 16 83 24 00
        E 16 83 24 00
        E 16 83 24 00
        E 16 83 24 00
        E 16 83 24 00
        E 16 83 24 00
        E 16 83 24 00
        E 16 83 24 00
        E 16 83 24 00
        E 16 83 24 00
        E 16 83 24 00
        E 16 83 24 00
        E 16 83 24 00
        E 16 83 24 00
        E 16 83 24 00
        E 16 83 24 00
        E 16 83 24 00
        E 16 83 24 00
        E 16 83 24 00
        E 16 83 24 00
        E 16 83 24 00
        E 16 83 24 00
        E 16 83 24 00
        E 16 83 24 00
        E 16 83 24 00
        E 16 83 24 00
        E 16 83 24 00
        E 16 83 24 00
        E 16 83 24 00
        E 16 83 24 00
        E 16 83 24 00
        E 16 83 24 00
        E 16 83 24 00
        E 16 83 24 00
        E 16 83 24 00
        E 16 83 24 00
        E 16 83 24 00
        E 16 83 24 00
        E 16 83 24 00
        E 16 83 24 00
        E 16 83 24 00
        E 16 83 24 00
        E 16 83 24 00
        E 16 83 24 00
        E 16 83 24 00
        E 16 83 24 00
        E 16 83 24 00
        E 16 83 24 00
        E 16 83 24 00
        E 16 83 24 00
        E 16 83 24 00
        E 16 83 24 00
        E 16 83 24 00
        E 16 83 24 00
        E 16 83 24 00
        E 16 83 24 00
        E 16 83 24 00
        E 16 83 24 00
        E 16 83 24 00
        E 16 83 24 00
        E 16 83 24 00
        E 16 83 24 00
        E 16 83 24 00
        E 16 83 24 00
        E 16 83 24 00
        E 16 83 24 00
        E 16 83 24 00
        E 16 83 24 00
        E 16 83 24 00
        E 16 83 24 00
        E 16 83 24 00
        E 16 83 24 00
        E 16 83 24 00
        E 16 83 24 00
        E 16 83 24 00
        E 16 83 24 00
        E 16 83 24 00
        E 16 83 24 00
        E 16 83 24 00
        E 16 83 24 00
        E 16 83 24 00
        E 16 83 24 00
        E 16 83 24 00
        E 16 83 24 00
        E 16 83 24 00
        E 16 83 24 00
        E 16 83 24 00
        E 16 83 24 00
        E 16 83 24 00
        E 16 83 24 00
        E 16 83 24 00
        E 16 83 24 00
        E 16 83 24 00
        E 16 83 24 00
        E 16 83 24 00
        E 16 83 24 00
        E 16 83 24 00
        E 16 83 24 00
        E 16 83 24 00
        E 16 83 24 00
        E 16 83 24 00
        E 16 83 24 00
        E 16 83 24 00
        E 16 83 24 00
        E 16 83 24 00
        E 16 83 24 00
        E 16 83 24 00
        E 16 83 24 00
        E 16 83 24 00
        E 16 83 24 00
        E 16 83 24 00
        E 16 83 24 00
        E 16 83 24 00
        E 16 83 24 00
        E 16 83 24 00
        E 16 83 24 00
        E 16 83 24 00
        E 16 83 24 00
        E 16 83 24 00
        E 16 83 24 00
        E 16 83 24 00
        E 16 83 24 00
        E 16 83 24 00
        E 16 83 24 00
        E 16 83 24 00
        E 16 83 24 00
        E 16 83 24 00
        E 16 83 24 00
        E 16 83 24 00
        E 16 83 24 00
        E 16 83 24 00
        E 16 83 24 00
        E 16 83 24 00
        E 16 83 24 00
        E 16 83 24 00
        E 16 83 24 00
        E 16 83 24 00
        E 16 83 24 00
        E 16 83 24 00
        E 16 83 24 00
        E 16 83 24 00
        E 16 83 24 00
        E 16 83 24 00
        E 16 83 24 00
        E 16 83 24 00
        E 16 83 24 00
        E 16 83 24 00
        E 16 83 24 00
        E 16 83 24 00
        E 16 83 24 00
        E 16 83 24 00
        E 16 83 24 00
        E 16 83 24 00
        E 16 83 24 00
        E 16 83 24 00
        E 16 83 24 00
        E 16 83 24 00
        E 16 83 24 00
        E 16 83 24 00
        E 16 83 24 00
        E 16 83 24 00
        E 16 83 24 00
        E 16 83 24 00
        E 16 83 24 00
        E 16 83 24 00
        E 16 83 24 00
        E 16 83 24 00
        E 16 83 24 00
        E 16 83 24 00
        E 16 83 24 00
        E 16 83 24 00
        E 16 83 24 00
        E 16 83 24 00
        E 16 83 24 00
        E 16 83 24 00
        E 16 83 24 00
        E 16 83 24 00
        E 16 83 24 00
        E 16 83 24 00
        E 16 83 24 00
        E 16 83 24 00
        E 16 83 24 00
        E 16 83 24 00
        E 16 83 24 00
        E 16 83 24 00
        E 16 83 24 00
        E 16 83 24 00
        E 16 83 24 00
        E 16 83 24 00
        E 16 83 24 00
        E 16 83 24 00
        E 16 83 24 00
        E 16 83 24 00
        E 16 83 24 00
        E 16 83 24 00
        E 16 83 24 00
        E 16 83 24 00
        E 16 83 24 00
        E 16 83 24 00
        E 16 83 24 00
        E 16 83 24 00
        E 16 83 24 00
        E 16 83 24 00
        E 16 83 24 00
        E 16 83 24 00
        E 16 83 24 00
        E 16 83 24 00
        E 16 83 24 00
        E 16 83 24 00
        E 16 83 24 00
        E 16 83 24 00
        E 16 83 24 00
        E 16 83 24 00
        E 16 83 24 00
        E 16 83 24 00
        E 16 83 24 00
        E 16 83 24 00
        E 16 83 24 00
        E 16 83 24 00
        E 16 83 24 00
        E 16 83 24 00
        E 16 83 24 00
        E 16 83 24 00
        E 16 83 24 00
        E 16 83 24 00
        E 16 83 24 00
        E 16 83 24 00
        E 16 83 24 00
        E 16 83 24 00
        E 16 83 24 00
        E 16 83 24 00
        E 16 83 24 00
        E 16 83 24 00
        E 16 83 24 00
        E 16 83 24 00
        E 16 83 24 00
        E 16 83 24 00
        E 16 83 24 00
        E 16 83 24 00
        E 16 83 24 00
        E 16 83 24 00
        E 16 83 24 00
        E 16 83 24 00
        E 16 83 24 00
        E 16 83 24 00
        E 16 83 24 00
        E 16 83 24 00
        E 16 83 24 00
        E 16 83 24 00
        E 16 83 24 00
        E 16 83 24 00
        E 16 83 24 00
        E 16 83 24 00
        E 16 83 24 00
        E 16 83 24 00
        E 16 83 24 00
        E 16 83 24 00
        E 16 83 24 00
        E 16 83 24 00
        E 16 83 24 00
        E 16 83 24 00
        E 16 83 24 00
        E 16 83 24 00
        E 16 83 24 00
        E 16 83 24 00
        E 16 83 24 00
        E 16 83 24 00
        E 16 83 24 00
        E 16 83 24 00
        E 16 83 24 00
        E 16 83 24 00
        E 16 83 24 00
        E 16 83 24 00
        E 16 83 24 00
        E 16 83 24 00
        E 16 83 24 00
        E 16 83 24 00
        E 16 83 24 00
        E 16 83 24 00
        E 16 83 24 00
        E 16 83 24 00
        E 16 83 24 00
        E 16 83 24 00
        E 16 83 24 00
        E 16 83 24 00
        E 16 83 24 00
        E 16 83 24 00
        E 16 83 24 00
        E 16 83 24 00
        E 16 83 24 00
        E 16 83 24 00
        E 16 83 24 00
        E 16 83 24 00
        E 16 83 24 00
        E 16 83 24 00
        E 16 83 24 00
        E 16 83 24 00
        E 16 83 24 00
        E 16 83 24 00
        E 16 83 24 00
        E 16 83 24 00
        E 16 83 24 00
        E 16 83 24 00
        E 16 83 24 00
        E 16 83 24 00
        E 16 83 24 00
        E 16 83 24 00
        E 16 83 24 00
        E 16 83 24 00
        E 16 83 24 00
        E 16 83 24 00
        E 16 83 24 00
        E 16 83 24 00
        E 16 83 24 00
        E 16 83 24 00
        E 16 83 24 00
        E 16 83 24 00
        E 16 83 24 00
        E 16 83 24 00
        E 16 83 24 00
        E 16 83 24 00
        E 16 83 24 00
        E 16 83 24 00
        E 16 83 24 00
        E 16 83 24 00
        E 16 83 24 00
        E 16 83 24 00
        E 16 83 24 00
        E 16 83 24 00
        E 16 83 24 00
        E 16 83 24 00
        E 16 83 24 00
        E 16 83 24 00
        E 16 83 24 00
        E 16 83 24 00
        E 16 83 24 00
        E 16 83 24 00
        E 16 83 24 00
        E 16 83 24 00
        E 16 83 24 00
        E 16 83 24 00
        E 16 83 24 00
        E 16 83 24 00
        E 16 83 24 00
        E 16 83 24 00
        E 16 83 24 00
        E 16 83 24 00
        E 16 83 24 00
        E 16 83 24 00
        E 16 83 24 00
        E 16 83 24 00
        E 16 83 24 00
        E 16 83 24 00
        E 16 83 24 00
        E 16 83 24 00
        E 16 83 24 00
        E 16 83 24 00
        E 16 83 24 00
        E 16 83 24 00
        E 16 83 24 00
        E 16 83 24 00
        E 16 83 24 00
        E 16 83 24 00
        E 16 83 24 00
        E 16 83 24 00
        E 16 83 24 00
        E 16 83 24 00
        E 16 83 24 00
        E 16 83 24 00
        E 16 83 24 00
        E 16 83 24 00
        E 16 83 24 00
        E 16 83 24 00
        E 16 83 24 00
        E 16 83 24 00
        E 16 83 24 00
        E 16 83 24 00
        E 16 83 24 00
        E 16 83 24 00
        E 16 83 24 00
        E 16 83 24 00
        E 16 83 24 00
        E 16 83 24 00
        E 16 83 24 00
        E 16 83 24 00
        E 16 83 24 00
        E 16 83 24 00
        E 16 83 24 00
        E 16 83 24 00
        E 16 83 24 00
        E 16 83 24 00
        E 16 83 24 00
        E 16 83 24 00
        E 16 83 24 00
        E 16 83 24 00
        E 16 83 24 00
        E 16 83 24 00
        E 16 83 24 00
        E 16 83 24 00
        E 16 83 24 00
        E 16 83 24 00
        E 16 83 24 00
        E 16 83 24 00
        E 16 83 24 00
        E 16 83 24 00
        E 16 83 24 00
        E 16 83 24 00
        E 16 83 24 00
        E 16 83 24 00
        E 16 83 24 00
        E 16 83 24 00
        E 16 83 24 00
        E 16 83 24 00
        E 16 83 24 00
        E 16 83 24 00
        E 16 83 24 00
        E 16 83 24 00
        E 16 83 24 00
        E 16 83 24 00
        E 16 83 24 00
        E 16 83 24 00
        E 16 83 24 00
        E 16 83 24 00
        E 16 83 24 00
        E 16 83 24 00
        E 16 83 24 00
        E 16 83 24 00
        E 16 83 24 00
        E 16 83 24 00
        E 16 83 24 00
        E 16 83 24 00
        E 16 83 24 00
        E 16 83 24 00
        E 16 83 24 00
        E 16 83 24 00
        E 16 83 24 00
        E 16 83 24 00
        E 16 83 24 00
        E 16 83 24 00
        E 16 83 24 00
        E 16 83 24 00
        E 16 83 24 00
        E 16 83 24 00
        E 16 83 24 00
        E 16 83 24 00
        E 16 83 24 00
        E 16 83 24 00
        E 16 83 24 00
        E 16 83 24 00
        E 16 83 24 00
        E 16 83 24 00
        E 16 83 24 00
        E 16 83 24 00
        E 16 83 24 00
        E 16 83 24 00
        E 16 83 24 00
        E 16 83 24 00
        E 16 83 24 00
        E 16 83 24 00
        E 16 83 24 00
        E 16 83 24 00
        E 16 83 24 00
        E 16 83 24 00
        E 16 83 24 00
        E 16 83 24 00
        E 16 83 24 00
        E 16 83 24 00
        E 16 83 24 00
        E 16 83 24 00
        E 16 83 24 00
        E 16 83 24 00
        E 16 83 24 00
        E 16 83 24 00
        E 16 83 24 00
        E 16 83 24 00
        E 16 83 24 00
        E 16 83 24 00
        E 16 83 24 00
        E 16 83 24 00
        E 16 83 24 00
        E 16 83 24 00
        E 16 83 24 00
        E 16 83 24 00
        E 16 83 24 00
        E 16 83 24 00
        E 16 83 24 00
        E 16 83 24 00
        E 16 83 24 00
        E 16 83 24 00
        E 16 83 24 00
        E 16 83 24 00
        E 16 83 24 00
        E 16 83 24 00
        E 16 83 24 00
        E 16 83 24 00
        E 16 83 24 00
        E 16 83 24 00
        E 16 83 24 00
        E 16 83 24 00
        E 16 83 24 00
        E 16 83 24 00
        E 16 83 24 00
        E 16 83 24 00
        E 16 83 24 00
        E 16 83 24 00
        E 16 83 24 00
        E 16 83 24 00
        E 16 83 24 00
        E 16 83 24 00
        E 16 83 24 00
        E 16 83 24 00
        E 16 83 24 00
        E 16 83 24 00
        E 16 83 24 00
        E 16 83 24 00
        E 16 83 24 00
        E 16 83 24 00
        E 16 83 24 00
        E 16 83 24 00
        E 16 83 24 00
        E 16 83 24 00
        E 16 83 24 00
        E 16 83 24 00
        E 16 83 24 00
        E 16 83 24 00
        E 16 83 24 00
        E 16 83 24 00
        E 16 83 24 00
        E 16 83 24 00
        E 16 83 24 00
        E 16 83 24 00
        E 16 83 24 00
        E 16 83 24 00
        E 16 83 24 00
        E 16 83 24 00
        E 16 83 24 00
        E 16 83 24 00
        E 16 83 24 00
        E 16 83 24 00
        E 16 83 24 00
        E 16 83 24 00
        E 16 83 24 00
        E 16 83 24 00
        E 16 83 24 00
        E 16 83 24 00
        E 16 83 24 00
        E 16 83 24 00
        E 16 83 24 00
        E 16 83 24 00
        E 16 83 24 00
        E 16 83 24 00
        E 16 83 24 00
        E 16 83 24 00
        E 16 83 24 00
        E 16 83 24 00
        E 16 83 24 00
        E 16 83 24 00
        E 16 83 24 00
        E 16 83 24 00
        E 16 83 24 00
        E 16 83 24 00
        E 16 83 24 00
        E 16 83 24 00
        E 16 83 24 00
        E 16 83 24 00
        E 16 83 24 00
        E 16 83 24 00
        E 16 83 24 00
        E 16 83 24 00
        E 16 83 24 00
        E 16 83 24 00
        E 16 83 24 00
        E 16 83 24 00
        E 16 83 24 00
        E 16 83 24 00
        E 16 83 24 00
        E 16 83 24 00
        E 16 83 24 00
        E 16 83 24 00
        E 16 83 24 00
        E 16 83 24 00
        E 16 83 24 00
        E 16 83 24 00
        E 16 83 24 00
        E 16 83 24 00
        E 16 83 24 00
        E 16 83 24 00
        E 16 83 24 00
        E 16 83 24 00
        E 16 83 24 00
        E 16 83 24 00
        E 16 83 24 00
        E 16 83 24 00
        E 16 83 24 00
        E 16 83 24 00
        E 16 83 24 00
        E 16 83 24 00
        E 16 83 24 00
        E 16 83 24 00
        E 16 83 24 00
        E 16 83 24 00
        E 16 83 24 00
        E 16 83 24 00
        E 16 83 24 00
        E 16 83 24 00
        E 16 83 24 00
        E 16 83 24 00
        E 16 83 24 00
        E 16 83 24 00
        E 16 83 24 00
        E 16 83 24 00
        E 16 83 24 00
        E 16 83 24 00
        E 16 83 24 00
        E 16 83 24 00
        E 16 83 24 00
        E 16 83 24 00
        E 16 83 24 00
        E 16 83 24 00
        E 16 83 24 00
        E 16 83 24 00
        E 16 83 24 00
        E 16 83 24 00
        E 16 83 24 00
        E 16 83 24 00
        E 16 83 24 00
        E 16 83 24 00
        E 16 83 24 00
        E 16 83 24 00
        E 16 83 24 00
        E 16 83 24 00
        E 16 83 24 00
        E 16 83 24 00
        E 16 83 24 00
        E 16 83 24 00
        E 16 83 24 00
        E 16 83 24 00
        E 16 83 24 00
        E 16 83 24 00
        E 16 83 24 00
        E 16 83 24 00
        E 16 83 24 00
        E 16 83 24 00
        E 16 83 24 00
        E 16 83 24 00
        E 16 83 24 00
        E 16 83 24 00
        E 16 83 24 00
        E 16 83 24 00
        E 16 83 24 00
        E 16 83 24 00
        E 16 83 24 00
        E 16 83 24 00
        E 16 83 24 00
        E 16 83 24 00
        E 16 83 24 00
        E 16 83 24 00
        E 16 83 24 00
        E 16 83 24 00
        E 16 83 24 00
        E 16 83 24 00
        E 16 83 24 00
        E 16 83 24 00
        E 16 83 24 00
        E 16 83 24 00
        E 16 83 24 00
        E 16 83 24 00
        E 16 83 24 00
        E 16 83 24 00
        E 16 83 24 00
        E 16 83 24 00
        E 16 83 24 00
        E 16 83 24 00
        E 16 83 24 00
        E 16 83 24 00
        E 16 83 24 00
        E 16 83 24 00
        E 16 83 24 00
        E 16 83 24 00
        E 16 83 24 00
        E 16 83 24 00
        E 16 83 24 00
        E 16 83 24 00
        E 16 83 24 00
        E 16 83 24 00
        E 16 83 24 00
        E 16 83 24 00
        E 16 83 24 00
        E 16 83 24 00
        E 16 83 24 00
        E 16 83 24 00
        E 16 83 24 00
        E 16 83 24 00
        E 16 83 24 00
        E 16 83 24 00
        E 16 83 24 00
        E 16 83 24 00
        E 16 83 24 00
        E 16 83 24 00
        E 16 83 24 00
        E 16 83 24 00
        E 16 83 24 00
        E 16 83 24 00
        E 16 83 24 00
        E 16 83 24 00
        E 16 83 24 00
        E 16 83 24 00
        E 16 83 24 00
        E 16 83 24 00
        E 16 83 24 00
        E 16 83 24 00
        E 16 83 24 00
        E 16 83 24 00
        E 16 83 24 00
        E 16 83 24 00
        E 16 83 24 00
        E 16 83 24 00
        E 16 83 24 00
        E 16 83 24 00
        E 16 83 24 00
        E 16 83 24 00
        E 16 83 24 00
        E 16 83 24 00
        E 16 83 24 00
        E 16 83 24 00
        E 16 83 24 00
        E 16 83 24 00
        E 16 83 24 00
        E 16 83 24 00
        E 16 83 24 00
        E 16 83 24 00
        E 16 83 24 00
        E 16 83 24 00
        E 16 83 24 00
        E 16 83 24 00
        E 16 83 24 00
        E 16 83 24 00
        E 16 83 24 00
        E 16 83 24 00
        E 16 83 24 00
        E 16 83 24 00
        E 16 83 24 00
        E 16 83 24 00
        E 16 83 24 00
        E 16 83 24 00
        E 16 83 24 00
        E 16 83 24 00
        E 16 83 24 00
        E 16 83 24 00
        E 16 83 24 00
        E 16 83 24 00
        E 16 83 24 00
        E 16 83 24 00
        E 16 83 24 00
        E 16 83 24 00
        E 16 83 24 00
        E 16 83 24 00
        E 16 83 24 00
        E 16 83 24 00
        E 16 83 24 00
        E 16 83 24 00
        E 16 83 24 00
        E 16 83 24 00
        E 16 83 24 00
        E 16 83 24 00
        E 16 83 24 00
        E 16 83 24 00
        E 16 83 24 00
        E 16 83 24 00
        E 16 83 24 00
        E 16 83 24 00
        E 16 83 24 00
        E 16 83 24 00
        E 16 83 24 00
        E 16 83 24 00
        E 16 83 24 00
        E 16 83 24 00
        E 16 83 24 00
        E 16 83 24 00
        E 16 83 24 00
        E 16 83 24 00
        E 16 83 24 00
        E 16 83 24 00
        E 16 83 24 00
        E 16 83 24 00
        E 16 83 24 00
        E 16 83 24 00
        E 16 83 24 00
        E 16 83 24 00
        E 16 83 24 00
        E 16 83 24 00
        E 16 83 24 00
        E 16 83 24 00
        E 16 83 24 00
        E 16 83 24 00
        E 16 83 24 00
        E 16 83 24 00
        E 16 83 24 00
        E 16 83 24 00
        E 16 83 24 00
        E 16 83 24 00
        E 16 83 24 00
        E 16 83 24 00
        E 16 83 24 00
        E 16 83 24 00
        E 16 83 24 00
        E 16 83 24 00
        E 16 83 24 00
        E 16 83 24 00
        E 16 83 24 00
        E 16 83 24 00
        E 16 83 24 00
        E 16 83 24 00
        E 16 83 24 00
        E 16 83 24 00
        E 16 83 24 00
        E 16 83 24 00
        E 16 83 24 00
        E 16 83 24 00
        E 16 83 24 00
        E 16 83 24 00
        E 16 83 24 00
        E 16 83 24 00
        E 16 83 24 00
        E 16 83 24 00
        E 16 83 24 00
        E 16 83 24 00
        E 16 83 24 00
        E 16 83 24 00
        E 16 83 24 00
        E 16 83 24 00
        E 16 83 24 00
        E 16 83 24 00
        E 16 83 24 00
        E 16 83 24 00
        E 16 83 24 00
        E 16 83 24 00
        E 16 83 24 00
        E 16 83 24 00
        E 16 83 24 00
        E 16 83 24 00
        E 16 83 24 00
        E 16 83 24 00
        E 16 83 24 00
        E 16 83 24 00
        E 16 83 24 00
        E 16 83 24 00
        E 16 83 24 00
        E 16 83 24 00
        E 16 83 24 00
        E 16 83 24 00
        E 16 83 24 00
        E 16 83 24 00
        E 16 83 24 00
        E 16 83 24 00
        E 16 83 24 00
        E 16 83 24 00
        E 16 83 24 00
        E 16 83 24 00
        E 16 83 24 00
        E 16 83 24 00
        E 16 83 24 00
        E 16 83 24 00
        E 16 83 24 00
        E 16 83 24 00
        E 16 83 24 00
        E 16 83 24 00
        E 16 83 24 00
        E 16 83 24 00
        E 16 83 24 00
        E 16 83 24 00
        E 16 83 24 00
        E 16 83 24 00
        E 16 83 24 00
        E 16 83 24 00
        E 16 83 24 00
        E 16 83 24 00
        E 16 83 24 00
        E 16 83 24 00
        E 16 83 24 00
        E 16 83 24 00
        E 16 83 24 00
        E 16 83 24 00
        E 16 83 24 00
        E 16 83 24 00
        E 16 83 24 00
        E 16 83 24 00
        E 16 83 24 00
        E 16 83 24 00
        E 16 83 24 00
        E 16 83 24 00
        E 16 83 24 00
        E 16 83 24 00
        E 16 83 24 00
        E 16 83 24 00
        E 16 83 24 00
        E 16 83 24 00
        E 16 83 24 00
        E 16 83 24 00
        E 16 83 24 00
        E 16 83 24 00
        E 16 83 24 00
        E 16 83 24 00
        E 16 83 24 00
        E 16 83 24 00
        E 16 83 24 00
        E 16 83 24 00
        E 16 83 24 00
        E 16 83 24 00
        E 16 83 24 00
        E 16 83 24 00
        E 16 83 24 00
        E 16 83 24 00
        E 16 83 24 00
        E 16 83 24 00
        E 16 83 24 00
        E 16 83 24 00
        E 16 83 24 00
        E 16 83 24 00
        E 16 83 24 00
        E 16 83 24 00
        E 16 83 24 00
        E 16 83 24 00
        E 16 83 24 00
        E 16 83 24 00
        E 16 83 24 00
        E 16 83 24 00
        E 16 83 24 00
        E 16 83 24 00
        E 16 83 24 00
        E 16 83 24 00
        E 16 83 24 00
        E 16 83 24 00
        E 16 83 24 00
        E 16 83 24 00
        E 16 83 24 00
        E 16 83 24 00
        E 16 83 24 00
        E 16 83 24 00
        E 16 83 24 00
        E 16 83 24 00
        E 16 83 24 00
        E 16 83 24 00
        E 16 83 24 00
        E 16 83 24 00
        E 16 83 24 00
        E 16 83 24 00
        E 16 83 24 00
        E 16 83 24 00
        E 16 83 24 00
        E 16 83 24 00
        E 16 83 24 00
        E 16 83 24 00
        E 16 83 24 00
        E 16 83 24 00
        E 16 83 24 00
        E 16 83 24 00
        E 16 83 24 00
        E 16 83 24 00
        E 16 83 24 00
        E 16 83 24 00
        E 16 83 24 00
        E 16 83 24 00
        E 16 83 24 00
        E 16 83 24 00
        E 16 83 24 00
        E 16 83 24 00
        E 16 83 24 00
        E 16 83 24 00
        E 16 83 24 00
        E 16 83 24 00
        E 16 83 24 00
        E 16 83 24 00
        E 16 83 24 00
        E 16 83 24 00
        E 16 83 24 00
        E 16 83 24 00
        E 16 83 24 00
        E 16 83 24 00
        E 16 83 24 00
        E 16 83 24 00
        E 16 83 24 00
        E 16 83 24 00
        E 16 83 24 00
        E 16 83 24 00
        E 16 83 24 00
        E 16 83 24 00
        E 16 83 24 00
        E 16 83 24 00
        E 16 83 24 00
        E 16 83 24 00
        E 16 83 24 00
        E 16 83 24 00
        E 16 83 24 00
        E 16 83 24 00
        E 16 83 24 00
        E 16 83 24 00
        E 16 83 24 00
        E 16 83 24 00
        E 16 83 24 00
        E 16 83 24 00
        E 16 83 24 00
        E 16 83 24 00
        E 16 83 24 00
        E 16 83 24 00
        E 16 83 24 00
        E 16 83 24 00
        E 16 83 24 00
        E 16 83 24 00
        E 16 83 24 00
        E 16 83 24 00
        E 16 83 24 00
        E 16 83 24 00
        E 16 83 24 00
        E 16 83 24 00
        E 16 83 24 00
        E 16 83 24 00
        E 16 83 24 00
        E 16 83 24 00
        E 16 83 24 00
        E 16 83 24 00
        E 16 83 24 00
        E 16 83 24 00
        E 16 83 24 00
        E 16 83 24 00
        E 16 83 24 00
        E 16 83 24 00
        E 16 83 24 00
        E 16 83 24 00
        E 16 83 24 00
        E 16 83 24 00
        E 16 83 24 00
        E 16 83 24 00
        E 16 83 24 00
        E 16 83 24 00
        E 16 83 24 00
        E 16 83 24 00
        E 16 83 24 00
        E 16 83 24 00
        E 16 83 24 00
        E 16 83 24 00
        E 16 83 24 00
        E 16 83 24 00
        E 16 83 24 00
        E 16 83 24 00
        E 16 83 24 00
        E 16 83 24 00
        E 16 83 24 00
        E 16 83 24 00
        E 16 83 24 00
        E 16 83 24 00
        E 16 83 24 00
        E 16 83 24 00
        E 16 83 24 00
        E 16 83 24 00
        E 16 83 24 00
        E 16 83 24 00
        E 16 83 24 00
        E 16 83 24 00
        E 16 83 24 00
        E 16 83 24 00
        E 16 83 24 00
        E 16 83 24 00
        E 16 83 24 00
        E 16 83 24 00
        E 16 83 24 00
        E 16 83 24 00
        E 16 83 24 00
        E 16 83 24 00
        E 16 83 24 00
        E 16 83 24 00
        E 16 83 24 00
        E 16 83 24 00
        E 16 83 24 00
        E 16 83 24 00
        E 16 83 24 00
        E 16 83 24 00
        E 16 83 24 00
        E 16 83 24 00
        E 16 83 24 00
        E 16 83 24 00
        E 16 83 24 00
        E 16 83 24 00
        E 16 83 24 00
        E 16 83 24 00
        E 16 83 24 00
        E 16 83 24 00
        E 16 83 24 00
        E 16 83 24 00
        E 16 83 24 00
        E 16 83 24 00
        E 16 83 24 00
        E 16 83 24 00
        E 16 83 24 00
        E 16 83 24 00
        E 16 83 24 00
        E 16 83 24 00
        E 16 83 24 00
        E 16 83 24 00
        E 16 83 24 00
        E 16 83 24 00
        E 16 83 24 00
        E 16 83 24 00
        E 16 83 24 00
        E 16 83 24 00
        E 16 83 24 00
        E 16 83 24 00
        E 16 83 24 00
        E 16 83 24 00
        E 16 83 24 00
        E 16 83 24 00
        E 16 83 24 00
        E 16 83 24 00
        E 16 83 24 00
        E 16 83 24 00
        E 16 83 24 00
        E 16 83 24 00
        E 16 83 24 00
        E 16 83 24 00
        E 16 83 24 00
        E 16 83 24 00
        E 16 83 24 00
        E 16 83 24 00
        E 16 83 24 00
        E 16 83 24 00
        E 16 83 24 00
        E 16 83 24 00
        E 16 83 24 00
        E 16 83 24 00
        E 16 83 24 00
        E 16 83 24 00
        E 16 83 24 00
        E 16 83 24 00
        E 16 83 24 00
        E 16 83 24 00
        E 16 83 24 00
        E 16 83 24 00
        E 16 83 24 00
        E 16 83 24 00
        E 16 83 24 00
        E 16 83 24 00
        E 16 83 24 00
        E 16 83 24 00
        E 16 83 24 00
        E 16 83 24 00
        E 16 83 24 00
        E 16 83 24 00
        E 16 83 24 00
        E 16 83 24 00
        E 16 83 24 00
        E 16 83 24 00
        E 16 83 24 00
        E 16 83 24 00
        E 16 83 24 00
        E 16 83 24 00
        E 16 83 24 00
        E 16 83 24 00
        E 16 83 24 00
        E 16 83 24 00
        E 16 83 24 00
        E 16 83 24 00
        E 16 83 24 00
        E 16 83 24 00
        E 16 83 24 00
        E 16 83 24 00
        E 16 83 24 00
        E 16 83 24 00
        E 16 83 24 00
        E 16 83 24 00
        E 16 83 24 00
        E 16 83 24 00
        E 16 83 24 00
        E 16 83 24 00
        E 16 83 24 00
        E 16 83 24 00
        E 16 83 24 00
        E 16 83 24 00
        E 16 83 24 00
        E 16 83 24 00
        E 16 83 24 00
        E 16 83 24 00
        E 16 83 24 00
        E 16 83 24 00
        E 16 83 24 00
        E 16 83 24 00
        E 16 83 24 00
        E 16 83 24 00
        E 16 83 24 00
        E 16 83 24 00
        E 16 83 24 00
        E 16 83 24 00
        E 16 83 24 00
        E 16 83 24 00
        E 16 83 24 00
        E 16 83 24 00
        E 16 83 24 00
        E 16 83 24 00
        E 16 83 24 00
        E 16 83 24 00
        E 16 83 24 00
        E 16 83 24 00
        E 16 83 24 00
        E 16 83 24 00
        E 16 83 24 00
        E 16 83 24 00
        E 16 83 24 00
        E 16 83 24 00
        E 16 83 24 00
        E 16 83 24 00
        E 16 83 24 00
        E 16 83 24 00
        E 16 83 24 00
        E 16 83 24 00
        E 16 83 24 00
        E 16 83 24 00
        E 16 83 24 00
        E 16 83 24 00
        E 16 83 24 00
        E 16 83 24 00
        E 16 83 24 00
        E 16 83 24 00
        E 16 83 24 00
        E 16 83 24 00
        E 16 83 24 00
        E 16 83 24 00
        E 16 83 24 00
        E 16 83 24 00
        E 16 83 24 00
        E 16 83 24 00
        E 16 83 24 00
        E 16 83 24 00
        E 16 83 24 00
        E 16 83 24 00
        E 16 83 24 00
        E 16 83 24 00
        E 16 83 24 00
        E 16 83 24 00
        E 16 83 24 00
        E 16 83 24 00
        E 16 83 24 00
        E 16 83 24 00
        E 16 83 24 00
        E 16 83 24 00
        E 16 83 24 00
        E 16 83 24 00
        E 16 83 24 00
        E 16 83 24 00
        E 16 83 24 00
        E 16 83 24 00
        E 16 83 24 00
        E 16 83 24 00
        E 16 83 24 00
        E 16 83 24 00
        E 16 83 24 00
        E 16 83 24 00
        E 16 83 24 00
        E 16 83 24 00
        E 16 83 24 00
        E 16 83 24 00
        E 16 83 24 00
        E 16 83 24 00
        E 16 83 24 00
        E 16 83 24 00
        E 16 83 24 00
        E 16 83 24 00
        E 16 83 24 00
        E 16 83 24 00
        E 16 83 24 00
        E 16 83 24 00
        E 16 83 24 00
        E 16 83 24 00
        E 16 83 24 00
        E 16 83 24 00
        E 16 83 24 00
        E 16 83 24 00
        E 16 83 24 00
        E 16 83 24 00
        E 16 83 24 00
        E 16 83 24 00
        E 16 83 24 00
        E 16 83 24 00
        E 16 83 24 00
        E 16 83 24 00
        E 16 83 24 00
        E 16 83 24 00
        E 16 83 24 00
        E 16 83 24 00
        E 16 83 24 00
        E 16 83 24 00
        E 16 83 24 00
        E 16 83 24 00
        E 16 83 24 00
        E 16 83 24 00
        E 16 83 24 00
        E 16 83 24 00
        E 16 83 24 00
        E 16 83 24 00
        E 16 83 24 00
        E 16 83 24 00
        E 16 83 24 00
        E 16 83 24 00
        E 16 83 24 00
        E 16 83 24 00
        E 16 83 24 00
        E 16 83 24 00
        E 16 83 24 00
        E 16 83 24 00
        E 16 83 24 00
        E 16 83 24 00
        E 16 83 24 00
        E 16 83 24 00
        E 16 83 24 00
        E 16 83 24 00
        E 16 83 24 00
        E 16 83 24 00
        E 16 83 24 00
        E 16 83 24 00
        E 16 83 24 00
        E 16 83 24 00
        E 16 83 24 00
        E 16 83 24 00
        E 16 83 24 00
        E 16 83 24 00
        E 16 83 24 00
        E 16 83 24 00
        E 16 83 24 00
        E 16 83 24 00
        E 16 83 24 00
        E 16 83 24 00
        E 16 83 24 00
        E 16 83 24 00
        E 16 83 24 00
        E 16 83 24 00
        E 16 83 24 00
        E 16 83 24 00
        E 16 83 24 00
        E 16 83 24 00
        E 16 83 24 00
        E 16 83 24 00
        E 16 83 24 00
        E 16 83 24 00
        E 16 83 24 00
        E 16 83 24 00
        E 16 83 24 00
        E 16 83 24 00
        E 16 83 24 00
        E 16 83 24 00
        E 16 83 24 00
        E 16 83 24 00
        E 16 83 24 00
        E 16 83 24 00
        E 16 83 24 00
        E 16 83 24 00
        E 16 83 24 00
        E 16 83 24 00
        E 16 83 24 00
        E 16 83 24 00
        E 16 83 24 00
        E 16 83 24 00
        E 16 83 24 00
        E 16 83 24 00
        E 16 83 24 00
        E 16 83 24 00
        E 16 83 24 00
        E 16 83 24 00
        E 16 83 24 00
        E 16 83 24 00
        E 16 83 24 00
        E 16 83 24 00
        E 16 83 24 00
        E 16 83 24 00
        E 16 83 24 00
        E 16 83 24 00
        E 16 83 24 00
        E 16 83 24 00
        E 16 83 24 00
        E 16 83 24 00
        E 16 83 24 00
        E 16 83 24 00
        E 16 83 24 00
        E 16 83 24 00
        E 16 83 24 00
        E 16 83 24 00
        E 16 83 24 00
        E 16 83 24 00
        E 16 83 24 00
        E 16 83 24 00
        E 16 83 24 00
        E 16 83 24 00
        E 16 83 24 00
        E 16 83 24 00
        E 16 83 24 00
        E 16 83 24 00
        E 16 83 24 00
        E 16 83 24 00
        E 16 83 24 00
        E 16 83 24 00
        E 16 83 24 00
        E 16 83 24 00
        E 16 83 24 00
        E 16 83 24 00
        E 16 83 24 00
        E 16 83 24 00
        E 16 83 24 00
        E 16 83 24 00
        E 16 83 24 00
        E 16 83 24 00
        E 16 83 24 00
        E 16 83 24 00
        E 16 83 24 00
        E 16 83 24 00
        E 16 83 24 00
        E 16 83 24 00
        E 16 83 24 00
        E 16 83 24 00
        E 16 83 24 00
        E 16 83 24 00
        E 16 83 24 00
        E 16 83 24 00
        E 16 83 24 00
        E 16 83 24 00
        E 16 83 24 00
        E 16 83 24 00
        E 16 83 24 00
        E 16 83 24 00
        E 16 83 24 00
        E 16 83 24 00
        E 16 83 24 00
        E 16 83 24 00
        E 16 83 24 00
        E 16 83 24 00
        E 16 83 24 00
        E 16 83 24 00
        E 16 83 24 00
        E 16 83 24 00
        E 16 83 24 00
        E 16 83 24 00
        E 16 83 24 00
        E 16 83 24 00
        E 16 83 24 00
        E 16 83 24 00
        E 16 83 24 00
        E 16 83 24 00
        E 16 83 24 00
        E 16 83 24 00
        E 16 83 24 00
        E 16 83 24 00
        E 16 83 24 00
        E 16 83 24 00
        E 16 83 24 00
        E 16 83 24 00
        E 16 83 24 00
        E 16 83 24 00
        E 16 83 24 00
        E 16 83 24 00
        E 16 83 24 00
        E 16 83 24 00
        E 16 83 24 00
        E 16 83 24 00
        E 16 83 24 00
        E 16 83 24 00
        E 16 83 24 00
        E 16 83 24 00
        E 16 83 24 00
        E 16 83 24 00
        E 16 83 24 00
        E 16 83 24 00
        E 16 83 24 00
        E 16 83 24 00
        E 16 83 24 00
        E 16 83 24 00
        E 16 83 24 00
        E 16 83 24 00
        E 16 83 24 00
        E 16 83 24 00
        E 16 83 24 00
        E 16 83 24 00
        E 16 83 24 00
        E 16 83 24 00
        E 16 83 24 00
        E 16 83 24 00
        E 16 83 24 00
        E 16 83 24 00
        E 16 83 24 00
        E 16 83 24 00
        E 16 83 24 00
        E 16 83 24 00
        E 16 83 24 00
        E 16 83 24 00
        E 16 83 24 00
        E 16 83 24 00
        E 16 83 24 00
        E 16 83 24 00
        E 16 83 24 00
        E 16 83 24 00
        E 16 83 24 00
        E 16 83 24 00
        E 16 83 24 00
        E 16 83 24 00
        E 16 83 24 00
        E 16 83 24 00
        E 16 83 24 00
        E 16 83 24 00
        E 16 83 24 00
        E 16 83 24 00
        E 16 83 24 00
        E 16 83 24 00
        E 16 83 24 00
        E 16 83 24 00
        E 16 83 24 00
        E 16 83 24 00
        E 16 83 24 00
        E 16 83 24 00
        E 16 83 24 00
        E 16 83 24 00
        E 16 83 24 00
        E 16 83 24 00
        E 16 83 24 00
        E 16 83 24 00
        E 16 83 24 00
        E 16 83 24 00
        E 16 83 24 00
        E 16 83 24 00
        E 16 83 24 00
        E 16 83 24 00
        E 16 83 24 00
        E 16 83 24 00
        E 16 83 24 00
        E 16 83 24 00
        E 16 83 24 00
        E 16 83 24 00
        E 16 83 24 00
        E 16 83 24 00
        E 16 83 24 00
        E 16 83 24 00
        E 16 83 24 00
        E 16 83 24 00
        E 16 83 24 00
        E 16 83 24 00
        E 16 83 24 00
        E 16 83 24 00
        E 16 83 24 00
        E 16 83 24 00
        E 16 83 24 00
        E 16 83 24 00
        E 16 83 24 00
        E 16 83 24 00
        E 16 83 24 00
        E 16 83 24 00
        E 16 83 24 00
        E 16 83 24 00
        E 16 83 24 00
        E 16 83 24 00
        E 16 83 24 00
        E 16 83 24 00
        E 16 83 24 00
        E 16 83 24 00
        E 16 83 24 00
        E 16 83 24 00
        E 16 83 24 00
        E 16 83 24 00
        E 16 83 24 00
        E 16 83 24 00
        E 16 83 24 00
        E 16 83 24 00
        E 16 83 24 00
        E 16 83 24 00
        E 16 83 24 00
        E 16 83 24 00
        E 16 83 24 00
        E 16 83 24 00
        E 16 83 24 00
        E 16 83 24 00
        E 16 83 24 00
        E 16 83 24 00
        E 16 83 24 00
        E 16 83 24 00
        E 16 83 24 00
        E 16 83 24 00
        E 16 83 24 00
        E 16 83 24 00
        E 16 83 24 00
        E 16 83 24 00
        E 16 83 24 00
        E 16 83 24 00
        E 16 83 24 00
        E 16 83 24 00
        E 16 83 24 00
        E 16 83 24 00
        E 16 83 24 00
        E 16 83 24 00
        E 16 83 24 00
        E 16 83 24 00
        E 16 83 24 00
        E 16 83 24 00
        E 16 83 24 00
        E 16 83 24 00
        E 16 83 24 00
        E 16 83 24 00
        E 16 83 24 00
        E 16 83 24 00
        E 16 83 24 00
        E 16 83 24 00
        E 16 83 24 00
        E 16 83 24 00
        E 16 83 24 00
        E 16 83 24 00
        E 16 83 24 00
        E 16 83 24 00
        E 16 83 24 00
        E 16 83 24 00
        E 16 83 24 00
        E 16 83 24 00
        E 16 83 24 00
        E 16 83 24 00
        E 16 83 24 00
        E 16 83 24 00
        E 16 83 24 00
        E 16 83 24 00
        E 16 83 24 00
        E 16 83 24 00
        E 16 83 24 00
        E 16 83 24 00
        E 16 83 24 00
        E 16 83 24 00
        E 16 83 24 00
        E 16 83 24 00
        E 16 83 24 00
        E 16 83 24 00
        E 16 83 24 00
        E 16 83 24 00
        E 16 83 24 00
        E 16 83 24 00
        E 16 83 24 00
        E 16 83 24 00
        E 16 83 24 00
        E 16 83 24 00
        E 16 83 24 00
        E 16 83 24 00
        E 16 83 24 00
        E 16 83 24 00
        E 16 83 24 00
        E 16 83 24 00
        E 16 83 24 00
        E 16 83 24 00
        E 16 83 24 00
        E 16 83 24 00
        E 16 83 24 00
        E 16 83 24 00
        E 16 83 24 00
        E 16 83 24 00
        E 16 83 24 00
        E 16 83 24 00
        E 16 83 24 00
        E 16 83 24 00
        E 16 83 24 00
        E 16 83 24 00
        E 16 83 24 00
        E 16 83 24 00
        E 16 83 24 00
        E 16 83 24 00
        E 16 83 24 00
        E 16 83 24 00
        E 16 83 24 00
        E 16 83 24 00
        E 16 83 24 00
        E 16 83 24 00
        E 16 83 24 00
        E 16 83 24 00
        E 16 83 24 00
        E 16 83 24 00
        E 16 83 24 00
        E 16 83 24 00
        E 16 83 24 00
        E 16 83 24 00
        E 16 83 24 00
        E 16 83 24 00
        E 16 83 24 00
        E 16 83 24 00
        E 16 83 24 00
        E 16 83 24 00
        E 16 83 24 00
        E 16 83 24 00
        E 16 83 24 00
        E 16 83 24 00
        E 16 83 24 00
        E 16 83 24 00
        E 16 83 24 00
        E 16 83 24 00
        E 16 83 24 00
        E 16 83 24 00
        E 16 83 24 00
        E 16 83 24 00
        E 16 83 24 00
        E 16 83 24 00
        E 16 83 24 00
        E 16 83 24 00
        E 16 83 24 00
        E 16 83 24 00
        E 16 83 24 00
        E 16 83 24 00
        E 16 83 24 00
        E 16 83 24 00
        E 16 83 24 00
        E 16 83 24 00
        E 16 83 24 00
        E 16 83 24 00
        E 16 83 24 00
        E 16 83 24 00
        E 16 83 24 00
        E 16 83 24 00
        E 16 83 24 00
        E 16 83 24 00
        E 16 83 24 00
        E 16 83 24 00
        E 16 83 24 00
        E 16 83 24 00
        E 16 83 24 00
        E 16 83 24 00
        E 16 83 24 00
        E 16 83 24 00
        E 16 83 24 00
        E 16 83 24 00
        E 16 83 24 00
        E 16 83 24 00
        E 16 83 24 00
        E 16 83 24 00
        E 16 83 24 00
        E 16 83 24 00
        E 16 83 24 00
        E 16 83 24 00
        E 16 83 24 00
        E 16 83 24 00
        E 16 83 24 00
        E 16 83 24 00
        E 16 83 24 00
        E 16 83 24 00
        E 16 83 24 00
        E 16 83 24 00
        E 16 83 24 00
        E 16 83 24 00
        E 16 83 24 00
        E 16 83 24 00
        E 16 83 24 00
        E 16 83 24 00
        E 16 83 24 00
        E 16 83 24 00
        E 16 83 24 00
        E 16 83 24 00
        E 16 83 24 00
        E 16 83 24 00
        E 16 83 24 00
        E 16 83 24 00
        E 16 83 24 00
        E 16 83 24 00
        E 16 83 24 00
        E 16 83 24 00
        E 16 83 24 00
        E 16 83 24 00
        E 16 83 24 00
        E 16 83 24 00
        E 16 83 24 00
        E 16 83 24 00
        E 16 83 24 00
        E 16 83 24 00
        E 16 83 24 00
        E 16 83 24 00
        E 16 83 24 00
        E 16 83 24 00
        E 16 83 24 00
        E 16 83 24 00
        E 16 83 24 00
        E 16 83 24 00
        E 16 83 24 00
        E 16 83 24 00
        E 16 83 24 00
        E 16 83 24 00
        E 16 83 24 00
        E 16 83 24 00
        E 16 83 24 00
        E 16 83 24 00
        E 16 83 24 00
        E 16 83 24 00
        E 16 83 24 00
        E 16 83 24 00
        E 16 83 24 00
        E 16 83 24 00
        E 16 83 24 00
        E 16 83 24 00
        E 16 83 24 00
        E 16 83 24 00
        E 16 83 24 00
        E 16 83 24 00
        E 16 83 24 00
        E 16 83 24 00
        E 16 83 24 00
        E 16 83 24 00
        E 16 83 24 00
        E 16 83 24 00
        E 16 83 24 00
        E 16 83 24 00
        E 16 83 24 00
        E 16 83 24 00
        E 16 83 24 00
        E 16 83 24 00
        E 16 83 24 00
        E 16 83 24 00
        E 16 83 24 00
        E 16 83 24 00
        E 16 83 24 00
        E 16 83 24 00
        E 16 83 24 00
        E 16 83 24 00
        E 16 83 24 00
        E 16 83 24 00
        E 16 83 24 00
        E 16 83 24 00
        E 16 83 24 00
        E 16 83 24 00
        E 16 83 24 00
        E 16 83 24 00
        E 16 83 24 00
        E 16 83 24 00
        E 16 83 24 00
        E 16 83 24 00
        E 16 83 24 00
        E 16 83 24 00
        E 16 83 24 00
        E 16 83 24 00
        E 16 83 24 00
        E 16 83 24 00
        E 16 83 24 00
        E 16 83 24 00
        E 16 83 24 00
        E 16 83 24 00
        E 16 83 24 00
        E 16 83 24 00
        E 16 83 24 00
        E 16 83 24 00
        E 16 83 24 00
        E 16 83 24 00
        E 16 83 24 00
        E 16 83 24 00
        E 16 83 24 00
        E 16 83 24 00
        E 16 83 24 00
        E 16 83 24 00
        E 16 83 24 00
        E 16 83 24 00
        E 16 83 24 00
        E 16 83 24 00
        E 16 83 24 00
        E 16 83 24 00
        E 16 83 24 00
        E 16 83 24 00
        E 16 83 24 00
        E 16 83 24 00
        E 16 83 24 00
        E 16 83 24 00
        E 16 83 24 00
        E 16 83 24 00
        E 16 83 24 00
        E 16 83 24 00
        E 16 83 24 00
        E 16 83 24 00
        E 16 83 24 00
        E 16 83 24 00
        E 16 83 24 00
        E 16 83 24 00
        E 16 83 24 00
        E 16 83 24 00
        E 16 83 24 00
        E 16 83 24 00
        E 16 83 24 00
        E 16 83 24 00
        E 16 83 24 00
        E 16 83 24 00
        E 16 83 24 00
        E 16 83 24 00
        E 16 83 24 00
        E 16 83 24 00
        E 16 83 24 00
        E 16 83 24 00
        E 16 83 24 00
        E 16 83 24 00
        E 16 83 24 00
        E 16 83 24 00
        E 16 83 24 00
        E 16 83 24 00
        E 16 83 24 00
        E 16 83 24 00
        E 16 83 24 00
        E 16 83 24 00
        E 16 83 24 00
        E 16 83 24 00
        E 16 83 24 00
        E 16 83 24 00
        E 16 83 24 00
        E 16 83 24 00
        E 16 83 24 00
        E 16 83 24 00
        E 16 83 24 00
        E 16 83 24 00
        E 16 83 24 00
        E 16 83 24 00
        E 16 83 24 00
        E 16 83 24 00
        E 16 83 24 00
        E 16 83 24 00
        E 16 83 24 00
        E 16 83 24 00
        E 16 83 24 00
        E 16 83 24 00
        E 16 83 24 00
        E 16 83 24 00
        E 16 83 24 00
        E 16 83 24 00
        E 16 83 24 00
        E 16 83 24 00
        E 16 83 24 00
        E 16 83 24 00
        E 16 83 24 00
        E 16 83 24 00
        E 16 83 24 00
        E 16 83 24 00
        E 16 83 24 00
        E 16 83 24 00
        E 16 83 24 00
        E 16 83 24 00
        E 16 83 24 00
        E 16 83 24 00
        E 16 83 24 00
        E 16 83 24 00
        E 16 83 24 00
        E 16 83 24 00
        E 16 83 24 00
        E 16 83 24 00
        E 16 83 24 00
        E 16 83 24 00
        E 16 83 24 00
        E 16 83 24 00
        E 16 83 24 00
        E 16 83 24 00
        E 16 83 24 00
        E 16 83 24 00
        E 16 83 24 00
        E 16 83 24 00
        E 16 83 24 00
        E 16 83 24 00
        E 16 83 24 00
        E 16 83 24 00
        E 16 83 24 00
        E 16 83 24 00
        E 16 83 24 00
        E 16 83 24 00
        E 16 83 24 00
        E 16 83 24 00
        E 16 83 24 00
        E 16 83 24 00
        E 16 83 24 00
        E 16 83 24 00
        E 16 83 24 00
        E 16 83 24 00
        E 16 83 24 00
        E 16 83 24 00
        E 16 83 24 00
        E 16 83 24 00
        E 16 83 24 00
        E 16 83 24 00
        E 16 83 24 00
        E 16 83 24 00
        E 16 83 24 00
        E 16 83 24 00
        E 16 83 24 00
        E 16 83 24 00
        E 16 83 24 00
        E 16 83 24 00
        E 16 83 24 00
        E 16 83 24 00
        E 16 83 24 00
        E 16 83 24 00
        E 16 83 24 00
        E 16 83 24 00
        E 16 83 24 00
        E 16 83 24 00
        E 16 83 24 00
        E 16 83 24 00
        E 16 83 24 00
        E 16 83 24 00
        E 16 83 24 00
        E 16 83 24 00
        E 16 83 24 00
        E 16 83 24 00
        E 16 83 24 00
        E 16 83 24 00
        E 16 83 24 00
        E 16 83 24 00
        E 16 83 24 00
        E 16 83 24 00
        E 16 83 24 00
        E 16 83 24 00
        E 16 83 24 00
        E 16 83 24 00
        E 16 83 24 00
        E 16 83 24 00
        E 16 83 24 00
        E 16 83 24 00
        E 16 83 24 00
        E 16 83 24 00
        E 16 83 24 00
        E 16 83 24 00
        E 16 83 24 00
        E 16 83 24 00
        E 16 83 24 00
        E 16 83 24 00
        E 16 83 24 00
        E 16 83 24 00
        E 16 83 24 00
        E 16 83 24 00
        E 16 83 24 00
        E 16 83 24 00
        E 16 83 24 00
        E 16 83 24 00
        E 16 83 24 00
        E 16 83 24 00
        E 16 83 24 00
        E 16 83 24 00
        E 16 83 24 00
        E 16 83 24 00
        E 16 83 24 00
        E 16 83 24 00
        E 16 83 24 00
        E 16 83 24 00
        E 16 83 24 00
        E 16 83 24 00
        E 16 83 24 00
        E 16 83 24 00
        E 16 83 24 00
        E 16 83 24 00
        E 16 83 24 00
        E 16 83 24 00
        E 16 83 24 00
        E 16 83 24 00
        E 16 83 24 00
        E 16 83 24 00
        E 16 83 24 00
        E 16 83 24 00
        E 16 83 24 00
        E 16 83 24 00
        E 16 83 24 00
        E 16 83 24 00
        E 16 83 24 00
        E 16 83 24 00
        E 16 83 24 00
        E 16 83 24 00
        E 16 83 24 00
        E 16 83 24 00
        E 16 83 24 00
        E 16 83 24 00
        E 16 83 24 00
        E 16 83 24 00
        E 16 83 24 00
        E 16 83 24 00
        E 16 83 24 00
        E 16 83 24 00
        E 16 83 24 00
        E 16 83 24 00
        E 16 83 24 00
        E 16 83 24 00
        E 16 83 24 00
        E 16 83 24 00
        E 16 83 24 00
        E 16 83 24 00
        E 16 83 24 00
        E 16 83 24 00
        E 16 83 24 00
        E 16 83 24 00
        E 16 83 24 00
        E 16 83 24 00
        E 16 83 24 00
        E 16 83 24 00
        E 16 83 24 00
        E 16 83 24 00
        E 16 83 24 00
        E 16 83 24 00
        E 16 83 24 00
        E 16 83 24 00
        E 16 83 24 00
        E 16 83 24 00
        E 16 83 24 00
        E 16 83 24 00
        E 16 83 24 00
        E 16 83 24 00
        E 16 83 24 00
        E 16 83 24 00
        E 16 83 24 00
        E 16 83 24 00
        E 16 83 24 00
        E 16 83 24 00
        E 16 83 24 00
        E 16 83 24 00
        E 16 83 24 00
        E 16 83 24 00
        E 16 83 24 00
        E 16 83 24 00
        E 16 83 24 00
        E 16 83 24 00
        E 16 83 24 00
        E 16 83 24 00
        E 16 83 24 00
        E 16 83 24 00
        E 16 83 24 00
        E 16 83 24 00
        E 16 83 24 00
        E 16 83 24 00
        E 16 83 24 00
        E 16 83 24 00
        E 16 83 24 00
        E 16 83 24 00
        E 16 83 24 00
        E 16 83 24 00
        E 16 83 24 00
        E 16 83 24 00
        E 16 83 24 00
        E 16 83 24 00
        E 16 83 24 00
        E 16 83 24 00
        E 16 83 24 00
        E 16 83 24 00
        E 16 83 24 00
        E 16 83 24 00
        E 16 83 24 00
        E 16 83 24 00
        E 16 83 24 00
        E 16 83 24 00
        E 16 83 24 00
        E 16 83 24 00
        E 16 83 24 00
        E 16 83 24 00
        E 16 83 24 00
        E 16 83 24 00
        E 16 83 24 00
        E 16 83 24 00
        E 16 83 24 00
        E 16 83 24 00
        E 16 83 24 00
        E 16 83 24 00
        E 16 83 24 00
        E 16 83 24 00
        E 16 83 24 00
        E 16 83 24 00
        E 16 83 24 00
        E 16 83 24 00
        E 16 83 24 00
        E 16 83 24 00
        E 16 83 24 00
        E 16 83 24 00
        E 16 83 24 00
        E 16 83 24 00
        E 16 83 24 00
        E 16 83 24 00
        E 16 83 24 00
        E 16 83 24 00
        E 16 83 24 00
        E 16 83 24 00
        E 16 83 24 00
        E 16 83 24 00
        E 16 83 24 00
        E 16 83 24 00
        E 16 83 24 00
        E 16 83 24 00
        E 16 83 24 00
        E 16 83 24 00
        E 16 83 24 00
        E 16 83 24 00
        E 16 83 24 00
        E 16 83 24 00
        E 16 83 24 00
        E 16 83 24 00
        E 16 83 24 00
        E 16 83 24 00
        E 16 83 24 00
        E 16 83 24 00
        E 16 83 24 00
        E 16 83 24 00
        E 16 83 24 00
        E 16 83 24 00
        E 16 83 24 00
        E 16 83 24 00
        E 16 83 24 00
        E 16 83 24 00
        E 16 83 24 00
        E 16 83 24 00
        E 16 83 24 00
        E 16 83 24 00
        E 16 83 24 00
        E 16 83 24 00
        E 16 83 24 00
        E 16 83 24 00
        E 16 83 24 00
        E 16 83 24 00
        E 16 83 24 00
        E 16 83 24 00
        E 16 83 24 00
        E 16 83 24 00
        E 16 83 24 00
        E 16 83 24 00
        E 16 83 24 00
        E 16 83 24 00
        E 16 83 24 00
        E 16 83 24 00
        E 16 83 24 00
        E 16 83 24 00
        E 16 83 24 00
        E 16 83 24 00
        E 16 83 24 00
        E 16 83 24 00
        E 16 83 24 00
        E 16 83 24 00
        E 16 83 24 00
        E 16 83 24 00
        E 16 83 24 00
        E 16 83 24 00
        E 16 83 24 00
        E 16 83 24 00
        E 16 83 24 00
        E 16 83 24 00
        E 16 83 24 00
        E 16 83 24 00
        E 16 83 24 00
        E 16 83 24 00
        E 16 83 24 00
        E 16 83 24 00
        E 16 83 24 00
        E 16 83 24 00
        E 16 83 24 00
        E 16 83 24 00
        E 16 83 24 00
        E 16 83 24 00
        E 16 83 24 00
        E 16 83 24 00
        E 16 83 24 00
        E 16 83 24 00
        E 16 83 24 00
        E 16 83 24 00
        E 16 83 24 00
        E 16 83 24 00
        E 16 83 24 00
        E 16 83 24 00
        E 16 83 24 00
        E 16 83 24 00
        E 16 83 24 00
        E 16 83 24 00
        E 16 83 24 00
        E 16 83 24 00
        E 16 83 24 00
        E 16 83 24 00
        E 16 83 24 00
        E 16 83 24 00
        E 16 83 24 00
        E 16 83 24 00
        E 16 83 24 00
        E 16 83 24 00
        E 16 83 24 00
        E 16 83 24 00
        E 16 83 24 00
        E 16 83 24 00
        E 16 83 24 00
        E 16 83 24 00
        E 16 83 24 00
        E 16 83 24 00
        E 16 83 24 00
        E 16 83 24 00
        E 16 83 24 00
        E 16 83 24 00
        E 16 83 24 00
        E 16 83 24 00
        E 16 83 24 00
        E 16 83 24 00
        E 16 83 24 00
        E 16 83 24 00
        E 16 83 24 00
        E 16 83 24 00
        E 16 83 24 00
        E 16 83 24 00
        E 16 83 24 00
        E 16 83 24 00
        E 16 83 24 00
        E 16 83 24 00
        E 16 83 24 00
        E 16 83 24 00
        E 16 83 24 00
        E 16 83 24 00
        E 16 83 24 00
        E 16 83 24 00
        E 16 83 24 00
        E 16 83 24 00
        E 16 83 24 00
        E 16 83 24 00
        E 16 83 24 00
        E 16 83 24 00
        E 16 83 24 00
        E 16 83 24 00
        E 16 83 24 00
        E 16 83 24 00
        E 16 83 24 00
        E 16 83 24 00
        E 16 83 24 00
        E 16 83 24 00
        E 16 83 24 00
        E 16 83 24 00
        E 16 83 24 00
        E 16 83 24 00
        E 16 83 24 00
        E 16 83 24 00
        E 16 83 24 00
        E 16 83 24 00
        E 16 83 24 00
        E 16 83 24 00
        E 16 83 24 00
        E 16 83 24 00
        E 16 83 24 00
        E 16 83 24 00
        E 16 83 24 00
        E 16 83 24 00
        E 16 83 24 00
        E 16 83 24 00
        E 16 83 24 00
        E 16 83 24 00
        E 16 83 24 00
        E 16 83 24 00
        E 16 83 24 00
        E 16 83 24 00
        E 16 83 24 00
        E 16 83 24 00
        E 16 83 24 00
        E 16 83 24 00
        E 16 83 24 00
        E 16 83 24 00
        E 16 83 24 00
        E 16 83 24 00
        E 16 83 24 00
        E 16 83 24 00
        E 16 83 24 00
        E 16 83 24 00
        E 16 83 24 00
        E 16 83 24 00
        E 16 83 24 00
        E 16 83 24 00
        E 16 83 24 00
        E 16 83 24 00
        E 16 83 24 00
        E 16 83 24 00
        E 16 83 24 00
        E 16 83 24 00
        E 16 83 24 00
        E 16 83 24 00
        E 16 83 24 00
        E 16 83 24 00
        E 16 83 24 00
        E 16 83 24 00
        E 16 83 24 00
        E 16 83 24 00
        E 16 83 24 00
        E 16 83 24 00
        E 16 83 24 00
        E 16 83 24 00
        E 16 83 24 00
        E 16 83 24 00
        E 16 83 24 00
        E 16 83 24 00
        E 16 83 24 00
        E 16 83 24 00
        E 16 83 24 00
        E 16 83 24 00
        E 16 83 24 00
        E 16 83 24 00
        E 0 ff 2f 00
      >
    >
  >
>