<REAPER_PROJECT 0.1 "7.27/win64" 1707000000
  <NOTES 0 2
    |ReapNES Studio Project
    |MIDI Import - 720_Degrees_title_rom_v1
  >
  RIPPLE 0
  GROUPOVERRIDE 0 0 0
  AUTOXFADE 129
  ENVATTACH 3
  POOLEDENVATTACH 0
  MIXERUIFLAGS 11 48
  ENVFADESZ10 40
  PEAKGAIN 1
  FEEDBACK 0
  PANLAW 1
  PROJOFFS 0 0 0
  MAXPROJLEN 0 0
  GRID 3199 8 1 8 1 0 0 0
  TIMEMODE 1 5 -1 30 0 0 -1
  VIDEO_CONFIG 0 0 65792
  PANMODE 3
  PANLAWFLAGS 3
  CURSOR 0
  ZOOM 100 0 0
  VZOOMEX 6 0
  USE_REC_CFG 0
  RECMODE 1
  SMPTESYNC 0 30 100 40 1000 300 0 0 1 0 0
  LOOP 0
  LOOPGRAN 0 4
  RECORD_PATH "Media" ""
  <RECORD_CFG
    ZXZhdxgAAQ==
  >
  <APPLYFX_CFG
  >
  RENDER_FILE ""
  RENDER_PATTERN ""
  RENDER_FMT 0 2 0
  RENDER_1X 0
  RENDER_RANGE 1 0 0 18 1000
  RENDER_RESAMPLE 3 0 1
  RENDER_ADDTOPROJ 0
  RENDER_STEMS 0
  RENDER_DITHER 0
  TIMELOCKMODE 1
  TEMPOENVLOCKMODE 1
  ITEMMIX 1
  DEFPITCHMODE 589824 0
  TAKELANE 1
  SAMPLERATE 44100 0 0
  <RENDER_CFG
    ZXZhdxgAAQ==
  >
  LOCK 1
  <METRONOME 6 2
    VOL 0.25 0.125
    BEATLEN 4
    FREQ 1760 880 1
    SAMPLES "" ""
    SPLIGNORE 0 0
    SPLDEF 2 660 "" 0
    SPLDEF 3 440 "" 0
    PATTERN 0 169
    PATTERNSTR ABBB
    MULT 1
  >
  GLOBAL_AUTO -1
  TEMPO 128.59999614200012 4 4
  PLAYRATE 1 0 0.25 4
  SELECTION 0 0
  SELECTION2 0 0
  MASTERAUTOMODE 0
  MASTERTRACKHEIGHT 0 0
  MASTERPEAKCOL 16576
  MASTERMUTESOLO 0
  MASTERTRACKVIEW 0 0.6667 0.5 0.5 0 0 0 0 0 0 0 0 0 0
  MASTERHWOUT 0 0 1 0 0 0 0 -1
  MASTER_NCH 2 2
  MASTER_VOLUME 1 0 -1 -1 1
  MASTER_PANMODE 3
  MASTER_PANLAWFLAGS 3
  MASTER_FX 1
  MASTER_SEL 0
  <MASTERPLAYSPEEDENV
    EGUID {B6A3458B-8F3B-4A7D-B664-19401FB27567}
    ACT 0 -1
    VIS 0 1 1
    LANEHEIGHT 0 0
    ARM 0
    DEFSHAPE 0 -1 -1
  >
  <TEMPOENVEX
    EGUID {631A53CB-6201-4190-A2F1-3CF8259C7B81}
    ACT 1 -1
    VIS 1 0 1
    LANEHEIGHT 0 0
    ARM 0
    DEFSHAPE 1 -1 -1
  >
  <PROJBAY
  >
  <TRACK {40A9A0F1-D1A0-4B85-BD30-650F1E416114}
    NAME "NES - Pulse 1 [ch0]"
    PEAKCOL 16576606
    BEAT -1
    AUTOMODE 0
    PANLAWFLAGS 3
    VOLPAN 1 0 -1 -1 1
    MUTESOLO 0 0 0
    IPHASE 0
    PLAYOFFS 0 1
    ISBUS 0 0
    BUSCOMP 0 0 0 0 0
    SHOWINMIX 1 0.6667 0.5 1 0.5 0 0 0
    FIXEDLANES 9 0 0 0 0
    SEL 1
    REC 1 5088 1 0 0 0 0 0
    VU 2
    TRACKHEIGHT 0 0 0 0 0 0 0
    INQ 0 0 0 0.5 100 0 0 100
    NCHAN 2
    FX 1
    TRACKID {40A9A0F1-D1A0-4B85-BD30-650F1E416114}
    PERF 0
    MIDIOUT -1
    MAINSEND 1 0
    <FXCHAIN
      WNDRECT 24 52 700 560
      SHOW 0
      LASTSEL 0
      DOCKED 0
      BYPASS 0 0 0
      <JS "ReapNES Studio/ReapNES_Console.jsfx" ""
        2 15 1 10 80 10 100 2 1 15 1 5 60 10 80 1 1 0 50 0 0 15 1 0 100 0 0 0.500000 0.500000 0.400000 0.300000 0.800000 0 1 0 0 0 0 - - - - - - - - - - - - - - - - - - - - - - - - - -
      >
      FLOATPOS 0 0 0 0
      FXID {DB2E1259-3E42-4F93-B199-D817B547E181}
      WAK 0 0
    >
    <ITEM
      POSITION 0
      LENGTH 71.89735830000001
      LOOP 0
      ALLTAKES 0
      FADEIN 0 0 0 0 0 0 0
      FADEOUT 0 0 0 0 0 0 0
      MUTE 0 0
      SEL 0
      IGUID {92D8C20C-4018-4BDE-AA39-ED54EB87BBA4}
      <SOURCE MIDI
        HASDATA 1 480 QN
        CCINTERP 32
        E 0 c0 50
        E 0 b0 0c 60
        E 0 b0 0b 2a
        E 0 90 23 2a
        E 288 80 23 00
        E 0 90 28 2a
        E 128 80 28 00
        E 0 90 26 2a
        E 160 80 26 00
        E 0 90 2b 2a
        E 128 80 2b 00
        E 0 90 29 2a
        E 160 80 29 00
        E 0 90 2e 2a
        E 128 80 2e 00
        E 0 90 2d 2a
        E 1312 80 2d 00
        E 0 90 23 2a
        E 288 80 23 00
        E 0 90 28 2a
        E 128 80 28 00
        E 0 90 26 2a
        E 160 80 26 00
        E 0 90 2b 2a
        E 128 80 2b 00
        E 0 90 29 2a
        E 160 80 29 00
        E 0 90 2e 2a
        E 160 80 2e 00
        E 0 90 2c 2a
        E 128 80 2c 00
        E 0 90 2d 2a
        E 1152 80 2d 00
        E 0 90 23 2a
        E 512 80 23 00
        E 0 90 28 2a
        E 128 80 28 00
        E 0 90 26 2a
        E 128 80 26 00
        E 0 90 2b 2a
        E 128 80 2b 00
        E 0 90 29 2a
        E 128 80 29 00
        E 0 90 2e 2a
        E 128 80 2e 00
        E 0 90 28 2a
        E 512 80 28 00
        E 0 90 2d 2a
        E 128 80 2d 00
        E 0 90 2b 2a
        E 128 80 2b 00
        E 0 90 2f 2a
        E 128 80 2f 00
        E 0 90 2d 2a
        E 128 80 2d 00
        E 0 90 32 2a
        E 128 80 32 00
        E 0 90 23 2a
        E 512 80 23 00
        E 0 90 28 2a
        E 128 80 28 00
        E 0 90 26 2a
        E 128 80 26 00
        E 0 90 2b 2a
        E 128 80 2b 00
        E 0 90 29 2a
        E 128 80 29 00
        E 0 90 2e 2a
        E 128 80 2e 00
        E 0 90 28 2a
        E 512 80 28 00
        E 0 90 2d 2a
        E 128 80 2d 00
        E 0 90 2b 2a
        E 128 80 2b 00
        E 0 90 2f 2a
        E 128 80 2f 00
        E 0 90 2d 2a
        E 128 80 2d 00
        E 0 90 32 2a
        E 128 80 32 00
        E 0 90 28 2a
        E 800 80 28 00
        E 0 90 26 2a
        E 576 80 26 00
        E 0 90 28 2a
        E 256 80 28 00
        E 0 90 29 2a
        E 672 80 29 00
        E 0 90 28 2a
        E 800 80 28 00
        E 0 90 26 2a
        E 2656 80 26 00
        E 0 90 2b 2a
        E 384 80 2b 00
        E 0 90 2f 2a
        E 192 80 2f 00
        E 0 90 30 2a
        E 192 80 30 00
        E 0 90 2b 2a
        E 384 80 2b 00
        E 0 90 2f 2a
        E 192 80 2f 00
        E 0 90 30 2a
        E 192 80 30 00
        E 0 90 2b 2a
        E 384 80 2b 00
        E 0 90 30 2a
        E 192 80 30 00
        E 0 90 2b 2a
        E 192 80 2b 00
        E 0 90 30 2a
        E 192 80 30 00
        E 0 90 2f 2a
        E 192 80 2f 00
        E 0 90 2d 2a
        E 192 80 2d 00
        E 0 90 2b 2a
        E 192 80 2b 00
        E 0 90 28 2a
        E 384 80 28 00
        E 0 90 2b 2a
        E 192 80 2b 00
        E 0 90 2d 2a
        E 192 80 2d 00
        E 0 90 28 2a
        E 384 80 28 00
        E 0 90 2b 2a
        E 192 80 2b 00
        E 0 90 2d 2a
        E 192 80 2d 00
        E 0 90 28 2a
        E 384 80 28 00
        E 0 90 2b 2a
        E 192 80 2b 00
        E 0 90 2d 2a
        E 192 80 2d 00
        E 0 90 28 2a
        E 384 80 28 00
        E 0 90 2b 2a
        E 192 80 2b 00
        E 0 90 2d 2a
        E 576 80 2d 00
        E 0 90 30 2a
        E 192 80 30 00
        E 0 90 32 2a
        E 192 80 32 00
        E 0 90 2d 2a
        E 384 80 2d 00
        E 0 90 30 2a
        E 192 80 30 00
        E 0 90 32 2a
        E 192 80 32 00
        E 0 90 2d 2a
        E 384 80 2d 00
        E 0 90 30 2a
        E 192 80 30 00
        E 0 90 32 2a
        E 192 80 32 00
        E 0 90 2d 2a
        E 384 80 2d 00
        E 0 90 30 2a
        E 192 80 30 00
        E 0 90 32 2a
        E 192 80 32 00
        E 0 90 30 2a
        E 384 80 30 00
        E 0 90 34 2a
        E 192 80 34 00
        E 0 90 35 2a
        E 192 80 35 00
        E 0 90 30 2a
        E 384 80 30 00
        E 0 90 34 2a
        E 192 80 34 00
        E 0 90 35 2a
        E 192 80 35 00
        E 0 90 32 2a
        E 384 80 32 00
        E 0 90 35 2a
        E 192 80 35 00
        E 0 90 37 2a
        E 192 80 37 00
        E 0 90 32 2a
        E 384 80 32 00
        E 0 90 35 2a
        E 192 80 35 00
        E 0 90 37 2a
        E 192 80 37 00
        E 0 90 2b 2a
        E 384 80 2b 00
        E 0 90 32 2a
        E 384 80 32 00
        E 0 90 29 2a
        E 384 80 29 00
        E 0 90 30 2a
        E 384 80 30 00
        E 0 90 27 2a
        E 384 80 27 00
        E 0 90 2e 2a
        E 384 80 2e 00
        E 0 90 26 2a
        E 384 80 26 00
        E 0 90 29 2a
        E 192 80 29 00
        E 0 90 2a 2a
        E 192 80 2a 00
        E 0 90 2b 2a
        E 384 80 2b 00
        E 0 90 32 2a
        E 384 80 32 00
        E 0 90 29 2a
        E 384 80 29 00
        E 0 90 30 2a
        E 384 80 30 00
        E 0 90 27 2a
        E 384 80 27 00
        E 0 90 2e 2a
        E 384 80 2e 00
        E 0 90 26 2a
        E 1952 80 26 00
        E 0 90 29 2a
        E 192 80 29 00
        E 0 90 2a 2a
        E 192 80 2a 00
        E 0 90 2b 2a
        E 384 80 2b 00
        E 0 90 32 2a
        E 384 80 32 00
        E 0 90 29 2a
        E 384 80 29 00
        E 0 90 30 2a
        E 384 80 30 00
        E 0 90 27 2a
        E 384 80 27 00
        E 0 90 2e 2a
        E 384 80 2e 00
        E 0 90 26 2a
        E 384 80 26 00
        E 0 90 29 2a
        E 192 80 29 00
        E 0 90 2a 2a
        E 192 80 2a 00
        E 0 90 2b 2a
        E 384 80 2b 00
        E 0 90 32 2a
        E 384 80 32 00
        E 0 90 29 2a
        E 384 80 29 00
        E 0 90 30 2a
        E 384 80 30 00
        E 0 90 27 2a
        E 384 80 27 00
        E 0 90 2e 2a
        E 384 80 2e 00
        E 0 90 26 2a
        E 384 80 26 00
        E 0 90 29 2a
        E 1760 80 29 00
        E 0 90 2a 2a
        E 192 80 2a 00
        E 0 90 2b 2a
        E 384 80 2b 00
        E 0 90 32 2a
        E 384 80 32 00
        E 0 90 29 2a
        E 384 80 29 00
        E 0 90 30 2a
        E 384 80 30 00
        E 0 90 27 2a
        E 384 80 27 00
        E 0 90 2e 2a
        E 384 80 2e 00
        E 0 90 26 2a
        E 384 80 26 00
        E 0 90 29 2a
        E 192 80 29 00
        E 0 90 2a 2a
        E 192 80 2a 00
        E 0 90 2b 2a
        E 384 80 2b 00
        E 0 90 32 2a
        E 384 80 32 00
        E 0 90 29 2a
        E 384 80 29 00
        E 0 90 30 2a
        E 384 80 30 00
        E 0 90 27 2a
        E 384 80 27 00
        E 0 90 2e 2a
        E 224 80 2e 00
        E 0 90 26 2a
        E 96 80 26 00
        E 0 90 28 2a
        E 96 80 28 00
        E 0 90 29 2a
        E 96 80 29 00
        E 0 90 28 2a
        E 96 80 28 00
        E 0 90 1f 2a
        E 288 80 1f 00
        E 0 90 23 2a
        E 288 80 23 00
        E 0 90 28 2a
        E 128 80 28 00
        E 0 90 26 2a
        E 160 80 26 00
        E 0 90 2b 2a
        E 128 80 2b 00
        E 0 90 29 2a
        E 160 80 29 00
        E 0 90 2e 2a
        E 128 80 2e 00
        E 0 90 2d 2a
        E 1312 80 2d 00
        E 0 90 23 2a
        E 288 80 23 00
        E 0 90 28 2a
        E 128 80 28 00
        E 0 90 26 2a
        E 160 80 26 00
        E 0 90 2b 2a
        E 128 80 2b 00
        E 0 90 29 2a
        E 160 80 29 00
        E 0 90 2e 2a
        E 160 80 2e 00
        E 0 90 2c 2a
        E 128 80 2c 00
        E 0 90 2d 2a
        E 1152 80 2d 00
        E 0 90 23 2a
        E 512 80 23 00
        E 0 90 28 2a
        E 128 80 28 00
        E 0 90 26 2a
        E 128 80 26 00
        E 0 90 2b 2a
        E 128 80 2b 00
        E 0 90 29 2a
        E 128 80 29 00
        E 0 90 2e 2a
        E 128 80 2e 00
        E 0 90 28 2a
        E 512 80 28 00
        E 0 90 2d 2a
        E 128 80 2d 00
        E 0 90 2b 2a
        E 128 80 2b 00
        E 0 90 2f 2a
        E 128 80 2f 00
        E 0 90 2d 2a
        E 128 80 2d 00
        E 0 90 32 2a
        E 128 80 32 00
        E 0 90 23 2a
        E 512 80 23 00
        E 0 90 28 2a
        E 128 80 28 00
        E 0 90 26 2a
        E 128 80 26 00
        E 0 90 2b 2a
        E 128 80 2b 00
        E 0 90 29 2a
        E 128 80 29 00
        E 0 90 2e 2a
        E 128 80 2e 00
        E 0 90 28 2a
        E 512 80 28 00
        E 0 90 2d 2a
        E 128 80 2d 00
        E 0 90 2b 2a
        E 128 80 2b 00
        E 0 90 2f 2a
        E 128 80 2f 00
        E 0 90 2d 2a
        E 128 80 2d 00
        E 0 90 32 2a
        E 128 80 32 00
        E 0 90 28 2a
        E 800 80 28 00
        E 0 90 26 2a
        E 576 80 26 00
        E 0 90 28 2a
        E 256 80 28 00
        E 0 90 29 2a
        E 672 80 29 00
        E 0 90 28 2a
        E 800 80 28 00
        E 0 90 26 2a
        E 2624 80 26 00
        E 0 90 2b 2a
        E 384 80 2b 00
        E 0 90 2f 2a
        E 192 80 2f 00
        E 0 90 30 2a
        E 192 80 30 00
        E 0 90 2b 2a
        E 384 80 2b 00
        E 0 90 2f 2a
        E 192 80 2f 00
        E 0 90 30 2a
        E 192 80 30 00
        E 0 90 2b 2a
        E 384 80 2b 00
        E 0 90 30 2a
        E 192 80 30 00
        E 0 90 2b 2a
        E 192 80 2b 00
        E 0 90 30 2a
        E 192 80 30 00
        E 0 90 2f 2a
        E 192 80 2f 00
        E 0 90 2d 2a
        E 192 80 2d 00
        E 0 90 2b 2a
        E 192 80 2b 00
        E 0 90 28 2a
        E 384 80 28 00
        E 0 90 2b 2a
        E 192 80 2b 00
        E 0 90 2d 2a
        E 192 80 2d 00
        E 0 90 28 2a
        E 384 80 28 00
        E 0 90 2b 2a
        E 192 80 2b 00
        E 0 90 2d 2a
        E 192 80 2d 00
        E 0 90 28 2a
        E 384 80 28 00
        E 0 90 2b 2a
        E 192 80 2b 00
        E 0 90 2d 2a
        E 192 80 2d 00
        E 0 90 28 2a
        E 384 80 28 00
        E 0 90 2b 2a
        E 192 80 2b 00
        E 0 90 2d 2a
        E 2144 80 2d 00
        E 0 90 30 2a
        E 192 80 30 00
        E 0 90 32 2a
        E 192 80 32 00
        E 0 90 2d 2a
        E 384 80 2d 00
        E 0 90 30 2a
        E 192 80 30 00
        E 0 90 32 2a
        E 192 80 32 00
        E 0 90 2d 2a
        E 384 80 2d 00
        E 0 90 30 2a
        E 192 80 30 00
        E 0 90 32 2a
        E 192 80 32 00
        E 0 90 2d 2a
        E 384 80 2d 00
        E 0 90 30 2a
        E 48 80 30 00
        E 0 b0 7b 00
        E 0 ff 2f 00
      >
    >
  >
  <TRACK {7830102A-75FD-4AB0-8DFD-21FD457EB597}
    NAME "NES - Pulse 2 [ch1]"
    PEAKCOL 10092441
    BEAT -1
    AUTOMODE 0
    PANLAWFLAGS 3
    VOLPAN 1 0 -1 -1 1
    MUTESOLO 0 0 0
    IPHASE 0
    PLAYOFFS 0 1
    ISBUS 0 0
    BUSCOMP 0 0 0 0 0
    SHOWINMIX 1 0.6667 0.5 1 0.5 0 0 0
    FIXEDLANES 9 0 0 0 0
    SEL 0
    REC 0 5088 1 0 0 0 0 0
    VU 2
    TRACKHEIGHT 0 0 0 0 0 0 0
    INQ 0 0 0 0.5 100 0 0 100
    NCHAN 2
    FX 1
    TRACKID {7830102A-75FD-4AB0-8DFD-21FD457EB597}
    PERF 0
    MIDIOUT -1
    MAINSEND 1 0
    <FXCHAIN
      WNDRECT 24 52 700 560
      SHOW 0
      LASTSEL 0
      DOCKED 0
      BYPASS 0 0 0
      <JS "ReapNES Studio/ReapNES_Console.jsfx" ""
        2 15 1 10 80 10 100 2 1 15 1 5 60 10 80 1 1 0 50 0 0 15 1 0 100 0 0 0.500000 0.500000 0.400000 0.300000 0.800000 1 1 0 0 0 0 - - - - - - - - - - - - - - - - - - - - - - - - - -
      >
      FLOATPOS 0 0 0 0
      FXID {A69F053E-8DE2-4297-BC08-9F28C00E7453}
      WAK 0 0
    >
    <ITEM
      POSITION 0
      LENGTH 71.89735830000001
      LOOP 0
      ALLTAKES 0
      FADEIN 0 0 0 0 0 0 0
      FADEOUT 0 0 0 0 0 0 0
      MUTE 0 0
      SEL 0
      IGUID {4D5F4D00-363E-4D50-8107-1816F74616D1}
      <SOURCE MIDI
        HASDATA 1 480 QN
        CCINTERP 32
        E 0 c1 51
        E 1728 b1 0c 20
        E 0 b1 0b 55
        E 0 91 34 55
        E 72240 81 34 00
        E 0 b1 7b 00
        E 0 ff 2f 00
      >
    >
  >
  <TRACK {288FDE78-8585-445A-BD63-82B82F052C2A}
    NAME "NES - Triangle [ch2]"
    PEAKCOL 16744192
    BEAT -1
    AUTOMODE 0
    PANLAWFLAGS 3
    VOLPAN 1 0 -1 -1 1
    MUTESOLO 0 0 0
    IPHASE 0
    PLAYOFFS 0 1
    ISBUS 0 0
    BUSCOMP 0 0 0 0 0
    SHOWINMIX 1 0.6667 0.5 1 0.5 0 0 0
    FIXEDLANES 9 0 0 0 0
    SEL 0
    REC 0 5088 1 0 0 0 0 0
    VU 2
    TRACKHEIGHT 0 0 0 0 0 0 0
    INQ 0 0 0 0.5 100 0 0 100
    NCHAN 2
    FX 1
    TRACKID {288FDE78-8585-445A-BD63-82B82F052C2A}
    PERF 0
    MIDIOUT -1
    MAINSEND 1 0
    <FXCHAIN
      WNDRECT 24 52 700 560
      SHOW 0
      LASTSEL 0
      DOCKED 0
      BYPASS 0 0 0
      <JS "ReapNES Studio/ReapNES_Console.jsfx" ""
        2 15 1 10 80 10 100 2 1 15 1 5 60 10 80 1 1 0 50 0 0 15 1 0 100 0 0 0.500000 0.500000 0.400000 0.300000 0.800000 2 1 0 0 0 0 - - - - - - - - - - - - - - - - - - - - - - - - - -
      >
      FLOATPOS 0 0 0 0
      FXID {5E48EAAF-D3AE-4F0E-9D47-663D4C8A288A}
      WAK 0 0
    >
    <ITEM
      POSITION 0
      LENGTH 71.89735830000001
      LOOP 0
      ALLTAKES 0
      FADEIN 0 0 0 0 0 0 0
      FADEOUT 0 0 0 0 0 0 0
      MUTE 0 0
      SEL 0
      IGUID {5902EFB7-4ADE-4551-9547-1103778B6D64}
      <SOURCE MIDI
        HASDATA 1 480 QN
        CCINTERP 32
        E 0 c2 26
        E 4608 b2 0b 7f
        E 0 92 47 7f
        E 384 82 47 00
        E 0 b2 0b 7f
        E 0 92 4a 7f
        E 384 82 4a 00
        E 0 b2 0b 7f
        E 0 92 4d 7f
        E 384 82 4d 00
        E 0 b2 0b 7f
        E 0 92 4c 7f
        E 384 82 4c 00
        E 0 b2 0b 7f
        E 0 92 4a 7f
        E 384 82 4a 00
        E 0 b2 0b 7f
        E 0 92 45 7f
        E 384 82 45 00
        E 0 b2 0b 7f
        E 0 92 3b 7f
        E 384 82 3b 00
        E 0 b2 0b 7f
        E 0 92 3e 7f
        E 384 82 3e 00
        E 0 b2 0b 7f
        E 0 92 41 7f
        E 384 82 41 00
        E 0 b2 0b 7f
        E 0 92 40 7f
        E 384 82 40 00
        E 0 b2 0b 7f
        E 0 92 3e 7f
        E 384 82 3e 00
        E 0 b2 0b 7f
        E 0 92 39 7f
        E 384 82 39 00
        E 0 b2 0b 7f
        E 0 92 40 7f
        E 800 82 40 00
        E 0 b2 0b 7f
        E 0 92 44 7f
        E 576 82 44 00
        E 0 b2 0b 7f
        E 0 92 40 7f
        E 256 82 40 00
        E 0 b2 0b 7f
        E 0 92 45 7f
        E 672 82 45 00
        E 0 b2 0b 7f
        E 0 92 40 7f
        E 800 82 40 00
        E 0 b2 0b 7f
        E 0 92 44 7f
        E 2656 82 44 00
        E 0 b2 0b 7f
        E 0 92 3e 7f
        E 768 82 3e 00
        E 0 b2 0b 7f
        E 0 92 3c 7f
        E 1152 82 3c 00
        E 0 b2 0b 7f
        E 0 92 40 7f
        E 192 82 40 00
        E 0 b2 0b 7f
        E 0 92 3e 7f
        E 192 82 3e 00
        E 0 b2 0b 7f
        E 0 92 40 7f
        E 192 82 40 00
        E 0 b2 0b 7f
        E 0 92 3e 7f
        E 192 82 3e 00
        E 0 b2 0b 7f
        E 0 92 3c 7f
        E 384 82 3c 00
        E 0 b2 0b 7f
        E 0 92 3b 7f
        E 768 82 3b 00
        E 0 b2 0b 7f
        E 0 92 39 7f
        E 2304 82 39 00
        E 0 b2 0b 7f
        E 0 92 40 7f
        E 768 82 40 00
        E 0 b2 0b 7f
        E 0 92 3e 7f
        E 1152 82 3e 00
        E 0 b2 0b 7f
        E 0 92 45 7f
        E 192 82 45 00
        E 0 b2 0b 7f
        E 0 92 43 7f
        E 192 82 43 00
        E 0 b2 0b 7f
        E 0 92 45 7f
        E 192 82 45 00
        E 0 b2 0b 7f
        E 0 92 43 7f
        E 192 82 43 00
        E 0 b2 0b 7f
        E 0 92 45 7f
        E 384 82 45 00
        E 0 b2 0b 7f
        E 0 92 41 7f
        E 1536 82 41 00
        E 0 b2 0b 7f
        E 0 92 43 7f
        E 1920 82 43 00
        E 0 b2 0b 7f
        E 0 92 46 7f
        E 192 82 46 00
        E 0 b2 0b 7f
        E 0 92 43 7f
        E 192 82 43 00
        E 0 b2 0b 7f
        E 0 92 41 7f
        E 384 82 41 00
        E 0 b2 0b 7f
        E 0 92 43 7f
        E 192 82 43 00
        E 0 b2 0b 7f
        E 0 92 41 7f
        E 192 82 41 00
        E 0 b2 0b 7f
        E 0 92 3f 7f
        E 384 82 3f 00
        E 0 b2 0b 7f
        E 0 92 41 7f
        E 192 82 41 00
        E 0 b2 0b 7f
        E 0 92 3f 7f
        E 192 82 3f 00
        E 0 b2 0b 7f
        E 0 92 3e 7f
        E 768 82 3e 00
        E 0 b2 0b 7f
        E 0 92 3c 7f
        E 384 82 3c 00
        E 0 b2 0b 7f
        E 0 92 3e 7f
        E 192 82 3e 00
        E 0 b2 0b 7f
        E 0 92 3c 7f
        E 960 82 3c 00
        E 0 b2 0b 7f
        E 0 92 41 7f
        E 384 82 41 00
        E 0 b2 0b 7f
        E 0 92 43 7f
        E 192 82 43 00
        E 0 b2 0b 7f
        E 0 92 41 7f
        E 192 82 41 00
        E 0 b2 0b 7f
        E 0 92 3f 7f
        E 1952 82 3f 00
        E 0 b2 0b 7f
        E 0 92 41 7f
        E 192 82 41 00
        E 0 b2 0b 7f
        E 0 92 3f 7f
        E 192 82 3f 00
        E 0 b2 0b 7f
        E 0 92 3e 7f
        E 384 82 3e 00
        E 0 b2 0b 7f
        E 0 92 3f 7f
        E 192 82 3f 00
        E 0 b2 0b 7f
        E 0 92 3e 7f
        E 192 82 3e 00
        E 0 b2 0b 7f
        E 0 92 3c 7f
        E 4992 82 3c 00
        E 0 b2 0b 7f
        E 0 92 43 7f
        E 1760 82 43 00
        E 0 b2 0b 7f
        E 0 92 41 7f
        E 192 82 41 00
        E 0 b2 0b 7f
        E 0 92 43 7f
        E 3456 82 43 00
        E 0 b2 0b 7f
        E 0 92 46 7f
        E 192 82 46 00
        E 0 b2 0b 7f
        E 0 92 43 7f
        E 192 82 43 00
        E 0 b2 0b 7f
        E 0 92 41 7f
        E 384 82 41 00
        E 0 b2 0b 7f
        E 0 92 43 7f
        E 192 82 43 00
        E 0 b2 0b 7f
        E 0 92 41 7f
        E 192 82 41 00
        E 0 b2 0b 7f
        E 0 92 3f 7f
        E 384 82 3f 00
        E 0 b2 0b 7f
        E 0 92 41 7f
        E 224 82 41 00
        E 0 b2 0b 7f
        E 0 92 32 7f
        E 96 82 32 00
        E 0 b2 0b 7f
        E 0 92 34 7f
        E 96 82 34 00
        E 0 b2 0b 7f
        E 0 92 35 7f
        E 96 82 35 00
        E 0 b2 0b 7f
        E 0 92 34 7f
        E 96 82 34 00
        E 0 b2 0b 7f
        E 0 92 2b 7f
        E 4896 82 2b 00
        E 0 b2 0b 7f
        E 0 92 47 7f
        E 384 82 47 00
        E 0 b2 0b 7f
        E 0 92 4a 7f
        E 384 82 4a 00
        E 0 b2 0b 7f
        E 0 92 4d 7f
        E 384 82 4d 00
        E 0 b2 0b 7f
        E 0 92 4c 7f
        E 384 82 4c 00
        E 0 b2 0b 7f
        E 0 92 4a 7f
        E 384 82 4a 00
        E 0 b2 0b 7f
        E 0 92 45 7f
        E 384 82 45 00
        E 0 b2 0b 7f
        E 0 92 3b 7f
        E 384 82 3b 00
        E 0 b2 0b 7f
        E 0 92 3e 7f
        E 384 82 3e 00
        E 0 b2 0b 7f
        E 0 92 41 7f
        E 384 82 41 00
        E 0 b2 0b 7f
        E 0 92 40 7f
        E 384 82 40 00
        E 0 b2 0b 7f
        E 0 92 3e 7f
        E 384 82 3e 00
        E 0 b2 0b 7f
        E 0 92 39 7f
        E 384 82 39 00
        E 0 b2 0b 7f
        E 0 92 40 7f
        E 800 82 40 00
        E 0 b2 0b 7f
        E 0 92 44 7f
        E 576 82 44 00
        E 0 b2 0b 7f
        E 0 92 40 7f
        E 256 82 40 00
        E 0 b2 0b 7f
        E 0 92 45 7f
        E 672 82 45 00
        E 0 b2 0b 7f
        E 0 92 40 7f
        E 800 82 40 00
        E 0 b2 0b 7f
        E 0 92 44 7f
        E 2624 82 44 00
        E 0 b2 0b 7f
        E 0 92 3e 7f
        E 768 82 3e 00
        E 0 b2 0b 7f
        E 0 92 3c 7f
        E 1152 82 3c 00
        E 0 b2 0b 7f
        E 0 92 40 7f
        E 192 82 40 00
        E 0 b2 0b 7f
        E 0 92 3e 7f
        E 192 82 3e 00
        E 0 b2 0b 7f
        E 0 92 40 7f
        E 192 82 40 00
        E 0 b2 0b 7f
        E 0 92 3e 7f
        E 192 82 3e 00
        E 0 b2 0b 7f
        E 0 92 3c 7f
        E 384 82 3c 00
        E 0 b2 0b 7f
        E 0 92 3b 7f
        E 768 82 3b 00
        E 0 b2 0b 7f
        E 0 92 39 7f
        E 2304 82 39 00
        E 0 b2 0b 7f
        E 0 92 40 7f
        E 2336 82 40 00
        E 0 b2 0b 7f
        E 0 92 3e 7f
        E 1152 82 3e 00
        E 0 b2 0b 7f
        E 0 92 45 7f
        E 192 82 45 00
        E 0 b2 0b 7f
        E 0 92 43 7f
        E 192 82 43 00
        E 0 b2 0b 7f
        E 0 92 45 7f
        E 192 82 45 00
        E 0 b2 0b 7f
        E 0 92 43 7f
        E 192 82 43 00
        E 0 b2 0b 7f
        E 0 92 45 7f
        E 48 82 45 00
        E 0 b2 7b 00
        E 0 ff 2f 00
      >
    >
  >
  <TRACK {CC88EE3C-0FF0-45B9-9DB8-7FA08E26F09C}
    NAME "NES - Noise / Drums [ch3]"
    PEAKCOL 11184810
    BEAT -1
    AUTOMODE 0
    PANLAWFLAGS 3
    VOLPAN 1 0 -1 -1 1
    MUTESOLO 0 0 0
    IPHASE 0
    PLAYOFFS 0 1
    ISBUS 0 0
    BUSCOMP 0 0 0 0 0
    SHOWINMIX 1 0.6667 0.5 1 0.5 0 0 0
    FIXEDLANES 9 0 0 0 0
    SEL 0
    REC 0 5088 1 0 0 0 0 0
    VU 2
    TRACKHEIGHT 0 0 0 0 0 0 0
    INQ 0 0 0 0.5 100 0 0 100
    NCHAN 2
    FX 1
    TRACKID {CC88EE3C-0FF0-45B9-9DB8-7FA08E26F09C}
    PERF 0
    MIDIOUT -1
    MAINSEND 1 0
    <FXCHAIN
      WNDRECT 24 52 700 560
      SHOW 0
      LASTSEL 0
      DOCKED 0
      BYPASS 0 0 0
      <JS "ReapNES Studio/ReapNES_Console.jsfx" ""
        2 15 1 10 80 10 100 2 1 15 1 5 60 10 80 1 1 0 50 0 0 15 1 0 100 0 0 0.500000 0.500000 0.400000 0.300000 0.800000 3 1 0 0 0 0 - - - - - - - - - - - - - - - - - - - - - - - - - -
      >
      FLOATPOS 0 0 0 0
      FXID {5D1C9DDB-813B-4532-AA36-84FAB45DD438}
      WAK 0 0
    >
    <ITEM
      POSITION 0
      LENGTH 71.89735830000001
      LOOP 0
      ALLTAKES 0
      FADEIN 0 0 0 0 0 0 0
      FADEOUT 0 0 0 0 0 0 0
      MUTE 0 0
      SEL 0
      IGUID {20466497-617C-423B-8D57-7DDFBA02FBFD}
      <SOURCE MIDI
        HASDATA 1 480 QN
        CCINTERP 32
        E 4032 93 2a 08
        E 5184 83 2a 00
        E 0 93 2a 08
        E 6336 83 2a 00
        E 0 93 2a 08
        E 17248 83 2a 00
        E 0 93 2a 7f
        E 1984 83 2a 00
        E 0 93 2a 08
        E 5984 83 2a 00
        E 0 93 2a 7f
        E 1728 83 2a 00
        E 0 93 2a 08
        E 15296 83 2a 00
        E 0 93 2a 08
        E 6304 83 2a 00
        E 0 93 2a 08
        E 5824 83 2a 00
        E 0 93 2a 7f
        E 1888 83 2a 00
        E 0 93 2a 08
        E 2144 83 2a 00
        E 0 93 2a 7f
        E 16 83 2a 00
        E 0 b3 7b 00
        E 0 ff 2f 00
      >
    >
  >
>