<REAPER_PROJECT 0.1 "7.27/win64" 1707000000
  <NOTES 0 2
    |ReapNES Studio Project
    |MIDI Import - Dragon_Fighter_title_rom_v1
  >
  RIPPLE 0
  GROUPOVERRIDE 0 0 0
  AUTOXFADE 129
  ENVATTACH 3
  POOLEDENVATTACH 0
  MIXERUIFLAGS 11 48
  ENVFADESZ10 40
  PEAKGAIN 1
  FEEDBACK 0
  PANLAW 1
  PROJOFFS 0 0 0
  MAXPROJLEN 0 0
  GRID 3199 8 1 8 1 0 0 0
  TIMEMODE 1 5 -1 30 0 0 -1
  VIDEO_CONFIG 0 0 65792
  PANMODE 3
  PANLAWFLAGS 3
  CURSOR 0
  ZOOM 100 0 0
  VZOOMEX 6 0
  USE_REC_CFG 0
  RECMODE 1
  SMPTESYNC 0 30 100 40 1000 300 0 0 1 0 0
  LOOP 0
  LOOPGRAN 0 4
  RECORD_PATH "Media" ""
  <RECORD_CFG
    ZXZhdxgAAQ==
  >
  <APPLYFX_CFG
  >
  RENDER_FILE ""
  RENDER_PATTERN ""
  RENDER_FMT 0 2 0
  RENDER_1X 0
  RENDER_RANGE 1 0 0 18 1000
  RENDER_RESAMPLE 3 0 1
  RENDER_ADDTOPROJ 0
  RENDER_STEMS 0
  RENDER_DITHER 0
  TIMELOCKMODE 1
  TEMPOENVLOCKMODE 1
  ITEMMIX 1
  DEFPITCHMODE 589824 0
  TAKELANE 1
  SAMPLERATE 44100 0 0
  <RENDER_CFG
    ZXZhdxgAAQ==
  >
  LOCK 1
  <METRONOME 6 2
    VOL 0.25 0.125
    BEATLEN 4
    FREQ 1760 880 1
    SAMPLES "" ""
    SPLIGNORE 0 0
    SPLDEF 2 660 "" 0
    SPLDEF 3 440 "" 0
    PATTERN 0 169
    PATTERNSTR ABBB
    MULT 1
  >
  GLOBAL_AUTO -1
  TEMPO 128.59999614200012 4 4
  PLAYRATE 1 0 0.25 4
  SELECTION 0 0
  SELECTION2 0 0
  MASTERAUTOMODE 0
  MASTERTRACKHEIGHT 0 0
  MASTERPEAKCOL 16576
  MASTERMUTESOLO 0
  MASTERTRACKVIEW 0 0.6667 0.5 0.5 0 0 0 0 0 0 0 0 0 0
  MASTERHWOUT 0 0 1 0 0 0 0 -1
  MASTER_NCH 2 2
  MASTER_VOLUME 1 0 -1 -1 1
  MASTER_PANMODE 3
  MASTER_PANLAWFLAGS 3
  MASTER_FX 1
  MASTER_SEL 0
  <MASTERPLAYSPEEDENV
    EGUID {1DA41012-685B-40C5-A749-08CB952141DD}
    ACT 0 -1
    VIS 0 1 1
    LANEHEIGHT 0 0
    ARM 0
    DEFSHAPE 0 -1 -1
  >
  <TEMPOENVEX
    EGUID {911BF98A-5ACA-4BCB-B0CF-D29F6499E810}
    ACT 1 -1
    VIS 1 0 1
    LANEHEIGHT 0 0
    ARM 0
    DEFSHAPE 1 -1 -1
  >
  <PROJBAY
  >
  <TRACK {5D90C27F-63EE-41DC-9B83-62032DDBEE3D}
    NAME "NES - Pulse 1 [ch0]"
    PEAKCOL 16576606
    BEAT -1
    AUTOMODE 0
    PANLAWFLAGS 3
    VOLPAN 1 0 -1 -1 1
    MUTESOLO 0 0 0
    IPHASE 0
    PLAYOFFS 0 1
    ISBUS 0 0
    BUSCOMP 0 0 0 0 0
    SHOWINMIX 1 0.6667 0.5 1 0.5 0 0 0
    FIXEDLANES 9 0 0 0 0
    SEL 1
    REC 1 5088 1 0 0 0 0 0
    VU 2
    TRACKHEIGHT 0 0 0 0 0 0 0
    INQ 0 0 0 0.5 100 0 0 100
    NCHAN 2
    FX 1
    TRACKID {5D90C27F-63EE-41DC-9B83-62032DDBEE3D}
    PERF 0
    MIDIOUT -1
    MAINSEND 1 0
    <FXCHAIN
      WNDRECT 24 52 700 560
      SHOW 0
      LASTSEL 0
      DOCKED 0
      BYPASS 0 0 0
      <JS "ReapNES Studio/ReapNES_Console.jsfx" ""
        2 15 1 10 80 10 100 2 1 15 1 5 60 10 80 1 1 0 50 0 0 15 1 0 100 0 0 0.500000 0.500000 0.400000 0.300000 0.800000 0 1 0 0 0 0 - - - - - - - - - - - - - - - - - - - - - - - - - -
      >
      FLOATPOS 0 0 0 0
      FXID {CAD17424-B5EE-44D4-A570-1501D1B397F6}
      WAK 0 0
    >
    <ITEM
      POSITION 0
      LENGTH 7.1695181
      LOOP 0
      ALLTAKES 0
      FADEIN 0 0 0 0 0 0 0
      FADEOUT 0 0 0 0 0 0 0
      MUTE 0 0
      SEL 0
      IGUID {C4C8A96B-1FEE-45E8-8BE1-1BD66D6453F5}
      <SOURCE MIDI
        HASDATA 1 480 QN
        CCINTERP 32
        E 0 c0 50
        E 0 b0 0c 20
        E 0 b0 0b 7f
        E 0 90 39 7f
        E 32 80 39 00
        E 0 90 32 7f
        E 32 80 32 00
        E 0 90 2d 7f
        E 32 80 2d 00
        E 0 90 29 7f
        E 32 80 29 00
        E 0 90 68 7f
        E 16 80 68 00
        E 0 90 5c 7f
        E 16 80 5c 00
        E 0 90 56 7f
        E 16 80 56 00
        E 0 90 51 7f
        E 16 80 51 00
        E 0 90 4d 7f
        E 16 80 4d 00
        E 0 90 4a 7f
        E 16 80 4a 00
        E 0 90 47 7f
        E 16 80 47 00
        E 0 90 45 7f
        E 16 80 45 00
        E 0 90 43 7f
        E 16 80 43 00
        E 0 90 41 7f
        E 16 80 41 00
        E 0 90 3f 7f
        E 16 80 3f 00
        E 0 90 3e 7f
        E 16 80 3e 00
        E 0 90 3c 7f
        E 16 80 3c 00
        E 0 90 3b 7f
        E 16 80 3b 00
        E 0 90 3a 7f
        E 16 80 3a 00
        E 0 90 39 7f
        E 16 80 39 00
        E 0 90 38 7f
        E 16 80 38 00
        E 0 90 37 7f
        E 16 80 37 00
        E 0 90 36 7f
        E 16 80 36 00
        E 0 90 35 7f
        E 16 b0 0b 33
        E 0 80 35 00
        E 0 90 68 33
        E 16 80 68 00
        E 0 90 5c 33
        E 16 80 5c 00
        E 0 90 56 33
        E 16 80 56 00
        E 0 90 51 33
        E 16 80 51 00
        E 0 90 4d 33
        E 16 80 4d 00
        E 0 90 4a 33
        E 16 80 4a 00
        E 0 90 47 33
        E 16 80 47 00
        E 0 90 45 33
        E 16 80 45 00
        E 0 90 43 33
        E 16 80 43 00
        E 0 90 41 33
        E 16 80 41 00
        E 0 90 3f 33
        E 16 80 3f 00
        E 0 90 3e 33
        E 16 80 3e 00
        E 0 90 3c 33
        E 16 80 3c 00
        E 0 90 3b 33
        E 16 80 3b 00
        E 0 90 3a 33
        E 16 80 3a 00
        E 0 90 39 33
        E 16 80 39 00
        E 0 90 38 33
        E 16 80 38 00
        E 0 90 37 33
        E 16 80 37 00
        E 0 90 36 33
        E 16 80 36 00
        E 0 90 35 33
        E 16 b0 0b 19
        E 0 80 35 00
        E 0 90 68 19
        E 16 80 68 00
        E 0 90 5c 19
        E 16 80 5c 00
        E 0 90 56 19
        E 16 80 56 00
        E 0 90 51 19
        E 16 80 51 00
        E 0 90 4d 19
        E 16 80 4d 00
        E 0 90 4a 19
        E 16 80 4a 00
        E 0 90 47 19
        E 16 80 47 00
        E 0 90 45 19
        E 16 80 45 00
        E 0 90 43 19
        E 16 80 43 00
        E 0 90 41 19
        E 16 80 41 00
        E 0 90 3f 19
        E 16 80 3f 00
        E 0 90 3e 19
        E 16 80 3e 00
        E 0 90 3c 19
        E 16 80 3c 00
        E 0 90 3b 19
        E 16 80 3b 00
        E 0 90 3a 19
        E 16 80 3a 00
        E 0 90 39 19
        E 16 80 39 00
        E 0 90 38 19
        E 16 80 38 00
        E 0 90 37 19
        E 16 80 37 00
        E 0 90 36 19
        E 16 80 36 00
        E 0 90 35 19
        E 16 b0 0c 40
        E 0 b0 0b 11
        E 0 80 35 00
        E 0 90 42 11
        E 128 80 42 00
        E 0 90 47 11
        E 128 80 47 00
        E 0 90 42 11
        E 128 80 42 00
        E 0 90 3e 11
        E 128 80 3e 00
        E 0 90 3d 11
        E 128 80 3d 00
        E 0 90 3b 11
        E 128 80 3b 00
        E 0 90 3d 11
        E 128 80 3d 00
        E 0 90 3e 11
        E 128 80 3e 00
        E 0 90 42 11
        E 128 b0 0b 19
        E 0 80 42 00
        E 0 90 47 19
        E 128 80 47 00
        E 0 90 42 19
        E 128 80 42 00
        E 0 90 3e 19
        E 128 80 3e 00
        E 0 90 3d 19
        E 128 80 3d 00
        E 0 90 3b 19
        E 128 80 3b 00
        E 0 90 3d 19
        E 128 80 3d 00
        E 0 90 3e 19
        E 128 80 3e 00
        E 0 90 42 19
        E 128 b0 0b 11
        E 0 80 42 00
        E 0 90 47 11
        E 128 80 47 00
        E 0 90 42 11
        E 128 80 42 00
        E 0 90 3e 11
        E 128 80 3e 00
        E 0 90 3d 11
        E 128 80 3d 00
        E 0 90 3b 11
        E 128 80 3b 00
        E 0 90 3d 11
        E 128 80 3d 00
        E 0 90 3e 11
        E 128 80 3e 00
        E 0 90 42 11
        E 128 b0 0b 19
        E 0 80 42 00
        E 0 90 47 19
        E 128 80 47 00
        E 0 90 42 19
        E 128 80 42 00
        E 0 90 3e 19
        E 128 80 3e 00
        E 0 90 3d 19
        E 128 80 3d 00
        E 0 90 3b 19
        E 128 80 3b 00
        E 0 90 3d 19
        E 128 80 3d 00
        E 0 90 3e 19
        E 128 80 3e 00
        E 0 90 42 19
        E 128 b0 0b 08
        E 0 80 42 00
        E 0 90 47 08
        E 128 80 47 00
        E 0 90 42 08
        E 128 80 42 00
        E 0 90 3e 08
        E 128 80 3e 00
        E 0 90 3d 08
        E 128 80 3d 00
        E 0 90 3b 08
        E 128 80 3b 00
        E 0 90 3d 08
        E 128 80 3d 00
        E 0 90 3e 08
        E 128 80 3e 00
        E 0 90 42 08
        E 128 b0 0c 20
        E 0 b0 0b 3b
        E 0 80 42 00
        E 0 90 52 3b
        E 512 b0 0b 19
        E 512 b0 0b 11
        E 16 80 52 00
        E 0 b0 7b 00
        E 0 ff 2f 00
      >
    >
  >
  <TRACK {DF87F8B6-01C9-430A-AEF7-C222816FF060}
    NAME "NES - Pulse 2 [ch1]"
    PEAKCOL 10092441
    BEAT -1
    AUTOMODE 0
    PANLAWFLAGS 3
    VOLPAN 1 0 -1 -1 1
    MUTESOLO 0 0 0
    IPHASE 0
    PLAYOFFS 0 1
    ISBUS 0 0
    BUSCOMP 0 0 0 0 0
    SHOWINMIX 1 0.6667 0.5 1 0.5 0 0 0
    FIXEDLANES 9 0 0 0 0
    SEL 0
    REC 0 5088 1 0 0 0 0 0
    VU 2
    TRACKHEIGHT 0 0 0 0 0 0 0
    INQ 0 0 0 0.5 100 0 0 100
    NCHAN 2
    FX 1
    TRACKID {DF87F8B6-01C9-430A-AEF7-C222816FF060}
    PERF 0
    MIDIOUT -1
    MAINSEND 1 0
    <FXCHAIN
      WNDRECT 24 52 700 560
      SHOW 0
      LASTSEL 0
      DOCKED 0
      BYPASS 0 0 0
      <JS "ReapNES Studio/ReapNES_Console.jsfx" ""
        2 15 1 10 80 10 100 2 1 15 1 5 60 10 80 1 1 0 50 0 0 15 1 0 100 0 0 0.500000 0.500000 0.400000 0.300000 0.800000 1 1 0 0 0 0 - - - - - - - - - - - - - - - - - - - - - - - - - -
      >
      FLOATPOS 0 0 0 0
      FXID {53F77270-69A0-4ACA-958C-413A07084B0D}
      WAK 0 0
    >
    <ITEM
      POSITION 0
      LENGTH 7.1695181
      LOOP 0
      ALLTAKES 0
      FADEIN 0 0 0 0 0 0 0
      FADEOUT 0 0 0 0 0 0 0
      MUTE 0 0
      SEL 0
      IGUID {CA64144A-0EC5-469C-AEB0-E1CBD59A15CF}
      <SOURCE MIDI
        HASDATA 1 480 QN
        CCINTERP 32
        E 0 c1 51
        E 0 b1 0c 20
        E 0 b1 0b 7f
        E 0 91 39 7f
        E 32 81 39 00
        E 0 91 32 7f
        E 32 81 32 00
        E 0 91 2d 7f
        E 32 81 2d 00
        E 0 91 29 7f
        E 32 81 29 00
        E 0 91 68 7f
        E 16 81 68 00
        E 0 91 5c 7f
        E 16 81 5c 00
        E 0 91 56 7f
        E 16 81 56 00
        E 0 91 51 7f
        E 16 81 51 00
        E 0 91 4d 7f
        E 16 81 4d 00
        E 0 91 4a 7f
        E 16 81 4a 00
        E 0 91 47 7f
        E 16 81 47 00
        E 0 91 45 7f
        E 16 81 45 00
        E 0 91 43 7f
        E 16 81 43 00
        E 0 91 41 7f
        E 16 81 41 00
        E 0 91 3f 7f
        E 16 81 3f 00
        E 0 91 3e 7f
        E 16 81 3e 00
        E 0 91 3c 7f
        E 16 81 3c 00
        E 0 91 3b 7f
        E 16 81 3b 00
        E 0 91 3a 7f
        E 16 81 3a 00
        E 0 91 39 7f
        E 16 81 39 00
        E 0 91 38 7f
        E 16 81 38 00
        E 0 91 37 7f
        E 16 81 37 00
        E 0 91 36 7f
        E 16 81 36 00
        E 0 91 35 7f
        E 16 b1 0b 33
        E 0 81 35 00
        E 0 91 68 33
        E 16 81 68 00
        E 0 91 5c 33
        E 16 81 5c 00
        E 0 91 56 33
        E 16 81 56 00
        E 0 91 51 33
        E 16 81 51 00
        E 0 91 4d 33
        E 16 81 4d 00
        E 0 91 4a 33
        E 16 81 4a 00
        E 0 91 47 33
        E 16 81 47 00
        E 0 91 45 33
        E 16 81 45 00
        E 0 91 43 33
        E 16 81 43 00
        E 0 91 41 33
        E 16 81 41 00
        E 0 91 3f 33
        E 16 81 3f 00
        E 0 91 3e 33
        E 16 81 3e 00
        E 0 91 3c 33
        E 16 81 3c 00
        E 0 91 3b 33
        E 16 81 3b 00
        E 0 91 3a 33
        E 16 81 3a 00
        E 0 91 39 33
        E 16 81 39 00
        E 0 91 38 33
        E 16 81 38 00
        E 0 91 37 33
        E 16 81 37 00
        E 0 91 36 33
        E 16 81 36 00
        E 0 91 35 33
        E 16 b1 0b 19
        E 0 81 35 00
        E 0 91 68 19
        E 16 81 68 00
        E 0 91 5c 19
        E 16 81 5c 00
        E 0 91 56 19
        E 16 81 56 00
        E 0 91 51 19
        E 16 81 51 00
        E 0 91 4d 19
        E 16 81 4d 00
        E 0 91 4a 19
        E 16 81 4a 00
        E 0 91 47 19
        E 16 81 47 00
        E 0 91 45 19
        E 16 81 45 00
        E 0 91 43 19
        E 16 81 43 00
        E 0 91 41 19
        E 16 81 41 00
        E 0 91 3f 19
        E 16 81 3f 00
        E 0 91 3e 19
        E 16 81 3e 00
        E 0 91 3c 19
        E 16 81 3c 00
        E 0 91 3b 19
        E 16 81 3b 00
        E 0 91 3a 19
        E 16 81 3a 00
        E 0 91 39 19
        E 16 81 39 00
        E 0 91 38 19
        E 16 81 38 00
        E 0 91 37 19
        E 16 81 37 00
        E 0 91 36 19
        E 16 81 36 00
        E 0 91 35 19
        E 16 b1 0c 40
        E 0 81 35 00
        E 0 91 47 19
        E 128 81 47 00
        E 0 91 42 19
        E 128 81 42 00
        E 0 91 3e 19
        E 128 81 3e 00
        E 0 91 3d 19
        E 128 81 3d 00
        E 0 91 3b 19
        E 128 81 3b 00
        E 0 91 3d 19
        E 128 81 3d 00
        E 0 91 3e 19
        E 128 81 3e 00
        E 0 91 42 19
        E 128 b1 0b 33
        E 0 81 42 00
        E 0 91 47 33
        E 128 81 47 00
        E 0 91 42 33
        E 128 81 42 00
        E 0 91 3e 33
        E 128 81 3e 00
        E 0 91 3d 33
        E 128 81 3d 00
        E 0 91 3b 33
        E 128 81 3b 00
        E 0 91 3d 33
        E 128 81 3d 00
        E 0 91 3e 33
        E 128 81 3e 00
        E 0 91 42 33
        E 128 b1 0b 4c
        E 0 81 42 00
        E 0 91 47 4c
        E 128 81 47 00
        E 0 91 42 4c
        E 128 81 42 00
        E 0 91 3e 4c
        E 128 81 3e 00
        E 0 91 3d 4c
        E 128 81 3d 00
        E 0 91 3b 4c
        E 128 81 3b 00
        E 0 91 3d 4c
        E 128 81 3d 00
        E 0 91 3e 4c
        E 128 81 3e 00
        E 0 91 42 4c
        E 128 b1 0b 33
        E 0 81 42 00
        E 0 91 47 33
        E 128 81 47 00
        E 0 91 42 33
        E 128 81 42 00
        E 0 91 3e 33
        E 128 81 3e 00
        E 0 91 3d 33
        E 128 81 3d 00
        E 0 91 3b 33
        E 128 81 3b 00
        E 0 91 3d 33
        E 128 81 3d 00
        E 0 91 3e 33
        E 128 81 3e 00
        E 0 91 42 33
        E 128 b1 0b 19
        E 0 81 42 00
        E 0 91 47 19
        E 128 81 47 00
        E 0 91 42 19
        E 128 81 42 00
        E 0 91 3e 19
        E 128 81 3e 00
        E 0 91 3d 19
        E 128 81 3d 00
        E 0 91 3b 19
        E 128 81 3b 00
        E 0 91 3d 19
        E 128 81 3d 00
        E 0 91 3e 19
        E 128 81 3e 00
        E 0 91 42 19
        E 128 b1 0c 20
        E 0 b1 0b 4c
        E 0 81 42 00
        E 0 91 53 4c
        E 512 b1 0b 33
        E 512 b1 0b 19
        E 144 81 53 00
        E 0 b1 7b 00
        E 0 ff 2f 00
      >
    >
  >
  <TRACK {6AB88B12-341B-4573-8C77-0B54CD3AA267}
    NAME "NES - Triangle [ch2]"
    PEAKCOL 16744192
    BEAT -1
    AUTOMODE 0
    PANLAWFLAGS 3
    VOLPAN 1 0 -1 -1 1
    MUTESOLO 0 0 0
    IPHASE 0
    PLAYOFFS 0 1
    ISBUS 0 0
    BUSCOMP 0 0 0 0 0
    SHOWINMIX 1 0.6667 0.5 1 0.5 0 0 0
    FIXEDLANES 9 0 0 0 0
    SEL 0
    REC 0 5088 1 0 0 0 0 0
    VU 2
    TRACKHEIGHT 0 0 0 0 0 0 0
    INQ 0 0 0 0.5 100 0 0 100
    NCHAN 2
    FX 1
    TRACKID {6AB88B12-341B-4573-8C77-0B54CD3AA267}
    PERF 0
    MIDIOUT -1
    MAINSEND 1 0
    <FXCHAIN
      WNDRECT 24 52 700 560
      SHOW 0
      LASTSEL 0
      DOCKED 0
      BYPASS 0 0 0
      <JS "ReapNES Studio/ReapNES_Console.jsfx" ""
        2 15 1 10 80 10 100 2 1 15 1 5 60 10 80 1 1 0 50 0 0 15 1 0 100 0 0 0.500000 0.500000 0.400000 0.300000 0.800000 2 1 0 0 0 0 - - - - - - - - - - - - - - - - - - - - - - - - - -
      >
      FLOATPOS 0 0 0 0
      FXID {A0301C05-5E73-4D9B-A783-69950383D8C0}
      WAK 0 0
    >
    <ITEM
      POSITION 0
      LENGTH 7.1695181
      LOOP 0
      ALLTAKES 0
      FADEIN 0 0 0 0 0 0 0
      FADEOUT 0 0 0 0 0 0 0
      MUTE 0 0
      SEL 0
      IGUID {04F7888F-95B2-490E-B30D-BEBCA85B4753}
      <SOURCE MIDI
        HASDATA 1 480 QN
        CCINTERP 32
        E 0 c2 26
        E 0 b2 0b 7f
        E 0 92 1e 7f
        E 512 82 1e 00
        E 0 b2 0b 7f
        E 0 92 1f 7f
        E 512 82 1f 00
        E 0 b2 0b 7f
        E 0 92 21 7f
        E 512 82 21 00
        E 0 b2 0b 7f
        E 0 92 22 7f
        E 512 82 22 00
        E 0 b2 0b 7f
        E 0 92 23 7f
        E 512 82 23 00
        E 0 b2 0b 7f
        E 0 92 24 7f
        E 512 82 24 00
        E 0 b2 0b 7f
        E 0 92 25 7f
        E 128 82 25 00
        E 0 b2 0b 7f
        E 0 92 26 7f
        E 128 82 26 00
        E 0 b2 0b 7f
        E 0 92 27 7f
        E 128 82 27 00
        E 0 b2 0b 7f
        E 0 92 28 7f
        E 128 82 28 00
        E 0 b2 0b 7f
        E 0 92 29 7f
        E 128 82 29 00
        E 0 b2 0b 7f
        E 0 92 2a 7f
        E 128 82 2a 00
        E 0 b2 0b 7f
        E 0 92 2b 7f
        E 128 82 2b 00
        E 0 b2 0b 7f
        E 0 92 2c 7f
        E 128 82 2c 00
        E 0 b2 0b 7f
        E 0 92 2f 7f
        E 2048 82 2f 00
        E 1232 b2 7b 00
        E 0 ff 2f 00
      >
    >
  >
  <TRACK {C41F699D-45B0-424E-95B7-9A31C9E2B964}
    NAME "NES - Noise / Drums [ch3]"
    PEAKCOL 11184810
    BEAT -1
    AUTOMODE 0
    PANLAWFLAGS 3
    VOLPAN 1 0 -1 -1 1
    MUTESOLO 0 0 0
    IPHASE 0
    PLAYOFFS 0 1
    ISBUS 0 0
    BUSCOMP 0 0 0 0 0
    SHOWINMIX 1 0.6667 0.5 1 0.5 0 0 0
    FIXEDLANES 9 0 0 0 0
    SEL 0
    REC 0 5088 1 0 0 0 0 0
    VU 2
    TRACKHEIGHT 0 0 0 0 0 0 0
    INQ 0 0 0 0.5 100 0 0 100
    NCHAN 2
    FX 1
    TRACKID {C41F699D-45B0-424E-95B7-9A31C9E2B964}
    PERF 0
    MIDIOUT -1
    MAINSEND 1 0
    <FXCHAIN
      WNDRECT 24 52 700 560
      SHOW 0
      LASTSEL 0
      DOCKED 0
      BYPASS 0 0 0
      <JS "ReapNES Studio/ReapNES_Console.jsfx" ""
        2 15 1 10 80 10 100 2 1 15 1 5 60 10 80 1 1 0 50 0 0 15 1 0 100 0 0 0.500000 0.500000 0.400000 0.300000 0.800000 3 1 0 0 0 0 - - - - - - - - - - - - - - - - - - - - - - - - - -
      >
      FLOATPOS 0 0 0 0
      FXID {3240F394-B756-4AA9-B51A-A8F352822770}
      WAK 0 0
    >
    <ITEM
      POSITION 0
      LENGTH 7.1695181
      LOOP 0
      ALLTAKES 0
      FADEIN 0 0 0 0 0 0 0
      FADEOUT 0 0 0 0 0 0 0
      MUTE 0 0
      SEL 0
      IGUID {36EEDC9E-2E32-4ADC-B457-862554627F70}
      <SOURCE MIDI
        HASDATA 1 480 QN
        CCINTERP 32
        E 0 93 2a 2a
        E 128 83 2a 00
        E 0 93 2a 5d
        E 32 83 2a 00
        E 0 93 2a 7f
        E 32 83 2a 00
        E 0 93 2a 7f
        E 32 83 2a 00
        E 0 93 2a 7f
        E 32 83 2a 00
        E 0 93 2a 7f
        E 128 83 2a 00
        E 0 93 2a 19
        E 32 83 2a 00
        E 0 93 2a 22
        E 32 83 2a 00
        E 0 93 2a 2a
        E 32 83 2a 00
        E 0 93 2a 33
        E 32 83 2a 00
        E 0 93 2a 33
        E 128 83 2a 00
        E 0 93 2a 08
        E 5888 83 2a 00
        E 848 b3 7b 00
        E 0 ff 2f 00
      >
    >
  >
>