<REAPER_PROJECT 0.1 "7.27/win64" 1707000000
  <NOTES 0 2
    |ReapNES Studio Project
    |MIDI Import - Destiny_of_an_Emperor_title_rom_v1
  >
  RIPPLE 0
  GROUPOVERRIDE 0 0 0
  AUTOXFADE 129
  ENVATTACH 3
  POOLEDENVATTACH 0
  MIXERUIFLAGS 11 48
  ENVFADESZ10 40
  PEAKGAIN 1
  FEEDBACK 0
  PANLAW 1
  PROJOFFS 0 0 0
  MAXPROJLEN 0 0
  GRID 3199 8 1 8 1 0 0 0
  TIMEMODE 1 5 -1 30 0 0 -1
  VIDEO_CONFIG 0 0 65792
  PANMODE 3
  PANLAWFLAGS 3
  CURSOR 0
  ZOOM 100 0 0
  VZOOMEX 6 0
  USE_REC_CFG 0
  RECMODE 1
  SMPTESYNC 0 30 100 40 1000 300 0 0 1 0 0
  LOOP 0
  LOOPGRAN 0 4
  RECORD_PATH "Media" ""
  <RECORD_CFG
    ZXZhdxgAAQ==
  >
  <APPLYFX_CFG
  >
  RENDER_FILE ""
  RENDER_PATTERN ""
  RENDER_FMT 0 2 0
  RENDER_1X 0
  RENDER_RANGE 1 0 0 18 1000
  RENDER_RESAMPLE 3 0 1
  RENDER_ADDTOPROJ 0
  RENDER_STEMS 0
  RENDER_DITHER 0
  TIMELOCKMODE 1
  TEMPOENVLOCKMODE 1
  ITEMMIX 1
  DEFPITCHMODE 589824 0
  TAKELANE 1
  SAMPLERATE 44100 0 0
  <RENDER_CFG
    ZXZhdxgAAQ==
  >
  LOCK 1
  <METRONOME 6 2
    VOL 0.25 0.125
    BEATLEN 4
    FREQ 1760 880 1
    SAMPLES "" ""
    SPLIGNORE 0 0
    SPLDEF 2 660 "" 0
    SPLDEF 3 440 "" 0
    PATTERN 0 169
    PATTERNSTR ABBB
    MULT 1
  >
  GLOBAL_AUTO -1
  TEMPO 128.59999614200012 4 4
  PLAYRATE 1 0 0.25 4
  SELECTION 0 0
  SELECTION2 0 0
  MASTERAUTOMODE 0
  MASTERTRACKHEIGHT 0 0
  MASTERPEAKCOL 16576
  MASTERMUTESOLO 0
  MASTERTRACKVIEW 0 0.6667 0.5 0.5 0 0 0 0 0 0 0 0 0 0
  MASTERHWOUT 0 0 1 0 0 0 0 -1
  MASTER_NCH 2 2
  MASTER_VOLUME 1 0 -1 -1 1
  MASTER_PANMODE 3
  MASTER_PANLAWFLAGS 3
  MASTER_FX 1
  MASTER_SEL 0
  <MASTERPLAYSPEEDENV
    EGUID {8DE767C0-C0E5-40B9-8E5F-9B87416167EF}
    ACT 0 -1
    VIS 0 1 1
    LANEHEIGHT 0 0
    ARM 0
    DEFSHAPE 0 -1 -1
  >
  <TEMPOENVEX
    EGUID {20E4CB54-DD0B-4BDB-870C-96FA7BB456C1}
    ACT 1 -1
    VIS 1 0 1
    LANEHEIGHT 0 0
    ARM 0
    DEFSHAPE 1 -1 -1
  >
  <PROJBAY
  >
  <TRACK {3DBCF066-E02D-4D4F-BDD4-A027ED98DD8E}
    NAME "NES - Pulse 1 [ch0]"
    PEAKCOL 16576606
    BEAT -1
    AUTOMODE 0
    PANLAWFLAGS 3
    VOLPAN 1 0 -1 -1 1
    MUTESOLO 0 0 0
    IPHASE 0
    PLAYOFFS 0 1
    ISBUS 0 0
    BUSCOMP 0 0 0 0 0
    SHOWINMIX 1 0.6667 0.5 1 0.5 0 0 0
    FIXEDLANES 9 0 0 0 0
    SEL 1
    REC 1 5088 1 0 0 0 0 0
    VU 2
    TRACKHEIGHT 0 0 0 0 0 0 0
    INQ 0 0 0 0.5 100 0 0 100
    NCHAN 2
    FX 1
    TRACKID {3DBCF066-E02D-4D4F-BDD4-A027ED98DD8E}
    PERF 0
    MIDIOUT -1
    MAINSEND 1 0
    <FXCHAIN
      WNDRECT 24 52 700 560
      SHOW 0
      LASTSEL 0
      DOCKED 0
      BYPASS 0 0 0
      <JS "ReapNES Studio/ReapNES_Console.jsfx" ""
        2 15 1 10 80 10 100 2 1 15 1 5 60 10 80 1 1 0 50 0 0 15 1 0 100 0 0 0.500000 0.500000 0.400000 0.300000 0.800000 0 1 0 0 0 0 - - - - - - - - - - - - - - - - - - - - - - - - - -
      >
      FLOATPOS 0 0 0 0
      FXID {D4ED0D54-E030-49E3-92BC-09382BFEE447}
      WAK 0 0
    >
    <ITEM
      POSITION 0
      LENGTH 9.315707900000001
      LOOP 0
      ALLTAKES 0
      FADEIN 0 0 0 0 0 0 0
      FADEOUT 0 0 0 0 0 0 0
      MUTE 0 0
      SEL 0
      IGUID {DCC67B32-7BB0-4D6E-83E4-BE8F94520D89}
      <SOURCE MIDI
        HASDATA 1 480 QN
        CCINTERP 32
        E 0 c0 50
        E 0 b0 0c 40
        E 0 b0 0b 66
        E 0 90 43 66
        E 64 b0 0b 5d
        E 80 b0 0b 55
        E 80 b0 0b 4c
        E 80 b0 0b 44
        E 80 b0 0b 3b
        E 80 b0 0b 33
        E 80 b0 0b 2a
        E 80 b0 0b 22
        E 80 b0 0b 19
        E 64 80 43 00
        E 16 b0 0b 66
        E 0 90 3d 66
        E 64 b0 0b 5d
        E 32 80 3d 00
        E 16 b0 0b 66
        E 0 90 40 66
        E 64 b0 0b 5d
        E 80 b0 0b 55
        E 80 b0 0b 4c
        E 80 b0 0b 44
        E 80 b0 0b 3b
        E 80 b0 0b 33
        E 80 b0 0b 2a
        E 80 b0 0b 22
        E 80 b0 0b 19
        E 64 80 40 00
        E 16 b0 0b 66
        E 0 90 3e 66
        E 64 b0 0b 5d
        E 80 b0 0b 55
        E 80 b0 0b 4c
        E 80 b0 0b 44
        E 80 b0 0b 3b
        E 48 80 3e 00
        E 16 b0 0b 66
        E 0 90 3c 66
        E 64 b0 0b 5d
        E 80 b0 0b 55
        E 80 b0 0b 4c
        E 80 b0 0b 44
        E 80 b0 0b 3b
        E 48 80 3c 00
        E 16 b0 0b 66
        E 0 90 39 66
        E 64 b0 0b 5d
        E 80 b0 0b 55
        E 80 b0 0b 4c
        E 80 b0 0b 44
        E 80 b0 0b 3b
        E 80 b0 0b 33
        E 80 b0 0b 2a
        E 80 b0 0b 22
        E 32 80 39 00
        E 16 b0 0b 66
        E 0 90 36 66
        E 64 80 36 00
        E 16 90 35 66
        E 64 80 35 00
        E 0 90 34 66
        E 80 b0 0b 5d
        E 80 b0 0b 55
        E 80 b0 0b 4c
        E 80 b0 0b 44
        E 80 b0 0b 3b
        E 80 b0 0b 33
        E 32 80 34 00
        E 16 b0 0b 66
        E 0 90 37 66
        E 64 b0 0b 5d
        E 80 b0 0b 55
        E 80 b0 0b 4c
        E 80 b0 0b 44
        E 80 b0 0b 3b
        E 48 80 37 00
        E 16 b0 0b 66
        E 0 90 39 66
        E 64 b0 0b 5d
        E 80 b0 0b 55
        E 80 b0 0b 4c
        E 80 b0 0b 44
        E 80 b0 0b 3b
        E 80 b0 0b 33
        E 80 b0 0b 2a
        E 80 b0 0b 22
        E 80 b0 0b 19
        E 80 b0 0b 11
        E 80 b0 0b 08
        E 80 80 39 00
        E 848 b0 0b 55
        E 0 90 40 55
        E 144 b0 0b 3b
        E 160 b0 0b 22
        E 128 80 40 00
        E 16 b0 0b 55
        E 0 90 3e 55
        E 144 b0 0b 3b
        E 160 b0 0b 22
        E 128 80 3e 00
        E 16 b0 0b 55
        E 0 90 3c 55
        E 144 b0 0b 3b
        E 160 b0 0b 22
        E 16 80 3c 00
        E 16 b0 0b 55
        E 0 90 39 55
        E 144 b0 0b 3b
        E 160 b0 0b 22
        E 16 80 39 00
        E 16 b0 0b 55
        E 0 90 37 55
        E 144 b0 0b 3b
        E 64 80 37 00
        E 16 b0 0b 55
        E 0 90 39 55
        E 144 b0 0b 3b
        E 160 b0 0b 22
        E 16 80 39 00
        E 16 b0 0b 55
        E 0 90 34 55
        E 144 b0 0b 3b
        E 160 b0 0b 22
        E 16 80 34 00
        E 16 b0 0b 55
        E 0 90 37 55
        E 144 b0 0b 3b
        E 64 80 37 00
        E 16 b0 0b 55
        E 0 90 39 55
        E 144 b0 0b 3b
        E 160 b0 0b 22
        E 160 b0 0b 08
        E 160 80 39 00
        E 112 b0 7b 00
        E 0 ff 2f 00
      >
    >
  >
  <TRACK {F62E4A49-188F-4CFD-8AA5-7A2DF073701D}
    NAME "NES - Pulse 2 [ch1]"
    PEAKCOL 10092441
    BEAT -1
    AUTOMODE 0
    PANLAWFLAGS 3
    VOLPAN 1 0 -1 -1 1
    MUTESOLO 0 0 0
    IPHASE 0
    PLAYOFFS 0 1
    ISBUS 0 0
    BUSCOMP 0 0 0 0 0
    SHOWINMIX 1 0.6667 0.5 1 0.5 0 0 0
    FIXEDLANES 9 0 0 0 0
    SEL 0
    REC 0 5088 1 0 0 0 0 0
    VU 2
    TRACKHEIGHT 0 0 0 0 0 0 0
    INQ 0 0 0 0.5 100 0 0 100
    NCHAN 2
    FX 1
    TRACKID {F62E4A49-188F-4CFD-8AA5-7A2DF073701D}
    PERF 0
    MIDIOUT -1
    MAINSEND 1 0
    <FXCHAIN
      WNDRECT 24 52 700 560
      SHOW 0
      LASTSEL 0
      DOCKED 0
      BYPASS 0 0 0
      <JS "ReapNES Studio/ReapNES_Console.jsfx" ""
        2 15 1 10 80 10 100 2 1 15 1 5 60 10 80 1 1 0 50 0 0 15 1 0 100 0 0 0.500000 0.500000 0.400000 0.300000 0.800000 1 1 0 0 0 0 - - - - - - - - - - - - - - - - - - - - - - - - - -
      >
      FLOATPOS 0 0 0 0
      FXID {A3A86E32-970D-4306-9DB3-C105FA779B98}
      WAK 0 0
    >
    <ITEM
      POSITION 0
      LENGTH 9.315707900000001
      LOOP 0
      ALLTAKES 0
      FADEIN 0 0 0 0 0 0 0
      FADEOUT 0 0 0 0 0 0 0
      MUTE 0 0
      SEL 0
      IGUID {860DE9DA-ECAD-4C4A-A376-90294A67A5F5}
      <SOURCE MIDI
        HASDATA 1 480 QN
        CCINTERP 32
        E 0 c1 51
        E 224 b1 0c 40
        E 0 b1 0b 44
        E 0 91 40 44
        E 64 b1 0b 3b
        E 32 81 40 00
        E 16 b1 0b 44
        E 0 91 43 44
        E 64 b1 0b 3b
        E 80 b1 0b 33
        E 80 b1 0b 2a
        E 80 b1 0b 22
        E 80 b1 0b 19
        E 80 b1 0b 11
        E 80 b1 0b 08
        E 80 81 43 00
        E 160 b1 0b 44
        E 0 91 3d 44
        E 64 b1 0b 3b
        E 32 81 3d 00
        E 16 b1 0b 44
        E 0 91 40 44
        E 64 b1 0b 3b
        E 80 b1 0b 33
        E 80 b1 0b 2a
        E 80 b1 0b 22
        E 80 b1 0b 19
        E 80 b1 0b 11
        E 80 b1 0b 08
        E 80 81 40 00
        E 160 b1 0b 44
        E 0 91 3e 44
        E 64 b1 0b 3b
        E 80 b1 0b 33
        E 80 b1 0b 2a
        E 80 b1 0b 22
        E 80 b1 0b 19
        E 48 81 3e 00
        E 16 b1 0b 44
        E 0 91 3c 44
        E 64 b1 0b 3b
        E 80 b1 0b 33
        E 80 b1 0b 2a
        E 80 b1 0b 22
        E 80 b1 0b 19
        E 48 81 3c 00
        E 16 b1 0b 44
        E 0 91 39 44
        E 64 b1 0b 3b
        E 80 b1 0b 33
        E 80 b1 0b 2a
        E 80 b1 0b 22
        E 80 b1 0b 19
        E 80 b1 0b 11
        E 80 b1 0b 08
        E 80 81 39 00
        E 48 b1 0b 44
        E 0 91 36 44
        E 64 81 36 00
        E 0 91 35 44
        E 64 81 35 00
        E 16 91 34 44
        E 512 81 34 00
        E 16 91 37 44
        E 64 b1 0b 3b
        E 32 81 37 00
        E 16 b1 0b 55
        E 0 91 58 55
        E 112 b1 0b 3b
        E 128 b1 0b 22
        E 128 b1 0b 08
        E 64 81 58 00
        E 16 b1 0b 55
        E 0 91 56 55
        E 112 b1 0b 3b
        E 128 b1 0b 22
        E 128 b1 0b 08
        E 64 81 56 00
        E 16 b1 0b 55
        E 0 91 54 55
        E 112 b1 0b 3b
        E 128 b1 0b 22
        E 80 81 54 00
        E 16 b1 0b 55
        E 0 91 51 55
        E 112 b1 0b 3b
        E 128 b1 0b 22
        E 80 81 51 00
        E 16 b1 0b 55
        E 0 91 4f 55
        E 112 b1 0b 3b
        E 96 81 4f 00
        E 16 b1 0b 44
        E 0 91 3c 44
        E 144 b1 0b 2a
        E 160 b1 0b 11
        E 128 81 3c 00
        E 16 b1 0b 44
        E 0 91 39 44
        E 144 b1 0b 2a
        E 160 b1 0b 11
        E 128 81 39 00
        E 16 b1 0b 44
        E 0 91 37 44
        E 144 b1 0b 2a
        E 160 b1 0b 11
        E 16 81 37 00
        E 16 b1 0b 44
        E 0 91 34 44
        E 144 b1 0b 2a
        E 160 b1 0b 11
        E 16 81 34 00
        E 16 b1 0b 44
        E 0 91 32 44
        E 144 b1 0b 2a
        E 64 81 32 00
        E 16 b1 0b 44
        E 0 91 34 44
        E 144 b1 0b 2a
        E 160 b1 0b 11
        E 16 81 34 00
        E 16 b1 0b 44
        E 0 91 30 44
        E 144 b1 0b 2a
        E 160 b1 0b 11
        E 16 81 30 00
        E 16 b1 0b 44
        E 0 91 32 44
        E 144 b1 0b 2a
        E 64 81 32 00
        E 16 b1 0b 44
        E 0 91 34 44
        E 144 b1 0b 2a
        E 64 81 34 00
        E 352 b1 0b 44
        E 0 91 4a 44
        E 96 81 4a 00
        E 16 91 4c 44
        E 64 81 4c 00
        E 0 b1 7b 00
        E 0 ff 2f 00
      >
    >
  >
  <TRACK {86C6D735-6FB4-4CE5-907B-3E49BF36527A}
    NAME "NES - Triangle [ch2]"
    PEAKCOL 16744192
    BEAT -1
    AUTOMODE 0
    PANLAWFLAGS 3
    VOLPAN 1 0 -1 -1 1
    MUTESOLO 0 0 0
    IPHASE 0
    PLAYOFFS 0 1
    ISBUS 0 0
    BUSCOMP 0 0 0 0 0
    SHOWINMIX 1 0.6667 0.5 1 0.5 0 0 0
    FIXEDLANES 9 0 0 0 0
    SEL 0
    REC 0 5088 1 0 0 0 0 0
    VU 2
    TRACKHEIGHT 0 0 0 0 0 0 0
    INQ 0 0 0 0.5 100 0 0 100
    NCHAN 2
    FX 1
    TRACKID {86C6D735-6FB4-4CE5-907B-3E49BF36527A}
    PERF 0
    MIDIOUT -1
    MAINSEND 1 0
    <FXCHAIN
      WNDRECT 24 52 700 560
      SHOW 0
      LASTSEL 0
      DOCKED 0
      BYPASS 0 0 0
      <JS "ReapNES Studio/ReapNES_Console.jsfx" ""
        2 15 1 10 80 10 100 2 1 15 1 5 60 10 80 1 1 0 50 0 0 15 1 0 100 0 0 0.500000 0.500000 0.400000 0.300000 0.800000 2 1 0 0 0 0 - - - - - - - - - - - - - - - - - - - - - - - - - -
      >
      FLOATPOS 0 0 0 0
      FXID {00998934-27CC-4BE3-91B9-989D573F21A1}
      WAK 0 0
    >
    <ITEM
      POSITION 0
      LENGTH 9.315707900000001
      LOOP 0
      ALLTAKES 0
      FADEIN 0 0 0 0 0 0 0
      FADEOUT 0 0 0 0 0 0 0
      MUTE 0 0
      SEL 0
      IGUID {CE6E97E2-524F-4D31-8319-6BB419132C69}
      <SOURCE MIDI
        HASDATA 1 480 QN
        CCINTERP 32
        E 0 c2 26
        E 0 b2 0b 7f
        E 0 92 3e 7f
        E 768 82 3e 00
        E 16 b2 0b 7f
        E 0 92 38 7f
        E 96 82 38 00
        E 16 b2 0b 7f
        E 0 92 3b 7f
        E 768 82 3b 00
        E 16 b2 0b 7f
        E 0 92 39 7f
        E 432 82 39 00
        E 16 b2 0b 7f
        E 0 92 37 7f
        E 432 82 37 00
        E 16 b2 0b 7f
        E 0 92 34 7f
        E 656 82 34 00
        E 16 b2 0b 7f
        E 0 92 31 7f
        E 64 82 31 00
        E 16 b2 0b 7f
        E 0 92 30 7f
        E 64 82 30 00
        E 0 b2 0b 7f
        E 0 92 2f 7f
        E 512 82 2f 00
        E 16 b2 0b 7f
        E 0 92 32 7f
        E 432 82 32 00
        E 16 b2 0b 7f
        E 0 92 34 7f
        E 880 82 34 00
        E 240 b2 0b 7f
        E 0 92 28 7f
        E 96 82 28 00
        E 128 b2 0b 7f
        E 0 92 28 7f
        E 96 82 28 00
        E 16 b2 0b 7f
        E 0 92 2b 7f
        E 320 82 2b 00
        E 16 b2 0b 7f
        E 0 92 2d 7f
        E 1104 82 2d 00
        E 16 b2 0b 7f
        E 0 92 34 7f
        E 208 82 34 00
        E 16 b2 0b 7f
        E 0 92 32 7f
        E 96 82 32 00
        E 16 b2 0b 7f
        E 0 92 30 7f
        E 320 82 30 00
        E 16 b2 0b 7f
        E 0 92 2d 7f
        E 1104 82 2d 00
        E 16 b2 0b 7f
        E 0 92 28 7f
        E 96 82 28 00
        E 128 b2 0b 7f
        E 0 92 28 7f
        E 96 82 28 00
        E 16 b2 0b 7f
        E 0 92 2b 7f
        E 176 82 2b 00
        E 0 b2 7b 00
        E 0 ff 2f 00
      >
    >
  >
  <TRACK {603FCE9A-E8C6-42C1-8A7B-3EC8A246A66D}
    NAME "NES - Noise / Drums [ch3]"
    PEAKCOL 11184810
    BEAT -1
    AUTOMODE 0
    PANLAWFLAGS 3
    VOLPAN 1 0 -1 -1 1
    MUTESOLO 0 0 0
    IPHASE 0
    PLAYOFFS 0 1
    ISBUS 0 0
    BUSCOMP 0 0 0 0 0
    SHOWINMIX 1 0.6667 0.5 1 0.5 0 0 0
    FIXEDLANES 9 0 0 0 0
    SEL 0
    REC 0 5088 1 0 0 0 0 0
    VU 2
    TRACKHEIGHT 0 0 0 0 0 0 0
    INQ 0 0 0 0.5 100 0 0 100
    NCHAN 2
    FX 1
    TRACKID {603FCE9A-E8C6-42C1-8A7B-3EC8A246A66D}
    PERF 0
    MIDIOUT -1
    MAINSEND 1 0
    <FXCHAIN
      WNDRECT 24 52 700 560
      SHOW 0
      LASTSEL 0
      DOCKED 0
      BYPASS 0 0 0
      <JS "ReapNES Studio/ReapNES_Console.jsfx" ""
        2 15 1 10 80 10 100 2 1 15 1 5 60 10 80 1 1 0 50 0 0 15 1 0 100 0 0 0.500000 0.500000 0.400000 0.300000 0.800000 3 1 0 0 0 0 - - - - - - - - - - - - - - - - - - - - - - - - - -
      >
      FLOATPOS 0 0 0 0
      FXID {ED29D20A-F9B0-4E80-8E5F-6A035EA75649}
      WAK 0 0
    >
    <ITEM
      POSITION 0
      LENGTH 9.315707900000001
      LOOP 0
      ALLTAKES 0
      FADEIN 0 0 0 0 0 0 0
      FADEOUT 0 0 0 0 0 0 0
      MUTE 0 0
      SEL 0
      IGUID {B18F4E2D-99E4-410A-BB77-BED72102D2BE}
      <SOURCE MIDI
        HASDATA 1 480 QN
        CCINTERP 32
        E 4368 93 2a 7f
        E 80 83 2a 00
        E 0 93 2a 77
        E 64 83 2a 00
        E 0 93 2a 6e
        E 80 83 2a 00
        E 0 93 2a 66
        E 80 83 2a 00
        E 0 93 2a 5d
        E 64 83 2a 00
        E 0 93 2a 55
        E 80 83 2a 00
        E 0 93 2a 7f
        E 80 83 2a 00
        E 0 93 2a 77
        E 64 83 2a 00
        E 0 93 2a 6e
        E 80 83 2a 00
        E 0 93 2a 66
        E 80 83 2a 00
        E 0 93 2a 5d
        E 64 83 2a 00
        E 0 93 2a 55
        E 80 83 2a 00
        E 0 93 2a 4c
        E 80 83 2a 00
        E 0 93 2a 44
        E 64 83 2a 00
        E 0 93 2a 3b
        E 80 83 2a 00
        E 0 93 2a 33
        E 80 83 2a 00
        E 0 93 2a 2a
        E 64 83 2a 00
        E 0 93 2a 22
        E 528 83 2a 00
        E 0 93 2a 55
        E 48 83 2a 00
        E 176 93 2a 55
        E 48 83 2a 00
        E 176 93 2a 55
        E 48 83 2a 00
        E 176 93 2a 55
        E 48 83 2a 00
        E 64 93 2a 55
        E 48 83 2a 00
        E 176 93 2a 55
        E 48 83 2a 00
        E 64 93 2a 55
        E 48 83 2a 00
        E 176 93 2a 55
        E 48 83 2a 00
        E 64 93 2a 55
        E 48 83 2a 00
        E 288 93 2a 55
        E 48 83 2a 00
        E 176 93 2a 55
        E 48 83 2a 00
        E 176 93 2a 55
        E 48 83 2a 00
        E 176 93 2a 55
        E 48 83 2a 00
        E 64 93 2a 55
        E 48 83 2a 00
        E 176 93 2a 55
        E 48 83 2a 00
        E 64 93 2a 55
        E 48 83 2a 00
        E 64 93 2a 55
        E 48 83 2a 00
        E 64 93 2a 55
        E 48 83 2a 00
        E 176 93 2a 55
        E 48 83 2a 00
        E 16 b3 7b 00
        E 0 ff 2f 00
      >
    >
  >
>