<REAPER_PROJECT 0.1 "7.27/win64" 1707000000
  <NOTES 0 2
    |ReapNES Studio Project
    |MIDI Import - DuckTales_2_title_rom_v1
  >
  RIPPLE 0
  GROUPOVERRIDE 0 0 0
  AUTOXFADE 129
  ENVATTACH 3
  POOLEDENVATTACH 0
  MIXERUIFLAGS 11 48
  ENVFADESZ10 40
  PEAKGAIN 1
  FEEDBACK 0
  PANLAW 1
  PROJOFFS 0 0 0
  MAXPROJLEN 0 0
  GRID 3199 8 1 8 1 0 0 0
  TIMEMODE 1 5 -1 30 0 0 -1
  VIDEO_CONFIG 0 0 65792
  PANMODE 3
  PANLAWFLAGS 3
  CURSOR 0
  ZOOM 100 0 0
  VZOOMEX 6 0
  USE_REC_CFG 0
  RECMODE 1
  SMPTESYNC 0 30 100 40 1000 300 0 0 1 0 0
  LOOP 0
  LOOPGRAN 0 4
  RECORD_PATH "Media" ""
  <RECORD_CFG
    ZXZhdxgAAQ==
  >
  <APPLYFX_CFG
  >
  RENDER_FILE ""
  RENDER_PATTERN ""
  RENDER_FMT 0 2 0
  RENDER_1X 0
  RENDER_RANGE 1 0 0 18 1000
  RENDER_RESAMPLE 3 0 1
  RENDER_ADDTOPROJ 0
  RENDER_STEMS 0
  RENDER_DITHER 0
  TIMELOCKMODE 1
  TEMPOENVLOCKMODE 1
  ITEMMIX 1
  DEFPITCHMODE 589824 0
  TAKELANE 1
  SAMPLERATE 44100 0 0
  <RENDER_CFG
    ZXZhdxgAAQ==
  >
  LOCK 1
  <METRONOME 6 2
    VOL 0.25 0.125
    BEATLEN 4
    FREQ 1760 880 1
    SAMPLES "" ""
    SPLIGNORE 0 0
    SPLDEF 2 660 "" 0
    SPLDEF 3 440 "" 0
    PATTERN 0 169
    PATTERNSTR ABBB
    MULT 1
  >
  GLOBAL_AUTO -1
  TEMPO 128.59999614200012 4 4
  PLAYRATE 1 0 0.25 4
  SELECTION 0 0
  SELECTION2 0 0
  MASTERAUTOMODE 0
  MASTERTRACKHEIGHT 0 0
  MASTERPEAKCOL 16576
  MASTERMUTESOLO 0
  MASTERTRACKVIEW 0 0.6667 0.5 0.5 0 0 0 0 0 0 0 0 0 0
  MASTERHWOUT 0 0 1 0 0 0 0 -1
  MASTER_NCH 2 2
  MASTER_VOLUME 1 0 -1 -1 1
  MASTER_PANMODE 3
  MASTER_PANLAWFLAGS 3
  MASTER_FX 1
  MASTER_SEL 0
  <MASTERPLAYSPEEDENV
    EGUID {AD0587E8-360C-496B-9B04-F65715D933B4}
    ACT 0 -1
    VIS 0 1 1
    LANEHEIGHT 0 0
    ARM 0
    DEFSHAPE 0 -1 -1
  >
  <TEMPOENVEX
    EGUID {9BB4B709-6BEB-496E-BA17-032942B2EDFB}
    ACT 1 -1
    VIS 1 0 1
    LANEHEIGHT 0 0
    ARM 0
    DEFSHAPE 1 -1 -1
  >
  <PROJBAY
  >
  <TRACK {29799B58-E661-44E0-8A50-5483146FEDAC}
    NAME "NES - Pulse 1 [ch0]"
    PEAKCOL 16576606
    BEAT -1
    AUTOMODE 0
    PANLAWFLAGS 3
    VOLPAN 1 0 -1 -1 1
    MUTESOLO 0 0 0
    IPHASE 0
    PLAYOFFS 0 1
    ISBUS 0 0
    BUSCOMP 0 0 0 0 0
    SHOWINMIX 1 0.6667 0.5 1 0.5 0 0 0
    FIXEDLANES 9 0 0 0 0
    SEL 1
    REC 1 5088 1 0 0 0 0 0
    VU 2
    TRACKHEIGHT 0 0 0 0 0 0 0
    INQ 0 0 0 0.5 100 0 0 100
    NCHAN 2
    FX 1
    TRACKID {29799B58-E661-44E0-8A50-5483146FEDAC}
    PERF 0
    MIDIOUT -1
    MAINSEND 1 0
    <FXCHAIN
      WNDRECT 24 52 700 560
      SHOW 0
      LASTSEL 0
      DOCKED 0
      BYPASS 0 0 0
      <JS "ReapNES Studio/ReapNES_Console.jsfx" ""
        2 15 1 10 80 10 100 2 1 15 1 5 60 10 80 1 1 0 50 0 0 15 1 0 100 0 0 0.500000 0.500000 0.400000 0.300000 0.800000 0 1 0 0 0 0 - - - - - - - - - - - - - - - - - - - - - - - - - -
      >
      FLOATPOS 0 0 0 0
      FXID {4C3AAE07-9067-41F6-A28A-5C20E17C2A42}
      WAK 0 0
    >
    <ITEM
      POSITION 0
      LENGTH 5.6609644
      LOOP 0
      ALLTAKES 0
      FADEIN 0 0 0 0 0 0 0
      FADEOUT 0 0 0 0 0 0 0
      MUTE 0 0
      SEL 0
      IGUID {CB252422-5D12-4A00-B0BB-26761D64C908}
      <SOURCE MIDI
        HASDATA 1 480 QN
        CCINTERP 32
        E 0 c0 50
        E 0 b0 0c 40
        E 0 b0 0b 4c
        E 0 90 42 4c
        E 32 b0 0b 44
        E 32 b0 0b 3b
        E 32 b0 0b 33
        E 32 b0 0b 2a
        E 32 b0 0b 22
        E 32 b0 0b 4c
        E 0 80 42 00
        E 0 90 43 4c
        E 32 b0 0b 44
        E 32 b0 0b 3b
        E 32 b0 0b 4c
        E 0 80 43 00
        E 0 90 41 4c
        E 32 b0 0b 44
        E 32 b0 0b 3b
        E 32 b0 0b 33
        E 32 b0 0b 2a
        E 32 b0 0b 22
        E 32 b0 0b 4c
        E 0 80 41 00
        E 0 90 40 4c
        E 32 b0 0b 44
        E 32 b0 0b 3b
        E 32 b0 0b 33
        E 32 b0 0b 2a
        E 32 b0 0b 22
        E 112 b0 0b 19
        E 16 b0 0b 4c
        E 0 80 40 00
        E 0 90 3c 4c
        E 32 b0 0b 44
        E 32 b0 0b 3b
        E 32 b0 0b 4c
        E 0 80 3c 00
        E 0 90 37 4c
        E 32 b0 0b 44
        E 32 b0 0b 3b
        E 32 b0 0b 33
        E 32 b0 0b 2a
        E 32 b0 0b 22
        E 112 b0 0b 19
        E 16 b0 0b 4c
        E 0 80 37 00
        E 0 90 39 4c
        E 32 b0 0b 44
        E 32 b0 0b 3b
        E 32 b0 0b 33
        E 32 b0 0b 2a
        E 32 b0 0b 22
        E 32 b0 0b 4c
        E 0 80 39 00
        E 0 90 3b 4c
        E 32 b0 0b 44
        E 32 b0 0b 3b
        E 32 b0 0b 4c
        E 0 80 3b 00
        E 0 90 3c 4c
        E 32 b0 0b 44
        E 32 b0 0b 3b
        E 32 b0 0b 33
        E 32 b0 0b 2a
        E 32 b0 0b 22
        E 32 b0 0b 4c
        E 0 80 3c 00
        E 0 90 37 4c
        E 32 b0 0b 44
        E 32 b0 0b 3b
        E 32 b0 0b 4c
        E 0 80 37 00
        E 0 90 39 4c
        E 32 b0 0b 44
        E 32 b0 0b 3b
        E 32 b0 0b 4c
        E 0 80 39 00
        E 0 90 3b 4c
        E 32 b0 0b 44
        E 32 b0 0b 3b
        E 32 b0 0b 4c
        E 0 80 3b 00
        E 0 90 3c 4c
        E 32 b0 0b 44
        E 32 b0 0b 3b
        E 32 b0 0b 4c
        E 0 80 3c 00
        E 0 90 37 4c
        E 32 b0 0b 44
        E 32 b0 0b 3b
        E 32 b0 0b 33
        E 32 b0 0b 2a
        E 32 b0 0b 22
        E 32 b0 0b 4c
        E 0 80 37 00
        E 0 90 35 4c
        E 32 b0 0b 44
        E 32 b0 0b 3b
        E 32 b0 0b 4c
        E 0 80 35 00
        E 0 90 34 4c
        E 32 b0 0b 44
        E 32 b0 0b 3b
        E 32 b0 0b 33
        E 32 b0 0b 2a
        E 32 b0 0b 22
        E 32 80 34 00
        E 96 b0 0b 4c
        E 0 90 34 4c
        E 32 b0 0b 44
        E 32 b0 0b 3b
        E 32 b0 0b 33
        E 32 b0 0b 2a
        E 32 b0 0b 22
        E 32 80 34 00
        E 96 b0 0b 4c
        E 0 90 34 4c
        E 32 b0 0b 44
        E 32 b0 0b 3b
        E 32 b0 0b 33
        E 32 b0 0b 2a
        E 32 b0 0b 22
        E 32 80 34 00
        E 96 b0 0b 4c
        E 0 90 34 4c
        E 32 b0 0b 44
        E 32 b0 0b 3b
        E 32 b0 0b 33
        E 32 b0 0b 2a
        E 32 b0 0b 22
        E 32 80 34 00
        E 96 b0 0b 4c
        E 0 90 32 4c
        E 32 b0 0b 44
        E 32 b0 0b 3b
        E 32 b0 0b 33
        E 32 b0 0b 2a
        E 32 b0 0b 22
        E 32 b0 0b 4c
        E 0 80 32 00
        E 0 90 30 4c
        E 32 b0 0b 44
        E 32 b0 0b 3b
        E 32 b0 0b 4c
        E 0 80 30 00
        E 0 90 32 4c
        E 32 b0 0b 44
        E 32 b0 0b 3b
        E 32 b0 0b 33
        E 32 b0 0b 2a
        E 32 b0 0b 22
        E 32 b0 0b 4c
        E 0 80 32 00
        E 0 90 34 4c
        E 32 b0 0b 44
        E 32 b0 0b 3b
        E 32 b0 0b 33
        E 32 b0 0b 2a
        E 32 b0 0b 22
        E 112 b0 0b 19
        E 16 b0 0b 11
        E 192 80 34 00
        E 192 b0 0b 4c
        E 0 90 42 4c
        E 32 b0 0b 44
        E 32 b0 0b 3b
        E 32 b0 0b 33
        E 32 b0 0b 2a
        E 32 b0 0b 22
        E 32 b0 0b 4c
        E 0 80 42 00
        E 0 90 43 4c
        E 32 b0 0b 44
        E 32 b0 0b 3b
        E 32 b0 0b 4c
        E 0 80 43 00
        E 0 90 41 4c
        E 32 b0 0b 44
        E 32 b0 0b 3b
        E 32 b0 0b 33
        E 32 b0 0b 2a
        E 32 b0 0b 22
        E 32 b0 0b 4c
        E 0 80 41 00
        E 0 90 40 4c
        E 32 b0 0b 44
        E 32 b0 0b 3b
        E 32 b0 0b 33
        E 32 b0 0b 2a
        E 32 b0 0b 22
        E 112 b0 0b 19
        E 16 b0 0b 4c
        E 0 80 40 00
        E 0 90 3c 4c
        E 32 b0 0b 44
        E 32 b0 0b 3b
        E 32 b0 0b 4c
        E 0 80 3c 00
        E 0 90 37 4c
        E 32 b0 0b 44
        E 32 b0 0b 3b
        E 32 b0 0b 33
        E 32 b0 0b 2a
        E 32 b0 0b 22
        E 112 b0 0b 19
        E 16 b0 0b 4c
        E 0 80 37 00
        E 0 90 39 4c
        E 32 b0 0b 44
        E 32 80 39 00
        E 0 b0 7b 00
        E 0 ff 2f 00
      >
    >
  >
  <TRACK {A0EE690B-1BED-4F78-B62A-6A0BAE801CE3}
    NAME "NES - Pulse 2 [ch1]"
    PEAKCOL 10092441
    BEAT -1
    AUTOMODE 0
    PANLAWFLAGS 3
    VOLPAN 1 0 -1 -1 1
    MUTESOLO 0 0 0
    IPHASE 0
    PLAYOFFS 0 1
    ISBUS 0 0
    BUSCOMP 0 0 0 0 0
    SHOWINMIX 1 0.6667 0.5 1 0.5 0 0 0
    FIXEDLANES 9 0 0 0 0
    SEL 0
    REC 0 5088 1 0 0 0 0 0
    VU 2
    TRACKHEIGHT 0 0 0 0 0 0 0
    INQ 0 0 0 0.5 100 0 0 100
    NCHAN 2
    FX 1
    TRACKID {A0EE690B-1BED-4F78-B62A-6A0BAE801CE3}
    PERF 0
    MIDIOUT -1
    MAINSEND 1 0
    <FXCHAIN
      WNDRECT 24 52 700 560
      SHOW 0
      LASTSEL 0
      DOCKED 0
      BYPASS 0 0 0
      <JS "ReapNES Studio/ReapNES_Console.jsfx" ""
        2 15 1 10 80 10 100 2 1 15 1 5 60 10 80 1 1 0 50 0 0 15 1 0 100 0 0 0.500000 0.500000 0.400000 0.300000 0.800000 1 1 0 0 0 0 - - - - - - - - - - - - - - - - - - - - - - - - - -
      >
      FLOATPOS 0 0 0 0
      FXID {A33DCF4B-B462-4328-A536-8FA163B05E65}
      WAK 0 0
    >
    <ITEM
      POSITION 0
      LENGTH 5.6609644
      LOOP 0
      ALLTAKES 0
      FADEIN 0 0 0 0 0 0 0
      FADEOUT 0 0 0 0 0 0 0
      MUTE 0 0
      SEL 0
      IGUID {35A3CE6A-9B5B-490D-B7BD-F01BC6982DF4}
      <SOURCE MIDI
        HASDATA 1 480 QN
        CCINTERP 32
        E 0 c1 51
        E 288 b1 0c 40
        E 0 b1 0b 4c
        E 0 91 34 4c
        E 32 b1 0b 44
        E 32 b1 0b 3b
        E 32 b1 0b 33
        E 32 b1 0b 2a
        E 32 b1 0b 22
        E 112 b1 0b 19
        E 16 81 34 00
        E 288 b1 0b 4c
        E 0 91 30 4c
        E 32 b1 0b 44
        E 32 b1 0b 3b
        E 32 b1 0b 33
        E 32 b1 0b 2a
        E 32 b1 0b 22
        E 112 b1 0b 19
        E 16 81 30 00
        E 288 b1 0b 4c
        E 0 91 30 4c
        E 32 b1 0b 44
        E 32 b1 0b 3b
        E 32 b1 0b 33
        E 32 b1 0b 2a
        E 32 b1 0b 22
        E 112 b1 0b 19
        E 16 81 30 00
        E 288 b1 0b 4c
        E 0 91 30 4c
        E 32 b1 0b 44
        E 32 b1 0b 3b
        E 32 b1 0b 33
        E 32 b1 0b 2a
        E 32 b1 0b 22
        E 112 b1 0b 19
        E 16 81 30 00
        E 288 b1 0b 4c
        E 0 91 34 4c
        E 32 b1 0b 44
        E 32 b1 0b 3b
        E 32 b1 0b 33
        E 32 b1 0b 2a
        E 32 b1 0b 22
        E 112 b1 0b 19
        E 16 81 34 00
        E 288 b1 0b 4c
        E 0 91 30 4c
        E 32 b1 0b 44
        E 32 b1 0b 3b
        E 32 b1 0b 33
        E 32 b1 0b 2a
        E 32 b1 0b 22
        E 112 b1 0b 19
        E 16 81 30 00
        E 288 b1 0b 4c
        E 0 91 32 4c
        E 32 b1 0b 44
        E 32 b1 0b 3b
        E 32 b1 0b 33
        E 32 b1 0b 2a
        E 32 b1 0b 22
        E 112 b1 0b 19
        E 16 81 32 00
        E 864 b1 0b 4c
        E 0 91 34 4c
        E 32 b1 0b 44
        E 32 b1 0b 3b
        E 32 b1 0b 33
        E 32 b1 0b 2a
        E 32 b1 0b 22
        E 112 b1 0b 19
        E 16 81 34 00
        E 288 b1 0b 4c
        E 0 91 30 4c
        E 32 b1 0b 44
        E 32 b1 0b 3b
        E 32 b1 0b 33
        E 32 b1 0b 2a
        E 32 b1 0b 22
        E 112 b1 0b 19
        E 16 81 30 00
        E 64 b1 7b 00
        E 0 ff 2f 00
      >
    >
  >
  <TRACK {39E226FC-8488-4941-9AD8-F039700A9409}
    NAME "NES - Triangle [ch2]"
    PEAKCOL 16744192
    BEAT -1
    AUTOMODE 0
    PANLAWFLAGS 3
    VOLPAN 1 0 -1 -1 1
    MUTESOLO 0 0 0
    IPHASE 0
    PLAYOFFS 0 1
    ISBUS 0 0
    BUSCOMP 0 0 0 0 0
    SHOWINMIX 1 0.6667 0.5 1 0.5 0 0 0
    FIXEDLANES 9 0 0 0 0
    SEL 0
    REC 0 5088 1 0 0 0 0 0
    VU 2
    TRACKHEIGHT 0 0 0 0 0 0 0
    INQ 0 0 0 0.5 100 0 0 100
    NCHAN 2
    FX 1
    TRACKID {39E226FC-8488-4941-9AD8-F039700A9409}
    PERF 0
    MIDIOUT -1
    MAINSEND 1 0
    <FXCHAIN
      WNDRECT 24 52 700 560
      SHOW 0
      LASTSEL 0
      DOCKED 0
      BYPASS 0 0 0
      <JS "ReapNES Studio/ReapNES_Console.jsfx" ""
        2 15 1 10 80 10 100 2 1 15 1 5 60 10 80 1 1 0 50 0 0 15 1 0 100 0 0 0.500000 0.500000 0.400000 0.300000 0.800000 2 1 0 0 0 0 - - - - - - - - - - - - - - - - - - - - - - - - - -
      >
      FLOATPOS 0 0 0 0
      FXID {7A2D9940-E573-44CB-924B-728B6EE4BF01}
      WAK 0 0
    >
    <ITEM
      POSITION 0
      LENGTH 5.6609644
      LOOP 0
      ALLTAKES 0
      FADEIN 0 0 0 0 0 0 0
      FADEOUT 0 0 0 0 0 0 0
      MUTE 0 0
      SEL 0
      IGUID {A2323854-3EC3-45A5-BB51-1D819747CCDF}
      <SOURCE MIDI
        HASDATA 1 480 QN
        CCINTERP 32
        E 0 c2 26
        E 0 b2 0b 7f
        E 0 92 30 7f
        E 288 82 30 00
        E 0 b2 0b 7f
        E 0 92 37 7f
        E 288 82 37 00
        E 0 b2 0b 7f
        E 0 92 2b 7f
        E 288 82 2b 00
        E 0 b2 0b 7f
        E 0 92 34 7f
        E 288 82 34 00
        E 0 b2 0b 7f
        E 0 92 30 7f
        E 288 82 30 00
        E 0 b2 0b 7f
        E 0 92 34 7f
        E 288 82 34 00
        E 0 b2 0b 7f
        E 0 92 2b 7f
        E 288 82 2b 00
        E 0 b2 0b 7f
        E 0 92 35 7f
        E 288 82 35 00
        E 0 b2 0b 7f
        E 0 92 30 7f
        E 288 82 30 00
        E 0 b2 0b 7f
        E 0 92 37 7f
        E 288 82 37 00
        E 0 b2 0b 7f
        E 0 92 2b 7f
        E 288 82 2b 00
        E 0 b2 0b 7f
        E 0 92 34 7f
        E 288 82 34 00
        E 0 b2 0b 7f
        E 0 92 30 7f
        E 288 82 30 00
        E 0 b2 0b 7f
        E 0 92 35 7f
        E 288 82 35 00
        E 0 b2 0b 7f
        E 0 92 2e 7f
        E 288 82 2e 00
        E 0 b2 0b 7f
        E 0 92 2d 7f
        E 288 82 2d 00
        E 0 b2 0b 7f
        E 0 92 30 7f
        E 288 82 30 00
        E 0 b2 0b 7f
        E 0 92 37 7f
        E 288 82 37 00
        E 0 b2 0b 7f
        E 0 92 2b 7f
        E 288 82 2b 00
        E 0 b2 0b 7f
        E 0 92 34 7f
        E 288 82 34 00
        E 0 b2 0b 7f
        E 0 92 30 7f
        E 64 82 30 00
        E 0 b2 7b 00
        E 0 ff 2f 00
      >
    >
  >
  <TRACK {7990590E-8664-4998-9347-BD8C8A6A4EE4}
    NAME "NES - Noise / Drums [ch3]"
    PEAKCOL 11184810
    BEAT -1
    AUTOMODE 0
    PANLAWFLAGS 3
    VOLPAN 1 0 -1 -1 1
    MUTESOLO 0 0 0
    IPHASE 0
    PLAYOFFS 0 1
    ISBUS 0 0
    BUSCOMP 0 0 0 0 0
    SHOWINMIX 1 0.6667 0.5 1 0.5 0 0 0
    FIXEDLANES 9 0 0 0 0
    SEL 0
    REC 0 5088 1 0 0 0 0 0
    VU 2
    TRACKHEIGHT 0 0 0 0 0 0 0
    INQ 0 0 0 0.5 100 0 0 100
    NCHAN 2
    FX 1
    TRACKID {7990590E-8664-4998-9347-BD8C8A6A4EE4}
    PERF 0
    MIDIOUT -1
    MAINSEND 1 0
    <FXCHAIN
      WNDRECT 24 52 700 560
      SHOW 0
      LASTSEL 0
      DOCKED 0
      BYPASS 0 0 0
      <JS "ReapNES Studio/ReapNES_Console.jsfx" ""
        2 15 1 10 80 10 100 2 1 15 1 5 60 10 80 1 1 0 50 0 0 15 1 0 100 0 0 0.500000 0.500000 0.400000 0.300000 0.800000 3 1 0 0 0 0 - - - - - - - - - - - - - - - - - - - - - - - - - -
      >
      FLOATPOS 0 0 0 0
      FXID {ADF8E602-0B32-459D-8709-BAA88E159BB5}
      WAK 0 0
    >
    <ITEM
      POSITION 0
      LENGTH 5.6609644
      LOOP 0
      ALLTAKES 0
      FADEIN 0 0 0 0 0 0 0
      FADEOUT 0 0 0 0 0 0 0
      MUTE 0 0
      SEL 0
      IGUID {39B3B02A-9540-4952-A0D9-5FC5DF0CA28E}
      <SOURCE MIDI
        HASDATA 1 480 QN
        CCINTERP 32
        E 0 93 2a 7f
        E 96 83 2a 00
        E 192 93 2a 77
        E 96 83 2a 00
        E 192 93 2a 7f
        E 96 83 2a 00
        E 96 93 2a 7f
        E 96 83 2a 00
        E 0 93 2a 77
        E 96 83 2a 00
        E 192 93 2a 7f
        E 96 83 2a 00
        E 192 93 2a 77
        E 96 83 2a 00
        E 192 93 2a 7f
        E 96 83 2a 00
        E 96 93 2a 7f
        E 96 83 2a 00
        E 0 93 2a 77
        E 96 83 2a 00
        E 192 93 2a 7f
        E 96 83 2a 00
        E 192 93 2a 77
        E 96 83 2a 00
        E 192 93 2a 7f
        E 96 83 2a 00
        E 96 93 2a 7f
        E 96 83 2a 00
        E 0 93 2a 77
        E 96 83 2a 00
        E 192 93 2a 7f
        E 96 83 2a 00
        E 192 93 2a 77
        E 96 83 2a 00
        E 192 93 2a 7f
        E 96 83 2a 00
        E 192 93 2a 7f
        E 96 83 2a 00
        E 96 93 2a 77
        E 96 83 2a 00
        E 0 93 2a 7f
        E 96 83 2a 00
        E 192 93 2a 77
        E 96 83 2a 00
        E 192 93 2a 7f
        E 96 83 2a 00
        E 96 93 2a 7f
        E 96 83 2a 00
        E 0 93 2a 77
        E 96 83 2a 00
        E 192 93 2a 7f
        E 64 83 2a 00
        E 0 b3 7b 00
        E 0 ff 2f 00
      >
    >
  >
>