<REAPER_PROJECT 0.1 "7.27/win64" 1707000000
  <NOTES 0 2
    |ReapNES Studio Project
    |MIDI Import - Mega_Man_5_title_rom_v1
  >
  RIPPLE 0
  GROUPOVERRIDE 0 0 0
  AUTOXFADE 129
  ENVATTACH 3
  POOLEDENVATTACH 0
  MIXERUIFLAGS 11 48
  ENVFADESZ10 40
  PEAKGAIN 1
  FEEDBACK 0
  PANLAW 1
  PROJOFFS 0 0 0
  MAXPROJLEN 0 0
  GRID 3199 8 1 8 1 0 0 0
  TIMEMODE 1 5 -1 30 0 0 -1
  VIDEO_CONFIG 0 0 65792
  PANMODE 3
  PANLAWFLAGS 3
  CURSOR 0
  ZOOM 100 0 0
  VZOOMEX 6 0
  USE_REC_CFG 0
  RECMODE 1
  SMPTESYNC 0 30 100 40 1000 300 0 0 1 0 0
  LOOP 0
  LOOPGRAN 0 4
  RECORD_PATH "Media" ""
  <RECORD_CFG
    ZXZhdxgAAQ==
  >
  <APPLYFX_CFG
  >
  RENDER_FILE ""
  RENDER_PATTERN ""
  RENDER_FMT 0 2 0
  RENDER_1X 0
  RENDER_RANGE 1 0 0 18 1000
  RENDER_RESAMPLE 3 0 1
  RENDER_ADDTOPROJ 0
  RENDER_STEMS 0
  RENDER_DITHER 0
  TIMELOCKMODE 1
  TEMPOENVLOCKMODE 1
  ITEMMIX 1
  DEFPITCHMODE 589824 0
  TAKELANE 1
  SAMPLERATE 44100 0 0
  <RENDER_CFG
    ZXZhdxgAAQ==
  >
  LOCK 1
  <METRONOME 6 2
    VOL 0.25 0.125
    BEATLEN 4
    FREQ 1760 880 1
    SAMPLES "" ""
    SPLIGNORE 0 0
    SPLDEF 2 660 "" 0
    SPLDEF 3 440 "" 0
    PATTERN 0 169
    PATTERNSTR ABBB
    MULT 1
  >
  GLOBAL_AUTO -1
  TEMPO 128.59999614200012 4 4
  PLAYRATE 1 0 0.25 4
  SELECTION 0 0
  SELECTION2 0 0
  MASTERAUTOMODE 0
  MASTERTRACKHEIGHT 0 0
  MASTERPEAKCOL 16576
  MASTERMUTESOLO 0
  MASTERTRACKVIEW 0 0.6667 0.5 0.5 0 0 0 0 0 0 0 0 0 0
  MASTERHWOUT 0 0 1 0 0 0 0 -1
  MASTER_NCH 2 2
  MASTER_VOLUME 1 0 -1 -1 1
  MASTER_PANMODE 3
  MASTER_PANLAWFLAGS 3
  MASTER_FX 1
  MASTER_SEL 0
  <MASTERPLAYSPEEDENV
    EGUID {8E19A804-0C0E-4249-AFC7-C23FD9EAAE63}
    ACT 0 -1
    VIS 0 1 1
    LANEHEIGHT 0 0
    ARM 0
    DEFSHAPE 0 -1 -1
  >
  <TEMPOENVEX
    EGUID {0A6EA5FB-9283-418E-B4CC-24AA55A8D20E}
    ACT 1 -1
    VIS 1 0 1
    LANEHEIGHT 0 0
    ARM 0
    DEFSHAPE 1 -1 -1
  >
  <PROJBAY
  >
  <TRACK {82B4C1F7-3A45-4879-AA99-7D6CD72B27F3}
    NAME "NES - Pulse 1 [ch0]"
    PEAKCOL 16576606
    BEAT -1
    AUTOMODE 0
    PANLAWFLAGS 3
    VOLPAN 1 0 -1 -1 1
    MUTESOLO 0 0 0
    IPHASE 0
    PLAYOFFS 0 1
    ISBUS 0 0
    BUSCOMP 0 0 0 0 0
    SHOWINMIX 1 0.6667 0.5 1 0.5 0 0 0
    FIXEDLANES 9 0 0 0 0
    SEL 1
    REC 1 5088 1 0 0 0 0 0
    VU 2
    TRACKHEIGHT 0 0 0 0 0 0 0
    INQ 0 0 0 0.5 100 0 0 100
    NCHAN 2
    FX 1
    TRACKID {82B4C1F7-3A45-4879-AA99-7D6CD72B27F3}
    PERF 0
    MIDIOUT -1
    MAINSEND 1 0
    <FXCHAIN
      WNDRECT 24 52 700 560
      SHOW 0
      LASTSEL 0
      DOCKED 0
      BYPASS 0 0 0
      <JS "ReapNES Studio/ReapNES_Console.jsfx" ""
        3 15 1 0 300 12 50 3 1 15 1 5 60 10 80 1 1 0 50 0 0 15 1 0 100 0 0 0.500000 0.500000 0.400000 0.300000 0.800000 0 1 0 0 0 0 - - - - - - - - - - - - - - - - - - - - - - - - - -
      >
      FLOATPOS 0 0 0 0
      FXID {D1CC324B-FDFF-4916-BF7A-0A9D0FB618D4}
      WAK 0 0
    >
    <ITEM
      POSITION 0
      LENGTH 70.3732525
      LOOP 0
      ALLTAKES 0
      FADEIN 0 0 0 0 0 0 0
      FADEOUT 0 0 0 0 0 0 0
      MUTE 0 0
      SEL 0
      IGUID {4BEF8F7C-7FF2-4E27-8C82-44B4D0431A55}
      <SOURCE MIDI
        HASDATA 1 480 QN
        CCINTERP 32
        E 0 c0 50
        E 0 b0 0c 40
        E 0 b0 0b 3b
        E 0 90 34 3b
        E 16 b0 0b 33
        E 1744 b0 0b 2a
        E 128 b0 0b 22
        E 128 b0 0b 19
        E 128 b0 0b 11
        E 128 b0 0b 08
        E 128 80 34 00
        E 48 b0 0b 3b
        E 0 90 36 3b
        E 16 b0 0b 33
        E 1744 b0 0b 2a
        E 128 b0 0b 22
        E 128 b0 0b 19
        E 128 b0 0b 11
        E 128 b0 0b 08
        E 128 80 36 00
        E 32 b0 0b 3b
        E 0 90 37 3b
        E 16 b0 0b 33
        E 1728 b0 0b 2a
        E 128 b0 0b 22
        E 128 b0 0b 19
        E 128 b0 0b 11
        E 128 b0 0b 08
        E 128 80 37 00
        E 48 b0 0b 3b
        E 0 90 39 3b
        E 16 b0 0b 33
        E 1728 b0 0b 2a
        E 128 b0 0b 22
        E 128 b0 0b 19
        E 128 b0 0b 11
        E 128 b0 0b 08
        E 128 80 39 00
        E 48 b0 0b 44
        E 0 90 3b 44
        E 16 b0 0b 3b
        E 576 b0 0b 33
        E 16 b0 0b 44
        E 0 80 3b 00
        E 0 90 3c 44
        E 16 b0 0b 3b
        E 128 b0 0b 33
        E 16 b0 0b 44
        E 0 80 3c 00
        E 0 90 3b 44
        E 16 b0 0b 3b
        E 112 b0 0b 33
        E 16 b0 0b 44
        E 0 80 3b 00
        E 0 90 39 44
        E 16 b0 0b 3b
        E 592 b0 0b 33
        E 16 b0 0b 2a
        E 16 b0 0b 22
        E 16 b0 0b 19
        E 16 b0 0b 11
        E 16 b0 0b 08
        E 16 80 39 00
        E 64 b0 0b 44
        E 0 90 36 44
        E 16 b0 0b 3b
        E 432 b0 0b 44
        E 0 80 36 00
        E 0 90 32 44
        E 16 b0 0b 3b
        E 288 b0 0b 44
        E 0 80 32 00
        E 0 90 34 44
        E 16 b0 0b 3b
        E 208 b0 0b 33
        E 16 b0 0b 2a
        E 16 b0 0b 22
        E 16 b0 0b 19
        E 16 b0 0b 11
        E 16 b0 0b 44
        E 0 80 34 00
        E 0 90 3b 44
        E 16 b0 0b 3b
        E 128 b0 0b 33
        E 16 b0 0b 44
        E 0 80 3b 00
        E 0 90 3e 44
        E 16 b0 0b 3b
        E 128 b0 0b 44
        E 0 80 3e 00
        E 0 90 3c 44
        E 16 b0 0b 3b
        E 128 b0 0b 33
        E 16 b0 0b 44
        E 0 80 3c 00
        E 0 90 3b 44
        E 16 b0 0b 3b
        E 128 b0 0b 44
        E 0 80 3b 00
        E 0 90 39 44
        E 16 b0 0b 3b
        E 736 b0 0b 33
        E 16 b0 0b 44
        E 0 80 39 00
        E 0 90 36 44
        E 16 b0 0b 3b
        E 432 b0 0b 33
        E 16 b0 0b 44
        E 0 80 36 00
        E 0 90 32 44
        E 16 b0 0b 3b
        E 272 b0 0b 33
        E 16 b0 0b 44
        E 0 80 32 00
        E 0 90 34 44
        E 16 b0 0b 3b
        E 1392 b0 0b 33
        E 128 b0 0b 2a
        E 128 b0 0b 22
        E 128 b0 0b 19
        E 32 b0 0b 44
        E 16 b0 0b 3b
        E 560 b0 0b 33
        E 16 b0 0b 2a
        E 16 b0 0b 44
        E 0 80 34 00
        E 0 90 3b 44
        E 16 b0 0b 3b
        E 2320 b0 0b 33
        E 16 b0 0b 2a
        E 16 b0 0b 22
        E 16 b0 0c 20
        E 0 b0 0b 44
        E 16 b0 0b 3b
        E 1888 b0 0b 33
        E 16 b0 0b 44
        E 0 80 3b 00
        E 0 90 2f 44
        E 16 b0 0b 3b
        E 112 b0 0b 33
        E 16 b0 0b 44
        E 0 80 2f 00
        E 0 90 42 44
        E 16 b0 0b 3b
        E 128 b0 0b 33
        E 16 b0 0b 44
        E 0 80 42 00
        E 0 90 45 44
        E 16 b0 0b 3b
        E 2032 b0 0b 33
        E 16 b0 0b 2a
        E 16 b0 0b 22
        E 16 b0 0b 19
        E 16 b0 0b 11
        E 16 b0 0b 08
        E 16 80 45 00
        E 64 b0 0b 44
        E 0 90 44 44
        E 16 b0 0b 3b
        E 128 b0 0b 33
        E 16 b0 0b 44
        E 0 80 44 00
        E 0 90 40 44
        E 16 b0 0b 3b
        E 112 b0 0b 33
        E 16 b0 0b 44
        E 0 80 40 00
        E 0 90 42 44
        E 16 b0 0b 3b
        E 1456 b0 0b 44
        E 0 80 42 00
        E 0 90 44 44
        E 16 b0 0b 3b
        E 128 b0 0b 33
        E 16 b0 0b 44
        E 0 80 44 00
        E 0 90 42 44
        E 16 b0 0b 3b
        E 848 b0 0b 33
        E 16 b0 0b 44
        E 0 80 42 00
        E 0 90 40 44
        E 16 b0 0b 3b
        E 128 b0 0b 44
        E 0 80 40 00
        E 0 90 3e 44
        E 16 b0 0b 3b
        E 128 b0 0b 33
        E 16 b0 0b 44
        E 0 80 3e 00
        E 0 90 3d 44
        E 16 b0 0b 3b
        E 560 b0 0b 33
        E 16 b0 0b 44
        E 0 80 3d 00
        E 0 90 3e 44
        E 16 b0 0b 3b
        E 112 b0 0b 33
        E 16 b0 0b 44
        E 0 80 3e 00
        E 0 90 36 44
        E 16 b0 0b 3b
        E 1152 b0 0b 33
        E 16 b0 0b 2a
        E 16 b0 0b 22
        E 16 b0 0b 19
        E 16 b0 0b 11
        E 16 b0 0b 08
        E 16 80 36 00
        E 80 b0 0c 60
        E 0 b0 0b 55
        E 0 90 30 55
        E 16 b0 0b 4c
        E 112 b0 0b 44
        E 16 b0 0b 55
        E 0 80 30 00
        E 0 90 2f 55
        E 16 b0 0b 4c
        E 112 b0 0b 44
        E 16 b0 0b 55
        E 0 80 2f 00
        E 0 90 30 55
        E 16 b0 0b 4c
        E 256 b0 0b 44
        E 16 b0 0b 55
        E 0 80 30 00
        E 0 90 34 55
        E 16 b0 0b 4c
        E 112 b0 0b 44
        E 16 b0 0b 55
        E 0 80 34 00
        E 0 90 32 55
        E 16 b0 0b 4c
        E 112 b0 0b 44
        E 16 b0 0b 55
        E 0 80 32 00
        E 0 90 34 55
        E 16 b0 0b 4c
        E 112 b0 0b 44
        E 16 b0 0b 55
        E 0 80 34 00
        E 0 90 37 55
        E 16 b0 0b 4c
        E 112 b0 0b 44
        E 16 b0 0b 55
        E 0 80 37 00
        E 0 90 34 55
        E 16 b0 0b 4c
        E 112 b0 0b 44
        E 16 b0 0b 55
        E 0 80 34 00
        E 0 90 37 55
        E 16 b0 0b 4c
        E 112 b0 0b 44
        E 16 b0 0b 55
        E 0 80 37 00
        E 0 90 39 55
        E 16 b0 0b 4c
        E 256 b0 0b 44
        E 16 b0 0b 55
        E 0 80 39 00
        E 0 90 3b 55
        E 16 b0 0b 4c
        E 112 b0 0b 44
        E 16 b0 0b 55
        E 0 80 3b 00
        E 0 90 40 55
        E 16 b0 0b 4c
        E 112 b0 0b 44
        E 16 b0 0b 55
        E 0 80 40 00
        E 0 90 43 55
        E 16 b0 0b 4c
        E 112 b0 0b 44
        E 16 b0 0b 55
        E 0 80 43 00
        E 0 90 46 55
        E 16 b0 0b 4c
        E 2192 80 46 00
        E 16 b0 0c 40
        E 0 b0 0b 44
        E 0 90 3b 44
        E 16 b0 0b 3b
        E 128 b0 0b 33
        E 16 b0 0b 44
        E 0 80 3b 00
        E 0 90 36 44
        E 16 b0 0b 3b
        E 112 b0 0b 33
        E 16 b0 0b 44
        E 0 80 36 00
        E 0 90 3b 44
        E 16 b0 0b 3b
        E 112 b0 0b 33
        E 16 b0 0b 44
        E 0 80 3b 00
        E 0 90 42 44
        E 16 b0 0b 3b
        E 400 b0 0b 33
        E 16 b0 0b 44
        E 0 80 42 00
        E 0 90 40 44
        E 16 b0 0b 3b
        E 256 b0 0b 33
        E 16 b0 0b 44
        E 0 80 40 00
        E 0 90 3e 44
        E 16 b0 0b 3b
        E 384 b0 0b 33
        E 16 b0 0b 2a
        E 16 b0 0b 44
        E 0 80 3e 00
        E 0 90 3d 44
        E 16 b0 0b 3b
        E 256 b0 0b 33
        E 16 b0 0b 44
        E 0 80 3d 00
        E 0 90 39 44
        E 16 b0 0b 3b
        E 112 b0 0b 33
        E 16 b0 0b 44
        E 0 80 39 00
        E 0 90 3d 44
        E 16 b0 0b 3b
        E 112 b0 0b 33
        E 16 b0 0b 44
        E 0 80 3d 00
        E 0 90 3e 44
        E 16 b0 0b 3b
        E 112 b0 0b 33
        E 16 b0 0b 44
        E 0 80 3e 00
        E 0 90 3d 44
        E 16 b0 0b 3b
        E 608 b0 0b 33
        E 16 b0 0b 2a
        E 16 b0 0b 22
        E 16 b0 0b 19
        E 16 b0 0b 11
        E 16 b0 0b 08
        E 16 b0 0b 44
        E 0 80 3d 00
        E 0 90 39 44
        E 16 b0 0b 3b
        E 112 b0 0b 33
        E 16 b0 0b 44
        E 0 80 39 00
        E 0 90 3d 44
        E 16 b0 0b 3b
        E 112 b0 0b 33
        E 16 b0 0b 44
        E 0 80 3d 00
        E 0 90 3e 44
        E 16 b0 0b 3b
        E 112 b0 0b 33
        E 16 b0 0b 44
        E 0 80 3e 00
        E 0 90 3d 44
        E 16 b0 0b 3b
        E 400 b0 0b 33
        E 16 b0 0b 44
        E 0 80 3d 00
        E 0 90 3b 44
        E 16 b0 0b 3b
        E 672 b0 0b 33
        E 16 b0 0b 2a
        E 16 b0 0b 22
        E 16 b0 0b 19
        E 16 b0 0b 11
        E 16 b0 0b 08
        E 16 80 3b 00
        E 80 b0 0b 44
        E 0 90 36 44
        E 16 b0 0b 3b
        E 112 b0 0b 33
        E 16 b0 0b 44
        E 0 80 36 00
        E 0 90 3b 44
        E 16 b0 0b 3b
        E 112 b0 0b 33
        E 16 b0 0b 44
        E 0 80 3b 00
        E 0 90 40 44
        E 16 b0 0b 3b
        E 400 b0 0b 33
        E 16 b0 0b 44
        E 0 80 40 00
        E 0 90 3e 44
        E 16 b0 0b 3b
        E 256 b0 0b 33
        E 16 b0 0b 44
        E 0 80 3e 00
        E 0 90 3d 44
        E 16 b0 0b 3b
        E 528 b0 0b 33
        E 16 b0 0b 2a
        E 16 b0 0b 44
        E 0 80 3d 00
        E 0 90 39 44
        E 16 b0 0b 3b
        E 112 b0 0b 33
        E 16 b0 0b 44
        E 0 80 39 00
        E 0 90 3b 44
        E 16 b0 0b 3b
        E 112 b0 0b 33
        E 16 b0 0b 44
        E 0 80 3b 00
        E 0 90 3d 44
        E 16 b0 0b 3b
        E 112 b0 0b 33
        E 16 b0 0b 44
        E 0 80 3d 00
        E 0 90 3e 44
        E 16 b0 0b 3b
        E 256 b0 0b 33
        E 16 b0 0b 44
        E 0 80 3e 00
        E 0 90 36 44
        E 16 b0 0b 3b
        E 960 b0 0b 33
        E 16 b0 0b 2a
        E 16 b0 0b 22
        E 16 b0 0b 19
        E 16 b0 0b 11
        E 16 b0 0b 08
        E 16 80 36 00
        E 80 b0 0c 60
        E 0 b0 0b 44
        E 0 90 34 44
        E 16 b0 0b 3b
        E 112 b0 0b 33
        E 16 b0 0b 44
        E 0 80 34 00
        E 0 90 39 44
        E 16 b0 0b 3b
        E 112 b0 0b 33
        E 16 b0 0b 44
        E 0 80 39 00
        E 0 90 3d 44
        E 16 b0 0b 3b
        E 256 b0 0b 33
        E 16 b0 0b 44
        E 0 80 3d 00
        E 0 90 3e 44
        E 16 b0 0b 3b
        E 112 b0 0b 33
        E 16 b0 0b 44
        E 0 80 3e 00
        E 0 90 3d 44
        E 16 b0 0b 3b
        E 112 b0 0b 33
        E 16 b0 0b 44
        E 0 80 3d 00
        E 0 90 39 44
        E 16 b0 0b 3b
        E 112 b0 0b 33
        E 16 b0 0c 40
        E 0 b0 0b 44
        E 0 80 39 00
        E 0 90 3b 44
        E 16 b0 0b 3b
        E 112 b0 0b 33
        E 16 b0 0b 44
        E 0 80 3b 00
        E 0 90 36 44
        E 16 b0 0b 3b
        E 112 b0 0b 33
        E 16 b0 0b 44
        E 0 80 36 00
        E 0 90 3b 44
        E 16 b0 0b 3b
        E 112 b0 0b 33
        E 16 b0 0b 44
        E 0 80 3b 00
        E 0 90 42 44
        E 16 b0 0b 3b
        E 400 b0 0b 33
        E 16 b0 0b 44
        E 0 80 42 00
        E 0 90 40 44
        E 16 b0 0b 3b
        E 256 b0 0b 33
        E 16 b0 0b 44
        E 0 80 40 00
        E 0 90 3e 44
        E 16 b0 0b 3b
        E 400 b0 0b 33
        E 16 b0 0b 44
        E 0 80 3e 00
        E 0 90 3d 44
        E 16 b0 0b 3b
        E 256 b0 0b 33
        E 16 b0 0b 44
        E 0 80 3d 00
        E 0 90 39 44
        E 16 b0 0b 3b
        E 112 b0 0b 33
        E 16 b0 0b 44
        E 0 80 39 00
        E 0 90 3d 44
        E 16 b0 0b 3b
        E 112 b0 0b 33
        E 16 b0 0b 44
        E 0 80 3d 00
        E 0 90 3e 44
        E 16 b0 0b 3b
        E 112 b0 0b 33
        E 16 b0 0b 44
        E 0 80 3e 00
        E 0 90 3d 44
        E 16 b0 0b 3b
        E 608 b0 0b 33
        E 16 b0 0b 2a
        E 16 b0 0b 22
        E 16 b0 0b 19
        E 16 b0 0b 11
        E 16 b0 0b 08
        E 16 b0 0b 44
        E 0 80 3d 00
        E 0 90 39 44
        E 16 b0 0b 3b
        E 128 b0 0b 44
        E 0 80 39 00
        E 0 90 3d 44
        E 16 b0 0b 3b
        E 128 b0 0b 44
        E 0 80 3d 00
        E 0 90 3e 44
        E 16 b0 0b 3b
        E 128 b0 0b 44
        E 0 80 3e 00
        E 0 90 3d 44
        E 16 b0 0b 3b
        E 416 b0 0b 44
        E 0 80 3d 00
        E 0 90 3b 44
        E 16 b0 0b 3b
        E 688 b0 0b 33
        E 16 b0 0b 2a
        E 16 b0 0b 22
        E 16 b0 0b 19
        E 16 b0 0b 11
        E 16 b0 0b 08
        E 16 80 3b 00
        E 64 b0 0b 44
        E 0 90 36 44
        E 16 b0 0b 3b
        E 128 b0 0b 44
        E 0 80 36 00
        E 0 90 3b 44
        E 16 b0 0b 3b
        E 128 b0 0b 44
        E 0 80 3b 00
        E 0 90 40 44
        E 16 b0 0b 3b
        E 416 b0 0b 44
        E 0 80 40 00
        E 0 90 3e 44
        E 16 b0 0b 3b
        E 272 b0 0b 44
        E 0 80 3e 00
        E 0 90 3d 44
        E 16 b0 0b 3b
        E 544 b0 0b 33
        E 16 b0 0b 44
        E 0 80 3d 00
        E 0 90 39 44
        E 16 b0 0b 3b
        E 128 b0 0b 44
        E 0 80 39 00
        E 0 90 3b 44
        E 16 b0 0b 3b
        E 128 b0 0b 44
        E 0 80 3b 00
        E 0 90 3d 44
        E 16 b0 0b 3b
        E 128 b0 0b 44
        E 0 80 3d 00
        E 0 90 3e 44
        E 16 b0 0b 3b
        E 272 b0 0b 44
        E 0 80 3e 00
        E 0 90 36 44
        E 16 b0 0b 3b
        E 976 b0 0b 33
        E 16 b0 0b 2a
        E 16 b0 0b 22
        E 16 b0 0b 19
        E 16 b0 0b 11
        E 16 b0 0b 08
        E 16 80 36 00
        E 80 b0 0c 60
        E 0 b0 0b 44
        E 0 90 34 44
        E 16 b0 0b 3b
        E 112 b0 0b 33
        E 16 b0 0b 44
        E 0 80 34 00
        E 0 90 39 44
        E 16 b0 0b 3b
        E 112 b0 0b 33
        E 16 b0 0b 44
        E 0 80 39 00
        E 0 90 3d 44
        E 16 b0 0b 3b
        E 256 b0 0b 33
        E 16 b0 0b 44
        E 0 80 3d 00
        E 0 90 3e 44
        E 16 b0 0b 3b
        E 112 b0 0b 33
        E 16 b0 0b 44
        E 0 80 3e 00
        E 0 90 3d 44
        E 16 b0 0b 3b
        E 112 b0 0b 33
        E 16 b0 0b 44
        E 0 80 3d 00
        E 0 90 39 44
        E 16 b0 0b 3b
        E 112 b0 0b 33
        E 16 b0 0c 40
        E 0 b0 0b 44
        E 0 80 39 00
        E 0 90 3b 44
        E 16 b0 0b 2a
        E 16 b0 0b 11
        E 16 b0 0b 19
        E 16 b0 0b 2a
        E 16 b0 0b 22
        E 16 b0 0b 19
        E 16 b0 0b 08
        E 16 80 3b 00
        E 16 b0 0b 44
        E 0 90 3b 44
        E 16 b0 0b 2a
        E 16 b0 0b 11
        E 16 b0 0b 19
        E 16 b0 0b 2a
        E 16 b0 0b 22
        E 16 b0 0b 19
        E 16 b0 0b 08
        E 16 80 3b 00
        E 16 b0 0b 44
        E 0 90 45 44
        E 16 b0 0b 2a
        E 16 b0 0b 11
        E 16 b0 0b 19
        E 16 b0 0b 2a
        E 16 b0 0b 22
        E 16 b0 0b 19
        E 16 b0 0b 08
        E 16 80 45 00
        E 16 b0 0b 44
        E 0 90 3b 44
        E 16 b0 0b 2a
        E 16 b0 0b 11
        E 16 b0 0b 19
        E 16 b0 0b 2a
        E 16 b0 0b 22
        E 16 b0 0b 19
        E 16 b0 0b 08
        E 16 80 3b 00
        E 16 b0 0b 44
        E 0 90 3b 44
        E 16 b0 0b 2a
        E 16 b0 0b 11
        E 16 b0 0b 19
        E 16 b0 0b 2a
        E 16 b0 0b 22
        E 16 b0 0b 19
        E 16 b0 0b 08
        E 16 80 3b 00
        E 16 b0 0b 44
        E 0 90 47 44
        E 16 b0 0b 2a
        E 16 b0 0b 11
        E 16 b0 0b 19
        E 16 b0 0b 2a
        E 16 b0 0b 22
        E 16 b0 0b 19
        E 16 b0 0b 08
        E 16 80 47 00
        E 16 b0 0b 44
        E 0 90 40 44
        E 16 b0 0b 2a
        E 16 b0 0b 11
        E 16 b0 0b 19
        E 16 b0 0b 2a
        E 16 b0 0b 22
        E 16 b0 0b 19
        E 16 b0 0b 08
        E 16 80 40 00
        E 16 b0 0b 44
        E 0 90 42 44
        E 16 b0 0b 2a
        E 16 b0 0b 11
        E 16 b0 0b 19
        E 16 b0 0b 2a
        E 16 b0 0b 22
        E 16 b0 0b 19
        E 16 b0 0b 08
        E 16 80 42 00
        E 16 b0 0b 44
        E 0 90 47 44
        E 16 b0 0b 2a
        E 16 b0 0b 11
        E 16 b0 0b 19
        E 16 b0 0b 2a
        E 16 b0 0b 22
        E 16 b0 0b 19
        E 16 b0 0b 08
        E 16 80 47 00
        E 16 b0 0b 44
        E 0 90 3b 44
        E 16 b0 0b 2a
        E 16 b0 0b 11
        E 16 b0 0b 19
        E 16 b0 0b 2a
        E 16 b0 0b 22
        E 16 b0 0b 19
        E 16 b0 0b 08
        E 16 80 3b 00
        E 16 b0 0b 44
        E 0 90 45 44
        E 16 b0 0b 2a
        E 16 b0 0b 11
        E 16 b0 0b 19
        E 16 b0 0b 2a
        E 16 b0 0b 22
        E 16 b0 0b 19
        E 16 b0 0b 08
        E 16 80 45 00
        E 16 b0 0b 44
        E 0 90 47 44
        E 16 b0 0b 2a
        E 16 b0 0b 11
        E 16 b0 0b 19
        E 16 b0 0b 2a
        E 16 b0 0b 22
        E 16 b0 0b 19
        E 16 b0 0b 08
        E 16 80 47 00
        E 16 b0 0b 44
        E 0 90 42 44
        E 16 b0 0b 2a
        E 16 b0 0b 11
        E 16 b0 0b 19
        E 16 b0 0b 2a
        E 16 b0 0b 22
        E 16 b0 0b 19
        E 16 b0 0b 08
        E 16 80 42 00
        E 16 b0 0b 44
        E 0 90 45 44
        E 16 b0 0b 2a
        E 16 b0 0b 11
        E 16 b0 0b 19
        E 16 b0 0b 2a
        E 16 b0 0b 22
        E 16 b0 0b 19
        E 16 b0 0b 08
        E 16 80 45 00
        E 16 b0 0b 44
        E 0 90 39 44
        E 16 b0 0b 2a
        E 16 b0 0b 11
        E 16 b0 0b 19
        E 16 b0 0b 2a
        E 16 b0 0b 22
        E 16 b0 0b 19
        E 16 b0 0b 08
        E 16 80 39 00
        E 16 b0 0b 44
        E 0 90 42 44
        E 16 b0 0b 2a
        E 16 b0 0b 11
        E 16 b0 0b 19
        E 16 b0 0b 2a
        E 16 b0 0b 22
        E 16 b0 0b 19
        E 16 b0 0b 08
        E 16 80 42 00
        E 16 b0 0b 44
        E 0 90 3b 44
        E 16 b0 0b 2a
        E 16 b0 0b 11
        E 16 b0 0b 19
        E 16 b0 0b 2a
        E 16 b0 0b 22
        E 16 b0 0b 19
        E 16 b0 0b 08
        E 16 80 3b 00
        E 16 b0 0b 44
        E 0 90 3b 44
        E 16 b0 0b 2a
        E 16 b0 0b 11
        E 16 b0 0b 19
        E 16 b0 0b 2a
        E 16 b0 0b 22
        E 16 b0 0b 19
        E 16 b0 0b 08
        E 16 80 3b 00
        E 16 b0 0b 44
        E 0 90 45 44
        E 16 b0 0b 2a
        E 16 b0 0b 11
        E 16 b0 0b 19
        E 16 b0 0b 2a
        E 16 b0 0b 22
        E 16 b0 0b 19
        E 16 b0 0b 08
        E 16 80 45 00
        E 16 b0 0b 44
        E 0 90 3b 44
        E 16 b0 0b 2a
        E 16 b0 0b 11
        E 16 b0 0b 19
        E 16 b0 0b 2a
        E 16 b0 0b 22
        E 16 b0 0b 19
        E 16 b0 0b 08
        E 16 80 3b 00
        E 16 b0 0b 44
        E 0 90 3b 44
        E 16 b0 0b 2a
        E 16 b0 0b 11
        E 16 b0 0b 19
        E 16 b0 0b 2a
        E 16 b0 0b 22
        E 16 b0 0b 19
        E 16 b0 0b 08
        E 16 80 3b 00
        E 16 b0 0b 44
        E 0 90 47 44
        E 16 b0 0b 2a
        E 16 b0 0b 11
        E 16 b0 0b 19
        E 16 b0 0b 2a
        E 16 b0 0b 22
        E 16 b0 0b 19
        E 16 b0 0b 08
        E 16 80 47 00
        E 16 b0 0b 44
        E 0 90 40 44
        E 16 b0 0b 2a
        E 16 b0 0b 11
        E 16 b0 0b 19
        E 16 b0 0b 2a
        E 16 b0 0b 22
        E 16 b0 0b 19
        E 16 b0 0b 08
        E 16 80 40 00
        E 16 b0 0b 44
        E 0 90 42 44
        E 16 b0 0b 2a
        E 16 b0 0b 11
        E 16 b0 0b 19
        E 16 b0 0b 2a
        E 16 b0 0b 22
        E 16 b0 0b 19
        E 16 b0 0b 08
        E 16 80 42 00
        E 16 b0 0b 44
        E 0 90 47 44
        E 16 b0 0b 2a
        E 16 b0 0b 11
        E 16 b0 0b 19
        E 16 b0 0b 2a
        E 16 b0 0b 22
        E 16 b0 0b 19
        E 16 b0 0b 08
        E 16 80 47 00
        E 16 b0 0b 44
        E 0 90 3b 44
        E 16 b0 0b 2a
        E 16 b0 0b 11
        E 16 b0 0b 19
        E 16 b0 0b 2a
        E 16 b0 0b 22
        E 16 b0 0b 19
        E 16 b0 0b 08
        E 16 80 3b 00
        E 16 b0 0b 44
        E 0 90 45 44
        E 16 b0 0b 2a
        E 16 b0 0b 11
        E 16 b0 0b 19
        E 16 b0 0b 2a
        E 16 b0 0b 22
        E 16 b0 0b 19
        E 16 b0 0b 08
        E 16 80 45 00
        E 16 b0 0b 44
        E 0 90 47 44
        E 16 b0 0b 2a
        E 16 b0 0b 11
        E 16 b0 0b 19
        E 16 b0 0b 2a
        E 16 b0 0b 22
        E 16 b0 0b 19
        E 16 b0 0b 08
        E 16 80 47 00
        E 16 b0 0b 44
        E 0 90 42 44
        E 16 b0 0b 2a
        E 16 b0 0b 11
        E 16 b0 0b 19
        E 16 b0 0b 2a
        E 16 b0 0b 22
        E 16 b0 0b 19
        E 16 b0 0b 08
        E 16 80 42 00
        E 16 b0 0b 44
        E 0 90 45 44
        E 16 b0 0b 2a
        E 16 b0 0b 11
        E 16 b0 0b 19
        E 16 b0 0b 2a
        E 16 b0 0b 22
        E 16 b0 0b 19
        E 16 b0 0b 08
        E 16 80 45 00
        E 16 b0 0b 44
        E 0 90 39 44
        E 16 b0 0b 2a
        E 16 b0 0b 11
        E 16 b0 0b 19
        E 16 b0 0b 2a
        E 16 b0 0b 22
        E 16 b0 0b 19
        E 16 b0 0b 08
        E 16 80 39 00
        E 16 b0 0b 44
        E 0 90 42 44
        E 16 b0 0b 2a
        E 16 b0 0b 11
        E 16 b0 0b 19
        E 16 b0 0b 2a
        E 16 b0 0b 22
        E 16 b0 0b 19
        E 16 b0 0b 08
        E 16 80 42 00
        E 16 b0 0b 44
        E 0 90 3b 44
        E 16 b0 0b 3b
        E 112 b0 0b 33
        E 16 b0 0b 44
        E 0 80 3b 00
        E 0 90 36 44
        E 16 b0 0b 3b
        E 48 80 36 00
        E 16 90 34 3b
        E 16 b0 0b 33
        E 1744 b0 0b 2a
        E 128 b0 0b 22
        E 128 b0 0b 19
        E 128 b0 0b 11
        E 128 b0 0b 08
        E 128 80 34 00
        E 48 b0 0b 3b
        E 0 90 36 3b
        E 16 b0 0b 33
        E 1744 b0 0b 2a
        E 128 b0 0b 22
        E 128 b0 0b 19
        E 128 b0 0b 11
        E 128 b0 0b 08
        E 128 80 36 00
        E 32 b0 0b 3b
        E 0 90 37 3b
        E 16 b0 0b 33
        E 1728 b0 0b 2a
        E 128 b0 0b 22
        E 128 b0 0b 19
        E 128 b0 0b 11
        E 128 b0 0b 08
        E 128 80 37 00
        E 48 b0 0b 3b
        E 0 90 39 3b
        E 16 b0 0b 33
        E 1728 b0 0b 2a
        E 128 b0 0b 22
        E 128 b0 0b 19
        E 128 b0 0b 11
        E 128 b0 0b 08
        E 128 80 39 00
        E 48 b0 0b 44
        E 0 90 3b 44
        E 16 b0 0b 3b
        E 576 b0 0b 33
        E 16 b0 0b 44
        E 0 80 3b 00
        E 0 90 3c 44
        E 16 b0 0b 3b
        E 128 b0 0b 33
        E 16 b0 0b 44
        E 0 80 3c 00
        E 0 90 3b 44
        E 16 b0 0b 3b
        E 112 b0 0b 33
        E 16 b0 0b 44
        E 0 80 3b 00
        E 0 90 39 44
        E 16 b0 0b 3b
        E 592 b0 0b 33
        E 16 b0 0b 2a
        E 16 b0 0b 22
        E 16 b0 0b 19
        E 16 b0 0b 11
        E 16 b0 0b 08
        E 16 80 39 00
        E 64 b0 0b 44
        E 0 90 36 44
        E 16 b0 0b 3b
        E 432 b0 0b 44
        E 0 80 36 00
        E 0 90 32 44
        E 16 b0 0b 3b
        E 288 b0 0b 44
        E 0 80 32 00
        E 0 90 34 44
        E 16 b0 0b 3b
        E 208 b0 0b 33
        E 16 b0 0b 2a
        E 16 b0 0b 22
        E 16 b0 0b 19
        E 16 b0 0b 11
        E 16 b0 0b 44
        E 0 80 34 00
        E 0 90 3b 44
        E 16 b0 0b 3b
        E 128 b0 0b 33
        E 16 b0 0b 44
        E 0 80 3b 00
        E 0 90 3e 44
        E 16 b0 0b 3b
        E 128 b0 0b 44
        E 0 80 3e 00
        E 0 90 3c 44
        E 16 b0 0b 3b
        E 128 b0 0b 33
        E 16 b0 0b 44
        E 0 80 3c 00
        E 0 90 3b 44
        E 16 b0 0b 3b
        E 128 b0 0b 44
        E 0 80 3b 00
        E 0 90 39 44
        E 16 b0 0b 3b
        E 736 b0 0b 33
        E 16 b0 0b 44
        E 0 80 39 00
        E 0 90 36 44
        E 16 b0 0b 3b
        E 432 b0 0b 33
        E 16 b0 0b 44
        E 0 80 36 00
        E 0 90 32 44
        E 16 b0 0b 3b
        E 272 b0 0b 33
        E 16 b0 0b 44
        E 0 80 32 00
        E 0 90 34 44
        E 16 b0 0b 3b
        E 1008 80 34 00
        E 0 b0 7b 00
        E 0 ff 2f 00
      >
    >
  >
  <TRACK {564A268F-1F26-4C3F-870E-C0D828255439}
    NAME "NES - Pulse 2 [ch1]"
    PEAKCOL 10092441
    BEAT -1
    AUTOMODE 0
    PANLAWFLAGS 3
    VOLPAN 1 0 -1 -1 1
    MUTESOLO 0 0 0
    IPHASE 0
    PLAYOFFS 0 1
    ISBUS 0 0
    BUSCOMP 0 0 0 0 0
    SHOWINMIX 1 0.6667 0.5 1 0.5 0 0 0
    FIXEDLANES 9 0 0 0 0
    SEL 0
    REC 0 5088 1 0 0 0 0 0
    VU 2
    TRACKHEIGHT 0 0 0 0 0 0 0
    INQ 0 0 0 0.5 100 0 0 100
    NCHAN 2
    FX 1
    TRACKID {564A268F-1F26-4C3F-870E-C0D828255439}
    PERF 0
    MIDIOUT -1
    MAINSEND 1 0
    <FXCHAIN
      WNDRECT 24 52 700 560
      SHOW 0
      LASTSEL 0
      DOCKED 0
      BYPASS 0 0 0
      <JS "ReapNES Studio/ReapNES_Console.jsfx" ""
        2 15 1 10 80 10 100 2 3 15 1 0 400 14 50 3 1 0 50 0 0 15 1 0 100 0 0 0.500000 0.500000 0.400000 0.300000 0.800000 1 1 0 0 0 0 - - - - - - - - - - - - - - - - - - - - - - - - - -
      >
      FLOATPOS 0 0 0 0
      FXID {F4F60F3E-2337-42E1-A301-907BBDEDB068}
      WAK 0 0
    >
    <ITEM
      POSITION 0
      LENGTH 70.3732525
      LOOP 0
      ALLTAKES 0
      FADEIN 0 0 0 0 0 0 0
      FADEOUT 0 0 0 0 0 0 0
      MUTE 0 0
      SEL 0
      IGUID {1759E3B1-4CB1-492A-919D-2D85E7916CB0}
      <SOURCE MIDI
        HASDATA 1 480 QN
        CCINTERP 32
        E 0 c1 51
        E 160 b1 0c 60
        E 0 b1 0b 3b
        E 0 91 34 3b
        E 16 b1 0b 22
        E 16 b1 0b 08
        E 16 b1 0b 11
        E 16 b1 0b 33
        E 16 b1 0b 22
        E 16 b1 0b 19
        E 16 81 34 00
        E 16 b1 0b 08
        E 0 91 34 08
        E 16 81 34 00
        E 16 b1 0b 3b
        E 0 91 39 3b
        E 16 b1 0b 22
        E 16 b1 0b 08
        E 16 b1 0b 11
        E 16 b1 0b 22
        E 16 b1 0b 19
        E 16 b1 0b 11
        E 16 81 39 00
        E 32 b1 0b 3b
        E 0 91 3e 3b
        E 16 b1 0b 22
        E 16 b1 0b 08
        E 16 b1 0b 11
        E 16 b1 0b 33
        E 16 b1 0b 22
        E 16 b1 0b 19
        E 16 81 3e 00
        E 16 b1 0b 08
        E 0 91 3e 08
        E 16 81 3e 00
        E 16 b1 0b 3b
        E 0 91 47 3b
        E 16 b1 0b 22
        E 16 b1 0b 08
        E 16 b1 0b 11
        E 16 b1 0b 22
        E 16 b1 0b 19
        E 16 b1 0b 11
        E 16 81 47 00
        E 32 b1 0b 3b
        E 0 91 39 3b
        E 16 b1 0b 22
        E 16 b1 0b 08
        E 16 b1 0b 11
        E 16 b1 0b 33
        E 16 b1 0b 22
        E 16 b1 0b 19
        E 16 81 39 00
        E 16 b1 0b 08
        E 0 91 39 08
        E 16 81 39 00
        E 16 b1 0b 3b
        E 0 91 45 3b
        E 16 b1 0b 22
        E 16 b1 0b 08
        E 16 b1 0b 11
        E 16 b1 0b 22
        E 16 b1 0b 19
        E 16 b1 0b 11
        E 16 81 45 00
        E 32 b1 0b 3b
        E 0 91 3b 3b
        E 16 b1 0b 22
        E 16 b1 0b 08
        E 16 b1 0b 11
        E 16 b1 0b 33
        E 16 b1 0b 22
        E 16 b1 0b 19
        E 16 81 3b 00
        E 16 b1 0b 08
        E 0 91 3b 08
        E 16 81 3b 00
        E 16 b1 0b 3b
        E 0 91 3e 3b
        E 16 b1 0b 22
        E 16 b1 0b 08
        E 16 b1 0b 11
        E 16 b1 0b 22
        E 16 b1 0b 19
        E 16 b1 0b 11
        E 16 81 3e 00
        E 32 b1 0b 3b
        E 0 91 39 3b
        E 16 b1 0b 22
        E 16 b1 0b 08
        E 16 b1 0b 11
        E 16 b1 0b 33
        E 16 b1 0b 22
        E 16 b1 0b 19
        E 16 81 39 00
        E 16 b1 0b 08
        E 0 91 39 08
        E 16 81 39 00
        E 16 b1 0b 3b
        E 0 91 40 3b
        E 16 b1 0b 22
        E 16 b1 0b 08
        E 16 b1 0b 11
        E 16 b1 0b 22
        E 16 b1 0b 19
        E 16 b1 0b 11
        E 16 81 40 00
        E 32 b1 0b 3b
        E 0 91 34 3b
        E 16 b1 0b 22
        E 16 b1 0b 08
        E 16 b1 0b 11
        E 16 b1 0b 33
        E 16 b1 0b 22
        E 16 b1 0b 19
        E 16 81 34 00
        E 16 b1 0b 08
        E 0 91 34 08
        E 16 81 34 00
        E 16 b1 0b 3b
        E 0 91 39 3b
        E 16 b1 0b 22
        E 16 b1 0b 08
        E 16 b1 0b 11
        E 16 b1 0b 22
        E 16 b1 0b 19
        E 16 b1 0b 11
        E 16 81 39 00
        E 32 b1 0b 3b
        E 0 91 34 3b
        E 16 b1 0b 22
        E 16 b1 0b 08
        E 16 b1 0b 11
        E 16 b1 0b 33
        E 16 b1 0b 22
        E 16 b1 0b 19
        E 16 81 34 00
        E 16 b1 0b 08
        E 0 91 34 08
        E 16 81 34 00
        E 16 b1 0b 3b
        E 0 91 3b 3b
        E 16 b1 0b 22
        E 16 b1 0b 08
        E 16 b1 0b 11
        E 16 b1 0b 22
        E 16 b1 0b 19
        E 16 b1 0b 11
        E 16 81 3b 00
        E 32 b1 0b 3b
        E 0 91 34 3b
        E 16 b1 0b 22
        E 16 b1 0b 08
        E 16 b1 0b 11
        E 16 b1 0b 33
        E 16 b1 0b 22
        E 16 b1 0b 19
        E 16 81 34 00
        E 16 b1 0b 08
        E 0 91 34 08
        E 16 81 34 00
        E 160 b1 0b 3b
        E 0 91 36 3b
        E 16 b1 0b 22
        E 16 b1 0b 08
        E 16 b1 0b 11
        E 16 b1 0b 33
        E 16 b1 0b 22
        E 16 b1 0b 19
        E 16 81 36 00
        E 16 b1 0b 08
        E 0 91 36 08
        E 16 81 36 00
        E 16 b1 0b 3b
        E 0 91 39 3b
        E 16 b1 0b 22
        E 16 b1 0b 08
        E 16 b1 0b 11
        E 16 b1 0b 22
        E 16 b1 0b 19
        E 16 b1 0b 11
        E 16 81 39 00
        E 32 b1 0b 3b
        E 0 91 3e 3b
        E 16 b1 0b 22
        E 16 b1 0b 08
        E 16 b1 0b 11
        E 16 b1 0b 33
        E 16 b1 0b 22
        E 16 b1 0b 19
        E 16 81 3e 00
        E 16 b1 0b 08
        E 0 91 3e 08
        E 16 81 3e 00
        E 16 b1 0b 3b
        E 0 91 47 3b
        E 16 b1 0b 22
        E 16 b1 0b 08
        E 16 b1 0b 11
        E 16 b1 0b 22
        E 16 b1 0b 19
        E 16 b1 0b 11
        E 16 81 47 00
        E 32 b1 0b 3b
        E 0 91 39 3b
        E 16 b1 0b 22
        E 16 b1 0b 08
        E 16 b1 0b 11
        E 16 b1 0b 33
        E 16 b1 0b 22
        E 16 b1 0b 19
        E 16 81 39 00
        E 16 b1 0b 08
        E 0 91 39 08
        E 16 81 39 00
        E 16 b1 0b 3b
        E 0 91 45 3b
        E 16 b1 0b 22
        E 16 b1 0b 08
        E 16 b1 0b 11
        E 16 b1 0b 22
        E 16 b1 0b 19
        E 16 b1 0b 11
        E 16 81 45 00
        E 32 b1 0b 3b
        E 0 91 39 3b
        E 16 b1 0b 22
        E 16 b1 0b 08
        E 16 b1 0b 11
        E 16 b1 0b 33
        E 16 b1 0b 22
        E 16 b1 0b 19
        E 16 81 39 00
        E 16 b1 0b 08
        E 0 91 39 08
        E 16 81 39 00
        E 16 b1 0b 3b
        E 0 91 3e 3b
        E 16 b1 0b 22
        E 16 b1 0b 08
        E 16 b1 0b 11
        E 16 b1 0b 33
        E 16 b1 0b 22
        E 16 b1 0b 19
        E 16 81 3e 00
        E 16 b1 0b 08
        E 0 91 3e 08
        E 16 b1 0b 3b
        E 0 81 3e 00
        E 0 91 39 3b
        E 16 b1 0b 22
        E 16 b1 0b 08
        E 16 b1 0b 11
        E 16 b1 0b 33
        E 16 b1 0b 22
        E 16 b1 0b 19
        E 16 81 39 00
        E 16 b1 0b 08
        E 0 91 39 08
        E 16 81 39 00
        E 16 b1 0b 3b
        E 0 91 40 3b
        E 16 b1 0b 22
        E 16 b1 0b 08
        E 16 b1 0b 11
        E 16 b1 0b 33
        E 16 b1 0b 22
        E 16 b1 0b 19
        E 16 81 40 00
        E 16 b1 0b 08
        E 0 91 40 08
        E 16 b1 0b 3b
        E 0 81 40 00
        E 0 91 36 3b
        E 16 b1 0b 22
        E 16 b1 0b 08
        E 16 b1 0b 11
        E 16 b1 0b 33
        E 16 b1 0b 22
        E 16 b1 0b 19
        E 16 81 36 00
        E 16 b1 0b 08
        E 0 91 36 08
        E 16 81 36 00
        E 16 b1 0b 3b
        E 0 91 39 3b
        E 16 b1 0b 22
        E 16 b1 0b 08
        E 16 b1 0b 11
        E 16 b1 0b 33
        E 16 b1 0b 22
        E 16 b1 0b 19
        E 16 81 39 00
        E 16 b1 0b 08
        E 0 91 39 08
        E 16 b1 0b 3b
        E 0 81 39 00
        E 0 91 36 3b
        E 16 b1 0b 22
        E 16 b1 0b 08
        E 16 b1 0b 11
        E 16 b1 0b 33
        E 16 b1 0b 22
        E 16 b1 0b 19
        E 16 81 36 00
        E 16 b1 0b 08
        E 0 91 36 08
        E 16 81 36 00
        E 16 b1 0b 3b
        E 0 91 3b 3b
        E 16 b1 0b 22
        E 16 b1 0b 08
        E 16 b1 0b 11
        E 16 b1 0b 33
        E 16 b1 0b 22
        E 16 b1 0b 19
        E 16 81 3b 00
        E 16 b1 0b 08
        E 0 91 3b 08
        E 16 b1 0b 3b
        E 0 81 3b 00
        E 0 91 36 3b
        E 16 b1 0b 22
        E 16 b1 0b 08
        E 16 b1 0b 11
        E 16 b1 0b 33
        E 16 b1 0b 22
        E 16 b1 0b 19
        E 16 81 36 00
        E 16 b1 0b 08
        E 0 91 36 08
        E 16 81 36 00
        E 160 b1 0b 3b
        E 0 91 34 3b
        E 16 b1 0b 22
        E 16 b1 0b 08
        E 16 b1 0b 11
        E 16 b1 0b 33
        E 16 b1 0b 22
        E 16 b1 0b 19
        E 16 81 34 00
        E 16 b1 0b 08
        E 0 91 34 08
        E 16 81 34 00
        E 16 b1 0b 3b
        E 0 91 39 3b
        E 16 b1 0b 22
        E 16 b1 0b 08
        E 16 b1 0b 11
        E 16 b1 0b 33
        E 16 b1 0b 22
        E 16 b1 0b 19
        E 16 81 39 00
        E 16 b1 0b 08
        E 0 91 39 08
        E 16 b1 0b 3b
        E 0 81 39 00
        E 0 91 3e 3b
        E 16 b1 0b 22
        E 16 b1 0b 08
        E 16 b1 0b 11
        E 16 b1 0b 33
        E 16 b1 0b 22
        E 16 b1 0b 19
        E 16 81 3e 00
        E 16 b1 0b 08
        E 0 91 3e 08
        E 16 81 3e 00
        E 16 b1 0b 3b
        E 0 91 47 3b
        E 16 b1 0b 22
        E 16 b1 0b 08
        E 16 b1 0b 11
        E 16 b1 0b 33
        E 16 b1 0b 22
        E 16 b1 0b 19
        E 16 81 47 00
        E 16 b1 0b 08
        E 0 91 47 08
        E 16 b1 0b 3b
        E 0 81 47 00
        E 0 91 39 3b
        E 16 b1 0b 22
        E 16 b1 0b 08
        E 16 b1 0b 11
        E 16 b1 0b 33
        E 16 b1 0b 22
        E 16 b1 0b 19
        E 16 81 39 00
        E 16 b1 0b 08
        E 0 91 39 08
        E 16 81 39 00
        E 16 b1 0b 3b
        E 0 91 45 3b
        E 16 b1 0b 22
        E 16 b1 0b 08
        E 16 b1 0b 11
        E 16 b1 0b 33
        E 16 b1 0b 22
        E 16 b1 0b 19
        E 16 81 45 00
        E 16 b1 0b 08
        E 0 91 45 08
        E 16 b1 0b 3b
        E 0 81 45 00
        E 0 91 3b 3b
        E 16 b1 0b 22
        E 16 b1 0b 08
        E 16 b1 0b 11
        E 16 b1 0b 33
        E 16 b1 0b 22
        E 16 b1 0b 19
        E 16 81 3b 00
        E 16 b1 0b 08
        E 0 91 3b 08
        E 16 81 3b 00
        E 16 b1 0b 3b
        E 0 91 3e 3b
        E 16 b1 0b 22
        E 16 b1 0b 08
        E 16 b1 0b 11
        E 16 b1 0b 33
        E 16 b1 0b 22
        E 16 b1 0b 19
        E 16 81 3e 00
        E 16 b1 0b 08
        E 0 91 3e 08
        E 16 b1 0b 3b
        E 0 81 3e 00
        E 0 91 39 3b
        E 16 b1 0b 22
        E 16 b1 0b 08
        E 16 b1 0b 11
        E 16 b1 0b 33
        E 16 b1 0b 22
        E 16 b1 0b 19
        E 16 81 39 00
        E 16 b1 0b 08
        E 0 91 39 08
        E 16 81 39 00
        E 16 b1 0b 3b
        E 0 91 40 3b
        E 16 b1 0b 22
        E 16 b1 0b 08
        E 16 b1 0b 11
        E 16 b1 0b 33
        E 16 b1 0b 22
        E 16 b1 0b 19
        E 16 81 40 00
        E 16 b1 0b 08
        E 0 91 40 08
        E 16 b1 0b 3b
        E 0 81 40 00
        E 0 91 34 3b
        E 16 b1 0b 22
        E 16 b1 0b 08
        E 16 b1 0b 11
        E 16 b1 0b 33
        E 16 b1 0b 22
        E 16 b1 0b 19
        E 16 81 34 00
        E 16 b1 0b 08
        E 0 91 34 08
        E 16 81 34 00
        E 16 b1 0b 3b
        E 0 91 39 3b
        E 16 b1 0b 22
        E 16 b1 0b 08
        E 16 b1 0b 11
        E 16 b1 0b 33
        E 16 b1 0b 22
        E 16 b1 0b 19
        E 16 81 39 00
        E 16 b1 0b 08
        E 0 91 39 08
        E 16 b1 0b 3b
        E 0 81 39 00
        E 0 91 34 3b
        E 16 b1 0b 22
        E 16 b1 0b 08
        E 16 b1 0b 11
        E 16 b1 0b 33
        E 16 b1 0b 22
        E 16 b1 0b 19
        E 16 81 34 00
        E 16 b1 0b 08
        E 0 91 34 08
        E 16 81 34 00
        E 16 b1 0b 3b
        E 0 91 3b 3b
        E 16 b1 0b 22
        E 16 b1 0b 08
        E 16 b1 0b 11
        E 16 b1 0b 33
        E 16 b1 0b 22
        E 16 b1 0b 19
        E 16 81 3b 00
        E 16 b1 0b 08
        E 0 91 3b 08
        E 16 81 3b 00
        E 16 b1 0b 3b
        E 0 91 34 3b
        E 16 b1 0b 22
        E 16 b1 0b 08
        E 16 b1 0b 11
        E 16 b1 0b 22
        E 16 b1 0b 19
        E 16 b1 0b 11
        E 16 81 34 00
        E 192 b1 0b 3b
        E 0 91 39 3b
        E 16 b1 0b 22
        E 16 b1 0b 08
        E 16 b1 0b 11
        E 16 b1 0b 22
        E 16 b1 0b 19
        E 16 b1 0b 11
        E 16 81 39 00
        E 32 b1 0b 3b
        E 0 91 3d 3b
        E 16 b1 0b 22
        E 16 b1 0b 08
        E 16 b1 0b 11
        E 16 b1 0b 33
        E 16 b1 0b 22
        E 16 b1 0b 19
        E 16 81 3d 00
        E 16 b1 0b 08
        E 0 91 3d 08
        E 16 81 3d 00
        E 32 b1 0b 3b
        E 0 91 1a 3b
        E 16 b1 0b 7f
        E 0 81 1a 00
        E 0 91 15 7f
        E 16 b1 0b 6e
        E 0 81 15 00
        E 0 91 27 6e
        E 16 b1 0b 66
        E 0 81 27 00
        E 0 91 19 66
        E 16 b1 0b 55
        E 0 81 19 00
        E 0 91 21 55
        E 16 b1 0b 4c
        E 0 81 21 00
        E 0 91 29 4c
        E 16 81 29 00
        E 32 b1 0b 3b
        E 0 91 47 3b
        E 16 b1 0b 22
        E 16 b1 0b 08
        E 16 b1 0b 11
        E 16 b1 0b 33
        E 16 b1 0b 22
        E 16 b1 0b 19
        E 16 81 47 00
        E 16 b1 0b 08
        E 0 91 47 08
        E 16 81 47 00
        E 16 b1 0b 3b
        E 0 91 39 3b
        E 16 b1 0b 22
        E 16 b1 0b 08
        E 16 b1 0b 11
        E 16 81 39 00
        E 16 b1 0b 3b
        E 0 91 1a 3b
        E 16 b1 0b 7f
        E 0 81 1a 00
        E 0 91 15 7f
        E 16 b1 0b 6e
        E 0 81 15 00
        E 0 91 27 6e
        E 16 b1 0b 66
        E 0 81 27 00
        E 0 91 19 66
        E 16 b1 0b 55
        E 0 81 19 00
        E 0 91 21 55
        E 16 b1 0b 4c
        E 0 81 21 00
        E 0 91 29 4c
        E 16 b1 0b 08
        E 0 81 29 00
        E 0 91 45 08
        E 16 b1 0b 11
        E 16 b1 0b 33
        E 16 b1 0b 22
        E 16 b1 0b 19
        E 16 81 45 00
        E 16 b1 0b 08
        E 0 91 45 08
        E 16 81 45 00
        E 16 b1 0b 3b
        E 0 91 3b 3b
        E 16 b1 0b 22
        E 16 b1 0b 08
        E 16 b1 0b 11
        E 16 b1 0b 22
        E 16 b1 0b 19
        E 16 b1 0b 11
        E 16 81 3b 00
        E 48 b1 0b 3b
        E 0 91 1a 3b
        E 16 b1 0b 7f
        E 0 81 1a 00
        E 0 91 15 7f
        E 16 b1 0b 6e
        E 0 81 15 00
        E 0 91 27 6e
        E 16 b1 0b 66
        E 0 81 27 00
        E 0 91 19 66
        E 16 b1 0b 55
        E 0 81 19 00
        E 0 91 21 55
        E 16 b1 0b 4c
        E 0 81 21 00
        E 0 91 29 4c
        E 16 81 29 00
        E 16 b1 0b 08
        E 0 91 3d 08
        E 16 81 3d 00
        E 16 b1 0b 3b
        E 0 91 34 3b
        E 16 b1 0b 22
        E 16 b1 0b 08
        E 16 b1 0b 11
        E 16 b1 0b 22
        E 16 b1 0b 19
        E 16 b1 0b 11
        E 16 81 34 00
        E 32 b1 0b 3b
        E 0 91 40 3b
        E 16 b1 0b 22
        E 16 b1 0b 08
        E 16 b1 0b 11
        E 16 b1 0b 33
        E 16 81 40 00
        E 16 b1 0b 3b
        E 0 91 1a 3b
        E 16 b1 0b 7f
        E 0 81 1a 00
        E 0 91 15 7f
        E 16 b1 0b 6e
        E 0 81 15 00
        E 0 91 27 6e
        E 16 b1 0b 66
        E 0 81 27 00
        E 0 91 19 66
        E 16 b1 0b 55
        E 0 81 19 00
        E 0 91 21 55
        E 16 b1 0b 4c
        E 0 81 21 00
        E 0 91 29 4c
        E 16 b1 0b 08
        E 0 81 29 00
        E 0 91 34 08
        E 16 b1 0b 11
        E 16 b1 0b 22
        E 16 b1 0b 19
        E 16 b1 0b 11
        E 16 81 34 00
        E 32 b1 0b 3b
        E 0 91 39 3b
        E 16 b1 0b 22
        E 16 b1 0b 08
        E 16 b1 0b 11
        E 16 b1 0b 33
        E 16 b1 0b 22
        E 16 b1 0b 19
        E 16 81 39 00
        E 16 b1 0b 08
        E 0 91 39 08
        E 16 81 39 00
        E 32 b1 0b 3b
        E 0 91 1a 3b
        E 16 b1 0b 7f
        E 0 81 1a 00
        E 0 91 15 7f
        E 16 b1 0b 6e
        E 0 81 15 00
        E 0 91 27 6e
        E 16 b1 0b 66
        E 0 81 27 00
        E 0 91 19 66
        E 16 b1 0b 55
        E 0 81 19 00
        E 0 91 21 55
        E 16 b1 0b 4c
        E 0 81 21 00
        E 0 91 29 4c
        E 16 81 29 00
        E 32 b1 0b 3b
        E 0 91 3d 3b
        E 16 b1 0b 22
        E 16 b1 0b 08
        E 16 b1 0b 11
        E 16 b1 0b 33
        E 16 b1 0b 22
        E 16 b1 0b 19
        E 16 81 3d 00
        E 16 b1 0b 08
        E 0 91 3d 08
        E 16 81 3d 00
        E 16 b1 0b 3b
        E 0 91 34 3b
        E 16 b1 0b 22
        E 16 b1 0b 08
        E 16 b1 0b 11
        E 16 b1 0b 22
        E 16 81 34 00
        E 16 b1 0b 3b
        E 0 91 1a 3b
        E 16 b1 0b 7f
        E 0 81 1a 00
        E 0 91 15 7f
        E 16 b1 0b 6e
        E 0 81 15 00
        E 0 91 27 6e
        E 16 b1 0b 66
        E 0 81 27 00
        E 0 91 19 66
        E 16 b1 0b 55
        E 0 81 19 00
        E 0 91 21 55
        E 16 b1 0b 4c
        E 0 81 21 00
        E 0 91 29 4c
        E 16 b1 0b 33
        E 0 81 29 00
        E 0 91 2b 33
        E 16 b1 0b 2a
        E 16 b1 0b 3b
        E 0 81 2b 00
        E 0 91 2f 3b
        E 16 b1 0b 33
        E 48 b1 0b 2a
        E 16 b1 0b 3b
        E 0 81 2f 00
        E 0 91 30 3b
        E 16 b1 0b 33
        E 48 b1 0b 3b
        E 0 81 30 00
        E 0 91 34 3b
        E 16 b1 0b 33
        E 48 b1 0b 2a
        E 16 b1 0b 3b
        E 0 81 34 00
        E 0 91 37 3b
        E 16 81 37 00
        E 16 91 1a 3b
        E 16 b1 0b 7f
        E 0 81 1a 00
        E 0 91 15 7f
        E 16 b1 0b 6e
        E 0 81 15 00
        E 0 91 27 6e
        E 16 b1 0b 66
        E 0 81 27 00
        E 0 91 19 66
        E 16 b1 0b 55
        E 0 81 19 00
        E 0 91 21 55
        E 16 b1 0b 4c
        E 0 81 21 00
        E 0 91 29 4c
        E 16 b1 0b 33
        E 0 81 29 00
        E 0 91 3b 33
        E 16 b1 0b 2a
        E 16 b1 0b 3b
        E 0 81 3b 00
        E 0 91 3c 3b
        E 16 b1 0b 33
        E 48 b1 0b 3b
        E 0 81 3c 00
        E 0 91 40 3b
        E 16 b1 0b 33
        E 48 b1 0b 2a
        E 16 b1 0b 3b
        E 0 81 40 00
        E 0 91 43 3b
        E 16 b1 0b 33
        E 80 81 43 00
        E 16 b1 0b 3b
        E 0 91 1a 3b
        E 16 b1 0b 7f
        E 0 81 1a 00
        E 0 91 15 7f
        E 16 b1 0b 6e
        E 0 81 15 00
        E 0 91 27 6e
        E 16 b1 0b 66
        E 0 81 27 00
        E 0 91 19 66
        E 16 b1 0b 55
        E 0 81 19 00
        E 0 91 21 55
        E 16 b1 0b 4c
        E 0 81 21 00
        E 0 91 29 4c
        E 16 b1 0b 33
        E 0 81 29 00
        E 0 91 40 33
        E 80 b1 0b 2a
        E 16 b1 0b 3b
        E 0 81 40 00
        E 0 91 42 3b
        E 16 b1 0b 33
        E 736 b1 0b 2a
        E 16 b1 0b 3b
        E 0 81 42 00
        E 0 91 3e 3b
        E 16 b1 0b 33
        E 272 b1 0b 2a
        E 16 b1 0b 3b
        E 0 81 3e 00
        E 0 91 2d 3b
        E 16 b1 0b 33
        E 48 b1 0b 2a
        E 16 b1 0b 3b
        E 0 81 2d 00
        E 0 91 32 3b
        E 16 b1 0b 33
        E 48 b1 0b 3b
        E 0 81 32 00
        E 0 91 36 3b
        E 16 b1 0b 33
        E 48 b1 0b 2a
        E 16 b1 0b 3b
        E 0 81 36 00
        E 0 91 39 3b
        E 16 b1 0b 33
        E 48 b1 0b 2a
        E 16 b1 0b 3b
        E 0 81 39 00
        E 0 91 36 3b
        E 16 b1 0b 33
        E 48 b1 0b 2a
        E 16 b1 0b 3b
        E 0 81 36 00
        E 0 91 32 3b
        E 16 b1 0b 33
        E 48 b1 0b 3b
        E 0 81 32 00
        E 0 91 2b 3b
        E 16 b1 0b 33
        E 48 b1 0b 2a
        E 16 b1 0b 3b
        E 0 81 2b 00
        E 0 91 2f 3b
        E 16 b1 0b 33
        E 48 b1 0b 2a
        E 16 b1 0b 3b
        E 0 81 2f 00
        E 0 91 30 3b
        E 16 b1 0b 33
        E 48 b1 0b 2a
        E 16 b1 0b 3b
        E 0 81 30 00
        E 0 91 34 3b
        E 16 b1 0b 33
        E 48 b1 0b 3b
        E 0 81 34 00
        E 0 91 37 3b
        E 16 b1 0b 33
        E 48 b1 0b 2a
        E 16 b1 0b 3b
        E 0 81 37 00
        E 0 91 3b 3b
        E 16 b1 0b 33
        E 48 b1 0b 2a
        E 16 b1 0b 3b
        E 0 81 3b 00
        E 0 91 3c 3b
        E 16 b1 0b 33
        E 48 b1 0b 2a
        E 16 b1 0b 3b
        E 0 81 3c 00
        E 0 91 40 3b
        E 16 b1 0b 33
        E 48 b1 0b 3b
        E 0 81 40 00
        E 0 91 43 3b
        E 16 b1 0b 33
        E 128 b1 0b 2a
        E 16 b1 0b 3b
        E 0 81 43 00
        E 0 91 40 3b
        E 16 b1 0b 33
        E 128 b1 0b 3b
        E 0 81 40 00
        E 0 91 42 3b
        E 16 b1 0b 33
        E 736 b1 0b 2a
        E 16 b1 0b 3b
        E 0 81 42 00
        E 0 91 3e 3b
        E 16 b1 0b 33
        E 272 b1 0b 2a
        E 16 b1 0b 3b
        E 0 81 3e 00
        E 0 91 2d 3b
        E 16 b1 0b 33
        E 48 b1 0b 2a
        E 16 b1 0b 3b
        E 0 81 2d 00
        E 0 91 32 3b
        E 16 b1 0b 33
        E 48 b1 0b 2a
        E 16 b1 0b 3b
        E 0 81 32 00
        E 0 91 36 3b
        E 16 b1 0b 33
        E 32 b1 0b 2a
        E 16 b1 0b 3b
        E 0 81 36 00
        E 0 91 39 3b
        E 16 b1 0b 33
        E 48 b1 0b 2a
        E 16 b1 0b 3b
        E 0 81 39 00
        E 0 91 36 3b
        E 16 b1 0b 33
        E 48 b1 0b 2a
        E 16 b1 0b 3b
        E 0 81 36 00
        E 0 91 32 3b
        E 16 b1 0b 33
        E 48 b1 0b 2a
        E 16 b1 0b 3b
        E 0 81 32 00
        E 0 91 31 3b
        E 16 b1 0b 22
        E 16 b1 0b 08
        E 16 b1 0b 11
        E 16 b1 0b 22
        E 16 b1 0b 19
        E 16 b1 0b 11
        E 16 81 31 00
        E 32 b1 0b 3b
        E 0 91 38 3b
        E 16 b1 0b 22
        E 16 b1 0b 08
        E 16 b1 0b 11
        E 16 b1 0b 33
        E 16 b1 0b 22
        E 16 b1 0b 19
        E 16 81 38 00
        E 16 b1 0b 08
        E 0 91 38 08
        E 16 81 38 00
        E 16 b1 0b 3b
        E 0 91 36 3b
        E 16 b1 0b 22
        E 16 b1 0b 08
        E 16 b1 0b 11
        E 16 b1 0b 22
        E 16 b1 0b 19
        E 16 b1 0b 11
        E 16 81 36 00
        E 32 b1 0b 3b
        E 0 91 3b 3b
        E 16 b1 0b 22
        E 16 b1 0b 08
        E 16 b1 0b 11
        E 16 b1 0b 33
        E 16 b1 0b 22
        E 16 b1 0b 19
        E 16 81 3b 00
        E 16 b1 0b 08
        E 0 91 3b 08
        E 16 81 3b 00
        E 16 b1 0b 3b
        E 0 91 3d 3b
        E 16 b1 0b 22
        E 16 b1 0b 08
        E 16 b1 0b 11
        E 16 b1 0b 22
        E 16 b1 0b 19
        E 16 b1 0b 11
        E 16 81 3d 00
        E 32 b1 0b 3b
        E 0 91 31 3b
        E 16 b1 0b 22
        E 16 b1 0b 08
        E 16 b1 0b 11
        E 16 b1 0b 33
        E 16 b1 0b 22
        E 16 b1 0b 19
        E 16 81 31 00
        E 16 b1 0b 08
        E 0 91 31 08
        E 16 81 31 00
        E 16 b1 0b 3b
        E 0 91 38 3b
        E 16 b1 0b 22
        E 16 b1 0b 08
        E 16 b1 0b 11
        E 16 b1 0b 22
        E 16 b1 0b 19
        E 16 b1 0b 11
        E 16 81 38 00
        E 32 b1 0b 3b
        E 0 91 40 3b
        E 16 b1 0b 22
        E 16 b1 0b 08
        E 16 b1 0b 11
        E 16 b1 0b 33
        E 16 b1 0b 22
        E 16 b1 0b 19
        E 16 81 40 00
        E 16 b1 0b 08
        E 0 91 40 08
        E 16 81 40 00
        E 16 b1 0b 3b
        E 0 91 38 3b
        E 16 b1 0b 22
        E 16 b1 0b 08
        E 16 b1 0b 11
        E 16 b1 0b 22
        E 16 b1 0b 19
        E 16 b1 0b 11
        E 16 81 38 00
        E 32 b1 0b 3b
        E 0 91 31 3b
        E 16 b1 0b 22
        E 16 b1 0b 08
        E 16 b1 0b 11
        E 16 b1 0b 33
        E 16 b1 0b 22
        E 16 b1 0b 19
        E 16 81 31 00
        E 16 b1 0b 08
        E 0 91 31 08
        E 16 81 31 00
        E 16 b1 0b 3b
        E 0 91 34 3b
        E 16 b1 0b 22
        E 16 b1 0b 08
        E 16 b1 0b 11
        E 16 b1 0b 22
        E 16 b1 0b 19
        E 16 b1 0b 11
        E 16 81 34 00
        E 32 b1 0b 3b
        E 0 91 3b 3b
        E 16 b1 0b 22
        E 16 b1 0b 08
        E 16 b1 0b 11
        E 16 b1 0b 33
        E 16 b1 0b 22
        E 16 b1 0b 19
        E 16 81 3b 00
        E 16 b1 0b 08
        E 0 91 3b 08
        E 16 81 3b 00
        E 16 b1 0b 3b
        E 0 91 3d 3b
        E 16 b1 0b 22
        E 16 b1 0b 08
        E 16 b1 0b 11
        E 16 b1 0b 22
        E 16 b1 0b 19
        E 16 b1 0b 11
        E 16 81 3d 00
        E 32 b1 0b 3b
        E 0 91 38 3b
        E 16 b1 0b 22
        E 16 b1 0b 08
        E 16 b1 0b 11
        E 16 b1 0b 33
        E 16 b1 0b 22
        E 16 b1 0b 19
        E 16 81 38 00
        E 16 b1 0b 08
        E 0 91 38 08
        E 16 81 38 00
        E 16 b1 0b 3b
        E 0 91 3d 3b
        E 16 b1 0b 22
        E 16 b1 0b 08
        E 16 b1 0b 11
        E 16 b1 0b 22
        E 16 b1 0b 19
        E 16 b1 0b 11
        E 16 81 3d 00
        E 32 b1 0b 3b
        E 0 91 44 3b
        E 16 b1 0b 22
        E 16 b1 0b 08
        E 16 b1 0b 11
        E 16 b1 0b 33
        E 16 b1 0b 22
        E 16 b1 0b 19
        E 16 81 44 00
        E 16 b1 0b 08
        E 0 91 44 08
        E 16 81 44 00
        E 16 b1 0b 3b
        E 0 91 36 3b
        E 16 b1 0b 22
        E 16 b1 0b 08
        E 16 b1 0b 11
        E 16 b1 0b 33
        E 16 b1 0b 22
        E 16 b1 0b 19
        E 16 81 36 00
        E 16 b1 0b 08
        E 0 91 36 08
        E 16 81 36 00
        E 16 b1 0b 3b
        E 0 91 3d 3b
        E 16 b1 0b 22
        E 16 b1 0b 08
        E 16 b1 0b 11
        E 16 b1 0b 22
        E 16 b1 0b 19
        E 16 b1 0b 11
        E 16 81 3d 00
        E 32 b1 0b 3b
        E 0 91 3b 3b
        E 16 b1 0b 22
        E 16 b1 0b 08
        E 16 b1 0b 11
        E 16 b1 0b 33
        E 16 b1 0b 22
        E 16 b1 0b 19
        E 16 81 3b 00
        E 16 b1 0b 08
        E 0 91 3b 08
        E 16 b1 0b 3b
        E 0 81 3b 00
        E 0 91 40 3b
        E 16 b1 0b 22
        E 16 b1 0b 08
        E 16 b1 0b 11
        E 16 b1 0b 33
        E 16 b1 0b 22
        E 16 b1 0b 19
        E 16 81 40 00
        E 16 b1 0b 08
        E 0 91 40 08
        E 16 81 40 00
        E 16 b1 0b 3b
        E 0 91 42 3b
        E 16 b1 0b 22
        E 16 b1 0b 08
        E 16 b1 0b 11
        E 16 b1 0b 22
        E 16 b1 0b 19
        E 16 b1 0b 11
        E 16 81 42 00
        E 32 b1 0b 3b
        E 0 91 36 3b
        E 16 b1 0b 22
        E 16 b1 0b 08
        E 16 b1 0b 11
        E 16 b1 0b 22
        E 16 b1 0b 19
        E 16 b1 0b 11
        E 16 81 36 00
        E 32 b1 0b 3b
        E 0 91 3d 3b
        E 16 b1 0b 22
        E 16 b1 0b 08
        E 16 b1 0b 11
        E 16 b1 0b 33
        E 16 b1 0b 22
        E 16 b1 0b 19
        E 16 81 3d 00
        E 16 b1 0b 08
        E 0 91 3d 08
        E 16 b1 0b 3b
        E 0 81 3d 00
        E 0 91 31 3b
        E 16 b1 0b 22
        E 16 b1 0b 08
        E 16 b1 0b 11
        E 16 b1 0b 33
        E 16 b1 0b 22
        E 16 b1 0b 19
        E 16 81 31 00
        E 16 b1 0b 08
        E 0 91 31 08
        E 16 81 31 00
        E 16 b1 0b 3b
        E 0 91 42 3b
        E 16 b1 0b 22
        E 16 b1 0b 08
        E 16 b1 0b 11
        E 16 b1 0b 22
        E 16 b1 0b 19
        E 16 b1 0b 11
        E 16 81 42 00
        E 32 b1 0b 3b
        E 0 91 36 3b
        E 16 b1 0b 22
        E 16 b1 0b 08
        E 16 b1 0b 11
        E 16 b1 0b 22
        E 16 b1 0b 19
        E 16 b1 0b 11
        E 16 81 36 00
        E 32 b1 0b 3b
        E 0 91 3b 3b
        E 16 b1 0b 22
        E 16 b1 0b 08
        E 16 b1 0b 11
        E 16 b1 0b 33
        E 16 b1 0b 22
        E 16 b1 0b 19
        E 16 81 3b 00
        E 16 b1 0b 08
        E 0 91 3b 08
        E 16 b1 0b 3b
        E 0 81 3b 00
        E 0 91 40 3b
        E 16 b1 0b 22
        E 16 b1 0b 08
        E 16 b1 0b 11
        E 16 b1 0b 33
        E 16 b1 0b 22
        E 16 b1 0b 19
        E 16 81 40 00
        E 16 b1 0b 08
        E 0 91 40 08
        E 16 81 40 00
        E 16 b1 0b 3b
        E 0 91 42 3b
        E 16 b1 0b 22
        E 16 b1 0b 08
        E 16 b1 0b 11
        E 16 b1 0b 22
        E 16 b1 0b 19
        E 16 b1 0b 11
        E 16 81 42 00
        E 32 b1 0b 3b
        E 0 91 3d 3b
        E 16 b1 0b 22
        E 16 b1 0b 08
        E 16 b1 0b 11
        E 16 b1 0b 22
        E 16 b1 0b 19
        E 16 b1 0b 11
        E 16 81 3d 00
        E 32 b1 0b 3b
        E 0 91 42 3b
        E 16 b1 0b 22
        E 16 b1 0b 08
        E 16 b1 0b 11
        E 16 b1 0b 33
        E 16 b1 0b 22
        E 16 b1 0b 19
        E 16 81 42 00
        E 16 b1 0b 08
        E 0 91 42 08
        E 16 b1 0b 3b
        E 0 81 42 00
        E 0 91 49 3b
        E 16 b1 0b 22
        E 16 b1 0b 08
        E 16 b1 0b 11
        E 16 b1 0b 33
        E 16 b1 0b 22
        E 16 b1 0b 19
        E 16 81 49 00
        E 16 b1 0b 08
        E 0 91 49 08
        E 16 81 49 00
        E 16 b1 0c 10
        E 0 b1 0b 4c
        E 0 91 3b 4c
        E 16 b1 0b 3b
        E 32 b1 0b 33
        E 32 b1 0b 2a
        E 16 b1 0b 22
        E 16 b1 0b 19
        E 32 b1 0b 4c
        E 0 81 3b 00
        E 0 91 2f 4c
        E 16 b1 0b 3b
        E 16 b1 0b 33
        E 32 b1 0b 2a
        E 32 b1 0b 22
        E 16 b1 0b 19
        E 32 b1 0b 4c
        E 0 81 2f 00
        E 0 91 36 4c
        E 16 b1 0b 3b
        E 32 b1 0b 33
        E 32 b1 0b 2a
        E 16 b1 0b 22
        E 16 b1 0b 19
        E 32 b1 0b 4c
        E 0 81 36 00
        E 0 91 39 4c
        E 16 b1 0b 3b
        E 32 b1 0b 33
        E 32 b1 0b 2a
        E 16 b1 0b 22
        E 16 b1 0b 19
        E 32 b1 0b 11
        E 16 b1 0b 4c
        E 0 81 39 00
        E 0 91 2f 4c
        E 16 b1 0b 3b
        E 16 b1 0b 33
        E 32 b1 0b 2a
        E 32 b1 0b 22
        E 16 b1 0b 19
        E 32 b1 0b 4c
        E 0 81 2f 00
        E 0 91 32 4c
        E 16 b1 0b 3b
        E 16 b1 0b 33
        E 32 b1 0b 2a
        E 32 b1 0b 22
        E 16 b1 0b 19
        E 32 b1 0b 4c
        E 0 81 32 00
        E 0 91 38 4c
        E 16 b1 0b 3b
        E 32 b1 0b 33
        E 32 b1 0b 2a
        E 16 b1 0b 22
        E 16 b1 0b 19
        E 32 b1 0b 4c
        E 0 81 38 00
        E 0 91 2f 4c
        E 16 b1 0b 3b
        E 32 b1 0b 33
        E 32 b1 0b 2a
        E 16 b1 0b 22
        E 16 b1 0b 19
        E 32 b1 0b 11
        E 16 b1 0b 4c
        E 0 81 2f 00
        E 0 91 32 4c
        E 16 b1 0b 3b
        E 16 b1 0b 33
        E 32 b1 0b 2a
        E 32 b1 0b 22
        E 16 b1 0b 19
        E 32 b1 0b 4c
        E 0 81 32 00
        E 0 91 39 4c
        E 16 b1 0b 3b
        E 16 b1 0b 33
        E 32 b1 0b 2a
        E 32 b1 0b 22
        E 16 b1 0b 19
        E 32 b1 0b 4c
        E 0 81 39 00
        E 0 91 2f 4c
        E 16 b1 0b 3b
        E 32 b1 0b 33
        E 32 b1 0b 2a
        E 16 b1 0b 22
        E 16 b1 0b 19
        E 32 b1 0b 11
        E 16 b1 0b 4c
        E 0 81 2f 00
        E 0 91 36 4c
        E 16 b1 0b 3b
        E 32 b1 0b 33
        E 32 b1 0b 2a
        E 16 b1 0b 22
        E 16 b1 0b 19
        E 32 b1 0b 4c
        E 0 81 36 00
        E 0 91 38 4c
        E 16 b1 0b 3b
        E 16 b1 0b 33
        E 32 b1 0b 2a
        E 32 b1 0b 22
        E 16 b1 0b 19
        E 32 b1 0b 4c
        E 0 81 38 00
        E 0 91 39 4c
        E 16 b1 0b 3b
        E 16 b1 0b 33
        E 32 b1 0b 2a
        E 32 b1 0b 22
        E 16 b1 0b 19
        E 32 b1 0b 4c
        E 0 81 39 00
        E 0 91 3b 4c
        E 16 b1 0b 3b
        E 32 b1 0b 33
        E 32 b1 0b 2a
        E 16 b1 0b 22
        E 16 b1 0b 19
        E 32 b1 0b 11
        E 16 b1 0b 4c
        E 0 81 3b 00
        E 0 91 2f 4c
        E 16 b1 0b 3b
        E 32 b1 0b 33
        E 32 b1 0b 2a
        E 16 b1 0b 22
        E 16 b1 0b 19
        E 32 b1 0b 4c
        E 0 81 2f 00
        E 0 91 3b 4c
        E 16 b1 0b 3b
        E 16 b1 0b 33
        E 32 b1 0b 2a
        E 32 b1 0b 22
        E 16 b1 0b 19
        E 32 b1 0b 4c
        E 0 81 3b 00
        E 0 91 2f 4c
        E 16 b1 0b 3b
        E 16 b1 0b 33
        E 32 b1 0b 2a
        E 32 b1 0b 22
        E 16 b1 0b 19
        E 32 b1 0b 4c
        E 0 81 2f 00
        E 0 91 36 4c
        E 16 b1 0b 3b
        E 32 b1 0b 33
        E 32 b1 0b 2a
        E 16 b1 0b 22
        E 16 b1 0b 19
        E 32 b1 0b 11
        E 16 b1 0b 4c
        E 0 81 36 00
        E 0 91 39 4c
        E 16 b1 0b 3b
        E 32 b1 0b 33
        E 32 b1 0b 2a
        E 16 b1 0b 22
        E 16 b1 0b 19
        E 32 b1 0b 4c
        E 0 81 39 00
        E 0 91 2f 4c
        E 16 b1 0b 3b
        E 16 b1 0b 33
        E 32 b1 0b 2a
        E 32 b1 0b 22
        E 16 b1 0b 19
        E 32 b1 0b 4c
        E 0 81 2f 00
        E 0 91 32 4c
        E 16 b1 0b 3b
        E 16 b1 0b 33
        E 32 b1 0b 2a
        E 32 b1 0b 22
        E 16 b1 0b 19
        E 32 b1 0b 4c
        E 0 81 32 00
        E 0 91 38 4c
        E 16 b1 0b 3b
        E 32 b1 0b 33
        E 32 b1 0b 2a
        E 16 b1 0b 22
        E 16 b1 0b 19
        E 32 b1 0b 11
        E 16 b1 0b 4c
        E 0 81 38 00
        E 0 91 2f 4c
        E 16 b1 0b 3b
        E 32 b1 0b 33
        E 32 b1 0b 2a
        E 16 b1 0b 22
        E 16 b1 0b 19
        E 32 b1 0b 4c
        E 0 81 2f 00
        E 0 91 32 4c
        E 16 b1 0b 3b
        E 16 b1 0b 33
        E 32 b1 0b 2a
        E 32 b1 0b 22
        E 16 b1 0b 19
        E 32 b1 0b 4c
        E 0 81 32 00
        E 0 91 39 4c
        E 16 b1 0b 3b
        E 16 b1 0b 33
        E 32 b1 0b 2a
        E 32 b1 0b 22
        E 16 b1 0b 19
        E 32 b1 0b 4c
        E 0 81 39 00
        E 0 91 2f 4c
        E 16 b1 0b 3b
        E 32 b1 0b 33
        E 32 b1 0b 2a
        E 16 b1 0b 22
        E 16 b1 0b 19
        E 32 b1 0b 11
        E 16 b1 0b 4c
        E 0 81 2f 00
        E 0 91 36 4c
        E 16 b1 0b 3b
        E 32 b1 0b 33
        E 32 b1 0b 2a
        E 16 b1 0b 22
        E 16 b1 0b 19
        E 32 b1 0b 4c
        E 0 81 36 00
        E 0 91 38 4c
        E 16 b1 0b 3b
        E 16 b1 0b 33
        E 32 b1 0b 2a
        E 32 b1 0b 22
        E 16 b1 0b 19
        E 32 b1 0b 4c
        E 0 81 38 00
        E 0 91 36 4c
        E 16 b1 0b 3b
        E 16 b1 0b 33
        E 32 b1 0b 2a
        E 32 b1 0b 22
        E 16 b1 0b 19
        E 32 b1 0b 4c
        E 0 81 36 00
        E 0 91 38 4c
        E 16 b1 0b 3b
        E 32 b1 0b 33
        E 32 b1 0b 2a
        E 16 b1 0b 22
        E 16 b1 0b 19
        E 32 b1 0b 11
        E 16 b1 0b 4c
        E 0 81 38 00
        E 0 91 39 4c
        E 16 b1 0b 3b
        E 32 b1 0b 33
        E 32 b1 0b 2a
        E 16 b1 0b 22
        E 16 b1 0b 19
        E 32 b1 0b 4c
        E 0 81 39 00
        E 0 91 3b 4c
        E 16 b1 0b 3b
        E 16 b1 0b 33
        E 32 b1 0b 2a
        E 32 b1 0b 22
        E 16 b1 0b 19
        E 32 b1 0b 4c
        E 0 81 3b 00
        E 0 91 2f 4c
        E 16 b1 0b 3b
        E 16 b1 0b 33
        E 32 b1 0b 2a
        E 32 b1 0b 22
        E 16 b1 0b 19
        E 32 b1 0b 4c
        E 0 81 2f 00
        E 0 91 36 4c
        E 16 b1 0b 3b
        E 32 b1 0b 33
        E 32 b1 0b 2a
        E 16 b1 0b 22
        E 16 b1 0b 19
        E 32 b1 0b 11
        E 16 b1 0b 4c
        E 0 81 36 00
        E 0 91 39 4c
        E 16 b1 0b 3b
        E 32 b1 0b 33
        E 32 b1 0b 2a
        E 16 b1 0b 22
        E 16 b1 0b 19
        E 32 b1 0b 4c
        E 0 81 39 00
        E 0 91 2f 4c
        E 16 b1 0b 3b
        E 16 b1 0b 33
        E 32 b1 0b 2a
        E 32 b1 0b 22
        E 16 b1 0b 19
        E 32 b1 0b 4c
        E 0 81 2f 00
        E 0 91 32 4c
        E 16 b1 0b 3b
        E 16 b1 0b 33
        E 32 b1 0b 2a
        E 32 b1 0b 22
        E 16 b1 0b 19
        E 32 b1 0b 4c
        E 0 81 32 00
        E 0 91 38 4c
        E 16 b1 0b 3b
        E 32 b1 0b 33
        E 32 b1 0b 2a
        E 16 b1 0b 22
        E 16 b1 0b 19
        E 32 b1 0b 11
        E 16 b1 0b 4c
        E 0 81 38 00
        E 0 91 2f 4c
        E 16 b1 0b 3b
        E 32 b1 0b 33
        E 32 b1 0b 2a
        E 16 b1 0b 22
        E 16 b1 0b 19
        E 32 b1 0b 4c
        E 0 81 2f 00
        E 0 91 32 4c
        E 16 b1 0b 3b
        E 16 b1 0b 33
        E 32 b1 0b 2a
        E 32 b1 0b 22
        E 16 b1 0b 19
        E 32 b1 0b 4c
        E 0 81 32 00
        E 0 91 39 4c
        E 16 b1 0b 3b
        E 16 b1 0b 33
        E 32 b1 0b 2a
        E 32 b1 0b 22
        E 16 b1 0b 19
        E 32 b1 0b 4c
        E 0 81 39 00
        E 0 91 2f 4c
        E 16 b1 0b 3b
        E 32 b1 0b 33
        E 32 b1 0b 2a
        E 16 b1 0b 22
        E 16 b1 0b 19
        E 32 b1 0b 11
        E 16 b1 0b 4c
        E 0 81 2f 00
        E 0 91 36 4c
        E 16 b1 0b 3b
        E 32 b1 0b 33
        E 32 b1 0b 2a
        E 16 b1 0b 22
        E 16 b1 0b 19
        E 32 b1 0b 4c
        E 0 81 36 00
        E 0 91 38 4c
        E 16 b1 0b 3b
        E 16 b1 0b 33
        E 32 b1 0b 2a
        E 32 b1 0b 22
        E 16 b1 0b 19
        E 32 b1 0b 4c
        E 0 81 38 00
        E 0 91 39 4c
        E 16 b1 0b 3b
        E 16 b1 0b 33
        E 32 b1 0b 2a
        E 32 b1 0b 22
        E 16 b1 0b 19
        E 32 b1 0b 4c
        E 0 81 39 00
        E 0 91 3b 4c
        E 16 b1 0b 3b
        E 32 b1 0b 33
        E 32 b1 0b 2a
        E 16 b1 0b 22
        E 16 b1 0b 19
        E 32 b1 0b 11
        E 16 b1 0b 4c
        E 0 81 3b 00
        E 0 91 2f 4c
        E 16 b1 0b 3b
        E 32 b1 0b 33
        E 32 b1 0b 2a
        E 16 b1 0b 22
        E 16 b1 0b 19
        E 32 b1 0b 4c
        E 0 81 2f 00
        E 0 91 3b 4c
        E 16 b1 0b 3b
        E 16 b1 0b 33
        E 32 b1 0b 2a
        E 32 b1 0b 22
        E 16 b1 0b 19
        E 32 b1 0b 4c
        E 0 81 3b 00
        E 0 91 2f 4c
        E 16 b1 0b 3b
        E 16 b1 0b 33
        E 32 b1 0b 2a
        E 32 b1 0b 22
        E 16 b1 0b 19
        E 32 b1 0b 4c
        E 0 81 2f 00
        E 0 91 36 4c
        E 16 b1 0b 3b
        E 32 b1 0b 33
        E 32 b1 0b 2a
        E 16 b1 0b 22
        E 16 b1 0b 19
        E 32 b1 0b 11
        E 16 b1 0b 4c
        E 0 81 36 00
        E 0 91 39 4c
        E 16 b1 0b 3b
        E 32 b1 0b 33
        E 32 b1 0b 2a
        E 16 b1 0b 22
        E 16 b1 0b 19
        E 32 b1 0b 4c
        E 0 81 39 00
        E 0 91 2f 4c
        E 16 b1 0b 3b
        E 16 b1 0b 33
        E 32 b1 0b 2a
        E 32 b1 0b 22
        E 16 b1 0b 19
        E 32 b1 0b 4c
        E 0 81 2f 00
        E 0 91 32 4c
        E 16 b1 0b 3b
        E 16 b1 0b 33
        E 32 b1 0b 2a
        E 32 b1 0b 22
        E 16 b1 0b 19
        E 32 b1 0b 4c
        E 0 81 32 00
        E 0 91 38 4c
        E 16 b1 0b 3b
        E 32 b1 0b 33
        E 32 b1 0b 2a
        E 16 b1 0b 22
        E 16 b1 0b 19
        E 32 b1 0b 11
        E 16 b1 0b 4c
        E 0 81 38 00
        E 0 91 2f 4c
        E 16 b1 0b 3b
        E 32 b1 0b 33
        E 32 b1 0b 2a
        E 16 b1 0b 22
        E 16 b1 0b 19
        E 32 b1 0b 4c
        E 0 81 2f 00
        E 0 91 32 4c
        E 16 b1 0b 3b
        E 16 b1 0b 33
        E 32 b1 0b 2a
        E 32 b1 0b 22
        E 16 b1 0b 19
        E 32 b1 0b 4c
        E 0 81 32 00
        E 0 91 39 4c
        E 16 b1 0b 3b
        E 16 b1 0b 33
        E 32 b1 0b 2a
        E 32 b1 0b 22
        E 16 b1 0b 19
        E 32 b1 0b 4c
        E 0 81 39 00
        E 0 91 2f 4c
        E 16 b1 0b 3b
        E 32 b1 0b 33
        E 32 b1 0b 2a
        E 16 b1 0b 22
        E 16 b1 0b 19
        E 32 b1 0b 11
        E 16 b1 0b 4c
        E 0 81 2f 00
        E 0 91 36 4c
        E 16 b1 0b 3b
        E 32 b1 0b 33
        E 32 b1 0b 2a
        E 16 b1 0b 22
        E 16 b1 0b 19
        E 32 b1 0b 4c
        E 0 81 36 00
        E 0 91 38 4c
        E 16 b1 0b 3b
        E 16 b1 0b 33
        E 32 b1 0b 2a
        E 32 b1 0b 22
        E 16 b1 0b 19
        E 32 b1 0b 4c
        E 0 81 38 00
        E 0 91 36 4c
        E 16 b1 0b 3b
        E 16 b1 0b 33
        E 32 b1 0b 2a
        E 32 b1 0b 22
        E 16 b1 0b 19
        E 32 b1 0b 4c
        E 0 81 36 00
        E 0 91 38 4c
        E 16 b1 0b 3b
        E 32 b1 0b 33
        E 32 b1 0b 2a
        E 16 b1 0b 22
        E 16 b1 0b 19
        E 32 b1 0b 11
        E 16 b1 0b 4c
        E 0 81 38 00
        E 0 91 39 4c
        E 16 b1 0b 3b
        E 32 b1 0b 33
        E 32 b1 0b 2a
        E 16 b1 0b 22
        E 16 b1 0b 19
        E 32 b1 0b 11
        E 16 b1 0b 08
        E 16 b1 0b 11
        E 32 b1 0b 08
        E 32 81 39 00
        E 64 b1 0c 20
        E 0 b1 0b 44
        E 0 91 28 44
        E 16 b1 0b 3b
        E 112 b1 0b 33
        E 16 b1 0b 44
        E 0 81 28 00
        E 0 91 26 44
        E 16 b1 0b 3b
        E 112 b1 0b 33
        E 16 b1 0b 44
        E 0 81 26 00
        E 0 91 28 44
        E 16 b1 0b 3b
        E 256 b1 0b 33
        E 16 b1 0b 44
        E 0 81 28 00
        E 0 91 2b 44
        E 16 b1 0b 3b
        E 112 b1 0b 33
        E 16 b1 0b 44
        E 0 81 2b 00
        E 0 91 2a 44
        E 16 b1 0b 3b
        E 112 b1 0b 33
        E 16 b1 0b 44
        E 0 81 2a 00
        E 0 91 2b 44
        E 16 b1 0b 3b
        E 112 b1 0b 33
        E 16 b1 0b 44
        E 0 81 2b 00
        E 0 91 30 44
        E 16 b1 0b 3b
        E 112 b1 0b 33
        E 16 b1 0b 44
        E 0 81 30 00
        E 0 91 2b 44
        E 16 b1 0b 3b
        E 112 b1 0b 33
        E 16 b1 0b 44
        E 0 81 2b 00
        E 0 91 30 44
        E 16 b1 0b 3b
        E 112 b1 0b 33
        E 16 b1 0b 44
        E 0 81 30 00
        E 0 91 34 44
        E 16 b1 0b 3b
        E 256 b1 0b 33
        E 16 b1 0b 44
        E 0 81 34 00
        E 0 91 37 44
        E 16 b1 0b 3b
        E 112 b1 0b 33
        E 16 b1 0b 44
        E 0 81 37 00
        E 0 91 3c 44
        E 16 b1 0b 3b
        E 112 b1 0b 33
        E 16 b1 0b 44
        E 0 81 3c 00
        E 0 91 40 44
        E 16 b1 0b 3b
        E 112 b1 0b 33
        E 16 b1 0b 44
        E 0 81 40 00
        E 0 91 43 44
        E 16 b1 0b 3b
        E 2192 81 43 00
        E 176 b1 0c 60
        E 0 b1 0b 4c
        E 0 91 2f 4c
        E 16 b1 0b 44
        E 48 b1 0b 3b
        E 16 b1 0b 33
        E 16 b1 0b 2a
        E 16 b1 0b 22
        E 16 b1 0b 19
        E 16 b1 0b 11
        E 16 b1 0b 08
        E 16 81 2f 00
        E 112 b1 0b 4c
        E 0 91 2f 4c
        E 16 b1 0b 44
        E 48 b1 0b 3b
        E 16 b1 0b 33
        E 16 b1 0b 2a
        E 16 b1 0b 22
        E 16 b1 0b 19
        E 16 b1 0b 11
        E 16 b1 0b 08
        E 16 81 2f 00
        E 112 b1 0b 4c
        E 0 91 2f 4c
        E 16 b1 0b 44
        E 112 b1 0b 3b
        E 16 b1 0b 4c
        E 0 81 2f 00
        E 0 91 31 4c
        E 16 b1 0b 44
        E 112 b1 0b 3b
        E 16 b1 0b 4c
        E 0 81 31 00
        E 0 91 2d 4c
        E 16 b1 0b 44
        E 112 b1 0b 3b
        E 16 b1 0b 4c
        E 0 81 2d 00
        E 0 91 2f 4c
        E 16 b1 0b 44
        E 48 b1 0b 3b
        E 16 b1 0b 33
        E 16 b1 0b 2a
        E 16 b1 0b 22
        E 16 b1 0b 19
        E 16 b1 0b 4c
        E 16 b1 0b 44
        E 48 b1 0b 3b
        E 16 b1 0b 33
        E 16 b1 0b 2a
        E 16 b1 0b 22
        E 16 b1 0b 19
        E 16 b1 0b 11
        E 16 b1 0b 08
        E 16 81 2f 00
        E 112 b1 0b 4c
        E 0 91 2f 4c
        E 16 b1 0b 44
        E 128 b1 0b 3b
        E 16 b1 0b 33
        E 16 b1 0b 2a
        E 16 b1 0b 22
        E 16 b1 0b 19
        E 16 b1 0b 11
        E 16 b1 0b 08
        E 16 81 2f 00
        E 32 b1 0b 4c
        E 0 91 2f 4c
        E 16 b1 0b 44
        E 96 b1 0b 3b
        E 16 b1 0b 33
        E 16 b1 0b 4c
        E 0 81 2f 00
        E 0 91 34 4c
        E 16 b1 0b 44
        E 96 b1 0b 3b
        E 16 b1 0b 33
        E 16 b1 0b 4c
        E 0 81 34 00
        E 0 91 2f 4c
        E 16 b1 0b 44
        E 96 b1 0b 3b
        E 16 b1 0b 33
        E 16 b1 0b 2a
        E 16 b1 0b 22
        E 16 b1 0b 19
        E 16 b1 0b 11
        E 16 b1 0b 08
        E 16 81 2f 00
        E 64 b1 0b 4c
        E 0 91 2f 4c
        E 16 b1 0b 44
        E 48 b1 0b 3b
        E 16 b1 0b 33
        E 16 b1 0b 2a
        E 16 b1 0b 22
        E 16 b1 0b 19
        E 16 b1 0b 11
        E 16 b1 0b 08
        E 16 81 2f 00
        E 112 b1 0b 4c
        E 0 91 2f 4c
        E 16 b1 0b 44
        E 48 b1 0b 3b
        E 16 b1 0b 33
        E 16 b1 0b 2a
        E 16 b1 0b 22
        E 16 b1 0b 19
        E 16 b1 0b 11
        E 16 b1 0b 08
        E 16 81 2f 00
        E 112 b1 0b 4c
        E 0 91 2f 4c
        E 16 b1 0b 44
        E 112 b1 0b 3b
        E 16 b1 0b 4c
        E 0 81 2f 00
        E 0 91 31 4c
        E 16 b1 0b 44
        E 112 b1 0b 3b
        E 16 b1 0b 4c
        E 0 81 31 00
        E 0 91 2d 4c
        E 16 b1 0b 44
        E 112 b1 0b 3b
        E 16 b1 0b 4c
        E 0 81 2d 00
        E 0 91 2f 4c
        E 16 b1 0b 44
        E 48 b1 0b 3b
        E 16 b1 0b 33
        E 16 b1 0b 2a
        E 16 b1 0b 22
        E 16 b1 0b 19
        E 16 b1 0b 4c
        E 16 b1 0b 44
        E 48 b1 0b 3b
        E 16 b1 0b 33
        E 16 b1 0b 2a
        E 16 b1 0b 22
        E 16 b1 0b 19
        E 16 b1 0b 11
        E 16 b1 0b 08
        E 16 81 2f 00
        E 112 b1 0b 4c
        E 0 91 2f 4c
        E 16 b1 0b 44
        E 128 b1 0b 3b
        E 16 b1 0b 33
        E 16 b1 0b 2a
        E 16 b1 0b 22
        E 16 b1 0b 19
        E 16 b1 0b 11
        E 16 b1 0b 08
        E 16 81 2f 00
        E 32 b1 0b 4c
        E 0 91 2f 4c
        E 16 b1 0b 44
        E 96 b1 0b 3b
        E 16 b1 0b 33
        E 16 b1 0b 4c
        E 0 81 2f 00
        E 0 91 34 4c
        E 16 b1 0b 44
        E 96 b1 0b 3b
        E 16 b1 0b 33
        E 16 b1 0b 4c
        E 0 81 34 00
        E 0 91 2f 4c
        E 16 b1 0b 44
        E 96 b1 0b 3b
        E 16 b1 0b 33
        E 16 b1 0b 2a
        E 16 b1 0b 22
        E 16 b1 0b 19
        E 16 b1 0b 11
        E 16 b1 0b 08
        E 16 81 2f 00
        E 64 b1 0b 4c
        E 0 91 31 4c
        E 16 b1 0b 44
        E 48 b1 0b 3b
        E 16 b1 0b 33
        E 16 b1 0b 2a
        E 16 b1 0b 22
        E 16 b1 0b 19
        E 16 b1 0b 11
        E 16 b1 0b 08
        E 16 81 31 00
        E 112 b1 0b 4c
        E 0 91 31 4c
        E 16 b1 0b 44
        E 48 b1 0b 3b
        E 16 b1 0b 33
        E 16 b1 0b 2a
        E 16 b1 0b 22
        E 16 b1 0b 19
        E 16 b1 0b 11
        E 16 b1 0b 08
        E 16 81 31 00
        E 112 b1 0b 4c
        E 0 91 2f 4c
        E 16 b1 0b 44
        E 96 b1 0b 3b
        E 16 b1 0b 33
        E 16 b1 0b 4c
        E 0 81 2f 00
        E 0 91 34 4c
        E 16 b1 0b 44
        E 96 b1 0b 3b
        E 16 b1 0b 33
        E 16 b1 0b 4c
        E 0 81 34 00
        E 0 91 2f 4c
        E 16 b1 0b 44
        E 96 b1 0b 3b
        E 16 b1 0b 33
        E 16 b1 0b 4c
        E 0 81 2f 00
        E 0 91 31 4c
        E 16 b1 0b 44
        E 96 b1 0b 3b
        E 16 b1 0b 33
        E 16 b1 0b 2a
        E 16 b1 0b 22
        E 16 b1 0b 19
        E 16 b1 0b 11
        E 16 b1 0b 08
        E 16 81 31 00
        E 208 b1 0b 4c
        E 0 91 31 4c
        E 16 b1 0b 44
        E 240 b1 0b 3b
        E 16 b1 0b 33
        E 16 b1 0b 4c
        E 0 81 31 00
        E 0 91 2d 4c
        E 16 b1 0b 44
        E 96 b1 0b 3b
        E 16 b1 0b 33
        E 16 b1 0b 4c
        E 0 81 2d 00
        E 0 91 2f 4c
        E 16 b1 0b 44
        E 96 b1 0b 3b
        E 16 b1 0b 33
        E 16 b1 0b 4c
        E 0 81 2f 00
        E 0 91 31 4c
        E 16 b1 0b 44
        E 96 b1 0b 3b
        E 16 b1 0b 33
        E 16 b1 0b 2a
        E 16 b1 0b 22
        E 16 b1 0b 19
        E 16 b1 0b 11
        E 16 b1 0b 08
        E 16 81 31 00
        E 64 b1 0b 4c
        E 0 91 32 4c
        E 16 b1 0b 44
        E 96 b1 0b 3b
        E 16 b1 0b 33
        E 16 b1 0b 2a
        E 16 b1 0b 22
        E 16 b1 0b 19
        E 16 b1 0b 11
        E 16 b1 0b 08
        E 16 81 32 00
        E 64 b1 0b 4c
        E 0 91 32 4c
        E 16 b1 0b 44
        E 96 b1 0b 3b
        E 16 b1 0b 33
        E 16 b1 0b 2a
        E 16 b1 0b 22
        E 16 b1 0b 19
        E 16 b1 0b 11
        E 16 b1 0b 08
        E 16 81 32 00
        E 64 b1 0b 4c
        E 0 91 32 4c
        E 16 b1 0b 44
        E 96 b1 0b 3b
        E 16 b1 0b 33
        E 16 b1 0b 4c
        E 0 81 32 00
        E 0 91 34 4c
        E 16 b1 0b 44
        E 96 b1 0b 3b
        E 16 b1 0b 33
        E 16 b1 0b 4c
        E 0 81 34 00
        E 0 91 36 4c
        E 16 b1 0b 44
        E 96 b1 0b 3b
        E 16 b1 0b 33
        E 16 b1 0b 4c
        E 0 81 36 00
        E 0 91 2b 4c
        E 16 b1 0b 44
        E 96 b1 0b 3b
        E 16 b1 0b 33
        E 16 b1 0b 2a
        E 16 b1 0b 22
        E 16 b1 0b 19
        E 16 b1 0b 11
        E 16 b1 0b 08
        E 16 81 2b 00
        E 208 b1 0b 4c
        E 0 91 2d 4c
        E 16 b1 0b 44
        E 240 b1 0b 3b
        E 16 b1 0b 33
        E 16 b1 0b 4c
        E 16 b1 0b 44
        E 112 b1 0b 3b
        E 16 b1 0b 33
        E 16 b1 0b 2a
        E 16 b1 0b 22
        E 16 b1 0b 19
        E 16 b1 0b 11
        E 16 b1 0b 08
        E 16 81 2d 00
        E 48 b1 0b 4c
        E 0 91 31 4c
        E 16 b1 0b 44
        E 112 b1 0b 3b
        E 16 b1 0b 33
        E 16 b1 0b 2a
        E 16 b1 0b 22
        E 16 b1 0b 19
        E 16 b1 0b 11
        E 16 b1 0b 08
        E 16 81 31 00
        E 48 b1 0b 4c
        E 0 91 2f 4c
        E 16 b1 0b 44
        E 64 b1 0b 3b
        E 16 b1 0b 33
        E 16 b1 0b 2a
        E 16 b1 0b 22
        E 16 b1 0b 19
        E 16 b1 0b 11
        E 16 b1 0b 08
        E 16 81 2f 00
        E 96 b1 0b 4c
        E 0 91 2f 4c
        E 16 b1 0b 44
        E 64 b1 0b 3b
        E 16 b1 0b 33
        E 16 b1 0b 2a
        E 16 b1 0b 22
        E 16 b1 0b 19
        E 16 b1 0b 11
        E 16 b1 0b 08
        E 16 81 2f 00
        E 96 b1 0b 4c
        E 0 91 2f 4c
        E 16 b1 0b 44
        E 112 b1 0b 3b
        E 16 b1 0b 4c
        E 0 81 2f 00
        E 0 91 31 4c
        E 16 b1 0b 44
        E 112 b1 0b 3b
        E 16 b1 0b 4c
        E 0 81 31 00
        E 0 91 2d 4c
        E 16 b1 0b 44
        E 112 b1 0b 3b
        E 16 b1 0b 4c
        E 0 81 2d 00
        E 0 91 2f 4c
        E 16 b1 0b 44
        E 64 b1 0b 3b
        E 16 b1 0b 33
        E 16 b1 0b 2a
        E 16 b1 0b 22
        E 16 b1 0b 4c
        E 16 b1 0b 44
        E 64 b1 0b 3b
        E 16 b1 0b 33
        E 16 b1 0b 2a
        E 16 b1 0b 22
        E 16 b1 0b 19
        E 16 b1 0b 11
        E 16 b1 0b 08
        E 16 81 2f 00
        E 96 b1 0b 4c
        E 0 91 2f 4c
        E 16 b1 0b 44
        E 128 b1 0b 3b
        E 16 b1 0b 33
        E 16 b1 0b 2a
        E 16 b1 0b 22
        E 16 b1 0b 19
        E 16 b1 0b 11
        E 16 b1 0b 08
        E 16 81 2f 00
        E 32 b1 0b 4c
        E 0 91 2f 4c
        E 16 b1 0b 44
        E 112 b1 0b 3b
        E 16 b1 0b 4c
        E 0 81 2f 00
        E 0 91 34 4c
        E 16 b1 0b 44
        E 112 b1 0b 3b
        E 16 b1 0b 4c
        E 0 81 34 00
        E 0 91 2f 4c
        E 16 b1 0b 44
        E 112 b1 0b 3b
        E 16 b1 0b 33
        E 16 b1 0b 2a
        E 16 b1 0b 22
        E 16 b1 0b 19
        E 16 b1 0b 11
        E 16 b1 0b 08
        E 16 81 2f 00
        E 48 b1 0b 4c
        E 0 91 2f 4c
        E 16 b1 0b 44
        E 64 b1 0b 3b
        E 16 b1 0b 33
        E 16 b1 0b 2a
        E 16 b1 0b 22
        E 16 b1 0b 19
        E 16 b1 0b 11
        E 16 b1 0b 08
        E 16 81 2f 00
        E 96 b1 0b 4c
        E 0 91 2f 4c
        E 16 b1 0b 44
        E 64 b1 0b 3b
        E 16 b1 0b 33
        E 16 b1 0b 2a
        E 16 b1 0b 22
        E 16 b1 0b 19
        E 16 b1 0b 11
        E 16 b1 0b 08
        E 16 81 2f 00
        E 96 b1 0b 4c
        E 0 91 2f 4c
        E 16 b1 0b 44
        E 128 b1 0b 4c
        E 0 81 2f 00
        E 0 91 31 4c
        E 16 b1 0b 44
        E 128 b1 0b 4c
        E 0 81 31 00
        E 0 91 2d 4c
        E 16 b1 0b 44
        E 128 b1 0b 4c
        E 0 81 2d 00
        E 0 91 2f 4c
        E 16 b1 0b 44
        E 64 b1 0b 3b
        E 16 b1 0b 33
        E 16 b1 0b 2a
        E 16 b1 0b 22
        E 16 b1 0b 4c
        E 16 b1 0b 44
        E 64 b1 0b 3b
        E 16 b1 0b 33
        E 16 b1 0b 2a
        E 16 b1 0b 22
        E 16 b1 0b 19
        E 16 b1 0b 11
        E 16 b1 0b 08
        E 16 81 2f 00
        E 96 b1 0b 4c
        E 0 91 2f 4c
        E 16 b1 0b 44
        E 128 b1 0b 3b
        E 16 b1 0b 33
        E 16 b1 0b 2a
        E 16 b1 0b 22
        E 16 b1 0b 19
        E 16 b1 0b 11
        E 16 b1 0b 08
        E 16 81 2f 00
        E 32 b1 0b 4c
        E 0 91 2f 4c
        E 16 b1 0b 44
        E 112 b1 0b 3b
        E 16 b1 0b 4c
        E 0 81 2f 00
        E 0 91 34 4c
        E 16 b1 0b 44
        E 112 b1 0b 3b
        E 16 b1 0b 4c
        E 0 81 34 00
        E 0 91 2f 4c
        E 16 b1 0b 44
        E 112 b1 0b 3b
        E 16 b1 0b 33
        E 16 b1 0b 2a
        E 16 b1 0b 22
        E 16 b1 0b 19
        E 16 b1 0b 11
        E 16 b1 0b 08
        E 16 81 2f 00
        E 48 b1 0b 4c
        E 0 91 31 4c
        E 16 b1 0b 44
        E 64 b1 0b 3b
        E 16 b1 0b 33
        E 16 b1 0b 2a
        E 16 b1 0b 22
        E 16 b1 0b 19
        E 16 b1 0b 11
        E 16 b1 0b 08
        E 16 81 31 00
        E 96 b1 0b 4c
        E 0 91 31 4c
        E 16 b1 0b 44
        E 64 b1 0b 3b
        E 16 b1 0b 33
        E 16 b1 0b 2a
        E 16 b1 0b 22
        E 16 b1 0b 19
        E 16 b1 0b 11
        E 16 b1 0b 08
        E 16 81 31 00
        E 96 b1 0b 4c
        E 0 91 2f 4c
        E 16 b1 0b 44
        E 112 b1 0b 3b
        E 16 b1 0b 4c
        E 0 81 2f 00
        E 0 91 34 4c
        E 16 b1 0b 44
        E 112 b1 0b 3b
        E 16 b1 0b 4c
        E 0 81 34 00
        E 0 91 2f 4c
        E 16 b1 0b 44
        E 112 b1 0b 3b
        E 16 b1 0b 4c
        E 0 81 2f 00
        E 0 91 31 4c
        E 16 b1 0b 44
        E 112 b1 0b 3b
        E 16 b1 0b 33
        E 16 b1 0b 2a
        E 16 b1 0b 22
        E 16 b1 0b 19
        E 16 b1 0b 11
        E 16 b1 0b 08
        E 16 81 31 00
        E 192 b1 0b 4c
        E 0 91 31 4c
        E 16 b1 0b 44
        E 240 b1 0b 3b
        E 16 b1 0b 33
        E 16 b1 0b 4c
        E 0 81 31 00
        E 0 91 2d 4c
        E 16 b1 0b 44
        E 112 b1 0b 3b
        E 16 b1 0b 4c
        E 0 81 2d 00
        E 0 91 2f 4c
        E 16 b1 0b 44
        E 112 b1 0b 3b
        E 16 b1 0b 4c
        E 0 81 2f 00
        E 0 91 31 4c
        E 16 b1 0b 44
        E 112 b1 0b 3b
        E 16 b1 0b 33
        E 16 b1 0b 2a
        E 16 b1 0b 22
        E 16 b1 0b 19
        E 16 b1 0b 11
        E 16 b1 0b 08
        E 16 81 31 00
        E 48 b1 0b 4c
        E 0 91 32 4c
        E 16 b1 0b 44
        E 112 b1 0b 3b
        E 16 b1 0b 33
        E 16 b1 0b 2a
        E 16 b1 0b 22
        E 16 b1 0b 19
        E 16 b1 0b 11
        E 16 b1 0b 08
        E 16 81 32 00
        E 64 b1 0b 4c
        E 0 91 32 4c
        E 16 b1 0b 44
        E 96 b1 0b 3b
        E 16 b1 0b 33
        E 16 b1 0b 2a
        E 16 b1 0b 22
        E 16 b1 0b 19
        E 16 b1 0b 11
        E 16 b1 0b 08
        E 16 81 32 00
        E 64 b1 0b 4c
        E 0 91 32 4c
        E 16 b1 0b 44
        E 96 b1 0b 3b
        E 16 b1 0b 33
        E 16 b1 0b 4c
        E 0 81 32 00
        E 0 91 34 4c
        E 16 b1 0b 44
        E 96 b1 0b 3b
        E 16 b1 0b 33
        E 16 b1 0b 4c
        E 0 81 34 00
        E 0 91 36 4c
        E 16 b1 0b 44
        E 96 b1 0b 3b
        E 16 b1 0b 33
        E 16 b1 0b 4c
        E 0 81 36 00
        E 0 91 2b 4c
        E 16 b1 0b 44
        E 96 b1 0b 3b
        E 16 b1 0b 33
        E 16 b1 0b 2a
        E 16 b1 0b 22
        E 16 b1 0b 19
        E 16 b1 0b 11
        E 16 b1 0b 08
        E 16 81 2b 00
        E 208 b1 0b 4c
        E 0 91 2d 4c
        E 16 b1 0b 44
        E 224 b1 0b 3b
        E 16 b1 0b 33
        E 16 b1 0b 2a
        E 16 b1 0b 4c
        E 16 b1 0b 44
        E 96 b1 0b 3b
        E 16 b1 0b 33
        E 16 b1 0b 2a
        E 16 b1 0b 22
        E 16 b1 0b 19
        E 16 b1 0b 11
        E 16 b1 0b 08
        E 16 81 2d 00
        E 64 b1 0b 4c
        E 0 91 31 4c
        E 16 b1 0b 44
        E 96 b1 0b 3b
        E 16 b1 0b 33
        E 16 b1 0b 4c
        E 0 81 31 00
        E 0 91 2f 4c
        E 16 b1 0b 44
        E 512 b1 0b 3b
        E 16 b1 0b 33
        E 16 b1 0b 2a
        E 16 b1 0b 4c
        E 16 b1 0b 44
        E 512 b1 0b 3b
        E 16 b1 0b 33
        E 16 b1 0b 2a
        E 16 b1 0b 4c
        E 16 b1 0b 44
        E 512 b1 0b 3b
        E 16 b1 0b 33
        E 16 b1 0b 2a
        E 16 b1 0b 4c
        E 16 b1 0b 44
        E 528 b1 0b 3b
        E 16 b1 0b 33
        E 16 b1 0b 4c
        E 16 b1 0b 44
        E 528 b1 0b 3b
        E 16 b1 0b 33
        E 16 b1 0b 4c
        E 16 b1 0b 44
        E 528 b1 0b 3b
        E 16 b1 0b 33
        E 16 b1 0b 2a
        E 16 b1 0b 22
        E 16 b1 0b 19
        E 16 b1 0b 11
        E 16 b1 0b 08
        E 16 81 2f 00
        E 64 b1 0b 4c
        E 0 91 1e 4c
        E 16 b1 0b 44
        E 112 b1 0b 3b
        E 16 b1 0b 4c
        E 0 81 1e 00
        E 0 91 23 4c
        E 16 b1 0b 44
        E 112 b1 0b 3b
        E 16 b1 0b 4c
        E 0 81 23 00
        E 0 91 2a 4c
        E 16 b1 0b 44
        E 384 b1 0b 3b
        E 16 b1 0b 33
        E 16 b1 0c 40
        E 0 b1 0b 4c
        E 16 b1 0b 44
        E 16 b1 0b 4c
        E 0 81 2a 00
        E 0 91 2c 4c
        E 16 b1 0b 44
        E 16 b1 0b 4c
        E 0 81 2c 00
        E 0 91 2d 4c
        E 16 b1 0b 44
        E 16 b1 0b 3b
        E 16 b1 0b 4c
        E 0 81 2d 00
        E 0 91 2f 4c
        E 16 b1 0b 44
        E 16 b1 0b 4c
        E 0 81 2f 00
        E 0 91 31 4c
        E 16 b1 0b 44
        E 16 b1 0b 4c
        E 0 81 31 00
        E 0 91 32 4c
        E 16 b1 0b 44
        E 16 b1 0b 4c
        E 0 81 32 00
        E 0 91 34 4c
        E 16 b1 0b 44
        E 16 b1 0b 3b
        E 16 b1 0b 4c
        E 0 81 34 00
        E 0 91 36 4c
        E 16 b1 0b 44
        E 16 b1 0b 3b
        E 16 b1 0b 33
        E 16 b1 0b 2a
        E 16 b1 0b 22
        E 16 b1 0b 19
        E 16 b1 0b 11
        E 16 b1 0b 08
        E 16 81 36 00
        E 32 b1 0c 60
        E 0 b1 0b 4c
        E 0 91 2f 4c
        E 16 b1 0b 44
        E 48 81 2f 00
        E 176 b1 0b 3b
        E 0 91 34 3b
        E 16 b1 0b 22
        E 16 b1 0b 08
        E 16 b1 0b 11
        E 16 b1 0b 33
        E 16 b1 0b 22
        E 16 b1 0b 19
        E 16 81 34 00
        E 16 b1 0b 08
        E 0 91 34 08
        E 16 81 34 00
        E 16 b1 0b 3b
        E 0 91 39 3b
        E 16 b1 0b 22
        E 16 b1 0b 08
        E 16 b1 0b 11
        E 16 b1 0b 22
        E 16 b1 0b 19
        E 16 b1 0b 11
        E 16 81 39 00
        E 32 b1 0b 3b
        E 0 91 3e 3b
        E 16 b1 0b 22
        E 16 b1 0b 08
        E 16 b1 0b 11
        E 16 b1 0b 33
        E 16 b1 0b 22
        E 16 b1 0b 19
        E 16 81 3e 00
        E 16 b1 0b 08
        E 0 91 3e 08
        E 16 81 3e 00
        E 16 b1 0b 3b
        E 0 91 47 3b
        E 16 b1 0b 22
        E 16 b1 0b 08
        E 16 b1 0b 11
        E 16 b1 0b 22
        E 16 b1 0b 19
        E 16 b1 0b 11
        E 16 81 47 00
        E 32 b1 0b 3b
        E 0 91 39 3b
        E 16 b1 0b 22
        E 16 b1 0b 08
        E 16 b1 0b 11
        E 16 b1 0b 33
        E 16 b1 0b 22
        E 16 b1 0b 19
        E 16 81 39 00
        E 16 b1 0b 08
        E 0 91 39 08
        E 16 81 39 00
        E 16 b1 0b 3b
        E 0 91 45 3b
        E 16 b1 0b 22
        E 16 b1 0b 08
        E 16 b1 0b 11
        E 16 b1 0b 22
        E 16 b1 0b 19
        E 16 b1 0b 11
        E 16 81 45 00
        E 32 b1 0b 3b
        E 0 91 3b 3b
        E 16 b1 0b 22
        E 16 b1 0b 08
        E 16 b1 0b 11
        E 16 b1 0b 33
        E 16 b1 0b 22
        E 16 b1 0b 19
        E 16 81 3b 00
        E 16 b1 0b 08
        E 0 91 3b 08
        E 16 81 3b 00
        E 16 b1 0b 3b
        E 0 91 3e 3b
        E 16 b1 0b 22
        E 16 b1 0b 08
        E 16 b1 0b 11
        E 16 b1 0b 22
        E 16 b1 0b 19
        E 16 b1 0b 11
        E 16 81 3e 00
        E 32 b1 0b 3b
        E 0 91 39 3b
        E 16 b1 0b 22
        E 16 b1 0b 08
        E 16 b1 0b 11
        E 16 b1 0b 33
        E 16 b1 0b 22
        E 16 b1 0b 19
        E 16 81 39 00
        E 16 b1 0b 08
        E 0 91 39 08
        E 16 81 39 00
        E 16 b1 0b 3b
        E 0 91 40 3b
        E 16 b1 0b 22
        E 16 b1 0b 08
        E 16 b1 0b 11
        E 16 b1 0b 22
        E 16 b1 0b 19
        E 16 b1 0b 11
        E 16 81 40 00
        E 32 b1 0b 3b
        E 0 91 34 3b
        E 16 b1 0b 22
        E 16 b1 0b 08
        E 16 b1 0b 11
        E 16 b1 0b 33
        E 16 b1 0b 22
        E 16 b1 0b 19
        E 16 81 34 00
        E 16 b1 0b 08
        E 0 91 34 08
        E 16 81 34 00
        E 16 b1 0b 3b
        E 0 91 39 3b
        E 16 b1 0b 22
        E 16 b1 0b 08
        E 16 b1 0b 11
        E 16 b1 0b 22
        E 16 b1 0b 19
        E 16 b1 0b 11
        E 16 81 39 00
        E 32 b1 0b 3b
        E 0 91 34 3b
        E 16 b1 0b 22
        E 16 b1 0b 08
        E 16 b1 0b 11
        E 16 b1 0b 33
        E 16 b1 0b 22
        E 16 b1 0b 19
        E 16 81 34 00
        E 16 b1 0b 08
        E 0 91 34 08
        E 16 81 34 00
        E 16 b1 0b 3b
        E 0 91 3b 3b
        E 16 b1 0b 22
        E 16 b1 0b 08
        E 16 b1 0b 11
        E 16 b1 0b 22
        E 16 b1 0b 19
        E 16 b1 0b 11
        E 16 81 3b 00
        E 32 b1 0b 3b
        E 0 91 34 3b
        E 16 b1 0b 22
        E 16 b1 0b 08
        E 16 b1 0b 11
        E 16 b1 0b 33
        E 16 b1 0b 22
        E 16 b1 0b 19
        E 16 81 34 00
        E 16 b1 0b 08
        E 0 91 34 08
        E 16 81 34 00
        E 160 b1 0b 3b
        E 0 91 36 3b
        E 16 b1 0b 22
        E 16 b1 0b 08
        E 16 b1 0b 11
        E 16 b1 0b 33
        E 16 b1 0b 22
        E 16 b1 0b 19
        E 16 81 36 00
        E 16 b1 0b 08
        E 0 91 36 08
        E 16 81 36 00
        E 16 b1 0b 3b
        E 0 91 39 3b
        E 16 b1 0b 22
        E 16 b1 0b 08
        E 16 b1 0b 11
        E 16 b1 0b 22
        E 16 b1 0b 19
        E 16 b1 0b 11
        E 16 81 39 00
        E 32 b1 0b 3b
        E 0 91 3e 3b
        E 16 b1 0b 22
        E 16 b1 0b 08
        E 16 b1 0b 11
        E 16 b1 0b 33
        E 16 b1 0b 22
        E 16 b1 0b 19
        E 16 81 3e 00
        E 16 b1 0b 08
        E 0 91 3e 08
        E 16 81 3e 00
        E 16 b1 0b 3b
        E 0 91 47 3b
        E 16 b1 0b 22
        E 16 b1 0b 08
        E 16 b1 0b 11
        E 16 b1 0b 22
        E 16 b1 0b 19
        E 16 b1 0b 11
        E 16 81 47 00
        E 32 b1 0b 3b
        E 0 91 39 3b
        E 16 b1 0b 22
        E 16 b1 0b 08
        E 16 b1 0b 11
        E 16 b1 0b 33
        E 16 b1 0b 22
        E 16 b1 0b 19
        E 16 81 39 00
        E 16 b1 0b 08
        E 0 91 39 08
        E 16 81 39 00
        E 16 b1 0b 3b
        E 0 91 45 3b
        E 16 b1 0b 22
        E 16 b1 0b 08
        E 16 b1 0b 11
        E 16 b1 0b 22
        E 16 b1 0b 19
        E 16 b1 0b 11
        E 16 81 45 00
        E 32 b1 0b 3b
        E 0 91 39 3b
        E 16 b1 0b 22
        E 16 b1 0b 08
        E 16 b1 0b 11
        E 16 b1 0b 33
        E 16 b1 0b 22
        E 16 b1 0b 19
        E 16 81 39 00
        E 16 b1 0b 08
        E 0 91 39 08
        E 16 81 39 00
        E 16 b1 0b 3b
        E 0 91 3e 3b
        E 16 b1 0b 22
        E 16 b1 0b 08
        E 16 b1 0b 11
        E 16 b1 0b 33
        E 16 b1 0b 22
        E 16 b1 0b 19
        E 16 81 3e 00
        E 16 b1 0b 08
        E 0 91 3e 08
        E 16 b1 0b 3b
        E 0 81 3e 00
        E 0 91 39 3b
        E 16 b1 0b 22
        E 16 b1 0b 08
        E 16 b1 0b 11
        E 16 b1 0b 33
        E 16 b1 0b 22
        E 16 b1 0b 19
        E 16 81 39 00
        E 16 b1 0b 08
        E 0 91 39 08
        E 16 81 39 00
        E 16 b1 0b 3b
        E 0 91 40 3b
        E 16 b1 0b 22
        E 16 b1 0b 08
        E 16 b1 0b 11
        E 16 b1 0b 33
        E 16 b1 0b 22
        E 16 b1 0b 19
        E 16 81 40 00
        E 16 b1 0b 08
        E 0 91 40 08
        E 16 b1 0b 3b
        E 0 81 40 00
        E 0 91 36 3b
        E 16 b1 0b 22
        E 16 b1 0b 08
        E 16 b1 0b 11
        E 16 b1 0b 33
        E 16 b1 0b 22
        E 16 b1 0b 19
        E 16 81 36 00
        E 16 b1 0b 08
        E 0 91 36 08
        E 16 81 36 00
        E 16 b1 0b 3b
        E 0 91 39 3b
        E 16 b1 0b 22
        E 16 b1 0b 08
        E 16 b1 0b 11
        E 16 b1 0b 33
        E 16 b1 0b 22
        E 16 b1 0b 19
        E 16 81 39 00
        E 16 b1 0b 08
        E 0 91 39 08
        E 16 b1 0b 3b
        E 0 81 39 00
        E 0 91 36 3b
        E 16 b1 0b 22
        E 16 b1 0b 08
        E 16 b1 0b 11
        E 16 b1 0b 33
        E 16 b1 0b 22
        E 16 b1 0b 19
        E 16 81 36 00
        E 16 b1 0b 08
        E 0 91 36 08
        E 16 81 36 00
        E 16 b1 0b 3b
        E 0 91 3b 3b
        E 16 b1 0b 22
        E 16 b1 0b 08
        E 16 b1 0b 11
        E 16 b1 0b 33
        E 16 b1 0b 22
        E 16 b1 0b 19
        E 16 81 3b 00
        E 16 b1 0b 08
        E 0 91 3b 08
        E 16 b1 0b 3b
        E 0 81 3b 00
        E 0 91 36 3b
        E 16 b1 0b 22
        E 16 b1 0b 08
        E 16 b1 0b 11
        E 16 b1 0b 33
        E 16 b1 0b 22
        E 16 b1 0b 19
        E 16 81 36 00
        E 16 b1 0b 08
        E 0 91 36 08
        E 16 81 36 00
        E 160 b1 0b 3b
        E 0 91 34 3b
        E 16 b1 0b 22
        E 16 b1 0b 08
        E 16 b1 0b 11
        E 16 b1 0b 33
        E 16 b1 0b 22
        E 16 b1 0b 19
        E 16 81 34 00
        E 16 b1 0b 08
        E 0 91 34 08
        E 16 81 34 00
        E 16 b1 0b 3b
        E 0 91 39 3b
        E 16 b1 0b 22
        E 16 b1 0b 08
        E 16 b1 0b 11
        E 16 b1 0b 33
        E 16 b1 0b 22
        E 16 b1 0b 19
        E 16 81 39 00
        E 16 b1 0b 08
        E 0 91 39 08
        E 16 b1 0b 3b
        E 0 81 39 00
        E 0 91 3e 3b
        E 16 b1 0b 22
        E 16 b1 0b 08
        E 16 b1 0b 11
        E 16 b1 0b 33
        E 16 b1 0b 22
        E 16 b1 0b 19
        E 16 81 3e 00
        E 16 b1 0b 08
        E 0 91 3e 08
        E 16 81 3e 00
        E 16 b1 0b 3b
        E 0 91 47 3b
        E 16 b1 0b 22
        E 16 b1 0b 08
        E 16 b1 0b 11
        E 16 b1 0b 33
        E 16 b1 0b 22
        E 16 b1 0b 19
        E 16 81 47 00
        E 16 b1 0b 08
        E 0 91 47 08
        E 16 b1 0b 3b
        E 0 81 47 00
        E 0 91 39 3b
        E 16 b1 0b 22
        E 16 b1 0b 08
        E 16 b1 0b 11
        E 16 b1 0b 33
        E 16 b1 0b 22
        E 16 b1 0b 19
        E 16 81 39 00
        E 16 b1 0b 08
        E 0 91 39 08
        E 16 81 39 00
        E 16 b1 0b 3b
        E 0 91 45 3b
        E 16 b1 0b 22
        E 16 b1 0b 08
        E 16 b1 0b 11
        E 16 b1 0b 33
        E 16 b1 0b 22
        E 16 b1 0b 19
        E 16 81 45 00
        E 16 b1 0b 08
        E 0 91 45 08
        E 16 b1 0b 3b
        E 0 81 45 00
        E 0 91 3b 3b
        E 16 b1 0b 22
        E 16 b1 0b 08
        E 16 b1 0b 11
        E 16 b1 0b 33
        E 16 b1 0b 22
        E 16 b1 0b 19
        E 16 81 3b 00
        E 16 b1 0b 08
        E 0 91 3b 08
        E 16 81 3b 00
        E 16 b1 0b 3b
        E 0 91 3e 3b
        E 16 b1 0b 22
        E 16 b1 0b 08
        E 16 b1 0b 11
        E 16 b1 0b 33
        E 16 b1 0b 22
        E 16 b1 0b 19
        E 16 81 3e 00
        E 16 b1 0b 08
        E 0 91 3e 08
        E 16 b1 0b 3b
        E 0 81 3e 00
        E 0 91 39 3b
        E 16 b1 0b 22
        E 16 b1 0b 08
        E 16 b1 0b 11
        E 16 b1 0b 33
        E 16 b1 0b 22
        E 16 b1 0b 19
        E 16 81 39 00
        E 16 b1 0b 08
        E 0 91 39 08
        E 16 81 39 00
        E 16 b1 0b 3b
        E 0 91 40 3b
        E 16 b1 0b 22
        E 16 b1 0b 08
        E 16 b1 0b 11
        E 16 b1 0b 33
        E 16 b1 0b 22
        E 16 b1 0b 19
        E 16 81 40 00
        E 16 b1 0b 08
        E 0 91 40 08
        E 16 b1 0b 3b
        E 0 81 40 00
        E 0 91 34 3b
        E 16 b1 0b 22
        E 16 b1 0b 08
        E 16 b1 0b 11
        E 16 b1 0b 33
        E 16 b1 0b 22
        E 16 b1 0b 19
        E 16 81 34 00
        E 16 b1 0b 08
        E 0 91 34 08
        E 16 81 34 00
        E 16 b1 0b 3b
        E 0 91 39 3b
        E 16 b1 0b 22
        E 16 b1 0b 08
        E 16 b1 0b 11
        E 16 b1 0b 33
        E 16 b1 0b 22
        E 16 b1 0b 19
        E 16 81 39 00
        E 16 b1 0b 08
        E 0 91 39 08
        E 16 b1 0b 3b
        E 0 81 39 00
        E 0 91 34 3b
        E 16 b1 0b 22
        E 16 b1 0b 08
        E 16 b1 0b 11
        E 16 b1 0b 33
        E 16 b1 0b 22
        E 16 b1 0b 19
        E 16 81 34 00
        E 16 b1 0b 08
        E 0 91 34 08
        E 16 81 34 00
        E 16 b1 0b 3b
        E 0 91 3b 3b
        E 16 b1 0b 22
        E 16 b1 0b 08
        E 16 b1 0b 11
        E 16 b1 0b 33
        E 16 b1 0b 22
        E 16 b1 0b 19
        E 16 81 3b 00
        E 16 b1 0b 08
        E 0 91 3b 08
        E 16 81 3b 00
        E 16 b1 0b 3b
        E 0 91 34 3b
        E 16 b1 0b 22
        E 16 b1 0b 08
        E 16 b1 0b 11
        E 16 b1 0b 22
        E 16 b1 0b 19
        E 16 b1 0b 11
        E 16 81 34 00
        E 192 b1 0b 3b
        E 0 91 39 3b
        E 16 b1 0b 22
        E 16 b1 0b 08
        E 16 b1 0b 11
        E 16 b1 0b 22
        E 16 b1 0b 19
        E 16 b1 0b 11
        E 16 81 39 00
        E 32 b1 0b 3b
        E 0 91 3d 3b
        E 16 b1 0b 22
        E 16 b1 0b 08
        E 16 b1 0b 11
        E 16 b1 0b 33
        E 16 b1 0b 22
        E 16 b1 0b 19
        E 16 81 3d 00
        E 16 b1 0b 08
        E 0 91 3d 08
        E 16 81 3d 00
        E 32 b1 0b 3b
        E 0 91 1a 3b
        E 16 b1 0b 7f
        E 0 81 1a 00
        E 0 91 15 7f
        E 16 b1 0b 6e
        E 0 81 15 00
        E 0 91 27 6e
        E 16 b1 0b 66
        E 0 81 27 00
        E 0 91 19 66
        E 16 b1 0b 55
        E 0 81 19 00
        E 0 91 21 55
        E 16 b1 0b 4c
        E 0 81 21 00
        E 0 91 29 4c
        E 16 81 29 00
        E 32 b1 0b 3b
        E 0 91 47 3b
        E 16 b1 0b 22
        E 16 b1 0b 08
        E 16 b1 0b 11
        E 16 b1 0b 33
        E 16 b1 0b 22
        E 16 b1 0b 19
        E 16 81 47 00
        E 16 b1 0b 08
        E 0 91 47 08
        E 16 81 47 00
        E 16 b1 0b 3b
        E 0 91 39 3b
        E 16 b1 0b 22
        E 16 b1 0b 08
        E 16 b1 0b 11
        E 16 81 39 00
        E 16 b1 0b 3b
        E 0 91 1a 3b
        E 16 b1 0b 7f
        E 0 81 1a 00
        E 0 91 15 7f
        E 16 b1 0b 6e
        E 0 81 15 00
        E 0 91 27 6e
        E 16 b1 0b 66
        E 0 81 27 00
        E 0 91 19 66
        E 16 b1 0b 55
        E 0 81 19 00
        E 0 91 21 55
        E 16 b1 0b 4c
        E 0 81 21 00
        E 0 91 29 4c
        E 16 b1 0b 08
        E 0 81 29 00
        E 0 91 45 08
        E 16 b1 0b 11
        E 16 b1 0b 33
        E 16 b1 0b 22
        E 16 b1 0b 19
        E 16 81 45 00
        E 16 b1 0b 08
        E 0 91 45 08
        E 16 81 45 00
        E 16 b1 0b 3b
        E 0 91 3b 3b
        E 16 b1 0b 22
        E 16 b1 0b 08
        E 16 b1 0b 11
        E 16 b1 0b 22
        E 16 b1 0b 19
        E 16 b1 0b 11
        E 16 81 3b 00
        E 48 b1 0b 3b
        E 0 91 1a 3b
        E 16 b1 0b 7f
        E 0 81 1a 00
        E 0 91 15 7f
        E 16 b1 0b 6e
        E 0 81 15 00
        E 0 91 27 6e
        E 16 b1 0b 66
        E 0 81 27 00
        E 0 91 19 66
        E 16 b1 0b 55
        E 0 81 19 00
        E 0 91 21 55
        E 16 b1 0b 4c
        E 0 81 21 00
        E 0 91 29 4c
        E 16 81 29 00
        E 16 b1 0b 08
        E 0 91 3d 08
        E 16 81 3d 00
        E 16 b1 0b 3b
        E 0 91 34 3b
        E 16 b1 0b 22
        E 16 b1 0b 08
        E 16 b1 0b 11
        E 16 b1 0b 22
        E 16 b1 0b 19
        E 16 b1 0b 11
        E 16 81 34 00
        E 32 b1 0b 3b
        E 0 91 40 3b
        E 16 b1 0b 22
        E 16 b1 0b 08
        E 16 b1 0b 11
        E 16 b1 0b 33
        E 16 81 40 00
        E 16 b1 0b 3b
        E 0 91 1a 3b
        E 16 b1 0b 7f
        E 0 81 1a 00
        E 0 91 15 7f
        E 16 b1 0b 6e
        E 0 81 15 00
        E 0 91 27 6e
        E 16 b1 0b 66
        E 0 81 27 00
        E 0 91 19 66
        E 16 b1 0b 55
        E 0 81 19 00
        E 0 91 21 55
        E 16 b1 0b 4c
        E 0 81 21 00
        E 0 91 29 4c
        E 16 b1 0b 08
        E 0 81 29 00
        E 0 91 34 08
        E 16 b1 0b 11
        E 16 b1 0b 22
        E 16 b1 0b 19
        E 16 b1 0b 11
        E 16 81 34 00
        E 32 b1 0b 3b
        E 0 91 39 3b
        E 16 b1 0b 22
        E 16 b1 0b 08
        E 16 b1 0b 11
        E 16 b1 0b 33
        E 16 b1 0b 22
        E 16 b1 0b 19
        E 16 81 39 00
        E 16 b1 0b 08
        E 0 91 39 08
        E 16 81 39 00
        E 32 b1 0b 3b
        E 0 91 1a 3b
        E 16 b1 0b 7f
        E 0 81 1a 00
        E 0 91 15 7f
        E 16 b1 0b 6e
        E 0 81 15 00
        E 0 91 27 6e
        E 16 b1 0b 66
        E 0 81 27 00
        E 0 91 19 66
        E 16 b1 0b 55
        E 0 81 19 00
        E 0 91 21 55
        E 16 b1 0b 4c
        E 0 81 21 00
        E 0 91 29 4c
        E 16 81 29 00
        E 32 b1 0b 3b
        E 0 91 3d 3b
        E 16 b1 0b 22
        E 16 b1 0b 08
        E 16 b1 0b 11
        E 16 b1 0b 33
        E 16 b1 0b 22
        E 16 b1 0b 19
        E 16 81 3d 00
        E 16 b1 0b 08
        E 0 91 3d 08
        E 16 81 3d 00
        E 16 b1 0b 3b
        E 0 91 34 3b
        E 16 b1 0b 22
        E 16 b1 0b 08
        E 16 b1 0b 11
        E 16 b1 0b 22
        E 16 81 34 00
        E 16 b1 0b 3b
        E 0 91 1a 3b
        E 16 b1 0b 7f
        E 0 81 1a 00
        E 0 91 15 7f
        E 16 b1 0b 6e
        E 0 81 15 00
        E 0 91 27 6e
        E 16 b1 0b 66
        E 0 81 27 00
        E 0 91 19 66
        E 16 b1 0b 55
        E 0 81 19 00
        E 0 91 21 55
        E 16 b1 0b 4c
        E 0 81 21 00
        E 0 91 29 4c
        E 16 b1 0b 33
        E 0 81 29 00
        E 0 91 2b 33
        E 16 b1 0b 2a
        E 16 b1 0b 3b
        E 0 81 2b 00
        E 0 91 2f 3b
        E 16 b1 0b 33
        E 48 b1 0b 2a
        E 16 b1 0b 3b
        E 0 81 2f 00
        E 0 91 30 3b
        E 16 b1 0b 33
        E 48 b1 0b 3b
        E 0 81 30 00
        E 0 91 34 3b
        E 16 b1 0b 33
        E 48 b1 0b 2a
        E 16 b1 0b 3b
        E 0 81 34 00
        E 0 91 37 3b
        E 16 81 37 00
        E 16 91 1a 3b
        E 16 b1 0b 7f
        E 0 81 1a 00
        E 0 91 15 7f
        E 16 b1 0b 6e
        E 0 81 15 00
        E 0 91 27 6e
        E 16 b1 0b 66
        E 0 81 27 00
        E 0 91 19 66
        E 16 b1 0b 55
        E 0 81 19 00
        E 0 91 21 55
        E 16 b1 0b 4c
        E 0 81 21 00
        E 0 91 29 4c
        E 16 b1 0b 33
        E 0 81 29 00
        E 0 91 3b 33
        E 16 b1 0b 2a
        E 16 b1 0b 3b
        E 0 81 3b 00
        E 0 91 3c 3b
        E 16 b1 0b 33
        E 48 b1 0b 3b
        E 0 81 3c 00
        E 0 91 40 3b
        E 16 b1 0b 33
        E 48 b1 0b 2a
        E 16 b1 0b 3b
        E 0 81 40 00
        E 0 91 43 3b
        E 16 b1 0b 33
        E 80 81 43 00
        E 16 b1 0b 3b
        E 0 91 1a 3b
        E 16 b1 0b 7f
        E 0 81 1a 00
        E 0 91 15 7f
        E 16 b1 0b 6e
        E 0 81 15 00
        E 0 91 27 6e
        E 16 b1 0b 66
        E 0 81 27 00
        E 0 91 19 66
        E 16 b1 0b 55
        E 0 81 19 00
        E 0 91 21 55
        E 16 b1 0b 4c
        E 0 81 21 00
        E 0 91 29 4c
        E 16 b1 0b 33
        E 0 81 29 00
        E 0 91 40 33
        E 80 b1 0b 2a
        E 16 b1 0b 3b
        E 0 81 40 00
        E 0 91 42 3b
        E 16 b1 0b 33
        E 736 b1 0b 2a
        E 16 b1 0b 3b
        E 0 81 42 00
        E 0 91 3e 3b
        E 16 b1 0b 33
        E 272 b1 0b 2a
        E 16 b1 0b 3b
        E 0 81 3e 00
        E 0 91 2d 3b
        E 16 b1 0b 33
        E 48 b1 0b 2a
        E 16 b1 0b 3b
        E 0 81 2d 00
        E 0 91 32 3b
        E 16 b1 0b 33
        E 48 b1 0b 3b
        E 0 81 32 00
        E 0 91 36 3b
        E 16 b1 0b 33
        E 48 b1 0b 2a
        E 16 b1 0b 3b
        E 0 81 36 00
        E 0 91 39 3b
        E 16 b1 0b 33
        E 48 b1 0b 2a
        E 16 b1 0b 3b
        E 0 81 39 00
        E 0 91 36 3b
        E 16 b1 0b 33
        E 48 b1 0b 2a
        E 16 b1 0b 3b
        E 0 81 36 00
        E 0 91 32 3b
        E 16 b1 0b 33
        E 48 b1 0b 3b
        E 0 81 32 00
        E 0 91 2b 3b
        E 16 b1 0b 33
        E 48 b1 0b 2a
        E 16 b1 0b 3b
        E 0 81 2b 00
        E 0 91 2f 3b
        E 16 b1 0b 33
        E 48 b1 0b 2a
        E 16 b1 0b 3b
        E 0 81 2f 00
        E 0 91 30 3b
        E 16 b1 0b 33
        E 48 b1 0b 2a
        E 16 b1 0b 3b
        E 0 81 30 00
        E 0 91 34 3b
        E 16 b1 0b 33
        E 48 b1 0b 3b
        E 0 81 34 00
        E 0 91 37 3b
        E 16 b1 0b 33
        E 48 b1 0b 2a
        E 16 b1 0b 3b
        E 0 81 37 00
        E 0 91 3b 3b
        E 16 b1 0b 33
        E 48 b1 0b 2a
        E 16 b1 0b 3b
        E 0 81 3b 00
        E 0 91 3c 3b
        E 16 b1 0b 33
        E 48 b1 0b 2a
        E 16 b1 0b 3b
        E 0 81 3c 00
        E 0 91 40 3b
        E 16 b1 0b 33
        E 48 b1 0b 3b
        E 0 81 40 00
        E 0 91 43 3b
        E 16 b1 0b 33
        E 128 b1 0b 2a
        E 16 b1 0b 3b
        E 0 81 43 00
        E 0 91 40 3b
        E 16 b1 0b 33
        E 128 b1 0b 3b
        E 0 81 40 00
        E 0 91 42 3b
        E 16 b1 0b 33
        E 736 b1 0b 2a
        E 16 b1 0b 3b
        E 0 81 42 00
        E 0 91 3e 3b
        E 16 b1 0b 33
        E 272 b1 0b 2a
        E 16 b1 0b 3b
        E 0 81 3e 00
        E 0 91 2d 3b
        E 16 b1 0b 33
        E 48 b1 0b 2a
        E 16 b1 0b 3b
        E 0 81 2d 00
        E 0 91 32 3b
        E 16 b1 0b 33
        E 48 b1 0b 2a
        E 16 b1 0b 3b
        E 0 81 32 00
        E 0 91 36 3b
        E 16 b1 0b 33
        E 32 b1 0b 2a
        E 16 b1 0b 3b
        E 0 81 36 00
        E 0 91 39 3b
        E 16 b1 0b 33
        E 48 b1 0b 2a
        E 16 b1 0b 3b
        E 0 81 39 00
        E 0 91 36 3b
        E 16 b1 0b 33
        E 48 b1 0b 2a
        E 16 b1 0b 3b
        E 0 81 36 00
        E 0 91 32 3b
        E 16 b1 0b 33
        E 48 b1 0b 2a
        E 16 b1 0b 3b
        E 0 81 32 00
        E 0 91 31 3b
        E 16 b1 0b 22
        E 16 b1 0b 08
        E 16 b1 0b 11
        E 16 b1 0b 22
        E 16 b1 0b 19
        E 16 b1 0b 11
        E 16 81 31 00
        E 32 b1 0b 3b
        E 0 91 38 3b
        E 16 b1 0b 22
        E 16 b1 0b 08
        E 16 b1 0b 11
        E 16 b1 0b 33
        E 16 b1 0b 22
        E 16 b1 0b 19
        E 16 81 38 00
        E 16 b1 0b 08
        E 0 91 38 08
        E 16 81 38 00
        E 16 b1 0b 3b
        E 0 91 36 3b
        E 16 b1 0b 22
        E 16 b1 0b 08
        E 16 b1 0b 11
        E 16 b1 0b 22
        E 16 b1 0b 19
        E 16 b1 0b 11
        E 16 81 36 00
        E 32 b1 0b 3b
        E 0 91 3b 3b
        E 16 b1 0b 22
        E 16 b1 0b 08
        E 16 b1 0b 11
        E 16 b1 0b 33
        E 16 b1 0b 22
        E 16 b1 0b 19
        E 16 81 3b 00
        E 16 b1 0b 08
        E 0 91 3b 08
        E 16 81 3b 00
        E 16 b1 0b 3b
        E 0 91 3d 3b
        E 16 b1 0b 22
        E 16 b1 0b 08
        E 16 b1 0b 11
        E 16 b1 0b 22
        E 16 b1 0b 19
        E 16 b1 0b 11
        E 16 81 3d 00
        E 32 b1 0b 3b
        E 0 91 31 3b
        E 16 b1 0b 22
        E 16 b1 0b 08
        E 16 b1 0b 11
        E 16 b1 0b 33
        E 16 b1 0b 22
        E 16 b1 0b 19
        E 16 81 31 00
        E 16 b1 0b 08
        E 0 91 31 08
        E 16 81 31 00
        E 16 b1 0b 3b
        E 0 91 38 3b
        E 16 b1 0b 22
        E 16 b1 0b 08
        E 16 b1 0b 11
        E 16 b1 0b 22
        E 16 b1 0b 19
        E 16 b1 0b 11
        E 16 81 38 00
        E 0 b1 7b 00
        E 0 ff 2f 00
      >
    >
  >
  <TRACK {BF974B33-1933-433C-8686-36E76DCCE450}
    NAME "NES - Triangle [ch2]"
    PEAKCOL 16744192
    BEAT -1
    AUTOMODE 0
    PANLAWFLAGS 3
    VOLPAN 1 0 -1 -1 1
    MUTESOLO 0 0 0
    IPHASE 0
    PLAYOFFS 0 1
    ISBUS 0 0
    BUSCOMP 0 0 0 0 0
    SHOWINMIX 1 0.6667 0.5 1 0.5 0 0 0
    FIXEDLANES 9 0 0 0 0
    SEL 0
    REC 0 5088 1 0 0 0 0 0
    VU 2
    TRACKHEIGHT 0 0 0 0 0 0 0
    INQ 0 0 0 0.5 100 0 0 100
    NCHAN 2
    FX 1
    TRACKID {BF974B33-1933-433C-8686-36E76DCCE450}
    PERF 0
    MIDIOUT -1
    MAINSEND 1 0
    <FXCHAIN
      WNDRECT 24 52 700 560
      SHOW 0
      LASTSEL 0
      DOCKED 0
      BYPASS 0 0 0
      <JS "ReapNES Studio/ReapNES_Console.jsfx" ""
        2 15 1 10 80 10 100 2 1 15 1 5 60 10 80 1 1 0 30 0 0 15 1 0 100 0 0 0.500000 0.500000 0.400000 0.300000 0.800000 2 1 0 0 0 0 - - - - - - - - - - - - - - - - - - - - - - - - - -
      >
      FLOATPOS 0 0 0 0
      FXID {FF7BF23B-F287-4624-9092-82F7D617D6B5}
      WAK 0 0
    >
    <ITEM
      POSITION 0
      LENGTH 70.3732525
      LOOP 0
      ALLTAKES 0
      FADEIN 0 0 0 0 0 0 0
      FADEOUT 0 0 0 0 0 0 0
      MUTE 0 0
      SEL 0
      IGUID {901DE4D9-8805-447D-8F96-1F974DC1FB90}
      <SOURCE MIDI
        HASDATA 1 480 QN
        CCINTERP 32
        E 0 c2 26
        E 0 b2 0b 7f
        E 0 92 28 7f
        E 128 82 28 00
        E 32 b2 0b 7f
        E 0 92 28 7f
        E 112 82 28 00
        E 656 b2 0b 7f
        E 0 92 28 7f
        E 112 82 28 00
        E 32 b2 0b 7f
        E 0 92 28 7f
        E 112 82 28 00
        E 192 b2 0b 7f
        E 0 92 28 7f
        E 112 82 28 00
        E 48 b2 0b 7f
        E 0 92 28 7f
        E 112 82 28 00
        E 800 b2 0b 7f
        E 0 92 28 7f
        E 112 82 28 00
        E 32 b2 0b 7f
        E 0 92 28 7f
        E 112 82 28 00
        E 656 b2 0b 7f
        E 0 92 28 7f
        E 112 82 28 00
        E 32 b2 0b 7f
        E 0 92 28 7f
        E 112 82 28 00
        E 192 b2 0b 7f
        E 0 92 28 7f
        E 112 82 28 00
        E 48 b2 0b 7f
        E 0 92 28 7f
        E 112 82 28 00
        E 800 b2 0b 7f
        E 0 92 28 7f
        E 112 82 28 00
        E 32 b2 0b 7f
        E 0 92 28 7f
        E 112 82 28 00
        E 656 b2 0b 7f
        E 0 92 28 7f
        E 112 82 28 00
        E 32 b2 0b 7f
        E 0 92 28 7f
        E 128 82 28 00
        E 176 b2 0b 7f
        E 0 92 28 7f
        E 128 82 28 00
        E 32 b2 0b 7f
        E 0 92 28 7f
        E 112 82 28 00
        E 800 b2 0b 7f
        E 0 92 25 7f
        E 112 82 25 00
        E 48 b2 0b 7f
        E 0 92 25 7f
        E 112 82 25 00
        E 640 b2 0b 7f
        E 0 92 25 7f
        E 112 82 25 00
        E 48 b2 0b 7f
        E 0 92 25 7f
        E 112 82 25 00
        E 192 b2 0b 7f
        E 0 92 25 7f
        E 112 82 25 00
        E 32 b2 0b 7f
        E 0 92 25 7f
        E 112 82 25 00
        E 800 b2 0b 7f
        E 0 92 24 7f
        E 720 82 24 00
        E 192 b2 0b 7f
        E 0 92 24 7f
        E 960 82 24 00
        E 112 b2 0b 7f
        E 0 92 26 7f
        E 144 82 26 00
        E 0 b2 0b 7f
        E 0 92 28 7f
        E 144 82 28 00
        E 16 b2 0b 7f
        E 0 92 26 7f
        E 144 82 26 00
        E 0 b2 0b 7f
        E 0 92 24 7f
        E 720 82 24 00
        E 192 b2 0b 7f
        E 0 92 24 7f
        E 976 82 24 00
        E 96 b2 0b 7f
        E 0 92 26 7f
        E 144 82 26 00
        E 16 b2 0b 7f
        E 0 92 28 7f
        E 128 82 28 00
        E 16 b2 0b 7f
        E 0 92 26 7f
        E 144 82 26 00
        E 16 b2 0b 7f
        E 0 92 25 7f
        E 112 82 25 00
        E 32 b2 0b 7f
        E 0 92 25 7f
        E 128 82 25 00
        E 176 b2 0b 7f
        E 0 92 25 7f
        E 384 82 25 00
        E 80 b2 0b 7f
        E 0 92 23 7f
        E 128 82 23 00
        E 16 b2 0b 7f
        E 0 92 25 7f
        E 144 82 25 00
        E 160 b2 0b 7f
        E 0 92 23 7f
        E 144 82 23 00
        E 16 b2 0b 7f
        E 0 92 25 7f
        E 128 82 25 00
        E 16 b2 0b 7f
        E 0 92 25 7f
        E 288 82 25 00
        E 16 b2 0b 7f
        E 0 92 2a 7f
        E 144 82 2a 00
        E 16 b2 0b 7f
        E 0 92 28 7f
        E 128 82 28 00
        E 16 b2 0b 7f
        E 0 92 2f 7f
        E 144 82 2f 00
        E 16 b2 0b 7f
        E 0 92 2a 7f
        E 128 82 2a 00
        E 32 b2 0b 7f
        E 0 92 2a 7f
        E 112 82 2a 00
        E 176 b2 0b 7f
        E 0 92 2a 7f
        E 256 82 2a 00
        E 48 b2 0b 7f
        E 0 92 2a 7f
        E 128 82 2a 00
        E 16 b2 0b 7f
        E 0 92 28 7f
        E 128 82 28 00
        E 16 b2 0b 7f
        E 0 92 2a 7f
        E 144 82 2a 00
        E 160 b2 0b 7f
        E 0 92 2a 7f
        E 112 82 2a 00
        E 176 b2 0b 7f
        E 0 92 2a 7f
        E 256 82 2a 00
        E 48 b2 0b 7f
        E 0 92 2a 7f
        E 112 82 2a 00
        E 32 b2 0b 7f
        E 0 92 2a 7f
        E 128 82 2a 00
        E 16 b2 0b 7f
        E 0 92 2a 7f
        E 128 82 2a 00
        E 32 b2 0b 7f
        E 0 92 2f 7f
        E 112 82 2f 00
        E 32 b2 0b 7f
        E 0 92 2f 7f
        E 128 82 2f 00
        E 160 b2 0b 7f
        E 0 92 2f 7f
        E 128 82 2f 00
        E 176 b2 0b 7f
        E 0 92 2d 7f
        E 128 82 2d 00
        E 16 b2 0b 7f
        E 0 92 2f 7f
        E 128 82 2f 00
        E 16 b2 0b 7f
        E 0 92 2f 7f
        E 128 82 2f 00
        E 176 b2 0b 7f
        E 0 92 2f 7f
        E 128 82 2f 00
        E 16 b2 0b 7f
        E 0 92 2d 7f
        E 128 82 2d 00
        E 32 b2 0b 7f
        E 0 92 2f 7f
        E 112 82 2f 00
        E 176 b2 0b 7f
        E 0 92 28 7f
        E 128 82 28 00
        E 16 b2 0b 7f
        E 0 92 2a 7f
        E 128 82 2a 00
        E 32 b2 0b 7f
        E 0 92 2d 7f
        E 112 82 2d 00
        E 32 b2 0b 7f
        E 0 92 2f 7f
        E 112 82 2f 00
        E 32 b2 0b 7f
        E 0 92 2f 7f
        E 128 82 2f 00
        E 176 b2 0b 7f
        E 0 92 2f 7f
        E 112 82 2f 00
        E 176 b2 0b 7f
        E 0 92 2d 7f
        E 144 82 2d 00
        E 0 b2 0b 7f
        E 0 92 2f 7f
        E 128 82 2f 00
        E 32 b2 0b 7f
        E 0 92 2f 7f
        E 112 82 2f 00
        E 176 b2 0b 7f
        E 0 92 2f 7f
        E 128 82 2f 00
        E 16 b2 0b 7f
        E 0 92 2d 7f
        E 128 82 2d 00
        E 32 b2 0b 7f
        E 0 92 2f 7f
        E 112 82 2f 00
        E 176 b2 0b 7f
        E 0 92 28 7f
        E 128 82 28 00
        E 16 b2 0b 7f
        E 0 92 2a 7f
        E 128 82 2a 00
        E 32 b2 0b 7f
        E 0 92 2d 7f
        E 112 82 2d 00
        E 32 b2 0b 7f
        E 0 92 2f 7f
        E 128 82 2f 00
        E 16 b2 0b 7f
        E 0 92 2f 7f
        E 128 82 2f 00
        E 176 b2 0b 7f
        E 0 92 2f 7f
        E 112 82 2f 00
        E 176 b2 0b 7f
        E 0 92 2d 7f
        E 144 82 2d 00
        E 0 b2 0b 7f
        E 0 92 2f 7f
        E 128 82 2f 00
        E 32 b2 0b 7f
        E 0 92 2f 7f
        E 112 82 2f 00
        E 176 b2 0b 7f
        E 0 92 2f 7f
        E 128 82 2f 00
        E 16 b2 0b 7f
        E 0 92 2d 7f
        E 128 82 2d 00
        E 32 b2 0b 7f
        E 0 92 2f 7f
        E 112 82 2f 00
        E 176 b2 0b 7f
        E 0 92 28 7f
        E 128 82 28 00
        E 16 b2 0b 7f
        E 0 92 2a 7f
        E 128 82 2a 00
        E 32 b2 0b 7f
        E 0 92 2d 7f
        E 112 82 2d 00
        E 32 b2 0b 7f
        E 0 92 2f 7f
        E 128 82 2f 00
        E 16 b2 0b 7f
        E 0 92 2f 7f
        E 128 82 2f 00
        E 176 b2 0b 7f
        E 0 92 2f 7f
        E 112 82 2f 00
        E 176 b2 0b 7f
        E 0 92 2d 7f
        E 144 82 2d 00
        E 0 b2 0b 7f
        E 0 92 2f 7f
        E 128 82 2f 00
        E 32 b2 0b 7f
        E 0 92 2f 7f
        E 112 82 2f 00
        E 176 b2 0b 7f
        E 0 92 2f 7f
        E 128 82 2f 00
        E 16 b2 0b 7f
        E 0 92 2d 7f
        E 128 82 2d 00
        E 32 b2 0b 7f
        E 0 92 2f 7f
        E 112 82 2f 00
        E 176 b2 0b 7f
        E 0 92 28 7f
        E 128 82 28 00
        E 16 b2 0b 7f
        E 0 92 2a 7f
        E 128 82 2a 00
        E 32 b2 0b 7f
        E 0 92 2d 7f
        E 112 82 2d 00
        E 32 b2 0b 7f
        E 0 92 2a 7f
        E 144 82 2a 00
        E 16 b2 0b 7f
        E 0 92 2a 7f
        E 128 82 2a 00
        E 16 b2 0b 7f
        E 0 92 1e 7f
        E 128 82 1e 00
        E 16 b2 0b 7f
        E 0 92 2a 7f
        E 256 82 2a 00
        E 176 b2 0b 7f
        E 0 92 2a 7f
        E 256 82 2a 00
        E 32 b2 0b 7f
        E 0 92 2a 7f
        E 400 82 2a 00
        E 32 b2 0b 7f
        E 0 92 2a 7f
        E 400 82 2a 00
        E 32 b2 0b 7f
        E 0 92 2a 7f
        E 256 82 2a 00
        E 32 b2 0b 7f
        E 0 92 2a 7f
        E 256 82 2a 00
        E 32 b2 0b 7f
        E 0 92 2a 7f
        E 256 82 2a 00
        E 32 b2 0b 7f
        E 0 92 2a 7f
        E 272 82 2a 00
        E 32 b2 0b 7f
        E 0 92 2a 7f
        E 128 82 2a 00
        E 16 b2 0b 7f
        E 0 92 2a 7f
        E 1184 82 2a 00
        E 16 b2 0b 7f
        E 0 92 2f 7f
        E 144 82 2f 00
        E 16 b2 0b 7f
        E 0 92 2f 7f
        E 128 82 2f 00
        E 160 b2 0b 7f
        E 0 92 2d 7f
        E 256 82 2d 00
        E 32 b2 0b 7f
        E 0 92 32 7f
        E 128 82 32 00
        E 16 b2 0b 7f
        E 0 92 31 7f
        E 128 82 31 00
        E 16 b2 0b 7f
        E 0 92 2d 7f
        E 128 82 2d 00
        E 16 b2 0b 7f
        E 0 92 2f 7f
        E 128 82 2f 00
        E 304 b2 0b 7f
        E 0 92 2f 7f
        E 128 82 2f 00
        E 16 b2 0b 7f
        E 0 92 2d 7f
        E 128 82 2d 00
        E 16 b2 0b 7f
        E 0 92 2f 7f
        E 128 82 2f 00
        E 160 b2 0b 7f
        E 0 92 2f 7f
        E 128 82 2f 00
        E 16 b2 0b 7f
        E 0 92 2b 7f
        E 128 82 2b 00
        E 16 b2 0b 7f
        E 0 92 2b 7f
        E 128 82 2b 00
        E 160 b2 0b 7f
        E 0 92 26 7f
        E 256 82 26 00
        E 32 b2 0b 7f
        E 0 92 2d 7f
        E 128 82 2d 00
        E 16 b2 0b 7f
        E 0 92 2b 7f
        E 128 82 2b 00
        E 16 b2 0b 7f
        E 0 92 2d 7f
        E 128 82 2d 00
        E 16 b2 0b 7f
        E 0 92 2b 7f
        E 128 82 2b 00
        E 304 b2 0b 7f
        E 0 92 2b 7f
        E 256 82 2b 00
        E 32 b2 0b 7f
        E 0 92 2a 7f
        E 128 82 2a 00
        E 16 b2 0b 7f
        E 0 92 2b 7f
        E 128 82 2b 00
        E 16 b2 0b 7f
        E 0 92 2c 7f
        E 128 82 2c 00
        E 16 b2 0b 7f
        E 0 92 2d 7f
        E 128 82 2d 00
        E 16 b2 0b 7f
        E 0 92 2d 7f
        E 128 82 2d 00
        E 160 b2 0b 7f
        E 0 92 2b 7f
        E 256 82 2b 00
        E 32 b2 0b 7f
        E 0 92 31 7f
        E 128 82 31 00
        E 16 b2 0b 7f
        E 0 92 2f 7f
        E 128 82 2f 00
        E 16 b2 0b 7f
        E 0 92 2b 7f
        E 128 82 2b 00
        E 16 b2 0b 7f
        E 0 92 2d 7f
        E 128 82 2d 00
        E 304 b2 0b 7f
        E 0 92 2d 7f
        E 128 82 2d 00
        E 16 b2 0b 7f
        E 0 92 2d 7f
        E 128 82 2d 00
        E 16 b2 0b 7f
        E 0 92 2b 7f
        E 128 82 2b 00
        E 160 b2 0b 7f
        E 0 92 2d 7f
        E 128 82 2d 00
        E 16 b2 0b 7f
        E 0 92 26 7f
        E 128 82 26 00
        E 16 b2 0b 7f
        E 0 92 26 7f
        E 128 82 26 00
        E 160 b2 0b 7f
        E 0 92 26 7f
        E 256 82 26 00
        E 32 b2 0b 7f
        E 0 92 26 7f
        E 128 82 26 00
        E 16 b2 0b 7f
        E 0 92 28 7f
        E 128 82 28 00
        E 16 b2 0b 7f
        E 0 92 2a 7f
        E 128 82 2a 00
        E 16 b2 0b 7f
        E 0 92 2b 7f
        E 128 82 2b 00
        E 16 b2 0b 7f
        E 0 92 2b 7f
        E 128 82 2b 00
        E 160 b2 0b 7f
        E 0 92 2d 7f
        E 272 82 2d 00
        E 16 b2 0b 7f
        E 0 92 2d 7f
        E 128 82 2d 00
        E 16 b2 0b 7f
        E 0 92 38 7f
        E 128 82 38 00
        E 16 b2 0b 7f
        E 0 92 30 7f
        E 48 82 30 00
        E 0 b2 0b 7f
        E 0 92 2c 7f
        E 80 82 2c 00
        E 16 b2 0b 7f
        E 0 92 2f 7f
        E 128 82 2f 00
        E 16 b2 0b 7f
        E 0 92 2f 7f
        E 128 82 2f 00
        E 160 b2 0b 7f
        E 0 92 2d 7f
        E 272 82 2d 00
        E 16 b2 0b 7f
        E 0 92 32 7f
        E 128 82 32 00
        E 16 b2 0b 7f
        E 0 92 31 7f
        E 128 82 31 00
        E 16 b2 0b 7f
        E 0 92 2d 7f
        E 128 82 2d 00
        E 16 b2 0b 7f
        E 0 92 2f 7f
        E 128 82 2f 00
        E 304 b2 0b 7f
        E 0 92 2f 7f
        E 128 82 2f 00
        E 16 b2 0b 7f
        E 0 92 2d 7f
        E 128 82 2d 00
        E 16 b2 0b 7f
        E 0 92 2f 7f
        E 128 82 2f 00
        E 160 b2 0b 7f
        E 0 92 2f 7f
        E 128 82 2f 00
        E 16 b2 0b 7f
        E 0 92 2b 7f
        E 128 82 2b 00
        E 16 b2 0b 7f
        E 0 92 2b 7f
        E 128 82 2b 00
        E 160 b2 0b 7f
        E 0 92 26 7f
        E 272 82 26 00
        E 16 b2 0b 7f
        E 0 92 2d 7f
        E 144 82 2d 00
        E 0 b2 0b 7f
        E 0 92 2b 7f
        E 144 82 2b 00
        E 0 b2 0b 7f
        E 0 92 2d 7f
        E 144 82 2d 00
        E 0 b2 0b 7f
        E 0 92 2b 7f
        E 144 82 2b 00
        E 288 b2 0b 7f
        E 0 92 2b 7f
        E 272 82 2b 00
        E 16 b2 0b 7f
        E 0 92 2a 7f
        E 144 82 2a 00
        E 0 b2 0b 7f
        E 0 92 2b 7f
        E 144 82 2b 00
        E 0 b2 0b 7f
        E 0 92 2c 7f
        E 144 82 2c 00
        E 0 b2 0b 7f
        E 0 92 2d 7f
        E 288 82 2d 00
        E 144 b2 0b 7f
        E 0 92 2b 7f
        E 272 82 2b 00
        E 16 b2 0b 7f
        E 0 92 31 7f
        E 144 82 31 00
        E 0 b2 0b 7f
        E 0 92 2f 7f
        E 144 82 2f 00
        E 0 b2 0b 7f
        E 0 92 2b 7f
        E 144 82 2b 00
        E 0 b2 0b 7f
        E 0 92 2d 7f
        E 144 82 2d 00
        E 288 b2 0b 7f
        E 0 92 2d 7f
        E 288 82 2d 00
        E 0 b2 0b 7f
        E 0 92 2b 7f
        E 144 82 2b 00
        E 144 b2 0b 7f
        E 0 92 2d 7f
        E 144 82 2d 00
        E 0 b2 0b 7f
        E 0 92 26 7f
        E 288 82 26 00
        E 160 b2 0b 7f
        E 0 92 26 7f
        E 256 82 26 00
        E 32 b2 0b 7f
        E 0 92 26 7f
        E 128 82 26 00
        E 16 b2 0b 7f
        E 0 92 28 7f
        E 128 82 28 00
        E 16 b2 0b 7f
        E 0 92 2a 7f
        E 128 82 2a 00
        E 16 b2 0b 7f
        E 0 92 2b 7f
        E 128 82 2b 00
        E 16 b2 0b 7f
        E 0 92 2b 7f
        E 128 82 2b 00
        E 160 b2 0b 7f
        E 0 92 2d 7f
        E 256 82 2d 00
        E 32 b2 0b 7f
        E 0 92 2d 7f
        E 128 82 2d 00
        E 16 b2 0b 7f
        E 0 92 38 7f
        E 112 82 38 00
        E 32 b2 0b 7f
        E 0 92 30 7f
        E 48 82 30 00
        E 0 b2 0b 7f
        E 0 92 2c 7f
        E 64 82 2c 00
        E 32 b2 0b 7f
        E 0 92 2f 7f
        E 128 82 2f 00
        E 16 b2 0b 7f
        E 0 92 2f 7f
        E 128 82 2f 00
        E 16 b2 0b 7f
        E 0 92 35 7f
        E 128 82 35 00
        E 16 b2 0b 7f
        E 0 92 2d 7f
        E 256 82 2d 00
        E 32 b2 0b 7f
        E 0 92 32 7f
        E 128 82 32 00
        E 16 b2 0b 7f
        E 0 92 35 7f
        E 128 82 35 00
        E 16 b2 0b 7f
        E 0 92 2d 7f
        E 128 82 2d 00
        E 16 b2 0b 7f
        E 0 92 2f 7f
        E 128 82 2f 00
        E 160 b2 0b 7f
        E 0 92 35 7f
        E 128 82 35 00
        E 16 b2 0b 7f
        E 0 92 2f 7f
        E 128 82 2f 00
        E 16 b2 0b 7f
        E 0 92 2d 7f
        E 128 82 2d 00
        E 16 b2 0b 7f
        E 0 92 2f 7f
        E 128 82 2f 00
        E 16 b2 0b 7f
        E 0 92 35 7f
        E 128 82 35 00
        E 16 b2 0b 7f
        E 0 92 2f 7f
        E 128 82 2f 00
        E 16 b2 0b 7f
        E 0 92 2f 7f
        E 128 82 2f 00
        E 16 b2 0b 7f
        E 0 92 2f 7f
        E 128 82 2f 00
        E 16 b2 0b 7f
        E 0 92 35 7f
        E 128 82 35 00
        E 16 b2 0b 7f
        E 0 92 2d 7f
        E 256 82 2d 00
        E 32 b2 0b 7f
        E 0 92 32 7f
        E 128 82 32 00
        E 16 b2 0b 7f
        E 0 92 35 7f
        E 128 82 35 00
        E 16 b2 0b 7f
        E 0 92 2d 7f
        E 128 82 2d 00
        E 16 b2 0b 7f
        E 0 92 2f 7f
        E 128 82 2f 00
        E 16 b2 0b 7f
        E 0 92 2a 7f
        E 128 82 2a 00
        E 160 b2 0b 7f
        E 0 92 2a 7f
        E 256 82 2a 00
        E 32 b2 0b 7f
        E 0 92 39 7f
        E 112 82 39 00
        E 32 b2 0b 7f
        E 0 92 33 7f
        E 96 82 33 00
        E 0 b2 0b 7f
        E 0 92 2d 7f
        E 16 82 2d 00
        E 32 b2 0b 7f
        E 0 92 2e 7f
        E 16 82 2e 00
        E 0 b2 0b 7f
        E 0 92 2d 7f
        E 96 82 2d 00
        E 32 b2 0b 7f
        E 0 92 2f 7f
        E 128 82 2f 00
        E 16 b2 0b 7f
        E 0 92 2f 7f
        E 64 82 2f 00
        E 16 b2 0b 7f
        E 0 92 28 7f
        E 128 82 28 00
        E 32 b2 0b 7f
        E 0 92 28 7f
        E 112 82 28 00
        E 656 b2 0b 7f
        E 0 92 28 7f
        E 112 82 28 00
        E 32 b2 0b 7f
        E 0 92 28 7f
        E 112 82 28 00
        E 192 b2 0b 7f
        E 0 92 28 7f
        E 112 82 28 00
        E 48 b2 0b 7f
        E 0 92 28 7f
        E 112 82 28 00
        E 800 b2 0b 7f
        E 0 92 28 7f
        E 112 82 28 00
        E 32 b2 0b 7f
        E 0 92 28 7f
        E 112 82 28 00
        E 656 b2 0b 7f
        E 0 92 28 7f
        E 112 82 28 00
        E 32 b2 0b 7f
        E 0 92 28 7f
        E 112 82 28 00
        E 192 b2 0b 7f
        E 0 92 28 7f
        E 112 82 28 00
        E 48 b2 0b 7f
        E 0 92 28 7f
        E 112 82 28 00
        E 800 b2 0b 7f
        E 0 92 28 7f
        E 112 82 28 00
        E 32 b2 0b 7f
        E 0 92 28 7f
        E 112 82 28 00
        E 656 b2 0b 7f
        E 0 92 28 7f
        E 112 82 28 00
        E 32 b2 0b 7f
        E 0 92 28 7f
        E 128 82 28 00
        E 176 b2 0b 7f
        E 0 92 28 7f
        E 128 82 28 00
        E 32 b2 0b 7f
        E 0 92 28 7f
        E 112 82 28 00
        E 800 b2 0b 7f
        E 0 92 25 7f
        E 112 82 25 00
        E 48 b2 0b 7f
        E 0 92 25 7f
        E 112 82 25 00
        E 640 b2 0b 7f
        E 0 92 25 7f
        E 112 82 25 00
        E 48 b2 0b 7f
        E 0 92 25 7f
        E 112 82 25 00
        E 192 b2 0b 7f
        E 0 92 25 7f
        E 112 82 25 00
        E 32 b2 0b 7f
        E 0 92 25 7f
        E 112 82 25 00
        E 800 b2 0b 7f
        E 0 92 24 7f
        E 720 82 24 00
        E 192 b2 0b 7f
        E 0 92 24 7f
        E 960 82 24 00
        E 112 b2 0b 7f
        E 0 92 26 7f
        E 144 82 26 00
        E 0 b2 0b 7f
        E 0 92 28 7f
        E 144 82 28 00
        E 16 b2 0b 7f
        E 0 92 26 7f
        E 144 82 26 00
        E 0 b2 0b 7f
        E 0 92 24 7f
        E 720 82 24 00
        E 192 b2 0b 7f
        E 0 92 24 7f
        E 976 82 24 00
        E 96 b2 0b 7f
        E 0 92 26 7f
        E 144 82 26 00
        E 16 b2 0b 7f
        E 0 92 28 7f
        E 128 82 28 00
        E 16 b2 0b 7f
        E 0 92 26 7f
        E 144 82 26 00
        E 16 b2 0b 7f
        E 0 92 25 7f
        E 112 82 25 00
        E 32 b2 0b 7f
        E 0 92 25 7f
        E 128 82 25 00
        E 176 b2 0b 7f
        E 0 92 25 7f
        E 384 82 25 00
        E 80 b2 0b 7f
        E 0 92 23 7f
        E 112 82 23 00
        E 0 b2 7b 00
        E 0 ff 2f 00
      >
    >
  >
  <TRACK {0F23416A-D3A9-4C42-BAE9-98C13483647A}
    NAME "NES - Noise / Drums [ch3]"
    PEAKCOL 11184810
    BEAT -1
    AUTOMODE 0
    PANLAWFLAGS 3
    VOLPAN 1 0 -1 -1 1
    MUTESOLO 0 0 0
    IPHASE 0
    PLAYOFFS 0 1
    ISBUS 0 0
    BUSCOMP 0 0 0 0 0
    SHOWINMIX 1 0.6667 0.5 1 0.5 0 0 0
    FIXEDLANES 9 0 0 0 0
    SEL 0
    REC 0 5088 1 0 0 0 0 0
    VU 2
    TRACKHEIGHT 0 0 0 0 0 0 0
    INQ 0 0 0 0.5 100 0 0 100
    NCHAN 2
    FX 1
    TRACKID {0F23416A-D3A9-4C42-BAE9-98C13483647A}
    PERF 0
    MIDIOUT -1
    MAINSEND 1 0
    <FXCHAIN
      WNDRECT 24 52 700 560
      SHOW 0
      LASTSEL 0
      DOCKED 0
      BYPASS 0 0 0
      <JS "ReapNES Studio/ReapNES_Console.jsfx" ""
        2 15 1 10 80 10 100 2 1 15 1 5 60 10 80 1 1 0 50 0 0 15 1 0 80 0 0 0.500000 0.500000 0.400000 0.300000 0.800000 3 1 0 0 0 0 - - - - - - - - - - - - - - - - - - - - - - - - - -
      >
      FLOATPOS 0 0 0 0
      FXID {78F46DFD-DAFF-406D-82AA-359E1DFCF3CF}
      WAK 0 0
    >
    <ITEM
      POSITION 0
      LENGTH 70.3732525
      LOOP 0
      ALLTAKES 0
      FADEIN 0 0 0 0 0 0 0
      FADEOUT 0 0 0 0 0 0 0
      MUTE 0 0
      SEL 0
      IGUID {E81C9CE7-3CCB-4EF1-A628-ACC166D41E27}
      <SOURCE MIDI
        HASDATA 1 480 QN
        CCINTERP 32
        E 0 93 2a 44
        E 48 83 2a 00
        E 112 93 2a 44
        E 48 83 2a 00
        E 112 93 2a 44
        E 48 83 2a 00
        E 96 93 2a 55
        E 80 83 2a 00
        E 0 93 2a 22
        E 64 83 2a 00
        E 16 93 2a 44
        E 48 83 2a 00
        E 96 93 2a 44
        E 48 83 2a 00
        E 112 93 2a 44
        E 48 83 2a 00
        E 96 93 2a 44
        E 48 83 2a 00
        E 112 93 2a 44
        E 48 83 2a 00
        E 96 93 2a 44
        E 48 83 2a 00
        E 112 93 2a 55
        E 80 83 2a 00
        E 0 93 2a 22
        E 64 83 2a 00
        E 0 93 2a 44
        E 48 83 2a 00
        E 112 93 2a 44
        E 48 83 2a 00
        E 96 93 2a 44
        E 48 83 2a 00
        E 112 93 2a 44
        E 48 83 2a 00
        E 96 93 2a 44
        E 48 83 2a 00
        E 112 93 2a 44
        E 48 83 2a 00
        E 96 93 2a 44
        E 48 83 2a 00
        E 112 93 2a 44
        E 48 83 2a 00
        E 96 93 2a 55
        E 80 83 2a 00
        E 0 93 2a 22
        E 64 83 2a 00
        E 16 93 2a 44
        E 48 83 2a 00
        E 96 93 2a 44
        E 48 83 2a 00
        E 112 93 2a 44
        E 48 83 2a 00
        E 96 93 2a 44
        E 48 83 2a 00
        E 112 93 2a 44
        E 48 83 2a 00
        E 96 93 2a 44
        E 48 83 2a 00
        E 112 93 2a 55
        E 80 83 2a 00
        E 0 93 2a 22
        E 64 83 2a 00
        E 0 93 2a 44
        E 48 83 2a 00
        E 112 93 2a 44
        E 48 83 2a 00
        E 96 93 2a 44
        E 48 83 2a 00
        E 112 93 2a 44
        E 48 83 2a 00
        E 96 93 2a 44
        E 48 83 2a 00
        E 112 93 2a 44
        E 48 83 2a 00
        E 96 93 2a 44
        E 48 83 2a 00
        E 112 93 2a 44
        E 48 83 2a 00
        E 96 93 2a 55
        E 80 83 2a 00
        E 0 93 2a 22
        E 64 83 2a 00
        E 16 93 2a 44
        E 48 83 2a 00
        E 96 93 2a 44
        E 48 83 2a 00
        E 112 93 2a 44
        E 48 83 2a 00
        E 96 93 2a 44
        E 48 83 2a 00
        E 112 93 2a 44
        E 48 83 2a 00
        E 96 93 2a 44
        E 48 83 2a 00
        E 112 93 2a 55
        E 80 83 2a 00
        E 0 93 2a 22
        E 64 83 2a 00
        E 0 93 2a 44
        E 48 83 2a 00
        E 112 93 2a 44
        E 48 83 2a 00
        E 96 93 2a 44
        E 48 83 2a 00
        E 112 93 2a 44
        E 48 83 2a 00
        E 112 93 2a 44
        E 48 83 2a 00
        E 96 93 2a 44
        E 48 83 2a 00
        E 112 93 2a 44
        E 48 83 2a 00
        E 96 93 2a 44
        E 48 83 2a 00
        E 128 93 2a 7f
        E 64 83 2a 00
        E 0 93 2a 55
        E 16 83 2a 00
        E 0 93 2a 55
        E 32 83 2a 00
        E 0 93 2a 7f
        E 32 83 2a 00
        E 0 93 2a 7f
        E 32 83 2a 00
        E 0 93 2a 7f
        E 32 83 2a 00
        E 0 93 2a 7f
        E 32 83 2a 00
        E 0 93 2a 7f
        E 32 83 2a 00
        E 0 93 2a 7f
        E 32 83 2a 00
        E 0 93 2a 7f
        E 32 83 2a 00
        E 0 93 2a 7f
        E 32 83 2a 00
        E 0 93 2a 7f
        E 64 83 2a 00
        E 0 93 2a 55
        E 16 83 2a 00
        E 0 93 2a 55
        E 32 83 2a 00
        E 0 93 2a 7f
        E 32 83 2a 00
        E 0 93 2a 7f
        E 32 83 2a 00
        E 0 93 2a 7f
        E 32 83 2a 00
        E 0 93 2a 7f
        E 32 83 2a 00
        E 0 93 2a 7f
        E 32 83 2a 00
        E 0 93 2a 7f
        E 32 83 2a 00
        E 0 93 2a 7f
        E 32 83 2a 00
        E 0 93 2a 7f
        E 48 83 2a 00
        E 0 93 2a 7f
        E 64 83 2a 00
        E 0 93 2a 55
        E 16 83 2a 00
        E 0 93 2a 55
        E 32 83 2a 00
        E 0 93 2a 7f
        E 32 83 2a 00
        E 0 93 2a 7f
        E 32 83 2a 00
        E 0 93 2a 7f
        E 32 83 2a 00
        E 0 93 2a 7f
        E 32 83 2a 00
        E 0 93 2a 7f
        E 32 83 2a 00
        E 0 93 2a 7f
        E 32 83 2a 00
        E 0 93 2a 7f
        E 32 83 2a 00
        E 0 93 2a 7f
        E 48 83 2a 00
        E 0 93 2a 7f
        E 64 83 2a 00
        E 0 93 2a 55
        E 16 83 2a 00
        E 0 93 2a 55
        E 32 83 2a 00
        E 0 93 2a 7f
        E 32 83 2a 00
        E 0 93 2a 7f
        E 32 83 2a 00
        E 0 93 2a 7f
        E 32 83 2a 00
        E 0 93 2a 7f
        E 32 83 2a 00
        E 0 93 2a 7f
        E 32 83 2a 00
        E 0 93 2a 7f
        E 32 83 2a 00
        E 0 93 2a 7f
        E 32 83 2a 00
        E 0 93 2a 7f
        E 48 83 2a 00
        E 0 93 2a 7f
        E 64 83 2a 00
        E 0 93 2a 55
        E 16 83 2a 00
        E 0 93 2a 55
        E 32 83 2a 00
        E 0 93 2a 7f
        E 32 83 2a 00
        E 0 93 2a 7f
        E 32 83 2a 00
        E 0 93 2a 7f
        E 32 83 2a 00
        E 0 93 2a 7f
        E 32 83 2a 00
        E 0 93 2a 7f
        E 32 83 2a 00
        E 0 93 2a 7f
        E 32 83 2a 00
        E 0 93 2a 7f
        E 32 83 2a 00
        E 0 93 2a 7f
        E 48 83 2a 00
        E 0 93 2a 7f
        E 64 83 2a 00
        E 0 93 2a 55
        E 16 83 2a 00
        E 0 93 2a 55
        E 32 83 2a 00
        E 0 93 2a 7f
        E 32 83 2a 00
        E 0 93 2a 7f
        E 32 83 2a 00
        E 0 93 2a 7f
        E 32 83 2a 00
        E 0 93 2a 7f
        E 32 83 2a 00
        E 0 93 2a 7f
        E 32 83 2a 00
        E 0 93 2a 7f
        E 32 83 2a 00
        E 0 93 2a 7f
        E 32 83 2a 00
        E 0 93 2a 7f
        E 48 83 2a 00
        E 0 93 2a 7f
        E 64 83 2a 00
        E 0 93 2a 55
        E 16 83 2a 00
        E 0 93 2a 55
        E 32 83 2a 00
        E 0 93 2a 7f
        E 32 83 2a 00
        E 0 93 2a 7f
        E 32 83 2a 00
        E 0 93 2a 7f
        E 32 83 2a 00
        E 0 93 2a 7f
        E 32 83 2a 00
        E 0 93 2a 7f
        E 32 83 2a 00
        E 0 93 2a 7f
        E 32 83 2a 00
        E 0 93 2a 7f
        E 32 83 2a 00
        E 0 93 2a 7f
        E 48 83 2a 00
        E 0 93 2a 7f
        E 64 83 2a 00
        E 0 93 2a 55
        E 16 83 2a 00
        E 0 93 2a 55
        E 32 83 2a 00
        E 0 93 2a 7f
        E 32 83 2a 00
        E 0 93 2a 7f
        E 32 83 2a 00
        E 0 93 2a 7f
        E 32 83 2a 00
        E 0 93 2a 7f
        E 32 83 2a 00
        E 0 93 2a 7f
        E 32 83 2a 00
        E 0 93 2a 7f
        E 32 83 2a 00
        E 0 93 2a 7f
        E 32 83 2a 00
        E 0 93 2a 7f
        E 32 83 2a 00
        E 0 93 2a 7f
        E 32 83 2a 00
        E 0 93 2a 7f
        E 32 83 2a 00
        E 0 93 2a 7f
        E 32 83 2a 00
        E 0 93 2a 7f
        E 16 83 2a 00
        E 176 93 2a 44
        E 48 83 2a 00
        E 96 93 2a 44
        E 48 83 2a 00
        E 112 93 2a 44
        E 48 83 2a 00
        E 96 93 2a 44
        E 48 83 2a 00
        E 112 93 2a 44
        E 48 83 2a 00
        E 96 93 2a 44
        E 48 83 2a 00
        E 112 93 2a 44
        E 48 83 2a 00
        E 96 93 2a 44
        E 80 83 2a 00
        E 0 93 2a 11
        E 32 83 2a 00
        E 48 93 2a 44
        E 48 83 2a 00
        E 96 93 2a 44
        E 48 83 2a 00
        E 112 93 2a 44
        E 48 83 2a 00
        E 96 93 2a 44
        E 48 83 2a 00
        E 112 93 2a 44
        E 48 83 2a 00
        E 96 93 2a 4c
        E 80 83 2a 00
        E 0 93 2a 19
        E 48 83 2a 00
        E 336 93 2a 44
        E 48 83 2a 00
        E 96 93 2a 44
        E 48 83 2a 00
        E 112 93 2a 44
        E 48 83 2a 00
        E 96 93 2a 44
        E 48 83 2a 00
        E 112 93 2a 44
        E 48 83 2a 00
        E 112 93 2a 44
        E 48 83 2a 00
        E 96 93 2a 44
        E 48 83 2a 00
        E 112 93 2a 44
        E 48 83 2a 00
        E 96 93 2a 44
        E 48 83 2a 00
        E 112 93 2a 44
        E 48 83 2a 00
        E 96 93 2a 44
        E 48 83 2a 00
        E 112 93 2a 44
        E 48 83 2a 00
        E 96 93 2a 44
        E 48 83 2a 00
        E 112 93 2a 44
        E 48 83 2a 00
        E 96 93 2a 44
        E 48 83 2a 00
        E 112 93 2a 44
        E 48 83 2a 00
        E 96 93 2a 44
        E 48 83 2a 00
        E 112 93 2a 44
        E 48 83 2a 00
        E 96 93 2a 44
        E 48 83 2a 00
        E 112 93 2a 44
        E 48 83 2a 00
        E 96 93 2a 44
        E 48 83 2a 00
        E 112 93 2a 44
        E 48 83 2a 00
        E 96 93 2a 44
        E 48 83 2a 00
        E 112 93 2a 44
        E 48 83 2a 00
        E 112 93 2a 44
        E 48 83 2a 00
        E 96 93 2a 44
        E 48 83 2a 00
        E 96 93 2a 44
        E 48 83 2a 00
        E 112 93 2a 44
        E 48 83 2a 00
        E 96 93 2a 44
        E 48 83 2a 00
        E 96 93 2a 44
        E 48 83 2a 00
        E 96 93 2a 44
        E 48 83 2a 00
        E 112 93 2a 44
        E 48 83 2a 00
        E 96 93 2a 44
        E 48 83 2a 00
        E 96 93 2a 44
        E 48 83 2a 00
        E 96 93 2a 4c
        E 80 83 2a 00
        E 0 93 2a 08
        E 16 83 2a 00
        E 64 93 2a 4c
        E 80 83 2a 00
        E 0 93 2a 08
        E 16 83 2a 00
        E 48 93 2a 4c
        E 80 83 2a 00
        E 0 93 2a 19
        E 48 83 2a 00
        E 16 93 2a 4c
        E 80 83 2a 00
        E 0 93 2a 08
        E 16 83 2a 00
        E 48 93 2a 4c
        E 80 83 2a 00
        E 0 93 2a 08
        E 16 83 2a 00
        E 64 93 2a 4c
        E 48 83 2a 00
        E 96 93 2a 4c
        E 48 83 2a 00
        E 96 93 2a 4c
        E 48 83 2a 00
        E 96 93 2a 4c
        E 48 83 2a 00
        E 112 93 2a 4c
        E 48 83 2a 00
        E 96 93 2a 4c
        E 48 83 2a 00
        E 96 93 2a 4c
        E 48 83 2a 00
        E 96 93 2a 4c
        E 48 83 2a 00
        E 112 93 2a 4c
        E 48 83 2a 00
        E 96 93 2a 4c
        E 48 83 2a 00
        E 96 93 2a 4c
        E 48 83 2a 00
        E 112 93 2a 4c
        E 48 83 2a 00
        E 96 93 2a 4c
        E 48 83 2a 00
        E 96 93 2a 4c
        E 48 83 2a 00
        E 96 93 2a 4c
        E 48 83 2a 00
        E 112 93 2a 4c
        E 48 83 2a 00
        E 96 93 2a 4c
        E 48 83 2a 00
        E 96 93 2a 4c
        E 48 83 2a 00
        E 96 93 2a 4c
        E 48 83 2a 00
        E 112 93 2a 4c
        E 48 83 2a 00
        E 96 93 2a 4c
        E 48 83 2a 00
        E 96 93 2a 4c
        E 48 83 2a 00
        E 96 93 2a 4c
        E 48 83 2a 00
        E 112 93 2a 4c
        E 48 83 2a 00
        E 96 93 2a 4c
        E 48 83 2a 00
        E 96 93 2a 4c
        E 48 83 2a 00
        E 96 93 2a 4c
        E 48 83 2a 00
        E 112 93 2a 4c
        E 48 83 2a 00
        E 96 93 2a 4c
        E 48 83 2a 00
        E 96 93 2a 4c
        E 48 83 2a 00
        E 96 93 2a 4c
        E 48 83 2a 00
        E 112 93 2a 4c
        E 48 83 2a 00
        E 96 93 2a 4c
        E 48 83 2a 00
        E 96 93 2a 4c
        E 48 83 2a 00
        E 96 93 2a 4c
        E 48 83 2a 00
        E 112 93 2a 4c
        E 48 83 2a 00
        E 96 93 2a 4c
        E 48 83 2a 00
        E 96 93 2a 4c
        E 48 83 2a 00
        E 96 93 2a 4c
        E 48 83 2a 00
        E 112 93 2a 4c
        E 48 83 2a 00
        E 96 93 2a 4c
        E 48 83 2a 00
        E 96 93 2a 4c
        E 48 83 2a 00
        E 96 93 2a 4c
        E 48 83 2a 00
        E 112 93 2a 4c
        E 48 83 2a 00
        E 96 93 2a 4c
        E 48 83 2a 00
        E 96 93 2a 4c
        E 48 83 2a 00
        E 96 93 2a 4c
        E 48 83 2a 00
        E 112 93 2a 4c
        E 48 83 2a 00
        E 96 93 2a 4c
        E 48 83 2a 00
        E 96 93 2a 4c
        E 48 83 2a 00
        E 96 93 2a 4c
        E 48 83 2a 00
        E 112 93 2a 4c
        E 48 83 2a 00
        E 96 93 2a 4c
        E 48 83 2a 00
        E 96 93 2a 4c
        E 48 83 2a 00
        E 96 93 2a 4c
        E 48 83 2a 00
        E 112 93 2a 4c
        E 48 83 2a 00
        E 96 93 2a 4c
        E 48 83 2a 00
        E 96 93 2a 4c
        E 48 83 2a 00
        E 96 93 2a 4c
        E 48 83 2a 00
        E 112 93 2a 4c
        E 48 83 2a 00
        E 96 93 2a 4c
        E 48 83 2a 00
        E 96 93 2a 4c
        E 80 83 2a 00
        E 0 93 2a 08
        E 16 83 2a 00
        E 48 93 2a 4c
        E 64 83 2a 00
        E 96 93 2a 4c
        E 64 83 2a 00
        E 80 93 2a 4c
        E 64 83 2a 00
        E 96 93 2a 4c
        E 64 83 2a 00
        E 80 93 2a 4c
        E 64 83 2a 00
        E 80 93 2a 4c
        E 64 83 2a 00
        E 80 93 2a 4c
        E 64 83 2a 00
        E 80 93 2a 4c
        E 64 83 2a 00
        E 80 93 2a 4c
        E 64 83 2a 00
        E 80 93 2a 4c
        E 64 83 2a 00
        E 80 93 2a 4c
        E 64 83 2a 00
        E 80 93 2a 4c
        E 80 83 2a 00
        E 0 93 2a 08
        E 16 83 2a 00
        E 48 93 2a 4c
        E 80 83 2a 00
        E 0 93 2a 08
        E 16 83 2a 00
        E 48 93 2a 4c
        E 80 83 2a 00
        E 0 93 2a 08
        E 16 83 2a 00
        E 48 93 2a 4c
        E 80 83 2a 00
        E 0 93 2a 08
        E 16 83 2a 00
        E 48 93 2a 4c
        E 80 83 2a 00
        E 0 93 2a 08
        E 16 83 2a 00
        E 48 93 2a 4c
        E 80 83 2a 00
        E 0 93 2a 08
        E 16 83 2a 00
        E 48 93 2a 4c
        E 80 83 2a 00
        E 0 93 2a 08
        E 16 83 2a 00
        E 48 93 2a 4c
        E 80 83 2a 00
        E 0 93 2a 08
        E 16 83 2a 00
        E 48 93 2a 4c
        E 80 83 2a 00
        E 0 93 2a 08
        E 16 83 2a 00
        E 48 93 2a 4c
        E 80 83 2a 00
        E 0 93 2a 08
        E 16 83 2a 00
        E 48 93 2a 4c
        E 80 83 2a 00
        E 0 93 2a 08
        E 16 83 2a 00
        E 48 93 2a 4c
        E 64 83 2a 00
        E 96 93 2a 4c
        E 64 83 2a 00
        E 80 93 2a 4c
        E 64 83 2a 00
        E 80 93 2a 4c
        E 80 83 2a 00
        E 0 93 2a 19
        E 48 83 2a 00
        E 160 93 2a 4c
        E 64 83 2a 00
        E 80 93 2a 4c
        E 64 83 2a 00
        E 80 93 2a 4c
        E 64 83 2a 00
        E 80 93 2a 4c
        E 464 83 2a 00
        E 16 93 2a 55
        E 64 83 2a 00
        E 96 93 2a 55
        E 64 83 2a 00
        E 80 93 2a 55
        E 80 83 2a 00
        E 0 93 2a 22
        E 64 83 2a 00
        E 0 93 2a 55
        E 64 83 2a 00
        E 80 93 2a 55
        E 64 83 2a 00
        E 80 93 2a 55
        E 64 83 2a 00
        E 80 93 2a 55
        E 80 83 2a 00
        E 0 93 2a 22
        E 64 83 2a 00
        E 0 93 2a 55
        E 80 83 2a 00
        E 0 93 2a 22
        E 64 83 2a 00
        E 0 93 2a 55
        E 64 83 2a 00
        E 80 93 2a 55
        E 64 83 2a 00
        E 80 93 2a 55
        E 80 83 2a 00
        E 0 93 2a 22
        E 64 83 2a 00
        E 0 93 2a 55
        E 64 83 2a 00
        E 80 93 2a 55
        E 64 83 2a 00
        E 80 93 2a 55
        E 64 83 2a 00
        E 80 93 2a 55
        E 80 83 2a 00
        E 0 93 2a 22
        E 64 83 2a 00
        E 0 93 2a 55
        E 80 83 2a 00
        E 0 93 2a 22
        E 64 83 2a 00
        E 0 93 2a 55
        E 64 83 2a 00
        E 80 93 2a 55
        E 64 83 2a 00
        E 80 93 2a 55
        E 80 83 2a 00
        E 0 93 2a 22
        E 64 83 2a 00
        E 0 93 2a 55
        E 64 83 2a 00
        E 80 93 2a 55
        E 64 83 2a 00
        E 80 93 2a 55
        E 64 83 2a 00
        E 80 93 2a 55
        E 80 83 2a 00
        E 0 93 2a 22
        E 64 83 2a 00
        E 0 93 2a 55
        E 80 83 2a 00
        E 0 93 2a 22
        E 64 83 2a 00
        E 0 93 2a 55
        E 64 83 2a 00
        E 80 93 2a 55
        E 64 83 2a 00
        E 80 93 2a 55
        E 80 83 2a 00
        E 0 93 2a 22
        E 64 83 2a 00
        E 0 93 2a 55
        E 64 83 2a 00
        E 80 93 2a 55
        E 64 83 2a 00
        E 80 93 2a 55
        E 64 83 2a 00
        E 80 93 2a 55
        E 80 83 2a 00
        E 0 93 2a 22
        E 64 83 2a 00
        E 0 93 2a 55
        E 80 83 2a 00
        E 0 93 2a 22
        E 64 83 2a 00
        E 0 93 2a 55
        E 64 83 2a 00
        E 80 93 2a 55
        E 64 83 2a 00
        E 80 93 2a 55
        E 80 83 2a 00
        E 0 93 2a 22
        E 64 83 2a 00
        E 0 93 2a 55
        E 64 83 2a 00
        E 80 93 2a 55
        E 64 83 2a 00
        E 80 93 2a 55
        E 64 83 2a 00
        E 80 93 2a 55
        E 80 83 2a 00
        E 0 93 2a 22
        E 64 83 2a 00
        E 0 93 2a 55
        E 80 83 2a 00
        E 0 93 2a 22
        E 64 83 2a 00
        E 0 93 2a 55
        E 64 83 2a 00
        E 80 93 2a 55
        E 64 83 2a 00
        E 80 93 2a 55
        E 80 83 2a 00
        E 0 93 2a 22
        E 64 83 2a 00
        E 0 93 2a 55
        E 64 83 2a 00
        E 80 93 2a 55
        E 64 83 2a 00
        E 80 93 2a 55
        E 64 83 2a 00
        E 80 93 2a 55
        E 80 83 2a 00
        E 0 93 2a 22
        E 64 83 2a 00
        E 0 93 2a 55
        E 80 83 2a 00
        E 0 93 2a 22
        E 64 83 2a 00
        E 0 93 2a 55
        E 64 83 2a 00
        E 80 93 2a 55
        E 64 83 2a 00
        E 80 93 2a 55
        E 80 83 2a 00
        E 0 93 2a 22
        E 64 83 2a 00
        E 0 93 2a 55
        E 64 83 2a 00
        E 80 93 2a 55
        E 64 83 2a 00
        E 80 93 2a 55
        E 64 83 2a 00
        E 80 93 2a 55
        E 80 83 2a 00
        E 0 93 2a 22
        E 64 83 2a 00
        E 0 93 2a 55
        E 80 83 2a 00
        E 0 93 2a 22
        E 64 83 2a 00
        E 0 93 2a 55
        E 64 83 2a 00
        E 80 93 2a 55
        E 80 83 2a 00
        E 0 93 2a 22
        E 64 83 2a 00
        E 0 93 2a 55
        E 80 83 2a 00
        E 0 93 2a 22
        E 64 83 2a 00
        E 0 93 2a 55
        E 80 83 2a 00
        E 0 93 2a 22
        E 64 83 2a 00
        E 0 93 2a 55
        E 64 83 2a 00
        E 80 93 2a 55
        E 80 83 2a 00
        E 0 93 2a 11
        E 32 83 2a 00
        E 32 93 2a 55
        E 80 83 2a 00
        E 0 93 2a 11
        E 32 83 2a 00
        E 32 93 2a 55
        E 80 83 2a 00
        E 0 93 2a 11
        E 32 83 2a 00
        E 32 93 2a 55
        E 64 83 2a 00
        E 80 93 2a 55
        E 64 83 2a 00
        E 80 93 2a 55
        E 80 83 2a 00
        E 0 93 2a 22
        E 64 83 2a 00
        E 0 93 2a 55
        E 64 83 2a 00
        E 80 93 2a 55
        E 64 83 2a 00
        E 80 93 2a 55
        E 64 83 2a 00
        E 80 93 2a 55
        E 80 83 2a 00
        E 0 93 2a 22
        E 64 83 2a 00
        E 0 93 2a 55
        E 80 83 2a 00
        E 0 93 2a 22
        E 64 83 2a 00
        E 0 93 2a 55
        E 64 83 2a 00
        E 80 93 2a 55
        E 64 83 2a 00
        E 80 93 2a 55
        E 80 83 2a 00
        E 0 93 2a 22
        E 64 83 2a 00
        E 0 93 2a 55
        E 64 83 2a 00
        E 80 93 2a 55
        E 64 83 2a 00
        E 80 93 2a 55
        E 64 83 2a 00
        E 80 93 2a 55
        E 80 83 2a 00
        E 0 93 2a 22
        E 64 83 2a 00
        E 0 93 2a 55
        E 80 83 2a 00
        E 0 93 2a 22
        E 64 83 2a 00
        E 0 93 2a 55
        E 64 83 2a 00
        E 80 93 2a 55
        E 64 83 2a 00
        E 80 93 2a 55
        E 80 83 2a 00
        E 0 93 2a 22
        E 64 83 2a 00
        E 0 93 2a 55
        E 64 83 2a 00
        E 80 93 2a 55
        E 64 83 2a 00
        E 80 93 2a 55
        E 64 83 2a 00
        E 80 93 2a 55
        E 80 83 2a 00
        E 0 93 2a 22
        E 64 83 2a 00
        E 0 93 2a 55
        E 80 83 2a 00
        E 0 93 2a 22
        E 64 83 2a 00
        E 0 93 2a 55
        E 64 83 2a 00
        E 80 93 2a 55
        E 64 83 2a 00
        E 80 93 2a 55
        E 80 83 2a 00
        E 0 93 2a 22
        E 64 83 2a 00
        E 0 93 2a 55
        E 64 83 2a 00
        E 80 93 2a 55
        E 64 83 2a 00
        E 80 93 2a 55
        E 64 83 2a 00
        E 80 93 2a 55
        E 80 83 2a 00
        E 0 93 2a 22
        E 64 83 2a 00
        E 0 93 2a 55
        E 80 83 2a 00
        E 0 93 2a 22
        E 64 83 2a 00
        E 0 93 2a 55
        E 64 83 2a 00
        E 80 93 2a 55
        E 64 83 2a 00
        E 80 93 2a 55
        E 80 83 2a 00
        E 0 93 2a 22
        E 64 83 2a 00
        E 0 93 2a 55
        E 64 83 2a 00
        E 80 93 2a 55
        E 64 83 2a 00
        E 80 93 2a 55
        E 64 83 2a 00
        E 80 93 2a 55
        E 80 83 2a 00
        E 0 93 2a 22
        E 64 83 2a 00
        E 0 93 2a 55
        E 80 83 2a 00
        E 0 93 2a 22
        E 64 83 2a 00
        E 0 93 2a 55
        E 64 83 2a 00
        E 80 93 2a 55
        E 64 83 2a 00
        E 80 93 2a 55
        E 80 83 2a 00
        E 0 93 2a 22
        E 64 83 2a 00
        E 0 93 2a 55
        E 64 83 2a 00
        E 80 93 2a 55
        E 64 83 2a 00
        E 80 93 2a 55
        E 64 83 2a 00
        E 80 93 2a 55
        E 80 83 2a 00
        E 0 93 2a 22
        E 64 83 2a 00
        E 0 93 2a 55
        E 80 83 2a 00
        E 0 93 2a 22
        E 64 83 2a 00
        E 0 93 2a 55
        E 64 83 2a 00
        E 80 93 2a 55
        E 64 83 2a 00
        E 96 93 2a 55
        E 80 83 2a 00
        E 0 93 2a 22
        E 64 83 2a 00
        E 0 93 2a 55
        E 64 83 2a 00
        E 80 93 2a 55
        E 64 83 2a 00
        E 80 93 2a 55
        E 64 83 2a 00
        E 80 93 2a 55
        E 80 83 2a 00
        E 0 93 2a 22
        E 64 83 2a 00
        E 0 93 2a 55
        E 80 83 2a 00
        E 0 93 2a 22
        E 64 83 2a 00
        E 0 93 2a 55
        E 64 83 2a 00
        E 80 93 2a 55
        E 80 83 2a 00
        E 0 93 2a 22
        E 64 83 2a 00
        E 0 93 2a 55
        E 80 83 2a 00
        E 0 93 2a 22
        E 64 83 2a 00
        E 0 93 2a 55
        E 80 83 2a 00
        E 0 93 2a 22
        E 64 83 2a 00
        E 0 93 2a 55
        E 64 83 2a 00
        E 80 93 2a 55
        E 80 83 2a 00
        E 0 93 2a 22
        E 144 83 2a 00
        E 0 93 2a 22
        E 144 83 2a 00
        E 0 93 2a 22
        E 64 83 2a 00
        E 0 93 2a 55
        E 64 83 2a 00
        E 80 93 2a 55
        E 64 83 2a 00
        E 80 93 2a 55
        E 80 83 2a 00
        E 0 93 2a 22
        E 64 83 2a 00
        E 0 93 2a 55
        E 64 83 2a 00
        E 80 93 2a 55
        E 64 83 2a 00
        E 80 93 2a 55
        E 64 83 2a 00
        E 80 93 2a 55
        E 80 83 2a 00
        E 0 93 2a 22
        E 64 83 2a 00
        E 0 93 2a 55
        E 80 83 2a 00
        E 0 93 2a 22
        E 64 83 2a 00
        E 0 93 2a 55
        E 64 83 2a 00
        E 80 93 2a 55
        E 64 83 2a 00
        E 80 93 2a 55
        E 80 83 2a 00
        E 0 93 2a 22
        E 64 83 2a 00
        E 0 93 2a 55
        E 64 83 2a 00
        E 80 93 2a 55
        E 64 83 2a 00
        E 80 93 2a 55
        E 64 83 2a 00
        E 80 93 2a 55
        E 80 83 2a 00
        E 0 93 2a 22
        E 64 83 2a 00
        E 0 93 2a 55
        E 80 83 2a 00
        E 0 93 2a 22
        E 64 83 2a 00
        E 0 93 2a 55
        E 64 83 2a 00
        E 80 93 2a 55
        E 64 83 2a 00
        E 80 93 2a 55
        E 80 83 2a 00
        E 0 93 2a 22
        E 64 83 2a 00
        E 0 93 2a 55
        E 64 83 2a 00
        E 80 93 2a 55
        E 64 83 2a 00
        E 80 93 2a 55
        E 64 83 2a 00
        E 80 93 2a 55
        E 80 83 2a 00
        E 0 93 2a 22
        E 64 83 2a 00
        E 0 93 2a 55
        E 80 83 2a 00
        E 0 93 2a 22
        E 64 83 2a 00
        E 0 93 2a 55
        E 64 83 2a 00
        E 80 93 2a 55
        E 80 83 2a 00
        E 0 93 2a 22
        E 64 83 2a 00
        E 0 93 2a 55
        E 80 83 2a 00
        E 0 93 2a 22
        E 64 83 2a 00
        E 0 93 2a 55
        E 80 83 2a 00
        E 0 93 2a 22
        E 64 83 2a 00
        E 0 93 2a 55
        E 64 83 2a 00
        E 80 93 2a 55
        E 80 83 2a 00
        E 0 93 2a 22
        E 144 83 2a 00
        E 0 93 2a 22
        E 144 83 2a 00
        E 0 93 2a 22
        E 64 83 2a 00
        E 0 93 2a 55
        E 64 83 2a 00
        E 80 93 2a 55
        E 64 83 2a 00
        E 16 93 2a 44
        E 48 83 2a 00
        E 112 93 2a 44
        E 48 83 2a 00
        E 112 93 2a 44
        E 48 83 2a 00
        E 96 93 2a 55
        E 80 83 2a 00
        E 0 93 2a 22
        E 64 83 2a 00
        E 16 93 2a 44
        E 48 83 2a 00
        E 96 93 2a 44
        E 48 83 2a 00
        E 112 93 2a 44
        E 48 83 2a 00
        E 96 93 2a 44
        E 48 83 2a 00
        E 112 93 2a 44
        E 48 83 2a 00
        E 96 93 2a 44
        E 48 83 2a 00
        E 112 93 2a 55
        E 80 83 2a 00
        E 0 93 2a 22
        E 64 83 2a 00
        E 0 93 2a 44
        E 48 83 2a 00
        E 112 93 2a 44
        E 48 83 2a 00
        E 96 93 2a 44
        E 48 83 2a 00
        E 112 93 2a 44
        E 48 83 2a 00
        E 96 93 2a 44
        E 48 83 2a 00
        E 112 93 2a 44
        E 48 83 2a 00
        E 96 93 2a 44
        E 48 83 2a 00
        E 112 93 2a 44
        E 48 83 2a 00
        E 96 93 2a 55
        E 80 83 2a 00
        E 0 93 2a 22
        E 64 83 2a 00
        E 16 93 2a 44
        E 48 83 2a 00
        E 96 93 2a 44
        E 48 83 2a 00
        E 112 93 2a 44
        E 48 83 2a 00
        E 96 93 2a 44
        E 48 83 2a 00
        E 112 93 2a 44
        E 48 83 2a 00
        E 96 93 2a 44
        E 48 83 2a 00
        E 112 93 2a 55
        E 80 83 2a 00
        E 0 93 2a 22
        E 64 83 2a 00
        E 0 93 2a 44
        E 48 83 2a 00
        E 112 93 2a 44
        E 48 83 2a 00
        E 96 93 2a 44
        E 48 83 2a 00
        E 112 93 2a 44
        E 48 83 2a 00
        E 96 93 2a 44
        E 48 83 2a 00
        E 112 93 2a 44
        E 48 83 2a 00
        E 96 93 2a 44
        E 48 83 2a 00
        E 112 93 2a 44
        E 48 83 2a 00
        E 96 93 2a 55
        E 80 83 2a 00
        E 0 93 2a 22
        E 64 83 2a 00
        E 16 93 2a 44
        E 48 83 2a 00
        E 96 93 2a 44
        E 48 83 2a 00
        E 112 93 2a 44
        E 48 83 2a 00
        E 96 93 2a 44
        E 48 83 2a 00
        E 112 93 2a 44
        E 48 83 2a 00
        E 96 93 2a 44
        E 48 83 2a 00
        E 112 93 2a 55
        E 80 83 2a 00
        E 0 93 2a 22
        E 64 83 2a 00
        E 0 93 2a 44
        E 48 83 2a 00
        E 112 93 2a 44
        E 48 83 2a 00
        E 96 93 2a 44
        E 48 83 2a 00
        E 112 93 2a 44
        E 48 83 2a 00
        E 112 93 2a 44
        E 48 83 2a 00
        E 96 93 2a 44
        E 48 83 2a 00
        E 112 93 2a 44
        E 48 83 2a 00
        E 96 93 2a 44
        E 48 83 2a 00
        E 128 93 2a 7f
        E 64 83 2a 00
        E 0 93 2a 55
        E 16 83 2a 00
        E 0 93 2a 55
        E 32 83 2a 00
        E 0 93 2a 7f
        E 32 83 2a 00
        E 0 93 2a 7f
        E 32 83 2a 00
        E 0 93 2a 7f
        E 32 83 2a 00
        E 0 93 2a 7f
        E 32 83 2a 00
        E 0 93 2a 7f
        E 32 83 2a 00
        E 0 93 2a 7f
        E 32 83 2a 00
        E 0 93 2a 7f
        E 32 83 2a 00
        E 0 93 2a 7f
        E 32 83 2a 00
        E 0 93 2a 7f
        E 64 83 2a 00
        E 0 93 2a 55
        E 16 83 2a 00
        E 0 93 2a 55
        E 32 83 2a 00
        E 0 93 2a 7f
        E 32 83 2a 00
        E 0 93 2a 7f
        E 32 83 2a 00
        E 0 93 2a 7f
        E 32 83 2a 00
        E 0 93 2a 7f
        E 32 83 2a 00
        E 0 93 2a 7f
        E 32 83 2a 00
        E 0 93 2a 7f
        E 32 83 2a 00
        E 0 93 2a 7f
        E 32 83 2a 00
        E 0 93 2a 7f
        E 48 83 2a 00
        E 0 93 2a 7f
        E 64 83 2a 00
        E 0 93 2a 55
        E 16 83 2a 00
        E 0 93 2a 55
        E 32 83 2a 00
        E 0 93 2a 7f
        E 32 83 2a 00
        E 0 93 2a 7f
        E 32 83 2a 00
        E 0 93 2a 7f
        E 32 83 2a 00
        E 0 93 2a 7f
        E 32 83 2a 00
        E 0 93 2a 7f
        E 32 83 2a 00
        E 0 93 2a 7f
        E 32 83 2a 00
        E 0 93 2a 7f
        E 32 83 2a 00
        E 0 93 2a 7f
        E 48 83 2a 00
        E 0 93 2a 7f
        E 64 83 2a 00
        E 0 93 2a 55
        E 16 83 2a 00
        E 0 93 2a 55
        E 32 83 2a 00
        E 0 93 2a 7f
        E 32 83 2a 00
        E 0 93 2a 7f
        E 32 83 2a 00
        E 0 93 2a 7f
        E 32 83 2a 00
        E 0 93 2a 7f
        E 32 83 2a 00
        E 0 93 2a 7f
        E 32 83 2a 00
        E 0 93 2a 7f
        E 32 83 2a 00
        E 0 93 2a 7f
        E 32 83 2a 00
        E 0 93 2a 7f
        E 48 83 2a 00
        E 0 93 2a 7f
        E 64 83 2a 00
        E 0 93 2a 55
        E 16 83 2a 00
        E 0 93 2a 55
        E 32 83 2a 00
        E 0 93 2a 7f
        E 32 83 2a 00
        E 0 93 2a 7f
        E 32 83 2a 00
        E 0 93 2a 7f
        E 32 83 2a 00
        E 0 93 2a 7f
        E 32 83 2a 00
        E 0 93 2a 7f
        E 32 83 2a 00
        E 0 93 2a 7f
        E 32 83 2a 00
        E 0 93 2a 7f
        E 32 83 2a 00
        E 0 93 2a 7f
        E 48 83 2a 00
        E 0 93 2a 7f
        E 64 83 2a 00
        E 0 93 2a 55
        E 16 83 2a 00
        E 0 93 2a 55
        E 32 83 2a 00
        E 0 93 2a 7f
        E 32 83 2a 00
        E 0 93 2a 7f
        E 32 83 2a 00
        E 0 93 2a 7f
        E 32 83 2a 00
        E 0 93 2a 7f
        E 32 83 2a 00
        E 0 93 2a 7f
        E 32 83 2a 00
        E 0 93 2a 7f
        E 32 83 2a 00
        E 0 93 2a 7f
        E 32 83 2a 00
        E 0 93 2a 7f
        E 48 83 2a 00
        E 0 93 2a 7f
        E 64 83 2a 00
        E 0 93 2a 55
        E 16 83 2a 00
        E 0 93 2a 55
        E 32 83 2a 00
        E 0 93 2a 7f
        E 32 83 2a 00
        E 0 93 2a 7f
        E 32 83 2a 00
        E 0 93 2a 7f
        E 32 83 2a 00
        E 0 93 2a 7f
        E 32 83 2a 00
        E 0 93 2a 7f
        E 32 83 2a 00
        E 0 93 2a 7f
        E 32 83 2a 00
        E 0 93 2a 7f
        E 32 83 2a 00
        E 0 93 2a 7f
        E 48 83 2a 00
        E 0 93 2a 7f
        E 64 83 2a 00
        E 0 93 2a 55
        E 16 83 2a 00
        E 0 93 2a 55
        E 32 83 2a 00
        E 0 93 2a 7f
        E 32 83 2a 00
        E 0 93 2a 7f
        E 32 83 2a 00
        E 0 93 2a 7f
        E 32 83 2a 00
        E 0 93 2a 7f
        E 32 83 2a 00
        E 0 93 2a 7f
        E 32 83 2a 00
        E 0 93 2a 7f
        E 32 83 2a 00
        E 0 93 2a 7f
        E 32 83 2a 00
        E 0 93 2a 7f
        E 32 83 2a 00
        E 0 93 2a 7f
        E 32 83 2a 00
        E 0 93 2a 7f
        E 32 83 2a 00
        E 0 93 2a 7f
        E 32 83 2a 00
        E 0 93 2a 7f
        E 16 83 2a 00
        E 176 93 2a 44
        E 48 83 2a 00
        E 96 93 2a 44
        E 48 83 2a 00
        E 112 93 2a 44
        E 48 83 2a 00
        E 96 93 2a 44
        E 48 83 2a 00
        E 112 93 2a 44
        E 48 83 2a 00
        E 96 93 2a 44
        E 48 83 2a 00
        E 112 93 2a 44
        E 48 83 2a 00
        E 96 93 2a 44
        E 80 83 2a 00
        E 0 93 2a 11
        E 32 83 2a 00
        E 48 93 2a 44
        E 48 83 2a 00
        E 96 93 2a 44
        E 48 83 2a 00
        E 112 93 2a 44
        E 48 83 2a 00
        E 96 93 2a 44
        E 48 83 2a 00
        E 112 93 2a 44
        E 48 83 2a 00
        E 96 93 2a 4c
        E 80 83 2a 00
        E 0 93 2a 19
        E 48 83 2a 00
        E 336 93 2a 44
        E 48 83 2a 00
        E 96 93 2a 44
        E 48 83 2a 00
        E 112 93 2a 44
        E 48 83 2a 00
        E 96 93 2a 44
        E 48 83 2a 00
        E 112 93 2a 44
        E 48 83 2a 00
        E 112 93 2a 44
        E 48 83 2a 00
        E 96 93 2a 44
        E 48 83 2a 00
        E 112 93 2a 44
        E 48 83 2a 00
        E 96 93 2a 44
        E 48 83 2a 00
        E 112 93 2a 44
        E 48 83 2a 00
        E 96 93 2a 44
        E 48 83 2a 00
        E 112 93 2a 44
        E 48 83 2a 00
        E 96 93 2a 44
        E 48 83 2a 00
        E 112 93 2a 44
        E 48 83 2a 00
        E 64 b3 7b 00
        E 0 ff 2f 00
      >
    >
  >
>