<REAPER_PROJECT 0.1 "7.27/win64" 1707000000
  <NOTES 0 2
    |ReapNES Studio Project
    |MIDI Import - Solstice_title_rom_v1
  >
  RIPPLE 0
  GROUPOVERRIDE 0 0 0
  AUTOXFADE 129
  ENVATTACH 3
  POOLEDENVATTACH 0
  MIXERUIFLAGS 11 48
  ENVFADESZ10 40
  PEAKGAIN 1
  FEEDBACK 0
  PANLAW 1
  PROJOFFS 0 0 0
  MAXPROJLEN 0 0
  GRID 3199 8 1 8 1 0 0 0
  TIMEMODE 1 5 -1 30 0 0 -1
  VIDEO_CONFIG 0 0 65792
  PANMODE 3
  PANLAWFLAGS 3
  CURSOR 0
  ZOOM 100 0 0
  VZOOMEX 6 0
  USE_REC_CFG 0
  RECMODE 1
  SMPTESYNC 0 30 100 40 1000 300 0 0 1 0 0
  LOOP 0
  LOOPGRAN 0 4
  RECORD_PATH "Media" ""
  <RECORD_CFG
    ZXZhdxgAAQ==
  >
  <APPLYFX_CFG
  >
  RENDER_FILE ""
  RENDER_PATTERN ""
  RENDER_FMT 0 2 0
  RENDER_1X 0
  RENDER_RANGE 1 0 0 18 1000
  RENDER_RESAMPLE 3 0 1
  RENDER_ADDTOPROJ 0
  RENDER_STEMS 0
  RENDER_DITHER 0
  TIMELOCKMODE 1
  TEMPOENVLOCKMODE 1
  ITEMMIX 1
  DEFPITCHMODE 589824 0
  TAKELANE 1
  SAMPLERATE 44100 0 0
  <RENDER_CFG
    ZXZhdxgAAQ==
  >
  LOCK 1
  <METRONOME 6 2
    VOL 0.25 0.125
    BEATLEN 4
    FREQ 1760 880 1
    SAMPLES "" ""
    SPLIGNORE 0 0
    SPLDEF 2 660 "" 0
    SPLDEF 3 440 "" 0
    PATTERN 0 169
    PATTERNSTR ABBB
    MULT 1
  >
  GLOBAL_AUTO -1
  TEMPO 128.59999614200012 4 4
  PLAYRATE 1 0 0.25 4
  SELECTION 0 0
  SELECTION2 0 0
  MASTERAUTOMODE 0
  MASTERTRACKHEIGHT 0 0
  MASTERPEAKCOL 16576
  MASTERMUTESOLO 0
  MASTERTRACKVIEW 0 0.6667 0.5 0.5 0 0 0 0 0 0 0 0 0 0
  MASTERHWOUT 0 0 1 0 0 0 0 -1
  MASTER_NCH 2 2
  MASTER_VOLUME 1 0 -1 -1 1
  MASTER_PANMODE 3
  MASTER_PANLAWFLAGS 3
  MASTER_FX 1
  MASTER_SEL 0
  <MASTERPLAYSPEEDENV
    EGUID {6F968910-CD4B-4411-B2ED-C73A49042799}
    ACT 0 -1
    VIS 0 1 1
    LANEHEIGHT 0 0
    ARM 0
    DEFSHAPE 0 -1 -1
  >
  <TEMPOENVEX
    EGUID {12CC6050-2514-40FE-A649-CD8731988B40}
    ACT 1 -1
    VIS 1 0 1
    LANEHEIGHT 0 0
    ARM 0
    DEFSHAPE 1 -1 -1
  >
  <PROJBAY
  >
  <TRACK {2743D205-32B8-42C5-B0F7-201CCE6AFF6C}
    NAME "NES - Pulse 1 [ch0]"
    PEAKCOL 16576606
    BEAT -1
    AUTOMODE 0
    PANLAWFLAGS 3
    VOLPAN 1 0 -1 -1 1
    MUTESOLO 0 0 0
    IPHASE 0
    PLAYOFFS 0 1
    ISBUS 0 0
    BUSCOMP 0 0 0 0 0
    SHOWINMIX 1 0.6667 0.5 1 0.5 0 0 0
    FIXEDLANES 9 0 0 0 0
    SEL 1
    REC 1 5088 1 0 0 0 0 0
    VU 2
    TRACKHEIGHT 0 0 0 0 0 0 0
    INQ 0 0 0 0.5 100 0 0 100
    NCHAN 2
    FX 1
    TRACKID {2743D205-32B8-42C5-B0F7-201CCE6AFF6C}
    PERF 0
    MIDIOUT -1
    MAINSEND 1 0
    <FXCHAIN
      WNDRECT 24 52 700 560
      SHOW 0
      LASTSEL 0
      DOCKED 0
      BYPASS 0 0 0
      <JS "ReapNES Studio/ReapNES_Console.jsfx" ""
        2 15 1 10 80 10 100 2 1 15 1 5 60 10 80 1 1 0 50 0 0 15 1 0 100 0 0 0.500000 0.500000 0.400000 0.300000 0.800000 0 1 0 0 0 0 - - - - - - - - - - - - - - - - - - - - - - - - - -
      >
      FLOATPOS 0 0 0 0
      FXID {5D0DF5C6-A7A1-4023-8927-7E643378515C}
      WAK 0 0
    >
    <ITEM
      POSITION 0
      LENGTH 74.0902044
      LOOP 0
      ALLTAKES 0
      FADEIN 0 0 0 0 0 0 0
      FADEOUT 0 0 0 0 0 0 0
      MUTE 0 0
      SEL 0
      IGUID {E16DFBF3-FEF0-4CA2-A915-B3DC35E71C19}
      <SOURCE MIDI
        HASDATA 1 480 QN
        CCINTERP 32
        E 0 c0 50
        E 0 b0 0c 10
        E 0 b0 0b 08
        E 0 90 2b 08
        E 16 b0 0b 11
        E 2528 b0 0b 08
        E 16 80 2b 00
        E 0 90 30 08
        E 16 b0 0b 11
        E 224 b0 0b 08
        E 32 b0 0b 11
        E 64 b0 0b 08
        E 16 80 30 00
        E 32 90 30 08
        E 16 b0 0b 11
        E 64 b0 0b 08
        E 16 80 30 00
        E 32 90 30 08
        E 16 b0 0b 11
        E 224 b0 0b 08
        E 32 b0 0b 11
        E 48 b0 0b 08
        E 16 80 30 00
        E 176 90 30 08
        E 16 b0 0b 11
        E 48 b0 0b 08
        E 16 80 30 00
        E 176 90 30 08
        E 16 b0 0b 11
        E 48 b0 0b 08
        E 16 80 30 00
        E 176 90 2b 08
        E 16 b0 0b 11
        E 1504 b0 0b 08
        E 32 b0 0b 11
        E 480 b0 0b 08
        E 16 80 2b 00
        E 0 90 18 08
        E 16 b0 0b 11
        E 480 b0 0b 08
        E 16 b0 0c 40
        E 0 b0 0b 22
        E 0 80 18 00
        E 0 90 34 22
        E 32 80 34 00
        E 0 90 40 22
        E 16 80 40 00
        E 0 90 38 22
        E 32 80 38 00
        E 0 90 44 22
        E 640 80 44 00
        E 0 90 36 22
        E 32 80 36 00
        E 0 90 42 22
        E 16 80 42 00
        E 0 90 34 22
        E 32 80 34 00
        E 0 90 40 22
        E 736 b0 0c 60
        E 0 b0 0b 11
        E 96 b0 0b 19
        E 384 b0 0b 22
        E 384 b0 0b 2a
        E 384 b0 0b 33
        E 288 b0 0c 40
        E 0 b0 0b 22
        E 0 80 40 00
        E 0 90 34 22
        E 32 80 34 00
        E 0 90 40 22
        E 16 80 40 00
        E 0 90 36 22
        E 32 80 36 00
        E 0 90 42 22
        E 640 80 42 00
        E 0 90 38 22
        E 32 80 38 00
        E 0 90 44 22
        E 16 80 44 00
        E 0 90 32 22
        E 32 80 32 00
        E 0 90 3e 22
        E 16 80 3e 00
        E 0 90 37 22
        E 32 80 37 00
        E 0 90 43 22
        E 640 80 43 00
        E 0 90 37 22
        E 32 80 37 00
        E 0 90 43 22
        E 16 b0 0b 11
        E 16 b0 0b 22
        E 160 b0 0b 11
        E 32 b0 0b 22
        E 32 b0 0b 11
        E 32 b0 0b 22
        E 32 b0 0b 11
        E 32 b0 0b 22
        E 32 b0 0b 11
        E 32 b0 0b 22
        E 160 b0 0b 11
        E 32 b0 0b 22
        E 160 b0 0b 11
        E 32 b0 0b 22
        E 32 b0 0b 11
        E 32 b0 0b 22
        E 32 b0 0b 11
        E 32 b0 0b 22
        E 32 b0 0b 11
        E 32 b0 0b 22
        E 160 b0 0b 11
        E 32 b0 0b 22
        E 160 b0 0b 11
        E 32 b0 0b 22
        E 96 b0 0b 11
        E 16 80 43 00
        E 64 b0 0b 22
        E 0 90 34 22
        E 32 80 34 00
        E 0 90 40 22
        E 16 80 40 00
        E 0 90 38 22
        E 32 80 38 00
        E 0 90 44 22
        E 640 80 44 00
        E 0 90 36 22
        E 32 80 36 00
        E 0 90 42 22
        E 16 80 42 00
        E 0 90 34 22
        E 32 80 34 00
        E 0 90 40 22
        E 736 b0 0c 60
        E 0 b0 0b 11
        E 96 b0 0b 19
        E 384 b0 0b 22
        E 384 b0 0b 2a
        E 384 b0 0b 33
        E 288 b0 0c 40
        E 0 b0 0b 22
        E 0 80 40 00
        E 0 90 34 22
        E 32 80 34 00
        E 0 90 40 22
        E 16 80 40 00
        E 0 90 36 22
        E 32 80 36 00
        E 0 90 42 22
        E 640 80 42 00
        E 0 90 38 22
        E 32 80 38 00
        E 0 90 44 22
        E 16 80 44 00
        E 0 90 32 22
        E 32 80 32 00
        E 0 90 3e 22
        E 16 80 3e 00
        E 0 90 37 22
        E 32 80 37 00
        E 0 90 43 22
        E 640 80 43 00
        E 0 90 37 22
        E 32 80 37 00
        E 0 90 43 22
        E 16 b0 0b 11
        E 16 b0 0b 22
        E 160 b0 0b 11
        E 32 b0 0b 22
        E 32 b0 0b 11
        E 32 b0 0b 22
        E 32 b0 0b 11
        E 32 b0 0b 22
        E 32 b0 0b 11
        E 32 b0 0b 22
        E 160 b0 0b 11
        E 32 b0 0b 22
        E 160 b0 0b 11
        E 32 b0 0b 22
        E 32 b0 0b 11
        E 32 b0 0b 22
        E 32 b0 0b 11
        E 32 b0 0b 22
        E 32 b0 0b 11
        E 32 b0 0b 22
        E 160 b0 0b 11
        E 32 b0 0b 22
        E 160 b0 0b 11
        E 32 b0 0b 22
        E 96 b0 0b 11
        E 16 80 43 00
        E 64 b0 0b 08
        E 0 90 43 08
        E 16 b0 0b 11
        E 160 b0 0b 08
        E 32 b0 0b 11
        E 160 b0 0b 08
        E 32 b0 0b 11
        E 32 b0 0b 08
        E 32 b0 0b 11
        E 32 b0 0b 08
        E 32 b0 0b 11
        E 32 b0 0b 08
        E 32 b0 0b 11
        E 160 b0 0b 08
        E 32 b0 0b 11
        E 160 b0 0b 08
        E 32 b0 0b 11
        E 32 b0 0b 08
        E 32 b0 0b 11
        E 32 b0 0b 08
        E 32 b0 0b 11
        E 32 b0 0b 08
        E 32 b0 0b 11
        E 160 b0 0b 08
        E 32 b0 0b 11
        E 160 b0 0b 08
        E 32 b0 0b 11
        E 32 b0 0b 08
        E 32 b0 0b 11
        E 32 b0 0b 08
        E 32 b0 0b 11
        E 32 b0 0b 08
        E 32 b0 0b 11
        E 160 b0 0b 08
        E 32 b0 0b 11
        E 160 b0 0b 08
        E 32 b0 0b 11
        E 32 b0 0b 08
        E 32 b0 0b 11
        E 32 b0 0b 08
        E 32 b0 0b 11
        E 32 b0 0b 08
        E 16 80 43 00
        E 0 90 37 08
        E 16 b0 0b 11
        E 160 b0 0b 08
        E 16 80 37 00
        E 0 90 3b 08
        E 16 b0 0b 11
        E 80 b0 0b 08
        E 16 80 3b 00
        E 80 90 3b 08
        E 16 b0 0b 11
        E 32 b0 0b 08
        E 32 b0 0b 11
        E 32 b0 0b 08
        E 32 b0 0b 11
        E 32 b0 0b 08
        E 16 80 3b 00
        E 0 90 36 08
        E 16 b0 0b 11
        E 160 b0 0b 08
        E 16 b0 0b 19
        E 336 b0 0b 08
        E 16 80 36 00
        E 32 b0 0b 19
        E 0 90 3b 19
        E 336 b0 0b 08
        E 16 80 3b 00
        E 32 b0 0b 19
        E 0 90 3b 19
        E 336 b0 0b 08
        E 16 80 3b 00
        E 32 b0 0b 19
        E 0 90 3b 19
        E 336 b0 0b 08
        E 16 80 3b 00
        E 32 b0 0b 19
        E 0 90 3b 19
        E 336 b0 0b 08
        E 16 80 3b 00
        E 32 b0 0b 19
        E 0 90 3b 19
        E 320 b0 0b 08
        E 16 80 3b 00
        E 48 b0 0b 19
        E 0 90 3b 19
        E 768 80 3b 00
        E 0 90 34 19
        E 336 b0 0b 08
        E 16 80 34 00
        E 32 b0 0b 19
        E 0 90 3b 19
        E 336 b0 0b 08
        E 16 80 3b 00
        E 32 b0 0b 19
        E 0 90 3b 19
        E 336 b0 0b 08
        E 16 80 3b 00
        E 32 b0 0b 19
        E 0 90 3b 19
        E 336 b0 0b 08
        E 16 80 3b 00
        E 32 b0 0b 19
        E 0 90 3b 19
        E 336 b0 0b 08
        E 16 80 3b 00
        E 32 b0 0b 19
        E 0 90 3b 19
        E 320 b0 0b 08
        E 16 80 3b 00
        E 48 b0 0b 19
        E 0 90 3b 19
        E 768 80 3b 00
        E 0 90 34 19
        E 336 b0 0b 08
        E 16 80 34 00
        E 32 b0 0b 19
        E 0 90 3b 19
        E 336 b0 0b 08
        E 16 80 3b 00
        E 32 b0 0b 19
        E 0 90 3b 19
        E 336 b0 0b 08
        E 16 80 3b 00
        E 32 b0 0b 19
        E 0 90 3b 19
        E 336 b0 0b 08
        E 16 80 3b 00
        E 32 b0 0b 19
        E 0 90 3b 19
        E 336 b0 0b 08
        E 16 80 3b 00
        E 32 b0 0b 19
        E 0 90 3b 19
        E 320 b0 0b 08
        E 16 80 3b 00
        E 48 b0 0b 19
        E 0 90 3b 19
        E 768 80 3b 00
        E 0 90 34 19
        E 336 b0 0b 08
        E 16 80 34 00
        E 32 b0 0b 19
        E 0 90 3b 19
        E 336 b0 0b 08
        E 16 80 3b 00
        E 32 b0 0b 19
        E 0 90 3b 19
        E 336 b0 0b 08
        E 16 80 3b 00
        E 32 b0 0b 19
        E 0 90 3b 19
        E 336 b0 0b 08
        E 16 80 3b 00
        E 32 b0 0b 19
        E 0 90 3b 19
        E 336 b0 0b 08
        E 16 80 3b 00
        E 32 b0 0b 19
        E 0 90 3b 19
        E 320 b0 0b 08
        E 16 80 3b 00
        E 48 b0 0b 19
        E 0 90 3b 19
        E 768 b0 0c 10
        E 0 b0 0b 22
        E 0 80 3b 00
        E 0 90 2a 22
        E 48 80 2a 00
        E 0 90 32 22
        E 32 b0 0b 19
        E 16 80 32 00
        E 0 90 2a 19
        E 48 80 2a 00
        E 0 90 32 19
        E 32 b0 0b 11
        E 16 80 32 00
        E 0 90 2a 11
        E 48 80 2a 00
        E 0 90 32 11
        E 16 b0 0b 22
        E 0 80 32 00
        E 0 90 28 22
        E 48 80 28 00
        E 0 90 31 22
        E 32 b0 0b 19
        E 16 80 31 00
        E 0 90 28 19
        E 32 b0 0b 22
        E 48 80 28 00
        E 0 90 32 22
        E 32 b0 0b 19
        E 16 80 32 00
        E 0 90 2a 19
        E 48 80 2a 00
        E 0 90 32 19
        E 32 b0 0b 11
        E 16 80 32 00
        E 0 90 2a 11
        E 48 80 2a 00
        E 0 90 32 11
        E 16 b0 0b 22
        E 0 80 32 00
        E 0 90 2c 22
        E 48 80 2c 00
        E 0 90 34 22
        E 32 b0 0b 19
        E 16 80 34 00
        E 0 90 2c 19
        E 32 b0 0b 22
        E 0 80 2c 00
        E 0 90 2d 22
        E 80 b0 0b 19
        E 48 b0 0b 22
        E 0 80 2d 00
        E 0 90 2c 22
        E 48 80 2c 00
        E 0 90 34 22
        E 32 b0 0b 19
        E 16 80 34 00
        E 0 90 2c 19
        E 32 b0 0b 22
        E 48 80 2c 00
        E 0 90 32 22
        E 32 b0 0b 19
        E 16 80 32 00
        E 0 90 2a 19
        E 48 80 2a 00
        E 0 90 32 19
        E 32 b0 0b 11
        E 16 80 32 00
        E 0 90 2a 11
        E 48 80 2a 00
        E 0 90 32 11
        E 16 b0 0b 22
        E 0 80 32 00
        E 0 90 28 22
        E 48 80 28 00
        E 0 90 31 22
        E 32 b0 0b 19
        E 16 80 31 00
        E 0 90 28 19
        E 48 80 28 00
        E 0 90 31 19
        E 32 b0 0b 11
        E 16 80 31 00
        E 0 90 28 11
        E 48 80 28 00
        E 0 90 31 11
        E 16 b0 0b 22
        E 0 80 31 00
        E 0 90 2a 22
        E 48 80 2a 00
        E 0 90 32 22
        E 32 b0 0b 19
        E 16 80 32 00
        E 0 90 2a 19
        E 48 80 2a 00
        E 0 90 32 19
        E 32 b0 0b 11
        E 16 80 32 00
        E 0 90 2a 11
        E 48 80 2a 00
        E 0 90 32 11
        E 32 b0 0b 08
        E 16 80 32 00
        E 0 90 2a 08
        E 48 80 2a 00
        E 0 90 32 08
        E 32 80 32 00
        E 16 b0 0b 22
        E 0 90 32 22
        E 80 b0 0b 19
        E 96 b0 0b 11
        E 96 b0 0b 08
        E 96 80 32 00
        E 16 b0 0b 22
        E 0 90 32 22
        E 80 b0 0b 19
        E 96 b0 0b 11
        E 96 b0 0b 08
        E 96 80 32 00
        E 16 b0 0b 22
        E 0 90 2c 22
        E 48 80 2c 00
        E 0 90 34 22
        E 32 b0 0b 19
        E 16 80 34 00
        E 0 90 2c 19
        E 48 80 2c 00
        E 0 90 34 19
        E 32 b0 0b 11
        E 16 80 34 00
        E 0 90 2c 11
        E 48 80 2c 00
        E 0 90 34 11
        E 32 b0 0b 08
        E 16 80 34 00
        E 0 90 2c 08
        E 48 80 2c 00
        E 0 90 34 08
        E 32 80 34 00
        E 16 b0 0b 22
        E 0 90 2a 22
        E 48 80 2a 00
        E 0 90 32 22
        E 32 b0 0b 19
        E 16 80 32 00
        E 0 90 2a 19
        E 48 80 2a 00
        E 0 90 32 19
        E 32 b0 0b 11
        E 16 80 32 00
        E 0 90 2a 11
        E 48 80 2a 00
        E 0 90 32 11
        E 16 b0 0b 22
        E 0 80 32 00
        E 0 90 28 22
        E 48 80 28 00
        E 0 90 31 22
        E 32 b0 0b 19
        E 16 80 31 00
        E 0 90 28 19
        E 32 b0 0b 22
        E 48 80 28 00
        E 0 90 32 22
        E 32 b0 0b 19
        E 16 80 32 00
        E 0 90 2a 19
        E 48 80 2a 00
        E 0 90 32 19
        E 32 b0 0b 11
        E 16 80 32 00
        E 0 90 2a 11
        E 48 80 2a 00
        E 0 90 32 11
        E 16 b0 0b 22
        E 0 80 32 00
        E 0 90 2c 22
        E 48 80 2c 00
        E 0 90 34 22
        E 32 b0 0b 19
        E 16 80 34 00
        E 0 90 2c 19
        E 32 b0 0b 22
        E 0 80 2c 00
        E 0 90 2d 22
        E 80 b0 0b 19
        E 48 b0 0b 22
        E 0 80 2d 00
        E 0 90 2c 22
        E 48 80 2c 00
        E 0 90 34 22
        E 32 b0 0b 19
        E 16 80 34 00
        E 0 90 2c 19
        E 32 b0 0b 22
        E 48 80 2c 00
        E 0 90 32 22
        E 32 b0 0b 19
        E 16 80 32 00
        E 0 90 2a 19
        E 48 80 2a 00
        E 0 90 32 19
        E 32 b0 0b 11
        E 16 80 32 00
        E 0 90 2a 11
        E 48 80 2a 00
        E 0 90 32 11
        E 16 b0 0b 22
        E 0 80 32 00
        E 0 90 28 22
        E 48 80 28 00
        E 0 90 31 22
        E 32 b0 0b 19
        E 16 80 31 00
        E 0 90 28 19
        E 48 80 28 00
        E 0 90 31 19
        E 32 b0 0b 11
        E 16 80 31 00
        E 0 90 28 11
        E 48 80 28 00
        E 0 90 31 11
        E 16 b0 0b 22
        E 0 80 31 00
        E 0 90 2a 22
        E 48 80 2a 00
        E 0 90 32 22
        E 32 b0 0b 19
        E 16 80 32 00
        E 0 90 2a 19
        E 48 80 2a 00
        E 0 90 32 19
        E 32 b0 0b 11
        E 16 80 32 00
        E 0 90 2a 11
        E 48 80 2a 00
        E 0 90 32 11
        E 32 b0 0b 08
        E 16 80 32 00
        E 0 90 2a 08
        E 48 80 2a 00
        E 0 90 32 08
        E 32 80 32 00
        E 16 b0 0b 22
        E 0 90 32 22
        E 80 b0 0b 19
        E 96 b0 0b 11
        E 96 b0 0b 08
        E 96 80 32 00
        E 16 b0 0b 22
        E 0 90 32 22
        E 80 b0 0b 19
        E 96 b0 0b 11
        E 96 b0 0b 08
        E 96 80 32 00
        E 16 b0 0b 22
        E 0 90 2c 22
        E 48 80 2c 00
        E 0 90 34 22
        E 32 b0 0b 19
        E 16 80 34 00
        E 0 90 2c 19
        E 48 80 2c 00
        E 0 90 34 19
        E 32 b0 0b 11
        E 16 80 34 00
        E 0 90 2c 11
        E 48 80 2c 00
        E 0 90 34 11
        E 32 b0 0b 08
        E 16 80 34 00
        E 0 90 2c 08
        E 48 80 2c 00
        E 0 90 34 08
        E 32 80 34 00
        E 16 b0 0b 22
        E 0 90 2a 22
        E 48 80 2a 00
        E 0 90 32 22
        E 32 b0 0b 19
        E 16 80 32 00
        E 0 90 2a 19
        E 48 80 2a 00
        E 0 90 32 19
        E 32 b0 0b 11
        E 16 80 32 00
        E 0 90 2a 11
        E 48 80 2a 00
        E 0 90 32 11
        E 16 b0 0b 22
        E 0 80 32 00
        E 0 90 28 22
        E 48 80 28 00
        E 0 90 31 22
        E 32 b0 0b 19
        E 16 80 31 00
        E 0 90 28 19
        E 32 b0 0b 22
        E 48 80 28 00
        E 0 90 32 22
        E 32 b0 0b 19
        E 16 80 32 00
        E 0 90 2a 19
        E 48 80 2a 00
        E 0 90 32 19
        E 32 b0 0b 11
        E 16 80 32 00
        E 0 90 2a 11
        E 48 80 2a 00
        E 0 90 32 11
        E 16 b0 0b 22
        E 0 80 32 00
        E 0 90 2c 22
        E 48 80 2c 00
        E 0 90 34 22
        E 32 b0 0b 19
        E 16 80 34 00
        E 0 90 2c 19
        E 32 b0 0b 22
        E 0 80 2c 00
        E 0 90 2d 22
        E 80 b0 0b 19
        E 48 b0 0b 22
        E 0 80 2d 00
        E 0 90 2c 22
        E 48 80 2c 00
        E 0 90 34 22
        E 32 b0 0b 19
        E 16 80 34 00
        E 0 90 2c 19
        E 32 b0 0b 22
        E 48 80 2c 00
        E 0 90 32 22
        E 32 b0 0b 19
        E 16 80 32 00
        E 0 90 2a 19
        E 48 80 2a 00
        E 0 90 32 19
        E 32 b0 0b 11
        E 16 80 32 00
        E 0 90 2a 11
        E 48 80 2a 00
        E 0 90 32 11
        E 16 b0 0b 22
        E 0 80 32 00
        E 0 90 28 22
        E 48 80 28 00
        E 0 90 31 22
        E 32 b0 0b 19
        E 16 80 31 00
        E 0 90 28 19
        E 48 80 28 00
        E 0 90 31 19
        E 32 b0 0b 11
        E 16 80 31 00
        E 0 90 28 11
        E 48 80 28 00
        E 0 90 31 11
        E 16 b0 0b 22
        E 0 80 31 00
        E 0 90 2a 22
        E 48 80 2a 00
        E 0 90 32 22
        E 32 b0 0b 19
        E 16 80 32 00
        E 0 90 2a 19
        E 48 80 2a 00
        E 0 90 32 19
        E 32 b0 0b 11
        E 16 80 32 00
        E 0 90 2a 11
        E 48 80 2a 00
        E 0 90 32 11
        E 32 b0 0b 08
        E 16 80 32 00
        E 0 90 2a 08
        E 48 80 2a 00
        E 0 90 32 08
        E 32 80 32 00
        E 16 b0 0b 22
        E 0 90 32 22
        E 80 b0 0b 19
        E 96 b0 0b 11
        E 96 b0 0b 08
        E 96 80 32 00
        E 16 b0 0b 22
        E 0 90 32 22
        E 80 b0 0b 19
        E 96 b0 0b 11
        E 96 b0 0b 08
        E 96 80 32 00
        E 16 b0 0b 22
        E 0 90 2c 22
        E 48 80 2c 00
        E 0 90 34 22
        E 32 b0 0b 19
        E 16 80 34 00
        E 0 90 2c 19
        E 48 80 2c 00
        E 0 90 34 19
        E 32 b0 0b 11
        E 16 80 34 00
        E 0 90 2c 11
        E 48 80 2c 00
        E 0 90 34 11
        E 32 b0 0b 08
        E 16 80 34 00
        E 0 90 2c 08
        E 48 80 2c 00
        E 0 90 34 08
        E 32 80 34 00
        E 16 b0 0b 22
        E 0 90 2a 22
        E 48 80 2a 00
        E 0 90 32 22
        E 32 b0 0b 19
        E 16 80 32 00
        E 0 90 2a 19
        E 48 80 2a 00
        E 0 90 32 19
        E 32 b0 0b 11
        E 16 80 32 00
        E 0 90 2a 11
        E 48 80 2a 00
        E 0 90 32 11
        E 16 b0 0b 22
        E 0 80 32 00
        E 0 90 28 22
        E 48 80 28 00
        E 0 90 31 22
        E 32 b0 0b 19
        E 16 80 31 00
        E 0 90 28 19
        E 32 b0 0b 22
        E 48 80 28 00
        E 0 90 32 22
        E 32 b0 0b 19
        E 16 80 32 00
        E 0 90 2a 19
        E 48 80 2a 00
        E 0 90 32 19
        E 32 b0 0b 11
        E 16 80 32 00
        E 0 90 2a 11
        E 48 80 2a 00
        E 0 90 32 11
        E 16 b0 0b 22
        E 0 80 32 00
        E 0 90 2c 22
        E 48 80 2c 00
        E 0 90 34 22
        E 32 b0 0b 19
        E 16 80 34 00
        E 0 90 2c 19
        E 32 b0 0b 22
        E 0 80 2c 00
        E 0 90 2d 22
        E 80 b0 0b 19
        E 48 b0 0b 22
        E 0 80 2d 00
        E 0 90 2c 22
        E 48 80 2c 00
        E 0 90 34 22
        E 32 b0 0b 19
        E 16 80 34 00
        E 0 90 2c 19
        E 32 b0 0b 22
        E 48 80 2c 00
        E 0 90 32 22
        E 32 b0 0b 19
        E 16 80 32 00
        E 0 90 2a 19
        E 48 80 2a 00
        E 0 90 32 19
        E 32 b0 0b 11
        E 16 80 32 00
        E 0 90 2a 11
        E 48 80 2a 00
        E 0 90 32 11
        E 16 b0 0b 22
        E 0 80 32 00
        E 0 90 28 22
        E 48 80 28 00
        E 0 90 31 22
        E 32 b0 0b 19
        E 16 80 31 00
        E 0 90 28 19
        E 48 80 28 00
        E 0 90 31 19
        E 32 b0 0b 11
        E 16 80 31 00
        E 0 90 28 11
        E 48 80 28 00
        E 0 90 31 11
        E 16 b0 0b 22
        E 0 80 31 00
        E 0 90 2a 22
        E 48 80 2a 00
        E 0 90 32 22
        E 32 b0 0b 19
        E 16 80 32 00
        E 0 90 2a 19
        E 48 80 2a 00
        E 0 90 32 19
        E 32 b0 0b 11
        E 16 80 32 00
        E 0 90 2a 11
        E 48 80 2a 00
        E 0 90 32 11
        E 32 b0 0b 08
        E 16 80 32 00
        E 0 90 2a 08
        E 48 80 2a 00
        E 0 90 32 08
        E 32 80 32 00
        E 16 b0 0b 22
        E 0 90 32 22
        E 80 b0 0b 19
        E 96 b0 0b 11
        E 96 b0 0b 08
        E 96 80 32 00
        E 16 b0 0b 22
        E 0 90 32 22
        E 80 b0 0b 19
        E 96 b0 0b 11
        E 96 b0 0b 08
        E 96 80 32 00
        E 16 b0 0b 22
        E 0 90 2c 22
        E 48 80 2c 00
        E 0 90 34 22
        E 32 b0 0b 19
        E 16 80 34 00
        E 0 90 2c 19
        E 48 80 2c 00
        E 0 90 34 19
        E 32 b0 0b 11
        E 16 80 34 00
        E 0 90 2c 11
        E 48 80 2c 00
        E 0 90 34 11
        E 32 b0 0b 08
        E 16 80 34 00
        E 0 90 2c 08
        E 48 80 2c 00
        E 0 90 34 08
        E 32 80 34 00
        E 16 90 34 08
        E 64 80 34 00
        E 0 90 2c 08
        E 32 80 2c 00
        E 0 90 36 08
        E 64 80 36 00
        E 0 90 2c 08
        E 32 80 2c 00
        E 0 90 36 08
        E 48 b0 0b 11
        E 16 80 36 00
        E 0 90 2c 11
        E 32 80 2c 00
        E 0 90 36 11
        E 64 80 36 00
        E 0 90 2c 11
        E 32 80 2c 00
        E 0 90 36 11
        E 64 80 36 00
        E 0 90 2c 11
        E 32 80 2c 00
        E 0 90 36 11
        E 16 b0 0b 19
        E 48 80 36 00
        E 0 90 2c 19
        E 32 80 2c 00
        E 0 90 36 19
        E 64 80 36 00
        E 0 90 2c 19
        E 32 80 2c 00
        E 0 90 36 19
        E 64 80 36 00
        E 0 90 2c 19
        E 16 b0 0b 22
        E 16 b0 0b 19
        E 0 80 2c 00
        E 0 90 39 19
        E 32 80 39 00
        E 0 90 34 19
        E 64 80 34 00
        E 0 90 39 19
        E 32 80 39 00
        E 0 90 34 19
        E 64 80 34 00
        E 0 90 39 19
        E 32 80 39 00
        E 0 90 34 19
        E 64 80 34 00
        E 0 90 39 19
        E 32 80 39 00
        E 0 90 34 19
        E 64 80 34 00
        E 0 90 39 19
        E 32 80 39 00
        E 0 90 34 19
        E 64 80 34 00
        E 0 90 39 19
        E 32 80 39 00
        E 0 90 34 19
        E 64 80 34 00
        E 0 90 39 19
        E 32 80 39 00
        E 0 90 34 19
        E 64 80 34 00
        E 0 90 39 19
        E 32 80 39 00
        E 0 90 34 19
        E 64 80 34 00
        E 0 90 3b 19
        E 32 80 3b 00
        E 0 90 36 19
        E 64 80 36 00
        E 0 90 3b 19
        E 32 80 3b 00
        E 0 90 36 19
        E 64 80 36 00
        E 0 90 3b 19
        E 32 80 3b 00
        E 0 90 36 19
        E 64 80 36 00
        E 0 90 3b 19
        E 32 80 3b 00
        E 0 90 36 19
        E 64 80 36 00
        E 0 90 3b 19
        E 32 80 3b 00
        E 0 90 36 19
        E 64 80 36 00
        E 0 90 3b 19
        E 32 80 3b 00
        E 0 90 36 19
        E 64 80 36 00
        E 0 90 3b 19
        E 32 80 3b 00
        E 0 90 36 19
        E 64 80 36 00
        E 0 90 3b 19
        E 32 80 3b 00
        E 0 90 36 19
        E 64 b0 0b 22
        E 32 80 36 00
        E 0 90 39 22
        E 16 b0 0b 19
        E 64 b0 0b 11
        E 16 80 39 00
        E 0 90 34 11
        E 32 80 34 00
        E 0 90 39 11
        E 16 b0 0b 08
        E 64 80 39 00
        E 16 b0 0b 22
        E 0 90 34 22
        E 32 80 34 00
        E 0 90 39 22
        E 16 b0 0b 19
        E 64 b0 0b 11
        E 16 80 39 00
        E 0 90 34 11
        E 32 80 34 00
        E 0 90 39 11
        E 16 b0 0b 08
        E 64 80 39 00
        E 16 b0 0b 22
        E 0 90 34 22
        E 32 80 34 00
        E 0 90 39 22
        E 16 b0 0b 19
        E 64 b0 0b 11
        E 16 80 39 00
        E 0 90 34 11
        E 32 80 34 00
        E 0 90 39 11
        E 16 b0 0b 08
        E 64 80 39 00
        E 16 90 36 08
        E 64 80 36 00
        E 0 90 2c 08
        E 32 80 2c 00
        E 0 90 36 08
        E 64 80 36 00
        E 0 90 2c 08
        E 32 80 2c 00
        E 0 90 36 08
        E 48 b0 0b 11
        E 16 80 36 00
        E 0 90 2c 11
        E 32 80 2c 00
        E 0 90 36 11
        E 64 80 36 00
        E 0 90 2c 11
        E 32 80 2c 00
        E 0 90 36 11
        E 64 80 36 00
        E 0 90 2c 11
        E 32 80 2c 00
        E 0 90 36 11
        E 16 b0 0b 19
        E 48 80 36 00
        E 0 90 2c 19
        E 32 80 2c 00
        E 0 90 36 19
        E 64 80 36 00
        E 0 90 2c 19
        E 32 80 2c 00
        E 0 90 36 19
        E 64 80 36 00
        E 0 90 2c 19
        E 16 b0 0b 22
        E 16 b0 0b 19
        E 0 80 2c 00
        E 0 90 39 19
        E 32 80 39 00
        E 0 90 34 19
        E 64 80 34 00
        E 0 90 39 19
        E 32 80 39 00
        E 0 90 34 19
        E 64 80 34 00
        E 0 90 39 19
        E 32 80 39 00
        E 0 90 34 19
        E 64 80 34 00
        E 0 90 39 19
        E 32 80 39 00
        E 0 90 34 19
        E 64 80 34 00
        E 0 90 39 19
        E 32 80 39 00
        E 0 90 34 19
        E 64 80 34 00
        E 0 90 39 19
        E 32 80 39 00
        E 0 90 34 19
        E 64 80 34 00
        E 0 90 39 19
        E 32 80 39 00
        E 0 90 34 19
        E 64 80 34 00
        E 0 90 39 19
        E 32 80 39 00
        E 0 90 34 19
        E 64 80 34 00
        E 0 90 3b 19
        E 32 80 3b 00
        E 0 90 36 19
        E 64 80 36 00
        E 0 90 3b 19
        E 32 80 3b 00
        E 0 90 36 19
        E 64 80 36 00
        E 0 90 3b 19
        E 32 80 3b 00
        E 0 90 36 19
        E 64 80 36 00
        E 0 90 3b 19
        E 32 80 3b 00
        E 0 90 36 19
        E 64 80 36 00
        E 0 90 3b 19
        E 32 80 3b 00
        E 0 90 36 19
        E 64 80 36 00
        E 0 90 3b 19
        E 32 80 3b 00
        E 0 90 36 19
        E 64 80 36 00
        E 0 90 3b 19
        E 32 80 3b 00
        E 0 90 36 19
        E 64 80 36 00
        E 0 90 3b 19
        E 32 80 3b 00
        E 0 90 36 19
        E 64 b0 0b 22
        E 32 80 36 00
        E 0 90 39 22
        E 16 b0 0b 19
        E 64 b0 0b 11
        E 16 80 39 00
        E 0 90 34 11
        E 32 80 34 00
        E 0 90 39 11
        E 16 b0 0b 08
        E 64 80 39 00
        E 16 b0 0b 22
        E 0 90 34 22
        E 32 80 34 00
        E 0 90 39 22
        E 16 b0 0b 19
        E 64 b0 0b 11
        E 16 80 39 00
        E 0 90 34 11
        E 32 80 34 00
        E 0 90 39 11
        E 16 b0 0b 08
        E 64 80 39 00
        E 16 b0 0b 22
        E 0 90 34 22
        E 32 80 34 00
        E 0 90 39 22
        E 16 b0 0b 19
        E 64 b0 0b 11
        E 16 80 39 00
        E 0 90 34 11
        E 32 80 34 00
        E 0 90 39 11
        E 16 b0 0b 08
        E 64 80 39 00
        E 16 90 36 08
        E 64 80 36 00
        E 0 90 2c 08
        E 32 80 2c 00
        E 0 90 36 08
        E 64 80 36 00
        E 0 90 2c 08
        E 32 80 2c 00
        E 0 90 36 08
        E 48 b0 0b 11
        E 16 80 36 00
        E 0 90 2c 11
        E 32 80 2c 00
        E 0 90 36 11
        E 64 80 36 00
        E 0 90 2c 11
        E 32 80 2c 00
        E 0 90 36 11
        E 64 80 36 00
        E 0 90 2c 11
        E 32 80 2c 00
        E 0 90 36 11
        E 16 b0 0b 19
        E 48 80 36 00
        E 0 90 2c 19
        E 32 80 2c 00
        E 0 90 36 19
        E 64 80 36 00
        E 0 90 2c 19
        E 32 80 2c 00
        E 0 90 36 19
        E 64 80 36 00
        E 0 90 2c 19
        E 16 b0 0b 22
        E 16 b0 0b 19
        E 0 80 2c 00
        E 0 90 39 19
        E 32 80 39 00
        E 0 90 34 19
        E 64 80 34 00
        E 0 90 39 19
        E 32 80 39 00
        E 0 90 34 19
        E 64 80 34 00
        E 0 90 39 19
        E 32 80 39 00
        E 0 90 34 19
        E 64 80 34 00
        E 0 90 39 19
        E 32 80 39 00
        E 0 90 34 19
        E 64 80 34 00
        E 0 90 39 19
        E 32 80 39 00
        E 0 90 34 19
        E 64 80 34 00
        E 0 90 39 19
        E 32 80 39 00
        E 0 90 34 19
        E 64 80 34 00
        E 0 90 39 19
        E 32 80 39 00
        E 0 90 34 19
        E 64 80 34 00
        E 0 90 39 19
        E 32 80 39 00
        E 0 90 34 19
        E 64 80 34 00
        E 0 90 3b 19
        E 32 80 3b 00
        E 0 90 36 19
        E 64 80 36 00
        E 0 90 3b 19
        E 32 80 3b 00
        E 0 90 36 19
        E 64 80 36 00
        E 0 90 3b 19
        E 32 80 3b 00
        E 0 90 36 19
        E 64 80 36 00
        E 0 90 3b 19
        E 32 80 3b 00
        E 0 90 36 19
        E 64 80 36 00
        E 0 90 3b 19
        E 32 80 3b 00
        E 0 90 36 19
        E 64 80 36 00
        E 0 90 3b 19
        E 32 80 3b 00
        E 0 90 36 19
        E 64 80 36 00
        E 0 90 3b 19
        E 32 80 3b 00
        E 0 90 36 19
        E 64 80 36 00
        E 0 90 3b 19
        E 32 80 3b 00
        E 0 90 36 19
        E 64 b0 0b 22
        E 32 80 36 00
        E 0 90 39 22
        E 16 b0 0b 19
        E 64 b0 0b 11
        E 16 80 39 00
        E 0 90 34 11
        E 32 80 34 00
        E 0 90 39 11
        E 16 b0 0b 08
        E 64 80 39 00
        E 16 b0 0b 22
        E 0 90 34 22
        E 32 80 34 00
        E 0 90 39 22
        E 16 b0 0b 19
        E 64 b0 0b 11
        E 16 80 39 00
        E 0 90 34 11
        E 32 80 34 00
        E 0 90 39 11
        E 16 b0 0b 08
        E 64 80 39 00
        E 16 b0 0b 22
        E 0 90 34 22
        E 32 80 34 00
        E 0 90 39 22
        E 16 b0 0b 19
        E 64 b0 0b 11
        E 16 80 39 00
        E 0 90 34 11
        E 32 80 34 00
        E 0 90 39 11
        E 16 b0 0b 08
        E 64 80 39 00
        E 16 90 36 08
        E 64 80 36 00
        E 0 90 2c 08
        E 32 80 2c 00
        E 0 90 36 08
        E 64 80 36 00
        E 0 90 2c 08
        E 32 80 2c 00
        E 0 90 36 08
        E 48 b0 0b 11
        E 16 80 36 00
        E 0 90 2c 11
        E 32 80 2c 00
        E 0 90 36 11
        E 64 80 36 00
        E 0 90 2c 11
        E 32 80 2c 00
        E 0 90 36 11
        E 64 80 36 00
        E 0 90 2c 11
        E 32 80 2c 00
        E 0 90 36 11
        E 16 b0 0b 19
        E 48 80 36 00
        E 0 90 2c 19
        E 32 80 2c 00
        E 0 90 36 19
        E 64 80 36 00
        E 0 90 2c 19
        E 32 80 2c 00
        E 0 90 36 19
        E 64 80 36 00
        E 0 90 2c 19
        E 16 b0 0b 22
        E 16 b0 0b 19
        E 0 80 2c 00
        E 0 90 39 19
        E 32 80 39 00
        E 0 90 34 19
        E 64 80 34 00
        E 0 90 39 19
        E 32 80 39 00
        E 0 90 34 19
        E 64 80 34 00
        E 0 90 39 19
        E 32 80 39 00
        E 0 90 34 19
        E 64 80 34 00
        E 0 90 39 19
        E 32 80 39 00
        E 0 90 34 19
        E 64 80 34 00
        E 0 90 39 19
        E 32 80 39 00
        E 0 90 34 19
        E 64 80 34 00
        E 0 90 39 19
        E 32 80 39 00
        E 0 90 34 19
        E 64 80 34 00
        E 0 90 39 19
        E 32 80 39 00
        E 0 90 34 19
        E 64 80 34 00
        E 0 90 39 19
        E 32 80 39 00
        E 0 90 34 19
        E 64 80 34 00
        E 0 90 3b 19
        E 32 80 3b 00
        E 0 90 36 19
        E 64 80 36 00
        E 0 90 3b 19
        E 32 80 3b 00
        E 0 90 36 19
        E 64 80 36 00
        E 0 90 3b 19
        E 32 80 3b 00
        E 0 90 36 19
        E 64 80 36 00
        E 0 90 3b 19
        E 32 80 3b 00
        E 0 90 36 19
        E 64 80 36 00
        E 0 90 3b 19
        E 32 80 3b 00
        E 0 90 36 19
        E 64 80 36 00
        E 0 90 3b 19
        E 32 80 3b 00
        E 0 90 36 19
        E 64 80 36 00
        E 0 90 3b 19
        E 32 80 3b 00
        E 0 90 36 19
        E 64 80 36 00
        E 0 90 3b 19
        E 32 80 3b 00
        E 0 90 36 19
        E 64 b0 0b 22
        E 32 80 36 00
        E 0 90 39 22
        E 16 b0 0b 19
        E 64 b0 0b 11
        E 16 80 39 00
        E 0 90 34 11
        E 32 80 34 00
        E 0 90 39 11
        E 16 b0 0b 08
        E 64 80 39 00
        E 16 b0 0b 22
        E 0 90 34 22
        E 32 80 34 00
        E 0 90 39 22
        E 16 b0 0b 19
        E 64 b0 0b 11
        E 16 80 39 00
        E 0 90 34 11
        E 32 80 34 00
        E 0 90 39 11
        E 16 b0 0b 08
        E 64 80 39 00
        E 16 b0 0b 22
        E 0 90 34 22
        E 32 80 34 00
        E 0 90 39 22
        E 16 b0 0b 19
        E 64 b0 0b 11
        E 16 80 39 00
        E 0 90 34 11
        E 32 80 34 00
        E 0 90 39 11
        E 16 b0 0b 08
        E 64 80 39 00
        E 16 b0 0b 11
        E 0 90 39 11
        E 32 80 39 00
        E 0 90 38 11
        E 64 80 38 00
        E 0 90 3d 11
        E 32 80 3d 00
        E 0 90 38 11
        E 64 80 38 00
        E 0 90 3d 11
        E 32 80 3d 00
        E 0 90 38 11
        E 64 80 38 00
        E 0 90 3d 11
        E 32 80 3d 00
        E 0 90 38 11
        E 64 80 38 00
        E 0 90 3d 11
        E 32 80 3d 00
        E 0 90 38 11
        E 64 80 38 00
        E 0 90 3d 11
        E 32 80 3d 00
        E 0 90 38 11
        E 64 80 38 00
        E 0 90 3d 11
        E 32 80 3d 00
        E 0 90 38 11
        E 64 80 38 00
        E 0 90 3d 11
        E 32 80 3d 00
        E 0 90 38 11
        E 64 b0 0b 44
        E 0 80 38 00
        E 0 90 39 44
        E 16 b0 0b 3b
        E 16 b0 0b 33
        E 16 b0 0b 2a
        E 16 b0 0b 22
        E 16 b0 0b 19
        E 16 b0 0b 11
        E 16 b0 0b 08
        E 16 b0 0b 44
        E 16 b0 0b 3b
        E 16 b0 0b 33
        E 16 b0 0b 2a
        E 16 b0 0b 22
        E 16 b0 0b 19
        E 16 b0 0b 11
        E 16 b0 0b 08
        E 16 b0 0b 44
        E 16 b0 0b 3b
        E 16 b0 0b 33
        E 16 b0 0b 2a
        E 16 b0 0b 22
        E 16 b0 0b 19
        E 16 b0 0b 11
        E 16 b0 0b 08
        E 16 80 39 00
        E 128 b0 0b 44
        E 0 90 39 44
        E 16 b0 0b 3b
        E 16 b0 0b 33
        E 16 b0 0b 2a
        E 16 b0 0b 22
        E 16 b0 0b 19
        E 16 b0 0b 11
        E 16 b0 0b 08
        E 16 80 39 00
        E 128 b0 0b 11
        E 0 90 39 11
        E 32 80 39 00
        E 0 90 38 11
        E 64 80 38 00
        E 0 90 3d 11
        E 32 80 3d 00
        E 0 90 38 11
        E 64 80 38 00
        E 0 90 3d 11
        E 32 80 3d 00
        E 0 90 38 11
        E 64 80 38 00
        E 0 90 3d 11
        E 32 80 3d 00
        E 0 90 38 11
        E 64 80 38 00
        E 0 90 3d 11
        E 32 80 3d 00
        E 0 90 38 11
        E 64 80 38 00
        E 0 90 3d 11
        E 32 80 3d 00
        E 0 90 38 11
        E 64 80 38 00
        E 0 90 3d 11
        E 32 80 3d 00
        E 0 90 38 11
        E 64 80 38 00
        E 0 90 3d 11
        E 32 80 3d 00
        E 0 90 38 11
        E 64 b0 0b 44
        E 0 80 38 00
        E 0 90 39 44
        E 16 b0 0b 3b
        E 16 b0 0b 33
        E 16 b0 0b 2a
        E 16 b0 0b 22
        E 16 b0 0b 19
        E 16 b0 0b 11
        E 16 b0 0b 08
        E 16 b0 0b 44
        E 16 b0 0b 3b
        E 16 b0 0b 33
        E 16 b0 0b 2a
        E 16 b0 0b 22
        E 16 b0 0b 19
        E 16 b0 0b 11
        E 16 b0 0b 08
        E 16 b0 0b 44
        E 16 b0 0b 3b
        E 16 b0 0b 33
        E 16 b0 0b 2a
        E 16 b0 0b 22
        E 16 b0 0b 19
        E 16 b0 0b 11
        E 16 b0 0b 08
        E 16 80 39 00
        E 128 b0 0b 44
        E 0 90 39 44
        E 16 b0 0b 3b
        E 16 b0 0b 33
        E 16 b0 0b 2a
        E 16 b0 0b 22
        E 16 b0 0b 19
        E 16 b0 0b 11
        E 16 b0 0b 08
        E 16 80 39 00
        E 128 b0 0b 11
        E 0 90 39 11
        E 32 80 39 00
        E 0 90 38 11
        E 64 80 38 00
        E 0 90 3d 11
        E 32 80 3d 00
        E 0 90 38 11
        E 64 80 38 00
        E 0 90 3d 11
        E 32 80 3d 00
        E 0 90 38 11
        E 64 80 38 00
        E 0 90 3d 11
        E 32 80 3d 00
        E 0 90 38 11
        E 64 80 38 00
        E 0 90 3d 11
        E 32 80 3d 00
        E 0 90 38 11
        E 64 80 38 00
        E 0 90 3d 11
        E 32 80 3d 00
        E 0 90 38 11
        E 64 80 38 00
        E 0 90 3d 11
        E 32 80 3d 00
        E 0 90 38 11
        E 64 80 38 00
        E 0 90 3d 11
        E 32 80 3d 00
        E 0 90 38 11
        E 64 b0 0b 44
        E 0 80 38 00
        E 0 90 39 44
        E 16 b0 0b 3b
        E 16 b0 0b 33
        E 16 b0 0b 2a
        E 16 b0 0b 22
        E 16 b0 0b 19
        E 16 b0 0b 11
        E 16 b0 0b 08
        E 16 b0 0b 44
        E 16 b0 0b 3b
        E 16 b0 0b 33
        E 16 b0 0b 2a
        E 16 b0 0b 22
        E 16 b0 0b 19
        E 16 b0 0b 11
        E 16 b0 0b 08
        E 16 b0 0b 44
        E 16 b0 0b 3b
        E 16 b0 0b 33
        E 16 b0 0b 2a
        E 16 b0 0b 22
        E 16 b0 0b 19
        E 16 b0 0b 11
        E 16 b0 0b 08
        E 16 80 39 00
        E 128 b0 0b 44
        E 0 90 39 44
        E 16 b0 0b 3b
        E 16 b0 0b 33
        E 16 b0 0b 2a
        E 16 b0 0b 22
        E 16 b0 0b 19
        E 16 b0 0b 11
        E 16 b0 0b 08
        E 16 80 39 00
        E 128 b0 0b 11
        E 0 90 39 11
        E 32 80 39 00
        E 0 90 38 11
        E 64 80 38 00
        E 0 90 3d 11
        E 32 80 3d 00
        E 0 90 38 11
        E 64 80 38 00
        E 0 90 3d 11
        E 32 80 3d 00
        E 0 90 38 11
        E 64 80 38 00
        E 0 90 3d 11
        E 32 80 3d 00
        E 0 90 38 11
        E 64 80 38 00
        E 0 90 3d 11
        E 32 80 3d 00
        E 0 90 38 11
        E 64 80 38 00
        E 0 90 3d 11
        E 32 80 3d 00
        E 0 90 38 11
        E 64 80 38 00
        E 0 90 3d 11
        E 32 80 3d 00
        E 0 90 38 11
        E 64 80 38 00
        E 0 90 3d 11
        E 32 80 3d 00
        E 0 90 38 11
        E 64 b0 0b 44
        E 0 80 38 00
        E 0 90 39 44
        E 16 b0 0b 3b
        E 16 b0 0b 33
        E 16 b0 0b 2a
        E 16 b0 0b 22
        E 16 b0 0b 19
        E 16 b0 0b 11
        E 16 b0 0b 08
        E 16 b0 0b 44
        E 16 b0 0b 3b
        E 16 b0 0b 33
        E 16 b0 0b 2a
        E 16 b0 0b 22
        E 16 b0 0b 19
        E 16 b0 0b 11
        E 16 b0 0b 08
        E 16 b0 0b 44
        E 16 b0 0b 3b
        E 16 b0 0b 33
        E 16 b0 0b 2a
        E 16 b0 0b 22
        E 16 b0 0b 19
        E 16 b0 0b 11
        E 16 b0 0b 08
        E 16 80 39 00
        E 128 b0 0b 44
        E 0 90 39 44
        E 16 b0 0b 3b
        E 16 b0 0b 33
        E 16 b0 0b 2a
        E 16 b0 0b 22
        E 16 b0 0b 19
        E 16 b0 0b 11
        E 16 b0 0b 08
        E 16 80 39 00
        E 128 90 39 08
        E 256 b0 0b 44
        E 16 b0 0b 3b
        E 16 b0 0b 33
        E 16 b0 0b 2a
        E 16 b0 0b 22
        E 16 b0 0b 19
        E 16 b0 0b 11
        E 16 b0 0b 08
        E 16 b0 0b 44
        E 16 b0 0b 3b
        E 16 b0 0b 33
        E 16 b0 0b 2a
        E 16 b0 0b 22
        E 16 b0 0b 19
        E 16 b0 0b 11
        E 16 b0 0b 08
        E 16 b0 0b 44
        E 16 b0 0b 3b
        E 16 b0 0b 33
        E 16 b0 0b 2a
        E 16 b0 0b 22
        E 16 b0 0b 19
        E 16 b0 0b 11
        E 16 b0 0b 08
        E 16 80 39 00
        E 128 b0 0c 40
        E 0 90 39 08
        E 16 b0 0b 11
        E 176 b0 0b 08
        E 16 b0 0b 11
        E 48 b0 0b 08
        E 16 b0 0b 11
        E 48 b0 0b 08
        E 16 b0 0b 11
        E 48 b0 0b 08
        E 16 b0 0b 11
        E 80 b0 0b 08
        E 16 80 39 00
        E 80 90 39 08
        E 16 b0 0b 11
        E 176 b0 0b 08
        E 16 b0 0b 11
        E 112 b0 0b 08
        E 16 80 39 00
        E 48 90 38 08
        E 16 b0 0b 11
        E 112 b0 0b 08
        E 16 80 38 00
        E 48 90 38 08
        E 16 b0 0b 11
        E 176 b0 0b 08
        E 16 b0 0b 11
        E 80 b0 0b 08
        E 16 80 38 00
        E 80 90 38 08
        E 16 b0 0b 11
        E 176 b0 0b 08
        E 16 b0 0b 11
        E 80 b0 0b 08
        E 16 80 38 00
        E 80 90 38 08
        E 16 b0 0b 11
        E 272 b0 0b 08
        E 16 80 38 00
        E 80 90 38 08
        E 16 b0 0b 11
        E 80 b0 0b 08
        E 16 b0 0b 11
        E 80 b0 0b 08
        E 16 b0 0b 11
        E 176 b0 0b 08
        E 16 b0 0b 11
        E 80 b0 0b 08
        E 16 b0 0b 11
        E 80 b0 0b 08
        E 16 b0 0b 11
        E 176 b0 0b 08
        E 16 b0 0b 11
        E 80 b0 0b 08
        E 16 b0 0b 11
        E 80 b0 0b 08
        E 16 b0 0b 11
        E 176 b0 0b 08
        E 16 b0 0b 11
        E 176 b0 0b 08
        E 16 b0 0b 11
        E 80 b0 0b 08
        E 16 80 38 00
        E 80 90 38 08
        E 16 b0 0b 11
        E 80 b0 0b 08
        E 16 80 38 00
        E 80 90 3a 08
        E 16 b0 0b 11
        E 176 b0 0b 08
        E 16 b0 0b 11
        E 80 b0 0b 08
        E 16 80 3a 00
        E 80 90 3a 08
        E 16 b0 0b 11
        E 80 b0 0b 08
        E 16 80 3a 00
        E 80 90 3a 08
        E 16 b0 0b 11
        E 176 b0 0b 08
        E 16 b0 0b 11
        E 48 b0 0b 08
        E 16 b0 0b 11
        E 48 b0 0b 08
        E 16 b0 0b 11
        E 48 b0 0b 08
        E 16 b0 0b 11
        E 80 b0 0b 08
        E 16 80 3a 00
        E 80 90 3a 08
        E 16 b0 0b 11
        E 176 b0 0b 08
        E 16 b0 0b 11
        E 112 b0 0b 08
        E 16 80 3a 00
        E 48 90 38 08
        E 16 b0 0b 11
        E 112 b0 0b 08
        E 16 80 38 00
        E 48 90 38 08
        E 16 b0 0b 11
        E 176 b0 0b 08
        E 16 b0 0b 11
        E 80 b0 0b 08
        E 16 80 38 00
        E 80 90 38 08
        E 16 b0 0b 11
        E 176 b0 0b 08
        E 16 b0 0b 11
        E 80 b0 0b 08
        E 16 80 38 00
        E 80 90 38 08
        E 16 b0 0b 11
        E 272 b0 0b 08
        E 16 80 38 00
        E 80 90 38 08
        E 16 b0 0b 11
        E 80 b0 0b 08
        E 16 b0 0b 11
        E 80 b0 0b 08
        E 16 b0 0b 11
        E 176 b0 0b 08
        E 16 b0 0b 11
        E 80 b0 0b 08
        E 16 b0 0b 11
        E 80 b0 0b 08
        E 16 b0 0b 11
        E 176 b0 0b 08
        E 16 b0 0b 11
        E 80 b0 0b 08
        E 16 b0 0b 11
        E 80 b0 0b 08
        E 16 b0 0b 11
        E 176 b0 0b 08
        E 16 b0 0b 11
        E 176 b0 0b 08
        E 16 b0 0b 11
        E 80 b0 0b 08
        E 16 80 38 00
        E 80 90 38 08
        E 16 b0 0b 11
        E 80 b0 0b 08
        E 16 80 38 00
        E 80 90 3a 08
        E 16 b0 0b 11
        E 176 b0 0b 08
        E 16 b0 0b 11
        E 80 b0 0b 08
        E 16 80 3a 00
        E 80 90 3a 08
        E 16 b0 0b 11
        E 80 b0 0b 08
        E 16 80 3a 00
        E 80 b0 0c 60
        E 0 b0 0b 22
        E 0 90 3a 22
        E 320 b0 0b 11
        E 256 b0 0b 22
        E 320 b0 0b 11
        E 256 b0 0b 22
        E 64 80 3a 00
        E 0 b0 7b 00
        E 0 ff 2f 00
      >
    >
  >
  <TRACK {34C26423-EFBC-4136-8AF3-87B92837C657}
    NAME "NES - Pulse 2 [ch1]"
    PEAKCOL 10092441
    BEAT -1
    AUTOMODE 0
    PANLAWFLAGS 3
    VOLPAN 1 0 -1 -1 1
    MUTESOLO 0 0 0
    IPHASE 0
    PLAYOFFS 0 1
    ISBUS 0 0
    BUSCOMP 0 0 0 0 0
    SHOWINMIX 1 0.6667 0.5 1 0.5 0 0 0
    FIXEDLANES 9 0 0 0 0
    SEL 0
    REC 0 5088 1 0 0 0 0 0
    VU 2
    TRACKHEIGHT 0 0 0 0 0 0 0
    INQ 0 0 0 0.5 100 0 0 100
    NCHAN 2
    FX 1
    TRACKID {34C26423-EFBC-4136-8AF3-87B92837C657}
    PERF 0
    MIDIOUT -1
    MAINSEND 1 0
    <FXCHAIN
      WNDRECT 24 52 700 560
      SHOW 0
      LASTSEL 0
      DOCKED 0
      BYPASS 0 0 0
      <JS "ReapNES Studio/ReapNES_Console.jsfx" ""
        2 15 1 10 80 10 100 2 1 15 1 5 60 10 80 1 1 0 50 0 0 15 1 0 100 0 0 0.500000 0.500000 0.400000 0.300000 0.800000 1 1 0 0 0 0 - - - - - - - - - - - - - - - - - - - - - - - - - -
      >
      FLOATPOS 0 0 0 0
      FXID {4AD6675A-853D-41A6-86DC-7B9A4576CD9A}
      WAK 0 0
    >
    <ITEM
      POSITION 0
      LENGTH 74.0902044
      LOOP 0
      ALLTAKES 0
      FADEIN 0 0 0 0 0 0 0
      FADEOUT 0 0 0 0 0 0 0
      MUTE 0 0
      SEL 0
      IGUID {CF7FFF0B-B19B-4AB5-9332-69EE7449380E}
      <SOURCE MIDI
        HASDATA 1 480 QN
        CCINTERP 32
        E 0 c1 51
        E 512 b1 0c 10
        E 0 b1 0b 08
        E 0 91 30 08
        E 16 b1 0b 11
        E 224 b1 0b 08
        E 32 b1 0b 11
        E 64 b1 0b 08
        E 16 81 30 00
        E 32 91 30 08
        E 16 b1 0b 11
        E 64 b1 0b 08
        E 16 81 30 00
        E 32 91 30 08
        E 16 b1 0b 11
        E 224 b1 0b 08
        E 32 b1 0b 11
        E 48 b1 0b 08
        E 16 81 30 00
        E 176 91 30 08
        E 16 b1 0b 11
        E 48 b1 0b 08
        E 16 81 30 00
        E 176 91 30 08
        E 16 b1 0b 11
        E 48 b1 0b 08
        E 16 81 30 00
        E 176 91 3c 08
        E 16 b1 0b 11
        E 2528 b1 0b 08
        E 32 b1 0b 11
        E 224 b1 0b 08
        E 16 81 3c 00
        E 0 91 37 08
        E 16 b1 0b 11
        E 64 b1 0b 08
        E 16 81 37 00
        E 32 91 37 08
        E 16 b1 0b 11
        E 64 b1 0b 08
        E 16 81 37 00
        E 32 91 37 08
        E 16 b1 0b 11
        E 224 b1 0b 08
        E 16 81 37 00
        E 0 91 2b 08
        E 16 b1 0b 11
        E 48 b1 0b 08
        E 16 81 2b 00
        E 176 91 30 08
        E 16 b1 0b 11
        E 480 b1 0b 08
        E 16 81 30 00
        E 0 91 24 08
        E 16 b1 0b 11
        E 480 b1 0b 08
        E 16 b1 0b 33
        E 0 81 24 00
        E 0 91 40 33
        E 64 81 40 00
        E 0 91 38 33
        E 16 81 38 00
        E 0 91 44 33
        E 16 81 44 00
        E 0 91 34 33
        E 16 81 34 00
        E 0 91 40 33
        E 80 81 40 00
        E 0 91 38 33
        E 16 81 38 00
        E 0 91 44 33
        E 16 81 44 00
        E 0 91 34 33
        E 16 81 34 00
        E 0 91 40 33
        E 80 81 40 00
        E 0 91 38 33
        E 16 81 38 00
        E 0 91 44 33
        E 16 81 44 00
        E 0 91 34 33
        E 16 81 34 00
        E 0 91 40 33
        E 80 81 40 00
        E 0 91 38 33
        E 16 81 38 00
        E 0 91 44 33
        E 16 81 44 00
        E 0 91 34 33
        E 16 81 34 00
        E 0 91 40 33
        E 80 81 40 00
        E 0 91 38 33
        E 16 81 38 00
        E 0 91 44 33
        E 16 81 44 00
        E 0 91 34 33
        E 16 81 34 00
        E 0 91 40 33
        E 80 81 40 00
        E 0 91 38 33
        E 16 81 38 00
        E 0 91 44 33
        E 16 81 44 00
        E 0 91 34 33
        E 16 81 34 00
        E 0 91 40 33
        E 112 81 40 00
        E 0 91 34 33
        E 16 81 34 00
        E 0 91 40 33
        E 112 81 40 00
        E 0 91 34 33
        E 16 81 34 00
        E 0 91 40 33
        E 112 81 40 00
        E 0 91 34 33
        E 16 81 34 00
        E 0 91 40 33
        E 112 81 40 00
        E 0 91 34 33
        E 16 81 34 00
        E 0 91 40 33
        E 112 81 40 00
        E 0 91 34 33
        E 16 81 34 00
        E 0 91 40 33
        E 112 81 40 00
        E 0 91 34 33
        E 16 81 34 00
        E 0 91 40 33
        E 112 81 40 00
        E 0 91 34 33
        E 16 81 34 00
        E 0 91 40 33
        E 112 81 40 00
        E 0 91 34 33
        E 16 81 34 00
        E 0 91 40 33
        E 112 81 40 00
        E 0 91 34 33
        E 16 81 34 00
        E 0 91 40 33
        E 112 81 40 00
        E 0 91 34 33
        E 16 81 34 00
        E 0 91 40 33
        E 112 81 40 00
        E 0 91 34 33
        E 16 81 34 00
        E 0 91 40 33
        E 112 81 40 00
        E 0 91 34 33
        E 16 81 34 00
        E 0 91 40 33
        E 112 81 40 00
        E 0 91 34 33
        E 16 81 34 00
        E 0 91 40 33
        E 112 81 40 00
        E 0 91 34 33
        E 16 81 34 00
        E 0 91 40 33
        E 112 81 40 00
        E 0 91 34 33
        E 16 81 34 00
        E 0 91 40 33
        E 112 81 40 00
        E 0 91 34 33
        E 16 81 34 00
        E 0 91 40 33
        E 112 81 40 00
        E 0 91 34 33
        E 16 81 34 00
        E 0 91 40 33
        E 112 81 40 00
        E 0 91 34 33
        E 16 81 34 00
        E 0 91 40 33
        E 80 81 40 00
        E 0 91 38 33
        E 16 81 38 00
        E 0 91 44 33
        E 16 81 44 00
        E 0 91 34 33
        E 16 81 34 00
        E 0 91 40 33
        E 80 81 40 00
        E 0 91 38 33
        E 16 81 38 00
        E 0 91 44 33
        E 16 81 44 00
        E 0 91 34 33
        E 16 81 34 00
        E 0 91 40 33
        E 80 81 40 00
        E 0 91 38 33
        E 16 81 38 00
        E 0 91 44 33
        E 16 81 44 00
        E 0 91 34 33
        E 16 81 34 00
        E 0 91 40 33
        E 80 81 40 00
        E 0 91 38 33
        E 16 81 38 00
        E 0 91 44 33
        E 16 81 44 00
        E 0 91 34 33
        E 16 81 34 00
        E 0 91 40 33
        E 80 81 40 00
        E 0 91 38 33
        E 16 81 38 00
        E 0 91 44 33
        E 16 81 44 00
        E 0 91 34 33
        E 16 81 34 00
        E 0 91 40 33
        E 80 81 40 00
        E 0 91 38 33
        E 16 81 38 00
        E 0 91 44 33
        E 16 81 44 00
        E 0 91 34 33
        E 16 81 34 00
        E 0 91 40 33
        E 80 81 40 00
        E 0 91 37 33
        E 16 81 37 00
        E 0 91 43 33
        E 16 81 43 00
        E 0 91 32 33
        E 16 81 32 00
        E 0 91 3e 33
        E 80 81 3e 00
        E 0 91 37 33
        E 16 81 37 00
        E 0 91 43 33
        E 16 81 43 00
        E 0 91 32 33
        E 16 81 32 00
        E 0 91 3e 33
        E 80 81 3e 00
        E 0 91 37 33
        E 16 81 37 00
        E 0 91 43 33
        E 16 81 43 00
        E 0 91 32 33
        E 16 81 32 00
        E 0 91 3e 33
        E 80 81 3e 00
        E 0 91 37 33
        E 16 81 37 00
        E 0 91 43 33
        E 16 81 43 00
        E 0 91 32 33
        E 16 81 32 00
        E 0 91 3e 33
        E 80 81 3e 00
        E 0 91 37 33
        E 16 81 37 00
        E 0 91 43 33
        E 16 81 43 00
        E 0 91 32 33
        E 16 81 32 00
        E 0 91 3e 33
        E 80 81 3e 00
        E 0 91 37 33
        E 16 81 37 00
        E 0 91 43 33
        E 16 81 43 00
        E 0 91 32 33
        E 16 81 32 00
        E 0 91 3e 33
        E 80 81 3e 00
        E 0 91 37 33
        E 16 81 37 00
        E 0 91 43 33
        E 16 81 43 00
        E 0 91 32 33
        E 16 81 32 00
        E 0 91 3e 33
        E 80 81 3e 00
        E 0 91 37 33
        E 16 81 37 00
        E 0 91 43 33
        E 16 81 43 00
        E 0 91 32 33
        E 16 81 32 00
        E 0 91 3e 33
        E 80 81 3e 00
        E 0 91 37 33
        E 16 81 37 00
        E 0 91 43 33
        E 16 81 43 00
        E 0 91 32 33
        E 16 81 32 00
        E 0 91 3e 33
        E 80 81 3e 00
        E 0 91 37 33
        E 16 81 37 00
        E 0 91 43 33
        E 16 81 43 00
        E 0 91 32 33
        E 16 81 32 00
        E 0 91 3e 33
        E 80 81 3e 00
        E 0 91 37 33
        E 16 81 37 00
        E 0 91 43 33
        E 16 81 43 00
        E 0 91 32 33
        E 16 81 32 00
        E 0 91 3e 33
        E 80 81 3e 00
        E 0 91 37 33
        E 16 81 37 00
        E 0 91 43 33
        E 16 81 43 00
        E 0 91 32 33
        E 16 81 32 00
        E 0 91 3e 33
        E 80 81 3e 00
        E 0 91 37 33
        E 16 81 37 00
        E 0 91 43 33
        E 16 81 43 00
        E 0 91 32 33
        E 16 81 32 00
        E 0 91 3e 33
        E 80 81 3e 00
        E 0 91 37 33
        E 16 81 37 00
        E 0 91 43 33
        E 16 81 43 00
        E 0 91 32 33
        E 16 81 32 00
        E 0 91 3e 33
        E 80 81 3e 00
        E 0 91 37 33
        E 16 81 37 00
        E 0 91 43 33
        E 16 81 43 00
        E 0 91 32 33
        E 16 81 32 00
        E 0 91 3e 33
        E 80 81 3e 00
        E 0 91 37 33
        E 16 81 37 00
        E 0 91 43 33
        E 16 81 43 00
        E 0 91 32 33
        E 16 81 32 00
        E 0 91 3e 33
        E 80 81 3e 00
        E 0 91 37 33
        E 16 81 37 00
        E 0 91 43 33
        E 16 81 43 00
        E 0 91 32 33
        E 16 81 32 00
        E 0 91 3e 33
        E 80 81 3e 00
        E 0 91 37 33
        E 16 81 37 00
        E 0 91 43 33
        E 16 81 43 00
        E 0 91 32 33
        E 16 81 32 00
        E 0 91 3e 33
        E 80 81 3e 00
        E 0 91 38 33
        E 16 81 38 00
        E 0 91 44 33
        E 16 81 44 00
        E 0 91 34 33
        E 16 81 34 00
        E 0 91 40 33
        E 80 81 40 00
        E 0 91 38 33
        E 16 81 38 00
        E 0 91 44 33
        E 16 81 44 00
        E 0 91 34 33
        E 16 81 34 00
        E 0 91 40 33
        E 80 81 40 00
        E 0 91 38 33
        E 16 81 38 00
        E 0 91 44 33
        E 16 81 44 00
        E 0 91 34 33
        E 16 81 34 00
        E 0 91 40 33
        E 80 81 40 00
        E 0 91 38 33
        E 16 81 38 00
        E 0 91 44 33
        E 16 81 44 00
        E 0 91 34 33
        E 16 81 34 00
        E 0 91 40 33
        E 80 81 40 00
        E 0 91 38 33
        E 16 81 38 00
        E 0 91 44 33
        E 16 81 44 00
        E 0 91 34 33
        E 16 81 34 00
        E 0 91 40 33
        E 80 81 40 00
        E 0 91 38 33
        E 16 81 38 00
        E 0 91 44 33
        E 16 81 44 00
        E 0 91 34 33
        E 16 81 34 00
        E 0 91 40 33
        E 112 81 40 00
        E 0 91 34 33
        E 16 81 34 00
        E 0 91 40 33
        E 112 81 40 00
        E 0 91 34 33
        E 16 81 34 00
        E 0 91 40 33
        E 112 81 40 00
        E 0 91 34 33
        E 16 81 34 00
        E 0 91 40 33
        E 112 81 40 00
        E 0 91 34 33
        E 16 81 34 00
        E 0 91 40 33
        E 112 81 40 00
        E 0 91 34 33
        E 16 81 34 00
        E 0 91 40 33
        E 112 81 40 00
        E 0 91 34 33
        E 16 81 34 00
        E 0 91 40 33
        E 112 81 40 00
        E 0 91 34 33
        E 16 81 34 00
        E 0 91 40 33
        E 112 81 40 00
        E 0 91 34 33
        E 16 81 34 00
        E 0 91 40 33
        E 112 81 40 00
        E 0 91 34 33
        E 16 81 34 00
        E 0 91 40 33
        E 112 81 40 00
        E 0 91 34 33
        E 16 81 34 00
        E 0 91 40 33
        E 112 81 40 00
        E 0 91 34 33
        E 16 81 34 00
        E 0 91 40 33
        E 112 81 40 00
        E 0 91 34 33
        E 16 81 34 00
        E 0 91 40 33
        E 112 81 40 00
        E 0 91 34 33
        E 16 81 34 00
        E 0 91 40 33
        E 112 81 40 00
        E 0 91 34 33
        E 16 81 34 00
        E 0 91 40 33
        E 112 81 40 00
        E 0 91 34 33
        E 16 81 34 00
        E 0 91 40 33
        E 112 81 40 00
        E 0 91 34 33
        E 16 81 34 00
        E 0 91 40 33
        E 112 81 40 00
        E 0 91 34 33
        E 16 81 34 00
        E 0 91 40 33
        E 112 81 40 00
        E 0 91 34 33
        E 16 81 34 00
        E 0 91 40 33
        E 80 81 40 00
        E 0 91 38 33
        E 16 81 38 00
        E 0 91 44 33
        E 16 81 44 00
        E 0 91 34 33
        E 16 81 34 00
        E 0 91 40 33
        E 80 81 40 00
        E 0 91 38 33
        E 16 81 38 00
        E 0 91 44 33
        E 16 81 44 00
        E 0 91 34 33
        E 16 81 34 00
        E 0 91 40 33
        E 80 81 40 00
        E 0 91 38 33
        E 16 81 38 00
        E 0 91 44 33
        E 16 81 44 00
        E 0 91 34 33
        E 16 81 34 00
        E 0 91 40 33
        E 80 81 40 00
        E 0 91 38 33
        E 16 81 38 00
        E 0 91 44 33
        E 16 81 44 00
        E 0 91 34 33
        E 16 81 34 00
        E 0 91 40 33
        E 80 81 40 00
        E 0 91 38 33
        E 16 81 38 00
        E 0 91 44 33
        E 16 81 44 00
        E 0 91 34 33
        E 16 81 34 00
        E 0 91 40 33
        E 80 81 40 00
        E 0 91 38 33
        E 16 81 38 00
        E 0 91 44 33
        E 16 81 44 00
        E 0 91 34 33
        E 16 81 34 00
        E 0 91 40 33
        E 80 81 40 00
        E 0 91 37 33
        E 16 81 37 00
        E 0 91 43 33
        E 16 81 43 00
        E 0 91 32 33
        E 16 81 32 00
        E 0 91 3e 33
        E 80 81 3e 00
        E 0 91 37 33
        E 16 81 37 00
        E 0 91 43 33
        E 16 81 43 00
        E 0 91 32 33
        E 16 81 32 00
        E 0 91 3e 33
        E 80 81 3e 00
        E 0 91 37 33
        E 16 81 37 00
        E 0 91 43 33
        E 16 81 43 00
        E 0 91 32 33
        E 16 81 32 00
        E 0 91 3e 33
        E 80 81 3e 00
        E 0 91 37 33
        E 16 81 37 00
        E 0 91 43 33
        E 16 81 43 00
        E 0 91 32 33
        E 16 81 32 00
        E 0 91 3e 33
        E 80 81 3e 00
        E 0 91 37 33
        E 16 81 37 00
        E 0 91 43 33
        E 16 81 43 00
        E 0 91 32 33
        E 16 81 32 00
        E 0 91 3e 33
        E 80 81 3e 00
        E 0 91 37 33
        E 16 81 37 00
        E 0 91 43 33
        E 16 81 43 00
        E 0 91 32 33
        E 16 81 32 00
        E 0 91 3e 33
        E 80 81 3e 00
        E 0 91 37 33
        E 16 81 37 00
        E 0 91 43 33
        E 16 81 43 00
        E 0 91 32 33
        E 16 81 32 00
        E 0 91 3e 33
        E 80 81 3e 00
        E 0 91 37 33
        E 16 81 37 00
        E 0 91 43 33
        E 16 81 43 00
        E 0 91 32 33
        E 16 81 32 00
        E 0 91 3e 33
        E 80 81 3e 00
        E 0 91 37 33
        E 16 81 37 00
        E 0 91 43 33
        E 16 81 43 00
        E 0 91 32 33
        E 16 81 32 00
        E 0 91 3e 33
        E 80 81 3e 00
        E 0 91 37 33
        E 16 81 37 00
        E 0 91 43 33
        E 16 81 43 00
        E 0 91 32 33
        E 16 81 32 00
        E 0 91 3e 33
        E 80 81 3e 00
        E 0 91 37 33
        E 16 81 37 00
        E 0 91 43 33
        E 16 81 43 00
        E 0 91 32 33
        E 16 81 32 00
        E 0 91 3e 33
        E 80 81 3e 00
        E 0 91 37 33
        E 16 81 37 00
        E 0 91 43 33
        E 16 81 43 00
        E 0 91 32 33
        E 16 81 32 00
        E 0 91 3e 33
        E 80 81 3e 00
        E 0 91 37 33
        E 16 81 37 00
        E 0 91 43 33
        E 16 81 43 00
        E 0 91 32 33
        E 16 81 32 00
        E 0 91 3e 33
        E 80 81 3e 00
        E 0 91 37 33
        E 16 81 37 00
        E 0 91 43 33
        E 16 81 43 00
        E 0 91 32 33
        E 16 81 32 00
        E 0 91 3e 33
        E 80 81 3e 00
        E 0 91 37 33
        E 16 81 37 00
        E 0 91 43 33
        E 16 81 43 00
        E 0 91 32 33
        E 16 81 32 00
        E 0 91 3e 33
        E 80 81 3e 00
        E 0 91 37 33
        E 16 81 37 00
        E 0 91 43 33
        E 16 81 43 00
        E 0 91 32 33
        E 16 81 32 00
        E 0 91 3e 33
        E 80 81 3e 00
        E 0 91 37 33
        E 16 81 37 00
        E 0 91 43 33
        E 16 81 43 00
        E 0 91 32 33
        E 16 81 32 00
        E 0 91 3e 33
        E 80 81 3e 00
        E 0 91 37 33
        E 16 81 37 00
        E 0 91 43 33
        E 16 81 43 00
        E 0 91 32 33
        E 16 81 32 00
        E 0 91 3e 33
        E 80 81 3e 00
        E 0 91 37 33
        E 16 81 37 00
        E 0 91 43 33
        E 16 81 43 00
        E 0 91 32 33
        E 16 81 32 00
        E 0 91 3e 33
        E 80 81 3e 00
        E 0 91 37 33
        E 16 81 37 00
        E 0 91 43 33
        E 16 81 43 00
        E 0 91 32 33
        E 16 b1 0b 2a
        E 0 81 32 00
        E 0 91 3e 2a
        E 80 81 3e 00
        E 0 91 37 2a
        E 16 81 37 00
        E 0 91 43 2a
        E 16 81 43 00
        E 0 91 32 2a
        E 16 81 32 00
        E 0 91 3e 2a
        E 80 81 3e 00
        E 0 91 37 2a
        E 16 81 37 00
        E 0 91 43 2a
        E 16 81 43 00
        E 0 91 32 2a
        E 16 b1 0b 22
        E 0 81 32 00
        E 0 91 3e 22
        E 80 81 3e 00
        E 0 91 37 22
        E 16 81 37 00
        E 0 91 43 22
        E 16 81 43 00
        E 0 91 32 22
        E 16 81 32 00
        E 0 91 3e 22
        E 80 81 3e 00
        E 0 91 37 22
        E 16 81 37 00
        E 0 91 43 22
        E 16 81 43 00
        E 0 91 32 22
        E 16 b1 0b 19
        E 0 81 32 00
        E 0 91 3e 19
        E 80 81 3e 00
        E 0 91 37 19
        E 16 81 37 00
        E 0 91 43 19
        E 16 81 43 00
        E 0 91 32 19
        E 16 81 32 00
        E 0 91 3e 19
        E 80 81 3e 00
        E 0 91 37 19
        E 16 81 37 00
        E 0 91 43 19
        E 16 81 43 00
        E 0 91 32 19
        E 16 b1 0b 11
        E 0 81 32 00
        E 0 91 3e 11
        E 80 81 3e 00
        E 0 91 37 11
        E 16 81 37 00
        E 0 91 43 11
        E 16 81 43 00
        E 0 91 32 11
        E 16 81 32 00
        E 0 91 3e 11
        E 80 81 3e 00
        E 0 91 37 11
        E 16 81 37 00
        E 0 91 43 11
        E 16 81 43 00
        E 0 91 32 11
        E 16 b1 0b 08
        E 0 81 32 00
        E 0 91 3e 08
        E 80 81 3e 00
        E 0 91 37 08
        E 16 81 37 00
        E 0 91 43 08
        E 16 81 43 00
        E 0 91 32 08
        E 16 81 32 00
        E 0 91 3e 08
        E 80 81 3e 00
        E 0 91 37 08
        E 16 81 37 00
        E 0 91 43 08
        E 16 81 43 00
        E 0 91 32 08
        E 16 81 32 00
        E 2320 b1 0b 11
        E 0 91 3e 11
        E 512 b1 0b 19
        E 768 b1 0b 22
        E 768 b1 0b 2a
        E 256 b1 0b 11
        E 0 81 3e 00
        E 0 91 37 11
        E 16 b1 0b 22
        E 80 b1 0b 11
        E 16 81 37 00
        E 16 91 39 11
        E 16 b1 0b 22
        E 80 b1 0b 11
        E 16 81 39 00
        E 16 91 39 11
        E 16 b1 0b 22
        E 80 b1 0b 11
        E 16 81 39 00
        E 16 91 39 11
        E 16 b1 0b 22
        E 80 b1 0b 11
        E 16 81 39 00
        E 16 91 39 11
        E 16 b1 0b 22
        E 80 b1 0b 11
        E 16 81 39 00
        E 16 91 37 11
        E 16 b1 0b 22
        E 80 b1 0b 11
        E 16 81 37 00
        E 16 91 37 11
        E 16 b1 0b 22
        E 80 b1 0b 11
        E 16 81 37 00
        E 16 91 37 11
        E 16 b1 0b 22
        E 80 b1 0b 11
        E 16 81 37 00
        E 16 91 37 11
        E 16 b1 0b 22
        E 80 b1 0b 11
        E 16 81 37 00
        E 16 91 37 11
        E 16 b1 0b 22
        E 80 b1 0b 11
        E 16 81 37 00
        E 16 91 37 11
        E 16 b1 0b 22
        E 80 b1 0b 11
        E 16 81 37 00
        E 16 91 37 11
        E 16 b1 0b 22
        E 80 b1 0b 11
        E 16 81 37 00
        E 16 91 37 11
        E 16 b1 0b 22
        E 80 b1 0b 11
        E 16 81 37 00
        E 16 91 37 11
        E 16 b1 0b 22
        E 80 b1 0b 11
        E 16 81 37 00
        E 16 91 37 11
        E 16 b1 0b 22
        E 80 b1 0b 11
        E 16 81 37 00
        E 16 91 37 11
        E 16 b1 0b 22
        E 80 b1 0b 11
        E 16 81 37 00
        E 16 91 39 11
        E 16 b1 0b 22
        E 80 b1 0b 11
        E 16 81 39 00
        E 16 91 39 11
        E 16 b1 0b 22
        E 80 b1 0b 11
        E 16 81 39 00
        E 16 91 39 11
        E 16 b1 0b 22
        E 80 b1 0b 11
        E 16 81 39 00
        E 16 91 34 11
        E 16 b1 0b 22
        E 80 b1 0b 11
        E 16 81 34 00
        E 16 91 34 11
        E 16 b1 0b 22
        E 80 b1 0b 11
        E 16 81 34 00
        E 16 91 34 11
        E 16 b1 0b 22
        E 336 b1 0b 11
        E 16 81 34 00
        E 16 b1 0b 19
        E 0 91 3b 19
        E 16 b1 0b 33
        E 336 b1 0b 19
        E 16 81 3b 00
        E 16 91 3b 19
        E 16 b1 0b 33
        E 208 b1 0b 19
        E 16 81 3b 00
        E 16 91 3b 19
        E 16 b1 0b 33
        E 80 b1 0b 19
        E 16 81 3b 00
        E 16 91 3b 19
        E 16 b1 0b 33
        E 80 b1 0b 19
        E 16 81 3b 00
        E 16 91 3b 19
        E 16 b1 0b 33
        E 80 b1 0b 19
        E 16 81 3b 00
        E 16 91 3b 19
        E 16 b1 0b 33
        E 80 b1 0b 19
        E 16 81 3b 00
        E 16 91 3b 19
        E 16 b1 0b 33
        E 208 b1 0b 19
        E 16 81 3b 00
        E 16 91 3b 19
        E 16 b1 0b 33
        E 80 b1 0b 19
        E 16 81 3b 00
        E 16 91 3b 19
        E 16 b1 0b 33
        E 208 b1 0b 19
        E 16 81 3b 00
        E 16 91 3b 19
        E 16 b1 0b 33
        E 80 b1 0b 19
        E 16 81 3b 00
        E 16 91 3b 19
        E 16 b1 0b 33
        E 208 b1 0b 19
        E 16 81 3b 00
        E 16 91 3b 19
        E 16 b1 0b 33
        E 80 b1 0b 19
        E 16 81 3b 00
        E 16 91 3b 19
        E 16 b1 0b 33
        E 80 b1 0b 19
        E 16 81 3b 00
        E 16 91 3b 19
        E 16 b1 0b 33
        E 80 b1 0b 19
        E 16 81 3b 00
        E 16 91 3b 19
        E 16 b1 0b 33
        E 80 b1 0b 19
        E 16 81 3b 00
        E 16 91 36 19
        E 16 b1 0b 33
        E 208 b1 0b 19
        E 16 81 36 00
        E 16 91 39 19
        E 16 b1 0b 33
        E 80 b1 0b 19
        E 16 81 39 00
        E 16 91 39 19
        E 16 b1 0b 33
        E 336 b1 0b 19
        E 16 81 39 00
        E 16 91 39 19
        E 16 b1 0b 33
        E 208 b1 0b 19
        E 16 81 39 00
        E 16 91 39 19
        E 16 b1 0b 33
        E 80 b1 0b 19
        E 16 81 39 00
        E 16 91 39 19
        E 16 b1 0b 33
        E 80 b1 0b 19
        E 16 81 39 00
        E 16 91 39 19
        E 16 b1 0b 33
        E 80 b1 0b 19
        E 16 81 39 00
        E 16 91 39 19
        E 16 b1 0b 33
        E 80 b1 0b 19
        E 16 81 39 00
        E 16 91 39 19
        E 16 b1 0b 33
        E 208 b1 0b 19
        E 16 81 39 00
        E 16 91 39 19
        E 16 b1 0b 33
        E 80 b1 0b 19
        E 16 81 39 00
        E 16 91 39 19
        E 16 b1 0b 33
        E 208 b1 0b 19
        E 16 81 39 00
        E 16 91 39 19
        E 16 b1 0b 33
        E 80 b1 0b 19
        E 16 81 39 00
        E 16 91 39 19
        E 16 b1 0b 33
        E 208 b1 0b 19
        E 16 81 39 00
        E 16 91 39 19
        E 16 b1 0b 33
        E 80 b1 0b 19
        E 16 81 39 00
        E 16 91 39 19
        E 16 b1 0b 33
        E 80 b1 0b 19
        E 16 81 39 00
        E 16 91 39 19
        E 16 b1 0b 33
        E 80 b1 0b 19
        E 16 81 39 00
        E 16 91 39 19
        E 16 b1 0b 33
        E 80 b1 0b 19
        E 16 81 39 00
        E 16 91 36 19
        E 16 b1 0b 33
        E 208 b1 0b 19
        E 16 81 36 00
        E 16 91 39 19
        E 16 b1 0b 33
        E 80 b1 0b 19
        E 16 81 39 00
        E 16 91 39 19
        E 224 b1 0b 08
        E 16 81 39 00
        E 16 b1 0b 19
        E 0 91 39 19
        E 96 b1 0b 08
        E 16 81 39 00
        E 16 b1 0b 19
        E 0 91 39 19
        E 224 b1 0b 08
        E 16 81 39 00
        E 16 b1 0b 19
        E 0 91 39 19
        E 96 b1 0b 08
        E 16 81 39 00
        E 16 b1 0b 19
        E 0 91 39 19
        E 96 b1 0b 08
        E 16 81 39 00
        E 16 b1 0b 19
        E 0 91 39 19
        E 96 b1 0b 08
        E 16 81 39 00
        E 16 b1 0b 19
        E 0 91 39 19
        E 112 b1 0b 08
        E 16 81 39 00
        E 128 b1 0b 19
        E 0 91 39 19
        E 112 b1 0b 08
        E 16 81 39 00
        E 128 b1 0b 19
        E 0 91 39 19
        E 224 b1 0b 08
        E 16 81 39 00
        E 16 b1 0b 19
        E 0 91 39 19
        E 96 b1 0b 08
        E 16 81 39 00
        E 16 b1 0b 19
        E 0 91 39 19
        E 224 b1 0b 08
        E 16 81 39 00
        E 16 b1 0b 19
        E 0 91 39 19
        E 96 b1 0b 08
        E 16 81 39 00
        E 16 b1 0b 19
        E 0 91 39 19
        E 96 b1 0b 08
        E 16 81 39 00
        E 16 b1 0b 19
        E 0 91 39 19
        E 96 b1 0b 08
        E 16 81 39 00
        E 16 b1 0b 19
        E 0 91 39 19
        E 96 b1 0b 08
        E 16 81 39 00
        E 16 b1 0b 19
        E 0 91 39 19
        E 96 b1 0b 08
        E 16 81 39 00
        E 16 b1 0b 19
        E 0 91 39 19
        E 96 b1 0b 08
        E 16 81 39 00
        E 16 b1 0b 19
        E 0 91 36 19
        E 96 b1 0b 08
        E 16 81 36 00
        E 16 b1 0b 19
        E 0 91 3b 19
        E 224 b1 0b 08
        E 16 81 3b 00
        E 16 b1 0b 19
        E 0 91 3b 19
        E 96 b1 0b 08
        E 16 81 3b 00
        E 16 b1 0b 19
        E 0 91 3b 19
        E 224 b1 0b 08
        E 16 81 3b 00
        E 16 b1 0b 19
        E 0 91 3b 19
        E 96 b1 0b 08
        E 16 81 3b 00
        E 16 b1 0b 19
        E 0 91 3b 19
        E 96 b1 0b 08
        E 16 81 3b 00
        E 16 b1 0b 19
        E 0 91 3b 19
        E 96 b1 0b 08
        E 16 81 3b 00
        E 16 b1 0b 19
        E 0 91 3b 19
        E 112 b1 0b 08
        E 16 81 3b 00
        E 128 b1 0b 19
        E 0 91 3b 19
        E 112 b1 0b 08
        E 16 81 3b 00
        E 128 b1 0b 19
        E 0 91 3b 19
        E 224 b1 0b 08
        E 16 81 3b 00
        E 16 b1 0b 19
        E 0 91 3b 19
        E 96 b1 0b 08
        E 16 81 3b 00
        E 16 b1 0b 19
        E 0 91 3b 19
        E 224 b1 0b 08
        E 16 81 3b 00
        E 16 b1 0b 19
        E 0 91 3b 19
        E 96 b1 0b 08
        E 16 81 3b 00
        E 16 b1 0b 19
        E 0 91 3b 19
        E 96 b1 0b 08
        E 16 81 3b 00
        E 16 b1 0b 19
        E 0 91 3b 19
        E 96 b1 0b 08
        E 16 81 3b 00
        E 16 b1 0b 19
        E 0 91 3b 19
        E 96 b1 0b 08
        E 16 81 3b 00
        E 16 b1 0b 19
        E 0 91 3b 19
        E 96 b1 0b 08
        E 16 81 3b 00
        E 16 b1 0b 19
        E 0 91 3b 19
        E 96 b1 0b 08
        E 16 81 3b 00
        E 16 b1 0b 19
        E 0 91 36 19
        E 96 b1 0b 08
        E 16 81 36 00
        E 16 b1 0c 40
        E 0 91 3e 08
        E 16 b1 0b 19
        E 208 b1 0b 08
        E 16 81 3e 00
        E 16 91 3e 08
        E 16 b1 0b 19
        E 80 b1 0b 08
        E 16 81 3e 00
        E 16 91 3e 08
        E 16 b1 0b 19
        E 208 b1 0b 08
        E 16 81 3e 00
        E 16 91 3e 08
        E 16 b1 0b 19
        E 80 b1 0b 08
        E 16 81 3e 00
        E 16 91 3e 08
        E 16 b1 0b 19
        E 80 b1 0b 08
        E 16 81 3e 00
        E 16 91 3e 08
        E 16 b1 0b 19
        E 80 b1 0b 08
        E 16 81 3e 00
        E 16 91 3e 08
        E 16 b1 0b 19
        E 96 b1 0b 08
        E 16 81 3e 00
        E 128 91 3e 08
        E 16 b1 0b 19
        E 96 b1 0b 08
        E 16 81 3e 00
        E 128 91 3e 08
        E 16 b1 0b 19
        E 208 b1 0b 08
        E 16 81 3e 00
        E 16 91 3e 08
        E 16 b1 0b 19
        E 80 b1 0b 08
        E 16 81 3e 00
        E 16 91 3e 08
        E 16 b1 0b 19
        E 208 b1 0b 08
        E 16 81 3e 00
        E 16 91 3e 08
        E 16 b1 0b 19
        E 80 b1 0b 08
        E 16 81 3e 00
        E 16 91 3e 08
        E 16 b1 0b 19
        E 80 b1 0b 08
        E 16 81 3e 00
        E 16 91 3e 08
        E 16 b1 0b 19
        E 80 b1 0b 08
        E 16 81 3e 00
        E 16 91 3e 08
        E 16 b1 0b 19
        E 80 b1 0b 08
        E 16 81 3e 00
        E 16 91 3e 08
        E 16 b1 0b 19
        E 80 b1 0b 08
        E 16 81 3e 00
        E 16 91 3e 08
        E 16 b1 0b 19
        E 80 b1 0b 08
        E 16 81 3e 00
        E 16 91 36 08
        E 16 b1 0b 19
        E 80 b1 0b 08
        E 16 81 36 00
        E 16 91 3e 08
        E 16 b1 0b 19
        E 208 b1 0b 08
        E 16 81 3e 00
        E 16 91 3e 08
        E 16 b1 0b 19
        E 80 b1 0b 08
        E 16 81 3e 00
        E 16 91 3e 08
        E 16 b1 0b 19
        E 208 b1 0b 08
        E 16 81 3e 00
        E 16 91 3e 08
        E 16 b1 0b 19
        E 80 b1 0b 08
        E 16 81 3e 00
        E 16 91 3e 08
        E 16 b1 0b 19
        E 80 b1 0b 08
        E 16 81 3e 00
        E 16 91 3e 08
        E 16 b1 0b 19
        E 80 b1 0b 08
        E 16 81 3e 00
        E 16 91 3e 08
        E 16 b1 0b 19
        E 96 b1 0b 08
        E 16 81 3e 00
        E 128 91 3e 08
        E 16 b1 0b 19
        E 96 b1 0b 08
        E 16 81 3e 00
        E 128 91 3e 08
        E 16 b1 0b 19
        E 208 b1 0b 08
        E 16 81 3e 00
        E 16 91 3e 08
        E 16 b1 0b 19
        E 80 b1 0b 08
        E 16 81 3e 00
        E 16 91 3e 08
        E 16 b1 0b 19
        E 208 b1 0b 08
        E 16 81 3e 00
        E 16 91 3e 08
        E 16 b1 0b 19
        E 80 b1 0b 08
        E 16 81 3e 00
        E 16 91 3e 08
        E 16 b1 0b 19
        E 80 b1 0b 08
        E 16 81 3e 00
        E 16 91 3e 08
        E 16 b1 0b 19
        E 80 b1 0b 08
        E 16 81 3e 00
        E 16 91 3e 08
        E 16 b1 0b 19
        E 80 b1 0b 08
        E 16 81 3e 00
        E 16 91 3e 08
        E 16 b1 0b 19
        E 80 b1 0b 08
        E 16 81 3e 00
        E 16 91 3e 08
        E 16 b1 0b 19
        E 80 b1 0b 08
        E 16 81 3e 00
        E 16 91 3e 08
        E 16 b1 0b 19
        E 80 b1 0b 08
        E 16 81 3e 00
        E 16 91 3e 08
        E 16 b1 0b 19
        E 720 b1 0b 08
        E 16 81 3e 00
        E 16 91 3e 08
        E 16 b1 0b 19
        E 720 b1 0b 08
        E 16 81 3e 00
        E 16 91 3e 08
        E 16 b1 0b 19
        E 720 b1 0b 08
        E 16 81 3e 00
        E 16 91 3e 08
        E 16 b1 0b 19
        E 80 b1 0b 08
        E 16 81 3e 00
        E 16 91 3e 08
        E 16 b1 0b 19
        E 80 b1 0b 08
        E 16 81 3e 00
        E 16 91 3e 08
        E 16 b1 0b 19
        E 80 b1 0b 08
        E 16 81 3e 00
        E 16 91 3e 08
        E 16 b1 0b 19
        E 80 b1 0b 08
        E 16 81 3e 00
        E 16 91 3e 08
        E 16 b1 0b 19
        E 80 b1 0b 08
        E 16 81 3e 00
        E 16 91 3e 08
        E 16 b1 0b 19
        E 80 b1 0b 08
        E 16 81 3e 00
        E 16 91 3e 08
        E 16 b1 0b 19
        E 720 b1 0b 08
        E 16 81 3e 00
        E 16 91 3e 08
        E 16 b1 0b 19
        E 720 b1 0b 08
        E 16 81 3e 00
        E 16 91 3e 08
        E 16 b1 0b 19
        E 720 b1 0b 08
        E 16 81 3e 00
        E 16 91 3e 08
        E 16 b1 0b 19
        E 80 b1 0b 08
        E 16 81 3e 00
        E 16 91 3e 08
        E 16 b1 0b 19
        E 80 b1 0b 08
        E 16 81 3e 00
        E 16 91 3e 08
        E 16 b1 0b 19
        E 80 b1 0b 08
        E 16 81 3e 00
        E 16 91 3e 08
        E 16 b1 0b 19
        E 80 b1 0b 08
        E 16 81 3e 00
        E 16 91 3e 08
        E 16 b1 0b 19
        E 80 b1 0b 08
        E 16 81 3e 00
        E 16 91 38 08
        E 16 b1 0b 19
        E 80 b1 0b 08
        E 16 81 38 00
        E 16 b1 0c 10
        E 0 b1 0b 11
        E 0 91 38 11
        E 16 b1 0b 08
        E 16 b1 0b 22
        E 64 b1 0b 08
        E 16 81 38 00
        E 16 b1 0b 11
        E 0 91 38 11
        E 16 b1 0b 08
        E 16 b1 0b 22
        E 64 b1 0b 08
        E 16 81 38 00
        E 16 b1 0b 11
        E 0 91 38 11
        E 16 b1 0b 08
        E 16 b1 0b 22
        E 64 b1 0b 08
        E 16 81 38 00
        E 16 b1 0b 11
        E 0 91 38 11
        E 16 b1 0b 08
        E 16 b1 0b 22
        E 64 b1 0b 08
        E 16 81 38 00
        E 16 b1 0b 11
        E 0 91 38 11
        E 16 b1 0b 08
        E 16 b1 0b 22
        E 64 b1 0b 08
        E 16 81 38 00
        E 16 b1 0b 11
        E 0 91 38 11
        E 16 b1 0b 08
        E 16 b1 0b 22
        E 64 b1 0b 08
        E 16 81 38 00
        E 16 b1 0b 11
        E 0 91 39 11
        E 16 b1 0b 08
        E 16 b1 0b 22
        E 64 b1 0b 08
        E 16 81 39 00
        E 16 b1 0b 11
        E 0 91 36 11
        E 16 b1 0b 08
        E 16 b1 0b 22
        E 64 b1 0b 08
        E 16 81 36 00
        E 16 b1 0b 11
        E 0 91 36 11
        E 16 b1 0b 08
        E 16 b1 0b 22
        E 64 b1 0b 08
        E 16 81 36 00
        E 16 b1 0b 11
        E 0 91 36 11
        E 16 b1 0b 08
        E 16 b1 0b 22
        E 64 b1 0b 08
        E 16 81 36 00
        E 16 b1 0b 11
        E 0 91 36 11
        E 16 b1 0b 08
        E 16 b1 0b 22
        E 64 b1 0b 08
        E 16 81 36 00
        E 16 b1 0b 11
        E 0 91 36 11
        E 16 b1 0b 08
        E 16 b1 0b 22
        E 64 b1 0b 08
        E 16 81 36 00
        E 16 b1 0b 11
        E 0 91 36 11
        E 16 b1 0b 08
        E 16 b1 0b 22
        E 64 b1 0b 08
        E 16 81 36 00
        E 16 b1 0b 11
        E 0 91 36 11
        E 16 b1 0b 08
        E 16 b1 0b 22
        E 64 b1 0b 08
        E 16 81 36 00
        E 16 b1 0b 11
        E 0 91 36 11
        E 16 b1 0b 08
        E 16 b1 0b 22
        E 64 b1 0b 08
        E 16 81 36 00
        E 16 b1 0b 11
        E 0 91 39 11
        E 16 b1 0b 08
        E 16 b1 0b 22
        E 64 b1 0b 08
        E 16 81 39 00
        E 16 b1 0b 11
        E 0 91 36 11
        E 16 b1 0b 08
        E 16 b1 0b 22
        E 64 b1 0b 08
        E 16 81 36 00
        E 16 b1 0b 11
        E 0 91 36 11
        E 16 b1 0b 08
        E 16 b1 0b 22
        E 64 b1 0b 08
        E 16 81 36 00
        E 16 b1 0b 11
        E 0 91 36 11
        E 16 b1 0b 08
        E 16 b1 0b 22
        E 64 b1 0b 08
        E 16 81 36 00
        E 16 b1 0b 11
        E 0 91 39 11
        E 16 b1 0b 08
        E 16 b1 0b 22
        E 64 b1 0b 08
        E 16 81 39 00
        E 16 b1 0b 11
        E 0 91 39 11
        E 16 b1 0b 08
        E 16 b1 0b 22
        E 64 b1 0b 08
        E 16 81 39 00
        E 16 b1 0b 11
        E 0 91 39 11
        E 16 b1 0b 08
        E 16 b1 0b 22
        E 64 b1 0b 08
        E 16 81 39 00
        E 16 b1 0b 11
        E 0 91 39 11
        E 16 b1 0b 08
        E 16 b1 0b 22
        E 64 b1 0b 08
        E 16 81 39 00
        E 16 b1 0b 11
        E 0 91 39 11
        E 16 b1 0b 08
        E 16 b1 0b 22
        E 64 b1 0b 08
        E 16 81 39 00
        E 16 b1 0c 40
        E 0 91 39 08
        E 16 b1 0b 19
        E 112 b1 0b 08
        E 16 b1 0b 19
        E 112 b1 0b 08
        E 16 b1 0b 19
        E 112 b1 0b 08
        E 16 b1 0b 19
        E 112 b1 0b 08
        E 16 b1 0b 19
        E 112 b1 0b 08
        E 16 b1 0b 19
        E 112 b1 0b 08
        E 16 b1 0b 19
        E 112 b1 0b 08
        E 16 b1 0b 19
        E 112 b1 0b 08
        E 16 b1 0b 19
        E 112 b1 0b 08
        E 16 b1 0b 19
        E 112 b1 0b 08
        E 16 b1 0b 19
        E 112 b1 0b 08
        E 16 b1 0b 19
        E 112 b1 0b 08
        E 16 b1 0b 19
        E 112 b1 0b 08
        E 16 b1 0b 19
        E 112 b1 0b 08
        E 16 b1 0b 19
        E 112 b1 0b 08
        E 16 b1 0b 19
        E 112 b1 0b 08
        E 16 b1 0b 19
        E 112 b1 0b 08
        E 16 b1 0b 19
        E 112 b1 0b 08
        E 16 b1 0b 19
        E 112 b1 0b 08
        E 16 b1 0b 19
        E 112 b1 0b 08
        E 16 b1 0b 19
        E 112 b1 0b 08
        E 16 b1 0b 19
        E 112 b1 0b 08
        E 16 b1 0b 19
        E 112 b1 0b 08
        E 16 b1 0b 19
        E 112 b1 0c 10
        E 0 b1 0b 22
        E 128 81 39 00
        E 0 91 36 22
        E 64 81 36 00
        E 0 91 42 22
        E 64 81 42 00
        E 0 91 31 22
        E 64 81 31 00
        E 0 91 3d 22
        E 192 81 3d 00
        E 0 91 36 22
        E 64 81 36 00
        E 0 91 42 22
        E 64 81 42 00
        E 0 91 31 22
        E 64 81 31 00
        E 0 91 3d 22
        E 64 b1 0b 33
        E 0 81 3d 00
        E 0 91 31 33
        E 16 b1 0b 2a
        E 16 b1 0b 22
        E 16 b1 0b 19
        E 16 b1 0b 11
        E 16 b1 0b 08
        E 16 81 31 00
        E 32 b1 0b 33
        E 0 91 31 33
        E 16 b1 0b 2a
        E 16 b1 0b 22
        E 16 b1 0b 19
        E 16 b1 0b 11
        E 16 b1 0b 08
        E 16 81 31 00
        E 32 b1 0b 33
        E 0 91 31 33
        E 16 b1 0b 2a
        E 16 b1 0b 22
        E 16 b1 0b 19
        E 16 b1 0b 11
        E 16 b1 0b 08
        E 16 81 31 00
        E 160 b1 0b 33
        E 0 91 31 33
        E 16 b1 0b 2a
        E 16 b1 0b 22
        E 16 b1 0b 19
        E 16 b1 0b 11
        E 16 b1 0b 08
        E 16 81 31 00
        E 160 b1 0b 22
        E 0 91 3b 22
        E 128 81 3b 00
        E 0 91 36 22
        E 64 81 36 00
        E 0 91 42 22
        E 64 81 42 00
        E 0 91 31 22
        E 64 81 31 00
        E 0 91 3d 22
        E 192 81 3d 00
        E 0 91 36 22
        E 64 81 36 00
        E 0 91 42 22
        E 64 81 42 00
        E 0 91 31 22
        E 64 81 31 00
        E 0 91 3d 22
        E 64 b1 0b 33
        E 0 81 3d 00
        E 0 91 31 33
        E 16 b1 0b 2a
        E 16 b1 0b 22
        E 16 b1 0b 19
        E 16 b1 0b 11
        E 16 b1 0b 08
        E 16 81 31 00
        E 32 b1 0b 33
        E 0 91 31 33
        E 16 b1 0b 2a
        E 16 b1 0b 22
        E 16 b1 0b 19
        E 16 b1 0b 11
        E 16 b1 0b 08
        E 16 81 31 00
        E 32 b1 0b 33
        E 0 91 31 33
        E 16 b1 0b 2a
        E 16 b1 0b 22
        E 16 b1 0b 19
        E 16 b1 0b 11
        E 16 b1 0b 08
        E 16 81 31 00
        E 160 b1 0b 33
        E 0 91 31 33
        E 16 b1 0b 2a
        E 16 b1 0b 22
        E 16 b1 0b 19
        E 16 b1 0b 11
        E 16 b1 0b 08
        E 16 81 31 00
        E 160 b1 0b 22
        E 0 91 47 22
        E 768 b1 0b 33
        E 16 b1 0b 2a
        E 16 b1 0b 22
        E 16 b1 0b 19
        E 16 b1 0b 11
        E 16 b1 0b 08
        E 16 81 47 00
        E 32 b1 0b 33
        E 0 91 47 33
        E 16 b1 0b 2a
        E 16 b1 0b 22
        E 16 b1 0b 19
        E 16 b1 0b 11
        E 16 b1 0b 08
        E 16 81 47 00
        E 32 b1 0b 33
        E 0 91 47 33
        E 16 b1 0b 2a
        E 16 b1 0b 22
        E 16 b1 0b 19
        E 16 b1 0b 11
        E 16 b1 0b 08
        E 16 81 47 00
        E 160 b1 0b 33
        E 0 91 47 33
        E 16 b1 0b 2a
        E 16 b1 0b 22
        E 16 b1 0b 19
        E 16 b1 0b 11
        E 16 b1 0b 08
        E 16 81 47 00
        E 160 b1 0b 22
        E 0 91 47 22
        E 768 b1 0b 33
        E 16 b1 0b 2a
        E 16 b1 0b 22
        E 16 b1 0b 19
        E 16 b1 0b 11
        E 16 b1 0b 08
        E 16 81 47 00
        E 32 b1 0b 33
        E 0 91 47 33
        E 16 b1 0b 2a
        E 16 b1 0b 22
        E 16 b1 0b 19
        E 16 b1 0b 11
        E 16 b1 0b 08
        E 16 81 47 00
        E 32 b1 0b 33
        E 0 91 47 33
        E 16 b1 0b 2a
        E 16 b1 0b 22
        E 16 b1 0b 19
        E 16 b1 0b 11
        E 16 b1 0b 08
        E 16 81 47 00
        E 160 b1 0b 33
        E 0 91 47 33
        E 16 b1 0b 2a
        E 16 b1 0b 22
        E 16 b1 0b 19
        E 16 b1 0b 11
        E 16 b1 0b 08
        E 16 81 47 00
        E 160 91 47 08
        E 256 b1 0b 33
        E 16 b1 0b 2a
        E 16 b1 0b 22
        E 16 b1 0b 19
        E 16 b1 0b 11
        E 16 b1 0b 08
        E 16 81 47 00
        E 32 b1 0b 33
        E 0 91 47 33
        E 16 b1 0b 2a
        E 16 b1 0b 22
        E 16 b1 0b 19
        E 16 b1 0b 11
        E 16 b1 0b 08
        E 16 81 47 00
        E 32 b1 0b 33
        E 0 91 47 33
        E 16 b1 0b 2a
        E 16 b1 0b 22
        E 16 b1 0b 19
        E 16 b1 0b 11
        E 16 b1 0b 08
        E 16 81 47 00
        E 160 b1 0c 40
        E 0 91 47 08
        E 16 b1 0b 11
        E 176 b1 0b 08
        E 16 b1 0b 11
        E 48 b1 0b 08
        E 16 b1 0b 11
        E 48 b1 0b 08
        E 16 b1 0b 11
        E 48 b1 0b 08
        E 16 b1 0b 11
        E 80 b1 0b 08
        E 16 81 47 00
        E 80 91 47 08
        E 16 b1 0b 11
        E 176 b1 0b 08
        E 16 b1 0b 11
        E 112 b1 0b 08
        E 16 81 47 00
        E 48 91 47 08
        E 16 b1 0b 11
        E 112 b1 0b 08
        E 16 81 47 00
        E 48 91 47 08
        E 16 b1 0b 11
        E 176 b1 0b 08
        E 16 b1 0b 11
        E 80 b1 0b 08
        E 16 81 47 00
        E 80 91 47 08
        E 16 b1 0b 11
        E 176 b1 0b 08
        E 16 b1 0b 11
        E 80 b1 0b 08
        E 16 81 47 00
        E 80 91 47 08
        E 16 b1 0b 11
        E 272 b1 0b 08
        E 16 81 47 00
        E 80 91 47 08
        E 16 b1 0b 11
        E 80 b1 0b 08
        E 16 b1 0b 11
        E 80 b1 0b 08
        E 16 b1 0b 11
        E 176 b1 0b 08
        E 16 b1 0b 11
        E 80 b1 0b 08
        E 16 b1 0b 11
        E 80 b1 0b 08
        E 16 b1 0b 11
        E 176 b1 0b 08
        E 16 b1 0b 11
        E 80 b1 0b 08
        E 16 b1 0b 11
        E 80 b1 0b 08
        E 16 b1 0b 11
        E 176 b1 0b 08
        E 16 b1 0b 11
        E 176 b1 0b 08
        E 16 b1 0b 11
        E 80 b1 0b 08
        E 16 81 47 00
        E 80 91 47 08
        E 16 b1 0b 11
        E 80 b1 0b 08
        E 16 81 47 00
        E 80 91 47 08
        E 16 b1 0b 11
        E 176 b1 0b 08
        E 16 b1 0b 11
        E 80 b1 0b 08
        E 16 81 47 00
        E 80 91 47 08
        E 16 b1 0b 11
        E 80 b1 0b 08
        E 16 81 47 00
        E 80 91 47 08
        E 16 b1 0b 11
        E 176 b1 0b 08
        E 16 b1 0b 11
        E 48 b1 0b 08
        E 16 b1 0b 11
        E 48 b1 0b 08
        E 16 b1 0b 11
        E 48 b1 0b 08
        E 16 b1 0b 11
        E 80 b1 0b 08
        E 16 81 47 00
        E 80 91 47 08
        E 16 b1 0b 11
        E 176 b1 0b 08
        E 16 b1 0b 11
        E 112 b1 0b 08
        E 16 81 47 00
        E 48 91 47 08
        E 16 b1 0b 11
        E 112 b1 0b 08
        E 16 81 47 00
        E 48 91 47 08
        E 16 b1 0b 11
        E 176 b1 0b 08
        E 16 b1 0b 11
        E 80 b1 0b 08
        E 16 81 47 00
        E 80 91 47 08
        E 16 b1 0b 11
        E 176 b1 0b 08
        E 16 b1 0b 11
        E 80 b1 0b 08
        E 16 81 47 00
        E 80 91 47 08
        E 16 b1 0b 11
        E 272 b1 0b 08
        E 16 81 47 00
        E 80 91 47 08
        E 16 b1 0b 11
        E 80 b1 0b 08
        E 16 b1 0b 11
        E 80 b1 0b 08
        E 16 b1 0b 11
        E 176 b1 0b 08
        E 16 b1 0b 11
        E 80 b1 0b 08
        E 16 b1 0b 11
        E 80 b1 0b 08
        E 16 b1 0b 11
        E 176 b1 0b 08
        E 16 b1 0b 11
        E 80 b1 0b 08
        E 16 b1 0b 11
        E 80 b1 0b 08
        E 16 b1 0b 11
        E 176 b1 0b 08
        E 16 b1 0b 11
        E 176 b1 0b 08
        E 16 b1 0b 11
        E 80 b1 0b 08
        E 16 81 47 00
        E 80 91 47 08
        E 16 b1 0b 11
        E 80 b1 0b 08
        E 16 81 47 00
        E 80 91 47 08
        E 16 b1 0b 11
        E 176 b1 0b 08
        E 16 b1 0b 11
        E 80 b1 0b 08
        E 16 81 47 00
        E 80 91 47 08
        E 16 b1 0b 11
        E 80 b1 0b 08
        E 16 81 47 00
        E 80 b1 0c 60
        E 0 b1 0b 11
        E 0 91 28 11
        E 32 81 28 00
        E 0 91 34 11
        E 64 81 34 00
        E 0 91 39 11
        E 32 81 39 00
        E 0 91 31 11
        E 32 81 31 00
        E 0 91 3d 11
        E 32 81 3d 00
        E 0 91 34 11
        E 32 81 34 00
        E 0 91 40 11
        E 160 81 40 00
        E 0 91 28 11
        E 32 81 28 00
        E 0 91 34 11
        E 64 81 34 00
        E 0 91 39 11
        E 32 81 39 00
        E 0 91 31 11
        E 32 81 31 00
        E 0 91 3d 11
        E 32 81 3d 00
        E 0 91 34 11
        E 32 81 34 00
        E 0 91 40 11
        E 160 81 40 00
        E 0 91 28 11
        E 32 81 28 00
        E 0 91 34 11
        E 64 81 34 00
        E 0 91 39 11
        E 32 81 39 00
        E 0 91 31 11
        E 32 81 31 00
        E 0 91 3d 11
        E 32 81 3d 00
        E 0 91 34 11
        E 32 81 34 00
        E 0 91 40 11
        E 160 81 40 00
        E 0 91 28 11
        E 32 81 28 00
        E 0 91 34 11
        E 32 81 34 00
        E 0 b1 7b 00
        E 0 ff 2f 00
      >
    >
  >
  <TRACK {535C80F6-A1E7-4C71-B61E-4EA947C77269}
    NAME "NES - Triangle"
    PEAKCOL 16744192
    BEAT -1
    AUTOMODE 0
    PANLAWFLAGS 3
    VOLPAN 1 0 -1 -1 1
    MUTESOLO 0 0 0
    IPHASE 0
    PLAYOFFS 0 1
    ISBUS 0 0
    BUSCOMP 0 0 0 0 0
    SHOWINMIX 1 0.6667 0.5 1 0.5 0 0 0
    FIXEDLANES 9 0 0 0 0
    SEL 0
    REC 0 5088 1 0 0 0 0 0
    VU 2
    TRACKHEIGHT 0 0 0 0 0 0 0
    INQ 0 0 0 0.5 100 0 0 100
    NCHAN 2
    FX 1
    TRACKID {535C80F6-A1E7-4C71-B61E-4EA947C77269}
    PERF 0
    MIDIOUT -1
    MAINSEND 1 0
    <FXCHAIN
      WNDRECT 24 52 700 560
      SHOW 0
      LASTSEL 0
      DOCKED 0
      BYPASS 0 0 0
      <JS "ReapNES Studio/ReapNES_Console.jsfx" ""
        2 15 1 10 80 10 100 2 1 15 1 5 60 10 80 1 1 0 50 0 0 15 1 0 100 0 0 0.500000 0.500000 0.400000 0.300000 0.800000 2 1 0 0 0 0 - - - - - - - - - - - - - - - - - - - - - - - - - -
      >
      FLOATPOS 0 0 0 0
      FXID {AE653963-43AF-4860-ACE7-C88EAC6E7BC0}
      WAK 0 0
    >
  >
  <TRACK {8DD85864-151A-4D95-B0ED-78A9B9CF770B}
    NAME "NES - Noise / Drums [ch3]"
    PEAKCOL 11184810
    BEAT -1
    AUTOMODE 0
    PANLAWFLAGS 3
    VOLPAN 1 0 -1 -1 1
    MUTESOLO 0 0 0
    IPHASE 0
    PLAYOFFS 0 1
    ISBUS 0 0
    BUSCOMP 0 0 0 0 0
    SHOWINMIX 1 0.6667 0.5 1 0.5 0 0 0
    FIXEDLANES 9 0 0 0 0
    SEL 0
    REC 0 5088 1 0 0 0 0 0
    VU 2
    TRACKHEIGHT 0 0 0 0 0 0 0
    INQ 0 0 0 0.5 100 0 0 100
    NCHAN 2
    FX 1
    TRACKID {8DD85864-151A-4D95-B0ED-78A9B9CF770B}
    PERF 0
    MIDIOUT -1
    MAINSEND 1 0
    <FXCHAIN
      WNDRECT 24 52 700 560
      SHOW 0
      LASTSEL 0
      DOCKED 0
      BYPASS 0 0 0
      <JS "ReapNES Studio/ReapNES_Console.jsfx" ""
        2 15 1 10 80 10 100 2 1 15 1 5 60 10 80 1 1 0 50 0 0 15 1 0 100 0 0 0.500000 0.500000 0.400000 0.300000 0.800000 3 1 0 0 0 0 - - - - - - - - - - - - - - - - - - - - - - - - - -
      >
      FLOATPOS 0 0 0 0
      FXID {5B3ADA78-740A-4EA2-90D5-BDF96EAC58DC}
      WAK 0 0
    >
    <ITEM
      POSITION 0
      LENGTH 74.0902044
      LOOP 0
      ALLTAKES 0
      FADEIN 0 0 0 0 0 0 0
      FADEOUT 0 0 0 0 0 0 0
      MUTE 0 0
      SEL 0
      IGUID {4BA15A77-F7CE-4BF3-A213-9609F238D60B}
      <SOURCE MIDI
        HASDATA 1 480 QN
        CCINTERP 32
        E 6576 93 2a 11
        E 16 83 2a 00
        E 0 93 2a 19
        E 16 83 2a 00
        E 0 93 2a 22
        E 16 83 2a 00
        E 0 93 2a 2a
        E 16 83 2a 00
        E 0 93 2a 5d
        E 16 83 2a 00
        E 0 93 2a 33
        E 48 83 2a 00
        E 0 93 2a 33
        E 64 83 2a 00
        E 0 93 2a 33
        E 80 83 2a 00
        E 0 93 2a 33
        E 496 83 2a 00
        E 0 93 2a 11
        E 16 83 2a 00
        E 0 93 2a 19
        E 16 83 2a 00
        E 0 93 2a 22
        E 16 83 2a 00
        E 0 93 2a 2a
        E 16 83 2a 00
        E 0 93 2a 5d
        E 16 83 2a 00
        E 0 93 2a 33
        E 48 83 2a 00
        E 0 93 2a 33
        E 64 83 2a 00
        E 0 93 2a 33
        E 80 83 2a 00
        E 0 93 2a 33
        E 560 83 2a 00
        E 0 93 2a 2a
        E 16 83 2a 00
        E 0 93 2a 2a
        E 384 83 2a 00
        E 368 93 2a 2a
        E 16 83 2a 00
        E 0 93 2a 2a
        E 384 83 2a 00
        E 304 93 2a 11
        E 16 83 2a 00
        E 0 93 2a 19
        E 16 83 2a 00
        E 0 93 2a 22
        E 16 83 2a 00
        E 0 93 2a 2a
        E 16 83 2a 00
        E 0 93 2a 5d
        E 16 83 2a 00
        E 0 93 2a 33
        E 48 83 2a 00
        E 0 93 2a 33
        E 64 83 2a 00
        E 0 93 2a 33
        E 80 83 2a 00
        E 0 93 2a 33
        E 496 83 2a 00
        E 0 93 2a 11
        E 16 83 2a 00
        E 0 93 2a 19
        E 16 83 2a 00
        E 0 93 2a 22
        E 16 83 2a 00
        E 0 93 2a 2a
        E 16 83 2a 00
        E 0 93 2a 5d
        E 16 83 2a 00
        E 0 93 2a 33
        E 48 83 2a 00
        E 0 93 2a 33
        E 64 83 2a 00
        E 0 93 2a 33
        E 80 83 2a 00
        E 0 93 2a 33
        E 560 83 2a 00
        E 0 93 2a 2a
        E 16 83 2a 00
        E 0 93 2a 2a
        E 384 83 2a 00
        E 368 93 2a 2a
        E 16 83 2a 00
        E 0 93 2a 2a
        E 384 83 2a 00
        E 304 93 2a 11
        E 16 83 2a 00
        E 0 93 2a 19
        E 16 83 2a 00
        E 0 93 2a 22
        E 16 83 2a 00
        E 0 93 2a 2a
        E 16 83 2a 00
        E 0 93 2a 5d
        E 16 83 2a 00
        E 0 93 2a 33
        E 48 83 2a 00
        E 0 93 2a 33
        E 64 83 2a 00
        E 0 93 2a 33
        E 80 83 2a 00
        E 0 93 2a 33
        E 496 83 2a 00
        E 0 93 2a 11
        E 16 83 2a 00
        E 0 93 2a 19
        E 16 83 2a 00
        E 0 93 2a 22
        E 16 83 2a 00
        E 0 93 2a 2a
        E 16 83 2a 00
        E 0 93 2a 5d
        E 16 83 2a 00
        E 0 93 2a 33
        E 48 83 2a 00
        E 0 93 2a 33
        E 64 83 2a 00
        E 0 93 2a 33
        E 80 83 2a 00
        E 0 93 2a 33
        E 560 83 2a 00
        E 0 93 2a 2a
        E 16 83 2a 00
        E 0 93 2a 2a
        E 384 83 2a 00
        E 368 93 2a 2a
        E 16 83 2a 00
        E 0 93 2a 2a
        E 384 83 2a 00
        E 304 93 2a 11
        E 16 83 2a 00
        E 0 93 2a 19
        E 16 83 2a 00
        E 0 93 2a 22
        E 16 83 2a 00
        E 0 93 2a 2a
        E 16 83 2a 00
        E 0 93 2a 5d
        E 16 83 2a 00
        E 0 93 2a 33
        E 48 83 2a 00
        E 0 93 2a 33
        E 64 83 2a 00
        E 0 93 2a 33
        E 80 83 2a 00
        E 0 93 2a 33
        E 496 83 2a 00
        E 0 93 2a 11
        E 16 83 2a 00
        E 0 93 2a 19
        E 16 83 2a 00
        E 0 93 2a 22
        E 16 83 2a 00
        E 0 93 2a 2a
        E 16 83 2a 00
        E 0 93 2a 5d
        E 16 83 2a 00
        E 0 93 2a 33
        E 48 83 2a 00
        E 0 93 2a 33
        E 64 83 2a 00
        E 0 93 2a 33
        E 80 83 2a 00
        E 0 93 2a 33
        E 560 83 2a 00
        E 0 93 2a 2a
        E 16 83 2a 00
        E 0 93 2a 2a
        E 384 83 2a 00
        E 368 93 2a 2a
        E 16 83 2a 00
        E 0 93 2a 2a
        E 384 83 2a 00
        E 304 93 2a 11
        E 16 83 2a 00
        E 0 93 2a 19
        E 16 83 2a 00
        E 0 93 2a 22
        E 16 83 2a 00
        E 0 93 2a 2a
        E 16 83 2a 00
        E 0 93 2a 5d
        E 16 83 2a 00
        E 0 93 2a 2a
        E 48 83 2a 00
        E 0 93 2a 2a
        E 64 83 2a 00
        E 0 93 2a 2a
        E 80 83 2a 00
        E 0 93 2a 2a
        E 624 83 2a 00
        E 2240 93 2a 2a
        E 16 83 2a 00
        E 0 93 2a 19
        E 128 83 2a 00
        E 112 93 2a 19
        E 16 83 2a 00
        E 0 93 2a 19
        E 112 83 2a 00
        E 0 93 2a 2a
        E 16 83 2a 00
        E 0 93 2a 2a
        E 144 83 2a 00
        E 96 93 2a 19
        E 16 83 2a 00
        E 0 93 2a 19
        E 112 83 2a 00
        E 0 93 2a 2a
        E 16 83 2a 00
        E 0 93 2a 19
        E 128 83 2a 00
        E 112 93 2a 19
        E 16 83 2a 00
        E 0 93 2a 19
        E 112 83 2a 00
        E 0 93 2a 2a
        E 16 83 2a 00
        E 0 93 2a 2a
        E 144 83 2a 00
        E 96 93 2a 19
        E 16 83 2a 00
        E 0 93 2a 19
        E 112 83 2a 00
        E 0 93 2a 2a
        E 16 83 2a 00
        E 0 93 2a 19
        E 128 83 2a 00
        E 112 93 2a 19
        E 16 83 2a 00
        E 0 93 2a 19
        E 112 83 2a 00
        E 0 93 2a 2a
        E 16 83 2a 00
        E 0 93 2a 2a
        E 144 83 2a 00
        E 96 93 2a 19
        E 16 83 2a 00
        E 0 93 2a 19
        E 112 83 2a 00
        E 0 93 2a 2a
        E 16 83 2a 00
        E 0 93 2a 19
        E 128 83 2a 00
        E 112 93 2a 19
        E 16 83 2a 00
        E 0 93 2a 19
        E 112 83 2a 00
        E 0 93 2a 2a
        E 16 83 2a 00
        E 0 93 2a 2a
        E 144 83 2a 00
        E 96 93 2a 2a
        E 16 83 2a 00
        E 0 93 2a 2a
        E 128 83 2a 00
        E 0 93 2a 19
        E 128 83 2a 00
        E 112 93 2a 19
        E 16 83 2a 00
        E 0 93 2a 19
        E 112 83 2a 00
        E 0 93 2a 2a
        E 16 83 2a 00
        E 0 93 2a 2a
        E 144 83 2a 00
        E 96 93 2a 19
        E 16 83 2a 00
        E 0 93 2a 19
        E 112 83 2a 00
        E 0 93 2a 2a
        E 16 83 2a 00
        E 0 93 2a 19
        E 128 83 2a 00
        E 112 93 2a 19
        E 16 83 2a 00
        E 0 93 2a 19
        E 112 83 2a 00
        E 0 93 2a 2a
        E 16 83 2a 00
        E 0 93 2a 2a
        E 144 83 2a 00
        E 96 93 2a 19
        E 16 83 2a 00
        E 0 93 2a 19
        E 112 83 2a 00
        E 0 93 2a 2a
        E 16 83 2a 00
        E 0 93 2a 19
        E 128 83 2a 00
        E 112 93 2a 19
        E 16 83 2a 00
        E 0 93 2a 19
        E 112 83 2a 00
        E 0 93 2a 2a
        E 16 83 2a 00
        E 0 93 2a 2a
        E 144 83 2a 00
        E 96 93 2a 19
        E 16 83 2a 00
        E 0 93 2a 19
        E 112 83 2a 00
        E 0 93 2a 2a
        E 16 83 2a 00
        E 0 93 2a 19
        E 128 83 2a 00
        E 112 93 2a 19
        E 16 83 2a 00
        E 0 93 2a 19
        E 112 83 2a 00
        E 0 93 2a 2a
        E 16 83 2a 00
        E 0 93 2a 2a
        E 144 83 2a 00
        E 96 93 2a 2a
        E 16 83 2a 00
        E 0 93 2a 2a
        E 128 83 2a 00
        E 0 93 2a 19
        E 128 83 2a 00
        E 112 93 2a 19
        E 16 83 2a 00
        E 0 93 2a 19
        E 112 83 2a 00
        E 0 93 2a 2a
        E 16 83 2a 00
        E 0 93 2a 2a
        E 144 83 2a 00
        E 96 93 2a 19
        E 16 83 2a 00
        E 0 93 2a 19
        E 112 83 2a 00
        E 0 93 2a 2a
        E 16 83 2a 00
        E 0 93 2a 19
        E 128 83 2a 00
        E 112 93 2a 19
        E 16 83 2a 00
        E 0 93 2a 19
        E 112 83 2a 00
        E 0 93 2a 2a
        E 16 83 2a 00
        E 0 93 2a 2a
        E 144 83 2a 00
        E 96 93 2a 19
        E 16 83 2a 00
        E 0 93 2a 19
        E 112 83 2a 00
        E 0 93 2a 2a
        E 16 83 2a 00
        E 0 93 2a 19
        E 128 83 2a 00
        E 112 93 2a 19
        E 16 83 2a 00
        E 0 93 2a 19
        E 112 83 2a 00
        E 0 93 2a 2a
        E 16 83 2a 00
        E 0 93 2a 2a
        E 144 83 2a 00
        E 96 93 2a 19
        E 16 83 2a 00
        E 0 93 2a 19
        E 112 83 2a 00
        E 0 93 2a 2a
        E 16 83 2a 00
        E 0 93 2a 19
        E 128 83 2a 00
        E 112 93 2a 19
        E 16 83 2a 00
        E 0 93 2a 19
        E 112 83 2a 00
        E 0 93 2a 2a
        E 16 83 2a 00
        E 0 93 2a 2a
        E 144 83 2a 00
        E 96 93 2a 2a
        E 16 83 2a 00
        E 0 93 2a 2a
        E 128 83 2a 00
        E 0 93 2a 19
        E 128 83 2a 00
        E 112 93 2a 19
        E 16 83 2a 00
        E 0 93 2a 19
        E 112 83 2a 00
        E 0 93 2a 2a
        E 16 83 2a 00
        E 0 93 2a 2a
        E 144 83 2a 00
        E 96 93 2a 19
        E 16 83 2a 00
        E 0 93 2a 19
        E 112 83 2a 00
        E 0 93 2a 2a
        E 16 83 2a 00
        E 0 93 2a 19
        E 128 83 2a 00
        E 112 93 2a 19
        E 16 83 2a 00
        E 0 93 2a 19
        E 112 83 2a 00
        E 0 93 2a 2a
        E 16 83 2a 00
        E 0 93 2a 2a
        E 144 83 2a 00
        E 96 93 2a 19
        E 16 83 2a 00
        E 0 93 2a 19
        E 112 83 2a 00
        E 0 93 2a 2a
        E 16 83 2a 00
        E 0 93 2a 19
        E 128 83 2a 00
        E 112 93 2a 19
        E 16 83 2a 00
        E 0 93 2a 19
        E 112 83 2a 00
        E 0 93 2a 2a
        E 16 83 2a 00
        E 0 93 2a 2a
        E 144 83 2a 00
        E 96 93 2a 19
        E 16 83 2a 00
        E 0 93 2a 19
        E 112 83 2a 00
        E 0 93 2a 2a
        E 16 83 2a 00
        E 0 93 2a 19
        E 128 83 2a 00
        E 112 93 2a 19
        E 16 83 2a 00
        E 0 93 2a 19
        E 112 83 2a 00
        E 0 93 2a 2a
        E 16 83 2a 00
        E 0 93 2a 2a
        E 144 83 2a 00
        E 96 93 2a 2a
        E 16 83 2a 00
        E 0 93 2a 2a
        E 128 83 2a 00
        E 0 93 2a 19
        E 128 83 2a 00
        E 112 93 2a 19
        E 16 83 2a 00
        E 0 93 2a 19
        E 112 83 2a 00
        E 0 93 2a 2a
        E 16 83 2a 00
        E 0 93 2a 2a
        E 144 83 2a 00
        E 96 93 2a 19
        E 16 83 2a 00
        E 0 93 2a 19
        E 112 83 2a 00
        E 0 93 2a 2a
        E 16 83 2a 00
        E 0 93 2a 19
        E 128 83 2a 00
        E 112 93 2a 2a
        E 16 83 2a 00
        E 0 93 2a 2a
        E 144 83 2a 00
        E 96 93 2a 2a
        E 16 83 2a 00
        E 0 93 2a 2a
        E 144 83 2a 00
        E 96 93 2a 2a
        E 16 83 2a 00
        E 0 93 2a 19
        E 128 83 2a 00
        E 112 93 2a 19
        E 16 83 2a 00
        E 0 93 2a 19
        E 112 83 2a 00
        E 0 93 2a 2a
        E 16 83 2a 00
        E 0 93 2a 2a
        E 144 83 2a 00
        E 96 93 2a 19
        E 16 83 2a 00
        E 0 93 2a 19
        E 112 83 2a 00
        E 0 93 2a 2a
        E 16 83 2a 00
        E 0 93 2a 19
        E 128 83 2a 00
        E 112 93 2a 19
        E 16 83 2a 00
        E 0 93 2a 19
        E 112 83 2a 00
        E 0 93 2a 2a
        E 16 83 2a 00
        E 0 93 2a 2a
        E 144 83 2a 00
        E 96 93 2a 19
        E 16 83 2a 00
        E 0 93 2a 19
        E 112 83 2a 00
        E 0 93 2a 2a
        E 16 83 2a 00
        E 0 93 2a 19
        E 128 83 2a 00
        E 112 93 2a 19
        E 16 83 2a 00
        E 0 93 2a 19
        E 112 83 2a 00
        E 0 93 2a 2a
        E 16 83 2a 00
        E 0 93 2a 2a
        E 144 83 2a 00
        E 96 93 2a 19
        E 16 83 2a 00
        E 0 93 2a 19
        E 112 83 2a 00
        E 0 93 2a 2a
        E 16 83 2a 00
        E 0 93 2a 19
        E 128 83 2a 00
        E 112 93 2a 2a
        E 16 83 2a 00
        E 0 93 2a 2a
        E 144 83 2a 00
        E 96 93 2a 2a
        E 16 83 2a 00
        E 0 93 2a 2a
        E 144 83 2a 00
        E 96 93 2a 2a
        E 16 83 2a 00
        E 0 93 2a 19
        E 128 83 2a 00
        E 112 93 2a 19
        E 16 83 2a 00
        E 0 93 2a 19
        E 112 83 2a 00
        E 0 93 2a 2a
        E 16 83 2a 00
        E 0 93 2a 2a
        E 144 83 2a 00
        E 96 93 2a 19
        E 16 83 2a 00
        E 0 93 2a 19
        E 112 83 2a 00
        E 0 93 2a 2a
        E 16 83 2a 00
        E 0 93 2a 19
        E 128 83 2a 00
        E 112 93 2a 19
        E 16 83 2a 00
        E 0 93 2a 19
        E 112 83 2a 00
        E 0 93 2a 2a
        E 16 83 2a 00
        E 0 93 2a 2a
        E 144 83 2a 00
        E 96 93 2a 19
        E 16 83 2a 00
        E 0 93 2a 19
        E 112 83 2a 00
        E 0 93 2a 2a
        E 16 83 2a 00
        E 0 93 2a 19
        E 128 83 2a 00
        E 112 93 2a 19
        E 16 83 2a 00
        E 0 93 2a 19
        E 112 83 2a 00
        E 0 93 2a 2a
        E 16 83 2a 00
        E 0 93 2a 2a
        E 144 83 2a 00
        E 96 93 2a 19
        E 16 83 2a 00
        E 0 93 2a 19
        E 112 83 2a 00
        E 0 93 2a 2a
        E 16 83 2a 00
        E 0 93 2a 19
        E 128 83 2a 00
        E 112 93 2a 2a
        E 16 83 2a 00
        E 0 93 2a 2a
        E 144 83 2a 00
        E 96 93 2a 2a
        E 16 83 2a 00
        E 0 93 2a 2a
        E 144 83 2a 00
        E 96 93 2a 2a
        E 16 83 2a 00
        E 0 93 2a 19
        E 128 83 2a 00
        E 112 93 2a 19
        E 16 83 2a 00
        E 0 93 2a 19
        E 112 83 2a 00
        E 0 93 2a 2a
        E 16 83 2a 00
        E 0 93 2a 2a
        E 144 83 2a 00
        E 96 93 2a 19
        E 16 83 2a 00
        E 0 93 2a 19
        E 112 83 2a 00
        E 0 93 2a 2a
        E 16 83 2a 00
        E 0 93 2a 19
        E 128 83 2a 00
        E 112 93 2a 19
        E 16 83 2a 00
        E 0 93 2a 19
        E 112 83 2a 00
        E 0 93 2a 2a
        E 16 83 2a 00
        E 0 93 2a 2a
        E 144 83 2a 00
        E 96 93 2a 19
        E 16 83 2a 00
        E 0 93 2a 19
        E 112 83 2a 00
        E 0 93 2a 2a
        E 16 83 2a 00
        E 0 93 2a 19
        E 128 83 2a 00
        E 112 93 2a 19
        E 16 83 2a 00
        E 0 93 2a 19
        E 112 83 2a 00
        E 0 93 2a 2a
        E 16 83 2a 00
        E 0 93 2a 2a
        E 144 83 2a 00
        E 96 93 2a 19
        E 16 83 2a 00
        E 0 93 2a 19
        E 112 83 2a 00
        E 0 93 2a 2a
        E 16 83 2a 00
        E 0 93 2a 19
        E 128 83 2a 00
        E 112 93 2a 2a
        E 16 83 2a 00
        E 0 93 2a 2a
        E 144 83 2a 00
        E 96 93 2a 2a
        E 16 83 2a 00
        E 0 93 2a 2a
        E 144 83 2a 00
        E 96 93 2a 2a
        E 16 83 2a 00
        E 0 93 2a 19
        E 128 83 2a 00
        E 112 93 2a 19
        E 16 83 2a 00
        E 0 93 2a 19
        E 112 83 2a 00
        E 0 93 2a 2a
        E 16 83 2a 00
        E 0 93 2a 2a
        E 144 83 2a 00
        E 96 93 2a 19
        E 16 83 2a 00
        E 0 93 2a 19
        E 112 83 2a 00
        E 0 93 2a 2a
        E 16 83 2a 00
        E 0 93 2a 19
        E 128 83 2a 00
        E 112 93 2a 19
        E 16 83 2a 00
        E 0 93 2a 19
        E 112 83 2a 00
        E 0 93 2a 2a
        E 16 83 2a 00
        E 0 93 2a 2a
        E 144 83 2a 00
        E 96 93 2a 19
        E 16 83 2a 00
        E 0 93 2a 19
        E 112 83 2a 00
        E 0 93 2a 2a
        E 16 83 2a 00
        E 0 93 2a 19
        E 128 83 2a 00
        E 112 93 2a 19
        E 16 83 2a 00
        E 0 93 2a 19
        E 112 83 2a 00
        E 0 93 2a 2a
        E 16 83 2a 00
        E 0 93 2a 2a
        E 144 83 2a 00
        E 96 93 2a 19
        E 16 83 2a 00
        E 0 93 2a 19
        E 112 83 2a 00
        E 0 93 2a 2a
        E 16 83 2a 00
        E 0 93 2a 19
        E 112 83 2a 00
        E 0 93 2a 2a
        E 16 83 2a 00
        E 0 93 2a 2a
        E 112 83 2a 00
        E 0 93 2a 2a
        E 16 83 2a 00
        E 0 93 2a 2a
        E 128 83 2a 00
        E 0 93 2a 19
        E 112 83 2a 00
        E 0 93 2a 2a
        E 16 83 2a 00
        E 0 93 2a 2a
        E 112 83 2a 00
        E 0 93 2a 2a
        E 16 83 2a 00
        E 0 93 2a 2a
        E 128 83 2a 00
        E 0 93 2a 19
        E 128 83 2a 00
        E 112 93 2a 19
        E 16 83 2a 00
        E 0 93 2a 19
        E 112 83 2a 00
        E 0 93 2a 2a
        E 16 83 2a 00
        E 0 93 2a 2a
        E 144 83 2a 00
        E 96 93 2a 2a
        E 16 83 2a 00
        E 0 93 2a 19
        E 112 83 2a 00
        E 0 93 2a 2a
        E 16 83 2a 00
        E 0 93 2a 2a
        E 144 83 2a 00
        E 96 93 2a 2a
        E 16 83 2a 00
        E 0 93 2a 2a
        E 144 83 2a 00
        E 96 93 2a 2a
        E 16 83 2a 00
        E 0 93 2a 2a
        E 144 83 2a 00
        E 96 93 2a 2a
        E 16 83 2a 00
        E 0 93 2a 19
        E 128 83 2a 00
        E 112 93 2a 19
        E 16 83 2a 00
        E 0 93 2a 19
        E 112 83 2a 00
        E 0 93 2a 2a
        E 16 83 2a 00
        E 0 93 2a 2a
        E 144 83 2a 00
        E 96 93 2a 19
        E 16 83 2a 00
        E 0 93 2a 19
        E 112 83 2a 00
        E 0 93 2a 2a
        E 16 83 2a 00
        E 0 93 2a 19
        E 112 83 2a 00
        E 0 93 2a 2a
        E 16 83 2a 00
        E 0 93 2a 2a
        E 112 83 2a 00
        E 0 93 2a 2a
        E 16 83 2a 00
        E 0 93 2a 2a
        E 128 83 2a 00
        E 0 93 2a 19
        E 112 83 2a 00
        E 0 93 2a 2a
        E 16 83 2a 00
        E 0 93 2a 2a
        E 112 83 2a 00
        E 0 93 2a 2a
        E 16 83 2a 00
        E 0 93 2a 2a
        E 128 83 2a 00
        E 0 93 2a 19
        E 128 83 2a 00
        E 112 93 2a 19
        E 16 83 2a 00
        E 0 93 2a 19
        E 112 83 2a 00
        E 0 93 2a 2a
        E 16 83 2a 00
        E 0 93 2a 2a
        E 144 83 2a 00
        E 96 93 2a 2a
        E 16 83 2a 00
        E 0 93 2a 19
        E 112 83 2a 00
        E 0 93 2a 2a
        E 16 83 2a 00
        E 0 93 2a 2a
        E 144 83 2a 00
        E 96 93 2a 2a
        E 16 83 2a 00
        E 0 93 2a 2a
        E 144 83 2a 00
        E 96 93 2a 2a
        E 16 83 2a 00
        E 0 93 2a 2a
        E 144 83 2a 00
        E 96 93 2a 2a
        E 16 83 2a 00
        E 0 93 2a 19
        E 128 83 2a 00
        E 112 93 2a 19
        E 16 83 2a 00
        E 0 93 2a 19
        E 112 83 2a 00
        E 0 93 2a 2a
        E 16 83 2a 00
        E 0 93 2a 2a
        E 144 83 2a 00
        E 96 93 2a 19
        E 16 83 2a 00
        E 0 93 2a 19
        E 112 83 2a 00
        E 0 93 2a 2a
        E 16 83 2a 00
        E 0 93 2a 19
        E 112 83 2a 00
        E 0 93 2a 2a
        E 16 83 2a 00
        E 0 93 2a 2a
        E 112 83 2a 00
        E 0 93 2a 2a
        E 16 83 2a 00
        E 0 93 2a 2a
        E 128 83 2a 00
        E 0 93 2a 19
        E 112 83 2a 00
        E 0 93 2a 2a
        E 16 83 2a 00
        E 0 93 2a 2a
        E 112 83 2a 00
        E 0 93 2a 2a
        E 16 83 2a 00
        E 0 93 2a 2a
        E 128 83 2a 00
        E 0 93 2a 19
        E 128 83 2a 00
        E 112 93 2a 19
        E 16 83 2a 00
        E 0 93 2a 19
        E 112 83 2a 00
        E 0 93 2a 2a
        E 16 83 2a 00
        E 0 93 2a 2a
        E 144 83 2a 00
        E 96 93 2a 2a
        E 16 83 2a 00
        E 0 93 2a 19
        E 112 83 2a 00
        E 0 93 2a 2a
        E 16 83 2a 00
        E 0 93 2a 2a
        E 144 83 2a 00
        E 96 93 2a 2a
        E 16 83 2a 00
        E 0 93 2a 2a
        E 144 83 2a 00
        E 96 93 2a 2a
        E 16 83 2a 00
        E 0 93 2a 2a
        E 144 83 2a 00
        E 96 93 2a 2a
        E 16 83 2a 00
        E 0 93 2a 19
        E 128 83 2a 00
        E 112 93 2a 19
        E 16 83 2a 00
        E 0 93 2a 19
        E 112 83 2a 00
        E 0 93 2a 2a
        E 16 83 2a 00
        E 0 93 2a 2a
        E 144 83 2a 00
        E 96 93 2a 19
        E 16 83 2a 00
        E 0 93 2a 19
        E 112 83 2a 00
        E 0 93 2a 2a
        E 16 83 2a 00
        E 0 93 2a 19
        E 112 83 2a 00
        E 0 93 2a 2a
        E 16 83 2a 00
        E 0 93 2a 2a
        E 112 83 2a 00
        E 0 93 2a 2a
        E 16 83 2a 00
        E 0 93 2a 2a
        E 128 83 2a 00
        E 0 93 2a 19
        E 112 83 2a 00
        E 0 93 2a 2a
        E 16 83 2a 00
        E 0 93 2a 2a
        E 112 83 2a 00
        E 0 93 2a 2a
        E 16 83 2a 00
        E 0 93 2a 2a
        E 128 83 2a 00
        E 0 93 2a 19
        E 128 83 2a 00
        E 112 93 2a 19
        E 16 83 2a 00
        E 0 93 2a 19
        E 112 83 2a 00
        E 0 93 2a 2a
        E 16 83 2a 00
        E 0 93 2a 2a
        E 144 83 2a 00
        E 96 93 2a 2a
        E 16 83 2a 00
        E 0 93 2a 19
        E 112 83 2a 00
        E 0 93 2a 2a
        E 16 83 2a 00
        E 0 93 2a 2a
        E 144 83 2a 00
        E 96 93 2a 2a
        E 16 83 2a 00
        E 0 93 2a 2a
        E 144 83 2a 00
        E 96 93 2a 2a
        E 16 83 2a 00
        E 0 93 2a 2a
        E 144 83 2a 00
        E 32 93 2a 11
        E 16 83 2a 00
        E 0 93 2a 19
        E 16 83 2a 00
        E 0 93 2a 22
        E 16 83 2a 00
        E 0 93 2a 2a
        E 16 83 2a 00
        E 0 93 2a 5d
        E 16 83 2a 00
        E 0 93 2a 2a
        E 48 83 2a 00
        E 0 93 2a 2a
        E 64 83 2a 00
        E 0 93 2a 2a
        E 80 83 2a 00
        E 0 93 2a 2a
        E 560 83 2a 00
        E 0 93 2a 2a
        E 16 83 2a 00
        E 0 93 2a 2a
        E 112 83 2a 00
        E 0 93 2a 2a
        E 16 83 2a 00
        E 0 93 2a 2a
        E 112 83 2a 00
        E 0 93 2a 2a
        E 16 83 2a 00
        E 0 93 2a 2a
        E 144 83 2a 00
        E 96 93 2a 2a
        E 16 83 2a 00
        E 0 93 2a 2a
        E 144 83 2a 00
        E 32 93 2a 11
        E 16 83 2a 00
        E 0 93 2a 19
        E 16 83 2a 00
        E 0 93 2a 22
        E 16 83 2a 00
        E 0 93 2a 2a
        E 16 83 2a 00
        E 0 93 2a 5d
        E 16 83 2a 00
        E 0 93 2a 2a
        E 48 83 2a 00
        E 0 93 2a 2a
        E 64 83 2a 00
        E 0 93 2a 2a
        E 80 83 2a 00
        E 0 93 2a 2a
        E 560 83 2a 00
        E 0 93 2a 2a
        E 16 83 2a 00
        E 0 93 2a 2a
        E 112 83 2a 00
        E 0 93 2a 2a
        E 16 83 2a 00
        E 0 93 2a 2a
        E 112 83 2a 00
        E 0 93 2a 2a
        E 16 83 2a 00
        E 0 93 2a 2a
        E 144 83 2a 00
        E 96 93 2a 2a
        E 16 83 2a 00
        E 0 93 2a 2a
        E 144 83 2a 00
        E 32 93 2a 11
        E 16 83 2a 00
        E 0 93 2a 19
        E 16 83 2a 00
        E 0 93 2a 22
        E 16 83 2a 00
        E 0 93 2a 2a
        E 16 83 2a 00
        E 0 93 2a 5d
        E 16 83 2a 00
        E 0 93 2a 2a
        E 48 83 2a 00
        E 0 93 2a 2a
        E 64 83 2a 00
        E 0 93 2a 2a
        E 80 83 2a 00
        E 0 93 2a 2a
        E 560 83 2a 00
        E 0 93 2a 2a
        E 16 83 2a 00
        E 0 93 2a 2a
        E 112 83 2a 00
        E 0 93 2a 2a
        E 16 83 2a 00
        E 0 93 2a 2a
        E 112 83 2a 00
        E 0 93 2a 2a
        E 16 83 2a 00
        E 0 93 2a 2a
        E 144 83 2a 00
        E 96 93 2a 2a
        E 16 83 2a 00
        E 0 93 2a 2a
        E 144 83 2a 00
        E 32 93 2a 11
        E 16 83 2a 00
        E 0 93 2a 19
        E 16 83 2a 00
        E 0 93 2a 22
        E 16 83 2a 00
        E 0 93 2a 2a
        E 16 83 2a 00
        E 0 93 2a 5d
        E 16 83 2a 00
        E 0 93 2a 2a
        E 48 83 2a 00
        E 0 93 2a 2a
        E 64 83 2a 00
        E 0 93 2a 2a
        E 80 83 2a 00
        E 0 93 2a 2a
        E 560 83 2a 00
        E 0 93 2a 2a
        E 16 83 2a 00
        E 0 93 2a 2a
        E 112 83 2a 00
        E 0 93 2a 2a
        E 16 83 2a 00
        E 0 93 2a 2a
        E 112 83 2a 00
        E 0 93 2a 2a
        E 16 83 2a 00
        E 0 93 2a 2a
        E 144 83 2a 00
        E 96 93 2a 2a
        E 16 83 2a 00
        E 0 93 2a 2a
        E 144 83 2a 00
        E 352 93 2a 2a
        E 16 83 2a 00
        E 0 93 2a 2a
        E 112 83 2a 00
        E 0 93 2a 2a
        E 16 83 2a 00
        E 0 93 2a 2a
        E 112 83 2a 00
        E 0 93 2a 2a
        E 16 83 2a 00
        E 0 93 2a 2a
        E 144 83 2a 00
        E 32 93 2a 11
        E 16 83 2a 00
        E 0 93 2a 19
        E 16 83 2a 00
        E 0 93 2a 22
        E 16 83 2a 00
        E 0 93 2a 2a
        E 16 83 2a 00
        E 0 93 2a 5d
        E 16 83 2a 00
        E 0 93 2a 33
        E 48 83 2a 00
        E 0 93 2a 33
        E 64 83 2a 00
        E 0 93 2a 33
        E 80 83 2a 00
        E 0 93 2a 33
        E 1520 83 2a 00
        E 7440 93 2a 11
        E 16 83 2a 00
        E 0 93 2a 19
        E 16 83 2a 00
        E 0 93 2a 22
        E 16 83 2a 00
        E 0 93 2a 2a
        E 16 83 2a 00
        E 0 93 2a 5d
        E 16 83 2a 00
        E 0 93 2a 33
        E 48 83 2a 00
        E 0 93 2a 33
        E 64 83 2a 00
        E 0 93 2a 33
        E 80 83 2a 00
        E 0 93 2a 33
        E 1008 83 2a 00
        E 0 b3 7b 00
        E 0 ff 2f 00
      >
    >
  >
>