<REAPER_PROJECT 0.1 "7.27/win64" 1707000000
  <NOTES 0 2
    |ReapNES Studio Project
    |MIDI Import - Over_Horizon_title_rom_v1
  >
  RIPPLE 0
  GROUPOVERRIDE 0 0 0
  AUTOXFADE 129
  ENVATTACH 3
  POOLEDENVATTACH 0
  MIXERUIFLAGS 11 48
  ENVFADESZ10 40
  PEAKGAIN 1
  FEEDBACK 0
  PANLAW 1
  PROJOFFS 0 0 0
  MAXPROJLEN 0 0
  GRID 3199 8 1 8 1 0 0 0
  TIMEMODE 1 5 -1 30 0 0 -1
  VIDEO_CONFIG 0 0 65792
  PANMODE 3
  PANLAWFLAGS 3
  CURSOR 0
  ZOOM 100 0 0
  VZOOMEX 6 0
  USE_REC_CFG 0
  RECMODE 1
  SMPTESYNC 0 30 100 40 1000 300 0 0 1 0 0
  LOOP 0
  LOOPGRAN 0 4
  RECORD_PATH "Media" ""
  <RECORD_CFG
    ZXZhdxgAAQ==
  >
  <APPLYFX_CFG
  >
  RENDER_FILE ""
  RENDER_PATTERN ""
  RENDER_FMT 0 2 0
  RENDER_1X 0
  RENDER_RANGE 1 0 0 18 1000
  RENDER_RESAMPLE 3 0 1
  RENDER_ADDTOPROJ 0
  RENDER_STEMS 0
  RENDER_DITHER 0
  TIMELOCKMODE 1
  TEMPOENVLOCKMODE 1
  ITEMMIX 1
  DEFPITCHMODE 589824 0
  TAKELANE 1
  SAMPLERATE 44100 0 0
  <RENDER_CFG
    ZXZhdxgAAQ==
  >
  LOCK 1
  <METRONOME 6 2
    VOL 0.25 0.125
    BEATLEN 4
    FREQ 1760 880 1
    SAMPLES "" ""
    SPLIGNORE 0 0
    SPLDEF 2 660 "" 0
    SPLDEF 3 440 "" 0
    PATTERN 0 169
    PATTERNSTR ABBB
    MULT 1
  >
  GLOBAL_AUTO -1
  TEMPO 128.59999614200012 4 4
  PLAYRATE 1 0 0.25 4
  SELECTION 0 0
  SELECTION2 0 0
  MASTERAUTOMODE 0
  MASTERTRACKHEIGHT 0 0
  MASTERPEAKCOL 16576
  MASTERMUTESOLO 0
  MASTERTRACKVIEW 0 0.6667 0.5 0.5 0 0 0 0 0 0 0 0 0 0
  MASTERHWOUT 0 0 1 0 0 0 0 -1
  MASTER_NCH 2 2
  MASTER_VOLUME 1 0 -1 -1 1
  MASTER_PANMODE 3
  MASTER_PANLAWFLAGS 3
  MASTER_FX 1
  MASTER_SEL 0
  <MASTERPLAYSPEEDENV
    EGUID {7EBB197C-6E5C-4D25-83E3-CDAAF3AB3A65}
    ACT 0 -1
    VIS 0 1 1
    LANEHEIGHT 0 0
    ARM 0
    DEFSHAPE 0 -1 -1
  >
  <TEMPOENVEX
    EGUID {2CFC966D-2156-4BCE-8BB4-3AD9953E27FD}
    ACT 1 -1
    VIS 1 0 1
    LANEHEIGHT 0 0
    ARM 0
    DEFSHAPE 1 -1 -1
  >
  <PROJBAY
  >
  <TRACK {AA9329DB-52B8-464F-AE5A-43907B8CDE77}
    NAME "NES - Pulse 1 [ch0]"
    PEAKCOL 16576606
    BEAT -1
    AUTOMODE 0
    PANLAWFLAGS 3
    VOLPAN 1 0 -1 -1 1
    MUTESOLO 0 0 0
    IPHASE 0
    PLAYOFFS 0 1
    ISBUS 0 0
    BUSCOMP 0 0 0 0 0
    SHOWINMIX 1 0.6667 0.5 1 0.5 0 0 0
    FIXEDLANES 9 0 0 0 0
    SEL 1
    REC 1 5088 1 0 0 0 0 0
    VU 2
    TRACKHEIGHT 0 0 0 0 0 0 0
    INQ 0 0 0 0.5 100 0 0 100
    NCHAN 2
    FX 1
    TRACKID {AA9329DB-52B8-464F-AE5A-43907B8CDE77}
    PERF 0
    MIDIOUT -1
    MAINSEND 1 0
    <FXCHAIN
      WNDRECT 24 52 700 560
      SHOW 0
      LASTSEL 0
      DOCKED 0
      BYPASS 0 0 0
      <JS "ReapNES Studio/ReapNES_Console.jsfx" ""
        2 15 1 10 80 10 100 2 1 15 1 5 60 10 80 1 1 0 50 0 0 15 1 0 100 0 0 0.500000 0.500000 0.400000 0.300000 0.800000 0 1 0 0 0 0 - - - - - - - - - - - - - - - - - - - - - - - - - -
      >
      FLOATPOS 0 0 0 0
      FXID {53891AD1-9EFD-4EDB-89E0-995734636453}
      WAK 0 0
    >
    <ITEM
      POSITION 0
      LENGTH 72.3017129
      LOOP 0
      ALLTAKES 0
      FADEIN 0 0 0 0 0 0 0
      FADEOUT 0 0 0 0 0 0 0
      MUTE 0 0
      SEL 0
      IGUID {189D56AF-A577-4505-8E00-1C30FD31171D}
      <SOURCE MIDI
        HASDATA 1 480 QN
        CCINTERP 32
        E 0 c0 50
        E 0 b0 0c 20
        E 0 b0 0b 77
        E 0 90 37 77
        E 16 b0 0b 5d
        E 16 b0 0b 44
        E 16 b0 0b 3b
        E 32 b0 0b 44
        E 32 b0 0b 08
        E 16 b0 0b 11
        E 16 b0 0b 19
        E 128 b0 0b 11
        E 16 b0 0b 77
        E 16 b0 0b 5d
        E 16 b0 0b 44
        E 16 b0 0b 3b
        E 32 b0 0b 44
        E 32 b0 0b 08
        E 16 b0 0b 11
        E 16 b0 0b 77
        E 16 b0 0b 5d
        E 16 b0 0b 44
        E 16 b0 0b 3b
        E 32 b0 0b 44
        E 32 b0 0b 08
        E 16 b0 0b 11
        E 16 b0 0b 19
        E 128 b0 0b 11
        E 16 b0 0b 77
        E 16 b0 0b 5d
        E 16 b0 0b 44
        E 16 b0 0b 3b
        E 32 b0 0b 44
        E 32 b0 0b 08
        E 16 b0 0b 11
        E 16 b0 0b 19
        E 128 b0 0b 11
        E 16 b0 0b 77
        E 16 b0 0b 5d
        E 16 b0 0b 44
        E 16 b0 0b 3b
        E 32 b0 0b 44
        E 32 b0 0b 08
        E 16 b0 0b 11
        E 16 b0 0b 19
        E 128 b0 0b 11
        E 16 b0 0b 77
        E 0 80 37 00
        E 0 90 32 77
        E 16 b0 0b 5d
        E 16 b0 0b 44
        E 16 b0 0b 3b
        E 32 b0 0b 44
        E 32 b0 0b 08
        E 16 b0 0b 11
        E 16 b0 0b 77
        E 16 b0 0b 5d
        E 16 b0 0b 44
        E 16 b0 0b 3b
        E 32 b0 0b 44
        E 32 b0 0b 08
        E 16 b0 0b 11
        E 16 b0 0b 77
        E 0 80 32 00
        E 0 90 34 77
        E 16 b0 0b 5d
        E 16 b0 0b 44
        E 16 b0 0b 3b
        E 32 b0 0b 44
        E 32 b0 0b 4c
        E 32 b0 0b 55
        E 400 b0 0b 08
        E 16 b0 0b 11
        E 16 b0 0b 19
        E 128 b0 0b 11
        E 16 b0 0b 77
        E 0 80 34 00
        E 0 90 37 77
        E 16 b0 0b 5d
        E 16 b0 0b 44
        E 16 b0 0b 3b
        E 32 b0 0b 44
        E 32 b0 0b 08
        E 16 b0 0b 11
        E 16 b0 0b 19
        E 128 b0 0b 11
        E 16 b0 0b 77
        E 16 b0 0b 5d
        E 16 b0 0b 44
        E 16 b0 0b 3b
        E 32 b0 0b 44
        E 32 b0 0b 08
        E 16 b0 0b 11
        E 16 b0 0b 77
        E 16 b0 0b 5d
        E 16 b0 0b 44
        E 16 b0 0b 3b
        E 32 b0 0b 44
        E 32 b0 0b 08
        E 16 b0 0b 11
        E 16 b0 0b 19
        E 128 b0 0b 11
        E 16 b0 0b 77
        E 16 b0 0b 5d
        E 16 b0 0b 44
        E 16 b0 0b 3b
        E 32 b0 0b 44
        E 32 b0 0b 08
        E 16 b0 0b 11
        E 16 b0 0b 19
        E 128 b0 0b 11
        E 16 b0 0b 77
        E 16 b0 0b 5d
        E 16 b0 0b 44
        E 16 b0 0b 3b
        E 32 b0 0b 44
        E 32 b0 0b 08
        E 16 b0 0b 11
        E 16 b0 0b 19
        E 128 b0 0b 11
        E 16 b0 0b 77
        E 0 80 37 00
        E 0 90 32 77
        E 16 b0 0b 5d
        E 16 b0 0b 44
        E 16 b0 0b 3b
        E 32 b0 0b 44
        E 32 b0 0b 08
        E 16 b0 0b 11
        E 16 b0 0b 77
        E 16 b0 0b 5d
        E 16 b0 0b 44
        E 16 b0 0b 3b
        E 32 b0 0b 44
        E 32 b0 0b 08
        E 16 b0 0b 11
        E 16 b0 0b 77
        E 0 80 32 00
        E 0 90 34 77
        E 16 b0 0b 5d
        E 16 b0 0b 44
        E 16 b0 0b 3b
        E 32 b0 0b 44
        E 32 b0 0b 4c
        E 32 b0 0b 55
        E 400 b0 0b 08
        E 16 b0 0b 11
        E 16 b0 0b 19
        E 128 b0 0b 11
        E 16 b0 0b 77
        E 0 80 34 00
        E 0 90 37 77
        E 16 b0 0b 5d
        E 16 b0 0b 44
        E 16 b0 0b 3b
        E 32 b0 0b 44
        E 32 b0 0b 08
        E 16 b0 0b 11
        E 16 b0 0b 19
        E 128 b0 0b 11
        E 16 b0 0b 77
        E 16 b0 0b 5d
        E 16 b0 0b 44
        E 16 b0 0b 3b
        E 32 b0 0b 44
        E 32 b0 0b 08
        E 16 b0 0b 11
        E 16 b0 0b 77
        E 16 b0 0b 5d
        E 16 b0 0b 44
        E 16 b0 0b 3b
        E 32 b0 0b 44
        E 32 b0 0b 08
        E 16 b0 0b 11
        E 16 b0 0b 19
        E 128 b0 0b 11
        E 16 b0 0b 77
        E 16 b0 0b 5d
        E 16 b0 0b 44
        E 16 b0 0b 3b
        E 32 b0 0b 44
        E 32 b0 0b 08
        E 16 b0 0b 11
        E 16 b0 0b 19
        E 128 b0 0b 11
        E 16 b0 0b 77
        E 16 b0 0b 5d
        E 16 b0 0b 44
        E 16 b0 0b 3b
        E 32 b0 0b 44
        E 32 b0 0b 08
        E 16 b0 0b 11
        E 16 b0 0b 19
        E 128 b0 0b 11
        E 16 b0 0b 77
        E 0 80 37 00
        E 0 90 32 77
        E 16 b0 0b 5d
        E 16 b0 0b 44
        E 16 b0 0b 3b
        E 32 b0 0b 44
        E 32 b0 0b 08
        E 16 b0 0b 11
        E 16 b0 0b 77
        E 16 b0 0b 5d
        E 16 b0 0b 44
        E 16 b0 0b 3b
        E 32 b0 0b 44
        E 32 b0 0b 08
        E 16 b0 0b 11
        E 16 b0 0b 77
        E 0 80 32 00
        E 0 90 34 77
        E 16 b0 0b 5d
        E 16 b0 0b 44
        E 16 b0 0b 3b
        E 32 b0 0b 44
        E 32 b0 0b 4c
        E 32 b0 0b 55
        E 400 b0 0b 08
        E 16 b0 0b 11
        E 16 b0 0b 19
        E 128 b0 0b 11
        E 16 b0 0b 77
        E 0 80 34 00
        E 0 90 37 77
        E 16 b0 0b 5d
        E 16 b0 0b 44
        E 16 b0 0b 3b
        E 32 b0 0b 44
        E 32 b0 0b 08
        E 16 b0 0b 11
        E 16 b0 0b 19
        E 128 b0 0b 11
        E 16 b0 0b 77
        E 16 b0 0b 5d
        E 16 b0 0b 44
        E 16 b0 0b 3b
        E 32 b0 0b 44
        E 32 b0 0b 08
        E 16 b0 0b 11
        E 16 b0 0b 77
        E 16 b0 0b 5d
        E 16 b0 0b 44
        E 16 b0 0b 3b
        E 32 b0 0b 44
        E 32 b0 0b 08
        E 16 b0 0b 11
        E 16 b0 0b 19
        E 128 b0 0b 11
        E 16 b0 0b 77
        E 16 b0 0b 5d
        E 16 b0 0b 44
        E 16 b0 0b 3b
        E 32 b0 0b 44
        E 32 b0 0b 08
        E 16 b0 0b 11
        E 16 b0 0b 19
        E 128 b0 0b 11
        E 16 b0 0b 77
        E 16 b0 0b 5d
        E 16 b0 0b 44
        E 16 b0 0b 3b
        E 32 b0 0b 44
        E 32 b0 0b 08
        E 16 b0 0b 11
        E 16 b0 0b 19
        E 128 b0 0b 11
        E 16 b0 0b 77
        E 0 80 37 00
        E 0 90 32 77
        E 16 b0 0b 5d
        E 16 b0 0b 44
        E 16 b0 0b 3b
        E 32 b0 0b 44
        E 32 b0 0b 08
        E 16 b0 0b 11
        E 16 b0 0b 77
        E 16 b0 0b 5d
        E 16 b0 0b 44
        E 16 b0 0b 3b
        E 32 b0 0b 44
        E 32 b0 0b 08
        E 16 b0 0b 11
        E 16 b0 0b 77
        E 0 80 32 00
        E 0 90 34 77
        E 16 b0 0b 5d
        E 16 b0 0b 44
        E 16 b0 0b 3b
        E 32 b0 0b 44
        E 32 b0 0b 4c
        E 32 b0 0b 55
        E 400 b0 0b 08
        E 16 b0 0b 11
        E 16 b0 0b 19
        E 128 b0 0b 11
        E 16 b0 0b 77
        E 0 80 34 00
        E 0 90 37 77
        E 16 b0 0b 5d
        E 16 b0 0b 44
        E 16 b0 0b 3b
        E 32 b0 0b 44
        E 32 b0 0b 08
        E 16 b0 0b 11
        E 16 b0 0b 19
        E 128 b0 0b 11
        E 16 b0 0b 77
        E 16 b0 0b 5d
        E 16 b0 0b 44
        E 16 b0 0b 3b
        E 32 b0 0b 44
        E 32 b0 0b 08
        E 16 b0 0b 11
        E 16 b0 0b 77
        E 16 b0 0b 5d
        E 16 b0 0b 44
        E 16 b0 0b 3b
        E 32 b0 0b 44
        E 32 b0 0b 08
        E 16 b0 0b 11
        E 16 b0 0b 19
        E 128 b0 0b 11
        E 16 b0 0b 77
        E 16 b0 0b 5d
        E 16 b0 0b 44
        E 16 b0 0b 3b
        E 32 b0 0b 44
        E 32 b0 0b 08
        E 16 b0 0b 11
        E 16 b0 0b 19
        E 128 b0 0b 11
        E 16 b0 0b 77
        E 16 b0 0b 5d
        E 16 b0 0b 44
        E 16 b0 0b 3b
        E 32 b0 0b 44
        E 32 b0 0b 08
        E 16 b0 0b 11
        E 16 b0 0b 19
        E 128 b0 0b 11
        E 16 b0 0b 77
        E 0 80 37 00
        E 0 90 32 77
        E 16 b0 0b 5d
        E 16 b0 0b 44
        E 16 b0 0b 3b
        E 32 b0 0b 44
        E 32 b0 0b 08
        E 16 b0 0b 11
        E 16 b0 0b 77
        E 16 b0 0b 5d
        E 16 b0 0b 44
        E 16 b0 0b 3b
        E 32 b0 0b 44
        E 32 b0 0b 08
        E 16 b0 0b 11
        E 16 b0 0b 77
        E 0 80 32 00
        E 0 90 34 77
        E 16 b0 0b 5d
        E 16 b0 0b 44
        E 16 b0 0b 3b
        E 32 b0 0b 44
        E 32 b0 0b 4c
        E 32 b0 0b 55
        E 400 b0 0b 08
        E 16 b0 0b 11
        E 16 b0 0b 19
        E 128 b0 0b 11
        E 16 b0 0b 77
        E 16 b0 0b 5d
        E 16 b0 0b 44
        E 16 b0 0b 3b
        E 32 b0 0b 44
        E 32 b0 0b 08
        E 16 b0 0b 11
        E 16 b0 0b 19
        E 128 b0 0b 11
        E 16 b0 0b 77
        E 0 80 34 00
        E 0 90 37 77
        E 16 b0 0b 5d
        E 16 b0 0b 44
        E 16 b0 0b 3b
        E 32 b0 0b 44
        E 32 b0 0b 08
        E 16 b0 0b 11
        E 16 b0 0b 19
        E 128 b0 0b 11
        E 16 b0 0b 77
        E 16 b0 0b 5d
        E 16 b0 0b 44
        E 16 b0 0b 3b
        E 32 b0 0b 44
        E 32 b0 0b 08
        E 16 b0 0b 11
        E 16 b0 0b 19
        E 128 b0 0b 11
        E 16 b0 0b 77
        E 16 b0 0b 5d
        E 16 b0 0b 44
        E 16 b0 0b 3b
        E 32 b0 0b 44
        E 32 b0 0b 08
        E 16 b0 0b 11
        E 16 b0 0b 19
        E 128 b0 0b 11
        E 16 b0 0b 77
        E 0 80 37 00
        E 0 90 3c 77
        E 16 b0 0b 5d
        E 16 b0 0b 44
        E 16 b0 0b 3b
        E 32 b0 0b 44
        E 32 b0 0b 08
        E 16 b0 0b 11
        E 16 b0 0b 19
        E 128 b0 0b 11
        E 16 b0 0b 77
        E 0 80 3c 00
        E 0 90 3d 77
        E 16 b0 0b 5d
        E 16 b0 0b 44
        E 16 b0 0b 3b
        E 32 b0 0b 44
        E 32 b0 0b 08
        E 16 b0 0b 11
        E 16 b0 0b 19
        E 128 b0 0b 11
        E 16 b0 0b 77
        E 0 80 3d 00
        E 0 90 42 77
        E 16 b0 0b 5d
        E 16 b0 0b 44
        E 16 b0 0b 3b
        E 32 b0 0b 44
        E 32 b0 0b 08
        E 16 b0 0b 11
        E 16 b0 0b 19
        E 128 b0 0b 11
        E 16 b0 0b 77
        E 0 80 42 00
        E 0 90 3b 77
        E 16 b0 0b 5d
        E 16 b0 0b 44
        E 16 b0 0b 3b
        E 32 b0 0b 44
        E 32 b0 0b 08
        E 16 b0 0b 11
        E 16 b0 0b 19
        E 128 b0 0b 11
        E 16 b0 0b 33
        E 0 80 3b 00
        E 0 90 34 33
        E 16 b0 0b 4c
        E 16 b0 0b 77
        E 16 b0 0b 55
        E 1072 b0 0b 08
        E 16 b0 0b 11
        E 16 b0 0b 19
        E 128 b0 0b 11
        E 16 b0 0b 33
        E 0 80 34 00
        E 0 90 2f 33
        E 16 b0 0b 4c
        E 16 b0 0b 77
        E 16 b0 0b 55
        E 64 b0 0b 08
        E 16 b0 0b 11
        E 16 b0 0b 33
        E 0 80 2f 00
        E 0 90 34 33
        E 16 b0 0b 4c
        E 16 b0 0b 77
        E 16 b0 0b 55
        E 64 b0 0b 08
        E 16 b0 0b 11
        E 16 b0 0b 33
        E 0 80 34 00
        E 0 90 36 33
        E 16 b0 0b 4c
        E 16 b0 0b 77
        E 16 b0 0b 55
        E 64 b0 0b 08
        E 16 b0 0b 11
        E 16 b0 0b 33
        E 0 80 36 00
        E 0 90 37 33
        E 16 b0 0b 4c
        E 16 b0 0b 77
        E 16 b0 0b 55
        E 64 b0 0b 08
        E 16 b0 0b 11
        E 16 b0 0b 33
        E 0 80 37 00
        E 0 90 34 33
        E 16 b0 0b 4c
        E 16 b0 0b 77
        E 16 b0 0b 55
        E 64 b0 0b 08
        E 16 b0 0b 11
        E 16 b0 0b 33
        E 0 80 34 00
        E 0 90 3b 33
        E 16 b0 0b 4c
        E 16 b0 0b 77
        E 16 b0 0b 55
        E 64 b0 0b 08
        E 16 b0 0b 11
        E 16 b0 0b 33
        E 0 80 3b 00
        E 0 90 37 33
        E 16 b0 0b 4c
        E 16 b0 0b 77
        E 16 b0 0b 55
        E 64 b0 0b 08
        E 16 b0 0b 11
        E 16 b0 0b 33
        E 0 80 37 00
        E 0 90 40 33
        E 16 b0 0b 4c
        E 16 b0 0b 77
        E 16 b0 0b 55
        E 352 b0 0b 08
        E 16 b0 0b 11
        E 16 b0 0b 33
        E 0 80 40 00
        E 0 90 3b 33
        E 16 b0 0b 4c
        E 16 b0 0b 77
        E 16 b0 0b 55
        E 1072 b0 0b 08
        E 16 b0 0b 11
        E 16 b0 0b 19
        E 128 b0 0b 11
        E 16 b0 0b 33
        E 0 80 3b 00
        E 0 90 37 33
        E 16 b0 0b 4c
        E 16 b0 0b 77
        E 16 b0 0b 55
        E 208 b0 0b 08
        E 16 b0 0b 11
        E 16 b0 0b 33
        E 0 80 37 00
        E 0 90 36 33
        E 16 b0 0b 4c
        E 16 b0 0b 77
        E 16 b0 0b 55
        E 208 b0 0b 08
        E 16 b0 0b 11
        E 16 b0 0b 33
        E 0 80 36 00
        E 0 90 34 33
        E 16 b0 0b 4c
        E 16 b0 0b 77
        E 16 b0 0b 55
        E 64 b0 0b 08
        E 16 b0 0b 11
        E 16 b0 0b 33
        E 16 b0 0b 4c
        E 16 b0 0b 77
        E 16 b0 0b 55
        E 64 b0 0b 08
        E 16 b0 0b 11
        E 16 b0 0b 19
        E 128 b0 0b 11
        E 16 b0 0b 33
        E 16 b0 0b 4c
        E 16 b0 0b 77
        E 16 b0 0b 55
        E 64 b0 0b 08
        E 16 b0 0b 11
        E 16 b0 0b 33
        E 16 b0 0b 4c
        E 16 b0 0b 77
        E 16 b0 0b 55
        E 64 b0 0b 08
        E 16 b0 0b 11
        E 16 b0 0b 19
        E 128 b0 0b 11
        E 16 b0 0b 33
        E 16 b0 0b 4c
        E 16 b0 0b 77
        E 16 b0 0b 55
        E 64 b0 0b 08
        E 16 b0 0b 11
        E 16 b0 0b 33
        E 16 b0 0b 4c
        E 16 b0 0b 77
        E 16 b0 0b 55
        E 64 b0 0b 08
        E 16 b0 0b 11
        E 16 b0 0b 19
        E 128 b0 0b 11
        E 16 b0 0b 33
        E 16 b0 0b 4c
        E 16 b0 0b 77
        E 16 b0 0b 55
        E 64 b0 0b 08
        E 16 b0 0b 11
        E 16 b0 0b 33
        E 16 b0 0b 4c
        E 16 b0 0b 77
        E 16 b0 0b 55
        E 64 b0 0b 08
        E 16 b0 0b 11
        E 16 b0 0b 19
        E 128 b0 0b 11
        E 16 b0 0b 33
        E 0 80 34 00
        E 0 90 32 33
        E 16 b0 0b 4c
        E 16 b0 0b 77
        E 16 b0 0b 55
        E 208 b0 0b 08
        E 16 b0 0b 11
        E 16 b0 0b 33
        E 0 80 32 00
        E 0 90 36 33
        E 16 b0 0b 4c
        E 16 b0 0b 77
        E 16 b0 0b 55
        E 208 b0 0b 08
        E 16 b0 0b 11
        E 16 b0 0b 33
        E 0 80 36 00
        E 0 90 34 33
        E 16 b0 0b 4c
        E 16 b0 0b 77
        E 16 b0 0b 55
        E 1072 b0 0b 08
        E 16 b0 0b 11
        E 16 b0 0b 33
        E 0 80 34 00
        E 0 90 2f 33
        E 16 b0 0b 4c
        E 16 b0 0b 77
        E 16 b0 0b 55
        E 64 b0 0b 08
        E 16 b0 0b 11
        E 16 b0 0b 33
        E 16 b0 0b 4c
        E 16 b0 0b 77
        E 16 b0 0b 55
        E 64 b0 0b 08
        E 16 b0 0b 11
        E 16 b0 0b 33
        E 0 80 2f 00
        E 0 90 28 33
        E 16 b0 0b 4c
        E 16 b0 0b 77
        E 16 b0 0b 55
        E 64 b0 0b 08
        E 16 b0 0b 11
        E 16 b0 0b 33
        E 0 80 28 00
        E 0 90 34 33
        E 16 b0 0b 4c
        E 16 b0 0b 77
        E 16 b0 0b 55
        E 64 b0 0b 08
        E 16 b0 0b 11
        E 16 b0 0b 33
        E 16 b0 0b 4c
        E 16 b0 0b 77
        E 16 b0 0b 55
        E 64 b0 0b 08
        E 16 b0 0b 11
        E 16 b0 0b 33
        E 0 80 34 00
        E 0 90 2b 33
        E 16 b0 0b 4c
        E 16 b0 0b 77
        E 16 b0 0b 55
        E 64 b0 0b 08
        E 16 b0 0b 11
        E 16 b0 0b 33
        E 0 80 2b 00
        E 0 90 37 33
        E 16 b0 0b 4c
        E 16 b0 0b 77
        E 16 b0 0b 55
        E 64 b0 0b 08
        E 16 b0 0b 11
        E 16 b0 0b 33
        E 0 80 37 00
        E 0 90 2f 33
        E 16 b0 0b 4c
        E 16 b0 0b 77
        E 16 b0 0b 55
        E 64 b0 0b 08
        E 16 b0 0b 11
        E 16 b0 0b 33
        E 0 80 2f 00
        E 0 90 34 33
        E 16 b0 0b 4c
        E 16 b0 0b 77
        E 16 b0 0b 55
        E 1072 b0 0b 08
        E 16 b0 0b 11
        E 16 b0 0b 19
        E 128 b0 0b 11
        E 16 b0 0b 33
        E 0 80 34 00
        E 0 90 2f 33
        E 16 b0 0b 4c
        E 16 b0 0b 77
        E 16 b0 0b 55
        E 64 b0 0b 08
        E 16 b0 0b 11
        E 16 b0 0b 33
        E 0 80 2f 00
        E 0 90 34 33
        E 16 b0 0b 4c
        E 16 b0 0b 77
        E 16 b0 0b 55
        E 64 b0 0b 08
        E 16 b0 0b 11
        E 16 b0 0b 33
        E 0 80 34 00
        E 0 90 36 33
        E 16 b0 0b 4c
        E 16 b0 0b 77
        E 16 b0 0b 55
        E 64 b0 0b 08
        E 16 b0 0b 11
        E 16 b0 0b 33
        E 0 80 36 00
        E 0 90 37 33
        E 16 b0 0b 4c
        E 16 b0 0b 77
        E 16 b0 0b 55
        E 64 b0 0b 08
        E 16 b0 0b 11
        E 16 b0 0b 33
        E 0 80 37 00
        E 0 90 34 33
        E 16 b0 0b 4c
        E 16 b0 0b 77
        E 16 b0 0b 55
        E 64 b0 0b 08
        E 16 b0 0b 11
        E 16 b0 0b 33
        E 0 80 34 00
        E 0 90 3b 33
        E 16 b0 0b 4c
        E 16 b0 0b 77
        E 16 b0 0b 55
        E 64 b0 0b 08
        E 16 b0 0b 11
        E 16 b0 0b 33
        E 0 80 3b 00
        E 0 90 37 33
        E 16 b0 0b 4c
        E 16 b0 0b 77
        E 16 b0 0b 55
        E 64 b0 0b 08
        E 16 b0 0b 11
        E 16 b0 0b 33
        E 0 80 37 00
        E 0 90 40 33
        E 16 b0 0b 4c
        E 16 b0 0b 77
        E 16 b0 0b 55
        E 352 b0 0b 08
        E 16 b0 0b 11
        E 16 b0 0b 33
        E 0 80 40 00
        E 0 90 3b 33
        E 16 b0 0b 4c
        E 16 b0 0b 77
        E 16 b0 0b 55
        E 1072 b0 0b 08
        E 16 b0 0b 11
        E 16 b0 0b 19
        E 128 b0 0b 11
        E 16 b0 0b 33
        E 0 80 3b 00
        E 0 90 37 33
        E 16 b0 0b 4c
        E 16 b0 0b 77
        E 16 b0 0b 55
        E 208 b0 0b 08
        E 16 b0 0b 11
        E 16 b0 0b 33
        E 0 80 37 00
        E 0 90 36 33
        E 16 b0 0b 4c
        E 16 b0 0b 77
        E 16 b0 0b 55
        E 208 b0 0b 08
        E 16 b0 0b 11
        E 16 b0 0b 33
        E 0 80 36 00
        E 0 90 34 33
        E 16 b0 0b 4c
        E 16 b0 0b 77
        E 16 b0 0b 55
        E 64 b0 0b 08
        E 16 b0 0b 11
        E 16 b0 0b 33
        E 16 b0 0b 4c
        E 16 b0 0b 77
        E 16 b0 0b 55
        E 64 b0 0b 08
        E 16 b0 0b 11
        E 16 b0 0b 19
        E 128 b0 0b 11
        E 16 b0 0b 33
        E 16 b0 0b 4c
        E 16 b0 0b 77
        E 16 b0 0b 55
        E 64 b0 0b 08
        E 16 b0 0b 11
        E 16 b0 0b 33
        E 16 b0 0b 4c
        E 16 b0 0b 77
        E 16 b0 0b 55
        E 64 b0 0b 08
        E 16 b0 0b 11
        E 16 b0 0b 19
        E 128 b0 0b 11
        E 16 b0 0b 33
        E 16 b0 0b 4c
        E 16 b0 0b 77
        E 16 b0 0b 55
        E 64 b0 0b 08
        E 16 b0 0b 11
        E 16 b0 0b 33
        E 16 b0 0b 4c
        E 16 b0 0b 77
        E 16 b0 0b 55
        E 64 b0 0b 08
        E 16 b0 0b 11
        E 16 b0 0b 19
        E 128 b0 0b 11
        E 16 b0 0b 33
        E 16 b0 0b 4c
        E 16 b0 0b 77
        E 16 b0 0b 55
        E 64 b0 0b 08
        E 16 b0 0b 11
        E 16 b0 0b 33
        E 16 b0 0b 4c
        E 16 b0 0b 77
        E 16 b0 0b 55
        E 64 b0 0b 08
        E 16 b0 0b 11
        E 16 b0 0b 19
        E 128 b0 0b 11
        E 16 b0 0b 33
        E 0 80 34 00
        E 0 90 32 33
        E 16 b0 0b 4c
        E 16 b0 0b 77
        E 16 b0 0b 55
        E 208 b0 0b 08
        E 16 b0 0b 11
        E 16 b0 0b 33
        E 0 80 32 00
        E 0 90 36 33
        E 16 b0 0b 4c
        E 16 b0 0b 77
        E 16 b0 0b 55
        E 208 b0 0b 08
        E 16 b0 0b 11
        E 16 b0 0b 33
        E 0 80 36 00
        E 0 90 34 33
        E 16 b0 0b 4c
        E 16 b0 0b 77
        E 16 b0 0b 55
        E 1072 b0 0b 08
        E 16 b0 0b 11
        E 16 b0 0b 33
        E 0 80 34 00
        E 0 90 32 33
        E 16 b0 0b 4c
        E 16 b0 0b 77
        E 16 b0 0b 55
        E 208 b0 0b 08
        E 16 b0 0b 11
        E 16 b0 0b 33
        E 0 80 32 00
        E 0 90 34 33
        E 16 b0 0b 4c
        E 16 b0 0b 77
        E 16 b0 0b 55
        E 208 b0 0b 08
        E 16 b0 0b 11
        E 16 b0 0b 33
        E 0 80 34 00
        E 0 90 36 33
        E 16 b0 0b 4c
        E 16 b0 0b 77
        E 16 b0 0b 55
        E 208 b0 0b 08
        E 16 b0 0b 11
        E 16 b0 0b 33
        E 0 80 36 00
        E 0 90 39 33
        E 16 b0 0b 4c
        E 16 b0 0b 77
        E 16 b0 0b 55
        E 208 b0 0b 08
        E 16 b0 0b 11
        E 16 b0 0b 33
        E 0 80 39 00
        E 0 90 34 33
        E 16 b0 0b 4c
        E 16 b0 0b 77
        E 16 b0 0b 55
        E 640 b0 0b 08
        E 16 b0 0b 11
        E 16 b0 0b 33
        E 0 80 34 00
        E 0 90 30 33
        E 16 b0 0b 4c
        E 16 b0 0b 77
        E 16 b0 0b 55
        E 64 b0 0b 08
        E 16 b0 0b 11
        E 16 b0 0b 33
        E 0 80 30 00
        E 0 90 34 33
        E 16 b0 0b 4c
        E 16 b0 0b 77
        E 16 b0 0b 55
        E 64 b0 0b 08
        E 16 b0 0b 11
        E 16 b0 0b 33
        E 0 80 34 00
        E 0 90 37 33
        E 16 b0 0b 4c
        E 16 b0 0b 77
        E 16 b0 0b 55
        E 64 b0 0b 08
        E 16 b0 0b 11
        E 16 b0 0b 33
        E 0 80 37 00
        E 0 90 36 33
        E 16 b0 0b 4c
        E 16 b0 0b 77
        E 16 b0 0b 55
        E 352 b0 0b 08
        E 16 b0 0b 11
        E 16 b0 0b 33
        E 0 80 36 00
        E 0 90 32 33
        E 16 b0 0b 4c
        E 16 b0 0b 77
        E 16 b0 0b 55
        E 352 b0 0b 08
        E 16 b0 0b 11
        E 16 b0 0b 33
        E 0 80 32 00
        E 0 90 36 33
        E 16 b0 0b 4c
        E 16 b0 0b 77
        E 16 b0 0b 55
        E 208 b0 0b 08
        E 16 b0 0b 11
        E 16 b0 0b 33
        E 0 80 36 00
        E 0 90 37 33
        E 16 b0 0b 4c
        E 16 b0 0b 77
        E 16 b0 0b 55
        E 64 b0 0b 08
        E 16 b0 0b 11
        E 16 b0 0b 33
        E 0 80 37 00
        E 0 90 36 33
        E 16 b0 0b 4c
        E 16 b0 0b 77
        E 16 b0 0b 55
        E 64 b0 0b 08
        E 16 b0 0b 11
        E 16 b0 0b 33
        E 0 80 36 00
        E 0 90 37 33
        E 16 b0 0b 4c
        E 16 b0 0b 77
        E 16 b0 0b 55
        E 64 b0 0b 08
        E 16 b0 0b 11
        E 16 b0 0b 33
        E 0 80 37 00
        E 0 90 39 33
        E 16 b0 0b 4c
        E 16 b0 0b 77
        E 16 b0 0b 55
        E 208 b0 0b 08
        E 16 b0 0b 11
        E 16 b0 0b 33
        E 0 80 39 00
        E 0 90 37 33
        E 16 b0 0b 4c
        E 16 b0 0b 77
        E 16 b0 0b 55
        E 64 b0 0b 08
        E 16 b0 0b 11
        E 16 b0 0b 33
        E 0 80 37 00
        E 0 90 34 33
        E 16 b0 0b 4c
        E 16 b0 0b 77
        E 16 b0 0b 55
        E 208 b0 0b 08
        E 16 b0 0b 11
        E 16 b0 0b 33
        E 0 80 34 00
        E 0 90 36 33
        E 16 b0 0b 4c
        E 16 b0 0b 77
        E 16 b0 0b 55
        E 352 b0 0b 08
        E 16 b0 0b 11
        E 16 b0 0b 33
        E 0 80 36 00
        E 0 90 32 33
        E 16 b0 0b 4c
        E 16 b0 0b 77
        E 16 b0 0b 55
        E 640 b0 0b 08
        E 16 b0 0b 11
        E 16 b0 0b 33
        E 0 80 32 00
        E 0 90 34 33
        E 16 b0 0b 4c
        E 16 b0 0b 77
        E 16 b0 0b 55
        E 640 b0 0b 08
        E 16 b0 0b 11
        E 16 b0 0b 33
        E 0 80 34 00
        E 0 90 30 33
        E 16 b0 0b 4c
        E 16 b0 0b 77
        E 16 b0 0b 55
        E 64 b0 0b 08
        E 16 b0 0b 11
        E 16 b0 0b 33
        E 0 80 30 00
        E 0 90 32 33
        E 16 b0 0b 4c
        E 16 b0 0b 77
        E 16 b0 0b 55
        E 64 b0 0b 08
        E 16 b0 0b 11
        E 16 b0 0b 33
        E 0 80 32 00
        E 0 90 34 33
        E 16 b0 0b 4c
        E 16 b0 0b 77
        E 16 b0 0b 55
        E 64 b0 0b 08
        E 16 b0 0b 11
        E 16 b0 0b 33
        E 0 80 34 00
        E 0 90 36 33
        E 16 b0 0b 4c
        E 16 b0 0b 77
        E 16 b0 0b 55
        E 640 b0 0b 08
        E 16 b0 0b 11
        E 16 b0 0b 33
        E 0 80 36 00
        E 0 90 32 33
        E 16 b0 0b 4c
        E 16 b0 0b 77
        E 16 b0 0b 55
        E 64 b0 0b 08
        E 16 b0 0b 11
        E 16 b0 0b 33
        E 0 80 32 00
        E 0 90 34 33
        E 16 b0 0b 4c
        E 16 b0 0b 77
        E 16 b0 0b 55
        E 64 b0 0b 08
        E 16 b0 0b 11
        E 16 b0 0b 33
        E 0 80 34 00
        E 0 90 36 33
        E 16 b0 0b 4c
        E 16 b0 0b 77
        E 16 b0 0b 55
        E 64 b0 0b 08
        E 16 b0 0b 11
        E 16 b0 0b 33
        E 0 80 36 00
        E 0 90 37 33
        E 16 b0 0b 4c
        E 16 b0 0b 77
        E 16 b0 0b 55
        E 352 b0 0b 08
        E 16 b0 0b 11
        E 16 b0 0b 33
        E 0 80 37 00
        E 0 90 34 33
        E 16 b0 0b 4c
        E 16 b0 0b 77
        E 16 b0 0b 55
        E 352 b0 0b 08
        E 16 b0 0b 11
        E 16 b0 0b 33
        E 0 80 34 00
        E 0 90 37 33
        E 16 b0 0b 4c
        E 16 b0 0b 77
        E 16 b0 0b 55
        E 208 b0 0b 08
        E 16 b0 0b 11
        E 16 b0 0b 33
        E 0 80 37 00
        E 0 90 39 33
        E 16 b0 0b 4c
        E 16 b0 0b 77
        E 16 b0 0b 55
        E 208 b0 0b 08
        E 16 b0 0b 11
        E 16 b0 0b 33
        E 0 80 39 00
        E 0 90 37 33
        E 16 b0 0b 4c
        E 16 b0 0b 77
        E 16 b0 0b 55
        E 64 b0 0b 08
        E 16 b0 0b 11
        E 16 b0 0b 33
        E 0 80 37 00
        E 0 90 36 33
        E 16 b0 0b 4c
        E 16 b0 0b 77
        E 16 b0 0b 55
        E 208 b0 0b 08
        E 16 b0 0b 11
        E 16 b0 0b 33
        E 0 80 36 00
        E 0 90 32 33
        E 16 b0 0b 4c
        E 16 b0 0b 77
        E 16 b0 0b 55
        E 64 b0 0b 08
        E 16 b0 0b 11
        E 16 b0 0b 33
        E 0 80 32 00
        E 0 90 36 33
        E 16 b0 0b 4c
        E 16 b0 0b 77
        E 16 b0 0b 55
        E 64 b0 0b 08
        E 16 b0 0b 11
        E 16 b0 0b 33
        E 0 80 36 00
        E 0 90 32 33
        E 16 b0 0b 4c
        E 16 b0 0b 77
        E 16 b0 0b 55
        E 64 b0 0b 08
        E 16 b0 0b 11
        E 16 b0 0b 33
        E 0 80 32 00
        E 0 90 34 33
        E 16 b0 0b 4c
        E 16 b0 0b 77
        E 16 b0 0b 55
        E 640 b0 0b 08
        E 16 b0 0b 11
        E 16 b0 0b 33
        E 0 80 34 00
        E 0 90 30 33
        E 16 b0 0b 4c
        E 16 b0 0b 77
        E 16 b0 0b 55
        E 64 b0 0b 08
        E 16 b0 0b 11
        E 16 b0 0b 33
        E 0 80 30 00
        E 0 90 34 33
        E 16 b0 0b 4c
        E 16 b0 0b 77
        E 16 b0 0b 55
        E 64 b0 0b 08
        E 16 b0 0b 11
        E 16 b0 0b 33
        E 0 80 34 00
        E 0 90 37 33
        E 16 b0 0b 4c
        E 16 b0 0b 77
        E 16 b0 0b 55
        E 64 b0 0b 08
        E 16 b0 0b 11
        E 16 b0 0b 33
        E 0 80 37 00
        E 0 90 36 33
        E 16 b0 0b 4c
        E 16 b0 0b 77
        E 16 b0 0b 55
        E 352 b0 0b 08
        E 16 b0 0b 11
        E 16 b0 0b 33
        E 0 80 36 00
        E 0 90 32 33
        E 16 b0 0b 4c
        E 16 b0 0b 77
        E 16 b0 0b 55
        E 352 b0 0b 08
        E 16 b0 0b 11
        E 16 b0 0b 33
        E 0 80 32 00
        E 0 90 36 33
        E 16 b0 0b 4c
        E 16 b0 0b 77
        E 16 b0 0b 55
        E 208 b0 0b 08
        E 16 b0 0b 11
        E 16 b0 0b 33
        E 0 80 36 00
        E 0 90 37 33
        E 16 b0 0b 4c
        E 16 b0 0b 77
        E 16 b0 0b 55
        E 64 b0 0b 08
        E 16 b0 0b 11
        E 16 b0 0b 33
        E 0 80 37 00
        E 0 90 36 33
        E 16 b0 0b 4c
        E 16 b0 0b 77
        E 16 b0 0b 55
        E 64 b0 0b 08
        E 16 b0 0b 11
        E 16 b0 0b 33
        E 0 80 36 00
        E 0 90 37 33
        E 16 b0 0b 4c
        E 16 b0 0b 77
        E 16 b0 0b 55
        E 64 b0 0b 08
        E 16 b0 0b 11
        E 16 b0 0b 33
        E 0 80 37 00
        E 0 90 39 33
        E 16 b0 0b 4c
        E 16 b0 0b 77
        E 16 b0 0b 55
        E 208 b0 0b 08
        E 16 b0 0b 11
        E 16 b0 0b 33
        E 0 80 39 00
        E 0 90 37 33
        E 16 b0 0b 4c
        E 16 b0 0b 77
        E 16 b0 0b 55
        E 64 b0 0b 08
        E 16 b0 0b 11
        E 16 b0 0b 33
        E 0 80 37 00
        E 0 90 34 33
        E 16 b0 0b 4c
        E 16 b0 0b 77
        E 16 b0 0b 55
        E 208 b0 0b 08
        E 16 b0 0b 11
        E 16 b0 0b 33
        E 0 80 34 00
        E 0 90 36 33
        E 16 b0 0b 4c
        E 16 b0 0b 77
        E 16 b0 0b 55
        E 352 b0 0b 08
        E 16 b0 0b 11
        E 16 b0 0b 33
        E 0 80 36 00
        E 0 90 32 33
        E 16 b0 0b 4c
        E 16 b0 0b 77
        E 16 b0 0b 55
        E 640 b0 0b 08
        E 16 b0 0b 11
        E 16 b0 0b 33
        E 0 80 32 00
        E 0 90 34 33
        E 16 b0 0b 4c
        E 16 b0 0b 77
        E 16 b0 0b 55
        E 640 b0 0b 08
        E 16 b0 0b 11
        E 16 b0 0b 33
        E 0 80 34 00
        E 0 90 30 33
        E 16 b0 0b 4c
        E 16 b0 0b 77
        E 16 b0 0b 55
        E 64 b0 0b 08
        E 16 b0 0b 11
        E 16 b0 0b 33
        E 0 80 30 00
        E 0 90 32 33
        E 16 b0 0b 4c
        E 16 b0 0b 77
        E 16 b0 0b 55
        E 64 b0 0b 08
        E 16 b0 0b 11
        E 16 b0 0b 33
        E 0 80 32 00
        E 0 90 34 33
        E 16 b0 0b 4c
        E 16 b0 0b 77
        E 16 b0 0b 55
        E 64 b0 0b 08
        E 16 b0 0b 11
        E 16 b0 0b 33
        E 0 80 34 00
        E 0 90 36 33
        E 16 b0 0b 4c
        E 16 b0 0b 77
        E 16 b0 0b 55
        E 640 b0 0b 08
        E 16 b0 0b 11
        E 16 b0 0b 33
        E 0 80 36 00
        E 0 90 32 33
        E 16 b0 0b 4c
        E 16 b0 0b 77
        E 16 b0 0b 55
        E 64 b0 0b 08
        E 16 b0 0b 11
        E 16 b0 0b 33
        E 0 80 32 00
        E 0 90 34 33
        E 16 b0 0b 4c
        E 16 b0 0b 77
        E 16 b0 0b 55
        E 64 b0 0b 08
        E 16 b0 0b 11
        E 16 b0 0b 33
        E 0 80 34 00
        E 0 90 36 33
        E 16 b0 0b 4c
        E 16 b0 0b 77
        E 16 b0 0b 55
        E 64 b0 0b 08
        E 16 b0 0b 11
        E 16 b0 0b 33
        E 0 80 36 00
        E 0 90 38 33
        E 16 b0 0b 4c
        E 16 b0 0b 77
        E 16 b0 0b 55
        E 1072 b0 0b 08
        E 16 b0 0b 11
        E 16 b0 0b 33
        E 0 80 38 00
        E 0 90 36 33
        E 16 b0 0b 4c
        E 16 b0 0b 77
        E 16 b0 0b 55
        E 928 b0 0b 08
        E 16 b0 0b 11
        E 16 b0 0b 19
        E 128 b0 0b 11
        E 16 b0 0b 77
        E 0 80 36 00
        E 0 90 37 77
        E 16 b0 0b 5d
        E 16 b0 0b 44
        E 16 b0 0b 3b
        E 32 b0 0b 44
        E 32 b0 0b 08
        E 16 b0 0b 11
        E 16 b0 0b 19
        E 128 b0 0b 11
        E 16 b0 0b 77
        E 16 b0 0b 5d
        E 16 b0 0b 44
        E 16 b0 0b 3b
        E 32 b0 0b 44
        E 32 b0 0b 08
        E 16 b0 0b 11
        E 16 b0 0b 77
        E 16 b0 0b 5d
        E 16 b0 0b 44
        E 16 b0 0b 3b
        E 32 b0 0b 44
        E 32 b0 0b 08
        E 16 b0 0b 11
        E 16 b0 0b 19
        E 128 b0 0b 11
        E 16 b0 0b 77
        E 16 b0 0b 5d
        E 16 b0 0b 44
        E 16 b0 0b 3b
        E 32 b0 0b 44
        E 32 b0 0b 08
        E 16 b0 0b 11
        E 16 b0 0b 19
        E 128 b0 0b 11
        E 16 b0 0b 77
        E 16 b0 0b 5d
        E 16 b0 0b 44
        E 16 b0 0b 3b
        E 32 b0 0b 44
        E 32 b0 0b 08
        E 16 b0 0b 11
        E 16 b0 0b 19
        E 128 b0 0b 11
        E 16 b0 0b 77
        E 0 80 37 00
        E 0 90 32 77
        E 16 b0 0b 5d
        E 16 b0 0b 44
        E 16 b0 0b 3b
        E 32 b0 0b 44
        E 32 b0 0b 08
        E 16 b0 0b 11
        E 16 b0 0b 77
        E 16 b0 0b 5d
        E 16 b0 0b 44
        E 16 b0 0b 3b
        E 32 b0 0b 44
        E 32 b0 0b 08
        E 16 b0 0b 11
        E 16 b0 0b 77
        E 0 80 32 00
        E 0 90 34 77
        E 16 b0 0b 5d
        E 16 b0 0b 44
        E 16 b0 0b 3b
        E 32 b0 0b 44
        E 32 b0 0b 4c
        E 32 b0 0b 55
        E 400 b0 0b 08
        E 16 b0 0b 11
        E 16 b0 0b 19
        E 128 b0 0b 11
        E 16 b0 0b 77
        E 0 80 34 00
        E 0 90 37 77
        E 16 b0 0b 5d
        E 16 b0 0b 44
        E 16 b0 0b 3b
        E 32 b0 0b 44
        E 32 b0 0b 08
        E 16 b0 0b 11
        E 16 b0 0b 19
        E 128 b0 0b 11
        E 16 b0 0b 77
        E 16 b0 0b 5d
        E 16 b0 0b 44
        E 16 b0 0b 3b
        E 32 b0 0b 44
        E 32 b0 0b 08
        E 16 b0 0b 11
        E 16 b0 0b 77
        E 16 b0 0b 5d
        E 16 b0 0b 44
        E 16 b0 0b 3b
        E 32 b0 0b 44
        E 32 b0 0b 08
        E 16 b0 0b 11
        E 16 b0 0b 19
        E 128 b0 0b 11
        E 16 b0 0b 77
        E 16 b0 0b 5d
        E 16 b0 0b 44
        E 16 b0 0b 3b
        E 32 b0 0b 44
        E 32 b0 0b 08
        E 16 b0 0b 11
        E 16 b0 0b 19
        E 128 b0 0b 11
        E 16 b0 0b 77
        E 16 b0 0b 5d
        E 16 b0 0b 44
        E 16 b0 0b 3b
        E 32 b0 0b 44
        E 32 b0 0b 08
        E 16 b0 0b 11
        E 16 b0 0b 19
        E 128 b0 0b 11
        E 16 b0 0b 77
        E 0 80 37 00
        E 0 90 32 77
        E 16 b0 0b 5d
        E 16 b0 0b 44
        E 16 b0 0b 3b
        E 32 b0 0b 44
        E 32 b0 0b 08
        E 16 b0 0b 11
        E 16 b0 0b 77
        E 16 b0 0b 5d
        E 16 b0 0b 44
        E 16 b0 0b 3b
        E 32 b0 0b 44
        E 32 b0 0b 08
        E 16 b0 0b 11
        E 16 b0 0b 77
        E 0 80 32 00
        E 0 90 34 77
        E 16 b0 0b 5d
        E 16 b0 0b 44
        E 16 b0 0b 3b
        E 32 b0 0b 44
        E 32 b0 0b 4c
        E 32 b0 0b 55
        E 400 b0 0b 08
        E 16 b0 0b 11
        E 16 b0 0b 19
        E 128 b0 0b 11
        E 16 b0 0b 77
        E 0 80 34 00
        E 0 90 37 77
        E 16 b0 0b 5d
        E 16 b0 0b 44
        E 16 b0 0b 3b
        E 32 b0 0b 44
        E 32 b0 0b 08
        E 16 b0 0b 11
        E 16 b0 0b 19
        E 128 b0 0b 11
        E 16 b0 0b 77
        E 16 b0 0b 5d
        E 16 b0 0b 44
        E 16 b0 0b 3b
        E 32 b0 0b 44
        E 32 b0 0b 08
        E 16 b0 0b 11
        E 16 b0 0b 77
        E 16 b0 0b 5d
        E 16 b0 0b 44
        E 16 b0 0b 3b
        E 32 b0 0b 44
        E 32 b0 0b 08
        E 16 b0 0b 11
        E 16 b0 0b 19
        E 128 b0 0b 11
        E 16 b0 0b 77
        E 16 b0 0b 5d
        E 16 b0 0b 44
        E 16 b0 0b 3b
        E 32 b0 0b 44
        E 32 b0 0b 08
        E 16 b0 0b 11
        E 16 b0 0b 19
        E 128 b0 0b 11
        E 16 b0 0b 77
        E 16 b0 0b 5d
        E 16 b0 0b 44
        E 16 b0 0b 3b
        E 32 b0 0b 44
        E 32 b0 0b 08
        E 16 b0 0b 11
        E 16 b0 0b 19
        E 128 b0 0b 11
        E 16 b0 0b 77
        E 0 80 37 00
        E 0 90 32 77
        E 16 b0 0b 5d
        E 16 b0 0b 44
        E 16 b0 0b 3b
        E 32 b0 0b 44
        E 32 b0 0b 08
        E 16 b0 0b 11
        E 16 b0 0b 77
        E 16 b0 0b 5d
        E 16 b0 0b 44
        E 16 b0 0b 3b
        E 32 b0 0b 44
        E 32 b0 0b 08
        E 16 b0 0b 11
        E 16 b0 0b 77
        E 0 80 32 00
        E 0 90 34 77
        E 16 b0 0b 5d
        E 16 b0 0b 44
        E 16 b0 0b 3b
        E 32 b0 0b 44
        E 32 b0 0b 4c
        E 32 b0 0b 55
        E 400 b0 0b 08
        E 16 b0 0b 11
        E 16 b0 0b 19
        E 128 b0 0b 11
        E 16 b0 0b 77
        E 0 80 34 00
        E 0 90 37 77
        E 16 b0 0b 5d
        E 16 b0 0b 44
        E 16 b0 0b 3b
        E 32 b0 0b 44
        E 32 b0 0b 08
        E 16 b0 0b 11
        E 16 b0 0b 19
        E 128 b0 0b 11
        E 16 b0 0b 77
        E 16 b0 0b 5d
        E 16 b0 0b 44
        E 16 b0 0b 3b
        E 32 b0 0b 44
        E 32 b0 0b 08
        E 16 b0 0b 11
        E 16 b0 0b 77
        E 16 b0 0b 5d
        E 16 b0 0b 44
        E 16 b0 0b 3b
        E 32 b0 0b 44
        E 32 b0 0b 08
        E 16 b0 0b 11
        E 16 b0 0b 19
        E 128 b0 0b 11
        E 16 b0 0b 77
        E 16 b0 0b 5d
        E 16 b0 0b 44
        E 16 b0 0b 3b
        E 32 b0 0b 44
        E 32 b0 0b 08
        E 16 b0 0b 11
        E 16 b0 0b 19
        E 128 b0 0b 11
        E 16 b0 0b 77
        E 16 b0 0b 5d
        E 16 b0 0b 44
        E 16 b0 0b 3b
        E 32 b0 0b 44
        E 32 b0 0b 08
        E 16 b0 0b 11
        E 16 b0 0b 19
        E 128 b0 0b 11
        E 16 b0 0b 77
        E 0 80 37 00
        E 0 90 32 77
        E 16 b0 0b 5d
        E 16 b0 0b 44
        E 16 b0 0b 3b
        E 32 b0 0b 44
        E 32 b0 0b 08
        E 16 b0 0b 11
        E 16 b0 0b 77
        E 16 b0 0b 5d
        E 16 b0 0b 44
        E 16 b0 0b 3b
        E 32 b0 0b 44
        E 32 b0 0b 08
        E 16 b0 0b 11
        E 16 b0 0b 77
        E 0 80 32 00
        E 0 90 34 77
        E 16 b0 0b 5d
        E 16 b0 0b 44
        E 16 b0 0b 3b
        E 32 b0 0b 44
        E 32 b0 0b 4c
        E 32 b0 0b 55
        E 400 b0 0b 08
        E 16 b0 0b 11
        E 16 b0 0b 19
        E 128 b0 0b 11
        E 16 b0 0b 77
        E 0 80 34 00
        E 0 90 37 77
        E 16 b0 0b 5d
        E 16 b0 0b 44
        E 16 b0 0b 3b
        E 32 b0 0b 44
        E 32 b0 0b 08
        E 16 b0 0b 11
        E 16 b0 0b 19
        E 128 b0 0b 11
        E 16 b0 0b 77
        E 16 b0 0b 5d
        E 16 b0 0b 44
        E 16 b0 0b 3b
        E 32 b0 0b 44
        E 32 b0 0b 08
        E 16 b0 0b 11
        E 16 b0 0b 77
        E 16 b0 0b 5d
        E 16 b0 0b 44
        E 16 b0 0b 3b
        E 32 b0 0b 44
        E 32 b0 0b 08
        E 16 b0 0b 11
        E 16 b0 0b 19
        E 128 b0 0b 11
        E 16 b0 0b 77
        E 16 b0 0b 5d
        E 16 b0 0b 44
        E 16 b0 0b 3b
        E 32 b0 0b 44
        E 32 b0 0b 08
        E 16 b0 0b 11
        E 16 b0 0b 19
        E 128 b0 0b 11
        E 16 b0 0b 77
        E 16 b0 0b 5d
        E 16 b0 0b 44
        E 16 b0 0b 3b
        E 32 b0 0b 44
        E 32 b0 0b 08
        E 16 b0 0b 11
        E 16 b0 0b 19
        E 128 b0 0b 11
        E 16 b0 0b 77
        E 0 80 37 00
        E 0 90 32 77
        E 16 b0 0b 5d
        E 16 b0 0b 44
        E 16 b0 0b 3b
        E 32 b0 0b 44
        E 32 b0 0b 08
        E 16 b0 0b 11
        E 16 b0 0b 77
        E 16 b0 0b 5d
        E 16 b0 0b 44
        E 16 b0 0b 3b
        E 32 b0 0b 44
        E 32 b0 0b 08
        E 16 b0 0b 11
        E 16 b0 0b 77
        E 0 80 32 00
        E 0 90 34 77
        E 16 b0 0b 5d
        E 16 b0 0b 44
        E 16 b0 0b 3b
        E 32 b0 0b 44
        E 32 b0 0b 4c
        E 32 b0 0b 55
        E 400 b0 0b 08
        E 16 b0 0b 11
        E 16 b0 0b 19
        E 128 b0 0b 11
        E 16 b0 0b 77
        E 16 b0 0b 5d
        E 16 b0 0b 44
        E 16 b0 0b 3b
        E 32 b0 0b 44
        E 32 b0 0b 08
        E 16 b0 0b 11
        E 16 b0 0b 19
        E 128 b0 0b 11
        E 16 b0 0b 77
        E 0 80 34 00
        E 0 90 37 77
        E 16 b0 0b 5d
        E 16 b0 0b 44
        E 16 b0 0b 3b
        E 32 b0 0b 44
        E 32 b0 0b 08
        E 16 b0 0b 11
        E 16 b0 0b 19
        E 128 b0 0b 11
        E 16 b0 0b 77
        E 16 b0 0b 5d
        E 16 b0 0b 44
        E 16 b0 0b 3b
        E 32 b0 0b 44
        E 32 b0 0b 08
        E 16 b0 0b 11
        E 16 b0 0b 19
        E 128 b0 0b 11
        E 16 b0 0b 77
        E 16 b0 0b 5d
        E 16 b0 0b 44
        E 16 b0 0b 3b
        E 32 b0 0b 44
        E 32 b0 0b 08
        E 16 b0 0b 11
        E 16 b0 0b 19
        E 128 b0 0b 11
        E 16 b0 0b 77
        E 0 80 37 00
        E 0 90 3c 77
        E 16 b0 0b 5d
        E 16 b0 0b 44
        E 16 b0 0b 3b
        E 32 b0 0b 44
        E 32 b0 0b 08
        E 16 b0 0b 11
        E 16 b0 0b 19
        E 128 b0 0b 11
        E 16 b0 0b 77
        E 0 80 3c 00
        E 0 90 3d 77
        E 16 b0 0b 5d
        E 16 b0 0b 44
        E 16 b0 0b 3b
        E 32 b0 0b 44
        E 32 b0 0b 08
        E 16 b0 0b 11
        E 16 b0 0b 19
        E 128 b0 0b 11
        E 16 b0 0b 77
        E 0 80 3d 00
        E 0 90 42 77
        E 16 b0 0b 5d
        E 16 b0 0b 44
        E 16 b0 0b 3b
        E 32 b0 0b 44
        E 32 b0 0b 08
        E 16 b0 0b 11
        E 16 b0 0b 19
        E 128 b0 0b 11
        E 16 b0 0b 77
        E 0 80 42 00
        E 0 90 3b 77
        E 16 b0 0b 5d
        E 16 b0 0b 44
        E 16 b0 0b 3b
        E 32 b0 0b 44
        E 32 b0 0b 08
        E 16 b0 0b 11
        E 16 b0 0b 19
        E 128 b0 0b 11
        E 16 b0 0b 33
        E 0 80 3b 00
        E 0 90 34 33
        E 16 b0 0b 4c
        E 16 b0 0b 77
        E 16 b0 0b 55
        E 1072 b0 0b 08
        E 16 b0 0b 11
        E 16 b0 0b 19
        E 128 b0 0b 11
        E 16 b0 0b 33
        E 0 80 34 00
        E 0 90 2f 33
        E 16 b0 0b 4c
        E 16 b0 0b 77
        E 16 b0 0b 55
        E 64 b0 0b 08
        E 16 b0 0b 11
        E 16 b0 0b 33
        E 0 80 2f 00
        E 0 90 34 33
        E 16 b0 0b 4c
        E 16 b0 0b 77
        E 16 b0 0b 55
        E 64 b0 0b 08
        E 16 b0 0b 11
        E 16 b0 0b 33
        E 0 80 34 00
        E 0 90 36 33
        E 16 b0 0b 4c
        E 16 b0 0b 77
        E 16 b0 0b 55
        E 64 b0 0b 08
        E 16 b0 0b 11
        E 16 b0 0b 33
        E 0 80 36 00
        E 0 90 37 33
        E 16 b0 0b 4c
        E 16 b0 0b 77
        E 16 b0 0b 55
        E 64 b0 0b 08
        E 16 b0 0b 11
        E 16 b0 0b 33
        E 0 80 37 00
        E 0 90 34 33
        E 16 b0 0b 4c
        E 16 b0 0b 77
        E 16 b0 0b 55
        E 64 b0 0b 08
        E 16 b0 0b 11
        E 16 b0 0b 33
        E 0 80 34 00
        E 0 90 3b 33
        E 16 b0 0b 4c
        E 16 b0 0b 77
        E 16 b0 0b 55
        E 64 b0 0b 08
        E 16 b0 0b 11
        E 16 b0 0b 33
        E 0 80 3b 00
        E 0 90 37 33
        E 16 b0 0b 4c
        E 16 b0 0b 77
        E 16 b0 0b 55
        E 64 b0 0b 08
        E 16 b0 0b 11
        E 16 b0 0b 33
        E 0 80 37 00
        E 0 90 40 33
        E 16 b0 0b 4c
        E 16 b0 0b 77
        E 16 b0 0b 55
        E 352 b0 0b 08
        E 16 b0 0b 11
        E 16 b0 0b 33
        E 0 80 40 00
        E 0 90 3b 33
        E 16 b0 0b 4c
        E 16 b0 0b 77
        E 16 b0 0b 55
        E 1072 b0 0b 08
        E 16 b0 0b 11
        E 16 b0 0b 19
        E 128 b0 0b 11
        E 16 b0 0b 33
        E 0 80 3b 00
        E 0 90 37 33
        E 16 b0 0b 4c
        E 16 b0 0b 77
        E 16 b0 0b 55
        E 208 b0 0b 08
        E 16 b0 0b 11
        E 16 b0 0b 33
        E 0 80 37 00
        E 0 90 36 33
        E 16 b0 0b 4c
        E 16 b0 0b 77
        E 16 b0 0b 55
        E 208 b0 0b 08
        E 16 b0 0b 11
        E 16 b0 0b 33
        E 0 80 36 00
        E 0 90 34 33
        E 16 b0 0b 4c
        E 16 b0 0b 77
        E 16 b0 0b 55
        E 64 b0 0b 08
        E 16 b0 0b 11
        E 16 b0 0b 33
        E 16 b0 0b 4c
        E 16 b0 0b 77
        E 16 b0 0b 55
        E 64 b0 0b 08
        E 16 b0 0b 11
        E 16 b0 0b 19
        E 128 b0 0b 11
        E 16 b0 0b 33
        E 16 b0 0b 4c
        E 16 b0 0b 77
        E 16 b0 0b 55
        E 64 b0 0b 08
        E 16 b0 0b 11
        E 16 b0 0b 33
        E 16 b0 0b 4c
        E 16 b0 0b 77
        E 16 b0 0b 55
        E 64 b0 0b 08
        E 16 b0 0b 11
        E 16 b0 0b 19
        E 128 b0 0b 11
        E 16 b0 0b 33
        E 16 b0 0b 4c
        E 16 b0 0b 77
        E 16 b0 0b 55
        E 64 b0 0b 08
        E 16 b0 0b 11
        E 16 b0 0b 33
        E 16 b0 0b 4c
        E 16 b0 0b 77
        E 16 b0 0b 55
        E 64 b0 0b 08
        E 16 b0 0b 11
        E 16 b0 0b 19
        E 128 b0 0b 11
        E 16 b0 0b 33
        E 16 b0 0b 4c
        E 16 b0 0b 77
        E 16 b0 0b 55
        E 64 b0 0b 08
        E 16 b0 0b 11
        E 16 b0 0b 33
        E 16 b0 0b 4c
        E 16 b0 0b 77
        E 16 b0 0b 55
        E 64 b0 0b 08
        E 16 b0 0b 11
        E 16 b0 0b 19
        E 128 b0 0b 11
        E 16 b0 0b 33
        E 0 80 34 00
        E 0 90 32 33
        E 16 b0 0b 4c
        E 16 b0 0b 77
        E 16 b0 0b 55
        E 208 b0 0b 08
        E 16 b0 0b 11
        E 16 b0 0b 33
        E 0 80 32 00
        E 0 90 36 33
        E 16 b0 0b 4c
        E 16 b0 0b 77
        E 16 b0 0b 55
        E 208 b0 0b 08
        E 16 b0 0b 11
        E 16 b0 0b 33
        E 0 80 36 00
        E 0 90 34 33
        E 16 b0 0b 4c
        E 16 b0 0b 77
        E 16 b0 0b 55
        E 1072 b0 0b 08
        E 16 b0 0b 11
        E 16 b0 0b 33
        E 0 80 34 00
        E 0 90 2f 33
        E 16 b0 0b 4c
        E 16 b0 0b 77
        E 16 b0 0b 55
        E 64 b0 0b 08
        E 16 b0 0b 11
        E 16 b0 0b 33
        E 16 b0 0b 4c
        E 16 b0 0b 77
        E 16 b0 0b 55
        E 64 b0 0b 08
        E 16 b0 0b 11
        E 16 b0 0b 33
        E 0 80 2f 00
        E 0 90 28 33
        E 16 b0 0b 4c
        E 16 b0 0b 77
        E 16 b0 0b 55
        E 64 b0 0b 08
        E 16 b0 0b 11
        E 16 b0 0b 33
        E 0 80 28 00
        E 0 90 34 33
        E 16 b0 0b 4c
        E 16 b0 0b 77
        E 16 b0 0b 55
        E 64 b0 0b 08
        E 16 b0 0b 11
        E 16 b0 0b 33
        E 16 b0 0b 4c
        E 16 b0 0b 77
        E 16 b0 0b 55
        E 64 b0 0b 08
        E 16 b0 0b 11
        E 16 b0 0b 33
        E 0 80 34 00
        E 0 90 2b 33
        E 16 b0 0b 4c
        E 16 b0 0b 77
        E 16 b0 0b 55
        E 64 b0 0b 08
        E 16 b0 0b 11
        E 16 b0 0b 33
        E 0 80 2b 00
        E 0 90 37 33
        E 16 b0 0b 4c
        E 16 b0 0b 77
        E 16 b0 0b 55
        E 64 b0 0b 08
        E 16 b0 0b 11
        E 16 b0 0b 33
        E 0 80 37 00
        E 0 90 2f 33
        E 16 b0 0b 4c
        E 16 b0 0b 77
        E 16 b0 0b 55
        E 64 b0 0b 08
        E 16 b0 0b 11
        E 16 b0 0b 33
        E 0 80 2f 00
        E 0 90 34 33
        E 16 b0 0b 4c
        E 16 b0 0b 77
        E 16 b0 0b 55
        E 608 80 34 00
        E 0 b0 7b 00
        E 0 ff 2f 00
      >
    >
  >
  <TRACK {92584C21-903A-4EFB-904F-36F1CB29D90A}
    NAME "NES - Pulse 2 [ch1]"
    PEAKCOL 10092441
    BEAT -1
    AUTOMODE 0
    PANLAWFLAGS 3
    VOLPAN 1 0 -1 -1 1
    MUTESOLO 0 0 0
    IPHASE 0
    PLAYOFFS 0 1
    ISBUS 0 0
    BUSCOMP 0 0 0 0 0
    SHOWINMIX 1 0.6667 0.5 1 0.5 0 0 0
    FIXEDLANES 9 0 0 0 0
    SEL 0
    REC 0 5088 1 0 0 0 0 0
    VU 2
    TRACKHEIGHT 0 0 0 0 0 0 0
    INQ 0 0 0 0.5 100 0 0 100
    NCHAN 2
    FX 1
    TRACKID {92584C21-903A-4EFB-904F-36F1CB29D90A}
    PERF 0
    MIDIOUT -1
    MAINSEND 1 0
    <FXCHAIN
      WNDRECT 24 52 700 560
      SHOW 0
      LASTSEL 0
      DOCKED 0
      BYPASS 0 0 0
      <JS "ReapNES Studio/ReapNES_Console.jsfx" ""
        2 15 1 10 80 10 100 2 1 15 1 5 60 10 80 1 1 0 50 0 0 15 1 0 100 0 0 0.500000 0.500000 0.400000 0.300000 0.800000 1 1 0 0 0 0 - - - - - - - - - - - - - - - - - - - - - - - - - -
      >
      FLOATPOS 0 0 0 0
      FXID {3D05B2D3-F628-4E23-BE30-01F8E3CA1A9A}
      WAK 0 0
    >
    <ITEM
      POSITION 0
      LENGTH 72.3017129
      LOOP 0
      ALLTAKES 0
      FADEIN 0 0 0 0 0 0 0
      FADEOUT 0 0 0 0 0 0 0
      MUTE 0 0
      SEL 0
      IGUID {F5F52778-BB85-484B-A29A-2DF5F6CA9227}
      <SOURCE MIDI
        HASDATA 1 480 QN
        CCINTERP 32
        E 0 c1 51
        E 0 b1 0c 20
        E 0 b1 0b 66
        E 0 91 34 66
        E 16 b1 0b 4c
        E 16 b1 0b 33
        E 16 b1 0b 2a
        E 32 b1 0b 33
        E 32 b1 0b 08
        E 16 b1 0b 11
        E 16 b1 0b 19
        E 128 b1 0b 11
        E 16 b1 0b 66
        E 16 b1 0b 4c
        E 16 b1 0b 33
        E 16 b1 0b 2a
        E 32 b1 0b 33
        E 32 b1 0b 08
        E 16 b1 0b 11
        E 16 b1 0b 66
        E 16 b1 0b 4c
        E 16 b1 0b 33
        E 16 b1 0b 2a
        E 32 b1 0b 33
        E 32 b1 0b 08
        E 16 b1 0b 11
        E 16 b1 0b 19
        E 128 b1 0b 11
        E 16 b1 0b 66
        E 16 b1 0b 4c
        E 16 b1 0b 33
        E 16 b1 0b 2a
        E 32 b1 0b 33
        E 32 b1 0b 08
        E 16 b1 0b 11
        E 16 b1 0b 19
        E 128 b1 0b 11
        E 16 b1 0b 66
        E 16 b1 0b 4c
        E 16 b1 0b 33
        E 16 b1 0b 2a
        E 32 b1 0b 33
        E 32 b1 0b 08
        E 16 b1 0b 11
        E 16 b1 0b 19
        E 128 b1 0b 11
        E 16 b1 0b 66
        E 0 81 34 00
        E 0 91 2d 66
        E 16 b1 0b 4c
        E 16 b1 0b 33
        E 16 b1 0b 2a
        E 32 b1 0b 33
        E 32 b1 0b 08
        E 16 b1 0b 11
        E 16 b1 0b 66
        E 16 b1 0b 4c
        E 16 b1 0b 33
        E 16 b1 0b 2a
        E 32 b1 0b 33
        E 32 b1 0b 08
        E 16 b1 0b 11
        E 16 b1 0b 66
        E 0 81 2d 00
        E 0 91 2f 66
        E 16 b1 0b 4c
        E 16 b1 0b 33
        E 16 b1 0b 2a
        E 32 b1 0b 33
        E 32 b1 0b 3b
        E 32 b1 0b 44
        E 400 b1 0b 08
        E 16 b1 0b 11
        E 16 b1 0b 19
        E 128 b1 0b 11
        E 16 b1 0b 66
        E 0 81 2f 00
        E 0 91 34 66
        E 16 b1 0b 4c
        E 16 b1 0b 33
        E 16 b1 0b 2a
        E 32 b1 0b 33
        E 32 b1 0b 08
        E 16 b1 0b 11
        E 16 b1 0b 19
        E 128 b1 0b 11
        E 16 b1 0b 66
        E 16 b1 0b 4c
        E 16 b1 0b 33
        E 16 b1 0b 2a
        E 32 b1 0b 33
        E 32 b1 0b 08
        E 16 b1 0b 11
        E 16 b1 0b 66
        E 16 b1 0b 4c
        E 16 b1 0b 33
        E 16 b1 0b 2a
        E 32 b1 0b 33
        E 32 b1 0b 08
        E 16 b1 0b 11
        E 16 b1 0b 19
        E 128 b1 0b 11
        E 16 b1 0b 66
        E 16 b1 0b 4c
        E 16 b1 0b 33
        E 16 b1 0b 2a
        E 32 b1 0b 33
        E 32 b1 0b 08
        E 16 b1 0b 11
        E 16 b1 0b 19
        E 128 b1 0b 11
        E 16 b1 0b 66
        E 16 b1 0b 4c
        E 16 b1 0b 33
        E 16 b1 0b 2a
        E 32 b1 0b 33
        E 32 b1 0b 08
        E 16 b1 0b 11
        E 16 b1 0b 19
        E 128 b1 0b 11
        E 16 b1 0b 66
        E 0 81 34 00
        E 0 91 2d 66
        E 16 b1 0b 4c
        E 16 b1 0b 33
        E 16 b1 0b 2a
        E 32 b1 0b 33
        E 32 b1 0b 08
        E 16 b1 0b 11
        E 16 b1 0b 66
        E 16 b1 0b 4c
        E 16 b1 0b 33
        E 16 b1 0b 2a
        E 32 b1 0b 33
        E 32 b1 0b 08
        E 16 b1 0b 11
        E 16 b1 0b 66
        E 0 81 2d 00
        E 0 91 30 66
        E 16 b1 0b 4c
        E 16 b1 0b 33
        E 16 b1 0b 2a
        E 32 b1 0b 33
        E 32 b1 0b 3b
        E 32 b1 0b 44
        E 400 b1 0b 08
        E 16 b1 0b 11
        E 16 b1 0b 19
        E 128 b1 0b 11
        E 16 b1 0b 66
        E 0 81 30 00
        E 0 91 34 66
        E 16 b1 0b 4c
        E 16 b1 0b 33
        E 16 b1 0b 2a
        E 32 b1 0b 33
        E 32 b1 0b 08
        E 16 b1 0b 11
        E 16 b1 0b 19
        E 128 b1 0b 11
        E 16 b1 0b 66
        E 16 b1 0b 4c
        E 16 b1 0b 33
        E 16 b1 0b 2a
        E 32 b1 0b 33
        E 32 b1 0b 08
        E 16 b1 0b 11
        E 16 b1 0b 66
        E 16 b1 0b 4c
        E 16 b1 0b 33
        E 16 b1 0b 2a
        E 32 b1 0b 33
        E 32 b1 0b 08
        E 16 b1 0b 11
        E 16 b1 0b 19
        E 128 b1 0b 11
        E 16 b1 0b 66
        E 16 b1 0b 4c
        E 16 b1 0b 33
        E 16 b1 0b 2a
        E 32 b1 0b 33
        E 32 b1 0b 08
        E 16 b1 0b 11
        E 16 b1 0b 19
        E 128 b1 0b 11
        E 16 b1 0b 66
        E 16 b1 0b 4c
        E 16 b1 0b 33
        E 16 b1 0b 2a
        E 32 b1 0b 33
        E 32 b1 0b 08
        E 16 b1 0b 11
        E 16 b1 0b 19
        E 128 b1 0b 11
        E 16 b1 0b 66
        E 0 81 34 00
        E 0 91 2d 66
        E 16 b1 0b 4c
        E 16 b1 0b 33
        E 16 b1 0b 2a
        E 32 b1 0b 33
        E 32 b1 0b 08
        E 16 b1 0b 11
        E 16 b1 0b 66
        E 16 b1 0b 4c
        E 16 b1 0b 33
        E 16 b1 0b 2a
        E 32 b1 0b 33
        E 32 b1 0b 08
        E 16 b1 0b 11
        E 16 b1 0b 66
        E 0 81 2d 00
        E 0 91 2f 66
        E 16 b1 0b 4c
        E 16 b1 0b 33
        E 16 b1 0b 2a
        E 32 b1 0b 33
        E 32 b1 0b 3b
        E 32 b1 0b 44
        E 400 b1 0b 08
        E 16 b1 0b 11
        E 16 b1 0b 19
        E 128 b1 0b 11
        E 16 b1 0b 66
        E 0 81 2f 00
        E 0 91 34 66
        E 16 b1 0b 4c
        E 16 b1 0b 33
        E 16 b1 0b 2a
        E 32 b1 0b 33
        E 32 b1 0b 08
        E 16 b1 0b 11
        E 16 b1 0b 19
        E 128 b1 0b 11
        E 16 b1 0b 66
        E 16 b1 0b 4c
        E 16 b1 0b 33
        E 16 b1 0b 2a
        E 32 b1 0b 33
        E 32 b1 0b 08
        E 16 b1 0b 11
        E 16 b1 0b 66
        E 16 b1 0b 4c
        E 16 b1 0b 33
        E 16 b1 0b 2a
        E 32 b1 0b 33
        E 32 b1 0b 08
        E 16 b1 0b 11
        E 16 b1 0b 19
        E 128 b1 0b 11
        E 16 b1 0b 66
        E 16 b1 0b 4c
        E 16 b1 0b 33
        E 16 b1 0b 2a
        E 16 b1 0c 40
        E 0 b1 0b 55
        E 0 81 34 00
        E 0 91 51 55
        E 32 81 51 00
        E 0 91 30 55
        E 48 b1 0b 33
        E 0 81 30 00
        E 0 91 54 33
        E 96 b1 0b 2a
        E 192 b1 0b 22
        E 192 b1 0b 19
        E 192 b1 0b 11
        E 192 b1 0b 08
        E 192 b1 0c 20
        E 0 b1 0b 44
        E 0 81 54 00
        E 0 91 30 44
        E 208 b1 0b 08
        E 16 b1 0b 11
        E 16 b1 0b 19
        E 128 b1 0b 11
        E 16 b1 0b 66
        E 0 81 30 00
        E 0 91 40 66
        E 16 b1 0b 4c
        E 16 b1 0b 33
        E 16 b1 0b 2a
        E 32 b1 0b 33
        E 32 b1 0b 08
        E 16 b1 0b 11
        E 16 b1 0b 19
        E 128 b1 0b 11
        E 16 b1 0b 66
        E 16 b1 0b 4c
        E 16 b1 0b 33
        E 16 b1 0b 2a
        E 32 b1 0b 33
        E 32 b1 0b 08
        E 16 b1 0b 11
        E 16 b1 0b 66
        E 16 b1 0b 4c
        E 16 b1 0b 33
        E 16 b1 0b 2a
        E 32 b1 0b 33
        E 32 b1 0b 08
        E 16 b1 0b 11
        E 16 b1 0b 19
        E 128 b1 0b 11
        E 16 b1 0b 66
        E 16 b1 0b 4c
        E 16 b1 0b 33
        E 16 b1 0b 2a
        E 32 b1 0b 33
        E 32 b1 0b 08
        E 16 b1 0b 11
        E 16 b1 0b 19
        E 128 b1 0b 11
        E 16 b1 0b 66
        E 16 b1 0b 4c
        E 16 b1 0b 33
        E 16 b1 0b 2a
        E 32 b1 0b 33
        E 32 b1 0b 08
        E 16 b1 0b 11
        E 16 b1 0b 19
        E 128 b1 0b 11
        E 16 b1 0b 66
        E 0 81 40 00
        E 0 91 39 66
        E 16 b1 0b 4c
        E 16 b1 0b 33
        E 16 b1 0b 2a
        E 32 b1 0b 33
        E 32 b1 0b 08
        E 16 b1 0b 11
        E 16 b1 0b 66
        E 16 b1 0b 4c
        E 16 b1 0b 33
        E 16 b1 0b 2a
        E 32 b1 0b 33
        E 32 b1 0b 08
        E 16 b1 0b 11
        E 16 b1 0b 66
        E 0 81 39 00
        E 0 91 3b 66
        E 16 b1 0b 4c
        E 16 b1 0b 33
        E 16 b1 0b 2a
        E 32 b1 0b 33
        E 32 b1 0b 3b
        E 32 b1 0b 44
        E 400 b1 0b 08
        E 16 b1 0b 11
        E 16 b1 0b 19
        E 16 b1 0b 55
        E 0 81 3b 00
        E 0 91 51 55
        E 32 81 51 00
        E 0 91 30 55
        E 16 b1 0b 22
        E 16 81 30 00
        E 0 91 51 22
        E 32 81 51 00
        E 0 91 30 22
        E 16 81 30 00
        E 16 b1 0b 11
        E 0 91 3b 11
        E 16 b1 0b 55
        E 0 81 3b 00
        E 0 91 51 55
        E 32 81 51 00
        E 0 91 30 55
        E 16 b1 0b 22
        E 16 81 30 00
        E 0 91 51 22
        E 32 81 51 00
        E 0 91 30 22
        E 16 81 30 00
        E 16 b1 0b 77
        E 0 91 36 77
        E 16 b1 0b 55
        E 0 81 36 00
        E 0 91 51 55
        E 32 81 51 00
        E 0 91 30 55
        E 16 b1 0b 22
        E 16 81 30 00
        E 0 91 51 22
        E 32 81 51 00
        E 0 91 30 22
        E 16 81 30 00
        E 16 b1 0b 19
        E 0 91 36 19
        E 16 b1 0b 55
        E 0 81 36 00
        E 0 91 51 55
        E 32 81 51 00
        E 0 91 30 55
        E 16 b1 0b 22
        E 16 81 30 00
        E 0 91 51 22
        E 32 81 51 00
        E 0 91 30 22
        E 16 81 30 00
        E 16 b1 0b 77
        E 0 91 36 77
        E 16 b1 0b 55
        E 0 81 36 00
        E 0 91 51 55
        E 32 81 51 00
        E 0 91 30 55
        E 16 b1 0b 22
        E 16 81 30 00
        E 0 91 51 22
        E 32 81 51 00
        E 0 91 30 22
        E 16 81 30 00
        E 16 b1 0b 19
        E 0 91 36 19
        E 16 b1 0b 55
        E 0 81 36 00
        E 0 91 51 55
        E 32 81 51 00
        E 0 91 30 55
        E 16 b1 0b 22
        E 16 81 30 00
        E 0 91 51 22
        E 32 81 51 00
        E 0 91 30 22
        E 16 81 30 00
        E 16 b1 0b 77
        E 0 91 39 77
        E 16 b1 0b 55
        E 0 81 39 00
        E 0 91 51 55
        E 32 81 51 00
        E 0 91 30 55
        E 16 b1 0b 22
        E 16 81 30 00
        E 0 91 51 22
        E 32 81 51 00
        E 0 91 30 22
        E 16 81 30 00
        E 16 b1 0b 19
        E 0 91 39 19
        E 16 b1 0b 55
        E 0 81 39 00
        E 0 91 51 55
        E 32 81 51 00
        E 0 91 30 55
        E 16 b1 0b 22
        E 16 81 30 00
        E 0 91 51 22
        E 32 81 51 00
        E 0 91 30 22
        E 16 81 30 00
        E 16 b1 0b 77
        E 0 91 39 77
        E 16 b1 0b 55
        E 0 81 39 00
        E 0 91 51 55
        E 32 81 51 00
        E 0 91 30 55
        E 16 b1 0b 22
        E 16 81 30 00
        E 0 91 51 22
        E 32 81 51 00
        E 0 91 30 22
        E 16 81 30 00
        E 16 b1 0b 19
        E 0 91 39 19
        E 16 b1 0b 55
        E 0 81 39 00
        E 0 91 51 55
        E 32 81 51 00
        E 0 91 30 55
        E 16 b1 0b 22
        E 16 81 30 00
        E 0 91 51 22
        E 32 81 51 00
        E 0 91 30 22
        E 16 81 30 00
        E 16 b1 0b 77
        E 0 91 3b 77
        E 16 b1 0b 55
        E 0 81 3b 00
        E 0 91 51 55
        E 32 81 51 00
        E 0 91 30 55
        E 16 b1 0b 22
        E 16 81 30 00
        E 0 91 51 22
        E 32 81 51 00
        E 0 91 30 22
        E 16 81 30 00
        E 16 b1 0b 19
        E 0 91 3b 19
        E 16 b1 0b 55
        E 0 81 3b 00
        E 0 91 51 55
        E 32 81 51 00
        E 0 91 30 55
        E 16 b1 0b 22
        E 16 81 30 00
        E 0 91 51 22
        E 32 81 51 00
        E 0 91 30 22
        E 16 81 30 00
        E 16 b1 0b 77
        E 0 91 3f 77
        E 16 b1 0b 55
        E 0 81 3f 00
        E 0 91 51 55
        E 32 81 51 00
        E 0 91 30 55
        E 16 b1 0b 22
        E 16 81 30 00
        E 0 91 51 22
        E 32 81 51 00
        E 0 91 30 22
        E 16 81 30 00
        E 16 b1 0b 19
        E 0 91 3f 19
        E 16 b1 0b 55
        E 0 81 3f 00
        E 0 91 51 55
        E 32 81 51 00
        E 0 91 30 55
        E 16 b1 0b 22
        E 16 81 30 00
        E 0 91 51 22
        E 32 81 51 00
        E 0 91 30 22
        E 16 81 30 00
        E 16 b1 0b 77
        E 0 91 3f 77
        E 16 b1 0b 55
        E 0 81 3f 00
        E 0 91 51 55
        E 32 81 51 00
        E 0 91 30 55
        E 16 b1 0b 22
        E 16 81 30 00
        E 0 91 51 22
        E 32 81 51 00
        E 0 91 30 22
        E 16 81 30 00
        E 16 b1 0b 19
        E 0 91 3f 19
        E 16 b1 0b 55
        E 0 81 3f 00
        E 0 91 51 55
        E 32 81 51 00
        E 0 91 30 55
        E 16 b1 0b 22
        E 16 81 30 00
        E 0 91 51 22
        E 32 81 51 00
        E 0 91 30 22
        E 16 81 30 00
        E 16 b1 0b 77
        E 0 91 36 77
        E 16 b1 0b 55
        E 0 81 36 00
        E 0 91 51 55
        E 32 81 51 00
        E 0 91 30 55
        E 16 b1 0b 22
        E 16 81 30 00
        E 0 91 51 22
        E 32 81 51 00
        E 0 91 30 22
        E 16 81 30 00
        E 16 b1 0b 19
        E 0 91 36 19
        E 16 b1 0b 55
        E 0 81 36 00
        E 0 91 51 55
        E 16 b1 0c 40
        E 0 b1 0b 66
        E 0 81 51 00
        E 0 91 26 66
        E 16 b1 0b 44
        E 48 b1 0c 20
        E 0 b1 0b 19
        E 0 81 26 00
        E 0 91 36 19
        E 32 b1 0c 40
        E 0 b1 0b 66
        E 0 81 36 00
        E 0 91 26 66
        E 16 b1 0b 44
        E 48 b1 0c 20
        E 0 b1 0b 33
        E 0 81 26 00
        E 0 91 34 33
        E 64 b1 0c 40
        E 0 b1 0b 7f
        E 0 81 34 00
        E 0 91 26 7f
        E 64 81 26 00
        E 0 91 1d 7f
        E 16 b1 0b 55
        E 0 81 1d 00
        E 0 91 26 55
        E 16 b1 0b 7f
        E 64 81 26 00
        E 0 91 1d 7f
        E 16 b1 0b 55
        E 0 81 1d 00
        E 0 91 26 55
        E 64 81 26 00
        E 0 91 1d 55
        E 16 b1 0b 7f
        E 0 81 1d 00
        E 0 91 25 7f
        E 80 b1 0b 55
        E 16 b1 0b 66
        E 0 81 25 00
        E 0 91 26 66
        E 16 b1 0b 44
        E 48 b1 0c 20
        E 0 b1 0b 33
        E 0 81 26 00
        E 0 91 34 33
        E 64 b1 0c 40
        E 0 b1 0b 66
        E 0 81 34 00
        E 0 91 26 66
        E 16 b1 0b 44
        E 48 b1 0c 20
        E 0 b1 0b 33
        E 0 81 26 00
        E 0 91 34 33
        E 64 b1 0c 40
        E 0 b1 0b 7f
        E 0 81 34 00
        E 0 91 26 7f
        E 64 81 26 00
        E 0 91 1d 7f
        E 16 b1 0b 55
        E 0 81 1d 00
        E 0 91 26 55
        E 16 b1 0b 7f
        E 64 81 26 00
        E 0 91 1d 7f
        E 16 b1 0b 55
        E 0 81 1d 00
        E 0 91 26 55
        E 64 81 26 00
        E 0 91 1d 55
        E 16 b1 0b 7f
        E 0 81 1d 00
        E 0 91 25 7f
        E 80 b1 0b 55
        E 48 81 25 00
        E 0 91 2b 55
        E 16 b1 0b 2a
        E 0 81 2b 00
        E 0 91 21 2a
        E 48 81 21 00
        E 0 91 2d 2a
        E 16 b1 0c 20
        E 0 b1 0b 19
        E 0 81 2d 00
        E 0 91 34 19
        E 96 b1 0b 11
        E 16 b1 0b 19
        E 0 81 34 00
        E 0 91 2f 19
        E 16 b1 0b 55
        E 0 81 2f 00
        E 0 91 51 55
        E 32 81 51 00
        E 0 91 30 55
        E 16 b1 0b 22
        E 16 81 30 00
        E 0 91 51 22
        E 32 81 51 00
        E 0 91 30 22
        E 16 81 30 00
        E 16 b1 0b 19
        E 0 91 34 19
        E 16 b1 0b 55
        E 0 81 34 00
        E 0 91 51 55
        E 32 81 51 00
        E 0 91 30 55
        E 16 b1 0b 22
        E 16 81 30 00
        E 0 91 51 22
        E 32 81 51 00
        E 0 91 30 22
        E 16 81 30 00
        E 16 b1 0b 19
        E 0 91 36 19
        E 16 b1 0b 55
        E 0 81 36 00
        E 0 91 51 55
        E 32 81 51 00
        E 0 91 30 55
        E 16 b1 0b 22
        E 16 81 30 00
        E 0 91 51 22
        E 32 81 51 00
        E 0 91 30 22
        E 16 81 30 00
        E 16 b1 0b 19
        E 0 91 37 19
        E 16 b1 0b 55
        E 0 81 37 00
        E 0 91 51 55
        E 32 81 51 00
        E 0 91 30 55
        E 16 b1 0b 22
        E 16 81 30 00
        E 0 91 51 22
        E 32 81 51 00
        E 0 91 30 22
        E 16 81 30 00
        E 16 b1 0b 19
        E 0 91 34 19
        E 16 b1 0b 55
        E 0 81 34 00
        E 0 91 51 55
        E 16 b1 0c 40
        E 0 b1 0b 66
        E 0 81 51 00
        E 0 91 26 66
        E 16 b1 0b 44
        E 48 b1 0c 20
        E 0 b1 0b 33
        E 0 81 26 00
        E 0 91 34 33
        E 16 b1 0b 08
        E 16 b1 0b 11
        E 16 b1 0b 19
        E 0 81 34 00
        E 0 91 3b 19
        E 16 b1 0c 40
        E 0 b1 0b 7f
        E 0 81 3b 00
        E 0 91 26 7f
        E 64 81 26 00
        E 0 91 1d 7f
        E 16 b1 0b 55
        E 0 81 1d 00
        E 0 91 26 55
        E 48 b1 0b 66
        E 16 b1 0b 44
        E 48 b1 0c 20
        E 0 b1 0b 33
        E 0 81 26 00
        E 0 91 37 33
        E 48 b1 0b 08
        E 16 b1 0c 40
        E 0 b1 0b 7f
        E 0 81 37 00
        E 0 91 26 7f
        E 64 81 26 00
        E 0 91 1d 7f
        E 16 b1 0b 55
        E 0 81 1d 00
        E 0 91 26 55
        E 64 81 26 00
        E 0 91 1d 55
        E 16 b1 0b 7f
        E 0 81 1d 00
        E 0 91 25 7f
        E 64 b1 0b 66
        E 0 81 25 00
        E 0 91 26 66
        E 16 b1 0b 44
        E 48 b1 0c 20
        E 0 b1 0b 33
        E 0 81 26 00
        E 0 91 40 33
        E 32 b1 0c 40
        E 0 b1 0b 7f
        E 0 81 40 00
        E 0 91 26 7f
        E 64 81 26 00
        E 0 91 1d 7f
        E 16 b1 0b 55
        E 0 81 1d 00
        E 0 91 26 55
        E 64 81 26 00
        E 0 91 1d 55
        E 16 b1 0b 66
        E 0 81 1d 00
        E 0 91 26 66
        E 16 b1 0b 44
        E 48 b1 0c 20
        E 0 b1 0b 33
        E 0 81 26 00
        E 0 91 3b 33
        E 32 b1 0c 40
        E 0 b1 0b 7f
        E 0 81 3b 00
        E 0 91 26 7f
        E 64 81 26 00
        E 0 91 1d 7f
        E 16 b1 0b 55
        E 0 81 1d 00
        E 0 91 26 55
        E 64 81 26 00
        E 0 91 1d 55
        E 16 b1 0b 7f
        E 0 81 1d 00
        E 0 91 25 7f
        E 80 b1 0b 55
        E 48 81 25 00
        E 0 91 2b 55
        E 16 b1 0b 2a
        E 0 81 2b 00
        E 0 91 21 2a
        E 48 81 21 00
        E 0 91 2d 2a
        E 16 b1 0c 20
        E 0 b1 0b 33
        E 0 81 2d 00
        E 0 91 3b 33
        E 96 b1 0b 55
        E 0 81 3b 00
        E 0 91 51 55
        E 32 81 51 00
        E 0 91 30 55
        E 16 b1 0b 22
        E 16 81 30 00
        E 0 91 51 22
        E 32 81 51 00
        E 0 91 30 22
        E 16 81 30 00
        E 16 b1 0b 33
        E 0 91 3b 33
        E 16 b1 0b 55
        E 0 81 3b 00
        E 0 91 51 55
        E 32 81 51 00
        E 0 91 30 55
        E 16 b1 0b 22
        E 16 81 30 00
        E 0 91 51 22
        E 32 81 51 00
        E 0 91 30 22
        E 16 81 30 00
        E 16 b1 0b 33
        E 0 91 3b 33
        E 16 b1 0b 55
        E 0 81 3b 00
        E 0 91 51 55
        E 32 81 51 00
        E 0 91 30 55
        E 16 b1 0b 22
        E 16 81 30 00
        E 0 91 51 22
        E 32 81 51 00
        E 0 91 30 22
        E 16 81 30 00
        E 16 b1 0b 33
        E 0 91 3b 33
        E 16 b1 0b 55
        E 0 81 3b 00
        E 0 91 51 55
        E 32 81 51 00
        E 0 91 30 55
        E 16 b1 0b 22
        E 16 81 30 00
        E 0 91 51 22
        E 32 81 51 00
        E 0 91 30 22
        E 16 81 30 00
        E 16 b1 0b 19
        E 0 91 3b 19
        E 16 b1 0b 55
        E 0 81 3b 00
        E 0 91 51 55
        E 32 81 51 00
        E 0 91 30 55
        E 16 b1 0b 22
        E 16 81 30 00
        E 0 91 51 22
        E 32 81 51 00
        E 0 91 30 22
        E 16 81 30 00
        E 16 b1 0b 19
        E 0 91 37 19
        E 16 b1 0b 55
        E 0 81 37 00
        E 0 91 51 55
        E 32 81 51 00
        E 0 91 30 55
        E 16 b1 0b 22
        E 16 81 30 00
        E 0 91 51 22
        E 32 81 51 00
        E 0 91 30 22
        E 16 81 30 00
        E 16 b1 0b 33
        E 0 91 37 33
        E 16 b1 0b 55
        E 0 81 37 00
        E 0 91 51 55
        E 32 81 51 00
        E 0 91 30 55
        E 16 b1 0b 22
        E 16 81 30 00
        E 0 91 51 22
        E 32 81 51 00
        E 0 91 30 22
        E 16 81 30 00
        E 16 b1 0b 19
        E 0 91 36 19
        E 16 b1 0b 55
        E 0 81 36 00
        E 0 91 51 55
        E 32 81 51 00
        E 0 91 30 55
        E 16 b1 0b 22
        E 16 81 30 00
        E 0 91 51 22
        E 32 81 51 00
        E 0 91 30 22
        E 16 81 30 00
        E 16 b1 0b 33
        E 0 91 36 33
        E 16 b1 0b 55
        E 0 81 36 00
        E 0 91 51 55
        E 32 81 51 00
        E 0 91 30 55
        E 16 b1 0b 22
        E 16 81 30 00
        E 0 91 51 22
        E 32 81 51 00
        E 0 91 30 22
        E 16 b1 0c 40
        E 0 b1 0b 66
        E 0 81 30 00
        E 0 91 26 66
        E 16 b1 0b 44
        E 48 b1 0c 20
        E 0 b1 0b 33
        E 0 81 26 00
        E 0 91 34 33
        E 64 b1 0b 08
        E 16 b1 0b 11
        E 16 b1 0b 19
        E 16 b1 0b 55
        E 0 81 34 00
        E 0 91 51 55
        E 32 81 51 00
        E 0 91 30 55
        E 16 b1 0b 22
        E 16 81 30 00
        E 0 91 51 22
        E 32 81 51 00
        E 0 91 30 22
        E 16 b1 0c 40
        E 0 b1 0b 66
        E 0 81 30 00
        E 0 91 26 66
        E 16 b1 0b 44
        E 48 b1 0c 20
        E 0 b1 0b 19
        E 0 81 26 00
        E 0 91 34 19
        E 80 b1 0b 11
        E 16 b1 0b 19
        E 16 b1 0b 55
        E 0 81 34 00
        E 0 91 51 55
        E 32 81 51 00
        E 0 91 30 55
        E 16 b1 0b 22
        E 16 81 30 00
        E 0 91 51 22
        E 32 81 51 00
        E 0 91 30 22
        E 16 81 30 00
        E 16 b1 0b 19
        E 0 91 34 19
        E 16 b1 0b 2a
        E 16 b1 0b 4c
        E 16 b1 0b 33
        E 32 b1 0b 55
        E 0 81 34 00
        E 0 91 51 55
        E 32 81 51 00
        E 0 91 30 55
        E 16 b1 0b 22
        E 16 81 30 00
        E 0 91 51 22
        E 32 81 51 00
        E 0 91 30 22
        E 16 81 30 00
        E 16 b1 0b 19
        E 0 91 34 19
        E 16 b1 0b 55
        E 0 81 34 00
        E 0 91 51 55
        E 32 81 51 00
        E 0 91 30 55
        E 16 b1 0b 22
        E 16 81 30 00
        E 0 91 51 22
        E 32 81 51 00
        E 0 91 30 22
        E 16 81 30 00
        E 16 b1 0b 33
        E 0 91 34 33
        E 16 b1 0b 55
        E 0 81 34 00
        E 0 91 51 55
        E 32 81 51 00
        E 0 91 30 55
        E 16 b1 0b 22
        E 16 81 30 00
        E 0 91 51 22
        E 32 81 51 00
        E 0 91 30 22
        E 16 81 30 00
        E 16 b1 0b 33
        E 0 91 34 33
        E 16 b1 0b 55
        E 0 81 34 00
        E 0 91 51 55
        E 32 81 51 00
        E 0 91 30 55
        E 16 b1 0b 22
        E 16 81 30 00
        E 0 91 51 22
        E 32 81 51 00
        E 0 91 30 22
        E 16 81 30 00
        E 16 b1 0b 19
        E 0 91 34 19
        E 16 b1 0c 40
        E 0 b1 0b 66
        E 0 81 34 00
        E 0 91 26 66
        E 16 b1 0b 44
        E 48 b1 0c 20
        E 0 b1 0b 19
        E 0 81 26 00
        E 0 91 34 19
        E 16 b1 0b 2a
        E 16 b1 0b 4c
        E 16 b1 0b 33
        E 16 b1 0c 40
        E 0 b1 0b 7f
        E 0 81 34 00
        E 0 91 26 7f
        E 64 81 26 00
        E 0 91 1d 7f
        E 16 b1 0b 55
        E 0 81 1d 00
        E 0 91 26 55
        E 48 b1 0b 66
        E 16 b1 0b 44
        E 48 b1 0c 20
        E 0 b1 0b 08
        E 0 81 26 00
        E 0 91 34 08
        E 16 b1 0b 11
        E 16 b1 0b 19
        E 32 b1 0c 40
        E 0 b1 0b 7f
        E 0 81 34 00
        E 0 91 26 7f
        E 64 81 26 00
        E 0 91 1d 7f
        E 16 b1 0b 55
        E 0 81 1d 00
        E 0 91 26 55
        E 64 81 26 00
        E 0 91 1d 55
        E 16 b1 0b 7f
        E 0 81 1d 00
        E 0 91 25 7f
        E 80 b1 0b 55
        E 48 81 25 00
        E 0 91 2b 55
        E 16 b1 0b 2a
        E 0 81 2b 00
        E 0 91 21 2a
        E 48 81 21 00
        E 0 91 2d 2a
        E 16 b1 0c 20
        E 0 b1 0b 08
        E 0 81 2d 00
        E 0 91 32 08
        E 16 b1 0b 11
        E 16 b1 0b 19
        E 0 81 32 00
        E 0 91 36 19
        E 16 b1 0b 2a
        E 16 b1 0b 4c
        E 16 b1 0b 33
        E 32 b1 0b 55
        E 0 81 36 00
        E 0 91 51 55
        E 32 81 51 00
        E 0 91 30 55
        E 16 b1 0b 22
        E 16 81 30 00
        E 0 91 51 22
        E 32 81 51 00
        E 0 91 30 22
        E 16 81 30 00
        E 16 b1 0b 33
        E 0 91 36 33
        E 16 b1 0b 55
        E 0 81 36 00
        E 0 91 51 55
        E 32 81 51 00
        E 0 91 30 55
        E 16 b1 0b 22
        E 16 81 30 00
        E 0 91 51 22
        E 32 81 51 00
        E 0 91 30 22
        E 16 81 30 00
        E 16 b1 0b 33
        E 0 91 34 33
        E 16 b1 0b 55
        E 0 81 34 00
        E 0 91 51 55
        E 32 81 51 00
        E 0 91 30 55
        E 16 b1 0b 22
        E 16 81 30 00
        E 0 91 51 22
        E 32 81 51 00
        E 0 91 30 22
        E 16 81 30 00
        E 16 b1 0b 33
        E 0 91 34 33
        E 16 b1 0b 55
        E 0 81 34 00
        E 0 91 51 55
        E 32 81 51 00
        E 0 91 30 55
        E 16 b1 0b 22
        E 16 81 30 00
        E 0 91 51 22
        E 32 81 51 00
        E 0 91 30 22
        E 16 81 30 00
        E 16 b1 0b 33
        E 0 91 34 33
        E 16 b1 0c 40
        E 0 b1 0b 66
        E 0 81 34 00
        E 0 91 26 66
        E 16 b1 0b 44
        E 48 b1 0c 20
        E 0 b1 0b 33
        E 0 81 26 00
        E 0 91 34 33
        E 64 b1 0c 40
        E 0 b1 0b 7f
        E 0 81 34 00
        E 0 91 26 7f
        E 64 81 26 00
        E 0 91 1d 7f
        E 16 b1 0b 55
        E 0 81 1d 00
        E 0 91 26 55
        E 48 b1 0b 66
        E 16 b1 0b 44
        E 48 b1 0c 20
        E 0 b1 0b 33
        E 0 81 26 00
        E 0 91 34 33
        E 64 b1 0c 40
        E 0 b1 0b 7f
        E 0 81 34 00
        E 0 91 26 7f
        E 64 81 26 00
        E 0 91 1d 7f
        E 16 b1 0b 55
        E 0 81 1d 00
        E 0 91 26 55
        E 64 81 26 00
        E 0 91 1d 55
        E 16 b1 0b 7f
        E 0 81 1d 00
        E 0 91 25 7f
        E 80 b1 0b 55
        E 48 81 25 00
        E 0 91 2b 55
        E 16 b1 0b 2a
        E 0 81 2b 00
        E 0 91 21 2a
        E 48 81 21 00
        E 0 91 2d 2a
        E 16 b1 0c 20
        E 0 b1 0b 08
        E 0 81 2d 00
        E 0 91 34 08
        E 16 b1 0b 11
        E 16 b1 0b 19
        E 0 81 34 00
        E 0 91 2f 19
        E 16 b1 0b 2a
        E 16 b1 0b 4c
        E 16 b1 0b 33
        E 32 b1 0b 55
        E 0 81 2f 00
        E 0 91 51 55
        E 32 81 51 00
        E 0 91 30 55
        E 16 b1 0b 22
        E 16 81 30 00
        E 0 91 51 22
        E 32 81 51 00
        E 0 91 30 22
        E 16 81 30 00
        E 16 b1 0b 33
        E 0 91 2f 33
        E 16 b1 0b 55
        E 0 81 2f 00
        E 0 91 51 55
        E 32 81 51 00
        E 0 91 30 55
        E 16 b1 0b 22
        E 16 81 30 00
        E 0 91 51 22
        E 32 81 51 00
        E 0 91 30 22
        E 16 81 30 00
        E 16 b1 0b 33
        E 0 91 28 33
        E 16 b1 0b 55
        E 0 81 28 00
        E 0 91 51 55
        E 32 81 51 00
        E 0 91 30 55
        E 16 b1 0b 22
        E 16 81 30 00
        E 0 91 51 22
        E 32 81 51 00
        E 0 91 30 22
        E 16 81 30 00
        E 16 b1 0b 33
        E 0 91 34 33
        E 48 b1 0b 08
        E 16 b1 0b 55
        E 0 81 34 00
        E 0 91 51 55
        E 32 81 51 00
        E 0 91 30 55
        E 16 b1 0b 22
        E 16 b1 0c 40
        E 0 b1 0b 7f
        E 0 81 30 00
        E 0 91 26 7f
        E 64 81 26 00
        E 0 91 1d 7f
        E 16 b1 0b 55
        E 0 81 1d 00
        E 0 91 26 55
        E 64 81 26 00
        E 0 91 1d 55
        E 16 b1 0b 7f
        E 0 81 1d 00
        E 0 91 25 7f
        E 80 b1 0b 55
        E 48 81 25 00
        E 0 91 2b 55
        E 16 b1 0b 2a
        E 0 81 2b 00
        E 0 91 21 2a
        E 48 81 21 00
        E 0 91 2d 2a
        E 16 b1 0c 20
        E 0 b1 0b 11
        E 0 81 2d 00
        E 0 91 37 11
        E 16 b1 0b 19
        E 0 81 37 00
        E 0 91 2f 19
        E 16 b1 0b 2a
        E 16 b1 0b 4c
        E 16 b1 0b 33
        E 64 b1 0b 08
        E 16 b1 0b 55
        E 0 81 2f 00
        E 0 91 51 55
        E 32 81 51 00
        E 0 91 30 55
        E 16 b1 0b 22
        E 16 81 30 00
        E 0 91 51 22
        E 32 81 51 00
        E 0 91 30 22
        E 16 81 30 00
        E 16 b1 0b 33
        E 0 91 34 33
        E 16 b1 0b 55
        E 0 81 34 00
        E 0 91 51 55
        E 32 81 51 00
        E 0 91 30 55
        E 16 b1 0b 22
        E 16 81 30 00
        E 0 91 51 22
        E 32 81 51 00
        E 0 91 30 22
        E 16 81 30 00
        E 16 b1 0b 33
        E 0 91 34 33
        E 16 b1 0b 55
        E 0 81 34 00
        E 0 91 51 55
        E 32 81 51 00
        E 0 91 30 55
        E 16 b1 0b 22
        E 16 81 30 00
        E 0 91 51 22
        E 32 81 51 00
        E 0 91 30 22
        E 16 81 30 00
        E 16 b1 0b 33
        E 0 91 34 33
        E 16 b1 0b 55
        E 0 81 34 00
        E 0 91 51 55
        E 32 81 51 00
        E 0 91 30 55
        E 16 b1 0b 22
        E 16 81 30 00
        E 0 91 51 22
        E 32 81 51 00
        E 0 91 30 22
        E 16 81 30 00
        E 16 b1 0b 33
        E 0 91 34 33
        E 16 b1 0b 55
        E 0 81 34 00
        E 0 91 51 55
        E 32 81 51 00
        E 0 91 30 55
        E 16 b1 0b 22
        E 16 81 30 00
        E 0 91 51 22
        E 32 81 51 00
        E 0 91 30 22
        E 16 81 30 00
        E 16 b1 0b 33
        E 0 91 34 33
        E 16 b1 0b 55
        E 0 81 34 00
        E 0 91 51 55
        E 32 81 51 00
        E 0 91 30 55
        E 16 b1 0b 22
        E 16 81 30 00
        E 0 91 51 22
        E 32 81 51 00
        E 0 91 30 22
        E 16 81 30 00
        E 16 b1 0b 33
        E 0 91 34 33
        E 16 b1 0b 55
        E 0 81 34 00
        E 0 91 51 55
        E 32 81 51 00
        E 0 91 30 55
        E 16 b1 0b 22
        E 16 b1 0c 40
        E 0 b1 0b 66
        E 0 81 30 00
        E 0 91 26 66
        E 16 b1 0b 44
        E 48 b1 0c 20
        E 0 b1 0b 33
        E 0 81 26 00
        E 0 91 34 33
        E 16 b1 0b 55
        E 0 81 34 00
        E 0 91 51 55
        E 32 81 51 00
        E 0 91 30 55
        E 16 b1 0c 40
        E 0 b1 0b 66
        E 0 81 30 00
        E 0 91 26 66
        E 16 b1 0b 44
        E 48 b1 0b 66
        E 16 b1 0b 44
        E 48 b1 0b 66
        E 16 b1 0b 44
        E 48 b1 0b 66
        E 16 b1 0b 44
        E 48 b1 0b 66
        E 16 b1 0b 44
        E 48 b1 0c 20
        E 0 b1 0b 33
        E 0 81 26 00
        E 0 91 2f 33
        E 48 b1 0b 08
        E 16 b1 0b 55
        E 0 81 2f 00
        E 0 91 51 55
        E 32 b1 0c 40
        E 0 b1 0b 66
        E 0 81 51 00
        E 0 91 26 66
        E 16 b1 0b 44
        E 48 b1 0b 66
        E 16 b1 0b 44
        E 48 b1 0b 66
        E 16 b1 0b 44
        E 48 b1 0b 66
        E 16 b1 0b 44
        E 48 b1 0b 66
        E 16 b1 0b 44
        E 48 b1 0b 66
        E 16 b1 0b 44
        E 48 b1 0c 20
        E 0 b1 0b 08
        E 0 81 26 00
        E 0 91 37 08
        E 16 b1 0b 55
        E 0 81 37 00
        E 0 91 51 55
        E 16 b1 0c 10
        E 0 b1 0b 7f
        E 0 81 51 00
        E 0 91 39 7f
        E 16 b1 0b 5d
        E 32 81 39 00
        E 0 91 27 5d
        E 48 b1 0b 7f
        E 0 81 27 00
        E 0 91 39 7f
        E 16 b1 0b 5d
        E 32 81 39 00
        E 0 91 27 5d
        E 48 b1 0c 40
        E 0 b1 0b 7f
        E 0 81 27 00
        E 0 91 51 7f
        E 32 81 51 00
        E 0 91 30 7f
        E 48 81 30 00
        E 0 91 27 7f
        E 32 b1 0b 55
        E 0 81 27 00
        E 0 91 51 55
        E 32 81 51 00
        E 0 91 30 55
        E 48 81 30 00
        E 0 91 27 55
        E 32 b1 0b 7f
        E 0 81 27 00
        E 0 91 3f 7f
        E 128 81 3f 00
        E 0 91 2e 7f
        E 16 81 2e 00
        E 16 91 2e 7f
        E 48 b1 0b 6e
        E 192 b1 0b 5d
        E 144 81 2e 00
        E 0 91 27 5d
        E 16 81 27 00
        E 0 91 39 5d
        E 16 81 39 00
        E 0 91 26 5d
        E 16 b1 0b 4c
        E 192 b1 0c 20
        E 0 b1 0b 33
        E 0 81 26 00
        E 0 91 3b 33
        E 96 b1 0b 55
        E 0 81 3b 00
        E 0 91 51 55
        E 32 81 51 00
        E 0 91 30 55
        E 16 b1 0b 22
        E 16 81 30 00
        E 0 91 51 22
        E 32 81 51 00
        E 0 91 30 22
        E 16 81 30 00
        E 16 b1 0b 33
        E 0 91 3b 33
        E 16 b1 0b 55
        E 0 81 3b 00
        E 0 91 51 55
        E 32 81 51 00
        E 0 91 30 55
        E 16 b1 0b 22
        E 16 81 30 00
        E 0 91 51 22
        E 32 81 51 00
        E 0 91 30 22
        E 16 81 30 00
        E 16 b1 0b 33
        E 0 91 3b 33
        E 16 b1 0b 55
        E 0 81 3b 00
        E 0 91 51 55
        E 32 81 51 00
        E 0 91 30 55
        E 16 b1 0b 22
        E 16 81 30 00
        E 0 91 51 22
        E 32 81 51 00
        E 0 91 30 22
        E 16 81 30 00
        E 16 b1 0b 33
        E 0 91 3b 33
        E 16 b1 0b 55
        E 0 81 3b 00
        E 0 91 51 55
        E 32 b1 0c 40
        E 0 b1 0b 66
        E 0 81 51 00
        E 0 91 26 66
        E 16 b1 0b 44
        E 48 b1 0c 20
        E 0 b1 0b 33
        E 0 81 26 00
        E 0 91 3b 33
        E 48 b1 0b 55
        E 0 81 3b 00
        E 0 91 51 55
        E 32 81 51 00
        E 0 91 30 55
        E 16 b1 0c 40
        E 0 b1 0b 66
        E 0 81 30 00
        E 0 91 26 66
        E 16 b1 0b 44
        E 48 b1 0c 20
        E 0 b1 0b 08
        E 0 81 26 00
        E 0 91 3b 08
        E 16 b1 0b 11
        E 16 b1 0b 55
        E 0 81 3b 00
        E 0 91 51 55
        E 32 b1 0c 40
        E 0 b1 0b 66
        E 0 81 51 00
        E 0 91 26 66
        E 16 b1 0b 44
        E 48 b1 0c 20
        E 0 b1 0b 19
        E 0 81 26 00
        E 0 91 3b 19
        E 32 b1 0b 11
        E 16 b1 0b 55
        E 0 81 3b 00
        E 0 91 51 55
        E 32 81 51 00
        E 0 91 30 55
        E 16 b1 0b 22
        E 16 81 30 00
        E 0 91 51 22
        E 32 81 51 00
        E 0 91 30 22
        E 16 81 30 00
        E 16 b1 0b 33
        E 0 91 37 33
        E 16 b1 0b 55
        E 0 81 37 00
        E 0 91 51 55
        E 32 81 51 00
        E 0 91 30 55
        E 16 b1 0b 22
        E 16 81 30 00
        E 0 91 51 22
        E 32 81 51 00
        E 0 91 30 22
        E 16 81 30 00
        E 16 b1 0b 11
        E 0 91 37 11
        E 16 b1 0b 19
        E 0 81 37 00
        E 0 91 36 19
        E 16 b1 0b 2a
        E 16 b1 0b 4c
        E 16 b1 0b 33
        E 96 b1 0b 55
        E 0 81 36 00
        E 0 91 51 55
        E 32 81 51 00
        E 0 91 30 55
        E 16 b1 0b 22
        E 16 81 30 00
        E 0 91 51 22
        E 32 81 51 00
        E 0 91 30 22
        E 16 81 30 00
        E 16 b1 0b 11
        E 0 91 36 11
        E 16 b1 0b 55
        E 0 81 36 00
        E 0 91 51 55
        E 32 81 51 00
        E 0 91 30 55
        E 16 b1 0b 22
        E 16 81 30 00
        E 0 91 51 22
        E 32 81 51 00
        E 0 91 30 22
        E 16 81 30 00
        E 16 b1 0b 11
        E 0 91 34 11
        E 16 b1 0b 55
        E 0 81 34 00
        E 0 91 51 55
        E 32 81 51 00
        E 0 91 30 55
        E 16 b1 0b 22
        E 16 81 30 00
        E 0 91 51 22
        E 32 81 51 00
        E 0 91 30 22
        E 16 81 30 00
        E 16 b1 0b 11
        E 0 91 34 11
        E 16 b1 0b 19
        E 128 b1 0b 11
        E 16 b1 0b 55
        E 0 81 34 00
        E 0 91 51 55
        E 32 81 51 00
        E 0 91 30 55
        E 16 b1 0b 22
        E 16 81 30 00
        E 0 91 51 22
        E 32 81 51 00
        E 0 91 30 22
        E 16 81 30 00
        E 16 b1 0b 11
        E 0 91 34 11
        E 16 b1 0b 55
        E 0 81 34 00
        E 0 91 51 55
        E 32 81 51 00
        E 0 91 30 55
        E 16 b1 0b 22
        E 16 81 30 00
        E 0 91 51 22
        E 32 81 51 00
        E 0 91 30 22
        E 16 81 30 00
        E 16 b1 0b 11
        E 0 91 34 11
        E 16 b1 0b 55
        E 0 81 34 00
        E 0 91 51 55
        E 32 81 51 00
        E 0 91 30 55
        E 16 b1 0b 22
        E 16 81 30 00
        E 0 91 51 22
        E 32 81 51 00
        E 0 91 30 22
        E 16 81 30 00
        E 16 b1 0b 11
        E 0 91 34 11
        E 16 b1 0b 19
        E 16 b1 0b 2a
        E 16 b1 0b 4c
        E 16 b1 0b 33
        E 64 b1 0b 08
        E 16 b1 0b 11
        E 16 b1 0b 55
        E 0 81 34 00
        E 0 91 51 55
        E 32 81 51 00
        E 0 91 30 55
        E 16 b1 0b 22
        E 16 81 30 00
        E 0 91 51 22
        E 32 81 51 00
        E 0 91 30 22
        E 16 81 30 00
        E 16 b1 0b 11
        E 0 91 34 11
        E 16 b1 0b 55
        E 0 81 34 00
        E 0 91 51 55
        E 32 81 51 00
        E 0 91 30 55
        E 16 b1 0b 22
        E 16 81 30 00
        E 0 91 51 22
        E 32 81 51 00
        E 0 91 30 22
        E 16 81 30 00
        E 16 b1 0b 11
        E 0 91 34 11
        E 16 b1 0b 55
        E 0 81 34 00
        E 0 91 51 55
        E 32 81 51 00
        E 0 91 30 55
        E 16 b1 0b 22
        E 16 81 30 00
        E 0 91 51 22
        E 32 81 51 00
        E 0 91 30 22
        E 16 81 30 00
        E 16 b1 0b 11
        E 0 91 34 11
        E 16 b1 0b 19
        E 16 b1 0b 2a
        E 16 b1 0b 4c
        E 16 b1 0b 33
        E 64 b1 0b 08
        E 16 b1 0b 11
        E 16 b1 0b 19
        E 128 b1 0b 11
        E 16 b1 0b 19
        E 0 81 34 00
        E 0 91 32 19
        E 16 b1 0b 2a
        E 16 b1 0b 4c
        E 16 b1 0b 33
        E 208 b1 0b 08
        E 16 b1 0b 11
        E 16 b1 0b 19
        E 0 81 32 00
        E 0 91 36 19
        E 16 b1 0b 2a
        E 16 b1 0b 4c
        E 16 b1 0b 33
        E 208 b1 0b 08
        E 16 b1 0b 11
        E 16 b1 0b 19
        E 0 81 36 00
        E 0 91 34 19
        E 16 b1 0b 2a
        E 16 b1 0b 4c
        E 16 b1 0b 33
        E 1072 b1 0b 08
        E 16 b1 0b 11
        E 16 b1 0b 19
        E 0 81 34 00
        E 0 91 32 19
        E 16 b1 0b 2a
        E 16 b1 0b 4c
        E 16 b1 0b 33
        E 208 b1 0b 08
        E 16 b1 0b 11
        E 16 b1 0b 19
        E 0 81 32 00
        E 0 91 34 19
        E 16 b1 0b 2a
        E 16 b1 0b 4c
        E 16 b1 0b 33
        E 208 b1 0b 08
        E 16 b1 0b 11
        E 16 b1 0b 19
        E 0 81 34 00
        E 0 91 36 19
        E 16 b1 0b 2a
        E 16 b1 0b 4c
        E 16 b1 0b 33
        E 208 b1 0b 08
        E 16 b1 0b 11
        E 16 b1 0b 19
        E 0 81 36 00
        E 0 91 39 19
        E 16 b1 0b 2a
        E 16 b1 0b 4c
        E 16 b1 0b 33
        E 64 b1 0b 08
        E 16 b1 0b 11
        E 16 b1 0c 40
        E 0 b1 0b 19
        E 0 81 39 00
        E 0 91 30 19
        E 16 b1 0b 2a
        E 16 b1 0b 4c
        E 16 b1 0b 33
        E 64 b1 0b 08
        E 16 b1 0b 11
        E 16 b1 0b 19
        E 16 b1 0b 2a
        E 16 b1 0b 4c
        E 16 b1 0b 33
        E 64 b1 0b 08
        E 16 b1 0b 11
        E 16 b1 0b 19
        E 0 81 30 00
        E 0 91 34 19
        E 16 b1 0b 2a
        E 16 b1 0b 4c
        E 16 b1 0b 33
        E 64 b1 0b 08
        E 16 b1 0b 11
        E 16 b1 0b 19
        E 0 81 34 00
        E 0 91 37 19
        E 16 b1 0b 2a
        E 16 b1 0b 4c
        E 16 b1 0b 33
        E 64 b1 0b 08
        E 16 b1 0b 11
        E 16 b1 0b 19
        E 0 81 37 00
        E 0 91 3c 19
        E 16 b1 0b 2a
        E 16 b1 0b 4c
        E 16 b1 0b 33
        E 64 b1 0b 08
        E 16 b1 0b 11
        E 16 b1 0b 19
        E 0 81 3c 00
        E 0 91 37 19
        E 16 b1 0b 2a
        E 16 b1 0b 4c
        E 16 b1 0b 33
        E 64 b1 0b 08
        E 16 b1 0b 11
        E 16 b1 0b 19
        E 0 81 37 00
        E 0 91 34 19
        E 16 b1 0b 2a
        E 16 b1 0b 4c
        E 16 b1 0b 33
        E 64 b1 0b 08
        E 16 b1 0b 11
        E 16 b1 0b 19
        E 0 81 34 00
        E 0 91 30 19
        E 16 b1 0b 2a
        E 16 b1 0b 4c
        E 16 b1 0b 33
        E 64 b1 0b 08
        E 16 b1 0b 11
        E 16 b1 0b 19
        E 0 81 30 00
        E 0 91 32 19
        E 16 b1 0b 2a
        E 16 b1 0b 4c
        E 16 b1 0b 33
        E 64 b1 0b 08
        E 16 b1 0b 11
        E 16 b1 0b 19
        E 16 b1 0b 2a
        E 16 b1 0b 4c
        E 16 b1 0b 33
        E 64 b1 0b 08
        E 16 b1 0b 11
        E 16 b1 0b 19
        E 0 81 32 00
        E 0 91 36 19
        E 16 b1 0b 2a
        E 16 b1 0b 4c
        E 16 b1 0b 33
        E 64 b1 0b 08
        E 16 b1 0b 11
        E 16 b1 0b 19
        E 0 81 36 00
        E 0 91 39 19
        E 16 b1 0b 2a
        E 16 b1 0b 4c
        E 16 b1 0b 33
        E 64 b1 0b 08
        E 16 b1 0b 11
        E 16 b1 0b 19
        E 0 81 39 00
        E 0 91 3e 19
        E 16 b1 0b 2a
        E 16 b1 0b 4c
        E 16 b1 0b 33
        E 64 b1 0b 08
        E 16 b1 0b 11
        E 16 b1 0b 19
        E 0 81 3e 00
        E 0 91 39 19
        E 16 b1 0b 2a
        E 16 b1 0b 4c
        E 16 b1 0b 33
        E 64 b1 0b 08
        E 16 b1 0b 11
        E 16 b1 0b 19
        E 0 81 39 00
        E 0 91 36 19
        E 16 b1 0b 2a
        E 16 b1 0b 4c
        E 16 b1 0b 33
        E 64 b1 0b 08
        E 16 b1 0b 11
        E 16 b1 0b 19
        E 0 81 36 00
        E 0 91 32 19
        E 16 b1 0b 2a
        E 16 b1 0b 4c
        E 16 b1 0b 33
        E 64 b1 0b 08
        E 16 b1 0b 11
        E 16 b1 0b 19
        E 0 81 32 00
        E 0 91 30 19
        E 16 b1 0b 2a
        E 16 b1 0b 4c
        E 16 b1 0b 33
        E 64 b1 0b 08
        E 16 b1 0b 11
        E 16 b1 0b 19
        E 16 b1 0b 2a
        E 16 b1 0b 4c
        E 16 b1 0b 33
        E 64 b1 0b 08
        E 16 b1 0b 11
        E 16 b1 0b 19
        E 0 81 30 00
        E 0 91 34 19
        E 16 b1 0b 2a
        E 16 b1 0b 4c
        E 16 b1 0b 33
        E 64 b1 0b 08
        E 16 b1 0b 11
        E 16 b1 0b 19
        E 0 81 34 00
        E 0 91 37 19
        E 16 b1 0b 2a
        E 16 b1 0b 4c
        E 16 b1 0b 33
        E 64 b1 0b 08
        E 16 b1 0b 11
        E 16 b1 0b 19
        E 0 81 37 00
        E 0 91 3c 19
        E 16 b1 0b 2a
        E 16 b1 0b 4c
        E 16 b1 0b 33
        E 64 b1 0b 08
        E 16 b1 0b 11
        E 16 b1 0b 19
        E 0 81 3c 00
        E 0 91 37 19
        E 16 b1 0b 2a
        E 16 b1 0b 4c
        E 16 b1 0b 33
        E 64 b1 0b 08
        E 16 b1 0b 11
        E 16 b1 0b 19
        E 0 81 37 00
        E 0 91 34 19
        E 16 b1 0b 2a
        E 16 b1 0b 4c
        E 16 b1 0b 33
        E 64 b1 0b 08
        E 16 b1 0b 11
        E 16 b1 0b 19
        E 0 81 34 00
        E 0 91 30 19
        E 16 b1 0b 2a
        E 16 b1 0b 4c
        E 16 b1 0b 33
        E 64 b1 0b 08
        E 16 b1 0b 11
        E 16 b1 0b 19
        E 0 81 30 00
        E 0 91 32 19
        E 16 b1 0b 2a
        E 16 b1 0b 4c
        E 16 b1 0b 33
        E 64 b1 0b 08
        E 16 b1 0b 11
        E 16 b1 0b 19
        E 16 b1 0b 2a
        E 16 b1 0b 4c
        E 16 b1 0b 33
        E 64 b1 0b 08
        E 16 b1 0b 11
        E 16 b1 0b 19
        E 0 81 32 00
        E 0 91 36 19
        E 16 b1 0b 2a
        E 16 b1 0b 4c
        E 16 b1 0b 33
        E 64 b1 0b 08
        E 16 b1 0b 11
        E 16 b1 0b 19
        E 0 81 36 00
        E 0 91 39 19
        E 16 b1 0b 2a
        E 16 b1 0b 4c
        E 16 b1 0b 33
        E 64 b1 0b 08
        E 16 b1 0b 11
        E 16 b1 0b 19
        E 0 81 39 00
        E 0 91 3e 19
        E 16 b1 0b 2a
        E 16 b1 0b 4c
        E 16 b1 0b 33
        E 64 b1 0b 08
        E 16 b1 0b 11
        E 16 b1 0b 19
        E 0 81 3e 00
        E 0 91 39 19
        E 16 b1 0b 2a
        E 16 b1 0b 4c
        E 16 b1 0b 33
        E 64 b1 0b 08
        E 16 b1 0b 11
        E 16 b1 0b 19
        E 0 81 39 00
        E 0 91 36 19
        E 16 b1 0b 2a
        E 16 b1 0b 4c
        E 16 b1 0b 33
        E 64 b1 0b 08
        E 16 b1 0b 11
        E 16 b1 0b 19
        E 0 81 36 00
        E 0 91 32 19
        E 16 b1 0b 2a
        E 16 b1 0b 4c
        E 16 b1 0b 33
        E 64 b1 0b 08
        E 16 b1 0b 11
        E 16 b1 0b 19
        E 0 81 32 00
        E 0 91 30 19
        E 16 b1 0b 2a
        E 16 b1 0b 4c
        E 16 b1 0b 33
        E 48 b1 0b 55
        E 0 81 30 00
        E 0 91 51 55
        E 32 81 51 00
        E 0 91 30 55
        E 48 b1 0b 33
        E 0 81 30 00
        E 0 91 54 33
        E 96 b1 0b 2a
        E 192 b1 0b 22
        E 192 b1 0b 19
        E 192 b1 0b 11
        E 192 b1 0b 08
        E 192 b1 0b 33
        E 0 81 54 00
        E 0 91 32 33
        E 32 b1 0b 08
        E 16 b1 0b 11
        E 16 b1 0b 19
        E 16 b1 0b 2a
        E 16 b1 0b 4c
        E 16 b1 0b 33
        E 64 b1 0b 08
        E 16 b1 0b 11
        E 16 b1 0b 19
        E 0 81 32 00
        E 0 91 36 19
        E 16 b1 0b 2a
        E 16 b1 0b 4c
        E 16 b1 0b 33
        E 64 b1 0b 08
        E 16 b1 0b 11
        E 16 b1 0b 19
        E 0 81 36 00
        E 0 91 39 19
        E 16 b1 0b 2a
        E 16 b1 0b 4c
        E 16 b1 0b 33
        E 64 b1 0b 08
        E 16 b1 0b 11
        E 16 b1 0b 19
        E 0 81 39 00
        E 0 91 3e 19
        E 16 b1 0b 2a
        E 16 b1 0b 4c
        E 16 b1 0b 33
        E 64 b1 0b 08
        E 16 b1 0b 11
        E 16 b1 0b 19
        E 0 81 3e 00
        E 0 91 39 19
        E 16 b1 0b 2a
        E 16 b1 0b 4c
        E 16 b1 0b 33
        E 64 b1 0b 08
        E 16 b1 0b 11
        E 16 b1 0b 19
        E 0 81 39 00
        E 0 91 36 19
        E 16 b1 0b 2a
        E 16 b1 0b 4c
        E 16 b1 0b 33
        E 64 b1 0b 08
        E 16 b1 0b 11
        E 16 b1 0b 19
        E 0 81 36 00
        E 0 91 32 19
        E 16 b1 0b 2a
        E 16 b1 0b 4c
        E 16 b1 0b 33
        E 64 b1 0b 08
        E 16 b1 0b 11
        E 16 b1 0b 19
        E 0 81 32 00
        E 0 91 30 19
        E 16 b1 0b 2a
        E 16 b1 0b 4c
        E 16 b1 0b 33
        E 64 b1 0b 08
        E 16 b1 0b 11
        E 16 b1 0b 19
        E 16 b1 0b 2a
        E 16 b1 0b 4c
        E 16 b1 0b 33
        E 64 b1 0b 08
        E 16 b1 0b 11
        E 16 b1 0b 19
        E 0 81 30 00
        E 0 91 34 19
        E 16 b1 0b 2a
        E 16 b1 0b 4c
        E 16 b1 0b 33
        E 64 b1 0b 08
        E 16 b1 0b 11
        E 16 b1 0b 19
        E 0 81 34 00
        E 0 91 37 19
        E 16 b1 0b 2a
        E 16 b1 0b 4c
        E 16 b1 0b 33
        E 64 b1 0b 08
        E 16 b1 0b 11
        E 16 b1 0b 19
        E 0 81 37 00
        E 0 91 3c 19
        E 16 b1 0b 2a
        E 16 b1 0b 4c
        E 16 b1 0b 33
        E 64 b1 0b 08
        E 16 b1 0b 11
        E 16 b1 0b 19
        E 0 81 3c 00
        E 0 91 37 19
        E 16 b1 0b 2a
        E 16 b1 0b 4c
        E 16 b1 0b 33
        E 64 b1 0b 08
        E 16 b1 0b 11
        E 16 b1 0b 19
        E 0 81 37 00
        E 0 91 34 19
        E 16 b1 0b 2a
        E 16 b1 0b 4c
        E 16 b1 0b 33
        E 64 b1 0b 08
        E 16 b1 0b 11
        E 16 b1 0b 19
        E 0 81 34 00
        E 0 91 30 19
        E 16 b1 0b 2a
        E 16 b1 0b 4c
        E 16 b1 0b 33
        E 64 b1 0b 08
        E 16 b1 0b 11
        E 16 b1 0b 19
        E 0 81 30 00
        E 0 91 32 19
        E 16 b1 0b 2a
        E 16 b1 0b 4c
        E 16 b1 0b 33
        E 64 b1 0b 08
        E 16 b1 0b 11
        E 16 b1 0b 19
        E 16 b1 0b 2a
        E 16 b1 0b 4c
        E 16 b1 0b 33
        E 64 b1 0b 08
        E 16 b1 0b 11
        E 16 b1 0b 19
        E 0 81 32 00
        E 0 91 36 19
        E 16 b1 0b 2a
        E 16 b1 0b 4c
        E 16 b1 0b 33
        E 64 b1 0b 08
        E 16 b1 0b 11
        E 16 b1 0b 19
        E 0 81 36 00
        E 0 91 39 19
        E 16 b1 0b 2a
        E 16 b1 0b 4c
        E 16 b1 0b 33
        E 64 b1 0b 08
        E 16 b1 0b 11
        E 16 b1 0b 19
        E 0 81 39 00
        E 0 91 3e 19
        E 16 b1 0b 2a
        E 16 b1 0b 4c
        E 16 b1 0b 33
        E 64 b1 0b 08
        E 16 b1 0b 11
        E 16 b1 0b 19
        E 0 81 3e 00
        E 0 91 39 19
        E 16 b1 0b 2a
        E 16 b1 0b 4c
        E 16 b1 0b 33
        E 64 b1 0b 08
        E 16 b1 0b 11
        E 16 b1 0b 19
        E 0 81 39 00
        E 0 91 36 19
        E 16 b1 0b 2a
        E 16 b1 0b 4c
        E 16 b1 0b 33
        E 64 b1 0b 08
        E 16 b1 0b 11
        E 16 b1 0b 19
        E 0 81 36 00
        E 0 91 32 19
        E 16 b1 0b 2a
        E 16 b1 0b 4c
        E 16 b1 0b 33
        E 64 b1 0b 08
        E 16 b1 0b 11
        E 16 b1 0b 19
        E 0 81 32 00
        E 0 91 30 19
        E 16 b1 0b 2a
        E 16 b1 0b 4c
        E 16 b1 0b 33
        E 64 b1 0c 20
        E 0 b1 0b 55
        E 0 81 30 00
        E 0 91 51 55
        E 32 81 51 00
        E 0 91 30 55
        E 16 b1 0b 22
        E 16 81 30 00
        E 0 91 51 22
        E 32 81 51 00
        E 0 91 30 22
        E 16 81 30 00
        E 16 b1 0c 40
        E 0 b1 0b 33
        E 0 91 30 33
        E 16 b1 0c 20
        E 0 b1 0b 55
        E 0 81 30 00
        E 0 91 51 55
        E 32 81 51 00
        E 0 91 30 55
        E 16 b1 0b 22
        E 16 81 30 00
        E 0 91 51 22
        E 32 81 51 00
        E 0 91 30 22
        E 16 81 30 00
        E 16 b1 0c 40
        E 0 b1 0b 33
        E 0 91 34 33
        E 16 b1 0b 66
        E 0 81 34 00
        E 0 91 26 66
        E 16 b1 0b 44
        E 48 b1 0b 4c
        E 0 81 26 00
        E 0 91 37 4c
        E 16 b1 0b 33
        E 64 b1 0c 20
        E 0 b1 0b 55
        E 0 81 37 00
        E 0 91 51 55
        E 32 81 51 00
        E 0 91 30 55
        E 16 b1 0b 22
        E 16 81 30 00
        E 0 91 51 22
        E 32 81 51 00
        E 0 91 30 22
        E 16 81 30 00
        E 16 b1 0c 40
        E 0 b1 0b 33
        E 0 91 3c 33
        E 16 b1 0b 66
        E 0 81 3c 00
        E 0 91 26 66
        E 16 b1 0b 44
        E 48 b1 0b 4c
        E 0 81 26 00
        E 0 91 37 4c
        E 16 b1 0b 33
        E 48 b1 0b 66
        E 0 81 37 00
        E 0 91 26 66
        E 16 b1 0b 44
        E 48 b1 0b 2a
        E 0 81 26 00
        E 0 91 34 2a
        E 16 b1 0b 4c
        E 16 b1 0b 33
        E 32 b1 0b 66
        E 0 81 34 00
        E 0 91 26 66
        E 16 b1 0b 44
        E 48 b1 0b 19
        E 0 81 26 00
        E 0 91 30 19
        E 16 b1 0b 2a
        E 16 b1 0b 4c
        E 16 b1 0b 33
        E 48 b1 0b 66
        E 0 81 30 00
        E 0 91 26 66
        E 16 b1 0b 44
        E 48 b1 0b 2a
        E 0 81 26 00
        E 0 91 32 2a
        E 16 b1 0b 4c
        E 16 b1 0b 33
        E 32 b1 0b 66
        E 0 81 32 00
        E 0 91 26 66
        E 16 b1 0b 44
        E 48 b1 0b 19
        E 0 81 26 00
        E 0 91 32 19
        E 16 b1 0b 2a
        E 16 b1 0b 4c
        E 16 b1 0b 33
        E 16 b1 0b 66
        E 0 81 32 00
        E 0 91 26 66
        E 16 b1 0b 44
        E 48 b1 0b 11
        E 0 81 26 00
        E 0 91 32 11
        E 16 b1 0b 19
        E 0 81 32 00
        E 0 91 36 19
        E 16 b1 0b 2a
        E 16 b1 0b 4c
        E 16 b1 0b 33
        E 32 b1 0b 66
        E 0 81 36 00
        E 0 91 26 66
        E 16 b1 0b 44
        E 48 b1 0b 19
        E 0 81 26 00
        E 0 91 39 19
        E 16 b1 0b 2a
        E 16 b1 0b 4c
        E 16 b1 0b 33
        E 16 b1 0b 66
        E 0 81 39 00
        E 0 91 26 66
        E 16 b1 0b 44
        E 48 b1 0b 11
        E 0 81 26 00
        E 0 91 39 11
        E 16 b1 0b 19
        E 0 81 39 00
        E 0 91 3e 19
        E 16 b1 0b 2a
        E 16 b1 0b 4c
        E 16 b1 0b 66
        E 0 81 3e 00
        E 0 91 26 66
        E 16 b1 0b 44
        E 48 b1 0b 08
        E 0 81 26 00
        E 0 91 3e 08
        E 16 b1 0b 11
        E 16 b1 0b 19
        E 0 81 3e 00
        E 0 91 39 19
        E 16 b1 0b 2a
        E 16 b1 0b 4c
        E 16 b1 0b 33
        E 16 b1 0b 66
        E 0 81 39 00
        E 0 91 26 66
        E 16 b1 0b 44
        E 48 b1 0b 11
        E 0 81 26 00
        E 0 91 39 11
        E 16 b1 0b 19
        E 0 81 39 00
        E 0 91 36 19
        E 16 b1 0b 2a
        E 16 b1 0b 4c
        E 16 b1 0b 33
        E 32 b1 0b 66
        E 0 81 36 00
        E 0 91 26 66
        E 16 b1 0b 44
        E 48 b1 0b 19
        E 0 81 26 00
        E 0 91 32 19
        E 16 b1 0b 2a
        E 16 b1 0b 4c
        E 16 b1 0b 33
        E 48 b1 0b 66
        E 0 81 32 00
        E 0 91 26 66
        E 16 b1 0b 44
        E 48 b1 0b 2a
        E 0 81 26 00
        E 0 91 30 2a
        E 16 b1 0b 4c
        E 16 b1 0b 33
        E 64 b1 0b 66
        E 0 81 30 00
        E 0 91 26 66
        E 16 b1 0b 44
        E 48 b1 0b 4c
        E 0 81 26 00
        E 0 91 30 4c
        E 16 b1 0b 33
        E 48 b1 0b 66
        E 0 81 30 00
        E 0 91 26 66
        E 16 b1 0b 44
        E 48 b1 0b 2a
        E 0 81 26 00
        E 0 91 34 2a
        E 16 b1 0b 4c
        E 16 b1 0b 33
        E 32 b1 0b 66
        E 0 81 34 00
        E 0 91 26 66
        E 16 b1 0b 44
        E 48 b1 0b 19
        E 0 81 26 00
        E 0 91 37 19
        E 16 b1 0b 2a
        E 16 b1 0b 4c
        E 16 b1 0b 33
        E 64 b1 0c 20
        E 0 b1 0b 55
        E 0 81 37 00
        E 0 91 51 55
        E 16 b1 0c 40
        E 0 b1 0b 66
        E 0 81 51 00
        E 0 91 26 66
        E 16 b1 0b 7f
        E 64 81 26 00
        E 0 91 1d 7f
        E 16 b1 0b 55
        E 0 81 1d 00
        E 0 91 26 55
        E 64 81 26 00
        E 0 91 1d 55
        E 16 b1 0b 7f
        E 0 81 1d 00
        E 0 91 25 7f
        E 48 b1 0b 66
        E 0 81 25 00
        E 0 91 26 66
        E 16 b1 0b 44
        E 48 b1 0b 11
        E 0 81 26 00
        E 0 91 37 11
        E 16 b1 0b 19
        E 0 81 37 00
        E 0 91 34 19
        E 16 b1 0b 2a
        E 16 b1 0b 4c
        E 16 b1 0b 33
        E 64 b1 0c 20
        E 0 b1 0b 55
        E 0 81 34 00
        E 0 91 51 55
        E 32 81 51 00
        E 0 91 30 55
        E 16 b1 0b 22
        E 16 81 30 00
        E 0 91 51 22
        E 32 81 51 00
        E 0 91 30 22
        E 16 81 30 00
        E 16 b1 0c 40
        E 0 b1 0b 33
        E 0 91 30 33
        E 16 b1 0c 20
        E 0 b1 0b 55
        E 0 81 30 00
        E 0 91 51 55
        E 32 81 51 00
        E 0 91 30 55
        E 16 b1 0b 22
        E 16 81 30 00
        E 0 91 51 22
        E 32 81 51 00
        E 0 91 30 22
        E 16 81 30 00
        E 16 b1 0c 40
        E 0 b1 0b 33
        E 0 91 32 33
        E 16 b1 0c 20
        E 0 b1 0b 55
        E 0 81 32 00
        E 0 91 51 55
        E 32 81 51 00
        E 0 91 30 55
        E 16 b1 0b 22
        E 16 81 30 00
        E 0 91 51 22
        E 32 81 51 00
        E 0 91 30 22
        E 16 81 30 00
        E 16 b1 0c 40
        E 0 b1 0b 33
        E 0 91 32 33
        E 16 b1 0c 20
        E 0 b1 0b 55
        E 0 81 32 00
        E 0 91 51 55
        E 32 81 51 00
        E 0 91 30 55
        E 16 b1 0b 22
        E 16 81 30 00
        E 0 91 51 22
        E 32 81 51 00
        E 0 91 30 22
        E 16 81 30 00
        E 16 b1 0c 40
        E 0 b1 0b 33
        E 0 91 36 33
        E 16 b1 0c 20
        E 0 b1 0b 55
        E 0 81 36 00
        E 0 91 51 55
        E 32 81 51 00
        E 0 91 30 55
        E 16 b1 0b 22
        E 16 81 30 00
        E 0 91 51 22
        E 32 81 51 00
        E 0 91 30 22
        E 16 81 30 00
        E 16 b1 0c 40
        E 0 b1 0b 33
        E 0 91 39 33
        E 16 b1 0c 20
        E 0 b1 0b 55
        E 0 81 39 00
        E 0 91 51 55
        E 32 81 51 00
        E 0 91 30 55
        E 16 b1 0b 22
        E 16 81 30 00
        E 0 91 51 22
        E 32 81 51 00
        E 0 91 30 22
        E 16 81 30 00
        E 16 b1 0c 40
        E 0 b1 0b 33
        E 0 91 3e 33
        E 16 b1 0c 20
        E 0 b1 0b 55
        E 0 81 3e 00
        E 0 91 51 55
        E 32 81 51 00
        E 0 91 30 55
        E 16 b1 0b 22
        E 16 81 30 00
        E 0 91 51 22
        E 32 81 51 00
        E 0 91 30 22
        E 16 81 30 00
        E 16 b1 0c 40
        E 0 b1 0b 33
        E 0 91 39 33
        E 16 b1 0c 20
        E 0 b1 0b 55
        E 0 81 39 00
        E 0 91 51 55
        E 32 81 51 00
        E 0 91 30 55
        E 16 b1 0b 22
        E 16 81 30 00
        E 0 91 51 22
        E 32 81 51 00
        E 0 91 30 22
        E 16 81 30 00
        E 16 b1 0c 40
        E 0 b1 0b 33
        E 0 91 36 33
        E 16 b1 0c 20
        E 0 b1 0b 55
        E 0 81 36 00
        E 0 91 51 55
        E 32 81 51 00
        E 0 91 30 55
        E 16 b1 0b 22
        E 16 81 30 00
        E 0 91 51 22
        E 32 81 51 00
        E 0 91 30 22
        E 16 81 30 00
        E 16 b1 0c 40
        E 0 b1 0b 33
        E 0 91 32 33
        E 16 b1 0c 20
        E 0 b1 0b 55
        E 0 81 32 00
        E 0 91 51 55
        E 32 81 51 00
        E 0 91 30 55
        E 16 b1 0b 22
        E 16 81 30 00
        E 0 91 51 22
        E 32 81 51 00
        E 0 91 30 22
        E 16 81 30 00
        E 16 b1 0c 40
        E 0 b1 0b 33
        E 0 91 30 33
        E 16 b1 0c 20
        E 0 b1 0b 55
        E 0 81 30 00
        E 0 91 51 55
        E 32 81 51 00
        E 0 91 30 55
        E 16 b1 0b 22
        E 16 81 30 00
        E 0 91 51 22
        E 32 81 51 00
        E 0 91 30 22
        E 16 81 30 00
        E 16 b1 0c 40
        E 0 b1 0b 33
        E 0 91 30 33
        E 16 b1 0c 20
        E 0 b1 0b 55
        E 0 81 30 00
        E 0 91 51 55
        E 32 81 51 00
        E 0 91 30 55
        E 16 b1 0b 22
        E 16 81 30 00
        E 0 91 51 22
        E 32 81 51 00
        E 0 91 30 22
        E 16 81 30 00
        E 16 b1 0c 40
        E 0 b1 0b 33
        E 0 91 34 33
        E 16 b1 0c 20
        E 0 b1 0b 55
        E 0 81 34 00
        E 0 91 51 55
        E 32 81 51 00
        E 0 91 30 55
        E 16 b1 0b 22
        E 16 81 30 00
        E 0 91 51 22
        E 32 81 51 00
        E 0 91 30 22
        E 16 81 30 00
        E 16 b1 0c 40
        E 0 b1 0b 33
        E 0 91 37 33
        E 16 b1 0c 20
        E 0 b1 0b 55
        E 0 81 37 00
        E 0 91 51 55
        E 32 81 51 00
        E 0 91 30 55
        E 16 b1 0b 22
        E 16 81 30 00
        E 0 91 51 22
        E 32 81 51 00
        E 0 91 30 22
        E 16 81 30 00
        E 16 b1 0c 40
        E 0 b1 0b 33
        E 0 91 3c 33
        E 16 b1 0c 20
        E 0 b1 0b 55
        E 0 81 3c 00
        E 0 91 51 55
        E 32 81 51 00
        E 0 91 30 55
        E 16 b1 0b 22
        E 16 81 30 00
        E 0 91 51 22
        E 32 81 51 00
        E 0 91 30 22
        E 16 81 30 00
        E 16 b1 0c 40
        E 0 b1 0b 33
        E 0 91 37 33
        E 16 b1 0c 20
        E 0 b1 0b 55
        E 0 81 37 00
        E 0 91 51 55
        E 32 81 51 00
        E 0 91 30 55
        E 16 b1 0b 22
        E 16 81 30 00
        E 0 91 51 22
        E 32 81 51 00
        E 0 91 30 22
        E 16 81 30 00
        E 16 b1 0c 40
        E 0 b1 0b 33
        E 0 91 34 33
        E 16 b1 0c 20
        E 0 b1 0b 55
        E 0 81 34 00
        E 0 91 51 55
        E 32 81 51 00
        E 0 91 30 55
        E 16 b1 0b 22
        E 16 81 30 00
        E 0 91 51 22
        E 32 81 51 00
        E 0 91 30 22
        E 16 81 30 00
        E 16 b1 0c 40
        E 0 b1 0b 33
        E 0 91 30 33
        E 16 b1 0c 20
        E 0 b1 0b 55
        E 0 81 30 00
        E 0 91 51 55
        E 32 81 51 00
        E 0 91 30 55
        E 16 b1 0b 22
        E 16 81 30 00
        E 0 91 51 22
        E 32 81 51 00
        E 0 91 30 22
        E 16 81 30 00
        E 16 b1 0c 40
        E 0 b1 0b 33
        E 0 91 32 33
        E 16 b1 0c 20
        E 0 b1 0b 55
        E 0 81 32 00
        E 0 91 51 55
        E 32 81 51 00
        E 0 91 30 55
        E 16 b1 0b 22
        E 16 81 30 00
        E 0 91 51 22
        E 32 81 51 00
        E 0 91 30 22
        E 16 81 30 00
        E 16 b1 0c 40
        E 0 b1 0b 33
        E 0 91 32 33
        E 16 b1 0c 20
        E 0 b1 0b 55
        E 0 81 32 00
        E 0 91 51 55
        E 32 81 51 00
        E 0 91 30 55
        E 16 b1 0b 22
        E 16 81 30 00
        E 0 91 51 22
        E 32 81 51 00
        E 0 91 30 22
        E 16 81 30 00
        E 16 b1 0c 40
        E 0 b1 0b 33
        E 0 91 36 33
        E 16 b1 0c 20
        E 0 b1 0b 55
        E 0 81 36 00
        E 0 91 51 55
        E 32 81 51 00
        E 0 91 30 55
        E 16 b1 0b 22
        E 16 81 30 00
        E 0 91 51 22
        E 32 81 51 00
        E 0 91 30 22
        E 16 81 30 00
        E 16 b1 0c 40
        E 0 b1 0b 33
        E 0 91 39 33
        E 16 b1 0c 20
        E 0 b1 0b 55
        E 0 81 39 00
        E 0 91 51 55
        E 32 81 51 00
        E 0 91 30 55
        E 16 b1 0b 22
        E 16 81 30 00
        E 0 91 51 22
        E 32 81 51 00
        E 0 91 30 22
        E 16 81 30 00
        E 16 b1 0c 40
        E 0 b1 0b 33
        E 0 91 3e 33
        E 16 b1 0c 20
        E 0 b1 0b 55
        E 0 81 3e 00
        E 0 91 51 55
        E 32 81 51 00
        E 0 91 30 55
        E 16 b1 0b 22
        E 16 81 30 00
        E 0 91 51 22
        E 32 81 51 00
        E 0 91 30 22
        E 16 81 30 00
        E 16 b1 0c 40
        E 0 b1 0b 33
        E 0 91 39 33
        E 16 b1 0c 20
        E 0 b1 0b 55
        E 0 81 39 00
        E 0 91 51 55
        E 32 81 51 00
        E 0 91 30 55
        E 16 b1 0b 22
        E 16 81 30 00
        E 0 91 51 22
        E 32 81 51 00
        E 0 91 30 22
        E 16 81 30 00
        E 16 b1 0c 40
        E 0 b1 0b 33
        E 0 91 36 33
        E 16 b1 0c 20
        E 0 b1 0b 55
        E 0 81 36 00
        E 0 91 51 55
        E 32 81 51 00
        E 0 91 30 55
        E 16 b1 0b 22
        E 16 81 30 00
        E 0 91 51 22
        E 32 81 51 00
        E 0 91 30 22
        E 16 81 30 00
        E 16 b1 0c 40
        E 0 b1 0b 33
        E 0 91 32 33
        E 16 b1 0c 20
        E 0 b1 0b 55
        E 0 81 32 00
        E 0 91 51 55
        E 32 81 51 00
        E 0 91 30 55
        E 16 b1 0b 22
        E 16 81 30 00
        E 0 91 51 22
        E 32 81 51 00
        E 0 91 30 22
        E 16 81 30 00
        E 16 b1 0c 40
        E 0 b1 0b 33
        E 0 91 34 33
        E 16 b1 0c 20
        E 0 b1 0b 55
        E 0 81 34 00
        E 0 91 51 55
        E 32 81 51 00
        E 0 91 30 55
        E 16 b1 0b 22
        E 16 81 30 00
        E 0 91 51 22
        E 32 81 51 00
        E 0 91 30 22
        E 16 81 30 00
        E 16 b1 0c 40
        E 0 b1 0b 33
        E 0 91 34 33
        E 16 b1 0c 20
        E 0 b1 0b 55
        E 0 81 34 00
        E 0 91 51 55
        E 32 81 51 00
        E 0 91 30 55
        E 16 b1 0b 22
        E 16 81 30 00
        E 0 91 51 22
        E 32 81 51 00
        E 0 91 30 22
        E 16 81 30 00
        E 16 b1 0c 40
        E 0 b1 0b 33
        E 0 91 38 33
        E 16 b1 0c 20
        E 0 b1 0b 55
        E 0 81 38 00
        E 0 91 51 55
        E 32 81 51 00
        E 0 91 30 55
        E 16 b1 0b 22
        E 16 81 30 00
        E 0 91 51 22
        E 32 81 51 00
        E 0 91 30 22
        E 16 81 30 00
        E 16 b1 0c 40
        E 0 b1 0b 33
        E 0 91 3b 33
        E 16 b1 0c 20
        E 0 b1 0b 55
        E 0 81 3b 00
        E 0 91 51 55
        E 32 81 51 00
        E 0 91 30 55
        E 16 b1 0b 22
        E 16 81 30 00
        E 0 91 51 22
        E 32 81 51 00
        E 0 91 30 22
        E 16 81 30 00
        E 16 b1 0c 40
        E 0 b1 0b 33
        E 0 91 40 33
        E 16 b1 0c 20
        E 0 b1 0b 55
        E 0 81 40 00
        E 0 91 51 55
        E 32 81 51 00
        E 0 91 30 55
        E 16 b1 0b 22
        E 16 81 30 00
        E 0 91 51 22
        E 32 81 51 00
        E 0 91 30 22
        E 16 81 30 00
        E 16 b1 0c 40
        E 0 b1 0b 33
        E 0 91 3b 33
        E 16 b1 0c 20
        E 0 b1 0b 55
        E 0 81 3b 00
        E 0 91 51 55
        E 32 81 51 00
        E 0 91 30 55
        E 16 b1 0b 22
        E 16 81 30 00
        E 0 91 51 22
        E 32 81 51 00
        E 0 91 30 22
        E 16 81 30 00
        E 16 b1 0c 40
        E 0 b1 0b 33
        E 0 91 38 33
        E 16 b1 0c 20
        E 0 b1 0b 55
        E 0 81 38 00
        E 0 91 51 55
        E 32 81 51 00
        E 0 91 30 55
        E 16 b1 0b 22
        E 16 81 30 00
        E 0 91 51 22
        E 32 81 51 00
        E 0 91 30 22
        E 16 81 30 00
        E 16 b1 0c 40
        E 0 b1 0b 33
        E 0 91 34 33
        E 16 b1 0c 20
        E 0 b1 0b 55
        E 0 81 34 00
        E 0 91 51 55
        E 32 81 51 00
        E 0 91 30 55
        E 16 b1 0b 22
        E 16 81 30 00
        E 0 91 51 22
        E 32 81 51 00
        E 0 91 30 22
        E 16 81 30 00
        E 16 b1 0c 40
        E 0 b1 0b 33
        E 0 91 2f 33
        E 16 b1 0c 20
        E 0 b1 0b 55
        E 0 81 2f 00
        E 0 91 51 55
        E 32 81 51 00
        E 0 91 30 55
        E 16 b1 0b 22
        E 16 81 30 00
        E 0 91 51 22
        E 32 81 51 00
        E 0 91 30 22
        E 16 81 30 00
        E 16 b1 0c 40
        E 0 b1 0b 33
        E 0 91 2f 33
        E 16 b1 0c 20
        E 0 b1 0b 55
        E 0 81 2f 00
        E 0 91 51 55
        E 32 81 51 00
        E 0 91 30 55
        E 16 b1 0b 22
        E 16 81 30 00
        E 0 91 51 22
        E 32 81 51 00
        E 0 91 30 22
        E 16 81 30 00
        E 16 b1 0c 40
        E 0 b1 0b 33
        E 0 91 33 33
        E 16 b1 0c 20
        E 0 b1 0b 55
        E 0 81 33 00
        E 0 91 51 55
        E 32 81 51 00
        E 0 91 30 55
        E 16 b1 0b 22
        E 16 81 30 00
        E 0 91 51 22
        E 32 81 51 00
        E 0 91 30 22
        E 16 81 30 00
        E 16 b1 0c 40
        E 0 b1 0b 33
        E 0 91 36 33
        E 16 b1 0c 20
        E 0 b1 0b 55
        E 0 81 36 00
        E 0 91 51 55
        E 32 81 51 00
        E 0 91 30 55
        E 16 b1 0b 22
        E 16 81 30 00
        E 0 91 51 22
        E 32 81 51 00
        E 0 91 30 22
        E 16 81 30 00
        E 16 b1 0c 40
        E 0 b1 0b 33
        E 0 91 3b 33
        E 16 b1 0c 20
        E 0 b1 0b 55
        E 0 81 3b 00
        E 0 91 51 55
        E 32 81 51 00
        E 0 91 30 55
        E 16 b1 0b 22
        E 16 81 30 00
        E 0 91 51 22
        E 32 b1 0c 40
        E 0 b1 0b 7f
        E 0 81 51 00
        E 0 91 26 7f
        E 64 81 26 00
        E 0 91 1d 7f
        E 16 b1 0b 55
        E 0 81 1d 00
        E 0 91 26 55
        E 16 b1 0b 66
        E 16 b1 0b 44
        E 48 b1 0b 33
        E 0 81 26 00
        E 0 91 33 33
        E 32 b1 0c 20
        E 0 b1 0b 55
        E 0 81 33 00
        E 0 91 51 55
        E 32 81 51 00
        E 0 91 30 55
        E 16 b1 0b 22
        E 16 b1 0c 40
        E 0 b1 0b 7f
        E 0 81 30 00
        E 0 91 26 7f
        E 64 81 26 00
        E 0 91 1d 7f
        E 16 b1 0b 55
        E 0 81 1d 00
        E 0 91 26 55
        E 64 81 26 00
        E 0 91 1d 55
        E 16 b1 0b 7f
        E 0 81 1d 00
        E 0 91 25 7f
        E 80 b1 0b 55
        E 48 81 25 00
        E 0 91 2b 55
        E 16 b1 0b 2a
        E 0 81 2b 00
        E 0 91 21 2a
        E 48 81 21 00
        E 0 91 2d 2a
        E 16 b1 0c 20
        E 0 b1 0b 19
        E 0 81 2d 00
        E 0 91 34 19
        E 16 b1 0b 11
        E 16 b1 0b 66
        E 16 b1 0b 4c
        E 16 b1 0b 33
        E 16 b1 0b 2a
        E 32 b1 0b 33
        E 32 b1 0b 55
        E 0 81 34 00
        E 0 91 51 55
        E 32 81 51 00
        E 0 91 30 55
        E 16 b1 0b 22
        E 16 b1 0c 40
        E 0 b1 0b 66
        E 0 81 30 00
        E 0 91 26 66
        E 16 b1 0b 44
        E 48 b1 0c 20
        E 0 b1 0b 33
        E 0 81 26 00
        E 0 91 34 33
        E 16 b1 0b 55
        E 0 81 34 00
        E 0 91 51 55
        E 32 81 51 00
        E 0 91 30 55
        E 16 b1 0b 22
        E 16 81 30 00
        E 0 91 51 22
        E 32 81 51 00
        E 0 91 30 22
        E 16 81 30 00
        E 16 b1 0b 19
        E 0 91 34 19
        E 16 b1 0b 55
        E 0 81 34 00
        E 0 91 51 55
        E 32 81 51 00
        E 0 91 30 55
        E 16 b1 0b 22
        E 16 b1 0c 40
        E 0 b1 0b 66
        E 0 81 30 00
        E 0 91 26 66
        E 16 b1 0b 44
        E 48 b1 0c 20
        E 0 b1 0b 33
        E 0 81 26 00
        E 0 91 34 33
        E 16 b1 0b 55
        E 0 81 34 00
        E 0 91 51 55
        E 16 b1 0c 40
        E 0 b1 0b 66
        E 0 81 51 00
        E 0 91 26 66
        E 16 b1 0b 44
        E 48 b1 0c 20
        E 0 b1 0b 19
        E 0 81 26 00
        E 0 91 34 19
        E 64 b1 0b 55
        E 0 81 34 00
        E 0 91 51 55
        E 32 b1 0c 40
        E 0 b1 0b 66
        E 0 81 51 00
        E 0 91 26 66
        E 16 b1 0b 44
        E 48 b1 0c 20
        E 0 b1 0b 2a
        E 0 81 26 00
        E 0 91 34 2a
        E 16 b1 0b 33
        E 32 b1 0b 55
        E 0 81 34 00
        E 0 91 51 55
        E 16 b1 0c 40
        E 0 b1 0b 66
        E 0 81 51 00
        E 0 91 26 66
        E 16 b1 0b 44
        E 48 b1 0c 20
        E 0 b1 0b 19
        E 0 81 26 00
        E 0 91 34 19
        E 64 b1 0c 40
        E 0 b1 0b 66
        E 0 81 34 00
        E 0 91 26 66
        E 16 b1 0b 44
        E 48 b1 0c 20
        E 0 b1 0b 33
        E 0 81 26 00
        E 0 91 2d 33
        E 16 b1 0b 2a
        E 32 b1 0b 33
        E 32 b1 0b 55
        E 0 81 2d 00
        E 0 91 51 55
        E 32 81 51 00
        E 0 91 30 55
        E 16 b1 0b 22
        E 16 81 30 00
        E 0 91 51 22
        E 32 81 51 00
        E 0 91 30 22
        E 16 81 30 00
        E 16 b1 0b 33
        E 0 91 2d 33
        E 16 b1 0b 55
        E 0 81 2d 00
        E 0 91 51 55
        E 32 81 51 00
        E 0 91 30 55
        E 16 b1 0b 22
        E 16 81 30 00
        E 0 91 51 22
        E 32 81 51 00
        E 0 91 30 22
        E 16 81 30 00
        E 16 b1 0b 33
        E 0 91 2f 33
        E 16 b1 0b 55
        E 0 81 2f 00
        E 0 91 51 55
        E 32 81 51 00
        E 0 91 30 55
        E 16 b1 0b 22
        E 16 81 30 00
        E 0 91 51 22
        E 32 81 51 00
        E 0 91 30 22
        E 16 81 30 00
        E 16 b1 0b 44
        E 0 91 2f 44
        E 16 b1 0b 55
        E 0 81 2f 00
        E 0 91 51 55
        E 32 81 51 00
        E 0 91 30 55
        E 16 b1 0b 22
        E 16 81 30 00
        E 0 91 51 22
        E 32 81 51 00
        E 0 91 30 22
        E 16 81 30 00
        E 16 b1 0b 44
        E 0 91 2f 44
        E 16 b1 0b 55
        E 0 81 2f 00
        E 0 91 51 55
        E 32 81 51 00
        E 0 91 30 55
        E 16 b1 0b 22
        E 16 81 30 00
        E 0 91 51 22
        E 32 81 51 00
        E 0 91 30 22
        E 16 81 30 00
        E 16 b1 0b 44
        E 0 91 2f 44
        E 16 b1 0b 55
        E 0 81 2f 00
        E 0 91 51 55
        E 32 81 51 00
        E 0 91 30 55
        E 16 b1 0b 22
        E 16 81 30 00
        E 0 91 51 22
        E 32 81 51 00
        E 0 91 30 22
        E 16 81 30 00
        E 16 b1 0b 19
        E 0 91 2f 19
        E 16 b1 0b 55
        E 0 81 2f 00
        E 0 91 51 55
        E 32 81 51 00
        E 0 91 30 55
        E 16 b1 0b 22
        E 16 81 30 00
        E 0 91 51 22
        E 32 81 51 00
        E 0 91 30 22
        E 16 b1 0c 40
        E 0 b1 0b 66
        E 0 81 30 00
        E 0 91 26 66
        E 16 b1 0b 44
        E 48 b1 0c 20
        E 0 b1 0b 19
        E 0 81 26 00
        E 0 91 34 19
        E 64 b1 0c 40
        E 0 b1 0b 7f
        E 0 81 34 00
        E 0 91 26 7f
        E 32 b1 0b 66
        E 16 b1 0b 44
        E 48 b1 0c 20
        E 0 b1 0b 4c
        E 0 81 26 00
        E 0 91 34 4c
        E 16 b1 0b 33
        E 16 b1 0b 2a
        E 32 b1 0b 33
        E 32 b1 0c 40
        E 0 b1 0b 66
        E 0 81 34 00
        E 0 91 26 66
        E 16 b1 0b 44
        E 48 b1 0c 20
        E 0 b1 0b 33
        E 0 81 26 00
        E 0 91 34 33
        E 16 b1 0b 2a
        E 16 b1 0c 40
        E 0 b1 0b 66
        E 0 81 34 00
        E 0 91 26 66
        E 16 b1 0b 44
        E 48 b1 0c 20
        E 0 b1 0b 11
        E 0 81 26 00
        E 0 91 34 11
        E 16 b1 0b 19
        E 80 b1 0c 40
        E 0 b1 0b 66
        E 0 81 34 00
        E 0 91 26 66
        E 16 b1 0b 44
        E 48 b1 0c 20
        E 0 b1 0b 66
        E 0 81 26 00
        E 0 91 34 66
        E 16 b1 0b 4c
        E 16 b1 0b 33
        E 16 b1 0b 2a
        E 16 b1 0c 40
        E 0 b1 0b 66
        E 0 81 34 00
        E 0 91 26 66
        E 16 b1 0b 44
        E 16 b1 0b 66
        E 16 b1 0b 44
        E 48 b1 0c 20
        E 0 b1 0b 19
        E 0 81 26 00
        E 0 91 34 19
        E 32 b1 0c 40
        E 0 b1 0b 66
        E 0 81 34 00
        E 0 91 26 66
        E 16 b1 0b 44
        E 16 b1 0b 66
        E 16 b1 0b 44
        E 48 b1 0c 20
        E 0 b1 0b 66
        E 0 81 26 00
        E 0 91 34 66
        E 16 b1 0b 4c
        E 16 b1 0b 33
        E 16 b1 0b 2a
        E 16 b1 0c 40
        E 0 b1 0b 66
        E 0 81 34 00
        E 0 91 26 66
        E 16 b1 0b 44
        E 48 b1 0c 20
        E 0 b1 0b 11
        E 0 81 26 00
        E 0 91 34 11
        E 16 b1 0b 19
        E 48 b1 0c 40
        E 0 b1 0b 66
        E 0 81 34 00
        E 0 91 26 66
        E 16 b1 0b 44
        E 16 b1 0b 66
        E 16 b1 0b 44
        E 48 b1 0c 20
        E 0 b1 0b 66
        E 0 81 26 00
        E 0 91 2d 66
        E 16 b1 0b 4c
        E 16 b1 0c 40
        E 0 b1 0b 66
        E 0 81 2d 00
        E 0 91 26 66
        E 16 b1 0b 44
        E 16 b1 0b 66
        E 16 b1 0b 44
        E 48 b1 0c 20
        E 0 b1 0b 11
        E 0 81 26 00
        E 0 91 2d 11
        E 16 b1 0b 66
        E 16 b1 0b 4c
        E 16 b1 0b 33
        E 16 b1 0c 40
        E 0 b1 0b 66
        E 0 81 2d 00
        E 0 91 26 66
        E 16 b1 0b 44
        E 48 b1 0c 20
        E 0 b1 0b 08
        E 0 81 26 00
        E 0 91 2d 08
        E 16 b1 0b 11
        E 16 b1 0b 66
        E 0 81 2d 00
        E 0 91 30 66
        E 16 b1 0b 4c
        E 16 b1 0c 40
        E 0 b1 0b 66
        E 0 81 30 00
        E 0 91 26 66
        E 16 b1 0b 44
        E 16 b1 0b 66
        E 16 b1 0b 44
        E 48 b1 0c 20
        E 0 b1 0b 3b
        E 0 81 26 00
        E 0 91 30 3b
        E 16 b1 0b 44
        E 48 b1 0c 40
        E 0 b1 0b 66
        E 0 81 30 00
        E 0 91 26 66
        E 16 b1 0b 44
        E 48 b1 0c 20
        E 0 81 26 00
        E 0 91 30 44
        E 32 b1 0c 40
        E 0 b1 0b 66
        E 0 81 30 00
        E 0 91 26 66
        E 16 b1 0b 44
        E 16 b1 0b 66
        E 16 b1 0b 44
        E 48 b1 0c 20
        E 0 81 26 00
        E 0 91 30 44
        E 16 b1 0b 55
        E 0 81 30 00
        E 0 91 51 55
        E 32 81 51 00
        E 0 91 30 55
        E 16 b1 0b 22
        E 16 81 30 00
        E 0 91 51 22
        E 16 b1 0c 40
        E 0 b1 0b 66
        E 0 81 51 00
        E 0 91 26 66
        E 16 b1 0b 44
        E 48 b1 0c 20
        E 0 b1 0b 08
        E 0 81 26 00
        E 0 91 30 08
        E 16 b1 0b 11
        E 16 b1 0b 19
        E 32 b1 0c 40
        E 0 b1 0b 66
        E 0 81 30 00
        E 0 91 26 66
        E 16 b1 0b 44
        E 48 b1 0c 20
        E 0 b1 0b 19
        E 0 81 26 00
        E 0 91 30 19
        E 16 b1 0b 55
        E 0 81 30 00
        E 0 91 51 55
        E 32 81 51 00
        E 0 91 30 55
        E 16 b1 0c 40
        E 0 b1 0b 66
        E 0 81 30 00
        E 0 91 26 66
        E 16 b1 0b 44
        E 48 b1 0c 20
        E 0 b1 0b 33
        E 0 81 26 00
        E 0 91 34 33
        E 32 b1 0b 55
        E 0 81 34 00
        E 0 91 51 55
        E 32 81 51 00
        E 0 91 30 55
        E 16 b1 0b 22
        E 16 b1 0c 40
        E 0 b1 0b 66
        E 0 81 30 00
        E 0 91 26 66
        E 16 b1 0b 44
        E 48 b1 0c 20
        E 0 b1 0b 19
        E 0 81 26 00
        E 0 91 34 19
        E 16 b1 0b 55
        E 0 81 34 00
        E 0 91 51 55
        E 32 81 51 00
        E 0 91 30 55
        E 16 b1 0c 40
        E 0 b1 0b 66
        E 0 81 30 00
        E 0 91 26 66
        E 16 b1 0b 44
        E 48 b1 0c 20
        E 0 b1 0b 33
        E 0 81 26 00
        E 0 91 34 33
        E 32 b1 0b 55
        E 0 81 34 00
        E 0 91 51 55
        E 32 b1 0c 40
        E 0 b1 0b 66
        E 0 81 51 00
        E 0 91 26 66
        E 16 b1 0b 44
        E 48 b1 0c 20
        E 0 b1 0b 2a
        E 0 81 26 00
        E 0 91 34 2a
        E 16 b1 0b 33
        E 32 b1 0b 55
        E 0 81 34 00
        E 0 91 51 55
        E 16 b1 0c 40
        E 0 b1 0b 66
        E 0 81 51 00
        E 0 91 26 66
        E 16 b1 0b 44
        E 48 b1 0c 20
        E 0 b1 0b 19
        E 0 81 26 00
        E 0 91 34 19
        E 64 b1 0b 55
        E 0 81 34 00
        E 0 91 51 55
        E 32 b1 0c 40
        E 0 b1 0b 66
        E 0 81 51 00
        E 0 91 26 66
        E 16 b1 0b 44
        E 48 b1 0c 20
        E 0 b1 0b 2a
        E 0 81 26 00
        E 0 91 34 2a
        E 16 b1 0b 33
        E 32 b1 0b 55
        E 0 81 34 00
        E 0 91 51 55
        E 16 b1 0c 40
        E 0 b1 0b 66
        E 0 81 51 00
        E 0 91 26 66
        E 16 b1 0b 44
        E 48 b1 0c 20
        E 0 b1 0b 19
        E 0 81 26 00
        E 0 91 34 19
        E 64 b1 0c 40
        E 0 b1 0b 66
        E 0 81 34 00
        E 0 91 26 66
        E 16 b1 0b 44
        E 48 b1 0c 20
        E 0 b1 0b 33
        E 0 81 26 00
        E 0 91 34 33
        E 16 b1 0b 2a
        E 32 b1 0b 33
        E 32 b1 0b 55
        E 0 81 34 00
        E 0 91 51 55
        E 32 81 51 00
        E 0 91 30 55
        E 16 b1 0c 40
        E 0 b1 0b 66
        E 0 81 30 00
        E 0 91 26 66
        E 16 b1 0b 44
        E 48 b1 0c 20
        E 0 b1 0b 19
        E 0 81 26 00
        E 0 91 34 19
        E 32 b1 0b 55
        E 0 81 34 00
        E 0 91 51 55
        E 32 81 51 00
        E 0 91 30 55
        E 16 b1 0b 22
        E 16 b1 0c 40
        E 0 b1 0b 66
        E 0 81 30 00
        E 0 91 26 66
        E 16 b1 0b 44
        E 48 b1 0c 20
        E 0 b1 0b 33
        E 0 81 26 00
        E 0 91 2d 33
        E 16 b1 0b 55
        E 0 81 2d 00
        E 0 91 51 55
        E 32 81 51 00
        E 0 91 30 55
        E 16 b1 0b 22
        E 16 81 30 00
        E 0 91 51 22
        E 16 b1 0c 40
        E 0 b1 0b 66
        E 0 81 51 00
        E 0 91 26 66
        E 16 b1 0b 44
        E 48 b1 0c 20
        E 0 b1 0b 08
        E 0 81 26 00
        E 0 91 2d 08
        E 16 b1 0b 11
        E 16 b1 0b 66
        E 0 81 2d 00
        E 0 91 2f 66
        E 16 b1 0b 4c
        E 16 b1 0b 33
        E 16 b1 0b 2a
        E 16 b1 0c 40
        E 0 b1 0b 66
        E 0 81 2f 00
        E 0 91 26 66
        E 16 b1 0b 44
        E 48 b1 0c 20
        E 0 b1 0b 3b
        E 0 81 26 00
        E 0 91 2f 3b
        E 16 b1 0b 44
        E 48 b1 0c 40
        E 0 b1 0b 66
        E 0 81 2f 00
        E 0 91 26 66
        E 16 b1 0b 7f
        E 64 81 26 00
        E 0 91 1d 7f
        E 16 b1 0b 55
        E 0 81 1d 00
        E 0 91 26 55
        E 32 b1 0b 66
        E 16 b1 0b 44
        E 48 b1 0c 20
        E 0 81 26 00
        E 0 91 2f 44
        E 16 b1 0b 55
        E 0 81 2f 00
        E 0 91 51 55
        E 16 b1 0c 40
        E 0 b1 0b 66
        E 0 81 51 00
        E 0 91 26 66
        E 16 b1 0b 44
        E 16 b1 0b 66
        E 16 b1 0b 44
        E 48 b1 0c 20
        E 0 81 26 00
        E 0 91 2f 44
        E 32 b1 0b 55
        E 0 81 2f 00
        E 0 91 51 55
        E 32 b1 0c 40
        E 0 b1 0b 66
        E 0 81 51 00
        E 0 91 26 66
        E 16 b1 0b 44
        E 16 b1 0b 66
        E 16 b1 0b 44
        E 48 b1 0c 20
        E 0 b1 0b 19
        E 0 81 26 00
        E 0 91 2f 19
        E 16 b1 0b 55
        E 0 81 2f 00
        E 0 91 51 55
        E 16 b1 0c 40
        E 0 b1 0b 66
        E 0 81 51 00
        E 0 91 26 66
        E 16 b1 0b 44
        E 16 b1 0b 66
        E 16 b1 0b 44
        E 48 b1 0c 20
        E 0 b1 0b 33
        E 0 81 26 00
        E 0 91 34 33
        E 32 b1 0c 40
        E 0 b1 0b 66
        E 0 81 34 00
        E 0 91 26 66
        E 16 b1 0b 44
        E 16 b1 0b 66
        E 16 b1 0b 44
        E 48 b1 0c 20
        E 0 b1 0b 19
        E 0 81 26 00
        E 0 91 34 19
        E 32 b1 0c 40
        E 0 b1 0b 66
        E 0 81 34 00
        E 0 91 26 66
        E 16 b1 0b 44
        E 48 b1 0c 20
        E 0 b1 0b 4c
        E 0 81 26 00
        E 0 91 34 4c
        E 16 b1 0b 33
        E 16 b1 0c 40
        E 0 b1 0b 66
        E 0 81 34 00
        E 0 91 26 66
        E 16 b1 0b 44
        E 48 b1 0c 20
        E 0 b1 0b 08
        E 0 81 26 00
        E 0 91 34 08
        E 16 b1 0b 11
        E 16 b1 0b 66
        E 16 b1 0b 4c
        E 16 b1 0b 33
        E 16 b1 0b 2a
        E 32 b1 0b 33
        E 32 b1 0b 08
        E 16 b1 0b 11
        E 16 b1 0b 19
        E 128 b1 0b 11
        E 16 b1 0b 66
        E 16 b1 0b 4c
        E 16 b1 0b 33
        E 16 b1 0b 2a
        E 32 b1 0b 33
        E 32 b1 0b 08
        E 16 b1 0b 11
        E 16 b1 0b 19
        E 128 b1 0b 11
        E 16 b1 0b 66
        E 16 b1 0b 4c
        E 16 b1 0b 33
        E 16 b1 0b 2a
        E 32 b1 0b 33
        E 32 b1 0b 08
        E 16 b1 0b 11
        E 16 b1 0b 19
        E 128 b1 0b 11
        E 16 b1 0b 66
        E 0 81 34 00
        E 0 91 2d 66
        E 16 b1 0b 4c
        E 16 b1 0b 33
        E 16 b1 0b 2a
        E 32 b1 0b 33
        E 32 b1 0b 08
        E 16 b1 0b 11
        E 16 b1 0b 66
        E 16 b1 0b 4c
        E 16 b1 0b 33
        E 16 b1 0b 2a
        E 32 b1 0b 33
        E 32 b1 0b 08
        E 16 b1 0b 11
        E 16 b1 0b 66
        E 0 81 2d 00
        E 0 91 30 66
        E 16 b1 0b 4c
        E 16 b1 0b 33
        E 16 b1 0b 2a
        E 32 b1 0b 33
        E 32 b1 0b 3b
        E 32 b1 0b 44
        E 400 b1 0b 08
        E 16 b1 0b 11
        E 16 b1 0b 19
        E 128 b1 0b 11
        E 16 b1 0b 66
        E 0 81 30 00
        E 0 91 40 66
        E 16 b1 0b 4c
        E 16 b1 0b 33
        E 16 b1 0b 2a
        E 32 b1 0b 33
        E 32 b1 0b 08
        E 16 b1 0b 11
        E 16 b1 0b 19
        E 128 b1 0b 11
        E 16 b1 0b 66
        E 16 b1 0b 4c
        E 16 b1 0b 33
        E 16 b1 0b 2a
        E 32 b1 0b 33
        E 32 b1 0b 08
        E 16 b1 0b 11
        E 16 b1 0b 66
        E 16 b1 0b 4c
        E 16 b1 0b 33
        E 16 b1 0b 2a
        E 32 b1 0b 33
        E 32 b1 0b 08
        E 16 b1 0b 11
        E 16 b1 0b 19
        E 128 b1 0b 11
        E 16 b1 0b 66
        E 16 b1 0b 4c
        E 16 b1 0b 33
        E 16 b1 0b 2a
        E 32 b1 0b 33
        E 32 b1 0b 08
        E 16 b1 0b 11
        E 16 b1 0b 19
        E 128 b1 0b 11
        E 16 b1 0b 66
        E 16 b1 0b 4c
        E 16 b1 0b 33
        E 16 b1 0b 2a
        E 32 b1 0b 33
        E 32 b1 0b 08
        E 16 b1 0b 11
        E 16 b1 0b 19
        E 128 b1 0b 11
        E 16 b1 0b 66
        E 0 81 40 00
        E 0 91 39 66
        E 16 b1 0b 4c
        E 16 b1 0b 33
        E 16 b1 0b 2a
        E 32 b1 0b 33
        E 32 b1 0b 08
        E 16 b1 0b 11
        E 16 b1 0b 66
        E 16 b1 0b 4c
        E 16 b1 0b 33
        E 16 b1 0b 2a
        E 32 b1 0b 33
        E 32 b1 0b 08
        E 16 b1 0b 11
        E 16 b1 0b 66
        E 0 81 39 00
        E 0 91 3b 66
        E 16 b1 0b 4c
        E 16 b1 0b 33
        E 16 b1 0b 2a
        E 32 b1 0b 33
        E 32 b1 0b 3b
        E 32 b1 0b 44
        E 400 b1 0b 08
        E 16 b1 0b 11
        E 16 b1 0b 19
        E 128 b1 0b 11
        E 160 b1 0b 77
        E 0 81 3b 00
        E 0 91 36 77
        E 16 b1 0b 5d
        E 16 b1 0b 44
        E 16 b1 0b 3b
        E 32 b1 0b 44
        E 32 b1 0b 08
        E 16 b1 0b 11
        E 16 b1 0b 19
        E 128 b1 0b 11
        E 16 b1 0b 77
        E 16 b1 0b 5d
        E 16 b1 0b 44
        E 16 b1 0b 3b
        E 32 b1 0b 44
        E 32 b1 0b 08
        E 16 b1 0b 11
        E 16 b1 0b 19
        E 128 b1 0b 11
        E 16 b1 0b 77
        E 0 81 36 00
        E 0 91 39 77
        E 16 b1 0b 5d
        E 16 b1 0b 44
        E 16 b1 0b 3b
        E 32 b1 0b 44
        E 32 b1 0b 08
        E 16 b1 0b 11
        E 16 b1 0b 19
        E 128 b1 0b 11
        E 16 b1 0b 77
        E 16 b1 0b 5d
        E 16 b1 0b 44
        E 16 b1 0b 3b
        E 32 b1 0b 44
        E 32 b1 0b 08
        E 16 b1 0b 11
        E 16 b1 0b 19
        E 128 b1 0b 11
        E 16 b1 0b 77
        E 0 81 39 00
        E 0 91 3b 77
        E 16 b1 0b 5d
        E 16 b1 0b 44
        E 16 b1 0b 3b
        E 32 b1 0b 44
        E 32 b1 0b 08
        E 16 b1 0b 11
        E 16 b1 0b 19
        E 128 b1 0b 11
        E 16 b1 0b 77
        E 0 81 3b 00
        E 0 91 3f 77
        E 16 b1 0b 5d
        E 16 b1 0b 44
        E 16 b1 0b 3b
        E 32 b1 0b 44
        E 32 b1 0b 08
        E 16 b1 0b 11
        E 16 b1 0b 19
        E 128 b1 0b 11
        E 16 b1 0b 77
        E 16 b1 0b 5d
        E 16 b1 0b 44
        E 16 b1 0b 3b
        E 32 b1 0b 44
        E 32 b1 0b 08
        E 16 b1 0b 11
        E 16 b1 0b 19
        E 128 b1 0b 11
        E 16 b1 0b 77
        E 0 81 3f 00
        E 0 91 36 77
        E 16 b1 0b 5d
        E 16 b1 0b 44
        E 16 b1 0b 3b
        E 32 b1 0b 44
        E 32 b1 0b 08
        E 16 b1 0b 11
        E 16 b1 0b 19
        E 128 b1 0b 11
        E 16 b1 0b 19
        E 0 81 36 00
        E 0 91 34 19
        E 16 b1 0b 2a
        E 16 b1 0b 4c
        E 16 b1 0b 33
        E 1072 b1 0b 08
        E 16 b1 0b 11
        E 16 b1 0b 19
        E 128 b1 0c 40
        E 0 b1 0b 55
        E 0 81 34 00
        E 0 91 51 55
        E 32 81 51 00
        E 0 91 30 55
        E 48 b1 0b 33
        E 0 81 30 00
        E 0 91 54 33
        E 96 b1 0b 2a
        E 192 b1 0b 22
        E 192 b1 0b 19
        E 192 b1 0b 11
        E 192 b1 0b 08
        E 192 b1 0c 20
        E 0 b1 0b 33
        E 0 81 54 00
        E 0 91 40 33
        E 288 b1 0b 08
        E 16 b1 0b 11
        E 16 b1 0b 19
        E 0 81 40 00
        E 0 91 3b 19
        E 16 b1 0b 2a
        E 16 b1 0b 4c
        E 16 b1 0b 33
        E 1072 b1 0b 08
        E 16 b1 0b 11
        E 16 b1 0b 19
        E 128 b1 0b 11
        E 16 b1 0b 19
        E 0 81 3b 00
        E 0 91 37 19
        E 16 b1 0b 2a
        E 16 b1 0b 4c
        E 16 b1 0b 33
        E 208 b1 0b 08
        E 16 b1 0b 11
        E 16 b1 0b 19
        E 0 81 37 00
        E 0 91 36 19
        E 16 b1 0b 2a
        E 16 b1 0b 4c
        E 16 b1 0b 33
        E 208 b1 0b 08
        E 16 b1 0b 11
        E 16 b1 0b 19
        E 0 81 36 00
        E 0 91 34 19
        E 16 b1 0b 2a
        E 16 b1 0b 4c
        E 16 b1 0b 33
        E 64 b1 0b 08
        E 16 b1 0b 11
        E 16 b1 0b 19
        E 16 b1 0b 2a
        E 16 b1 0b 4c
        E 16 b1 0b 33
        E 64 b1 0b 08
        E 16 b1 0b 11
        E 16 b1 0b 19
        E 128 b1 0b 11
        E 16 b1 0b 19
        E 16 b1 0b 2a
        E 16 b1 0b 4c
        E 16 b1 0b 33
        E 16 b1 0b 55
        E 0 81 34 00
        E 0 91 51 55
        E 32 81 51 00
        E 0 91 30 55
        E 16 b1 0b 22
        E 16 81 30 00
        E 0 91 51 22
        E 32 81 51 00
        E 0 91 30 22
        E 16 81 30 00
        E 16 b1 0b 33
        E 0 91 34 33
        E 16 b1 0b 55
        E 0 81 34 00
        E 0 91 51 55
        E 32 81 51 00
        E 0 91 30 55
        E 16 b1 0b 22
        E 16 81 30 00
        E 0 91 51 22
        E 32 81 51 00
        E 0 91 30 22
        E 16 81 30 00
        E 16 b1 0b 19
        E 0 91 34 19
        E 16 b1 0b 55
        E 0 81 34 00
        E 0 91 51 55
        E 32 81 51 00
        E 0 91 30 55
        E 16 b1 0b 22
        E 16 81 30 00
        E 0 91 51 22
        E 32 81 51 00
        E 0 91 30 22
        E 16 81 30 00
        E 16 b1 0b 33
        E 0 91 34 33
        E 16 b1 0b 55
        E 0 81 34 00
        E 0 91 51 55
        E 32 81 51 00
        E 0 91 30 55
        E 16 b1 0b 22
        E 16 81 30 00
        E 0 91 51 22
        E 32 81 51 00
        E 0 91 30 22
        E 16 81 30 00
        E 16 b1 0b 33
        E 0 91 34 33
        E 16 b1 0b 55
        E 0 81 34 00
        E 0 91 51 55
        E 32 81 51 00
        E 0 91 30 55
        E 16 b1 0b 22
        E 16 81 30 00
        E 0 91 51 22
        E 32 81 51 00
        E 0 91 30 22
        E 16 81 30 00
        E 16 b1 0b 19
        E 0 91 34 19
        E 16 b1 0b 55
        E 0 81 34 00
        E 0 91 51 55
        E 32 81 51 00
        E 0 91 30 55
        E 16 b1 0b 22
        E 16 81 30 00
        E 0 91 51 22
        E 32 81 51 00
        E 0 91 30 22
        E 16 81 30 00
        E 16 b1 0b 33
        E 0 91 34 33
        E 16 b1 0b 55
        E 0 81 34 00
        E 0 91 51 55
        E 32 81 51 00
        E 0 91 30 55
        E 16 b1 0b 22
        E 16 81 30 00
        E 0 91 51 22
        E 32 81 51 00
        E 0 91 30 22
        E 16 81 30 00
        E 16 b1 0b 33
        E 0 91 34 33
        E 16 b1 0b 55
        E 0 81 34 00
        E 0 91 51 55
        E 32 81 51 00
        E 0 91 30 55
        E 16 b1 0b 22
        E 16 81 30 00
        E 0 91 51 22
        E 32 81 51 00
        E 0 91 30 22
        E 16 81 30 00
        E 16 b1 0b 19
        E 0 91 34 19
        E 16 b1 0b 55
        E 0 81 34 00
        E 0 91 51 55
        E 32 81 51 00
        E 0 91 30 55
        E 16 b1 0b 22
        E 16 81 30 00
        E 0 91 51 22
        E 32 81 51 00
        E 0 91 30 22
        E 16 81 30 00
        E 16 b1 0b 33
        E 0 91 32 33
        E 16 b1 0b 55
        E 0 81 32 00
        E 0 91 51 55
        E 32 81 51 00
        E 0 91 30 55
        E 16 b1 0b 22
        E 16 81 30 00
        E 0 91 51 22
        E 32 81 51 00
        E 0 91 30 22
        E 16 81 30 00
        E 16 b1 0b 33
        E 0 91 32 33
        E 16 b1 0b 55
        E 0 81 32 00
        E 0 91 51 55
        E 32 81 51 00
        E 0 91 30 55
        E 16 b1 0b 22
        E 16 81 30 00
        E 0 91 51 22
        E 32 81 51 00
        E 0 91 30 22
        E 16 81 30 00
        E 16 b1 0b 33
        E 0 91 36 33
        E 16 b1 0b 55
        E 0 81 36 00
        E 0 91 51 55
        E 32 81 51 00
        E 0 91 30 55
        E 16 b1 0b 22
        E 16 81 30 00
        E 0 91 51 22
        E 32 81 51 00
        E 0 91 30 22
        E 16 81 30 00
        E 16 b1 0b 33
        E 0 91 36 33
        E 16 b1 0b 55
        E 0 81 36 00
        E 0 91 51 55
        E 32 81 51 00
        E 0 91 30 55
        E 16 b1 0b 22
        E 16 81 30 00
        E 0 91 51 22
        E 32 81 51 00
        E 0 91 30 22
        E 16 81 30 00
        E 16 b1 0b 33
        E 0 91 34 33
        E 16 b1 0b 55
        E 0 81 34 00
        E 0 91 51 55
        E 32 81 51 00
        E 0 91 30 55
        E 16 b1 0b 22
        E 16 81 30 00
        E 0 91 51 22
        E 16 b1 0c 40
        E 0 b1 0b 7f
        E 0 81 51 00
        E 0 91 26 7f
        E 64 81 26 00
        E 0 91 1d 7f
        E 16 b1 0b 55
        E 0 81 1d 00
        E 0 91 26 55
        E 64 81 26 00
        E 0 91 1d 55
        E 16 b1 0b 7f
        E 0 81 1d 00
        E 0 91 25 7f
        E 80 b1 0b 55
        E 16 b1 0b 7f
        E 0 81 25 00
        E 0 91 26 7f
        E 64 81 26 00
        E 0 91 1d 7f
        E 16 b1 0b 55
        E 0 81 1d 00
        E 0 91 26 55
        E 64 81 26 00
        E 0 91 1d 55
        E 16 b1 0b 7f
        E 0 81 1d 00
        E 0 91 25 7f
        E 80 b1 0b 55
        E 16 b1 0b 7f
        E 0 81 25 00
        E 0 91 26 7f
        E 64 81 26 00
        E 0 91 1d 7f
        E 16 b1 0b 55
        E 0 81 1d 00
        E 0 91 26 55
        E 64 81 26 00
        E 0 91 1d 55
        E 16 b1 0b 7f
        E 0 81 1d 00
        E 0 91 25 7f
        E 80 b1 0b 55
        E 48 81 25 00
        E 0 91 2b 55
        E 16 b1 0b 2a
        E 0 81 2b 00
        E 0 91 21 2a
        E 48 81 21 00
        E 0 91 2d 2a
        E 16 b1 0c 20
        E 0 b1 0b 33
        E 0 81 2d 00
        E 0 91 34 33
        E 48 b1 0b 55
        E 0 81 34 00
        E 0 91 51 55
        E 32 81 51 00
        E 0 91 30 55
        E 16 b1 0b 22
        E 16 81 30 00
        E 0 91 51 22
        E 32 81 51 00
        E 0 91 30 22
        E 16 81 30 00
        E 16 b1 0b 33
        E 0 91 2f 33
        E 16 b1 0b 55
        E 0 81 2f 00
        E 0 91 51 55
        E 32 81 51 00
        E 0 91 30 55
        E 16 b1 0b 22
        E 16 81 30 00
        E 0 91 51 22
        E 32 81 51 00
        E 0 91 30 22
        E 16 81 30 00
        E 16 b1 0b 33
        E 0 91 2f 33
        E 16 b1 0b 55
        E 0 81 2f 00
        E 0 91 51 55
        E 32 81 51 00
        E 0 91 30 55
        E 16 b1 0b 22
        E 16 81 30 00
        E 0 91 51 22
        E 32 81 51 00
        E 0 91 30 22
        E 16 81 30 00
        E 16 b1 0b 33
        E 0 91 28 33
        E 16 b1 0b 55
        E 0 81 28 00
        E 0 91 51 55
        E 32 81 51 00
        E 0 91 30 55
        E 16 b1 0b 22
        E 16 81 30 00
        E 0 91 51 22
        E 32 81 51 00
        E 0 91 30 22
        E 16 81 30 00
        E 16 b1 0b 33
        E 0 91 34 33
        E 16 b1 0b 55
        E 0 81 34 00
        E 0 91 51 55
        E 32 81 51 00
        E 0 91 30 55
        E 16 b1 0b 22
        E 16 81 30 00
        E 0 91 51 22
        E 32 81 51 00
        E 0 91 30 22
        E 16 81 30 00
        E 16 b1 0b 33
        E 0 91 34 33
        E 16 b1 0b 55
        E 0 81 34 00
        E 0 91 51 55
        E 32 81 51 00
        E 0 91 30 55
        E 16 b1 0b 22
        E 16 81 30 00
        E 0 91 51 22
        E 32 81 51 00
        E 0 91 30 22
        E 16 81 30 00
        E 16 b1 0b 33
        E 0 91 2b 33
        E 16 b1 0b 55
        E 0 81 2b 00
        E 0 91 51 55
        E 32 81 51 00
        E 0 91 30 55
        E 16 b1 0b 22
        E 16 b1 0c 40
        E 0 b1 0b 7f
        E 0 81 30 00
        E 0 91 26 7f
        E 64 81 26 00
        E 0 91 1d 7f
        E 16 b1 0b 55
        E 0 81 1d 00
        E 0 91 26 55
        E 64 81 26 00
        E 0 91 1d 55
        E 16 b1 0b 7f
        E 0 81 1d 00
        E 0 91 25 7f
        E 80 b1 0b 55
        E 48 81 25 00
        E 0 91 2b 55
        E 16 b1 0b 2a
        E 0 81 2b 00
        E 0 91 21 2a
        E 48 81 21 00
        E 0 91 2d 2a
        E 16 b1 0c 20
        E 0 b1 0b 33
        E 0 81 2d 00
        E 0 91 34 33
        E 144 b1 0b 55
        E 0 81 34 00
        E 0 91 51 55
        E 32 b1 0c 40
        E 0 b1 0b 7f
        E 0 81 51 00
        E 0 91 26 7f
        E 64 81 26 00
        E 0 91 1d 7f
        E 16 b1 0b 55
        E 0 81 1d 00
        E 0 91 26 55
        E 64 81 26 00
        E 0 91 1d 55
        E 16 b1 0b 7f
        E 0 81 1d 00
        E 0 91 25 7f
        E 80 b1 0b 55
        E 32 81 25 00
        E 0 b1 7b 00
        E 0 ff 2f 00
      >
    >
  >
  <TRACK {36B11F04-A67E-490C-A0CA-034851C6A95E}
    NAME "NES - Triangle [ch2]"
    PEAKCOL 16744192
    BEAT -1
    AUTOMODE 0
    PANLAWFLAGS 3
    VOLPAN 1 0 -1 -1 1
    MUTESOLO 0 0 0
    IPHASE 0
    PLAYOFFS 0 1
    ISBUS 0 0
    BUSCOMP 0 0 0 0 0
    SHOWINMIX 1 0.6667 0.5 1 0.5 0 0 0
    FIXEDLANES 9 0 0 0 0
    SEL 0
    REC 0 5088 1 0 0 0 0 0
    VU 2
    TRACKHEIGHT 0 0 0 0 0 0 0
    INQ 0 0 0 0.5 100 0 0 100
    NCHAN 2
    FX 1
    TRACKID {36B11F04-A67E-490C-A0CA-034851C6A95E}
    PERF 0
    MIDIOUT -1
    MAINSEND 1 0
    <FXCHAIN
      WNDRECT 24 52 700 560
      SHOW 0
      LASTSEL 0
      DOCKED 0
      BYPASS 0 0 0
      <JS "ReapNES Studio/ReapNES_Console.jsfx" ""
        2 15 1 10 80 10 100 2 1 15 1 5 60 10 80 1 1 0 50 0 0 15 1 0 100 0 0 0.500000 0.500000 0.400000 0.300000 0.800000 2 1 0 0 0 0 - - - - - - - - - - - - - - - - - - - - - - - - - -
      >
      FLOATPOS 0 0 0 0
      FXID {35DF4A64-05E4-4AA2-BDD3-C3860302B09F}
      WAK 0 0
    >
    <ITEM
      POSITION 0
      LENGTH 72.3017129
      LOOP 0
      ALLTAKES 0
      FADEIN 0 0 0 0 0 0 0
      FADEOUT 0 0 0 0 0 0 0
      MUTE 0 0
      SEL 0
      IGUID {7E82260F-4B44-4177-B4DF-CDBAE809849A}
      <SOURCE MIDI
        HASDATA 1 480 QN
        CCINTERP 32
        E 0 c2 26
        E 0 b2 0b 7f
        E 0 92 28 7f
        E 112 82 28 00
        E 176 b2 0b 7f
        E 0 92 2a 7f
        E 32 82 2a 00
        E 0 b2 0b 7f
        E 0 92 1b 7f
        E 16 82 1b 00
        E 0 b2 0b 7f
        E 0 92 28 7f
        E 64 82 28 00
        E 32 b2 0b 7f
        E 0 92 28 7f
        E 112 82 28 00
        E 32 b2 0b 7f
        E 0 92 2a 7f
        E 32 82 2a 00
        E 0 b2 0b 7f
        E 0 92 1b 7f
        E 16 82 1b 00
        E 96 b2 0b 7f
        E 0 92 28 7f
        E 112 82 28 00
        E 32 b2 0b 7f
        E 0 92 2a 7f
        E 32 82 2a 00
        E 0 b2 0b 7f
        E 0 92 1b 7f
        E 16 82 1b 00
        E 96 b2 0b 7f
        E 0 92 28 7f
        E 112 82 28 00
        E 32 b2 0b 7f
        E 0 92 2a 7f
        E 32 82 2a 00
        E 0 b2 0b 7f
        E 0 92 1b 7f
        E 16 82 1b 00
        E 96 b2 0b 7f
        E 0 92 26 7f
        E 112 82 26 00
        E 32 b2 0b 7f
        E 0 92 26 7f
        E 112 82 26 00
        E 32 b2 0b 7f
        E 0 92 28 7f
        E 400 82 28 00
        E 32 b2 0b 7f
        E 0 92 26 7f
        E 256 82 26 00
        E 32 b2 0b 7f
        E 0 92 24 7f
        E 112 82 24 00
        E 176 b2 0b 7f
        E 0 92 2a 7f
        E 32 82 2a 00
        E 0 b2 0b 7f
        E 0 92 1b 7f
        E 16 82 1b 00
        E 0 b2 0b 7f
        E 0 92 24 7f
        E 64 82 24 00
        E 32 b2 0b 7f
        E 0 92 24 7f
        E 112 82 24 00
        E 32 b2 0b 7f
        E 0 92 2a 7f
        E 32 82 2a 00
        E 0 b2 0b 7f
        E 0 92 1b 7f
        E 16 82 1b 00
        E 96 b2 0b 7f
        E 0 92 24 7f
        E 112 82 24 00
        E 32 b2 0b 7f
        E 0 92 2a 7f
        E 32 82 2a 00
        E 0 b2 0b 7f
        E 0 92 1b 7f
        E 16 82 1b 00
        E 96 b2 0b 7f
        E 0 92 24 7f
        E 112 82 24 00
        E 32 b2 0b 7f
        E 0 92 2a 7f
        E 32 82 2a 00
        E 0 b2 0b 7f
        E 0 92 1b 7f
        E 16 82 1b 00
        E 96 b2 0b 7f
        E 0 92 24 7f
        E 112 82 24 00
        E 32 b2 0b 7f
        E 0 92 24 7f
        E 112 82 24 00
        E 32 b2 0b 7f
        E 0 92 24 7f
        E 400 82 24 00
        E 32 b2 0b 7f
        E 0 92 26 7f
        E 256 82 26 00
        E 32 b2 0b 7f
        E 0 92 28 7f
        E 112 82 28 00
        E 32 b2 0b 7f
        E 0 92 28 7f
        E 112 82 28 00
        E 32 b2 0b 7f
        E 0 92 28 7f
        E 112 82 28 00
        E 32 b2 0b 7f
        E 0 92 28 7f
        E 112 82 28 00
        E 32 b2 0b 7f
        E 0 92 2a 7f
        E 32 82 2a 00
        E 0 b2 0b 7f
        E 0 92 1b 7f
        E 16 82 1b 00
        E 0 b2 0b 7f
        E 0 92 28 7f
        E 64 82 28 00
        E 32 b2 0b 7f
        E 0 92 2a 7f
        E 32 82 2a 00
        E 0 b2 0b 7f
        E 0 92 1b 7f
        E 16 82 1b 00
        E 0 b2 0b 7f
        E 0 92 28 7f
        E 64 82 28 00
        E 32 b2 0b 7f
        E 0 92 28 7f
        E 112 82 28 00
        E 32 b2 0b 7f
        E 0 92 28 7f
        E 112 82 28 00
        E 32 b2 0b 7f
        E 0 92 2a 7f
        E 32 82 2a 00
        E 0 b2 0b 7f
        E 0 92 1b 7f
        E 16 82 1b 00
        E 0 b2 0b 7f
        E 0 92 28 7f
        E 64 82 28 00
        E 32 b2 0b 7f
        E 0 92 26 7f
        E 112 82 26 00
        E 32 b2 0b 7f
        E 0 92 26 7f
        E 112 82 26 00
        E 32 b2 0b 7f
        E 0 92 28 7f
        E 112 82 28 00
        E 32 b2 0b 7f
        E 0 92 2a 7f
        E 32 82 2a 00
        E 0 b2 0b 7f
        E 0 92 1b 7f
        E 16 82 1b 00
        E 0 b2 0b 7f
        E 0 92 28 7f
        E 64 82 28 00
        E 32 b2 0b 7f
        E 0 92 2a 7f
        E 32 82 2a 00
        E 0 b2 0b 7f
        E 0 92 1b 7f
        E 16 82 1b 00
        E 0 b2 0b 7f
        E 0 92 28 7f
        E 64 82 28 00
        E 32 b2 0b 7f
        E 0 92 26 7f
        E 112 82 26 00
        E 32 b2 0b 7f
        E 0 92 26 7f
        E 112 82 26 00
        E 32 b2 0b 7f
        E 0 92 2a 7f
        E 32 82 2a 00
        E 0 b2 0b 7f
        E 0 92 1b 7f
        E 16 82 1b 00
        E 0 b2 0b 7f
        E 0 92 24 7f
        E 64 82 24 00
        E 32 b2 0b 7f
        E 0 92 24 7f
        E 112 82 24 00
        E 32 b2 0b 7f
        E 0 92 24 7f
        E 112 82 24 00
        E 32 b2 0b 7f
        E 0 92 24 7f
        E 112 82 24 00
        E 32 b2 0b 7f
        E 0 92 2a 7f
        E 32 82 2a 00
        E 0 b2 0b 7f
        E 0 92 1b 7f
        E 16 82 1b 00
        E 0 b2 0b 7f
        E 0 92 24 7f
        E 64 82 24 00
        E 32 b2 0b 7f
        E 0 92 2a 7f
        E 32 82 2a 00
        E 0 b2 0b 7f
        E 0 92 1b 7f
        E 16 82 1b 00
        E 0 b2 0b 7f
        E 0 92 24 7f
        E 64 82 24 00
        E 32 b2 0b 7f
        E 0 92 24 7f
        E 112 82 24 00
        E 32 b2 0b 7f
        E 0 92 24 7f
        E 112 82 24 00
        E 32 b2 0b 7f
        E 0 92 24 7f
        E 112 82 24 00
        E 32 b2 0b 7f
        E 0 92 24 7f
        E 112 82 24 00
        E 32 b2 0b 7f
        E 0 92 24 7f
        E 112 82 24 00
        E 32 b2 0b 7f
        E 0 92 24 7f
        E 112 82 24 00
        E 32 b2 0b 7f
        E 0 92 24 7f
        E 112 82 24 00
        E 32 b2 0b 7f
        E 0 92 24 7f
        E 112 82 24 00
        E 32 b2 0b 7f
        E 0 92 26 7f
        E 112 82 26 00
        E 32 b2 0b 7f
        E 0 92 26 7f
        E 112 82 26 00
        E 32 b2 0b 7f
        E 0 92 2a 7f
        E 32 82 2a 00
        E 0 b2 0b 7f
        E 0 92 1b 7f
        E 16 82 1b 00
        E 0 b2 0b 7f
        E 0 92 28 7f
        E 64 82 28 00
        E 32 b2 0b 7f
        E 0 92 28 7f
        E 112 82 28 00
        E 32 b2 0b 7f
        E 0 92 28 7f
        E 112 82 28 00
        E 32 b2 0b 7f
        E 0 92 28 7f
        E 112 82 28 00
        E 32 b2 0b 7f
        E 0 92 2a 7f
        E 32 82 2a 00
        E 0 b2 0b 7f
        E 0 92 1b 7f
        E 16 82 1b 00
        E 0 b2 0b 7f
        E 0 92 28 7f
        E 64 82 28 00
        E 32 b2 0b 7f
        E 0 92 2a 7f
        E 32 82 2a 00
        E 0 b2 0b 7f
        E 0 92 1b 7f
        E 16 82 1b 00
        E 0 b2 0b 7f
        E 0 92 28 7f
        E 64 82 28 00
        E 32 b2 0b 7f
        E 0 92 28 7f
        E 112 82 28 00
        E 32 b2 0b 7f
        E 0 92 28 7f
        E 112 82 28 00
        E 32 b2 0b 7f
        E 0 92 2a 7f
        E 32 82 2a 00
        E 0 b2 0b 7f
        E 0 92 1b 7f
        E 16 82 1b 00
        E 0 b2 0b 7f
        E 0 92 28 7f
        E 64 82 28 00
        E 32 b2 0b 7f
        E 0 92 26 7f
        E 112 82 26 00
        E 32 b2 0b 7f
        E 0 92 26 7f
        E 112 82 26 00
        E 32 b2 0b 7f
        E 0 92 28 7f
        E 112 82 28 00
        E 32 b2 0b 7f
        E 0 92 2a 7f
        E 32 82 2a 00
        E 0 b2 0b 7f
        E 0 92 1b 7f
        E 16 82 1b 00
        E 0 b2 0b 7f
        E 0 92 28 7f
        E 64 82 28 00
        E 32 b2 0b 7f
        E 0 92 28 7f
        E 112 82 28 00
        E 32 b2 0b 7f
        E 0 92 26 7f
        E 112 82 26 00
        E 32 b2 0b 7f
        E 0 92 26 7f
        E 112 82 26 00
        E 32 b2 0b 7f
        E 0 92 28 7f
        E 112 82 28 00
        E 32 b2 0b 7f
        E 0 92 28 7f
        E 112 82 28 00
        E 32 b2 0b 7f
        E 0 92 28 7f
        E 112 82 28 00
        E 32 b2 0b 7f
        E 0 92 26 7f
        E 112 82 26 00
        E 32 b2 0b 7f
        E 0 92 26 7f
        E 112 82 26 00
        E 32 b2 0b 7f
        E 0 92 26 7f
        E 112 82 26 00
        E 32 b2 0b 7f
        E 0 92 24 7f
        E 112 82 24 00
        E 32 b2 0b 7f
        E 0 92 24 7f
        E 112 82 24 00
        E 32 b2 0b 7f
        E 0 92 24 7f
        E 112 82 24 00
        E 32 b2 0b 7f
        E 0 92 23 7f
        E 112 82 23 00
        E 32 b2 0b 7f
        E 0 92 23 7f
        E 112 82 23 00
        E 32 b2 0b 7f
        E 0 92 23 7f
        E 112 82 23 00
        E 32 b2 0b 7f
        E 0 92 23 7f
        E 112 82 23 00
        E 32 b2 0b 7f
        E 0 92 23 7f
        E 112 82 23 00
        E 32 b2 0b 7f
        E 0 92 26 7f
        E 112 82 26 00
        E 32 b2 0b 7f
        E 0 92 26 7f
        E 112 82 26 00
        E 32 b2 0b 7f
        E 0 92 28 7f
        E 112 82 28 00
        E 32 b2 0b 7f
        E 0 92 28 7f
        E 112 82 28 00
        E 32 b2 0b 7f
        E 0 92 28 7f
        E 112 82 28 00
        E 32 b2 0b 7f
        E 0 92 28 7f
        E 112 82 28 00
        E 32 b2 0b 7f
        E 0 92 28 7f
        E 112 82 28 00
        E 32 b2 0b 7f
        E 0 92 2a 7f
        E 16 82 2a 00
        E 0 b2 0b 7f
        E 0 92 28 7f
        E 96 82 28 00
        E 32 b2 0b 7f
        E 0 92 28 7f
        E 112 82 28 00
        E 32 b2 0b 7f
        E 0 92 28 7f
        E 112 82 28 00
        E 32 b2 0b 7f
        E 0 92 28 7f
        E 112 82 28 00
        E 32 b2 0b 7f
        E 0 92 28 7f
        E 112 82 28 00
        E 32 b2 0b 7f
        E 0 92 28 7f
        E 112 82 28 00
        E 32 b2 0b 7f
        E 0 92 28 7f
        E 112 82 28 00
        E 32 b2 0b 7f
        E 0 92 28 7f
        E 112 82 28 00
        E 32 b2 0b 7f
        E 0 92 28 7f
        E 112 82 28 00
        E 32 b2 0b 7f
        E 0 92 28 7f
        E 112 82 28 00
        E 32 b2 0b 7f
        E 0 92 28 7f
        E 112 82 28 00
        E 32 b2 0b 7f
        E 0 92 28 7f
        E 112 82 28 00
        E 32 b2 0b 7f
        E 0 92 28 7f
        E 112 82 28 00
        E 32 b2 0b 7f
        E 0 92 28 7f
        E 112 82 28 00
        E 32 b2 0b 7f
        E 0 92 28 7f
        E 112 82 28 00
        E 32 b2 0b 7f
        E 0 92 28 7f
        E 112 82 28 00
        E 32 b2 0b 7f
        E 0 92 28 7f
        E 112 82 28 00
        E 32 b2 0b 7f
        E 0 92 28 7f
        E 112 82 28 00
        E 32 b2 0b 7f
        E 0 92 28 7f
        E 112 82 28 00
        E 32 b2 0b 7f
        E 0 92 2a 7f
        E 16 82 2a 00
        E 0 b2 0b 7f
        E 0 92 28 7f
        E 96 82 28 00
        E 32 b2 0b 7f
        E 0 92 28 7f
        E 112 82 28 00
        E 32 b2 0b 7f
        E 0 92 28 7f
        E 112 82 28 00
        E 32 b2 0b 7f
        E 0 92 28 7f
        E 112 82 28 00
        E 32 b2 0b 7f
        E 0 92 28 7f
        E 112 82 28 00
        E 32 b2 0b 7f
        E 0 92 28 7f
        E 112 82 28 00
        E 32 b2 0b 7f
        E 0 92 26 7f
        E 112 82 26 00
        E 32 b2 0b 7f
        E 0 92 26 7f
        E 112 82 26 00
        E 32 b2 0b 7f
        E 0 92 24 7f
        E 112 82 24 00
        E 32 b2 0b 7f
        E 0 92 24 7f
        E 112 82 24 00
        E 32 b2 0b 7f
        E 0 92 2b 7f
        E 112 82 2b 00
        E 32 b2 0b 7f
        E 0 92 24 7f
        E 112 82 24 00
        E 32 b2 0b 7f
        E 0 92 24 7f
        E 112 82 24 00
        E 32 b2 0b 7f
        E 0 92 2b 7f
        E 112 82 2b 00
        E 32 b2 0b 7f
        E 0 92 24 7f
        E 112 82 24 00
        E 32 b2 0b 7f
        E 0 92 24 7f
        E 112 82 24 00
        E 32 b2 0b 7f
        E 0 92 2b 7f
        E 112 82 2b 00
        E 32 b2 0b 7f
        E 0 92 24 7f
        E 112 82 24 00
        E 32 b2 0b 7f
        E 0 92 24 7f
        E 112 82 24 00
        E 32 b2 0b 7f
        E 0 92 2b 7f
        E 112 82 2b 00
        E 32 b2 0b 7f
        E 0 92 26 7f
        E 112 82 26 00
        E 32 b2 0b 7f
        E 0 92 26 7f
        E 112 82 26 00
        E 32 b2 0b 7f
        E 0 92 2d 7f
        E 112 82 2d 00
        E 32 b2 0b 7f
        E 0 92 26 7f
        E 112 82 26 00
        E 32 b2 0b 7f
        E 0 92 28 7f
        E 112 82 28 00
        E 32 b2 0b 7f
        E 0 92 28 7f
        E 112 82 28 00
        E 32 b2 0b 7f
        E 0 92 28 7f
        E 112 82 28 00
        E 32 b2 0b 7f
        E 0 92 28 7f
        E 112 82 28 00
        E 32 b2 0b 7f
        E 0 92 28 7f
        E 112 82 28 00
        E 32 b2 0b 7f
        E 0 92 28 7f
        E 112 82 28 00
        E 32 b2 0b 7f
        E 0 92 28 7f
        E 112 82 28 00
        E 32 b2 0b 7f
        E 0 92 28 7f
        E 112 82 28 00
        E 32 b2 0b 7f
        E 0 92 28 7f
        E 112 82 28 00
        E 32 b2 0b 7f
        E 0 92 2a 7f
        E 112 82 2a 00
        E 32 b2 0b 7f
        E 0 92 28 7f
        E 112 82 28 00
        E 32 b2 0b 7f
        E 0 92 2b 7f
        E 112 82 2b 00
        E 32 b2 0b 7f
        E 0 92 28 7f
        E 112 82 28 00
        E 32 b2 0b 7f
        E 0 92 2b 7f
        E 112 82 2b 00
        E 32 b2 0b 7f
        E 0 92 28 7f
        E 112 82 28 00
        E 32 b2 0b 7f
        E 0 92 2f 7f
        E 112 82 2f 00
        E 32 b2 0b 7f
        E 0 92 28 7f
        E 112 82 28 00
        E 32 b2 0b 7f
        E 0 92 28 7f
        E 112 82 28 00
        E 32 b2 0b 7f
        E 0 92 28 7f
        E 112 82 28 00
        E 32 b2 0b 7f
        E 0 92 28 7f
        E 112 82 28 00
        E 32 b2 0b 7f
        E 0 92 28 7f
        E 112 82 28 00
        E 32 b2 0b 7f
        E 0 92 28 7f
        E 112 82 28 00
        E 32 b2 0b 7f
        E 0 92 28 7f
        E 112 82 28 00
        E 32 b2 0b 7f
        E 0 92 28 7f
        E 112 82 28 00
        E 32 b2 0b 7f
        E 0 92 28 7f
        E 112 82 28 00
        E 32 b2 0b 7f
        E 0 92 28 7f
        E 112 82 28 00
        E 32 b2 0b 7f
        E 0 92 28 7f
        E 112 82 28 00
        E 32 b2 0b 7f
        E 0 92 28 7f
        E 112 82 28 00
        E 32 b2 0b 7f
        E 0 92 28 7f
        E 112 82 28 00
        E 32 b2 0b 7f
        E 0 92 28 7f
        E 112 82 28 00
        E 32 b2 0b 7f
        E 0 92 28 7f
        E 112 82 28 00
        E 32 b2 0b 7f
        E 0 92 28 7f
        E 112 82 28 00
        E 32 b2 0b 7f
        E 0 92 28 7f
        E 112 82 28 00
        E 32 b2 0b 7f
        E 0 92 28 7f
        E 112 82 28 00
        E 32 b2 0b 7f
        E 0 92 28 7f
        E 112 82 28 00
        E 32 b2 0b 7f
        E 0 92 28 7f
        E 112 82 28 00
        E 32 b2 0b 7f
        E 0 92 28 7f
        E 112 82 28 00
        E 32 b2 0b 7f
        E 0 92 28 7f
        E 112 82 28 00
        E 32 b2 0b 7f
        E 0 92 28 7f
        E 112 82 28 00
        E 32 b2 0b 7f
        E 0 92 28 7f
        E 112 82 28 00
        E 32 b2 0b 7f
        E 0 92 28 7f
        E 112 82 28 00
        E 32 b2 0b 7f
        E 0 92 28 7f
        E 112 82 28 00
        E 32 b2 0b 7f
        E 0 92 28 7f
        E 112 82 28 00
        E 32 b2 0b 7f
        E 0 92 28 7f
        E 112 82 28 00
        E 32 b2 0b 7f
        E 0 92 28 7f
        E 112 82 28 00
        E 32 b2 0b 7f
        E 0 92 28 7f
        E 112 82 28 00
        E 32 b2 0b 7f
        E 0 92 26 7f
        E 112 82 26 00
        E 32 b2 0b 7f
        E 0 92 26 7f
        E 112 82 26 00
        E 32 b2 0b 7f
        E 0 92 24 7f
        E 112 82 24 00
        E 32 b2 0b 7f
        E 0 92 24 7f
        E 112 82 24 00
        E 32 b2 0b 7f
        E 0 92 2b 7f
        E 112 82 2b 00
        E 32 b2 0b 7f
        E 0 92 24 7f
        E 112 82 24 00
        E 32 b2 0b 7f
        E 0 92 24 7f
        E 112 82 24 00
        E 32 b2 0b 7f
        E 0 92 2b 7f
        E 112 82 2b 00
        E 32 b2 0b 7f
        E 0 92 24 7f
        E 112 82 24 00
        E 32 b2 0b 7f
        E 0 92 24 7f
        E 112 82 24 00
        E 32 b2 0b 7f
        E 0 92 2b 7f
        E 112 82 2b 00
        E 32 b2 0b 7f
        E 0 92 24 7f
        E 112 82 24 00
        E 32 b2 0b 7f
        E 0 92 24 7f
        E 112 82 24 00
        E 32 b2 0b 7f
        E 0 92 2b 7f
        E 112 82 2b 00
        E 32 b2 0b 7f
        E 0 92 26 7f
        E 112 82 26 00
        E 32 b2 0b 7f
        E 0 92 26 7f
        E 112 82 26 00
        E 32 b2 0b 7f
        E 0 92 2d 7f
        E 112 82 2d 00
        E 32 b2 0b 7f
        E 0 92 26 7f
        E 112 82 26 00
        E 32 b2 0b 7f
        E 0 92 28 7f
        E 112 82 28 00
        E 32 b2 0b 7f
        E 0 92 28 7f
        E 112 82 28 00
        E 32 b2 0b 7f
        E 0 92 28 7f
        E 112 82 28 00
        E 32 b2 0b 7f
        E 0 92 28 7f
        E 112 82 28 00
        E 32 b2 0b 7f
        E 0 92 2a 7f
        E 32 82 2a 00
        E 0 b2 0b 7f
        E 0 92 1b 7f
        E 16 82 1b 00
        E 0 b2 0b 7f
        E 0 92 28 7f
        E 64 82 28 00
        E 32 b2 0b 7f
        E 0 92 2a 7f
        E 32 82 2a 00
        E 0 b2 0b 7f
        E 0 92 1b 7f
        E 16 82 1b 00
        E 0 b2 0b 7f
        E 0 92 28 7f
        E 64 82 28 00
        E 32 b2 0b 7f
        E 0 92 28 7f
        E 112 82 28 00
        E 32 b2 0b 7f
        E 0 92 28 7f
        E 112 82 28 00
        E 32 b2 0b 7f
        E 0 92 26 7f
        E 112 82 26 00
        E 32 b2 0b 7f
        E 0 92 26 7f
        E 112 82 26 00
        E 32 b2 0b 7f
        E 0 92 26 7f
        E 112 82 26 00
        E 32 b2 0b 7f
        E 0 92 26 7f
        E 112 82 26 00
        E 32 b2 0b 7f
        E 0 92 33 7f
        E 80 82 33 00
        E 0 b2 0b 7f
        E 0 92 21 7f
        E 48 82 21 00
        E 16 b2 0b 7f
        E 0 92 2f 7f
        E 32 82 2f 00
        E 0 b2 0b 7f
        E 0 92 21 7f
        E 96 82 21 00
        E 16 b2 0b 7f
        E 0 92 2b 7f
        E 128 82 2b 00
        E 16 b2 0b 7f
        E 0 92 22 7f
        E 16 82 22 00
        E 0 b2 0b 7f
        E 0 92 1b 7f
        E 112 82 1b 00
        E 16 b2 0b 7f
        E 0 92 24 7f
        E 112 82 24 00
        E 32 b2 0b 7f
        E 0 92 24 7f
        E 112 82 24 00
        E 32 b2 0b 7f
        E 0 92 24 7f
        E 112 82 24 00
        E 32 b2 0b 7f
        E 0 92 24 7f
        E 112 82 24 00
        E 32 b2 0b 7f
        E 0 92 2a 7f
        E 32 82 2a 00
        E 0 b2 0b 7f
        E 0 92 1b 7f
        E 16 82 1b 00
        E 0 b2 0b 7f
        E 0 92 24 7f
        E 64 82 24 00
        E 32 b2 0b 7f
        E 0 92 2a 7f
        E 32 82 2a 00
        E 0 b2 0b 7f
        E 0 92 1b 7f
        E 16 82 1b 00
        E 0 b2 0b 7f
        E 0 92 24 7f
        E 64 82 24 00
        E 32 b2 0b 7f
        E 0 92 24 7f
        E 112 82 24 00
        E 32 b2 0b 7f
        E 0 92 2b 7f
        E 112 82 2b 00
        E 32 b2 0b 7f
        E 0 92 2a 7f
        E 32 82 2a 00
        E 0 b2 0b 7f
        E 0 92 1b 7f
        E 16 82 1b 00
        E 0 b2 0b 7f
        E 0 92 26 7f
        E 64 82 26 00
        E 32 b2 0b 7f
        E 0 92 26 7f
        E 112 82 26 00
        E 32 b2 0b 7f
        E 0 92 26 7f
        E 112 82 26 00
        E 32 b2 0b 7f
        E 0 92 26 7f
        E 112 82 26 00
        E 32 b2 0b 7f
        E 0 92 2a 7f
        E 32 82 2a 00
        E 0 b2 0b 7f
        E 0 92 1b 7f
        E 16 82 1b 00
        E 0 b2 0b 7f
        E 0 92 26 7f
        E 64 82 26 00
        E 32 b2 0b 7f
        E 0 92 2a 7f
        E 32 82 2a 00
        E 0 b2 0b 7f
        E 0 92 1b 7f
        E 16 82 1b 00
        E 0 b2 0b 7f
        E 0 92 26 7f
        E 64 82 26 00
        E 32 b2 0b 7f
        E 0 92 26 7f
        E 112 82 26 00
        E 32 b2 0b 7f
        E 0 92 2d 7f
        E 112 82 2d 00
        E 32 b2 0b 7f
        E 0 92 2a 7f
        E 32 82 2a 00
        E 0 b2 0b 7f
        E 0 92 1b 7f
        E 16 82 1b 00
        E 0 b2 0b 7f
        E 0 92 24 7f
        E 64 82 24 00
        E 32 b2 0b 7f
        E 0 92 24 7f
        E 112 82 24 00
        E 32 b2 0b 7f
        E 0 92 24 7f
        E 112 82 24 00
        E 32 b2 0b 7f
        E 0 92 24 7f
        E 112 82 24 00
        E 32 b2 0b 7f
        E 0 92 2a 7f
        E 32 82 2a 00
        E 0 b2 0b 7f
        E 0 92 1b 7f
        E 16 82 1b 00
        E 0 b2 0b 7f
        E 0 92 24 7f
        E 64 82 24 00
        E 32 b2 0b 7f
        E 0 92 2a 7f
        E 32 82 2a 00
        E 0 b2 0b 7f
        E 0 92 1b 7f
        E 16 82 1b 00
        E 0 b2 0b 7f
        E 0 92 24 7f
        E 64 82 24 00
        E 32 b2 0b 7f
        E 0 92 24 7f
        E 112 82 24 00
        E 32 b2 0b 7f
        E 0 92 2b 7f
        E 112 82 2b 00
        E 32 b2 0b 7f
        E 0 92 2a 7f
        E 32 82 2a 00
        E 0 b2 0b 7f
        E 0 92 1b 7f
        E 16 82 1b 00
        E 0 b2 0b 7f
        E 0 92 26 7f
        E 64 82 26 00
        E 32 b2 0b 7f
        E 0 92 26 7f
        E 112 82 26 00
        E 32 b2 0b 7f
        E 0 92 26 7f
        E 112 82 26 00
        E 32 b2 0b 7f
        E 0 92 26 7f
        E 112 82 26 00
        E 32 b2 0b 7f
        E 0 92 2a 7f
        E 32 82 2a 00
        E 0 b2 0b 7f
        E 0 92 1b 7f
        E 16 82 1b 00
        E 0 b2 0b 7f
        E 0 92 26 7f
        E 64 82 26 00
        E 32 b2 0b 7f
        E 0 92 2a 7f
        E 32 82 2a 00
        E 0 b2 0b 7f
        E 0 92 1b 7f
        E 16 82 1b 00
        E 0 b2 0b 7f
        E 0 92 26 7f
        E 64 82 26 00
        E 32 b2 0b 7f
        E 0 92 26 7f
        E 112 82 26 00
        E 32 b2 0b 7f
        E 0 92 2d 7f
        E 112 82 2d 00
        E 32 b2 0b 7f
        E 0 92 2a 7f
        E 32 82 2a 00
        E 0 b2 0b 7f
        E 0 92 1b 7f
        E 16 82 1b 00
        E 0 b2 0b 7f
        E 0 92 24 7f
        E 64 82 24 00
        E 32 b2 0b 7f
        E 0 92 24 7f
        E 112 82 24 00
        E 32 b2 0b 7f
        E 0 92 24 7f
        E 112 82 24 00
        E 32 b2 0b 7f
        E 0 92 24 7f
        E 112 82 24 00
        E 32 b2 0b 7f
        E 0 92 24 7f
        E 112 82 24 00
        E 32 b2 0b 7f
        E 0 92 24 7f
        E 112 82 24 00
        E 32 b2 0b 7f
        E 0 92 24 7f
        E 112 82 24 00
        E 32 b2 0b 7f
        E 0 92 2b 7f
        E 112 82 2b 00
        E 32 b2 0b 7f
        E 0 92 26 7f
        E 112 82 26 00
        E 32 b2 0b 7f
        E 0 92 26 7f
        E 112 82 26 00
        E 32 b2 0b 7f
        E 0 92 26 7f
        E 112 82 26 00
        E 32 b2 0b 7f
        E 0 92 26 7f
        E 112 82 26 00
        E 32 b2 0b 7f
        E 0 92 2a 7f
        E 32 82 2a 00
        E 0 b2 0b 7f
        E 0 92 1b 7f
        E 16 82 1b 00
        E 0 b2 0b 7f
        E 0 92 26 7f
        E 64 82 26 00
        E 32 b2 0b 7f
        E 0 92 2a 7f
        E 32 82 2a 00
        E 0 b2 0b 7f
        E 0 92 1b 7f
        E 16 82 1b 00
        E 0 b2 0b 7f
        E 0 92 26 7f
        E 64 82 26 00
        E 32 b2 0b 7f
        E 0 92 26 7f
        E 112 82 26 00
        E 32 b2 0b 7f
        E 0 92 2d 7f
        E 112 82 2d 00
        E 32 b2 0b 7f
        E 0 92 2a 7f
        E 32 82 2a 00
        E 0 b2 0b 7f
        E 0 92 1b 7f
        E 16 82 1b 00
        E 0 b2 0b 7f
        E 0 92 24 7f
        E 64 82 24 00
        E 32 b2 0b 7f
        E 0 92 24 7f
        E 112 82 24 00
        E 32 b2 0b 7f
        E 0 92 24 7f
        E 112 82 24 00
        E 32 b2 0b 7f
        E 0 92 24 7f
        E 112 82 24 00
        E 32 b2 0b 7f
        E 0 92 2a 7f
        E 32 82 2a 00
        E 0 b2 0b 7f
        E 0 92 1b 7f
        E 16 82 1b 00
        E 0 b2 0b 7f
        E 0 92 24 7f
        E 64 82 24 00
        E 32 b2 0b 7f
        E 0 92 2a 7f
        E 32 82 2a 00
        E 0 b2 0b 7f
        E 0 92 1b 7f
        E 16 82 1b 00
        E 0 b2 0b 7f
        E 0 92 24 7f
        E 64 82 24 00
        E 32 b2 0b 7f
        E 0 92 24 7f
        E 112 82 24 00
        E 32 b2 0b 7f
        E 0 92 2b 7f
        E 112 82 2b 00
        E 32 b2 0b 7f
        E 0 92 2a 7f
        E 32 82 2a 00
        E 0 b2 0b 7f
        E 0 92 1b 7f
        E 16 82 1b 00
        E 0 b2 0b 7f
        E 0 92 26 7f
        E 64 82 26 00
        E 32 b2 0b 7f
        E 0 92 26 7f
        E 112 82 26 00
        E 32 b2 0b 7f
        E 0 92 26 7f
        E 112 82 26 00
        E 32 b2 0b 7f
        E 0 92 26 7f
        E 112 82 26 00
        E 32 b2 0b 7f
        E 0 92 2a 7f
        E 32 82 2a 00
        E 0 b2 0b 7f
        E 0 92 1b 7f
        E 16 82 1b 00
        E 0 b2 0b 7f
        E 0 92 26 7f
        E 64 82 26 00
        E 32 b2 0b 7f
        E 0 92 2a 7f
        E 32 82 2a 00
        E 0 b2 0b 7f
        E 0 92 1b 7f
        E 16 82 1b 00
        E 0 b2 0b 7f
        E 0 92 26 7f
        E 64 82 26 00
        E 32 b2 0b 7f
        E 0 92 26 7f
        E 112 82 26 00
        E 32 b2 0b 7f
        E 0 92 2d 7f
        E 112 82 2d 00
        E 32 b2 0b 7f
        E 0 92 24 7f
        E 112 82 24 00
        E 32 b2 0b 7f
        E 0 92 24 7f
        E 112 82 24 00
        E 32 b2 0b 7f
        E 0 92 24 7f
        E 112 82 24 00
        E 32 b2 0b 7f
        E 0 92 24 7f
        E 112 82 24 00
        E 32 b2 0b 7f
        E 0 92 24 7f
        E 112 82 24 00
        E 32 b2 0b 7f
        E 0 92 24 7f
        E 112 82 24 00
        E 32 b2 0b 7f
        E 0 92 24 7f
        E 112 82 24 00
        E 32 b2 0b 7f
        E 0 92 2b 7f
        E 112 82 2b 00
        E 32 b2 0b 7f
        E 0 92 26 7f
        E 112 82 26 00
        E 32 b2 0b 7f
        E 0 92 26 7f
        E 112 82 26 00
        E 32 b2 0b 7f
        E 0 92 26 7f
        E 112 82 26 00
        E 32 b2 0b 7f
        E 0 92 26 7f
        E 112 82 26 00
        E 32 b2 0b 7f
        E 0 92 2a 7f
        E 32 82 2a 00
        E 0 b2 0b 7f
        E 0 92 1b 7f
        E 16 82 1b 00
        E 0 b2 0b 7f
        E 0 92 26 7f
        E 64 82 26 00
        E 32 b2 0b 7f
        E 0 92 2a 7f
        E 32 82 2a 00
        E 0 b2 0b 7f
        E 0 92 1b 7f
        E 16 82 1b 00
        E 0 b2 0b 7f
        E 0 92 26 7f
        E 64 82 26 00
        E 32 b2 0b 7f
        E 0 92 26 7f
        E 112 82 26 00
        E 32 b2 0b 7f
        E 0 92 2d 7f
        E 112 82 2d 00
        E 32 b2 0b 7f
        E 0 92 24 7f
        E 112 82 24 00
        E 32 b2 0b 7f
        E 0 92 24 7f
        E 112 82 24 00
        E 32 b2 0b 7f
        E 0 92 24 7f
        E 112 82 24 00
        E 32 b2 0b 7f
        E 0 92 24 7f
        E 112 82 24 00
        E 32 b2 0b 7f
        E 0 92 24 7f
        E 112 82 24 00
        E 32 b2 0b 7f
        E 0 92 24 7f
        E 112 82 24 00
        E 32 b2 0b 7f
        E 0 92 24 7f
        E 112 82 24 00
        E 32 b2 0b 7f
        E 0 92 2b 7f
        E 112 82 2b 00
        E 32 b2 0b 7f
        E 0 92 26 7f
        E 112 82 26 00
        E 32 b2 0b 7f
        E 0 92 26 7f
        E 112 82 26 00
        E 32 b2 0b 7f
        E 0 92 26 7f
        E 112 82 26 00
        E 32 b2 0b 7f
        E 0 92 26 7f
        E 112 82 26 00
        E 32 b2 0b 7f
        E 0 92 26 7f
        E 112 82 26 00
        E 32 b2 0b 7f
        E 0 92 26 7f
        E 112 82 26 00
        E 32 b2 0b 7f
        E 0 92 26 7f
        E 112 82 26 00
        E 32 b2 0b 7f
        E 0 92 2d 7f
        E 112 82 2d 00
        E 32 b2 0b 7f
        E 0 92 24 7f
        E 112 82 24 00
        E 32 b2 0b 7f
        E 0 92 24 7f
        E 112 82 24 00
        E 32 b2 0b 7f
        E 0 92 24 7f
        E 112 82 24 00
        E 32 b2 0b 7f
        E 0 92 24 7f
        E 112 82 24 00
        E 32 b2 0b 7f
        E 0 92 24 7f
        E 112 82 24 00
        E 32 b2 0b 7f
        E 0 92 24 7f
        E 112 82 24 00
        E 32 b2 0b 7f
        E 0 92 24 7f
        E 112 82 24 00
        E 32 b2 0b 7f
        E 0 92 2b 7f
        E 112 82 2b 00
        E 32 b2 0b 7f
        E 0 92 26 7f
        E 112 82 26 00
        E 32 b2 0b 7f
        E 0 92 26 7f
        E 112 82 26 00
        E 32 b2 0b 7f
        E 0 92 26 7f
        E 112 82 26 00
        E 32 b2 0b 7f
        E 0 92 26 7f
        E 112 82 26 00
        E 32 b2 0b 7f
        E 0 92 26 7f
        E 112 82 26 00
        E 32 b2 0b 7f
        E 0 92 26 7f
        E 112 82 26 00
        E 32 b2 0b 7f
        E 0 92 26 7f
        E 112 82 26 00
        E 32 b2 0b 7f
        E 0 92 2d 7f
        E 112 82 2d 00
        E 32 b2 0b 7f
        E 0 92 28 7f
        E 112 82 28 00
        E 32 b2 0b 7f
        E 0 92 28 7f
        E 112 82 28 00
        E 32 b2 0b 7f
        E 0 92 28 7f
        E 112 82 28 00
        E 32 b2 0b 7f
        E 0 92 28 7f
        E 112 82 28 00
        E 32 b2 0b 7f
        E 0 92 28 7f
        E 112 82 28 00
        E 32 b2 0b 7f
        E 0 92 28 7f
        E 112 82 28 00
        E 32 b2 0b 7f
        E 0 92 28 7f
        E 112 82 28 00
        E 32 b2 0b 7f
        E 0 92 2f 7f
        E 112 82 2f 00
        E 32 b2 0b 7f
        E 0 92 23 7f
        E 112 82 23 00
        E 32 b2 0b 7f
        E 0 92 23 7f
        E 112 82 23 00
        E 32 b2 0b 7f
        E 0 92 23 7f
        E 112 82 23 00
        E 32 b2 0b 7f
        E 0 92 23 7f
        E 112 82 23 00
        E 32 b2 0b 7f
        E 0 92 23 7f
        E 112 82 23 00
        E 32 b2 0b 7f
        E 0 92 23 7f
        E 112 82 23 00
        E 32 b2 0b 7f
        E 0 92 23 7f
        E 112 82 23 00
        E 32 b2 0b 7f
        E 0 92 2a 7f
        E 112 82 2a 00
        E 32 b2 0b 7f
        E 0 92 28 7f
        E 112 82 28 00
        E 176 b2 0b 7f
        E 0 92 2a 7f
        E 32 82 2a 00
        E 0 b2 0b 7f
        E 0 92 1b 7f
        E 16 82 1b 00
        E 0 b2 0b 7f
        E 0 92 28 7f
        E 64 82 28 00
        E 32 b2 0b 7f
        E 0 92 28 7f
        E 112 82 28 00
        E 176 b2 0b 7f
        E 0 92 28 7f
        E 112 82 28 00
        E 176 b2 0b 7f
        E 0 92 28 7f
        E 112 82 28 00
        E 176 b2 0b 7f
        E 0 92 26 7f
        E 112 82 26 00
        E 32 b2 0b 7f
        E 0 92 26 7f
        E 112 82 26 00
        E 32 b2 0b 7f
        E 0 92 28 7f
        E 400 82 28 00
        E 32 b2 0b 7f
        E 0 92 26 7f
        E 256 82 26 00
        E 32 b2 0b 7f
        E 0 92 24 7f
        E 112 82 24 00
        E 176 b2 0b 7f
        E 0 92 24 7f
        E 112 82 24 00
        E 32 b2 0b 7f
        E 0 92 24 7f
        E 112 82 24 00
        E 32 b2 0b 7f
        E 0 92 2a 7f
        E 32 82 2a 00
        E 0 b2 0b 7f
        E 0 92 1b 7f
        E 16 82 1b 00
        E 96 b2 0b 7f
        E 0 92 24 7f
        E 112 82 24 00
        E 176 b2 0b 7f
        E 0 92 24 7f
        E 112 82 24 00
        E 32 b2 0b 7f
        E 0 92 2a 7f
        E 32 82 2a 00
        E 0 b2 0b 7f
        E 0 92 1b 7f
        E 16 82 1b 00
        E 96 b2 0b 7f
        E 0 92 24 7f
        E 112 82 24 00
        E 32 b2 0b 7f
        E 0 92 24 7f
        E 112 82 24 00
        E 32 b2 0b 7f
        E 0 92 24 7f
        E 400 82 24 00
        E 32 b2 0b 7f
        E 0 92 26 7f
        E 256 82 26 00
        E 32 b2 0b 7f
        E 0 92 28 7f
        E 112 82 28 00
        E 32 b2 0b 7f
        E 0 92 28 7f
        E 112 82 28 00
        E 32 b2 0b 7f
        E 0 92 28 7f
        E 112 82 28 00
        E 32 b2 0b 7f
        E 0 92 28 7f
        E 112 82 28 00
        E 32 b2 0b 7f
        E 0 92 28 7f
        E 112 82 28 00
        E 32 b2 0b 7f
        E 0 92 28 7f
        E 112 82 28 00
        E 32 b2 0b 7f
        E 0 92 28 7f
        E 112 82 28 00
        E 32 b2 0b 7f
        E 0 92 28 7f
        E 112 82 28 00
        E 32 b2 0b 7f
        E 0 92 28 7f
        E 112 82 28 00
        E 32 b2 0b 7f
        E 0 92 26 7f
        E 112 82 26 00
        E 32 b2 0b 7f
        E 0 92 26 7f
        E 112 82 26 00
        E 32 b2 0b 7f
        E 0 92 28 7f
        E 112 82 28 00
        E 32 b2 0b 7f
        E 0 92 2a 7f
        E 32 82 2a 00
        E 0 b2 0b 7f
        E 0 92 1b 7f
        E 16 82 1b 00
        E 0 b2 0b 7f
        E 0 92 28 7f
        E 64 82 28 00
        E 32 b2 0b 7f
        E 0 92 28 7f
        E 112 82 28 00
        E 32 b2 0b 7f
        E 0 92 26 7f
        E 112 82 26 00
        E 32 b2 0b 7f
        E 0 92 26 7f
        E 112 82 26 00
        E 32 b2 0b 7f
        E 0 92 24 7f
        E 112 82 24 00
        E 32 b2 0b 7f
        E 0 92 24 7f
        E 112 82 24 00
        E 32 b2 0b 7f
        E 0 92 24 7f
        E 112 82 24 00
        E 32 b2 0b 7f
        E 0 92 24 7f
        E 112 82 24 00
        E 32 b2 0b 7f
        E 0 92 2a 7f
        E 32 82 2a 00
        E 0 b2 0b 7f
        E 0 92 1b 7f
        E 16 82 1b 00
        E 0 b2 0b 7f
        E 0 92 24 7f
        E 64 82 24 00
        E 32 b2 0b 7f
        E 0 92 2a 7f
        E 32 82 2a 00
        E 0 b2 0b 7f
        E 0 92 1b 7f
        E 16 82 1b 00
        E 0 b2 0b 7f
        E 0 92 24 7f
        E 64 82 24 00
        E 32 b2 0b 7f
        E 0 92 24 7f
        E 112 82 24 00
        E 32 b2 0b 7f
        E 0 92 24 7f
        E 112 82 24 00
        E 32 b2 0b 7f
        E 0 92 2a 7f
        E 32 82 2a 00
        E 0 b2 0b 7f
        E 0 92 1b 7f
        E 16 82 1b 00
        E 0 b2 0b 7f
        E 0 92 24 7f
        E 64 82 24 00
        E 32 b2 0b 7f
        E 0 92 24 7f
        E 112 82 24 00
        E 32 b2 0b 7f
        E 0 92 24 7f
        E 112 82 24 00
        E 32 b2 0b 7f
        E 0 92 24 7f
        E 112 82 24 00
        E 32 b2 0b 7f
        E 0 92 2a 7f
        E 32 82 2a 00
        E 0 b2 0b 7f
        E 0 92 1b 7f
        E 16 82 1b 00
        E 0 b2 0b 7f
        E 0 92 24 7f
        E 64 82 24 00
        E 32 b2 0b 7f
        E 0 92 2a 7f
        E 32 82 2a 00
        E 0 b2 0b 7f
        E 0 92 1b 7f
        E 16 82 1b 00
        E 0 b2 0b 7f
        E 0 92 24 7f
        E 64 82 24 00
        E 32 b2 0b 7f
        E 0 92 26 7f
        E 112 82 26 00
        E 32 b2 0b 7f
        E 0 92 26 7f
        E 112 82 26 00
        E 32 b2 0b 7f
        E 0 92 2a 7f
        E 32 82 2a 00
        E 0 b2 0b 7f
        E 0 92 1b 7f
        E 16 82 1b 00
        E 0 b2 0b 7f
        E 0 92 28 7f
        E 64 82 28 00
        E 32 b2 0b 7f
        E 0 92 28 7f
        E 112 82 28 00
        E 32 b2 0b 7f
        E 0 92 28 7f
        E 112 82 28 00
        E 32 b2 0b 7f
        E 0 92 28 7f
        E 112 82 28 00
        E 32 b2 0b 7f
        E 0 92 2a 7f
        E 32 82 2a 00
        E 0 b2 0b 7f
        E 0 92 1b 7f
        E 16 82 1b 00
        E 0 b2 0b 7f
        E 0 92 28 7f
        E 64 82 28 00
        E 32 b2 0b 7f
        E 0 92 2a 7f
        E 32 82 2a 00
        E 0 b2 0b 7f
        E 0 92 1b 7f
        E 16 82 1b 00
        E 0 b2 0b 7f
        E 0 92 28 7f
        E 64 82 28 00
        E 32 b2 0b 7f
        E 0 92 28 7f
        E 112 82 28 00
        E 32 b2 0b 7f
        E 0 92 28 7f
        E 112 82 28 00
        E 32 b2 0b 7f
        E 0 92 2a 7f
        E 32 82 2a 00
        E 0 b2 0b 7f
        E 0 92 1b 7f
        E 16 82 1b 00
        E 0 b2 0b 7f
        E 0 92 28 7f
        E 64 82 28 00
        E 32 b2 0b 7f
        E 0 92 26 7f
        E 112 82 26 00
        E 32 b2 0b 7f
        E 0 92 26 7f
        E 112 82 26 00
        E 32 b2 0b 7f
        E 0 92 28 7f
        E 112 82 28 00
        E 32 b2 0b 7f
        E 0 92 2a 7f
        E 32 82 2a 00
        E 0 b2 0b 7f
        E 0 92 1b 7f
        E 16 82 1b 00
        E 0 b2 0b 7f
        E 0 92 28 7f
        E 64 82 28 00
        E 32 b2 0b 7f
        E 0 92 28 7f
        E 112 82 28 00
        E 32 b2 0b 7f
        E 0 92 26 7f
        E 112 82 26 00
        E 32 b2 0b 7f
        E 0 92 26 7f
        E 112 82 26 00
        E 32 b2 0b 7f
        E 0 92 28 7f
        E 112 82 28 00
        E 32 b2 0b 7f
        E 0 92 28 7f
        E 112 82 28 00
        E 32 b2 0b 7f
        E 0 92 28 7f
        E 112 82 28 00
        E 32 b2 0b 7f
        E 0 92 26 7f
        E 112 82 26 00
        E 32 b2 0b 7f
        E 0 92 26 7f
        E 112 82 26 00
        E 32 b2 0b 7f
        E 0 92 26 7f
        E 112 82 26 00
        E 32 b2 0b 7f
        E 0 92 24 7f
        E 112 82 24 00
        E 32 b2 0b 7f
        E 0 92 24 7f
        E 112 82 24 00
        E 32 b2 0b 7f
        E 0 92 24 7f
        E 112 82 24 00
        E 32 b2 0b 7f
        E 0 92 2a 7f
        E 32 82 2a 00
        E 0 b2 0b 7f
        E 0 92 1b 7f
        E 16 82 1b 00
        E 0 b2 0b 7f
        E 0 92 23 7f
        E 64 82 23 00
        E 32 b2 0b 7f
        E 0 92 23 7f
        E 112 82 23 00
        E 32 b2 0b 7f
        E 0 92 23 7f
        E 112 82 23 00
        E 32 b2 0b 7f
        E 0 92 23 7f
        E 112 82 23 00
        E 32 b2 0b 7f
        E 0 92 23 7f
        E 112 82 23 00
        E 32 b2 0b 7f
        E 0 92 26 7f
        E 112 82 26 00
        E 32 b2 0b 7f
        E 0 92 26 7f
        E 112 82 26 00
        E 32 b2 0b 7f
        E 0 92 28 7f
        E 112 82 28 00
        E 32 b2 0b 7f
        E 0 92 28 7f
        E 112 82 28 00
        E 32 b2 0b 7f
        E 0 92 28 7f
        E 112 82 28 00
        E 32 b2 0b 7f
        E 0 92 28 7f
        E 112 82 28 00
        E 32 b2 0b 7f
        E 0 92 2a 7f
        E 32 82 2a 00
        E 0 b2 0b 7f
        E 0 92 1b 7f
        E 16 82 1b 00
        E 0 b2 0b 7f
        E 0 92 28 7f
        E 64 82 28 00
        E 32 b2 0b 7f
        E 0 92 2a 7f
        E 32 82 2a 00
        E 0 b2 0b 7f
        E 0 92 1b 7f
        E 16 82 1b 00
        E 0 b2 0b 7f
        E 0 92 28 7f
        E 64 82 28 00
        E 32 b2 0b 7f
        E 0 92 28 7f
        E 112 82 28 00
        E 32 b2 0b 7f
        E 0 92 28 7f
        E 112 82 28 00
        E 32 b2 0b 7f
        E 0 92 2a 7f
        E 32 82 2a 00
        E 0 b2 0b 7f
        E 0 92 1b 7f
        E 16 82 1b 00
        E 0 b2 0b 7f
        E 0 92 28 7f
        E 64 82 28 00
        E 32 b2 0b 7f
        E 0 92 28 7f
        E 112 82 28 00
        E 32 b2 0b 7f
        E 0 92 28 7f
        E 112 82 28 00
        E 32 b2 0b 7f
        E 0 92 28 7f
        E 112 82 28 00
        E 32 b2 0b 7f
        E 0 92 28 7f
        E 112 82 28 00
        E 32 b2 0b 7f
        E 0 92 28 7f
        E 112 82 28 00
        E 32 b2 0b 7f
        E 0 92 28 7f
        E 112 82 28 00
        E 32 b2 0b 7f
        E 0 92 28 7f
        E 112 82 28 00
        E 32 b2 0b 7f
        E 0 92 28 7f
        E 112 82 28 00
        E 32 b2 0b 7f
        E 0 92 28 7f
        E 112 82 28 00
        E 32 b2 0b 7f
        E 0 92 28 7f
        E 112 82 28 00
        E 32 b2 0b 7f
        E 0 92 28 7f
        E 112 82 28 00
        E 32 b2 0b 7f
        E 0 92 2a 7f
        E 32 82 2a 00
        E 0 b2 0b 7f
        E 0 92 1b 7f
        E 16 82 1b 00
        E 0 b2 0b 7f
        E 0 92 28 7f
        E 64 82 28 00
        E 32 b2 0b 7f
        E 0 92 2a 7f
        E 32 82 2a 00
        E 0 b2 0b 7f
        E 0 92 1b 7f
        E 16 82 1b 00
        E 0 b2 0b 7f
        E 0 92 28 7f
        E 64 82 28 00
        E 32 b2 0b 7f
        E 0 92 28 7f
        E 112 82 28 00
        E 32 b2 0b 7f
        E 0 92 28 7f
        E 112 82 28 00
        E 32 b2 0b 7f
        E 0 92 2a 7f
        E 32 82 2a 00
        E 0 b2 0b 7f
        E 0 92 1b 7f
        E 16 82 1b 00
        E 0 b2 0b 7f
        E 0 92 28 7f
        E 64 82 28 00
        E 32 b2 0b 7f
        E 0 92 28 7f
        E 112 82 28 00
        E 32 b2 0b 7f
        E 0 92 28 7f
        E 112 82 28 00
        E 32 b2 0b 7f
        E 0 92 28 7f
        E 112 82 28 00
        E 32 b2 0b 7f
        E 0 92 2a 7f
        E 32 82 2a 00
        E 0 b2 0b 7f
        E 0 92 1b 7f
        E 16 82 1b 00
        E 0 b2 0b 7f
        E 0 92 28 7f
        E 64 82 28 00
        E 32 b2 0b 7f
        E 0 92 2a 7f
        E 32 82 2a 00
        E 0 b2 0b 7f
        E 0 92 1b 7f
        E 16 82 1b 00
        E 0 b2 0b 7f
        E 0 92 28 7f
        E 64 82 28 00
        E 32 b2 0b 7f
        E 0 92 26 7f
        E 112 82 26 00
        E 32 b2 0b 7f
        E 0 92 26 7f
        E 112 82 26 00
        E 32 b2 0b 7f
        E 0 92 24 7f
        E 112 82 24 00
        E 32 b2 0b 7f
        E 0 92 24 7f
        E 112 82 24 00
        E 32 b2 0b 7f
        E 0 92 2b 7f
        E 112 82 2b 00
        E 32 b2 0b 7f
        E 0 92 24 7f
        E 112 82 24 00
        E 32 b2 0b 7f
        E 0 92 24 7f
        E 112 82 24 00
        E 32 b2 0b 7f
        E 0 92 2b 7f
        E 112 82 2b 00
        E 32 b2 0b 7f
        E 0 92 24 7f
        E 112 82 24 00
        E 32 b2 0b 7f
        E 0 92 24 7f
        E 112 82 24 00
        E 32 b2 0b 7f
        E 0 92 2b 7f
        E 112 82 2b 00
        E 32 b2 0b 7f
        E 0 92 24 7f
        E 112 82 24 00
        E 32 b2 0b 7f
        E 0 92 24 7f
        E 112 82 24 00
        E 32 b2 0b 7f
        E 0 92 2b 7f
        E 112 82 2b 00
        E 32 b2 0b 7f
        E 0 92 26 7f
        E 112 82 26 00
        E 32 b2 0b 7f
        E 0 92 26 7f
        E 112 82 26 00
        E 32 b2 0b 7f
        E 0 92 2d 7f
        E 112 82 2d 00
        E 32 b2 0b 7f
        E 0 92 26 7f
        E 112 82 26 00
        E 32 b2 0b 7f
        E 0 92 28 7f
        E 112 82 28 00
        E 32 b2 0b 7f
        E 0 92 28 7f
        E 112 82 28 00
        E 32 b2 0b 7f
        E 0 92 28 7f
        E 112 82 28 00
        E 32 b2 0b 7f
        E 0 92 28 7f
        E 112 82 28 00
        E 32 b2 0b 7f
        E 0 92 28 7f
        E 112 82 28 00
        E 32 b2 0b 7f
        E 0 92 28 7f
        E 112 82 28 00
        E 32 b2 0b 7f
        E 0 92 28 7f
        E 112 82 28 00
        E 32 b2 0b 7f
        E 0 92 28 7f
        E 112 82 28 00
        E 32 b2 0b 7f
        E 0 92 28 7f
        E 112 82 28 00
        E 32 b2 0b 7f
        E 0 92 2a 7f
        E 112 82 2a 00
        E 32 b2 0b 7f
        E 0 92 28 7f
        E 112 82 28 00
        E 32 b2 0b 7f
        E 0 92 2b 7f
        E 112 82 2b 00
        E 32 b2 0b 7f
        E 0 92 28 7f
        E 112 82 28 00
        E 32 b2 0b 7f
        E 0 92 2b 7f
        E 112 82 2b 00
        E 32 b2 0b 7f
        E 0 92 28 7f
        E 112 82 28 00
        E 32 b2 0b 7f
        E 0 92 2f 7f
        E 112 82 2f 00
        E 32 b2 0b 7f
        E 0 92 28 7f
        E 112 82 28 00
        E 32 b2 0b 7f
        E 0 92 28 7f
        E 112 82 28 00
        E 32 b2 0b 7f
        E 0 92 28 7f
        E 112 82 28 00
        E 32 b2 0b 7f
        E 0 92 28 7f
        E 112 82 28 00
        E 32 b2 0b 7f
        E 0 92 28 7f
        E 80 82 28 00
        E 0 b2 7b 00
        E 0 ff 2f 00
      >
    >
  >
  <TRACK {0BAC32DE-5D56-4799-8480-8D0CED17E540}
    NAME "NES - Noise / Drums [ch3]"
    PEAKCOL 11184810
    BEAT -1
    AUTOMODE 0
    PANLAWFLAGS 3
    VOLPAN 1 0 -1 -1 1
    MUTESOLO 0 0 0
    IPHASE 0
    PLAYOFFS 0 1
    ISBUS 0 0
    BUSCOMP 0 0 0 0 0
    SHOWINMIX 1 0.6667 0.5 1 0.5 0 0 0
    FIXEDLANES 9 0 0 0 0
    SEL 0
    REC 0 5088 1 0 0 0 0 0
    VU 2
    TRACKHEIGHT 0 0 0 0 0 0 0
    INQ 0 0 0 0.5 100 0 0 100
    NCHAN 2
    FX 1
    TRACKID {0BAC32DE-5D56-4799-8480-8D0CED17E540}
    PERF 0
    MIDIOUT -1
    MAINSEND 1 0
    <FXCHAIN
      WNDRECT 24 52 700 560
      SHOW 0
      LASTSEL 0
      DOCKED 0
      BYPASS 0 0 0
      <JS "ReapNES Studio/ReapNES_Console.jsfx" ""
        2 15 1 10 80 10 100 2 1 15 1 5 60 10 80 1 1 0 50 0 0 15 1 0 100 0 0 0.500000 0.500000 0.400000 0.300000 0.800000 3 1 0 0 0 0 - - - - - - - - - - - - - - - - - - - - - - - - - -
      >
      FLOATPOS 0 0 0 0
      FXID {C24C309F-5953-4064-AAB2-7860B7230F4E}
      WAK 0 0
    >
    <ITEM
      POSITION 0
      LENGTH 72.3017129
      LOOP 0
      ALLTAKES 0
      FADEIN 0 0 0 0 0 0 0
      FADEOUT 0 0 0 0 0 0 0
      MUTE 0 0
      SEL 0
      IGUID {E43DDE41-71C4-497C-9F60-0AE04E88244B}
      <SOURCE MIDI
        HASDATA 1 480 QN
        CCINTERP 32
        E 0 93 2a 7f
        E 16 83 2a 00
        E 0 93 2a 7f
        E 16 83 2a 00
        E 0 93 2a 6e
        E 16 83 2a 00
        E 0 93 2a 5d
        E 16 83 2a 00
        E 0 93 2a 4c
        E 16 83 2a 00
        E 0 93 2a 3b
        E 16 83 2a 00
        E 0 93 2a 33
        E 32 83 2a 00
        E 0 93 2a 2a
        E 64 83 2a 00
        E 0 93 2a 22
        E 32 83 2a 00
        E 0 93 2a 19
        E 64 83 2a 00
        E 0 93 2a 5d
        E 32 83 2a 00
        E 256 93 2a 5d
        E 32 83 2a 00
        E 256 93 2a 5d
        E 32 83 2a 00
        E 256 93 2a 5d
        E 32 83 2a 00
        E 256 93 2a 7f
        E 16 83 2a 00
        E 0 93 2a 7f
        E 16 83 2a 00
        E 0 93 2a 22
        E 112 83 2a 00
        E 0 93 2a 7f
        E 16 83 2a 00
        E 0 93 2a 7f
        E 16 83 2a 00
        E 0 93 2a 22
        E 224 83 2a 00
        E 0 93 2a 11
        E 32 83 2a 00
        E 0 93 2a 7f
        E 16 83 2a 00
        E 0 93 2a 7f
        E 16 83 2a 00
        E 0 93 2a 22
        E 112 83 2a 00
        E 0 93 2a 7f
        E 16 83 2a 00
        E 0 93 2a 7f
        E 16 83 2a 00
        E 0 93 2a 22
        E 224 83 2a 00
        E 0 93 2a 11
        E 32 83 2a 00
        E 0 93 2a 7f
        E 16 83 2a 00
        E 0 93 2a 7f
        E 16 83 2a 00
        E 0 93 2a 6e
        E 16 83 2a 00
        E 0 93 2a 5d
        E 16 83 2a 00
        E 0 93 2a 4c
        E 16 83 2a 00
        E 0 93 2a 3b
        E 16 83 2a 00
        E 0 93 2a 33
        E 32 83 2a 00
        E 0 93 2a 2a
        E 64 83 2a 00
        E 0 93 2a 22
        E 32 83 2a 00
        E 0 93 2a 19
        E 64 83 2a 00
        E 0 93 2a 5d
        E 32 83 2a 00
        E 256 93 2a 5d
        E 32 83 2a 00
        E 256 93 2a 5d
        E 32 83 2a 00
        E 256 93 2a 5d
        E 32 83 2a 00
        E 256 93 2a 7f
        E 16 83 2a 00
        E 0 93 2a 7f
        E 16 83 2a 00
        E 0 93 2a 22
        E 112 83 2a 00
        E 0 93 2a 7f
        E 16 83 2a 00
        E 0 93 2a 7f
        E 16 83 2a 00
        E 0 93 2a 22
        E 112 83 2a 00
        E 0 93 2a 7f
        E 16 83 2a 00
        E 0 93 2a 7f
        E 16 83 2a 00
        E 0 93 2a 22
        E 112 83 2a 00
        E 0 93 2a 7f
        E 16 83 2a 00
        E 0 93 2a 7f
        E 16 83 2a 00
        E 0 93 2a 22
        E 112 83 2a 00
        E 0 93 2a 7f
        E 16 83 2a 00
        E 0 93 2a 7f
        E 16 83 2a 00
        E 0 93 2a 22
        E 112 83 2a 00
        E 0 93 2a 7f
        E 16 83 2a 00
        E 0 93 2a 7f
        E 16 83 2a 00
        E 0 93 2a 22
        E 112 83 2a 00
        E 0 93 2a 7f
        E 16 83 2a 00
        E 0 93 2a 7f
        E 16 83 2a 00
        E 0 93 2a 6e
        E 16 83 2a 00
        E 0 93 2a 5d
        E 16 83 2a 00
        E 0 93 2a 4c
        E 16 83 2a 00
        E 0 93 2a 3b
        E 16 83 2a 00
        E 0 93 2a 33
        E 32 83 2a 00
        E 0 93 2a 2a
        E 64 83 2a 00
        E 0 93 2a 22
        E 32 83 2a 00
        E 0 93 2a 19
        E 64 83 2a 00
        E 0 93 2a 7f
        E 16 83 2a 00
        E 0 93 2a 7f
        E 16 83 2a 00
        E 0 93 2a 22
        E 224 83 2a 00
        E 0 93 2a 11
        E 32 83 2a 00
        E 0 93 2a 5d
        E 32 83 2a 00
        E 112 93 2a 5d
        E 32 83 2a 00
        E 112 93 2a 7f
        E 16 83 2a 00
        E 0 93 2a 7f
        E 16 83 2a 00
        E 0 93 2a 22
        E 224 83 2a 00
        E 0 93 2a 11
        E 32 83 2a 00
        E 0 93 2a 5d
        E 32 83 2a 00
        E 112 93 2a 5d
        E 32 83 2a 00
        E 112 93 2a 7f
        E 16 83 2a 00
        E 0 93 2a 7f
        E 16 83 2a 00
        E 0 93 2a 22
        E 224 83 2a 00
        E 0 93 2a 11
        E 32 83 2a 00
        E 0 93 2a 5d
        E 32 83 2a 00
        E 112 93 2a 5d
        E 32 83 2a 00
        E 112 93 2a 7f
        E 16 83 2a 00
        E 0 93 2a 7f
        E 16 83 2a 00
        E 0 93 2a 22
        E 224 83 2a 00
        E 0 93 2a 11
        E 32 83 2a 00
        E 0 93 2a 5d
        E 32 83 2a 00
        E 112 93 2a 5d
        E 32 83 2a 00
        E 112 93 2a 7f
        E 16 83 2a 00
        E 0 93 2a 7f
        E 16 83 2a 00
        E 0 93 2a 22
        E 224 83 2a 00
        E 0 93 2a 11
        E 32 83 2a 00
        E 0 93 2a 5d
        E 32 83 2a 00
        E 112 93 2a 5d
        E 32 83 2a 00
        E 32 93 2a 5d
        E 16 83 2a 00
        E 0 93 2a 5d
        E 16 83 2a 00
        E 0 93 2a 5d
        E 16 83 2a 00
        E 0 93 2a 5d
        E 16 83 2a 00
        E 0 93 2a 5d
        E 16 83 2a 00
        E 0 93 2a 5d
        E 192 83 2a 00
        E 0 93 2a 4c
        E 192 83 2a 00
        E 0 93 2a 3b
        E 192 83 2a 00
        E 0 93 2a 2a
        E 192 83 2a 00
        E 0 93 2a 19
        E 192 83 2a 00
        E 0 93 2a 08
        E 96 83 2a 00
        E 96 93 2a 7f
        E 16 83 2a 00
        E 0 93 2a 7f
        E 16 83 2a 00
        E 0 93 2a 22
        E 224 83 2a 00
        E 0 93 2a 11
        E 32 83 2a 00
        E 0 93 2a 5d
        E 32 83 2a 00
        E 112 93 2a 5d
        E 32 83 2a 00
        E 112 93 2a 7f
        E 16 83 2a 00
        E 0 93 2a 7f
        E 16 83 2a 00
        E 0 93 2a 22
        E 224 83 2a 00
        E 0 93 2a 11
        E 32 83 2a 00
        E 0 93 2a 5d
        E 32 83 2a 00
        E 112 93 2a 5d
        E 32 83 2a 00
        E 112 93 2a 7f
        E 16 83 2a 00
        E 0 93 2a 7f
        E 16 83 2a 00
        E 0 93 2a 22
        E 224 83 2a 00
        E 0 93 2a 11
        E 32 83 2a 00
        E 0 93 2a 5d
        E 32 83 2a 00
        E 112 93 2a 5d
        E 32 83 2a 00
        E 112 93 2a 7f
        E 16 83 2a 00
        E 0 93 2a 7f
        E 16 83 2a 00
        E 0 93 2a 22
        E 224 83 2a 00
        E 0 93 2a 11
        E 32 83 2a 00
        E 0 93 2a 5d
        E 32 83 2a 00
        E 112 93 2a 7f
        E 16 83 2a 00
        E 0 93 2a 7f
        E 16 83 2a 00
        E 0 93 2a 22
        E 112 83 2a 00
        E 0 93 2a 7f
        E 16 83 2a 00
        E 0 93 2a 7f
        E 16 83 2a 00
        E 0 93 2a 22
        E 112 83 2a 00
        E 0 93 2a 7f
        E 16 83 2a 00
        E 2464 93 2a 55
        E 16 83 2a 00
        E 0 93 2a 33
        E 16 83 2a 00
        E 0 93 2a 33
        E 16 83 2a 00
        E 0 93 2a 33
        E 16 83 2a 00
        E 32 93 2a 55
        E 16 83 2a 00
        E 0 93 2a 33
        E 16 83 2a 00
        E 0 93 2a 33
        E 16 83 2a 00
        E 0 93 2a 33
        E 16 83 2a 00
        E 64 93 2a 3b
        E 16 83 2a 00
        E 0 93 2a 3b
        E 16 83 2a 00
        E 0 93 2a 3b
        E 16 83 2a 00
        E 0 93 2a 3b
        E 16 83 2a 00
        E 0 93 2a 3b
        E 16 83 2a 00
        E 0 93 2a 22
        E 32 83 2a 00
        E 0 93 2a 3b
        E 16 83 2a 00
        E 0 93 2a 3b
        E 16 83 2a 00
        E 0 93 2a 3b
        E 16 83 2a 00
        E 0 93 2a 3b
        E 16 83 2a 00
        E 0 93 2a 22
        E 16 83 2a 00
        E 0 93 2a 22
        E 16 83 2a 00
        E 0 93 2a 22
        E 16 83 2a 00
        E 0 93 2a 22
        E 16 83 2a 00
        E 0 93 2a 22
        E 112 83 2a 00
        E 0 93 2a 55
        E 16 83 2a 00
        E 0 93 2a 33
        E 16 83 2a 00
        E 0 93 2a 33
        E 16 83 2a 00
        E 0 93 2a 33
        E 16 83 2a 00
        E 48 93 2a 5d
        E 16 83 2a 00
        E 0 93 2a 55
        E 16 83 2a 00
        E 0 93 2a 33
        E 16 83 2a 00
        E 0 93 2a 33
        E 16 83 2a 00
        E 0 93 2a 33
        E 16 83 2a 00
        E 64 93 2a 3b
        E 16 83 2a 00
        E 0 93 2a 3b
        E 16 83 2a 00
        E 0 93 2a 3b
        E 16 83 2a 00
        E 0 93 2a 3b
        E 16 83 2a 00
        E 0 93 2a 3b
        E 16 83 2a 00
        E 0 93 2a 22
        E 32 83 2a 00
        E 0 93 2a 3b
        E 16 83 2a 00
        E 0 93 2a 3b
        E 16 83 2a 00
        E 0 93 2a 3b
        E 16 83 2a 00
        E 0 93 2a 3b
        E 16 83 2a 00
        E 0 93 2a 22
        E 16 83 2a 00
        E 0 93 2a 22
        E 16 83 2a 00
        E 0 93 2a 22
        E 16 83 2a 00
        E 0 93 2a 22
        E 16 83 2a 00
        E 0 93 2a 22
        E 224 83 2a 00
        E 112 93 2a 7f
        E 16 83 2a 00
        E 592 93 2a 55
        E 16 83 2a 00
        E 0 93 2a 33
        E 16 83 2a 00
        E 0 93 2a 33
        E 16 83 2a 00
        E 0 93 2a 33
        E 16 83 2a 00
        E 64 93 2a 3b
        E 16 83 2a 00
        E 0 93 2a 3b
        E 16 83 2a 00
        E 0 93 2a 3b
        E 16 83 2a 00
        E 0 93 2a 3b
        E 16 83 2a 00
        E 0 93 2a 3b
        E 16 83 2a 00
        E 0 93 2a 22
        E 16 83 2a 00
        E 0 93 2a 22
        E 16 83 2a 00
        E 0 93 2a 22
        E 16 83 2a 00
        E 0 93 2a 55
        E 16 83 2a 00
        E 0 93 2a 33
        E 16 83 2a 00
        E 0 93 2a 33
        E 16 83 2a 00
        E 0 93 2a 33
        E 16 83 2a 00
        E 64 93 2a 3b
        E 16 83 2a 00
        E 0 93 2a 3b
        E 16 83 2a 00
        E 0 93 2a 3b
        E 16 83 2a 00
        E 0 93 2a 3b
        E 16 83 2a 00
        E 0 93 2a 3b
        E 16 83 2a 00
        E 0 93 2a 22
        E 16 83 2a 00
        E 0 93 2a 22
        E 16 83 2a 00
        E 0 93 2a 22
        E 16 83 2a 00
        E 0 93 2a 22
        E 16 83 2a 00
        E 0 93 2a 22
        E 80 83 2a 00
        E 0 93 2a 55
        E 16 83 2a 00
        E 0 93 2a 33
        E 16 83 2a 00
        E 0 93 2a 33
        E 16 83 2a 00
        E 0 93 2a 33
        E 16 83 2a 00
        E 32 93 2a 3b
        E 16 83 2a 00
        E 0 93 2a 3b
        E 16 83 2a 00
        E 0 93 2a 3b
        E 16 83 2a 00
        E 0 93 2a 3b
        E 16 83 2a 00
        E 0 93 2a 3b
        E 16 83 2a 00
        E 0 93 2a 22
        E 16 83 2a 00
        E 0 93 2a 22
        E 16 83 2a 00
        E 0 93 2a 22
        E 16 83 2a 00
        E 0 93 2a 22
        E 16 83 2a 00
        E 0 93 2a 22
        E 16 83 2a 00
        E 0 93 2a 55
        E 16 83 2a 00
        E 0 93 2a 33
        E 16 83 2a 00
        E 0 93 2a 33
        E 16 83 2a 00
        E 0 93 2a 33
        E 16 83 2a 00
        E 32 93 2a 3b
        E 16 83 2a 00
        E 0 93 2a 3b
        E 16 83 2a 00
        E 0 93 2a 3b
        E 16 83 2a 00
        E 0 93 2a 3b
        E 16 83 2a 00
        E 0 93 2a 3b
        E 16 83 2a 00
        E 0 93 2a 22
        E 16 83 2a 00
        E 0 93 2a 22
        E 16 83 2a 00
        E 0 93 2a 22
        E 16 83 2a 00
        E 0 93 2a 22
        E 16 83 2a 00
        E 0 93 2a 22
        E 224 83 2a 00
        E 80 93 2a 5d
        E 16 83 2a 00
        E 1264 93 2a 55
        E 16 83 2a 00
        E 0 93 2a 33
        E 16 83 2a 00
        E 0 93 2a 33
        E 16 83 2a 00
        E 0 93 2a 33
        E 16 83 2a 00
        E 96 93 2a 44
        E 16 83 2a 00
        E 112 93 2a 55
        E 16 83 2a 00
        E 0 93 2a 33
        E 16 83 2a 00
        E 0 93 2a 33
        E 16 83 2a 00
        E 0 93 2a 33
        E 16 83 2a 00
        E 96 93 2a 44
        E 16 83 2a 00
        E 784 93 2a 55
        E 16 83 2a 00
        E 0 93 2a 33
        E 16 83 2a 00
        E 0 93 2a 33
        E 16 83 2a 00
        E 0 93 2a 33
        E 16 83 2a 00
        E 64 93 2a 3b
        E 16 83 2a 00
        E 0 93 2a 3b
        E 16 83 2a 00
        E 0 93 2a 3b
        E 16 83 2a 00
        E 0 93 2a 3b
        E 16 83 2a 00
        E 0 93 2a 3b
        E 16 83 2a 00
        E 0 93 2a 22
        E 16 83 2a 00
        E 0 93 2a 22
        E 16 83 2a 00
        E 0 93 2a 22
        E 16 83 2a 00
        E 0 93 2a 55
        E 16 83 2a 00
        E 0 93 2a 33
        E 16 83 2a 00
        E 0 93 2a 33
        E 16 83 2a 00
        E 0 93 2a 33
        E 16 83 2a 00
        E 32 93 2a 44
        E 16 83 2a 00
        E 0 93 2a 44
        E 16 83 2a 00
        E 0 93 2a 3b
        E 16 83 2a 00
        E 0 93 2a 3b
        E 16 83 2a 00
        E 0 93 2a 3b
        E 16 83 2a 00
        E 0 93 2a 3b
        E 16 83 2a 00
        E 0 93 2a 3b
        E 16 83 2a 00
        E 0 93 2a 22
        E 16 83 2a 00
        E 0 93 2a 22
        E 16 83 2a 00
        E 0 93 2a 22
        E 16 83 2a 00
        E 0 93 2a 22
        E 16 83 2a 00
        E 0 93 2a 22
        E 224 83 2a 00
        E 32 93 2a 7f
        E 16 83 2a 00
        E 0 93 2a 7f
        E 16 83 2a 00
        E 0 93 2a 22
        E 48 83 2a 00
        E 576 93 2a 55
        E 16 83 2a 00
        E 0 93 2a 33
        E 16 83 2a 00
        E 0 93 2a 33
        E 16 83 2a 00
        E 0 93 2a 33
        E 16 83 2a 00
        E 64 93 2a 3b
        E 16 83 2a 00
        E 0 93 2a 3b
        E 16 83 2a 00
        E 0 93 2a 3b
        E 16 83 2a 00
        E 0 93 2a 3b
        E 16 83 2a 00
        E 0 93 2a 3b
        E 16 83 2a 00
        E 0 93 2a 22
        E 16 83 2a 00
        E 0 93 2a 22
        E 16 83 2a 00
        E 0 93 2a 22
        E 16 83 2a 00
        E 0 93 2a 55
        E 16 83 2a 00
        E 0 93 2a 33
        E 16 83 2a 00
        E 0 93 2a 33
        E 16 83 2a 00
        E 0 93 2a 33
        E 16 83 2a 00
        E 32 93 2a 7f
        E 16 83 2a 00
        E 0 93 2a 7f
        E 16 83 2a 00
        E 0 93 2a 3b
        E 16 83 2a 00
        E 0 93 2a 3b
        E 16 83 2a 00
        E 0 93 2a 3b
        E 16 83 2a 00
        E 0 93 2a 3b
        E 16 83 2a 00
        E 0 93 2a 3b
        E 16 83 2a 00
        E 0 93 2a 22
        E 16 83 2a 00
        E 0 93 2a 22
        E 16 83 2a 00
        E 0 93 2a 22
        E 16 83 2a 00
        E 0 93 2a 22
        E 16 83 2a 00
        E 0 93 2a 22
        E 224 83 2a 00
        E 32 93 2a 5d
        E 32 83 2a 00
        E 592 93 2a 3b
        E 16 83 2a 00
        E 0 93 2a 3b
        E 16 83 2a 00
        E 0 93 2a 3b
        E 16 83 2a 00
        E 0 93 2a 3b
        E 16 83 2a 00
        E 0 93 2a 3b
        E 16 83 2a 00
        E 0 93 2a 22
        E 16 83 2a 00
        E 0 93 2a 22
        E 16 83 2a 00
        E 0 93 2a 22
        E 16 83 2a 00
        E 0 93 2a 22
        E 16 83 2a 00
        E 0 93 2a 22
        E 224 83 2a 00
        E 16 93 2a 7f
        E 16 83 2a 00
        E 0 93 2a 7f
        E 16 83 2a 00
        E 0 93 2a 6e
        E 16 83 2a 00
        E 0 93 2a 5d
        E 16 83 2a 00
        E 0 93 2a 4c
        E 16 83 2a 00
        E 0 93 2a 3b
        E 16 83 2a 00
        E 0 93 2a 33
        E 32 83 2a 00
        E 928 93 2a 55
        E 16 83 2a 00
        E 0 93 2a 33
        E 16 83 2a 00
        E 0 93 2a 33
        E 16 83 2a 00
        E 0 93 2a 33
        E 16 83 2a 00
        E 64 93 2a 55
        E 16 83 2a 00
        E 0 93 2a 33
        E 16 83 2a 00
        E 0 93 2a 33
        E 16 83 2a 00
        E 0 93 2a 33
        E 16 83 2a 00
        E 0 93 2a 55
        E 16 83 2a 00
        E 0 93 2a 33
        E 16 83 2a 00
        E 0 93 2a 33
        E 16 83 2a 00
        E 0 93 2a 33
        E 16 83 2a 00
        E 0 93 2a 55
        E 16 83 2a 00
        E 0 93 2a 33
        E 16 83 2a 00
        E 0 93 2a 33
        E 16 83 2a 00
        E 0 93 2a 33
        E 16 83 2a 00
        E 0 93 2a 55
        E 16 83 2a 00
        E 0 93 2a 33
        E 16 83 2a 00
        E 0 93 2a 33
        E 16 83 2a 00
        E 0 93 2a 33
        E 16 83 2a 00
        E 0 93 2a 55
        E 16 83 2a 00
        E 0 93 2a 33
        E 16 83 2a 00
        E 0 93 2a 33
        E 16 83 2a 00
        E 0 93 2a 33
        E 16 83 2a 00
        E 96 93 2a 55
        E 16 83 2a 00
        E 0 93 2a 33
        E 16 83 2a 00
        E 0 93 2a 33
        E 16 83 2a 00
        E 0 93 2a 33
        E 16 83 2a 00
        E 0 93 2a 55
        E 16 83 2a 00
        E 0 93 2a 33
        E 16 83 2a 00
        E 0 93 2a 33
        E 16 83 2a 00
        E 0 93 2a 33
        E 16 83 2a 00
        E 0 93 2a 55
        E 16 83 2a 00
        E 0 93 2a 33
        E 16 83 2a 00
        E 0 93 2a 33
        E 16 83 2a 00
        E 0 93 2a 33
        E 16 83 2a 00
        E 0 93 2a 55
        E 16 83 2a 00
        E 0 93 2a 33
        E 16 83 2a 00
        E 0 93 2a 33
        E 16 83 2a 00
        E 0 93 2a 33
        E 16 83 2a 00
        E 0 93 2a 55
        E 16 83 2a 00
        E 0 93 2a 33
        E 16 83 2a 00
        E 0 93 2a 33
        E 16 83 2a 00
        E 0 93 2a 33
        E 16 83 2a 00
        E 0 93 2a 55
        E 16 83 2a 00
        E 0 93 2a 33
        E 16 83 2a 00
        E 0 93 2a 33
        E 16 83 2a 00
        E 0 93 2a 33
        E 16 83 2a 00
        E 32 93 2a 55
        E 288 83 2a 00
        E 16 93 2a 66
        E 96 83 2a 00
        E 16 93 2a 66
        E 16 83 2a 00
        E 0 93 2a 66
        E 32 83 2a 00
        E 0 93 2a 66
        E 32 83 2a 00
        E 0 93 2a 66
        E 32 83 2a 00
        E 0 93 2a 66
        E 32 83 2a 00
        E 0 93 2a 66
        E 32 83 2a 00
        E 0 93 2a 66
        E 32 83 2a 00
        E 0 93 2a 4c
        E 32 83 2a 00
        E 0 93 2a 4c
        E 32 83 2a 00
        E 0 93 2a 4c
        E 32 83 2a 00
        E 0 93 2a 4c
        E 32 83 2a 00
        E 0 93 2a 4c
        E 32 83 2a 00
        E 0 93 2a 4c
        E 32 83 2a 00
        E 0 93 2a 33
        E 32 83 2a 00
        E 0 93 2a 33
        E 32 83 2a 00
        E 0 93 2a 33
        E 32 83 2a 00
        E 0 93 2a 33
        E 32 83 2a 00
        E 0 93 2a 33
        E 32 83 2a 00
        E 0 93 2a 33
        E 32 83 2a 00
        E 0 93 2a 19
        E 32 83 2a 00
        E 0 93 2a 19
        E 32 83 2a 00
        E 0 93 2a 19
        E 32 83 2a 00
        E 0 93 2a 19
        E 32 83 2a 00
        E 0 93 2a 19
        E 32 83 2a 00
        E 0 93 2a 19
        E 32 83 2a 00
        E 560 93 2a 55
        E 16 83 2a 00
        E 0 93 2a 33
        E 16 83 2a 00
        E 0 93 2a 33
        E 16 83 2a 00
        E 0 93 2a 33
        E 16 83 2a 00
        E 96 93 2a 55
        E 16 83 2a 00
        E 0 93 2a 33
        E 16 83 2a 00
        E 0 93 2a 33
        E 16 83 2a 00
        E 0 93 2a 33
        E 16 83 2a 00
        E 64 93 2a 55
        E 16 83 2a 00
        E 0 93 2a 33
        E 16 83 2a 00
        E 0 93 2a 33
        E 16 83 2a 00
        E 0 93 2a 33
        E 16 83 2a 00
        E 912 93 2a 7f
        E 16 83 2a 00
        E 0 93 2a 7f
        E 16 83 2a 00
        E 0 93 2a 22
        E 112 83 2a 00
        E 432 93 2a 44
        E 16 83 2a 00
        E 0 93 2a 44
        E 16 83 2a 00
        E 0 93 2a 19
        E 112 83 2a 00
        E 432 93 2a 44
        E 16 83 2a 00
        E 0 93 2a 44
        E 16 83 2a 00
        E 0 93 2a 44
        E 16 83 2a 00
        E 0 93 2a 11
        E 96 83 2a 00
        E 0 93 2a 44
        E 16 83 2a 00
        E 0 93 2a 44
        E 16 83 2a 00
        E 0 93 2a 19
        E 112 83 2a 00
        E 0 93 2a 44
        E 16 83 2a 00
        E 0 93 2a 44
        E 16 83 2a 00
        E 0 93 2a 19
        E 112 83 2a 00
        E 0 93 2a 7f
        E 16 83 2a 00
        E 0 93 2a 7f
        E 16 83 2a 00
        E 0 93 2a 22
        E 112 83 2a 00
        E 0 93 2a 7f
        E 16 83 2a 00
        E 0 93 2a 7f
        E 16 83 2a 00
        E 0 93 2a 22
        E 112 83 2a 00
        E 0 93 2a 7f
        E 16 83 2a 00
        E 0 93 2a 7f
        E 16 83 2a 00
        E 0 93 2a 6e
        E 16 83 2a 00
        E 0 93 2a 5d
        E 16 83 2a 00
        E 0 93 2a 4c
        E 16 83 2a 00
        E 0 93 2a 3b
        E 16 83 2a 00
        E 0 93 2a 33
        E 32 83 2a 00
        E 0 93 2a 2a
        E 64 83 2a 00
        E 0 93 2a 22
        E 32 83 2a 00
        E 0 93 2a 19
        E 64 83 2a 00
        E 0 93 2a 7f
        E 16 83 2a 00
        E 0 93 2a 7f
        E 16 83 2a 00
        E 0 93 2a 22
        E 224 83 2a 00
        E 0 93 2a 11
        E 32 83 2a 00
        E 0 93 2a 5d
        E 32 83 2a 00
        E 112 93 2a 5d
        E 32 83 2a 00
        E 112 93 2a 7f
        E 16 83 2a 00
        E 0 93 2a 7f
        E 16 83 2a 00
        E 0 93 2a 22
        E 224 83 2a 00
        E 0 93 2a 11
        E 32 83 2a 00
        E 0 93 2a 7f
        E 16 83 2a 00
        E 0 93 2a 7f
        E 16 83 2a 00
        E 0 93 2a 22
        E 224 83 2a 00
        E 0 93 2a 11
        E 32 83 2a 00
        E 0 93 2a 7f
        E 16 83 2a 00
        E 0 93 2a 7f
        E 16 83 2a 00
        E 0 93 2a 22
        E 224 83 2a 00
        E 0 93 2a 11
        E 32 83 2a 00
        E 0 93 2a 55
        E 16 83 2a 00
        E 0 93 2a 3b
        E 16 83 2a 00
        E 0 93 2a 19
        E 96 83 2a 00
        E 16 93 2a 55
        E 16 83 2a 00
        E 0 93 2a 3b
        E 16 83 2a 00
        E 0 93 2a 19
        E 96 83 2a 00
        E 16 93 2a 55
        E 16 83 2a 00
        E 0 93 2a 3b
        E 16 83 2a 00
        E 0 93 2a 19
        E 96 83 2a 00
        E 16 93 2a 55
        E 16 83 2a 00
        E 0 93 2a 3b
        E 16 83 2a 00
        E 0 93 2a 19
        E 96 83 2a 00
        E 16 93 2a 7f
        E 16 83 2a 00
        E 0 93 2a 7f
        E 16 83 2a 00
        E 0 93 2a 6e
        E 16 83 2a 00
        E 0 93 2a 5d
        E 16 83 2a 00
        E 0 93 2a 4c
        E 16 83 2a 00
        E 0 93 2a 3b
        E 16 83 2a 00
        E 0 93 2a 33
        E 32 83 2a 00
        E 0 93 2a 2a
        E 64 83 2a 00
        E 0 93 2a 22
        E 32 83 2a 00
        E 0 93 2a 19
        E 64 83 2a 00
        E 0 93 2a 7f
        E 16 83 2a 00
        E 0 93 2a 7f
        E 16 83 2a 00
        E 0 93 2a 22
        E 224 83 2a 00
        E 0 93 2a 11
        E 32 83 2a 00
        E 0 93 2a 5d
        E 32 83 2a 00
        E 112 93 2a 5d
        E 32 83 2a 00
        E 112 93 2a 7f
        E 16 83 2a 00
        E 0 93 2a 7f
        E 16 83 2a 00
        E 0 93 2a 22
        E 224 83 2a 00
        E 0 93 2a 11
        E 32 83 2a 00
        E 0 93 2a 5d
        E 32 83 2a 00
        E 112 93 2a 5d
        E 32 83 2a 00
        E 112 93 2a 7f
        E 16 83 2a 00
        E 0 93 2a 7f
        E 16 83 2a 00
        E 0 93 2a 22
        E 224 83 2a 00
        E 0 93 2a 11
        E 32 83 2a 00
        E 0 93 2a 5d
        E 32 83 2a 00
        E 112 93 2a 5d
        E 32 83 2a 00
        E 112 93 2a 7f
        E 16 83 2a 00
        E 0 93 2a 7f
        E 16 83 2a 00
        E 0 93 2a 22
        E 224 83 2a 00
        E 0 93 2a 11
        E 32 83 2a 00
        E 0 93 2a 5d
        E 32 83 2a 00
        E 112 93 2a 5d
        E 32 83 2a 00
        E 112 93 2a 7f
        E 16 83 2a 00
        E 0 93 2a 7f
        E 16 83 2a 00
        E 0 93 2a 22
        E 224 83 2a 00
        E 0 93 2a 11
        E 32 83 2a 00
        E 0 93 2a 5d
        E 32 83 2a 00
        E 112 93 2a 5d
        E 32 83 2a 00
        E 112 93 2a 7f
        E 16 83 2a 00
        E 0 93 2a 7f
        E 16 83 2a 00
        E 0 93 2a 22
        E 224 83 2a 00
        E 0 93 2a 11
        E 32 83 2a 00
        E 0 93 2a 5d
        E 32 83 2a 00
        E 112 93 2a 5d
        E 32 83 2a 00
        E 112 93 2a 7f
        E 16 83 2a 00
        E 0 93 2a 7f
        E 16 83 2a 00
        E 0 93 2a 22
        E 224 83 2a 00
        E 0 93 2a 11
        E 32 83 2a 00
        E 0 93 2a 5d
        E 32 83 2a 00
        E 112 93 2a 5d
        E 32 83 2a 00
        E 112 93 2a 7f
        E 16 83 2a 00
        E 0 93 2a 7f
        E 16 83 2a 00
        E 0 93 2a 22
        E 112 83 2a 00
        E 0 93 2a 3b
        E 176 83 2a 00
        E 64 93 2a 5d
        E 16 83 2a 00
        E 0 93 2a 5d
        E 16 83 2a 00
        E 0 93 2a 5d
        E 16 83 2a 00
        E 0 93 2a 5d
        E 16 83 2a 00
        E 0 93 2a 5d
        E 16 83 2a 00
        E 0 93 2a 5d
        E 192 83 2a 00
        E 0 93 2a 4c
        E 192 83 2a 00
        E 0 93 2a 3b
        E 192 83 2a 00
        E 0 93 2a 2a
        E 192 83 2a 00
        E 0 93 2a 19
        E 192 83 2a 00
        E 0 93 2a 08
        E 96 83 2a 00
        E 64 93 2a 5d
        E 32 83 2a 00
        E 112 93 2a 7f
        E 16 83 2a 00
        E 0 93 2a 7f
        E 16 83 2a 00
        E 0 93 2a 22
        E 224 83 2a 00
        E 0 93 2a 11
        E 32 83 2a 00
        E 0 93 2a 5d
        E 32 83 2a 00
        E 112 93 2a 5d
        E 32 83 2a 00
        E 112 93 2a 7f
        E 16 83 2a 00
        E 0 93 2a 7f
        E 16 83 2a 00
        E 0 93 2a 22
        E 224 83 2a 00
        E 0 93 2a 11
        E 32 83 2a 00
        E 0 93 2a 5d
        E 32 83 2a 00
        E 112 93 2a 5d
        E 32 83 2a 00
        E 112 93 2a 7f
        E 16 83 2a 00
        E 0 93 2a 7f
        E 16 83 2a 00
        E 0 93 2a 22
        E 224 83 2a 00
        E 0 93 2a 11
        E 32 83 2a 00
        E 0 93 2a 5d
        E 32 83 2a 00
        E 112 93 2a 5d
        E 32 83 2a 00
        E 112 93 2a 7f
        E 16 83 2a 00
        E 0 93 2a 7f
        E 16 83 2a 00
        E 0 93 2a 22
        E 224 83 2a 00
        E 0 93 2a 11
        E 32 83 2a 00
        E 0 93 2a 5d
        E 32 83 2a 00
        E 112 93 2a 5d
        E 32 83 2a 00
        E 112 93 2a 7f
        E 16 83 2a 00
        E 0 93 2a 7f
        E 16 83 2a 00
        E 0 93 2a 22
        E 224 83 2a 00
        E 0 93 2a 11
        E 32 83 2a 00
        E 0 93 2a 5d
        E 32 83 2a 00
        E 112 93 2a 5d
        E 32 83 2a 00
        E 112 93 2a 7f
        E 16 83 2a 00
        E 0 93 2a 7f
        E 16 83 2a 00
        E 0 93 2a 22
        E 112 83 2a 00
        E 0 93 2a 7f
        E 16 83 2a 00
        E 0 93 2a 7f
        E 16 83 2a 00
        E 0 93 2a 22
        E 112 83 2a 00
        E 0 93 2a 7f
        E 16 83 2a 00
        E 0 93 2a 7f
        E 16 83 2a 00
        E 0 93 2a 6e
        E 16 83 2a 00
        E 0 93 2a 5d
        E 16 83 2a 00
        E 0 93 2a 4c
        E 16 83 2a 00
        E 0 93 2a 3b
        E 16 83 2a 00
        E 0 93 2a 33
        E 16 83 2a 00
        E 288 93 2a 55
        E 16 83 2a 00
        E 0 93 2a 33
        E 16 83 2a 00
        E 0 93 2a 33
        E 16 83 2a 00
        E 0 93 2a 33
        E 16 83 2a 00
        E 224 93 2a 55
        E 16 83 2a 00
        E 0 93 2a 33
        E 16 83 2a 00
        E 0 93 2a 33
        E 16 83 2a 00
        E 0 93 2a 33
        E 16 83 2a 00
        E 64 93 2a 55
        E 16 83 2a 00
        E 0 93 2a 33
        E 16 83 2a 00
        E 0 93 2a 33
        E 16 83 2a 00
        E 0 93 2a 33
        E 16 83 2a 00
        E 64 93 2a 55
        E 16 83 2a 00
        E 0 93 2a 33
        E 16 83 2a 00
        E 0 93 2a 33
        E 16 83 2a 00
        E 0 93 2a 33
        E 16 83 2a 00
        E 96 93 2a 55
        E 16 83 2a 00
        E 0 93 2a 33
        E 16 83 2a 00
        E 0 93 2a 33
        E 16 83 2a 00
        E 0 93 2a 33
        E 16 83 2a 00
        E 64 93 2a 55
        E 16 83 2a 00
        E 0 93 2a 33
        E 16 83 2a 00
        E 0 93 2a 33
        E 16 83 2a 00
        E 0 93 2a 33
        E 16 83 2a 00
        E 64 93 2a 55
        E 16 83 2a 00
        E 0 93 2a 33
        E 16 83 2a 00
        E 0 93 2a 33
        E 16 83 2a 00
        E 0 93 2a 33
        E 16 83 2a 00
        E 16 93 2a 7f
        E 16 83 2a 00
        E 0 93 2a 7f
        E 16 83 2a 00
        E 0 93 2a 22
        E 48 83 2a 00
        E 0 93 2a 55
        E 16 83 2a 00
        E 0 93 2a 33
        E 16 83 2a 00
        E 0 93 2a 33
        E 16 83 2a 00
        E 0 93 2a 33
        E 16 83 2a 00
        E 64 93 2a 55
        E 16 83 2a 00
        E 0 93 2a 33
        E 16 83 2a 00
        E 0 93 2a 33
        E 16 83 2a 00
        E 0 93 2a 33
        E 16 83 2a 00
        E 16 93 2a 5d
        E 32 83 2a 00
        E 16 93 2a 55
        E 16 83 2a 00
        E 0 93 2a 33
        E 16 83 2a 00
        E 0 93 2a 33
        E 16 83 2a 00
        E 0 93 2a 33
        E 16 83 2a 00
        E 32 93 2a 5d
        E 32 83 2a 00
        E 32 93 2a 55
        E 16 83 2a 00
        E 0 93 2a 33
        E 16 83 2a 00
        E 0 93 2a 33
        E 16 83 2a 00
        E 0 93 2a 33
        E 16 83 2a 00
        E 16 93 2a 7f
        E 16 83 2a 00
        E 0 93 2a 7f
        E 16 83 2a 00
        E 0 93 2a 22
        E 48 83 2a 00
        E 0 93 2a 55
        E 16 83 2a 00
        E 0 93 2a 33
        E 16 83 2a 00
        E 0 93 2a 33
        E 16 83 2a 00
        E 0 93 2a 33
        E 16 83 2a 00
        E 96 93 2a 55
        E 16 83 2a 00
        E 0 93 2a 33
        E 16 83 2a 00
        E 0 93 2a 33
        E 16 83 2a 00
        E 0 93 2a 33
        E 16 83 2a 00
        E 96 93 2a 55
        E 16 83 2a 00
        E 0 93 2a 33
        E 16 83 2a 00
        E 0 93 2a 33
        E 16 83 2a 00
        E 0 93 2a 33
        E 16 83 2a 00
        E 64 93 2a 55
        E 16 83 2a 00
        E 0 93 2a 33
        E 16 83 2a 00
        E 0 93 2a 33
        E 16 83 2a 00
        E 0 93 2a 33
        E 16 83 2a 00
        E 64 93 2a 55
        E 16 83 2a 00
        E 0 93 2a 33
        E 16 83 2a 00
        E 0 93 2a 33
        E 16 83 2a 00
        E 0 93 2a 33
        E 16 83 2a 00
        E 128 93 2a 55
        E 16 83 2a 00
        E 0 93 2a 3b
        E 16 83 2a 00
        E 0 93 2a 3b
        E 16 83 2a 00
        E 0 93 2a 3b
        E 16 83 2a 00
        E 0 93 2a 3b
        E 16 83 2a 00
        E 0 93 2a 3b
        E 16 83 2a 00
        E 0 93 2a 22
        E 16 83 2a 00
        E 0 93 2a 22
        E 16 83 2a 00
        E 0 93 2a 22
        E 16 83 2a 00
        E 0 93 2a 22
        E 16 83 2a 00
        E 0 93 2a 22
        E 64 83 2a 00
        E 0 93 2a 55
        E 16 83 2a 00
        E 0 93 2a 33
        E 16 83 2a 00
        E 0 93 2a 33
        E 16 83 2a 00
        E 0 93 2a 33
        E 16 83 2a 00
        E 16 93 2a 7f
        E 16 83 2a 00
        E 0 93 2a 7f
        E 16 83 2a 00
        E 0 93 2a 22
        E 80 83 2a 00
        E 5568 93 2a 3b
        E 16 83 2a 00
        E 0 93 2a 3b
        E 16 83 2a 00
        E 0 93 2a 3b
        E 16 83 2a 00
        E 0 93 2a 3b
        E 16 83 2a 00
        E 0 93 2a 3b
        E 16 83 2a 00
        E 0 93 2a 22
        E 16 83 2a 00
        E 0 93 2a 55
        E 16 83 2a 00
        E 0 93 2a 33
        E 16 83 2a 00
        E 0 93 2a 33
        E 16 83 2a 00
        E 0 93 2a 33
        E 16 83 2a 00
        E 96 93 2a 3b
        E 16 83 2a 00
        E 0 93 2a 3b
        E 16 83 2a 00
        E 0 93 2a 3b
        E 16 83 2a 00
        E 0 93 2a 3b
        E 16 83 2a 00
        E 0 93 2a 3b
        E 16 83 2a 00
        E 0 93 2a 22
        E 16 83 2a 00
        E 0 93 2a 22
        E 16 83 2a 00
        E 0 93 2a 22
        E 16 83 2a 00
        E 0 93 2a 22
        E 16 83 2a 00
        E 0 93 2a 22
        E 224 83 2a 00
        E 32 93 2a 5d
        E 32 83 2a 00
        E 144 93 2a 55
        E 16 83 2a 00
        E 0 93 2a 33
        E 16 83 2a 00
        E 0 93 2a 33
        E 16 83 2a 00
        E 0 93 2a 33
        E 16 83 2a 00
        E 224 93 2a 55
        E 16 83 2a 00
        E 0 93 2a 33
        E 16 83 2a 00
        E 0 93 2a 33
        E 16 83 2a 00
        E 0 93 2a 33
        E 16 83 2a 00
        E 32 93 2a 55
        E 16 83 2a 00
        E 0 93 2a 33
        E 16 83 2a 00
        E 0 93 2a 33
        E 16 83 2a 00
        E 0 93 2a 33
        E 16 83 2a 00
        E 96 93 2a 55
        E 16 83 2a 00
        E 0 93 2a 33
        E 16 83 2a 00
        E 0 93 2a 33
        E 16 83 2a 00
        E 0 93 2a 33
        E 16 83 2a 00
        E 64 93 2a 55
        E 16 83 2a 00
        E 0 93 2a 33
        E 16 83 2a 00
        E 0 93 2a 33
        E 16 83 2a 00
        E 0 93 2a 33
        E 16 83 2a 00
        E 64 93 2a 55
        E 16 83 2a 00
        E 0 93 2a 33
        E 16 83 2a 00
        E 0 93 2a 33
        E 16 83 2a 00
        E 0 93 2a 33
        E 16 83 2a 00
        E 1056 93 2a 55
        E 16 83 2a 00
        E 0 93 2a 33
        E 16 83 2a 00
        E 0 93 2a 33
        E 16 83 2a 00
        E 0 93 2a 33
        E 16 83 2a 00
        E 64 93 2a 3b
        E 16 83 2a 00
        E 0 93 2a 3b
        E 32 83 2a 00
        E 0 93 2a 33
        E 16 83 2a 00
        E 0 93 2a 33
        E 16 83 2a 00
        E 0 93 2a 33
        E 16 83 2a 00
        E 96 93 2a 55
        E 16 83 2a 00
        E 0 93 2a 33
        E 16 83 2a 00
        E 0 93 2a 33
        E 16 83 2a 00
        E 0 93 2a 33
        E 16 83 2a 00
        E 32 93 2a 55
        E 16 83 2a 00
        E 0 93 2a 33
        E 16 83 2a 00
        E 0 93 2a 33
        E 16 83 2a 00
        E 0 93 2a 33
        E 16 83 2a 00
        E 16 93 2a 5d
        E 32 83 2a 00
        E 48 93 2a 55
        E 16 83 2a 00
        E 0 93 2a 33
        E 16 83 2a 00
        E 0 93 2a 33
        E 16 83 2a 00
        E 0 93 2a 33
        E 16 83 2a 00
        E 64 93 2a 55
        E 16 83 2a 00
        E 0 93 2a 33
        E 16 83 2a 00
        E 0 93 2a 55
        E 16 83 2a 00
        E 0 93 2a 33
        E 16 83 2a 00
        E 0 93 2a 33
        E 16 83 2a 00
        E 0 93 2a 33
        E 16 83 2a 00
        E 32 93 2a 55
        E 16 83 2a 00
        E 0 93 2a 33
        E 16 83 2a 00
        E 0 93 2a 55
        E 16 83 2a 00
        E 0 93 2a 33
        E 16 83 2a 00
        E 0 93 2a 33
        E 16 83 2a 00
        E 0 93 2a 33
        E 16 83 2a 00
        E 64 93 2a 55
        E 16 83 2a 00
        E 0 93 2a 33
        E 16 83 2a 00
        E 0 93 2a 33
        E 16 83 2a 00
        E 0 93 2a 33
        E 16 83 2a 00
        E 16 93 2a 5d
        E 32 83 2a 00
        E 16 93 2a 55
        E 16 83 2a 00
        E 0 93 2a 33
        E 16 83 2a 00
        E 0 93 2a 55
        E 16 83 2a 00
        E 0 93 2a 33
        E 16 83 2a 00
        E 0 93 2a 33
        E 16 83 2a 00
        E 0 93 2a 33
        E 16 83 2a 00
        E 32 93 2a 55
        E 16 83 2a 00
        E 0 93 2a 33
        E 16 83 2a 00
        E 0 93 2a 55
        E 16 83 2a 00
        E 0 93 2a 33
        E 16 83 2a 00
        E 0 93 2a 33
        E 16 83 2a 00
        E 0 93 2a 33
        E 16 83 2a 00
        E 16 93 2a 7f
        E 16 83 2a 00
        E 0 93 2a 7f
        E 16 83 2a 00
        E 0 93 2a 22
        E 16 83 2a 00
        E 0 93 2a 55
        E 16 83 2a 00
        E 0 93 2a 33
        E 16 83 2a 00
        E 0 93 2a 33
        E 16 83 2a 00
        E 0 93 2a 33
        E 16 83 2a 00
        E 32 93 2a 7f
        E 16 83 2a 00
        E 0 93 2a 7f
        E 16 83 2a 00
        E 0 93 2a 55
        E 16 83 2a 00
        E 0 93 2a 33
        E 16 83 2a 00
        E 0 93 2a 55
        E 16 83 2a 00
        E 0 93 2a 33
        E 16 83 2a 00
        E 0 93 2a 33
        E 16 83 2a 00
        E 0 93 2a 33
        E 16 83 2a 00
        E 16 93 2a 7f
        E 16 83 2a 00
        E 0 93 2a 7f
        E 16 83 2a 00
        E 0 93 2a 22
        E 16 83 2a 00
        E 0 93 2a 55
        E 16 83 2a 00
        E 0 93 2a 33
        E 16 83 2a 00
        E 0 93 2a 33
        E 16 83 2a 00
        E 0 93 2a 33
        E 16 83 2a 00
        E 32 93 2a 55
        E 16 83 2a 00
        E 0 93 2a 33
        E 16 83 2a 00
        E 0 93 2a 55
        E 16 83 2a 00
        E 0 93 2a 33
        E 16 83 2a 00
        E 0 93 2a 33
        E 16 83 2a 00
        E 0 93 2a 33
        E 16 83 2a 00
        E 96 93 2a 55
        E 16 83 2a 00
        E 0 93 2a 33
        E 16 83 2a 00
        E 0 93 2a 33
        E 16 83 2a 00
        E 0 93 2a 33
        E 16 83 2a 00
        E 32 93 2a 7f
        E 16 83 2a 00
        E 0 93 2a 7f
        E 16 83 2a 00
        E 0 93 2a 55
        E 16 83 2a 00
        E 0 93 2a 33
        E 16 83 2a 00
        E 0 93 2a 33
        E 16 83 2a 00
        E 0 93 2a 33
        E 16 83 2a 00
        E 64 93 2a 55
        E 16 83 2a 00
        E 0 93 2a 33
        E 16 83 2a 00
        E 0 93 2a 33
        E 16 83 2a 00
        E 0 93 2a 33
        E 16 83 2a 00
        E 96 93 2a 55
        E 16 83 2a 00
        E 0 93 2a 33
        E 16 83 2a 00
        E 0 93 2a 33
        E 16 83 2a 00
        E 0 93 2a 33
        E 16 83 2a 00
        E 64 93 2a 55
        E 16 83 2a 00
        E 0 93 2a 33
        E 16 83 2a 00
        E 0 93 2a 33
        E 16 83 2a 00
        E 0 93 2a 33
        E 16 83 2a 00
        E 64 93 2a 55
        E 16 83 2a 00
        E 0 93 2a 33
        E 16 83 2a 00
        E 0 93 2a 33
        E 16 83 2a 00
        E 0 93 2a 33
        E 16 83 2a 00
        E 64 93 2a 55
        E 16 83 2a 00
        E 0 93 2a 33
        E 16 83 2a 00
        E 0 93 2a 33
        E 16 83 2a 00
        E 0 93 2a 33
        E 16 83 2a 00
        E 96 93 2a 55
        E 16 83 2a 00
        E 0 93 2a 33
        E 16 83 2a 00
        E 0 93 2a 33
        E 16 83 2a 00
        E 0 93 2a 33
        E 16 83 2a 00
        E 64 93 2a 55
        E 16 83 2a 00
        E 0 93 2a 33
        E 16 83 2a 00
        E 0 93 2a 33
        E 16 83 2a 00
        E 0 93 2a 33
        E 16 83 2a 00
        E 64 93 2a 55
        E 16 83 2a 00
        E 0 93 2a 33
        E 16 83 2a 00
        E 0 93 2a 33
        E 16 83 2a 00
        E 0 93 2a 33
        E 16 83 2a 00
        E 128 93 2a 55
        E 16 83 2a 00
        E 0 93 2a 33
        E 16 83 2a 00
        E 0 93 2a 33
        E 16 83 2a 00
        E 0 93 2a 33
        E 16 83 2a 00
        E 96 93 2a 55
        E 16 83 2a 00
        E 0 93 2a 33
        E 16 83 2a 00
        E 0 93 2a 33
        E 16 83 2a 00
        E 0 93 2a 33
        E 16 83 2a 00
        E 96 93 2a 55
        E 16 83 2a 00
        E 0 93 2a 33
        E 16 83 2a 00
        E 0 93 2a 33
        E 16 83 2a 00
        E 0 93 2a 33
        E 16 83 2a 00
        E 96 93 2a 55
        E 16 83 2a 00
        E 0 93 2a 33
        E 16 83 2a 00
        E 0 93 2a 33
        E 16 83 2a 00
        E 0 93 2a 33
        E 16 83 2a 00
        E 16 93 2a 5d
        E 32 83 2a 00
        E 16 93 2a 55
        E 16 83 2a 00
        E 0 93 2a 3b
        E 16 83 2a 00
        E 0 93 2a 3b
        E 16 83 2a 00
        E 0 93 2a 3b
        E 16 83 2a 00
        E 0 93 2a 3b
        E 16 83 2a 00
        E 0 93 2a 3b
        E 16 83 2a 00
        E 0 93 2a 22
        E 16 83 2a 00
        E 0 93 2a 22
        E 32 83 2a 00
        E 0 93 2a 33
        E 16 83 2a 00
        E 0 93 2a 33
        E 16 83 2a 00
        E 0 93 2a 33
        E 16 83 2a 00
        E 32 93 2a 55
        E 16 83 2a 00
        E 0 93 2a 33
        E 16 83 2a 00
        E 0 93 2a 55
        E 16 83 2a 00
        E 0 93 2a 33
        E 16 83 2a 00
        E 0 93 2a 33
        E 16 83 2a 00
        E 0 93 2a 33
        E 16 83 2a 00
        E 64 93 2a 55
        E 16 83 2a 00
        E 0 93 2a 33
        E 16 83 2a 00
        E 0 93 2a 55
        E 16 83 2a 00
        E 0 93 2a 33
        E 16 83 2a 00
        E 0 93 2a 33
        E 16 83 2a 00
        E 0 93 2a 33
        E 16 83 2a 00
        E 32 93 2a 55
        E 16 83 2a 00
        E 0 93 2a 33
        E 16 83 2a 00
        E 0 93 2a 55
        E 16 83 2a 00
        E 0 93 2a 33
        E 16 83 2a 00
        E 0 93 2a 33
        E 16 83 2a 00
        E 0 93 2a 33
        E 16 83 2a 00
        E 32 93 2a 55
        E 16 83 2a 00
        E 0 93 2a 33
        E 16 83 2a 00
        E 0 93 2a 55
        E 16 83 2a 00
        E 0 93 2a 33
        E 16 83 2a 00
        E 0 93 2a 33
        E 16 83 2a 00
        E 0 93 2a 33
        E 16 83 2a 00
        E 32 93 2a 55
        E 16 83 2a 00
        E 0 93 2a 33
        E 16 83 2a 00
        E 0 93 2a 33
        E 16 83 2a 00
        E 0 93 2a 33
        E 16 83 2a 00
        E 32 93 2a 55
        E 16 83 2a 00
        E 0 93 2a 33
        E 16 83 2a 00
        E 0 93 2a 33
        E 16 83 2a 00
        E 0 93 2a 33
        E 16 83 2a 00
        E 176 93 2a 5d
        E 32 83 2a 00
        E 112 93 2a 5d
        E 32 83 2a 00
        E 112 93 2a 7f
        E 16 83 2a 00
        E 0 93 2a 7f
        E 16 83 2a 00
        E 0 93 2a 22
        E 224 83 2a 00
        E 0 93 2a 11
        E 32 83 2a 00
        E 0 93 2a 5d
        E 32 83 2a 00
        E 112 93 2a 5d
        E 32 83 2a 00
        E 112 93 2a 7f
        E 16 83 2a 00
        E 0 93 2a 7f
        E 16 83 2a 00
        E 0 93 2a 22
        E 224 83 2a 00
        E 0 93 2a 11
        E 32 83 2a 00
        E 0 93 2a 5d
        E 32 83 2a 00
        E 112 93 2a 5d
        E 32 83 2a 00
        E 112 93 2a 7f
        E 16 83 2a 00
        E 0 93 2a 7f
        E 16 83 2a 00
        E 0 93 2a 22
        E 224 83 2a 00
        E 0 93 2a 11
        E 32 83 2a 00
        E 0 93 2a 5d
        E 32 83 2a 00
        E 112 93 2a 5d
        E 32 83 2a 00
        E 112 93 2a 7f
        E 16 83 2a 00
        E 0 93 2a 7f
        E 16 83 2a 00
        E 0 93 2a 22
        E 224 83 2a 00
        E 0 93 2a 11
        E 32 83 2a 00
        E 0 93 2a 5d
        E 32 83 2a 00
        E 112 93 2a 5d
        E 32 83 2a 00
        E 112 93 2a 7f
        E 16 83 2a 00
        E 0 93 2a 7f
        E 16 83 2a 00
        E 0 93 2a 22
        E 224 83 2a 00
        E 0 93 2a 11
        E 32 83 2a 00
        E 0 93 2a 5d
        E 32 83 2a 00
        E 112 93 2a 5d
        E 32 83 2a 00
        E 112 93 2a 7f
        E 16 83 2a 00
        E 0 93 2a 7f
        E 16 83 2a 00
        E 0 93 2a 22
        E 224 83 2a 00
        E 0 93 2a 11
        E 32 83 2a 00
        E 0 93 2a 5d
        E 32 83 2a 00
        E 112 93 2a 7f
        E 16 83 2a 00
        E 0 93 2a 7f
        E 16 83 2a 00
        E 0 93 2a 22
        E 112 83 2a 00
        E 0 93 2a 7f
        E 16 83 2a 00
        E 0 93 2a 7f
        E 16 83 2a 00
        E 0 93 2a 22
        E 112 83 2a 00
        E 0 93 2a 7f
        E 16 83 2a 00
        E 0 93 2a 7f
        E 16 83 2a 00
        E 0 93 2a 22
        E 112 83 2a 00
        E 0 93 2a 7f
        E 16 83 2a 00
        E 0 93 2a 7f
        E 16 83 2a 00
        E 0 93 2a 6e
        E 16 83 2a 00
        E 0 93 2a 5d
        E 16 83 2a 00
        E 0 93 2a 4c
        E 16 83 2a 00
        E 0 93 2a 3b
        E 16 83 2a 00
        E 0 93 2a 33
        E 32 83 2a 00
        E 0 93 2a 2a
        E 64 83 2a 00
        E 0 93 2a 22
        E 32 83 2a 00
        E 0 93 2a 19
        E 64 83 2a 00
        E 0 93 2a 11
        E 32 83 2a 00
        E 0 93 2a 11
        E 64 83 2a 00
        E 0 93 2a 08
        E 32 83 2a 00
        E 0 93 2a 08
        E 16 83 2a 00
        E 0 93 2a 7f
        E 16 83 2a 00
        E 0 93 2a 7f
        E 16 83 2a 00
        E 0 93 2a 6e
        E 16 83 2a 00
        E 0 93 2a 5d
        E 16 83 2a 00
        E 0 93 2a 4c
        E 16 83 2a 00
        E 0 93 2a 3b
        E 16 83 2a 00
        E 0 93 2a 33
        E 32 83 2a 00
        E 0 93 2a 2a
        E 64 83 2a 00
        E 0 93 2a 22
        E 32 83 2a 00
        E 0 93 2a 19
        E 64 83 2a 00
        E 0 93 2a 11
        E 32 83 2a 00
        E 0 93 2a 11
        E 64 83 2a 00
        E 0 93 2a 08
        E 32 83 2a 00
        E 0 93 2a 08
        E 16 83 2a 00
        E 0 93 2a 7f
        E 16 83 2a 00
        E 0 93 2a 7f
        E 16 83 2a 00
        E 0 93 2a 6e
        E 16 83 2a 00
        E 0 93 2a 5d
        E 16 83 2a 00
        E 0 93 2a 4c
        E 16 83 2a 00
        E 0 93 2a 3b
        E 16 83 2a 00
        E 0 93 2a 33
        E 32 83 2a 00
        E 0 93 2a 2a
        E 64 83 2a 00
        E 0 93 2a 22
        E 32 83 2a 00
        E 0 93 2a 19
        E 64 83 2a 00
        E 0 93 2a 11
        E 32 83 2a 00
        E 0 93 2a 11
        E 64 83 2a 00
        E 0 93 2a 08
        E 32 83 2a 00
        E 0 93 2a 08
        E 16 83 2a 00
        E 0 93 2a 5d
        E 32 83 2a 00
        E 112 93 2a 44
        E 16 83 2a 00
        E 0 93 2a 44
        E 16 83 2a 00
        E 0 93 2a 19
        E 112 83 2a 00
        E 0 93 2a 44
        E 16 83 2a 00
        E 0 93 2a 44
        E 16 83 2a 00
        E 0 93 2a 19
        E 112 83 2a 00
        E 0 93 2a 44
        E 16 83 2a 00
        E 0 93 2a 44
        E 16 83 2a 00
        E 0 93 2a 19
        E 112 83 2a 00
        E 0 93 2a 7f
        E 16 83 2a 00
        E 0 93 2a 7f
        E 16 83 2a 00
        E 0 93 2a 22
        E 112 83 2a 00
        E 0 93 2a 7f
        E 16 83 2a 00
        E 0 93 2a 7f
        E 16 83 2a 00
        E 0 93 2a 22
        E 112 83 2a 00
        E 0 93 2a 7f
        E 16 83 2a 00
        E 0 93 2a 7f
        E 16 83 2a 00
        E 0 93 2a 22
        E 112 83 2a 00
        E 0 93 2a 7f
        E 16 83 2a 00
        E 0 93 2a 7f
        E 16 83 2a 00
        E 0 93 2a 6e
        E 16 83 2a 00
        E 0 93 2a 5d
        E 16 83 2a 00
        E 0 93 2a 4c
        E 16 83 2a 00
        E 0 93 2a 3b
        E 16 83 2a 00
        E 0 93 2a 33
        E 32 83 2a 00
        E 0 93 2a 2a
        E 64 83 2a 00
        E 0 93 2a 22
        E 32 83 2a 00
        E 0 93 2a 19
        E 64 83 2a 00
        E 0 93 2a 7f
        E 16 83 2a 00
        E 0 93 2a 7f
        E 16 83 2a 00
        E 0 93 2a 22
        E 224 83 2a 00
        E 0 93 2a 11
        E 32 83 2a 00
        E 0 93 2a 5d
        E 32 83 2a 00
        E 112 93 2a 5d
        E 32 83 2a 00
        E 112 93 2a 7f
        E 16 83 2a 00
        E 0 93 2a 7f
        E 16 83 2a 00
        E 0 93 2a 22
        E 224 83 2a 00
        E 0 93 2a 11
        E 32 83 2a 00
        E 0 93 2a 5d
        E 32 83 2a 00
        E 112 93 2a 5d
        E 32 83 2a 00
        E 96 93 2a 5d
        E 16 83 2a 00
        E 0 93 2a 5d
        E 16 83 2a 00
        E 0 93 2a 5d
        E 16 83 2a 00
        E 0 93 2a 5d
        E 16 83 2a 00
        E 0 93 2a 5d
        E 16 83 2a 00
        E 0 93 2a 5d
        E 192 83 2a 00
        E 0 93 2a 4c
        E 192 83 2a 00
        E 0 93 2a 3b
        E 192 83 2a 00
        E 0 93 2a 2a
        E 192 83 2a 00
        E 0 93 2a 19
        E 192 83 2a 00
        E 0 93 2a 08
        E 96 83 2a 00
        E 32 93 2a 7f
        E 16 83 2a 00
        E 0 93 2a 7f
        E 16 83 2a 00
        E 0 93 2a 22
        E 224 83 2a 00
        E 0 93 2a 11
        E 32 83 2a 00
        E 0 93 2a 5d
        E 32 83 2a 00
        E 112 93 2a 5d
        E 32 83 2a 00
        E 112 93 2a 7f
        E 16 83 2a 00
        E 0 93 2a 7f
        E 16 83 2a 00
        E 0 93 2a 22
        E 224 83 2a 00
        E 0 93 2a 11
        E 32 83 2a 00
        E 0 93 2a 5d
        E 32 83 2a 00
        E 112 93 2a 5d
        E 32 83 2a 00
        E 112 93 2a 7f
        E 16 83 2a 00
        E 0 93 2a 7f
        E 16 83 2a 00
        E 0 93 2a 22
        E 224 83 2a 00
        E 0 93 2a 11
        E 32 83 2a 00
        E 0 93 2a 5d
        E 32 83 2a 00
        E 112 93 2a 5d
        E 32 83 2a 00
        E 112 93 2a 7f
        E 16 83 2a 00
        E 0 93 2a 7f
        E 16 83 2a 00
        E 0 93 2a 22
        E 224 83 2a 00
        E 0 93 2a 11
        E 32 83 2a 00
        E 0 93 2a 7f
        E 16 83 2a 00
        E 0 93 2a 7f
        E 16 83 2a 00
        E 0 93 2a 22
        E 112 83 2a 00
        E 0 93 2a 44
        E 16 83 2a 00
        E 0 93 2a 44
        E 16 83 2a 00
        E 0 93 2a 19
        E 112 83 2a 00
        E 0 93 2a 44
        E 16 83 2a 00
        E 0 93 2a 44
        E 16 83 2a 00
        E 0 93 2a 44
        E 16 83 2a 00
        E 0 93 2a 11
        E 96 83 2a 00
        E 0 93 2a 7f
        E 16 83 2a 00
        E 0 93 2a 7f
        E 16 83 2a 00
        E 0 93 2a 22
        E 112 83 2a 00
        E 0 93 2a 44
        E 16 83 2a 00
        E 0 93 2a 44
        E 16 83 2a 00
        E 0 93 2a 19
        E 32 83 2a 00
        E 1952 93 2a 3b
        E 16 83 2a 00
        E 0 93 2a 3b
        E 16 83 2a 00
        E 0 93 2a 3b
        E 16 83 2a 00
        E 0 93 2a 3b
        E 16 83 2a 00
        E 0 93 2a 3b
        E 16 83 2a 00
        E 0 93 2a 22
        E 16 83 2a 00
        E 0 93 2a 22
        E 16 83 2a 00
        E 0 93 2a 22
        E 16 83 2a 00
        E 0 93 2a 22
        E 16 83 2a 00
        E 0 93 2a 22
        E 112 83 2a 00
        E 0 93 2a 3b
        E 16 83 2a 00
        E 0 93 2a 3b
        E 16 83 2a 00
        E 0 93 2a 3b
        E 16 83 2a 00
        E 0 93 2a 3b
        E 16 83 2a 00
        E 0 93 2a 3b
        E 16 83 2a 00
        E 0 93 2a 22
        E 16 83 2a 00
        E 0 93 2a 22
        E 16 83 2a 00
        E 0 93 2a 22
        E 16 83 2a 00
        E 0 93 2a 22
        E 16 83 2a 00
        E 0 93 2a 22
        E 112 83 2a 00
        E 0 93 2a 3b
        E 16 83 2a 00
        E 0 93 2a 3b
        E 16 83 2a 00
        E 0 93 2a 3b
        E 16 83 2a 00
        E 0 93 2a 3b
        E 16 83 2a 00
        E 0 93 2a 3b
        E 16 83 2a 00
        E 0 93 2a 22
        E 16 83 2a 00
        E 0 93 2a 22
        E 16 83 2a 00
        E 0 93 2a 22
        E 16 83 2a 00
        E 0 93 2a 22
        E 16 83 2a 00
        E 0 93 2a 22
        E 224 83 2a 00
        E 976 93 2a 3b
        E 16 83 2a 00
        E 0 93 2a 3b
        E 16 83 2a 00
        E 0 93 2a 3b
        E 16 83 2a 00
        E 0 93 2a 3b
        E 16 83 2a 00
        E 0 93 2a 3b
        E 16 83 2a 00
        E 0 93 2a 22
        E 16 83 2a 00
        E 0 93 2a 22
        E 16 83 2a 00
        E 0 93 2a 22
        E 16 83 2a 00
        E 0 93 2a 22
        E 16 83 2a 00
        E 0 93 2a 22
        E 224 83 2a 00
        E 80 93 2a 7f
        E 16 83 2a 00
        E 0 93 2a 7f
        E 16 83 2a 00
        E 0 93 2a 22
        E 32 83 2a 00
        E 32 93 2a 3b
        E 16 83 2a 00
        E 0 93 2a 3b
        E 16 83 2a 00
        E 0 93 2a 3b
        E 16 83 2a 00
        E 0 93 2a 3b
        E 16 83 2a 00
        E 0 93 2a 3b
        E 16 83 2a 00
        E 0 93 2a 22
        E 16 83 2a 00
        E 0 93 2a 22
        E 16 83 2a 00
        E 0 93 2a 22
        E 16 83 2a 00
        E 0 93 2a 22
        E 16 83 2a 00
        E 0 93 2a 22
        E 128 83 2a 00
        E 0 b3 7b 00
        E 0 ff 2f 00
      >
    >
  >
>