<REAPER_PROJECT 0.1 "7.27/win64" 1707000000
  <NOTES 0 2
    |ReapNES Studio Project
    |MIDI Import - Day_Dreamin_Davey_title_rom_v1
  >
  RIPPLE 0
  GROUPOVERRIDE 0 0 0
  AUTOXFADE 129
  ENVATTACH 3
  POOLEDENVATTACH 0
  MIXERUIFLAGS 11 48
  ENVFADESZ10 40
  PEAKGAIN 1
  FEEDBACK 0
  PANLAW 1
  PROJOFFS 0 0 0
  MAXPROJLEN 0 0
  GRID 3199 8 1 8 1 0 0 0
  TIMEMODE 1 5 -1 30 0 0 -1
  VIDEO_CONFIG 0 0 65792
  PANMODE 3
  PANLAWFLAGS 3
  CURSOR 0
  ZOOM 100 0 0
  VZOOMEX 6 0
  USE_REC_CFG 0
  RECMODE 1
  SMPTESYNC 0 30 100 40 1000 300 0 0 1 0 0
  LOOP 0
  LOOPGRAN 0 4
  RECORD_PATH "Media" ""
  <RECORD_CFG
    ZXZhdxgAAQ==
  >
  <APPLYFX_CFG
  >
  RENDER_FILE ""
  RENDER_PATTERN ""
  RENDER_FMT 0 2 0
  RENDER_1X 0
  RENDER_RANGE 1 0 0 18 1000
  RENDER_RESAMPLE 3 0 1
  RENDER_ADDTOPROJ 0
  RENDER_STEMS 0
  RENDER_DITHER 0
  TIMELOCKMODE 1
  TEMPOENVLOCKMODE 1
  ITEMMIX 1
  DEFPITCHMODE 589824 0
  TAKELANE 1
  SAMPLERATE 44100 0 0
  <RENDER_CFG
    ZXZhdxgAAQ==
  >
  LOCK 1
  <METRONOME 6 2
    VOL 0.25 0.125
    BEATLEN 4
    FREQ 1760 880 1
    SAMPLES "" ""
    SPLIGNORE 0 0
    SPLDEF 2 660 "" 0
    SPLDEF 3 440 "" 0
    PATTERN 0 169
    PATTERNSTR ABBB
    MULT 1
  >
  GLOBAL_AUTO -1
  TEMPO 128.59999614200012 4 4
  PLAYRATE 1 0 0.25 4
  SELECTION 0 0
  SELECTION2 0 0
  MASTERAUTOMODE 0
  MASTERTRACKHEIGHT 0 0
  MASTERPEAKCOL 16576
  MASTERMUTESOLO 0
  MASTERTRACKVIEW 0 0.6667 0.5 0.5 0 0 0 0 0 0 0 0 0 0
  MASTERHWOUT 0 0 1 0 0 0 0 -1
  MASTER_NCH 2 2
  MASTER_VOLUME 1 0 -1 -1 1
  MASTER_PANMODE 3
  MASTER_PANLAWFLAGS 3
  MASTER_FX 1
  MASTER_SEL 0
  <MASTERPLAYSPEEDENV
    EGUID {078E307F-C307-4450-B312-C2F5D8FB02CE}
    ACT 0 -1
    VIS 0 1 1
    LANEHEIGHT 0 0
    ARM 0
    DEFSHAPE 0 -1 -1
  >
  <TEMPOENVEX
    EGUID {3DEB6682-D0DE-4B0E-9E15-C3E82369EF87}
    ACT 1 -1
    VIS 1 0 1
    LANEHEIGHT 0 0
    ARM 0
    DEFSHAPE 1 -1 -1
  >
  <PROJBAY
  >
  <TRACK {5F3DC44A-2436-4F19-A597-958A9834D374}
    NAME "NES - Pulse 1 [ch0]"
    PEAKCOL 16576606
    BEAT -1
    AUTOMODE 0
    PANLAWFLAGS 3
    VOLPAN 1 0 -1 -1 1
    MUTESOLO 0 0 0
    IPHASE 0
    PLAYOFFS 0 1
    ISBUS 0 0
    BUSCOMP 0 0 0 0 0
    SHOWINMIX 1 0.6667 0.5 1 0.5 0 0 0
    FIXEDLANES 9 0 0 0 0
    SEL 1
    REC 1 5088 1 0 0 0 0 0
    VU 2
    TRACKHEIGHT 0 0 0 0 0 0 0
    INQ 0 0 0 0.5 100 0 0 100
    NCHAN 2
    FX 1
    TRACKID {5F3DC44A-2436-4F19-A597-958A9834D374}
    PERF 0
    MIDIOUT -1
    MAINSEND 1 0
    <FXCHAIN
      WNDRECT 24 52 700 560
      SHOW 0
      LASTSEL 0
      DOCKED 0
      BYPASS 0 0 0
      <JS "ReapNES Studio/ReapNES_Console.jsfx" ""
        2 15 1 10 80 10 100 2 1 15 1 5 60 10 80 1 1 0 50 0 0 15 1 0 100 0 0 0.500000 0.500000 0.400000 0.300000 0.800000 0 1 0 0 0 0 - - - - - - - - - - - - - - - - - - - - - - - - - -
      >
      FLOATPOS 0 0 0 0
      FXID {77F81606-4406-4440-9542-570137DC8279}
      WAK 0 0
    >
    <ITEM
      POSITION 0
      LENGTH 9.269051600000001
      LOOP 0
      ALLTAKES 0
      FADEIN 0 0 0 0 0 0 0
      FADEOUT 0 0 0 0 0 0 0
      MUTE 0 0
      SEL 0
      IGUID {E535B003-EB1C-4041-B0C5-1BE0890457C0}
      <SOURCE MIDI
        HASDATA 1 480 QN
        CCINTERP 32
        E 0 c0 50
        E 0 b0 0c 40
        E 0 b0 0b 2a
        E 0 90 2e 2a
        E 32 b0 0b 6e
        E 32 b0 0b 5d
        E 144 b0 0b 55
        E 16 b0 0b 2a
        E 0 80 2e 00
        E 0 90 29 2a
        E 32 b0 0b 6e
        E 32 b0 0b 5d
        E 48 b0 0b 2a
        E 0 80 29 00
        E 0 90 2a 2a
        E 32 b0 0b 6e
        E 32 b0 0b 5d
        E 144 b0 0b 55
        E 16 b0 0b 2a
        E 0 80 2a 00
        E 0 90 2b 2a
        E 32 b0 0b 6e
        E 32 b0 0b 5d
        E 48 b0 0b 2a
        E 0 80 2b 00
        E 0 90 2e 2a
        E 32 b0 0b 6e
        E 32 b0 0b 5d
        E 144 b0 0b 55
        E 16 b0 0b 2a
        E 0 80 2e 00
        E 0 90 33 2a
        E 32 b0 0b 6e
        E 32 b0 0b 5d
        E 144 b0 0b 55
        E 144 b0 0b 4c
        E 144 b0 0b 44
        E 144 b0 0b 3b
        E 32 b0 0b 2a
        E 0 80 33 00
        E 0 90 2e 2a
        E 32 b0 0b 6e
        E 32 b0 0b 5d
        E 48 b0 0b 2a
        E 0 80 2e 00
        E 0 90 31 2a
        E 32 b0 0b 6e
        E 32 b0 0b 5d
        E 144 b0 0b 55
        E 16 b0 0b 2a
        E 0 80 31 00
        E 0 90 32 2a
        E 32 b0 0b 6e
        E 32 b0 0b 5d
        E 48 b0 0b 2a
        E 0 80 32 00
        E 0 90 35 2a
        E 32 b0 0b 6e
        E 32 b0 0b 5d
        E 144 b0 0b 55
        E 16 b0 0b 2a
        E 0 80 35 00
        E 0 90 37 2a
        E 32 b0 0b 6e
        E 32 b0 0b 5d
        E 48 b0 0b 2a
        E 0 80 37 00
        E 0 90 3a 2a
        E 32 b0 0b 6e
        E 32 b0 0b 5d
        E 144 b0 0b 55
        E 16 b0 0b 2a
        E 0 80 3a 00
        E 0 90 35 2a
        E 32 b0 0b 6e
        E 32 b0 0b 5d
        E 48 b0 0b 2a
        E 0 80 35 00
        E 0 90 32 2a
        E 32 b0 0b 6e
        E 32 b0 0b 5d
        E 144 b0 0b 55
        E 16 b0 0b 2a
        E 0 80 32 00
        E 0 90 35 2a
        E 32 b0 0b 6e
        E 32 b0 0b 5d
        E 144 b0 0b 55
        E 144 b0 0b 4c
        E 144 b0 0b 44
        E 144 b0 0b 3b
        E 144 b0 0b 2a
        E 0 80 35 00
        E 0 90 38 2a
        E 32 b0 0b 6e
        E 32 b0 0b 5d
        E 144 b0 0b 55
        E 16 b0 0b 2a
        E 0 80 38 00
        E 0 90 39 2a
        E 32 b0 0b 6e
        E 32 b0 0b 5d
        E 48 b0 0b 2a
        E 0 80 39 00
        E 0 90 35 2a
        E 32 b0 0b 6e
        E 32 b0 0b 5d
        E 144 b0 0b 55
        E 16 b0 0b 2a
        E 0 80 35 00
        E 0 90 30 2a
        E 32 b0 0b 6e
        E 32 b0 0b 5d
        E 48 b0 0b 2a
        E 0 80 30 00
        E 0 90 31 2a
        E 32 b0 0b 6e
        E 32 b0 0b 5d
        E 144 b0 0b 55
        E 16 b0 0b 2a
        E 0 80 31 00
        E 0 90 32 2a
        E 32 b0 0b 6e
        E 32 b0 0b 5d
        E 48 b0 0b 2a
        E 0 80 32 00
        E 0 90 35 2a
        E 32 b0 0b 6e
        E 32 b0 0b 5d
        E 144 b0 0b 55
        E 16 b0 0b 2a
        E 0 80 35 00
        E 0 90 3a 2a
        E 32 b0 0b 6e
        E 32 b0 0b 5d
        E 48 b0 0b 2a
        E 0 80 3a 00
        E 0 90 3e 2a
        E 32 b0 0b 6e
        E 32 b0 0b 5d
        E 144 b0 0b 55
        E 16 b0 0b 2a
        E 0 80 3e 00
        E 0 90 3c 2a
        E 32 b0 0b 6e
        E 32 b0 0b 5d
        E 48 b0 0b 2a
        E 0 80 3c 00
        E 0 90 3a 2a
        E 32 b0 0b 6e
        E 32 b0 0b 5d
        E 144 b0 0b 55
        E 16 b0 0b 2a
        E 0 80 3a 00
        E 0 90 35 2a
        E 32 b0 0b 6e
        E 32 b0 0b 5d
        E 48 b0 0b 2a
        E 0 80 35 00
        E 0 90 36 2a
        E 32 b0 0b 6e
        E 32 b0 0b 5d
        E 144 b0 0b 55
        E 16 b0 0b 2a
        E 0 80 36 00
        E 0 90 37 2a
        E 32 b0 0b 6e
        E 32 b0 0b 5d
        E 48 b0 0b 2a
        E 0 80 37 00
        E 0 90 3a 2a
        E 32 b0 0b 6e
        E 32 b0 0b 5d
        E 144 b0 0b 55
        E 16 b0 0b 2a
        E 0 80 3a 00
        E 0 90 3f 2a
        E 32 b0 0b 6e
        E 32 b0 0b 5d
        E 144 b0 0b 55
        E 144 b0 0b 4c
        E 144 b0 0b 44
        E 144 b0 0b 3b
        E 32 b0 0b 2a
        E 0 80 3f 00
        E 0 90 3a 2a
        E 32 b0 0b 6e
        E 32 b0 0b 5d
        E 48 b0 0b 2a
        E 0 80 3a 00
        E 0 90 3d 2a
        E 32 b0 0b 6e
        E 32 b0 0b 5d
        E 144 b0 0b 55
        E 16 b0 0b 2a
        E 0 80 3d 00
        E 0 90 3e 2a
        E 32 b0 0b 6e
        E 32 b0 0b 5d
        E 48 b0 0b 2a
        E 0 80 3e 00
        E 0 90 3a 2a
        E 32 b0 0b 6e
        E 32 b0 0b 5d
        E 144 b0 0b 55
        E 16 b0 0b 2a
        E 0 80 3a 00
        E 0 90 35 2a
        E 32 b0 0b 6e
        E 32 b0 0b 5d
        E 48 b0 0b 2a
        E 0 80 35 00
        E 0 90 37 2a
        E 32 b0 0b 6e
        E 32 b0 0b 5d
        E 144 b0 0b 55
        E 16 80 37 00
        E 112 b0 0b 2a
        E 0 90 39 2a
        E 32 b0 0b 6e
        E 32 b0 0b 5d
        E 144 b0 0b 55
        E 16 80 39 00
        E 112 b0 0b 2a
        E 0 90 3a 2a
        E 32 b0 0b 6e
        E 32 b0 0b 5d
        E 144 b0 0b 55
        E 144 b0 0b 4c
        E 144 b0 0b 44
        E 144 b0 0b 3b
        E 144 b0 0b 33
        E 144 b0 0b 2a
        E 80 80 3a 00
        E 128 b0 7b 00
        E 0 ff 2f 00
      >
    >
  >
  <TRACK {434F6B64-4F84-495D-91E8-ECE9CD297D07}
    NAME "NES - Pulse 2 [ch1]"
    PEAKCOL 10092441
    BEAT -1
    AUTOMODE 0
    PANLAWFLAGS 3
    VOLPAN 1 0 -1 -1 1
    MUTESOLO 0 0 0
    IPHASE 0
    PLAYOFFS 0 1
    ISBUS 0 0
    BUSCOMP 0 0 0 0 0
    SHOWINMIX 1 0.6667 0.5 1 0.5 0 0 0
    FIXEDLANES 9 0 0 0 0
    SEL 0
    REC 0 5088 1 0 0 0 0 0
    VU 2
    TRACKHEIGHT 0 0 0 0 0 0 0
    INQ 0 0 0 0.5 100 0 0 100
    NCHAN 2
    FX 1
    TRACKID {434F6B64-4F84-495D-91E8-ECE9CD297D07}
    PERF 0
    MIDIOUT -1
    MAINSEND 1 0
    <FXCHAIN
      WNDRECT 24 52 700 560
      SHOW 0
      LASTSEL 0
      DOCKED 0
      BYPASS 0 0 0
      <JS "ReapNES Studio/ReapNES_Console.jsfx" ""
        2 15 1 10 80 10 100 2 1 15 1 5 60 10 80 1 1 0 50 0 0 15 1 0 100 0 0 0.500000 0.500000 0.400000 0.300000 0.800000 1 1 0 0 0 0 - - - - - - - - - - - - - - - - - - - - - - - - - -
      >
      FLOATPOS 0 0 0 0
      FXID {D947A1D5-3D4B-4EE8-83EB-C2CBA7595943}
      WAK 0 0
    >
    <ITEM
      POSITION 0
      LENGTH 9.269051600000001
      LOOP 0
      ALLTAKES 0
      FADEIN 0 0 0 0 0 0 0
      FADEOUT 0 0 0 0 0 0 0
      MUTE 0 0
      SEL 0
      IGUID {0364E356-0CD4-48DE-9A7E-E4173974CF92}
      <SOURCE MIDI
        HASDATA 1 480 QN
        CCINTERP 32
        E 0 c1 51
        E 0 b1 0c 60
        E 0 b1 0b 7f
        E 0 91 29 7f
        E 32 b1 0b 6e
        E 32 b1 0b 5d
        E 32 b1 0b 4c
        E 32 b1 0b 3b
        E 32 b1 0b 2a
        E 80 b1 0b 22
        E 80 b1 0b 19
        E 16 b1 0b 7f
        E 0 81 29 00
        E 0 91 1b 7f
        E 32 b1 0b 6e
        E 32 b1 0b 5d
        E 32 b1 0b 4c
        E 32 b1 0b 3b
        E 32 b1 0b 2a
        E 80 b1 0b 22
        E 80 b1 0b 19
        E 16 b1 0b 7f
        E 0 81 1b 00
        E 0 91 22 7f
        E 32 b1 0b 6e
        E 32 b1 0b 5d
        E 32 b1 0b 4c
        E 32 b1 0b 3b
        E 32 b1 0b 2a
        E 80 b1 0b 22
        E 80 b1 0b 19
        E 16 b1 0b 7f
        E 0 81 22 00
        E 0 91 27 7f
        E 32 b1 0b 6e
        E 32 b1 0b 5d
        E 32 b1 0b 4c
        E 32 b1 0b 3b
        E 32 b1 0b 2a
        E 80 b1 0b 22
        E 80 b1 0b 19
        E 16 b1 0b 7f
        E 0 81 27 00
        E 0 91 22 7f
        E 32 b1 0b 6e
        E 32 b1 0b 5d
        E 32 b1 0b 4c
        E 32 b1 0b 3b
        E 32 b1 0b 2a
        E 80 b1 0b 22
        E 80 b1 0b 19
        E 16 b1 0b 7f
        E 32 b1 0b 6e
        E 32 b1 0b 5d
        E 32 b1 0b 4c
        E 32 b1 0b 3b
        E 32 b1 0b 2a
        E 80 b1 0b 22
        E 80 b1 0b 19
        E 16 b1 0b 7f
        E 0 81 22 00
        E 0 91 29 7f
        E 32 b1 0b 6e
        E 32 b1 0b 5d
        E 32 b1 0b 4c
        E 32 b1 0b 3b
        E 32 b1 0b 2a
        E 80 b1 0b 22
        E 80 b1 0b 19
        E 16 b1 0b 7f
        E 0 81 29 00
        E 0 91 22 7f
        E 32 b1 0b 6e
        E 32 b1 0b 5d
        E 32 b1 0b 4c
        E 32 b1 0b 3b
        E 32 b1 0b 2a
        E 80 b1 0b 22
        E 80 b1 0b 19
        E 16 b1 0b 7f
        E 0 81 22 00
        E 0 91 29 7f
        E 32 b1 0b 6e
        E 32 b1 0b 5d
        E 32 b1 0b 4c
        E 32 b1 0b 3b
        E 32 b1 0b 2a
        E 80 b1 0b 22
        E 80 b1 0b 19
        E 16 b1 0b 7f
        E 0 81 29 00
        E 0 91 1d 7f
        E 64 b1 0b 77
        E 32 b1 0b 6e
        E 32 b1 0b 66
        E 32 b1 0b 5d
        E 32 b1 0b 55
        E 32 b1 0b 4c
        E 32 b1 0b 44
        E 32 b1 0b 3b
        E 32 b1 0b 33
        E 16 b1 0b 7f
        E 0 81 1d 00
        E 0 91 24 7f
        E 64 b1 0b 77
        E 32 b1 0b 6e
        E 32 b1 0b 66
        E 32 b1 0b 5d
        E 32 b1 0b 55
        E 32 b1 0b 4c
        E 32 b1 0b 44
        E 32 b1 0b 3b
        E 32 b1 0b 33
        E 16 b1 0b 7f
        E 0 81 24 00
        E 0 91 1f 7f
        E 64 b1 0b 77
        E 32 b1 0b 6e
        E 32 b1 0b 66
        E 32 b1 0b 5d
        E 32 b1 0b 55
        E 32 b1 0b 4c
        E 32 b1 0b 44
        E 32 b1 0b 3b
        E 32 b1 0b 33
        E 16 b1 0b 7f
        E 0 81 1f 00
        E 0 91 21 7f
        E 64 b1 0b 77
        E 32 b1 0b 6e
        E 32 b1 0b 66
        E 32 b1 0b 5d
        E 32 b1 0b 55
        E 32 b1 0b 4c
        E 32 b1 0b 44
        E 32 b1 0b 3b
        E 32 b1 0b 33
        E 16 b1 0b 7f
        E 0 81 21 00
        E 0 91 22 7f
        E 32 b1 0b 6e
        E 32 b1 0b 5d
        E 32 b1 0b 4c
        E 32 b1 0b 3b
        E 32 b1 0b 2a
        E 80 b1 0b 22
        E 80 b1 0b 19
        E 16 b1 0b 7f
        E 0 81 22 00
        E 0 91 29 7f
        E 32 b1 0b 6e
        E 32 b1 0b 5d
        E 32 b1 0b 4c
        E 32 b1 0b 3b
        E 32 b1 0b 2a
        E 80 b1 0b 22
        E 80 b1 0b 19
        E 16 b1 0b 7f
        E 0 81 29 00
        E 0 91 22 7f
        E 32 b1 0b 6e
        E 32 b1 0b 5d
        E 32 b1 0b 4c
        E 32 b1 0b 3b
        E 32 b1 0b 2a
        E 80 b1 0b 22
        E 80 b1 0b 19
        E 16 b1 0b 7f
        E 0 81 22 00
        E 0 91 29 7f
        E 32 b1 0b 6e
        E 32 b1 0b 5d
        E 32 b1 0b 4c
        E 32 b1 0b 3b
        E 32 b1 0b 2a
        E 80 b1 0b 22
        E 80 b1 0b 19
        E 16 b1 0b 7f
        E 0 81 29 00
        E 0 91 1b 7f
        E 32 b1 0b 6e
        E 32 b1 0b 5d
        E 32 b1 0b 4c
        E 32 b1 0b 3b
        E 32 b1 0b 2a
        E 80 b1 0b 22
        E 80 b1 0b 19
        E 16 b1 0b 7f
        E 0 81 1b 00
        E 0 91 22 7f
        E 32 b1 0b 6e
        E 32 b1 0b 5d
        E 32 b1 0b 4c
        E 32 b1 0b 3b
        E 32 b1 0b 2a
        E 80 b1 0b 22
        E 80 b1 0b 19
        E 16 b1 0b 7f
        E 0 81 22 00
        E 0 91 27 7f
        E 32 b1 0b 6e
        E 32 b1 0b 5d
        E 32 b1 0b 4c
        E 32 b1 0b 3b
        E 32 b1 0b 2a
        E 80 b1 0b 22
        E 80 b1 0b 19
        E 16 b1 0b 7f
        E 0 81 27 00
        E 0 91 22 7f
        E 32 b1 0b 6e
        E 32 b1 0b 5d
        E 32 b1 0b 4c
        E 32 b1 0b 3b
        E 32 b1 0b 2a
        E 80 b1 0b 22
        E 80 b1 0b 19
        E 16 b1 0b 7f
        E 32 b1 0b 6e
        E 32 b1 0b 5d
        E 32 b1 0b 4c
        E 32 b1 0b 3b
        E 32 b1 0b 2a
        E 80 b1 0b 22
        E 80 b1 0b 19
        E 16 b1 0b 7f
        E 0 81 22 00
        E 0 91 29 7f
        E 32 b1 0b 6e
        E 32 b1 0b 5d
        E 32 b1 0b 4c
        E 32 b1 0b 3b
        E 32 b1 0b 2a
        E 80 b1 0b 22
        E 80 b1 0b 19
        E 16 b1 0b 7f
        E 0 81 29 00
        E 0 91 24 7f
        E 32 b1 0b 6e
        E 32 b1 0b 5d
        E 32 b1 0b 4c
        E 32 b1 0b 3b
        E 32 b1 0b 2a
        E 80 b1 0b 22
        E 80 b1 0b 19
        E 16 b1 0b 7f
        E 0 81 24 00
        E 0 91 29 7f
        E 32 b1 0b 6e
        E 32 b1 0b 5d
        E 32 b1 0b 4c
        E 32 b1 0b 3b
        E 32 b1 0b 2a
        E 80 b1 0b 22
        E 80 b1 0b 19
        E 16 b1 0b 7f
        E 0 81 29 00
        E 0 91 22 7f
        E 64 b1 0b 77
        E 32 b1 0b 6e
        E 32 b1 0b 66
        E 32 b1 0b 5d
        E 32 b1 0b 55
        E 32 b1 0b 4c
        E 32 b1 0b 44
        E 32 b1 0b 3b
        E 32 b1 0b 33
        E 16 b1 0b 7f
        E 0 81 22 00
        E 0 91 1d 7f
        E 64 b1 0b 77
        E 32 b1 0b 6e
        E 32 b1 0b 66
        E 32 b1 0b 5d
        E 32 b1 0b 55
        E 32 b1 0b 4c
        E 32 b1 0b 44
        E 32 b1 0b 3b
        E 32 b1 0b 33
        E 16 b1 0b 7f
        E 0 81 1d 00
        E 0 91 16 7f
        E 64 b1 0b 77
        E 32 b1 0b 6e
        E 32 b1 0b 66
        E 32 b1 0b 5d
        E 32 b1 0b 55
        E 32 b1 0b 4c
        E 32 b1 0b 44
        E 32 b1 0b 3b
        E 32 b1 0b 33
        E 16 81 16 00
        E 128 b1 7b 00
        E 0 ff 2f 00
      >
    >
  >
  <TRACK {422E3FC6-0DA5-4F17-9A57-77D252173810}
    NAME "NES - Triangle [ch2]"
    PEAKCOL 16744192
    BEAT -1
    AUTOMODE 0
    PANLAWFLAGS 3
    VOLPAN 1 0 -1 -1 1
    MUTESOLO 0 0 0
    IPHASE 0
    PLAYOFFS 0 1
    ISBUS 0 0
    BUSCOMP 0 0 0 0 0
    SHOWINMIX 1 0.6667 0.5 1 0.5 0 0 0
    FIXEDLANES 9 0 0 0 0
    SEL 0
    REC 0 5088 1 0 0 0 0 0
    VU 2
    TRACKHEIGHT 0 0 0 0 0 0 0
    INQ 0 0 0 0.5 100 0 0 100
    NCHAN 2
    FX 1
    TRACKID {422E3FC6-0DA5-4F17-9A57-77D252173810}
    PERF 0
    MIDIOUT -1
    MAINSEND 1 0
    <FXCHAIN
      WNDRECT 24 52 700 560
      SHOW 0
      LASTSEL 0
      DOCKED 0
      BYPASS 0 0 0
      <JS "ReapNES Studio/ReapNES_Console.jsfx" ""
        2 15 1 10 80 10 100 2 1 15 1 5 60 10 80 1 1 0 50 0 0 15 1 0 100 0 0 0.500000 0.500000 0.400000 0.300000 0.800000 2 1 0 0 0 0 - - - - - - - - - - - - - - - - - - - - - - - - - -
      >
      FLOATPOS 0 0 0 0
      FXID {BE636E26-06CB-484C-9974-716C9235C036}
      WAK 0 0
    >
    <ITEM
      POSITION 0
      LENGTH 9.269051600000001
      LOOP 0
      ALLTAKES 0
      FADEIN 0 0 0 0 0 0 0
      FADEOUT 0 0 0 0 0 0 0
      MUTE 0 0
      SEL 0
      IGUID {F24DDF91-BBAB-46C3-A0CE-3BFFC7117970}
      <SOURCE MIDI
        HASDATA 1 480 QN
        CCINTERP 32
        E 0 c2 26
        E 0 b2 0b 7f
        E 0 92 2b 7f
        E 32 82 2b 00
        E 0 b2 0b 7f
        E 0 92 2a 7f
        E 32 82 2a 00
        E 272 b2 0b 7f
        E 0 92 28 7f
        E 16 82 28 00
        E 0 b2 0b 7f
        E 0 92 25 7f
        E 16 82 25 00
        E 0 b2 0b 7f
        E 0 92 21 7f
        E 16 82 21 00
        E 288 b2 0b 7f
        E 0 92 2b 7f
        E 32 82 2b 00
        E 0 b2 0b 7f
        E 0 92 2a 7f
        E 32 82 2a 00
        E 272 b2 0b 7f
        E 0 92 28 7f
        E 16 82 28 00
        E 0 b2 0b 7f
        E 0 92 25 7f
        E 16 82 25 00
        E 0 b2 0b 7f
        E 0 92 21 7f
        E 16 82 21 00
        E 288 b2 0b 7f
        E 0 92 2b 7f
        E 32 82 2b 00
        E 0 b2 0b 7f
        E 0 92 2a 7f
        E 32 82 2a 00
        E 272 b2 0b 7f
        E 0 92 28 7f
        E 16 82 28 00
        E 0 b2 0b 7f
        E 0 92 25 7f
        E 16 82 25 00
        E 0 b2 0b 7f
        E 0 92 21 7f
        E 16 82 21 00
        E 288 b2 0b 7f
        E 0 92 2b 7f
        E 32 82 2b 00
        E 0 b2 0b 7f
        E 0 92 2a 7f
        E 32 82 2a 00
        E 272 b2 0b 7f
        E 0 92 28 7f
        E 16 82 28 00
        E 0 b2 0b 7f
        E 0 92 25 7f
        E 16 82 25 00
        E 0 b2 0b 7f
        E 0 92 21 7f
        E 16 82 21 00
        E 288 b2 0b 7f
        E 0 92 2b 7f
        E 32 82 2b 00
        E 0 b2 0b 7f
        E 0 92 2a 7f
        E 32 82 2a 00
        E 272 b2 0b 7f
        E 0 92 28 7f
        E 16 82 28 00
        E 0 b2 0b 7f
        E 0 92 25 7f
        E 16 82 25 00
        E 0 b2 0b 7f
        E 0 92 21 7f
        E 16 82 21 00
        E 288 b2 0b 7f
        E 0 92 2b 7f
        E 32 82 2b 00
        E 0 b2 0b 7f
        E 0 92 2a 7f
        E 32 82 2a 00
        E 272 b2 0b 7f
        E 0 92 28 7f
        E 16 82 28 00
        E 0 b2 0b 7f
        E 0 92 25 7f
        E 16 82 25 00
        E 0 b2 0b 7f
        E 0 92 21 7f
        E 16 82 21 00
        E 288 b2 0b 7f
        E 0 92 2b 7f
        E 32 82 2b 00
        E 0 b2 0b 7f
        E 0 92 2a 7f
        E 32 82 2a 00
        E 272 b2 0b 7f
        E 0 92 28 7f
        E 16 82 28 00
        E 0 b2 0b 7f
        E 0 92 25 7f
        E 16 82 25 00
        E 0 b2 0b 7f
        E 0 92 21 7f
        E 16 82 21 00
        E 288 b2 0b 7f
        E 0 92 2b 7f
        E 32 82 2b 00
        E 0 b2 0b 7f
        E 0 92 2a 7f
        E 32 82 2a 00
        E 272 b2 0b 7f
        E 0 92 28 7f
        E 16 82 28 00
        E 0 b2 0b 7f
        E 0 92 25 7f
        E 16 82 25 00
        E 0 b2 0b 7f
        E 0 92 21 7f
        E 16 82 21 00
        E 288 b2 0b 7f
        E 0 92 2b 7f
        E 32 82 2b 00
        E 0 b2 0b 7f
        E 0 92 2a 7f
        E 32 82 2a 00
        E 272 b2 0b 7f
        E 0 92 28 7f
        E 16 82 28 00
        E 0 b2 0b 7f
        E 0 92 25 7f
        E 16 82 25 00
        E 0 b2 0b 7f
        E 0 92 21 7f
        E 16 82 21 00
        E 288 b2 0b 7f
        E 0 92 2b 7f
        E 32 82 2b 00
        E 0 b2 0b 7f
        E 0 92 2a 7f
        E 32 82 2a 00
        E 272 b2 0b 7f
        E 0 92 28 7f
        E 16 82 28 00
        E 0 b2 0b 7f
        E 0 92 25 7f
        E 16 82 25 00
        E 0 b2 0b 7f
        E 0 92 21 7f
        E 16 82 21 00
        E 288 b2 0b 7f
        E 0 92 2b 7f
        E 32 82 2b 00
        E 0 b2 0b 7f
        E 0 92 2a 7f
        E 32 82 2a 00
        E 272 b2 0b 7f
        E 0 92 28 7f
        E 16 82 28 00
        E 0 b2 0b 7f
        E 0 92 25 7f
        E 16 82 25 00
        E 0 b2 0b 7f
        E 0 92 21 7f
        E 16 82 21 00
        E 288 b2 0b 7f
        E 0 92 2b 7f
        E 32 82 2b 00
        E 0 b2 0b 7f
        E 0 92 2a 7f
        E 32 82 2a 00
        E 272 b2 0b 7f
        E 0 92 28 7f
        E 16 82 28 00
        E 0 b2 0b 7f
        E 0 92 25 7f
        E 16 82 25 00
        E 0 b2 0b 7f
        E 0 92 21 7f
        E 16 82 21 00
        E 288 b2 0b 7f
        E 0 92 2b 7f
        E 32 82 2b 00
        E 0 b2 0b 7f
        E 0 92 2a 7f
        E 32 82 2a 00
        E 272 b2 0b 7f
        E 0 92 28 7f
        E 16 82 28 00
        E 0 b2 0b 7f
        E 0 92 25 7f
        E 16 82 25 00
        E 0 b2 0b 7f
        E 0 92 21 7f
        E 16 82 21 00
        E 288 b2 0b 7f
        E 0 92 2b 7f
        E 32 82 2b 00
        E 0 b2 0b 7f
        E 0 92 2a 7f
        E 32 82 2a 00
        E 272 b2 0b 7f
        E 0 92 28 7f
        E 16 82 28 00
        E 0 b2 0b 7f
        E 0 92 25 7f
        E 16 82 25 00
        E 0 b2 0b 7f
        E 0 92 21 7f
        E 16 82 21 00
        E 288 b2 0b 7f
        E 0 92 2b 7f
        E 32 82 2b 00
        E 0 b2 0b 7f
        E 0 92 2a 7f
        E 32 82 2a 00
        E 64 b2 7b 00
        E 0 ff 2f 00
      >
    >
  >
  <TRACK {3854CD21-690C-4898-857F-DABF684AF39E}
    NAME "NES - Noise / Drums [ch3]"
    PEAKCOL 11184810
    BEAT -1
    AUTOMODE 0
    PANLAWFLAGS 3
    VOLPAN 1 0 -1 -1 1
    MUTESOLO 0 0 0
    IPHASE 0
    PLAYOFFS 0 1
    ISBUS 0 0
    BUSCOMP 0 0 0 0 0
    SHOWINMIX 1 0.6667 0.5 1 0.5 0 0 0
    FIXEDLANES 9 0 0 0 0
    SEL 0
    REC 0 5088 1 0 0 0 0 0
    VU 2
    TRACKHEIGHT 0 0 0 0 0 0 0
    INQ 0 0 0 0.5 100 0 0 100
    NCHAN 2
    FX 1
    TRACKID {3854CD21-690C-4898-857F-DABF684AF39E}
    PERF 0
    MIDIOUT -1
    MAINSEND 1 0
    <FXCHAIN
      WNDRECT 24 52 700 560
      SHOW 0
      LASTSEL 0
      DOCKED 0
      BYPASS 0 0 0
      <JS "ReapNES Studio/ReapNES_Console.jsfx" ""
        2 15 1 10 80 10 100 2 1 15 1 5 60 10 80 1 1 0 50 0 0 15 1 0 100 0 0 0.500000 0.500000 0.400000 0.300000 0.800000 3 1 0 0 0 0 - - - - - - - - - - - - - - - - - - - - - - - - - -
      >
      FLOATPOS 0 0 0 0
      FXID {343A476B-02B2-45D3-931F-393E2B6A954D}
      WAK 0 0
    >
    <ITEM
      POSITION 0
      LENGTH 9.269051600000001
      LOOP 0
      ALLTAKES 0
      FADEIN 0 0 0 0 0 0 0
      FADEOUT 0 0 0 0 0 0 0
      MUTE 0 0
      SEL 0
      IGUID {C9DA6E96-492A-4384-8666-306F30CFAFC0}
      <SOURCE MIDI
        HASDATA 1 480 QN
        CCINTERP 32
        E 0 93 2a 55
        E 160 83 2a 00
        E 64 93 2a 55
        E 112 83 2a 00
        E 0 93 2a 55
        E 160 83 2a 00
        E 176 93 2a 55
        E 160 83 2a 00
        E 64 93 2a 55
        E 112 83 2a 00
        E 0 93 2a 55
        E 160 83 2a 00
        E 64 93 2a 55
        E 112 83 2a 00
        E 0 93 2a 55
        E 160 83 2a 00
        E 64 93 2a 55
        E 112 83 2a 00
        E 0 93 2a 55
        E 160 83 2a 00
        E 176 93 2a 55
        E 160 83 2a 00
        E 64 93 2a 55
        E 112 83 2a 00
        E 0 93 2a 55
        E 160 83 2a 00
        E 64 93 2a 55
        E 112 83 2a 00
        E 0 93 2a 55
        E 160 83 2a 00
        E 64 93 2a 55
        E 112 83 2a 00
        E 0 93 2a 55
        E 160 83 2a 00
        E 176 93 2a 55
        E 160 83 2a 00
        E 64 93 2a 55
        E 112 83 2a 00
        E 0 93 2a 55
        E 160 83 2a 00
        E 64 93 2a 55
        E 112 83 2a 00
        E 0 93 2a 55
        E 160 83 2a 00
        E 64 93 2a 55
        E 112 83 2a 00
        E 0 93 2a 55
        E 160 83 2a 00
        E 176 93 2a 55
        E 160 83 2a 00
        E 64 93 2a 55
        E 112 83 2a 00
        E 0 93 2a 55
        E 160 83 2a 00
        E 64 93 2a 55
        E 112 83 2a 00
        E 0 93 2a 55
        E 160 83 2a 00
        E 64 93 2a 55
        E 112 83 2a 00
        E 0 93 2a 55
        E 160 83 2a 00
        E 176 93 2a 55
        E 160 83 2a 00
        E 64 93 2a 55
        E 112 83 2a 00
        E 0 93 2a 55
        E 160 83 2a 00
        E 64 93 2a 55
        E 112 83 2a 00
        E 0 93 2a 55
        E 160 83 2a 00
        E 64 93 2a 55
        E 112 83 2a 00
        E 0 93 2a 55
        E 160 83 2a 00
        E 176 93 2a 55
        E 160 83 2a 00
        E 64 93 2a 55
        E 112 83 2a 00
        E 0 93 2a 55
        E 160 83 2a 00
        E 64 93 2a 55
        E 112 83 2a 00
        E 0 93 2a 55
        E 160 83 2a 00
        E 64 93 2a 55
        E 112 83 2a 00
        E 0 93 2a 55
        E 160 83 2a 00
        E 176 93 2a 55
        E 160 83 2a 00
        E 176 93 2a 55
        E 160 83 2a 00
        E 176 93 2a 55
        E 128 83 2a 00
        E 0 b3 7b 00
        E 0 ff 2f 00
      >
    >
  >
>