<REAPER_PROJECT 0.1 "7.27/win64" 1707000000
  <NOTES 0 2
    |ReapNES Studio Project
    |MIDI Import - Duck_Tales_title_rom_v1
  >
  RIPPLE 0
  GROUPOVERRIDE 0 0 0
  AUTOXFADE 129
  ENVATTACH 3
  POOLEDENVATTACH 0
  MIXERUIFLAGS 11 48
  ENVFADESZ10 40
  PEAKGAIN 1
  FEEDBACK 0
  PANLAW 1
  PROJOFFS 0 0 0
  MAXPROJLEN 0 0
  GRID 3199 8 1 8 1 0 0 0
  TIMEMODE 1 5 -1 30 0 0 -1
  VIDEO_CONFIG 0 0 65792
  PANMODE 3
  PANLAWFLAGS 3
  CURSOR 0
  ZOOM 100 0 0
  VZOOMEX 6 0
  USE_REC_CFG 0
  RECMODE 1
  SMPTESYNC 0 30 100 40 1000 300 0 0 1 0 0
  LOOP 0
  LOOPGRAN 0 4
  RECORD_PATH "Media" ""
  <RECORD_CFG
    ZXZhdxgAAQ==
  >
  <APPLYFX_CFG
  >
  RENDER_FILE ""
  RENDER_PATTERN ""
  RENDER_FMT 0 2 0
  RENDER_1X 0
  RENDER_RANGE 1 0 0 18 1000
  RENDER_RESAMPLE 3 0 1
  RENDER_ADDTOPROJ 0
  RENDER_STEMS 0
  RENDER_DITHER 0
  TIMELOCKMODE 1
  TEMPOENVLOCKMODE 1
  ITEMMIX 1
  DEFPITCHMODE 589824 0
  TAKELANE 1
  SAMPLERATE 44100 0 0
  <RENDER_CFG
    ZXZhdxgAAQ==
  >
  LOCK 1
  <METRONOME 6 2
    VOL 0.25 0.125
    BEATLEN 4
    FREQ 1760 880 1
    SAMPLES "" ""
    SPLIGNORE 0 0
    SPLDEF 2 660 "" 0
    SPLDEF 3 440 "" 0
    PATTERN 0 169
    PATTERNSTR ABBB
    MULT 1
  >
  GLOBAL_AUTO -1
  TEMPO 128.59999614200012 4 4
  PLAYRATE 1 0 0.25 4
  SELECTION 0 0
  SELECTION2 0 0
  MASTERAUTOMODE 0
  MASTERTRACKHEIGHT 0 0
  MASTERPEAKCOL 16576
  MASTERMUTESOLO 0
  MASTERTRACKVIEW 0 0.6667 0.5 0.5 0 0 0 0 0 0 0 0 0 0
  MASTERHWOUT 0 0 1 0 0 0 0 -1
  MASTER_NCH 2 2
  MASTER_VOLUME 1 0 -1 -1 1
  MASTER_PANMODE 3
  MASTER_PANLAWFLAGS 3
  MASTER_FX 1
  MASTER_SEL 0
  <MASTERPLAYSPEEDENV
    EGUID {67ED2D03-25ED-4620-B97D-4F5B06780FC9}
    ACT 0 -1
    VIS 0 1 1
    LANEHEIGHT 0 0
    ARM 0
    DEFSHAPE 0 -1 -1
  >
  <TEMPOENVEX
    EGUID {2391842F-E132-48C1-9243-C3241B757745}
    ACT 1 -1
    VIS 1 0 1
    LANEHEIGHT 0 0
    ARM 0
    DEFSHAPE 1 -1 -1
  >
  <PROJBAY
  >
  <TRACK {5836D0A1-2938-4297-BE4D-FEE53E08FB64}
    NAME "NES - Pulse 1 [ch0]"
    PEAKCOL 16576606
    BEAT -1
    AUTOMODE 0
    PANLAWFLAGS 3
    VOLPAN 1 0 -1 -1 1
    MUTESOLO 0 0 0
    IPHASE 0
    PLAYOFFS 0 1
    ISBUS 0 0
    BUSCOMP 0 0 0 0 0
    SHOWINMIX 1 0.6667 0.5 1 0.5 0 0 0
    FIXEDLANES 9 0 0 0 0
    SEL 1
    REC 1 5088 1 0 0 0 0 0
    VU 2
    TRACKHEIGHT 0 0 0 0 0 0 0
    INQ 0 0 0 0.5 100 0 0 100
    NCHAN 2
    FX 1
    TRACKID {5836D0A1-2938-4297-BE4D-FEE53E08FB64}
    PERF 0
    MIDIOUT -1
    MAINSEND 1 0
    <FXCHAIN
      WNDRECT 24 52 700 560
      SHOW 0
      LASTSEL 0
      DOCKED 0
      BYPASS 0 0 0
      <JS "ReapNES Studio/ReapNES_Console.jsfx" ""
        2 15 1 10 80 10 100 2 1 15 1 5 60 10 80 1 1 0 50 0 0 15 1 0 100 0 0 0.500000 0.500000 0.400000 0.300000 0.800000 0 1 0 0 0 0 - - - - - - - - - - - - - - - - - - - - - - - - - -
      >
      FLOATPOS 0 0 0 0
      FXID {A44428E1-1F38-448B-8163-9CE884472F1B}
      WAK 0 0
    >
    <ITEM
      POSITION 0
      LENGTH 73.42146410000001
      LOOP 0
      ALLTAKES 0
      FADEIN 0 0 0 0 0 0 0
      FADEOUT 0 0 0 0 0 0 0
      MUTE 0 0
      SEL 0
      IGUID {FF0D95AA-5742-4815-96B5-A4C56EEDFBDD}
      <SOURCE MIDI
        HASDATA 1 480 QN
        CCINTERP 32
        E 0 c0 50
        E 0 b0 0c 40
        E 0 b0 0b 55
        E 0 90 45 55
        E 176 80 45 00
        E 16 90 40 55
        E 176 80 40 00
        E 16 90 44 55
        E 176 80 44 00
        E 16 90 45 55
        E 176 80 45 00
        E 16 90 40 55
        E 176 80 40 00
        E 16 90 44 55
        E 176 80 44 00
        E 16 90 45 55
        E 176 80 45 00
        E 16 90 40 55
        E 176 80 40 00
        E 16 90 45 55
        E 176 80 45 00
        E 16 90 40 55
        E 176 80 40 00
        E 16 90 44 55
        E 176 80 44 00
        E 16 90 45 55
        E 176 80 45 00
        E 16 90 40 55
        E 176 80 40 00
        E 16 90 44 55
        E 176 80 44 00
        E 16 90 45 55
        E 176 80 45 00
        E 16 90 40 55
        E 176 80 40 00
        E 16 90 45 55
        E 176 80 45 00
        E 16 90 40 55
        E 176 80 40 00
        E 16 90 44 55
        E 176 80 44 00
        E 16 90 45 55
        E 176 80 45 00
        E 16 90 40 55
        E 176 80 40 00
        E 16 90 44 55
        E 176 80 44 00
        E 16 90 45 55
        E 176 80 45 00
        E 16 90 40 55
        E 176 80 40 00
        E 16 90 45 55
        E 176 80 45 00
        E 16 90 40 55
        E 176 80 40 00
        E 16 90 44 55
        E 176 80 44 00
        E 16 90 45 55
        E 176 80 45 00
        E 16 90 40 55
        E 176 80 40 00
        E 16 90 44 55
        E 176 80 44 00
        E 16 90 45 55
        E 176 80 45 00
        E 16 90 40 55
        E 176 80 40 00
        E 16 90 45 55
        E 176 80 45 00
        E 16 90 40 55
        E 176 80 40 00
        E 16 90 44 55
        E 176 80 44 00
        E 16 90 45 55
        E 176 80 45 00
        E 16 90 40 55
        E 176 80 40 00
        E 16 90 44 55
        E 176 80 44 00
        E 16 90 45 55
        E 176 80 45 00
        E 16 90 40 55
        E 176 80 40 00
        E 16 90 45 55
        E 176 80 45 00
        E 16 90 40 55
        E 176 80 40 00
        E 16 90 44 55
        E 176 80 44 00
        E 16 90 45 55
        E 176 80 45 00
        E 16 90 40 55
        E 176 80 40 00
        E 16 90 44 55
        E 176 80 44 00
        E 16 90 45 55
        E 176 80 45 00
        E 16 90 40 55
        E 176 80 40 00
        E 16 90 45 55
        E 176 80 45 00
        E 16 90 40 55
        E 176 80 40 00
        E 16 90 44 55
        E 176 80 44 00
        E 16 90 45 55
        E 176 80 45 00
        E 16 90 40 55
        E 176 80 40 00
        E 16 90 44 55
        E 176 80 44 00
        E 16 90 45 55
        E 176 80 45 00
        E 16 90 40 55
        E 176 80 40 00
        E 16 90 45 55
        E 176 80 45 00
        E 16 90 40 55
        E 176 80 40 00
        E 16 90 44 55
        E 176 80 44 00
        E 16 90 45 55
        E 176 80 45 00
        E 16 90 40 55
        E 176 80 40 00
        E 16 90 44 55
        E 176 80 44 00
        E 16 90 45 55
        E 176 80 45 00
        E 16 90 40 55
        E 176 80 40 00
        E 16 90 45 55
        E 176 80 45 00
        E 16 90 40 55
        E 176 80 40 00
        E 16 90 44 55
        E 176 80 44 00
        E 16 90 45 55
        E 176 80 45 00
        E 16 90 40 55
        E 176 80 40 00
        E 16 90 44 55
        E 176 80 44 00
        E 16 90 45 55
        E 176 80 45 00
        E 16 90 40 55
        E 176 80 40 00
        E 16 90 45 55
        E 176 80 45 00
        E 16 90 40 55
        E 176 80 40 00
        E 16 90 44 55
        E 176 80 44 00
        E 16 90 45 55
        E 176 80 45 00
        E 16 90 40 55
        E 176 80 40 00
        E 16 90 44 55
        E 176 80 44 00
        E 16 90 45 55
        E 176 80 45 00
        E 16 90 40 55
        E 176 80 40 00
        E 16 90 45 55
        E 176 80 45 00
        E 16 90 40 55
        E 176 80 40 00
        E 16 90 44 55
        E 176 80 44 00
        E 16 90 45 55
        E 176 80 45 00
        E 16 90 40 55
        E 176 80 40 00
        E 16 90 44 55
        E 176 80 44 00
        E 16 90 45 55
        E 176 80 45 00
        E 16 90 40 55
        E 176 80 40 00
        E 16 90 45 55
        E 176 80 45 00
        E 16 90 40 55
        E 176 80 40 00
        E 16 90 44 55
        E 176 80 44 00
        E 16 90 45 55
        E 176 80 45 00
        E 16 90 40 55
        E 176 80 40 00
        E 16 90 44 55
        E 176 80 44 00
        E 16 90 45 55
        E 176 80 45 00
        E 16 90 40 55
        E 176 80 40 00
        E 16 90 45 55
        E 176 80 45 00
        E 16 90 40 55
        E 176 80 40 00
        E 16 90 44 55
        E 176 80 44 00
        E 16 90 45 55
        E 176 80 45 00
        E 16 90 40 55
        E 176 80 40 00
        E 16 90 44 55
        E 176 80 44 00
        E 16 90 45 55
        E 176 80 45 00
        E 16 90 40 55
        E 176 80 40 00
        E 16 90 45 55
        E 176 80 45 00
        E 16 90 40 55
        E 176 80 40 00
        E 16 90 44 55
        E 176 80 44 00
        E 16 90 45 55
        E 176 80 45 00
        E 16 90 40 55
        E 176 80 40 00
        E 16 90 44 55
        E 176 80 44 00
        E 16 90 45 55
        E 176 80 45 00
        E 16 90 40 55
        E 176 80 40 00
        E 16 90 45 55
        E 176 80 45 00
        E 16 90 40 55
        E 176 80 40 00
        E 16 90 44 55
        E 176 80 44 00
        E 16 90 45 55
        E 176 80 45 00
        E 16 90 40 55
        E 176 80 40 00
        E 16 90 44 55
        E 176 80 44 00
        E 16 90 45 55
        E 176 80 45 00
        E 16 90 40 55
        E 176 80 40 00
        E 16 90 45 55
        E 176 80 45 00
        E 16 90 40 55
        E 176 80 40 00
        E 16 90 44 55
        E 176 80 44 00
        E 16 90 45 55
        E 176 80 45 00
        E 16 90 40 55
        E 176 80 40 00
        E 16 90 44 55
        E 176 80 44 00
        E 16 90 45 55
        E 176 80 45 00
        E 16 90 40 55
        E 176 80 40 00
        E 16 90 45 55
        E 176 80 45 00
        E 16 90 40 55
        E 176 80 40 00
        E 16 90 44 55
        E 176 80 44 00
        E 16 90 45 55
        E 176 80 45 00
        E 16 90 40 55
        E 176 80 40 00
        E 16 90 44 55
        E 176 80 44 00
        E 16 90 45 55
        E 176 80 45 00
        E 16 90 40 55
        E 176 80 40 00
        E 16 90 45 55
        E 176 80 45 00
        E 16 90 40 55
        E 176 80 40 00
        E 16 90 44 55
        E 176 80 44 00
        E 16 90 45 55
        E 176 80 45 00
        E 16 90 40 55
        E 176 80 40 00
        E 16 90 44 55
        E 176 80 44 00
        E 16 90 45 55
        E 176 80 45 00
        E 16 90 40 55
        E 176 80 40 00
        E 16 90 45 55
        E 176 80 45 00
        E 16 90 40 55
        E 176 80 40 00
        E 16 90 44 55
        E 176 80 44 00
        E 16 90 45 55
        E 176 80 45 00
        E 16 90 40 55
        E 176 80 40 00
        E 16 90 44 55
        E 176 80 44 00
        E 16 90 45 55
        E 176 80 45 00
        E 16 90 40 55
        E 176 80 40 00
        E 16 90 45 55
        E 176 80 45 00
        E 16 90 40 55
        E 176 80 40 00
        E 16 90 44 55
        E 176 80 44 00
        E 16 90 45 55
        E 176 80 45 00
        E 16 90 40 55
        E 176 80 40 00
        E 16 90 44 55
        E 176 80 44 00
        E 16 90 45 55
        E 176 80 45 00
        E 16 90 40 55
        E 176 80 40 00
        E 16 90 45 55
        E 176 80 45 00
        E 16 90 40 55
        E 176 80 40 00
        E 16 90 44 55
        E 176 80 44 00
        E 16 90 45 55
        E 176 80 45 00
        E 16 90 40 55
        E 176 80 40 00
        E 16 90 44 55
        E 176 80 44 00
        E 16 90 45 55
        E 176 80 45 00
        E 16 90 40 55
        E 176 80 40 00
        E 16 90 45 55
        E 176 80 45 00
        E 16 90 40 55
        E 176 80 40 00
        E 16 90 44 55
        E 176 80 44 00
        E 16 90 45 55
        E 176 80 45 00
        E 16 90 40 55
        E 176 80 40 00
        E 16 90 44 55
        E 176 80 44 00
        E 16 90 45 55
        E 176 80 45 00
        E 16 90 40 55
        E 176 80 40 00
        E 16 90 45 55
        E 176 80 45 00
        E 16 90 40 55
        E 176 80 40 00
        E 16 90 44 55
        E 176 80 44 00
        E 16 90 45 55
        E 176 80 45 00
        E 16 90 40 55
        E 176 80 40 00
        E 16 90 44 55
        E 176 80 44 00
        E 16 90 45 55
        E 176 80 45 00
        E 16 90 40 55
        E 176 80 40 00
        E 16 90 45 55
        E 176 80 45 00
        E 16 90 40 55
        E 176 80 40 00
        E 16 90 44 55
        E 176 80 44 00
        E 16 90 45 55
        E 176 80 45 00
        E 16 90 40 55
        E 176 80 40 00
        E 16 90 44 55
        E 176 80 44 00
        E 16 90 45 55
        E 176 80 45 00
        E 16 90 40 55
        E 176 80 40 00
        E 16 90 45 55
        E 176 80 45 00
        E 16 90 40 55
        E 176 80 40 00
        E 16 90 44 55
        E 176 80 44 00
        E 16 90 45 55
        E 176 80 45 00
        E 16 90 40 55
        E 176 80 40 00
        E 16 90 44 55
        E 176 80 44 00
        E 16 90 45 55
        E 176 80 45 00
        E 16 90 40 55
        E 176 80 40 00
        E 16 90 45 55
        E 176 80 45 00
        E 16 90 40 55
        E 176 80 40 00
        E 16 90 44 55
        E 176 80 44 00
        E 16 90 45 55
        E 176 80 45 00
        E 16 90 40 55
        E 176 80 40 00
        E 16 90 44 55
        E 176 80 44 00
        E 16 90 45 55
        E 176 80 45 00
        E 16 90 40 55
        E 176 80 40 00
        E 16 90 45 55
        E 176 80 45 00
        E 16 90 40 55
        E 176 80 40 00
        E 16 90 44 55
        E 176 80 44 00
        E 16 90 45 55
        E 176 80 45 00
        E 16 90 40 55
        E 176 80 40 00
        E 16 90 44 55
        E 176 80 44 00
        E 16 90 45 55
        E 176 80 45 00
        E 16 90 40 55
        E 176 80 40 00
        E 16 90 45 55
        E 176 80 45 00
        E 16 90 40 55
        E 176 80 40 00
        E 16 90 44 55
        E 176 80 44 00
        E 16 90 45 55
        E 176 80 45 00
        E 16 90 40 55
        E 176 80 40 00
        E 16 90 44 55
        E 176 80 44 00
        E 16 90 45 55
        E 176 80 45 00
        E 16 90 40 55
        E 176 80 40 00
        E 16 90 45 55
        E 176 80 45 00
        E 16 90 40 55
        E 176 80 40 00
        E 16 90 44 55
        E 176 80 44 00
        E 16 90 45 55
        E 176 80 45 00
        E 16 90 40 55
        E 176 80 40 00
        E 16 90 44 55
        E 176 80 44 00
        E 16 90 45 55
        E 176 80 45 00
        E 16 90 40 55
        E 176 80 40 00
        E 16 90 45 55
        E 176 80 45 00
        E 16 90 40 55
        E 176 80 40 00
        E 16 90 44 55
        E 176 80 44 00
        E 16 90 45 55
        E 176 80 45 00
        E 16 90 40 55
        E 176 80 40 00
        E 16 90 44 55
        E 176 80 44 00
        E 16 90 45 55
        E 176 80 45 00
        E 16 90 40 55
        E 176 80 40 00
        E 16 90 45 55
        E 176 80 45 00
        E 16 90 40 55
        E 176 80 40 00
        E 16 90 44 55
        E 176 80 44 00
        E 16 90 45 55
        E 176 80 45 00
        E 16 90 40 55
        E 176 80 40 00
        E 16 90 44 55
        E 176 80 44 00
        E 16 90 45 55
        E 176 80 45 00
        E 16 90 40 55
        E 176 80 40 00
        E 16 90 45 55
        E 176 80 45 00
        E 16 90 40 55
        E 176 80 40 00
        E 16 90 44 55
        E 176 80 44 00
        E 16 90 45 55
        E 176 80 45 00
        E 16 90 40 55
        E 176 80 40 00
        E 16 90 44 55
        E 176 80 44 00
        E 16 90 45 55
        E 176 80 45 00
        E 16 90 40 55
        E 176 80 40 00
        E 16 90 45 55
        E 176 80 45 00
        E 16 90 40 55
        E 176 80 40 00
        E 16 90 44 55
        E 176 80 44 00
        E 16 90 45 55
        E 176 80 45 00
        E 16 90 40 55
        E 176 80 40 00
        E 16 90 44 55
        E 176 80 44 00
        E 16 90 45 55
        E 176 80 45 00
        E 16 90 40 55
        E 176 80 40 00
        E 16 90 45 55
        E 176 80 45 00
        E 16 90 40 55
        E 176 80 40 00
        E 16 90 44 55
        E 176 80 44 00
        E 16 90 45 55
        E 176 80 45 00
        E 16 90 40 55
        E 176 80 40 00
        E 16 90 44 55
        E 176 80 44 00
        E 16 90 45 55
        E 176 80 45 00
        E 16 90 40 55
        E 176 80 40 00
        E 16 90 45 55
        E 176 80 45 00
        E 16 90 40 55
        E 176 80 40 00
        E 16 90 44 55
        E 176 80 44 00
        E 16 90 45 55
        E 176 80 45 00
        E 16 90 40 55
        E 176 80 40 00
        E 16 90 44 55
        E 176 80 44 00
        E 16 90 45 55
        E 176 80 45 00
        E 16 90 40 55
        E 176 80 40 00
        E 16 90 45 55
        E 176 80 45 00
        E 16 90 40 55
        E 176 80 40 00
        E 16 90 44 55
        E 176 80 44 00
        E 16 90 45 55
        E 176 80 45 00
        E 16 90 40 55
        E 176 80 40 00
        E 16 90 44 55
        E 176 80 44 00
        E 16 90 45 55
        E 176 80 45 00
        E 16 90 40 55
        E 176 80 40 00
        E 16 90 45 55
        E 176 80 45 00
        E 16 90 40 55
        E 176 80 40 00
        E 16 90 44 55
        E 176 80 44 00
        E 16 90 45 55
        E 176 80 45 00
        E 16 90 40 55
        E 176 80 40 00
        E 16 90 44 55
        E 176 80 44 00
        E 16 90 45 55
        E 176 80 45 00
        E 16 90 40 55
        E 176 80 40 00
        E 16 90 45 55
        E 176 80 45 00
        E 16 90 40 55
        E 176 80 40 00
        E 16 90 44 55
        E 176 80 44 00
        E 16 90 45 55
        E 176 80 45 00
        E 16 90 40 55
        E 176 80 40 00
        E 16 90 44 55
        E 176 80 44 00
        E 16 90 45 55
        E 176 80 45 00
        E 16 90 40 55
        E 176 80 40 00
        E 16 90 45 55
        E 176 80 45 00
        E 16 90 40 55
        E 176 80 40 00
        E 16 90 44 55
        E 176 80 44 00
        E 16 90 45 55
        E 176 80 45 00
        E 16 90 40 55
        E 176 80 40 00
        E 16 90 44 55
        E 176 80 44 00
        E 16 90 45 55
        E 176 80 45 00
        E 16 90 40 55
        E 176 80 40 00
        E 16 90 45 55
        E 176 80 45 00
        E 16 90 40 55
        E 176 80 40 00
        E 16 90 44 55
        E 176 80 44 00
        E 16 90 45 55
        E 176 80 45 00
        E 16 90 40 55
        E 176 80 40 00
        E 16 90 44 55
        E 176 80 44 00
        E 16 90 45 55
        E 176 80 45 00
        E 16 90 40 55
        E 176 80 40 00
        E 16 90 45 55
        E 176 80 45 00
        E 16 90 40 55
        E 176 80 40 00
        E 16 90 44 55
        E 176 80 44 00
        E 16 90 45 55
        E 176 80 45 00
        E 16 90 40 55
        E 176 80 40 00
        E 16 90 44 55
        E 176 80 44 00
        E 16 90 45 55
        E 176 80 45 00
        E 16 90 40 55
        E 176 80 40 00
        E 16 90 45 55
        E 176 80 45 00
        E 16 90 40 55
        E 176 80 40 00
        E 16 90 44 55
        E 176 80 44 00
        E 16 90 45 55
        E 176 80 45 00
        E 16 90 40 55
        E 176 80 40 00
        E 16 90 44 55
        E 176 80 44 00
        E 16 90 45 55
        E 176 80 45 00
        E 16 90 40 55
        E 176 80 40 00
        E 16 90 45 55
        E 176 80 45 00
        E 16 90 40 55
        E 176 80 40 00
        E 16 90 44 55
        E 176 80 44 00
        E 16 90 45 55
        E 176 80 45 00
        E 16 90 40 55
        E 176 80 40 00
        E 16 90 44 55
        E 176 80 44 00
        E 16 90 45 55
        E 176 80 45 00
        E 16 90 40 55
        E 176 80 40 00
        E 16 90 45 55
        E 176 80 45 00
        E 16 90 40 55
        E 176 80 40 00
        E 16 90 44 55
        E 176 80 44 00
        E 16 90 45 55
        E 176 80 45 00
        E 16 90 40 55
        E 176 80 40 00
        E 16 90 44 55
        E 176 80 44 00
        E 16 90 45 55
        E 176 80 45 00
        E 16 90 40 55
        E 176 80 40 00
        E 16 90 45 55
        E 176 80 45 00
        E 16 90 40 55
        E 176 80 40 00
        E 16 90 44 55
        E 176 80 44 00
        E 16 90 45 55
        E 176 80 45 00
        E 16 90 40 55
        E 176 80 40 00
        E 16 90 44 55
        E 176 80 44 00
        E 16 90 45 55
        E 176 80 45 00
        E 16 90 40 55
        E 176 80 40 00
        E 16 90 45 55
        E 176 80 45 00
        E 16 90 40 55
        E 176 80 40 00
        E 16 90 44 55
        E 176 80 44 00
        E 16 90 45 55
        E 176 80 45 00
        E 16 90 40 55
        E 176 80 40 00
        E 16 90 44 55
        E 176 80 44 00
        E 16 90 45 55
        E 176 80 45 00
        E 16 90 40 55
        E 176 80 40 00
        E 16 90 45 55
        E 176 80 45 00
        E 16 90 40 55
        E 176 80 40 00
        E 16 90 44 55
        E 176 80 44 00
        E 16 90 45 55
        E 176 80 45 00
        E 16 90 40 55
        E 176 80 40 00
        E 16 90 44 55
        E 176 80 44 00
        E 16 90 45 55
        E 176 80 45 00
        E 16 90 40 55
        E 176 80 40 00
        E 16 90 45 55
        E 176 80 45 00
        E 16 90 40 55
        E 176 80 40 00
        E 16 90 44 55
        E 176 80 44 00
        E 16 90 45 55
        E 176 80 45 00
        E 16 90 40 55
        E 176 80 40 00
        E 16 90 44 55
        E 176 80 44 00
        E 16 90 45 55
        E 176 80 45 00
        E 16 90 40 55
        E 176 80 40 00
        E 16 90 45 55
        E 176 80 45 00
        E 16 90 40 55
        E 176 80 40 00
        E 16 90 44 55
        E 176 80 44 00
        E 16 90 45 55
        E 176 80 45 00
        E 16 90 40 55
        E 176 80 40 00
        E 16 90 44 55
        E 176 80 44 00
        E 16 90 45 55
        E 176 80 45 00
        E 16 90 40 55
        E 176 80 40 00
        E 16 90 45 55
        E 176 80 45 00
        E 16 90 40 55
        E 80 80 40 00
        E 0 b0 7b 00
        E 0 ff 2f 00
      >
    >
  >
  <TRACK {FBBB70FE-EE07-4494-8711-520FAF4CEA87}
    NAME "NES - Pulse 2 [ch1]"
    PEAKCOL 10092441
    BEAT -1
    AUTOMODE 0
    PANLAWFLAGS 3
    VOLPAN 1 0 -1 -1 1
    MUTESOLO 0 0 0
    IPHASE 0
    PLAYOFFS 0 1
    ISBUS 0 0
    BUSCOMP 0 0 0 0 0
    SHOWINMIX 1 0.6667 0.5 1 0.5 0 0 0
    FIXEDLANES 9 0 0 0 0
    SEL 0
    REC 0 5088 1 0 0 0 0 0
    VU 2
    TRACKHEIGHT 0 0 0 0 0 0 0
    INQ 0 0 0 0.5 100 0 0 100
    NCHAN 2
    FX 1
    TRACKID {FBBB70FE-EE07-4494-8711-520FAF4CEA87}
    PERF 0
    MIDIOUT -1
    MAINSEND 1 0
    <FXCHAIN
      WNDRECT 24 52 700 560
      SHOW 0
      LASTSEL 0
      DOCKED 0
      BYPASS 0 0 0
      <JS "ReapNES Studio/ReapNES_Console.jsfx" ""
        2 15 1 10 80 10 100 2 1 15 1 5 60 10 80 1 1 0 50 0 0 15 1 0 100 0 0 0.500000 0.500000 0.400000 0.300000 0.800000 1 1 0 0 0 0 - - - - - - - - - - - - - - - - - - - - - - - - - -
      >
      FLOATPOS 0 0 0 0
      FXID {A1D462DA-148A-4D34-B533-0072A20AB783}
      WAK 0 0
    >
    <ITEM
      POSITION 0
      LENGTH 73.42146410000001
      LOOP 0
      ALLTAKES 0
      FADEIN 0 0 0 0 0 0 0
      FADEOUT 0 0 0 0 0 0 0
      MUTE 0 0
      SEL 0
      IGUID {9BCA6BCF-4998-4FC0-A52F-761609BFA086}
      <SOURCE MIDI
        HASDATA 1 480 QN
        CCINTERP 32
        E 0 c1 51
        E 144 b1 0c 40
        E 0 b1 0b 33
        E 0 91 45 33
        E 176 81 45 00
        E 16 91 40 33
        E 176 81 40 00
        E 16 91 44 33
        E 176 81 44 00
        E 16 91 45 33
        E 176 81 45 00
        E 16 91 40 33
        E 176 81 40 00
        E 16 91 44 33
        E 176 81 44 00
        E 16 91 45 33
        E 176 81 45 00
        E 16 91 40 33
        E 176 81 40 00
        E 16 91 45 33
        E 176 81 45 00
        E 16 91 40 33
        E 176 81 40 00
        E 16 91 44 33
        E 176 81 44 00
        E 16 91 45 33
        E 176 81 45 00
        E 16 91 40 33
        E 176 81 40 00
        E 16 91 44 33
        E 176 81 44 00
        E 16 91 45 33
        E 176 81 45 00
        E 16 91 40 33
        E 176 81 40 00
        E 16 91 45 33
        E 176 81 45 00
        E 16 91 40 33
        E 176 81 40 00
        E 16 91 44 33
        E 176 81 44 00
        E 16 91 45 33
        E 176 81 45 00
        E 16 91 40 33
        E 176 81 40 00
        E 16 91 44 33
        E 176 81 44 00
        E 16 91 45 33
        E 176 81 45 00
        E 16 91 40 33
        E 176 81 40 00
        E 16 91 45 33
        E 176 81 45 00
        E 16 91 40 33
        E 176 81 40 00
        E 16 91 44 33
        E 176 81 44 00
        E 16 91 45 33
        E 176 81 45 00
        E 16 91 40 33
        E 176 81 40 00
        E 16 91 44 33
        E 176 81 44 00
        E 16 91 45 33
        E 176 81 45 00
        E 16 91 40 33
        E 176 81 40 00
        E 16 91 45 33
        E 176 81 45 00
        E 16 91 40 33
        E 176 81 40 00
        E 16 91 44 33
        E 176 81 44 00
        E 16 91 45 33
        E 176 81 45 00
        E 16 91 40 33
        E 176 81 40 00
        E 16 91 44 33
        E 176 81 44 00
        E 16 91 45 33
        E 176 81 45 00
        E 16 91 40 33
        E 176 81 40 00
        E 16 91 45 33
        E 176 81 45 00
        E 16 91 40 33
        E 176 81 40 00
        E 16 91 44 33
        E 176 81 44 00
        E 16 91 45 33
        E 176 81 45 00
        E 16 91 40 33
        E 176 81 40 00
        E 16 91 44 33
        E 176 81 44 00
        E 16 91 45 33
        E 176 81 45 00
        E 16 91 40 33
        E 176 81 40 00
        E 16 91 45 33
        E 176 81 45 00
        E 16 91 40 33
        E 176 81 40 00
        E 16 91 44 33
        E 176 81 44 00
        E 16 91 45 33
        E 176 81 45 00
        E 16 91 40 33
        E 176 81 40 00
        E 16 91 44 33
        E 176 81 44 00
        E 16 91 45 33
        E 176 81 45 00
        E 16 91 40 33
        E 176 81 40 00
        E 16 91 45 33
        E 176 81 45 00
        E 16 91 40 33
        E 176 81 40 00
        E 16 91 44 33
        E 176 81 44 00
        E 16 91 45 33
        E 176 81 45 00
        E 16 91 40 33
        E 176 81 40 00
        E 16 91 44 33
        E 176 81 44 00
        E 16 91 45 33
        E 176 81 45 00
        E 16 91 40 33
        E 176 81 40 00
        E 16 91 45 33
        E 176 81 45 00
        E 16 91 40 33
        E 176 81 40 00
        E 16 91 44 33
        E 176 81 44 00
        E 16 91 45 33
        E 176 81 45 00
        E 16 91 40 33
        E 176 81 40 00
        E 16 91 44 33
        E 176 81 44 00
        E 16 91 45 33
        E 176 81 45 00
        E 16 91 40 33
        E 176 81 40 00
        E 16 91 45 33
        E 176 81 45 00
        E 16 91 40 33
        E 176 81 40 00
        E 16 91 44 33
        E 176 81 44 00
        E 16 91 45 33
        E 176 81 45 00
        E 16 91 40 33
        E 176 81 40 00
        E 16 91 44 33
        E 176 81 44 00
        E 16 91 45 33
        E 176 81 45 00
        E 16 91 40 33
        E 176 81 40 00
        E 16 91 45 33
        E 176 81 45 00
        E 16 91 40 33
        E 176 81 40 00
        E 16 91 44 33
        E 176 81 44 00
        E 16 91 45 33
        E 176 81 45 00
        E 16 91 40 33
        E 176 81 40 00
        E 16 91 44 33
        E 176 81 44 00
        E 16 91 45 33
        E 176 81 45 00
        E 16 91 40 33
        E 176 81 40 00
        E 16 91 45 33
        E 176 81 45 00
        E 16 91 40 33
        E 176 81 40 00
        E 16 91 44 33
        E 176 81 44 00
        E 16 91 45 33
        E 176 81 45 00
        E 16 91 40 33
        E 176 81 40 00
        E 16 91 44 33
        E 176 81 44 00
        E 16 91 45 33
        E 176 81 45 00
        E 16 91 40 33
        E 176 81 40 00
        E 16 91 45 33
        E 176 81 45 00
        E 16 91 40 33
        E 176 81 40 00
        E 16 91 44 33
        E 176 81 44 00
        E 16 91 45 33
        E 176 81 45 00
        E 16 91 40 33
        E 176 81 40 00
        E 16 91 44 33
        E 176 81 44 00
        E 16 91 45 33
        E 176 81 45 00
        E 16 91 40 33
        E 176 81 40 00
        E 16 91 45 33
        E 176 81 45 00
        E 16 91 40 33
        E 176 81 40 00
        E 16 91 44 33
        E 176 81 44 00
        E 16 91 45 33
        E 176 81 45 00
        E 16 91 40 33
        E 176 81 40 00
        E 16 91 44 33
        E 176 81 44 00
        E 16 91 45 33
        E 176 81 45 00
        E 16 91 40 33
        E 176 81 40 00
        E 16 91 45 33
        E 176 81 45 00
        E 16 91 40 33
        E 176 81 40 00
        E 16 91 44 33
        E 176 81 44 00
        E 16 91 45 33
        E 176 81 45 00
        E 16 91 40 33
        E 176 81 40 00
        E 16 91 44 33
        E 176 81 44 00
        E 16 91 45 33
        E 176 81 45 00
        E 16 91 40 33
        E 176 81 40 00
        E 16 91 45 33
        E 176 81 45 00
        E 16 91 40 33
        E 176 81 40 00
        E 16 91 44 33
        E 176 81 44 00
        E 16 91 45 33
        E 176 81 45 00
        E 16 91 40 33
        E 176 81 40 00
        E 16 91 44 33
        E 176 81 44 00
        E 16 91 45 33
        E 176 81 45 00
        E 16 91 40 33
        E 176 81 40 00
        E 16 91 45 33
        E 176 81 45 00
        E 16 91 40 33
        E 176 81 40 00
        E 16 91 44 33
        E 176 81 44 00
        E 16 91 45 33
        E 176 81 45 00
        E 16 91 40 33
        E 176 81 40 00
        E 16 91 44 33
        E 176 81 44 00
        E 16 91 45 33
        E 176 81 45 00
        E 16 91 40 33
        E 176 81 40 00
        E 16 91 45 33
        E 176 81 45 00
        E 16 91 40 33
        E 176 81 40 00
        E 16 91 44 33
        E 176 81 44 00
        E 16 91 45 33
        E 176 81 45 00
        E 16 91 40 33
        E 176 81 40 00
        E 16 91 44 33
        E 176 81 44 00
        E 16 91 45 33
        E 176 81 45 00
        E 16 91 40 33
        E 176 81 40 00
        E 16 91 45 33
        E 176 81 45 00
        E 16 91 40 33
        E 176 81 40 00
        E 16 91 44 33
        E 176 81 44 00
        E 16 91 45 33
        E 176 81 45 00
        E 16 91 40 33
        E 176 81 40 00
        E 16 91 44 33
        E 176 81 44 00
        E 16 91 45 33
        E 176 81 45 00
        E 16 91 40 33
        E 176 81 40 00
        E 16 91 45 33
        E 176 81 45 00
        E 16 91 40 33
        E 176 81 40 00
        E 16 91 44 33
        E 176 81 44 00
        E 16 91 45 33
        E 176 81 45 00
        E 16 91 40 33
        E 176 81 40 00
        E 16 91 44 33
        E 176 81 44 00
        E 16 91 45 33
        E 176 81 45 00
        E 16 91 40 33
        E 176 81 40 00
        E 16 91 45 33
        E 176 81 45 00
        E 16 91 40 33
        E 176 81 40 00
        E 16 91 44 33
        E 176 81 44 00
        E 16 91 45 33
        E 176 81 45 00
        E 16 91 40 33
        E 176 81 40 00
        E 16 91 44 33
        E 176 81 44 00
        E 16 91 45 33
        E 176 81 45 00
        E 16 91 40 33
        E 176 81 40 00
        E 16 91 45 33
        E 176 81 45 00
        E 16 91 40 33
        E 176 81 40 00
        E 16 91 44 33
        E 176 81 44 00
        E 16 91 45 33
        E 176 81 45 00
        E 16 91 40 33
        E 176 81 40 00
        E 16 91 44 33
        E 176 81 44 00
        E 16 91 45 33
        E 176 81 45 00
        E 16 91 40 33
        E 176 81 40 00
        E 16 91 45 33
        E 176 81 45 00
        E 16 91 40 33
        E 176 81 40 00
        E 16 91 44 33
        E 176 81 44 00
        E 16 91 45 33
        E 176 81 45 00
        E 16 91 40 33
        E 176 81 40 00
        E 16 91 44 33
        E 176 81 44 00
        E 16 91 45 33
        E 176 81 45 00
        E 16 91 40 33
        E 176 81 40 00
        E 16 91 45 33
        E 176 81 45 00
        E 16 91 40 33
        E 176 81 40 00
        E 16 91 44 33
        E 176 81 44 00
        E 16 91 45 33
        E 176 81 45 00
        E 16 91 40 33
        E 176 81 40 00
        E 16 91 44 33
        E 176 81 44 00
        E 16 91 45 33
        E 176 81 45 00
        E 16 91 40 33
        E 176 81 40 00
        E 16 91 45 33
        E 176 81 45 00
        E 16 91 40 33
        E 176 81 40 00
        E 16 91 44 33
        E 176 81 44 00
        E 16 91 45 33
        E 176 81 45 00
        E 16 91 40 33
        E 176 81 40 00
        E 16 91 44 33
        E 176 81 44 00
        E 16 91 45 33
        E 176 81 45 00
        E 16 91 40 33
        E 176 81 40 00
        E 16 91 45 33
        E 176 81 45 00
        E 16 91 40 33
        E 176 81 40 00
        E 16 91 44 33
        E 176 81 44 00
        E 16 91 45 33
        E 176 81 45 00
        E 16 91 40 33
        E 176 81 40 00
        E 16 91 44 33
        E 176 81 44 00
        E 16 91 45 33
        E 176 81 45 00
        E 16 91 40 33
        E 176 81 40 00
        E 16 91 45 33
        E 176 81 45 00
        E 16 91 40 33
        E 176 81 40 00
        E 16 91 44 33
        E 176 81 44 00
        E 16 91 45 33
        E 176 81 45 00
        E 16 91 40 33
        E 176 81 40 00
        E 16 91 44 33
        E 176 81 44 00
        E 16 91 45 33
        E 176 81 45 00
        E 16 91 40 33
        E 176 81 40 00
        E 16 91 45 33
        E 176 81 45 00
        E 16 91 40 33
        E 176 81 40 00
        E 16 91 44 33
        E 176 81 44 00
        E 16 91 45 33
        E 176 81 45 00
        E 16 91 40 33
        E 176 81 40 00
        E 16 91 44 33
        E 176 81 44 00
        E 16 91 45 33
        E 176 81 45 00
        E 16 91 40 33
        E 176 81 40 00
        E 16 91 45 33
        E 176 81 45 00
        E 16 91 40 33
        E 176 81 40 00
        E 16 91 44 33
        E 176 81 44 00
        E 16 91 45 33
        E 176 81 45 00
        E 16 91 40 33
        E 176 81 40 00
        E 16 91 44 33
        E 176 81 44 00
        E 16 91 45 33
        E 176 81 45 00
        E 16 91 40 33
        E 176 81 40 00
        E 16 91 45 33
        E 176 81 45 00
        E 16 91 40 33
        E 176 81 40 00
        E 16 91 44 33
        E 176 81 44 00
        E 16 91 45 33
        E 176 81 45 00
        E 16 91 40 33
        E 176 81 40 00
        E 16 91 44 33
        E 176 81 44 00
        E 16 91 45 33
        E 176 81 45 00
        E 16 91 40 33
        E 176 81 40 00
        E 16 91 45 33
        E 176 81 45 00
        E 16 91 40 33
        E 176 81 40 00
        E 16 91 44 33
        E 176 81 44 00
        E 16 91 45 33
        E 176 81 45 00
        E 16 91 40 33
        E 176 81 40 00
        E 16 91 44 33
        E 176 81 44 00
        E 16 91 45 33
        E 176 81 45 00
        E 16 91 40 33
        E 176 81 40 00
        E 16 91 45 33
        E 176 81 45 00
        E 16 91 40 33
        E 176 81 40 00
        E 16 91 44 33
        E 176 81 44 00
        E 16 91 45 33
        E 176 81 45 00
        E 16 91 40 33
        E 176 81 40 00
        E 16 91 44 33
        E 176 81 44 00
        E 16 91 45 33
        E 176 81 45 00
        E 16 91 40 33
        E 176 81 40 00
        E 16 91 45 33
        E 176 81 45 00
        E 16 91 40 33
        E 176 81 40 00
        E 16 91 44 33
        E 176 81 44 00
        E 16 91 45 33
        E 176 81 45 00
        E 16 91 40 33
        E 176 81 40 00
        E 16 91 44 33
        E 176 81 44 00
        E 16 91 45 33
        E 176 81 45 00
        E 16 91 40 33
        E 176 81 40 00
        E 16 91 45 33
        E 176 81 45 00
        E 16 91 40 33
        E 176 81 40 00
        E 16 91 44 33
        E 176 81 44 00
        E 16 91 45 33
        E 176 81 45 00
        E 16 91 40 33
        E 176 81 40 00
        E 16 91 44 33
        E 176 81 44 00
        E 16 91 45 33
        E 176 81 45 00
        E 16 91 40 33
        E 176 81 40 00
        E 16 91 45 33
        E 176 81 45 00
        E 16 91 40 33
        E 176 81 40 00
        E 16 91 44 33
        E 176 81 44 00
        E 16 91 45 33
        E 176 81 45 00
        E 16 91 40 33
        E 176 81 40 00
        E 16 91 44 33
        E 176 81 44 00
        E 16 91 45 33
        E 176 81 45 00
        E 16 91 40 33
        E 176 81 40 00
        E 16 91 45 33
        E 176 81 45 00
        E 16 91 40 33
        E 176 81 40 00
        E 16 91 44 33
        E 176 81 44 00
        E 16 91 45 33
        E 176 81 45 00
        E 16 91 40 33
        E 176 81 40 00
        E 16 91 44 33
        E 176 81 44 00
        E 16 91 45 33
        E 176 81 45 00
        E 16 91 40 33
        E 176 81 40 00
        E 16 91 45 33
        E 176 81 45 00
        E 16 91 40 33
        E 176 81 40 00
        E 16 91 44 33
        E 176 81 44 00
        E 16 91 45 33
        E 176 81 45 00
        E 16 91 40 33
        E 176 81 40 00
        E 16 91 44 33
        E 176 81 44 00
        E 16 91 45 33
        E 176 81 45 00
        E 16 91 40 33
        E 176 81 40 00
        E 16 91 45 33
        E 176 81 45 00
        E 16 91 40 33
        E 176 81 40 00
        E 16 91 44 33
        E 176 81 44 00
        E 16 91 45 33
        E 176 81 45 00
        E 16 91 40 33
        E 176 81 40 00
        E 16 91 44 33
        E 176 81 44 00
        E 16 91 45 33
        E 176 81 45 00
        E 16 91 40 33
        E 176 81 40 00
        E 16 91 45 33
        E 176 81 45 00
        E 16 91 40 33
        E 176 81 40 00
        E 16 91 44 33
        E 176 81 44 00
        E 16 91 45 33
        E 176 81 45 00
        E 16 91 40 33
        E 176 81 40 00
        E 16 91 44 33
        E 176 81 44 00
        E 16 91 45 33
        E 176 81 45 00
        E 16 91 40 33
        E 176 81 40 00
        E 16 91 45 33
        E 176 81 45 00
        E 16 91 40 33
        E 176 81 40 00
        E 16 91 44 33
        E 176 81 44 00
        E 16 91 45 33
        E 176 81 45 00
        E 16 91 40 33
        E 176 81 40 00
        E 16 91 44 33
        E 176 81 44 00
        E 16 91 45 33
        E 176 81 45 00
        E 16 91 40 33
        E 176 81 40 00
        E 16 91 45 33
        E 176 81 45 00
        E 16 91 40 33
        E 176 81 40 00
        E 16 91 44 33
        E 176 81 44 00
        E 16 91 45 33
        E 176 81 45 00
        E 16 91 40 33
        E 176 81 40 00
        E 16 91 44 33
        E 176 81 44 00
        E 16 91 45 33
        E 176 81 45 00
        E 16 91 40 33
        E 176 81 40 00
        E 16 91 45 33
        E 176 81 45 00
        E 16 91 40 33
        E 176 81 40 00
        E 16 91 44 33
        E 176 81 44 00
        E 16 91 45 33
        E 176 81 45 00
        E 16 91 40 33
        E 176 81 40 00
        E 16 91 44 33
        E 176 81 44 00
        E 16 91 45 33
        E 176 81 45 00
        E 16 91 40 33
        E 176 81 40 00
        E 16 91 45 33
        E 176 81 45 00
        E 16 91 40 33
        E 176 81 40 00
        E 16 91 44 33
        E 176 81 44 00
        E 16 91 45 33
        E 176 81 45 00
        E 16 91 40 33
        E 176 81 40 00
        E 16 91 44 33
        E 176 81 44 00
        E 16 91 45 33
        E 176 81 45 00
        E 16 91 40 33
        E 176 81 40 00
        E 16 91 45 33
        E 176 81 45 00
        E 16 91 40 33
        E 176 81 40 00
        E 16 91 44 33
        E 176 81 44 00
        E 16 91 45 33
        E 176 81 45 00
        E 16 91 40 33
        E 176 81 40 00
        E 16 91 44 33
        E 176 81 44 00
        E 16 91 45 33
        E 176 81 45 00
        E 16 91 40 33
        E 176 81 40 00
        E 16 91 45 33
        E 176 81 45 00
        E 16 91 40 33
        E 176 81 40 00
        E 16 91 44 33
        E 176 81 44 00
        E 16 91 45 33
        E 176 81 45 00
        E 16 91 40 33
        E 176 81 40 00
        E 16 91 44 33
        E 176 81 44 00
        E 16 91 45 33
        E 176 81 45 00
        E 16 91 40 33
        E 176 81 40 00
        E 16 91 45 33
        E 176 81 45 00
        E 16 91 40 33
        E 176 81 40 00
        E 16 91 44 33
        E 176 81 44 00
        E 16 91 45 33
        E 176 81 45 00
        E 16 91 40 33
        E 176 81 40 00
        E 16 91 44 33
        E 176 81 44 00
        E 16 91 45 33
        E 176 81 45 00
        E 16 91 40 33
        E 176 81 40 00
        E 16 91 45 33
        E 176 81 45 00
        E 16 91 40 33
        E 176 81 40 00
        E 16 91 44 33
        E 176 81 44 00
        E 16 91 45 33
        E 176 81 45 00
        E 16 91 40 33
        E 176 81 40 00
        E 16 91 44 33
        E 176 81 44 00
        E 16 91 45 33
        E 176 81 45 00
        E 16 91 40 33
        E 176 81 40 00
        E 16 91 45 33
        E 176 81 45 00
        E 16 91 40 33
        E 176 81 40 00
        E 16 91 44 33
        E 176 81 44 00
        E 16 91 45 33
        E 176 81 45 00
        E 16 91 40 33
        E 176 81 40 00
        E 16 91 44 33
        E 176 81 44 00
        E 16 91 45 33
        E 176 81 45 00
        E 16 91 40 33
        E 176 81 40 00
        E 16 91 45 33
        E 176 81 45 00
        E 16 91 40 33
        E 176 81 40 00
        E 16 91 44 33
        E 176 81 44 00
        E 16 91 45 33
        E 176 81 45 00
        E 16 91 40 33
        E 176 81 40 00
        E 16 91 44 33
        E 176 81 44 00
        E 16 91 45 33
        E 176 81 45 00
        E 16 91 40 33
        E 176 81 40 00
        E 16 91 45 33
        E 128 81 45 00
        E 0 b1 7b 00
        E 0 ff 2f 00
      >
    >
  >
  <TRACK {147EC9A8-0367-4A77-AC52-6806A33BA9E2}
    NAME "NES - Triangle [ch2]"
    PEAKCOL 16744192
    BEAT -1
    AUTOMODE 0
    PANLAWFLAGS 3
    VOLPAN 1 0 -1 -1 1
    MUTESOLO 0 0 0
    IPHASE 0
    PLAYOFFS 0 1
    ISBUS 0 0
    BUSCOMP 0 0 0 0 0
    SHOWINMIX 1 0.6667 0.5 1 0.5 0 0 0
    FIXEDLANES 9 0 0 0 0
    SEL 0
    REC 0 5088 1 0 0 0 0 0
    VU 2
    TRACKHEIGHT 0 0 0 0 0 0 0
    INQ 0 0 0 0.5 100 0 0 100
    NCHAN 2
    FX 1
    TRACKID {147EC9A8-0367-4A77-AC52-6806A33BA9E2}
    PERF 0
    MIDIOUT -1
    MAINSEND 1 0
    <FXCHAIN
      WNDRECT 24 52 700 560
      SHOW 0
      LASTSEL 0
      DOCKED 0
      BYPASS 0 0 0
      <JS "ReapNES Studio/ReapNES_Console.jsfx" ""
        2 15 1 10 80 10 100 2 1 15 1 5 60 10 80 1 1 0 50 0 0 15 1 0 100 0 0 0.500000 0.500000 0.400000 0.300000 0.800000 2 1 0 0 0 0 - - - - - - - - - - - - - - - - - - - - - - - - - -
      >
      FLOATPOS 0 0 0 0
      FXID {A0753FAF-20C3-479F-A149-9C47EE889810}
      WAK 0 0
    >
    <ITEM
      POSITION 0
      LENGTH 73.42146410000001
      LOOP 0
      ALLTAKES 0
      FADEIN 0 0 0 0 0 0 0
      FADEOUT 0 0 0 0 0 0 0
      MUTE 0 0
      SEL 0
      IGUID {498AD86A-061D-4747-B812-A4C7BCA08D47}
      <SOURCE MIDI
        HASDATA 1 480 QN
        CCINTERP 32
        E 0 c2 26
        E 0 b2 0b 7f
        E 0 92 31 7f
        E 560 82 31 00
        E 16 b2 0b 7f
        E 0 92 32 7f
        E 944 82 32 00
        E 16 b2 0b 7f
        E 0 92 34 7f
        E 560 82 34 00
        E 16 b2 0b 7f
        E 0 92 32 7f
        E 944 82 32 00
        E 16 b2 0b 7f
        E 0 92 31 7f
        E 560 82 31 00
        E 16 b2 0b 7f
        E 0 92 32 7f
        E 944 82 32 00
        E 16 b2 0b 7f
        E 0 92 34 7f
        E 560 82 34 00
        E 16 b2 0b 7f
        E 0 92 32 7f
        E 944 82 32 00
        E 16 b2 0b 7f
        E 0 92 31 7f
        E 560 82 31 00
        E 16 b2 0b 7f
        E 0 92 32 7f
        E 944 82 32 00
        E 16 b2 0b 7f
        E 0 92 34 7f
        E 560 82 34 00
        E 16 b2 0b 7f
        E 0 92 32 7f
        E 944 82 32 00
        E 16 b2 0b 7f
        E 0 92 31 7f
        E 560 82 31 00
        E 16 b2 0b 7f
        E 0 92 32 7f
        E 944 82 32 00
        E 16 b2 0b 7f
        E 0 92 34 7f
        E 560 82 34 00
        E 16 b2 0b 7f
        E 0 92 32 7f
        E 944 82 32 00
        E 16 b2 0b 7f
        E 0 92 31 7f
        E 560 82 31 00
        E 16 b2 0b 7f
        E 0 92 32 7f
        E 944 82 32 00
        E 16 b2 0b 7f
        E 0 92 34 7f
        E 560 82 34 00
        E 16 b2 0b 7f
        E 0 92 32 7f
        E 944 82 32 00
        E 16 b2 0b 7f
        E 0 92 31 7f
        E 560 82 31 00
        E 16 b2 0b 7f
        E 0 92 32 7f
        E 944 82 32 00
        E 16 b2 0b 7f
        E 0 92 34 7f
        E 560 82 34 00
        E 16 b2 0b 7f
        E 0 92 32 7f
        E 944 82 32 00
        E 16 b2 0b 7f
        E 0 92 31 7f
        E 560 82 31 00
        E 16 b2 0b 7f
        E 0 92 32 7f
        E 944 82 32 00
        E 16 b2 0b 7f
        E 0 92 34 7f
        E 560 82 34 00
        E 16 b2 0b 7f
        E 0 92 32 7f
        E 944 82 32 00
        E 16 b2 0b 7f
        E 0 92 31 7f
        E 560 82 31 00
        E 16 b2 0b 7f
        E 0 92 32 7f
        E 944 82 32 00
        E 16 b2 0b 7f
        E 0 92 34 7f
        E 560 82 34 00
        E 16 b2 0b 7f
        E 0 92 32 7f
        E 944 82 32 00
        E 16 b2 0b 7f
        E 0 92 31 7f
        E 560 82 31 00
        E 16 b2 0b 7f
        E 0 92 32 7f
        E 944 82 32 00
        E 16 b2 0b 7f
        E 0 92 34 7f
        E 560 82 34 00
        E 16 b2 0b 7f
        E 0 92 32 7f
        E 944 82 32 00
        E 16 b2 0b 7f
        E 0 92 31 7f
        E 560 82 31 00
        E 16 b2 0b 7f
        E 0 92 32 7f
        E 944 82 32 00
        E 16 b2 0b 7f
        E 0 92 34 7f
        E 560 82 34 00
        E 16 b2 0b 7f
        E 0 92 32 7f
        E 944 82 32 00
        E 16 b2 0b 7f
        E 0 92 31 7f
        E 560 82 31 00
        E 16 b2 0b 7f
        E 0 92 32 7f
        E 944 82 32 00
        E 16 b2 0b 7f
        E 0 92 34 7f
        E 560 82 34 00
        E 16 b2 0b 7f
        E 0 92 32 7f
        E 944 82 32 00
        E 16 b2 0b 7f
        E 0 92 31 7f
        E 560 82 31 00
        E 16 b2 0b 7f
        E 0 92 32 7f
        E 944 82 32 00
        E 16 b2 0b 7f
        E 0 92 34 7f
        E 560 82 34 00
        E 16 b2 0b 7f
        E 0 92 32 7f
        E 944 82 32 00
        E 16 b2 0b 7f
        E 0 92 31 7f
        E 560 82 31 00
        E 16 b2 0b 7f
        E 0 92 32 7f
        E 944 82 32 00
        E 16 b2 0b 7f
        E 0 92 34 7f
        E 560 82 34 00
        E 16 b2 0b 7f
        E 0 92 32 7f
        E 944 82 32 00
        E 16 b2 0b 7f
        E 0 92 31 7f
        E 560 82 31 00
        E 16 b2 0b 7f
        E 0 92 32 7f
        E 944 82 32 00
        E 16 b2 0b 7f
        E 0 92 34 7f
        E 560 82 34 00
        E 16 b2 0b 7f
        E 0 92 32 7f
        E 944 82 32 00
        E 16 b2 0b 7f
        E 0 92 31 7f
        E 560 82 31 00
        E 16 b2 0b 7f
        E 0 92 32 7f
        E 944 82 32 00
        E 16 b2 0b 7f
        E 0 92 34 7f
        E 560 82 34 00
        E 16 b2 0b 7f
        E 0 92 32 7f
        E 944 82 32 00
        E 16 b2 0b 7f
        E 0 92 31 7f
        E 560 82 31 00
        E 16 b2 0b 7f
        E 0 92 32 7f
        E 944 82 32 00
        E 16 b2 0b 7f
        E 0 92 34 7f
        E 560 82 34 00
        E 16 b2 0b 7f
        E 0 92 32 7f
        E 944 82 32 00
        E 16 b2 0b 7f
        E 0 92 31 7f
        E 560 82 31 00
        E 16 b2 0b 7f
        E 0 92 32 7f
        E 944 82 32 00
        E 16 b2 0b 7f
        E 0 92 34 7f
        E 560 82 34 00
        E 16 b2 0b 7f
        E 0 92 32 7f
        E 944 82 32 00
        E 16 b2 0b 7f
        E 0 92 31 7f
        E 560 82 31 00
        E 16 b2 0b 7f
        E 0 92 32 7f
        E 944 82 32 00
        E 16 b2 0b 7f
        E 0 92 34 7f
        E 560 82 34 00
        E 16 b2 0b 7f
        E 0 92 32 7f
        E 944 82 32 00
        E 16 b2 0b 7f
        E 0 92 31 7f
        E 560 82 31 00
        E 16 b2 0b 7f
        E 0 92 32 7f
        E 944 82 32 00
        E 16 b2 0b 7f
        E 0 92 34 7f
        E 560 82 34 00
        E 16 b2 0b 7f
        E 0 92 32 7f
        E 944 82 32 00
        E 16 b2 0b 7f
        E 0 92 31 7f
        E 560 82 31 00
        E 16 b2 0b 7f
        E 0 92 32 7f
        E 944 82 32 00
        E 16 b2 0b 7f
        E 0 92 34 7f
        E 560 82 34 00
        E 16 b2 0b 7f
        E 0 92 32 7f
        E 944 82 32 00
        E 16 b2 0b 7f
        E 0 92 31 7f
        E 560 82 31 00
        E 16 b2 0b 7f
        E 0 92 32 7f
        E 944 82 32 00
        E 16 b2 0b 7f
        E 0 92 34 7f
        E 560 82 34 00
        E 16 b2 0b 7f
        E 0 92 32 7f
        E 944 82 32 00
        E 16 b2 0b 7f
        E 0 92 31 7f
        E 560 82 31 00
        E 16 b2 0b 7f
        E 0 92 32 7f
        E 944 82 32 00
        E 16 b2 0b 7f
        E 0 92 34 7f
        E 560 82 34 00
        E 16 b2 0b 7f
        E 0 92 32 7f
        E 944 82 32 00
        E 16 b2 0b 7f
        E 0 92 31 7f
        E 560 82 31 00
        E 16 b2 0b 7f
        E 0 92 32 7f
        E 944 82 32 00
        E 16 b2 0b 7f
        E 0 92 34 7f
        E 560 82 34 00
        E 16 b2 0b 7f
        E 0 92 32 7f
        E 944 82 32 00
        E 16 b2 0b 7f
        E 0 92 31 7f
        E 560 82 31 00
        E 16 b2 0b 7f
        E 0 92 32 7f
        E 944 82 32 00
        E 16 b2 0b 7f
        E 0 92 34 7f
        E 560 82 34 00
        E 16 b2 0b 7f
        E 0 92 32 7f
        E 944 82 32 00
        E 16 b2 0b 7f
        E 0 92 31 7f
        E 560 82 31 00
        E 16 b2 0b 7f
        E 0 92 32 7f
        E 944 82 32 00
        E 16 b2 0b 7f
        E 0 92 34 7f
        E 272 82 34 00
        E 0 b2 7b 00
        E 0 ff 2f 00
      >
    >
  >
  <TRACK {653BBC58-B474-415D-A71F-2BDD6676A2D8}
    NAME "NES - Noise / Drums"
    PEAKCOL 11184810
    BEAT -1
    AUTOMODE 0
    PANLAWFLAGS 3
    VOLPAN 1 0 -1 -1 1
    MUTESOLO 0 0 0
    IPHASE 0
    PLAYOFFS 0 1
    ISBUS 0 0
    BUSCOMP 0 0 0 0 0
    SHOWINMIX 1 0.6667 0.5 1 0.5 0 0 0
    FIXEDLANES 9 0 0 0 0
    SEL 0
    REC 0 5088 1 0 0 0 0 0
    VU 2
    TRACKHEIGHT 0 0 0 0 0 0 0
    INQ 0 0 0 0.5 100 0 0 100
    NCHAN 2
    FX 1
    TRACKID {653BBC58-B474-415D-A71F-2BDD6676A2D8}
    PERF 0
    MIDIOUT -1
    MAINSEND 1 0
    <FXCHAIN
      WNDRECT 24 52 700 560
      SHOW 0
      LASTSEL 0
      DOCKED 0
      BYPASS 0 0 0
      <JS "ReapNES Studio/ReapNES_Console.jsfx" ""
        2 15 1 10 80 10 100 2 1 15 1 5 60 10 80 1 1 0 50 0 0 15 1 0 100 0 0 0.500000 0.500000 0.400000 0.300000 0.800000 3 1 0 0 0 0 - - - - - - - - - - - - - - - - - - - - - - - - - -
      >
      FLOATPOS 0 0 0 0
      FXID {17CCC5F1-5ED6-4FF0-A4DA-8DA317594AE7}
      WAK 0 0
    >
  >
>