<REAPER_PROJECT 0.1 "7.27/win64" 1707000000
  <NOTES 0 2
    |ReapNES Studio Project
    |MIDI Import - Rygar_title_rom_v1
  >
  RIPPLE 0
  GROUPOVERRIDE 0 0 0
  AUTOXFADE 129
  ENVATTACH 3
  POOLEDENVATTACH 0
  MIXERUIFLAGS 11 48
  ENVFADESZ10 40
  PEAKGAIN 1
  FEEDBACK 0
  PANLAW 1
  PROJOFFS 0 0 0
  MAXPROJLEN 0 0
  GRID 3199 8 1 8 1 0 0 0
  TIMEMODE 1 5 -1 30 0 0 -1
  VIDEO_CONFIG 0 0 65792
  PANMODE 3
  PANLAWFLAGS 3
  CURSOR 0
  ZOOM 100 0 0
  VZOOMEX 6 0
  USE_REC_CFG 0
  RECMODE 1
  SMPTESYNC 0 30 100 40 1000 300 0 0 1 0 0
  LOOP 0
  LOOPGRAN 0 4
  RECORD_PATH "Media" ""
  <RECORD_CFG
    ZXZhdxgAAQ==
  >
  <APPLYFX_CFG
  >
  RENDER_FILE ""
  RENDER_PATTERN ""
  RENDER_FMT 0 2 0
  RENDER_1X 0
  RENDER_RANGE 1 0 0 18 1000
  RENDER_RESAMPLE 3 0 1
  RENDER_ADDTOPROJ 0
  RENDER_STEMS 0
  RENDER_DITHER 0
  TIMELOCKMODE 1
  TEMPOENVLOCKMODE 1
  ITEMMIX 1
  DEFPITCHMODE 589824 0
  TAKELANE 1
  SAMPLERATE 44100 0 0
  <RENDER_CFG
    ZXZhdxgAAQ==
  >
  LOCK 1
  <METRONOME 6 2
    VOL 0.25 0.125
    BEATLEN 4
    FREQ 1760 880 1
    SAMPLES "" ""
    SPLIGNORE 0 0
    SPLDEF 2 660 "" 0
    SPLDEF 3 440 "" 0
    PATTERN 0 169
    PATTERNSTR ABBB
    MULT 1
  >
  GLOBAL_AUTO -1
  TEMPO 128.59999614200012 4 4
  PLAYRATE 1 0 0.25 4
  SELECTION 0 0
  SELECTION2 0 0
  MASTERAUTOMODE 0
  MASTERTRACKHEIGHT 0 0
  MASTERPEAKCOL 16576
  MASTERMUTESOLO 0
  MASTERTRACKVIEW 0 0.6667 0.5 0.5 0 0 0 0 0 0 0 0 0 0
  MASTERHWOUT 0 0 1 0 0 0 0 -1
  MASTER_NCH 2 2
  MASTER_VOLUME 1 0 -1 -1 1
  MASTER_PANMODE 3
  MASTER_PANLAWFLAGS 3
  MASTER_FX 1
  MASTER_SEL 0
  <MASTERPLAYSPEEDENV
    EGUID {2C8E6954-19EF-4BB4-9EA9-5C48F272F62C}
    ACT 0 -1
    VIS 0 1 1
    LANEHEIGHT 0 0
    ARM 0
    DEFSHAPE 0 -1 -1
  >
  <TEMPOENVEX
    EGUID {A0BC2D34-E42C-45FD-A659-86F8C79E4837}
    ACT 1 -1
    VIS 1 0 1
    LANEHEIGHT 0 0
    ARM 0
    DEFSHAPE 1 -1 -1
  >
  <PROJBAY
  >
  <TRACK {64B55C4C-6550-4450-9434-7919D0114DD0}
    NAME "NES - Pulse 1 [ch0]"
    PEAKCOL 16576606
    BEAT -1
    AUTOMODE 0
    PANLAWFLAGS 3
    VOLPAN 1 0 -1 -1 1
    MUTESOLO 0 0 0
    IPHASE 0
    PLAYOFFS 0 1
    ISBUS 0 0
    BUSCOMP 0 0 0 0 0
    SHOWINMIX 1 0.6667 0.5 1 0.5 0 0 0
    FIXEDLANES 9 0 0 0 0
    SEL 1
    REC 1 5088 1 0 0 0 0 0
    VU 2
    TRACKHEIGHT 0 0 0 0 0 0 0
    INQ 0 0 0 0.5 100 0 0 100
    NCHAN 2
    FX 1
    TRACKID {64B55C4C-6550-4450-9434-7919D0114DD0}
    PERF 0
    MIDIOUT -1
    MAINSEND 1 0
    <FXCHAIN
      WNDRECT 24 52 700 560
      SHOW 0
      LASTSEL 0
      DOCKED 0
      BYPASS 0 0 0
      <JS "ReapNES Studio/ReapNES_Console.jsfx" ""
        2 15 1 10 80 10 100 2 1 15 1 5 60 10 80 1 1 0 50 0 0 15 1 0 100 0 0 0.500000 0.500000 0.400000 0.300000 0.800000 0 1 0 0 0 0 - - - - - - - - - - - - - - - - - - - - - - - - - -
      >
      FLOATPOS 0 0 0 0
      FXID {979CC22B-2AA8-434A-8860-4445F6C32528}
      WAK 0 0
    >
    <ITEM
      POSITION 0
      LENGTH 72.30171290000001
      LOOP 0
      ALLTAKES 0
      FADEIN 0 0 0 0 0 0 0
      FADEOUT 0 0 0 0 0 0 0
      MUTE 0 0
      SEL 0
      IGUID {B76DDBAF-5056-4934-B12B-F79821D51917}
      <SOURCE MIDI
        HASDATA 1 480 QN
        CCINTERP 32
        E 0 c0 50
        E 0 b0 0c 10
        E 0 b0 0b 4c
        E 0 90 21 4c
        E 48 b0 0b 44
        E 48 b0 0b 3b
        E 32 b0 0b 4c
        E 0 80 21 00
        E 0 90 1c 4c
        E 48 b0 0b 44
        E 48 b0 0b 3b
        E 32 b0 0b 4c
        E 0 80 1c 00
        E 0 90 21 4c
        E 48 b0 0b 44
        E 48 b0 0b 3b
        E 32 b0 0b 4c
        E 0 80 21 00
        E 0 90 1c 4c
        E 48 b0 0b 44
        E 48 b0 0b 3b
        E 32 b0 0b 4c
        E 0 80 1c 00
        E 0 90 19 4c
        E 48 b0 0b 44
        E 48 b0 0b 3b
        E 32 b0 0b 4c
        E 0 80 19 00
        E 0 90 1c 4c
        E 48 b0 0b 44
        E 48 b0 0b 3b
        E 32 b0 0b 4c
        E 0 80 1c 00
        E 0 90 21 4c
        E 48 b0 0b 44
        E 48 b0 0b 3b
        E 32 b0 0b 4c
        E 0 80 21 00
        E 0 90 1c 4c
        E 48 b0 0b 44
        E 48 b0 0b 3b
        E 32 b0 0b 4c
        E 0 80 1c 00
        E 0 90 21 4c
        E 48 b0 0b 44
        E 48 b0 0b 3b
        E 32 b0 0b 4c
        E 0 80 21 00
        E 0 90 1c 4c
        E 48 b0 0b 44
        E 48 b0 0b 3b
        E 32 b0 0b 4c
        E 0 80 1c 00
        E 0 90 19 4c
        E 48 b0 0b 44
        E 48 b0 0b 3b
        E 32 b0 0b 4c
        E 0 80 19 00
        E 0 90 1c 4c
        E 48 b0 0b 44
        E 48 b0 0b 3b
        E 32 b0 0b 4c
        E 0 80 1c 00
        E 0 90 21 4c
        E 48 b0 0b 44
        E 48 b0 0b 3b
        E 32 b0 0b 4c
        E 0 80 21 00
        E 0 90 1c 4c
        E 48 b0 0b 44
        E 48 b0 0b 3b
        E 32 b0 0b 4c
        E 0 80 1c 00
        E 0 90 21 4c
        E 48 b0 0b 44
        E 48 b0 0b 3b
        E 32 b0 0b 4c
        E 0 80 21 00
        E 0 90 1c 4c
        E 48 b0 0b 44
        E 48 b0 0b 3b
        E 32 b0 0b 4c
        E 0 80 1c 00
        E 0 90 19 4c
        E 48 b0 0b 44
        E 48 b0 0b 3b
        E 32 b0 0b 4c
        E 0 80 19 00
        E 0 90 1c 4c
        E 48 b0 0b 44
        E 48 b0 0b 3b
        E 32 b0 0b 4c
        E 0 80 1c 00
        E 0 90 21 4c
        E 48 b0 0b 44
        E 48 b0 0b 3b
        E 32 b0 0b 4c
        E 0 80 21 00
        E 0 90 1c 4c
        E 48 b0 0b 44
        E 48 b0 0b 3b
        E 32 b0 0b 4c
        E 0 80 1c 00
        E 0 90 21 4c
        E 48 b0 0b 44
        E 48 b0 0b 3b
        E 32 b0 0b 4c
        E 0 80 21 00
        E 0 90 1c 4c
        E 48 b0 0b 44
        E 48 b0 0b 3b
        E 32 b0 0b 4c
        E 0 80 1c 00
        E 0 90 19 4c
        E 48 b0 0b 44
        E 48 b0 0b 3b
        E 32 b0 0b 4c
        E 0 80 19 00
        E 0 90 1c 4c
        E 48 b0 0b 44
        E 48 b0 0b 3b
        E 32 b0 0b 4c
        E 0 80 1c 00
        E 0 90 24 4c
        E 48 b0 0b 44
        E 48 b0 0b 3b
        E 32 b0 0b 4c
        E 0 80 24 00
        E 0 90 1f 4c
        E 48 b0 0b 44
        E 48 b0 0b 3b
        E 32 b0 0b 4c
        E 0 80 1f 00
        E 0 90 24 4c
        E 48 b0 0b 44
        E 48 b0 0b 3b
        E 32 b0 0b 4c
        E 0 80 24 00
        E 0 90 1f 4c
        E 48 b0 0b 44
        E 48 b0 0b 3b
        E 32 b0 0b 4c
        E 0 80 1f 00
        E 0 90 1c 4c
        E 48 b0 0b 44
        E 48 b0 0b 3b
        E 32 b0 0b 4c
        E 0 80 1c 00
        E 0 90 1f 4c
        E 48 b0 0b 44
        E 48 b0 0b 3b
        E 32 b0 0b 4c
        E 0 80 1f 00
        E 0 90 24 4c
        E 48 b0 0b 44
        E 48 b0 0b 3b
        E 32 b0 0b 4c
        E 0 80 24 00
        E 0 90 1f 4c
        E 48 b0 0b 44
        E 48 b0 0b 3b
        E 32 b0 0b 4c
        E 0 80 1f 00
        E 0 90 24 4c
        E 48 b0 0b 44
        E 48 b0 0b 3b
        E 32 b0 0b 4c
        E 0 80 24 00
        E 0 90 1f 4c
        E 48 b0 0b 44
        E 48 b0 0b 3b
        E 32 b0 0b 4c
        E 0 80 1f 00
        E 0 90 1c 4c
        E 48 b0 0b 44
        E 48 b0 0b 3b
        E 32 b0 0b 4c
        E 0 80 1c 00
        E 0 90 1f 4c
        E 48 b0 0b 44
        E 48 b0 0b 3b
        E 32 b0 0b 4c
        E 0 80 1f 00
        E 0 90 24 4c
        E 48 b0 0b 44
        E 48 b0 0b 3b
        E 32 b0 0b 4c
        E 0 80 24 00
        E 0 90 1f 4c
        E 48 b0 0b 44
        E 48 b0 0b 3b
        E 32 b0 0b 4c
        E 0 80 1f 00
        E 0 90 24 4c
        E 48 b0 0b 44
        E 48 b0 0b 3b
        E 32 b0 0b 4c
        E 0 80 24 00
        E 0 90 1f 4c
        E 48 b0 0b 44
        E 48 b0 0b 3b
        E 32 b0 0b 4c
        E 0 80 1f 00
        E 0 90 1c 4c
        E 48 b0 0b 44
        E 48 b0 0b 3b
        E 32 b0 0b 4c
        E 0 80 1c 00
        E 0 90 1f 4c
        E 48 b0 0b 44
        E 48 b0 0b 3b
        E 32 b0 0b 4c
        E 0 80 1f 00
        E 0 90 24 4c
        E 48 b0 0b 44
        E 48 b0 0b 3b
        E 32 b0 0b 4c
        E 0 80 24 00
        E 0 90 1f 4c
        E 48 b0 0b 44
        E 48 b0 0b 3b
        E 32 b0 0b 4c
        E 0 80 1f 00
        E 0 90 24 4c
        E 48 b0 0b 44
        E 48 b0 0b 3b
        E 32 b0 0b 4c
        E 0 80 24 00
        E 0 90 1f 4c
        E 48 b0 0b 44
        E 48 b0 0b 3b
        E 32 b0 0b 4c
        E 0 80 1f 00
        E 0 90 1c 4c
        E 48 b0 0b 44
        E 48 b0 0b 3b
        E 32 b0 0b 4c
        E 0 80 1c 00
        E 0 90 1f 4c
        E 48 b0 0b 44
        E 48 b0 0b 3b
        E 32 b0 0b 4c
        E 0 80 1f 00
        E 0 90 27 4c
        E 48 b0 0b 44
        E 48 b0 0b 3b
        E 32 b0 0b 4c
        E 0 80 27 00
        E 0 90 22 4c
        E 48 b0 0b 44
        E 48 b0 0b 3b
        E 32 b0 0b 4c
        E 0 80 22 00
        E 0 90 27 4c
        E 48 b0 0b 44
        E 48 b0 0b 3b
        E 32 b0 0b 4c
        E 0 80 27 00
        E 0 90 22 4c
        E 48 b0 0b 44
        E 48 b0 0b 3b
        E 32 b0 0b 4c
        E 0 80 22 00
        E 0 90 1f 4c
        E 48 b0 0b 44
        E 48 b0 0b 3b
        E 32 b0 0b 4c
        E 0 80 1f 00
        E 0 90 22 4c
        E 48 b0 0b 44
        E 48 b0 0b 3b
        E 32 b0 0b 4c
        E 0 80 22 00
        E 0 90 27 4c
        E 48 b0 0b 44
        E 48 b0 0b 3b
        E 32 b0 0b 4c
        E 0 80 27 00
        E 0 90 22 4c
        E 48 b0 0b 44
        E 48 b0 0b 3b
        E 32 b0 0b 4c
        E 0 80 22 00
        E 0 90 27 4c
        E 48 b0 0b 44
        E 48 b0 0b 3b
        E 32 b0 0b 4c
        E 0 80 27 00
        E 0 90 22 4c
        E 48 b0 0b 44
        E 48 b0 0b 3b
        E 32 b0 0b 4c
        E 0 80 22 00
        E 0 90 1f 4c
        E 48 b0 0b 44
        E 48 b0 0b 3b
        E 32 b0 0b 4c
        E 0 80 1f 00
        E 0 90 22 4c
        E 48 b0 0b 44
        E 48 b0 0b 3b
        E 32 b0 0b 4c
        E 0 80 22 00
        E 0 90 27 4c
        E 48 b0 0b 44
        E 48 b0 0b 3b
        E 32 b0 0b 4c
        E 0 80 27 00
        E 0 90 22 4c
        E 48 b0 0b 44
        E 48 b0 0b 3b
        E 32 b0 0b 4c
        E 0 80 22 00
        E 0 90 27 4c
        E 48 b0 0b 44
        E 48 b0 0b 3b
        E 32 b0 0b 4c
        E 0 80 27 00
        E 0 90 22 4c
        E 48 b0 0b 44
        E 48 b0 0b 3b
        E 32 b0 0b 4c
        E 0 80 22 00
        E 0 90 1f 4c
        E 48 b0 0b 44
        E 48 b0 0b 3b
        E 32 b0 0b 4c
        E 0 80 1f 00
        E 0 90 22 4c
        E 48 b0 0b 44
        E 48 b0 0b 3b
        E 32 b0 0b 4c
        E 0 80 22 00
        E 0 90 27 4c
        E 48 b0 0b 44
        E 48 b0 0b 3b
        E 32 b0 0b 4c
        E 0 80 27 00
        E 0 90 22 4c
        E 48 b0 0b 44
        E 48 b0 0b 3b
        E 32 b0 0b 4c
        E 0 80 22 00
        E 0 90 27 4c
        E 48 b0 0b 44
        E 48 b0 0b 3b
        E 32 b0 0b 4c
        E 0 80 27 00
        E 0 90 22 4c
        E 48 b0 0b 44
        E 48 b0 0b 3b
        E 32 b0 0b 4c
        E 0 80 22 00
        E 0 90 1f 4c
        E 48 b0 0b 44
        E 48 b0 0b 3b
        E 32 b0 0b 4c
        E 0 80 1f 00
        E 0 90 22 4c
        E 48 b0 0b 44
        E 48 b0 0b 3b
        E 32 b0 0b 4c
        E 0 80 22 00
        E 0 90 18 4c
        E 48 b0 0b 44
        E 48 b0 0b 3b
        E 32 b0 0b 4c
        E 0 80 18 00
        E 0 90 1c 4c
        E 48 b0 0b 44
        E 48 b0 0b 3b
        E 32 b0 0b 4c
        E 0 80 1c 00
        E 0 90 1f 4c
        E 48 b0 0b 44
        E 48 b0 0b 3b
        E 32 b0 0b 4c
        E 0 80 1f 00
        E 0 90 24 4c
        E 48 b0 0b 44
        E 48 b0 0b 3b
        E 32 b0 0b 4c
        E 0 80 24 00
        E 0 90 1f 4c
        E 48 b0 0b 44
        E 48 b0 0b 3b
        E 32 b0 0b 4c
        E 0 80 1f 00
        E 0 90 1c 4c
        E 48 b0 0b 44
        E 48 b0 0b 3b
        E 32 b0 0b 4c
        E 0 80 1c 00
        E 0 90 18 4c
        E 48 b0 0b 44
        E 48 b0 0b 3b
        E 32 b0 0b 4c
        E 0 80 18 00
        E 0 90 1c 4c
        E 48 b0 0b 44
        E 48 b0 0b 3b
        E 32 b0 0b 4c
        E 0 80 1c 00
        E 0 90 1f 4c
        E 48 b0 0b 44
        E 48 b0 0b 3b
        E 32 b0 0b 4c
        E 0 80 1f 00
        E 0 90 24 4c
        E 48 b0 0b 44
        E 48 b0 0b 3b
        E 32 b0 0b 4c
        E 0 80 24 00
        E 0 90 1f 4c
        E 48 b0 0b 44
        E 48 b0 0b 3b
        E 32 b0 0b 4c
        E 0 80 1f 00
        E 0 90 1c 4c
        E 48 b0 0b 44
        E 48 b0 0b 3b
        E 32 b0 0b 4c
        E 0 80 1c 00
        E 0 90 18 4c
        E 48 b0 0b 44
        E 48 b0 0b 3b
        E 32 b0 0b 4c
        E 0 80 18 00
        E 0 90 1c 4c
        E 48 b0 0b 44
        E 48 b0 0b 3b
        E 32 b0 0b 4c
        E 0 80 1c 00
        E 0 90 1f 4c
        E 48 b0 0b 44
        E 48 b0 0b 3b
        E 32 b0 0b 4c
        E 0 80 1f 00
        E 0 90 24 4c
        E 48 b0 0b 44
        E 48 b0 0b 3b
        E 32 b0 0b 4c
        E 0 80 24 00
        E 0 90 1f 4c
        E 48 b0 0b 44
        E 48 b0 0b 3b
        E 32 b0 0b 4c
        E 0 80 1f 00
        E 0 90 1c 4c
        E 48 b0 0b 44
        E 48 b0 0b 3b
        E 32 b0 0b 4c
        E 0 80 1c 00
        E 0 90 18 4c
        E 48 b0 0b 44
        E 48 b0 0b 3b
        E 32 b0 0b 4c
        E 0 80 18 00
        E 0 90 1c 4c
        E 48 b0 0b 44
        E 48 b0 0b 3b
        E 32 b0 0b 4c
        E 0 80 1c 00
        E 0 90 1f 4c
        E 48 b0 0b 44
        E 48 b0 0b 3b
        E 32 b0 0b 4c
        E 0 80 1f 00
        E 0 90 24 4c
        E 48 b0 0b 44
        E 48 b0 0b 3b
        E 32 b0 0b 4c
        E 0 80 24 00
        E 0 90 1f 4c
        E 48 b0 0b 44
        E 48 b0 0b 3b
        E 32 b0 0b 4c
        E 0 80 1f 00
        E 0 90 1c 4c
        E 48 b0 0b 44
        E 48 b0 0b 3b
        E 32 b0 0b 4c
        E 0 80 1c 00
        E 0 90 21 4c
        E 48 b0 0b 44
        E 48 b0 0b 3b
        E 32 b0 0b 4c
        E 0 80 21 00
        E 0 90 1c 4c
        E 48 b0 0b 44
        E 48 b0 0b 3b
        E 32 b0 0b 4c
        E 0 80 1c 00
        E 0 90 21 4c
        E 48 b0 0b 44
        E 48 b0 0b 3b
        E 32 b0 0b 4c
        E 0 80 21 00
        E 0 90 1c 4c
        E 48 b0 0b 44
        E 48 b0 0b 3b
        E 32 b0 0b 4c
        E 0 80 1c 00
        E 0 90 19 4c
        E 48 b0 0b 44
        E 48 b0 0b 3b
        E 32 b0 0b 4c
        E 0 80 19 00
        E 0 90 1c 4c
        E 48 b0 0b 44
        E 48 b0 0b 3b
        E 32 b0 0b 4c
        E 0 80 1c 00
        E 0 90 21 4c
        E 48 b0 0b 44
        E 48 b0 0b 3b
        E 32 b0 0b 4c
        E 0 80 21 00
        E 0 90 1c 4c
        E 48 b0 0b 44
        E 48 b0 0b 3b
        E 32 b0 0b 4c
        E 0 80 1c 00
        E 0 90 21 4c
        E 48 b0 0b 44
        E 48 b0 0b 3b
        E 32 b0 0b 4c
        E 0 80 21 00
        E 0 90 1c 4c
        E 48 b0 0b 44
        E 48 b0 0b 3b
        E 32 b0 0b 4c
        E 0 80 1c 00
        E 0 90 19 4c
        E 48 b0 0b 44
        E 48 b0 0b 3b
        E 32 b0 0b 4c
        E 0 80 19 00
        E 0 90 1c 4c
        E 48 b0 0b 44
        E 48 b0 0b 3b
        E 32 b0 0b 4c
        E 0 80 1c 00
        E 0 90 21 4c
        E 48 b0 0b 44
        E 48 b0 0b 3b
        E 32 b0 0b 4c
        E 0 80 21 00
        E 0 90 1c 4c
        E 48 b0 0b 44
        E 48 b0 0b 3b
        E 32 b0 0b 4c
        E 0 80 1c 00
        E 0 90 21 4c
        E 48 b0 0b 44
        E 48 b0 0b 3b
        E 32 b0 0b 4c
        E 0 80 21 00
        E 0 90 1c 4c
        E 48 b0 0b 44
        E 48 b0 0b 3b
        E 32 b0 0b 4c
        E 0 80 1c 00
        E 0 90 19 4c
        E 48 b0 0b 44
        E 48 b0 0b 3b
        E 32 b0 0b 4c
        E 0 80 19 00
        E 0 90 1c 4c
        E 48 b0 0b 44
        E 48 b0 0b 3b
        E 32 b0 0b 4c
        E 0 80 1c 00
        E 0 90 21 4c
        E 48 b0 0b 44
        E 48 b0 0b 3b
        E 32 b0 0b 4c
        E 0 80 21 00
        E 0 90 1c 4c
        E 48 b0 0b 44
        E 48 b0 0b 3b
        E 32 b0 0b 4c
        E 0 80 1c 00
        E 0 90 21 4c
        E 48 b0 0b 44
        E 48 b0 0b 3b
        E 32 b0 0b 4c
        E 0 80 21 00
        E 0 90 1c 4c
        E 48 b0 0b 44
        E 48 b0 0b 3b
        E 32 b0 0b 4c
        E 0 80 1c 00
        E 0 90 19 4c
        E 48 b0 0b 44
        E 48 b0 0b 3b
        E 32 b0 0b 4c
        E 0 80 19 00
        E 0 90 1c 4c
        E 48 b0 0b 44
        E 48 b0 0b 3b
        E 32 b0 0b 4c
        E 0 80 1c 00
        E 0 90 24 4c
        E 48 b0 0b 44
        E 48 b0 0b 3b
        E 32 b0 0b 4c
        E 0 80 24 00
        E 0 90 1f 4c
        E 48 b0 0b 44
        E 48 b0 0b 3b
        E 32 b0 0b 4c
        E 0 80 1f 00
        E 0 90 24 4c
        E 48 b0 0b 44
        E 48 b0 0b 3b
        E 32 b0 0b 4c
        E 0 80 24 00
        E 0 90 1f 4c
        E 48 b0 0b 44
        E 48 b0 0b 3b
        E 32 b0 0b 4c
        E 0 80 1f 00
        E 0 90 1c 4c
        E 48 b0 0b 44
        E 48 b0 0b 3b
        E 32 b0 0b 4c
        E 0 80 1c 00
        E 0 90 1f 4c
        E 48 b0 0b 44
        E 48 b0 0b 3b
        E 32 b0 0b 4c
        E 0 80 1f 00
        E 0 90 24 4c
        E 48 b0 0b 44
        E 48 b0 0b 3b
        E 32 b0 0b 4c
        E 0 80 24 00
        E 0 90 1f 4c
        E 48 b0 0b 44
        E 48 b0 0b 3b
        E 32 b0 0b 4c
        E 0 80 1f 00
        E 0 90 24 4c
        E 48 b0 0b 44
        E 48 b0 0b 3b
        E 32 b0 0b 4c
        E 0 80 24 00
        E 0 90 1f 4c
        E 48 b0 0b 44
        E 48 b0 0b 3b
        E 32 b0 0b 4c
        E 0 80 1f 00
        E 0 90 1c 4c
        E 48 b0 0b 44
        E 48 b0 0b 3b
        E 32 b0 0b 4c
        E 0 80 1c 00
        E 0 90 1f 4c
        E 48 b0 0b 44
        E 48 b0 0b 3b
        E 32 b0 0b 4c
        E 0 80 1f 00
        E 0 90 24 4c
        E 48 b0 0b 44
        E 48 b0 0b 3b
        E 32 b0 0b 4c
        E 0 80 24 00
        E 0 90 1f 4c
        E 48 b0 0b 44
        E 48 b0 0b 3b
        E 32 b0 0b 4c
        E 0 80 1f 00
        E 0 90 24 4c
        E 48 b0 0b 44
        E 48 b0 0b 3b
        E 32 b0 0b 4c
        E 0 80 24 00
        E 0 90 1f 4c
        E 48 b0 0b 44
        E 48 b0 0b 3b
        E 16 b0 0b 44
        E 0 80 1f 00
        E 0 90 24 44
        E 16 b0 0b 4c
        E 16 b0 0b 55
        E 64 b0 0b 44
        E 0 80 24 00
        E 0 90 25 44
        E 16 b0 0b 4c
        E 16 b0 0b 55
        E 64 b0 0b 44
        E 0 80 25 00
        E 0 90 26 44
        E 16 b0 0b 4c
        E 16 b0 0b 55
        E 64 b0 0b 44
        E 0 80 26 00
        E 0 90 27 44
        E 16 b0 0b 4c
        E 16 b0 0b 55
        E 64 b0 0b 44
        E 0 80 27 00
        E 0 90 28 44
        E 16 b0 0b 4c
        E 16 b0 0b 55
        E 160 b0 0b 44
        E 0 80 28 00
        E 0 90 25 44
        E 16 b0 0b 4c
        E 16 b0 0b 55
        E 160 b0 0b 44
        E 0 80 25 00
        E 0 90 24 44
        E 16 b0 0b 4c
        E 16 b0 0b 55
        E 160 b0 0b 44
        E 0 80 24 00
        E 0 90 20 44
        E 16 b0 0b 4c
        E 16 b0 0b 55
        E 160 b0 0b 44
        E 0 80 20 00
        E 0 90 1d 44
        E 16 b0 0b 4c
        E 16 b0 0b 55
        E 64 b0 0b 44
        E 0 80 1d 00
        E 0 90 1e 44
        E 16 b0 0b 4c
        E 16 b0 0b 55
        E 160 b0 0b 44
        E 0 80 1e 00
        E 0 90 19 44
        E 16 b0 0b 4c
        E 16 b0 0b 55
        E 160 80 19 00
        E 55360 b0 7b 00
        E 0 ff 2f 00
      >
    >
  >
  <TRACK {52F5F967-C465-4310-87E9-3B7DFFC52CC2}
    NAME "NES - Pulse 2 [ch1]"
    PEAKCOL 10092441
    BEAT -1
    AUTOMODE 0
    PANLAWFLAGS 3
    VOLPAN 1 0 -1 -1 1
    MUTESOLO 0 0 0
    IPHASE 0
    PLAYOFFS 0 1
    ISBUS 0 0
    BUSCOMP 0 0 0 0 0
    SHOWINMIX 1 0.6667 0.5 1 0.5 0 0 0
    FIXEDLANES 9 0 0 0 0
    SEL 0
    REC 0 5088 1 0 0 0 0 0
    VU 2
    TRACKHEIGHT 0 0 0 0 0 0 0
    INQ 0 0 0 0.5 100 0 0 100
    NCHAN 2
    FX 1
    TRACKID {52F5F967-C465-4310-87E9-3B7DFFC52CC2}
    PERF 0
    MIDIOUT -1
    MAINSEND 1 0
    <FXCHAIN
      WNDRECT 24 52 700 560
      SHOW 0
      LASTSEL 0
      DOCKED 0
      BYPASS 0 0 0
      <JS "ReapNES Studio/ReapNES_Console.jsfx" ""
        2 15 1 10 80 10 100 2 1 15 1 5 60 10 80 1 1 0 50 0 0 15 1 0 100 0 0 0.500000 0.500000 0.400000 0.300000 0.800000 1 1 0 0 0 0 - - - - - - - - - - - - - - - - - - - - - - - - - -
      >
      FLOATPOS 0 0 0 0
      FXID {B039BCC3-E9CA-4487-A8C4-2B1F5CECA826}
      WAK 0 0
    >
    <ITEM
      POSITION 0
      LENGTH 72.30171290000001
      LOOP 0
      ALLTAKES 0
      FADEIN 0 0 0 0 0 0 0
      FADEOUT 0 0 0 0 0 0 0
      MUTE 0 0
      SEL 0
      IGUID {C3617A00-E705-463A-9971-3F58EF437C55}
      <SOURCE MIDI
        HASDATA 1 480 QN
        CCINTERP 32
        E 0 c1 51
        E 0 b1 0c 10
        E 0 b1 0b 4c
        E 0 91 39 4c
        E 16 b1 0b 55
        E 16 b1 0b 5d
        E 96 b1 0b 19
        E 16 b1 0b 22
        E 16 b1 0b 2a
        E 96 b1 0b 4c
        E 0 81 39 00
        E 0 91 3d 4c
        E 16 b1 0b 55
        E 16 b1 0b 5d
        E 96 b1 0b 4c
        E 0 81 3d 00
        E 0 91 40 4c
        E 16 b1 0b 55
        E 16 b1 0b 5d
        E 736 b1 0b 19
        E 16 b1 0b 22
        E 16 b1 0b 2a
        E 96 b1 0b 4c
        E 16 b1 0b 55
        E 16 b1 0b 5d
        E 32 b1 0b 19
        E 16 b1 0b 22
        E 16 b1 0b 2a
        E 32 b1 0b 4c
        E 16 b1 0b 55
        E 16 b1 0b 5d
        E 32 b1 0b 19
        E 16 b1 0b 22
        E 16 b1 0b 2a
        E 32 b1 0b 4c
        E 0 81 40 00
        E 0 91 42 4c
        E 16 b1 0b 55
        E 16 b1 0b 5d
        E 32 b1 0b 19
        E 16 b1 0b 22
        E 16 b1 0b 2a
        E 32 b1 0b 4c
        E 0 81 42 00
        E 0 91 40 4c
        E 16 b1 0b 55
        E 16 b1 0b 5d
        E 32 b1 0b 19
        E 16 b1 0b 22
        E 16 b1 0b 2a
        E 32 b1 0b 4c
        E 0 81 40 00
        E 0 91 3e 4c
        E 16 b1 0b 55
        E 16 b1 0b 5d
        E 32 b1 0b 19
        E 16 b1 0b 22
        E 16 b1 0b 2a
        E 32 b1 0b 4c
        E 0 81 3e 00
        E 0 91 40 4c
        E 16 b1 0b 55
        E 16 b1 0b 5d
        E 992 b1 0b 19
        E 16 b1 0b 22
        E 16 b1 0b 2a
        E 96 b1 0b 4c
        E 0 81 40 00
        E 0 91 3c 4c
        E 16 b1 0b 55
        E 16 b1 0b 5d
        E 96 b1 0b 19
        E 16 b1 0b 22
        E 16 b1 0b 2a
        E 96 b1 0b 4c
        E 0 81 3c 00
        E 0 91 40 4c
        E 16 b1 0b 55
        E 16 b1 0b 5d
        E 96 b1 0b 4c
        E 0 81 40 00
        E 0 91 43 4c
        E 16 b1 0b 55
        E 16 b1 0b 5d
        E 736 b1 0b 19
        E 16 b1 0b 22
        E 16 b1 0b 2a
        E 96 b1 0b 4c
        E 16 b1 0b 55
        E 16 b1 0b 5d
        E 32 b1 0b 19
        E 16 b1 0b 22
        E 16 b1 0b 2a
        E 32 b1 0b 4c
        E 16 b1 0b 55
        E 16 b1 0b 5d
        E 32 b1 0b 19
        E 16 b1 0b 22
        E 16 b1 0b 2a
        E 32 b1 0b 4c
        E 0 81 43 00
        E 0 91 45 4c
        E 16 b1 0b 55
        E 16 b1 0b 5d
        E 32 b1 0b 19
        E 16 b1 0b 22
        E 16 b1 0b 2a
        E 32 b1 0b 4c
        E 0 81 45 00
        E 0 91 43 4c
        E 16 b1 0b 55
        E 16 b1 0b 5d
        E 32 b1 0b 19
        E 16 b1 0b 22
        E 16 b1 0b 2a
        E 32 b1 0b 4c
        E 0 81 43 00
        E 0 91 41 4c
        E 16 b1 0b 55
        E 16 b1 0b 5d
        E 32 b1 0b 19
        E 16 b1 0b 22
        E 16 b1 0b 2a
        E 32 b1 0b 4c
        E 0 81 41 00
        E 0 91 43 4c
        E 16 b1 0b 55
        E 16 b1 0b 5d
        E 992 b1 0b 19
        E 16 b1 0b 22
        E 16 b1 0b 2a
        E 96 b1 0b 4c
        E 0 81 43 00
        E 0 91 3f 4c
        E 16 b1 0b 55
        E 16 b1 0b 5d
        E 96 b1 0b 19
        E 16 b1 0b 22
        E 16 b1 0b 2a
        E 96 b1 0b 4c
        E 0 81 3f 00
        E 0 91 43 4c
        E 16 b1 0b 55
        E 16 b1 0b 5d
        E 96 b1 0b 4c
        E 0 81 43 00
        E 0 91 46 4c
        E 16 b1 0b 55
        E 16 b1 0b 5d
        E 736 b1 0b 19
        E 16 b1 0b 22
        E 16 b1 0b 2a
        E 96 b1 0b 4c
        E 16 b1 0b 55
        E 16 b1 0b 5d
        E 32 b1 0b 19
        E 16 b1 0b 22
        E 16 b1 0b 2a
        E 32 b1 0b 4c
        E 16 b1 0b 55
        E 16 b1 0b 5d
        E 32 b1 0b 19
        E 16 b1 0b 22
        E 16 b1 0b 2a
        E 32 b1 0b 4c
        E 0 81 46 00
        E 0 91 48 4c
        E 16 b1 0b 55
        E 16 b1 0b 5d
        E 32 b1 0b 19
        E 16 b1 0b 22
        E 16 b1 0b 2a
        E 32 b1 0b 4c
        E 0 81 48 00
        E 0 91 46 4c
        E 16 b1 0b 55
        E 16 b1 0b 5d
        E 32 b1 0b 19
        E 16 b1 0b 22
        E 16 b1 0b 2a
        E 32 b1 0b 4c
        E 0 81 46 00
        E 0 91 44 4c
        E 16 b1 0b 55
        E 16 b1 0b 5d
        E 32 b1 0b 19
        E 16 b1 0b 22
        E 16 b1 0b 2a
        E 32 b1 0b 4c
        E 0 81 44 00
        E 0 91 46 4c
        E 16 b1 0b 55
        E 16 b1 0b 5d
        E 992 b1 0b 19
        E 16 b1 0b 22
        E 16 b1 0b 2a
        E 96 b1 0b 4c
        E 0 81 46 00
        E 0 91 48 4c
        E 16 b1 0b 55
        E 16 b1 0b 5d
        E 352 b1 0b 19
        E 16 b1 0b 22
        E 16 b1 0b 2a
        E 96 b1 0b 4c
        E 0 81 48 00
        E 0 91 43 4c
        E 16 b1 0b 55
        E 16 b1 0b 5d
        E 32 b1 0b 19
        E 16 b1 0b 22
        E 16 b1 0b 2a
        E 32 b1 0b 4c
        E 16 b1 0b 55
        E 16 b1 0b 5d
        E 32 b1 0b 19
        E 16 b1 0b 22
        E 16 b1 0b 2a
        E 32 b1 0b 4c
        E 16 b1 0b 55
        E 16 b1 0b 5d
        E 352 b1 0b 19
        E 16 b1 0b 22
        E 16 b1 0b 2a
        E 96 b1 0b 4c
        E 0 81 43 00
        E 0 91 40 4c
        E 16 b1 0b 55
        E 16 b1 0b 5d
        E 32 b1 0b 19
        E 16 b1 0b 22
        E 16 b1 0b 2a
        E 32 b1 0b 4c
        E 16 b1 0b 55
        E 16 b1 0b 5d
        E 32 b1 0b 19
        E 16 b1 0b 22
        E 16 b1 0b 2a
        E 32 b1 0b 4c
        E 16 b1 0b 55
        E 16 b1 0b 5d
        E 352 b1 0b 19
        E 16 b1 0b 22
        E 16 b1 0b 2a
        E 96 b1 0b 4c
        E 0 81 40 00
        E 0 91 3c 4c
        E 16 b1 0b 55
        E 16 b1 0b 5d
        E 32 b1 0b 19
        E 16 b1 0b 22
        E 16 b1 0b 2a
        E 32 b1 0b 4c
        E 16 b1 0b 55
        E 16 b1 0b 5d
        E 32 b1 0b 19
        E 16 b1 0b 22
        E 16 b1 0b 2a
        E 32 b1 0b 4c
        E 16 b1 0b 55
        E 16 b1 0b 5d
        E 352 b1 0b 19
        E 16 b1 0b 22
        E 16 b1 0b 2a
        E 96 b1 0b 3b
        E 0 81 3c 00
        E 0 91 37 3b
        E 16 b1 0b 44
        E 16 b1 0b 4c
        E 32 b1 0b 19
        E 16 b1 0b 22
        E 16 b1 0b 2a
        E 32 b1 0b 3b
        E 16 b1 0b 44
        E 16 b1 0b 4c
        E 32 b1 0b 19
        E 16 b1 0b 22
        E 16 b1 0b 2a
        E 32 b1 0b 4c
        E 0 81 37 00
        E 0 91 39 4c
        E 16 b1 0b 55
        E 16 b1 0b 5d
        E 96 b1 0b 19
        E 16 b1 0b 22
        E 16 b1 0b 2a
        E 96 b1 0b 4c
        E 0 81 39 00
        E 0 91 3d 4c
        E 16 b1 0b 55
        E 16 b1 0b 5d
        E 96 b1 0b 4c
        E 0 81 3d 00
        E 0 91 40 4c
        E 16 b1 0b 55
        E 16 b1 0b 5d
        E 736 b1 0b 19
        E 16 b1 0b 22
        E 16 b1 0b 2a
        E 96 b1 0b 4c
        E 16 b1 0b 55
        E 16 b1 0b 5d
        E 32 b1 0b 19
        E 16 b1 0b 22
        E 16 b1 0b 2a
        E 32 b1 0b 4c
        E 16 b1 0b 55
        E 16 b1 0b 5d
        E 32 b1 0b 19
        E 16 b1 0b 22
        E 16 b1 0b 2a
        E 32 b1 0b 4c
        E 0 81 40 00
        E 0 91 42 4c
        E 16 b1 0b 55
        E 16 b1 0b 5d
        E 32 b1 0b 19
        E 16 b1 0b 22
        E 16 b1 0b 2a
        E 32 b1 0b 4c
        E 0 81 42 00
        E 0 91 40 4c
        E 16 b1 0b 55
        E 16 b1 0b 5d
        E 32 b1 0b 19
        E 16 b1 0b 22
        E 16 b1 0b 2a
        E 32 b1 0b 4c
        E 0 81 40 00
        E 0 91 3e 4c
        E 16 b1 0b 55
        E 16 b1 0b 5d
        E 32 b1 0b 19
        E 16 b1 0b 22
        E 16 b1 0b 2a
        E 32 b1 0b 4c
        E 0 81 3e 00
        E 0 91 40 4c
        E 16 b1 0b 55
        E 16 b1 0b 5d
        E 992 b1 0b 19
        E 16 b1 0b 22
        E 16 b1 0b 2a
        E 96 b1 0b 4c
        E 0 81 40 00
        E 0 91 3c 4c
        E 16 b1 0b 55
        E 16 b1 0b 5d
        E 96 b1 0b 19
        E 16 b1 0b 22
        E 16 b1 0b 2a
        E 96 b1 0b 4c
        E 0 81 3c 00
        E 0 91 40 4c
        E 16 b1 0b 55
        E 16 b1 0b 5d
        E 96 b1 0b 4c
        E 0 81 40 00
        E 0 91 43 4c
        E 16 b1 0b 55
        E 16 b1 0b 5d
        E 736 b1 0b 19
        E 16 b1 0b 22
        E 16 b1 0b 2a
        E 96 b1 0b 4c
        E 16 b1 0b 55
        E 16 b1 0b 5d
        E 32 b1 0b 19
        E 16 b1 0b 22
        E 16 b1 0b 2a
        E 32 b1 0b 4c
        E 16 b1 0b 55
        E 16 b1 0b 5d
        E 32 b1 0b 19
        E 16 b1 0b 22
        E 16 b1 0b 2a
        E 32 b1 0b 4c
        E 0 81 43 00
        E 0 91 45 4c
        E 16 b1 0b 55
        E 16 b1 0b 5d
        E 32 b1 0b 19
        E 16 b1 0b 22
        E 16 b1 0b 2a
        E 32 b1 0b 4c
        E 0 81 45 00
        E 0 91 43 4c
        E 16 b1 0b 55
        E 16 b1 0b 5d
        E 32 b1 0b 19
        E 16 b1 0b 22
        E 16 b1 0b 2a
        E 32 b1 0b 4c
        E 0 81 43 00
        E 0 91 41 4c
        E 16 b1 0b 55
        E 16 b1 0b 5d
        E 32 b1 0b 19
        E 16 b1 0b 22
        E 16 b1 0b 2a
        E 32 b1 0b 4c
        E 0 81 41 00
        E 0 91 43 4c
        E 16 b1 0b 55
        E 16 b1 0b 5d
        E 80 b1 0b 44
        E 0 81 43 00
        E 0 91 30 44
        E 16 b1 0b 4c
        E 16 b1 0b 55
        E 64 b1 0b 44
        E 0 81 30 00
        E 0 91 31 44
        E 16 b1 0b 4c
        E 16 b1 0b 55
        E 64 b1 0b 44
        E 0 81 31 00
        E 0 91 32 44
        E 16 b1 0b 4c
        E 16 b1 0b 55
        E 64 b1 0b 44
        E 0 81 32 00
        E 0 91 33 44
        E 16 b1 0b 4c
        E 16 b1 0b 55
        E 64 b1 0b 44
        E 0 81 33 00
        E 0 91 34 44
        E 16 b1 0b 4c
        E 16 b1 0b 55
        E 160 b1 0b 44
        E 0 81 34 00
        E 0 91 31 44
        E 16 b1 0b 4c
        E 16 b1 0b 55
        E 160 b1 0b 44
        E 0 81 31 00
        E 0 91 30 44
        E 16 b1 0b 4c
        E 16 b1 0b 55
        E 160 b1 0b 44
        E 0 81 30 00
        E 0 91 2c 44
        E 16 b1 0b 4c
        E 16 b1 0b 55
        E 160 b1 0b 44
        E 0 81 2c 00
        E 0 91 29 44
        E 16 b1 0b 4c
        E 16 b1 0b 55
        E 64 b1 0b 44
        E 0 81 29 00
        E 0 91 2a 44
        E 16 b1 0b 4c
        E 16 b1 0b 55
        E 160 b1 0b 44
        E 0 81 2a 00
        E 0 91 25 44
        E 16 b1 0b 4c
        E 16 b1 0b 55
        E 160 81 25 00
        E 55360 b1 7b 00
        E 0 ff 2f 00
      >
    >
  >
  <TRACK {F45A45EF-BBED-4875-88B7-93A81B253CCD}
    NAME "NES - Triangle [ch2]"
    PEAKCOL 16744192
    BEAT -1
    AUTOMODE 0
    PANLAWFLAGS 3
    VOLPAN 1 0 -1 -1 1
    MUTESOLO 0 0 0
    IPHASE 0
    PLAYOFFS 0 1
    ISBUS 0 0
    BUSCOMP 0 0 0 0 0
    SHOWINMIX 1 0.6667 0.5 1 0.5 0 0 0
    FIXEDLANES 9 0 0 0 0
    SEL 0
    REC 0 5088 1 0 0 0 0 0
    VU 2
    TRACKHEIGHT 0 0 0 0 0 0 0
    INQ 0 0 0 0.5 100 0 0 100
    NCHAN 2
    FX 1
    TRACKID {F45A45EF-BBED-4875-88B7-93A81B253CCD}
    PERF 0
    MIDIOUT -1
    MAINSEND 1 0
    <FXCHAIN
      WNDRECT 24 52 700 560
      SHOW 0
      LASTSEL 0
      DOCKED 0
      BYPASS 0 0 0
      <JS "ReapNES Studio/ReapNES_Console.jsfx" ""
        2 15 1 10 80 10 100 2 1 15 1 5 60 10 80 1 1 0 50 0 0 15 1 0 100 0 0 0.500000 0.500000 0.400000 0.300000 0.800000 2 1 0 0 0 0 - - - - - - - - - - - - - - - - - - - - - - - - - -
      >
      FLOATPOS 0 0 0 0
      FXID {E9075E0B-BC50-4FE6-9071-1D5A3E9E7962}
      WAK 0 0
    >
    <ITEM
      POSITION 0
      LENGTH 72.30171290000001
      LOOP 0
      ALLTAKES 0
      FADEIN 0 0 0 0 0 0 0
      FADEOUT 0 0 0 0 0 0 0
      MUTE 0 0
      SEL 0
      IGUID {1E56C8A2-E8B2-4019-93B5-5E407BE6208D}
      <SOURCE MIDI
        HASDATA 1 480 QN
        CCINTERP 32
        E 0 c2 26
        E 2496 b2 0b 7f
        E 0 92 26 7f
        E 16 82 26 00
        E 0 b2 0b 7f
        E 0 92 27 7f
        E 16 82 27 00
        E 0 b2 0b 7f
        E 0 92 28 7f
        E 16 82 28 00
        E 0 b2 0b 7f
        E 0 92 29 7f
        E 16 82 29 00
        E 0 b2 0b 7f
        E 0 92 28 7f
        E 16 82 28 00
        E 0 b2 0b 7f
        E 0 92 27 7f
        E 16 82 27 00
        E 0 b2 0b 7f
        E 0 92 26 7f
        E 16 82 26 00
        E 0 b2 0b 7f
        E 0 92 25 7f
        E 16 82 25 00
        E 0 b2 0b 7f
        E 0 92 24 7f
        E 16 82 24 00
        E 0 b2 0b 7f
        E 0 92 23 7f
        E 16 82 23 00
        E 0 b2 0b 7f
        E 0 92 22 7f
        E 16 82 22 00
        E 0 b2 0b 7f
        E 0 92 21 7f
        E 16 82 21 00
        E 1760 b2 0b 7f
        E 0 92 26 7f
        E 16 82 26 00
        E 0 b2 0b 7f
        E 0 92 27 7f
        E 16 82 27 00
        E 0 b2 0b 7f
        E 0 92 28 7f
        E 16 82 28 00
        E 0 b2 0b 7f
        E 0 92 29 7f
        E 16 82 29 00
        E 0 b2 0b 7f
        E 0 92 28 7f
        E 16 82 28 00
        E 0 b2 0b 7f
        E 0 92 27 7f
        E 16 82 27 00
        E 0 b2 0b 7f
        E 0 92 26 7f
        E 16 82 26 00
        E 0 b2 0b 7f
        E 0 92 25 7f
        E 16 82 25 00
        E 0 b2 0b 7f
        E 0 92 24 7f
        E 16 82 24 00
        E 0 b2 0b 7f
        E 0 92 23 7f
        E 16 82 23 00
        E 0 b2 0b 7f
        E 0 92 22 7f
        E 16 82 22 00
        E 0 b2 0b 7f
        E 0 92 21 7f
        E 16 82 21 00
        E 2896 b2 0b 7f
        E 0 92 26 7f
        E 16 82 26 00
        E 0 b2 0b 7f
        E 0 92 27 7f
        E 16 82 27 00
        E 0 b2 0b 7f
        E 0 92 28 7f
        E 16 82 28 00
        E 0 b2 0b 7f
        E 0 92 29 7f
        E 16 82 29 00
        E 7776 b2 0b 7f
        E 0 92 26 7f
        E 16 82 26 00
        E 0 b2 0b 7f
        E 0 92 27 7f
        E 16 82 27 00
        E 0 b2 0b 7f
        E 0 92 28 7f
        E 16 82 28 00
        E 0 b2 0b 7f
        E 0 92 29 7f
        E 16 82 29 00
        E 0 b2 0b 7f
        E 0 92 28 7f
        E 16 82 28 00
        E 0 b2 0b 7f
        E 0 92 27 7f
        E 16 82 27 00
        E 0 b2 0b 7f
        E 0 92 26 7f
        E 16 82 26 00
        E 0 b2 0b 7f
        E 0 92 25 7f
        E 16 82 25 00
        E 0 b2 0b 7f
        E 0 92 24 7f
        E 16 82 24 00
        E 0 b2 0b 7f
        E 0 92 23 7f
        E 16 82 23 00
        E 0 b2 0b 7f
        E 0 92 22 7f
        E 16 82 22 00
        E 0 b2 0b 7f
        E 0 92 21 7f
        E 16 82 21 00
        E 58816 b2 7b 00
        E 0 ff 2f 00
      >
    >
  >
  <TRACK {A161A0AB-7C55-4774-85B5-590E8B9E0FFC}
    NAME "NES - Noise / Drums [ch3]"
    PEAKCOL 11184810
    BEAT -1
    AUTOMODE 0
    PANLAWFLAGS 3
    VOLPAN 1 0 -1 -1 1
    MUTESOLO 0 0 0
    IPHASE 0
    PLAYOFFS 0 1
    ISBUS 0 0
    BUSCOMP 0 0 0 0 0
    SHOWINMIX 1 0.6667 0.5 1 0.5 0 0 0
    FIXEDLANES 9 0 0 0 0
    SEL 0
    REC 0 5088 1 0 0 0 0 0
    VU 2
    TRACKHEIGHT 0 0 0 0 0 0 0
    INQ 0 0 0 0.5 100 0 0 100
    NCHAN 2
    FX 1
    TRACKID {A161A0AB-7C55-4774-85B5-590E8B9E0FFC}
    PERF 0
    MIDIOUT -1
    MAINSEND 1 0
    <FXCHAIN
      WNDRECT 24 52 700 560
      SHOW 0
      LASTSEL 0
      DOCKED 0
      BYPASS 0 0 0
      <JS "ReapNES Studio/ReapNES_Console.jsfx" ""
        2 15 1 10 80 10 100 2 1 15 1 5 60 10 80 1 1 0 50 0 0 15 1 0 100 0 0 0.500000 0.500000 0.400000 0.300000 0.800000 3 1 0 0 0 0 - - - - - - - - - - - - - - - - - - - - - - - - - -
      >
      FLOATPOS 0 0 0 0
      FXID {D130151D-81EB-4454-ADB1-16D4C2EB0642}
      WAK 0 0
    >
    <ITEM
      POSITION 0
      LENGTH 72.30171290000001
      LOOP 0
      ALLTAKES 0
      FADEIN 0 0 0 0 0 0 0
      FADEOUT 0 0 0 0 0 0 0
      MUTE 0 0
      SEL 0
      IGUID {94409895-A853-47B2-97CC-E04519483474}
      <SOURCE MIDI
        HASDATA 1 480 QN
        CCINTERP 32
        E 2496 93 2a 7f
        E 16 83 2a 00
        E 1936 93 2a 7f
        E 16 83 2a 00
        E 3072 93 2a 7f
        E 16 83 2a 00
        E 7824 93 2a 7f
        E 16 83 2a 00
        E 58992 b3 7b 00
        E 0 ff 2f 00
      >
    >
  >
>