<REAPER_PROJECT 0.1 "7.27/win64" 1707000000
  <NOTES 0 2
    |ReapNES Studio Project
    |MIDI Import - Caesars_Palace_song01_rom_v1
  >
  RIPPLE 0
  GROUPOVERRIDE 0 0 0
  AUTOXFADE 129
  ENVATTACH 3
  POOLEDENVATTACH 0
  MIXERUIFLAGS 11 48
  ENVFADESZ10 40
  PEAKGAIN 1
  FEEDBACK 0
  PANLAW 1
  PROJOFFS 0 0 0
  MAXPROJLEN 0 0
  GRID 3199 8 1 8 1 0 0 0
  TIMEMODE 1 5 -1 30 0 0 -1
  VIDEO_CONFIG 0 0 65792
  PANMODE 3
  PANLAWFLAGS 3
  CURSOR 0
  ZOOM 100 0 0
  VZOOMEX 6 0
  USE_REC_CFG 0
  RECMODE 1
  SMPTESYNC 0 30 100 40 1000 300 0 0 1 0 0
  LOOP 0
  LOOPGRAN 0 4
  RECORD_PATH "Media" ""
  <RECORD_CFG
    ZXZhdxgAAQ==
  >
  <APPLYFX_CFG
  >
  RENDER_FILE ""
  RENDER_PATTERN ""
  RENDER_FMT 0 2 0
  RENDER_1X 0
  RENDER_RANGE 1 0 0 18 1000
  RENDER_RESAMPLE 3 0 1
  RENDER_ADDTOPROJ 0
  RENDER_STEMS 0
  RENDER_DITHER 0
  TIMELOCKMODE 1
  TEMPOENVLOCKMODE 1
  ITEMMIX 1
  DEFPITCHMODE 589824 0
  TAKELANE 1
  SAMPLERATE 44100 0 0
  <RENDER_CFG
    ZXZhdxgAAQ==
  >
  LOCK 1
  <METRONOME 6 2
    VOL 0.25 0.125
    BEATLEN 4
    FREQ 1760 880 1
    SAMPLES "" ""
    SPLIGNORE 0 0
    SPLDEF 2 660 "" 0
    SPLDEF 3 440 "" 0
    PATTERN 0 169
    PATTERNSTR ABBB
    MULT 1
  >
  GLOBAL_AUTO -1
  TEMPO 128.59999614200012 4 4
  PLAYRATE 1 0 0.25 4
  SELECTION 0 0
  SELECTION2 0 0
  MASTERAUTOMODE 0
  MASTERTRACKHEIGHT 0 0
  MASTERPEAKCOL 16576
  MASTERMUTESOLO 0
  MASTERTRACKVIEW 0 0.6667 0.5 0.5 0 0 0 0 0 0 0 0 0 0
  MASTERHWOUT 0 0 1 0 0 0 0 -1
  MASTER_NCH 2 2
  MASTER_VOLUME 1 0 -1 -1 1
  MASTER_PANMODE 3
  MASTER_PANLAWFLAGS 3
  MASTER_FX 1
  MASTER_SEL 0
  <MASTERPLAYSPEEDENV
    EGUID {E398C4BA-2EA8-4287-A257-58108CA42CF6}
    ACT 0 -1
    VIS 0 1 1
    LANEHEIGHT 0 0
    ARM 0
    DEFSHAPE 0 -1 -1
  >
  <TEMPOENVEX
    EGUID {3EC98598-2980-42DC-B3CA-AAF53F5475FA}
    ACT 1 -1
    VIS 1 0 1
    LANEHEIGHT 0 0
    ARM 0
    DEFSHAPE 1 -1 -1
  >
  <PROJBAY
  >
  <TRACK {7BD82787-3AAF-4998-8A28-07B1854BE3FC}
    NAME "NES - Pulse 1 [ch0]"
    PEAKCOL 16576606
    BEAT -1
    AUTOMODE 0
    PANLAWFLAGS 3
    VOLPAN 1 0 -1 -1 1
    MUTESOLO 0 0 0
    IPHASE 0
    PLAYOFFS 0 1
    ISBUS 0 0
    BUSCOMP 0 0 0 0 0
    SHOWINMIX 1 0.6667 0.5 1 0.5 0 0 0
    FIXEDLANES 9 0 0 0 0
    SEL 1
    REC 1 5088 1 0 0 0 0 0
    VU 2
    TRACKHEIGHT 0 0 0 0 0 0 0
    INQ 0 0 0 0.5 100 0 0 100
    NCHAN 2
    FX 1
    TRACKID {7BD82787-3AAF-4998-8A28-07B1854BE3FC}
    PERF 0
    MIDIOUT -1
    MAINSEND 1 0
    <FXCHAIN
      WNDRECT 24 52 700 560
      SHOW 0
      LASTSEL 0
      DOCKED 0
      BYPASS 0 0 0
      <JS "ReapNES Studio/ReapNES_Console.jsfx" ""
        2 15 1 10 80 10 100 2 1 15 1 5 60 10 80 1 1 0 50 0 0 15 1 0 100 0 0 0.500000 0.500000 0.400000 0.300000 0.800000 0 1 0 0 0 0 - - - - - - - - - - - - - - - - - - - - - - - - - -
      >
      FLOATPOS 0 0 0 0
      FXID {2A388FEA-3478-4C19-94BB-48BE9B3BE219}
      WAK 0 0
    >
    <ITEM
      POSITION 0
      LENGTH 74.5723195
      LOOP 0
      ALLTAKES 0
      FADEIN 0 0 0 0 0 0 0
      FADEOUT 0 0 0 0 0 0 0
      MUTE 0 0
      SEL 0
      IGUID {C79DA42A-D39A-489A-9559-E9278A4EFED7}
      <SOURCE MIDI
        HASDATA 1 480 QN
        CCINTERP 32
        E 0 c0 50
        E 0 b0 0c 10
        E 0 b0 0b 44
        E 0 90 3e 44
        E 16 b0 0b 4c
        E 0 80 3e 00
        E 0 90 41 4c
        E 288 80 41 00
        E 0 90 43 4c
        E 96 80 43 00
        E 0 90 41 4c
        E 96 80 41 00
        E 0 90 43 4c
        E 96 80 43 00
        E 0 90 41 4c
        E 96 80 41 00
        E 0 90 43 4c
        E 96 80 43 00
        E 0 90 41 4c
        E 96 80 41 00
        E 0 90 43 4c
        E 96 80 43 00
        E 0 90 41 4c
        E 96 80 41 00
        E 0 90 43 4c
        E 96 80 43 00
        E 0 90 41 4c
        E 96 80 41 00
        E 0 90 40 4c
        E 288 b0 0b 44
        E 64 b0 0b 3b
        E 64 b0 0b 33
        E 64 b0 0b 2a
        E 64 b0 0b 22
        E 32 b0 0b 4c
        E 0 80 40 00
        E 0 90 3c 4c
        E 192 80 3c 00
        E 0 90 39 4c
        E 96 80 39 00
        E 0 90 37 4c
        E 144 b0 0b 44
        E 48 b0 0b 4c
        E 0 80 37 00
        E 0 90 3e 4c
        E 288 80 3e 00
        E 0 90 3f 4c
        E 96 80 3f 00
        E 0 90 3e 4c
        E 96 80 3e 00
        E 0 90 3f 4c
        E 96 80 3f 00
        E 0 90 3e 4c
        E 96 80 3e 00
        E 0 90 3c 4c
        E 96 80 3c 00
        E 0 90 3e 4c
        E 96 80 3e 00
        E 0 90 3c 4c
        E 96 80 3c 00
        E 0 90 39 4c
        E 96 80 39 00
        E 0 90 3c 4c
        E 96 80 3c 00
        E 0 90 3e 4c
        E 96 80 3e 00
        E 0 90 45 4c
        E 192 80 45 00
        E 0 90 41 4c
        E 96 b0 0b 44
        E 64 b0 0b 3b
        E 64 b0 0b 33
        E 64 b0 0b 2a
        E 64 b0 0b 22
        E 32 b0 0b 4c
        E 144 b0 0b 44
        E 64 b0 0b 3b
        E 64 b0 0b 33
        E 16 b0 0b 4c
        E 0 80 41 00
        E 0 90 3e 4c
        E 192 b0 0b 44
        E 64 b0 0b 3b
        E 32 b0 0b 4c
        E 0 80 3e 00
        E 0 90 45 4c
        E 192 80 45 00
        E 0 90 46 4c
        E 96 80 46 00
        E 0 90 45 4c
        E 192 80 45 00
        E 0 90 41 4c
        E 336 b0 0b 44
        E 48 b0 0b 4c
        E 0 80 41 00
        E 0 90 3e 4c
        E 192 80 3e 00
        E 0 90 41 4c
        E 288 80 41 00
        E 0 90 39 4c
        E 96 80 39 00
        E 0 90 3c 4c
        E 192 80 3c 00
        E 0 90 41 4c
        E 96 80 41 00
        E 0 90 40 4c
        E 192 80 40 00
        E 0 90 38 4c
        E 96 80 38 00
        E 0 90 3b 4c
        E 192 80 3b 00
        E 0 90 40 4c
        E 96 80 40 00
        E 0 90 3f 4c
        E 192 80 3f 00
        E 0 90 37 4c
        E 96 80 37 00
        E 0 90 3a 4c
        E 192 80 3a 00
        E 0 90 3f 4c
        E 96 80 3f 00
        E 0 90 3e 4c
        E 96 80 3e 00
        E 0 90 3f 4c
        E 96 80 3f 00
        E 0 90 3e 4c
        E 96 80 3e 00
        E 0 90 3c 4c
        E 192 80 3c 00
        E 0 90 3a 4c
        E 96 80 3a 00
        E 0 90 39 4c
        E 192 80 39 00
        E 0 90 35 4c
        E 96 b0 0b 44
        E 64 b0 0b 3b
        E 64 b0 0b 33
        E 64 b0 0b 2a
        E 64 b0 0b 22
        E 32 b0 0b 4c
        E 192 80 35 00
        E 0 90 3a 4c
        E 96 80 3a 00
        E 0 90 3e 4c
        E 144 b0 0b 44
        E 48 b0 0b 4c
        E 0 80 3e 00
        E 0 90 41 4c
        E 288 80 41 00
        E 0 90 43 4c
        E 96 80 43 00
        E 0 90 41 4c
        E 96 80 41 00
        E 0 90 43 4c
        E 96 80 43 00
        E 0 90 41 4c
        E 96 80 41 00
        E 0 90 43 4c
        E 96 80 43 00
        E 0 90 41 4c
        E 96 80 41 00
        E 0 90 43 4c
        E 96 80 43 00
        E 0 90 41 4c
        E 96 80 41 00
        E 0 90 43 4c
        E 96 80 43 00
        E 0 90 41 4c
        E 96 80 41 00
        E 0 90 40 4c
        E 192 80 40 00
        E 0 90 3c 4c
        E 96 b0 0b 44
        E 64 b0 0b 3b
        E 64 b0 0b 33
        E 64 b0 0b 2a
        E 64 b0 0b 22
        E 32 b0 0b 4c
        E 192 80 3c 00
        E 0 90 39 4c
        E 96 80 39 00
        E 0 90 37 4c
        E 144 b0 0b 44
        E 48 b0 0b 4c
        E 0 80 37 00
        E 0 90 3e 4c
        E 288 80 3e 00
        E 0 90 3f 4c
        E 96 80 3f 00
        E 0 90 3e 4c
        E 96 80 3e 00
        E 0 90 3f 4c
        E 96 80 3f 00
        E 0 90 3e 4c
        E 96 80 3e 00
        E 0 90 3c 4c
        E 96 80 3c 00
        E 0 90 3e 4c
        E 96 80 3e 00
        E 0 90 3c 4c
        E 96 80 3c 00
        E 0 90 39 4c
        E 96 80 39 00
        E 0 90 3c 4c
        E 96 80 3c 00
        E 0 90 3e 4c
        E 96 80 3e 00
        E 0 90 45 4c
        E 192 80 45 00
        E 0 90 41 4c
        E 96 b0 0b 44
        E 64 b0 0b 3b
        E 64 b0 0b 33
        E 64 b0 0b 2a
        E 64 b0 0b 22
        E 32 b0 0b 4c
        E 144 b0 0b 44
        E 64 b0 0b 3b
        E 64 b0 0b 33
        E 16 b0 0b 4c
        E 0 80 41 00
        E 0 90 3e 4c
        E 192 b0 0b 44
        E 64 b0 0b 3b
        E 32 b0 0b 4c
        E 0 80 3e 00
        E 0 90 45 4c
        E 192 80 45 00
        E 0 90 46 4c
        E 96 80 46 00
        E 0 90 45 4c
        E 192 80 45 00
        E 0 90 41 4c
        E 336 b0 0b 44
        E 48 b0 0b 4c
        E 0 80 41 00
        E 0 90 3e 4c
        E 192 b0 0b 44
        E 64 b0 0b 3b
        E 32 b0 0b 4c
        E 0 80 3e 00
        E 0 90 41 4c
        E 192 b0 0b 44
        E 64 b0 0b 3b
        E 32 b0 0b 4c
        E 192 b0 0b 44
        E 64 b0 0b 3b
        E 32 b0 0b 4c
        E 0 80 41 00
        E 0 90 45 4c
        E 192 b0 0b 44
        E 64 b0 0b 3b
        E 32 b0 0b 4c
        E 192 b0 0b 44
        E 64 b0 0b 3b
        E 32 b0 0b 4c
        E 0 80 45 00
        E 0 90 48 4c
        E 192 b0 0b 44
        E 64 b0 0b 3b
        E 32 b0 0b 4c
        E 192 b0 0b 44
        E 64 b0 0b 3b
        E 32 b0 0b 4c
        E 0 80 48 00
        E 0 90 47 4c
        E 192 b0 0b 44
        E 64 b0 0b 3b
        E 32 b0 0b 4c
        E 192 80 47 00
        E 0 90 46 4c
        E 240 b0 0b 44
        E 64 b0 0b 3b
        E 64 b0 0b 33
        E 64 b0 0b 2a
        E 64 b0 0b 22
        E 64 b0 0b 19
        E 64 b0 0b 11
        E 48 b0 0b 4c
        E 0 80 46 00
        E 0 90 3c 4c
        E 768 80 3c 00
        E 0 90 46 4c
        E 144 b0 0b 44
        E 64 b0 0b 3b
        E 64 b0 0b 33
        E 16 b0 0b 4c
        E 0 80 46 00
        E 0 90 45 4c
        E 96 80 45 00
        E 0 90 43 4c
        E 192 80 43 00
        E 0 90 45 4c
        E 96 b0 0b 44
        E 64 b0 0b 3b
        E 64 b0 0b 33
        E 64 b0 0b 2a
        E 64 b0 0b 22
        E 32 b0 0b 4c
        E 192 b0 0b 44
        E 64 b0 0b 3b
        E 32 b0 0b 4c
        E 192 b0 0b 44
        E 64 b0 0b 3b
        E 32 b0 0b 4c
        E 0 80 45 00
        E 0 90 46 4c
        E 192 b0 0b 44
        E 64 b0 0b 3b
        E 32 b0 0b 4c
        E 192 b0 0b 44
        E 64 b0 0b 3b
        E 32 b0 0b 4c
        E 0 80 46 00
        E 0 90 48 4c
        E 192 b0 0b 44
        E 64 b0 0b 3b
        E 32 b0 0b 4c
        E 192 b0 0b 44
        E 64 b0 0b 3b
        E 32 b0 0b 4c
        E 0 80 48 00
        E 0 90 47 4c
        E 192 b0 0b 44
        E 64 b0 0b 3b
        E 32 b0 0b 4c
        E 192 80 47 00
        E 0 90 46 4c
        E 432 b0 0b 44
        E 64 b0 0b 3b
        E 64 b0 0b 33
        E 16 b0 0b 4c
        E 0 80 46 00
        E 0 90 45 4c
        E 288 80 45 00
        E 0 90 46 4c
        E 96 80 46 00
        E 0 90 45 4c
        E 80 80 45 00
        E 0 90 46 4c
        E 64 80 46 00
        E 0 90 45 4c
        E 80 80 45 00
        E 0 90 43 4c
        E 64 80 43 00
        E 0 90 45 4c
        E 240 b0 0b 44
        E 48 b0 0b 4c
        E 0 80 45 00
        E 0 90 41 4c
        E 144 b0 0b 44
        E 48 b0 0b 4c
        E 0 80 41 00
        E 0 90 43 4c
        E 384 80 43 00
        E 0 90 40 4c
        E 240 b0 0b 44
        E 48 b0 0b 4c
        E 0 80 40 00
        E 0 90 43 4c
        E 192 b0 0b 44
        E 64 b0 0b 3b
        E 32 b0 0b 4c
        E 0 80 43 00
        E 0 90 3c 4c
        E 192 b0 0b 44
        E 64 b0 0b 3b
        E 32 b0 0b 4c
        E 0 80 3c 00
        E 0 90 40 4c
        E 192 80 40 00
        E 0 90 43 4c
        E 96 b0 0b 44
        E 64 b0 0b 3b
        E 64 b0 0b 33
        E 64 b0 0b 4c
        E 0 80 43 00
        E 0 90 42 4c
        E 384 80 42 00
        E 0 90 3e 4c
        E 192 80 3e 00
        E 0 90 40 4c
        E 96 b0 0b 44
        E 64 b0 0b 3b
        E 64 b0 0b 33
        E 64 b0 0b 2a
        E 64 b0 0b 22
        E 64 b0 0b 19
        E 64 b0 0b 11
        E 64 b0 0b 08
        E 64 80 40 00
        E 256 b0 0b 4c
        E 0 90 3e 4c
        E 96 b0 0b 44
        E 64 b0 0b 3b
        E 64 b0 0b 33
        E 64 b0 0b 4c
        E 0 80 3e 00
        E 0 90 3a 4c
        E 96 80 3a 00
        E 0 90 39 4c
        E 240 b0 0b 44
        E 48 b0 0b 4c
        E 0 80 39 00
        E 0 90 3a 4c
        E 240 b0 0b 44
        E 48 b0 0b 4c
        E 0 80 3a 00
        E 0 90 39 4c
        E 192 b0 0b 44
        E 64 b0 0b 3b
        E 32 b0 0b 4c
        E 0 80 39 00
        E 0 90 3a 4c
        E 192 80 3a 00
        E 0 90 37 4c
        E 384 80 37 00
        E 0 90 39 4c
        E 144 b0 0b 44
        E 64 b0 0b 3b
        E 64 b0 0b 33
        E 16 b0 0b 4c
        E 0 80 39 00
        E 0 90 40 4c
        E 192 b0 0b 44
        E 64 b0 0b 3b
        E 32 b0 0b 4c
        E 0 80 40 00
        E 0 90 3c 4c
        E 192 b0 0b 44
        E 64 b0 0b 3b
        E 32 b0 0b 4c
        E 0 80 3c 00
        E 0 90 40 4c
        E 192 80 40 00
        E 0 90 43 4c
        E 192 b0 0b 44
        E 64 b0 0b 3b
        E 32 b0 0b 4c
        E 0 80 43 00
        E 0 90 42 4c
        E 384 80 42 00
        E 0 90 3e 4c
        E 192 80 3e 00
        E 0 90 40 4c
        E 96 b0 0b 44
        E 64 b0 0b 3b
        E 64 b0 0b 33
        E 64 b0 0b 2a
        E 64 b0 0b 22
        E 64 b0 0b 19
        E 64 b0 0b 11
        E 64 b0 0b 08
        E 64 80 40 00
        E 256 b0 0b 4c
        E 0 90 3e 4c
        E 144 b0 0b 44
        E 64 b0 0b 3b
        E 64 b0 0b 33
        E 16 b0 0b 4c
        E 0 80 3e 00
        E 0 90 3c 4c
        E 96 80 3c 00
        E 0 90 3a 4c
        E 240 b0 0b 44
        E 48 b0 0b 4c
        E 0 80 3a 00
        E 0 90 3c 4c
        E 192 b0 0b 44
        E 64 b0 0b 3b
        E 32 b0 0b 4c
        E 0 80 3c 00
        E 0 90 39 4c
        E 192 b0 0b 44
        E 64 b0 0b 3b
        E 32 b0 0b 4c
        E 0 80 39 00
        E 0 90 3a 4c
        E 240 b0 0b 44
        E 48 b0 0b 4c
        E 0 80 3a 00
        E 0 90 37 4c
        E 192 80 37 00
        E 0 90 39 4c
        E 96 80 39 00
        E 0 90 3a 4c
        E 192 b0 0b 44
        E 64 b0 0b 3b
        E 48 b0 0b 4c
        E 0 80 3a 00
        E 0 90 3e 4c
        E 288 b0 0b 44
        E 64 b0 0b 3b
        E 64 b0 0b 33
        E 64 b0 0b 2a
        E 64 b0 0b 22
        E 32 b0 0b 4c
        E 0 80 3e 00
        E 0 90 37 4c
        E 192 80 37 00
        E 0 90 3a 4c
        E 96 80 3a 00
        E 0 90 3e 4c
        E 144 b0 0b 44
        E 48 b0 0b 4c
        E 0 80 3e 00
        E 0 90 41 4c
        E 288 80 41 00
        E 0 90 43 4c
        E 96 80 43 00
        E 0 90 41 4c
        E 96 80 41 00
        E 0 90 43 4c
        E 96 80 43 00
        E 0 90 41 4c
        E 96 80 41 00
        E 0 90 43 4c
        E 96 80 43 00
        E 0 90 41 4c
        E 96 80 41 00
        E 0 90 43 4c
        E 96 80 43 00
        E 0 90 41 4c
        E 96 80 41 00
        E 0 90 43 4c
        E 96 80 43 00
        E 0 90 41 4c
        E 96 80 41 00
        E 0 90 40 4c
        E 288 b0 0b 44
        E 64 b0 0b 3b
        E 64 b0 0b 33
        E 64 b0 0b 2a
        E 64 b0 0b 22
        E 32 b0 0b 4c
        E 0 80 40 00
        E 0 90 3c 4c
        E 192 80 3c 00
        E 0 90 39 4c
        E 96 80 39 00
        E 0 90 37 4c
        E 144 b0 0b 44
        E 48 b0 0b 4c
        E 0 80 37 00
        E 0 90 3e 4c
        E 288 80 3e 00
        E 0 90 3f 4c
        E 96 80 3f 00
        E 0 90 3e 4c
        E 96 80 3e 00
        E 0 90 3f 4c
        E 96 80 3f 00
        E 0 90 3e 4c
        E 96 80 3e 00
        E 0 90 3c 4c
        E 96 80 3c 00
        E 0 90 3e 4c
        E 96 80 3e 00
        E 0 90 3c 4c
        E 96 80 3c 00
        E 0 90 39 4c
        E 96 80 39 00
        E 0 90 3c 4c
        E 96 80 3c 00
        E 0 90 3e 4c
        E 96 80 3e 00
        E 0 90 45 4c
        E 192 80 45 00
        E 0 90 41 4c
        E 96 b0 0b 44
        E 64 b0 0b 3b
        E 64 b0 0b 33
        E 64 b0 0b 2a
        E 64 b0 0b 22
        E 32 b0 0b 4c
        E 144 b0 0b 44
        E 64 b0 0b 3b
        E 64 b0 0b 33
        E 16 b0 0b 4c
        E 0 80 41 00
        E 0 90 3e 4c
        E 192 b0 0b 44
        E 64 b0 0b 3b
        E 32 b0 0b 4c
        E 0 80 3e 00
        E 0 90 45 4c
        E 192 80 45 00
        E 0 90 46 4c
        E 96 80 46 00
        E 0 90 45 4c
        E 192 80 45 00
        E 0 90 41 4c
        E 336 b0 0b 44
        E 48 b0 0b 4c
        E 0 80 41 00
        E 0 90 3e 4c
        E 192 80 3e 00
        E 0 90 41 4c
        E 288 80 41 00
        E 0 90 39 4c
        E 96 80 39 00
        E 0 90 3c 4c
        E 192 80 3c 00
        E 0 90 41 4c
        E 96 80 41 00
        E 0 90 40 4c
        E 192 80 40 00
        E 0 90 38 4c
        E 96 80 38 00
        E 0 90 3b 4c
        E 192 80 3b 00
        E 0 90 40 4c
        E 96 80 40 00
        E 0 90 3f 4c
        E 192 80 3f 00
        E 0 90 37 4c
        E 96 80 37 00
        E 0 90 3a 4c
        E 192 80 3a 00
        E 0 90 3f 4c
        E 96 80 3f 00
        E 0 90 3e 4c
        E 96 80 3e 00
        E 0 90 3f 4c
        E 96 80 3f 00
        E 0 90 3e 4c
        E 96 80 3e 00
        E 0 90 3c 4c
        E 192 80 3c 00
        E 0 90 3a 4c
        E 96 80 3a 00
        E 0 90 39 4c
        E 192 80 39 00
        E 0 90 35 4c
        E 96 b0 0b 44
        E 64 b0 0b 3b
        E 64 b0 0b 33
        E 64 b0 0b 2a
        E 64 b0 0b 22
        E 32 b0 0b 4c
        E 192 80 35 00
        E 0 90 3a 4c
        E 96 80 3a 00
        E 0 90 3e 4c
        E 144 b0 0b 44
        E 48 b0 0b 4c
        E 0 80 3e 00
        E 0 90 41 4c
        E 288 80 41 00
        E 0 90 43 4c
        E 96 80 43 00
        E 0 90 41 4c
        E 96 80 41 00
        E 0 90 43 4c
        E 96 80 43 00
        E 0 90 41 4c
        E 96 80 41 00
        E 0 90 43 4c
        E 96 80 43 00
        E 0 90 41 4c
        E 96 80 41 00
        E 0 90 43 4c
        E 96 80 43 00
        E 0 90 41 4c
        E 96 80 41 00
        E 0 90 43 4c
        E 96 80 43 00
        E 0 90 41 4c
        E 96 80 41 00
        E 0 90 40 4c
        E 192 80 40 00
        E 0 90 3c 4c
        E 96 b0 0b 44
        E 64 b0 0b 3b
        E 64 b0 0b 33
        E 64 b0 0b 2a
        E 64 b0 0b 22
        E 32 b0 0b 4c
        E 192 80 3c 00
        E 0 90 39 4c
        E 96 80 39 00
        E 0 90 37 4c
        E 144 b0 0b 44
        E 48 b0 0b 4c
        E 0 80 37 00
        E 0 90 3e 4c
        E 288 80 3e 00
        E 0 90 3f 4c
        E 96 80 3f 00
        E 0 90 3e 4c
        E 96 80 3e 00
        E 0 90 3f 4c
        E 96 80 3f 00
        E 0 90 3e 4c
        E 96 80 3e 00
        E 0 90 3c 4c
        E 96 80 3c 00
        E 0 90 3e 4c
        E 96 80 3e 00
        E 0 90 3c 4c
        E 96 80 3c 00
        E 0 90 39 4c
        E 96 80 39 00
        E 0 90 3c 4c
        E 96 80 3c 00
        E 0 90 3e 4c
        E 96 80 3e 00
        E 0 90 45 4c
        E 192 80 45 00
        E 0 90 41 4c
        E 96 b0 0b 44
        E 64 b0 0b 3b
        E 64 b0 0b 33
        E 64 b0 0b 2a
        E 64 b0 0b 22
        E 32 b0 0b 4c
        E 144 b0 0b 44
        E 64 b0 0b 3b
        E 64 b0 0b 33
        E 16 b0 0b 4c
        E 0 80 41 00
        E 0 90 3e 4c
        E 192 b0 0b 44
        E 64 b0 0b 3b
        E 32 b0 0b 4c
        E 0 80 3e 00
        E 0 90 45 4c
        E 192 80 45 00
        E 0 90 46 4c
        E 96 80 46 00
        E 0 90 45 4c
        E 192 80 45 00
        E 0 90 41 4c
        E 336 b0 0b 44
        E 48 b0 0b 4c
        E 0 80 41 00
        E 0 90 3e 4c
        E 192 b0 0b 44
        E 64 b0 0b 3b
        E 32 b0 0b 4c
        E 0 80 3e 00
        E 0 90 41 4c
        E 192 b0 0b 44
        E 64 b0 0b 3b
        E 32 b0 0b 4c
        E 192 b0 0b 44
        E 64 b0 0b 3b
        E 32 b0 0b 4c
        E 0 80 41 00
        E 0 90 45 4c
        E 192 b0 0b 44
        E 64 b0 0b 3b
        E 32 b0 0b 4c
        E 192 b0 0b 44
        E 64 b0 0b 3b
        E 32 b0 0b 4c
        E 0 80 45 00
        E 0 90 48 4c
        E 192 b0 0b 44
        E 64 b0 0b 3b
        E 32 b0 0b 4c
        E 192 b0 0b 44
        E 64 b0 0b 3b
        E 32 b0 0b 4c
        E 0 80 48 00
        E 0 90 47 4c
        E 192 b0 0b 44
        E 64 b0 0b 3b
        E 32 b0 0b 4c
        E 192 80 47 00
        E 0 90 46 4c
        E 240 b0 0b 44
        E 64 b0 0b 3b
        E 64 b0 0b 33
        E 64 b0 0b 2a
        E 64 b0 0b 22
        E 64 b0 0b 19
        E 64 b0 0b 11
        E 48 b0 0b 4c
        E 0 80 46 00
        E 0 90 3c 4c
        E 768 80 3c 00
        E 0 90 46 4c
        E 144 b0 0b 44
        E 64 b0 0b 3b
        E 64 b0 0b 33
        E 16 b0 0b 4c
        E 0 80 46 00
        E 0 90 45 4c
        E 96 80 45 00
        E 0 90 43 4c
        E 192 80 43 00
        E 0 90 45 4c
        E 96 b0 0b 44
        E 64 b0 0b 3b
        E 64 b0 0b 33
        E 64 b0 0b 2a
        E 64 b0 0b 22
        E 32 b0 0b 4c
        E 192 b0 0b 44
        E 64 b0 0b 3b
        E 32 b0 0b 4c
        E 192 b0 0b 44
        E 64 b0 0b 3b
        E 32 b0 0b 4c
        E 0 80 45 00
        E 0 90 46 4c
        E 192 b0 0b 44
        E 64 b0 0b 3b
        E 32 b0 0b 4c
        E 192 b0 0b 44
        E 64 b0 0b 3b
        E 32 b0 0b 4c
        E 0 80 46 00
        E 0 90 48 4c
        E 192 b0 0b 44
        E 64 b0 0b 3b
        E 32 b0 0b 4c
        E 192 b0 0b 44
        E 64 b0 0b 3b
        E 32 b0 0b 4c
        E 0 80 48 00
        E 0 90 47 4c
        E 192 b0 0b 44
        E 64 b0 0b 3b
        E 32 b0 0b 4c
        E 192 80 47 00
        E 0 90 46 4c
        E 432 b0 0b 44
        E 64 b0 0b 3b
        E 64 b0 0b 33
        E 16 b0 0b 4c
        E 0 80 46 00
        E 0 90 45 4c
        E 288 80 45 00
        E 0 90 46 4c
        E 96 80 46 00
        E 0 90 45 4c
        E 80 80 45 00
        E 0 90 46 4c
        E 64 80 46 00
        E 0 90 45 4c
        E 80 80 45 00
        E 0 90 43 4c
        E 64 80 43 00
        E 0 90 45 4c
        E 240 b0 0b 44
        E 48 b0 0b 4c
        E 0 80 45 00
        E 0 90 41 4c
        E 144 b0 0b 44
        E 48 b0 0b 4c
        E 0 80 41 00
        E 0 90 43 4c
        E 384 80 43 00
        E 0 90 40 4c
        E 240 b0 0b 44
        E 48 b0 0b 4c
        E 0 80 40 00
        E 0 90 43 4c
        E 192 b0 0b 44
        E 64 b0 0b 3b
        E 32 b0 0b 4c
        E 0 80 43 00
        E 0 90 3c 4c
        E 192 b0 0b 44
        E 64 b0 0b 3b
        E 32 b0 0b 4c
        E 0 80 3c 00
        E 0 90 40 4c
        E 192 80 40 00
        E 0 90 43 4c
        E 96 b0 0b 44
        E 64 b0 0b 3b
        E 64 b0 0b 33
        E 64 b0 0b 4c
        E 0 80 43 00
        E 0 90 42 4c
        E 384 80 42 00
        E 0 90 3e 4c
        E 192 80 3e 00
        E 0 90 40 4c
        E 96 b0 0b 44
        E 64 b0 0b 3b
        E 64 b0 0b 33
        E 64 b0 0b 2a
        E 64 b0 0b 22
        E 64 b0 0b 19
        E 64 b0 0b 11
        E 64 b0 0b 08
        E 64 80 40 00
        E 256 b0 0b 4c
        E 0 90 3e 4c
        E 96 b0 0b 44
        E 64 b0 0b 3b
        E 64 b0 0b 33
        E 64 b0 0b 4c
        E 0 80 3e 00
        E 0 90 3a 4c
        E 96 80 3a 00
        E 0 90 39 4c
        E 240 b0 0b 44
        E 48 b0 0b 4c
        E 0 80 39 00
        E 0 90 3a 4c
        E 240 b0 0b 44
        E 48 b0 0b 4c
        E 0 80 3a 00
        E 0 90 39 4c
        E 192 b0 0b 44
        E 64 b0 0b 3b
        E 32 b0 0b 4c
        E 0 80 39 00
        E 0 90 3a 4c
        E 192 80 3a 00
        E 0 90 37 4c
        E 384 80 37 00
        E 0 90 39 4c
        E 144 b0 0b 44
        E 64 b0 0b 3b
        E 64 b0 0b 33
        E 16 b0 0b 4c
        E 0 80 39 00
        E 0 90 40 4c
        E 192 b0 0b 44
        E 64 b0 0b 3b
        E 32 b0 0b 4c
        E 0 80 40 00
        E 0 90 3c 4c
        E 192 b0 0b 44
        E 64 b0 0b 3b
        E 32 b0 0b 4c
        E 0 80 3c 00
        E 0 90 40 4c
        E 192 80 40 00
        E 0 90 43 4c
        E 192 b0 0b 44
        E 64 b0 0b 3b
        E 32 b0 0b 4c
        E 0 80 43 00
        E 0 90 42 4c
        E 384 80 42 00
        E 0 90 3e 4c
        E 192 80 3e 00
        E 0 90 40 4c
        E 96 b0 0b 44
        E 64 b0 0b 3b
        E 64 b0 0b 33
        E 64 b0 0b 2a
        E 64 b0 0b 22
        E 64 b0 0b 19
        E 64 b0 0b 11
        E 64 b0 0b 08
        E 64 80 40 00
        E 256 b0 0b 4c
        E 0 90 3e 4c
        E 144 b0 0b 44
        E 64 b0 0b 3b
        E 64 b0 0b 33
        E 16 b0 0b 4c
        E 0 80 3e 00
        E 0 90 3c 4c
        E 96 80 3c 00
        E 0 90 3a 4c
        E 240 b0 0b 44
        E 48 b0 0b 4c
        E 0 80 3a 00
        E 0 90 3c 4c
        E 192 b0 0b 44
        E 64 b0 0b 3b
        E 32 b0 0b 4c
        E 0 80 3c 00
        E 0 90 39 4c
        E 192 b0 0b 44
        E 64 b0 0b 3b
        E 32 b0 0b 4c
        E 0 80 39 00
        E 0 90 3a 4c
        E 240 b0 0b 44
        E 48 b0 0b 4c
        E 0 80 3a 00
        E 0 90 37 4c
        E 192 80 37 00
        E 0 90 39 4c
        E 96 80 39 00
        E 0 90 3a 4c
        E 192 b0 0b 44
        E 64 b0 0b 3b
        E 48 b0 0b 4c
        E 0 80 3a 00
        E 0 90 3e 4c
        E 288 b0 0b 44
        E 64 b0 0b 3b
        E 64 b0 0b 33
        E 64 b0 0b 2a
        E 64 b0 0b 22
        E 32 b0 0b 4c
        E 0 80 3e 00
        E 0 90 37 4c
        E 192 80 37 00
        E 0 90 3a 4c
        E 96 80 3a 00
        E 0 90 3e 4c
        E 144 b0 0b 44
        E 48 b0 0b 4c
        E 0 80 3e 00
        E 0 90 41 4c
        E 288 80 41 00
        E 0 90 43 4c
        E 96 80 43 00
        E 0 90 41 4c
        E 96 80 41 00
        E 0 90 43 4c
        E 96 80 43 00
        E 0 90 41 4c
        E 96 80 41 00
        E 0 90 43 4c
        E 96 80 43 00
        E 0 90 41 4c
        E 96 80 41 00
        E 0 90 43 4c
        E 96 80 43 00
        E 0 90 41 4c
        E 96 80 41 00
        E 0 90 43 4c
        E 96 80 43 00
        E 0 90 41 4c
        E 96 80 41 00
        E 0 90 40 4c
        E 288 b0 0b 44
        E 64 b0 0b 3b
        E 64 b0 0b 33
        E 64 b0 0b 2a
        E 64 b0 0b 22
        E 32 b0 0b 4c
        E 0 80 40 00
        E 0 90 3c 4c
        E 192 80 3c 00
        E 0 90 39 4c
        E 96 80 39 00
        E 0 90 37 4c
        E 144 b0 0b 44
        E 48 b0 0b 4c
        E 0 80 37 00
        E 0 90 3e 4c
        E 288 80 3e 00
        E 0 90 3f 4c
        E 96 80 3f 00
        E 0 90 3e 4c
        E 96 80 3e 00
        E 0 90 3f 4c
        E 96 80 3f 00
        E 0 90 3e 4c
        E 96 80 3e 00
        E 0 90 3c 4c
        E 96 80 3c 00
        E 0 90 3e 4c
        E 96 80 3e 00
        E 0 90 3c 4c
        E 96 80 3c 00
        E 0 90 39 4c
        E 96 80 39 00
        E 0 90 3c 4c
        E 96 80 3c 00
        E 0 90 3e 4c
        E 96 80 3e 00
        E 0 90 45 4c
        E 192 80 45 00
        E 0 90 41 4c
        E 96 b0 0b 44
        E 64 b0 0b 3b
        E 64 b0 0b 33
        E 64 b0 0b 2a
        E 64 b0 0b 22
        E 32 b0 0b 4c
        E 144 b0 0b 44
        E 64 b0 0b 3b
        E 64 b0 0b 33
        E 16 b0 0b 4c
        E 0 80 41 00
        E 0 90 3e 4c
        E 192 b0 0b 44
        E 64 b0 0b 3b
        E 32 b0 0b 4c
        E 0 80 3e 00
        E 0 90 45 4c
        E 192 80 45 00
        E 0 90 46 4c
        E 96 80 46 00
        E 0 90 45 4c
        E 192 80 45 00
        E 0 90 41 4c
        E 336 b0 0b 44
        E 48 b0 0b 4c
        E 0 80 41 00
        E 0 90 3e 4c
        E 192 80 3e 00
        E 0 90 41 4c
        E 288 80 41 00
        E 0 90 39 4c
        E 96 80 39 00
        E 0 90 3c 4c
        E 192 80 3c 00
        E 0 90 41 4c
        E 96 80 41 00
        E 0 90 40 4c
        E 192 80 40 00
        E 0 90 38 4c
        E 96 80 38 00
        E 0 90 3b 4c
        E 192 80 3b 00
        E 0 90 40 4c
        E 96 80 40 00
        E 0 90 3f 4c
        E 192 80 3f 00
        E 0 90 37 4c
        E 96 80 37 00
        E 0 90 3a 4c
        E 192 80 3a 00
        E 0 90 3f 4c
        E 64 80 3f 00
        E 0 b0 7b 00
        E 0 ff 2f 00
      >
    >
  >
  <TRACK {94DAB90B-0E75-430D-AA13-8E2730448D9A}
    NAME "NES - Pulse 2 [ch1]"
    PEAKCOL 10092441
    BEAT -1
    AUTOMODE 0
    PANLAWFLAGS 3
    VOLPAN 1 0 -1 -1 1
    MUTESOLO 0 0 0
    IPHASE 0
    PLAYOFFS 0 1
    ISBUS 0 0
    BUSCOMP 0 0 0 0 0
    SHOWINMIX 1 0.6667 0.5 1 0.5 0 0 0
    FIXEDLANES 9 0 0 0 0
    SEL 0
    REC 0 5088 1 0 0 0 0 0
    VU 2
    TRACKHEIGHT 0 0 0 0 0 0 0
    INQ 0 0 0 0.5 100 0 0 100
    NCHAN 2
    FX 1
    TRACKID {94DAB90B-0E75-430D-AA13-8E2730448D9A}
    PERF 0
    MIDIOUT -1
    MAINSEND 1 0
    <FXCHAIN
      WNDRECT 24 52 700 560
      SHOW 0
      LASTSEL 0
      DOCKED 0
      BYPASS 0 0 0
      <JS "ReapNES Studio/ReapNES_Console.jsfx" ""
        2 15 1 10 80 10 100 2 1 15 1 5 60 10 80 1 1 0 50 0 0 15 1 0 100 0 0 0.500000 0.500000 0.400000 0.300000 0.800000 1 1 0 0 0 0 - - - - - - - - - - - - - - - - - - - - - - - - - -
      >
      FLOATPOS 0 0 0 0
      FXID {095075DA-729F-43E1-9B5C-D2B20C78D8D8}
      WAK 0 0
    >
    <ITEM
      POSITION 0
      LENGTH 74.5723195
      LOOP 0
      ALLTAKES 0
      FADEIN 0 0 0 0 0 0 0
      FADEOUT 0 0 0 0 0 0 0
      MUTE 0 0
      SEL 0
      IGUID {0876D839-1161-4537-88DC-7E27899375FC}
      <SOURCE MIDI
        HASDATA 1 480 QN
        CCINTERP 32
        E 0 c1 51
        E 112 b1 0c 10
        E 0 b1 0b 4c
        E 0 91 20 4c
        E 48 b1 0c 20
        E 48 b1 0c 40
        E 80 b1 0b 44
        E 16 b1 0b 3b
        E 16 b1 0b 33
        E 16 b1 0b 22
        E 16 b1 0b 19
        E 16 b1 0b 11
        E 16 b1 0b 08
        E 16 b1 0c 10
        E 0 b1 0b 4c
        E 0 81 20 00
        E 0 91 23 4c
        E 48 b1 0c 20
        E 48 b1 0c 40
        E 80 b1 0b 44
        E 16 b1 0b 3b
        E 16 b1 0b 33
        E 16 b1 0b 22
        E 16 b1 0b 19
        E 16 b1 0b 11
        E 16 b1 0b 08
        E 16 b1 0c 10
        E 0 b1 0b 4c
        E 0 81 23 00
        E 0 91 26 4c
        E 48 b1 0c 20
        E 48 b1 0c 40
        E 80 b1 0b 44
        E 16 b1 0b 3b
        E 16 b1 0b 33
        E 16 b1 0b 22
        E 16 b1 0b 19
        E 16 b1 0b 11
        E 16 b1 0b 08
        E 16 b1 0c 10
        E 0 b1 0b 4c
        E 0 81 26 00
        E 0 91 20 4c
        E 48 b1 0c 20
        E 48 b1 0c 40
        E 80 b1 0b 44
        E 16 b1 0b 3b
        E 16 b1 0b 33
        E 16 b1 0b 22
        E 16 b1 0b 19
        E 16 b1 0b 11
        E 16 b1 0b 08
        E 16 b1 0c 10
        E 0 b1 0b 4c
        E 0 81 20 00
        E 0 91 21 4c
        E 48 b1 0c 20
        E 48 b1 0c 40
        E 80 b1 0b 44
        E 16 b1 0b 3b
        E 16 b1 0b 33
        E 16 b1 0b 22
        E 16 b1 0b 19
        E 16 b1 0b 11
        E 16 b1 0b 08
        E 16 b1 0c 10
        E 0 b1 0b 4c
        E 0 81 21 00
        E 0 91 23 4c
        E 48 b1 0c 20
        E 48 b1 0c 40
        E 80 b1 0b 44
        E 16 b1 0b 3b
        E 16 b1 0b 33
        E 16 b1 0b 22
        E 16 b1 0b 19
        E 16 b1 0b 11
        E 16 b1 0b 08
        E 16 b1 0c 10
        E 0 b1 0b 4c
        E 0 81 23 00
        E 0 91 24 4c
        E 48 b1 0c 20
        E 48 b1 0c 40
        E 80 b1 0b 44
        E 16 b1 0b 3b
        E 16 b1 0b 33
        E 16 b1 0b 22
        E 16 b1 0b 19
        E 16 b1 0b 11
        E 16 b1 0b 08
        E 16 b1 0c 10
        E 0 b1 0b 4c
        E 0 81 24 00
        E 0 91 28 4c
        E 48 b1 0c 20
        E 48 b1 0c 40
        E 80 b1 0b 44
        E 16 b1 0b 3b
        E 16 b1 0b 33
        E 16 b1 0b 22
        E 16 b1 0b 19
        E 16 b1 0b 11
        E 16 b1 0b 08
        E 16 b1 0c 10
        E 0 b1 0b 4c
        E 0 81 28 00
        E 0 91 26 4c
        E 48 b1 0c 20
        E 48 b1 0c 40
        E 80 b1 0b 44
        E 16 b1 0b 3b
        E 16 b1 0b 33
        E 16 b1 0b 22
        E 16 b1 0b 19
        E 16 b1 0b 11
        E 16 b1 0b 08
        E 16 b1 0c 10
        E 0 b1 0b 4c
        E 0 81 26 00
        E 0 91 21 4c
        E 48 b1 0c 20
        E 48 b1 0c 40
        E 80 b1 0b 44
        E 16 b1 0b 3b
        E 16 b1 0b 33
        E 16 b1 0b 22
        E 16 b1 0b 19
        E 16 b1 0b 11
        E 16 b1 0b 08
        E 16 b1 0c 10
        E 0 b1 0b 4c
        E 0 81 21 00
        E 0 91 26 4c
        E 48 b1 0c 20
        E 48 b1 0c 40
        E 80 b1 0b 44
        E 16 b1 0b 3b
        E 16 b1 0b 33
        E 16 b1 0b 22
        E 16 b1 0b 19
        E 16 b1 0b 11
        E 16 b1 0b 08
        E 16 b1 0c 10
        E 0 b1 0b 4c
        E 0 81 26 00
        E 0 91 20 4c
        E 48 b1 0c 20
        E 48 b1 0c 40
        E 80 b1 0b 44
        E 16 b1 0b 3b
        E 16 b1 0b 33
        E 16 b1 0b 22
        E 16 b1 0b 19
        E 16 b1 0b 11
        E 16 b1 0b 08
        E 16 b1 0c 10
        E 0 b1 0b 4c
        E 0 81 20 00
        E 0 91 1f 4c
        E 48 b1 0c 20
        E 48 b1 0c 40
        E 80 b1 0b 44
        E 16 b1 0b 3b
        E 16 b1 0b 33
        E 16 b1 0b 22
        E 16 b1 0b 19
        E 16 b1 0b 11
        E 16 b1 0b 08
        E 16 b1 0c 10
        E 0 b1 0b 4c
        E 0 81 1f 00
        E 0 91 21 4c
        E 48 b1 0c 20
        E 48 b1 0c 40
        E 80 b1 0b 44
        E 16 b1 0b 3b
        E 16 b1 0b 33
        E 16 b1 0b 22
        E 16 b1 0b 19
        E 16 b1 0b 11
        E 16 b1 0b 08
        E 16 b1 0c 10
        E 0 b1 0b 4c
        E 0 81 21 00
        E 0 91 22 4c
        E 48 b1 0c 20
        E 48 b1 0c 40
        E 80 b1 0b 44
        E 16 b1 0b 3b
        E 16 b1 0b 33
        E 16 b1 0b 22
        E 16 b1 0b 19
        E 16 b1 0b 11
        E 16 b1 0b 08
        E 16 b1 0c 10
        E 0 b1 0b 4c
        E 0 81 22 00
        E 0 91 23 4c
        E 48 b1 0c 20
        E 48 b1 0c 40
        E 80 b1 0b 44
        E 16 b1 0b 3b
        E 16 b1 0b 33
        E 16 b1 0b 22
        E 16 b1 0b 19
        E 16 b1 0b 11
        E 16 b1 0b 08
        E 16 b1 0c 10
        E 0 b1 0b 4c
        E 0 81 23 00
        E 0 91 24 4c
        E 48 b1 0c 20
        E 48 b1 0c 40
        E 80 b1 0b 44
        E 16 b1 0b 3b
        E 16 b1 0b 33
        E 16 b1 0b 22
        E 16 b1 0b 19
        E 16 b1 0b 11
        E 16 b1 0b 08
        E 16 b1 0c 10
        E 0 b1 0b 4c
        E 0 81 24 00
        E 0 91 22 4c
        E 48 b1 0c 20
        E 48 b1 0c 40
        E 80 b1 0b 44
        E 16 b1 0b 3b
        E 16 b1 0b 33
        E 16 b1 0b 22
        E 16 b1 0b 19
        E 16 b1 0b 11
        E 16 b1 0b 08
        E 16 b1 0c 10
        E 0 b1 0b 4c
        E 0 81 22 00
        E 0 91 21 4c
        E 48 b1 0c 20
        E 48 b1 0c 40
        E 80 b1 0b 44
        E 16 b1 0b 3b
        E 16 b1 0b 33
        E 16 b1 0b 22
        E 16 b1 0b 19
        E 16 b1 0b 11
        E 16 b1 0b 08
        E 16 b1 0c 10
        E 0 b1 0b 4c
        E 0 81 21 00
        E 0 91 1f 4c
        E 48 b1 0c 20
        E 48 b1 0c 40
        E 80 b1 0b 44
        E 16 b1 0b 3b
        E 16 b1 0b 33
        E 16 b1 0b 22
        E 16 b1 0b 19
        E 16 b1 0b 11
        E 16 b1 0b 08
        E 16 b1 0c 10
        E 0 b1 0b 4c
        E 0 81 1f 00
        E 0 91 1d 4c
        E 48 b1 0c 20
        E 48 b1 0c 40
        E 80 b1 0b 44
        E 16 b1 0b 3b
        E 16 b1 0b 33
        E 16 b1 0b 22
        E 16 b1 0b 19
        E 16 b1 0b 11
        E 16 b1 0b 08
        E 16 b1 0c 10
        E 0 b1 0b 4c
        E 0 81 1d 00
        E 0 91 24 4c
        E 48 b1 0c 20
        E 48 b1 0c 40
        E 80 b1 0b 44
        E 16 b1 0b 3b
        E 16 b1 0b 33
        E 16 b1 0b 22
        E 16 b1 0b 19
        E 16 b1 0b 11
        E 16 b1 0b 08
        E 16 b1 0c 10
        E 0 b1 0b 4c
        E 0 81 24 00
        E 0 91 1c 4c
        E 48 b1 0c 20
        E 48 b1 0c 40
        E 80 b1 0b 44
        E 16 b1 0b 3b
        E 16 b1 0b 33
        E 16 b1 0b 22
        E 16 b1 0b 19
        E 16 b1 0b 11
        E 16 b1 0b 08
        E 16 b1 0c 10
        E 0 b1 0b 4c
        E 0 81 1c 00
        E 0 91 23 4c
        E 48 b1 0c 20
        E 48 b1 0c 40
        E 80 b1 0b 44
        E 16 b1 0b 3b
        E 16 b1 0b 33
        E 16 b1 0b 22
        E 16 b1 0b 19
        E 16 b1 0b 11
        E 16 b1 0b 08
        E 16 b1 0c 10
        E 0 b1 0b 4c
        E 0 81 23 00
        E 0 91 1b 4c
        E 48 b1 0c 20
        E 48 b1 0c 40
        E 80 b1 0b 44
        E 16 b1 0b 3b
        E 16 b1 0b 33
        E 16 b1 0b 22
        E 16 b1 0b 19
        E 16 b1 0b 11
        E 16 b1 0b 08
        E 16 b1 0c 10
        E 0 b1 0b 4c
        E 0 81 1b 00
        E 0 91 22 4c
        E 48 b1 0c 20
        E 48 b1 0c 40
        E 80 b1 0b 44
        E 16 b1 0b 3b
        E 16 b1 0b 33
        E 16 b1 0b 22
        E 16 b1 0b 19
        E 16 b1 0b 11
        E 16 b1 0b 08
        E 16 b1 0c 10
        E 0 b1 0b 4c
        E 0 81 22 00
        E 0 91 26 4c
        E 48 b1 0c 20
        E 48 b1 0c 40
        E 80 b1 0b 44
        E 16 b1 0b 3b
        E 16 b1 0b 33
        E 16 b1 0b 22
        E 16 b1 0b 19
        E 16 b1 0b 11
        E 16 b1 0b 08
        E 16 b1 0c 10
        E 0 b1 0b 4c
        E 0 81 26 00
        E 0 91 20 4c
        E 48 b1 0c 20
        E 48 b1 0c 40
        E 80 b1 0b 44
        E 16 b1 0b 3b
        E 16 b1 0b 33
        E 16 b1 0b 22
        E 16 b1 0b 19
        E 16 b1 0b 11
        E 16 b1 0b 08
        E 16 b1 0c 10
        E 0 b1 0b 4c
        E 0 81 20 00
        E 0 91 1f 4c
        E 48 b1 0c 20
        E 48 b1 0c 40
        E 80 b1 0b 44
        E 16 b1 0b 3b
        E 16 b1 0b 33
        E 16 b1 0b 22
        E 16 b1 0b 19
        E 16 b1 0b 11
        E 16 b1 0b 08
        E 16 b1 0c 10
        E 0 b1 0b 4c
        E 0 81 1f 00
        E 0 91 22 4c
        E 48 b1 0c 20
        E 48 b1 0c 40
        E 80 b1 0b 44
        E 16 b1 0b 3b
        E 16 b1 0b 33
        E 16 b1 0b 22
        E 16 b1 0b 19
        E 16 b1 0b 11
        E 16 b1 0b 08
        E 16 b1 0c 10
        E 0 b1 0b 4c
        E 0 81 22 00
        E 0 91 26 4c
        E 48 b1 0c 20
        E 48 b1 0c 40
        E 80 b1 0b 44
        E 16 b1 0b 3b
        E 16 b1 0b 33
        E 16 b1 0b 22
        E 16 b1 0b 19
        E 16 b1 0b 11
        E 16 b1 0b 08
        E 16 b1 0c 10
        E 0 b1 0b 4c
        E 0 81 26 00
        E 0 91 29 4c
        E 48 b1 0c 20
        E 48 b1 0c 40
        E 80 b1 0b 44
        E 16 b1 0b 3b
        E 16 b1 0b 33
        E 16 b1 0b 22
        E 16 b1 0b 19
        E 16 b1 0b 11
        E 16 b1 0b 08
        E 16 b1 0c 10
        E 0 b1 0b 4c
        E 0 81 29 00
        E 0 91 2c 4c
        E 48 b1 0c 20
        E 48 b1 0c 40
        E 80 b1 0b 44
        E 16 b1 0b 3b
        E 16 b1 0b 33
        E 16 b1 0b 22
        E 16 b1 0b 19
        E 16 b1 0b 11
        E 16 b1 0b 08
        E 16 b1 0c 10
        E 0 b1 0b 4c
        E 0 81 2c 00
        E 0 91 23 4c
        E 48 b1 0c 20
        E 48 b1 0c 40
        E 80 b1 0b 44
        E 16 b1 0b 3b
        E 16 b1 0b 33
        E 16 b1 0b 22
        E 16 b1 0b 19
        E 16 b1 0b 11
        E 16 b1 0b 08
        E 16 b1 0c 10
        E 0 b1 0b 4c
        E 0 81 23 00
        E 0 91 26 4c
        E 48 b1 0c 20
        E 48 b1 0c 40
        E 80 b1 0b 44
        E 16 b1 0b 3b
        E 16 b1 0b 33
        E 16 b1 0b 22
        E 16 b1 0b 19
        E 16 b1 0b 11
        E 16 b1 0b 08
        E 16 b1 0c 10
        E 0 b1 0b 4c
        E 0 81 26 00
        E 0 91 2c 4c
        E 48 b1 0c 20
        E 48 b1 0c 40
        E 80 b1 0b 44
        E 16 b1 0b 3b
        E 16 b1 0b 33
        E 16 b1 0b 22
        E 16 b1 0b 19
        E 16 b1 0b 11
        E 16 b1 0b 08
        E 16 b1 0c 10
        E 0 b1 0b 4c
        E 0 81 2c 00
        E 0 91 2d 4c
        E 48 b1 0c 20
        E 48 b1 0c 40
        E 80 b1 0b 44
        E 16 b1 0b 3b
        E 16 b1 0b 33
        E 16 b1 0b 22
        E 16 b1 0b 19
        E 16 b1 0b 11
        E 16 b1 0b 08
        E 16 b1 0c 10
        E 0 b1 0b 4c
        E 0 81 2d 00
        E 0 91 2b 4c
        E 48 b1 0c 20
        E 48 b1 0c 40
        E 80 b1 0b 44
        E 16 b1 0b 3b
        E 16 b1 0b 33
        E 16 b1 0b 22
        E 16 b1 0b 19
        E 16 b1 0b 11
        E 16 b1 0b 08
        E 16 b1 0c 10
        E 0 b1 0b 4c
        E 0 81 2b 00
        E 0 91 28 4c
        E 48 b1 0c 20
        E 48 b1 0c 40
        E 80 b1 0b 44
        E 16 b1 0b 3b
        E 16 b1 0b 33
        E 16 b1 0b 22
        E 16 b1 0b 19
        E 16 b1 0b 11
        E 16 b1 0b 08
        E 16 b1 0c 10
        E 0 b1 0b 4c
        E 0 81 28 00
        E 0 91 24 4c
        E 48 b1 0c 20
        E 48 b1 0c 40
        E 80 b1 0b 44
        E 16 b1 0b 3b
        E 16 b1 0b 33
        E 16 b1 0b 22
        E 16 b1 0b 19
        E 16 b1 0b 11
        E 16 b1 0b 08
        E 16 b1 0c 10
        E 0 b1 0b 4c
        E 0 81 24 00
        E 0 91 26 4c
        E 48 b1 0c 20
        E 48 b1 0c 40
        E 80 b1 0b 44
        E 16 b1 0b 3b
        E 16 b1 0b 33
        E 16 b1 0b 22
        E 16 b1 0b 19
        E 16 b1 0b 11
        E 16 b1 0b 08
        E 16 b1 0c 10
        E 0 b1 0b 4c
        E 0 81 26 00
        E 0 91 21 4c
        E 48 b1 0c 20
        E 48 b1 0c 40
        E 80 b1 0b 44
        E 16 b1 0b 3b
        E 16 b1 0b 33
        E 16 b1 0b 22
        E 16 b1 0b 19
        E 16 b1 0b 11
        E 16 b1 0b 08
        E 16 b1 0c 10
        E 0 b1 0b 4c
        E 0 81 21 00
        E 0 91 26 4c
        E 48 b1 0c 20
        E 48 b1 0c 40
        E 80 b1 0b 44
        E 16 b1 0b 3b
        E 16 b1 0b 33
        E 16 b1 0b 22
        E 16 b1 0b 19
        E 16 b1 0b 11
        E 16 b1 0b 08
        E 16 b1 0c 10
        E 0 b1 0b 4c
        E 0 81 26 00
        E 0 91 20 4c
        E 48 b1 0c 20
        E 48 b1 0c 40
        E 80 b1 0b 44
        E 16 b1 0b 3b
        E 16 b1 0b 33
        E 16 b1 0b 22
        E 16 b1 0b 19
        E 16 b1 0b 11
        E 16 b1 0b 08
        E 16 b1 0c 10
        E 0 b1 0b 4c
        E 0 81 20 00
        E 0 91 1f 4c
        E 48 b1 0c 20
        E 48 b1 0c 40
        E 80 b1 0b 44
        E 16 b1 0b 3b
        E 16 b1 0b 33
        E 16 b1 0b 22
        E 16 b1 0b 19
        E 16 b1 0b 11
        E 16 b1 0b 08
        E 16 b1 0c 10
        E 0 b1 0b 4c
        E 0 81 1f 00
        E 0 91 21 4c
        E 48 b1 0c 20
        E 48 b1 0c 40
        E 80 b1 0b 44
        E 16 b1 0b 3b
        E 16 b1 0b 33
        E 16 b1 0b 22
        E 16 b1 0b 19
        E 16 b1 0b 11
        E 16 b1 0b 08
        E 16 b1 0c 10
        E 0 b1 0b 4c
        E 0 81 21 00
        E 0 91 22 4c
        E 48 b1 0c 20
        E 48 b1 0c 40
        E 80 b1 0b 44
        E 16 b1 0b 3b
        E 16 b1 0b 33
        E 16 b1 0b 22
        E 16 b1 0b 19
        E 16 b1 0b 11
        E 16 b1 0b 08
        E 16 b1 0c 10
        E 0 b1 0b 4c
        E 0 81 22 00
        E 0 91 23 4c
        E 48 b1 0c 20
        E 48 b1 0c 40
        E 80 b1 0b 44
        E 16 b1 0b 3b
        E 16 b1 0b 33
        E 16 b1 0b 22
        E 16 b1 0b 19
        E 16 b1 0b 11
        E 16 b1 0b 08
        E 16 b1 0c 10
        E 0 b1 0b 4c
        E 0 81 23 00
        E 0 91 24 4c
        E 48 b1 0c 20
        E 48 b1 0c 40
        E 80 b1 0b 44
        E 16 b1 0b 3b
        E 16 b1 0b 33
        E 16 b1 0b 22
        E 16 b1 0b 19
        E 16 b1 0b 11
        E 16 b1 0b 08
        E 16 b1 0c 10
        E 0 b1 0b 4c
        E 0 81 24 00
        E 0 91 22 4c
        E 48 b1 0c 20
        E 48 b1 0c 40
        E 80 b1 0b 44
        E 16 b1 0b 3b
        E 16 b1 0b 33
        E 16 b1 0b 22
        E 16 b1 0b 19
        E 16 b1 0b 11
        E 16 b1 0b 08
        E 16 b1 0c 10
        E 0 b1 0b 4c
        E 0 81 22 00
        E 0 91 21 4c
        E 48 b1 0c 20
        E 48 b1 0c 40
        E 80 b1 0b 44
        E 16 b1 0b 3b
        E 16 b1 0b 33
        E 16 b1 0b 22
        E 16 b1 0b 19
        E 16 b1 0b 11
        E 16 b1 0b 08
        E 16 b1 0c 10
        E 0 b1 0b 4c
        E 0 81 21 00
        E 0 91 1f 4c
        E 48 b1 0c 20
        E 48 b1 0c 40
        E 80 b1 0b 44
        E 16 b1 0b 3b
        E 16 b1 0b 33
        E 16 b1 0b 22
        E 16 b1 0b 19
        E 16 b1 0b 11
        E 16 b1 0b 08
        E 16 b1 0c 10
        E 0 b1 0b 4c
        E 0 81 1f 00
        E 0 91 1d 4c
        E 48 b1 0c 20
        E 48 b1 0c 40
        E 48 b1 0b 44
        E 16 b1 0b 3b
        E 16 b1 0b 33
        E 16 b1 0b 22
        E 16 b1 0b 19
        E 16 b1 0b 11
        E 16 b1 0b 08
        E 16 81 1d 00
        E 32 b1 0c 10
        E 0 b1 0b 4c
        E 0 91 1d 4c
        E 48 b1 0c 20
        E 48 b1 0c 40
        E 48 b1 0b 44
        E 16 b1 0b 3b
        E 16 b1 0b 33
        E 16 b1 0b 22
        E 16 b1 0b 19
        E 16 b1 0b 11
        E 16 b1 0b 08
        E 16 81 1d 00
        E 32 b1 0c 10
        E 0 b1 0b 4c
        E 0 91 1f 4c
        E 48 b1 0c 20
        E 48 b1 0c 40
        E 48 b1 0b 44
        E 16 b1 0b 3b
        E 16 b1 0b 33
        E 16 b1 0b 22
        E 16 b1 0b 19
        E 16 b1 0b 11
        E 16 b1 0b 08
        E 16 81 1f 00
        E 32 b1 0c 10
        E 0 b1 0b 4c
        E 0 91 1f 4c
        E 48 b1 0c 20
        E 48 b1 0c 40
        E 48 b1 0b 44
        E 16 b1 0b 3b
        E 16 b1 0b 33
        E 16 b1 0b 22
        E 16 b1 0b 19
        E 16 b1 0b 11
        E 16 b1 0b 08
        E 16 81 1f 00
        E 32 b1 0c 10
        E 0 b1 0b 4c
        E 0 91 21 4c
        E 48 b1 0c 20
        E 48 b1 0c 40
        E 48 b1 0b 44
        E 16 b1 0b 3b
        E 16 b1 0b 33
        E 16 b1 0b 22
        E 16 b1 0b 19
        E 16 b1 0b 11
        E 16 b1 0b 08
        E 16 81 21 00
        E 32 b1 0c 10
        E 0 b1 0b 4c
        E 0 91 21 4c
        E 48 b1 0c 20
        E 48 b1 0c 40
        E 48 b1 0b 44
        E 16 b1 0b 3b
        E 16 b1 0b 33
        E 16 b1 0b 22
        E 16 b1 0b 19
        E 16 b1 0b 11
        E 16 b1 0b 08
        E 16 81 21 00
        E 32 b1 0c 10
        E 0 b1 0b 4c
        E 0 91 20 4c
        E 48 b1 0c 20
        E 48 b1 0c 40
        E 48 b1 0b 44
        E 16 b1 0b 3b
        E 16 b1 0b 33
        E 16 b1 0b 22
        E 16 b1 0b 19
        E 16 b1 0b 11
        E 16 b1 0b 08
        E 16 81 20 00
        E 32 b1 0c 10
        E 0 b1 0b 4c
        E 0 91 20 4c
        E 48 b1 0c 20
        E 48 b1 0c 40
        E 48 b1 0b 44
        E 16 b1 0b 3b
        E 16 b1 0b 33
        E 16 b1 0b 22
        E 16 b1 0b 19
        E 16 b1 0b 11
        E 16 b1 0b 08
        E 16 81 20 00
        E 32 b1 0c 10
        E 0 b1 0b 4c
        E 0 91 1f 4c
        E 48 b1 0c 20
        E 48 b1 0c 40
        E 80 b1 0b 44
        E 16 b1 0b 3b
        E 16 b1 0b 33
        E 16 b1 0b 22
        E 16 b1 0b 19
        E 16 b1 0b 11
        E 16 b1 0b 08
        E 16 b1 0c 10
        E 0 b1 0b 4c
        E 0 81 1f 00
        E 0 91 21 4c
        E 48 b1 0c 20
        E 48 b1 0c 40
        E 80 b1 0b 44
        E 16 b1 0b 3b
        E 16 b1 0b 33
        E 16 b1 0b 22
        E 16 b1 0b 19
        E 16 b1 0b 11
        E 16 b1 0b 08
        E 16 b1 0c 10
        E 0 b1 0b 4c
        E 0 81 21 00
        E 0 91 22 4c
        E 48 b1 0c 20
        E 48 b1 0c 40
        E 80 b1 0b 44
        E 16 b1 0b 3b
        E 16 b1 0b 33
        E 16 b1 0b 22
        E 16 b1 0b 19
        E 16 b1 0b 11
        E 16 b1 0b 08
        E 16 b1 0c 10
        E 0 b1 0b 4c
        E 0 81 22 00
        E 0 91 23 4c
        E 48 b1 0c 20
        E 48 b1 0c 40
        E 80 b1 0b 44
        E 16 b1 0b 3b
        E 16 b1 0b 33
        E 16 b1 0b 22
        E 16 b1 0b 19
        E 16 b1 0b 11
        E 16 b1 0b 08
        E 16 b1 0c 10
        E 0 b1 0b 4c
        E 0 81 23 00
        E 0 91 24 4c
        E 48 b1 0c 20
        E 48 b1 0c 40
        E 80 b1 0b 44
        E 16 b1 0b 3b
        E 16 b1 0b 33
        E 16 b1 0b 22
        E 16 b1 0b 19
        E 16 b1 0b 11
        E 16 b1 0b 08
        E 16 b1 0c 10
        E 0 b1 0b 4c
        E 0 81 24 00
        E 0 91 22 4c
        E 48 b1 0c 20
        E 48 b1 0c 40
        E 80 b1 0b 44
        E 16 b1 0b 3b
        E 16 b1 0b 33
        E 16 b1 0b 22
        E 16 b1 0b 19
        E 16 b1 0b 11
        E 16 b1 0b 08
        E 16 b1 0c 10
        E 0 b1 0b 4c
        E 0 81 22 00
        E 0 91 21 4c
        E 48 b1 0c 20
        E 48 b1 0c 40
        E 80 b1 0b 44
        E 16 b1 0b 3b
        E 16 b1 0b 33
        E 16 b1 0b 22
        E 16 b1 0b 19
        E 16 b1 0b 11
        E 16 b1 0b 08
        E 16 b1 0c 10
        E 0 b1 0b 4c
        E 0 81 21 00
        E 0 91 1f 4c
        E 48 b1 0c 20
        E 48 b1 0c 40
        E 80 b1 0b 44
        E 16 b1 0b 3b
        E 16 b1 0b 33
        E 16 b1 0b 22
        E 16 b1 0b 19
        E 16 b1 0b 11
        E 16 b1 0b 08
        E 16 b1 0c 10
        E 0 b1 0b 4c
        E 0 81 1f 00
        E 0 91 1d 4c
        E 48 b1 0c 20
        E 48 b1 0c 40
        E 48 b1 0b 44
        E 16 b1 0b 3b
        E 16 b1 0b 33
        E 16 b1 0b 22
        E 16 b1 0b 19
        E 16 b1 0b 11
        E 16 b1 0b 08
        E 16 81 1d 00
        E 32 b1 0c 10
        E 0 b1 0b 4c
        E 0 91 1d 4c
        E 48 b1 0c 20
        E 48 b1 0c 40
        E 48 b1 0b 44
        E 16 b1 0b 3b
        E 16 b1 0b 33
        E 16 b1 0b 22
        E 16 b1 0b 19
        E 16 b1 0b 11
        E 16 b1 0b 08
        E 16 81 1d 00
        E 32 b1 0c 10
        E 0 b1 0b 4c
        E 0 91 1f 4c
        E 48 b1 0c 20
        E 48 b1 0c 40
        E 48 b1 0b 44
        E 16 b1 0b 3b
        E 16 b1 0b 33
        E 16 b1 0b 22
        E 16 b1 0b 19
        E 16 b1 0b 11
        E 16 b1 0b 08
        E 16 81 1f 00
        E 32 b1 0c 10
        E 0 b1 0b 4c
        E 0 91 1f 4c
        E 48 b1 0c 20
        E 48 b1 0c 40
        E 48 b1 0b 44
        E 16 b1 0b 3b
        E 16 b1 0b 33
        E 16 b1 0b 22
        E 16 b1 0b 19
        E 16 b1 0b 11
        E 16 b1 0b 08
        E 16 81 1f 00
        E 32 b1 0c 10
        E 0 b1 0b 4c
        E 0 91 21 4c
        E 48 b1 0c 20
        E 48 b1 0c 40
        E 48 b1 0b 44
        E 16 b1 0b 3b
        E 16 b1 0b 33
        E 16 b1 0b 22
        E 16 b1 0b 19
        E 16 b1 0b 11
        E 16 b1 0b 08
        E 16 81 21 00
        E 32 b1 0c 10
        E 0 b1 0b 4c
        E 0 91 21 4c
        E 48 b1 0c 20
        E 48 b1 0c 40
        E 48 b1 0b 44
        E 16 b1 0b 3b
        E 16 b1 0b 33
        E 16 b1 0b 22
        E 16 b1 0b 19
        E 16 b1 0b 11
        E 16 b1 0b 08
        E 16 81 21 00
        E 32 b1 0c 10
        E 0 b1 0b 4c
        E 0 91 20 4c
        E 48 b1 0c 20
        E 48 b1 0c 40
        E 48 b1 0b 44
        E 16 b1 0b 3b
        E 16 b1 0b 33
        E 16 b1 0b 22
        E 16 b1 0b 19
        E 16 b1 0b 11
        E 16 b1 0b 08
        E 16 81 20 00
        E 32 b1 0c 10
        E 0 b1 0b 4c
        E 0 91 20 4c
        E 48 b1 0c 20
        E 48 b1 0c 40
        E 48 b1 0b 44
        E 16 b1 0b 3b
        E 16 b1 0b 33
        E 16 b1 0b 22
        E 16 b1 0b 19
        E 16 b1 0b 11
        E 16 b1 0b 08
        E 16 81 20 00
        E 32 b1 0c 10
        E 0 b1 0b 4c
        E 0 91 1f 4c
        E 48 b1 0c 20
        E 48 b1 0c 40
        E 80 b1 0b 44
        E 16 b1 0b 3b
        E 16 b1 0b 33
        E 16 b1 0b 22
        E 16 b1 0b 19
        E 16 b1 0b 11
        E 16 b1 0b 08
        E 16 b1 0c 10
        E 0 b1 0b 4c
        E 0 81 1f 00
        E 0 91 21 4c
        E 48 b1 0c 20
        E 48 b1 0c 40
        E 80 b1 0b 44
        E 16 b1 0b 3b
        E 16 b1 0b 33
        E 16 b1 0b 22
        E 16 b1 0b 19
        E 16 b1 0b 11
        E 16 b1 0b 08
        E 16 b1 0c 10
        E 0 b1 0b 4c
        E 0 81 21 00
        E 0 91 22 4c
        E 48 b1 0c 20
        E 48 b1 0c 40
        E 80 b1 0b 44
        E 16 b1 0b 3b
        E 16 b1 0b 33
        E 16 b1 0b 22
        E 16 b1 0b 19
        E 16 b1 0b 11
        E 16 b1 0b 08
        E 16 b1 0c 10
        E 0 b1 0b 4c
        E 0 81 22 00
        E 0 91 23 4c
        E 48 b1 0c 20
        E 48 b1 0c 40
        E 80 b1 0b 44
        E 16 b1 0b 3b
        E 16 b1 0b 33
        E 16 b1 0b 22
        E 16 b1 0b 19
        E 16 b1 0b 11
        E 16 b1 0b 08
        E 16 b1 0c 10
        E 0 b1 0b 4c
        E 0 81 23 00
        E 0 91 24 4c
        E 48 b1 0c 20
        E 48 b1 0c 40
        E 80 b1 0b 44
        E 16 b1 0b 3b
        E 16 b1 0b 33
        E 16 b1 0b 22
        E 16 b1 0b 19
        E 16 b1 0b 11
        E 16 b1 0b 08
        E 16 b1 0c 10
        E 0 b1 0b 4c
        E 0 81 24 00
        E 0 91 23 4c
        E 48 b1 0c 20
        E 48 b1 0c 40
        E 80 b1 0b 44
        E 16 b1 0b 3b
        E 16 b1 0b 33
        E 16 b1 0b 22
        E 16 b1 0b 19
        E 16 b1 0b 11
        E 16 b1 0b 08
        E 16 b1 0c 10
        E 0 b1 0b 4c
        E 0 81 23 00
        E 0 91 22 4c
        E 48 b1 0c 20
        E 48 b1 0c 40
        E 80 b1 0b 44
        E 16 b1 0b 3b
        E 16 b1 0b 33
        E 16 b1 0b 22
        E 16 b1 0b 19
        E 16 b1 0b 11
        E 16 b1 0b 08
        E 16 b1 0c 10
        E 0 b1 0b 4c
        E 0 81 22 00
        E 0 91 20 4c
        E 48 b1 0c 20
        E 48 b1 0c 40
        E 80 b1 0b 44
        E 16 b1 0b 3b
        E 16 b1 0b 33
        E 16 b1 0b 22
        E 16 b1 0b 19
        E 16 b1 0b 11
        E 16 b1 0b 08
        E 16 b1 0c 10
        E 0 b1 0b 4c
        E 0 81 20 00
        E 0 91 21 4c
        E 48 b1 0c 20
        E 48 b1 0c 40
        E 80 b1 0b 44
        E 16 b1 0b 3b
        E 16 b1 0b 33
        E 16 b1 0b 22
        E 16 b1 0b 19
        E 16 b1 0b 11
        E 16 b1 0b 08
        E 16 b1 0c 10
        E 0 b1 0b 4c
        E 0 81 21 00
        E 0 91 24 4c
        E 48 b1 0c 20
        E 48 b1 0c 40
        E 80 b1 0b 44
        E 16 b1 0b 3b
        E 16 b1 0b 33
        E 16 b1 0b 22
        E 16 b1 0b 19
        E 16 b1 0b 11
        E 16 b1 0b 08
        E 16 b1 0c 10
        E 0 b1 0b 4c
        E 0 81 24 00
        E 0 91 28 4c
        E 48 b1 0c 20
        E 48 b1 0c 40
        E 80 b1 0b 44
        E 16 b1 0b 3b
        E 16 b1 0b 33
        E 16 b1 0b 22
        E 16 b1 0b 19
        E 16 b1 0b 11
        E 16 b1 0b 08
        E 16 b1 0c 10
        E 0 b1 0b 4c
        E 0 81 28 00
        E 0 91 24 4c
        E 48 b1 0c 20
        E 48 b1 0c 40
        E 80 b1 0b 44
        E 16 b1 0b 3b
        E 16 b1 0b 33
        E 16 b1 0b 22
        E 16 b1 0b 19
        E 16 b1 0b 11
        E 16 b1 0b 08
        E 16 b1 0c 10
        E 0 b1 0b 4c
        E 0 81 24 00
        E 0 91 26 4c
        E 48 b1 0c 20
        E 48 b1 0c 40
        E 80 b1 0b 44
        E 16 b1 0b 3b
        E 16 b1 0b 33
        E 16 b1 0b 22
        E 16 b1 0b 19
        E 16 b1 0b 11
        E 16 b1 0b 08
        E 16 b1 0c 10
        E 0 b1 0b 4c
        E 0 81 26 00
        E 0 91 24 4c
        E 48 b1 0c 20
        E 48 b1 0c 40
        E 80 b1 0b 44
        E 16 b1 0b 3b
        E 16 b1 0b 33
        E 16 b1 0b 22
        E 16 b1 0b 19
        E 16 b1 0b 11
        E 16 b1 0b 08
        E 16 b1 0c 10
        E 0 b1 0b 4c
        E 0 81 24 00
        E 0 91 22 4c
        E 48 b1 0c 20
        E 48 b1 0c 40
        E 80 b1 0b 44
        E 16 b1 0b 3b
        E 16 b1 0b 33
        E 16 b1 0b 22
        E 16 b1 0b 19
        E 16 b1 0b 11
        E 16 b1 0b 08
        E 16 b1 0c 10
        E 0 b1 0b 4c
        E 0 81 22 00
        E 0 91 21 4c
        E 48 b1 0c 20
        E 48 b1 0c 40
        E 80 b1 0b 44
        E 16 b1 0b 3b
        E 16 b1 0b 33
        E 16 b1 0b 22
        E 16 b1 0b 19
        E 16 b1 0b 11
        E 16 b1 0b 08
        E 16 b1 0c 10
        E 0 b1 0b 4c
        E 0 81 21 00
        E 0 91 1f 4c
        E 48 b1 0c 20
        E 48 b1 0c 40
        E 80 b1 0b 44
        E 16 b1 0b 3b
        E 16 b1 0b 33
        E 16 b1 0b 22
        E 16 b1 0b 19
        E 16 b1 0b 11
        E 16 b1 0b 08
        E 16 b1 0c 10
        E 0 b1 0b 4c
        E 0 81 1f 00
        E 0 91 22 4c
        E 48 b1 0c 20
        E 48 b1 0c 40
        E 80 b1 0b 44
        E 16 b1 0b 3b
        E 16 b1 0b 33
        E 16 b1 0b 22
        E 16 b1 0b 19
        E 16 b1 0b 11
        E 16 b1 0b 08
        E 16 b1 0c 10
        E 0 b1 0b 4c
        E 0 81 22 00
        E 0 91 26 4c
        E 48 b1 0c 20
        E 48 b1 0c 40
        E 80 b1 0b 44
        E 16 b1 0b 3b
        E 16 b1 0b 33
        E 16 b1 0b 22
        E 16 b1 0b 19
        E 16 b1 0b 11
        E 16 b1 0b 08
        E 16 b1 0c 10
        E 0 b1 0b 4c
        E 0 81 26 00
        E 0 91 29 4c
        E 48 b1 0c 20
        E 48 b1 0c 40
        E 80 b1 0b 44
        E 16 b1 0b 3b
        E 16 b1 0b 33
        E 16 b1 0b 22
        E 16 b1 0b 19
        E 16 b1 0b 11
        E 16 b1 0b 08
        E 16 b1 0c 10
        E 0 b1 0b 4c
        E 0 81 29 00
        E 0 91 24 4c
        E 48 b1 0c 20
        E 48 b1 0c 40
        E 80 b1 0b 44
        E 16 b1 0b 3b
        E 16 b1 0b 33
        E 16 b1 0b 22
        E 16 b1 0b 19
        E 16 b1 0b 11
        E 16 b1 0b 08
        E 16 b1 0c 10
        E 0 b1 0b 4c
        E 0 81 24 00
        E 0 91 28 4c
        E 48 b1 0c 20
        E 48 b1 0c 40
        E 80 b1 0b 44
        E 16 b1 0b 3b
        E 16 b1 0b 33
        E 16 b1 0b 22
        E 16 b1 0b 19
        E 16 b1 0b 11
        E 16 b1 0b 08
        E 16 b1 0c 10
        E 0 b1 0b 4c
        E 0 81 28 00
        E 0 91 2b 4c
        E 48 b1 0c 20
        E 48 b1 0c 40
        E 80 b1 0b 44
        E 16 b1 0b 3b
        E 16 b1 0b 33
        E 16 b1 0b 22
        E 16 b1 0b 19
        E 16 b1 0b 11
        E 16 b1 0b 08
        E 16 b1 0c 10
        E 0 b1 0b 4c
        E 0 81 2b 00
        E 0 91 2c 4c
        E 48 b1 0c 20
        E 48 b1 0c 40
        E 80 b1 0b 44
        E 16 b1 0b 3b
        E 16 b1 0b 33
        E 16 b1 0b 22
        E 16 b1 0b 19
        E 16 b1 0b 11
        E 16 b1 0b 08
        E 16 b1 0c 10
        E 0 b1 0b 4c
        E 0 81 2c 00
        E 0 91 2d 4c
        E 48 b1 0c 20
        E 48 b1 0c 40
        E 80 b1 0b 44
        E 16 b1 0b 3b
        E 16 b1 0b 33
        E 16 b1 0b 22
        E 16 b1 0b 19
        E 16 b1 0b 11
        E 16 b1 0b 08
        E 16 b1 0c 10
        E 0 b1 0b 4c
        E 0 81 2d 00
        E 0 91 28 4c
        E 48 b1 0c 20
        E 48 b1 0c 40
        E 80 b1 0b 44
        E 16 b1 0b 3b
        E 16 b1 0b 33
        E 16 b1 0b 22
        E 16 b1 0b 19
        E 16 b1 0b 11
        E 16 b1 0b 08
        E 16 b1 0c 10
        E 0 b1 0b 4c
        E 0 81 28 00
        E 0 91 24 4c
        E 48 b1 0c 20
        E 48 b1 0c 40
        E 80 b1 0b 44
        E 16 b1 0b 3b
        E 16 b1 0b 33
        E 16 b1 0b 22
        E 16 b1 0b 19
        E 16 b1 0b 11
        E 16 b1 0b 08
        E 16 b1 0c 10
        E 0 b1 0b 4c
        E 0 81 24 00
        E 0 91 21 4c
        E 48 b1 0c 20
        E 48 b1 0c 40
        E 80 b1 0b 44
        E 16 b1 0b 3b
        E 16 b1 0b 33
        E 16 b1 0b 22
        E 16 b1 0b 19
        E 16 b1 0b 11
        E 16 b1 0b 08
        E 16 b1 0c 10
        E 0 b1 0b 4c
        E 0 81 21 00
        E 0 91 26 4c
        E 48 b1 0c 20
        E 48 b1 0c 40
        E 80 b1 0b 44
        E 16 b1 0b 3b
        E 16 b1 0b 33
        E 16 b1 0b 22
        E 16 b1 0b 19
        E 16 b1 0b 11
        E 16 b1 0b 08
        E 16 b1 0c 10
        E 0 b1 0b 4c
        E 0 81 26 00
        E 0 91 24 4c
        E 48 b1 0c 20
        E 48 b1 0c 40
        E 80 b1 0b 44
        E 16 b1 0b 3b
        E 16 b1 0b 33
        E 16 b1 0b 22
        E 16 b1 0b 19
        E 16 b1 0b 11
        E 16 b1 0b 08
        E 16 b1 0c 10
        E 0 b1 0b 4c
        E 0 81 24 00
        E 0 91 22 4c
        E 48 b1 0c 20
        E 48 b1 0c 40
        E 80 b1 0b 44
        E 16 b1 0b 3b
        E 16 b1 0b 33
        E 16 b1 0b 22
        E 16 b1 0b 19
        E 16 b1 0b 11
        E 16 b1 0b 08
        E 16 b1 0c 10
        E 0 b1 0b 4c
        E 0 81 22 00
        E 0 91 21 4c
        E 48 b1 0c 20
        E 48 b1 0c 40
        E 80 b1 0b 44
        E 16 b1 0b 3b
        E 16 b1 0b 33
        E 16 b1 0b 22
        E 16 b1 0b 19
        E 16 b1 0b 11
        E 16 b1 0b 08
        E 16 b1 0c 10
        E 0 b1 0b 4c
        E 0 81 21 00
        E 0 91 1f 4c
        E 48 b1 0c 20
        E 48 b1 0c 40
        E 80 b1 0b 44
        E 16 b1 0b 3b
        E 16 b1 0b 33
        E 16 b1 0b 22
        E 16 b1 0b 19
        E 16 b1 0b 11
        E 16 b1 0b 08
        E 16 b1 0c 10
        E 0 b1 0b 4c
        E 0 81 1f 00
        E 0 91 21 4c
        E 48 b1 0c 20
        E 48 b1 0c 40
        E 80 b1 0b 44
        E 16 b1 0b 3b
        E 16 b1 0b 33
        E 16 b1 0b 22
        E 16 b1 0b 19
        E 16 b1 0b 11
        E 16 b1 0b 08
        E 16 b1 0c 10
        E 0 b1 0b 4c
        E 0 81 21 00
        E 0 91 22 4c
        E 48 b1 0c 20
        E 48 b1 0c 40
        E 80 b1 0b 44
        E 16 b1 0b 3b
        E 16 b1 0b 33
        E 16 b1 0b 22
        E 16 b1 0b 19
        E 16 b1 0b 11
        E 16 b1 0b 08
        E 16 b1 0c 10
        E 0 b1 0b 4c
        E 0 81 22 00
        E 0 91 23 4c
        E 48 b1 0c 20
        E 48 b1 0c 40
        E 80 b1 0b 44
        E 16 b1 0b 3b
        E 16 b1 0b 33
        E 16 b1 0b 22
        E 16 b1 0b 19
        E 16 b1 0b 11
        E 16 b1 0b 08
        E 16 b1 0c 10
        E 0 b1 0b 4c
        E 0 81 23 00
        E 0 91 24 4c
        E 48 b1 0c 20
        E 48 b1 0c 40
        E 80 b1 0b 44
        E 16 b1 0b 3b
        E 16 b1 0b 33
        E 16 b1 0b 22
        E 16 b1 0b 19
        E 16 b1 0b 11
        E 16 b1 0b 08
        E 16 b1 0c 10
        E 0 b1 0b 4c
        E 0 81 24 00
        E 0 91 22 4c
        E 48 b1 0c 20
        E 48 b1 0c 40
        E 80 b1 0b 44
        E 16 b1 0b 3b
        E 16 b1 0b 33
        E 16 b1 0b 22
        E 16 b1 0b 19
        E 16 b1 0b 11
        E 16 b1 0b 08
        E 16 b1 0c 10
        E 0 b1 0b 4c
        E 0 81 22 00
        E 0 91 21 4c
        E 48 b1 0c 20
        E 48 b1 0c 40
        E 80 b1 0b 44
        E 16 b1 0b 3b
        E 16 b1 0b 33
        E 16 b1 0b 22
        E 16 b1 0b 19
        E 16 b1 0b 11
        E 16 b1 0b 08
        E 16 b1 0c 10
        E 0 b1 0b 4c
        E 0 81 21 00
        E 0 91 1e 4c
        E 48 b1 0c 20
        E 48 b1 0c 40
        E 80 b1 0b 44
        E 16 b1 0b 3b
        E 16 b1 0b 33
        E 16 b1 0b 22
        E 16 b1 0b 19
        E 16 b1 0b 11
        E 16 b1 0b 08
        E 32 b1 0c 10
        E 0 b1 0b 4c
        E 0 81 1e 00
        E 0 91 1f 4c
        E 48 b1 0c 20
        E 48 b1 0c 40
        E 80 b1 0b 44
        E 16 b1 0b 3b
        E 16 b1 0b 33
        E 16 b1 0b 22
        E 16 b1 0b 19
        E 16 b1 0b 11
        E 16 b1 0b 08
        E 16 b1 0c 10
        E 0 b1 0b 4c
        E 0 81 1f 00
        E 0 91 22 4c
        E 48 b1 0c 20
        E 48 b1 0c 40
        E 80 b1 0b 44
        E 16 b1 0b 3b
        E 16 b1 0b 33
        E 16 b1 0b 22
        E 16 b1 0b 19
        E 16 b1 0b 11
        E 16 b1 0b 08
        E 16 b1 0c 10
        E 0 b1 0b 4c
        E 0 81 22 00
        E 0 91 26 4c
        E 48 b1 0c 20
        E 48 b1 0c 40
        E 80 b1 0b 44
        E 16 b1 0b 3b
        E 16 b1 0b 33
        E 16 b1 0b 22
        E 16 b1 0b 19
        E 16 b1 0b 11
        E 16 b1 0b 08
        E 16 b1 0c 10
        E 0 b1 0b 4c
        E 0 81 26 00
        E 0 91 1f 4c
        E 48 b1 0c 20
        E 48 b1 0c 40
        E 80 b1 0b 44
        E 16 b1 0b 3b
        E 16 b1 0b 33
        E 16 b1 0b 22
        E 16 b1 0b 19
        E 16 b1 0b 11
        E 16 b1 0b 08
        E 16 b1 0c 10
        E 0 b1 0b 4c
        E 0 81 1f 00
        E 0 91 20 4c
        E 48 b1 0c 20
        E 48 b1 0c 40
        E 80 b1 0b 44
        E 16 b1 0b 3b
        E 16 b1 0b 33
        E 16 b1 0b 22
        E 16 b1 0b 19
        E 16 b1 0b 11
        E 16 b1 0b 08
        E 16 b1 0c 10
        E 0 b1 0b 4c
        E 0 81 20 00
        E 0 91 23 4c
        E 48 b1 0c 20
        E 48 b1 0c 40
        E 80 b1 0b 44
        E 16 b1 0b 3b
        E 16 b1 0b 33
        E 16 b1 0b 22
        E 16 b1 0b 19
        E 16 b1 0b 11
        E 16 b1 0b 08
        E 16 b1 0c 10
        E 0 b1 0b 4c
        E 0 81 23 00
        E 0 91 26 4c
        E 48 b1 0c 20
        E 48 b1 0c 40
        E 80 b1 0b 44
        E 16 b1 0b 3b
        E 16 b1 0b 33
        E 16 b1 0b 22
        E 16 b1 0b 19
        E 16 b1 0b 11
        E 16 b1 0b 08
        E 16 b1 0c 10
        E 0 b1 0b 4c
        E 0 81 26 00
        E 0 91 20 4c
        E 48 b1 0c 20
        E 48 b1 0c 40
        E 80 b1 0b 44
        E 16 b1 0b 3b
        E 16 b1 0b 33
        E 16 b1 0b 22
        E 16 b1 0b 19
        E 16 b1 0b 11
        E 16 b1 0b 08
        E 16 b1 0c 10
        E 0 b1 0b 4c
        E 0 81 20 00
        E 0 91 21 4c
        E 48 b1 0c 20
        E 48 b1 0c 40
        E 80 b1 0b 44
        E 16 b1 0b 3b
        E 16 b1 0b 33
        E 16 b1 0b 22
        E 16 b1 0b 19
        E 16 b1 0b 11
        E 16 b1 0b 08
        E 16 b1 0c 10
        E 0 b1 0b 4c
        E 0 81 21 00
        E 0 91 23 4c
        E 48 b1 0c 20
        E 48 b1 0c 40
        E 80 b1 0b 44
        E 16 b1 0b 3b
        E 16 b1 0b 33
        E 16 b1 0b 22
        E 16 b1 0b 19
        E 16 b1 0b 11
        E 16 b1 0b 08
        E 16 b1 0c 10
        E 0 b1 0b 4c
        E 0 81 23 00
        E 0 91 24 4c
        E 48 b1 0c 20
        E 48 b1 0c 40
        E 80 b1 0b 44
        E 16 b1 0b 3b
        E 16 b1 0b 33
        E 16 b1 0b 22
        E 16 b1 0b 19
        E 16 b1 0b 11
        E 16 b1 0b 08
        E 16 b1 0c 10
        E 0 b1 0b 4c
        E 0 81 24 00
        E 0 91 28 4c
        E 48 b1 0c 20
        E 48 b1 0c 40
        E 80 b1 0b 44
        E 16 b1 0b 3b
        E 16 b1 0b 33
        E 16 b1 0b 22
        E 16 b1 0b 19
        E 16 b1 0b 11
        E 16 b1 0b 08
        E 16 b1 0c 10
        E 0 b1 0b 4c
        E 0 81 28 00
        E 0 91 26 4c
        E 48 b1 0c 20
        E 48 b1 0c 40
        E 80 b1 0b 44
        E 16 b1 0b 3b
        E 16 b1 0b 33
        E 16 b1 0b 22
        E 16 b1 0b 19
        E 16 b1 0b 11
        E 16 b1 0b 08
        E 16 b1 0c 10
        E 0 b1 0b 4c
        E 0 81 26 00
        E 0 91 21 4c
        E 48 b1 0c 20
        E 48 b1 0c 40
        E 80 b1 0b 44
        E 16 b1 0b 3b
        E 16 b1 0b 33
        E 16 b1 0b 22
        E 16 b1 0b 19
        E 16 b1 0b 11
        E 16 b1 0b 08
        E 16 b1 0c 10
        E 0 b1 0b 4c
        E 0 81 21 00
        E 0 91 26 4c
        E 48 b1 0c 20
        E 48 b1 0c 40
        E 80 b1 0b 44
        E 16 b1 0b 3b
        E 16 b1 0b 33
        E 16 b1 0b 22
        E 16 b1 0b 19
        E 16 b1 0b 11
        E 16 b1 0b 08
        E 16 b1 0c 10
        E 0 b1 0b 4c
        E 0 81 26 00
        E 0 91 20 4c
        E 48 b1 0c 20
        E 48 b1 0c 40
        E 80 b1 0b 44
        E 16 b1 0b 3b
        E 16 b1 0b 33
        E 16 b1 0b 22
        E 16 b1 0b 19
        E 16 b1 0b 11
        E 16 b1 0b 08
        E 16 b1 0c 10
        E 0 b1 0b 4c
        E 0 81 20 00
        E 0 91 1f 4c
        E 48 b1 0c 20
        E 48 b1 0c 40
        E 80 b1 0b 44
        E 16 b1 0b 3b
        E 16 b1 0b 33
        E 16 b1 0b 22
        E 16 b1 0b 19
        E 16 b1 0b 11
        E 16 b1 0b 08
        E 16 b1 0c 10
        E 0 b1 0b 4c
        E 0 81 1f 00
        E 0 91 21 4c
        E 48 b1 0c 20
        E 48 b1 0c 40
        E 80 b1 0b 44
        E 16 b1 0b 3b
        E 16 b1 0b 33
        E 16 b1 0b 22
        E 16 b1 0b 19
        E 16 b1 0b 11
        E 16 b1 0b 08
        E 16 b1 0c 10
        E 0 b1 0b 4c
        E 0 81 21 00
        E 0 91 22 4c
        E 48 b1 0c 20
        E 48 b1 0c 40
        E 80 b1 0b 44
        E 16 b1 0b 3b
        E 16 b1 0b 33
        E 16 b1 0b 22
        E 16 b1 0b 19
        E 16 b1 0b 11
        E 16 b1 0b 08
        E 16 b1 0c 10
        E 0 b1 0b 4c
        E 0 81 22 00
        E 0 91 23 4c
        E 48 b1 0c 20
        E 48 b1 0c 40
        E 80 b1 0b 44
        E 16 b1 0b 3b
        E 16 b1 0b 33
        E 16 b1 0b 22
        E 16 b1 0b 19
        E 16 b1 0b 11
        E 16 b1 0b 08
        E 16 b1 0c 10
        E 0 b1 0b 4c
        E 0 81 23 00
        E 0 91 24 4c
        E 48 b1 0c 20
        E 48 b1 0c 40
        E 80 b1 0b 44
        E 16 b1 0b 3b
        E 16 b1 0b 33
        E 16 b1 0b 22
        E 16 b1 0b 19
        E 16 b1 0b 11
        E 16 b1 0b 08
        E 16 b1 0c 10
        E 0 b1 0b 4c
        E 0 81 24 00
        E 0 91 22 4c
        E 48 b1 0c 20
        E 48 b1 0c 40
        E 80 b1 0b 44
        E 16 b1 0b 3b
        E 16 b1 0b 33
        E 16 b1 0b 22
        E 16 b1 0b 19
        E 16 b1 0b 11
        E 16 b1 0b 08
        E 16 b1 0c 10
        E 0 b1 0b 4c
        E 0 81 22 00
        E 0 91 21 4c
        E 48 b1 0c 20
        E 48 b1 0c 40
        E 80 b1 0b 44
        E 16 b1 0b 3b
        E 16 b1 0b 33
        E 16 b1 0b 22
        E 16 b1 0b 19
        E 16 b1 0b 11
        E 16 b1 0b 08
        E 16 b1 0c 10
        E 0 b1 0b 4c
        E 0 81 21 00
        E 0 91 1f 4c
        E 48 b1 0c 20
        E 48 b1 0c 40
        E 80 b1 0b 44
        E 16 b1 0b 3b
        E 16 b1 0b 33
        E 16 b1 0b 22
        E 16 b1 0b 19
        E 16 b1 0b 11
        E 16 b1 0b 08
        E 16 b1 0c 10
        E 0 b1 0b 4c
        E 0 81 1f 00
        E 0 91 1d 4c
        E 48 b1 0c 20
        E 48 b1 0c 40
        E 80 b1 0b 44
        E 16 b1 0b 3b
        E 16 b1 0b 33
        E 16 b1 0b 22
        E 16 b1 0b 19
        E 16 b1 0b 11
        E 16 b1 0b 08
        E 16 b1 0c 10
        E 0 b1 0b 4c
        E 0 81 1d 00
        E 0 91 24 4c
        E 48 b1 0c 20
        E 48 b1 0c 40
        E 80 b1 0b 44
        E 16 b1 0b 3b
        E 16 b1 0b 33
        E 16 b1 0b 22
        E 16 b1 0b 19
        E 16 b1 0b 11
        E 16 b1 0b 08
        E 16 b1 0c 10
        E 0 b1 0b 4c
        E 0 81 24 00
        E 0 91 1c 4c
        E 48 b1 0c 20
        E 48 b1 0c 40
        E 80 b1 0b 44
        E 16 b1 0b 3b
        E 16 b1 0b 33
        E 16 b1 0b 22
        E 16 b1 0b 19
        E 16 b1 0b 11
        E 16 b1 0b 08
        E 16 b1 0c 10
        E 0 b1 0b 4c
        E 0 81 1c 00
        E 0 91 23 4c
        E 48 b1 0c 20
        E 48 b1 0c 40
        E 80 b1 0b 44
        E 16 b1 0b 3b
        E 16 b1 0b 33
        E 16 b1 0b 22
        E 16 b1 0b 19
        E 16 b1 0b 11
        E 16 b1 0b 08
        E 16 b1 0c 10
        E 0 b1 0b 4c
        E 0 81 23 00
        E 0 91 1b 4c
        E 48 b1 0c 20
        E 48 b1 0c 40
        E 80 b1 0b 44
        E 16 b1 0b 3b
        E 16 b1 0b 33
        E 16 b1 0b 22
        E 16 b1 0b 19
        E 16 b1 0b 11
        E 16 b1 0b 08
        E 16 b1 0c 10
        E 0 b1 0b 4c
        E 0 81 1b 00
        E 0 91 22 4c
        E 48 b1 0c 20
        E 48 b1 0c 40
        E 80 b1 0b 44
        E 16 b1 0b 3b
        E 16 b1 0b 33
        E 16 b1 0b 22
        E 16 b1 0b 19
        E 16 b1 0b 11
        E 16 b1 0b 08
        E 16 b1 0c 10
        E 0 b1 0b 4c
        E 0 81 22 00
        E 0 91 26 4c
        E 48 b1 0c 20
        E 48 b1 0c 40
        E 80 b1 0b 44
        E 16 b1 0b 3b
        E 16 b1 0b 33
        E 16 b1 0b 22
        E 16 b1 0b 19
        E 16 b1 0b 11
        E 16 b1 0b 08
        E 16 b1 0c 10
        E 0 b1 0b 4c
        E 0 81 26 00
        E 0 91 20 4c
        E 48 b1 0c 20
        E 48 b1 0c 40
        E 80 b1 0b 44
        E 16 b1 0b 3b
        E 16 b1 0b 33
        E 16 b1 0b 22
        E 16 b1 0b 19
        E 16 b1 0b 11
        E 16 b1 0b 08
        E 16 b1 0c 10
        E 0 b1 0b 4c
        E 0 81 20 00
        E 0 91 1f 4c
        E 48 b1 0c 20
        E 48 b1 0c 40
        E 80 b1 0b 44
        E 16 b1 0b 3b
        E 16 b1 0b 33
        E 16 b1 0b 22
        E 16 b1 0b 19
        E 16 b1 0b 11
        E 16 b1 0b 08
        E 16 b1 0c 10
        E 0 b1 0b 4c
        E 0 81 1f 00
        E 0 91 22 4c
        E 48 b1 0c 20
        E 48 b1 0c 40
        E 80 b1 0b 44
        E 16 b1 0b 3b
        E 16 b1 0b 33
        E 16 b1 0b 22
        E 16 b1 0b 19
        E 16 b1 0b 11
        E 16 b1 0b 08
        E 16 b1 0c 10
        E 0 b1 0b 4c
        E 0 81 22 00
        E 0 91 26 4c
        E 48 b1 0c 20
        E 48 b1 0c 40
        E 80 b1 0b 44
        E 16 b1 0b 3b
        E 16 b1 0b 33
        E 16 b1 0b 22
        E 16 b1 0b 19
        E 16 b1 0b 11
        E 16 b1 0b 08
        E 16 b1 0c 10
        E 0 b1 0b 4c
        E 0 81 26 00
        E 0 91 29 4c
        E 48 b1 0c 20
        E 48 b1 0c 40
        E 80 b1 0b 44
        E 16 b1 0b 3b
        E 16 b1 0b 33
        E 16 b1 0b 22
        E 16 b1 0b 19
        E 16 b1 0b 11
        E 16 b1 0b 08
        E 16 b1 0c 10
        E 0 b1 0b 4c
        E 0 81 29 00
        E 0 91 2c 4c
        E 48 b1 0c 20
        E 48 b1 0c 40
        E 80 b1 0b 44
        E 16 b1 0b 3b
        E 16 b1 0b 33
        E 16 b1 0b 22
        E 16 b1 0b 19
        E 16 b1 0b 11
        E 16 b1 0b 08
        E 16 b1 0c 10
        E 0 b1 0b 4c
        E 0 81 2c 00
        E 0 91 23 4c
        E 48 b1 0c 20
        E 48 b1 0c 40
        E 80 b1 0b 44
        E 16 b1 0b 3b
        E 16 b1 0b 33
        E 16 b1 0b 22
        E 16 b1 0b 19
        E 16 b1 0b 11
        E 16 b1 0b 08
        E 16 b1 0c 10
        E 0 b1 0b 4c
        E 0 81 23 00
        E 0 91 26 4c
        E 48 b1 0c 20
        E 48 b1 0c 40
        E 80 b1 0b 44
        E 16 b1 0b 3b
        E 16 b1 0b 33
        E 16 b1 0b 22
        E 16 b1 0b 19
        E 16 b1 0b 11
        E 16 b1 0b 08
        E 16 b1 0c 10
        E 0 b1 0b 4c
        E 0 81 26 00
        E 0 91 2c 4c
        E 48 b1 0c 20
        E 48 b1 0c 40
        E 80 b1 0b 44
        E 16 b1 0b 3b
        E 16 b1 0b 33
        E 16 b1 0b 22
        E 16 b1 0b 19
        E 16 b1 0b 11
        E 16 b1 0b 08
        E 16 b1 0c 10
        E 0 b1 0b 4c
        E 0 81 2c 00
        E 0 91 2d 4c
        E 48 b1 0c 20
        E 48 b1 0c 40
        E 80 b1 0b 44
        E 16 b1 0b 3b
        E 16 b1 0b 33
        E 16 b1 0b 22
        E 16 b1 0b 19
        E 16 b1 0b 11
        E 16 b1 0b 08
        E 16 b1 0c 10
        E 0 b1 0b 4c
        E 0 81 2d 00
        E 0 91 2b 4c
        E 48 b1 0c 20
        E 48 b1 0c 40
        E 80 b1 0b 44
        E 16 b1 0b 3b
        E 16 b1 0b 33
        E 16 b1 0b 22
        E 16 b1 0b 19
        E 16 b1 0b 11
        E 16 b1 0b 08
        E 16 b1 0c 10
        E 0 b1 0b 4c
        E 0 81 2b 00
        E 0 91 28 4c
        E 48 b1 0c 20
        E 48 b1 0c 40
        E 80 b1 0b 44
        E 16 b1 0b 3b
        E 16 b1 0b 33
        E 16 b1 0b 22
        E 16 b1 0b 19
        E 16 b1 0b 11
        E 16 b1 0b 08
        E 16 b1 0c 10
        E 0 b1 0b 4c
        E 0 81 28 00
        E 0 91 24 4c
        E 48 b1 0c 20
        E 48 b1 0c 40
        E 80 b1 0b 44
        E 16 b1 0b 3b
        E 16 b1 0b 33
        E 16 b1 0b 22
        E 16 b1 0b 19
        E 16 b1 0b 11
        E 16 b1 0b 08
        E 16 b1 0c 10
        E 0 b1 0b 4c
        E 0 81 24 00
        E 0 91 26 4c
        E 48 b1 0c 20
        E 48 b1 0c 40
        E 80 b1 0b 44
        E 16 b1 0b 3b
        E 16 b1 0b 33
        E 16 b1 0b 22
        E 16 b1 0b 19
        E 16 b1 0b 11
        E 16 b1 0b 08
        E 16 b1 0c 10
        E 0 b1 0b 4c
        E 0 81 26 00
        E 0 91 21 4c
        E 48 b1 0c 20
        E 48 b1 0c 40
        E 80 b1 0b 44
        E 16 b1 0b 3b
        E 16 b1 0b 33
        E 16 b1 0b 22
        E 16 b1 0b 19
        E 16 b1 0b 11
        E 16 b1 0b 08
        E 16 b1 0c 10
        E 0 b1 0b 4c
        E 0 81 21 00
        E 0 91 26 4c
        E 48 b1 0c 20
        E 48 b1 0c 40
        E 80 b1 0b 44
        E 16 b1 0b 3b
        E 16 b1 0b 33
        E 16 b1 0b 22
        E 16 b1 0b 19
        E 16 b1 0b 11
        E 16 b1 0b 08
        E 16 b1 0c 10
        E 0 b1 0b 4c
        E 0 81 26 00
        E 0 91 20 4c
        E 48 b1 0c 20
        E 48 b1 0c 40
        E 80 b1 0b 44
        E 16 b1 0b 3b
        E 16 b1 0b 33
        E 16 b1 0b 22
        E 16 b1 0b 19
        E 16 b1 0b 11
        E 16 b1 0b 08
        E 16 b1 0c 10
        E 0 b1 0b 4c
        E 0 81 20 00
        E 0 91 1f 4c
        E 48 b1 0c 20
        E 48 b1 0c 40
        E 80 b1 0b 44
        E 16 b1 0b 3b
        E 16 b1 0b 33
        E 16 b1 0b 22
        E 16 b1 0b 19
        E 16 b1 0b 11
        E 16 b1 0b 08
        E 16 b1 0c 10
        E 0 b1 0b 4c
        E 0 81 1f 00
        E 0 91 21 4c
        E 48 b1 0c 20
        E 48 b1 0c 40
        E 80 b1 0b 44
        E 16 b1 0b 3b
        E 16 b1 0b 33
        E 16 b1 0b 22
        E 16 b1 0b 19
        E 16 b1 0b 11
        E 16 b1 0b 08
        E 16 b1 0c 10
        E 0 b1 0b 4c
        E 0 81 21 00
        E 0 91 22 4c
        E 48 b1 0c 20
        E 48 b1 0c 40
        E 80 b1 0b 44
        E 16 b1 0b 3b
        E 16 b1 0b 33
        E 16 b1 0b 22
        E 16 b1 0b 19
        E 16 b1 0b 11
        E 16 b1 0b 08
        E 16 b1 0c 10
        E 0 b1 0b 4c
        E 0 81 22 00
        E 0 91 23 4c
        E 48 b1 0c 20
        E 48 b1 0c 40
        E 80 b1 0b 44
        E 16 b1 0b 3b
        E 16 b1 0b 33
        E 16 b1 0b 22
        E 16 b1 0b 19
        E 16 b1 0b 11
        E 16 b1 0b 08
        E 16 b1 0c 10
        E 0 b1 0b 4c
        E 0 81 23 00
        E 0 91 24 4c
        E 48 b1 0c 20
        E 48 b1 0c 40
        E 80 b1 0b 44
        E 16 b1 0b 3b
        E 16 b1 0b 33
        E 16 b1 0b 22
        E 16 b1 0b 19
        E 16 b1 0b 11
        E 16 b1 0b 08
        E 16 b1 0c 10
        E 0 b1 0b 4c
        E 0 81 24 00
        E 0 91 22 4c
        E 48 b1 0c 20
        E 48 b1 0c 40
        E 80 b1 0b 44
        E 16 b1 0b 3b
        E 16 b1 0b 33
        E 16 b1 0b 22
        E 16 b1 0b 19
        E 16 b1 0b 11
        E 16 b1 0b 08
        E 16 b1 0c 10
        E 0 b1 0b 4c
        E 0 81 22 00
        E 0 91 21 4c
        E 48 b1 0c 20
        E 48 b1 0c 40
        E 80 b1 0b 44
        E 16 b1 0b 3b
        E 16 b1 0b 33
        E 16 b1 0b 22
        E 16 b1 0b 19
        E 16 b1 0b 11
        E 16 b1 0b 08
        E 16 b1 0c 10
        E 0 b1 0b 4c
        E 0 81 21 00
        E 0 91 1f 4c
        E 48 b1 0c 20
        E 48 b1 0c 40
        E 80 b1 0b 44
        E 16 b1 0b 3b
        E 16 b1 0b 33
        E 16 b1 0b 22
        E 16 b1 0b 19
        E 16 b1 0b 11
        E 16 b1 0b 08
        E 16 b1 0c 10
        E 0 b1 0b 4c
        E 0 81 1f 00
        E 0 91 1d 4c
        E 48 b1 0c 20
        E 48 b1 0c 40
        E 48 b1 0b 44
        E 16 b1 0b 3b
        E 16 b1 0b 33
        E 16 b1 0b 22
        E 16 b1 0b 19
        E 16 b1 0b 11
        E 16 b1 0b 08
        E 16 81 1d 00
        E 32 b1 0c 10
        E 0 b1 0b 4c
        E 0 91 1d 4c
        E 48 b1 0c 20
        E 48 b1 0c 40
        E 48 b1 0b 44
        E 16 b1 0b 3b
        E 16 b1 0b 33
        E 16 b1 0b 22
        E 16 b1 0b 19
        E 16 b1 0b 11
        E 16 b1 0b 08
        E 16 81 1d 00
        E 32 b1 0c 10
        E 0 b1 0b 4c
        E 0 91 1f 4c
        E 48 b1 0c 20
        E 48 b1 0c 40
        E 48 b1 0b 44
        E 16 b1 0b 3b
        E 16 b1 0b 33
        E 16 b1 0b 22
        E 16 b1 0b 19
        E 16 b1 0b 11
        E 16 b1 0b 08
        E 16 81 1f 00
        E 32 b1 0c 10
        E 0 b1 0b 4c
        E 0 91 1f 4c
        E 48 b1 0c 20
        E 48 b1 0c 40
        E 48 b1 0b 44
        E 16 b1 0b 3b
        E 16 b1 0b 33
        E 16 b1 0b 22
        E 16 b1 0b 19
        E 16 b1 0b 11
        E 16 b1 0b 08
        E 16 81 1f 00
        E 32 b1 0c 10
        E 0 b1 0b 4c
        E 0 91 21 4c
        E 48 b1 0c 20
        E 48 b1 0c 40
        E 48 b1 0b 44
        E 16 b1 0b 3b
        E 16 b1 0b 33
        E 16 b1 0b 22
        E 16 b1 0b 19
        E 16 b1 0b 11
        E 16 b1 0b 08
        E 16 81 21 00
        E 32 b1 0c 10
        E 0 b1 0b 4c
        E 0 91 21 4c
        E 48 b1 0c 20
        E 48 b1 0c 40
        E 48 b1 0b 44
        E 16 b1 0b 3b
        E 16 b1 0b 33
        E 16 b1 0b 22
        E 16 b1 0b 19
        E 16 b1 0b 11
        E 16 b1 0b 08
        E 16 81 21 00
        E 32 b1 0c 10
        E 0 b1 0b 4c
        E 0 91 20 4c
        E 48 b1 0c 20
        E 48 b1 0c 40
        E 48 b1 0b 44
        E 16 b1 0b 3b
        E 16 b1 0b 33
        E 16 b1 0b 22
        E 16 b1 0b 19
        E 16 b1 0b 11
        E 16 b1 0b 08
        E 16 81 20 00
        E 32 b1 0c 10
        E 0 b1 0b 4c
        E 0 91 20 4c
        E 48 b1 0c 20
        E 48 b1 0c 40
        E 48 b1 0b 44
        E 16 b1 0b 3b
        E 16 b1 0b 33
        E 16 b1 0b 22
        E 16 b1 0b 19
        E 16 b1 0b 11
        E 16 b1 0b 08
        E 16 81 20 00
        E 32 b1 0c 10
        E 0 b1 0b 4c
        E 0 91 1f 4c
        E 48 b1 0c 20
        E 48 b1 0c 40
        E 80 b1 0b 44
        E 16 b1 0b 3b
        E 16 b1 0b 33
        E 16 b1 0b 22
        E 16 b1 0b 19
        E 16 b1 0b 11
        E 16 b1 0b 08
        E 16 b1 0c 10
        E 0 b1 0b 4c
        E 0 81 1f 00
        E 0 91 21 4c
        E 48 b1 0c 20
        E 48 b1 0c 40
        E 80 b1 0b 44
        E 16 b1 0b 3b
        E 16 b1 0b 33
        E 16 b1 0b 22
        E 16 b1 0b 19
        E 16 b1 0b 11
        E 16 b1 0b 08
        E 16 b1 0c 10
        E 0 b1 0b 4c
        E 0 81 21 00
        E 0 91 22 4c
        E 48 b1 0c 20
        E 48 b1 0c 40
        E 80 b1 0b 44
        E 16 b1 0b 3b
        E 16 b1 0b 33
        E 16 b1 0b 22
        E 16 b1 0b 19
        E 16 b1 0b 11
        E 16 b1 0b 08
        E 16 b1 0c 10
        E 0 b1 0b 4c
        E 0 81 22 00
        E 0 91 23 4c
        E 48 b1 0c 20
        E 48 b1 0c 40
        E 80 b1 0b 44
        E 16 b1 0b 3b
        E 16 b1 0b 33
        E 16 b1 0b 22
        E 16 b1 0b 19
        E 16 b1 0b 11
        E 16 b1 0b 08
        E 16 b1 0c 10
        E 0 b1 0b 4c
        E 0 81 23 00
        E 0 91 24 4c
        E 48 b1 0c 20
        E 48 b1 0c 40
        E 80 b1 0b 44
        E 16 b1 0b 3b
        E 16 b1 0b 33
        E 16 b1 0b 22
        E 16 b1 0b 19
        E 16 b1 0b 11
        E 16 b1 0b 08
        E 16 b1 0c 10
        E 0 b1 0b 4c
        E 0 81 24 00
        E 0 91 22 4c
        E 48 b1 0c 20
        E 48 b1 0c 40
        E 80 b1 0b 44
        E 16 b1 0b 3b
        E 16 b1 0b 33
        E 16 b1 0b 22
        E 16 b1 0b 19
        E 16 b1 0b 11
        E 16 b1 0b 08
        E 16 b1 0c 10
        E 0 b1 0b 4c
        E 0 81 22 00
        E 0 91 21 4c
        E 48 b1 0c 20
        E 48 b1 0c 40
        E 80 b1 0b 44
        E 16 b1 0b 3b
        E 16 b1 0b 33
        E 16 b1 0b 22
        E 16 b1 0b 19
        E 16 b1 0b 11
        E 16 b1 0b 08
        E 16 b1 0c 10
        E 0 b1 0b 4c
        E 0 81 21 00
        E 0 91 1f 4c
        E 48 b1 0c 20
        E 48 b1 0c 40
        E 80 b1 0b 44
        E 16 b1 0b 3b
        E 16 b1 0b 33
        E 16 b1 0b 22
        E 16 b1 0b 19
        E 16 b1 0b 11
        E 16 b1 0b 08
        E 16 b1 0c 10
        E 0 b1 0b 4c
        E 0 81 1f 00
        E 0 91 1d 4c
        E 48 b1 0c 20
        E 48 b1 0c 40
        E 48 b1 0b 44
        E 16 b1 0b 3b
        E 16 b1 0b 33
        E 16 b1 0b 22
        E 16 b1 0b 19
        E 16 b1 0b 11
        E 16 b1 0b 08
        E 16 81 1d 00
        E 32 b1 0c 10
        E 0 b1 0b 4c
        E 0 91 1d 4c
        E 48 b1 0c 20
        E 48 b1 0c 40
        E 48 b1 0b 44
        E 16 b1 0b 3b
        E 16 b1 0b 33
        E 16 b1 0b 22
        E 16 b1 0b 19
        E 16 b1 0b 11
        E 16 b1 0b 08
        E 16 81 1d 00
        E 32 b1 0c 10
        E 0 b1 0b 4c
        E 0 91 1f 4c
        E 48 b1 0c 20
        E 48 b1 0c 40
        E 48 b1 0b 44
        E 16 b1 0b 3b
        E 16 b1 0b 33
        E 16 b1 0b 22
        E 16 b1 0b 19
        E 16 b1 0b 11
        E 16 b1 0b 08
        E 16 81 1f 00
        E 32 b1 0c 10
        E 0 b1 0b 4c
        E 0 91 1f 4c
        E 48 b1 0c 20
        E 48 b1 0c 40
        E 48 b1 0b 44
        E 16 b1 0b 3b
        E 16 b1 0b 33
        E 16 b1 0b 22
        E 16 b1 0b 19
        E 16 b1 0b 11
        E 16 b1 0b 08
        E 16 81 1f 00
        E 32 b1 0c 10
        E 0 b1 0b 4c
        E 0 91 21 4c
        E 48 b1 0c 20
        E 48 b1 0c 40
        E 48 b1 0b 44
        E 16 b1 0b 3b
        E 16 b1 0b 33
        E 16 b1 0b 22
        E 16 b1 0b 19
        E 16 b1 0b 11
        E 16 b1 0b 08
        E 16 81 21 00
        E 32 b1 0c 10
        E 0 b1 0b 4c
        E 0 91 21 4c
        E 48 b1 0c 20
        E 48 b1 0c 40
        E 48 b1 0b 44
        E 16 b1 0b 3b
        E 16 b1 0b 33
        E 16 b1 0b 22
        E 16 b1 0b 19
        E 16 b1 0b 11
        E 16 b1 0b 08
        E 16 81 21 00
        E 32 b1 0c 10
        E 0 b1 0b 4c
        E 0 91 20 4c
        E 48 b1 0c 20
        E 48 b1 0c 40
        E 48 b1 0b 44
        E 16 b1 0b 3b
        E 16 b1 0b 33
        E 16 b1 0b 22
        E 16 b1 0b 19
        E 16 b1 0b 11
        E 16 b1 0b 08
        E 16 81 20 00
        E 32 b1 0c 10
        E 0 b1 0b 4c
        E 0 91 20 4c
        E 48 b1 0c 20
        E 48 b1 0c 40
        E 48 b1 0b 44
        E 16 b1 0b 3b
        E 16 b1 0b 33
        E 16 b1 0b 22
        E 16 b1 0b 19
        E 16 b1 0b 11
        E 16 b1 0b 08
        E 16 81 20 00
        E 32 b1 0c 10
        E 0 b1 0b 4c
        E 0 91 1f 4c
        E 48 b1 0c 20
        E 48 b1 0c 40
        E 80 b1 0b 44
        E 16 b1 0b 3b
        E 16 b1 0b 33
        E 16 b1 0b 22
        E 16 b1 0b 19
        E 16 b1 0b 11
        E 16 b1 0b 08
        E 16 b1 0c 10
        E 0 b1 0b 4c
        E 0 81 1f 00
        E 0 91 21 4c
        E 48 b1 0c 20
        E 48 b1 0c 40
        E 80 b1 0b 44
        E 16 b1 0b 3b
        E 16 b1 0b 33
        E 16 b1 0b 22
        E 16 b1 0b 19
        E 16 b1 0b 11
        E 16 b1 0b 08
        E 16 b1 0c 10
        E 0 b1 0b 4c
        E 0 81 21 00
        E 0 91 22 4c
        E 48 b1 0c 20
        E 48 b1 0c 40
        E 80 b1 0b 44
        E 16 b1 0b 3b
        E 16 b1 0b 33
        E 16 b1 0b 22
        E 16 b1 0b 19
        E 16 b1 0b 11
        E 16 b1 0b 08
        E 16 b1 0c 10
        E 0 b1 0b 4c
        E 0 81 22 00
        E 0 91 23 4c
        E 48 b1 0c 20
        E 48 b1 0c 40
        E 80 b1 0b 44
        E 16 b1 0b 3b
        E 16 b1 0b 33
        E 16 b1 0b 22
        E 16 b1 0b 19
        E 16 b1 0b 11
        E 16 b1 0b 08
        E 16 b1 0c 10
        E 0 b1 0b 4c
        E 0 81 23 00
        E 0 91 24 4c
        E 48 b1 0c 20
        E 48 b1 0c 40
        E 80 b1 0b 44
        E 16 b1 0b 3b
        E 16 b1 0b 33
        E 16 b1 0b 22
        E 16 b1 0b 19
        E 16 b1 0b 11
        E 16 b1 0b 08
        E 16 b1 0c 10
        E 0 b1 0b 4c
        E 0 81 24 00
        E 0 91 23 4c
        E 48 b1 0c 20
        E 48 b1 0c 40
        E 80 b1 0b 44
        E 16 b1 0b 3b
        E 16 b1 0b 33
        E 16 b1 0b 22
        E 16 b1 0b 19
        E 16 b1 0b 11
        E 16 b1 0b 08
        E 16 b1 0c 10
        E 0 b1 0b 4c
        E 0 81 23 00
        E 0 91 22 4c
        E 48 b1 0c 20
        E 48 b1 0c 40
        E 80 b1 0b 44
        E 16 b1 0b 3b
        E 16 b1 0b 33
        E 16 b1 0b 22
        E 16 b1 0b 19
        E 16 b1 0b 11
        E 16 b1 0b 08
        E 16 b1 0c 10
        E 0 b1 0b 4c
        E 0 81 22 00
        E 0 91 20 4c
        E 48 b1 0c 20
        E 48 b1 0c 40
        E 80 b1 0b 44
        E 16 b1 0b 3b
        E 16 b1 0b 33
        E 16 b1 0b 22
        E 16 b1 0b 19
        E 16 b1 0b 11
        E 16 b1 0b 08
        E 16 b1 0c 10
        E 0 b1 0b 4c
        E 0 81 20 00
        E 0 91 21 4c
        E 48 b1 0c 20
        E 48 b1 0c 40
        E 80 b1 0b 44
        E 16 b1 0b 3b
        E 16 b1 0b 33
        E 16 b1 0b 22
        E 16 b1 0b 19
        E 16 b1 0b 11
        E 16 b1 0b 08
        E 16 b1 0c 10
        E 0 b1 0b 4c
        E 0 81 21 00
        E 0 91 24 4c
        E 48 b1 0c 20
        E 48 b1 0c 40
        E 80 b1 0b 44
        E 16 b1 0b 3b
        E 16 b1 0b 33
        E 16 b1 0b 22
        E 16 b1 0b 19
        E 16 b1 0b 11
        E 16 b1 0b 08
        E 16 b1 0c 10
        E 0 b1 0b 4c
        E 0 81 24 00
        E 0 91 28 4c
        E 48 b1 0c 20
        E 48 b1 0c 40
        E 80 b1 0b 44
        E 16 b1 0b 3b
        E 16 b1 0b 33
        E 16 b1 0b 22
        E 16 b1 0b 19
        E 16 b1 0b 11
        E 16 b1 0b 08
        E 16 b1 0c 10
        E 0 b1 0b 4c
        E 0 81 28 00
        E 0 91 24 4c
        E 48 b1 0c 20
        E 48 b1 0c 40
        E 80 b1 0b 44
        E 16 b1 0b 3b
        E 16 b1 0b 33
        E 16 b1 0b 22
        E 16 b1 0b 19
        E 16 b1 0b 11
        E 16 b1 0b 08
        E 16 b1 0c 10
        E 0 b1 0b 4c
        E 0 81 24 00
        E 0 91 26 4c
        E 48 b1 0c 20
        E 48 b1 0c 40
        E 80 b1 0b 44
        E 16 b1 0b 3b
        E 16 b1 0b 33
        E 16 b1 0b 22
        E 16 b1 0b 19
        E 16 b1 0b 11
        E 16 b1 0b 08
        E 16 b1 0c 10
        E 0 b1 0b 4c
        E 0 81 26 00
        E 0 91 24 4c
        E 48 b1 0c 20
        E 48 b1 0c 40
        E 80 b1 0b 44
        E 16 b1 0b 3b
        E 16 b1 0b 33
        E 16 b1 0b 22
        E 16 b1 0b 19
        E 16 b1 0b 11
        E 16 b1 0b 08
        E 16 b1 0c 10
        E 0 b1 0b 4c
        E 0 81 24 00
        E 0 91 22 4c
        E 48 b1 0c 20
        E 48 b1 0c 40
        E 80 b1 0b 44
        E 16 b1 0b 3b
        E 16 b1 0b 33
        E 16 b1 0b 22
        E 16 b1 0b 19
        E 16 b1 0b 11
        E 16 b1 0b 08
        E 16 b1 0c 10
        E 0 b1 0b 4c
        E 0 81 22 00
        E 0 91 21 4c
        E 48 b1 0c 20
        E 48 b1 0c 40
        E 80 b1 0b 44
        E 16 b1 0b 3b
        E 16 b1 0b 33
        E 16 b1 0b 22
        E 16 b1 0b 19
        E 16 b1 0b 11
        E 16 b1 0b 08
        E 16 b1 0c 10
        E 0 b1 0b 4c
        E 0 81 21 00
        E 0 91 1f 4c
        E 48 b1 0c 20
        E 48 b1 0c 40
        E 80 b1 0b 44
        E 16 b1 0b 3b
        E 16 b1 0b 33
        E 16 b1 0b 22
        E 16 b1 0b 19
        E 16 b1 0b 11
        E 16 b1 0b 08
        E 16 b1 0c 10
        E 0 b1 0b 4c
        E 0 81 1f 00
        E 0 91 22 4c
        E 48 b1 0c 20
        E 48 b1 0c 40
        E 80 b1 0b 44
        E 16 b1 0b 3b
        E 16 b1 0b 33
        E 16 b1 0b 22
        E 16 b1 0b 19
        E 16 b1 0b 11
        E 16 b1 0b 08
        E 16 b1 0c 10
        E 0 b1 0b 4c
        E 0 81 22 00
        E 0 91 26 4c
        E 48 b1 0c 20
        E 48 b1 0c 40
        E 80 b1 0b 44
        E 16 b1 0b 3b
        E 16 b1 0b 33
        E 16 b1 0b 22
        E 16 b1 0b 19
        E 16 b1 0b 11
        E 16 b1 0b 08
        E 16 b1 0c 10
        E 0 b1 0b 4c
        E 0 81 26 00
        E 0 91 29 4c
        E 48 b1 0c 20
        E 48 b1 0c 40
        E 80 b1 0b 44
        E 16 b1 0b 3b
        E 16 b1 0b 33
        E 16 b1 0b 22
        E 16 b1 0b 19
        E 16 b1 0b 11
        E 16 b1 0b 08
        E 16 b1 0c 10
        E 0 b1 0b 4c
        E 0 81 29 00
        E 0 91 24 4c
        E 48 b1 0c 20
        E 48 b1 0c 40
        E 80 b1 0b 44
        E 16 b1 0b 3b
        E 16 b1 0b 33
        E 16 b1 0b 22
        E 16 b1 0b 19
        E 16 b1 0b 11
        E 16 b1 0b 08
        E 16 b1 0c 10
        E 0 b1 0b 4c
        E 0 81 24 00
        E 0 91 28 4c
        E 48 b1 0c 20
        E 48 b1 0c 40
        E 80 b1 0b 44
        E 16 b1 0b 3b
        E 16 b1 0b 33
        E 16 b1 0b 22
        E 16 b1 0b 19
        E 16 b1 0b 11
        E 16 b1 0b 08
        E 16 b1 0c 10
        E 0 b1 0b 4c
        E 0 81 28 00
        E 0 91 2b 4c
        E 48 b1 0c 20
        E 48 b1 0c 40
        E 80 b1 0b 44
        E 16 b1 0b 3b
        E 16 b1 0b 33
        E 16 b1 0b 22
        E 16 b1 0b 19
        E 16 b1 0b 11
        E 16 b1 0b 08
        E 16 b1 0c 10
        E 0 b1 0b 4c
        E 0 81 2b 00
        E 0 91 2c 4c
        E 48 b1 0c 20
        E 48 b1 0c 40
        E 80 b1 0b 44
        E 16 b1 0b 3b
        E 16 b1 0b 33
        E 16 b1 0b 22
        E 16 b1 0b 19
        E 16 b1 0b 11
        E 16 b1 0b 08
        E 16 b1 0c 10
        E 0 b1 0b 4c
        E 0 81 2c 00
        E 0 91 2d 4c
        E 48 b1 0c 20
        E 48 b1 0c 40
        E 80 b1 0b 44
        E 16 b1 0b 3b
        E 16 b1 0b 33
        E 16 b1 0b 22
        E 16 b1 0b 19
        E 16 b1 0b 11
        E 16 b1 0b 08
        E 16 b1 0c 10
        E 0 b1 0b 4c
        E 0 81 2d 00
        E 0 91 28 4c
        E 48 b1 0c 20
        E 48 b1 0c 40
        E 80 b1 0b 44
        E 16 b1 0b 3b
        E 16 b1 0b 33
        E 16 b1 0b 22
        E 16 b1 0b 19
        E 16 b1 0b 11
        E 16 b1 0b 08
        E 16 b1 0c 10
        E 0 b1 0b 4c
        E 0 81 28 00
        E 0 91 24 4c
        E 48 b1 0c 20
        E 48 b1 0c 40
        E 80 b1 0b 44
        E 16 b1 0b 3b
        E 16 b1 0b 33
        E 16 b1 0b 22
        E 16 b1 0b 19
        E 16 b1 0b 11
        E 16 b1 0b 08
        E 16 b1 0c 10
        E 0 b1 0b 4c
        E 0 81 24 00
        E 0 91 21 4c
        E 48 b1 0c 20
        E 48 b1 0c 40
        E 80 b1 0b 44
        E 16 b1 0b 3b
        E 16 b1 0b 33
        E 16 b1 0b 22
        E 16 b1 0b 19
        E 16 b1 0b 11
        E 16 b1 0b 08
        E 16 b1 0c 10
        E 0 b1 0b 4c
        E 0 81 21 00
        E 0 91 26 4c
        E 48 b1 0c 20
        E 48 b1 0c 40
        E 80 b1 0b 44
        E 16 b1 0b 3b
        E 16 b1 0b 33
        E 16 b1 0b 22
        E 16 b1 0b 19
        E 16 b1 0b 11
        E 16 b1 0b 08
        E 16 b1 0c 10
        E 0 b1 0b 4c
        E 0 81 26 00
        E 0 91 24 4c
        E 48 b1 0c 20
        E 48 b1 0c 40
        E 80 b1 0b 44
        E 16 b1 0b 3b
        E 16 b1 0b 33
        E 16 b1 0b 22
        E 16 b1 0b 19
        E 16 b1 0b 11
        E 16 b1 0b 08
        E 16 b1 0c 10
        E 0 b1 0b 4c
        E 0 81 24 00
        E 0 91 22 4c
        E 48 b1 0c 20
        E 48 b1 0c 40
        E 80 b1 0b 44
        E 16 b1 0b 3b
        E 16 b1 0b 33
        E 16 b1 0b 22
        E 16 b1 0b 19
        E 16 b1 0b 11
        E 16 b1 0b 08
        E 16 b1 0c 10
        E 0 b1 0b 4c
        E 0 81 22 00
        E 0 91 21 4c
        E 48 b1 0c 20
        E 48 b1 0c 40
        E 80 b1 0b 44
        E 16 b1 0b 3b
        E 16 b1 0b 33
        E 16 b1 0b 22
        E 16 b1 0b 19
        E 16 b1 0b 11
        E 16 b1 0b 08
        E 16 b1 0c 10
        E 0 b1 0b 4c
        E 0 81 21 00
        E 0 91 1f 4c
        E 48 b1 0c 20
        E 48 b1 0c 40
        E 80 b1 0b 44
        E 16 b1 0b 3b
        E 16 b1 0b 33
        E 16 b1 0b 22
        E 16 b1 0b 19
        E 16 b1 0b 11
        E 16 b1 0b 08
        E 16 b1 0c 10
        E 0 b1 0b 4c
        E 0 81 1f 00
        E 0 91 21 4c
        E 48 b1 0c 20
        E 48 b1 0c 40
        E 80 b1 0b 44
        E 16 b1 0b 3b
        E 16 b1 0b 33
        E 16 b1 0b 22
        E 16 b1 0b 19
        E 16 b1 0b 11
        E 16 b1 0b 08
        E 16 b1 0c 10
        E 0 b1 0b 4c
        E 0 81 21 00
        E 0 91 22 4c
        E 48 b1 0c 20
        E 48 b1 0c 40
        E 80 b1 0b 44
        E 16 b1 0b 3b
        E 16 b1 0b 33
        E 16 b1 0b 22
        E 16 b1 0b 19
        E 16 b1 0b 11
        E 16 b1 0b 08
        E 16 b1 0c 10
        E 0 b1 0b 4c
        E 0 81 22 00
        E 0 91 23 4c
        E 48 b1 0c 20
        E 48 b1 0c 40
        E 80 b1 0b 44
        E 16 b1 0b 3b
        E 16 b1 0b 33
        E 16 b1 0b 22
        E 16 b1 0b 19
        E 16 b1 0b 11
        E 16 b1 0b 08
        E 16 b1 0c 10
        E 0 b1 0b 4c
        E 0 81 23 00
        E 0 91 24 4c
        E 48 b1 0c 20
        E 48 b1 0c 40
        E 80 b1 0b 44
        E 16 b1 0b 3b
        E 16 b1 0b 33
        E 16 b1 0b 22
        E 16 b1 0b 19
        E 16 b1 0b 11
        E 16 b1 0b 08
        E 16 b1 0c 10
        E 0 b1 0b 4c
        E 0 81 24 00
        E 0 91 22 4c
        E 48 b1 0c 20
        E 48 b1 0c 40
        E 80 b1 0b 44
        E 16 b1 0b 3b
        E 16 b1 0b 33
        E 16 b1 0b 22
        E 16 b1 0b 19
        E 16 b1 0b 11
        E 16 b1 0b 08
        E 16 b1 0c 10
        E 0 b1 0b 4c
        E 0 81 22 00
        E 0 91 21 4c
        E 48 b1 0c 20
        E 48 b1 0c 40
        E 80 b1 0b 44
        E 16 b1 0b 3b
        E 16 b1 0b 33
        E 16 b1 0b 22
        E 16 b1 0b 19
        E 16 b1 0b 11
        E 16 b1 0b 08
        E 16 b1 0c 10
        E 0 b1 0b 4c
        E 0 81 21 00
        E 0 91 1e 4c
        E 48 b1 0c 20
        E 48 b1 0c 40
        E 80 b1 0b 44
        E 16 b1 0b 3b
        E 16 b1 0b 33
        E 16 b1 0b 22
        E 16 b1 0b 19
        E 16 b1 0b 11
        E 16 b1 0b 08
        E 32 b1 0c 10
        E 0 b1 0b 4c
        E 0 81 1e 00
        E 0 91 1f 4c
        E 48 b1 0c 20
        E 48 b1 0c 40
        E 80 b1 0b 44
        E 16 b1 0b 3b
        E 16 b1 0b 33
        E 16 b1 0b 22
        E 16 b1 0b 19
        E 16 b1 0b 11
        E 16 b1 0b 08
        E 16 b1 0c 10
        E 0 b1 0b 4c
        E 0 81 1f 00
        E 0 91 22 4c
        E 48 b1 0c 20
        E 48 b1 0c 40
        E 80 b1 0b 44
        E 16 b1 0b 3b
        E 16 b1 0b 33
        E 16 b1 0b 22
        E 16 b1 0b 19
        E 16 b1 0b 11
        E 16 b1 0b 08
        E 16 b1 0c 10
        E 0 b1 0b 4c
        E 0 81 22 00
        E 0 91 26 4c
        E 48 b1 0c 20
        E 48 b1 0c 40
        E 80 b1 0b 44
        E 16 b1 0b 3b
        E 16 b1 0b 33
        E 16 b1 0b 22
        E 16 b1 0b 19
        E 16 b1 0b 11
        E 16 b1 0b 08
        E 16 b1 0c 10
        E 0 b1 0b 4c
        E 0 81 26 00
        E 0 91 1f 4c
        E 48 b1 0c 20
        E 48 b1 0c 40
        E 80 b1 0b 44
        E 16 b1 0b 3b
        E 16 b1 0b 33
        E 16 b1 0b 22
        E 16 b1 0b 19
        E 16 b1 0b 11
        E 16 b1 0b 08
        E 16 b1 0c 10
        E 0 b1 0b 4c
        E 0 81 1f 00
        E 0 91 20 4c
        E 48 b1 0c 20
        E 48 b1 0c 40
        E 80 b1 0b 44
        E 16 b1 0b 3b
        E 16 b1 0b 33
        E 16 b1 0b 22
        E 16 b1 0b 19
        E 16 b1 0b 11
        E 16 b1 0b 08
        E 16 b1 0c 10
        E 0 b1 0b 4c
        E 0 81 20 00
        E 0 91 23 4c
        E 48 b1 0c 20
        E 48 b1 0c 40
        E 80 b1 0b 44
        E 16 b1 0b 3b
        E 16 b1 0b 33
        E 16 b1 0b 22
        E 16 b1 0b 19
        E 16 b1 0b 11
        E 16 b1 0b 08
        E 16 b1 0c 10
        E 0 b1 0b 4c
        E 0 81 23 00
        E 0 91 26 4c
        E 48 b1 0c 20
        E 48 b1 0c 40
        E 80 b1 0b 44
        E 16 b1 0b 3b
        E 16 b1 0b 33
        E 16 b1 0b 22
        E 16 b1 0b 19
        E 16 b1 0b 11
        E 16 b1 0b 08
        E 16 b1 0c 10
        E 0 b1 0b 4c
        E 0 81 26 00
        E 0 91 20 4c
        E 48 b1 0c 20
        E 48 b1 0c 40
        E 80 b1 0b 44
        E 16 b1 0b 3b
        E 16 b1 0b 33
        E 16 b1 0b 22
        E 16 b1 0b 19
        E 16 b1 0b 11
        E 16 b1 0b 08
        E 16 b1 0c 10
        E 0 b1 0b 4c
        E 0 81 20 00
        E 0 91 21 4c
        E 48 b1 0c 20
        E 48 b1 0c 40
        E 80 b1 0b 44
        E 16 b1 0b 3b
        E 16 b1 0b 33
        E 16 b1 0b 22
        E 16 b1 0b 19
        E 16 b1 0b 11
        E 16 b1 0b 08
        E 16 b1 0c 10
        E 0 b1 0b 4c
        E 0 81 21 00
        E 0 91 23 4c
        E 48 b1 0c 20
        E 48 b1 0c 40
        E 80 b1 0b 44
        E 16 b1 0b 3b
        E 16 b1 0b 33
        E 16 b1 0b 22
        E 16 b1 0b 19
        E 16 b1 0b 11
        E 16 b1 0b 08
        E 16 b1 0c 10
        E 0 b1 0b 4c
        E 0 81 23 00
        E 0 91 24 4c
        E 48 b1 0c 20
        E 48 b1 0c 40
        E 80 b1 0b 44
        E 16 b1 0b 3b
        E 16 b1 0b 33
        E 16 b1 0b 22
        E 16 b1 0b 19
        E 16 b1 0b 11
        E 16 b1 0b 08
        E 16 b1 0c 10
        E 0 b1 0b 4c
        E 0 81 24 00
        E 0 91 28 4c
        E 48 b1 0c 20
        E 48 b1 0c 40
        E 80 b1 0b 44
        E 16 b1 0b 3b
        E 16 b1 0b 33
        E 16 b1 0b 22
        E 16 b1 0b 19
        E 16 b1 0b 11
        E 16 b1 0b 08
        E 16 b1 0c 10
        E 0 b1 0b 4c
        E 0 81 28 00
        E 0 91 26 4c
        E 48 b1 0c 20
        E 48 b1 0c 40
        E 80 b1 0b 44
        E 16 b1 0b 3b
        E 16 b1 0b 33
        E 16 b1 0b 22
        E 16 b1 0b 19
        E 16 b1 0b 11
        E 16 b1 0b 08
        E 16 b1 0c 10
        E 0 b1 0b 4c
        E 0 81 26 00
        E 0 91 21 4c
        E 48 b1 0c 20
        E 48 b1 0c 40
        E 80 b1 0b 44
        E 16 b1 0b 3b
        E 16 b1 0b 33
        E 16 b1 0b 22
        E 16 b1 0b 19
        E 16 b1 0b 11
        E 16 b1 0b 08
        E 16 b1 0c 10
        E 0 b1 0b 4c
        E 0 81 21 00
        E 0 91 26 4c
        E 48 b1 0c 20
        E 48 b1 0c 40
        E 80 b1 0b 44
        E 16 b1 0b 3b
        E 16 b1 0b 33
        E 16 b1 0b 22
        E 16 b1 0b 19
        E 16 b1 0b 11
        E 16 b1 0b 08
        E 16 b1 0c 10
        E 0 b1 0b 4c
        E 0 81 26 00
        E 0 91 20 4c
        E 48 b1 0c 20
        E 48 b1 0c 40
        E 80 b1 0b 44
        E 16 b1 0b 3b
        E 16 b1 0b 33
        E 16 b1 0b 22
        E 16 b1 0b 19
        E 16 b1 0b 11
        E 16 b1 0b 08
        E 16 b1 0c 10
        E 0 b1 0b 4c
        E 0 81 20 00
        E 0 91 1f 4c
        E 48 b1 0c 20
        E 48 b1 0c 40
        E 80 b1 0b 44
        E 16 b1 0b 3b
        E 16 b1 0b 33
        E 16 b1 0b 22
        E 16 b1 0b 19
        E 16 b1 0b 11
        E 16 b1 0b 08
        E 16 b1 0c 10
        E 0 b1 0b 4c
        E 0 81 1f 00
        E 0 91 21 4c
        E 48 b1 0c 20
        E 48 b1 0c 40
        E 80 b1 0b 44
        E 16 b1 0b 3b
        E 16 b1 0b 33
        E 16 b1 0b 22
        E 16 b1 0b 19
        E 16 b1 0b 11
        E 16 b1 0b 08
        E 16 b1 0c 10
        E 0 b1 0b 4c
        E 0 81 21 00
        E 0 91 22 4c
        E 48 b1 0c 20
        E 48 b1 0c 40
        E 80 b1 0b 44
        E 16 b1 0b 3b
        E 16 b1 0b 33
        E 16 b1 0b 22
        E 16 b1 0b 19
        E 16 b1 0b 11
        E 16 b1 0b 08
        E 16 b1 0c 10
        E 0 b1 0b 4c
        E 0 81 22 00
        E 0 91 23 4c
        E 48 b1 0c 20
        E 48 b1 0c 40
        E 80 b1 0b 44
        E 16 b1 0b 3b
        E 16 b1 0b 33
        E 16 b1 0b 22
        E 16 b1 0b 19
        E 16 b1 0b 11
        E 16 b1 0b 08
        E 16 b1 0c 10
        E 0 b1 0b 4c
        E 0 81 23 00
        E 0 91 24 4c
        E 48 b1 0c 20
        E 48 b1 0c 40
        E 80 b1 0b 44
        E 16 b1 0b 3b
        E 16 b1 0b 33
        E 16 b1 0b 22
        E 16 b1 0b 19
        E 16 b1 0b 11
        E 16 b1 0b 08
        E 16 b1 0c 10
        E 0 b1 0b 4c
        E 0 81 24 00
        E 0 91 22 4c
        E 48 b1 0c 20
        E 48 b1 0c 40
        E 80 b1 0b 44
        E 16 b1 0b 3b
        E 16 b1 0b 33
        E 16 b1 0b 22
        E 16 b1 0b 19
        E 16 b1 0b 11
        E 16 b1 0b 08
        E 16 b1 0c 10
        E 0 b1 0b 4c
        E 0 81 22 00
        E 0 91 21 4c
        E 48 b1 0c 20
        E 48 b1 0c 40
        E 80 b1 0b 44
        E 16 b1 0b 3b
        E 16 b1 0b 33
        E 16 b1 0b 22
        E 16 b1 0b 19
        E 16 b1 0b 11
        E 16 b1 0b 08
        E 16 b1 0c 10
        E 0 b1 0b 4c
        E 0 81 21 00
        E 0 91 1f 4c
        E 48 b1 0c 20
        E 48 b1 0c 40
        E 80 b1 0b 44
        E 16 b1 0b 3b
        E 16 b1 0b 33
        E 16 b1 0b 22
        E 16 b1 0b 19
        E 16 b1 0b 11
        E 16 b1 0b 08
        E 16 b1 0c 10
        E 0 b1 0b 4c
        E 0 81 1f 00
        E 0 91 1d 4c
        E 48 b1 0c 20
        E 48 b1 0c 40
        E 80 b1 0b 44
        E 16 b1 0b 3b
        E 16 b1 0b 33
        E 16 b1 0b 22
        E 16 b1 0b 19
        E 16 b1 0b 11
        E 16 b1 0b 08
        E 16 b1 0c 10
        E 0 b1 0b 4c
        E 0 81 1d 00
        E 0 91 24 4c
        E 48 b1 0c 20
        E 48 b1 0c 40
        E 80 b1 0b 44
        E 16 b1 0b 3b
        E 16 b1 0b 33
        E 16 b1 0b 22
        E 16 b1 0b 19
        E 16 b1 0b 11
        E 16 b1 0b 08
        E 16 b1 0c 10
        E 0 b1 0b 4c
        E 0 81 24 00
        E 0 91 1c 4c
        E 48 b1 0c 20
        E 48 b1 0c 40
        E 80 b1 0b 44
        E 16 b1 0b 3b
        E 16 b1 0b 33
        E 16 b1 0b 22
        E 16 b1 0b 19
        E 16 b1 0b 11
        E 16 b1 0b 08
        E 16 b1 0c 10
        E 0 b1 0b 4c
        E 0 81 1c 00
        E 0 91 23 4c
        E 48 b1 0c 20
        E 48 b1 0c 40
        E 80 b1 0b 44
        E 16 b1 0b 3b
        E 16 b1 0b 33
        E 16 b1 0b 22
        E 16 b1 0b 19
        E 16 b1 0b 11
        E 16 b1 0b 08
        E 16 b1 0c 10
        E 0 b1 0b 4c
        E 0 81 23 00
        E 0 91 1b 4c
        E 48 b1 0c 20
        E 48 b1 0c 40
        E 80 b1 0b 44
        E 16 b1 0b 3b
        E 16 b1 0b 33
        E 16 b1 0b 22
        E 16 b1 0b 19
        E 16 b1 0b 11
        E 16 b1 0b 08
        E 16 b1 0c 10
        E 0 b1 0b 4c
        E 0 81 1b 00
        E 0 91 22 4c
        E 48 b1 0c 20
        E 48 b1 0c 40
        E 80 b1 0b 44
        E 16 b1 0b 3b
        E 16 b1 0b 33
        E 16 b1 0b 22
        E 16 b1 0b 19
        E 16 81 22 00
        E 0 b1 7b 00
        E 0 ff 2f 00
      >
    >
  >
  <TRACK {A791487F-21B1-4360-981B-9B1F443C7337}
    NAME "NES - Triangle [ch2]"
    PEAKCOL 16744192
    BEAT -1
    AUTOMODE 0
    PANLAWFLAGS 3
    VOLPAN 1 0 -1 -1 1
    MUTESOLO 0 0 0
    IPHASE 0
    PLAYOFFS 0 1
    ISBUS 0 0
    BUSCOMP 0 0 0 0 0
    SHOWINMIX 1 0.6667 0.5 1 0.5 0 0 0
    FIXEDLANES 9 0 0 0 0
    SEL 0
    REC 0 5088 1 0 0 0 0 0
    VU 2
    TRACKHEIGHT 0 0 0 0 0 0 0
    INQ 0 0 0 0.5 100 0 0 100
    NCHAN 2
    FX 1
    TRACKID {A791487F-21B1-4360-981B-9B1F443C7337}
    PERF 0
    MIDIOUT -1
    MAINSEND 1 0
    <FXCHAIN
      WNDRECT 24 52 700 560
      SHOW 0
      LASTSEL 0
      DOCKED 0
      BYPASS 0 0 0
      <JS "ReapNES Studio/ReapNES_Console.jsfx" ""
        2 15 1 10 80 10 100 2 1 15 1 5 60 10 80 1 1 0 50 0 0 15 1 0 100 0 0 0.500000 0.500000 0.400000 0.300000 0.800000 2 1 0 0 0 0 - - - - - - - - - - - - - - - - - - - - - - - - - -
      >
      FLOATPOS 0 0 0 0
      FXID {56289E55-2001-4FB0-9D9A-5DC33C485754}
      WAK 0 0
    >
    <ITEM
      POSITION 0
      LENGTH 74.5723195
      LOOP 0
      ALLTAKES 0
      FADEIN 0 0 0 0 0 0 0
      FADEOUT 0 0 0 0 0 0 0
      MUTE 0 0
      SEL 0
      IGUID {02B3B097-F1D0-4D4A-9198-EC37A26D84DF}
      <SOURCE MIDI
        HASDATA 1 480 QN
        CCINTERP 32
        E 0 c2 26
        E 304 b2 0b 7f
        E 0 92 38 7f
        E 96 82 38 00
        E 0 b2 0b 7f
        E 0 92 3b 7f
        E 96 82 3b 00
        E 0 b2 0b 7f
        E 0 92 3e 7f
        E 96 82 3e 00
        E 0 b2 0b 7f
        E 0 92 41 7f
        E 96 82 41 00
        E 0 b2 0b 7f
        E 0 92 43 7f
        E 192 82 43 00
        E 0 b2 0b 7f
        E 0 92 41 7f
        E 176 82 41 00
        E 400 b2 0b 7f
        E 0 92 40 7f
        E 96 82 40 00
        E 0 b2 0b 7f
        E 0 92 3c 7f
        E 96 82 3c 00
        E 0 b2 0b 7f
        E 0 92 39 7f
        E 96 82 39 00
        E 0 b2 0b 7f
        E 0 92 37 7f
        E 96 82 37 00
        E 0 b2 0b 7f
        E 0 92 3e 7f
        E 192 82 3e 00
        E 0 b2 0b 7f
        E 0 92 3c 7f
        E 176 82 3c 00
        E 400 b2 0b 7f
        E 0 92 36 7f
        E 96 82 36 00
        E 0 b2 0b 7f
        E 0 92 39 7f
        E 96 82 39 00
        E 0 b2 0b 7f
        E 0 92 3c 7f
        E 96 82 3c 00
        E 0 b2 0b 7f
        E 0 92 3e 7f
        E 96 82 3e 00
        E 0 b2 0b 7f
        E 0 92 40 7f
        E 192 82 40 00
        E 0 b2 0b 7f
        E 0 92 3e 7f
        E 176 82 3e 00
        E 400 b2 0b 7f
        E 0 92 35 7f
        E 96 82 35 00
        E 0 b2 0b 7f
        E 0 92 37 7f
        E 96 82 37 00
        E 0 b2 0b 7f
        E 0 92 3a 7f
        E 96 82 3a 00
        E 0 b2 0b 7f
        E 0 92 3e 7f
        E 96 82 3e 00
        E 0 b2 0b 7f
        E 0 92 45 7f
        E 192 82 45 00
        E 0 b2 0b 7f
        E 0 92 41 7f
        E 160 82 41 00
        E 416 b2 0b 7f
        E 0 92 34 7f
        E 96 82 34 00
        E 0 b2 0b 7f
        E 0 92 37 7f
        E 96 82 37 00
        E 0 b2 0b 7f
        E 0 92 3a 7f
        E 96 82 3a 00
        E 0 b2 0b 7f
        E 0 92 3e 7f
        E 96 82 3e 00
        E 0 b2 0b 7f
        E 0 92 43 7f
        E 192 82 43 00
        E 0 b2 0b 7f
        E 0 92 40 7f
        E 192 82 40 00
        E 96 b2 0b 7f
        E 0 92 3c 7f
        E 288 82 3c 00
        E 0 b2 0b 7f
        E 0 92 35 7f
        E 96 82 35 00
        E 0 b2 0b 7f
        E 0 92 39 7f
        E 192 82 39 00
        E 0 b2 0b 7f
        E 0 92 3c 7f
        E 96 82 3c 00
        E 0 b2 0b 7f
        E 0 92 3b 7f
        E 192 82 3b 00
        E 0 b2 0b 7f
        E 0 92 34 7f
        E 96 82 34 00
        E 0 b2 0b 7f
        E 0 92 38 7f
        E 192 82 38 00
        E 0 b2 0b 7f
        E 0 92 3b 7f
        E 96 82 3b 00
        E 0 b2 0b 7f
        E 0 92 3a 7f
        E 192 82 3a 00
        E 0 b2 0b 7f
        E 0 92 33 7f
        E 96 82 33 00
        E 0 b2 0b 7f
        E 0 92 37 7f
        E 192 82 37 00
        E 0 b2 0b 7f
        E 0 92 3a 7f
        E 96 82 3a 00
        E 0 b2 0b 7f
        E 0 92 39 7f
        E 96 82 39 00
        E 0 b2 0b 7f
        E 0 92 32 7f
        E 96 82 32 00
        E 0 b2 0b 7f
        E 0 92 36 7f
        E 96 82 36 00
        E 0 b2 0b 7f
        E 0 92 39 7f
        E 96 82 39 00
        E 0 b2 0b 7f
        E 0 92 3c 7f
        E 96 82 3c 00
        E 0 b2 0b 7f
        E 0 92 3f 7f
        E 96 82 3f 00
        E 0 b2 0b 7f
        E 0 92 3e 7f
        E 96 82 3e 00
        E 0 b2 0b 7f
        E 0 92 41 7f
        E 96 82 41 00
        E 0 b2 0b 7f
        E 0 92 3a 7f
        E 96 82 3a 00
        E 0 b2 0b 7f
        E 0 92 37 7f
        E 96 82 37 00
        E 0 b2 0b 7f
        E 0 92 3e 7f
        E 96 82 3e 00
        E 0 b2 0b 7f
        E 0 92 41 7f
        E 96 82 41 00
        E 0 b2 0b 7f
        E 0 92 3a 7f
        E 96 82 3a 00
        E 0 b2 0b 7f
        E 0 92 3e 7f
        E 96 82 3e 00
        E 0 b2 0b 7f
        E 0 92 41 7f
        E 96 82 41 00
        E 0 b2 0b 7f
        E 0 92 43 7f
        E 96 82 43 00
        E 0 b2 0b 7f
        E 0 92 3e 7f
        E 96 82 3e 00
        E 0 b2 0b 7f
        E 0 92 3a 7f
        E 96 82 3a 00
        E 0 b2 0b 7f
        E 0 92 3b 7f
        E 96 82 3b 00
        E 0 b2 0b 7f
        E 0 92 38 7f
        E 96 82 38 00
        E 0 b2 0b 7f
        E 0 92 3b 7f
        E 96 82 3b 00
        E 0 b2 0b 7f
        E 0 92 3e 7f
        E 96 82 3e 00
        E 0 b2 0b 7f
        E 0 92 41 7f
        E 96 82 41 00
        E 0 b2 0b 7f
        E 0 92 44 7f
        E 96 82 44 00
        E 0 b2 0b 7f
        E 0 92 47 7f
        E 96 82 47 00
        E 0 b2 0b 7f
        E 0 92 44 7f
        E 96 82 44 00
        E 0 b2 0b 7f
        E 0 92 41 7f
        E 96 82 41 00
        E 0 b2 0b 7f
        E 0 92 3e 7f
        E 96 82 3e 00
        E 0 b2 0b 7f
        E 0 92 3b 7f
        E 96 82 3b 00
        E 0 b2 0b 7f
        E 0 92 38 7f
        E 96 82 38 00
        E 0 b2 0b 7f
        E 0 92 39 7f
        E 96 82 39 00
        E 0 b2 0b 7f
        E 0 92 3c 7f
        E 96 82 3c 00
        E 0 b2 0b 7f
        E 0 92 40 7f
        E 96 82 40 00
        E 0 b2 0b 7f
        E 0 92 43 7f
        E 96 82 43 00
        E 0 b2 0b 7f
        E 0 92 47 7f
        E 96 82 47 00
        E 0 b2 0b 7f
        E 0 92 45 7f
        E 96 82 45 00
        E 0 b2 0b 7f
        E 0 92 43 7f
        E 96 82 43 00
        E 0 b2 0b 7f
        E 0 92 40 7f
        E 96 82 40 00
        E 0 b2 0b 7f
        E 0 92 3c 7f
        E 96 82 3c 00
        E 0 b2 0b 7f
        E 0 92 39 7f
        E 96 82 39 00
        E 0 b2 0b 7f
        E 0 92 37 7f
        E 96 82 37 00
        E 0 b2 0b 7f
        E 0 92 39 7f
        E 96 82 39 00
        E 0 b2 0b 7f
        E 0 92 3c 7f
        E 96 82 3c 00
        E 0 b2 0b 7f
        E 0 92 40 7f
        E 96 82 40 00
        E 0 b2 0b 7f
        E 0 92 42 7f
        E 96 82 42 00
        E 0 b2 0b 7f
        E 0 92 45 7f
        E 96 82 45 00
        E 0 b2 0b 7f
        E 0 92 42 7f
        E 96 82 42 00
        E 0 b2 0b 7f
        E 0 92 40 7f
        E 96 82 40 00
        E 0 b2 0b 7f
        E 0 92 3c 7f
        E 96 82 3c 00
        E 0 b2 0b 7f
        E 0 92 39 7f
        E 96 82 39 00
        E 0 b2 0b 7f
        E 0 92 36 7f
        E 96 82 36 00
        E 0 b2 0b 7f
        E 0 92 39 7f
        E 96 82 39 00
        E 0 b2 0b 7f
        E 0 92 3c 7f
        E 96 82 3c 00
        E 0 b2 0b 7f
        E 0 92 3f 7f
        E 96 82 3f 00
        E 0 b2 0b 7f
        E 0 92 3e 7f
        E 96 82 3e 00
        E 0 b2 0b 7f
        E 0 92 3a 7f
        E 96 82 3a 00
        E 0 b2 0b 7f
        E 0 92 37 7f
        E 96 82 37 00
        E 0 b2 0b 7f
        E 0 92 35 7f
        E 96 82 35 00
        E 0 b2 0b 7f
        E 0 92 37 7f
        E 96 82 37 00
        E 0 b2 0b 7f
        E 0 92 39 7f
        E 96 82 39 00
        E 0 b2 0b 7f
        E 0 92 3a 7f
        E 96 82 3a 00
        E 0 b2 0b 7f
        E 0 92 3e 7f
        E 96 82 3e 00
        E 0 b2 0b 7f
        E 0 92 41 7f
        E 96 82 41 00
        E 0 b2 0b 7f
        E 0 92 43 7f
        E 96 82 43 00
        E 0 b2 0b 7f
        E 0 92 45 7f
        E 96 82 45 00
        E 0 b2 0b 7f
        E 0 92 41 7f
        E 96 82 41 00
        E 0 b2 0b 7f
        E 0 92 40 7f
        E 96 82 40 00
        E 0 b2 0b 7f
        E 0 92 3c 7f
        E 96 82 3c 00
        E 0 b2 0b 7f
        E 0 92 3a 7f
        E 96 82 3a 00
        E 0 b2 0b 7f
        E 0 92 37 7f
        E 96 82 37 00
        E 0 b2 0b 7f
        E 0 92 3a 7f
        E 96 82 3a 00
        E 0 b2 0b 7f
        E 0 92 3c 7f
        E 96 82 3c 00
        E 0 b2 0b 7f
        E 0 92 40 7f
        E 96 82 40 00
        E 0 b2 0b 7f
        E 0 92 46 7f
        E 96 82 46 00
        E 0 b2 0b 7f
        E 0 92 43 7f
        E 96 82 43 00
        E 0 b2 0b 7f
        E 0 92 40 7f
        E 96 82 40 00
        E 0 b2 0b 7f
        E 0 92 3c 7f
        E 96 82 3c 00
        E 0 b2 0b 7f
        E 0 92 37 7f
        E 96 82 37 00
        E 0 b2 0b 7f
        E 0 92 35 7f
        E 96 82 35 00
        E 0 b2 0b 7f
        E 0 92 39 7f
        E 96 82 39 00
        E 0 b2 0b 7f
        E 0 92 3c 7f
        E 96 82 3c 00
        E 0 b2 0b 7f
        E 0 92 39 7f
        E 96 82 39 00
        E 0 b2 0b 7f
        E 0 92 3c 7f
        E 96 82 3c 00
        E 0 b2 0b 7f
        E 0 92 41 7f
        E 96 82 41 00
        E 0 b2 0b 7f
        E 0 92 37 7f
        E 96 82 37 00
        E 0 b2 0b 7f
        E 0 92 3a 7f
        E 96 82 3a 00
        E 0 b2 0b 7f
        E 0 92 3e 7f
        E 96 82 3e 00
        E 0 b2 0b 7f
        E 0 92 3a 7f
        E 96 82 3a 00
        E 0 b2 0b 7f
        E 0 92 3e 7f
        E 96 82 3e 00
        E 0 b2 0b 7f
        E 0 92 41 7f
        E 96 82 41 00
        E 0 b2 0b 7f
        E 0 92 39 7f
        E 96 82 39 00
        E 0 b2 0b 7f
        E 0 92 3c 7f
        E 96 82 3c 00
        E 0 b2 0b 7f
        E 0 92 40 7f
        E 96 82 40 00
        E 0 b2 0b 7f
        E 0 92 3c 7f
        E 96 82 3c 00
        E 0 b2 0b 7f
        E 0 92 40 7f
        E 96 82 40 00
        E 0 b2 0b 7f
        E 0 92 43 7f
        E 96 82 43 00
        E 0 b2 0b 7f
        E 0 92 38 7f
        E 96 82 38 00
        E 0 b2 0b 7f
        E 0 92 3b 7f
        E 96 82 3b 00
        E 0 b2 0b 7f
        E 0 92 3f 7f
        E 96 82 3f 00
        E 0 b2 0b 7f
        E 0 92 3b 7f
        E 96 82 3b 00
        E 0 b2 0b 7f
        E 0 92 3f 7f
        E 96 82 3f 00
        E 0 b2 0b 7f
        E 0 92 42 7f
        E 96 82 42 00
        E 0 b2 0b 7f
        E 0 92 37 7f
        E 96 82 37 00
        E 0 b2 0b 7f
        E 0 92 3a 7f
        E 96 82 3a 00
        E 0 b2 0b 7f
        E 0 92 3c 7f
        E 96 82 3c 00
        E 0 b2 0b 7f
        E 0 92 3e 7f
        E 96 82 3e 00
        E 0 b2 0b 7f
        E 0 92 41 7f
        E 96 82 41 00
        E 0 b2 0b 7f
        E 0 92 43 7f
        E 96 82 43 00
        E 0 b2 0b 7f
        E 0 92 3e 7f
        E 96 82 3e 00
        E 0 b2 0b 7f
        E 0 92 41 7f
        E 96 82 41 00
        E 0 b2 0b 7f
        E 0 92 3c 7f
        E 96 82 3c 00
        E 0 b2 0b 7f
        E 0 92 3a 7f
        E 96 82 3a 00
        E 0 b2 0b 7f
        E 0 92 39 7f
        E 96 82 39 00
        E 0 b2 0b 7f
        E 0 92 37 7f
        E 96 82 37 00
        E 0 b2 0b 7f
        E 0 92 3a 7f
        E 96 82 3a 00
        E 0 b2 0b 7f
        E 0 92 3c 7f
        E 96 82 3c 00
        E 0 b2 0b 7f
        E 0 92 40 7f
        E 96 82 40 00
        E 0 b2 0b 7f
        E 0 92 43 7f
        E 96 82 43 00
        E 0 b2 0b 7f
        E 0 92 46 7f
        E 96 82 46 00
        E 0 b2 0b 7f
        E 0 92 43 7f
        E 96 82 43 00
        E 0 b2 0b 7f
        E 0 92 40 7f
        E 96 82 40 00
        E 0 b2 0b 7f
        E 0 92 3c 7f
        E 96 82 3c 00
        E 0 b2 0b 7f
        E 0 92 3a 7f
        E 96 82 3a 00
        E 0 b2 0b 7f
        E 0 92 37 7f
        E 96 82 37 00
        E 0 b2 0b 7f
        E 0 92 34 7f
        E 96 82 34 00
        E 0 b2 0b 7f
        E 0 92 37 7f
        E 96 82 37 00
        E 0 b2 0b 7f
        E 0 92 35 7f
        E 96 82 35 00
        E 0 b2 0b 7f
        E 0 92 39 7f
        E 96 82 39 00
        E 0 b2 0b 7f
        E 0 92 3c 7f
        E 96 82 3c 00
        E 0 b2 0b 7f
        E 0 92 39 7f
        E 96 82 39 00
        E 0 b2 0b 7f
        E 0 92 3c 7f
        E 96 82 3c 00
        E 0 b2 0b 7f
        E 0 92 41 7f
        E 96 82 41 00
        E 0 b2 0b 7f
        E 0 92 37 7f
        E 96 82 37 00
        E 0 b2 0b 7f
        E 0 92 3a 7f
        E 96 82 3a 00
        E 0 b2 0b 7f
        E 0 92 3e 7f
        E 96 82 3e 00
        E 0 b2 0b 7f
        E 0 92 3a 7f
        E 96 82 3a 00
        E 0 b2 0b 7f
        E 0 92 3e 7f
        E 96 82 3e 00
        E 0 b2 0b 7f
        E 0 92 41 7f
        E 96 82 41 00
        E 0 b2 0b 7f
        E 0 92 39 7f
        E 96 82 39 00
        E 0 b2 0b 7f
        E 0 92 3c 7f
        E 96 82 3c 00
        E 0 b2 0b 7f
        E 0 92 40 7f
        E 96 82 40 00
        E 0 b2 0b 7f
        E 0 92 3c 7f
        E 96 82 3c 00
        E 0 b2 0b 7f
        E 0 92 40 7f
        E 96 82 40 00
        E 0 b2 0b 7f
        E 0 92 43 7f
        E 96 82 43 00
        E 0 b2 0b 7f
        E 0 92 38 7f
        E 96 82 38 00
        E 0 b2 0b 7f
        E 0 92 3b 7f
        E 96 82 3b 00
        E 0 b2 0b 7f
        E 0 92 3f 7f
        E 96 82 3f 00
        E 0 b2 0b 7f
        E 0 92 3b 7f
        E 96 82 3b 00
        E 0 b2 0b 7f
        E 0 92 3f 7f
        E 96 82 3f 00
        E 0 b2 0b 7f
        E 0 92 42 7f
        E 96 82 42 00
        E 0 b2 0b 7f
        E 0 92 37 7f
        E 96 82 37 00
        E 0 b2 0b 7f
        E 0 92 3a 7f
        E 96 82 3a 00
        E 0 b2 0b 7f
        E 0 92 3c 7f
        E 96 82 3c 00
        E 0 b2 0b 7f
        E 0 92 3e 7f
        E 96 82 3e 00
        E 0 b2 0b 7f
        E 0 92 41 7f
        E 96 82 41 00
        E 0 b2 0b 7f
        E 0 92 43 7f
        E 96 82 43 00
        E 0 b2 0b 7f
        E 0 92 3e 7f
        E 96 82 3e 00
        E 0 b2 0b 7f
        E 0 92 41 7f
        E 96 82 41 00
        E 0 b2 0b 7f
        E 0 92 3c 7f
        E 96 82 3c 00
        E 0 b2 0b 7f
        E 0 92 3a 7f
        E 96 82 3a 00
        E 0 b2 0b 7f
        E 0 92 39 7f
        E 96 82 39 00
        E 0 b2 0b 7f
        E 0 92 37 7f
        E 96 82 37 00
        E 0 b2 0b 7f
        E 0 92 3a 7f
        E 96 82 3a 00
        E 0 b2 0b 7f
        E 0 92 3c 7f
        E 96 82 3c 00
        E 0 b2 0b 7f
        E 0 92 40 7f
        E 96 82 40 00
        E 0 b2 0b 7f
        E 0 92 43 7f
        E 96 82 43 00
        E 0 b2 0b 7f
        E 0 92 46 7f
        E 96 82 46 00
        E 0 b2 0b 7f
        E 0 92 43 7f
        E 96 82 43 00
        E 0 b2 0b 7f
        E 0 92 40 7f
        E 96 82 40 00
        E 0 b2 0b 7f
        E 0 92 3c 7f
        E 96 82 3c 00
        E 0 b2 0b 7f
        E 0 92 3a 7f
        E 96 82 3a 00
        E 0 b2 0b 7f
        E 0 92 37 7f
        E 96 82 37 00
        E 0 b2 0b 7f
        E 0 92 34 7f
        E 96 82 34 00
        E 0 b2 0b 7f
        E 0 92 37 7f
        E 192 82 37 00
        E 0 b2 0b 7f
        E 0 92 39 7f
        E 96 82 39 00
        E 0 b2 0b 7f
        E 0 92 3c 7f
        E 96 82 3c 00
        E 0 b2 0b 7f
        E 0 92 40 7f
        E 96 82 40 00
        E 0 b2 0b 7f
        E 0 92 3c 7f
        E 96 82 3c 00
        E 0 b2 0b 7f
        E 0 92 39 7f
        E 96 82 39 00
        E 0 b2 0b 7f
        E 0 92 37 7f
        E 96 82 37 00
        E 0 b2 0b 7f
        E 0 92 39 7f
        E 96 82 39 00
        E 0 b2 0b 7f
        E 0 92 3c 7f
        E 96 82 3c 00
        E 0 b2 0b 7f
        E 0 92 40 7f
        E 96 82 40 00
        E 0 b2 0b 7f
        E 0 92 3c 7f
        E 96 82 3c 00
        E 0 b2 0b 7f
        E 0 92 39 7f
        E 96 82 39 00
        E 0 b2 0b 7f
        E 0 92 36 7f
        E 96 82 36 00
        E 0 b2 0b 7f
        E 0 92 39 7f
        E 96 82 39 00
        E 0 b2 0b 7f
        E 0 92 3c 7f
        E 96 82 3c 00
        E 0 b2 0b 7f
        E 0 92 40 7f
        E 96 82 40 00
        E 0 b2 0b 7f
        E 0 92 3c 7f
        E 96 82 3c 00
        E 0 b2 0b 7f
        E 0 92 39 7f
        E 96 82 39 00
        E 0 b2 0b 7f
        E 0 92 36 7f
        E 96 82 36 00
        E 0 b2 0b 7f
        E 0 92 39 7f
        E 96 82 39 00
        E 0 b2 0b 7f
        E 0 92 3c 7f
        E 96 82 3c 00
        E 0 b2 0b 7f
        E 0 92 40 7f
        E 96 82 40 00
        E 0 b2 0b 7f
        E 0 92 3c 7f
        E 96 82 3c 00
        E 0 b2 0b 7f
        E 0 92 39 7f
        E 96 82 39 00
        E 0 b2 0b 7f
        E 0 92 35 7f
        E 96 82 35 00
        E 0 b2 0b 7f
        E 0 92 37 7f
        E 96 82 37 00
        E 0 b2 0b 7f
        E 0 92 3a 7f
        E 96 82 3a 00
        E 0 b2 0b 7f
        E 0 92 3e 7f
        E 96 82 3e 00
        E 0 b2 0b 7f
        E 0 92 3a 7f
        E 96 82 3a 00
        E 0 b2 0b 7f
        E 0 92 39 7f
        E 96 82 39 00
        E 0 b2 0b 7f
        E 0 92 35 7f
        E 96 82 35 00
        E 0 b2 0b 7f
        E 0 92 39 7f
        E 96 82 39 00
        E 0 b2 0b 7f
        E 0 92 3a 7f
        E 96 82 3a 00
        E 0 b2 0b 7f
        E 0 92 3e 7f
        E 96 82 3e 00
        E 0 b2 0b 7f
        E 0 92 3a 7f
        E 96 82 3a 00
        E 0 b2 0b 7f
        E 0 92 39 7f
        E 96 82 39 00
        E 0 b2 0b 7f
        E 0 92 34 7f
        E 96 82 34 00
        E 0 b2 0b 7f
        E 0 92 37 7f
        E 96 82 37 00
        E 0 b2 0b 7f
        E 0 92 3a 7f
        E 96 82 3a 00
        E 0 b2 0b 7f
        E 0 92 3e 7f
        E 96 82 3e 00
        E 0 b2 0b 7f
        E 0 92 3a 7f
        E 96 82 3a 00
        E 0 b2 0b 7f
        E 0 92 37 7f
        E 96 82 37 00
        E 0 b2 0b 7f
        E 0 92 34 7f
        E 96 82 34 00
        E 0 b2 0b 7f
        E 0 92 37 7f
        E 96 82 37 00
        E 0 b2 0b 7f
        E 0 92 3a 7f
        E 96 82 3a 00
        E 0 b2 0b 7f
        E 0 92 3e 7f
        E 96 82 3e 00
        E 0 b2 0b 7f
        E 0 92 3a 7f
        E 96 82 3a 00
        E 0 b2 0b 7f
        E 0 92 37 7f
        E 192 82 37 00
        E 0 b2 0b 7f
        E 0 92 39 7f
        E 96 82 39 00
        E 0 b2 0b 7f
        E 0 92 3c 7f
        E 96 82 3c 00
        E 0 b2 0b 7f
        E 0 92 40 7f
        E 96 82 40 00
        E 0 b2 0b 7f
        E 0 92 3c 7f
        E 96 82 3c 00
        E 0 b2 0b 7f
        E 0 92 39 7f
        E 96 82 39 00
        E 0 b2 0b 7f
        E 0 92 37 7f
        E 96 82 37 00
        E 0 b2 0b 7f
        E 0 92 39 7f
        E 96 82 39 00
        E 0 b2 0b 7f
        E 0 92 3c 7f
        E 96 82 3c 00
        E 0 b2 0b 7f
        E 0 92 40 7f
        E 96 82 40 00
        E 0 b2 0b 7f
        E 0 92 3c 7f
        E 96 82 3c 00
        E 0 b2 0b 7f
        E 0 92 39 7f
        E 96 82 39 00
        E 0 b2 0b 7f
        E 0 92 36 7f
        E 96 82 36 00
        E 0 b2 0b 7f
        E 0 92 39 7f
        E 96 82 39 00
        E 0 b2 0b 7f
        E 0 92 3c 7f
        E 96 82 3c 00
        E 0 b2 0b 7f
        E 0 92 40 7f
        E 96 82 40 00
        E 0 b2 0b 7f
        E 0 92 3c 7f
        E 96 82 3c 00
        E 0 b2 0b 7f
        E 0 92 39 7f
        E 96 82 39 00
        E 0 b2 0b 7f
        E 0 92 36 7f
        E 96 82 36 00
        E 0 b2 0b 7f
        E 0 92 39 7f
        E 96 82 39 00
        E 0 b2 0b 7f
        E 0 92 3c 7f
        E 96 82 3c 00
        E 0 b2 0b 7f
        E 0 92 40 7f
        E 96 82 40 00
        E 0 b2 0b 7f
        E 0 92 3c 7f
        E 96 82 3c 00
        E 0 b2 0b 7f
        E 0 92 39 7f
        E 96 82 39 00
        E 0 b2 0b 7f
        E 0 92 35 7f
        E 96 82 35 00
        E 0 b2 0b 7f
        E 0 92 37 7f
        E 96 82 37 00
        E 0 b2 0b 7f
        E 0 92 3a 7f
        E 96 82 3a 00
        E 0 b2 0b 7f
        E 0 92 3e 7f
        E 96 82 3e 00
        E 0 b2 0b 7f
        E 0 92 3a 7f
        E 96 82 3a 00
        E 0 b2 0b 7f
        E 0 92 39 7f
        E 96 82 39 00
        E 0 b2 0b 7f
        E 0 92 35 7f
        E 96 82 35 00
        E 0 b2 0b 7f
        E 0 92 39 7f
        E 96 82 39 00
        E 0 b2 0b 7f
        E 0 92 3a 7f
        E 96 82 3a 00
        E 0 b2 0b 7f
        E 0 92 3e 7f
        E 96 82 3e 00
        E 0 b2 0b 7f
        E 0 92 3a 7f
        E 96 82 3a 00
        E 0 b2 0b 7f
        E 0 92 39 7f
        E 96 82 39 00
        E 0 b2 0b 7f
        E 0 92 34 7f
        E 96 82 34 00
        E 0 b2 0b 7f
        E 0 92 37 7f
        E 96 82 37 00
        E 0 b2 0b 7f
        E 0 92 3a 7f
        E 96 82 3a 00
        E 0 b2 0b 7f
        E 0 92 3e 7f
        E 96 82 3e 00
        E 0 b2 0b 7f
        E 0 92 3a 7f
        E 96 82 3a 00
        E 0 b2 0b 7f
        E 0 92 37 7f
        E 96 82 37 00
        E 0 b2 0b 7f
        E 0 92 34 7f
        E 96 82 34 00
        E 0 b2 0b 7f
        E 0 92 37 7f
        E 96 82 37 00
        E 0 b2 0b 7f
        E 0 92 3a 7f
        E 96 82 3a 00
        E 0 b2 0b 7f
        E 0 92 3e 7f
        E 96 82 3e 00
        E 0 b2 0b 7f
        E 0 92 3a 7f
        E 96 82 3a 00
        E 0 b2 0b 7f
        E 0 92 37 7f
        E 224 82 37 00
        E 80 b2 0b 7f
        E 0 92 37 7f
        E 96 82 37 00
        E 0 b2 0b 7f
        E 0 92 3a 7f
        E 96 82 3a 00
        E 0 b2 0b 7f
        E 0 92 3e 7f
        E 96 82 3e 00
        E 0 b2 0b 7f
        E 0 92 41 7f
        E 96 82 41 00
        E 0 b2 0b 7f
        E 0 92 43 7f
        E 192 82 43 00
        E 0 b2 0b 7f
        E 0 92 41 7f
        E 160 82 41 00
        E 416 b2 0b 7f
        E 0 92 38 7f
        E 96 82 38 00
        E 0 b2 0b 7f
        E 0 92 3b 7f
        E 96 82 3b 00
        E 0 b2 0b 7f
        E 0 92 3e 7f
        E 96 82 3e 00
        E 0 b2 0b 7f
        E 0 92 41 7f
        E 96 82 41 00
        E 0 b2 0b 7f
        E 0 92 43 7f
        E 192 82 43 00
        E 0 b2 0b 7f
        E 0 92 41 7f
        E 176 82 41 00
        E 400 b2 0b 7f
        E 0 92 40 7f
        E 96 82 40 00
        E 0 b2 0b 7f
        E 0 92 3c 7f
        E 96 82 3c 00
        E 0 b2 0b 7f
        E 0 92 39 7f
        E 96 82 39 00
        E 0 b2 0b 7f
        E 0 92 37 7f
        E 96 82 37 00
        E 0 b2 0b 7f
        E 0 92 3e 7f
        E 192 82 3e 00
        E 0 b2 0b 7f
        E 0 92 3c 7f
        E 176 82 3c 00
        E 400 b2 0b 7f
        E 0 92 36 7f
        E 96 82 36 00
        E 0 b2 0b 7f
        E 0 92 39 7f
        E 96 82 39 00
        E 0 b2 0b 7f
        E 0 92 3c 7f
        E 96 82 3c 00
        E 0 b2 0b 7f
        E 0 92 3e 7f
        E 96 82 3e 00
        E 0 b2 0b 7f
        E 0 92 40 7f
        E 192 82 40 00
        E 0 b2 0b 7f
        E 0 92 3e 7f
        E 176 82 3e 00
        E 400 b2 0b 7f
        E 0 92 35 7f
        E 96 82 35 00
        E 0 b2 0b 7f
        E 0 92 37 7f
        E 96 82 37 00
        E 0 b2 0b 7f
        E 0 92 3a 7f
        E 96 82 3a 00
        E 0 b2 0b 7f
        E 0 92 3e 7f
        E 96 82 3e 00
        E 0 b2 0b 7f
        E 0 92 45 7f
        E 192 82 45 00
        E 0 b2 0b 7f
        E 0 92 41 7f
        E 160 82 41 00
        E 416 b2 0b 7f
        E 0 92 34 7f
        E 96 82 34 00
        E 0 b2 0b 7f
        E 0 92 37 7f
        E 96 82 37 00
        E 0 b2 0b 7f
        E 0 92 3a 7f
        E 96 82 3a 00
        E 0 b2 0b 7f
        E 0 92 3e 7f
        E 96 82 3e 00
        E 0 b2 0b 7f
        E 0 92 43 7f
        E 192 82 43 00
        E 0 b2 0b 7f
        E 0 92 40 7f
        E 192 82 40 00
        E 96 b2 0b 7f
        E 0 92 3c 7f
        E 288 82 3c 00
        E 0 b2 0b 7f
        E 0 92 35 7f
        E 96 82 35 00
        E 0 b2 0b 7f
        E 0 92 39 7f
        E 192 82 39 00
        E 0 b2 0b 7f
        E 0 92 3c 7f
        E 96 82 3c 00
        E 0 b2 0b 7f
        E 0 92 3b 7f
        E 192 82 3b 00
        E 0 b2 0b 7f
        E 0 92 34 7f
        E 96 82 34 00
        E 0 b2 0b 7f
        E 0 92 38 7f
        E 192 82 38 00
        E 0 b2 0b 7f
        E 0 92 3b 7f
        E 96 82 3b 00
        E 0 b2 0b 7f
        E 0 92 3a 7f
        E 192 82 3a 00
        E 0 b2 0b 7f
        E 0 92 33 7f
        E 96 82 33 00
        E 0 b2 0b 7f
        E 0 92 37 7f
        E 192 82 37 00
        E 0 b2 0b 7f
        E 0 92 3a 7f
        E 96 82 3a 00
        E 0 b2 0b 7f
        E 0 92 39 7f
        E 96 82 39 00
        E 0 b2 0b 7f
        E 0 92 32 7f
        E 96 82 32 00
        E 0 b2 0b 7f
        E 0 92 36 7f
        E 96 82 36 00
        E 0 b2 0b 7f
        E 0 92 39 7f
        E 96 82 39 00
        E 0 b2 0b 7f
        E 0 92 3c 7f
        E 96 82 3c 00
        E 0 b2 0b 7f
        E 0 92 3f 7f
        E 96 82 3f 00
        E 0 b2 0b 7f
        E 0 92 3e 7f
        E 96 82 3e 00
        E 0 b2 0b 7f
        E 0 92 41 7f
        E 96 82 41 00
        E 0 b2 0b 7f
        E 0 92 3a 7f
        E 96 82 3a 00
        E 0 b2 0b 7f
        E 0 92 37 7f
        E 96 82 37 00
        E 0 b2 0b 7f
        E 0 92 3e 7f
        E 96 82 3e 00
        E 0 b2 0b 7f
        E 0 92 41 7f
        E 96 82 41 00
        E 0 b2 0b 7f
        E 0 92 3a 7f
        E 96 82 3a 00
        E 0 b2 0b 7f
        E 0 92 3e 7f
        E 96 82 3e 00
        E 0 b2 0b 7f
        E 0 92 41 7f
        E 96 82 41 00
        E 0 b2 0b 7f
        E 0 92 43 7f
        E 96 82 43 00
        E 0 b2 0b 7f
        E 0 92 3e 7f
        E 96 82 3e 00
        E 0 b2 0b 7f
        E 0 92 3a 7f
        E 96 82 3a 00
        E 0 b2 0b 7f
        E 0 92 3b 7f
        E 96 82 3b 00
        E 0 b2 0b 7f
        E 0 92 38 7f
        E 96 82 38 00
        E 0 b2 0b 7f
        E 0 92 3b 7f
        E 96 82 3b 00
        E 0 b2 0b 7f
        E 0 92 3e 7f
        E 96 82 3e 00
        E 0 b2 0b 7f
        E 0 92 41 7f
        E 96 82 41 00
        E 0 b2 0b 7f
        E 0 92 44 7f
        E 96 82 44 00
        E 0 b2 0b 7f
        E 0 92 47 7f
        E 96 82 47 00
        E 0 b2 0b 7f
        E 0 92 44 7f
        E 96 82 44 00
        E 0 b2 0b 7f
        E 0 92 41 7f
        E 96 82 41 00
        E 0 b2 0b 7f
        E 0 92 3e 7f
        E 96 82 3e 00
        E 0 b2 0b 7f
        E 0 92 3b 7f
        E 96 82 3b 00
        E 0 b2 0b 7f
        E 0 92 38 7f
        E 96 82 38 00
        E 0 b2 0b 7f
        E 0 92 39 7f
        E 96 82 39 00
        E 0 b2 0b 7f
        E 0 92 3c 7f
        E 96 82 3c 00
        E 0 b2 0b 7f
        E 0 92 40 7f
        E 96 82 40 00
        E 0 b2 0b 7f
        E 0 92 43 7f
        E 96 82 43 00
        E 0 b2 0b 7f
        E 0 92 47 7f
        E 96 82 47 00
        E 0 b2 0b 7f
        E 0 92 45 7f
        E 96 82 45 00
        E 0 b2 0b 7f
        E 0 92 43 7f
        E 96 82 43 00
        E 0 b2 0b 7f
        E 0 92 40 7f
        E 96 82 40 00
        E 0 b2 0b 7f
        E 0 92 3c 7f
        E 96 82 3c 00
        E 0 b2 0b 7f
        E 0 92 39 7f
        E 96 82 39 00
        E 0 b2 0b 7f
        E 0 92 37 7f
        E 96 82 37 00
        E 0 b2 0b 7f
        E 0 92 39 7f
        E 96 82 39 00
        E 0 b2 0b 7f
        E 0 92 3c 7f
        E 96 82 3c 00
        E 0 b2 0b 7f
        E 0 92 40 7f
        E 96 82 40 00
        E 0 b2 0b 7f
        E 0 92 42 7f
        E 96 82 42 00
        E 0 b2 0b 7f
        E 0 92 45 7f
        E 96 82 45 00
        E 0 b2 0b 7f
        E 0 92 42 7f
        E 96 82 42 00
        E 0 b2 0b 7f
        E 0 92 40 7f
        E 96 82 40 00
        E 0 b2 0b 7f
        E 0 92 3c 7f
        E 96 82 3c 00
        E 0 b2 0b 7f
        E 0 92 39 7f
        E 96 82 39 00
        E 0 b2 0b 7f
        E 0 92 36 7f
        E 96 82 36 00
        E 0 b2 0b 7f
        E 0 92 39 7f
        E 96 82 39 00
        E 0 b2 0b 7f
        E 0 92 3c 7f
        E 96 82 3c 00
        E 0 b2 0b 7f
        E 0 92 3f 7f
        E 96 82 3f 00
        E 0 b2 0b 7f
        E 0 92 3e 7f
        E 96 82 3e 00
        E 0 b2 0b 7f
        E 0 92 3a 7f
        E 96 82 3a 00
        E 0 b2 0b 7f
        E 0 92 37 7f
        E 96 82 37 00
        E 0 b2 0b 7f
        E 0 92 35 7f
        E 96 82 35 00
        E 0 b2 0b 7f
        E 0 92 37 7f
        E 96 82 37 00
        E 0 b2 0b 7f
        E 0 92 39 7f
        E 96 82 39 00
        E 0 b2 0b 7f
        E 0 92 3a 7f
        E 96 82 3a 00
        E 0 b2 0b 7f
        E 0 92 3e 7f
        E 96 82 3e 00
        E 0 b2 0b 7f
        E 0 92 41 7f
        E 96 82 41 00
        E 0 b2 0b 7f
        E 0 92 43 7f
        E 96 82 43 00
        E 0 b2 0b 7f
        E 0 92 45 7f
        E 96 82 45 00
        E 0 b2 0b 7f
        E 0 92 41 7f
        E 96 82 41 00
        E 0 b2 0b 7f
        E 0 92 40 7f
        E 96 82 40 00
        E 0 b2 0b 7f
        E 0 92 3c 7f
        E 96 82 3c 00
        E 0 b2 0b 7f
        E 0 92 3a 7f
        E 96 82 3a 00
        E 0 b2 0b 7f
        E 0 92 37 7f
        E 96 82 37 00
        E 0 b2 0b 7f
        E 0 92 3a 7f
        E 96 82 3a 00
        E 0 b2 0b 7f
        E 0 92 3c 7f
        E 96 82 3c 00
        E 0 b2 0b 7f
        E 0 92 40 7f
        E 96 82 40 00
        E 0 b2 0b 7f
        E 0 92 46 7f
        E 96 82 46 00
        E 0 b2 0b 7f
        E 0 92 43 7f
        E 96 82 43 00
        E 0 b2 0b 7f
        E 0 92 40 7f
        E 96 82 40 00
        E 0 b2 0b 7f
        E 0 92 3c 7f
        E 96 82 3c 00
        E 0 b2 0b 7f
        E 0 92 37 7f
        E 96 82 37 00
        E 0 b2 0b 7f
        E 0 92 35 7f
        E 96 82 35 00
        E 0 b2 0b 7f
        E 0 92 39 7f
        E 96 82 39 00
        E 0 b2 0b 7f
        E 0 92 3c 7f
        E 96 82 3c 00
        E 0 b2 0b 7f
        E 0 92 39 7f
        E 96 82 39 00
        E 0 b2 0b 7f
        E 0 92 3c 7f
        E 96 82 3c 00
        E 0 b2 0b 7f
        E 0 92 41 7f
        E 96 82 41 00
        E 0 b2 0b 7f
        E 0 92 37 7f
        E 96 82 37 00
        E 0 b2 0b 7f
        E 0 92 3a 7f
        E 96 82 3a 00
        E 0 b2 0b 7f
        E 0 92 3e 7f
        E 96 82 3e 00
        E 0 b2 0b 7f
        E 0 92 3a 7f
        E 96 82 3a 00
        E 0 b2 0b 7f
        E 0 92 3e 7f
        E 96 82 3e 00
        E 0 b2 0b 7f
        E 0 92 41 7f
        E 96 82 41 00
        E 0 b2 0b 7f
        E 0 92 39 7f
        E 96 82 39 00
        E 0 b2 0b 7f
        E 0 92 3c 7f
        E 96 82 3c 00
        E 0 b2 0b 7f
        E 0 92 40 7f
        E 96 82 40 00
        E 0 b2 0b 7f
        E 0 92 3c 7f
        E 96 82 3c 00
        E 0 b2 0b 7f
        E 0 92 40 7f
        E 96 82 40 00
        E 0 b2 0b 7f
        E 0 92 43 7f
        E 96 82 43 00
        E 0 b2 0b 7f
        E 0 92 38 7f
        E 96 82 38 00
        E 0 b2 0b 7f
        E 0 92 3b 7f
        E 96 82 3b 00
        E 0 b2 0b 7f
        E 0 92 3f 7f
        E 96 82 3f 00
        E 0 b2 0b 7f
        E 0 92 3b 7f
        E 96 82 3b 00
        E 0 b2 0b 7f
        E 0 92 3f 7f
        E 96 82 3f 00
        E 0 b2 0b 7f
        E 0 92 42 7f
        E 96 82 42 00
        E 0 b2 0b 7f
        E 0 92 37 7f
        E 96 82 37 00
        E 0 b2 0b 7f
        E 0 92 3a 7f
        E 96 82 3a 00
        E 0 b2 0b 7f
        E 0 92 3c 7f
        E 96 82 3c 00
        E 0 b2 0b 7f
        E 0 92 3e 7f
        E 96 82 3e 00
        E 0 b2 0b 7f
        E 0 92 41 7f
        E 96 82 41 00
        E 0 b2 0b 7f
        E 0 92 43 7f
        E 96 82 43 00
        E 0 b2 0b 7f
        E 0 92 3e 7f
        E 96 82 3e 00
        E 0 b2 0b 7f
        E 0 92 41 7f
        E 96 82 41 00
        E 0 b2 0b 7f
        E 0 92 3c 7f
        E 96 82 3c 00
        E 0 b2 0b 7f
        E 0 92 3a 7f
        E 96 82 3a 00
        E 0 b2 0b 7f
        E 0 92 39 7f
        E 96 82 39 00
        E 0 b2 0b 7f
        E 0 92 37 7f
        E 96 82 37 00
        E 0 b2 0b 7f
        E 0 92 3a 7f
        E 96 82 3a 00
        E 0 b2 0b 7f
        E 0 92 3c 7f
        E 96 82 3c 00
        E 0 b2 0b 7f
        E 0 92 40 7f
        E 96 82 40 00
        E 0 b2 0b 7f
        E 0 92 43 7f
        E 96 82 43 00
        E 0 b2 0b 7f
        E 0 92 46 7f
        E 96 82 46 00
        E 0 b2 0b 7f
        E 0 92 43 7f
        E 96 82 43 00
        E 0 b2 0b 7f
        E 0 92 40 7f
        E 96 82 40 00
        E 0 b2 0b 7f
        E 0 92 3c 7f
        E 96 82 3c 00
        E 0 b2 0b 7f
        E 0 92 3a 7f
        E 96 82 3a 00
        E 0 b2 0b 7f
        E 0 92 37 7f
        E 96 82 37 00
        E 0 b2 0b 7f
        E 0 92 34 7f
        E 96 82 34 00
        E 0 b2 0b 7f
        E 0 92 37 7f
        E 96 82 37 00
        E 0 b2 0b 7f
        E 0 92 35 7f
        E 96 82 35 00
        E 0 b2 0b 7f
        E 0 92 39 7f
        E 96 82 39 00
        E 0 b2 0b 7f
        E 0 92 3c 7f
        E 96 82 3c 00
        E 0 b2 0b 7f
        E 0 92 39 7f
        E 96 82 39 00
        E 0 b2 0b 7f
        E 0 92 3c 7f
        E 96 82 3c 00
        E 0 b2 0b 7f
        E 0 92 41 7f
        E 96 82 41 00
        E 0 b2 0b 7f
        E 0 92 37 7f
        E 96 82 37 00
        E 0 b2 0b 7f
        E 0 92 3a 7f
        E 96 82 3a 00
        E 0 b2 0b 7f
        E 0 92 3e 7f
        E 96 82 3e 00
        E 0 b2 0b 7f
        E 0 92 3a 7f
        E 96 82 3a 00
        E 0 b2 0b 7f
        E 0 92 3e 7f
        E 96 82 3e 00
        E 0 b2 0b 7f
        E 0 92 41 7f
        E 96 82 41 00
        E 0 b2 0b 7f
        E 0 92 39 7f
        E 96 82 39 00
        E 0 b2 0b 7f
        E 0 92 3c 7f
        E 96 82 3c 00
        E 0 b2 0b 7f
        E 0 92 40 7f
        E 96 82 40 00
        E 0 b2 0b 7f
        E 0 92 3c 7f
        E 96 82 3c 00
        E 0 b2 0b 7f
        E 0 92 40 7f
        E 96 82 40 00
        E 0 b2 0b 7f
        E 0 92 43 7f
        E 96 82 43 00
        E 0 b2 0b 7f
        E 0 92 38 7f
        E 96 82 38 00
        E 0 b2 0b 7f
        E 0 92 3b 7f
        E 96 82 3b 00
        E 0 b2 0b 7f
        E 0 92 3f 7f
        E 96 82 3f 00
        E 0 b2 0b 7f
        E 0 92 3b 7f
        E 96 82 3b 00
        E 0 b2 0b 7f
        E 0 92 3f 7f
        E 96 82 3f 00
        E 0 b2 0b 7f
        E 0 92 42 7f
        E 96 82 42 00
        E 0 b2 0b 7f
        E 0 92 37 7f
        E 96 82 37 00
        E 0 b2 0b 7f
        E 0 92 3a 7f
        E 96 82 3a 00
        E 0 b2 0b 7f
        E 0 92 3c 7f
        E 96 82 3c 00
        E 0 b2 0b 7f
        E 0 92 3e 7f
        E 96 82 3e 00
        E 0 b2 0b 7f
        E 0 92 41 7f
        E 96 82 41 00
        E 0 b2 0b 7f
        E 0 92 43 7f
        E 96 82 43 00
        E 0 b2 0b 7f
        E 0 92 3e 7f
        E 96 82 3e 00
        E 0 b2 0b 7f
        E 0 92 41 7f
        E 96 82 41 00
        E 0 b2 0b 7f
        E 0 92 3c 7f
        E 96 82 3c 00
        E 0 b2 0b 7f
        E 0 92 3a 7f
        E 96 82 3a 00
        E 0 b2 0b 7f
        E 0 92 39 7f
        E 96 82 39 00
        E 0 b2 0b 7f
        E 0 92 37 7f
        E 96 82 37 00
        E 0 b2 0b 7f
        E 0 92 3a 7f
        E 96 82 3a 00
        E 0 b2 0b 7f
        E 0 92 3c 7f
        E 96 82 3c 00
        E 0 b2 0b 7f
        E 0 92 40 7f
        E 96 82 40 00
        E 0 b2 0b 7f
        E 0 92 43 7f
        E 96 82 43 00
        E 0 b2 0b 7f
        E 0 92 46 7f
        E 96 82 46 00
        E 0 b2 0b 7f
        E 0 92 43 7f
        E 96 82 43 00
        E 0 b2 0b 7f
        E 0 92 40 7f
        E 96 82 40 00
        E 0 b2 0b 7f
        E 0 92 3c 7f
        E 96 82 3c 00
        E 0 b2 0b 7f
        E 0 92 3a 7f
        E 96 82 3a 00
        E 0 b2 0b 7f
        E 0 92 37 7f
        E 96 82 37 00
        E 0 b2 0b 7f
        E 0 92 34 7f
        E 96 82 34 00
        E 0 b2 0b 7f
        E 0 92 37 7f
        E 192 82 37 00
        E 0 b2 0b 7f
        E 0 92 39 7f
        E 96 82 39 00
        E 0 b2 0b 7f
        E 0 92 3c 7f
        E 96 82 3c 00
        E 0 b2 0b 7f
        E 0 92 40 7f
        E 96 82 40 00
        E 0 b2 0b 7f
        E 0 92 3c 7f
        E 96 82 3c 00
        E 0 b2 0b 7f
        E 0 92 39 7f
        E 96 82 39 00
        E 0 b2 0b 7f
        E 0 92 37 7f
        E 96 82 37 00
        E 0 b2 0b 7f
        E 0 92 39 7f
        E 96 82 39 00
        E 0 b2 0b 7f
        E 0 92 3c 7f
        E 96 82 3c 00
        E 0 b2 0b 7f
        E 0 92 40 7f
        E 96 82 40 00
        E 0 b2 0b 7f
        E 0 92 3c 7f
        E 96 82 3c 00
        E 0 b2 0b 7f
        E 0 92 39 7f
        E 96 82 39 00
        E 0 b2 0b 7f
        E 0 92 36 7f
        E 96 82 36 00
        E 0 b2 0b 7f
        E 0 92 39 7f
        E 96 82 39 00
        E 0 b2 0b 7f
        E 0 92 3c 7f
        E 96 82 3c 00
        E 0 b2 0b 7f
        E 0 92 40 7f
        E 96 82 40 00
        E 0 b2 0b 7f
        E 0 92 3c 7f
        E 96 82 3c 00
        E 0 b2 0b 7f
        E 0 92 39 7f
        E 96 82 39 00
        E 0 b2 0b 7f
        E 0 92 36 7f
        E 96 82 36 00
        E 0 b2 0b 7f
        E 0 92 39 7f
        E 96 82 39 00
        E 0 b2 0b 7f
        E 0 92 3c 7f
        E 96 82 3c 00
        E 0 b2 0b 7f
        E 0 92 40 7f
        E 96 82 40 00
        E 0 b2 0b 7f
        E 0 92 3c 7f
        E 96 82 3c 00
        E 0 b2 0b 7f
        E 0 92 39 7f
        E 96 82 39 00
        E 0 b2 0b 7f
        E 0 92 35 7f
        E 96 82 35 00
        E 0 b2 0b 7f
        E 0 92 37 7f
        E 96 82 37 00
        E 0 b2 0b 7f
        E 0 92 3a 7f
        E 96 82 3a 00
        E 0 b2 0b 7f
        E 0 92 3e 7f
        E 96 82 3e 00
        E 0 b2 0b 7f
        E 0 92 3a 7f
        E 96 82 3a 00
        E 0 b2 0b 7f
        E 0 92 39 7f
        E 96 82 39 00
        E 0 b2 0b 7f
        E 0 92 35 7f
        E 96 82 35 00
        E 0 b2 0b 7f
        E 0 92 39 7f
        E 96 82 39 00
        E 0 b2 0b 7f
        E 0 92 3a 7f
        E 96 82 3a 00
        E 0 b2 0b 7f
        E 0 92 3e 7f
        E 96 82 3e 00
        E 0 b2 0b 7f
        E 0 92 3a 7f
        E 96 82 3a 00
        E 0 b2 0b 7f
        E 0 92 39 7f
        E 96 82 39 00
        E 0 b2 0b 7f
        E 0 92 34 7f
        E 96 82 34 00
        E 0 b2 0b 7f
        E 0 92 37 7f
        E 96 82 37 00
        E 0 b2 0b 7f
        E 0 92 3a 7f
        E 96 82 3a 00
        E 0 b2 0b 7f
        E 0 92 3e 7f
        E 96 82 3e 00
        E 0 b2 0b 7f
        E 0 92 3a 7f
        E 96 82 3a 00
        E 0 b2 0b 7f
        E 0 92 37 7f
        E 96 82 37 00
        E 0 b2 0b 7f
        E 0 92 34 7f
        E 96 82 34 00
        E 0 b2 0b 7f
        E 0 92 37 7f
        E 96 82 37 00
        E 0 b2 0b 7f
        E 0 92 3a 7f
        E 96 82 3a 00
        E 0 b2 0b 7f
        E 0 92 3e 7f
        E 96 82 3e 00
        E 0 b2 0b 7f
        E 0 92 3a 7f
        E 96 82 3a 00
        E 0 b2 0b 7f
        E 0 92 37 7f
        E 192 82 37 00
        E 0 b2 0b 7f
        E 0 92 39 7f
        E 96 82 39 00
        E 0 b2 0b 7f
        E 0 92 3c 7f
        E 96 82 3c 00
        E 0 b2 0b 7f
        E 0 92 40 7f
        E 96 82 40 00
        E 0 b2 0b 7f
        E 0 92 3c 7f
        E 96 82 3c 00
        E 0 b2 0b 7f
        E 0 92 39 7f
        E 96 82 39 00
        E 0 b2 0b 7f
        E 0 92 37 7f
        E 96 82 37 00
        E 0 b2 0b 7f
        E 0 92 39 7f
        E 96 82 39 00
        E 0 b2 0b 7f
        E 0 92 3c 7f
        E 96 82 3c 00
        E 0 b2 0b 7f
        E 0 92 40 7f
        E 96 82 40 00
        E 0 b2 0b 7f
        E 0 92 3c 7f
        E 96 82 3c 00
        E 0 b2 0b 7f
        E 0 92 39 7f
        E 96 82 39 00
        E 0 b2 0b 7f
        E 0 92 36 7f
        E 96 82 36 00
        E 0 b2 0b 7f
        E 0 92 39 7f
        E 96 82 39 00
        E 0 b2 0b 7f
        E 0 92 3c 7f
        E 96 82 3c 00
        E 0 b2 0b 7f
        E 0 92 40 7f
        E 96 82 40 00
        E 0 b2 0b 7f
        E 0 92 3c 7f
        E 96 82 3c 00
        E 0 b2 0b 7f
        E 0 92 39 7f
        E 96 82 39 00
        E 0 b2 0b 7f
        E 0 92 36 7f
        E 96 82 36 00
        E 0 b2 0b 7f
        E 0 92 39 7f
        E 96 82 39 00
        E 0 b2 0b 7f
        E 0 92 3c 7f
        E 96 82 3c 00
        E 0 b2 0b 7f
        E 0 92 40 7f
        E 96 82 40 00
        E 0 b2 0b 7f
        E 0 92 3c 7f
        E 96 82 3c 00
        E 0 b2 0b 7f
        E 0 92 39 7f
        E 96 82 39 00
        E 0 b2 0b 7f
        E 0 92 35 7f
        E 96 82 35 00
        E 0 b2 0b 7f
        E 0 92 37 7f
        E 96 82 37 00
        E 0 b2 0b 7f
        E 0 92 3a 7f
        E 96 82 3a 00
        E 0 b2 0b 7f
        E 0 92 3e 7f
        E 96 82 3e 00
        E 0 b2 0b 7f
        E 0 92 3a 7f
        E 96 82 3a 00
        E 0 b2 0b 7f
        E 0 92 39 7f
        E 96 82 39 00
        E 0 b2 0b 7f
        E 0 92 35 7f
        E 96 82 35 00
        E 0 b2 0b 7f
        E 0 92 39 7f
        E 96 82 39 00
        E 0 b2 0b 7f
        E 0 92 3a 7f
        E 96 82 3a 00
        E 0 b2 0b 7f
        E 0 92 3e 7f
        E 96 82 3e 00
        E 0 b2 0b 7f
        E 0 92 3a 7f
        E 96 82 3a 00
        E 0 b2 0b 7f
        E 0 92 39 7f
        E 96 82 39 00
        E 0 b2 0b 7f
        E 0 92 34 7f
        E 96 82 34 00
        E 0 b2 0b 7f
        E 0 92 37 7f
        E 96 82 37 00
        E 0 b2 0b 7f
        E 0 92 3a 7f
        E 96 82 3a 00
        E 0 b2 0b 7f
        E 0 92 3e 7f
        E 96 82 3e 00
        E 0 b2 0b 7f
        E 0 92 3a 7f
        E 96 82 3a 00
        E 0 b2 0b 7f
        E 0 92 37 7f
        E 96 82 37 00
        E 0 b2 0b 7f
        E 0 92 34 7f
        E 96 82 34 00
        E 0 b2 0b 7f
        E 0 92 37 7f
        E 96 82 37 00
        E 0 b2 0b 7f
        E 0 92 3a 7f
        E 96 82 3a 00
        E 0 b2 0b 7f
        E 0 92 3e 7f
        E 96 82 3e 00
        E 0 b2 0b 7f
        E 0 92 3a 7f
        E 96 82 3a 00
        E 0 b2 0b 7f
        E 0 92 37 7f
        E 224 82 37 00
        E 80 b2 0b 7f
        E 0 92 37 7f
        E 96 82 37 00
        E 0 b2 0b 7f
        E 0 92 3a 7f
        E 96 82 3a 00
        E 0 b2 0b 7f
        E 0 92 3e 7f
        E 96 82 3e 00
        E 0 b2 0b 7f
        E 0 92 41 7f
        E 96 82 41 00
        E 0 b2 0b 7f
        E 0 92 43 7f
        E 192 82 43 00
        E 0 b2 0b 7f
        E 0 92 41 7f
        E 160 82 41 00
        E 416 b2 0b 7f
        E 0 92 38 7f
        E 96 82 38 00
        E 0 b2 0b 7f
        E 0 92 3b 7f
        E 96 82 3b 00
        E 0 b2 0b 7f
        E 0 92 3e 7f
        E 96 82 3e 00
        E 0 b2 0b 7f
        E 0 92 41 7f
        E 96 82 41 00
        E 0 b2 0b 7f
        E 0 92 43 7f
        E 192 82 43 00
        E 0 b2 0b 7f
        E 0 92 41 7f
        E 176 82 41 00
        E 400 b2 0b 7f
        E 0 92 40 7f
        E 96 82 40 00
        E 0 b2 0b 7f
        E 0 92 3c 7f
        E 96 82 3c 00
        E 0 b2 0b 7f
        E 0 92 39 7f
        E 96 82 39 00
        E 0 b2 0b 7f
        E 0 92 37 7f
        E 96 82 37 00
        E 0 b2 0b 7f
        E 0 92 3e 7f
        E 192 82 3e 00
        E 0 b2 0b 7f
        E 0 92 3c 7f
        E 176 82 3c 00
        E 400 b2 0b 7f
        E 0 92 36 7f
        E 96 82 36 00
        E 0 b2 0b 7f
        E 0 92 39 7f
        E 96 82 39 00
        E 0 b2 0b 7f
        E 0 92 3c 7f
        E 96 82 3c 00
        E 0 b2 0b 7f
        E 0 92 3e 7f
        E 96 82 3e 00
        E 0 b2 0b 7f
        E 0 92 40 7f
        E 192 82 40 00
        E 0 b2 0b 7f
        E 0 92 3e 7f
        E 176 82 3e 00
        E 400 b2 0b 7f
        E 0 92 35 7f
        E 96 82 35 00
        E 0 b2 0b 7f
        E 0 92 37 7f
        E 96 82 37 00
        E 0 b2 0b 7f
        E 0 92 3a 7f
        E 96 82 3a 00
        E 0 b2 0b 7f
        E 0 92 3e 7f
        E 96 82 3e 00
        E 0 b2 0b 7f
        E 0 92 45 7f
        E 192 82 45 00
        E 0 b2 0b 7f
        E 0 92 41 7f
        E 160 82 41 00
        E 416 b2 0b 7f
        E 0 92 34 7f
        E 96 82 34 00
        E 0 b2 0b 7f
        E 0 92 37 7f
        E 96 82 37 00
        E 0 b2 0b 7f
        E 0 92 3a 7f
        E 96 82 3a 00
        E 0 b2 0b 7f
        E 0 92 3e 7f
        E 96 82 3e 00
        E 0 b2 0b 7f
        E 0 92 43 7f
        E 192 82 43 00
        E 0 b2 0b 7f
        E 0 92 40 7f
        E 192 82 40 00
        E 96 b2 0b 7f
        E 0 92 3c 7f
        E 288 82 3c 00
        E 0 b2 0b 7f
        E 0 92 35 7f
        E 96 82 35 00
        E 0 b2 0b 7f
        E 0 92 39 7f
        E 192 82 39 00
        E 0 b2 0b 7f
        E 0 92 3c 7f
        E 96 82 3c 00
        E 0 b2 0b 7f
        E 0 92 3b 7f
        E 192 82 3b 00
        E 0 b2 0b 7f
        E 0 92 34 7f
        E 96 82 34 00
        E 0 b2 0b 7f
        E 0 92 38 7f
        E 192 82 38 00
        E 0 b2 0b 7f
        E 0 92 3b 7f
        E 96 82 3b 00
        E 0 b2 0b 7f
        E 0 92 3a 7f
        E 192 82 3a 00
        E 0 b2 0b 7f
        E 0 92 33 7f
        E 96 82 33 00
        E 0 b2 0b 7f
        E 0 92 37 7f
        E 192 82 37 00
        E 0 b2 0b 7f
        E 0 92 3a 7f
        E 64 82 3a 00
        E 0 b2 7b 00
        E 0 ff 2f 00
      >
    >
  >
  <TRACK {9251FF89-B265-4F31-B4A8-542E351F6D5C}
    NAME "NES - Noise / Drums [ch3]"
    PEAKCOL 11184810
    BEAT -1
    AUTOMODE 0
    PANLAWFLAGS 3
    VOLPAN 1 0 -1 -1 1
    MUTESOLO 0 0 0
    IPHASE 0
    PLAYOFFS 0 1
    ISBUS 0 0
    BUSCOMP 0 0 0 0 0
    SHOWINMIX 1 0.6667 0.5 1 0.5 0 0 0
    FIXEDLANES 9 0 0 0 0
    SEL 0
    REC 0 5088 1 0 0 0 0 0
    VU 2
    TRACKHEIGHT 0 0 0 0 0 0 0
    INQ 0 0 0 0.5 100 0 0 100
    NCHAN 2
    FX 1
    TRACKID {9251FF89-B265-4F31-B4A8-542E351F6D5C}
    PERF 0
    MIDIOUT -1
    MAINSEND 1 0
    <FXCHAIN
      WNDRECT 24 52 700 560
      SHOW 0
      LASTSEL 0
      DOCKED 0
      BYPASS 0 0 0
      <JS "ReapNES Studio/ReapNES_Console.jsfx" ""
        2 15 1 10 80 10 100 2 1 15 1 5 60 10 80 1 1 0 50 0 0 15 1 0 100 0 0 0.500000 0.500000 0.400000 0.300000 0.800000 3 1 0 0 0 0 - - - - - - - - - - - - - - - - - - - - - - - - - -
      >
      FLOATPOS 0 0 0 0
      FXID {8026BFB2-F040-464A-B492-6A4D778CD6DE}
      WAK 0 0
    >
    <ITEM
      POSITION 0
      LENGTH 74.5723195
      LOOP 0
      ALLTAKES 0
      FADEIN 0 0 0 0 0 0 0
      FADEOUT 0 0 0 0 0 0 0
      MUTE 0 0
      SEL 0
      IGUID {E2EDB23F-F52E-41F7-92A4-9F852C3CFC13}
      <SOURCE MIDI
        HASDATA 1 480 QN
        CCINTERP 32
        E 16 93 2a 4c
        E 272 83 2a 00
        E 112 93 2a 3b
        E 48 83 2a 00
        E 144 93 2a 4c
        E 272 83 2a 00
        E 112 93 2a 3b
        E 48 83 2a 00
        E 144 93 2a 4c
        E 272 83 2a 00
        E 112 93 2a 3b
        E 48 83 2a 00
        E 144 93 2a 4c
        E 272 83 2a 00
        E 112 93 2a 3b
        E 48 83 2a 00
        E 144 93 2a 4c
        E 272 83 2a 00
        E 112 93 2a 3b
        E 48 83 2a 00
        E 144 93 2a 4c
        E 272 83 2a 00
        E 112 93 2a 3b
        E 48 83 2a 00
        E 144 93 2a 4c
        E 272 83 2a 00
        E 112 93 2a 3b
        E 48 83 2a 00
        E 144 93 2a 4c
        E 272 83 2a 00
        E 112 93 2a 3b
        E 48 83 2a 00
        E 144 93 2a 4c
        E 272 83 2a 00
        E 112 93 2a 3b
        E 48 83 2a 00
        E 144 93 2a 4c
        E 272 83 2a 00
        E 112 93 2a 3b
        E 48 83 2a 00
        E 144 93 2a 4c
        E 272 83 2a 00
        E 112 93 2a 3b
        E 48 83 2a 00
        E 144 93 2a 4c
        E 272 83 2a 00
        E 112 93 2a 3b
        E 48 83 2a 00
        E 144 93 2a 4c
        E 272 83 2a 00
        E 112 93 2a 3b
        E 48 83 2a 00
        E 144 93 2a 4c
        E 272 83 2a 00
        E 112 93 2a 3b
        E 48 83 2a 00
        E 144 93 2a 4c
        E 272 83 2a 00
        E 112 93 2a 3b
        E 48 83 2a 00
        E 144 93 2a 4c
        E 272 83 2a 00
        E 112 93 2a 3b
        E 48 83 2a 00
        E 144 93 2a 4c
        E 272 83 2a 00
        E 112 93 2a 3b
        E 48 83 2a 00
        E 144 93 2a 4c
        E 272 83 2a 00
        E 112 93 2a 3b
        E 48 83 2a 00
        E 144 93 2a 4c
        E 272 83 2a 00
        E 112 93 2a 3b
        E 48 83 2a 00
        E 144 93 2a 4c
        E 272 83 2a 00
        E 112 93 2a 3b
        E 48 83 2a 00
        E 144 93 2a 4c
        E 272 83 2a 00
        E 112 93 2a 3b
        E 48 83 2a 00
        E 144 93 2a 4c
        E 272 83 2a 00
        E 112 93 2a 3b
        E 48 83 2a 00
        E 144 93 2a 4c
        E 272 83 2a 00
        E 112 93 2a 3b
        E 48 83 2a 00
        E 144 93 2a 4c
        E 272 83 2a 00
        E 112 93 2a 3b
        E 48 83 2a 00
        E 144 93 2a 4c
        E 272 83 2a 00
        E 112 93 2a 3b
        E 48 83 2a 00
        E 144 93 2a 4c
        E 272 83 2a 00
        E 112 93 2a 3b
        E 48 83 2a 00
        E 144 93 2a 4c
        E 272 83 2a 00
        E 112 93 2a 3b
        E 48 83 2a 00
        E 144 93 2a 4c
        E 272 83 2a 00
        E 112 93 2a 3b
        E 48 83 2a 00
        E 144 93 2a 4c
        E 272 83 2a 00
        E 112 93 2a 3b
        E 48 83 2a 00
        E 144 93 2a 4c
        E 272 83 2a 00
        E 112 93 2a 3b
        E 48 83 2a 00
        E 144 93 2a 4c
        E 272 83 2a 00
        E 112 93 2a 3b
        E 48 83 2a 00
        E 144 93 2a 4c
        E 272 83 2a 00
        E 112 93 2a 3b
        E 48 83 2a 00
        E 144 93 2a 4c
        E 272 83 2a 00
        E 112 93 2a 3b
        E 48 83 2a 00
        E 144 93 2a 4c
        E 272 83 2a 00
        E 112 93 2a 3b
        E 48 83 2a 00
        E 144 93 2a 4c
        E 272 83 2a 00
        E 112 93 2a 3b
        E 48 83 2a 00
        E 144 93 2a 4c
        E 272 83 2a 00
        E 112 93 2a 3b
        E 48 83 2a 00
        E 144 93 2a 4c
        E 272 83 2a 00
        E 112 93 2a 3b
        E 48 83 2a 00
        E 144 93 2a 4c
        E 272 83 2a 00
        E 112 93 2a 3b
        E 48 83 2a 00
        E 144 93 2a 4c
        E 272 83 2a 00
        E 112 93 2a 3b
        E 48 83 2a 00
        E 144 93 2a 4c
        E 272 83 2a 00
        E 112 93 2a 3b
        E 48 83 2a 00
        E 144 93 2a 4c
        E 272 83 2a 00
        E 112 93 2a 3b
        E 48 83 2a 00
        E 144 93 2a 4c
        E 272 83 2a 00
        E 112 93 2a 3b
        E 48 83 2a 00
        E 144 93 2a 4c
        E 272 83 2a 00
        E 112 93 2a 3b
        E 48 83 2a 00
        E 144 93 2a 4c
        E 272 83 2a 00
        E 112 93 2a 3b
        E 48 83 2a 00
        E 144 93 2a 4c
        E 272 83 2a 00
        E 112 93 2a 3b
        E 48 83 2a 00
        E 144 93 2a 4c
        E 272 83 2a 00
        E 112 93 2a 3b
        E 48 83 2a 00
        E 144 93 2a 4c
        E 272 83 2a 00
        E 112 93 2a 3b
        E 48 83 2a 00
        E 144 93 2a 4c
        E 272 83 2a 00
        E 112 93 2a 3b
        E 48 83 2a 00
        E 144 93 2a 4c
        E 272 83 2a 00
        E 112 93 2a 3b
        E 48 83 2a 00
        E 144 93 2a 4c
        E 272 83 2a 00
        E 112 93 2a 3b
        E 48 83 2a 00
        E 144 93 2a 4c
        E 272 83 2a 00
        E 112 93 2a 3b
        E 48 83 2a 00
        E 144 93 2a 4c
        E 272 83 2a 00
        E 112 93 2a 3b
        E 48 83 2a 00
        E 144 93 2a 4c
        E 272 83 2a 00
        E 112 93 2a 3b
        E 48 83 2a 00
        E 144 93 2a 4c
        E 272 83 2a 00
        E 112 93 2a 3b
        E 48 83 2a 00
        E 144 93 2a 4c
        E 272 83 2a 00
        E 112 93 2a 3b
        E 48 83 2a 00
        E 144 93 2a 4c
        E 272 83 2a 00
        E 112 93 2a 3b
        E 48 83 2a 00
        E 144 93 2a 4c
        E 272 83 2a 00
        E 112 93 2a 3b
        E 48 83 2a 00
        E 144 93 2a 4c
        E 272 83 2a 00
        E 112 93 2a 3b
        E 48 83 2a 00
        E 144 93 2a 4c
        E 288 83 2a 00
        E 112 93 2a 3b
        E 48 83 2a 00
        E 144 93 2a 4c
        E 272 83 2a 00
        E 112 93 2a 3b
        E 48 83 2a 00
        E 144 93 2a 4c
        E 272 83 2a 00
        E 112 93 2a 3b
        E 48 83 2a 00
        E 144 93 2a 4c
        E 272 83 2a 00
        E 112 93 2a 3b
        E 48 83 2a 00
        E 144 93 2a 4c
        E 272 83 2a 00
        E 112 93 2a 3b
        E 48 83 2a 00
        E 144 93 2a 4c
        E 272 83 2a 00
        E 112 93 2a 3b
        E 48 83 2a 00
        E 144 93 2a 4c
        E 272 83 2a 00
        E 112 93 2a 3b
        E 48 83 2a 00
        E 144 93 2a 4c
        E 272 83 2a 00
        E 112 93 2a 3b
        E 48 83 2a 00
        E 144 93 2a 4c
        E 272 83 2a 00
        E 112 93 2a 3b
        E 48 83 2a 00
        E 144 93 2a 4c
        E 272 83 2a 00
        E 112 93 2a 3b
        E 48 83 2a 00
        E 144 93 2a 4c
        E 272 83 2a 00
        E 112 93 2a 3b
        E 48 83 2a 00
        E 144 93 2a 4c
        E 272 83 2a 00
        E 112 93 2a 3b
        E 48 83 2a 00
        E 144 93 2a 4c
        E 272 83 2a 00
        E 112 93 2a 3b
        E 48 83 2a 00
        E 144 93 2a 4c
        E 272 83 2a 00
        E 112 93 2a 3b
        E 48 83 2a 00
        E 144 93 2a 4c
        E 272 83 2a 00
        E 112 93 2a 3b
        E 48 83 2a 00
        E 144 93 2a 4c
        E 272 83 2a 00
        E 112 93 2a 3b
        E 48 83 2a 00
        E 144 93 2a 4c
        E 272 83 2a 00
        E 112 93 2a 3b
        E 48 83 2a 00
        E 144 93 2a 4c
        E 272 83 2a 00
        E 112 93 2a 3b
        E 48 83 2a 00
        E 144 93 2a 4c
        E 272 83 2a 00
        E 112 93 2a 3b
        E 48 83 2a 00
        E 144 93 2a 4c
        E 272 83 2a 00
        E 112 93 2a 3b
        E 48 83 2a 00
        E 144 93 2a 4c
        E 272 83 2a 00
        E 112 93 2a 3b
        E 48 83 2a 00
        E 144 93 2a 4c
        E 272 83 2a 00
        E 112 93 2a 3b
        E 48 83 2a 00
        E 144 93 2a 4c
        E 272 83 2a 00
        E 112 93 2a 3b
        E 48 83 2a 00
        E 144 93 2a 4c
        E 272 83 2a 00
        E 112 93 2a 3b
        E 48 83 2a 00
        E 144 93 2a 4c
        E 272 83 2a 00
        E 112 93 2a 3b
        E 48 83 2a 00
        E 144 93 2a 4c
        E 272 83 2a 00
        E 112 93 2a 3b
        E 48 83 2a 00
        E 144 93 2a 4c
        E 272 83 2a 00
        E 112 93 2a 3b
        E 48 83 2a 00
        E 144 93 2a 4c
        E 272 83 2a 00
        E 112 93 2a 3b
        E 48 83 2a 00
        E 144 93 2a 4c
        E 272 83 2a 00
        E 112 93 2a 3b
        E 48 83 2a 00
        E 144 93 2a 4c
        E 272 83 2a 00
        E 112 93 2a 3b
        E 48 83 2a 00
        E 144 93 2a 4c
        E 272 83 2a 00
        E 112 93 2a 3b
        E 48 83 2a 00
        E 144 93 2a 4c
        E 272 83 2a 00
        E 112 93 2a 3b
        E 48 83 2a 00
        E 144 93 2a 4c
        E 272 83 2a 00
        E 112 93 2a 3b
        E 48 83 2a 00
        E 144 93 2a 4c
        E 272 83 2a 00
        E 112 93 2a 3b
        E 48 83 2a 00
        E 144 93 2a 4c
        E 272 83 2a 00
        E 112 93 2a 3b
        E 48 83 2a 00
        E 144 93 2a 4c
        E 272 83 2a 00
        E 112 93 2a 3b
        E 48 83 2a 00
        E 144 93 2a 4c
        E 272 83 2a 00
        E 112 93 2a 3b
        E 48 83 2a 00
        E 144 93 2a 4c
        E 272 83 2a 00
        E 112 93 2a 3b
        E 48 83 2a 00
        E 144 93 2a 4c
        E 272 83 2a 00
        E 112 93 2a 3b
        E 48 83 2a 00
        E 144 93 2a 4c
        E 272 83 2a 00
        E 112 93 2a 3b
        E 48 83 2a 00
        E 144 93 2a 4c
        E 272 83 2a 00
        E 112 93 2a 3b
        E 48 83 2a 00
        E 144 93 2a 4c
        E 272 83 2a 00
        E 112 93 2a 3b
        E 48 83 2a 00
        E 144 93 2a 4c
        E 272 83 2a 00
        E 112 93 2a 3b
        E 48 83 2a 00
        E 144 93 2a 4c
        E 272 83 2a 00
        E 112 93 2a 3b
        E 48 83 2a 00
        E 144 93 2a 4c
        E 272 83 2a 00
        E 112 93 2a 3b
        E 48 83 2a 00
        E 144 93 2a 4c
        E 272 83 2a 00
        E 112 93 2a 3b
        E 48 83 2a 00
        E 144 93 2a 4c
        E 272 83 2a 00
        E 112 93 2a 3b
        E 48 83 2a 00
        E 144 93 2a 4c
        E 272 83 2a 00
        E 112 93 2a 3b
        E 48 83 2a 00
        E 144 93 2a 4c
        E 272 83 2a 00
        E 112 93 2a 3b
        E 48 83 2a 00
        E 144 93 2a 4c
        E 272 83 2a 00
        E 112 93 2a 3b
        E 48 83 2a 00
        E 144 93 2a 4c
        E 272 83 2a 00
        E 112 93 2a 3b
        E 48 83 2a 00
        E 144 93 2a 4c
        E 272 83 2a 00
        E 112 93 2a 3b
        E 48 83 2a 00
        E 144 93 2a 4c
        E 272 83 2a 00
        E 112 93 2a 3b
        E 48 83 2a 00
        E 144 93 2a 4c
        E 272 83 2a 00
        E 112 93 2a 3b
        E 48 83 2a 00
        E 144 93 2a 4c
        E 272 83 2a 00
        E 112 93 2a 3b
        E 48 83 2a 00
        E 144 93 2a 4c
        E 272 83 2a 00
        E 112 93 2a 3b
        E 48 83 2a 00
        E 144 93 2a 4c
        E 272 83 2a 00
        E 112 93 2a 3b
        E 48 83 2a 00
        E 144 93 2a 4c
        E 272 83 2a 00
        E 112 93 2a 3b
        E 48 83 2a 00
        E 144 93 2a 4c
        E 272 83 2a 00
        E 112 93 2a 3b
        E 48 83 2a 00
        E 144 93 2a 4c
        E 272 83 2a 00
        E 112 93 2a 3b
        E 48 83 2a 00
        E 144 93 2a 4c
        E 288 83 2a 00
        E 112 93 2a 3b
        E 48 83 2a 00
        E 144 93 2a 4c
        E 272 83 2a 00
        E 112 93 2a 3b
        E 48 83 2a 00
        E 144 93 2a 4c
        E 272 83 2a 00
        E 112 93 2a 3b
        E 48 83 2a 00
        E 144 93 2a 4c
        E 272 83 2a 00
        E 112 93 2a 3b
        E 48 83 2a 00
        E 144 93 2a 4c
        E 272 83 2a 00
        E 112 93 2a 3b
        E 48 83 2a 00
        E 144 93 2a 4c
        E 272 83 2a 00
        E 112 93 2a 3b
        E 48 83 2a 00
        E 144 93 2a 4c
        E 272 83 2a 00
        E 112 93 2a 3b
        E 48 83 2a 00
        E 144 93 2a 4c
        E 272 83 2a 00
        E 112 93 2a 3b
        E 48 83 2a 00
        E 144 93 2a 4c
        E 272 83 2a 00
        E 112 93 2a 3b
        E 48 83 2a 00
        E 144 93 2a 4c
        E 272 83 2a 00
        E 112 93 2a 3b
        E 48 83 2a 00
        E 144 93 2a 4c
        E 272 83 2a 00
        E 112 93 2a 3b
        E 48 83 2a 00
        E 144 93 2a 4c
        E 272 83 2a 00
        E 112 93 2a 3b
        E 48 83 2a 00
        E 144 93 2a 4c
        E 272 83 2a 00
        E 112 93 2a 3b
        E 48 83 2a 00
        E 144 93 2a 4c
        E 272 83 2a 00
        E 112 93 2a 3b
        E 48 83 2a 00
        E 144 93 2a 4c
        E 272 83 2a 00
        E 112 93 2a 3b
        E 48 83 2a 00
        E 144 93 2a 4c
        E 64 83 2a 00
        E 0 b3 7b 00
        E 0 ff 2f 00
      >
    >
  >
>