<REAPER_PROJECT 0.1 "7.27/win64" 1707000000
  <NOTES 0 2
    |ReapNES Studio Project
    |MIDI Import - Blaster_Master_title_rom_v1
  >
  RIPPLE 0
  GROUPOVERRIDE 0 0 0
  AUTOXFADE 129
  ENVATTACH 3
  POOLEDENVATTACH 0
  MIXERUIFLAGS 11 48
  ENVFADESZ10 40
  PEAKGAIN 1
  FEEDBACK 0
  PANLAW 1
  PROJOFFS 0 0 0
  MAXPROJLEN 0 0
  GRID 3199 8 1 8 1 0 0 0
  TIMEMODE 1 5 -1 30 0 0 -1
  VIDEO_CONFIG 0 0 65792
  PANMODE 3
  PANLAWFLAGS 3
  CURSOR 0
  ZOOM 100 0 0
  VZOOMEX 6 0
  USE_REC_CFG 0
  RECMODE 1
  SMPTESYNC 0 30 100 40 1000 300 0 0 1 0 0
  LOOP 0
  LOOPGRAN 0 4
  RECORD_PATH "Media" ""
  <RECORD_CFG
    ZXZhdxgAAQ==
  >
  <APPLYFX_CFG
  >
  RENDER_FILE ""
  RENDER_PATTERN ""
  RENDER_FMT 0 2 0
  RENDER_1X 0
  RENDER_RANGE 1 0 0 18 1000
  RENDER_RESAMPLE 3 0 1
  RENDER_ADDTOPROJ 0
  RENDER_STEMS 0
  RENDER_DITHER 0
  TIMELOCKMODE 1
  TEMPOENVLOCKMODE 1
  ITEMMIX 1
  DEFPITCHMODE 589824 0
  TAKELANE 1
  SAMPLERATE 44100 0 0
  <RENDER_CFG
    ZXZhdxgAAQ==
  >
  LOCK 1
  <METRONOME 6 2
    VOL 0.25 0.125
    BEATLEN 4
    FREQ 1760 880 1
    SAMPLES "" ""
    SPLIGNORE 0 0
    SPLDEF 2 660 "" 0
    SPLDEF 3 440 "" 0
    PATTERN 0 169
    PATTERNSTR ABBB
    MULT 1
  >
  GLOBAL_AUTO -1
  TEMPO 128.59999614200012 4 4
  PLAYRATE 1 0 0.25 4
  SELECTION 0 0
  SELECTION2 0 0
  MASTERAUTOMODE 0
  MASTERTRACKHEIGHT 0 0
  MASTERPEAKCOL 16576
  MASTERMUTESOLO 0
  MASTERTRACKVIEW 0 0.6667 0.5 0.5 0 0 0 0 0 0 0 0 0 0
  MASTERHWOUT 0 0 1 0 0 0 0 -1
  MASTER_NCH 2 2
  MASTER_VOLUME 1 0 -1 -1 1
  MASTER_PANMODE 3
  MASTER_PANLAWFLAGS 3
  MASTER_FX 1
  MASTER_SEL 0
  <MASTERPLAYSPEEDENV
    EGUID {511D052F-5BA4-45E6-8AD1-41E96E8738F9}
    ACT 0 -1
    VIS 0 1 1
    LANEHEIGHT 0 0
    ARM 0
    DEFSHAPE 0 -1 -1
  >
  <TEMPOENVEX
    EGUID {72210DE6-EE4E-4DD6-8471-68966B6E022F}
    ACT 1 -1
    VIS 1 0 1
    LANEHEIGHT 0 0
    ARM 0
    DEFSHAPE 1 -1 -1
  >
  <PROJBAY
  >
  <TRACK {8119B6B3-2214-4BE5-BD31-ACFD6EBAF1EA}
    NAME "NES - Pulse 1 [ch0]"
    PEAKCOL 16576606
    BEAT -1
    AUTOMODE 0
    PANLAWFLAGS 3
    VOLPAN 1 0 -1 -1 1
    MUTESOLO 0 0 0
    IPHASE 0
    PLAYOFFS 0 1
    ISBUS 0 0
    BUSCOMP 0 0 0 0 0
    SHOWINMIX 1 0.6667 0.5 1 0.5 0 0 0
    FIXEDLANES 9 0 0 0 0
    SEL 1
    REC 1 5088 1 0 0 0 0 0
    VU 2
    TRACKHEIGHT 0 0 0 0 0 0 0
    INQ 0 0 0 0.5 100 0 0 100
    NCHAN 2
    FX 1
    TRACKID {8119B6B3-2214-4BE5-BD31-ACFD6EBAF1EA}
    PERF 0
    MIDIOUT -1
    MAINSEND 1 0
    <FXCHAIN
      WNDRECT 24 52 700 560
      SHOW 0
      LASTSEL 0
      DOCKED 0
      BYPASS 0 0 0
      <JS "ReapNES Studio/ReapNES_Console.jsfx" ""
        2 15 1 10 80 10 100 2 1 15 1 5 60 10 80 1 1 0 50 0 0 15 1 0 100 0 0 0.500000 0.500000 0.400000 0.300000 0.800000 0 1 0 0 0 0 - - - - - - - - - - - - - - - - - - - - - - - - - -
      >
      FLOATPOS 0 0 0 0
      FXID {C144C5D7-776C-4A36-B815-1A238E62D54A}
      WAK 0 0
    >
    <ITEM
      POSITION 0
      LENGTH 73.5303288
      LOOP 0
      ALLTAKES 0
      FADEIN 0 0 0 0 0 0 0
      FADEOUT 0 0 0 0 0 0 0
      MUTE 0 0
      SEL 0
      IGUID {3495CB5E-4CC2-4031-92BE-38CF89E5888F}
      <SOURCE MIDI
        HASDATA 1 480 QN
        CCINTERP 32
        E 0 c0 50
        E 0 b0 0c 60
        E 0 b0 0b 4c
        E 0 90 39 4c
        E 16 b0 0b 2a
        E 16 b0 0b 11
        E 176 80 39 00
        E 0 90 32 11
        E 16 b0 0b 4c
        E 16 b0 0b 2a
        E 16 b0 0b 11
        E 80 b0 0b 4c
        E 16 b0 0b 2a
        E 16 b0 0b 11
        E 80 b0 0b 4c
        E 16 b0 0b 2a
        E 16 b0 0b 11
        E 192 b0 0b 4c
        E 16 b0 0b 2a
        E 16 b0 0b 11
        E 80 b0 0b 4c
        E 16 b0 0b 2a
        E 16 b0 0b 11
        E 80 b0 0b 4c
        E 16 b0 0b 2a
        E 16 b0 0b 11
        E 192 b0 0b 4c
        E 16 b0 0b 2a
        E 16 b0 0b 11
        E 80 b0 0b 4c
        E 16 b0 0b 2a
        E 16 b0 0b 11
        E 80 b0 0b 4c
        E 16 b0 0b 2a
        E 16 b0 0b 11
        E 80 b0 0b 4c
        E 16 b0 0b 2a
        E 16 b0 0b 11
        E 80 b0 0b 4c
        E 16 b0 0b 2a
        E 16 b0 0b 11
        E 80 b0 0b 4c
        E 16 b0 0b 2a
        E 16 b0 0b 11
        E 80 b0 0b 4c
        E 16 b0 0b 2a
        E 16 b0 0b 11
        E 176 80 32 00
        E 0 90 37 11
        E 16 b0 0b 4c
        E 16 b0 0b 2a
        E 16 b0 0b 11
        E 80 b0 0b 4c
        E 16 b0 0b 2a
        E 16 b0 0b 11
        E 80 b0 0b 4c
        E 16 b0 0b 2a
        E 16 b0 0b 11
        E 192 b0 0b 4c
        E 16 b0 0b 2a
        E 16 b0 0b 11
        E 80 b0 0b 4c
        E 16 b0 0b 2a
        E 16 b0 0b 11
        E 80 b0 0b 4c
        E 16 b0 0b 2a
        E 16 b0 0b 11
        E 192 b0 0b 4c
        E 16 b0 0b 2a
        E 16 b0 0b 11
        E 80 b0 0b 4c
        E 16 b0 0b 2a
        E 16 b0 0b 11
        E 80 b0 0b 4c
        E 16 b0 0b 2a
        E 16 b0 0b 11
        E 80 b0 0b 4c
        E 16 b0 0b 2a
        E 16 b0 0b 11
        E 80 b0 0b 4c
        E 16 b0 0b 2a
        E 16 b0 0b 11
        E 80 b0 0b 4c
        E 16 b0 0b 2a
        E 16 b0 0b 11
        E 64 80 37 00
        E 0 90 5e 11
        E 16 b0 0b 4c
        E 16 b0 0b 2a
        E 16 b0 0b 11
        E 176 80 5e 00
        E 0 90 3c 11
        E 16 b0 0b 4c
        E 16 b0 0b 2a
        E 16 b0 0b 11
        E 80 b0 0b 4c
        E 16 b0 0b 2a
        E 16 b0 0b 11
        E 80 b0 0b 4c
        E 16 b0 0b 2a
        E 16 b0 0b 11
        E 192 b0 0b 4c
        E 16 b0 0b 2a
        E 16 b0 0b 11
        E 80 b0 0b 4c
        E 16 b0 0b 2a
        E 16 b0 0b 11
        E 80 b0 0b 4c
        E 16 b0 0b 2a
        E 16 b0 0b 11
        E 192 b0 0b 4c
        E 16 b0 0b 2a
        E 16 b0 0b 11
        E 80 b0 0b 4c
        E 16 b0 0b 2a
        E 16 b0 0b 11
        E 80 b0 0b 4c
        E 16 b0 0b 2a
        E 16 b0 0b 11
        E 80 b0 0b 4c
        E 16 b0 0b 2a
        E 16 b0 0b 11
        E 80 b0 0b 4c
        E 16 b0 0b 2a
        E 16 b0 0b 11
        E 80 b0 0b 4c
        E 16 b0 0b 2a
        E 16 b0 0b 11
        E 80 b0 0b 4c
        E 16 b0 0b 2a
        E 16 b0 0b 11
        E 80 b0 0b 4c
        E 16 b0 0b 2a
        E 16 b0 0b 11
        E 80 b0 0b 4c
        E 16 b0 0b 2a
        E 16 b0 0b 11
        E 80 b0 0b 4c
        E 16 b0 0b 2a
        E 16 b0 0b 11
        E 80 b0 0b 4c
        E 16 b0 0b 2a
        E 16 b0 0b 11
        E 80 b0 0b 4c
        E 16 b0 0b 2a
        E 16 b0 0b 11
        E 80 b0 0b 4c
        E 16 b0 0b 2a
        E 16 b0 0b 11
        E 80 b0 0b 4c
        E 16 b0 0b 2a
        E 16 b0 0b 11
        E 80 b0 0b 4c
        E 16 b0 0b 2a
        E 16 b0 0b 11
        E 80 b0 0b 4c
        E 16 b0 0b 2a
        E 16 b0 0b 11
        E 80 b0 0b 4c
        E 16 b0 0b 2a
        E 16 b0 0b 11
        E 80 b0 0b 4c
        E 16 b0 0b 2a
        E 16 b0 0b 11
        E 80 b0 0b 4c
        E 16 b0 0b 2a
        E 16 b0 0b 11
        E 80 b0 0b 4c
        E 16 b0 0b 2a
        E 16 b0 0b 11
        E 80 b0 0b 4c
        E 16 b0 0b 2a
        E 16 b0 0b 11
        E 80 b0 0b 4c
        E 16 b0 0b 2a
        E 16 b0 0b 11
        E 64 80 3c 00
        E 16 b0 0b 3b
        E 0 90 39 3b
        E 16 b0 0b 4c
        E 32 b0 0b 44
        E 32 b0 0b 3b
        E 32 b0 0b 33
        E 32 b0 0b 2a
        E 32 b0 0b 22
        E 64 b0 0b 2a
        E 32 b0 0b 33
        E 32 b0 0b 3b
        E 32 b0 0b 33
        E 16 b0 0b 2a
        E 32 b0 0b 22
        E 64 b0 0b 2a
        E 32 b0 0b 33
        E 32 b0 0b 3b
        E 32 b0 0b 33
        E 16 b0 0b 2a
        E 32 b0 0b 22
        E 64 b0 0b 2a
        E 32 b0 0b 33
        E 32 b0 0b 3b
        E 32 b0 0b 33
        E 16 b0 0b 2a
        E 32 b0 0b 22
        E 64 b0 0b 2a
        E 32 80 39 00
        E 224 b0 0b 4c
        E 0 90 39 4c
        E 32 b0 0b 44
        E 32 b0 0b 3b
        E 32 b0 0b 33
        E 32 b0 0b 2a
        E 32 b0 0b 22
        E 32 b0 0b 19
        E 32 b0 0b 4c
        E 0 80 39 00
        E 0 90 5e 4c
        E 32 b0 0b 44
        E 32 b0 0b 3b
        E 32 b0 0b 33
        E 16 b0 0b 4c
        E 0 80 5e 00
        E 0 90 3b 4c
        E 32 b0 0b 44
        E 32 b0 0b 3b
        E 32 b0 0b 33
        E 32 b0 0b 2a
        E 32 b0 0b 22
        E 32 b0 0b 19
        E 32 b0 0b 11
        E 0 80 3b 00
        E 0 90 3e 11
        E 16 b0 0b 4c
        E 32 b0 0b 44
        E 32 b0 0b 3b
        E 32 b0 0b 33
        E 32 b0 0b 2a
        E 32 b0 0b 22
        E 64 b0 0b 2a
        E 32 b0 0b 33
        E 32 b0 0b 3b
        E 32 b0 0b 33
        E 16 b0 0b 2a
        E 32 b0 0b 22
        E 64 b0 0b 2a
        E 32 b0 0b 33
        E 32 b0 0b 3b
        E 32 b0 0b 33
        E 16 b0 0b 2a
        E 32 b0 0b 22
        E 64 b0 0b 2a
        E 32 b0 0b 33
        E 32 b0 0b 3b
        E 32 b0 0b 33
        E 16 b0 0b 2a
        E 32 b0 0b 22
        E 64 b0 0b 2a
        E 32 b0 0b 33
        E 32 b0 0b 3b
        E 32 b0 0b 33
        E 16 b0 0b 2a
        E 32 b0 0b 4c
        E 0 80 3e 00
        E 0 90 41 4c
        E 32 b0 0b 44
        E 32 b0 0b 3b
        E 32 b0 0b 33
        E 16 b0 0b 4c
        E 32 b0 0b 44
        E 32 b0 0b 3b
        E 32 b0 0b 33
        E 16 b0 0b 4c
        E 0 80 41 00
        E 0 90 40 4c
        E 32 b0 0b 44
        E 32 b0 0b 3b
        E 32 b0 0b 33
        E 16 b0 0b 4c
        E 0 80 40 00
        E 0 90 3e 4c
        E 32 b0 0b 44
        E 32 b0 0b 3b
        E 32 b0 0b 33
        E 32 b0 0b 2a
        E 32 b0 0b 22
        E 32 b0 0b 19
        E 32 b0 0b 4c
        E 0 80 3e 00
        E 0 90 3c 4c
        E 32 b0 0b 44
        E 32 b0 0b 3b
        E 32 b0 0b 33
        E 32 b0 0b 2a
        E 32 b0 0b 22
        E 32 b0 0b 19
        E 32 b0 0b 11
        E 0 80 3c 00
        E 0 90 40 11
        E 16 b0 0b 4c
        E 32 b0 0b 44
        E 32 b0 0b 3b
        E 32 b0 0b 33
        E 32 b0 0b 2a
        E 32 b0 0b 22
        E 64 b0 0b 2a
        E 32 b0 0b 33
        E 32 b0 0b 3b
        E 32 b0 0b 33
        E 16 b0 0b 2a
        E 32 b0 0b 22
        E 64 b0 0b 2a
        E 32 b0 0b 33
        E 32 b0 0b 3b
        E 32 b0 0b 33
        E 16 b0 0b 2a
        E 32 b0 0b 22
        E 64 b0 0b 2a
        E 32 b0 0b 33
        E 32 b0 0b 3b
        E 32 b0 0b 33
        E 16 b0 0b 2a
        E 32 b0 0b 22
        E 64 b0 0b 2a
        E 32 b0 0b 33
        E 32 b0 0b 3b
        E 32 b0 0b 33
        E 16 b0 0b 2a
        E 32 b0 0b 22
        E 64 b0 0b 2a
        E 32 b0 0b 33
        E 32 b0 0b 3b
        E 32 b0 0b 33
        E 16 b0 0b 2a
        E 32 b0 0b 22
        E 64 b0 0b 2a
        E 32 b0 0b 33
        E 32 b0 0b 3b
        E 32 b0 0b 33
        E 16 b0 0b 2a
        E 32 b0 0b 22
        E 64 b0 0b 2a
        E 32 b0 0b 33
        E 32 b0 0b 3b
        E 32 b0 0b 33
        E 16 b0 0b 2a
        E 32 b0 0b 22
        E 64 b0 0b 2a
        E 32 b0 0b 33
        E 32 b0 0b 3b
        E 32 b0 0b 33
        E 16 b0 0b 2a
        E 32 b0 0b 22
        E 64 80 40 00
        E 240 b0 0c 40
        E 0 b0 0b 4c
        E 0 90 39 4c
        E 16 b0 0b 44
        E 16 b0 0b 3b
        E 16 b0 0b 33
        E 16 b0 0b 2a
        E 16 b0 0b 22
        E 16 b0 0b 19
        E 16 b0 0b 4c
        E 0 80 39 00
        E 0 90 2e 4c
        E 16 b0 0b 44
        E 16 b0 0b 3b
        E 16 b0 0b 33
        E 16 b0 0b 2a
        E 16 b0 0b 22
        E 16 b0 0b 19
        E 16 b0 0b 4c
        E 16 b0 0b 44
        E 16 b0 0b 3b
        E 16 b0 0b 33
        E 16 b0 0b 2a
        E 16 b0 0b 22
        E 16 b0 0b 19
        E 16 b0 0b 4c
        E 16 b0 0b 44
        E 16 b0 0b 3b
        E 16 b0 0b 33
        E 16 b0 0b 2a
        E 16 b0 0b 22
        E 16 b0 0b 19
        E 16 80 2e 00
        E 224 b0 0b 4c
        E 0 90 39 4c
        E 16 b0 0b 44
        E 16 b0 0b 3b
        E 16 b0 0b 33
        E 16 b0 0b 2a
        E 16 b0 0b 22
        E 16 b0 0b 19
        E 16 b0 0b 4c
        E 0 80 39 00
        E 0 90 2e 4c
        E 16 b0 0b 44
        E 16 b0 0b 3b
        E 16 b0 0b 33
        E 16 b0 0b 2a
        E 16 b0 0b 22
        E 16 b0 0b 19
        E 16 b0 0b 4c
        E 16 b0 0b 44
        E 16 b0 0b 3b
        E 16 b0 0b 33
        E 16 b0 0b 2a
        E 16 b0 0b 22
        E 16 b0 0b 19
        E 16 b0 0b 4c
        E 16 b0 0b 44
        E 16 b0 0b 3b
        E 16 b0 0b 33
        E 16 b0 0b 2a
        E 16 b0 0b 22
        E 16 b0 0b 19
        E 16 80 2e 00
        E 432 b0 0c 60
        E 0 b0 0b 3b
        E 0 90 39 3b
        E 16 b0 0b 4c
        E 32 b0 0b 44
        E 32 b0 0b 3b
        E 32 b0 0b 33
        E 32 b0 0b 2a
        E 32 b0 0b 22
        E 64 b0 0b 2a
        E 32 b0 0b 33
        E 32 b0 0b 3b
        E 32 b0 0b 33
        E 16 b0 0b 2a
        E 32 b0 0b 22
        E 64 b0 0b 2a
        E 32 b0 0b 33
        E 32 b0 0b 3b
        E 32 b0 0b 33
        E 16 b0 0b 2a
        E 32 b0 0b 22
        E 64 b0 0b 2a
        E 32 b0 0b 33
        E 32 b0 0b 3b
        E 32 b0 0b 33
        E 16 b0 0b 2a
        E 32 b0 0b 22
        E 64 b0 0b 2a
        E 32 80 39 00
        E 224 b0 0b 4c
        E 0 90 39 4c
        E 32 b0 0b 44
        E 32 b0 0b 3b
        E 32 b0 0b 33
        E 32 b0 0b 2a
        E 32 b0 0b 22
        E 32 b0 0b 19
        E 32 b0 0b 4c
        E 0 80 39 00
        E 0 90 5e 4c
        E 32 b0 0b 44
        E 32 b0 0b 3b
        E 32 b0 0b 33
        E 16 b0 0b 4c
        E 0 80 5e 00
        E 0 90 3b 4c
        E 32 b0 0b 44
        E 32 b0 0b 3b
        E 32 b0 0b 33
        E 32 b0 0b 2a
        E 32 b0 0b 22
        E 32 b0 0b 19
        E 32 b0 0b 11
        E 0 80 3b 00
        E 0 90 3e 11
        E 16 b0 0b 4c
        E 32 b0 0b 44
        E 32 b0 0b 3b
        E 32 b0 0b 33
        E 32 b0 0b 2a
        E 32 b0 0b 22
        E 64 b0 0b 2a
        E 32 b0 0b 33
        E 32 b0 0b 3b
        E 32 b0 0b 33
        E 16 b0 0b 2a
        E 32 b0 0b 22
        E 64 b0 0b 2a
        E 32 b0 0b 33
        E 32 b0 0b 3b
        E 32 b0 0b 33
        E 16 b0 0b 2a
        E 32 b0 0b 22
        E 64 b0 0b 2a
        E 32 b0 0b 33
        E 32 b0 0b 3b
        E 32 b0 0b 33
        E 16 b0 0b 2a
        E 32 b0 0b 22
        E 64 b0 0b 2a
        E 32 b0 0b 33
        E 32 b0 0b 3b
        E 32 b0 0b 33
        E 16 b0 0b 2a
        E 32 b0 0b 4c
        E 0 80 3e 00
        E 0 90 41 4c
        E 32 b0 0b 44
        E 32 b0 0b 3b
        E 32 b0 0b 33
        E 16 b0 0b 4c
        E 32 b0 0b 44
        E 32 b0 0b 3b
        E 32 b0 0b 33
        E 16 b0 0b 4c
        E 0 80 41 00
        E 0 90 45 4c
        E 32 b0 0b 44
        E 32 b0 0b 3b
        E 32 b0 0b 33
        E 16 b0 0b 4c
        E 0 80 45 00
        E 0 90 43 4c
        E 32 b0 0b 44
        E 32 b0 0b 3b
        E 32 b0 0b 33
        E 16 b0 0b 4c
        E 0 80 43 00
        E 0 90 41 4c
        E 32 b0 0b 44
        E 32 b0 0b 3b
        E 32 b0 0b 33
        E 16 b0 0b 4c
        E 0 80 41 00
        E 0 90 40 4c
        E 32 b0 0b 44
        E 32 b0 0b 3b
        E 32 b0 0b 33
        E 16 b0 0b 4c
        E 0 80 40 00
        E 0 90 3c 4c
        E 32 b0 0b 44
        E 32 b0 0b 3b
        E 32 b0 0b 33
        E 16 b0 0b 3b
        E 0 80 3c 00
        E 0 90 40 3b
        E 16 b0 0b 4c
        E 32 b0 0b 44
        E 32 b0 0b 3b
        E 32 b0 0b 33
        E 32 b0 0b 2a
        E 32 b0 0b 22
        E 64 b0 0b 2a
        E 32 b0 0b 33
        E 32 b0 0b 3b
        E 32 b0 0b 33
        E 16 b0 0b 2a
        E 32 b0 0b 22
        E 64 b0 0b 2a
        E 32 b0 0b 33
        E 32 b0 0b 3b
        E 32 b0 0b 33
        E 16 b0 0b 2a
        E 32 b0 0b 22
        E 64 b0 0b 2a
        E 32 b0 0b 33
        E 32 b0 0b 3b
        E 32 b0 0b 33
        E 16 b0 0b 2a
        E 32 b0 0b 22
        E 64 b0 0b 2a
        E 32 b0 0b 33
        E 32 b0 0b 3b
        E 32 b0 0b 33
        E 16 b0 0b 2a
        E 32 b0 0b 22
        E 64 b0 0b 2a
        E 32 b0 0b 33
        E 32 b0 0b 3b
        E 32 b0 0b 33
        E 16 b0 0b 2a
        E 32 b0 0b 22
        E 64 b0 0b 2a
        E 32 b0 0b 33
        E 32 b0 0b 3b
        E 32 b0 0b 33
        E 16 b0 0b 2a
        E 32 b0 0b 22
        E 64 b0 0b 2a
        E 32 b0 0b 33
        E 32 b0 0b 3b
        E 32 b0 0b 33
        E 16 b0 0b 2a
        E 32 b0 0b 22
        E 64 b0 0b 2a
        E 32 b0 0b 33
        E 32 b0 0b 3b
        E 32 b0 0b 33
        E 16 b0 0b 2a
        E 32 b0 0b 22
        E 64 b0 0b 2a
        E 16 b0 0b 4c
        E 32 b0 0b 44
        E 32 b0 0b 3b
        E 32 b0 0b 33
        E 32 b0 0b 2a
        E 32 b0 0b 22
        E 64 b0 0c 40
        E 0 b0 0b 4c
        E 0 80 40 00
        E 0 90 39 4c
        E 16 b0 0b 44
        E 16 b0 0b 3b
        E 16 b0 0b 33
        E 16 b0 0b 2a
        E 16 b0 0b 22
        E 16 b0 0b 19
        E 16 b0 0b 4c
        E 0 80 39 00
        E 0 90 2e 4c
        E 16 b0 0b 44
        E 16 b0 0b 3b
        E 16 b0 0b 33
        E 16 b0 0b 2a
        E 16 b0 0b 22
        E 16 b0 0b 19
        E 16 b0 0b 4c
        E 16 b0 0b 44
        E 16 b0 0b 3b
        E 16 b0 0b 33
        E 16 b0 0b 2a
        E 16 b0 0b 22
        E 16 b0 0b 19
        E 16 b0 0b 4c
        E 16 b0 0b 44
        E 16 b0 0b 3b
        E 16 b0 0b 33
        E 16 b0 0b 2a
        E 16 b0 0b 22
        E 16 b0 0b 19
        E 16 80 2e 00
        E 224 b0 0b 4c
        E 0 90 39 4c
        E 16 b0 0b 44
        E 16 b0 0b 3b
        E 16 b0 0b 33
        E 16 b0 0b 2a
        E 16 b0 0b 22
        E 16 b0 0b 19
        E 16 b0 0b 4c
        E 0 80 39 00
        E 0 90 2e 4c
        E 16 b0 0b 44
        E 16 b0 0b 3b
        E 16 b0 0b 33
        E 16 b0 0b 2a
        E 16 b0 0b 22
        E 16 b0 0b 19
        E 16 b0 0b 4c
        E 16 b0 0b 44
        E 16 b0 0b 3b
        E 16 b0 0b 33
        E 16 b0 0b 2a
        E 16 b0 0b 22
        E 16 b0 0b 19
        E 16 b0 0b 4c
        E 16 b0 0b 44
        E 16 b0 0b 3b
        E 16 b0 0b 33
        E 16 b0 0b 2a
        E 16 b0 0b 22
        E 16 b0 0b 19
        E 16 80 2e 00
        E 432 b0 0c 60
        E 0 b0 0b 3b
        E 0 90 39 3b
        E 16 b0 0b 4c
        E 32 b0 0b 44
        E 32 b0 0b 3b
        E 32 b0 0b 33
        E 32 b0 0b 2a
        E 32 b0 0b 22
        E 64 b0 0b 2a
        E 32 b0 0b 33
        E 32 b0 0b 3b
        E 32 b0 0b 33
        E 16 b0 0b 2a
        E 32 b0 0b 22
        E 64 b0 0b 2a
        E 32 b0 0b 33
        E 32 b0 0b 3b
        E 32 b0 0b 33
        E 16 b0 0b 2a
        E 32 b0 0b 22
        E 64 b0 0b 2a
        E 32 b0 0b 33
        E 32 b0 0b 3b
        E 32 b0 0b 33
        E 16 b0 0b 2a
        E 32 b0 0b 22
        E 64 b0 0b 2a
        E 32 80 39 00
        E 224 b0 0b 4c
        E 0 90 39 4c
        E 32 b0 0b 44
        E 32 b0 0b 3b
        E 32 b0 0b 33
        E 32 b0 0b 2a
        E 32 b0 0b 22
        E 32 b0 0b 19
        E 32 b0 0b 4c
        E 0 80 39 00
        E 0 90 5e 4c
        E 32 b0 0b 44
        E 32 b0 0b 3b
        E 32 b0 0b 33
        E 16 b0 0b 4c
        E 0 80 5e 00
        E 0 90 3b 4c
        E 32 b0 0b 44
        E 32 b0 0b 3b
        E 32 b0 0b 33
        E 32 b0 0b 2a
        E 32 b0 0b 22
        E 32 b0 0b 19
        E 32 b0 0b 11
        E 0 80 3b 00
        E 0 90 3e 11
        E 16 b0 0b 4c
        E 32 b0 0b 44
        E 32 b0 0b 3b
        E 32 b0 0b 33
        E 32 b0 0b 2a
        E 32 b0 0b 22
        E 64 b0 0b 2a
        E 32 b0 0b 33
        E 32 b0 0b 3b
        E 32 b0 0b 33
        E 16 b0 0b 2a
        E 32 b0 0b 22
        E 64 b0 0b 2a
        E 32 b0 0b 33
        E 32 b0 0b 3b
        E 32 b0 0b 33
        E 16 b0 0b 2a
        E 32 b0 0b 22
        E 64 b0 0b 2a
        E 32 b0 0b 33
        E 32 b0 0b 3b
        E 32 b0 0b 33
        E 16 b0 0b 2a
        E 32 b0 0b 22
        E 64 b0 0b 2a
        E 32 b0 0b 33
        E 32 b0 0b 3b
        E 32 b0 0b 33
        E 16 b0 0b 2a
        E 32 b0 0b 4c
        E 0 80 3e 00
        E 0 90 41 4c
        E 32 b0 0b 44
        E 32 b0 0b 3b
        E 32 b0 0b 33
        E 16 b0 0b 4c
        E 32 b0 0b 44
        E 32 b0 0b 3b
        E 32 b0 0b 33
        E 16 b0 0b 4c
        E 0 80 41 00
        E 0 90 40 4c
        E 32 b0 0b 44
        E 32 b0 0b 3b
        E 32 b0 0b 33
        E 16 b0 0b 4c
        E 0 80 40 00
        E 0 90 3e 4c
        E 32 b0 0b 44
        E 32 b0 0b 3b
        E 32 b0 0b 33
        E 32 b0 0b 2a
        E 32 b0 0b 22
        E 32 b0 0b 19
        E 32 b0 0b 4c
        E 0 80 3e 00
        E 0 90 3c 4c
        E 32 b0 0b 44
        E 32 b0 0b 3b
        E 32 b0 0b 33
        E 32 b0 0b 2a
        E 32 b0 0b 22
        E 32 b0 0b 19
        E 32 b0 0b 11
        E 0 80 3c 00
        E 0 90 40 11
        E 16 b0 0b 4c
        E 32 b0 0b 44
        E 32 b0 0b 3b
        E 32 b0 0b 33
        E 32 b0 0b 2a
        E 32 b0 0b 22
        E 64 b0 0b 2a
        E 32 b0 0b 33
        E 32 b0 0b 3b
        E 32 b0 0b 33
        E 16 b0 0b 2a
        E 32 b0 0b 22
        E 64 b0 0b 2a
        E 32 b0 0b 33
        E 32 b0 0b 3b
        E 32 b0 0b 33
        E 16 b0 0b 2a
        E 32 b0 0b 22
        E 64 b0 0b 2a
        E 32 b0 0b 33
        E 32 b0 0b 3b
        E 32 b0 0b 33
        E 16 b0 0b 2a
        E 32 b0 0b 22
        E 64 b0 0b 2a
        E 32 b0 0b 33
        E 32 b0 0b 3b
        E 32 b0 0b 33
        E 16 b0 0b 2a
        E 32 b0 0b 22
        E 64 b0 0b 2a
        E 32 b0 0b 33
        E 32 b0 0b 3b
        E 32 b0 0b 33
        E 16 b0 0b 2a
        E 32 b0 0b 22
        E 64 b0 0b 2a
        E 32 b0 0b 33
        E 32 b0 0b 3b
        E 32 b0 0b 33
        E 16 b0 0b 2a
        E 32 b0 0b 22
        E 64 b0 0b 2a
        E 32 b0 0b 33
        E 32 b0 0b 3b
        E 32 b0 0b 33
        E 16 b0 0b 2a
        E 32 b0 0b 22
        E 64 b0 0b 2a
        E 32 b0 0b 33
        E 32 b0 0b 3b
        E 32 b0 0b 33
        E 16 b0 0b 2a
        E 32 b0 0b 22
        E 64 80 40 00
        E 240 b0 0c 40
        E 0 b0 0b 4c
        E 0 90 39 4c
        E 16 b0 0b 44
        E 16 b0 0b 3b
        E 16 b0 0b 33
        E 16 b0 0b 2a
        E 16 b0 0b 22
        E 16 b0 0b 19
        E 16 b0 0b 4c
        E 0 80 39 00
        E 0 90 2e 4c
        E 16 b0 0b 44
        E 16 b0 0b 3b
        E 16 b0 0b 33
        E 16 b0 0b 2a
        E 16 b0 0b 22
        E 16 b0 0b 19
        E 16 b0 0b 4c
        E 16 b0 0b 44
        E 16 b0 0b 3b
        E 16 b0 0b 33
        E 16 b0 0b 2a
        E 16 b0 0b 22
        E 16 b0 0b 19
        E 16 b0 0b 4c
        E 16 b0 0b 44
        E 16 b0 0b 3b
        E 16 b0 0b 33
        E 16 b0 0b 2a
        E 16 b0 0b 22
        E 16 b0 0b 19
        E 16 80 2e 00
        E 224 b0 0b 4c
        E 0 90 39 4c
        E 16 b0 0b 44
        E 16 b0 0b 3b
        E 16 b0 0b 33
        E 16 b0 0b 2a
        E 16 b0 0b 22
        E 16 b0 0b 19
        E 16 b0 0b 4c
        E 0 80 39 00
        E 0 90 2e 4c
        E 16 b0 0b 44
        E 16 b0 0b 3b
        E 16 b0 0b 33
        E 16 b0 0b 2a
        E 16 b0 0b 22
        E 16 b0 0b 19
        E 16 b0 0b 4c
        E 16 b0 0b 44
        E 16 b0 0b 3b
        E 16 b0 0b 33
        E 16 b0 0b 2a
        E 16 b0 0b 22
        E 16 b0 0b 19
        E 16 b0 0b 4c
        E 16 b0 0b 44
        E 16 b0 0b 3b
        E 16 b0 0b 33
        E 16 b0 0b 2a
        E 16 b0 0b 22
        E 16 b0 0b 19
        E 16 80 2e 00
        E 432 b0 0c 60
        E 0 b0 0b 3b
        E 0 90 39 3b
        E 16 b0 0b 4c
        E 32 b0 0b 44
        E 32 b0 0b 3b
        E 32 b0 0b 33
        E 32 b0 0b 2a
        E 32 b0 0b 22
        E 64 b0 0b 2a
        E 32 b0 0b 33
        E 32 b0 0b 3b
        E 32 b0 0b 33
        E 16 b0 0b 2a
        E 32 b0 0b 22
        E 64 b0 0b 2a
        E 32 b0 0b 33
        E 32 b0 0b 3b
        E 32 b0 0b 33
        E 16 b0 0b 2a
        E 32 b0 0b 22
        E 64 b0 0b 2a
        E 32 b0 0b 33
        E 32 b0 0b 3b
        E 32 b0 0b 33
        E 16 b0 0b 2a
        E 32 b0 0b 22
        E 64 b0 0b 2a
        E 32 80 39 00
        E 224 b0 0b 4c
        E 0 90 39 4c
        E 32 b0 0b 44
        E 32 b0 0b 3b
        E 32 b0 0b 33
        E 32 b0 0b 2a
        E 32 b0 0b 22
        E 32 b0 0b 19
        E 32 b0 0b 4c
        E 0 80 39 00
        E 0 90 5e 4c
        E 32 b0 0b 44
        E 32 b0 0b 3b
        E 32 b0 0b 33
        E 16 b0 0b 4c
        E 0 80 5e 00
        E 0 90 3b 4c
        E 32 b0 0b 44
        E 32 b0 0b 3b
        E 32 b0 0b 33
        E 32 b0 0b 2a
        E 32 b0 0b 22
        E 32 b0 0b 19
        E 32 b0 0b 11
        E 0 80 3b 00
        E 0 90 3e 11
        E 16 b0 0b 4c
        E 32 b0 0b 44
        E 32 b0 0b 3b
        E 32 b0 0b 33
        E 32 b0 0b 2a
        E 32 b0 0b 22
        E 64 b0 0b 2a
        E 32 b0 0b 33
        E 32 b0 0b 3b
        E 32 b0 0b 33
        E 16 b0 0b 2a
        E 32 b0 0b 22
        E 64 b0 0b 2a
        E 32 b0 0b 33
        E 32 b0 0b 3b
        E 32 b0 0b 33
        E 16 b0 0b 2a
        E 32 b0 0b 22
        E 64 b0 0b 2a
        E 32 b0 0b 33
        E 32 b0 0b 3b
        E 32 b0 0b 33
        E 16 b0 0b 2a
        E 32 b0 0b 22
        E 64 b0 0b 2a
        E 32 b0 0b 33
        E 32 b0 0b 3b
        E 32 b0 0b 33
        E 16 b0 0b 2a
        E 32 b0 0b 4c
        E 0 80 3e 00
        E 0 90 41 4c
        E 32 b0 0b 44
        E 32 b0 0b 3b
        E 32 b0 0b 33
        E 16 b0 0b 4c
        E 32 b0 0b 44
        E 32 b0 0b 3b
        E 32 b0 0b 33
        E 16 b0 0b 4c
        E 0 80 41 00
        E 0 90 45 4c
        E 32 b0 0b 44
        E 32 b0 0b 3b
        E 32 b0 0b 33
        E 16 b0 0b 4c
        E 0 80 45 00
        E 0 90 43 4c
        E 32 b0 0b 44
        E 32 b0 0b 3b
        E 32 b0 0b 33
        E 16 b0 0b 4c
        E 0 80 43 00
        E 0 90 41 4c
        E 32 b0 0b 44
        E 32 b0 0b 3b
        E 32 b0 0b 33
        E 16 b0 0b 4c
        E 0 80 41 00
        E 0 90 40 4c
        E 32 b0 0b 44
        E 32 b0 0b 3b
        E 32 b0 0b 33
        E 16 b0 0b 4c
        E 0 80 40 00
        E 0 90 3c 4c
        E 32 b0 0b 44
        E 32 b0 0b 3b
        E 32 b0 0b 33
        E 16 b0 0b 3b
        E 0 80 3c 00
        E 0 90 40 3b
        E 16 b0 0b 4c
        E 32 b0 0b 44
        E 32 b0 0b 3b
        E 32 b0 0b 33
        E 32 b0 0b 2a
        E 32 b0 0b 22
        E 64 b0 0b 2a
        E 32 b0 0b 33
        E 32 b0 0b 3b
        E 32 b0 0b 33
        E 16 b0 0b 2a
        E 32 b0 0b 22
        E 64 b0 0b 2a
        E 32 b0 0b 33
        E 32 b0 0b 3b
        E 32 b0 0b 33
        E 16 b0 0b 2a
        E 32 b0 0b 22
        E 64 b0 0b 2a
        E 32 b0 0b 33
        E 32 b0 0b 3b
        E 32 b0 0b 33
        E 16 b0 0b 2a
        E 32 b0 0b 22
        E 64 b0 0b 2a
        E 32 b0 0b 33
        E 32 b0 0b 3b
        E 32 b0 0b 33
        E 16 b0 0b 2a
        E 32 b0 0b 22
        E 64 b0 0b 2a
        E 32 b0 0b 33
        E 32 b0 0b 3b
        E 32 b0 0b 33
        E 16 b0 0b 2a
        E 32 b0 0b 22
        E 64 b0 0b 2a
        E 32 b0 0b 33
        E 32 b0 0b 3b
        E 32 b0 0b 33
        E 16 b0 0b 2a
        E 32 b0 0b 22
        E 64 b0 0b 2a
        E 32 b0 0b 33
        E 32 b0 0b 3b
        E 32 b0 0b 33
        E 16 b0 0b 2a
        E 32 b0 0b 22
        E 64 b0 0b 2a
        E 32 b0 0b 33
        E 32 b0 0b 3b
        E 32 b0 0b 33
        E 16 b0 0b 2a
        E 32 b0 0b 22
        E 64 b0 0b 2a
        E 16 b0 0b 4c
        E 32 b0 0b 44
        E 32 b0 0b 3b
        E 32 b0 0b 33
        E 32 b0 0b 2a
        E 32 b0 0b 22
        E 64 b0 0c 40
        E 0 b0 0b 4c
        E 0 80 40 00
        E 0 90 39 4c
        E 16 b0 0b 44
        E 16 b0 0b 3b
        E 16 b0 0b 33
        E 16 b0 0b 2a
        E 16 b0 0b 22
        E 16 b0 0b 19
        E 16 b0 0b 4c
        E 0 80 39 00
        E 0 90 2e 4c
        E 16 b0 0b 44
        E 16 b0 0b 3b
        E 16 b0 0b 33
        E 16 b0 0b 2a
        E 16 b0 0b 22
        E 16 b0 0b 19
        E 16 b0 0b 4c
        E 16 b0 0b 44
        E 16 b0 0b 3b
        E 16 b0 0b 33
        E 16 b0 0b 2a
        E 16 b0 0b 22
        E 16 b0 0b 19
        E 16 b0 0b 4c
        E 16 b0 0b 44
        E 16 b0 0b 3b
        E 16 b0 0b 33
        E 16 b0 0b 2a
        E 16 b0 0b 22
        E 16 b0 0b 19
        E 16 80 2e 00
        E 224 b0 0b 4c
        E 0 90 39 4c
        E 16 b0 0b 44
        E 16 b0 0b 3b
        E 16 b0 0b 33
        E 16 b0 0b 2a
        E 16 b0 0b 22
        E 16 b0 0b 19
        E 16 b0 0b 4c
        E 0 80 39 00
        E 0 90 2e 4c
        E 16 b0 0b 44
        E 16 b0 0b 3b
        E 16 b0 0b 33
        E 16 b0 0b 2a
        E 16 b0 0b 22
        E 16 b0 0b 19
        E 16 b0 0b 4c
        E 16 b0 0b 44
        E 16 b0 0b 3b
        E 16 b0 0b 33
        E 16 b0 0b 2a
        E 16 b0 0b 22
        E 16 b0 0b 19
        E 16 b0 0b 4c
        E 16 b0 0b 44
        E 16 b0 0b 3b
        E 16 b0 0b 33
        E 16 b0 0b 2a
        E 16 b0 0b 22
        E 16 b0 0b 19
        E 16 80 2e 00
        E 5360 b0 0b 33
        E 0 90 3d 33
        E 16 b0 0b 7f
        E 32 b0 0b 66
        E 16 b0 0b 4c
        E 64 b0 0b 44
        E 16 80 3d 00
        E 0 90 3e 44
        E 16 b0 0b 7f
        E 32 b0 0b 66
        E 16 b0 0b 4c
        E 64 b0 0b 44
        E 16 80 3e 00
        E 0 90 40 44
        E 16 b0 0b 7f
        E 32 b0 0b 66
        E 16 b0 0b 4c
        E 64 b0 0b 44
        E 32 b0 0b 3b
        E 0 80 40 00
        E 0 90 2d 3b
        E 16 b0 0b 7f
        E 32 b0 0b 66
        E 16 b0 0b 4c
        E 64 b0 0b 44
        E 32 b0 0b 3b
        E 32 b0 0b 33
        E 32 b0 0b 2a
        E 32 b0 0b 22
        E 32 b0 0b 3b
        E 32 b0 0b 33
        E 16 80 2d 00
        E 0 90 5f 33
        E 16 b0 0b 7f
        E 32 b0 0b 66
        E 16 b0 0b 4c
        E 64 b0 0b 44
        E 32 b0 0b 3b
        E 32 b0 0b 33
        E 32 b0 0b 2a
        E 32 b0 0b 22
        E 32 b0 0b 3b
        E 32 b0 0b 33
        E 32 b0 0b 2a
        E 32 b0 0b 22
        E 32 b0 0b 3b
        E 32 b0 0b 33
        E 32 b0 0b 2a
        E 32 b0 0b 22
        E 32 b0 0b 3b
        E 32 b0 0b 33
        E 32 b0 0b 2a
        E 32 b0 0b 22
        E 32 b0 0b 3b
        E 32 b0 0b 33
        E 32 b0 0b 2a
        E 32 b0 0b 22
        E 32 b0 0b 3b
        E 32 b0 0b 33
        E 32 b0 0b 2a
        E 32 b0 0b 22
        E 32 b0 0b 3b
        E 32 b0 0b 33
        E 32 b0 0b 2a
        E 32 b0 0b 22
        E 32 b0 0b 3b
        E 32 b0 0b 33
        E 32 b0 0b 2a
        E 32 b0 0b 22
        E 32 b0 0b 3b
        E 32 b0 0b 33
        E 32 b0 0b 2a
        E 32 b0 0b 22
        E 32 b0 0b 3b
        E 32 b0 0b 33
        E 32 b0 0b 2a
        E 32 b0 0b 22
        E 32 b0 0b 3b
        E 16 80 5f 00
        E 0 90 3e 3b
        E 16 b0 0b 7f
        E 32 b0 0b 66
        E 16 b0 0b 4c
        E 64 b0 0b 44
        E 32 b0 0b 3b
        E 32 b0 0b 33
        E 32 b0 0b 2a
        E 32 b0 0b 22
        E 32 b0 0b 3b
        E 32 b0 0b 33
        E 32 b0 0b 2a
        E 32 b0 0b 22
        E 32 b0 0b 3b
        E 32 b0 0b 33
        E 32 b0 0b 2a
        E 32 b0 0b 22
        E 32 b0 0b 3b
        E 32 b0 0b 33
        E 32 b0 0b 2a
        E 32 b0 0b 22
        E 32 b0 0b 3b
        E 32 b0 0b 33
        E 32 b0 0b 2a
        E 32 b0 0b 22
        E 32 b0 0b 3b
        E 32 b0 0b 33
        E 32 b0 0b 2a
        E 32 b0 0b 22
        E 32 b0 0b 3b
        E 32 b0 0b 33
        E 32 b0 0b 2a
        E 32 b0 0b 22
        E 32 b0 0b 3b
        E 32 b0 0b 33
        E 32 b0 0b 2a
        E 32 b0 0b 22
        E 32 b0 0b 3b
        E 32 b0 0b 33
        E 32 b0 0b 2a
        E 32 b0 0b 22
        E 32 b0 0b 3b
        E 32 b0 0b 33
        E 0 80 3e 00
        E 0 90 3d 33
        E 16 b0 0b 7f
        E 32 b0 0b 66
        E 16 b0 0b 4c
        E 64 b0 0b 44
        E 16 80 3d 00
        E 0 90 3e 44
        E 16 b0 0b 7f
        E 32 b0 0b 66
        E 16 b0 0b 4c
        E 64 b0 0b 44
        E 16 80 3e 00
        E 0 90 40 44
        E 16 b0 0b 7f
        E 32 b0 0b 66
        E 16 b0 0b 4c
        E 64 b0 0b 44
        E 32 b0 0b 3b
        E 0 80 40 00
        E 0 90 45 3b
        E 16 b0 0b 7f
        E 32 b0 0b 66
        E 16 b0 0b 4c
        E 64 b0 0b 44
        E 32 b0 0b 3b
        E 32 b0 0b 33
        E 32 b0 0b 2a
        E 32 b0 0b 22
        E 32 b0 0b 3b
        E 32 b0 0b 33
        E 16 80 45 00
        E 0 90 43 33
        E 16 b0 0b 7f
        E 32 b0 0b 66
        E 16 b0 0b 4c
        E 64 b0 0b 44
        E 32 b0 0b 3b
        E 32 b0 0b 33
        E 32 b0 0b 2a
        E 32 b0 0b 22
        E 32 b0 0b 3b
        E 32 b0 0b 33
        E 16 80 43 00
        E 0 90 3e 33
        E 16 b0 0b 7f
        E 32 b0 0b 66
        E 16 b0 0b 4c
        E 64 b0 0b 44
        E 32 b0 0b 3b
        E 32 b0 0b 33
        E 32 b0 0b 2a
        E 0 80 3e 00
        E 0 90 3b 2a
        E 16 b0 0b 7f
        E 32 b0 0b 66
        E 16 b0 0b 4c
        E 64 b0 0b 44
        E 32 b0 0b 3b
        E 32 b0 0b 33
        E 32 b0 0b 2a
        E 32 b0 0b 22
        E 32 b0 0b 3b
        E 32 b0 0b 33
        E 32 b0 0b 2a
        E 32 b0 0b 22
        E 32 b0 0b 3b
        E 32 b0 0b 33
        E 0 80 3b 00
        E 0 90 2f 33
        E 16 b0 0b 7f
        E 32 b0 0b 66
        E 16 b0 0b 4c
        E 64 b0 0b 44
        E 32 b0 0b 3b
        E 32 b0 0b 33
        E 32 b0 0b 2a
        E 32 b0 0b 22
        E 32 b0 0b 3b
        E 32 b0 0b 33
        E 32 b0 0b 2a
        E 32 b0 0b 22
        E 32 b0 0b 3b
        E 32 b0 0b 33
        E 0 80 2f 00
        E 0 90 5e 33
        E 16 b0 0b 7f
        E 32 b0 0b 66
        E 16 b0 0b 4c
        E 64 b0 0b 44
        E 32 b0 0b 3b
        E 32 b0 0b 33
        E 32 b0 0b 2a
        E 32 b0 0b 22
        E 32 b0 0b 3b
        E 32 b0 0b 33
        E 32 b0 0b 2a
        E 32 b0 0b 22
        E 32 b0 0b 3b
        E 32 b0 0b 33
        E 32 b0 0b 2a
        E 32 b0 0b 22
        E 32 b0 0b 3b
        E 32 b0 0b 33
        E 32 b0 0b 2a
        E 32 b0 0b 22
        E 32 b0 0b 3b
        E 32 b0 0b 33
        E 32 b0 0b 2a
        E 32 b0 0b 22
        E 32 b0 0b 3b
        E 32 b0 0b 33
        E 32 b0 0b 2a
        E 32 b0 0b 22
        E 32 b0 0b 3b
        E 32 b0 0b 33
        E 32 b0 0b 2a
        E 32 b0 0b 22
        E 32 b0 0b 3b
        E 32 b0 0b 33
        E 32 b0 0b 2a
        E 32 b0 0b 22
        E 32 b0 0b 3b
        E 32 b0 0b 33
        E 32 b0 0b 2a
        E 32 b0 0b 22
        E 32 b0 0b 3b
        E 32 b0 0b 33
        E 0 80 5e 00
        E 0 90 3d 33
        E 16 b0 0b 7f
        E 32 b0 0b 66
        E 16 b0 0b 4c
        E 64 b0 0b 44
        E 16 80 3d 00
        E 0 90 3e 44
        E 16 b0 0b 7f
        E 32 b0 0b 66
        E 16 b0 0b 4c
        E 64 b0 0b 44
        E 16 80 3e 00
        E 0 90 40 44
        E 16 b0 0b 7f
        E 32 b0 0b 66
        E 16 b0 0b 4c
        E 64 b0 0b 44
        E 32 b0 0b 3b
        E 0 80 40 00
        E 0 90 2d 3b
        E 16 b0 0b 7f
        E 32 b0 0b 66
        E 16 b0 0b 4c
        E 64 b0 0b 44
        E 32 b0 0b 3b
        E 32 b0 0b 33
        E 32 b0 0b 2a
        E 32 b0 0b 22
        E 32 b0 0b 3b
        E 32 b0 0b 33
        E 16 80 2d 00
        E 0 90 5f 33
        E 16 b0 0b 7f
        E 32 b0 0b 66
        E 16 b0 0b 4c
        E 64 b0 0b 44
        E 32 b0 0b 3b
        E 32 b0 0b 33
        E 32 b0 0b 2a
        E 32 b0 0b 22
        E 32 b0 0b 3b
        E 32 b0 0b 33
        E 32 b0 0b 2a
        E 32 b0 0b 22
        E 32 b0 0b 3b
        E 32 b0 0b 33
        E 32 b0 0b 2a
        E 32 b0 0b 22
        E 32 b0 0b 3b
        E 32 b0 0b 33
        E 32 b0 0b 2a
        E 32 b0 0b 22
        E 32 b0 0b 3b
        E 32 b0 0b 33
        E 32 b0 0b 2a
        E 32 b0 0b 22
        E 32 b0 0b 3b
        E 32 b0 0b 33
        E 32 b0 0b 2a
        E 32 b0 0b 22
        E 32 b0 0b 3b
        E 32 b0 0b 33
        E 32 b0 0b 2a
        E 16 80 5f 00
        E 0 90 3e 2a
        E 16 b0 0b 7f
        E 32 b0 0b 66
        E 16 b0 0b 4c
        E 64 b0 0b 44
        E 32 b0 0b 3b
        E 32 b0 0b 33
        E 32 b0 0b 2a
        E 32 b0 0b 22
        E 32 b0 0b 3b
        E 32 b0 0b 33
        E 32 b0 0b 2a
        E 32 b0 0b 22
        E 32 b0 0b 3b
        E 32 b0 0b 33
        E 0 80 3e 00
        E 0 90 3b 33
        E 16 b0 0b 7f
        E 32 b0 0b 66
        E 16 b0 0b 4c
        E 64 b0 0b 44
        E 32 b0 0b 3b
        E 32 b0 0b 33
        E 32 b0 0b 2a
        E 32 b0 0b 22
        E 32 b0 0b 3b
        E 32 b0 0b 33
        E 16 80 3b 00
        E 0 90 3d 33
        E 16 b0 0b 7f
        E 32 b0 0b 66
        E 16 b0 0b 4c
        E 64 b0 0b 44
        E 32 b0 0b 3b
        E 32 b0 0b 33
        E 32 b0 0b 2a
        E 32 b0 0b 22
        E 32 b0 0b 3b
        E 32 b0 0b 33
        E 16 80 3d 00
        E 0 90 2d 33
        E 16 b0 0b 7f
        E 32 b0 0b 66
        E 16 b0 0b 4c
        E 64 b0 0b 44
        E 32 b0 0b 3b
        E 32 b0 0b 33
        E 32 b0 0b 2a
        E 0 80 2d 00
        E 0 90 56 2a
        E 16 b0 0b 7f
        E 32 b0 0b 66
        E 16 b0 0b 4c
        E 64 b0 0b 44
        E 32 b0 0b 3b
        E 32 b0 0b 33
        E 32 b0 0b 2a
        E 32 b0 0b 22
        E 32 b0 0b 3b
        E 32 b0 0b 33
        E 32 b0 0b 2a
        E 32 b0 0b 22
        E 32 b0 0b 3b
        E 32 b0 0b 33
        E 0 80 56 00
        E 0 90 2d 33
        E 16 b0 0b 7f
        E 32 b0 0b 66
        E 16 b0 0b 4c
        E 64 b0 0b 44
        E 32 b0 0b 3b
        E 32 b0 0b 33
        E 32 b0 0b 2a
        E 32 b0 0b 22
        E 32 b0 0b 3b
        E 32 b0 0b 33
        E 16 80 2d 00
        E 0 90 31 33
        E 16 b0 0b 7f
        E 32 b0 0b 66
        E 16 b0 0b 4c
        E 64 b0 0b 44
        E 32 b0 0b 3b
        E 32 b0 0b 33
        E 32 b0 0b 2a
        E 32 b0 0b 22
        E 32 b0 0b 3b
        E 32 b0 0b 33
        E 32 b0 0b 2a
        E 32 b0 0b 22
        E 32 b0 0b 3b
        E 32 b0 0b 33
        E 32 b0 0b 2a
        E 32 b0 0b 22
        E 32 b0 0b 3b
        E 32 b0 0b 33
        E 32 b0 0b 2a
        E 32 b0 0b 22
        E 32 b0 0b 3b
        E 32 b0 0b 33
        E 32 b0 0b 2a
        E 32 b0 0b 22
        E 32 b0 0b 3b
        E 32 b0 0b 33
        E 32 b0 0b 2a
        E 32 b0 0b 22
        E 32 b0 0b 3b
        E 32 b0 0b 33
        E 32 b0 0b 2a
        E 32 b0 0b 22
        E 32 b0 0b 3b
        E 32 b0 0b 33
        E 32 b0 0b 2a
        E 32 b0 0b 22
        E 32 b0 0b 3b
        E 32 b0 0b 33
        E 32 b0 0b 2a
        E 32 b0 0b 22
        E 32 b0 0b 3b
        E 32 b0 0b 33
        E 32 b0 0b 2a
        E 32 b0 0b 22
        E 32 b0 0b 3b
        E 32 b0 0b 33
        E 32 b0 0b 2a
        E 32 b0 0b 22
        E 32 b0 0b 3b
        E 32 b0 0b 33
        E 32 b0 0b 2a
        E 32 b0 0b 22
        E 16 80 31 00
        E 464 b0 0b 4c
        E 0 90 39 4c
        E 16 b0 0b 44
        E 16 b0 0b 3b
        E 16 b0 0b 33
        E 16 b0 0b 2a
        E 16 b0 0b 22
        E 16 b0 0b 19
        E 16 b0 0b 4c
        E 0 80 39 00
        E 0 90 2e 4c
        E 16 b0 0b 44
        E 16 b0 0b 3b
        E 16 b0 0b 33
        E 16 b0 0b 2a
        E 16 b0 0b 22
        E 16 b0 0b 19
        E 16 b0 0b 4c
        E 16 b0 0b 44
        E 16 b0 0b 3b
        E 16 b0 0b 33
        E 16 b0 0b 2a
        E 16 b0 0b 22
        E 16 b0 0b 19
        E 16 b0 0b 4c
        E 16 b0 0b 44
        E 16 b0 0b 3b
        E 16 b0 0b 33
        E 16 b0 0b 2a
        E 16 b0 0b 22
        E 16 b0 0b 19
        E 16 80 2e 00
        E 224 b0 0b 4c
        E 0 90 39 4c
        E 16 b0 0b 44
        E 16 b0 0b 3b
        E 16 b0 0b 33
        E 16 b0 0b 2a
        E 16 b0 0b 22
        E 16 b0 0b 19
        E 16 b0 0b 4c
        E 0 80 39 00
        E 0 90 2e 4c
        E 16 b0 0b 44
        E 16 b0 0b 3b
        E 16 b0 0b 33
        E 16 b0 0b 2a
        E 16 b0 0b 22
        E 16 b0 0b 19
        E 16 b0 0b 4c
        E 16 b0 0b 44
        E 16 b0 0b 3b
        E 16 b0 0b 33
        E 16 b0 0b 2a
        E 16 b0 0b 22
        E 16 b0 0b 19
        E 16 b0 0b 4c
        E 16 b0 0b 44
        E 16 b0 0b 3b
        E 16 b0 0b 33
        E 16 b0 0b 2a
        E 16 b0 0b 22
        E 16 b0 0b 19
        E 16 80 2e 00
        E 448 b0 0b 4c
        E 0 90 39 4c
        E 16 b0 0b 44
        E 16 b0 0b 3b
        E 16 b0 0b 33
        E 16 b0 0b 2a
        E 16 b0 0b 22
        E 16 b0 0b 19
        E 16 b0 0b 4c
        E 0 80 39 00
        E 0 90 2e 4c
        E 16 b0 0b 44
        E 16 b0 0b 3b
        E 16 b0 0b 33
        E 16 b0 0b 2a
        E 16 b0 0b 22
        E 16 b0 0b 19
        E 16 b0 0b 4c
        E 16 b0 0b 44
        E 16 b0 0b 3b
        E 16 b0 0b 33
        E 16 b0 0b 2a
        E 16 b0 0b 22
        E 16 b0 0b 19
        E 16 b0 0b 4c
        E 16 b0 0b 44
        E 16 b0 0b 3b
        E 16 b0 0b 33
        E 16 b0 0b 2a
        E 16 b0 0b 22
        E 16 b0 0b 19
        E 16 b0 0b 4c
        E 16 b0 0b 44
        E 16 b0 0b 3b
        E 16 b0 0b 33
        E 16 b0 0b 2a
        E 16 b0 0b 22
        E 16 b0 0b 19
        E 16 b0 0b 4c
        E 16 b0 0b 44
        E 16 b0 0b 3b
        E 16 b0 0b 33
        E 16 b0 0b 2a
        E 16 b0 0b 22
        E 16 b0 0b 19
        E 16 80 2e 00
        E 224 b0 0b 4c
        E 0 90 39 4c
        E 16 b0 0b 44
        E 16 b0 0b 3b
        E 16 b0 0b 33
        E 16 b0 0b 2a
        E 16 b0 0b 22
        E 16 b0 0b 19
        E 16 b0 0b 4c
        E 0 80 39 00
        E 0 90 2e 4c
        E 16 b0 0b 44
        E 16 b0 0b 3b
        E 16 b0 0b 33
        E 16 b0 0b 2a
        E 16 b0 0b 22
        E 16 b0 0b 19
        E 16 b0 0b 4c
        E 16 b0 0b 44
        E 16 b0 0b 3b
        E 16 b0 0b 33
        E 16 b0 0b 2a
        E 16 b0 0b 22
        E 16 b0 0b 19
        E 16 b0 0b 4c
        E 16 b0 0b 44
        E 16 b0 0b 3b
        E 16 b0 0b 33
        E 16 b0 0b 2a
        E 16 b0 0b 22
        E 16 b0 0b 19
        E 16 80 2e 00
        E 672 b0 0b 4c
        E 0 90 39 4c
        E 16 b0 0b 44
        E 16 b0 0b 3b
        E 16 b0 0b 33
        E 16 b0 0b 2a
        E 16 b0 0b 22
        E 16 b0 0b 19
        E 16 b0 0b 4c
        E 0 80 39 00
        E 0 90 2e 4c
        E 16 b0 0b 44
        E 16 b0 0b 3b
        E 16 b0 0b 33
        E 16 b0 0b 2a
        E 16 b0 0b 22
        E 16 b0 0b 19
        E 16 b0 0b 4c
        E 16 b0 0b 44
        E 16 b0 0b 3b
        E 16 b0 0b 33
        E 16 b0 0b 2a
        E 16 b0 0b 22
        E 16 b0 0b 19
        E 16 b0 0b 4c
        E 16 b0 0b 44
        E 16 b0 0b 3b
        E 16 b0 0b 33
        E 16 b0 0b 2a
        E 16 b0 0b 22
        E 16 b0 0b 19
        E 16 80 2e 00
        E 224 b0 0b 4c
        E 0 90 39 4c
        E 16 b0 0b 44
        E 16 b0 0b 3b
        E 16 b0 0b 33
        E 16 b0 0b 2a
        E 16 b0 0b 22
        E 16 b0 0b 19
        E 16 b0 0b 4c
        E 0 80 39 00
        E 0 90 2e 4c
        E 16 b0 0b 44
        E 16 b0 0b 3b
        E 16 b0 0b 33
        E 16 b0 0b 2a
        E 16 b0 0b 22
        E 16 b0 0b 19
        E 16 b0 0b 4c
        E 16 b0 0b 44
        E 16 b0 0b 3b
        E 16 b0 0b 33
        E 16 b0 0b 2a
        E 16 b0 0b 22
        E 16 b0 0b 19
        E 16 b0 0b 4c
        E 16 b0 0b 44
        E 16 b0 0b 3b
        E 16 b0 0b 33
        E 16 b0 0b 2a
        E 16 b0 0b 22
        E 16 b0 0b 19
        E 16 80 2e 00
        E 448 b0 0b 4c
        E 0 90 39 4c
        E 16 b0 0b 44
        E 16 b0 0b 3b
        E 16 b0 0b 33
        E 16 b0 0b 2a
        E 16 b0 0b 22
        E 16 b0 0b 19
        E 16 b0 0b 4c
        E 0 80 39 00
        E 0 90 2e 4c
        E 16 b0 0b 44
        E 16 b0 0b 3b
        E 16 b0 0b 33
        E 16 b0 0b 2a
        E 16 b0 0b 22
        E 16 b0 0b 19
        E 16 b0 0b 4c
        E 16 b0 0b 44
        E 16 b0 0b 3b
        E 16 b0 0b 33
        E 16 b0 0b 2a
        E 16 b0 0b 22
        E 16 b0 0b 19
        E 16 b0 0b 4c
        E 16 b0 0b 44
        E 16 b0 0b 3b
        E 16 b0 0b 33
        E 16 b0 0b 2a
        E 16 b0 0b 22
        E 16 b0 0b 19
        E 16 b0 0b 4c
        E 16 b0 0b 44
        E 16 b0 0b 3b
        E 16 b0 0b 33
        E 16 b0 0b 2a
        E 16 b0 0b 22
        E 16 b0 0b 19
        E 16 b0 0b 4c
        E 16 b0 0b 44
        E 16 b0 0b 3b
        E 16 b0 0b 33
        E 16 b0 0b 2a
        E 16 b0 0b 22
        E 16 b0 0b 19
        E 16 80 2e 00
        E 224 b0 0b 4c
        E 0 90 39 4c
        E 16 b0 0b 44
        E 16 b0 0b 3b
        E 16 b0 0b 33
        E 16 b0 0b 2a
        E 16 b0 0b 22
        E 16 b0 0b 19
        E 16 b0 0b 4c
        E 0 80 39 00
        E 0 90 2e 4c
        E 16 b0 0b 44
        E 16 b0 0b 3b
        E 16 b0 0b 33
        E 16 b0 0b 2a
        E 16 b0 0b 22
        E 16 b0 0b 19
        E 16 b0 0b 4c
        E 16 b0 0b 44
        E 16 b0 0b 3b
        E 16 b0 0b 33
        E 16 b0 0b 2a
        E 16 b0 0b 22
        E 16 b0 0b 19
        E 16 b0 0b 4c
        E 16 b0 0b 44
        E 16 b0 0b 3b
        E 16 b0 0b 33
        E 16 b0 0b 2a
        E 16 b0 0b 22
        E 16 b0 0b 19
        E 16 80 2e 00
        E 432 b0 0c 60
        E 0 b0 0b 3b
        E 0 90 39 3b
        E 16 b0 0b 4c
        E 32 b0 0b 44
        E 32 b0 0b 3b
        E 32 b0 0b 33
        E 32 b0 0b 2a
        E 32 b0 0b 22
        E 64 b0 0b 2a
        E 32 b0 0b 33
        E 32 b0 0b 3b
        E 32 b0 0b 33
        E 16 b0 0b 2a
        E 32 b0 0b 22
        E 64 b0 0b 2a
        E 32 b0 0b 33
        E 32 b0 0b 3b
        E 32 b0 0b 33
        E 16 b0 0b 2a
        E 32 b0 0b 22
        E 64 b0 0b 2a
        E 32 b0 0b 33
        E 32 b0 0b 3b
        E 32 b0 0b 33
        E 16 b0 0b 2a
        E 32 b0 0b 22
        E 64 b0 0b 2a
        E 32 b0 0b 33
        E 32 b0 0b 3b
        E 32 b0 0b 33
        E 16 b0 0b 2a
        E 32 b0 0b 22
        E 64 b0 0b 2a
        E 32 b0 0b 33
        E 32 b0 0b 3b
        E 32 b0 0b 33
        E 16 b0 0b 2a
        E 32 b0 0b 22
        E 64 b0 0b 2a
        E 32 b0 0b 33
        E 32 b0 0b 4c
        E 0 80 39 00
        E 0 90 37 4c
        E 32 b0 0b 44
        E 32 b0 0b 3b
        E 32 b0 0b 33
        E 16 b0 0b 4c
        E 32 b0 0b 44
        E 32 b0 0b 3b
        E 32 b0 0b 33
        E 16 b0 0b 4c
        E 0 80 37 00
        E 0 90 32 4c
        E 32 b0 0b 44
        E 32 b0 0b 3b
        E 32 b0 0b 33
        E 16 b0 0b 3b
        E 0 80 32 00
        E 0 90 37 3b
        E 16 b0 0b 4c
        E 32 b0 0b 44
        E 32 b0 0b 3b
        E 32 b0 0b 33
        E 32 b0 0b 2a
        E 32 b0 0b 22
        E 64 b0 0b 2a
        E 32 b0 0b 33
        E 32 b0 0b 3b
        E 32 b0 0b 33
        E 16 b0 0b 2a
        E 32 b0 0b 22
        E 64 b0 0b 2a
        E 32 b0 0b 33
        E 32 b0 0b 3b
        E 32 b0 0b 33
        E 16 b0 0b 2a
        E 32 b0 0b 22
        E 64 b0 0b 2a
        E 32 b0 0b 33
        E 32 b0 0b 3b
        E 32 b0 0b 33
        E 16 b0 0b 2a
        E 32 b0 0b 22
        E 64 b0 0b 2a
        E 32 b0 0b 33
        E 32 b0 0b 3b
        E 32 b0 0b 33
        E 16 b0 0b 2a
        E 32 b0 0b 4c
        E 0 80 37 00
        E 0 90 35 4c
        E 32 b0 0b 44
        E 32 b0 0b 3b
        E 32 b0 0b 33
        E 32 b0 0b 2a
        E 32 b0 0b 22
        E 32 b0 0b 19
        E 32 b0 0b 4c
        E 32 b0 0b 44
        E 32 b0 0b 3b
        E 32 b0 0b 33
        E 32 b0 0b 2a
        E 32 b0 0b 22
        E 32 b0 0b 19
        E 32 b0 0b 11
        E 32 b0 0b 08
        E 32 80 35 00
        E 160 b0 0b 4c
        E 0 90 34 4c
        E 32 b0 0b 44
        E 32 b0 0b 3b
        E 32 b0 0b 33
        E 32 b0 0b 2a
        E 32 b0 0b 22
        E 32 b0 0b 19
        E 32 b0 0b 11
        E 0 80 34 00
        E 0 90 32 11
        E 16 b0 0b 4c
        E 32 b0 0b 44
        E 32 b0 0b 3b
        E 32 b0 0b 33
        E 32 b0 0b 2a
        E 32 b0 0b 22
        E 64 b0 0b 2a
        E 32 b0 0b 33
        E 32 b0 0b 3b
        E 32 b0 0b 33
        E 16 b0 0b 2a
        E 32 b0 0b 22
        E 64 b0 0b 2a
        E 32 b0 0b 33
        E 32 b0 0b 3b
        E 32 b0 0b 33
        E 16 b0 0b 2a
        E 32 b0 0b 22
        E 64 b0 0b 2a
        E 32 b0 0b 33
        E 32 b0 0b 3b
        E 32 b0 0b 33
        E 16 b0 0b 2a
        E 32 b0 0b 22
        E 64 b0 0b 2a
        E 32 b0 0b 33
        E 32 b0 0b 3b
        E 32 b0 0b 33
        E 16 b0 0b 2a
        E 32 b0 0b 22
        E 64 b0 0b 2a
        E 32 b0 0b 33
        E 32 b0 0b 3b
        E 32 b0 0b 33
        E 16 b0 0b 2a
        E 32 b0 0b 22
        E 64 b0 0b 2a
        E 32 b0 0b 33
        E 32 b0 0b 4c
        E 0 80 32 00
        E 0 90 37 4c
        E 32 b0 0b 44
        E 32 b0 0b 3b
        E 32 b0 0b 33
        E 16 b0 0b 4c
        E 32 b0 0b 44
        E 32 b0 0b 3b
        E 32 b0 0b 33
        E 16 b0 0b 4c
        E 0 80 37 00
        E 0 90 32 4c
        E 32 b0 0b 44
        E 32 b0 0b 3b
        E 32 b0 0b 33
        E 16 b0 0b 4c
        E 0 80 32 00
        E 0 90 37 4c
        E 32 b0 0b 44
        E 32 b0 0b 3b
        E 32 b0 0b 33
        E 32 b0 0b 2a
        E 32 b0 0b 22
        E 32 b0 0b 19
        E 32 b0 0b 11
        E 32 b0 0b 08
        E 32 80 37 00
        E 160 b0 0b 4c
        E 0 90 51 4c
        E 32 b0 0b 44
        E 32 b0 0b 3b
        E 32 b0 0b 33
        E 32 b0 0b 2a
        E 32 b0 0b 22
        E 32 b0 0b 19
        E 32 b0 0b 11
        E 32 b0 0b 08
        E 32 80 51 00
        E 48 b0 0b 4c
        E 0 90 39 4c
        E 32 b0 0b 44
        E 32 b0 0b 3b
        E 32 b0 0b 33
        E 32 b0 0b 2a
        E 32 b0 0b 22
        E 32 b0 0b 19
        E 32 b0 0b 11
        E 0 80 39 00
        E 0 90 3c 11
        E 16 b0 0b 7f
        E 16 b0 0b 66
        E 16 b0 0b 4c
        E 16 b0 0b 44
        E 16 b0 0b 3b
        E 32 b0 0b 33
        E 32 b0 0b 2a
        E 32 b0 0b 22
        E 64 b0 0b 2a
        E 32 b0 0b 33
        E 32 b0 0b 3b
        E 32 b0 0b 33
        E 16 b0 0b 2a
        E 32 b0 0b 22
        E 64 b0 0b 2a
        E 32 b0 0b 33
        E 32 b0 0b 3b
        E 32 b0 0b 33
        E 16 b0 0b 2a
        E 32 b0 0b 22
        E 64 b0 0b 2a
        E 32 b0 0b 33
        E 32 b0 0b 3b
        E 32 b0 0b 33
        E 16 b0 0b 2a
        E 32 b0 0b 22
        E 64 b0 0b 2a
        E 32 b0 0b 33
        E 0 80 3c 00
        E 0 90 30 33
        E 16 b0 0b 4c
        E 32 b0 0b 44
        E 32 b0 0b 3b
        E 32 b0 0b 33
        E 32 b0 0b 2a
        E 32 b0 0b 22
        E 64 b0 0b 2a
        E 32 b0 0b 33
        E 32 b0 0b 3b
        E 32 b0 0b 33
        E 16 b0 0b 2a
        E 32 b0 0b 22
        E 64 b0 0b 2a
        E 32 b0 0b 33
        E 32 b0 0b 3b
        E 32 b0 0b 33
        E 16 b0 0b 2a
        E 32 b0 0b 22
        E 64 b0 0b 2a
        E 32 b0 0b 33
        E 32 b0 0b 3b
        E 32 b0 0b 33
        E 16 b0 0b 2a
        E 32 b0 0b 22
        E 64 b0 0b 2a
        E 32 80 30 00
        E 224 b0 0b 4c
        E 0 90 39 4c
        E 32 b0 0b 44
        E 32 b0 0b 3b
        E 32 b0 0b 33
        E 32 b0 0b 2a
        E 32 b0 0b 22
        E 32 b0 0b 19
        E 32 b0 0b 4c
        E 0 80 39 00
        E 0 90 5e 4c
        E 32 b0 0b 44
        E 32 b0 0b 3b
        E 32 b0 0b 33
        E 16 b0 0b 4c
        E 0 80 5e 00
        E 0 90 3b 4c
        E 32 b0 0b 44
        E 32 b0 0b 3b
        E 32 b0 0b 33
        E 32 b0 0b 2a
        E 32 b0 0b 22
        E 32 b0 0b 19
        E 32 b0 0b 11
        E 0 80 3b 00
        E 0 90 3e 11
        E 16 b0 0b 4c
        E 32 b0 0b 44
        E 32 b0 0b 3b
        E 32 b0 0b 33
        E 32 b0 0b 2a
        E 32 b0 0b 22
        E 64 b0 0b 2a
        E 32 b0 0b 33
        E 32 b0 0b 3b
        E 32 b0 0b 33
        E 16 b0 0b 2a
        E 32 b0 0b 22
        E 64 b0 0b 2a
        E 32 b0 0b 33
        E 32 b0 0b 3b
        E 32 b0 0b 33
        E 16 b0 0b 2a
        E 32 b0 0b 22
        E 64 b0 0b 2a
        E 32 b0 0b 33
        E 32 b0 0b 3b
        E 32 b0 0b 33
        E 16 b0 0b 2a
        E 32 b0 0b 22
        E 64 b0 0b 2a
        E 32 b0 0b 33
        E 32 b0 0b 3b
        E 32 b0 0b 33
        E 16 b0 0b 2a
        E 32 b0 0b 4c
        E 0 80 3e 00
        E 0 90 41 4c
        E 32 b0 0b 44
        E 32 b0 0b 3b
        E 32 b0 0b 33
        E 16 b0 0b 4c
        E 32 b0 0b 44
        E 32 b0 0b 3b
        E 32 b0 0b 33
        E 16 b0 0b 4c
        E 0 80 41 00
        E 0 90 40 4c
        E 32 b0 0b 44
        E 32 b0 0b 3b
        E 32 b0 0b 33
        E 16 b0 0b 4c
        E 0 80 40 00
        E 0 90 3e 4c
        E 32 b0 0b 44
        E 32 b0 0b 3b
        E 32 b0 0b 33
        E 32 b0 0b 2a
        E 32 b0 0b 22
        E 32 b0 0b 19
        E 32 b0 0b 4c
        E 0 80 3e 00
        E 0 90 3c 4c
        E 32 b0 0b 44
        E 32 b0 0b 3b
        E 32 b0 0b 33
        E 32 b0 0b 2a
        E 32 b0 0b 22
        E 32 b0 0b 19
        E 32 b0 0b 11
        E 0 80 3c 00
        E 0 90 40 11
        E 16 b0 0b 4c
        E 32 b0 0b 44
        E 32 b0 0b 3b
        E 32 b0 0b 33
        E 32 b0 0b 2a
        E 32 b0 0b 22
        E 64 b0 0b 2a
        E 32 b0 0b 33
        E 32 b0 0b 3b
        E 32 b0 0b 33
        E 16 b0 0b 2a
        E 32 b0 0b 22
        E 64 b0 0b 2a
        E 32 b0 0b 33
        E 32 b0 0b 3b
        E 32 b0 0b 33
        E 16 b0 0b 2a
        E 32 b0 0b 22
        E 64 b0 0b 2a
        E 32 b0 0b 33
        E 32 b0 0b 3b
        E 32 b0 0b 33
        E 16 b0 0b 2a
        E 32 b0 0b 22
        E 64 b0 0b 2a
        E 32 b0 0b 33
        E 32 b0 0b 3b
        E 32 b0 0b 33
        E 16 b0 0b 2a
        E 32 b0 0b 22
        E 64 b0 0b 2a
        E 32 b0 0b 33
        E 32 b0 0b 3b
        E 32 b0 0b 33
        E 16 b0 0b 2a
        E 32 b0 0b 22
        E 64 b0 0b 2a
        E 32 b0 0b 33
        E 32 b0 0b 3b
        E 32 b0 0b 33
        E 16 b0 0b 2a
        E 32 b0 0b 22
        E 64 b0 0b 2a
        E 32 b0 0b 33
        E 32 b0 0b 3b
        E 32 b0 0b 33
        E 16 b0 0b 2a
        E 32 b0 0b 22
        E 64 b0 0b 2a
        E 32 b0 0b 33
        E 32 b0 0b 3b
        E 32 b0 0b 33
        E 16 b0 0b 2a
        E 32 b0 0b 22
        E 64 80 40 00
        E 240 b0 0c 40
        E 0 b0 0b 4c
        E 0 90 39 4c
        E 16 b0 0b 44
        E 16 b0 0b 3b
        E 16 b0 0b 33
        E 16 b0 0b 2a
        E 16 b0 0b 22
        E 16 b0 0b 19
        E 16 b0 0b 4c
        E 0 80 39 00
        E 0 90 2e 4c
        E 16 b0 0b 44
        E 16 b0 0b 3b
        E 16 b0 0b 33
        E 16 b0 0b 2a
        E 16 b0 0b 22
        E 16 b0 0b 19
        E 16 b0 0b 4c
        E 16 b0 0b 44
        E 16 b0 0b 3b
        E 16 b0 0b 33
        E 16 b0 0b 2a
        E 16 b0 0b 22
        E 16 b0 0b 19
        E 16 b0 0b 4c
        E 16 b0 0b 44
        E 16 b0 0b 3b
        E 16 b0 0b 33
        E 16 b0 0b 2a
        E 16 b0 0b 22
        E 16 b0 0b 19
        E 16 80 2e 00
        E 224 b0 0b 4c
        E 0 90 39 4c
        E 16 b0 0b 44
        E 16 b0 0b 3b
        E 16 b0 0b 33
        E 16 b0 0b 2a
        E 16 b0 0b 22
        E 16 b0 0b 19
        E 16 b0 0b 4c
        E 0 80 39 00
        E 0 90 2e 4c
        E 16 b0 0b 44
        E 16 b0 0b 3b
        E 16 b0 0b 33
        E 16 b0 0b 2a
        E 16 b0 0b 22
        E 16 b0 0b 19
        E 16 b0 0b 4c
        E 16 b0 0b 44
        E 16 b0 0b 3b
        E 16 b0 0b 33
        E 16 b0 0b 2a
        E 16 b0 0b 22
        E 16 b0 0b 19
        E 16 b0 0b 4c
        E 16 b0 0b 44
        E 16 b0 0b 3b
        E 16 b0 0b 33
        E 16 b0 0b 2a
        E 16 b0 0b 22
        E 16 b0 0b 19
        E 16 80 2e 00
        E 432 b0 0c 60
        E 0 b0 0b 3b
        E 0 90 39 3b
        E 16 b0 0b 4c
        E 32 b0 0b 44
        E 32 b0 0b 3b
        E 32 b0 0b 33
        E 32 b0 0b 2a
        E 32 b0 0b 22
        E 64 b0 0b 2a
        E 32 b0 0b 33
        E 32 b0 0b 3b
        E 32 b0 0b 33
        E 16 b0 0b 2a
        E 32 80 39 00
        E 0 b0 7b 00
        E 0 ff 2f 00
      >
    >
  >
  <TRACK {67F8B5AE-E17B-4448-867F-A4457EBB8E6A}
    NAME "NES - Pulse 2 [ch1]"
    PEAKCOL 10092441
    BEAT -1
    AUTOMODE 0
    PANLAWFLAGS 3
    VOLPAN 1 0 -1 -1 1
    MUTESOLO 0 0 0
    IPHASE 0
    PLAYOFFS 0 1
    ISBUS 0 0
    BUSCOMP 0 0 0 0 0
    SHOWINMIX 1 0.6667 0.5 1 0.5 0 0 0
    FIXEDLANES 9 0 0 0 0
    SEL 0
    REC 0 5088 1 0 0 0 0 0
    VU 2
    TRACKHEIGHT 0 0 0 0 0 0 0
    INQ 0 0 0 0.5 100 0 0 100
    NCHAN 2
    FX 1
    TRACKID {67F8B5AE-E17B-4448-867F-A4457EBB8E6A}
    PERF 0
    MIDIOUT -1
    MAINSEND 1 0
    <FXCHAIN
      WNDRECT 24 52 700 560
      SHOW 0
      LASTSEL 0
      DOCKED 0
      BYPASS 0 0 0
      <JS "ReapNES Studio/ReapNES_Console.jsfx" ""
        2 15 1 10 80 10 100 2 1 15 1 5 60 10 80 1 1 0 50 0 0 15 1 0 100 0 0 0.500000 0.500000 0.400000 0.300000 0.800000 1 1 0 0 0 0 - - - - - - - - - - - - - - - - - - - - - - - - - -
      >
      FLOATPOS 0 0 0 0
      FXID {54C4A104-B888-4F9D-B5FF-7C9B8BFF1D40}
      WAK 0 0
    >
    <ITEM
      POSITION 0
      LENGTH 73.5303288
      LOOP 0
      ALLTAKES 0
      FADEIN 0 0 0 0 0 0 0
      FADEOUT 0 0 0 0 0 0 0
      MUTE 0 0
      SEL 0
      IGUID {A37B9BBE-7BEF-4441-9A7C-602B1E7FCB6E}
      <SOURCE MIDI
        HASDATA 1 480 QN
        CCINTERP 32
        E 0 c1 51
        E 1776 b1 0c 60
        E 0 b1 0b 11
        E 0 91 39 11
        E 16 b1 0c 40
        E 0 b1 0b 4c
        E 16 b1 0b 2a
        E 16 b1 0b 11
        E 176 81 39 00
        E 0 91 32 11
        E 16 b1 0b 4c
        E 16 b1 0b 2a
        E 16 b1 0b 11
        E 80 b1 0b 4c
        E 16 b1 0b 2a
        E 16 b1 0b 11
        E 80 b1 0b 4c
        E 16 b1 0b 2a
        E 16 b1 0b 11
        E 192 b1 0b 4c
        E 16 b1 0b 2a
        E 16 b1 0b 11
        E 80 b1 0b 4c
        E 16 b1 0b 2a
        E 16 b1 0b 11
        E 80 b1 0b 4c
        E 16 b1 0b 2a
        E 16 b1 0b 11
        E 192 b1 0b 4c
        E 16 b1 0b 2a
        E 16 b1 0b 11
        E 80 b1 0b 4c
        E 16 b1 0b 2a
        E 16 b1 0b 11
        E 80 b1 0b 4c
        E 16 b1 0b 2a
        E 16 b1 0b 11
        E 80 b1 0b 4c
        E 16 b1 0b 2a
        E 16 b1 0b 11
        E 80 b1 0b 4c
        E 16 b1 0b 2a
        E 16 b1 0b 11
        E 80 b1 0b 4c
        E 16 b1 0b 2a
        E 16 b1 0b 11
        E 80 b1 0b 4c
        E 16 b1 0b 2a
        E 16 b1 0b 11
        E 176 81 32 00
        E 0 91 37 11
        E 16 b1 0b 4c
        E 16 b1 0b 2a
        E 16 b1 0b 11
        E 80 b1 0b 4c
        E 16 b1 0b 2a
        E 16 b1 0b 11
        E 80 b1 0b 4c
        E 16 b1 0b 2a
        E 16 b1 0b 11
        E 192 b1 0b 4c
        E 16 b1 0b 2a
        E 16 b1 0b 11
        E 80 b1 0b 4c
        E 16 b1 0b 2a
        E 16 b1 0b 11
        E 80 b1 0b 4c
        E 16 b1 0b 2a
        E 16 b1 0b 11
        E 192 b1 0b 4c
        E 16 b1 0b 2a
        E 16 b1 0b 11
        E 80 b1 0b 4c
        E 16 b1 0b 2a
        E 16 b1 0b 11
        E 80 b1 0b 4c
        E 16 b1 0b 2a
        E 16 b1 0b 11
        E 80 b1 0b 4c
        E 16 b1 0b 2a
        E 16 b1 0b 11
        E 80 b1 0b 4c
        E 16 b1 0b 2a
        E 16 b1 0b 11
        E 80 b1 0b 4c
        E 16 b1 0b 2a
        E 16 b1 0b 11
        E 80 b1 0b 4c
        E 16 b1 0b 2a
        E 16 b1 0b 11
        E 80 b1 0b 4c
        E 16 b1 0b 2a
        E 16 b1 0b 11
        E 80 b1 0b 4c
        E 16 b1 0b 2a
        E 16 b1 0b 11
        E 80 b1 0b 4c
        E 16 b1 0b 2a
        E 16 b1 0b 11
        E 80 b1 0b 4c
        E 16 b1 0b 2a
        E 16 b1 0b 11
        E 80 b1 0b 4c
        E 16 b1 0b 2a
        E 16 b1 0b 11
        E 80 b1 0b 4c
        E 16 b1 0b 2a
        E 16 b1 0b 11
        E 80 b1 0b 4c
        E 16 b1 0b 2a
        E 16 b1 0b 11
        E 80 b1 0b 4c
        E 16 b1 0b 2a
        E 16 b1 0b 11
        E 80 b1 0b 4c
        E 16 b1 0b 2a
        E 16 b1 0b 11
        E 80 b1 0b 4c
        E 16 b1 0b 2a
        E 16 b1 0b 11
        E 80 b1 0b 4c
        E 16 b1 0b 2a
        E 16 b1 0b 11
        E 80 b1 0b 4c
        E 16 b1 0b 2a
        E 16 b1 0b 11
        E 80 b1 0b 4c
        E 16 b1 0b 2a
        E 16 b1 0b 11
        E 80 b1 0b 4c
        E 16 b1 0b 2a
        E 16 b1 0b 11
        E 80 b1 0b 4c
        E 16 b1 0b 2a
        E 16 b1 0b 11
        E 80 b1 0c 60
        E 0 b1 0b 3b
        E 64 b1 0b 33
        E 32 b1 0b 2a
        E 32 b1 0b 22
        E 32 b1 0b 19
        E 32 b1 0b 11
        E 64 b1 0b 19
        E 32 b1 0b 22
        E 32 b1 0b 2a
        E 48 b1 0b 22
        E 32 b1 0b 19
        E 32 b1 0b 11
        E 64 b1 0b 19
        E 32 b1 0b 22
        E 32 b1 0b 2a
        E 48 b1 0b 22
        E 32 b1 0b 19
        E 32 b1 0b 11
        E 64 b1 0b 19
        E 32 b1 0b 22
        E 32 b1 0b 2a
        E 48 b1 0b 22
        E 32 81 37 00
        E 224 b1 0c 20
        E 0 b1 0b 3b
        E 0 91 39 3b
        E 32 b1 0b 33
        E 32 b1 0b 2a
        E 32 b1 0b 22
        E 32 b1 0b 19
        E 32 b1 0b 11
        E 32 b1 0b 08
        E 32 b1 0b 3b
        E 0 81 39 00
        E 0 91 2f 3b
        E 32 b1 0b 33
        E 32 b1 0b 2a
        E 32 b1 0b 22
        E 16 b1 0b 3b
        E 0 81 2f 00
        E 0 91 32 3b
        E 32 b1 0b 33
        E 32 b1 0b 2a
        E 32 b1 0b 22
        E 32 b1 0b 19
        E 32 b1 0b 11
        E 32 b1 0b 08
        E 32 81 32 00
        E 16 b1 0c 60
        E 0 b1 0b 3b
        E 0 91 5e 3b
        E 64 b1 0b 33
        E 32 b1 0b 2a
        E 32 b1 0b 22
        E 32 b1 0b 19
        E 32 b1 0b 11
        E 64 b1 0b 19
        E 32 b1 0b 22
        E 32 b1 0b 2a
        E 48 b1 0b 22
        E 32 b1 0b 19
        E 32 b1 0b 11
        E 64 b1 0b 19
        E 32 b1 0b 22
        E 32 b1 0b 2a
        E 48 b1 0b 22
        E 32 b1 0b 19
        E 32 b1 0b 11
        E 64 b1 0b 19
        E 32 b1 0b 22
        E 32 b1 0b 2a
        E 16 b1 0c 40
        E 0 b1 0b 08
        E 0 81 5e 00
        E 0 91 21 08
        E 96 81 21 00
        E 0 91 24 08
        E 32 81 24 00
        E 32 b1 0c 60
        E 0 b1 0b 2a
        E 0 91 19 2a
        E 16 81 19 00
        E 112 b1 0c 20
        E 0 b1 0b 3b
        E 0 91 39 3b
        E 32 b1 0b 33
        E 32 b1 0b 2a
        E 32 b1 0b 22
        E 16 b1 0b 3b
        E 0 81 39 00
        E 0 91 3c 3b
        E 32 b1 0b 33
        E 32 b1 0b 2a
        E 32 b1 0b 22
        E 16 b1 0b 3b
        E 0 81 3c 00
        E 0 91 3b 3b
        E 32 b1 0b 33
        E 32 b1 0b 2a
        E 32 b1 0b 22
        E 32 b1 0b 19
        E 32 b1 0b 11
        E 32 b1 0b 08
        E 32 b1 0b 3b
        E 0 81 3b 00
        E 0 91 39 3b
        E 32 b1 0b 33
        E 32 b1 0b 2a
        E 32 b1 0b 22
        E 32 b1 0b 19
        E 32 b1 0b 11
        E 32 b1 0b 08
        E 32 81 39 00
        E 16 b1 0c 60
        E 0 b1 0b 3b
        E 0 91 3c 3b
        E 64 b1 0b 33
        E 32 b1 0b 2a
        E 32 b1 0b 22
        E 32 b1 0b 19
        E 32 b1 0b 11
        E 64 b1 0b 19
        E 32 b1 0b 22
        E 32 b1 0b 2a
        E 48 b1 0b 22
        E 32 b1 0b 19
        E 32 b1 0b 11
        E 64 b1 0b 19
        E 32 b1 0b 22
        E 32 b1 0b 2a
        E 48 b1 0b 22
        E 32 b1 0b 19
        E 32 b1 0b 11
        E 64 b1 0b 19
        E 32 b1 0b 22
        E 32 b1 0b 2a
        E 48 b1 0b 22
        E 32 b1 0b 19
        E 32 b1 0b 11
        E 64 b1 0b 19
        E 32 b1 0b 22
        E 32 b1 0b 2a
        E 48 b1 0b 22
        E 32 b1 0b 19
        E 32 b1 0b 11
        E 64 b1 0b 19
        E 32 b1 0b 22
        E 32 b1 0b 2a
        E 48 b1 0b 22
        E 32 b1 0b 19
        E 32 b1 0b 11
        E 64 b1 0b 19
        E 32 b1 0b 22
        E 32 b1 0b 2a
        E 48 b1 0b 22
        E 32 b1 0b 19
        E 32 b1 0b 11
        E 64 b1 0b 19
        E 32 b1 0b 22
        E 32 b1 0b 2a
        E 48 b1 0b 22
        E 32 b1 0b 19
        E 32 b1 0b 11
        E 16 81 3c 00
        E 256 b1 0c 40
        E 0 b1 0b 3b
        E 0 91 2d 3b
        E 16 b1 0b 33
        E 16 b1 0b 2a
        E 16 b1 0b 22
        E 16 b1 0b 19
        E 16 b1 0b 11
        E 16 b1 0b 08
        E 16 b1 0b 3b
        E 0 81 2d 00
        E 0 91 2b 3b
        E 16 b1 0b 33
        E 16 b1 0b 2a
        E 16 b1 0b 22
        E 16 b1 0b 19
        E 16 b1 0b 11
        E 16 b1 0b 08
        E 16 b1 0b 3b
        E 16 b1 0b 33
        E 16 b1 0b 2a
        E 16 b1 0b 22
        E 16 b1 0b 19
        E 16 b1 0b 11
        E 16 b1 0b 08
        E 16 b1 0b 3b
        E 0 81 2b 00
        E 0 91 35 3b
        E 16 b1 0b 33
        E 16 b1 0b 2a
        E 16 b1 0b 22
        E 16 b1 0b 19
        E 16 b1 0b 11
        E 16 b1 0b 08
        E 16 81 35 00
        E 224 b1 0b 3b
        E 0 91 2d 3b
        E 16 b1 0b 33
        E 16 b1 0b 2a
        E 16 b1 0b 22
        E 16 b1 0b 19
        E 16 b1 0b 11
        E 16 b1 0b 08
        E 16 b1 0b 3b
        E 0 81 2d 00
        E 0 91 2b 3b
        E 16 b1 0b 33
        E 16 b1 0b 2a
        E 16 b1 0b 22
        E 16 b1 0b 19
        E 16 b1 0b 11
        E 16 b1 0b 08
        E 16 b1 0b 3b
        E 16 b1 0b 33
        E 16 b1 0b 2a
        E 16 b1 0b 22
        E 16 b1 0b 19
        E 16 b1 0b 11
        E 16 b1 0b 08
        E 16 b1 0b 3b
        E 0 81 2b 00
        E 0 91 35 3b
        E 16 b1 0b 33
        E 16 b1 0b 2a
        E 16 b1 0b 22
        E 16 b1 0b 19
        E 16 b1 0b 11
        E 16 b1 0b 08
        E 16 81 35 00
        E 416 b1 0b 11
        E 0 91 39 11
        E 16 b1 0c 60
        E 0 b1 0b 3b
        E 64 b1 0b 33
        E 32 b1 0b 2a
        E 32 b1 0b 22
        E 32 b1 0b 19
        E 32 b1 0b 11
        E 64 b1 0b 19
        E 32 b1 0b 22
        E 32 b1 0b 2a
        E 48 b1 0b 22
        E 32 b1 0b 19
        E 32 b1 0b 11
        E 64 b1 0b 19
        E 32 b1 0b 22
        E 32 b1 0b 2a
        E 48 b1 0b 22
        E 32 b1 0b 19
        E 32 b1 0b 11
        E 64 b1 0b 19
        E 32 b1 0b 22
        E 32 b1 0b 2a
        E 48 b1 0b 22
        E 32 81 39 00
        E 224 b1 0c 20
        E 0 b1 0b 3b
        E 0 91 39 3b
        E 32 b1 0b 33
        E 32 b1 0b 2a
        E 32 b1 0b 22
        E 32 b1 0b 19
        E 32 b1 0b 11
        E 32 b1 0b 08
        E 32 b1 0b 3b
        E 0 81 39 00
        E 0 91 2f 3b
        E 32 b1 0b 33
        E 32 b1 0b 2a
        E 32 b1 0b 22
        E 16 b1 0b 3b
        E 0 81 2f 00
        E 0 91 32 3b
        E 32 b1 0b 33
        E 32 b1 0b 2a
        E 32 b1 0b 22
        E 32 b1 0b 19
        E 32 b1 0b 11
        E 32 b1 0b 08
        E 32 81 32 00
        E 16 b1 0c 60
        E 0 b1 0b 3b
        E 0 91 5e 3b
        E 64 b1 0b 33
        E 32 b1 0b 2a
        E 32 b1 0b 22
        E 32 b1 0b 19
        E 32 b1 0b 11
        E 64 b1 0b 19
        E 32 b1 0b 22
        E 32 b1 0b 2a
        E 48 b1 0b 22
        E 32 b1 0b 19
        E 32 b1 0b 11
        E 64 b1 0b 19
        E 32 b1 0b 22
        E 32 b1 0b 2a
        E 48 b1 0b 22
        E 32 b1 0b 19
        E 32 b1 0b 11
        E 64 b1 0b 19
        E 32 b1 0b 22
        E 32 b1 0b 2a
        E 48 b1 0b 22
        E 32 b1 0b 19
        E 32 b1 0b 11
        E 64 b1 0b 19
        E 16 b1 0c 20
        E 0 b1 0b 3b
        E 0 81 5e 00
        E 0 91 39 3b
        E 32 b1 0b 33
        E 32 b1 0b 2a
        E 32 b1 0b 22
        E 16 b1 0b 3b
        E 32 b1 0b 33
        E 32 b1 0b 2a
        E 32 b1 0b 22
        E 16 b1 0b 3b
        E 0 81 39 00
        E 0 91 3c 3b
        E 32 b1 0b 33
        E 32 b1 0b 2a
        E 32 b1 0b 22
        E 16 b1 0b 3b
        E 0 81 3c 00
        E 0 91 3b 3b
        E 32 b1 0b 33
        E 32 b1 0b 2a
        E 32 b1 0b 22
        E 16 b1 0b 3b
        E 0 81 3b 00
        E 0 91 2d 3b
        E 32 b1 0b 33
        E 32 b1 0b 2a
        E 32 b1 0b 22
        E 16 b1 0b 3b
        E 0 81 2d 00
        E 0 91 37 3b
        E 32 b1 0b 33
        E 32 b1 0b 2a
        E 32 b1 0b 22
        E 16 b1 0b 3b
        E 0 81 37 00
        E 0 91 34 3b
        E 32 b1 0b 33
        E 32 b1 0b 2a
        E 32 b1 0b 22
        E 16 81 34 00
        E 0 91 5e 22
        E 16 b1 0c 60
        E 0 b1 0b 3b
        E 64 b1 0b 33
        E 32 b1 0b 2a
        E 32 b1 0b 22
        E 32 b1 0b 19
        E 32 b1 0b 11
        E 64 b1 0b 19
        E 32 b1 0b 22
        E 32 b1 0b 2a
        E 48 b1 0b 22
        E 32 b1 0b 19
        E 32 b1 0b 11
        E 64 b1 0b 19
        E 32 b1 0b 22
        E 32 b1 0b 2a
        E 48 b1 0b 22
        E 32 b1 0b 19
        E 32 b1 0b 11
        E 64 b1 0b 19
        E 32 b1 0b 22
        E 32 b1 0b 2a
        E 48 b1 0b 22
        E 32 b1 0b 19
        E 32 b1 0b 11
        E 64 b1 0b 19
        E 32 b1 0b 22
        E 32 b1 0b 2a
        E 48 b1 0b 22
        E 32 b1 0b 19
        E 32 b1 0b 11
        E 64 b1 0b 19
        E 32 b1 0b 22
        E 32 b1 0b 2a
        E 48 b1 0b 22
        E 32 b1 0b 19
        E 32 b1 0b 11
        E 64 b1 0b 19
        E 32 b1 0b 22
        E 32 b1 0b 2a
        E 48 b1 0b 22
        E 32 b1 0b 19
        E 32 b1 0b 11
        E 64 b1 0b 19
        E 32 b1 0b 22
        E 32 b1 0b 2a
        E 48 b1 0b 22
        E 32 b1 0b 19
        E 32 b1 0b 11
        E 16 81 5e 00
        E 256 b1 0c 40
        E 0 b1 0b 3b
        E 0 91 2d 3b
        E 16 b1 0b 33
        E 16 b1 0b 2a
        E 16 b1 0b 22
        E 16 b1 0b 19
        E 16 b1 0b 11
        E 16 b1 0b 08
        E 16 b1 0b 3b
        E 0 81 2d 00
        E 0 91 2b 3b
        E 16 b1 0b 33
        E 16 b1 0b 2a
        E 16 b1 0b 22
        E 16 b1 0b 19
        E 16 b1 0b 11
        E 16 b1 0b 08
        E 16 b1 0b 3b
        E 16 b1 0b 33
        E 16 b1 0b 2a
        E 16 b1 0b 22
        E 16 b1 0b 19
        E 16 b1 0b 11
        E 16 b1 0b 08
        E 16 b1 0b 3b
        E 0 81 2b 00
        E 0 91 35 3b
        E 16 b1 0b 33
        E 16 b1 0b 2a
        E 16 b1 0b 22
        E 16 b1 0b 19
        E 16 b1 0b 11
        E 16 b1 0b 08
        E 16 81 35 00
        E 224 b1 0b 3b
        E 0 91 2d 3b
        E 16 b1 0b 33
        E 16 b1 0b 2a
        E 16 b1 0b 22
        E 16 b1 0b 19
        E 16 b1 0b 11
        E 16 b1 0b 08
        E 16 b1 0b 3b
        E 0 81 2d 00
        E 0 91 2b 3b
        E 16 b1 0b 33
        E 16 b1 0b 2a
        E 16 b1 0b 22
        E 16 b1 0b 19
        E 16 b1 0b 11
        E 16 b1 0b 08
        E 16 b1 0b 3b
        E 16 b1 0b 33
        E 16 b1 0b 2a
        E 16 b1 0b 22
        E 16 b1 0b 19
        E 16 b1 0b 11
        E 16 b1 0b 08
        E 16 b1 0b 3b
        E 0 81 2b 00
        E 0 91 35 3b
        E 16 b1 0b 33
        E 16 b1 0b 2a
        E 16 b1 0b 22
        E 16 b1 0b 19
        E 16 b1 0b 11
        E 16 b1 0b 08
        E 16 81 35 00
        E 416 b1 0b 11
        E 0 91 39 11
        E 16 b1 0c 60
        E 0 b1 0b 3b
        E 64 b1 0b 33
        E 32 b1 0b 2a
        E 32 b1 0b 22
        E 32 b1 0b 19
        E 32 b1 0b 11
        E 64 b1 0b 19
        E 32 b1 0b 22
        E 32 b1 0b 2a
        E 48 b1 0b 22
        E 32 b1 0b 19
        E 32 b1 0b 11
        E 64 b1 0b 19
        E 32 b1 0b 22
        E 32 b1 0b 2a
        E 48 b1 0b 22
        E 32 b1 0b 19
        E 32 b1 0b 11
        E 64 b1 0b 19
        E 32 b1 0b 22
        E 32 b1 0b 2a
        E 48 b1 0b 22
        E 32 81 39 00
        E 224 b1 0c 20
        E 0 b1 0b 3b
        E 0 91 39 3b
        E 32 b1 0b 33
        E 32 b1 0b 2a
        E 32 b1 0b 22
        E 32 b1 0b 19
        E 32 b1 0b 11
        E 32 b1 0b 08
        E 32 b1 0b 3b
        E 0 81 39 00
        E 0 91 2f 3b
        E 32 b1 0b 33
        E 32 b1 0b 2a
        E 32 b1 0b 22
        E 16 b1 0b 3b
        E 0 81 2f 00
        E 0 91 32 3b
        E 32 b1 0b 33
        E 32 b1 0b 2a
        E 32 b1 0b 22
        E 32 b1 0b 19
        E 32 b1 0b 11
        E 32 b1 0b 08
        E 32 81 32 00
        E 16 b1 0c 60
        E 0 b1 0b 3b
        E 0 91 5e 3b
        E 64 b1 0b 33
        E 32 b1 0b 2a
        E 32 b1 0b 22
        E 32 b1 0b 19
        E 32 b1 0b 11
        E 64 b1 0b 19
        E 32 b1 0b 22
        E 32 b1 0b 2a
        E 48 b1 0b 22
        E 32 b1 0b 19
        E 32 b1 0b 11
        E 64 b1 0b 19
        E 32 b1 0b 22
        E 32 b1 0b 2a
        E 48 b1 0b 22
        E 32 b1 0b 19
        E 32 b1 0b 11
        E 64 b1 0b 19
        E 32 b1 0b 22
        E 32 b1 0b 2a
        E 48 b1 0b 22
        E 32 b1 0b 19
        E 32 b1 0b 11
        E 64 b1 0b 19
        E 16 b1 0c 20
        E 0 b1 0b 3b
        E 0 81 5e 00
        E 0 91 39 3b
        E 32 b1 0b 33
        E 32 b1 0b 2a
        E 32 b1 0b 22
        E 16 b1 0b 3b
        E 32 b1 0b 33
        E 32 b1 0b 2a
        E 32 b1 0b 22
        E 16 b1 0b 3b
        E 0 81 39 00
        E 0 91 3c 3b
        E 32 b1 0b 33
        E 32 b1 0b 2a
        E 32 b1 0b 22
        E 16 b1 0b 3b
        E 0 81 3c 00
        E 0 91 3b 3b
        E 32 b1 0b 33
        E 32 b1 0b 2a
        E 32 b1 0b 22
        E 32 b1 0b 19
        E 32 b1 0b 11
        E 32 b1 0b 08
        E 32 b1 0b 3b
        E 0 81 3b 00
        E 0 91 39 3b
        E 32 b1 0b 33
        E 32 b1 0b 2a
        E 32 b1 0b 22
        E 32 b1 0b 19
        E 32 b1 0b 11
        E 32 b1 0b 08
        E 32 81 39 00
        E 16 b1 0c 60
        E 0 b1 0b 3b
        E 0 91 3c 3b
        E 64 b1 0b 33
        E 32 b1 0b 2a
        E 32 b1 0b 22
        E 32 b1 0b 19
        E 32 b1 0b 11
        E 64 b1 0b 19
        E 32 b1 0b 22
        E 32 b1 0b 2a
        E 48 b1 0b 22
        E 32 b1 0b 19
        E 32 b1 0b 11
        E 64 b1 0b 19
        E 32 b1 0b 22
        E 32 b1 0b 2a
        E 48 b1 0b 22
        E 32 b1 0b 19
        E 32 b1 0b 11
        E 64 b1 0b 19
        E 32 b1 0b 22
        E 32 b1 0b 2a
        E 48 b1 0b 22
        E 32 b1 0b 19
        E 32 b1 0b 11
        E 64 b1 0b 19
        E 32 b1 0b 22
        E 32 b1 0b 2a
        E 48 b1 0b 22
        E 32 b1 0b 19
        E 32 b1 0b 11
        E 64 b1 0b 19
        E 32 b1 0b 22
        E 32 b1 0b 2a
        E 48 b1 0b 22
        E 32 b1 0b 19
        E 32 b1 0b 11
        E 64 b1 0b 19
        E 32 b1 0b 22
        E 32 b1 0b 2a
        E 48 b1 0b 22
        E 32 b1 0b 19
        E 32 b1 0b 11
        E 64 b1 0b 19
        E 32 b1 0b 22
        E 32 b1 0b 2a
        E 48 b1 0b 22
        E 32 b1 0b 19
        E 32 b1 0b 11
        E 16 81 3c 00
        E 256 b1 0c 40
        E 0 b1 0b 3b
        E 0 91 2d 3b
        E 16 b1 0b 33
        E 16 b1 0b 2a
        E 16 b1 0b 22
        E 16 b1 0b 19
        E 16 b1 0b 11
        E 16 b1 0b 08
        E 16 b1 0b 3b
        E 0 81 2d 00
        E 0 91 2b 3b
        E 16 b1 0b 33
        E 16 b1 0b 2a
        E 16 b1 0b 22
        E 16 b1 0b 19
        E 16 b1 0b 11
        E 16 b1 0b 08
        E 16 b1 0b 3b
        E 16 b1 0b 33
        E 16 b1 0b 2a
        E 16 b1 0b 22
        E 16 b1 0b 19
        E 16 b1 0b 11
        E 16 b1 0b 08
        E 16 b1 0b 3b
        E 0 81 2b 00
        E 0 91 35 3b
        E 16 b1 0b 33
        E 16 b1 0b 2a
        E 16 b1 0b 22
        E 16 b1 0b 19
        E 16 b1 0b 11
        E 16 b1 0b 08
        E 16 81 35 00
        E 224 b1 0b 3b
        E 0 91 2d 3b
        E 16 b1 0b 33
        E 16 b1 0b 2a
        E 16 b1 0b 22
        E 16 b1 0b 19
        E 16 b1 0b 11
        E 16 b1 0b 08
        E 16 b1 0b 3b
        E 0 81 2d 00
        E 0 91 2b 3b
        E 16 b1 0b 33
        E 16 b1 0b 2a
        E 16 b1 0b 22
        E 16 b1 0b 19
        E 16 b1 0b 11
        E 16 b1 0b 08
        E 16 b1 0b 3b
        E 16 b1 0b 33
        E 16 b1 0b 2a
        E 16 b1 0b 22
        E 16 b1 0b 19
        E 16 b1 0b 11
        E 16 b1 0b 08
        E 16 b1 0b 3b
        E 0 81 2b 00
        E 0 91 35 3b
        E 16 b1 0b 33
        E 16 b1 0b 2a
        E 16 b1 0b 22
        E 16 b1 0b 19
        E 16 b1 0b 11
        E 16 b1 0b 08
        E 16 81 35 00
        E 416 b1 0b 11
        E 0 91 39 11
        E 16 b1 0c 60
        E 0 b1 0b 3b
        E 64 b1 0b 33
        E 32 b1 0b 2a
        E 32 b1 0b 22
        E 32 b1 0b 19
        E 32 b1 0b 11
        E 64 b1 0b 19
        E 32 b1 0b 22
        E 32 b1 0b 2a
        E 48 b1 0b 22
        E 32 b1 0b 19
        E 32 b1 0b 11
        E 64 b1 0b 19
        E 32 b1 0b 22
        E 32 b1 0b 2a
        E 48 b1 0b 22
        E 32 b1 0b 19
        E 32 b1 0b 11
        E 64 b1 0b 19
        E 32 b1 0b 22
        E 32 b1 0b 2a
        E 48 b1 0b 22
        E 32 81 39 00
        E 224 b1 0c 20
        E 0 b1 0b 3b
        E 0 91 39 3b
        E 32 b1 0b 33
        E 32 b1 0b 2a
        E 32 b1 0b 22
        E 32 b1 0b 19
        E 32 b1 0b 11
        E 32 b1 0b 08
        E 32 b1 0b 3b
        E 0 81 39 00
        E 0 91 2f 3b
        E 32 b1 0b 33
        E 32 b1 0b 2a
        E 32 b1 0b 22
        E 16 b1 0b 3b
        E 0 81 2f 00
        E 0 91 32 3b
        E 32 b1 0b 33
        E 32 b1 0b 2a
        E 32 b1 0b 22
        E 32 b1 0b 19
        E 32 b1 0b 11
        E 32 b1 0b 08
        E 32 81 32 00
        E 16 b1 0c 60
        E 0 b1 0b 3b
        E 0 91 5e 3b
        E 64 b1 0b 33
        E 32 b1 0b 2a
        E 32 b1 0b 22
        E 32 b1 0b 19
        E 32 b1 0b 11
        E 64 b1 0b 19
        E 32 b1 0b 22
        E 32 b1 0b 2a
        E 48 b1 0b 22
        E 32 b1 0b 19
        E 32 b1 0b 11
        E 64 b1 0b 19
        E 32 b1 0b 22
        E 32 b1 0b 2a
        E 48 b1 0b 22
        E 32 b1 0b 19
        E 32 b1 0b 11
        E 64 b1 0b 19
        E 32 b1 0b 22
        E 32 b1 0b 2a
        E 48 b1 0b 22
        E 32 b1 0b 19
        E 32 b1 0b 11
        E 64 b1 0b 19
        E 16 b1 0c 20
        E 0 b1 0b 3b
        E 0 81 5e 00
        E 0 91 39 3b
        E 32 b1 0b 33
        E 32 b1 0b 2a
        E 32 b1 0b 22
        E 16 b1 0b 3b
        E 32 b1 0b 33
        E 32 b1 0b 2a
        E 32 b1 0b 22
        E 16 b1 0b 3b
        E 0 81 39 00
        E 0 91 3c 3b
        E 32 b1 0b 33
        E 32 b1 0b 2a
        E 32 b1 0b 22
        E 16 b1 0b 3b
        E 0 81 3c 00
        E 0 91 3b 3b
        E 32 b1 0b 33
        E 32 b1 0b 2a
        E 32 b1 0b 22
        E 16 b1 0b 3b
        E 0 81 3b 00
        E 0 91 2d 3b
        E 32 b1 0b 33
        E 32 b1 0b 2a
        E 32 b1 0b 22
        E 16 b1 0b 3b
        E 0 81 2d 00
        E 0 91 37 3b
        E 32 b1 0b 33
        E 32 b1 0b 2a
        E 32 b1 0b 22
        E 16 b1 0b 3b
        E 0 81 37 00
        E 0 91 34 3b
        E 32 b1 0b 33
        E 32 b1 0b 2a
        E 32 b1 0b 22
        E 16 81 34 00
        E 0 91 5e 22
        E 16 b1 0c 60
        E 0 b1 0b 3b
        E 64 b1 0b 33
        E 32 b1 0b 2a
        E 32 b1 0b 22
        E 32 b1 0b 19
        E 32 b1 0b 11
        E 64 b1 0b 19
        E 32 b1 0b 22
        E 32 b1 0b 2a
        E 48 b1 0b 22
        E 32 b1 0b 19
        E 32 b1 0b 11
        E 64 b1 0b 19
        E 32 b1 0b 22
        E 32 b1 0b 2a
        E 48 b1 0b 22
        E 32 b1 0b 19
        E 32 b1 0b 11
        E 64 b1 0b 19
        E 32 b1 0b 22
        E 32 b1 0b 2a
        E 48 b1 0b 22
        E 32 b1 0b 19
        E 32 b1 0b 11
        E 64 b1 0b 19
        E 32 b1 0b 22
        E 32 b1 0b 2a
        E 48 b1 0b 22
        E 32 b1 0b 19
        E 32 b1 0b 11
        E 64 b1 0b 19
        E 32 b1 0b 22
        E 32 b1 0b 2a
        E 48 b1 0b 22
        E 32 b1 0b 19
        E 32 b1 0b 11
        E 64 b1 0b 19
        E 32 b1 0b 22
        E 32 b1 0b 2a
        E 48 b1 0b 22
        E 32 b1 0b 19
        E 32 b1 0b 11
        E 64 b1 0b 19
        E 32 b1 0b 22
        E 32 b1 0b 2a
        E 48 b1 0b 22
        E 32 b1 0b 19
        E 32 b1 0b 11
        E 16 81 5e 00
        E 256 b1 0c 40
        E 0 b1 0b 3b
        E 0 91 2d 3b
        E 16 b1 0b 33
        E 16 b1 0b 2a
        E 16 b1 0b 22
        E 16 b1 0b 19
        E 16 b1 0b 11
        E 16 b1 0b 08
        E 16 b1 0b 3b
        E 0 81 2d 00
        E 0 91 2b 3b
        E 16 b1 0b 33
        E 16 b1 0b 2a
        E 16 b1 0b 22
        E 16 b1 0b 19
        E 16 b1 0b 11
        E 16 b1 0b 08
        E 16 b1 0b 3b
        E 16 b1 0b 33
        E 16 b1 0b 2a
        E 16 b1 0b 22
        E 16 b1 0b 19
        E 16 b1 0b 11
        E 16 b1 0b 08
        E 16 b1 0b 3b
        E 0 81 2b 00
        E 0 91 35 3b
        E 16 b1 0b 33
        E 16 b1 0b 2a
        E 16 b1 0b 22
        E 16 b1 0b 19
        E 16 b1 0b 11
        E 16 b1 0b 08
        E 16 81 35 00
        E 224 b1 0b 3b
        E 0 91 2d 3b
        E 16 b1 0b 33
        E 16 b1 0b 2a
        E 16 b1 0b 22
        E 16 b1 0b 19
        E 16 b1 0b 11
        E 16 b1 0b 08
        E 16 b1 0b 3b
        E 0 81 2d 00
        E 0 91 2b 3b
        E 16 b1 0b 33
        E 16 b1 0b 2a
        E 16 b1 0b 22
        E 16 b1 0b 19
        E 16 b1 0b 11
        E 16 b1 0b 08
        E 16 b1 0b 3b
        E 16 b1 0b 33
        E 16 b1 0b 2a
        E 16 b1 0b 22
        E 16 b1 0b 19
        E 16 b1 0b 11
        E 16 b1 0b 08
        E 16 b1 0b 3b
        E 0 81 2b 00
        E 0 91 35 3b
        E 16 b1 0b 33
        E 16 b1 0b 2a
        E 16 b1 0b 22
        E 16 b1 0b 19
        E 16 b1 0b 11
        E 16 b1 0b 08
        E 16 81 35 00
        E 1312 b1 0c 60
        E 0 b1 0b 19
        E 0 91 2e 19
        E 16 b1 0b 3b
        E 64 b1 0b 33
        E 32 b1 0b 2a
        E 32 b1 0b 22
        E 32 b1 0b 19
        E 32 b1 0b 11
        E 64 b1 0b 19
        E 32 b1 0b 22
        E 32 b1 0b 2a
        E 0 81 2e 00
        E 0 91 37 2a
        E 16 b1 0b 3b
        E 64 b1 0b 33
        E 32 b1 0b 2a
        E 32 b1 0b 22
        E 32 b1 0b 19
        E 32 b1 0b 11
        E 64 b1 0b 19
        E 32 b1 0b 22
        E 32 b1 0b 2a
        E 0 81 37 00
        E 0 91 32 2a
        E 16 b1 0b 3b
        E 64 b1 0b 33
        E 32 b1 0b 2a
        E 32 b1 0b 22
        E 32 b1 0b 19
        E 32 b1 0b 11
        E 16 81 32 00
        E 0 91 30 11
        E 16 b1 0b 3b
        E 64 b1 0b 33
        E 32 b1 0b 2a
        E 32 b1 0b 22
        E 32 b1 0b 19
        E 32 b1 0b 11
        E 64 b1 0b 19
        E 32 b1 0b 22
        E 32 b1 0b 2a
        E 48 b1 0b 22
        E 32 b1 0b 19
        E 32 b1 0b 11
        E 64 b1 0b 19
        E 32 b1 0b 22
        E 32 b1 0b 2a
        E 48 b1 0b 22
        E 32 b1 0b 19
        E 32 b1 0b 11
        E 64 b1 0b 19
        E 32 b1 0b 22
        E 32 b1 0b 2a
        E 48 b1 0b 22
        E 32 b1 0b 19
        E 32 b1 0b 11
        E 64 b1 0b 19
        E 32 b1 0b 22
        E 32 b1 0b 2a
        E 48 b1 0b 22
        E 32 b1 0b 19
        E 32 b1 0b 11
        E 64 b1 0b 19
        E 32 b1 0b 22
        E 32 b1 0b 2a
        E 48 b1 0b 22
        E 32 b1 0b 19
        E 32 b1 0b 11
        E 64 b1 0b 19
        E 32 b1 0b 22
        E 32 b1 0b 2a
        E 32 81 30 00
        E 1792 b1 0c 40
        E 0 b1 0b 19
        E 0 91 3d 19
        E 144 81 3d 00
        E 0 91 3e 19
        E 144 81 3e 00
        E 0 91 40 19
        E 160 81 40 00
        E 0 91 2d 19
        E 256 b1 0b 11
        E 80 b1 0b 19
        E 0 81 2d 00
        E 0 91 5e 19
        E 256 b1 0b 11
        E 80 b1 0b 22
        E 0 81 5e 00
        E 0 91 2f 22
        E 16 b1 0c 60
        E 0 b1 0b 3b
        E 64 b1 0b 33
        E 32 b1 0b 2a
        E 32 b1 0b 22
        E 32 b1 0b 19
        E 32 b1 0b 11
        E 64 b1 0b 19
        E 32 b1 0b 22
        E 32 b1 0b 2a
        E 16 b1 0b 3b
        E 64 b1 0b 33
        E 32 b1 0b 2a
        E 32 b1 0b 22
        E 32 b1 0b 19
        E 32 b1 0b 11
        E 64 b1 0b 19
        E 32 b1 0b 22
        E 32 b1 0b 2a
        E 0 81 2f 00
        E 0 91 31 2a
        E 16 b1 0b 3b
        E 64 b1 0b 33
        E 32 b1 0b 2a
        E 32 b1 0b 22
        E 32 b1 0b 19
        E 32 b1 0b 11
        E 16 81 31 00
        E 0 91 32 11
        E 16 b1 0b 3b
        E 64 b1 0b 33
        E 32 b1 0b 2a
        E 32 b1 0b 22
        E 32 b1 0b 19
        E 32 b1 0b 11
        E 64 b1 0b 19
        E 32 b1 0b 22
        E 32 b1 0b 2a
        E 48 b1 0b 22
        E 32 b1 0b 19
        E 32 b1 0b 11
        E 64 b1 0b 19
        E 32 b1 0b 22
        E 32 b1 0b 2a
        E 48 b1 0b 22
        E 32 b1 0b 19
        E 32 b1 0b 11
        E 64 b1 0b 19
        E 32 b1 0b 22
        E 32 b1 0b 2a
        E 48 b1 0b 22
        E 32 b1 0b 19
        E 32 b1 0b 11
        E 64 b1 0b 19
        E 32 b1 0b 22
        E 32 b1 0b 2a
        E 48 b1 0b 22
        E 32 b1 0b 19
        E 32 b1 0b 11
        E 64 b1 0b 19
        E 32 b1 0b 22
        E 32 b1 0b 2a
        E 48 b1 0b 22
        E 0 81 32 00
        E 0 91 4c 22
        E 16 b1 0b 3b
        E 64 b1 0b 33
        E 32 b1 0b 2a
        E 32 b1 0b 22
        E 32 b1 0b 19
        E 32 b1 0b 11
        E 64 b1 0b 19
        E 32 b1 0b 22
        E 32 b1 0b 2a
        E 48 b1 0b 22
        E 32 b1 0b 19
        E 32 b1 0b 11
        E 0 81 4c 00
        E 0 91 39 11
        E 16 b1 0b 3b
        E 64 b1 0b 33
        E 32 b1 0b 2a
        E 32 b1 0b 22
        E 32 b1 0b 19
        E 32 b1 0b 11
        E 64 b1 0b 19
        E 32 b1 0b 22
        E 32 b1 0b 2a
        E 0 81 39 00
        E 0 91 2e 2a
        E 16 b1 0b 3b
        E 64 b1 0b 33
        E 32 b1 0b 2a
        E 32 b1 0b 22
        E 32 b1 0b 19
        E 32 b1 0b 11
        E 64 b1 0b 19
        E 32 b1 0b 22
        E 32 b1 0b 2a
        E 0 81 2e 00
        E 0 91 37 2a
        E 16 b1 0b 3b
        E 64 b1 0b 33
        E 32 b1 0b 2a
        E 32 b1 0b 22
        E 32 b1 0b 19
        E 32 b1 0b 11
        E 16 81 37 00
        E 0 91 32 11
        E 16 b1 0b 3b
        E 64 b1 0b 33
        E 32 b1 0b 2a
        E 32 b1 0b 22
        E 32 b1 0b 19
        E 32 b1 0b 11
        E 64 b1 0b 19
        E 32 b1 0b 22
        E 32 b1 0b 2a
        E 48 b1 0b 22
        E 32 b1 0b 19
        E 32 b1 0b 11
        E 0 81 32 00
        E 0 91 37 11
        E 16 b1 0b 3b
        E 64 b1 0b 33
        E 32 b1 0b 2a
        E 32 b1 0b 22
        E 32 b1 0b 19
        E 32 b1 0b 11
        E 64 b1 0b 19
        E 32 b1 0b 22
        E 32 b1 0b 2a
        E 48 b1 0b 22
        E 32 b1 0b 19
        E 32 b1 0b 11
        E 0 81 37 00
        E 0 91 2f 11
        E 16 b1 0b 3b
        E 64 b1 0b 33
        E 32 b1 0b 2a
        E 32 b1 0b 22
        E 32 b1 0b 19
        E 32 b1 0b 11
        E 64 b1 0b 19
        E 32 b1 0b 22
        E 32 b1 0b 2a
        E 48 b1 0b 22
        E 32 b1 0b 19
        E 32 b1 0b 11
        E 64 b1 0b 19
        E 32 b1 0b 22
        E 32 b1 0b 2a
        E 48 b1 0b 22
        E 32 b1 0b 19
        E 32 b1 0b 11
        E 64 b1 0b 19
        E 32 b1 0b 22
        E 32 b1 0b 2a
        E 48 b1 0b 22
        E 32 b1 0b 19
        E 32 b1 0b 11
        E 64 b1 0b 19
        E 32 b1 0b 22
        E 32 b1 0b 2a
        E 48 b1 0b 22
        E 32 b1 0b 19
        E 32 b1 0b 11
        E 64 b1 0b 19
        E 32 b1 0b 22
        E 32 b1 0b 2a
        E 48 b1 0b 22
        E 32 b1 0b 19
        E 32 b1 0b 11
        E 64 b1 0b 19
        E 32 b1 0b 22
        E 32 b1 0b 2a
        E 48 b1 0b 22
        E 32 b1 0b 19
        E 32 b1 0b 11
        E 64 b1 0b 19
        E 32 b1 0b 22
        E 32 b1 0b 2a
        E 16 81 2f 00
        E 0 91 34 2a
        E 16 b1 0b 3b
        E 64 b1 0b 33
        E 32 b1 0b 2a
        E 32 b1 0b 22
        E 32 b1 0b 19
        E 32 b1 0b 11
        E 64 b1 0b 19
        E 32 b1 0b 22
        E 32 b1 0b 2a
        E 0 81 34 00
        E 0 91 2f 2a
        E 16 b1 0b 3b
        E 64 b1 0b 33
        E 32 b1 0b 2a
        E 32 b1 0b 22
        E 32 b1 0b 19
        E 32 b1 0b 11
        E 64 b1 0b 19
        E 32 b1 0b 22
        E 32 b1 0b 2a
        E 48 b1 0b 22
        E 32 b1 0b 19
        E 32 b1 0b 11
        E 64 b1 0b 19
        E 32 b1 0b 22
        E 32 b1 0b 2a
        E 48 b1 0b 22
        E 32 b1 0b 19
        E 32 b1 0b 11
        E 64 b1 0b 19
        E 32 b1 0b 22
        E 32 b1 0b 2a
        E 48 b1 0b 22
        E 32 b1 0b 19
        E 32 b1 0b 11
        E 64 b1 0b 19
        E 16 81 2f 00
        E 0 91 37 19
        E 16 b1 0b 3b
        E 64 b1 0b 33
        E 32 b1 0b 2a
        E 32 b1 0b 22
        E 32 b1 0b 19
        E 32 b1 0b 11
        E 64 b1 0b 19
        E 32 b1 0b 22
        E 32 b1 0b 2a
        E 48 b1 0b 22
        E 32 b1 0b 19
        E 32 b1 0b 11
        E 0 81 37 00
        E 0 91 32 11
        E 16 b1 0b 3b
        E 64 b1 0b 33
        E 32 b1 0b 2a
        E 32 b1 0b 22
        E 32 b1 0b 19
        E 32 b1 0b 11
        E 64 b1 0b 19
        E 32 b1 0b 22
        E 32 b1 0b 2a
        E 0 81 32 00
        E 0 91 36 2a
        E 16 b1 0b 3b
        E 64 b1 0b 33
        E 32 b1 0b 2a
        E 32 b1 0b 22
        E 32 b1 0b 19
        E 32 b1 0b 11
        E 64 b1 0b 19
        E 32 b1 0b 22
        E 32 b1 0b 2a
        E 0 81 36 00
        E 0 91 31 2a
        E 16 b1 0b 3b
        E 64 b1 0b 33
        E 32 b1 0b 2a
        E 32 b1 0b 22
        E 32 b1 0b 19
        E 32 b1 0b 11
        E 16 81 31 00
        E 0 91 2e 11
        E 16 b1 0b 3b
        E 64 b1 0b 33
        E 32 b1 0b 2a
        E 32 b1 0b 22
        E 32 b1 0b 19
        E 32 b1 0b 11
        E 64 b1 0b 19
        E 32 b1 0b 22
        E 32 b1 0b 2a
        E 48 b1 0b 22
        E 32 b1 0b 19
        E 32 b1 0b 11
        E 0 81 2e 00
        E 0 91 28 11
        E 16 b1 0b 3b
        E 64 b1 0b 33
        E 32 b1 0b 2a
        E 32 b1 0b 22
        E 32 b1 0b 19
        E 32 b1 0b 11
        E 64 b1 0b 19
        E 32 b1 0b 22
        E 32 b1 0c 20
        E 0 b1 0b 33
        E 0 81 28 00
        E 0 91 34 33
        E 256 b1 0b 2a
        E 256 b1 0b 22
        E 256 b1 0b 19
        E 256 b1 0b 11
        E 256 b1 0b 08
        E 256 81 34 00
        E 624 b1 0c 40
        E 0 b1 0b 3b
        E 0 91 2d 3b
        E 16 b1 0b 33
        E 16 b1 0b 2a
        E 16 b1 0b 22
        E 16 b1 0b 19
        E 16 b1 0b 11
        E 16 b1 0b 08
        E 16 b1 0b 3b
        E 0 81 2d 00
        E 0 91 2b 3b
        E 16 b1 0b 33
        E 16 b1 0b 2a
        E 16 b1 0b 22
        E 16 b1 0b 19
        E 16 b1 0b 11
        E 16 b1 0b 08
        E 16 b1 0b 3b
        E 16 b1 0b 33
        E 16 b1 0b 2a
        E 16 b1 0b 22
        E 16 b1 0b 19
        E 16 b1 0b 11
        E 16 b1 0b 08
        E 16 b1 0b 3b
        E 0 81 2b 00
        E 0 91 35 3b
        E 16 b1 0b 33
        E 16 b1 0b 2a
        E 16 b1 0b 22
        E 16 b1 0b 19
        E 16 b1 0b 11
        E 16 b1 0b 08
        E 16 81 35 00
        E 224 b1 0b 3b
        E 0 91 2d 3b
        E 16 b1 0b 33
        E 16 b1 0b 2a
        E 16 b1 0b 22
        E 16 b1 0b 19
        E 16 b1 0b 11
        E 16 b1 0b 08
        E 16 b1 0b 3b
        E 0 81 2d 00
        E 0 91 2b 3b
        E 16 b1 0b 33
        E 16 b1 0b 2a
        E 16 b1 0b 22
        E 16 b1 0b 19
        E 16 b1 0b 11
        E 16 b1 0b 08
        E 16 b1 0b 3b
        E 16 b1 0b 33
        E 16 b1 0b 2a
        E 16 b1 0b 22
        E 16 b1 0b 19
        E 16 b1 0b 11
        E 16 b1 0b 08
        E 16 b1 0b 3b
        E 0 81 2b 00
        E 0 91 35 3b
        E 16 b1 0b 33
        E 16 b1 0b 2a
        E 16 b1 0b 22
        E 16 b1 0b 19
        E 16 b1 0b 11
        E 16 b1 0b 08
        E 16 81 35 00
        E 448 b1 0b 3b
        E 0 91 2d 3b
        E 16 b1 0b 33
        E 16 b1 0b 2a
        E 16 b1 0b 22
        E 16 b1 0b 19
        E 16 b1 0b 11
        E 16 b1 0b 08
        E 16 b1 0b 3b
        E 0 81 2d 00
        E 0 91 2b 3b
        E 16 b1 0b 33
        E 16 b1 0b 2a
        E 16 b1 0b 22
        E 16 b1 0b 19
        E 16 b1 0b 11
        E 16 b1 0b 08
        E 16 b1 0b 3b
        E 16 b1 0b 33
        E 16 b1 0b 2a
        E 16 b1 0b 22
        E 16 b1 0b 19
        E 16 b1 0b 11
        E 16 b1 0b 08
        E 16 b1 0b 3b
        E 16 b1 0b 33
        E 16 b1 0b 2a
        E 16 b1 0b 22
        E 16 b1 0b 19
        E 16 b1 0b 11
        E 16 b1 0b 08
        E 16 b1 0b 3b
        E 16 b1 0b 33
        E 16 b1 0b 2a
        E 16 b1 0b 22
        E 16 b1 0b 19
        E 16 b1 0b 11
        E 16 b1 0b 08
        E 16 b1 0b 3b
        E 0 81 2b 00
        E 0 91 35 3b
        E 16 b1 0b 33
        E 16 b1 0b 2a
        E 16 b1 0b 22
        E 16 b1 0b 19
        E 16 b1 0b 11
        E 16 b1 0b 08
        E 16 81 35 00
        E 224 b1 0b 3b
        E 0 91 2d 3b
        E 16 b1 0b 33
        E 16 b1 0b 2a
        E 16 b1 0b 22
        E 16 b1 0b 19
        E 16 b1 0b 11
        E 16 b1 0b 08
        E 16 b1 0b 3b
        E 0 81 2d 00
        E 0 91 2b 3b
        E 16 b1 0b 33
        E 16 b1 0b 2a
        E 16 b1 0b 22
        E 16 b1 0b 19
        E 16 b1 0b 11
        E 16 b1 0b 08
        E 16 b1 0b 3b
        E 16 b1 0b 33
        E 16 b1 0b 2a
        E 16 b1 0b 22
        E 16 b1 0b 19
        E 16 b1 0b 11
        E 16 b1 0b 08
        E 16 b1 0b 3b
        E 0 81 2b 00
        E 0 91 35 3b
        E 16 b1 0b 33
        E 16 b1 0b 2a
        E 16 b1 0b 22
        E 16 b1 0b 19
        E 16 b1 0b 11
        E 16 b1 0b 08
        E 16 81 35 00
        E 672 b1 0b 3b
        E 0 91 2d 3b
        E 16 b1 0b 33
        E 16 b1 0b 2a
        E 16 b1 0b 22
        E 16 b1 0b 19
        E 16 b1 0b 11
        E 16 b1 0b 08
        E 16 b1 0b 3b
        E 0 81 2d 00
        E 0 91 2b 3b
        E 16 b1 0b 33
        E 16 b1 0b 2a
        E 16 b1 0b 22
        E 16 b1 0b 19
        E 16 b1 0b 11
        E 16 b1 0b 08
        E 16 b1 0b 3b
        E 16 b1 0b 33
        E 16 b1 0b 2a
        E 16 b1 0b 22
        E 16 b1 0b 19
        E 16 b1 0b 11
        E 16 b1 0b 08
        E 16 b1 0b 3b
        E 0 81 2b 00
        E 0 91 35 3b
        E 16 b1 0b 33
        E 16 b1 0b 2a
        E 16 b1 0b 22
        E 16 b1 0b 19
        E 16 b1 0b 11
        E 16 b1 0b 08
        E 16 81 35 00
        E 224 b1 0b 3b
        E 0 91 2d 3b
        E 16 b1 0b 33
        E 16 b1 0b 2a
        E 16 b1 0b 22
        E 16 b1 0b 19
        E 16 b1 0b 11
        E 16 b1 0b 08
        E 16 b1 0b 3b
        E 0 81 2d 00
        E 0 91 2b 3b
        E 16 b1 0b 33
        E 16 b1 0b 2a
        E 16 b1 0b 22
        E 16 b1 0b 19
        E 16 b1 0b 11
        E 16 b1 0b 08
        E 16 b1 0b 3b
        E 16 b1 0b 33
        E 16 b1 0b 2a
        E 16 b1 0b 22
        E 16 b1 0b 19
        E 16 b1 0b 11
        E 16 b1 0b 08
        E 16 b1 0b 3b
        E 0 81 2b 00
        E 0 91 35 3b
        E 16 b1 0b 33
        E 16 b1 0b 2a
        E 16 b1 0b 22
        E 16 b1 0b 19
        E 16 b1 0b 11
        E 16 b1 0b 08
        E 16 81 35 00
        E 448 b1 0b 3b
        E 0 91 2d 3b
        E 16 b1 0b 33
        E 16 b1 0b 2a
        E 16 b1 0b 22
        E 16 b1 0b 19
        E 16 b1 0b 11
        E 16 b1 0b 08
        E 16 b1 0b 3b
        E 0 81 2d 00
        E 0 91 2b 3b
        E 16 b1 0b 33
        E 16 b1 0b 2a
        E 16 b1 0b 22
        E 16 b1 0b 19
        E 16 b1 0b 11
        E 16 b1 0b 08
        E 16 b1 0b 3b
        E 16 b1 0b 33
        E 16 b1 0b 2a
        E 16 b1 0b 22
        E 16 b1 0b 19
        E 16 b1 0b 11
        E 16 b1 0b 08
        E 16 b1 0b 3b
        E 16 b1 0b 33
        E 16 b1 0b 2a
        E 16 b1 0b 22
        E 16 b1 0b 19
        E 16 b1 0b 11
        E 16 b1 0b 08
        E 16 b1 0b 3b
        E 16 b1 0b 33
        E 16 b1 0b 2a
        E 16 b1 0b 22
        E 16 b1 0b 19
        E 16 b1 0b 11
        E 16 b1 0b 08
        E 16 b1 0b 3b
        E 0 81 2b 00
        E 0 91 35 3b
        E 16 b1 0b 33
        E 16 b1 0b 2a
        E 16 b1 0b 22
        E 16 b1 0b 19
        E 16 b1 0b 11
        E 16 b1 0b 08
        E 16 81 35 00
        E 224 b1 0b 3b
        E 0 91 2d 3b
        E 16 b1 0b 33
        E 16 b1 0b 2a
        E 16 b1 0b 22
        E 16 b1 0b 19
        E 16 b1 0b 11
        E 16 b1 0b 08
        E 16 b1 0b 3b
        E 0 81 2d 00
        E 0 91 2b 3b
        E 16 b1 0b 33
        E 16 b1 0b 2a
        E 16 b1 0b 22
        E 16 b1 0b 19
        E 16 b1 0b 11
        E 16 b1 0b 08
        E 16 b1 0b 3b
        E 16 b1 0b 33
        E 16 b1 0b 2a
        E 16 b1 0b 22
        E 16 b1 0b 19
        E 16 b1 0b 11
        E 16 b1 0b 08
        E 16 b1 0b 3b
        E 0 81 2b 00
        E 0 91 35 3b
        E 16 b1 0b 33
        E 16 b1 0b 2a
        E 16 b1 0b 22
        E 16 b1 0b 19
        E 16 b1 0b 11
        E 16 b1 0b 08
        E 16 81 35 00
        E 416 b1 0b 11
        E 0 91 39 11
        E 16 b1 0c 60
        E 0 b1 0b 3b
        E 64 b1 0b 33
        E 32 b1 0b 2a
        E 32 b1 0b 22
        E 32 b1 0b 19
        E 32 b1 0b 11
        E 64 b1 0b 19
        E 32 b1 0b 22
        E 32 b1 0b 2a
        E 48 b1 0b 22
        E 32 b1 0b 19
        E 32 b1 0b 11
        E 64 b1 0b 19
        E 32 b1 0b 22
        E 32 b1 0b 2a
        E 48 b1 0b 22
        E 32 b1 0b 19
        E 32 b1 0b 11
        E 64 b1 0b 19
        E 32 b1 0b 22
        E 32 b1 0b 2a
        E 48 b1 0b 22
        E 32 b1 0b 19
        E 32 b1 0b 11
        E 64 b1 0b 19
        E 32 b1 0b 22
        E 32 b1 0b 2a
        E 48 b1 0b 22
        E 32 b1 0b 19
        E 32 b1 0b 11
        E 64 b1 0b 19
        E 32 b1 0b 22
        E 32 b1 0b 2a
        E 48 b1 0c 20
        E 0 b1 0b 3b
        E 0 81 39 00
        E 0 91 2f 3b
        E 32 b1 0b 33
        E 32 b1 0b 2a
        E 32 b1 0b 22
        E 16 b1 0b 3b
        E 32 b1 0b 33
        E 32 b1 0b 2a
        E 32 b1 0b 22
        E 16 b1 0b 3b
        E 32 b1 0b 33
        E 32 b1 0b 2a
        E 32 b1 0b 22
        E 32 b1 0c 60
        E 0 b1 0b 3b
        E 64 b1 0b 33
        E 32 b1 0b 2a
        E 32 b1 0b 22
        E 32 b1 0b 19
        E 32 b1 0b 11
        E 64 b1 0b 19
        E 32 b1 0b 22
        E 32 b1 0b 2a
        E 48 b1 0b 22
        E 32 b1 0b 19
        E 32 b1 0b 11
        E 64 b1 0b 19
        E 32 b1 0b 22
        E 32 b1 0b 2a
        E 48 b1 0b 22
        E 32 b1 0b 19
        E 32 b1 0b 11
        E 64 b1 0b 19
        E 32 b1 0b 22
        E 32 b1 0b 2a
        E 48 b1 0b 22
        E 32 b1 0b 19
        E 32 b1 0b 11
        E 64 b1 0b 19
        E 16 b1 0c 20
        E 0 b1 0b 3b
        E 0 81 2f 00
        E 0 91 2d 3b
        E 32 b1 0b 33
        E 32 b1 0b 2a
        E 32 b1 0b 22
        E 32 b1 0b 19
        E 32 b1 0b 11
        E 32 b1 0b 08
        E 32 b1 0b 3b
        E 32 b1 0b 33
        E 32 b1 0b 2a
        E 32 b1 0b 22
        E 32 b1 0b 19
        E 32 b1 0b 11
        E 32 b1 0b 08
        E 32 81 2d 00
        E 224 b1 0b 3b
        E 0 91 30 3b
        E 32 b1 0b 33
        E 32 b1 0b 2a
        E 32 b1 0b 22
        E 32 b1 0b 19
        E 32 b1 0b 11
        E 32 b1 0b 08
        E 32 81 30 00
        E 16 b1 0c 60
        E 0 b1 0b 3b
        E 0 91 2f 3b
        E 64 b1 0b 33
        E 32 b1 0b 2a
        E 32 b1 0b 22
        E 32 b1 0b 19
        E 32 b1 0b 11
        E 64 b1 0b 19
        E 32 b1 0b 22
        E 32 b1 0b 2a
        E 48 b1 0b 22
        E 32 b1 0b 19
        E 32 b1 0b 11
        E 64 b1 0b 19
        E 32 b1 0b 22
        E 32 b1 0b 2a
        E 48 b1 0b 22
        E 32 b1 0b 19
        E 32 b1 0b 11
        E 64 b1 0b 19
        E 32 b1 0b 22
        E 32 b1 0b 2a
        E 48 b1 0b 22
        E 32 b1 0b 19
        E 32 b1 0b 11
        E 64 b1 0b 19
        E 32 b1 0b 22
        E 32 b1 0b 2a
        E 48 b1 0b 22
        E 32 b1 0b 19
        E 32 b1 0b 11
        E 64 b1 0b 19
        E 32 b1 0b 22
        E 32 b1 0b 2a
        E 48 b1 0c 20
        E 0 b1 0b 3b
        E 32 b1 0b 33
        E 32 b1 0b 2a
        E 32 b1 0b 22
        E 16 b1 0b 3b
        E 32 b1 0b 33
        E 32 b1 0b 2a
        E 32 b1 0b 22
        E 16 b1 0b 3b
        E 32 b1 0b 33
        E 32 b1 0b 2a
        E 32 b1 0b 22
        E 16 b1 0b 3b
        E 32 b1 0b 33
        E 32 b1 0b 2a
        E 32 b1 0b 22
        E 32 b1 0b 19
        E 32 b1 0b 11
        E 32 b1 0b 08
        E 32 81 2f 00
        E 224 b1 0b 3b
        E 0 91 2d 3b
        E 32 b1 0b 33
        E 32 b1 0b 2a
        E 32 b1 0b 22
        E 32 b1 0b 19
        E 32 b1 0b 11
        E 32 b1 0b 08
        E 32 81 2d 00
        E 112 b1 0b 3b
        E 0 91 30 3b
        E 32 b1 0b 33
        E 32 b1 0b 2a
        E 32 b1 0b 22
        E 32 b1 0b 19
        E 32 b1 0b 11
        E 32 b1 0b 08
        E 32 81 30 00
        E 16 b1 0c 60
        E 0 b1 0b 3b
        E 0 91 51 3b
        E 64 b1 0b 33
        E 32 b1 0b 2a
        E 32 b1 0b 22
        E 32 b1 0b 19
        E 32 b1 0b 11
        E 64 b1 0b 19
        E 32 b1 0b 22
        E 32 b1 0b 2a
        E 48 b1 0b 22
        E 32 b1 0b 19
        E 32 b1 0b 11
        E 64 b1 0b 19
        E 32 b1 0b 22
        E 32 b1 0b 2a
        E 48 b1 0b 22
        E 32 b1 0b 19
        E 32 b1 0b 11
        E 64 b1 0b 19
        E 32 b1 0b 22
        E 32 b1 0b 2a
        E 48 b1 0b 22
        E 32 b1 0b 19
        E 0 81 51 00
        E 0 91 2d 19
        E 16 b1 0b 3b
        E 64 b1 0b 33
        E 32 b1 0b 2a
        E 32 b1 0b 22
        E 32 b1 0b 19
        E 32 b1 0b 11
        E 64 b1 0b 19
        E 32 b1 0b 22
        E 32 b1 0b 2a
        E 48 b1 0b 22
        E 32 b1 0b 19
        E 32 b1 0b 11
        E 64 b1 0b 19
        E 32 b1 0b 22
        E 32 b1 0b 2a
        E 48 b1 0b 22
        E 32 b1 0b 19
        E 32 b1 0b 11
        E 64 b1 0b 19
        E 32 b1 0b 22
        E 32 b1 0b 2a
        E 48 b1 0b 22
        E 32 81 2d 00
        E 224 b1 0c 20
        E 0 b1 0b 3b
        E 0 91 39 3b
        E 32 b1 0b 33
        E 32 b1 0b 2a
        E 32 b1 0b 22
        E 32 b1 0b 19
        E 32 b1 0b 11
        E 32 b1 0b 08
        E 32 b1 0b 3b
        E 0 81 39 00
        E 0 91 2f 3b
        E 32 b1 0b 33
        E 32 b1 0b 2a
        E 32 b1 0b 22
        E 16 b1 0b 3b
        E 0 81 2f 00
        E 0 91 32 3b
        E 32 b1 0b 33
        E 32 b1 0b 2a
        E 32 b1 0b 22
        E 32 b1 0b 19
        E 32 b1 0b 11
        E 32 b1 0b 08
        E 32 81 32 00
        E 16 b1 0c 60
        E 0 b1 0b 3b
        E 0 91 5e 3b
        E 64 b1 0b 33
        E 32 b1 0b 2a
        E 32 b1 0b 22
        E 32 b1 0b 19
        E 32 b1 0b 11
        E 64 b1 0b 19
        E 32 b1 0b 22
        E 32 b1 0b 2a
        E 48 b1 0b 22
        E 32 b1 0b 19
        E 32 b1 0b 11
        E 64 b1 0b 19
        E 32 b1 0b 22
        E 32 b1 0b 2a
        E 48 b1 0b 22
        E 32 b1 0b 19
        E 32 b1 0b 11
        E 64 b1 0b 19
        E 32 b1 0b 22
        E 32 b1 0b 2a
        E 48 b1 0b 22
        E 32 b1 0b 19
        E 32 b1 0b 11
        E 64 b1 0b 19
        E 16 b1 0c 20
        E 0 b1 0b 3b
        E 0 81 5e 00
        E 0 91 39 3b
        E 32 b1 0b 33
        E 32 b1 0b 2a
        E 32 b1 0b 22
        E 16 b1 0b 3b
        E 32 b1 0b 33
        E 32 b1 0b 2a
        E 32 b1 0b 22
        E 16 b1 0b 3b
        E 0 81 39 00
        E 0 91 3c 3b
        E 32 b1 0b 33
        E 32 b1 0b 2a
        E 32 b1 0b 22
        E 16 b1 0b 3b
        E 0 81 3c 00
        E 0 91 3b 3b
        E 32 b1 0b 33
        E 32 b1 0b 2a
        E 32 b1 0b 22
        E 32 b1 0b 19
        E 32 b1 0b 11
        E 32 b1 0b 08
        E 32 b1 0b 3b
        E 0 81 3b 00
        E 0 91 39 3b
        E 32 b1 0b 33
        E 32 b1 0b 2a
        E 32 b1 0b 22
        E 32 b1 0b 19
        E 32 b1 0b 11
        E 32 b1 0b 08
        E 32 81 39 00
        E 16 b1 0c 60
        E 0 b1 0b 3b
        E 0 91 3c 3b
        E 64 b1 0b 33
        E 32 b1 0b 2a
        E 32 b1 0b 22
        E 32 b1 0b 19
        E 32 b1 0b 11
        E 64 b1 0b 19
        E 32 b1 0b 22
        E 32 b1 0b 2a
        E 48 b1 0b 22
        E 32 b1 0b 19
        E 32 b1 0b 11
        E 64 b1 0b 19
        E 32 b1 0b 22
        E 32 b1 0b 2a
        E 48 b1 0b 22
        E 32 b1 0b 19
        E 32 b1 0b 11
        E 64 b1 0b 19
        E 32 b1 0b 22
        E 32 b1 0b 2a
        E 48 b1 0b 22
        E 32 b1 0b 19
        E 32 b1 0b 11
        E 64 b1 0b 19
        E 32 b1 0b 22
        E 32 b1 0b 2a
        E 48 b1 0b 22
        E 32 b1 0b 19
        E 32 b1 0b 11
        E 64 b1 0b 19
        E 32 b1 0b 22
        E 32 b1 0b 2a
        E 48 b1 0b 22
        E 32 b1 0b 19
        E 32 b1 0b 11
        E 64 b1 0b 19
        E 32 b1 0b 22
        E 32 b1 0b 2a
        E 48 b1 0b 22
        E 32 b1 0b 19
        E 32 b1 0b 11
        E 64 b1 0b 19
        E 32 b1 0b 22
        E 32 b1 0b 2a
        E 48 b1 0b 22
        E 32 b1 0b 19
        E 32 b1 0b 11
        E 16 81 3c 00
        E 256 b1 0c 40
        E 0 b1 0b 3b
        E 0 91 2d 3b
        E 16 b1 0b 33
        E 16 b1 0b 2a
        E 16 b1 0b 22
        E 16 b1 0b 19
        E 16 b1 0b 11
        E 16 b1 0b 08
        E 16 b1 0b 3b
        E 0 81 2d 00
        E 0 91 2b 3b
        E 16 b1 0b 33
        E 16 b1 0b 2a
        E 16 b1 0b 22
        E 16 b1 0b 19
        E 16 b1 0b 11
        E 16 b1 0b 08
        E 16 b1 0b 3b
        E 16 b1 0b 33
        E 16 b1 0b 2a
        E 16 b1 0b 22
        E 16 b1 0b 19
        E 16 b1 0b 11
        E 16 b1 0b 08
        E 16 b1 0b 3b
        E 0 81 2b 00
        E 0 91 35 3b
        E 16 b1 0b 33
        E 16 b1 0b 2a
        E 16 b1 0b 22
        E 16 b1 0b 19
        E 16 b1 0b 11
        E 16 b1 0b 08
        E 16 81 35 00
        E 224 b1 0b 3b
        E 0 91 2d 3b
        E 16 b1 0b 33
        E 16 b1 0b 2a
        E 16 b1 0b 22
        E 16 b1 0b 19
        E 16 b1 0b 11
        E 16 b1 0b 08
        E 16 b1 0b 3b
        E 0 81 2d 00
        E 0 91 2b 3b
        E 16 b1 0b 33
        E 16 b1 0b 2a
        E 16 b1 0b 22
        E 16 b1 0b 19
        E 16 b1 0b 11
        E 16 b1 0b 08
        E 16 b1 0b 3b
        E 16 b1 0b 33
        E 16 b1 0b 2a
        E 16 b1 0b 22
        E 16 b1 0b 19
        E 16 b1 0b 11
        E 16 b1 0b 08
        E 16 b1 0b 3b
        E 0 81 2b 00
        E 0 91 35 3b
        E 16 b1 0b 33
        E 16 b1 0b 2a
        E 16 b1 0b 22
        E 16 b1 0b 19
        E 16 b1 0b 11
        E 16 b1 0b 08
        E 16 81 35 00
        E 416 b1 0b 11
        E 0 91 39 11
        E 16 b1 0c 60
        E 0 b1 0b 3b
        E 64 b1 0b 33
        E 32 b1 0b 2a
        E 32 b1 0b 22
        E 32 b1 0b 19
        E 32 b1 0b 11
        E 64 b1 0b 19
        E 32 b1 0b 22
        E 32 b1 0b 2a
        E 48 b1 0b 22
        E 16 81 39 00
        E 0 b1 7b 00
        E 0 ff 2f 00
      >
    >
  >
  <TRACK {D1C239BE-2053-45D8-B068-8791B9140C12}
    NAME "NES - Triangle [ch2]"
    PEAKCOL 16744192
    BEAT -1
    AUTOMODE 0
    PANLAWFLAGS 3
    VOLPAN 1 0 -1 -1 1
    MUTESOLO 0 0 0
    IPHASE 0
    PLAYOFFS 0 1
    ISBUS 0 0
    BUSCOMP 0 0 0 0 0
    SHOWINMIX 1 0.6667 0.5 1 0.5 0 0 0
    FIXEDLANES 9 0 0 0 0
    SEL 0
    REC 0 5088 1 0 0 0 0 0
    VU 2
    TRACKHEIGHT 0 0 0 0 0 0 0
    INQ 0 0 0 0.5 100 0 0 100
    NCHAN 2
    FX 1
    TRACKID {D1C239BE-2053-45D8-B068-8791B9140C12}
    PERF 0
    MIDIOUT -1
    MAINSEND 1 0
    <FXCHAIN
      WNDRECT 24 52 700 560
      SHOW 0
      LASTSEL 0
      DOCKED 0
      BYPASS 0 0 0
      <JS "ReapNES Studio/ReapNES_Console.jsfx" ""
        2 15 1 10 80 10 100 2 1 15 1 5 60 10 80 1 1 0 50 0 0 15 1 0 100 0 0 0.500000 0.500000 0.400000 0.300000 0.800000 2 1 0 0 0 0 - - - - - - - - - - - - - - - - - - - - - - - - - -
      >
      FLOATPOS 0 0 0 0
      FXID {DA00DA8F-3A12-4239-827F-D6E2BC1E16CD}
      WAK 0 0
    >
    <ITEM
      POSITION 0
      LENGTH 73.5303288
      LOOP 0
      ALLTAKES 0
      FADEIN 0 0 0 0 0 0 0
      FADEOUT 0 0 0 0 0 0 0
      MUTE 0 0
      SEL 0
      IGUID {49DAA585-E6FF-4D1F-8096-901AFE94A611}
      <SOURCE MIDI
        HASDATA 1 480 QN
        CCINTERP 32
        E 0 c2 26
        E 0 b2 0b 7f
        E 0 92 2d 7f
        E 16 82 2d 00
        E 0 b2 0b 7f
        E 0 92 28 7f
        E 80 82 28 00
        E 144 b2 0b 7f
        E 0 92 26 7f
        E 80 82 26 00
        E 32 b2 0b 7f
        E 0 92 26 7f
        E 112 82 26 00
        E 0 b2 0b 7f
        E 0 92 28 7f
        E 80 82 28 00
        E 144 b2 0b 7f
        E 0 92 26 7f
        E 80 82 26 00
        E 32 b2 0b 7f
        E 0 92 26 7f
        E 112 82 26 00
        E 0 b2 0b 7f
        E 0 92 28 7f
        E 80 82 28 00
        E 144 b2 0b 7f
        E 0 92 26 7f
        E 80 82 26 00
        E 32 b2 0b 7f
        E 0 92 26 7f
        E 112 82 26 00
        E 0 b2 0b 7f
        E 0 92 28 7f
        E 80 82 28 00
        E 32 b2 0b 7f
        E 0 92 26 7f
        E 80 82 26 00
        E 32 b2 0b 7f
        E 0 92 26 7f
        E 80 82 26 00
        E 32 b2 0b 7f
        E 0 92 26 7f
        E 112 82 26 00
        E 0 b2 0b 7f
        E 0 92 28 7f
        E 80 82 28 00
        E 144 b2 0b 7f
        E 0 92 26 7f
        E 80 82 26 00
        E 32 b2 0b 7f
        E 0 92 26 7f
        E 112 82 26 00
        E 0 b2 0b 7f
        E 0 92 28 7f
        E 80 82 28 00
        E 144 b2 0b 7f
        E 0 92 26 7f
        E 80 82 26 00
        E 32 b2 0b 7f
        E 0 92 26 7f
        E 112 82 26 00
        E 0 b2 0b 7f
        E 0 92 28 7f
        E 80 82 28 00
        E 144 b2 0b 7f
        E 0 92 26 7f
        E 80 82 26 00
        E 32 b2 0b 7f
        E 0 92 26 7f
        E 112 82 26 00
        E 0 b2 0b 7f
        E 0 92 28 7f
        E 80 82 28 00
        E 32 b2 0b 7f
        E 0 92 26 7f
        E 80 82 26 00
        E 32 b2 0b 7f
        E 0 92 26 7f
        E 80 82 26 00
        E 32 b2 0b 7f
        E 0 92 26 7f
        E 112 82 26 00
        E 0 b2 0b 7f
        E 0 92 28 7f
        E 80 82 28 00
        E 144 b2 0b 7f
        E 0 92 26 7f
        E 80 82 26 00
        E 32 b2 0b 7f
        E 0 92 26 7f
        E 112 82 26 00
        E 0 b2 0b 7f
        E 0 92 28 7f
        E 80 82 28 00
        E 144 b2 0b 7f
        E 0 92 26 7f
        E 80 82 26 00
        E 32 b2 0b 7f
        E 0 92 26 7f
        E 112 82 26 00
        E 0 b2 0b 7f
        E 0 92 28 7f
        E 80 82 28 00
        E 144 b2 0b 7f
        E 0 92 26 7f
        E 80 82 26 00
        E 32 b2 0b 7f
        E 0 92 26 7f
        E 112 82 26 00
        E 0 b2 0b 7f
        E 0 92 28 7f
        E 80 82 28 00
        E 32 b2 0b 7f
        E 0 92 26 7f
        E 80 82 26 00
        E 32 b2 0b 7f
        E 0 92 26 7f
        E 80 82 26 00
        E 32 b2 0b 7f
        E 0 92 26 7f
        E 112 82 26 00
        E 0 b2 0b 7f
        E 0 92 28 7f
        E 80 82 28 00
        E 112 b2 0b 7f
        E 0 92 39 7f
        E 32 82 39 00
        E 0 b2 0b 7f
        E 0 92 22 7f
        E 80 82 22 00
        E 32 b2 0b 7f
        E 0 92 26 7f
        E 112 82 26 00
        E 0 b2 0b 7f
        E 0 92 28 7f
        E 80 82 28 00
        E 112 b2 0b 7f
        E 0 92 39 7f
        E 32 82 39 00
        E 0 b2 0b 7f
        E 0 92 22 7f
        E 80 82 22 00
        E 32 b2 0b 7f
        E 0 92 26 7f
        E 112 82 26 00
        E 0 b2 0b 7f
        E 0 92 28 7f
        E 80 82 28 00
        E 0 b2 0b 7f
        E 0 92 39 7f
        E 32 82 39 00
        E 112 b2 0b 7f
        E 0 92 24 7f
        E 80 82 24 00
        E 32 b2 0b 7f
        E 0 92 26 7f
        E 80 82 26 00
        E 0 b2 0b 7f
        E 0 92 39 7f
        E 32 82 39 00
        E 0 b2 0b 7f
        E 0 92 22 7f
        E 80 82 22 00
        E 32 b2 0b 7f
        E 0 92 26 7f
        E 80 82 26 00
        E 32 b2 0b 7f
        E 0 92 26 7f
        E 80 82 26 00
        E 32 b2 0b 7f
        E 0 92 26 7f
        E 112 82 26 00
        E 0 b2 0b 7f
        E 0 92 1e 7f
        E 80 82 1e 00
        E 0 b2 0b 7f
        E 0 92 29 7f
        E 32 82 29 00
        E 0 b2 0b 7f
        E 0 92 1e 7f
        E 80 82 1e 00
        E 32 b2 0b 7f
        E 0 92 29 7f
        E 80 82 29 00
        E 0 b2 0b 7f
        E 0 92 2b 7f
        E 32 82 2b 00
        E 0 b2 0b 7f
        E 0 92 28 7f
        E 80 82 28 00
        E 0 b2 0b 7f
        E 0 92 52 7f
        E 32 82 52 00
        E 0 b2 0b 7f
        E 0 92 1b 7f
        E 80 82 1b 00
        E 0 b2 0b 7f
        E 0 92 29 7f
        E 32 82 29 00
        E 0 b2 0b 7f
        E 0 92 1e 7f
        E 80 82 1e 00
        E 32 b2 0b 7f
        E 0 92 29 7f
        E 80 82 29 00
        E 0 b2 0b 7f
        E 0 92 2b 7f
        E 32 82 2b 00
        E 0 b2 0b 7f
        E 0 92 28 7f
        E 80 82 28 00
        E 0 b2 0b 7f
        E 0 92 2b 7f
        E 32 82 2b 00
        E 0 b2 0b 7f
        E 0 92 1e 7f
        E 80 82 1e 00
        E 0 b2 0b 7f
        E 0 92 29 7f
        E 32 82 29 00
        E 0 b2 0b 7f
        E 0 92 1e 7f
        E 80 82 1e 00
        E 32 b2 0b 7f
        E 0 92 29 7f
        E 80 82 29 00
        E 0 b2 0b 7f
        E 0 92 2b 7f
        E 32 82 2b 00
        E 0 b2 0b 7f
        E 0 92 28 7f
        E 80 82 28 00
        E 0 b2 0b 7f
        E 0 92 52 7f
        E 32 82 52 00
        E 0 b2 0b 7f
        E 0 92 1b 7f
        E 80 82 1b 00
        E 0 b2 0b 7f
        E 0 92 29 7f
        E 32 82 29 00
        E 0 b2 0b 7f
        E 0 92 1e 7f
        E 80 82 1e 00
        E 32 b2 0b 7f
        E 0 92 29 7f
        E 80 82 29 00
        E 0 b2 0b 7f
        E 0 92 2b 7f
        E 32 82 2b 00
        E 0 b2 0b 7f
        E 0 92 28 7f
        E 80 82 28 00
        E 0 b2 0b 7f
        E 0 92 2b 7f
        E 32 82 2b 00
        E 0 b2 0b 7f
        E 0 92 1e 7f
        E 80 82 1e 00
        E 0 b2 0b 7f
        E 0 92 29 7f
        E 32 82 29 00
        E 0 b2 0b 7f
        E 0 92 1e 7f
        E 80 82 1e 00
        E 32 b2 0b 7f
        E 0 92 29 7f
        E 80 82 29 00
        E 0 b2 0b 7f
        E 0 92 2b 7f
        E 32 82 2b 00
        E 0 b2 0b 7f
        E 0 92 28 7f
        E 80 82 28 00
        E 0 b2 0b 7f
        E 0 92 52 7f
        E 32 82 52 00
        E 0 b2 0b 7f
        E 0 92 1b 7f
        E 80 82 1b 00
        E 0 b2 0b 7f
        E 0 92 29 7f
        E 32 82 29 00
        E 0 b2 0b 7f
        E 0 92 1e 7f
        E 80 82 1e 00
        E 32 b2 0b 7f
        E 0 92 29 7f
        E 80 82 29 00
        E 0 b2 0b 7f
        E 0 92 2b 7f
        E 32 82 2b 00
        E 0 b2 0b 7f
        E 0 92 28 7f
        E 80 82 28 00
        E 0 b2 0b 7f
        E 0 92 2b 7f
        E 32 82 2b 00
        E 0 b2 0b 7f
        E 0 92 1e 7f
        E 80 82 1e 00
        E 0 b2 0b 7f
        E 0 92 29 7f
        E 32 82 29 00
        E 0 b2 0b 7f
        E 0 92 1e 7f
        E 80 82 1e 00
        E 32 b2 0b 7f
        E 0 92 29 7f
        E 80 82 29 00
        E 0 b2 0b 7f
        E 0 92 2b 7f
        E 32 82 2b 00
        E 0 b2 0b 7f
        E 0 92 28 7f
        E 80 82 28 00
        E 0 b2 0b 7f
        E 0 92 52 7f
        E 32 82 52 00
        E 0 b2 0b 7f
        E 0 92 1b 7f
        E 80 82 1b 00
        E 0 b2 0b 7f
        E 0 92 29 7f
        E 32 82 29 00
        E 0 b2 0b 7f
        E 0 92 1e 7f
        E 80 82 1e 00
        E 32 b2 0b 7f
        E 0 92 29 7f
        E 80 82 29 00
        E 0 b2 0b 7f
        E 0 92 2b 7f
        E 32 82 2b 00
        E 0 b2 0b 7f
        E 0 92 28 7f
        E 80 82 28 00
        E 0 b2 0b 7f
        E 0 92 2b 7f
        E 32 82 2b 00
        E 0 b2 0b 7f
        E 0 92 1e 7f
        E 80 82 1e 00
        E 0 b2 0b 7f
        E 0 92 29 7f
        E 32 82 29 00
        E 0 b2 0b 7f
        E 0 92 1e 7f
        E 80 82 1e 00
        E 32 b2 0b 7f
        E 0 92 29 7f
        E 80 82 29 00
        E 0 b2 0b 7f
        E 0 92 2b 7f
        E 32 82 2b 00
        E 0 b2 0b 7f
        E 0 92 28 7f
        E 80 82 28 00
        E 0 b2 0b 7f
        E 0 92 52 7f
        E 32 82 52 00
        E 0 b2 0b 7f
        E 0 92 1b 7f
        E 80 82 1b 00
        E 0 b2 0b 7f
        E 0 92 29 7f
        E 32 82 29 00
        E 0 b2 0b 7f
        E 0 92 1e 7f
        E 80 82 1e 00
        E 32 b2 0b 7f
        E 0 92 29 7f
        E 80 82 29 00
        E 0 b2 0b 7f
        E 0 92 2b 7f
        E 32 82 2b 00
        E 0 b2 0b 7f
        E 0 92 28 7f
        E 80 82 28 00
        E 0 b2 0b 7f
        E 0 92 2b 7f
        E 32 82 2b 00
        E 0 b2 0b 7f
        E 0 92 1e 7f
        E 80 82 1e 00
        E 0 b2 0b 7f
        E 0 92 29 7f
        E 32 82 29 00
        E 0 b2 0b 7f
        E 0 92 1e 7f
        E 80 82 1e 00
        E 32 b2 0b 7f
        E 0 92 29 7f
        E 80 82 29 00
        E 0 b2 0b 7f
        E 0 92 2b 7f
        E 32 82 2b 00
        E 0 b2 0b 7f
        E 0 92 28 7f
        E 80 82 28 00
        E 0 b2 0b 7f
        E 0 92 52 7f
        E 32 82 52 00
        E 0 b2 0b 7f
        E 0 92 1b 7f
        E 80 82 1b 00
        E 0 b2 0b 7f
        E 0 92 29 7f
        E 32 82 29 00
        E 0 b2 0b 7f
        E 0 92 1e 7f
        E 80 82 1e 00
        E 32 b2 0b 7f
        E 0 92 29 7f
        E 80 82 29 00
        E 0 b2 0b 7f
        E 0 92 2b 7f
        E 32 82 2b 00
        E 0 b2 0b 7f
        E 0 92 28 7f
        E 80 82 28 00
        E 0 b2 0b 7f
        E 0 92 2b 7f
        E 32 82 2b 00
        E 0 b2 0b 7f
        E 0 92 1e 7f
        E 80 82 1e 00
        E 0 b2 0b 7f
        E 0 92 23 7f
        E 32 82 23 00
        E 0 b2 0b 7f
        E 0 92 1e 7f
        E 80 82 1e 00
        E 32 b2 0b 7f
        E 0 92 23 7f
        E 80 82 23 00
        E 0 b2 0b 7f
        E 0 92 27 7f
        E 32 82 27 00
        E 0 b2 0b 7f
        E 0 92 28 7f
        E 80 82 28 00
        E 0 b2 0b 7f
        E 0 92 27 7f
        E 32 82 27 00
        E 0 b2 0b 7f
        E 0 92 1e 7f
        E 80 82 1e 00
        E 0 b2 0b 7f
        E 0 92 39 7f
        E 32 82 39 00
        E 0 b2 0b 7f
        E 0 92 1b 7f
        E 80 82 1b 00
        E 32 b2 0b 7f
        E 0 92 26 7f
        E 80 82 26 00
        E 0 b2 0b 7f
        E 0 92 29 7f
        E 32 82 29 00
        E 0 b2 0b 7f
        E 0 92 28 7f
        E 80 82 28 00
        E 0 b2 0b 7f
        E 0 92 29 7f
        E 32 82 29 00
        E 0 b2 0b 7f
        E 0 92 1e 7f
        E 80 82 1e 00
        E 0 b2 0b 7f
        E 0 92 23 7f
        E 32 82 23 00
        E 0 b2 0b 7f
        E 0 92 1e 7f
        E 80 82 1e 00
        E 32 b2 0b 7f
        E 0 92 23 7f
        E 80 82 23 00
        E 0 b2 0b 7f
        E 0 92 27 7f
        E 32 82 27 00
        E 0 b2 0b 7f
        E 0 92 28 7f
        E 80 82 28 00
        E 0 b2 0b 7f
        E 0 92 27 7f
        E 32 82 27 00
        E 0 b2 0b 7f
        E 0 92 1e 7f
        E 80 82 1e 00
        E 0 b2 0b 7f
        E 0 92 39 7f
        E 32 82 39 00
        E 0 b2 0b 7f
        E 0 92 1b 7f
        E 80 82 1b 00
        E 32 b2 0b 7f
        E 0 92 26 7f
        E 80 82 26 00
        E 0 b2 0b 7f
        E 0 92 29 7f
        E 32 82 29 00
        E 0 b2 0b 7f
        E 0 92 28 7f
        E 80 82 28 00
        E 0 b2 0b 7f
        E 0 92 29 7f
        E 32 82 29 00
        E 0 b2 0b 7f
        E 0 92 1e 7f
        E 80 82 1e 00
        E 0 b2 0b 7f
        E 0 92 29 7f
        E 32 82 29 00
        E 0 b2 0b 7f
        E 0 92 1e 7f
        E 80 82 1e 00
        E 32 b2 0b 7f
        E 0 92 29 7f
        E 80 82 29 00
        E 0 b2 0b 7f
        E 0 92 2b 7f
        E 32 82 2b 00
        E 0 b2 0b 7f
        E 0 92 28 7f
        E 80 82 28 00
        E 0 b2 0b 7f
        E 0 92 52 7f
        E 32 82 52 00
        E 0 b2 0b 7f
        E 0 92 1b 7f
        E 80 82 1b 00
        E 0 b2 0b 7f
        E 0 92 29 7f
        E 32 82 29 00
        E 0 b2 0b 7f
        E 0 92 1e 7f
        E 80 82 1e 00
        E 32 b2 0b 7f
        E 0 92 29 7f
        E 80 82 29 00
        E 0 b2 0b 7f
        E 0 92 2b 7f
        E 32 82 2b 00
        E 0 b2 0b 7f
        E 0 92 28 7f
        E 80 82 28 00
        E 0 b2 0b 7f
        E 0 92 2b 7f
        E 32 82 2b 00
        E 0 b2 0b 7f
        E 0 92 1e 7f
        E 80 82 1e 00
        E 0 b2 0b 7f
        E 0 92 29 7f
        E 32 82 29 00
        E 0 b2 0b 7f
        E 0 92 1e 7f
        E 80 82 1e 00
        E 32 b2 0b 7f
        E 0 92 29 7f
        E 80 82 29 00
        E 0 b2 0b 7f
        E 0 92 2b 7f
        E 32 82 2b 00
        E 0 b2 0b 7f
        E 0 92 28 7f
        E 80 82 28 00
        E 0 b2 0b 7f
        E 0 92 52 7f
        E 32 82 52 00
        E 0 b2 0b 7f
        E 0 92 1b 7f
        E 80 82 1b 00
        E 0 b2 0b 7f
        E 0 92 29 7f
        E 32 82 29 00
        E 0 b2 0b 7f
        E 0 92 1e 7f
        E 80 82 1e 00
        E 32 b2 0b 7f
        E 0 92 29 7f
        E 80 82 29 00
        E 0 b2 0b 7f
        E 0 92 2b 7f
        E 32 82 2b 00
        E 0 b2 0b 7f
        E 0 92 28 7f
        E 80 82 28 00
        E 0 b2 0b 7f
        E 0 92 2b 7f
        E 32 82 2b 00
        E 0 b2 0b 7f
        E 0 92 1e 7f
        E 80 82 1e 00
        E 0 b2 0b 7f
        E 0 92 29 7f
        E 32 82 29 00
        E 0 b2 0b 7f
        E 0 92 1e 7f
        E 80 82 1e 00
        E 32 b2 0b 7f
        E 0 92 29 7f
        E 80 82 29 00
        E 0 b2 0b 7f
        E 0 92 2b 7f
        E 32 82 2b 00
        E 0 b2 0b 7f
        E 0 92 28 7f
        E 80 82 28 00
        E 0 b2 0b 7f
        E 0 92 52 7f
        E 32 82 52 00
        E 0 b2 0b 7f
        E 0 92 1b 7f
        E 80 82 1b 00
        E 0 b2 0b 7f
        E 0 92 29 7f
        E 32 82 29 00
        E 0 b2 0b 7f
        E 0 92 1e 7f
        E 80 82 1e 00
        E 32 b2 0b 7f
        E 0 92 29 7f
        E 80 82 29 00
        E 0 b2 0b 7f
        E 0 92 2b 7f
        E 32 82 2b 00
        E 0 b2 0b 7f
        E 0 92 28 7f
        E 80 82 28 00
        E 0 b2 0b 7f
        E 0 92 2b 7f
        E 32 82 2b 00
        E 0 b2 0b 7f
        E 0 92 1e 7f
        E 80 82 1e 00
        E 0 b2 0b 7f
        E 0 92 29 7f
        E 32 82 29 00
        E 0 b2 0b 7f
        E 0 92 1e 7f
        E 80 82 1e 00
        E 32 b2 0b 7f
        E 0 92 29 7f
        E 80 82 29 00
        E 0 b2 0b 7f
        E 0 92 2b 7f
        E 32 82 2b 00
        E 0 b2 0b 7f
        E 0 92 28 7f
        E 80 82 28 00
        E 0 b2 0b 7f
        E 0 92 52 7f
        E 32 82 52 00
        E 0 b2 0b 7f
        E 0 92 1b 7f
        E 80 82 1b 00
        E 0 b2 0b 7f
        E 0 92 29 7f
        E 32 82 29 00
        E 0 b2 0b 7f
        E 0 92 1e 7f
        E 80 82 1e 00
        E 32 b2 0b 7f
        E 0 92 29 7f
        E 80 82 29 00
        E 0 b2 0b 7f
        E 0 92 2b 7f
        E 32 82 2b 00
        E 0 b2 0b 7f
        E 0 92 28 7f
        E 80 82 28 00
        E 0 b2 0b 7f
        E 0 92 2b 7f
        E 32 82 2b 00
        E 0 b2 0b 7f
        E 0 92 1e 7f
        E 80 82 1e 00
        E 0 b2 0b 7f
        E 0 92 29 7f
        E 32 82 29 00
        E 0 b2 0b 7f
        E 0 92 1e 7f
        E 80 82 1e 00
        E 32 b2 0b 7f
        E 0 92 29 7f
        E 80 82 29 00
        E 0 b2 0b 7f
        E 0 92 2b 7f
        E 32 82 2b 00
        E 0 b2 0b 7f
        E 0 92 28 7f
        E 80 82 28 00
        E 0 b2 0b 7f
        E 0 92 52 7f
        E 32 82 52 00
        E 0 b2 0b 7f
        E 0 92 1b 7f
        E 80 82 1b 00
        E 0 b2 0b 7f
        E 0 92 29 7f
        E 32 82 29 00
        E 0 b2 0b 7f
        E 0 92 1e 7f
        E 80 82 1e 00
        E 32 b2 0b 7f
        E 0 92 29 7f
        E 80 82 29 00
        E 0 b2 0b 7f
        E 0 92 2b 7f
        E 32 82 2b 00
        E 0 b2 0b 7f
        E 0 92 28 7f
        E 80 82 28 00
        E 0 b2 0b 7f
        E 0 92 2b 7f
        E 32 82 2b 00
        E 0 b2 0b 7f
        E 0 92 1e 7f
        E 80 82 1e 00
        E 0 b2 0b 7f
        E 0 92 29 7f
        E 32 82 29 00
        E 0 b2 0b 7f
        E 0 92 1e 7f
        E 80 82 1e 00
        E 32 b2 0b 7f
        E 0 92 29 7f
        E 80 82 29 00
        E 0 b2 0b 7f
        E 0 92 2b 7f
        E 32 82 2b 00
        E 0 b2 0b 7f
        E 0 92 28 7f
        E 80 82 28 00
        E 0 b2 0b 7f
        E 0 92 52 7f
        E 32 82 52 00
        E 0 b2 0b 7f
        E 0 92 1b 7f
        E 80 82 1b 00
        E 0 b2 0b 7f
        E 0 92 29 7f
        E 32 82 29 00
        E 0 b2 0b 7f
        E 0 92 1e 7f
        E 80 82 1e 00
        E 32 b2 0b 7f
        E 0 92 29 7f
        E 80 82 29 00
        E 0 b2 0b 7f
        E 0 92 2b 7f
        E 32 82 2b 00
        E 0 b2 0b 7f
        E 0 92 28 7f
        E 80 82 28 00
        E 0 b2 0b 7f
        E 0 92 2b 7f
        E 32 82 2b 00
        E 0 b2 0b 7f
        E 0 92 1e 7f
        E 80 82 1e 00
        E 0 b2 0b 7f
        E 0 92 23 7f
        E 32 82 23 00
        E 0 b2 0b 7f
        E 0 92 1e 7f
        E 80 82 1e 00
        E 32 b2 0b 7f
        E 0 92 23 7f
        E 80 82 23 00
        E 0 b2 0b 7f
        E 0 92 27 7f
        E 32 82 27 00
        E 0 b2 0b 7f
        E 0 92 28 7f
        E 80 82 28 00
        E 0 b2 0b 7f
        E 0 92 27 7f
        E 32 82 27 00
        E 0 b2 0b 7f
        E 0 92 1e 7f
        E 80 82 1e 00
        E 0 b2 0b 7f
        E 0 92 39 7f
        E 32 82 39 00
        E 0 b2 0b 7f
        E 0 92 1b 7f
        E 80 82 1b 00
        E 32 b2 0b 7f
        E 0 92 26 7f
        E 80 82 26 00
        E 0 b2 0b 7f
        E 0 92 29 7f
        E 32 82 29 00
        E 0 b2 0b 7f
        E 0 92 28 7f
        E 80 82 28 00
        E 0 b2 0b 7f
        E 0 92 29 7f
        E 32 82 29 00
        E 0 b2 0b 7f
        E 0 92 1e 7f
        E 80 82 1e 00
        E 0 b2 0b 7f
        E 0 92 23 7f
        E 32 82 23 00
        E 0 b2 0b 7f
        E 0 92 1e 7f
        E 80 82 1e 00
        E 32 b2 0b 7f
        E 0 92 23 7f
        E 80 82 23 00
        E 0 b2 0b 7f
        E 0 92 27 7f
        E 32 82 27 00
        E 0 b2 0b 7f
        E 0 92 28 7f
        E 80 82 28 00
        E 0 b2 0b 7f
        E 0 92 27 7f
        E 32 82 27 00
        E 0 b2 0b 7f
        E 0 92 1e 7f
        E 80 82 1e 00
        E 0 b2 0b 7f
        E 0 92 39 7f
        E 32 82 39 00
        E 0 b2 0b 7f
        E 0 92 1b 7f
        E 80 82 1b 00
        E 32 b2 0b 7f
        E 0 92 26 7f
        E 80 82 26 00
        E 0 b2 0b 7f
        E 0 92 29 7f
        E 32 82 29 00
        E 0 b2 0b 7f
        E 0 92 28 7f
        E 80 82 28 00
        E 0 b2 0b 7f
        E 0 92 29 7f
        E 32 82 29 00
        E 0 b2 0b 7f
        E 0 92 1e 7f
        E 80 82 1e 00
        E 0 b2 0b 7f
        E 0 92 29 7f
        E 32 82 29 00
        E 0 b2 0b 7f
        E 0 92 1e 7f
        E 80 82 1e 00
        E 32 b2 0b 7f
        E 0 92 29 7f
        E 80 82 29 00
        E 0 b2 0b 7f
        E 0 92 2b 7f
        E 32 82 2b 00
        E 0 b2 0b 7f
        E 0 92 28 7f
        E 80 82 28 00
        E 0 b2 0b 7f
        E 0 92 52 7f
        E 32 82 52 00
        E 0 b2 0b 7f
        E 0 92 1b 7f
        E 80 82 1b 00
        E 0 b2 0b 7f
        E 0 92 29 7f
        E 32 82 29 00
        E 0 b2 0b 7f
        E 0 92 1e 7f
        E 80 82 1e 00
        E 32 b2 0b 7f
        E 0 92 29 7f
        E 80 82 29 00
        E 0 b2 0b 7f
        E 0 92 2b 7f
        E 32 82 2b 00
        E 0 b2 0b 7f
        E 0 92 28 7f
        E 80 82 28 00
        E 0 b2 0b 7f
        E 0 92 2b 7f
        E 32 82 2b 00
        E 0 b2 0b 7f
        E 0 92 1e 7f
        E 80 82 1e 00
        E 0 b2 0b 7f
        E 0 92 29 7f
        E 32 82 29 00
        E 0 b2 0b 7f
        E 0 92 1e 7f
        E 80 82 1e 00
        E 32 b2 0b 7f
        E 0 92 29 7f
        E 80 82 29 00
        E 0 b2 0b 7f
        E 0 92 2b 7f
        E 32 82 2b 00
        E 0 b2 0b 7f
        E 0 92 28 7f
        E 80 82 28 00
        E 0 b2 0b 7f
        E 0 92 52 7f
        E 32 82 52 00
        E 0 b2 0b 7f
        E 0 92 1b 7f
        E 80 82 1b 00
        E 0 b2 0b 7f
        E 0 92 29 7f
        E 32 82 29 00
        E 0 b2 0b 7f
        E 0 92 1e 7f
        E 80 82 1e 00
        E 32 b2 0b 7f
        E 0 92 29 7f
        E 80 82 29 00
        E 0 b2 0b 7f
        E 0 92 2b 7f
        E 32 82 2b 00
        E 0 b2 0b 7f
        E 0 92 28 7f
        E 80 82 28 00
        E 0 b2 0b 7f
        E 0 92 2b 7f
        E 32 82 2b 00
        E 0 b2 0b 7f
        E 0 92 1e 7f
        E 80 82 1e 00
        E 0 b2 0b 7f
        E 0 92 29 7f
        E 32 82 29 00
        E 0 b2 0b 7f
        E 0 92 1e 7f
        E 80 82 1e 00
        E 32 b2 0b 7f
        E 0 92 29 7f
        E 80 82 29 00
        E 0 b2 0b 7f
        E 0 92 2b 7f
        E 32 82 2b 00
        E 0 b2 0b 7f
        E 0 92 28 7f
        E 80 82 28 00
        E 0 b2 0b 7f
        E 0 92 52 7f
        E 32 82 52 00
        E 0 b2 0b 7f
        E 0 92 1b 7f
        E 80 82 1b 00
        E 0 b2 0b 7f
        E 0 92 29 7f
        E 32 82 29 00
        E 0 b2 0b 7f
        E 0 92 1e 7f
        E 80 82 1e 00
        E 32 b2 0b 7f
        E 0 92 29 7f
        E 80 82 29 00
        E 0 b2 0b 7f
        E 0 92 2b 7f
        E 32 82 2b 00
        E 0 b2 0b 7f
        E 0 92 28 7f
        E 80 82 28 00
        E 0 b2 0b 7f
        E 0 92 2b 7f
        E 32 82 2b 00
        E 0 b2 0b 7f
        E 0 92 1e 7f
        E 80 82 1e 00
        E 0 b2 0b 7f
        E 0 92 29 7f
        E 32 82 29 00
        E 0 b2 0b 7f
        E 0 92 1e 7f
        E 80 82 1e 00
        E 32 b2 0b 7f
        E 0 92 29 7f
        E 80 82 29 00
        E 0 b2 0b 7f
        E 0 92 2b 7f
        E 32 82 2b 00
        E 0 b2 0b 7f
        E 0 92 28 7f
        E 80 82 28 00
        E 0 b2 0b 7f
        E 0 92 52 7f
        E 32 82 52 00
        E 0 b2 0b 7f
        E 0 92 1b 7f
        E 80 82 1b 00
        E 0 b2 0b 7f
        E 0 92 29 7f
        E 32 82 29 00
        E 0 b2 0b 7f
        E 0 92 1e 7f
        E 80 82 1e 00
        E 32 b2 0b 7f
        E 0 92 29 7f
        E 80 82 29 00
        E 0 b2 0b 7f
        E 0 92 2b 7f
        E 32 82 2b 00
        E 0 b2 0b 7f
        E 0 92 28 7f
        E 80 82 28 00
        E 0 b2 0b 7f
        E 0 92 2b 7f
        E 32 82 2b 00
        E 0 b2 0b 7f
        E 0 92 1e 7f
        E 80 82 1e 00
        E 0 b2 0b 7f
        E 0 92 29 7f
        E 32 82 29 00
        E 0 b2 0b 7f
        E 0 92 1e 7f
        E 80 82 1e 00
        E 32 b2 0b 7f
        E 0 92 29 7f
        E 80 82 29 00
        E 0 b2 0b 7f
        E 0 92 2b 7f
        E 32 82 2b 00
        E 0 b2 0b 7f
        E 0 92 28 7f
        E 80 82 28 00
        E 0 b2 0b 7f
        E 0 92 52 7f
        E 32 82 52 00
        E 0 b2 0b 7f
        E 0 92 1b 7f
        E 80 82 1b 00
        E 0 b2 0b 7f
        E 0 92 29 7f
        E 32 82 29 00
        E 0 b2 0b 7f
        E 0 92 1e 7f
        E 80 82 1e 00
        E 32 b2 0b 7f
        E 0 92 29 7f
        E 80 82 29 00
        E 0 b2 0b 7f
        E 0 92 2b 7f
        E 32 82 2b 00
        E 0 b2 0b 7f
        E 0 92 28 7f
        E 80 82 28 00
        E 0 b2 0b 7f
        E 0 92 2b 7f
        E 32 82 2b 00
        E 0 b2 0b 7f
        E 0 92 1e 7f
        E 80 82 1e 00
        E 0 b2 0b 7f
        E 0 92 29 7f
        E 32 82 29 00
        E 0 b2 0b 7f
        E 0 92 1e 7f
        E 80 82 1e 00
        E 32 b2 0b 7f
        E 0 92 29 7f
        E 80 82 29 00
        E 0 b2 0b 7f
        E 0 92 2b 7f
        E 32 82 2b 00
        E 0 b2 0b 7f
        E 0 92 28 7f
        E 80 82 28 00
        E 0 b2 0b 7f
        E 0 92 52 7f
        E 32 82 52 00
        E 0 b2 0b 7f
        E 0 92 1b 7f
        E 80 82 1b 00
        E 0 b2 0b 7f
        E 0 92 29 7f
        E 32 82 29 00
        E 0 b2 0b 7f
        E 0 92 1e 7f
        E 80 82 1e 00
        E 32 b2 0b 7f
        E 0 92 29 7f
        E 80 82 29 00
        E 0 b2 0b 7f
        E 0 92 2b 7f
        E 32 82 2b 00
        E 0 b2 0b 7f
        E 0 92 28 7f
        E 80 82 28 00
        E 0 b2 0b 7f
        E 0 92 2b 7f
        E 32 82 2b 00
        E 0 b2 0b 7f
        E 0 92 1e 7f
        E 80 82 1e 00
        E 0 b2 0b 7f
        E 0 92 23 7f
        E 32 82 23 00
        E 0 b2 0b 7f
        E 0 92 1e 7f
        E 80 82 1e 00
        E 32 b2 0b 7f
        E 0 92 23 7f
        E 80 82 23 00
        E 0 b2 0b 7f
        E 0 92 27 7f
        E 32 82 27 00
        E 0 b2 0b 7f
        E 0 92 28 7f
        E 80 82 28 00
        E 0 b2 0b 7f
        E 0 92 27 7f
        E 32 82 27 00
        E 0 b2 0b 7f
        E 0 92 1e 7f
        E 80 82 1e 00
        E 0 b2 0b 7f
        E 0 92 39 7f
        E 32 82 39 00
        E 0 b2 0b 7f
        E 0 92 1b 7f
        E 80 82 1b 00
        E 32 b2 0b 7f
        E 0 92 26 7f
        E 80 82 26 00
        E 0 b2 0b 7f
        E 0 92 29 7f
        E 32 82 29 00
        E 0 b2 0b 7f
        E 0 92 28 7f
        E 80 82 28 00
        E 0 b2 0b 7f
        E 0 92 29 7f
        E 32 82 29 00
        E 0 b2 0b 7f
        E 0 92 1e 7f
        E 80 82 1e 00
        E 0 b2 0b 7f
        E 0 92 23 7f
        E 32 82 23 00
        E 0 b2 0b 7f
        E 0 92 1e 7f
        E 80 82 1e 00
        E 32 b2 0b 7f
        E 0 92 23 7f
        E 80 82 23 00
        E 0 b2 0b 7f
        E 0 92 27 7f
        E 32 82 27 00
        E 0 b2 0b 7f
        E 0 92 28 7f
        E 80 82 28 00
        E 0 b2 0b 7f
        E 0 92 27 7f
        E 32 82 27 00
        E 0 b2 0b 7f
        E 0 92 1e 7f
        E 80 82 1e 00
        E 0 b2 0b 7f
        E 0 92 39 7f
        E 32 82 39 00
        E 0 b2 0b 7f
        E 0 92 1b 7f
        E 80 82 1b 00
        E 32 b2 0b 7f
        E 0 92 26 7f
        E 80 82 26 00
        E 0 b2 0b 7f
        E 0 92 29 7f
        E 32 82 29 00
        E 0 b2 0b 7f
        E 0 92 28 7f
        E 80 82 28 00
        E 0 b2 0b 7f
        E 0 92 29 7f
        E 32 82 29 00
        E 0 b2 0b 7f
        E 0 92 1e 7f
        E 80 82 1e 00
        E 0 b2 0b 7f
        E 0 92 29 7f
        E 32 82 29 00
        E 0 b2 0b 7f
        E 0 92 1e 7f
        E 80 82 1e 00
        E 32 b2 0b 7f
        E 0 92 29 7f
        E 80 82 29 00
        E 0 b2 0b 7f
        E 0 92 2b 7f
        E 32 82 2b 00
        E 0 b2 0b 7f
        E 0 92 28 7f
        E 80 82 28 00
        E 0 b2 0b 7f
        E 0 92 52 7f
        E 32 82 52 00
        E 0 b2 0b 7f
        E 0 92 1b 7f
        E 80 82 1b 00
        E 0 b2 0b 7f
        E 0 92 29 7f
        E 32 82 29 00
        E 0 b2 0b 7f
        E 0 92 1e 7f
        E 80 82 1e 00
        E 32 b2 0b 7f
        E 0 92 29 7f
        E 80 82 29 00
        E 0 b2 0b 7f
        E 0 92 2b 7f
        E 32 82 2b 00
        E 0 b2 0b 7f
        E 0 92 28 7f
        E 80 82 28 00
        E 0 b2 0b 7f
        E 0 92 2b 7f
        E 32 82 2b 00
        E 0 b2 0b 7f
        E 0 92 1e 7f
        E 80 82 1e 00
        E 0 b2 0b 7f
        E 0 92 29 7f
        E 32 82 29 00
        E 0 b2 0b 7f
        E 0 92 1e 7f
        E 80 82 1e 00
        E 32 b2 0b 7f
        E 0 92 29 7f
        E 80 82 29 00
        E 0 b2 0b 7f
        E 0 92 2b 7f
        E 32 82 2b 00
        E 0 b2 0b 7f
        E 0 92 28 7f
        E 80 82 28 00
        E 0 b2 0b 7f
        E 0 92 52 7f
        E 32 82 52 00
        E 0 b2 0b 7f
        E 0 92 1b 7f
        E 80 82 1b 00
        E 0 b2 0b 7f
        E 0 92 29 7f
        E 32 82 29 00
        E 0 b2 0b 7f
        E 0 92 1e 7f
        E 80 82 1e 00
        E 32 b2 0b 7f
        E 0 92 29 7f
        E 80 82 29 00
        E 0 b2 0b 7f
        E 0 92 2b 7f
        E 32 82 2b 00
        E 0 b2 0b 7f
        E 0 92 28 7f
        E 80 82 28 00
        E 0 b2 0b 7f
        E 0 92 2b 7f
        E 32 82 2b 00
        E 0 b2 0b 7f
        E 0 92 1e 7f
        E 80 82 1e 00
        E 0 b2 0b 7f
        E 0 92 29 7f
        E 32 82 29 00
        E 0 b2 0b 7f
        E 0 92 1e 7f
        E 80 82 1e 00
        E 32 b2 0b 7f
        E 0 92 29 7f
        E 80 82 29 00
        E 0 b2 0b 7f
        E 0 92 2b 7f
        E 32 82 2b 00
        E 0 b2 0b 7f
        E 0 92 28 7f
        E 80 82 28 00
        E 0 b2 0b 7f
        E 0 92 52 7f
        E 32 82 52 00
        E 0 b2 0b 7f
        E 0 92 1b 7f
        E 80 82 1b 00
        E 0 b2 0b 7f
        E 0 92 29 7f
        E 32 82 29 00
        E 0 b2 0b 7f
        E 0 92 1e 7f
        E 80 82 1e 00
        E 32 b2 0b 7f
        E 0 92 29 7f
        E 80 82 29 00
        E 0 b2 0b 7f
        E 0 92 2b 7f
        E 32 82 2b 00
        E 0 b2 0b 7f
        E 0 92 28 7f
        E 80 82 28 00
        E 0 b2 0b 7f
        E 0 92 2b 7f
        E 32 82 2b 00
        E 0 b2 0b 7f
        E 0 92 1e 7f
        E 80 82 1e 00
        E 0 b2 0b 7f
        E 0 92 29 7f
        E 32 82 29 00
        E 0 b2 0b 7f
        E 0 92 1e 7f
        E 80 82 1e 00
        E 32 b2 0b 7f
        E 0 92 29 7f
        E 80 82 29 00
        E 0 b2 0b 7f
        E 0 92 2b 7f
        E 32 82 2b 00
        E 0 b2 0b 7f
        E 0 92 28 7f
        E 80 82 28 00
        E 0 b2 0b 7f
        E 0 92 52 7f
        E 32 82 52 00
        E 0 b2 0b 7f
        E 0 92 1b 7f
        E 80 82 1b 00
        E 0 b2 0b 7f
        E 0 92 29 7f
        E 32 82 29 00
        E 0 b2 0b 7f
        E 0 92 1e 7f
        E 80 82 1e 00
        E 32 b2 0b 7f
        E 0 92 29 7f
        E 80 82 29 00
        E 0 b2 0b 7f
        E 0 92 2b 7f
        E 32 82 2b 00
        E 0 b2 0b 7f
        E 0 92 28 7f
        E 80 82 28 00
        E 0 b2 0b 7f
        E 0 92 2b 7f
        E 32 82 2b 00
        E 0 b2 0b 7f
        E 0 92 1e 7f
        E 80 82 1e 00
        E 0 b2 0b 7f
        E 0 92 29 7f
        E 32 82 29 00
        E 0 b2 0b 7f
        E 0 92 1e 7f
        E 80 82 1e 00
        E 32 b2 0b 7f
        E 0 92 29 7f
        E 80 82 29 00
        E 0 b2 0b 7f
        E 0 92 2b 7f
        E 32 82 2b 00
        E 0 b2 0b 7f
        E 0 92 28 7f
        E 80 82 28 00
        E 0 b2 0b 7f
        E 0 92 52 7f
        E 32 82 52 00
        E 0 b2 0b 7f
        E 0 92 1b 7f
        E 80 82 1b 00
        E 0 b2 0b 7f
        E 0 92 29 7f
        E 32 82 29 00
        E 0 b2 0b 7f
        E 0 92 1e 7f
        E 80 82 1e 00
        E 32 b2 0b 7f
        E 0 92 29 7f
        E 80 82 29 00
        E 0 b2 0b 7f
        E 0 92 2b 7f
        E 32 82 2b 00
        E 0 b2 0b 7f
        E 0 92 28 7f
        E 80 82 28 00
        E 0 b2 0b 7f
        E 0 92 2b 7f
        E 32 82 2b 00
        E 0 b2 0b 7f
        E 0 92 1e 7f
        E 80 82 1e 00
        E 0 b2 0b 7f
        E 0 92 29 7f
        E 32 82 29 00
        E 0 b2 0b 7f
        E 0 92 1e 7f
        E 80 82 1e 00
        E 32 b2 0b 7f
        E 0 92 29 7f
        E 80 82 29 00
        E 0 b2 0b 7f
        E 0 92 2b 7f
        E 32 82 2b 00
        E 0 b2 0b 7f
        E 0 92 28 7f
        E 80 82 28 00
        E 0 b2 0b 7f
        E 0 92 52 7f
        E 32 82 52 00
        E 0 b2 0b 7f
        E 0 92 1b 7f
        E 80 82 1b 00
        E 0 b2 0b 7f
        E 0 92 29 7f
        E 32 82 29 00
        E 0 b2 0b 7f
        E 0 92 1e 7f
        E 80 82 1e 00
        E 32 b2 0b 7f
        E 0 92 29 7f
        E 80 82 29 00
        E 0 b2 0b 7f
        E 0 92 2b 7f
        E 32 82 2b 00
        E 0 b2 0b 7f
        E 0 92 28 7f
        E 80 82 28 00
        E 0 b2 0b 7f
        E 0 92 2b 7f
        E 32 82 2b 00
        E 0 b2 0b 7f
        E 0 92 1e 7f
        E 80 82 1e 00
        E 0 b2 0b 7f
        E 0 92 23 7f
        E 32 82 23 00
        E 0 b2 0b 7f
        E 0 92 1e 7f
        E 80 82 1e 00
        E 32 b2 0b 7f
        E 0 92 23 7f
        E 80 82 23 00
        E 0 b2 0b 7f
        E 0 92 27 7f
        E 32 82 27 00
        E 0 b2 0b 7f
        E 0 92 28 7f
        E 80 82 28 00
        E 0 b2 0b 7f
        E 0 92 27 7f
        E 32 82 27 00
        E 0 b2 0b 7f
        E 0 92 1e 7f
        E 80 82 1e 00
        E 0 b2 0b 7f
        E 0 92 39 7f
        E 32 82 39 00
        E 0 b2 0b 7f
        E 0 92 1b 7f
        E 80 82 1b 00
        E 32 b2 0b 7f
        E 0 92 26 7f
        E 80 82 26 00
        E 0 b2 0b 7f
        E 0 92 29 7f
        E 32 82 29 00
        E 0 b2 0b 7f
        E 0 92 28 7f
        E 80 82 28 00
        E 0 b2 0b 7f
        E 0 92 29 7f
        E 32 82 29 00
        E 0 b2 0b 7f
        E 0 92 1e 7f
        E 80 82 1e 00
        E 0 b2 0b 7f
        E 0 92 23 7f
        E 32 82 23 00
        E 0 b2 0b 7f
        E 0 92 1e 7f
        E 80 82 1e 00
        E 32 b2 0b 7f
        E 0 92 23 7f
        E 80 82 23 00
        E 0 b2 0b 7f
        E 0 92 27 7f
        E 32 82 27 00
        E 0 b2 0b 7f
        E 0 92 28 7f
        E 80 82 28 00
        E 0 b2 0b 7f
        E 0 92 27 7f
        E 32 82 27 00
        E 0 b2 0b 7f
        E 0 92 1e 7f
        E 80 82 1e 00
        E 0 b2 0b 7f
        E 0 92 39 7f
        E 32 82 39 00
        E 0 b2 0b 7f
        E 0 92 1b 7f
        E 80 82 1b 00
        E 32 b2 0b 7f
        E 0 92 26 7f
        E 80 82 26 00
        E 0 b2 0b 7f
        E 0 92 29 7f
        E 32 82 29 00
        E 0 b2 0b 7f
        E 0 92 28 7f
        E 80 82 28 00
        E 0 b2 0b 7f
        E 0 92 29 7f
        E 32 82 29 00
        E 0 b2 0b 7f
        E 0 92 1e 7f
        E 80 82 1e 00
        E 0 b2 0b 7f
        E 0 92 29 7f
        E 32 82 29 00
        E 0 b2 0b 7f
        E 0 92 1e 7f
        E 80 82 1e 00
        E 32 b2 0b 7f
        E 0 92 29 7f
        E 80 82 29 00
        E 0 b2 0b 7f
        E 0 92 2b 7f
        E 32 82 2b 00
        E 0 b2 0b 7f
        E 0 92 28 7f
        E 80 82 28 00
        E 0 b2 0b 7f
        E 0 92 52 7f
        E 32 82 52 00
        E 0 b2 0b 7f
        E 0 92 1b 7f
        E 80 82 1b 00
        E 0 b2 0b 7f
        E 0 92 29 7f
        E 32 82 29 00
        E 0 b2 0b 7f
        E 0 92 1e 7f
        E 80 82 1e 00
        E 32 b2 0b 7f
        E 0 92 29 7f
        E 80 82 29 00
        E 0 b2 0b 7f
        E 0 92 2b 7f
        E 32 82 2b 00
        E 0 b2 0b 7f
        E 0 92 28 7f
        E 80 82 28 00
        E 0 b2 0b 7f
        E 0 92 2b 7f
        E 32 82 2b 00
        E 0 b2 0b 7f
        E 0 92 1e 7f
        E 80 82 1e 00
        E 0 b2 0b 7f
        E 0 92 29 7f
        E 32 82 29 00
        E 0 b2 0b 7f
        E 0 92 1e 7f
        E 80 82 1e 00
        E 32 b2 0b 7f
        E 0 92 29 7f
        E 80 82 29 00
        E 0 b2 0b 7f
        E 0 92 2b 7f
        E 32 82 2b 00
        E 0 b2 0b 7f
        E 0 92 28 7f
        E 80 82 28 00
        E 0 b2 0b 7f
        E 0 92 52 7f
        E 32 82 52 00
        E 0 b2 0b 7f
        E 0 92 1b 7f
        E 80 82 1b 00
        E 0 b2 0b 7f
        E 0 92 29 7f
        E 32 82 29 00
        E 0 b2 0b 7f
        E 0 92 1e 7f
        E 80 82 1e 00
        E 32 b2 0b 7f
        E 0 92 29 7f
        E 80 82 29 00
        E 0 b2 0b 7f
        E 0 92 2b 7f
        E 32 82 2b 00
        E 0 b2 0b 7f
        E 0 92 28 7f
        E 80 82 28 00
        E 0 b2 0b 7f
        E 0 92 2b 7f
        E 32 82 2b 00
        E 0 b2 0b 7f
        E 0 92 1e 7f
        E 80 82 1e 00
        E 0 b2 0b 7f
        E 0 92 29 7f
        E 32 82 29 00
        E 0 b2 0b 7f
        E 0 92 1e 7f
        E 80 82 1e 00
        E 32 b2 0b 7f
        E 0 92 29 7f
        E 80 82 29 00
        E 0 b2 0b 7f
        E 0 92 2b 7f
        E 32 82 2b 00
        E 0 b2 0b 7f
        E 0 92 28 7f
        E 80 82 28 00
        E 0 b2 0b 7f
        E 0 92 52 7f
        E 32 82 52 00
        E 0 b2 0b 7f
        E 0 92 1b 7f
        E 80 82 1b 00
        E 0 b2 0b 7f
        E 0 92 29 7f
        E 32 82 29 00
        E 0 b2 0b 7f
        E 0 92 1e 7f
        E 80 82 1e 00
        E 32 b2 0b 7f
        E 0 92 29 7f
        E 80 82 29 00
        E 0 b2 0b 7f
        E 0 92 2b 7f
        E 32 82 2b 00
        E 0 b2 0b 7f
        E 0 92 28 7f
        E 80 82 28 00
        E 0 b2 0b 7f
        E 0 92 2b 7f
        E 32 82 2b 00
        E 0 b2 0b 7f
        E 0 92 1e 7f
        E 80 82 1e 00
        E 0 b2 0b 7f
        E 0 92 29 7f
        E 32 82 29 00
        E 0 b2 0b 7f
        E 0 92 1e 7f
        E 80 82 1e 00
        E 32 b2 0b 7f
        E 0 92 29 7f
        E 80 82 29 00
        E 0 b2 0b 7f
        E 0 92 2b 7f
        E 32 82 2b 00
        E 0 b2 0b 7f
        E 0 92 28 7f
        E 80 82 28 00
        E 0 b2 0b 7f
        E 0 92 52 7f
        E 32 82 52 00
        E 0 b2 0b 7f
        E 0 92 1b 7f
        E 80 82 1b 00
        E 0 b2 0b 7f
        E 0 92 46 7f
        E 32 82 46 00
        E 0 b2 0b 7f
        E 0 92 1b 7f
        E 80 82 1b 00
        E 0 b2 0b 7f
        E 0 92 46 7f
        E 32 82 46 00
        E 0 b2 0b 7f
        E 0 92 22 7f
        E 80 82 22 00
        E 0 b2 0b 7f
        E 0 92 52 7f
        E 32 82 52 00
        E 0 b2 0b 7f
        E 0 92 22 7f
        E 80 82 22 00
        E 0 b2 0b 7f
        E 0 92 2b 7f
        E 32 82 2b 00
        E 0 b2 0b 7f
        E 0 92 28 7f
        E 80 82 28 00
        E 0 b2 0b 7f
        E 0 92 2d 7f
        E 112 82 2d 00
        E 0 b2 0b 7f
        E 0 92 31 7f
        E 112 82 31 00
        E 0 b2 0b 7f
        E 0 92 34 7f
        E 112 82 34 00
        E 0 b2 0b 7f
        E 0 92 39 7f
        E 32 82 39 00
        E 0 b2 0b 7f
        E 0 92 22 7f
        E 80 82 22 00
        E 0 b2 0b 7f
        E 0 92 2d 7f
        E 112 82 2d 00
        E 0 b2 0b 7f
        E 0 92 31 7f
        E 112 82 31 00
        E 0 b2 0b 7f
        E 0 92 34 7f
        E 112 82 34 00
        E 0 b2 0b 7f
        E 0 92 26 7f
        E 32 82 26 00
        E 0 b2 0b 7f
        E 0 92 28 7f
        E 80 82 28 00
        E 0 b2 0b 7f
        E 0 92 2d 7f
        E 112 82 2d 00
        E 0 b2 0b 7f
        E 0 92 31 7f
        E 112 82 31 00
        E 0 b2 0b 7f
        E 0 92 34 7f
        E 112 82 34 00
        E 0 b2 0b 7f
        E 0 92 39 7f
        E 32 82 39 00
        E 0 b2 0b 7f
        E 0 92 22 7f
        E 80 82 22 00
        E 0 b2 0b 7f
        E 0 92 2d 7f
        E 112 82 2d 00
        E 0 b2 0b 7f
        E 0 92 31 7f
        E 112 82 31 00
        E 0 b2 0b 7f
        E 0 92 34 7f
        E 112 82 34 00
        E 0 b2 0b 7f
        E 0 92 26 7f
        E 32 82 26 00
        E 0 b2 0b 7f
        E 0 92 28 7f
        E 80 82 28 00
        E 0 b2 0b 7f
        E 0 92 2d 7f
        E 112 82 2d 00
        E 0 b2 0b 7f
        E 0 92 2f 7f
        E 112 82 2f 00
        E 0 b2 0b 7f
        E 0 92 32 7f
        E 112 82 32 00
        E 0 b2 0b 7f
        E 0 92 37 7f
        E 32 82 37 00
        E 0 b2 0b 7f
        E 0 92 22 7f
        E 80 82 22 00
        E 0 b2 0b 7f
        E 0 92 2d 7f
        E 112 82 2d 00
        E 0 b2 0b 7f
        E 0 92 2f 7f
        E 112 82 2f 00
        E 0 b2 0b 7f
        E 0 92 32 7f
        E 112 82 32 00
        E 0 b2 0b 7f
        E 0 92 25 7f
        E 32 82 25 00
        E 0 b2 0b 7f
        E 0 92 28 7f
        E 80 82 28 00
        E 0 b2 0b 7f
        E 0 92 2d 7f
        E 112 82 2d 00
        E 0 b2 0b 7f
        E 0 92 2f 7f
        E 112 82 2f 00
        E 0 b2 0b 7f
        E 0 92 32 7f
        E 112 82 32 00
        E 0 b2 0b 7f
        E 0 92 37 7f
        E 32 82 37 00
        E 0 b2 0b 7f
        E 0 92 22 7f
        E 80 82 22 00
        E 0 b2 0b 7f
        E 0 92 2d 7f
        E 112 82 2d 00
        E 0 b2 0b 7f
        E 0 92 2f 7f
        E 112 82 2f 00
        E 0 b2 0b 7f
        E 0 92 32 7f
        E 112 82 32 00
        E 0 b2 0b 7f
        E 0 92 25 7f
        E 32 82 25 00
        E 0 b2 0b 7f
        E 0 92 28 7f
        E 80 82 28 00
        E 0 b2 0b 7f
        E 0 92 2d 7f
        E 112 82 2d 00
        E 0 b2 0b 7f
        E 0 92 31 7f
        E 112 82 31 00
        E 0 b2 0b 7f
        E 0 92 34 7f
        E 112 82 34 00
        E 0 b2 0b 7f
        E 0 92 39 7f
        E 32 82 39 00
        E 0 b2 0b 7f
        E 0 92 22 7f
        E 80 82 22 00
        E 0 b2 0b 7f
        E 0 92 2d 7f
        E 112 82 2d 00
        E 0 b2 0b 7f
        E 0 92 31 7f
        E 112 82 31 00
        E 0 b2 0b 7f
        E 0 92 34 7f
        E 112 82 34 00
        E 0 b2 0b 7f
        E 0 92 26 7f
        E 32 82 26 00
        E 0 b2 0b 7f
        E 0 92 28 7f
        E 80 82 28 00
        E 0 b2 0b 7f
        E 0 92 2d 7f
        E 112 82 2d 00
        E 0 b2 0b 7f
        E 0 92 31 7f
        E 112 82 31 00
        E 0 b2 0b 7f
        E 0 92 34 7f
        E 112 82 34 00
        E 0 b2 0b 7f
        E 0 92 39 7f
        E 32 82 39 00
        E 0 b2 0b 7f
        E 0 92 22 7f
        E 80 82 22 00
        E 0 b2 0b 7f
        E 0 92 2d 7f
        E 112 82 2d 00
        E 0 b2 0b 7f
        E 0 92 31 7f
        E 112 82 31 00
        E 0 b2 0b 7f
        E 0 92 34 7f
        E 112 82 34 00
        E 0 b2 0b 7f
        E 0 92 26 7f
        E 32 82 26 00
        E 0 b2 0b 7f
        E 0 92 28 7f
        E 80 82 28 00
        E 0 b2 0b 7f
        E 0 92 2d 7f
        E 112 82 2d 00
        E 0 b2 0b 7f
        E 0 92 2f 7f
        E 112 82 2f 00
        E 0 b2 0b 7f
        E 0 92 32 7f
        E 112 82 32 00
        E 0 b2 0b 7f
        E 0 92 37 7f
        E 32 82 37 00
        E 0 b2 0b 7f
        E 0 92 22 7f
        E 80 82 22 00
        E 0 b2 0b 7f
        E 0 92 2d 7f
        E 112 82 2d 00
        E 0 b2 0b 7f
        E 0 92 2f 7f
        E 112 82 2f 00
        E 0 b2 0b 7f
        E 0 92 32 7f
        E 112 82 32 00
        E 0 b2 0b 7f
        E 0 92 25 7f
        E 32 82 25 00
        E 0 b2 0b 7f
        E 0 92 28 7f
        E 80 82 28 00
        E 0 b2 0b 7f
        E 0 92 2d 7f
        E 112 82 2d 00
        E 0 b2 0b 7f
        E 0 92 2f 7f
        E 112 82 2f 00
        E 0 b2 0b 7f
        E 0 92 32 7f
        E 112 82 32 00
        E 0 b2 0b 7f
        E 0 92 37 7f
        E 32 82 37 00
        E 0 b2 0b 7f
        E 0 92 22 7f
        E 80 82 22 00
        E 0 b2 0b 7f
        E 0 92 2d 7f
        E 112 82 2d 00
        E 0 b2 0b 7f
        E 0 92 2f 7f
        E 112 82 2f 00
        E 0 b2 0b 7f
        E 0 92 32 7f
        E 112 82 32 00
        E 0 b2 0b 7f
        E 0 92 25 7f
        E 32 82 25 00
        E 0 b2 0b 7f
        E 0 92 28 7f
        E 80 82 28 00
        E 0 b2 0b 7f
        E 0 92 2d 7f
        E 112 82 2d 00
        E 0 b2 0b 7f
        E 0 92 31 7f
        E 112 82 31 00
        E 0 b2 0b 7f
        E 0 92 34 7f
        E 112 82 34 00
        E 0 b2 0b 7f
        E 0 92 39 7f
        E 32 82 39 00
        E 0 b2 0b 7f
        E 0 92 22 7f
        E 80 82 22 00
        E 0 b2 0b 7f
        E 0 92 2d 7f
        E 112 82 2d 00
        E 0 b2 0b 7f
        E 0 92 31 7f
        E 112 82 31 00
        E 0 b2 0b 7f
        E 0 92 34 7f
        E 112 82 34 00
        E 0 b2 0b 7f
        E 0 92 26 7f
        E 32 82 26 00
        E 0 b2 0b 7f
        E 0 92 28 7f
        E 80 82 28 00
        E 0 b2 0b 7f
        E 0 92 2d 7f
        E 112 82 2d 00
        E 0 b2 0b 7f
        E 0 92 31 7f
        E 112 82 31 00
        E 0 b2 0b 7f
        E 0 92 34 7f
        E 112 82 34 00
        E 0 b2 0b 7f
        E 0 92 39 7f
        E 32 82 39 00
        E 0 b2 0b 7f
        E 0 92 22 7f
        E 80 82 22 00
        E 0 b2 0b 7f
        E 0 92 2d 7f
        E 112 82 2d 00
        E 0 b2 0b 7f
        E 0 92 31 7f
        E 112 82 31 00
        E 0 b2 0b 7f
        E 0 92 34 7f
        E 112 82 34 00
        E 0 b2 0b 7f
        E 0 92 26 7f
        E 32 82 26 00
        E 0 b2 0b 7f
        E 0 92 28 7f
        E 80 82 28 00
        E 0 b2 0b 7f
        E 0 92 2d 7f
        E 112 82 2d 00
        E 0 b2 0b 7f
        E 0 92 2f 7f
        E 112 82 2f 00
        E 0 b2 0b 7f
        E 0 92 32 7f
        E 112 82 32 00
        E 0 b2 0b 7f
        E 0 92 37 7f
        E 32 82 37 00
        E 0 b2 0b 7f
        E 0 92 22 7f
        E 80 82 22 00
        E 0 b2 0b 7f
        E 0 92 2d 7f
        E 112 82 2d 00
        E 0 b2 0b 7f
        E 0 92 2f 7f
        E 112 82 2f 00
        E 0 b2 0b 7f
        E 0 92 32 7f
        E 112 82 32 00
        E 0 b2 0b 7f
        E 0 92 25 7f
        E 32 82 25 00
        E 0 b2 0b 7f
        E 0 92 28 7f
        E 80 82 28 00
        E 0 b2 0b 7f
        E 0 92 2d 7f
        E 112 82 2d 00
        E 0 b2 0b 7f
        E 0 92 2f 7f
        E 112 82 2f 00
        E 0 b2 0b 7f
        E 0 92 32 7f
        E 112 82 32 00
        E 0 b2 0b 7f
        E 0 92 37 7f
        E 32 82 37 00
        E 0 b2 0b 7f
        E 0 92 22 7f
        E 80 82 22 00
        E 0 b2 0b 7f
        E 0 92 2d 7f
        E 112 82 2d 00
        E 0 b2 0b 7f
        E 0 92 2f 7f
        E 112 82 2f 00
        E 0 b2 0b 7f
        E 0 92 32 7f
        E 112 82 32 00
        E 0 b2 0b 7f
        E 0 92 25 7f
        E 32 82 25 00
        E 0 b2 0b 7f
        E 0 92 1e 7f
        E 80 82 1e 00
        E 0 b2 0b 7f
        E 0 92 3e 7f
        E 112 82 3e 00
        E 0 b2 0b 7f
        E 0 92 31 7f
        E 112 82 31 00
        E 0 b2 0b 7f
        E 0 92 36 7f
        E 112 82 36 00
        E 0 b2 0b 7f
        E 0 92 3a 7f
        E 32 82 3a 00
        E 0 b2 0b 7f
        E 0 92 1b 7f
        E 80 82 1b 00
        E 0 b2 0b 7f
        E 0 92 3e 7f
        E 112 82 3e 00
        E 0 b2 0b 7f
        E 0 92 31 7f
        E 112 82 31 00
        E 0 b2 0b 7f
        E 0 92 36 7f
        E 112 82 36 00
        E 0 b2 0b 7f
        E 0 92 26 7f
        E 32 82 26 00
        E 0 b2 0b 7f
        E 0 92 1e 7f
        E 80 82 1e 00
        E 0 b2 0b 7f
        E 0 92 3e 7f
        E 112 82 3e 00
        E 0 b2 0b 7f
        E 0 92 31 7f
        E 112 82 31 00
        E 0 b2 0b 7f
        E 0 92 36 7f
        E 112 82 36 00
        E 0 b2 0b 7f
        E 0 92 3a 7f
        E 32 82 3a 00
        E 0 b2 0b 7f
        E 0 92 1b 7f
        E 80 82 1b 00
        E 0 b2 0b 7f
        E 0 92 3e 7f
        E 112 82 3e 00
        E 0 b2 0b 7f
        E 0 92 31 7f
        E 112 82 31 00
        E 0 b2 0b 7f
        E 0 92 36 7f
        E 112 82 36 00
        E 0 b2 0b 7f
        E 0 92 3a 7f
        E 32 82 3a 00
        E 0 b2 0b 7f
        E 0 92 1b 7f
        E 80 82 1b 00
        E 0 b2 0b 7f
        E 0 92 3e 7f
        E 112 82 3e 00
        E 0 b2 0b 7f
        E 0 92 31 7f
        E 112 82 31 00
        E 0 b2 0b 7f
        E 0 92 36 7f
        E 112 82 36 00
        E 0 b2 0b 7f
        E 0 92 3a 7f
        E 112 82 3a 00
        E 0 b2 0b 7f
        E 0 92 31 7f
        E 112 82 31 00
        E 0 b2 0b 7f
        E 0 92 36 7f
        E 112 82 36 00
        E 0 b2 0b 7f
        E 0 92 3a 7f
        E 112 82 3a 00
        E 0 b2 0b 7f
        E 0 92 3d 7f
        E 112 82 3d 00
        E 0 b2 0b 7f
        E 0 92 42 7f
        E 112 82 42 00
        E 0 b2 0b 7f
        E 0 92 3d 7f
        E 112 82 3d 00
        E 0 b2 0b 7f
        E 0 92 3a 7f
        E 112 82 3a 00
        E 0 b2 0b 7f
        E 0 92 36 7f
        E 112 82 36 00
        E 0 b2 0b 7f
        E 0 92 3a 7f
        E 112 82 3a 00
        E 0 b2 0b 7f
        E 0 92 36 7f
        E 112 82 36 00
        E 0 b2 0b 7f
        E 0 92 31 7f
        E 112 82 31 00
        E 0 b2 0b 7f
        E 0 92 21 7f
        E 32 82 21 00
        E 0 b2 0b 7f
        E 0 92 1e 7f
        E 80 82 1e 00
        E 0 b2 0b 7f
        E 0 92 23 7f
        E 32 82 23 00
        E 0 b2 0b 7f
        E 0 92 1e 7f
        E 80 82 1e 00
        E 32 b2 0b 7f
        E 0 92 23 7f
        E 80 82 23 00
        E 0 b2 0b 7f
        E 0 92 27 7f
        E 32 82 27 00
        E 0 b2 0b 7f
        E 0 92 28 7f
        E 80 82 28 00
        E 0 b2 0b 7f
        E 0 92 27 7f
        E 32 82 27 00
        E 0 b2 0b 7f
        E 0 92 1e 7f
        E 80 82 1e 00
        E 0 b2 0b 7f
        E 0 92 39 7f
        E 32 82 39 00
        E 0 b2 0b 7f
        E 0 92 1b 7f
        E 80 82 1b 00
        E 32 b2 0b 7f
        E 0 92 26 7f
        E 80 82 26 00
        E 0 b2 0b 7f
        E 0 92 29 7f
        E 32 82 29 00
        E 0 b2 0b 7f
        E 0 92 28 7f
        E 80 82 28 00
        E 0 b2 0b 7f
        E 0 92 29 7f
        E 32 82 29 00
        E 0 b2 0b 7f
        E 0 92 1e 7f
        E 80 82 1e 00
        E 0 b2 0b 7f
        E 0 92 23 7f
        E 32 82 23 00
        E 0 b2 0b 7f
        E 0 92 1e 7f
        E 80 82 1e 00
        E 32 b2 0b 7f
        E 0 92 23 7f
        E 80 82 23 00
        E 0 b2 0b 7f
        E 0 92 27 7f
        E 32 82 27 00
        E 0 b2 0b 7f
        E 0 92 28 7f
        E 80 82 28 00
        E 0 b2 0b 7f
        E 0 92 27 7f
        E 32 82 27 00
        E 0 b2 0b 7f
        E 0 92 1e 7f
        E 80 82 1e 00
        E 0 b2 0b 7f
        E 0 92 39 7f
        E 32 82 39 00
        E 0 b2 0b 7f
        E 0 92 1b 7f
        E 80 82 1b 00
        E 32 b2 0b 7f
        E 0 92 26 7f
        E 80 82 26 00
        E 0 b2 0b 7f
        E 0 92 29 7f
        E 32 82 29 00
        E 0 b2 0b 7f
        E 0 92 28 7f
        E 80 82 28 00
        E 0 b2 0b 7f
        E 0 92 29 7f
        E 32 82 29 00
        E 0 b2 0b 7f
        E 0 92 1e 7f
        E 80 82 1e 00
        E 0 b2 0b 7f
        E 0 92 23 7f
        E 32 82 23 00
        E 0 b2 0b 7f
        E 0 92 1e 7f
        E 80 82 1e 00
        E 32 b2 0b 7f
        E 0 92 23 7f
        E 80 82 23 00
        E 0 b2 0b 7f
        E 0 92 27 7f
        E 32 82 27 00
        E 0 b2 0b 7f
        E 0 92 28 7f
        E 80 82 28 00
        E 0 b2 0b 7f
        E 0 92 27 7f
        E 32 82 27 00
        E 0 b2 0b 7f
        E 0 92 1e 7f
        E 80 82 1e 00
        E 0 b2 0b 7f
        E 0 92 39 7f
        E 32 82 39 00
        E 0 b2 0b 7f
        E 0 92 1b 7f
        E 80 82 1b 00
        E 32 b2 0b 7f
        E 0 92 26 7f
        E 80 82 26 00
        E 0 b2 0b 7f
        E 0 92 29 7f
        E 32 82 29 00
        E 0 b2 0b 7f
        E 0 92 28 7f
        E 80 82 28 00
        E 0 b2 0b 7f
        E 0 92 29 7f
        E 32 82 29 00
        E 0 b2 0b 7f
        E 0 92 1e 7f
        E 80 82 1e 00
        E 0 b2 0b 7f
        E 0 92 23 7f
        E 32 82 23 00
        E 0 b2 0b 7f
        E 0 92 1e 7f
        E 80 82 1e 00
        E 32 b2 0b 7f
        E 0 92 23 7f
        E 80 82 23 00
        E 0 b2 0b 7f
        E 0 92 27 7f
        E 32 82 27 00
        E 0 b2 0b 7f
        E 0 92 28 7f
        E 80 82 28 00
        E 0 b2 0b 7f
        E 0 92 27 7f
        E 32 82 27 00
        E 0 b2 0b 7f
        E 0 92 1e 7f
        E 80 82 1e 00
        E 0 b2 0b 7f
        E 0 92 39 7f
        E 32 82 39 00
        E 0 b2 0b 7f
        E 0 92 1b 7f
        E 80 82 1b 00
        E 32 b2 0b 7f
        E 0 92 26 7f
        E 80 82 26 00
        E 0 b2 0b 7f
        E 0 92 29 7f
        E 32 82 29 00
        E 0 b2 0b 7f
        E 0 92 28 7f
        E 80 82 28 00
        E 0 b2 0b 7f
        E 0 92 29 7f
        E 32 82 29 00
        E 0 b2 0b 7f
        E 0 92 1e 7f
        E 80 82 1e 00
        E 0 b2 0b 7f
        E 0 92 23 7f
        E 32 82 23 00
        E 0 b2 0b 7f
        E 0 92 1e 7f
        E 80 82 1e 00
        E 32 b2 0b 7f
        E 0 92 23 7f
        E 80 82 23 00
        E 0 b2 0b 7f
        E 0 92 27 7f
        E 32 82 27 00
        E 0 b2 0b 7f
        E 0 92 28 7f
        E 80 82 28 00
        E 0 b2 0b 7f
        E 0 92 27 7f
        E 32 82 27 00
        E 0 b2 0b 7f
        E 0 92 1e 7f
        E 80 82 1e 00
        E 0 b2 0b 7f
        E 0 92 39 7f
        E 32 82 39 00
        E 0 b2 0b 7f
        E 0 92 1b 7f
        E 80 82 1b 00
        E 32 b2 0b 7f
        E 0 92 26 7f
        E 80 82 26 00
        E 0 b2 0b 7f
        E 0 92 29 7f
        E 32 82 29 00
        E 0 b2 0b 7f
        E 0 92 28 7f
        E 80 82 28 00
        E 0 b2 0b 7f
        E 0 92 29 7f
        E 32 82 29 00
        E 0 b2 0b 7f
        E 0 92 1e 7f
        E 80 82 1e 00
        E 0 b2 0b 7f
        E 0 92 23 7f
        E 32 82 23 00
        E 0 b2 0b 7f
        E 0 92 1e 7f
        E 80 82 1e 00
        E 32 b2 0b 7f
        E 0 92 23 7f
        E 80 82 23 00
        E 0 b2 0b 7f
        E 0 92 27 7f
        E 32 82 27 00
        E 0 b2 0b 7f
        E 0 92 28 7f
        E 80 82 28 00
        E 0 b2 0b 7f
        E 0 92 27 7f
        E 32 82 27 00
        E 0 b2 0b 7f
        E 0 92 1e 7f
        E 80 82 1e 00
        E 0 b2 0b 7f
        E 0 92 39 7f
        E 32 82 39 00
        E 0 b2 0b 7f
        E 0 92 1b 7f
        E 80 82 1b 00
        E 32 b2 0b 7f
        E 0 92 26 7f
        E 80 82 26 00
        E 0 b2 0b 7f
        E 0 92 29 7f
        E 32 82 29 00
        E 0 b2 0b 7f
        E 0 92 28 7f
        E 80 82 28 00
        E 0 b2 0b 7f
        E 0 92 29 7f
        E 32 82 29 00
        E 0 b2 0b 7f
        E 0 92 1e 7f
        E 80 82 1e 00
        E 0 b2 0b 7f
        E 0 92 23 7f
        E 32 82 23 00
        E 0 b2 0b 7f
        E 0 92 1e 7f
        E 80 82 1e 00
        E 32 b2 0b 7f
        E 0 92 23 7f
        E 80 82 23 00
        E 0 b2 0b 7f
        E 0 92 27 7f
        E 32 82 27 00
        E 0 b2 0b 7f
        E 0 92 28 7f
        E 80 82 28 00
        E 0 b2 0b 7f
        E 0 92 27 7f
        E 32 82 27 00
        E 0 b2 0b 7f
        E 0 92 1e 7f
        E 80 82 1e 00
        E 0 b2 0b 7f
        E 0 92 39 7f
        E 32 82 39 00
        E 0 b2 0b 7f
        E 0 92 1b 7f
        E 80 82 1b 00
        E 32 b2 0b 7f
        E 0 92 26 7f
        E 80 82 26 00
        E 0 b2 0b 7f
        E 0 92 45 7f
        E 32 82 45 00
        E 0 b2 0b 7f
        E 0 92 22 7f
        E 80 82 22 00
        E 0 b2 0b 7f
        E 0 92 29 7f
        E 32 82 29 00
        E 0 b2 0b 7f
        E 0 92 1e 7f
        E 80 82 1e 00
        E 0 b2 0b 7f
        E 0 92 23 7f
        E 32 82 23 00
        E 0 b2 0b 7f
        E 0 92 1e 7f
        E 80 82 1e 00
        E 0 b2 0b 7f
        E 0 92 30 7f
        E 32 82 30 00
        E 0 b2 0b 7f
        E 0 92 22 7f
        E 80 82 22 00
        E 0 b2 0b 7f
        E 0 92 27 7f
        E 32 82 27 00
        E 0 b2 0b 7f
        E 0 92 28 7f
        E 80 82 28 00
        E 0 b2 0b 7f
        E 0 92 27 7f
        E 32 82 27 00
        E 0 b2 0b 7f
        E 0 92 1e 7f
        E 80 82 1e 00
        E 0 b2 0b 7f
        E 0 92 39 7f
        E 32 82 39 00
        E 0 b2 0b 7f
        E 0 92 1b 7f
        E 80 82 1b 00
        E 0 b2 0b 7f
        E 0 92 26 7f
        E 32 82 26 00
        E 0 b2 0b 7f
        E 0 92 28 7f
        E 80 82 28 00
        E 0 b2 0b 7f
        E 0 92 29 7f
        E 32 82 29 00
        E 0 b2 0b 7f
        E 0 92 28 7f
        E 80 82 28 00
        E 0 b2 0b 7f
        E 0 92 29 7f
        E 32 82 29 00
        E 0 b2 0b 7f
        E 0 92 1e 7f
        E 80 82 1e 00
        E 0 b2 0b 7f
        E 0 92 29 7f
        E 32 82 29 00
        E 0 b2 0b 7f
        E 0 92 1e 7f
        E 80 82 1e 00
        E 32 b2 0b 7f
        E 0 92 29 7f
        E 80 82 29 00
        E 0 b2 0b 7f
        E 0 92 2b 7f
        E 32 82 2b 00
        E 0 b2 0b 7f
        E 0 92 28 7f
        E 80 82 28 00
        E 0 b2 0b 7f
        E 0 92 52 7f
        E 32 82 52 00
        E 0 b2 0b 7f
        E 0 92 1b 7f
        E 80 82 1b 00
        E 0 b2 0b 7f
        E 0 92 29 7f
        E 32 82 29 00
        E 0 b2 0b 7f
        E 0 92 1e 7f
        E 80 82 1e 00
        E 32 b2 0b 7f
        E 0 92 29 7f
        E 80 82 29 00
        E 0 b2 0b 7f
        E 0 92 2b 7f
        E 32 82 2b 00
        E 0 b2 0b 7f
        E 0 92 28 7f
        E 80 82 28 00
        E 0 b2 0b 7f
        E 0 92 2b 7f
        E 32 82 2b 00
        E 0 b2 0b 7f
        E 0 92 1e 7f
        E 80 82 1e 00
        E 0 b2 0b 7f
        E 0 92 29 7f
        E 32 82 29 00
        E 0 b2 0b 7f
        E 0 92 1e 7f
        E 80 82 1e 00
        E 32 b2 0b 7f
        E 0 92 29 7f
        E 80 82 29 00
        E 0 b2 0b 7f
        E 0 92 2b 7f
        E 32 82 2b 00
        E 0 b2 0b 7f
        E 0 92 28 7f
        E 80 82 28 00
        E 0 b2 0b 7f
        E 0 92 52 7f
        E 32 82 52 00
        E 0 b2 0b 7f
        E 0 92 1b 7f
        E 80 82 1b 00
        E 0 b2 0b 7f
        E 0 92 29 7f
        E 32 82 29 00
        E 0 b2 0b 7f
        E 0 92 1e 7f
        E 80 82 1e 00
        E 32 b2 0b 7f
        E 0 92 29 7f
        E 80 82 29 00
        E 0 b2 0b 7f
        E 0 92 2b 7f
        E 32 82 2b 00
        E 0 b2 0b 7f
        E 0 92 28 7f
        E 80 82 28 00
        E 0 b2 0b 7f
        E 0 92 2b 7f
        E 32 82 2b 00
        E 0 b2 0b 7f
        E 0 92 1e 7f
        E 80 82 1e 00
        E 0 b2 0b 7f
        E 0 92 29 7f
        E 32 82 29 00
        E 0 b2 0b 7f
        E 0 92 1e 7f
        E 80 82 1e 00
        E 32 b2 0b 7f
        E 0 92 29 7f
        E 80 82 29 00
        E 0 b2 0b 7f
        E 0 92 2b 7f
        E 32 82 2b 00
        E 0 b2 0b 7f
        E 0 92 28 7f
        E 80 82 28 00
        E 0 b2 0b 7f
        E 0 92 52 7f
        E 32 82 52 00
        E 0 b2 0b 7f
        E 0 92 1b 7f
        E 80 82 1b 00
        E 0 b2 0b 7f
        E 0 92 29 7f
        E 32 82 29 00
        E 0 b2 0b 7f
        E 0 92 1e 7f
        E 80 82 1e 00
        E 32 b2 0b 7f
        E 0 92 29 7f
        E 80 82 29 00
        E 0 b2 0b 7f
        E 0 92 2b 7f
        E 32 82 2b 00
        E 0 b2 0b 7f
        E 0 92 28 7f
        E 80 82 28 00
        E 0 b2 0b 7f
        E 0 92 2b 7f
        E 32 82 2b 00
        E 0 b2 0b 7f
        E 0 92 1e 7f
        E 80 82 1e 00
        E 0 b2 0b 7f
        E 0 92 29 7f
        E 32 82 29 00
        E 0 b2 0b 7f
        E 0 92 1e 7f
        E 80 82 1e 00
        E 32 b2 0b 7f
        E 0 92 29 7f
        E 80 82 29 00
        E 0 b2 0b 7f
        E 0 92 2b 7f
        E 32 82 2b 00
        E 0 b2 0b 7f
        E 0 92 28 7f
        E 80 82 28 00
        E 0 b2 0b 7f
        E 0 92 52 7f
        E 32 82 52 00
        E 0 b2 0b 7f
        E 0 92 1b 7f
        E 80 82 1b 00
        E 0 b2 0b 7f
        E 0 92 29 7f
        E 32 82 29 00
        E 0 b2 0b 7f
        E 0 92 1e 7f
        E 80 82 1e 00
        E 32 b2 0b 7f
        E 0 92 29 7f
        E 80 82 29 00
        E 0 b2 0b 7f
        E 0 92 2b 7f
        E 32 82 2b 00
        E 0 b2 0b 7f
        E 0 92 28 7f
        E 80 82 28 00
        E 0 b2 0b 7f
        E 0 92 2b 7f
        E 32 82 2b 00
        E 0 b2 0b 7f
        E 0 92 1e 7f
        E 80 82 1e 00
        E 0 b2 0b 7f
        E 0 92 29 7f
        E 32 82 29 00
        E 0 b2 0b 7f
        E 0 92 1e 7f
        E 80 82 1e 00
        E 32 b2 0b 7f
        E 0 92 29 7f
        E 80 82 29 00
        E 0 b2 0b 7f
        E 0 92 2b 7f
        E 32 82 2b 00
        E 0 b2 0b 7f
        E 0 92 28 7f
        E 80 82 28 00
        E 0 b2 0b 7f
        E 0 92 52 7f
        E 32 82 52 00
        E 0 b2 0b 7f
        E 0 92 1b 7f
        E 80 82 1b 00
        E 0 b2 0b 7f
        E 0 92 29 7f
        E 32 82 29 00
        E 0 b2 0b 7f
        E 0 92 1e 7f
        E 80 82 1e 00
        E 32 b2 0b 7f
        E 0 92 29 7f
        E 80 82 29 00
        E 0 b2 0b 7f
        E 0 92 2b 7f
        E 32 82 2b 00
        E 0 b2 0b 7f
        E 0 92 28 7f
        E 80 82 28 00
        E 0 b2 0b 7f
        E 0 92 2b 7f
        E 32 82 2b 00
        E 0 b2 0b 7f
        E 0 92 1e 7f
        E 80 82 1e 00
        E 0 b2 0b 7f
        E 0 92 29 7f
        E 32 82 29 00
        E 0 b2 0b 7f
        E 0 92 1e 7f
        E 80 82 1e 00
        E 32 b2 0b 7f
        E 0 92 29 7f
        E 80 82 29 00
        E 0 b2 0b 7f
        E 0 92 2b 7f
        E 32 82 2b 00
        E 0 b2 0b 7f
        E 0 92 28 7f
        E 80 82 28 00
        E 0 b2 0b 7f
        E 0 92 52 7f
        E 32 82 52 00
        E 0 b2 0b 7f
        E 0 92 1b 7f
        E 80 82 1b 00
        E 0 b2 0b 7f
        E 0 92 29 7f
        E 32 82 29 00
        E 0 b2 0b 7f
        E 0 92 1e 7f
        E 80 82 1e 00
        E 32 b2 0b 7f
        E 0 92 29 7f
        E 80 82 29 00
        E 0 b2 0b 7f
        E 0 92 2b 7f
        E 32 82 2b 00
        E 0 b2 0b 7f
        E 0 92 28 7f
        E 80 82 28 00
        E 0 b2 0b 7f
        E 0 92 2b 7f
        E 32 82 2b 00
        E 0 b2 0b 7f
        E 0 92 1e 7f
        E 80 82 1e 00
        E 0 b2 0b 7f
        E 0 92 29 7f
        E 32 82 29 00
        E 0 b2 0b 7f
        E 0 92 1e 7f
        E 80 82 1e 00
        E 32 b2 0b 7f
        E 0 92 29 7f
        E 80 82 29 00
        E 0 b2 0b 7f
        E 0 92 2b 7f
        E 32 82 2b 00
        E 0 b2 0b 7f
        E 0 92 28 7f
        E 80 82 28 00
        E 0 b2 0b 7f
        E 0 92 52 7f
        E 32 82 52 00
        E 0 b2 0b 7f
        E 0 92 1b 7f
        E 80 82 1b 00
        E 0 b2 0b 7f
        E 0 92 29 7f
        E 32 82 29 00
        E 0 b2 0b 7f
        E 0 92 1e 7f
        E 80 82 1e 00
        E 32 b2 0b 7f
        E 0 92 29 7f
        E 80 82 29 00
        E 0 b2 0b 7f
        E 0 92 2b 7f
        E 32 82 2b 00
        E 0 b2 0b 7f
        E 0 92 28 7f
        E 80 82 28 00
        E 0 b2 0b 7f
        E 0 92 52 7f
        E 32 82 52 00
        E 0 b2 0b 7f
        E 0 92 1b 7f
        E 80 82 1b 00
        E 32 b2 0b 7f
        E 0 92 1f 7f
        E 80 82 1f 00
        E 0 b2 0b 7f
        E 0 92 46 7f
        E 32 82 46 00
        E 0 b2 0b 7f
        E 0 92 22 7f
        E 80 82 22 00
        E 32 b2 0b 7f
        E 0 92 2b 7f
        E 80 82 2b 00
        E 0 b2 0b 7f
        E 0 92 52 7f
        E 32 82 52 00
        E 0 b2 0b 7f
        E 0 92 1b 7f
        E 80 82 1b 00
        E 0 b2 0b 7f
        E 0 92 46 7f
        E 32 82 46 00
        E 0 b2 0b 7f
        E 0 92 1b 7f
        E 80 82 1b 00
        E 0 b2 0b 7f
        E 0 92 46 7f
        E 32 82 46 00
        E 0 b2 0b 7f
        E 0 92 22 7f
        E 80 82 22 00
        E 0 b2 0b 7f
        E 0 92 52 7f
        E 32 82 52 00
        E 0 b2 0b 7f
        E 0 92 22 7f
        E 80 82 22 00
        E 0 b2 0b 7f
        E 0 92 2b 7f
        E 32 82 2b 00
        E 0 b2 0b 7f
        E 0 92 1e 7f
        E 80 82 1e 00
        E 0 b2 0b 7f
        E 0 92 29 7f
        E 32 82 29 00
        E 0 b2 0b 7f
        E 0 92 1e 7f
        E 80 82 1e 00
        E 32 b2 0b 7f
        E 0 92 29 7f
        E 80 82 29 00
        E 0 b2 0b 7f
        E 0 92 2b 7f
        E 32 82 2b 00
        E 0 b2 0b 7f
        E 0 92 28 7f
        E 80 82 28 00
        E 0 b2 0b 7f
        E 0 92 52 7f
        E 32 82 52 00
        E 0 b2 0b 7f
        E 0 92 1b 7f
        E 80 82 1b 00
        E 0 b2 0b 7f
        E 0 92 29 7f
        E 32 82 29 00
        E 0 b2 0b 7f
        E 0 92 1e 7f
        E 80 82 1e 00
        E 32 b2 0b 7f
        E 0 92 29 7f
        E 80 82 29 00
        E 0 b2 0b 7f
        E 0 92 2b 7f
        E 32 82 2b 00
        E 0 b2 0b 7f
        E 0 92 28 7f
        E 80 82 28 00
        E 0 b2 0b 7f
        E 0 92 2b 7f
        E 32 82 2b 00
        E 0 b2 0b 7f
        E 0 92 1e 7f
        E 80 82 1e 00
        E 0 b2 0b 7f
        E 0 92 29 7f
        E 32 82 29 00
        E 0 b2 0b 7f
        E 0 92 1e 7f
        E 80 82 1e 00
        E 32 b2 0b 7f
        E 0 92 29 7f
        E 80 82 29 00
        E 0 b2 0b 7f
        E 0 92 2b 7f
        E 32 82 2b 00
        E 0 b2 0b 7f
        E 0 92 28 7f
        E 80 82 28 00
        E 0 b2 0b 7f
        E 0 92 52 7f
        E 32 82 52 00
        E 0 b2 0b 7f
        E 0 92 1b 7f
        E 80 82 1b 00
        E 0 b2 0b 7f
        E 0 92 29 7f
        E 32 82 29 00
        E 0 b2 0b 7f
        E 0 92 1e 7f
        E 80 82 1e 00
        E 32 b2 0b 7f
        E 0 92 29 7f
        E 80 82 29 00
        E 0 b2 0b 7f
        E 0 92 2b 7f
        E 32 82 2b 00
        E 0 b2 0b 7f
        E 0 92 28 7f
        E 80 82 28 00
        E 0 b2 0b 7f
        E 0 92 2b 7f
        E 32 82 2b 00
        E 0 b2 0b 7f
        E 0 92 1e 7f
        E 80 82 1e 00
        E 0 b2 0b 7f
        E 0 92 29 7f
        E 32 82 29 00
        E 0 b2 0b 7f
        E 0 92 1e 7f
        E 80 82 1e 00
        E 32 b2 0b 7f
        E 0 92 29 7f
        E 80 82 29 00
        E 0 b2 0b 7f
        E 0 92 2b 7f
        E 32 82 2b 00
        E 0 b2 0b 7f
        E 0 92 28 7f
        E 80 82 28 00
        E 0 b2 0b 7f
        E 0 92 52 7f
        E 32 82 52 00
        E 0 b2 0b 7f
        E 0 92 1b 7f
        E 80 82 1b 00
        E 0 b2 0b 7f
        E 0 92 29 7f
        E 32 82 29 00
        E 0 b2 0b 7f
        E 0 92 1e 7f
        E 80 82 1e 00
        E 32 b2 0b 7f
        E 0 92 29 7f
        E 80 82 29 00
        E 0 b2 0b 7f
        E 0 92 2b 7f
        E 32 82 2b 00
        E 0 b2 0b 7f
        E 0 92 28 7f
        E 80 82 28 00
        E 0 b2 0b 7f
        E 0 92 2b 7f
        E 32 82 2b 00
        E 0 b2 0b 7f
        E 0 92 1e 7f
        E 80 82 1e 00
        E 0 b2 0b 7f
        E 0 92 29 7f
        E 32 82 29 00
        E 0 b2 0b 7f
        E 0 92 1e 7f
        E 80 82 1e 00
        E 32 b2 0b 7f
        E 0 92 29 7f
        E 80 82 29 00
        E 0 b2 0b 7f
        E 0 92 2b 7f
        E 32 82 2b 00
        E 0 b2 0b 7f
        E 0 92 28 7f
        E 80 82 28 00
        E 0 b2 0b 7f
        E 0 92 52 7f
        E 32 82 52 00
        E 0 b2 0b 7f
        E 0 92 1b 7f
        E 80 82 1b 00
        E 0 b2 0b 7f
        E 0 92 29 7f
        E 32 82 29 00
        E 0 b2 0b 7f
        E 0 92 1e 7f
        E 80 82 1e 00
        E 32 b2 0b 7f
        E 0 92 29 7f
        E 80 82 29 00
        E 0 b2 0b 7f
        E 0 92 2b 7f
        E 32 82 2b 00
        E 0 b2 0b 7f
        E 0 92 28 7f
        E 80 82 28 00
        E 0 b2 0b 7f
        E 0 92 2b 7f
        E 32 82 2b 00
        E 0 b2 0b 7f
        E 0 92 1e 7f
        E 80 82 1e 00
        E 0 b2 0b 7f
        E 0 92 29 7f
        E 32 82 29 00
        E 0 b2 0b 7f
        E 0 92 1e 7f
        E 80 82 1e 00
        E 32 b2 0b 7f
        E 0 92 29 7f
        E 80 82 29 00
        E 0 b2 0b 7f
        E 0 92 2b 7f
        E 32 82 2b 00
        E 0 b2 0b 7f
        E 0 92 28 7f
        E 80 82 28 00
        E 0 b2 0b 7f
        E 0 92 52 7f
        E 32 82 52 00
        E 0 b2 0b 7f
        E 0 92 1b 7f
        E 80 82 1b 00
        E 0 b2 0b 7f
        E 0 92 29 7f
        E 32 82 29 00
        E 0 b2 0b 7f
        E 0 92 1e 7f
        E 80 82 1e 00
        E 32 b2 0b 7f
        E 0 92 29 7f
        E 80 82 29 00
        E 0 b2 0b 7f
        E 0 92 2b 7f
        E 32 82 2b 00
        E 0 b2 0b 7f
        E 0 92 28 7f
        E 80 82 28 00
        E 0 b2 0b 7f
        E 0 92 2b 7f
        E 32 82 2b 00
        E 0 b2 0b 7f
        E 0 92 1e 7f
        E 80 82 1e 00
        E 0 b2 0b 7f
        E 0 92 29 7f
        E 32 82 29 00
        E 0 b2 0b 7f
        E 0 92 1e 7f
        E 80 82 1e 00
        E 32 b2 0b 7f
        E 0 92 29 7f
        E 80 82 29 00
        E 0 b2 0b 7f
        E 0 92 2b 7f
        E 32 82 2b 00
        E 0 b2 0b 7f
        E 0 92 28 7f
        E 80 82 28 00
        E 0 b2 0b 7f
        E 0 92 52 7f
        E 32 82 52 00
        E 0 b2 0b 7f
        E 0 92 1b 7f
        E 80 82 1b 00
        E 0 b2 0b 7f
        E 0 92 29 7f
        E 32 82 29 00
        E 0 b2 0b 7f
        E 0 92 1e 7f
        E 80 82 1e 00
        E 32 b2 0b 7f
        E 0 92 29 7f
        E 80 82 29 00
        E 0 b2 0b 7f
        E 0 92 2b 7f
        E 32 82 2b 00
        E 0 b2 0b 7f
        E 0 92 28 7f
        E 80 82 28 00
        E 0 b2 0b 7f
        E 0 92 2b 7f
        E 32 82 2b 00
        E 0 b2 0b 7f
        E 0 92 1e 7f
        E 80 82 1e 00
        E 0 b2 0b 7f
        E 0 92 23 7f
        E 32 82 23 00
        E 0 b2 0b 7f
        E 0 92 1e 7f
        E 80 82 1e 00
        E 32 b2 0b 7f
        E 0 92 23 7f
        E 80 82 23 00
        E 0 b2 0b 7f
        E 0 92 27 7f
        E 32 82 27 00
        E 0 b2 0b 7f
        E 0 92 28 7f
        E 80 82 28 00
        E 0 b2 0b 7f
        E 0 92 27 7f
        E 32 82 27 00
        E 0 b2 0b 7f
        E 0 92 1e 7f
        E 80 82 1e 00
        E 0 b2 0b 7f
        E 0 92 39 7f
        E 32 82 39 00
        E 0 b2 0b 7f
        E 0 92 1b 7f
        E 80 82 1b 00
        E 32 b2 0b 7f
        E 0 92 26 7f
        E 80 82 26 00
        E 0 b2 0b 7f
        E 0 92 29 7f
        E 32 82 29 00
        E 0 b2 0b 7f
        E 0 92 28 7f
        E 80 82 28 00
        E 0 b2 0b 7f
        E 0 92 29 7f
        E 32 82 29 00
        E 0 b2 0b 7f
        E 0 92 1e 7f
        E 80 82 1e 00
        E 0 b2 0b 7f
        E 0 92 23 7f
        E 32 82 23 00
        E 0 b2 0b 7f
        E 0 92 1e 7f
        E 80 82 1e 00
        E 32 b2 0b 7f
        E 0 92 23 7f
        E 80 82 23 00
        E 0 b2 0b 7f
        E 0 92 27 7f
        E 32 82 27 00
        E 0 b2 0b 7f
        E 0 92 28 7f
        E 80 82 28 00
        E 0 b2 0b 7f
        E 0 92 27 7f
        E 32 82 27 00
        E 0 b2 0b 7f
        E 0 92 1e 7f
        E 80 82 1e 00
        E 0 b2 0b 7f
        E 0 92 39 7f
        E 32 82 39 00
        E 0 b2 0b 7f
        E 0 92 1b 7f
        E 80 82 1b 00
        E 32 b2 0b 7f
        E 0 92 26 7f
        E 80 82 26 00
        E 0 b2 0b 7f
        E 0 92 29 7f
        E 32 82 29 00
        E 0 b2 0b 7f
        E 0 92 28 7f
        E 80 82 28 00
        E 0 b2 0b 7f
        E 0 92 29 7f
        E 32 82 29 00
        E 0 b2 0b 7f
        E 0 92 1e 7f
        E 80 82 1e 00
        E 0 b2 0b 7f
        E 0 92 29 7f
        E 32 82 29 00
        E 0 b2 0b 7f
        E 0 92 1e 7f
        E 80 82 1e 00
        E 32 b2 0b 7f
        E 0 92 29 7f
        E 80 82 29 00
        E 0 b2 0b 7f
        E 0 92 2b 7f
        E 32 82 2b 00
        E 0 b2 0b 7f
        E 0 92 28 7f
        E 32 82 28 00
        E 0 b2 7b 00
        E 0 ff 2f 00
      >
    >
  >
  <TRACK {F1DEF7C5-7B44-4E9A-92C6-67407873BF4A}
    NAME "NES - Noise / Drums [ch3]"
    PEAKCOL 11184810
    BEAT -1
    AUTOMODE 0
    PANLAWFLAGS 3
    VOLPAN 1 0 -1 -1 1
    MUTESOLO 0 0 0
    IPHASE 0
    PLAYOFFS 0 1
    ISBUS 0 0
    BUSCOMP 0 0 0 0 0
    SHOWINMIX 1 0.6667 0.5 1 0.5 0 0 0
    FIXEDLANES 9 0 0 0 0
    SEL 0
    REC 0 5088 1 0 0 0 0 0
    VU 2
    TRACKHEIGHT 0 0 0 0 0 0 0
    INQ 0 0 0 0.5 100 0 0 100
    NCHAN 2
    FX 1
    TRACKID {F1DEF7C5-7B44-4E9A-92C6-67407873BF4A}
    PERF 0
    MIDIOUT -1
    MAINSEND 1 0
    <FXCHAIN
      WNDRECT 24 52 700 560
      SHOW 0
      LASTSEL 0
      DOCKED 0
      BYPASS 0 0 0
      <JS "ReapNES Studio/ReapNES_Console.jsfx" ""
        2 15 1 10 80 10 100 2 1 15 1 5 60 10 80 1 1 0 50 0 0 15 1 0 100 0 0 0.500000 0.500000 0.400000 0.300000 0.800000 3 1 0 0 0 0 - - - - - - - - - - - - - - - - - - - - - - - - - -
      >
      FLOATPOS 0 0 0 0
      FXID {26B7AE26-5A78-49EF-9897-6D9A688A57FE}
      WAK 0 0
    >
    <ITEM
      POSITION 0
      LENGTH 73.5303288
      LOOP 0
      ALLTAKES 0
      FADEIN 0 0 0 0 0 0 0
      FADEOUT 0 0 0 0 0 0 0
      MUTE 0 0
      SEL 0
      IGUID {0DF3A4B0-E7FC-4731-BF77-10FF3C818536}
      <SOURCE MIDI
        HASDATA 1 480 QN
        CCINTERP 32
        E 3584 93 2a 7f
        E 16 83 2a 00
        E 0 93 2a 7f
        E 16 83 2a 00
        E 0 93 2a 7f
        E 16 83 2a 00
        E 0 93 2a 66
        E 16 83 2a 00
        E 0 93 2a 66
        E 16 83 2a 00
        E 0 93 2a 66
        E 16 83 2a 00
        E 0 93 2a 66
        E 16 83 2a 00
        E 0 93 2a 66
        E 32 83 2a 00
        E 0 93 2a 66
        E 896 83 2a 00
        E 71024 b3 7b 00
        E 0 ff 2f 00
      >
    >
  >
>