<REAPER_PROJECT 0.1 "7.27/win64" 1707000000
  <NOTES 0 2
    |ReapNES Studio Project
    |MIDI Import - Strider_title_rom_v1
  >
  RIPPLE 0
  GROUPOVERRIDE 0 0 0
  AUTOXFADE 129
  ENVATTACH 3
  POOLEDENVATTACH 0
  MIXERUIFLAGS 11 48
  ENVFADESZ10 40
  PEAKGAIN 1
  FEEDBACK 0
  PANLAW 1
  PROJOFFS 0 0 0
  MAXPROJLEN 0 0
  GRID 3199 8 1 8 1 0 0 0
  TIMEMODE 1 5 -1 30 0 0 -1
  VIDEO_CONFIG 0 0 65792
  PANMODE 3
  PANLAWFLAGS 3
  CURSOR 0
  ZOOM 100 0 0
  VZOOMEX 6 0
  USE_REC_CFG 0
  RECMODE 1
  SMPTESYNC 0 30 100 40 1000 300 0 0 1 0 0
  LOOP 0
  LOOPGRAN 0 4
  RECORD_PATH "Media" ""
  <RECORD_CFG
    ZXZhdxgAAQ==
  >
  <APPLYFX_CFG
  >
  RENDER_FILE ""
  RENDER_PATTERN ""
  RENDER_FMT 0 2 0
  RENDER_1X 0
  RENDER_RANGE 1 0 0 18 1000
  RENDER_RESAMPLE 3 0 1
  RENDER_ADDTOPROJ 0
  RENDER_STEMS 0
  RENDER_DITHER 0
  TIMELOCKMODE 1
  TEMPOENVLOCKMODE 1
  ITEMMIX 1
  DEFPITCHMODE 589824 0
  TAKELANE 1
  SAMPLERATE 44100 0 0
  <RENDER_CFG
    ZXZhdxgAAQ==
  >
  LOCK 1
  <METRONOME 6 2
    VOL 0.25 0.125
    BEATLEN 4
    FREQ 1760 880 1
    SAMPLES "" ""
    SPLIGNORE 0 0
    SPLDEF 2 660 "" 0
    SPLDEF 3 440 "" 0
    PATTERN 0 169
    PATTERNSTR ABBB
    MULT 1
  >
  GLOBAL_AUTO -1
  TEMPO 128.59999614200012 4 4
  PLAYRATE 1 0 0.25 4
  SELECTION 0 0
  SELECTION2 0 0
  MASTERAUTOMODE 0
  MASTERTRACKHEIGHT 0 0
  MASTERPEAKCOL 16576
  MASTERMUTESOLO 0
  MASTERTRACKVIEW 0 0.6667 0.5 0.5 0 0 0 0 0 0 0 0 0 0
  MASTERHWOUT 0 0 1 0 0 0 0 -1
  MASTER_NCH 2 2
  MASTER_VOLUME 1 0 -1 -1 1
  MASTER_PANMODE 3
  MASTER_PANLAWFLAGS 3
  MASTER_FX 1
  MASTER_SEL 0
  <MASTERPLAYSPEEDENV
    EGUID {53A06212-9EF1-4120-A7EA-72BFEB6A3FFD}
    ACT 0 -1
    VIS 0 1 1
    LANEHEIGHT 0 0
    ARM 0
    DEFSHAPE 0 -1 -1
  >
  <TEMPOENVEX
    EGUID {853A7A3B-A17D-41CF-8C5E-AD3895C98A81}
    ACT 1 -1
    VIS 1 0 1
    LANEHEIGHT 0 0
    ARM 0
    DEFSHAPE 1 -1 -1
  >
  <PROJBAY
  >
  <TRACK {22176DEB-D6F5-455D-9F1E-DF40B5FFF0D2}
    NAME "NES - Pulse 1 [ch0]"
    PEAKCOL 16576606
    BEAT -1
    AUTOMODE 0
    PANLAWFLAGS 3
    VOLPAN 1 0 -1 -1 1
    MUTESOLO 0 0 0
    IPHASE 0
    PLAYOFFS 0 1
    ISBUS 0 0
    BUSCOMP 0 0 0 0 0
    SHOWINMIX 1 0.6667 0.5 1 0.5 0 0 0
    FIXEDLANES 9 0 0 0 0
    SEL 1
    REC 1 5088 1 0 0 0 0 0
    VU 2
    TRACKHEIGHT 0 0 0 0 0 0 0
    INQ 0 0 0 0.5 100 0 0 100
    NCHAN 2
    FX 1
    TRACKID {22176DEB-D6F5-455D-9F1E-DF40B5FFF0D2}
    PERF 0
    MIDIOUT -1
    MAINSEND 1 0
    <FXCHAIN
      WNDRECT 24 52 700 560
      SHOW 0
      LASTSEL 0
      DOCKED 0
      BYPASS 0 0 0
      <JS "ReapNES Studio/ReapNES_Console.jsfx" ""
        2 15 1 10 80 10 100 2 1 15 1 5 60 10 80 1 1 0 50 0 0 15 1 0 100 0 0 0.500000 0.500000 0.400000 0.300000 0.800000 0 1 0 0 0 0 - - - - - - - - - - - - - - - - - - - - - - - - - -
      >
      FLOATPOS 0 0 0 0
      FXID {C8DF962F-B1CD-4E63-AAA8-819A30C528E6}
      WAK 0 0
    >
    <ITEM
      POSITION 0
      LENGTH 74.6189758
      LOOP 0
      ALLTAKES 0
      FADEIN 0 0 0 0 0 0 0
      FADEOUT 0 0 0 0 0 0 0
      MUTE 0 0
      SEL 0
      IGUID {9A13BD44-2770-4379-9607-F26C8D60402C}
      <SOURCE MIDI
        HASDATA 1 480 QN
        CCINTERP 32
        E 0 c0 50
        E 0 b0 0c 60
        E 0 b0 0b 66
        E 0 90 2c 66
        E 176 80 2c 00
        E 16 90 29 66
        E 176 80 29 00
        E 16 90 2c 66
        E 368 80 2c 00
        E 16 90 2b 66
        E 176 80 2b 00
        E 16 90 27 66
        E 176 80 27 00
        E 16 90 2b 66
        E 368 80 2b 00
        E 16 90 29 66
        E 176 80 29 00
        E 16 90 25 66
        E 176 80 25 00
        E 16 90 27 66
        E 176 80 27 00
        E 16 90 29 66
        E 176 80 29 00
        E 16 90 24 66
        E 176 80 24 00
        E 16 90 30 66
        E 368 80 30 00
        E 16 90 2e 66
        E 176 80 2e 00
        E 16 90 2c 66
        E 176 80 2c 00
        E 16 90 29 66
        E 176 80 29 00
        E 16 90 2c 66
        E 368 80 2c 00
        E 16 90 2b 66
        E 176 80 2b 00
        E 16 90 27 66
        E 176 80 27 00
        E 16 90 2b 66
        E 368 80 2b 00
        E 16 90 29 66
        E 176 80 29 00
        E 16 90 25 66
        E 176 80 25 00
        E 16 90 27 66
        E 176 80 27 00
        E 16 90 29 66
        E 176 80 29 00
        E 16 90 24 66
        E 176 80 24 00
        E 16 90 30 66
        E 368 80 30 00
        E 16 90 2e 66
        E 176 80 2e 00
        E 16 90 2c 66
        E 176 80 2c 00
        E 16 90 29 66
        E 176 80 29 00
        E 16 90 2c 66
        E 368 80 2c 00
        E 16 90 2b 66
        E 176 80 2b 00
        E 16 90 27 66
        E 176 80 27 00
        E 16 90 30 66
        E 368 80 30 00
        E 16 90 29 66
        E 176 80 29 00
        E 16 90 2d 66
        E 176 80 2d 00
        E 16 90 30 66
        E 176 80 30 00
        E 16 90 31 66
        E 176 80 31 00
        E 16 90 2c 66
        E 176 80 2c 00
        E 16 90 31 66
        E 368 80 31 00
        E 16 90 37 66
        E 176 80 37 00
        E 16 90 38 66
        E 176 80 38 00
        E 16 90 37 66
        E 176 80 37 00
        E 16 90 35 66
        E 176 80 35 00
        E 16 90 35 66
        E 560 80 35 00
        E 16 90 37 66
        E 80 80 37 00
        E 16 90 35 66
        E 80 80 35 00
        E 16 90 34 66
        E 2800 80 34 00
        E 16 b0 0c 10
        E 0 90 33 66
        E 112 80 33 00
        E 16 90 34 66
        E 240 80 34 00
        E 16 90 35 66
        E 240 80 35 00
        E 16 90 35 66
        E 240 80 35 00
        E 16 90 35 66
        E 240 80 35 00
        E 16 90 35 66
        E 240 80 35 00
        E 16 90 35 66
        E 112 80 35 00
        E 16 90 38 66
        E 240 80 38 00
        E 16 90 33 66
        E 240 80 33 00
        E 16 90 33 66
        E 112 80 33 00
        E 16 90 34 66
        E 240 80 34 00
        E 16 90 35 66
        E 240 80 35 00
        E 16 90 35 66
        E 240 80 35 00
        E 16 90 35 66
        E 112 80 35 00
        E 16 90 35 66
        E 112 80 35 00
        E 784 90 38 66
        E 240 80 38 00
        E 16 90 39 66
        E 112 80 39 00
        E 16 90 41 66
        E 112 80 41 00
        E 16 90 38 66
        E 112 80 38 00
        E 16 90 39 66
        E 112 80 39 00
        E 16 90 41 66
        E 112 80 41 00
        E 16 90 38 66
        E 112 80 38 00
        E 16 90 39 66
        E 112 80 39 00
        E 16 90 41 66
        E 112 80 41 00
        E 16 90 38 66
        E 112 80 38 00
        E 16 90 39 66
        E 112 80 39 00
        E 16 90 41 66
        E 272 b0 0b 5d
        E 288 b0 0b 55
        E 64 80 41 00
        E 16 b0 0b 66
        E 0 90 38 66
        E 112 80 38 00
        E 16 90 39 66
        E 240 80 39 00
        E 16 90 41 66
        E 240 80 41 00
        E 16 90 41 66
        E 240 80 41 00
        E 16 90 41 66
        E 112 80 41 00
        E 16 90 41 66
        E 112 80 41 00
        E 656 b0 0c 60
        E 0 90 33 66
        E 240 80 33 00
        E 16 90 35 66
        E 240 80 35 00
        E 16 90 37 66
        E 112 80 37 00
        E 16 90 38 66
        E 240 80 38 00
        E 16 90 37 66
        E 240 80 37 00
        E 16 90 3a 66
        E 240 80 3a 00
        E 16 90 38 66
        E 112 80 38 00
        E 16 90 37 66
        E 112 80 37 00
        E 16 90 38 66
        E 112 80 38 00
        E 16 90 37 66
        E 112 80 37 00
        E 16 90 33 66
        E 240 80 33 00
        E 16 90 35 66
        E 1648 80 35 00
        E 144 90 35 66
        E 112 80 35 00
        E 16 90 37 66
        E 112 80 37 00
        E 16 90 38 66
        E 112 80 38 00
        E 16 90 3a 66
        E 240 80 3a 00
        E 16 90 38 66
        E 112 80 38 00
        E 16 90 3d 66
        E 240 80 3d 00
        E 16 90 3c 66
        E 240 80 3c 00
        E 16 90 3f 66
        E 240 80 3f 00
        E 16 90 3d 66
        E 240 80 3d 00
        E 16 90 3f 66
        E 112 80 3f 00
        E 16 90 3d 66
        E 240 80 3d 00
        E 16 90 37 66
        E 112 80 37 00
        E 16 90 3c 66
        E 1648 80 3c 00
        E 144 90 3c 66
        E 112 80 3c 00
        E 16 90 3c 66
        E 112 80 3c 00
        E 16 90 3c 66
        E 112 80 3c 00
        E 16 90 3a 66
        E 112 80 3a 00
        E 16 90 38 66
        E 112 80 38 00
        E 16 90 37 66
        E 112 80 37 00
        E 16 90 3a 66
        E 624 80 3a 00
        E 144 90 3a 66
        E 112 80 3a 00
        E 16 90 3a 66
        E 112 80 3a 00
        E 16 90 3a 66
        E 112 80 3a 00
        E 16 90 3c 66
        E 112 80 3c 00
        E 16 90 3a 66
        E 112 80 3a 00
        E 16 90 38 66
        E 112 80 38 00
        E 16 90 37 66
        E 112 80 37 00
        E 16 90 35 66
        E 1008 80 35 00
        E 144 90 41 66
        E 112 80 41 00
        E 16 90 41 66
        E 112 80 41 00
        E 16 90 41 66
        E 112 80 41 00
        E 144 90 35 66
        E 112 80 35 00
        E 16 90 35 66
        E 112 80 35 00
        E 16 90 3e 66
        E 48 80 3e 00
        E 16 90 3f 66
        E 176 80 3f 00
        E 16 b0 0b 7f
        E 0 90 3d 7f
        E 240 80 3d 00
        E 16 b0 0b 44
        E 0 90 3f 44
        E 240 80 3f 00
        E 16 90 3d 44
        E 240 80 3d 00
        E 16 b0 0b 22
        E 0 90 3f 22
        E 240 80 3f 00
        E 16 90 3d 22
        E 880 80 3d 00
        E 16 b0 0b 55
        E 0 90 3c 55
        E 112 80 3c 00
        E 16 90 3c 55
        E 112 80 3c 00
        E 16 90 3c 55
        E 112 80 3c 00
        E 16 90 41 55
        E 112 80 41 00
        E 16 90 3c 55
        E 112 80 3c 00
        E 16 90 3a 55
        E 112 80 3a 00
        E 16 90 38 55
        E 112 80 38 00
        E 16 90 35 55
        E 624 80 35 00
        E 144 90 35 55
        E 112 80 35 00
        E 16 90 35 55
        E 112 80 35 00
        E 16 90 3e 55
        E 48 80 3e 00
        E 16 90 3f 55
        E 176 80 3f 00
        E 16 b0 0b 7f
        E 0 90 3d 7f
        E 240 80 3d 00
        E 16 b0 0b 44
        E 0 90 3f 44
        E 240 80 3f 00
        E 16 90 3d 44
        E 240 80 3d 00
        E 16 b0 0b 22
        E 0 90 3f 22
        E 240 80 3f 00
        E 16 90 3d 22
        E 880 80 3d 00
        E 144 b0 0b 55
        E 0 90 3c 55
        E 112 80 3c 00
        E 16 90 3c 55
        E 112 80 3c 00
        E 16 90 3c 55
        E 112 80 3c 00
        E 16 90 3c 55
        E 112 80 3c 00
        E 16 90 3e 55
        E 112 80 3e 00
        E 16 90 40 55
        E 112 80 40 00
        E 16 90 41 55
        E 112 80 41 00
        E 16 90 43 55
        E 2016 b0 0b 4c
        E 528 80 43 00
        E 272 b0 0b 55
        E 0 90 3c 55
        E 112 80 3c 00
        E 16 90 3c 55
        E 112 80 3c 00
        E 16 90 43 55
        E 368 80 43 00
        E 16 90 41 55
        E 112 80 41 00
        E 16 90 41 55
        E 1008 80 41 00
        E 144 90 41 55
        E 112 80 41 00
        E 16 90 43 55
        E 112 80 43 00
        E 16 90 44 55
        E 112 80 44 00
        E 16 90 46 55
        E 240 80 46 00
        E 16 90 44 55
        E 112 80 44 00
        E 16 90 46 55
        E 240 80 46 00
        E 16 90 44 55
        E 240 80 44 00
        E 16 90 46 55
        E 240 80 46 00
        E 16 90 44 55
        E 240 80 44 00
        E 16 90 43 55
        E 368 80 43 00
        E 16 90 43 55
        E 112 80 43 00
        E 16 90 43 55
        E 112 80 43 00
        E 16 90 46 55
        E 368 80 46 00
        E 16 90 44 55
        E 112 80 44 00
        E 16 90 43 55
        E 752 80 43 00
        E 16 90 43 55
        E 112 80 43 00
        E 16 90 43 55
        E 112 80 43 00
        E 16 90 43 55
        E 112 80 43 00
        E 16 90 3f 55
        E 112 80 3f 00
        E 16 90 3c 55
        E 112 80 3c 00
        E 16 90 41 55
        E 1648 80 41 00
        E 272 b0 0b 66
        E 0 90 3c 66
        E 240 80 3c 00
        E 16 90 41 66
        E 496 80 41 00
        E 16 90 41 66
        E 496 80 41 00
        E 16 90 44 66
        E 496 80 44 00
        E 16 90 43 66
        E 160 80 43 00
        E 16 90 44 66
        E 160 80 44 00
        E 0 90 46 66
        E 160 80 46 00
        E 16 90 48 66
        E 1520 80 48 00
        E 272 90 48 66
        E 112 80 48 00
        E 16 90 48 66
        E 112 80 48 00
        E 16 90 46 66
        E 240 80 46 00
        E 16 90 44 66
        E 112 80 44 00
        E 16 90 46 66
        E 240 80 46 00
        E 16 90 44 66
        E 240 80 44 00
        E 16 90 44 66
        E 112 80 44 00
        E 16 90 43 66
        E 112 80 43 00
        E 16 90 44 66
        E 240 80 44 00
        E 16 90 43 66
        E 240 80 43 00
        E 16 90 3f 66
        E 240 80 3f 00
        E 16 90 41 66
        E 1648 80 41 00
        E 16 b0 0b 55
        E 0 90 35 55
        E 240 80 35 00
        E 16 90 37 55
        E 240 80 37 00
        E 16 90 38 55
        E 496 80 38 00
        E 16 90 37 55
        E 240 80 37 00
        E 16 90 38 55
        E 240 80 38 00
        E 16 90 3a 55
        E 496 80 3a 00
        E 16 90 38 55
        E 240 80 38 00
        E 16 90 37 55
        E 240 80 37 00
        E 16 90 3c 55
        E 496 80 3c 00
        E 16 90 3a 55
        E 240 80 3a 00
        E 16 90 3c 55
        E 240 80 3c 00
        E 16 90 3d 55
        E 496 80 3d 00
        E 16 90 3c 55
        E 240 80 3c 00
        E 16 90 3a 55
        E 240 80 3a 00
        E 16 90 3f 55
        E 496 80 3f 00
        E 16 90 3d 55
        E 240 80 3d 00
        E 16 90 3f 55
        E 240 80 3f 00
        E 16 90 3d 55
        E 112 80 3d 00
        E 16 90 3f 55
        E 112 80 3f 00
        E 16 90 3d 55
        E 112 80 3d 00
        E 16 90 3c 55
        E 112 80 3c 00
        E 16 90 3a 55
        E 112 80 3a 00
        E 16 90 38 55
        E 112 80 38 00
        E 16 90 37 55
        E 112 80 37 00
        E 16 90 34 55
        E 112 80 34 00
        E 16 90 3c 55
        E 1008 80 3c 00
        E 16 90 40 55
        E 496 80 40 00
        E 16 b0 0b 4c
        E 0 90 38 4c
        E 240 80 38 00
        E 16 90 3a 4c
        E 240 80 3a 00
        E 16 90 3c 4c
        E 496 80 3c 00
        E 16 90 3a 4c
        E 240 80 3a 00
        E 16 90 3c 4c
        E 240 80 3c 00
        E 16 90 3d 4c
        E 496 80 3d 00
        E 16 90 3c 4c
        E 240 80 3c 00
        E 16 90 3a 4c
        E 240 80 3a 00
        E 16 90 3f 4c
        E 496 80 3f 00
        E 16 90 3d 4c
        E 240 80 3d 00
        E 16 90 3f 4c
        E 240 80 3f 00
        E 16 90 41 4c
        E 496 80 41 00
        E 16 90 3f 4c
        E 240 80 3f 00
        E 16 90 3d 4c
        E 240 80 3d 00
        E 16 90 43 4c
        E 496 80 43 00
        E 16 90 41 4c
        E 240 80 41 00
        E 16 90 43 4c
        E 240 80 43 00
        E 16 90 41 4c
        E 496 80 41 00
        E 16 90 40 4c
        E 496 80 40 00
        E 16 90 41 4c
        E 1952 80 41 00
        E 0 b0 7b 00
        E 0 ff 2f 00
      >
    >
  >
  <TRACK {EF394216-A1D5-4D78-87F9-B242D53D1F77}
    NAME "NES - Pulse 2 [ch1]"
    PEAKCOL 10092441
    BEAT -1
    AUTOMODE 0
    PANLAWFLAGS 3
    VOLPAN 1 0 -1 -1 1
    MUTESOLO 0 0 0
    IPHASE 0
    PLAYOFFS 0 1
    ISBUS 0 0
    BUSCOMP 0 0 0 0 0
    SHOWINMIX 1 0.6667 0.5 1 0.5 0 0 0
    FIXEDLANES 9 0 0 0 0
    SEL 0
    REC 0 5088 1 0 0 0 0 0
    VU 2
    TRACKHEIGHT 0 0 0 0 0 0 0
    INQ 0 0 0 0.5 100 0 0 100
    NCHAN 2
    FX 1
    TRACKID {EF394216-A1D5-4D78-87F9-B242D53D1F77}
    PERF 0
    MIDIOUT -1
    MAINSEND 1 0
    <FXCHAIN
      WNDRECT 24 52 700 560
      SHOW 0
      LASTSEL 0
      DOCKED 0
      BYPASS 0 0 0
      <JS "ReapNES Studio/ReapNES_Console.jsfx" ""
        2 15 1 10 80 10 100 2 1 15 1 5 60 10 80 1 1 0 50 0 0 15 1 0 100 0 0 0.500000 0.500000 0.400000 0.300000 0.800000 1 1 0 0 0 0 - - - - - - - - - - - - - - - - - - - - - - - - - -
      >
      FLOATPOS 0 0 0 0
      FXID {6B8E9935-1AAD-4415-AFC3-56CEA438B91C}
      WAK 0 0
    >
    <ITEM
      POSITION 0
      LENGTH 74.6189758
      LOOP 0
      ALLTAKES 0
      FADEIN 0 0 0 0 0 0 0
      FADEOUT 0 0 0 0 0 0 0
      MUTE 0 0
      SEL 0
      IGUID {1333EB61-9E5B-4538-B9D2-BEA23152B217}
      <SOURCE MIDI
        HASDATA 1 480 QN
        CCINTERP 32
        E 0 c1 51
        E 96 b1 0c 10
        E 0 b1 0b 4c
        E 0 91 2e 4c
        E 176 81 2e 00
        E 16 91 2c 4c
        E 176 81 2c 00
        E 16 91 29 4c
        E 176 81 29 00
        E 16 91 2c 4c
        E 368 81 2c 00
        E 16 91 2b 4c
        E 176 81 2b 00
        E 16 91 27 4c
        E 176 81 27 00
        E 16 91 2b 4c
        E 368 81 2b 00
        E 16 91 29 4c
        E 176 81 29 00
        E 16 91 25 4c
        E 176 81 25 00
        E 16 91 27 4c
        E 176 81 27 00
        E 16 91 29 4c
        E 176 81 29 00
        E 16 91 24 4c
        E 176 81 24 00
        E 16 91 30 4c
        E 368 81 30 00
        E 16 91 2e 4c
        E 176 81 2e 00
        E 16 91 2c 4c
        E 176 81 2c 00
        E 16 91 29 4c
        E 176 81 29 00
        E 16 91 2c 4c
        E 368 81 2c 00
        E 16 91 2b 4c
        E 176 81 2b 00
        E 16 91 27 4c
        E 176 81 27 00
        E 16 91 2b 4c
        E 368 81 2b 00
        E 16 91 29 4c
        E 176 81 29 00
        E 16 91 25 4c
        E 176 81 25 00
        E 16 91 27 4c
        E 176 81 27 00
        E 16 91 29 4c
        E 176 81 29 00
        E 16 91 24 4c
        E 176 81 24 00
        E 16 91 30 4c
        E 368 81 30 00
        E 16 91 2e 4c
        E 176 81 2e 00
        E 16 91 2c 4c
        E 176 81 2c 00
        E 16 91 29 4c
        E 176 81 29 00
        E 16 91 2c 4c
        E 368 81 2c 00
        E 16 91 2b 4c
        E 176 81 2b 00
        E 16 91 27 4c
        E 176 81 27 00
        E 16 91 30 4c
        E 368 81 30 00
        E 16 91 29 4c
        E 176 81 29 00
        E 16 91 2d 4c
        E 176 81 2d 00
        E 16 91 30 4c
        E 176 81 30 00
        E 16 91 31 4c
        E 176 81 31 00
        E 16 91 2c 4c
        E 176 81 2c 00
        E 16 91 31 4c
        E 368 81 31 00
        E 16 91 37 4c
        E 176 81 37 00
        E 16 91 38 4c
        E 176 81 38 00
        E 16 91 37 4c
        E 176 81 37 00
        E 16 91 35 4c
        E 176 81 35 00
        E 16 91 35 4c
        E 560 81 35 00
        E 16 91 37 4c
        E 80 81 37 00
        E 16 91 35 4c
        E 80 81 35 00
        E 16 91 34 4c
        E 464 81 34 00
        E 16 b1 0b 7f
        E 0 91 48 7f
        E 32 81 48 00
        E 16 91 47 7f
        E 32 81 47 00
        E 0 91 46 7f
        E 32 81 46 00
        E 16 91 45 7f
        E 32 81 45 00
        E 16 91 44 7f
        E 32 81 44 00
        E 0 91 43 7f
        E 32 81 43 00
        E 16 91 42 7f
        E 32 81 42 00
        E 16 91 41 7f
        E 32 81 41 00
        E 0 91 40 7f
        E 32 81 40 00
        E 16 91 3f 7f
        E 32 81 3f 00
        E 16 91 3e 7f
        E 32 81 3e 00
        E 0 91 3d 7f
        E 32 81 3d 00
        E 16 91 3c 7f
        E 32 81 3c 00
        E 16 91 3b 7f
        E 32 81 3b 00
        E 0 91 3a 7f
        E 32 81 3a 00
        E 16 91 39 7f
        E 32 81 39 00
        E 16 91 38 7f
        E 32 81 38 00
        E 0 91 37 7f
        E 32 81 37 00
        E 16 91 36 7f
        E 32 81 36 00
        E 16 91 35 7f
        E 32 81 35 00
        E 0 91 34 7f
        E 32 81 34 00
        E 16 91 33 7f
        E 32 81 33 00
        E 16 91 32 7f
        E 32 81 32 00
        E 0 91 31 7f
        E 32 81 31 00
        E 16 91 30 7f
        E 32 81 30 00
        E 16 91 2f 7f
        E 32 81 2f 00
        E 0 91 2e 7f
        E 32 81 2e 00
        E 16 91 2d 7f
        E 32 81 2d 00
        E 16 91 2c 7f
        E 32 81 2c 00
        E 0 91 2b 7f
        E 32 81 2b 00
        E 16 91 2a 7f
        E 32 81 2a 00
        E 16 91 29 7f
        E 32 81 29 00
        E 0 91 28 7f
        E 32 81 28 00
        E 16 91 27 7f
        E 32 81 27 00
        E 16 91 26 7f
        E 32 81 26 00
        E 0 91 25 7f
        E 32 81 25 00
        E 16 91 24 7f
        E 32 81 24 00
        E 16 91 23 7f
        E 32 81 23 00
        E 0 91 22 7f
        E 32 81 22 00
        E 16 91 21 7f
        E 32 81 21 00
        E 16 91 20 7f
        E 32 81 20 00
        E 0 91 1f 7f
        E 32 81 1f 00
        E 16 91 1e 7f
        E 32 81 1e 00
        E 16 91 1d 7f
        E 32 81 1d 00
        E 0 91 1c 7f
        E 32 81 1c 00
        E 16 91 1b 7f
        E 32 81 1b 00
        E 16 91 1a 7f
        E 32 81 1a 00
        E 0 91 19 7f
        E 32 81 19 00
        E 16 b1 0b 44
        E 0 91 21 44
        E 112 81 21 00
        E 16 91 24 44
        E 192 b1 0b 19
        E 48 81 24 00
        E 16 b1 0b 44
        E 0 91 24 44
        E 192 b1 0b 19
        E 48 81 24 00
        E 16 b1 0b 44
        E 0 91 24 44
        E 192 b1 0b 19
        E 48 81 24 00
        E 16 b1 0b 44
        E 0 91 24 44
        E 192 b1 0b 19
        E 48 81 24 00
        E 16 b1 0b 44
        E 0 91 24 44
        E 192 b1 0b 19
        E 48 81 24 00
        E 16 b1 0b 44
        E 0 91 24 44
        E 112 81 24 00
        E 16 91 22 44
        E 192 b1 0b 19
        E 48 81 22 00
        E 16 b1 0b 44
        E 0 91 20 44
        E 192 b1 0b 19
        E 48 81 20 00
        E 16 b1 0b 44
        E 0 91 21 44
        E 112 81 21 00
        E 16 91 24 44
        E 192 b1 0b 19
        E 48 81 24 00
        E 16 b1 0b 44
        E 0 91 24 44
        E 192 b1 0b 19
        E 48 81 24 00
        E 16 b1 0b 44
        E 0 91 24 44
        E 192 b1 0b 19
        E 48 81 24 00
        E 16 b1 0b 44
        E 0 91 24 44
        E 112 81 24 00
        E 16 91 24 44
        E 112 81 24 00
        E 784 91 20 44
        E 192 b1 0b 19
        E 48 81 20 00
        E 16 b1 0b 44
        E 0 91 21 44
        E 112 81 21 00
        E 16 91 29 44
        E 112 81 29 00
        E 16 91 20 44
        E 112 81 20 00
        E 16 91 21 44
        E 112 81 21 00
        E 16 91 29 44
        E 112 81 29 00
        E 16 91 20 44
        E 112 81 20 00
        E 16 91 21 44
        E 112 81 21 00
        E 16 91 24 44
        E 112 81 24 00
        E 16 91 29 44
        E 112 81 29 00
        E 16 91 30 44
        E 112 81 30 00
        E 16 91 24 44
        E 192 b1 0b 19
        E 208 81 24 00
        E 240 b1 0b 44
        E 0 91 20 44
        E 112 81 20 00
        E 16 91 24 44
        E 192 b1 0b 19
        E 48 81 24 00
        E 16 b1 0b 44
        E 0 91 24 44
        E 192 b1 0b 19
        E 48 81 24 00
        E 16 b1 0b 44
        E 0 91 24 44
        E 192 b1 0b 19
        E 48 81 24 00
        E 16 b1 0b 44
        E 0 91 24 44
        E 112 81 24 00
        E 16 91 24 44
        E 112 81 24 00
        E 848 b1 0c 60
        E 0 91 33 44
        E 240 81 33 00
        E 16 91 35 44
        E 240 81 35 00
        E 16 91 37 44
        E 112 81 37 00
        E 16 91 38 44
        E 240 81 38 00
        E 16 91 37 44
        E 240 81 37 00
        E 16 91 3a 44
        E 240 81 3a 00
        E 16 91 38 44
        E 112 81 38 00
        E 16 91 37 44
        E 112 81 37 00
        E 16 91 38 44
        E 112 81 38 00
        E 16 91 37 44
        E 112 81 37 00
        E 16 91 33 44
        E 240 81 33 00
        E 16 91 35 44
        E 1648 81 35 00
        E 144 91 35 44
        E 112 81 35 00
        E 16 91 37 44
        E 112 81 37 00
        E 16 91 38 44
        E 112 81 38 00
        E 16 91 3a 44
        E 240 81 3a 00
        E 16 91 38 44
        E 112 81 38 00
        E 16 91 3d 44
        E 240 81 3d 00
        E 16 91 3c 44
        E 240 81 3c 00
        E 16 91 3f 44
        E 240 81 3f 00
        E 16 91 3d 44
        E 240 81 3d 00
        E 16 91 3f 44
        E 112 81 3f 00
        E 16 91 3d 44
        E 240 81 3d 00
        E 16 91 37 44
        E 112 81 37 00
        E 16 91 3c 44
        E 1648 81 3c 00
        E 144 91 3c 44
        E 112 81 3c 00
        E 16 91 3c 44
        E 112 81 3c 00
        E 16 91 3c 44
        E 112 81 3c 00
        E 16 91 3a 44
        E 112 81 3a 00
        E 16 91 38 44
        E 112 81 38 00
        E 16 91 37 44
        E 112 81 37 00
        E 16 91 3a 44
        E 624 81 3a 00
        E 144 91 3a 44
        E 112 81 3a 00
        E 16 91 3a 44
        E 112 81 3a 00
        E 16 91 3a 44
        E 112 81 3a 00
        E 16 91 3c 44
        E 112 81 3c 00
        E 16 91 3a 44
        E 112 81 3a 00
        E 16 91 38 44
        E 112 81 38 00
        E 16 91 37 44
        E 112 81 37 00
        E 16 91 35 44
        E 1008 81 35 00
        E 144 91 41 44
        E 112 81 41 00
        E 16 91 41 44
        E 112 81 41 00
        E 16 91 41 44
        E 112 81 41 00
        E 144 91 35 44
        E 112 81 35 00
        E 16 91 35 44
        E 48 81 35 00
        E 16 b1 0b 55
        E 0 91 31 55
        E 1008 81 31 00
        E 16 91 2e 55
        E 496 81 2e 00
        E 16 91 31 55
        E 496 81 31 00
        E 16 91 35 55
        E 752 81 35 00
        E 16 91 2b 55
        E 240 81 2b 00
        E 16 91 2c 55
        E 240 81 2c 00
        E 16 91 2e 55
        E 240 81 2e 00
        E 16 91 30 55
        E 240 81 30 00
        E 16 91 31 55
        E 240 81 31 00
        E 16 91 35 55
        E 1008 81 35 00
        E 16 91 38 55
        E 160 81 38 00
        E 16 91 37 55
        E 160 81 37 00
        E 0 91 35 55
        E 160 81 35 00
        E 16 91 35 55
        E 160 81 35 00
        E 16 91 34 55
        E 160 81 34 00
        E 0 91 35 55
        E 160 81 35 00
        E 16 91 37 55
        E 112 81 37 00
        E 16 91 38 55
        E 112 81 38 00
        E 16 91 37 55
        E 112 81 37 00
        E 16 91 35 55
        E 112 81 35 00
        E 16 91 37 55
        E 112 81 37 00
        E 16 91 35 55
        E 112 81 35 00
        E 16 91 34 55
        E 112 81 34 00
        E 16 91 31 55
        E 112 81 31 00
        E 16 91 30 55
        E 1008 81 30 00
        E 16 91 30 55
        E 112 81 30 00
        E 16 91 31 55
        E 112 81 31 00
        E 16 91 30 55
        E 112 81 30 00
        E 16 91 2e 55
        E 112 81 2e 00
        E 16 91 30 55
        E 112 81 30 00
        E 16 91 2e 55
        E 112 81 2e 00
        E 16 91 2c 55
        E 112 81 2c 00
        E 16 91 2b 55
        E 112 81 2b 00
        E 16 91 24 55
        E 112 81 24 00
        E 16 91 28 55
        E 112 81 28 00
        E 16 91 2b 55
        E 112 81 2b 00
        E 16 91 2c 55
        E 112 81 2c 00
        E 16 91 2e 55
        E 112 81 2e 00
        E 16 91 30 55
        E 112 81 30 00
        E 16 91 34 55
        E 112 81 34 00
        E 16 91 37 55
        E 112 81 37 00
        E 16 91 30 55
        E 1520 81 30 00
        E 16 91 30 55
        E 160 81 30 00
        E 16 91 2e 55
        E 160 81 2e 00
        E 0 91 30 55
        E 160 81 30 00
        E 16 91 31 55
        E 1008 81 31 00
        E 16 91 33 55
        E 496 81 33 00
        E 16 91 31 55
        E 496 81 31 00
        E 16 91 34 55
        E 1392 81 34 00
        E 16 91 30 55
        E 112 81 30 00
        E 16 91 30 55
        E 112 81 30 00
        E 16 91 30 55
        E 112 81 30 00
        E 16 91 30 55
        E 112 81 30 00
        E 16 91 34 55
        E 112 81 34 00
        E 16 b1 0b 7f
        E 0 91 29 7f
        E 160 81 29 00
        E 16 91 2e 7f
        E 160 81 2e 00
        E 0 91 2f 7f
        E 160 81 2f 00
        E 16 91 30 7f
        E 160 81 30 00
        E 16 91 30 7f
        E 320 81 30 00
        E 16 91 30 7f
        E 880 81 30 00
        E 16 b1 0b 55
        E 0 91 33 55
        E 32 81 33 00
        E 16 91 34 55
        E 32 81 34 00
        E 0 91 35 55
        E 32 81 35 00
        E 16 91 35 55
        E 112 81 35 00
        E 16 91 38 55
        E 112 81 38 00
        E 16 91 35 55
        E 112 81 35 00
        E 16 91 33 55
        E 112 81 33 00
        E 16 91 35 55
        E 496 81 35 00
        E 272 91 33 55
        E 112 81 33 00
        E 16 91 33 55
        E 112 81 33 00
        E 16 91 33 55
        E 112 81 33 00
        E 16 91 35 55
        E 112 81 35 00
        E 16 91 37 55
        E 112 81 37 00
        E 16 91 38 55
        E 1136 81 38 00
        E 16 91 35 55
        E 496 81 35 00
        E 16 91 30 55
        E 368 81 30 00
        E 16 91 38 55
        E 48 81 38 00
        E 16 91 39 55
        E 48 81 39 00
        E 16 91 3a 55
        E 112 81 3a 00
        E 16 91 3c 55
        E 112 81 3c 00
        E 16 91 3a 55
        E 112 81 3a 00
        E 16 91 38 55
        E 112 81 38 00
        E 16 91 3a 55
        E 112 81 3a 00
        E 16 91 38 55
        E 112 81 38 00
        E 16 91 37 55
        E 112 81 37 00
        E 16 91 33 55
        E 624 81 33 00
        E 16 91 30 55
        E 240 81 30 00
        E 16 91 33 55
        E 240 81 33 00
        E 16 91 35 55
        E 1520 81 35 00
        E 528 b1 0b 44
        E 0 91 35 44
        E 1008 81 35 00
        E 16 91 34 44
        E 1008 81 34 00
        E 16 91 38 44
        E 496 81 38 00
        E 16 91 37 44
        E 240 81 37 00
        E 16 91 38 44
        E 240 81 38 00
        E 16 91 3a 44
        E 496 81 3a 00
        E 16 91 38 44
        E 240 81 38 00
        E 16 91 37 44
        E 240 81 37 00
        E 16 91 39 44
        E 496 81 39 00
        E 16 91 39 44
        E 240 81 39 00
        E 16 91 39 44
        E 240 81 39 00
        E 16 91 34 44
        E 496 81 34 00
        E 16 91 34 44
        E 496 81 34 00
        E 16 91 37 44
        E 1520 81 37 00
        E 16 91 35 44
        E 240 81 35 00
        E 16 91 37 44
        E 240 81 37 00
        E 16 b1 0b 66
        E 0 91 38 66
        E 112 81 38 00
        E 16 91 30 66
        E 112 81 30 00
        E 16 91 35 66
        E 112 81 35 00
        E 16 91 38 66
        E 112 81 38 00
        E 16 91 37 66
        E 112 81 37 00
        E 16 91 30 66
        E 112 81 30 00
        E 16 91 38 66
        E 112 81 38 00
        E 16 91 30 66
        E 112 81 30 00
        E 16 91 3a 66
        E 112 81 3a 00
        E 16 91 34 66
        E 112 81 34 00
        E 16 91 37 66
        E 112 81 37 00
        E 16 91 3a 66
        E 112 81 3a 00
        E 16 91 38 66
        E 112 81 38 00
        E 16 91 34 66
        E 112 81 34 00
        E 16 91 37 66
        E 112 81 37 00
        E 16 91 34 66
        E 112 81 34 00
        E 16 91 3c 66
        E 112 81 3c 00
        E 16 91 35 66
        E 112 81 35 00
        E 16 91 38 66
        E 112 81 38 00
        E 16 91 3c 66
        E 112 81 3c 00
        E 16 91 3a 66
        E 112 81 3a 00
        E 16 91 35 66
        E 112 81 35 00
        E 16 91 3c 66
        E 112 81 3c 00
        E 16 91 35 66
        E 112 81 35 00
        E 16 91 3d 66
        E 112 81 3d 00
        E 16 91 35 66
        E 112 81 35 00
        E 16 91 38 66
        E 112 81 38 00
        E 16 91 3d 66
        E 112 81 3d 00
        E 16 91 3c 66
        E 112 81 3c 00
        E 16 91 35 66
        E 112 81 35 00
        E 16 91 3a 66
        E 112 81 3a 00
        E 16 91 35 66
        E 112 81 35 00
        E 16 91 3f 66
        E 112 81 3f 00
        E 16 91 38 66
        E 112 81 38 00
        E 16 91 3c 66
        E 112 81 3c 00
        E 16 91 3f 66
        E 112 81 3f 00
        E 16 91 3d 66
        E 112 81 3d 00
        E 16 91 38 66
        E 112 81 38 00
        E 16 91 3f 66
        E 112 81 3f 00
        E 16 91 38 66
        E 112 81 38 00
        E 16 91 3d 66
        E 112 81 3d 00
        E 16 91 34 66
        E 112 81 34 00
        E 16 91 38 66
        E 112 81 38 00
        E 16 91 3d 66
        E 112 81 3d 00
        E 16 91 38 66
        E 112 81 38 00
        E 16 91 34 66
        E 112 81 34 00
        E 16 91 30 66
        E 112 81 30 00
        E 16 91 38 66
        E 112 81 38 00
        E 16 91 3c 66
        E 112 81 3c 00
        E 16 91 35 66
        E 112 81 35 00
        E 16 91 38 66
        E 112 81 38 00
        E 16 91 3c 66
        E 112 81 3c 00
        E 16 91 35 66
        E 112 81 35 00
        E 16 91 38 66
        E 112 81 38 00
        E 16 91 3c 66
        E 112 81 3c 00
        E 16 91 35 66
        E 112 81 35 00
        E 16 91 38 66
        E 112 81 38 00
        E 16 91 3a 66
        E 112 81 3a 00
        E 16 91 35 66
        E 112 81 35 00
        E 16 91 38 66
        E 112 81 38 00
        E 16 91 3a 66
        E 112 81 3a 00
        E 16 91 30 66
        E 112 81 30 00
        E 16 91 34 66
        E 112 81 34 00
        E 16 91 37 66
        E 32 81 37 00
        E 0 b1 7b 00
        E 0 ff 2f 00
      >
    >
  >
  <TRACK {C8D1A186-E529-4EDF-9B88-59E49175D1D1}
    NAME "NES - Triangle [ch2]"
    PEAKCOL 16744192
    BEAT -1
    AUTOMODE 0
    PANLAWFLAGS 3
    VOLPAN 1 0 -1 -1 1
    MUTESOLO 0 0 0
    IPHASE 0
    PLAYOFFS 0 1
    ISBUS 0 0
    BUSCOMP 0 0 0 0 0
    SHOWINMIX 1 0.6667 0.5 1 0.5 0 0 0
    FIXEDLANES 9 0 0 0 0
    SEL 0
    REC 0 5088 1 0 0 0 0 0
    VU 2
    TRACKHEIGHT 0 0 0 0 0 0 0
    INQ 0 0 0 0.5 100 0 0 100
    NCHAN 2
    FX 1
    TRACKID {C8D1A186-E529-4EDF-9B88-59E49175D1D1}
    PERF 0
    MIDIOUT -1
    MAINSEND 1 0
    <FXCHAIN
      WNDRECT 24 52 700 560
      SHOW 0
      LASTSEL 0
      DOCKED 0
      BYPASS 0 0 0
      <JS "ReapNES Studio/ReapNES_Console.jsfx" ""
        2 15 1 10 80 10 100 2 1 15 1 5 60 10 80 1 1 0 50 0 0 15 1 0 100 0 0 0.500000 0.500000 0.400000 0.300000 0.800000 2 1 0 0 0 0 - - - - - - - - - - - - - - - - - - - - - - - - - -
      >
      FLOATPOS 0 0 0 0
      FXID {61E58BAB-E64B-4932-B9CB-FA8E130FDEB2}
      WAK 0 0
    >
    <ITEM
      POSITION 0
      LENGTH 74.6189758
      LOOP 0
      ALLTAKES 0
      FADEIN 0 0 0 0 0 0 0
      FADEOUT 0 0 0 0 0 0 0
      MUTE 0 0
      SEL 0
      IGUID {F5AF941C-6591-4F3B-A536-D0E2B8B66AD7}
      <SOURCE MIDI
        HASDATA 1 480 QN
        CCINTERP 32
        E 0 c2 26
        E 0 b2 0b 7f
        E 0 92 2c 7f
        E 176 82 2c 00
        E 16 b2 0b 7f
        E 0 92 29 7f
        E 176 82 29 00
        E 16 b2 0b 7f
        E 0 92 2c 7f
        E 368 82 2c 00
        E 16 b2 0b 7f
        E 0 92 2b 7f
        E 176 82 2b 00
        E 16 b2 0b 7f
        E 0 92 27 7f
        E 176 82 27 00
        E 16 b2 0b 7f
        E 0 92 2b 7f
        E 368 82 2b 00
        E 16 b2 0b 7f
        E 0 92 29 7f
        E 176 82 29 00
        E 16 b2 0b 7f
        E 0 92 25 7f
        E 176 82 25 00
        E 16 b2 0b 7f
        E 0 92 27 7f
        E 176 82 27 00
        E 16 b2 0b 7f
        E 0 92 29 7f
        E 176 82 29 00
        E 16 b2 0b 7f
        E 0 92 24 7f
        E 176 82 24 00
        E 16 b2 0b 7f
        E 0 92 30 7f
        E 368 82 30 00
        E 16 b2 0b 7f
        E 0 92 2e 7f
        E 176 82 2e 00
        E 16 b2 0b 7f
        E 0 92 2c 7f
        E 176 82 2c 00
        E 16 b2 0b 7f
        E 0 92 29 7f
        E 176 82 29 00
        E 16 b2 0b 7f
        E 0 92 2c 7f
        E 368 82 2c 00
        E 16 b2 0b 7f
        E 0 92 2b 7f
        E 176 82 2b 00
        E 16 b2 0b 7f
        E 0 92 27 7f
        E 176 82 27 00
        E 16 b2 0b 7f
        E 0 92 2b 7f
        E 368 82 2b 00
        E 16 b2 0b 7f
        E 0 92 29 7f
        E 176 82 29 00
        E 16 b2 0b 7f
        E 0 92 25 7f
        E 176 82 25 00
        E 16 b2 0b 7f
        E 0 92 27 7f
        E 176 82 27 00
        E 16 b2 0b 7f
        E 0 92 29 7f
        E 752 82 29 00
        E 16 b2 0b 7f
        E 0 92 2b 7f
        E 752 82 2b 00
        E 16 b2 0b 7f
        E 0 92 2c 7f
        E 752 82 2c 00
        E 16 b2 0b 7f
        E 0 92 2d 7f
        E 752 82 2d 00
        E 16 b2 0b 7f
        E 0 92 2e 7f
        E 752 82 2e 00
        E 16 b2 0b 7f
        E 0 92 2f 7f
        E 752 82 2f 00
        E 16 b2 0b 7f
        E 0 92 30 7f
        E 1520 82 30 00
        E 144 b2 0b 7f
        E 0 92 34 7f
        E 64 82 34 00
        E 0 b2 0b 7f
        E 0 92 2d 7f
        E 48 82 2d 00
        E 16 b2 0b 7f
        E 0 92 34 7f
        E 64 82 34 00
        E 0 b2 0b 7f
        E 0 92 2d 7f
        E 48 82 2d 00
        E 16 b2 0b 7f
        E 0 92 34 7f
        E 64 82 34 00
        E 0 b2 0b 7f
        E 0 92 2d 7f
        E 48 82 2d 00
        E 16 b2 0b 7f
        E 0 92 30 7f
        E 48 82 30 00
        E 0 b2 0b 7f
        E 0 92 2c 7f
        E 64 82 2c 00
        E 16 b2 0b 7f
        E 0 92 30 7f
        E 48 82 30 00
        E 0 b2 0b 7f
        E 0 92 2c 7f
        E 64 82 2c 00
        E 16 b2 0b 7f
        E 0 92 30 7f
        E 48 82 30 00
        E 0 b2 0b 7f
        E 0 92 2c 7f
        E 64 82 2c 00
        E 16 b2 0b 7f
        E 0 92 30 7f
        E 48 82 30 00
        E 0 b2 0b 7f
        E 0 92 2c 7f
        E 64 82 2c 00
        E 16 b2 0b 7f
        E 0 92 2c 7f
        E 112 82 2c 00
        E 16 b2 0b 7f
        E 0 92 2c 7f
        E 112 82 2c 00
        E 16 b2 0b 7f
        E 0 92 2c 7f
        E 112 82 2c 00
        E 16 b2 0b 7f
        E 0 92 2c 7f
        E 112 82 2c 00
        E 16 b2 0b 7f
        E 0 92 29 7f
        E 112 82 29 00
        E 144 b2 0b 7f
        E 0 92 29 7f
        E 112 82 29 00
        E 144 b2 0b 7f
        E 0 92 29 7f
        E 1520 82 29 00
        E 16 b2 0b 7f
        E 0 92 27 7f
        E 240 82 27 00
        E 16 b2 0b 7f
        E 0 92 28 7f
        E 240 82 28 00
        E 16 b2 0b 7f
        E 0 92 29 7f
        E 1264 82 29 00
        E 16 b2 0b 7f
        E 0 92 27 7f
        E 240 82 27 00
        E 16 b2 0b 7f
        E 0 92 27 7f
        E 240 82 27 00
        E 16 b2 0b 7f
        E 0 92 27 7f
        E 112 82 27 00
        E 16 b2 0b 7f
        E 0 92 2c 7f
        E 240 82 2c 00
        E 16 b2 0b 7f
        E 0 92 2d 7f
        E 112 82 2d 00
        E 16 b2 0b 7f
        E 0 92 35 7f
        E 112 82 35 00
        E 16 b2 0b 7f
        E 0 92 2c 7f
        E 112 82 2c 00
        E 16 b2 0b 7f
        E 0 92 2d 7f
        E 112 82 2d 00
        E 16 b2 0b 7f
        E 0 92 35 7f
        E 112 82 35 00
        E 16 b2 0b 7f
        E 0 92 2c 7f
        E 112 82 2c 00
        E 16 b2 0b 7f
        E 0 92 2d 7f
        E 112 82 2d 00
        E 16 b2 0b 7f
        E 0 92 35 7f
        E 112 82 35 00
        E 16 b2 0b 7f
        E 0 92 2c 7f
        E 112 82 2c 00
        E 16 b2 0b 7f
        E 0 92 2d 7f
        E 112 82 2d 00
        E 16 b2 0b 7f
        E 0 92 35 7f
        E 240 82 35 00
        E 16 b2 0b 7f
        E 0 92 27 7f
        E 112 82 27 00
        E 16 b2 0b 7f
        E 0 92 27 7f
        E 112 82 27 00
        E 16 b2 0b 7f
        E 0 92 27 7f
        E 112 82 27 00
        E 16 b2 0b 7f
        E 0 92 35 7f
        E 112 82 35 00
        E 16 b2 0b 7f
        E 0 92 35 7f
        E 240 82 35 00
        E 16 b2 0b 7f
        E 0 92 35 7f
        E 240 82 35 00
        E 16 b2 0b 7f
        E 0 92 35 7f
        E 240 82 35 00
        E 16 b2 0b 7f
        E 0 92 35 7f
        E 112 82 35 00
        E 16 b2 0b 7f
        E 0 92 35 7f
        E 112 82 35 00
        E 144 b2 0b 7f
        E 0 92 27 7f
        E 240 82 27 00
        E 16 b2 0b 7f
        E 0 92 27 7f
        E 240 82 27 00
        E 16 b2 0b 7f
        E 0 92 27 7f
        E 240 82 27 00
        E 16 b2 0b 7f
        E 0 92 29 7f
        E 112 82 29 00
        E 16 b2 0b 7f
        E 0 92 29 7f
        E 240 82 29 00
        E 16 b2 0b 7f
        E 0 92 29 7f
        E 240 82 29 00
        E 16 b2 0b 7f
        E 0 92 29 7f
        E 240 82 29 00
        E 16 b2 0b 7f
        E 0 92 29 7f
        E 240 82 29 00
        E 16 b2 0b 7f
        E 0 92 29 7f
        E 240 82 29 00
        E 16 b2 0b 7f
        E 0 92 29 7f
        E 112 82 29 00
        E 16 b2 0b 7f
        E 0 92 2c 7f
        E 240 82 2c 00
        E 16 b2 0b 7f
        E 0 92 27 7f
        E 240 82 27 00
        E 16 b2 0b 7f
        E 0 92 29 7f
        E 496 82 29 00
        E 144 b2 0b 7f
        E 0 92 27 7f
        E 240 82 27 00
        E 16 b2 0b 7f
        E 0 92 29 7f
        E 112 82 29 00
        E 272 b2 0b 7f
        E 0 92 2c 7f
        E 240 82 2c 00
        E 16 b2 0b 7f
        E 0 92 2c 7f
        E 240 82 2c 00
        E 16 b2 0b 7f
        E 0 92 2c 7f
        E 240 82 2c 00
        E 16 b2 0b 7f
        E 0 92 2e 7f
        E 112 82 2e 00
        E 16 b2 0b 7f
        E 0 92 2e 7f
        E 240 82 2e 00
        E 16 b2 0b 7f
        E 0 92 2e 7f
        E 240 82 2e 00
        E 16 b2 0b 7f
        E 0 92 2e 7f
        E 240 82 2e 00
        E 16 b2 0b 7f
        E 0 92 2e 7f
        E 240 82 2e 00
        E 16 b2 0b 7f
        E 0 92 2e 7f
        E 240 82 2e 00
        E 16 b2 0b 7f
        E 0 92 2e 7f
        E 112 82 2e 00
        E 16 b2 0b 7f
        E 0 92 31 7f
        E 240 82 31 00
        E 16 b2 0b 7f
        E 0 92 2c 7f
        E 240 82 2c 00
        E 16 b2 0b 7f
        E 0 92 30 7f
        E 496 82 30 00
        E 144 b2 0b 7f
        E 0 92 2b 7f
        E 240 82 2b 00
        E 16 b2 0b 7f
        E 0 92 30 7f
        E 112 82 30 00
        E 272 b2 0b 7f
        E 0 92 30 7f
        E 240 82 30 00
        E 16 b2 0b 7f
        E 0 92 30 7f
        E 240 82 30 00
        E 16 b2 0b 7f
        E 0 92 30 7f
        E 240 82 30 00
        E 16 b2 0b 7f
        E 0 92 2b 7f
        E 112 82 2b 00
        E 16 b2 0b 7f
        E 0 92 2b 7f
        E 240 82 2b 00
        E 16 b2 0b 7f
        E 0 92 2b 7f
        E 240 82 2b 00
        E 16 b2 0b 7f
        E 0 92 2b 7f
        E 240 82 2b 00
        E 16 b2 0b 7f
        E 0 92 2b 7f
        E 112 82 2b 00
        E 144 b2 0b 7f
        E 0 92 2e 7f
        E 112 82 2e 00
        E 16 b2 0b 7f
        E 0 92 2e 7f
        E 112 82 2e 00
        E 16 b2 0b 7f
        E 0 92 2e 7f
        E 112 82 2e 00
        E 16 b2 0b 7f
        E 0 92 30 7f
        E 112 82 30 00
        E 16 b2 0b 7f
        E 0 92 30 7f
        E 112 82 30 00
        E 16 b2 0b 7f
        E 0 92 33 7f
        E 112 82 33 00
        E 16 b2 0b 7f
        E 0 92 34 7f
        E 112 82 34 00
        E 16 b2 0b 7f
        E 0 92 35 7f
        E 240 82 35 00
        E 16 b2 0b 7f
        E 0 92 35 7f
        E 240 82 35 00
        E 16 b2 0b 7f
        E 0 92 35 7f
        E 240 82 35 00
        E 16 b2 0b 7f
        E 0 92 35 7f
        E 112 82 35 00
        E 16 b2 0b 7f
        E 0 92 35 7f
        E 112 82 35 00
        E 16 b2 0b 7f
        E 0 92 21 7f
        E 48 82 21 00
        E 16 b2 0b 7f
        E 0 92 21 7f
        E 48 82 21 00
        E 16 b2 0b 7f
        E 0 92 30 7f
        E 48 82 30 00
        E 0 b2 0b 7f
        E 0 92 2c 7f
        E 64 82 2c 00
        E 16 b2 0b 7f
        E 0 92 30 7f
        E 48 82 30 00
        E 0 b2 0b 7f
        E 0 92 2c 7f
        E 64 82 2c 00
        E 16 b2 0b 7f
        E 0 92 30 7f
        E 48 82 30 00
        E 0 b2 0b 7f
        E 0 92 2c 7f
        E 64 82 2c 00
        E 16 b2 0b 7f
        E 0 92 1d 7f
        E 112 82 1d 00
        E 16 b2 0b 7f
        E 0 92 1d 7f
        E 112 82 1d 00
        E 16 b2 0b 7f
        E 0 92 2c 7f
        E 112 82 2c 00
        E 144 b2 0b 7f
        E 0 92 2e 7f
        E 112 82 2e 00
        E 16 b2 0b 7f
        E 0 92 2e 7f
        E 112 82 2e 00
        E 144 b2 0b 7f
        E 0 92 29 7f
        E 112 82 29 00
        E 144 b2 0b 7f
        E 0 92 2e 7f
        E 112 82 2e 00
        E 144 b2 0b 7f
        E 0 92 29 7f
        E 112 82 29 00
        E 144 b2 0b 7f
        E 0 92 2e 7f
        E 112 82 2e 00
        E 144 b2 0b 7f
        E 0 92 29 7f
        E 112 82 29 00
        E 16 b2 0b 7f
        E 0 92 2e 7f
        E 240 82 2e 00
        E 16 b2 0b 7f
        E 0 92 31 7f
        E 240 82 31 00
        E 16 b2 0b 7f
        E 0 92 30 7f
        E 112 82 30 00
        E 16 b2 0b 7f
        E 0 92 35 7f
        E 112 82 35 00
        E 16 b2 0b 7f
        E 0 92 30 7f
        E 112 82 30 00
        E 16 b2 0b 7f
        E 0 92 2f 7f
        E 112 82 2f 00
        E 16 b2 0b 7f
        E 0 92 2e 7f
        E 112 82 2e 00
        E 16 b2 0b 7f
        E 0 92 2c 7f
        E 112 82 2c 00
        E 16 b2 0b 7f
        E 0 92 29 7f
        E 112 82 29 00
        E 16 b2 0b 7f
        E 0 92 27 7f
        E 112 82 27 00
        E 16 b2 0b 7f
        E 0 92 29 7f
        E 496 82 29 00
        E 16 b2 0b 7f
        E 0 92 27 7f
        E 240 82 27 00
        E 16 b2 0b 7f
        E 0 92 29 7f
        E 240 82 29 00
        E 16 b2 0b 7f
        E 0 92 31 7f
        E 112 82 31 00
        E 16 b2 0b 7f
        E 0 92 31 7f
        E 112 82 31 00
        E 144 b2 0b 7f
        E 0 92 31 7f
        E 112 82 31 00
        E 144 b2 0b 7f
        E 0 92 35 7f
        E 112 82 35 00
        E 144 b2 0b 7f
        E 0 92 31 7f
        E 112 82 31 00
        E 144 b2 0b 7f
        E 0 92 35 7f
        E 112 82 35 00
        E 144 b2 0b 7f
        E 0 92 35 7f
        E 112 82 35 00
        E 16 b2 0b 7f
        E 0 92 38 7f
        E 240 82 38 00
        E 16 b2 0b 7f
        E 0 92 35 7f
        E 240 82 35 00
        E 16 b2 0b 7f
        E 0 92 34 7f
        E 240 82 34 00
        E 16 b2 0b 7f
        E 0 92 34 7f
        E 240 82 34 00
        E 16 b2 0b 7f
        E 0 92 34 7f
        E 240 82 34 00
        E 144 b2 0b 7f
        E 0 92 34 7f
        E 112 82 34 00
        E 144 b2 0b 7f
        E 0 92 30 7f
        E 112 82 30 00
        E 16 b2 0b 7f
        E 0 92 30 7f
        E 112 82 30 00
        E 16 b2 0b 7f
        E 0 92 30 7f
        E 112 82 30 00
        E 16 b2 0b 7f
        E 0 92 30 7f
        E 496 82 30 00
        E 16 b2 0b 7f
        E 0 92 3c 7f
        E 112 82 3c 00
        E 16 b2 0b 7f
        E 0 92 3d 7f
        E 112 82 3d 00
        E 16 b2 0b 7f
        E 0 92 3c 7f
        E 112 82 3c 00
        E 16 b2 0b 7f
        E 0 92 3a 7f
        E 112 82 3a 00
        E 16 b2 0b 7f
        E 0 92 3c 7f
        E 112 82 3c 00
        E 16 b2 0b 7f
        E 0 92 3a 7f
        E 112 82 3a 00
        E 16 b2 0b 7f
        E 0 92 38 7f
        E 112 82 38 00
        E 16 b2 0b 7f
        E 0 92 37 7f
        E 112 82 37 00
        E 16 b2 0b 7f
        E 0 92 30 7f
        E 112 82 30 00
        E 16 b2 0b 7f
        E 0 92 31 7f
        E 112 82 31 00
        E 16 b2 0b 7f
        E 0 92 30 7f
        E 112 82 30 00
        E 16 b2 0b 7f
        E 0 92 2e 7f
        E 112 82 2e 00
        E 16 b2 0b 7f
        E 0 92 30 7f
        E 496 82 30 00
        E 16 b2 0b 7f
        E 0 92 29 7f
        E 112 82 29 00
        E 16 b2 0b 7f
        E 0 92 29 7f
        E 112 82 29 00
        E 400 b2 0b 7f
        E 0 92 24 7f
        E 240 82 24 00
        E 16 b2 0b 7f
        E 0 92 24 7f
        E 112 82 24 00
        E 144 b2 0b 7f
        E 0 92 29 7f
        E 112 82 29 00
        E 16 b2 0b 7f
        E 0 92 2c 7f
        E 112 82 2c 00
        E 16 b2 0b 7f
        E 0 92 30 7f
        E 112 82 30 00
        E 16 b2 0b 7f
        E 0 92 35 7f
        E 112 82 35 00
        E 16 b2 0b 7f
        E 0 92 35 7f
        E 112 82 35 00
        E 144 b2 0b 7f
        E 0 92 30 7f
        E 112 82 30 00
        E 16 b2 0b 7f
        E 0 92 2b 7f
        E 112 82 2b 00
        E 16 b2 0b 7f
        E 0 92 2b 7f
        E 112 82 2b 00
        E 400 b2 0b 7f
        E 0 92 24 7f
        E 240 82 24 00
        E 16 b2 0b 7f
        E 0 92 24 7f
        E 112 82 24 00
        E 144 b2 0b 7f
        E 0 92 2b 7f
        E 112 82 2b 00
        E 16 b2 0b 7f
        E 0 92 2e 7f
        E 112 82 2e 00
        E 16 b2 0b 7f
        E 0 92 31 7f
        E 112 82 31 00
        E 16 b2 0b 7f
        E 0 92 35 7f
        E 112 82 35 00
        E 16 b2 0b 7f
        E 0 92 33 7f
        E 112 82 33 00
        E 16 b2 0b 7f
        E 0 92 31 7f
        E 112 82 31 00
        E 16 b2 0b 7f
        E 0 92 33 7f
        E 112 82 33 00
        E 16 b2 0b 7f
        E 0 92 2b 7f
        E 112 82 2b 00
        E 16 b2 0b 7f
        E 0 92 2b 7f
        E 112 82 2b 00
        E 400 b2 0b 7f
        E 0 92 24 7f
        E 240 82 24 00
        E 16 b2 0b 7f
        E 0 92 24 7f
        E 112 82 24 00
        E 144 b2 0b 7f
        E 0 92 2b 7f
        E 112 82 2b 00
        E 16 b2 0b 7f
        E 0 92 2e 7f
        E 112 82 2e 00
        E 16 b2 0b 7f
        E 0 92 30 7f
        E 112 82 30 00
        E 16 b2 0b 7f
        E 0 92 33 7f
        E 112 82 33 00
        E 16 b2 0b 7f
        E 0 92 30 7f
        E 112 82 30 00
        E 16 b2 0b 7f
        E 0 92 33 7f
        E 112 82 33 00
        E 16 b2 0b 7f
        E 0 92 34 7f
        E 112 82 34 00
        E 192 b2 0b 7f
        E 0 92 27 7f
        E 160 82 27 00
        E 0 b2 0b 7f
        E 0 92 28 7f
        E 160 82 28 00
        E 16 b2 0b 7f
        E 0 92 29 7f
        E 160 82 29 00
        E 16 b2 0b 7f
        E 0 92 29 7f
        E 320 82 29 00
        E 16 b2 0b 7f
        E 0 92 29 7f
        E 112 82 29 00
        E 16 b2 0b 7f
        E 0 92 30 7f
        E 48 82 30 00
        E 0 b2 0b 7f
        E 0 92 2c 7f
        E 64 82 2c 00
        E 16 b2 0b 7f
        E 0 92 30 7f
        E 48 82 30 00
        E 0 b2 0b 7f
        E 0 92 2c 7f
        E 64 82 2c 00
        E 16 b2 0b 7f
        E 0 92 30 7f
        E 48 82 30 00
        E 0 b2 0b 7f
        E 0 92 2c 7f
        E 64 82 2c 00
        E 16 b2 0b 7f
        E 0 92 2c 7f
        E 112 82 2c 00
        E 16 b2 0b 7f
        E 0 92 2c 7f
        E 112 82 2c 00
        E 16 b2 0b 7f
        E 0 92 2c 7f
        E 112 82 2c 00
        E 16 b2 0b 7f
        E 0 92 2c 7f
        E 112 82 2c 00
        E 16 b2 0b 7f
        E 0 92 25 7f
        E 112 82 25 00
        E 16 b2 0b 7f
        E 0 92 25 7f
        E 112 82 25 00
        E 16 b2 0b 7f
        E 0 92 25 7f
        E 112 82 25 00
        E 16 b2 0b 7f
        E 0 92 25 7f
        E 112 82 25 00
        E 16 b2 0b 7f
        E 0 92 25 7f
        E 112 82 25 00
        E 16 b2 0b 7f
        E 0 92 25 7f
        E 112 82 25 00
        E 16 b2 0b 7f
        E 0 92 25 7f
        E 112 82 25 00
        E 16 b2 0b 7f
        E 0 92 25 7f
        E 112 82 25 00
        E 16 b2 0b 7f
        E 0 92 27 7f
        E 112 82 27 00
        E 16 b2 0b 7f
        E 0 92 27 7f
        E 112 82 27 00
        E 144 b2 0b 7f
        E 0 92 27 7f
        E 112 82 27 00
        E 144 b2 0b 7f
        E 0 92 27 7f
        E 112 82 27 00
        E 16 b2 0b 7f
        E 0 92 27 7f
        E 112 82 27 00
        E 16 b2 0b 7f
        E 0 92 27 7f
        E 112 82 27 00
        E 16 b2 0b 7f
        E 0 92 29 7f
        E 112 82 29 00
        E 16 b2 0b 7f
        E 0 92 29 7f
        E 112 82 29 00
        E 16 b2 0b 7f
        E 0 92 29 7f
        E 112 82 29 00
        E 16 b2 0b 7f
        E 0 92 29 7f
        E 112 82 29 00
        E 16 b2 0b 7f
        E 0 92 29 7f
        E 112 82 29 00
        E 16 b2 0b 7f
        E 0 92 29 7f
        E 112 82 29 00
        E 16 b2 0b 7f
        E 0 92 29 7f
        E 112 82 29 00
        E 16 b2 0b 7f
        E 0 92 29 7f
        E 112 82 29 00
        E 16 b2 0b 7f
        E 0 92 29 7f
        E 112 82 29 00
        E 16 b2 0b 7f
        E 0 92 29 7f
        E 112 82 29 00
        E 144 b2 0b 7f
        E 0 92 29 7f
        E 112 82 29 00
        E 144 b2 0b 7f
        E 0 92 29 7f
        E 112 82 29 00
        E 16 b2 0b 7f
        E 0 92 2b 7f
        E 112 82 2b 00
        E 16 b2 0b 7f
        E 0 92 2c 7f
        E 112 82 2c 00
        E 16 b2 0b 7f
        E 0 92 2e 7f
        E 112 82 2e 00
        E 16 b2 0b 7f
        E 0 92 2e 7f
        E 112 82 2e 00
        E 16 b2 0b 7f
        E 0 92 2e 7f
        E 112 82 2e 00
        E 16 b2 0b 7f
        E 0 92 2e 7f
        E 112 82 2e 00
        E 16 b2 0b 7f
        E 0 92 2e 7f
        E 112 82 2e 00
        E 16 b2 0b 7f
        E 0 92 2e 7f
        E 112 82 2e 00
        E 16 b2 0b 7f
        E 0 92 2e 7f
        E 112 82 2e 00
        E 16 b2 0b 7f
        E 0 92 2e 7f
        E 112 82 2e 00
        E 16 b2 0b 7f
        E 0 92 2b 7f
        E 112 82 2b 00
        E 16 b2 0b 7f
        E 0 92 2b 7f
        E 112 82 2b 00
        E 144 b2 0b 7f
        E 0 92 2b 7f
        E 112 82 2b 00
        E 144 b2 0b 7f
        E 0 92 29 7f
        E 112 82 29 00
        E 16 b2 0b 7f
        E 0 92 27 7f
        E 112 82 27 00
        E 16 b2 0b 7f
        E 0 92 2b 7f
        E 112 82 2b 00
        E 16 b2 0b 7f
        E 0 92 29 7f
        E 112 82 29 00
        E 16 b2 0b 7f
        E 0 92 29 7f
        E 112 82 29 00
        E 16 b2 0b 7f
        E 0 92 29 7f
        E 112 82 29 00
        E 16 b2 0b 7f
        E 0 92 29 7f
        E 112 82 29 00
        E 16 b2 0b 7f
        E 0 92 29 7f
        E 112 82 29 00
        E 16 b2 0b 7f
        E 0 92 29 7f
        E 112 82 29 00
        E 16 b2 0b 7f
        E 0 92 27 7f
        E 112 82 27 00
        E 16 b2 0b 7f
        E 0 92 28 7f
        E 112 82 28 00
        E 16 b2 0b 7f
        E 0 92 21 7f
        E 48 82 21 00
        E 16 b2 0b 7f
        E 0 92 21 7f
        E 48 82 21 00
        E 16 b2 0b 7f
        E 0 92 30 7f
        E 48 82 30 00
        E 0 b2 0b 7f
        E 0 92 2c 7f
        E 64 82 2c 00
        E 16 b2 0b 7f
        E 0 92 30 7f
        E 48 82 30 00
        E 0 b2 0b 7f
        E 0 92 2c 7f
        E 64 82 2c 00
        E 16 b2 0b 7f
        E 0 92 30 7f
        E 48 82 30 00
        E 0 b2 0b 7f
        E 0 92 2c 7f
        E 64 82 2c 00
        E 16 b2 0b 7f
        E 0 92 2c 7f
        E 112 82 2c 00
        E 16 b2 0b 7f
        E 0 92 2c 7f
        E 112 82 2c 00
        E 16 b2 0b 7f
        E 0 92 2c 7f
        E 112 82 2c 00
        E 16 b2 0b 7f
        E 0 92 2c 7f
        E 112 82 2c 00
        E 16 b2 0b 7f
        E 0 92 29 7f
        E 112 82 29 00
        E 16 b2 0b 7f
        E 0 92 29 7f
        E 112 82 29 00
        E 16 b2 0b 7f
        E 0 92 29 7f
        E 112 82 29 00
        E 16 b2 0b 7f
        E 0 92 29 7f
        E 112 82 29 00
        E 16 b2 0b 7f
        E 0 92 29 7f
        E 112 82 29 00
        E 16 b2 0b 7f
        E 0 92 29 7f
        E 112 82 29 00
        E 16 b2 0b 7f
        E 0 92 29 7f
        E 112 82 29 00
        E 16 b2 0b 7f
        E 0 92 29 7f
        E 112 82 29 00
        E 16 b2 0b 7f
        E 0 92 28 7f
        E 112 82 28 00
        E 16 b2 0b 7f
        E 0 92 28 7f
        E 112 82 28 00
        E 16 b2 0b 7f
        E 0 92 28 7f
        E 112 82 28 00
        E 16 b2 0b 7f
        E 0 92 28 7f
        E 112 82 28 00
        E 16 b2 0b 7f
        E 0 92 28 7f
        E 112 82 28 00
        E 16 b2 0b 7f
        E 0 92 28 7f
        E 112 82 28 00
        E 16 b2 0b 7f
        E 0 92 28 7f
        E 112 82 28 00
        E 16 b2 0b 7f
        E 0 92 28 7f
        E 112 82 28 00
        E 16 b2 0b 7f
        E 0 92 27 7f
        E 112 82 27 00
        E 16 b2 0b 7f
        E 0 92 27 7f
        E 112 82 27 00
        E 16 b2 0b 7f
        E 0 92 27 7f
        E 112 82 27 00
        E 16 b2 0b 7f
        E 0 92 27 7f
        E 112 82 27 00
        E 16 b2 0b 7f
        E 0 92 27 7f
        E 112 82 27 00
        E 16 b2 0b 7f
        E 0 92 27 7f
        E 112 82 27 00
        E 16 b2 0b 7f
        E 0 92 27 7f
        E 112 82 27 00
        E 16 b2 0b 7f
        E 0 92 27 7f
        E 112 82 27 00
        E 16 b2 0b 7f
        E 0 92 26 7f
        E 112 82 26 00
        E 16 b2 0b 7f
        E 0 92 26 7f
        E 112 82 26 00
        E 16 b2 0b 7f
        E 0 92 26 7f
        E 112 82 26 00
        E 16 b2 0b 7f
        E 0 92 26 7f
        E 112 82 26 00
        E 16 b2 0b 7f
        E 0 92 26 7f
        E 112 82 26 00
        E 16 b2 0b 7f
        E 0 92 26 7f
        E 112 82 26 00
        E 16 b2 0b 7f
        E 0 92 26 7f
        E 112 82 26 00
        E 16 b2 0b 7f
        E 0 92 26 7f
        E 112 82 26 00
        E 16 b2 0b 7f
        E 0 92 25 7f
        E 112 82 25 00
        E 16 b2 0b 7f
        E 0 92 25 7f
        E 112 82 25 00
        E 16 b2 0b 7f
        E 0 92 25 7f
        E 112 82 25 00
        E 16 b2 0b 7f
        E 0 92 25 7f
        E 112 82 25 00
        E 16 b2 0b 7f
        E 0 92 25 7f
        E 112 82 25 00
        E 16 b2 0b 7f
        E 0 92 25 7f
        E 112 82 25 00
        E 16 b2 0b 7f
        E 0 92 25 7f
        E 112 82 25 00
        E 16 b2 0b 7f
        E 0 92 25 7f
        E 112 82 25 00
        E 16 b2 0b 7f
        E 0 92 23 7f
        E 112 82 23 00
        E 16 b2 0b 7f
        E 0 92 23 7f
        E 112 82 23 00
        E 16 b2 0b 7f
        E 0 92 23 7f
        E 112 82 23 00
        E 16 b2 0b 7f
        E 0 92 23 7f
        E 112 82 23 00
        E 16 b2 0b 7f
        E 0 92 23 7f
        E 112 82 23 00
        E 16 b2 0b 7f
        E 0 92 23 7f
        E 112 82 23 00
        E 16 b2 0b 7f
        E 0 92 23 7f
        E 112 82 23 00
        E 16 b2 0b 7f
        E 0 92 23 7f
        E 112 82 23 00
        E 16 b2 0b 7f
        E 0 92 24 7f
        E 112 82 24 00
        E 16 b2 0b 7f
        E 0 92 24 7f
        E 112 82 24 00
        E 16 b2 0b 7f
        E 0 92 24 7f
        E 112 82 24 00
        E 16 b2 0b 7f
        E 0 92 24 7f
        E 112 82 24 00
        E 16 b2 0b 7f
        E 0 92 24 7f
        E 112 82 24 00
        E 16 b2 0b 7f
        E 0 92 24 7f
        E 112 82 24 00
        E 16 b2 0b 7f
        E 0 92 24 7f
        E 112 82 24 00
        E 16 b2 0b 7f
        E 0 92 24 7f
        E 112 82 24 00
        E 16 b2 0b 7f
        E 0 92 28 7f
        E 112 82 28 00
        E 16 b2 0b 7f
        E 0 92 28 7f
        E 112 82 28 00
        E 16 b2 0b 7f
        E 0 92 28 7f
        E 112 82 28 00
        E 16 b2 0b 7f
        E 0 92 28 7f
        E 112 82 28 00
        E 16 b2 0b 7f
        E 0 92 2b 7f
        E 112 82 2b 00
        E 16 b2 0b 7f
        E 0 92 2b 7f
        E 112 82 2b 00
        E 16 b2 0b 7f
        E 0 92 30 7f
        E 112 82 30 00
        E 16 b2 0b 7f
        E 0 92 30 7f
        E 112 82 30 00
        E 16 b2 0b 7f
        E 0 92 29 7f
        E 112 82 29 00
        E 16 b2 0b 7f
        E 0 92 29 7f
        E 112 82 29 00
        E 16 b2 0b 7f
        E 0 92 29 7f
        E 112 82 29 00
        E 16 b2 0b 7f
        E 0 92 29 7f
        E 112 82 29 00
        E 16 b2 0b 7f
        E 0 92 29 7f
        E 112 82 29 00
        E 16 b2 0b 7f
        E 0 92 29 7f
        E 112 82 29 00
        E 16 b2 0b 7f
        E 0 92 29 7f
        E 112 82 29 00
        E 16 b2 0b 7f
        E 0 92 29 7f
        E 112 82 29 00
        E 16 b2 0b 7f
        E 0 92 2b 7f
        E 112 82 2b 00
        E 16 b2 0b 7f
        E 0 92 2b 7f
        E 112 82 2b 00
        E 16 b2 0b 7f
        E 0 92 2b 7f
        E 112 82 2b 00
        E 16 b2 0b 7f
        E 0 92 2b 7f
        E 112 82 2b 00
        E 16 b2 0b 7f
        E 0 92 2b 7f
        E 112 82 2b 00
        E 16 b2 0b 7f
        E 0 92 2b 7f
        E 112 82 2b 00
        E 16 b2 0b 7f
        E 0 92 2b 7f
        E 112 82 2b 00
        E 16 b2 0b 7f
        E 0 92 2b 7f
        E 112 82 2b 00
        E 16 b2 0b 7f
        E 0 92 2c 7f
        E 112 82 2c 00
        E 16 b2 0b 7f
        E 0 92 2c 7f
        E 112 82 2c 00
        E 16 b2 0b 7f
        E 0 92 2c 7f
        E 112 82 2c 00
        E 16 b2 0b 7f
        E 0 92 2c 7f
        E 112 82 2c 00
        E 16 b2 0b 7f
        E 0 92 2c 7f
        E 112 82 2c 00
        E 16 b2 0b 7f
        E 0 92 2c 7f
        E 112 82 2c 00
        E 16 b2 0b 7f
        E 0 92 2c 7f
        E 112 82 2c 00
        E 16 b2 0b 7f
        E 0 92 2c 7f
        E 112 82 2c 00
        E 16 b2 0b 7f
        E 0 92 2e 7f
        E 112 82 2e 00
        E 16 b2 0b 7f
        E 0 92 2e 7f
        E 112 82 2e 00
        E 16 b2 0b 7f
        E 0 92 2e 7f
        E 112 82 2e 00
        E 16 b2 0b 7f
        E 0 92 2e 7f
        E 112 82 2e 00
        E 16 b2 0b 7f
        E 0 92 2e 7f
        E 112 82 2e 00
        E 16 b2 0b 7f
        E 0 92 2e 7f
        E 112 82 2e 00
        E 16 b2 0b 7f
        E 0 92 2e 7f
        E 112 82 2e 00
        E 16 b2 0b 7f
        E 0 92 2e 7f
        E 112 82 2e 00
        E 16 b2 0b 7f
        E 0 92 2f 7f
        E 112 82 2f 00
        E 16 b2 0b 7f
        E 0 92 2f 7f
        E 112 82 2f 00
        E 16 b2 0b 7f
        E 0 92 2f 7f
        E 112 82 2f 00
        E 16 b2 0b 7f
        E 0 92 2f 7f
        E 112 82 2f 00
        E 16 b2 0b 7f
        E 0 92 2f 7f
        E 112 82 2f 00
        E 16 b2 0b 7f
        E 0 92 2f 7f
        E 112 82 2f 00
        E 16 b2 0b 7f
        E 0 92 2f 7f
        E 112 82 2f 00
        E 16 b2 0b 7f
        E 0 92 2f 7f
        E 112 82 2f 00
        E 16 b2 0b 7f
        E 0 92 30 7f
        E 112 82 30 00
        E 16 b2 0b 7f
        E 0 92 30 7f
        E 112 82 30 00
        E 16 b2 0b 7f
        E 0 92 30 7f
        E 112 82 30 00
        E 16 b2 0b 7f
        E 0 92 30 7f
        E 112 82 30 00
        E 16 b2 0b 7f
        E 0 92 30 7f
        E 112 82 30 00
        E 16 b2 0b 7f
        E 0 92 30 7f
        E 112 82 30 00
        E 16 b2 0b 7f
        E 0 92 30 7f
        E 112 82 30 00
        E 16 b2 0b 7f
        E 0 92 30 7f
        E 112 82 30 00
        E 16 b2 0b 7f
        E 0 92 29 7f
        E 112 82 29 00
        E 16 b2 0b 7f
        E 0 92 29 7f
        E 112 82 29 00
        E 16 b2 0b 7f
        E 0 92 29 7f
        E 112 82 29 00
        E 16 b2 0b 7f
        E 0 92 29 7f
        E 112 82 29 00
        E 16 b2 0b 7f
        E 0 92 29 7f
        E 112 82 29 00
        E 16 b2 0b 7f
        E 0 92 29 7f
        E 112 82 29 00
        E 16 b2 0b 7f
        E 0 92 29 7f
        E 112 82 29 00
        E 16 b2 0b 7f
        E 0 92 29 7f
        E 112 82 29 00
        E 16 b2 0b 7f
        E 0 92 29 7f
        E 112 82 29 00
        E 16 b2 0b 7f
        E 0 92 29 7f
        E 112 82 29 00
        E 16 b2 0b 7f
        E 0 92 29 7f
        E 112 82 29 00
        E 16 b2 0b 7f
        E 0 92 29 7f
        E 112 82 29 00
        E 16 b2 0b 7f
        E 0 92 29 7f
        E 112 82 29 00
        E 16 b2 0b 7f
        E 0 92 29 7f
        E 112 82 29 00
        E 16 b2 0b 7f
        E 0 92 29 7f
        E 112 82 29 00
        E 16 b2 0b 7f
        E 0 92 27 7f
        E 32 82 27 00
        E 0 b2 7b 00
        E 0 ff 2f 00
      >
    >
  >
  <TRACK {EA187383-435A-494C-A663-C8BDDA52CBAF}
    NAME "NES - Noise / Drums [ch3]"
    PEAKCOL 11184810
    BEAT -1
    AUTOMODE 0
    PANLAWFLAGS 3
    VOLPAN 1 0 -1 -1 1
    MUTESOLO 0 0 0
    IPHASE 0
    PLAYOFFS 0 1
    ISBUS 0 0
    BUSCOMP 0 0 0 0 0
    SHOWINMIX 1 0.6667 0.5 1 0.5 0 0 0
    FIXEDLANES 9 0 0 0 0
    SEL 0
    REC 0 5088 1 0 0 0 0 0
    VU 2
    TRACKHEIGHT 0 0 0 0 0 0 0
    INQ 0 0 0 0.5 100 0 0 100
    NCHAN 2
    FX 1
    TRACKID {EA187383-435A-494C-A663-C8BDDA52CBAF}
    PERF 0
    MIDIOUT -1
    MAINSEND 1 0
    <FXCHAIN
      WNDRECT 24 52 700 560
      SHOW 0
      LASTSEL 0
      DOCKED 0
      BYPASS 0 0 0
      <JS "ReapNES Studio/ReapNES_Console.jsfx" ""
        2 15 1 10 80 10 100 2 1 15 1 5 60 10 80 1 1 0 50 0 0 15 1 0 100 0 0 0.500000 0.500000 0.400000 0.300000 0.800000 3 1 0 0 0 0 - - - - - - - - - - - - - - - - - - - - - - - - - -
      >
      FLOATPOS 0 0 0 0
      FXID {1805DFEF-E09F-4843-944C-DF494F99BB14}
      WAK 0 0
    >
    <ITEM
      POSITION 0
      LENGTH 74.6189758
      LOOP 0
      ALLTAKES 0
      FADEIN 0 0 0 0 0 0 0
      FADEOUT 0 0 0 0 0 0 0
      MUTE 0 0
      SEL 0
      IGUID {EF894E37-9F77-425D-98C0-877DDFF7DC6B}
      <SOURCE MIDI
        HASDATA 1 480 QN
        CCINTERP 32
        E 0 93 2a 3b
        E 880 83 2a 00
        E 1232 93 2a 6e
        E 192 83 2a 00
        E 0 93 2a 6e
        E 1648 83 2a 00
        E 1232 93 2a 6e
        E 192 83 2a 00
        E 0 93 2a 6e
        E 1648 83 2a 00
        E 1232 93 2a 6e
        E 192 83 2a 00
        E 0 93 2a 6e
        E 1344 83 2a 00
        E 0 93 2a 6e
        E 192 83 2a 00
        E 0 93 2a 6e
        E 1472 83 2a 00
        E 0 93 2a 66
        E 16 83 2a 00
        E 0 93 2a 66
        E 16 83 2a 00
        E 0 93 2a 22
        E 16 83 2a 00
        E 0 93 2a 22
        E 16 83 2a 00
        E 0 93 2a 22
        E 16 83 2a 00
        E 48 93 2a 66
        E 16 83 2a 00
        E 0 93 2a 66
        E 16 83 2a 00
        E 0 93 2a 22
        E 16 83 2a 00
        E 0 93 2a 22
        E 16 83 2a 00
        E 0 93 2a 22
        E 16 83 2a 00
        E 48 93 2a 66
        E 16 83 2a 00
        E 0 93 2a 66
        E 16 83 2a 00
        E 0 93 2a 22
        E 16 83 2a 00
        E 0 93 2a 22
        E 16 83 2a 00
        E 0 93 2a 22
        E 16 83 2a 00
        E 48 93 2a 66
        E 16 83 2a 00
        E 0 93 2a 66
        E 16 83 2a 00
        E 0 93 2a 22
        E 16 83 2a 00
        E 0 93 2a 22
        E 16 83 2a 00
        E 0 93 2a 22
        E 16 83 2a 00
        E 48 93 2a 66
        E 16 83 2a 00
        E 0 93 2a 66
        E 16 83 2a 00
        E 0 93 2a 22
        E 16 83 2a 00
        E 0 93 2a 22
        E 16 83 2a 00
        E 0 93 2a 22
        E 16 83 2a 00
        E 48 93 2a 66
        E 16 83 2a 00
        E 0 93 2a 66
        E 16 83 2a 00
        E 0 93 2a 22
        E 16 83 2a 00
        E 0 93 2a 22
        E 16 83 2a 00
        E 0 93 2a 22
        E 16 83 2a 00
        E 48 93 2a 66
        E 16 83 2a 00
        E 0 93 2a 66
        E 16 83 2a 00
        E 0 93 2a 22
        E 16 83 2a 00
        E 0 93 2a 22
        E 16 83 2a 00
        E 0 93 2a 22
        E 16 83 2a 00
        E 48 93 2a 66
        E 16 83 2a 00
        E 0 93 2a 66
        E 16 83 2a 00
        E 0 93 2a 22
        E 16 83 2a 00
        E 0 93 2a 22
        E 16 83 2a 00
        E 0 93 2a 22
        E 16 83 2a 00
        E 48 93 2a 66
        E 16 83 2a 00
        E 0 93 2a 66
        E 16 83 2a 00
        E 0 93 2a 22
        E 16 83 2a 00
        E 0 93 2a 22
        E 16 83 2a 00
        E 0 93 2a 22
        E 16 83 2a 00
        E 48 93 2a 66
        E 16 83 2a 00
        E 0 93 2a 66
        E 16 83 2a 00
        E 0 93 2a 22
        E 16 83 2a 00
        E 0 93 2a 22
        E 16 83 2a 00
        E 0 93 2a 22
        E 16 83 2a 00
        E 48 93 2a 66
        E 16 83 2a 00
        E 0 93 2a 66
        E 16 83 2a 00
        E 0 93 2a 22
        E 16 83 2a 00
        E 0 93 2a 22
        E 16 83 2a 00
        E 0 93 2a 22
        E 16 83 2a 00
        E 48 93 2a 66
        E 16 83 2a 00
        E 0 93 2a 66
        E 16 83 2a 00
        E 0 93 2a 22
        E 16 83 2a 00
        E 0 93 2a 22
        E 16 83 2a 00
        E 0 93 2a 22
        E 16 83 2a 00
        E 176 93 2a 66
        E 16 83 2a 00
        E 0 93 2a 66
        E 16 83 2a 00
        E 0 93 2a 22
        E 16 83 2a 00
        E 0 93 2a 22
        E 16 83 2a 00
        E 0 93 2a 22
        E 16 83 2a 00
        E 176 93 2a 55
        E 16 83 2a 00
        E 0 93 2a 2a
        E 16 83 2a 00
        E 1504 93 2a 55
        E 16 83 2a 00
        E 0 93 2a 2a
        E 16 83 2a 00
        E 224 93 2a 55
        E 16 83 2a 00
        E 0 93 2a 2a
        E 16 83 2a 00
        E 224 93 2a 55
        E 16 83 2a 00
        E 0 93 2a 2a
        E 16 83 2a 00
        E 1248 93 2a 55
        E 16 83 2a 00
        E 0 93 2a 2a
        E 16 83 2a 00
        E 224 93 2a 55
        E 16 83 2a 00
        E 0 93 2a 2a
        E 16 83 2a 00
        E 224 93 2a 55
        E 16 83 2a 00
        E 0 93 2a 2a
        E 16 83 2a 00
        E 224 93 2a 5d
        E 16 83 2a 00
        E 0 93 2a 3b
        E 16 83 2a 00
        E 0 93 2a 19
        E 16 83 2a 00
        E 80 93 2a 5d
        E 16 83 2a 00
        E 0 93 2a 3b
        E 16 83 2a 00
        E 0 93 2a 19
        E 16 83 2a 00
        E 80 93 2a 5d
        E 16 83 2a 00
        E 0 93 2a 3b
        E 16 83 2a 00
        E 0 93 2a 19
        E 16 83 2a 00
        E 208 93 2a 5d
        E 16 83 2a 00
        E 0 93 2a 3b
        E 16 83 2a 00
        E 0 93 2a 19
        E 16 83 2a 00
        E 80 93 2a 5d
        E 16 83 2a 00
        E 0 93 2a 3b
        E 16 83 2a 00
        E 0 93 2a 19
        E 16 83 2a 00
        E 80 93 2a 5d
        E 16 83 2a 00
        E 0 93 2a 3b
        E 16 83 2a 00
        E 0 93 2a 19
        E 16 83 2a 00
        E 208 93 2a 5d
        E 16 83 2a 00
        E 0 93 2a 3b
        E 16 83 2a 00
        E 0 93 2a 19
        E 16 83 2a 00
        E 80 93 2a 5d
        E 16 83 2a 00
        E 0 93 2a 3b
        E 16 83 2a 00
        E 0 93 2a 19
        E 16 83 2a 00
        E 80 93 2a 5d
        E 16 83 2a 00
        E 0 93 2a 3b
        E 16 83 2a 00
        E 0 93 2a 19
        E 16 83 2a 00
        E 208 93 2a 5d
        E 16 83 2a 00
        E 0 93 2a 3b
        E 16 83 2a 00
        E 0 93 2a 19
        E 16 83 2a 00
        E 208 93 2a 5d
        E 16 83 2a 00
        E 0 93 2a 3b
        E 16 83 2a 00
        E 0 93 2a 19
        E 16 83 2a 00
        E 208 93 2a 5d
        E 16 83 2a 00
        E 0 93 2a 3b
        E 16 83 2a 00
        E 0 93 2a 19
        E 16 83 2a 00
        E 80 93 2a 5d
        E 16 83 2a 00
        E 0 93 2a 3b
        E 16 83 2a 00
        E 0 93 2a 19
        E 16 83 2a 00
        E 80 93 2a 5d
        E 16 83 2a 00
        E 0 93 2a 3b
        E 16 83 2a 00
        E 0 93 2a 19
        E 16 83 2a 00
        E 208 93 2a 5d
        E 16 83 2a 00
        E 0 93 2a 3b
        E 16 83 2a 00
        E 0 93 2a 19
        E 16 83 2a 00
        E 80 93 2a 5d
        E 16 83 2a 00
        E 0 93 2a 3b
        E 16 83 2a 00
        E 0 93 2a 19
        E 16 83 2a 00
        E 80 93 2a 5d
        E 16 83 2a 00
        E 0 93 2a 3b
        E 16 83 2a 00
        E 0 93 2a 19
        E 16 83 2a 00
        E 208 93 2a 5d
        E 16 83 2a 00
        E 0 93 2a 3b
        E 16 83 2a 00
        E 0 93 2a 19
        E 16 83 2a 00
        E 80 93 2a 5d
        E 16 83 2a 00
        E 0 93 2a 3b
        E 16 83 2a 00
        E 0 93 2a 19
        E 16 83 2a 00
        E 80 93 2a 5d
        E 16 83 2a 00
        E 0 93 2a 3b
        E 16 83 2a 00
        E 0 93 2a 19
        E 16 83 2a 00
        E 208 93 2a 5d
        E 16 83 2a 00
        E 0 93 2a 3b
        E 16 83 2a 00
        E 0 93 2a 19
        E 16 83 2a 00
        E 208 93 2a 5d
        E 16 83 2a 00
        E 0 93 2a 3b
        E 16 83 2a 00
        E 0 93 2a 19
        E 16 83 2a 00
        E 208 93 2a 5d
        E 16 83 2a 00
        E 0 93 2a 3b
        E 16 83 2a 00
        E 0 93 2a 19
        E 16 83 2a 00
        E 80 93 2a 5d
        E 16 83 2a 00
        E 0 93 2a 3b
        E 16 83 2a 00
        E 0 93 2a 19
        E 16 83 2a 00
        E 80 93 2a 5d
        E 16 83 2a 00
        E 0 93 2a 3b
        E 16 83 2a 00
        E 0 93 2a 19
        E 16 83 2a 00
        E 208 93 2a 5d
        E 16 83 2a 00
        E 0 93 2a 3b
        E 16 83 2a 00
        E 0 93 2a 19
        E 16 83 2a 00
        E 80 93 2a 5d
        E 16 83 2a 00
        E 0 93 2a 3b
        E 16 83 2a 00
        E 0 93 2a 19
        E 16 83 2a 00
        E 80 93 2a 5d
        E 16 83 2a 00
        E 0 93 2a 3b
        E 16 83 2a 00
        E 0 93 2a 19
        E 16 83 2a 00
        E 208 93 2a 5d
        E 16 83 2a 00
        E 0 93 2a 3b
        E 16 83 2a 00
        E 0 93 2a 19
        E 16 83 2a 00
        E 80 93 2a 5d
        E 16 83 2a 00
        E 0 93 2a 3b
        E 16 83 2a 00
        E 0 93 2a 19
        E 16 83 2a 00
        E 80 93 2a 5d
        E 16 83 2a 00
        E 0 93 2a 3b
        E 16 83 2a 00
        E 0 93 2a 19
        E 16 83 2a 00
        E 208 93 2a 5d
        E 16 83 2a 00
        E 0 93 2a 3b
        E 16 83 2a 00
        E 0 93 2a 19
        E 16 83 2a 00
        E 80 93 2a 5d
        E 16 83 2a 00
        E 0 93 2a 3b
        E 16 83 2a 00
        E 0 93 2a 19
        E 16 83 2a 00
        E 80 93 2a 5d
        E 16 83 2a 00
        E 0 93 2a 3b
        E 16 83 2a 00
        E 0 93 2a 19
        E 16 83 2a 00
        E 208 93 2a 5d
        E 16 83 2a 00
        E 0 93 2a 3b
        E 16 83 2a 00
        E 0 93 2a 19
        E 16 83 2a 00
        E 80 93 2a 5d
        E 16 83 2a 00
        E 0 93 2a 3b
        E 16 83 2a 00
        E 0 93 2a 19
        E 16 83 2a 00
        E 80 93 2a 5d
        E 16 83 2a 00
        E 0 93 2a 3b
        E 16 83 2a 00
        E 0 93 2a 19
        E 16 83 2a 00
        E 208 93 2a 5d
        E 16 83 2a 00
        E 0 93 2a 3b
        E 16 83 2a 00
        E 0 93 2a 19
        E 16 83 2a 00
        E 80 93 2a 5d
        E 16 83 2a 00
        E 0 93 2a 3b
        E 16 83 2a 00
        E 0 93 2a 19
        E 16 83 2a 00
        E 80 93 2a 5d
        E 16 83 2a 00
        E 0 93 2a 3b
        E 16 83 2a 00
        E 0 93 2a 19
        E 16 83 2a 00
        E 208 93 2a 5d
        E 16 83 2a 00
        E 0 93 2a 3b
        E 16 83 2a 00
        E 0 93 2a 19
        E 16 83 2a 00
        E 80 93 2a 5d
        E 16 83 2a 00
        E 0 93 2a 3b
        E 16 83 2a 00
        E 0 93 2a 19
        E 16 83 2a 00
        E 80 93 2a 5d
        E 16 83 2a 00
        E 0 93 2a 3b
        E 16 83 2a 00
        E 0 93 2a 19
        E 16 83 2a 00
        E 208 93 2a 5d
        E 16 83 2a 00
        E 0 93 2a 3b
        E 16 83 2a 00
        E 0 93 2a 19
        E 16 83 2a 00
        E 80 93 2a 5d
        E 16 83 2a 00
        E 0 93 2a 3b
        E 16 83 2a 00
        E 0 93 2a 19
        E 16 83 2a 00
        E 80 93 2a 5d
        E 16 83 2a 00
        E 0 93 2a 3b
        E 16 83 2a 00
        E 0 93 2a 19
        E 16 83 2a 00
        E 208 93 2a 5d
        E 16 83 2a 00
        E 0 93 2a 3b
        E 16 83 2a 00
        E 0 93 2a 19
        E 16 83 2a 00
        E 80 93 2a 5d
        E 16 83 2a 00
        E 0 93 2a 3b
        E 16 83 2a 00
        E 0 93 2a 19
        E 16 83 2a 00
        E 80 93 2a 5d
        E 16 83 2a 00
        E 0 93 2a 3b
        E 16 83 2a 00
        E 0 93 2a 19
        E 16 83 2a 00
        E 208 93 2a 5d
        E 16 83 2a 00
        E 0 93 2a 3b
        E 16 83 2a 00
        E 0 93 2a 19
        E 16 83 2a 00
        E 80 93 2a 5d
        E 16 83 2a 00
        E 0 93 2a 3b
        E 16 83 2a 00
        E 0 93 2a 19
        E 16 83 2a 00
        E 80 93 2a 5d
        E 16 83 2a 00
        E 0 93 2a 3b
        E 16 83 2a 00
        E 0 93 2a 19
        E 16 83 2a 00
        E 208 93 2a 5d
        E 16 83 2a 00
        E 0 93 2a 3b
        E 16 83 2a 00
        E 0 93 2a 19
        E 16 83 2a 00
        E 80 93 2a 5d
        E 16 83 2a 00
        E 0 93 2a 3b
        E 16 83 2a 00
        E 0 93 2a 19
        E 16 83 2a 00
        E 80 93 2a 5d
        E 16 83 2a 00
        E 0 93 2a 3b
        E 16 83 2a 00
        E 0 93 2a 19
        E 16 83 2a 00
        E 208 93 2a 5d
        E 16 83 2a 00
        E 0 93 2a 3b
        E 16 83 2a 00
        E 0 93 2a 19
        E 16 83 2a 00
        E 80 93 2a 5d
        E 16 83 2a 00
        E 0 93 2a 3b
        E 16 83 2a 00
        E 0 93 2a 19
        E 16 83 2a 00
        E 80 93 2a 5d
        E 16 83 2a 00
        E 0 93 2a 3b
        E 16 83 2a 00
        E 0 93 2a 19
        E 16 83 2a 00
        E 208 93 2a 5d
        E 16 83 2a 00
        E 0 93 2a 3b
        E 16 83 2a 00
        E 0 93 2a 19
        E 16 83 2a 00
        E 80 93 2a 5d
        E 16 83 2a 00
        E 0 93 2a 3b
        E 16 83 2a 00
        E 0 93 2a 19
        E 16 83 2a 00
        E 80 93 2a 5d
        E 16 83 2a 00
        E 0 93 2a 3b
        E 16 83 2a 00
        E 0 93 2a 19
        E 16 83 2a 00
        E 208 93 2a 5d
        E 16 83 2a 00
        E 0 93 2a 3b
        E 16 83 2a 00
        E 0 93 2a 19
        E 16 83 2a 00
        E 80 93 2a 5d
        E 16 83 2a 00
        E 0 93 2a 3b
        E 16 83 2a 00
        E 0 93 2a 19
        E 16 83 2a 00
        E 80 93 2a 5d
        E 16 83 2a 00
        E 0 93 2a 3b
        E 16 83 2a 00
        E 0 93 2a 19
        E 16 83 2a 00
        E 208 93 2a 5d
        E 16 83 2a 00
        E 0 93 2a 3b
        E 16 83 2a 00
        E 0 93 2a 19
        E 16 83 2a 00
        E 80 93 2a 5d
        E 16 83 2a 00
        E 0 93 2a 3b
        E 16 83 2a 00
        E 0 93 2a 19
        E 16 83 2a 00
        E 80 93 2a 5d
        E 16 83 2a 00
        E 0 93 2a 3b
        E 16 83 2a 00
        E 0 93 2a 19
        E 16 83 2a 00
        E 208 93 2a 5d
        E 16 83 2a 00
        E 0 93 2a 3b
        E 16 83 2a 00
        E 0 93 2a 19
        E 16 83 2a 00
        E 80 93 2a 5d
        E 16 83 2a 00
        E 0 93 2a 3b
        E 16 83 2a 00
        E 0 93 2a 19
        E 16 83 2a 00
        E 80 93 2a 5d
        E 16 83 2a 00
        E 0 93 2a 3b
        E 16 83 2a 00
        E 0 93 2a 19
        E 16 83 2a 00
        E 208 93 2a 5d
        E 16 83 2a 00
        E 0 93 2a 3b
        E 16 83 2a 00
        E 0 93 2a 19
        E 16 83 2a 00
        E 80 93 2a 5d
        E 16 83 2a 00
        E 0 93 2a 3b
        E 16 83 2a 00
        E 0 93 2a 19
        E 16 83 2a 00
        E 80 93 2a 5d
        E 16 83 2a 00
        E 0 93 2a 3b
        E 16 83 2a 00
        E 0 93 2a 19
        E 16 83 2a 00
        E 208 93 2a 5d
        E 16 83 2a 00
        E 0 93 2a 3b
        E 16 83 2a 00
        E 0 93 2a 19
        E 16 83 2a 00
        E 80 93 2a 5d
        E 16 83 2a 00
        E 0 93 2a 3b
        E 16 83 2a 00
        E 0 93 2a 19
        E 16 83 2a 00
        E 80 93 2a 5d
        E 16 83 2a 00
        E 0 93 2a 3b
        E 16 83 2a 00
        E 0 93 2a 19
        E 16 83 2a 00
        E 208 93 2a 5d
        E 16 83 2a 00
        E 0 93 2a 3b
        E 16 83 2a 00
        E 0 93 2a 19
        E 16 83 2a 00
        E 80 93 2a 5d
        E 16 83 2a 00
        E 0 93 2a 3b
        E 16 83 2a 00
        E 0 93 2a 19
        E 16 83 2a 00
        E 80 93 2a 5d
        E 16 83 2a 00
        E 0 93 2a 3b
        E 16 83 2a 00
        E 0 93 2a 19
        E 16 83 2a 00
        E 208 93 2a 5d
        E 16 83 2a 00
        E 0 93 2a 3b
        E 16 83 2a 00
        E 0 93 2a 19
        E 16 83 2a 00
        E 80 93 2a 5d
        E 16 83 2a 00
        E 0 93 2a 3b
        E 16 83 2a 00
        E 0 93 2a 19
        E 16 83 2a 00
        E 80 93 2a 5d
        E 16 83 2a 00
        E 0 93 2a 3b
        E 16 83 2a 00
        E 0 93 2a 19
        E 16 83 2a 00
        E 208 93 2a 5d
        E 16 83 2a 00
        E 0 93 2a 3b
        E 16 83 2a 00
        E 0 93 2a 19
        E 16 83 2a 00
        E 80 93 2a 5d
        E 16 83 2a 00
        E 0 93 2a 3b
        E 16 83 2a 00
        E 0 93 2a 19
        E 16 83 2a 00
        E 80 93 2a 5d
        E 16 83 2a 00
        E 0 93 2a 3b
        E 16 83 2a 00
        E 0 93 2a 19
        E 16 83 2a 00
        E 208 93 2a 5d
        E 16 83 2a 00
        E 0 93 2a 3b
        E 16 83 2a 00
        E 0 93 2a 19
        E 16 83 2a 00
        E 80 93 2a 5d
        E 16 83 2a 00
        E 0 93 2a 3b
        E 16 83 2a 00
        E 0 93 2a 19
        E 16 83 2a 00
        E 80 93 2a 5d
        E 16 83 2a 00
        E 0 93 2a 3b
        E 16 83 2a 00
        E 0 93 2a 19
        E 16 83 2a 00
        E 208 93 2a 5d
        E 16 83 2a 00
        E 0 93 2a 3b
        E 16 83 2a 00
        E 0 93 2a 19
        E 32 83 2a 00
        E 0 93 2a 5d
        E 16 83 2a 00
        E 0 93 2a 3b
        E 16 83 2a 00
        E 0 93 2a 19
        E 32 83 2a 00
        E 0 93 2a 5d
        E 16 83 2a 00
        E 0 93 2a 3b
        E 16 83 2a 00
        E 0 93 2a 19
        E 16 83 2a 00
        E 80 93 2a 5d
        E 16 83 2a 00
        E 0 93 2a 3b
        E 16 83 2a 00
        E 0 93 2a 19
        E 16 83 2a 00
        E 80 93 2a 5d
        E 16 83 2a 00
        E 0 93 2a 3b
        E 16 83 2a 00
        E 0 93 2a 19
        E 16 83 2a 00
        E 80 93 2a 5d
        E 16 83 2a 00
        E 0 93 2a 3b
        E 16 83 2a 00
        E 0 93 2a 19
        E 16 83 2a 00
        E 80 93 2a 5d
        E 16 83 2a 00
        E 0 93 2a 3b
        E 16 83 2a 00
        E 0 93 2a 19
        E 16 83 2a 00
        E 80 93 2a 5d
        E 16 83 2a 00
        E 0 93 2a 3b
        E 16 83 2a 00
        E 0 93 2a 19
        E 16 83 2a 00
        E 208 93 2a 5d
        E 16 83 2a 00
        E 0 93 2a 3b
        E 16 83 2a 00
        E 0 93 2a 19
        E 16 83 2a 00
        E 80 93 2a 5d
        E 16 83 2a 00
        E 0 93 2a 3b
        E 16 83 2a 00
        E 0 93 2a 19
        E 16 83 2a 00
        E 80 93 2a 5d
        E 16 83 2a 00
        E 0 93 2a 3b
        E 16 83 2a 00
        E 0 93 2a 19
        E 16 83 2a 00
        E 208 93 2a 5d
        E 16 83 2a 00
        E 0 93 2a 3b
        E 16 83 2a 00
        E 0 93 2a 19
        E 16 83 2a 00
        E 80 93 2a 5d
        E 16 83 2a 00
        E 0 93 2a 3b
        E 16 83 2a 00
        E 0 93 2a 19
        E 16 83 2a 00
        E 80 93 2a 5d
        E 16 83 2a 00
        E 0 93 2a 3b
        E 16 83 2a 00
        E 0 93 2a 19
        E 16 83 2a 00
        E 208 93 2a 5d
        E 16 83 2a 00
        E 0 93 2a 3b
        E 16 83 2a 00
        E 0 93 2a 19
        E 16 83 2a 00
        E 80 93 2a 5d
        E 16 83 2a 00
        E 0 93 2a 3b
        E 16 83 2a 00
        E 0 93 2a 19
        E 16 83 2a 00
        E 80 93 2a 5d
        E 16 83 2a 00
        E 0 93 2a 3b
        E 16 83 2a 00
        E 0 93 2a 19
        E 16 83 2a 00
        E 208 93 2a 5d
        E 16 83 2a 00
        E 0 93 2a 3b
        E 16 83 2a 00
        E 0 93 2a 19
        E 16 83 2a 00
        E 80 93 2a 5d
        E 16 83 2a 00
        E 0 93 2a 3b
        E 16 83 2a 00
        E 0 93 2a 19
        E 16 83 2a 00
        E 80 93 2a 5d
        E 16 83 2a 00
        E 0 93 2a 3b
        E 16 83 2a 00
        E 0 93 2a 19
        E 16 83 2a 00
        E 208 93 2a 5d
        E 16 83 2a 00
        E 0 93 2a 3b
        E 16 83 2a 00
        E 0 93 2a 19
        E 16 83 2a 00
        E 80 93 2a 5d
        E 16 83 2a 00
        E 0 93 2a 3b
        E 16 83 2a 00
        E 0 93 2a 19
        E 16 83 2a 00
        E 80 93 2a 5d
        E 16 83 2a 00
        E 0 93 2a 3b
        E 16 83 2a 00
        E 0 93 2a 19
        E 16 83 2a 00
        E 208 93 2a 5d
        E 16 83 2a 00
        E 0 93 2a 3b
        E 16 83 2a 00
        E 0 93 2a 19
        E 16 83 2a 00
        E 80 93 2a 5d
        E 16 83 2a 00
        E 0 93 2a 3b
        E 16 83 2a 00
        E 0 93 2a 19
        E 16 83 2a 00
        E 80 93 2a 5d
        E 16 83 2a 00
        E 0 93 2a 3b
        E 16 83 2a 00
        E 0 93 2a 19
        E 16 83 2a 00
        E 208 93 2a 5d
        E 16 83 2a 00
        E 0 93 2a 3b
        E 16 83 2a 00
        E 0 93 2a 19
        E 16 83 2a 00
        E 80 93 2a 5d
        E 16 83 2a 00
        E 0 93 2a 3b
        E 16 83 2a 00
        E 0 93 2a 19
        E 16 83 2a 00
        E 80 93 2a 5d
        E 16 83 2a 00
        E 0 93 2a 3b
        E 16 83 2a 00
        E 0 93 2a 19
        E 16 83 2a 00
        E 208 93 2a 5d
        E 16 83 2a 00
        E 0 93 2a 3b
        E 16 83 2a 00
        E 0 93 2a 19
        E 16 83 2a 00
        E 80 93 2a 5d
        E 16 83 2a 00
        E 0 93 2a 3b
        E 16 83 2a 00
        E 0 93 2a 19
        E 16 83 2a 00
        E 80 93 2a 5d
        E 16 83 2a 00
        E 0 93 2a 3b
        E 16 83 2a 00
        E 0 93 2a 19
        E 16 83 2a 00
        E 208 93 2a 5d
        E 16 83 2a 00
        E 0 93 2a 3b
        E 16 83 2a 00
        E 0 93 2a 19
        E 16 83 2a 00
        E 80 93 2a 5d
        E 16 83 2a 00
        E 0 93 2a 3b
        E 16 83 2a 00
        E 0 93 2a 19
        E 16 83 2a 00
        E 80 93 2a 5d
        E 16 83 2a 00
        E 0 93 2a 3b
        E 16 83 2a 00
        E 0 93 2a 19
        E 16 83 2a 00
        E 208 93 2a 5d
        E 16 83 2a 00
        E 0 93 2a 3b
        E 16 83 2a 00
        E 0 93 2a 19
        E 16 83 2a 00
        E 80 93 2a 5d
        E 16 83 2a 00
        E 0 93 2a 3b
        E 16 83 2a 00
        E 0 93 2a 19
        E 16 83 2a 00
        E 80 93 2a 5d
        E 16 83 2a 00
        E 0 93 2a 3b
        E 16 83 2a 00
        E 0 93 2a 19
        E 16 83 2a 00
        E 208 93 2a 5d
        E 16 83 2a 00
        E 0 93 2a 3b
        E 16 83 2a 00
        E 0 93 2a 19
        E 16 83 2a 00
        E 80 93 2a 5d
        E 16 83 2a 00
        E 0 93 2a 3b
        E 16 83 2a 00
        E 0 93 2a 19
        E 16 83 2a 00
        E 80 93 2a 5d
        E 16 83 2a 00
        E 0 93 2a 3b
        E 16 83 2a 00
        E 0 93 2a 19
        E 16 83 2a 00
        E 208 93 2a 5d
        E 16 83 2a 00
        E 0 93 2a 3b
        E 16 83 2a 00
        E 0 93 2a 19
        E 16 83 2a 00
        E 80 93 2a 5d
        E 16 83 2a 00
        E 0 93 2a 3b
        E 16 83 2a 00
        E 0 93 2a 19
        E 16 83 2a 00
        E 80 93 2a 5d
        E 16 83 2a 00
        E 0 93 2a 3b
        E 16 83 2a 00
        E 0 93 2a 19
        E 16 83 2a 00
        E 208 93 2a 5d
        E 16 83 2a 00
        E 0 93 2a 3b
        E 16 83 2a 00
        E 0 93 2a 19
        E 16 83 2a 00
        E 80 93 2a 5d
        E 16 83 2a 00
        E 0 93 2a 3b
        E 16 83 2a 00
        E 0 93 2a 19
        E 16 83 2a 00
        E 80 93 2a 5d
        E 16 83 2a 00
        E 0 93 2a 3b
        E 16 83 2a 00
        E 0 93 2a 19
        E 16 83 2a 00
        E 208 93 2a 5d
        E 16 83 2a 00
        E 0 93 2a 3b
        E 16 83 2a 00
        E 0 93 2a 19
        E 16 83 2a 00
        E 80 93 2a 5d
        E 16 83 2a 00
        E 0 93 2a 3b
        E 16 83 2a 00
        E 0 93 2a 19
        E 16 83 2a 00
        E 80 93 2a 5d
        E 16 83 2a 00
        E 0 93 2a 3b
        E 16 83 2a 00
        E 0 93 2a 19
        E 16 83 2a 00
        E 208 93 2a 5d
        E 16 83 2a 00
        E 0 93 2a 3b
        E 16 83 2a 00
        E 0 93 2a 19
        E 16 83 2a 00
        E 80 93 2a 5d
        E 16 83 2a 00
        E 0 93 2a 3b
        E 16 83 2a 00
        E 0 93 2a 19
        E 16 83 2a 00
        E 80 93 2a 5d
        E 16 83 2a 00
        E 0 93 2a 3b
        E 16 83 2a 00
        E 0 93 2a 19
        E 16 83 2a 00
        E 208 93 2a 5d
        E 16 83 2a 00
        E 0 93 2a 3b
        E 16 83 2a 00
        E 0 93 2a 19
        E 16 83 2a 00
        E 80 93 2a 5d
        E 16 83 2a 00
        E 0 93 2a 3b
        E 16 83 2a 00
        E 0 93 2a 19
        E 16 83 2a 00
        E 80 93 2a 5d
        E 16 83 2a 00
        E 0 93 2a 3b
        E 16 83 2a 00
        E 0 93 2a 19
        E 16 83 2a 00
        E 208 93 2a 5d
        E 16 83 2a 00
        E 0 93 2a 3b
        E 16 83 2a 00
        E 0 93 2a 19
        E 16 83 2a 00
        E 80 93 2a 5d
        E 16 83 2a 00
        E 0 93 2a 3b
        E 16 83 2a 00
        E 0 93 2a 19
        E 16 83 2a 00
        E 80 93 2a 5d
        E 16 83 2a 00
        E 0 93 2a 3b
        E 16 83 2a 00
        E 0 93 2a 19
        E 16 83 2a 00
        E 80 93 2a 5d
        E 16 83 2a 00
        E 0 93 2a 3b
        E 16 83 2a 00
        E 0 93 2a 19
        E 16 83 2a 00
        E 80 93 2a 5d
        E 16 83 2a 00
        E 0 93 2a 3b
        E 16 83 2a 00
        E 0 93 2a 19
        E 16 83 2a 00
        E 80 93 2a 5d
        E 16 83 2a 00
        E 0 93 2a 3b
        E 16 83 2a 00
        E 0 93 2a 19
        E 16 83 2a 00
        E 80 93 2a 5d
        E 16 83 2a 00
        E 0 93 2a 3b
        E 16 83 2a 00
        E 0 93 2a 19
        E 16 83 2a 00
        E 80 93 2a 5d
        E 16 83 2a 00
        E 0 93 2a 3b
        E 16 83 2a 00
        E 0 93 2a 19
        E 16 83 2a 00
        E 208 93 2a 5d
        E 16 83 2a 00
        E 0 93 2a 3b
        E 16 83 2a 00
        E 0 93 2a 19
        E 16 83 2a 00
        E 80 93 2a 5d
        E 16 83 2a 00
        E 0 93 2a 3b
        E 16 83 2a 00
        E 0 93 2a 19
        E 16 83 2a 00
        E 80 93 2a 5d
        E 16 83 2a 00
        E 0 93 2a 3b
        E 16 83 2a 00
        E 0 93 2a 19
        E 16 83 2a 00
        E 80 93 2a 5d
        E 16 83 2a 00
        E 0 93 2a 3b
        E 16 83 2a 00
        E 0 93 2a 19
        E 16 83 2a 00
        E 80 93 2a 5d
        E 16 83 2a 00
        E 0 93 2a 3b
        E 16 83 2a 00
        E 0 93 2a 19
        E 16 83 2a 00
        E 80 93 2a 5d
        E 16 83 2a 00
        E 0 93 2a 3b
        E 16 83 2a 00
        E 0 93 2a 19
        E 16 83 2a 00
        E 80 93 2a 5d
        E 16 83 2a 00
        E 0 93 2a 3b
        E 16 83 2a 00
        E 0 93 2a 19
        E 16 83 2a 00
        E 80 93 2a 5d
        E 16 83 2a 00
        E 0 93 2a 3b
        E 16 83 2a 00
        E 0 93 2a 19
        E 16 83 2a 00
        E 464 93 2a 5d
        E 16 83 2a 00
        E 0 93 2a 3b
        E 16 83 2a 00
        E 0 93 2a 19
        E 16 83 2a 00
        E 336 93 2a 5d
        E 16 83 2a 00
        E 0 93 2a 3b
        E 16 83 2a 00
        E 0 93 2a 19
        E 16 83 2a 00
        E 80 93 2a 5d
        E 16 83 2a 00
        E 0 93 2a 3b
        E 16 83 2a 00
        E 0 93 2a 19
        E 16 83 2a 00
        E 32 93 2a 66
        E 16 83 2a 00
        E 0 93 2a 44
        E 16 83 2a 00
        E 0 93 2a 22
        E 16 83 2a 00
        E 48 93 2a 5d
        E 16 83 2a 00
        E 0 93 2a 3b
        E 16 83 2a 00
        E 0 93 2a 19
        E 16 83 2a 00
        E 32 93 2a 5d
        E 16 83 2a 00
        E 0 93 2a 3b
        E 16 83 2a 00
        E 0 93 2a 19
        E 16 83 2a 00
        E 80 93 2a 5d
        E 16 83 2a 00
        E 0 93 2a 3b
        E 16 83 2a 00
        E 0 93 2a 19
        E 16 83 2a 00
        E 80 93 2a 5d
        E 16 83 2a 00
        E 0 93 2a 3b
        E 16 83 2a 00
        E 0 93 2a 19
        E 16 83 2a 00
        E 80 93 2a 5d
        E 16 83 2a 00
        E 0 93 2a 3b
        E 16 83 2a 00
        E 0 93 2a 19
        E 16 83 2a 00
        E 208 93 2a 5d
        E 16 83 2a 00
        E 0 93 2a 3b
        E 16 83 2a 00
        E 0 93 2a 19
        E 16 83 2a 00
        E 80 93 2a 5d
        E 16 83 2a 00
        E 0 93 2a 3b
        E 16 83 2a 00
        E 0 93 2a 19
        E 16 83 2a 00
        E 464 93 2a 5d
        E 16 83 2a 00
        E 0 93 2a 3b
        E 16 83 2a 00
        E 0 93 2a 19
        E 16 83 2a 00
        E 336 93 2a 5d
        E 16 83 2a 00
        E 0 93 2a 3b
        E 16 83 2a 00
        E 0 93 2a 19
        E 16 83 2a 00
        E 80 93 2a 5d
        E 16 83 2a 00
        E 0 93 2a 3b
        E 16 83 2a 00
        E 0 93 2a 19
        E 16 83 2a 00
        E 32 93 2a 66
        E 16 83 2a 00
        E 0 93 2a 44
        E 16 83 2a 00
        E 0 93 2a 22
        E 16 83 2a 00
        E 48 93 2a 5d
        E 16 83 2a 00
        E 0 93 2a 3b
        E 16 83 2a 00
        E 0 93 2a 19
        E 16 83 2a 00
        E 32 93 2a 5d
        E 16 83 2a 00
        E 0 93 2a 3b
        E 16 83 2a 00
        E 0 93 2a 19
        E 16 83 2a 00
        E 80 93 2a 5d
        E 16 83 2a 00
        E 0 93 2a 3b
        E 16 83 2a 00
        E 0 93 2a 19
        E 16 83 2a 00
        E 80 93 2a 5d
        E 16 83 2a 00
        E 0 93 2a 3b
        E 16 83 2a 00
        E 0 93 2a 19
        E 16 83 2a 00
        E 80 93 2a 5d
        E 16 83 2a 00
        E 0 93 2a 3b
        E 16 83 2a 00
        E 0 93 2a 19
        E 16 83 2a 00
        E 208 93 2a 5d
        E 16 83 2a 00
        E 0 93 2a 3b
        E 16 83 2a 00
        E 0 93 2a 19
        E 16 83 2a 00
        E 80 93 2a 5d
        E 16 83 2a 00
        E 0 93 2a 3b
        E 16 83 2a 00
        E 0 93 2a 19
        E 16 83 2a 00
        E 464 93 2a 5d
        E 16 83 2a 00
        E 0 93 2a 3b
        E 16 83 2a 00
        E 0 93 2a 19
        E 16 83 2a 00
        E 336 93 2a 5d
        E 16 83 2a 00
        E 0 93 2a 3b
        E 16 83 2a 00
        E 0 93 2a 19
        E 16 83 2a 00
        E 80 93 2a 5d
        E 16 83 2a 00
        E 0 93 2a 3b
        E 16 83 2a 00
        E 0 93 2a 19
        E 16 83 2a 00
        E 32 93 2a 66
        E 16 83 2a 00
        E 0 93 2a 44
        E 16 83 2a 00
        E 0 93 2a 22
        E 16 83 2a 00
        E 48 93 2a 5d
        E 16 83 2a 00
        E 0 93 2a 3b
        E 16 83 2a 00
        E 0 93 2a 19
        E 16 83 2a 00
        E 32 93 2a 5d
        E 16 83 2a 00
        E 0 93 2a 3b
        E 16 83 2a 00
        E 0 93 2a 19
        E 16 83 2a 00
        E 80 93 2a 5d
        E 16 83 2a 00
        E 0 93 2a 3b
        E 16 83 2a 00
        E 0 93 2a 19
        E 16 83 2a 00
        E 80 93 2a 5d
        E 16 83 2a 00
        E 0 93 2a 3b
        E 16 83 2a 00
        E 0 93 2a 19
        E 16 83 2a 00
        E 80 93 2a 5d
        E 16 83 2a 00
        E 0 93 2a 3b
        E 16 83 2a 00
        E 0 93 2a 19
        E 16 83 2a 00
        E 208 93 2a 5d
        E 16 83 2a 00
        E 0 93 2a 3b
        E 16 83 2a 00
        E 0 93 2a 19
        E 16 83 2a 00
        E 256 93 2a 5d
        E 16 83 2a 00
        E 0 93 2a 3b
        E 16 83 2a 00
        E 0 93 2a 19
        E 16 83 2a 00
        E 112 93 2a 66
        E 16 83 2a 00
        E 0 93 2a 44
        E 16 83 2a 00
        E 0 93 2a 22
        E 16 83 2a 00
        E 128 93 2a 5d
        E 16 83 2a 00
        E 0 93 2a 3b
        E 16 83 2a 00
        E 0 93 2a 19
        E 16 83 2a 00
        E 128 93 2a 5d
        E 16 83 2a 00
        E 0 93 2a 3b
        E 16 83 2a 00
        E 0 93 2a 19
        E 16 83 2a 00
        E 112 93 2a 66
        E 16 83 2a 00
        E 0 93 2a 44
        E 16 83 2a 00
        E 0 93 2a 22
        E 16 83 2a 00
        E 128 93 2a 5d
        E 16 83 2a 00
        E 0 93 2a 3b
        E 16 83 2a 00
        E 0 93 2a 19
        E 16 83 2a 00
        E 80 93 2a 5d
        E 16 83 2a 00
        E 0 93 2a 3b
        E 16 83 2a 00
        E 0 93 2a 19
        E 16 83 2a 00
        E 80 93 2a 5d
        E 16 83 2a 00
        E 0 93 2a 3b
        E 16 83 2a 00
        E 0 93 2a 19
        E 16 83 2a 00
        E 80 93 2a 5d
        E 16 83 2a 00
        E 0 93 2a 3b
        E 16 83 2a 00
        E 0 93 2a 19
        E 16 83 2a 00
        E 80 93 2a 5d
        E 16 83 2a 00
        E 0 93 2a 3b
        E 16 83 2a 00
        E 0 93 2a 19
        E 16 83 2a 00
        E 80 93 2a 5d
        E 16 83 2a 00
        E 0 93 2a 3b
        E 16 83 2a 00
        E 0 93 2a 19
        E 16 83 2a 00
        E 80 93 2a 5d
        E 16 83 2a 00
        E 0 93 2a 3b
        E 16 83 2a 00
        E 0 93 2a 19
        E 16 83 2a 00
        E 80 93 2a 5d
        E 16 83 2a 00
        E 0 93 2a 3b
        E 16 83 2a 00
        E 0 93 2a 19
        E 16 83 2a 00
        E 80 93 2a 5d
        E 16 83 2a 00
        E 0 93 2a 3b
        E 16 83 2a 00
        E 0 93 2a 19
        E 16 83 2a 00
        E 80 93 2a 5d
        E 16 83 2a 00
        E 0 93 2a 3b
        E 16 83 2a 00
        E 0 93 2a 19
        E 16 83 2a 00
        E 80 93 2a 5d
        E 16 83 2a 00
        E 0 93 2a 3b
        E 16 83 2a 00
        E 0 93 2a 19
        E 16 83 2a 00
        E 80 93 2a 5d
        E 16 83 2a 00
        E 0 93 2a 3b
        E 16 83 2a 00
        E 0 93 2a 19
        E 16 83 2a 00
        E 80 93 2a 5d
        E 16 83 2a 00
        E 0 93 2a 3b
        E 16 83 2a 00
        E 0 93 2a 19
        E 16 83 2a 00
        E 80 93 2a 5d
        E 16 83 2a 00
        E 0 93 2a 3b
        E 16 83 2a 00
        E 0 93 2a 19
        E 16 83 2a 00
        E 80 93 2a 5d
        E 16 83 2a 00
        E 0 93 2a 3b
        E 16 83 2a 00
        E 0 93 2a 19
        E 16 83 2a 00
        E 80 93 2a 5d
        E 16 83 2a 00
        E 0 93 2a 3b
        E 16 83 2a 00
        E 0 93 2a 19
        E 16 83 2a 00
        E 80 93 2a 5d
        E 16 83 2a 00
        E 0 93 2a 3b
        E 16 83 2a 00
        E 0 93 2a 19
        E 16 83 2a 00
        E 80 93 2a 5d
        E 16 83 2a 00
        E 0 93 2a 3b
        E 16 83 2a 00
        E 0 93 2a 19
        E 16 83 2a 00
        E 80 93 2a 5d
        E 16 83 2a 00
        E 0 93 2a 3b
        E 16 83 2a 00
        E 0 93 2a 19
        E 16 83 2a 00
        E 80 93 2a 5d
        E 16 83 2a 00
        E 0 93 2a 3b
        E 16 83 2a 00
        E 0 93 2a 19
        E 16 83 2a 00
        E 80 93 2a 5d
        E 16 83 2a 00
        E 0 93 2a 3b
        E 16 83 2a 00
        E 0 93 2a 19
        E 16 83 2a 00
        E 80 93 2a 5d
        E 16 83 2a 00
        E 0 93 2a 3b
        E 16 83 2a 00
        E 0 93 2a 19
        E 16 83 2a 00
        E 80 93 2a 5d
        E 16 83 2a 00
        E 0 93 2a 3b
        E 16 83 2a 00
        E 0 93 2a 19
        E 16 83 2a 00
        E 80 93 2a 5d
        E 16 83 2a 00
        E 0 93 2a 3b
        E 16 83 2a 00
        E 0 93 2a 19
        E 16 83 2a 00
        E 80 93 2a 5d
        E 16 83 2a 00
        E 0 93 2a 3b
        E 16 83 2a 00
        E 0 93 2a 19
        E 16 83 2a 00
        E 80 93 2a 5d
        E 16 83 2a 00
        E 0 93 2a 3b
        E 16 83 2a 00
        E 0 93 2a 19
        E 16 83 2a 00
        E 80 93 2a 5d
        E 16 83 2a 00
        E 0 93 2a 3b
        E 16 83 2a 00
        E 0 93 2a 19
        E 16 83 2a 00
        E 208 93 2a 5d
        E 16 83 2a 00
        E 0 93 2a 3b
        E 16 83 2a 00
        E 0 93 2a 19
        E 16 83 2a 00
        E 80 93 2a 5d
        E 16 83 2a 00
        E 0 93 2a 3b
        E 16 83 2a 00
        E 0 93 2a 19
        E 16 83 2a 00
        E 80 93 2a 5d
        E 16 83 2a 00
        E 0 93 2a 3b
        E 16 83 2a 00
        E 0 93 2a 19
        E 16 83 2a 00
        E 208 93 2a 5d
        E 16 83 2a 00
        E 0 93 2a 3b
        E 16 83 2a 00
        E 0 93 2a 19
        E 16 83 2a 00
        E 80 93 2a 5d
        E 16 83 2a 00
        E 0 93 2a 3b
        E 16 83 2a 00
        E 0 93 2a 19
        E 16 83 2a 00
        E 80 93 2a 5d
        E 16 83 2a 00
        E 0 93 2a 3b
        E 16 83 2a 00
        E 0 93 2a 19
        E 16 83 2a 00
        E 208 93 2a 5d
        E 16 83 2a 00
        E 0 93 2a 3b
        E 16 83 2a 00
        E 0 93 2a 19
        E 16 83 2a 00
        E 80 93 2a 5d
        E 16 83 2a 00
        E 0 93 2a 3b
        E 16 83 2a 00
        E 0 93 2a 19
        E 16 83 2a 00
        E 80 93 2a 5d
        E 16 83 2a 00
        E 0 93 2a 3b
        E 16 83 2a 00
        E 0 93 2a 19
        E 16 83 2a 00
        E 208 93 2a 5d
        E 16 83 2a 00
        E 0 93 2a 3b
        E 16 83 2a 00
        E 0 93 2a 19
        E 16 83 2a 00
        E 80 93 2a 5d
        E 16 83 2a 00
        E 0 93 2a 3b
        E 16 83 2a 00
        E 0 93 2a 19
        E 16 83 2a 00
        E 80 93 2a 5d
        E 16 83 2a 00
        E 0 93 2a 3b
        E 16 83 2a 00
        E 0 93 2a 19
        E 16 83 2a 00
        E 208 93 2a 5d
        E 16 83 2a 00
        E 0 93 2a 3b
        E 16 83 2a 00
        E 0 93 2a 19
        E 16 83 2a 00
        E 80 93 2a 5d
        E 16 83 2a 00
        E 0 93 2a 3b
        E 16 83 2a 00
        E 0 93 2a 19
        E 16 83 2a 00
        E 80 93 2a 5d
        E 16 83 2a 00
        E 0 93 2a 3b
        E 16 83 2a 00
        E 0 93 2a 19
        E 16 83 2a 00
        E 208 93 2a 5d
        E 16 83 2a 00
        E 0 93 2a 3b
        E 16 83 2a 00
        E 0 93 2a 19
        E 16 83 2a 00
        E 80 93 2a 5d
        E 16 83 2a 00
        E 0 93 2a 3b
        E 16 83 2a 00
        E 0 93 2a 19
        E 16 83 2a 00
        E 80 93 2a 5d
        E 16 83 2a 00
        E 0 93 2a 3b
        E 16 83 2a 00
        E 0 93 2a 19
        E 16 83 2a 00
        E 208 93 2a 5d
        E 16 83 2a 00
        E 0 93 2a 3b
        E 16 83 2a 00
        E 0 93 2a 19
        E 16 83 2a 00
        E 80 93 2a 5d
        E 16 83 2a 00
        E 0 93 2a 3b
        E 16 83 2a 00
        E 0 93 2a 19
        E 16 83 2a 00
        E 80 93 2a 5d
        E 16 83 2a 00
        E 0 93 2a 3b
        E 16 83 2a 00
        E 0 93 2a 19
        E 16 83 2a 00
        E 208 93 2a 5d
        E 16 83 2a 00
        E 0 93 2a 3b
        E 16 83 2a 00
        E 0 93 2a 19
        E 16 83 2a 00
        E 80 93 2a 5d
        E 16 83 2a 00
        E 0 93 2a 3b
        E 16 83 2a 00
        E 0 93 2a 19
        E 16 83 2a 00
        E 80 93 2a 5d
        E 16 83 2a 00
        E 0 93 2a 3b
        E 16 83 2a 00
        E 0 93 2a 19
        E 16 83 2a 00
        E 208 93 2a 5d
        E 16 83 2a 00
        E 0 93 2a 3b
        E 16 83 2a 00
        E 0 93 2a 19
        E 16 83 2a 00
        E 80 93 2a 5d
        E 16 83 2a 00
        E 0 93 2a 3b
        E 16 83 2a 00
        E 0 93 2a 19
        E 16 83 2a 00
        E 80 93 2a 5d
        E 16 83 2a 00
        E 0 93 2a 3b
        E 16 83 2a 00
        E 0 93 2a 19
        E 16 83 2a 00
        E 208 93 2a 5d
        E 16 83 2a 00
        E 0 93 2a 3b
        E 16 83 2a 00
        E 0 93 2a 19
        E 32 83 2a 00
        E 0 93 2a 5d
        E 16 83 2a 00
        E 0 93 2a 3b
        E 16 83 2a 00
        E 0 93 2a 19
        E 32 83 2a 00
        E 0 93 2a 5d
        E 16 83 2a 00
        E 0 93 2a 3b
        E 16 83 2a 00
        E 0 93 2a 19
        E 16 83 2a 00
        E 80 93 2a 5d
        E 16 83 2a 00
        E 0 93 2a 3b
        E 16 83 2a 00
        E 0 93 2a 19
        E 16 83 2a 00
        E 80 93 2a 5d
        E 16 83 2a 00
        E 0 93 2a 3b
        E 16 83 2a 00
        E 0 93 2a 19
        E 16 83 2a 00
        E 80 93 2a 5d
        E 16 83 2a 00
        E 0 93 2a 3b
        E 16 83 2a 00
        E 0 93 2a 19
        E 16 83 2a 00
        E 80 93 2a 5d
        E 16 83 2a 00
        E 0 93 2a 3b
        E 16 83 2a 00
        E 0 93 2a 19
        E 16 83 2a 00
        E 80 93 2a 5d
        E 16 83 2a 00
        E 0 93 2a 3b
        E 16 83 2a 00
        E 0 93 2a 19
        E 16 83 2a 00
        E 80 93 2a 5d
        E 16 83 2a 00
        E 0 93 2a 3b
        E 16 83 2a 00
        E 0 93 2a 19
        E 16 83 2a 00
        E 80 93 2a 5d
        E 16 83 2a 00
        E 0 93 2a 3b
        E 16 83 2a 00
        E 0 93 2a 19
        E 16 83 2a 00
        E 80 93 2a 5d
        E 16 83 2a 00
        E 0 93 2a 3b
        E 16 83 2a 00
        E 0 93 2a 19
        E 16 83 2a 00
        E 80 93 2a 5d
        E 16 83 2a 00
        E 0 93 2a 3b
        E 16 83 2a 00
        E 0 93 2a 19
        E 16 83 2a 00
        E 208 93 2a 5d
        E 16 83 2a 00
        E 0 93 2a 3b
        E 16 83 2a 00
        E 0 93 2a 19
        E 16 83 2a 00
        E 80 93 2a 5d
        E 16 83 2a 00
        E 0 93 2a 3b
        E 16 83 2a 00
        E 0 93 2a 19
        E 16 83 2a 00
        E 80 93 2a 5d
        E 16 83 2a 00
        E 0 93 2a 3b
        E 16 83 2a 00
        E 0 93 2a 19
        E 16 83 2a 00
        E 208 93 2a 5d
        E 16 83 2a 00
        E 0 93 2a 3b
        E 16 83 2a 00
        E 0 93 2a 19
        E 16 83 2a 00
        E 80 93 2a 5d
        E 16 83 2a 00
        E 0 93 2a 3b
        E 16 83 2a 00
        E 0 93 2a 19
        E 16 83 2a 00
        E 80 93 2a 5d
        E 16 83 2a 00
        E 0 93 2a 3b
        E 16 83 2a 00
        E 0 93 2a 19
        E 16 83 2a 00
        E 208 93 2a 5d
        E 16 83 2a 00
        E 0 93 2a 3b
        E 16 83 2a 00
        E 0 93 2a 19
        E 16 83 2a 00
        E 80 93 2a 5d
        E 16 83 2a 00
        E 0 93 2a 3b
        E 16 83 2a 00
        E 0 93 2a 19
        E 16 83 2a 00
        E 80 93 2a 5d
        E 16 83 2a 00
        E 0 93 2a 3b
        E 16 83 2a 00
        E 0 93 2a 19
        E 16 83 2a 00
        E 208 93 2a 5d
        E 16 83 2a 00
        E 0 93 2a 3b
        E 16 83 2a 00
        E 0 93 2a 19
        E 16 83 2a 00
        E 80 93 2a 5d
        E 16 83 2a 00
        E 0 93 2a 3b
        E 16 83 2a 00
        E 0 93 2a 19
        E 16 83 2a 00
        E 80 93 2a 5d
        E 16 83 2a 00
        E 0 93 2a 3b
        E 16 83 2a 00
        E 0 93 2a 19
        E 16 83 2a 00
        E 208 93 2a 5d
        E 16 83 2a 00
        E 0 93 2a 3b
        E 16 83 2a 00
        E 0 93 2a 19
        E 16 83 2a 00
        E 80 93 2a 5d
        E 16 83 2a 00
        E 0 93 2a 3b
        E 16 83 2a 00
        E 0 93 2a 19
        E 16 83 2a 00
        E 80 93 2a 5d
        E 16 83 2a 00
        E 0 93 2a 3b
        E 16 83 2a 00
        E 0 93 2a 19
        E 16 83 2a 00
        E 208 93 2a 5d
        E 16 83 2a 00
        E 0 93 2a 3b
        E 16 83 2a 00
        E 0 93 2a 19
        E 16 83 2a 00
        E 80 93 2a 5d
        E 16 83 2a 00
        E 0 93 2a 3b
        E 16 83 2a 00
        E 0 93 2a 19
        E 16 83 2a 00
        E 80 93 2a 5d
        E 16 83 2a 00
        E 0 93 2a 3b
        E 16 83 2a 00
        E 0 93 2a 19
        E 16 83 2a 00
        E 208 93 2a 5d
        E 16 83 2a 00
        E 0 93 2a 3b
        E 16 83 2a 00
        E 0 93 2a 19
        E 16 83 2a 00
        E 80 93 2a 5d
        E 16 83 2a 00
        E 0 93 2a 3b
        E 16 83 2a 00
        E 0 93 2a 19
        E 16 83 2a 00
        E 80 93 2a 5d
        E 16 83 2a 00
        E 0 93 2a 3b
        E 16 83 2a 00
        E 0 93 2a 19
        E 16 83 2a 00
        E 208 93 2a 5d
        E 16 83 2a 00
        E 0 93 2a 3b
        E 16 83 2a 00
        E 0 93 2a 19
        E 16 83 2a 00
        E 80 93 2a 5d
        E 16 83 2a 00
        E 0 93 2a 3b
        E 16 83 2a 00
        E 0 93 2a 19
        E 16 83 2a 00
        E 80 93 2a 5d
        E 16 83 2a 00
        E 0 93 2a 3b
        E 16 83 2a 00
        E 0 93 2a 19
        E 16 83 2a 00
        E 208 93 2a 5d
        E 16 83 2a 00
        E 0 93 2a 3b
        E 16 83 2a 00
        E 0 93 2a 19
        E 16 83 2a 00
        E 80 93 2a 5d
        E 16 83 2a 00
        E 0 93 2a 3b
        E 16 83 2a 00
        E 0 93 2a 19
        E 16 83 2a 00
        E 80 93 2a 5d
        E 16 83 2a 00
        E 0 93 2a 3b
        E 16 83 2a 00
        E 0 93 2a 19
        E 16 83 2a 00
        E 208 93 2a 5d
        E 16 83 2a 00
        E 0 93 2a 3b
        E 16 83 2a 00
        E 0 93 2a 19
        E 16 83 2a 00
        E 80 93 2a 5d
        E 16 83 2a 00
        E 0 93 2a 3b
        E 16 83 2a 00
        E 0 93 2a 19
        E 16 83 2a 00
        E 80 93 2a 5d
        E 16 83 2a 00
        E 0 93 2a 3b
        E 16 83 2a 00
        E 0 93 2a 19
        E 16 83 2a 00
        E 208 93 2a 5d
        E 16 83 2a 00
        E 0 93 2a 3b
        E 16 83 2a 00
        E 0 93 2a 19
        E 16 83 2a 00
        E 80 93 2a 5d
        E 16 83 2a 00
        E 0 93 2a 3b
        E 16 83 2a 00
        E 0 93 2a 19
        E 16 83 2a 00
        E 80 93 2a 5d
        E 16 83 2a 00
        E 0 93 2a 3b
        E 16 83 2a 00
        E 0 93 2a 19
        E 16 83 2a 00
        E 208 93 2a 5d
        E 16 83 2a 00
        E 0 93 2a 3b
        E 16 83 2a 00
        E 0 93 2a 19
        E 16 83 2a 00
        E 80 93 2a 5d
        E 16 83 2a 00
        E 0 93 2a 3b
        E 16 83 2a 00
        E 0 93 2a 19
        E 16 83 2a 00
        E 80 93 2a 5d
        E 16 83 2a 00
        E 0 93 2a 3b
        E 16 83 2a 00
        E 0 93 2a 19
        E 16 83 2a 00
        E 208 93 2a 5d
        E 16 83 2a 00
        E 0 93 2a 3b
        E 16 83 2a 00
        E 0 93 2a 19
        E 16 83 2a 00
        E 80 93 2a 5d
        E 16 83 2a 00
        E 0 93 2a 3b
        E 16 83 2a 00
        E 0 93 2a 19
        E 16 83 2a 00
        E 80 93 2a 5d
        E 16 83 2a 00
        E 0 93 2a 3b
        E 16 83 2a 00
        E 0 93 2a 19
        E 16 83 2a 00
        E 208 93 2a 5d
        E 16 83 2a 00
        E 0 93 2a 3b
        E 16 83 2a 00
        E 0 93 2a 19
        E 32 83 2a 00
        E 0 93 2a 5d
        E 16 83 2a 00
        E 0 93 2a 3b
        E 16 83 2a 00
        E 0 93 2a 19
        E 32 83 2a 00
        E 0 93 2a 5d
        E 16 83 2a 00
        E 0 93 2a 3b
        E 16 83 2a 00
        E 0 93 2a 19
        E 16 83 2a 00
        E 80 93 2a 5d
        E 16 83 2a 00
        E 0 93 2a 3b
        E 16 83 2a 00
        E 0 93 2a 19
        E 16 83 2a 00
        E 80 93 2a 5d
        E 16 83 2a 00
        E 0 93 2a 3b
        E 16 83 2a 00
        E 0 93 2a 19
        E 16 83 2a 00
        E 80 93 2a 5d
        E 16 83 2a 00
        E 0 93 2a 3b
        E 16 83 2a 00
        E 0 93 2a 19
        E 16 83 2a 00
        E 80 93 2a 5d
        E 16 83 2a 00
        E 0 93 2a 3b
        E 16 83 2a 00
        E 0 93 2a 19
        E 16 83 2a 00
        E 80 93 2a 5d
        E 16 83 2a 00
        E 0 93 2a 3b
        E 16 83 2a 00
        E 0 93 2a 19
        E 16 83 2a 00
        E 208 93 2a 5d
        E 16 83 2a 00
        E 0 93 2a 3b
        E 16 83 2a 00
        E 0 93 2a 19
        E 16 83 2a 00
        E 80 93 2a 5d
        E 16 83 2a 00
        E 0 93 2a 3b
        E 16 83 2a 00
        E 0 93 2a 19
        E 16 83 2a 00
        E 80 93 2a 5d
        E 16 83 2a 00
        E 0 93 2a 3b
        E 16 83 2a 00
        E 0 93 2a 19
        E 16 83 2a 00
        E 208 93 2a 5d
        E 16 83 2a 00
        E 0 93 2a 3b
        E 16 83 2a 00
        E 0 93 2a 19
        E 16 83 2a 00
        E 80 93 2a 5d
        E 16 83 2a 00
        E 0 93 2a 3b
        E 16 83 2a 00
        E 0 93 2a 19
        E 16 83 2a 00
        E 80 93 2a 5d
        E 16 83 2a 00
        E 0 93 2a 3b
        E 16 83 2a 00
        E 0 93 2a 19
        E 16 83 2a 00
        E 208 93 2a 5d
        E 16 83 2a 00
        E 0 93 2a 3b
        E 16 83 2a 00
        E 0 93 2a 19
        E 16 83 2a 00
        E 80 93 2a 5d
        E 16 83 2a 00
        E 0 93 2a 3b
        E 16 83 2a 00
        E 0 93 2a 19
        E 16 83 2a 00
        E 80 93 2a 5d
        E 16 83 2a 00
        E 0 93 2a 3b
        E 16 83 2a 00
        E 0 93 2a 19
        E 16 83 2a 00
        E 208 93 2a 5d
        E 16 83 2a 00
        E 0 93 2a 3b
        E 16 83 2a 00
        E 0 93 2a 19
        E 16 83 2a 00
        E 80 93 2a 5d
        E 16 83 2a 00
        E 0 93 2a 3b
        E 16 83 2a 00
        E 0 93 2a 19
        E 16 83 2a 00
        E 80 93 2a 5d
        E 16 83 2a 00
        E 0 93 2a 3b
        E 16 83 2a 00
        E 0 93 2a 19
        E 16 83 2a 00
        E 208 93 2a 5d
        E 16 83 2a 00
        E 0 93 2a 3b
        E 16 83 2a 00
        E 0 93 2a 19
        E 16 83 2a 00
        E 80 93 2a 5d
        E 16 83 2a 00
        E 0 93 2a 3b
        E 16 83 2a 00
        E 0 93 2a 19
        E 16 83 2a 00
        E 80 93 2a 5d
        E 16 83 2a 00
        E 0 93 2a 3b
        E 16 83 2a 00
        E 0 93 2a 19
        E 16 83 2a 00
        E 208 93 2a 5d
        E 16 83 2a 00
        E 0 93 2a 3b
        E 16 83 2a 00
        E 0 93 2a 19
        E 16 83 2a 00
        E 80 93 2a 5d
        E 16 83 2a 00
        E 0 93 2a 3b
        E 16 83 2a 00
        E 0 93 2a 19
        E 16 83 2a 00
        E 80 93 2a 5d
        E 16 83 2a 00
        E 0 93 2a 3b
        E 16 83 2a 00
        E 0 93 2a 19
        E 16 83 2a 00
        E 208 93 2a 5d
        E 16 83 2a 00
        E 0 93 2a 3b
        E 16 83 2a 00
        E 0 93 2a 19
        E 16 83 2a 00
        E 80 93 2a 5d
        E 16 83 2a 00
        E 0 93 2a 3b
        E 16 83 2a 00
        E 0 93 2a 19
        E 16 83 2a 00
        E 80 93 2a 5d
        E 16 83 2a 00
        E 0 93 2a 3b
        E 16 83 2a 00
        E 0 93 2a 19
        E 16 83 2a 00
        E 208 93 2a 5d
        E 16 83 2a 00
        E 0 93 2a 3b
        E 16 83 2a 00
        E 0 93 2a 19
        E 16 83 2a 00
        E 80 93 2a 5d
        E 16 83 2a 00
        E 0 93 2a 3b
        E 16 83 2a 00
        E 0 93 2a 19
        E 16 83 2a 00
        E 80 93 2a 5d
        E 16 83 2a 00
        E 0 93 2a 3b
        E 16 83 2a 00
        E 0 93 2a 19
        E 16 83 2a 00
        E 208 93 2a 5d
        E 16 83 2a 00
        E 0 93 2a 3b
        E 16 83 2a 00
        E 0 93 2a 19
        E 16 83 2a 00
        E 80 93 2a 5d
        E 16 83 2a 00
        E 0 93 2a 3b
        E 16 83 2a 00
        E 0 93 2a 19
        E 16 83 2a 00
        E 80 93 2a 5d
        E 16 83 2a 00
        E 0 93 2a 3b
        E 16 83 2a 00
        E 0 93 2a 19
        E 16 83 2a 00
        E 208 93 2a 5d
        E 16 83 2a 00
        E 0 93 2a 3b
        E 16 83 2a 00
        E 0 93 2a 19
        E 16 83 2a 00
        E 80 93 2a 5d
        E 16 83 2a 00
        E 0 93 2a 3b
        E 16 83 2a 00
        E 0 93 2a 19
        E 16 83 2a 00
        E 80 93 2a 5d
        E 16 83 2a 00
        E 0 93 2a 3b
        E 16 83 2a 00
        E 0 93 2a 19
        E 16 83 2a 00
        E 208 93 2a 5d
        E 16 83 2a 00
        E 0 93 2a 3b
        E 16 83 2a 00
        E 0 93 2a 19
        E 16 83 2a 00
        E 80 93 2a 5d
        E 16 83 2a 00
        E 0 93 2a 3b
        E 16 83 2a 00
        E 0 93 2a 19
        E 16 83 2a 00
        E 80 93 2a 5d
        E 16 83 2a 00
        E 0 93 2a 3b
        E 16 83 2a 00
        E 0 93 2a 19
        E 16 83 2a 00
        E 208 93 2a 5d
        E 16 83 2a 00
        E 0 93 2a 3b
        E 16 83 2a 00
        E 0 93 2a 19
        E 16 83 2a 00
        E 80 93 2a 5d
        E 16 83 2a 00
        E 0 93 2a 3b
        E 16 83 2a 00
        E 0 93 2a 19
        E 16 83 2a 00
        E 80 93 2a 5d
        E 16 83 2a 00
        E 0 93 2a 3b
        E 16 83 2a 00
        E 0 93 2a 19
        E 16 83 2a 00
        E 208 93 2a 5d
        E 16 83 2a 00
        E 0 93 2a 3b
        E 16 83 2a 00
        E 0 93 2a 19
        E 16 83 2a 00
        E 80 93 2a 5d
        E 16 83 2a 00
        E 0 93 2a 3b
        E 16 83 2a 00
        E 0 93 2a 19
        E 16 83 2a 00
        E 80 93 2a 5d
        E 16 83 2a 00
        E 0 93 2a 3b
        E 16 83 2a 00
        E 0 93 2a 19
        E 16 83 2a 00
        E 208 93 2a 5d
        E 16 83 2a 00
        E 0 93 2a 3b
        E 16 83 2a 00
        E 0 93 2a 19
        E 16 83 2a 00
        E 80 93 2a 5d
        E 16 83 2a 00
        E 0 93 2a 3b
        E 16 83 2a 00
        E 0 93 2a 19
        E 16 83 2a 00
        E 80 93 2a 5d
        E 16 83 2a 00
        E 0 93 2a 3b
        E 16 83 2a 00
        E 0 93 2a 19
        E 16 83 2a 00
        E 208 93 2a 5d
        E 16 83 2a 00
        E 0 93 2a 3b
        E 16 83 2a 00
        E 0 93 2a 19
        E 16 83 2a 00
        E 80 93 2a 5d
        E 16 83 2a 00
        E 0 93 2a 3b
        E 16 83 2a 00
        E 0 93 2a 19
        E 16 83 2a 00
        E 80 93 2a 5d
        E 16 83 2a 00
        E 0 93 2a 3b
        E 16 83 2a 00
        E 0 93 2a 19
        E 16 83 2a 00
        E 208 93 2a 5d
        E 16 83 2a 00
        E 0 93 2a 3b
        E 16 83 2a 00
        E 0 93 2a 19
        E 16 83 2a 00
        E 80 93 2a 5d
        E 16 83 2a 00
        E 0 93 2a 3b
        E 16 83 2a 00
        E 0 93 2a 19
        E 16 83 2a 00
        E 80 93 2a 5d
        E 16 83 2a 00
        E 0 93 2a 3b
        E 16 83 2a 00
        E 0 93 2a 19
        E 16 83 2a 00
        E 112 b3 7b 00
        E 0 ff 2f 00
      >
    >
  >
>