<REAPER_PROJECT 0.1 "7.27/win64" 1707000000
  <NOTES 0 2
    |ReapNES Studio Project
    |MIDI Import - Final_Fantasy_song_4E_rom_v1
  >
  RIPPLE 0
  GROUPOVERRIDE 0 0 0
  AUTOXFADE 129
  ENVATTACH 3
  POOLEDENVATTACH 0
  MIXERUIFLAGS 11 48
  ENVFADESZ10 40
  PEAKGAIN 1
  FEEDBACK 0
  PANLAW 1
  PROJOFFS 0 0 0
  MAXPROJLEN 0 0
  GRID 3199 8 1 8 1 0 0 0
  TIMEMODE 1 5 -1 30 0 0 -1
  VIDEO_CONFIG 0 0 65792
  PANMODE 3
  PANLAWFLAGS 3
  CURSOR 0
  ZOOM 100 0 0
  VZOOMEX 6 0
  USE_REC_CFG 0
  RECMODE 1
  SMPTESYNC 0 30 100 40 1000 300 0 0 1 0 0
  LOOP 0
  LOOPGRAN 0 4
  RECORD_PATH "Media" ""
  <RECORD_CFG
    ZXZhdxgAAQ==
  >
  <APPLYFX_CFG
  >
  RENDER_FILE ""
  RENDER_PATTERN ""
  RENDER_FMT 0 2 0
  RENDER_1X 0
  RENDER_RANGE 1 0 0 18 1000
  RENDER_RESAMPLE 3 0 1
  RENDER_ADDTOPROJ 0
  RENDER_STEMS 0
  RENDER_DITHER 0
  TIMELOCKMODE 1
  TEMPOENVLOCKMODE 1
  ITEMMIX 1
  DEFPITCHMODE 589824 0
  TAKELANE 1
  SAMPLERATE 44100 0 0
  <RENDER_CFG
    ZXZhdxgAAQ==
  >
  LOCK 1
  <METRONOME 6 2
    VOL 0.25 0.125
    BEATLEN 4
    FREQ 1760 880 1
    SAMPLES "" ""
    SPLIGNORE 0 0
    SPLDEF 2 660 "" 0
    SPLDEF 3 440 "" 0
    PATTERN 0 169
    PATTERNSTR ABBB
    MULT 1
  >
  GLOBAL_AUTO -1
  TEMPO 128.59999614200012 4 4
  PLAYRATE 1 0 0.25 4
  SELECTION 0 0
  SELECTION2 0 0
  MASTERAUTOMODE 0
  MASTERTRACKHEIGHT 0 0
  MASTERPEAKCOL 16576
  MASTERMUTESOLO 0
  MASTERTRACKVIEW 0 0.6667 0.5 0.5 0 0 0 0 0 0 0 0 0 0
  MASTERHWOUT 0 0 1 0 0 0 0 -1
  MASTER_NCH 2 2
  MASTER_VOLUME 1 0 -1 -1 1
  MASTER_PANMODE 3
  MASTER_PANLAWFLAGS 3
  MASTER_FX 1
  MASTER_SEL 0
  <MASTERPLAYSPEEDENV
    EGUID {C4786692-4EEF-432D-8B8D-0EC7FB96043A}
    ACT 0 -1
    VIS 0 1 1
    LANEHEIGHT 0 0
    ARM 0
    DEFSHAPE 0 -1 -1
  >
  <TEMPOENVEX
    EGUID {C990642D-97BC-49B5-A8C0-EC6F4D5F62A3}
    ACT 1 -1
    VIS 1 0 1
    LANEHEIGHT 0 0
    ARM 0
    DEFSHAPE 1 -1 -1
  >
  <PROJBAY
  >
  <TRACK {FDE7C20D-71EE-47D1-B4D1-C80AC8A1766B}
    NAME "NES - Pulse 1 [ch0]"
    PEAKCOL 16576606
    BEAT -1
    AUTOMODE 0
    PANLAWFLAGS 3
    VOLPAN 1 0 -1 -1 1
    MUTESOLO 0 0 0
    IPHASE 0
    PLAYOFFS 0 1
    ISBUS 0 0
    BUSCOMP 0 0 0 0 0
    SHOWINMIX 1 0.6667 0.5 1 0.5 0 0 0
    FIXEDLANES 9 0 0 0 0
    SEL 1
    REC 1 5088 1 0 0 0 0 0
    VU 2
    TRACKHEIGHT 0 0 0 0 0 0 0
    INQ 0 0 0 0.5 100 0 0 100
    NCHAN 2
    FX 1
    TRACKID {FDE7C20D-71EE-47D1-B4D1-C80AC8A1766B}
    PERF 0
    MIDIOUT -1
    MAINSEND 1 0
    <FXCHAIN
      WNDRECT 24 52 700 560
      SHOW 0
      LASTSEL 0
      DOCKED 0
      BYPASS 0 0 0
      <JS "ReapNES Studio/ReapNES_Console.jsfx" ""
        2 15 1 10 80 10 100 2 1 15 1 5 60 10 80 1 1 0 50 0 0 15 1 0 100 0 0 0.500000 0.500000 0.400000 0.300000 0.800000 0 1 0 0 0 0 - - - - - - - - - - - - - - - - - - - - - - - - - -
      >
      FLOATPOS 0 0 0 0
      FXID {7E54485E-00E4-4296-BB6A-AB52E2A2CAA8}
      WAK 0 0
    >
    <ITEM
      POSITION 0
      LENGTH 74.5878716
      LOOP 0
      ALLTAKES 0
      FADEIN 0 0 0 0 0 0 0
      FADEOUT 0 0 0 0 0 0 0
      MUTE 0 0
      SEL 0
      IGUID {EECA5D38-5ADD-40C2-A1D5-2F72DDB92D9B}
      <SOURCE MIDI
        HASDATA 1 480 QN
        CCINTERP 32
        E 0 c0 50
        E 0 b0 0c 20
        E 0 b0 0b 77
        E 0 90 2e 77
        E 16 80 2e 00
        E 48 b0 0b 66
        E 0 90 3b 66
        E 16 b0 0b 5d
        E 16 b0 0b 55
        E 16 b0 0b 4c
        E 16 b0 0b 44
        E 16 b0 0b 3b
        E 16 b0 0b 33
        E 16 b0 0b 2a
        E 16 b0 0b 22
        E 16 b0 0b 2a
        E 16 b0 0b 33
        E 16 b0 0b 3b
        E 16 b0 0b 44
        E 16 b0 0b 3b
        E 16 b0 0b 33
        E 16 b0 0b 2a
        E 16 b0 0b 22
        E 16 b0 0b 2a
        E 16 b0 0b 33
        E 16 b0 0b 3b
        E 16 b0 0b 44
        E 16 b0 0b 3b
        E 16 b0 0b 33
        E 16 b0 0b 2a
        E 16 b0 0b 22
        E 16 b0 0b 2a
        E 16 b0 0b 33
        E 16 b0 0b 3b
        E 16 b0 0b 44
        E 16 b0 0b 4c
        E 16 b0 0b 55
        E 16 b0 0b 5d
        E 272 b0 0b 66
        E 0 80 3b 00
        E 0 90 38 66
        E 16 b0 0b 5d
        E 16 b0 0b 55
        E 16 b0 0b 4c
        E 16 b0 0b 44
        E 16 b0 0b 3b
        E 16 b0 0b 33
        E 16 b0 0b 2a
        E 16 b0 0b 22
        E 16 b0 0b 2a
        E 16 b0 0b 33
        E 16 b0 0b 3b
        E 16 b0 0b 44
        E 16 b0 0b 3b
        E 16 b0 0b 33
        E 16 b0 0b 2a
        E 16 b0 0b 22
        E 16 b0 0b 2a
        E 16 b0 0b 33
        E 16 b0 0b 3b
        E 16 b0 0b 44
        E 16 b0 0b 3b
        E 16 b0 0b 33
        E 16 b0 0b 2a
        E 16 b0 0b 66
        E 0 80 38 00
        E 0 90 3b 66
        E 16 b0 0b 5d
        E 16 b0 0b 55
        E 16 b0 0b 4c
        E 16 b0 0b 44
        E 16 b0 0b 3b
        E 16 b0 0b 33
        E 16 b0 0b 2a
        E 16 b0 0b 22
        E 16 b0 0b 2a
        E 16 b0 0b 33
        E 16 b0 0b 3b
        E 16 b0 0b 44
        E 16 b0 0b 3b
        E 16 b0 0b 33
        E 16 b0 0b 2a
        E 16 b0 0b 22
        E 16 b0 0b 2a
        E 16 b0 0b 33
        E 16 b0 0b 3b
        E 16 b0 0b 44
        E 16 b0 0b 3b
        E 16 b0 0b 33
        E 16 b0 0b 2a
        E 16 b0 0b 66
        E 0 80 3b 00
        E 0 90 3a 66
        E 16 b0 0b 5d
        E 16 b0 0b 55
        E 16 b0 0b 4c
        E 16 b0 0b 44
        E 16 b0 0b 3b
        E 16 b0 0b 33
        E 16 b0 0b 2a
        E 16 b0 0b 22
        E 16 b0 0b 2a
        E 16 b0 0b 33
        E 16 b0 0b 3b
        E 16 b0 0b 44
        E 16 b0 0b 3b
        E 16 b0 0b 33
        E 16 b0 0b 2a
        E 16 b0 0b 22
        E 16 b0 0b 2a
        E 16 b0 0b 33
        E 16 b0 0b 3b
        E 16 b0 0b 44
        E 16 b0 0b 3b
        E 16 b0 0b 33
        E 16 b0 0b 2a
        E 16 b0 0b 66
        E 0 80 3a 00
        E 0 90 38 66
        E 16 b0 0b 5d
        E 16 b0 0b 55
        E 16 b0 0b 4c
        E 16 b0 0b 44
        E 16 b0 0b 3b
        E 16 b0 0b 33
        E 16 b0 0b 2a
        E 16 b0 0b 22
        E 16 b0 0b 2a
        E 16 b0 0b 33
        E 16 b0 0b 3b
        E 16 b0 0b 44
        E 16 b0 0b 3b
        E 16 b0 0b 33
        E 16 b0 0b 2a
        E 16 b0 0b 22
        E 16 b0 0b 2a
        E 16 b0 0b 33
        E 16 b0 0b 3b
        E 16 b0 0b 44
        E 16 b0 0b 3b
        E 16 b0 0b 33
        E 16 b0 0b 2a
        E 16 b0 0b 66
        E 0 80 38 00
        E 0 90 36 66
        E 16 b0 0b 5d
        E 16 b0 0b 55
        E 16 b0 0b 4c
        E 16 b0 0b 44
        E 16 b0 0b 3b
        E 16 b0 0b 33
        E 16 b0 0b 2a
        E 16 b0 0b 22
        E 16 b0 0b 2a
        E 16 b0 0b 33
        E 16 b0 0b 3b
        E 16 b0 0b 44
        E 16 b0 0b 3b
        E 16 b0 0b 33
        E 16 b0 0b 2a
        E 16 b0 0b 22
        E 16 b0 0b 2a
        E 16 b0 0b 33
        E 16 b0 0b 3b
        E 16 b0 0b 44
        E 16 b0 0b 3b
        E 16 b0 0b 33
        E 16 b0 0b 2a
        E 16 b0 0b 66
        E 0 80 36 00
        E 0 90 3a 66
        E 16 b0 0b 5d
        E 16 b0 0b 55
        E 16 b0 0b 4c
        E 16 b0 0b 44
        E 16 b0 0b 3b
        E 16 b0 0b 33
        E 16 b0 0b 2a
        E 16 b0 0b 22
        E 16 b0 0b 2a
        E 16 b0 0b 33
        E 16 b0 0b 3b
        E 16 b0 0b 44
        E 16 b0 0b 3b
        E 16 b0 0b 33
        E 16 b0 0b 2a
        E 16 b0 0b 22
        E 16 b0 0b 2a
        E 16 b0 0b 33
        E 16 b0 0b 3b
        E 16 b0 0b 44
        E 16 b0 0b 3b
        E 16 b0 0b 33
        E 16 b0 0b 2a
        E 16 b0 0b 66
        E 0 80 3a 00
        E 0 90 38 66
        E 16 b0 0b 5d
        E 16 b0 0b 55
        E 16 b0 0b 4c
        E 16 b0 0b 44
        E 16 b0 0b 3b
        E 16 b0 0b 33
        E 16 b0 0b 2a
        E 16 b0 0b 22
        E 16 b0 0b 2a
        E 16 b0 0b 33
        E 16 b0 0b 3b
        E 16 b0 0b 44
        E 16 b0 0b 3b
        E 16 b0 0b 33
        E 16 b0 0b 2a
        E 16 b0 0b 22
        E 16 b0 0b 2a
        E 16 b0 0b 33
        E 16 b0 0b 3b
        E 16 b0 0b 44
        E 16 b0 0b 3b
        E 16 b0 0b 33
        E 16 b0 0b 2a
        E 16 b0 0b 22
        E 16 b0 0b 2a
        E 16 b0 0b 33
        E 16 b0 0b 3b
        E 16 b0 0b 44
        E 16 b0 0b 4c
        E 16 b0 0b 55
        E 16 b0 0b 5d
        E 2576 b0 0b 66
        E 0 80 38 00
        E 0 90 3b 66
        E 16 b0 0b 5d
        E 16 b0 0b 55
        E 16 b0 0b 4c
        E 16 b0 0b 44
        E 16 b0 0b 3b
        E 16 b0 0b 33
        E 16 b0 0b 2a
        E 16 b0 0b 22
        E 16 b0 0b 2a
        E 16 b0 0b 33
        E 16 b0 0b 3b
        E 16 b0 0b 44
        E 16 b0 0b 3b
        E 16 b0 0b 33
        E 16 b0 0b 2a
        E 16 b0 0b 22
        E 16 b0 0b 2a
        E 16 b0 0b 33
        E 16 b0 0b 3b
        E 16 b0 0b 44
        E 16 b0 0b 3b
        E 16 b0 0b 33
        E 16 b0 0b 2a
        E 16 b0 0b 22
        E 16 b0 0b 2a
        E 16 b0 0b 33
        E 16 b0 0b 3b
        E 16 b0 0b 44
        E 16 b0 0b 4c
        E 16 b0 0b 55
        E 16 b0 0b 5d
        E 272 b0 0b 66
        E 0 80 3b 00
        E 0 90 3d 66
        E 16 b0 0b 5d
        E 16 b0 0b 55
        E 16 b0 0b 4c
        E 16 b0 0b 44
        E 16 b0 0b 3b
        E 16 b0 0b 33
        E 16 b0 0b 2a
        E 16 b0 0b 22
        E 16 b0 0b 2a
        E 16 b0 0b 33
        E 16 b0 0b 3b
        E 16 b0 0b 44
        E 16 b0 0b 3b
        E 16 b0 0b 33
        E 16 b0 0b 2a
        E 16 b0 0b 22
        E 16 b0 0b 2a
        E 16 b0 0b 33
        E 16 b0 0b 3b
        E 16 b0 0b 44
        E 16 b0 0b 3b
        E 16 b0 0b 33
        E 16 b0 0b 2a
        E 16 b0 0b 66
        E 0 80 3d 00
        E 0 90 3b 66
        E 16 b0 0b 5d
        E 16 b0 0b 55
        E 16 b0 0b 4c
        E 16 b0 0b 44
        E 16 b0 0b 3b
        E 16 b0 0b 33
        E 16 b0 0b 2a
        E 16 b0 0b 22
        E 16 b0 0b 2a
        E 16 b0 0b 33
        E 16 b0 0b 3b
        E 16 b0 0b 44
        E 16 b0 0b 3b
        E 16 b0 0b 33
        E 16 b0 0b 2a
        E 16 b0 0b 22
        E 16 b0 0b 2a
        E 16 b0 0b 33
        E 16 b0 0b 3b
        E 16 b0 0b 44
        E 16 b0 0b 3b
        E 16 b0 0b 33
        E 16 b0 0b 2a
        E 16 b0 0b 66
        E 0 80 3b 00
        E 0 90 3a 66
        E 16 b0 0b 5d
        E 16 b0 0b 55
        E 16 b0 0b 4c
        E 16 b0 0b 44
        E 16 b0 0b 3b
        E 16 b0 0b 33
        E 16 b0 0b 2a
        E 16 b0 0b 22
        E 16 b0 0b 2a
        E 16 b0 0b 33
        E 16 b0 0b 3b
        E 16 b0 0b 44
        E 16 b0 0b 3b
        E 16 b0 0b 33
        E 16 b0 0b 2a
        E 16 b0 0b 22
        E 16 b0 0b 2a
        E 16 b0 0b 33
        E 16 b0 0b 3b
        E 16 b0 0b 44
        E 16 b0 0b 3b
        E 16 b0 0b 33
        E 16 b0 0b 2a
        E 16 b0 0b 66
        E 0 80 3a 00
        E 0 90 38 66
        E 16 b0 0b 5d
        E 16 b0 0b 55
        E 16 b0 0b 4c
        E 16 b0 0b 44
        E 16 b0 0b 3b
        E 16 b0 0b 33
        E 16 b0 0b 2a
        E 16 b0 0b 22
        E 16 b0 0b 2a
        E 16 b0 0b 33
        E 16 b0 0b 3b
        E 16 b0 0b 44
        E 16 b0 0b 3b
        E 16 b0 0b 33
        E 16 b0 0b 2a
        E 16 b0 0b 22
        E 16 b0 0b 2a
        E 16 b0 0b 33
        E 16 b0 0b 3b
        E 16 b0 0b 44
        E 16 b0 0b 3b
        E 16 b0 0b 33
        E 16 b0 0b 2a
        E 16 b0 0b 66
        E 0 80 38 00
        E 0 90 36 66
        E 16 b0 0b 5d
        E 16 b0 0b 55
        E 16 b0 0b 4c
        E 16 b0 0b 44
        E 16 b0 0b 3b
        E 16 b0 0b 33
        E 16 b0 0b 2a
        E 16 b0 0b 22
        E 16 b0 0b 2a
        E 16 b0 0b 33
        E 16 b0 0b 3b
        E 16 b0 0b 44
        E 16 b0 0b 3b
        E 16 b0 0b 33
        E 16 b0 0b 2a
        E 16 b0 0b 22
        E 16 b0 0b 2a
        E 16 b0 0b 33
        E 16 b0 0b 3b
        E 16 b0 0b 44
        E 16 b0 0b 3b
        E 16 b0 0b 33
        E 16 b0 0b 2a
        E 16 b0 0b 66
        E 0 80 36 00
        E 0 90 40 66
        E 16 b0 0b 5d
        E 16 b0 0b 55
        E 16 b0 0b 4c
        E 16 b0 0b 44
        E 16 b0 0b 3b
        E 16 b0 0b 33
        E 16 b0 0b 2a
        E 16 b0 0b 22
        E 16 b0 0b 2a
        E 16 b0 0b 33
        E 16 b0 0b 3b
        E 16 b0 0b 44
        E 16 b0 0b 3b
        E 16 b0 0b 33
        E 16 b0 0b 2a
        E 16 b0 0b 22
        E 16 b0 0b 2a
        E 16 b0 0b 33
        E 16 b0 0b 3b
        E 16 b0 0b 44
        E 16 b0 0b 3b
        E 16 b0 0b 33
        E 16 b0 0b 2a
        E 16 b0 0b 66
        E 0 80 40 00
        E 0 90 3f 66
        E 16 b0 0b 5d
        E 16 b0 0b 55
        E 16 b0 0b 4c
        E 16 b0 0b 44
        E 16 b0 0b 3b
        E 16 b0 0b 33
        E 16 b0 0b 2a
        E 16 b0 0b 22
        E 16 b0 0b 2a
        E 16 b0 0b 33
        E 16 b0 0b 3b
        E 16 b0 0b 44
        E 16 b0 0b 3b
        E 16 b0 0b 33
        E 16 b0 0b 2a
        E 16 b0 0b 22
        E 16 b0 0b 2a
        E 16 b0 0b 33
        E 16 b0 0b 3b
        E 16 b0 0b 44
        E 16 b0 0b 3b
        E 16 b0 0b 33
        E 16 b0 0b 2a
        E 16 b0 0b 22
        E 16 b0 0b 2a
        E 16 b0 0b 33
        E 16 b0 0b 3b
        E 16 b0 0b 44
        E 16 b0 0b 4c
        E 16 b0 0b 55
        E 16 b0 0b 5d
        E 1808 80 3f 00
        E 384 b0 0b 44
        E 0 90 33 44
        E 64 80 33 00
        E 0 90 35 44
        E 64 80 35 00
        E 0 90 36 44
        E 64 80 36 00
        E 0 90 37 44
        E 64 80 37 00
        E 0 90 38 44
        E 64 80 38 00
        E 0 90 39 44
        E 64 b0 0b 7f
        E 0 80 39 00
        E 0 90 3a 7f
        E 16 b0 0b 77
        E 16 b0 0b 6e
        E 16 b0 0b 66
        E 16 b0 0b 5d
        E 16 b0 0b 55
        E 16 b0 0b 4c
        E 16 b0 0b 44
        E 16 b0 0b 4c
        E 16 b0 0b 55
        E 16 b0 0b 5d
        E 16 b0 0b 66
        E 16 b0 0b 5d
        E 16 b0 0b 55
        E 16 b0 0b 4c
        E 16 b0 0b 44
        E 16 b0 0b 3b
        E 16 b0 0b 33
        E 16 b0 0b 2a
        E 16 b0 0b 22
        E 16 b0 0b 2a
        E 16 b0 0b 33
        E 16 b0 0b 3b
        E 16 b0 0b 44
        E 16 b0 0b 3b
        E 16 b0 0b 33
        E 16 b0 0b 2a
        E 16 b0 0b 22
        E 16 b0 0b 19
        E 16 b0 0b 11
        E 16 b0 0b 08
        E 16 80 3a 00
        E 272 b0 0b 7f
        E 0 90 3b 7f
        E 16 b0 0b 77
        E 16 b0 0b 6e
        E 16 b0 0b 66
        E 16 b0 0b 5d
        E 16 b0 0b 55
        E 16 b0 0b 4c
        E 16 b0 0b 44
        E 16 b0 0b 4c
        E 16 b0 0b 55
        E 16 b0 0b 5d
        E 16 b0 0b 66
        E 16 b0 0b 5d
        E 16 b0 0b 55
        E 16 b0 0b 4c
        E 16 b0 0b 44
        E 16 b0 0b 3b
        E 16 b0 0b 33
        E 16 b0 0b 2a
        E 16 b0 0b 22
        E 16 b0 0b 2a
        E 16 b0 0b 33
        E 16 b0 0b 3b
        E 16 b0 0b 44
        E 16 b0 0b 7f
        E 0 80 3b 00
        E 0 90 3d 7f
        E 16 b0 0b 77
        E 16 b0 0b 6e
        E 16 b0 0b 66
        E 16 b0 0b 5d
        E 16 b0 0b 55
        E 16 b0 0b 4c
        E 16 b0 0b 44
        E 16 b0 0b 4c
        E 16 b0 0b 55
        E 16 b0 0b 5d
        E 16 b0 0b 66
        E 16 b0 0b 5d
        E 16 b0 0b 55
        E 16 b0 0b 4c
        E 16 b0 0b 44
        E 16 b0 0b 3b
        E 16 b0 0b 33
        E 16 b0 0b 2a
        E 16 b0 0b 22
        E 16 b0 0b 2a
        E 16 b0 0b 33
        E 16 b0 0b 3b
        E 16 b0 0b 44
        E 16 b0 0b 7f
        E 0 80 3d 00
        E 0 90 3b 7f
        E 16 b0 0b 77
        E 16 b0 0b 6e
        E 16 b0 0b 66
        E 16 b0 0b 5d
        E 16 b0 0b 55
        E 16 b0 0b 4c
        E 16 b0 0b 44
        E 16 b0 0b 4c
        E 16 b0 0b 55
        E 16 b0 0b 5d
        E 16 b0 0b 66
        E 16 b0 0b 5d
        E 16 b0 0b 55
        E 16 b0 0b 4c
        E 16 b0 0b 44
        E 16 b0 0b 3b
        E 16 b0 0b 33
        E 16 b0 0b 2a
        E 16 b0 0b 22
        E 16 b0 0b 2a
        E 16 b0 0b 33
        E 16 b0 0b 3b
        E 16 b0 0b 44
        E 16 b0 0b 7f
        E 0 80 3b 00
        E 0 90 3a 7f
        E 16 b0 0b 77
        E 16 b0 0b 6e
        E 16 b0 0b 66
        E 16 b0 0b 5d
        E 16 b0 0b 55
        E 16 b0 0b 4c
        E 16 b0 0b 44
        E 16 b0 0b 4c
        E 16 b0 0b 55
        E 16 b0 0b 5d
        E 16 b0 0b 66
        E 16 b0 0b 5d
        E 16 b0 0b 55
        E 16 b0 0b 4c
        E 16 b0 0b 44
        E 16 b0 0b 3b
        E 16 b0 0b 33
        E 16 b0 0b 2a
        E 16 b0 0b 22
        E 16 b0 0b 2a
        E 16 b0 0b 33
        E 16 b0 0b 3b
        E 16 b0 0b 44
        E 16 b0 0b 7f
        E 0 80 3a 00
        E 0 90 38 7f
        E 16 b0 0b 77
        E 16 b0 0b 6e
        E 16 b0 0b 66
        E 16 b0 0b 5d
        E 16 b0 0b 55
        E 16 b0 0b 4c
        E 16 b0 0b 44
        E 16 b0 0b 4c
        E 16 b0 0b 55
        E 16 b0 0b 5d
        E 16 b0 0b 66
        E 16 b0 0b 5d
        E 16 b0 0b 55
        E 16 b0 0b 4c
        E 16 b0 0b 44
        E 16 b0 0b 3b
        E 16 b0 0b 33
        E 16 b0 0b 2a
        E 16 b0 0b 22
        E 16 b0 0b 2a
        E 16 b0 0b 33
        E 16 b0 0b 3b
        E 16 b0 0b 44
        E 16 b0 0b 7f
        E 0 80 38 00
        E 0 90 3f 7f
        E 16 b0 0b 77
        E 16 b0 0b 6e
        E 16 b0 0b 66
        E 16 b0 0b 5d
        E 16 b0 0b 55
        E 16 b0 0b 4c
        E 16 b0 0b 44
        E 16 b0 0b 4c
        E 16 b0 0b 55
        E 16 b0 0b 5d
        E 16 b0 0b 66
        E 16 b0 0b 5d
        E 16 b0 0b 55
        E 16 b0 0b 4c
        E 16 b0 0b 44
        E 16 b0 0b 3b
        E 16 b0 0b 33
        E 16 b0 0b 2a
        E 16 b0 0b 22
        E 16 b0 0b 2a
        E 16 b0 0b 33
        E 16 b0 0b 3b
        E 16 b0 0b 44
        E 16 b0 0b 7f
        E 0 80 3f 00
        E 0 90 3d 7f
        E 16 b0 0b 77
        E 16 b0 0b 6e
        E 16 b0 0b 66
        E 16 b0 0b 5d
        E 16 b0 0b 55
        E 16 b0 0b 4c
        E 16 b0 0b 44
        E 16 b0 0b 4c
        E 16 b0 0b 55
        E 16 b0 0b 5d
        E 16 b0 0b 66
        E 16 b0 0b 5d
        E 16 b0 0b 55
        E 16 b0 0b 4c
        E 16 b0 0b 44
        E 16 b0 0b 3b
        E 16 b0 0b 33
        E 16 b0 0b 2a
        E 16 b0 0b 22
        E 16 b0 0b 2a
        E 16 b0 0b 33
        E 16 b0 0b 3b
        E 16 b0 0b 44
        E 16 b0 0b 3b
        E 16 b0 0b 33
        E 16 b0 0b 2a
        E 16 b0 0b 22
        E 16 b0 0b 19
        E 16 b0 0b 11
        E 16 b0 0b 08
        E 16 80 3d 00
        E 272 b0 0b 7f
        E 0 90 3f 7f
        E 16 b0 0b 77
        E 16 b0 0b 6e
        E 16 b0 0b 66
        E 16 b0 0b 5d
        E 16 b0 0b 55
        E 16 b0 0b 4c
        E 16 b0 0b 44
        E 16 b0 0b 4c
        E 16 b0 0b 55
        E 16 b0 0b 5d
        E 16 b0 0b 66
        E 16 b0 0b 5d
        E 16 b0 0b 55
        E 16 b0 0b 4c
        E 16 b0 0b 44
        E 16 b0 0b 3b
        E 16 b0 0b 33
        E 16 b0 0b 2a
        E 16 b0 0b 22
        E 16 b0 0b 2a
        E 16 b0 0b 33
        E 16 b0 0b 3b
        E 16 b0 0b 44
        E 16 b0 0b 7f
        E 0 80 3f 00
        E 0 90 40 7f
        E 16 b0 0b 77
        E 16 b0 0b 6e
        E 16 b0 0b 66
        E 16 b0 0b 5d
        E 16 b0 0b 55
        E 16 b0 0b 4c
        E 16 b0 0b 44
        E 16 b0 0b 4c
        E 16 b0 0b 55
        E 16 b0 0b 5d
        E 16 b0 0b 66
        E 16 b0 0b 5d
        E 16 b0 0b 55
        E 16 b0 0b 4c
        E 16 b0 0b 44
        E 16 b0 0b 3b
        E 16 b0 0b 33
        E 16 b0 0b 2a
        E 16 b0 0b 22
        E 16 b0 0b 2a
        E 16 b0 0b 33
        E 16 b0 0b 3b
        E 16 b0 0b 44
        E 16 b0 0b 7f
        E 0 80 40 00
        E 0 90 3f 7f
        E 16 b0 0b 77
        E 16 b0 0b 6e
        E 16 b0 0b 66
        E 16 b0 0b 5d
        E 16 b0 0b 55
        E 16 b0 0b 4c
        E 16 b0 0b 44
        E 16 b0 0b 4c
        E 16 b0 0b 55
        E 16 b0 0b 5d
        E 16 b0 0b 66
        E 16 b0 0b 5d
        E 16 b0 0b 55
        E 16 b0 0b 4c
        E 16 b0 0b 44
        E 16 b0 0b 3b
        E 16 b0 0b 33
        E 16 b0 0b 2a
        E 16 b0 0b 22
        E 16 b0 0b 2a
        E 16 b0 0b 33
        E 16 b0 0b 3b
        E 16 b0 0b 44
        E 16 b0 0b 3b
        E 16 b0 0b 33
        E 16 b0 0b 2a
        E 16 b0 0b 22
        E 16 b0 0b 19
        E 16 b0 0b 11
        E 16 b0 0b 08
        E 16 80 3f 00
        E 272 b0 0b 7f
        E 0 90 3b 7f
        E 16 b0 0b 77
        E 16 b0 0b 6e
        E 16 b0 0b 66
        E 16 b0 0b 5d
        E 16 b0 0b 55
        E 16 b0 0b 4c
        E 16 b0 0b 44
        E 16 b0 0b 4c
        E 16 b0 0b 55
        E 16 b0 0b 5d
        E 16 b0 0b 66
        E 16 b0 0b 5d
        E 16 b0 0b 55
        E 16 b0 0b 4c
        E 16 b0 0b 44
        E 16 b0 0b 3b
        E 16 b0 0b 33
        E 16 b0 0b 2a
        E 16 b0 0b 22
        E 16 b0 0b 2a
        E 16 b0 0b 33
        E 16 b0 0b 3b
        E 16 b0 0b 44
        E 16 b0 0b 3b
        E 16 b0 0b 33
        E 16 b0 0b 2a
        E 16 b0 0b 22
        E 16 b0 0b 19
        E 16 b0 0b 11
        E 16 b0 0b 08
        E 16 80 3b 00
        E 1040 b0 0b 7f
        E 0 90 3f 7f
        E 16 b0 0b 77
        E 16 b0 0b 6e
        E 16 b0 0b 66
        E 16 b0 0b 5d
        E 16 b0 0b 55
        E 16 b0 0b 4c
        E 16 b0 0b 44
        E 16 b0 0b 4c
        E 16 b0 0b 55
        E 16 b0 0b 5d
        E 16 b0 0b 66
        E 16 b0 0b 5d
        E 16 b0 0b 55
        E 16 b0 0b 4c
        E 16 b0 0b 44
        E 16 b0 0b 3b
        E 16 b0 0b 33
        E 16 b0 0b 2a
        E 16 b0 0b 22
        E 16 b0 0b 2a
        E 16 b0 0b 33
        E 16 b0 0b 3b
        E 16 b0 0b 44
        E 16 b0 0b 7f
        E 0 80 3f 00
        E 0 90 3d 7f
        E 16 b0 0b 77
        E 16 b0 0b 6e
        E 16 b0 0b 66
        E 16 b0 0b 5d
        E 16 b0 0b 55
        E 16 b0 0b 4c
        E 16 b0 0b 44
        E 16 b0 0b 4c
        E 16 b0 0b 55
        E 16 b0 0b 5d
        E 16 b0 0b 66
        E 16 b0 0b 5d
        E 16 b0 0b 55
        E 16 b0 0b 4c
        E 16 b0 0b 44
        E 16 b0 0b 3b
        E 16 b0 0b 33
        E 16 b0 0b 2a
        E 16 b0 0b 22
        E 16 b0 0b 2a
        E 16 b0 0b 33
        E 16 b0 0b 3b
        E 16 b0 0b 44
        E 16 b0 0b 7f
        E 0 80 3d 00
        E 0 90 3b 7f
        E 16 b0 0b 77
        E 16 b0 0b 6e
        E 16 b0 0b 66
        E 16 b0 0b 5d
        E 16 b0 0b 55
        E 16 b0 0b 4c
        E 16 b0 0b 44
        E 16 b0 0b 4c
        E 16 b0 0b 55
        E 16 b0 0b 5d
        E 16 b0 0b 66
        E 16 b0 0b 5d
        E 16 b0 0b 55
        E 16 b0 0b 4c
        E 16 b0 0b 44
        E 16 b0 0b 3b
        E 16 b0 0b 33
        E 16 b0 0b 2a
        E 16 b0 0b 22
        E 16 b0 0b 2a
        E 16 b0 0b 33
        E 16 b0 0b 3b
        E 16 b0 0b 44
        E 16 b0 0b 7f
        E 0 80 3b 00
        E 0 90 3a 7f
        E 16 b0 0b 77
        E 16 b0 0b 6e
        E 16 b0 0b 66
        E 16 b0 0b 5d
        E 16 b0 0b 55
        E 16 b0 0b 4c
        E 16 b0 0b 44
        E 16 b0 0b 4c
        E 16 b0 0b 55
        E 16 b0 0b 5d
        E 16 b0 0b 66
        E 16 b0 0b 5d
        E 16 b0 0b 55
        E 16 b0 0b 4c
        E 16 b0 0b 44
        E 16 b0 0b 3b
        E 16 b0 0b 33
        E 16 b0 0b 2a
        E 16 b0 0b 22
        E 16 b0 0b 2a
        E 16 b0 0b 33
        E 16 b0 0b 3b
        E 16 b0 0b 44
        E 16 b0 0b 7f
        E 0 80 3a 00
        E 0 90 38 7f
        E 16 b0 0b 77
        E 16 b0 0b 6e
        E 16 b0 0b 66
        E 16 b0 0b 5d
        E 16 b0 0b 55
        E 16 b0 0b 4c
        E 16 b0 0b 44
        E 16 b0 0b 4c
        E 16 b0 0b 55
        E 16 b0 0b 5d
        E 16 b0 0b 66
        E 16 b0 0b 5d
        E 16 b0 0b 55
        E 16 b0 0b 4c
        E 16 b0 0b 44
        E 16 b0 0b 3b
        E 16 b0 0b 33
        E 16 b0 0b 2a
        E 16 b0 0b 22
        E 16 b0 0b 2a
        E 16 b0 0b 33
        E 16 b0 0b 3b
        E 16 b0 0b 44
        E 16 b0 0b 7f
        E 0 80 38 00
        E 0 90 3b 7f
        E 16 b0 0b 77
        E 16 b0 0b 6e
        E 16 b0 0b 66
        E 16 b0 0b 5d
        E 16 b0 0b 55
        E 16 b0 0b 4c
        E 16 b0 0b 44
        E 16 b0 0b 4c
        E 16 b0 0b 55
        E 16 b0 0b 5d
        E 16 b0 0b 66
        E 16 b0 0b 5d
        E 16 b0 0b 55
        E 16 b0 0b 4c
        E 16 b0 0b 44
        E 16 b0 0b 3b
        E 16 b0 0b 33
        E 16 b0 0b 2a
        E 16 b0 0b 22
        E 16 b0 0b 2a
        E 16 b0 0b 33
        E 16 b0 0b 3b
        E 16 b0 0b 44
        E 16 b0 0b 66
        E 0 80 3b 00
        E 0 90 3a 66
        E 16 b0 0b 5d
        E 16 b0 0b 55
        E 16 b0 0b 4c
        E 16 b0 0b 44
        E 16 b0 0b 3b
        E 16 b0 0b 33
        E 16 b0 0b 2a
        E 16 b0 0b 22
        E 16 b0 0b 2a
        E 16 b0 0b 33
        E 16 b0 0b 3b
        E 16 b0 0b 44
        E 16 b0 0b 3b
        E 16 b0 0b 33
        E 16 b0 0b 2a
        E 16 b0 0b 22
        E 16 b0 0b 2a
        E 16 b0 0b 33
        E 16 b0 0b 3b
        E 16 b0 0b 44
        E 16 b0 0b 3b
        E 16 b0 0b 33
        E 16 b0 0b 2a
        E 16 b0 0b 22
        E 16 b0 0b 2a
        E 16 b0 0b 33
        E 16 b0 0b 3b
        E 16 b0 0b 44
        E 16 b0 0b 4c
        E 16 b0 0b 55
        E 16 b0 0b 5d
        E 2576 b0 0b 66
        E 0 80 3a 00
        E 0 90 3b 66
        E 16 b0 0b 5d
        E 16 b0 0b 55
        E 16 b0 0b 4c
        E 16 b0 0b 44
        E 16 b0 0b 3b
        E 16 b0 0b 33
        E 16 b0 0b 2a
        E 16 b0 0b 22
        E 16 b0 0b 2a
        E 16 b0 0b 33
        E 16 b0 0b 3b
        E 16 b0 0b 44
        E 16 b0 0b 3b
        E 16 b0 0b 33
        E 16 b0 0b 2a
        E 16 b0 0b 22
        E 16 b0 0b 2a
        E 16 b0 0b 33
        E 16 b0 0b 3b
        E 16 b0 0b 44
        E 16 b0 0b 3b
        E 16 b0 0b 33
        E 16 b0 0b 2a
        E 16 b0 0b 22
        E 16 b0 0b 2a
        E 16 b0 0b 33
        E 16 b0 0b 3b
        E 16 b0 0b 44
        E 16 b0 0b 4c
        E 16 b0 0b 55
        E 16 b0 0b 5d
        E 272 b0 0b 66
        E 0 80 3b 00
        E 0 90 38 66
        E 16 b0 0b 5d
        E 16 b0 0b 55
        E 16 b0 0b 4c
        E 16 b0 0b 44
        E 16 b0 0b 3b
        E 16 b0 0b 33
        E 16 b0 0b 2a
        E 16 b0 0b 22
        E 16 b0 0b 2a
        E 16 b0 0b 33
        E 16 b0 0b 3b
        E 16 b0 0b 44
        E 16 b0 0b 3b
        E 16 b0 0b 33
        E 16 b0 0b 2a
        E 16 b0 0b 22
        E 16 b0 0b 2a
        E 16 b0 0b 33
        E 16 b0 0b 3b
        E 16 b0 0b 44
        E 16 b0 0b 3b
        E 16 b0 0b 33
        E 16 b0 0b 2a
        E 16 b0 0b 66
        E 0 80 38 00
        E 0 90 3b 66
        E 16 b0 0b 5d
        E 16 b0 0b 55
        E 16 b0 0b 4c
        E 16 b0 0b 44
        E 16 b0 0b 3b
        E 16 b0 0b 33
        E 16 b0 0b 2a
        E 16 b0 0b 22
        E 16 b0 0b 2a
        E 16 b0 0b 33
        E 16 b0 0b 3b
        E 16 b0 0b 44
        E 16 b0 0b 3b
        E 16 b0 0b 33
        E 16 b0 0b 2a
        E 16 b0 0b 22
        E 16 b0 0b 2a
        E 16 b0 0b 33
        E 16 b0 0b 3b
        E 16 b0 0b 44
        E 16 b0 0b 3b
        E 16 b0 0b 33
        E 16 b0 0b 2a
        E 16 b0 0b 66
        E 0 80 3b 00
        E 0 90 3a 66
        E 16 b0 0b 5d
        E 16 b0 0b 55
        E 16 b0 0b 4c
        E 16 b0 0b 44
        E 16 b0 0b 3b
        E 16 b0 0b 33
        E 16 b0 0b 2a
        E 16 b0 0b 22
        E 16 b0 0b 2a
        E 16 b0 0b 33
        E 16 b0 0b 3b
        E 16 b0 0b 44
        E 16 b0 0b 3b
        E 16 b0 0b 33
        E 16 b0 0b 2a
        E 16 b0 0b 22
        E 16 b0 0b 2a
        E 16 b0 0b 33
        E 16 b0 0b 3b
        E 16 b0 0b 44
        E 16 b0 0b 3b
        E 16 b0 0b 33
        E 16 b0 0b 2a
        E 16 b0 0b 66
        E 0 80 3a 00
        E 0 90 38 66
        E 16 b0 0b 5d
        E 16 b0 0b 55
        E 16 b0 0b 4c
        E 16 b0 0b 44
        E 16 b0 0b 3b
        E 16 b0 0b 33
        E 16 b0 0b 2a
        E 16 b0 0b 22
        E 16 b0 0b 2a
        E 16 b0 0b 33
        E 16 b0 0b 3b
        E 16 b0 0b 44
        E 16 b0 0b 3b
        E 16 b0 0b 33
        E 16 b0 0b 2a
        E 16 b0 0b 22
        E 16 b0 0b 2a
        E 16 b0 0b 33
        E 16 b0 0b 3b
        E 16 b0 0b 44
        E 16 b0 0b 3b
        E 16 b0 0b 33
        E 16 b0 0b 2a
        E 16 b0 0b 66
        E 0 80 38 00
        E 0 90 36 66
        E 16 b0 0b 5d
        E 16 b0 0b 55
        E 16 b0 0b 4c
        E 16 b0 0b 44
        E 16 b0 0b 3b
        E 16 b0 0b 33
        E 16 b0 0b 2a
        E 16 b0 0b 22
        E 16 b0 0b 2a
        E 16 b0 0b 33
        E 16 b0 0b 3b
        E 16 b0 0b 44
        E 16 b0 0b 3b
        E 16 b0 0b 33
        E 16 b0 0b 2a
        E 16 b0 0b 22
        E 16 b0 0b 2a
        E 16 b0 0b 33
        E 16 b0 0b 3b
        E 16 b0 0b 44
        E 16 b0 0b 3b
        E 16 b0 0b 33
        E 16 b0 0b 2a
        E 16 b0 0b 66
        E 0 80 36 00
        E 0 90 3a 66
        E 16 b0 0b 5d
        E 16 b0 0b 55
        E 16 b0 0b 4c
        E 16 b0 0b 44
        E 16 b0 0b 3b
        E 16 b0 0b 33
        E 16 b0 0b 2a
        E 16 b0 0b 22
        E 16 b0 0b 2a
        E 16 b0 0b 33
        E 16 b0 0b 3b
        E 16 b0 0b 44
        E 16 b0 0b 3b
        E 16 b0 0b 33
        E 16 b0 0b 2a
        E 16 b0 0b 22
        E 16 b0 0b 2a
        E 16 b0 0b 33
        E 16 b0 0b 3b
        E 16 b0 0b 44
        E 16 b0 0b 3b
        E 16 b0 0b 33
        E 16 b0 0b 2a
        E 16 b0 0b 66
        E 0 80 3a 00
        E 0 90 38 66
        E 16 b0 0b 5d
        E 16 b0 0b 55
        E 16 b0 0b 4c
        E 16 b0 0b 44
        E 16 b0 0b 3b
        E 16 b0 0b 33
        E 16 b0 0b 2a
        E 16 b0 0b 22
        E 16 b0 0b 2a
        E 16 b0 0b 33
        E 16 b0 0b 3b
        E 16 b0 0b 44
        E 16 b0 0b 3b
        E 16 b0 0b 33
        E 16 b0 0b 2a
        E 16 b0 0b 22
        E 16 b0 0b 2a
        E 16 b0 0b 33
        E 16 b0 0b 3b
        E 16 b0 0b 44
        E 16 b0 0b 3b
        E 16 b0 0b 33
        E 16 b0 0b 2a
        E 16 b0 0b 22
        E 16 b0 0b 2a
        E 16 b0 0b 33
        E 16 b0 0b 3b
        E 16 b0 0b 44
        E 16 b0 0b 4c
        E 16 b0 0b 55
        E 16 b0 0b 5d
        E 2576 b0 0b 66
        E 0 80 38 00
        E 0 90 3b 66
        E 16 b0 0b 5d
        E 16 b0 0b 55
        E 16 b0 0b 4c
        E 16 b0 0b 44
        E 16 b0 0b 3b
        E 16 b0 0b 33
        E 16 b0 0b 2a
        E 16 b0 0b 22
        E 16 b0 0b 2a
        E 16 b0 0b 33
        E 16 b0 0b 3b
        E 16 b0 0b 44
        E 16 b0 0b 3b
        E 16 b0 0b 33
        E 16 b0 0b 2a
        E 16 b0 0b 22
        E 16 b0 0b 2a
        E 16 b0 0b 33
        E 16 b0 0b 3b
        E 16 b0 0b 44
        E 16 b0 0b 3b
        E 16 b0 0b 33
        E 16 b0 0b 2a
        E 16 b0 0b 22
        E 16 b0 0b 2a
        E 16 b0 0b 33
        E 16 b0 0b 3b
        E 16 b0 0b 44
        E 16 b0 0b 4c
        E 16 b0 0b 55
        E 16 b0 0b 5d
        E 272 b0 0b 66
        E 0 80 3b 00
        E 0 90 3d 66
        E 16 b0 0b 5d
        E 16 b0 0b 55
        E 16 b0 0b 4c
        E 16 b0 0b 44
        E 16 b0 0b 3b
        E 16 b0 0b 33
        E 16 b0 0b 2a
        E 16 b0 0b 22
        E 16 b0 0b 2a
        E 16 b0 0b 33
        E 16 b0 0b 3b
        E 16 b0 0b 44
        E 16 b0 0b 3b
        E 16 b0 0b 33
        E 16 b0 0b 2a
        E 16 b0 0b 22
        E 16 b0 0b 2a
        E 16 b0 0b 33
        E 16 b0 0b 3b
        E 16 b0 0b 44
        E 16 b0 0b 3b
        E 16 b0 0b 33
        E 16 b0 0b 2a
        E 16 b0 0b 66
        E 0 80 3d 00
        E 0 90 3b 66
        E 16 b0 0b 5d
        E 16 b0 0b 55
        E 16 b0 0b 4c
        E 16 b0 0b 44
        E 16 b0 0b 3b
        E 16 b0 0b 33
        E 16 b0 0b 2a
        E 16 b0 0b 22
        E 16 b0 0b 2a
        E 16 b0 0b 33
        E 16 b0 0b 3b
        E 16 b0 0b 44
        E 16 b0 0b 3b
        E 16 b0 0b 33
        E 16 b0 0b 2a
        E 16 b0 0b 22
        E 16 b0 0b 2a
        E 16 b0 0b 33
        E 16 b0 0b 3b
        E 16 b0 0b 44
        E 16 b0 0b 3b
        E 16 b0 0b 33
        E 16 b0 0b 2a
        E 16 b0 0b 66
        E 0 80 3b 00
        E 0 90 3a 66
        E 16 b0 0b 5d
        E 16 b0 0b 55
        E 16 b0 0b 4c
        E 16 b0 0b 44
        E 16 b0 0b 3b
        E 16 b0 0b 33
        E 16 b0 0b 2a
        E 16 b0 0b 22
        E 16 b0 0b 2a
        E 16 b0 0b 33
        E 16 b0 0b 3b
        E 16 b0 0b 44
        E 16 b0 0b 3b
        E 16 b0 0b 33
        E 16 b0 0b 2a
        E 16 b0 0b 22
        E 16 b0 0b 2a
        E 16 b0 0b 33
        E 16 b0 0b 3b
        E 16 b0 0b 44
        E 16 b0 0b 3b
        E 16 b0 0b 33
        E 16 b0 0b 2a
        E 16 b0 0b 66
        E 0 80 3a 00
        E 0 90 38 66
        E 16 b0 0b 5d
        E 16 b0 0b 55
        E 16 b0 0b 4c
        E 16 b0 0b 44
        E 16 b0 0b 3b
        E 16 b0 0b 33
        E 16 b0 0b 2a
        E 16 b0 0b 22
        E 16 b0 0b 2a
        E 16 b0 0b 33
        E 16 b0 0b 3b
        E 16 b0 0b 44
        E 16 b0 0b 3b
        E 16 b0 0b 33
        E 16 b0 0b 2a
        E 16 b0 0b 22
        E 16 b0 0b 2a
        E 16 b0 0b 33
        E 16 b0 0b 3b
        E 16 b0 0b 44
        E 16 b0 0b 3b
        E 16 b0 0b 33
        E 16 b0 0b 2a
        E 16 b0 0b 66
        E 0 80 38 00
        E 0 90 36 66
        E 16 b0 0b 5d
        E 16 b0 0b 55
        E 16 b0 0b 4c
        E 16 b0 0b 44
        E 16 b0 0b 3b
        E 16 b0 0b 33
        E 16 b0 0b 2a
        E 16 b0 0b 22
        E 16 b0 0b 2a
        E 16 b0 0b 33
        E 16 b0 0b 3b
        E 16 b0 0b 44
        E 16 b0 0b 3b
        E 16 b0 0b 33
        E 16 b0 0b 2a
        E 16 b0 0b 22
        E 16 b0 0b 2a
        E 16 b0 0b 33
        E 16 b0 0b 3b
        E 16 b0 0b 44
        E 16 b0 0b 3b
        E 16 b0 0b 33
        E 16 b0 0b 2a
        E 16 b0 0b 66
        E 0 80 36 00
        E 0 90 40 66
        E 16 b0 0b 5d
        E 16 b0 0b 55
        E 16 b0 0b 4c
        E 16 b0 0b 44
        E 16 b0 0b 3b
        E 16 b0 0b 33
        E 16 b0 0b 2a
        E 16 b0 0b 22
        E 16 b0 0b 2a
        E 16 b0 0b 33
        E 16 b0 0b 3b
        E 16 b0 0b 44
        E 16 b0 0b 3b
        E 16 b0 0b 33
        E 16 b0 0b 2a
        E 16 b0 0b 22
        E 16 b0 0b 2a
        E 16 b0 0b 33
        E 16 b0 0b 3b
        E 16 b0 0b 44
        E 16 b0 0b 3b
        E 16 b0 0b 33
        E 16 b0 0b 2a
        E 16 b0 0b 66
        E 0 80 40 00
        E 0 90 3f 66
        E 16 b0 0b 5d
        E 16 b0 0b 55
        E 16 b0 0b 4c
        E 16 b0 0b 44
        E 16 b0 0b 3b
        E 16 b0 0b 33
        E 16 b0 0b 2a
        E 16 b0 0b 22
        E 16 b0 0b 2a
        E 16 b0 0b 33
        E 16 b0 0b 3b
        E 16 b0 0b 44
        E 16 b0 0b 3b
        E 16 b0 0b 33
        E 16 b0 0b 2a
        E 16 b0 0b 22
        E 16 b0 0b 2a
        E 16 b0 0b 33
        E 16 b0 0b 3b
        E 16 b0 0b 44
        E 16 b0 0b 3b
        E 16 b0 0b 33
        E 16 b0 0b 2a
        E 16 b0 0b 22
        E 16 b0 0b 2a
        E 16 b0 0b 33
        E 16 b0 0b 3b
        E 16 b0 0b 44
        E 16 b0 0b 4c
        E 16 b0 0b 55
        E 16 b0 0b 5d
        E 1808 80 3f 00
        E 384 b0 0b 44
        E 0 90 33 44
        E 64 80 33 00
        E 0 90 35 44
        E 64 80 35 00
        E 0 90 36 44
        E 64 80 36 00
        E 0 90 37 44
        E 64 80 37 00
        E 0 90 38 44
        E 64 80 38 00
        E 0 90 39 44
        E 64 b0 0b 7f
        E 0 80 39 00
        E 0 90 3a 7f
        E 16 b0 0b 77
        E 16 b0 0b 6e
        E 16 b0 0b 66
        E 16 b0 0b 5d
        E 16 b0 0b 55
        E 16 b0 0b 4c
        E 16 b0 0b 44
        E 16 b0 0b 4c
        E 16 b0 0b 55
        E 16 b0 0b 5d
        E 16 b0 0b 66
        E 16 b0 0b 5d
        E 16 b0 0b 55
        E 16 b0 0b 4c
        E 16 b0 0b 44
        E 16 b0 0b 3b
        E 16 b0 0b 33
        E 16 b0 0b 2a
        E 16 b0 0b 22
        E 16 b0 0b 2a
        E 16 b0 0b 33
        E 16 b0 0b 3b
        E 16 b0 0b 44
        E 16 b0 0b 3b
        E 16 b0 0b 33
        E 16 b0 0b 2a
        E 16 b0 0b 22
        E 16 b0 0b 19
        E 16 b0 0b 11
        E 16 b0 0b 08
        E 16 80 3a 00
        E 272 b0 0b 7f
        E 0 90 3b 7f
        E 16 b0 0b 77
        E 16 b0 0b 6e
        E 16 b0 0b 66
        E 16 b0 0b 5d
        E 16 b0 0b 55
        E 16 b0 0b 4c
        E 16 b0 0b 44
        E 16 b0 0b 4c
        E 16 b0 0b 55
        E 16 b0 0b 5d
        E 16 b0 0b 66
        E 16 b0 0b 5d
        E 16 b0 0b 55
        E 16 b0 0b 4c
        E 16 b0 0b 44
        E 16 b0 0b 3b
        E 16 b0 0b 33
        E 16 b0 0b 2a
        E 16 b0 0b 22
        E 16 b0 0b 2a
        E 16 b0 0b 33
        E 16 b0 0b 3b
        E 16 b0 0b 44
        E 16 b0 0b 7f
        E 0 80 3b 00
        E 0 90 3d 7f
        E 16 b0 0b 77
        E 16 b0 0b 6e
        E 16 b0 0b 66
        E 16 b0 0b 5d
        E 16 b0 0b 55
        E 16 b0 0b 4c
        E 16 b0 0b 44
        E 16 b0 0b 4c
        E 16 b0 0b 55
        E 16 b0 0b 5d
        E 16 b0 0b 66
        E 16 b0 0b 5d
        E 16 b0 0b 55
        E 16 b0 0b 4c
        E 16 b0 0b 44
        E 16 b0 0b 3b
        E 16 b0 0b 33
        E 16 b0 0b 2a
        E 16 b0 0b 22
        E 16 b0 0b 2a
        E 16 b0 0b 33
        E 16 b0 0b 3b
        E 16 b0 0b 44
        E 16 b0 0b 7f
        E 0 80 3d 00
        E 0 90 3b 7f
        E 16 b0 0b 77
        E 16 b0 0b 6e
        E 16 b0 0b 66
        E 16 b0 0b 5d
        E 16 b0 0b 55
        E 16 b0 0b 4c
        E 16 b0 0b 44
        E 16 b0 0b 4c
        E 16 b0 0b 55
        E 16 b0 0b 5d
        E 16 b0 0b 66
        E 16 b0 0b 5d
        E 16 b0 0b 55
        E 16 b0 0b 4c
        E 16 b0 0b 44
        E 16 b0 0b 3b
        E 16 b0 0b 33
        E 16 b0 0b 2a
        E 16 b0 0b 22
        E 16 b0 0b 2a
        E 16 b0 0b 33
        E 16 b0 0b 3b
        E 16 b0 0b 44
        E 16 b0 0b 7f
        E 0 80 3b 00
        E 0 90 3a 7f
        E 16 b0 0b 77
        E 16 b0 0b 6e
        E 16 b0 0b 66
        E 16 b0 0b 5d
        E 16 b0 0b 55
        E 16 b0 0b 4c
        E 16 b0 0b 44
        E 16 b0 0b 4c
        E 16 b0 0b 55
        E 16 b0 0b 5d
        E 16 b0 0b 66
        E 16 b0 0b 5d
        E 16 b0 0b 55
        E 16 b0 0b 4c
        E 16 b0 0b 44
        E 16 b0 0b 3b
        E 16 b0 0b 33
        E 16 b0 0b 2a
        E 16 b0 0b 22
        E 16 b0 0b 2a
        E 16 b0 0b 33
        E 16 b0 0b 3b
        E 16 b0 0b 44
        E 16 b0 0b 7f
        E 0 80 3a 00
        E 0 90 38 7f
        E 16 b0 0b 77
        E 16 b0 0b 6e
        E 16 b0 0b 66
        E 16 b0 0b 5d
        E 16 b0 0b 55
        E 16 b0 0b 4c
        E 16 b0 0b 44
        E 16 b0 0b 4c
        E 16 b0 0b 55
        E 16 b0 0b 5d
        E 16 b0 0b 66
        E 16 b0 0b 5d
        E 16 b0 0b 55
        E 16 b0 0b 4c
        E 16 b0 0b 44
        E 16 b0 0b 3b
        E 16 b0 0b 33
        E 16 b0 0b 2a
        E 16 b0 0b 22
        E 16 b0 0b 2a
        E 16 b0 0b 33
        E 16 b0 0b 3b
        E 16 b0 0b 44
        E 16 b0 0b 7f
        E 0 80 38 00
        E 0 90 3f 7f
        E 16 b0 0b 77
        E 16 b0 0b 6e
        E 16 b0 0b 66
        E 16 b0 0b 5d
        E 16 b0 0b 55
        E 16 b0 0b 4c
        E 16 b0 0b 44
        E 16 b0 0b 4c
        E 16 b0 0b 55
        E 16 b0 0b 5d
        E 16 b0 0b 66
        E 16 b0 0b 5d
        E 16 b0 0b 55
        E 16 b0 0b 4c
        E 16 b0 0b 44
        E 16 b0 0b 3b
        E 16 b0 0b 33
        E 16 b0 0b 2a
        E 16 b0 0b 22
        E 16 b0 0b 2a
        E 16 b0 0b 33
        E 16 b0 0b 3b
        E 16 b0 0b 44
        E 16 b0 0b 7f
        E 0 80 3f 00
        E 0 90 3d 7f
        E 16 b0 0b 77
        E 16 b0 0b 6e
        E 16 b0 0b 66
        E 16 b0 0b 5d
        E 16 b0 0b 55
        E 16 b0 0b 4c
        E 16 b0 0b 44
        E 16 b0 0b 4c
        E 16 b0 0b 55
        E 16 b0 0b 5d
        E 16 b0 0b 66
        E 16 b0 0b 5d
        E 16 b0 0b 55
        E 16 b0 0b 4c
        E 16 b0 0b 44
        E 16 b0 0b 3b
        E 16 b0 0b 33
        E 16 b0 0b 2a
        E 16 b0 0b 22
        E 16 b0 0b 2a
        E 16 b0 0b 33
        E 16 b0 0b 3b
        E 16 b0 0b 44
        E 16 b0 0b 3b
        E 16 b0 0b 33
        E 16 b0 0b 2a
        E 16 b0 0b 22
        E 16 b0 0b 19
        E 16 b0 0b 11
        E 16 b0 0b 08
        E 16 80 3d 00
        E 272 b0 0b 7f
        E 0 90 3f 7f
        E 16 b0 0b 77
        E 16 b0 0b 6e
        E 16 b0 0b 66
        E 16 b0 0b 5d
        E 16 b0 0b 55
        E 16 b0 0b 4c
        E 16 b0 0b 44
        E 16 b0 0b 4c
        E 16 b0 0b 55
        E 16 b0 0b 5d
        E 16 b0 0b 66
        E 16 b0 0b 5d
        E 16 b0 0b 55
        E 16 b0 0b 4c
        E 16 b0 0b 44
        E 16 b0 0b 3b
        E 16 b0 0b 33
        E 16 b0 0b 2a
        E 16 b0 0b 22
        E 16 b0 0b 2a
        E 16 b0 0b 33
        E 16 b0 0b 3b
        E 16 b0 0b 44
        E 16 b0 0b 7f
        E 0 80 3f 00
        E 0 90 40 7f
        E 16 b0 0b 77
        E 16 b0 0b 6e
        E 16 b0 0b 66
        E 16 b0 0b 5d
        E 16 b0 0b 55
        E 16 b0 0b 4c
        E 16 b0 0b 44
        E 16 b0 0b 4c
        E 16 b0 0b 55
        E 16 b0 0b 5d
        E 16 b0 0b 66
        E 16 b0 0b 5d
        E 16 b0 0b 55
        E 16 b0 0b 4c
        E 16 b0 0b 44
        E 16 b0 0b 3b
        E 16 b0 0b 33
        E 16 b0 0b 2a
        E 16 b0 0b 22
        E 16 b0 0b 2a
        E 16 b0 0b 33
        E 16 b0 0b 3b
        E 16 b0 0b 44
        E 16 b0 0b 7f
        E 0 80 40 00
        E 0 90 3f 7f
        E 16 b0 0b 77
        E 16 b0 0b 6e
        E 16 b0 0b 66
        E 16 b0 0b 5d
        E 16 b0 0b 55
        E 16 b0 0b 4c
        E 16 b0 0b 44
        E 16 b0 0b 4c
        E 16 b0 0b 55
        E 16 b0 0b 5d
        E 16 b0 0b 66
        E 16 b0 0b 5d
        E 16 b0 0b 55
        E 16 b0 0b 4c
        E 16 b0 0b 44
        E 16 b0 0b 3b
        E 16 b0 0b 33
        E 16 b0 0b 2a
        E 16 b0 0b 22
        E 16 b0 0b 2a
        E 16 b0 0b 33
        E 16 b0 0b 3b
        E 16 b0 0b 44
        E 16 b0 0b 3b
        E 16 b0 0b 33
        E 16 b0 0b 2a
        E 16 b0 0b 22
        E 16 b0 0b 19
        E 16 b0 0b 11
        E 16 b0 0b 08
        E 16 80 3f 00
        E 272 b0 0b 7f
        E 0 90 3b 7f
        E 16 b0 0b 77
        E 16 b0 0b 6e
        E 16 b0 0b 66
        E 16 b0 0b 5d
        E 16 b0 0b 55
        E 16 b0 0b 4c
        E 16 b0 0b 44
        E 16 b0 0b 4c
        E 16 b0 0b 55
        E 16 b0 0b 5d
        E 16 b0 0b 66
        E 16 b0 0b 5d
        E 16 b0 0b 55
        E 16 b0 0b 4c
        E 16 b0 0b 44
        E 16 b0 0b 3b
        E 16 b0 0b 33
        E 16 b0 0b 2a
        E 16 b0 0b 22
        E 16 b0 0b 2a
        E 16 b0 0b 33
        E 16 b0 0b 3b
        E 16 b0 0b 44
        E 16 b0 0b 3b
        E 16 b0 0b 33
        E 16 b0 0b 2a
        E 16 b0 0b 22
        E 16 b0 0b 19
        E 16 b0 0b 11
        E 16 b0 0b 08
        E 16 80 3b 00
        E 1040 b0 0b 7f
        E 0 90 3f 7f
        E 16 b0 0b 77
        E 16 b0 0b 6e
        E 16 b0 0b 66
        E 16 b0 0b 5d
        E 16 b0 0b 55
        E 16 b0 0b 4c
        E 16 b0 0b 44
        E 16 b0 0b 4c
        E 16 b0 0b 55
        E 16 b0 0b 5d
        E 16 b0 0b 66
        E 16 b0 0b 5d
        E 16 b0 0b 55
        E 16 b0 0b 4c
        E 16 b0 0b 44
        E 16 b0 0b 3b
        E 16 b0 0b 33
        E 16 b0 0b 2a
        E 16 b0 0b 22
        E 16 b0 0b 2a
        E 16 b0 0b 33
        E 16 b0 0b 3b
        E 16 b0 0b 44
        E 16 b0 0b 7f
        E 0 80 3f 00
        E 0 90 3d 7f
        E 16 b0 0b 77
        E 16 b0 0b 6e
        E 16 b0 0b 66
        E 16 b0 0b 5d
        E 16 b0 0b 55
        E 16 b0 0b 4c
        E 16 b0 0b 44
        E 16 b0 0b 4c
        E 16 b0 0b 55
        E 16 b0 0b 5d
        E 16 b0 0b 66
        E 16 b0 0b 5d
        E 16 b0 0b 55
        E 16 b0 0b 4c
        E 16 b0 0b 44
        E 16 b0 0b 3b
        E 16 b0 0b 33
        E 16 b0 0b 2a
        E 16 b0 0b 22
        E 16 b0 0b 2a
        E 16 b0 0b 33
        E 16 b0 0b 3b
        E 16 b0 0b 44
        E 16 b0 0b 7f
        E 0 80 3d 00
        E 0 90 3b 7f
        E 16 b0 0b 77
        E 16 b0 0b 6e
        E 16 b0 0b 66
        E 16 b0 0b 5d
        E 16 b0 0b 55
        E 16 b0 0b 4c
        E 16 b0 0b 44
        E 16 b0 0b 4c
        E 16 b0 0b 55
        E 16 b0 0b 5d
        E 16 b0 0b 66
        E 16 b0 0b 5d
        E 16 b0 0b 55
        E 16 b0 0b 4c
        E 16 b0 0b 44
        E 16 b0 0b 3b
        E 16 b0 0b 33
        E 16 b0 0b 2a
        E 16 b0 0b 22
        E 16 b0 0b 2a
        E 16 b0 0b 33
        E 16 b0 0b 3b
        E 16 b0 0b 44
        E 16 b0 0b 7f
        E 0 80 3b 00
        E 0 90 3a 7f
        E 16 b0 0b 77
        E 16 b0 0b 6e
        E 16 b0 0b 66
        E 16 b0 0b 5d
        E 16 b0 0b 55
        E 16 b0 0b 4c
        E 16 b0 0b 44
        E 16 b0 0b 4c
        E 16 b0 0b 55
        E 16 b0 0b 5d
        E 16 b0 0b 66
        E 16 b0 0b 5d
        E 16 b0 0b 55
        E 16 b0 0b 4c
        E 16 b0 0b 44
        E 16 b0 0b 3b
        E 16 b0 0b 33
        E 16 b0 0b 2a
        E 16 b0 0b 22
        E 16 b0 0b 2a
        E 16 b0 0b 33
        E 16 b0 0b 3b
        E 16 b0 0b 44
        E 16 b0 0b 7f
        E 0 80 3a 00
        E 0 90 38 7f
        E 16 b0 0b 77
        E 16 b0 0b 6e
        E 16 b0 0b 66
        E 16 b0 0b 5d
        E 16 b0 0b 55
        E 16 b0 0b 4c
        E 16 b0 0b 44
        E 16 b0 0b 4c
        E 16 b0 0b 55
        E 16 b0 0b 5d
        E 16 b0 0b 66
        E 16 b0 0b 5d
        E 16 b0 0b 55
        E 16 b0 0b 4c
        E 16 b0 0b 44
        E 16 b0 0b 3b
        E 16 b0 0b 33
        E 16 b0 0b 2a
        E 16 b0 0b 22
        E 16 b0 0b 2a
        E 16 b0 0b 33
        E 16 b0 0b 3b
        E 16 b0 0b 44
        E 16 b0 0b 7f
        E 0 80 38 00
        E 0 90 3b 7f
        E 16 b0 0b 77
        E 16 b0 0b 6e
        E 16 b0 0b 66
        E 16 b0 0b 5d
        E 16 b0 0b 55
        E 16 b0 0b 4c
        E 16 b0 0b 44
        E 16 b0 0b 4c
        E 16 b0 0b 55
        E 16 b0 0b 5d
        E 16 b0 0b 66
        E 16 b0 0b 5d
        E 16 b0 0b 55
        E 16 b0 0b 4c
        E 16 b0 0b 44
        E 16 b0 0b 3b
        E 16 b0 0b 33
        E 16 b0 0b 2a
        E 16 b0 0b 22
        E 16 b0 0b 2a
        E 16 b0 0b 33
        E 16 b0 0b 3b
        E 16 b0 0b 44
        E 16 b0 0b 66
        E 0 80 3b 00
        E 0 90 3a 66
        E 16 b0 0b 5d
        E 16 b0 0b 55
        E 16 b0 0b 4c
        E 16 b0 0b 44
        E 16 b0 0b 3b
        E 16 b0 0b 33
        E 16 b0 0b 2a
        E 16 b0 0b 22
        E 16 b0 0b 2a
        E 16 b0 0b 33
        E 16 b0 0b 3b
        E 16 b0 0b 44
        E 16 b0 0b 3b
        E 16 b0 0b 33
        E 16 b0 0b 2a
        E 16 b0 0b 22
        E 16 b0 0b 2a
        E 16 b0 0b 33
        E 16 b0 0b 3b
        E 16 b0 0b 44
        E 16 b0 0b 3b
        E 16 b0 0b 33
        E 16 b0 0b 2a
        E 16 b0 0b 22
        E 16 b0 0b 2a
        E 16 b0 0b 33
        E 16 b0 0b 3b
        E 16 b0 0b 44
        E 16 b0 0b 4c
        E 16 b0 0b 55
        E 16 b0 0b 5d
        E 2576 b0 0b 66
        E 0 80 3a 00
        E 0 90 3b 66
        E 16 b0 0b 5d
        E 16 b0 0b 55
        E 16 b0 0b 4c
        E 16 b0 0b 44
        E 16 b0 0b 3b
        E 16 b0 0b 33
        E 16 b0 0b 2a
        E 16 b0 0b 22
        E 16 b0 0b 2a
        E 16 b0 0b 33
        E 16 b0 0b 3b
        E 16 b0 0b 44
        E 16 b0 0b 3b
        E 16 b0 0b 33
        E 16 b0 0b 2a
        E 16 b0 0b 22
        E 16 b0 0b 2a
        E 16 b0 0b 33
        E 16 b0 0b 3b
        E 16 b0 0b 44
        E 16 b0 0b 3b
        E 16 b0 0b 33
        E 16 b0 0b 2a
        E 16 b0 0b 22
        E 16 b0 0b 2a
        E 16 b0 0b 33
        E 16 b0 0b 3b
        E 16 b0 0b 44
        E 16 b0 0b 4c
        E 16 b0 0b 55
        E 16 b0 0b 5d
        E 272 b0 0b 66
        E 0 80 3b 00
        E 0 90 38 66
        E 16 b0 0b 5d
        E 16 b0 0b 55
        E 16 b0 0b 4c
        E 16 b0 0b 44
        E 16 b0 0b 3b
        E 16 b0 0b 33
        E 16 b0 0b 2a
        E 16 b0 0b 22
        E 16 b0 0b 2a
        E 16 b0 0b 33
        E 16 b0 0b 3b
        E 16 b0 0b 44
        E 16 b0 0b 3b
        E 16 b0 0b 33
        E 16 b0 0b 2a
        E 16 b0 0b 22
        E 16 b0 0b 2a
        E 16 b0 0b 33
        E 16 b0 0b 3b
        E 16 b0 0b 44
        E 16 b0 0b 3b
        E 16 b0 0b 33
        E 16 b0 0b 2a
        E 16 b0 0b 66
        E 0 80 38 00
        E 0 90 3b 66
        E 16 b0 0b 5d
        E 16 b0 0b 55
        E 16 b0 0b 4c
        E 16 b0 0b 44
        E 16 b0 0b 3b
        E 16 b0 0b 33
        E 16 b0 0b 2a
        E 16 b0 0b 22
        E 16 b0 0b 2a
        E 16 b0 0b 33
        E 16 b0 0b 3b
        E 16 b0 0b 44
        E 16 b0 0b 3b
        E 16 b0 0b 33
        E 16 b0 0b 2a
        E 16 b0 0b 22
        E 16 b0 0b 2a
        E 16 b0 0b 33
        E 16 b0 0b 3b
        E 16 b0 0b 44
        E 16 b0 0b 3b
        E 16 b0 0b 33
        E 16 b0 0b 2a
        E 16 b0 0b 66
        E 0 80 3b 00
        E 0 90 3a 66
        E 16 b0 0b 5d
        E 16 b0 0b 55
        E 16 b0 0b 4c
        E 16 b0 0b 44
        E 16 b0 0b 3b
        E 16 b0 0b 33
        E 16 b0 0b 2a
        E 16 b0 0b 22
        E 16 b0 0b 2a
        E 16 b0 0b 33
        E 16 b0 0b 3b
        E 16 b0 0b 44
        E 16 b0 0b 3b
        E 16 b0 0b 33
        E 16 b0 0b 2a
        E 16 b0 0b 22
        E 16 b0 0b 2a
        E 16 b0 0b 33
        E 16 b0 0b 3b
        E 16 b0 0b 44
        E 16 b0 0b 3b
        E 16 b0 0b 33
        E 16 b0 0b 2a
        E 16 b0 0b 66
        E 0 80 3a 00
        E 0 90 38 66
        E 16 b0 0b 5d
        E 16 b0 0b 55
        E 16 b0 0b 4c
        E 16 b0 0b 44
        E 16 b0 0b 3b
        E 16 b0 0b 33
        E 16 b0 0b 2a
        E 16 b0 0b 22
        E 16 b0 0b 2a
        E 16 b0 0b 33
        E 16 b0 0b 3b
        E 16 b0 0b 44
        E 16 b0 0b 3b
        E 16 b0 0b 33
        E 16 b0 0b 2a
        E 16 b0 0b 22
        E 16 b0 0b 2a
        E 16 b0 0b 33
        E 16 b0 0b 3b
        E 16 b0 0b 44
        E 16 b0 0b 3b
        E 16 b0 0b 33
        E 16 b0 0b 2a
        E 16 b0 0b 66
        E 0 80 38 00
        E 0 90 36 66
        E 16 b0 0b 5d
        E 16 b0 0b 55
        E 16 b0 0b 4c
        E 16 b0 0b 44
        E 16 b0 0b 3b
        E 16 b0 0b 33
        E 16 b0 0b 2a
        E 16 b0 0b 22
        E 16 b0 0b 2a
        E 16 b0 0b 33
        E 16 b0 0b 3b
        E 16 b0 0b 44
        E 16 b0 0b 3b
        E 16 b0 0b 33
        E 16 b0 0b 2a
        E 16 b0 0b 22
        E 16 b0 0b 2a
        E 16 b0 0b 33
        E 16 b0 0b 3b
        E 16 b0 0b 44
        E 16 b0 0b 3b
        E 16 b0 0b 33
        E 16 b0 0b 2a
        E 16 b0 0b 66
        E 0 80 36 00
        E 0 90 3a 66
        E 16 b0 0b 5d
        E 16 b0 0b 55
        E 16 b0 0b 4c
        E 16 b0 0b 44
        E 16 b0 0b 3b
        E 16 b0 0b 33
        E 16 b0 0b 2a
        E 16 b0 0b 22
        E 16 b0 0b 2a
        E 16 b0 0b 33
        E 16 b0 0b 3b
        E 16 b0 0b 44
        E 16 b0 0b 3b
        E 16 b0 0b 33
        E 16 b0 0b 2a
        E 16 b0 0b 22
        E 16 b0 0b 2a
        E 16 b0 0b 33
        E 16 b0 0b 3b
        E 16 b0 0b 44
        E 16 b0 0b 3b
        E 16 b0 0b 33
        E 16 b0 0b 2a
        E 16 b0 0b 66
        E 0 80 3a 00
        E 0 90 38 66
        E 16 b0 0b 5d
        E 16 b0 0b 55
        E 16 b0 0b 4c
        E 16 b0 0b 44
        E 16 b0 0b 3b
        E 16 b0 0b 33
        E 16 b0 0b 2a
        E 16 b0 0b 22
        E 16 b0 0b 2a
        E 16 b0 0b 33
        E 16 b0 0b 3b
        E 16 b0 0b 44
        E 16 b0 0b 3b
        E 16 b0 0b 33
        E 16 b0 0b 2a
        E 16 b0 0b 22
        E 16 b0 0b 2a
        E 16 b0 0b 33
        E 16 b0 0b 3b
        E 16 b0 0b 44
        E 16 b0 0b 3b
        E 16 b0 0b 33
        E 16 b0 0b 2a
        E 16 b0 0b 22
        E 16 b0 0b 2a
        E 16 b0 0b 33
        E 16 b0 0b 3b
        E 16 b0 0b 44
        E 16 b0 0b 4c
        E 16 b0 0b 55
        E 16 b0 0b 5d
        E 2576 b0 0b 66
        E 0 80 38 00
        E 0 90 3b 66
        E 16 b0 0b 5d
        E 16 b0 0b 55
        E 16 b0 0b 4c
        E 16 b0 0b 44
        E 16 b0 0b 3b
        E 16 b0 0b 33
        E 16 b0 0b 2a
        E 16 b0 0b 22
        E 16 b0 0b 2a
        E 16 b0 0b 33
        E 16 b0 0b 3b
        E 16 b0 0b 44
        E 16 b0 0b 3b
        E 16 b0 0b 33
        E 16 b0 0b 2a
        E 16 b0 0b 22
        E 16 b0 0b 2a
        E 16 b0 0b 33
        E 16 b0 0b 3b
        E 16 b0 0b 44
        E 16 b0 0b 3b
        E 16 b0 0b 33
        E 16 b0 0b 2a
        E 16 b0 0b 22
        E 16 b0 0b 2a
        E 16 b0 0b 33
        E 16 b0 0b 3b
        E 16 b0 0b 44
        E 16 b0 0b 4c
        E 16 b0 0b 55
        E 16 b0 0b 5d
        E 272 b0 0b 66
        E 0 80 3b 00
        E 0 90 3d 66
        E 16 b0 0b 5d
        E 16 b0 0b 55
        E 16 b0 0b 4c
        E 16 b0 0b 44
        E 16 b0 0b 3b
        E 16 b0 0b 33
        E 16 b0 0b 2a
        E 16 b0 0b 22
        E 16 b0 0b 2a
        E 16 b0 0b 33
        E 16 b0 0b 3b
        E 16 b0 0b 44
        E 16 b0 0b 3b
        E 16 b0 0b 33
        E 16 b0 0b 2a
        E 16 b0 0b 22
        E 16 b0 0b 2a
        E 16 b0 0b 33
        E 16 b0 0b 3b
        E 16 b0 0b 44
        E 16 b0 0b 3b
        E 16 b0 0b 33
        E 16 b0 0b 2a
        E 16 b0 0b 66
        E 0 80 3d 00
        E 0 90 3b 66
        E 16 b0 0b 5d
        E 16 b0 0b 55
        E 16 b0 0b 4c
        E 16 b0 0b 44
        E 16 b0 0b 3b
        E 16 b0 0b 33
        E 16 b0 0b 2a
        E 16 b0 0b 22
        E 16 b0 0b 2a
        E 16 b0 0b 33
        E 16 b0 0b 3b
        E 16 b0 0b 44
        E 16 b0 0b 3b
        E 16 b0 0b 33
        E 16 b0 0b 2a
        E 16 b0 0b 22
        E 16 b0 0b 2a
        E 16 b0 0b 33
        E 16 b0 0b 3b
        E 16 b0 0b 44
        E 16 b0 0b 3b
        E 16 b0 0b 33
        E 16 b0 0b 2a
        E 16 b0 0b 66
        E 0 80 3b 00
        E 0 90 3a 66
        E 16 b0 0b 5d
        E 16 b0 0b 55
        E 16 b0 0b 4c
        E 16 b0 0b 44
        E 16 b0 0b 3b
        E 16 b0 0b 33
        E 16 b0 0b 2a
        E 16 b0 0b 22
        E 16 b0 0b 2a
        E 16 b0 0b 33
        E 16 b0 0b 3b
        E 16 b0 0b 44
        E 16 b0 0b 3b
        E 16 b0 0b 33
        E 16 b0 0b 2a
        E 16 b0 0b 22
        E 16 b0 0b 2a
        E 16 b0 0b 33
        E 16 b0 0b 3b
        E 16 b0 0b 44
        E 16 b0 0b 3b
        E 16 b0 0b 33
        E 16 b0 0b 2a
        E 16 b0 0b 66
        E 0 80 3a 00
        E 0 90 38 66
        E 16 b0 0b 5d
        E 16 b0 0b 55
        E 16 b0 0b 4c
        E 16 b0 0b 44
        E 16 b0 0b 3b
        E 16 b0 0b 33
        E 16 b0 0b 2a
        E 16 b0 0b 22
        E 16 b0 0b 2a
        E 16 b0 0b 33
        E 16 b0 0b 3b
        E 16 b0 0b 44
        E 16 b0 0b 3b
        E 16 b0 0b 33
        E 16 b0 0b 2a
        E 16 b0 0b 22
        E 16 b0 0b 2a
        E 16 b0 0b 33
        E 16 b0 0b 3b
        E 16 b0 0b 44
        E 16 b0 0b 3b
        E 16 b0 0b 33
        E 16 b0 0b 2a
        E 16 b0 0b 66
        E 0 80 38 00
        E 0 90 36 66
        E 16 b0 0b 5d
        E 16 b0 0b 55
        E 16 b0 0b 4c
        E 16 b0 0b 44
        E 16 b0 0b 3b
        E 16 b0 0b 33
        E 16 b0 0b 2a
        E 16 b0 0b 22
        E 16 b0 0b 2a
        E 16 b0 0b 33
        E 16 b0 0b 3b
        E 16 b0 0b 44
        E 16 b0 0b 3b
        E 16 b0 0b 33
        E 16 b0 0b 2a
        E 16 b0 0b 22
        E 16 b0 0b 2a
        E 16 b0 0b 33
        E 16 b0 0b 3b
        E 16 b0 0b 44
        E 16 b0 0b 3b
        E 16 b0 0b 33
        E 16 b0 0b 2a
        E 16 b0 0b 66
        E 0 80 36 00
        E 0 90 40 66
        E 16 b0 0b 5d
        E 16 b0 0b 55
        E 16 b0 0b 4c
        E 16 b0 0b 44
        E 16 b0 0b 3b
        E 16 b0 0b 33
        E 16 b0 0b 2a
        E 16 b0 0b 22
        E 16 b0 0b 2a
        E 16 b0 0b 33
        E 16 b0 0b 3b
        E 16 b0 0b 44
        E 16 b0 0b 3b
        E 16 b0 0b 33
        E 16 b0 0b 2a
        E 16 b0 0b 22
        E 16 b0 0b 2a
        E 16 b0 0b 33
        E 16 b0 0b 3b
        E 16 b0 0b 44
        E 16 b0 0b 3b
        E 16 b0 0b 33
        E 16 b0 0b 2a
        E 16 b0 0b 66
        E 0 80 40 00
        E 0 90 3f 66
        E 16 b0 0b 5d
        E 16 b0 0b 55
        E 16 b0 0b 4c
        E 16 b0 0b 44
        E 16 b0 0b 3b
        E 16 b0 0b 33
        E 16 b0 0b 2a
        E 16 b0 0b 22
        E 16 b0 0b 2a
        E 16 b0 0b 33
        E 16 b0 0b 3b
        E 16 b0 0b 44
        E 16 b0 0b 3b
        E 16 b0 0b 33
        E 16 b0 0b 2a
        E 16 b0 0b 22
        E 16 b0 0b 2a
        E 16 b0 0b 33
        E 16 b0 0b 3b
        E 16 b0 0b 44
        E 16 b0 0b 3b
        E 16 b0 0b 33
        E 16 b0 0b 2a
        E 16 b0 0b 22
        E 16 b0 0b 2a
        E 16 b0 0b 33
        E 16 b0 0b 3b
        E 16 b0 0b 44
        E 16 b0 0b 4c
        E 16 b0 0b 55
        E 16 b0 0b 5d
        E 1808 80 3f 00
        E 384 b0 0b 44
        E 0 90 33 44
        E 64 80 33 00
        E 0 90 35 44
        E 64 80 35 00
        E 0 90 36 44
        E 64 80 36 00
        E 0 90 37 44
        E 64 80 37 00
        E 0 90 38 44
        E 64 80 38 00
        E 0 90 39 44
        E 64 b0 0b 7f
        E 0 80 39 00
        E 0 90 3a 7f
        E 16 b0 0b 77
        E 16 b0 0b 6e
        E 16 b0 0b 66
        E 16 b0 0b 5d
        E 16 b0 0b 55
        E 16 b0 0b 4c
        E 16 b0 0b 44
        E 16 b0 0b 4c
        E 16 b0 0b 55
        E 16 b0 0b 5d
        E 16 b0 0b 66
        E 16 b0 0b 5d
        E 16 b0 0b 55
        E 16 b0 0b 4c
        E 16 b0 0b 44
        E 16 b0 0b 3b
        E 16 b0 0b 33
        E 16 b0 0b 2a
        E 16 b0 0b 22
        E 16 b0 0b 2a
        E 16 b0 0b 33
        E 16 b0 0b 3b
        E 16 b0 0b 44
        E 16 b0 0b 3b
        E 16 b0 0b 33
        E 16 b0 0b 2a
        E 16 b0 0b 22
        E 16 b0 0b 19
        E 16 b0 0b 11
        E 16 b0 0b 08
        E 16 80 3a 00
        E 272 b0 0b 7f
        E 0 90 3b 7f
        E 16 b0 0b 77
        E 16 b0 0b 6e
        E 16 b0 0b 66
        E 16 b0 0b 5d
        E 16 b0 0b 55
        E 16 b0 0b 4c
        E 16 b0 0b 44
        E 16 b0 0b 4c
        E 16 b0 0b 55
        E 16 b0 0b 5d
        E 16 b0 0b 66
        E 16 b0 0b 5d
        E 16 b0 0b 55
        E 16 b0 0b 4c
        E 16 b0 0b 44
        E 16 b0 0b 3b
        E 16 b0 0b 33
        E 16 b0 0b 2a
        E 16 b0 0b 22
        E 16 b0 0b 2a
        E 16 b0 0b 33
        E 16 b0 0b 3b
        E 16 b0 0b 44
        E 16 b0 0b 7f
        E 0 80 3b 00
        E 0 90 3d 7f
        E 16 b0 0b 77
        E 16 b0 0b 6e
        E 16 b0 0b 66
        E 16 b0 0b 5d
        E 16 b0 0b 55
        E 16 b0 0b 4c
        E 16 b0 0b 44
        E 16 b0 0b 4c
        E 16 b0 0b 55
        E 16 b0 0b 5d
        E 16 b0 0b 66
        E 16 b0 0b 5d
        E 16 b0 0b 55
        E 16 b0 0b 4c
        E 16 b0 0b 44
        E 16 b0 0b 3b
        E 16 b0 0b 33
        E 16 b0 0b 2a
        E 16 b0 0b 22
        E 16 b0 0b 2a
        E 16 b0 0b 33
        E 16 b0 0b 3b
        E 16 b0 0b 44
        E 16 b0 0b 7f
        E 0 80 3d 00
        E 0 90 3b 7f
        E 16 b0 0b 77
        E 16 b0 0b 6e
        E 16 b0 0b 66
        E 16 b0 0b 5d
        E 16 b0 0b 55
        E 16 b0 0b 4c
        E 16 b0 0b 44
        E 16 b0 0b 4c
        E 16 b0 0b 55
        E 16 b0 0b 5d
        E 16 b0 0b 66
        E 16 b0 0b 5d
        E 16 b0 0b 55
        E 16 b0 0b 4c
        E 16 b0 0b 44
        E 16 b0 0b 3b
        E 16 b0 0b 33
        E 16 b0 0b 2a
        E 16 b0 0b 22
        E 16 b0 0b 2a
        E 16 b0 0b 33
        E 16 b0 0b 3b
        E 16 b0 0b 44
        E 16 b0 0b 7f
        E 0 80 3b 00
        E 0 90 3a 7f
        E 16 b0 0b 77
        E 16 b0 0b 6e
        E 16 b0 0b 66
        E 16 b0 0b 5d
        E 16 b0 0b 55
        E 16 b0 0b 4c
        E 16 b0 0b 44
        E 16 b0 0b 4c
        E 16 b0 0b 55
        E 16 b0 0b 5d
        E 16 b0 0b 66
        E 16 b0 0b 5d
        E 16 b0 0b 55
        E 16 b0 0b 4c
        E 16 b0 0b 44
        E 16 b0 0b 3b
        E 16 b0 0b 33
        E 16 b0 0b 2a
        E 16 b0 0b 22
        E 16 b0 0b 2a
        E 16 b0 0b 33
        E 16 b0 0b 3b
        E 16 b0 0b 44
        E 16 b0 0b 7f
        E 0 80 3a 00
        E 0 90 38 7f
        E 16 b0 0b 77
        E 16 b0 0b 6e
        E 16 b0 0b 66
        E 16 b0 0b 5d
        E 16 b0 0b 55
        E 16 b0 0b 4c
        E 16 b0 0b 44
        E 16 b0 0b 4c
        E 16 b0 0b 55
        E 16 b0 0b 5d
        E 16 b0 0b 66
        E 16 b0 0b 5d
        E 16 b0 0b 55
        E 16 b0 0b 4c
        E 16 b0 0b 44
        E 16 b0 0b 3b
        E 16 b0 0b 33
        E 16 b0 0b 2a
        E 16 b0 0b 22
        E 16 b0 0b 2a
        E 16 b0 0b 33
        E 16 b0 0b 3b
        E 16 b0 0b 44
        E 16 b0 0b 7f
        E 0 80 38 00
        E 0 90 3f 7f
        E 16 b0 0b 77
        E 16 b0 0b 6e
        E 16 b0 0b 66
        E 16 b0 0b 5d
        E 16 b0 0b 55
        E 16 b0 0b 4c
        E 16 b0 0b 44
        E 16 b0 0b 4c
        E 16 b0 0b 55
        E 16 b0 0b 5d
        E 16 b0 0b 66
        E 16 b0 0b 5d
        E 16 b0 0b 55
        E 16 b0 0b 4c
        E 16 b0 0b 44
        E 16 b0 0b 3b
        E 16 b0 0b 33
        E 16 b0 0b 2a
        E 16 b0 0b 22
        E 16 b0 0b 2a
        E 16 b0 0b 33
        E 16 b0 0b 3b
        E 16 b0 0b 44
        E 16 b0 0b 7f
        E 0 80 3f 00
        E 0 90 3d 7f
        E 16 b0 0b 77
        E 16 b0 0b 6e
        E 16 b0 0b 66
        E 16 b0 0b 5d
        E 16 b0 0b 55
        E 16 b0 0b 4c
        E 16 b0 0b 44
        E 16 b0 0b 4c
        E 16 b0 0b 55
        E 16 b0 0b 5d
        E 16 b0 0b 66
        E 16 b0 0b 5d
        E 16 b0 0b 55
        E 16 b0 0b 4c
        E 16 b0 0b 44
        E 16 b0 0b 3b
        E 16 b0 0b 33
        E 16 b0 0b 2a
        E 16 b0 0b 22
        E 16 b0 0b 2a
        E 16 b0 0b 33
        E 16 b0 0b 3b
        E 16 b0 0b 44
        E 16 b0 0b 3b
        E 16 b0 0b 33
        E 16 b0 0b 2a
        E 16 b0 0b 22
        E 16 b0 0b 19
        E 16 b0 0b 11
        E 16 b0 0b 08
        E 16 80 3d 00
        E 272 b0 0b 7f
        E 0 90 3f 7f
        E 16 b0 0b 77
        E 16 b0 0b 6e
        E 16 b0 0b 66
        E 16 b0 0b 5d
        E 16 b0 0b 55
        E 16 b0 0b 4c
        E 16 b0 0b 44
        E 16 b0 0b 4c
        E 16 b0 0b 55
        E 16 b0 0b 5d
        E 16 b0 0b 66
        E 16 b0 0b 5d
        E 16 b0 0b 55
        E 16 b0 0b 4c
        E 16 b0 0b 44
        E 16 b0 0b 3b
        E 16 b0 0b 33
        E 16 b0 0b 2a
        E 16 b0 0b 22
        E 16 b0 0b 2a
        E 16 b0 0b 33
        E 16 b0 0b 3b
        E 16 b0 0b 44
        E 16 b0 0b 7f
        E 0 80 3f 00
        E 0 90 40 7f
        E 16 b0 0b 77
        E 16 b0 0b 6e
        E 16 b0 0b 66
        E 16 b0 0b 5d
        E 16 b0 0b 55
        E 16 b0 0b 4c
        E 16 b0 0b 44
        E 16 b0 0b 4c
        E 16 b0 0b 55
        E 16 b0 0b 5d
        E 16 b0 0b 66
        E 16 b0 0b 5d
        E 16 b0 0b 55
        E 16 b0 0b 4c
        E 16 b0 0b 44
        E 16 b0 0b 3b
        E 16 b0 0b 33
        E 16 b0 0b 2a
        E 16 b0 0b 22
        E 16 b0 0b 2a
        E 16 b0 0b 33
        E 16 b0 0b 3b
        E 16 b0 0b 44
        E 16 b0 0b 7f
        E 0 80 40 00
        E 0 90 3f 7f
        E 16 b0 0b 77
        E 16 b0 0b 6e
        E 16 b0 0b 66
        E 16 b0 0b 5d
        E 16 b0 0b 55
        E 16 b0 0b 4c
        E 16 b0 0b 44
        E 16 b0 0b 4c
        E 16 b0 0b 55
        E 16 b0 0b 5d
        E 16 b0 0b 66
        E 16 b0 0b 5d
        E 16 b0 0b 55
        E 16 b0 0b 4c
        E 16 b0 0b 44
        E 16 b0 0b 3b
        E 16 b0 0b 33
        E 16 b0 0b 2a
        E 16 b0 0b 22
        E 16 b0 0b 2a
        E 16 b0 0b 33
        E 16 b0 0b 3b
        E 16 b0 0b 44
        E 16 b0 0b 3b
        E 16 b0 0b 33
        E 16 b0 0b 2a
        E 16 b0 0b 22
        E 16 b0 0b 19
        E 16 b0 0b 11
        E 16 b0 0b 08
        E 16 80 3f 00
        E 272 b0 0b 7f
        E 0 90 3b 7f
        E 16 b0 0b 77
        E 16 b0 0b 6e
        E 16 b0 0b 66
        E 16 b0 0b 5d
        E 16 b0 0b 55
        E 16 b0 0b 4c
        E 16 b0 0b 44
        E 16 b0 0b 4c
        E 16 b0 0b 55
        E 16 b0 0b 5d
        E 16 b0 0b 66
        E 16 b0 0b 5d
        E 16 b0 0b 55
        E 16 b0 0b 4c
        E 16 b0 0b 44
        E 16 b0 0b 3b
        E 16 b0 0b 33
        E 16 b0 0b 2a
        E 16 b0 0b 22
        E 16 b0 0b 2a
        E 16 b0 0b 33
        E 16 b0 0b 3b
        E 16 b0 0b 44
        E 16 b0 0b 3b
        E 16 b0 0b 33
        E 16 b0 0b 2a
        E 16 b0 0b 22
        E 16 b0 0b 19
        E 16 b0 0b 11
        E 16 b0 0b 08
        E 16 80 3b 00
        E 1040 b0 0b 7f
        E 0 90 3f 7f
        E 16 b0 0b 77
        E 16 b0 0b 6e
        E 16 b0 0b 66
        E 16 b0 0b 5d
        E 16 b0 0b 55
        E 16 b0 0b 4c
        E 16 b0 0b 44
        E 16 b0 0b 4c
        E 16 b0 0b 55
        E 16 b0 0b 5d
        E 16 b0 0b 66
        E 16 b0 0b 5d
        E 16 b0 0b 55
        E 16 b0 0b 4c
        E 16 b0 0b 44
        E 16 b0 0b 3b
        E 16 b0 0b 33
        E 16 b0 0b 2a
        E 16 b0 0b 22
        E 16 b0 0b 2a
        E 16 b0 0b 33
        E 16 b0 0b 3b
        E 16 b0 0b 44
        E 16 b0 0b 7f
        E 0 80 3f 00
        E 0 90 3d 7f
        E 16 b0 0b 77
        E 16 b0 0b 6e
        E 16 b0 0b 66
        E 16 b0 0b 5d
        E 16 b0 0b 55
        E 16 b0 0b 4c
        E 16 b0 0b 44
        E 16 b0 0b 4c
        E 16 b0 0b 55
        E 16 b0 0b 5d
        E 16 b0 0b 66
        E 16 b0 0b 5d
        E 16 b0 0b 55
        E 16 b0 0b 4c
        E 16 b0 0b 44
        E 16 b0 0b 3b
        E 16 b0 0b 33
        E 16 b0 0b 2a
        E 16 b0 0b 22
        E 16 b0 0b 2a
        E 16 b0 0b 33
        E 16 b0 0b 3b
        E 16 b0 0b 44
        E 16 b0 0b 7f
        E 0 80 3d 00
        E 0 90 3b 7f
        E 16 b0 0b 77
        E 16 b0 0b 6e
        E 16 b0 0b 66
        E 16 b0 0b 5d
        E 16 b0 0b 55
        E 16 b0 0b 4c
        E 16 b0 0b 44
        E 16 b0 0b 4c
        E 16 b0 0b 55
        E 16 b0 0b 5d
        E 16 b0 0b 66
        E 16 b0 0b 5d
        E 16 b0 0b 55
        E 16 b0 0b 4c
        E 16 b0 0b 44
        E 16 b0 0b 3b
        E 16 b0 0b 33
        E 16 b0 0b 2a
        E 16 b0 0b 22
        E 16 b0 0b 2a
        E 16 b0 0b 33
        E 16 b0 0b 3b
        E 16 b0 0b 44
        E 16 b0 0b 7f
        E 0 80 3b 00
        E 0 90 3a 7f
        E 16 b0 0b 77
        E 16 b0 0b 6e
        E 16 b0 0b 66
        E 16 b0 0b 5d
        E 16 b0 0b 55
        E 16 b0 0b 4c
        E 16 b0 0b 44
        E 16 b0 0b 4c
        E 16 b0 0b 55
        E 16 b0 0b 5d
        E 16 b0 0b 66
        E 16 b0 0b 5d
        E 16 b0 0b 55
        E 16 b0 0b 4c
        E 16 b0 0b 44
        E 16 b0 0b 3b
        E 16 b0 0b 33
        E 16 b0 0b 2a
        E 16 b0 0b 22
        E 16 b0 0b 2a
        E 16 b0 0b 33
        E 16 b0 0b 3b
        E 16 b0 0b 44
        E 16 b0 0b 7f
        E 0 80 3a 00
        E 0 90 38 7f
        E 16 b0 0b 77
        E 16 b0 0b 6e
        E 16 b0 0b 66
        E 16 b0 0b 5d
        E 16 b0 0b 55
        E 16 b0 0b 4c
        E 16 b0 0b 44
        E 16 b0 0b 4c
        E 16 b0 0b 55
        E 16 b0 0b 5d
        E 16 b0 0b 66
        E 16 b0 0b 5d
        E 16 b0 0b 55
        E 16 b0 0b 4c
        E 16 b0 0b 44
        E 16 b0 0b 3b
        E 16 b0 0b 33
        E 16 b0 0b 2a
        E 16 b0 0b 22
        E 16 b0 0b 2a
        E 16 b0 0b 33
        E 16 b0 0b 3b
        E 16 b0 0b 44
        E 16 b0 0b 7f
        E 0 80 38 00
        E 0 90 3b 7f
        E 16 b0 0b 77
        E 16 b0 0b 6e
        E 16 b0 0b 66
        E 16 b0 0b 5d
        E 16 b0 0b 55
        E 16 b0 0b 4c
        E 16 b0 0b 44
        E 16 b0 0b 4c
        E 16 b0 0b 55
        E 16 b0 0b 5d
        E 16 b0 0b 66
        E 16 b0 0b 5d
        E 16 b0 0b 55
        E 16 b0 0b 4c
        E 16 b0 0b 44
        E 16 b0 0b 3b
        E 16 b0 0b 33
        E 16 b0 0b 2a
        E 16 b0 0b 22
        E 16 b0 0b 2a
        E 16 b0 0b 33
        E 16 b0 0b 3b
        E 16 b0 0b 44
        E 16 b0 0b 66
        E 0 80 3b 00
        E 0 90 3a 66
        E 16 b0 0b 5d
        E 16 b0 0b 55
        E 16 b0 0b 4c
        E 16 b0 0b 44
        E 16 b0 0b 3b
        E 16 b0 0b 33
        E 16 b0 0b 2a
        E 16 b0 0b 22
        E 16 b0 0b 2a
        E 16 b0 0b 33
        E 16 b0 0b 3b
        E 16 b0 0b 44
        E 16 b0 0b 3b
        E 16 b0 0b 33
        E 16 b0 0b 2a
        E 16 b0 0b 22
        E 16 b0 0b 2a
        E 16 b0 0b 33
        E 16 b0 0b 3b
        E 16 b0 0b 44
        E 16 b0 0b 3b
        E 16 b0 0b 33
        E 16 b0 0b 2a
        E 16 b0 0b 22
        E 16 b0 0b 2a
        E 16 b0 0b 33
        E 16 b0 0b 3b
        E 16 b0 0b 44
        E 16 b0 0b 4c
        E 16 b0 0b 55
        E 16 b0 0b 5d
        E 2576 b0 0b 66
        E 0 80 3a 00
        E 0 90 3b 66
        E 16 b0 0b 5d
        E 16 b0 0b 55
        E 16 b0 0b 4c
        E 16 b0 0b 44
        E 16 b0 0b 3b
        E 16 b0 0b 33
        E 16 b0 0b 2a
        E 16 b0 0b 22
        E 16 b0 0b 2a
        E 16 b0 0b 33
        E 16 b0 0b 3b
        E 16 b0 0b 44
        E 16 b0 0b 3b
        E 16 b0 0b 33
        E 16 b0 0b 2a
        E 16 b0 0b 22
        E 16 b0 0b 2a
        E 16 b0 0b 33
        E 16 b0 0b 3b
        E 16 b0 0b 44
        E 16 b0 0b 3b
        E 16 b0 0b 33
        E 16 b0 0b 2a
        E 16 b0 0b 22
        E 16 b0 0b 2a
        E 16 b0 0b 33
        E 16 b0 0b 3b
        E 16 b0 0b 44
        E 16 b0 0b 4c
        E 16 b0 0b 55
        E 16 b0 0b 5d
        E 272 b0 0b 66
        E 0 80 3b 00
        E 0 90 38 66
        E 16 b0 0b 5d
        E 16 b0 0b 55
        E 16 b0 0b 4c
        E 16 b0 0b 44
        E 16 b0 0b 3b
        E 16 b0 0b 33
        E 16 b0 0b 2a
        E 16 b0 0b 22
        E 16 b0 0b 2a
        E 16 b0 0b 33
        E 16 b0 0b 3b
        E 16 b0 0b 44
        E 16 b0 0b 3b
        E 16 b0 0b 33
        E 16 b0 0b 2a
        E 16 b0 0b 22
        E 16 b0 0b 2a
        E 16 b0 0b 33
        E 16 b0 0b 3b
        E 16 b0 0b 44
        E 16 b0 0b 3b
        E 16 b0 0b 33
        E 16 b0 0b 2a
        E 16 b0 0b 66
        E 0 80 38 00
        E 0 90 3b 66
        E 16 b0 0b 5d
        E 16 b0 0b 55
        E 16 b0 0b 4c
        E 16 b0 0b 44
        E 16 b0 0b 3b
        E 16 b0 0b 33
        E 16 b0 0b 2a
        E 16 b0 0b 22
        E 16 b0 0b 2a
        E 16 b0 0b 33
        E 16 b0 0b 3b
        E 16 b0 0b 44
        E 16 b0 0b 3b
        E 16 b0 0b 33
        E 16 b0 0b 2a
        E 16 b0 0b 22
        E 16 b0 0b 2a
        E 16 b0 0b 33
        E 16 b0 0b 3b
        E 16 b0 0b 44
        E 16 b0 0b 3b
        E 16 b0 0b 33
        E 16 b0 0b 2a
        E 16 b0 0b 66
        E 0 80 3b 00
        E 0 90 3a 66
        E 16 b0 0b 5d
        E 16 b0 0b 55
        E 16 b0 0b 4c
        E 16 b0 0b 44
        E 16 b0 0b 3b
        E 16 b0 0b 33
        E 16 b0 0b 2a
        E 16 b0 0b 22
        E 16 b0 0b 2a
        E 16 b0 0b 33
        E 16 b0 0b 3b
        E 16 b0 0b 44
        E 16 b0 0b 3b
        E 16 b0 0b 33
        E 16 b0 0b 2a
        E 16 b0 0b 22
        E 16 b0 0b 2a
        E 16 b0 0b 33
        E 16 b0 0b 3b
        E 16 b0 0b 44
        E 16 b0 0b 3b
        E 16 b0 0b 33
        E 16 b0 0b 2a
        E 16 b0 0b 66
        E 0 80 3a 00
        E 0 90 38 66
        E 16 b0 0b 5d
        E 16 b0 0b 55
        E 16 b0 0b 4c
        E 16 b0 0b 44
        E 16 b0 0b 3b
        E 16 b0 0b 33
        E 16 b0 0b 2a
        E 16 b0 0b 22
        E 16 b0 0b 2a
        E 16 b0 0b 33
        E 16 b0 0b 3b
        E 16 b0 0b 44
        E 16 b0 0b 3b
        E 16 b0 0b 33
        E 16 b0 0b 2a
        E 16 b0 0b 22
        E 16 b0 0b 2a
        E 16 b0 0b 33
        E 16 b0 0b 3b
        E 16 b0 0b 44
        E 16 b0 0b 3b
        E 16 b0 0b 33
        E 16 b0 0b 2a
        E 16 b0 0b 66
        E 0 80 38 00
        E 0 90 36 66
        E 16 b0 0b 5d
        E 16 b0 0b 55
        E 16 b0 0b 4c
        E 16 b0 0b 44
        E 16 b0 0b 3b
        E 16 b0 0b 33
        E 16 b0 0b 2a
        E 16 b0 0b 22
        E 16 b0 0b 2a
        E 16 b0 0b 33
        E 16 b0 0b 3b
        E 16 b0 0b 44
        E 16 b0 0b 3b
        E 16 b0 0b 33
        E 16 b0 0b 2a
        E 16 b0 0b 22
        E 16 b0 0b 2a
        E 16 b0 0b 33
        E 16 b0 0b 3b
        E 16 b0 0b 44
        E 16 b0 0b 3b
        E 16 b0 0b 33
        E 16 b0 0b 2a
        E 16 b0 0b 66
        E 0 80 36 00
        E 0 90 3a 66
        E 16 b0 0b 5d
        E 16 b0 0b 55
        E 16 b0 0b 4c
        E 16 b0 0b 44
        E 16 b0 0b 3b
        E 16 b0 0b 33
        E 16 b0 0b 2a
        E 16 b0 0b 22
        E 16 b0 0b 2a
        E 16 b0 0b 33
        E 16 b0 0b 3b
        E 16 b0 0b 44
        E 16 b0 0b 3b
        E 16 b0 0b 33
        E 16 b0 0b 2a
        E 16 80 3a 00
        E 0 b0 7b 00
        E 0 ff 2f 00
      >
    >
  >
  <TRACK {BAB33FD1-582E-41C0-95A0-DC3F3098751E}
    NAME "NES - Pulse 2 [ch1]"
    PEAKCOL 10092441
    BEAT -1
    AUTOMODE 0
    PANLAWFLAGS 3
    VOLPAN 1 0 -1 -1 1
    MUTESOLO 0 0 0
    IPHASE 0
    PLAYOFFS 0 1
    ISBUS 0 0
    BUSCOMP 0 0 0 0 0
    SHOWINMIX 1 0.6667 0.5 1 0.5 0 0 0
    FIXEDLANES 9 0 0 0 0
    SEL 0
    REC 0 5088 1 0 0 0 0 0
    VU 2
    TRACKHEIGHT 0 0 0 0 0 0 0
    INQ 0 0 0 0.5 100 0 0 100
    NCHAN 2
    FX 1
    TRACKID {BAB33FD1-582E-41C0-95A0-DC3F3098751E}
    PERF 0
    MIDIOUT -1
    MAINSEND 1 0
    <FXCHAIN
      WNDRECT 24 52 700 560
      SHOW 0
      LASTSEL 0
      DOCKED 0
      BYPASS 0 0 0
      <JS "ReapNES Studio/ReapNES_Console.jsfx" ""
        2 15 1 10 80 10 100 2 1 15 1 5 60 10 80 1 1 0 50 0 0 15 1 0 100 0 0 0.500000 0.500000 0.400000 0.300000 0.800000 1 1 0 0 0 0 - - - - - - - - - - - - - - - - - - - - - - - - - -
      >
      FLOATPOS 0 0 0 0
      FXID {C8F7E437-C7C6-4BCF-9330-E724AE871E4B}
      WAK 0 0
    >
    <ITEM
      POSITION 0
      LENGTH 74.5878716
      LOOP 0
      ALLTAKES 0
      FADEIN 0 0 0 0 0 0 0
      FADEOUT 0 0 0 0 0 0 0
      MUTE 0 0
      SEL 0
      IGUID {3AA28602-867F-41EC-BBE6-835BC8D716FF}
      <SOURCE MIDI
        HASDATA 1 480 QN
        CCINTERP 32
        E 0 c1 51
        E 64 b1 0c 10
        E 0 b1 0b 3b
        E 0 91 2f 3b
        E 32 b1 0b 55
        E 32 b1 0b 3b
        E 16 b1 0b 22
        E 112 81 2f 00
        E 0 91 33 22
        E 16 b1 0b 3b
        E 16 b1 0b 55
        E 32 b1 0b 3b
        E 16 b1 0b 22
        E 112 81 33 00
        E 0 91 31 22
        E 16 b1 0b 3b
        E 16 b1 0b 55
        E 32 b1 0b 3b
        E 16 b1 0b 22
        E 112 81 31 00
        E 0 91 33 22
        E 16 b1 0b 3b
        E 16 b1 0b 55
        E 32 b1 0b 3b
        E 16 b1 0b 22
        E 112 81 33 00
        E 0 91 2f 22
        E 16 b1 0b 3b
        E 16 b1 0b 55
        E 32 b1 0b 3b
        E 16 b1 0b 22
        E 112 81 2f 00
        E 0 91 33 22
        E 16 b1 0b 3b
        E 16 b1 0b 55
        E 32 b1 0b 3b
        E 16 b1 0b 22
        E 112 81 33 00
        E 0 91 31 22
        E 16 b1 0b 3b
        E 16 b1 0b 55
        E 32 b1 0b 3b
        E 16 b1 0b 22
        E 112 81 31 00
        E 0 91 33 22
        E 16 b1 0b 3b
        E 16 b1 0b 55
        E 32 b1 0b 3b
        E 16 b1 0b 22
        E 112 81 33 00
        E 0 91 2e 22
        E 16 b1 0b 3b
        E 16 b1 0b 55
        E 32 b1 0b 3b
        E 16 b1 0b 22
        E 112 81 2e 00
        E 0 91 33 22
        E 16 b1 0b 3b
        E 16 b1 0b 55
        E 32 b1 0b 3b
        E 16 b1 0b 22
        E 112 81 33 00
        E 0 91 31 22
        E 16 b1 0b 3b
        E 16 b1 0b 55
        E 32 b1 0b 3b
        E 16 b1 0b 22
        E 112 81 31 00
        E 0 91 33 22
        E 16 b1 0b 3b
        E 16 b1 0b 55
        E 32 b1 0b 3b
        E 16 b1 0b 22
        E 112 81 33 00
        E 0 91 2e 22
        E 16 b1 0b 3b
        E 16 b1 0b 55
        E 32 b1 0b 3b
        E 16 b1 0b 22
        E 112 81 2e 00
        E 0 91 33 22
        E 16 b1 0b 3b
        E 16 b1 0b 55
        E 32 b1 0b 3b
        E 16 b1 0b 22
        E 112 81 33 00
        E 0 91 31 22
        E 16 b1 0b 3b
        E 16 b1 0b 55
        E 32 b1 0b 3b
        E 16 b1 0b 22
        E 112 81 31 00
        E 0 91 33 22
        E 16 b1 0b 3b
        E 16 b1 0b 55
        E 32 b1 0b 3b
        E 16 b1 0b 22
        E 112 81 33 00
        E 0 91 2c 22
        E 16 b1 0b 3b
        E 16 b1 0b 55
        E 32 b1 0b 3b
        E 16 b1 0b 22
        E 112 81 2c 00
        E 0 91 33 22
        E 16 b1 0b 3b
        E 16 b1 0b 55
        E 32 b1 0b 3b
        E 16 b1 0b 22
        E 112 81 33 00
        E 0 91 31 22
        E 16 b1 0b 3b
        E 16 b1 0b 55
        E 32 b1 0b 3b
        E 16 b1 0b 22
        E 112 81 31 00
        E 0 91 33 22
        E 16 b1 0b 3b
        E 16 b1 0b 55
        E 32 b1 0b 3b
        E 16 b1 0b 22
        E 112 81 33 00
        E 0 91 2c 22
        E 16 b1 0b 3b
        E 16 b1 0b 55
        E 32 b1 0b 3b
        E 16 b1 0b 22
        E 112 81 2c 00
        E 0 91 33 22
        E 16 b1 0b 3b
        E 16 b1 0b 55
        E 32 b1 0b 3b
        E 16 b1 0b 22
        E 112 81 33 00
        E 0 91 31 22
        E 16 b1 0b 3b
        E 16 b1 0b 55
        E 32 b1 0b 3b
        E 16 b1 0b 22
        E 112 81 31 00
        E 0 91 33 22
        E 16 b1 0b 3b
        E 16 b1 0b 55
        E 32 b1 0b 3b
        E 16 b1 0b 22
        E 112 81 33 00
        E 0 91 2e 22
        E 16 b1 0b 3b
        E 16 b1 0b 55
        E 32 b1 0b 3b
        E 16 b1 0b 22
        E 112 81 2e 00
        E 0 91 33 22
        E 16 b1 0b 3b
        E 16 b1 0b 55
        E 32 b1 0b 3b
        E 16 b1 0b 22
        E 112 81 33 00
        E 0 91 31 22
        E 16 b1 0b 3b
        E 16 b1 0b 55
        E 32 b1 0b 3b
        E 16 b1 0b 22
        E 112 81 31 00
        E 0 91 33 22
        E 16 b1 0b 3b
        E 16 b1 0b 55
        E 32 b1 0b 3b
        E 16 b1 0b 22
        E 112 81 33 00
        E 0 91 2e 22
        E 16 b1 0b 3b
        E 16 b1 0b 55
        E 32 b1 0b 3b
        E 16 b1 0b 22
        E 112 81 2e 00
        E 0 91 33 22
        E 16 b1 0b 3b
        E 16 b1 0b 55
        E 32 b1 0b 3b
        E 16 b1 0b 22
        E 112 81 33 00
        E 0 91 31 22
        E 16 b1 0b 3b
        E 16 b1 0b 55
        E 32 b1 0b 3b
        E 16 b1 0b 22
        E 112 81 31 00
        E 0 91 33 22
        E 16 b1 0b 3b
        E 16 b1 0b 55
        E 32 b1 0b 3b
        E 16 b1 0b 22
        E 112 81 33 00
        E 0 91 2f 22
        E 16 b1 0b 3b
        E 16 b1 0b 55
        E 32 b1 0b 3b
        E 16 b1 0b 22
        E 112 81 2f 00
        E 0 91 33 22
        E 16 b1 0b 3b
        E 16 b1 0b 55
        E 32 b1 0b 3b
        E 16 b1 0b 22
        E 112 81 33 00
        E 0 91 31 22
        E 16 b1 0b 3b
        E 16 b1 0b 55
        E 32 b1 0b 3b
        E 16 b1 0b 22
        E 112 81 31 00
        E 0 91 33 22
        E 16 b1 0b 3b
        E 16 b1 0b 55
        E 32 b1 0b 3b
        E 16 b1 0b 22
        E 112 81 33 00
        E 0 91 2f 22
        E 16 b1 0b 3b
        E 16 b1 0b 55
        E 32 b1 0b 3b
        E 16 b1 0b 22
        E 112 81 2f 00
        E 0 91 33 22
        E 16 b1 0b 3b
        E 16 b1 0b 55
        E 32 b1 0b 3b
        E 16 b1 0b 22
        E 112 81 33 00
        E 0 91 31 22
        E 16 b1 0b 3b
        E 16 b1 0b 55
        E 32 b1 0b 3b
        E 16 b1 0b 22
        E 112 81 31 00
        E 0 91 33 22
        E 16 b1 0b 3b
        E 16 b1 0b 55
        E 32 b1 0b 3b
        E 16 b1 0b 22
        E 112 81 33 00
        E 0 91 2e 22
        E 16 b1 0b 3b
        E 16 b1 0b 55
        E 32 b1 0b 3b
        E 16 b1 0b 22
        E 112 81 2e 00
        E 0 91 33 22
        E 16 b1 0b 3b
        E 16 b1 0b 55
        E 32 b1 0b 3b
        E 16 b1 0b 22
        E 112 81 33 00
        E 0 91 31 22
        E 16 b1 0b 3b
        E 16 b1 0b 55
        E 32 b1 0b 3b
        E 16 b1 0b 22
        E 112 81 31 00
        E 0 91 33 22
        E 16 b1 0b 3b
        E 16 b1 0b 55
        E 32 b1 0b 3b
        E 16 b1 0b 22
        E 112 81 33 00
        E 0 91 2e 22
        E 16 b1 0b 3b
        E 16 b1 0b 55
        E 32 b1 0b 3b
        E 16 b1 0b 22
        E 112 81 2e 00
        E 0 91 33 22
        E 16 b1 0b 3b
        E 16 b1 0b 55
        E 32 b1 0b 3b
        E 16 b1 0b 22
        E 112 81 33 00
        E 0 91 31 22
        E 16 b1 0b 3b
        E 16 b1 0b 55
        E 32 b1 0b 3b
        E 16 b1 0b 22
        E 112 81 31 00
        E 0 91 33 22
        E 16 b1 0b 3b
        E 16 b1 0b 55
        E 32 b1 0b 3b
        E 16 b1 0b 22
        E 112 81 33 00
        E 0 91 2c 22
        E 16 b1 0b 3b
        E 16 b1 0b 55
        E 32 b1 0b 3b
        E 16 b1 0b 22
        E 112 81 2c 00
        E 0 91 33 22
        E 16 b1 0b 3b
        E 16 b1 0b 55
        E 32 b1 0b 3b
        E 16 b1 0b 22
        E 112 81 33 00
        E 0 91 31 22
        E 16 b1 0b 3b
        E 16 b1 0b 55
        E 32 b1 0b 3b
        E 16 b1 0b 22
        E 112 81 31 00
        E 0 91 33 22
        E 16 b1 0b 3b
        E 16 b1 0b 55
        E 32 b1 0b 3b
        E 16 b1 0b 22
        E 112 81 33 00
        E 0 91 2c 22
        E 16 b1 0b 3b
        E 16 b1 0b 55
        E 32 b1 0b 3b
        E 16 b1 0b 22
        E 112 81 2c 00
        E 0 91 33 22
        E 16 b1 0b 3b
        E 16 b1 0b 55
        E 32 b1 0b 3b
        E 16 b1 0b 22
        E 112 81 33 00
        E 0 91 31 22
        E 16 b1 0b 3b
        E 16 b1 0b 55
        E 32 b1 0b 3b
        E 16 b1 0b 22
        E 112 81 31 00
        E 0 91 33 22
        E 16 b1 0b 3b
        E 16 b1 0b 55
        E 32 b1 0b 3b
        E 16 b1 0b 22
        E 112 81 33 00
        E 0 91 2c 22
        E 16 b1 0b 3b
        E 16 b1 0b 55
        E 32 b1 0b 3b
        E 16 b1 0b 22
        E 112 81 2c 00
        E 0 91 31 22
        E 16 b1 0b 3b
        E 16 b1 0b 55
        E 32 b1 0b 3b
        E 16 b1 0b 22
        E 112 81 31 00
        E 0 91 2f 22
        E 16 b1 0b 3b
        E 16 b1 0b 55
        E 32 b1 0b 3b
        E 16 b1 0b 22
        E 112 81 2f 00
        E 0 91 31 22
        E 16 b1 0b 3b
        E 16 b1 0b 55
        E 32 b1 0b 3b
        E 16 b1 0b 22
        E 112 81 31 00
        E 0 91 2c 22
        E 16 b1 0b 3b
        E 16 b1 0b 55
        E 32 b1 0b 3b
        E 16 b1 0b 22
        E 112 81 2c 00
        E 0 91 31 22
        E 16 b1 0b 3b
        E 16 b1 0b 55
        E 32 b1 0b 3b
        E 16 b1 0b 22
        E 112 81 31 00
        E 0 91 2f 22
        E 16 b1 0b 3b
        E 16 b1 0b 55
        E 32 b1 0b 3b
        E 16 b1 0b 22
        E 112 81 2f 00
        E 0 91 31 22
        E 16 b1 0b 3b
        E 16 b1 0b 55
        E 32 b1 0b 3b
        E 16 b1 0b 22
        E 112 b1 0b 44
        E 0 81 31 00
        E 0 91 33 44
        E 16 b1 0b 3b
        E 16 b1 0b 2a
        E 16 b1 0b 22
        E 16 b1 0b 11
        E 16 81 33 00
        E 112 b1 0b 44
        E 0 91 33 44
        E 16 b1 0b 3b
        E 16 b1 0b 2a
        E 16 b1 0b 22
        E 16 b1 0b 11
        E 16 81 33 00
        E 304 b1 0b 44
        E 0 91 2e 44
        E 16 b1 0b 3b
        E 16 b1 0b 2a
        E 16 b1 0b 22
        E 16 b1 0b 11
        E 16 81 2e 00
        E 112 b1 0b 44
        E 0 91 33 44
        E 16 b1 0b 3b
        E 16 b1 0b 2a
        E 16 b1 0b 22
        E 16 b1 0b 11
        E 16 81 33 00
        E 112 b1 0b 44
        E 0 91 33 44
        E 16 b1 0b 3b
        E 16 b1 0b 2a
        E 16 b1 0b 22
        E 16 b1 0b 11
        E 16 81 33 00
        E 304 b1 0b 44
        E 0 91 2e 44
        E 16 b1 0b 3b
        E 16 b1 0b 2a
        E 16 b1 0b 22
        E 16 b1 0b 11
        E 16 81 2e 00
        E 112 b1 0b 44
        E 0 91 33 44
        E 16 b1 0b 3b
        E 16 b1 0b 2a
        E 16 b1 0b 22
        E 16 b1 0b 11
        E 16 81 33 00
        E 112 b1 0b 44
        E 0 91 33 44
        E 16 b1 0b 3b
        E 16 b1 0b 2a
        E 16 b1 0b 22
        E 16 b1 0b 11
        E 16 81 33 00
        E 304 b1 0b 44
        E 0 91 2f 44
        E 16 b1 0b 3b
        E 16 b1 0b 2a
        E 16 b1 0b 22
        E 16 b1 0b 11
        E 16 81 2f 00
        E 112 b1 0b 44
        E 0 91 33 44
        E 16 b1 0b 3b
        E 16 b1 0b 2a
        E 16 b1 0b 22
        E 16 b1 0b 11
        E 16 81 33 00
        E 112 b1 0b 44
        E 0 91 33 44
        E 16 b1 0b 3b
        E 16 b1 0b 2a
        E 16 b1 0b 22
        E 16 b1 0b 11
        E 16 81 33 00
        E 304 b1 0b 44
        E 0 91 2f 44
        E 16 b1 0b 3b
        E 16 b1 0b 2a
        E 16 b1 0b 22
        E 16 b1 0b 11
        E 16 81 2f 00
        E 112 b1 0b 44
        E 0 91 34 44
        E 16 b1 0b 3b
        E 16 b1 0b 2a
        E 16 b1 0b 22
        E 16 b1 0b 11
        E 16 81 34 00
        E 112 b1 0b 44
        E 0 91 34 44
        E 16 b1 0b 3b
        E 16 b1 0b 2a
        E 16 b1 0b 22
        E 16 b1 0b 11
        E 16 81 34 00
        E 304 b1 0b 44
        E 0 91 31 44
        E 16 b1 0b 3b
        E 16 b1 0b 2a
        E 16 b1 0b 22
        E 16 b1 0b 11
        E 16 81 31 00
        E 112 b1 0b 44
        E 0 91 34 44
        E 16 b1 0b 3b
        E 16 b1 0b 2a
        E 16 b1 0b 22
        E 16 b1 0b 11
        E 16 81 34 00
        E 112 b1 0b 44
        E 0 91 34 44
        E 16 b1 0b 3b
        E 16 b1 0b 2a
        E 16 b1 0b 22
        E 16 b1 0b 11
        E 16 81 34 00
        E 304 b1 0b 44
        E 0 91 31 44
        E 16 b1 0b 3b
        E 16 b1 0b 2a
        E 16 b1 0b 22
        E 16 b1 0b 11
        E 16 81 31 00
        E 112 b1 0b 44
        E 0 91 36 44
        E 16 b1 0b 3b
        E 16 b1 0b 2a
        E 16 b1 0b 22
        E 16 b1 0b 11
        E 16 81 36 00
        E 112 b1 0b 44
        E 0 91 36 44
        E 16 b1 0b 3b
        E 16 b1 0b 2a
        E 16 b1 0b 22
        E 16 b1 0b 11
        E 16 81 36 00
        E 304 b1 0b 44
        E 0 91 33 44
        E 16 b1 0b 3b
        E 16 b1 0b 2a
        E 16 b1 0b 22
        E 16 b1 0b 11
        E 16 81 33 00
        E 112 b1 0b 44
        E 0 91 36 44
        E 16 b1 0b 3b
        E 16 b1 0b 2a
        E 16 b1 0b 22
        E 16 b1 0b 11
        E 16 81 36 00
        E 112 b1 0b 44
        E 0 91 36 44
        E 16 b1 0b 3b
        E 16 b1 0b 2a
        E 16 b1 0b 22
        E 16 b1 0b 11
        E 16 81 36 00
        E 304 b1 0b 44
        E 0 91 33 44
        E 16 b1 0b 3b
        E 16 b1 0b 2a
        E 16 b1 0b 22
        E 16 b1 0b 11
        E 16 81 33 00
        E 112 b1 0b 66
        E 0 91 38 66
        E 16 b1 0b 5d
        E 16 b1 0b 55
        E 16 b1 0b 4c
        E 16 b1 0b 44
        E 16 b1 0b 3b
        E 16 b1 0b 33
        E 16 b1 0b 2a
        E 16 b1 0b 22
        E 16 b1 0b 2a
        E 16 b1 0b 33
        E 16 b1 0b 3b
        E 16 b1 0b 44
        E 16 b1 0b 3b
        E 16 b1 0b 33
        E 16 b1 0b 2a
        E 16 b1 0b 22
        E 16 b1 0b 2a
        E 16 b1 0b 33
        E 16 b1 0b 3b
        E 16 b1 0b 44
        E 16 b1 0b 3b
        E 16 b1 0b 33
        E 16 b1 0b 2a
        E 16 b1 0b 22
        E 16 b1 0b 2a
        E 16 b1 0b 33
        E 16 b1 0b 3b
        E 16 b1 0b 44
        E 16 b1 0b 4c
        E 16 b1 0b 55
        E 16 b1 0b 5d
        E 464 b1 0b 22
        E 0 81 38 00
        E 0 91 2f 22
        E 16 b1 0b 3b
        E 16 b1 0b 55
        E 32 b1 0b 3b
        E 16 b1 0b 22
        E 112 81 2f 00
        E 0 91 34 22
        E 16 b1 0b 3b
        E 16 b1 0b 55
        E 32 b1 0b 3b
        E 16 b1 0b 22
        E 112 81 34 00
        E 0 91 38 22
        E 16 b1 0b 3b
        E 16 b1 0b 55
        E 32 b1 0b 3b
        E 16 b1 0b 22
        E 112 b1 0b 66
        E 0 81 38 00
        E 0 91 34 66
        E 16 b1 0b 5d
        E 16 b1 0b 55
        E 16 b1 0b 4c
        E 16 b1 0b 44
        E 16 b1 0b 3b
        E 16 b1 0b 33
        E 16 b1 0b 2a
        E 16 b1 0b 22
        E 16 b1 0b 2a
        E 16 b1 0b 33
        E 16 b1 0b 3b
        E 16 b1 0b 44
        E 16 b1 0b 3b
        E 16 b1 0b 33
        E 16 b1 0b 2a
        E 16 b1 0b 22
        E 16 b1 0b 2a
        E 16 b1 0b 33
        E 16 b1 0b 3b
        E 16 b1 0b 44
        E 16 b1 0b 3b
        E 16 b1 0b 33
        E 16 b1 0b 2a
        E 16 b1 0b 22
        E 16 b1 0b 2a
        E 16 b1 0b 33
        E 16 b1 0b 3b
        E 16 b1 0b 44
        E 16 b1 0b 4c
        E 16 b1 0b 55
        E 16 b1 0b 5d
        E 464 b1 0b 22
        E 0 81 34 00
        E 0 91 2c 22
        E 16 b1 0b 3b
        E 16 b1 0b 55
        E 32 b1 0b 3b
        E 16 b1 0b 22
        E 112 81 2c 00
        E 0 91 31 22
        E 16 b1 0b 3b
        E 16 b1 0b 55
        E 32 b1 0b 3b
        E 16 b1 0b 22
        E 112 81 31 00
        E 0 91 34 22
        E 16 b1 0b 3b
        E 16 b1 0b 55
        E 32 b1 0b 3b
        E 16 b1 0b 22
        E 112 b1 0b 66
        E 0 81 34 00
        E 0 91 37 66
        E 16 b1 0b 5d
        E 16 b1 0b 55
        E 16 b1 0b 4c
        E 16 b1 0b 44
        E 16 b1 0b 3b
        E 16 b1 0b 33
        E 16 b1 0b 2a
        E 16 b1 0b 22
        E 16 b1 0b 2a
        E 16 b1 0b 33
        E 16 b1 0b 3b
        E 16 b1 0b 44
        E 16 b1 0b 3b
        E 16 b1 0b 33
        E 16 b1 0b 2a
        E 16 b1 0b 22
        E 16 b1 0b 2a
        E 16 b1 0b 33
        E 16 b1 0b 3b
        E 16 b1 0b 44
        E 16 b1 0b 3b
        E 16 b1 0b 33
        E 16 b1 0b 2a
        E 16 b1 0b 22
        E 16 b1 0b 2a
        E 16 b1 0b 33
        E 16 b1 0b 3b
        E 16 b1 0b 44
        E 16 b1 0b 4c
        E 16 b1 0b 55
        E 16 b1 0b 5d
        E 464 b1 0b 22
        E 0 81 37 00
        E 0 91 2e 22
        E 16 b1 0b 3b
        E 16 b1 0b 55
        E 32 b1 0b 3b
        E 16 b1 0b 22
        E 112 81 2e 00
        E 0 91 33 22
        E 16 b1 0b 3b
        E 16 b1 0b 55
        E 32 b1 0b 3b
        E 16 b1 0b 22
        E 112 81 33 00
        E 0 91 37 22
        E 16 b1 0b 3b
        E 16 b1 0b 55
        E 32 b1 0b 3b
        E 16 b1 0b 22
        E 112 81 37 00
        E 0 91 2b 22
        E 16 b1 0b 3b
        E 16 b1 0b 55
        E 32 b1 0b 3b
        E 16 b1 0b 22
        E 112 81 2b 00
        E 0 91 2e 22
        E 16 b1 0b 3b
        E 16 b1 0b 55
        E 32 b1 0b 3b
        E 16 b1 0b 22
        E 112 81 2e 00
        E 0 91 31 22
        E 16 b1 0b 3b
        E 16 b1 0b 55
        E 32 b1 0b 3b
        E 16 b1 0b 22
        E 112 81 31 00
        E 0 91 34 22
        E 16 b1 0b 3b
        E 16 b1 0b 55
        E 32 b1 0b 3b
        E 16 b1 0b 22
        E 112 81 34 00
        E 0 91 37 22
        E 16 b1 0b 3b
        E 16 b1 0b 55
        E 32 b1 0b 3b
        E 16 b1 0b 22
        E 112 81 37 00
        E 0 91 34 22
        E 16 b1 0b 3b
        E 16 b1 0b 55
        E 32 b1 0b 3b
        E 16 b1 0b 22
        E 112 81 34 00
        E 0 91 31 22
        E 16 b1 0b 3b
        E 16 b1 0b 55
        E 32 b1 0b 3b
        E 16 b1 0b 22
        E 112 81 31 00
        E 0 91 2e 22
        E 16 b1 0b 3b
        E 16 b1 0b 55
        E 32 b1 0b 3b
        E 16 b1 0b 22
        E 112 81 2e 00
        E 0 91 2f 22
        E 16 b1 0b 3b
        E 16 b1 0b 55
        E 32 b1 0b 3b
        E 16 b1 0b 22
        E 112 81 2f 00
        E 0 91 33 22
        E 16 b1 0b 3b
        E 16 b1 0b 55
        E 32 b1 0b 3b
        E 16 b1 0b 22
        E 112 81 33 00
        E 0 91 31 22
        E 16 b1 0b 3b
        E 16 b1 0b 55
        E 32 b1 0b 3b
        E 16 b1 0b 22
        E 112 81 31 00
        E 0 91 33 22
        E 16 b1 0b 3b
        E 16 b1 0b 55
        E 32 b1 0b 3b
        E 16 b1 0b 22
        E 112 81 33 00
        E 0 91 2f 22
        E 16 b1 0b 3b
        E 16 b1 0b 55
        E 32 b1 0b 3b
        E 16 b1 0b 22
        E 112 81 2f 00
        E 0 91 33 22
        E 16 b1 0b 3b
        E 16 b1 0b 55
        E 32 b1 0b 3b
        E 16 b1 0b 22
        E 112 81 33 00
        E 0 91 31 22
        E 16 b1 0b 3b
        E 16 b1 0b 55
        E 32 b1 0b 3b
        E 16 b1 0b 22
        E 112 81 31 00
        E 0 91 33 22
        E 16 b1 0b 3b
        E 16 b1 0b 55
        E 32 b1 0b 3b
        E 16 b1 0b 22
        E 112 81 33 00
        E 0 91 2e 22
        E 16 b1 0b 3b
        E 16 b1 0b 55
        E 32 b1 0b 3b
        E 16 b1 0b 22
        E 112 81 2e 00
        E 0 91 33 22
        E 16 b1 0b 3b
        E 16 b1 0b 55
        E 32 b1 0b 3b
        E 16 b1 0b 22
        E 112 81 33 00
        E 0 91 31 22
        E 16 b1 0b 3b
        E 16 b1 0b 55
        E 32 b1 0b 3b
        E 16 b1 0b 22
        E 112 81 31 00
        E 0 91 33 22
        E 16 b1 0b 3b
        E 16 b1 0b 55
        E 32 b1 0b 3b
        E 16 b1 0b 22
        E 112 81 33 00
        E 0 91 2e 22
        E 16 b1 0b 3b
        E 16 b1 0b 55
        E 32 b1 0b 3b
        E 16 b1 0b 22
        E 112 81 2e 00
        E 0 91 33 22
        E 16 b1 0b 3b
        E 16 b1 0b 55
        E 32 b1 0b 3b
        E 16 b1 0b 22
        E 112 81 33 00
        E 0 91 31 22
        E 16 b1 0b 3b
        E 16 b1 0b 55
        E 32 b1 0b 3b
        E 16 b1 0b 22
        E 112 81 31 00
        E 0 91 33 22
        E 16 b1 0b 3b
        E 16 b1 0b 55
        E 32 b1 0b 3b
        E 16 b1 0b 22
        E 112 81 33 00
        E 0 91 2c 22
        E 16 b1 0b 3b
        E 16 b1 0b 55
        E 32 b1 0b 3b
        E 16 b1 0b 22
        E 112 81 2c 00
        E 0 91 33 22
        E 16 b1 0b 3b
        E 16 b1 0b 55
        E 32 b1 0b 3b
        E 16 b1 0b 22
        E 112 81 33 00
        E 0 91 31 22
        E 16 b1 0b 3b
        E 16 b1 0b 55
        E 32 b1 0b 3b
        E 16 b1 0b 22
        E 112 81 31 00
        E 0 91 33 22
        E 16 b1 0b 3b
        E 16 b1 0b 55
        E 32 b1 0b 3b
        E 16 b1 0b 22
        E 112 81 33 00
        E 0 91 2c 22
        E 16 b1 0b 3b
        E 16 b1 0b 55
        E 32 b1 0b 3b
        E 16 b1 0b 22
        E 112 81 2c 00
        E 0 91 33 22
        E 16 b1 0b 3b
        E 16 b1 0b 55
        E 32 b1 0b 3b
        E 16 b1 0b 22
        E 112 81 33 00
        E 0 91 31 22
        E 16 b1 0b 3b
        E 16 b1 0b 55
        E 32 b1 0b 3b
        E 16 b1 0b 22
        E 112 81 31 00
        E 0 91 33 22
        E 16 b1 0b 3b
        E 16 b1 0b 55
        E 32 b1 0b 3b
        E 16 b1 0b 22
        E 112 81 33 00
        E 0 91 2e 22
        E 16 b1 0b 3b
        E 16 b1 0b 55
        E 32 b1 0b 3b
        E 16 b1 0b 22
        E 112 81 2e 00
        E 0 91 33 22
        E 16 b1 0b 3b
        E 16 b1 0b 55
        E 32 b1 0b 3b
        E 16 b1 0b 22
        E 112 81 33 00
        E 0 91 31 22
        E 16 b1 0b 3b
        E 16 b1 0b 55
        E 32 b1 0b 3b
        E 16 b1 0b 22
        E 112 81 31 00
        E 0 91 33 22
        E 16 b1 0b 3b
        E 16 b1 0b 55
        E 32 b1 0b 3b
        E 16 b1 0b 22
        E 112 81 33 00
        E 0 91 2e 22
        E 16 b1 0b 3b
        E 16 b1 0b 55
        E 32 b1 0b 3b
        E 16 b1 0b 22
        E 112 81 2e 00
        E 0 91 33 22
        E 16 b1 0b 3b
        E 16 b1 0b 55
        E 32 b1 0b 3b
        E 16 b1 0b 22
        E 112 81 33 00
        E 0 91 31 22
        E 16 b1 0b 3b
        E 16 b1 0b 55
        E 32 b1 0b 3b
        E 16 b1 0b 22
        E 112 81 31 00
        E 0 91 33 22
        E 16 b1 0b 3b
        E 16 b1 0b 55
        E 32 b1 0b 3b
        E 16 b1 0b 22
        E 112 81 33 00
        E 0 91 2f 22
        E 16 b1 0b 3b
        E 16 b1 0b 55
        E 32 b1 0b 3b
        E 16 b1 0b 22
        E 112 81 2f 00
        E 0 91 33 22
        E 16 b1 0b 3b
        E 16 b1 0b 55
        E 32 b1 0b 3b
        E 16 b1 0b 22
        E 112 81 33 00
        E 0 91 31 22
        E 16 b1 0b 3b
        E 16 b1 0b 55
        E 32 b1 0b 3b
        E 16 b1 0b 22
        E 112 81 31 00
        E 0 91 33 22
        E 16 b1 0b 3b
        E 16 b1 0b 55
        E 32 b1 0b 3b
        E 16 b1 0b 22
        E 112 81 33 00
        E 0 91 2f 22
        E 16 b1 0b 3b
        E 16 b1 0b 55
        E 32 b1 0b 3b
        E 16 b1 0b 22
        E 112 81 2f 00
        E 0 91 33 22
        E 16 b1 0b 3b
        E 16 b1 0b 55
        E 32 b1 0b 3b
        E 16 b1 0b 22
        E 112 81 33 00
        E 0 91 31 22
        E 16 b1 0b 3b
        E 16 b1 0b 55
        E 32 b1 0b 3b
        E 16 b1 0b 22
        E 112 81 31 00
        E 0 91 33 22
        E 16 b1 0b 3b
        E 16 b1 0b 55
        E 32 b1 0b 3b
        E 16 b1 0b 22
        E 112 81 33 00
        E 0 91 2e 22
        E 16 b1 0b 3b
        E 16 b1 0b 55
        E 32 b1 0b 3b
        E 16 b1 0b 22
        E 112 81 2e 00
        E 0 91 33 22
        E 16 b1 0b 3b
        E 16 b1 0b 55
        E 32 b1 0b 3b
        E 16 b1 0b 22
        E 112 81 33 00
        E 0 91 31 22
        E 16 b1 0b 3b
        E 16 b1 0b 55
        E 32 b1 0b 3b
        E 16 b1 0b 22
        E 112 81 31 00
        E 0 91 33 22
        E 16 b1 0b 3b
        E 16 b1 0b 55
        E 32 b1 0b 3b
        E 16 b1 0b 22
        E 112 81 33 00
        E 0 91 2e 22
        E 16 b1 0b 3b
        E 16 b1 0b 55
        E 32 b1 0b 3b
        E 16 b1 0b 22
        E 112 81 2e 00
        E 0 91 33 22
        E 16 b1 0b 3b
        E 16 b1 0b 55
        E 32 b1 0b 3b
        E 16 b1 0b 22
        E 112 81 33 00
        E 0 91 31 22
        E 16 b1 0b 3b
        E 16 b1 0b 55
        E 32 b1 0b 3b
        E 16 b1 0b 22
        E 112 81 31 00
        E 0 91 33 22
        E 16 b1 0b 3b
        E 16 b1 0b 55
        E 32 b1 0b 3b
        E 16 b1 0b 22
        E 112 81 33 00
        E 0 91 2c 22
        E 16 b1 0b 3b
        E 16 b1 0b 55
        E 32 b1 0b 3b
        E 16 b1 0b 22
        E 112 81 2c 00
        E 0 91 33 22
        E 16 b1 0b 3b
        E 16 b1 0b 55
        E 32 b1 0b 3b
        E 16 b1 0b 22
        E 112 81 33 00
        E 0 91 31 22
        E 16 b1 0b 3b
        E 16 b1 0b 55
        E 32 b1 0b 3b
        E 16 b1 0b 22
        E 112 81 31 00
        E 0 91 33 22
        E 16 b1 0b 3b
        E 16 b1 0b 55
        E 32 b1 0b 3b
        E 16 b1 0b 22
        E 112 81 33 00
        E 0 91 2c 22
        E 16 b1 0b 3b
        E 16 b1 0b 55
        E 32 b1 0b 3b
        E 16 b1 0b 22
        E 112 81 2c 00
        E 0 91 33 22
        E 16 b1 0b 3b
        E 16 b1 0b 55
        E 32 b1 0b 3b
        E 16 b1 0b 22
        E 112 81 33 00
        E 0 91 31 22
        E 16 b1 0b 3b
        E 16 b1 0b 55
        E 32 b1 0b 3b
        E 16 b1 0b 22
        E 112 81 31 00
        E 0 91 33 22
        E 16 b1 0b 3b
        E 16 b1 0b 55
        E 32 b1 0b 3b
        E 16 b1 0b 22
        E 112 81 33 00
        E 0 91 2c 22
        E 16 b1 0b 3b
        E 16 b1 0b 55
        E 32 b1 0b 3b
        E 16 b1 0b 22
        E 112 81 2c 00
        E 0 91 31 22
        E 16 b1 0b 3b
        E 16 b1 0b 55
        E 32 b1 0b 3b
        E 16 b1 0b 22
        E 112 81 31 00
        E 0 91 2f 22
        E 16 b1 0b 3b
        E 16 b1 0b 55
        E 32 b1 0b 3b
        E 16 b1 0b 22
        E 112 81 2f 00
        E 0 91 31 22
        E 16 b1 0b 3b
        E 16 b1 0b 55
        E 32 b1 0b 3b
        E 16 b1 0b 22
        E 112 81 31 00
        E 0 91 2c 22
        E 16 b1 0b 3b
        E 16 b1 0b 55
        E 32 b1 0b 3b
        E 16 b1 0b 22
        E 112 81 2c 00
        E 0 91 31 22
        E 16 b1 0b 3b
        E 16 b1 0b 55
        E 32 b1 0b 3b
        E 16 b1 0b 22
        E 112 81 31 00
        E 0 91 2f 22
        E 16 b1 0b 3b
        E 16 b1 0b 55
        E 32 b1 0b 3b
        E 16 b1 0b 22
        E 112 81 2f 00
        E 0 91 31 22
        E 16 b1 0b 3b
        E 16 b1 0b 55
        E 32 b1 0b 3b
        E 16 b1 0b 22
        E 112 b1 0b 44
        E 0 81 31 00
        E 0 91 33 44
        E 16 b1 0b 3b
        E 16 b1 0b 2a
        E 16 b1 0b 22
        E 16 b1 0b 11
        E 16 81 33 00
        E 112 b1 0b 44
        E 0 91 33 44
        E 16 b1 0b 3b
        E 16 b1 0b 2a
        E 16 b1 0b 22
        E 16 b1 0b 11
        E 16 81 33 00
        E 304 b1 0b 44
        E 0 91 2e 44
        E 16 b1 0b 3b
        E 16 b1 0b 2a
        E 16 b1 0b 22
        E 16 b1 0b 11
        E 16 81 2e 00
        E 112 b1 0b 44
        E 0 91 33 44
        E 16 b1 0b 3b
        E 16 b1 0b 2a
        E 16 b1 0b 22
        E 16 b1 0b 11
        E 16 81 33 00
        E 112 b1 0b 44
        E 0 91 33 44
        E 16 b1 0b 3b
        E 16 b1 0b 2a
        E 16 b1 0b 22
        E 16 b1 0b 11
        E 16 81 33 00
        E 304 b1 0b 44
        E 0 91 2e 44
        E 16 b1 0b 3b
        E 16 b1 0b 2a
        E 16 b1 0b 22
        E 16 b1 0b 11
        E 16 81 2e 00
        E 112 b1 0b 44
        E 0 91 33 44
        E 16 b1 0b 3b
        E 16 b1 0b 2a
        E 16 b1 0b 22
        E 16 b1 0b 11
        E 16 81 33 00
        E 112 b1 0b 44
        E 0 91 33 44
        E 16 b1 0b 3b
        E 16 b1 0b 2a
        E 16 b1 0b 22
        E 16 b1 0b 11
        E 16 81 33 00
        E 304 b1 0b 44
        E 0 91 2f 44
        E 16 b1 0b 3b
        E 16 b1 0b 2a
        E 16 b1 0b 22
        E 16 b1 0b 11
        E 16 81 2f 00
        E 112 b1 0b 44
        E 0 91 33 44
        E 16 b1 0b 3b
        E 16 b1 0b 2a
        E 16 b1 0b 22
        E 16 b1 0b 11
        E 16 81 33 00
        E 112 b1 0b 44
        E 0 91 33 44
        E 16 b1 0b 3b
        E 16 b1 0b 2a
        E 16 b1 0b 22
        E 16 b1 0b 11
        E 16 81 33 00
        E 304 b1 0b 44
        E 0 91 2f 44
        E 16 b1 0b 3b
        E 16 b1 0b 2a
        E 16 b1 0b 22
        E 16 b1 0b 11
        E 16 81 2f 00
        E 112 b1 0b 44
        E 0 91 34 44
        E 16 b1 0b 3b
        E 16 b1 0b 2a
        E 16 b1 0b 22
        E 16 b1 0b 11
        E 16 81 34 00
        E 112 b1 0b 44
        E 0 91 34 44
        E 16 b1 0b 3b
        E 16 b1 0b 2a
        E 16 b1 0b 22
        E 16 b1 0b 11
        E 16 81 34 00
        E 304 b1 0b 44
        E 0 91 31 44
        E 16 b1 0b 3b
        E 16 b1 0b 2a
        E 16 b1 0b 22
        E 16 b1 0b 11
        E 16 81 31 00
        E 112 b1 0b 44
        E 0 91 34 44
        E 16 b1 0b 3b
        E 16 b1 0b 2a
        E 16 b1 0b 22
        E 16 b1 0b 11
        E 16 81 34 00
        E 112 b1 0b 44
        E 0 91 34 44
        E 16 b1 0b 3b
        E 16 b1 0b 2a
        E 16 b1 0b 22
        E 16 b1 0b 11
        E 16 81 34 00
        E 304 b1 0b 44
        E 0 91 31 44
        E 16 b1 0b 3b
        E 16 b1 0b 2a
        E 16 b1 0b 22
        E 16 b1 0b 11
        E 16 81 31 00
        E 112 b1 0b 44
        E 0 91 36 44
        E 16 b1 0b 3b
        E 16 b1 0b 2a
        E 16 b1 0b 22
        E 16 b1 0b 11
        E 16 81 36 00
        E 112 b1 0b 44
        E 0 91 36 44
        E 16 b1 0b 3b
        E 16 b1 0b 2a
        E 16 b1 0b 22
        E 16 b1 0b 11
        E 16 81 36 00
        E 304 b1 0b 44
        E 0 91 33 44
        E 16 b1 0b 3b
        E 16 b1 0b 2a
        E 16 b1 0b 22
        E 16 b1 0b 11
        E 16 81 33 00
        E 112 b1 0b 44
        E 0 91 36 44
        E 16 b1 0b 3b
        E 16 b1 0b 2a
        E 16 b1 0b 22
        E 16 b1 0b 11
        E 16 81 36 00
        E 112 b1 0b 44
        E 0 91 36 44
        E 16 b1 0b 3b
        E 16 b1 0b 2a
        E 16 b1 0b 22
        E 16 b1 0b 11
        E 16 81 36 00
        E 304 b1 0b 44
        E 0 91 33 44
        E 16 b1 0b 3b
        E 16 b1 0b 2a
        E 16 b1 0b 22
        E 16 b1 0b 11
        E 16 81 33 00
        E 112 b1 0b 66
        E 0 91 38 66
        E 16 b1 0b 5d
        E 16 b1 0b 55
        E 16 b1 0b 4c
        E 16 b1 0b 44
        E 16 b1 0b 3b
        E 16 b1 0b 33
        E 16 b1 0b 2a
        E 16 b1 0b 22
        E 16 b1 0b 2a
        E 16 b1 0b 33
        E 16 b1 0b 3b
        E 16 b1 0b 44
        E 16 b1 0b 3b
        E 16 b1 0b 33
        E 16 b1 0b 2a
        E 16 b1 0b 22
        E 16 b1 0b 2a
        E 16 b1 0b 33
        E 16 b1 0b 3b
        E 16 b1 0b 44
        E 16 b1 0b 3b
        E 16 b1 0b 33
        E 16 b1 0b 2a
        E 16 b1 0b 22
        E 16 b1 0b 2a
        E 16 b1 0b 33
        E 16 b1 0b 3b
        E 16 b1 0b 44
        E 16 b1 0b 4c
        E 16 b1 0b 55
        E 16 b1 0b 5d
        E 464 b1 0b 22
        E 0 81 38 00
        E 0 91 2f 22
        E 16 b1 0b 3b
        E 16 b1 0b 55
        E 32 b1 0b 3b
        E 16 b1 0b 22
        E 112 81 2f 00
        E 0 91 34 22
        E 16 b1 0b 3b
        E 16 b1 0b 55
        E 32 b1 0b 3b
        E 16 b1 0b 22
        E 112 81 34 00
        E 0 91 38 22
        E 16 b1 0b 3b
        E 16 b1 0b 55
        E 32 b1 0b 3b
        E 16 b1 0b 22
        E 112 b1 0b 66
        E 0 81 38 00
        E 0 91 34 66
        E 16 b1 0b 5d
        E 16 b1 0b 55
        E 16 b1 0b 4c
        E 16 b1 0b 44
        E 16 b1 0b 3b
        E 16 b1 0b 33
        E 16 b1 0b 2a
        E 16 b1 0b 22
        E 16 b1 0b 2a
        E 16 b1 0b 33
        E 16 b1 0b 3b
        E 16 b1 0b 44
        E 16 b1 0b 3b
        E 16 b1 0b 33
        E 16 b1 0b 2a
        E 16 b1 0b 22
        E 16 b1 0b 2a
        E 16 b1 0b 33
        E 16 b1 0b 3b
        E 16 b1 0b 44
        E 16 b1 0b 3b
        E 16 b1 0b 33
        E 16 b1 0b 2a
        E 16 b1 0b 22
        E 16 b1 0b 2a
        E 16 b1 0b 33
        E 16 b1 0b 3b
        E 16 b1 0b 44
        E 16 b1 0b 4c
        E 16 b1 0b 55
        E 16 b1 0b 5d
        E 464 b1 0b 22
        E 0 81 34 00
        E 0 91 2c 22
        E 16 b1 0b 3b
        E 16 b1 0b 55
        E 32 b1 0b 3b
        E 16 b1 0b 22
        E 112 81 2c 00
        E 0 91 31 22
        E 16 b1 0b 3b
        E 16 b1 0b 55
        E 32 b1 0b 3b
        E 16 b1 0b 22
        E 112 81 31 00
        E 0 91 34 22
        E 16 b1 0b 3b
        E 16 b1 0b 55
        E 32 b1 0b 3b
        E 16 b1 0b 22
        E 112 b1 0b 66
        E 0 81 34 00
        E 0 91 37 66
        E 16 b1 0b 5d
        E 16 b1 0b 55
        E 16 b1 0b 4c
        E 16 b1 0b 44
        E 16 b1 0b 3b
        E 16 b1 0b 33
        E 16 b1 0b 2a
        E 16 b1 0b 22
        E 16 b1 0b 2a
        E 16 b1 0b 33
        E 16 b1 0b 3b
        E 16 b1 0b 44
        E 16 b1 0b 3b
        E 16 b1 0b 33
        E 16 b1 0b 2a
        E 16 b1 0b 22
        E 16 b1 0b 2a
        E 16 b1 0b 33
        E 16 b1 0b 3b
        E 16 b1 0b 44
        E 16 b1 0b 3b
        E 16 b1 0b 33
        E 16 b1 0b 2a
        E 16 b1 0b 22
        E 16 b1 0b 2a
        E 16 b1 0b 33
        E 16 b1 0b 3b
        E 16 b1 0b 44
        E 16 b1 0b 4c
        E 16 b1 0b 55
        E 16 b1 0b 5d
        E 464 b1 0b 22
        E 0 81 37 00
        E 0 91 2e 22
        E 16 b1 0b 3b
        E 16 b1 0b 55
        E 32 b1 0b 3b
        E 16 b1 0b 22
        E 112 81 2e 00
        E 0 91 33 22
        E 16 b1 0b 3b
        E 16 b1 0b 55
        E 32 b1 0b 3b
        E 16 b1 0b 22
        E 112 81 33 00
        E 0 91 37 22
        E 16 b1 0b 3b
        E 16 b1 0b 55
        E 32 b1 0b 3b
        E 16 b1 0b 22
        E 112 81 37 00
        E 0 91 2b 22
        E 16 b1 0b 3b
        E 16 b1 0b 55
        E 32 b1 0b 3b
        E 16 b1 0b 22
        E 112 81 2b 00
        E 0 91 2e 22
        E 16 b1 0b 3b
        E 16 b1 0b 55
        E 32 b1 0b 3b
        E 16 b1 0b 22
        E 112 81 2e 00
        E 0 91 31 22
        E 16 b1 0b 3b
        E 16 b1 0b 55
        E 32 b1 0b 3b
        E 16 b1 0b 22
        E 112 81 31 00
        E 0 91 34 22
        E 16 b1 0b 3b
        E 16 b1 0b 55
        E 32 b1 0b 3b
        E 16 b1 0b 22
        E 112 81 34 00
        E 0 91 37 22
        E 16 b1 0b 3b
        E 16 b1 0b 55
        E 32 b1 0b 3b
        E 16 b1 0b 22
        E 112 81 37 00
        E 0 91 34 22
        E 16 b1 0b 3b
        E 16 b1 0b 55
        E 32 b1 0b 3b
        E 16 b1 0b 22
        E 112 81 34 00
        E 0 91 31 22
        E 16 b1 0b 3b
        E 16 b1 0b 55
        E 32 b1 0b 3b
        E 16 b1 0b 22
        E 112 81 31 00
        E 0 91 2e 22
        E 16 b1 0b 3b
        E 16 b1 0b 55
        E 32 b1 0b 3b
        E 16 b1 0b 22
        E 112 81 2e 00
        E 0 91 2f 22
        E 16 b1 0b 3b
        E 16 b1 0b 55
        E 32 b1 0b 3b
        E 16 b1 0b 22
        E 112 81 2f 00
        E 0 91 33 22
        E 16 b1 0b 3b
        E 16 b1 0b 55
        E 32 b1 0b 3b
        E 16 b1 0b 22
        E 112 81 33 00
        E 0 91 31 22
        E 16 b1 0b 3b
        E 16 b1 0b 55
        E 32 b1 0b 3b
        E 16 b1 0b 22
        E 112 81 31 00
        E 0 91 33 22
        E 16 b1 0b 3b
        E 16 b1 0b 55
        E 32 b1 0b 3b
        E 16 b1 0b 22
        E 112 81 33 00
        E 0 91 2f 22
        E 16 b1 0b 3b
        E 16 b1 0b 55
        E 32 b1 0b 3b
        E 16 b1 0b 22
        E 112 81 2f 00
        E 0 91 33 22
        E 16 b1 0b 3b
        E 16 b1 0b 55
        E 32 b1 0b 3b
        E 16 b1 0b 22
        E 112 81 33 00
        E 0 91 31 22
        E 16 b1 0b 3b
        E 16 b1 0b 55
        E 32 b1 0b 3b
        E 16 b1 0b 22
        E 112 81 31 00
        E 0 91 33 22
        E 16 b1 0b 3b
        E 16 b1 0b 55
        E 32 b1 0b 3b
        E 16 b1 0b 22
        E 112 81 33 00
        E 0 91 2e 22
        E 16 b1 0b 3b
        E 16 b1 0b 55
        E 32 b1 0b 3b
        E 16 b1 0b 22
        E 112 81 2e 00
        E 0 91 33 22
        E 16 b1 0b 3b
        E 16 b1 0b 55
        E 32 b1 0b 3b
        E 16 b1 0b 22
        E 112 81 33 00
        E 0 91 31 22
        E 16 b1 0b 3b
        E 16 b1 0b 55
        E 32 b1 0b 3b
        E 16 b1 0b 22
        E 112 81 31 00
        E 0 91 33 22
        E 16 b1 0b 3b
        E 16 b1 0b 55
        E 32 b1 0b 3b
        E 16 b1 0b 22
        E 112 81 33 00
        E 0 91 2e 22
        E 16 b1 0b 3b
        E 16 b1 0b 55
        E 32 b1 0b 3b
        E 16 b1 0b 22
        E 112 81 2e 00
        E 0 91 33 22
        E 16 b1 0b 3b
        E 16 b1 0b 55
        E 32 b1 0b 3b
        E 16 b1 0b 22
        E 112 81 33 00
        E 0 91 31 22
        E 16 b1 0b 3b
        E 16 b1 0b 55
        E 32 b1 0b 3b
        E 16 b1 0b 22
        E 112 81 31 00
        E 0 91 33 22
        E 16 b1 0b 3b
        E 16 b1 0b 55
        E 32 b1 0b 3b
        E 16 b1 0b 22
        E 112 81 33 00
        E 0 91 2c 22
        E 16 b1 0b 3b
        E 16 b1 0b 55
        E 32 b1 0b 3b
        E 16 b1 0b 22
        E 112 81 2c 00
        E 0 91 33 22
        E 16 b1 0b 3b
        E 16 b1 0b 55
        E 32 b1 0b 3b
        E 16 b1 0b 22
        E 112 81 33 00
        E 0 91 31 22
        E 16 b1 0b 3b
        E 16 b1 0b 55
        E 32 b1 0b 3b
        E 16 b1 0b 22
        E 112 81 31 00
        E 0 91 33 22
        E 16 b1 0b 3b
        E 16 b1 0b 55
        E 32 b1 0b 3b
        E 16 b1 0b 22
        E 112 81 33 00
        E 0 91 2c 22
        E 16 b1 0b 3b
        E 16 b1 0b 55
        E 32 b1 0b 3b
        E 16 b1 0b 22
        E 112 81 2c 00
        E 0 91 33 22
        E 16 b1 0b 3b
        E 16 b1 0b 55
        E 32 b1 0b 3b
        E 16 b1 0b 22
        E 112 81 33 00
        E 0 91 31 22
        E 16 b1 0b 3b
        E 16 b1 0b 55
        E 32 b1 0b 3b
        E 16 b1 0b 22
        E 112 81 31 00
        E 0 91 33 22
        E 16 b1 0b 3b
        E 16 b1 0b 55
        E 32 b1 0b 3b
        E 16 b1 0b 22
        E 112 81 33 00
        E 0 91 2e 22
        E 16 b1 0b 3b
        E 16 b1 0b 55
        E 32 b1 0b 3b
        E 16 b1 0b 22
        E 112 81 2e 00
        E 0 91 33 22
        E 16 b1 0b 3b
        E 16 b1 0b 55
        E 32 b1 0b 3b
        E 16 b1 0b 22
        E 112 81 33 00
        E 0 91 31 22
        E 16 b1 0b 3b
        E 16 b1 0b 55
        E 32 b1 0b 3b
        E 16 b1 0b 22
        E 112 81 31 00
        E 0 91 33 22
        E 16 b1 0b 3b
        E 16 b1 0b 55
        E 32 b1 0b 3b
        E 16 b1 0b 22
        E 112 81 33 00
        E 0 91 2e 22
        E 16 b1 0b 3b
        E 16 b1 0b 55
        E 32 b1 0b 3b
        E 16 b1 0b 22
        E 112 81 2e 00
        E 0 91 33 22
        E 16 b1 0b 3b
        E 16 b1 0b 55
        E 32 b1 0b 3b
        E 16 b1 0b 22
        E 112 81 33 00
        E 0 91 31 22
        E 16 b1 0b 3b
        E 16 b1 0b 55
        E 32 b1 0b 3b
        E 16 b1 0b 22
        E 112 81 31 00
        E 0 91 33 22
        E 16 b1 0b 3b
        E 16 b1 0b 55
        E 32 b1 0b 3b
        E 16 b1 0b 22
        E 112 81 33 00
        E 0 91 2f 22
        E 16 b1 0b 3b
        E 16 b1 0b 55
        E 32 b1 0b 3b
        E 16 b1 0b 22
        E 112 81 2f 00
        E 0 91 33 22
        E 16 b1 0b 3b
        E 16 b1 0b 55
        E 32 b1 0b 3b
        E 16 b1 0b 22
        E 112 81 33 00
        E 0 91 31 22
        E 16 b1 0b 3b
        E 16 b1 0b 55
        E 32 b1 0b 3b
        E 16 b1 0b 22
        E 112 81 31 00
        E 0 91 33 22
        E 16 b1 0b 3b
        E 16 b1 0b 55
        E 32 b1 0b 3b
        E 16 b1 0b 22
        E 112 81 33 00
        E 0 91 2f 22
        E 16 b1 0b 3b
        E 16 b1 0b 55
        E 32 b1 0b 3b
        E 16 b1 0b 22
        E 112 81 2f 00
        E 0 91 33 22
        E 16 b1 0b 3b
        E 16 b1 0b 55
        E 32 b1 0b 3b
        E 16 b1 0b 22
        E 112 81 33 00
        E 0 91 31 22
        E 16 b1 0b 3b
        E 16 b1 0b 55
        E 32 b1 0b 3b
        E 16 b1 0b 22
        E 112 81 31 00
        E 0 91 33 22
        E 16 b1 0b 3b
        E 16 b1 0b 55
        E 32 b1 0b 3b
        E 16 b1 0b 22
        E 112 81 33 00
        E 0 91 2e 22
        E 16 b1 0b 3b
        E 16 b1 0b 55
        E 32 b1 0b 3b
        E 16 b1 0b 22
        E 112 81 2e 00
        E 0 91 33 22
        E 16 b1 0b 3b
        E 16 b1 0b 55
        E 32 b1 0b 3b
        E 16 b1 0b 22
        E 112 81 33 00
        E 0 91 31 22
        E 16 b1 0b 3b
        E 16 b1 0b 55
        E 32 b1 0b 3b
        E 16 b1 0b 22
        E 112 81 31 00
        E 0 91 33 22
        E 16 b1 0b 3b
        E 16 b1 0b 55
        E 32 b1 0b 3b
        E 16 b1 0b 22
        E 112 81 33 00
        E 0 91 2e 22
        E 16 b1 0b 3b
        E 16 b1 0b 55
        E 32 b1 0b 3b
        E 16 b1 0b 22
        E 112 81 2e 00
        E 0 91 33 22
        E 16 b1 0b 3b
        E 16 b1 0b 55
        E 32 b1 0b 3b
        E 16 b1 0b 22
        E 112 81 33 00
        E 0 91 31 22
        E 16 b1 0b 3b
        E 16 b1 0b 55
        E 32 b1 0b 3b
        E 16 b1 0b 22
        E 112 81 31 00
        E 0 91 33 22
        E 16 b1 0b 3b
        E 16 b1 0b 55
        E 32 b1 0b 3b
        E 16 b1 0b 22
        E 112 81 33 00
        E 0 91 2c 22
        E 16 b1 0b 3b
        E 16 b1 0b 55
        E 32 b1 0b 3b
        E 16 b1 0b 22
        E 112 81 2c 00
        E 0 91 33 22
        E 16 b1 0b 3b
        E 16 b1 0b 55
        E 32 b1 0b 3b
        E 16 b1 0b 22
        E 112 81 33 00
        E 0 91 31 22
        E 16 b1 0b 3b
        E 16 b1 0b 55
        E 32 b1 0b 3b
        E 16 b1 0b 22
        E 112 81 31 00
        E 0 91 33 22
        E 16 b1 0b 3b
        E 16 b1 0b 55
        E 32 b1 0b 3b
        E 16 b1 0b 22
        E 112 81 33 00
        E 0 91 2c 22
        E 16 b1 0b 3b
        E 16 b1 0b 55
        E 32 b1 0b 3b
        E 16 b1 0b 22
        E 112 81 2c 00
        E 0 91 33 22
        E 16 b1 0b 3b
        E 16 b1 0b 55
        E 32 b1 0b 3b
        E 16 b1 0b 22
        E 112 81 33 00
        E 0 91 31 22
        E 16 b1 0b 3b
        E 16 b1 0b 55
        E 32 b1 0b 3b
        E 16 b1 0b 22
        E 112 81 31 00
        E 0 91 33 22
        E 16 b1 0b 3b
        E 16 b1 0b 55
        E 32 b1 0b 3b
        E 16 b1 0b 22
        E 112 81 33 00
        E 0 91 2c 22
        E 16 b1 0b 3b
        E 16 b1 0b 55
        E 32 b1 0b 3b
        E 16 b1 0b 22
        E 112 81 2c 00
        E 0 91 31 22
        E 16 b1 0b 3b
        E 16 b1 0b 55
        E 32 b1 0b 3b
        E 16 b1 0b 22
        E 112 81 31 00
        E 0 91 2f 22
        E 16 b1 0b 3b
        E 16 b1 0b 55
        E 32 b1 0b 3b
        E 16 b1 0b 22
        E 112 81 2f 00
        E 0 91 31 22
        E 16 b1 0b 3b
        E 16 b1 0b 55
        E 32 b1 0b 3b
        E 16 b1 0b 22
        E 112 81 31 00
        E 0 91 2c 22
        E 16 b1 0b 3b
        E 16 b1 0b 55
        E 32 b1 0b 3b
        E 16 b1 0b 22
        E 112 81 2c 00
        E 0 91 31 22
        E 16 b1 0b 3b
        E 16 b1 0b 55
        E 32 b1 0b 3b
        E 16 b1 0b 22
        E 112 81 31 00
        E 0 91 2f 22
        E 16 b1 0b 3b
        E 16 b1 0b 55
        E 32 b1 0b 3b
        E 16 b1 0b 22
        E 112 81 2f 00
        E 0 91 31 22
        E 16 b1 0b 3b
        E 16 b1 0b 55
        E 32 b1 0b 3b
        E 16 b1 0b 22
        E 112 b1 0b 44
        E 0 81 31 00
        E 0 91 33 44
        E 16 b1 0b 3b
        E 16 b1 0b 2a
        E 16 b1 0b 22
        E 16 b1 0b 11
        E 16 81 33 00
        E 112 b1 0b 44
        E 0 91 33 44
        E 16 b1 0b 3b
        E 16 b1 0b 2a
        E 16 b1 0b 22
        E 16 b1 0b 11
        E 16 81 33 00
        E 304 b1 0b 44
        E 0 91 2e 44
        E 16 b1 0b 3b
        E 16 b1 0b 2a
        E 16 b1 0b 22
        E 16 b1 0b 11
        E 16 81 2e 00
        E 112 b1 0b 44
        E 0 91 33 44
        E 16 b1 0b 3b
        E 16 b1 0b 2a
        E 16 b1 0b 22
        E 16 b1 0b 11
        E 16 81 33 00
        E 112 b1 0b 44
        E 0 91 33 44
        E 16 b1 0b 3b
        E 16 b1 0b 2a
        E 16 b1 0b 22
        E 16 b1 0b 11
        E 16 81 33 00
        E 304 b1 0b 44
        E 0 91 2e 44
        E 16 b1 0b 3b
        E 16 b1 0b 2a
        E 16 b1 0b 22
        E 16 b1 0b 11
        E 16 81 2e 00
        E 112 b1 0b 44
        E 0 91 33 44
        E 16 b1 0b 3b
        E 16 b1 0b 2a
        E 16 b1 0b 22
        E 16 b1 0b 11
        E 16 81 33 00
        E 112 b1 0b 44
        E 0 91 33 44
        E 16 b1 0b 3b
        E 16 b1 0b 2a
        E 16 b1 0b 22
        E 16 b1 0b 11
        E 16 81 33 00
        E 304 b1 0b 44
        E 0 91 2f 44
        E 16 b1 0b 3b
        E 16 b1 0b 2a
        E 16 b1 0b 22
        E 16 b1 0b 11
        E 16 81 2f 00
        E 112 b1 0b 44
        E 0 91 33 44
        E 16 b1 0b 3b
        E 16 b1 0b 2a
        E 16 b1 0b 22
        E 16 b1 0b 11
        E 16 81 33 00
        E 112 b1 0b 44
        E 0 91 33 44
        E 16 b1 0b 3b
        E 16 b1 0b 2a
        E 16 b1 0b 22
        E 16 b1 0b 11
        E 16 81 33 00
        E 304 b1 0b 44
        E 0 91 2f 44
        E 16 b1 0b 3b
        E 16 b1 0b 2a
        E 16 b1 0b 22
        E 16 b1 0b 11
        E 16 81 2f 00
        E 112 b1 0b 44
        E 0 91 34 44
        E 16 b1 0b 3b
        E 16 b1 0b 2a
        E 16 b1 0b 22
        E 16 b1 0b 11
        E 16 81 34 00
        E 112 b1 0b 44
        E 0 91 34 44
        E 16 b1 0b 3b
        E 16 b1 0b 2a
        E 16 b1 0b 22
        E 16 b1 0b 11
        E 16 81 34 00
        E 304 b1 0b 44
        E 0 91 31 44
        E 16 b1 0b 3b
        E 16 b1 0b 2a
        E 16 b1 0b 22
        E 16 b1 0b 11
        E 16 81 31 00
        E 112 b1 0b 44
        E 0 91 34 44
        E 16 b1 0b 3b
        E 16 b1 0b 2a
        E 16 b1 0b 22
        E 16 b1 0b 11
        E 16 81 34 00
        E 112 b1 0b 44
        E 0 91 34 44
        E 16 b1 0b 3b
        E 16 b1 0b 2a
        E 16 b1 0b 22
        E 16 b1 0b 11
        E 16 81 34 00
        E 304 b1 0b 44
        E 0 91 31 44
        E 16 b1 0b 3b
        E 16 b1 0b 2a
        E 16 b1 0b 22
        E 16 b1 0b 11
        E 16 81 31 00
        E 112 b1 0b 44
        E 0 91 36 44
        E 16 b1 0b 3b
        E 16 b1 0b 2a
        E 16 b1 0b 22
        E 16 b1 0b 11
        E 16 81 36 00
        E 112 b1 0b 44
        E 0 91 36 44
        E 16 b1 0b 3b
        E 16 b1 0b 2a
        E 16 b1 0b 22
        E 16 b1 0b 11
        E 16 81 36 00
        E 304 b1 0b 44
        E 0 91 33 44
        E 16 b1 0b 3b
        E 16 b1 0b 2a
        E 16 b1 0b 22
        E 16 b1 0b 11
        E 16 81 33 00
        E 112 b1 0b 44
        E 0 91 36 44
        E 16 b1 0b 3b
        E 16 b1 0b 2a
        E 16 b1 0b 22
        E 16 b1 0b 11
        E 16 81 36 00
        E 112 b1 0b 44
        E 0 91 36 44
        E 16 b1 0b 3b
        E 16 b1 0b 2a
        E 16 b1 0b 22
        E 16 b1 0b 11
        E 16 81 36 00
        E 304 b1 0b 44
        E 0 91 33 44
        E 16 b1 0b 3b
        E 16 b1 0b 2a
        E 16 b1 0b 22
        E 16 b1 0b 11
        E 16 81 33 00
        E 112 b1 0b 66
        E 0 91 38 66
        E 16 b1 0b 5d
        E 16 b1 0b 55
        E 16 b1 0b 4c
        E 16 b1 0b 44
        E 16 b1 0b 3b
        E 16 b1 0b 33
        E 16 b1 0b 2a
        E 16 b1 0b 22
        E 16 b1 0b 2a
        E 16 b1 0b 33
        E 16 b1 0b 3b
        E 16 b1 0b 44
        E 16 b1 0b 3b
        E 16 b1 0b 33
        E 16 b1 0b 2a
        E 16 b1 0b 22
        E 16 b1 0b 2a
        E 16 b1 0b 33
        E 16 b1 0b 3b
        E 16 b1 0b 44
        E 16 b1 0b 3b
        E 16 b1 0b 33
        E 16 b1 0b 2a
        E 16 b1 0b 22
        E 16 b1 0b 2a
        E 16 b1 0b 33
        E 16 b1 0b 3b
        E 16 b1 0b 44
        E 16 b1 0b 4c
        E 16 b1 0b 55
        E 16 b1 0b 5d
        E 464 b1 0b 22
        E 0 81 38 00
        E 0 91 2f 22
        E 16 b1 0b 3b
        E 16 b1 0b 55
        E 32 b1 0b 3b
        E 16 b1 0b 22
        E 112 81 2f 00
        E 0 91 34 22
        E 16 b1 0b 3b
        E 16 b1 0b 55
        E 32 b1 0b 3b
        E 16 b1 0b 22
        E 112 81 34 00
        E 0 91 38 22
        E 16 b1 0b 3b
        E 16 b1 0b 55
        E 32 b1 0b 3b
        E 16 b1 0b 22
        E 112 b1 0b 66
        E 0 81 38 00
        E 0 91 34 66
        E 16 b1 0b 5d
        E 16 b1 0b 55
        E 16 b1 0b 4c
        E 16 b1 0b 44
        E 16 b1 0b 3b
        E 16 b1 0b 33
        E 16 b1 0b 2a
        E 16 b1 0b 22
        E 16 b1 0b 2a
        E 16 b1 0b 33
        E 16 b1 0b 3b
        E 16 b1 0b 44
        E 16 b1 0b 3b
        E 16 b1 0b 33
        E 16 b1 0b 2a
        E 16 b1 0b 22
        E 16 b1 0b 2a
        E 16 b1 0b 33
        E 16 b1 0b 3b
        E 16 b1 0b 44
        E 16 b1 0b 3b
        E 16 b1 0b 33
        E 16 b1 0b 2a
        E 16 b1 0b 22
        E 16 b1 0b 2a
        E 16 b1 0b 33
        E 16 b1 0b 3b
        E 16 b1 0b 44
        E 16 b1 0b 4c
        E 16 b1 0b 55
        E 16 b1 0b 5d
        E 464 b1 0b 22
        E 0 81 34 00
        E 0 91 2c 22
        E 16 b1 0b 3b
        E 16 b1 0b 55
        E 32 b1 0b 3b
        E 16 b1 0b 22
        E 112 81 2c 00
        E 0 91 31 22
        E 16 b1 0b 3b
        E 16 b1 0b 55
        E 32 b1 0b 3b
        E 16 b1 0b 22
        E 112 81 31 00
        E 0 91 34 22
        E 16 b1 0b 3b
        E 16 b1 0b 55
        E 32 b1 0b 3b
        E 16 b1 0b 22
        E 112 b1 0b 66
        E 0 81 34 00
        E 0 91 37 66
        E 16 b1 0b 5d
        E 16 b1 0b 55
        E 16 b1 0b 4c
        E 16 b1 0b 44
        E 16 b1 0b 3b
        E 16 b1 0b 33
        E 16 b1 0b 2a
        E 16 b1 0b 22
        E 16 b1 0b 2a
        E 16 b1 0b 33
        E 16 b1 0b 3b
        E 16 b1 0b 44
        E 16 b1 0b 3b
        E 16 b1 0b 33
        E 16 b1 0b 2a
        E 16 b1 0b 22
        E 16 b1 0b 2a
        E 16 b1 0b 33
        E 16 b1 0b 3b
        E 16 b1 0b 44
        E 16 b1 0b 3b
        E 16 b1 0b 33
        E 16 b1 0b 2a
        E 16 b1 0b 22
        E 16 b1 0b 2a
        E 16 b1 0b 33
        E 16 b1 0b 3b
        E 16 b1 0b 44
        E 16 b1 0b 4c
        E 16 b1 0b 55
        E 16 b1 0b 5d
        E 464 b1 0b 22
        E 0 81 37 00
        E 0 91 2e 22
        E 16 b1 0b 3b
        E 16 b1 0b 55
        E 32 b1 0b 3b
        E 16 b1 0b 22
        E 112 81 2e 00
        E 0 91 33 22
        E 16 b1 0b 3b
        E 16 b1 0b 55
        E 32 b1 0b 3b
        E 16 b1 0b 22
        E 112 81 33 00
        E 0 91 37 22
        E 16 b1 0b 3b
        E 16 b1 0b 55
        E 32 b1 0b 3b
        E 16 b1 0b 22
        E 112 81 37 00
        E 0 91 2b 22
        E 16 b1 0b 3b
        E 16 b1 0b 55
        E 32 b1 0b 3b
        E 16 b1 0b 22
        E 112 81 2b 00
        E 0 91 2e 22
        E 16 b1 0b 3b
        E 16 b1 0b 55
        E 32 b1 0b 3b
        E 16 b1 0b 22
        E 112 81 2e 00
        E 0 91 31 22
        E 16 b1 0b 3b
        E 16 b1 0b 55
        E 32 b1 0b 3b
        E 16 b1 0b 22
        E 112 81 31 00
        E 0 91 34 22
        E 16 b1 0b 3b
        E 16 b1 0b 55
        E 32 b1 0b 3b
        E 16 b1 0b 22
        E 112 81 34 00
        E 0 91 37 22
        E 16 b1 0b 3b
        E 16 b1 0b 55
        E 32 b1 0b 3b
        E 16 b1 0b 22
        E 112 81 37 00
        E 0 91 34 22
        E 16 b1 0b 3b
        E 16 b1 0b 55
        E 32 b1 0b 3b
        E 16 b1 0b 22
        E 112 81 34 00
        E 0 91 31 22
        E 16 b1 0b 3b
        E 16 b1 0b 55
        E 32 b1 0b 3b
        E 16 b1 0b 22
        E 112 81 31 00
        E 0 91 2e 22
        E 16 b1 0b 3b
        E 16 b1 0b 55
        E 32 b1 0b 3b
        E 16 b1 0b 22
        E 112 81 2e 00
        E 0 91 2f 22
        E 16 b1 0b 3b
        E 16 b1 0b 55
        E 32 b1 0b 3b
        E 16 b1 0b 22
        E 112 81 2f 00
        E 0 91 33 22
        E 16 b1 0b 3b
        E 16 b1 0b 55
        E 32 b1 0b 3b
        E 16 b1 0b 22
        E 112 81 33 00
        E 0 91 31 22
        E 16 b1 0b 3b
        E 16 b1 0b 55
        E 32 b1 0b 3b
        E 16 b1 0b 22
        E 112 81 31 00
        E 0 91 33 22
        E 16 b1 0b 3b
        E 16 b1 0b 55
        E 32 b1 0b 3b
        E 16 b1 0b 22
        E 112 81 33 00
        E 0 91 2f 22
        E 16 b1 0b 3b
        E 16 b1 0b 55
        E 32 b1 0b 3b
        E 16 b1 0b 22
        E 112 81 2f 00
        E 0 91 33 22
        E 16 b1 0b 3b
        E 16 b1 0b 55
        E 32 b1 0b 3b
        E 16 b1 0b 22
        E 112 81 33 00
        E 0 91 31 22
        E 16 b1 0b 3b
        E 16 b1 0b 55
        E 32 b1 0b 3b
        E 16 b1 0b 22
        E 112 81 31 00
        E 0 91 33 22
        E 16 b1 0b 3b
        E 16 b1 0b 55
        E 32 b1 0b 3b
        E 16 b1 0b 22
        E 112 81 33 00
        E 0 91 2e 22
        E 16 b1 0b 3b
        E 16 b1 0b 55
        E 32 b1 0b 3b
        E 16 b1 0b 22
        E 112 81 2e 00
        E 0 91 33 22
        E 16 b1 0b 3b
        E 16 b1 0b 55
        E 32 b1 0b 3b
        E 16 b1 0b 22
        E 112 81 33 00
        E 0 91 31 22
        E 16 b1 0b 3b
        E 16 b1 0b 55
        E 32 b1 0b 3b
        E 16 b1 0b 22
        E 112 81 31 00
        E 0 91 33 22
        E 16 b1 0b 3b
        E 16 b1 0b 55
        E 32 b1 0b 3b
        E 16 b1 0b 22
        E 112 81 33 00
        E 0 91 2e 22
        E 16 b1 0b 3b
        E 16 b1 0b 55
        E 32 b1 0b 3b
        E 16 b1 0b 22
        E 112 81 2e 00
        E 0 91 33 22
        E 16 b1 0b 3b
        E 16 b1 0b 55
        E 32 b1 0b 3b
        E 16 b1 0b 22
        E 112 81 33 00
        E 0 91 31 22
        E 16 b1 0b 3b
        E 16 b1 0b 55
        E 32 b1 0b 3b
        E 16 b1 0b 22
        E 112 81 31 00
        E 0 91 33 22
        E 16 b1 0b 3b
        E 16 b1 0b 55
        E 32 81 33 00
        E 0 b1 7b 00
        E 0 ff 2f 00
      >
    >
  >
  <TRACK {03CCD3C0-064B-490E-985A-C1798D4712BF}
    NAME "NES - Triangle [ch2]"
    PEAKCOL 16744192
    BEAT -1
    AUTOMODE 0
    PANLAWFLAGS 3
    VOLPAN 1 0 -1 -1 1
    MUTESOLO 0 0 0
    IPHASE 0
    PLAYOFFS 0 1
    ISBUS 0 0
    BUSCOMP 0 0 0 0 0
    SHOWINMIX 1 0.6667 0.5 1 0.5 0 0 0
    FIXEDLANES 9 0 0 0 0
    SEL 0
    REC 0 5088 1 0 0 0 0 0
    VU 2
    TRACKHEIGHT 0 0 0 0 0 0 0
    INQ 0 0 0 0.5 100 0 0 100
    NCHAN 2
    FX 1
    TRACKID {03CCD3C0-064B-490E-985A-C1798D4712BF}
    PERF 0
    MIDIOUT -1
    MAINSEND 1 0
    <FXCHAIN
      WNDRECT 24 52 700 560
      SHOW 0
      LASTSEL 0
      DOCKED 0
      BYPASS 0 0 0
      <JS "ReapNES Studio/ReapNES_Console.jsfx" ""
        2 15 1 10 80 10 100 2 1 15 1 5 60 10 80 1 1 0 50 0 0 15 1 0 100 0 0 0.500000 0.500000 0.400000 0.300000 0.800000 2 1 0 0 0 0 - - - - - - - - - - - - - - - - - - - - - - - - - -
      >
      FLOATPOS 0 0 0 0
      FXID {BBB97E2C-C763-482E-84D5-BAA12C30F180}
      WAK 0 0
    >
    <ITEM
      POSITION 0
      LENGTH 74.5878716
      LOOP 0
      ALLTAKES 0
      FADEIN 0 0 0 0 0 0 0
      FADEOUT 0 0 0 0 0 0 0
      MUTE 0 0
      SEL 0
      IGUID {9C4F8096-B435-4A99-BDB6-3792B1A6EE41}
      <SOURCE MIDI
        HASDATA 1 480 QN
        CCINTERP 32
        E 0 c2 26
        E 64 b2 0b 7f
        E 0 92 2c 7f
        E 96 82 2c 00
        E 96 b2 0b 7f
        E 0 92 2c 7f
        E 96 82 2c 00
        E 1248 b2 0b 7f
        E 0 92 2a 7f
        E 96 82 2a 00
        E 96 b2 0b 7f
        E 0 92 2a 7f
        E 96 82 2a 00
        E 1248 b2 0b 7f
        E 0 92 28 7f
        E 96 82 28 00
        E 96 b2 0b 7f
        E 0 92 28 7f
        E 96 82 28 00
        E 1248 b2 0b 7f
        E 0 92 2a 7f
        E 96 82 2a 00
        E 96 b2 0b 7f
        E 0 92 2a 7f
        E 96 82 2a 00
        E 1248 b2 0b 7f
        E 0 92 2c 7f
        E 96 82 2c 00
        E 96 b2 0b 7f
        E 0 92 2c 7f
        E 96 82 2c 00
        E 1248 b2 0b 7f
        E 0 92 2a 7f
        E 96 82 2a 00
        E 96 b2 0b 7f
        E 0 92 2a 7f
        E 96 82 2a 00
        E 1248 b2 0b 7f
        E 0 92 28 7f
        E 96 82 28 00
        E 96 b2 0b 7f
        E 0 92 28 7f
        E 96 82 28 00
        E 1248 b2 0b 7f
        E 0 92 29 7f
        E 96 82 29 00
        E 96 b2 0b 7f
        E 0 92 29 7f
        E 96 82 29 00
        E 1248 b2 0b 7f
        E 0 92 2b 7f
        E 96 82 2b 00
        E 96 b2 0b 7f
        E 0 92 2b 7f
        E 96 82 2b 00
        E 672 b2 0b 7f
        E 0 92 33 7f
        E 192 82 33 00
        E 0 b2 0b 7f
        E 0 92 37 7f
        E 192 82 37 00
        E 0 b2 0b 7f
        E 0 92 33 7f
        E 192 82 33 00
        E 0 b2 0b 7f
        E 0 92 2c 7f
        E 96 82 2c 00
        E 96 b2 0b 7f
        E 0 92 2c 7f
        E 96 82 2c 00
        E 672 b2 0b 7f
        E 0 92 33 7f
        E 192 82 33 00
        E 0 b2 0b 7f
        E 0 92 38 7f
        E 192 82 38 00
        E 0 b2 0b 7f
        E 0 92 33 7f
        E 192 82 33 00
        E 0 b2 0b 7f
        E 0 92 2e 7f
        E 96 82 2e 00
        E 96 b2 0b 7f
        E 0 92 2e 7f
        E 96 82 2e 00
        E 672 b2 0b 7f
        E 0 92 36 7f
        E 192 82 36 00
        E 0 b2 0b 7f
        E 0 92 3a 7f
        E 192 82 3a 00
        E 0 b2 0b 7f
        E 0 92 36 7f
        E 192 82 36 00
        E 0 b2 0b 7f
        E 0 92 2f 7f
        E 96 82 2f 00
        E 96 b2 0b 7f
        E 0 92 2f 7f
        E 96 82 2f 00
        E 672 b2 0b 7f
        E 0 92 36 7f
        E 192 82 36 00
        E 0 b2 0b 7f
        E 0 92 3b 7f
        E 192 82 3b 00
        E 0 b2 0b 7f
        E 0 92 36 7f
        E 192 82 36 00
        E 0 b2 0b 7f
        E 0 92 34 7f
        E 1536 82 34 00
        E 0 b2 0b 7f
        E 0 92 31 7f
        E 1536 82 31 00
        E 0 b2 0b 7f
        E 0 92 33 7f
        E 1536 82 33 00
        E 0 b2 0b 7f
        E 0 92 34 7f
        E 1536 82 34 00
        E 0 b2 0b 7f
        E 0 92 2c 7f
        E 96 82 2c 00
        E 96 b2 0b 7f
        E 0 92 2c 7f
        E 96 82 2c 00
        E 1248 b2 0b 7f
        E 0 92 2a 7f
        E 96 82 2a 00
        E 96 b2 0b 7f
        E 0 92 2a 7f
        E 96 82 2a 00
        E 1248 b2 0b 7f
        E 0 92 28 7f
        E 96 82 28 00
        E 96 b2 0b 7f
        E 0 92 28 7f
        E 96 82 28 00
        E 1248 b2 0b 7f
        E 0 92 2a 7f
        E 96 82 2a 00
        E 96 b2 0b 7f
        E 0 92 2a 7f
        E 96 82 2a 00
        E 1248 b2 0b 7f
        E 0 92 2c 7f
        E 96 82 2c 00
        E 96 b2 0b 7f
        E 0 92 2c 7f
        E 96 82 2c 00
        E 1248 b2 0b 7f
        E 0 92 2a 7f
        E 96 82 2a 00
        E 96 b2 0b 7f
        E 0 92 2a 7f
        E 96 82 2a 00
        E 1248 b2 0b 7f
        E 0 92 28 7f
        E 96 82 28 00
        E 96 b2 0b 7f
        E 0 92 28 7f
        E 96 82 28 00
        E 1248 b2 0b 7f
        E 0 92 29 7f
        E 96 82 29 00
        E 96 b2 0b 7f
        E 0 92 29 7f
        E 96 82 29 00
        E 1248 b2 0b 7f
        E 0 92 2b 7f
        E 96 82 2b 00
        E 96 b2 0b 7f
        E 0 92 2b 7f
        E 96 82 2b 00
        E 672 b2 0b 7f
        E 0 92 33 7f
        E 192 82 33 00
        E 0 b2 0b 7f
        E 0 92 37 7f
        E 192 82 37 00
        E 0 b2 0b 7f
        E 0 92 33 7f
        E 192 82 33 00
        E 0 b2 0b 7f
        E 0 92 2c 7f
        E 96 82 2c 00
        E 96 b2 0b 7f
        E 0 92 2c 7f
        E 96 82 2c 00
        E 672 b2 0b 7f
        E 0 92 33 7f
        E 192 82 33 00
        E 0 b2 0b 7f
        E 0 92 38 7f
        E 192 82 38 00
        E 0 b2 0b 7f
        E 0 92 33 7f
        E 192 82 33 00
        E 0 b2 0b 7f
        E 0 92 2e 7f
        E 96 82 2e 00
        E 96 b2 0b 7f
        E 0 92 2e 7f
        E 96 82 2e 00
        E 672 b2 0b 7f
        E 0 92 36 7f
        E 192 82 36 00
        E 0 b2 0b 7f
        E 0 92 3a 7f
        E 192 82 3a 00
        E 0 b2 0b 7f
        E 0 92 36 7f
        E 192 82 36 00
        E 0 b2 0b 7f
        E 0 92 2f 7f
        E 96 82 2f 00
        E 96 b2 0b 7f
        E 0 92 2f 7f
        E 96 82 2f 00
        E 672 b2 0b 7f
        E 0 92 36 7f
        E 192 82 36 00
        E 0 b2 0b 7f
        E 0 92 3b 7f
        E 192 82 3b 00
        E 0 b2 0b 7f
        E 0 92 36 7f
        E 192 82 36 00
        E 0 b2 0b 7f
        E 0 92 34 7f
        E 1536 82 34 00
        E 0 b2 0b 7f
        E 0 92 31 7f
        E 1536 82 31 00
        E 0 b2 0b 7f
        E 0 92 33 7f
        E 1536 82 33 00
        E 0 b2 0b 7f
        E 0 92 34 7f
        E 1536 82 34 00
        E 0 b2 0b 7f
        E 0 92 2c 7f
        E 96 82 2c 00
        E 96 b2 0b 7f
        E 0 92 2c 7f
        E 96 82 2c 00
        E 1248 b2 0b 7f
        E 0 92 2a 7f
        E 96 82 2a 00
        E 96 b2 0b 7f
        E 0 92 2a 7f
        E 96 82 2a 00
        E 1248 b2 0b 7f
        E 0 92 28 7f
        E 96 82 28 00
        E 96 b2 0b 7f
        E 0 92 28 7f
        E 96 82 28 00
        E 1248 b2 0b 7f
        E 0 92 2a 7f
        E 96 82 2a 00
        E 96 b2 0b 7f
        E 0 92 2a 7f
        E 96 82 2a 00
        E 1248 b2 0b 7f
        E 0 92 2c 7f
        E 96 82 2c 00
        E 96 b2 0b 7f
        E 0 92 2c 7f
        E 96 82 2c 00
        E 1248 b2 0b 7f
        E 0 92 2a 7f
        E 96 82 2a 00
        E 96 b2 0b 7f
        E 0 92 2a 7f
        E 96 82 2a 00
        E 1248 b2 0b 7f
        E 0 92 28 7f
        E 96 82 28 00
        E 96 b2 0b 7f
        E 0 92 28 7f
        E 96 82 28 00
        E 1248 b2 0b 7f
        E 0 92 29 7f
        E 96 82 29 00
        E 96 b2 0b 7f
        E 0 92 29 7f
        E 96 82 29 00
        E 1248 b2 0b 7f
        E 0 92 2b 7f
        E 96 82 2b 00
        E 96 b2 0b 7f
        E 0 92 2b 7f
        E 96 82 2b 00
        E 672 b2 0b 7f
        E 0 92 33 7f
        E 192 82 33 00
        E 0 b2 0b 7f
        E 0 92 37 7f
        E 192 82 37 00
        E 0 b2 0b 7f
        E 0 92 33 7f
        E 192 82 33 00
        E 0 b2 0b 7f
        E 0 92 2c 7f
        E 96 82 2c 00
        E 96 b2 0b 7f
        E 0 92 2c 7f
        E 96 82 2c 00
        E 672 b2 0b 7f
        E 0 92 33 7f
        E 192 82 33 00
        E 0 b2 0b 7f
        E 0 92 38 7f
        E 192 82 38 00
        E 0 b2 0b 7f
        E 0 92 33 7f
        E 192 82 33 00
        E 0 b2 0b 7f
        E 0 92 2e 7f
        E 96 82 2e 00
        E 96 b2 0b 7f
        E 0 92 2e 7f
        E 96 82 2e 00
        E 672 b2 0b 7f
        E 0 92 36 7f
        E 192 82 36 00
        E 0 b2 0b 7f
        E 0 92 3a 7f
        E 192 82 3a 00
        E 0 b2 0b 7f
        E 0 92 36 7f
        E 192 82 36 00
        E 0 b2 0b 7f
        E 0 92 2f 7f
        E 96 82 2f 00
        E 96 b2 0b 7f
        E 0 92 2f 7f
        E 96 82 2f 00
        E 672 b2 0b 7f
        E 0 92 36 7f
        E 192 82 36 00
        E 0 b2 0b 7f
        E 0 92 3b 7f
        E 192 82 3b 00
        E 0 b2 0b 7f
        E 0 92 36 7f
        E 192 82 36 00
        E 0 b2 0b 7f
        E 0 92 34 7f
        E 1536 82 34 00
        E 0 b2 0b 7f
        E 0 92 31 7f
        E 1536 82 31 00
        E 0 b2 0b 7f
        E 0 92 33 7f
        E 1536 82 33 00
        E 0 b2 0b 7f
        E 0 92 34 7f
        E 1536 82 34 00
        E 0 b2 0b 7f
        E 0 92 2c 7f
        E 96 82 2c 00
        E 96 b2 0b 7f
        E 0 92 2c 7f
        E 96 82 2c 00
        E 1248 b2 0b 7f
        E 0 92 2a 7f
        E 96 82 2a 00
        E 96 b2 0b 7f
        E 0 92 2a 7f
        E 96 82 2a 00
        E 1120 b2 7b 00
        E 0 ff 2f 00
      >
    >
  >
  <TRACK {B7879F25-81FD-47A7-A84E-B85BB615D09A}
    NAME "NES - Noise / Drums"
    PEAKCOL 11184810
    BEAT -1
    AUTOMODE 0
    PANLAWFLAGS 3
    VOLPAN 1 0 -1 -1 1
    MUTESOLO 0 0 0
    IPHASE 0
    PLAYOFFS 0 1
    ISBUS 0 0
    BUSCOMP 0 0 0 0 0
    SHOWINMIX 1 0.6667 0.5 1 0.5 0 0 0
    FIXEDLANES 9 0 0 0 0
    SEL 0
    REC 0 5088 1 0 0 0 0 0
    VU 2
    TRACKHEIGHT 0 0 0 0 0 0 0
    INQ 0 0 0 0.5 100 0 0 100
    NCHAN 2
    FX 1
    TRACKID {B7879F25-81FD-47A7-A84E-B85BB615D09A}
    PERF 0
    MIDIOUT -1
    MAINSEND 1 0
    <FXCHAIN
      WNDRECT 24 52 700 560
      SHOW 0
      LASTSEL 0
      DOCKED 0
      BYPASS 0 0 0
      <JS "ReapNES Studio/ReapNES_Console.jsfx" ""
        2 15 1 10 80 10 100 2 1 15 1 5 60 10 80 1 1 0 50 0 0 15 1 0 100 0 0 0.500000 0.500000 0.400000 0.300000 0.800000 3 1 0 0 0 0 - - - - - - - - - - - - - - - - - - - - - - - - - -
      >
      FLOATPOS 0 0 0 0
      FXID {837C156C-7DBA-4EFC-8883-1AC36EB5A51D}
      WAK 0 0
    >
  >
>