<REAPER_PROJECT 0.1 "7.27/win64" 1707000000
  <NOTES 0 2
    |ReapNES Studio Project
    |MIDI Import - Final_Fantasy_song_4F_rom_v1
  >
  RIPPLE 0
  GROUPOVERRIDE 0 0 0
  AUTOXFADE 129
  ENVATTACH 3
  POOLEDENVATTACH 0
  MIXERUIFLAGS 11 48
  ENVFADESZ10 40
  PEAKGAIN 1
  FEEDBACK 0
  PANLAW 1
  PROJOFFS 0 0 0
  MAXPROJLEN 0 0
  GRID 3199 8 1 8 1 0 0 0
  TIMEMODE 1 5 -1 30 0 0 -1
  VIDEO_CONFIG 0 0 65792
  PANMODE 3
  PANLAWFLAGS 3
  CURSOR 0
  ZOOM 100 0 0
  VZOOMEX 6 0
  USE_REC_CFG 0
  RECMODE 1
  SMPTESYNC 0 30 100 40 1000 300 0 0 1 0 0
  LOOP 0
  LOOPGRAN 0 4
  RECORD_PATH "Media" ""
  <RECORD_CFG
    ZXZhdxgAAQ==
  >
  <APPLYFX_CFG
  >
  RENDER_FILE ""
  RENDER_PATTERN ""
  RENDER_FMT 0 2 0
  RENDER_1X 0
  RENDER_RANGE 1 0 0 18 1000
  RENDER_RESAMPLE 3 0 1
  RENDER_ADDTOPROJ 0
  RENDER_STEMS 0
  RENDER_DITHER 0
  TIMELOCKMODE 1
  TEMPOENVLOCKMODE 1
  ITEMMIX 1
  DEFPITCHMODE 589824 0
  TAKELANE 1
  SAMPLERATE 44100 0 0
  <RENDER_CFG
    ZXZhdxgAAQ==
  >
  LOCK 1
  <METRONOME 6 2
    VOL 0.25 0.125
    BEATLEN 4
    FREQ 1760 880 1
    SAMPLES "" ""
    SPLIGNORE 0 0
    SPLDEF 2 660 "" 0
    SPLDEF 3 440 "" 0
    PATTERN 0 169
    PATTERNSTR ABBB
    MULT 1
  >
  GLOBAL_AUTO -1
  TEMPO 128.59999614200012 4 4
  PLAYRATE 1 0 0.25 4
  SELECTION 0 0
  SELECTION2 0 0
  MASTERAUTOMODE 0
  MASTERTRACKHEIGHT 0 0
  MASTERPEAKCOL 16576
  MASTERMUTESOLO 0
  MASTERTRACKVIEW 0 0.6667 0.5 0.5 0 0 0 0 0 0 0 0 0 0
  MASTERHWOUT 0 0 1 0 0 0 0 -1
  MASTER_NCH 2 2
  MASTER_VOLUME 1 0 -1 -1 1
  MASTER_PANMODE 3
  MASTER_PANLAWFLAGS 3
  MASTER_FX 1
  MASTER_SEL 0
  <MASTERPLAYSPEEDENV
    EGUID {2010EDD0-2CB8-45B2-96B9-DE04FB6EDA52}
    ACT 0 -1
    VIS 0 1 1
    LANEHEIGHT 0 0
    ARM 0
    DEFSHAPE 0 -1 -1
  >
  <TEMPOENVEX
    EGUID {0404DA2F-ABE3-4B9A-A75A-88FEB72AEEA3}
    ACT 1 -1
    VIS 1 0 1
    LANEHEIGHT 0 0
    ARM 0
    DEFSHAPE 1 -1 -1
  >
  <PROJBAY
  >
  <TRACK {622D1358-6624-4321-9A88-7A91BEDAF918}
    NAME "NES - Pulse 1 [ch0]"
    PEAKCOL 16576606
    BEAT -1
    AUTOMODE 0
    PANLAWFLAGS 3
    VOLPAN 1 0 -1 -1 1
    MUTESOLO 0 0 0
    IPHASE 0
    PLAYOFFS 0 1
    ISBUS 0 0
    BUSCOMP 0 0 0 0 0
    SHOWINMIX 1 0.6667 0.5 1 0.5 0 0 0
    FIXEDLANES 9 0 0 0 0
    SEL 1
    REC 1 5088 1 0 0 0 0 0
    VU 2
    TRACKHEIGHT 0 0 0 0 0 0 0
    INQ 0 0 0 0.5 100 0 0 100
    NCHAN 2
    FX 1
    TRACKID {622D1358-6624-4321-9A88-7A91BEDAF918}
    PERF 0
    MIDIOUT -1
    MAINSEND 1 0
    <FXCHAIN
      WNDRECT 24 52 700 560
      SHOW 0
      LASTSEL 0
      DOCKED 0
      BYPASS 0 0 0
      <JS "ReapNES Studio/ReapNES_Console.jsfx" ""
        2 15 1 10 80 10 100 2 1 15 1 5 60 10 80 1 1 0 50 0 0 15 1 0 100 0 0 0.500000 0.500000 0.400000 0.300000 0.800000 0 1 0 0 0 0 - - - - - - - - - - - - - - - - - - - - - - - - - -
      >
      FLOATPOS 0 0 0 0
      FXID {7F950356-43B2-4C17-A5AC-96ABE2BAA48E}
      WAK 0 0
    >
    <ITEM
      POSITION 0
      LENGTH 74.5878716
      LOOP 0
      ALLTAKES 0
      FADEIN 0 0 0 0 0 0 0
      FADEOUT 0 0 0 0 0 0 0
      MUTE 0 0
      SEL 0
      IGUID {5A50A9ED-5833-48C2-90DC-3D7B2CE0AFA6}
      <SOURCE MIDI
        HASDATA 1 480 QN
        CCINTERP 32
        E 0 c0 50
        E 0 b0 0c 20
        E 0 b0 0b 77
        E 0 90 2e 77
        E 16 80 2e 00
        E 48 b0 0b 66
        E 0 90 43 66
        E 32 b0 0b 77
        E 16 b0 0b 6e
        E 16 b0 0b 66
        E 32 b0 0b 5d
        E 16 b0 0b 55
        E 16 b0 0b 4c
        E 32 b0 0b 44
        E 16 b0 0b 4c
        E 16 b0 0b 55
        E 32 b0 0b 5d
        E 16 b0 0b 66
        E 16 b0 0b 5d
        E 32 b0 0b 55
        E 16 b0 0b 4c
        E 16 b0 0b 44
        E 32 b0 0b 3b
        E 16 b0 0b 33
        E 16 b0 0b 2a
        E 32 b0 0b 22
        E 16 b0 0b 2a
        E 16 b0 0b 33
        E 32 b0 0b 3b
        E 16 b0 0b 44
        E 16 b0 0b 3b
        E 32 b0 0b 33
        E 16 b0 0b 2a
        E 16 b0 0b 7f
        E 0 80 43 00
        E 0 90 42 7f
        E 32 b0 0b 77
        E 16 b0 0b 6e
        E 16 b0 0b 66
        E 32 b0 0b 5d
        E 16 b0 0b 55
        E 16 b0 0b 4c
        E 32 b0 0b 44
        E 16 b0 0b 4c
        E 16 b0 0b 55
        E 32 b0 0b 5d
        E 16 b0 0b 66
        E 16 b0 0b 5d
        E 32 b0 0b 7f
        E 0 80 42 00
        E 0 90 43 7f
        E 32 b0 0b 77
        E 16 b0 0b 6e
        E 16 b0 0b 66
        E 32 b0 0b 5d
        E 16 b0 0b 55
        E 16 b0 0b 4c
        E 32 b0 0b 44
        E 16 b0 0b 4c
        E 16 b0 0b 55
        E 32 b0 0b 5d
        E 16 b0 0b 66
        E 16 b0 0b 5d
        E 32 b0 0b 55
        E 16 b0 0b 4c
        E 16 b0 0b 44
        E 32 b0 0b 3b
        E 16 b0 0b 33
        E 16 b0 0b 2a
        E 32 b0 0b 22
        E 16 b0 0b 2a
        E 16 b0 0b 33
        E 32 b0 0b 3b
        E 16 b0 0b 44
        E 16 b0 0b 3b
        E 32 b0 0b 33
        E 16 b0 0b 2a
        E 16 b0 0b 7f
        E 0 80 43 00
        E 0 90 45 7f
        E 32 b0 0b 77
        E 16 b0 0b 6e
        E 16 b0 0b 66
        E 32 b0 0b 5d
        E 16 b0 0b 55
        E 16 b0 0b 4c
        E 32 b0 0b 44
        E 16 b0 0b 4c
        E 16 b0 0b 55
        E 32 b0 0b 5d
        E 16 b0 0b 66
        E 16 b0 0b 5d
        E 32 b0 0b 7f
        E 0 80 45 00
        E 0 90 43 7f
        E 32 b0 0b 77
        E 16 b0 0b 6e
        E 16 b0 0b 66
        E 32 b0 0b 5d
        E 16 b0 0b 55
        E 16 b0 0b 4c
        E 32 b0 0b 44
        E 16 b0 0b 4c
        E 16 b0 0b 55
        E 32 b0 0b 5d
        E 16 b0 0b 66
        E 16 b0 0b 5d
        E 32 b0 0b 55
        E 16 b0 0b 4c
        E 16 b0 0b 44
        E 32 b0 0b 3b
        E 16 b0 0b 33
        E 16 b0 0b 2a
        E 32 b0 0b 22
        E 16 b0 0b 2a
        E 16 b0 0b 33
        E 32 b0 0b 3b
        E 16 b0 0b 44
        E 16 b0 0b 3b
        E 32 b0 0b 33
        E 16 b0 0b 2a
        E 16 b0 0b 22
        E 32 b0 0b 19
        E 16 b0 0b 11
        E 16 b0 0b 08
        E 32 80 43 00
        E 192 b0 0b 7f
        E 0 90 40 7f
        E 32 b0 0b 77
        E 16 b0 0b 6e
        E 16 b0 0b 66
        E 32 b0 0b 5d
        E 16 b0 0b 55
        E 16 b0 0b 4c
        E 32 b0 0b 44
        E 16 b0 0b 4c
        E 16 b0 0b 55
        E 32 b0 0b 5d
        E 16 b0 0b 66
        E 16 b0 0b 5d
        E 32 b0 0b 55
        E 16 b0 0b 4c
        E 16 b0 0b 44
        E 32 b0 0b 3b
        E 16 b0 0b 33
        E 16 b0 0b 2a
        E 32 b0 0b 22
        E 16 b0 0b 2a
        E 16 b0 0b 33
        E 32 b0 0b 3b
        E 16 b0 0b 44
        E 16 b0 0b 3b
        E 32 b0 0b 33
        E 16 b0 0b 2a
        E 16 b0 0b 7f
        E 0 80 40 00
        E 0 90 41 7f
        E 32 b0 0b 77
        E 16 b0 0b 6e
        E 16 b0 0b 66
        E 32 b0 0b 5d
        E 16 b0 0b 55
        E 16 b0 0b 4c
        E 32 b0 0b 44
        E 16 b0 0b 4c
        E 16 b0 0b 55
        E 32 b0 0b 5d
        E 16 b0 0b 66
        E 16 b0 0b 5d
        E 32 b0 0b 7f
        E 0 80 41 00
        E 0 90 43 7f
        E 32 b0 0b 77
        E 16 b0 0b 6e
        E 16 b0 0b 66
        E 32 b0 0b 5d
        E 16 b0 0b 55
        E 16 b0 0b 4c
        E 32 b0 0b 44
        E 16 b0 0b 4c
        E 16 b0 0b 55
        E 32 b0 0b 5d
        E 16 b0 0b 66
        E 16 b0 0b 5d
        E 32 b0 0b 7f
        E 0 80 43 00
        E 0 90 48 7f
        E 32 b0 0b 77
        E 16 b0 0b 6e
        E 16 b0 0b 66
        E 32 b0 0b 5d
        E 16 b0 0b 55
        E 16 b0 0b 4c
        E 32 b0 0b 44
        E 16 b0 0b 4c
        E 16 b0 0b 55
        E 32 b0 0b 5d
        E 16 b0 0b 66
        E 16 b0 0b 5d
        E 32 b0 0b 7f
        E 0 80 48 00
        E 0 90 47 7f
        E 32 b0 0b 77
        E 16 b0 0b 6e
        E 16 b0 0b 66
        E 32 b0 0b 5d
        E 16 b0 0b 55
        E 16 b0 0b 4c
        E 32 b0 0b 44
        E 16 b0 0b 4c
        E 16 b0 0b 55
        E 32 b0 0b 5d
        E 16 b0 0b 66
        E 16 b0 0b 5d
        E 32 b0 0b 7f
        E 0 80 47 00
        E 0 90 4a 7f
        E 32 b0 0b 77
        E 16 b0 0b 6e
        E 16 b0 0b 66
        E 32 b0 0b 5d
        E 16 b0 0b 55
        E 16 b0 0b 4c
        E 32 b0 0b 44
        E 16 b0 0b 4c
        E 16 b0 0b 55
        E 32 b0 0b 5d
        E 16 b0 0b 66
        E 16 b0 0b 5d
        E 32 b0 0b 7f
        E 0 80 4a 00
        E 0 90 48 7f
        E 32 b0 0b 77
        E 16 b0 0b 6e
        E 16 b0 0b 66
        E 32 b0 0b 5d
        E 16 b0 0b 55
        E 16 b0 0b 4c
        E 32 b0 0b 44
        E 16 b0 0b 4c
        E 16 b0 0b 55
        E 32 b0 0b 5d
        E 16 b0 0b 66
        E 16 b0 0b 5d
        E 32 b0 0b 7f
        E 0 80 48 00
        E 0 90 45 7f
        E 32 b0 0b 77
        E 16 b0 0b 6e
        E 16 b0 0b 66
        E 32 b0 0b 5d
        E 16 b0 0b 55
        E 16 b0 0b 4c
        E 32 b0 0b 44
        E 16 b0 0b 4c
        E 16 b0 0b 55
        E 32 b0 0b 5d
        E 16 b0 0b 66
        E 16 b0 0b 5d
        E 32 b0 0b 7f
        E 0 80 45 00
        E 0 90 43 7f
        E 32 b0 0b 77
        E 16 b0 0b 6e
        E 16 b0 0b 66
        E 32 b0 0b 5d
        E 16 b0 0b 55
        E 16 b0 0b 4c
        E 32 b0 0b 44
        E 16 b0 0b 4c
        E 16 b0 0b 55
        E 32 b0 0b 5d
        E 16 b0 0b 66
        E 16 b0 0b 5d
        E 32 b0 0b 55
        E 16 b0 0b 4c
        E 16 b0 0b 44
        E 32 b0 0b 3b
        E 16 b0 0b 33
        E 16 b0 0b 2a
        E 32 b0 0b 22
        E 16 b0 0b 2a
        E 16 b0 0b 33
        E 32 b0 0b 3b
        E 16 b0 0b 44
        E 16 b0 0b 3b
        E 32 b0 0b 33
        E 16 b0 0b 2a
        E 16 b0 0b 7f
        E 0 80 43 00
        E 0 90 44 7f
        E 32 b0 0b 77
        E 16 b0 0b 6e
        E 16 b0 0b 66
        E 32 b0 0b 5d
        E 16 b0 0b 55
        E 16 b0 0b 4c
        E 32 b0 0b 44
        E 16 b0 0b 4c
        E 16 b0 0b 55
        E 32 b0 0b 5d
        E 16 b0 0b 66
        E 16 b0 0b 5d
        E 32 b0 0b 7f
        E 0 80 44 00
        E 0 90 45 7f
        E 32 b0 0b 77
        E 16 b0 0b 6e
        E 16 b0 0b 66
        E 32 b0 0b 5d
        E 16 b0 0b 55
        E 16 b0 0b 4c
        E 32 b0 0b 44
        E 16 b0 0b 4c
        E 16 b0 0b 55
        E 32 b0 0b 5d
        E 16 b0 0b 66
        E 16 b0 0b 5d
        E 32 b0 0b 55
        E 16 b0 0b 4c
        E 16 b0 0b 44
        E 32 b0 0b 3b
        E 16 b0 0b 33
        E 16 b0 0b 2a
        E 32 b0 0b 22
        E 16 b0 0b 2a
        E 16 b0 0b 33
        E 32 b0 0b 3b
        E 16 b0 0b 44
        E 16 b0 0b 3b
        E 32 b0 0b 33
        E 16 b0 0b 2a
        E 16 b0 0b 7f
        E 0 80 45 00
        E 0 90 40 7f
        E 32 b0 0b 77
        E 16 b0 0b 6e
        E 16 b0 0b 66
        E 32 b0 0b 5d
        E 16 b0 0b 55
        E 16 b0 0b 4c
        E 32 b0 0b 44
        E 16 b0 0b 4c
        E 16 b0 0b 55
        E 32 b0 0b 5d
        E 16 b0 0b 66
        E 16 b0 0b 5d
        E 32 b0 0b 7f
        E 0 80 40 00
        E 0 90 41 7f
        E 32 b0 0b 77
        E 16 b0 0b 6e
        E 16 b0 0b 66
        E 32 b0 0b 5d
        E 16 b0 0b 55
        E 16 b0 0b 4c
        E 32 b0 0b 44
        E 16 b0 0b 4c
        E 16 b0 0b 55
        E 32 b0 0b 5d
        E 16 b0 0b 66
        E 16 b0 0b 5d
        E 32 b0 0b 55
        E 16 b0 0b 4c
        E 16 b0 0b 44
        E 32 b0 0b 3b
        E 16 b0 0b 33
        E 16 b0 0b 2a
        E 32 b0 0b 22
        E 16 b0 0b 2a
        E 16 b0 0b 33
        E 32 b0 0b 3b
        E 16 b0 0b 44
        E 16 b0 0b 3b
        E 32 b0 0b 33
        E 16 b0 0b 2a
        E 16 b0 0b 22
        E 32 b0 0b 19
        E 16 b0 0b 11
        E 16 b0 0b 08
        E 32 80 41 00
        E 1632 b0 0b 7f
        E 0 90 42 7f
        E 32 b0 0b 77
        E 16 b0 0b 6e
        E 16 b0 0b 66
        E 32 b0 0b 5d
        E 16 b0 0b 55
        E 16 b0 0b 4c
        E 32 b0 0b 44
        E 16 b0 0b 4c
        E 16 b0 0b 55
        E 32 b0 0b 5d
        E 16 b0 0b 66
        E 16 b0 0b 5d
        E 32 b0 0b 7f
        E 0 80 42 00
        E 0 90 43 7f
        E 32 b0 0b 77
        E 16 b0 0b 6e
        E 16 b0 0b 66
        E 32 b0 0b 5d
        E 16 b0 0b 55
        E 16 b0 0b 4c
        E 32 b0 0b 44
        E 16 b0 0b 4c
        E 16 b0 0b 55
        E 32 b0 0b 5d
        E 16 b0 0b 66
        E 16 b0 0b 5d
        E 32 b0 0b 55
        E 16 b0 0b 4c
        E 16 b0 0b 44
        E 32 b0 0b 3b
        E 16 b0 0b 33
        E 16 b0 0b 2a
        E 32 b0 0b 22
        E 16 b0 0b 2a
        E 16 b0 0b 33
        E 32 b0 0b 3b
        E 16 b0 0b 44
        E 16 b0 0b 3b
        E 32 b0 0b 33
        E 16 b0 0b 2a
        E 16 b0 0b 7f
        E 0 80 43 00
        E 0 90 3e 7f
        E 32 b0 0b 77
        E 16 b0 0b 6e
        E 16 b0 0b 66
        E 32 b0 0b 5d
        E 16 b0 0b 55
        E 16 b0 0b 4c
        E 32 b0 0b 44
        E 16 b0 0b 4c
        E 16 b0 0b 55
        E 32 b0 0b 5d
        E 16 b0 0b 66
        E 16 b0 0b 5d
        E 32 b0 0b 7f
        E 0 80 3e 00
        E 0 90 40 7f
        E 32 b0 0b 77
        E 16 b0 0b 6e
        E 16 b0 0b 66
        E 32 b0 0b 5d
        E 16 b0 0b 55
        E 16 b0 0b 4c
        E 32 b0 0b 44
        E 16 b0 0b 4c
        E 16 b0 0b 55
        E 32 b0 0b 5d
        E 16 b0 0b 66
        E 16 b0 0b 5d
        E 32 b0 0b 55
        E 16 b0 0b 4c
        E 16 b0 0b 44
        E 32 b0 0b 3b
        E 16 b0 0b 33
        E 16 b0 0b 2a
        E 32 b0 0b 22
        E 16 b0 0b 2a
        E 16 b0 0b 33
        E 32 b0 0b 3b
        E 16 b0 0b 44
        E 16 b0 0b 3b
        E 32 b0 0b 33
        E 16 b0 0b 2a
        E 16 b0 0b 22
        E 32 b0 0b 19
        E 16 b0 0b 11
        E 16 b0 0b 08
        E 32 80 40 00
        E 1632 b0 0b 7f
        E 0 90 44 7f
        E 32 b0 0b 77
        E 16 b0 0b 6e
        E 16 b0 0b 66
        E 32 b0 0b 5d
        E 16 b0 0b 55
        E 16 b0 0b 4c
        E 32 b0 0b 44
        E 16 b0 0b 4c
        E 16 b0 0b 55
        E 32 b0 0b 5d
        E 16 b0 0b 66
        E 16 b0 0b 5d
        E 32 b0 0b 7f
        E 0 80 44 00
        E 0 90 45 7f
        E 32 b0 0b 77
        E 16 b0 0b 6e
        E 16 b0 0b 66
        E 32 b0 0b 5d
        E 16 b0 0b 55
        E 16 b0 0b 4c
        E 32 b0 0b 44
        E 16 b0 0b 4c
        E 16 b0 0b 55
        E 32 b0 0b 5d
        E 16 b0 0b 66
        E 16 b0 0b 5d
        E 32 b0 0b 55
        E 16 b0 0b 4c
        E 16 b0 0b 44
        E 32 b0 0b 3b
        E 16 b0 0b 33
        E 16 b0 0b 2a
        E 32 b0 0b 22
        E 16 b0 0b 2a
        E 16 b0 0b 33
        E 32 b0 0b 3b
        E 16 b0 0b 44
        E 16 b0 0b 3b
        E 32 b0 0b 33
        E 16 b0 0b 2a
        E 16 b0 0b 7f
        E 0 80 45 00
        E 0 90 40 7f
        E 32 b0 0b 77
        E 16 b0 0b 6e
        E 16 b0 0b 66
        E 32 b0 0b 5d
        E 16 b0 0b 55
        E 16 b0 0b 4c
        E 32 b0 0b 44
        E 16 b0 0b 4c
        E 16 b0 0b 55
        E 32 b0 0b 5d
        E 16 b0 0b 66
        E 16 b0 0b 5d
        E 32 b0 0b 7f
        E 0 80 40 00
        E 0 90 41 7f
        E 32 b0 0b 77
        E 16 b0 0b 6e
        E 16 b0 0b 66
        E 32 b0 0b 5d
        E 16 b0 0b 55
        E 16 b0 0b 4c
        E 32 b0 0b 44
        E 16 b0 0b 4c
        E 16 b0 0b 55
        E 32 b0 0b 5d
        E 16 b0 0b 66
        E 16 b0 0b 5d
        E 32 b0 0b 7f
        E 0 80 41 00
        E 0 90 3e 7f
        E 32 b0 0b 77
        E 16 b0 0b 6e
        E 16 b0 0b 66
        E 32 b0 0b 5d
        E 16 b0 0b 55
        E 16 b0 0b 4c
        E 32 b0 0b 44
        E 16 b0 0b 4c
        E 16 b0 0b 55
        E 32 b0 0b 5d
        E 16 b0 0b 66
        E 16 b0 0b 5d
        E 32 b0 0b 7f
        E 0 80 3e 00
        E 0 90 40 7f
        E 32 b0 0b 77
        E 16 b0 0b 6e
        E 16 b0 0b 66
        E 32 b0 0b 5d
        E 16 b0 0b 55
        E 16 b0 0b 4c
        E 32 b0 0b 44
        E 16 b0 0b 4c
        E 16 b0 0b 55
        E 32 b0 0b 5d
        E 16 b0 0b 66
        E 16 b0 0b 5d
        E 32 b0 0b 7f
        E 0 80 40 00
        E 0 90 42 7f
        E 32 b0 0b 77
        E 16 b0 0b 6e
        E 16 b0 0b 66
        E 32 b0 0b 5d
        E 16 b0 0b 55
        E 16 b0 0b 4c
        E 32 b0 0b 44
        E 16 b0 0b 4c
        E 16 b0 0b 55
        E 32 b0 0b 5d
        E 16 b0 0b 66
        E 16 b0 0b 5d
        E 32 b0 0b 7f
        E 0 80 42 00
        E 0 90 47 7f
        E 32 b0 0b 77
        E 16 b0 0b 6e
        E 16 b0 0b 66
        E 32 b0 0b 5d
        E 16 b0 0b 55
        E 16 b0 0b 4c
        E 32 b0 0b 44
        E 16 b0 0b 4c
        E 16 b0 0b 55
        E 32 b0 0b 5d
        E 16 b0 0b 66
        E 16 b0 0b 5d
        E 32 b0 0b 7f
        E 0 80 47 00
        E 0 90 45 7f
        E 32 b0 0b 77
        E 16 b0 0b 6e
        E 16 b0 0b 66
        E 32 b0 0b 5d
        E 16 b0 0b 55
        E 16 b0 0b 4c
        E 32 b0 0b 44
        E 16 b0 0b 4c
        E 16 b0 0b 55
        E 32 b0 0b 5d
        E 16 b0 0b 66
        E 16 b0 0b 5d
        E 32 b0 0b 7f
        E 0 80 45 00
        E 0 90 43 7f
        E 32 b0 0b 77
        E 16 b0 0b 6e
        E 16 b0 0b 66
        E 32 b0 0b 5d
        E 16 b0 0b 55
        E 16 b0 0b 4c
        E 32 b0 0b 44
        E 16 b0 0b 4c
        E 16 b0 0b 55
        E 32 b0 0b 5d
        E 16 b0 0b 66
        E 16 b0 0b 5d
        E 32 b0 0b 7f
        E 0 80 43 00
        E 0 90 42 7f
        E 32 b0 0b 77
        E 16 b0 0b 6e
        E 16 b0 0b 66
        E 32 b0 0b 5d
        E 16 b0 0b 55
        E 16 b0 0b 4c
        E 32 b0 0b 44
        E 16 b0 0b 4c
        E 16 b0 0b 55
        E 32 b0 0b 5d
        E 16 b0 0b 66
        E 16 b0 0b 5d
        E 32 b0 0b 7f
        E 0 80 42 00
        E 0 90 43 7f
        E 32 b0 0b 77
        E 16 b0 0b 6e
        E 16 b0 0b 66
        E 32 b0 0b 5d
        E 16 b0 0b 55
        E 16 b0 0b 4c
        E 32 b0 0b 44
        E 16 b0 0b 4c
        E 16 b0 0b 55
        E 32 b0 0b 5d
        E 16 b0 0b 66
        E 16 b0 0b 5d
        E 32 b0 0b 7f
        E 0 80 43 00
        E 0 90 44 7f
        E 32 b0 0b 77
        E 16 b0 0b 6e
        E 16 b0 0b 66
        E 32 b0 0b 5d
        E 16 b0 0b 55
        E 16 b0 0b 4c
        E 32 b0 0b 44
        E 16 b0 0b 4c
        E 16 b0 0b 55
        E 32 b0 0b 5d
        E 16 b0 0b 66
        E 16 b0 0b 5d
        E 32 b0 0b 7f
        E 0 80 44 00
        E 0 90 48 7f
        E 32 b0 0b 77
        E 16 b0 0b 6e
        E 16 b0 0b 66
        E 32 b0 0b 5d
        E 16 b0 0b 55
        E 16 b0 0b 4c
        E 32 b0 0b 44
        E 16 b0 0b 4c
        E 16 b0 0b 55
        E 32 b0 0b 5d
        E 16 b0 0b 66
        E 16 b0 0b 5d
        E 32 b0 0b 7f
        E 0 80 48 00
        E 0 90 47 7f
        E 32 b0 0b 77
        E 16 b0 0b 6e
        E 16 b0 0b 66
        E 32 b0 0b 5d
        E 16 b0 0b 55
        E 16 b0 0b 4c
        E 32 b0 0b 44
        E 16 b0 0b 4c
        E 16 b0 0b 55
        E 32 b0 0b 5d
        E 16 b0 0b 66
        E 16 b0 0b 5d
        E 32 b0 0b 7f
        E 0 80 47 00
        E 0 90 45 7f
        E 32 b0 0b 77
        E 16 b0 0b 6e
        E 16 b0 0b 66
        E 32 b0 0b 5d
        E 16 b0 0b 55
        E 16 b0 0b 4c
        E 32 b0 0b 44
        E 16 b0 0b 4c
        E 16 b0 0b 55
        E 32 b0 0b 5d
        E 16 b0 0b 66
        E 16 b0 0b 5d
        E 32 b0 0b 7f
        E 0 80 45 00
        E 0 90 47 7f
        E 32 b0 0b 77
        E 16 b0 0b 6e
        E 16 b0 0b 66
        E 32 b0 0b 5d
        E 16 b0 0b 55
        E 16 b0 0b 4c
        E 32 b0 0b 44
        E 16 b0 0b 4c
        E 16 b0 0b 55
        E 32 b0 0b 5d
        E 16 b0 0b 66
        E 16 b0 0b 5d
        E 32 b0 0b 7f
        E 0 80 47 00
        E 0 90 48 7f
        E 32 b0 0b 77
        E 16 b0 0b 6e
        E 16 b0 0b 66
        E 32 b0 0b 5d
        E 16 b0 0b 55
        E 16 b0 0b 4c
        E 32 b0 0b 44
        E 16 b0 0b 4c
        E 16 b0 0b 55
        E 32 b0 0b 5d
        E 16 b0 0b 66
        E 16 b0 0b 5d
        E 32 b0 0b 7f
        E 0 80 48 00
        E 0 90 4a 7f
        E 32 b0 0b 77
        E 16 b0 0b 6e
        E 16 b0 0b 66
        E 32 b0 0b 5d
        E 16 b0 0b 55
        E 16 b0 0b 4c
        E 32 b0 0b 44
        E 16 b0 0b 4c
        E 16 b0 0b 55
        E 32 b0 0b 5d
        E 16 b0 0b 66
        E 16 b0 0b 5d
        E 32 b0 0b 7f
        E 0 80 4a 00
        E 0 90 48 7f
        E 32 b0 0b 77
        E 16 b0 0b 6e
        E 16 b0 0b 66
        E 32 b0 0b 5d
        E 16 b0 0b 55
        E 16 b0 0b 4c
        E 32 b0 0b 44
        E 16 b0 0b 4c
        E 16 b0 0b 55
        E 32 b0 0b 5d
        E 16 b0 0b 66
        E 16 b0 0b 5d
        E 32 b0 0b 7f
        E 0 80 48 00
        E 0 90 44 7f
        E 32 b0 0b 77
        E 16 b0 0b 6e
        E 16 b0 0b 66
        E 32 b0 0b 5d
        E 16 b0 0b 55
        E 16 b0 0b 4c
        E 32 b0 0b 44
        E 16 b0 0b 4c
        E 16 b0 0b 55
        E 32 b0 0b 5d
        E 16 b0 0b 66
        E 16 b0 0b 5d
        E 32 b0 0b 66
        E 0 80 44 00
        E 0 90 43 66
        E 16 b0 0b 5d
        E 16 b0 0b 55
        E 16 b0 0b 44
        E 16 b0 0b 3b
        E 16 b0 0b 2a
        E 16 b0 0b 19
        E 16 b0 0b 08
        E 16 80 43 00
        E 160 b0 0b 66
        E 0 90 48 66
        E 16 b0 0b 5d
        E 16 b0 0b 55
        E 16 b0 0b 44
        E 16 b0 0b 3b
        E 16 b0 0b 2a
        E 16 b0 0b 19
        E 16 b0 0b 08
        E 16 80 48 00
        E 160 b0 0b 66
        E 0 90 4c 66
        E 16 b0 0b 5d
        E 16 b0 0b 55
        E 16 b0 0b 44
        E 16 b0 0b 3b
        E 16 b0 0b 2a
        E 16 b0 0b 19
        E 16 b0 0b 08
        E 16 80 4c 00
        E 160 b0 0b 66
        E 0 90 4a 66
        E 16 b0 0b 5d
        E 16 b0 0b 55
        E 16 b0 0b 44
        E 16 b0 0b 3b
        E 16 b0 0b 2a
        E 16 b0 0b 19
        E 16 b0 0b 08
        E 16 80 4a 00
        E 736 b0 0b 7f
        E 0 90 47 7f
        E 32 b0 0b 77
        E 16 b0 0b 6e
        E 16 b0 0b 66
        E 32 b0 0b 5d
        E 16 b0 0b 55
        E 16 b0 0b 4c
        E 32 b0 0b 44
        E 16 b0 0b 4c
        E 16 b0 0b 55
        E 32 b0 0b 5d
        E 16 b0 0b 66
        E 16 b0 0b 5d
        E 32 b0 0b 7f
        E 0 80 47 00
        E 0 90 43 7f
        E 32 b0 0b 77
        E 16 b0 0b 6e
        E 16 b0 0b 66
        E 32 b0 0b 5d
        E 16 b0 0b 55
        E 16 b0 0b 4c
        E 32 b0 0b 44
        E 16 b0 0b 4c
        E 16 b0 0b 55
        E 32 b0 0b 5d
        E 16 b0 0b 66
        E 16 b0 0b 5d
        E 32 b0 0b 7f
        E 0 80 43 00
        E 0 90 47 7f
        E 32 b0 0b 77
        E 16 b0 0b 6e
        E 16 b0 0b 66
        E 32 b0 0b 5d
        E 16 b0 0b 55
        E 16 b0 0b 4c
        E 32 b0 0b 44
        E 16 b0 0b 4c
        E 16 b0 0b 55
        E 32 b0 0b 5d
        E 16 b0 0b 66
        E 16 b0 0b 5d
        E 32 b0 0b 7f
        E 0 80 47 00
        E 0 90 45 7f
        E 32 b0 0b 77
        E 16 b0 0b 6e
        E 16 b0 0b 66
        E 32 b0 0b 5d
        E 16 b0 0b 55
        E 16 b0 0b 4c
        E 32 b0 0b 44
        E 16 b0 0b 4c
        E 16 b0 0b 55
        E 32 b0 0b 5d
        E 16 b0 0b 66
        E 16 b0 0b 5d
        E 32 b0 0b 7f
        E 0 80 45 00
        E 0 90 41 7f
        E 32 b0 0b 77
        E 16 b0 0b 6e
        E 16 b0 0b 66
        E 32 b0 0b 5d
        E 16 b0 0b 55
        E 16 b0 0b 4c
        E 32 b0 0b 44
        E 16 b0 0b 4c
        E 16 b0 0b 55
        E 32 b0 0b 5d
        E 16 b0 0b 66
        E 16 b0 0b 5d
        E 32 b0 0b 7f
        E 0 80 41 00
        E 0 90 45 7f
        E 32 b0 0b 77
        E 16 b0 0b 6e
        E 16 b0 0b 66
        E 32 b0 0b 5d
        E 16 b0 0b 55
        E 16 b0 0b 4c
        E 32 b0 0b 44
        E 16 b0 0b 4c
        E 16 b0 0b 55
        E 32 b0 0b 5d
        E 16 b0 0b 66
        E 16 b0 0b 5d
        E 32 b0 0b 7f
        E 0 80 45 00
        E 0 90 43 7f
        E 32 b0 0b 77
        E 16 b0 0b 6e
        E 16 b0 0b 66
        E 32 b0 0b 5d
        E 16 b0 0b 55
        E 16 b0 0b 4c
        E 32 b0 0b 44
        E 16 b0 0b 4c
        E 16 b0 0b 55
        E 32 b0 0b 5d
        E 16 b0 0b 66
        E 16 b0 0b 5d
        E 32 b0 0b 7f
        E 0 80 43 00
        E 0 90 3e 7f
        E 32 b0 0b 77
        E 16 b0 0b 6e
        E 16 b0 0b 66
        E 32 b0 0b 5d
        E 16 b0 0b 55
        E 16 b0 0b 4c
        E 32 b0 0b 44
        E 16 b0 0b 4c
        E 16 b0 0b 55
        E 32 b0 0b 5d
        E 16 b0 0b 66
        E 16 b0 0b 5d
        E 32 b0 0b 7f
        E 0 80 3e 00
        E 0 90 43 7f
        E 32 b0 0b 77
        E 16 b0 0b 6e
        E 16 b0 0b 66
        E 32 b0 0b 5d
        E 16 b0 0b 55
        E 16 b0 0b 4c
        E 32 b0 0b 44
        E 16 b0 0b 4c
        E 16 b0 0b 55
        E 32 b0 0b 5d
        E 16 b0 0b 66
        E 16 b0 0b 5d
        E 32 b0 0b 7f
        E 0 80 43 00
        E 0 90 41 7f
        E 32 b0 0b 77
        E 16 b0 0b 6e
        E 16 b0 0b 66
        E 32 b0 0b 5d
        E 16 b0 0b 55
        E 16 b0 0b 4c
        E 32 b0 0b 44
        E 16 b0 0b 4c
        E 16 b0 0b 55
        E 32 b0 0b 5d
        E 16 b0 0b 66
        E 16 b0 0b 5d
        E 32 b0 0b 7f
        E 0 80 41 00
        E 0 90 3e 7f
        E 32 b0 0b 77
        E 16 b0 0b 6e
        E 16 b0 0b 66
        E 32 b0 0b 5d
        E 16 b0 0b 55
        E 16 b0 0b 4c
        E 32 b0 0b 44
        E 16 b0 0b 4c
        E 16 b0 0b 55
        E 32 b0 0b 5d
        E 16 b0 0b 66
        E 16 b0 0b 5d
        E 32 b0 0b 7f
        E 0 80 3e 00
        E 0 90 41 7f
        E 32 b0 0b 77
        E 16 b0 0b 6e
        E 16 b0 0b 66
        E 32 b0 0b 5d
        E 16 b0 0b 55
        E 16 b0 0b 4c
        E 32 b0 0b 44
        E 16 b0 0b 4c
        E 16 b0 0b 55
        E 32 b0 0b 5d
        E 16 b0 0b 66
        E 16 b0 0b 5d
        E 32 b0 0b 7f
        E 0 80 41 00
        E 0 90 43 7f
        E 32 b0 0b 77
        E 16 b0 0b 6e
        E 16 b0 0b 66
        E 32 b0 0b 5d
        E 16 b0 0b 55
        E 16 b0 0b 4c
        E 32 b0 0b 44
        E 16 b0 0b 4c
        E 16 b0 0b 55
        E 32 b0 0b 5d
        E 16 b0 0b 66
        E 16 b0 0b 5d
        E 32 b0 0b 55
        E 16 b0 0b 4c
        E 16 b0 0b 44
        E 32 b0 0b 3b
        E 16 b0 0b 33
        E 16 b0 0b 2a
        E 32 b0 0b 22
        E 16 b0 0b 2a
        E 16 b0 0b 33
        E 32 b0 0b 3b
        E 16 b0 0b 44
        E 16 b0 0b 3b
        E 32 b0 0b 33
        E 16 b0 0b 2a
        E 16 b0 0b 7f
        E 0 80 43 00
        E 0 90 42 7f
        E 32 b0 0b 77
        E 16 b0 0b 6e
        E 16 b0 0b 66
        E 32 b0 0b 5d
        E 16 b0 0b 55
        E 16 b0 0b 4c
        E 32 b0 0b 44
        E 16 b0 0b 4c
        E 16 b0 0b 55
        E 32 b0 0b 5d
        E 16 b0 0b 66
        E 16 b0 0b 5d
        E 32 b0 0b 7f
        E 0 80 42 00
        E 0 90 43 7f
        E 32 b0 0b 77
        E 16 b0 0b 6e
        E 16 b0 0b 66
        E 32 b0 0b 5d
        E 16 b0 0b 55
        E 16 b0 0b 4c
        E 32 b0 0b 44
        E 16 b0 0b 4c
        E 16 b0 0b 55
        E 32 b0 0b 5d
        E 16 b0 0b 66
        E 16 b0 0b 5d
        E 32 b0 0b 55
        E 16 b0 0b 4c
        E 16 b0 0b 44
        E 32 b0 0b 3b
        E 16 b0 0b 33
        E 16 b0 0b 2a
        E 32 b0 0b 22
        E 16 b0 0b 2a
        E 16 b0 0b 33
        E 32 b0 0b 3b
        E 16 b0 0b 44
        E 16 b0 0b 3b
        E 32 b0 0b 33
        E 16 b0 0b 2a
        E 16 b0 0b 7f
        E 0 80 43 00
        E 0 90 45 7f
        E 32 b0 0b 77
        E 16 b0 0b 6e
        E 16 b0 0b 66
        E 32 b0 0b 5d
        E 16 b0 0b 55
        E 16 b0 0b 4c
        E 32 b0 0b 44
        E 16 b0 0b 4c
        E 16 b0 0b 55
        E 32 b0 0b 5d
        E 16 b0 0b 66
        E 16 b0 0b 5d
        E 32 b0 0b 7f
        E 0 80 45 00
        E 0 90 43 7f
        E 32 b0 0b 77
        E 16 b0 0b 6e
        E 16 b0 0b 66
        E 32 b0 0b 5d
        E 16 b0 0b 55
        E 16 b0 0b 4c
        E 32 b0 0b 44
        E 16 b0 0b 4c
        E 16 b0 0b 55
        E 32 b0 0b 5d
        E 16 b0 0b 66
        E 16 b0 0b 5d
        E 32 b0 0b 55
        E 16 b0 0b 4c
        E 16 b0 0b 44
        E 32 b0 0b 3b
        E 16 b0 0b 33
        E 16 b0 0b 2a
        E 32 b0 0b 22
        E 16 b0 0b 2a
        E 16 b0 0b 33
        E 32 b0 0b 3b
        E 16 b0 0b 44
        E 16 b0 0b 3b
        E 32 b0 0b 33
        E 16 b0 0b 2a
        E 16 b0 0b 22
        E 32 b0 0b 19
        E 16 b0 0b 11
        E 16 b0 0b 08
        E 32 80 43 00
        E 192 b0 0b 7f
        E 0 90 40 7f
        E 32 b0 0b 77
        E 16 b0 0b 6e
        E 16 b0 0b 66
        E 32 b0 0b 5d
        E 16 b0 0b 55
        E 16 b0 0b 4c
        E 32 b0 0b 44
        E 16 b0 0b 4c
        E 16 b0 0b 55
        E 32 b0 0b 5d
        E 16 b0 0b 66
        E 16 b0 0b 5d
        E 32 b0 0b 55
        E 16 b0 0b 4c
        E 16 b0 0b 44
        E 32 b0 0b 3b
        E 16 b0 0b 33
        E 16 b0 0b 2a
        E 32 b0 0b 22
        E 16 b0 0b 2a
        E 16 b0 0b 33
        E 32 b0 0b 3b
        E 16 b0 0b 44
        E 16 b0 0b 3b
        E 32 b0 0b 33
        E 16 b0 0b 2a
        E 16 b0 0b 7f
        E 0 80 40 00
        E 0 90 41 7f
        E 32 b0 0b 77
        E 16 b0 0b 6e
        E 16 b0 0b 66
        E 32 b0 0b 5d
        E 16 b0 0b 55
        E 16 b0 0b 4c
        E 32 b0 0b 44
        E 16 b0 0b 4c
        E 16 b0 0b 55
        E 32 b0 0b 5d
        E 16 b0 0b 66
        E 16 b0 0b 5d
        E 32 b0 0b 7f
        E 0 80 41 00
        E 0 90 43 7f
        E 32 b0 0b 77
        E 16 b0 0b 6e
        E 16 b0 0b 66
        E 32 b0 0b 5d
        E 16 b0 0b 55
        E 16 b0 0b 4c
        E 32 b0 0b 44
        E 16 b0 0b 4c
        E 16 b0 0b 55
        E 32 b0 0b 5d
        E 16 b0 0b 66
        E 16 b0 0b 5d
        E 32 b0 0b 7f
        E 0 80 43 00
        E 0 90 48 7f
        E 32 b0 0b 77
        E 16 b0 0b 6e
        E 16 b0 0b 66
        E 32 b0 0b 5d
        E 16 b0 0b 55
        E 16 b0 0b 4c
        E 32 b0 0b 44
        E 16 b0 0b 4c
        E 16 b0 0b 55
        E 32 b0 0b 5d
        E 16 b0 0b 66
        E 16 b0 0b 5d
        E 32 b0 0b 7f
        E 0 80 48 00
        E 0 90 47 7f
        E 32 b0 0b 77
        E 16 b0 0b 6e
        E 16 b0 0b 66
        E 32 b0 0b 5d
        E 16 b0 0b 55
        E 16 b0 0b 4c
        E 32 b0 0b 44
        E 16 b0 0b 4c
        E 16 b0 0b 55
        E 32 b0 0b 5d
        E 16 b0 0b 66
        E 16 b0 0b 5d
        E 32 b0 0b 7f
        E 0 80 47 00
        E 0 90 4a 7f
        E 32 b0 0b 77
        E 16 b0 0b 6e
        E 16 b0 0b 66
        E 32 b0 0b 5d
        E 16 b0 0b 55
        E 16 b0 0b 4c
        E 32 b0 0b 44
        E 16 b0 0b 4c
        E 16 b0 0b 55
        E 32 b0 0b 5d
        E 16 b0 0b 66
        E 16 b0 0b 5d
        E 32 b0 0b 7f
        E 0 80 4a 00
        E 0 90 48 7f
        E 32 b0 0b 77
        E 16 b0 0b 6e
        E 16 b0 0b 66
        E 32 b0 0b 5d
        E 16 b0 0b 55
        E 16 b0 0b 4c
        E 32 b0 0b 44
        E 16 b0 0b 4c
        E 16 b0 0b 55
        E 32 b0 0b 5d
        E 16 b0 0b 66
        E 16 b0 0b 5d
        E 32 b0 0b 7f
        E 0 80 48 00
        E 0 90 45 7f
        E 32 b0 0b 77
        E 16 b0 0b 6e
        E 16 b0 0b 66
        E 32 b0 0b 5d
        E 16 b0 0b 55
        E 16 b0 0b 4c
        E 32 b0 0b 44
        E 16 b0 0b 4c
        E 16 b0 0b 55
        E 32 b0 0b 5d
        E 16 b0 0b 66
        E 16 b0 0b 5d
        E 32 b0 0b 7f
        E 0 80 45 00
        E 0 90 43 7f
        E 32 b0 0b 77
        E 16 b0 0b 6e
        E 16 b0 0b 66
        E 32 b0 0b 5d
        E 16 b0 0b 55
        E 16 b0 0b 4c
        E 32 b0 0b 44
        E 16 b0 0b 4c
        E 16 b0 0b 55
        E 32 b0 0b 5d
        E 16 b0 0b 66
        E 16 b0 0b 5d
        E 32 b0 0b 55
        E 16 b0 0b 4c
        E 16 b0 0b 44
        E 32 b0 0b 3b
        E 16 b0 0b 33
        E 16 b0 0b 2a
        E 32 b0 0b 22
        E 16 b0 0b 2a
        E 16 b0 0b 33
        E 32 b0 0b 3b
        E 16 b0 0b 44
        E 16 b0 0b 3b
        E 32 b0 0b 33
        E 16 b0 0b 2a
        E 16 b0 0b 7f
        E 0 80 43 00
        E 0 90 44 7f
        E 32 b0 0b 77
        E 16 b0 0b 6e
        E 16 b0 0b 66
        E 32 b0 0b 5d
        E 16 b0 0b 55
        E 16 b0 0b 4c
        E 32 b0 0b 44
        E 16 b0 0b 4c
        E 16 b0 0b 55
        E 32 b0 0b 5d
        E 16 b0 0b 66
        E 16 b0 0b 5d
        E 32 b0 0b 7f
        E 0 80 44 00
        E 0 90 45 7f
        E 32 b0 0b 77
        E 16 b0 0b 6e
        E 16 b0 0b 66
        E 32 b0 0b 5d
        E 16 b0 0b 55
        E 16 b0 0b 4c
        E 32 b0 0b 44
        E 16 b0 0b 4c
        E 16 b0 0b 55
        E 32 b0 0b 5d
        E 16 b0 0b 66
        E 16 b0 0b 5d
        E 32 b0 0b 55
        E 16 b0 0b 4c
        E 16 b0 0b 44
        E 32 b0 0b 3b
        E 16 b0 0b 33
        E 16 b0 0b 2a
        E 32 b0 0b 22
        E 16 b0 0b 2a
        E 16 b0 0b 33
        E 32 b0 0b 3b
        E 16 b0 0b 44
        E 16 b0 0b 3b
        E 32 b0 0b 33
        E 16 b0 0b 2a
        E 16 b0 0b 7f
        E 0 80 45 00
        E 0 90 40 7f
        E 32 b0 0b 77
        E 16 b0 0b 6e
        E 16 b0 0b 66
        E 32 b0 0b 5d
        E 16 b0 0b 55
        E 16 b0 0b 4c
        E 32 b0 0b 44
        E 16 b0 0b 4c
        E 16 b0 0b 55
        E 32 b0 0b 5d
        E 16 b0 0b 66
        E 16 b0 0b 5d
        E 32 b0 0b 7f
        E 0 80 40 00
        E 0 90 41 7f
        E 32 b0 0b 77
        E 16 b0 0b 6e
        E 16 b0 0b 66
        E 32 b0 0b 5d
        E 16 b0 0b 55
        E 16 b0 0b 4c
        E 32 b0 0b 44
        E 16 b0 0b 4c
        E 16 b0 0b 55
        E 32 b0 0b 5d
        E 16 b0 0b 66
        E 16 b0 0b 5d
        E 32 b0 0b 55
        E 16 b0 0b 4c
        E 16 b0 0b 44
        E 32 b0 0b 3b
        E 16 b0 0b 33
        E 16 b0 0b 2a
        E 32 b0 0b 22
        E 16 b0 0b 2a
        E 16 b0 0b 33
        E 32 b0 0b 3b
        E 16 b0 0b 44
        E 16 b0 0b 3b
        E 32 b0 0b 33
        E 16 b0 0b 2a
        E 16 b0 0b 22
        E 32 b0 0b 19
        E 16 b0 0b 11
        E 16 b0 0b 08
        E 32 80 41 00
        E 1632 b0 0b 7f
        E 0 90 42 7f
        E 32 b0 0b 77
        E 16 b0 0b 6e
        E 16 b0 0b 66
        E 32 b0 0b 5d
        E 16 b0 0b 55
        E 16 b0 0b 4c
        E 32 b0 0b 44
        E 16 b0 0b 4c
        E 16 b0 0b 55
        E 32 b0 0b 5d
        E 16 b0 0b 66
        E 16 b0 0b 5d
        E 32 b0 0b 7f
        E 0 80 42 00
        E 0 90 43 7f
        E 32 b0 0b 77
        E 16 b0 0b 6e
        E 16 b0 0b 66
        E 32 b0 0b 5d
        E 16 b0 0b 55
        E 16 b0 0b 4c
        E 32 b0 0b 44
        E 16 b0 0b 4c
        E 16 b0 0b 55
        E 32 b0 0b 5d
        E 16 b0 0b 66
        E 16 b0 0b 5d
        E 32 b0 0b 55
        E 16 b0 0b 4c
        E 16 b0 0b 44
        E 32 b0 0b 3b
        E 16 b0 0b 33
        E 16 b0 0b 2a
        E 32 b0 0b 22
        E 16 b0 0b 2a
        E 16 b0 0b 33
        E 32 b0 0b 3b
        E 16 b0 0b 44
        E 16 b0 0b 3b
        E 32 b0 0b 33
        E 16 b0 0b 2a
        E 16 b0 0b 7f
        E 0 80 43 00
        E 0 90 3e 7f
        E 32 b0 0b 77
        E 16 b0 0b 6e
        E 16 b0 0b 66
        E 32 b0 0b 5d
        E 16 b0 0b 55
        E 16 b0 0b 4c
        E 32 b0 0b 44
        E 16 b0 0b 4c
        E 16 b0 0b 55
        E 32 b0 0b 5d
        E 16 b0 0b 66
        E 16 b0 0b 5d
        E 32 b0 0b 7f
        E 0 80 3e 00
        E 0 90 40 7f
        E 32 b0 0b 77
        E 16 b0 0b 6e
        E 16 b0 0b 66
        E 32 b0 0b 5d
        E 16 b0 0b 55
        E 16 b0 0b 4c
        E 32 b0 0b 44
        E 16 b0 0b 4c
        E 16 b0 0b 55
        E 32 b0 0b 5d
        E 16 b0 0b 66
        E 16 b0 0b 5d
        E 32 b0 0b 55
        E 16 b0 0b 4c
        E 16 b0 0b 44
        E 32 b0 0b 3b
        E 16 b0 0b 33
        E 16 b0 0b 2a
        E 32 b0 0b 22
        E 16 b0 0b 2a
        E 16 b0 0b 33
        E 32 b0 0b 3b
        E 16 b0 0b 44
        E 16 b0 0b 3b
        E 32 b0 0b 33
        E 16 b0 0b 2a
        E 16 b0 0b 22
        E 32 b0 0b 19
        E 16 b0 0b 11
        E 16 b0 0b 08
        E 32 80 40 00
        E 1632 b0 0b 7f
        E 0 90 44 7f
        E 32 b0 0b 77
        E 16 b0 0b 6e
        E 16 b0 0b 66
        E 32 b0 0b 5d
        E 16 b0 0b 55
        E 16 b0 0b 4c
        E 32 b0 0b 44
        E 16 b0 0b 4c
        E 16 b0 0b 55
        E 32 b0 0b 5d
        E 16 b0 0b 66
        E 16 b0 0b 5d
        E 32 b0 0b 7f
        E 0 80 44 00
        E 0 90 45 7f
        E 32 b0 0b 77
        E 16 b0 0b 6e
        E 16 b0 0b 66
        E 32 b0 0b 5d
        E 16 b0 0b 55
        E 16 b0 0b 4c
        E 32 b0 0b 44
        E 16 b0 0b 4c
        E 16 b0 0b 55
        E 32 b0 0b 5d
        E 16 b0 0b 66
        E 16 b0 0b 5d
        E 32 b0 0b 55
        E 16 b0 0b 4c
        E 16 b0 0b 44
        E 32 b0 0b 3b
        E 16 b0 0b 33
        E 16 b0 0b 2a
        E 32 b0 0b 22
        E 16 b0 0b 2a
        E 16 b0 0b 33
        E 32 b0 0b 3b
        E 16 b0 0b 44
        E 16 b0 0b 3b
        E 32 b0 0b 33
        E 16 b0 0b 2a
        E 16 b0 0b 7f
        E 0 80 45 00
        E 0 90 40 7f
        E 32 b0 0b 77
        E 16 b0 0b 6e
        E 16 b0 0b 66
        E 32 b0 0b 5d
        E 16 b0 0b 55
        E 16 b0 0b 4c
        E 32 b0 0b 44
        E 16 b0 0b 4c
        E 16 b0 0b 55
        E 32 b0 0b 5d
        E 16 b0 0b 66
        E 16 b0 0b 5d
        E 32 b0 0b 7f
        E 0 80 40 00
        E 0 90 41 7f
        E 32 b0 0b 77
        E 16 b0 0b 6e
        E 16 b0 0b 66
        E 32 b0 0b 5d
        E 16 b0 0b 55
        E 16 b0 0b 4c
        E 32 b0 0b 44
        E 16 b0 0b 4c
        E 16 b0 0b 55
        E 32 b0 0b 5d
        E 16 b0 0b 66
        E 16 b0 0b 5d
        E 32 b0 0b 7f
        E 0 80 41 00
        E 0 90 3e 7f
        E 32 b0 0b 77
        E 16 b0 0b 6e
        E 16 b0 0b 66
        E 32 b0 0b 5d
        E 16 b0 0b 55
        E 16 b0 0b 4c
        E 32 b0 0b 44
        E 16 b0 0b 4c
        E 16 b0 0b 55
        E 32 b0 0b 5d
        E 16 b0 0b 66
        E 16 b0 0b 5d
        E 32 b0 0b 7f
        E 0 80 3e 00
        E 0 90 40 7f
        E 32 b0 0b 77
        E 16 b0 0b 6e
        E 16 b0 0b 66
        E 32 b0 0b 5d
        E 16 b0 0b 55
        E 16 b0 0b 4c
        E 32 b0 0b 44
        E 16 b0 0b 4c
        E 16 b0 0b 55
        E 32 b0 0b 5d
        E 16 b0 0b 66
        E 16 b0 0b 5d
        E 32 b0 0b 7f
        E 0 80 40 00
        E 0 90 42 7f
        E 32 b0 0b 77
        E 16 b0 0b 6e
        E 16 b0 0b 66
        E 32 b0 0b 5d
        E 16 b0 0b 55
        E 16 b0 0b 4c
        E 32 b0 0b 44
        E 16 b0 0b 4c
        E 16 b0 0b 55
        E 32 b0 0b 5d
        E 16 b0 0b 66
        E 16 b0 0b 5d
        E 32 b0 0b 7f
        E 0 80 42 00
        E 0 90 47 7f
        E 32 b0 0b 77
        E 16 b0 0b 6e
        E 16 b0 0b 66
        E 32 b0 0b 5d
        E 16 b0 0b 55
        E 16 b0 0b 4c
        E 32 b0 0b 44
        E 16 b0 0b 4c
        E 16 b0 0b 55
        E 32 b0 0b 5d
        E 16 b0 0b 66
        E 16 b0 0b 5d
        E 32 b0 0b 7f
        E 0 80 47 00
        E 0 90 45 7f
        E 32 b0 0b 77
        E 16 b0 0b 6e
        E 16 b0 0b 66
        E 32 b0 0b 5d
        E 16 b0 0b 55
        E 16 b0 0b 4c
        E 32 b0 0b 44
        E 16 b0 0b 4c
        E 16 b0 0b 55
        E 32 b0 0b 5d
        E 16 b0 0b 66
        E 16 b0 0b 5d
        E 32 b0 0b 7f
        E 0 80 45 00
        E 0 90 43 7f
        E 32 b0 0b 77
        E 16 b0 0b 6e
        E 16 b0 0b 66
        E 32 b0 0b 5d
        E 16 b0 0b 55
        E 16 b0 0b 4c
        E 32 b0 0b 44
        E 16 b0 0b 4c
        E 16 b0 0b 55
        E 32 b0 0b 5d
        E 16 b0 0b 66
        E 16 b0 0b 5d
        E 32 b0 0b 7f
        E 0 80 43 00
        E 0 90 42 7f
        E 32 b0 0b 77
        E 16 b0 0b 6e
        E 16 b0 0b 66
        E 32 b0 0b 5d
        E 16 b0 0b 55
        E 16 b0 0b 4c
        E 32 b0 0b 44
        E 16 b0 0b 4c
        E 16 b0 0b 55
        E 32 b0 0b 5d
        E 16 b0 0b 66
        E 16 b0 0b 5d
        E 32 b0 0b 7f
        E 0 80 42 00
        E 0 90 43 7f
        E 32 b0 0b 77
        E 16 b0 0b 6e
        E 16 b0 0b 66
        E 32 b0 0b 5d
        E 16 b0 0b 55
        E 16 b0 0b 4c
        E 32 b0 0b 44
        E 16 b0 0b 4c
        E 16 b0 0b 55
        E 32 b0 0b 5d
        E 16 b0 0b 66
        E 16 b0 0b 5d
        E 32 b0 0b 7f
        E 0 80 43 00
        E 0 90 44 7f
        E 32 b0 0b 77
        E 16 b0 0b 6e
        E 16 b0 0b 66
        E 32 b0 0b 5d
        E 16 b0 0b 55
        E 16 b0 0b 4c
        E 32 b0 0b 44
        E 16 b0 0b 4c
        E 16 b0 0b 55
        E 32 b0 0b 5d
        E 16 b0 0b 66
        E 16 b0 0b 5d
        E 32 b0 0b 7f
        E 0 80 44 00
        E 0 90 48 7f
        E 32 b0 0b 77
        E 16 b0 0b 6e
        E 16 b0 0b 66
        E 32 b0 0b 5d
        E 16 b0 0b 55
        E 16 b0 0b 4c
        E 32 b0 0b 44
        E 16 b0 0b 4c
        E 16 b0 0b 55
        E 32 b0 0b 5d
        E 16 b0 0b 66
        E 16 b0 0b 5d
        E 32 b0 0b 7f
        E 0 80 48 00
        E 0 90 47 7f
        E 32 b0 0b 77
        E 16 b0 0b 6e
        E 16 b0 0b 66
        E 32 b0 0b 5d
        E 16 b0 0b 55
        E 16 b0 0b 4c
        E 32 b0 0b 44
        E 16 b0 0b 4c
        E 16 b0 0b 55
        E 32 b0 0b 5d
        E 16 b0 0b 66
        E 16 b0 0b 5d
        E 32 b0 0b 7f
        E 0 80 47 00
        E 0 90 45 7f
        E 32 b0 0b 77
        E 16 b0 0b 6e
        E 16 b0 0b 66
        E 32 b0 0b 5d
        E 16 b0 0b 55
        E 16 b0 0b 4c
        E 32 b0 0b 44
        E 16 b0 0b 4c
        E 16 b0 0b 55
        E 32 b0 0b 5d
        E 16 b0 0b 66
        E 16 b0 0b 5d
        E 32 b0 0b 7f
        E 0 80 45 00
        E 0 90 47 7f
        E 32 b0 0b 77
        E 16 b0 0b 6e
        E 16 b0 0b 66
        E 32 b0 0b 5d
        E 16 b0 0b 55
        E 16 b0 0b 4c
        E 32 b0 0b 44
        E 16 b0 0b 4c
        E 16 b0 0b 55
        E 32 b0 0b 5d
        E 16 b0 0b 66
        E 16 b0 0b 5d
        E 32 b0 0b 7f
        E 0 80 47 00
        E 0 90 48 7f
        E 32 b0 0b 77
        E 16 b0 0b 6e
        E 16 b0 0b 66
        E 32 b0 0b 5d
        E 16 b0 0b 55
        E 16 b0 0b 4c
        E 32 b0 0b 44
        E 16 b0 0b 4c
        E 16 b0 0b 55
        E 32 b0 0b 5d
        E 16 b0 0b 66
        E 16 b0 0b 5d
        E 32 b0 0b 7f
        E 0 80 48 00
        E 0 90 4a 7f
        E 32 b0 0b 77
        E 16 b0 0b 6e
        E 16 b0 0b 66
        E 32 b0 0b 5d
        E 16 b0 0b 55
        E 16 b0 0b 4c
        E 32 b0 0b 44
        E 16 b0 0b 4c
        E 16 b0 0b 55
        E 32 b0 0b 5d
        E 16 b0 0b 66
        E 16 b0 0b 5d
        E 32 b0 0b 7f
        E 0 80 4a 00
        E 0 90 48 7f
        E 32 b0 0b 77
        E 16 b0 0b 6e
        E 16 b0 0b 66
        E 32 b0 0b 5d
        E 16 b0 0b 55
        E 16 b0 0b 4c
        E 32 b0 0b 44
        E 16 b0 0b 4c
        E 16 b0 0b 55
        E 32 b0 0b 5d
        E 16 b0 0b 66
        E 16 b0 0b 5d
        E 32 b0 0b 7f
        E 0 80 48 00
        E 0 90 44 7f
        E 32 b0 0b 77
        E 16 b0 0b 6e
        E 16 b0 0b 66
        E 32 b0 0b 5d
        E 16 b0 0b 55
        E 16 b0 0b 4c
        E 32 b0 0b 44
        E 16 b0 0b 4c
        E 16 b0 0b 55
        E 32 b0 0b 5d
        E 16 b0 0b 66
        E 16 b0 0b 5d
        E 32 b0 0b 66
        E 0 80 44 00
        E 0 90 43 66
        E 16 b0 0b 5d
        E 16 b0 0b 55
        E 16 b0 0b 44
        E 16 b0 0b 3b
        E 16 b0 0b 2a
        E 16 b0 0b 19
        E 16 b0 0b 08
        E 16 80 43 00
        E 160 b0 0b 66
        E 0 90 48 66
        E 16 b0 0b 5d
        E 16 b0 0b 55
        E 16 b0 0b 44
        E 16 b0 0b 3b
        E 16 b0 0b 2a
        E 16 b0 0b 19
        E 16 b0 0b 08
        E 16 80 48 00
        E 160 b0 0b 66
        E 0 90 4c 66
        E 16 b0 0b 5d
        E 16 b0 0b 55
        E 16 b0 0b 44
        E 16 b0 0b 3b
        E 16 b0 0b 2a
        E 16 b0 0b 19
        E 16 b0 0b 08
        E 16 80 4c 00
        E 160 b0 0b 66
        E 0 90 4a 66
        E 16 b0 0b 5d
        E 16 b0 0b 55
        E 16 b0 0b 44
        E 16 b0 0b 3b
        E 16 b0 0b 2a
        E 16 b0 0b 19
        E 16 b0 0b 08
        E 16 80 4a 00
        E 736 b0 0b 7f
        E 0 90 47 7f
        E 32 b0 0b 77
        E 16 b0 0b 6e
        E 16 b0 0b 66
        E 32 b0 0b 5d
        E 16 b0 0b 55
        E 16 b0 0b 4c
        E 32 b0 0b 44
        E 16 b0 0b 4c
        E 16 b0 0b 55
        E 32 b0 0b 5d
        E 16 b0 0b 66
        E 16 b0 0b 5d
        E 32 b0 0b 7f
        E 0 80 47 00
        E 0 90 43 7f
        E 32 b0 0b 77
        E 16 b0 0b 6e
        E 16 b0 0b 66
        E 32 b0 0b 5d
        E 16 b0 0b 55
        E 16 b0 0b 4c
        E 32 b0 0b 44
        E 16 b0 0b 4c
        E 16 b0 0b 55
        E 32 b0 0b 5d
        E 16 b0 0b 66
        E 16 b0 0b 5d
        E 32 b0 0b 7f
        E 0 80 43 00
        E 0 90 47 7f
        E 32 b0 0b 77
        E 16 b0 0b 6e
        E 16 b0 0b 66
        E 32 b0 0b 5d
        E 16 b0 0b 55
        E 16 b0 0b 4c
        E 32 b0 0b 44
        E 16 b0 0b 4c
        E 16 b0 0b 55
        E 32 b0 0b 5d
        E 16 b0 0b 66
        E 16 b0 0b 5d
        E 32 b0 0b 7f
        E 0 80 47 00
        E 0 90 45 7f
        E 32 b0 0b 77
        E 16 b0 0b 6e
        E 16 b0 0b 66
        E 32 b0 0b 5d
        E 16 b0 0b 55
        E 16 b0 0b 4c
        E 32 b0 0b 44
        E 16 b0 0b 4c
        E 16 b0 0b 55
        E 32 b0 0b 5d
        E 16 b0 0b 66
        E 16 b0 0b 5d
        E 32 b0 0b 7f
        E 0 80 45 00
        E 0 90 41 7f
        E 32 b0 0b 77
        E 16 b0 0b 6e
        E 16 b0 0b 66
        E 32 b0 0b 5d
        E 16 b0 0b 55
        E 16 b0 0b 4c
        E 32 b0 0b 44
        E 16 b0 0b 4c
        E 16 b0 0b 55
        E 32 b0 0b 5d
        E 16 b0 0b 66
        E 16 b0 0b 5d
        E 32 b0 0b 7f
        E 0 80 41 00
        E 0 90 45 7f
        E 32 b0 0b 77
        E 16 b0 0b 6e
        E 16 b0 0b 66
        E 32 b0 0b 5d
        E 16 b0 0b 55
        E 16 b0 0b 4c
        E 32 b0 0b 44
        E 16 b0 0b 4c
        E 16 b0 0b 55
        E 32 b0 0b 5d
        E 16 b0 0b 66
        E 16 b0 0b 5d
        E 32 b0 0b 7f
        E 0 80 45 00
        E 0 90 43 7f
        E 32 b0 0b 77
        E 16 b0 0b 6e
        E 16 b0 0b 66
        E 32 b0 0b 5d
        E 16 b0 0b 55
        E 16 b0 0b 4c
        E 32 b0 0b 44
        E 16 b0 0b 4c
        E 16 b0 0b 55
        E 32 b0 0b 5d
        E 16 b0 0b 66
        E 16 b0 0b 5d
        E 32 b0 0b 7f
        E 0 80 43 00
        E 0 90 3e 7f
        E 32 b0 0b 77
        E 16 b0 0b 6e
        E 16 b0 0b 66
        E 32 b0 0b 5d
        E 16 b0 0b 55
        E 16 b0 0b 4c
        E 32 b0 0b 44
        E 16 b0 0b 4c
        E 16 b0 0b 55
        E 32 b0 0b 5d
        E 16 b0 0b 66
        E 16 b0 0b 5d
        E 32 b0 0b 7f
        E 0 80 3e 00
        E 0 90 43 7f
        E 32 b0 0b 77
        E 16 b0 0b 6e
        E 16 b0 0b 66
        E 32 b0 0b 5d
        E 16 b0 0b 55
        E 16 b0 0b 4c
        E 32 b0 0b 44
        E 16 b0 0b 4c
        E 16 b0 0b 55
        E 32 b0 0b 5d
        E 16 b0 0b 66
        E 16 b0 0b 5d
        E 32 b0 0b 7f
        E 0 80 43 00
        E 0 90 41 7f
        E 32 b0 0b 77
        E 16 b0 0b 6e
        E 16 b0 0b 66
        E 32 b0 0b 5d
        E 16 b0 0b 55
        E 16 b0 0b 4c
        E 32 b0 0b 44
        E 16 b0 0b 4c
        E 16 b0 0b 55
        E 32 b0 0b 5d
        E 16 b0 0b 66
        E 16 b0 0b 5d
        E 32 b0 0b 7f
        E 0 80 41 00
        E 0 90 3e 7f
        E 32 b0 0b 77
        E 16 b0 0b 6e
        E 16 b0 0b 66
        E 32 b0 0b 5d
        E 16 b0 0b 55
        E 16 b0 0b 4c
        E 32 b0 0b 44
        E 16 b0 0b 4c
        E 16 b0 0b 55
        E 32 b0 0b 5d
        E 16 b0 0b 66
        E 16 b0 0b 5d
        E 32 b0 0b 7f
        E 0 80 3e 00
        E 0 90 41 7f
        E 32 b0 0b 77
        E 16 b0 0b 6e
        E 16 b0 0b 66
        E 32 b0 0b 5d
        E 16 b0 0b 55
        E 16 b0 0b 4c
        E 32 b0 0b 44
        E 16 b0 0b 4c
        E 16 b0 0b 55
        E 32 b0 0b 5d
        E 16 b0 0b 66
        E 16 b0 0b 5d
        E 32 b0 0b 7f
        E 0 80 41 00
        E 0 90 43 7f
        E 32 b0 0b 77
        E 16 b0 0b 6e
        E 16 b0 0b 66
        E 32 b0 0b 5d
        E 16 b0 0b 55
        E 16 b0 0b 4c
        E 32 b0 0b 44
        E 16 b0 0b 4c
        E 16 b0 0b 55
        E 32 b0 0b 5d
        E 16 b0 0b 66
        E 16 b0 0b 5d
        E 32 b0 0b 55
        E 16 b0 0b 4c
        E 16 b0 0b 44
        E 32 b0 0b 3b
        E 16 b0 0b 33
        E 16 b0 0b 2a
        E 32 b0 0b 22
        E 16 b0 0b 2a
        E 16 b0 0b 33
        E 32 b0 0b 3b
        E 16 b0 0b 44
        E 16 b0 0b 3b
        E 32 b0 0b 33
        E 16 b0 0b 2a
        E 16 b0 0b 7f
        E 0 80 43 00
        E 0 90 42 7f
        E 32 b0 0b 77
        E 16 b0 0b 6e
        E 16 b0 0b 66
        E 32 b0 0b 5d
        E 16 b0 0b 55
        E 16 b0 0b 4c
        E 32 b0 0b 44
        E 16 b0 0b 4c
        E 16 b0 0b 55
        E 32 b0 0b 5d
        E 16 b0 0b 66
        E 16 b0 0b 5d
        E 32 b0 0b 7f
        E 0 80 42 00
        E 0 90 43 7f
        E 32 b0 0b 77
        E 16 b0 0b 6e
        E 16 b0 0b 66
        E 32 b0 0b 5d
        E 16 b0 0b 55
        E 16 b0 0b 4c
        E 32 b0 0b 44
        E 16 b0 0b 4c
        E 16 b0 0b 55
        E 32 b0 0b 5d
        E 16 b0 0b 66
        E 16 b0 0b 5d
        E 32 b0 0b 55
        E 16 b0 0b 4c
        E 16 b0 0b 44
        E 32 b0 0b 3b
        E 16 b0 0b 33
        E 16 b0 0b 2a
        E 32 b0 0b 22
        E 16 b0 0b 2a
        E 16 b0 0b 33
        E 32 b0 0b 3b
        E 16 b0 0b 44
        E 16 b0 0b 3b
        E 32 b0 0b 33
        E 16 b0 0b 2a
        E 16 b0 0b 7f
        E 0 80 43 00
        E 0 90 45 7f
        E 32 b0 0b 77
        E 16 b0 0b 6e
        E 16 b0 0b 66
        E 32 b0 0b 5d
        E 16 b0 0b 55
        E 16 b0 0b 4c
        E 32 b0 0b 44
        E 16 b0 0b 4c
        E 16 b0 0b 55
        E 32 b0 0b 5d
        E 16 b0 0b 66
        E 16 b0 0b 5d
        E 32 b0 0b 7f
        E 0 80 45 00
        E 0 90 43 7f
        E 32 b0 0b 77
        E 16 b0 0b 6e
        E 16 b0 0b 66
        E 32 b0 0b 5d
        E 16 b0 0b 55
        E 16 b0 0b 4c
        E 32 b0 0b 44
        E 16 b0 0b 4c
        E 16 b0 0b 55
        E 32 b0 0b 5d
        E 16 b0 0b 66
        E 16 b0 0b 5d
        E 32 b0 0b 55
        E 16 b0 0b 4c
        E 16 b0 0b 44
        E 32 b0 0b 3b
        E 16 b0 0b 33
        E 16 b0 0b 2a
        E 32 b0 0b 22
        E 16 b0 0b 2a
        E 16 b0 0b 33
        E 32 b0 0b 3b
        E 16 b0 0b 44
        E 16 b0 0b 3b
        E 32 b0 0b 33
        E 16 b0 0b 2a
        E 16 b0 0b 22
        E 32 b0 0b 19
        E 16 b0 0b 11
        E 16 b0 0b 08
        E 32 80 43 00
        E 192 b0 0b 7f
        E 0 90 40 7f
        E 32 b0 0b 77
        E 16 b0 0b 6e
        E 16 b0 0b 66
        E 32 b0 0b 5d
        E 16 b0 0b 55
        E 16 b0 0b 4c
        E 32 b0 0b 44
        E 16 b0 0b 4c
        E 16 b0 0b 55
        E 32 b0 0b 5d
        E 16 b0 0b 66
        E 16 b0 0b 5d
        E 32 b0 0b 55
        E 16 b0 0b 4c
        E 16 b0 0b 44
        E 32 b0 0b 3b
        E 16 b0 0b 33
        E 16 b0 0b 2a
        E 32 b0 0b 22
        E 16 b0 0b 2a
        E 16 b0 0b 33
        E 32 b0 0b 3b
        E 16 b0 0b 44
        E 16 b0 0b 3b
        E 32 b0 0b 33
        E 16 b0 0b 2a
        E 16 b0 0b 7f
        E 0 80 40 00
        E 0 90 41 7f
        E 32 b0 0b 77
        E 16 b0 0b 6e
        E 16 b0 0b 66
        E 32 b0 0b 5d
        E 16 b0 0b 55
        E 16 b0 0b 4c
        E 32 b0 0b 44
        E 16 b0 0b 4c
        E 16 b0 0b 55
        E 32 b0 0b 5d
        E 16 b0 0b 66
        E 16 b0 0b 5d
        E 32 b0 0b 7f
        E 0 80 41 00
        E 0 90 43 7f
        E 32 b0 0b 77
        E 16 b0 0b 6e
        E 16 b0 0b 66
        E 32 b0 0b 5d
        E 16 b0 0b 55
        E 16 b0 0b 4c
        E 32 b0 0b 44
        E 16 b0 0b 4c
        E 16 b0 0b 55
        E 32 b0 0b 5d
        E 16 b0 0b 66
        E 16 b0 0b 5d
        E 32 b0 0b 7f
        E 0 80 43 00
        E 0 90 48 7f
        E 32 b0 0b 77
        E 16 b0 0b 6e
        E 16 b0 0b 66
        E 32 b0 0b 5d
        E 16 b0 0b 55
        E 16 b0 0b 4c
        E 32 b0 0b 44
        E 16 b0 0b 4c
        E 16 b0 0b 55
        E 32 b0 0b 5d
        E 16 b0 0b 66
        E 16 b0 0b 5d
        E 32 b0 0b 7f
        E 0 80 48 00
        E 0 90 47 7f
        E 32 b0 0b 77
        E 16 b0 0b 6e
        E 16 b0 0b 66
        E 32 b0 0b 5d
        E 16 b0 0b 55
        E 16 b0 0b 4c
        E 32 b0 0b 44
        E 16 b0 0b 4c
        E 16 b0 0b 55
        E 32 b0 0b 5d
        E 16 b0 0b 66
        E 16 b0 0b 5d
        E 32 b0 0b 7f
        E 0 80 47 00
        E 0 90 4a 7f
        E 32 b0 0b 77
        E 16 b0 0b 6e
        E 16 b0 0b 66
        E 32 b0 0b 5d
        E 16 b0 0b 55
        E 16 b0 0b 4c
        E 32 b0 0b 44
        E 16 b0 0b 4c
        E 16 b0 0b 55
        E 32 b0 0b 5d
        E 16 b0 0b 66
        E 16 b0 0b 5d
        E 32 b0 0b 7f
        E 0 80 4a 00
        E 0 90 48 7f
        E 32 b0 0b 77
        E 16 b0 0b 6e
        E 16 b0 0b 66
        E 32 b0 0b 5d
        E 16 b0 0b 55
        E 16 b0 0b 4c
        E 32 b0 0b 44
        E 16 b0 0b 4c
        E 16 b0 0b 55
        E 32 b0 0b 5d
        E 16 b0 0b 66
        E 16 b0 0b 5d
        E 32 b0 0b 7f
        E 0 80 48 00
        E 0 90 45 7f
        E 32 b0 0b 77
        E 16 b0 0b 6e
        E 16 b0 0b 66
        E 32 b0 0b 5d
        E 16 b0 0b 55
        E 16 b0 0b 4c
        E 32 b0 0b 44
        E 16 b0 0b 4c
        E 16 b0 0b 55
        E 32 b0 0b 5d
        E 16 b0 0b 66
        E 16 b0 0b 5d
        E 32 b0 0b 7f
        E 0 80 45 00
        E 0 90 43 7f
        E 32 b0 0b 77
        E 16 b0 0b 6e
        E 16 b0 0b 66
        E 32 b0 0b 5d
        E 16 b0 0b 55
        E 16 b0 0b 4c
        E 32 b0 0b 44
        E 16 b0 0b 4c
        E 16 b0 0b 55
        E 32 b0 0b 5d
        E 16 b0 0b 66
        E 16 b0 0b 5d
        E 32 b0 0b 55
        E 16 b0 0b 4c
        E 16 b0 0b 44
        E 32 b0 0b 3b
        E 16 b0 0b 33
        E 16 b0 0b 2a
        E 32 b0 0b 22
        E 16 b0 0b 2a
        E 16 b0 0b 33
        E 32 b0 0b 3b
        E 16 b0 0b 44
        E 16 b0 0b 3b
        E 32 b0 0b 33
        E 16 b0 0b 2a
        E 16 b0 0b 7f
        E 0 80 43 00
        E 0 90 44 7f
        E 32 b0 0b 77
        E 16 b0 0b 6e
        E 16 b0 0b 66
        E 32 b0 0b 5d
        E 16 b0 0b 55
        E 16 b0 0b 4c
        E 32 b0 0b 44
        E 16 b0 0b 4c
        E 16 b0 0b 55
        E 32 b0 0b 5d
        E 16 b0 0b 66
        E 16 b0 0b 5d
        E 32 b0 0b 7f
        E 0 80 44 00
        E 0 90 45 7f
        E 32 b0 0b 77
        E 16 b0 0b 6e
        E 16 b0 0b 66
        E 32 b0 0b 5d
        E 16 b0 0b 55
        E 16 b0 0b 4c
        E 32 b0 0b 44
        E 16 b0 0b 4c
        E 16 b0 0b 55
        E 32 b0 0b 5d
        E 16 b0 0b 66
        E 16 b0 0b 5d
        E 32 b0 0b 55
        E 16 b0 0b 4c
        E 16 b0 0b 44
        E 32 b0 0b 3b
        E 16 b0 0b 33
        E 16 b0 0b 2a
        E 32 b0 0b 22
        E 16 b0 0b 2a
        E 16 b0 0b 33
        E 32 b0 0b 3b
        E 16 b0 0b 44
        E 16 b0 0b 3b
        E 32 b0 0b 33
        E 16 b0 0b 2a
        E 16 b0 0b 7f
        E 0 80 45 00
        E 0 90 40 7f
        E 32 b0 0b 77
        E 16 b0 0b 6e
        E 16 b0 0b 66
        E 32 b0 0b 5d
        E 16 b0 0b 55
        E 16 b0 0b 4c
        E 32 b0 0b 44
        E 16 b0 0b 4c
        E 16 b0 0b 55
        E 32 b0 0b 5d
        E 16 b0 0b 66
        E 16 b0 0b 5d
        E 32 b0 0b 7f
        E 0 80 40 00
        E 0 90 41 7f
        E 32 b0 0b 77
        E 16 b0 0b 6e
        E 16 b0 0b 66
        E 32 b0 0b 5d
        E 16 b0 0b 55
        E 16 b0 0b 4c
        E 32 b0 0b 44
        E 16 b0 0b 4c
        E 16 b0 0b 55
        E 32 b0 0b 5d
        E 16 b0 0b 66
        E 16 b0 0b 5d
        E 32 b0 0b 55
        E 16 b0 0b 4c
        E 16 b0 0b 44
        E 32 b0 0b 3b
        E 16 b0 0b 33
        E 16 b0 0b 2a
        E 32 b0 0b 22
        E 16 b0 0b 2a
        E 16 b0 0b 33
        E 32 b0 0b 3b
        E 16 b0 0b 44
        E 16 b0 0b 3b
        E 32 b0 0b 33
        E 16 b0 0b 2a
        E 16 b0 0b 22
        E 32 b0 0b 19
        E 16 b0 0b 11
        E 16 b0 0b 08
        E 32 80 41 00
        E 1632 b0 0b 7f
        E 0 90 42 7f
        E 32 b0 0b 77
        E 16 b0 0b 6e
        E 16 b0 0b 66
        E 32 b0 0b 5d
        E 16 b0 0b 55
        E 16 b0 0b 4c
        E 32 b0 0b 44
        E 16 b0 0b 4c
        E 16 b0 0b 55
        E 32 b0 0b 5d
        E 16 b0 0b 66
        E 16 b0 0b 5d
        E 32 b0 0b 7f
        E 0 80 42 00
        E 0 90 43 7f
        E 32 b0 0b 77
        E 16 b0 0b 6e
        E 16 b0 0b 66
        E 32 b0 0b 5d
        E 16 b0 0b 55
        E 16 b0 0b 4c
        E 32 b0 0b 44
        E 16 b0 0b 4c
        E 16 b0 0b 55
        E 32 b0 0b 5d
        E 16 b0 0b 66
        E 16 b0 0b 5d
        E 32 b0 0b 55
        E 16 b0 0b 4c
        E 16 b0 0b 44
        E 32 b0 0b 3b
        E 16 b0 0b 33
        E 16 b0 0b 2a
        E 32 b0 0b 22
        E 16 b0 0b 2a
        E 16 b0 0b 33
        E 32 b0 0b 3b
        E 16 b0 0b 44
        E 16 b0 0b 3b
        E 32 b0 0b 33
        E 16 b0 0b 2a
        E 16 b0 0b 7f
        E 0 80 43 00
        E 0 90 3e 7f
        E 32 b0 0b 77
        E 16 b0 0b 6e
        E 16 b0 0b 66
        E 32 b0 0b 5d
        E 16 b0 0b 55
        E 16 b0 0b 4c
        E 32 b0 0b 44
        E 16 b0 0b 4c
        E 16 b0 0b 55
        E 32 b0 0b 5d
        E 16 b0 0b 66
        E 16 b0 0b 5d
        E 32 b0 0b 7f
        E 0 80 3e 00
        E 0 90 40 7f
        E 32 b0 0b 77
        E 16 b0 0b 6e
        E 16 b0 0b 66
        E 32 b0 0b 5d
        E 16 b0 0b 55
        E 16 b0 0b 4c
        E 32 b0 0b 44
        E 16 b0 0b 4c
        E 16 b0 0b 55
        E 32 b0 0b 5d
        E 16 b0 0b 66
        E 16 b0 0b 5d
        E 32 b0 0b 55
        E 16 b0 0b 4c
        E 16 b0 0b 44
        E 32 b0 0b 3b
        E 16 b0 0b 33
        E 16 b0 0b 2a
        E 32 b0 0b 22
        E 16 b0 0b 2a
        E 16 b0 0b 33
        E 32 b0 0b 3b
        E 16 b0 0b 44
        E 16 b0 0b 3b
        E 32 b0 0b 33
        E 16 b0 0b 2a
        E 16 b0 0b 22
        E 32 b0 0b 19
        E 16 b0 0b 11
        E 16 b0 0b 08
        E 32 80 40 00
        E 1632 b0 0b 7f
        E 0 90 44 7f
        E 32 b0 0b 77
        E 16 b0 0b 6e
        E 16 b0 0b 66
        E 32 b0 0b 5d
        E 16 b0 0b 55
        E 16 b0 0b 4c
        E 32 b0 0b 44
        E 16 b0 0b 4c
        E 16 b0 0b 55
        E 32 b0 0b 5d
        E 16 b0 0b 66
        E 16 b0 0b 5d
        E 32 b0 0b 7f
        E 0 80 44 00
        E 0 90 45 7f
        E 32 b0 0b 77
        E 16 b0 0b 6e
        E 16 b0 0b 66
        E 32 b0 0b 5d
        E 16 b0 0b 55
        E 16 b0 0b 4c
        E 32 b0 0b 44
        E 16 b0 0b 4c
        E 16 b0 0b 55
        E 32 b0 0b 5d
        E 16 b0 0b 66
        E 16 b0 0b 5d
        E 32 b0 0b 55
        E 16 b0 0b 4c
        E 16 b0 0b 44
        E 32 b0 0b 3b
        E 16 b0 0b 33
        E 16 b0 0b 2a
        E 32 b0 0b 22
        E 16 b0 0b 2a
        E 16 b0 0b 33
        E 32 b0 0b 3b
        E 16 b0 0b 44
        E 16 b0 0b 3b
        E 32 b0 0b 33
        E 16 b0 0b 2a
        E 16 b0 0b 7f
        E 0 80 45 00
        E 0 90 40 7f
        E 32 b0 0b 77
        E 16 b0 0b 6e
        E 16 b0 0b 66
        E 32 b0 0b 5d
        E 16 b0 0b 55
        E 16 b0 0b 4c
        E 32 b0 0b 44
        E 16 b0 0b 4c
        E 16 b0 0b 55
        E 32 b0 0b 5d
        E 16 b0 0b 66
        E 16 b0 0b 5d
        E 32 b0 0b 7f
        E 0 80 40 00
        E 0 90 41 7f
        E 32 b0 0b 77
        E 16 b0 0b 6e
        E 16 b0 0b 66
        E 32 b0 0b 5d
        E 16 b0 0b 55
        E 16 b0 0b 4c
        E 32 b0 0b 44
        E 16 b0 0b 4c
        E 16 b0 0b 55
        E 32 b0 0b 5d
        E 16 b0 0b 66
        E 16 b0 0b 5d
        E 32 b0 0b 7f
        E 0 80 41 00
        E 0 90 3e 7f
        E 32 b0 0b 77
        E 16 b0 0b 6e
        E 16 b0 0b 66
        E 32 b0 0b 5d
        E 16 b0 0b 55
        E 16 b0 0b 4c
        E 32 b0 0b 44
        E 16 b0 0b 4c
        E 16 b0 0b 55
        E 32 b0 0b 5d
        E 16 b0 0b 66
        E 16 b0 0b 5d
        E 32 b0 0b 7f
        E 0 80 3e 00
        E 0 90 40 7f
        E 32 b0 0b 77
        E 16 b0 0b 6e
        E 16 b0 0b 66
        E 32 b0 0b 5d
        E 16 b0 0b 55
        E 16 b0 0b 4c
        E 32 b0 0b 44
        E 16 b0 0b 4c
        E 16 b0 0b 55
        E 32 b0 0b 5d
        E 16 b0 0b 66
        E 16 b0 0b 5d
        E 32 b0 0b 7f
        E 0 80 40 00
        E 0 90 42 7f
        E 32 b0 0b 77
        E 16 b0 0b 6e
        E 16 b0 0b 66
        E 32 b0 0b 5d
        E 16 b0 0b 55
        E 16 b0 0b 4c
        E 32 b0 0b 44
        E 16 b0 0b 4c
        E 16 b0 0b 55
        E 32 b0 0b 5d
        E 16 b0 0b 66
        E 16 b0 0b 5d
        E 32 b0 0b 7f
        E 0 80 42 00
        E 0 90 47 7f
        E 32 b0 0b 77
        E 16 b0 0b 6e
        E 16 b0 0b 66
        E 32 b0 0b 5d
        E 16 b0 0b 55
        E 16 b0 0b 4c
        E 32 b0 0b 44
        E 16 b0 0b 4c
        E 16 b0 0b 55
        E 32 b0 0b 5d
        E 16 b0 0b 66
        E 16 b0 0b 5d
        E 32 b0 0b 7f
        E 0 80 47 00
        E 0 90 45 7f
        E 32 b0 0b 77
        E 16 b0 0b 6e
        E 16 b0 0b 66
        E 32 b0 0b 5d
        E 16 b0 0b 55
        E 16 b0 0b 4c
        E 32 b0 0b 44
        E 16 b0 0b 4c
        E 16 b0 0b 55
        E 32 b0 0b 5d
        E 16 b0 0b 66
        E 16 b0 0b 5d
        E 32 b0 0b 7f
        E 0 80 45 00
        E 0 90 43 7f
        E 32 b0 0b 77
        E 16 b0 0b 6e
        E 16 b0 0b 66
        E 32 b0 0b 5d
        E 16 b0 0b 55
        E 16 b0 0b 4c
        E 32 b0 0b 44
        E 16 b0 0b 4c
        E 16 b0 0b 55
        E 32 b0 0b 5d
        E 16 b0 0b 66
        E 16 b0 0b 5d
        E 32 b0 0b 7f
        E 0 80 43 00
        E 0 90 42 7f
        E 32 b0 0b 77
        E 16 b0 0b 6e
        E 16 b0 0b 66
        E 32 b0 0b 5d
        E 16 b0 0b 55
        E 16 b0 0b 4c
        E 32 b0 0b 44
        E 16 b0 0b 4c
        E 16 b0 0b 55
        E 32 b0 0b 5d
        E 16 b0 0b 66
        E 16 b0 0b 5d
        E 32 b0 0b 7f
        E 0 80 42 00
        E 0 90 43 7f
        E 32 b0 0b 77
        E 16 b0 0b 6e
        E 16 b0 0b 66
        E 32 b0 0b 5d
        E 16 b0 0b 55
        E 16 b0 0b 4c
        E 32 b0 0b 44
        E 16 b0 0b 4c
        E 16 b0 0b 55
        E 32 b0 0b 5d
        E 16 b0 0b 66
        E 16 b0 0b 5d
        E 32 b0 0b 7f
        E 0 80 43 00
        E 0 90 44 7f
        E 32 b0 0b 77
        E 16 b0 0b 6e
        E 16 b0 0b 66
        E 32 b0 0b 5d
        E 16 b0 0b 55
        E 16 b0 0b 4c
        E 32 b0 0b 44
        E 16 b0 0b 4c
        E 16 b0 0b 55
        E 32 b0 0b 5d
        E 16 b0 0b 66
        E 16 b0 0b 5d
        E 32 b0 0b 7f
        E 0 80 44 00
        E 0 90 48 7f
        E 32 b0 0b 77
        E 16 b0 0b 6e
        E 16 b0 0b 66
        E 32 b0 0b 5d
        E 16 b0 0b 55
        E 16 b0 0b 4c
        E 32 b0 0b 44
        E 16 b0 0b 4c
        E 16 b0 0b 55
        E 32 b0 0b 5d
        E 16 b0 0b 66
        E 16 b0 0b 5d
        E 32 b0 0b 7f
        E 0 80 48 00
        E 0 90 47 7f
        E 32 b0 0b 77
        E 16 b0 0b 6e
        E 16 b0 0b 66
        E 32 b0 0b 5d
        E 16 b0 0b 55
        E 16 b0 0b 4c
        E 32 b0 0b 44
        E 16 b0 0b 4c
        E 16 b0 0b 55
        E 32 b0 0b 5d
        E 16 b0 0b 66
        E 16 b0 0b 5d
        E 32 b0 0b 7f
        E 0 80 47 00
        E 0 90 45 7f
        E 32 b0 0b 77
        E 16 b0 0b 6e
        E 16 b0 0b 66
        E 32 b0 0b 5d
        E 16 b0 0b 55
        E 16 b0 0b 4c
        E 32 b0 0b 44
        E 16 b0 0b 4c
        E 16 b0 0b 55
        E 32 b0 0b 5d
        E 16 b0 0b 66
        E 16 b0 0b 5d
        E 32 b0 0b 7f
        E 0 80 45 00
        E 0 90 47 7f
        E 32 b0 0b 77
        E 16 b0 0b 6e
        E 16 b0 0b 66
        E 32 b0 0b 5d
        E 16 b0 0b 55
        E 16 b0 0b 4c
        E 32 b0 0b 44
        E 16 b0 0b 4c
        E 16 b0 0b 55
        E 32 b0 0b 5d
        E 16 b0 0b 66
        E 16 b0 0b 5d
        E 32 b0 0b 7f
        E 0 80 47 00
        E 0 90 48 7f
        E 32 b0 0b 77
        E 16 b0 0b 6e
        E 16 b0 0b 66
        E 32 b0 0b 5d
        E 16 b0 0b 55
        E 16 b0 0b 4c
        E 32 b0 0b 44
        E 16 b0 0b 4c
        E 16 b0 0b 55
        E 32 b0 0b 5d
        E 16 b0 0b 66
        E 16 b0 0b 5d
        E 32 b0 0b 7f
        E 0 80 48 00
        E 0 90 4a 7f
        E 32 b0 0b 77
        E 16 b0 0b 6e
        E 16 b0 0b 66
        E 32 b0 0b 5d
        E 16 b0 0b 55
        E 16 b0 0b 4c
        E 32 b0 0b 44
        E 16 b0 0b 4c
        E 16 b0 0b 55
        E 32 b0 0b 5d
        E 16 b0 0b 66
        E 16 b0 0b 5d
        E 32 b0 0b 7f
        E 0 80 4a 00
        E 0 90 48 7f
        E 32 b0 0b 77
        E 16 b0 0b 6e
        E 16 b0 0b 66
        E 32 b0 0b 5d
        E 16 b0 0b 55
        E 16 b0 0b 4c
        E 32 b0 0b 44
        E 16 b0 0b 4c
        E 16 b0 0b 55
        E 32 b0 0b 5d
        E 16 b0 0b 66
        E 16 b0 0b 5d
        E 32 b0 0b 7f
        E 0 80 48 00
        E 0 90 44 7f
        E 32 b0 0b 77
        E 16 b0 0b 6e
        E 16 b0 0b 66
        E 32 b0 0b 5d
        E 16 b0 0b 55
        E 16 b0 0b 4c
        E 32 b0 0b 44
        E 16 b0 0b 4c
        E 16 b0 0b 55
        E 32 b0 0b 5d
        E 16 b0 0b 66
        E 16 b0 0b 5d
        E 32 b0 0b 66
        E 0 80 44 00
        E 0 90 43 66
        E 16 b0 0b 5d
        E 16 b0 0b 55
        E 16 b0 0b 44
        E 16 b0 0b 3b
        E 16 b0 0b 2a
        E 16 b0 0b 19
        E 16 b0 0b 08
        E 16 80 43 00
        E 160 b0 0b 66
        E 0 90 48 66
        E 16 b0 0b 5d
        E 16 b0 0b 55
        E 16 b0 0b 44
        E 16 b0 0b 3b
        E 16 b0 0b 2a
        E 16 b0 0b 19
        E 16 b0 0b 08
        E 16 80 48 00
        E 160 b0 0b 66
        E 0 90 4c 66
        E 16 b0 0b 5d
        E 16 b0 0b 55
        E 16 b0 0b 44
        E 16 b0 0b 3b
        E 16 b0 0b 2a
        E 16 b0 0b 19
        E 16 b0 0b 08
        E 16 80 4c 00
        E 160 b0 0b 66
        E 0 90 4a 66
        E 16 b0 0b 5d
        E 16 b0 0b 55
        E 16 b0 0b 44
        E 16 b0 0b 3b
        E 16 b0 0b 2a
        E 16 b0 0b 19
        E 16 b0 0b 08
        E 16 80 4a 00
        E 736 b0 0b 7f
        E 0 90 47 7f
        E 32 b0 0b 77
        E 16 b0 0b 6e
        E 16 b0 0b 66
        E 32 b0 0b 5d
        E 16 b0 0b 55
        E 16 b0 0b 4c
        E 32 b0 0b 44
        E 16 b0 0b 4c
        E 16 b0 0b 55
        E 32 b0 0b 5d
        E 16 b0 0b 66
        E 16 b0 0b 5d
        E 32 b0 0b 7f
        E 0 80 47 00
        E 0 90 43 7f
        E 32 b0 0b 77
        E 16 b0 0b 6e
        E 16 b0 0b 66
        E 32 b0 0b 5d
        E 16 b0 0b 55
        E 16 b0 0b 4c
        E 32 b0 0b 44
        E 16 b0 0b 4c
        E 16 b0 0b 55
        E 32 b0 0b 5d
        E 16 b0 0b 66
        E 16 b0 0b 5d
        E 32 b0 0b 7f
        E 0 80 43 00
        E 0 90 47 7f
        E 32 b0 0b 77
        E 16 b0 0b 6e
        E 16 b0 0b 66
        E 32 b0 0b 5d
        E 16 b0 0b 55
        E 16 b0 0b 4c
        E 32 b0 0b 44
        E 16 b0 0b 4c
        E 16 b0 0b 55
        E 32 b0 0b 5d
        E 16 b0 0b 66
        E 16 b0 0b 5d
        E 32 b0 0b 7f
        E 0 80 47 00
        E 0 90 45 7f
        E 32 b0 0b 77
        E 16 b0 0b 6e
        E 16 b0 0b 66
        E 32 b0 0b 5d
        E 16 b0 0b 55
        E 16 b0 0b 4c
        E 32 b0 0b 44
        E 16 b0 0b 4c
        E 16 b0 0b 55
        E 32 b0 0b 5d
        E 16 b0 0b 66
        E 16 b0 0b 5d
        E 32 b0 0b 7f
        E 0 80 45 00
        E 0 90 41 7f
        E 32 b0 0b 77
        E 16 b0 0b 6e
        E 16 b0 0b 66
        E 32 b0 0b 5d
        E 16 b0 0b 55
        E 16 b0 0b 4c
        E 32 b0 0b 44
        E 16 b0 0b 4c
        E 16 b0 0b 55
        E 32 b0 0b 5d
        E 16 b0 0b 66
        E 16 b0 0b 5d
        E 32 b0 0b 7f
        E 0 80 41 00
        E 0 90 45 7f
        E 32 b0 0b 77
        E 16 b0 0b 6e
        E 16 b0 0b 66
        E 32 b0 0b 5d
        E 16 b0 0b 55
        E 16 b0 0b 4c
        E 32 b0 0b 44
        E 16 b0 0b 4c
        E 16 b0 0b 55
        E 32 b0 0b 5d
        E 16 b0 0b 66
        E 16 b0 0b 5d
        E 32 b0 0b 7f
        E 0 80 45 00
        E 0 90 43 7f
        E 32 b0 0b 77
        E 16 b0 0b 6e
        E 16 b0 0b 66
        E 32 b0 0b 5d
        E 16 b0 0b 55
        E 16 b0 0b 4c
        E 32 b0 0b 44
        E 16 b0 0b 4c
        E 16 b0 0b 55
        E 32 b0 0b 5d
        E 16 b0 0b 66
        E 16 b0 0b 5d
        E 32 b0 0b 7f
        E 0 80 43 00
        E 0 90 3e 7f
        E 32 b0 0b 77
        E 16 b0 0b 6e
        E 16 b0 0b 66
        E 32 b0 0b 5d
        E 16 b0 0b 55
        E 16 b0 0b 4c
        E 32 b0 0b 44
        E 16 b0 0b 4c
        E 16 b0 0b 55
        E 32 b0 0b 5d
        E 16 b0 0b 66
        E 16 b0 0b 5d
        E 32 b0 0b 7f
        E 0 80 3e 00
        E 0 90 43 7f
        E 32 b0 0b 77
        E 16 b0 0b 6e
        E 16 b0 0b 66
        E 32 b0 0b 5d
        E 16 b0 0b 55
        E 16 b0 0b 4c
        E 32 b0 0b 44
        E 16 b0 0b 4c
        E 16 b0 0b 55
        E 32 b0 0b 5d
        E 16 b0 0b 66
        E 16 b0 0b 5d
        E 32 b0 0b 7f
        E 0 80 43 00
        E 0 90 41 7f
        E 32 b0 0b 77
        E 16 b0 0b 6e
        E 16 b0 0b 66
        E 32 b0 0b 5d
        E 16 b0 0b 55
        E 16 b0 0b 4c
        E 32 b0 0b 44
        E 16 b0 0b 4c
        E 16 b0 0b 55
        E 32 b0 0b 5d
        E 16 b0 0b 66
        E 16 b0 0b 5d
        E 32 b0 0b 7f
        E 0 80 41 00
        E 0 90 3e 7f
        E 32 b0 0b 77
        E 16 b0 0b 6e
        E 16 b0 0b 66
        E 32 b0 0b 5d
        E 16 b0 0b 55
        E 16 b0 0b 4c
        E 32 b0 0b 44
        E 16 b0 0b 4c
        E 16 b0 0b 55
        E 32 b0 0b 5d
        E 16 b0 0b 66
        E 16 b0 0b 5d
        E 32 b0 0b 7f
        E 0 80 3e 00
        E 0 90 41 7f
        E 32 b0 0b 77
        E 16 b0 0b 6e
        E 16 b0 0b 66
        E 32 b0 0b 5d
        E 16 b0 0b 55
        E 16 b0 0b 4c
        E 32 b0 0b 44
        E 16 b0 0b 4c
        E 16 b0 0b 55
        E 32 b0 0b 5d
        E 16 b0 0b 66
        E 16 b0 0b 5d
        E 32 b0 0b 7f
        E 0 80 41 00
        E 0 90 43 7f
        E 32 b0 0b 77
        E 16 b0 0b 6e
        E 16 b0 0b 66
        E 32 b0 0b 5d
        E 16 b0 0b 55
        E 16 b0 0b 4c
        E 32 b0 0b 44
        E 16 b0 0b 4c
        E 16 b0 0b 55
        E 32 b0 0b 5d
        E 16 b0 0b 66
        E 16 b0 0b 5d
        E 32 b0 0b 55
        E 16 b0 0b 4c
        E 16 b0 0b 44
        E 32 b0 0b 3b
        E 16 b0 0b 33
        E 16 b0 0b 2a
        E 32 b0 0b 22
        E 16 b0 0b 2a
        E 16 b0 0b 33
        E 32 b0 0b 3b
        E 16 b0 0b 44
        E 16 b0 0b 3b
        E 32 b0 0b 33
        E 16 b0 0b 2a
        E 16 b0 0b 7f
        E 0 80 43 00
        E 0 90 42 7f
        E 32 b0 0b 77
        E 16 b0 0b 6e
        E 16 b0 0b 66
        E 32 b0 0b 5d
        E 16 b0 0b 55
        E 16 b0 0b 4c
        E 32 b0 0b 44
        E 16 b0 0b 4c
        E 16 b0 0b 55
        E 32 b0 0b 5d
        E 16 b0 0b 66
        E 16 b0 0b 5d
        E 32 b0 0b 7f
        E 0 80 42 00
        E 0 90 43 7f
        E 32 b0 0b 77
        E 16 b0 0b 6e
        E 16 b0 0b 66
        E 32 b0 0b 5d
        E 16 b0 0b 55
        E 16 b0 0b 4c
        E 32 b0 0b 44
        E 16 b0 0b 4c
        E 16 b0 0b 55
        E 32 b0 0b 5d
        E 16 b0 0b 66
        E 16 b0 0b 5d
        E 32 b0 0b 55
        E 16 b0 0b 4c
        E 16 b0 0b 44
        E 32 b0 0b 3b
        E 16 b0 0b 33
        E 16 b0 0b 2a
        E 32 b0 0b 22
        E 16 b0 0b 2a
        E 16 b0 0b 33
        E 32 b0 0b 3b
        E 16 b0 0b 44
        E 16 b0 0b 3b
        E 32 b0 0b 33
        E 16 b0 0b 2a
        E 16 b0 0b 7f
        E 0 80 43 00
        E 0 90 45 7f
        E 32 b0 0b 77
        E 16 b0 0b 6e
        E 16 b0 0b 66
        E 32 b0 0b 5d
        E 16 b0 0b 55
        E 16 b0 0b 4c
        E 32 b0 0b 44
        E 16 b0 0b 4c
        E 16 b0 0b 55
        E 32 b0 0b 5d
        E 16 b0 0b 66
        E 16 b0 0b 5d
        E 32 b0 0b 7f
        E 0 80 45 00
        E 0 90 43 7f
        E 32 b0 0b 77
        E 16 b0 0b 6e
        E 16 b0 0b 66
        E 32 b0 0b 5d
        E 16 b0 0b 55
        E 16 b0 0b 4c
        E 32 b0 0b 44
        E 16 b0 0b 4c
        E 16 b0 0b 55
        E 32 b0 0b 5d
        E 16 b0 0b 66
        E 16 b0 0b 5d
        E 32 b0 0b 55
        E 16 b0 0b 4c
        E 16 b0 0b 44
        E 32 b0 0b 3b
        E 16 b0 0b 33
        E 16 b0 0b 2a
        E 32 b0 0b 22
        E 16 b0 0b 2a
        E 16 b0 0b 33
        E 32 b0 0b 3b
        E 16 b0 0b 44
        E 16 b0 0b 3b
        E 32 b0 0b 33
        E 16 b0 0b 2a
        E 16 b0 0b 22
        E 32 b0 0b 19
        E 16 b0 0b 11
        E 16 b0 0b 08
        E 32 80 43 00
        E 192 b0 0b 7f
        E 0 90 40 7f
        E 32 b0 0b 77
        E 16 b0 0b 6e
        E 16 b0 0b 66
        E 32 b0 0b 5d
        E 16 b0 0b 55
        E 16 b0 0b 4c
        E 32 b0 0b 44
        E 16 b0 0b 4c
        E 16 b0 0b 55
        E 32 b0 0b 5d
        E 16 b0 0b 66
        E 16 b0 0b 5d
        E 32 b0 0b 55
        E 16 b0 0b 4c
        E 16 b0 0b 44
        E 32 b0 0b 3b
        E 16 b0 0b 33
        E 16 b0 0b 2a
        E 32 b0 0b 22
        E 16 b0 0b 2a
        E 16 b0 0b 33
        E 32 b0 0b 3b
        E 16 b0 0b 44
        E 16 b0 0b 3b
        E 32 b0 0b 33
        E 16 b0 0b 2a
        E 16 b0 0b 7f
        E 0 80 40 00
        E 0 90 41 7f
        E 32 b0 0b 77
        E 16 b0 0b 6e
        E 16 b0 0b 66
        E 32 b0 0b 5d
        E 16 b0 0b 55
        E 16 b0 0b 4c
        E 32 b0 0b 44
        E 16 b0 0b 4c
        E 16 b0 0b 55
        E 32 b0 0b 5d
        E 16 b0 0b 66
        E 16 b0 0b 5d
        E 32 b0 0b 7f
        E 0 80 41 00
        E 0 90 43 7f
        E 32 b0 0b 77
        E 16 b0 0b 6e
        E 16 b0 0b 66
        E 32 b0 0b 5d
        E 16 b0 0b 55
        E 16 b0 0b 4c
        E 32 b0 0b 44
        E 16 b0 0b 4c
        E 16 b0 0b 55
        E 32 b0 0b 5d
        E 16 b0 0b 66
        E 16 b0 0b 5d
        E 32 b0 0b 7f
        E 0 80 43 00
        E 0 90 48 7f
        E 32 b0 0b 77
        E 16 b0 0b 6e
        E 16 b0 0b 66
        E 32 b0 0b 5d
        E 16 b0 0b 55
        E 16 b0 0b 4c
        E 32 b0 0b 44
        E 16 b0 0b 4c
        E 16 b0 0b 55
        E 32 b0 0b 5d
        E 16 b0 0b 66
        E 16 b0 0b 5d
        E 32 b0 0b 7f
        E 0 80 48 00
        E 0 90 47 7f
        E 32 b0 0b 77
        E 16 b0 0b 6e
        E 16 80 47 00
        E 0 b0 7b 00
        E 0 ff 2f 00
      >
    >
  >
  <TRACK {F0476882-7B93-44DD-A120-3BE6AAA5E858}
    NAME "NES - Pulse 2 [ch1]"
    PEAKCOL 10092441
    BEAT -1
    AUTOMODE 0
    PANLAWFLAGS 3
    VOLPAN 1 0 -1 -1 1
    MUTESOLO 0 0 0
    IPHASE 0
    PLAYOFFS 0 1
    ISBUS 0 0
    BUSCOMP 0 0 0 0 0
    SHOWINMIX 1 0.6667 0.5 1 0.5 0 0 0
    FIXEDLANES 9 0 0 0 0
    SEL 0
    REC 0 5088 1 0 0 0 0 0
    VU 2
    TRACKHEIGHT 0 0 0 0 0 0 0
    INQ 0 0 0 0.5 100 0 0 100
    NCHAN 2
    FX 1
    TRACKID {F0476882-7B93-44DD-A120-3BE6AAA5E858}
    PERF 0
    MIDIOUT -1
    MAINSEND 1 0
    <FXCHAIN
      WNDRECT 24 52 700 560
      SHOW 0
      LASTSEL 0
      DOCKED 0
      BYPASS 0 0 0
      <JS "ReapNES Studio/ReapNES_Console.jsfx" ""
        2 15 1 10 80 10 100 2 1 15 1 5 60 10 80 1 1 0 50 0 0 15 1 0 100 0 0 0.500000 0.500000 0.400000 0.300000 0.800000 1 1 0 0 0 0 - - - - - - - - - - - - - - - - - - - - - - - - - -
      >
      FLOATPOS 0 0 0 0
      FXID {59478AAA-EA4C-4B2A-8B55-6568B5106F41}
      WAK 0 0
    >
    <ITEM
      POSITION 0
      LENGTH 74.5878716
      LOOP 0
      ALLTAKES 0
      FADEIN 0 0 0 0 0 0 0
      FADEOUT 0 0 0 0 0 0 0
      MUTE 0 0
      SEL 0
      IGUID {6945B633-8ABD-422C-939A-4C799D4FE61A}
      <SOURCE MIDI
        HASDATA 1 480 QN
        CCINTERP 32
        E 0 c1 51
        E 64 b1 0c 10
        E 0 b1 0b 3b
        E 0 91 34 3b
        E 16 b1 0b 44
        E 16 b1 0b 4c
        E 32 b1 0b 55
        E 32 b1 0b 5d
        E 32 b1 0b 66
        E 32 b1 0b 6e
        E 32 b1 0b 77
        E 32 b1 0b 7f
        E 64 b1 0b 77
        E 32 b1 0b 6e
        E 32 b1 0b 66
        E 32 b1 0b 5d
        E 32 b1 0b 55
        E 32 b1 0b 4c
        E 32 b1 0b 44
        E 96 81 34 00
        E 0 91 33 44
        E 32 b1 0b 4c
        E 32 b1 0b 55
        E 32 b1 0b 5d
        E 32 b1 0b 66
        E 32 b1 0b 6e
        E 32 b1 0b 77
        E 32 b1 0b 7f
        E 64 b1 0b 44
        E 0 81 33 00
        E 0 91 34 44
        E 32 b1 0b 4c
        E 32 b1 0b 55
        E 32 b1 0b 5d
        E 32 b1 0b 66
        E 32 b1 0b 6e
        E 32 b1 0b 77
        E 32 b1 0b 7f
        E 64 b1 0b 77
        E 32 b1 0b 6e
        E 32 b1 0b 66
        E 32 b1 0b 5d
        E 32 b1 0b 55
        E 32 b1 0b 4c
        E 32 b1 0b 44
        E 96 81 34 00
        E 0 91 35 44
        E 32 b1 0b 4c
        E 32 b1 0b 55
        E 32 b1 0b 5d
        E 32 b1 0b 66
        E 32 b1 0b 6e
        E 32 b1 0b 77
        E 32 b1 0b 7f
        E 64 b1 0b 44
        E 0 81 35 00
        E 0 91 34 44
        E 32 b1 0b 4c
        E 32 b1 0b 55
        E 32 b1 0b 5d
        E 32 b1 0b 66
        E 32 b1 0b 6e
        E 32 b1 0b 77
        E 32 b1 0b 7f
        E 64 b1 0b 77
        E 32 b1 0b 6e
        E 32 b1 0b 66
        E 32 b1 0b 5d
        E 32 b1 0b 55
        E 32 b1 0b 4c
        E 32 b1 0b 44
        E 384 81 34 00
        E 0 91 30 44
        E 32 b1 0b 4c
        E 32 b1 0b 55
        E 32 b1 0b 5d
        E 32 b1 0b 66
        E 32 b1 0b 6e
        E 32 b1 0b 77
        E 32 b1 0b 7f
        E 64 b1 0b 77
        E 32 b1 0b 6e
        E 32 b1 0b 66
        E 32 b1 0b 5d
        E 32 b1 0b 55
        E 32 b1 0b 4c
        E 32 b1 0b 44
        E 96 81 30 00
        E 0 91 32 44
        E 32 b1 0b 4c
        E 32 b1 0b 55
        E 32 b1 0b 5d
        E 32 b1 0b 66
        E 32 b1 0b 6e
        E 32 b1 0b 77
        E 32 b1 0b 7f
        E 64 b1 0b 44
        E 0 81 32 00
        E 0 91 34 44
        E 32 b1 0b 4c
        E 32 b1 0b 55
        E 32 b1 0b 5d
        E 32 b1 0b 66
        E 32 b1 0b 6e
        E 32 b1 0b 77
        E 32 b1 0b 7f
        E 64 b1 0b 77
        E 32 b1 0b 6e
        E 32 b1 0b 66
        E 32 b1 0b 5d
        E 32 b1 0b 55
        E 32 b1 0b 4c
        E 32 b1 0b 44
        E 128 b1 0b 4c
        E 32 b1 0b 55
        E 32 b1 0b 5d
        E 32 b1 0b 66
        E 32 b1 0b 6e
        E 32 b1 0b 77
        E 32 b1 0b 7f
        E 64 b1 0b 44
        E 0 81 34 00
        E 0 91 35 44
        E 32 b1 0b 4c
        E 32 b1 0b 55
        E 32 b1 0b 5d
        E 32 b1 0b 66
        E 32 b1 0b 6e
        E 32 b1 0b 77
        E 32 b1 0b 7f
        E 64 b1 0b 77
        E 32 b1 0b 6e
        E 32 b1 0b 66
        E 32 b1 0b 5d
        E 32 b1 0b 55
        E 32 b1 0b 4c
        E 32 b1 0b 44
        E 128 b1 0b 4c
        E 32 b1 0b 55
        E 32 b1 0b 5d
        E 32 b1 0b 66
        E 32 b1 0b 6e
        E 32 b1 0b 77
        E 32 b1 0b 7f
        E 64 b1 0b 44
        E 0 81 35 00
        E 0 91 34 44
        E 32 b1 0b 4c
        E 32 b1 0b 55
        E 32 b1 0b 5d
        E 32 b1 0b 66
        E 32 b1 0b 6e
        E 32 b1 0b 77
        E 32 b1 0b 7f
        E 64 b1 0b 77
        E 32 b1 0b 6e
        E 32 b1 0b 66
        E 32 b1 0b 5d
        E 32 b1 0b 55
        E 32 b1 0b 4c
        E 32 b1 0b 44
        E 128 b1 0b 4c
        E 32 b1 0b 55
        E 32 b1 0b 5d
        E 32 b1 0b 66
        E 32 b1 0b 6e
        E 32 b1 0b 77
        E 32 b1 0b 7f
        E 64 b1 0b 44
        E 0 81 34 00
        E 0 91 31 44
        E 32 b1 0b 4c
        E 32 b1 0b 55
        E 32 b1 0b 5d
        E 32 b1 0b 66
        E 32 b1 0b 6e
        E 32 b1 0b 77
        E 32 b1 0b 7f
        E 64 b1 0b 77
        E 32 b1 0b 6e
        E 32 b1 0b 66
        E 32 b1 0b 5d
        E 32 b1 0b 55
        E 32 b1 0b 4c
        E 32 b1 0b 44
        E 128 b1 0b 4c
        E 32 b1 0b 55
        E 32 b1 0b 5d
        E 32 b1 0b 66
        E 32 b1 0b 6e
        E 32 b1 0b 77
        E 32 b1 0b 7f
        E 64 b1 0b 44
        E 0 81 31 00
        E 0 91 32 44
        E 32 b1 0b 4c
        E 32 b1 0b 55
        E 32 b1 0b 5d
        E 32 b1 0b 66
        E 32 b1 0b 6e
        E 32 b1 0b 77
        E 32 b1 0b 7f
        E 64 b1 0b 77
        E 32 b1 0b 6e
        E 32 b1 0b 66
        E 32 b1 0b 5d
        E 32 b1 0b 55
        E 32 b1 0b 4c
        E 32 b1 0b 44
        E 2112 81 32 00
        E 0 91 30 44
        E 32 b1 0b 4c
        E 32 b1 0b 55
        E 32 b1 0b 5d
        E 32 b1 0b 66
        E 32 b1 0b 6e
        E 32 b1 0b 77
        E 32 b1 0b 7f
        E 64 b1 0b 77
        E 32 b1 0b 6e
        E 32 b1 0b 66
        E 32 b1 0b 5d
        E 32 b1 0b 55
        E 32 b1 0b 4c
        E 32 b1 0b 44
        E 96 81 30 00
        E 0 91 2f 44
        E 32 b1 0b 4c
        E 32 b1 0b 55
        E 32 b1 0b 5d
        E 32 b1 0b 66
        E 32 b1 0b 6e
        E 32 b1 0b 77
        E 32 b1 0b 7f
        E 64 b1 0b 44
        E 0 81 2f 00
        E 0 91 30 44
        E 32 b1 0b 4c
        E 32 b1 0b 55
        E 32 b1 0b 5d
        E 32 b1 0b 66
        E 32 b1 0b 6e
        E 32 b1 0b 77
        E 32 b1 0b 7f
        E 64 b1 0b 77
        E 32 b1 0b 6e
        E 32 b1 0b 66
        E 32 b1 0b 5d
        E 32 b1 0b 55
        E 32 b1 0b 4c
        E 32 b1 0b 44
        E 384 81 30 00
        E 0 91 2f 44
        E 32 b1 0b 4c
        E 32 b1 0b 55
        E 32 b1 0b 5d
        E 32 b1 0b 66
        E 32 b1 0b 6e
        E 32 b1 0b 77
        E 32 b1 0b 7f
        E 64 b1 0b 44
        E 0 81 2f 00
        E 0 91 30 44
        E 32 b1 0b 4c
        E 32 b1 0b 55
        E 32 b1 0b 5d
        E 32 b1 0b 66
        E 32 b1 0b 6e
        E 32 b1 0b 77
        E 32 b1 0b 7f
        E 64 b1 0b 44
        E 0 81 30 00
        E 0 91 2f 44
        E 32 b1 0b 4c
        E 32 b1 0b 55
        E 32 b1 0b 5d
        E 32 b1 0b 66
        E 32 b1 0b 6e
        E 32 b1 0b 77
        E 32 b1 0b 7f
        E 64 b1 0b 44
        E 0 81 2f 00
        E 0 91 2e 44
        E 32 b1 0b 4c
        E 32 b1 0b 55
        E 32 b1 0b 5d
        E 32 b1 0b 66
        E 32 b1 0b 6e
        E 32 b1 0b 77
        E 32 b1 0b 7f
        E 64 b1 0b 77
        E 32 b1 0b 6e
        E 32 b1 0b 66
        E 32 b1 0b 5d
        E 32 b1 0b 55
        E 32 b1 0b 4c
        E 32 b1 0b 44
        E 384 81 2e 00
        E 0 91 31 44
        E 32 b1 0b 4c
        E 32 b1 0b 55
        E 32 b1 0b 5d
        E 32 b1 0b 66
        E 32 b1 0b 6e
        E 32 b1 0b 77
        E 32 b1 0b 7f
        E 64 b1 0b 77
        E 32 b1 0b 6e
        E 32 b1 0b 66
        E 32 b1 0b 5d
        E 32 b1 0b 55
        E 32 b1 0b 4c
        E 32 b1 0b 44
        E 128 b1 0b 4c
        E 32 b1 0b 55
        E 32 b1 0b 5d
        E 32 b1 0b 66
        E 32 b1 0b 6e
        E 32 b1 0b 77
        E 32 b1 0b 7f
        E 64 b1 0b 44
        E 0 81 31 00
        E 0 91 30 44
        E 32 b1 0b 4c
        E 32 b1 0b 55
        E 32 b1 0b 5d
        E 32 b1 0b 66
        E 32 b1 0b 6e
        E 32 b1 0b 77
        E 32 b1 0b 7f
        E 64 b1 0b 77
        E 32 b1 0b 6e
        E 32 b1 0b 66
        E 32 b1 0b 5d
        E 32 b1 0b 55
        E 32 b1 0b 4c
        E 32 b1 0b 44
        E 384 81 30 00
        E 0 91 33 44
        E 32 b1 0b 4c
        E 32 b1 0b 55
        E 32 b1 0b 5d
        E 32 b1 0b 66
        E 32 b1 0b 6e
        E 32 b1 0b 77
        E 32 b1 0b 7f
        E 64 b1 0b 77
        E 32 b1 0b 6e
        E 32 b1 0b 66
        E 32 b1 0b 5d
        E 32 b1 0b 55
        E 32 b1 0b 4c
        E 32 b1 0b 44
        E 384 81 33 00
        E 0 91 34 44
        E 32 b1 0b 4c
        E 32 b1 0b 55
        E 32 b1 0b 5d
        E 32 b1 0b 66
        E 32 b1 0b 6e
        E 32 b1 0b 77
        E 32 b1 0b 7f
        E 64 b1 0b 77
        E 32 b1 0b 6e
        E 32 b1 0b 66
        E 32 b1 0b 5d
        E 32 b1 0b 55
        E 32 b1 0b 4c
        E 32 b1 0b 44
        E 384 81 34 00
        E 0 91 32 44
        E 32 b1 0b 4c
        E 32 b1 0b 55
        E 32 b1 0b 5d
        E 32 b1 0b 66
        E 32 b1 0b 6e
        E 32 b1 0b 77
        E 32 b1 0b 7f
        E 64 b1 0b 77
        E 32 b1 0b 6e
        E 32 b1 0b 66
        E 32 b1 0b 5d
        E 32 b1 0b 55
        E 32 b1 0b 4c
        E 32 b1 0b 44
        E 384 81 32 00
        E 0 91 35 44
        E 32 b1 0b 4c
        E 32 b1 0b 55
        E 32 b1 0b 5d
        E 32 b1 0b 66
        E 32 b1 0b 6e
        E 32 b1 0b 77
        E 32 b1 0b 7f
        E 64 b1 0b 77
        E 32 b1 0b 6e
        E 32 b1 0b 66
        E 32 b1 0b 5d
        E 32 b1 0b 55
        E 32 b1 0b 4c
        E 32 b1 0b 44
        E 128 b1 0b 4c
        E 32 b1 0b 55
        E 32 b1 0b 5d
        E 32 b1 0b 66
        E 32 b1 0b 6e
        E 32 b1 0b 77
        E 32 b1 0b 7f
        E 64 b1 0b 44
        E 0 81 35 00
        E 0 91 38 44
        E 32 b1 0b 4c
        E 32 b1 0b 55
        E 32 b1 0b 5d
        E 32 b1 0b 66
        E 32 b1 0b 6e
        E 32 b1 0b 77
        E 32 b1 0b 7f
        E 64 b1 0b 44
        E 0 81 38 00
        E 0 91 37 44
        E 32 b1 0b 4c
        E 32 b1 0b 55
        E 32 b1 0b 5d
        E 32 b1 0b 66
        E 32 b1 0b 6e
        E 32 b1 0b 77
        E 32 b1 0b 7f
        E 64 b1 0b 44
        E 0 81 37 00
        E 0 91 35 44
        E 32 b1 0b 4c
        E 32 b1 0b 55
        E 32 b1 0b 5d
        E 32 b1 0b 66
        E 32 b1 0b 6e
        E 32 b1 0b 77
        E 32 b1 0b 7f
        E 64 b1 0b 44
        E 0 81 35 00
        E 0 91 34 44
        E 16 b1 0b 3b
        E 16 b1 0b 33
        E 16 b1 0b 2a
        E 16 b1 0b 22
        E 16 b1 0b 19
        E 16 b1 0b 11
        E 16 b1 0b 08
        E 16 81 34 00
        E 160 b1 0b 44
        E 0 91 35 44
        E 16 b1 0b 3b
        E 16 b1 0b 33
        E 16 b1 0b 2a
        E 16 b1 0b 22
        E 16 b1 0b 19
        E 16 b1 0b 11
        E 16 b1 0b 08
        E 16 81 35 00
        E 160 b1 0b 44
        E 0 91 37 44
        E 16 b1 0b 3b
        E 16 b1 0b 33
        E 16 b1 0b 2a
        E 16 b1 0b 22
        E 16 b1 0b 19
        E 16 b1 0b 11
        E 16 b1 0b 08
        E 16 81 37 00
        E 160 b1 0b 44
        E 0 91 3b 44
        E 16 b1 0b 3b
        E 16 b1 0b 33
        E 16 b1 0b 2a
        E 16 b1 0b 22
        E 16 b1 0b 19
        E 16 b1 0b 11
        E 16 b1 0b 08
        E 16 81 3b 00
        E 736 b1 0b 44
        E 0 91 32 44
        E 32 b1 0b 4c
        E 32 b1 0b 55
        E 32 b1 0b 5d
        E 32 b1 0b 66
        E 32 b1 0b 6e
        E 32 b1 0b 77
        E 32 b1 0b 7f
        E 64 b1 0b 77
        E 32 b1 0b 6e
        E 32 b1 0b 66
        E 32 b1 0b 5d
        E 32 b1 0b 55
        E 32 b1 0b 4c
        E 32 b1 0b 44
        E 384 81 32 00
        E 0 91 30 44
        E 32 b1 0b 4c
        E 32 b1 0b 55
        E 32 b1 0b 5d
        E 32 b1 0b 66
        E 32 b1 0b 6e
        E 32 b1 0b 77
        E 32 b1 0b 7f
        E 64 b1 0b 77
        E 32 b1 0b 6e
        E 32 b1 0b 66
        E 32 b1 0b 5d
        E 32 b1 0b 55
        E 32 b1 0b 4c
        E 32 b1 0b 44
        E 384 81 30 00
        E 0 91 2f 44
        E 32 b1 0b 4c
        E 32 b1 0b 55
        E 32 b1 0b 5d
        E 32 b1 0b 66
        E 32 b1 0b 6e
        E 32 b1 0b 77
        E 32 b1 0b 7f
        E 64 b1 0b 77
        E 32 b1 0b 6e
        E 32 b1 0b 66
        E 32 b1 0b 5d
        E 32 b1 0b 55
        E 32 b1 0b 4c
        E 32 b1 0b 44
        E 384 81 2f 00
        E 0 91 2b 44
        E 32 b1 0b 4c
        E 32 b1 0b 55
        E 32 b1 0b 5d
        E 32 b1 0b 66
        E 32 b1 0b 6e
        E 32 b1 0b 77
        E 32 b1 0b 7f
        E 64 b1 0b 77
        E 32 b1 0b 6e
        E 32 b1 0b 66
        E 32 b1 0b 5d
        E 32 b1 0b 55
        E 32 b1 0b 4c
        E 32 b1 0b 44
        E 384 81 2b 00
        E 0 91 34 44
        E 32 b1 0b 4c
        E 32 b1 0b 55
        E 32 b1 0b 5d
        E 32 b1 0b 66
        E 32 b1 0b 6e
        E 32 b1 0b 77
        E 32 b1 0b 7f
        E 64 b1 0b 77
        E 32 b1 0b 6e
        E 32 b1 0b 66
        E 32 b1 0b 5d
        E 32 b1 0b 55
        E 32 b1 0b 4c
        E 32 b1 0b 44
        E 96 81 34 00
        E 0 91 33 44
        E 32 b1 0b 4c
        E 32 b1 0b 55
        E 32 b1 0b 5d
        E 32 b1 0b 66
        E 32 b1 0b 6e
        E 32 b1 0b 77
        E 32 b1 0b 7f
        E 64 b1 0b 44
        E 0 81 33 00
        E 0 91 34 44
        E 32 b1 0b 4c
        E 32 b1 0b 55
        E 32 b1 0b 5d
        E 32 b1 0b 66
        E 32 b1 0b 6e
        E 32 b1 0b 77
        E 32 b1 0b 7f
        E 64 b1 0b 77
        E 32 b1 0b 6e
        E 32 b1 0b 66
        E 32 b1 0b 5d
        E 32 b1 0b 55
        E 32 b1 0b 4c
        E 32 b1 0b 44
        E 96 81 34 00
        E 0 91 35 44
        E 32 b1 0b 4c
        E 32 b1 0b 55
        E 32 b1 0b 5d
        E 32 b1 0b 66
        E 32 b1 0b 6e
        E 32 b1 0b 77
        E 32 b1 0b 7f
        E 64 b1 0b 44
        E 0 81 35 00
        E 0 91 34 44
        E 32 b1 0b 4c
        E 32 b1 0b 55
        E 32 b1 0b 5d
        E 32 b1 0b 66
        E 32 b1 0b 6e
        E 32 b1 0b 77
        E 32 b1 0b 7f
        E 64 b1 0b 77
        E 32 b1 0b 6e
        E 32 b1 0b 66
        E 32 b1 0b 5d
        E 32 b1 0b 55
        E 32 b1 0b 4c
        E 32 b1 0b 44
        E 384 81 34 00
        E 0 91 30 44
        E 32 b1 0b 4c
        E 32 b1 0b 55
        E 32 b1 0b 5d
        E 32 b1 0b 66
        E 32 b1 0b 6e
        E 32 b1 0b 77
        E 32 b1 0b 7f
        E 64 b1 0b 77
        E 32 b1 0b 6e
        E 32 b1 0b 66
        E 32 b1 0b 5d
        E 32 b1 0b 55
        E 32 b1 0b 4c
        E 32 b1 0b 44
        E 96 81 30 00
        E 0 91 32 44
        E 32 b1 0b 4c
        E 32 b1 0b 55
        E 32 b1 0b 5d
        E 32 b1 0b 66
        E 32 b1 0b 6e
        E 32 b1 0b 77
        E 32 b1 0b 7f
        E 64 b1 0b 44
        E 0 81 32 00
        E 0 91 34 44
        E 32 b1 0b 4c
        E 32 b1 0b 55
        E 32 b1 0b 5d
        E 32 b1 0b 66
        E 32 b1 0b 6e
        E 32 b1 0b 77
        E 32 b1 0b 7f
        E 64 b1 0b 77
        E 32 b1 0b 6e
        E 32 b1 0b 66
        E 32 b1 0b 5d
        E 32 b1 0b 55
        E 32 b1 0b 4c
        E 32 b1 0b 44
        E 128 b1 0b 4c
        E 32 b1 0b 55
        E 32 b1 0b 5d
        E 32 b1 0b 66
        E 32 b1 0b 6e
        E 32 b1 0b 77
        E 32 b1 0b 7f
        E 64 b1 0b 44
        E 0 81 34 00
        E 0 91 35 44
        E 32 b1 0b 4c
        E 32 b1 0b 55
        E 32 b1 0b 5d
        E 32 b1 0b 66
        E 32 b1 0b 6e
        E 32 b1 0b 77
        E 32 b1 0b 7f
        E 64 b1 0b 77
        E 32 b1 0b 6e
        E 32 b1 0b 66
        E 32 b1 0b 5d
        E 32 b1 0b 55
        E 32 b1 0b 4c
        E 32 b1 0b 44
        E 128 b1 0b 4c
        E 32 b1 0b 55
        E 32 b1 0b 5d
        E 32 b1 0b 66
        E 32 b1 0b 6e
        E 32 b1 0b 77
        E 32 b1 0b 7f
        E 64 b1 0b 44
        E 0 81 35 00
        E 0 91 34 44
        E 32 b1 0b 4c
        E 32 b1 0b 55
        E 32 b1 0b 5d
        E 32 b1 0b 66
        E 32 b1 0b 6e
        E 32 b1 0b 77
        E 32 b1 0b 7f
        E 64 b1 0b 77
        E 32 b1 0b 6e
        E 32 b1 0b 66
        E 32 b1 0b 5d
        E 32 b1 0b 55
        E 32 b1 0b 4c
        E 32 b1 0b 44
        E 128 b1 0b 4c
        E 32 b1 0b 55
        E 32 b1 0b 5d
        E 32 b1 0b 66
        E 32 b1 0b 6e
        E 32 b1 0b 77
        E 32 b1 0b 7f
        E 64 b1 0b 44
        E 0 81 34 00
        E 0 91 31 44
        E 32 b1 0b 4c
        E 32 b1 0b 55
        E 32 b1 0b 5d
        E 32 b1 0b 66
        E 32 b1 0b 6e
        E 32 b1 0b 77
        E 32 b1 0b 7f
        E 64 b1 0b 77
        E 32 b1 0b 6e
        E 32 b1 0b 66
        E 32 b1 0b 5d
        E 32 b1 0b 55
        E 32 b1 0b 4c
        E 32 b1 0b 44
        E 128 b1 0b 4c
        E 32 b1 0b 55
        E 32 b1 0b 5d
        E 32 b1 0b 66
        E 32 b1 0b 6e
        E 32 b1 0b 77
        E 32 b1 0b 7f
        E 64 b1 0b 44
        E 0 81 31 00
        E 0 91 32 44
        E 32 b1 0b 4c
        E 32 b1 0b 55
        E 32 b1 0b 5d
        E 32 b1 0b 66
        E 32 b1 0b 6e
        E 32 b1 0b 77
        E 32 b1 0b 7f
        E 64 b1 0b 77
        E 32 b1 0b 6e
        E 32 b1 0b 66
        E 32 b1 0b 5d
        E 32 b1 0b 55
        E 32 b1 0b 4c
        E 32 b1 0b 44
        E 2112 81 32 00
        E 0 91 30 44
        E 32 b1 0b 4c
        E 32 b1 0b 55
        E 32 b1 0b 5d
        E 32 b1 0b 66
        E 32 b1 0b 6e
        E 32 b1 0b 77
        E 32 b1 0b 7f
        E 64 b1 0b 77
        E 32 b1 0b 6e
        E 32 b1 0b 66
        E 32 b1 0b 5d
        E 32 b1 0b 55
        E 32 b1 0b 4c
        E 32 b1 0b 44
        E 96 81 30 00
        E 0 91 2f 44
        E 32 b1 0b 4c
        E 32 b1 0b 55
        E 32 b1 0b 5d
        E 32 b1 0b 66
        E 32 b1 0b 6e
        E 32 b1 0b 77
        E 32 b1 0b 7f
        E 64 b1 0b 44
        E 0 81 2f 00
        E 0 91 30 44
        E 32 b1 0b 4c
        E 32 b1 0b 55
        E 32 b1 0b 5d
        E 32 b1 0b 66
        E 32 b1 0b 6e
        E 32 b1 0b 77
        E 32 b1 0b 7f
        E 64 b1 0b 77
        E 32 b1 0b 6e
        E 32 b1 0b 66
        E 32 b1 0b 5d
        E 32 b1 0b 55
        E 32 b1 0b 4c
        E 32 b1 0b 44
        E 384 81 30 00
        E 0 91 2f 44
        E 32 b1 0b 4c
        E 32 b1 0b 55
        E 32 b1 0b 5d
        E 32 b1 0b 66
        E 32 b1 0b 6e
        E 32 b1 0b 77
        E 32 b1 0b 7f
        E 64 b1 0b 44
        E 0 81 2f 00
        E 0 91 30 44
        E 32 b1 0b 4c
        E 32 b1 0b 55
        E 32 b1 0b 5d
        E 32 b1 0b 66
        E 32 b1 0b 6e
        E 32 b1 0b 77
        E 32 b1 0b 7f
        E 64 b1 0b 44
        E 0 81 30 00
        E 0 91 2f 44
        E 32 b1 0b 4c
        E 32 b1 0b 55
        E 32 b1 0b 5d
        E 32 b1 0b 66
        E 32 b1 0b 6e
        E 32 b1 0b 77
        E 32 b1 0b 7f
        E 64 b1 0b 44
        E 0 81 2f 00
        E 0 91 2e 44
        E 32 b1 0b 4c
        E 32 b1 0b 55
        E 32 b1 0b 5d
        E 32 b1 0b 66
        E 32 b1 0b 6e
        E 32 b1 0b 77
        E 32 b1 0b 7f
        E 64 b1 0b 77
        E 32 b1 0b 6e
        E 32 b1 0b 66
        E 32 b1 0b 5d
        E 32 b1 0b 55
        E 32 b1 0b 4c
        E 32 b1 0b 44
        E 384 81 2e 00
        E 0 91 31 44
        E 32 b1 0b 4c
        E 32 b1 0b 55
        E 32 b1 0b 5d
        E 32 b1 0b 66
        E 32 b1 0b 6e
        E 32 b1 0b 77
        E 32 b1 0b 7f
        E 64 b1 0b 77
        E 32 b1 0b 6e
        E 32 b1 0b 66
        E 32 b1 0b 5d
        E 32 b1 0b 55
        E 32 b1 0b 4c
        E 32 b1 0b 44
        E 128 b1 0b 4c
        E 32 b1 0b 55
        E 32 b1 0b 5d
        E 32 b1 0b 66
        E 32 b1 0b 6e
        E 32 b1 0b 77
        E 32 b1 0b 7f
        E 64 b1 0b 44
        E 0 81 31 00
        E 0 91 30 44
        E 32 b1 0b 4c
        E 32 b1 0b 55
        E 32 b1 0b 5d
        E 32 b1 0b 66
        E 32 b1 0b 6e
        E 32 b1 0b 77
        E 32 b1 0b 7f
        E 64 b1 0b 77
        E 32 b1 0b 6e
        E 32 b1 0b 66
        E 32 b1 0b 5d
        E 32 b1 0b 55
        E 32 b1 0b 4c
        E 32 b1 0b 44
        E 384 81 30 00
        E 0 91 33 44
        E 32 b1 0b 4c
        E 32 b1 0b 55
        E 32 b1 0b 5d
        E 32 b1 0b 66
        E 32 b1 0b 6e
        E 32 b1 0b 77
        E 32 b1 0b 7f
        E 64 b1 0b 77
        E 32 b1 0b 6e
        E 32 b1 0b 66
        E 32 b1 0b 5d
        E 32 b1 0b 55
        E 32 b1 0b 4c
        E 32 b1 0b 44
        E 384 81 33 00
        E 0 91 34 44
        E 32 b1 0b 4c
        E 32 b1 0b 55
        E 32 b1 0b 5d
        E 32 b1 0b 66
        E 32 b1 0b 6e
        E 32 b1 0b 77
        E 32 b1 0b 7f
        E 64 b1 0b 77
        E 32 b1 0b 6e
        E 32 b1 0b 66
        E 32 b1 0b 5d
        E 32 b1 0b 55
        E 32 b1 0b 4c
        E 32 b1 0b 44
        E 384 81 34 00
        E 0 91 32 44
        E 32 b1 0b 4c
        E 32 b1 0b 55
        E 32 b1 0b 5d
        E 32 b1 0b 66
        E 32 b1 0b 6e
        E 32 b1 0b 77
        E 32 b1 0b 7f
        E 64 b1 0b 77
        E 32 b1 0b 6e
        E 32 b1 0b 66
        E 32 b1 0b 5d
        E 32 b1 0b 55
        E 32 b1 0b 4c
        E 32 b1 0b 44
        E 384 81 32 00
        E 0 91 35 44
        E 32 b1 0b 4c
        E 32 b1 0b 55
        E 32 b1 0b 5d
        E 32 b1 0b 66
        E 32 b1 0b 6e
        E 32 b1 0b 77
        E 32 b1 0b 7f
        E 64 b1 0b 77
        E 32 b1 0b 6e
        E 32 b1 0b 66
        E 32 b1 0b 5d
        E 32 b1 0b 55
        E 32 b1 0b 4c
        E 32 b1 0b 44
        E 128 b1 0b 4c
        E 32 b1 0b 55
        E 32 b1 0b 5d
        E 32 b1 0b 66
        E 32 b1 0b 6e
        E 32 b1 0b 77
        E 32 b1 0b 7f
        E 64 b1 0b 44
        E 0 81 35 00
        E 0 91 38 44
        E 32 b1 0b 4c
        E 32 b1 0b 55
        E 32 b1 0b 5d
        E 32 b1 0b 66
        E 32 b1 0b 6e
        E 32 b1 0b 77
        E 32 b1 0b 7f
        E 64 b1 0b 44
        E 0 81 38 00
        E 0 91 37 44
        E 32 b1 0b 4c
        E 32 b1 0b 55
        E 32 b1 0b 5d
        E 32 b1 0b 66
        E 32 b1 0b 6e
        E 32 b1 0b 77
        E 32 b1 0b 7f
        E 64 b1 0b 44
        E 0 81 37 00
        E 0 91 35 44
        E 32 b1 0b 4c
        E 32 b1 0b 55
        E 32 b1 0b 5d
        E 32 b1 0b 66
        E 32 b1 0b 6e
        E 32 b1 0b 77
        E 32 b1 0b 7f
        E 64 b1 0b 44
        E 0 81 35 00
        E 0 91 34 44
        E 16 b1 0b 3b
        E 16 b1 0b 33
        E 16 b1 0b 2a
        E 16 b1 0b 22
        E 16 b1 0b 19
        E 16 b1 0b 11
        E 16 b1 0b 08
        E 16 81 34 00
        E 160 b1 0b 44
        E 0 91 35 44
        E 16 b1 0b 3b
        E 16 b1 0b 33
        E 16 b1 0b 2a
        E 16 b1 0b 22
        E 16 b1 0b 19
        E 16 b1 0b 11
        E 16 b1 0b 08
        E 16 81 35 00
        E 160 b1 0b 44
        E 0 91 37 44
        E 16 b1 0b 3b
        E 16 b1 0b 33
        E 16 b1 0b 2a
        E 16 b1 0b 22
        E 16 b1 0b 19
        E 16 b1 0b 11
        E 16 b1 0b 08
        E 16 81 37 00
        E 160 b1 0b 44
        E 0 91 3b 44
        E 16 b1 0b 3b
        E 16 b1 0b 33
        E 16 b1 0b 2a
        E 16 b1 0b 22
        E 16 b1 0b 19
        E 16 b1 0b 11
        E 16 b1 0b 08
        E 16 81 3b 00
        E 736 b1 0b 44
        E 0 91 32 44
        E 32 b1 0b 4c
        E 32 b1 0b 55
        E 32 b1 0b 5d
        E 32 b1 0b 66
        E 32 b1 0b 6e
        E 32 b1 0b 77
        E 32 b1 0b 7f
        E 64 b1 0b 77
        E 32 b1 0b 6e
        E 32 b1 0b 66
        E 32 b1 0b 5d
        E 32 b1 0b 55
        E 32 b1 0b 4c
        E 32 b1 0b 44
        E 384 81 32 00
        E 0 91 30 44
        E 32 b1 0b 4c
        E 32 b1 0b 55
        E 32 b1 0b 5d
        E 32 b1 0b 66
        E 32 b1 0b 6e
        E 32 b1 0b 77
        E 32 b1 0b 7f
        E 64 b1 0b 77
        E 32 b1 0b 6e
        E 32 b1 0b 66
        E 32 b1 0b 5d
        E 32 b1 0b 55
        E 32 b1 0b 4c
        E 32 b1 0b 44
        E 384 81 30 00
        E 0 91 2f 44
        E 32 b1 0b 4c
        E 32 b1 0b 55
        E 32 b1 0b 5d
        E 32 b1 0b 66
        E 32 b1 0b 6e
        E 32 b1 0b 77
        E 32 b1 0b 7f
        E 64 b1 0b 77
        E 32 b1 0b 6e
        E 32 b1 0b 66
        E 32 b1 0b 5d
        E 32 b1 0b 55
        E 32 b1 0b 4c
        E 32 b1 0b 44
        E 384 81 2f 00
        E 0 91 2b 44
        E 32 b1 0b 4c
        E 32 b1 0b 55
        E 32 b1 0b 5d
        E 32 b1 0b 66
        E 32 b1 0b 6e
        E 32 b1 0b 77
        E 32 b1 0b 7f
        E 64 b1 0b 77
        E 32 b1 0b 6e
        E 32 b1 0b 66
        E 32 b1 0b 5d
        E 32 b1 0b 55
        E 32 b1 0b 4c
        E 32 b1 0b 44
        E 384 81 2b 00
        E 0 91 34 44
        E 32 b1 0b 4c
        E 32 b1 0b 55
        E 32 b1 0b 5d
        E 32 b1 0b 66
        E 32 b1 0b 6e
        E 32 b1 0b 77
        E 32 b1 0b 7f
        E 64 b1 0b 77
        E 32 b1 0b 6e
        E 32 b1 0b 66
        E 32 b1 0b 5d
        E 32 b1 0b 55
        E 32 b1 0b 4c
        E 32 b1 0b 44
        E 96 81 34 00
        E 0 91 33 44
        E 32 b1 0b 4c
        E 32 b1 0b 55
        E 32 b1 0b 5d
        E 32 b1 0b 66
        E 32 b1 0b 6e
        E 32 b1 0b 77
        E 32 b1 0b 7f
        E 64 b1 0b 44
        E 0 81 33 00
        E 0 91 34 44
        E 32 b1 0b 4c
        E 32 b1 0b 55
        E 32 b1 0b 5d
        E 32 b1 0b 66
        E 32 b1 0b 6e
        E 32 b1 0b 77
        E 32 b1 0b 7f
        E 64 b1 0b 77
        E 32 b1 0b 6e
        E 32 b1 0b 66
        E 32 b1 0b 5d
        E 32 b1 0b 55
        E 32 b1 0b 4c
        E 32 b1 0b 44
        E 96 81 34 00
        E 0 91 35 44
        E 32 b1 0b 4c
        E 32 b1 0b 55
        E 32 b1 0b 5d
        E 32 b1 0b 66
        E 32 b1 0b 6e
        E 32 b1 0b 77
        E 32 b1 0b 7f
        E 64 b1 0b 44
        E 0 81 35 00
        E 0 91 34 44
        E 32 b1 0b 4c
        E 32 b1 0b 55
        E 32 b1 0b 5d
        E 32 b1 0b 66
        E 32 b1 0b 6e
        E 32 b1 0b 77
        E 32 b1 0b 7f
        E 64 b1 0b 77
        E 32 b1 0b 6e
        E 32 b1 0b 66
        E 32 b1 0b 5d
        E 32 b1 0b 55
        E 32 b1 0b 4c
        E 32 b1 0b 44
        E 384 81 34 00
        E 0 91 30 44
        E 32 b1 0b 4c
        E 32 b1 0b 55
        E 32 b1 0b 5d
        E 32 b1 0b 66
        E 32 b1 0b 6e
        E 32 b1 0b 77
        E 32 b1 0b 7f
        E 64 b1 0b 77
        E 32 b1 0b 6e
        E 32 b1 0b 66
        E 32 b1 0b 5d
        E 32 b1 0b 55
        E 32 b1 0b 4c
        E 32 b1 0b 44
        E 96 81 30 00
        E 0 91 32 44
        E 32 b1 0b 4c
        E 32 b1 0b 55
        E 32 b1 0b 5d
        E 32 b1 0b 66
        E 32 b1 0b 6e
        E 32 b1 0b 77
        E 32 b1 0b 7f
        E 64 b1 0b 44
        E 0 81 32 00
        E 0 91 34 44
        E 32 b1 0b 4c
        E 32 b1 0b 55
        E 32 b1 0b 5d
        E 32 b1 0b 66
        E 32 b1 0b 6e
        E 32 b1 0b 77
        E 32 b1 0b 7f
        E 64 b1 0b 77
        E 32 b1 0b 6e
        E 32 b1 0b 66
        E 32 b1 0b 5d
        E 32 b1 0b 55
        E 32 b1 0b 4c
        E 32 b1 0b 44
        E 128 b1 0b 4c
        E 32 b1 0b 55
        E 32 b1 0b 5d
        E 32 b1 0b 66
        E 32 b1 0b 6e
        E 32 b1 0b 77
        E 32 b1 0b 7f
        E 64 b1 0b 44
        E 0 81 34 00
        E 0 91 35 44
        E 32 b1 0b 4c
        E 32 b1 0b 55
        E 32 b1 0b 5d
        E 32 b1 0b 66
        E 32 b1 0b 6e
        E 32 b1 0b 77
        E 32 b1 0b 7f
        E 64 b1 0b 77
        E 32 b1 0b 6e
        E 32 b1 0b 66
        E 32 b1 0b 5d
        E 32 b1 0b 55
        E 32 b1 0b 4c
        E 32 b1 0b 44
        E 128 b1 0b 4c
        E 32 b1 0b 55
        E 32 b1 0b 5d
        E 32 b1 0b 66
        E 32 b1 0b 6e
        E 32 b1 0b 77
        E 32 b1 0b 7f
        E 64 b1 0b 44
        E 0 81 35 00
        E 0 91 34 44
        E 32 b1 0b 4c
        E 32 b1 0b 55
        E 32 b1 0b 5d
        E 32 b1 0b 66
        E 32 b1 0b 6e
        E 32 b1 0b 77
        E 32 b1 0b 7f
        E 64 b1 0b 77
        E 32 b1 0b 6e
        E 32 b1 0b 66
        E 32 b1 0b 5d
        E 32 b1 0b 55
        E 32 b1 0b 4c
        E 32 b1 0b 44
        E 128 b1 0b 4c
        E 32 b1 0b 55
        E 32 b1 0b 5d
        E 32 b1 0b 66
        E 32 b1 0b 6e
        E 32 b1 0b 77
        E 32 b1 0b 7f
        E 64 b1 0b 44
        E 0 81 34 00
        E 0 91 31 44
        E 32 b1 0b 4c
        E 32 b1 0b 55
        E 32 b1 0b 5d
        E 32 b1 0b 66
        E 32 b1 0b 6e
        E 32 b1 0b 77
        E 32 b1 0b 7f
        E 64 b1 0b 77
        E 32 b1 0b 6e
        E 32 b1 0b 66
        E 32 b1 0b 5d
        E 32 b1 0b 55
        E 32 b1 0b 4c
        E 32 b1 0b 44
        E 128 b1 0b 4c
        E 32 b1 0b 55
        E 32 b1 0b 5d
        E 32 b1 0b 66
        E 32 b1 0b 6e
        E 32 b1 0b 77
        E 32 b1 0b 7f
        E 64 b1 0b 44
        E 0 81 31 00
        E 0 91 32 44
        E 32 b1 0b 4c
        E 32 b1 0b 55
        E 32 b1 0b 5d
        E 32 b1 0b 66
        E 32 b1 0b 6e
        E 32 b1 0b 77
        E 32 b1 0b 7f
        E 64 b1 0b 77
        E 32 b1 0b 6e
        E 32 b1 0b 66
        E 32 b1 0b 5d
        E 32 b1 0b 55
        E 32 b1 0b 4c
        E 32 b1 0b 44
        E 2112 81 32 00
        E 0 91 30 44
        E 32 b1 0b 4c
        E 32 b1 0b 55
        E 32 b1 0b 5d
        E 32 b1 0b 66
        E 32 b1 0b 6e
        E 32 b1 0b 77
        E 32 b1 0b 7f
        E 64 b1 0b 77
        E 32 b1 0b 6e
        E 32 b1 0b 66
        E 32 b1 0b 5d
        E 32 b1 0b 55
        E 32 b1 0b 4c
        E 32 b1 0b 44
        E 96 81 30 00
        E 0 91 2f 44
        E 32 b1 0b 4c
        E 32 b1 0b 55
        E 32 b1 0b 5d
        E 32 b1 0b 66
        E 32 b1 0b 6e
        E 32 b1 0b 77
        E 32 b1 0b 7f
        E 64 b1 0b 44
        E 0 81 2f 00
        E 0 91 30 44
        E 32 b1 0b 4c
        E 32 b1 0b 55
        E 32 b1 0b 5d
        E 32 b1 0b 66
        E 32 b1 0b 6e
        E 32 b1 0b 77
        E 32 b1 0b 7f
        E 64 b1 0b 77
        E 32 b1 0b 6e
        E 32 b1 0b 66
        E 32 b1 0b 5d
        E 32 b1 0b 55
        E 32 b1 0b 4c
        E 32 b1 0b 44
        E 384 81 30 00
        E 0 91 2f 44
        E 32 b1 0b 4c
        E 32 b1 0b 55
        E 32 b1 0b 5d
        E 32 b1 0b 66
        E 32 b1 0b 6e
        E 32 b1 0b 77
        E 32 b1 0b 7f
        E 64 b1 0b 44
        E 0 81 2f 00
        E 0 91 30 44
        E 32 b1 0b 4c
        E 32 b1 0b 55
        E 32 b1 0b 5d
        E 32 b1 0b 66
        E 32 b1 0b 6e
        E 32 b1 0b 77
        E 32 b1 0b 7f
        E 64 b1 0b 44
        E 0 81 30 00
        E 0 91 2f 44
        E 32 b1 0b 4c
        E 32 b1 0b 55
        E 32 b1 0b 5d
        E 32 b1 0b 66
        E 32 b1 0b 6e
        E 32 b1 0b 77
        E 32 b1 0b 7f
        E 64 b1 0b 44
        E 0 81 2f 00
        E 0 91 2e 44
        E 32 b1 0b 4c
        E 32 b1 0b 55
        E 32 b1 0b 5d
        E 32 b1 0b 66
        E 32 b1 0b 6e
        E 32 b1 0b 77
        E 32 b1 0b 7f
        E 64 b1 0b 77
        E 32 b1 0b 6e
        E 32 b1 0b 66
        E 32 b1 0b 5d
        E 32 b1 0b 55
        E 32 b1 0b 4c
        E 32 b1 0b 44
        E 384 81 2e 00
        E 0 91 31 44
        E 32 b1 0b 4c
        E 32 b1 0b 55
        E 32 b1 0b 5d
        E 32 b1 0b 66
        E 32 b1 0b 6e
        E 32 b1 0b 77
        E 32 b1 0b 7f
        E 64 b1 0b 77
        E 32 b1 0b 6e
        E 32 b1 0b 66
        E 32 b1 0b 5d
        E 32 b1 0b 55
        E 32 b1 0b 4c
        E 32 b1 0b 44
        E 128 b1 0b 4c
        E 32 b1 0b 55
        E 32 b1 0b 5d
        E 32 b1 0b 66
        E 32 b1 0b 6e
        E 32 b1 0b 77
        E 32 b1 0b 7f
        E 64 b1 0b 44
        E 0 81 31 00
        E 0 91 30 44
        E 32 b1 0b 4c
        E 32 b1 0b 55
        E 32 b1 0b 5d
        E 32 b1 0b 66
        E 32 b1 0b 6e
        E 32 b1 0b 77
        E 32 b1 0b 7f
        E 64 b1 0b 77
        E 32 b1 0b 6e
        E 32 b1 0b 66
        E 32 b1 0b 5d
        E 32 b1 0b 55
        E 32 b1 0b 4c
        E 32 b1 0b 44
        E 384 81 30 00
        E 0 91 33 44
        E 32 b1 0b 4c
        E 32 b1 0b 55
        E 32 b1 0b 5d
        E 32 b1 0b 66
        E 32 b1 0b 6e
        E 32 b1 0b 77
        E 32 b1 0b 7f
        E 64 b1 0b 77
        E 32 b1 0b 6e
        E 32 b1 0b 66
        E 32 b1 0b 5d
        E 32 b1 0b 55
        E 32 b1 0b 4c
        E 32 b1 0b 44
        E 384 81 33 00
        E 0 91 34 44
        E 32 b1 0b 4c
        E 32 b1 0b 55
        E 32 b1 0b 5d
        E 32 b1 0b 66
        E 32 b1 0b 6e
        E 32 b1 0b 77
        E 32 b1 0b 7f
        E 64 b1 0b 77
        E 32 b1 0b 6e
        E 32 b1 0b 66
        E 32 b1 0b 5d
        E 32 b1 0b 55
        E 32 b1 0b 4c
        E 32 b1 0b 44
        E 384 81 34 00
        E 0 91 32 44
        E 32 b1 0b 4c
        E 32 b1 0b 55
        E 32 b1 0b 5d
        E 32 b1 0b 66
        E 32 b1 0b 6e
        E 32 b1 0b 77
        E 32 b1 0b 7f
        E 64 b1 0b 77
        E 32 b1 0b 6e
        E 32 b1 0b 66
        E 32 b1 0b 5d
        E 32 b1 0b 55
        E 32 b1 0b 4c
        E 32 b1 0b 44
        E 384 81 32 00
        E 0 91 35 44
        E 32 b1 0b 4c
        E 32 b1 0b 55
        E 32 b1 0b 5d
        E 32 b1 0b 66
        E 32 b1 0b 6e
        E 32 b1 0b 77
        E 32 b1 0b 7f
        E 64 b1 0b 77
        E 32 b1 0b 6e
        E 32 b1 0b 66
        E 32 b1 0b 5d
        E 32 b1 0b 55
        E 32 b1 0b 4c
        E 32 b1 0b 44
        E 128 b1 0b 4c
        E 32 b1 0b 55
        E 32 b1 0b 5d
        E 32 b1 0b 66
        E 32 b1 0b 6e
        E 32 b1 0b 77
        E 32 b1 0b 7f
        E 64 b1 0b 44
        E 0 81 35 00
        E 0 91 38 44
        E 32 b1 0b 4c
        E 32 b1 0b 55
        E 32 b1 0b 5d
        E 32 b1 0b 66
        E 32 b1 0b 6e
        E 32 b1 0b 77
        E 32 b1 0b 7f
        E 64 b1 0b 44
        E 0 81 38 00
        E 0 91 37 44
        E 32 b1 0b 4c
        E 32 b1 0b 55
        E 32 b1 0b 5d
        E 32 b1 0b 66
        E 32 b1 0b 6e
        E 32 b1 0b 77
        E 32 b1 0b 7f
        E 64 b1 0b 44
        E 0 81 37 00
        E 0 91 35 44
        E 32 b1 0b 4c
        E 32 b1 0b 55
        E 32 b1 0b 5d
        E 32 b1 0b 66
        E 32 b1 0b 6e
        E 32 b1 0b 77
        E 32 b1 0b 7f
        E 64 b1 0b 44
        E 0 81 35 00
        E 0 91 34 44
        E 16 b1 0b 3b
        E 16 b1 0b 33
        E 16 b1 0b 2a
        E 16 b1 0b 22
        E 16 b1 0b 19
        E 16 b1 0b 11
        E 16 b1 0b 08
        E 16 81 34 00
        E 160 b1 0b 44
        E 0 91 35 44
        E 16 b1 0b 3b
        E 16 b1 0b 33
        E 16 b1 0b 2a
        E 16 b1 0b 22
        E 16 b1 0b 19
        E 16 b1 0b 11
        E 16 b1 0b 08
        E 16 81 35 00
        E 160 b1 0b 44
        E 0 91 37 44
        E 16 b1 0b 3b
        E 16 b1 0b 33
        E 16 b1 0b 2a
        E 16 b1 0b 22
        E 16 b1 0b 19
        E 16 b1 0b 11
        E 16 b1 0b 08
        E 16 81 37 00
        E 160 b1 0b 44
        E 0 91 3b 44
        E 16 b1 0b 3b
        E 16 b1 0b 33
        E 16 b1 0b 2a
        E 16 b1 0b 22
        E 16 b1 0b 19
        E 16 b1 0b 11
        E 16 b1 0b 08
        E 16 81 3b 00
        E 736 b1 0b 44
        E 0 91 32 44
        E 32 b1 0b 4c
        E 32 b1 0b 55
        E 32 b1 0b 5d
        E 32 b1 0b 66
        E 32 b1 0b 6e
        E 32 b1 0b 77
        E 32 b1 0b 7f
        E 64 b1 0b 77
        E 32 b1 0b 6e
        E 32 b1 0b 66
        E 32 b1 0b 5d
        E 32 b1 0b 55
        E 32 b1 0b 4c
        E 32 b1 0b 44
        E 384 81 32 00
        E 0 91 30 44
        E 32 b1 0b 4c
        E 32 b1 0b 55
        E 32 b1 0b 5d
        E 32 b1 0b 66
        E 32 b1 0b 6e
        E 32 b1 0b 77
        E 32 b1 0b 7f
        E 64 b1 0b 77
        E 32 b1 0b 6e
        E 32 b1 0b 66
        E 32 b1 0b 5d
        E 32 b1 0b 55
        E 32 b1 0b 4c
        E 32 b1 0b 44
        E 384 81 30 00
        E 0 91 2f 44
        E 32 b1 0b 4c
        E 32 b1 0b 55
        E 32 b1 0b 5d
        E 32 b1 0b 66
        E 32 b1 0b 6e
        E 32 b1 0b 77
        E 32 b1 0b 7f
        E 64 b1 0b 77
        E 32 b1 0b 6e
        E 32 b1 0b 66
        E 32 b1 0b 5d
        E 32 b1 0b 55
        E 32 b1 0b 4c
        E 32 b1 0b 44
        E 384 81 2f 00
        E 0 91 2b 44
        E 32 b1 0b 4c
        E 32 b1 0b 55
        E 32 b1 0b 5d
        E 32 b1 0b 66
        E 32 b1 0b 6e
        E 32 b1 0b 77
        E 32 b1 0b 7f
        E 64 b1 0b 77
        E 32 b1 0b 6e
        E 32 b1 0b 66
        E 32 b1 0b 5d
        E 32 b1 0b 55
        E 32 b1 0b 4c
        E 32 b1 0b 44
        E 384 81 2b 00
        E 0 91 34 44
        E 32 b1 0b 4c
        E 32 b1 0b 55
        E 32 b1 0b 5d
        E 32 b1 0b 66
        E 32 b1 0b 6e
        E 32 b1 0b 77
        E 32 b1 0b 7f
        E 64 b1 0b 77
        E 32 b1 0b 6e
        E 32 b1 0b 66
        E 32 b1 0b 5d
        E 32 b1 0b 55
        E 32 b1 0b 4c
        E 32 b1 0b 44
        E 96 81 34 00
        E 0 91 33 44
        E 32 b1 0b 4c
        E 32 b1 0b 55
        E 32 b1 0b 5d
        E 32 b1 0b 66
        E 32 b1 0b 6e
        E 32 b1 0b 77
        E 32 b1 0b 7f
        E 64 b1 0b 44
        E 0 81 33 00
        E 0 91 34 44
        E 32 b1 0b 4c
        E 32 b1 0b 55
        E 32 b1 0b 5d
        E 32 b1 0b 66
        E 32 b1 0b 6e
        E 32 b1 0b 77
        E 32 b1 0b 7f
        E 64 b1 0b 77
        E 32 b1 0b 6e
        E 32 b1 0b 66
        E 32 b1 0b 5d
        E 32 b1 0b 55
        E 32 b1 0b 4c
        E 32 b1 0b 44
        E 96 81 34 00
        E 0 91 35 44
        E 32 b1 0b 4c
        E 32 b1 0b 55
        E 32 b1 0b 5d
        E 32 b1 0b 66
        E 32 b1 0b 6e
        E 32 b1 0b 77
        E 32 b1 0b 7f
        E 64 b1 0b 44
        E 0 81 35 00
        E 0 91 34 44
        E 32 b1 0b 4c
        E 32 b1 0b 55
        E 32 b1 0b 5d
        E 32 b1 0b 66
        E 32 b1 0b 6e
        E 32 b1 0b 77
        E 32 b1 0b 7f
        E 64 b1 0b 77
        E 32 b1 0b 6e
        E 32 b1 0b 66
        E 32 b1 0b 5d
        E 32 b1 0b 55
        E 32 b1 0b 4c
        E 32 b1 0b 44
        E 384 81 34 00
        E 0 91 30 44
        E 32 b1 0b 4c
        E 32 b1 0b 55
        E 32 b1 0b 5d
        E 32 b1 0b 66
        E 32 b1 0b 6e
        E 32 b1 0b 77
        E 32 b1 0b 7f
        E 64 b1 0b 77
        E 32 b1 0b 6e
        E 32 b1 0b 66
        E 32 b1 0b 5d
        E 32 b1 0b 55
        E 32 b1 0b 4c
        E 32 b1 0b 44
        E 96 81 30 00
        E 0 91 32 44
        E 32 b1 0b 4c
        E 32 b1 0b 55
        E 32 b1 0b 5d
        E 32 b1 0b 66
        E 32 b1 0b 6e
        E 32 b1 0b 77
        E 32 b1 0b 7f
        E 64 b1 0b 44
        E 0 81 32 00
        E 0 91 34 44
        E 32 b1 0b 4c
        E 32 b1 0b 55
        E 32 b1 0b 5d
        E 32 b1 0b 66
        E 32 b1 0b 6e
        E 32 b1 0b 77
        E 32 b1 0b 7f
        E 64 b1 0b 77
        E 32 b1 0b 6e
        E 32 b1 0b 66
        E 32 b1 0b 5d
        E 32 b1 0b 55
        E 32 b1 0b 4c
        E 32 b1 0b 44
        E 128 b1 0b 4c
        E 32 81 34 00
        E 0 b1 7b 00
        E 0 ff 2f 00
      >
    >
  >
  <TRACK {37603EA8-B898-4843-8DC7-F6795EF8588D}
    NAME "NES - Triangle [ch2]"
    PEAKCOL 16744192
    BEAT -1
    AUTOMODE 0
    PANLAWFLAGS 3
    VOLPAN 1 0 -1 -1 1
    MUTESOLO 0 0 0
    IPHASE 0
    PLAYOFFS 0 1
    ISBUS 0 0
    BUSCOMP 0 0 0 0 0
    SHOWINMIX 1 0.6667 0.5 1 0.5 0 0 0
    FIXEDLANES 9 0 0 0 0
    SEL 0
    REC 0 5088 1 0 0 0 0 0
    VU 2
    TRACKHEIGHT 0 0 0 0 0 0 0
    INQ 0 0 0 0.5 100 0 0 100
    NCHAN 2
    FX 1
    TRACKID {37603EA8-B898-4843-8DC7-F6795EF8588D}
    PERF 0
    MIDIOUT -1
    MAINSEND 1 0
    <FXCHAIN
      WNDRECT 24 52 700 560
      SHOW 0
      LASTSEL 0
      DOCKED 0
      BYPASS 0 0 0
      <JS "ReapNES Studio/ReapNES_Console.jsfx" ""
        2 15 1 10 80 10 100 2 1 15 1 5 60 10 80 1 1 0 50 0 0 15 1 0 100 0 0 0.500000 0.500000 0.400000 0.300000 0.800000 2 1 0 0 0 0 - - - - - - - - - - - - - - - - - - - - - - - - - -
      >
      FLOATPOS 0 0 0 0
      FXID {4143B3B4-8FDA-48A5-9B56-56C9519B2770}
      WAK 0 0
    >
    <ITEM
      POSITION 0
      LENGTH 74.5878716
      LOOP 0
      ALLTAKES 0
      FADEIN 0 0 0 0 0 0 0
      FADEOUT 0 0 0 0 0 0 0
      MUTE 0 0
      SEL 0
      IGUID {4017DA07-DA8A-4B49-8E70-CBDD25C12252}
      <SOURCE MIDI
        HASDATA 1 480 QN
        CCINTERP 32
        E 0 c2 26
        E 64 b2 0b 7f
        E 0 92 24 7f
        E 288 82 24 00
        E 0 b2 0b 7f
        E 0 92 2b 7f
        E 144 82 2b 00
        E 144 b2 0b 7f
        E 0 92 2b 7f
        E 144 82 2b 00
        E 144 b2 0b 7f
        E 0 92 24 7f
        E 288 82 24 00
        E 0 b2 0b 7f
        E 0 92 2b 7f
        E 144 82 2b 00
        E 144 b2 0b 7f
        E 0 92 2b 7f
        E 144 82 2b 00
        E 144 b2 0b 7f
        E 0 92 24 7f
        E 288 82 24 00
        E 0 b2 0b 7f
        E 0 92 2b 7f
        E 144 82 2b 00
        E 144 b2 0b 7f
        E 0 92 2b 7f
        E 144 82 2b 00
        E 144 b2 0b 7f
        E 0 92 24 7f
        E 288 82 24 00
        E 0 b2 0b 7f
        E 0 92 2b 7f
        E 144 82 2b 00
        E 144 b2 0b 7f
        E 0 92 2b 7f
        E 144 82 2b 00
        E 144 b2 0b 7f
        E 0 92 24 7f
        E 288 82 24 00
        E 0 b2 0b 7f
        E 0 92 2b 7f
        E 144 82 2b 00
        E 144 b2 0b 7f
        E 0 92 2b 7f
        E 144 82 2b 00
        E 144 b2 0b 7f
        E 0 92 24 7f
        E 288 82 24 00
        E 0 b2 0b 7f
        E 0 92 2d 7f
        E 144 82 2d 00
        E 144 b2 0b 7f
        E 0 92 2d 7f
        E 144 82 2d 00
        E 144 b2 0b 7f
        E 0 92 24 7f
        E 288 82 24 00
        E 0 b2 0b 7f
        E 0 92 2b 7f
        E 144 82 2b 00
        E 144 b2 0b 7f
        E 0 92 2b 7f
        E 144 82 2b 00
        E 144 b2 0b 7f
        E 0 92 21 7f
        E 288 82 21 00
        E 0 b2 0b 7f
        E 0 92 28 7f
        E 144 82 28 00
        E 144 b2 0b 7f
        E 0 92 28 7f
        E 144 82 28 00
        E 144 b2 0b 7f
        E 0 92 26 7f
        E 288 82 26 00
        E 0 b2 0b 7f
        E 0 92 2d 7f
        E 144 82 2d 00
        E 144 b2 0b 7f
        E 0 92 2d 7f
        E 144 82 2d 00
        E 144 b2 0b 7f
        E 0 92 26 7f
        E 288 82 26 00
        E 0 b2 0b 7f
        E 0 92 2e 7f
        E 144 82 2e 00
        E 144 b2 0b 7f
        E 0 92 2e 7f
        E 144 82 2e 00
        E 144 b2 0b 7f
        E 0 92 26 7f
        E 288 82 26 00
        E 0 b2 0b 7f
        E 0 92 2f 7f
        E 144 82 2f 00
        E 144 b2 0b 7f
        E 0 92 2f 7f
        E 144 82 2f 00
        E 144 b2 0b 7f
        E 0 92 1f 7f
        E 288 82 1f 00
        E 0 b2 0b 7f
        E 0 92 2b 7f
        E 144 82 2b 00
        E 144 b2 0b 7f
        E 0 92 2b 7f
        E 144 82 2b 00
        E 144 b2 0b 7f
        E 0 92 24 7f
        E 288 82 24 00
        E 0 b2 0b 7f
        E 0 92 2b 7f
        E 144 82 2b 00
        E 144 b2 0b 7f
        E 0 92 2b 7f
        E 144 82 2b 00
        E 144 b2 0b 7f
        E 0 92 23 7f
        E 288 82 23 00
        E 0 b2 0b 7f
        E 0 92 2b 7f
        E 144 82 2b 00
        E 144 b2 0b 7f
        E 0 92 2b 7f
        E 144 82 2b 00
        E 144 b2 0b 7f
        E 0 92 22 7f
        E 288 82 22 00
        E 0 b2 0b 7f
        E 0 92 28 7f
        E 144 82 28 00
        E 144 b2 0b 7f
        E 0 92 28 7f
        E 144 82 28 00
        E 144 b2 0b 7f
        E 0 92 21 7f
        E 288 82 21 00
        E 0 b2 0b 7f
        E 0 92 28 7f
        E 144 82 28 00
        E 144 b2 0b 7f
        E 0 92 28 7f
        E 144 82 28 00
        E 144 b2 0b 7f
        E 0 92 26 7f
        E 288 82 26 00
        E 0 b2 0b 7f
        E 0 92 2d 7f
        E 144 82 2d 00
        E 144 b2 0b 7f
        E 0 92 2d 7f
        E 144 82 2d 00
        E 144 b2 0b 7f
        E 0 92 27 7f
        E 288 82 27 00
        E 0 b2 0b 7f
        E 0 92 2d 7f
        E 144 82 2d 00
        E 144 b2 0b 7f
        E 0 92 2d 7f
        E 144 82 2d 00
        E 144 b2 0b 7f
        E 0 92 28 7f
        E 288 82 28 00
        E 0 b2 0b 7f
        E 0 92 2f 7f
        E 144 82 2f 00
        E 144 b2 0b 7f
        E 0 92 2f 7f
        E 144 82 2f 00
        E 144 b2 0b 7f
        E 0 92 28 7f
        E 288 82 28 00
        E 0 b2 0b 7f
        E 0 92 2c 7f
        E 144 82 2c 00
        E 144 b2 0b 7f
        E 0 92 2c 7f
        E 144 82 2c 00
        E 144 b2 0b 7f
        E 0 92 29 7f
        E 288 82 29 00
        E 0 b2 0b 7f
        E 0 92 30 7f
        E 144 82 30 00
        E 144 b2 0b 7f
        E 0 92 30 7f
        E 144 82 30 00
        E 144 b2 0b 7f
        E 0 92 29 7f
        E 288 82 29 00
        E 0 b2 0b 7f
        E 0 92 30 7f
        E 144 82 30 00
        E 144 b2 0b 7f
        E 0 92 30 7f
        E 144 82 30 00
        E 144 b2 0b 7f
        E 0 92 24 7f
        E 144 82 24 00
        E 144 b2 0b 7f
        E 0 92 26 7f
        E 144 82 26 00
        E 144 b2 0b 7f
        E 0 92 28 7f
        E 144 82 28 00
        E 144 b2 0b 7f
        E 0 92 2b 7f
        E 144 82 2b 00
        E 3312 b2 0b 7f
        E 0 92 1f 7f
        E 144 82 1f 00
        E 144 b2 0b 7f
        E 0 92 21 7f
        E 144 82 21 00
        E 144 b2 0b 7f
        E 0 92 23 7f
        E 144 82 23 00
        E 144 b2 0b 7f
        E 0 92 24 7f
        E 288 82 24 00
        E 0 b2 0b 7f
        E 0 92 2b 7f
        E 144 82 2b 00
        E 144 b2 0b 7f
        E 0 92 2b 7f
        E 144 82 2b 00
        E 144 b2 0b 7f
        E 0 92 24 7f
        E 288 82 24 00
        E 0 b2 0b 7f
        E 0 92 2b 7f
        E 144 82 2b 00
        E 144 b2 0b 7f
        E 0 92 2b 7f
        E 144 82 2b 00
        E 144 b2 0b 7f
        E 0 92 24 7f
        E 288 82 24 00
        E 0 b2 0b 7f
        E 0 92 2b 7f
        E 144 82 2b 00
        E 144 b2 0b 7f
        E 0 92 2b 7f
        E 144 82 2b 00
        E 144 b2 0b 7f
        E 0 92 24 7f
        E 288 82 24 00
        E 0 b2 0b 7f
        E 0 92 2b 7f
        E 144 82 2b 00
        E 144 b2 0b 7f
        E 0 92 2b 7f
        E 144 82 2b 00
        E 144 b2 0b 7f
        E 0 92 24 7f
        E 288 82 24 00
        E 0 b2 0b 7f
        E 0 92 2b 7f
        E 144 82 2b 00
        E 144 b2 0b 7f
        E 0 92 2b 7f
        E 144 82 2b 00
        E 144 b2 0b 7f
        E 0 92 24 7f
        E 288 82 24 00
        E 0 b2 0b 7f
        E 0 92 2d 7f
        E 144 82 2d 00
        E 144 b2 0b 7f
        E 0 92 2d 7f
        E 144 82 2d 00
        E 144 b2 0b 7f
        E 0 92 24 7f
        E 288 82 24 00
        E 0 b2 0b 7f
        E 0 92 2b 7f
        E 144 82 2b 00
        E 144 b2 0b 7f
        E 0 92 2b 7f
        E 144 82 2b 00
        E 144 b2 0b 7f
        E 0 92 21 7f
        E 288 82 21 00
        E 0 b2 0b 7f
        E 0 92 28 7f
        E 144 82 28 00
        E 144 b2 0b 7f
        E 0 92 28 7f
        E 144 82 28 00
        E 144 b2 0b 7f
        E 0 92 26 7f
        E 288 82 26 00
        E 0 b2 0b 7f
        E 0 92 2d 7f
        E 144 82 2d 00
        E 144 b2 0b 7f
        E 0 92 2d 7f
        E 144 82 2d 00
        E 144 b2 0b 7f
        E 0 92 26 7f
        E 288 82 26 00
        E 0 b2 0b 7f
        E 0 92 2e 7f
        E 144 82 2e 00
        E 144 b2 0b 7f
        E 0 92 2e 7f
        E 144 82 2e 00
        E 144 b2 0b 7f
        E 0 92 26 7f
        E 288 82 26 00
        E 0 b2 0b 7f
        E 0 92 2f 7f
        E 144 82 2f 00
        E 144 b2 0b 7f
        E 0 92 2f 7f
        E 144 82 2f 00
        E 144 b2 0b 7f
        E 0 92 1f 7f
        E 288 82 1f 00
        E 0 b2 0b 7f
        E 0 92 2b 7f
        E 144 82 2b 00
        E 144 b2 0b 7f
        E 0 92 2b 7f
        E 144 82 2b 00
        E 144 b2 0b 7f
        E 0 92 24 7f
        E 288 82 24 00
        E 0 b2 0b 7f
        E 0 92 2b 7f
        E 144 82 2b 00
        E 144 b2 0b 7f
        E 0 92 2b 7f
        E 144 82 2b 00
        E 144 b2 0b 7f
        E 0 92 23 7f
        E 288 82 23 00
        E 0 b2 0b 7f
        E 0 92 2b 7f
        E 144 82 2b 00
        E 144 b2 0b 7f
        E 0 92 2b 7f
        E 144 82 2b 00
        E 144 b2 0b 7f
        E 0 92 22 7f
        E 288 82 22 00
        E 0 b2 0b 7f
        E 0 92 28 7f
        E 144 82 28 00
        E 144 b2 0b 7f
        E 0 92 28 7f
        E 144 82 28 00
        E 144 b2 0b 7f
        E 0 92 21 7f
        E 288 82 21 00
        E 0 b2 0b 7f
        E 0 92 28 7f
        E 144 82 28 00
        E 144 b2 0b 7f
        E 0 92 28 7f
        E 144 82 28 00
        E 144 b2 0b 7f
        E 0 92 26 7f
        E 288 82 26 00
        E 0 b2 0b 7f
        E 0 92 2d 7f
        E 144 82 2d 00
        E 144 b2 0b 7f
        E 0 92 2d 7f
        E 144 82 2d 00
        E 144 b2 0b 7f
        E 0 92 27 7f
        E 288 82 27 00
        E 0 b2 0b 7f
        E 0 92 2d 7f
        E 144 82 2d 00
        E 144 b2 0b 7f
        E 0 92 2d 7f
        E 144 82 2d 00
        E 144 b2 0b 7f
        E 0 92 28 7f
        E 288 82 28 00
        E 0 b2 0b 7f
        E 0 92 2f 7f
        E 144 82 2f 00
        E 144 b2 0b 7f
        E 0 92 2f 7f
        E 144 82 2f 00
        E 144 b2 0b 7f
        E 0 92 28 7f
        E 288 82 28 00
        E 0 b2 0b 7f
        E 0 92 2c 7f
        E 144 82 2c 00
        E 144 b2 0b 7f
        E 0 92 2c 7f
        E 144 82 2c 00
        E 144 b2 0b 7f
        E 0 92 29 7f
        E 288 82 29 00
        E 0 b2 0b 7f
        E 0 92 30 7f
        E 144 82 30 00
        E 144 b2 0b 7f
        E 0 92 30 7f
        E 144 82 30 00
        E 144 b2 0b 7f
        E 0 92 29 7f
        E 288 82 29 00
        E 0 b2 0b 7f
        E 0 92 30 7f
        E 144 82 30 00
        E 144 b2 0b 7f
        E 0 92 30 7f
        E 144 82 30 00
        E 144 b2 0b 7f
        E 0 92 24 7f
        E 144 82 24 00
        E 144 b2 0b 7f
        E 0 92 26 7f
        E 144 82 26 00
        E 144 b2 0b 7f
        E 0 92 28 7f
        E 144 82 28 00
        E 144 b2 0b 7f
        E 0 92 2b 7f
        E 144 82 2b 00
        E 3312 b2 0b 7f
        E 0 92 1f 7f
        E 144 82 1f 00
        E 144 b2 0b 7f
        E 0 92 21 7f
        E 144 82 21 00
        E 144 b2 0b 7f
        E 0 92 23 7f
        E 144 82 23 00
        E 144 b2 0b 7f
        E 0 92 24 7f
        E 288 82 24 00
        E 0 b2 0b 7f
        E 0 92 2b 7f
        E 144 82 2b 00
        E 144 b2 0b 7f
        E 0 92 2b 7f
        E 144 82 2b 00
        E 144 b2 0b 7f
        E 0 92 24 7f
        E 288 82 24 00
        E 0 b2 0b 7f
        E 0 92 2b 7f
        E 144 82 2b 00
        E 144 b2 0b 7f
        E 0 92 2b 7f
        E 144 82 2b 00
        E 144 b2 0b 7f
        E 0 92 24 7f
        E 288 82 24 00
        E 0 b2 0b 7f
        E 0 92 2b 7f
        E 144 82 2b 00
        E 144 b2 0b 7f
        E 0 92 2b 7f
        E 144 82 2b 00
        E 144 b2 0b 7f
        E 0 92 24 7f
        E 288 82 24 00
        E 0 b2 0b 7f
        E 0 92 2b 7f
        E 144 82 2b 00
        E 144 b2 0b 7f
        E 0 92 2b 7f
        E 144 82 2b 00
        E 144 b2 0b 7f
        E 0 92 24 7f
        E 288 82 24 00
        E 0 b2 0b 7f
        E 0 92 2b 7f
        E 144 82 2b 00
        E 144 b2 0b 7f
        E 0 92 2b 7f
        E 144 82 2b 00
        E 144 b2 0b 7f
        E 0 92 24 7f
        E 288 82 24 00
        E 0 b2 0b 7f
        E 0 92 2d 7f
        E 144 82 2d 00
        E 144 b2 0b 7f
        E 0 92 2d 7f
        E 144 82 2d 00
        E 144 b2 0b 7f
        E 0 92 24 7f
        E 288 82 24 00
        E 0 b2 0b 7f
        E 0 92 2b 7f
        E 144 82 2b 00
        E 144 b2 0b 7f
        E 0 92 2b 7f
        E 144 82 2b 00
        E 144 b2 0b 7f
        E 0 92 21 7f
        E 288 82 21 00
        E 0 b2 0b 7f
        E 0 92 28 7f
        E 144 82 28 00
        E 144 b2 0b 7f
        E 0 92 28 7f
        E 144 82 28 00
        E 144 b2 0b 7f
        E 0 92 26 7f
        E 288 82 26 00
        E 0 b2 0b 7f
        E 0 92 2d 7f
        E 144 82 2d 00
        E 144 b2 0b 7f
        E 0 92 2d 7f
        E 144 82 2d 00
        E 144 b2 0b 7f
        E 0 92 26 7f
        E 288 82 26 00
        E 0 b2 0b 7f
        E 0 92 2e 7f
        E 144 82 2e 00
        E 144 b2 0b 7f
        E 0 92 2e 7f
        E 144 82 2e 00
        E 144 b2 0b 7f
        E 0 92 26 7f
        E 288 82 26 00
        E 0 b2 0b 7f
        E 0 92 2f 7f
        E 144 82 2f 00
        E 144 b2 0b 7f
        E 0 92 2f 7f
        E 144 82 2f 00
        E 144 b2 0b 7f
        E 0 92 1f 7f
        E 288 82 1f 00
        E 0 b2 0b 7f
        E 0 92 2b 7f
        E 144 82 2b 00
        E 144 b2 0b 7f
        E 0 92 2b 7f
        E 144 82 2b 00
        E 144 b2 0b 7f
        E 0 92 24 7f
        E 288 82 24 00
        E 0 b2 0b 7f
        E 0 92 2b 7f
        E 144 82 2b 00
        E 144 b2 0b 7f
        E 0 92 2b 7f
        E 144 82 2b 00
        E 144 b2 0b 7f
        E 0 92 23 7f
        E 288 82 23 00
        E 0 b2 0b 7f
        E 0 92 2b 7f
        E 144 82 2b 00
        E 144 b2 0b 7f
        E 0 92 2b 7f
        E 144 82 2b 00
        E 144 b2 0b 7f
        E 0 92 22 7f
        E 288 82 22 00
        E 0 b2 0b 7f
        E 0 92 28 7f
        E 144 82 28 00
        E 144 b2 0b 7f
        E 0 92 28 7f
        E 144 82 28 00
        E 144 b2 0b 7f
        E 0 92 21 7f
        E 288 82 21 00
        E 0 b2 0b 7f
        E 0 92 28 7f
        E 144 82 28 00
        E 144 b2 0b 7f
        E 0 92 28 7f
        E 144 82 28 00
        E 144 b2 0b 7f
        E 0 92 26 7f
        E 288 82 26 00
        E 0 b2 0b 7f
        E 0 92 2d 7f
        E 144 82 2d 00
        E 144 b2 0b 7f
        E 0 92 2d 7f
        E 144 82 2d 00
        E 144 b2 0b 7f
        E 0 92 27 7f
        E 288 82 27 00
        E 0 b2 0b 7f
        E 0 92 2d 7f
        E 144 82 2d 00
        E 144 b2 0b 7f
        E 0 92 2d 7f
        E 144 82 2d 00
        E 144 b2 0b 7f
        E 0 92 28 7f
        E 288 82 28 00
        E 0 b2 0b 7f
        E 0 92 2f 7f
        E 144 82 2f 00
        E 144 b2 0b 7f
        E 0 92 2f 7f
        E 144 82 2f 00
        E 144 b2 0b 7f
        E 0 92 28 7f
        E 288 82 28 00
        E 0 b2 0b 7f
        E 0 92 2c 7f
        E 144 82 2c 00
        E 144 b2 0b 7f
        E 0 92 2c 7f
        E 144 82 2c 00
        E 144 b2 0b 7f
        E 0 92 29 7f
        E 288 82 29 00
        E 0 b2 0b 7f
        E 0 92 30 7f
        E 144 82 30 00
        E 144 b2 0b 7f
        E 0 92 30 7f
        E 144 82 30 00
        E 144 b2 0b 7f
        E 0 92 29 7f
        E 288 82 29 00
        E 0 b2 0b 7f
        E 0 92 30 7f
        E 144 82 30 00
        E 144 b2 0b 7f
        E 0 92 30 7f
        E 144 82 30 00
        E 144 b2 0b 7f
        E 0 92 24 7f
        E 144 82 24 00
        E 144 b2 0b 7f
        E 0 92 26 7f
        E 144 82 26 00
        E 144 b2 0b 7f
        E 0 92 28 7f
        E 144 82 28 00
        E 144 b2 0b 7f
        E 0 92 2b 7f
        E 144 82 2b 00
        E 3312 b2 0b 7f
        E 0 92 1f 7f
        E 144 82 1f 00
        E 144 b2 0b 7f
        E 0 92 21 7f
        E 144 82 21 00
        E 144 b2 0b 7f
        E 0 92 23 7f
        E 144 82 23 00
        E 144 b2 0b 7f
        E 0 92 24 7f
        E 288 82 24 00
        E 0 b2 0b 7f
        E 0 92 2b 7f
        E 144 82 2b 00
        E 144 b2 0b 7f
        E 0 92 2b 7f
        E 144 82 2b 00
        E 144 b2 0b 7f
        E 0 92 24 7f
        E 288 82 24 00
        E 0 b2 0b 7f
        E 0 92 2b 7f
        E 144 82 2b 00
        E 144 b2 0b 7f
        E 0 92 2b 7f
        E 144 82 2b 00
        E 144 b2 0b 7f
        E 0 92 24 7f
        E 288 82 24 00
        E 0 b2 0b 7f
        E 0 92 2b 7f
        E 144 82 2b 00
        E 144 b2 0b 7f
        E 0 92 2b 7f
        E 144 82 2b 00
        E 144 b2 0b 7f
        E 0 92 24 7f
        E 288 82 24 00
        E 0 b2 0b 7f
        E 0 92 2b 7f
        E 144 82 2b 00
        E 144 b2 0b 7f
        E 0 92 2b 7f
        E 144 82 2b 00
        E 144 b2 0b 7f
        E 0 92 24 7f
        E 288 82 24 00
        E 0 b2 0b 7f
        E 0 92 2b 7f
        E 144 82 2b 00
        E 144 b2 0b 7f
        E 0 92 2b 7f
        E 64 82 2b 00
        E 0 b2 7b 00
        E 0 ff 2f 00
      >
    >
  >
  <TRACK {18179762-AB67-4DA5-AE68-F51D1D76E59C}
    NAME "NES - Noise / Drums"
    PEAKCOL 11184810
    BEAT -1
    AUTOMODE 0
    PANLAWFLAGS 3
    VOLPAN 1 0 -1 -1 1
    MUTESOLO 0 0 0
    IPHASE 0
    PLAYOFFS 0 1
    ISBUS 0 0
    BUSCOMP 0 0 0 0 0
    SHOWINMIX 1 0.6667 0.5 1 0.5 0 0 0
    FIXEDLANES 9 0 0 0 0
    SEL 0
    REC 0 5088 1 0 0 0 0 0
    VU 2
    TRACKHEIGHT 0 0 0 0 0 0 0
    INQ 0 0 0 0.5 100 0 0 100
    NCHAN 2
    FX 1
    TRACKID {18179762-AB67-4DA5-AE68-F51D1D76E59C}
    PERF 0
    MIDIOUT -1
    MAINSEND 1 0
    <FXCHAIN
      WNDRECT 24 52 700 560
      SHOW 0
      LASTSEL 0
      DOCKED 0
      BYPASS 0 0 0
      <JS "ReapNES Studio/ReapNES_Console.jsfx" ""
        2 15 1 10 80 10 100 2 1 15 1 5 60 10 80 1 1 0 50 0 0 15 1 0 100 0 0 0.500000 0.500000 0.400000 0.300000 0.800000 3 1 0 0 0 0 - - - - - - - - - - - - - - - - - - - - - - - - - -
      >
      FLOATPOS 0 0 0 0
      FXID {87ECF0F0-7C65-4CD8-864D-2E0160986ACB}
      WAK 0 0
    >
  >
>