<REAPER_PROJECT 0.1 "7.27/win64" 1707000000
  <NOTES 0 2
    |ReapNES Studio Project
    |MIDI Import - Final_Fantasy_song_45_rom_v1
  >
  RIPPLE 0
  GROUPOVERRIDE 0 0 0
  AUTOXFADE 129
  ENVATTACH 3
  POOLEDENVATTACH 0
  MIXERUIFLAGS 11 48
  ENVFADESZ10 40
  PEAKGAIN 1
  FEEDBACK 0
  PANLAW 1
  PROJOFFS 0 0 0
  MAXPROJLEN 0 0
  GRID 3199 8 1 8 1 0 0 0
  TIMEMODE 1 5 -1 30 0 0 -1
  VIDEO_CONFIG 0 0 65792
  PANMODE 3
  PANLAWFLAGS 3
  CURSOR 0
  ZOOM 100 0 0
  VZOOMEX 6 0
  USE_REC_CFG 0
  RECMODE 1
  SMPTESYNC 0 30 100 40 1000 300 0 0 1 0 0
  LOOP 0
  LOOPGRAN 0 4
  RECORD_PATH "Media" ""
  <RECORD_CFG
    ZXZhdxgAAQ==
  >
  <APPLYFX_CFG
  >
  RENDER_FILE ""
  RENDER_PATTERN ""
  RENDER_FMT 0 2 0
  RENDER_1X 0
  RENDER_RANGE 1 0 0 18 1000
  RENDER_RESAMPLE 3 0 1
  RENDER_ADDTOPROJ 0
  RENDER_STEMS 0
  RENDER_DITHER 0
  TIMELOCKMODE 1
  TEMPOENVLOCKMODE 1
  ITEMMIX 1
  DEFPITCHMODE 589824 0
  TAKELANE 1
  SAMPLERATE 44100 0 0
  <RENDER_CFG
    ZXZhdxgAAQ==
  >
  LOCK 1
  <METRONOME 6 2
    VOL 0.25 0.125
    BEATLEN 4
    FREQ 1760 880 1
    SAMPLES "" ""
    SPLIGNORE 0 0
    SPLDEF 2 660 "" 0
    SPLDEF 3 440 "" 0
    PATTERN 0 169
    PATTERNSTR ABBB
    MULT 1
  >
  GLOBAL_AUTO -1
  TEMPO 128.59999614200012 4 4
  PLAYRATE 1 0 0.25 4
  SELECTION 0 0
  SELECTION2 0 0
  MASTERAUTOMODE 0
  MASTERTRACKHEIGHT 0 0
  MASTERPEAKCOL 16576
  MASTERMUTESOLO 0
  MASTERTRACKVIEW 0 0.6667 0.5 0.5 0 0 0 0 0 0 0 0 0 0
  MASTERHWOUT 0 0 1 0 0 0 0 -1
  MASTER_NCH 2 2
  MASTER_VOLUME 1 0 -1 -1 1
  MASTER_PANMODE 3
  MASTER_PANLAWFLAGS 3
  MASTER_FX 1
  MASTER_SEL 0
  <MASTERPLAYSPEEDENV
    EGUID {7271ABBC-C284-45C3-8A82-43E205E71B1D}
    ACT 0 -1
    VIS 0 1 1
    LANEHEIGHT 0 0
    ARM 0
    DEFSHAPE 0 -1 -1
  >
  <TEMPOENVEX
    EGUID {65F28536-D72D-44BE-9D61-9A468E995C31}
    ACT 1 -1
    VIS 1 0 1
    LANEHEIGHT 0 0
    ARM 0
    DEFSHAPE 1 -1 -1
  >
  <PROJBAY
  >
  <TRACK {97ACCCB4-4581-417B-8377-6D134DB7B591}
    NAME "NES - Pulse 1 [ch0]"
    PEAKCOL 16576606
    BEAT -1
    AUTOMODE 0
    PANLAWFLAGS 3
    VOLPAN 1 0 -1 -1 1
    MUTESOLO 0 0 0
    IPHASE 0
    PLAYOFFS 0 1
    ISBUS 0 0
    BUSCOMP 0 0 0 0 0
    SHOWINMIX 1 0.6667 0.5 1 0.5 0 0 0
    FIXEDLANES 9 0 0 0 0
    SEL 1
    REC 1 5088 1 0 0 0 0 0
    VU 2
    TRACKHEIGHT 0 0 0 0 0 0 0
    INQ 0 0 0 0.5 100 0 0 100
    NCHAN 2
    FX 1
    TRACKID {97ACCCB4-4581-417B-8377-6D134DB7B591}
    PERF 0
    MIDIOUT -1
    MAINSEND 1 0
    <FXCHAIN
      WNDRECT 24 52 700 560
      SHOW 0
      LASTSEL 0
      DOCKED 0
      BYPASS 0 0 0
      <JS "ReapNES Studio/ReapNES_Console.jsfx" ""
        2 15 1 10 80 10 100 2 1 15 1 5 60 10 80 1 1 0 50 0 0 15 1 0 100 0 0 0.500000 0.500000 0.400000 0.300000 0.800000 0 1 0 0 0 0 - - - - - - - - - - - - - - - - - - - - - - - - - -
      >
      FLOATPOS 0 0 0 0
      FXID {6DBB32F6-7CA4-4FDB-8DDF-8263C06BA8A2}
      WAK 0 0
    >
    <ITEM
      POSITION 0
      LENGTH 74.5878716
      LOOP 0
      ALLTAKES 0
      FADEIN 0 0 0 0 0 0 0
      FADEOUT 0 0 0 0 0 0 0
      MUTE 0 0
      SEL 0
      IGUID {3579359A-9790-4B1E-9FF8-88CE530B7823}
      <SOURCE MIDI
        HASDATA 1 480 QN
        CCINTERP 32
        E 0 c0 50
        E 0 b0 0c 20
        E 0 b0 0b 77
        E 0 90 2e 77
        E 16 80 2e 00
        E 48 b0 0b 66
        E 0 90 39 66
        E 16 b0 0b 5d
        E 16 b0 0b 55
        E 16 b0 0b 4c
        E 16 b0 0b 44
        E 16 b0 0b 3b
        E 16 b0 0b 33
        E 16 b0 0b 2a
        E 16 b0 0b 22
        E 16 b0 0b 2a
        E 16 b0 0b 33
        E 16 b0 0b 3b
        E 16 b0 0b 44
        E 16 b0 0b 3b
        E 16 b0 0b 33
        E 16 b0 0b 2a
        E 16 b0 0b 22
        E 16 b0 0b 2a
        E 16 b0 0b 33
        E 16 b0 0b 3b
        E 16 b0 0b 44
        E 16 b0 0b 3b
        E 16 b0 0b 33
        E 16 b0 0b 2a
        E 16 b0 0b 66
        E 0 80 39 00
        E 0 90 3a 66
        E 16 b0 0b 5d
        E 16 b0 0b 55
        E 16 b0 0b 4c
        E 16 b0 0b 44
        E 16 b0 0b 3b
        E 16 b0 0b 33
        E 16 b0 0b 2a
        E 16 b0 0b 22
        E 16 b0 0b 2a
        E 16 b0 0b 33
        E 16 b0 0b 3b
        E 16 b0 0b 44
        E 16 b0 0b 3b
        E 16 b0 0b 33
        E 16 b0 0b 2a
        E 16 b0 0b 22
        E 16 b0 0b 2a
        E 16 b0 0b 33
        E 16 b0 0b 3b
        E 16 b0 0b 44
        E 16 b0 0b 3b
        E 16 b0 0b 33
        E 16 b0 0b 2a
        E 16 b0 0b 66
        E 0 80 3a 00
        E 0 90 3c 66
        E 16 b0 0b 5d
        E 16 b0 0b 55
        E 16 b0 0b 4c
        E 16 b0 0b 44
        E 16 b0 0b 3b
        E 16 b0 0b 33
        E 16 b0 0b 2a
        E 16 b0 0b 22
        E 16 b0 0b 2a
        E 16 b0 0b 33
        E 16 b0 0b 3b
        E 16 b0 0b 44
        E 16 b0 0b 3b
        E 16 b0 0b 33
        E 16 b0 0b 2a
        E 16 b0 0b 22
        E 16 b0 0b 2a
        E 16 b0 0b 33
        E 16 b0 0b 3b
        E 16 b0 0b 44
        E 16 b0 0b 3b
        E 16 b0 0b 33
        E 16 b0 0b 2a
        E 16 b0 0b 22
        E 16 b0 0b 2a
        E 16 b0 0b 33
        E 16 b0 0b 3b
        E 16 b0 0b 44
        E 16 b0 0b 4c
        E 16 b0 0b 55
        E 16 b0 0b 5d
        E 1808 b0 0b 66
        E 0 80 3c 00
        E 0 90 43 66
        E 16 b0 0b 5d
        E 16 b0 0b 55
        E 16 b0 0b 4c
        E 16 b0 0b 44
        E 16 b0 0b 3b
        E 16 b0 0b 33
        E 16 b0 0b 2a
        E 16 b0 0b 22
        E 16 b0 0b 2a
        E 16 b0 0b 33
        E 16 b0 0b 3b
        E 16 b0 0b 66
        E 0 80 43 00
        E 0 90 41 66
        E 16 b0 0b 5d
        E 16 b0 0b 55
        E 16 b0 0b 4c
        E 16 b0 0b 44
        E 16 b0 0b 3b
        E 16 b0 0b 33
        E 16 b0 0b 2a
        E 16 b0 0b 22
        E 16 b0 0b 2a
        E 16 b0 0b 33
        E 16 b0 0b 3b
        E 16 b0 0b 66
        E 0 80 41 00
        E 0 90 40 66
        E 16 b0 0b 5d
        E 16 b0 0b 55
        E 16 b0 0b 4c
        E 16 b0 0b 44
        E 16 b0 0b 3b
        E 16 b0 0b 33
        E 16 b0 0b 2a
        E 16 b0 0b 22
        E 16 b0 0b 2a
        E 16 b0 0b 33
        E 16 b0 0b 3b
        E 16 b0 0b 66
        E 0 80 40 00
        E 0 90 41 66
        E 16 b0 0b 5d
        E 16 b0 0b 55
        E 16 b0 0b 4c
        E 16 b0 0b 44
        E 16 b0 0b 3b
        E 16 b0 0b 33
        E 16 b0 0b 2a
        E 16 b0 0b 22
        E 16 b0 0b 2a
        E 16 b0 0b 33
        E 16 b0 0b 3b
        E 16 b0 0b 66
        E 0 80 41 00
        E 0 90 3e 66
        E 16 b0 0b 5d
        E 16 b0 0b 55
        E 16 b0 0b 4c
        E 16 b0 0b 44
        E 16 b0 0b 3b
        E 16 b0 0b 33
        E 16 b0 0b 2a
        E 16 b0 0b 22
        E 16 b0 0b 2a
        E 16 b0 0b 33
        E 16 b0 0b 3b
        E 16 b0 0b 44
        E 16 b0 0b 3b
        E 16 b0 0b 33
        E 16 b0 0b 2a
        E 16 b0 0b 22
        E 16 b0 0b 2a
        E 16 b0 0b 33
        E 16 b0 0b 3b
        E 16 b0 0b 44
        E 16 b0 0b 3b
        E 16 b0 0b 33
        E 16 b0 0b 2a
        E 16 b0 0b 22
        E 16 b0 0b 2a
        E 16 b0 0b 33
        E 16 b0 0b 3b
        E 16 b0 0b 44
        E 16 b0 0b 4c
        E 16 b0 0b 55
        E 16 b0 0b 5d
        E 656 b0 0b 66
        E 0 80 3e 00
        E 0 90 3a 66
        E 16 b0 0b 5d
        E 16 b0 0b 55
        E 16 b0 0b 4c
        E 16 b0 0b 44
        E 16 b0 0b 3b
        E 16 b0 0b 33
        E 16 b0 0b 2a
        E 16 b0 0b 22
        E 16 b0 0b 2a
        E 16 b0 0b 33
        E 16 b0 0b 3b
        E 16 b0 0b 44
        E 16 b0 0b 3b
        E 16 b0 0b 33
        E 16 b0 0b 2a
        E 16 b0 0b 22
        E 16 b0 0b 2a
        E 16 b0 0b 33
        E 16 b0 0b 3b
        E 16 b0 0b 44
        E 16 b0 0b 3b
        E 16 b0 0b 33
        E 16 b0 0b 2a
        E 16 b0 0b 66
        E 0 80 3a 00
        E 0 90 37 66
        E 16 b0 0b 5d
        E 16 b0 0b 55
        E 16 b0 0b 4c
        E 16 b0 0b 44
        E 16 b0 0b 3b
        E 16 b0 0b 33
        E 16 b0 0b 2a
        E 16 b0 0b 22
        E 16 b0 0b 2a
        E 16 b0 0b 33
        E 16 b0 0b 3b
        E 16 b0 0b 44
        E 16 b0 0b 3b
        E 16 b0 0b 33
        E 16 b0 0b 2a
        E 16 b0 0b 22
        E 16 b0 0b 2a
        E 16 b0 0b 33
        E 16 b0 0b 3b
        E 16 b0 0b 44
        E 16 b0 0b 3b
        E 16 b0 0b 33
        E 16 b0 0b 2a
        E 16 b0 0b 22
        E 16 b0 0b 2a
        E 16 b0 0b 33
        E 16 b0 0b 3b
        E 16 b0 0b 44
        E 16 b0 0b 4c
        E 16 b0 0b 55
        E 16 b0 0b 5d
        E 272 b0 0b 66
        E 0 80 37 00
        E 0 90 41 66
        E 16 b0 0b 5d
        E 16 b0 0b 55
        E 16 b0 0b 4c
        E 16 b0 0b 44
        E 16 b0 0b 3b
        E 16 b0 0b 33
        E 16 b0 0b 2a
        E 16 b0 0b 22
        E 16 b0 0b 2a
        E 16 b0 0b 33
        E 16 b0 0b 3b
        E 16 b0 0b 66
        E 0 80 41 00
        E 0 90 40 66
        E 16 b0 0b 5d
        E 16 b0 0b 55
        E 16 b0 0b 4c
        E 16 b0 0b 44
        E 16 b0 0b 3b
        E 16 b0 0b 33
        E 16 b0 0b 2a
        E 16 b0 0b 22
        E 16 b0 0b 2a
        E 16 b0 0b 33
        E 16 b0 0b 3b
        E 16 b0 0b 66
        E 0 80 40 00
        E 0 90 3e 66
        E 16 b0 0b 5d
        E 16 b0 0b 55
        E 16 b0 0b 4c
        E 16 b0 0b 44
        E 16 b0 0b 3b
        E 16 b0 0b 33
        E 16 b0 0b 2a
        E 16 b0 0b 22
        E 16 b0 0b 2a
        E 16 b0 0b 33
        E 16 b0 0b 3b
        E 16 b0 0b 66
        E 0 80 3e 00
        E 0 90 40 66
        E 16 b0 0b 5d
        E 16 b0 0b 55
        E 16 b0 0b 4c
        E 16 b0 0b 44
        E 16 b0 0b 3b
        E 16 b0 0b 33
        E 16 b0 0b 2a
        E 16 b0 0b 22
        E 16 b0 0b 2a
        E 16 b0 0b 33
        E 16 b0 0b 3b
        E 16 b0 0b 66
        E 0 80 40 00
        E 0 90 3c 66
        E 16 b0 0b 5d
        E 16 b0 0b 55
        E 16 b0 0b 4c
        E 16 b0 0b 44
        E 16 b0 0b 3b
        E 16 b0 0b 33
        E 16 b0 0b 2a
        E 16 b0 0b 22
        E 16 b0 0b 2a
        E 16 b0 0b 33
        E 16 b0 0b 3b
        E 16 b0 0b 44
        E 16 b0 0b 3b
        E 16 b0 0b 33
        E 16 b0 0b 2a
        E 16 b0 0b 22
        E 16 b0 0b 2a
        E 16 b0 0b 33
        E 16 b0 0b 3b
        E 16 b0 0b 44
        E 16 b0 0b 3b
        E 16 b0 0b 33
        E 16 b0 0b 2a
        E 16 b0 0b 22
        E 16 b0 0b 2a
        E 16 b0 0b 33
        E 16 b0 0b 3b
        E 16 b0 0b 44
        E 16 b0 0b 4c
        E 16 b0 0b 55
        E 16 b0 0b 5d
        E 656 b0 0b 66
        E 0 80 3c 00
        E 0 90 39 66
        E 16 b0 0b 5d
        E 16 b0 0b 55
        E 16 b0 0b 4c
        E 16 b0 0b 44
        E 16 b0 0b 3b
        E 16 b0 0b 33
        E 16 b0 0b 2a
        E 16 b0 0b 22
        E 16 b0 0b 2a
        E 16 b0 0b 33
        E 16 b0 0b 3b
        E 16 b0 0b 44
        E 16 b0 0b 3b
        E 16 b0 0b 33
        E 16 b0 0b 2a
        E 16 b0 0b 22
        E 16 b0 0b 2a
        E 16 b0 0b 33
        E 16 b0 0b 3b
        E 16 b0 0b 44
        E 16 b0 0b 3b
        E 16 b0 0b 33
        E 16 b0 0b 2a
        E 16 b0 0b 66
        E 0 80 39 00
        E 0 90 36 66
        E 16 b0 0b 5d
        E 16 b0 0b 55
        E 16 b0 0b 4c
        E 16 b0 0b 44
        E 16 b0 0b 3b
        E 16 b0 0b 33
        E 16 b0 0b 2a
        E 16 b0 0b 22
        E 16 b0 0b 2a
        E 16 b0 0b 33
        E 16 b0 0b 3b
        E 16 b0 0b 44
        E 16 b0 0b 3b
        E 16 b0 0b 33
        E 16 b0 0b 2a
        E 16 b0 0b 22
        E 16 b0 0b 2a
        E 16 b0 0b 33
        E 16 b0 0b 3b
        E 16 b0 0b 44
        E 16 b0 0b 3b
        E 16 b0 0b 33
        E 16 b0 0b 2a
        E 16 b0 0b 22
        E 16 b0 0b 2a
        E 16 b0 0b 33
        E 16 b0 0b 3b
        E 16 b0 0b 44
        E 16 b0 0b 4c
        E 16 b0 0b 55
        E 16 b0 0b 5d
        E 272 b0 0b 66
        E 0 80 36 00
        E 0 90 3e 66
        E 16 b0 0b 5d
        E 16 b0 0b 55
        E 16 b0 0b 4c
        E 16 b0 0b 44
        E 16 b0 0b 3b
        E 16 b0 0b 33
        E 16 b0 0b 2a
        E 16 b0 0b 22
        E 16 b0 0b 2a
        E 16 b0 0b 33
        E 16 b0 0b 3b
        E 16 b0 0b 66
        E 0 80 3e 00
        E 0 90 3c 66
        E 16 b0 0b 5d
        E 16 b0 0b 55
        E 16 b0 0b 4c
        E 16 b0 0b 44
        E 16 b0 0b 3b
        E 16 b0 0b 33
        E 16 b0 0b 2a
        E 16 b0 0b 22
        E 16 b0 0b 2a
        E 16 b0 0b 33
        E 16 b0 0b 3b
        E 16 b0 0b 66
        E 0 80 3c 00
        E 0 90 3a 66
        E 16 b0 0b 5d
        E 16 b0 0b 55
        E 16 b0 0b 4c
        E 16 b0 0b 44
        E 16 b0 0b 3b
        E 16 b0 0b 33
        E 16 b0 0b 2a
        E 16 b0 0b 22
        E 16 b0 0b 2a
        E 16 b0 0b 33
        E 16 b0 0b 3b
        E 16 b0 0b 66
        E 0 80 3a 00
        E 0 90 39 66
        E 16 b0 0b 5d
        E 16 b0 0b 55
        E 16 b0 0b 4c
        E 16 b0 0b 44
        E 16 b0 0b 3b
        E 16 b0 0b 33
        E 16 b0 0b 2a
        E 16 b0 0b 22
        E 16 b0 0b 2a
        E 16 b0 0b 33
        E 16 b0 0b 3b
        E 16 b0 0b 66
        E 0 80 39 00
        E 0 90 3a 66
        E 16 b0 0b 5d
        E 16 b0 0b 55
        E 16 b0 0b 4c
        E 16 b0 0b 44
        E 16 b0 0b 3b
        E 16 b0 0b 33
        E 16 b0 0b 2a
        E 16 b0 0b 22
        E 16 b0 0b 2a
        E 16 b0 0b 33
        E 16 b0 0b 3b
        E 16 b0 0b 44
        E 16 b0 0b 3b
        E 16 b0 0b 33
        E 16 b0 0b 2a
        E 16 b0 0b 22
        E 16 b0 0b 2a
        E 16 b0 0b 33
        E 16 b0 0b 3b
        E 16 b0 0b 44
        E 16 b0 0b 3b
        E 16 b0 0b 33
        E 16 b0 0b 2a
        E 16 b0 0b 22
        E 16 b0 0b 2a
        E 16 b0 0b 33
        E 16 b0 0b 3b
        E 16 b0 0b 44
        E 16 b0 0b 4c
        E 16 b0 0b 55
        E 16 b0 0b 5d
        E 464 b0 0b 66
        E 0 80 3a 00
        E 0 90 37 66
        E 16 b0 0b 5d
        E 16 b0 0b 55
        E 16 b0 0b 4c
        E 16 b0 0b 44
        E 16 b0 0b 3b
        E 16 b0 0b 33
        E 16 b0 0b 2a
        E 16 b0 0b 22
        E 16 b0 0b 2a
        E 16 b0 0b 33
        E 16 b0 0b 3b
        E 16 b0 0b 66
        E 0 80 37 00
        E 0 90 39 66
        E 16 b0 0b 5d
        E 16 b0 0b 55
        E 16 b0 0b 4c
        E 16 b0 0b 44
        E 16 b0 0b 3b
        E 16 b0 0b 33
        E 16 b0 0b 2a
        E 16 b0 0b 22
        E 16 b0 0b 2a
        E 16 b0 0b 33
        E 16 b0 0b 3b
        E 16 b0 0b 66
        E 0 80 39 00
        E 0 90 3a 66
        E 16 b0 0b 5d
        E 16 b0 0b 55
        E 16 b0 0b 4c
        E 16 b0 0b 44
        E 16 b0 0b 3b
        E 16 b0 0b 33
        E 16 b0 0b 2a
        E 16 b0 0b 22
        E 16 b0 0b 2a
        E 16 b0 0b 33
        E 16 b0 0b 3b
        E 16 b0 0b 66
        E 0 80 3a 00
        E 0 90 3c 66
        E 16 b0 0b 5d
        E 16 b0 0b 55
        E 16 b0 0b 4c
        E 16 b0 0b 44
        E 16 b0 0b 3b
        E 16 b0 0b 33
        E 16 b0 0b 2a
        E 16 b0 0b 22
        E 16 b0 0b 2a
        E 16 b0 0b 33
        E 16 b0 0b 3b
        E 16 b0 0b 44
        E 16 b0 0b 3b
        E 16 b0 0b 33
        E 16 b0 0b 2a
        E 16 b0 0b 22
        E 16 b0 0b 2a
        E 16 b0 0b 33
        E 16 b0 0b 3b
        E 16 b0 0b 44
        E 16 b0 0b 3b
        E 16 b0 0b 33
        E 16 b0 0b 2a
        E 16 b0 0b 22
        E 16 b0 0b 2a
        E 16 b0 0b 33
        E 16 b0 0b 3b
        E 16 b0 0b 44
        E 16 b0 0b 4c
        E 16 b0 0b 55
        E 16 b0 0b 5d
        E 272 b0 0b 66
        E 0 80 3c 00
        E 0 90 39 66
        E 16 b0 0b 5d
        E 16 b0 0b 55
        E 16 b0 0b 4c
        E 16 b0 0b 44
        E 16 b0 0b 3b
        E 16 b0 0b 33
        E 16 b0 0b 2a
        E 16 b0 0b 22
        E 16 b0 0b 2a
        E 16 b0 0b 33
        E 16 b0 0b 3b
        E 16 b0 0b 44
        E 16 b0 0b 3b
        E 16 b0 0b 33
        E 16 b0 0b 2a
        E 16 b0 0b 22
        E 16 b0 0b 2a
        E 16 b0 0b 33
        E 16 b0 0b 3b
        E 16 b0 0b 44
        E 16 b0 0b 3b
        E 16 b0 0b 33
        E 16 b0 0b 2a
        E 16 b0 0b 66
        E 0 80 39 00
        E 0 90 3a 66
        E 16 b0 0b 5d
        E 16 b0 0b 55
        E 16 b0 0b 4c
        E 16 b0 0b 44
        E 16 b0 0b 3b
        E 16 b0 0b 33
        E 16 b0 0b 2a
        E 16 b0 0b 22
        E 16 b0 0b 2a
        E 16 b0 0b 33
        E 16 b0 0b 3b
        E 16 b0 0b 44
        E 16 b0 0b 3b
        E 16 b0 0b 33
        E 16 b0 0b 2a
        E 16 b0 0b 22
        E 16 b0 0b 2a
        E 16 b0 0b 33
        E 16 b0 0b 3b
        E 16 b0 0b 44
        E 16 b0 0b 3b
        E 16 b0 0b 33
        E 16 b0 0b 2a
        E 16 b0 0b 66
        E 0 80 3a 00
        E 0 90 3c 66
        E 16 b0 0b 5d
        E 16 b0 0b 55
        E 16 b0 0b 4c
        E 16 b0 0b 44
        E 16 b0 0b 3b
        E 16 b0 0b 33
        E 16 b0 0b 2a
        E 16 b0 0b 22
        E 16 b0 0b 2a
        E 16 b0 0b 33
        E 16 b0 0b 3b
        E 16 b0 0b 44
        E 16 b0 0b 3b
        E 16 b0 0b 33
        E 16 b0 0b 2a
        E 16 b0 0b 22
        E 16 b0 0b 2a
        E 16 b0 0b 33
        E 16 b0 0b 3b
        E 16 b0 0b 44
        E 16 b0 0b 3b
        E 16 b0 0b 33
        E 16 b0 0b 2a
        E 16 b0 0b 22
        E 16 b0 0b 2a
        E 16 b0 0b 33
        E 16 b0 0b 3b
        E 16 b0 0b 44
        E 16 b0 0b 4c
        E 16 b0 0b 55
        E 16 b0 0b 5d
        E 1040 b0 0b 66
        E 16 b0 0b 5d
        E 16 b0 0b 55
        E 16 b0 0b 4c
        E 16 b0 0b 44
        E 16 b0 0b 3b
        E 16 b0 0b 33
        E 16 b0 0b 2a
        E 16 b0 0b 22
        E 16 b0 0b 2a
        E 16 b0 0b 33
        E 16 b0 0b 3b
        E 16 b0 0b 44
        E 16 b0 0b 3b
        E 16 b0 0b 33
        E 16 b0 0b 2a
        E 16 b0 0b 22
        E 16 b0 0b 2a
        E 16 b0 0b 33
        E 16 b0 0b 3b
        E 16 b0 0b 44
        E 16 b0 0b 3b
        E 16 b0 0b 33
        E 16 b0 0b 2a
        E 16 b0 0b 22
        E 16 b0 0b 2a
        E 16 b0 0b 33
        E 16 b0 0b 3b
        E 16 b0 0b 44
        E 16 b0 0b 4c
        E 16 b0 0b 55
        E 16 b0 0b 5d
        E 272 b0 0b 66
        E 0 80 3c 00
        E 0 90 43 66
        E 16 b0 0b 5d
        E 16 b0 0b 55
        E 16 b0 0b 4c
        E 16 b0 0b 44
        E 16 b0 0b 3b
        E 16 b0 0b 33
        E 16 b0 0b 2a
        E 16 b0 0b 22
        E 16 b0 0b 2a
        E 16 b0 0b 33
        E 16 b0 0b 3b
        E 16 b0 0b 66
        E 0 80 43 00
        E 0 90 41 66
        E 16 b0 0b 5d
        E 16 b0 0b 55
        E 16 b0 0b 4c
        E 16 b0 0b 44
        E 16 b0 0b 3b
        E 16 b0 0b 33
        E 16 b0 0b 2a
        E 16 b0 0b 22
        E 16 b0 0b 2a
        E 16 b0 0b 33
        E 16 b0 0b 3b
        E 16 b0 0b 66
        E 0 80 41 00
        E 0 90 40 66
        E 16 b0 0b 5d
        E 16 b0 0b 55
        E 16 b0 0b 4c
        E 16 b0 0b 44
        E 16 b0 0b 3b
        E 16 b0 0b 33
        E 16 b0 0b 2a
        E 16 b0 0b 22
        E 16 b0 0b 2a
        E 16 b0 0b 33
        E 16 b0 0b 3b
        E 16 b0 0b 66
        E 0 80 40 00
        E 0 90 41 66
        E 16 b0 0b 5d
        E 16 b0 0b 55
        E 16 b0 0b 4c
        E 16 b0 0b 44
        E 16 b0 0b 3b
        E 16 b0 0b 33
        E 16 b0 0b 2a
        E 16 b0 0b 22
        E 16 b0 0b 2a
        E 16 b0 0b 33
        E 16 b0 0b 3b
        E 16 b0 0b 66
        E 0 80 41 00
        E 0 90 3e 66
        E 16 b0 0b 5d
        E 16 b0 0b 55
        E 16 b0 0b 4c
        E 16 b0 0b 44
        E 16 b0 0b 3b
        E 16 b0 0b 33
        E 16 b0 0b 2a
        E 16 b0 0b 22
        E 16 b0 0b 2a
        E 16 b0 0b 33
        E 16 b0 0b 3b
        E 16 b0 0b 44
        E 16 b0 0b 3b
        E 16 b0 0b 33
        E 16 b0 0b 2a
        E 16 b0 0b 22
        E 16 b0 0b 2a
        E 16 b0 0b 33
        E 16 b0 0b 3b
        E 16 b0 0b 44
        E 16 b0 0b 3b
        E 16 b0 0b 33
        E 16 b0 0b 2a
        E 16 b0 0b 22
        E 16 b0 0b 2a
        E 16 b0 0b 33
        E 16 b0 0b 3b
        E 16 b0 0b 44
        E 16 b0 0b 4c
        E 16 b0 0b 55
        E 16 b0 0b 5d
        E 656 b0 0b 66
        E 0 80 3e 00
        E 0 90 3a 66
        E 16 b0 0b 5d
        E 16 b0 0b 55
        E 16 b0 0b 4c
        E 16 b0 0b 44
        E 16 b0 0b 3b
        E 16 b0 0b 33
        E 16 b0 0b 2a
        E 16 b0 0b 22
        E 16 b0 0b 2a
        E 16 b0 0b 33
        E 16 b0 0b 3b
        E 16 b0 0b 44
        E 16 b0 0b 3b
        E 16 b0 0b 33
        E 16 b0 0b 2a
        E 16 b0 0b 22
        E 16 b0 0b 2a
        E 16 b0 0b 33
        E 16 b0 0b 3b
        E 16 b0 0b 44
        E 16 b0 0b 3b
        E 16 b0 0b 33
        E 16 b0 0b 2a
        E 16 b0 0b 66
        E 0 80 3a 00
        E 0 90 37 66
        E 16 b0 0b 5d
        E 16 b0 0b 55
        E 16 b0 0b 4c
        E 16 b0 0b 44
        E 16 b0 0b 3b
        E 16 b0 0b 33
        E 16 b0 0b 2a
        E 16 b0 0b 22
        E 16 b0 0b 2a
        E 16 b0 0b 33
        E 16 b0 0b 3b
        E 16 b0 0b 44
        E 16 b0 0b 3b
        E 16 b0 0b 33
        E 16 b0 0b 2a
        E 16 b0 0b 22
        E 16 b0 0b 2a
        E 16 b0 0b 33
        E 16 b0 0b 3b
        E 16 b0 0b 44
        E 16 b0 0b 3b
        E 16 b0 0b 33
        E 16 b0 0b 2a
        E 16 b0 0b 22
        E 16 b0 0b 2a
        E 16 b0 0b 33
        E 16 b0 0b 3b
        E 16 b0 0b 44
        E 16 b0 0b 4c
        E 16 b0 0b 55
        E 16 b0 0b 5d
        E 272 b0 0b 66
        E 0 80 37 00
        E 0 90 41 66
        E 16 b0 0b 5d
        E 16 b0 0b 55
        E 16 b0 0b 4c
        E 16 b0 0b 44
        E 16 b0 0b 3b
        E 16 b0 0b 33
        E 16 b0 0b 2a
        E 16 b0 0b 22
        E 16 b0 0b 2a
        E 16 b0 0b 33
        E 16 b0 0b 3b
        E 16 b0 0b 66
        E 0 80 41 00
        E 0 90 40 66
        E 16 b0 0b 5d
        E 16 b0 0b 55
        E 16 b0 0b 4c
        E 16 b0 0b 44
        E 16 b0 0b 3b
        E 16 b0 0b 33
        E 16 b0 0b 2a
        E 16 b0 0b 22
        E 16 b0 0b 2a
        E 16 b0 0b 33
        E 16 b0 0b 3b
        E 16 b0 0b 66
        E 0 80 40 00
        E 0 90 3e 66
        E 16 b0 0b 5d
        E 16 b0 0b 55
        E 16 b0 0b 4c
        E 16 b0 0b 44
        E 16 b0 0b 3b
        E 16 b0 0b 33
        E 16 b0 0b 2a
        E 16 b0 0b 22
        E 16 b0 0b 2a
        E 16 b0 0b 33
        E 16 b0 0b 3b
        E 16 b0 0b 66
        E 0 80 3e 00
        E 0 90 40 66
        E 16 b0 0b 5d
        E 16 b0 0b 55
        E 16 b0 0b 4c
        E 16 b0 0b 44
        E 16 b0 0b 3b
        E 16 b0 0b 33
        E 16 b0 0b 2a
        E 16 b0 0b 22
        E 16 b0 0b 2a
        E 16 b0 0b 33
        E 16 b0 0b 3b
        E 16 b0 0b 66
        E 0 80 40 00
        E 0 90 3c 66
        E 16 b0 0b 5d
        E 16 b0 0b 55
        E 16 b0 0b 4c
        E 16 b0 0b 44
        E 16 b0 0b 3b
        E 16 b0 0b 33
        E 16 b0 0b 2a
        E 16 b0 0b 22
        E 16 b0 0b 2a
        E 16 b0 0b 33
        E 16 b0 0b 3b
        E 16 b0 0b 44
        E 16 b0 0b 3b
        E 16 b0 0b 33
        E 16 b0 0b 2a
        E 16 b0 0b 22
        E 16 b0 0b 2a
        E 16 b0 0b 33
        E 16 b0 0b 3b
        E 16 b0 0b 44
        E 16 b0 0b 3b
        E 16 b0 0b 33
        E 16 b0 0b 2a
        E 16 b0 0b 22
        E 16 b0 0b 2a
        E 16 b0 0b 33
        E 16 b0 0b 3b
        E 16 b0 0b 44
        E 16 b0 0b 4c
        E 16 b0 0b 55
        E 16 b0 0b 5d
        E 656 b0 0b 66
        E 0 80 3c 00
        E 0 90 39 66
        E 16 b0 0b 5d
        E 16 b0 0b 55
        E 16 b0 0b 4c
        E 16 b0 0b 44
        E 16 b0 0b 3b
        E 16 b0 0b 33
        E 16 b0 0b 2a
        E 16 b0 0b 22
        E 16 b0 0b 2a
        E 16 b0 0b 33
        E 16 b0 0b 3b
        E 16 b0 0b 44
        E 16 b0 0b 3b
        E 16 b0 0b 33
        E 16 b0 0b 2a
        E 16 b0 0b 22
        E 16 b0 0b 2a
        E 16 b0 0b 33
        E 16 b0 0b 3b
        E 16 b0 0b 44
        E 16 b0 0b 3b
        E 16 b0 0b 33
        E 16 b0 0b 2a
        E 16 b0 0b 66
        E 0 80 39 00
        E 0 90 36 66
        E 16 b0 0b 5d
        E 16 b0 0b 55
        E 16 b0 0b 4c
        E 16 b0 0b 44
        E 16 b0 0b 3b
        E 16 b0 0b 33
        E 16 b0 0b 2a
        E 16 b0 0b 22
        E 16 b0 0b 2a
        E 16 b0 0b 33
        E 16 b0 0b 3b
        E 16 b0 0b 44
        E 16 b0 0b 3b
        E 16 b0 0b 33
        E 16 b0 0b 2a
        E 16 b0 0b 22
        E 16 b0 0b 2a
        E 16 b0 0b 33
        E 16 b0 0b 3b
        E 16 b0 0b 44
        E 16 b0 0b 3b
        E 16 b0 0b 33
        E 16 b0 0b 2a
        E 16 b0 0b 22
        E 16 b0 0b 2a
        E 16 b0 0b 33
        E 16 b0 0b 3b
        E 16 b0 0b 44
        E 16 b0 0b 4c
        E 16 b0 0b 55
        E 16 b0 0b 5d
        E 272 b0 0b 66
        E 0 80 36 00
        E 0 90 3e 66
        E 16 b0 0b 5d
        E 16 b0 0b 55
        E 16 b0 0b 4c
        E 16 b0 0b 44
        E 16 b0 0b 3b
        E 16 b0 0b 33
        E 16 b0 0b 2a
        E 16 b0 0b 22
        E 16 b0 0b 2a
        E 16 b0 0b 33
        E 16 b0 0b 3b
        E 16 b0 0b 66
        E 0 80 3e 00
        E 0 90 3c 66
        E 16 b0 0b 5d
        E 16 b0 0b 55
        E 16 b0 0b 4c
        E 16 b0 0b 44
        E 16 b0 0b 3b
        E 16 b0 0b 33
        E 16 b0 0b 2a
        E 16 b0 0b 22
        E 16 b0 0b 2a
        E 16 b0 0b 33
        E 16 b0 0b 3b
        E 16 b0 0b 66
        E 0 80 3c 00
        E 0 90 3a 66
        E 16 b0 0b 5d
        E 16 b0 0b 55
        E 16 b0 0b 4c
        E 16 b0 0b 44
        E 16 b0 0b 3b
        E 16 b0 0b 33
        E 16 b0 0b 2a
        E 16 b0 0b 22
        E 16 b0 0b 2a
        E 16 b0 0b 33
        E 16 b0 0b 3b
        E 16 b0 0b 66
        E 0 80 3a 00
        E 0 90 39 66
        E 16 b0 0b 5d
        E 16 b0 0b 55
        E 16 b0 0b 4c
        E 16 b0 0b 44
        E 16 b0 0b 3b
        E 16 b0 0b 33
        E 16 b0 0b 2a
        E 16 b0 0b 22
        E 16 b0 0b 2a
        E 16 b0 0b 33
        E 16 b0 0b 3b
        E 16 b0 0b 66
        E 0 80 39 00
        E 0 90 3a 66
        E 16 b0 0b 5d
        E 16 b0 0b 55
        E 16 b0 0b 4c
        E 16 b0 0b 44
        E 16 b0 0b 3b
        E 16 b0 0b 33
        E 16 b0 0b 2a
        E 16 b0 0b 22
        E 16 b0 0b 2a
        E 16 b0 0b 33
        E 16 b0 0b 3b
        E 16 b0 0b 44
        E 16 b0 0b 3b
        E 16 b0 0b 33
        E 16 b0 0b 2a
        E 16 b0 0b 22
        E 16 b0 0b 2a
        E 16 b0 0b 33
        E 16 b0 0b 3b
        E 16 b0 0b 44
        E 16 b0 0b 3b
        E 16 b0 0b 33
        E 16 b0 0b 2a
        E 16 b0 0b 22
        E 16 b0 0b 2a
        E 16 b0 0b 33
        E 16 b0 0b 3b
        E 16 b0 0b 44
        E 16 b0 0b 4c
        E 16 b0 0b 55
        E 16 b0 0b 5d
        E 272 b0 0b 66
        E 16 b0 0b 5d
        E 16 b0 0b 55
        E 16 b0 0b 4c
        E 16 b0 0b 44
        E 16 b0 0b 3b
        E 16 b0 0b 33
        E 16 b0 0b 2a
        E 16 b0 0b 22
        E 16 b0 0b 2a
        E 16 b0 0b 33
        E 16 b0 0b 3b
        E 16 b0 0b 66
        E 0 80 3a 00
        E 0 90 37 66
        E 16 b0 0b 5d
        E 16 b0 0b 55
        E 16 b0 0b 4c
        E 16 b0 0b 44
        E 16 b0 0b 3b
        E 16 b0 0b 33
        E 16 b0 0b 2a
        E 16 b0 0b 22
        E 16 b0 0b 2a
        E 16 b0 0b 33
        E 16 b0 0b 3b
        E 16 b0 0b 66
        E 0 80 37 00
        E 0 90 39 66
        E 16 b0 0b 5d
        E 16 b0 0b 55
        E 16 b0 0b 4c
        E 16 b0 0b 44
        E 16 b0 0b 3b
        E 16 b0 0b 33
        E 16 b0 0b 2a
        E 16 b0 0b 22
        E 16 b0 0b 2a
        E 16 b0 0b 33
        E 16 b0 0b 3b
        E 16 b0 0b 66
        E 0 80 39 00
        E 0 90 3a 66
        E 16 b0 0b 5d
        E 16 b0 0b 55
        E 16 b0 0b 4c
        E 16 b0 0b 44
        E 16 b0 0b 3b
        E 16 b0 0b 33
        E 16 b0 0b 2a
        E 16 b0 0b 22
        E 16 b0 0b 2a
        E 16 b0 0b 33
        E 16 b0 0b 3b
        E 16 b0 0b 66
        E 0 80 3a 00
        E 0 90 3c 66
        E 16 b0 0b 5d
        E 16 b0 0b 55
        E 16 b0 0b 4c
        E 16 b0 0b 44
        E 16 b0 0b 3b
        E 16 b0 0b 33
        E 16 b0 0b 2a
        E 16 b0 0b 22
        E 16 b0 0b 2a
        E 16 b0 0b 33
        E 16 b0 0b 3b
        E 16 b0 0b 44
        E 16 b0 0b 3b
        E 16 b0 0b 33
        E 16 b0 0b 2a
        E 16 b0 0b 22
        E 16 b0 0b 2a
        E 16 b0 0b 33
        E 16 b0 0b 3b
        E 16 b0 0b 44
        E 16 b0 0b 3b
        E 16 b0 0b 33
        E 16 b0 0b 2a
        E 16 b0 0b 22
        E 16 b0 0b 2a
        E 16 b0 0b 33
        E 16 b0 0b 3b
        E 16 b0 0b 44
        E 16 b0 0b 4c
        E 16 b0 0b 55
        E 16 b0 0b 5d
        E 1424 b0 0b 66
        E 16 b0 0b 5d
        E 16 b0 0b 55
        E 16 b0 0b 4c
        E 16 b0 0b 44
        E 16 b0 0b 3b
        E 16 b0 0b 33
        E 16 b0 0b 2a
        E 16 b0 0b 22
        E 16 b0 0b 2a
        E 16 b0 0b 33
        E 16 b0 0b 3b
        E 16 b0 0b 44
        E 16 b0 0b 3b
        E 16 b0 0b 33
        E 16 b0 0b 2a
        E 16 b0 0b 22
        E 16 b0 0b 2a
        E 16 b0 0b 33
        E 16 b0 0b 3b
        E 16 b0 0b 44
        E 16 b0 0b 3b
        E 16 b0 0b 33
        E 16 b0 0b 2a
        E 16 b0 0b 66
        E 0 80 3c 00
        E 0 90 3e 66
        E 16 b0 0b 5d
        E 16 b0 0b 55
        E 16 b0 0b 4c
        E 16 b0 0b 44
        E 16 b0 0b 3b
        E 16 b0 0b 33
        E 16 b0 0b 2a
        E 16 b0 0b 22
        E 16 b0 0b 2a
        E 16 b0 0b 33
        E 16 b0 0b 3b
        E 16 b0 0b 44
        E 16 b0 0b 3b
        E 16 b0 0b 33
        E 16 b0 0b 2a
        E 16 b0 0b 22
        E 16 b0 0b 2a
        E 16 b0 0b 33
        E 16 b0 0b 3b
        E 16 b0 0b 44
        E 16 b0 0b 3b
        E 16 b0 0b 33
        E 16 b0 0b 2a
        E 16 b0 0b 66
        E 0 80 3e 00
        E 0 90 40 66
        E 16 b0 0b 5d
        E 16 b0 0b 55
        E 16 b0 0b 4c
        E 16 b0 0b 44
        E 16 b0 0b 3b
        E 16 b0 0b 33
        E 16 b0 0b 2a
        E 16 b0 0b 22
        E 16 b0 0b 2a
        E 16 b0 0b 33
        E 16 b0 0b 3b
        E 16 b0 0b 44
        E 16 b0 0b 3b
        E 16 b0 0b 33
        E 16 b0 0b 2a
        E 16 b0 0b 22
        E 16 b0 0b 2a
        E 16 b0 0b 33
        E 16 b0 0b 3b
        E 16 b0 0b 44
        E 16 b0 0b 3b
        E 16 b0 0b 33
        E 16 b0 0b 2a
        E 16 b0 0b 66
        E 0 80 40 00
        E 0 90 43 66
        E 16 b0 0b 5d
        E 16 b0 0b 55
        E 16 b0 0b 4c
        E 16 b0 0b 44
        E 16 b0 0b 3b
        E 16 b0 0b 33
        E 16 b0 0b 2a
        E 16 b0 0b 22
        E 16 b0 0b 2a
        E 16 b0 0b 33
        E 16 b0 0b 3b
        E 16 b0 0b 44
        E 16 b0 0b 3b
        E 16 b0 0b 33
        E 16 b0 0b 2a
        E 16 b0 0b 22
        E 16 b0 0b 2a
        E 16 b0 0b 33
        E 16 b0 0b 3b
        E 16 b0 0b 44
        E 16 b0 0b 3b
        E 16 b0 0b 33
        E 16 b0 0b 2a
        E 16 b0 0b 66
        E 0 80 43 00
        E 0 90 41 66
        E 16 b0 0b 5d
        E 16 b0 0b 55
        E 16 b0 0b 4c
        E 16 b0 0b 44
        E 16 b0 0b 3b
        E 16 b0 0b 33
        E 16 b0 0b 2a
        E 16 b0 0b 22
        E 16 b0 0b 2a
        E 16 b0 0b 33
        E 16 b0 0b 3b
        E 16 b0 0b 44
        E 16 b0 0b 3b
        E 16 b0 0b 33
        E 16 b0 0b 2a
        E 16 b0 0b 22
        E 16 b0 0b 2a
        E 16 b0 0b 33
        E 16 b0 0b 3b
        E 16 b0 0b 44
        E 16 b0 0b 3b
        E 16 b0 0b 33
        E 16 b0 0b 2a
        E 16 b0 0b 66
        E 0 80 41 00
        E 0 90 40 66
        E 16 b0 0b 5d
        E 16 b0 0b 55
        E 16 b0 0b 4c
        E 16 b0 0b 44
        E 16 b0 0b 3b
        E 16 b0 0b 33
        E 16 b0 0b 2a
        E 16 b0 0b 22
        E 16 b0 0b 2a
        E 16 b0 0b 33
        E 16 b0 0b 3b
        E 16 b0 0b 44
        E 16 b0 0b 3b
        E 16 b0 0b 33
        E 16 b0 0b 2a
        E 16 b0 0b 22
        E 16 b0 0b 2a
        E 16 b0 0b 33
        E 16 b0 0b 3b
        E 16 b0 0b 44
        E 16 b0 0b 3b
        E 16 b0 0b 33
        E 16 b0 0b 2a
        E 16 b0 0b 66
        E 0 80 40 00
        E 0 90 41 66
        E 16 b0 0b 5d
        E 16 b0 0b 55
        E 16 b0 0b 4c
        E 16 b0 0b 44
        E 16 b0 0b 3b
        E 16 b0 0b 33
        E 16 b0 0b 2a
        E 16 b0 0b 22
        E 16 b0 0b 2a
        E 16 b0 0b 33
        E 16 b0 0b 3b
        E 16 b0 0b 44
        E 16 b0 0b 3b
        E 16 b0 0b 33
        E 16 b0 0b 2a
        E 16 b0 0b 22
        E 16 b0 0b 2a
        E 16 b0 0b 33
        E 16 b0 0b 3b
        E 16 b0 0b 44
        E 16 b0 0b 3b
        E 16 b0 0b 33
        E 16 b0 0b 2a
        E 16 b0 0b 66
        E 0 80 41 00
        E 0 90 40 66
        E 16 b0 0b 5d
        E 16 b0 0b 55
        E 16 b0 0b 4c
        E 16 b0 0b 44
        E 16 b0 0b 3b
        E 16 b0 0b 33
        E 16 b0 0b 2a
        E 16 b0 0b 22
        E 16 b0 0b 2a
        E 16 b0 0b 33
        E 16 b0 0b 3b
        E 16 b0 0b 44
        E 16 b0 0b 3b
        E 16 b0 0b 33
        E 16 b0 0b 2a
        E 16 b0 0b 22
        E 16 b0 0b 2a
        E 16 b0 0b 33
        E 16 b0 0b 3b
        E 16 b0 0b 44
        E 16 b0 0b 3b
        E 16 b0 0b 33
        E 16 b0 0b 2a
        E 16 b0 0b 22
        E 16 b0 0b 2a
        E 16 b0 0b 33
        E 16 b0 0b 3b
        E 16 b0 0b 44
        E 16 b0 0b 4c
        E 16 b0 0b 55
        E 16 b0 0b 5d
        E 272 b0 0b 66
        E 0 80 40 00
        E 0 90 3c 66
        E 16 b0 0b 5d
        E 16 b0 0b 55
        E 16 b0 0b 4c
        E 16 b0 0b 44
        E 16 b0 0b 3b
        E 16 b0 0b 33
        E 16 b0 0b 2a
        E 16 b0 0b 22
        E 16 b0 0b 2a
        E 16 b0 0b 33
        E 16 b0 0b 3b
        E 16 b0 0b 44
        E 16 b0 0b 3b
        E 16 b0 0b 33
        E 16 b0 0b 2a
        E 16 b0 0b 22
        E 16 b0 0b 2a
        E 16 b0 0b 33
        E 16 b0 0b 3b
        E 16 b0 0b 44
        E 16 b0 0b 3b
        E 16 b0 0b 33
        E 16 b0 0b 2a
        E 16 b0 0b 66
        E 0 80 3c 00
        E 0 90 39 66
        E 16 b0 0b 5d
        E 16 b0 0b 55
        E 16 b0 0b 4c
        E 16 b0 0b 44
        E 16 b0 0b 3b
        E 16 b0 0b 33
        E 16 b0 0b 2a
        E 16 b0 0b 22
        E 16 b0 0b 2a
        E 16 b0 0b 33
        E 16 b0 0b 3b
        E 16 b0 0b 44
        E 16 b0 0b 3b
        E 16 b0 0b 33
        E 16 b0 0b 2a
        E 16 b0 0b 22
        E 16 b0 0b 2a
        E 16 b0 0b 33
        E 16 b0 0b 3b
        E 16 b0 0b 44
        E 16 b0 0b 3b
        E 16 b0 0b 33
        E 16 b0 0b 2a
        E 16 b0 0b 66
        E 0 80 39 00
        E 0 90 3e 66
        E 16 b0 0b 5d
        E 16 b0 0b 55
        E 16 b0 0b 4c
        E 16 b0 0b 44
        E 16 b0 0b 3b
        E 16 b0 0b 33
        E 16 b0 0b 2a
        E 16 b0 0b 22
        E 16 b0 0b 2a
        E 16 b0 0b 33
        E 16 b0 0b 3b
        E 16 b0 0b 44
        E 16 b0 0b 3b
        E 16 b0 0b 33
        E 16 b0 0b 2a
        E 16 b0 0b 22
        E 16 b0 0b 2a
        E 16 b0 0b 33
        E 16 b0 0b 3b
        E 16 b0 0b 44
        E 16 b0 0b 3b
        E 16 b0 0b 33
        E 16 b0 0b 2a
        E 16 b0 0b 22
        E 16 b0 0b 2a
        E 16 b0 0b 33
        E 16 b0 0b 3b
        E 16 b0 0b 44
        E 16 b0 0b 4c
        E 16 b0 0b 55
        E 16 b0 0b 5d
        E 1424 b0 0b 66
        E 16 b0 0b 5d
        E 16 b0 0b 55
        E 16 b0 0b 4c
        E 16 b0 0b 44
        E 16 b0 0b 3b
        E 16 b0 0b 33
        E 16 b0 0b 2a
        E 16 b0 0b 22
        E 16 b0 0b 2a
        E 16 b0 0b 33
        E 16 b0 0b 3b
        E 16 b0 0b 44
        E 16 b0 0b 3b
        E 16 b0 0b 33
        E 16 b0 0b 2a
        E 16 b0 0b 22
        E 16 b0 0b 2a
        E 16 b0 0b 33
        E 16 b0 0b 3b
        E 16 b0 0b 44
        E 16 b0 0b 3b
        E 16 b0 0b 33
        E 16 b0 0b 2a
        E 16 b0 0b 66
        E 0 80 3e 00
        E 0 90 40 66
        E 16 b0 0b 5d
        E 16 b0 0b 55
        E 16 b0 0b 4c
        E 16 b0 0b 44
        E 16 b0 0b 3b
        E 16 b0 0b 33
        E 16 b0 0b 2a
        E 16 b0 0b 22
        E 16 b0 0b 2a
        E 16 b0 0b 33
        E 16 b0 0b 3b
        E 16 b0 0b 44
        E 16 b0 0b 3b
        E 16 b0 0b 33
        E 16 b0 0b 2a
        E 16 b0 0b 22
        E 16 b0 0b 2a
        E 16 b0 0b 33
        E 16 b0 0b 3b
        E 16 b0 0b 44
        E 16 b0 0b 3b
        E 16 b0 0b 33
        E 16 b0 0b 2a
        E 16 b0 0b 66
        E 0 80 40 00
        E 0 90 41 66
        E 16 b0 0b 5d
        E 16 b0 0b 55
        E 16 b0 0b 4c
        E 16 b0 0b 44
        E 16 b0 0b 3b
        E 16 b0 0b 33
        E 16 b0 0b 2a
        E 16 b0 0b 22
        E 16 b0 0b 2a
        E 16 b0 0b 33
        E 16 b0 0b 3b
        E 16 b0 0b 44
        E 16 b0 0b 3b
        E 16 b0 0b 33
        E 16 b0 0b 2a
        E 16 b0 0b 22
        E 16 b0 0b 2a
        E 16 b0 0b 33
        E 16 b0 0b 3b
        E 16 b0 0b 44
        E 16 b0 0b 3b
        E 16 b0 0b 33
        E 16 b0 0b 2a
        E 16 b0 0b 66
        E 0 80 41 00
        E 0 90 43 66
        E 16 b0 0b 5d
        E 16 b0 0b 55
        E 16 b0 0b 4c
        E 16 b0 0b 44
        E 16 b0 0b 3b
        E 16 b0 0b 33
        E 16 b0 0b 2a
        E 16 b0 0b 22
        E 16 b0 0b 2a
        E 16 b0 0b 33
        E 16 b0 0b 3b
        E 16 b0 0b 44
        E 16 b0 0b 3b
        E 16 b0 0b 33
        E 16 b0 0b 2a
        E 16 b0 0b 22
        E 16 b0 0b 2a
        E 16 b0 0b 33
        E 16 b0 0b 3b
        E 16 b0 0b 44
        E 16 b0 0b 3b
        E 16 b0 0b 33
        E 16 b0 0b 2a
        E 16 b0 0b 66
        E 0 80 43 00
        E 0 90 41 66
        E 16 b0 0b 5d
        E 16 b0 0b 55
        E 16 b0 0b 4c
        E 16 b0 0b 44
        E 16 b0 0b 3b
        E 16 b0 0b 33
        E 16 b0 0b 2a
        E 16 b0 0b 22
        E 16 b0 0b 2a
        E 16 b0 0b 33
        E 16 b0 0b 3b
        E 16 b0 0b 44
        E 16 b0 0b 3b
        E 16 b0 0b 33
        E 16 b0 0b 2a
        E 16 b0 0b 22
        E 16 b0 0b 2a
        E 16 b0 0b 33
        E 16 b0 0b 3b
        E 16 b0 0b 44
        E 16 b0 0b 3b
        E 16 b0 0b 33
        E 16 b0 0b 2a
        E 16 b0 0b 66
        E 0 80 41 00
        E 0 90 40 66
        E 16 b0 0b 5d
        E 16 b0 0b 55
        E 16 b0 0b 4c
        E 16 b0 0b 44
        E 16 b0 0b 3b
        E 16 b0 0b 33
        E 16 b0 0b 2a
        E 16 b0 0b 22
        E 16 b0 0b 2a
        E 16 b0 0b 33
        E 16 b0 0b 3b
        E 16 b0 0b 44
        E 16 b0 0b 3b
        E 16 b0 0b 33
        E 16 b0 0b 2a
        E 16 b0 0b 22
        E 16 b0 0b 2a
        E 16 b0 0b 33
        E 16 b0 0b 3b
        E 16 b0 0b 44
        E 16 b0 0b 3b
        E 16 b0 0b 33
        E 16 b0 0b 2a
        E 16 b0 0b 66
        E 0 80 40 00
        E 0 90 41 66
        E 16 b0 0b 5d
        E 16 b0 0b 55
        E 16 b0 0b 4c
        E 16 b0 0b 44
        E 16 b0 0b 3b
        E 16 b0 0b 33
        E 16 b0 0b 2a
        E 16 b0 0b 22
        E 16 b0 0b 2a
        E 16 b0 0b 33
        E 16 b0 0b 3b
        E 16 b0 0b 44
        E 16 b0 0b 3b
        E 16 b0 0b 33
        E 16 b0 0b 2a
        E 16 b0 0b 22
        E 16 b0 0b 2a
        E 16 b0 0b 33
        E 16 b0 0b 3b
        E 16 b0 0b 44
        E 16 b0 0b 3b
        E 16 b0 0b 33
        E 16 b0 0b 2a
        E 16 b0 0b 66
        E 0 80 41 00
        E 0 90 43 66
        E 16 b0 0b 5d
        E 16 b0 0b 55
        E 16 b0 0b 4c
        E 16 b0 0b 44
        E 16 b0 0b 3b
        E 16 b0 0b 33
        E 16 b0 0b 2a
        E 16 b0 0b 22
        E 16 b0 0b 2a
        E 16 b0 0b 33
        E 16 b0 0b 3b
        E 16 b0 0b 44
        E 16 b0 0b 3b
        E 16 b0 0b 33
        E 16 b0 0b 2a
        E 16 b0 0b 22
        E 16 b0 0b 2a
        E 16 b0 0b 33
        E 16 b0 0b 3b
        E 16 b0 0b 44
        E 16 b0 0b 3b
        E 16 b0 0b 33
        E 16 b0 0b 2a
        E 16 b0 0b 22
        E 16 b0 0b 2a
        E 16 b0 0b 33
        E 16 b0 0b 3b
        E 16 b0 0b 44
        E 16 b0 0b 4c
        E 16 b0 0b 55
        E 16 b0 0b 5d
        E 272 b0 0b 66
        E 0 80 43 00
        E 0 90 3e 66
        E 16 b0 0b 5d
        E 16 b0 0b 55
        E 16 b0 0b 4c
        E 16 b0 0b 44
        E 16 b0 0b 3b
        E 16 b0 0b 33
        E 16 b0 0b 2a
        E 16 b0 0b 22
        E 16 b0 0b 2a
        E 16 b0 0b 33
        E 16 b0 0b 3b
        E 16 b0 0b 44
        E 16 b0 0b 3b
        E 16 b0 0b 33
        E 16 b0 0b 2a
        E 16 b0 0b 22
        E 16 b0 0b 2a
        E 16 b0 0b 33
        E 16 b0 0b 3b
        E 16 b0 0b 44
        E 16 b0 0b 3b
        E 16 b0 0b 33
        E 16 b0 0b 2a
        E 16 b0 0b 66
        E 0 80 3e 00
        E 0 90 45 66
        E 16 b0 0b 5d
        E 16 b0 0b 55
        E 16 b0 0b 4c
        E 16 b0 0b 44
        E 16 b0 0b 3b
        E 16 b0 0b 33
        E 16 b0 0b 2a
        E 16 b0 0b 22
        E 16 b0 0b 2a
        E 16 b0 0b 33
        E 16 b0 0b 3b
        E 16 b0 0b 44
        E 16 b0 0b 3b
        E 16 b0 0b 33
        E 16 b0 0b 2a
        E 16 b0 0b 22
        E 16 b0 0b 2a
        E 16 b0 0b 33
        E 16 b0 0b 3b
        E 16 b0 0b 44
        E 16 b0 0b 3b
        E 16 b0 0b 33
        E 16 b0 0b 2a
        E 16 b0 0b 66
        E 0 80 45 00
        E 0 90 43 66
        E 16 b0 0b 5d
        E 16 b0 0b 55
        E 16 b0 0b 4c
        E 16 b0 0b 44
        E 16 b0 0b 3b
        E 16 b0 0b 33
        E 16 b0 0b 2a
        E 16 b0 0b 22
        E 16 b0 0b 2a
        E 16 b0 0b 33
        E 16 b0 0b 3b
        E 16 b0 0b 44
        E 16 b0 0b 3b
        E 16 b0 0b 33
        E 16 b0 0b 2a
        E 16 b0 0b 22
        E 16 b0 0b 2a
        E 16 b0 0b 33
        E 16 b0 0b 3b
        E 16 b0 0b 44
        E 16 b0 0b 3b
        E 16 b0 0b 33
        E 16 b0 0b 2a
        E 16 b0 0b 22
        E 16 b0 0b 2a
        E 16 b0 0b 33
        E 16 b0 0b 3b
        E 16 b0 0b 44
        E 16 b0 0b 4c
        E 16 b0 0b 55
        E 16 b0 0b 5d
        E 272 b0 0b 66
        E 0 80 43 00
        E 0 90 39 66
        E 16 b0 0b 5d
        E 16 b0 0b 55
        E 16 b0 0b 4c
        E 16 b0 0b 44
        E 16 b0 0b 3b
        E 16 b0 0b 33
        E 16 b0 0b 2a
        E 16 b0 0b 22
        E 16 b0 0b 2a
        E 16 b0 0b 33
        E 16 b0 0b 3b
        E 16 b0 0b 44
        E 16 b0 0b 3b
        E 16 b0 0b 33
        E 16 b0 0b 2a
        E 16 b0 0b 22
        E 16 b0 0b 2a
        E 16 b0 0b 33
        E 16 b0 0b 3b
        E 16 b0 0b 44
        E 16 b0 0b 3b
        E 16 b0 0b 33
        E 16 b0 0b 2a
        E 16 b0 0b 66
        E 0 80 39 00
        E 0 90 3a 66
        E 16 b0 0b 5d
        E 16 b0 0b 55
        E 16 b0 0b 4c
        E 16 b0 0b 44
        E 16 b0 0b 3b
        E 16 b0 0b 33
        E 16 b0 0b 2a
        E 16 b0 0b 22
        E 16 b0 0b 2a
        E 16 b0 0b 33
        E 16 b0 0b 3b
        E 16 b0 0b 44
        E 16 b0 0b 3b
        E 16 b0 0b 33
        E 16 b0 0b 2a
        E 16 b0 0b 22
        E 16 b0 0b 2a
        E 16 b0 0b 33
        E 16 b0 0b 3b
        E 16 b0 0b 44
        E 16 b0 0b 3b
        E 16 b0 0b 33
        E 16 b0 0b 2a
        E 16 b0 0b 66
        E 0 80 3a 00
        E 0 90 3c 66
        E 16 b0 0b 5d
        E 16 b0 0b 55
        E 16 b0 0b 4c
        E 16 b0 0b 44
        E 16 b0 0b 3b
        E 16 b0 0b 33
        E 16 b0 0b 2a
        E 16 b0 0b 22
        E 16 b0 0b 2a
        E 16 b0 0b 33
        E 16 b0 0b 3b
        E 16 b0 0b 44
        E 16 b0 0b 3b
        E 16 b0 0b 33
        E 16 b0 0b 2a
        E 16 b0 0b 22
        E 16 b0 0b 2a
        E 16 b0 0b 33
        E 16 b0 0b 3b
        E 16 b0 0b 44
        E 16 b0 0b 3b
        E 16 b0 0b 33
        E 16 b0 0b 2a
        E 16 b0 0b 22
        E 16 b0 0b 2a
        E 16 b0 0b 33
        E 16 b0 0b 3b
        E 16 b0 0b 44
        E 16 b0 0b 4c
        E 16 b0 0b 55
        E 16 b0 0b 5d
        E 1808 b0 0b 66
        E 0 80 3c 00
        E 0 90 43 66
        E 16 b0 0b 5d
        E 16 b0 0b 55
        E 16 b0 0b 4c
        E 16 b0 0b 44
        E 16 b0 0b 3b
        E 16 b0 0b 33
        E 16 b0 0b 2a
        E 16 b0 0b 22
        E 16 b0 0b 2a
        E 16 b0 0b 33
        E 16 b0 0b 3b
        E 16 b0 0b 66
        E 0 80 43 00
        E 0 90 41 66
        E 16 b0 0b 5d
        E 16 b0 0b 55
        E 16 b0 0b 4c
        E 16 b0 0b 44
        E 16 b0 0b 3b
        E 16 b0 0b 33
        E 16 b0 0b 2a
        E 16 b0 0b 22
        E 16 b0 0b 2a
        E 16 b0 0b 33
        E 16 b0 0b 3b
        E 16 b0 0b 66
        E 0 80 41 00
        E 0 90 40 66
        E 16 b0 0b 5d
        E 16 b0 0b 55
        E 16 b0 0b 4c
        E 16 b0 0b 44
        E 16 b0 0b 3b
        E 16 b0 0b 33
        E 16 b0 0b 2a
        E 16 b0 0b 22
        E 16 b0 0b 2a
        E 16 b0 0b 33
        E 16 b0 0b 3b
        E 16 b0 0b 66
        E 0 80 40 00
        E 0 90 41 66
        E 16 b0 0b 5d
        E 16 b0 0b 55
        E 16 b0 0b 4c
        E 16 b0 0b 44
        E 16 b0 0b 3b
        E 16 b0 0b 33
        E 16 b0 0b 2a
        E 16 b0 0b 22
        E 16 b0 0b 2a
        E 16 b0 0b 33
        E 16 b0 0b 3b
        E 16 b0 0b 66
        E 0 80 41 00
        E 0 90 3e 66
        E 16 b0 0b 5d
        E 16 b0 0b 55
        E 16 b0 0b 4c
        E 16 b0 0b 44
        E 16 b0 0b 3b
        E 16 b0 0b 33
        E 16 b0 0b 2a
        E 16 b0 0b 22
        E 16 b0 0b 2a
        E 16 b0 0b 33
        E 16 b0 0b 3b
        E 16 b0 0b 44
        E 16 b0 0b 3b
        E 16 b0 0b 33
        E 16 b0 0b 2a
        E 16 b0 0b 22
        E 16 b0 0b 2a
        E 16 b0 0b 33
        E 16 b0 0b 3b
        E 16 b0 0b 44
        E 16 b0 0b 3b
        E 16 b0 0b 33
        E 16 b0 0b 2a
        E 16 b0 0b 22
        E 16 b0 0b 2a
        E 16 b0 0b 33
        E 16 b0 0b 3b
        E 16 b0 0b 44
        E 16 b0 0b 4c
        E 16 b0 0b 55
        E 16 b0 0b 5d
        E 656 b0 0b 66
        E 0 80 3e 00
        E 0 90 3a 66
        E 16 b0 0b 5d
        E 16 b0 0b 55
        E 16 b0 0b 4c
        E 16 b0 0b 44
        E 16 b0 0b 3b
        E 16 b0 0b 33
        E 16 b0 0b 2a
        E 16 b0 0b 22
        E 16 b0 0b 2a
        E 16 b0 0b 33
        E 16 b0 0b 3b
        E 16 b0 0b 44
        E 16 b0 0b 3b
        E 16 b0 0b 33
        E 16 b0 0b 2a
        E 16 b0 0b 22
        E 16 b0 0b 2a
        E 16 b0 0b 33
        E 16 b0 0b 3b
        E 16 b0 0b 44
        E 16 b0 0b 3b
        E 16 b0 0b 33
        E 16 b0 0b 2a
        E 16 b0 0b 66
        E 0 80 3a 00
        E 0 90 37 66
        E 16 b0 0b 5d
        E 16 b0 0b 55
        E 16 b0 0b 4c
        E 16 b0 0b 44
        E 16 b0 0b 3b
        E 16 b0 0b 33
        E 16 b0 0b 2a
        E 16 b0 0b 22
        E 16 b0 0b 2a
        E 16 b0 0b 33
        E 16 b0 0b 3b
        E 16 b0 0b 44
        E 16 b0 0b 3b
        E 16 b0 0b 33
        E 16 b0 0b 2a
        E 16 b0 0b 22
        E 16 b0 0b 2a
        E 16 b0 0b 33
        E 16 b0 0b 3b
        E 16 b0 0b 44
        E 16 b0 0b 3b
        E 16 b0 0b 33
        E 16 b0 0b 2a
        E 16 b0 0b 22
        E 16 b0 0b 2a
        E 16 b0 0b 33
        E 16 b0 0b 3b
        E 16 b0 0b 44
        E 16 b0 0b 4c
        E 16 b0 0b 55
        E 16 b0 0b 5d
        E 272 b0 0b 66
        E 0 80 37 00
        E 0 90 41 66
        E 16 b0 0b 5d
        E 16 b0 0b 55
        E 16 b0 0b 4c
        E 16 b0 0b 44
        E 16 b0 0b 3b
        E 16 b0 0b 33
        E 16 b0 0b 2a
        E 16 b0 0b 22
        E 16 b0 0b 2a
        E 16 b0 0b 33
        E 16 b0 0b 3b
        E 16 b0 0b 66
        E 0 80 41 00
        E 0 90 40 66
        E 16 b0 0b 5d
        E 16 b0 0b 55
        E 16 b0 0b 4c
        E 16 b0 0b 44
        E 16 b0 0b 3b
        E 16 b0 0b 33
        E 16 b0 0b 2a
        E 16 b0 0b 22
        E 16 b0 0b 2a
        E 16 b0 0b 33
        E 16 b0 0b 3b
        E 16 b0 0b 66
        E 0 80 40 00
        E 0 90 3e 66
        E 16 b0 0b 5d
        E 16 b0 0b 55
        E 16 b0 0b 4c
        E 16 b0 0b 44
        E 16 b0 0b 3b
        E 16 b0 0b 33
        E 16 b0 0b 2a
        E 16 b0 0b 22
        E 16 b0 0b 2a
        E 16 b0 0b 33
        E 16 b0 0b 3b
        E 16 b0 0b 66
        E 0 80 3e 00
        E 0 90 40 66
        E 16 b0 0b 5d
        E 16 b0 0b 55
        E 16 b0 0b 4c
        E 16 b0 0b 44
        E 16 b0 0b 3b
        E 16 b0 0b 33
        E 16 b0 0b 2a
        E 16 b0 0b 22
        E 16 b0 0b 2a
        E 16 b0 0b 33
        E 16 b0 0b 3b
        E 16 b0 0b 66
        E 0 80 40 00
        E 0 90 3c 66
        E 16 b0 0b 5d
        E 16 b0 0b 55
        E 16 b0 0b 4c
        E 16 b0 0b 44
        E 16 b0 0b 3b
        E 16 b0 0b 33
        E 16 b0 0b 2a
        E 16 b0 0b 22
        E 16 b0 0b 2a
        E 16 b0 0b 33
        E 16 b0 0b 3b
        E 16 b0 0b 44
        E 16 b0 0b 3b
        E 16 b0 0b 33
        E 16 b0 0b 2a
        E 16 b0 0b 22
        E 16 b0 0b 2a
        E 16 b0 0b 33
        E 16 b0 0b 3b
        E 16 b0 0b 44
        E 16 b0 0b 3b
        E 16 b0 0b 33
        E 16 b0 0b 2a
        E 16 b0 0b 22
        E 16 b0 0b 2a
        E 16 b0 0b 33
        E 16 b0 0b 3b
        E 16 b0 0b 44
        E 16 b0 0b 4c
        E 16 b0 0b 55
        E 16 b0 0b 5d
        E 656 b0 0b 66
        E 0 80 3c 00
        E 0 90 39 66
        E 16 b0 0b 5d
        E 16 b0 0b 55
        E 16 b0 0b 4c
        E 16 b0 0b 44
        E 16 b0 0b 3b
        E 16 b0 0b 33
        E 16 b0 0b 2a
        E 16 b0 0b 22
        E 16 b0 0b 2a
        E 16 b0 0b 33
        E 16 b0 0b 3b
        E 16 b0 0b 44
        E 16 b0 0b 3b
        E 16 b0 0b 33
        E 16 b0 0b 2a
        E 16 b0 0b 22
        E 16 b0 0b 2a
        E 16 b0 0b 33
        E 16 b0 0b 3b
        E 16 b0 0b 44
        E 16 b0 0b 3b
        E 16 b0 0b 33
        E 16 b0 0b 2a
        E 16 b0 0b 66
        E 0 80 39 00
        E 0 90 36 66
        E 16 b0 0b 5d
        E 16 b0 0b 55
        E 16 b0 0b 4c
        E 16 b0 0b 44
        E 16 b0 0b 3b
        E 16 b0 0b 33
        E 16 b0 0b 2a
        E 16 b0 0b 22
        E 16 b0 0b 2a
        E 16 b0 0b 33
        E 16 b0 0b 3b
        E 16 b0 0b 44
        E 16 b0 0b 3b
        E 16 b0 0b 33
        E 16 b0 0b 2a
        E 16 b0 0b 22
        E 16 b0 0b 2a
        E 16 b0 0b 33
        E 16 b0 0b 3b
        E 16 b0 0b 44
        E 16 b0 0b 3b
        E 16 b0 0b 33
        E 16 b0 0b 2a
        E 16 b0 0b 22
        E 16 b0 0b 2a
        E 16 b0 0b 33
        E 16 b0 0b 3b
        E 16 b0 0b 44
        E 16 b0 0b 4c
        E 16 b0 0b 55
        E 16 b0 0b 5d
        E 272 b0 0b 66
        E 0 80 36 00
        E 0 90 3e 66
        E 16 b0 0b 5d
        E 16 b0 0b 55
        E 16 b0 0b 4c
        E 16 b0 0b 44
        E 16 b0 0b 3b
        E 16 b0 0b 33
        E 16 b0 0b 2a
        E 16 b0 0b 22
        E 16 b0 0b 2a
        E 16 b0 0b 33
        E 16 b0 0b 3b
        E 16 b0 0b 66
        E 0 80 3e 00
        E 0 90 3c 66
        E 16 b0 0b 5d
        E 16 b0 0b 55
        E 16 b0 0b 4c
        E 16 b0 0b 44
        E 16 b0 0b 3b
        E 16 b0 0b 33
        E 16 b0 0b 2a
        E 16 b0 0b 22
        E 16 b0 0b 2a
        E 16 b0 0b 33
        E 16 b0 0b 3b
        E 16 b0 0b 66
        E 0 80 3c 00
        E 0 90 3a 66
        E 16 b0 0b 5d
        E 16 b0 0b 55
        E 16 b0 0b 4c
        E 16 b0 0b 44
        E 16 b0 0b 3b
        E 16 b0 0b 33
        E 16 b0 0b 2a
        E 16 b0 0b 22
        E 16 b0 0b 2a
        E 16 b0 0b 33
        E 16 b0 0b 3b
        E 16 b0 0b 66
        E 0 80 3a 00
        E 0 90 39 66
        E 16 b0 0b 5d
        E 16 b0 0b 55
        E 16 b0 0b 4c
        E 16 b0 0b 44
        E 16 b0 0b 3b
        E 16 b0 0b 33
        E 16 b0 0b 2a
        E 16 b0 0b 22
        E 16 b0 0b 2a
        E 16 b0 0b 33
        E 16 b0 0b 3b
        E 16 b0 0b 66
        E 0 80 39 00
        E 0 90 3a 66
        E 16 b0 0b 5d
        E 16 b0 0b 55
        E 16 b0 0b 4c
        E 16 b0 0b 44
        E 16 b0 0b 3b
        E 16 b0 0b 33
        E 16 b0 0b 2a
        E 16 b0 0b 22
        E 16 b0 0b 2a
        E 16 b0 0b 33
        E 16 b0 0b 3b
        E 16 b0 0b 44
        E 16 b0 0b 3b
        E 16 b0 0b 33
        E 16 b0 0b 2a
        E 16 b0 0b 22
        E 16 b0 0b 2a
        E 16 b0 0b 33
        E 16 b0 0b 3b
        E 16 b0 0b 44
        E 16 b0 0b 3b
        E 16 b0 0b 33
        E 16 b0 0b 2a
        E 16 b0 0b 22
        E 16 b0 0b 2a
        E 16 b0 0b 33
        E 16 b0 0b 3b
        E 16 b0 0b 44
        E 16 b0 0b 4c
        E 16 b0 0b 55
        E 16 b0 0b 5d
        E 464 b0 0b 66
        E 0 80 3a 00
        E 0 90 37 66
        E 16 b0 0b 5d
        E 16 b0 0b 55
        E 16 b0 0b 4c
        E 16 b0 0b 44
        E 16 b0 0b 3b
        E 16 b0 0b 33
        E 16 b0 0b 2a
        E 16 b0 0b 22
        E 16 b0 0b 2a
        E 16 b0 0b 33
        E 16 b0 0b 3b
        E 16 b0 0b 66
        E 0 80 37 00
        E 0 90 39 66
        E 16 b0 0b 5d
        E 16 b0 0b 55
        E 16 b0 0b 4c
        E 16 b0 0b 44
        E 16 b0 0b 3b
        E 16 b0 0b 33
        E 16 b0 0b 2a
        E 16 b0 0b 22
        E 16 b0 0b 2a
        E 16 b0 0b 33
        E 16 b0 0b 3b
        E 16 b0 0b 66
        E 0 80 39 00
        E 0 90 3a 66
        E 16 b0 0b 5d
        E 16 b0 0b 55
        E 16 b0 0b 4c
        E 16 b0 0b 44
        E 16 b0 0b 3b
        E 16 b0 0b 33
        E 16 b0 0b 2a
        E 16 b0 0b 22
        E 16 b0 0b 2a
        E 16 b0 0b 33
        E 16 b0 0b 3b
        E 16 b0 0b 66
        E 0 80 3a 00
        E 0 90 3c 66
        E 16 b0 0b 5d
        E 16 b0 0b 55
        E 16 b0 0b 4c
        E 16 b0 0b 44
        E 16 b0 0b 3b
        E 16 b0 0b 33
        E 16 b0 0b 2a
        E 16 b0 0b 22
        E 16 b0 0b 2a
        E 16 b0 0b 33
        E 16 b0 0b 3b
        E 16 b0 0b 44
        E 16 b0 0b 3b
        E 16 b0 0b 33
        E 16 b0 0b 2a
        E 16 b0 0b 22
        E 16 b0 0b 2a
        E 16 b0 0b 33
        E 16 b0 0b 3b
        E 16 b0 0b 44
        E 16 b0 0b 3b
        E 16 b0 0b 33
        E 16 b0 0b 2a
        E 16 b0 0b 22
        E 16 b0 0b 2a
        E 16 b0 0b 33
        E 16 b0 0b 3b
        E 16 b0 0b 44
        E 16 b0 0b 4c
        E 16 b0 0b 55
        E 16 b0 0b 5d
        E 272 b0 0b 66
        E 0 80 3c 00
        E 0 90 39 66
        E 16 b0 0b 5d
        E 16 b0 0b 55
        E 16 b0 0b 4c
        E 16 b0 0b 44
        E 16 b0 0b 3b
        E 16 b0 0b 33
        E 16 b0 0b 2a
        E 16 b0 0b 22
        E 16 b0 0b 2a
        E 16 b0 0b 33
        E 16 b0 0b 3b
        E 16 b0 0b 44
        E 16 b0 0b 3b
        E 16 b0 0b 33
        E 16 b0 0b 2a
        E 16 b0 0b 22
        E 16 b0 0b 2a
        E 16 b0 0b 33
        E 16 b0 0b 3b
        E 16 b0 0b 44
        E 16 b0 0b 3b
        E 16 b0 0b 33
        E 16 b0 0b 2a
        E 16 b0 0b 66
        E 0 80 39 00
        E 0 90 3a 66
        E 16 b0 0b 5d
        E 16 b0 0b 55
        E 16 b0 0b 4c
        E 16 b0 0b 44
        E 16 b0 0b 3b
        E 16 b0 0b 33
        E 16 b0 0b 2a
        E 16 b0 0b 22
        E 16 b0 0b 2a
        E 16 b0 0b 33
        E 16 b0 0b 3b
        E 16 b0 0b 44
        E 16 b0 0b 3b
        E 16 b0 0b 33
        E 16 b0 0b 2a
        E 16 b0 0b 22
        E 16 b0 0b 2a
        E 16 b0 0b 33
        E 16 b0 0b 3b
        E 16 b0 0b 44
        E 16 b0 0b 3b
        E 16 b0 0b 33
        E 16 b0 0b 2a
        E 16 b0 0b 66
        E 0 80 3a 00
        E 0 90 3c 66
        E 16 b0 0b 5d
        E 16 b0 0b 55
        E 16 b0 0b 4c
        E 16 b0 0b 44
        E 16 b0 0b 3b
        E 16 b0 0b 33
        E 16 b0 0b 2a
        E 16 b0 0b 22
        E 16 b0 0b 2a
        E 16 b0 0b 33
        E 16 b0 0b 3b
        E 16 b0 0b 44
        E 16 b0 0b 3b
        E 16 b0 0b 33
        E 16 b0 0b 2a
        E 16 b0 0b 22
        E 16 b0 0b 2a
        E 16 b0 0b 33
        E 16 b0 0b 3b
        E 16 b0 0b 44
        E 16 b0 0b 3b
        E 16 b0 0b 33
        E 16 b0 0b 2a
        E 16 b0 0b 22
        E 16 b0 0b 2a
        E 16 b0 0b 33
        E 16 b0 0b 3b
        E 16 b0 0b 44
        E 16 b0 0b 4c
        E 16 b0 0b 55
        E 16 b0 0b 5d
        E 1040 b0 0b 66
        E 16 b0 0b 5d
        E 16 b0 0b 55
        E 16 b0 0b 4c
        E 16 b0 0b 44
        E 16 b0 0b 3b
        E 16 b0 0b 33
        E 16 b0 0b 2a
        E 16 b0 0b 22
        E 16 b0 0b 2a
        E 16 b0 0b 33
        E 16 b0 0b 3b
        E 16 b0 0b 44
        E 16 b0 0b 3b
        E 16 b0 0b 33
        E 16 b0 0b 2a
        E 16 b0 0b 22
        E 16 b0 0b 2a
        E 16 b0 0b 33
        E 16 b0 0b 3b
        E 16 b0 0b 44
        E 16 b0 0b 3b
        E 16 b0 0b 33
        E 16 b0 0b 2a
        E 16 b0 0b 22
        E 16 b0 0b 2a
        E 16 b0 0b 33
        E 16 b0 0b 3b
        E 16 b0 0b 44
        E 16 b0 0b 4c
        E 16 b0 0b 55
        E 16 b0 0b 5d
        E 272 b0 0b 66
        E 0 80 3c 00
        E 0 90 43 66
        E 16 b0 0b 5d
        E 16 b0 0b 55
        E 16 b0 0b 4c
        E 16 b0 0b 44
        E 16 b0 0b 3b
        E 16 b0 0b 33
        E 16 b0 0b 2a
        E 16 b0 0b 22
        E 16 b0 0b 2a
        E 16 b0 0b 33
        E 16 b0 0b 3b
        E 16 b0 0b 66
        E 0 80 43 00
        E 0 90 41 66
        E 16 b0 0b 5d
        E 16 b0 0b 55
        E 16 b0 0b 4c
        E 16 b0 0b 44
        E 16 b0 0b 3b
        E 16 b0 0b 33
        E 16 b0 0b 2a
        E 16 b0 0b 22
        E 16 b0 0b 2a
        E 16 b0 0b 33
        E 16 b0 0b 3b
        E 16 b0 0b 66
        E 0 80 41 00
        E 0 90 40 66
        E 16 b0 0b 5d
        E 16 b0 0b 55
        E 16 b0 0b 4c
        E 16 b0 0b 44
        E 16 b0 0b 3b
        E 16 b0 0b 33
        E 16 b0 0b 2a
        E 16 b0 0b 22
        E 16 b0 0b 2a
        E 16 b0 0b 33
        E 16 b0 0b 3b
        E 16 b0 0b 66
        E 0 80 40 00
        E 0 90 41 66
        E 16 b0 0b 5d
        E 16 b0 0b 55
        E 16 b0 0b 4c
        E 16 b0 0b 44
        E 16 b0 0b 3b
        E 16 b0 0b 33
        E 16 b0 0b 2a
        E 16 b0 0b 22
        E 16 b0 0b 2a
        E 16 b0 0b 33
        E 16 b0 0b 3b
        E 16 b0 0b 66
        E 0 80 41 00
        E 0 90 3e 66
        E 16 b0 0b 5d
        E 16 b0 0b 55
        E 16 b0 0b 4c
        E 16 b0 0b 44
        E 16 b0 0b 3b
        E 16 b0 0b 33
        E 16 b0 0b 2a
        E 16 b0 0b 22
        E 16 b0 0b 2a
        E 16 b0 0b 33
        E 16 b0 0b 3b
        E 16 b0 0b 44
        E 16 b0 0b 3b
        E 16 b0 0b 33
        E 16 b0 0b 2a
        E 16 b0 0b 22
        E 16 b0 0b 2a
        E 16 b0 0b 33
        E 16 b0 0b 3b
        E 16 b0 0b 44
        E 16 b0 0b 3b
        E 16 b0 0b 33
        E 16 b0 0b 2a
        E 16 b0 0b 22
        E 16 b0 0b 2a
        E 16 b0 0b 33
        E 16 b0 0b 3b
        E 16 b0 0b 44
        E 16 b0 0b 4c
        E 16 b0 0b 55
        E 16 b0 0b 5d
        E 656 b0 0b 66
        E 0 80 3e 00
        E 0 90 3a 66
        E 16 b0 0b 5d
        E 16 b0 0b 55
        E 16 b0 0b 4c
        E 16 b0 0b 44
        E 16 b0 0b 3b
        E 16 b0 0b 33
        E 16 b0 0b 2a
        E 16 b0 0b 22
        E 16 b0 0b 2a
        E 16 b0 0b 33
        E 16 b0 0b 3b
        E 16 b0 0b 44
        E 16 b0 0b 3b
        E 16 b0 0b 33
        E 16 b0 0b 2a
        E 16 b0 0b 22
        E 16 b0 0b 2a
        E 16 b0 0b 33
        E 16 b0 0b 3b
        E 16 b0 0b 44
        E 16 b0 0b 3b
        E 16 b0 0b 33
        E 16 b0 0b 2a
        E 16 b0 0b 66
        E 0 80 3a 00
        E 0 90 37 66
        E 16 b0 0b 5d
        E 16 b0 0b 55
        E 16 b0 0b 4c
        E 16 b0 0b 44
        E 16 b0 0b 3b
        E 16 b0 0b 33
        E 16 b0 0b 2a
        E 16 b0 0b 22
        E 16 b0 0b 2a
        E 16 b0 0b 33
        E 16 b0 0b 3b
        E 16 b0 0b 44
        E 16 b0 0b 3b
        E 16 b0 0b 33
        E 16 b0 0b 2a
        E 16 b0 0b 22
        E 16 b0 0b 2a
        E 16 b0 0b 33
        E 16 b0 0b 3b
        E 16 b0 0b 44
        E 16 b0 0b 3b
        E 16 b0 0b 33
        E 16 b0 0b 2a
        E 16 b0 0b 22
        E 16 b0 0b 2a
        E 16 b0 0b 33
        E 16 b0 0b 3b
        E 16 b0 0b 44
        E 16 b0 0b 4c
        E 16 b0 0b 55
        E 16 b0 0b 5d
        E 272 b0 0b 66
        E 0 80 37 00
        E 0 90 41 66
        E 16 b0 0b 5d
        E 16 b0 0b 55
        E 16 b0 0b 4c
        E 16 b0 0b 44
        E 16 b0 0b 3b
        E 16 b0 0b 33
        E 16 b0 0b 2a
        E 16 b0 0b 22
        E 16 b0 0b 2a
        E 16 b0 0b 33
        E 16 b0 0b 3b
        E 16 b0 0b 66
        E 0 80 41 00
        E 0 90 40 66
        E 16 b0 0b 5d
        E 16 b0 0b 55
        E 16 b0 0b 4c
        E 16 b0 0b 44
        E 16 b0 0b 3b
        E 16 b0 0b 33
        E 16 b0 0b 2a
        E 16 b0 0b 22
        E 16 b0 0b 2a
        E 16 b0 0b 33
        E 16 b0 0b 3b
        E 16 b0 0b 66
        E 0 80 40 00
        E 0 90 3e 66
        E 16 b0 0b 5d
        E 16 b0 0b 55
        E 16 b0 0b 4c
        E 16 b0 0b 44
        E 16 b0 0b 3b
        E 16 b0 0b 33
        E 16 b0 0b 2a
        E 16 b0 0b 22
        E 16 b0 0b 2a
        E 16 b0 0b 33
        E 16 b0 0b 3b
        E 16 b0 0b 66
        E 0 80 3e 00
        E 0 90 40 66
        E 16 b0 0b 5d
        E 16 b0 0b 55
        E 16 b0 0b 4c
        E 16 b0 0b 44
        E 16 b0 0b 3b
        E 16 b0 0b 33
        E 16 b0 0b 2a
        E 16 b0 0b 22
        E 16 b0 0b 2a
        E 16 b0 0b 33
        E 16 b0 0b 3b
        E 16 b0 0b 66
        E 0 80 40 00
        E 0 90 3c 66
        E 16 b0 0b 5d
        E 16 b0 0b 55
        E 16 b0 0b 4c
        E 16 b0 0b 44
        E 16 b0 0b 3b
        E 16 b0 0b 33
        E 16 b0 0b 2a
        E 16 b0 0b 22
        E 16 b0 0b 2a
        E 16 b0 0b 33
        E 16 b0 0b 3b
        E 16 b0 0b 44
        E 16 b0 0b 3b
        E 16 b0 0b 33
        E 16 b0 0b 2a
        E 16 b0 0b 22
        E 16 b0 0b 2a
        E 16 b0 0b 33
        E 16 b0 0b 3b
        E 16 b0 0b 44
        E 16 b0 0b 3b
        E 16 b0 0b 33
        E 16 b0 0b 2a
        E 16 b0 0b 22
        E 16 b0 0b 2a
        E 16 b0 0b 33
        E 16 b0 0b 3b
        E 16 b0 0b 44
        E 16 b0 0b 4c
        E 16 b0 0b 55
        E 16 b0 0b 5d
        E 656 b0 0b 66
        E 0 80 3c 00
        E 0 90 39 66
        E 16 b0 0b 5d
        E 16 b0 0b 55
        E 16 b0 0b 4c
        E 16 b0 0b 44
        E 16 b0 0b 3b
        E 16 b0 0b 33
        E 16 b0 0b 2a
        E 16 b0 0b 22
        E 16 b0 0b 2a
        E 16 b0 0b 33
        E 16 b0 0b 3b
        E 16 b0 0b 44
        E 16 b0 0b 3b
        E 16 b0 0b 33
        E 16 b0 0b 2a
        E 16 b0 0b 22
        E 16 b0 0b 2a
        E 16 b0 0b 33
        E 16 b0 0b 3b
        E 16 b0 0b 44
        E 16 b0 0b 3b
        E 16 b0 0b 33
        E 16 b0 0b 2a
        E 16 b0 0b 66
        E 0 80 39 00
        E 0 90 36 66
        E 16 b0 0b 5d
        E 16 b0 0b 55
        E 16 b0 0b 4c
        E 16 b0 0b 44
        E 16 b0 0b 3b
        E 16 b0 0b 33
        E 16 b0 0b 2a
        E 16 b0 0b 22
        E 16 b0 0b 2a
        E 16 b0 0b 33
        E 16 b0 0b 3b
        E 16 b0 0b 44
        E 16 b0 0b 3b
        E 16 b0 0b 33
        E 16 b0 0b 2a
        E 16 b0 0b 22
        E 16 b0 0b 2a
        E 16 b0 0b 33
        E 16 b0 0b 3b
        E 16 b0 0b 44
        E 16 b0 0b 3b
        E 16 b0 0b 33
        E 16 b0 0b 2a
        E 16 b0 0b 22
        E 16 b0 0b 2a
        E 16 b0 0b 33
        E 16 b0 0b 3b
        E 16 b0 0b 44
        E 16 b0 0b 4c
        E 16 b0 0b 55
        E 16 b0 0b 5d
        E 272 b0 0b 66
        E 0 80 36 00
        E 0 90 3e 66
        E 16 b0 0b 5d
        E 16 b0 0b 55
        E 16 b0 0b 4c
        E 16 b0 0b 44
        E 16 b0 0b 3b
        E 16 b0 0b 33
        E 16 b0 0b 2a
        E 16 b0 0b 22
        E 16 b0 0b 2a
        E 16 b0 0b 33
        E 16 b0 0b 3b
        E 16 b0 0b 66
        E 0 80 3e 00
        E 0 90 3c 66
        E 16 b0 0b 5d
        E 16 b0 0b 55
        E 16 b0 0b 4c
        E 16 b0 0b 44
        E 16 b0 0b 3b
        E 16 b0 0b 33
        E 16 b0 0b 2a
        E 16 b0 0b 22
        E 16 b0 0b 2a
        E 16 b0 0b 33
        E 16 b0 0b 3b
        E 16 b0 0b 66
        E 0 80 3c 00
        E 0 90 3a 66
        E 16 b0 0b 5d
        E 16 b0 0b 55
        E 16 b0 0b 4c
        E 16 b0 0b 44
        E 16 b0 0b 3b
        E 16 b0 0b 33
        E 16 b0 0b 2a
        E 16 b0 0b 22
        E 16 b0 0b 2a
        E 16 b0 0b 33
        E 16 b0 0b 3b
        E 16 b0 0b 66
        E 0 80 3a 00
        E 0 90 39 66
        E 16 b0 0b 5d
        E 16 b0 0b 55
        E 16 b0 0b 4c
        E 16 b0 0b 44
        E 16 b0 0b 3b
        E 16 b0 0b 33
        E 16 b0 0b 2a
        E 16 b0 0b 22
        E 16 b0 0b 2a
        E 16 b0 0b 33
        E 16 b0 0b 3b
        E 16 b0 0b 66
        E 0 80 39 00
        E 0 90 3a 66
        E 16 b0 0b 5d
        E 16 b0 0b 55
        E 16 b0 0b 4c
        E 16 b0 0b 44
        E 16 b0 0b 3b
        E 16 b0 0b 33
        E 16 b0 0b 2a
        E 16 b0 0b 22
        E 16 b0 0b 2a
        E 16 b0 0b 33
        E 16 b0 0b 3b
        E 16 b0 0b 44
        E 16 b0 0b 3b
        E 16 b0 0b 33
        E 16 b0 0b 2a
        E 16 b0 0b 22
        E 16 b0 0b 2a
        E 16 b0 0b 33
        E 16 b0 0b 3b
        E 16 b0 0b 44
        E 16 b0 0b 3b
        E 16 b0 0b 33
        E 16 b0 0b 2a
        E 16 b0 0b 22
        E 16 b0 0b 2a
        E 16 b0 0b 33
        E 16 b0 0b 3b
        E 16 b0 0b 44
        E 16 b0 0b 4c
        E 16 b0 0b 55
        E 16 b0 0b 5d
        E 272 b0 0b 66
        E 16 b0 0b 5d
        E 16 b0 0b 55
        E 16 b0 0b 4c
        E 16 b0 0b 44
        E 16 b0 0b 3b
        E 16 b0 0b 33
        E 16 b0 0b 2a
        E 16 b0 0b 22
        E 16 b0 0b 2a
        E 16 b0 0b 33
        E 16 b0 0b 3b
        E 16 b0 0b 66
        E 0 80 3a 00
        E 0 90 37 66
        E 16 b0 0b 5d
        E 16 b0 0b 55
        E 16 b0 0b 4c
        E 16 b0 0b 44
        E 16 b0 0b 3b
        E 16 b0 0b 33
        E 16 b0 0b 2a
        E 16 b0 0b 22
        E 16 b0 0b 2a
        E 16 b0 0b 33
        E 16 b0 0b 3b
        E 16 b0 0b 66
        E 0 80 37 00
        E 0 90 39 66
        E 16 b0 0b 5d
        E 16 b0 0b 55
        E 16 b0 0b 4c
        E 16 b0 0b 44
        E 16 b0 0b 3b
        E 16 b0 0b 33
        E 16 b0 0b 2a
        E 16 b0 0b 22
        E 16 b0 0b 2a
        E 16 b0 0b 33
        E 16 b0 0b 3b
        E 16 b0 0b 66
        E 0 80 39 00
        E 0 90 3a 66
        E 16 b0 0b 5d
        E 16 b0 0b 55
        E 16 b0 0b 4c
        E 16 b0 0b 44
        E 16 b0 0b 3b
        E 16 b0 0b 33
        E 16 b0 0b 2a
        E 16 b0 0b 22
        E 16 b0 0b 2a
        E 16 b0 0b 33
        E 16 b0 0b 3b
        E 16 b0 0b 66
        E 0 80 3a 00
        E 0 90 3c 66
        E 16 b0 0b 5d
        E 16 b0 0b 55
        E 16 b0 0b 4c
        E 16 b0 0b 44
        E 16 b0 0b 3b
        E 16 b0 0b 33
        E 16 b0 0b 2a
        E 16 b0 0b 22
        E 16 b0 0b 2a
        E 16 b0 0b 33
        E 16 b0 0b 3b
        E 16 b0 0b 44
        E 16 b0 0b 3b
        E 16 b0 0b 33
        E 16 b0 0b 2a
        E 16 b0 0b 22
        E 16 b0 0b 2a
        E 16 b0 0b 33
        E 16 b0 0b 3b
        E 16 b0 0b 44
        E 16 b0 0b 3b
        E 16 b0 0b 33
        E 16 b0 0b 2a
        E 16 b0 0b 22
        E 16 b0 0b 2a
        E 16 b0 0b 33
        E 16 b0 0b 3b
        E 16 b0 0b 44
        E 16 b0 0b 4c
        E 16 b0 0b 55
        E 16 b0 0b 5d
        E 1424 b0 0b 66
        E 16 b0 0b 5d
        E 16 b0 0b 55
        E 16 b0 0b 4c
        E 16 b0 0b 44
        E 16 b0 0b 3b
        E 16 b0 0b 33
        E 16 b0 0b 2a
        E 16 b0 0b 22
        E 16 b0 0b 2a
        E 16 b0 0b 33
        E 16 b0 0b 3b
        E 16 b0 0b 44
        E 16 b0 0b 3b
        E 16 b0 0b 33
        E 16 b0 0b 2a
        E 16 b0 0b 22
        E 16 b0 0b 2a
        E 16 b0 0b 33
        E 16 b0 0b 3b
        E 16 b0 0b 44
        E 16 b0 0b 3b
        E 16 b0 0b 33
        E 16 b0 0b 2a
        E 16 b0 0b 66
        E 0 80 3c 00
        E 0 90 3e 66
        E 16 b0 0b 5d
        E 16 b0 0b 55
        E 16 b0 0b 4c
        E 16 b0 0b 44
        E 16 b0 0b 3b
        E 16 b0 0b 33
        E 16 b0 0b 2a
        E 16 b0 0b 22
        E 16 b0 0b 2a
        E 16 b0 0b 33
        E 16 b0 0b 3b
        E 16 b0 0b 44
        E 16 b0 0b 3b
        E 16 b0 0b 33
        E 16 b0 0b 2a
        E 16 b0 0b 22
        E 16 b0 0b 2a
        E 16 b0 0b 33
        E 16 b0 0b 3b
        E 16 b0 0b 44
        E 16 b0 0b 3b
        E 16 b0 0b 33
        E 16 b0 0b 2a
        E 16 b0 0b 66
        E 0 80 3e 00
        E 0 90 40 66
        E 16 b0 0b 5d
        E 16 b0 0b 55
        E 16 b0 0b 4c
        E 16 b0 0b 44
        E 16 b0 0b 3b
        E 16 b0 0b 33
        E 16 b0 0b 2a
        E 16 b0 0b 22
        E 16 b0 0b 2a
        E 16 b0 0b 33
        E 16 b0 0b 3b
        E 16 b0 0b 44
        E 16 b0 0b 3b
        E 16 b0 0b 33
        E 16 b0 0b 2a
        E 16 b0 0b 22
        E 16 b0 0b 2a
        E 16 b0 0b 33
        E 16 b0 0b 3b
        E 16 b0 0b 44
        E 16 b0 0b 3b
        E 16 b0 0b 33
        E 16 b0 0b 2a
        E 16 b0 0b 66
        E 0 80 40 00
        E 0 90 43 66
        E 16 b0 0b 5d
        E 16 b0 0b 55
        E 16 b0 0b 4c
        E 16 b0 0b 44
        E 16 b0 0b 3b
        E 16 b0 0b 33
        E 16 b0 0b 2a
        E 16 b0 0b 22
        E 16 b0 0b 2a
        E 16 b0 0b 33
        E 16 b0 0b 3b
        E 16 b0 0b 44
        E 16 b0 0b 3b
        E 16 b0 0b 33
        E 16 b0 0b 2a
        E 16 b0 0b 22
        E 16 b0 0b 2a
        E 16 b0 0b 33
        E 16 b0 0b 3b
        E 16 b0 0b 44
        E 16 b0 0b 3b
        E 16 b0 0b 33
        E 16 b0 0b 2a
        E 16 b0 0b 66
        E 0 80 43 00
        E 0 90 41 66
        E 16 b0 0b 5d
        E 16 b0 0b 55
        E 16 b0 0b 4c
        E 16 b0 0b 44
        E 16 b0 0b 3b
        E 16 b0 0b 33
        E 16 b0 0b 2a
        E 16 b0 0b 22
        E 16 b0 0b 2a
        E 16 b0 0b 33
        E 16 b0 0b 3b
        E 16 b0 0b 44
        E 16 b0 0b 3b
        E 16 b0 0b 33
        E 16 b0 0b 2a
        E 16 b0 0b 22
        E 16 b0 0b 2a
        E 16 b0 0b 33
        E 16 b0 0b 3b
        E 16 b0 0b 44
        E 16 b0 0b 3b
        E 16 b0 0b 33
        E 16 b0 0b 2a
        E 16 b0 0b 66
        E 0 80 41 00
        E 0 90 40 66
        E 16 b0 0b 5d
        E 16 b0 0b 55
        E 16 b0 0b 4c
        E 16 b0 0b 44
        E 16 b0 0b 3b
        E 16 b0 0b 33
        E 16 b0 0b 2a
        E 16 b0 0b 22
        E 16 b0 0b 2a
        E 16 b0 0b 33
        E 16 b0 0b 3b
        E 16 b0 0b 44
        E 16 b0 0b 3b
        E 16 b0 0b 33
        E 16 b0 0b 2a
        E 16 b0 0b 22
        E 16 b0 0b 2a
        E 16 b0 0b 33
        E 16 b0 0b 3b
        E 16 b0 0b 44
        E 16 b0 0b 3b
        E 16 b0 0b 33
        E 16 b0 0b 2a
        E 16 b0 0b 66
        E 0 80 40 00
        E 0 90 41 66
        E 16 b0 0b 5d
        E 16 b0 0b 55
        E 16 b0 0b 4c
        E 16 b0 0b 44
        E 16 b0 0b 3b
        E 16 b0 0b 33
        E 16 b0 0b 2a
        E 16 b0 0b 22
        E 16 b0 0b 2a
        E 16 b0 0b 33
        E 16 b0 0b 3b
        E 16 b0 0b 44
        E 16 b0 0b 3b
        E 16 b0 0b 33
        E 16 b0 0b 2a
        E 16 b0 0b 22
        E 16 b0 0b 2a
        E 16 b0 0b 33
        E 16 b0 0b 3b
        E 16 b0 0b 44
        E 16 b0 0b 3b
        E 16 b0 0b 33
        E 16 b0 0b 2a
        E 16 b0 0b 66
        E 0 80 41 00
        E 0 90 40 66
        E 16 b0 0b 5d
        E 16 b0 0b 55
        E 16 b0 0b 4c
        E 16 b0 0b 44
        E 16 b0 0b 3b
        E 16 b0 0b 33
        E 16 b0 0b 2a
        E 16 b0 0b 22
        E 16 b0 0b 2a
        E 16 b0 0b 33
        E 16 b0 0b 3b
        E 16 b0 0b 44
        E 16 b0 0b 3b
        E 16 b0 0b 33
        E 16 b0 0b 2a
        E 16 b0 0b 22
        E 16 b0 0b 2a
        E 16 b0 0b 33
        E 16 b0 0b 3b
        E 16 b0 0b 44
        E 16 b0 0b 3b
        E 16 b0 0b 33
        E 16 b0 0b 2a
        E 16 b0 0b 22
        E 16 b0 0b 2a
        E 16 b0 0b 33
        E 16 b0 0b 3b
        E 16 b0 0b 44
        E 16 b0 0b 4c
        E 16 b0 0b 55
        E 16 b0 0b 5d
        E 272 b0 0b 66
        E 0 80 40 00
        E 0 90 3c 66
        E 16 b0 0b 5d
        E 16 b0 0b 55
        E 16 b0 0b 4c
        E 16 b0 0b 44
        E 16 b0 0b 3b
        E 16 b0 0b 33
        E 16 b0 0b 2a
        E 16 b0 0b 22
        E 16 b0 0b 2a
        E 16 b0 0b 33
        E 16 b0 0b 3b
        E 16 b0 0b 44
        E 16 b0 0b 3b
        E 16 b0 0b 33
        E 16 b0 0b 2a
        E 16 b0 0b 22
        E 16 b0 0b 2a
        E 16 b0 0b 33
        E 16 b0 0b 3b
        E 16 b0 0b 44
        E 16 b0 0b 3b
        E 16 b0 0b 33
        E 16 b0 0b 2a
        E 16 b0 0b 66
        E 0 80 3c 00
        E 0 90 39 66
        E 16 b0 0b 5d
        E 16 b0 0b 55
        E 16 b0 0b 4c
        E 16 b0 0b 44
        E 16 b0 0b 3b
        E 16 b0 0b 33
        E 16 b0 0b 2a
        E 16 b0 0b 22
        E 16 b0 0b 2a
        E 16 b0 0b 33
        E 16 b0 0b 3b
        E 16 b0 0b 44
        E 16 b0 0b 3b
        E 16 b0 0b 33
        E 16 b0 0b 2a
        E 16 b0 0b 22
        E 16 b0 0b 2a
        E 16 b0 0b 33
        E 16 b0 0b 3b
        E 16 b0 0b 44
        E 16 b0 0b 3b
        E 16 b0 0b 33
        E 16 b0 0b 2a
        E 16 b0 0b 66
        E 0 80 39 00
        E 0 90 3e 66
        E 16 b0 0b 5d
        E 16 b0 0b 55
        E 16 b0 0b 4c
        E 16 b0 0b 44
        E 16 b0 0b 3b
        E 16 b0 0b 33
        E 16 b0 0b 2a
        E 16 b0 0b 22
        E 16 b0 0b 2a
        E 16 b0 0b 33
        E 16 b0 0b 3b
        E 16 b0 0b 44
        E 16 b0 0b 3b
        E 16 b0 0b 33
        E 16 b0 0b 2a
        E 16 b0 0b 22
        E 16 b0 0b 2a
        E 16 b0 0b 33
        E 16 b0 0b 3b
        E 16 b0 0b 44
        E 16 b0 0b 3b
        E 16 b0 0b 33
        E 16 b0 0b 2a
        E 16 b0 0b 22
        E 16 b0 0b 2a
        E 16 b0 0b 33
        E 16 b0 0b 3b
        E 16 b0 0b 44
        E 16 b0 0b 4c
        E 16 b0 0b 55
        E 16 b0 0b 5d
        E 1424 b0 0b 66
        E 16 b0 0b 5d
        E 16 b0 0b 55
        E 16 b0 0b 4c
        E 16 b0 0b 44
        E 16 b0 0b 3b
        E 16 b0 0b 33
        E 16 b0 0b 2a
        E 16 b0 0b 22
        E 16 b0 0b 2a
        E 16 b0 0b 33
        E 16 b0 0b 3b
        E 16 b0 0b 44
        E 16 b0 0b 3b
        E 16 b0 0b 33
        E 16 b0 0b 2a
        E 16 b0 0b 22
        E 16 b0 0b 2a
        E 16 b0 0b 33
        E 16 b0 0b 3b
        E 16 b0 0b 44
        E 16 b0 0b 3b
        E 16 b0 0b 33
        E 16 b0 0b 2a
        E 16 b0 0b 66
        E 0 80 3e 00
        E 0 90 40 66
        E 16 b0 0b 5d
        E 16 b0 0b 55
        E 16 b0 0b 4c
        E 16 b0 0b 44
        E 16 b0 0b 3b
        E 16 b0 0b 33
        E 16 b0 0b 2a
        E 16 b0 0b 22
        E 16 b0 0b 2a
        E 16 b0 0b 33
        E 16 b0 0b 3b
        E 16 b0 0b 44
        E 16 b0 0b 3b
        E 16 b0 0b 33
        E 16 b0 0b 2a
        E 16 b0 0b 22
        E 16 b0 0b 2a
        E 16 b0 0b 33
        E 16 b0 0b 3b
        E 16 b0 0b 44
        E 16 b0 0b 3b
        E 16 b0 0b 33
        E 16 b0 0b 2a
        E 16 b0 0b 66
        E 0 80 40 00
        E 0 90 41 66
        E 16 b0 0b 5d
        E 16 b0 0b 55
        E 16 b0 0b 4c
        E 16 b0 0b 44
        E 16 b0 0b 3b
        E 16 b0 0b 33
        E 16 b0 0b 2a
        E 16 b0 0b 22
        E 16 b0 0b 2a
        E 16 b0 0b 33
        E 16 b0 0b 3b
        E 16 b0 0b 44
        E 16 b0 0b 3b
        E 16 b0 0b 33
        E 16 b0 0b 2a
        E 16 b0 0b 22
        E 16 b0 0b 2a
        E 16 b0 0b 33
        E 16 b0 0b 3b
        E 16 b0 0b 44
        E 16 b0 0b 3b
        E 16 b0 0b 33
        E 16 b0 0b 2a
        E 16 b0 0b 66
        E 0 80 41 00
        E 0 90 43 66
        E 16 b0 0b 5d
        E 16 b0 0b 55
        E 16 b0 0b 4c
        E 16 b0 0b 44
        E 16 b0 0b 3b
        E 16 b0 0b 33
        E 16 b0 0b 2a
        E 16 b0 0b 22
        E 16 b0 0b 2a
        E 16 b0 0b 33
        E 16 b0 0b 3b
        E 16 b0 0b 44
        E 16 b0 0b 3b
        E 16 b0 0b 33
        E 16 b0 0b 2a
        E 16 b0 0b 22
        E 16 b0 0b 2a
        E 16 b0 0b 33
        E 16 b0 0b 3b
        E 16 b0 0b 44
        E 16 b0 0b 3b
        E 16 b0 0b 33
        E 16 b0 0b 2a
        E 16 b0 0b 66
        E 0 80 43 00
        E 0 90 41 66
        E 16 b0 0b 5d
        E 16 b0 0b 55
        E 16 b0 0b 4c
        E 16 b0 0b 44
        E 16 b0 0b 3b
        E 16 b0 0b 33
        E 16 b0 0b 2a
        E 16 b0 0b 22
        E 16 b0 0b 2a
        E 16 b0 0b 33
        E 16 b0 0b 3b
        E 16 b0 0b 44
        E 16 b0 0b 3b
        E 16 b0 0b 33
        E 16 b0 0b 2a
        E 16 b0 0b 22
        E 16 b0 0b 2a
        E 16 b0 0b 33
        E 16 b0 0b 3b
        E 16 b0 0b 44
        E 16 b0 0b 3b
        E 16 b0 0b 33
        E 16 b0 0b 2a
        E 16 b0 0b 66
        E 0 80 41 00
        E 0 90 40 66
        E 16 b0 0b 5d
        E 16 b0 0b 55
        E 16 b0 0b 4c
        E 16 b0 0b 44
        E 16 b0 0b 3b
        E 16 b0 0b 33
        E 16 b0 0b 2a
        E 16 b0 0b 22
        E 16 b0 0b 2a
        E 16 b0 0b 33
        E 16 b0 0b 3b
        E 16 b0 0b 44
        E 16 b0 0b 3b
        E 16 b0 0b 33
        E 16 b0 0b 2a
        E 16 b0 0b 22
        E 16 b0 0b 2a
        E 16 b0 0b 33
        E 16 b0 0b 3b
        E 16 b0 0b 44
        E 16 b0 0b 3b
        E 16 b0 0b 33
        E 16 b0 0b 2a
        E 16 b0 0b 66
        E 0 80 40 00
        E 0 90 41 66
        E 16 b0 0b 5d
        E 16 b0 0b 55
        E 16 b0 0b 4c
        E 16 b0 0b 44
        E 16 b0 0b 3b
        E 16 b0 0b 33
        E 16 b0 0b 2a
        E 16 b0 0b 22
        E 16 b0 0b 2a
        E 16 b0 0b 33
        E 16 b0 0b 3b
        E 16 b0 0b 44
        E 16 b0 0b 3b
        E 16 b0 0b 33
        E 16 b0 0b 2a
        E 16 b0 0b 22
        E 16 b0 0b 2a
        E 16 b0 0b 33
        E 16 b0 0b 3b
        E 16 b0 0b 44
        E 16 b0 0b 3b
        E 16 b0 0b 33
        E 16 b0 0b 2a
        E 16 b0 0b 66
        E 0 80 41 00
        E 0 90 43 66
        E 16 b0 0b 5d
        E 16 b0 0b 55
        E 16 b0 0b 4c
        E 16 b0 0b 44
        E 16 b0 0b 3b
        E 16 b0 0b 33
        E 16 b0 0b 2a
        E 16 b0 0b 22
        E 16 b0 0b 2a
        E 16 b0 0b 33
        E 16 b0 0b 3b
        E 16 b0 0b 44
        E 16 b0 0b 3b
        E 16 b0 0b 33
        E 16 b0 0b 2a
        E 16 b0 0b 22
        E 16 b0 0b 2a
        E 16 b0 0b 33
        E 16 b0 0b 3b
        E 16 b0 0b 44
        E 16 b0 0b 3b
        E 16 b0 0b 33
        E 16 b0 0b 2a
        E 16 b0 0b 22
        E 16 b0 0b 2a
        E 16 b0 0b 33
        E 16 b0 0b 3b
        E 16 b0 0b 44
        E 16 b0 0b 4c
        E 16 b0 0b 55
        E 16 b0 0b 5d
        E 272 b0 0b 66
        E 0 80 43 00
        E 0 90 3e 66
        E 16 b0 0b 5d
        E 16 b0 0b 55
        E 16 b0 0b 4c
        E 16 b0 0b 44
        E 16 b0 0b 3b
        E 16 b0 0b 33
        E 16 b0 0b 2a
        E 16 b0 0b 22
        E 16 b0 0b 2a
        E 16 b0 0b 33
        E 16 b0 0b 3b
        E 16 b0 0b 44
        E 16 b0 0b 3b
        E 16 b0 0b 33
        E 16 b0 0b 2a
        E 16 b0 0b 22
        E 16 b0 0b 2a
        E 16 b0 0b 33
        E 16 b0 0b 3b
        E 16 b0 0b 44
        E 16 b0 0b 3b
        E 16 b0 0b 33
        E 16 b0 0b 2a
        E 16 b0 0b 66
        E 0 80 3e 00
        E 0 90 45 66
        E 16 b0 0b 5d
        E 16 b0 0b 55
        E 16 b0 0b 4c
        E 16 b0 0b 44
        E 16 b0 0b 3b
        E 16 b0 0b 33
        E 16 b0 0b 2a
        E 16 b0 0b 22
        E 16 b0 0b 2a
        E 16 b0 0b 33
        E 16 b0 0b 3b
        E 16 b0 0b 44
        E 16 b0 0b 3b
        E 16 b0 0b 33
        E 16 b0 0b 2a
        E 16 b0 0b 22
        E 16 b0 0b 2a
        E 16 b0 0b 33
        E 16 b0 0b 3b
        E 16 b0 0b 44
        E 16 b0 0b 3b
        E 16 b0 0b 33
        E 16 b0 0b 2a
        E 16 b0 0b 66
        E 0 80 45 00
        E 0 90 43 66
        E 16 b0 0b 5d
        E 16 b0 0b 55
        E 16 b0 0b 4c
        E 16 b0 0b 44
        E 16 b0 0b 3b
        E 16 b0 0b 33
        E 16 b0 0b 2a
        E 16 b0 0b 22
        E 16 b0 0b 2a
        E 16 b0 0b 33
        E 16 b0 0b 3b
        E 16 b0 0b 44
        E 16 b0 0b 3b
        E 16 b0 0b 33
        E 16 b0 0b 2a
        E 16 b0 0b 22
        E 16 b0 0b 2a
        E 16 b0 0b 33
        E 16 b0 0b 3b
        E 16 b0 0b 44
        E 16 b0 0b 3b
        E 16 b0 0b 33
        E 16 b0 0b 2a
        E 16 b0 0b 22
        E 16 b0 0b 2a
        E 16 b0 0b 33
        E 16 b0 0b 3b
        E 16 b0 0b 44
        E 16 b0 0b 4c
        E 16 b0 0b 55
        E 16 b0 0b 5d
        E 272 b0 0b 66
        E 0 80 43 00
        E 0 90 39 66
        E 16 b0 0b 5d
        E 16 b0 0b 55
        E 16 b0 0b 4c
        E 16 b0 0b 44
        E 16 b0 0b 3b
        E 16 b0 0b 33
        E 16 b0 0b 2a
        E 16 b0 0b 22
        E 16 b0 0b 2a
        E 16 b0 0b 33
        E 16 b0 0b 3b
        E 16 b0 0b 44
        E 16 b0 0b 3b
        E 16 b0 0b 33
        E 16 b0 0b 2a
        E 16 b0 0b 22
        E 16 b0 0b 2a
        E 16 b0 0b 33
        E 16 b0 0b 3b
        E 16 b0 0b 44
        E 16 b0 0b 3b
        E 16 b0 0b 33
        E 16 b0 0b 2a
        E 16 b0 0b 66
        E 0 80 39 00
        E 0 90 3a 66
        E 16 b0 0b 5d
        E 16 b0 0b 55
        E 16 b0 0b 4c
        E 16 b0 0b 44
        E 16 b0 0b 3b
        E 16 b0 0b 33
        E 16 b0 0b 2a
        E 16 b0 0b 22
        E 16 b0 0b 2a
        E 16 b0 0b 33
        E 16 b0 0b 3b
        E 16 b0 0b 44
        E 16 b0 0b 3b
        E 16 b0 0b 33
        E 16 b0 0b 2a
        E 16 b0 0b 22
        E 16 b0 0b 2a
        E 16 b0 0b 33
        E 16 b0 0b 3b
        E 16 b0 0b 44
        E 16 b0 0b 3b
        E 16 b0 0b 33
        E 16 b0 0b 2a
        E 16 b0 0b 66
        E 0 80 3a 00
        E 0 90 3c 66
        E 16 b0 0b 5d
        E 16 b0 0b 55
        E 16 b0 0b 4c
        E 16 b0 0b 44
        E 16 b0 0b 3b
        E 16 b0 0b 33
        E 16 b0 0b 2a
        E 16 b0 0b 22
        E 16 b0 0b 2a
        E 16 b0 0b 33
        E 16 b0 0b 3b
        E 16 b0 0b 44
        E 16 b0 0b 3b
        E 16 b0 0b 33
        E 16 b0 0b 2a
        E 16 b0 0b 22
        E 16 b0 0b 2a
        E 16 b0 0b 33
        E 16 b0 0b 3b
        E 16 b0 0b 44
        E 16 b0 0b 3b
        E 16 b0 0b 33
        E 16 b0 0b 2a
        E 16 b0 0b 22
        E 16 b0 0b 2a
        E 16 b0 0b 33
        E 16 b0 0b 3b
        E 16 b0 0b 44
        E 16 b0 0b 4c
        E 16 b0 0b 55
        E 16 b0 0b 5d
        E 1680 80 3c 00
        E 0 b0 7b 00
        E 0 ff 2f 00
      >
    >
  >
  <TRACK {68436CC4-6096-423D-8613-E9CE5E6A077F}
    NAME "NES - Pulse 2 [ch1]"
    PEAKCOL 10092441
    BEAT -1
    AUTOMODE 0
    PANLAWFLAGS 3
    VOLPAN 1 0 -1 -1 1
    MUTESOLO 0 0 0
    IPHASE 0
    PLAYOFFS 0 1
    ISBUS 0 0
    BUSCOMP 0 0 0 0 0
    SHOWINMIX 1 0.6667 0.5 1 0.5 0 0 0
    FIXEDLANES 9 0 0 0 0
    SEL 0
    REC 0 5088 1 0 0 0 0 0
    VU 2
    TRACKHEIGHT 0 0 0 0 0 0 0
    INQ 0 0 0 0.5 100 0 0 100
    NCHAN 2
    FX 1
    TRACKID {68436CC4-6096-423D-8613-E9CE5E6A077F}
    PERF 0
    MIDIOUT -1
    MAINSEND 1 0
    <FXCHAIN
      WNDRECT 24 52 700 560
      SHOW 0
      LASTSEL 0
      DOCKED 0
      BYPASS 0 0 0
      <JS "ReapNES Studio/ReapNES_Console.jsfx" ""
        2 15 1 10 80 10 100 2 1 15 1 5 60 10 80 1 1 0 50 0 0 15 1 0 100 0 0 0.500000 0.500000 0.400000 0.300000 0.800000 1 1 0 0 0 0 - - - - - - - - - - - - - - - - - - - - - - - - - -
      >
      FLOATPOS 0 0 0 0
      FXID {E1A3B35A-B05D-42F6-B573-198867DC02BD}
      WAK 0 0
    >
    <ITEM
      POSITION 0
      LENGTH 74.5878716
      LOOP 0
      ALLTAKES 0
      FADEIN 0 0 0 0 0 0 0
      FADEOUT 0 0 0 0 0 0 0
      MUTE 0 0
      SEL 0
      IGUID {E4B09CB8-ADA6-4348-AB4E-1AA0459D590E}
      <SOURCE MIDI
        HASDATA 1 480 QN
        CCINTERP 32
        E 0 c1 51
        E 1024 b1 0c 10
        E 0 b1 0b 44
        E 0 91 35 44
        E 16 b1 0b 3b
        E 16 b1 0b 2a
        E 16 b1 0b 22
        E 16 b1 0b 11
        E 16 81 35 00
        E 112 b1 0b 44
        E 0 91 34 44
        E 16 b1 0b 3b
        E 16 b1 0b 2a
        E 16 b1 0b 22
        E 16 b1 0b 11
        E 16 81 34 00
        E 112 b1 0b 44
        E 0 91 35 44
        E 16 b1 0b 3b
        E 16 b1 0b 2a
        E 16 b1 0b 22
        E 16 b1 0b 11
        E 16 81 35 00
        E 304 b1 0b 44
        E 0 91 35 44
        E 16 b1 0b 3b
        E 16 b1 0b 2a
        E 16 b1 0b 22
        E 16 b1 0b 11
        E 16 81 35 00
        E 112 b1 0b 44
        E 0 91 34 44
        E 16 b1 0b 3b
        E 16 b1 0b 2a
        E 16 b1 0b 22
        E 16 b1 0b 11
        E 16 81 34 00
        E 112 b1 0b 44
        E 0 91 35 44
        E 16 b1 0b 3b
        E 16 b1 0b 2a
        E 16 b1 0b 22
        E 16 b1 0b 11
        E 16 81 35 00
        E 304 b1 0b 44
        E 0 91 35 44
        E 16 b1 0b 3b
        E 16 b1 0b 2a
        E 16 b1 0b 22
        E 16 b1 0b 11
        E 16 81 35 00
        E 112 b1 0b 44
        E 0 91 34 44
        E 16 b1 0b 3b
        E 16 b1 0b 2a
        E 16 b1 0b 22
        E 16 b1 0b 11
        E 16 81 34 00
        E 112 b1 0b 44
        E 0 91 35 44
        E 16 b1 0b 3b
        E 16 b1 0b 2a
        E 16 b1 0b 22
        E 16 b1 0b 11
        E 16 81 35 00
        E 304 b1 0b 44
        E 0 91 35 44
        E 16 b1 0b 3b
        E 16 b1 0b 2a
        E 16 b1 0b 22
        E 16 b1 0b 11
        E 16 81 35 00
        E 112 b1 0b 44
        E 0 91 34 44
        E 16 b1 0b 3b
        E 16 b1 0b 2a
        E 16 b1 0b 22
        E 16 b1 0b 11
        E 16 81 34 00
        E 112 b1 0b 44
        E 0 91 35 44
        E 16 b1 0b 3b
        E 16 b1 0b 2a
        E 16 b1 0b 22
        E 16 b1 0b 11
        E 16 81 35 00
        E 304 b1 0b 44
        E 0 91 32 44
        E 16 b1 0b 3b
        E 16 b1 0b 2a
        E 16 b1 0b 22
        E 16 b1 0b 11
        E 16 81 32 00
        E 112 b1 0b 44
        E 0 91 30 44
        E 16 b1 0b 3b
        E 16 b1 0b 2a
        E 16 b1 0b 22
        E 16 b1 0b 11
        E 16 81 30 00
        E 112 b1 0b 44
        E 0 91 32 44
        E 16 b1 0b 3b
        E 16 b1 0b 2a
        E 16 b1 0b 22
        E 16 b1 0b 11
        E 16 81 32 00
        E 304 b1 0b 44
        E 0 91 32 44
        E 16 b1 0b 3b
        E 16 b1 0b 2a
        E 16 b1 0b 22
        E 16 b1 0b 11
        E 16 81 32 00
        E 112 b1 0b 44
        E 0 91 30 44
        E 16 b1 0b 3b
        E 16 b1 0b 2a
        E 16 b1 0b 22
        E 16 b1 0b 11
        E 16 81 30 00
        E 112 b1 0b 44
        E 0 91 32 44
        E 16 b1 0b 3b
        E 16 b1 0b 2a
        E 16 b1 0b 22
        E 16 b1 0b 11
        E 16 81 32 00
        E 304 b1 0b 44
        E 0 91 30 44
        E 16 b1 0b 3b
        E 16 b1 0b 2a
        E 16 b1 0b 22
        E 16 b1 0b 11
        E 16 81 30 00
        E 112 b1 0b 44
        E 0 91 2e 44
        E 16 b1 0b 3b
        E 16 b1 0b 2a
        E 16 b1 0b 22
        E 16 b1 0b 11
        E 16 81 2e 00
        E 112 b1 0b 44
        E 0 91 30 44
        E 16 b1 0b 3b
        E 16 b1 0b 2a
        E 16 b1 0b 22
        E 16 b1 0b 11
        E 16 81 30 00
        E 304 b1 0b 44
        E 0 91 30 44
        E 16 b1 0b 3b
        E 16 b1 0b 2a
        E 16 b1 0b 22
        E 16 b1 0b 11
        E 16 81 30 00
        E 112 b1 0b 44
        E 0 91 2e 44
        E 16 b1 0b 3b
        E 16 b1 0b 2a
        E 16 b1 0b 22
        E 16 b1 0b 11
        E 16 81 2e 00
        E 112 b1 0b 44
        E 0 91 30 44
        E 16 b1 0b 3b
        E 16 b1 0b 2a
        E 16 b1 0b 22
        E 16 b1 0b 11
        E 16 81 30 00
        E 304 b1 0b 44
        E 0 91 30 44
        E 16 b1 0b 3b
        E 16 b1 0b 2a
        E 16 b1 0b 22
        E 16 b1 0b 11
        E 16 81 30 00
        E 112 b1 0b 44
        E 0 91 2d 44
        E 16 b1 0b 3b
        E 16 b1 0b 2a
        E 16 b1 0b 22
        E 16 b1 0b 11
        E 16 81 2d 00
        E 112 b1 0b 44
        E 0 91 30 44
        E 16 b1 0b 3b
        E 16 b1 0b 2a
        E 16 b1 0b 22
        E 16 b1 0b 11
        E 16 81 30 00
        E 304 b1 0b 44
        E 0 91 30 44
        E 16 b1 0b 3b
        E 16 b1 0b 2a
        E 16 b1 0b 22
        E 16 b1 0b 11
        E 16 81 30 00
        E 112 b1 0b 44
        E 0 91 2d 44
        E 16 b1 0b 3b
        E 16 b1 0b 2a
        E 16 b1 0b 22
        E 16 b1 0b 11
        E 16 81 2d 00
        E 112 b1 0b 44
        E 0 91 30 44
        E 16 b1 0b 3b
        E 16 b1 0b 2a
        E 16 b1 0b 22
        E 16 b1 0b 11
        E 16 81 30 00
        E 304 b1 0b 44
        E 0 91 32 44
        E 16 b1 0b 3b
        E 16 b1 0b 2a
        E 16 b1 0b 22
        E 16 b1 0b 11
        E 16 81 32 00
        E 112 b1 0b 44
        E 0 91 30 44
        E 16 b1 0b 3b
        E 16 b1 0b 2a
        E 16 b1 0b 22
        E 16 b1 0b 11
        E 16 81 30 00
        E 112 b1 0b 44
        E 0 91 32 44
        E 16 b1 0b 3b
        E 16 b1 0b 2a
        E 16 b1 0b 22
        E 16 b1 0b 11
        E 16 81 32 00
        E 304 b1 0b 44
        E 0 91 32 44
        E 16 b1 0b 3b
        E 16 b1 0b 2a
        E 16 b1 0b 22
        E 16 b1 0b 11
        E 16 81 32 00
        E 112 b1 0b 44
        E 0 91 30 44
        E 16 b1 0b 3b
        E 16 b1 0b 2a
        E 16 b1 0b 22
        E 16 b1 0b 11
        E 16 81 30 00
        E 112 b1 0b 44
        E 0 91 32 44
        E 16 b1 0b 3b
        E 16 b1 0b 2a
        E 16 b1 0b 22
        E 16 b1 0b 11
        E 16 81 32 00
        E 304 b1 0b 44
        E 0 91 33 44
        E 16 b1 0b 3b
        E 16 b1 0b 2a
        E 16 b1 0b 22
        E 16 b1 0b 11
        E 16 81 33 00
        E 112 b1 0b 44
        E 0 91 32 44
        E 16 b1 0b 3b
        E 16 b1 0b 2a
        E 16 b1 0b 22
        E 16 b1 0b 11
        E 16 81 32 00
        E 112 b1 0b 44
        E 0 91 33 44
        E 16 b1 0b 3b
        E 16 b1 0b 2a
        E 16 b1 0b 22
        E 16 b1 0b 11
        E 16 81 33 00
        E 304 b1 0b 44
        E 0 91 33 44
        E 16 b1 0b 3b
        E 16 b1 0b 2a
        E 16 b1 0b 22
        E 16 b1 0b 11
        E 16 81 33 00
        E 112 b1 0b 44
        E 0 91 32 44
        E 16 b1 0b 3b
        E 16 b1 0b 2a
        E 16 b1 0b 22
        E 16 b1 0b 11
        E 16 81 32 00
        E 112 b1 0b 44
        E 0 91 33 44
        E 16 b1 0b 3b
        E 16 b1 0b 2a
        E 16 b1 0b 22
        E 16 b1 0b 11
        E 16 81 33 00
        E 304 b1 0b 44
        E 0 91 34 44
        E 16 b1 0b 3b
        E 16 b1 0b 2a
        E 16 b1 0b 22
        E 16 b1 0b 11
        E 16 81 34 00
        E 112 b1 0b 44
        E 0 91 32 44
        E 16 b1 0b 3b
        E 16 b1 0b 2a
        E 16 b1 0b 22
        E 16 b1 0b 11
        E 16 81 32 00
        E 112 b1 0b 44
        E 0 91 34 44
        E 16 b1 0b 3b
        E 16 b1 0b 2a
        E 16 b1 0b 22
        E 16 b1 0b 11
        E 16 81 34 00
        E 304 b1 0b 44
        E 0 91 34 44
        E 16 b1 0b 3b
        E 16 b1 0b 2a
        E 16 b1 0b 22
        E 16 b1 0b 11
        E 16 81 34 00
        E 112 b1 0b 44
        E 0 91 32 44
        E 16 b1 0b 3b
        E 16 b1 0b 2a
        E 16 b1 0b 22
        E 16 b1 0b 11
        E 16 81 32 00
        E 112 b1 0b 44
        E 0 91 34 44
        E 16 b1 0b 3b
        E 16 b1 0b 2a
        E 16 b1 0b 22
        E 16 b1 0b 11
        E 16 81 34 00
        E 304 b1 0b 44
        E 0 91 35 44
        E 16 b1 0b 3b
        E 16 b1 0b 2a
        E 16 b1 0b 22
        E 16 b1 0b 11
        E 16 81 35 00
        E 112 b1 0b 44
        E 0 91 34 44
        E 16 b1 0b 3b
        E 16 b1 0b 2a
        E 16 b1 0b 22
        E 16 b1 0b 11
        E 16 81 34 00
        E 112 b1 0b 44
        E 0 91 35 44
        E 16 b1 0b 3b
        E 16 b1 0b 2a
        E 16 b1 0b 22
        E 16 b1 0b 11
        E 16 81 35 00
        E 304 b1 0b 44
        E 0 91 35 44
        E 16 b1 0b 3b
        E 16 b1 0b 2a
        E 16 b1 0b 22
        E 16 b1 0b 11
        E 16 81 35 00
        E 112 b1 0b 44
        E 0 91 34 44
        E 16 b1 0b 3b
        E 16 b1 0b 2a
        E 16 b1 0b 22
        E 16 b1 0b 11
        E 16 81 34 00
        E 112 b1 0b 44
        E 0 91 35 44
        E 16 b1 0b 3b
        E 16 b1 0b 2a
        E 16 b1 0b 22
        E 16 b1 0b 11
        E 16 81 35 00
        E 304 b1 0b 44
        E 0 91 35 44
        E 16 b1 0b 3b
        E 16 b1 0b 2a
        E 16 b1 0b 22
        E 16 b1 0b 11
        E 16 81 35 00
        E 112 b1 0b 44
        E 0 91 34 44
        E 16 b1 0b 3b
        E 16 b1 0b 2a
        E 16 b1 0b 22
        E 16 b1 0b 11
        E 16 81 34 00
        E 112 b1 0b 44
        E 0 91 35 44
        E 16 b1 0b 3b
        E 16 b1 0b 2a
        E 16 b1 0b 22
        E 16 b1 0b 11
        E 16 81 35 00
        E 304 b1 0b 44
        E 0 91 35 44
        E 16 b1 0b 3b
        E 16 b1 0b 2a
        E 16 b1 0b 22
        E 16 b1 0b 11
        E 16 81 35 00
        E 112 b1 0b 44
        E 0 91 34 44
        E 16 b1 0b 3b
        E 16 b1 0b 2a
        E 16 b1 0b 22
        E 16 b1 0b 11
        E 16 81 34 00
        E 112 b1 0b 44
        E 0 91 35 44
        E 16 b1 0b 3b
        E 16 b1 0b 2a
        E 16 b1 0b 22
        E 16 b1 0b 11
        E 16 81 35 00
        E 304 b1 0b 44
        E 0 91 32 44
        E 16 b1 0b 3b
        E 16 b1 0b 2a
        E 16 b1 0b 22
        E 16 b1 0b 11
        E 16 81 32 00
        E 112 b1 0b 44
        E 0 91 30 44
        E 16 b1 0b 3b
        E 16 b1 0b 2a
        E 16 b1 0b 22
        E 16 b1 0b 11
        E 16 81 30 00
        E 112 b1 0b 44
        E 0 91 32 44
        E 16 b1 0b 3b
        E 16 b1 0b 2a
        E 16 b1 0b 22
        E 16 b1 0b 11
        E 16 81 32 00
        E 304 b1 0b 44
        E 0 91 32 44
        E 16 b1 0b 3b
        E 16 b1 0b 2a
        E 16 b1 0b 22
        E 16 b1 0b 11
        E 16 81 32 00
        E 112 b1 0b 44
        E 0 91 30 44
        E 16 b1 0b 3b
        E 16 b1 0b 2a
        E 16 b1 0b 22
        E 16 b1 0b 11
        E 16 81 30 00
        E 112 b1 0b 44
        E 0 91 32 44
        E 16 b1 0b 3b
        E 16 b1 0b 2a
        E 16 b1 0b 22
        E 16 b1 0b 11
        E 16 81 32 00
        E 304 b1 0b 44
        E 0 91 30 44
        E 16 b1 0b 3b
        E 16 b1 0b 2a
        E 16 b1 0b 22
        E 16 b1 0b 11
        E 16 81 30 00
        E 112 b1 0b 44
        E 0 91 2e 44
        E 16 b1 0b 3b
        E 16 b1 0b 2a
        E 16 b1 0b 22
        E 16 b1 0b 11
        E 16 81 2e 00
        E 112 b1 0b 44
        E 0 91 30 44
        E 16 b1 0b 3b
        E 16 b1 0b 2a
        E 16 b1 0b 22
        E 16 b1 0b 11
        E 16 81 30 00
        E 304 b1 0b 44
        E 0 91 30 44
        E 16 b1 0b 3b
        E 16 b1 0b 2a
        E 16 b1 0b 22
        E 16 b1 0b 11
        E 16 81 30 00
        E 112 b1 0b 44
        E 0 91 2e 44
        E 16 b1 0b 3b
        E 16 b1 0b 2a
        E 16 b1 0b 22
        E 16 b1 0b 11
        E 16 81 2e 00
        E 112 b1 0b 44
        E 0 91 30 44
        E 16 b1 0b 3b
        E 16 b1 0b 2a
        E 16 b1 0b 22
        E 16 b1 0b 11
        E 16 81 30 00
        E 304 b1 0b 44
        E 0 91 30 44
        E 16 b1 0b 3b
        E 16 b1 0b 2a
        E 16 b1 0b 22
        E 16 b1 0b 11
        E 16 81 30 00
        E 112 b1 0b 44
        E 0 91 2d 44
        E 16 b1 0b 3b
        E 16 b1 0b 2a
        E 16 b1 0b 22
        E 16 b1 0b 11
        E 16 81 2d 00
        E 112 b1 0b 44
        E 0 91 30 44
        E 16 b1 0b 3b
        E 16 b1 0b 2a
        E 16 b1 0b 22
        E 16 b1 0b 11
        E 16 81 30 00
        E 304 b1 0b 44
        E 0 91 30 44
        E 16 b1 0b 3b
        E 16 b1 0b 2a
        E 16 b1 0b 22
        E 16 b1 0b 11
        E 16 81 30 00
        E 112 b1 0b 44
        E 0 91 2d 44
        E 16 b1 0b 3b
        E 16 b1 0b 2a
        E 16 b1 0b 22
        E 16 b1 0b 11
        E 16 81 2d 00
        E 112 b1 0b 44
        E 0 91 30 44
        E 16 b1 0b 3b
        E 16 b1 0b 2a
        E 16 b1 0b 22
        E 16 b1 0b 11
        E 16 81 30 00
        E 304 b1 0b 44
        E 0 91 32 44
        E 16 b1 0b 3b
        E 16 b1 0b 2a
        E 16 b1 0b 22
        E 16 b1 0b 11
        E 16 81 32 00
        E 112 b1 0b 44
        E 0 91 30 44
        E 16 b1 0b 3b
        E 16 b1 0b 2a
        E 16 b1 0b 22
        E 16 b1 0b 11
        E 16 81 30 00
        E 112 b1 0b 44
        E 0 91 32 44
        E 16 b1 0b 3b
        E 16 b1 0b 2a
        E 16 b1 0b 22
        E 16 b1 0b 11
        E 16 81 32 00
        E 304 b1 0b 44
        E 0 91 32 44
        E 16 b1 0b 3b
        E 16 b1 0b 2a
        E 16 b1 0b 22
        E 16 b1 0b 11
        E 16 81 32 00
        E 112 b1 0b 44
        E 0 91 30 44
        E 16 b1 0b 3b
        E 16 b1 0b 2a
        E 16 b1 0b 22
        E 16 b1 0b 11
        E 16 81 30 00
        E 112 b1 0b 44
        E 0 91 32 44
        E 16 b1 0b 3b
        E 16 b1 0b 2a
        E 16 b1 0b 22
        E 16 b1 0b 11
        E 16 81 32 00
        E 304 b1 0b 44
        E 0 91 33 44
        E 16 b1 0b 3b
        E 16 b1 0b 2a
        E 16 b1 0b 22
        E 16 b1 0b 11
        E 16 81 33 00
        E 112 b1 0b 44
        E 0 91 32 44
        E 16 b1 0b 3b
        E 16 b1 0b 2a
        E 16 b1 0b 22
        E 16 b1 0b 11
        E 16 81 32 00
        E 112 b1 0b 44
        E 0 91 33 44
        E 16 b1 0b 3b
        E 16 b1 0b 2a
        E 16 b1 0b 22
        E 16 b1 0b 11
        E 16 81 33 00
        E 304 b1 0b 44
        E 0 91 33 44
        E 16 b1 0b 3b
        E 16 b1 0b 2a
        E 16 b1 0b 22
        E 16 b1 0b 11
        E 16 81 33 00
        E 112 b1 0b 44
        E 0 91 32 44
        E 16 b1 0b 3b
        E 16 b1 0b 2a
        E 16 b1 0b 22
        E 16 b1 0b 11
        E 16 81 32 00
        E 112 b1 0b 44
        E 0 91 33 44
        E 16 b1 0b 3b
        E 16 b1 0b 2a
        E 16 b1 0b 22
        E 16 b1 0b 11
        E 16 81 33 00
        E 304 b1 0b 44
        E 0 91 34 44
        E 16 b1 0b 3b
        E 16 b1 0b 2a
        E 16 b1 0b 22
        E 16 b1 0b 11
        E 16 81 34 00
        E 112 b1 0b 44
        E 0 91 32 44
        E 16 b1 0b 3b
        E 16 b1 0b 2a
        E 16 b1 0b 22
        E 16 b1 0b 11
        E 16 81 32 00
        E 112 b1 0b 44
        E 0 91 34 44
        E 16 b1 0b 3b
        E 16 b1 0b 2a
        E 16 b1 0b 22
        E 16 b1 0b 11
        E 16 81 34 00
        E 304 b1 0b 44
        E 0 91 34 44
        E 16 b1 0b 3b
        E 16 b1 0b 2a
        E 16 b1 0b 22
        E 16 b1 0b 11
        E 16 81 34 00
        E 112 b1 0b 44
        E 0 91 32 44
        E 16 b1 0b 3b
        E 16 b1 0b 2a
        E 16 b1 0b 22
        E 16 b1 0b 11
        E 16 81 32 00
        E 112 b1 0b 44
        E 0 91 34 44
        E 16 b1 0b 3b
        E 16 b1 0b 2a
        E 16 b1 0b 22
        E 16 b1 0b 11
        E 16 81 34 00
        E 112 b1 0b 44
        E 0 91 30 44
        E 16 b1 0b 3b
        E 16 b1 0b 33
        E 16 b1 0b 2a
        E 16 b1 0b 22
        E 16 b1 0b 19
        E 32 b1 0b 11
        E 16 b1 0b 08
        E 16 81 30 00
        E 48 b1 0b 44
        E 0 91 34 44
        E 16 b1 0b 3b
        E 16 b1 0b 33
        E 16 b1 0b 2a
        E 16 b1 0b 22
        E 16 b1 0b 19
        E 32 b1 0b 11
        E 16 b1 0b 08
        E 16 81 34 00
        E 48 b1 0b 44
        E 0 91 32 44
        E 16 b1 0b 3b
        E 16 b1 0b 33
        E 16 b1 0b 2a
        E 16 b1 0b 22
        E 16 b1 0b 19
        E 32 b1 0b 11
        E 16 b1 0b 08
        E 16 81 32 00
        E 48 b1 0b 44
        E 0 91 34 44
        E 16 b1 0b 3b
        E 16 b1 0b 33
        E 16 b1 0b 2a
        E 16 b1 0b 22
        E 16 b1 0b 19
        E 32 b1 0b 11
        E 16 b1 0b 08
        E 16 81 34 00
        E 48 b1 0b 44
        E 0 91 30 44
        E 16 b1 0b 3b
        E 16 b1 0b 33
        E 16 b1 0b 2a
        E 16 b1 0b 22
        E 16 b1 0b 19
        E 16 b1 0b 44
        E 16 b1 0b 3b
        E 16 b1 0b 33
        E 16 b1 0b 2a
        E 16 b1 0b 22
        E 16 b1 0b 19
        E 16 b1 0b 44
        E 0 81 30 00
        E 0 91 34 44
        E 16 b1 0b 3b
        E 16 b1 0b 33
        E 16 b1 0b 2a
        E 16 b1 0b 22
        E 16 b1 0b 19
        E 32 b1 0b 11
        E 16 b1 0b 08
        E 16 81 34 00
        E 48 b1 0b 44
        E 0 91 32 44
        E 16 b1 0b 3b
        E 16 b1 0b 33
        E 16 b1 0b 2a
        E 16 b1 0b 22
        E 16 b1 0b 19
        E 32 b1 0b 11
        E 16 b1 0b 08
        E 16 81 32 00
        E 48 b1 0b 44
        E 0 91 34 44
        E 16 b1 0b 3b
        E 16 b1 0b 33
        E 16 b1 0b 2a
        E 16 b1 0b 22
        E 16 b1 0b 19
        E 32 b1 0b 11
        E 16 b1 0b 08
        E 16 81 34 00
        E 48 b1 0b 44
        E 0 91 32 44
        E 16 b1 0b 3b
        E 16 b1 0b 33
        E 16 b1 0b 2a
        E 16 b1 0b 22
        E 16 b1 0b 19
        E 32 b1 0b 11
        E 16 b1 0b 08
        E 16 81 32 00
        E 48 b1 0b 44
        E 0 91 35 44
        E 16 b1 0b 3b
        E 16 b1 0b 33
        E 16 b1 0b 2a
        E 16 b1 0b 22
        E 16 b1 0b 19
        E 32 b1 0b 11
        E 16 b1 0b 08
        E 16 81 35 00
        E 48 b1 0b 44
        E 0 91 34 44
        E 16 b1 0b 3b
        E 16 b1 0b 33
        E 16 b1 0b 2a
        E 16 b1 0b 22
        E 16 b1 0b 19
        E 32 b1 0b 11
        E 16 b1 0b 08
        E 16 81 34 00
        E 48 b1 0b 44
        E 0 91 35 44
        E 16 b1 0b 3b
        E 16 b1 0b 33
        E 16 b1 0b 2a
        E 16 b1 0b 22
        E 16 b1 0b 19
        E 32 b1 0b 11
        E 16 b1 0b 08
        E 16 81 35 00
        E 48 b1 0b 44
        E 0 91 32 44
        E 16 b1 0b 3b
        E 16 b1 0b 33
        E 16 b1 0b 2a
        E 16 b1 0b 22
        E 16 b1 0b 19
        E 16 b1 0b 44
        E 16 b1 0b 3b
        E 16 b1 0b 33
        E 16 b1 0b 2a
        E 16 b1 0b 22
        E 16 b1 0b 19
        E 16 b1 0b 44
        E 0 81 32 00
        E 0 91 35 44
        E 16 b1 0b 3b
        E 16 b1 0b 33
        E 16 b1 0b 2a
        E 16 b1 0b 22
        E 16 b1 0b 19
        E 32 b1 0b 11
        E 16 b1 0b 08
        E 16 81 35 00
        E 48 b1 0b 44
        E 0 91 34 44
        E 16 b1 0b 3b
        E 16 b1 0b 33
        E 16 b1 0b 2a
        E 16 b1 0b 22
        E 16 b1 0b 19
        E 32 b1 0b 11
        E 16 b1 0b 08
        E 16 81 34 00
        E 48 b1 0b 44
        E 0 91 35 44
        E 16 b1 0b 3b
        E 16 b1 0b 33
        E 16 b1 0b 2a
        E 16 b1 0b 22
        E 16 b1 0b 19
        E 32 b1 0b 11
        E 16 b1 0b 08
        E 16 81 35 00
        E 48 b1 0b 44
        E 0 91 30 44
        E 16 b1 0b 3b
        E 16 b1 0b 33
        E 16 b1 0b 2a
        E 16 b1 0b 22
        E 16 b1 0b 19
        E 32 b1 0b 11
        E 16 b1 0b 08
        E 16 81 30 00
        E 48 b1 0b 44
        E 0 91 34 44
        E 16 b1 0b 3b
        E 16 b1 0b 33
        E 16 b1 0b 2a
        E 16 b1 0b 22
        E 16 b1 0b 19
        E 32 b1 0b 11
        E 16 b1 0b 08
        E 16 81 34 00
        E 48 b1 0b 44
        E 0 91 32 44
        E 16 b1 0b 3b
        E 16 b1 0b 33
        E 16 b1 0b 2a
        E 16 b1 0b 22
        E 16 b1 0b 19
        E 32 b1 0b 11
        E 16 b1 0b 08
        E 16 81 32 00
        E 48 b1 0b 44
        E 0 91 34 44
        E 16 b1 0b 3b
        E 16 b1 0b 33
        E 16 b1 0b 2a
        E 16 b1 0b 22
        E 16 b1 0b 19
        E 32 b1 0b 11
        E 16 b1 0b 08
        E 16 81 34 00
        E 48 b1 0b 44
        E 0 91 30 44
        E 16 b1 0b 3b
        E 16 b1 0b 33
        E 16 b1 0b 2a
        E 16 b1 0b 22
        E 16 b1 0b 19
        E 16 b1 0b 44
        E 16 b1 0b 3b
        E 16 b1 0b 33
        E 16 b1 0b 2a
        E 16 b1 0b 22
        E 16 b1 0b 19
        E 16 b1 0b 44
        E 0 81 30 00
        E 0 91 34 44
        E 16 b1 0b 3b
        E 16 b1 0b 33
        E 16 b1 0b 2a
        E 16 b1 0b 22
        E 16 b1 0b 19
        E 32 b1 0b 11
        E 16 b1 0b 08
        E 16 81 34 00
        E 48 b1 0b 44
        E 0 91 32 44
        E 16 b1 0b 3b
        E 16 b1 0b 33
        E 16 b1 0b 2a
        E 16 b1 0b 22
        E 16 b1 0b 19
        E 32 b1 0b 11
        E 16 b1 0b 08
        E 16 81 32 00
        E 48 b1 0b 44
        E 0 91 34 44
        E 16 b1 0b 3b
        E 16 b1 0b 33
        E 16 b1 0b 2a
        E 16 b1 0b 22
        E 16 b1 0b 19
        E 32 b1 0b 11
        E 16 b1 0b 08
        E 16 81 34 00
        E 48 b1 0b 44
        E 0 91 32 44
        E 16 b1 0b 3b
        E 16 b1 0b 33
        E 16 b1 0b 2a
        E 16 b1 0b 22
        E 16 b1 0b 19
        E 32 b1 0b 11
        E 16 b1 0b 08
        E 16 81 32 00
        E 48 b1 0b 44
        E 0 91 35 44
        E 16 b1 0b 3b
        E 16 b1 0b 33
        E 16 b1 0b 2a
        E 16 b1 0b 22
        E 16 b1 0b 19
        E 32 b1 0b 11
        E 16 b1 0b 08
        E 16 81 35 00
        E 48 b1 0b 44
        E 0 91 34 44
        E 16 b1 0b 3b
        E 16 b1 0b 33
        E 16 b1 0b 2a
        E 16 b1 0b 22
        E 16 b1 0b 19
        E 32 b1 0b 11
        E 16 b1 0b 08
        E 16 81 34 00
        E 48 b1 0b 44
        E 0 91 35 44
        E 16 b1 0b 3b
        E 16 b1 0b 33
        E 16 b1 0b 2a
        E 16 b1 0b 22
        E 16 b1 0b 19
        E 32 b1 0b 11
        E 16 b1 0b 08
        E 16 81 35 00
        E 48 b1 0b 44
        E 0 91 32 44
        E 16 b1 0b 3b
        E 16 b1 0b 33
        E 16 b1 0b 2a
        E 16 b1 0b 22
        E 16 b1 0b 19
        E 16 b1 0b 44
        E 16 b1 0b 3b
        E 16 b1 0b 33
        E 16 b1 0b 2a
        E 16 b1 0b 22
        E 16 b1 0b 19
        E 16 b1 0b 44
        E 0 81 32 00
        E 0 91 35 44
        E 16 b1 0b 3b
        E 16 b1 0b 33
        E 16 b1 0b 2a
        E 16 b1 0b 22
        E 16 b1 0b 19
        E 32 b1 0b 11
        E 16 b1 0b 08
        E 16 81 35 00
        E 48 b1 0b 44
        E 0 91 34 44
        E 16 b1 0b 3b
        E 16 b1 0b 33
        E 16 b1 0b 2a
        E 16 b1 0b 22
        E 16 b1 0b 19
        E 32 b1 0b 11
        E 16 b1 0b 08
        E 16 81 34 00
        E 48 b1 0b 44
        E 0 91 35 44
        E 16 b1 0b 3b
        E 16 b1 0b 33
        E 16 b1 0b 2a
        E 16 b1 0b 22
        E 16 b1 0b 19
        E 32 b1 0b 11
        E 16 b1 0b 08
        E 16 81 35 00
        E 48 b1 0b 44
        E 0 91 32 44
        E 16 b1 0b 3b
        E 16 b1 0b 33
        E 16 b1 0b 2a
        E 16 b1 0b 22
        E 16 b1 0b 19
        E 32 b1 0b 11
        E 16 b1 0b 08
        E 16 81 32 00
        E 48 b1 0b 44
        E 0 91 35 44
        E 16 b1 0b 3b
        E 16 b1 0b 33
        E 16 b1 0b 2a
        E 16 b1 0b 22
        E 16 b1 0b 19
        E 32 b1 0b 11
        E 16 b1 0b 08
        E 16 81 35 00
        E 48 b1 0b 44
        E 0 91 34 44
        E 16 b1 0b 3b
        E 16 b1 0b 33
        E 16 b1 0b 2a
        E 16 b1 0b 22
        E 16 b1 0b 19
        E 32 b1 0b 11
        E 16 b1 0b 08
        E 16 81 34 00
        E 48 b1 0b 44
        E 0 91 35 44
        E 16 b1 0b 3b
        E 16 b1 0b 33
        E 16 b1 0b 2a
        E 16 b1 0b 22
        E 16 b1 0b 19
        E 32 b1 0b 11
        E 16 b1 0b 08
        E 16 81 35 00
        E 48 b1 0b 44
        E 0 91 32 44
        E 16 b1 0b 3b
        E 16 b1 0b 33
        E 16 b1 0b 2a
        E 16 b1 0b 22
        E 16 b1 0b 19
        E 16 b1 0b 44
        E 16 b1 0b 3b
        E 16 b1 0b 33
        E 16 b1 0b 2a
        E 16 b1 0b 22
        E 16 b1 0b 19
        E 16 b1 0b 44
        E 0 81 32 00
        E 0 91 35 44
        E 16 b1 0b 3b
        E 16 b1 0b 33
        E 16 b1 0b 2a
        E 16 b1 0b 22
        E 16 b1 0b 19
        E 32 b1 0b 11
        E 16 b1 0b 08
        E 16 81 35 00
        E 48 b1 0b 44
        E 0 91 34 44
        E 16 b1 0b 3b
        E 16 b1 0b 33
        E 16 b1 0b 2a
        E 16 b1 0b 22
        E 16 b1 0b 19
        E 32 b1 0b 11
        E 16 b1 0b 08
        E 16 81 34 00
        E 48 b1 0b 44
        E 0 91 35 44
        E 16 b1 0b 3b
        E 16 b1 0b 33
        E 16 b1 0b 2a
        E 16 b1 0b 22
        E 16 b1 0b 19
        E 32 b1 0b 11
        E 16 b1 0b 08
        E 16 81 35 00
        E 48 b1 0b 44
        E 0 91 32 44
        E 16 b1 0b 3b
        E 16 b1 0b 33
        E 16 b1 0b 2a
        E 16 b1 0b 22
        E 16 b1 0b 19
        E 32 b1 0b 11
        E 16 b1 0b 08
        E 16 81 32 00
        E 48 b1 0b 44
        E 0 91 35 44
        E 16 b1 0b 3b
        E 16 b1 0b 33
        E 16 b1 0b 2a
        E 16 b1 0b 22
        E 16 b1 0b 19
        E 32 b1 0b 11
        E 16 b1 0b 08
        E 16 81 35 00
        E 48 b1 0b 44
        E 0 91 34 44
        E 16 b1 0b 3b
        E 16 b1 0b 33
        E 16 b1 0b 2a
        E 16 b1 0b 22
        E 16 b1 0b 19
        E 32 b1 0b 11
        E 16 b1 0b 08
        E 16 81 34 00
        E 48 b1 0b 44
        E 0 91 35 44
        E 16 b1 0b 3b
        E 16 b1 0b 33
        E 16 b1 0b 2a
        E 16 b1 0b 22
        E 16 b1 0b 19
        E 32 b1 0b 11
        E 16 b1 0b 08
        E 16 81 35 00
        E 48 b1 0b 44
        E 0 91 32 44
        E 16 b1 0b 3b
        E 16 b1 0b 33
        E 16 b1 0b 2a
        E 16 b1 0b 22
        E 16 b1 0b 19
        E 16 b1 0b 44
        E 16 b1 0b 3b
        E 16 b1 0b 33
        E 16 b1 0b 2a
        E 16 b1 0b 22
        E 16 b1 0b 19
        E 16 b1 0b 44
        E 0 81 32 00
        E 0 91 35 44
        E 16 b1 0b 3b
        E 16 b1 0b 33
        E 16 b1 0b 2a
        E 16 b1 0b 22
        E 16 b1 0b 19
        E 32 b1 0b 11
        E 16 b1 0b 08
        E 16 81 35 00
        E 48 b1 0b 44
        E 0 91 34 44
        E 16 b1 0b 3b
        E 16 b1 0b 33
        E 16 b1 0b 2a
        E 16 b1 0b 22
        E 16 b1 0b 19
        E 32 b1 0b 11
        E 16 b1 0b 08
        E 16 81 34 00
        E 48 b1 0b 44
        E 0 91 35 44
        E 16 b1 0b 3b
        E 16 b1 0b 33
        E 16 b1 0b 2a
        E 16 b1 0b 22
        E 16 b1 0b 19
        E 32 b1 0b 11
        E 16 b1 0b 08
        E 16 81 35 00
        E 48 b1 0b 44
        E 0 91 32 44
        E 16 b1 0b 3b
        E 16 b1 0b 33
        E 16 b1 0b 2a
        E 16 b1 0b 22
        E 16 b1 0b 19
        E 32 b1 0b 11
        E 16 b1 0b 08
        E 16 81 32 00
        E 48 b1 0b 44
        E 0 91 35 44
        E 16 b1 0b 3b
        E 16 b1 0b 33
        E 16 b1 0b 2a
        E 16 b1 0b 22
        E 16 b1 0b 19
        E 32 b1 0b 11
        E 16 b1 0b 08
        E 16 81 35 00
        E 48 b1 0b 44
        E 0 91 34 44
        E 16 b1 0b 3b
        E 16 b1 0b 33
        E 16 b1 0b 2a
        E 16 b1 0b 22
        E 16 b1 0b 19
        E 32 b1 0b 11
        E 16 b1 0b 08
        E 16 81 34 00
        E 48 b1 0b 44
        E 0 91 35 44
        E 16 b1 0b 3b
        E 16 b1 0b 33
        E 16 b1 0b 2a
        E 16 b1 0b 22
        E 16 b1 0b 19
        E 32 b1 0b 11
        E 16 b1 0b 08
        E 16 81 35 00
        E 48 b1 0b 44
        E 0 91 32 44
        E 16 b1 0b 3b
        E 16 b1 0b 33
        E 16 b1 0b 2a
        E 16 b1 0b 22
        E 16 b1 0b 19
        E 16 b1 0b 44
        E 16 b1 0b 3b
        E 16 b1 0b 33
        E 16 b1 0b 2a
        E 16 b1 0b 22
        E 16 b1 0b 19
        E 16 b1 0b 44
        E 0 81 32 00
        E 0 91 35 44
        E 16 b1 0b 3b
        E 16 b1 0b 33
        E 16 b1 0b 2a
        E 16 b1 0b 22
        E 16 b1 0b 19
        E 32 b1 0b 11
        E 16 b1 0b 08
        E 16 81 35 00
        E 48 b1 0b 44
        E 0 91 34 44
        E 16 b1 0b 3b
        E 16 b1 0b 33
        E 16 b1 0b 2a
        E 16 b1 0b 22
        E 16 b1 0b 19
        E 32 b1 0b 11
        E 16 b1 0b 08
        E 16 81 34 00
        E 48 b1 0b 44
        E 0 91 35 44
        E 16 b1 0b 3b
        E 16 b1 0b 33
        E 16 b1 0b 2a
        E 16 b1 0b 22
        E 16 b1 0b 19
        E 32 b1 0b 11
        E 16 b1 0b 08
        E 16 81 35 00
        E 48 b1 0b 44
        E 0 91 37 44
        E 16 b1 0b 3b
        E 16 b1 0b 33
        E 16 b1 0b 2a
        E 16 b1 0b 22
        E 16 b1 0b 19
        E 32 b1 0b 11
        E 16 b1 0b 08
        E 16 81 37 00
        E 48 b1 0b 44
        E 0 91 37 44
        E 16 b1 0b 3b
        E 16 b1 0b 33
        E 16 b1 0b 2a
        E 16 b1 0b 22
        E 16 b1 0b 19
        E 32 b1 0b 11
        E 16 b1 0b 08
        E 16 81 37 00
        E 240 b1 0b 44
        E 0 91 37 44
        E 16 b1 0b 3b
        E 16 b1 0b 33
        E 16 b1 0b 2a
        E 16 b1 0b 22
        E 16 b1 0b 19
        E 32 b1 0b 11
        E 16 b1 0b 08
        E 16 81 37 00
        E 240 b1 0b 44
        E 0 91 37 44
        E 16 b1 0b 3b
        E 16 b1 0b 33
        E 16 b1 0b 2a
        E 16 b1 0b 22
        E 16 b1 0b 19
        E 32 b1 0b 11
        E 16 b1 0b 08
        E 16 81 37 00
        E 240 b1 0b 44
        E 0 91 37 44
        E 16 b1 0b 3b
        E 16 b1 0b 33
        E 16 b1 0b 2a
        E 16 b1 0b 22
        E 16 b1 0b 19
        E 32 b1 0b 11
        E 16 b1 0b 08
        E 16 81 37 00
        E 240 b1 0b 44
        E 0 91 35 44
        E 16 b1 0b 3b
        E 16 b1 0b 2a
        E 16 b1 0b 22
        E 16 b1 0b 11
        E 16 81 35 00
        E 112 b1 0b 44
        E 0 91 34 44
        E 16 b1 0b 3b
        E 16 b1 0b 2a
        E 16 b1 0b 22
        E 16 b1 0b 11
        E 16 81 34 00
        E 112 b1 0b 44
        E 0 91 35 44
        E 16 b1 0b 3b
        E 16 b1 0b 2a
        E 16 b1 0b 22
        E 16 b1 0b 11
        E 16 81 35 00
        E 304 b1 0b 44
        E 0 91 35 44
        E 16 b1 0b 3b
        E 16 b1 0b 2a
        E 16 b1 0b 22
        E 16 b1 0b 11
        E 16 81 35 00
        E 112 b1 0b 44
        E 0 91 34 44
        E 16 b1 0b 3b
        E 16 b1 0b 2a
        E 16 b1 0b 22
        E 16 b1 0b 11
        E 16 81 34 00
        E 112 b1 0b 44
        E 0 91 35 44
        E 16 b1 0b 3b
        E 16 b1 0b 2a
        E 16 b1 0b 22
        E 16 b1 0b 11
        E 16 81 35 00
        E 304 b1 0b 44
        E 0 91 35 44
        E 16 b1 0b 3b
        E 16 b1 0b 2a
        E 16 b1 0b 22
        E 16 b1 0b 11
        E 16 81 35 00
        E 112 b1 0b 44
        E 0 91 34 44
        E 16 b1 0b 3b
        E 16 b1 0b 2a
        E 16 b1 0b 22
        E 16 b1 0b 11
        E 16 81 34 00
        E 112 b1 0b 44
        E 0 91 35 44
        E 16 b1 0b 3b
        E 16 b1 0b 2a
        E 16 b1 0b 22
        E 16 b1 0b 11
        E 16 81 35 00
        E 304 b1 0b 44
        E 0 91 35 44
        E 16 b1 0b 3b
        E 16 b1 0b 2a
        E 16 b1 0b 22
        E 16 b1 0b 11
        E 16 81 35 00
        E 112 b1 0b 44
        E 0 91 34 44
        E 16 b1 0b 3b
        E 16 b1 0b 2a
        E 16 b1 0b 22
        E 16 b1 0b 11
        E 16 81 34 00
        E 112 b1 0b 44
        E 0 91 35 44
        E 16 b1 0b 3b
        E 16 b1 0b 2a
        E 16 b1 0b 22
        E 16 b1 0b 11
        E 16 81 35 00
        E 304 b1 0b 44
        E 0 91 32 44
        E 16 b1 0b 3b
        E 16 b1 0b 2a
        E 16 b1 0b 22
        E 16 b1 0b 11
        E 16 81 32 00
        E 112 b1 0b 44
        E 0 91 30 44
        E 16 b1 0b 3b
        E 16 b1 0b 2a
        E 16 b1 0b 22
        E 16 b1 0b 11
        E 16 81 30 00
        E 112 b1 0b 44
        E 0 91 32 44
        E 16 b1 0b 3b
        E 16 b1 0b 2a
        E 16 b1 0b 22
        E 16 b1 0b 11
        E 16 81 32 00
        E 304 b1 0b 44
        E 0 91 32 44
        E 16 b1 0b 3b
        E 16 b1 0b 2a
        E 16 b1 0b 22
        E 16 b1 0b 11
        E 16 81 32 00
        E 112 b1 0b 44
        E 0 91 30 44
        E 16 b1 0b 3b
        E 16 b1 0b 2a
        E 16 b1 0b 22
        E 16 b1 0b 11
        E 16 81 30 00
        E 112 b1 0b 44
        E 0 91 32 44
        E 16 b1 0b 3b
        E 16 b1 0b 2a
        E 16 b1 0b 22
        E 16 b1 0b 11
        E 16 81 32 00
        E 304 b1 0b 44
        E 0 91 30 44
        E 16 b1 0b 3b
        E 16 b1 0b 2a
        E 16 b1 0b 22
        E 16 b1 0b 11
        E 16 81 30 00
        E 112 b1 0b 44
        E 0 91 2e 44
        E 16 b1 0b 3b
        E 16 b1 0b 2a
        E 16 b1 0b 22
        E 16 b1 0b 11
        E 16 81 2e 00
        E 112 b1 0b 44
        E 0 91 30 44
        E 16 b1 0b 3b
        E 16 b1 0b 2a
        E 16 b1 0b 22
        E 16 b1 0b 11
        E 16 81 30 00
        E 304 b1 0b 44
        E 0 91 30 44
        E 16 b1 0b 3b
        E 16 b1 0b 2a
        E 16 b1 0b 22
        E 16 b1 0b 11
        E 16 81 30 00
        E 112 b1 0b 44
        E 0 91 2e 44
        E 16 b1 0b 3b
        E 16 b1 0b 2a
        E 16 b1 0b 22
        E 16 b1 0b 11
        E 16 81 2e 00
        E 112 b1 0b 44
        E 0 91 30 44
        E 16 b1 0b 3b
        E 16 b1 0b 2a
        E 16 b1 0b 22
        E 16 b1 0b 11
        E 16 81 30 00
        E 304 b1 0b 44
        E 0 91 30 44
        E 16 b1 0b 3b
        E 16 b1 0b 2a
        E 16 b1 0b 22
        E 16 b1 0b 11
        E 16 81 30 00
        E 112 b1 0b 44
        E 0 91 2d 44
        E 16 b1 0b 3b
        E 16 b1 0b 2a
        E 16 b1 0b 22
        E 16 b1 0b 11
        E 16 81 2d 00
        E 112 b1 0b 44
        E 0 91 30 44
        E 16 b1 0b 3b
        E 16 b1 0b 2a
        E 16 b1 0b 22
        E 16 b1 0b 11
        E 16 81 30 00
        E 304 b1 0b 44
        E 0 91 30 44
        E 16 b1 0b 3b
        E 16 b1 0b 2a
        E 16 b1 0b 22
        E 16 b1 0b 11
        E 16 81 30 00
        E 112 b1 0b 44
        E 0 91 2d 44
        E 16 b1 0b 3b
        E 16 b1 0b 2a
        E 16 b1 0b 22
        E 16 b1 0b 11
        E 16 81 2d 00
        E 112 b1 0b 44
        E 0 91 30 44
        E 16 b1 0b 3b
        E 16 b1 0b 2a
        E 16 b1 0b 22
        E 16 b1 0b 11
        E 16 81 30 00
        E 304 b1 0b 44
        E 0 91 32 44
        E 16 b1 0b 3b
        E 16 b1 0b 2a
        E 16 b1 0b 22
        E 16 b1 0b 11
        E 16 81 32 00
        E 112 b1 0b 44
        E 0 91 30 44
        E 16 b1 0b 3b
        E 16 b1 0b 2a
        E 16 b1 0b 22
        E 16 b1 0b 11
        E 16 81 30 00
        E 112 b1 0b 44
        E 0 91 32 44
        E 16 b1 0b 3b
        E 16 b1 0b 2a
        E 16 b1 0b 22
        E 16 b1 0b 11
        E 16 81 32 00
        E 304 b1 0b 44
        E 0 91 32 44
        E 16 b1 0b 3b
        E 16 b1 0b 2a
        E 16 b1 0b 22
        E 16 b1 0b 11
        E 16 81 32 00
        E 112 b1 0b 44
        E 0 91 30 44
        E 16 b1 0b 3b
        E 16 b1 0b 2a
        E 16 b1 0b 22
        E 16 b1 0b 11
        E 16 81 30 00
        E 112 b1 0b 44
        E 0 91 32 44
        E 16 b1 0b 3b
        E 16 b1 0b 2a
        E 16 b1 0b 22
        E 16 b1 0b 11
        E 16 81 32 00
        E 304 b1 0b 44
        E 0 91 33 44
        E 16 b1 0b 3b
        E 16 b1 0b 2a
        E 16 b1 0b 22
        E 16 b1 0b 11
        E 16 81 33 00
        E 112 b1 0b 44
        E 0 91 32 44
        E 16 b1 0b 3b
        E 16 b1 0b 2a
        E 16 b1 0b 22
        E 16 b1 0b 11
        E 16 81 32 00
        E 112 b1 0b 44
        E 0 91 33 44
        E 16 b1 0b 3b
        E 16 b1 0b 2a
        E 16 b1 0b 22
        E 16 b1 0b 11
        E 16 81 33 00
        E 304 b1 0b 44
        E 0 91 33 44
        E 16 b1 0b 3b
        E 16 b1 0b 2a
        E 16 b1 0b 22
        E 16 b1 0b 11
        E 16 81 33 00
        E 112 b1 0b 44
        E 0 91 32 44
        E 16 b1 0b 3b
        E 16 b1 0b 2a
        E 16 b1 0b 22
        E 16 b1 0b 11
        E 16 81 32 00
        E 112 b1 0b 44
        E 0 91 33 44
        E 16 b1 0b 3b
        E 16 b1 0b 2a
        E 16 b1 0b 22
        E 16 b1 0b 11
        E 16 81 33 00
        E 304 b1 0b 44
        E 0 91 34 44
        E 16 b1 0b 3b
        E 16 b1 0b 2a
        E 16 b1 0b 22
        E 16 b1 0b 11
        E 16 81 34 00
        E 112 b1 0b 44
        E 0 91 32 44
        E 16 b1 0b 3b
        E 16 b1 0b 2a
        E 16 b1 0b 22
        E 16 b1 0b 11
        E 16 81 32 00
        E 112 b1 0b 44
        E 0 91 34 44
        E 16 b1 0b 3b
        E 16 b1 0b 2a
        E 16 b1 0b 22
        E 16 b1 0b 11
        E 16 81 34 00
        E 304 b1 0b 44
        E 0 91 34 44
        E 16 b1 0b 3b
        E 16 b1 0b 2a
        E 16 b1 0b 22
        E 16 b1 0b 11
        E 16 81 34 00
        E 112 b1 0b 44
        E 0 91 32 44
        E 16 b1 0b 3b
        E 16 b1 0b 2a
        E 16 b1 0b 22
        E 16 b1 0b 11
        E 16 81 32 00
        E 112 b1 0b 44
        E 0 91 34 44
        E 16 b1 0b 3b
        E 16 b1 0b 2a
        E 16 b1 0b 22
        E 16 b1 0b 11
        E 16 81 34 00
        E 304 b1 0b 44
        E 0 91 35 44
        E 16 b1 0b 3b
        E 16 b1 0b 2a
        E 16 b1 0b 22
        E 16 b1 0b 11
        E 16 81 35 00
        E 112 b1 0b 44
        E 0 91 34 44
        E 16 b1 0b 3b
        E 16 b1 0b 2a
        E 16 b1 0b 22
        E 16 b1 0b 11
        E 16 81 34 00
        E 112 b1 0b 44
        E 0 91 35 44
        E 16 b1 0b 3b
        E 16 b1 0b 2a
        E 16 b1 0b 22
        E 16 b1 0b 11
        E 16 81 35 00
        E 304 b1 0b 44
        E 0 91 35 44
        E 16 b1 0b 3b
        E 16 b1 0b 2a
        E 16 b1 0b 22
        E 16 b1 0b 11
        E 16 81 35 00
        E 112 b1 0b 44
        E 0 91 34 44
        E 16 b1 0b 3b
        E 16 b1 0b 2a
        E 16 b1 0b 22
        E 16 b1 0b 11
        E 16 81 34 00
        E 112 b1 0b 44
        E 0 91 35 44
        E 16 b1 0b 3b
        E 16 b1 0b 2a
        E 16 b1 0b 22
        E 16 b1 0b 11
        E 16 81 35 00
        E 304 b1 0b 44
        E 0 91 35 44
        E 16 b1 0b 3b
        E 16 b1 0b 2a
        E 16 b1 0b 22
        E 16 b1 0b 11
        E 16 81 35 00
        E 112 b1 0b 44
        E 0 91 34 44
        E 16 b1 0b 3b
        E 16 b1 0b 2a
        E 16 b1 0b 22
        E 16 b1 0b 11
        E 16 81 34 00
        E 112 b1 0b 44
        E 0 91 35 44
        E 16 b1 0b 3b
        E 16 b1 0b 2a
        E 16 b1 0b 22
        E 16 b1 0b 11
        E 16 81 35 00
        E 304 b1 0b 44
        E 0 91 35 44
        E 16 b1 0b 3b
        E 16 b1 0b 2a
        E 16 b1 0b 22
        E 16 b1 0b 11
        E 16 81 35 00
        E 112 b1 0b 44
        E 0 91 34 44
        E 16 b1 0b 3b
        E 16 b1 0b 2a
        E 16 b1 0b 22
        E 16 b1 0b 11
        E 16 81 34 00
        E 112 b1 0b 44
        E 0 91 35 44
        E 16 b1 0b 3b
        E 16 b1 0b 2a
        E 16 b1 0b 22
        E 16 b1 0b 11
        E 16 81 35 00
        E 304 b1 0b 44
        E 0 91 32 44
        E 16 b1 0b 3b
        E 16 b1 0b 2a
        E 16 b1 0b 22
        E 16 b1 0b 11
        E 16 81 32 00
        E 112 b1 0b 44
        E 0 91 30 44
        E 16 b1 0b 3b
        E 16 b1 0b 2a
        E 16 b1 0b 22
        E 16 b1 0b 11
        E 16 81 30 00
        E 112 b1 0b 44
        E 0 91 32 44
        E 16 b1 0b 3b
        E 16 b1 0b 2a
        E 16 b1 0b 22
        E 16 b1 0b 11
        E 16 81 32 00
        E 304 b1 0b 44
        E 0 91 32 44
        E 16 b1 0b 3b
        E 16 b1 0b 2a
        E 16 b1 0b 22
        E 16 b1 0b 11
        E 16 81 32 00
        E 112 b1 0b 44
        E 0 91 30 44
        E 16 b1 0b 3b
        E 16 b1 0b 2a
        E 16 b1 0b 22
        E 16 b1 0b 11
        E 16 81 30 00
        E 112 b1 0b 44
        E 0 91 32 44
        E 16 b1 0b 3b
        E 16 b1 0b 2a
        E 16 b1 0b 22
        E 16 b1 0b 11
        E 16 81 32 00
        E 304 b1 0b 44
        E 0 91 30 44
        E 16 b1 0b 3b
        E 16 b1 0b 2a
        E 16 b1 0b 22
        E 16 b1 0b 11
        E 16 81 30 00
        E 112 b1 0b 44
        E 0 91 2e 44
        E 16 b1 0b 3b
        E 16 b1 0b 2a
        E 16 b1 0b 22
        E 16 b1 0b 11
        E 16 81 2e 00
        E 112 b1 0b 44
        E 0 91 30 44
        E 16 b1 0b 3b
        E 16 b1 0b 2a
        E 16 b1 0b 22
        E 16 b1 0b 11
        E 16 81 30 00
        E 304 b1 0b 44
        E 0 91 30 44
        E 16 b1 0b 3b
        E 16 b1 0b 2a
        E 16 b1 0b 22
        E 16 b1 0b 11
        E 16 81 30 00
        E 112 b1 0b 44
        E 0 91 2e 44
        E 16 b1 0b 3b
        E 16 b1 0b 2a
        E 16 b1 0b 22
        E 16 b1 0b 11
        E 16 81 2e 00
        E 112 b1 0b 44
        E 0 91 30 44
        E 16 b1 0b 3b
        E 16 b1 0b 2a
        E 16 b1 0b 22
        E 16 b1 0b 11
        E 16 81 30 00
        E 304 b1 0b 44
        E 0 91 30 44
        E 16 b1 0b 3b
        E 16 b1 0b 2a
        E 16 b1 0b 22
        E 16 b1 0b 11
        E 16 81 30 00
        E 112 b1 0b 44
        E 0 91 2d 44
        E 16 b1 0b 3b
        E 16 b1 0b 2a
        E 16 b1 0b 22
        E 16 b1 0b 11
        E 16 81 2d 00
        E 112 b1 0b 44
        E 0 91 30 44
        E 16 b1 0b 3b
        E 16 b1 0b 2a
        E 16 b1 0b 22
        E 16 b1 0b 11
        E 16 81 30 00
        E 304 b1 0b 44
        E 0 91 30 44
        E 16 b1 0b 3b
        E 16 b1 0b 2a
        E 16 b1 0b 22
        E 16 b1 0b 11
        E 16 81 30 00
        E 112 b1 0b 44
        E 0 91 2d 44
        E 16 b1 0b 3b
        E 16 b1 0b 2a
        E 16 b1 0b 22
        E 16 b1 0b 11
        E 16 81 2d 00
        E 112 b1 0b 44
        E 0 91 30 44
        E 16 b1 0b 3b
        E 16 b1 0b 2a
        E 16 b1 0b 22
        E 16 b1 0b 11
        E 16 81 30 00
        E 304 b1 0b 44
        E 0 91 32 44
        E 16 b1 0b 3b
        E 16 b1 0b 2a
        E 16 b1 0b 22
        E 16 b1 0b 11
        E 16 81 32 00
        E 112 b1 0b 44
        E 0 91 30 44
        E 16 b1 0b 3b
        E 16 b1 0b 2a
        E 16 b1 0b 22
        E 16 b1 0b 11
        E 16 81 30 00
        E 112 b1 0b 44
        E 0 91 32 44
        E 16 b1 0b 3b
        E 16 b1 0b 2a
        E 16 b1 0b 22
        E 16 b1 0b 11
        E 16 81 32 00
        E 304 b1 0b 44
        E 0 91 32 44
        E 16 b1 0b 3b
        E 16 b1 0b 2a
        E 16 b1 0b 22
        E 16 b1 0b 11
        E 16 81 32 00
        E 112 b1 0b 44
        E 0 91 30 44
        E 16 b1 0b 3b
        E 16 b1 0b 2a
        E 16 b1 0b 22
        E 16 b1 0b 11
        E 16 81 30 00
        E 112 b1 0b 44
        E 0 91 32 44
        E 16 b1 0b 3b
        E 16 b1 0b 2a
        E 16 b1 0b 22
        E 16 b1 0b 11
        E 16 81 32 00
        E 304 b1 0b 44
        E 0 91 33 44
        E 16 b1 0b 3b
        E 16 b1 0b 2a
        E 16 b1 0b 22
        E 16 b1 0b 11
        E 16 81 33 00
        E 112 b1 0b 44
        E 0 91 32 44
        E 16 b1 0b 3b
        E 16 b1 0b 2a
        E 16 b1 0b 22
        E 16 b1 0b 11
        E 16 81 32 00
        E 112 b1 0b 44
        E 0 91 33 44
        E 16 b1 0b 3b
        E 16 b1 0b 2a
        E 16 b1 0b 22
        E 16 b1 0b 11
        E 16 81 33 00
        E 304 b1 0b 44
        E 0 91 33 44
        E 16 b1 0b 3b
        E 16 b1 0b 2a
        E 16 b1 0b 22
        E 16 b1 0b 11
        E 16 81 33 00
        E 112 b1 0b 44
        E 0 91 32 44
        E 16 b1 0b 3b
        E 16 b1 0b 2a
        E 16 b1 0b 22
        E 16 b1 0b 11
        E 16 81 32 00
        E 112 b1 0b 44
        E 0 91 33 44
        E 16 b1 0b 3b
        E 16 b1 0b 2a
        E 16 b1 0b 22
        E 16 b1 0b 11
        E 16 81 33 00
        E 304 b1 0b 44
        E 0 91 34 44
        E 16 b1 0b 3b
        E 16 b1 0b 2a
        E 16 b1 0b 22
        E 16 b1 0b 11
        E 16 81 34 00
        E 112 b1 0b 44
        E 0 91 32 44
        E 16 b1 0b 3b
        E 16 b1 0b 2a
        E 16 b1 0b 22
        E 16 b1 0b 11
        E 16 81 32 00
        E 112 b1 0b 44
        E 0 91 34 44
        E 16 b1 0b 3b
        E 16 b1 0b 2a
        E 16 b1 0b 22
        E 16 b1 0b 11
        E 16 81 34 00
        E 304 b1 0b 44
        E 0 91 34 44
        E 16 b1 0b 3b
        E 16 b1 0b 2a
        E 16 b1 0b 22
        E 16 b1 0b 11
        E 16 81 34 00
        E 112 b1 0b 44
        E 0 91 32 44
        E 16 b1 0b 3b
        E 16 b1 0b 2a
        E 16 b1 0b 22
        E 16 b1 0b 11
        E 16 81 32 00
        E 112 b1 0b 44
        E 0 91 34 44
        E 16 b1 0b 3b
        E 16 b1 0b 2a
        E 16 b1 0b 22
        E 16 b1 0b 11
        E 16 81 34 00
        E 112 b1 0b 44
        E 0 91 30 44
        E 16 b1 0b 3b
        E 16 b1 0b 33
        E 16 b1 0b 2a
        E 16 b1 0b 22
        E 16 b1 0b 19
        E 32 b1 0b 11
        E 16 b1 0b 08
        E 16 81 30 00
        E 48 b1 0b 44
        E 0 91 34 44
        E 16 b1 0b 3b
        E 16 b1 0b 33
        E 16 b1 0b 2a
        E 16 b1 0b 22
        E 16 b1 0b 19
        E 32 b1 0b 11
        E 16 b1 0b 08
        E 16 81 34 00
        E 48 b1 0b 44
        E 0 91 32 44
        E 16 b1 0b 3b
        E 16 b1 0b 33
        E 16 b1 0b 2a
        E 16 b1 0b 22
        E 16 b1 0b 19
        E 32 b1 0b 11
        E 16 b1 0b 08
        E 16 81 32 00
        E 48 b1 0b 44
        E 0 91 34 44
        E 16 b1 0b 3b
        E 16 b1 0b 33
        E 16 b1 0b 2a
        E 16 b1 0b 22
        E 16 b1 0b 19
        E 32 b1 0b 11
        E 16 b1 0b 08
        E 16 81 34 00
        E 48 b1 0b 44
        E 0 91 30 44
        E 16 b1 0b 3b
        E 16 b1 0b 33
        E 16 b1 0b 2a
        E 16 b1 0b 22
        E 16 b1 0b 19
        E 16 b1 0b 44
        E 16 b1 0b 3b
        E 16 b1 0b 33
        E 16 b1 0b 2a
        E 16 b1 0b 22
        E 16 b1 0b 19
        E 16 b1 0b 44
        E 0 81 30 00
        E 0 91 34 44
        E 16 b1 0b 3b
        E 16 b1 0b 33
        E 16 b1 0b 2a
        E 16 b1 0b 22
        E 16 b1 0b 19
        E 32 b1 0b 11
        E 16 b1 0b 08
        E 16 81 34 00
        E 48 b1 0b 44
        E 0 91 32 44
        E 16 b1 0b 3b
        E 16 b1 0b 33
        E 16 b1 0b 2a
        E 16 b1 0b 22
        E 16 b1 0b 19
        E 32 b1 0b 11
        E 16 b1 0b 08
        E 16 81 32 00
        E 48 b1 0b 44
        E 0 91 34 44
        E 16 b1 0b 3b
        E 16 b1 0b 33
        E 16 b1 0b 2a
        E 16 b1 0b 22
        E 16 b1 0b 19
        E 32 b1 0b 11
        E 16 b1 0b 08
        E 16 81 34 00
        E 48 b1 0b 44
        E 0 91 32 44
        E 16 b1 0b 3b
        E 16 b1 0b 33
        E 16 b1 0b 2a
        E 16 b1 0b 22
        E 16 b1 0b 19
        E 32 b1 0b 11
        E 16 b1 0b 08
        E 16 81 32 00
        E 48 b1 0b 44
        E 0 91 35 44
        E 16 b1 0b 3b
        E 16 b1 0b 33
        E 16 b1 0b 2a
        E 16 b1 0b 22
        E 16 b1 0b 19
        E 32 b1 0b 11
        E 16 b1 0b 08
        E 16 81 35 00
        E 48 b1 0b 44
        E 0 91 34 44
        E 16 b1 0b 3b
        E 16 b1 0b 33
        E 16 b1 0b 2a
        E 16 b1 0b 22
        E 16 b1 0b 19
        E 32 b1 0b 11
        E 16 b1 0b 08
        E 16 81 34 00
        E 48 b1 0b 44
        E 0 91 35 44
        E 16 b1 0b 3b
        E 16 b1 0b 33
        E 16 b1 0b 2a
        E 16 b1 0b 22
        E 16 b1 0b 19
        E 32 b1 0b 11
        E 16 b1 0b 08
        E 16 81 35 00
        E 48 b1 0b 44
        E 0 91 32 44
        E 16 b1 0b 3b
        E 16 b1 0b 33
        E 16 b1 0b 2a
        E 16 b1 0b 22
        E 16 b1 0b 19
        E 16 b1 0b 44
        E 16 b1 0b 3b
        E 16 b1 0b 33
        E 16 b1 0b 2a
        E 16 b1 0b 22
        E 16 b1 0b 19
        E 16 b1 0b 44
        E 0 81 32 00
        E 0 91 35 44
        E 16 b1 0b 3b
        E 16 b1 0b 33
        E 16 b1 0b 2a
        E 16 b1 0b 22
        E 16 b1 0b 19
        E 32 b1 0b 11
        E 16 b1 0b 08
        E 16 81 35 00
        E 48 b1 0b 44
        E 0 91 34 44
        E 16 b1 0b 3b
        E 16 b1 0b 33
        E 16 b1 0b 2a
        E 16 b1 0b 22
        E 16 b1 0b 19
        E 32 b1 0b 11
        E 16 b1 0b 08
        E 16 81 34 00
        E 48 b1 0b 44
        E 0 91 35 44
        E 16 b1 0b 3b
        E 16 b1 0b 33
        E 16 b1 0b 2a
        E 16 b1 0b 22
        E 16 b1 0b 19
        E 32 b1 0b 11
        E 16 b1 0b 08
        E 16 81 35 00
        E 48 b1 0b 44
        E 0 91 30 44
        E 16 b1 0b 3b
        E 16 b1 0b 33
        E 16 b1 0b 2a
        E 16 b1 0b 22
        E 16 b1 0b 19
        E 32 b1 0b 11
        E 16 b1 0b 08
        E 16 81 30 00
        E 48 b1 0b 44
        E 0 91 34 44
        E 16 b1 0b 3b
        E 16 b1 0b 33
        E 16 b1 0b 2a
        E 16 b1 0b 22
        E 16 b1 0b 19
        E 32 b1 0b 11
        E 16 b1 0b 08
        E 16 81 34 00
        E 48 b1 0b 44
        E 0 91 32 44
        E 16 b1 0b 3b
        E 16 b1 0b 33
        E 16 b1 0b 2a
        E 16 b1 0b 22
        E 16 b1 0b 19
        E 32 b1 0b 11
        E 16 b1 0b 08
        E 16 81 32 00
        E 48 b1 0b 44
        E 0 91 34 44
        E 16 b1 0b 3b
        E 16 b1 0b 33
        E 16 b1 0b 2a
        E 16 b1 0b 22
        E 16 b1 0b 19
        E 32 b1 0b 11
        E 16 b1 0b 08
        E 16 81 34 00
        E 48 b1 0b 44
        E 0 91 30 44
        E 16 b1 0b 3b
        E 16 b1 0b 33
        E 16 b1 0b 2a
        E 16 b1 0b 22
        E 16 b1 0b 19
        E 16 b1 0b 44
        E 16 b1 0b 3b
        E 16 b1 0b 33
        E 16 b1 0b 2a
        E 16 b1 0b 22
        E 16 b1 0b 19
        E 16 b1 0b 44
        E 0 81 30 00
        E 0 91 34 44
        E 16 b1 0b 3b
        E 16 b1 0b 33
        E 16 b1 0b 2a
        E 16 b1 0b 22
        E 16 b1 0b 19
        E 32 b1 0b 11
        E 16 b1 0b 08
        E 16 81 34 00
        E 48 b1 0b 44
        E 0 91 32 44
        E 16 b1 0b 3b
        E 16 b1 0b 33
        E 16 b1 0b 2a
        E 16 b1 0b 22
        E 16 b1 0b 19
        E 32 b1 0b 11
        E 16 b1 0b 08
        E 16 81 32 00
        E 48 b1 0b 44
        E 0 91 34 44
        E 16 b1 0b 3b
        E 16 b1 0b 33
        E 16 b1 0b 2a
        E 16 b1 0b 22
        E 16 b1 0b 19
        E 32 b1 0b 11
        E 16 b1 0b 08
        E 16 81 34 00
        E 48 b1 0b 44
        E 0 91 32 44
        E 16 b1 0b 3b
        E 16 b1 0b 33
        E 16 b1 0b 2a
        E 16 b1 0b 22
        E 16 b1 0b 19
        E 32 b1 0b 11
        E 16 b1 0b 08
        E 16 81 32 00
        E 48 b1 0b 44
        E 0 91 35 44
        E 16 b1 0b 3b
        E 16 b1 0b 33
        E 16 b1 0b 2a
        E 16 b1 0b 22
        E 16 b1 0b 19
        E 32 b1 0b 11
        E 16 b1 0b 08
        E 16 81 35 00
        E 48 b1 0b 44
        E 0 91 34 44
        E 16 b1 0b 3b
        E 16 b1 0b 33
        E 16 b1 0b 2a
        E 16 b1 0b 22
        E 16 b1 0b 19
        E 32 b1 0b 11
        E 16 b1 0b 08
        E 16 81 34 00
        E 48 b1 0b 44
        E 0 91 35 44
        E 16 b1 0b 3b
        E 16 b1 0b 33
        E 16 b1 0b 2a
        E 16 b1 0b 22
        E 16 b1 0b 19
        E 32 b1 0b 11
        E 16 b1 0b 08
        E 16 81 35 00
        E 48 b1 0b 44
        E 0 91 32 44
        E 16 b1 0b 3b
        E 16 b1 0b 33
        E 16 b1 0b 2a
        E 16 b1 0b 22
        E 16 b1 0b 19
        E 16 b1 0b 44
        E 16 b1 0b 3b
        E 16 b1 0b 33
        E 16 b1 0b 2a
        E 16 b1 0b 22
        E 16 b1 0b 19
        E 16 b1 0b 44
        E 0 81 32 00
        E 0 91 35 44
        E 16 b1 0b 3b
        E 16 b1 0b 33
        E 16 b1 0b 2a
        E 16 b1 0b 22
        E 16 b1 0b 19
        E 32 b1 0b 11
        E 16 b1 0b 08
        E 16 81 35 00
        E 48 b1 0b 44
        E 0 91 34 44
        E 16 b1 0b 3b
        E 16 b1 0b 33
        E 16 b1 0b 2a
        E 16 b1 0b 22
        E 16 b1 0b 19
        E 32 b1 0b 11
        E 16 b1 0b 08
        E 16 81 34 00
        E 48 b1 0b 44
        E 0 91 35 44
        E 16 b1 0b 3b
        E 16 b1 0b 33
        E 16 b1 0b 2a
        E 16 b1 0b 22
        E 16 b1 0b 19
        E 32 b1 0b 11
        E 16 b1 0b 08
        E 16 81 35 00
        E 48 b1 0b 44
        E 0 91 32 44
        E 16 b1 0b 3b
        E 16 b1 0b 33
        E 16 b1 0b 2a
        E 16 b1 0b 22
        E 16 b1 0b 19
        E 32 b1 0b 11
        E 16 b1 0b 08
        E 16 81 32 00
        E 48 b1 0b 44
        E 0 91 35 44
        E 16 b1 0b 3b
        E 16 b1 0b 33
        E 16 b1 0b 2a
        E 16 b1 0b 22
        E 16 b1 0b 19
        E 32 b1 0b 11
        E 16 b1 0b 08
        E 16 81 35 00
        E 48 b1 0b 44
        E 0 91 34 44
        E 16 b1 0b 3b
        E 16 b1 0b 33
        E 16 b1 0b 2a
        E 16 b1 0b 22
        E 16 b1 0b 19
        E 32 b1 0b 11
        E 16 b1 0b 08
        E 16 81 34 00
        E 48 b1 0b 44
        E 0 91 35 44
        E 16 b1 0b 3b
        E 16 b1 0b 33
        E 16 b1 0b 2a
        E 16 b1 0b 22
        E 16 b1 0b 19
        E 32 b1 0b 11
        E 16 b1 0b 08
        E 16 81 35 00
        E 48 b1 0b 44
        E 0 91 32 44
        E 16 b1 0b 3b
        E 16 b1 0b 33
        E 16 b1 0b 2a
        E 16 b1 0b 22
        E 16 b1 0b 19
        E 16 b1 0b 44
        E 16 b1 0b 3b
        E 16 b1 0b 33
        E 16 b1 0b 2a
        E 16 b1 0b 22
        E 16 b1 0b 19
        E 16 b1 0b 44
        E 0 81 32 00
        E 0 91 35 44
        E 16 b1 0b 3b
        E 16 b1 0b 33
        E 16 b1 0b 2a
        E 16 b1 0b 22
        E 16 b1 0b 19
        E 32 b1 0b 11
        E 16 b1 0b 08
        E 16 81 35 00
        E 48 b1 0b 44
        E 0 91 34 44
        E 16 b1 0b 3b
        E 16 b1 0b 33
        E 16 b1 0b 2a
        E 16 b1 0b 22
        E 16 b1 0b 19
        E 32 b1 0b 11
        E 16 b1 0b 08
        E 16 81 34 00
        E 48 b1 0b 44
        E 0 91 35 44
        E 16 b1 0b 3b
        E 16 b1 0b 33
        E 16 b1 0b 2a
        E 16 b1 0b 22
        E 16 b1 0b 19
        E 32 b1 0b 11
        E 16 b1 0b 08
        E 16 81 35 00
        E 48 b1 0b 44
        E 0 91 32 44
        E 16 b1 0b 3b
        E 16 b1 0b 33
        E 16 b1 0b 2a
        E 16 b1 0b 22
        E 16 b1 0b 19
        E 32 b1 0b 11
        E 16 b1 0b 08
        E 16 81 32 00
        E 48 b1 0b 44
        E 0 91 35 44
        E 16 b1 0b 3b
        E 16 b1 0b 33
        E 16 b1 0b 2a
        E 16 b1 0b 22
        E 16 b1 0b 19
        E 32 b1 0b 11
        E 16 b1 0b 08
        E 16 81 35 00
        E 48 b1 0b 44
        E 0 91 34 44
        E 16 b1 0b 3b
        E 16 b1 0b 33
        E 16 b1 0b 2a
        E 16 b1 0b 22
        E 16 b1 0b 19
        E 32 b1 0b 11
        E 16 b1 0b 08
        E 16 81 34 00
        E 48 b1 0b 44
        E 0 91 35 44
        E 16 b1 0b 3b
        E 16 b1 0b 33
        E 16 b1 0b 2a
        E 16 b1 0b 22
        E 16 b1 0b 19
        E 32 b1 0b 11
        E 16 b1 0b 08
        E 16 81 35 00
        E 48 b1 0b 44
        E 0 91 32 44
        E 16 b1 0b 3b
        E 16 b1 0b 33
        E 16 b1 0b 2a
        E 16 b1 0b 22
        E 16 b1 0b 19
        E 16 b1 0b 44
        E 16 b1 0b 3b
        E 16 b1 0b 33
        E 16 b1 0b 2a
        E 16 b1 0b 22
        E 16 b1 0b 19
        E 16 b1 0b 44
        E 0 81 32 00
        E 0 91 35 44
        E 16 b1 0b 3b
        E 16 b1 0b 33
        E 16 b1 0b 2a
        E 16 b1 0b 22
        E 16 b1 0b 19
        E 32 b1 0b 11
        E 16 b1 0b 08
        E 16 81 35 00
        E 48 b1 0b 44
        E 0 91 34 44
        E 16 b1 0b 3b
        E 16 b1 0b 33
        E 16 b1 0b 2a
        E 16 b1 0b 22
        E 16 b1 0b 19
        E 32 b1 0b 11
        E 16 b1 0b 08
        E 16 81 34 00
        E 48 b1 0b 44
        E 0 91 35 44
        E 16 b1 0b 3b
        E 16 b1 0b 33
        E 16 b1 0b 2a
        E 16 b1 0b 22
        E 16 b1 0b 19
        E 32 b1 0b 11
        E 16 b1 0b 08
        E 16 81 35 00
        E 48 b1 0b 44
        E 0 91 32 44
        E 16 b1 0b 3b
        E 16 b1 0b 33
        E 16 b1 0b 2a
        E 16 b1 0b 22
        E 16 b1 0b 19
        E 32 b1 0b 11
        E 16 b1 0b 08
        E 16 81 32 00
        E 48 b1 0b 44
        E 0 91 35 44
        E 16 b1 0b 3b
        E 16 b1 0b 33
        E 16 b1 0b 2a
        E 16 b1 0b 22
        E 16 b1 0b 19
        E 32 b1 0b 11
        E 16 b1 0b 08
        E 16 81 35 00
        E 48 b1 0b 44
        E 0 91 34 44
        E 16 b1 0b 3b
        E 16 b1 0b 33
        E 16 b1 0b 2a
        E 16 b1 0b 22
        E 16 b1 0b 19
        E 32 b1 0b 11
        E 16 b1 0b 08
        E 16 81 34 00
        E 48 b1 0b 44
        E 0 91 35 44
        E 16 b1 0b 3b
        E 16 b1 0b 33
        E 16 b1 0b 2a
        E 16 b1 0b 22
        E 16 b1 0b 19
        E 32 b1 0b 11
        E 16 b1 0b 08
        E 16 81 35 00
        E 48 b1 0b 44
        E 0 91 32 44
        E 16 b1 0b 3b
        E 16 b1 0b 33
        E 16 b1 0b 2a
        E 16 b1 0b 22
        E 16 b1 0b 19
        E 16 b1 0b 44
        E 16 b1 0b 3b
        E 16 b1 0b 33
        E 16 b1 0b 2a
        E 16 b1 0b 22
        E 16 b1 0b 19
        E 16 b1 0b 44
        E 0 81 32 00
        E 0 91 35 44
        E 16 b1 0b 3b
        E 16 b1 0b 33
        E 16 b1 0b 2a
        E 16 b1 0b 22
        E 16 b1 0b 19
        E 32 b1 0b 11
        E 16 b1 0b 08
        E 16 81 35 00
        E 48 b1 0b 44
        E 0 91 34 44
        E 16 b1 0b 3b
        E 16 b1 0b 33
        E 16 b1 0b 2a
        E 16 b1 0b 22
        E 16 b1 0b 19
        E 32 b1 0b 11
        E 16 b1 0b 08
        E 16 81 34 00
        E 48 b1 0b 44
        E 0 91 35 44
        E 16 b1 0b 3b
        E 16 b1 0b 33
        E 16 b1 0b 2a
        E 16 b1 0b 22
        E 16 b1 0b 19
        E 32 b1 0b 11
        E 16 b1 0b 08
        E 16 81 35 00
        E 48 b1 0b 44
        E 0 91 37 44
        E 16 b1 0b 3b
        E 16 b1 0b 33
        E 16 b1 0b 2a
        E 16 b1 0b 22
        E 16 b1 0b 19
        E 32 b1 0b 11
        E 16 b1 0b 08
        E 16 81 37 00
        E 48 b1 0b 44
        E 0 91 37 44
        E 16 b1 0b 3b
        E 16 b1 0b 33
        E 16 b1 0b 2a
        E 16 b1 0b 22
        E 16 b1 0b 19
        E 32 b1 0b 11
        E 16 b1 0b 08
        E 16 81 37 00
        E 240 b1 0b 44
        E 0 91 37 44
        E 16 b1 0b 3b
        E 16 b1 0b 33
        E 16 b1 0b 2a
        E 16 b1 0b 22
        E 16 b1 0b 19
        E 32 b1 0b 11
        E 16 b1 0b 08
        E 16 81 37 00
        E 240 b1 0b 44
        E 0 91 37 44
        E 16 b1 0b 3b
        E 16 b1 0b 33
        E 16 b1 0b 2a
        E 16 b1 0b 22
        E 16 b1 0b 19
        E 32 b1 0b 11
        E 16 b1 0b 08
        E 16 81 37 00
        E 240 b1 0b 44
        E 0 91 37 44
        E 16 b1 0b 3b
        E 16 b1 0b 33
        E 16 b1 0b 2a
        E 16 b1 0b 22
        E 16 b1 0b 19
        E 32 b1 0b 11
        E 16 b1 0b 08
        E 16 81 37 00
        E 240 b1 0b 44
        E 0 91 35 44
        E 16 b1 0b 3b
        E 16 b1 0b 2a
        E 16 b1 0b 22
        E 16 b1 0b 11
        E 16 81 35 00
        E 112 b1 0b 44
        E 0 91 34 44
        E 16 b1 0b 3b
        E 16 b1 0b 2a
        E 16 b1 0b 22
        E 16 b1 0b 11
        E 16 81 34 00
        E 112 b1 0b 44
        E 0 91 35 44
        E 16 b1 0b 3b
        E 16 b1 0b 2a
        E 16 b1 0b 22
        E 16 b1 0b 11
        E 16 81 35 00
        E 304 b1 0b 44
        E 0 91 35 44
        E 16 b1 0b 3b
        E 16 b1 0b 2a
        E 16 b1 0b 22
        E 16 b1 0b 11
        E 16 81 35 00
        E 112 b1 0b 44
        E 0 91 34 44
        E 16 b1 0b 3b
        E 16 b1 0b 2a
        E 16 b1 0b 22
        E 16 b1 0b 11
        E 16 81 34 00
        E 112 b1 0b 44
        E 0 91 35 44
        E 16 b1 0b 3b
        E 16 b1 0b 2a
        E 16 b1 0b 22
        E 16 b1 0b 11
        E 16 81 35 00
        E 304 b1 0b 44
        E 0 91 35 44
        E 16 b1 0b 3b
        E 16 b1 0b 2a
        E 16 b1 0b 22
        E 16 b1 0b 11
        E 16 81 35 00
        E 112 b1 0b 44
        E 0 91 34 44
        E 16 b1 0b 3b
        E 16 b1 0b 2a
        E 16 b1 0b 22
        E 16 b1 0b 11
        E 16 81 34 00
        E 112 b1 0b 44
        E 0 91 35 44
        E 16 b1 0b 3b
        E 16 b1 0b 2a
        E 16 b1 0b 22
        E 16 81 35 00
        E 0 b1 7b 00
        E 0 ff 2f 00
      >
    >
  >
  <TRACK {5C7C6277-C70C-417B-AE0E-6009208AF3D1}
    NAME "NES - Triangle [ch2]"
    PEAKCOL 16744192
    BEAT -1
    AUTOMODE 0
    PANLAWFLAGS 3
    VOLPAN 1 0 -1 -1 1
    MUTESOLO 0 0 0
    IPHASE 0
    PLAYOFFS 0 1
    ISBUS 0 0
    BUSCOMP 0 0 0 0 0
    SHOWINMIX 1 0.6667 0.5 1 0.5 0 0 0
    FIXEDLANES 9 0 0 0 0
    SEL 0
    REC 0 5088 1 0 0 0 0 0
    VU 2
    TRACKHEIGHT 0 0 0 0 0 0 0
    INQ 0 0 0 0.5 100 0 0 100
    NCHAN 2
    FX 1
    TRACKID {5C7C6277-C70C-417B-AE0E-6009208AF3D1}
    PERF 0
    MIDIOUT -1
    MAINSEND 1 0
    <FXCHAIN
      WNDRECT 24 52 700 560
      SHOW 0
      LASTSEL 0
      DOCKED 0
      BYPASS 0 0 0
      <JS "ReapNES Studio/ReapNES_Console.jsfx" ""
        2 15 1 10 80 10 100 2 1 15 1 5 60 10 80 1 1 0 50 0 0 15 1 0 100 0 0 0.500000 0.500000 0.400000 0.300000 0.800000 2 1 0 0 0 0 - - - - - - - - - - - - - - - - - - - - - - - - - -
      >
      FLOATPOS 0 0 0 0
      FXID {9FC56E18-DD1F-491D-816B-88C98D1187EA}
      WAK 0 0
    >
    <ITEM
      POSITION 0
      LENGTH 74.5878716
      LOOP 0
      ALLTAKES 0
      FADEIN 0 0 0 0 0 0 0
      FADEOUT 0 0 0 0 0 0 0
      MUTE 0 0
      SEL 0
      IGUID {8F90B8C6-5AE9-47BA-B5FA-1981C9B7C068}
      <SOURCE MIDI
        HASDATA 1 480 QN
        CCINTERP 32
        E 0 c2 26
        E 832 b2 0b 7f
        E 0 92 29 7f
        E 192 82 29 00
        E 0 b2 0b 7f
        E 0 92 30 7f
        E 96 82 30 00
        E 96 b2 0b 7f
        E 0 92 29 7f
        E 192 82 29 00
        E 0 b2 0b 7f
        E 0 92 30 7f
        E 96 82 30 00
        E 96 b2 0b 7f
        E 0 92 29 7f
        E 192 82 29 00
        E 0 b2 0b 7f
        E 0 92 30 7f
        E 96 82 30 00
        E 96 b2 0b 7f
        E 0 92 29 7f
        E 192 82 29 00
        E 0 b2 0b 7f
        E 0 92 30 7f
        E 96 82 30 00
        E 96 b2 0b 7f
        E 0 92 26 7f
        E 192 82 26 00
        E 0 b2 0b 7f
        E 0 92 2d 7f
        E 96 82 2d 00
        E 96 b2 0b 7f
        E 0 92 26 7f
        E 192 82 26 00
        E 0 b2 0b 7f
        E 0 92 2d 7f
        E 96 82 2d 00
        E 96 b2 0b 7f
        E 0 92 26 7f
        E 192 82 26 00
        E 0 b2 0b 7f
        E 0 92 2d 7f
        E 96 82 2d 00
        E 96 b2 0b 7f
        E 0 92 26 7f
        E 192 82 26 00
        E 0 b2 0b 7f
        E 0 92 2d 7f
        E 96 82 2d 00
        E 96 b2 0b 7f
        E 0 92 22 7f
        E 192 82 22 00
        E 0 b2 0b 7f
        E 0 92 29 7f
        E 96 82 29 00
        E 96 b2 0b 7f
        E 0 92 22 7f
        E 192 82 22 00
        E 0 b2 0b 7f
        E 0 92 29 7f
        E 96 82 29 00
        E 96 b2 0b 7f
        E 0 92 22 7f
        E 192 82 22 00
        E 0 b2 0b 7f
        E 0 92 29 7f
        E 96 82 29 00
        E 96 b2 0b 7f
        E 0 92 22 7f
        E 192 82 22 00
        E 0 b2 0b 7f
        E 0 92 29 7f
        E 96 82 29 00
        E 96 b2 0b 7f
        E 0 92 24 7f
        E 192 82 24 00
        E 0 b2 0b 7f
        E 0 92 2b 7f
        E 96 82 2b 00
        E 96 b2 0b 7f
        E 0 92 24 7f
        E 192 82 24 00
        E 0 b2 0b 7f
        E 0 92 2b 7f
        E 96 82 2b 00
        E 96 b2 0b 7f
        E 0 92 24 7f
        E 192 82 24 00
        E 0 b2 0b 7f
        E 0 92 2b 7f
        E 96 82 2b 00
        E 96 b2 0b 7f
        E 0 92 24 7f
        E 192 82 24 00
        E 0 b2 0b 7f
        E 0 92 2b 7f
        E 96 82 2b 00
        E 96 b2 0b 7f
        E 0 92 21 7f
        E 192 82 21 00
        E 0 b2 0b 7f
        E 0 92 28 7f
        E 96 82 28 00
        E 96 b2 0b 7f
        E 0 92 21 7f
        E 192 82 21 00
        E 0 b2 0b 7f
        E 0 92 28 7f
        E 96 82 28 00
        E 96 b2 0b 7f
        E 0 92 21 7f
        E 192 82 21 00
        E 0 b2 0b 7f
        E 0 92 28 7f
        E 96 82 28 00
        E 96 b2 0b 7f
        E 0 92 21 7f
        E 192 82 21 00
        E 0 b2 0b 7f
        E 0 92 28 7f
        E 96 82 28 00
        E 96 b2 0b 7f
        E 0 92 26 7f
        E 192 82 26 00
        E 0 b2 0b 7f
        E 0 92 2d 7f
        E 96 82 2d 00
        E 96 b2 0b 7f
        E 0 92 26 7f
        E 192 82 26 00
        E 0 b2 0b 7f
        E 0 92 2d 7f
        E 96 82 2d 00
        E 96 b2 0b 7f
        E 0 92 26 7f
        E 192 82 26 00
        E 0 b2 0b 7f
        E 0 92 2d 7f
        E 96 82 2d 00
        E 96 b2 0b 7f
        E 0 92 26 7f
        E 192 82 26 00
        E 0 b2 0b 7f
        E 0 92 2d 7f
        E 96 82 2d 00
        E 96 b2 0b 7f
        E 0 92 27 7f
        E 192 82 27 00
        E 0 b2 0b 7f
        E 0 92 2e 7f
        E 96 82 2e 00
        E 96 b2 0b 7f
        E 0 92 27 7f
        E 192 82 27 00
        E 0 b2 0b 7f
        E 0 92 2e 7f
        E 96 82 2e 00
        E 96 b2 0b 7f
        E 0 92 27 7f
        E 192 82 27 00
        E 0 b2 0b 7f
        E 0 92 2e 7f
        E 96 82 2e 00
        E 96 b2 0b 7f
        E 0 92 27 7f
        E 192 82 27 00
        E 0 b2 0b 7f
        E 0 92 2e 7f
        E 96 82 2e 00
        E 96 b2 0b 7f
        E 0 92 24 7f
        E 192 82 24 00
        E 0 b2 0b 7f
        E 0 92 2b 7f
        E 96 82 2b 00
        E 96 b2 0b 7f
        E 0 92 24 7f
        E 192 82 24 00
        E 0 b2 0b 7f
        E 0 92 2b 7f
        E 96 82 2b 00
        E 96 b2 0b 7f
        E 0 92 24 7f
        E 192 82 24 00
        E 0 b2 0b 7f
        E 0 92 2b 7f
        E 96 82 2b 00
        E 96 b2 0b 7f
        E 0 92 24 7f
        E 192 82 24 00
        E 0 b2 0b 7f
        E 0 92 2b 7f
        E 96 82 2b 00
        E 96 b2 0b 7f
        E 0 92 29 7f
        E 192 82 29 00
        E 0 b2 0b 7f
        E 0 92 30 7f
        E 96 82 30 00
        E 96 b2 0b 7f
        E 0 92 29 7f
        E 192 82 29 00
        E 0 b2 0b 7f
        E 0 92 30 7f
        E 96 82 30 00
        E 96 b2 0b 7f
        E 0 92 29 7f
        E 192 82 29 00
        E 0 b2 0b 7f
        E 0 92 30 7f
        E 96 82 30 00
        E 96 b2 0b 7f
        E 0 92 29 7f
        E 192 82 29 00
        E 0 b2 0b 7f
        E 0 92 30 7f
        E 96 82 30 00
        E 96 b2 0b 7f
        E 0 92 26 7f
        E 192 82 26 00
        E 0 b2 0b 7f
        E 0 92 2d 7f
        E 96 82 2d 00
        E 96 b2 0b 7f
        E 0 92 26 7f
        E 192 82 26 00
        E 0 b2 0b 7f
        E 0 92 2d 7f
        E 96 82 2d 00
        E 96 b2 0b 7f
        E 0 92 26 7f
        E 192 82 26 00
        E 0 b2 0b 7f
        E 0 92 2d 7f
        E 96 82 2d 00
        E 96 b2 0b 7f
        E 0 92 26 7f
        E 192 82 26 00
        E 0 b2 0b 7f
        E 0 92 2d 7f
        E 96 82 2d 00
        E 96 b2 0b 7f
        E 0 92 22 7f
        E 192 82 22 00
        E 0 b2 0b 7f
        E 0 92 29 7f
        E 96 82 29 00
        E 96 b2 0b 7f
        E 0 92 22 7f
        E 192 82 22 00
        E 0 b2 0b 7f
        E 0 92 29 7f
        E 96 82 29 00
        E 96 b2 0b 7f
        E 0 92 22 7f
        E 192 82 22 00
        E 0 b2 0b 7f
        E 0 92 29 7f
        E 96 82 29 00
        E 96 b2 0b 7f
        E 0 92 22 7f
        E 192 82 22 00
        E 0 b2 0b 7f
        E 0 92 29 7f
        E 96 82 29 00
        E 96 b2 0b 7f
        E 0 92 24 7f
        E 192 82 24 00
        E 0 b2 0b 7f
        E 0 92 2b 7f
        E 96 82 2b 00
        E 96 b2 0b 7f
        E 0 92 24 7f
        E 192 82 24 00
        E 0 b2 0b 7f
        E 0 92 2b 7f
        E 96 82 2b 00
        E 96 b2 0b 7f
        E 0 92 24 7f
        E 192 82 24 00
        E 0 b2 0b 7f
        E 0 92 2b 7f
        E 96 82 2b 00
        E 96 b2 0b 7f
        E 0 92 24 7f
        E 192 82 24 00
        E 0 b2 0b 7f
        E 0 92 2b 7f
        E 96 82 2b 00
        E 96 b2 0b 7f
        E 0 92 21 7f
        E 192 82 21 00
        E 0 b2 0b 7f
        E 0 92 28 7f
        E 96 82 28 00
        E 96 b2 0b 7f
        E 0 92 21 7f
        E 192 82 21 00
        E 0 b2 0b 7f
        E 0 92 28 7f
        E 96 82 28 00
        E 96 b2 0b 7f
        E 0 92 21 7f
        E 192 82 21 00
        E 0 b2 0b 7f
        E 0 92 28 7f
        E 96 82 28 00
        E 96 b2 0b 7f
        E 0 92 21 7f
        E 192 82 21 00
        E 0 b2 0b 7f
        E 0 92 28 7f
        E 96 82 28 00
        E 96 b2 0b 7f
        E 0 92 26 7f
        E 192 82 26 00
        E 0 b2 0b 7f
        E 0 92 2d 7f
        E 96 82 2d 00
        E 96 b2 0b 7f
        E 0 92 26 7f
        E 192 82 26 00
        E 0 b2 0b 7f
        E 0 92 2d 7f
        E 96 82 2d 00
        E 96 b2 0b 7f
        E 0 92 26 7f
        E 192 82 26 00
        E 0 b2 0b 7f
        E 0 92 2d 7f
        E 96 82 2d 00
        E 96 b2 0b 7f
        E 0 92 26 7f
        E 192 82 26 00
        E 0 b2 0b 7f
        E 0 92 2d 7f
        E 96 82 2d 00
        E 96 b2 0b 7f
        E 0 92 27 7f
        E 192 82 27 00
        E 0 b2 0b 7f
        E 0 92 2e 7f
        E 96 82 2e 00
        E 96 b2 0b 7f
        E 0 92 27 7f
        E 192 82 27 00
        E 0 b2 0b 7f
        E 0 92 2e 7f
        E 96 82 2e 00
        E 96 b2 0b 7f
        E 0 92 27 7f
        E 192 82 27 00
        E 0 b2 0b 7f
        E 0 92 2e 7f
        E 96 82 2e 00
        E 96 b2 0b 7f
        E 0 92 27 7f
        E 192 82 27 00
        E 0 b2 0b 7f
        E 0 92 2e 7f
        E 96 82 2e 00
        E 96 b2 0b 7f
        E 0 92 24 7f
        E 192 82 24 00
        E 0 b2 0b 7f
        E 0 92 2b 7f
        E 96 82 2b 00
        E 96 b2 0b 7f
        E 0 92 24 7f
        E 192 82 24 00
        E 0 b2 0b 7f
        E 0 92 2b 7f
        E 96 82 2b 00
        E 96 b2 0b 7f
        E 0 92 24 7f
        E 192 82 24 00
        E 0 b2 0b 7f
        E 0 92 2b 7f
        E 96 82 2b 00
        E 96 b2 0b 7f
        E 0 92 24 7f
        E 192 82 24 00
        E 0 b2 0b 7f
        E 0 92 2b 7f
        E 96 82 2b 00
        E 96 b2 0b 7f
        E 0 92 21 7f
        E 96 82 21 00
        E 96 b2 0b 7f
        E 0 92 21 7f
        E 96 82 21 00
        E 672 b2 0b 7f
        E 0 92 28 7f
        E 96 82 28 00
        E 96 b2 0b 7f
        E 0 92 2d 7f
        E 96 82 2d 00
        E 96 b2 0b 7f
        E 0 92 28 7f
        E 96 82 28 00
        E 96 b2 0b 7f
        E 0 92 26 7f
        E 96 82 26 00
        E 96 b2 0b 7f
        E 0 92 26 7f
        E 96 82 26 00
        E 672 b2 0b 7f
        E 0 92 29 7f
        E 96 82 29 00
        E 96 b2 0b 7f
        E 0 92 2d 7f
        E 96 82 2d 00
        E 96 b2 0b 7f
        E 0 92 29 7f
        E 96 82 29 00
        E 96 b2 0b 7f
        E 0 92 21 7f
        E 96 82 21 00
        E 96 b2 0b 7f
        E 0 92 21 7f
        E 96 82 21 00
        E 672 b2 0b 7f
        E 0 92 28 7f
        E 96 82 28 00
        E 96 b2 0b 7f
        E 0 92 2d 7f
        E 96 82 2d 00
        E 96 b2 0b 7f
        E 0 92 28 7f
        E 96 82 28 00
        E 96 b2 0b 7f
        E 0 92 26 7f
        E 96 82 26 00
        E 96 b2 0b 7f
        E 0 92 26 7f
        E 96 82 26 00
        E 672 b2 0b 7f
        E 0 92 29 7f
        E 96 82 29 00
        E 96 b2 0b 7f
        E 0 92 2d 7f
        E 96 82 2d 00
        E 96 b2 0b 7f
        E 0 92 29 7f
        E 96 82 29 00
        E 96 b2 0b 7f
        E 0 92 22 7f
        E 96 82 22 00
        E 96 b2 0b 7f
        E 0 92 22 7f
        E 96 82 22 00
        E 672 b2 0b 7f
        E 0 92 29 7f
        E 96 82 29 00
        E 96 b2 0b 7f
        E 0 92 2e 7f
        E 96 82 2e 00
        E 96 b2 0b 7f
        E 0 92 29 7f
        E 96 82 29 00
        E 96 b2 0b 7f
        E 0 92 1f 7f
        E 96 82 1f 00
        E 96 b2 0b 7f
        E 0 92 1f 7f
        E 96 82 1f 00
        E 672 b2 0b 7f
        E 0 92 26 7f
        E 96 82 26 00
        E 96 b2 0b 7f
        E 0 92 2b 7f
        E 96 82 2b 00
        E 96 b2 0b 7f
        E 0 92 26 7f
        E 96 82 26 00
        E 96 b2 0b 7f
        E 0 92 23 7f
        E 96 82 23 00
        E 96 b2 0b 7f
        E 0 92 23 7f
        E 96 82 23 00
        E 672 b2 0b 7f
        E 0 92 26 7f
        E 96 82 26 00
        E 96 b2 0b 7f
        E 0 92 2b 7f
        E 96 82 2b 00
        E 96 b2 0b 7f
        E 0 92 26 7f
        E 96 82 26 00
        E 96 b2 0b 7f
        E 0 92 24 7f
        E 192 82 24 00
        E 0 b2 0b 7f
        E 0 92 2b 7f
        E 96 82 2b 00
        E 96 b2 0b 7f
        E 0 92 26 7f
        E 192 82 26 00
        E 0 b2 0b 7f
        E 0 92 2b 7f
        E 96 82 2b 00
        E 96 b2 0b 7f
        E 0 92 27 7f
        E 192 82 27 00
        E 0 b2 0b 7f
        E 0 92 2e 7f
        E 96 82 2e 00
        E 96 b2 0b 7f
        E 0 92 28 7f
        E 192 82 28 00
        E 0 b2 0b 7f
        E 0 92 2e 7f
        E 96 82 2e 00
        E 96 b2 0b 7f
        E 0 92 29 7f
        E 192 82 29 00
        E 0 b2 0b 7f
        E 0 92 30 7f
        E 96 82 30 00
        E 96 b2 0b 7f
        E 0 92 29 7f
        E 192 82 29 00
        E 0 b2 0b 7f
        E 0 92 30 7f
        E 96 82 30 00
        E 96 b2 0b 7f
        E 0 92 29 7f
        E 192 82 29 00
        E 0 b2 0b 7f
        E 0 92 30 7f
        E 96 82 30 00
        E 96 b2 0b 7f
        E 0 92 29 7f
        E 192 82 29 00
        E 0 b2 0b 7f
        E 0 92 30 7f
        E 96 82 30 00
        E 96 b2 0b 7f
        E 0 92 26 7f
        E 192 82 26 00
        E 0 b2 0b 7f
        E 0 92 2d 7f
        E 96 82 2d 00
        E 96 b2 0b 7f
        E 0 92 26 7f
        E 192 82 26 00
        E 0 b2 0b 7f
        E 0 92 2d 7f
        E 96 82 2d 00
        E 96 b2 0b 7f
        E 0 92 26 7f
        E 192 82 26 00
        E 0 b2 0b 7f
        E 0 92 2d 7f
        E 96 82 2d 00
        E 96 b2 0b 7f
        E 0 92 26 7f
        E 192 82 26 00
        E 0 b2 0b 7f
        E 0 92 2d 7f
        E 96 82 2d 00
        E 96 b2 0b 7f
        E 0 92 22 7f
        E 192 82 22 00
        E 0 b2 0b 7f
        E 0 92 29 7f
        E 96 82 29 00
        E 96 b2 0b 7f
        E 0 92 22 7f
        E 192 82 22 00
        E 0 b2 0b 7f
        E 0 92 29 7f
        E 96 82 29 00
        E 96 b2 0b 7f
        E 0 92 22 7f
        E 192 82 22 00
        E 0 b2 0b 7f
        E 0 92 29 7f
        E 96 82 29 00
        E 96 b2 0b 7f
        E 0 92 22 7f
        E 192 82 22 00
        E 0 b2 0b 7f
        E 0 92 29 7f
        E 96 82 29 00
        E 96 b2 0b 7f
        E 0 92 24 7f
        E 192 82 24 00
        E 0 b2 0b 7f
        E 0 92 2b 7f
        E 96 82 2b 00
        E 96 b2 0b 7f
        E 0 92 24 7f
        E 192 82 24 00
        E 0 b2 0b 7f
        E 0 92 2b 7f
        E 96 82 2b 00
        E 96 b2 0b 7f
        E 0 92 24 7f
        E 192 82 24 00
        E 0 b2 0b 7f
        E 0 92 2b 7f
        E 96 82 2b 00
        E 96 b2 0b 7f
        E 0 92 24 7f
        E 192 82 24 00
        E 0 b2 0b 7f
        E 0 92 2b 7f
        E 96 82 2b 00
        E 96 b2 0b 7f
        E 0 92 21 7f
        E 192 82 21 00
        E 0 b2 0b 7f
        E 0 92 28 7f
        E 96 82 28 00
        E 96 b2 0b 7f
        E 0 92 21 7f
        E 192 82 21 00
        E 0 b2 0b 7f
        E 0 92 28 7f
        E 96 82 28 00
        E 96 b2 0b 7f
        E 0 92 21 7f
        E 192 82 21 00
        E 0 b2 0b 7f
        E 0 92 28 7f
        E 96 82 28 00
        E 96 b2 0b 7f
        E 0 92 21 7f
        E 192 82 21 00
        E 0 b2 0b 7f
        E 0 92 28 7f
        E 96 82 28 00
        E 96 b2 0b 7f
        E 0 92 26 7f
        E 192 82 26 00
        E 0 b2 0b 7f
        E 0 92 2d 7f
        E 96 82 2d 00
        E 96 b2 0b 7f
        E 0 92 26 7f
        E 192 82 26 00
        E 0 b2 0b 7f
        E 0 92 2d 7f
        E 96 82 2d 00
        E 96 b2 0b 7f
        E 0 92 26 7f
        E 192 82 26 00
        E 0 b2 0b 7f
        E 0 92 2d 7f
        E 96 82 2d 00
        E 96 b2 0b 7f
        E 0 92 26 7f
        E 192 82 26 00
        E 0 b2 0b 7f
        E 0 92 2d 7f
        E 96 82 2d 00
        E 96 b2 0b 7f
        E 0 92 27 7f
        E 192 82 27 00
        E 0 b2 0b 7f
        E 0 92 2e 7f
        E 96 82 2e 00
        E 96 b2 0b 7f
        E 0 92 27 7f
        E 192 82 27 00
        E 0 b2 0b 7f
        E 0 92 2e 7f
        E 96 82 2e 00
        E 96 b2 0b 7f
        E 0 92 27 7f
        E 192 82 27 00
        E 0 b2 0b 7f
        E 0 92 2e 7f
        E 96 82 2e 00
        E 96 b2 0b 7f
        E 0 92 27 7f
        E 192 82 27 00
        E 0 b2 0b 7f
        E 0 92 2e 7f
        E 96 82 2e 00
        E 96 b2 0b 7f
        E 0 92 24 7f
        E 192 82 24 00
        E 0 b2 0b 7f
        E 0 92 2b 7f
        E 96 82 2b 00
        E 96 b2 0b 7f
        E 0 92 24 7f
        E 192 82 24 00
        E 0 b2 0b 7f
        E 0 92 2b 7f
        E 96 82 2b 00
        E 96 b2 0b 7f
        E 0 92 24 7f
        E 192 82 24 00
        E 0 b2 0b 7f
        E 0 92 2b 7f
        E 96 82 2b 00
        E 96 b2 0b 7f
        E 0 92 24 7f
        E 192 82 24 00
        E 0 b2 0b 7f
        E 0 92 2b 7f
        E 96 82 2b 00
        E 96 b2 0b 7f
        E 0 92 29 7f
        E 192 82 29 00
        E 0 b2 0b 7f
        E 0 92 30 7f
        E 96 82 30 00
        E 96 b2 0b 7f
        E 0 92 29 7f
        E 192 82 29 00
        E 0 b2 0b 7f
        E 0 92 30 7f
        E 96 82 30 00
        E 96 b2 0b 7f
        E 0 92 29 7f
        E 192 82 29 00
        E 0 b2 0b 7f
        E 0 92 30 7f
        E 96 82 30 00
        E 96 b2 0b 7f
        E 0 92 29 7f
        E 192 82 29 00
        E 0 b2 0b 7f
        E 0 92 30 7f
        E 96 82 30 00
        E 96 b2 0b 7f
        E 0 92 26 7f
        E 192 82 26 00
        E 0 b2 0b 7f
        E 0 92 2d 7f
        E 96 82 2d 00
        E 96 b2 0b 7f
        E 0 92 26 7f
        E 192 82 26 00
        E 0 b2 0b 7f
        E 0 92 2d 7f
        E 96 82 2d 00
        E 96 b2 0b 7f
        E 0 92 26 7f
        E 192 82 26 00
        E 0 b2 0b 7f
        E 0 92 2d 7f
        E 96 82 2d 00
        E 96 b2 0b 7f
        E 0 92 26 7f
        E 192 82 26 00
        E 0 b2 0b 7f
        E 0 92 2d 7f
        E 96 82 2d 00
        E 96 b2 0b 7f
        E 0 92 22 7f
        E 192 82 22 00
        E 0 b2 0b 7f
        E 0 92 29 7f
        E 96 82 29 00
        E 96 b2 0b 7f
        E 0 92 22 7f
        E 192 82 22 00
        E 0 b2 0b 7f
        E 0 92 29 7f
        E 96 82 29 00
        E 96 b2 0b 7f
        E 0 92 22 7f
        E 192 82 22 00
        E 0 b2 0b 7f
        E 0 92 29 7f
        E 96 82 29 00
        E 96 b2 0b 7f
        E 0 92 22 7f
        E 192 82 22 00
        E 0 b2 0b 7f
        E 0 92 29 7f
        E 96 82 29 00
        E 96 b2 0b 7f
        E 0 92 24 7f
        E 192 82 24 00
        E 0 b2 0b 7f
        E 0 92 2b 7f
        E 96 82 2b 00
        E 96 b2 0b 7f
        E 0 92 24 7f
        E 192 82 24 00
        E 0 b2 0b 7f
        E 0 92 2b 7f
        E 96 82 2b 00
        E 96 b2 0b 7f
        E 0 92 24 7f
        E 192 82 24 00
        E 0 b2 0b 7f
        E 0 92 2b 7f
        E 96 82 2b 00
        E 96 b2 0b 7f
        E 0 92 24 7f
        E 192 82 24 00
        E 0 b2 0b 7f
        E 0 92 2b 7f
        E 96 82 2b 00
        E 96 b2 0b 7f
        E 0 92 21 7f
        E 192 82 21 00
        E 0 b2 0b 7f
        E 0 92 28 7f
        E 96 82 28 00
        E 96 b2 0b 7f
        E 0 92 21 7f
        E 192 82 21 00
        E 0 b2 0b 7f
        E 0 92 28 7f
        E 96 82 28 00
        E 96 b2 0b 7f
        E 0 92 21 7f
        E 192 82 21 00
        E 0 b2 0b 7f
        E 0 92 28 7f
        E 96 82 28 00
        E 96 b2 0b 7f
        E 0 92 21 7f
        E 192 82 21 00
        E 0 b2 0b 7f
        E 0 92 28 7f
        E 96 82 28 00
        E 96 b2 0b 7f
        E 0 92 26 7f
        E 192 82 26 00
        E 0 b2 0b 7f
        E 0 92 2d 7f
        E 96 82 2d 00
        E 96 b2 0b 7f
        E 0 92 26 7f
        E 192 82 26 00
        E 0 b2 0b 7f
        E 0 92 2d 7f
        E 96 82 2d 00
        E 96 b2 0b 7f
        E 0 92 26 7f
        E 192 82 26 00
        E 0 b2 0b 7f
        E 0 92 2d 7f
        E 96 82 2d 00
        E 96 b2 0b 7f
        E 0 92 26 7f
        E 192 82 26 00
        E 0 b2 0b 7f
        E 0 92 2d 7f
        E 96 82 2d 00
        E 96 b2 0b 7f
        E 0 92 27 7f
        E 192 82 27 00
        E 0 b2 0b 7f
        E 0 92 2e 7f
        E 96 82 2e 00
        E 96 b2 0b 7f
        E 0 92 27 7f
        E 192 82 27 00
        E 0 b2 0b 7f
        E 0 92 2e 7f
        E 96 82 2e 00
        E 96 b2 0b 7f
        E 0 92 27 7f
        E 192 82 27 00
        E 0 b2 0b 7f
        E 0 92 2e 7f
        E 96 82 2e 00
        E 96 b2 0b 7f
        E 0 92 27 7f
        E 192 82 27 00
        E 0 b2 0b 7f
        E 0 92 2e 7f
        E 96 82 2e 00
        E 96 b2 0b 7f
        E 0 92 24 7f
        E 192 82 24 00
        E 0 b2 0b 7f
        E 0 92 2b 7f
        E 96 82 2b 00
        E 96 b2 0b 7f
        E 0 92 24 7f
        E 192 82 24 00
        E 0 b2 0b 7f
        E 0 92 2b 7f
        E 96 82 2b 00
        E 96 b2 0b 7f
        E 0 92 24 7f
        E 192 82 24 00
        E 0 b2 0b 7f
        E 0 92 2b 7f
        E 96 82 2b 00
        E 96 b2 0b 7f
        E 0 92 24 7f
        E 192 82 24 00
        E 0 b2 0b 7f
        E 0 92 2b 7f
        E 96 82 2b 00
        E 96 b2 0b 7f
        E 0 92 21 7f
        E 96 82 21 00
        E 96 b2 0b 7f
        E 0 92 21 7f
        E 96 82 21 00
        E 672 b2 0b 7f
        E 0 92 28 7f
        E 96 82 28 00
        E 96 b2 0b 7f
        E 0 92 2d 7f
        E 96 82 2d 00
        E 96 b2 0b 7f
        E 0 92 28 7f
        E 96 82 28 00
        E 96 b2 0b 7f
        E 0 92 26 7f
        E 96 82 26 00
        E 96 b2 0b 7f
        E 0 92 26 7f
        E 96 82 26 00
        E 672 b2 0b 7f
        E 0 92 29 7f
        E 96 82 29 00
        E 96 b2 0b 7f
        E 0 92 2d 7f
        E 96 82 2d 00
        E 96 b2 0b 7f
        E 0 92 29 7f
        E 96 82 29 00
        E 96 b2 0b 7f
        E 0 92 21 7f
        E 96 82 21 00
        E 96 b2 0b 7f
        E 0 92 21 7f
        E 96 82 21 00
        E 672 b2 0b 7f
        E 0 92 28 7f
        E 96 82 28 00
        E 96 b2 0b 7f
        E 0 92 2d 7f
        E 96 82 2d 00
        E 96 b2 0b 7f
        E 0 92 28 7f
        E 96 82 28 00
        E 96 b2 0b 7f
        E 0 92 26 7f
        E 96 82 26 00
        E 96 b2 0b 7f
        E 0 92 26 7f
        E 96 82 26 00
        E 672 b2 0b 7f
        E 0 92 29 7f
        E 96 82 29 00
        E 96 b2 0b 7f
        E 0 92 2d 7f
        E 96 82 2d 00
        E 96 b2 0b 7f
        E 0 92 29 7f
        E 96 82 29 00
        E 96 b2 0b 7f
        E 0 92 22 7f
        E 96 82 22 00
        E 96 b2 0b 7f
        E 0 92 22 7f
        E 96 82 22 00
        E 672 b2 0b 7f
        E 0 92 29 7f
        E 96 82 29 00
        E 96 b2 0b 7f
        E 0 92 2e 7f
        E 96 82 2e 00
        E 96 b2 0b 7f
        E 0 92 29 7f
        E 96 82 29 00
        E 96 b2 0b 7f
        E 0 92 1f 7f
        E 96 82 1f 00
        E 96 b2 0b 7f
        E 0 92 1f 7f
        E 96 82 1f 00
        E 672 b2 0b 7f
        E 0 92 26 7f
        E 96 82 26 00
        E 96 b2 0b 7f
        E 0 92 2b 7f
        E 96 82 2b 00
        E 96 b2 0b 7f
        E 0 92 26 7f
        E 96 82 26 00
        E 96 b2 0b 7f
        E 0 92 23 7f
        E 96 82 23 00
        E 96 b2 0b 7f
        E 0 92 23 7f
        E 96 82 23 00
        E 672 b2 0b 7f
        E 0 92 26 7f
        E 96 82 26 00
        E 96 b2 0b 7f
        E 0 92 2b 7f
        E 96 82 2b 00
        E 96 b2 0b 7f
        E 0 92 26 7f
        E 96 82 26 00
        E 96 b2 0b 7f
        E 0 92 24 7f
        E 192 82 24 00
        E 0 b2 0b 7f
        E 0 92 2b 7f
        E 96 82 2b 00
        E 96 b2 0b 7f
        E 0 92 26 7f
        E 192 82 26 00
        E 0 b2 0b 7f
        E 0 92 2b 7f
        E 96 82 2b 00
        E 96 b2 0b 7f
        E 0 92 27 7f
        E 192 82 27 00
        E 0 b2 0b 7f
        E 0 92 2e 7f
        E 96 82 2e 00
        E 96 b2 0b 7f
        E 0 92 28 7f
        E 192 82 28 00
        E 0 b2 0b 7f
        E 0 92 2e 7f
        E 96 82 2e 00
        E 96 b2 0b 7f
        E 0 92 29 7f
        E 192 82 29 00
        E 0 b2 0b 7f
        E 0 92 30 7f
        E 96 82 30 00
        E 96 b2 0b 7f
        E 0 92 29 7f
        E 192 82 29 00
        E 0 b2 0b 7f
        E 0 92 30 7f
        E 96 82 30 00
        E 96 b2 0b 7f
        E 0 92 29 7f
        E 192 82 29 00
        E 0 b2 0b 7f
        E 0 92 30 7f
        E 96 82 30 00
        E 96 b2 0b 7f
        E 0 92 29 7f
        E 192 82 29 00
        E 0 b2 0b 7f
        E 0 92 30 7f
        E 96 82 30 00
        E 96 b2 0b 7f
        E 0 92 26 7f
        E 192 82 26 00
        E 0 b2 0b 7f
        E 0 92 2d 7f
        E 96 82 2d 00
        E 96 b2 0b 7f
        E 0 92 26 7f
        E 192 82 26 00
        E 0 b2 0b 7f
        E 0 92 2d 7f
        E 64 82 2d 00
        E 0 b2 7b 00
        E 0 ff 2f 00
      >
    >
  >
  <TRACK {BEEFC4CE-957B-4DE2-8BE1-9F04BFD77301}
    NAME "NES - Noise / Drums"
    PEAKCOL 11184810
    BEAT -1
    AUTOMODE 0
    PANLAWFLAGS 3
    VOLPAN 1 0 -1 -1 1
    MUTESOLO 0 0 0
    IPHASE 0
    PLAYOFFS 0 1
    ISBUS 0 0
    BUSCOMP 0 0 0 0 0
    SHOWINMIX 1 0.6667 0.5 1 0.5 0 0 0
    FIXEDLANES 9 0 0 0 0
    SEL 0
    REC 0 5088 1 0 0 0 0 0
    VU 2
    TRACKHEIGHT 0 0 0 0 0 0 0
    INQ 0 0 0 0.5 100 0 0 100
    NCHAN 2
    FX 1
    TRACKID {BEEFC4CE-957B-4DE2-8BE1-9F04BFD77301}
    PERF 0
    MIDIOUT -1
    MAINSEND 1 0
    <FXCHAIN
      WNDRECT 24 52 700 560
      SHOW 0
      LASTSEL 0
      DOCKED 0
      BYPASS 0 0 0
      <JS "ReapNES Studio/ReapNES_Console.jsfx" ""
        2 15 1 10 80 10 100 2 1 15 1 5 60 10 80 1 1 0 50 0 0 15 1 0 100 0 0 0.500000 0.500000 0.400000 0.300000 0.800000 3 1 0 0 0 0 - - - - - - - - - - - - - - - - - - - - - - - - - -
      >
      FLOATPOS 0 0 0 0
      FXID {B021576C-5971-467E-AAD0-449D785A9C8B}
      WAK 0 0
    >
  >
>