<REAPER_PROJECT 0.1 "7.27/win64" 1707000000
  <NOTES 0 2
    |ReapNES Studio Project
    |MIDI Import - Final_Fantasy_song_52_rom_v1
  >
  RIPPLE 0
  GROUPOVERRIDE 0 0 0
  AUTOXFADE 129
  ENVATTACH 3
  POOLEDENVATTACH 0
  MIXERUIFLAGS 11 48
  ENVFADESZ10 40
  PEAKGAIN 1
  FEEDBACK 0
  PANLAW 1
  PROJOFFS 0 0 0
  MAXPROJLEN 0 0
  GRID 3199 8 1 8 1 0 0 0
  TIMEMODE 1 5 -1 30 0 0 -1
  VIDEO_CONFIG 0 0 65792
  PANMODE 3
  PANLAWFLAGS 3
  CURSOR 0
  ZOOM 100 0 0
  VZOOMEX 6 0
  USE_REC_CFG 0
  RECMODE 1
  SMPTESYNC 0 30 100 40 1000 300 0 0 1 0 0
  LOOP 0
  LOOPGRAN 0 4
  RECORD_PATH "Media" ""
  <RECORD_CFG
    ZXZhdxgAAQ==
  >
  <APPLYFX_CFG
  >
  RENDER_FILE ""
  RENDER_PATTERN ""
  RENDER_FMT 0 2 0
  RENDER_1X 0
  RENDER_RANGE 1 0 0 18 1000
  RENDER_RESAMPLE 3 0 1
  RENDER_ADDTOPROJ 0
  RENDER_STEMS 0
  RENDER_DITHER 0
  TIMELOCKMODE 1
  TEMPOENVLOCKMODE 1
  ITEMMIX 1
  DEFPITCHMODE 589824 0
  TAKELANE 1
  SAMPLERATE 44100 0 0
  <RENDER_CFG
    ZXZhdxgAAQ==
  >
  LOCK 1
  <METRONOME 6 2
    VOL 0.25 0.125
    BEATLEN 4
    FREQ 1760 880 1
    SAMPLES "" ""
    SPLIGNORE 0 0
    SPLDEF 2 660 "" 0
    SPLDEF 3 440 "" 0
    PATTERN 0 169
    PATTERNSTR ABBB
    MULT 1
  >
  GLOBAL_AUTO -1
  TEMPO 128.59999614200012 4 4
  PLAYRATE 1 0 0.25 4
  SELECTION 0 0
  SELECTION2 0 0
  MASTERAUTOMODE 0
  MASTERTRACKHEIGHT 0 0
  MASTERPEAKCOL 16576
  MASTERMUTESOLO 0
  MASTERTRACKVIEW 0 0.6667 0.5 0.5 0 0 0 0 0 0 0 0 0 0
  MASTERHWOUT 0 0 1 0 0 0 0 -1
  MASTER_NCH 2 2
  MASTER_VOLUME 1 0 -1 -1 1
  MASTER_PANMODE 3
  MASTER_PANLAWFLAGS 3
  MASTER_FX 1
  MASTER_SEL 0
  <MASTERPLAYSPEEDENV
    EGUID {3766CE56-629A-4C61-8719-289AAC221615}
    ACT 0 -1
    VIS 0 1 1
    LANEHEIGHT 0 0
    ARM 0
    DEFSHAPE 0 -1 -1
  >
  <TEMPOENVEX
    EGUID {4B32E1A5-95EC-42F0-A6BC-750E5FAAB5FD}
    ACT 1 -1
    VIS 1 0 1
    LANEHEIGHT 0 0
    ARM 0
    DEFSHAPE 1 -1 -1
  >
  <PROJBAY
  >
  <TRACK {4224840A-D0C0-43B6-AE0F-00B912E63417}
    NAME "NES - Pulse 1 [ch0]"
    PEAKCOL 16576606
    BEAT -1
    AUTOMODE 0
    PANLAWFLAGS 3
    VOLPAN 1 0 -1 -1 1
    MUTESOLO 0 0 0
    IPHASE 0
    PLAYOFFS 0 1
    ISBUS 0 0
    BUSCOMP 0 0 0 0 0
    SHOWINMIX 1 0.6667 0.5 1 0.5 0 0 0
    FIXEDLANES 9 0 0 0 0
    SEL 1
    REC 1 5088 1 0 0 0 0 0
    VU 2
    TRACKHEIGHT 0 0 0 0 0 0 0
    INQ 0 0 0 0.5 100 0 0 100
    NCHAN 2
    FX 1
    TRACKID {4224840A-D0C0-43B6-AE0F-00B912E63417}
    PERF 0
    MIDIOUT -1
    MAINSEND 1 0
    <FXCHAIN
      WNDRECT 24 52 700 560
      SHOW 0
      LASTSEL 0
      DOCKED 0
      BYPASS 0 0 0
      <JS "ReapNES Studio/ReapNES_Console.jsfx" ""
        2 15 1 10 80 10 100 2 1 15 1 5 60 10 80 1 1 0 50 0 0 15 1 0 100 0 0 0.500000 0.500000 0.400000 0.300000 0.800000 0 1 0 0 0 0 - - - - - - - - - - - - - - - - - - - - - - - - - -
      >
      FLOATPOS 0 0 0 0
      FXID {BB88429F-8314-4D80-98FD-C36803CBE05D}
      WAK 0 0
    >
    <ITEM
      POSITION 0
      LENGTH 74.5878716
      LOOP 0
      ALLTAKES 0
      FADEIN 0 0 0 0 0 0 0
      FADEOUT 0 0 0 0 0 0 0
      MUTE 0 0
      SEL 0
      IGUID {BA2FAB95-9CC8-4A1C-831A-05E5C4E7472A}
      <SOURCE MIDI
        HASDATA 1 480 QN
        CCINTERP 32
        E 0 c0 50
        E 0 b0 0c 20
        E 0 b0 0b 77
        E 0 90 2e 77
        E 16 80 2e 00
        E 48 b0 0b 66
        E 0 90 39 66
        E 32 b0 0b 5d
        E 16 b0 0b 55
        E 16 b0 0b 4c
        E 32 b0 0b 44
        E 16 b0 0b 3b
        E 16 b0 0b 33
        E 32 b0 0b 2a
        E 16 b0 0b 22
        E 16 b0 0b 2a
        E 32 b0 0b 33
        E 16 b0 0b 3b
        E 16 b0 0b 44
        E 32 b0 0b 4c
        E 16 b0 0b 55
        E 16 b0 0b 66
        E 0 80 39 00
        E 0 90 3d 66
        E 32 b0 0b 5d
        E 16 b0 0b 55
        E 16 b0 0b 4c
        E 32 b0 0b 44
        E 16 b0 0b 3b
        E 16 b0 0b 33
        E 32 b0 0b 2a
        E 16 b0 0b 22
        E 16 b0 0b 2a
        E 32 b0 0b 33
        E 16 b0 0b 3b
        E 16 b0 0b 44
        E 32 b0 0b 4c
        E 16 b0 0b 55
        E 16 b0 0b 66
        E 0 80 3d 00
        E 0 90 3e 66
        E 32 b0 0b 5d
        E 16 b0 0b 55
        E 16 b0 0b 4c
        E 32 b0 0b 44
        E 16 b0 0b 3b
        E 16 b0 0b 33
        E 32 b0 0b 2a
        E 16 b0 0b 22
        E 16 b0 0b 2a
        E 32 b0 0b 33
        E 16 b0 0b 3b
        E 16 b0 0b 44
        E 32 b0 0b 4c
        E 16 b0 0b 55
        E 16 b0 0b 66
        E 0 80 3e 00
        E 0 90 40 66
        E 32 b0 0b 5d
        E 16 b0 0b 55
        E 16 b0 0b 4c
        E 32 b0 0b 44
        E 16 b0 0b 3b
        E 16 b0 0b 33
        E 32 b0 0b 2a
        E 16 b0 0b 22
        E 16 b0 0b 2a
        E 32 b0 0b 33
        E 16 b0 0b 3b
        E 16 b0 0b 44
        E 32 b0 0b 4c
        E 16 b0 0b 55
        E 16 b0 0b 66
        E 0 80 40 00
        E 0 90 41 66
        E 32 b0 0b 5d
        E 16 b0 0b 55
        E 16 b0 0b 4c
        E 32 b0 0b 44
        E 16 b0 0b 3b
        E 16 b0 0b 33
        E 32 b0 0b 2a
        E 16 b0 0b 22
        E 16 b0 0b 2a
        E 32 b0 0b 33
        E 16 b0 0b 3b
        E 16 b0 0b 44
        E 32 b0 0b 4c
        E 16 b0 0b 55
        E 16 b0 0b 5d
        E 640 b0 0b 66
        E 0 80 41 00
        E 0 90 39 66
        E 32 b0 0b 5d
        E 16 b0 0b 55
        E 16 b0 0b 4c
        E 32 b0 0b 44
        E 16 b0 0b 3b
        E 16 b0 0b 33
        E 32 b0 0b 2a
        E 16 b0 0b 22
        E 16 b0 0b 2a
        E 32 b0 0b 33
        E 16 b0 0b 3b
        E 16 b0 0b 44
        E 32 b0 0b 4c
        E 16 b0 0b 55
        E 16 b0 0b 66
        E 0 80 39 00
        E 0 90 3a 66
        E 32 b0 0b 5d
        E 16 b0 0b 55
        E 16 b0 0b 4c
        E 32 b0 0b 44
        E 16 b0 0b 3b
        E 16 b0 0b 33
        E 32 b0 0b 2a
        E 16 b0 0b 22
        E 16 b0 0b 2a
        E 32 b0 0b 33
        E 16 b0 0b 3b
        E 16 b0 0b 44
        E 32 b0 0b 4c
        E 16 b0 0b 55
        E 16 b0 0b 5d
        E 320 b0 0b 66
        E 0 80 3a 00
        E 0 90 43 66
        E 32 b0 0b 5d
        E 16 b0 0b 55
        E 16 b0 0b 4c
        E 32 b0 0b 44
        E 16 b0 0b 3b
        E 16 b0 0b 33
        E 32 b0 0b 2a
        E 16 b0 0b 22
        E 16 b0 0b 2a
        E 32 b0 0b 33
        E 16 b0 0b 3b
        E 16 b0 0b 44
        E 32 b0 0b 4c
        E 16 b0 0b 55
        E 16 b0 0b 66
        E 0 80 43 00
        E 0 90 41 66
        E 32 b0 0b 5d
        E 16 b0 0b 55
        E 16 b0 0b 4c
        E 32 b0 0b 44
        E 16 b0 0b 3b
        E 16 b0 0b 33
        E 32 b0 0b 2a
        E 16 b0 0b 22
        E 16 b0 0b 2a
        E 32 b0 0b 33
        E 16 b0 0b 3b
        E 16 b0 0b 44
        E 32 b0 0b 4c
        E 16 b0 0b 55
        E 16 b0 0b 66
        E 0 80 41 00
        E 0 90 40 66
        E 32 b0 0b 5d
        E 16 b0 0b 55
        E 16 b0 0b 4c
        E 32 b0 0b 44
        E 16 b0 0b 3b
        E 16 b0 0b 33
        E 32 b0 0b 2a
        E 16 b0 0b 22
        E 16 b0 0b 2a
        E 32 b0 0b 33
        E 16 b0 0b 3b
        E 16 b0 0b 44
        E 32 b0 0b 4c
        E 16 b0 0b 55
        E 16 b0 0b 66
        E 0 80 40 00
        E 0 90 41 66
        E 32 b0 0b 5d
        E 16 b0 0b 55
        E 16 b0 0b 4c
        E 32 b0 0b 44
        E 16 b0 0b 3b
        E 16 b0 0b 33
        E 32 b0 0b 2a
        E 16 b0 0b 22
        E 16 b0 0b 2a
        E 32 b0 0b 33
        E 16 b0 0b 3b
        E 16 b0 0b 44
        E 32 b0 0b 4c
        E 16 b0 0b 55
        E 16 b0 0b 66
        E 0 80 41 00
        E 0 90 40 66
        E 32 b0 0b 5d
        E 16 b0 0b 55
        E 16 b0 0b 4c
        E 32 b0 0b 44
        E 16 b0 0b 3b
        E 16 b0 0b 33
        E 32 b0 0b 2a
        E 16 b0 0b 22
        E 16 b0 0b 2a
        E 32 b0 0b 33
        E 16 b0 0b 3b
        E 16 b0 0b 44
        E 32 b0 0b 4c
        E 16 b0 0b 55
        E 16 b0 0b 66
        E 0 80 40 00
        E 0 90 37 66
        E 32 b0 0b 5d
        E 16 b0 0b 55
        E 16 b0 0b 4c
        E 32 b0 0b 44
        E 16 b0 0b 3b
        E 16 b0 0b 33
        E 32 b0 0b 2a
        E 16 b0 0b 22
        E 16 b0 0b 2a
        E 32 b0 0b 33
        E 16 b0 0b 3b
        E 16 b0 0b 44
        E 32 b0 0b 4c
        E 16 b0 0b 55
        E 16 b0 0b 66
        E 0 80 37 00
        E 0 90 39 66
        E 32 b0 0b 5d
        E 16 b0 0b 55
        E 16 b0 0b 4c
        E 32 b0 0b 44
        E 16 b0 0b 3b
        E 16 b0 0b 33
        E 32 b0 0b 2a
        E 16 b0 0b 22
        E 16 b0 0b 2a
        E 32 b0 0b 33
        E 16 b0 0b 3b
        E 16 b0 0b 44
        E 32 b0 0b 4c
        E 16 b0 0b 55
        E 16 b0 0b 5d
        E 960 b0 0b 66
        E 0 80 39 00
        E 0 90 3e 66
        E 32 b0 0b 5d
        E 16 b0 0b 55
        E 16 b0 0b 4c
        E 32 b0 0b 44
        E 16 b0 0b 3b
        E 16 b0 0b 33
        E 32 b0 0b 2a
        E 16 b0 0b 22
        E 16 b0 0b 2a
        E 32 b0 0b 33
        E 16 b0 0b 3b
        E 16 b0 0b 44
        E 32 b0 0b 4c
        E 16 b0 0b 55
        E 16 b0 0b 5d
        E 640 b0 0b 66
        E 0 80 3e 00
        E 0 90 35 66
        E 32 b0 0b 5d
        E 16 b0 0b 55
        E 16 b0 0b 4c
        E 32 b0 0b 44
        E 16 b0 0b 3b
        E 16 b0 0b 33
        E 32 b0 0b 2a
        E 16 b0 0b 22
        E 16 b0 0b 2a
        E 32 b0 0b 33
        E 16 b0 0b 3b
        E 16 b0 0b 44
        E 32 b0 0b 4c
        E 16 b0 0b 55
        E 16 b0 0b 66
        E 0 80 35 00
        E 0 90 34 66
        E 32 b0 0b 5d
        E 16 b0 0b 55
        E 16 b0 0b 4c
        E 32 b0 0b 44
        E 16 b0 0b 3b
        E 16 b0 0b 33
        E 32 b0 0b 2a
        E 16 b0 0b 22
        E 16 b0 0b 2a
        E 32 b0 0b 33
        E 16 b0 0b 3b
        E 16 b0 0b 44
        E 32 b0 0b 4c
        E 16 b0 0b 55
        E 16 b0 0b 5d
        E 320 b0 0b 66
        E 0 80 34 00
        E 0 90 3b 66
        E 32 b0 0b 5d
        E 16 b0 0b 55
        E 16 b0 0b 4c
        E 32 b0 0b 44
        E 16 b0 0b 3b
        E 16 b0 0b 33
        E 32 b0 0b 2a
        E 16 b0 0b 22
        E 16 b0 0b 2a
        E 32 b0 0b 33
        E 16 b0 0b 3b
        E 16 b0 0b 44
        E 32 b0 0b 4c
        E 16 b0 0b 55
        E 16 b0 0b 66
        E 0 80 3b 00
        E 0 90 3e 66
        E 32 b0 0b 5d
        E 16 b0 0b 55
        E 16 b0 0b 4c
        E 32 b0 0b 44
        E 16 b0 0b 3b
        E 16 b0 0b 33
        E 32 b0 0b 2a
        E 16 b0 0b 22
        E 16 b0 0b 2a
        E 32 b0 0b 33
        E 16 b0 0b 3b
        E 16 b0 0b 44
        E 32 b0 0b 4c
        E 16 b0 0b 55
        E 16 b0 0b 66
        E 32 b0 0b 5d
        E 16 b0 0b 55
        E 16 b0 0b 4c
        E 32 b0 0b 44
        E 16 b0 0b 3b
        E 16 b0 0b 33
        E 32 b0 0b 2a
        E 16 b0 0b 22
        E 16 b0 0b 2a
        E 32 b0 0b 33
        E 16 b0 0b 3b
        E 16 b0 0b 44
        E 32 b0 0b 4c
        E 16 b0 0b 55
        E 16 b0 0b 66
        E 0 80 3e 00
        E 0 90 3d 66
        E 32 b0 0b 5d
        E 16 b0 0b 55
        E 16 b0 0b 4c
        E 32 b0 0b 44
        E 16 b0 0b 3b
        E 16 b0 0b 33
        E 32 b0 0b 2a
        E 16 b0 0b 22
        E 16 b0 0b 2a
        E 32 b0 0b 33
        E 16 b0 0b 3b
        E 16 b0 0b 44
        E 32 b0 0b 4c
        E 16 b0 0b 55
        E 16 b0 0b 66
        E 0 80 3d 00
        E 0 90 40 66
        E 32 b0 0b 5d
        E 16 b0 0b 55
        E 16 b0 0b 4c
        E 32 b0 0b 44
        E 16 b0 0b 3b
        E 16 b0 0b 33
        E 32 b0 0b 2a
        E 16 b0 0b 22
        E 16 b0 0b 2a
        E 32 b0 0b 33
        E 16 b0 0b 3b
        E 16 b0 0b 44
        E 32 b0 0b 4c
        E 16 b0 0b 55
        E 16 b0 0b 5d
        E 640 b0 0b 66
        E 0 80 40 00
        E 0 90 3d 66
        E 32 b0 0b 5d
        E 16 b0 0b 55
        E 16 b0 0b 4c
        E 32 b0 0b 44
        E 16 b0 0b 3b
        E 16 b0 0b 33
        E 32 b0 0b 2a
        E 16 b0 0b 22
        E 16 b0 0b 2a
        E 32 b0 0b 33
        E 16 b0 0b 3b
        E 16 b0 0b 44
        E 32 b0 0b 4c
        E 16 b0 0b 55
        E 16 b0 0b 66
        E 0 80 3d 00
        E 0 90 3e 66
        E 32 b0 0b 5d
        E 16 b0 0b 55
        E 16 b0 0b 4c
        E 32 b0 0b 44
        E 16 b0 0b 3b
        E 16 b0 0b 33
        E 32 b0 0b 2a
        E 16 b0 0b 22
        E 16 b0 0b 2a
        E 32 b0 0b 33
        E 16 b0 0b 3b
        E 16 b0 0b 44
        E 32 b0 0b 4c
        E 16 b0 0b 55
        E 16 b0 0b 66
        E 0 80 3e 00
        E 0 90 40 66
        E 32 b0 0b 5d
        E 16 b0 0b 55
        E 16 b0 0b 4c
        E 32 b0 0b 44
        E 16 b0 0b 3b
        E 16 b0 0b 33
        E 32 b0 0b 2a
        E 16 b0 0b 22
        E 16 b0 0b 2a
        E 32 b0 0b 33
        E 16 b0 0b 3b
        E 16 b0 0b 44
        E 32 b0 0b 4c
        E 16 b0 0b 55
        E 16 b0 0b 66
        E 0 80 40 00
        E 0 90 41 66
        E 32 b0 0b 5d
        E 16 b0 0b 55
        E 16 b0 0b 4c
        E 32 b0 0b 44
        E 16 b0 0b 3b
        E 16 b0 0b 33
        E 32 b0 0b 2a
        E 16 b0 0b 22
        E 16 b0 0b 2a
        E 32 b0 0b 33
        E 16 b0 0b 3b
        E 16 b0 0b 44
        E 32 b0 0b 4c
        E 16 b0 0b 55
        E 16 b0 0b 5d
        E 640 b0 0b 66
        E 0 80 41 00
        E 0 90 39 66
        E 32 b0 0b 5d
        E 16 b0 0b 55
        E 16 b0 0b 4c
        E 32 b0 0b 44
        E 16 b0 0b 3b
        E 16 b0 0b 33
        E 32 b0 0b 2a
        E 16 b0 0b 22
        E 16 b0 0b 2a
        E 32 b0 0b 33
        E 16 b0 0b 3b
        E 16 b0 0b 44
        E 32 b0 0b 4c
        E 16 b0 0b 55
        E 16 b0 0b 66
        E 0 80 39 00
        E 0 90 3a 66
        E 32 b0 0b 5d
        E 16 b0 0b 55
        E 16 b0 0b 4c
        E 32 b0 0b 44
        E 16 b0 0b 3b
        E 16 b0 0b 33
        E 32 b0 0b 2a
        E 16 b0 0b 22
        E 16 b0 0b 2a
        E 32 b0 0b 33
        E 16 b0 0b 3b
        E 16 b0 0b 44
        E 32 b0 0b 4c
        E 16 b0 0b 55
        E 16 b0 0b 5d
        E 320 b0 0b 66
        E 0 80 3a 00
        E 0 90 43 66
        E 32 b0 0b 5d
        E 16 b0 0b 55
        E 16 b0 0b 4c
        E 32 b0 0b 44
        E 16 b0 0b 3b
        E 16 b0 0b 33
        E 32 b0 0b 2a
        E 16 b0 0b 22
        E 16 b0 0b 2a
        E 32 b0 0b 33
        E 16 b0 0b 3b
        E 16 b0 0b 44
        E 32 b0 0b 4c
        E 16 b0 0b 55
        E 16 b0 0b 66
        E 0 80 43 00
        E 0 90 41 66
        E 32 b0 0b 5d
        E 16 b0 0b 55
        E 16 b0 0b 4c
        E 32 b0 0b 44
        E 16 b0 0b 3b
        E 16 b0 0b 33
        E 32 b0 0b 2a
        E 16 b0 0b 22
        E 16 b0 0b 2a
        E 32 b0 0b 33
        E 16 b0 0b 3b
        E 16 b0 0b 44
        E 32 b0 0b 4c
        E 16 b0 0b 55
        E 16 b0 0b 66
        E 0 80 41 00
        E 0 90 40 66
        E 32 b0 0b 5d
        E 16 b0 0b 55
        E 16 b0 0b 4c
        E 32 b0 0b 44
        E 16 b0 0b 3b
        E 16 b0 0b 33
        E 32 b0 0b 2a
        E 16 b0 0b 22
        E 16 b0 0b 2a
        E 32 b0 0b 33
        E 16 b0 0b 3b
        E 16 b0 0b 44
        E 32 b0 0b 4c
        E 16 b0 0b 55
        E 16 b0 0b 66
        E 0 80 40 00
        E 0 90 41 66
        E 32 b0 0b 5d
        E 16 b0 0b 55
        E 16 b0 0b 4c
        E 32 b0 0b 44
        E 16 b0 0b 3b
        E 16 b0 0b 33
        E 32 b0 0b 2a
        E 16 b0 0b 22
        E 16 b0 0b 2a
        E 32 b0 0b 33
        E 16 b0 0b 3b
        E 16 b0 0b 44
        E 32 b0 0b 4c
        E 16 b0 0b 55
        E 16 b0 0b 66
        E 0 80 41 00
        E 0 90 40 66
        E 32 b0 0b 5d
        E 16 b0 0b 55
        E 16 b0 0b 4c
        E 32 b0 0b 44
        E 16 b0 0b 3b
        E 16 b0 0b 33
        E 32 b0 0b 2a
        E 16 b0 0b 22
        E 16 b0 0b 2a
        E 32 b0 0b 33
        E 16 b0 0b 3b
        E 16 b0 0b 44
        E 32 b0 0b 4c
        E 16 b0 0b 55
        E 16 b0 0b 66
        E 0 80 40 00
        E 0 90 37 66
        E 32 b0 0b 5d
        E 16 b0 0b 55
        E 16 b0 0b 4c
        E 32 b0 0b 44
        E 16 b0 0b 3b
        E 16 b0 0b 33
        E 32 b0 0b 2a
        E 16 b0 0b 22
        E 16 b0 0b 2a
        E 32 b0 0b 33
        E 16 b0 0b 3b
        E 16 b0 0b 44
        E 32 b0 0b 4c
        E 16 b0 0b 55
        E 16 b0 0b 66
        E 0 80 37 00
        E 0 90 39 66
        E 32 b0 0b 5d
        E 16 b0 0b 55
        E 16 b0 0b 4c
        E 32 b0 0b 44
        E 16 b0 0b 3b
        E 16 b0 0b 33
        E 32 b0 0b 2a
        E 16 b0 0b 22
        E 16 b0 0b 2a
        E 32 b0 0b 33
        E 16 b0 0b 3b
        E 16 b0 0b 44
        E 32 b0 0b 4c
        E 16 b0 0b 55
        E 16 b0 0b 5d
        E 320 b0 0b 66
        E 0 80 39 00
        E 0 90 3a 66
        E 32 b0 0b 5d
        E 16 b0 0b 55
        E 16 b0 0b 4c
        E 32 b0 0b 44
        E 16 b0 0b 3b
        E 16 b0 0b 33
        E 32 b0 0b 2a
        E 16 b0 0b 22
        E 16 b0 0b 2a
        E 32 b0 0b 33
        E 16 b0 0b 3b
        E 16 b0 0b 44
        E 32 b0 0b 4c
        E 16 b0 0b 55
        E 16 b0 0b 66
        E 0 80 3a 00
        E 0 90 3c 66
        E 32 b0 0b 5d
        E 16 b0 0b 55
        E 16 b0 0b 4c
        E 32 b0 0b 44
        E 16 b0 0b 3b
        E 16 b0 0b 33
        E 32 b0 0b 2a
        E 16 b0 0b 22
        E 16 b0 0b 2a
        E 32 b0 0b 33
        E 16 b0 0b 3b
        E 16 b0 0b 44
        E 32 b0 0b 4c
        E 16 b0 0b 55
        E 16 b0 0b 66
        E 0 80 3c 00
        E 0 90 3e 66
        E 32 b0 0b 5d
        E 16 b0 0b 55
        E 16 b0 0b 4c
        E 32 b0 0b 44
        E 16 b0 0b 3b
        E 16 b0 0b 33
        E 32 b0 0b 2a
        E 16 b0 0b 22
        E 16 b0 0b 2a
        E 32 b0 0b 33
        E 16 b0 0b 3b
        E 16 b0 0b 44
        E 32 b0 0b 4c
        E 16 b0 0b 55
        E 16 b0 0b 5d
        E 640 b0 0b 66
        E 0 80 3e 00
        E 0 90 40 66
        E 32 b0 0b 5d
        E 16 b0 0b 55
        E 16 b0 0b 4c
        E 32 b0 0b 44
        E 16 b0 0b 3b
        E 16 b0 0b 33
        E 32 b0 0b 2a
        E 16 b0 0b 22
        E 16 b0 0b 2a
        E 32 b0 0b 33
        E 16 b0 0b 3b
        E 16 b0 0b 44
        E 32 b0 0b 4c
        E 16 b0 0b 55
        E 16 b0 0b 66
        E 0 80 40 00
        E 0 90 3e 66
        E 32 b0 0b 5d
        E 16 b0 0b 55
        E 16 b0 0b 4c
        E 32 b0 0b 44
        E 16 b0 0b 3b
        E 16 b0 0b 33
        E 32 b0 0b 2a
        E 16 b0 0b 22
        E 16 b0 0b 2a
        E 32 b0 0b 33
        E 16 b0 0b 3b
        E 16 b0 0b 44
        E 32 b0 0b 4c
        E 16 b0 0b 55
        E 16 b0 0b 5d
        E 320 b0 0b 66
        E 0 80 3e 00
        E 0 90 3d 66
        E 32 b0 0b 5d
        E 16 b0 0b 55
        E 16 b0 0b 4c
        E 32 b0 0b 44
        E 16 b0 0b 3b
        E 16 b0 0b 33
        E 32 b0 0b 2a
        E 16 b0 0b 22
        E 16 b0 0b 2a
        E 32 b0 0b 33
        E 16 b0 0b 3b
        E 16 b0 0b 44
        E 32 b0 0b 4c
        E 16 b0 0b 55
        E 16 b0 0b 5d
        E 320 b0 0b 66
        E 0 80 3d 00
        E 0 90 3e 66
        E 32 b0 0b 5d
        E 16 b0 0b 55
        E 16 b0 0b 4c
        E 32 b0 0b 44
        E 16 b0 0b 3b
        E 16 b0 0b 33
        E 32 b0 0b 2a
        E 16 b0 0b 22
        E 16 b0 0b 2a
        E 32 b0 0b 33
        E 16 b0 0b 3b
        E 16 b0 0b 44
        E 32 b0 0b 4c
        E 16 b0 0b 55
        E 16 b0 0b 5d
        E 2240 b0 0b 66
        E 0 80 3e 00
        E 0 90 41 66
        E 32 b0 0b 5d
        E 16 b0 0b 55
        E 16 b0 0b 4c
        E 32 b0 0b 44
        E 16 b0 0b 3b
        E 16 b0 0b 33
        E 32 b0 0b 2a
        E 16 b0 0b 22
        E 16 b0 0b 2a
        E 32 b0 0b 33
        E 16 b0 0b 3b
        E 16 b0 0b 44
        E 32 b0 0b 4c
        E 16 b0 0b 55
        E 16 b0 0b 5d
        E 640 b0 0b 66
        E 0 80 41 00
        E 0 90 39 66
        E 32 b0 0b 5d
        E 16 b0 0b 55
        E 16 b0 0b 4c
        E 32 b0 0b 44
        E 16 b0 0b 3b
        E 16 b0 0b 33
        E 32 b0 0b 2a
        E 16 b0 0b 22
        E 16 b0 0b 2a
        E 32 b0 0b 33
        E 16 b0 0b 3b
        E 16 b0 0b 44
        E 32 b0 0b 4c
        E 16 b0 0b 55
        E 16 b0 0b 66
        E 0 80 39 00
        E 0 90 3a 66
        E 32 b0 0b 5d
        E 16 b0 0b 55
        E 16 b0 0b 4c
        E 32 b0 0b 44
        E 16 b0 0b 3b
        E 16 b0 0b 33
        E 32 b0 0b 2a
        E 16 b0 0b 22
        E 16 b0 0b 2a
        E 32 b0 0b 33
        E 16 b0 0b 3b
        E 16 b0 0b 44
        E 32 b0 0b 4c
        E 16 b0 0b 55
        E 16 b0 0b 5d
        E 320 b0 0b 66
        E 0 80 3a 00
        E 0 90 43 66
        E 32 b0 0b 5d
        E 16 b0 0b 55
        E 16 b0 0b 4c
        E 32 b0 0b 44
        E 16 b0 0b 3b
        E 16 b0 0b 33
        E 32 b0 0b 2a
        E 16 b0 0b 22
        E 16 b0 0b 2a
        E 32 b0 0b 33
        E 16 b0 0b 3b
        E 16 b0 0b 44
        E 32 b0 0b 4c
        E 16 b0 0b 55
        E 16 b0 0b 66
        E 0 80 43 00
        E 0 90 41 66
        E 32 b0 0b 5d
        E 16 b0 0b 55
        E 16 b0 0b 4c
        E 32 b0 0b 44
        E 16 b0 0b 3b
        E 16 b0 0b 33
        E 32 b0 0b 2a
        E 16 b0 0b 22
        E 16 b0 0b 2a
        E 32 b0 0b 33
        E 16 b0 0b 3b
        E 16 b0 0b 44
        E 32 b0 0b 4c
        E 16 b0 0b 55
        E 16 b0 0b 66
        E 0 80 41 00
        E 0 90 40 66
        E 32 b0 0b 5d
        E 16 b0 0b 55
        E 16 b0 0b 4c
        E 32 b0 0b 44
        E 16 b0 0b 3b
        E 16 b0 0b 33
        E 32 b0 0b 2a
        E 16 b0 0b 22
        E 16 b0 0b 2a
        E 32 b0 0b 33
        E 16 b0 0b 3b
        E 16 b0 0b 44
        E 32 b0 0b 4c
        E 16 b0 0b 55
        E 16 b0 0b 66
        E 0 80 40 00
        E 0 90 41 66
        E 32 b0 0b 5d
        E 16 b0 0b 55
        E 16 b0 0b 4c
        E 32 b0 0b 44
        E 16 b0 0b 3b
        E 16 b0 0b 33
        E 32 b0 0b 2a
        E 16 b0 0b 22
        E 16 b0 0b 2a
        E 32 b0 0b 33
        E 16 b0 0b 3b
        E 16 b0 0b 44
        E 32 b0 0b 4c
        E 16 b0 0b 55
        E 16 b0 0b 66
        E 0 80 41 00
        E 0 90 40 66
        E 32 b0 0b 5d
        E 16 b0 0b 55
        E 16 b0 0b 4c
        E 32 b0 0b 44
        E 16 b0 0b 3b
        E 16 b0 0b 33
        E 32 b0 0b 2a
        E 16 b0 0b 22
        E 16 b0 0b 2a
        E 32 b0 0b 33
        E 16 b0 0b 3b
        E 16 b0 0b 44
        E 32 b0 0b 4c
        E 16 b0 0b 55
        E 16 b0 0b 66
        E 0 80 40 00
        E 0 90 37 66
        E 32 b0 0b 5d
        E 16 b0 0b 55
        E 16 b0 0b 4c
        E 32 b0 0b 44
        E 16 b0 0b 3b
        E 16 b0 0b 33
        E 32 b0 0b 2a
        E 16 b0 0b 22
        E 16 b0 0b 2a
        E 32 b0 0b 33
        E 16 b0 0b 3b
        E 16 b0 0b 44
        E 32 b0 0b 4c
        E 16 b0 0b 55
        E 16 b0 0b 66
        E 0 80 37 00
        E 0 90 39 66
        E 32 b0 0b 5d
        E 16 b0 0b 55
        E 16 b0 0b 4c
        E 32 b0 0b 44
        E 16 b0 0b 3b
        E 16 b0 0b 33
        E 32 b0 0b 2a
        E 16 b0 0b 22
        E 16 b0 0b 2a
        E 32 b0 0b 33
        E 16 b0 0b 3b
        E 16 b0 0b 44
        E 32 b0 0b 4c
        E 16 b0 0b 55
        E 16 b0 0b 5d
        E 960 b0 0b 66
        E 0 80 39 00
        E 0 90 3e 66
        E 32 b0 0b 5d
        E 16 b0 0b 55
        E 16 b0 0b 4c
        E 32 b0 0b 44
        E 16 b0 0b 3b
        E 16 b0 0b 33
        E 32 b0 0b 2a
        E 16 b0 0b 22
        E 16 b0 0b 2a
        E 32 b0 0b 33
        E 16 b0 0b 3b
        E 16 b0 0b 44
        E 32 b0 0b 4c
        E 16 b0 0b 55
        E 16 b0 0b 5d
        E 640 b0 0b 66
        E 0 80 3e 00
        E 0 90 35 66
        E 32 b0 0b 5d
        E 16 b0 0b 55
        E 16 b0 0b 4c
        E 32 b0 0b 44
        E 16 b0 0b 3b
        E 16 b0 0b 33
        E 32 b0 0b 2a
        E 16 b0 0b 22
        E 16 b0 0b 2a
        E 32 b0 0b 33
        E 16 b0 0b 3b
        E 16 b0 0b 44
        E 32 b0 0b 4c
        E 16 b0 0b 55
        E 16 b0 0b 66
        E 0 80 35 00
        E 0 90 34 66
        E 32 b0 0b 5d
        E 16 b0 0b 55
        E 16 b0 0b 4c
        E 32 b0 0b 44
        E 16 b0 0b 3b
        E 16 b0 0b 33
        E 32 b0 0b 2a
        E 16 b0 0b 22
        E 16 b0 0b 2a
        E 32 b0 0b 33
        E 16 b0 0b 3b
        E 16 b0 0b 44
        E 32 b0 0b 4c
        E 16 b0 0b 55
        E 16 b0 0b 5d
        E 320 b0 0b 66
        E 0 80 34 00
        E 0 90 3b 66
        E 32 b0 0b 5d
        E 16 b0 0b 55
        E 16 b0 0b 4c
        E 32 b0 0b 44
        E 16 b0 0b 3b
        E 16 b0 0b 33
        E 32 b0 0b 2a
        E 16 b0 0b 22
        E 16 b0 0b 2a
        E 32 b0 0b 33
        E 16 b0 0b 3b
        E 16 b0 0b 44
        E 32 b0 0b 4c
        E 16 b0 0b 55
        E 16 b0 0b 66
        E 0 80 3b 00
        E 0 90 3e 66
        E 32 b0 0b 5d
        E 16 b0 0b 55
        E 16 b0 0b 4c
        E 32 b0 0b 44
        E 16 b0 0b 3b
        E 16 b0 0b 33
        E 32 b0 0b 2a
        E 16 b0 0b 22
        E 16 b0 0b 2a
        E 32 b0 0b 33
        E 16 b0 0b 3b
        E 16 b0 0b 44
        E 32 b0 0b 4c
        E 16 b0 0b 55
        E 16 b0 0b 66
        E 32 b0 0b 5d
        E 16 b0 0b 55
        E 16 b0 0b 4c
        E 32 b0 0b 44
        E 16 b0 0b 3b
        E 16 b0 0b 33
        E 32 b0 0b 2a
        E 16 b0 0b 22
        E 16 b0 0b 2a
        E 32 b0 0b 33
        E 16 b0 0b 3b
        E 16 b0 0b 44
        E 32 b0 0b 4c
        E 16 b0 0b 55
        E 16 b0 0b 66
        E 0 80 3e 00
        E 0 90 3d 66
        E 32 b0 0b 5d
        E 16 b0 0b 55
        E 16 b0 0b 4c
        E 32 b0 0b 44
        E 16 b0 0b 3b
        E 16 b0 0b 33
        E 32 b0 0b 2a
        E 16 b0 0b 22
        E 16 b0 0b 2a
        E 32 b0 0b 33
        E 16 b0 0b 3b
        E 16 b0 0b 44
        E 32 b0 0b 4c
        E 16 b0 0b 55
        E 16 b0 0b 66
        E 0 80 3d 00
        E 0 90 40 66
        E 32 b0 0b 5d
        E 16 b0 0b 55
        E 16 b0 0b 4c
        E 32 b0 0b 44
        E 16 b0 0b 3b
        E 16 b0 0b 33
        E 32 b0 0b 2a
        E 16 b0 0b 22
        E 16 b0 0b 2a
        E 32 b0 0b 33
        E 16 b0 0b 3b
        E 16 b0 0b 44
        E 32 b0 0b 4c
        E 16 b0 0b 55
        E 16 b0 0b 5d
        E 640 b0 0b 66
        E 0 80 40 00
        E 0 90 3d 66
        E 32 b0 0b 5d
        E 16 b0 0b 55
        E 16 b0 0b 4c
        E 32 b0 0b 44
        E 16 b0 0b 3b
        E 16 b0 0b 33
        E 32 b0 0b 2a
        E 16 b0 0b 22
        E 16 b0 0b 2a
        E 32 b0 0b 33
        E 16 b0 0b 3b
        E 16 b0 0b 44
        E 32 b0 0b 4c
        E 16 b0 0b 55
        E 16 b0 0b 66
        E 0 80 3d 00
        E 0 90 3e 66
        E 32 b0 0b 5d
        E 16 b0 0b 55
        E 16 b0 0b 4c
        E 32 b0 0b 44
        E 16 b0 0b 3b
        E 16 b0 0b 33
        E 32 b0 0b 2a
        E 16 b0 0b 22
        E 16 b0 0b 2a
        E 32 b0 0b 33
        E 16 b0 0b 3b
        E 16 b0 0b 44
        E 32 b0 0b 4c
        E 16 b0 0b 55
        E 16 b0 0b 66
        E 0 80 3e 00
        E 0 90 40 66
        E 32 b0 0b 5d
        E 16 b0 0b 55
        E 16 b0 0b 4c
        E 32 b0 0b 44
        E 16 b0 0b 3b
        E 16 b0 0b 33
        E 32 b0 0b 2a
        E 16 b0 0b 22
        E 16 b0 0b 2a
        E 32 b0 0b 33
        E 16 b0 0b 3b
        E 16 b0 0b 44
        E 32 b0 0b 4c
        E 16 b0 0b 55
        E 16 b0 0b 66
        E 0 80 40 00
        E 0 90 41 66
        E 32 b0 0b 5d
        E 16 b0 0b 55
        E 16 b0 0b 4c
        E 32 b0 0b 44
        E 16 b0 0b 3b
        E 16 b0 0b 33
        E 32 b0 0b 2a
        E 16 b0 0b 22
        E 16 b0 0b 2a
        E 32 b0 0b 33
        E 16 b0 0b 3b
        E 16 b0 0b 44
        E 32 b0 0b 4c
        E 16 b0 0b 55
        E 16 b0 0b 5d
        E 640 b0 0b 66
        E 0 80 41 00
        E 0 90 39 66
        E 32 b0 0b 5d
        E 16 b0 0b 55
        E 16 b0 0b 4c
        E 32 b0 0b 44
        E 16 b0 0b 3b
        E 16 b0 0b 33
        E 32 b0 0b 2a
        E 16 b0 0b 22
        E 16 b0 0b 2a
        E 32 b0 0b 33
        E 16 b0 0b 3b
        E 16 b0 0b 44
        E 32 b0 0b 4c
        E 16 b0 0b 55
        E 16 b0 0b 66
        E 0 80 39 00
        E 0 90 3a 66
        E 32 b0 0b 5d
        E 16 b0 0b 55
        E 16 b0 0b 4c
        E 32 b0 0b 44
        E 16 b0 0b 3b
        E 16 b0 0b 33
        E 32 b0 0b 2a
        E 16 b0 0b 22
        E 16 b0 0b 2a
        E 32 b0 0b 33
        E 16 b0 0b 3b
        E 16 b0 0b 44
        E 32 b0 0b 4c
        E 16 b0 0b 55
        E 16 b0 0b 5d
        E 320 b0 0b 66
        E 0 80 3a 00
        E 0 90 43 66
        E 32 b0 0b 5d
        E 16 b0 0b 55
        E 16 b0 0b 4c
        E 32 b0 0b 44
        E 16 b0 0b 3b
        E 16 b0 0b 33
        E 32 b0 0b 2a
        E 16 b0 0b 22
        E 16 b0 0b 2a
        E 32 b0 0b 33
        E 16 b0 0b 3b
        E 16 b0 0b 44
        E 32 b0 0b 4c
        E 16 b0 0b 55
        E 16 b0 0b 66
        E 0 80 43 00
        E 0 90 41 66
        E 32 b0 0b 5d
        E 16 b0 0b 55
        E 16 b0 0b 4c
        E 32 b0 0b 44
        E 16 b0 0b 3b
        E 16 b0 0b 33
        E 32 b0 0b 2a
        E 16 b0 0b 22
        E 16 b0 0b 2a
        E 32 b0 0b 33
        E 16 b0 0b 3b
        E 16 b0 0b 44
        E 32 b0 0b 4c
        E 16 b0 0b 55
        E 16 b0 0b 66
        E 0 80 41 00
        E 0 90 40 66
        E 32 b0 0b 5d
        E 16 b0 0b 55
        E 16 b0 0b 4c
        E 32 b0 0b 44
        E 16 b0 0b 3b
        E 16 b0 0b 33
        E 32 b0 0b 2a
        E 16 b0 0b 22
        E 16 b0 0b 2a
        E 32 b0 0b 33
        E 16 b0 0b 3b
        E 16 b0 0b 44
        E 32 b0 0b 4c
        E 16 b0 0b 55
        E 16 b0 0b 66
        E 0 80 40 00
        E 0 90 41 66
        E 32 b0 0b 5d
        E 16 b0 0b 55
        E 16 b0 0b 4c
        E 32 b0 0b 44
        E 16 b0 0b 3b
        E 16 b0 0b 33
        E 32 b0 0b 2a
        E 16 b0 0b 22
        E 16 b0 0b 2a
        E 32 b0 0b 33
        E 16 b0 0b 3b
        E 16 b0 0b 44
        E 32 b0 0b 4c
        E 16 b0 0b 55
        E 16 b0 0b 66
        E 0 80 41 00
        E 0 90 40 66
        E 32 b0 0b 5d
        E 16 b0 0b 55
        E 16 b0 0b 4c
        E 32 b0 0b 44
        E 16 b0 0b 3b
        E 16 b0 0b 33
        E 32 b0 0b 2a
        E 16 b0 0b 22
        E 16 b0 0b 2a
        E 32 b0 0b 33
        E 16 b0 0b 3b
        E 16 b0 0b 44
        E 32 b0 0b 4c
        E 16 b0 0b 55
        E 16 b0 0b 66
        E 0 80 40 00
        E 0 90 37 66
        E 32 b0 0b 5d
        E 16 b0 0b 55
        E 16 b0 0b 4c
        E 32 b0 0b 44
        E 16 b0 0b 3b
        E 16 b0 0b 33
        E 32 b0 0b 2a
        E 16 b0 0b 22
        E 16 b0 0b 2a
        E 32 b0 0b 33
        E 16 b0 0b 3b
        E 16 b0 0b 44
        E 32 b0 0b 4c
        E 16 b0 0b 55
        E 16 b0 0b 66
        E 0 80 37 00
        E 0 90 39 66
        E 32 b0 0b 5d
        E 16 b0 0b 55
        E 16 b0 0b 4c
        E 32 b0 0b 44
        E 16 b0 0b 3b
        E 16 b0 0b 33
        E 32 b0 0b 2a
        E 16 b0 0b 22
        E 16 b0 0b 2a
        E 32 b0 0b 33
        E 16 b0 0b 3b
        E 16 b0 0b 44
        E 32 b0 0b 4c
        E 16 b0 0b 55
        E 16 b0 0b 5d
        E 320 b0 0b 66
        E 0 80 39 00
        E 0 90 3a 66
        E 32 b0 0b 5d
        E 16 b0 0b 55
        E 16 b0 0b 4c
        E 32 b0 0b 44
        E 16 b0 0b 3b
        E 16 b0 0b 33
        E 32 b0 0b 2a
        E 16 b0 0b 22
        E 16 b0 0b 2a
        E 32 b0 0b 33
        E 16 b0 0b 3b
        E 16 b0 0b 44
        E 32 b0 0b 4c
        E 16 b0 0b 55
        E 16 b0 0b 66
        E 0 80 3a 00
        E 0 90 3c 66
        E 32 b0 0b 5d
        E 16 b0 0b 55
        E 16 b0 0b 4c
        E 32 b0 0b 44
        E 16 b0 0b 3b
        E 16 b0 0b 33
        E 32 b0 0b 2a
        E 16 b0 0b 22
        E 16 b0 0b 2a
        E 32 b0 0b 33
        E 16 b0 0b 3b
        E 16 b0 0b 44
        E 32 b0 0b 4c
        E 16 b0 0b 55
        E 16 b0 0b 66
        E 0 80 3c 00
        E 0 90 3e 66
        E 32 b0 0b 5d
        E 16 b0 0b 55
        E 16 b0 0b 4c
        E 32 b0 0b 44
        E 16 b0 0b 3b
        E 16 b0 0b 33
        E 32 b0 0b 2a
        E 16 b0 0b 22
        E 16 b0 0b 2a
        E 32 b0 0b 33
        E 16 b0 0b 3b
        E 16 b0 0b 44
        E 32 b0 0b 4c
        E 16 b0 0b 55
        E 16 b0 0b 5d
        E 640 b0 0b 66
        E 0 80 3e 00
        E 0 90 40 66
        E 32 b0 0b 5d
        E 16 b0 0b 55
        E 16 b0 0b 4c
        E 32 b0 0b 44
        E 16 b0 0b 3b
        E 16 b0 0b 33
        E 32 b0 0b 2a
        E 16 b0 0b 22
        E 16 b0 0b 2a
        E 32 b0 0b 33
        E 16 b0 0b 3b
        E 16 b0 0b 44
        E 32 b0 0b 4c
        E 16 b0 0b 55
        E 16 b0 0b 66
        E 0 80 40 00
        E 0 90 3e 66
        E 32 b0 0b 5d
        E 16 b0 0b 55
        E 16 b0 0b 4c
        E 32 b0 0b 44
        E 16 b0 0b 3b
        E 16 b0 0b 33
        E 32 b0 0b 2a
        E 16 b0 0b 22
        E 16 b0 0b 2a
        E 32 b0 0b 33
        E 16 b0 0b 3b
        E 16 b0 0b 44
        E 32 b0 0b 4c
        E 16 b0 0b 55
        E 16 b0 0b 5d
        E 320 b0 0b 66
        E 0 80 3e 00
        E 0 90 3d 66
        E 32 b0 0b 5d
        E 16 b0 0b 55
        E 16 b0 0b 4c
        E 32 b0 0b 44
        E 16 b0 0b 3b
        E 16 b0 0b 33
        E 32 b0 0b 2a
        E 16 b0 0b 22
        E 16 b0 0b 2a
        E 32 b0 0b 33
        E 16 b0 0b 3b
        E 16 b0 0b 44
        E 32 b0 0b 4c
        E 16 b0 0b 55
        E 16 b0 0b 5d
        E 320 b0 0b 66
        E 0 80 3d 00
        E 0 90 3e 66
        E 32 b0 0b 5d
        E 16 b0 0b 55
        E 16 b0 0b 4c
        E 32 b0 0b 44
        E 16 b0 0b 3b
        E 16 b0 0b 33
        E 32 b0 0b 2a
        E 16 b0 0b 22
        E 16 b0 0b 2a
        E 32 b0 0b 33
        E 16 b0 0b 3b
        E 16 b0 0b 44
        E 32 b0 0b 4c
        E 16 b0 0b 55
        E 16 b0 0b 5d
        E 2240 b0 0b 66
        E 0 80 3e 00
        E 0 90 41 66
        E 32 b0 0b 5d
        E 16 b0 0b 55
        E 16 b0 0b 4c
        E 32 b0 0b 44
        E 16 b0 0b 3b
        E 16 b0 0b 33
        E 32 b0 0b 2a
        E 16 b0 0b 22
        E 16 b0 0b 2a
        E 32 b0 0b 33
        E 16 b0 0b 3b
        E 16 b0 0b 44
        E 32 b0 0b 4c
        E 16 b0 0b 55
        E 16 b0 0b 5d
        E 640 b0 0b 66
        E 0 80 41 00
        E 0 90 39 66
        E 32 b0 0b 5d
        E 16 b0 0b 55
        E 16 b0 0b 4c
        E 32 b0 0b 44
        E 16 b0 0b 3b
        E 16 b0 0b 33
        E 32 b0 0b 2a
        E 16 b0 0b 22
        E 16 b0 0b 2a
        E 32 b0 0b 33
        E 16 b0 0b 3b
        E 16 b0 0b 44
        E 32 b0 0b 4c
        E 16 b0 0b 55
        E 16 b0 0b 66
        E 0 80 39 00
        E 0 90 3a 66
        E 32 b0 0b 5d
        E 16 b0 0b 55
        E 16 b0 0b 4c
        E 32 b0 0b 44
        E 16 b0 0b 3b
        E 16 b0 0b 33
        E 32 b0 0b 2a
        E 16 b0 0b 22
        E 16 b0 0b 2a
        E 32 b0 0b 33
        E 16 b0 0b 3b
        E 16 b0 0b 44
        E 32 b0 0b 4c
        E 16 b0 0b 55
        E 16 b0 0b 5d
        E 320 b0 0b 66
        E 0 80 3a 00
        E 0 90 43 66
        E 32 b0 0b 5d
        E 16 b0 0b 55
        E 16 b0 0b 4c
        E 32 b0 0b 44
        E 16 b0 0b 3b
        E 16 b0 0b 33
        E 32 b0 0b 2a
        E 16 b0 0b 22
        E 16 b0 0b 2a
        E 32 b0 0b 33
        E 16 b0 0b 3b
        E 16 b0 0b 44
        E 32 b0 0b 4c
        E 16 b0 0b 55
        E 16 b0 0b 66
        E 0 80 43 00
        E 0 90 41 66
        E 32 b0 0b 5d
        E 16 b0 0b 55
        E 16 b0 0b 4c
        E 32 b0 0b 44
        E 16 b0 0b 3b
        E 16 b0 0b 33
        E 32 b0 0b 2a
        E 16 b0 0b 22
        E 16 b0 0b 2a
        E 32 b0 0b 33
        E 16 b0 0b 3b
        E 16 b0 0b 44
        E 32 b0 0b 4c
        E 16 b0 0b 55
        E 16 b0 0b 66
        E 0 80 41 00
        E 0 90 40 66
        E 32 b0 0b 5d
        E 16 b0 0b 55
        E 16 b0 0b 4c
        E 32 b0 0b 44
        E 16 b0 0b 3b
        E 16 b0 0b 33
        E 32 b0 0b 2a
        E 16 b0 0b 22
        E 16 b0 0b 2a
        E 32 b0 0b 33
        E 16 b0 0b 3b
        E 16 b0 0b 44
        E 32 b0 0b 4c
        E 16 b0 0b 55
        E 16 b0 0b 66
        E 0 80 40 00
        E 0 90 41 66
        E 32 b0 0b 5d
        E 16 b0 0b 55
        E 16 b0 0b 4c
        E 32 b0 0b 44
        E 16 b0 0b 3b
        E 16 b0 0b 33
        E 32 b0 0b 2a
        E 16 b0 0b 22
        E 16 b0 0b 2a
        E 32 b0 0b 33
        E 16 b0 0b 3b
        E 16 b0 0b 44
        E 32 b0 0b 4c
        E 16 b0 0b 55
        E 16 b0 0b 66
        E 0 80 41 00
        E 0 90 40 66
        E 32 b0 0b 5d
        E 16 b0 0b 55
        E 16 b0 0b 4c
        E 32 b0 0b 44
        E 16 b0 0b 3b
        E 16 b0 0b 33
        E 32 b0 0b 2a
        E 16 b0 0b 22
        E 16 b0 0b 2a
        E 32 b0 0b 33
        E 16 b0 0b 3b
        E 16 b0 0b 44
        E 32 b0 0b 4c
        E 16 b0 0b 55
        E 16 b0 0b 66
        E 0 80 40 00
        E 0 90 37 66
        E 32 b0 0b 5d
        E 16 b0 0b 55
        E 16 b0 0b 4c
        E 32 b0 0b 44
        E 16 b0 0b 3b
        E 16 b0 0b 33
        E 32 b0 0b 2a
        E 16 b0 0b 22
        E 16 b0 0b 2a
        E 32 b0 0b 33
        E 16 b0 0b 3b
        E 16 b0 0b 44
        E 32 b0 0b 4c
        E 16 b0 0b 55
        E 16 b0 0b 66
        E 0 80 37 00
        E 0 90 39 66
        E 32 b0 0b 5d
        E 16 b0 0b 55
        E 16 b0 0b 4c
        E 32 b0 0b 44
        E 16 b0 0b 3b
        E 16 b0 0b 33
        E 32 b0 0b 2a
        E 16 b0 0b 22
        E 16 b0 0b 2a
        E 32 b0 0b 33
        E 16 b0 0b 3b
        E 16 b0 0b 44
        E 32 b0 0b 4c
        E 16 b0 0b 55
        E 16 b0 0b 5d
        E 960 b0 0b 66
        E 0 80 39 00
        E 0 90 3e 66
        E 32 b0 0b 5d
        E 16 b0 0b 55
        E 16 b0 0b 4c
        E 32 b0 0b 44
        E 16 b0 0b 3b
        E 16 b0 0b 33
        E 32 b0 0b 2a
        E 16 b0 0b 22
        E 16 b0 0b 2a
        E 32 b0 0b 33
        E 16 b0 0b 3b
        E 16 b0 0b 44
        E 32 b0 0b 4c
        E 16 b0 0b 55
        E 16 b0 0b 5d
        E 640 b0 0b 66
        E 0 80 3e 00
        E 0 90 35 66
        E 32 b0 0b 5d
        E 16 b0 0b 55
        E 16 b0 0b 4c
        E 32 b0 0b 44
        E 16 b0 0b 3b
        E 16 b0 0b 33
        E 32 b0 0b 2a
        E 16 b0 0b 22
        E 16 b0 0b 2a
        E 32 b0 0b 33
        E 16 b0 0b 3b
        E 16 b0 0b 44
        E 32 b0 0b 4c
        E 16 b0 0b 55
        E 16 b0 0b 66
        E 0 80 35 00
        E 0 90 34 66
        E 32 b0 0b 5d
        E 16 b0 0b 55
        E 16 b0 0b 4c
        E 32 b0 0b 44
        E 16 b0 0b 3b
        E 16 b0 0b 33
        E 32 b0 0b 2a
        E 16 b0 0b 22
        E 16 b0 0b 2a
        E 32 b0 0b 33
        E 16 b0 0b 3b
        E 16 b0 0b 44
        E 32 b0 0b 4c
        E 16 b0 0b 55
        E 16 b0 0b 5d
        E 320 b0 0b 66
        E 0 80 34 00
        E 0 90 3b 66
        E 32 b0 0b 5d
        E 16 b0 0b 55
        E 16 b0 0b 4c
        E 32 b0 0b 44
        E 16 b0 0b 3b
        E 16 b0 0b 33
        E 32 b0 0b 2a
        E 16 b0 0b 22
        E 16 b0 0b 2a
        E 32 b0 0b 33
        E 16 b0 0b 3b
        E 16 b0 0b 44
        E 32 b0 0b 4c
        E 16 b0 0b 55
        E 16 b0 0b 66
        E 0 80 3b 00
        E 0 90 3e 66
        E 32 b0 0b 5d
        E 16 b0 0b 55
        E 16 b0 0b 4c
        E 32 b0 0b 44
        E 16 b0 0b 3b
        E 16 b0 0b 33
        E 32 b0 0b 2a
        E 16 b0 0b 22
        E 16 b0 0b 2a
        E 32 b0 0b 33
        E 16 b0 0b 3b
        E 16 b0 0b 44
        E 32 b0 0b 4c
        E 16 b0 0b 55
        E 16 b0 0b 66
        E 32 b0 0b 5d
        E 16 b0 0b 55
        E 16 b0 0b 4c
        E 32 b0 0b 44
        E 16 b0 0b 3b
        E 16 b0 0b 33
        E 32 b0 0b 2a
        E 16 b0 0b 22
        E 16 b0 0b 2a
        E 32 b0 0b 33
        E 16 b0 0b 3b
        E 16 b0 0b 44
        E 32 b0 0b 4c
        E 16 b0 0b 55
        E 16 b0 0b 66
        E 0 80 3e 00
        E 0 90 3d 66
        E 32 b0 0b 5d
        E 16 b0 0b 55
        E 16 b0 0b 4c
        E 32 b0 0b 44
        E 16 b0 0b 3b
        E 16 b0 0b 33
        E 32 b0 0b 2a
        E 16 b0 0b 22
        E 16 b0 0b 2a
        E 32 b0 0b 33
        E 16 b0 0b 3b
        E 16 b0 0b 44
        E 32 b0 0b 4c
        E 16 b0 0b 55
        E 16 b0 0b 66
        E 0 80 3d 00
        E 0 90 40 66
        E 32 b0 0b 5d
        E 16 b0 0b 55
        E 16 b0 0b 4c
        E 32 b0 0b 44
        E 16 b0 0b 3b
        E 16 b0 0b 33
        E 32 b0 0b 2a
        E 16 b0 0b 22
        E 16 b0 0b 2a
        E 32 b0 0b 33
        E 16 b0 0b 3b
        E 16 b0 0b 44
        E 32 b0 0b 4c
        E 16 b0 0b 55
        E 16 b0 0b 5d
        E 640 b0 0b 66
        E 0 80 40 00
        E 0 90 3d 66
        E 32 b0 0b 5d
        E 16 b0 0b 55
        E 16 b0 0b 4c
        E 32 b0 0b 44
        E 16 b0 0b 3b
        E 16 b0 0b 33
        E 32 b0 0b 2a
        E 16 b0 0b 22
        E 16 b0 0b 2a
        E 32 b0 0b 33
        E 16 b0 0b 3b
        E 16 b0 0b 44
        E 32 b0 0b 4c
        E 16 b0 0b 55
        E 16 b0 0b 66
        E 0 80 3d 00
        E 0 90 3e 66
        E 32 b0 0b 5d
        E 16 b0 0b 55
        E 16 b0 0b 4c
        E 32 b0 0b 44
        E 16 b0 0b 3b
        E 16 b0 0b 33
        E 32 b0 0b 2a
        E 16 b0 0b 22
        E 16 b0 0b 2a
        E 32 b0 0b 33
        E 16 b0 0b 3b
        E 16 b0 0b 44
        E 32 b0 0b 4c
        E 16 b0 0b 55
        E 16 b0 0b 66
        E 0 80 3e 00
        E 0 90 40 66
        E 32 b0 0b 5d
        E 16 b0 0b 55
        E 16 b0 0b 4c
        E 32 b0 0b 44
        E 16 b0 0b 3b
        E 16 b0 0b 33
        E 32 b0 0b 2a
        E 16 b0 0b 22
        E 16 b0 0b 2a
        E 32 b0 0b 33
        E 16 b0 0b 3b
        E 16 b0 0b 44
        E 32 b0 0b 4c
        E 16 b0 0b 55
        E 16 b0 0b 66
        E 0 80 40 00
        E 0 90 41 66
        E 32 b0 0b 5d
        E 16 b0 0b 55
        E 16 b0 0b 4c
        E 32 b0 0b 44
        E 16 b0 0b 3b
        E 16 b0 0b 33
        E 32 b0 0b 2a
        E 16 b0 0b 22
        E 16 b0 0b 2a
        E 32 b0 0b 33
        E 16 b0 0b 3b
        E 16 b0 0b 44
        E 32 b0 0b 4c
        E 16 b0 0b 55
        E 16 b0 0b 5d
        E 640 b0 0b 66
        E 0 80 41 00
        E 0 90 39 66
        E 32 b0 0b 5d
        E 16 b0 0b 55
        E 16 b0 0b 4c
        E 32 b0 0b 44
        E 16 b0 0b 3b
        E 16 b0 0b 33
        E 32 b0 0b 2a
        E 16 b0 0b 22
        E 16 b0 0b 2a
        E 32 b0 0b 33
        E 16 b0 0b 3b
        E 16 b0 0b 44
        E 32 b0 0b 4c
        E 16 b0 0b 55
        E 16 b0 0b 66
        E 0 80 39 00
        E 0 90 3a 66
        E 32 b0 0b 5d
        E 16 b0 0b 55
        E 16 b0 0b 4c
        E 32 b0 0b 44
        E 16 b0 0b 3b
        E 16 b0 0b 33
        E 32 b0 0b 2a
        E 16 b0 0b 22
        E 16 b0 0b 2a
        E 32 b0 0b 33
        E 16 b0 0b 3b
        E 16 b0 0b 44
        E 32 b0 0b 4c
        E 16 b0 0b 55
        E 16 b0 0b 5d
        E 320 b0 0b 66
        E 0 80 3a 00
        E 0 90 43 66
        E 32 b0 0b 5d
        E 16 b0 0b 55
        E 16 b0 0b 4c
        E 32 b0 0b 44
        E 16 b0 0b 3b
        E 16 b0 0b 33
        E 32 b0 0b 2a
        E 16 b0 0b 22
        E 16 b0 0b 2a
        E 32 b0 0b 33
        E 16 b0 0b 3b
        E 16 b0 0b 44
        E 32 b0 0b 4c
        E 16 b0 0b 55
        E 16 b0 0b 66
        E 0 80 43 00
        E 0 90 41 66
        E 32 b0 0b 5d
        E 16 b0 0b 55
        E 16 b0 0b 4c
        E 32 b0 0b 44
        E 16 b0 0b 3b
        E 16 b0 0b 33
        E 32 b0 0b 2a
        E 16 b0 0b 22
        E 16 b0 0b 2a
        E 32 b0 0b 33
        E 16 b0 0b 3b
        E 16 b0 0b 44
        E 32 b0 0b 4c
        E 16 b0 0b 55
        E 16 b0 0b 66
        E 0 80 41 00
        E 0 90 40 66
        E 32 b0 0b 5d
        E 16 b0 0b 55
        E 16 b0 0b 4c
        E 32 b0 0b 44
        E 16 b0 0b 3b
        E 16 b0 0b 33
        E 32 b0 0b 2a
        E 16 b0 0b 22
        E 16 b0 0b 2a
        E 32 b0 0b 33
        E 16 b0 0b 3b
        E 16 b0 0b 44
        E 32 b0 0b 4c
        E 16 b0 0b 55
        E 16 b0 0b 66
        E 0 80 40 00
        E 0 90 41 66
        E 32 b0 0b 5d
        E 16 b0 0b 55
        E 16 b0 0b 4c
        E 32 b0 0b 44
        E 16 b0 0b 3b
        E 16 b0 0b 33
        E 32 b0 0b 2a
        E 16 b0 0b 22
        E 16 b0 0b 2a
        E 32 b0 0b 33
        E 16 b0 0b 3b
        E 16 b0 0b 44
        E 32 b0 0b 4c
        E 16 b0 0b 55
        E 16 b0 0b 66
        E 0 80 41 00
        E 0 90 40 66
        E 32 b0 0b 5d
        E 16 b0 0b 55
        E 16 b0 0b 4c
        E 32 b0 0b 44
        E 16 b0 0b 3b
        E 16 b0 0b 33
        E 32 b0 0b 2a
        E 16 b0 0b 22
        E 16 b0 0b 2a
        E 32 b0 0b 33
        E 16 b0 0b 3b
        E 16 b0 0b 44
        E 32 b0 0b 4c
        E 16 b0 0b 55
        E 16 b0 0b 66
        E 0 80 40 00
        E 0 90 37 66
        E 32 b0 0b 5d
        E 16 b0 0b 55
        E 16 b0 0b 4c
        E 32 b0 0b 44
        E 16 b0 0b 3b
        E 16 b0 0b 33
        E 32 b0 0b 2a
        E 16 b0 0b 22
        E 16 b0 0b 2a
        E 32 b0 0b 33
        E 16 b0 0b 3b
        E 16 b0 0b 44
        E 32 b0 0b 4c
        E 16 b0 0b 55
        E 16 b0 0b 66
        E 0 80 37 00
        E 0 90 39 66
        E 32 b0 0b 5d
        E 16 b0 0b 55
        E 16 b0 0b 4c
        E 32 b0 0b 44
        E 16 b0 0b 3b
        E 16 b0 0b 33
        E 32 b0 0b 2a
        E 16 b0 0b 22
        E 16 b0 0b 2a
        E 32 b0 0b 33
        E 16 b0 0b 3b
        E 16 b0 0b 44
        E 32 b0 0b 4c
        E 16 b0 0b 55
        E 16 b0 0b 5d
        E 320 b0 0b 66
        E 0 80 39 00
        E 0 90 3a 66
        E 32 b0 0b 5d
        E 16 b0 0b 55
        E 16 b0 0b 4c
        E 32 b0 0b 44
        E 16 b0 0b 3b
        E 16 b0 0b 33
        E 32 b0 0b 2a
        E 16 b0 0b 22
        E 16 b0 0b 2a
        E 32 b0 0b 33
        E 16 b0 0b 3b
        E 16 b0 0b 44
        E 32 b0 0b 4c
        E 16 b0 0b 55
        E 16 b0 0b 66
        E 0 80 3a 00
        E 0 90 3c 66
        E 32 b0 0b 5d
        E 16 b0 0b 55
        E 16 b0 0b 4c
        E 32 b0 0b 44
        E 16 b0 0b 3b
        E 16 b0 0b 33
        E 32 b0 0b 2a
        E 16 b0 0b 22
        E 16 b0 0b 2a
        E 32 b0 0b 33
        E 16 b0 0b 3b
        E 16 b0 0b 44
        E 32 b0 0b 4c
        E 16 b0 0b 55
        E 16 b0 0b 66
        E 0 80 3c 00
        E 0 90 3e 66
        E 32 b0 0b 5d
        E 16 b0 0b 55
        E 16 b0 0b 4c
        E 32 b0 0b 44
        E 16 b0 0b 3b
        E 16 b0 0b 33
        E 32 b0 0b 2a
        E 16 b0 0b 22
        E 16 b0 0b 2a
        E 32 b0 0b 33
        E 16 b0 0b 3b
        E 16 b0 0b 44
        E 32 b0 0b 4c
        E 16 b0 0b 55
        E 16 b0 0b 5d
        E 640 b0 0b 66
        E 0 80 3e 00
        E 0 90 40 66
        E 32 b0 0b 5d
        E 16 b0 0b 55
        E 16 b0 0b 4c
        E 32 b0 0b 44
        E 16 b0 0b 3b
        E 16 b0 0b 33
        E 32 b0 0b 2a
        E 16 b0 0b 22
        E 16 b0 0b 2a
        E 32 b0 0b 33
        E 16 b0 0b 3b
        E 16 b0 0b 44
        E 32 b0 0b 4c
        E 16 b0 0b 55
        E 16 b0 0b 66
        E 0 80 40 00
        E 0 90 3e 66
        E 32 b0 0b 5d
        E 16 b0 0b 55
        E 16 b0 0b 4c
        E 32 b0 0b 44
        E 16 b0 0b 3b
        E 16 b0 0b 33
        E 32 b0 0b 2a
        E 16 b0 0b 22
        E 16 b0 0b 2a
        E 32 b0 0b 33
        E 16 b0 0b 3b
        E 16 b0 0b 44
        E 32 b0 0b 4c
        E 16 b0 0b 55
        E 16 b0 0b 5d
        E 320 b0 0b 66
        E 0 80 3e 00
        E 0 90 3d 66
        E 32 b0 0b 5d
        E 16 b0 0b 55
        E 16 b0 0b 4c
        E 32 b0 0b 44
        E 16 b0 0b 3b
        E 16 b0 0b 33
        E 32 b0 0b 2a
        E 16 b0 0b 22
        E 16 b0 0b 2a
        E 32 b0 0b 33
        E 16 b0 0b 3b
        E 16 b0 0b 44
        E 32 b0 0b 4c
        E 16 b0 0b 55
        E 16 b0 0b 5d
        E 320 b0 0b 66
        E 0 80 3d 00
        E 0 90 3e 66
        E 32 b0 0b 5d
        E 16 b0 0b 55
        E 16 b0 0b 4c
        E 32 b0 0b 44
        E 16 b0 0b 3b
        E 16 b0 0b 33
        E 32 b0 0b 2a
        E 16 b0 0b 22
        E 16 b0 0b 2a
        E 32 b0 0b 33
        E 16 b0 0b 3b
        E 16 b0 0b 44
        E 32 b0 0b 4c
        E 16 b0 0b 55
        E 16 b0 0b 5d
        E 2240 b0 0b 66
        E 0 80 3e 00
        E 0 90 41 66
        E 32 b0 0b 5d
        E 16 b0 0b 55
        E 16 b0 0b 4c
        E 32 b0 0b 44
        E 16 b0 0b 3b
        E 16 b0 0b 33
        E 32 b0 0b 2a
        E 16 b0 0b 22
        E 16 b0 0b 2a
        E 32 b0 0b 33
        E 16 b0 0b 3b
        E 16 b0 0b 44
        E 32 b0 0b 4c
        E 16 b0 0b 55
        E 16 b0 0b 5d
        E 640 b0 0b 66
        E 0 80 41 00
        E 0 90 39 66
        E 32 b0 0b 5d
        E 16 b0 0b 55
        E 16 b0 0b 4c
        E 32 b0 0b 44
        E 16 b0 0b 3b
        E 16 b0 0b 33
        E 32 b0 0b 2a
        E 16 b0 0b 22
        E 16 b0 0b 2a
        E 32 b0 0b 33
        E 16 b0 0b 3b
        E 16 b0 0b 44
        E 32 b0 0b 4c
        E 16 b0 0b 55
        E 16 b0 0b 66
        E 0 80 39 00
        E 0 90 3a 66
        E 32 b0 0b 5d
        E 16 b0 0b 55
        E 16 b0 0b 4c
        E 32 b0 0b 44
        E 16 b0 0b 3b
        E 16 b0 0b 33
        E 32 b0 0b 2a
        E 16 b0 0b 22
        E 16 b0 0b 2a
        E 32 b0 0b 33
        E 16 b0 0b 3b
        E 16 b0 0b 44
        E 32 b0 0b 4c
        E 16 b0 0b 55
        E 16 b0 0b 5d
        E 320 b0 0b 66
        E 0 80 3a 00
        E 0 90 43 66
        E 32 b0 0b 5d
        E 16 b0 0b 55
        E 16 b0 0b 4c
        E 32 b0 0b 44
        E 16 b0 0b 3b
        E 16 b0 0b 33
        E 32 b0 0b 2a
        E 16 b0 0b 22
        E 16 b0 0b 2a
        E 32 b0 0b 33
        E 16 b0 0b 3b
        E 16 b0 0b 44
        E 32 b0 0b 4c
        E 16 b0 0b 55
        E 16 b0 0b 66
        E 0 80 43 00
        E 0 90 41 66
        E 32 b0 0b 5d
        E 16 b0 0b 55
        E 16 b0 0b 4c
        E 32 b0 0b 44
        E 16 b0 0b 3b
        E 16 b0 0b 33
        E 32 b0 0b 2a
        E 16 b0 0b 22
        E 16 b0 0b 2a
        E 32 b0 0b 33
        E 16 b0 0b 3b
        E 16 b0 0b 44
        E 32 b0 0b 4c
        E 16 b0 0b 55
        E 16 b0 0b 66
        E 0 80 41 00
        E 0 90 40 66
        E 32 b0 0b 5d
        E 16 b0 0b 55
        E 16 b0 0b 4c
        E 32 b0 0b 44
        E 16 b0 0b 3b
        E 16 b0 0b 33
        E 32 b0 0b 2a
        E 16 b0 0b 22
        E 16 b0 0b 2a
        E 32 b0 0b 33
        E 16 b0 0b 3b
        E 16 b0 0b 44
        E 32 b0 0b 4c
        E 16 b0 0b 55
        E 16 b0 0b 66
        E 0 80 40 00
        E 0 90 41 66
        E 32 b0 0b 5d
        E 16 b0 0b 55
        E 16 b0 0b 4c
        E 32 b0 0b 44
        E 16 b0 0b 3b
        E 16 b0 0b 33
        E 32 b0 0b 2a
        E 16 b0 0b 22
        E 16 b0 0b 2a
        E 32 b0 0b 33
        E 16 b0 0b 3b
        E 16 b0 0b 44
        E 32 b0 0b 4c
        E 16 b0 0b 55
        E 16 b0 0b 66
        E 0 80 41 00
        E 0 90 40 66
        E 32 b0 0b 5d
        E 16 b0 0b 55
        E 16 b0 0b 4c
        E 32 b0 0b 44
        E 16 b0 0b 3b
        E 16 b0 0b 33
        E 32 b0 0b 2a
        E 16 b0 0b 22
        E 16 b0 0b 2a
        E 32 b0 0b 33
        E 16 b0 0b 3b
        E 16 b0 0b 44
        E 32 b0 0b 4c
        E 16 b0 0b 55
        E 16 b0 0b 66
        E 0 80 40 00
        E 0 90 37 66
        E 32 b0 0b 5d
        E 16 b0 0b 55
        E 16 b0 0b 4c
        E 32 b0 0b 44
        E 16 b0 0b 3b
        E 16 b0 0b 33
        E 32 b0 0b 2a
        E 16 b0 0b 22
        E 16 b0 0b 2a
        E 32 b0 0b 33
        E 16 b0 0b 3b
        E 16 b0 0b 44
        E 32 b0 0b 4c
        E 16 b0 0b 55
        E 16 b0 0b 66
        E 0 80 37 00
        E 0 90 39 66
        E 32 b0 0b 5d
        E 16 b0 0b 55
        E 16 b0 0b 4c
        E 32 b0 0b 44
        E 16 b0 0b 3b
        E 16 b0 0b 33
        E 32 b0 0b 2a
        E 16 b0 0b 22
        E 16 b0 0b 2a
        E 32 b0 0b 33
        E 16 b0 0b 3b
        E 16 b0 0b 44
        E 32 b0 0b 4c
        E 16 b0 0b 55
        E 16 b0 0b 5d
        E 960 b0 0b 66
        E 0 80 39 00
        E 0 90 3e 66
        E 32 b0 0b 5d
        E 16 b0 0b 55
        E 16 b0 0b 4c
        E 32 b0 0b 44
        E 16 b0 0b 3b
        E 16 b0 0b 33
        E 32 b0 0b 2a
        E 16 b0 0b 22
        E 16 b0 0b 2a
        E 32 b0 0b 33
        E 16 b0 0b 3b
        E 16 b0 0b 44
        E 32 b0 0b 4c
        E 16 b0 0b 55
        E 16 b0 0b 5d
        E 640 b0 0b 66
        E 0 80 3e 00
        E 0 90 35 66
        E 32 b0 0b 5d
        E 16 b0 0b 55
        E 16 b0 0b 4c
        E 32 b0 0b 44
        E 16 b0 0b 3b
        E 16 b0 0b 33
        E 32 b0 0b 2a
        E 16 b0 0b 22
        E 16 b0 0b 2a
        E 32 b0 0b 33
        E 16 b0 0b 3b
        E 16 b0 0b 44
        E 32 b0 0b 4c
        E 16 b0 0b 55
        E 16 b0 0b 66
        E 0 80 35 00
        E 0 90 34 66
        E 32 b0 0b 5d
        E 16 b0 0b 55
        E 16 b0 0b 4c
        E 32 b0 0b 44
        E 16 b0 0b 3b
        E 16 b0 0b 33
        E 32 b0 0b 2a
        E 16 b0 0b 22
        E 16 b0 0b 2a
        E 32 b0 0b 33
        E 16 b0 0b 3b
        E 16 b0 0b 44
        E 32 b0 0b 4c
        E 16 b0 0b 55
        E 16 b0 0b 5d
        E 320 b0 0b 66
        E 0 80 34 00
        E 0 90 3b 66
        E 32 b0 0b 5d
        E 16 b0 0b 55
        E 16 b0 0b 4c
        E 32 b0 0b 44
        E 16 b0 0b 3b
        E 16 b0 0b 33
        E 32 b0 0b 2a
        E 16 b0 0b 22
        E 16 b0 0b 2a
        E 32 b0 0b 33
        E 16 b0 0b 3b
        E 16 b0 0b 44
        E 32 b0 0b 4c
        E 16 b0 0b 55
        E 16 b0 0b 66
        E 0 80 3b 00
        E 0 90 3e 66
        E 32 b0 0b 5d
        E 16 b0 0b 55
        E 16 b0 0b 4c
        E 32 b0 0b 44
        E 16 b0 0b 3b
        E 16 b0 0b 33
        E 32 b0 0b 2a
        E 16 b0 0b 22
        E 16 b0 0b 2a
        E 32 b0 0b 33
        E 16 b0 0b 3b
        E 16 b0 0b 44
        E 32 b0 0b 4c
        E 16 b0 0b 55
        E 16 b0 0b 66
        E 32 b0 0b 5d
        E 16 b0 0b 55
        E 16 b0 0b 4c
        E 32 b0 0b 44
        E 16 b0 0b 3b
        E 16 b0 0b 33
        E 32 b0 0b 2a
        E 16 b0 0b 22
        E 16 b0 0b 2a
        E 32 b0 0b 33
        E 16 b0 0b 3b
        E 16 b0 0b 44
        E 32 b0 0b 4c
        E 16 b0 0b 55
        E 16 b0 0b 66
        E 0 80 3e 00
        E 0 90 3d 66
        E 32 b0 0b 5d
        E 16 b0 0b 55
        E 16 b0 0b 4c
        E 32 b0 0b 44
        E 16 b0 0b 3b
        E 16 b0 0b 33
        E 32 b0 0b 2a
        E 16 b0 0b 22
        E 16 b0 0b 2a
        E 32 b0 0b 33
        E 16 b0 0b 3b
        E 16 b0 0b 44
        E 32 b0 0b 4c
        E 16 b0 0b 55
        E 16 b0 0b 66
        E 0 80 3d 00
        E 0 90 40 66
        E 32 b0 0b 5d
        E 16 b0 0b 55
        E 16 b0 0b 4c
        E 32 b0 0b 44
        E 16 b0 0b 3b
        E 16 b0 0b 33
        E 32 b0 0b 2a
        E 16 b0 0b 22
        E 16 b0 0b 2a
        E 32 b0 0b 33
        E 16 b0 0b 3b
        E 16 b0 0b 44
        E 32 b0 0b 4c
        E 16 b0 0b 55
        E 16 b0 0b 5d
        E 640 b0 0b 66
        E 0 80 40 00
        E 0 90 3d 66
        E 32 b0 0b 5d
        E 16 b0 0b 55
        E 16 b0 0b 4c
        E 32 b0 0b 44
        E 16 b0 0b 3b
        E 16 b0 0b 33
        E 32 b0 0b 2a
        E 16 b0 0b 22
        E 16 b0 0b 2a
        E 32 b0 0b 33
        E 16 b0 0b 3b
        E 16 b0 0b 44
        E 32 b0 0b 4c
        E 16 b0 0b 55
        E 16 b0 0b 66
        E 0 80 3d 00
        E 0 90 3e 66
        E 32 b0 0b 5d
        E 16 b0 0b 55
        E 16 b0 0b 4c
        E 32 b0 0b 44
        E 16 b0 0b 3b
        E 16 b0 0b 33
        E 32 b0 0b 2a
        E 16 b0 0b 22
        E 16 b0 0b 2a
        E 32 b0 0b 33
        E 16 b0 0b 3b
        E 16 b0 0b 44
        E 32 b0 0b 4c
        E 16 b0 0b 55
        E 16 b0 0b 66
        E 0 80 3e 00
        E 0 90 40 66
        E 32 b0 0b 5d
        E 16 b0 0b 55
        E 16 b0 0b 4c
        E 32 b0 0b 44
        E 16 b0 0b 3b
        E 16 b0 0b 33
        E 32 b0 0b 2a
        E 16 b0 0b 22
        E 16 b0 0b 2a
        E 32 b0 0b 33
        E 16 b0 0b 3b
        E 16 b0 0b 44
        E 32 b0 0b 4c
        E 16 b0 0b 55
        E 16 b0 0b 66
        E 0 80 40 00
        E 0 90 41 66
        E 32 b0 0b 5d
        E 16 b0 0b 55
        E 16 b0 0b 4c
        E 32 b0 0b 44
        E 16 b0 0b 3b
        E 16 b0 0b 33
        E 32 b0 0b 2a
        E 16 b0 0b 22
        E 16 b0 0b 2a
        E 32 b0 0b 33
        E 16 b0 0b 3b
        E 16 b0 0b 44
        E 32 b0 0b 4c
        E 16 b0 0b 55
        E 16 b0 0b 5d
        E 640 b0 0b 66
        E 0 80 41 00
        E 0 90 39 66
        E 32 b0 0b 5d
        E 16 b0 0b 55
        E 16 b0 0b 4c
        E 32 b0 0b 44
        E 16 b0 0b 3b
        E 16 b0 0b 33
        E 32 b0 0b 2a
        E 16 b0 0b 22
        E 16 b0 0b 2a
        E 32 b0 0b 33
        E 16 b0 0b 3b
        E 16 b0 0b 44
        E 32 b0 0b 4c
        E 16 b0 0b 55
        E 16 b0 0b 66
        E 0 80 39 00
        E 0 90 3a 66
        E 32 b0 0b 5d
        E 16 b0 0b 55
        E 16 b0 0b 4c
        E 32 b0 0b 44
        E 16 b0 0b 3b
        E 16 b0 0b 33
        E 32 b0 0b 2a
        E 16 b0 0b 22
        E 16 b0 0b 2a
        E 32 b0 0b 33
        E 16 b0 0b 3b
        E 16 b0 0b 44
        E 32 b0 0b 4c
        E 16 b0 0b 55
        E 16 b0 0b 5d
        E 320 b0 0b 66
        E 0 80 3a 00
        E 0 90 43 66
        E 32 b0 0b 5d
        E 16 b0 0b 55
        E 16 b0 0b 4c
        E 32 b0 0b 44
        E 16 b0 0b 3b
        E 16 b0 0b 33
        E 32 b0 0b 2a
        E 16 b0 0b 22
        E 16 b0 0b 2a
        E 32 b0 0b 33
        E 16 b0 0b 3b
        E 16 b0 0b 44
        E 32 b0 0b 4c
        E 16 b0 0b 55
        E 16 b0 0b 66
        E 0 80 43 00
        E 0 90 41 66
        E 32 b0 0b 5d
        E 16 b0 0b 55
        E 16 b0 0b 4c
        E 32 b0 0b 44
        E 16 b0 0b 3b
        E 16 b0 0b 33
        E 32 b0 0b 2a
        E 16 b0 0b 22
        E 16 b0 0b 2a
        E 32 b0 0b 33
        E 16 b0 0b 3b
        E 16 b0 0b 44
        E 32 b0 0b 4c
        E 16 b0 0b 55
        E 16 b0 0b 66
        E 0 80 41 00
        E 0 90 40 66
        E 32 b0 0b 5d
        E 16 b0 0b 55
        E 16 b0 0b 4c
        E 32 b0 0b 44
        E 16 b0 0b 3b
        E 16 b0 0b 33
        E 32 b0 0b 2a
        E 16 b0 0b 22
        E 16 b0 0b 2a
        E 32 b0 0b 33
        E 16 b0 0b 3b
        E 16 b0 0b 44
        E 32 b0 0b 4c
        E 16 b0 0b 55
        E 16 b0 0b 66
        E 0 80 40 00
        E 0 90 41 66
        E 32 b0 0b 5d
        E 16 b0 0b 55
        E 16 b0 0b 4c
        E 32 b0 0b 44
        E 16 b0 0b 3b
        E 16 b0 0b 33
        E 32 b0 0b 2a
        E 16 b0 0b 22
        E 16 b0 0b 2a
        E 32 b0 0b 33
        E 16 b0 0b 3b
        E 16 b0 0b 44
        E 32 b0 0b 4c
        E 16 b0 0b 55
        E 16 b0 0b 66
        E 0 80 41 00
        E 0 90 40 66
        E 32 b0 0b 5d
        E 16 b0 0b 55
        E 16 b0 0b 4c
        E 32 b0 0b 44
        E 16 b0 0b 3b
        E 16 b0 0b 33
        E 32 b0 0b 2a
        E 16 b0 0b 22
        E 16 b0 0b 2a
        E 32 b0 0b 33
        E 16 b0 0b 3b
        E 16 b0 0b 44
        E 32 b0 0b 4c
        E 16 b0 0b 55
        E 16 b0 0b 66
        E 0 80 40 00
        E 0 90 37 66
        E 32 b0 0b 5d
        E 16 b0 0b 55
        E 16 b0 0b 4c
        E 32 b0 0b 44
        E 16 b0 0b 3b
        E 16 b0 0b 33
        E 32 b0 0b 2a
        E 16 b0 0b 22
        E 16 80 37 00
        E 0 b0 7b 00
        E 0 ff 2f 00
      >
    >
  >
  <TRACK {7D541817-7013-4E7F-B3F2-BFA42366F64A}
    NAME "NES - Pulse 2 [ch1]"
    PEAKCOL 10092441
    BEAT -1
    AUTOMODE 0
    PANLAWFLAGS 3
    VOLPAN 1 0 -1 -1 1
    MUTESOLO 0 0 0
    IPHASE 0
    PLAYOFFS 0 1
    ISBUS 0 0
    BUSCOMP 0 0 0 0 0
    SHOWINMIX 1 0.6667 0.5 1 0.5 0 0 0
    FIXEDLANES 9 0 0 0 0
    SEL 0
    REC 0 5088 1 0 0 0 0 0
    VU 2
    TRACKHEIGHT 0 0 0 0 0 0 0
    INQ 0 0 0 0.5 100 0 0 100
    NCHAN 2
    FX 1
    TRACKID {7D541817-7013-4E7F-B3F2-BFA42366F64A}
    PERF 0
    MIDIOUT -1
    MAINSEND 1 0
    <FXCHAIN
      WNDRECT 24 52 700 560
      SHOW 0
      LASTSEL 0
      DOCKED 0
      BYPASS 0 0 0
      <JS "ReapNES Studio/ReapNES_Console.jsfx" ""
        2 15 1 10 80 10 100 2 1 15 1 5 60 10 80 1 1 0 50 0 0 15 1 0 100 0 0 0.500000 0.500000 0.400000 0.300000 0.800000 1 1 0 0 0 0 - - - - - - - - - - - - - - - - - - - - - - - - - -
      >
      FLOATPOS 0 0 0 0
      FXID {DF350F2F-C9F6-467D-9230-C58442FF84D2}
      WAK 0 0
    >
    <ITEM
      POSITION 0
      LENGTH 74.5878716
      LOOP 0
      ALLTAKES 0
      FADEIN 0 0 0 0 0 0 0
      FADEOUT 0 0 0 0 0 0 0
      MUTE 0 0
      SEL 0
      IGUID {F903B38E-6E44-4CD8-8E0C-D5E50A5F88D7}
      <SOURCE MIDI
        HASDATA 1 480 QN
        CCINTERP 32
        E 0 c1 51
        E 1344 b1 0c 10
        E 0 b1 0b 44
        E 0 91 39 44
        E 32 b1 0b 3b
        E 16 b1 0b 33
        E 16 b1 0b 2a
        E 32 b1 0b 22
        E 16 b1 0b 19
        E 16 b1 0b 11
        E 32 b1 0b 08
        E 32 b1 0b 11
        E 32 b1 0b 19
        E 16 b1 0b 22
        E 16 b1 0b 2a
        E 32 b1 0b 33
        E 16 b1 0b 3b
        E 16 b1 0b 44
        E 320 81 39 00
        E 0 91 35 44
        E 32 b1 0b 3b
        E 16 b1 0b 33
        E 16 b1 0b 2a
        E 32 b1 0b 22
        E 16 b1 0b 19
        E 16 b1 0b 11
        E 32 b1 0b 08
        E 32 b1 0b 11
        E 32 b1 0b 19
        E 16 b1 0b 22
        E 16 b1 0b 2a
        E 32 b1 0b 33
        E 16 b1 0b 3b
        E 16 b1 0b 44
        E 320 81 35 00
        E 0 91 37 44
        E 32 b1 0b 3b
        E 16 b1 0b 33
        E 16 b1 0b 2a
        E 32 b1 0b 22
        E 16 b1 0b 19
        E 16 b1 0b 11
        E 32 b1 0b 08
        E 32 b1 0b 11
        E 32 b1 0b 19
        E 16 b1 0b 22
        E 16 b1 0b 2a
        E 32 b1 0b 33
        E 16 b1 0b 3b
        E 16 b1 0b 44
        E 320 81 37 00
        E 0 91 3a 44
        E 32 b1 0b 3b
        E 16 b1 0b 33
        E 16 b1 0b 2a
        E 32 b1 0b 22
        E 16 b1 0b 19
        E 16 b1 0b 11
        E 32 b1 0b 08
        E 32 b1 0b 11
        E 32 b1 0b 19
        E 16 b1 0b 22
        E 16 b1 0b 2a
        E 32 b1 0b 33
        E 16 b1 0b 3b
        E 16 b1 0b 44
        E 320 81 3a 00
        E 0 91 37 44
        E 32 b1 0b 3b
        E 16 b1 0b 33
        E 16 b1 0b 2a
        E 32 b1 0b 22
        E 16 b1 0b 19
        E 16 b1 0b 11
        E 32 b1 0b 08
        E 32 b1 0b 11
        E 32 b1 0b 19
        E 16 b1 0b 22
        E 16 b1 0b 2a
        E 32 b1 0b 33
        E 16 b1 0b 3b
        E 16 b1 0b 44
        E 320 81 37 00
        E 0 91 34 44
        E 32 b1 0b 3b
        E 16 b1 0b 33
        E 16 b1 0b 2a
        E 32 b1 0b 22
        E 16 b1 0b 19
        E 16 b1 0b 11
        E 32 b1 0b 08
        E 32 b1 0b 11
        E 32 b1 0b 19
        E 16 b1 0b 22
        E 16 b1 0b 2a
        E 32 b1 0b 33
        E 16 b1 0b 3b
        E 16 b1 0b 44
        E 320 81 34 00
        E 0 91 35 44
        E 32 b1 0b 3b
        E 16 b1 0b 33
        E 16 b1 0b 2a
        E 32 b1 0b 22
        E 16 b1 0b 19
        E 16 b1 0b 11
        E 32 b1 0b 08
        E 32 b1 0b 11
        E 32 b1 0b 19
        E 16 b1 0b 22
        E 16 b1 0b 2a
        E 32 b1 0b 33
        E 16 b1 0b 3b
        E 16 b1 0b 44
        E 320 81 35 00
        E 0 91 30 44
        E 32 b1 0b 3b
        E 16 b1 0b 33
        E 16 b1 0b 2a
        E 32 b1 0b 22
        E 16 b1 0b 19
        E 16 b1 0b 11
        E 32 b1 0b 08
        E 32 b1 0b 11
        E 32 b1 0b 19
        E 16 b1 0b 22
        E 16 b1 0b 2a
        E 32 b1 0b 33
        E 16 b1 0b 3b
        E 16 b1 0b 44
        E 320 81 30 00
        E 0 91 35 44
        E 32 b1 0b 3b
        E 16 b1 0b 33
        E 16 b1 0b 2a
        E 32 b1 0b 22
        E 16 b1 0b 19
        E 16 b1 0b 11
        E 32 b1 0b 08
        E 32 b1 0b 11
        E 32 b1 0b 19
        E 16 b1 0b 22
        E 16 b1 0b 2a
        E 32 b1 0b 33
        E 16 b1 0b 3b
        E 16 b1 0b 44
        E 320 81 35 00
        E 0 91 32 44
        E 32 b1 0b 3b
        E 16 b1 0b 33
        E 16 b1 0b 2a
        E 32 b1 0b 22
        E 16 b1 0b 19
        E 16 b1 0b 11
        E 32 b1 0b 08
        E 32 b1 0b 11
        E 32 b1 0b 19
        E 16 b1 0b 22
        E 16 b1 0b 2a
        E 32 b1 0b 33
        E 16 b1 0b 3b
        E 16 b1 0b 44
        E 320 81 32 00
        E 0 91 2f 44
        E 32 b1 0b 3b
        E 16 b1 0b 33
        E 16 b1 0b 2a
        E 32 b1 0b 22
        E 16 b1 0b 19
        E 16 b1 0b 11
        E 32 b1 0b 08
        E 32 b1 0b 11
        E 32 b1 0b 19
        E 16 b1 0b 22
        E 16 b1 0b 2a
        E 32 b1 0b 33
        E 16 b1 0b 3b
        E 16 b1 0b 44
        E 320 81 2f 00
        E 0 91 38 44
        E 32 b1 0b 3b
        E 16 b1 0b 33
        E 16 b1 0b 2a
        E 32 b1 0b 22
        E 16 b1 0b 19
        E 16 b1 0b 11
        E 32 b1 0b 08
        E 32 b1 0b 11
        E 32 b1 0b 19
        E 16 b1 0b 22
        E 16 b1 0b 2a
        E 32 b1 0b 33
        E 16 b1 0b 3b
        E 16 b1 0b 44
        E 320 81 38 00
        E 0 91 39 44
        E 32 b1 0b 3b
        E 16 b1 0b 33
        E 16 b1 0b 2a
        E 32 b1 0b 22
        E 16 b1 0b 19
        E 16 b1 0b 11
        E 32 b1 0b 08
        E 32 b1 0b 11
        E 32 b1 0b 19
        E 16 b1 0b 22
        E 16 b1 0b 2a
        E 32 b1 0b 33
        E 16 b1 0b 3b
        E 16 b1 0b 44
        E 960 81 39 00
        E 0 91 37 44
        E 32 b1 0b 3b
        E 16 b1 0b 33
        E 16 b1 0b 2a
        E 32 b1 0b 22
        E 16 b1 0b 19
        E 16 b1 0b 11
        E 32 b1 0b 08
        E 32 b1 0b 11
        E 32 b1 0b 19
        E 16 b1 0b 22
        E 16 b1 0b 2a
        E 32 b1 0b 33
        E 16 b1 0b 3b
        E 16 b1 0b 44
        E 960 81 37 00
        E 0 91 39 44
        E 32 b1 0b 3b
        E 16 b1 0b 33
        E 16 b1 0b 2a
        E 32 b1 0b 22
        E 16 b1 0b 19
        E 16 b1 0b 11
        E 32 b1 0b 08
        E 32 b1 0b 11
        E 32 b1 0b 19
        E 16 b1 0b 22
        E 16 b1 0b 2a
        E 32 b1 0b 33
        E 16 b1 0b 3b
        E 16 b1 0b 44
        E 320 81 39 00
        E 0 91 35 44
        E 32 b1 0b 3b
        E 16 b1 0b 33
        E 16 b1 0b 2a
        E 32 b1 0b 22
        E 16 b1 0b 19
        E 16 b1 0b 11
        E 32 b1 0b 08
        E 32 b1 0b 11
        E 32 b1 0b 19
        E 16 b1 0b 22
        E 16 b1 0b 2a
        E 32 b1 0b 33
        E 16 b1 0b 3b
        E 16 b1 0b 44
        E 320 81 35 00
        E 0 91 37 44
        E 32 b1 0b 3b
        E 16 b1 0b 33
        E 16 b1 0b 2a
        E 32 b1 0b 22
        E 16 b1 0b 19
        E 16 b1 0b 11
        E 32 b1 0b 08
        E 32 b1 0b 11
        E 32 b1 0b 19
        E 16 b1 0b 22
        E 16 b1 0b 2a
        E 32 b1 0b 33
        E 16 b1 0b 3b
        E 16 b1 0b 44
        E 320 81 37 00
        E 0 91 3a 44
        E 32 b1 0b 3b
        E 16 b1 0b 33
        E 16 b1 0b 2a
        E 32 b1 0b 22
        E 16 b1 0b 19
        E 16 b1 0b 11
        E 32 b1 0b 08
        E 32 b1 0b 11
        E 32 b1 0b 19
        E 16 b1 0b 22
        E 16 b1 0b 2a
        E 32 b1 0b 33
        E 16 b1 0b 3b
        E 16 b1 0b 44
        E 320 81 3a 00
        E 0 91 37 44
        E 32 b1 0b 3b
        E 16 b1 0b 33
        E 16 b1 0b 2a
        E 32 b1 0b 22
        E 16 b1 0b 19
        E 16 b1 0b 11
        E 32 b1 0b 08
        E 32 b1 0b 11
        E 32 b1 0b 19
        E 16 b1 0b 22
        E 16 b1 0b 2a
        E 32 b1 0b 33
        E 16 b1 0b 3b
        E 16 b1 0b 44
        E 320 81 37 00
        E 0 91 34 44
        E 32 b1 0b 3b
        E 16 b1 0b 33
        E 16 b1 0b 2a
        E 32 b1 0b 22
        E 16 b1 0b 19
        E 16 b1 0b 11
        E 32 b1 0b 08
        E 32 b1 0b 11
        E 32 b1 0b 19
        E 16 b1 0b 22
        E 16 b1 0b 2a
        E 32 b1 0b 33
        E 16 b1 0b 3b
        E 16 b1 0b 44
        E 320 81 34 00
        E 0 91 35 44
        E 32 b1 0b 3b
        E 16 b1 0b 33
        E 16 b1 0b 2a
        E 32 b1 0b 22
        E 16 b1 0b 19
        E 16 b1 0b 11
        E 32 b1 0b 08
        E 32 b1 0b 11
        E 32 b1 0b 19
        E 16 b1 0b 22
        E 16 b1 0b 2a
        E 32 b1 0b 33
        E 16 b1 0b 3b
        E 16 b1 0b 44
        E 320 81 35 00
        E 0 91 30 44
        E 32 b1 0b 3b
        E 16 b1 0b 33
        E 16 b1 0b 2a
        E 32 b1 0b 22
        E 16 b1 0b 19
        E 16 b1 0b 11
        E 32 b1 0b 08
        E 32 b1 0b 11
        E 32 b1 0b 19
        E 16 b1 0b 22
        E 16 b1 0b 2a
        E 32 b1 0b 33
        E 16 b1 0b 3b
        E 16 b1 0b 44
        E 320 81 30 00
        E 0 91 35 44
        E 32 b1 0b 3b
        E 16 b1 0b 33
        E 16 b1 0b 2a
        E 32 b1 0b 22
        E 16 b1 0b 19
        E 16 b1 0b 11
        E 32 b1 0b 08
        E 32 b1 0b 11
        E 32 b1 0b 19
        E 16 b1 0b 22
        E 16 b1 0b 2a
        E 32 b1 0b 33
        E 16 b1 0b 3b
        E 16 b1 0b 44
        E 320 81 35 00
        E 0 91 39 44
        E 32 b1 0b 3b
        E 16 b1 0b 33
        E 16 b1 0b 2a
        E 32 b1 0b 22
        E 16 b1 0b 19
        E 16 b1 0b 11
        E 32 b1 0b 08
        E 32 b1 0b 11
        E 32 b1 0b 19
        E 16 b1 0b 22
        E 16 b1 0b 2a
        E 32 b1 0b 33
        E 16 b1 0b 3b
        E 16 b1 0b 44
        E 320 81 39 00
        E 0 91 37 44
        E 32 b1 0b 3b
        E 16 b1 0b 33
        E 16 b1 0b 2a
        E 32 b1 0b 22
        E 16 b1 0b 19
        E 16 b1 0b 11
        E 32 b1 0b 08
        E 32 b1 0b 11
        E 32 b1 0b 19
        E 16 b1 0b 22
        E 16 b1 0b 2a
        E 32 b1 0b 33
        E 16 b1 0b 3b
        E 16 b1 0b 44
        E 320 81 37 00
        E 0 91 34 44
        E 32 b1 0b 3b
        E 16 b1 0b 33
        E 16 b1 0b 2a
        E 32 b1 0b 22
        E 16 b1 0b 19
        E 16 b1 0b 11
        E 32 b1 0b 08
        E 32 b1 0b 11
        E 32 b1 0b 19
        E 16 b1 0b 22
        E 16 b1 0b 2a
        E 32 b1 0b 33
        E 16 b1 0b 3b
        E 16 b1 0b 44
        E 320 81 34 00
        E 0 91 35 44
        E 32 b1 0b 3b
        E 16 b1 0b 33
        E 16 b1 0b 2a
        E 32 b1 0b 22
        E 16 b1 0b 19
        E 16 b1 0b 11
        E 32 b1 0b 08
        E 32 b1 0b 11
        E 32 b1 0b 19
        E 16 b1 0b 22
        E 16 b1 0b 2a
        E 32 b1 0b 33
        E 16 b1 0b 3b
        E 16 b1 0b 44
        E 2240 81 35 00
        E 0 91 39 44
        E 32 b1 0b 3b
        E 16 b1 0b 33
        E 16 b1 0b 2a
        E 32 b1 0b 22
        E 16 b1 0b 19
        E 16 b1 0b 11
        E 32 b1 0b 08
        E 32 b1 0b 11
        E 32 b1 0b 19
        E 16 b1 0b 22
        E 16 b1 0b 2a
        E 32 b1 0b 33
        E 16 b1 0b 3b
        E 16 b1 0b 44
        E 320 81 39 00
        E 0 91 35 44
        E 32 b1 0b 3b
        E 16 b1 0b 33
        E 16 b1 0b 2a
        E 32 b1 0b 22
        E 16 b1 0b 19
        E 16 b1 0b 11
        E 32 b1 0b 08
        E 32 b1 0b 11
        E 32 b1 0b 19
        E 16 b1 0b 22
        E 16 b1 0b 2a
        E 32 b1 0b 33
        E 16 b1 0b 3b
        E 16 b1 0b 44
        E 320 81 35 00
        E 0 91 37 44
        E 32 b1 0b 3b
        E 16 b1 0b 33
        E 16 b1 0b 2a
        E 32 b1 0b 22
        E 16 b1 0b 19
        E 16 b1 0b 11
        E 32 b1 0b 08
        E 32 b1 0b 11
        E 32 b1 0b 19
        E 16 b1 0b 22
        E 16 b1 0b 2a
        E 32 b1 0b 33
        E 16 b1 0b 3b
        E 16 b1 0b 44
        E 320 81 37 00
        E 0 91 3a 44
        E 32 b1 0b 3b
        E 16 b1 0b 33
        E 16 b1 0b 2a
        E 32 b1 0b 22
        E 16 b1 0b 19
        E 16 b1 0b 11
        E 32 b1 0b 08
        E 32 b1 0b 11
        E 32 b1 0b 19
        E 16 b1 0b 22
        E 16 b1 0b 2a
        E 32 b1 0b 33
        E 16 b1 0b 3b
        E 16 b1 0b 44
        E 320 81 3a 00
        E 0 91 37 44
        E 32 b1 0b 3b
        E 16 b1 0b 33
        E 16 b1 0b 2a
        E 32 b1 0b 22
        E 16 b1 0b 19
        E 16 b1 0b 11
        E 32 b1 0b 08
        E 32 b1 0b 11
        E 32 b1 0b 19
        E 16 b1 0b 22
        E 16 b1 0b 2a
        E 32 b1 0b 33
        E 16 b1 0b 3b
        E 16 b1 0b 44
        E 320 81 37 00
        E 0 91 34 44
        E 32 b1 0b 3b
        E 16 b1 0b 33
        E 16 b1 0b 2a
        E 32 b1 0b 22
        E 16 b1 0b 19
        E 16 b1 0b 11
        E 32 b1 0b 08
        E 32 b1 0b 11
        E 32 b1 0b 19
        E 16 b1 0b 22
        E 16 b1 0b 2a
        E 32 b1 0b 33
        E 16 b1 0b 3b
        E 16 b1 0b 44
        E 320 81 34 00
        E 0 91 35 44
        E 32 b1 0b 3b
        E 16 b1 0b 33
        E 16 b1 0b 2a
        E 32 b1 0b 22
        E 16 b1 0b 19
        E 16 b1 0b 11
        E 32 b1 0b 08
        E 32 b1 0b 11
        E 32 b1 0b 19
        E 16 b1 0b 22
        E 16 b1 0b 2a
        E 32 b1 0b 33
        E 16 b1 0b 3b
        E 16 b1 0b 44
        E 320 81 35 00
        E 0 91 30 44
        E 32 b1 0b 3b
        E 16 b1 0b 33
        E 16 b1 0b 2a
        E 32 b1 0b 22
        E 16 b1 0b 19
        E 16 b1 0b 11
        E 32 b1 0b 08
        E 32 b1 0b 11
        E 32 b1 0b 19
        E 16 b1 0b 22
        E 16 b1 0b 2a
        E 32 b1 0b 33
        E 16 b1 0b 3b
        E 16 b1 0b 44
        E 320 81 30 00
        E 0 91 35 44
        E 32 b1 0b 3b
        E 16 b1 0b 33
        E 16 b1 0b 2a
        E 32 b1 0b 22
        E 16 b1 0b 19
        E 16 b1 0b 11
        E 32 b1 0b 08
        E 32 b1 0b 11
        E 32 b1 0b 19
        E 16 b1 0b 22
        E 16 b1 0b 2a
        E 32 b1 0b 33
        E 16 b1 0b 3b
        E 16 b1 0b 44
        E 320 81 35 00
        E 0 91 32 44
        E 32 b1 0b 3b
        E 16 b1 0b 33
        E 16 b1 0b 2a
        E 32 b1 0b 22
        E 16 b1 0b 19
        E 16 b1 0b 11
        E 32 b1 0b 08
        E 32 b1 0b 11
        E 32 b1 0b 19
        E 16 b1 0b 22
        E 16 b1 0b 2a
        E 32 b1 0b 33
        E 16 b1 0b 3b
        E 16 b1 0b 44
        E 320 81 32 00
        E 0 91 2f 44
        E 32 b1 0b 3b
        E 16 b1 0b 33
        E 16 b1 0b 2a
        E 32 b1 0b 22
        E 16 b1 0b 19
        E 16 b1 0b 11
        E 32 b1 0b 08
        E 32 b1 0b 11
        E 32 b1 0b 19
        E 16 b1 0b 22
        E 16 b1 0b 2a
        E 32 b1 0b 33
        E 16 b1 0b 3b
        E 16 b1 0b 44
        E 320 81 2f 00
        E 0 91 38 44
        E 32 b1 0b 3b
        E 16 b1 0b 33
        E 16 b1 0b 2a
        E 32 b1 0b 22
        E 16 b1 0b 19
        E 16 b1 0b 11
        E 32 b1 0b 08
        E 32 b1 0b 11
        E 32 b1 0b 19
        E 16 b1 0b 22
        E 16 b1 0b 2a
        E 32 b1 0b 33
        E 16 b1 0b 3b
        E 16 b1 0b 44
        E 320 81 38 00
        E 0 91 39 44
        E 32 b1 0b 3b
        E 16 b1 0b 33
        E 16 b1 0b 2a
        E 32 b1 0b 22
        E 16 b1 0b 19
        E 16 b1 0b 11
        E 32 b1 0b 08
        E 32 b1 0b 11
        E 32 b1 0b 19
        E 16 b1 0b 22
        E 16 b1 0b 2a
        E 32 b1 0b 33
        E 16 b1 0b 3b
        E 16 b1 0b 44
        E 960 81 39 00
        E 0 91 37 44
        E 32 b1 0b 3b
        E 16 b1 0b 33
        E 16 b1 0b 2a
        E 32 b1 0b 22
        E 16 b1 0b 19
        E 16 b1 0b 11
        E 32 b1 0b 08
        E 32 b1 0b 11
        E 32 b1 0b 19
        E 16 b1 0b 22
        E 16 b1 0b 2a
        E 32 b1 0b 33
        E 16 b1 0b 3b
        E 16 b1 0b 44
        E 960 81 37 00
        E 0 91 39 44
        E 32 b1 0b 3b
        E 16 b1 0b 33
        E 16 b1 0b 2a
        E 32 b1 0b 22
        E 16 b1 0b 19
        E 16 b1 0b 11
        E 32 b1 0b 08
        E 32 b1 0b 11
        E 32 b1 0b 19
        E 16 b1 0b 22
        E 16 b1 0b 2a
        E 32 b1 0b 33
        E 16 b1 0b 3b
        E 16 b1 0b 44
        E 320 81 39 00
        E 0 91 35 44
        E 32 b1 0b 3b
        E 16 b1 0b 33
        E 16 b1 0b 2a
        E 32 b1 0b 22
        E 16 b1 0b 19
        E 16 b1 0b 11
        E 32 b1 0b 08
        E 32 b1 0b 11
        E 32 b1 0b 19
        E 16 b1 0b 22
        E 16 b1 0b 2a
        E 32 b1 0b 33
        E 16 b1 0b 3b
        E 16 b1 0b 44
        E 320 81 35 00
        E 0 91 37 44
        E 32 b1 0b 3b
        E 16 b1 0b 33
        E 16 b1 0b 2a
        E 32 b1 0b 22
        E 16 b1 0b 19
        E 16 b1 0b 11
        E 32 b1 0b 08
        E 32 b1 0b 11
        E 32 b1 0b 19
        E 16 b1 0b 22
        E 16 b1 0b 2a
        E 32 b1 0b 33
        E 16 b1 0b 3b
        E 16 b1 0b 44
        E 320 81 37 00
        E 0 91 3a 44
        E 32 b1 0b 3b
        E 16 b1 0b 33
        E 16 b1 0b 2a
        E 32 b1 0b 22
        E 16 b1 0b 19
        E 16 b1 0b 11
        E 32 b1 0b 08
        E 32 b1 0b 11
        E 32 b1 0b 19
        E 16 b1 0b 22
        E 16 b1 0b 2a
        E 32 b1 0b 33
        E 16 b1 0b 3b
        E 16 b1 0b 44
        E 320 81 3a 00
        E 0 91 37 44
        E 32 b1 0b 3b
        E 16 b1 0b 33
        E 16 b1 0b 2a
        E 32 b1 0b 22
        E 16 b1 0b 19
        E 16 b1 0b 11
        E 32 b1 0b 08
        E 32 b1 0b 11
        E 32 b1 0b 19
        E 16 b1 0b 22
        E 16 b1 0b 2a
        E 32 b1 0b 33
        E 16 b1 0b 3b
        E 16 b1 0b 44
        E 320 81 37 00
        E 0 91 34 44
        E 32 b1 0b 3b
        E 16 b1 0b 33
        E 16 b1 0b 2a
        E 32 b1 0b 22
        E 16 b1 0b 19
        E 16 b1 0b 11
        E 32 b1 0b 08
        E 32 b1 0b 11
        E 32 b1 0b 19
        E 16 b1 0b 22
        E 16 b1 0b 2a
        E 32 b1 0b 33
        E 16 b1 0b 3b
        E 16 b1 0b 44
        E 320 81 34 00
        E 0 91 35 44
        E 32 b1 0b 3b
        E 16 b1 0b 33
        E 16 b1 0b 2a
        E 32 b1 0b 22
        E 16 b1 0b 19
        E 16 b1 0b 11
        E 32 b1 0b 08
        E 32 b1 0b 11
        E 32 b1 0b 19
        E 16 b1 0b 22
        E 16 b1 0b 2a
        E 32 b1 0b 33
        E 16 b1 0b 3b
        E 16 b1 0b 44
        E 320 81 35 00
        E 0 91 30 44
        E 32 b1 0b 3b
        E 16 b1 0b 33
        E 16 b1 0b 2a
        E 32 b1 0b 22
        E 16 b1 0b 19
        E 16 b1 0b 11
        E 32 b1 0b 08
        E 32 b1 0b 11
        E 32 b1 0b 19
        E 16 b1 0b 22
        E 16 b1 0b 2a
        E 32 b1 0b 33
        E 16 b1 0b 3b
        E 16 b1 0b 44
        E 320 81 30 00
        E 0 91 35 44
        E 32 b1 0b 3b
        E 16 b1 0b 33
        E 16 b1 0b 2a
        E 32 b1 0b 22
        E 16 b1 0b 19
        E 16 b1 0b 11
        E 32 b1 0b 08
        E 32 b1 0b 11
        E 32 b1 0b 19
        E 16 b1 0b 22
        E 16 b1 0b 2a
        E 32 b1 0b 33
        E 16 b1 0b 3b
        E 16 b1 0b 44
        E 320 81 35 00
        E 0 91 39 44
        E 32 b1 0b 3b
        E 16 b1 0b 33
        E 16 b1 0b 2a
        E 32 b1 0b 22
        E 16 b1 0b 19
        E 16 b1 0b 11
        E 32 b1 0b 08
        E 32 b1 0b 11
        E 32 b1 0b 19
        E 16 b1 0b 22
        E 16 b1 0b 2a
        E 32 b1 0b 33
        E 16 b1 0b 3b
        E 16 b1 0b 44
        E 320 81 39 00
        E 0 91 37 44
        E 32 b1 0b 3b
        E 16 b1 0b 33
        E 16 b1 0b 2a
        E 32 b1 0b 22
        E 16 b1 0b 19
        E 16 b1 0b 11
        E 32 b1 0b 08
        E 32 b1 0b 11
        E 32 b1 0b 19
        E 16 b1 0b 22
        E 16 b1 0b 2a
        E 32 b1 0b 33
        E 16 b1 0b 3b
        E 16 b1 0b 44
        E 320 81 37 00
        E 0 91 34 44
        E 32 b1 0b 3b
        E 16 b1 0b 33
        E 16 b1 0b 2a
        E 32 b1 0b 22
        E 16 b1 0b 19
        E 16 b1 0b 11
        E 32 b1 0b 08
        E 32 b1 0b 11
        E 32 b1 0b 19
        E 16 b1 0b 22
        E 16 b1 0b 2a
        E 32 b1 0b 33
        E 16 b1 0b 3b
        E 16 b1 0b 44
        E 320 81 34 00
        E 0 91 35 44
        E 32 b1 0b 3b
        E 16 b1 0b 33
        E 16 b1 0b 2a
        E 32 b1 0b 22
        E 16 b1 0b 19
        E 16 b1 0b 11
        E 32 b1 0b 08
        E 32 b1 0b 11
        E 32 b1 0b 19
        E 16 b1 0b 22
        E 16 b1 0b 2a
        E 32 b1 0b 33
        E 16 b1 0b 3b
        E 16 b1 0b 44
        E 2240 81 35 00
        E 0 91 39 44
        E 32 b1 0b 3b
        E 16 b1 0b 33
        E 16 b1 0b 2a
        E 32 b1 0b 22
        E 16 b1 0b 19
        E 16 b1 0b 11
        E 32 b1 0b 08
        E 32 b1 0b 11
        E 32 b1 0b 19
        E 16 b1 0b 22
        E 16 b1 0b 2a
        E 32 b1 0b 33
        E 16 b1 0b 3b
        E 16 b1 0b 44
        E 320 81 39 00
        E 0 91 35 44
        E 32 b1 0b 3b
        E 16 b1 0b 33
        E 16 b1 0b 2a
        E 32 b1 0b 22
        E 16 b1 0b 19
        E 16 b1 0b 11
        E 32 b1 0b 08
        E 32 b1 0b 11
        E 32 b1 0b 19
        E 16 b1 0b 22
        E 16 b1 0b 2a
        E 32 b1 0b 33
        E 16 b1 0b 3b
        E 16 b1 0b 44
        E 320 81 35 00
        E 0 91 37 44
        E 32 b1 0b 3b
        E 16 b1 0b 33
        E 16 b1 0b 2a
        E 32 b1 0b 22
        E 16 b1 0b 19
        E 16 b1 0b 11
        E 32 b1 0b 08
        E 32 b1 0b 11
        E 32 b1 0b 19
        E 16 b1 0b 22
        E 16 b1 0b 2a
        E 32 b1 0b 33
        E 16 b1 0b 3b
        E 16 b1 0b 44
        E 320 81 37 00
        E 0 91 3a 44
        E 32 b1 0b 3b
        E 16 b1 0b 33
        E 16 b1 0b 2a
        E 32 b1 0b 22
        E 16 b1 0b 19
        E 16 b1 0b 11
        E 32 b1 0b 08
        E 32 b1 0b 11
        E 32 b1 0b 19
        E 16 b1 0b 22
        E 16 b1 0b 2a
        E 32 b1 0b 33
        E 16 b1 0b 3b
        E 16 b1 0b 44
        E 320 81 3a 00
        E 0 91 37 44
        E 32 b1 0b 3b
        E 16 b1 0b 33
        E 16 b1 0b 2a
        E 32 b1 0b 22
        E 16 b1 0b 19
        E 16 b1 0b 11
        E 32 b1 0b 08
        E 32 b1 0b 11
        E 32 b1 0b 19
        E 16 b1 0b 22
        E 16 b1 0b 2a
        E 32 b1 0b 33
        E 16 b1 0b 3b
        E 16 b1 0b 44
        E 320 81 37 00
        E 0 91 34 44
        E 32 b1 0b 3b
        E 16 b1 0b 33
        E 16 b1 0b 2a
        E 32 b1 0b 22
        E 16 b1 0b 19
        E 16 b1 0b 11
        E 32 b1 0b 08
        E 32 b1 0b 11
        E 32 b1 0b 19
        E 16 b1 0b 22
        E 16 b1 0b 2a
        E 32 b1 0b 33
        E 16 b1 0b 3b
        E 16 b1 0b 44
        E 320 81 34 00
        E 0 91 35 44
        E 32 b1 0b 3b
        E 16 b1 0b 33
        E 16 b1 0b 2a
        E 32 b1 0b 22
        E 16 b1 0b 19
        E 16 b1 0b 11
        E 32 b1 0b 08
        E 32 b1 0b 11
        E 32 b1 0b 19
        E 16 b1 0b 22
        E 16 b1 0b 2a
        E 32 b1 0b 33
        E 16 b1 0b 3b
        E 16 b1 0b 44
        E 320 81 35 00
        E 0 91 30 44
        E 32 b1 0b 3b
        E 16 b1 0b 33
        E 16 b1 0b 2a
        E 32 b1 0b 22
        E 16 b1 0b 19
        E 16 b1 0b 11
        E 32 b1 0b 08
        E 32 b1 0b 11
        E 32 b1 0b 19
        E 16 b1 0b 22
        E 16 b1 0b 2a
        E 32 b1 0b 33
        E 16 b1 0b 3b
        E 16 b1 0b 44
        E 320 81 30 00
        E 0 91 35 44
        E 32 b1 0b 3b
        E 16 b1 0b 33
        E 16 b1 0b 2a
        E 32 b1 0b 22
        E 16 b1 0b 19
        E 16 b1 0b 11
        E 32 b1 0b 08
        E 32 b1 0b 11
        E 32 b1 0b 19
        E 16 b1 0b 22
        E 16 b1 0b 2a
        E 32 b1 0b 33
        E 16 b1 0b 3b
        E 16 b1 0b 44
        E 320 81 35 00
        E 0 91 32 44
        E 32 b1 0b 3b
        E 16 b1 0b 33
        E 16 b1 0b 2a
        E 32 b1 0b 22
        E 16 b1 0b 19
        E 16 b1 0b 11
        E 32 b1 0b 08
        E 32 b1 0b 11
        E 32 b1 0b 19
        E 16 b1 0b 22
        E 16 b1 0b 2a
        E 32 b1 0b 33
        E 16 b1 0b 3b
        E 16 b1 0b 44
        E 320 81 32 00
        E 0 91 2f 44
        E 32 b1 0b 3b
        E 16 b1 0b 33
        E 16 b1 0b 2a
        E 32 b1 0b 22
        E 16 b1 0b 19
        E 16 b1 0b 11
        E 32 b1 0b 08
        E 32 b1 0b 11
        E 32 b1 0b 19
        E 16 b1 0b 22
        E 16 b1 0b 2a
        E 32 b1 0b 33
        E 16 b1 0b 3b
        E 16 b1 0b 44
        E 320 81 2f 00
        E 0 91 38 44
        E 32 b1 0b 3b
        E 16 b1 0b 33
        E 16 b1 0b 2a
        E 32 b1 0b 22
        E 16 b1 0b 19
        E 16 b1 0b 11
        E 32 b1 0b 08
        E 32 b1 0b 11
        E 32 b1 0b 19
        E 16 b1 0b 22
        E 16 b1 0b 2a
        E 32 b1 0b 33
        E 16 b1 0b 3b
        E 16 b1 0b 44
        E 320 81 38 00
        E 0 91 39 44
        E 32 b1 0b 3b
        E 16 b1 0b 33
        E 16 b1 0b 2a
        E 32 b1 0b 22
        E 16 b1 0b 19
        E 16 b1 0b 11
        E 32 b1 0b 08
        E 32 b1 0b 11
        E 32 b1 0b 19
        E 16 b1 0b 22
        E 16 b1 0b 2a
        E 32 b1 0b 33
        E 16 b1 0b 3b
        E 16 b1 0b 44
        E 960 81 39 00
        E 0 91 37 44
        E 32 b1 0b 3b
        E 16 b1 0b 33
        E 16 b1 0b 2a
        E 32 b1 0b 22
        E 16 b1 0b 19
        E 16 b1 0b 11
        E 32 b1 0b 08
        E 32 b1 0b 11
        E 32 b1 0b 19
        E 16 b1 0b 22
        E 16 b1 0b 2a
        E 32 b1 0b 33
        E 16 b1 0b 3b
        E 16 b1 0b 44
        E 960 81 37 00
        E 0 91 39 44
        E 32 b1 0b 3b
        E 16 b1 0b 33
        E 16 b1 0b 2a
        E 32 b1 0b 22
        E 16 b1 0b 19
        E 16 b1 0b 11
        E 32 b1 0b 08
        E 32 b1 0b 11
        E 32 b1 0b 19
        E 16 b1 0b 22
        E 16 b1 0b 2a
        E 32 b1 0b 33
        E 16 b1 0b 3b
        E 16 b1 0b 44
        E 320 81 39 00
        E 0 91 35 44
        E 32 b1 0b 3b
        E 16 b1 0b 33
        E 16 b1 0b 2a
        E 32 b1 0b 22
        E 16 b1 0b 19
        E 16 b1 0b 11
        E 32 b1 0b 08
        E 32 b1 0b 11
        E 32 b1 0b 19
        E 16 b1 0b 22
        E 16 b1 0b 2a
        E 32 b1 0b 33
        E 16 b1 0b 3b
        E 16 b1 0b 44
        E 320 81 35 00
        E 0 91 37 44
        E 32 b1 0b 3b
        E 16 b1 0b 33
        E 16 b1 0b 2a
        E 32 b1 0b 22
        E 16 b1 0b 19
        E 16 b1 0b 11
        E 32 b1 0b 08
        E 32 b1 0b 11
        E 32 b1 0b 19
        E 16 b1 0b 22
        E 16 b1 0b 2a
        E 32 b1 0b 33
        E 16 b1 0b 3b
        E 16 b1 0b 44
        E 320 81 37 00
        E 0 91 3a 44
        E 32 b1 0b 3b
        E 16 b1 0b 33
        E 16 b1 0b 2a
        E 32 b1 0b 22
        E 16 b1 0b 19
        E 16 b1 0b 11
        E 32 b1 0b 08
        E 32 b1 0b 11
        E 32 b1 0b 19
        E 16 b1 0b 22
        E 16 b1 0b 2a
        E 32 b1 0b 33
        E 16 b1 0b 3b
        E 16 b1 0b 44
        E 320 81 3a 00
        E 0 91 37 44
        E 32 b1 0b 3b
        E 16 b1 0b 33
        E 16 b1 0b 2a
        E 32 b1 0b 22
        E 16 b1 0b 19
        E 16 b1 0b 11
        E 32 b1 0b 08
        E 32 b1 0b 11
        E 32 b1 0b 19
        E 16 b1 0b 22
        E 16 b1 0b 2a
        E 32 b1 0b 33
        E 16 b1 0b 3b
        E 16 b1 0b 44
        E 320 81 37 00
        E 0 91 34 44
        E 32 b1 0b 3b
        E 16 b1 0b 33
        E 16 b1 0b 2a
        E 32 b1 0b 22
        E 16 b1 0b 19
        E 16 b1 0b 11
        E 32 b1 0b 08
        E 32 b1 0b 11
        E 32 b1 0b 19
        E 16 b1 0b 22
        E 16 b1 0b 2a
        E 32 b1 0b 33
        E 16 b1 0b 3b
        E 16 b1 0b 44
        E 320 81 34 00
        E 0 91 35 44
        E 32 b1 0b 3b
        E 16 b1 0b 33
        E 16 b1 0b 2a
        E 32 b1 0b 22
        E 16 b1 0b 19
        E 16 b1 0b 11
        E 32 b1 0b 08
        E 32 b1 0b 11
        E 32 b1 0b 19
        E 16 b1 0b 22
        E 16 b1 0b 2a
        E 32 b1 0b 33
        E 16 b1 0b 3b
        E 16 b1 0b 44
        E 320 81 35 00
        E 0 91 30 44
        E 32 b1 0b 3b
        E 16 b1 0b 33
        E 16 b1 0b 2a
        E 32 b1 0b 22
        E 16 b1 0b 19
        E 16 b1 0b 11
        E 32 b1 0b 08
        E 32 b1 0b 11
        E 32 b1 0b 19
        E 16 b1 0b 22
        E 16 b1 0b 2a
        E 32 b1 0b 33
        E 16 b1 0b 3b
        E 16 b1 0b 44
        E 320 81 30 00
        E 0 91 35 44
        E 32 b1 0b 3b
        E 16 b1 0b 33
        E 16 b1 0b 2a
        E 32 b1 0b 22
        E 16 b1 0b 19
        E 16 b1 0b 11
        E 32 b1 0b 08
        E 32 b1 0b 11
        E 32 b1 0b 19
        E 16 b1 0b 22
        E 16 b1 0b 2a
        E 32 b1 0b 33
        E 16 b1 0b 3b
        E 16 b1 0b 44
        E 320 81 35 00
        E 0 91 39 44
        E 32 b1 0b 3b
        E 16 b1 0b 33
        E 16 b1 0b 2a
        E 32 b1 0b 22
        E 16 b1 0b 19
        E 16 b1 0b 11
        E 32 b1 0b 08
        E 32 b1 0b 11
        E 32 b1 0b 19
        E 16 b1 0b 22
        E 16 b1 0b 2a
        E 32 b1 0b 33
        E 16 b1 0b 3b
        E 16 b1 0b 44
        E 320 81 39 00
        E 0 91 37 44
        E 32 b1 0b 3b
        E 16 b1 0b 33
        E 16 b1 0b 2a
        E 32 b1 0b 22
        E 16 b1 0b 19
        E 16 b1 0b 11
        E 32 b1 0b 08
        E 32 b1 0b 11
        E 32 b1 0b 19
        E 16 b1 0b 22
        E 16 b1 0b 2a
        E 32 b1 0b 33
        E 16 b1 0b 3b
        E 16 b1 0b 44
        E 320 81 37 00
        E 0 91 34 44
        E 32 b1 0b 3b
        E 16 b1 0b 33
        E 16 b1 0b 2a
        E 32 b1 0b 22
        E 16 b1 0b 19
        E 16 b1 0b 11
        E 32 b1 0b 08
        E 32 b1 0b 11
        E 32 b1 0b 19
        E 16 b1 0b 22
        E 16 b1 0b 2a
        E 32 b1 0b 33
        E 16 b1 0b 3b
        E 16 b1 0b 44
        E 320 81 34 00
        E 0 91 35 44
        E 32 b1 0b 3b
        E 16 b1 0b 33
        E 16 b1 0b 2a
        E 32 b1 0b 22
        E 16 b1 0b 19
        E 16 b1 0b 11
        E 32 b1 0b 08
        E 32 b1 0b 11
        E 32 b1 0b 19
        E 16 b1 0b 22
        E 16 b1 0b 2a
        E 32 b1 0b 33
        E 16 b1 0b 3b
        E 16 b1 0b 44
        E 2240 81 35 00
        E 0 91 39 44
        E 32 b1 0b 3b
        E 16 b1 0b 33
        E 16 b1 0b 2a
        E 32 b1 0b 22
        E 16 b1 0b 19
        E 16 b1 0b 11
        E 32 b1 0b 08
        E 32 b1 0b 11
        E 32 b1 0b 19
        E 16 b1 0b 22
        E 16 b1 0b 2a
        E 32 b1 0b 33
        E 16 b1 0b 3b
        E 16 b1 0b 44
        E 320 81 39 00
        E 0 91 35 44
        E 32 b1 0b 3b
        E 16 b1 0b 33
        E 16 b1 0b 2a
        E 32 b1 0b 22
        E 16 b1 0b 19
        E 16 b1 0b 11
        E 32 b1 0b 08
        E 32 b1 0b 11
        E 32 b1 0b 19
        E 16 b1 0b 22
        E 16 b1 0b 2a
        E 32 b1 0b 33
        E 16 b1 0b 3b
        E 16 b1 0b 44
        E 320 81 35 00
        E 0 91 37 44
        E 32 b1 0b 3b
        E 16 b1 0b 33
        E 16 b1 0b 2a
        E 32 b1 0b 22
        E 16 b1 0b 19
        E 16 b1 0b 11
        E 32 b1 0b 08
        E 32 b1 0b 11
        E 32 b1 0b 19
        E 16 b1 0b 22
        E 16 b1 0b 2a
        E 32 b1 0b 33
        E 16 b1 0b 3b
        E 16 b1 0b 44
        E 320 81 37 00
        E 0 91 3a 44
        E 32 b1 0b 3b
        E 16 b1 0b 33
        E 16 b1 0b 2a
        E 32 b1 0b 22
        E 16 b1 0b 19
        E 16 b1 0b 11
        E 32 b1 0b 08
        E 32 b1 0b 11
        E 32 b1 0b 19
        E 16 b1 0b 22
        E 16 b1 0b 2a
        E 32 b1 0b 33
        E 16 b1 0b 3b
        E 16 b1 0b 44
        E 320 81 3a 00
        E 0 91 37 44
        E 32 b1 0b 3b
        E 16 b1 0b 33
        E 16 b1 0b 2a
        E 32 b1 0b 22
        E 16 b1 0b 19
        E 16 b1 0b 11
        E 32 b1 0b 08
        E 32 b1 0b 11
        E 32 b1 0b 19
        E 16 b1 0b 22
        E 16 b1 0b 2a
        E 32 b1 0b 33
        E 16 b1 0b 3b
        E 16 b1 0b 44
        E 320 81 37 00
        E 0 91 34 44
        E 32 b1 0b 3b
        E 16 b1 0b 33
        E 16 b1 0b 2a
        E 32 b1 0b 22
        E 16 b1 0b 19
        E 16 b1 0b 11
        E 32 b1 0b 08
        E 32 b1 0b 11
        E 32 b1 0b 19
        E 16 b1 0b 22
        E 16 b1 0b 2a
        E 32 b1 0b 33
        E 16 b1 0b 3b
        E 16 b1 0b 44
        E 320 81 34 00
        E 0 91 35 44
        E 32 b1 0b 3b
        E 16 b1 0b 33
        E 16 b1 0b 2a
        E 32 b1 0b 22
        E 16 b1 0b 19
        E 16 b1 0b 11
        E 32 b1 0b 08
        E 32 b1 0b 11
        E 32 b1 0b 19
        E 16 b1 0b 22
        E 16 b1 0b 2a
        E 32 b1 0b 33
        E 16 b1 0b 3b
        E 16 b1 0b 44
        E 320 81 35 00
        E 0 91 30 44
        E 32 b1 0b 3b
        E 16 b1 0b 33
        E 16 b1 0b 2a
        E 32 b1 0b 22
        E 16 b1 0b 19
        E 16 b1 0b 11
        E 32 b1 0b 08
        E 32 b1 0b 11
        E 32 b1 0b 19
        E 16 b1 0b 22
        E 16 b1 0b 2a
        E 32 b1 0b 33
        E 16 b1 0b 3b
        E 16 b1 0b 44
        E 320 81 30 00
        E 0 91 35 44
        E 32 b1 0b 3b
        E 16 b1 0b 33
        E 16 b1 0b 2a
        E 32 b1 0b 22
        E 16 b1 0b 19
        E 16 b1 0b 11
        E 32 b1 0b 08
        E 32 b1 0b 11
        E 32 b1 0b 19
        E 16 b1 0b 22
        E 16 b1 0b 2a
        E 32 b1 0b 33
        E 16 b1 0b 3b
        E 16 b1 0b 44
        E 320 81 35 00
        E 0 91 32 44
        E 32 b1 0b 3b
        E 16 b1 0b 33
        E 16 b1 0b 2a
        E 32 b1 0b 22
        E 16 b1 0b 19
        E 16 b1 0b 11
        E 32 b1 0b 08
        E 32 b1 0b 11
        E 32 b1 0b 19
        E 16 b1 0b 22
        E 16 b1 0b 2a
        E 32 b1 0b 33
        E 16 b1 0b 3b
        E 16 b1 0b 44
        E 320 81 32 00
        E 0 91 2f 44
        E 32 b1 0b 3b
        E 16 b1 0b 33
        E 16 b1 0b 2a
        E 32 b1 0b 22
        E 16 b1 0b 19
        E 16 b1 0b 11
        E 32 b1 0b 08
        E 32 b1 0b 11
        E 32 b1 0b 19
        E 16 b1 0b 22
        E 16 b1 0b 2a
        E 32 b1 0b 33
        E 16 b1 0b 3b
        E 16 b1 0b 44
        E 320 81 2f 00
        E 0 91 38 44
        E 32 b1 0b 3b
        E 16 b1 0b 33
        E 16 b1 0b 2a
        E 32 b1 0b 22
        E 16 b1 0b 19
        E 16 b1 0b 11
        E 32 b1 0b 08
        E 32 b1 0b 11
        E 32 b1 0b 19
        E 16 b1 0b 22
        E 16 b1 0b 2a
        E 32 b1 0b 33
        E 16 b1 0b 3b
        E 16 b1 0b 44
        E 320 81 38 00
        E 0 91 39 44
        E 32 b1 0b 3b
        E 16 b1 0b 33
        E 16 b1 0b 2a
        E 32 b1 0b 22
        E 16 b1 0b 19
        E 16 b1 0b 11
        E 32 b1 0b 08
        E 32 b1 0b 11
        E 32 b1 0b 19
        E 16 b1 0b 22
        E 16 b1 0b 2a
        E 32 b1 0b 33
        E 16 b1 0b 3b
        E 16 b1 0b 44
        E 960 81 39 00
        E 0 91 37 44
        E 32 b1 0b 3b
        E 16 b1 0b 33
        E 16 b1 0b 2a
        E 32 b1 0b 22
        E 16 b1 0b 19
        E 16 b1 0b 11
        E 32 b1 0b 08
        E 32 b1 0b 11
        E 32 b1 0b 19
        E 16 b1 0b 22
        E 16 b1 0b 2a
        E 32 b1 0b 33
        E 16 b1 0b 3b
        E 16 b1 0b 44
        E 960 81 37 00
        E 0 91 39 44
        E 32 b1 0b 3b
        E 16 b1 0b 33
        E 16 b1 0b 2a
        E 32 b1 0b 22
        E 16 b1 0b 19
        E 16 b1 0b 11
        E 32 b1 0b 08
        E 32 b1 0b 11
        E 32 b1 0b 19
        E 16 b1 0b 22
        E 16 b1 0b 2a
        E 32 b1 0b 33
        E 16 b1 0b 3b
        E 16 b1 0b 44
        E 320 81 39 00
        E 0 91 35 44
        E 32 b1 0b 3b
        E 16 b1 0b 33
        E 16 b1 0b 2a
        E 32 b1 0b 22
        E 16 b1 0b 19
        E 16 b1 0b 11
        E 32 b1 0b 08
        E 32 b1 0b 11
        E 32 b1 0b 19
        E 16 b1 0b 22
        E 16 b1 0b 2a
        E 32 b1 0b 33
        E 16 b1 0b 3b
        E 16 b1 0b 44
        E 320 81 35 00
        E 0 91 37 44
        E 32 b1 0b 3b
        E 16 b1 0b 33
        E 16 b1 0b 2a
        E 32 b1 0b 22
        E 16 b1 0b 19
        E 16 b1 0b 11
        E 32 b1 0b 08
        E 32 b1 0b 11
        E 32 b1 0b 19
        E 16 b1 0b 22
        E 16 b1 0b 2a
        E 32 b1 0b 33
        E 16 b1 0b 3b
        E 16 b1 0b 44
        E 320 81 37 00
        E 0 91 3a 44
        E 32 b1 0b 3b
        E 16 b1 0b 33
        E 16 b1 0b 2a
        E 32 b1 0b 22
        E 16 b1 0b 19
        E 16 b1 0b 11
        E 32 b1 0b 08
        E 32 b1 0b 11
        E 32 b1 0b 19
        E 16 b1 0b 22
        E 16 b1 0b 2a
        E 32 b1 0b 33
        E 16 b1 0b 3b
        E 16 b1 0b 44
        E 320 81 3a 00
        E 0 91 37 44
        E 32 b1 0b 3b
        E 16 b1 0b 33
        E 16 b1 0b 2a
        E 32 b1 0b 22
        E 16 b1 0b 19
        E 16 b1 0b 11
        E 32 b1 0b 08
        E 32 b1 0b 11
        E 32 b1 0b 19
        E 16 b1 0b 22
        E 16 b1 0b 2a
        E 32 b1 0b 33
        E 16 b1 0b 3b
        E 16 b1 0b 44
        E 320 81 37 00
        E 0 91 34 44
        E 32 b1 0b 3b
        E 16 b1 0b 33
        E 16 b1 0b 2a
        E 32 b1 0b 22
        E 16 b1 0b 19
        E 16 b1 0b 11
        E 32 b1 0b 08
        E 32 b1 0b 11
        E 32 b1 0b 19
        E 16 b1 0b 22
        E 16 b1 0b 2a
        E 32 b1 0b 33
        E 16 b1 0b 3b
        E 16 b1 0b 44
        E 192 81 34 00
        E 0 b1 7b 00
        E 0 ff 2f 00
      >
    >
  >
  <TRACK {70AC7EDE-E303-4AB9-BB60-A949DDC0A667}
    NAME "NES - Triangle [ch2]"
    PEAKCOL 16744192
    BEAT -1
    AUTOMODE 0
    PANLAWFLAGS 3
    VOLPAN 1 0 -1 -1 1
    MUTESOLO 0 0 0
    IPHASE 0
    PLAYOFFS 0 1
    ISBUS 0 0
    BUSCOMP 0 0 0 0 0
    SHOWINMIX 1 0.6667 0.5 1 0.5 0 0 0
    FIXEDLANES 9 0 0 0 0
    SEL 0
    REC 0 5088 1 0 0 0 0 0
    VU 2
    TRACKHEIGHT 0 0 0 0 0 0 0
    INQ 0 0 0 0.5 100 0 0 100
    NCHAN 2
    FX 1
    TRACKID {70AC7EDE-E303-4AB9-BB60-A949DDC0A667}
    PERF 0
    MIDIOUT -1
    MAINSEND 1 0
    <FXCHAIN
      WNDRECT 24 52 700 560
      SHOW 0
      LASTSEL 0
      DOCKED 0
      BYPASS 0 0 0
      <JS "ReapNES Studio/ReapNES_Console.jsfx" ""
        2 15 1 10 80 10 100 2 1 15 1 5 60 10 80 1 1 0 50 0 0 15 1 0 100 0 0 0.500000 0.500000 0.400000 0.300000 0.800000 2 1 0 0 0 0 - - - - - - - - - - - - - - - - - - - - - - - - - -
      >
      FLOATPOS 0 0 0 0
      FXID {F7C1D8BE-09D7-4BA5-B689-450D897B51AB}
      WAK 0 0
    >
    <ITEM
      POSITION 0
      LENGTH 74.5878716
      LOOP 0
      ALLTAKES 0
      FADEIN 0 0 0 0 0 0 0
      FADEOUT 0 0 0 0 0 0 0
      MUTE 0 0
      SEL 0
      IGUID {AD3714B7-E0EC-4BC1-A6E6-3D7CAEF92929}
      <SOURCE MIDI
        HASDATA 1 480 QN
        CCINTERP 32
        E 0 c2 26
        E 1344 b2 0b 7f
        E 0 92 32 7f
        E 1280 82 32 00
        E 0 b2 0b 7f
        E 0 92 37 7f
        E 1280 82 37 00
        E 0 b2 0b 7f
        E 0 92 30 7f
        E 1280 82 30 00
        E 0 b2 0b 7f
        E 0 92 35 7f
        E 1280 82 35 00
        E 0 b2 0b 7f
        E 0 92 2e 7f
        E 1280 82 2e 00
        E 0 b2 0b 7f
        E 0 92 34 7f
        E 1280 82 34 00
        E 0 b2 0b 7f
        E 0 92 2d 7f
        E 1280 82 2d 00
        E 0 b2 0b 7f
        E 0 92 39 7f
        E 640 82 39 00
        E 0 b2 0b 7f
        E 0 92 34 7f
        E 640 82 34 00
        E 0 b2 0b 7f
        E 0 92 32 7f
        E 1280 82 32 00
        E 0 b2 0b 7f
        E 0 92 37 7f
        E 1280 82 37 00
        E 0 b2 0b 7f
        E 0 92 30 7f
        E 1280 82 30 00
        E 0 b2 0b 7f
        E 0 92 35 7f
        E 1280 82 35 00
        E 0 b2 0b 7f
        E 0 92 2f 7f
        E 1280 82 2f 00
        E 0 b2 0b 7f
        E 0 92 2d 7f
        E 1280 82 2d 00
        E 0 b2 0b 7f
        E 0 92 3e 7f
        E 320 82 3e 00
        E 0 b2 0b 7f
        E 0 92 39 7f
        E 320 82 39 00
        E 0 b2 0b 7f
        E 0 92 37 7f
        E 320 82 37 00
        E 0 b2 0b 7f
        E 0 92 39 7f
        E 320 82 39 00
        E 0 b2 0b 7f
        E 0 92 32 7f
        E 960 82 32 00
        E 320 b2 0b 7f
        E 0 92 32 7f
        E 1280 82 32 00
        E 0 b2 0b 7f
        E 0 92 37 7f
        E 1280 82 37 00
        E 0 b2 0b 7f
        E 0 92 30 7f
        E 1280 82 30 00
        E 0 b2 0b 7f
        E 0 92 35 7f
        E 1280 82 35 00
        E 0 b2 0b 7f
        E 0 92 2e 7f
        E 1280 82 2e 00
        E 0 b2 0b 7f
        E 0 92 34 7f
        E 1280 82 34 00
        E 0 b2 0b 7f
        E 0 92 2d 7f
        E 1280 82 2d 00
        E 0 b2 0b 7f
        E 0 92 39 7f
        E 640 82 39 00
        E 0 b2 0b 7f
        E 0 92 34 7f
        E 640 82 34 00
        E 0 b2 0b 7f
        E 0 92 32 7f
        E 1280 82 32 00
        E 0 b2 0b 7f
        E 0 92 37 7f
        E 1280 82 37 00
        E 0 b2 0b 7f
        E 0 92 30 7f
        E 1280 82 30 00
        E 0 b2 0b 7f
        E 0 92 35 7f
        E 1280 82 35 00
        E 0 b2 0b 7f
        E 0 92 2f 7f
        E 1280 82 2f 00
        E 0 b2 0b 7f
        E 0 92 2d 7f
        E 1280 82 2d 00
        E 0 b2 0b 7f
        E 0 92 3e 7f
        E 320 82 3e 00
        E 0 b2 0b 7f
        E 0 92 39 7f
        E 320 82 39 00
        E 0 b2 0b 7f
        E 0 92 37 7f
        E 320 82 37 00
        E 0 b2 0b 7f
        E 0 92 39 7f
        E 320 82 39 00
        E 0 b2 0b 7f
        E 0 92 32 7f
        E 960 82 32 00
        E 320 b2 0b 7f
        E 0 92 32 7f
        E 1280 82 32 00
        E 0 b2 0b 7f
        E 0 92 37 7f
        E 1280 82 37 00
        E 0 b2 0b 7f
        E 0 92 30 7f
        E 1280 82 30 00
        E 0 b2 0b 7f
        E 0 92 35 7f
        E 1280 82 35 00
        E 0 b2 0b 7f
        E 0 92 2e 7f
        E 1280 82 2e 00
        E 0 b2 0b 7f
        E 0 92 34 7f
        E 1280 82 34 00
        E 0 b2 0b 7f
        E 0 92 2d 7f
        E 1280 82 2d 00
        E 0 b2 0b 7f
        E 0 92 39 7f
        E 640 82 39 00
        E 0 b2 0b 7f
        E 0 92 34 7f
        E 640 82 34 00
        E 0 b2 0b 7f
        E 0 92 32 7f
        E 1280 82 32 00
        E 0 b2 0b 7f
        E 0 92 37 7f
        E 1280 82 37 00
        E 0 b2 0b 7f
        E 0 92 30 7f
        E 1280 82 30 00
        E 0 b2 0b 7f
        E 0 92 35 7f
        E 1280 82 35 00
        E 0 b2 0b 7f
        E 0 92 2f 7f
        E 1280 82 2f 00
        E 0 b2 0b 7f
        E 0 92 2d 7f
        E 1280 82 2d 00
        E 0 b2 0b 7f
        E 0 92 3e 7f
        E 320 82 3e 00
        E 0 b2 0b 7f
        E 0 92 39 7f
        E 320 82 39 00
        E 0 b2 0b 7f
        E 0 92 37 7f
        E 320 82 37 00
        E 0 b2 0b 7f
        E 0 92 39 7f
        E 320 82 39 00
        E 0 b2 0b 7f
        E 0 92 32 7f
        E 960 82 32 00
        E 320 b2 0b 7f
        E 0 92 32 7f
        E 1280 82 32 00
        E 0 b2 0b 7f
        E 0 92 37 7f
        E 1280 82 37 00
        E 0 b2 0b 7f
        E 0 92 30 7f
        E 1280 82 30 00
        E 0 b2 0b 7f
        E 0 92 35 7f
        E 1280 82 35 00
        E 0 b2 0b 7f
        E 0 92 2e 7f
        E 1280 82 2e 00
        E 0 b2 0b 7f
        E 0 92 34 7f
        E 1280 82 34 00
        E 0 b2 0b 7f
        E 0 92 2d 7f
        E 1280 82 2d 00
        E 0 b2 0b 7f
        E 0 92 39 7f
        E 640 82 39 00
        E 0 b2 0b 7f
        E 0 92 34 7f
        E 640 82 34 00
        E 0 b2 0b 7f
        E 0 92 32 7f
        E 1280 82 32 00
        E 0 b2 0b 7f
        E 0 92 37 7f
        E 1280 82 37 00
        E 0 b2 0b 7f
        E 0 92 30 7f
        E 1152 82 30 00
        E 0 b2 7b 00
        E 0 ff 2f 00
      >
    >
  >
  <TRACK {D84B7CBB-8CB2-479B-8D61-9E685456BFA1}
    NAME "NES - Noise / Drums"
    PEAKCOL 11184810
    BEAT -1
    AUTOMODE 0
    PANLAWFLAGS 3
    VOLPAN 1 0 -1 -1 1
    MUTESOLO 0 0 0
    IPHASE 0
    PLAYOFFS 0 1
    ISBUS 0 0
    BUSCOMP 0 0 0 0 0
    SHOWINMIX 1 0.6667 0.5 1 0.5 0 0 0
    FIXEDLANES 9 0 0 0 0
    SEL 0
    REC 0 5088 1 0 0 0 0 0
    VU 2
    TRACKHEIGHT 0 0 0 0 0 0 0
    INQ 0 0 0 0.5 100 0 0 100
    NCHAN 2
    FX 1
    TRACKID {D84B7CBB-8CB2-479B-8D61-9E685456BFA1}
    PERF 0
    MIDIOUT -1
    MAINSEND 1 0
    <FXCHAIN
      WNDRECT 24 52 700 560
      SHOW 0
      LASTSEL 0
      DOCKED 0
      BYPASS 0 0 0
      <JS "ReapNES Studio/ReapNES_Console.jsfx" ""
        2 15 1 10 80 10 100 2 1 15 1 5 60 10 80 1 1 0 50 0 0 15 1 0 100 0 0 0.500000 0.500000 0.400000 0.300000 0.800000 3 1 0 0 0 0 - - - - - - - - - - - - - - - - - - - - - - - - - -
      >
      FLOATPOS 0 0 0 0
      FXID {8AF008A6-3219-490F-9F82-31D047257906}
      WAK 0 0
    >
  >
>