<REAPER_PROJECT 0.1 "7.27/win64" 1707000000
  <NOTES 0 2
    |ReapNES Studio Project
    |MIDI Import - Final_Fantasy_song_49_rom_v1
  >
  RIPPLE 0
  GROUPOVERRIDE 0 0 0
  AUTOXFADE 129
  ENVATTACH 3
  POOLEDENVATTACH 0
  MIXERUIFLAGS 11 48
  ENVFADESZ10 40
  PEAKGAIN 1
  FEEDBACK 0
  PANLAW 1
  PROJOFFS 0 0 0
  MAXPROJLEN 0 0
  GRID 3199 8 1 8 1 0 0 0
  TIMEMODE 1 5 -1 30 0 0 -1
  VIDEO_CONFIG 0 0 65792
  PANMODE 3
  PANLAWFLAGS 3
  CURSOR 0
  ZOOM 100 0 0
  VZOOMEX 6 0
  USE_REC_CFG 0
  RECMODE 1
  SMPTESYNC 0 30 100 40 1000 300 0 0 1 0 0
  LOOP 0
  LOOPGRAN 0 4
  RECORD_PATH "Media" ""
  <RECORD_CFG
    ZXZhdxgAAQ==
  >
  <APPLYFX_CFG
  >
  RENDER_FILE ""
  RENDER_PATTERN ""
  RENDER_FMT 0 2 0
  RENDER_1X 0
  RENDER_RANGE 1 0 0 18 1000
  RENDER_RESAMPLE 3 0 1
  RENDER_ADDTOPROJ 0
  RENDER_STEMS 0
  RENDER_DITHER 0
  TIMELOCKMODE 1
  TEMPOENVLOCKMODE 1
  ITEMMIX 1
  DEFPITCHMODE 589824 0
  TAKELANE 1
  SAMPLERATE 44100 0 0
  <RENDER_CFG
    ZXZhdxgAAQ==
  >
  LOCK 1
  <METRONOME 6 2
    VOL 0.25 0.125
    BEATLEN 4
    FREQ 1760 880 1
    SAMPLES "" ""
    SPLIGNORE 0 0
    SPLDEF 2 660 "" 0
    SPLDEF 3 440 "" 0
    PATTERN 0 169
    PATTERNSTR ABBB
    MULT 1
  >
  GLOBAL_AUTO -1
  TEMPO 128.59999614200012 4 4
  PLAYRATE 1 0 0.25 4
  SELECTION 0 0
  SELECTION2 0 0
  MASTERAUTOMODE 0
  MASTERTRACKHEIGHT 0 0
  MASTERPEAKCOL 16576
  MASTERMUTESOLO 0
  MASTERTRACKVIEW 0 0.6667 0.5 0.5 0 0 0 0 0 0 0 0 0 0
  MASTERHWOUT 0 0 1 0 0 0 0 -1
  MASTER_NCH 2 2
  MASTER_VOLUME 1 0 -1 -1 1
  MASTER_PANMODE 3
  MASTER_PANLAWFLAGS 3
  MASTER_FX 1
  MASTER_SEL 0
  <MASTERPLAYSPEEDENV
    EGUID {4E055016-E500-43E2-A15D-9620E7DB8D4D}
    ACT 0 -1
    VIS 0 1 1
    LANEHEIGHT 0 0
    ARM 0
    DEFSHAPE 0 -1 -1
  >
  <TEMPOENVEX
    EGUID {94A14D10-5AEF-4A11-B982-3F626A66393F}
    ACT 1 -1
    VIS 1 0 1
    LANEHEIGHT 0 0
    ARM 0
    DEFSHAPE 1 -1 -1
  >
  <PROJBAY
  >
  <TRACK {CF84EEAC-43B5-4FDC-BC6B-CDAF460CDA9B}
    NAME "NES - Pulse 1 [ch0]"
    PEAKCOL 16576606
    BEAT -1
    AUTOMODE 0
    PANLAWFLAGS 3
    VOLPAN 1 0 -1 -1 1
    MUTESOLO 0 0 0
    IPHASE 0
    PLAYOFFS 0 1
    ISBUS 0 0
    BUSCOMP 0 0 0 0 0
    SHOWINMIX 1 0.6667 0.5 1 0.5 0 0 0
    FIXEDLANES 9 0 0 0 0
    SEL 1
    REC 1 5088 1 0 0 0 0 0
    VU 2
    TRACKHEIGHT 0 0 0 0 0 0 0
    INQ 0 0 0 0.5 100 0 0 100
    NCHAN 2
    FX 1
    TRACKID {CF84EEAC-43B5-4FDC-BC6B-CDAF460CDA9B}
    PERF 0
    MIDIOUT -1
    MAINSEND 1 0
    <FXCHAIN
      WNDRECT 24 52 700 560
      SHOW 0
      LASTSEL 0
      DOCKED 0
      BYPASS 0 0 0
      <JS "ReapNES Studio/ReapNES_Console.jsfx" ""
        2 15 1 10 80 10 100 2 1 15 1 5 60 10 80 1 1 0 50 0 0 15 1 0 100 0 0 0.500000 0.500000 0.400000 0.300000 0.800000 0 1 0 0 0 0 - - - - - - - - - - - - - - - - - - - - - - - - - -
      >
      FLOATPOS 0 0 0 0
      FXID {BB4FB872-B5BC-4AA8-AF3A-D700EBDEE3AC}
      WAK 0 0
    >
    <ITEM
      POSITION 0
      LENGTH 74.5878716
      LOOP 0
      ALLTAKES 0
      FADEIN 0 0 0 0 0 0 0
      FADEOUT 0 0 0 0 0 0 0
      MUTE 0 0
      SEL 0
      IGUID {49FB7E0F-A683-415E-B632-D94C126AF200}
      <SOURCE MIDI
        HASDATA 1 480 QN
        CCINTERP 32
        E 0 c0 50
        E 0 b0 0c 20
        E 0 b0 0b 77
        E 0 90 2e 77
        E 16 80 2e 00
        E 48 b0 0b 66
        E 0 90 32 66
        E 32 b0 0b 4c
        E 16 b0 0b 33
        E 16 b0 0b 19
        E 16 80 32 00
        E 112 b0 0b 7f
        E 0 90 32 7f
        E 16 b0 0b 66
        E 16 b0 0b 4c
        E 16 b0 0b 33
        E 16 b0 0b 19
        E 16 80 32 00
        E 112 b0 0b 7f
        E 0 90 35 7f
        E 16 b0 0b 66
        E 16 b0 0b 4c
        E 16 b0 0b 33
        E 16 b0 0b 19
        E 16 80 35 00
        E 112 b0 0b 7f
        E 0 90 32 7f
        E 16 b0 0b 66
        E 16 b0 0b 4c
        E 16 b0 0b 33
        E 16 b0 0b 19
        E 16 80 32 00
        E 112 b0 0b 7f
        E 0 90 30 7f
        E 16 b0 0b 66
        E 16 b0 0b 4c
        E 16 b0 0b 33
        E 16 b0 0b 19
        E 16 80 30 00
        E 112 b0 0b 7f
        E 0 90 34 7f
        E 32 b0 0b 77
        E 16 b0 0b 6e
        E 16 b0 0b 66
        E 32 b0 0b 5d
        E 16 b0 0b 55
        E 16 b0 0b 4c
        E 32 b0 0b 44
        E 16 b0 0b 3b
        E 16 b0 0b 33
        E 32 b0 0b 2a
        E 16 b0 0b 22
        E 16 b0 0b 19
        E 32 b0 0b 11
        E 16 b0 0b 08
        E 16 80 34 00
        E 64 b0 0b 7f
        E 0 90 32 7f
        E 32 b0 0b 77
        E 16 b0 0b 6e
        E 16 b0 0b 66
        E 32 b0 0b 5d
        E 16 b0 0b 55
        E 16 b0 0b 4c
        E 32 b0 0b 44
        E 16 b0 0b 3b
        E 16 b0 0b 33
        E 32 b0 0b 2a
        E 16 b0 0b 22
        E 16 b0 0b 19
        E 32 b0 0b 11
        E 16 b0 0b 08
        E 16 80 32 00
        E 64 b0 0b 7f
        E 0 90 32 7f
        E 16 b0 0b 66
        E 16 b0 0b 4c
        E 16 b0 0b 33
        E 16 b0 0b 19
        E 16 80 32 00
        E 112 b0 0b 7f
        E 0 90 35 7f
        E 16 b0 0b 66
        E 16 b0 0b 4c
        E 16 b0 0b 33
        E 16 b0 0b 19
        E 16 80 35 00
        E 112 b0 0b 7f
        E 0 90 32 7f
        E 16 b0 0b 66
        E 16 b0 0b 4c
        E 16 b0 0b 33
        E 16 b0 0b 19
        E 16 80 32 00
        E 112 b0 0b 7f
        E 0 90 34 7f
        E 16 b0 0b 66
        E 16 b0 0b 4c
        E 16 b0 0b 33
        E 16 b0 0b 19
        E 16 80 34 00
        E 112 b0 0b 7f
        E 0 90 37 7f
        E 32 b0 0b 77
        E 16 b0 0b 6e
        E 16 b0 0b 66
        E 32 b0 0b 5d
        E 16 b0 0b 55
        E 16 b0 0b 4c
        E 32 b0 0b 44
        E 16 b0 0b 3b
        E 16 b0 0b 33
        E 32 b0 0b 2a
        E 16 b0 0b 22
        E 16 b0 0b 19
        E 32 b0 0b 11
        E 16 b0 0b 08
        E 16 80 37 00
        E 64 b0 0b 7f
        E 0 90 37 7f
        E 16 b0 0b 66
        E 16 b0 0b 4c
        E 16 b0 0b 33
        E 16 b0 0b 19
        E 16 80 37 00
        E 112 b0 0b 7f
        E 0 90 32 7f
        E 16 b0 0b 66
        E 16 b0 0b 4c
        E 16 b0 0b 33
        E 16 b0 0b 19
        E 16 80 32 00
        E 112 b0 0b 7f
        E 0 90 32 7f
        E 16 b0 0b 66
        E 16 b0 0b 4c
        E 16 b0 0b 33
        E 16 b0 0b 19
        E 16 80 32 00
        E 112 b0 0b 7f
        E 0 90 35 7f
        E 16 b0 0b 66
        E 16 b0 0b 4c
        E 16 b0 0b 33
        E 16 b0 0b 19
        E 16 80 35 00
        E 112 b0 0b 7f
        E 0 90 32 7f
        E 16 b0 0b 66
        E 16 b0 0b 4c
        E 16 b0 0b 33
        E 16 b0 0b 19
        E 16 80 32 00
        E 112 b0 0b 7f
        E 0 90 30 7f
        E 16 b0 0b 66
        E 16 b0 0b 4c
        E 16 b0 0b 33
        E 16 b0 0b 19
        E 16 80 30 00
        E 112 b0 0b 7f
        E 0 90 34 7f
        E 32 b0 0b 77
        E 16 b0 0b 6e
        E 16 b0 0b 66
        E 32 b0 0b 5d
        E 16 b0 0b 55
        E 16 b0 0b 4c
        E 32 b0 0b 44
        E 16 b0 0b 3b
        E 16 b0 0b 33
        E 32 b0 0b 2a
        E 16 b0 0b 22
        E 16 b0 0b 19
        E 32 b0 0b 11
        E 16 b0 0b 08
        E 16 80 34 00
        E 64 b0 0b 7f
        E 0 90 32 7f
        E 32 b0 0b 77
        E 16 b0 0b 6e
        E 16 b0 0b 66
        E 32 b0 0b 5d
        E 16 b0 0b 55
        E 16 b0 0b 4c
        E 32 b0 0b 44
        E 16 b0 0b 3b
        E 16 b0 0b 33
        E 32 b0 0b 2a
        E 16 b0 0b 22
        E 16 b0 0b 19
        E 32 b0 0b 11
        E 16 b0 0b 08
        E 16 80 32 00
        E 64 b0 0b 7f
        E 0 90 32 7f
        E 16 b0 0b 66
        E 16 b0 0b 4c
        E 16 b0 0b 33
        E 16 b0 0b 19
        E 16 80 32 00
        E 112 b0 0b 7f
        E 0 90 35 7f
        E 16 b0 0b 66
        E 16 b0 0b 4c
        E 16 b0 0b 33
        E 16 b0 0b 19
        E 16 80 35 00
        E 112 b0 0b 7f
        E 0 90 32 7f
        E 16 b0 0b 66
        E 16 b0 0b 4c
        E 16 b0 0b 33
        E 16 b0 0b 19
        E 16 80 32 00
        E 112 b0 0b 7f
        E 0 90 34 7f
        E 16 b0 0b 66
        E 16 b0 0b 4c
        E 16 b0 0b 33
        E 16 b0 0b 19
        E 16 80 34 00
        E 112 b0 0b 7f
        E 0 90 37 7f
        E 32 b0 0b 77
        E 16 b0 0b 6e
        E 16 b0 0b 66
        E 32 b0 0b 5d
        E 16 b0 0b 55
        E 16 b0 0b 4c
        E 32 b0 0b 44
        E 16 b0 0b 3b
        E 16 b0 0b 33
        E 32 b0 0b 2a
        E 16 b0 0b 22
        E 16 b0 0b 19
        E 32 b0 0b 11
        E 16 b0 0b 08
        E 16 80 37 00
        E 64 b0 0b 7f
        E 0 90 37 7f
        E 16 b0 0b 66
        E 16 b0 0b 4c
        E 16 b0 0b 33
        E 16 b0 0b 19
        E 16 80 37 00
        E 112 b0 0b 7f
        E 0 90 31 7f
        E 16 b0 0b 77
        E 16 b0 0b 66
        E 16 b0 0b 5d
        E 16 b0 0b 4c
        E 16 b0 0b 44
        E 16 b0 0b 33
        E 16 b0 0b 2a
        E 16 b0 0b 19
        E 16 b0 0b 11
        E 16 80 31 00
        E 32 b0 0b 7f
        E 0 90 32 7f
        E 16 b0 0b 77
        E 16 b0 0b 66
        E 16 b0 0b 5d
        E 16 b0 0b 4c
        E 16 b0 0b 44
        E 32 b0 0b 33
        E 16 b0 0b 2a
        E 16 b0 0b 19
        E 16 b0 0b 11
        E 16 80 32 00
        E 16 b0 0b 7f
        E 0 90 35 7f
        E 16 b0 0b 77
        E 16 b0 0b 66
        E 16 b0 0b 5d
        E 16 b0 0b 4c
        E 16 b0 0b 44
        E 32 b0 0b 33
        E 16 b0 0b 2a
        E 16 b0 0b 19
        E 16 b0 0b 11
        E 16 80 35 00
        E 16 b0 0b 7f
        E 0 90 39 7f
        E 16 b0 0b 77
        E 16 b0 0b 66
        E 16 b0 0b 5d
        E 16 b0 0b 4c
        E 16 b0 0b 44
        E 32 b0 0b 33
        E 16 b0 0b 2a
        E 16 b0 0b 19
        E 16 b0 0b 11
        E 16 80 39 00
        E 16 b0 0b 66
        E 0 90 3e 66
        E 16 b0 0b 5d
        E 16 b0 0b 55
        E 16 b0 0b 4c
        E 16 b0 0b 44
        E 16 b0 0b 3b
        E 16 b0 0b 33
        E 16 b0 0b 2a
        E 16 b0 0b 22
        E 16 b0 0b 2a
        E 16 b0 0b 33
        E 16 b0 0b 3b
        E 16 b0 0b 44
        E 16 b0 0b 3b
        E 16 b0 0b 33
        E 16 b0 0b 2a
        E 16 b0 0b 22
        E 16 b0 0b 2a
        E 16 b0 0b 33
        E 16 b0 0b 3b
        E 16 b0 0b 44
        E 16 b0 0b 3b
        E 16 b0 0b 33
        E 16 b0 0b 2a
        E 16 b0 0b 22
        E 16 b0 0b 2a
        E 16 b0 0b 33
        E 16 b0 0b 3b
        E 16 b0 0b 44
        E 16 b0 0b 4c
        E 16 b0 0b 55
        E 16 b0 0b 5d
        E 1232 b0 0b 7f
        E 0 80 3e 00
        E 0 90 3b 7f
        E 16 b0 0b 66
        E 16 b0 0b 4c
        E 16 b0 0b 33
        E 16 b0 0b 7f
        E 0 80 3b 00
        E 0 90 3c 7f
        E 16 b0 0b 66
        E 16 b0 0b 4c
        E 16 b0 0b 33
        E 16 b0 0b 7f
        E 0 80 3c 00
        E 0 90 3b 7f
        E 16 b0 0b 66
        E 16 b0 0b 4c
        E 16 b0 0b 33
        E 16 b0 0b 7f
        E 0 80 3b 00
        E 0 90 39 7f
        E 16 b0 0b 66
        E 16 b0 0b 4c
        E 16 b0 0b 33
        E 16 b0 0b 19
        E 16 80 39 00
        E 112 b0 0b 7f
        E 0 90 3b 7f
        E 16 b0 0b 66
        E 16 b0 0b 4c
        E 16 b0 0b 33
        E 16 b0 0b 19
        E 16 80 3b 00
        E 112 b0 0b 7f
        E 0 90 3c 7f
        E 16 b0 0b 77
        E 16 b0 0b 66
        E 16 b0 0b 5d
        E 16 b0 0b 4c
        E 16 b0 0b 44
        E 16 b0 0b 33
        E 16 b0 0b 2a
        E 16 b0 0b 19
        E 16 b0 0b 11
        E 16 80 3c 00
        E 32 b0 0b 7f
        E 0 90 3b 7f
        E 16 b0 0b 77
        E 16 b0 0b 66
        E 16 b0 0b 5d
        E 16 b0 0b 4c
        E 16 b0 0b 44
        E 32 b0 0b 33
        E 16 b0 0b 2a
        E 16 b0 0b 19
        E 16 b0 0b 11
        E 16 80 3b 00
        E 16 b0 0b 7f
        E 0 90 39 7f
        E 16 b0 0b 77
        E 16 b0 0b 66
        E 16 b0 0b 5d
        E 16 b0 0b 4c
        E 16 b0 0b 44
        E 32 b0 0b 33
        E 16 b0 0b 2a
        E 16 b0 0b 19
        E 16 b0 0b 11
        E 16 80 39 00
        E 16 b0 0b 7f
        E 0 90 37 7f
        E 16 b0 0b 77
        E 16 b0 0b 66
        E 16 b0 0b 5d
        E 16 b0 0b 4c
        E 16 b0 0b 44
        E 32 b0 0b 33
        E 16 b0 0b 2a
        E 16 b0 0b 19
        E 16 b0 0b 11
        E 16 80 37 00
        E 16 b0 0b 7f
        E 0 90 35 7f
        E 16 b0 0b 77
        E 16 b0 0b 66
        E 16 b0 0b 5d
        E 16 b0 0b 4c
        E 16 b0 0b 44
        E 16 b0 0b 33
        E 16 b0 0b 2a
        E 16 b0 0b 19
        E 16 b0 0b 11
        E 16 80 35 00
        E 32 b0 0b 7f
        E 0 90 37 7f
        E 16 b0 0b 77
        E 16 b0 0b 66
        E 16 b0 0b 5d
        E 16 b0 0b 4c
        E 16 b0 0b 44
        E 32 b0 0b 33
        E 16 b0 0b 2a
        E 16 b0 0b 19
        E 16 b0 0b 11
        E 16 80 37 00
        E 16 b0 0b 7f
        E 0 90 39 7f
        E 16 b0 0b 77
        E 16 b0 0b 66
        E 16 b0 0b 5d
        E 16 b0 0b 4c
        E 16 b0 0b 44
        E 32 b0 0b 33
        E 16 b0 0b 2a
        E 16 b0 0b 19
        E 16 b0 0b 11
        E 16 80 39 00
        E 16 b0 0b 7f
        E 0 90 35 7f
        E 16 b0 0b 77
        E 16 b0 0b 66
        E 16 b0 0b 5d
        E 16 b0 0b 4c
        E 16 b0 0b 44
        E 32 b0 0b 33
        E 16 b0 0b 2a
        E 16 b0 0b 19
        E 16 b0 0b 11
        E 16 80 35 00
        E 16 b0 0b 66
        E 0 90 32 66
        E 16 b0 0b 5d
        E 16 b0 0b 55
        E 16 b0 0b 4c
        E 16 b0 0b 44
        E 16 b0 0b 3b
        E 16 b0 0b 33
        E 16 b0 0b 2a
        E 16 b0 0b 22
        E 16 b0 0b 2a
        E 16 b0 0b 33
        E 16 b0 0b 3b
        E 16 b0 0b 44
        E 16 b0 0b 3b
        E 16 b0 0b 33
        E 16 b0 0b 2a
        E 16 b0 0b 22
        E 16 b0 0b 2a
        E 16 b0 0b 33
        E 16 b0 0b 3b
        E 16 b0 0b 44
        E 16 b0 0b 3b
        E 16 b0 0b 33
        E 16 b0 0b 2a
        E 16 b0 0b 22
        E 16 b0 0b 2a
        E 16 b0 0b 33
        E 16 b0 0b 3b
        E 16 b0 0b 44
        E 16 b0 0b 4c
        E 16 b0 0b 55
        E 16 b0 0b 5d
        E 1040 b0 0b 7f
        E 0 80 32 00
        E 0 90 31 7f
        E 16 b0 0b 77
        E 16 b0 0b 66
        E 16 b0 0b 5d
        E 16 b0 0b 4c
        E 16 b0 0b 44
        E 16 b0 0b 33
        E 16 b0 0b 2a
        E 16 b0 0b 19
        E 16 b0 0b 11
        E 16 80 31 00
        E 32 b0 0b 7f
        E 0 90 32 7f
        E 16 b0 0b 77
        E 16 b0 0b 66
        E 16 b0 0b 5d
        E 16 b0 0b 4c
        E 16 b0 0b 44
        E 32 b0 0b 33
        E 16 b0 0b 2a
        E 16 b0 0b 19
        E 16 b0 0b 11
        E 16 80 32 00
        E 16 b0 0b 7f
        E 0 90 35 7f
        E 16 b0 0b 77
        E 16 b0 0b 66
        E 16 b0 0b 5d
        E 16 b0 0b 4c
        E 16 b0 0b 44
        E 32 b0 0b 33
        E 16 b0 0b 2a
        E 16 b0 0b 19
        E 16 b0 0b 11
        E 16 80 35 00
        E 16 b0 0b 7f
        E 0 90 39 7f
        E 16 b0 0b 77
        E 16 b0 0b 66
        E 16 b0 0b 5d
        E 16 b0 0b 4c
        E 16 b0 0b 44
        E 32 b0 0b 33
        E 16 b0 0b 2a
        E 16 b0 0b 19
        E 16 b0 0b 11
        E 16 80 39 00
        E 16 b0 0b 66
        E 0 90 3e 66
        E 16 b0 0b 5d
        E 16 b0 0b 55
        E 16 b0 0b 4c
        E 16 b0 0b 44
        E 16 b0 0b 3b
        E 16 b0 0b 33
        E 16 b0 0b 2a
        E 16 b0 0b 22
        E 16 b0 0b 2a
        E 16 b0 0b 33
        E 16 b0 0b 3b
        E 16 b0 0b 44
        E 16 b0 0b 3b
        E 16 b0 0b 33
        E 16 b0 0b 2a
        E 16 b0 0b 22
        E 16 b0 0b 2a
        E 16 b0 0b 33
        E 16 b0 0b 3b
        E 16 b0 0b 44
        E 16 b0 0b 3b
        E 16 b0 0b 33
        E 16 b0 0b 2a
        E 16 b0 0b 22
        E 16 b0 0b 2a
        E 16 b0 0b 33
        E 16 b0 0b 3b
        E 16 b0 0b 44
        E 16 b0 0b 4c
        E 16 b0 0b 55
        E 16 b0 0b 5d
        E 1040 80 3e 00
        E 192 b0 0b 7f
        E 0 90 3b 7f
        E 16 b0 0b 66
        E 16 b0 0b 4c
        E 16 b0 0b 33
        E 16 b0 0b 7f
        E 0 80 3b 00
        E 0 90 3c 7f
        E 16 b0 0b 66
        E 16 b0 0b 4c
        E 16 b0 0b 33
        E 16 b0 0b 7f
        E 0 80 3c 00
        E 0 90 3b 7f
        E 16 b0 0b 66
        E 16 b0 0b 4c
        E 16 b0 0b 33
        E 16 b0 0b 7f
        E 0 80 3b 00
        E 0 90 39 7f
        E 16 b0 0b 66
        E 16 b0 0b 4c
        E 16 b0 0b 33
        E 16 b0 0b 19
        E 16 80 39 00
        E 112 b0 0b 7f
        E 0 90 3b 7f
        E 16 b0 0b 66
        E 16 b0 0b 4c
        E 16 b0 0b 33
        E 16 b0 0b 19
        E 16 80 3b 00
        E 112 b0 0b 7f
        E 0 90 3c 7f
        E 16 b0 0b 77
        E 16 b0 0b 66
        E 16 b0 0b 5d
        E 16 b0 0b 4c
        E 16 b0 0b 44
        E 16 b0 0b 33
        E 16 b0 0b 2a
        E 16 b0 0b 19
        E 16 b0 0b 11
        E 16 80 3c 00
        E 32 b0 0b 7f
        E 0 90 39 7f
        E 16 b0 0b 77
        E 16 b0 0b 66
        E 16 b0 0b 5d
        E 16 b0 0b 4c
        E 16 b0 0b 44
        E 32 b0 0b 33
        E 16 b0 0b 2a
        E 16 b0 0b 19
        E 16 b0 0b 11
        E 16 80 39 00
        E 16 b0 0b 7f
        E 0 90 35 7f
        E 16 b0 0b 77
        E 16 b0 0b 66
        E 16 b0 0b 5d
        E 16 b0 0b 4c
        E 16 b0 0b 44
        E 32 b0 0b 33
        E 16 b0 0b 2a
        E 16 b0 0b 19
        E 16 b0 0b 11
        E 16 80 35 00
        E 16 b0 0b 7f
        E 0 90 39 7f
        E 16 b0 0b 77
        E 16 b0 0b 66
        E 16 b0 0b 5d
        E 16 b0 0b 4c
        E 16 b0 0b 44
        E 32 b0 0b 33
        E 16 b0 0b 2a
        E 16 b0 0b 19
        E 16 b0 0b 11
        E 16 80 39 00
        E 16 b0 0b 7f
        E 0 90 40 7f
        E 16 b0 0b 77
        E 16 b0 0b 66
        E 16 b0 0b 5d
        E 16 b0 0b 4c
        E 16 b0 0b 44
        E 16 b0 0b 33
        E 16 b0 0b 2a
        E 16 b0 0b 19
        E 16 b0 0b 11
        E 16 80 40 00
        E 32 b0 0b 7f
        E 0 90 41 7f
        E 16 b0 0b 77
        E 16 b0 0b 66
        E 16 b0 0b 5d
        E 16 b0 0b 4c
        E 16 b0 0b 44
        E 32 b0 0b 33
        E 16 b0 0b 2a
        E 16 b0 0b 19
        E 16 b0 0b 11
        E 16 80 41 00
        E 16 b0 0b 7f
        E 0 90 40 7f
        E 16 b0 0b 77
        E 16 b0 0b 66
        E 16 b0 0b 5d
        E 16 b0 0b 4c
        E 16 b0 0b 44
        E 32 b0 0b 33
        E 16 b0 0b 2a
        E 16 b0 0b 19
        E 16 b0 0b 11
        E 16 80 40 00
        E 16 b0 0b 7f
        E 0 90 3c 7f
        E 16 b0 0b 77
        E 16 b0 0b 66
        E 16 b0 0b 5d
        E 16 b0 0b 4c
        E 16 b0 0b 44
        E 32 b0 0b 33
        E 16 b0 0b 2a
        E 16 b0 0b 19
        E 16 b0 0b 11
        E 16 80 3c 00
        E 16 b0 0b 66
        E 0 90 3e 66
        E 16 b0 0b 5d
        E 16 b0 0b 55
        E 16 b0 0b 4c
        E 16 b0 0b 44
        E 16 b0 0b 3b
        E 16 b0 0b 33
        E 16 b0 0b 2a
        E 16 b0 0b 22
        E 16 b0 0b 2a
        E 16 b0 0b 33
        E 16 b0 0b 3b
        E 16 b0 0b 44
        E 16 b0 0b 3b
        E 16 b0 0b 33
        E 16 b0 0b 2a
        E 16 b0 0b 22
        E 16 b0 0b 2a
        E 16 b0 0b 33
        E 16 b0 0b 3b
        E 16 b0 0b 44
        E 16 b0 0b 3b
        E 16 b0 0b 33
        E 16 b0 0b 2a
        E 16 b0 0b 22
        E 16 b0 0b 2a
        E 16 b0 0b 33
        E 16 b0 0b 3b
        E 16 b0 0b 44
        E 16 b0 0b 4c
        E 16 b0 0b 55
        E 16 b0 0b 5d
        E 1040 b0 0b 7f
        E 0 80 3e 00
        E 0 90 3c 7f
        E 16 b0 0b 77
        E 16 b0 0b 66
        E 16 b0 0b 5d
        E 16 b0 0b 4c
        E 16 b0 0b 44
        E 16 b0 0b 33
        E 16 b0 0b 2a
        E 16 b0 0b 19
        E 16 b0 0b 11
        E 16 80 3c 00
        E 32 b0 0b 7f
        E 0 90 39 7f
        E 16 b0 0b 77
        E 16 b0 0b 66
        E 16 b0 0b 5d
        E 16 b0 0b 4c
        E 16 b0 0b 44
        E 16 b0 0b 33
        E 16 b0 0b 2a
        E 16 b0 0b 19
        E 16 b0 0b 11
        E 16 80 39 00
        E 32 b0 0b 7f
        E 0 90 35 7f
        E 16 b0 0b 77
        E 16 b0 0b 66
        E 16 b0 0b 5d
        E 16 b0 0b 4c
        E 16 b0 0b 44
        E 16 b0 0b 33
        E 16 b0 0b 2a
        E 16 b0 0b 19
        E 16 b0 0b 11
        E 16 80 35 00
        E 32 b0 0b 7f
        E 0 90 39 7f
        E 16 b0 0b 77
        E 16 b0 0b 66
        E 16 b0 0b 5d
        E 16 b0 0b 4c
        E 16 b0 0b 44
        E 16 b0 0b 33
        E 16 b0 0b 2a
        E 16 b0 0b 19
        E 16 b0 0b 11
        E 16 80 39 00
        E 32 b0 0b 7f
        E 0 90 3b 7f
        E 16 b0 0b 77
        E 16 b0 0b 66
        E 16 b0 0b 5d
        E 16 b0 0b 4c
        E 16 b0 0b 44
        E 16 b0 0b 33
        E 16 b0 0b 2a
        E 16 b0 0b 19
        E 16 b0 0b 11
        E 16 80 3b 00
        E 32 b0 0b 7f
        E 0 90 3c 7f
        E 16 b0 0b 77
        E 16 b0 0b 66
        E 16 b0 0b 5d
        E 16 b0 0b 4c
        E 16 b0 0b 44
        E 16 b0 0b 33
        E 16 b0 0b 2a
        E 16 b0 0b 19
        E 16 b0 0b 11
        E 16 80 3c 00
        E 32 b0 0b 7f
        E 0 90 3b 7f
        E 16 b0 0b 77
        E 16 b0 0b 66
        E 16 b0 0b 5d
        E 16 b0 0b 4c
        E 16 b0 0b 44
        E 16 b0 0b 33
        E 16 b0 0b 2a
        E 16 b0 0b 19
        E 16 b0 0b 11
        E 16 80 3b 00
        E 32 b0 0b 7f
        E 0 90 39 7f
        E 16 b0 0b 77
        E 16 b0 0b 66
        E 16 b0 0b 5d
        E 16 b0 0b 4c
        E 16 b0 0b 44
        E 16 b0 0b 33
        E 16 b0 0b 2a
        E 16 b0 0b 19
        E 16 b0 0b 11
        E 16 80 39 00
        E 32 b0 0b 7f
        E 0 90 3b 7f
        E 32 b0 0b 77
        E 32 b0 0b 6e
        E 32 b0 0b 66
        E 32 b0 0b 5d
        E 32 b0 0b 55
        E 32 b0 0b 4c
        E 32 b0 0b 44
        E 32 b0 0b 3b
        E 32 b0 0b 33
        E 32 b0 0b 2a
        E 32 b0 0b 22
        E 32 b0 0b 19
        E 32 b0 0b 11
        E 32 b0 0b 08
        E 32 80 3b 00
        E 96 b0 0b 7f
        E 0 90 3b 7f
        E 32 b0 0b 77
        E 32 b0 0b 6e
        E 32 b0 0b 7f
        E 32 b0 0b 77
        E 32 b0 0b 6e
        E 32 b0 0b 7f
        E 32 b0 0b 77
        E 32 b0 0b 6e
        E 32 b0 0b 66
        E 32 b0 0b 5d
        E 32 b0 0b 55
        E 32 b0 0b 4c
        E 32 b0 0b 44
        E 32 b0 0b 3b
        E 32 b0 0b 33
        E 32 b0 0b 2a
        E 32 b0 0b 22
        E 32 b0 0b 19
        E 32 b0 0b 11
        E 32 b0 0b 08
        E 32 80 3b 00
        E 96 b0 0b 7f
        E 0 90 3b 7f
        E 32 b0 0b 77
        E 32 b0 0b 6e
        E 32 b0 0b 7f
        E 32 b0 0b 77
        E 32 b0 0b 6e
        E 32 b0 0b 7f
        E 0 80 3b 00
        E 0 90 3c 7f
        E 16 b0 0b 77
        E 16 b0 0b 66
        E 16 b0 0b 5d
        E 16 b0 0b 4c
        E 16 b0 0b 44
        E 16 b0 0b 33
        E 16 b0 0b 2a
        E 16 b0 0b 19
        E 16 b0 0b 11
        E 16 80 3c 00
        E 32 b0 0b 7f
        E 0 90 39 7f
        E 16 b0 0b 77
        E 16 b0 0b 66
        E 16 b0 0b 5d
        E 16 b0 0b 4c
        E 16 b0 0b 44
        E 16 b0 0b 33
        E 16 b0 0b 2a
        E 16 b0 0b 19
        E 16 b0 0b 11
        E 16 80 39 00
        E 32 b0 0b 7f
        E 0 90 35 7f
        E 16 b0 0b 77
        E 16 b0 0b 66
        E 16 b0 0b 5d
        E 16 b0 0b 4c
        E 16 b0 0b 44
        E 16 b0 0b 33
        E 16 b0 0b 2a
        E 16 b0 0b 19
        E 16 b0 0b 11
        E 16 80 35 00
        E 32 b0 0b 7f
        E 0 90 39 7f
        E 16 b0 0b 77
        E 16 b0 0b 66
        E 16 b0 0b 5d
        E 16 b0 0b 4c
        E 16 b0 0b 44
        E 16 b0 0b 33
        E 16 b0 0b 2a
        E 16 b0 0b 19
        E 16 b0 0b 11
        E 16 80 39 00
        E 32 b0 0b 7f
        E 0 90 3b 7f
        E 16 b0 0b 77
        E 16 b0 0b 66
        E 16 b0 0b 5d
        E 16 b0 0b 4c
        E 16 b0 0b 44
        E 16 b0 0b 33
        E 16 b0 0b 2a
        E 16 b0 0b 19
        E 16 b0 0b 11
        E 16 80 3b 00
        E 32 b0 0b 7f
        E 0 90 3c 7f
        E 16 b0 0b 77
        E 16 b0 0b 66
        E 16 b0 0b 5d
        E 16 b0 0b 4c
        E 16 b0 0b 44
        E 16 b0 0b 33
        E 16 b0 0b 2a
        E 16 b0 0b 19
        E 16 b0 0b 11
        E 16 80 3c 00
        E 32 b0 0b 7f
        E 0 90 3b 7f
        E 16 b0 0b 77
        E 16 b0 0b 66
        E 16 b0 0b 5d
        E 16 b0 0b 4c
        E 16 b0 0b 44
        E 16 b0 0b 33
        E 16 b0 0b 2a
        E 16 b0 0b 19
        E 16 b0 0b 11
        E 16 80 3b 00
        E 32 b0 0b 7f
        E 0 90 39 7f
        E 16 b0 0b 77
        E 16 b0 0b 66
        E 16 b0 0b 5d
        E 16 b0 0b 4c
        E 16 b0 0b 44
        E 16 b0 0b 33
        E 16 b0 0b 2a
        E 16 b0 0b 19
        E 16 b0 0b 11
        E 16 80 39 00
        E 32 b0 0b 7f
        E 0 90 3e 7f
        E 32 b0 0b 77
        E 32 b0 0b 6e
        E 32 b0 0b 66
        E 32 b0 0b 5d
        E 32 b0 0b 55
        E 32 b0 0b 4c
        E 32 b0 0b 44
        E 32 b0 0b 3b
        E 32 b0 0b 33
        E 32 b0 0b 2a
        E 32 b0 0b 22
        E 32 b0 0b 19
        E 32 b0 0b 11
        E 32 b0 0b 08
        E 32 80 3e 00
        E 96 b0 0b 7f
        E 0 90 3e 7f
        E 32 b0 0b 77
        E 32 b0 0b 6e
        E 32 b0 0b 7f
        E 32 b0 0b 77
        E 32 b0 0b 6e
        E 32 b0 0b 7f
        E 32 b0 0b 77
        E 32 b0 0b 6e
        E 32 b0 0b 66
        E 32 b0 0b 5d
        E 32 b0 0b 55
        E 32 b0 0b 4c
        E 32 b0 0b 44
        E 32 b0 0b 3b
        E 32 b0 0b 33
        E 32 b0 0b 2a
        E 32 b0 0b 22
        E 32 b0 0b 19
        E 32 b0 0b 11
        E 32 b0 0b 08
        E 32 80 3e 00
        E 96 b0 0b 7f
        E 0 90 3e 7f
        E 32 b0 0b 77
        E 32 b0 0b 6e
        E 32 b0 0b 7f
        E 32 b0 0b 77
        E 32 b0 0b 6e
        E 32 b0 0b 7f
        E 0 80 3e 00
        E 0 90 3f 7f
        E 16 b0 0b 77
        E 16 b0 0b 66
        E 16 b0 0b 5d
        E 16 b0 0b 4c
        E 16 b0 0b 44
        E 16 b0 0b 33
        E 16 b0 0b 2a
        E 16 b0 0b 19
        E 16 b0 0b 11
        E 16 80 3f 00
        E 32 b0 0b 7f
        E 0 90 3c 7f
        E 16 b0 0b 77
        E 16 b0 0b 66
        E 16 b0 0b 5d
        E 16 b0 0b 4c
        E 16 b0 0b 44
        E 16 b0 0b 33
        E 16 b0 0b 2a
        E 16 b0 0b 19
        E 16 b0 0b 11
        E 16 80 3c 00
        E 32 b0 0b 7f
        E 0 90 38 7f
        E 16 b0 0b 77
        E 16 b0 0b 66
        E 16 b0 0b 5d
        E 16 b0 0b 4c
        E 16 b0 0b 44
        E 16 b0 0b 33
        E 16 b0 0b 2a
        E 16 b0 0b 19
        E 16 b0 0b 11
        E 16 80 38 00
        E 32 b0 0b 7f
        E 0 90 3c 7f
        E 16 b0 0b 77
        E 16 b0 0b 66
        E 16 b0 0b 5d
        E 16 b0 0b 4c
        E 16 b0 0b 44
        E 16 b0 0b 33
        E 16 b0 0b 2a
        E 16 b0 0b 19
        E 16 b0 0b 11
        E 16 80 3c 00
        E 32 b0 0b 7f
        E 0 90 3e 7f
        E 16 b0 0b 77
        E 16 b0 0b 66
        E 16 b0 0b 5d
        E 16 b0 0b 4c
        E 16 b0 0b 44
        E 16 b0 0b 33
        E 16 b0 0b 2a
        E 16 b0 0b 19
        E 16 b0 0b 11
        E 16 80 3e 00
        E 32 b0 0b 7f
        E 0 90 3f 7f
        E 16 b0 0b 77
        E 16 b0 0b 66
        E 16 b0 0b 5d
        E 16 b0 0b 4c
        E 16 b0 0b 44
        E 16 b0 0b 33
        E 16 b0 0b 2a
        E 16 b0 0b 19
        E 16 b0 0b 11
        E 16 80 3f 00
        E 32 b0 0b 7f
        E 0 90 3e 7f
        E 16 b0 0b 77
        E 16 b0 0b 66
        E 16 b0 0b 5d
        E 16 b0 0b 4c
        E 16 b0 0b 44
        E 16 b0 0b 33
        E 16 b0 0b 2a
        E 16 b0 0b 19
        E 16 b0 0b 11
        E 16 80 3e 00
        E 32 b0 0b 7f
        E 0 90 3c 7f
        E 16 b0 0b 77
        E 16 b0 0b 66
        E 16 b0 0b 5d
        E 16 b0 0b 4c
        E 16 b0 0b 44
        E 16 b0 0b 33
        E 16 b0 0b 2a
        E 16 b0 0b 19
        E 16 b0 0b 11
        E 16 80 3c 00
        E 32 b0 0b 7f
        E 0 90 3a 7f
        E 32 b0 0b 77
        E 32 b0 0b 6e
        E 32 b0 0b 66
        E 32 b0 0b 5d
        E 32 b0 0b 55
        E 32 b0 0b 4c
        E 32 b0 0b 44
        E 32 b0 0b 3b
        E 32 b0 0b 33
        E 32 b0 0b 2a
        E 32 b0 0b 22
        E 32 b0 0b 19
        E 32 b0 0b 11
        E 32 b0 0b 08
        E 32 80 3a 00
        E 96 b0 0b 7f
        E 0 90 3a 7f
        E 32 b0 0b 77
        E 32 b0 0b 6e
        E 32 b0 0b 7f
        E 32 b0 0b 77
        E 32 b0 0b 6e
        E 32 b0 0b 7f
        E 32 b0 0b 77
        E 32 b0 0b 6e
        E 32 b0 0b 66
        E 32 b0 0b 5d
        E 32 b0 0b 55
        E 32 b0 0b 4c
        E 32 b0 0b 44
        E 32 b0 0b 3b
        E 32 b0 0b 33
        E 32 b0 0b 2a
        E 32 b0 0b 22
        E 32 b0 0b 19
        E 32 b0 0b 11
        E 32 b0 0b 08
        E 32 80 3a 00
        E 96 b0 0b 7f
        E 0 90 3a 7f
        E 32 b0 0b 77
        E 32 b0 0b 6e
        E 32 b0 0b 7f
        E 32 b0 0b 77
        E 32 b0 0b 6e
        E 32 b0 0b 7f
        E 0 80 3a 00
        E 0 90 3f 7f
        E 16 b0 0b 77
        E 16 b0 0b 66
        E 16 b0 0b 5d
        E 16 b0 0b 4c
        E 16 b0 0b 44
        E 16 b0 0b 33
        E 16 b0 0b 2a
        E 16 b0 0b 19
        E 16 b0 0b 11
        E 16 80 3f 00
        E 32 b0 0b 7f
        E 0 90 3c 7f
        E 16 b0 0b 77
        E 16 b0 0b 66
        E 16 b0 0b 5d
        E 16 b0 0b 4c
        E 16 b0 0b 44
        E 16 b0 0b 33
        E 16 b0 0b 2a
        E 16 b0 0b 19
        E 16 b0 0b 11
        E 16 80 3c 00
        E 32 b0 0b 7f
        E 0 90 38 7f
        E 16 b0 0b 77
        E 16 b0 0b 66
        E 16 b0 0b 5d
        E 16 b0 0b 4c
        E 16 b0 0b 44
        E 16 b0 0b 33
        E 16 b0 0b 2a
        E 16 b0 0b 19
        E 16 b0 0b 11
        E 16 80 38 00
        E 32 b0 0b 7f
        E 0 90 3c 7f
        E 16 b0 0b 77
        E 16 b0 0b 66
        E 16 b0 0b 5d
        E 16 b0 0b 4c
        E 16 b0 0b 44
        E 16 b0 0b 33
        E 16 b0 0b 2a
        E 16 b0 0b 19
        E 16 b0 0b 11
        E 16 80 3c 00
        E 32 b0 0b 7f
        E 0 90 3e 7f
        E 16 b0 0b 77
        E 16 b0 0b 66
        E 16 b0 0b 5d
        E 16 b0 0b 4c
        E 16 b0 0b 44
        E 16 b0 0b 33
        E 16 b0 0b 2a
        E 16 b0 0b 19
        E 16 b0 0b 11
        E 16 80 3e 00
        E 32 b0 0b 7f
        E 0 90 3f 7f
        E 16 b0 0b 77
        E 16 b0 0b 66
        E 16 b0 0b 5d
        E 16 b0 0b 4c
        E 16 b0 0b 44
        E 16 b0 0b 33
        E 16 b0 0b 2a
        E 16 b0 0b 19
        E 16 b0 0b 11
        E 16 80 3f 00
        E 32 b0 0b 7f
        E 0 90 3e 7f
        E 16 b0 0b 77
        E 16 b0 0b 66
        E 16 b0 0b 5d
        E 16 b0 0b 4c
        E 16 b0 0b 44
        E 16 b0 0b 33
        E 16 b0 0b 2a
        E 16 b0 0b 19
        E 16 b0 0b 11
        E 16 80 3e 00
        E 32 b0 0b 7f
        E 0 90 3c 7f
        E 16 b0 0b 77
        E 16 b0 0b 66
        E 16 b0 0b 5d
        E 16 b0 0b 4c
        E 16 b0 0b 44
        E 16 b0 0b 33
        E 16 b0 0b 2a
        E 16 b0 0b 19
        E 16 b0 0b 11
        E 16 80 3c 00
        E 32 b0 0b 7f
        E 0 90 41 7f
        E 32 b0 0b 77
        E 32 b0 0b 6e
        E 32 b0 0b 66
        E 32 b0 0b 5d
        E 32 b0 0b 55
        E 32 b0 0b 4c
        E 32 b0 0b 44
        E 32 b0 0b 3b
        E 32 b0 0b 33
        E 32 b0 0b 2a
        E 32 b0 0b 22
        E 32 b0 0b 19
        E 32 b0 0b 11
        E 32 b0 0b 08
        E 32 80 41 00
        E 96 b0 0b 7f
        E 0 90 41 7f
        E 32 b0 0b 77
        E 32 b0 0b 6e
        E 32 b0 0b 7f
        E 32 b0 0b 77
        E 32 b0 0b 6e
        E 32 b0 0b 7f
        E 32 b0 0b 77
        E 32 b0 0b 6e
        E 32 b0 0b 66
        E 32 b0 0b 5d
        E 32 b0 0b 55
        E 32 b0 0b 4c
        E 32 b0 0b 44
        E 32 b0 0b 3b
        E 32 b0 0b 33
        E 32 b0 0b 2a
        E 32 b0 0b 22
        E 32 b0 0b 19
        E 32 b0 0b 11
        E 32 b0 0b 08
        E 32 80 41 00
        E 96 b0 0b 7f
        E 0 90 41 7f
        E 32 b0 0b 77
        E 32 b0 0b 6e
        E 32 b0 0b 7f
        E 32 b0 0b 77
        E 32 b0 0b 6e
        E 32 b0 0b 7f
        E 0 80 41 00
        E 0 90 32 7f
        E 16 b0 0b 66
        E 16 b0 0b 4c
        E 16 b0 0b 33
        E 16 b0 0b 19
        E 16 80 32 00
        E 112 b0 0b 7f
        E 0 90 32 7f
        E 16 b0 0b 66
        E 16 b0 0b 4c
        E 16 b0 0b 33
        E 16 b0 0b 19
        E 16 80 32 00
        E 112 b0 0b 7f
        E 0 90 35 7f
        E 16 b0 0b 66
        E 16 b0 0b 4c
        E 16 b0 0b 33
        E 16 b0 0b 19
        E 16 80 35 00
        E 112 b0 0b 7f
        E 0 90 32 7f
        E 16 b0 0b 66
        E 16 b0 0b 4c
        E 16 b0 0b 33
        E 16 b0 0b 19
        E 16 80 32 00
        E 112 b0 0b 7f
        E 0 90 30 7f
        E 16 b0 0b 66
        E 16 b0 0b 4c
        E 16 b0 0b 33
        E 16 b0 0b 19
        E 16 80 30 00
        E 112 b0 0b 7f
        E 0 90 34 7f
        E 32 b0 0b 77
        E 16 b0 0b 6e
        E 16 b0 0b 66
        E 32 b0 0b 5d
        E 16 b0 0b 55
        E 16 b0 0b 4c
        E 32 b0 0b 44
        E 16 b0 0b 3b
        E 16 b0 0b 33
        E 32 b0 0b 2a
        E 16 b0 0b 22
        E 16 b0 0b 19
        E 32 b0 0b 11
        E 16 b0 0b 08
        E 16 80 34 00
        E 64 b0 0b 7f
        E 0 90 32 7f
        E 32 b0 0b 77
        E 16 b0 0b 6e
        E 16 b0 0b 66
        E 32 b0 0b 5d
        E 16 b0 0b 55
        E 16 b0 0b 4c
        E 32 b0 0b 44
        E 16 b0 0b 3b
        E 16 b0 0b 33
        E 32 b0 0b 2a
        E 16 b0 0b 22
        E 16 b0 0b 19
        E 32 b0 0b 11
        E 16 b0 0b 08
        E 16 80 32 00
        E 64 b0 0b 7f
        E 0 90 32 7f
        E 16 b0 0b 66
        E 16 b0 0b 4c
        E 16 b0 0b 33
        E 16 b0 0b 19
        E 16 80 32 00
        E 112 b0 0b 7f
        E 0 90 35 7f
        E 16 b0 0b 66
        E 16 b0 0b 4c
        E 16 b0 0b 33
        E 16 b0 0b 19
        E 16 80 35 00
        E 112 b0 0b 7f
        E 0 90 32 7f
        E 16 b0 0b 66
        E 16 b0 0b 4c
        E 16 b0 0b 33
        E 16 b0 0b 19
        E 16 80 32 00
        E 112 b0 0b 7f
        E 0 90 34 7f
        E 16 b0 0b 66
        E 16 b0 0b 4c
        E 16 b0 0b 33
        E 16 b0 0b 19
        E 16 80 34 00
        E 112 b0 0b 7f
        E 0 90 37 7f
        E 32 b0 0b 77
        E 16 b0 0b 6e
        E 16 b0 0b 66
        E 32 b0 0b 5d
        E 16 b0 0b 55
        E 16 b0 0b 4c
        E 32 b0 0b 44
        E 16 b0 0b 3b
        E 16 b0 0b 33
        E 32 b0 0b 2a
        E 16 b0 0b 22
        E 16 b0 0b 19
        E 32 b0 0b 11
        E 16 b0 0b 08
        E 16 80 37 00
        E 64 b0 0b 7f
        E 0 90 37 7f
        E 16 b0 0b 66
        E 16 b0 0b 4c
        E 16 b0 0b 33
        E 16 b0 0b 19
        E 16 80 37 00
        E 112 b0 0b 7f
        E 0 90 32 7f
        E 16 b0 0b 66
        E 16 b0 0b 4c
        E 16 b0 0b 33
        E 16 b0 0b 19
        E 16 80 32 00
        E 112 b0 0b 7f
        E 0 90 32 7f
        E 16 b0 0b 66
        E 16 b0 0b 4c
        E 16 b0 0b 33
        E 16 b0 0b 19
        E 16 80 32 00
        E 112 b0 0b 7f
        E 0 90 35 7f
        E 16 b0 0b 66
        E 16 b0 0b 4c
        E 16 b0 0b 33
        E 16 b0 0b 19
        E 16 80 35 00
        E 112 b0 0b 7f
        E 0 90 32 7f
        E 16 b0 0b 66
        E 16 b0 0b 4c
        E 16 b0 0b 33
        E 16 b0 0b 19
        E 16 80 32 00
        E 112 b0 0b 7f
        E 0 90 30 7f
        E 16 b0 0b 66
        E 16 b0 0b 4c
        E 16 b0 0b 33
        E 16 b0 0b 19
        E 16 80 30 00
        E 112 b0 0b 7f
        E 0 90 34 7f
        E 32 b0 0b 77
        E 16 b0 0b 6e
        E 16 b0 0b 66
        E 32 b0 0b 5d
        E 16 b0 0b 55
        E 16 b0 0b 4c
        E 32 b0 0b 44
        E 16 b0 0b 3b
        E 16 b0 0b 33
        E 32 b0 0b 2a
        E 16 b0 0b 22
        E 16 b0 0b 19
        E 32 b0 0b 11
        E 16 b0 0b 08
        E 16 80 34 00
        E 64 b0 0b 7f
        E 0 90 32 7f
        E 32 b0 0b 77
        E 16 b0 0b 6e
        E 16 b0 0b 66
        E 32 b0 0b 5d
        E 16 b0 0b 55
        E 16 b0 0b 4c
        E 32 b0 0b 44
        E 16 b0 0b 3b
        E 16 b0 0b 33
        E 32 b0 0b 2a
        E 16 b0 0b 22
        E 16 b0 0b 19
        E 32 b0 0b 11
        E 16 b0 0b 08
        E 16 80 32 00
        E 64 b0 0b 7f
        E 0 90 32 7f
        E 16 b0 0b 66
        E 16 b0 0b 4c
        E 16 b0 0b 33
        E 16 b0 0b 19
        E 16 80 32 00
        E 112 b0 0b 7f
        E 0 90 35 7f
        E 16 b0 0b 66
        E 16 b0 0b 4c
        E 16 b0 0b 33
        E 16 b0 0b 19
        E 16 80 35 00
        E 112 b0 0b 7f
        E 0 90 32 7f
        E 16 b0 0b 66
        E 16 b0 0b 4c
        E 16 b0 0b 33
        E 16 b0 0b 19
        E 16 80 32 00
        E 112 b0 0b 7f
        E 0 90 34 7f
        E 16 b0 0b 66
        E 16 b0 0b 4c
        E 16 b0 0b 33
        E 16 b0 0b 19
        E 16 80 34 00
        E 112 b0 0b 7f
        E 0 90 37 7f
        E 32 b0 0b 77
        E 16 b0 0b 6e
        E 16 b0 0b 66
        E 32 b0 0b 5d
        E 16 b0 0b 55
        E 16 b0 0b 4c
        E 32 b0 0b 44
        E 16 b0 0b 3b
        E 16 b0 0b 33
        E 32 b0 0b 2a
        E 16 b0 0b 22
        E 16 b0 0b 19
        E 32 b0 0b 11
        E 16 b0 0b 08
        E 16 80 37 00
        E 64 b0 0b 7f
        E 0 90 37 7f
        E 16 b0 0b 66
        E 16 b0 0b 4c
        E 16 b0 0b 33
        E 16 b0 0b 19
        E 16 80 37 00
        E 112 b0 0b 7f
        E 0 90 31 7f
        E 16 b0 0b 77
        E 16 b0 0b 66
        E 16 b0 0b 5d
        E 16 b0 0b 4c
        E 16 b0 0b 44
        E 16 b0 0b 33
        E 16 b0 0b 2a
        E 16 b0 0b 19
        E 16 b0 0b 11
        E 16 80 31 00
        E 32 b0 0b 7f
        E 0 90 32 7f
        E 16 b0 0b 77
        E 16 b0 0b 66
        E 16 b0 0b 5d
        E 16 b0 0b 4c
        E 16 b0 0b 44
        E 32 b0 0b 33
        E 16 b0 0b 2a
        E 16 b0 0b 19
        E 16 b0 0b 11
        E 16 80 32 00
        E 16 b0 0b 7f
        E 0 90 35 7f
        E 16 b0 0b 77
        E 16 b0 0b 66
        E 16 b0 0b 5d
        E 16 b0 0b 4c
        E 16 b0 0b 44
        E 32 b0 0b 33
        E 16 b0 0b 2a
        E 16 b0 0b 19
        E 16 b0 0b 11
        E 16 80 35 00
        E 16 b0 0b 7f
        E 0 90 39 7f
        E 16 b0 0b 77
        E 16 b0 0b 66
        E 16 b0 0b 5d
        E 16 b0 0b 4c
        E 16 b0 0b 44
        E 32 b0 0b 33
        E 16 b0 0b 2a
        E 16 b0 0b 19
        E 16 b0 0b 11
        E 16 80 39 00
        E 16 b0 0b 66
        E 0 90 3e 66
        E 16 b0 0b 5d
        E 16 b0 0b 55
        E 16 b0 0b 4c
        E 16 b0 0b 44
        E 16 b0 0b 3b
        E 16 b0 0b 33
        E 16 b0 0b 2a
        E 16 b0 0b 22
        E 16 b0 0b 2a
        E 16 b0 0b 33
        E 16 b0 0b 3b
        E 16 b0 0b 44
        E 16 b0 0b 3b
        E 16 b0 0b 33
        E 16 b0 0b 2a
        E 16 b0 0b 22
        E 16 b0 0b 2a
        E 16 b0 0b 33
        E 16 b0 0b 3b
        E 16 b0 0b 44
        E 16 b0 0b 3b
        E 16 b0 0b 33
        E 16 b0 0b 2a
        E 16 b0 0b 22
        E 16 b0 0b 2a
        E 16 b0 0b 33
        E 16 b0 0b 3b
        E 16 b0 0b 44
        E 16 b0 0b 4c
        E 16 b0 0b 55
        E 16 b0 0b 5d
        E 1232 b0 0b 7f
        E 0 80 3e 00
        E 0 90 3b 7f
        E 16 b0 0b 66
        E 16 b0 0b 4c
        E 16 b0 0b 33
        E 16 b0 0b 7f
        E 0 80 3b 00
        E 0 90 3c 7f
        E 16 b0 0b 66
        E 16 b0 0b 4c
        E 16 b0 0b 33
        E 16 b0 0b 7f
        E 0 80 3c 00
        E 0 90 3b 7f
        E 16 b0 0b 66
        E 16 b0 0b 4c
        E 16 b0 0b 33
        E 16 b0 0b 7f
        E 0 80 3b 00
        E 0 90 39 7f
        E 16 b0 0b 66
        E 16 b0 0b 4c
        E 16 b0 0b 33
        E 16 b0 0b 19
        E 16 80 39 00
        E 112 b0 0b 7f
        E 0 90 3b 7f
        E 16 b0 0b 66
        E 16 b0 0b 4c
        E 16 b0 0b 33
        E 16 b0 0b 19
        E 16 80 3b 00
        E 112 b0 0b 7f
        E 0 90 3c 7f
        E 16 b0 0b 77
        E 16 b0 0b 66
        E 16 b0 0b 5d
        E 16 b0 0b 4c
        E 16 b0 0b 44
        E 16 b0 0b 33
        E 16 b0 0b 2a
        E 16 b0 0b 19
        E 16 b0 0b 11
        E 16 80 3c 00
        E 32 b0 0b 7f
        E 0 90 3b 7f
        E 16 b0 0b 77
        E 16 b0 0b 66
        E 16 b0 0b 5d
        E 16 b0 0b 4c
        E 16 b0 0b 44
        E 32 b0 0b 33
        E 16 b0 0b 2a
        E 16 b0 0b 19
        E 16 b0 0b 11
        E 16 80 3b 00
        E 16 b0 0b 7f
        E 0 90 39 7f
        E 16 b0 0b 77
        E 16 b0 0b 66
        E 16 b0 0b 5d
        E 16 b0 0b 4c
        E 16 b0 0b 44
        E 32 b0 0b 33
        E 16 b0 0b 2a
        E 16 b0 0b 19
        E 16 b0 0b 11
        E 16 80 39 00
        E 16 b0 0b 7f
        E 0 90 37 7f
        E 16 b0 0b 77
        E 16 b0 0b 66
        E 16 b0 0b 5d
        E 16 b0 0b 4c
        E 16 b0 0b 44
        E 32 b0 0b 33
        E 16 b0 0b 2a
        E 16 b0 0b 19
        E 16 b0 0b 11
        E 16 80 37 00
        E 16 b0 0b 7f
        E 0 90 35 7f
        E 16 b0 0b 77
        E 16 b0 0b 66
        E 16 b0 0b 5d
        E 16 b0 0b 4c
        E 16 b0 0b 44
        E 16 b0 0b 33
        E 16 b0 0b 2a
        E 16 b0 0b 19
        E 16 b0 0b 11
        E 16 80 35 00
        E 32 b0 0b 7f
        E 0 90 37 7f
        E 16 b0 0b 77
        E 16 b0 0b 66
        E 16 b0 0b 5d
        E 16 b0 0b 4c
        E 16 b0 0b 44
        E 32 b0 0b 33
        E 16 b0 0b 2a
        E 16 b0 0b 19
        E 16 b0 0b 11
        E 16 80 37 00
        E 16 b0 0b 7f
        E 0 90 39 7f
        E 16 b0 0b 77
        E 16 b0 0b 66
        E 16 b0 0b 5d
        E 16 b0 0b 4c
        E 16 b0 0b 44
        E 32 b0 0b 33
        E 16 b0 0b 2a
        E 16 b0 0b 19
        E 16 b0 0b 11
        E 16 80 39 00
        E 16 b0 0b 7f
        E 0 90 35 7f
        E 16 b0 0b 77
        E 16 b0 0b 66
        E 16 b0 0b 5d
        E 16 b0 0b 4c
        E 16 b0 0b 44
        E 32 b0 0b 33
        E 16 b0 0b 2a
        E 16 b0 0b 19
        E 16 b0 0b 11
        E 16 80 35 00
        E 16 b0 0b 66
        E 0 90 32 66
        E 16 b0 0b 5d
        E 16 b0 0b 55
        E 16 b0 0b 4c
        E 16 b0 0b 44
        E 16 b0 0b 3b
        E 16 b0 0b 33
        E 16 b0 0b 2a
        E 16 b0 0b 22
        E 16 b0 0b 2a
        E 16 b0 0b 33
        E 16 b0 0b 3b
        E 16 b0 0b 44
        E 16 b0 0b 3b
        E 16 b0 0b 33
        E 16 b0 0b 2a
        E 16 b0 0b 22
        E 16 b0 0b 2a
        E 16 b0 0b 33
        E 16 b0 0b 3b
        E 16 b0 0b 44
        E 16 b0 0b 3b
        E 16 b0 0b 33
        E 16 b0 0b 2a
        E 16 b0 0b 22
        E 16 b0 0b 2a
        E 16 b0 0b 33
        E 16 b0 0b 3b
        E 16 b0 0b 44
        E 16 b0 0b 4c
        E 16 b0 0b 55
        E 16 b0 0b 5d
        E 1040 b0 0b 7f
        E 0 80 32 00
        E 0 90 31 7f
        E 16 b0 0b 77
        E 16 b0 0b 66
        E 16 b0 0b 5d
        E 16 b0 0b 4c
        E 16 b0 0b 44
        E 16 b0 0b 33
        E 16 b0 0b 2a
        E 16 b0 0b 19
        E 16 b0 0b 11
        E 16 80 31 00
        E 32 b0 0b 7f
        E 0 90 32 7f
        E 16 b0 0b 77
        E 16 b0 0b 66
        E 16 b0 0b 5d
        E 16 b0 0b 4c
        E 16 b0 0b 44
        E 32 b0 0b 33
        E 16 b0 0b 2a
        E 16 b0 0b 19
        E 16 b0 0b 11
        E 16 80 32 00
        E 16 b0 0b 7f
        E 0 90 35 7f
        E 16 b0 0b 77
        E 16 b0 0b 66
        E 16 b0 0b 5d
        E 16 b0 0b 4c
        E 16 b0 0b 44
        E 32 b0 0b 33
        E 16 b0 0b 2a
        E 16 b0 0b 19
        E 16 b0 0b 11
        E 16 80 35 00
        E 16 b0 0b 7f
        E 0 90 39 7f
        E 16 b0 0b 77
        E 16 b0 0b 66
        E 16 b0 0b 5d
        E 16 b0 0b 4c
        E 16 b0 0b 44
        E 32 b0 0b 33
        E 16 b0 0b 2a
        E 16 b0 0b 19
        E 16 b0 0b 11
        E 16 80 39 00
        E 16 b0 0b 66
        E 0 90 3e 66
        E 16 b0 0b 5d
        E 16 b0 0b 55
        E 16 b0 0b 4c
        E 16 b0 0b 44
        E 16 b0 0b 3b
        E 16 b0 0b 33
        E 16 b0 0b 2a
        E 16 b0 0b 22
        E 16 b0 0b 2a
        E 16 b0 0b 33
        E 16 b0 0b 3b
        E 16 b0 0b 44
        E 16 b0 0b 3b
        E 16 b0 0b 33
        E 16 b0 0b 2a
        E 16 b0 0b 22
        E 16 b0 0b 2a
        E 16 b0 0b 33
        E 16 b0 0b 3b
        E 16 b0 0b 44
        E 16 b0 0b 3b
        E 16 b0 0b 33
        E 16 b0 0b 2a
        E 16 b0 0b 22
        E 16 b0 0b 2a
        E 16 b0 0b 33
        E 16 b0 0b 3b
        E 16 b0 0b 44
        E 16 b0 0b 4c
        E 16 b0 0b 55
        E 16 b0 0b 5d
        E 1040 80 3e 00
        E 192 b0 0b 7f
        E 0 90 3b 7f
        E 16 b0 0b 66
        E 16 b0 0b 4c
        E 16 b0 0b 33
        E 16 b0 0b 7f
        E 0 80 3b 00
        E 0 90 3c 7f
        E 16 b0 0b 66
        E 16 b0 0b 4c
        E 16 b0 0b 33
        E 16 b0 0b 7f
        E 0 80 3c 00
        E 0 90 3b 7f
        E 16 b0 0b 66
        E 16 b0 0b 4c
        E 16 b0 0b 33
        E 16 b0 0b 7f
        E 0 80 3b 00
        E 0 90 39 7f
        E 16 b0 0b 66
        E 16 b0 0b 4c
        E 16 b0 0b 33
        E 16 b0 0b 19
        E 16 80 39 00
        E 112 b0 0b 7f
        E 0 90 3b 7f
        E 16 b0 0b 66
        E 16 b0 0b 4c
        E 16 b0 0b 33
        E 16 b0 0b 19
        E 16 80 3b 00
        E 112 b0 0b 7f
        E 0 90 3c 7f
        E 16 b0 0b 77
        E 16 b0 0b 66
        E 16 b0 0b 5d
        E 16 b0 0b 4c
        E 16 b0 0b 44
        E 16 b0 0b 33
        E 16 b0 0b 2a
        E 16 b0 0b 19
        E 16 b0 0b 11
        E 16 80 3c 00
        E 32 b0 0b 7f
        E 0 90 39 7f
        E 16 b0 0b 77
        E 16 b0 0b 66
        E 16 b0 0b 5d
        E 16 b0 0b 4c
        E 16 b0 0b 44
        E 32 b0 0b 33
        E 16 b0 0b 2a
        E 16 b0 0b 19
        E 16 b0 0b 11
        E 16 80 39 00
        E 16 b0 0b 7f
        E 0 90 35 7f
        E 16 b0 0b 77
        E 16 b0 0b 66
        E 16 b0 0b 5d
        E 16 b0 0b 4c
        E 16 b0 0b 44
        E 32 b0 0b 33
        E 16 b0 0b 2a
        E 16 b0 0b 19
        E 16 b0 0b 11
        E 16 80 35 00
        E 16 b0 0b 7f
        E 0 90 39 7f
        E 16 b0 0b 77
        E 16 b0 0b 66
        E 16 b0 0b 5d
        E 16 b0 0b 4c
        E 16 b0 0b 44
        E 32 b0 0b 33
        E 16 b0 0b 2a
        E 16 b0 0b 19
        E 16 b0 0b 11
        E 16 80 39 00
        E 16 b0 0b 7f
        E 0 90 40 7f
        E 16 b0 0b 77
        E 16 b0 0b 66
        E 16 b0 0b 5d
        E 16 b0 0b 4c
        E 16 b0 0b 44
        E 16 b0 0b 33
        E 16 b0 0b 2a
        E 16 b0 0b 19
        E 16 b0 0b 11
        E 16 80 40 00
        E 32 b0 0b 7f
        E 0 90 41 7f
        E 16 b0 0b 77
        E 16 b0 0b 66
        E 16 b0 0b 5d
        E 16 b0 0b 4c
        E 16 b0 0b 44
        E 32 b0 0b 33
        E 16 b0 0b 2a
        E 16 b0 0b 19
        E 16 b0 0b 11
        E 16 80 41 00
        E 16 b0 0b 7f
        E 0 90 40 7f
        E 16 b0 0b 77
        E 16 b0 0b 66
        E 16 b0 0b 5d
        E 16 b0 0b 4c
        E 16 b0 0b 44
        E 32 b0 0b 33
        E 16 b0 0b 2a
        E 16 b0 0b 19
        E 16 b0 0b 11
        E 16 80 40 00
        E 16 b0 0b 7f
        E 0 90 3c 7f
        E 16 b0 0b 77
        E 16 b0 0b 66
        E 16 b0 0b 5d
        E 16 b0 0b 4c
        E 16 b0 0b 44
        E 32 b0 0b 33
        E 16 b0 0b 2a
        E 16 b0 0b 19
        E 16 b0 0b 11
        E 16 80 3c 00
        E 16 b0 0b 66
        E 0 90 3e 66
        E 16 b0 0b 5d
        E 16 b0 0b 55
        E 16 b0 0b 4c
        E 16 b0 0b 44
        E 16 b0 0b 3b
        E 16 b0 0b 33
        E 16 b0 0b 2a
        E 16 b0 0b 22
        E 16 b0 0b 2a
        E 16 b0 0b 33
        E 16 b0 0b 3b
        E 16 b0 0b 44
        E 16 b0 0b 3b
        E 16 b0 0b 33
        E 16 b0 0b 2a
        E 16 b0 0b 22
        E 16 b0 0b 2a
        E 16 b0 0b 33
        E 16 b0 0b 3b
        E 16 b0 0b 44
        E 16 b0 0b 3b
        E 16 b0 0b 33
        E 16 b0 0b 2a
        E 16 b0 0b 22
        E 16 b0 0b 2a
        E 16 b0 0b 33
        E 16 b0 0b 3b
        E 16 b0 0b 44
        E 16 b0 0b 4c
        E 16 b0 0b 55
        E 16 b0 0b 5d
        E 1040 b0 0b 7f
        E 0 80 3e 00
        E 0 90 3c 7f
        E 16 b0 0b 77
        E 16 b0 0b 66
        E 16 b0 0b 5d
        E 16 b0 0b 4c
        E 16 b0 0b 44
        E 16 b0 0b 33
        E 16 b0 0b 2a
        E 16 b0 0b 19
        E 16 b0 0b 11
        E 16 80 3c 00
        E 32 b0 0b 7f
        E 0 90 39 7f
        E 16 b0 0b 77
        E 16 b0 0b 66
        E 16 b0 0b 5d
        E 16 b0 0b 4c
        E 16 b0 0b 44
        E 16 b0 0b 33
        E 16 b0 0b 2a
        E 16 b0 0b 19
        E 16 b0 0b 11
        E 16 80 39 00
        E 32 b0 0b 7f
        E 0 90 35 7f
        E 16 b0 0b 77
        E 16 b0 0b 66
        E 16 b0 0b 5d
        E 16 b0 0b 4c
        E 16 b0 0b 44
        E 16 b0 0b 33
        E 16 b0 0b 2a
        E 16 b0 0b 19
        E 16 b0 0b 11
        E 16 80 35 00
        E 32 b0 0b 7f
        E 0 90 39 7f
        E 16 b0 0b 77
        E 16 b0 0b 66
        E 16 b0 0b 5d
        E 16 b0 0b 4c
        E 16 b0 0b 44
        E 16 b0 0b 33
        E 16 b0 0b 2a
        E 16 b0 0b 19
        E 16 b0 0b 11
        E 16 80 39 00
        E 32 b0 0b 7f
        E 0 90 3b 7f
        E 16 b0 0b 77
        E 16 b0 0b 66
        E 16 b0 0b 5d
        E 16 b0 0b 4c
        E 16 b0 0b 44
        E 16 b0 0b 33
        E 16 b0 0b 2a
        E 16 b0 0b 19
        E 16 b0 0b 11
        E 16 80 3b 00
        E 32 b0 0b 7f
        E 0 90 3c 7f
        E 16 b0 0b 77
        E 16 b0 0b 66
        E 16 b0 0b 5d
        E 16 b0 0b 4c
        E 16 b0 0b 44
        E 16 b0 0b 33
        E 16 b0 0b 2a
        E 16 b0 0b 19
        E 16 b0 0b 11
        E 16 80 3c 00
        E 32 b0 0b 7f
        E 0 90 3b 7f
        E 16 b0 0b 77
        E 16 b0 0b 66
        E 16 b0 0b 5d
        E 16 b0 0b 4c
        E 16 b0 0b 44
        E 16 b0 0b 33
        E 16 b0 0b 2a
        E 16 b0 0b 19
        E 16 b0 0b 11
        E 16 80 3b 00
        E 32 b0 0b 7f
        E 0 90 39 7f
        E 16 b0 0b 77
        E 16 b0 0b 66
        E 16 b0 0b 5d
        E 16 b0 0b 4c
        E 16 b0 0b 44
        E 16 b0 0b 33
        E 16 b0 0b 2a
        E 16 b0 0b 19
        E 16 b0 0b 11
        E 16 80 39 00
        E 32 b0 0b 7f
        E 0 90 3b 7f
        E 32 b0 0b 77
        E 32 b0 0b 6e
        E 32 b0 0b 66
        E 32 b0 0b 5d
        E 32 b0 0b 55
        E 32 b0 0b 4c
        E 32 b0 0b 44
        E 32 b0 0b 3b
        E 32 b0 0b 33
        E 32 b0 0b 2a
        E 32 b0 0b 22
        E 32 b0 0b 19
        E 32 b0 0b 11
        E 32 b0 0b 08
        E 32 80 3b 00
        E 96 b0 0b 7f
        E 0 90 3b 7f
        E 32 b0 0b 77
        E 32 b0 0b 6e
        E 32 b0 0b 7f
        E 32 b0 0b 77
        E 32 b0 0b 6e
        E 32 b0 0b 7f
        E 32 b0 0b 77
        E 32 b0 0b 6e
        E 32 b0 0b 66
        E 32 b0 0b 5d
        E 32 b0 0b 55
        E 32 b0 0b 4c
        E 32 b0 0b 44
        E 32 b0 0b 3b
        E 32 b0 0b 33
        E 32 b0 0b 2a
        E 32 b0 0b 22
        E 32 b0 0b 19
        E 32 b0 0b 11
        E 32 b0 0b 08
        E 32 80 3b 00
        E 96 b0 0b 7f
        E 0 90 3b 7f
        E 32 b0 0b 77
        E 32 b0 0b 6e
        E 32 b0 0b 7f
        E 32 b0 0b 77
        E 32 b0 0b 6e
        E 32 b0 0b 7f
        E 0 80 3b 00
        E 0 90 3c 7f
        E 16 b0 0b 77
        E 16 b0 0b 66
        E 16 b0 0b 5d
        E 16 b0 0b 4c
        E 16 b0 0b 44
        E 16 b0 0b 33
        E 16 b0 0b 2a
        E 16 b0 0b 19
        E 16 b0 0b 11
        E 16 80 3c 00
        E 32 b0 0b 7f
        E 0 90 39 7f
        E 16 b0 0b 77
        E 16 b0 0b 66
        E 16 b0 0b 5d
        E 16 b0 0b 4c
        E 16 b0 0b 44
        E 16 b0 0b 33
        E 16 b0 0b 2a
        E 16 b0 0b 19
        E 16 b0 0b 11
        E 16 80 39 00
        E 32 b0 0b 7f
        E 0 90 35 7f
        E 16 b0 0b 77
        E 16 b0 0b 66
        E 16 b0 0b 5d
        E 16 b0 0b 4c
        E 16 b0 0b 44
        E 16 b0 0b 33
        E 16 b0 0b 2a
        E 16 b0 0b 19
        E 16 b0 0b 11
        E 16 80 35 00
        E 32 b0 0b 7f
        E 0 90 39 7f
        E 16 b0 0b 77
        E 16 b0 0b 66
        E 16 b0 0b 5d
        E 16 b0 0b 4c
        E 16 b0 0b 44
        E 16 b0 0b 33
        E 16 b0 0b 2a
        E 16 b0 0b 19
        E 16 b0 0b 11
        E 16 80 39 00
        E 32 b0 0b 7f
        E 0 90 3b 7f
        E 16 b0 0b 77
        E 16 b0 0b 66
        E 16 b0 0b 5d
        E 16 b0 0b 4c
        E 16 b0 0b 44
        E 16 b0 0b 33
        E 16 b0 0b 2a
        E 16 b0 0b 19
        E 16 b0 0b 11
        E 16 80 3b 00
        E 32 b0 0b 7f
        E 0 90 3c 7f
        E 16 b0 0b 77
        E 16 b0 0b 66
        E 16 b0 0b 5d
        E 16 b0 0b 4c
        E 16 b0 0b 44
        E 16 b0 0b 33
        E 16 b0 0b 2a
        E 16 b0 0b 19
        E 16 b0 0b 11
        E 16 80 3c 00
        E 32 b0 0b 7f
        E 0 90 3b 7f
        E 16 b0 0b 77
        E 16 b0 0b 66
        E 16 b0 0b 5d
        E 16 b0 0b 4c
        E 16 b0 0b 44
        E 16 b0 0b 33
        E 16 b0 0b 2a
        E 16 b0 0b 19
        E 16 b0 0b 11
        E 16 80 3b 00
        E 32 b0 0b 7f
        E 0 90 39 7f
        E 16 b0 0b 77
        E 16 b0 0b 66
        E 16 b0 0b 5d
        E 16 b0 0b 4c
        E 16 b0 0b 44
        E 16 b0 0b 33
        E 16 b0 0b 2a
        E 16 b0 0b 19
        E 16 b0 0b 11
        E 16 80 39 00
        E 32 b0 0b 7f
        E 0 90 3e 7f
        E 32 b0 0b 77
        E 32 b0 0b 6e
        E 32 b0 0b 66
        E 32 b0 0b 5d
        E 32 b0 0b 55
        E 32 b0 0b 4c
        E 32 b0 0b 44
        E 32 b0 0b 3b
        E 32 b0 0b 33
        E 32 b0 0b 2a
        E 32 b0 0b 22
        E 32 b0 0b 19
        E 32 b0 0b 11
        E 32 b0 0b 08
        E 32 80 3e 00
        E 96 b0 0b 7f
        E 0 90 3e 7f
        E 32 b0 0b 77
        E 32 b0 0b 6e
        E 32 b0 0b 7f
        E 32 b0 0b 77
        E 32 b0 0b 6e
        E 32 b0 0b 7f
        E 32 b0 0b 77
        E 32 b0 0b 6e
        E 32 b0 0b 66
        E 32 b0 0b 5d
        E 32 b0 0b 55
        E 32 b0 0b 4c
        E 32 b0 0b 44
        E 32 b0 0b 3b
        E 32 b0 0b 33
        E 32 b0 0b 2a
        E 32 b0 0b 22
        E 32 b0 0b 19
        E 32 b0 0b 11
        E 32 b0 0b 08
        E 32 80 3e 00
        E 96 b0 0b 7f
        E 0 90 3e 7f
        E 32 b0 0b 77
        E 32 b0 0b 6e
        E 32 b0 0b 7f
        E 32 b0 0b 77
        E 32 b0 0b 6e
        E 32 b0 0b 7f
        E 0 80 3e 00
        E 0 90 3f 7f
        E 16 b0 0b 77
        E 16 b0 0b 66
        E 16 b0 0b 5d
        E 16 b0 0b 4c
        E 16 b0 0b 44
        E 16 b0 0b 33
        E 16 b0 0b 2a
        E 16 b0 0b 19
        E 16 b0 0b 11
        E 16 80 3f 00
        E 32 b0 0b 7f
        E 0 90 3c 7f
        E 16 b0 0b 77
        E 16 b0 0b 66
        E 16 b0 0b 5d
        E 16 b0 0b 4c
        E 16 b0 0b 44
        E 16 b0 0b 33
        E 16 b0 0b 2a
        E 16 b0 0b 19
        E 16 b0 0b 11
        E 16 80 3c 00
        E 32 b0 0b 7f
        E 0 90 38 7f
        E 16 b0 0b 77
        E 16 b0 0b 66
        E 16 b0 0b 5d
        E 16 b0 0b 4c
        E 16 b0 0b 44
        E 16 b0 0b 33
        E 16 b0 0b 2a
        E 16 b0 0b 19
        E 16 b0 0b 11
        E 16 80 38 00
        E 32 b0 0b 7f
        E 0 90 3c 7f
        E 16 b0 0b 77
        E 16 b0 0b 66
        E 16 b0 0b 5d
        E 16 b0 0b 4c
        E 16 b0 0b 44
        E 16 b0 0b 33
        E 16 b0 0b 2a
        E 16 b0 0b 19
        E 16 b0 0b 11
        E 16 80 3c 00
        E 32 b0 0b 7f
        E 0 90 3e 7f
        E 16 b0 0b 77
        E 16 b0 0b 66
        E 16 b0 0b 5d
        E 16 b0 0b 4c
        E 16 b0 0b 44
        E 16 b0 0b 33
        E 16 b0 0b 2a
        E 16 b0 0b 19
        E 16 b0 0b 11
        E 16 80 3e 00
        E 32 b0 0b 7f
        E 0 90 3f 7f
        E 16 b0 0b 77
        E 16 b0 0b 66
        E 16 b0 0b 5d
        E 16 b0 0b 4c
        E 16 b0 0b 44
        E 16 b0 0b 33
        E 16 b0 0b 2a
        E 16 b0 0b 19
        E 16 b0 0b 11
        E 16 80 3f 00
        E 32 b0 0b 7f
        E 0 90 3e 7f
        E 16 b0 0b 77
        E 16 b0 0b 66
        E 16 b0 0b 5d
        E 16 b0 0b 4c
        E 16 b0 0b 44
        E 16 b0 0b 33
        E 16 b0 0b 2a
        E 16 b0 0b 19
        E 16 b0 0b 11
        E 16 80 3e 00
        E 32 b0 0b 7f
        E 0 90 3c 7f
        E 16 b0 0b 77
        E 16 b0 0b 66
        E 16 b0 0b 5d
        E 16 b0 0b 4c
        E 16 b0 0b 44
        E 16 b0 0b 33
        E 16 b0 0b 2a
        E 16 b0 0b 19
        E 16 b0 0b 11
        E 16 80 3c 00
        E 32 b0 0b 7f
        E 0 90 3a 7f
        E 32 b0 0b 77
        E 32 b0 0b 6e
        E 32 b0 0b 66
        E 32 b0 0b 5d
        E 32 b0 0b 55
        E 32 b0 0b 4c
        E 32 b0 0b 44
        E 32 b0 0b 3b
        E 32 b0 0b 33
        E 32 b0 0b 2a
        E 32 b0 0b 22
        E 32 b0 0b 19
        E 32 b0 0b 11
        E 32 b0 0b 08
        E 32 80 3a 00
        E 96 b0 0b 7f
        E 0 90 3a 7f
        E 32 b0 0b 77
        E 32 b0 0b 6e
        E 32 b0 0b 7f
        E 32 b0 0b 77
        E 32 b0 0b 6e
        E 32 b0 0b 7f
        E 32 b0 0b 77
        E 32 b0 0b 6e
        E 32 b0 0b 66
        E 32 b0 0b 5d
        E 32 b0 0b 55
        E 32 b0 0b 4c
        E 32 b0 0b 44
        E 32 b0 0b 3b
        E 32 b0 0b 33
        E 32 b0 0b 2a
        E 32 b0 0b 22
        E 32 b0 0b 19
        E 32 b0 0b 11
        E 32 b0 0b 08
        E 32 80 3a 00
        E 96 b0 0b 7f
        E 0 90 3a 7f
        E 32 b0 0b 77
        E 32 b0 0b 6e
        E 32 b0 0b 7f
        E 32 b0 0b 77
        E 32 b0 0b 6e
        E 32 b0 0b 7f
        E 0 80 3a 00
        E 0 90 3f 7f
        E 16 b0 0b 77
        E 16 b0 0b 66
        E 16 b0 0b 5d
        E 16 b0 0b 4c
        E 16 b0 0b 44
        E 16 b0 0b 33
        E 16 b0 0b 2a
        E 16 b0 0b 19
        E 16 b0 0b 11
        E 16 80 3f 00
        E 32 b0 0b 7f
        E 0 90 3c 7f
        E 16 b0 0b 77
        E 16 b0 0b 66
        E 16 b0 0b 5d
        E 16 b0 0b 4c
        E 16 b0 0b 44
        E 16 b0 0b 33
        E 16 b0 0b 2a
        E 16 b0 0b 19
        E 16 b0 0b 11
        E 16 80 3c 00
        E 32 b0 0b 7f
        E 0 90 38 7f
        E 16 b0 0b 77
        E 16 b0 0b 66
        E 16 b0 0b 5d
        E 16 b0 0b 4c
        E 16 b0 0b 44
        E 16 b0 0b 33
        E 16 b0 0b 2a
        E 16 b0 0b 19
        E 16 b0 0b 11
        E 16 80 38 00
        E 32 b0 0b 7f
        E 0 90 3c 7f
        E 16 b0 0b 77
        E 16 b0 0b 66
        E 16 b0 0b 5d
        E 16 b0 0b 4c
        E 16 b0 0b 44
        E 16 b0 0b 33
        E 16 b0 0b 2a
        E 16 b0 0b 19
        E 16 b0 0b 11
        E 16 80 3c 00
        E 32 b0 0b 7f
        E 0 90 3e 7f
        E 16 b0 0b 77
        E 16 b0 0b 66
        E 16 b0 0b 5d
        E 16 b0 0b 4c
        E 16 b0 0b 44
        E 16 b0 0b 33
        E 16 b0 0b 2a
        E 16 b0 0b 19
        E 16 b0 0b 11
        E 16 80 3e 00
        E 32 b0 0b 7f
        E 0 90 3f 7f
        E 16 b0 0b 77
        E 16 b0 0b 66
        E 16 b0 0b 5d
        E 16 b0 0b 4c
        E 16 b0 0b 44
        E 16 b0 0b 33
        E 16 b0 0b 2a
        E 16 b0 0b 19
        E 16 b0 0b 11
        E 16 80 3f 00
        E 32 b0 0b 7f
        E 0 90 3e 7f
        E 16 b0 0b 77
        E 16 b0 0b 66
        E 16 b0 0b 5d
        E 16 b0 0b 4c
        E 16 b0 0b 44
        E 16 b0 0b 33
        E 16 b0 0b 2a
        E 16 b0 0b 19
        E 16 b0 0b 11
        E 16 80 3e 00
        E 32 b0 0b 7f
        E 0 90 3c 7f
        E 16 b0 0b 77
        E 16 b0 0b 66
        E 16 b0 0b 5d
        E 16 b0 0b 4c
        E 16 b0 0b 44
        E 16 b0 0b 33
        E 16 b0 0b 2a
        E 16 b0 0b 19
        E 16 b0 0b 11
        E 16 80 3c 00
        E 32 b0 0b 7f
        E 0 90 41 7f
        E 32 b0 0b 77
        E 32 b0 0b 6e
        E 32 b0 0b 66
        E 32 b0 0b 5d
        E 32 b0 0b 55
        E 32 b0 0b 4c
        E 32 b0 0b 44
        E 32 b0 0b 3b
        E 32 b0 0b 33
        E 32 b0 0b 2a
        E 32 b0 0b 22
        E 32 b0 0b 19
        E 32 b0 0b 11
        E 32 b0 0b 08
        E 32 80 41 00
        E 96 b0 0b 7f
        E 0 90 41 7f
        E 32 b0 0b 77
        E 32 b0 0b 6e
        E 32 b0 0b 7f
        E 32 b0 0b 77
        E 32 b0 0b 6e
        E 32 b0 0b 7f
        E 32 b0 0b 77
        E 32 b0 0b 6e
        E 32 b0 0b 66
        E 32 b0 0b 5d
        E 32 b0 0b 55
        E 32 b0 0b 4c
        E 32 b0 0b 44
        E 32 b0 0b 3b
        E 32 b0 0b 33
        E 32 b0 0b 2a
        E 32 b0 0b 22
        E 32 b0 0b 19
        E 32 b0 0b 11
        E 32 b0 0b 08
        E 32 80 41 00
        E 96 b0 0b 7f
        E 0 90 41 7f
        E 32 b0 0b 77
        E 32 b0 0b 6e
        E 32 b0 0b 7f
        E 32 b0 0b 77
        E 32 b0 0b 6e
        E 32 b0 0b 7f
        E 0 80 41 00
        E 0 90 32 7f
        E 16 b0 0b 66
        E 16 b0 0b 4c
        E 16 b0 0b 33
        E 16 b0 0b 19
        E 16 80 32 00
        E 112 b0 0b 7f
        E 0 90 32 7f
        E 16 b0 0b 66
        E 16 b0 0b 4c
        E 16 b0 0b 33
        E 16 b0 0b 19
        E 16 80 32 00
        E 112 b0 0b 7f
        E 0 90 35 7f
        E 16 b0 0b 66
        E 16 b0 0b 4c
        E 16 b0 0b 33
        E 16 b0 0b 19
        E 16 80 35 00
        E 112 b0 0b 7f
        E 0 90 32 7f
        E 16 b0 0b 66
        E 16 b0 0b 4c
        E 16 b0 0b 33
        E 16 b0 0b 19
        E 16 80 32 00
        E 112 b0 0b 7f
        E 0 90 30 7f
        E 16 b0 0b 66
        E 16 b0 0b 4c
        E 16 b0 0b 33
        E 16 b0 0b 19
        E 16 80 30 00
        E 112 b0 0b 7f
        E 0 90 34 7f
        E 32 b0 0b 77
        E 16 b0 0b 6e
        E 16 b0 0b 66
        E 32 b0 0b 5d
        E 16 b0 0b 55
        E 16 b0 0b 4c
        E 32 b0 0b 44
        E 16 b0 0b 3b
        E 16 b0 0b 33
        E 32 b0 0b 2a
        E 16 b0 0b 22
        E 16 b0 0b 19
        E 32 b0 0b 11
        E 16 b0 0b 08
        E 16 80 34 00
        E 64 b0 0b 7f
        E 0 90 32 7f
        E 32 b0 0b 77
        E 16 b0 0b 6e
        E 16 b0 0b 66
        E 32 b0 0b 5d
        E 16 b0 0b 55
        E 16 b0 0b 4c
        E 32 b0 0b 44
        E 16 b0 0b 3b
        E 16 b0 0b 33
        E 32 b0 0b 2a
        E 16 b0 0b 22
        E 16 b0 0b 19
        E 32 b0 0b 11
        E 16 b0 0b 08
        E 16 80 32 00
        E 64 b0 0b 7f
        E 0 90 32 7f
        E 16 b0 0b 66
        E 16 b0 0b 4c
        E 16 b0 0b 33
        E 16 b0 0b 19
        E 16 80 32 00
        E 112 b0 0b 7f
        E 0 90 35 7f
        E 16 b0 0b 66
        E 16 b0 0b 4c
        E 16 b0 0b 33
        E 16 b0 0b 19
        E 16 80 35 00
        E 112 b0 0b 7f
        E 0 90 32 7f
        E 16 b0 0b 66
        E 16 b0 0b 4c
        E 16 b0 0b 33
        E 16 b0 0b 19
        E 16 80 32 00
        E 112 b0 0b 7f
        E 0 90 34 7f
        E 16 b0 0b 66
        E 16 b0 0b 4c
        E 16 b0 0b 33
        E 16 b0 0b 19
        E 16 80 34 00
        E 112 b0 0b 7f
        E 0 90 37 7f
        E 32 b0 0b 77
        E 16 b0 0b 6e
        E 16 b0 0b 66
        E 32 b0 0b 5d
        E 16 b0 0b 55
        E 16 b0 0b 4c
        E 32 b0 0b 44
        E 16 b0 0b 3b
        E 16 b0 0b 33
        E 32 b0 0b 2a
        E 16 b0 0b 22
        E 16 b0 0b 19
        E 32 b0 0b 11
        E 16 b0 0b 08
        E 16 80 37 00
        E 64 b0 0b 7f
        E 0 90 37 7f
        E 16 b0 0b 66
        E 16 b0 0b 4c
        E 16 b0 0b 33
        E 16 b0 0b 19
        E 16 80 37 00
        E 112 b0 0b 7f
        E 0 90 32 7f
        E 16 b0 0b 66
        E 16 b0 0b 4c
        E 16 b0 0b 33
        E 16 b0 0b 19
        E 16 80 32 00
        E 112 b0 0b 7f
        E 0 90 32 7f
        E 16 b0 0b 66
        E 16 b0 0b 4c
        E 16 b0 0b 33
        E 16 b0 0b 19
        E 16 80 32 00
        E 112 b0 0b 7f
        E 0 90 35 7f
        E 16 b0 0b 66
        E 16 b0 0b 4c
        E 16 b0 0b 33
        E 16 b0 0b 19
        E 16 80 35 00
        E 112 b0 0b 7f
        E 0 90 32 7f
        E 16 b0 0b 66
        E 16 b0 0b 4c
        E 16 b0 0b 33
        E 16 b0 0b 19
        E 16 80 32 00
        E 112 b0 0b 7f
        E 0 90 30 7f
        E 16 b0 0b 66
        E 16 b0 0b 4c
        E 16 b0 0b 33
        E 16 b0 0b 19
        E 16 80 30 00
        E 112 b0 0b 7f
        E 0 90 34 7f
        E 32 b0 0b 77
        E 16 b0 0b 6e
        E 16 b0 0b 66
        E 32 b0 0b 5d
        E 16 b0 0b 55
        E 16 b0 0b 4c
        E 32 b0 0b 44
        E 16 b0 0b 3b
        E 16 b0 0b 33
        E 32 b0 0b 2a
        E 16 b0 0b 22
        E 16 b0 0b 19
        E 32 b0 0b 11
        E 16 b0 0b 08
        E 16 80 34 00
        E 64 b0 0b 7f
        E 0 90 32 7f
        E 32 b0 0b 77
        E 16 b0 0b 6e
        E 16 b0 0b 66
        E 32 b0 0b 5d
        E 16 b0 0b 55
        E 16 b0 0b 4c
        E 32 b0 0b 44
        E 16 b0 0b 3b
        E 16 b0 0b 33
        E 32 b0 0b 2a
        E 16 b0 0b 22
        E 16 b0 0b 19
        E 32 b0 0b 11
        E 16 b0 0b 08
        E 16 80 32 00
        E 64 b0 0b 7f
        E 0 90 32 7f
        E 16 b0 0b 66
        E 16 b0 0b 4c
        E 16 b0 0b 33
        E 16 b0 0b 19
        E 16 80 32 00
        E 112 b0 0b 7f
        E 0 90 35 7f
        E 16 b0 0b 66
        E 16 b0 0b 4c
        E 16 b0 0b 33
        E 16 b0 0b 19
        E 16 80 35 00
        E 112 b0 0b 7f
        E 0 90 32 7f
        E 16 b0 0b 66
        E 16 b0 0b 4c
        E 16 b0 0b 33
        E 16 b0 0b 19
        E 16 80 32 00
        E 112 b0 0b 7f
        E 0 90 34 7f
        E 16 b0 0b 66
        E 16 b0 0b 4c
        E 16 b0 0b 33
        E 16 b0 0b 19
        E 16 80 34 00
        E 112 b0 0b 7f
        E 0 90 37 7f
        E 32 b0 0b 77
        E 16 b0 0b 6e
        E 16 b0 0b 66
        E 32 b0 0b 5d
        E 16 b0 0b 55
        E 16 b0 0b 4c
        E 32 b0 0b 44
        E 16 b0 0b 3b
        E 16 b0 0b 33
        E 32 b0 0b 2a
        E 16 b0 0b 22
        E 16 b0 0b 19
        E 32 b0 0b 11
        E 16 b0 0b 08
        E 16 80 37 00
        E 64 b0 0b 7f
        E 0 90 37 7f
        E 16 b0 0b 66
        E 16 b0 0b 4c
        E 16 b0 0b 33
        E 16 b0 0b 19
        E 16 80 37 00
        E 112 b0 0b 7f
        E 0 90 31 7f
        E 16 b0 0b 77
        E 16 b0 0b 66
        E 16 b0 0b 5d
        E 16 b0 0b 4c
        E 16 b0 0b 44
        E 16 b0 0b 33
        E 16 b0 0b 2a
        E 16 b0 0b 19
        E 16 b0 0b 11
        E 16 80 31 00
        E 32 b0 0b 7f
        E 0 90 32 7f
        E 16 b0 0b 77
        E 16 b0 0b 66
        E 16 b0 0b 5d
        E 16 b0 0b 4c
        E 16 b0 0b 44
        E 32 b0 0b 33
        E 16 b0 0b 2a
        E 16 b0 0b 19
        E 16 b0 0b 11
        E 16 80 32 00
        E 16 b0 0b 7f
        E 0 90 35 7f
        E 16 b0 0b 77
        E 16 b0 0b 66
        E 16 b0 0b 5d
        E 16 b0 0b 4c
        E 16 b0 0b 44
        E 32 b0 0b 33
        E 16 b0 0b 2a
        E 16 b0 0b 19
        E 16 b0 0b 11
        E 16 80 35 00
        E 16 b0 0b 7f
        E 0 90 39 7f
        E 16 b0 0b 77
        E 16 b0 0b 66
        E 16 b0 0b 5d
        E 16 b0 0b 4c
        E 16 b0 0b 44
        E 32 b0 0b 33
        E 16 b0 0b 2a
        E 16 b0 0b 19
        E 16 b0 0b 11
        E 16 80 39 00
        E 16 b0 0b 66
        E 0 90 3e 66
        E 16 b0 0b 5d
        E 16 b0 0b 55
        E 16 b0 0b 4c
        E 16 b0 0b 44
        E 16 b0 0b 3b
        E 16 b0 0b 33
        E 16 b0 0b 2a
        E 16 b0 0b 22
        E 16 b0 0b 2a
        E 16 b0 0b 33
        E 16 b0 0b 3b
        E 16 b0 0b 44
        E 16 b0 0b 3b
        E 16 b0 0b 33
        E 16 b0 0b 2a
        E 16 b0 0b 22
        E 16 b0 0b 2a
        E 16 b0 0b 33
        E 16 b0 0b 3b
        E 16 b0 0b 44
        E 16 b0 0b 3b
        E 16 b0 0b 33
        E 16 b0 0b 2a
        E 16 b0 0b 22
        E 16 b0 0b 2a
        E 16 b0 0b 33
        E 16 b0 0b 3b
        E 16 b0 0b 44
        E 16 b0 0b 4c
        E 16 b0 0b 55
        E 16 b0 0b 5d
        E 1232 b0 0b 7f
        E 0 80 3e 00
        E 0 90 3b 7f
        E 16 b0 0b 66
        E 16 b0 0b 4c
        E 16 b0 0b 33
        E 16 b0 0b 7f
        E 0 80 3b 00
        E 0 90 3c 7f
        E 16 b0 0b 66
        E 16 b0 0b 4c
        E 16 b0 0b 33
        E 16 b0 0b 7f
        E 0 80 3c 00
        E 0 90 3b 7f
        E 16 b0 0b 66
        E 16 b0 0b 4c
        E 16 b0 0b 33
        E 16 b0 0b 7f
        E 0 80 3b 00
        E 0 90 39 7f
        E 16 b0 0b 66
        E 16 b0 0b 4c
        E 16 b0 0b 33
        E 16 b0 0b 19
        E 16 80 39 00
        E 112 b0 0b 7f
        E 0 90 3b 7f
        E 16 b0 0b 66
        E 16 b0 0b 4c
        E 16 b0 0b 33
        E 16 b0 0b 19
        E 16 80 3b 00
        E 112 b0 0b 7f
        E 0 90 3c 7f
        E 16 b0 0b 77
        E 16 b0 0b 66
        E 16 b0 0b 5d
        E 16 b0 0b 4c
        E 16 b0 0b 44
        E 16 b0 0b 33
        E 16 b0 0b 2a
        E 16 b0 0b 19
        E 16 b0 0b 11
        E 16 80 3c 00
        E 32 b0 0b 7f
        E 0 90 3b 7f
        E 16 b0 0b 77
        E 16 b0 0b 66
        E 16 b0 0b 5d
        E 16 b0 0b 4c
        E 16 b0 0b 44
        E 32 b0 0b 33
        E 16 b0 0b 2a
        E 16 b0 0b 19
        E 16 b0 0b 11
        E 16 80 3b 00
        E 16 b0 0b 7f
        E 0 90 39 7f
        E 16 b0 0b 77
        E 16 b0 0b 66
        E 16 b0 0b 5d
        E 16 b0 0b 4c
        E 16 b0 0b 44
        E 32 b0 0b 33
        E 16 b0 0b 2a
        E 16 b0 0b 19
        E 16 b0 0b 11
        E 16 80 39 00
        E 16 b0 0b 7f
        E 0 90 37 7f
        E 16 b0 0b 77
        E 16 b0 0b 66
        E 16 b0 0b 5d
        E 16 b0 0b 4c
        E 16 b0 0b 44
        E 32 b0 0b 33
        E 16 b0 0b 2a
        E 16 b0 0b 19
        E 16 b0 0b 11
        E 16 80 37 00
        E 16 b0 0b 7f
        E 0 90 35 7f
        E 16 b0 0b 77
        E 16 b0 0b 66
        E 16 b0 0b 5d
        E 16 b0 0b 4c
        E 16 b0 0b 44
        E 16 b0 0b 33
        E 16 b0 0b 2a
        E 16 b0 0b 19
        E 16 b0 0b 11
        E 16 80 35 00
        E 32 b0 0b 7f
        E 0 90 37 7f
        E 16 b0 0b 77
        E 16 b0 0b 66
        E 16 b0 0b 5d
        E 16 b0 0b 4c
        E 16 b0 0b 44
        E 32 b0 0b 33
        E 16 b0 0b 2a
        E 16 b0 0b 19
        E 16 b0 0b 11
        E 16 80 37 00
        E 16 b0 0b 7f
        E 0 90 39 7f
        E 16 b0 0b 77
        E 16 b0 0b 66
        E 16 b0 0b 5d
        E 16 b0 0b 4c
        E 16 b0 0b 44
        E 32 b0 0b 33
        E 16 b0 0b 2a
        E 16 b0 0b 19
        E 16 b0 0b 11
        E 16 80 39 00
        E 16 b0 0b 7f
        E 0 90 35 7f
        E 16 b0 0b 77
        E 16 b0 0b 66
        E 16 b0 0b 5d
        E 16 b0 0b 4c
        E 16 b0 0b 44
        E 32 b0 0b 33
        E 16 b0 0b 2a
        E 16 b0 0b 19
        E 16 b0 0b 11
        E 16 80 35 00
        E 16 b0 0b 66
        E 0 90 32 66
        E 16 b0 0b 5d
        E 16 b0 0b 55
        E 16 b0 0b 4c
        E 16 b0 0b 44
        E 16 b0 0b 3b
        E 16 b0 0b 33
        E 16 b0 0b 2a
        E 16 b0 0b 22
        E 16 b0 0b 2a
        E 16 b0 0b 33
        E 16 b0 0b 3b
        E 16 b0 0b 44
        E 16 b0 0b 3b
        E 16 b0 0b 33
        E 16 b0 0b 2a
        E 16 b0 0b 22
        E 16 b0 0b 2a
        E 16 b0 0b 33
        E 16 b0 0b 3b
        E 16 b0 0b 44
        E 16 b0 0b 3b
        E 16 b0 0b 33
        E 16 b0 0b 2a
        E 16 b0 0b 22
        E 16 b0 0b 2a
        E 16 b0 0b 33
        E 16 b0 0b 3b
        E 16 b0 0b 44
        E 16 b0 0b 4c
        E 16 b0 0b 55
        E 16 b0 0b 5d
        E 1040 b0 0b 7f
        E 0 80 32 00
        E 0 90 31 7f
        E 16 b0 0b 77
        E 16 b0 0b 66
        E 16 b0 0b 5d
        E 16 b0 0b 4c
        E 16 b0 0b 44
        E 16 b0 0b 33
        E 16 b0 0b 2a
        E 16 b0 0b 19
        E 16 b0 0b 11
        E 16 80 31 00
        E 32 b0 0b 7f
        E 0 90 32 7f
        E 16 b0 0b 77
        E 16 b0 0b 66
        E 16 b0 0b 5d
        E 16 b0 0b 4c
        E 16 b0 0b 44
        E 32 b0 0b 33
        E 16 b0 0b 2a
        E 16 b0 0b 19
        E 16 b0 0b 11
        E 16 80 32 00
        E 16 b0 0b 7f
        E 0 90 35 7f
        E 16 b0 0b 77
        E 16 b0 0b 66
        E 16 b0 0b 5d
        E 16 b0 0b 4c
        E 16 b0 0b 44
        E 32 b0 0b 33
        E 16 b0 0b 2a
        E 16 b0 0b 19
        E 16 b0 0b 11
        E 16 80 35 00
        E 16 b0 0b 7f
        E 0 90 39 7f
        E 16 b0 0b 77
        E 16 b0 0b 66
        E 16 b0 0b 5d
        E 16 b0 0b 4c
        E 16 b0 0b 44
        E 32 b0 0b 33
        E 16 b0 0b 2a
        E 16 b0 0b 19
        E 16 b0 0b 11
        E 16 80 39 00
        E 16 b0 0b 66
        E 0 90 3e 66
        E 16 b0 0b 5d
        E 16 b0 0b 55
        E 16 b0 0b 4c
        E 16 b0 0b 44
        E 16 b0 0b 3b
        E 16 b0 0b 33
        E 16 b0 0b 2a
        E 16 b0 0b 22
        E 16 b0 0b 2a
        E 16 b0 0b 33
        E 16 b0 0b 3b
        E 16 b0 0b 44
        E 16 b0 0b 3b
        E 16 b0 0b 33
        E 16 b0 0b 2a
        E 16 b0 0b 22
        E 16 b0 0b 2a
        E 16 b0 0b 33
        E 16 b0 0b 3b
        E 16 b0 0b 44
        E 16 b0 0b 3b
        E 16 b0 0b 33
        E 16 b0 0b 2a
        E 16 b0 0b 22
        E 16 b0 0b 2a
        E 16 b0 0b 33
        E 16 b0 0b 3b
        E 16 b0 0b 44
        E 16 b0 0b 4c
        E 16 b0 0b 55
        E 16 b0 0b 5d
        E 1040 80 3e 00
        E 192 b0 0b 7f
        E 0 90 3b 7f
        E 16 b0 0b 66
        E 16 b0 0b 4c
        E 16 b0 0b 33
        E 16 b0 0b 7f
        E 0 80 3b 00
        E 0 90 3c 7f
        E 16 b0 0b 66
        E 16 b0 0b 4c
        E 16 b0 0b 33
        E 16 b0 0b 7f
        E 0 80 3c 00
        E 0 90 3b 7f
        E 16 b0 0b 66
        E 16 b0 0b 4c
        E 16 b0 0b 33
        E 16 b0 0b 7f
        E 0 80 3b 00
        E 0 90 39 7f
        E 16 b0 0b 66
        E 16 b0 0b 4c
        E 16 b0 0b 33
        E 16 b0 0b 19
        E 16 80 39 00
        E 112 b0 0b 7f
        E 0 90 3b 7f
        E 16 b0 0b 66
        E 16 b0 0b 4c
        E 16 b0 0b 33
        E 16 80 3b 00
        E 0 b0 7b 00
        E 0 ff 2f 00
      >
    >
  >
  <TRACK {6AF31D96-90A6-4431-AE1D-AB983078F9B5}
    NAME "NES - Pulse 2 [ch1]"
    PEAKCOL 10092441
    BEAT -1
    AUTOMODE 0
    PANLAWFLAGS 3
    VOLPAN 1 0 -1 -1 1
    MUTESOLO 0 0 0
    IPHASE 0
    PLAYOFFS 0 1
    ISBUS 0 0
    BUSCOMP 0 0 0 0 0
    SHOWINMIX 1 0.6667 0.5 1 0.5 0 0 0
    FIXEDLANES 9 0 0 0 0
    SEL 0
    REC 0 5088 1 0 0 0 0 0
    VU 2
    TRACKHEIGHT 0 0 0 0 0 0 0
    INQ 0 0 0 0.5 100 0 0 100
    NCHAN 2
    FX 1
    TRACKID {6AF31D96-90A6-4431-AE1D-AB983078F9B5}
    PERF 0
    MIDIOUT -1
    MAINSEND 1 0
    <FXCHAIN
      WNDRECT 24 52 700 560
      SHOW 0
      LASTSEL 0
      DOCKED 0
      BYPASS 0 0 0
      <JS "ReapNES Studio/ReapNES_Console.jsfx" ""
        2 15 1 10 80 10 100 2 1 15 1 5 60 10 80 1 1 0 50 0 0 15 1 0 100 0 0 0.500000 0.500000 0.400000 0.300000 0.800000 1 1 0 0 0 0 - - - - - - - - - - - - - - - - - - - - - - - - - -
      >
      FLOATPOS 0 0 0 0
      FXID {8D447A9E-2709-480C-A84D-D002D7E49824}
      WAK 0 0
    >
    <ITEM
      POSITION 0
      LENGTH 74.5878716
      LOOP 0
      ALLTAKES 0
      FADEIN 0 0 0 0 0 0 0
      FADEOUT 0 0 0 0 0 0 0
      MUTE 0 0
      SEL 0
      IGUID {CBE278F7-B990-4F43-9F95-770179B51EF8}
      <SOURCE MIDI
        HASDATA 1 480 QN
        CCINTERP 32
        E 0 c1 51
        E 64 b1 0c 10
        E 0 b1 0b 3b
        E 0 91 2d 3b
        E 16 b1 0b 5d
        E 16 b1 0b 55
        E 16 b1 0b 4c
        E 16 b1 0b 44
        E 16 b1 0b 3b
        E 32 b1 0b 33
        E 16 b1 0b 2a
        E 16 b1 0b 19
        E 16 b1 0b 11
        E 16 81 2d 00
        E 16 b1 0b 66
        E 0 91 2d 66
        E 16 b1 0b 5d
        E 16 b1 0b 55
        E 16 b1 0b 4c
        E 16 b1 0b 44
        E 16 b1 0b 3b
        E 32 b1 0b 33
        E 16 b1 0b 2a
        E 16 b1 0b 19
        E 16 b1 0b 11
        E 16 81 2d 00
        E 592 b1 0b 66
        E 0 91 2b 66
        E 16 b1 0b 5d
        E 16 b1 0b 55
        E 16 b1 0b 4c
        E 16 b1 0b 44
        E 16 b1 0b 3b
        E 16 b1 0b 33
        E 16 b1 0b 2a
        E 16 b1 0b 19
        E 16 b1 0b 11
        E 16 81 2b 00
        E 224 b1 0b 66
        E 0 91 2d 66
        E 16 b1 0b 5d
        E 16 b1 0b 55
        E 16 b1 0b 4c
        E 16 b1 0b 44
        E 16 b1 0b 3b
        E 32 b1 0b 33
        E 16 b1 0b 2a
        E 16 b1 0b 19
        E 16 b1 0b 11
        E 16 81 2d 00
        E 784 b1 0b 66
        E 0 91 2b 66
        E 16 b1 0b 5d
        E 16 b1 0b 55
        E 16 b1 0b 4c
        E 16 b1 0b 44
        E 16 b1 0b 3b
        E 32 b1 0b 33
        E 16 b1 0b 2a
        E 16 b1 0b 19
        E 16 b1 0b 11
        E 16 81 2b 00
        E 16 b1 0b 66
        E 0 91 2b 66
        E 16 b1 0b 5d
        E 16 b1 0b 55
        E 16 b1 0b 4c
        E 16 b1 0b 44
        E 16 b1 0b 3b
        E 16 b1 0b 33
        E 16 b1 0b 2a
        E 16 b1 0b 19
        E 16 b1 0b 11
        E 16 81 2b 00
        E 224 b1 0b 66
        E 0 91 2b 66
        E 16 b1 0b 5d
        E 16 b1 0b 55
        E 16 b1 0b 4c
        E 16 b1 0b 44
        E 16 b1 0b 3b
        E 32 b1 0b 33
        E 16 b1 0b 2a
        E 16 b1 0b 19
        E 16 b1 0b 11
        E 16 81 2b 00
        E 16 b1 0b 66
        E 0 91 2d 66
        E 16 b1 0b 5d
        E 16 b1 0b 55
        E 16 b1 0b 4c
        E 16 b1 0b 44
        E 16 b1 0b 3b
        E 32 b1 0b 33
        E 16 b1 0b 2a
        E 16 b1 0b 19
        E 16 b1 0b 11
        E 16 81 2d 00
        E 16 b1 0b 66
        E 0 91 2d 66
        E 16 b1 0b 5d
        E 16 b1 0b 55
        E 16 b1 0b 4c
        E 16 b1 0b 44
        E 16 b1 0b 3b
        E 32 b1 0b 33
        E 16 b1 0b 2a
        E 16 b1 0b 19
        E 16 b1 0b 11
        E 16 81 2d 00
        E 592 b1 0b 66
        E 0 91 2b 66
        E 16 b1 0b 5d
        E 16 b1 0b 55
        E 16 b1 0b 4c
        E 16 b1 0b 44
        E 16 b1 0b 3b
        E 16 b1 0b 33
        E 16 b1 0b 2a
        E 16 b1 0b 19
        E 16 b1 0b 11
        E 16 81 2b 00
        E 224 b1 0b 66
        E 0 91 2d 66
        E 16 b1 0b 5d
        E 16 b1 0b 55
        E 16 b1 0b 4c
        E 16 b1 0b 44
        E 16 b1 0b 3b
        E 32 b1 0b 33
        E 16 b1 0b 2a
        E 16 b1 0b 19
        E 16 b1 0b 11
        E 16 81 2d 00
        E 784 b1 0b 66
        E 0 91 2b 66
        E 16 b1 0b 5d
        E 16 b1 0b 55
        E 16 b1 0b 4c
        E 16 b1 0b 44
        E 16 b1 0b 3b
        E 32 b1 0b 33
        E 16 b1 0b 2a
        E 16 b1 0b 19
        E 16 b1 0b 11
        E 16 81 2b 00
        E 16 b1 0b 66
        E 0 91 2b 66
        E 16 b1 0b 5d
        E 16 b1 0b 55
        E 16 b1 0b 4c
        E 16 b1 0b 44
        E 16 b1 0b 3b
        E 16 b1 0b 33
        E 16 b1 0b 2a
        E 16 b1 0b 19
        E 16 b1 0b 11
        E 16 81 2b 00
        E 224 b1 0b 66
        E 0 91 2b 66
        E 16 b1 0b 5d
        E 16 b1 0b 55
        E 16 b1 0b 4c
        E 16 b1 0b 44
        E 16 b1 0b 3b
        E 32 b1 0b 33
        E 16 b1 0b 2a
        E 16 b1 0b 19
        E 16 b1 0b 11
        E 16 81 2b 00
        E 16 b1 0b 66
        E 0 91 2d 66
        E 16 b1 0b 5d
        E 16 b1 0b 55
        E 16 b1 0b 4c
        E 16 b1 0b 44
        E 16 b1 0b 3b
        E 16 b1 0b 33
        E 16 b1 0b 2a
        E 16 b1 0b 22
        E 16 b1 0b 2a
        E 16 b1 0b 33
        E 16 b1 0b 3b
        E 16 b1 0b 44
        E 16 b1 0b 3b
        E 16 b1 0b 33
        E 16 b1 0b 2a
        E 16 b1 0b 22
        E 16 b1 0b 2a
        E 16 b1 0b 33
        E 16 b1 0b 3b
        E 16 b1 0b 44
        E 16 b1 0b 3b
        E 16 b1 0b 33
        E 16 b1 0b 2a
        E 16 b1 0b 22
        E 16 b1 0b 2a
        E 16 b1 0b 33
        E 16 b1 0b 3b
        E 16 b1 0b 44
        E 16 b1 0b 4c
        E 16 b1 0b 55
        E 16 b1 0b 5d
        E 272 81 2d 00
        E 192 b1 0b 66
        E 0 91 29 66
        E 16 b1 0b 55
        E 16 b1 0b 44
        E 16 b1 0b 33
        E 16 b1 0b 19
        E 16 81 29 00
        E 112 b1 0b 66
        E 0 91 2b 66
        E 16 b1 0b 55
        E 16 b1 0b 44
        E 16 b1 0b 33
        E 16 b1 0b 19
        E 16 81 2b 00
        E 112 b1 0b 66
        E 0 91 2d 66
        E 16 b1 0b 55
        E 16 b1 0b 44
        E 16 b1 0b 33
        E 16 b1 0b 19
        E 16 81 2d 00
        E 112 b1 0b 66
        E 0 91 2f 66
        E 16 b1 0b 5d
        E 16 b1 0b 55
        E 16 b1 0b 4c
        E 16 b1 0b 44
        E 16 b1 0b 3b
        E 16 b1 0b 33
        E 16 b1 0b 2a
        E 16 b1 0b 22
        E 16 b1 0b 2a
        E 16 b1 0b 33
        E 16 b1 0b 3b
        E 16 b1 0b 44
        E 16 b1 0b 3b
        E 16 b1 0b 33
        E 16 b1 0b 2a
        E 16 b1 0b 22
        E 16 b1 0b 2a
        E 16 b1 0b 33
        E 16 b1 0b 3b
        E 16 b1 0b 44
        E 16 b1 0b 3b
        E 16 b1 0b 33
        E 16 b1 0b 2a
        E 16 b1 0b 22
        E 16 b1 0b 2a
        E 16 b1 0b 33
        E 16 b1 0b 3b
        E 16 b1 0b 44
        E 16 b1 0b 4c
        E 16 b1 0b 55
        E 16 b1 0b 5d
        E 272 81 2f 00
        E 192 b1 0b 66
        E 0 91 2b 66
        E 16 b1 0b 55
        E 16 b1 0b 44
        E 16 b1 0b 33
        E 16 b1 0b 19
        E 16 81 2b 00
        E 112 b1 0b 66
        E 0 91 2d 66
        E 16 b1 0b 55
        E 16 b1 0b 44
        E 16 b1 0b 33
        E 16 b1 0b 19
        E 16 81 2d 00
        E 112 b1 0b 66
        E 0 91 2f 66
        E 16 b1 0b 55
        E 16 b1 0b 44
        E 16 b1 0b 33
        E 16 b1 0b 19
        E 16 81 2f 00
        E 112 b1 0b 66
        E 0 91 30 66
        E 16 b1 0b 5d
        E 16 b1 0b 55
        E 16 b1 0b 4c
        E 16 b1 0b 44
        E 16 b1 0b 3b
        E 16 b1 0b 33
        E 16 b1 0b 2a
        E 16 b1 0b 22
        E 16 b1 0b 2a
        E 16 b1 0b 33
        E 16 b1 0b 3b
        E 16 b1 0b 44
        E 16 b1 0b 3b
        E 16 b1 0b 33
        E 16 b1 0b 2a
        E 16 b1 0b 22
        E 16 b1 0b 2a
        E 16 b1 0b 33
        E 16 b1 0b 3b
        E 16 b1 0b 44
        E 16 b1 0b 3b
        E 16 b1 0b 33
        E 16 b1 0b 2a
        E 16 b1 0b 22
        E 16 b1 0b 2a
        E 16 b1 0b 33
        E 16 b1 0b 3b
        E 16 b1 0b 44
        E 16 b1 0b 4c
        E 16 b1 0b 55
        E 16 b1 0b 5d
        E 272 81 30 00
        E 192 b1 0b 66
        E 0 91 2d 66
        E 16 b1 0b 55
        E 16 b1 0b 44
        E 16 b1 0b 33
        E 16 b1 0b 19
        E 16 81 2d 00
        E 112 b1 0b 66
        E 0 91 2f 66
        E 16 b1 0b 55
        E 16 b1 0b 44
        E 16 b1 0b 33
        E 16 b1 0b 19
        E 16 81 2f 00
        E 112 b1 0b 66
        E 0 91 30 66
        E 16 b1 0b 55
        E 16 b1 0b 44
        E 16 b1 0b 33
        E 16 b1 0b 19
        E 16 81 30 00
        E 112 b1 0b 66
        E 0 91 2f 66
        E 16 b1 0b 5d
        E 16 b1 0b 55
        E 16 b1 0b 4c
        E 16 b1 0b 44
        E 16 b1 0b 3b
        E 16 b1 0b 33
        E 16 b1 0b 2a
        E 16 b1 0b 22
        E 16 b1 0b 2a
        E 16 b1 0b 33
        E 16 b1 0b 3b
        E 16 b1 0b 44
        E 16 b1 0b 3b
        E 16 b1 0b 33
        E 16 b1 0b 2a
        E 16 b1 0b 22
        E 16 b1 0b 2a
        E 16 b1 0b 33
        E 16 b1 0b 3b
        E 16 b1 0b 44
        E 16 b1 0b 3b
        E 16 b1 0b 33
        E 16 b1 0b 2a
        E 16 b1 0b 22
        E 16 b1 0b 2a
        E 16 b1 0b 33
        E 16 b1 0b 3b
        E 16 b1 0b 44
        E 16 b1 0b 4c
        E 16 b1 0b 55
        E 16 b1 0b 5d
        E 272 81 2f 00
        E 192 b1 0b 66
        E 0 91 2b 66
        E 16 b1 0b 55
        E 16 b1 0b 44
        E 16 b1 0b 33
        E 16 b1 0b 19
        E 16 81 2b 00
        E 112 b1 0b 66
        E 0 91 2d 66
        E 16 b1 0b 55
        E 16 b1 0b 44
        E 16 b1 0b 33
        E 16 b1 0b 19
        E 16 81 2d 00
        E 112 b1 0b 66
        E 0 91 2f 66
        E 16 b1 0b 55
        E 16 b1 0b 44
        E 16 b1 0b 33
        E 16 b1 0b 19
        E 16 81 2f 00
        E 112 b1 0b 66
        E 0 91 2d 66
        E 16 b1 0b 5d
        E 16 b1 0b 55
        E 16 b1 0b 4c
        E 16 b1 0b 44
        E 16 b1 0b 3b
        E 16 b1 0b 33
        E 16 b1 0b 2a
        E 16 b1 0b 22
        E 16 b1 0b 2a
        E 16 b1 0b 33
        E 16 b1 0b 3b
        E 16 b1 0b 44
        E 16 b1 0b 3b
        E 16 b1 0b 33
        E 16 b1 0b 2a
        E 16 b1 0b 22
        E 16 b1 0b 2a
        E 16 b1 0b 33
        E 16 b1 0b 3b
        E 16 b1 0b 44
        E 16 b1 0b 3b
        E 16 b1 0b 33
        E 16 b1 0b 2a
        E 16 b1 0b 22
        E 16 b1 0b 2a
        E 16 b1 0b 33
        E 16 b1 0b 3b
        E 16 b1 0b 44
        E 16 b1 0b 4c
        E 16 b1 0b 55
        E 16 b1 0b 5d
        E 272 81 2d 00
        E 192 b1 0b 66
        E 0 91 29 66
        E 16 b1 0b 55
        E 16 b1 0b 44
        E 16 b1 0b 33
        E 16 b1 0b 19
        E 16 81 29 00
        E 112 b1 0b 66
        E 0 91 2b 66
        E 16 b1 0b 55
        E 16 b1 0b 44
        E 16 b1 0b 33
        E 16 b1 0b 19
        E 16 81 2b 00
        E 112 b1 0b 66
        E 0 91 2d 66
        E 16 b1 0b 55
        E 16 b1 0b 44
        E 16 b1 0b 33
        E 16 b1 0b 19
        E 16 81 2d 00
        E 112 b1 0b 66
        E 0 91 2f 66
        E 16 b1 0b 5d
        E 16 b1 0b 55
        E 16 b1 0b 4c
        E 16 b1 0b 44
        E 16 b1 0b 3b
        E 16 b1 0b 33
        E 16 b1 0b 2a
        E 16 b1 0b 22
        E 16 b1 0b 2a
        E 16 b1 0b 33
        E 16 b1 0b 3b
        E 16 b1 0b 44
        E 16 b1 0b 3b
        E 16 b1 0b 33
        E 16 b1 0b 2a
        E 16 b1 0b 22
        E 16 b1 0b 2a
        E 16 b1 0b 33
        E 16 b1 0b 3b
        E 16 b1 0b 44
        E 16 b1 0b 3b
        E 16 b1 0b 33
        E 16 b1 0b 2a
        E 16 b1 0b 22
        E 16 b1 0b 2a
        E 16 b1 0b 33
        E 16 b1 0b 3b
        E 16 b1 0b 44
        E 16 b1 0b 4c
        E 16 b1 0b 55
        E 16 b1 0b 5d
        E 272 81 2f 00
        E 192 b1 0b 66
        E 0 91 2b 66
        E 16 b1 0b 55
        E 16 b1 0b 44
        E 16 b1 0b 33
        E 16 b1 0b 19
        E 16 81 2b 00
        E 112 b1 0b 66
        E 0 91 2d 66
        E 16 b1 0b 55
        E 16 b1 0b 44
        E 16 b1 0b 33
        E 16 b1 0b 19
        E 16 81 2d 00
        E 112 b1 0b 66
        E 0 91 2f 66
        E 16 b1 0b 55
        E 16 b1 0b 44
        E 16 b1 0b 33
        E 16 b1 0b 19
        E 16 81 2f 00
        E 112 b1 0b 66
        E 0 91 30 66
        E 16 b1 0b 5d
        E 16 b1 0b 55
        E 16 b1 0b 4c
        E 16 b1 0b 44
        E 16 b1 0b 3b
        E 16 b1 0b 33
        E 16 b1 0b 2a
        E 16 b1 0b 22
        E 16 b1 0b 2a
        E 16 b1 0b 33
        E 16 b1 0b 3b
        E 16 b1 0b 44
        E 16 b1 0b 3b
        E 16 b1 0b 33
        E 16 b1 0b 2a
        E 16 b1 0b 22
        E 16 b1 0b 2a
        E 16 b1 0b 33
        E 16 b1 0b 3b
        E 16 b1 0b 44
        E 16 b1 0b 3b
        E 16 b1 0b 33
        E 16 b1 0b 2a
        E 16 b1 0b 22
        E 16 b1 0b 2a
        E 16 b1 0b 33
        E 16 b1 0b 3b
        E 16 b1 0b 44
        E 16 b1 0b 4c
        E 16 b1 0b 55
        E 16 b1 0b 5d
        E 272 81 30 00
        E 192 b1 0b 66
        E 0 91 2d 66
        E 16 b1 0b 55
        E 16 b1 0b 44
        E 16 b1 0b 33
        E 16 b1 0b 19
        E 16 81 2d 00
        E 112 b1 0b 66
        E 0 91 2f 66
        E 16 b1 0b 55
        E 16 b1 0b 44
        E 16 b1 0b 33
        E 16 b1 0b 19
        E 16 81 2f 00
        E 112 b1 0b 66
        E 0 91 30 66
        E 16 b1 0b 55
        E 16 b1 0b 44
        E 16 b1 0b 33
        E 16 b1 0b 19
        E 16 81 30 00
        E 112 b1 0b 66
        E 0 91 2f 66
        E 16 b1 0b 5d
        E 16 b1 0b 55
        E 16 b1 0b 4c
        E 16 b1 0b 44
        E 16 b1 0b 3b
        E 16 b1 0b 33
        E 16 b1 0b 2a
        E 16 b1 0b 22
        E 16 b1 0b 2a
        E 16 b1 0b 33
        E 16 b1 0b 3b
        E 16 b1 0b 44
        E 16 b1 0b 3b
        E 16 b1 0b 33
        E 16 b1 0b 2a
        E 16 b1 0b 22
        E 16 b1 0b 2a
        E 16 b1 0b 33
        E 16 b1 0b 3b
        E 16 b1 0b 44
        E 16 b1 0b 3b
        E 16 b1 0b 33
        E 16 b1 0b 2a
        E 16 b1 0b 22
        E 16 b1 0b 2a
        E 16 b1 0b 33
        E 16 b1 0b 3b
        E 16 b1 0b 44
        E 16 b1 0b 4c
        E 16 b1 0b 55
        E 16 b1 0b 5d
        E 272 81 2f 00
        E 192 b1 0b 66
        E 0 91 2b 66
        E 16 b1 0b 55
        E 16 b1 0b 44
        E 16 b1 0b 33
        E 16 b1 0b 19
        E 16 81 2b 00
        E 112 b1 0b 66
        E 0 91 2d 66
        E 16 b1 0b 55
        E 16 b1 0b 44
        E 16 b1 0b 33
        E 16 b1 0b 19
        E 16 81 2d 00
        E 112 b1 0b 66
        E 0 91 2f 66
        E 16 b1 0b 55
        E 16 b1 0b 44
        E 16 b1 0b 33
        E 16 b1 0b 19
        E 16 81 2f 00
        E 112 b1 0b 66
        E 0 91 35 66
        E 16 b1 0b 5d
        E 16 b1 0b 55
        E 16 b1 0b 4c
        E 16 b1 0b 44
        E 16 b1 0b 3b
        E 16 b1 0b 33
        E 16 b1 0b 2a
        E 16 b1 0b 19
        E 16 b1 0b 11
        E 16 81 35 00
        E 224 b1 0b 66
        E 0 91 30 66
        E 16 b1 0b 5d
        E 16 b1 0b 55
        E 16 b1 0b 4c
        E 16 b1 0b 44
        E 16 b1 0b 3b
        E 16 b1 0b 33
        E 16 b1 0b 2a
        E 16 b1 0b 19
        E 16 b1 0b 11
        E 16 81 30 00
        E 224 b1 0b 66
        E 0 91 2d 66
        E 16 b1 0b 5d
        E 16 b1 0b 55
        E 16 b1 0b 4c
        E 16 b1 0b 44
        E 16 b1 0b 3b
        E 16 b1 0b 33
        E 16 b1 0b 2a
        E 16 b1 0b 19
        E 16 b1 0b 11
        E 16 81 2d 00
        E 224 b1 0b 66
        E 0 91 30 66
        E 16 b1 0b 5d
        E 16 b1 0b 55
        E 16 b1 0b 4c
        E 16 b1 0b 44
        E 16 b1 0b 3b
        E 16 b1 0b 33
        E 16 b1 0b 2a
        E 16 b1 0b 19
        E 16 b1 0b 11
        E 16 81 30 00
        E 224 b1 0b 66
        E 0 91 35 66
        E 16 b1 0b 5d
        E 16 b1 0b 55
        E 16 b1 0b 4c
        E 16 b1 0b 44
        E 16 b1 0b 3b
        E 16 b1 0b 33
        E 16 b1 0b 2a
        E 16 b1 0b 19
        E 16 b1 0b 11
        E 16 81 35 00
        E 32 b1 0b 66
        E 0 91 32 66
        E 16 b1 0b 5d
        E 16 b1 0b 55
        E 16 b1 0b 4c
        E 16 b1 0b 44
        E 16 b1 0b 3b
        E 16 b1 0b 33
        E 16 b1 0b 2a
        E 16 b1 0b 19
        E 16 b1 0b 11
        E 16 81 32 00
        E 32 b1 0b 66
        E 0 91 35 66
        E 16 b1 0b 5d
        E 16 b1 0b 55
        E 16 b1 0b 4c
        E 16 b1 0b 44
        E 16 b1 0b 3b
        E 16 b1 0b 33
        E 16 b1 0b 2a
        E 16 b1 0b 19
        E 16 b1 0b 11
        E 16 81 35 00
        E 32 b1 0b 66
        E 0 91 32 66
        E 16 b1 0b 5d
        E 16 b1 0b 55
        E 16 b1 0b 4c
        E 16 b1 0b 44
        E 16 b1 0b 3b
        E 16 b1 0b 33
        E 16 b1 0b 2a
        E 16 b1 0b 19
        E 16 b1 0b 11
        E 16 81 32 00
        E 32 b1 0b 66
        E 0 91 35 66
        E 16 b1 0b 5d
        E 16 b1 0b 55
        E 16 b1 0b 4c
        E 16 b1 0b 44
        E 16 b1 0b 3b
        E 16 b1 0b 33
        E 16 b1 0b 2a
        E 16 b1 0b 19
        E 16 b1 0b 11
        E 16 81 35 00
        E 32 b1 0b 66
        E 0 91 32 66
        E 16 b1 0b 5d
        E 16 b1 0b 55
        E 16 b1 0b 4c
        E 16 b1 0b 44
        E 16 b1 0b 3b
        E 16 b1 0b 33
        E 16 b1 0b 2a
        E 16 b1 0b 19
        E 16 b1 0b 11
        E 16 81 32 00
        E 32 b1 0b 66
        E 0 91 35 66
        E 16 b1 0b 5d
        E 16 b1 0b 55
        E 16 b1 0b 4c
        E 16 b1 0b 44
        E 16 b1 0b 3b
        E 16 b1 0b 33
        E 16 b1 0b 2a
        E 16 b1 0b 19
        E 16 b1 0b 11
        E 16 81 35 00
        E 32 b1 0b 66
        E 0 91 32 66
        E 16 b1 0b 5d
        E 16 b1 0b 55
        E 16 b1 0b 4c
        E 16 b1 0b 44
        E 16 b1 0b 3b
        E 16 b1 0b 33
        E 16 b1 0b 2a
        E 16 b1 0b 19
        E 16 b1 0b 11
        E 16 81 32 00
        E 32 b1 0b 66
        E 0 91 35 66
        E 16 b1 0b 5d
        E 16 b1 0b 55
        E 16 b1 0b 4c
        E 16 b1 0b 44
        E 16 b1 0b 3b
        E 16 b1 0b 33
        E 16 b1 0b 2a
        E 16 b1 0b 19
        E 16 b1 0b 11
        E 16 81 35 00
        E 224 b1 0b 66
        E 0 91 30 66
        E 16 b1 0b 5d
        E 16 b1 0b 55
        E 16 b1 0b 4c
        E 16 b1 0b 44
        E 16 b1 0b 3b
        E 16 b1 0b 33
        E 16 b1 0b 2a
        E 16 b1 0b 19
        E 16 b1 0b 11
        E 16 81 30 00
        E 224 b1 0b 66
        E 0 91 2d 66
        E 16 b1 0b 5d
        E 16 b1 0b 55
        E 16 b1 0b 4c
        E 16 b1 0b 44
        E 16 b1 0b 3b
        E 16 b1 0b 33
        E 16 b1 0b 2a
        E 16 b1 0b 19
        E 16 b1 0b 11
        E 16 81 2d 00
        E 224 b1 0b 66
        E 0 91 30 66
        E 16 b1 0b 5d
        E 16 b1 0b 55
        E 16 b1 0b 4c
        E 16 b1 0b 44
        E 16 b1 0b 3b
        E 16 b1 0b 33
        E 16 b1 0b 2a
        E 16 b1 0b 19
        E 16 b1 0b 11
        E 16 81 30 00
        E 224 b1 0b 66
        E 0 91 35 66
        E 16 b1 0b 5d
        E 16 b1 0b 55
        E 16 b1 0b 4c
        E 16 b1 0b 44
        E 16 b1 0b 3b
        E 16 b1 0b 33
        E 16 b1 0b 2a
        E 16 b1 0b 19
        E 16 b1 0b 11
        E 16 81 35 00
        E 32 b1 0b 66
        E 0 91 32 66
        E 16 b1 0b 5d
        E 16 b1 0b 55
        E 16 b1 0b 4c
        E 16 b1 0b 44
        E 16 b1 0b 3b
        E 16 b1 0b 33
        E 16 b1 0b 2a
        E 16 b1 0b 19
        E 16 b1 0b 11
        E 16 81 32 00
        E 32 b1 0b 66
        E 0 91 35 66
        E 16 b1 0b 5d
        E 16 b1 0b 55
        E 16 b1 0b 4c
        E 16 b1 0b 44
        E 16 b1 0b 3b
        E 16 b1 0b 33
        E 16 b1 0b 2a
        E 16 b1 0b 19
        E 16 b1 0b 11
        E 16 81 35 00
        E 32 b1 0b 66
        E 0 91 32 66
        E 16 b1 0b 5d
        E 16 b1 0b 55
        E 16 b1 0b 4c
        E 16 b1 0b 44
        E 16 b1 0b 3b
        E 16 b1 0b 33
        E 16 b1 0b 2a
        E 16 b1 0b 19
        E 16 b1 0b 11
        E 16 81 32 00
        E 32 b1 0b 66
        E 0 91 35 66
        E 16 b1 0b 5d
        E 16 b1 0b 55
        E 16 b1 0b 4c
        E 16 b1 0b 44
        E 16 b1 0b 3b
        E 16 b1 0b 33
        E 16 b1 0b 2a
        E 16 b1 0b 19
        E 16 b1 0b 11
        E 16 81 35 00
        E 32 b1 0b 66
        E 0 91 32 66
        E 16 b1 0b 5d
        E 16 b1 0b 55
        E 16 b1 0b 4c
        E 16 b1 0b 44
        E 16 b1 0b 3b
        E 16 b1 0b 33
        E 16 b1 0b 2a
        E 16 b1 0b 19
        E 16 b1 0b 11
        E 16 81 32 00
        E 32 b1 0b 66
        E 0 91 35 66
        E 16 b1 0b 5d
        E 16 b1 0b 55
        E 16 b1 0b 4c
        E 16 b1 0b 44
        E 16 b1 0b 3b
        E 16 b1 0b 33
        E 16 b1 0b 2a
        E 16 b1 0b 19
        E 16 b1 0b 11
        E 16 81 35 00
        E 32 b1 0b 66
        E 0 91 32 66
        E 16 b1 0b 5d
        E 16 b1 0b 55
        E 16 b1 0b 4c
        E 16 b1 0b 44
        E 16 b1 0b 3b
        E 16 b1 0b 33
        E 16 b1 0b 2a
        E 16 b1 0b 19
        E 16 b1 0b 11
        E 16 81 32 00
        E 32 b1 0b 66
        E 0 91 38 66
        E 16 b1 0b 5d
        E 16 b1 0b 55
        E 16 b1 0b 4c
        E 16 b1 0b 44
        E 16 b1 0b 3b
        E 16 b1 0b 33
        E 16 b1 0b 2a
        E 16 b1 0b 19
        E 16 b1 0b 11
        E 16 81 38 00
        E 224 b1 0b 66
        E 0 91 33 66
        E 16 b1 0b 5d
        E 16 b1 0b 55
        E 16 b1 0b 4c
        E 16 b1 0b 44
        E 16 b1 0b 3b
        E 16 b1 0b 33
        E 16 b1 0b 2a
        E 16 b1 0b 19
        E 16 b1 0b 11
        E 16 81 33 00
        E 224 b1 0b 66
        E 0 91 30 66
        E 16 b1 0b 5d
        E 16 b1 0b 55
        E 16 b1 0b 4c
        E 16 b1 0b 44
        E 16 b1 0b 3b
        E 16 b1 0b 33
        E 16 b1 0b 2a
        E 16 b1 0b 19
        E 16 b1 0b 11
        E 16 81 30 00
        E 224 b1 0b 66
        E 0 91 33 66
        E 16 b1 0b 5d
        E 16 b1 0b 55
        E 16 b1 0b 4c
        E 16 b1 0b 44
        E 16 b1 0b 3b
        E 16 b1 0b 33
        E 16 b1 0b 2a
        E 16 b1 0b 19
        E 16 b1 0b 11
        E 16 81 33 00
        E 224 b1 0b 66
        E 0 91 38 66
        E 16 b1 0b 5d
        E 16 b1 0b 55
        E 16 b1 0b 4c
        E 16 b1 0b 44
        E 16 b1 0b 3b
        E 16 b1 0b 33
        E 16 b1 0b 2a
        E 16 b1 0b 19
        E 16 b1 0b 11
        E 16 81 38 00
        E 32 b1 0b 66
        E 0 91 35 66
        E 16 b1 0b 5d
        E 16 b1 0b 55
        E 16 b1 0b 4c
        E 16 b1 0b 44
        E 16 b1 0b 3b
        E 16 b1 0b 33
        E 16 b1 0b 2a
        E 16 b1 0b 19
        E 16 b1 0b 11
        E 16 81 35 00
        E 32 b1 0b 66
        E 0 91 38 66
        E 16 b1 0b 5d
        E 16 b1 0b 55
        E 16 b1 0b 4c
        E 16 b1 0b 44
        E 16 b1 0b 3b
        E 16 b1 0b 33
        E 16 b1 0b 2a
        E 16 b1 0b 19
        E 16 b1 0b 11
        E 16 81 38 00
        E 32 b1 0b 66
        E 0 91 35 66
        E 16 b1 0b 5d
        E 16 b1 0b 55
        E 16 b1 0b 4c
        E 16 b1 0b 44
        E 16 b1 0b 3b
        E 16 b1 0b 33
        E 16 b1 0b 2a
        E 16 b1 0b 19
        E 16 b1 0b 11
        E 16 81 35 00
        E 32 b1 0b 66
        E 0 91 38 66
        E 16 b1 0b 5d
        E 16 b1 0b 55
        E 16 b1 0b 4c
        E 16 b1 0b 44
        E 16 b1 0b 3b
        E 16 b1 0b 33
        E 16 b1 0b 2a
        E 16 b1 0b 19
        E 16 b1 0b 11
        E 16 81 38 00
        E 32 b1 0b 66
        E 0 91 35 66
        E 16 b1 0b 5d
        E 16 b1 0b 55
        E 16 b1 0b 4c
        E 16 b1 0b 44
        E 16 b1 0b 3b
        E 16 b1 0b 33
        E 16 b1 0b 2a
        E 16 b1 0b 19
        E 16 b1 0b 11
        E 16 81 35 00
        E 32 b1 0b 66
        E 0 91 38 66
        E 16 b1 0b 5d
        E 16 b1 0b 55
        E 16 b1 0b 4c
        E 16 b1 0b 44
        E 16 b1 0b 3b
        E 16 b1 0b 33
        E 16 b1 0b 2a
        E 16 b1 0b 19
        E 16 b1 0b 11
        E 16 81 38 00
        E 32 b1 0b 66
        E 0 91 35 66
        E 16 b1 0b 5d
        E 16 b1 0b 55
        E 16 b1 0b 4c
        E 16 b1 0b 44
        E 16 b1 0b 3b
        E 16 b1 0b 33
        E 16 b1 0b 2a
        E 16 b1 0b 19
        E 16 b1 0b 11
        E 16 81 35 00
        E 32 b1 0b 66
        E 0 91 38 66
        E 16 b1 0b 5d
        E 16 b1 0b 55
        E 16 b1 0b 4c
        E 16 b1 0b 44
        E 16 b1 0b 3b
        E 16 b1 0b 33
        E 16 b1 0b 2a
        E 16 b1 0b 19
        E 16 b1 0b 11
        E 16 81 38 00
        E 224 b1 0b 66
        E 0 91 33 66
        E 16 b1 0b 5d
        E 16 b1 0b 55
        E 16 b1 0b 4c
        E 16 b1 0b 44
        E 16 b1 0b 3b
        E 16 b1 0b 33
        E 16 b1 0b 2a
        E 16 b1 0b 19
        E 16 b1 0b 11
        E 16 81 33 00
        E 224 b1 0b 66
        E 0 91 30 66
        E 16 b1 0b 5d
        E 16 b1 0b 55
        E 16 b1 0b 4c
        E 16 b1 0b 44
        E 16 b1 0b 3b
        E 16 b1 0b 33
        E 16 b1 0b 2a
        E 16 b1 0b 19
        E 16 b1 0b 11
        E 16 81 30 00
        E 224 b1 0b 66
        E 0 91 33 66
        E 16 b1 0b 5d
        E 16 b1 0b 55
        E 16 b1 0b 4c
        E 16 b1 0b 44
        E 16 b1 0b 3b
        E 16 b1 0b 33
        E 16 b1 0b 2a
        E 16 b1 0b 19
        E 16 b1 0b 11
        E 16 81 33 00
        E 224 b1 0b 66
        E 0 91 38 66
        E 16 b1 0b 5d
        E 16 b1 0b 55
        E 16 b1 0b 4c
        E 16 b1 0b 44
        E 16 b1 0b 3b
        E 16 b1 0b 33
        E 16 b1 0b 2a
        E 16 b1 0b 19
        E 16 b1 0b 11
        E 16 81 38 00
        E 32 b1 0b 66
        E 0 91 35 66
        E 16 b1 0b 5d
        E 16 b1 0b 55
        E 16 b1 0b 4c
        E 16 b1 0b 44
        E 16 b1 0b 3b
        E 16 b1 0b 33
        E 16 b1 0b 2a
        E 16 b1 0b 19
        E 16 b1 0b 11
        E 16 81 35 00
        E 32 b1 0b 66
        E 0 91 38 66
        E 16 b1 0b 5d
        E 16 b1 0b 55
        E 16 b1 0b 4c
        E 16 b1 0b 44
        E 16 b1 0b 3b
        E 16 b1 0b 33
        E 16 b1 0b 2a
        E 16 b1 0b 19
        E 16 b1 0b 11
        E 16 81 38 00
        E 32 b1 0b 66
        E 0 91 35 66
        E 16 b1 0b 5d
        E 16 b1 0b 55
        E 16 b1 0b 4c
        E 16 b1 0b 44
        E 16 b1 0b 3b
        E 16 b1 0b 33
        E 16 b1 0b 2a
        E 16 b1 0b 19
        E 16 b1 0b 11
        E 16 81 35 00
        E 32 b1 0b 66
        E 0 91 38 66
        E 16 b1 0b 5d
        E 16 b1 0b 55
        E 16 b1 0b 4c
        E 16 b1 0b 44
        E 16 b1 0b 3b
        E 16 b1 0b 33
        E 16 b1 0b 2a
        E 16 b1 0b 19
        E 16 b1 0b 11
        E 16 81 38 00
        E 32 b1 0b 66
        E 0 91 35 66
        E 16 b1 0b 5d
        E 16 b1 0b 55
        E 16 b1 0b 4c
        E 16 b1 0b 44
        E 16 b1 0b 3b
        E 16 b1 0b 33
        E 16 b1 0b 2a
        E 16 b1 0b 19
        E 16 b1 0b 11
        E 16 81 35 00
        E 32 b1 0b 66
        E 0 91 38 66
        E 16 b1 0b 5d
        E 16 b1 0b 55
        E 16 b1 0b 4c
        E 16 b1 0b 44
        E 16 b1 0b 3b
        E 16 b1 0b 33
        E 16 b1 0b 2a
        E 16 b1 0b 19
        E 16 b1 0b 11
        E 16 81 38 00
        E 32 b1 0b 66
        E 0 91 35 66
        E 16 b1 0b 5d
        E 16 b1 0b 55
        E 16 b1 0b 4c
        E 16 b1 0b 44
        E 16 b1 0b 3b
        E 16 b1 0b 33
        E 16 b1 0b 2a
        E 16 b1 0b 19
        E 16 b1 0b 11
        E 16 81 35 00
        E 32 b1 0b 66
        E 0 91 2d 66
        E 16 b1 0b 5d
        E 16 b1 0b 55
        E 16 b1 0b 4c
        E 16 b1 0b 44
        E 16 b1 0b 3b
        E 32 b1 0b 33
        E 16 b1 0b 2a
        E 16 b1 0b 19
        E 16 b1 0b 11
        E 16 81 2d 00
        E 16 b1 0b 66
        E 0 91 2d 66
        E 16 b1 0b 5d
        E 16 b1 0b 55
        E 16 b1 0b 4c
        E 16 b1 0b 44
        E 16 b1 0b 3b
        E 32 b1 0b 33
        E 16 b1 0b 2a
        E 16 b1 0b 19
        E 16 b1 0b 11
        E 16 81 2d 00
        E 592 b1 0b 66
        E 0 91 2b 66
        E 16 b1 0b 5d
        E 16 b1 0b 55
        E 16 b1 0b 4c
        E 16 b1 0b 44
        E 16 b1 0b 3b
        E 16 b1 0b 33
        E 16 b1 0b 2a
        E 16 b1 0b 19
        E 16 b1 0b 11
        E 16 81 2b 00
        E 224 b1 0b 66
        E 0 91 2d 66
        E 16 b1 0b 5d
        E 16 b1 0b 55
        E 16 b1 0b 4c
        E 16 b1 0b 44
        E 16 b1 0b 3b
        E 32 b1 0b 33
        E 16 b1 0b 2a
        E 16 b1 0b 19
        E 16 b1 0b 11
        E 16 81 2d 00
        E 784 b1 0b 66
        E 0 91 2b 66
        E 16 b1 0b 5d
        E 16 b1 0b 55
        E 16 b1 0b 4c
        E 16 b1 0b 44
        E 16 b1 0b 3b
        E 32 b1 0b 33
        E 16 b1 0b 2a
        E 16 b1 0b 19
        E 16 b1 0b 11
        E 16 81 2b 00
        E 16 b1 0b 66
        E 0 91 2b 66
        E 16 b1 0b 5d
        E 16 b1 0b 55
        E 16 b1 0b 4c
        E 16 b1 0b 44
        E 16 b1 0b 3b
        E 16 b1 0b 33
        E 16 b1 0b 2a
        E 16 b1 0b 19
        E 16 b1 0b 11
        E 16 81 2b 00
        E 224 b1 0b 66
        E 0 91 2b 66
        E 16 b1 0b 5d
        E 16 b1 0b 55
        E 16 b1 0b 4c
        E 16 b1 0b 44
        E 16 b1 0b 3b
        E 32 b1 0b 33
        E 16 b1 0b 2a
        E 16 b1 0b 19
        E 16 b1 0b 11
        E 16 81 2b 00
        E 16 b1 0b 66
        E 0 91 2d 66
        E 16 b1 0b 5d
        E 16 b1 0b 55
        E 16 b1 0b 4c
        E 16 b1 0b 44
        E 16 b1 0b 3b
        E 32 b1 0b 33
        E 16 b1 0b 2a
        E 16 b1 0b 19
        E 16 b1 0b 11
        E 16 81 2d 00
        E 16 b1 0b 66
        E 0 91 2d 66
        E 16 b1 0b 5d
        E 16 b1 0b 55
        E 16 b1 0b 4c
        E 16 b1 0b 44
        E 16 b1 0b 3b
        E 32 b1 0b 33
        E 16 b1 0b 2a
        E 16 b1 0b 19
        E 16 b1 0b 11
        E 16 81 2d 00
        E 592 b1 0b 66
        E 0 91 2b 66
        E 16 b1 0b 5d
        E 16 b1 0b 55
        E 16 b1 0b 4c
        E 16 b1 0b 44
        E 16 b1 0b 3b
        E 16 b1 0b 33
        E 16 b1 0b 2a
        E 16 b1 0b 19
        E 16 b1 0b 11
        E 16 81 2b 00
        E 224 b1 0b 66
        E 0 91 2d 66
        E 16 b1 0b 5d
        E 16 b1 0b 55
        E 16 b1 0b 4c
        E 16 b1 0b 44
        E 16 b1 0b 3b
        E 32 b1 0b 33
        E 16 b1 0b 2a
        E 16 b1 0b 19
        E 16 b1 0b 11
        E 16 81 2d 00
        E 784 b1 0b 66
        E 0 91 2b 66
        E 16 b1 0b 5d
        E 16 b1 0b 55
        E 16 b1 0b 4c
        E 16 b1 0b 44
        E 16 b1 0b 3b
        E 32 b1 0b 33
        E 16 b1 0b 2a
        E 16 b1 0b 19
        E 16 b1 0b 11
        E 16 81 2b 00
        E 16 b1 0b 66
        E 0 91 2b 66
        E 16 b1 0b 5d
        E 16 b1 0b 55
        E 16 b1 0b 4c
        E 16 b1 0b 44
        E 16 b1 0b 3b
        E 16 b1 0b 33
        E 16 b1 0b 2a
        E 16 b1 0b 19
        E 16 b1 0b 11
        E 16 81 2b 00
        E 224 b1 0b 66
        E 0 91 2b 66
        E 16 b1 0b 5d
        E 16 b1 0b 55
        E 16 b1 0b 4c
        E 16 b1 0b 44
        E 16 b1 0b 3b
        E 32 b1 0b 33
        E 16 b1 0b 2a
        E 16 b1 0b 19
        E 16 b1 0b 11
        E 16 81 2b 00
        E 16 b1 0b 66
        E 0 91 2d 66
        E 16 b1 0b 5d
        E 16 b1 0b 55
        E 16 b1 0b 4c
        E 16 b1 0b 44
        E 16 b1 0b 3b
        E 16 b1 0b 33
        E 16 b1 0b 2a
        E 16 b1 0b 22
        E 16 b1 0b 2a
        E 16 b1 0b 33
        E 16 b1 0b 3b
        E 16 b1 0b 44
        E 16 b1 0b 3b
        E 16 b1 0b 33
        E 16 b1 0b 2a
        E 16 b1 0b 22
        E 16 b1 0b 2a
        E 16 b1 0b 33
        E 16 b1 0b 3b
        E 16 b1 0b 44
        E 16 b1 0b 3b
        E 16 b1 0b 33
        E 16 b1 0b 2a
        E 16 b1 0b 22
        E 16 b1 0b 2a
        E 16 b1 0b 33
        E 16 b1 0b 3b
        E 16 b1 0b 44
        E 16 b1 0b 4c
        E 16 b1 0b 55
        E 16 b1 0b 5d
        E 272 81 2d 00
        E 192 b1 0b 66
        E 0 91 29 66
        E 16 b1 0b 55
        E 16 b1 0b 44
        E 16 b1 0b 33
        E 16 b1 0b 19
        E 16 81 29 00
        E 112 b1 0b 66
        E 0 91 2b 66
        E 16 b1 0b 55
        E 16 b1 0b 44
        E 16 b1 0b 33
        E 16 b1 0b 19
        E 16 81 2b 00
        E 112 b1 0b 66
        E 0 91 2d 66
        E 16 b1 0b 55
        E 16 b1 0b 44
        E 16 b1 0b 33
        E 16 b1 0b 19
        E 16 81 2d 00
        E 112 b1 0b 66
        E 0 91 2f 66
        E 16 b1 0b 5d
        E 16 b1 0b 55
        E 16 b1 0b 4c
        E 16 b1 0b 44
        E 16 b1 0b 3b
        E 16 b1 0b 33
        E 16 b1 0b 2a
        E 16 b1 0b 22
        E 16 b1 0b 2a
        E 16 b1 0b 33
        E 16 b1 0b 3b
        E 16 b1 0b 44
        E 16 b1 0b 3b
        E 16 b1 0b 33
        E 16 b1 0b 2a
        E 16 b1 0b 22
        E 16 b1 0b 2a
        E 16 b1 0b 33
        E 16 b1 0b 3b
        E 16 b1 0b 44
        E 16 b1 0b 3b
        E 16 b1 0b 33
        E 16 b1 0b 2a
        E 16 b1 0b 22
        E 16 b1 0b 2a
        E 16 b1 0b 33
        E 16 b1 0b 3b
        E 16 b1 0b 44
        E 16 b1 0b 4c
        E 16 b1 0b 55
        E 16 b1 0b 5d
        E 272 81 2f 00
        E 192 b1 0b 66
        E 0 91 2b 66
        E 16 b1 0b 55
        E 16 b1 0b 44
        E 16 b1 0b 33
        E 16 b1 0b 19
        E 16 81 2b 00
        E 112 b1 0b 66
        E 0 91 2d 66
        E 16 b1 0b 55
        E 16 b1 0b 44
        E 16 b1 0b 33
        E 16 b1 0b 19
        E 16 81 2d 00
        E 112 b1 0b 66
        E 0 91 2f 66
        E 16 b1 0b 55
        E 16 b1 0b 44
        E 16 b1 0b 33
        E 16 b1 0b 19
        E 16 81 2f 00
        E 112 b1 0b 66
        E 0 91 30 66
        E 16 b1 0b 5d
        E 16 b1 0b 55
        E 16 b1 0b 4c
        E 16 b1 0b 44
        E 16 b1 0b 3b
        E 16 b1 0b 33
        E 16 b1 0b 2a
        E 16 b1 0b 22
        E 16 b1 0b 2a
        E 16 b1 0b 33
        E 16 b1 0b 3b
        E 16 b1 0b 44
        E 16 b1 0b 3b
        E 16 b1 0b 33
        E 16 b1 0b 2a
        E 16 b1 0b 22
        E 16 b1 0b 2a
        E 16 b1 0b 33
        E 16 b1 0b 3b
        E 16 b1 0b 44
        E 16 b1 0b 3b
        E 16 b1 0b 33
        E 16 b1 0b 2a
        E 16 b1 0b 22
        E 16 b1 0b 2a
        E 16 b1 0b 33
        E 16 b1 0b 3b
        E 16 b1 0b 44
        E 16 b1 0b 4c
        E 16 b1 0b 55
        E 16 b1 0b 5d
        E 272 81 30 00
        E 192 b1 0b 66
        E 0 91 2d 66
        E 16 b1 0b 55
        E 16 b1 0b 44
        E 16 b1 0b 33
        E 16 b1 0b 19
        E 16 81 2d 00
        E 112 b1 0b 66
        E 0 91 2f 66
        E 16 b1 0b 55
        E 16 b1 0b 44
        E 16 b1 0b 33
        E 16 b1 0b 19
        E 16 81 2f 00
        E 112 b1 0b 66
        E 0 91 30 66
        E 16 b1 0b 55
        E 16 b1 0b 44
        E 16 b1 0b 33
        E 16 b1 0b 19
        E 16 81 30 00
        E 112 b1 0b 66
        E 0 91 2f 66
        E 16 b1 0b 5d
        E 16 b1 0b 55
        E 16 b1 0b 4c
        E 16 b1 0b 44
        E 16 b1 0b 3b
        E 16 b1 0b 33
        E 16 b1 0b 2a
        E 16 b1 0b 22
        E 16 b1 0b 2a
        E 16 b1 0b 33
        E 16 b1 0b 3b
        E 16 b1 0b 44
        E 16 b1 0b 3b
        E 16 b1 0b 33
        E 16 b1 0b 2a
        E 16 b1 0b 22
        E 16 b1 0b 2a
        E 16 b1 0b 33
        E 16 b1 0b 3b
        E 16 b1 0b 44
        E 16 b1 0b 3b
        E 16 b1 0b 33
        E 16 b1 0b 2a
        E 16 b1 0b 22
        E 16 b1 0b 2a
        E 16 b1 0b 33
        E 16 b1 0b 3b
        E 16 b1 0b 44
        E 16 b1 0b 4c
        E 16 b1 0b 55
        E 16 b1 0b 5d
        E 272 81 2f 00
        E 192 b1 0b 66
        E 0 91 2b 66
        E 16 b1 0b 55
        E 16 b1 0b 44
        E 16 b1 0b 33
        E 16 b1 0b 19
        E 16 81 2b 00
        E 112 b1 0b 66
        E 0 91 2d 66
        E 16 b1 0b 55
        E 16 b1 0b 44
        E 16 b1 0b 33
        E 16 b1 0b 19
        E 16 81 2d 00
        E 112 b1 0b 66
        E 0 91 2f 66
        E 16 b1 0b 55
        E 16 b1 0b 44
        E 16 b1 0b 33
        E 16 b1 0b 19
        E 16 81 2f 00
        E 112 b1 0b 66
        E 0 91 2d 66
        E 16 b1 0b 5d
        E 16 b1 0b 55
        E 16 b1 0b 4c
        E 16 b1 0b 44
        E 16 b1 0b 3b
        E 16 b1 0b 33
        E 16 b1 0b 2a
        E 16 b1 0b 22
        E 16 b1 0b 2a
        E 16 b1 0b 33
        E 16 b1 0b 3b
        E 16 b1 0b 44
        E 16 b1 0b 3b
        E 16 b1 0b 33
        E 16 b1 0b 2a
        E 16 b1 0b 22
        E 16 b1 0b 2a
        E 16 b1 0b 33
        E 16 b1 0b 3b
        E 16 b1 0b 44
        E 16 b1 0b 3b
        E 16 b1 0b 33
        E 16 b1 0b 2a
        E 16 b1 0b 22
        E 16 b1 0b 2a
        E 16 b1 0b 33
        E 16 b1 0b 3b
        E 16 b1 0b 44
        E 16 b1 0b 4c
        E 16 b1 0b 55
        E 16 b1 0b 5d
        E 272 81 2d 00
        E 192 b1 0b 66
        E 0 91 29 66
        E 16 b1 0b 55
        E 16 b1 0b 44
        E 16 b1 0b 33
        E 16 b1 0b 19
        E 16 81 29 00
        E 112 b1 0b 66
        E 0 91 2b 66
        E 16 b1 0b 55
        E 16 b1 0b 44
        E 16 b1 0b 33
        E 16 b1 0b 19
        E 16 81 2b 00
        E 112 b1 0b 66
        E 0 91 2d 66
        E 16 b1 0b 55
        E 16 b1 0b 44
        E 16 b1 0b 33
        E 16 b1 0b 19
        E 16 81 2d 00
        E 112 b1 0b 66
        E 0 91 2f 66
        E 16 b1 0b 5d
        E 16 b1 0b 55
        E 16 b1 0b 4c
        E 16 b1 0b 44
        E 16 b1 0b 3b
        E 16 b1 0b 33
        E 16 b1 0b 2a
        E 16 b1 0b 22
        E 16 b1 0b 2a
        E 16 b1 0b 33
        E 16 b1 0b 3b
        E 16 b1 0b 44
        E 16 b1 0b 3b
        E 16 b1 0b 33
        E 16 b1 0b 2a
        E 16 b1 0b 22
        E 16 b1 0b 2a
        E 16 b1 0b 33
        E 16 b1 0b 3b
        E 16 b1 0b 44
        E 16 b1 0b 3b
        E 16 b1 0b 33
        E 16 b1 0b 2a
        E 16 b1 0b 22
        E 16 b1 0b 2a
        E 16 b1 0b 33
        E 16 b1 0b 3b
        E 16 b1 0b 44
        E 16 b1 0b 4c
        E 16 b1 0b 55
        E 16 b1 0b 5d
        E 272 81 2f 00
        E 192 b1 0b 66
        E 0 91 2b 66
        E 16 b1 0b 55
        E 16 b1 0b 44
        E 16 b1 0b 33
        E 16 b1 0b 19
        E 16 81 2b 00
        E 112 b1 0b 66
        E 0 91 2d 66
        E 16 b1 0b 55
        E 16 b1 0b 44
        E 16 b1 0b 33
        E 16 b1 0b 19
        E 16 81 2d 00
        E 112 b1 0b 66
        E 0 91 2f 66
        E 16 b1 0b 55
        E 16 b1 0b 44
        E 16 b1 0b 33
        E 16 b1 0b 19
        E 16 81 2f 00
        E 112 b1 0b 66
        E 0 91 30 66
        E 16 b1 0b 5d
        E 16 b1 0b 55
        E 16 b1 0b 4c
        E 16 b1 0b 44
        E 16 b1 0b 3b
        E 16 b1 0b 33
        E 16 b1 0b 2a
        E 16 b1 0b 22
        E 16 b1 0b 2a
        E 16 b1 0b 33
        E 16 b1 0b 3b
        E 16 b1 0b 44
        E 16 b1 0b 3b
        E 16 b1 0b 33
        E 16 b1 0b 2a
        E 16 b1 0b 22
        E 16 b1 0b 2a
        E 16 b1 0b 33
        E 16 b1 0b 3b
        E 16 b1 0b 44
        E 16 b1 0b 3b
        E 16 b1 0b 33
        E 16 b1 0b 2a
        E 16 b1 0b 22
        E 16 b1 0b 2a
        E 16 b1 0b 33
        E 16 b1 0b 3b
        E 16 b1 0b 44
        E 16 b1 0b 4c
        E 16 b1 0b 55
        E 16 b1 0b 5d
        E 272 81 30 00
        E 192 b1 0b 66
        E 0 91 2d 66
        E 16 b1 0b 55
        E 16 b1 0b 44
        E 16 b1 0b 33
        E 16 b1 0b 19
        E 16 81 2d 00
        E 112 b1 0b 66
        E 0 91 2f 66
        E 16 b1 0b 55
        E 16 b1 0b 44
        E 16 b1 0b 33
        E 16 b1 0b 19
        E 16 81 2f 00
        E 112 b1 0b 66
        E 0 91 30 66
        E 16 b1 0b 55
        E 16 b1 0b 44
        E 16 b1 0b 33
        E 16 b1 0b 19
        E 16 81 30 00
        E 112 b1 0b 66
        E 0 91 2f 66
        E 16 b1 0b 5d
        E 16 b1 0b 55
        E 16 b1 0b 4c
        E 16 b1 0b 44
        E 16 b1 0b 3b
        E 16 b1 0b 33
        E 16 b1 0b 2a
        E 16 b1 0b 22
        E 16 b1 0b 2a
        E 16 b1 0b 33
        E 16 b1 0b 3b
        E 16 b1 0b 44
        E 16 b1 0b 3b
        E 16 b1 0b 33
        E 16 b1 0b 2a
        E 16 b1 0b 22
        E 16 b1 0b 2a
        E 16 b1 0b 33
        E 16 b1 0b 3b
        E 16 b1 0b 44
        E 16 b1 0b 3b
        E 16 b1 0b 33
        E 16 b1 0b 2a
        E 16 b1 0b 22
        E 16 b1 0b 2a
        E 16 b1 0b 33
        E 16 b1 0b 3b
        E 16 b1 0b 44
        E 16 b1 0b 4c
        E 16 b1 0b 55
        E 16 b1 0b 5d
        E 272 81 2f 00
        E 192 b1 0b 66
        E 0 91 2b 66
        E 16 b1 0b 55
        E 16 b1 0b 44
        E 16 b1 0b 33
        E 16 b1 0b 19
        E 16 81 2b 00
        E 112 b1 0b 66
        E 0 91 2d 66
        E 16 b1 0b 55
        E 16 b1 0b 44
        E 16 b1 0b 33
        E 16 b1 0b 19
        E 16 81 2d 00
        E 112 b1 0b 66
        E 0 91 2f 66
        E 16 b1 0b 55
        E 16 b1 0b 44
        E 16 b1 0b 33
        E 16 b1 0b 19
        E 16 81 2f 00
        E 112 b1 0b 66
        E 0 91 35 66
        E 16 b1 0b 5d
        E 16 b1 0b 55
        E 16 b1 0b 4c
        E 16 b1 0b 44
        E 16 b1 0b 3b
        E 16 b1 0b 33
        E 16 b1 0b 2a
        E 16 b1 0b 19
        E 16 b1 0b 11
        E 16 81 35 00
        E 224 b1 0b 66
        E 0 91 30 66
        E 16 b1 0b 5d
        E 16 b1 0b 55
        E 16 b1 0b 4c
        E 16 b1 0b 44
        E 16 b1 0b 3b
        E 16 b1 0b 33
        E 16 b1 0b 2a
        E 16 b1 0b 19
        E 16 b1 0b 11
        E 16 81 30 00
        E 224 b1 0b 66
        E 0 91 2d 66
        E 16 b1 0b 5d
        E 16 b1 0b 55
        E 16 b1 0b 4c
        E 16 b1 0b 44
        E 16 b1 0b 3b
        E 16 b1 0b 33
        E 16 b1 0b 2a
        E 16 b1 0b 19
        E 16 b1 0b 11
        E 16 81 2d 00
        E 224 b1 0b 66
        E 0 91 30 66
        E 16 b1 0b 5d
        E 16 b1 0b 55
        E 16 b1 0b 4c
        E 16 b1 0b 44
        E 16 b1 0b 3b
        E 16 b1 0b 33
        E 16 b1 0b 2a
        E 16 b1 0b 19
        E 16 b1 0b 11
        E 16 81 30 00
        E 224 b1 0b 66
        E 0 91 35 66
        E 16 b1 0b 5d
        E 16 b1 0b 55
        E 16 b1 0b 4c
        E 16 b1 0b 44
        E 16 b1 0b 3b
        E 16 b1 0b 33
        E 16 b1 0b 2a
        E 16 b1 0b 19
        E 16 b1 0b 11
        E 16 81 35 00
        E 32 b1 0b 66
        E 0 91 32 66
        E 16 b1 0b 5d
        E 16 b1 0b 55
        E 16 b1 0b 4c
        E 16 b1 0b 44
        E 16 b1 0b 3b
        E 16 b1 0b 33
        E 16 b1 0b 2a
        E 16 b1 0b 19
        E 16 b1 0b 11
        E 16 81 32 00
        E 32 b1 0b 66
        E 0 91 35 66
        E 16 b1 0b 5d
        E 16 b1 0b 55
        E 16 b1 0b 4c
        E 16 b1 0b 44
        E 16 b1 0b 3b
        E 16 b1 0b 33
        E 16 b1 0b 2a
        E 16 b1 0b 19
        E 16 b1 0b 11
        E 16 81 35 00
        E 32 b1 0b 66
        E 0 91 32 66
        E 16 b1 0b 5d
        E 16 b1 0b 55
        E 16 b1 0b 4c
        E 16 b1 0b 44
        E 16 b1 0b 3b
        E 16 b1 0b 33
        E 16 b1 0b 2a
        E 16 b1 0b 19
        E 16 b1 0b 11
        E 16 81 32 00
        E 32 b1 0b 66
        E 0 91 35 66
        E 16 b1 0b 5d
        E 16 b1 0b 55
        E 16 b1 0b 4c
        E 16 b1 0b 44
        E 16 b1 0b 3b
        E 16 b1 0b 33
        E 16 b1 0b 2a
        E 16 b1 0b 19
        E 16 b1 0b 11
        E 16 81 35 00
        E 32 b1 0b 66
        E 0 91 32 66
        E 16 b1 0b 5d
        E 16 b1 0b 55
        E 16 b1 0b 4c
        E 16 b1 0b 44
        E 16 b1 0b 3b
        E 16 b1 0b 33
        E 16 b1 0b 2a
        E 16 b1 0b 19
        E 16 b1 0b 11
        E 16 81 32 00
        E 32 b1 0b 66
        E 0 91 35 66
        E 16 b1 0b 5d
        E 16 b1 0b 55
        E 16 b1 0b 4c
        E 16 b1 0b 44
        E 16 b1 0b 3b
        E 16 b1 0b 33
        E 16 b1 0b 2a
        E 16 b1 0b 19
        E 16 b1 0b 11
        E 16 81 35 00
        E 32 b1 0b 66
        E 0 91 32 66
        E 16 b1 0b 5d
        E 16 b1 0b 55
        E 16 b1 0b 4c
        E 16 b1 0b 44
        E 16 b1 0b 3b
        E 16 b1 0b 33
        E 16 b1 0b 2a
        E 16 b1 0b 19
        E 16 b1 0b 11
        E 16 81 32 00
        E 32 b1 0b 66
        E 0 91 35 66
        E 16 b1 0b 5d
        E 16 b1 0b 55
        E 16 b1 0b 4c
        E 16 b1 0b 44
        E 16 b1 0b 3b
        E 16 b1 0b 33
        E 16 b1 0b 2a
        E 16 b1 0b 19
        E 16 b1 0b 11
        E 16 81 35 00
        E 224 b1 0b 66
        E 0 91 30 66
        E 16 b1 0b 5d
        E 16 b1 0b 55
        E 16 b1 0b 4c
        E 16 b1 0b 44
        E 16 b1 0b 3b
        E 16 b1 0b 33
        E 16 b1 0b 2a
        E 16 b1 0b 19
        E 16 b1 0b 11
        E 16 81 30 00
        E 224 b1 0b 66
        E 0 91 2d 66
        E 16 b1 0b 5d
        E 16 b1 0b 55
        E 16 b1 0b 4c
        E 16 b1 0b 44
        E 16 b1 0b 3b
        E 16 b1 0b 33
        E 16 b1 0b 2a
        E 16 b1 0b 19
        E 16 b1 0b 11
        E 16 81 2d 00
        E 224 b1 0b 66
        E 0 91 30 66
        E 16 b1 0b 5d
        E 16 b1 0b 55
        E 16 b1 0b 4c
        E 16 b1 0b 44
        E 16 b1 0b 3b
        E 16 b1 0b 33
        E 16 b1 0b 2a
        E 16 b1 0b 19
        E 16 b1 0b 11
        E 16 81 30 00
        E 224 b1 0b 66
        E 0 91 35 66
        E 16 b1 0b 5d
        E 16 b1 0b 55
        E 16 b1 0b 4c
        E 16 b1 0b 44
        E 16 b1 0b 3b
        E 16 b1 0b 33
        E 16 b1 0b 2a
        E 16 b1 0b 19
        E 16 b1 0b 11
        E 16 81 35 00
        E 32 b1 0b 66
        E 0 91 32 66
        E 16 b1 0b 5d
        E 16 b1 0b 55
        E 16 b1 0b 4c
        E 16 b1 0b 44
        E 16 b1 0b 3b
        E 16 b1 0b 33
        E 16 b1 0b 2a
        E 16 b1 0b 19
        E 16 b1 0b 11
        E 16 81 32 00
        E 32 b1 0b 66
        E 0 91 35 66
        E 16 b1 0b 5d
        E 16 b1 0b 55
        E 16 b1 0b 4c
        E 16 b1 0b 44
        E 16 b1 0b 3b
        E 16 b1 0b 33
        E 16 b1 0b 2a
        E 16 b1 0b 19
        E 16 b1 0b 11
        E 16 81 35 00
        E 32 b1 0b 66
        E 0 91 32 66
        E 16 b1 0b 5d
        E 16 b1 0b 55
        E 16 b1 0b 4c
        E 16 b1 0b 44
        E 16 b1 0b 3b
        E 16 b1 0b 33
        E 16 b1 0b 2a
        E 16 b1 0b 19
        E 16 b1 0b 11
        E 16 81 32 00
        E 32 b1 0b 66
        E 0 91 35 66
        E 16 b1 0b 5d
        E 16 b1 0b 55
        E 16 b1 0b 4c
        E 16 b1 0b 44
        E 16 b1 0b 3b
        E 16 b1 0b 33
        E 16 b1 0b 2a
        E 16 b1 0b 19
        E 16 b1 0b 11
        E 16 81 35 00
        E 32 b1 0b 66
        E 0 91 32 66
        E 16 b1 0b 5d
        E 16 b1 0b 55
        E 16 b1 0b 4c
        E 16 b1 0b 44
        E 16 b1 0b 3b
        E 16 b1 0b 33
        E 16 b1 0b 2a
        E 16 b1 0b 19
        E 16 b1 0b 11
        E 16 81 32 00
        E 32 b1 0b 66
        E 0 91 35 66
        E 16 b1 0b 5d
        E 16 b1 0b 55
        E 16 b1 0b 4c
        E 16 b1 0b 44
        E 16 b1 0b 3b
        E 16 b1 0b 33
        E 16 b1 0b 2a
        E 16 b1 0b 19
        E 16 b1 0b 11
        E 16 81 35 00
        E 32 b1 0b 66
        E 0 91 32 66
        E 16 b1 0b 5d
        E 16 b1 0b 55
        E 16 b1 0b 4c
        E 16 b1 0b 44
        E 16 b1 0b 3b
        E 16 b1 0b 33
        E 16 b1 0b 2a
        E 16 b1 0b 19
        E 16 b1 0b 11
        E 16 81 32 00
        E 32 b1 0b 66
        E 0 91 38 66
        E 16 b1 0b 5d
        E 16 b1 0b 55
        E 16 b1 0b 4c
        E 16 b1 0b 44
        E 16 b1 0b 3b
        E 16 b1 0b 33
        E 16 b1 0b 2a
        E 16 b1 0b 19
        E 16 b1 0b 11
        E 16 81 38 00
        E 224 b1 0b 66
        E 0 91 33 66
        E 16 b1 0b 5d
        E 16 b1 0b 55
        E 16 b1 0b 4c
        E 16 b1 0b 44
        E 16 b1 0b 3b
        E 16 b1 0b 33
        E 16 b1 0b 2a
        E 16 b1 0b 19
        E 16 b1 0b 11
        E 16 81 33 00
        E 224 b1 0b 66
        E 0 91 30 66
        E 16 b1 0b 5d
        E 16 b1 0b 55
        E 16 b1 0b 4c
        E 16 b1 0b 44
        E 16 b1 0b 3b
        E 16 b1 0b 33
        E 16 b1 0b 2a
        E 16 b1 0b 19
        E 16 b1 0b 11
        E 16 81 30 00
        E 224 b1 0b 66
        E 0 91 33 66
        E 16 b1 0b 5d
        E 16 b1 0b 55
        E 16 b1 0b 4c
        E 16 b1 0b 44
        E 16 b1 0b 3b
        E 16 b1 0b 33
        E 16 b1 0b 2a
        E 16 b1 0b 19
        E 16 b1 0b 11
        E 16 81 33 00
        E 224 b1 0b 66
        E 0 91 38 66
        E 16 b1 0b 5d
        E 16 b1 0b 55
        E 16 b1 0b 4c
        E 16 b1 0b 44
        E 16 b1 0b 3b
        E 16 b1 0b 33
        E 16 b1 0b 2a
        E 16 b1 0b 19
        E 16 b1 0b 11
        E 16 81 38 00
        E 32 b1 0b 66
        E 0 91 35 66
        E 16 b1 0b 5d
        E 16 b1 0b 55
        E 16 b1 0b 4c
        E 16 b1 0b 44
        E 16 b1 0b 3b
        E 16 b1 0b 33
        E 16 b1 0b 2a
        E 16 b1 0b 19
        E 16 b1 0b 11
        E 16 81 35 00
        E 32 b1 0b 66
        E 0 91 38 66
        E 16 b1 0b 5d
        E 16 b1 0b 55
        E 16 b1 0b 4c
        E 16 b1 0b 44
        E 16 b1 0b 3b
        E 16 b1 0b 33
        E 16 b1 0b 2a
        E 16 b1 0b 19
        E 16 b1 0b 11
        E 16 81 38 00
        E 32 b1 0b 66
        E 0 91 35 66
        E 16 b1 0b 5d
        E 16 b1 0b 55
        E 16 b1 0b 4c
        E 16 b1 0b 44
        E 16 b1 0b 3b
        E 16 b1 0b 33
        E 16 b1 0b 2a
        E 16 b1 0b 19
        E 16 b1 0b 11
        E 16 81 35 00
        E 32 b1 0b 66
        E 0 91 38 66
        E 16 b1 0b 5d
        E 16 b1 0b 55
        E 16 b1 0b 4c
        E 16 b1 0b 44
        E 16 b1 0b 3b
        E 16 b1 0b 33
        E 16 b1 0b 2a
        E 16 b1 0b 19
        E 16 b1 0b 11
        E 16 81 38 00
        E 32 b1 0b 66
        E 0 91 35 66
        E 16 b1 0b 5d
        E 16 b1 0b 55
        E 16 b1 0b 4c
        E 16 b1 0b 44
        E 16 b1 0b 3b
        E 16 b1 0b 33
        E 16 b1 0b 2a
        E 16 b1 0b 19
        E 16 b1 0b 11
        E 16 81 35 00
        E 32 b1 0b 66
        E 0 91 38 66
        E 16 b1 0b 5d
        E 16 b1 0b 55
        E 16 b1 0b 4c
        E 16 b1 0b 44
        E 16 b1 0b 3b
        E 16 b1 0b 33
        E 16 b1 0b 2a
        E 16 b1 0b 19
        E 16 b1 0b 11
        E 16 81 38 00
        E 32 b1 0b 66
        E 0 91 35 66
        E 16 b1 0b 5d
        E 16 b1 0b 55
        E 16 b1 0b 4c
        E 16 b1 0b 44
        E 16 b1 0b 3b
        E 16 b1 0b 33
        E 16 b1 0b 2a
        E 16 b1 0b 19
        E 16 b1 0b 11
        E 16 81 35 00
        E 32 b1 0b 66
        E 0 91 38 66
        E 16 b1 0b 5d
        E 16 b1 0b 55
        E 16 b1 0b 4c
        E 16 b1 0b 44
        E 16 b1 0b 3b
        E 16 b1 0b 33
        E 16 b1 0b 2a
        E 16 b1 0b 19
        E 16 b1 0b 11
        E 16 81 38 00
        E 224 b1 0b 66
        E 0 91 33 66
        E 16 b1 0b 5d
        E 16 b1 0b 55
        E 16 b1 0b 4c
        E 16 b1 0b 44
        E 16 b1 0b 3b
        E 16 b1 0b 33
        E 16 b1 0b 2a
        E 16 b1 0b 19
        E 16 b1 0b 11
        E 16 81 33 00
        E 224 b1 0b 66
        E 0 91 30 66
        E 16 b1 0b 5d
        E 16 b1 0b 55
        E 16 b1 0b 4c
        E 16 b1 0b 44
        E 16 b1 0b 3b
        E 16 b1 0b 33
        E 16 b1 0b 2a
        E 16 b1 0b 19
        E 16 b1 0b 11
        E 16 81 30 00
        E 224 b1 0b 66
        E 0 91 33 66
        E 16 b1 0b 5d
        E 16 b1 0b 55
        E 16 b1 0b 4c
        E 16 b1 0b 44
        E 16 b1 0b 3b
        E 16 b1 0b 33
        E 16 b1 0b 2a
        E 16 b1 0b 19
        E 16 b1 0b 11
        E 16 81 33 00
        E 224 b1 0b 66
        E 0 91 38 66
        E 16 b1 0b 5d
        E 16 b1 0b 55
        E 16 b1 0b 4c
        E 16 b1 0b 44
        E 16 b1 0b 3b
        E 16 b1 0b 33
        E 16 b1 0b 2a
        E 16 b1 0b 19
        E 16 b1 0b 11
        E 16 81 38 00
        E 32 b1 0b 66
        E 0 91 35 66
        E 16 b1 0b 5d
        E 16 b1 0b 55
        E 16 b1 0b 4c
        E 16 b1 0b 44
        E 16 b1 0b 3b
        E 16 b1 0b 33
        E 16 b1 0b 2a
        E 16 b1 0b 19
        E 16 b1 0b 11
        E 16 81 35 00
        E 32 b1 0b 66
        E 0 91 38 66
        E 16 b1 0b 5d
        E 16 b1 0b 55
        E 16 b1 0b 4c
        E 16 b1 0b 44
        E 16 b1 0b 3b
        E 16 b1 0b 33
        E 16 b1 0b 2a
        E 16 b1 0b 19
        E 16 b1 0b 11
        E 16 81 38 00
        E 32 b1 0b 66
        E 0 91 35 66
        E 16 b1 0b 5d
        E 16 b1 0b 55
        E 16 b1 0b 4c
        E 16 b1 0b 44
        E 16 b1 0b 3b
        E 16 b1 0b 33
        E 16 b1 0b 2a
        E 16 b1 0b 19
        E 16 b1 0b 11
        E 16 81 35 00
        E 32 b1 0b 66
        E 0 91 38 66
        E 16 b1 0b 5d
        E 16 b1 0b 55
        E 16 b1 0b 4c
        E 16 b1 0b 44
        E 16 b1 0b 3b
        E 16 b1 0b 33
        E 16 b1 0b 2a
        E 16 b1 0b 19
        E 16 b1 0b 11
        E 16 81 38 00
        E 32 b1 0b 66
        E 0 91 35 66
        E 16 b1 0b 5d
        E 16 b1 0b 55
        E 16 b1 0b 4c
        E 16 b1 0b 44
        E 16 b1 0b 3b
        E 16 b1 0b 33
        E 16 b1 0b 2a
        E 16 b1 0b 19
        E 16 b1 0b 11
        E 16 81 35 00
        E 32 b1 0b 66
        E 0 91 38 66
        E 16 b1 0b 5d
        E 16 b1 0b 55
        E 16 b1 0b 4c
        E 16 b1 0b 44
        E 16 b1 0b 3b
        E 16 b1 0b 33
        E 16 b1 0b 2a
        E 16 b1 0b 19
        E 16 b1 0b 11
        E 16 81 38 00
        E 32 b1 0b 66
        E 0 91 35 66
        E 16 b1 0b 5d
        E 16 b1 0b 55
        E 16 b1 0b 4c
        E 16 b1 0b 44
        E 16 b1 0b 3b
        E 16 b1 0b 33
        E 16 b1 0b 2a
        E 16 b1 0b 19
        E 16 b1 0b 11
        E 16 81 35 00
        E 32 b1 0b 66
        E 0 91 2d 66
        E 16 b1 0b 5d
        E 16 b1 0b 55
        E 16 b1 0b 4c
        E 16 b1 0b 44
        E 16 b1 0b 3b
        E 32 b1 0b 33
        E 16 b1 0b 2a
        E 16 b1 0b 19
        E 16 b1 0b 11
        E 16 81 2d 00
        E 16 b1 0b 66
        E 0 91 2d 66
        E 16 b1 0b 5d
        E 16 b1 0b 55
        E 16 b1 0b 4c
        E 16 b1 0b 44
        E 16 b1 0b 3b
        E 32 b1 0b 33
        E 16 b1 0b 2a
        E 16 b1 0b 19
        E 16 b1 0b 11
        E 16 81 2d 00
        E 592 b1 0b 66
        E 0 91 2b 66
        E 16 b1 0b 5d
        E 16 b1 0b 55
        E 16 b1 0b 4c
        E 16 b1 0b 44
        E 16 b1 0b 3b
        E 16 b1 0b 33
        E 16 b1 0b 2a
        E 16 b1 0b 19
        E 16 b1 0b 11
        E 16 81 2b 00
        E 224 b1 0b 66
        E 0 91 2d 66
        E 16 b1 0b 5d
        E 16 b1 0b 55
        E 16 b1 0b 4c
        E 16 b1 0b 44
        E 16 b1 0b 3b
        E 32 b1 0b 33
        E 16 b1 0b 2a
        E 16 b1 0b 19
        E 16 b1 0b 11
        E 16 81 2d 00
        E 784 b1 0b 66
        E 0 91 2b 66
        E 16 b1 0b 5d
        E 16 b1 0b 55
        E 16 b1 0b 4c
        E 16 b1 0b 44
        E 16 b1 0b 3b
        E 32 b1 0b 33
        E 16 b1 0b 2a
        E 16 b1 0b 19
        E 16 b1 0b 11
        E 16 81 2b 00
        E 16 b1 0b 66
        E 0 91 2b 66
        E 16 b1 0b 5d
        E 16 b1 0b 55
        E 16 b1 0b 4c
        E 16 b1 0b 44
        E 16 b1 0b 3b
        E 16 b1 0b 33
        E 16 b1 0b 2a
        E 16 b1 0b 19
        E 16 b1 0b 11
        E 16 81 2b 00
        E 224 b1 0b 66
        E 0 91 2b 66
        E 16 b1 0b 5d
        E 16 b1 0b 55
        E 16 b1 0b 4c
        E 16 b1 0b 44
        E 16 b1 0b 3b
        E 32 b1 0b 33
        E 16 b1 0b 2a
        E 16 b1 0b 19
        E 16 b1 0b 11
        E 16 81 2b 00
        E 16 b1 0b 66
        E 0 91 2d 66
        E 16 b1 0b 5d
        E 16 b1 0b 55
        E 16 b1 0b 4c
        E 16 b1 0b 44
        E 16 b1 0b 3b
        E 32 b1 0b 33
        E 16 b1 0b 2a
        E 16 b1 0b 19
        E 16 b1 0b 11
        E 16 81 2d 00
        E 16 b1 0b 66
        E 0 91 2d 66
        E 16 b1 0b 5d
        E 16 b1 0b 55
        E 16 b1 0b 4c
        E 16 b1 0b 44
        E 16 b1 0b 3b
        E 32 b1 0b 33
        E 16 b1 0b 2a
        E 16 b1 0b 19
        E 16 b1 0b 11
        E 16 81 2d 00
        E 592 b1 0b 66
        E 0 91 2b 66
        E 16 b1 0b 5d
        E 16 b1 0b 55
        E 16 b1 0b 4c
        E 16 b1 0b 44
        E 16 b1 0b 3b
        E 16 b1 0b 33
        E 16 b1 0b 2a
        E 16 b1 0b 19
        E 16 b1 0b 11
        E 16 81 2b 00
        E 224 b1 0b 66
        E 0 91 2d 66
        E 16 b1 0b 5d
        E 16 b1 0b 55
        E 16 b1 0b 4c
        E 16 b1 0b 44
        E 16 b1 0b 3b
        E 32 b1 0b 33
        E 16 b1 0b 2a
        E 16 b1 0b 19
        E 16 b1 0b 11
        E 16 81 2d 00
        E 784 b1 0b 66
        E 0 91 2b 66
        E 16 b1 0b 5d
        E 16 b1 0b 55
        E 16 b1 0b 4c
        E 16 b1 0b 44
        E 16 b1 0b 3b
        E 32 b1 0b 33
        E 16 b1 0b 2a
        E 16 b1 0b 19
        E 16 b1 0b 11
        E 16 81 2b 00
        E 16 b1 0b 66
        E 0 91 2b 66
        E 16 b1 0b 5d
        E 16 b1 0b 55
        E 16 b1 0b 4c
        E 16 b1 0b 44
        E 16 b1 0b 3b
        E 16 b1 0b 33
        E 16 b1 0b 2a
        E 16 b1 0b 19
        E 16 b1 0b 11
        E 16 81 2b 00
        E 224 b1 0b 66
        E 0 91 2b 66
        E 16 b1 0b 5d
        E 16 b1 0b 55
        E 16 b1 0b 4c
        E 16 b1 0b 44
        E 16 b1 0b 3b
        E 32 b1 0b 33
        E 16 b1 0b 2a
        E 16 b1 0b 19
        E 16 b1 0b 11
        E 16 81 2b 00
        E 16 b1 0b 66
        E 0 91 2d 66
        E 16 b1 0b 5d
        E 16 b1 0b 55
        E 16 b1 0b 4c
        E 16 b1 0b 44
        E 16 b1 0b 3b
        E 16 b1 0b 33
        E 16 b1 0b 2a
        E 16 b1 0b 22
        E 16 b1 0b 2a
        E 16 b1 0b 33
        E 16 b1 0b 3b
        E 16 b1 0b 44
        E 16 b1 0b 3b
        E 16 b1 0b 33
        E 16 b1 0b 2a
        E 16 b1 0b 22
        E 16 b1 0b 2a
        E 16 b1 0b 33
        E 16 b1 0b 3b
        E 16 b1 0b 44
        E 16 b1 0b 3b
        E 16 b1 0b 33
        E 16 b1 0b 2a
        E 16 b1 0b 22
        E 16 b1 0b 2a
        E 16 b1 0b 33
        E 16 b1 0b 3b
        E 16 b1 0b 44
        E 16 b1 0b 4c
        E 16 b1 0b 55
        E 16 b1 0b 5d
        E 272 81 2d 00
        E 192 b1 0b 66
        E 0 91 29 66
        E 16 b1 0b 55
        E 16 b1 0b 44
        E 16 b1 0b 33
        E 16 b1 0b 19
        E 16 81 29 00
        E 112 b1 0b 66
        E 0 91 2b 66
        E 16 b1 0b 55
        E 16 b1 0b 44
        E 16 b1 0b 33
        E 16 b1 0b 19
        E 16 81 2b 00
        E 112 b1 0b 66
        E 0 91 2d 66
        E 16 b1 0b 55
        E 16 b1 0b 44
        E 16 b1 0b 33
        E 16 b1 0b 19
        E 16 81 2d 00
        E 112 b1 0b 66
        E 0 91 2f 66
        E 16 b1 0b 5d
        E 16 b1 0b 55
        E 16 b1 0b 4c
        E 16 b1 0b 44
        E 16 b1 0b 3b
        E 16 b1 0b 33
        E 16 b1 0b 2a
        E 16 b1 0b 22
        E 16 b1 0b 2a
        E 16 b1 0b 33
        E 16 b1 0b 3b
        E 16 b1 0b 44
        E 16 b1 0b 3b
        E 16 b1 0b 33
        E 16 b1 0b 2a
        E 16 b1 0b 22
        E 16 b1 0b 2a
        E 16 b1 0b 33
        E 16 b1 0b 3b
        E 16 b1 0b 44
        E 16 b1 0b 3b
        E 16 b1 0b 33
        E 16 b1 0b 2a
        E 16 b1 0b 22
        E 16 b1 0b 2a
        E 16 b1 0b 33
        E 16 b1 0b 3b
        E 16 b1 0b 44
        E 16 b1 0b 4c
        E 16 b1 0b 55
        E 16 b1 0b 5d
        E 272 81 2f 00
        E 192 b1 0b 66
        E 0 91 2b 66
        E 16 b1 0b 55
        E 16 b1 0b 44
        E 16 b1 0b 33
        E 16 b1 0b 19
        E 16 81 2b 00
        E 112 b1 0b 66
        E 0 91 2d 66
        E 16 b1 0b 55
        E 16 b1 0b 44
        E 16 b1 0b 33
        E 16 b1 0b 19
        E 16 81 2d 00
        E 112 b1 0b 66
        E 0 91 2f 66
        E 16 b1 0b 55
        E 16 b1 0b 44
        E 16 b1 0b 33
        E 16 b1 0b 19
        E 16 81 2f 00
        E 112 b1 0b 66
        E 0 91 30 66
        E 16 b1 0b 5d
        E 16 b1 0b 55
        E 16 b1 0b 4c
        E 16 b1 0b 44
        E 16 b1 0b 3b
        E 16 b1 0b 33
        E 16 b1 0b 2a
        E 16 b1 0b 22
        E 16 b1 0b 2a
        E 16 b1 0b 33
        E 16 b1 0b 3b
        E 16 b1 0b 44
        E 16 b1 0b 3b
        E 16 b1 0b 33
        E 16 b1 0b 2a
        E 16 b1 0b 22
        E 16 b1 0b 2a
        E 16 b1 0b 33
        E 16 b1 0b 3b
        E 16 b1 0b 44
        E 16 b1 0b 3b
        E 16 b1 0b 33
        E 16 b1 0b 2a
        E 16 b1 0b 22
        E 16 b1 0b 2a
        E 16 b1 0b 33
        E 16 b1 0b 3b
        E 16 b1 0b 44
        E 16 b1 0b 4c
        E 16 b1 0b 55
        E 16 b1 0b 5d
        E 272 81 30 00
        E 192 b1 0b 66
        E 0 91 2d 66
        E 16 b1 0b 55
        E 16 b1 0b 44
        E 16 b1 0b 33
        E 16 b1 0b 19
        E 16 81 2d 00
        E 112 b1 0b 66
        E 0 91 2f 66
        E 16 b1 0b 55
        E 16 b1 0b 44
        E 16 b1 0b 33
        E 16 b1 0b 19
        E 16 81 2f 00
        E 112 b1 0b 66
        E 0 91 30 66
        E 16 b1 0b 55
        E 16 b1 0b 44
        E 16 b1 0b 33
        E 16 b1 0b 19
        E 16 81 30 00
        E 112 b1 0b 66
        E 0 91 2f 66
        E 16 b1 0b 5d
        E 16 b1 0b 55
        E 16 b1 0b 4c
        E 16 b1 0b 44
        E 16 b1 0b 3b
        E 16 b1 0b 33
        E 16 b1 0b 2a
        E 16 b1 0b 22
        E 16 b1 0b 2a
        E 16 b1 0b 33
        E 16 b1 0b 3b
        E 16 b1 0b 44
        E 16 b1 0b 3b
        E 16 b1 0b 33
        E 16 b1 0b 2a
        E 16 b1 0b 22
        E 16 b1 0b 2a
        E 16 b1 0b 33
        E 16 b1 0b 3b
        E 16 b1 0b 44
        E 16 b1 0b 3b
        E 16 b1 0b 33
        E 16 b1 0b 2a
        E 16 b1 0b 22
        E 16 b1 0b 2a
        E 16 b1 0b 33
        E 16 b1 0b 3b
        E 16 b1 0b 44
        E 16 b1 0b 4c
        E 16 b1 0b 55
        E 16 b1 0b 5d
        E 272 81 2f 00
        E 192 b1 0b 66
        E 0 91 2b 66
        E 16 b1 0b 55
        E 16 b1 0b 44
        E 16 b1 0b 33
        E 16 b1 0b 19
        E 16 81 2b 00
        E 112 b1 0b 66
        E 0 91 2d 66
        E 16 b1 0b 55
        E 16 b1 0b 44
        E 16 b1 0b 33
        E 16 b1 0b 19
        E 16 81 2d 00
        E 112 b1 0b 66
        E 0 91 2f 66
        E 16 b1 0b 55
        E 16 b1 0b 44
        E 16 b1 0b 33
        E 16 b1 0b 19
        E 16 81 2f 00
        E 112 b1 0b 66
        E 0 91 2d 66
        E 16 b1 0b 5d
        E 16 b1 0b 55
        E 16 b1 0b 4c
        E 16 b1 0b 44
        E 16 b1 0b 3b
        E 16 b1 0b 33
        E 16 b1 0b 2a
        E 16 b1 0b 22
        E 16 b1 0b 2a
        E 16 b1 0b 33
        E 16 b1 0b 3b
        E 16 b1 0b 44
        E 16 b1 0b 3b
        E 16 b1 0b 33
        E 16 b1 0b 2a
        E 16 b1 0b 22
        E 16 b1 0b 2a
        E 16 b1 0b 33
        E 16 b1 0b 3b
        E 16 b1 0b 44
        E 16 b1 0b 3b
        E 16 b1 0b 33
        E 16 b1 0b 2a
        E 16 b1 0b 22
        E 16 b1 0b 2a
        E 16 b1 0b 33
        E 16 b1 0b 3b
        E 16 b1 0b 44
        E 16 b1 0b 4c
        E 16 b1 0b 55
        E 16 b1 0b 5d
        E 272 81 2d 00
        E 192 b1 0b 66
        E 0 91 29 66
        E 16 b1 0b 55
        E 16 b1 0b 44
        E 16 b1 0b 33
        E 16 b1 0b 19
        E 16 81 29 00
        E 112 b1 0b 66
        E 0 91 2b 66
        E 16 b1 0b 55
        E 16 b1 0b 44
        E 16 b1 0b 33
        E 16 b1 0b 19
        E 16 81 2b 00
        E 112 b1 0b 66
        E 0 91 2d 66
        E 16 b1 0b 55
        E 16 b1 0b 44
        E 16 b1 0b 33
        E 16 b1 0b 19
        E 16 81 2d 00
        E 112 b1 0b 66
        E 0 91 2f 66
        E 16 b1 0b 5d
        E 16 b1 0b 55
        E 16 b1 0b 4c
        E 16 b1 0b 44
        E 16 b1 0b 3b
        E 16 b1 0b 33
        E 16 b1 0b 2a
        E 16 b1 0b 22
        E 16 b1 0b 2a
        E 16 b1 0b 33
        E 16 b1 0b 3b
        E 16 b1 0b 44
        E 16 b1 0b 3b
        E 16 b1 0b 33
        E 16 b1 0b 2a
        E 16 b1 0b 22
        E 16 b1 0b 2a
        E 16 b1 0b 33
        E 16 b1 0b 3b
        E 16 b1 0b 44
        E 16 b1 0b 3b
        E 16 b1 0b 33
        E 16 b1 0b 2a
        E 16 b1 0b 22
        E 16 b1 0b 2a
        E 16 b1 0b 33
        E 16 b1 0b 3b
        E 16 b1 0b 44
        E 16 b1 0b 4c
        E 16 b1 0b 55
        E 16 b1 0b 5d
        E 272 81 2f 00
        E 192 b1 0b 66
        E 0 91 2b 66
        E 16 b1 0b 55
        E 16 b1 0b 44
        E 16 b1 0b 33
        E 16 b1 0b 19
        E 16 81 2b 00
        E 112 b1 0b 66
        E 0 91 2d 66
        E 16 b1 0b 55
        E 16 b1 0b 44
        E 16 b1 0b 33
        E 16 b1 0b 19
        E 16 81 2d 00
        E 112 b1 0b 66
        E 0 91 2f 66
        E 16 b1 0b 55
        E 16 b1 0b 44
        E 16 b1 0b 33
        E 16 81 2f 00
        E 0 b1 7b 00
        E 0 ff 2f 00
      >
    >
  >
  <TRACK {17D27AD3-000B-4C7D-BF70-3D9EEB4A0D7D}
    NAME "NES - Triangle [ch2]"
    PEAKCOL 16744192
    BEAT -1
    AUTOMODE 0
    PANLAWFLAGS 3
    VOLPAN 1 0 -1 -1 1
    MUTESOLO 0 0 0
    IPHASE 0
    PLAYOFFS 0 1
    ISBUS 0 0
    BUSCOMP 0 0 0 0 0
    SHOWINMIX 1 0.6667 0.5 1 0.5 0 0 0
    FIXEDLANES 9 0 0 0 0
    SEL 0
    REC 0 5088 1 0 0 0 0 0
    VU 2
    TRACKHEIGHT 0 0 0 0 0 0 0
    INQ 0 0 0 0.5 100 0 0 100
    NCHAN 2
    FX 1
    TRACKID {17D27AD3-000B-4C7D-BF70-3D9EEB4A0D7D}
    PERF 0
    MIDIOUT -1
    MAINSEND 1 0
    <FXCHAIN
      WNDRECT 24 52 700 560
      SHOW 0
      LASTSEL 0
      DOCKED 0
      BYPASS 0 0 0
      <JS "ReapNES Studio/ReapNES_Console.jsfx" ""
        2 15 1 10 80 10 100 2 1 15 1 5 60 10 80 1 1 0 50 0 0 15 1 0 100 0 0 0.500000 0.500000 0.400000 0.300000 0.800000 2 1 0 0 0 0 - - - - - - - - - - - - - - - - - - - - - - - - - -
      >
      FLOATPOS 0 0 0 0
      FXID {0ABAE0CE-AC09-4BB7-B7AD-D8D253F263E2}
      WAK 0 0
    >
    <ITEM
      POSITION 0
      LENGTH 74.5878716
      LOOP 0
      ALLTAKES 0
      FADEIN 0 0 0 0 0 0 0
      FADEOUT 0 0 0 0 0 0 0
      MUTE 0 0
      SEL 0
      IGUID {42CA3C05-D509-4434-BF55-19333F865D53}
      <SOURCE MIDI
        HASDATA 1 480 QN
        CCINTERP 32
        E 0 c2 26
        E 64 b2 0b 7f
        E 0 92 32 7f
        E 96 82 32 00
        E 96 b2 0b 7f
        E 0 92 32 7f
        E 96 82 32 00
        E 672 b2 0b 7f
        E 0 92 30 7f
        E 384 82 30 00
        E 0 b2 0b 7f
        E 0 92 32 7f
        E 96 82 32 00
        E 864 b2 0b 7f
        E 0 92 30 7f
        E 96 82 30 00
        E 96 b2 0b 7f
        E 0 92 2f 7f
        E 480 82 2f 00
        E 96 b2 0b 7f
        E 0 92 32 7f
        E 96 82 32 00
        E 96 b2 0b 7f
        E 0 92 32 7f
        E 96 82 32 00
        E 672 b2 0b 7f
        E 0 92 30 7f
        E 384 82 30 00
        E 0 b2 0b 7f
        E 0 92 32 7f
        E 96 82 32 00
        E 864 b2 0b 7f
        E 0 92 30 7f
        E 96 82 30 00
        E 96 b2 0b 7f
        E 0 92 2f 7f
        E 480 82 2f 00
        E 96 b2 0b 7f
        E 0 92 32 7f
        E 96 82 32 00
        E 96 b2 0b 7f
        E 0 92 32 7f
        E 96 82 32 00
        E 96 b2 0b 7f
        E 0 92 35 7f
        E 96 82 35 00
        E 96 b2 0b 7f
        E 0 92 35 7f
        E 96 82 35 00
        E 96 b2 0b 7f
        E 0 92 32 7f
        E 96 82 32 00
        E 480 b2 0b 7f
        E 0 92 30 7f
        E 96 82 30 00
        E 96 b2 0b 7f
        E 0 92 32 7f
        E 96 82 32 00
        E 96 b2 0b 7f
        E 0 92 32 7f
        E 96 82 32 00
        E 96 b2 0b 7f
        E 0 92 37 7f
        E 96 82 37 00
        E 96 b2 0b 7f
        E 0 92 37 7f
        E 96 82 37 00
        E 96 b2 0b 7f
        E 0 92 32 7f
        E 96 82 32 00
        E 480 b2 0b 7f
        E 0 92 30 7f
        E 96 82 30 00
        E 96 b2 0b 7f
        E 0 92 32 7f
        E 96 82 32 00
        E 96 b2 0b 7f
        E 0 92 32 7f
        E 96 82 32 00
        E 96 b2 0b 7f
        E 0 92 39 7f
        E 96 82 39 00
        E 96 b2 0b 7f
        E 0 92 39 7f
        E 96 82 39 00
        E 96 b2 0b 7f
        E 0 92 32 7f
        E 96 82 32 00
        E 480 b2 0b 7f
        E 0 92 30 7f
        E 96 82 30 00
        E 96 b2 0b 7f
        E 0 92 32 7f
        E 96 82 32 00
        E 96 b2 0b 7f
        E 0 92 32 7f
        E 96 82 32 00
        E 96 b2 0b 7f
        E 0 92 37 7f
        E 96 82 37 00
        E 96 b2 0b 7f
        E 0 92 37 7f
        E 96 82 37 00
        E 96 b2 0b 7f
        E 0 92 32 7f
        E 96 82 32 00
        E 480 b2 0b 7f
        E 0 92 30 7f
        E 96 82 30 00
        E 96 b2 0b 7f
        E 0 92 32 7f
        E 96 82 32 00
        E 96 b2 0b 7f
        E 0 92 32 7f
        E 96 82 32 00
        E 96 b2 0b 7f
        E 0 92 35 7f
        E 96 82 35 00
        E 96 b2 0b 7f
        E 0 92 35 7f
        E 96 82 35 00
        E 96 b2 0b 7f
        E 0 92 32 7f
        E 96 82 32 00
        E 480 b2 0b 7f
        E 0 92 30 7f
        E 96 82 30 00
        E 96 b2 0b 7f
        E 0 92 32 7f
        E 96 82 32 00
        E 96 b2 0b 7f
        E 0 92 32 7f
        E 96 82 32 00
        E 96 b2 0b 7f
        E 0 92 37 7f
        E 96 82 37 00
        E 96 b2 0b 7f
        E 0 92 37 7f
        E 96 82 37 00
        E 96 b2 0b 7f
        E 0 92 32 7f
        E 96 82 32 00
        E 480 b2 0b 7f
        E 0 92 30 7f
        E 96 82 30 00
        E 96 b2 0b 7f
        E 0 92 32 7f
        E 96 82 32 00
        E 96 b2 0b 7f
        E 0 92 32 7f
        E 96 82 32 00
        E 96 b2 0b 7f
        E 0 92 39 7f
        E 96 82 39 00
        E 96 b2 0b 7f
        E 0 92 39 7f
        E 96 82 39 00
        E 96 b2 0b 7f
        E 0 92 32 7f
        E 96 82 32 00
        E 480 b2 0b 7f
        E 0 92 30 7f
        E 96 82 30 00
        E 96 b2 0b 7f
        E 0 92 32 7f
        E 96 82 32 00
        E 96 b2 0b 7f
        E 0 92 32 7f
        E 96 82 32 00
        E 96 b2 0b 7f
        E 0 92 37 7f
        E 96 82 37 00
        E 96 b2 0b 7f
        E 0 92 37 7f
        E 96 82 37 00
        E 96 b2 0b 7f
        E 0 92 32 7f
        E 96 82 32 00
        E 480 b2 0b 7f
        E 0 92 30 7f
        E 96 82 30 00
        E 96 b2 0b 7f
        E 0 92 29 7f
        E 96 82 29 00
        E 96 b2 0b 7f
        E 0 92 29 7f
        E 96 82 29 00
        E 96 b2 0b 7f
        E 0 92 35 7f
        E 96 82 35 00
        E 96 b2 0b 7f
        E 0 92 35 7f
        E 96 82 35 00
        E 288 b2 0b 7f
        E 0 92 29 7f
        E 96 82 29 00
        E 96 b2 0b 7f
        E 0 92 35 7f
        E 96 82 35 00
        E 96 b2 0b 7f
        E 0 92 30 7f
        E 96 82 30 00
        E 96 b2 0b 7f
        E 0 92 2b 7f
        E 672 82 2b 00
        E 96 b2 0b 7f
        E 0 92 2b 7f
        E 672 82 2b 00
        E 96 b2 0b 7f
        E 0 92 29 7f
        E 96 82 29 00
        E 96 b2 0b 7f
        E 0 92 29 7f
        E 96 82 29 00
        E 96 b2 0b 7f
        E 0 92 35 7f
        E 96 82 35 00
        E 96 b2 0b 7f
        E 0 92 35 7f
        E 96 82 35 00
        E 288 b2 0b 7f
        E 0 92 29 7f
        E 96 82 29 00
        E 96 b2 0b 7f
        E 0 92 35 7f
        E 96 82 35 00
        E 96 b2 0b 7f
        E 0 92 30 7f
        E 96 82 30 00
        E 96 b2 0b 7f
        E 0 92 2b 7f
        E 672 82 2b 00
        E 96 b2 0b 7f
        E 0 92 2b 7f
        E 672 82 2b 00
        E 96 b2 0b 7f
        E 0 92 2c 7f
        E 96 82 2c 00
        E 96 b2 0b 7f
        E 0 92 2c 7f
        E 96 82 2c 00
        E 96 b2 0b 7f
        E 0 92 38 7f
        E 96 82 38 00
        E 96 b2 0b 7f
        E 0 92 38 7f
        E 96 82 38 00
        E 288 b2 0b 7f
        E 0 92 2c 7f
        E 96 82 2c 00
        E 96 b2 0b 7f
        E 0 92 38 7f
        E 96 82 38 00
        E 96 b2 0b 7f
        E 0 92 33 7f
        E 96 82 33 00
        E 96 b2 0b 7f
        E 0 92 2e 7f
        E 672 82 2e 00
        E 96 b2 0b 7f
        E 0 92 2e 7f
        E 672 82 2e 00
        E 96 b2 0b 7f
        E 0 92 2c 7f
        E 96 82 2c 00
        E 96 b2 0b 7f
        E 0 92 2c 7f
        E 96 82 2c 00
        E 96 b2 0b 7f
        E 0 92 38 7f
        E 96 82 38 00
        E 96 b2 0b 7f
        E 0 92 38 7f
        E 96 82 38 00
        E 288 b2 0b 7f
        E 0 92 2c 7f
        E 96 82 2c 00
        E 96 b2 0b 7f
        E 0 92 38 7f
        E 96 82 38 00
        E 96 b2 0b 7f
        E 0 92 33 7f
        E 96 82 33 00
        E 96 b2 0b 7f
        E 0 92 2e 7f
        E 672 82 2e 00
        E 96 b2 0b 7f
        E 0 92 2e 7f
        E 672 82 2e 00
        E 96 b2 0b 7f
        E 0 92 32 7f
        E 96 82 32 00
        E 96 b2 0b 7f
        E 0 92 32 7f
        E 96 82 32 00
        E 672 b2 0b 7f
        E 0 92 30 7f
        E 384 82 30 00
        E 0 b2 0b 7f
        E 0 92 32 7f
        E 96 82 32 00
        E 864 b2 0b 7f
        E 0 92 30 7f
        E 96 82 30 00
        E 96 b2 0b 7f
        E 0 92 2f 7f
        E 480 82 2f 00
        E 96 b2 0b 7f
        E 0 92 32 7f
        E 96 82 32 00
        E 96 b2 0b 7f
        E 0 92 32 7f
        E 96 82 32 00
        E 672 b2 0b 7f
        E 0 92 30 7f
        E 384 82 30 00
        E 0 b2 0b 7f
        E 0 92 32 7f
        E 96 82 32 00
        E 864 b2 0b 7f
        E 0 92 30 7f
        E 96 82 30 00
        E 96 b2 0b 7f
        E 0 92 2f 7f
        E 480 82 2f 00
        E 96 b2 0b 7f
        E 0 92 32 7f
        E 96 82 32 00
        E 96 b2 0b 7f
        E 0 92 32 7f
        E 96 82 32 00
        E 96 b2 0b 7f
        E 0 92 35 7f
        E 96 82 35 00
        E 96 b2 0b 7f
        E 0 92 35 7f
        E 96 82 35 00
        E 96 b2 0b 7f
        E 0 92 32 7f
        E 96 82 32 00
        E 480 b2 0b 7f
        E 0 92 30 7f
        E 96 82 30 00
        E 96 b2 0b 7f
        E 0 92 32 7f
        E 96 82 32 00
        E 96 b2 0b 7f
        E 0 92 32 7f
        E 96 82 32 00
        E 96 b2 0b 7f
        E 0 92 37 7f
        E 96 82 37 00
        E 96 b2 0b 7f
        E 0 92 37 7f
        E 96 82 37 00
        E 96 b2 0b 7f
        E 0 92 32 7f
        E 96 82 32 00
        E 480 b2 0b 7f
        E 0 92 30 7f
        E 96 82 30 00
        E 96 b2 0b 7f
        E 0 92 32 7f
        E 96 82 32 00
        E 96 b2 0b 7f
        E 0 92 32 7f
        E 96 82 32 00
        E 96 b2 0b 7f
        E 0 92 39 7f
        E 96 82 39 00
        E 96 b2 0b 7f
        E 0 92 39 7f
        E 96 82 39 00
        E 96 b2 0b 7f
        E 0 92 32 7f
        E 96 82 32 00
        E 480 b2 0b 7f
        E 0 92 30 7f
        E 96 82 30 00
        E 96 b2 0b 7f
        E 0 92 32 7f
        E 96 82 32 00
        E 96 b2 0b 7f
        E 0 92 32 7f
        E 96 82 32 00
        E 96 b2 0b 7f
        E 0 92 37 7f
        E 96 82 37 00
        E 96 b2 0b 7f
        E 0 92 37 7f
        E 96 82 37 00
        E 96 b2 0b 7f
        E 0 92 32 7f
        E 96 82 32 00
        E 480 b2 0b 7f
        E 0 92 30 7f
        E 96 82 30 00
        E 96 b2 0b 7f
        E 0 92 32 7f
        E 96 82 32 00
        E 96 b2 0b 7f
        E 0 92 32 7f
        E 96 82 32 00
        E 96 b2 0b 7f
        E 0 92 35 7f
        E 96 82 35 00
        E 96 b2 0b 7f
        E 0 92 35 7f
        E 96 82 35 00
        E 96 b2 0b 7f
        E 0 92 32 7f
        E 96 82 32 00
        E 480 b2 0b 7f
        E 0 92 30 7f
        E 96 82 30 00
        E 96 b2 0b 7f
        E 0 92 32 7f
        E 96 82 32 00
        E 96 b2 0b 7f
        E 0 92 32 7f
        E 96 82 32 00
        E 96 b2 0b 7f
        E 0 92 37 7f
        E 96 82 37 00
        E 96 b2 0b 7f
        E 0 92 37 7f
        E 96 82 37 00
        E 96 b2 0b 7f
        E 0 92 32 7f
        E 96 82 32 00
        E 480 b2 0b 7f
        E 0 92 30 7f
        E 96 82 30 00
        E 96 b2 0b 7f
        E 0 92 32 7f
        E 96 82 32 00
        E 96 b2 0b 7f
        E 0 92 32 7f
        E 96 82 32 00
        E 96 b2 0b 7f
        E 0 92 39 7f
        E 96 82 39 00
        E 96 b2 0b 7f
        E 0 92 39 7f
        E 96 82 39 00
        E 96 b2 0b 7f
        E 0 92 32 7f
        E 96 82 32 00
        E 480 b2 0b 7f
        E 0 92 30 7f
        E 96 82 30 00
        E 96 b2 0b 7f
        E 0 92 32 7f
        E 96 82 32 00
        E 96 b2 0b 7f
        E 0 92 32 7f
        E 96 82 32 00
        E 96 b2 0b 7f
        E 0 92 37 7f
        E 96 82 37 00
        E 96 b2 0b 7f
        E 0 92 37 7f
        E 96 82 37 00
        E 96 b2 0b 7f
        E 0 92 32 7f
        E 96 82 32 00
        E 480 b2 0b 7f
        E 0 92 30 7f
        E 96 82 30 00
        E 96 b2 0b 7f
        E 0 92 29 7f
        E 96 82 29 00
        E 96 b2 0b 7f
        E 0 92 29 7f
        E 96 82 29 00
        E 96 b2 0b 7f
        E 0 92 35 7f
        E 96 82 35 00
        E 96 b2 0b 7f
        E 0 92 35 7f
        E 96 82 35 00
        E 288 b2 0b 7f
        E 0 92 29 7f
        E 96 82 29 00
        E 96 b2 0b 7f
        E 0 92 35 7f
        E 96 82 35 00
        E 96 b2 0b 7f
        E 0 92 30 7f
        E 96 82 30 00
        E 96 b2 0b 7f
        E 0 92 2b 7f
        E 672 82 2b 00
        E 96 b2 0b 7f
        E 0 92 2b 7f
        E 672 82 2b 00
        E 96 b2 0b 7f
        E 0 92 29 7f
        E 96 82 29 00
        E 96 b2 0b 7f
        E 0 92 29 7f
        E 96 82 29 00
        E 96 b2 0b 7f
        E 0 92 35 7f
        E 96 82 35 00
        E 96 b2 0b 7f
        E 0 92 35 7f
        E 96 82 35 00
        E 288 b2 0b 7f
        E 0 92 29 7f
        E 96 82 29 00
        E 96 b2 0b 7f
        E 0 92 35 7f
        E 96 82 35 00
        E 96 b2 0b 7f
        E 0 92 30 7f
        E 96 82 30 00
        E 96 b2 0b 7f
        E 0 92 2b 7f
        E 672 82 2b 00
        E 96 b2 0b 7f
        E 0 92 2b 7f
        E 672 82 2b 00
        E 96 b2 0b 7f
        E 0 92 2c 7f
        E 96 82 2c 00
        E 96 b2 0b 7f
        E 0 92 2c 7f
        E 96 82 2c 00
        E 96 b2 0b 7f
        E 0 92 38 7f
        E 96 82 38 00
        E 96 b2 0b 7f
        E 0 92 38 7f
        E 96 82 38 00
        E 288 b2 0b 7f
        E 0 92 2c 7f
        E 96 82 2c 00
        E 96 b2 0b 7f
        E 0 92 38 7f
        E 96 82 38 00
        E 96 b2 0b 7f
        E 0 92 33 7f
        E 96 82 33 00
        E 96 b2 0b 7f
        E 0 92 2e 7f
        E 672 82 2e 00
        E 96 b2 0b 7f
        E 0 92 2e 7f
        E 672 82 2e 00
        E 96 b2 0b 7f
        E 0 92 2c 7f
        E 96 82 2c 00
        E 96 b2 0b 7f
        E 0 92 2c 7f
        E 96 82 2c 00
        E 96 b2 0b 7f
        E 0 92 38 7f
        E 96 82 38 00
        E 96 b2 0b 7f
        E 0 92 38 7f
        E 96 82 38 00
        E 288 b2 0b 7f
        E 0 92 2c 7f
        E 96 82 2c 00
        E 96 b2 0b 7f
        E 0 92 38 7f
        E 96 82 38 00
        E 96 b2 0b 7f
        E 0 92 33 7f
        E 96 82 33 00
        E 96 b2 0b 7f
        E 0 92 2e 7f
        E 672 82 2e 00
        E 96 b2 0b 7f
        E 0 92 2e 7f
        E 672 82 2e 00
        E 96 b2 0b 7f
        E 0 92 32 7f
        E 96 82 32 00
        E 96 b2 0b 7f
        E 0 92 32 7f
        E 96 82 32 00
        E 672 b2 0b 7f
        E 0 92 30 7f
        E 384 82 30 00
        E 0 b2 0b 7f
        E 0 92 32 7f
        E 96 82 32 00
        E 864 b2 0b 7f
        E 0 92 30 7f
        E 96 82 30 00
        E 96 b2 0b 7f
        E 0 92 2f 7f
        E 480 82 2f 00
        E 96 b2 0b 7f
        E 0 92 32 7f
        E 96 82 32 00
        E 96 b2 0b 7f
        E 0 92 32 7f
        E 96 82 32 00
        E 672 b2 0b 7f
        E 0 92 30 7f
        E 384 82 30 00
        E 0 b2 0b 7f
        E 0 92 32 7f
        E 96 82 32 00
        E 864 b2 0b 7f
        E 0 92 30 7f
        E 96 82 30 00
        E 96 b2 0b 7f
        E 0 92 2f 7f
        E 480 82 2f 00
        E 96 b2 0b 7f
        E 0 92 32 7f
        E 96 82 32 00
        E 96 b2 0b 7f
        E 0 92 32 7f
        E 96 82 32 00
        E 96 b2 0b 7f
        E 0 92 35 7f
        E 96 82 35 00
        E 96 b2 0b 7f
        E 0 92 35 7f
        E 96 82 35 00
        E 96 b2 0b 7f
        E 0 92 32 7f
        E 96 82 32 00
        E 480 b2 0b 7f
        E 0 92 30 7f
        E 96 82 30 00
        E 96 b2 0b 7f
        E 0 92 32 7f
        E 96 82 32 00
        E 96 b2 0b 7f
        E 0 92 32 7f
        E 96 82 32 00
        E 96 b2 0b 7f
        E 0 92 37 7f
        E 96 82 37 00
        E 96 b2 0b 7f
        E 0 92 37 7f
        E 96 82 37 00
        E 96 b2 0b 7f
        E 0 92 32 7f
        E 96 82 32 00
        E 480 b2 0b 7f
        E 0 92 30 7f
        E 96 82 30 00
        E 96 b2 0b 7f
        E 0 92 32 7f
        E 96 82 32 00
        E 96 b2 0b 7f
        E 0 92 32 7f
        E 96 82 32 00
        E 96 b2 0b 7f
        E 0 92 39 7f
        E 96 82 39 00
        E 96 b2 0b 7f
        E 0 92 39 7f
        E 96 82 39 00
        E 96 b2 0b 7f
        E 0 92 32 7f
        E 96 82 32 00
        E 480 b2 0b 7f
        E 0 92 30 7f
        E 96 82 30 00
        E 96 b2 0b 7f
        E 0 92 32 7f
        E 96 82 32 00
        E 96 b2 0b 7f
        E 0 92 32 7f
        E 96 82 32 00
        E 96 b2 0b 7f
        E 0 92 37 7f
        E 96 82 37 00
        E 96 b2 0b 7f
        E 0 92 37 7f
        E 96 82 37 00
        E 96 b2 0b 7f
        E 0 92 32 7f
        E 96 82 32 00
        E 480 b2 0b 7f
        E 0 92 30 7f
        E 96 82 30 00
        E 96 b2 0b 7f
        E 0 92 32 7f
        E 96 82 32 00
        E 96 b2 0b 7f
        E 0 92 32 7f
        E 96 82 32 00
        E 96 b2 0b 7f
        E 0 92 35 7f
        E 96 82 35 00
        E 96 b2 0b 7f
        E 0 92 35 7f
        E 96 82 35 00
        E 96 b2 0b 7f
        E 0 92 32 7f
        E 96 82 32 00
        E 480 b2 0b 7f
        E 0 92 30 7f
        E 96 82 30 00
        E 96 b2 0b 7f
        E 0 92 32 7f
        E 96 82 32 00
        E 96 b2 0b 7f
        E 0 92 32 7f
        E 96 82 32 00
        E 96 b2 0b 7f
        E 0 92 37 7f
        E 96 82 37 00
        E 96 b2 0b 7f
        E 0 92 37 7f
        E 96 82 37 00
        E 96 b2 0b 7f
        E 0 92 32 7f
        E 96 82 32 00
        E 480 b2 0b 7f
        E 0 92 30 7f
        E 64 82 30 00
        E 0 b2 7b 00
        E 0 ff 2f 00
      >
    >
  >
  <TRACK {AB8E99BF-C133-4D41-8EAC-B5DF2C432F2A}
    NAME "NES - Noise / Drums"
    PEAKCOL 11184810
    BEAT -1
    AUTOMODE 0
    PANLAWFLAGS 3
    VOLPAN 1 0 -1 -1 1
    MUTESOLO 0 0 0
    IPHASE 0
    PLAYOFFS 0 1
    ISBUS 0 0
    BUSCOMP 0 0 0 0 0
    SHOWINMIX 1 0.6667 0.5 1 0.5 0 0 0
    FIXEDLANES 9 0 0 0 0
    SEL 0
    REC 0 5088 1 0 0 0 0 0
    VU 2
    TRACKHEIGHT 0 0 0 0 0 0 0
    INQ 0 0 0 0.5 100 0 0 100
    NCHAN 2
    FX 1
    TRACKID {AB8E99BF-C133-4D41-8EAC-B5DF2C432F2A}
    PERF 0
    MIDIOUT -1
    MAINSEND 1 0
    <FXCHAIN
      WNDRECT 24 52 700 560
      SHOW 0
      LASTSEL 0
      DOCKED 0
      BYPASS 0 0 0
      <JS "ReapNES Studio/ReapNES_Console.jsfx" ""
        2 15 1 10 80 10 100 2 1 15 1 5 60 10 80 1 1 0 50 0 0 15 1 0 100 0 0 0.500000 0.500000 0.400000 0.300000 0.800000 3 1 0 0 0 0 - - - - - - - - - - - - - - - - - - - - - - - - - -
      >
      FLOATPOS 0 0 0 0
      FXID {BB81839C-CA29-436F-977E-E4BC08957558}
      WAK 0 0
    >
  >
>