<REAPER_PROJECT 0.1 "7.27/win64" 1707000000
  <NOTES 0 2
    |ReapNES Studio Project
    |MIDI Import - Final_Fantasy_song_50_rom_v1
  >
  RIPPLE 0
  GROUPOVERRIDE 0 0 0
  AUTOXFADE 129
  ENVATTACH 3
  POOLEDENVATTACH 0
  MIXERUIFLAGS 11 48
  ENVFADESZ10 40
  PEAKGAIN 1
  FEEDBACK 0
  PANLAW 1
  PROJOFFS 0 0 0
  MAXPROJLEN 0 0
  GRID 3199 8 1 8 1 0 0 0
  TIMEMODE 1 5 -1 30 0 0 -1
  VIDEO_CONFIG 0 0 65792
  PANMODE 3
  PANLAWFLAGS 3
  CURSOR 0
  ZOOM 100 0 0
  VZOOMEX 6 0
  USE_REC_CFG 0
  RECMODE 1
  SMPTESYNC 0 30 100 40 1000 300 0 0 1 0 0
  LOOP 0
  LOOPGRAN 0 4
  RECORD_PATH "Media" ""
  <RECORD_CFG
    ZXZhdxgAAQ==
  >
  <APPLYFX_CFG
  >
  RENDER_FILE ""
  RENDER_PATTERN ""
  RENDER_FMT 0 2 0
  RENDER_1X 0
  RENDER_RANGE 1 0 0 18 1000
  RENDER_RESAMPLE 3 0 1
  RENDER_ADDTOPROJ 0
  RENDER_STEMS 0
  RENDER_DITHER 0
  TIMELOCKMODE 1
  TEMPOENVLOCKMODE 1
  ITEMMIX 1
  DEFPITCHMODE 589824 0
  TAKELANE 1
  SAMPLERATE 44100 0 0
  <RENDER_CFG
    ZXZhdxgAAQ==
  >
  LOCK 1
  <METRONOME 6 2
    VOL 0.25 0.125
    BEATLEN 4
    FREQ 1760 880 1
    SAMPLES "" ""
    SPLIGNORE 0 0
    SPLDEF 2 660 "" 0
    SPLDEF 3 440 "" 0
    PATTERN 0 169
    PATTERNSTR ABBB
    MULT 1
  >
  GLOBAL_AUTO -1
  TEMPO 128.59999614200012 4 4
  PLAYRATE 1 0 0.25 4
  SELECTION 0 0
  SELECTION2 0 0
  MASTERAUTOMODE 0
  MASTERTRACKHEIGHT 0 0
  MASTERPEAKCOL 16576
  MASTERMUTESOLO 0
  MASTERTRACKVIEW 0 0.6667 0.5 0.5 0 0 0 0 0 0 0 0 0 0
  MASTERHWOUT 0 0 1 0 0 0 0 -1
  MASTER_NCH 2 2
  MASTER_VOLUME 1 0 -1 -1 1
  MASTER_PANMODE 3
  MASTER_PANLAWFLAGS 3
  MASTER_FX 1
  MASTER_SEL 0
  <MASTERPLAYSPEEDENV
    EGUID {A03EFA56-5550-4ED7-8251-0460F97BB30B}
    ACT 0 -1
    VIS 0 1 1
    LANEHEIGHT 0 0
    ARM 0
    DEFSHAPE 0 -1 -1
  >
  <TEMPOENVEX
    EGUID {DAE01C00-C298-4A18-84AB-34DA5F7C43F0}
    ACT 1 -1
    VIS 1 0 1
    LANEHEIGHT 0 0
    ARM 0
    DEFSHAPE 1 -1 -1
  >
  <PROJBAY
  >
  <TRACK {F6858F64-F9F1-4F5C-94FF-D70385719D13}
    NAME "NES - Pulse 1 [ch0]"
    PEAKCOL 16576606
    BEAT -1
    AUTOMODE 0
    PANLAWFLAGS 3
    VOLPAN 1 0 -1 -1 1
    MUTESOLO 0 0 0
    IPHASE 0
    PLAYOFFS 0 1
    ISBUS 0 0
    BUSCOMP 0 0 0 0 0
    SHOWINMIX 1 0.6667 0.5 1 0.5 0 0 0
    FIXEDLANES 9 0 0 0 0
    SEL 1
    REC 1 5088 1 0 0 0 0 0
    VU 2
    TRACKHEIGHT 0 0 0 0 0 0 0
    INQ 0 0 0 0.5 100 0 0 100
    NCHAN 2
    FX 1
    TRACKID {F6858F64-F9F1-4F5C-94FF-D70385719D13}
    PERF 0
    MIDIOUT -1
    MAINSEND 1 0
    <FXCHAIN
      WNDRECT 24 52 700 560
      SHOW 0
      LASTSEL 0
      DOCKED 0
      BYPASS 0 0 0
      <JS "ReapNES Studio/ReapNES_Console.jsfx" ""
        2 15 1 10 80 10 100 2 1 15 1 5 60 10 80 1 1 0 50 0 0 15 1 0 100 0 0 0.500000 0.500000 0.400000 0.300000 0.800000 0 1 0 0 0 0 - - - - - - - - - - - - - - - - - - - - - - - - - -
      >
      FLOATPOS 0 0 0 0
      FXID {C34747E4-3A2C-47C1-B2E9-FD9805802EAA}
      WAK 0 0
    >
    <ITEM
      POSITION 0
      LENGTH 74.5878716
      LOOP 0
      ALLTAKES 0
      FADEIN 0 0 0 0 0 0 0
      FADEOUT 0 0 0 0 0 0 0
      MUTE 0 0
      SEL 0
      IGUID {ABDC9D82-9916-40D5-AA46-9829C0F71694}
      <SOURCE MIDI
        HASDATA 1 480 QN
        CCINTERP 32
        E 0 c0 50
        E 0 b0 0c 20
        E 0 b0 0b 77
        E 0 90 2e 77
        E 16 80 2e 00
        E 48 b0 0b 66
        E 0 90 27 66
        E 48 b0 0b 5d
        E 16 b0 0b 66
        E 0 80 27 00
        E 0 90 2a 66
        E 48 b0 0b 5d
        E 16 b0 0b 66
        E 0 80 2a 00
        E 0 90 2d 66
        E 48 b0 0b 5d
        E 16 b0 0b 66
        E 0 80 2d 00
        E 0 90 30 66
        E 48 b0 0b 5d
        E 16 b0 0b 66
        E 0 80 30 00
        E 0 90 33 66
        E 48 b0 0b 5d
        E 16 b0 0b 66
        E 0 80 33 00
        E 0 90 36 66
        E 48 b0 0b 5d
        E 16 b0 0b 66
        E 0 80 36 00
        E 0 90 39 66
        E 48 b0 0b 5d
        E 16 b0 0b 66
        E 0 80 39 00
        E 0 90 3c 66
        E 48 b0 0b 5d
        E 16 b0 0b 66
        E 0 80 3c 00
        E 0 90 3f 66
        E 48 b0 0b 5d
        E 16 b0 0b 66
        E 0 80 3f 00
        E 0 90 42 66
        E 48 b0 0b 5d
        E 16 b0 0b 66
        E 0 80 42 00
        E 0 90 45 66
        E 48 b0 0b 5d
        E 16 b0 0b 66
        E 0 80 45 00
        E 0 90 48 66
        E 48 b0 0b 5d
        E 64 b0 0b 55
        E 48 b0 0b 4c
        E 48 b0 0b 44
        E 48 b0 0b 3b
        E 32 b0 0b 33
        E 48 b0 0b 2a
        E 32 b0 0b 22
        E 32 b0 0b 19
        E 32 b0 0b 11
        E 32 b0 0b 08
        E 32 80 48 00
        E 2448 b0 0b 7f
        E 0 90 35 7f
        E 32 b0 0b 77
        E 32 b0 0b 6e
        E 32 b0 0b 66
        E 32 b0 0b 5d
        E 32 b0 0b 55
        E 32 b0 0b 7f
        E 0 80 35 00
        E 0 90 37 7f
        E 16 b0 0b 77
        E 16 b0 0b 66
        E 16 b0 0b 5d
        E 16 b0 0b 4c
        E 16 b0 0b 44
        E 32 b0 0b 33
        E 16 b0 0b 2a
        E 16 b0 0b 19
        E 16 b0 0b 11
        E 16 80 37 00
        E 16 b0 0b 7f
        E 0 90 3e 7f
        E 16 b0 0b 77
        E 16 b0 0b 66
        E 16 b0 0b 5d
        E 16 b0 0b 4c
        E 16 b0 0b 44
        E 32 b0 0b 33
        E 16 b0 0b 2a
        E 16 b0 0b 19
        E 16 b0 0b 11
        E 16 80 3e 00
        E 16 b0 0b 66
        E 0 90 3d 66
        E 16 b0 0b 5d
        E 16 b0 0b 55
        E 16 b0 0b 4c
        E 16 b0 0b 44
        E 16 b0 0b 3b
        E 16 b0 0b 33
        E 16 b0 0b 2a
        E 16 b0 0b 22
        E 16 b0 0b 2a
        E 16 b0 0b 33
        E 16 b0 0b 3b
        E 16 b0 0b 44
        E 16 b0 0b 3b
        E 16 b0 0b 33
        E 16 b0 0b 2a
        E 16 b0 0b 22
        E 16 b0 0b 2a
        E 16 b0 0b 33
        E 16 b0 0b 3b
        E 16 b0 0b 44
        E 16 b0 0b 3b
        E 16 b0 0b 33
        E 16 b0 0b 2a
        E 16 b0 0b 22
        E 16 b0 0b 2a
        E 16 b0 0b 33
        E 16 b0 0b 3b
        E 16 b0 0b 44
        E 16 b0 0b 4c
        E 16 b0 0b 55
        E 16 b0 0b 5d
        E 272 b0 0b 7f
        E 0 80 3d 00
        E 0 90 3a 7f
        E 32 b0 0b 77
        E 32 b0 0b 6e
        E 32 b0 0b 66
        E 32 b0 0b 5d
        E 32 b0 0b 55
        E 32 b0 0b 7f
        E 0 80 3a 00
        E 0 90 39 7f
        E 32 b0 0b 77
        E 32 b0 0b 6e
        E 32 b0 0b 66
        E 32 b0 0b 5d
        E 32 b0 0b 55
        E 32 b0 0b 7f
        E 0 80 39 00
        E 0 90 37 7f
        E 32 b0 0b 77
        E 32 b0 0b 6e
        E 32 b0 0b 66
        E 32 b0 0b 5d
        E 32 b0 0b 55
        E 32 b0 0b 4c
        E 32 b0 0b 44
        E 32 b0 0b 3b
        E 32 b0 0b 33
        E 32 b0 0b 2a
        E 32 b0 0b 22
        E 32 b0 0b 7f
        E 32 b0 0b 77
        E 32 b0 0b 6e
        E 32 b0 0b 66
        E 32 b0 0b 5d
        E 32 b0 0b 55
        E 32 b0 0b 7f
        E 0 80 37 00
        E 0 90 39 7f
        E 32 b0 0b 77
        E 32 b0 0b 6e
        E 32 b0 0b 66
        E 32 b0 0b 5d
        E 32 b0 0b 55
        E 32 b0 0b 7f
        E 0 80 39 00
        E 0 90 3a 7f
        E 32 b0 0b 77
        E 32 b0 0b 6e
        E 32 b0 0b 66
        E 32 b0 0b 5d
        E 32 b0 0b 55
        E 32 b0 0b 4c
        E 32 b0 0b 44
        E 32 b0 0b 3b
        E 32 b0 0b 33
        E 32 b0 0b 2a
        E 32 b0 0b 22
        E 32 b0 0b 7f
        E 0 80 3a 00
        E 0 90 39 7f
        E 32 b0 0b 77
        E 32 b0 0b 6e
        E 32 b0 0b 66
        E 32 b0 0b 5d
        E 32 b0 0b 55
        E 32 b0 0b 7f
        E 0 80 39 00
        E 0 90 35 7f
        E 32 b0 0b 77
        E 32 b0 0b 6e
        E 32 b0 0b 66
        E 32 b0 0b 5d
        E 32 b0 0b 55
        E 32 b0 0b 7f
        E 0 80 35 00
        E 0 90 37 7f
        E 16 b0 0b 77
        E 16 b0 0b 66
        E 16 b0 0b 5d
        E 16 b0 0b 4c
        E 16 b0 0b 44
        E 32 b0 0b 33
        E 16 b0 0b 2a
        E 16 b0 0b 19
        E 16 b0 0b 11
        E 16 80 37 00
        E 16 b0 0b 7f
        E 0 90 3e 7f
        E 16 b0 0b 77
        E 16 b0 0b 66
        E 16 b0 0b 5d
        E 16 b0 0b 4c
        E 16 b0 0b 44
        E 32 b0 0b 33
        E 16 b0 0b 2a
        E 16 b0 0b 19
        E 16 b0 0b 11
        E 16 80 3e 00
        E 16 b0 0b 66
        E 0 90 3d 66
        E 16 b0 0b 5d
        E 16 b0 0b 55
        E 16 b0 0b 4c
        E 16 b0 0b 44
        E 16 b0 0b 3b
        E 16 b0 0b 33
        E 16 b0 0b 2a
        E 16 b0 0b 22
        E 16 b0 0b 2a
        E 16 b0 0b 33
        E 16 b0 0b 3b
        E 16 b0 0b 44
        E 16 b0 0b 3b
        E 16 b0 0b 33
        E 16 b0 0b 2a
        E 16 b0 0b 22
        E 16 b0 0b 2a
        E 16 b0 0b 33
        E 16 b0 0b 3b
        E 16 b0 0b 44
        E 16 b0 0b 3b
        E 16 b0 0b 33
        E 16 b0 0b 2a
        E 16 b0 0b 22
        E 16 b0 0b 2a
        E 16 b0 0b 33
        E 16 b0 0b 3b
        E 16 b0 0b 44
        E 16 b0 0b 4c
        E 16 b0 0b 55
        E 16 b0 0b 5d
        E 80 b0 0b 7f
        E 0 80 3d 00
        E 0 90 39 7f
        E 32 b0 0b 77
        E 32 b0 0b 6e
        E 32 b0 0b 66
        E 32 b0 0b 5d
        E 32 b0 0b 55
        E 32 b0 0b 7f
        E 0 80 39 00
        E 0 90 3a 7f
        E 16 b0 0b 77
        E 16 b0 0b 66
        E 16 b0 0b 5d
        E 16 b0 0b 4c
        E 16 b0 0b 44
        E 32 b0 0b 33
        E 16 b0 0b 2a
        E 16 b0 0b 19
        E 16 b0 0b 11
        E 16 80 3a 00
        E 16 b0 0b 7f
        E 0 90 41 7f
        E 16 b0 0b 77
        E 16 b0 0b 66
        E 16 b0 0b 5d
        E 16 b0 0b 4c
        E 16 b0 0b 44
        E 32 b0 0b 33
        E 16 b0 0b 2a
        E 16 b0 0b 19
        E 16 b0 0b 11
        E 16 80 41 00
        E 16 b0 0b 66
        E 0 90 40 66
        E 16 b0 0b 5d
        E 16 b0 0b 55
        E 16 b0 0b 4c
        E 16 b0 0b 44
        E 16 b0 0b 3b
        E 16 b0 0b 33
        E 16 b0 0b 2a
        E 16 b0 0b 22
        E 16 b0 0b 2a
        E 16 b0 0b 33
        E 16 b0 0b 3b
        E 16 b0 0b 44
        E 16 b0 0b 3b
        E 16 b0 0b 33
        E 16 b0 0b 2a
        E 16 b0 0b 22
        E 16 b0 0b 2a
        E 16 b0 0b 33
        E 16 b0 0b 3b
        E 16 b0 0b 44
        E 16 b0 0b 3b
        E 16 b0 0b 33
        E 16 b0 0b 2a
        E 16 b0 0b 22
        E 16 b0 0b 2a
        E 16 b0 0b 33
        E 16 b0 0b 3b
        E 16 b0 0b 44
        E 16 b0 0b 4c
        E 16 b0 0b 55
        E 16 b0 0b 5d
        E 656 80 40 00
        E 192 b0 0b 7f
        E 0 90 35 7f
        E 32 b0 0b 77
        E 32 b0 0b 6e
        E 32 b0 0b 66
        E 32 b0 0b 5d
        E 32 b0 0b 55
        E 32 b0 0b 7f
        E 0 80 35 00
        E 0 90 37 7f
        E 16 b0 0b 77
        E 16 b0 0b 66
        E 16 b0 0b 5d
        E 16 b0 0b 4c
        E 16 b0 0b 44
        E 32 b0 0b 33
        E 16 b0 0b 2a
        E 16 b0 0b 19
        E 16 b0 0b 11
        E 16 80 37 00
        E 16 b0 0b 7f
        E 0 90 3e 7f
        E 16 b0 0b 77
        E 16 b0 0b 66
        E 16 b0 0b 5d
        E 16 b0 0b 4c
        E 16 b0 0b 44
        E 32 b0 0b 33
        E 16 b0 0b 2a
        E 16 b0 0b 19
        E 16 b0 0b 11
        E 16 80 3e 00
        E 16 b0 0b 66
        E 0 90 3d 66
        E 16 b0 0b 5d
        E 16 b0 0b 55
        E 16 b0 0b 4c
        E 16 b0 0b 44
        E 16 b0 0b 3b
        E 16 b0 0b 33
        E 16 b0 0b 2a
        E 16 b0 0b 22
        E 16 b0 0b 2a
        E 16 b0 0b 33
        E 16 b0 0b 3b
        E 16 b0 0b 44
        E 16 b0 0b 3b
        E 16 b0 0b 33
        E 16 b0 0b 2a
        E 16 b0 0b 22
        E 16 b0 0b 2a
        E 16 b0 0b 33
        E 16 b0 0b 3b
        E 16 b0 0b 44
        E 16 b0 0b 3b
        E 16 b0 0b 33
        E 16 b0 0b 2a
        E 16 b0 0b 22
        E 16 b0 0b 2a
        E 16 b0 0b 33
        E 16 b0 0b 3b
        E 16 b0 0b 44
        E 16 b0 0b 4c
        E 16 b0 0b 55
        E 16 b0 0b 5d
        E 272 b0 0b 7f
        E 0 80 3d 00
        E 0 90 3a 7f
        E 32 b0 0b 77
        E 32 b0 0b 6e
        E 32 b0 0b 66
        E 32 b0 0b 5d
        E 32 b0 0b 55
        E 32 b0 0b 7f
        E 0 80 3a 00
        E 0 90 39 7f
        E 32 b0 0b 77
        E 32 b0 0b 6e
        E 32 b0 0b 66
        E 32 b0 0b 5d
        E 32 b0 0b 55
        E 32 b0 0b 7f
        E 0 80 39 00
        E 0 90 37 7f
        E 32 b0 0b 77
        E 32 b0 0b 6e
        E 32 b0 0b 66
        E 32 b0 0b 5d
        E 32 b0 0b 55
        E 32 b0 0b 4c
        E 32 b0 0b 44
        E 32 b0 0b 3b
        E 32 b0 0b 33
        E 32 b0 0b 2a
        E 32 b0 0b 22
        E 32 b0 0b 7f
        E 32 b0 0b 77
        E 32 b0 0b 6e
        E 32 b0 0b 66
        E 32 b0 0b 5d
        E 32 b0 0b 55
        E 32 b0 0b 7f
        E 0 80 37 00
        E 0 90 39 7f
        E 32 b0 0b 77
        E 32 b0 0b 6e
        E 32 b0 0b 66
        E 32 b0 0b 5d
        E 32 b0 0b 55
        E 32 b0 0b 7f
        E 0 80 39 00
        E 0 90 3a 7f
        E 32 b0 0b 77
        E 32 b0 0b 6e
        E 32 b0 0b 66
        E 32 b0 0b 5d
        E 32 b0 0b 55
        E 32 b0 0b 4c
        E 32 b0 0b 44
        E 32 b0 0b 3b
        E 32 b0 0b 33
        E 32 b0 0b 2a
        E 32 b0 0b 22
        E 32 b0 0b 7f
        E 0 80 3a 00
        E 0 90 39 7f
        E 32 b0 0b 77
        E 32 b0 0b 6e
        E 32 b0 0b 66
        E 32 b0 0b 5d
        E 32 b0 0b 55
        E 32 b0 0b 7f
        E 0 80 39 00
        E 0 90 35 7f
        E 32 b0 0b 77
        E 32 b0 0b 6e
        E 32 b0 0b 66
        E 32 b0 0b 5d
        E 32 b0 0b 55
        E 32 b0 0b 7f
        E 0 80 35 00
        E 0 90 37 7f
        E 16 b0 0b 77
        E 16 b0 0b 66
        E 16 b0 0b 5d
        E 16 b0 0b 4c
        E 16 b0 0b 44
        E 32 b0 0b 33
        E 16 b0 0b 2a
        E 16 b0 0b 19
        E 16 b0 0b 11
        E 16 80 37 00
        E 16 b0 0b 7f
        E 0 90 3e 7f
        E 16 b0 0b 77
        E 16 b0 0b 66
        E 16 b0 0b 5d
        E 16 b0 0b 4c
        E 16 b0 0b 44
        E 32 b0 0b 33
        E 16 b0 0b 2a
        E 16 b0 0b 19
        E 16 b0 0b 11
        E 16 80 3e 00
        E 16 b0 0b 66
        E 0 90 3d 66
        E 16 b0 0b 5d
        E 16 b0 0b 55
        E 16 b0 0b 4c
        E 16 b0 0b 44
        E 16 b0 0b 3b
        E 16 b0 0b 33
        E 16 b0 0b 2a
        E 16 b0 0b 22
        E 16 b0 0b 2a
        E 16 b0 0b 33
        E 16 b0 0b 3b
        E 16 b0 0b 44
        E 16 b0 0b 3b
        E 16 b0 0b 33
        E 16 b0 0b 2a
        E 16 b0 0b 22
        E 16 b0 0b 2a
        E 16 b0 0b 33
        E 16 b0 0b 3b
        E 16 b0 0b 44
        E 16 b0 0b 3b
        E 16 b0 0b 33
        E 16 b0 0b 2a
        E 16 b0 0b 22
        E 16 b0 0b 2a
        E 16 b0 0b 33
        E 16 b0 0b 3b
        E 16 b0 0b 44
        E 16 b0 0b 4c
        E 16 b0 0b 55
        E 16 b0 0b 5d
        E 80 b0 0b 7f
        E 0 80 3d 00
        E 0 90 39 7f
        E 32 b0 0b 77
        E 32 b0 0b 6e
        E 32 b0 0b 66
        E 32 b0 0b 5d
        E 32 b0 0b 55
        E 32 b0 0b 7f
        E 0 80 39 00
        E 0 90 3a 7f
        E 16 b0 0b 77
        E 16 b0 0b 66
        E 16 b0 0b 5d
        E 16 b0 0b 4c
        E 16 b0 0b 44
        E 32 b0 0b 33
        E 16 b0 0b 2a
        E 16 b0 0b 19
        E 16 b0 0b 11
        E 16 80 3a 00
        E 16 b0 0b 7f
        E 0 90 41 7f
        E 16 b0 0b 77
        E 16 b0 0b 66
        E 16 b0 0b 5d
        E 16 b0 0b 4c
        E 16 b0 0b 44
        E 32 b0 0b 33
        E 16 b0 0b 2a
        E 16 b0 0b 19
        E 16 b0 0b 11
        E 16 80 41 00
        E 16 b0 0b 7f
        E 0 90 40 7f
        E 32 b0 0b 77
        E 16 b0 0b 6e
        E 16 b0 0b 66
        E 32 b0 0b 5d
        E 16 b0 0b 55
        E 16 b0 0b 4c
        E 32 b0 0b 44
        E 16 b0 0b 4c
        E 16 b0 0b 55
        E 32 b0 0b 5d
        E 16 b0 0b 66
        E 16 b0 0b 5d
        E 32 b0 0b 55
        E 16 b0 0b 4c
        E 16 b0 0b 44
        E 32 b0 0b 3b
        E 16 b0 0b 33
        E 16 b0 0b 2a
        E 32 b0 0b 22
        E 16 b0 0b 2a
        E 16 b0 0b 33
        E 32 b0 0b 3b
        E 16 b0 0b 44
        E 16 b0 0b 3b
        E 32 b0 0b 33
        E 16 b0 0b 2a
        E 16 b0 0b 22
        E 32 b0 0b 19
        E 16 b0 0b 11
        E 16 b0 0b 08
        E 32 80 40 00
        E 1248 b0 0b 7f
        E 0 90 43 7f
        E 32 b0 0b 77
        E 32 b0 0b 6e
        E 32 b0 0b 66
        E 32 b0 0b 5d
        E 32 b0 0b 55
        E 32 b0 0b 4c
        E 32 b0 0b 44
        E 32 b0 0b 3b
        E 32 b0 0b 33
        E 32 b0 0b 2a
        E 32 b0 0b 22
        E 32 b0 0b 19
        E 32 b0 0b 11
        E 32 b0 0b 08
        E 32 80 43 00
        E 96 b0 0b 7f
        E 0 90 43 7f
        E 32 b0 0b 77
        E 32 b0 0b 6e
        E 32 b0 0b 66
        E 32 b0 0b 5d
        E 32 b0 0b 55
        E 32 b0 0b 4c
        E 32 b0 0b 44
        E 32 b0 0b 3b
        E 32 b0 0b 33
        E 32 b0 0b 2a
        E 32 b0 0b 22
        E 32 b0 0b 19
        E 32 b0 0b 11
        E 32 b0 0b 08
        E 32 80 43 00
        E 96 b0 0b 7f
        E 0 90 42 7f
        E 32 b0 0b 77
        E 32 b0 0b 6e
        E 32 b0 0b 66
        E 32 b0 0b 5d
        E 32 b0 0b 55
        E 48 b0 0b 4c
        E 32 b0 0b 44
        E 32 b0 0b 3b
        E 32 b0 0b 33
        E 32 b0 0b 2a
        E 32 b0 0b 22
        E 48 b0 0b 19
        E 32 b0 0b 11
        E 32 b0 0b 08
        E 32 80 42 00
        E 1408 b0 0b 7f
        E 0 90 43 7f
        E 32 b0 0b 77
        E 32 b0 0b 6e
        E 32 b0 0b 66
        E 32 b0 0b 5d
        E 32 b0 0b 55
        E 32 b0 0b 4c
        E 32 b0 0b 44
        E 32 b0 0b 3b
        E 32 b0 0b 33
        E 32 b0 0b 2a
        E 32 b0 0b 22
        E 32 b0 0b 19
        E 32 b0 0b 11
        E 32 b0 0b 08
        E 32 80 43 00
        E 96 b0 0b 7f
        E 0 90 43 7f
        E 32 b0 0b 77
        E 32 b0 0b 6e
        E 32 b0 0b 66
        E 32 b0 0b 5d
        E 32 b0 0b 55
        E 32 b0 0b 4c
        E 32 b0 0b 44
        E 32 b0 0b 3b
        E 32 b0 0b 33
        E 32 b0 0b 2a
        E 32 b0 0b 22
        E 32 b0 0b 19
        E 32 b0 0b 11
        E 32 b0 0b 08
        E 32 80 43 00
        E 96 b0 0b 7f
        E 0 90 42 7f
        E 32 b0 0b 77
        E 32 b0 0b 6e
        E 32 b0 0b 66
        E 32 b0 0b 5d
        E 32 b0 0b 55
        E 48 b0 0b 4c
        E 32 b0 0b 44
        E 32 b0 0b 3b
        E 32 b0 0b 33
        E 32 b0 0b 2a
        E 32 b0 0b 22
        E 48 b0 0b 19
        E 32 b0 0b 11
        E 32 b0 0b 08
        E 32 80 42 00
        E 1408 b0 0b 7f
        E 0 90 3e 7f
        E 32 b0 0b 77
        E 32 b0 0b 6e
        E 32 b0 0b 66
        E 32 b0 0b 5d
        E 32 b0 0b 55
        E 32 b0 0b 4c
        E 32 b0 0b 44
        E 32 b0 0b 3b
        E 32 b0 0b 33
        E 32 b0 0b 2a
        E 32 b0 0b 22
        E 32 b0 0b 19
        E 32 b0 0b 11
        E 32 b0 0b 08
        E 32 80 3e 00
        E 96 b0 0b 7f
        E 0 90 3f 7f
        E 32 b0 0b 77
        E 32 b0 0b 6e
        E 32 b0 0b 66
        E 32 b0 0b 5d
        E 32 b0 0b 55
        E 32 b0 0b 4c
        E 32 b0 0b 44
        E 32 b0 0b 3b
        E 32 b0 0b 33
        E 32 b0 0b 2a
        E 32 b0 0b 22
        E 32 b0 0b 19
        E 32 b0 0b 11
        E 32 b0 0b 08
        E 32 80 3f 00
        E 96 b0 0b 7f
        E 0 90 41 7f
        E 32 b0 0b 77
        E 32 b0 0b 6e
        E 32 b0 0b 66
        E 32 b0 0b 5d
        E 32 b0 0b 55
        E 32 b0 0b 4c
        E 32 b0 0b 44
        E 32 b0 0b 3b
        E 32 b0 0b 33
        E 32 b0 0b 2a
        E 32 b0 0b 22
        E 32 b0 0b 19
        E 32 b0 0b 11
        E 32 b0 0b 08
        E 32 80 41 00
        E 96 b0 0b 7f
        E 0 90 3f 7f
        E 32 b0 0b 77
        E 32 b0 0b 6e
        E 32 b0 0b 66
        E 32 b0 0b 5d
        E 32 b0 0b 55
        E 32 b0 0b 4c
        E 32 b0 0b 44
        E 32 b0 0b 3b
        E 32 b0 0b 33
        E 32 b0 0b 2a
        E 32 b0 0b 22
        E 32 b0 0b 19
        E 32 b0 0b 11
        E 32 b0 0b 08
        E 32 80 3f 00
        E 96 b0 0b 7f
        E 0 90 3e 7f
        E 32 b0 0b 77
        E 32 b0 0b 6e
        E 32 b0 0b 66
        E 32 b0 0b 5d
        E 32 b0 0b 55
        E 32 b0 0b 4c
        E 32 b0 0b 44
        E 32 b0 0b 3b
        E 32 b0 0b 33
        E 32 b0 0b 2a
        E 32 b0 0b 22
        E 48 b0 0b 19
        E 32 b0 0b 11
        E 32 b0 0b 08
        E 32 80 3e 00
        E 272 b0 0b 7f
        E 0 90 39 7f
        E 32 b0 0b 77
        E 32 b0 0b 6e
        E 32 b0 0b 66
        E 32 b0 0b 5d
        E 32 b0 0b 55
        E 32 b0 0b 4c
        E 32 b0 0b 44
        E 32 b0 0b 3b
        E 32 b0 0b 33
        E 32 b0 0b 2a
        E 32 b0 0b 22
        E 32 b0 0b 19
        E 32 b0 0b 11
        E 32 b0 0b 08
        E 32 80 39 00
        E 96 b0 0b 7f
        E 0 90 3a 7f
        E 32 b0 0b 77
        E 32 b0 0b 6e
        E 32 b0 0b 66
        E 32 b0 0b 5d
        E 32 b0 0b 55
        E 32 b0 0b 4c
        E 32 b0 0b 44
        E 32 b0 0b 3b
        E 32 b0 0b 33
        E 32 b0 0b 2a
        E 32 b0 0b 22
        E 32 b0 0b 19
        E 32 b0 0b 11
        E 32 b0 0b 08
        E 32 80 3a 00
        E 96 b0 0b 7f
        E 0 90 3c 7f
        E 32 b0 0b 77
        E 32 b0 0b 6e
        E 32 b0 0b 66
        E 32 b0 0b 5d
        E 32 b0 0b 55
        E 32 b0 0b 4c
        E 32 b0 0b 44
        E 32 b0 0b 3b
        E 32 b0 0b 33
        E 32 b0 0b 2a
        E 32 b0 0b 22
        E 32 b0 0b 19
        E 32 b0 0b 11
        E 32 b0 0b 08
        E 32 80 3c 00
        E 96 b0 0b 7f
        E 0 90 3a 7f
        E 32 b0 0b 77
        E 32 b0 0b 6e
        E 32 b0 0b 66
        E 32 b0 0b 5d
        E 32 b0 0b 55
        E 32 b0 0b 4c
        E 32 b0 0b 44
        E 32 b0 0b 3b
        E 32 b0 0b 33
        E 32 b0 0b 2a
        E 32 b0 0b 22
        E 32 b0 0b 19
        E 32 b0 0b 11
        E 32 b0 0b 08
        E 32 80 3a 00
        E 96 b0 0b 7f
        E 0 90 39 7f
        E 32 b0 0b 77
        E 32 b0 0b 6e
        E 32 b0 0b 66
        E 32 b0 0b 5d
        E 32 b0 0b 55
        E 32 b0 0b 4c
        E 32 b0 0b 44
        E 32 b0 0b 3b
        E 32 b0 0b 33
        E 32 b0 0b 2a
        E 32 b0 0b 22
        E 48 b0 0b 19
        E 32 b0 0b 11
        E 32 b0 0b 08
        E 32 80 39 00
        E 272 b0 0b 7f
        E 0 90 3e 7f
        E 32 b0 0b 77
        E 32 b0 0b 6e
        E 32 b0 0b 66
        E 32 b0 0b 5d
        E 32 b0 0b 55
        E 32 b0 0b 4c
        E 32 b0 0b 44
        E 32 b0 0b 3b
        E 32 b0 0b 33
        E 32 b0 0b 2a
        E 32 b0 0b 22
        E 32 b0 0b 19
        E 32 b0 0b 11
        E 32 b0 0b 08
        E 32 80 3e 00
        E 96 b0 0b 7f
        E 0 90 3f 7f
        E 32 b0 0b 77
        E 32 b0 0b 6e
        E 32 b0 0b 66
        E 32 b0 0b 5d
        E 32 b0 0b 55
        E 32 b0 0b 4c
        E 32 b0 0b 44
        E 32 b0 0b 3b
        E 32 b0 0b 33
        E 32 b0 0b 2a
        E 32 b0 0b 22
        E 32 b0 0b 19
        E 32 b0 0b 11
        E 32 b0 0b 08
        E 32 80 3f 00
        E 96 b0 0b 7f
        E 0 90 41 7f
        E 32 b0 0b 77
        E 32 b0 0b 6e
        E 32 b0 0b 66
        E 32 b0 0b 5d
        E 32 b0 0b 55
        E 32 b0 0b 4c
        E 32 b0 0b 44
        E 32 b0 0b 3b
        E 32 b0 0b 33
        E 32 b0 0b 2a
        E 32 b0 0b 22
        E 32 b0 0b 19
        E 32 b0 0b 11
        E 32 b0 0b 08
        E 32 80 41 00
        E 96 b0 0b 7f
        E 0 90 3f 7f
        E 32 b0 0b 77
        E 32 b0 0b 6e
        E 32 b0 0b 66
        E 32 b0 0b 5d
        E 32 b0 0b 55
        E 32 b0 0b 4c
        E 32 b0 0b 44
        E 32 b0 0b 3b
        E 32 b0 0b 33
        E 32 b0 0b 2a
        E 32 b0 0b 22
        E 32 b0 0b 19
        E 32 b0 0b 11
        E 32 b0 0b 08
        E 32 80 3f 00
        E 96 b0 0b 7f
        E 0 90 3e 7f
        E 32 b0 0b 77
        E 32 b0 0b 6e
        E 32 b0 0b 66
        E 32 b0 0b 5d
        E 32 b0 0b 55
        E 32 b0 0b 4c
        E 32 b0 0b 44
        E 32 b0 0b 3b
        E 32 b0 0b 33
        E 32 b0 0b 2a
        E 32 b0 0b 22
        E 48 b0 0b 19
        E 32 b0 0b 11
        E 32 b0 0b 08
        E 32 80 3e 00
        E 272 b0 0b 7f
        E 0 90 39 7f
        E 32 b0 0b 77
        E 32 b0 0b 6e
        E 32 b0 0b 66
        E 32 b0 0b 5d
        E 32 b0 0b 55
        E 32 b0 0b 4c
        E 32 b0 0b 44
        E 32 b0 0b 3b
        E 32 b0 0b 33
        E 32 b0 0b 2a
        E 32 b0 0b 22
        E 32 b0 0b 19
        E 32 b0 0b 11
        E 32 b0 0b 08
        E 32 80 39 00
        E 96 b0 0b 7f
        E 0 90 3a 7f
        E 32 b0 0b 77
        E 32 b0 0b 6e
        E 32 b0 0b 66
        E 32 b0 0b 5d
        E 32 b0 0b 55
        E 32 b0 0b 4c
        E 32 b0 0b 44
        E 32 b0 0b 3b
        E 32 b0 0b 33
        E 32 b0 0b 2a
        E 32 b0 0b 22
        E 32 b0 0b 19
        E 32 b0 0b 11
        E 32 b0 0b 08
        E 32 80 3a 00
        E 96 b0 0b 7f
        E 0 90 3c 7f
        E 32 b0 0b 77
        E 32 b0 0b 6e
        E 32 b0 0b 66
        E 32 b0 0b 5d
        E 32 b0 0b 55
        E 32 b0 0b 4c
        E 32 b0 0b 44
        E 32 b0 0b 3b
        E 32 b0 0b 33
        E 32 b0 0b 2a
        E 32 b0 0b 22
        E 32 b0 0b 19
        E 32 b0 0b 11
        E 32 b0 0b 08
        E 32 80 3c 00
        E 96 b0 0b 7f
        E 0 90 3a 7f
        E 32 b0 0b 77
        E 32 b0 0b 6e
        E 32 b0 0b 66
        E 32 b0 0b 5d
        E 32 b0 0b 55
        E 32 b0 0b 4c
        E 32 b0 0b 44
        E 32 b0 0b 3b
        E 32 b0 0b 33
        E 32 b0 0b 2a
        E 32 b0 0b 22
        E 32 b0 0b 19
        E 32 b0 0b 11
        E 32 b0 0b 08
        E 32 80 3a 00
        E 96 b0 0b 7f
        E 0 90 39 7f
        E 32 b0 0b 77
        E 32 b0 0b 6e
        E 32 b0 0b 66
        E 32 b0 0b 5d
        E 32 b0 0b 55
        E 32 b0 0b 4c
        E 32 b0 0b 44
        E 32 b0 0b 3b
        E 32 b0 0b 33
        E 32 b0 0b 2a
        E 32 b0 0b 22
        E 32 b0 0b 7f
        E 0 80 39 00
        E 0 90 37 7f
        E 32 b0 0b 77
        E 32 b0 0b 6e
        E 32 b0 0b 66
        E 32 b0 0b 5d
        E 32 b0 0b 55
        E 32 b0 0b 4c
        E 32 b0 0b 44
        E 32 b0 0b 3b
        E 32 b0 0b 33
        E 32 b0 0b 2a
        E 32 b0 0b 22
        E 32 b0 0b 7f
        E 0 80 37 00
        E 0 90 36 7f
        E 32 b0 0b 77
        E 32 b0 0b 6e
        E 32 b0 0b 66
        E 32 b0 0b 5d
        E 32 b0 0b 55
        E 32 b0 0b 4c
        E 32 b0 0b 44
        E 32 b0 0b 3b
        E 32 b0 0b 33
        E 32 b0 0b 2a
        E 32 b0 0b 22
        E 32 b0 0b 7f
        E 0 80 36 00
        E 0 90 37 7f
        E 32 b0 0b 77
        E 32 b0 0b 6e
        E 32 b0 0b 66
        E 32 b0 0b 5d
        E 32 b0 0b 55
        E 32 b0 0b 4c
        E 32 b0 0b 44
        E 32 b0 0b 3b
        E 32 b0 0b 33
        E 32 b0 0b 2a
        E 32 b0 0b 22
        E 32 b0 0b 7f
        E 0 80 37 00
        E 0 90 39 7f
        E 32 b0 0b 77
        E 32 b0 0b 6e
        E 32 b0 0b 66
        E 32 b0 0b 5d
        E 32 b0 0b 55
        E 32 b0 0b 4c
        E 32 b0 0b 44
        E 32 b0 0b 3b
        E 32 b0 0b 33
        E 32 b0 0b 2a
        E 32 b0 0b 22
        E 32 b0 0b 7f
        E 0 80 39 00
        E 0 90 3a 7f
        E 32 b0 0b 77
        E 32 b0 0b 6e
        E 32 b0 0b 66
        E 32 b0 0b 5d
        E 32 b0 0b 55
        E 32 b0 0b 4c
        E 32 b0 0b 44
        E 32 b0 0b 3b
        E 32 b0 0b 33
        E 32 b0 0b 2a
        E 32 b0 0b 22
        E 32 b0 0b 7f
        E 0 80 3a 00
        E 0 90 39 7f
        E 32 b0 0b 77
        E 32 b0 0b 6e
        E 32 b0 0b 66
        E 32 b0 0b 5d
        E 32 b0 0b 55
        E 32 b0 0b 4c
        E 32 b0 0b 44
        E 32 b0 0b 3b
        E 32 b0 0b 33
        E 32 b0 0b 2a
        E 32 b0 0b 22
        E 32 b0 0b 7f
        E 0 80 39 00
        E 0 90 3a 7f
        E 32 b0 0b 77
        E 32 b0 0b 6e
        E 32 b0 0b 66
        E 32 b0 0b 5d
        E 32 b0 0b 55
        E 32 b0 0b 4c
        E 32 b0 0b 44
        E 32 b0 0b 3b
        E 32 b0 0b 33
        E 32 b0 0b 2a
        E 32 b0 0b 22
        E 32 b0 0b 7f
        E 0 80 3a 00
        E 0 90 3c 7f
        E 32 b0 0b 77
        E 32 b0 0b 6e
        E 32 b0 0b 66
        E 32 b0 0b 5d
        E 32 b0 0b 55
        E 32 b0 0b 4c
        E 32 b0 0b 44
        E 32 b0 0b 3b
        E 32 b0 0b 33
        E 32 b0 0b 2a
        E 32 b0 0b 22
        E 32 b0 0b 7f
        E 0 80 3c 00
        E 0 90 3e 7f
        E 16 b0 0b 77
        E 16 b0 0b 66
        E 16 b0 0b 5d
        E 16 b0 0b 4c
        E 16 b0 0b 44
        E 32 b0 0b 33
        E 16 b0 0b 2a
        E 16 b0 0b 19
        E 16 b0 0b 11
        E 16 80 3e 00
        E 16 b0 0b 7f
        E 0 90 3e 7f
        E 16 b0 0b 77
        E 16 b0 0b 66
        E 16 b0 0b 5d
        E 16 b0 0b 4c
        E 16 b0 0b 44
        E 32 b0 0b 33
        E 16 b0 0b 2a
        E 16 b0 0b 19
        E 16 b0 0b 11
        E 16 80 3e 00
        E 16 b0 0b 7f
        E 0 90 3e 7f
        E 16 b0 0b 77
        E 16 b0 0b 66
        E 16 b0 0b 5d
        E 16 b0 0b 4c
        E 16 b0 0b 44
        E 32 b0 0b 33
        E 16 b0 0b 2a
        E 16 b0 0b 19
        E 16 b0 0b 11
        E 16 80 3e 00
        E 16 b0 0b 7f
        E 0 90 3e 7f
        E 16 b0 0b 77
        E 16 b0 0b 66
        E 16 b0 0b 5d
        E 16 b0 0b 4c
        E 16 b0 0b 44
        E 32 b0 0b 33
        E 16 b0 0b 2a
        E 16 b0 0b 19
        E 16 b0 0b 11
        E 16 80 3e 00
        E 208 b0 0b 66
        E 0 90 3f 66
        E 16 b0 0b 44
        E 16 b0 0b 22
        E 16 b0 0b 44
        E 16 b0 0b 22
        E 16 b0 0b 44
        E 16 b0 0b 22
        E 16 b0 0b 44
        E 16 b0 0b 5d
        E 256 b0 0b 7f
        E 0 80 3f 00
        E 0 90 41 7f
        E 16 b0 0b 77
        E 16 b0 0b 66
        E 16 b0 0b 5d
        E 16 b0 0b 4c
        E 16 b0 0b 44
        E 32 b0 0b 33
        E 16 b0 0b 2a
        E 16 b0 0b 19
        E 16 b0 0b 11
        E 16 80 41 00
        E 16 b0 0b 7f
        E 0 90 3e 7f
        E 16 b0 0b 77
        E 16 b0 0b 66
        E 16 b0 0b 5d
        E 16 b0 0b 4c
        E 16 b0 0b 44
        E 32 b0 0b 33
        E 16 b0 0b 2a
        E 16 b0 0b 19
        E 16 b0 0b 11
        E 16 80 3e 00
        E 208 b0 0b 66
        E 0 90 39 66
        E 16 b0 0b 44
        E 16 b0 0b 22
        E 16 b0 0b 44
        E 16 b0 0b 22
        E 16 b0 0b 44
        E 16 b0 0b 22
        E 16 b0 0b 44
        E 16 b0 0b 5d
        E 256 b0 0b 66
        E 0 80 39 00
        E 0 90 3e 66
        E 16 b0 0b 44
        E 16 b0 0b 22
        E 16 b0 0b 44
        E 16 b0 0b 22
        E 16 b0 0b 44
        E 16 b0 0b 22
        E 16 b0 0b 44
        E 16 b0 0b 5d
        E 256 b0 0b 66
        E 0 80 3e 00
        E 0 90 42 66
        E 16 b0 0b 44
        E 16 b0 0b 22
        E 16 b0 0b 44
        E 16 b0 0b 22
        E 16 b0 0b 44
        E 16 b0 0b 22
        E 16 b0 0b 44
        E 16 b0 0b 5d
        E 256 b0 0b 7f
        E 0 80 42 00
        E 0 90 3f 7f
        E 16 b0 0b 77
        E 16 b0 0b 66
        E 16 b0 0b 5d
        E 16 b0 0b 4c
        E 16 b0 0b 44
        E 32 b0 0b 33
        E 16 b0 0b 2a
        E 16 b0 0b 19
        E 16 b0 0b 11
        E 16 80 3f 00
        E 16 b0 0b 7f
        E 0 90 3f 7f
        E 16 b0 0b 77
        E 16 b0 0b 66
        E 16 b0 0b 5d
        E 16 b0 0b 4c
        E 16 b0 0b 44
        E 32 b0 0b 33
        E 16 b0 0b 2a
        E 16 b0 0b 19
        E 16 b0 0b 11
        E 16 80 3f 00
        E 16 b0 0b 7f
        E 0 90 3f 7f
        E 16 b0 0b 77
        E 16 b0 0b 66
        E 16 b0 0b 5d
        E 16 b0 0b 4c
        E 16 b0 0b 44
        E 32 b0 0b 33
        E 16 b0 0b 2a
        E 16 b0 0b 19
        E 16 b0 0b 11
        E 16 80 3f 00
        E 16 b0 0b 7f
        E 0 90 3f 7f
        E 16 b0 0b 77
        E 16 b0 0b 66
        E 16 b0 0b 5d
        E 16 b0 0b 4c
        E 16 b0 0b 44
        E 32 b0 0b 33
        E 16 b0 0b 2a
        E 16 b0 0b 19
        E 16 b0 0b 11
        E 16 80 3f 00
        E 208 b0 0b 66
        E 0 90 41 66
        E 16 b0 0b 44
        E 16 b0 0b 22
        E 16 b0 0b 44
        E 16 b0 0b 22
        E 16 b0 0b 44
        E 16 b0 0b 22
        E 16 b0 0b 44
        E 16 b0 0b 5d
        E 256 b0 0b 7f
        E 0 80 41 00
        E 0 90 43 7f
        E 16 b0 0b 77
        E 16 b0 0b 66
        E 16 b0 0b 5d
        E 16 b0 0b 4c
        E 16 b0 0b 44
        E 32 b0 0b 33
        E 16 b0 0b 2a
        E 16 b0 0b 19
        E 16 b0 0b 11
        E 16 80 43 00
        E 16 b0 0b 7f
        E 0 90 3e 7f
        E 16 b0 0b 77
        E 16 b0 0b 66
        E 16 b0 0b 5d
        E 16 b0 0b 4c
        E 16 b0 0b 44
        E 32 b0 0b 33
        E 16 b0 0b 2a
        E 16 b0 0b 19
        E 16 b0 0b 11
        E 16 80 3e 00
        E 208 b0 0b 7f
        E 0 90 3e 7f
        E 16 b0 0b 77
        E 16 b0 0b 66
        E 16 b0 0b 5d
        E 16 b0 0b 4c
        E 16 b0 0b 44
        E 16 b0 0b 7f
        E 0 80 3e 00
        E 0 90 3c 7f
        E 16 b0 0b 77
        E 16 b0 0b 66
        E 16 b0 0b 5d
        E 16 b0 0b 4c
        E 16 b0 0b 44
        E 16 b0 0b 7f
        E 0 80 3c 00
        E 0 90 3a 7f
        E 16 b0 0b 77
        E 16 b0 0b 66
        E 16 b0 0b 5d
        E 16 b0 0b 4c
        E 16 b0 0b 44
        E 16 b0 0b 7f
        E 0 80 3a 00
        E 0 90 39 7f
        E 16 b0 0b 77
        E 16 b0 0b 66
        E 16 b0 0b 5d
        E 16 b0 0b 4c
        E 16 b0 0b 44
        E 16 b0 0b 7f
        E 0 80 39 00
        E 0 90 3c 7f
        E 16 b0 0b 77
        E 16 b0 0b 66
        E 16 b0 0b 5d
        E 16 b0 0b 4c
        E 16 b0 0b 44
        E 16 b0 0b 7f
        E 0 80 3c 00
        E 0 90 3a 7f
        E 16 b0 0b 77
        E 16 b0 0b 66
        E 16 b0 0b 5d
        E 16 b0 0b 4c
        E 16 b0 0b 44
        E 16 b0 0b 7f
        E 0 80 3a 00
        E 0 90 39 7f
        E 16 b0 0b 77
        E 16 b0 0b 66
        E 16 b0 0b 5d
        E 16 b0 0b 4c
        E 16 b0 0b 44
        E 16 b0 0b 7f
        E 0 80 39 00
        E 0 90 37 7f
        E 16 b0 0b 77
        E 16 b0 0b 66
        E 16 b0 0b 5d
        E 16 b0 0b 4c
        E 16 b0 0b 44
        E 16 b0 0b 7f
        E 0 80 37 00
        E 0 90 3a 7f
        E 16 b0 0b 77
        E 16 b0 0b 66
        E 16 b0 0b 5d
        E 16 b0 0b 4c
        E 16 b0 0b 44
        E 16 b0 0b 7f
        E 0 80 3a 00
        E 0 90 39 7f
        E 16 b0 0b 77
        E 16 b0 0b 66
        E 16 b0 0b 5d
        E 16 b0 0b 4c
        E 16 b0 0b 44
        E 16 b0 0b 7f
        E 0 80 39 00
        E 0 90 37 7f
        E 16 b0 0b 77
        E 16 b0 0b 66
        E 16 b0 0b 5d
        E 16 b0 0b 4c
        E 16 b0 0b 44
        E 16 b0 0b 7f
        E 0 80 37 00
        E 0 90 36 7f
        E 16 b0 0b 77
        E 16 b0 0b 66
        E 16 b0 0b 5d
        E 16 b0 0b 4c
        E 16 b0 0b 44
        E 16 b0 0b 7f
        E 0 80 36 00
        E 0 90 37 7f
        E 16 b0 0b 77
        E 16 b0 0b 66
        E 16 b0 0b 5d
        E 16 b0 0b 4c
        E 16 b0 0b 44
        E 32 b0 0b 33
        E 16 b0 0b 2a
        E 16 b0 0b 19
        E 16 b0 0b 11
        E 16 80 37 00
        E 16 b0 0b 7f
        E 0 90 3e 7f
        E 16 b0 0b 77
        E 16 b0 0b 66
        E 16 b0 0b 5d
        E 16 b0 0b 4c
        E 16 b0 0b 44
        E 32 b0 0b 33
        E 16 b0 0b 2a
        E 16 b0 0b 19
        E 16 b0 0b 11
        E 16 80 3e 00
        E 16 b0 0b 66
        E 0 90 3d 66
        E 16 b0 0b 5d
        E 16 b0 0b 55
        E 16 b0 0b 4c
        E 16 b0 0b 44
        E 16 b0 0b 3b
        E 16 b0 0b 33
        E 16 b0 0b 2a
        E 16 b0 0b 22
        E 16 b0 0b 2a
        E 16 b0 0b 33
        E 16 b0 0b 3b
        E 16 b0 0b 44
        E 16 b0 0b 3b
        E 16 b0 0b 33
        E 16 b0 0b 2a
        E 16 b0 0b 22
        E 16 b0 0b 2a
        E 16 b0 0b 33
        E 16 b0 0b 3b
        E 16 b0 0b 44
        E 16 b0 0b 3b
        E 16 b0 0b 33
        E 16 b0 0b 2a
        E 16 b0 0b 22
        E 16 b0 0b 2a
        E 16 b0 0b 33
        E 16 b0 0b 3b
        E 16 b0 0b 44
        E 16 b0 0b 4c
        E 16 b0 0b 55
        E 16 b0 0b 5d
        E 272 b0 0b 7f
        E 0 80 3d 00
        E 0 90 3a 7f
        E 32 b0 0b 77
        E 32 b0 0b 6e
        E 32 b0 0b 66
        E 32 b0 0b 5d
        E 32 b0 0b 55
        E 32 b0 0b 7f
        E 0 80 3a 00
        E 0 90 39 7f
        E 32 b0 0b 77
        E 32 b0 0b 6e
        E 32 b0 0b 66
        E 32 b0 0b 5d
        E 32 b0 0b 55
        E 32 b0 0b 7f
        E 0 80 39 00
        E 0 90 37 7f
        E 32 b0 0b 77
        E 32 b0 0b 6e
        E 32 b0 0b 66
        E 32 b0 0b 5d
        E 32 b0 0b 55
        E 32 b0 0b 4c
        E 32 b0 0b 44
        E 32 b0 0b 3b
        E 32 b0 0b 33
        E 32 b0 0b 2a
        E 32 b0 0b 22
        E 32 b0 0b 7f
        E 32 b0 0b 77
        E 32 b0 0b 6e
        E 32 b0 0b 66
        E 32 b0 0b 5d
        E 32 b0 0b 55
        E 32 b0 0b 7f
        E 0 80 37 00
        E 0 90 39 7f
        E 32 b0 0b 77
        E 32 b0 0b 6e
        E 32 b0 0b 66
        E 32 b0 0b 5d
        E 32 b0 0b 55
        E 32 b0 0b 7f
        E 0 80 39 00
        E 0 90 3a 7f
        E 32 b0 0b 77
        E 32 b0 0b 6e
        E 32 b0 0b 66
        E 32 b0 0b 5d
        E 32 b0 0b 55
        E 32 b0 0b 4c
        E 32 b0 0b 44
        E 32 b0 0b 3b
        E 32 b0 0b 33
        E 32 b0 0b 2a
        E 32 b0 0b 22
        E 32 b0 0b 7f
        E 0 80 3a 00
        E 0 90 39 7f
        E 32 b0 0b 77
        E 32 b0 0b 6e
        E 32 b0 0b 66
        E 32 b0 0b 5d
        E 32 b0 0b 55
        E 32 b0 0b 7f
        E 0 80 39 00
        E 0 90 35 7f
        E 32 b0 0b 77
        E 32 b0 0b 6e
        E 32 b0 0b 66
        E 32 b0 0b 5d
        E 32 b0 0b 55
        E 32 b0 0b 7f
        E 0 80 35 00
        E 0 90 37 7f
        E 16 b0 0b 77
        E 16 b0 0b 66
        E 16 b0 0b 5d
        E 16 b0 0b 4c
        E 16 b0 0b 44
        E 32 b0 0b 33
        E 16 b0 0b 2a
        E 16 b0 0b 19
        E 16 b0 0b 11
        E 16 80 37 00
        E 16 b0 0b 7f
        E 0 90 3e 7f
        E 16 b0 0b 77
        E 16 b0 0b 66
        E 16 b0 0b 5d
        E 16 b0 0b 4c
        E 16 b0 0b 44
        E 32 b0 0b 33
        E 16 b0 0b 2a
        E 16 b0 0b 19
        E 16 b0 0b 11
        E 16 80 3e 00
        E 16 b0 0b 66
        E 0 90 3d 66
        E 16 b0 0b 5d
        E 16 b0 0b 55
        E 16 b0 0b 4c
        E 16 b0 0b 44
        E 16 b0 0b 3b
        E 16 b0 0b 33
        E 16 b0 0b 2a
        E 16 b0 0b 22
        E 16 b0 0b 2a
        E 16 b0 0b 33
        E 16 b0 0b 3b
        E 16 b0 0b 44
        E 16 b0 0b 3b
        E 16 b0 0b 33
        E 16 b0 0b 2a
        E 16 b0 0b 22
        E 16 b0 0b 2a
        E 16 b0 0b 33
        E 16 b0 0b 3b
        E 16 b0 0b 44
        E 16 b0 0b 3b
        E 16 b0 0b 33
        E 16 b0 0b 2a
        E 16 b0 0b 22
        E 16 b0 0b 2a
        E 16 b0 0b 33
        E 16 b0 0b 3b
        E 16 b0 0b 44
        E 16 b0 0b 4c
        E 16 b0 0b 55
        E 16 b0 0b 5d
        E 80 b0 0b 7f
        E 0 80 3d 00
        E 0 90 39 7f
        E 32 b0 0b 77
        E 32 b0 0b 6e
        E 32 b0 0b 66
        E 32 b0 0b 5d
        E 32 b0 0b 55
        E 32 b0 0b 7f
        E 0 80 39 00
        E 0 90 3a 7f
        E 16 b0 0b 77
        E 16 b0 0b 66
        E 16 b0 0b 5d
        E 16 b0 0b 4c
        E 16 b0 0b 44
        E 32 b0 0b 33
        E 16 b0 0b 2a
        E 16 b0 0b 19
        E 16 b0 0b 11
        E 16 80 3a 00
        E 16 b0 0b 7f
        E 0 90 41 7f
        E 16 b0 0b 77
        E 16 b0 0b 66
        E 16 b0 0b 5d
        E 16 b0 0b 4c
        E 16 b0 0b 44
        E 32 b0 0b 33
        E 16 b0 0b 2a
        E 16 b0 0b 19
        E 16 b0 0b 11
        E 16 80 41 00
        E 16 b0 0b 66
        E 0 90 40 66
        E 16 b0 0b 5d
        E 16 b0 0b 55
        E 16 b0 0b 4c
        E 16 b0 0b 44
        E 16 b0 0b 3b
        E 16 b0 0b 33
        E 16 b0 0b 2a
        E 16 b0 0b 22
        E 16 b0 0b 2a
        E 16 b0 0b 33
        E 16 b0 0b 3b
        E 16 b0 0b 44
        E 16 b0 0b 3b
        E 16 b0 0b 33
        E 16 b0 0b 2a
        E 16 b0 0b 22
        E 16 b0 0b 2a
        E 16 b0 0b 33
        E 16 b0 0b 3b
        E 16 b0 0b 44
        E 16 b0 0b 3b
        E 16 b0 0b 33
        E 16 b0 0b 2a
        E 16 b0 0b 22
        E 16 b0 0b 2a
        E 16 b0 0b 33
        E 16 b0 0b 3b
        E 16 b0 0b 44
        E 16 b0 0b 4c
        E 16 b0 0b 55
        E 16 b0 0b 5d
        E 656 80 40 00
        E 192 b0 0b 7f
        E 0 90 35 7f
        E 32 b0 0b 77
        E 32 b0 0b 6e
        E 32 b0 0b 66
        E 32 b0 0b 5d
        E 32 b0 0b 55
        E 32 b0 0b 7f
        E 0 80 35 00
        E 0 90 37 7f
        E 16 b0 0b 77
        E 16 b0 0b 66
        E 16 b0 0b 5d
        E 16 b0 0b 4c
        E 16 b0 0b 44
        E 32 b0 0b 33
        E 16 b0 0b 2a
        E 16 b0 0b 19
        E 16 b0 0b 11
        E 16 80 37 00
        E 16 b0 0b 7f
        E 0 90 3e 7f
        E 16 b0 0b 77
        E 16 b0 0b 66
        E 16 b0 0b 5d
        E 16 b0 0b 4c
        E 16 b0 0b 44
        E 32 b0 0b 33
        E 16 b0 0b 2a
        E 16 b0 0b 19
        E 16 b0 0b 11
        E 16 80 3e 00
        E 16 b0 0b 66
        E 0 90 3d 66
        E 16 b0 0b 5d
        E 16 b0 0b 55
        E 16 b0 0b 4c
        E 16 b0 0b 44
        E 16 b0 0b 3b
        E 16 b0 0b 33
        E 16 b0 0b 2a
        E 16 b0 0b 22
        E 16 b0 0b 2a
        E 16 b0 0b 33
        E 16 b0 0b 3b
        E 16 b0 0b 44
        E 16 b0 0b 3b
        E 16 b0 0b 33
        E 16 b0 0b 2a
        E 16 b0 0b 22
        E 16 b0 0b 2a
        E 16 b0 0b 33
        E 16 b0 0b 3b
        E 16 b0 0b 44
        E 16 b0 0b 3b
        E 16 b0 0b 33
        E 16 b0 0b 2a
        E 16 b0 0b 22
        E 16 b0 0b 2a
        E 16 b0 0b 33
        E 16 b0 0b 3b
        E 16 b0 0b 44
        E 16 b0 0b 4c
        E 16 b0 0b 55
        E 16 b0 0b 5d
        E 272 b0 0b 7f
        E 0 80 3d 00
        E 0 90 3a 7f
        E 32 b0 0b 77
        E 32 b0 0b 6e
        E 32 b0 0b 66
        E 32 b0 0b 5d
        E 32 b0 0b 55
        E 32 b0 0b 7f
        E 0 80 3a 00
        E 0 90 39 7f
        E 32 b0 0b 77
        E 32 b0 0b 6e
        E 32 b0 0b 66
        E 32 b0 0b 5d
        E 32 b0 0b 55
        E 32 b0 0b 7f
        E 0 80 39 00
        E 0 90 37 7f
        E 32 b0 0b 77
        E 32 b0 0b 6e
        E 32 b0 0b 66
        E 32 b0 0b 5d
        E 32 b0 0b 55
        E 32 b0 0b 4c
        E 32 b0 0b 44
        E 32 b0 0b 3b
        E 32 b0 0b 33
        E 32 b0 0b 2a
        E 32 b0 0b 22
        E 32 b0 0b 7f
        E 32 b0 0b 77
        E 32 b0 0b 6e
        E 32 b0 0b 66
        E 32 b0 0b 5d
        E 32 b0 0b 55
        E 32 b0 0b 7f
        E 0 80 37 00
        E 0 90 39 7f
        E 32 b0 0b 77
        E 32 b0 0b 6e
        E 32 b0 0b 66
        E 32 b0 0b 5d
        E 32 b0 0b 55
        E 32 b0 0b 7f
        E 0 80 39 00
        E 0 90 3a 7f
        E 32 b0 0b 77
        E 32 b0 0b 6e
        E 32 b0 0b 66
        E 32 b0 0b 5d
        E 32 b0 0b 55
        E 32 b0 0b 4c
        E 32 b0 0b 44
        E 32 b0 0b 3b
        E 32 b0 0b 33
        E 32 b0 0b 2a
        E 32 b0 0b 22
        E 32 b0 0b 7f
        E 0 80 3a 00
        E 0 90 39 7f
        E 32 b0 0b 77
        E 32 b0 0b 6e
        E 32 b0 0b 66
        E 32 b0 0b 5d
        E 32 b0 0b 55
        E 32 b0 0b 7f
        E 0 80 39 00
        E 0 90 35 7f
        E 32 b0 0b 77
        E 32 b0 0b 6e
        E 32 b0 0b 66
        E 32 b0 0b 5d
        E 32 b0 0b 55
        E 32 b0 0b 7f
        E 0 80 35 00
        E 0 90 37 7f
        E 16 b0 0b 77
        E 16 b0 0b 66
        E 16 b0 0b 5d
        E 16 b0 0b 4c
        E 16 b0 0b 44
        E 32 b0 0b 33
        E 16 b0 0b 2a
        E 16 b0 0b 19
        E 16 b0 0b 11
        E 16 80 37 00
        E 16 b0 0b 7f
        E 0 90 3e 7f
        E 16 b0 0b 77
        E 16 b0 0b 66
        E 16 b0 0b 5d
        E 16 b0 0b 4c
        E 16 b0 0b 44
        E 32 b0 0b 33
        E 16 b0 0b 2a
        E 16 b0 0b 19
        E 16 b0 0b 11
        E 16 80 3e 00
        E 16 b0 0b 66
        E 0 90 3d 66
        E 16 b0 0b 5d
        E 16 b0 0b 55
        E 16 b0 0b 4c
        E 16 b0 0b 44
        E 16 b0 0b 3b
        E 16 b0 0b 33
        E 16 b0 0b 2a
        E 16 b0 0b 22
        E 16 b0 0b 2a
        E 16 b0 0b 33
        E 16 b0 0b 3b
        E 16 b0 0b 44
        E 16 b0 0b 3b
        E 16 b0 0b 33
        E 16 b0 0b 2a
        E 16 b0 0b 22
        E 16 b0 0b 2a
        E 16 b0 0b 33
        E 16 b0 0b 3b
        E 16 b0 0b 44
        E 16 b0 0b 3b
        E 16 b0 0b 33
        E 16 b0 0b 2a
        E 16 b0 0b 22
        E 16 b0 0b 2a
        E 16 b0 0b 33
        E 16 b0 0b 3b
        E 16 b0 0b 44
        E 16 b0 0b 4c
        E 16 b0 0b 55
        E 16 b0 0b 5d
        E 80 b0 0b 7f
        E 0 80 3d 00
        E 0 90 39 7f
        E 32 b0 0b 77
        E 32 b0 0b 6e
        E 32 b0 0b 66
        E 32 b0 0b 5d
        E 32 b0 0b 55
        E 32 b0 0b 7f
        E 0 80 39 00
        E 0 90 3a 7f
        E 16 b0 0b 77
        E 16 b0 0b 66
        E 16 b0 0b 5d
        E 16 b0 0b 4c
        E 16 b0 0b 44
        E 32 b0 0b 33
        E 16 b0 0b 2a
        E 16 b0 0b 19
        E 16 b0 0b 11
        E 16 80 3a 00
        E 16 b0 0b 7f
        E 0 90 41 7f
        E 16 b0 0b 77
        E 16 b0 0b 66
        E 16 b0 0b 5d
        E 16 b0 0b 4c
        E 16 b0 0b 44
        E 32 b0 0b 33
        E 16 b0 0b 2a
        E 16 b0 0b 19
        E 16 b0 0b 11
        E 16 80 41 00
        E 16 b0 0b 7f
        E 0 90 40 7f
        E 32 b0 0b 77
        E 16 b0 0b 6e
        E 16 b0 0b 66
        E 32 b0 0b 5d
        E 16 b0 0b 55
        E 16 b0 0b 4c
        E 32 b0 0b 44
        E 16 b0 0b 4c
        E 16 b0 0b 55
        E 32 b0 0b 5d
        E 16 b0 0b 66
        E 16 b0 0b 5d
        E 32 b0 0b 55
        E 16 b0 0b 4c
        E 16 b0 0b 44
        E 32 b0 0b 3b
        E 16 b0 0b 33
        E 16 b0 0b 2a
        E 32 b0 0b 22
        E 16 b0 0b 2a
        E 16 b0 0b 33
        E 32 b0 0b 3b
        E 16 b0 0b 44
        E 16 b0 0b 3b
        E 32 b0 0b 33
        E 16 b0 0b 2a
        E 16 b0 0b 22
        E 32 b0 0b 19
        E 16 b0 0b 11
        E 16 b0 0b 08
        E 32 80 40 00
        E 1248 b0 0b 7f
        E 0 90 43 7f
        E 32 b0 0b 77
        E 32 b0 0b 6e
        E 32 b0 0b 66
        E 32 b0 0b 5d
        E 32 b0 0b 55
        E 32 b0 0b 4c
        E 32 b0 0b 44
        E 32 b0 0b 3b
        E 32 b0 0b 33
        E 32 b0 0b 2a
        E 32 b0 0b 22
        E 32 b0 0b 19
        E 32 b0 0b 11
        E 32 b0 0b 08
        E 32 80 43 00
        E 96 b0 0b 7f
        E 0 90 43 7f
        E 32 b0 0b 77
        E 32 b0 0b 6e
        E 32 b0 0b 66
        E 32 b0 0b 5d
        E 32 b0 0b 55
        E 32 b0 0b 4c
        E 32 b0 0b 44
        E 32 b0 0b 3b
        E 32 b0 0b 33
        E 32 b0 0b 2a
        E 32 b0 0b 22
        E 32 b0 0b 19
        E 32 b0 0b 11
        E 32 b0 0b 08
        E 32 80 43 00
        E 96 b0 0b 7f
        E 0 90 42 7f
        E 32 b0 0b 77
        E 32 b0 0b 6e
        E 32 b0 0b 66
        E 32 b0 0b 5d
        E 32 b0 0b 55
        E 48 b0 0b 4c
        E 32 b0 0b 44
        E 32 b0 0b 3b
        E 32 b0 0b 33
        E 32 b0 0b 2a
        E 32 b0 0b 22
        E 48 b0 0b 19
        E 32 b0 0b 11
        E 32 b0 0b 08
        E 32 80 42 00
        E 1408 b0 0b 7f
        E 0 90 43 7f
        E 32 b0 0b 77
        E 32 b0 0b 6e
        E 32 b0 0b 66
        E 32 b0 0b 5d
        E 32 b0 0b 55
        E 32 b0 0b 4c
        E 32 b0 0b 44
        E 32 b0 0b 3b
        E 32 b0 0b 33
        E 32 b0 0b 2a
        E 32 b0 0b 22
        E 32 b0 0b 19
        E 32 b0 0b 11
        E 32 b0 0b 08
        E 32 80 43 00
        E 96 b0 0b 7f
        E 0 90 43 7f
        E 32 b0 0b 77
        E 32 b0 0b 6e
        E 32 b0 0b 66
        E 32 b0 0b 5d
        E 32 b0 0b 55
        E 32 b0 0b 4c
        E 32 b0 0b 44
        E 32 b0 0b 3b
        E 32 b0 0b 33
        E 32 b0 0b 2a
        E 32 b0 0b 22
        E 32 b0 0b 19
        E 32 b0 0b 11
        E 32 b0 0b 08
        E 32 80 43 00
        E 96 b0 0b 7f
        E 0 90 42 7f
        E 32 b0 0b 77
        E 32 b0 0b 6e
        E 32 b0 0b 66
        E 32 b0 0b 5d
        E 32 b0 0b 55
        E 48 b0 0b 4c
        E 32 b0 0b 44
        E 32 b0 0b 3b
        E 32 b0 0b 33
        E 32 b0 0b 2a
        E 32 b0 0b 22
        E 48 b0 0b 19
        E 32 b0 0b 11
        E 32 b0 0b 08
        E 32 80 42 00
        E 1408 b0 0b 7f
        E 0 90 3e 7f
        E 32 b0 0b 77
        E 32 b0 0b 6e
        E 32 b0 0b 66
        E 32 b0 0b 5d
        E 32 b0 0b 55
        E 32 b0 0b 4c
        E 32 b0 0b 44
        E 32 b0 0b 3b
        E 32 b0 0b 33
        E 32 b0 0b 2a
        E 32 b0 0b 22
        E 32 b0 0b 19
        E 32 b0 0b 11
        E 32 b0 0b 08
        E 32 80 3e 00
        E 96 b0 0b 7f
        E 0 90 3f 7f
        E 32 b0 0b 77
        E 32 b0 0b 6e
        E 32 b0 0b 66
        E 32 b0 0b 5d
        E 32 b0 0b 55
        E 32 b0 0b 4c
        E 32 b0 0b 44
        E 32 b0 0b 3b
        E 32 b0 0b 33
        E 32 b0 0b 2a
        E 32 b0 0b 22
        E 32 b0 0b 19
        E 32 b0 0b 11
        E 32 b0 0b 08
        E 32 80 3f 00
        E 96 b0 0b 7f
        E 0 90 41 7f
        E 32 b0 0b 77
        E 32 b0 0b 6e
        E 32 b0 0b 66
        E 32 b0 0b 5d
        E 32 b0 0b 55
        E 32 b0 0b 4c
        E 32 b0 0b 44
        E 32 b0 0b 3b
        E 32 b0 0b 33
        E 32 b0 0b 2a
        E 32 b0 0b 22
        E 32 b0 0b 19
        E 32 b0 0b 11
        E 32 b0 0b 08
        E 32 80 41 00
        E 96 b0 0b 7f
        E 0 90 3f 7f
        E 32 b0 0b 77
        E 32 b0 0b 6e
        E 32 b0 0b 66
        E 32 b0 0b 5d
        E 32 b0 0b 55
        E 32 b0 0b 4c
        E 32 b0 0b 44
        E 32 b0 0b 3b
        E 32 b0 0b 33
        E 32 b0 0b 2a
        E 32 b0 0b 22
        E 32 b0 0b 19
        E 32 b0 0b 11
        E 32 b0 0b 08
        E 32 80 3f 00
        E 96 b0 0b 7f
        E 0 90 3e 7f
        E 32 b0 0b 77
        E 32 b0 0b 6e
        E 32 b0 0b 66
        E 32 b0 0b 5d
        E 32 b0 0b 55
        E 32 b0 0b 4c
        E 32 b0 0b 44
        E 32 b0 0b 3b
        E 32 b0 0b 33
        E 32 b0 0b 2a
        E 32 b0 0b 22
        E 48 b0 0b 19
        E 32 b0 0b 11
        E 32 b0 0b 08
        E 32 80 3e 00
        E 272 b0 0b 7f
        E 0 90 39 7f
        E 32 b0 0b 77
        E 32 b0 0b 6e
        E 32 b0 0b 66
        E 32 b0 0b 5d
        E 32 b0 0b 55
        E 32 b0 0b 4c
        E 32 b0 0b 44
        E 32 b0 0b 3b
        E 32 b0 0b 33
        E 32 b0 0b 2a
        E 32 b0 0b 22
        E 32 b0 0b 19
        E 32 b0 0b 11
        E 32 b0 0b 08
        E 32 80 39 00
        E 96 b0 0b 7f
        E 0 90 3a 7f
        E 32 b0 0b 77
        E 32 b0 0b 6e
        E 32 b0 0b 66
        E 32 b0 0b 5d
        E 32 b0 0b 55
        E 32 b0 0b 4c
        E 32 b0 0b 44
        E 32 b0 0b 3b
        E 32 b0 0b 33
        E 32 b0 0b 2a
        E 32 b0 0b 22
        E 32 b0 0b 19
        E 32 b0 0b 11
        E 32 b0 0b 08
        E 32 80 3a 00
        E 96 b0 0b 7f
        E 0 90 3c 7f
        E 32 b0 0b 77
        E 32 b0 0b 6e
        E 32 b0 0b 66
        E 32 b0 0b 5d
        E 32 b0 0b 55
        E 32 b0 0b 4c
        E 32 b0 0b 44
        E 32 b0 0b 3b
        E 32 b0 0b 33
        E 32 b0 0b 2a
        E 32 b0 0b 22
        E 32 b0 0b 19
        E 32 b0 0b 11
        E 32 b0 0b 08
        E 32 80 3c 00
        E 96 b0 0b 7f
        E 0 90 3a 7f
        E 32 b0 0b 77
        E 32 b0 0b 6e
        E 32 b0 0b 66
        E 32 b0 0b 5d
        E 32 b0 0b 55
        E 32 b0 0b 4c
        E 32 b0 0b 44
        E 32 b0 0b 3b
        E 32 b0 0b 33
        E 32 b0 0b 2a
        E 32 b0 0b 22
        E 32 b0 0b 19
        E 32 b0 0b 11
        E 32 b0 0b 08
        E 32 80 3a 00
        E 96 b0 0b 7f
        E 0 90 39 7f
        E 32 b0 0b 77
        E 32 b0 0b 6e
        E 32 b0 0b 66
        E 32 b0 0b 5d
        E 32 b0 0b 55
        E 32 b0 0b 4c
        E 32 b0 0b 44
        E 32 b0 0b 3b
        E 32 b0 0b 33
        E 32 b0 0b 2a
        E 32 b0 0b 22
        E 48 b0 0b 19
        E 32 b0 0b 11
        E 32 b0 0b 08
        E 32 80 39 00
        E 272 b0 0b 7f
        E 0 90 3e 7f
        E 32 b0 0b 77
        E 32 b0 0b 6e
        E 32 b0 0b 66
        E 32 b0 0b 5d
        E 32 b0 0b 55
        E 32 b0 0b 4c
        E 32 b0 0b 44
        E 32 b0 0b 3b
        E 32 b0 0b 33
        E 32 b0 0b 2a
        E 32 b0 0b 22
        E 32 b0 0b 19
        E 32 b0 0b 11
        E 32 b0 0b 08
        E 32 80 3e 00
        E 96 b0 0b 7f
        E 0 90 3f 7f
        E 32 b0 0b 77
        E 32 b0 0b 6e
        E 32 b0 0b 66
        E 32 b0 0b 5d
        E 32 b0 0b 55
        E 32 b0 0b 4c
        E 32 b0 0b 44
        E 32 b0 0b 3b
        E 32 b0 0b 33
        E 32 b0 0b 2a
        E 32 b0 0b 22
        E 32 b0 0b 19
        E 32 b0 0b 11
        E 32 b0 0b 08
        E 32 80 3f 00
        E 96 b0 0b 7f
        E 0 90 41 7f
        E 32 b0 0b 77
        E 32 b0 0b 6e
        E 32 b0 0b 66
        E 32 b0 0b 5d
        E 32 b0 0b 55
        E 32 b0 0b 4c
        E 32 b0 0b 44
        E 32 b0 0b 3b
        E 32 b0 0b 33
        E 32 b0 0b 2a
        E 32 b0 0b 22
        E 32 b0 0b 19
        E 32 b0 0b 11
        E 32 b0 0b 08
        E 32 80 41 00
        E 96 b0 0b 7f
        E 0 90 3f 7f
        E 32 b0 0b 77
        E 32 b0 0b 6e
        E 32 b0 0b 66
        E 32 b0 0b 5d
        E 32 b0 0b 55
        E 32 b0 0b 4c
        E 32 b0 0b 44
        E 32 b0 0b 3b
        E 32 b0 0b 33
        E 32 b0 0b 2a
        E 32 b0 0b 22
        E 32 b0 0b 19
        E 32 b0 0b 11
        E 32 b0 0b 08
        E 32 80 3f 00
        E 96 b0 0b 7f
        E 0 90 3e 7f
        E 32 b0 0b 77
        E 32 b0 0b 6e
        E 32 b0 0b 66
        E 32 b0 0b 5d
        E 32 b0 0b 55
        E 32 b0 0b 4c
        E 32 b0 0b 44
        E 32 b0 0b 3b
        E 32 b0 0b 33
        E 32 b0 0b 2a
        E 32 b0 0b 22
        E 48 b0 0b 19
        E 32 b0 0b 11
        E 32 b0 0b 08
        E 32 80 3e 00
        E 272 b0 0b 7f
        E 0 90 39 7f
        E 32 b0 0b 77
        E 32 b0 0b 6e
        E 32 b0 0b 66
        E 32 b0 0b 5d
        E 32 b0 0b 55
        E 32 b0 0b 4c
        E 32 b0 0b 44
        E 32 b0 0b 3b
        E 32 b0 0b 33
        E 32 b0 0b 2a
        E 32 b0 0b 22
        E 32 b0 0b 19
        E 32 b0 0b 11
        E 32 b0 0b 08
        E 32 80 39 00
        E 96 b0 0b 7f
        E 0 90 3a 7f
        E 32 b0 0b 77
        E 32 b0 0b 6e
        E 32 b0 0b 66
        E 32 b0 0b 5d
        E 32 b0 0b 55
        E 32 b0 0b 4c
        E 32 b0 0b 44
        E 32 b0 0b 3b
        E 32 b0 0b 33
        E 32 b0 0b 2a
        E 32 b0 0b 22
        E 32 b0 0b 19
        E 32 b0 0b 11
        E 32 b0 0b 08
        E 32 80 3a 00
        E 96 b0 0b 7f
        E 0 90 3c 7f
        E 32 b0 0b 77
        E 32 b0 0b 6e
        E 32 b0 0b 66
        E 32 b0 0b 5d
        E 32 b0 0b 55
        E 32 b0 0b 4c
        E 32 b0 0b 44
        E 32 b0 0b 3b
        E 32 b0 0b 33
        E 32 b0 0b 2a
        E 32 b0 0b 22
        E 32 b0 0b 19
        E 32 b0 0b 11
        E 32 b0 0b 08
        E 32 80 3c 00
        E 96 b0 0b 7f
        E 0 90 3a 7f
        E 32 b0 0b 77
        E 32 b0 0b 6e
        E 32 b0 0b 66
        E 32 b0 0b 5d
        E 32 b0 0b 55
        E 32 b0 0b 4c
        E 32 b0 0b 44
        E 32 b0 0b 3b
        E 32 b0 0b 33
        E 32 b0 0b 2a
        E 32 b0 0b 22
        E 32 b0 0b 19
        E 32 b0 0b 11
        E 32 b0 0b 08
        E 32 80 3a 00
        E 96 b0 0b 7f
        E 0 90 39 7f
        E 32 b0 0b 77
        E 32 b0 0b 6e
        E 32 b0 0b 66
        E 32 b0 0b 5d
        E 32 b0 0b 55
        E 32 b0 0b 4c
        E 32 b0 0b 44
        E 32 b0 0b 3b
        E 32 b0 0b 33
        E 32 b0 0b 2a
        E 32 b0 0b 22
        E 32 b0 0b 7f
        E 0 80 39 00
        E 0 90 37 7f
        E 32 b0 0b 77
        E 32 b0 0b 6e
        E 32 b0 0b 66
        E 32 b0 0b 5d
        E 32 b0 0b 55
        E 32 b0 0b 4c
        E 32 b0 0b 44
        E 32 b0 0b 3b
        E 32 b0 0b 33
        E 32 b0 0b 2a
        E 32 b0 0b 22
        E 32 b0 0b 7f
        E 0 80 37 00
        E 0 90 36 7f
        E 32 b0 0b 77
        E 32 b0 0b 6e
        E 32 b0 0b 66
        E 32 b0 0b 5d
        E 32 b0 0b 55
        E 32 b0 0b 4c
        E 32 b0 0b 44
        E 32 b0 0b 3b
        E 32 b0 0b 33
        E 32 b0 0b 2a
        E 32 b0 0b 22
        E 32 b0 0b 7f
        E 0 80 36 00
        E 0 90 37 7f
        E 32 b0 0b 77
        E 32 b0 0b 6e
        E 32 b0 0b 66
        E 32 b0 0b 5d
        E 32 b0 0b 55
        E 32 b0 0b 4c
        E 32 b0 0b 44
        E 32 b0 0b 3b
        E 32 b0 0b 33
        E 32 b0 0b 2a
        E 32 b0 0b 22
        E 32 b0 0b 7f
        E 0 80 37 00
        E 0 90 39 7f
        E 32 b0 0b 77
        E 32 b0 0b 6e
        E 32 b0 0b 66
        E 32 b0 0b 5d
        E 32 b0 0b 55
        E 32 b0 0b 4c
        E 32 b0 0b 44
        E 32 b0 0b 3b
        E 32 b0 0b 33
        E 32 b0 0b 2a
        E 32 b0 0b 22
        E 32 b0 0b 7f
        E 0 80 39 00
        E 0 90 3a 7f
        E 32 b0 0b 77
        E 32 b0 0b 6e
        E 32 b0 0b 66
        E 32 b0 0b 5d
        E 32 b0 0b 55
        E 32 b0 0b 4c
        E 32 b0 0b 44
        E 32 b0 0b 3b
        E 32 b0 0b 33
        E 32 b0 0b 2a
        E 32 b0 0b 22
        E 32 b0 0b 7f
        E 0 80 3a 00
        E 0 90 39 7f
        E 32 b0 0b 77
        E 32 b0 0b 6e
        E 32 b0 0b 66
        E 32 b0 0b 5d
        E 32 b0 0b 55
        E 32 b0 0b 4c
        E 32 b0 0b 44
        E 32 80 39 00
        E 0 b0 7b 00
        E 0 ff 2f 00
      >
    >
  >
  <TRACK {418788A4-C933-456C-8622-1501BADF6F4C}
    NAME "NES - Pulse 2 [ch1]"
    PEAKCOL 10092441
    BEAT -1
    AUTOMODE 0
    PANLAWFLAGS 3
    VOLPAN 1 0 -1 -1 1
    MUTESOLO 0 0 0
    IPHASE 0
    PLAYOFFS 0 1
    ISBUS 0 0
    BUSCOMP 0 0 0 0 0
    SHOWINMIX 1 0.6667 0.5 1 0.5 0 0 0
    FIXEDLANES 9 0 0 0 0
    SEL 0
    REC 0 5088 1 0 0 0 0 0
    VU 2
    TRACKHEIGHT 0 0 0 0 0 0 0
    INQ 0 0 0 0.5 100 0 0 100
    NCHAN 2
    FX 1
    TRACKID {418788A4-C933-456C-8622-1501BADF6F4C}
    PERF 0
    MIDIOUT -1
    MAINSEND 1 0
    <FXCHAIN
      WNDRECT 24 52 700 560
      SHOW 0
      LASTSEL 0
      DOCKED 0
      BYPASS 0 0 0
      <JS "ReapNES Studio/ReapNES_Console.jsfx" ""
        2 15 1 10 80 10 100 2 1 15 1 5 60 10 80 1 1 0 50 0 0 15 1 0 100 0 0 0.500000 0.500000 0.400000 0.300000 0.800000 1 1 0 0 0 0 - - - - - - - - - - - - - - - - - - - - - - - - - -
      >
      FLOATPOS 0 0 0 0
      FXID {52B1B59B-1A54-4F04-82EF-636797A0A097}
      WAK 0 0
    >
    <ITEM
      POSITION 0
      LENGTH 74.5878716
      LOOP 0
      ALLTAKES 0
      FADEIN 0 0 0 0 0 0 0
      FADEOUT 0 0 0 0 0 0 0
      MUTE 0 0
      SEL 0
      IGUID {AE7BFB44-8A00-45FA-9CDB-E7A2D9A6E034}
      <SOURCE MIDI
        HASDATA 1 480 QN
        CCINTERP 32
        E 0 c1 51
        E 192 b1 0c 10
        E 0 b1 0b 44
        E 0 91 27 44
        E 64 81 27 00
        E 0 91 2a 44
        E 64 81 2a 00
        E 0 91 2d 44
        E 64 81 2d 00
        E 0 91 24 44
        E 64 81 24 00
        E 0 91 27 44
        E 64 81 27 00
        E 0 91 2a 44
        E 64 81 2a 00
        E 0 91 2d 44
        E 64 81 2d 00
        E 0 91 30 44
        E 64 81 30 00
        E 0 91 33 44
        E 64 81 33 00
        E 0 91 36 44
        E 64 81 36 00
        E 0 91 39 44
        E 64 81 39 00
        E 0 91 3c 44
        E 80 b1 0b 3b
        E 80 b1 0b 33
        E 64 b1 0b 2a
        E 64 b1 0b 22
        E 80 b1 0b 19
        E 64 b1 0b 11
        E 64 b1 0b 08
        E 32 81 3c 00
        E 2480 b1 0b 7f
        E 0 91 26 7f
        E 16 b1 0b 6e
        E 16 b1 0b 5d
        E 16 b1 0b 4c
        E 32 b1 0b 5d
        E 48 b1 0b 4c
        E 16 b1 0b 3b
        E 16 b1 0b 2a
        E 32 b1 0b 7f
        E 16 b1 0b 6e
        E 16 b1 0b 5d
        E 16 b1 0b 4c
        E 32 b1 0b 5d
        E 48 b1 0b 4c
        E 16 b1 0b 3b
        E 16 b1 0b 2a
        E 32 b1 0b 7f
        E 0 81 26 00
        E 0 91 28 7f
        E 16 b1 0b 6e
        E 16 b1 0b 5d
        E 16 b1 0b 4c
        E 32 b1 0b 5d
        E 32 b1 0b 4c
        E 16 b1 0b 3b
        E 16 b1 0b 2a
        E 32 b1 0b 3b
        E 32 b1 0b 2a
        E 16 b1 0b 19
        E 16 b1 0b 08
        E 16 81 28 00
        E 128 b1 0b 7f
        E 0 91 29 7f
        E 16 b1 0b 6e
        E 16 b1 0b 5d
        E 16 b1 0b 4c
        E 32 b1 0b 5d
        E 48 b1 0b 4c
        E 16 b1 0b 3b
        E 16 b1 0b 2a
        E 32 b1 0b 7f
        E 16 b1 0b 6e
        E 16 b1 0b 5d
        E 16 b1 0b 4c
        E 32 b1 0b 5d
        E 48 b1 0b 4c
        E 16 b1 0b 3b
        E 16 b1 0b 2a
        E 32 b1 0b 7f
        E 0 81 29 00
        E 0 91 28 7f
        E 16 b1 0b 6e
        E 16 b1 0b 5d
        E 16 b1 0b 4c
        E 32 b1 0b 5d
        E 32 b1 0b 4c
        E 16 b1 0b 3b
        E 16 b1 0b 2a
        E 32 b1 0b 3b
        E 32 b1 0b 2a
        E 16 b1 0b 19
        E 16 b1 0b 08
        E 16 81 28 00
        E 128 b1 0b 7f
        E 0 91 26 7f
        E 16 b1 0b 6e
        E 16 b1 0b 5d
        E 16 b1 0b 4c
        E 32 b1 0b 5d
        E 48 b1 0b 4c
        E 16 b1 0b 3b
        E 16 b1 0b 2a
        E 32 b1 0b 7f
        E 16 b1 0b 6e
        E 16 b1 0b 5d
        E 16 b1 0b 4c
        E 32 b1 0b 5d
        E 48 b1 0b 4c
        E 16 b1 0b 3b
        E 16 b1 0b 2a
        E 32 b1 0b 7f
        E 0 81 26 00
        E 0 91 28 7f
        E 16 b1 0b 6e
        E 16 b1 0b 5d
        E 16 b1 0b 4c
        E 32 b1 0b 5d
        E 32 b1 0b 4c
        E 16 b1 0b 3b
        E 16 b1 0b 2a
        E 32 b1 0b 3b
        E 32 b1 0b 2a
        E 16 b1 0b 19
        E 16 b1 0b 08
        E 16 81 28 00
        E 128 b1 0b 7f
        E 0 91 29 7f
        E 16 b1 0b 6e
        E 16 b1 0b 5d
        E 16 b1 0b 4c
        E 32 b1 0b 5d
        E 48 b1 0b 4c
        E 16 b1 0b 3b
        E 16 b1 0b 2a
        E 32 b1 0b 7f
        E 16 b1 0b 6e
        E 16 b1 0b 5d
        E 16 b1 0b 4c
        E 32 b1 0b 5d
        E 48 b1 0b 4c
        E 16 b1 0b 3b
        E 16 b1 0b 2a
        E 32 b1 0b 7f
        E 0 81 29 00
        E 0 91 24 7f
        E 16 b1 0b 6e
        E 16 b1 0b 5d
        E 16 b1 0b 4c
        E 32 b1 0b 5d
        E 32 b1 0b 4c
        E 16 b1 0b 3b
        E 16 b1 0b 2a
        E 32 b1 0b 3b
        E 32 b1 0b 2a
        E 16 b1 0b 19
        E 16 b1 0b 08
        E 16 81 24 00
        E 128 b1 0b 7f
        E 0 91 26 7f
        E 16 b1 0b 6e
        E 16 b1 0b 5d
        E 16 b1 0b 4c
        E 32 b1 0b 5d
        E 48 b1 0b 4c
        E 16 b1 0b 3b
        E 16 b1 0b 2a
        E 32 b1 0b 7f
        E 16 b1 0b 6e
        E 16 b1 0b 5d
        E 16 b1 0b 4c
        E 32 b1 0b 5d
        E 48 b1 0b 4c
        E 16 b1 0b 3b
        E 16 b1 0b 2a
        E 32 b1 0b 7f
        E 0 81 26 00
        E 0 91 28 7f
        E 16 b1 0b 6e
        E 16 b1 0b 5d
        E 16 b1 0b 4c
        E 32 b1 0b 5d
        E 32 b1 0b 4c
        E 16 b1 0b 3b
        E 16 b1 0b 2a
        E 32 b1 0b 3b
        E 32 b1 0b 2a
        E 16 b1 0b 19
        E 16 b1 0b 08
        E 16 81 28 00
        E 128 b1 0b 7f
        E 0 91 29 7f
        E 16 b1 0b 6e
        E 16 b1 0b 5d
        E 16 b1 0b 4c
        E 32 b1 0b 5d
        E 48 b1 0b 4c
        E 16 b1 0b 3b
        E 16 b1 0b 2a
        E 32 b1 0b 7f
        E 16 b1 0b 6e
        E 16 b1 0b 5d
        E 16 b1 0b 4c
        E 32 b1 0b 5d
        E 48 b1 0b 4c
        E 16 b1 0b 3b
        E 16 b1 0b 2a
        E 32 b1 0b 7f
        E 0 81 29 00
        E 0 91 28 7f
        E 16 b1 0b 6e
        E 16 b1 0b 5d
        E 16 b1 0b 4c
        E 32 b1 0b 5d
        E 32 b1 0b 4c
        E 16 b1 0b 3b
        E 16 b1 0b 2a
        E 32 b1 0b 3b
        E 32 b1 0b 2a
        E 16 b1 0b 19
        E 16 b1 0b 08
        E 16 81 28 00
        E 128 b1 0b 7f
        E 0 91 26 7f
        E 16 b1 0b 6e
        E 16 b1 0b 5d
        E 16 b1 0b 4c
        E 32 b1 0b 5d
        E 48 b1 0b 4c
        E 16 b1 0b 3b
        E 16 b1 0b 2a
        E 32 b1 0b 7f
        E 16 b1 0b 6e
        E 16 b1 0b 5d
        E 16 b1 0b 4c
        E 32 b1 0b 5d
        E 48 b1 0b 4c
        E 16 b1 0b 3b
        E 16 b1 0b 2a
        E 32 b1 0b 7f
        E 0 81 26 00
        E 0 91 28 7f
        E 16 b1 0b 6e
        E 16 b1 0b 5d
        E 16 b1 0b 4c
        E 32 b1 0b 5d
        E 32 b1 0b 4c
        E 16 b1 0b 3b
        E 16 b1 0b 2a
        E 32 b1 0b 3b
        E 32 b1 0b 2a
        E 16 b1 0b 19
        E 16 b1 0b 08
        E 16 81 28 00
        E 128 b1 0b 7f
        E 0 91 29 7f
        E 16 b1 0b 6e
        E 16 b1 0b 5d
        E 16 b1 0b 4c
        E 32 b1 0b 5d
        E 16 b1 0b 7f
        E 0 81 29 00
        E 0 91 26 7f
        E 16 b1 0b 6e
        E 16 b1 0b 5d
        E 16 b1 0b 4c
        E 32 b1 0b 5d
        E 16 b1 0b 7f
        E 0 81 26 00
        E 0 91 28 7f
        E 16 b1 0b 6e
        E 16 b1 0b 5d
        E 16 b1 0b 4c
        E 32 b1 0b 5d
        E 16 b1 0b 7f
        E 0 81 28 00
        E 0 91 2b 7f
        E 16 b1 0b 6e
        E 16 b1 0b 5d
        E 16 b1 0b 4c
        E 32 b1 0b 5d
        E 16 b1 0b 7f
        E 0 81 2b 00
        E 0 91 29 7f
        E 16 b1 0b 6e
        E 16 b1 0b 5d
        E 16 b1 0b 4c
        E 32 b1 0b 5d
        E 16 b1 0b 7f
        E 0 81 29 00
        E 0 91 28 7f
        E 16 b1 0b 6e
        E 16 b1 0b 5d
        E 16 b1 0b 4c
        E 32 b1 0b 5d
        E 16 b1 0b 7f
        E 0 81 28 00
        E 0 91 26 7f
        E 16 b1 0b 6e
        E 16 b1 0b 5d
        E 16 b1 0b 4c
        E 32 b1 0b 5d
        E 16 b1 0b 7f
        E 0 81 26 00
        E 0 91 24 7f
        E 16 b1 0b 6e
        E 16 b1 0b 5d
        E 16 b1 0b 4c
        E 32 b1 0b 5d
        E 16 b1 0b 7f
        E 0 81 24 00
        E 0 91 26 7f
        E 16 b1 0b 6e
        E 16 b1 0b 5d
        E 16 b1 0b 4c
        E 32 b1 0b 5d
        E 48 b1 0b 4c
        E 16 b1 0b 3b
        E 16 b1 0b 2a
        E 32 b1 0b 7f
        E 16 b1 0b 6e
        E 16 b1 0b 5d
        E 16 b1 0b 4c
        E 32 b1 0b 5d
        E 48 b1 0b 4c
        E 16 b1 0b 3b
        E 16 b1 0b 2a
        E 32 b1 0b 7f
        E 0 81 26 00
        E 0 91 28 7f
        E 16 b1 0b 6e
        E 16 b1 0b 5d
        E 16 b1 0b 4c
        E 32 b1 0b 5d
        E 32 b1 0b 4c
        E 16 b1 0b 3b
        E 16 b1 0b 2a
        E 32 b1 0b 3b
        E 32 b1 0b 2a
        E 16 b1 0b 19
        E 16 b1 0b 08
        E 16 81 28 00
        E 128 b1 0b 7f
        E 0 91 29 7f
        E 16 b1 0b 6e
        E 16 b1 0b 5d
        E 16 b1 0b 4c
        E 32 b1 0b 5d
        E 48 b1 0b 4c
        E 16 b1 0b 3b
        E 16 b1 0b 2a
        E 32 b1 0b 7f
        E 16 b1 0b 6e
        E 16 b1 0b 5d
        E 16 b1 0b 4c
        E 32 b1 0b 5d
        E 48 b1 0b 4c
        E 16 b1 0b 3b
        E 16 b1 0b 2a
        E 32 b1 0b 7f
        E 0 81 29 00
        E 0 91 28 7f
        E 16 b1 0b 6e
        E 16 b1 0b 5d
        E 16 b1 0b 4c
        E 32 b1 0b 5d
        E 32 b1 0b 4c
        E 16 b1 0b 3b
        E 16 b1 0b 2a
        E 32 b1 0b 3b
        E 32 b1 0b 2a
        E 16 b1 0b 19
        E 16 b1 0b 08
        E 16 81 28 00
        E 128 b1 0b 7f
        E 0 91 26 7f
        E 16 b1 0b 6e
        E 16 b1 0b 5d
        E 16 b1 0b 4c
        E 32 b1 0b 5d
        E 48 b1 0b 4c
        E 16 b1 0b 3b
        E 16 b1 0b 2a
        E 32 b1 0b 7f
        E 16 b1 0b 6e
        E 16 b1 0b 5d
        E 16 b1 0b 4c
        E 32 b1 0b 5d
        E 48 b1 0b 4c
        E 16 b1 0b 3b
        E 16 b1 0b 2a
        E 32 b1 0b 7f
        E 0 81 26 00
        E 0 91 28 7f
        E 16 b1 0b 6e
        E 16 b1 0b 5d
        E 16 b1 0b 4c
        E 32 b1 0b 5d
        E 32 b1 0b 4c
        E 16 b1 0b 3b
        E 16 b1 0b 2a
        E 32 b1 0b 3b
        E 32 b1 0b 2a
        E 16 b1 0b 19
        E 16 b1 0b 08
        E 16 81 28 00
        E 128 b1 0b 7f
        E 0 91 29 7f
        E 16 b1 0b 6e
        E 16 b1 0b 5d
        E 16 b1 0b 4c
        E 32 b1 0b 5d
        E 48 b1 0b 4c
        E 16 b1 0b 3b
        E 16 b1 0b 2a
        E 32 b1 0b 7f
        E 16 b1 0b 6e
        E 16 b1 0b 5d
        E 16 b1 0b 4c
        E 32 b1 0b 5d
        E 48 b1 0b 4c
        E 16 b1 0b 3b
        E 16 b1 0b 2a
        E 32 b1 0b 7f
        E 0 81 29 00
        E 0 91 24 7f
        E 16 b1 0b 6e
        E 16 b1 0b 5d
        E 16 b1 0b 4c
        E 32 b1 0b 5d
        E 32 b1 0b 4c
        E 16 b1 0b 3b
        E 16 b1 0b 2a
        E 32 b1 0b 3b
        E 32 b1 0b 2a
        E 16 b1 0b 19
        E 16 b1 0b 08
        E 16 81 24 00
        E 128 b1 0b 7f
        E 0 91 26 7f
        E 16 b1 0b 6e
        E 16 b1 0b 5d
        E 16 b1 0b 4c
        E 32 b1 0b 5d
        E 48 b1 0b 4c
        E 16 b1 0b 3b
        E 16 b1 0b 2a
        E 32 b1 0b 7f
        E 16 b1 0b 6e
        E 16 b1 0b 5d
        E 16 b1 0b 4c
        E 32 b1 0b 5d
        E 48 b1 0b 4c
        E 16 b1 0b 3b
        E 16 b1 0b 2a
        E 32 b1 0b 7f
        E 0 81 26 00
        E 0 91 28 7f
        E 16 b1 0b 6e
        E 16 b1 0b 5d
        E 16 b1 0b 4c
        E 32 b1 0b 5d
        E 32 b1 0b 4c
        E 16 b1 0b 3b
        E 16 b1 0b 2a
        E 32 b1 0b 3b
        E 32 b1 0b 2a
        E 16 b1 0b 19
        E 16 b1 0b 08
        E 16 81 28 00
        E 128 b1 0b 7f
        E 0 91 29 7f
        E 16 b1 0b 6e
        E 16 b1 0b 5d
        E 16 b1 0b 4c
        E 32 b1 0b 5d
        E 48 b1 0b 4c
        E 16 b1 0b 3b
        E 16 b1 0b 2a
        E 32 b1 0b 7f
        E 16 b1 0b 6e
        E 16 b1 0b 5d
        E 16 b1 0b 4c
        E 32 b1 0b 5d
        E 48 b1 0b 4c
        E 16 b1 0b 3b
        E 16 b1 0b 2a
        E 32 b1 0b 7f
        E 0 81 29 00
        E 0 91 28 7f
        E 16 b1 0b 6e
        E 16 b1 0b 5d
        E 16 b1 0b 4c
        E 32 b1 0b 5d
        E 32 b1 0b 4c
        E 16 b1 0b 3b
        E 16 b1 0b 2a
        E 32 b1 0b 3b
        E 32 b1 0b 2a
        E 16 b1 0b 19
        E 16 b1 0b 08
        E 16 81 28 00
        E 128 b1 0b 7f
        E 0 91 26 7f
        E 16 b1 0b 6e
        E 16 b1 0b 5d
        E 16 b1 0b 4c
        E 32 b1 0b 5d
        E 48 b1 0b 4c
        E 16 b1 0b 3b
        E 16 b1 0b 2a
        E 32 b1 0b 7f
        E 16 b1 0b 6e
        E 16 b1 0b 5d
        E 16 b1 0b 4c
        E 32 b1 0b 5d
        E 48 b1 0b 4c
        E 16 b1 0b 3b
        E 16 b1 0b 2a
        E 32 b1 0b 7f
        E 0 81 26 00
        E 0 91 28 7f
        E 16 b1 0b 6e
        E 16 b1 0b 5d
        E 16 b1 0b 4c
        E 32 b1 0b 5d
        E 32 b1 0b 4c
        E 16 b1 0b 3b
        E 16 b1 0b 2a
        E 32 b1 0b 3b
        E 32 b1 0b 2a
        E 16 b1 0b 19
        E 16 b1 0b 08
        E 16 81 28 00
        E 128 b1 0b 7f
        E 0 91 29 7f
        E 16 b1 0b 6e
        E 16 b1 0b 5d
        E 16 b1 0b 4c
        E 32 b1 0b 5d
        E 16 b1 0b 7f
        E 0 81 29 00
        E 0 91 26 7f
        E 16 b1 0b 6e
        E 16 b1 0b 5d
        E 16 b1 0b 4c
        E 32 b1 0b 5d
        E 16 b1 0b 7f
        E 0 81 26 00
        E 0 91 28 7f
        E 16 b1 0b 6e
        E 16 b1 0b 5d
        E 16 b1 0b 4c
        E 32 b1 0b 5d
        E 16 b1 0b 7f
        E 0 81 28 00
        E 0 91 2b 7f
        E 16 b1 0b 6e
        E 16 b1 0b 5d
        E 16 b1 0b 4c
        E 32 b1 0b 5d
        E 16 b1 0b 7f
        E 0 81 2b 00
        E 0 91 29 7f
        E 16 b1 0b 6e
        E 16 b1 0b 5d
        E 16 b1 0b 4c
        E 32 b1 0b 5d
        E 16 b1 0b 7f
        E 0 81 29 00
        E 0 91 28 7f
        E 16 b1 0b 6e
        E 16 b1 0b 5d
        E 16 b1 0b 4c
        E 32 b1 0b 5d
        E 16 b1 0b 7f
        E 0 81 28 00
        E 0 91 26 7f
        E 16 b1 0b 6e
        E 16 b1 0b 5d
        E 16 b1 0b 4c
        E 32 b1 0b 5d
        E 16 b1 0b 7f
        E 0 81 26 00
        E 0 91 24 7f
        E 16 b1 0b 6e
        E 16 b1 0b 5d
        E 16 b1 0b 4c
        E 32 b1 0b 5d
        E 16 b1 0b 7f
        E 0 81 24 00
        E 0 91 2e 7f
        E 16 b1 0b 6e
        E 16 b1 0b 5d
        E 16 b1 0b 4c
        E 32 b1 0b 5d
        E 48 b1 0b 4c
        E 16 b1 0b 3b
        E 16 b1 0b 2a
        E 32 b1 0b 7f
        E 16 b1 0b 6e
        E 16 b1 0b 5d
        E 16 b1 0b 4c
        E 32 b1 0b 5d
        E 48 b1 0b 4c
        E 16 b1 0b 3b
        E 16 b1 0b 2a
        E 32 b1 0b 66
        E 0 81 2e 00
        E 0 91 33 66
        E 48 b1 0b 5d
        E 48 b1 0b 55
        E 48 b1 0b 4c
        E 48 b1 0b 44
        E 48 b1 0b 3b
        E 32 b1 0b 33
        E 48 b1 0b 2a
        E 32 b1 0b 22
        E 32 b1 0b 19
        E 32 b1 0b 11
        E 32 b1 0b 08
        E 32 81 33 00
        E 96 b1 0b 66
        E 0 91 33 66
        E 48 b1 0b 5d
        E 48 b1 0b 55
        E 48 b1 0b 4c
        E 48 b1 0b 44
        E 48 b1 0b 3b
        E 32 b1 0b 33
        E 48 b1 0b 2a
        E 32 b1 0b 22
        E 32 b1 0b 19
        E 32 b1 0b 11
        E 32 b1 0b 08
        E 32 81 33 00
        E 96 b1 0b 66
        E 0 91 32 66
        E 48 b1 0b 5d
        E 48 b1 0b 55
        E 48 b1 0b 4c
        E 64 b1 0b 44
        E 48 b1 0b 3b
        E 32 b1 0b 33
        E 48 b1 0b 2a
        E 32 b1 0b 22
        E 16 b1 0b 66
        E 0 81 32 00
        E 0 91 26 66
        E 48 b1 0b 5d
        E 48 b1 0b 55
        E 48 b1 0b 4c
        E 48 b1 0b 66
        E 48 b1 0b 5d
        E 48 b1 0b 55
        E 48 b1 0b 4c
        E 48 b1 0b 66
        E 0 81 26 00
        E 0 91 2a 66
        E 48 b1 0b 5d
        E 48 b1 0b 55
        E 48 b1 0b 4c
        E 48 b1 0b 66
        E 48 b1 0b 5d
        E 48 b1 0b 55
        E 48 b1 0b 4c
        E 48 b1 0b 66
        E 0 81 2a 00
        E 0 91 2d 66
        E 48 b1 0b 5d
        E 48 b1 0b 55
        E 48 b1 0b 4c
        E 48 b1 0b 66
        E 48 b1 0b 5d
        E 48 b1 0b 55
        E 48 b1 0b 4c
        E 48 b1 0b 66
        E 0 81 2d 00
        E 0 91 2e 66
        E 48 b1 0b 5d
        E 64 b1 0b 55
        E 48 b1 0b 4c
        E 32 b1 0b 66
        E 48 b1 0b 5d
        E 64 b1 0b 55
        E 48 b1 0b 4c
        E 32 b1 0b 66
        E 0 81 2e 00
        E 0 91 33 66
        E 48 b1 0b 5d
        E 48 b1 0b 55
        E 48 b1 0b 4c
        E 48 b1 0b 44
        E 48 b1 0b 3b
        E 32 b1 0b 33
        E 48 b1 0b 2a
        E 32 b1 0b 22
        E 32 b1 0b 19
        E 32 b1 0b 11
        E 32 b1 0b 08
        E 32 81 33 00
        E 96 b1 0b 66
        E 0 91 33 66
        E 48 b1 0b 5d
        E 48 b1 0b 55
        E 48 b1 0b 4c
        E 48 b1 0b 44
        E 48 b1 0b 3b
        E 32 b1 0b 33
        E 48 b1 0b 2a
        E 32 b1 0b 22
        E 32 b1 0b 19
        E 32 b1 0b 11
        E 32 b1 0b 08
        E 32 81 33 00
        E 96 b1 0b 66
        E 0 91 32 66
        E 48 b1 0b 5d
        E 48 b1 0b 55
        E 48 b1 0b 4c
        E 64 b1 0b 44
        E 48 b1 0b 3b
        E 32 b1 0b 33
        E 48 b1 0b 2a
        E 32 b1 0b 22
        E 48 b1 0b 19
        E 32 b1 0b 11
        E 32 b1 0b 08
        E 32 81 32 00
        E 64 b1 0b 66
        E 0 91 36 66
        E 48 b1 0b 5d
        E 48 b1 0b 66
        E 0 81 36 00
        E 0 91 37 66
        E 48 b1 0b 5d
        E 48 b1 0b 66
        E 0 81 37 00
        E 0 91 36 66
        E 48 b1 0b 5d
        E 48 b1 0b 66
        E 0 81 36 00
        E 0 91 33 66
        E 48 b1 0b 5d
        E 48 b1 0b 66
        E 0 81 33 00
        E 0 91 32 66
        E 48 b1 0b 5d
        E 48 b1 0b 66
        E 0 81 32 00
        E 0 91 30 66
        E 48 b1 0b 5d
        E 48 b1 0b 66
        E 0 81 30 00
        E 0 91 2e 66
        E 48 b1 0b 5d
        E 48 b1 0b 66
        E 0 81 2e 00
        E 0 91 2d 66
        E 48 b1 0b 5d
        E 48 b1 0b 66
        E 0 81 2d 00
        E 0 91 2b 66
        E 48 b1 0b 5d
        E 48 b1 0b 66
        E 0 81 2b 00
        E 0 91 2a 66
        E 48 b1 0b 5d
        E 48 b1 0b 22
        E 0 81 2a 00
        E 0 91 26 22
        E 16 b1 0b 3b
        E 16 b1 0b 55
        E 32 b1 0b 3b
        E 16 b1 0b 22
        E 128 b1 0b 3b
        E 16 b1 0b 55
        E 32 b1 0b 3b
        E 16 b1 0b 22
        E 112 81 26 00
        E 0 91 2e 22
        E 16 b1 0b 3b
        E 16 b1 0b 55
        E 32 b1 0b 3b
        E 16 b1 0b 22
        E 112 81 2e 00
        E 0 91 2b 22
        E 16 b1 0b 3b
        E 16 b1 0b 55
        E 32 b1 0b 3b
        E 16 b1 0b 22
        E 112 81 2b 00
        E 0 91 26 22
        E 16 b1 0b 3b
        E 16 b1 0b 55
        E 32 b1 0b 3b
        E 16 b1 0b 22
        E 112 81 26 00
        E 0 91 30 22
        E 16 b1 0b 3b
        E 16 b1 0b 55
        E 32 b1 0b 3b
        E 16 b1 0b 22
        E 112 81 30 00
        E 0 91 2b 22
        E 16 b1 0b 3b
        E 16 b1 0b 55
        E 32 b1 0b 3b
        E 16 b1 0b 22
        E 112 81 2b 00
        E 0 91 27 22
        E 16 b1 0b 3b
        E 16 b1 0b 55
        E 32 b1 0b 3b
        E 16 b1 0b 22
        E 112 81 27 00
        E 0 91 32 22
        E 16 b1 0b 3b
        E 16 b1 0b 55
        E 32 b1 0b 3b
        E 16 b1 0b 22
        E 112 81 32 00
        E 0 91 2e 22
        E 16 b1 0b 3b
        E 16 b1 0b 55
        E 32 b1 0b 3b
        E 16 b1 0b 22
        E 112 81 2e 00
        E 0 91 2b 22
        E 16 b1 0b 3b
        E 16 b1 0b 55
        E 32 b1 0b 3b
        E 16 b1 0b 22
        E 112 81 2b 00
        E 0 91 30 22
        E 16 b1 0b 3b
        E 16 b1 0b 55
        E 32 b1 0b 3b
        E 16 b1 0b 22
        E 112 81 30 00
        E 0 91 2b 22
        E 16 b1 0b 3b
        E 16 b1 0b 55
        E 32 b1 0b 3b
        E 16 b1 0b 22
        E 112 81 2b 00
        E 0 91 27 22
        E 16 b1 0b 3b
        E 16 b1 0b 55
        E 32 b1 0b 3b
        E 16 b1 0b 22
        E 112 81 27 00
        E 0 91 2e 22
        E 16 b1 0b 3b
        E 16 b1 0b 55
        E 32 b1 0b 3b
        E 16 b1 0b 22
        E 112 81 2e 00
        E 0 91 26 22
        E 16 b1 0b 3b
        E 16 b1 0b 55
        E 32 b1 0b 3b
        E 16 b1 0b 22
        E 112 81 26 00
        E 0 91 2d 22
        E 16 b1 0b 3b
        E 16 b1 0b 55
        E 32 b1 0b 3b
        E 16 b1 0b 22
        E 128 b1 0b 3b
        E 16 b1 0b 55
        E 32 b1 0b 3b
        E 16 b1 0b 22
        E 112 81 2d 00
        E 0 91 2a 22
        E 16 b1 0b 3b
        E 16 b1 0b 55
        E 32 b1 0b 3b
        E 16 b1 0b 22
        E 112 81 2a 00
        E 0 91 26 22
        E 16 b1 0b 3b
        E 16 b1 0b 55
        E 32 b1 0b 3b
        E 16 b1 0b 22
        E 112 81 26 00
        E 0 91 2d 22
        E 16 b1 0b 3b
        E 16 b1 0b 55
        E 32 b1 0b 3b
        E 16 b1 0b 22
        E 112 81 2d 00
        E 0 91 2b 22
        E 16 b1 0b 3b
        E 16 b1 0b 55
        E 32 b1 0b 3b
        E 16 b1 0b 22
        E 112 81 2b 00
        E 0 91 26 22
        E 16 b1 0b 3b
        E 16 b1 0b 55
        E 32 b1 0b 3b
        E 16 b1 0b 22
        E 112 81 26 00
        E 0 91 2e 22
        E 16 b1 0b 3b
        E 16 b1 0b 55
        E 32 b1 0b 3b
        E 16 b1 0b 22
        E 112 81 2e 00
        E 0 91 2d 22
        E 16 b1 0b 3b
        E 16 b1 0b 55
        E 32 b1 0b 3b
        E 16 b1 0b 22
        E 112 81 2d 00
        E 0 91 2a 22
        E 16 b1 0b 3b
        E 16 b1 0b 55
        E 32 b1 0b 3b
        E 16 b1 0b 22
        E 112 81 2a 00
        E 0 91 26 22
        E 16 b1 0b 3b
        E 16 b1 0b 55
        E 32 b1 0b 3b
        E 16 b1 0b 22
        E 112 81 26 00
        E 0 91 2b 22
        E 16 b1 0b 3b
        E 16 b1 0b 55
        E 32 b1 0b 3b
        E 16 b1 0b 22
        E 112 81 2b 00
        E 0 91 26 22
        E 16 b1 0b 3b
        E 16 b1 0b 55
        E 32 b1 0b 3b
        E 16 b1 0b 22
        E 112 81 26 00
        E 0 91 2e 22
        E 16 b1 0b 3b
        E 16 b1 0b 55
        E 32 b1 0b 3b
        E 16 b1 0b 22
        E 112 81 2e 00
        E 0 91 2a 22
        E 16 b1 0b 3b
        E 16 b1 0b 55
        E 32 b1 0b 3b
        E 16 b1 0b 22
        E 112 81 2a 00
        E 0 91 2d 22
        E 16 b1 0b 3b
        E 16 b1 0b 55
        E 32 b1 0b 3b
        E 16 b1 0b 22
        E 112 81 2d 00
        E 0 91 26 22
        E 16 b1 0b 3b
        E 16 b1 0b 55
        E 32 b1 0b 3b
        E 16 b1 0b 22
        E 128 b1 0b 3b
        E 16 b1 0b 55
        E 32 b1 0b 3b
        E 16 b1 0b 22
        E 112 81 26 00
        E 0 91 2e 22
        E 16 b1 0b 3b
        E 16 b1 0b 55
        E 32 b1 0b 3b
        E 16 b1 0b 22
        E 112 81 2e 00
        E 0 91 2b 22
        E 16 b1 0b 3b
        E 16 b1 0b 55
        E 32 b1 0b 3b
        E 16 b1 0b 22
        E 112 81 2b 00
        E 0 91 26 22
        E 16 b1 0b 3b
        E 16 b1 0b 55
        E 32 b1 0b 3b
        E 16 b1 0b 22
        E 112 81 26 00
        E 0 91 30 22
        E 16 b1 0b 3b
        E 16 b1 0b 55
        E 32 b1 0b 3b
        E 16 b1 0b 22
        E 112 81 30 00
        E 0 91 2b 22
        E 16 b1 0b 3b
        E 16 b1 0b 55
        E 32 b1 0b 3b
        E 16 b1 0b 22
        E 112 81 2b 00
        E 0 91 27 22
        E 16 b1 0b 3b
        E 16 b1 0b 55
        E 32 b1 0b 3b
        E 16 b1 0b 22
        E 112 81 27 00
        E 0 91 32 22
        E 16 b1 0b 3b
        E 16 b1 0b 55
        E 32 b1 0b 3b
        E 16 b1 0b 22
        E 112 81 32 00
        E 0 91 2e 22
        E 16 b1 0b 3b
        E 16 b1 0b 55
        E 32 b1 0b 3b
        E 16 b1 0b 22
        E 112 81 2e 00
        E 0 91 2b 22
        E 16 b1 0b 3b
        E 16 b1 0b 55
        E 32 b1 0b 3b
        E 16 b1 0b 22
        E 112 81 2b 00
        E 0 91 30 22
        E 16 b1 0b 3b
        E 16 b1 0b 55
        E 32 b1 0b 3b
        E 16 b1 0b 22
        E 112 81 30 00
        E 0 91 2b 22
        E 16 b1 0b 3b
        E 16 b1 0b 55
        E 32 b1 0b 3b
        E 16 b1 0b 22
        E 112 81 2b 00
        E 0 91 27 22
        E 16 b1 0b 3b
        E 16 b1 0b 55
        E 32 b1 0b 3b
        E 16 b1 0b 22
        E 112 81 27 00
        E 0 91 2e 22
        E 16 b1 0b 3b
        E 16 b1 0b 55
        E 32 b1 0b 3b
        E 16 b1 0b 22
        E 112 81 2e 00
        E 0 91 26 22
        E 16 b1 0b 3b
        E 16 b1 0b 55
        E 32 b1 0b 3b
        E 16 b1 0b 22
        E 112 81 26 00
        E 0 91 2d 22
        E 16 b1 0b 3b
        E 16 b1 0b 55
        E 32 b1 0b 3b
        E 16 b1 0b 22
        E 128 b1 0b 3b
        E 16 b1 0b 55
        E 32 b1 0b 3b
        E 16 b1 0b 22
        E 112 81 2d 00
        E 0 91 2a 22
        E 16 b1 0b 3b
        E 16 b1 0b 55
        E 32 b1 0b 3b
        E 16 b1 0b 22
        E 112 81 2a 00
        E 0 91 26 22
        E 16 b1 0b 3b
        E 16 b1 0b 55
        E 32 b1 0b 3b
        E 16 b1 0b 22
        E 112 81 26 00
        E 0 91 2d 22
        E 16 b1 0b 3b
        E 16 b1 0b 55
        E 32 b1 0b 3b
        E 16 b1 0b 22
        E 112 81 2d 00
        E 0 91 2b 22
        E 16 b1 0b 3b
        E 16 b1 0b 55
        E 32 b1 0b 3b
        E 16 b1 0b 22
        E 112 81 2b 00
        E 0 91 26 22
        E 16 b1 0b 3b
        E 16 b1 0b 55
        E 32 b1 0b 3b
        E 16 b1 0b 22
        E 112 81 26 00
        E 0 91 2e 22
        E 16 b1 0b 3b
        E 16 b1 0b 55
        E 32 b1 0b 3b
        E 16 b1 0b 22
        E 112 81 2e 00
        E 0 91 2d 22
        E 16 b1 0b 3b
        E 16 b1 0b 55
        E 32 b1 0b 3b
        E 16 b1 0b 22
        E 112 81 2d 00
        E 0 91 2a 22
        E 16 b1 0b 3b
        E 16 b1 0b 55
        E 32 b1 0b 3b
        E 16 b1 0b 22
        E 112 81 2a 00
        E 0 91 26 22
        E 16 b1 0b 3b
        E 16 b1 0b 55
        E 32 b1 0b 3b
        E 16 b1 0b 22
        E 112 81 26 00
        E 0 91 2b 22
        E 16 b1 0b 3b
        E 16 b1 0b 55
        E 32 b1 0b 3b
        E 16 b1 0b 22
        E 112 81 2b 00
        E 0 91 26 22
        E 16 b1 0b 3b
        E 16 b1 0b 55
        E 32 b1 0b 3b
        E 16 b1 0b 22
        E 112 81 26 00
        E 0 91 2e 22
        E 16 b1 0b 3b
        E 16 b1 0b 55
        E 32 b1 0b 3b
        E 16 b1 0b 22
        E 112 81 2e 00
        E 0 91 2a 22
        E 16 b1 0b 3b
        E 16 b1 0b 55
        E 32 b1 0b 3b
        E 16 b1 0b 22
        E 112 81 2a 00
        E 0 91 2d 22
        E 16 b1 0b 3b
        E 16 b1 0b 55
        E 32 b1 0b 3b
        E 16 b1 0b 22
        E 112 b1 0b 66
        E 0 81 2d 00
        E 0 91 2e 66
        E 16 b1 0b 5d
        E 16 b1 0b 55
        E 16 b1 0b 4c
        E 16 b1 0b 44
        E 16 b1 0b 3b
        E 32 b1 0b 33
        E 16 b1 0b 2a
        E 16 b1 0b 19
        E 16 b1 0b 11
        E 16 81 2e 00
        E 16 b1 0b 66
        E 0 91 26 66
        E 16 b1 0b 5d
        E 16 b1 0b 55
        E 16 b1 0b 4c
        E 16 b1 0b 44
        E 16 b1 0b 3b
        E 32 b1 0b 33
        E 16 b1 0b 2a
        E 16 b1 0b 19
        E 16 b1 0b 11
        E 16 81 26 00
        E 16 b1 0b 66
        E 0 91 2d 66
        E 16 b1 0b 5d
        E 16 b1 0b 55
        E 16 b1 0b 4c
        E 16 b1 0b 44
        E 16 b1 0b 3b
        E 32 b1 0b 33
        E 16 b1 0b 2a
        E 16 b1 0b 19
        E 16 b1 0b 11
        E 16 81 2d 00
        E 16 b1 0b 66
        E 0 91 26 66
        E 16 b1 0b 5d
        E 16 b1 0b 55
        E 16 b1 0b 4c
        E 16 b1 0b 44
        E 16 b1 0b 3b
        E 32 b1 0b 33
        E 16 b1 0b 2a
        E 16 b1 0b 19
        E 16 b1 0b 11
        E 16 81 26 00
        E 16 b1 0b 66
        E 0 91 2e 66
        E 16 b1 0b 5d
        E 16 b1 0b 55
        E 16 b1 0b 4c
        E 16 b1 0b 44
        E 16 b1 0b 3b
        E 32 b1 0b 33
        E 16 b1 0b 2a
        E 16 b1 0b 19
        E 16 b1 0b 11
        E 16 81 2e 00
        E 16 b1 0b 66
        E 0 91 26 66
        E 16 b1 0b 5d
        E 16 b1 0b 55
        E 16 b1 0b 4c
        E 16 b1 0b 44
        E 16 b1 0b 3b
        E 32 b1 0b 33
        E 16 b1 0b 2a
        E 16 b1 0b 19
        E 16 b1 0b 11
        E 16 81 26 00
        E 16 b1 0b 66
        E 0 91 24 66
        E 16 b1 0b 5d
        E 16 b1 0b 55
        E 16 b1 0b 4c
        E 16 b1 0b 44
        E 16 b1 0b 3b
        E 32 b1 0b 33
        E 16 b1 0b 2a
        E 16 b1 0b 19
        E 16 b1 0b 11
        E 16 81 24 00
        E 16 b1 0b 66
        E 0 91 27 66
        E 16 b1 0b 5d
        E 16 b1 0b 55
        E 16 b1 0b 4c
        E 16 b1 0b 44
        E 16 b1 0b 3b
        E 32 b1 0b 33
        E 16 b1 0b 2a
        E 16 b1 0b 19
        E 16 b1 0b 11
        E 16 81 27 00
        E 16 b1 0b 66
        E 0 91 26 66
        E 16 b1 0b 5d
        E 16 b1 0b 55
        E 16 b1 0b 4c
        E 16 b1 0b 44
        E 16 b1 0b 3b
        E 32 b1 0b 33
        E 16 b1 0b 2a
        E 16 b1 0b 19
        E 16 b1 0b 11
        E 16 81 26 00
        E 16 b1 0b 66
        E 0 91 29 66
        E 16 b1 0b 5d
        E 16 b1 0b 55
        E 16 b1 0b 4c
        E 16 b1 0b 44
        E 16 b1 0b 3b
        E 32 b1 0b 33
        E 16 b1 0b 2a
        E 16 b1 0b 19
        E 16 b1 0b 11
        E 16 81 29 00
        E 16 b1 0b 66
        E 0 91 24 66
        E 16 b1 0b 5d
        E 16 b1 0b 55
        E 16 b1 0b 4c
        E 16 b1 0b 44
        E 16 b1 0b 3b
        E 32 b1 0b 33
        E 16 b1 0b 2a
        E 16 b1 0b 19
        E 16 b1 0b 11
        E 16 81 24 00
        E 16 b1 0b 66
        E 0 91 29 66
        E 16 b1 0b 5d
        E 16 b1 0b 55
        E 16 b1 0b 4c
        E 16 b1 0b 44
        E 16 b1 0b 3b
        E 32 b1 0b 33
        E 16 b1 0b 2a
        E 16 b1 0b 19
        E 16 b1 0b 11
        E 16 81 29 00
        E 16 b1 0b 66
        E 0 91 26 66
        E 16 b1 0b 5d
        E 16 b1 0b 55
        E 16 b1 0b 4c
        E 16 b1 0b 44
        E 16 b1 0b 3b
        E 32 b1 0b 33
        E 16 b1 0b 2a
        E 16 b1 0b 19
        E 16 b1 0b 11
        E 16 81 26 00
        E 16 b1 0b 66
        E 0 91 29 66
        E 16 b1 0b 5d
        E 16 b1 0b 55
        E 16 b1 0b 4c
        E 16 b1 0b 44
        E 16 b1 0b 3b
        E 32 b1 0b 33
        E 16 b1 0b 2a
        E 16 b1 0b 19
        E 16 b1 0b 11
        E 16 81 29 00
        E 16 b1 0b 66
        E 0 91 27 66
        E 16 b1 0b 5d
        E 16 b1 0b 55
        E 16 b1 0b 4c
        E 16 b1 0b 44
        E 16 b1 0b 3b
        E 32 b1 0b 33
        E 16 b1 0b 2a
        E 16 b1 0b 19
        E 16 b1 0b 11
        E 16 81 27 00
        E 16 b1 0b 66
        E 0 91 2b 66
        E 16 b1 0b 5d
        E 16 b1 0b 55
        E 16 b1 0b 4c
        E 16 b1 0b 44
        E 16 b1 0b 3b
        E 32 b1 0b 33
        E 16 b1 0b 2a
        E 16 b1 0b 19
        E 16 b1 0b 11
        E 16 81 2b 00
        E 16 b1 0b 66
        E 0 91 2a 66
        E 16 b1 0b 5d
        E 16 b1 0b 55
        E 16 b1 0b 4c
        E 16 b1 0b 44
        E 16 b1 0b 3b
        E 32 b1 0b 33
        E 16 b1 0b 2a
        E 16 b1 0b 19
        E 16 b1 0b 11
        E 16 81 2a 00
        E 16 b1 0b 66
        E 0 91 2a 66
        E 16 b1 0b 5d
        E 16 b1 0b 55
        E 16 b1 0b 4c
        E 16 b1 0b 44
        E 16 b1 0b 3b
        E 32 b1 0b 33
        E 16 b1 0b 2a
        E 16 b1 0b 19
        E 16 b1 0b 11
        E 16 81 2a 00
        E 16 b1 0b 66
        E 0 91 2a 66
        E 16 b1 0b 5d
        E 16 b1 0b 55
        E 16 b1 0b 4c
        E 16 b1 0b 44
        E 16 b1 0b 3b
        E 32 b1 0b 33
        E 16 b1 0b 2a
        E 16 b1 0b 19
        E 16 b1 0b 11
        E 16 81 2a 00
        E 16 b1 0b 66
        E 0 91 2a 66
        E 16 b1 0b 5d
        E 16 b1 0b 55
        E 16 b1 0b 4c
        E 16 b1 0b 44
        E 16 b1 0b 3b
        E 32 b1 0b 33
        E 16 b1 0b 2a
        E 16 b1 0b 19
        E 16 b1 0b 11
        E 16 81 2a 00
        E 208 b1 0b 66
        E 0 91 2b 66
        E 16 b1 0b 44
        E 16 b1 0b 22
        E 16 b1 0b 44
        E 16 b1 0b 22
        E 16 b1 0b 44
        E 16 b1 0b 22
        E 16 b1 0b 44
        E 16 b1 0b 5d
        E 256 b1 0b 66
        E 0 81 2b 00
        E 0 91 2d 66
        E 16 b1 0b 5d
        E 16 b1 0b 55
        E 16 b1 0b 4c
        E 16 b1 0b 44
        E 16 b1 0b 3b
        E 32 b1 0b 33
        E 16 b1 0b 2a
        E 16 b1 0b 19
        E 16 b1 0b 11
        E 16 81 2d 00
        E 16 b1 0b 66
        E 0 91 2a 66
        E 16 b1 0b 5d
        E 16 b1 0b 55
        E 16 b1 0b 4c
        E 16 b1 0b 44
        E 16 b1 0b 3b
        E 32 b1 0b 33
        E 16 b1 0b 2a
        E 16 b1 0b 19
        E 16 b1 0b 11
        E 16 81 2a 00
        E 208 b1 0b 66
        E 0 91 26 66
        E 16 b1 0b 44
        E 16 b1 0b 22
        E 16 b1 0b 44
        E 16 b1 0b 22
        E 16 b1 0b 44
        E 16 b1 0b 22
        E 16 b1 0b 44
        E 16 b1 0b 5d
        E 256 b1 0b 66
        E 0 81 26 00
        E 0 91 2d 66
        E 16 b1 0b 44
        E 16 b1 0b 22
        E 16 b1 0b 44
        E 16 b1 0b 22
        E 16 b1 0b 44
        E 16 b1 0b 22
        E 16 b1 0b 44
        E 16 b1 0b 5d
        E 256 b1 0b 66
        E 0 81 2d 00
        E 0 91 32 66
        E 16 b1 0b 44
        E 16 b1 0b 22
        E 16 b1 0b 44
        E 16 b1 0b 22
        E 16 b1 0b 44
        E 16 b1 0b 22
        E 16 b1 0b 44
        E 16 b1 0b 5d
        E 256 b1 0b 66
        E 0 81 32 00
        E 0 91 2b 66
        E 16 b1 0b 5d
        E 16 b1 0b 55
        E 16 b1 0b 4c
        E 16 b1 0b 44
        E 16 b1 0b 3b
        E 32 b1 0b 33
        E 16 b1 0b 2a
        E 16 b1 0b 19
        E 16 b1 0b 11
        E 16 81 2b 00
        E 16 b1 0b 66
        E 0 91 2b 66
        E 16 b1 0b 5d
        E 16 b1 0b 55
        E 16 b1 0b 4c
        E 16 b1 0b 44
        E 16 b1 0b 3b
        E 32 b1 0b 33
        E 16 b1 0b 2a
        E 16 b1 0b 19
        E 16 b1 0b 11
        E 16 81 2b 00
        E 16 b1 0b 66
        E 0 91 2b 66
        E 16 b1 0b 5d
        E 16 b1 0b 55
        E 16 b1 0b 4c
        E 16 b1 0b 44
        E 16 b1 0b 3b
        E 32 b1 0b 33
        E 16 b1 0b 2a
        E 16 b1 0b 19
        E 16 b1 0b 11
        E 16 81 2b 00
        E 16 b1 0b 66
        E 0 91 2b 66
        E 16 b1 0b 5d
        E 16 b1 0b 55
        E 16 b1 0b 4c
        E 16 b1 0b 44
        E 16 b1 0b 3b
        E 32 b1 0b 33
        E 16 b1 0b 2a
        E 16 b1 0b 19
        E 16 b1 0b 11
        E 16 81 2b 00
        E 208 b1 0b 66
        E 0 91 2d 66
        E 16 b1 0b 44
        E 16 b1 0b 22
        E 16 b1 0b 44
        E 16 b1 0b 22
        E 16 b1 0b 44
        E 16 b1 0b 22
        E 16 b1 0b 44
        E 16 b1 0b 5d
        E 256 b1 0b 66
        E 0 81 2d 00
        E 0 91 2e 66
        E 16 b1 0b 5d
        E 16 b1 0b 55
        E 16 b1 0b 4c
        E 16 b1 0b 44
        E 16 b1 0b 3b
        E 32 b1 0b 33
        E 16 b1 0b 2a
        E 16 b1 0b 19
        E 16 b1 0b 11
        E 16 81 2e 00
        E 16 b1 0b 66
        E 0 91 2a 66
        E 16 b1 0b 5d
        E 16 b1 0b 55
        E 16 b1 0b 4c
        E 16 b1 0b 44
        E 16 b1 0b 3b
        E 32 b1 0b 33
        E 16 b1 0b 2a
        E 16 b1 0b 19
        E 16 b1 0b 11
        E 16 81 2a 00
        E 1360 b1 0b 7f
        E 0 91 26 7f
        E 16 b1 0b 6e
        E 16 b1 0b 5d
        E 16 b1 0b 4c
        E 32 b1 0b 5d
        E 48 b1 0b 4c
        E 16 b1 0b 3b
        E 16 b1 0b 2a
        E 32 b1 0b 7f
        E 16 b1 0b 6e
        E 16 b1 0b 5d
        E 16 b1 0b 4c
        E 32 b1 0b 5d
        E 48 b1 0b 4c
        E 16 b1 0b 3b
        E 16 b1 0b 2a
        E 32 b1 0b 7f
        E 0 81 26 00
        E 0 91 28 7f
        E 16 b1 0b 6e
        E 16 b1 0b 5d
        E 16 b1 0b 4c
        E 32 b1 0b 5d
        E 32 b1 0b 4c
        E 16 b1 0b 3b
        E 16 b1 0b 2a
        E 32 b1 0b 3b
        E 32 b1 0b 2a
        E 16 b1 0b 19
        E 16 b1 0b 08
        E 16 81 28 00
        E 128 b1 0b 7f
        E 0 91 29 7f
        E 16 b1 0b 6e
        E 16 b1 0b 5d
        E 16 b1 0b 4c
        E 32 b1 0b 5d
        E 48 b1 0b 4c
        E 16 b1 0b 3b
        E 16 b1 0b 2a
        E 32 b1 0b 7f
        E 16 b1 0b 6e
        E 16 b1 0b 5d
        E 16 b1 0b 4c
        E 32 b1 0b 5d
        E 48 b1 0b 4c
        E 16 b1 0b 3b
        E 16 b1 0b 2a
        E 32 b1 0b 7f
        E 0 81 29 00
        E 0 91 28 7f
        E 16 b1 0b 6e
        E 16 b1 0b 5d
        E 16 b1 0b 4c
        E 32 b1 0b 5d
        E 32 b1 0b 4c
        E 16 b1 0b 3b
        E 16 b1 0b 2a
        E 32 b1 0b 3b
        E 32 b1 0b 2a
        E 16 b1 0b 19
        E 16 b1 0b 08
        E 16 81 28 00
        E 128 b1 0b 7f
        E 0 91 26 7f
        E 16 b1 0b 6e
        E 16 b1 0b 5d
        E 16 b1 0b 4c
        E 32 b1 0b 5d
        E 48 b1 0b 4c
        E 16 b1 0b 3b
        E 16 b1 0b 2a
        E 32 b1 0b 7f
        E 16 b1 0b 6e
        E 16 b1 0b 5d
        E 16 b1 0b 4c
        E 32 b1 0b 5d
        E 48 b1 0b 4c
        E 16 b1 0b 3b
        E 16 b1 0b 2a
        E 32 b1 0b 7f
        E 0 81 26 00
        E 0 91 28 7f
        E 16 b1 0b 6e
        E 16 b1 0b 5d
        E 16 b1 0b 4c
        E 32 b1 0b 5d
        E 32 b1 0b 4c
        E 16 b1 0b 3b
        E 16 b1 0b 2a
        E 32 b1 0b 3b
        E 32 b1 0b 2a
        E 16 b1 0b 19
        E 16 b1 0b 08
        E 16 81 28 00
        E 128 b1 0b 7f
        E 0 91 29 7f
        E 16 b1 0b 6e
        E 16 b1 0b 5d
        E 16 b1 0b 4c
        E 32 b1 0b 5d
        E 48 b1 0b 4c
        E 16 b1 0b 3b
        E 16 b1 0b 2a
        E 32 b1 0b 7f
        E 16 b1 0b 6e
        E 16 b1 0b 5d
        E 16 b1 0b 4c
        E 32 b1 0b 5d
        E 48 b1 0b 4c
        E 16 b1 0b 3b
        E 16 b1 0b 2a
        E 32 b1 0b 7f
        E 0 81 29 00
        E 0 91 24 7f
        E 16 b1 0b 6e
        E 16 b1 0b 5d
        E 16 b1 0b 4c
        E 32 b1 0b 5d
        E 32 b1 0b 4c
        E 16 b1 0b 3b
        E 16 b1 0b 2a
        E 32 b1 0b 3b
        E 32 b1 0b 2a
        E 16 b1 0b 19
        E 16 b1 0b 08
        E 16 81 24 00
        E 128 b1 0b 7f
        E 0 91 26 7f
        E 16 b1 0b 6e
        E 16 b1 0b 5d
        E 16 b1 0b 4c
        E 32 b1 0b 5d
        E 48 b1 0b 4c
        E 16 b1 0b 3b
        E 16 b1 0b 2a
        E 32 b1 0b 7f
        E 16 b1 0b 6e
        E 16 b1 0b 5d
        E 16 b1 0b 4c
        E 32 b1 0b 5d
        E 48 b1 0b 4c
        E 16 b1 0b 3b
        E 16 b1 0b 2a
        E 32 b1 0b 7f
        E 0 81 26 00
        E 0 91 28 7f
        E 16 b1 0b 6e
        E 16 b1 0b 5d
        E 16 b1 0b 4c
        E 32 b1 0b 5d
        E 32 b1 0b 4c
        E 16 b1 0b 3b
        E 16 b1 0b 2a
        E 32 b1 0b 3b
        E 32 b1 0b 2a
        E 16 b1 0b 19
        E 16 b1 0b 08
        E 16 81 28 00
        E 128 b1 0b 7f
        E 0 91 29 7f
        E 16 b1 0b 6e
        E 16 b1 0b 5d
        E 16 b1 0b 4c
        E 32 b1 0b 5d
        E 48 b1 0b 4c
        E 16 b1 0b 3b
        E 16 b1 0b 2a
        E 32 b1 0b 7f
        E 16 b1 0b 6e
        E 16 b1 0b 5d
        E 16 b1 0b 4c
        E 32 b1 0b 5d
        E 48 b1 0b 4c
        E 16 b1 0b 3b
        E 16 b1 0b 2a
        E 32 b1 0b 7f
        E 0 81 29 00
        E 0 91 28 7f
        E 16 b1 0b 6e
        E 16 b1 0b 5d
        E 16 b1 0b 4c
        E 32 b1 0b 5d
        E 32 b1 0b 4c
        E 16 b1 0b 3b
        E 16 b1 0b 2a
        E 32 b1 0b 3b
        E 32 b1 0b 2a
        E 16 b1 0b 19
        E 16 b1 0b 08
        E 16 81 28 00
        E 128 b1 0b 7f
        E 0 91 26 7f
        E 16 b1 0b 6e
        E 16 b1 0b 5d
        E 16 b1 0b 4c
        E 32 b1 0b 5d
        E 48 b1 0b 4c
        E 16 b1 0b 3b
        E 16 b1 0b 2a
        E 32 b1 0b 7f
        E 16 b1 0b 6e
        E 16 b1 0b 5d
        E 16 b1 0b 4c
        E 32 b1 0b 5d
        E 48 b1 0b 4c
        E 16 b1 0b 3b
        E 16 b1 0b 2a
        E 32 b1 0b 7f
        E 0 81 26 00
        E 0 91 28 7f
        E 16 b1 0b 6e
        E 16 b1 0b 5d
        E 16 b1 0b 4c
        E 32 b1 0b 5d
        E 32 b1 0b 4c
        E 16 b1 0b 3b
        E 16 b1 0b 2a
        E 32 b1 0b 3b
        E 32 b1 0b 2a
        E 16 b1 0b 19
        E 16 b1 0b 08
        E 16 81 28 00
        E 128 b1 0b 7f
        E 0 91 29 7f
        E 16 b1 0b 6e
        E 16 b1 0b 5d
        E 16 b1 0b 4c
        E 32 b1 0b 5d
        E 16 b1 0b 7f
        E 0 81 29 00
        E 0 91 26 7f
        E 16 b1 0b 6e
        E 16 b1 0b 5d
        E 16 b1 0b 4c
        E 32 b1 0b 5d
        E 16 b1 0b 7f
        E 0 81 26 00
        E 0 91 28 7f
        E 16 b1 0b 6e
        E 16 b1 0b 5d
        E 16 b1 0b 4c
        E 32 b1 0b 5d
        E 16 b1 0b 7f
        E 0 81 28 00
        E 0 91 2b 7f
        E 16 b1 0b 6e
        E 16 b1 0b 5d
        E 16 b1 0b 4c
        E 32 b1 0b 5d
        E 16 b1 0b 7f
        E 0 81 2b 00
        E 0 91 29 7f
        E 16 b1 0b 6e
        E 16 b1 0b 5d
        E 16 b1 0b 4c
        E 32 b1 0b 5d
        E 16 b1 0b 7f
        E 0 81 29 00
        E 0 91 28 7f
        E 16 b1 0b 6e
        E 16 b1 0b 5d
        E 16 b1 0b 4c
        E 32 b1 0b 5d
        E 16 b1 0b 7f
        E 0 81 28 00
        E 0 91 26 7f
        E 16 b1 0b 6e
        E 16 b1 0b 5d
        E 16 b1 0b 4c
        E 32 b1 0b 5d
        E 16 b1 0b 7f
        E 0 81 26 00
        E 0 91 24 7f
        E 16 b1 0b 6e
        E 16 b1 0b 5d
        E 16 b1 0b 4c
        E 32 b1 0b 5d
        E 16 b1 0b 7f
        E 0 81 24 00
        E 0 91 26 7f
        E 16 b1 0b 6e
        E 16 b1 0b 5d
        E 16 b1 0b 4c
        E 32 b1 0b 5d
        E 48 b1 0b 4c
        E 16 b1 0b 3b
        E 16 b1 0b 2a
        E 32 b1 0b 7f
        E 16 b1 0b 6e
        E 16 b1 0b 5d
        E 16 b1 0b 4c
        E 32 b1 0b 5d
        E 48 b1 0b 4c
        E 16 b1 0b 3b
        E 16 b1 0b 2a
        E 32 b1 0b 7f
        E 0 81 26 00
        E 0 91 28 7f
        E 16 b1 0b 6e
        E 16 b1 0b 5d
        E 16 b1 0b 4c
        E 32 b1 0b 5d
        E 32 b1 0b 4c
        E 16 b1 0b 3b
        E 16 b1 0b 2a
        E 32 b1 0b 3b
        E 32 b1 0b 2a
        E 16 b1 0b 19
        E 16 b1 0b 08
        E 16 81 28 00
        E 128 b1 0b 7f
        E 0 91 29 7f
        E 16 b1 0b 6e
        E 16 b1 0b 5d
        E 16 b1 0b 4c
        E 32 b1 0b 5d
        E 48 b1 0b 4c
        E 16 b1 0b 3b
        E 16 b1 0b 2a
        E 32 b1 0b 7f
        E 16 b1 0b 6e
        E 16 b1 0b 5d
        E 16 b1 0b 4c
        E 32 b1 0b 5d
        E 48 b1 0b 4c
        E 16 b1 0b 3b
        E 16 b1 0b 2a
        E 32 b1 0b 7f
        E 0 81 29 00
        E 0 91 28 7f
        E 16 b1 0b 6e
        E 16 b1 0b 5d
        E 16 b1 0b 4c
        E 32 b1 0b 5d
        E 32 b1 0b 4c
        E 16 b1 0b 3b
        E 16 b1 0b 2a
        E 32 b1 0b 3b
        E 32 b1 0b 2a
        E 16 b1 0b 19
        E 16 b1 0b 08
        E 16 81 28 00
        E 128 b1 0b 7f
        E 0 91 26 7f
        E 16 b1 0b 6e
        E 16 b1 0b 5d
        E 16 b1 0b 4c
        E 32 b1 0b 5d
        E 48 b1 0b 4c
        E 16 b1 0b 3b
        E 16 b1 0b 2a
        E 32 b1 0b 7f
        E 16 b1 0b 6e
        E 16 b1 0b 5d
        E 16 b1 0b 4c
        E 32 b1 0b 5d
        E 48 b1 0b 4c
        E 16 b1 0b 3b
        E 16 b1 0b 2a
        E 32 b1 0b 7f
        E 0 81 26 00
        E 0 91 28 7f
        E 16 b1 0b 6e
        E 16 b1 0b 5d
        E 16 b1 0b 4c
        E 32 b1 0b 5d
        E 32 b1 0b 4c
        E 16 b1 0b 3b
        E 16 b1 0b 2a
        E 32 b1 0b 3b
        E 32 b1 0b 2a
        E 16 b1 0b 19
        E 16 b1 0b 08
        E 16 81 28 00
        E 128 b1 0b 7f
        E 0 91 29 7f
        E 16 b1 0b 6e
        E 16 b1 0b 5d
        E 16 b1 0b 4c
        E 32 b1 0b 5d
        E 48 b1 0b 4c
        E 16 b1 0b 3b
        E 16 b1 0b 2a
        E 32 b1 0b 7f
        E 16 b1 0b 6e
        E 16 b1 0b 5d
        E 16 b1 0b 4c
        E 32 b1 0b 5d
        E 48 b1 0b 4c
        E 16 b1 0b 3b
        E 16 b1 0b 2a
        E 32 b1 0b 7f
        E 0 81 29 00
        E 0 91 24 7f
        E 16 b1 0b 6e
        E 16 b1 0b 5d
        E 16 b1 0b 4c
        E 32 b1 0b 5d
        E 32 b1 0b 4c
        E 16 b1 0b 3b
        E 16 b1 0b 2a
        E 32 b1 0b 3b
        E 32 b1 0b 2a
        E 16 b1 0b 19
        E 16 b1 0b 08
        E 16 81 24 00
        E 128 b1 0b 7f
        E 0 91 26 7f
        E 16 b1 0b 6e
        E 16 b1 0b 5d
        E 16 b1 0b 4c
        E 32 b1 0b 5d
        E 48 b1 0b 4c
        E 16 b1 0b 3b
        E 16 b1 0b 2a
        E 32 b1 0b 7f
        E 16 b1 0b 6e
        E 16 b1 0b 5d
        E 16 b1 0b 4c
        E 32 b1 0b 5d
        E 48 b1 0b 4c
        E 16 b1 0b 3b
        E 16 b1 0b 2a
        E 32 b1 0b 7f
        E 0 81 26 00
        E 0 91 28 7f
        E 16 b1 0b 6e
        E 16 b1 0b 5d
        E 16 b1 0b 4c
        E 32 b1 0b 5d
        E 32 b1 0b 4c
        E 16 b1 0b 3b
        E 16 b1 0b 2a
        E 32 b1 0b 3b
        E 32 b1 0b 2a
        E 16 b1 0b 19
        E 16 b1 0b 08
        E 16 81 28 00
        E 128 b1 0b 7f
        E 0 91 29 7f
        E 16 b1 0b 6e
        E 16 b1 0b 5d
        E 16 b1 0b 4c
        E 32 b1 0b 5d
        E 48 b1 0b 4c
        E 16 b1 0b 3b
        E 16 b1 0b 2a
        E 32 b1 0b 7f
        E 16 b1 0b 6e
        E 16 b1 0b 5d
        E 16 b1 0b 4c
        E 32 b1 0b 5d
        E 48 b1 0b 4c
        E 16 b1 0b 3b
        E 16 b1 0b 2a
        E 32 b1 0b 7f
        E 0 81 29 00
        E 0 91 28 7f
        E 16 b1 0b 6e
        E 16 b1 0b 5d
        E 16 b1 0b 4c
        E 32 b1 0b 5d
        E 32 b1 0b 4c
        E 16 b1 0b 3b
        E 16 b1 0b 2a
        E 32 b1 0b 3b
        E 32 b1 0b 2a
        E 16 b1 0b 19
        E 16 b1 0b 08
        E 16 81 28 00
        E 128 b1 0b 7f
        E 0 91 26 7f
        E 16 b1 0b 6e
        E 16 b1 0b 5d
        E 16 b1 0b 4c
        E 32 b1 0b 5d
        E 48 b1 0b 4c
        E 16 b1 0b 3b
        E 16 b1 0b 2a
        E 32 b1 0b 7f
        E 16 b1 0b 6e
        E 16 b1 0b 5d
        E 16 b1 0b 4c
        E 32 b1 0b 5d
        E 48 b1 0b 4c
        E 16 b1 0b 3b
        E 16 b1 0b 2a
        E 32 b1 0b 7f
        E 0 81 26 00
        E 0 91 28 7f
        E 16 b1 0b 6e
        E 16 b1 0b 5d
        E 16 b1 0b 4c
        E 32 b1 0b 5d
        E 32 b1 0b 4c
        E 16 b1 0b 3b
        E 16 b1 0b 2a
        E 32 b1 0b 3b
        E 32 b1 0b 2a
        E 16 b1 0b 19
        E 16 b1 0b 08
        E 16 81 28 00
        E 128 b1 0b 7f
        E 0 91 29 7f
        E 16 b1 0b 6e
        E 16 b1 0b 5d
        E 16 b1 0b 4c
        E 32 b1 0b 5d
        E 16 b1 0b 7f
        E 0 81 29 00
        E 0 91 26 7f
        E 16 b1 0b 6e
        E 16 b1 0b 5d
        E 16 b1 0b 4c
        E 32 b1 0b 5d
        E 16 b1 0b 7f
        E 0 81 26 00
        E 0 91 28 7f
        E 16 b1 0b 6e
        E 16 b1 0b 5d
        E 16 b1 0b 4c
        E 32 b1 0b 5d
        E 16 b1 0b 7f
        E 0 81 28 00
        E 0 91 2b 7f
        E 16 b1 0b 6e
        E 16 b1 0b 5d
        E 16 b1 0b 4c
        E 32 b1 0b 5d
        E 16 b1 0b 7f
        E 0 81 2b 00
        E 0 91 29 7f
        E 16 b1 0b 6e
        E 16 b1 0b 5d
        E 16 b1 0b 4c
        E 32 b1 0b 5d
        E 16 b1 0b 7f
        E 0 81 29 00
        E 0 91 28 7f
        E 16 b1 0b 6e
        E 16 b1 0b 5d
        E 16 b1 0b 4c
        E 32 b1 0b 5d
        E 16 b1 0b 7f
        E 0 81 28 00
        E 0 91 26 7f
        E 16 b1 0b 6e
        E 16 b1 0b 5d
        E 16 b1 0b 4c
        E 32 b1 0b 5d
        E 16 b1 0b 7f
        E 0 81 26 00
        E 0 91 24 7f
        E 16 b1 0b 6e
        E 16 b1 0b 5d
        E 16 b1 0b 4c
        E 32 b1 0b 5d
        E 16 b1 0b 7f
        E 0 81 24 00
        E 0 91 2e 7f
        E 16 b1 0b 6e
        E 16 b1 0b 5d
        E 16 b1 0b 4c
        E 32 b1 0b 5d
        E 48 b1 0b 4c
        E 16 b1 0b 3b
        E 16 b1 0b 2a
        E 32 b1 0b 7f
        E 16 b1 0b 6e
        E 16 b1 0b 5d
        E 16 b1 0b 4c
        E 32 b1 0b 5d
        E 48 b1 0b 4c
        E 16 b1 0b 3b
        E 16 b1 0b 2a
        E 32 b1 0b 66
        E 0 81 2e 00
        E 0 91 33 66
        E 48 b1 0b 5d
        E 48 b1 0b 55
        E 48 b1 0b 4c
        E 48 b1 0b 44
        E 48 b1 0b 3b
        E 32 b1 0b 33
        E 48 b1 0b 2a
        E 32 b1 0b 22
        E 32 b1 0b 19
        E 32 b1 0b 11
        E 32 b1 0b 08
        E 32 81 33 00
        E 96 b1 0b 66
        E 0 91 33 66
        E 48 b1 0b 5d
        E 48 b1 0b 55
        E 48 b1 0b 4c
        E 48 b1 0b 44
        E 48 b1 0b 3b
        E 32 b1 0b 33
        E 48 b1 0b 2a
        E 32 b1 0b 22
        E 32 b1 0b 19
        E 32 b1 0b 11
        E 32 b1 0b 08
        E 32 81 33 00
        E 96 b1 0b 66
        E 0 91 32 66
        E 48 b1 0b 5d
        E 48 b1 0b 55
        E 48 b1 0b 4c
        E 64 b1 0b 44
        E 48 b1 0b 3b
        E 32 b1 0b 33
        E 48 b1 0b 2a
        E 32 b1 0b 22
        E 16 b1 0b 66
        E 0 81 32 00
        E 0 91 26 66
        E 48 b1 0b 5d
        E 48 b1 0b 55
        E 48 b1 0b 4c
        E 48 b1 0b 66
        E 48 b1 0b 5d
        E 48 b1 0b 55
        E 48 b1 0b 4c
        E 48 b1 0b 66
        E 0 81 26 00
        E 0 91 2a 66
        E 48 b1 0b 5d
        E 48 b1 0b 55
        E 48 b1 0b 4c
        E 48 b1 0b 66
        E 48 b1 0b 5d
        E 48 b1 0b 55
        E 48 b1 0b 4c
        E 48 b1 0b 66
        E 0 81 2a 00
        E 0 91 2d 66
        E 48 b1 0b 5d
        E 48 b1 0b 55
        E 48 b1 0b 4c
        E 48 b1 0b 66
        E 48 b1 0b 5d
        E 48 b1 0b 55
        E 48 b1 0b 4c
        E 48 b1 0b 66
        E 0 81 2d 00
        E 0 91 2e 66
        E 48 b1 0b 5d
        E 64 b1 0b 55
        E 48 b1 0b 4c
        E 32 b1 0b 66
        E 48 b1 0b 5d
        E 64 b1 0b 55
        E 48 b1 0b 4c
        E 32 b1 0b 66
        E 0 81 2e 00
        E 0 91 33 66
        E 48 b1 0b 5d
        E 48 b1 0b 55
        E 48 b1 0b 4c
        E 48 b1 0b 44
        E 48 b1 0b 3b
        E 32 b1 0b 33
        E 48 b1 0b 2a
        E 32 b1 0b 22
        E 32 b1 0b 19
        E 32 b1 0b 11
        E 32 b1 0b 08
        E 32 81 33 00
        E 96 b1 0b 66
        E 0 91 33 66
        E 48 b1 0b 5d
        E 48 b1 0b 55
        E 48 b1 0b 4c
        E 48 b1 0b 44
        E 48 b1 0b 3b
        E 32 b1 0b 33
        E 48 b1 0b 2a
        E 32 b1 0b 22
        E 32 b1 0b 19
        E 32 b1 0b 11
        E 32 b1 0b 08
        E 32 81 33 00
        E 96 b1 0b 66
        E 0 91 32 66
        E 48 b1 0b 5d
        E 48 b1 0b 55
        E 48 b1 0b 4c
        E 64 b1 0b 44
        E 48 b1 0b 3b
        E 32 b1 0b 33
        E 48 b1 0b 2a
        E 32 b1 0b 22
        E 48 b1 0b 19
        E 32 b1 0b 11
        E 32 b1 0b 08
        E 32 81 32 00
        E 64 b1 0b 66
        E 0 91 36 66
        E 48 b1 0b 5d
        E 48 b1 0b 66
        E 0 81 36 00
        E 0 91 37 66
        E 48 b1 0b 5d
        E 48 b1 0b 66
        E 0 81 37 00
        E 0 91 36 66
        E 48 b1 0b 5d
        E 48 b1 0b 66
        E 0 81 36 00
        E 0 91 33 66
        E 48 b1 0b 5d
        E 48 b1 0b 66
        E 0 81 33 00
        E 0 91 32 66
        E 48 b1 0b 5d
        E 48 b1 0b 66
        E 0 81 32 00
        E 0 91 30 66
        E 48 b1 0b 5d
        E 48 b1 0b 66
        E 0 81 30 00
        E 0 91 2e 66
        E 48 b1 0b 5d
        E 48 b1 0b 66
        E 0 81 2e 00
        E 0 91 2d 66
        E 48 b1 0b 5d
        E 48 b1 0b 66
        E 0 81 2d 00
        E 0 91 2b 66
        E 48 b1 0b 5d
        E 48 b1 0b 66
        E 0 81 2b 00
        E 0 91 2a 66
        E 48 b1 0b 5d
        E 48 b1 0b 22
        E 0 81 2a 00
        E 0 91 26 22
        E 16 b1 0b 3b
        E 16 b1 0b 55
        E 32 b1 0b 3b
        E 16 b1 0b 22
        E 128 b1 0b 3b
        E 16 b1 0b 55
        E 32 b1 0b 3b
        E 16 b1 0b 22
        E 112 81 26 00
        E 0 91 2e 22
        E 16 b1 0b 3b
        E 16 b1 0b 55
        E 32 b1 0b 3b
        E 16 b1 0b 22
        E 112 81 2e 00
        E 0 91 2b 22
        E 16 b1 0b 3b
        E 16 b1 0b 55
        E 32 b1 0b 3b
        E 16 b1 0b 22
        E 112 81 2b 00
        E 0 91 26 22
        E 16 b1 0b 3b
        E 16 b1 0b 55
        E 32 b1 0b 3b
        E 16 b1 0b 22
        E 112 81 26 00
        E 0 91 30 22
        E 16 b1 0b 3b
        E 16 b1 0b 55
        E 32 b1 0b 3b
        E 16 b1 0b 22
        E 112 81 30 00
        E 0 91 2b 22
        E 16 b1 0b 3b
        E 16 b1 0b 55
        E 32 b1 0b 3b
        E 16 b1 0b 22
        E 112 81 2b 00
        E 0 91 27 22
        E 16 b1 0b 3b
        E 16 b1 0b 55
        E 32 b1 0b 3b
        E 16 b1 0b 22
        E 112 81 27 00
        E 0 91 32 22
        E 16 b1 0b 3b
        E 16 b1 0b 55
        E 32 b1 0b 3b
        E 16 b1 0b 22
        E 112 81 32 00
        E 0 91 2e 22
        E 16 b1 0b 3b
        E 16 b1 0b 55
        E 32 b1 0b 3b
        E 16 b1 0b 22
        E 112 81 2e 00
        E 0 91 2b 22
        E 16 b1 0b 3b
        E 16 b1 0b 55
        E 32 b1 0b 3b
        E 16 b1 0b 22
        E 112 81 2b 00
        E 0 91 30 22
        E 16 b1 0b 3b
        E 16 b1 0b 55
        E 32 b1 0b 3b
        E 16 b1 0b 22
        E 112 81 30 00
        E 0 91 2b 22
        E 16 b1 0b 3b
        E 16 b1 0b 55
        E 32 b1 0b 3b
        E 16 b1 0b 22
        E 112 81 2b 00
        E 0 91 27 22
        E 16 b1 0b 3b
        E 16 b1 0b 55
        E 32 b1 0b 3b
        E 16 b1 0b 22
        E 112 81 27 00
        E 0 91 2e 22
        E 16 b1 0b 3b
        E 16 b1 0b 55
        E 32 b1 0b 3b
        E 16 b1 0b 22
        E 112 81 2e 00
        E 0 91 26 22
        E 16 b1 0b 3b
        E 16 b1 0b 55
        E 32 b1 0b 3b
        E 16 b1 0b 22
        E 112 81 26 00
        E 0 91 2d 22
        E 16 b1 0b 3b
        E 16 b1 0b 55
        E 32 b1 0b 3b
        E 16 b1 0b 22
        E 128 b1 0b 3b
        E 16 b1 0b 55
        E 32 b1 0b 3b
        E 16 b1 0b 22
        E 112 81 2d 00
        E 0 91 2a 22
        E 16 b1 0b 3b
        E 16 b1 0b 55
        E 32 b1 0b 3b
        E 16 b1 0b 22
        E 112 81 2a 00
        E 0 91 26 22
        E 16 b1 0b 3b
        E 16 b1 0b 55
        E 32 b1 0b 3b
        E 16 b1 0b 22
        E 112 81 26 00
        E 0 91 2d 22
        E 16 b1 0b 3b
        E 16 b1 0b 55
        E 32 b1 0b 3b
        E 16 b1 0b 22
        E 112 81 2d 00
        E 0 91 2b 22
        E 16 b1 0b 3b
        E 16 b1 0b 55
        E 32 b1 0b 3b
        E 16 b1 0b 22
        E 112 81 2b 00
        E 0 91 26 22
        E 16 b1 0b 3b
        E 16 b1 0b 55
        E 32 b1 0b 3b
        E 16 b1 0b 22
        E 112 81 26 00
        E 0 91 2e 22
        E 16 b1 0b 3b
        E 16 b1 0b 55
        E 32 b1 0b 3b
        E 16 b1 0b 22
        E 112 81 2e 00
        E 0 91 2d 22
        E 16 b1 0b 3b
        E 16 b1 0b 55
        E 32 b1 0b 3b
        E 16 b1 0b 22
        E 112 81 2d 00
        E 0 91 2a 22
        E 16 b1 0b 3b
        E 16 b1 0b 55
        E 32 b1 0b 3b
        E 16 b1 0b 22
        E 112 81 2a 00
        E 0 91 26 22
        E 16 b1 0b 3b
        E 16 b1 0b 55
        E 32 b1 0b 3b
        E 16 b1 0b 22
        E 112 81 26 00
        E 0 91 2b 22
        E 16 b1 0b 3b
        E 16 b1 0b 55
        E 32 b1 0b 3b
        E 16 b1 0b 22
        E 112 81 2b 00
        E 0 91 26 22
        E 16 b1 0b 3b
        E 16 b1 0b 55
        E 32 b1 0b 3b
        E 16 b1 0b 22
        E 112 81 26 00
        E 0 91 2e 22
        E 16 b1 0b 3b
        E 16 b1 0b 55
        E 32 b1 0b 3b
        E 16 b1 0b 22
        E 112 81 2e 00
        E 0 91 2a 22
        E 16 b1 0b 3b
        E 16 b1 0b 55
        E 32 b1 0b 3b
        E 16 b1 0b 22
        E 112 81 2a 00
        E 0 91 2d 22
        E 16 b1 0b 3b
        E 16 b1 0b 55
        E 32 b1 0b 3b
        E 16 b1 0b 22
        E 112 81 2d 00
        E 0 91 26 22
        E 16 b1 0b 3b
        E 16 b1 0b 55
        E 32 b1 0b 3b
        E 16 b1 0b 22
        E 128 b1 0b 3b
        E 16 b1 0b 55
        E 32 b1 0b 3b
        E 16 b1 0b 22
        E 112 81 26 00
        E 0 91 2e 22
        E 16 b1 0b 3b
        E 16 b1 0b 55
        E 32 b1 0b 3b
        E 16 b1 0b 22
        E 112 81 2e 00
        E 0 91 2b 22
        E 16 b1 0b 3b
        E 16 b1 0b 55
        E 32 b1 0b 3b
        E 16 b1 0b 22
        E 112 81 2b 00
        E 0 91 26 22
        E 16 b1 0b 3b
        E 16 b1 0b 55
        E 32 b1 0b 3b
        E 16 b1 0b 22
        E 112 81 26 00
        E 0 91 30 22
        E 16 b1 0b 3b
        E 16 b1 0b 55
        E 32 b1 0b 3b
        E 16 b1 0b 22
        E 112 81 30 00
        E 0 91 2b 22
        E 16 b1 0b 3b
        E 16 b1 0b 55
        E 32 b1 0b 3b
        E 16 b1 0b 22
        E 112 81 2b 00
        E 0 91 27 22
        E 16 b1 0b 3b
        E 16 b1 0b 55
        E 32 b1 0b 3b
        E 16 b1 0b 22
        E 112 81 27 00
        E 0 91 32 22
        E 16 b1 0b 3b
        E 16 b1 0b 55
        E 32 b1 0b 3b
        E 16 b1 0b 22
        E 112 81 32 00
        E 0 91 2e 22
        E 16 b1 0b 3b
        E 16 b1 0b 55
        E 32 b1 0b 3b
        E 16 b1 0b 22
        E 112 81 2e 00
        E 0 91 2b 22
        E 16 b1 0b 3b
        E 16 b1 0b 55
        E 32 b1 0b 3b
        E 16 b1 0b 22
        E 112 81 2b 00
        E 0 91 30 22
        E 16 b1 0b 3b
        E 16 b1 0b 55
        E 32 b1 0b 3b
        E 16 b1 0b 22
        E 112 81 30 00
        E 0 91 2b 22
        E 16 b1 0b 3b
        E 16 b1 0b 55
        E 32 b1 0b 3b
        E 16 b1 0b 22
        E 112 81 2b 00
        E 0 91 27 22
        E 16 b1 0b 3b
        E 16 b1 0b 55
        E 32 b1 0b 3b
        E 16 b1 0b 22
        E 112 81 27 00
        E 0 91 2e 22
        E 16 b1 0b 3b
        E 16 b1 0b 55
        E 32 b1 0b 3b
        E 16 b1 0b 22
        E 112 81 2e 00
        E 0 91 26 22
        E 16 b1 0b 3b
        E 16 b1 0b 55
        E 32 b1 0b 3b
        E 16 b1 0b 22
        E 112 81 26 00
        E 0 91 2d 22
        E 16 b1 0b 3b
        E 16 b1 0b 55
        E 32 b1 0b 3b
        E 16 b1 0b 22
        E 128 b1 0b 3b
        E 16 b1 0b 55
        E 32 b1 0b 3b
        E 16 b1 0b 22
        E 112 81 2d 00
        E 0 91 2a 22
        E 16 b1 0b 3b
        E 16 b1 0b 55
        E 32 b1 0b 3b
        E 16 b1 0b 22
        E 112 81 2a 00
        E 0 91 26 22
        E 16 b1 0b 3b
        E 16 b1 0b 55
        E 32 b1 0b 3b
        E 16 b1 0b 22
        E 112 81 26 00
        E 0 91 2d 22
        E 16 b1 0b 3b
        E 16 b1 0b 55
        E 32 b1 0b 3b
        E 16 b1 0b 22
        E 112 81 2d 00
        E 0 91 2b 22
        E 16 b1 0b 3b
        E 16 b1 0b 55
        E 32 b1 0b 3b
        E 16 b1 0b 22
        E 112 81 2b 00
        E 0 91 26 22
        E 16 b1 0b 3b
        E 16 b1 0b 55
        E 32 b1 0b 3b
        E 16 b1 0b 22
        E 112 81 26 00
        E 0 91 2e 22
        E 16 b1 0b 3b
        E 16 b1 0b 55
        E 32 b1 0b 3b
        E 16 b1 0b 22
        E 112 81 2e 00
        E 0 91 2d 22
        E 16 b1 0b 3b
        E 16 b1 0b 55
        E 32 b1 0b 3b
        E 16 b1 0b 22
        E 112 81 2d 00
        E 0 91 2a 22
        E 16 b1 0b 3b
        E 16 b1 0b 55
        E 32 b1 0b 3b
        E 16 b1 0b 22
        E 112 81 2a 00
        E 0 91 26 22
        E 16 b1 0b 3b
        E 16 b1 0b 55
        E 32 b1 0b 3b
        E 16 b1 0b 22
        E 112 81 26 00
        E 0 91 2b 22
        E 16 b1 0b 3b
        E 16 b1 0b 55
        E 32 b1 0b 3b
        E 16 b1 0b 22
        E 112 81 2b 00
        E 0 91 26 22
        E 16 b1 0b 3b
        E 16 b1 0b 55
        E 32 b1 0b 3b
        E 16 b1 0b 22
        E 112 81 26 00
        E 0 91 2e 22
        E 16 b1 0b 3b
        E 16 b1 0b 55
        E 32 b1 0b 3b
        E 16 b1 0b 22
        E 112 81 2e 00
        E 0 91 2a 22
        E 16 b1 0b 3b
        E 16 b1 0b 55
        E 32 b1 0b 3b
        E 16 b1 0b 22
        E 112 81 2a 00
        E 0 91 2d 22
        E 16 b1 0b 3b
        E 16 b1 0b 55
        E 32 b1 0b 3b
        E 16 b1 0b 22
        E 112 b1 0b 66
        E 0 81 2d 00
        E 0 91 2e 66
        E 16 b1 0b 5d
        E 16 b1 0b 55
        E 16 b1 0b 4c
        E 16 b1 0b 44
        E 16 b1 0b 3b
        E 32 b1 0b 33
        E 16 b1 0b 2a
        E 16 b1 0b 19
        E 16 b1 0b 11
        E 16 81 2e 00
        E 16 b1 0b 66
        E 0 91 26 66
        E 16 b1 0b 5d
        E 16 b1 0b 55
        E 16 b1 0b 4c
        E 16 b1 0b 44
        E 16 b1 0b 3b
        E 32 b1 0b 33
        E 16 b1 0b 2a
        E 16 b1 0b 19
        E 16 b1 0b 11
        E 16 81 26 00
        E 16 b1 0b 66
        E 0 91 2d 66
        E 16 b1 0b 5d
        E 16 b1 0b 55
        E 16 b1 0b 4c
        E 16 b1 0b 44
        E 16 b1 0b 3b
        E 32 b1 0b 33
        E 16 b1 0b 2a
        E 16 b1 0b 19
        E 16 b1 0b 11
        E 16 81 2d 00
        E 16 b1 0b 66
        E 0 91 26 66
        E 16 b1 0b 5d
        E 16 b1 0b 55
        E 16 b1 0b 4c
        E 16 b1 0b 44
        E 16 b1 0b 3b
        E 32 b1 0b 33
        E 16 b1 0b 2a
        E 16 b1 0b 19
        E 16 b1 0b 11
        E 16 81 26 00
        E 16 b1 0b 66
        E 0 91 2e 66
        E 16 b1 0b 5d
        E 16 b1 0b 55
        E 16 b1 0b 4c
        E 16 b1 0b 44
        E 16 b1 0b 3b
        E 32 b1 0b 33
        E 16 b1 0b 2a
        E 16 b1 0b 19
        E 16 b1 0b 11
        E 16 81 2e 00
        E 16 b1 0b 66
        E 0 91 26 66
        E 16 b1 0b 5d
        E 16 b1 0b 55
        E 16 b1 0b 4c
        E 16 b1 0b 44
        E 16 b1 0b 3b
        E 32 b1 0b 33
        E 16 b1 0b 2a
        E 16 b1 0b 19
        E 16 b1 0b 11
        E 16 81 26 00
        E 16 b1 0b 66
        E 0 91 24 66
        E 16 b1 0b 5d
        E 16 b1 0b 55
        E 16 b1 0b 4c
        E 16 b1 0b 44
        E 16 b1 0b 3b
        E 32 b1 0b 33
        E 16 b1 0b 2a
        E 16 b1 0b 19
        E 16 b1 0b 11
        E 16 81 24 00
        E 16 b1 0b 66
        E 0 91 27 66
        E 16 b1 0b 5d
        E 16 b1 0b 55
        E 16 b1 0b 4c
        E 16 b1 0b 44
        E 16 b1 0b 3b
        E 32 b1 0b 33
        E 16 b1 0b 2a
        E 16 b1 0b 19
        E 16 b1 0b 11
        E 16 81 27 00
        E 16 b1 0b 66
        E 0 91 26 66
        E 16 b1 0b 5d
        E 16 b1 0b 55
        E 16 b1 0b 4c
        E 16 b1 0b 44
        E 16 b1 0b 3b
        E 32 b1 0b 33
        E 16 b1 0b 2a
        E 16 b1 0b 19
        E 16 b1 0b 11
        E 16 81 26 00
        E 16 b1 0b 66
        E 0 91 29 66
        E 16 b1 0b 5d
        E 16 b1 0b 55
        E 16 b1 0b 4c
        E 16 b1 0b 44
        E 16 b1 0b 3b
        E 32 b1 0b 33
        E 16 b1 0b 2a
        E 16 b1 0b 19
        E 16 b1 0b 11
        E 16 81 29 00
        E 16 b1 0b 66
        E 0 91 24 66
        E 16 b1 0b 5d
        E 16 b1 0b 55
        E 16 b1 0b 4c
        E 16 b1 0b 44
        E 16 b1 0b 3b
        E 32 b1 0b 33
        E 16 b1 0b 2a
        E 16 b1 0b 19
        E 16 b1 0b 11
        E 16 81 24 00
        E 16 b1 0b 66
        E 0 91 29 66
        E 16 b1 0b 5d
        E 16 b1 0b 55
        E 16 b1 0b 4c
        E 16 81 29 00
        E 0 b1 7b 00
        E 0 ff 2f 00
      >
    >
  >
  <TRACK {329A7C69-7718-410B-AC96-85ACA4B415EA}
    NAME "NES - Triangle [ch2]"
    PEAKCOL 16744192
    BEAT -1
    AUTOMODE 0
    PANLAWFLAGS 3
    VOLPAN 1 0 -1 -1 1
    MUTESOLO 0 0 0
    IPHASE 0
    PLAYOFFS 0 1
    ISBUS 0 0
    BUSCOMP 0 0 0 0 0
    SHOWINMIX 1 0.6667 0.5 1 0.5 0 0 0
    FIXEDLANES 9 0 0 0 0
    SEL 0
    REC 0 5088 1 0 0 0 0 0
    VU 2
    TRACKHEIGHT 0 0 0 0 0 0 0
    INQ 0 0 0 0.5 100 0 0 100
    NCHAN 2
    FX 1
    TRACKID {329A7C69-7718-410B-AC96-85ACA4B415EA}
    PERF 0
    MIDIOUT -1
    MAINSEND 1 0
    <FXCHAIN
      WNDRECT 24 52 700 560
      SHOW 0
      LASTSEL 0
      DOCKED 0
      BYPASS 0 0 0
      <JS "ReapNES Studio/ReapNES_Console.jsfx" ""
        2 15 1 10 80 10 100 2 1 15 1 5 60 10 80 1 1 0 50 0 0 15 1 0 100 0 0 0.500000 0.500000 0.400000 0.300000 0.800000 2 1 0 0 0 0 - - - - - - - - - - - - - - - - - - - - - - - - - -
      >
      FLOATPOS 0 0 0 0
      FXID {1134076C-DD8D-4AA2-83DD-F99AA50EEFFC}
      WAK 0 0
    >
    <ITEM
      POSITION 0
      LENGTH 74.5878716
      LOOP 0
      ALLTAKES 0
      FADEIN 0 0 0 0 0 0 0
      FADEOUT 0 0 0 0 0 0 0
      MUTE 0 0
      SEL 0
      IGUID {215E9101-94AA-4208-B466-B215B331B94F}
      <SOURCE MIDI
        HASDATA 1 480 QN
        CCINTERP 32
        E 0 c2 26
        E 832 b2 0b 7f
        E 0 92 1f 7f
        E 96 82 1f 00
        E 96 b2 0b 7f
        E 0 92 1f 7f
        E 96 82 1f 00
        E 96 b2 0b 7f
        E 0 92 1f 7f
        E 96 82 1f 00
        E 96 b2 0b 7f
        E 0 92 1f 7f
        E 96 82 1f 00
        E 96 b2 0b 7f
        E 0 92 1f 7f
        E 96 82 1f 00
        E 96 b2 0b 7f
        E 0 92 1f 7f
        E 96 82 1f 00
        E 96 b2 0b 7f
        E 0 92 1d 7f
        E 96 82 1d 00
        E 96 b2 0b 7f
        E 0 92 1d 7f
        E 96 82 1d 00
        E 96 b2 0b 7f
        E 0 92 1f 7f
        E 96 82 1f 00
        E 96 b2 0b 7f
        E 0 92 1f 7f
        E 96 82 1f 00
        E 96 b2 0b 7f
        E 0 92 1f 7f
        E 96 82 1f 00
        E 96 b2 0b 7f
        E 0 92 1f 7f
        E 96 82 1f 00
        E 96 b2 0b 7f
        E 0 92 1f 7f
        E 96 82 1f 00
        E 96 b2 0b 7f
        E 0 92 1f 7f
        E 96 82 1f 00
        E 96 b2 0b 7f
        E 0 92 1d 7f
        E 96 82 1d 00
        E 96 b2 0b 7f
        E 0 92 1d 7f
        E 96 82 1d 00
        E 96 b2 0b 7f
        E 0 92 1f 7f
        E 192 82 1f 00
        E 0 b2 0b 7f
        E 0 92 2b 7f
        E 96 82 2b 00
        E 96 b2 0b 7f
        E 0 92 21 7f
        E 192 82 21 00
        E 0 b2 0b 7f
        E 0 92 2d 7f
        E 96 82 2d 00
        E 96 b2 0b 7f
        E 0 92 22 7f
        E 192 82 22 00
        E 0 b2 0b 7f
        E 0 92 2e 7f
        E 96 82 2e 00
        E 96 b2 0b 7f
        E 0 92 24 7f
        E 192 82 24 00
        E 0 b2 0b 7f
        E 0 92 30 7f
        E 96 82 30 00
        E 96 b2 0b 7f
        E 0 92 1f 7f
        E 192 82 1f 00
        E 0 b2 0b 7f
        E 0 92 2b 7f
        E 96 82 2b 00
        E 96 b2 0b 7f
        E 0 92 21 7f
        E 192 82 21 00
        E 0 b2 0b 7f
        E 0 92 2d 7f
        E 96 82 2d 00
        E 96 b2 0b 7f
        E 0 92 22 7f
        E 192 82 22 00
        E 0 b2 0b 7f
        E 0 92 2e 7f
        E 96 82 2e 00
        E 96 b2 0b 7f
        E 0 92 21 7f
        E 192 82 21 00
        E 0 b2 0b 7f
        E 0 92 2d 7f
        E 96 82 2d 00
        E 96 b2 0b 7f
        E 0 92 2b 7f
        E 288 82 2b 00
        E 96 b2 0b 7f
        E 0 92 21 7f
        E 192 82 21 00
        E 0 b2 0b 7f
        E 0 92 2d 7f
        E 96 82 2d 00
        E 96 b2 0b 7f
        E 0 92 22 7f
        E 192 82 22 00
        E 0 b2 0b 7f
        E 0 92 2e 7f
        E 96 82 2e 00
        E 96 b2 0b 7f
        E 0 92 24 7f
        E 192 82 24 00
        E 0 b2 0b 7f
        E 0 92 30 7f
        E 96 82 30 00
        E 96 b2 0b 7f
        E 0 92 1f 7f
        E 192 82 1f 00
        E 0 b2 0b 7f
        E 0 92 2b 7f
        E 96 82 2b 00
        E 96 b2 0b 7f
        E 0 92 21 7f
        E 192 82 21 00
        E 0 b2 0b 7f
        E 0 92 2d 7f
        E 96 82 2d 00
        E 96 b2 0b 7f
        E 0 92 22 7f
        E 192 82 22 00
        E 0 b2 0b 7f
        E 0 92 2e 7f
        E 96 82 2e 00
        E 96 b2 0b 7f
        E 0 92 21 7f
        E 192 82 21 00
        E 0 b2 0b 7f
        E 0 92 2d 7f
        E 96 82 2d 00
        E 96 b2 0b 7f
        E 0 92 2b 7f
        E 288 82 2b 00
        E 96 b2 0b 7f
        E 0 92 21 7f
        E 192 82 21 00
        E 0 b2 0b 7f
        E 0 92 2d 7f
        E 96 82 2d 00
        E 96 b2 0b 7f
        E 0 92 22 7f
        E 192 82 22 00
        E 0 b2 0b 7f
        E 0 92 2e 7f
        E 96 82 2e 00
        E 96 b2 0b 7f
        E 0 92 24 7f
        E 192 82 24 00
        E 0 b2 0b 7f
        E 0 92 30 7f
        E 96 82 30 00
        E 96 b2 0b 7f
        E 0 92 1f 7f
        E 192 82 1f 00
        E 0 b2 0b 7f
        E 0 92 2b 7f
        E 96 82 2b 00
        E 96 b2 0b 7f
        E 0 92 21 7f
        E 192 82 21 00
        E 0 b2 0b 7f
        E 0 92 2d 7f
        E 96 82 2d 00
        E 96 b2 0b 7f
        E 0 92 22 7f
        E 192 82 22 00
        E 0 b2 0b 7f
        E 0 92 2e 7f
        E 96 82 2e 00
        E 96 b2 0b 7f
        E 0 92 21 7f
        E 192 82 21 00
        E 0 b2 0b 7f
        E 0 92 2d 7f
        E 96 82 2d 00
        E 96 b2 0b 7f
        E 0 92 2b 7f
        E 288 82 2b 00
        E 96 b2 0b 7f
        E 0 92 21 7f
        E 192 82 21 00
        E 0 b2 0b 7f
        E 0 92 2d 7f
        E 96 82 2d 00
        E 96 b2 0b 7f
        E 0 92 22 7f
        E 192 82 22 00
        E 0 b2 0b 7f
        E 0 92 2e 7f
        E 96 82 2e 00
        E 96 b2 0b 7f
        E 0 92 24 7f
        E 192 82 24 00
        E 0 b2 0b 7f
        E 0 92 30 7f
        E 96 82 30 00
        E 96 b2 0b 7f
        E 0 92 1f 7f
        E 192 82 1f 00
        E 0 b2 0b 7f
        E 0 92 2b 7f
        E 96 82 2b 00
        E 96 b2 0b 7f
        E 0 92 21 7f
        E 192 82 21 00
        E 0 b2 0b 7f
        E 0 92 2d 7f
        E 96 82 2d 00
        E 96 b2 0b 7f
        E 0 92 22 7f
        E 192 82 22 00
        E 0 b2 0b 7f
        E 0 92 2e 7f
        E 96 82 2e 00
        E 96 b2 0b 7f
        E 0 92 21 7f
        E 192 82 21 00
        E 0 b2 0b 7f
        E 0 92 2d 7f
        E 96 82 2d 00
        E 96 b2 0b 7f
        E 0 92 27 7f
        E 96 82 27 00
        E 96 b2 0b 7f
        E 0 92 27 7f
        E 96 82 27 00
        E 96 b2 0b 7f
        E 0 92 3a 7f
        E 96 82 3a 00
        E 0 b2 0b 7f
        E 0 92 39 7f
        E 96 82 39 00
        E 0 b2 0b 7f
        E 0 92 37 7f
        E 96 82 37 00
        E 0 b2 0b 7f
        E 0 92 36 7f
        E 96 82 36 00
        E 0 b2 0b 7f
        E 0 92 33 7f
        E 96 82 33 00
        E 0 b2 0b 7f
        E 0 92 32 7f
        E 96 82 32 00
        E 0 b2 0b 7f
        E 0 92 30 7f
        E 96 82 30 00
        E 0 b2 0b 7f
        E 0 92 2e 7f
        E 96 82 2e 00
        E 0 b2 0b 7f
        E 0 92 2d 7f
        E 96 82 2d 00
        E 0 b2 0b 7f
        E 0 92 2b 7f
        E 96 82 2b 00
        E 0 b2 0b 7f
        E 0 92 2a 7f
        E 96 82 2a 00
        E 0 b2 0b 7f
        E 0 92 27 7f
        E 96 82 27 00
        E 0 b2 0b 7f
        E 0 92 26 7f
        E 192 82 26 00
        E 192 b2 0b 7f
        E 0 92 2a 7f
        E 96 82 2a 00
        E 96 b2 0b 7f
        E 0 92 2a 7f
        E 96 82 2a 00
        E 96 b2 0b 7f
        E 0 92 2d 7f
        E 96 82 2d 00
        E 96 b2 0b 7f
        E 0 92 2d 7f
        E 96 82 2d 00
        E 96 b2 0b 7f
        E 0 92 32 7f
        E 96 82 32 00
        E 96 b2 0b 7f
        E 0 92 32 7f
        E 96 82 32 00
        E 96 b2 0b 7f
        E 0 92 27 7f
        E 96 82 27 00
        E 96 b2 0b 7f
        E 0 92 27 7f
        E 96 82 27 00
        E 96 b2 0b 7f
        E 0 92 3a 7f
        E 96 82 3a 00
        E 0 b2 0b 7f
        E 0 92 39 7f
        E 96 82 39 00
        E 0 b2 0b 7f
        E 0 92 37 7f
        E 96 82 37 00
        E 0 b2 0b 7f
        E 0 92 36 7f
        E 96 82 36 00
        E 0 b2 0b 7f
        E 0 92 33 7f
        E 96 82 33 00
        E 0 b2 0b 7f
        E 0 92 32 7f
        E 96 82 32 00
        E 0 b2 0b 7f
        E 0 92 30 7f
        E 96 82 30 00
        E 0 b2 0b 7f
        E 0 92 2e 7f
        E 96 82 2e 00
        E 0 b2 0b 7f
        E 0 92 2d 7f
        E 96 82 2d 00
        E 0 b2 0b 7f
        E 0 92 2b 7f
        E 96 82 2b 00
        E 0 b2 0b 7f
        E 0 92 2a 7f
        E 96 82 2a 00
        E 0 b2 0b 7f
        E 0 92 27 7f
        E 96 82 27 00
        E 0 b2 0b 7f
        E 0 92 26 7f
        E 192 82 26 00
        E 384 b2 0b 7f
        E 0 92 3e 7f
        E 96 82 3e 00
        E 0 b2 0b 7f
        E 0 92 3f 7f
        E 96 82 3f 00
        E 0 b2 0b 7f
        E 0 92 3e 7f
        E 96 82 3e 00
        E 0 b2 0b 7f
        E 0 92 3c 7f
        E 96 82 3c 00
        E 0 b2 0b 7f
        E 0 92 3a 7f
        E 96 82 3a 00
        E 0 b2 0b 7f
        E 0 92 39 7f
        E 96 82 39 00
        E 0 b2 0b 7f
        E 0 92 37 7f
        E 96 82 37 00
        E 0 b2 0b 7f
        E 0 92 36 7f
        E 96 82 36 00
        E 0 b2 0b 7f
        E 0 92 33 7f
        E 96 82 33 00
        E 0 b2 0b 7f
        E 0 92 32 7f
        E 96 82 32 00
        E 0 b2 0b 7f
        E 0 92 1f 7f
        E 96 82 1f 00
        E 96 b2 0b 7f
        E 0 92 1f 7f
        E 96 82 1f 00
        E 96 b2 0b 7f
        E 0 92 2b 7f
        E 192 82 2b 00
        E 0 b2 0b 7f
        E 0 92 1f 7f
        E 96 82 1f 00
        E 96 b2 0b 7f
        E 0 92 1f 7f
        E 96 82 1f 00
        E 96 b2 0b 7f
        E 0 92 2b 7f
        E 192 82 2b 00
        E 0 b2 0b 7f
        E 0 92 1f 7f
        E 96 82 1f 00
        E 96 b2 0b 7f
        E 0 92 1f 7f
        E 96 82 1f 00
        E 96 b2 0b 7f
        E 0 92 2b 7f
        E 192 82 2b 00
        E 0 b2 0b 7f
        E 0 92 1f 7f
        E 96 82 1f 00
        E 96 b2 0b 7f
        E 0 92 1f 7f
        E 96 82 1f 00
        E 96 b2 0b 7f
        E 0 92 2b 7f
        E 192 82 2b 00
        E 0 b2 0b 7f
        E 0 92 1f 7f
        E 96 82 1f 00
        E 96 b2 0b 7f
        E 0 92 1f 7f
        E 96 82 1f 00
        E 96 b2 0b 7f
        E 0 92 2b 7f
        E 192 82 2b 00
        E 0 b2 0b 7f
        E 0 92 1f 7f
        E 96 82 1f 00
        E 96 b2 0b 7f
        E 0 92 1a 7f
        E 96 82 1a 00
        E 96 b2 0b 7f
        E 0 92 1a 7f
        E 96 82 1a 00
        E 96 b2 0b 7f
        E 0 92 26 7f
        E 192 82 26 00
        E 0 b2 0b 7f
        E 0 92 1a 7f
        E 96 82 1a 00
        E 96 b2 0b 7f
        E 0 92 1a 7f
        E 96 82 1a 00
        E 96 b2 0b 7f
        E 0 92 26 7f
        E 192 82 26 00
        E 0 b2 0b 7f
        E 0 92 1a 7f
        E 96 82 1a 00
        E 96 b2 0b 7f
        E 0 92 1a 7f
        E 96 82 1a 00
        E 96 b2 0b 7f
        E 0 92 26 7f
        E 192 82 26 00
        E 0 b2 0b 7f
        E 0 92 1a 7f
        E 96 82 1a 00
        E 96 b2 0b 7f
        E 0 92 1a 7f
        E 96 82 1a 00
        E 96 b2 0b 7f
        E 0 92 26 7f
        E 192 82 26 00
        E 0 b2 0b 7f
        E 0 92 1a 7f
        E 96 82 1a 00
        E 96 b2 0b 7f
        E 0 92 1a 7f
        E 96 82 1a 00
        E 96 b2 0b 7f
        E 0 92 26 7f
        E 192 82 26 00
        E 0 b2 0b 7f
        E 0 92 1a 7f
        E 96 82 1a 00
        E 96 b2 0b 7f
        E 0 92 1f 7f
        E 96 82 1f 00
        E 96 b2 0b 7f
        E 0 92 1f 7f
        E 96 82 1f 00
        E 96 b2 0b 7f
        E 0 92 2b 7f
        E 192 82 2b 00
        E 0 b2 0b 7f
        E 0 92 1f 7f
        E 96 82 1f 00
        E 96 b2 0b 7f
        E 0 92 1f 7f
        E 96 82 1f 00
        E 96 b2 0b 7f
        E 0 92 2b 7f
        E 192 82 2b 00
        E 0 b2 0b 7f
        E 0 92 1f 7f
        E 96 82 1f 00
        E 96 b2 0b 7f
        E 0 92 1f 7f
        E 96 82 1f 00
        E 96 b2 0b 7f
        E 0 92 2b 7f
        E 192 82 2b 00
        E 0 b2 0b 7f
        E 0 92 1f 7f
        E 96 82 1f 00
        E 96 b2 0b 7f
        E 0 92 1f 7f
        E 96 82 1f 00
        E 96 b2 0b 7f
        E 0 92 2b 7f
        E 192 82 2b 00
        E 0 b2 0b 7f
        E 0 92 1f 7f
        E 96 82 1f 00
        E 96 b2 0b 7f
        E 0 92 1f 7f
        E 96 82 1f 00
        E 96 b2 0b 7f
        E 0 92 2b 7f
        E 192 82 2b 00
        E 0 b2 0b 7f
        E 0 92 1f 7f
        E 96 82 1f 00
        E 96 b2 0b 7f
        E 0 92 1a 7f
        E 96 82 1a 00
        E 96 b2 0b 7f
        E 0 92 1a 7f
        E 96 82 1a 00
        E 96 b2 0b 7f
        E 0 92 26 7f
        E 192 82 26 00
        E 0 b2 0b 7f
        E 0 92 1a 7f
        E 96 82 1a 00
        E 96 b2 0b 7f
        E 0 92 1a 7f
        E 96 82 1a 00
        E 96 b2 0b 7f
        E 0 92 26 7f
        E 192 82 26 00
        E 0 b2 0b 7f
        E 0 92 1a 7f
        E 96 82 1a 00
        E 96 b2 0b 7f
        E 0 92 1a 7f
        E 96 82 1a 00
        E 96 b2 0b 7f
        E 0 92 26 7f
        E 192 82 26 00
        E 0 b2 0b 7f
        E 0 92 1a 7f
        E 96 82 1a 00
        E 96 b2 0b 7f
        E 0 92 1a 7f
        E 96 82 1a 00
        E 96 b2 0b 7f
        E 0 92 26 7f
        E 192 82 26 00
        E 0 b2 0b 7f
        E 0 92 1a 7f
        E 96 82 1a 00
        E 96 b2 0b 7f
        E 0 92 1a 7f
        E 96 82 1a 00
        E 96 b2 0b 7f
        E 0 92 26 7f
        E 192 82 26 00
        E 0 b2 0b 7f
        E 0 92 1a 7f
        E 96 82 1a 00
        E 96 b2 0b 7f
        E 0 92 1f 7f
        E 384 82 1f 00
        E 0 b2 0b 7f
        E 0 92 26 7f
        E 384 82 26 00
        E 0 b2 0b 7f
        E 0 92 22 7f
        E 384 82 22 00
        E 0 b2 0b 7f
        E 0 92 29 7f
        E 384 82 29 00
        E 0 b2 0b 7f
        E 0 92 22 7f
        E 384 82 22 00
        E 0 b2 0b 7f
        E 0 92 29 7f
        E 384 82 29 00
        E 0 b2 0b 7f
        E 0 92 22 7f
        E 384 82 22 00
        E 0 b2 0b 7f
        E 0 92 24 7f
        E 384 82 24 00
        E 0 b2 0b 7f
        E 0 92 26 7f
        E 96 82 26 00
        E 96 b2 0b 7f
        E 0 92 26 7f
        E 96 82 26 00
        E 96 b2 0b 7f
        E 0 92 26 7f
        E 96 82 26 00
        E 96 b2 0b 7f
        E 0 92 26 7f
        E 96 82 26 00
        E 288 b2 0b 7f
        E 0 92 24 7f
        E 192 82 24 00
        E 192 b2 0b 7f
        E 0 92 24 7f
        E 96 82 24 00
        E 96 b2 0b 7f
        E 0 92 26 7f
        E 96 82 26 00
        E 288 b2 0b 7f
        E 0 92 30 7f
        E 384 82 30 00
        E 0 b2 0b 7f
        E 0 92 37 7f
        E 384 82 37 00
        E 0 b2 0b 7f
        E 0 92 3c 7f
        E 384 82 3c 00
        E 0 b2 0b 7f
        E 0 92 27 7f
        E 96 82 27 00
        E 96 b2 0b 7f
        E 0 92 27 7f
        E 96 82 27 00
        E 96 b2 0b 7f
        E 0 92 27 7f
        E 96 82 27 00
        E 96 b2 0b 7f
        E 0 92 27 7f
        E 96 82 27 00
        E 288 b2 0b 7f
        E 0 92 27 7f
        E 192 82 27 00
        E 192 b2 0b 7f
        E 0 92 27 7f
        E 96 82 27 00
        E 96 b2 0b 7f
        E 0 92 26 7f
        E 96 82 26 00
        E 288 b2 0b 7f
        E 0 92 26 7f
        E 384 82 26 00
        E 0 b2 0b 7f
        E 0 92 28 7f
        E 384 82 28 00
        E 0 b2 0b 7f
        E 0 92 2a 7f
        E 384 82 2a 00
        E 0 b2 0b 7f
        E 0 92 2b 7f
        E 288 82 2b 00
        E 96 b2 0b 7f
        E 0 92 21 7f
        E 192 82 21 00
        E 0 b2 0b 7f
        E 0 92 2d 7f
        E 96 82 2d 00
        E 96 b2 0b 7f
        E 0 92 22 7f
        E 192 82 22 00
        E 0 b2 0b 7f
        E 0 92 2e 7f
        E 96 82 2e 00
        E 96 b2 0b 7f
        E 0 92 24 7f
        E 192 82 24 00
        E 0 b2 0b 7f
        E 0 92 30 7f
        E 96 82 30 00
        E 96 b2 0b 7f
        E 0 92 1f 7f
        E 192 82 1f 00
        E 0 b2 0b 7f
        E 0 92 2b 7f
        E 96 82 2b 00
        E 96 b2 0b 7f
        E 0 92 21 7f
        E 192 82 21 00
        E 0 b2 0b 7f
        E 0 92 2d 7f
        E 96 82 2d 00
        E 96 b2 0b 7f
        E 0 92 22 7f
        E 192 82 22 00
        E 0 b2 0b 7f
        E 0 92 2e 7f
        E 96 82 2e 00
        E 96 b2 0b 7f
        E 0 92 21 7f
        E 192 82 21 00
        E 0 b2 0b 7f
        E 0 92 2d 7f
        E 96 82 2d 00
        E 96 b2 0b 7f
        E 0 92 2b 7f
        E 288 82 2b 00
        E 96 b2 0b 7f
        E 0 92 21 7f
        E 192 82 21 00
        E 0 b2 0b 7f
        E 0 92 2d 7f
        E 96 82 2d 00
        E 96 b2 0b 7f
        E 0 92 22 7f
        E 192 82 22 00
        E 0 b2 0b 7f
        E 0 92 2e 7f
        E 96 82 2e 00
        E 96 b2 0b 7f
        E 0 92 24 7f
        E 192 82 24 00
        E 0 b2 0b 7f
        E 0 92 30 7f
        E 96 82 30 00
        E 96 b2 0b 7f
        E 0 92 1f 7f
        E 192 82 1f 00
        E 0 b2 0b 7f
        E 0 92 2b 7f
        E 96 82 2b 00
        E 96 b2 0b 7f
        E 0 92 21 7f
        E 192 82 21 00
        E 0 b2 0b 7f
        E 0 92 2d 7f
        E 96 82 2d 00
        E 96 b2 0b 7f
        E 0 92 22 7f
        E 192 82 22 00
        E 0 b2 0b 7f
        E 0 92 2e 7f
        E 96 82 2e 00
        E 96 b2 0b 7f
        E 0 92 21 7f
        E 192 82 21 00
        E 0 b2 0b 7f
        E 0 92 2d 7f
        E 96 82 2d 00
        E 96 b2 0b 7f
        E 0 92 2b 7f
        E 288 82 2b 00
        E 96 b2 0b 7f
        E 0 92 21 7f
        E 192 82 21 00
        E 0 b2 0b 7f
        E 0 92 2d 7f
        E 96 82 2d 00
        E 96 b2 0b 7f
        E 0 92 22 7f
        E 192 82 22 00
        E 0 b2 0b 7f
        E 0 92 2e 7f
        E 96 82 2e 00
        E 96 b2 0b 7f
        E 0 92 24 7f
        E 192 82 24 00
        E 0 b2 0b 7f
        E 0 92 30 7f
        E 96 82 30 00
        E 96 b2 0b 7f
        E 0 92 1f 7f
        E 192 82 1f 00
        E 0 b2 0b 7f
        E 0 92 2b 7f
        E 96 82 2b 00
        E 96 b2 0b 7f
        E 0 92 21 7f
        E 192 82 21 00
        E 0 b2 0b 7f
        E 0 92 2d 7f
        E 96 82 2d 00
        E 96 b2 0b 7f
        E 0 92 22 7f
        E 192 82 22 00
        E 0 b2 0b 7f
        E 0 92 2e 7f
        E 96 82 2e 00
        E 96 b2 0b 7f
        E 0 92 21 7f
        E 192 82 21 00
        E 0 b2 0b 7f
        E 0 92 2d 7f
        E 96 82 2d 00
        E 96 b2 0b 7f
        E 0 92 2b 7f
        E 288 82 2b 00
        E 96 b2 0b 7f
        E 0 92 21 7f
        E 192 82 21 00
        E 0 b2 0b 7f
        E 0 92 2d 7f
        E 96 82 2d 00
        E 96 b2 0b 7f
        E 0 92 22 7f
        E 192 82 22 00
        E 0 b2 0b 7f
        E 0 92 2e 7f
        E 96 82 2e 00
        E 96 b2 0b 7f
        E 0 92 24 7f
        E 192 82 24 00
        E 0 b2 0b 7f
        E 0 92 30 7f
        E 96 82 30 00
        E 96 b2 0b 7f
        E 0 92 1f 7f
        E 192 82 1f 00
        E 0 b2 0b 7f
        E 0 92 2b 7f
        E 96 82 2b 00
        E 96 b2 0b 7f
        E 0 92 21 7f
        E 192 82 21 00
        E 0 b2 0b 7f
        E 0 92 2d 7f
        E 96 82 2d 00
        E 96 b2 0b 7f
        E 0 92 22 7f
        E 192 82 22 00
        E 0 b2 0b 7f
        E 0 92 2e 7f
        E 96 82 2e 00
        E 96 b2 0b 7f
        E 0 92 21 7f
        E 192 82 21 00
        E 0 b2 0b 7f
        E 0 92 2d 7f
        E 96 82 2d 00
        E 96 b2 0b 7f
        E 0 92 27 7f
        E 96 82 27 00
        E 96 b2 0b 7f
        E 0 92 27 7f
        E 96 82 27 00
        E 96 b2 0b 7f
        E 0 92 3a 7f
        E 96 82 3a 00
        E 0 b2 0b 7f
        E 0 92 39 7f
        E 96 82 39 00
        E 0 b2 0b 7f
        E 0 92 37 7f
        E 96 82 37 00
        E 0 b2 0b 7f
        E 0 92 36 7f
        E 96 82 36 00
        E 0 b2 0b 7f
        E 0 92 33 7f
        E 96 82 33 00
        E 0 b2 0b 7f
        E 0 92 32 7f
        E 96 82 32 00
        E 0 b2 0b 7f
        E 0 92 30 7f
        E 96 82 30 00
        E 0 b2 0b 7f
        E 0 92 2e 7f
        E 96 82 2e 00
        E 0 b2 0b 7f
        E 0 92 2d 7f
        E 96 82 2d 00
        E 0 b2 0b 7f
        E 0 92 2b 7f
        E 96 82 2b 00
        E 0 b2 0b 7f
        E 0 92 2a 7f
        E 96 82 2a 00
        E 0 b2 0b 7f
        E 0 92 27 7f
        E 96 82 27 00
        E 0 b2 0b 7f
        E 0 92 26 7f
        E 192 82 26 00
        E 192 b2 0b 7f
        E 0 92 2a 7f
        E 96 82 2a 00
        E 96 b2 0b 7f
        E 0 92 2a 7f
        E 96 82 2a 00
        E 96 b2 0b 7f
        E 0 92 2d 7f
        E 96 82 2d 00
        E 96 b2 0b 7f
        E 0 92 2d 7f
        E 96 82 2d 00
        E 96 b2 0b 7f
        E 0 92 32 7f
        E 96 82 32 00
        E 96 b2 0b 7f
        E 0 92 32 7f
        E 96 82 32 00
        E 96 b2 0b 7f
        E 0 92 27 7f
        E 96 82 27 00
        E 96 b2 0b 7f
        E 0 92 27 7f
        E 96 82 27 00
        E 96 b2 0b 7f
        E 0 92 3a 7f
        E 96 82 3a 00
        E 0 b2 0b 7f
        E 0 92 39 7f
        E 96 82 39 00
        E 0 b2 0b 7f
        E 0 92 37 7f
        E 96 82 37 00
        E 0 b2 0b 7f
        E 0 92 36 7f
        E 96 82 36 00
        E 0 b2 0b 7f
        E 0 92 33 7f
        E 96 82 33 00
        E 0 b2 0b 7f
        E 0 92 32 7f
        E 96 82 32 00
        E 0 b2 0b 7f
        E 0 92 30 7f
        E 96 82 30 00
        E 0 b2 0b 7f
        E 0 92 2e 7f
        E 96 82 2e 00
        E 0 b2 0b 7f
        E 0 92 2d 7f
        E 96 82 2d 00
        E 0 b2 0b 7f
        E 0 92 2b 7f
        E 96 82 2b 00
        E 0 b2 0b 7f
        E 0 92 2a 7f
        E 96 82 2a 00
        E 0 b2 0b 7f
        E 0 92 27 7f
        E 96 82 27 00
        E 0 b2 0b 7f
        E 0 92 26 7f
        E 192 82 26 00
        E 384 b2 0b 7f
        E 0 92 3e 7f
        E 96 82 3e 00
        E 0 b2 0b 7f
        E 0 92 3f 7f
        E 96 82 3f 00
        E 0 b2 0b 7f
        E 0 92 3e 7f
        E 96 82 3e 00
        E 0 b2 0b 7f
        E 0 92 3c 7f
        E 96 82 3c 00
        E 0 b2 0b 7f
        E 0 92 3a 7f
        E 96 82 3a 00
        E 0 b2 0b 7f
        E 0 92 39 7f
        E 96 82 39 00
        E 0 b2 0b 7f
        E 0 92 37 7f
        E 96 82 37 00
        E 0 b2 0b 7f
        E 0 92 36 7f
        E 96 82 36 00
        E 0 b2 0b 7f
        E 0 92 33 7f
        E 96 82 33 00
        E 0 b2 0b 7f
        E 0 92 32 7f
        E 96 82 32 00
        E 0 b2 0b 7f
        E 0 92 1f 7f
        E 96 82 1f 00
        E 96 b2 0b 7f
        E 0 92 1f 7f
        E 96 82 1f 00
        E 96 b2 0b 7f
        E 0 92 2b 7f
        E 192 82 2b 00
        E 0 b2 0b 7f
        E 0 92 1f 7f
        E 96 82 1f 00
        E 96 b2 0b 7f
        E 0 92 1f 7f
        E 96 82 1f 00
        E 96 b2 0b 7f
        E 0 92 2b 7f
        E 192 82 2b 00
        E 0 b2 0b 7f
        E 0 92 1f 7f
        E 96 82 1f 00
        E 96 b2 0b 7f
        E 0 92 1f 7f
        E 96 82 1f 00
        E 96 b2 0b 7f
        E 0 92 2b 7f
        E 192 82 2b 00
        E 0 b2 0b 7f
        E 0 92 1f 7f
        E 96 82 1f 00
        E 96 b2 0b 7f
        E 0 92 1f 7f
        E 96 82 1f 00
        E 96 b2 0b 7f
        E 0 92 2b 7f
        E 192 82 2b 00
        E 0 b2 0b 7f
        E 0 92 1f 7f
        E 96 82 1f 00
        E 96 b2 0b 7f
        E 0 92 1f 7f
        E 96 82 1f 00
        E 96 b2 0b 7f
        E 0 92 2b 7f
        E 192 82 2b 00
        E 0 b2 0b 7f
        E 0 92 1f 7f
        E 96 82 1f 00
        E 96 b2 0b 7f
        E 0 92 1a 7f
        E 96 82 1a 00
        E 96 b2 0b 7f
        E 0 92 1a 7f
        E 96 82 1a 00
        E 96 b2 0b 7f
        E 0 92 26 7f
        E 192 82 26 00
        E 0 b2 0b 7f
        E 0 92 1a 7f
        E 96 82 1a 00
        E 96 b2 0b 7f
        E 0 92 1a 7f
        E 96 82 1a 00
        E 96 b2 0b 7f
        E 0 92 26 7f
        E 192 82 26 00
        E 0 b2 0b 7f
        E 0 92 1a 7f
        E 96 82 1a 00
        E 96 b2 0b 7f
        E 0 92 1a 7f
        E 96 82 1a 00
        E 96 b2 0b 7f
        E 0 92 26 7f
        E 192 82 26 00
        E 0 b2 0b 7f
        E 0 92 1a 7f
        E 96 82 1a 00
        E 96 b2 0b 7f
        E 0 92 1a 7f
        E 96 82 1a 00
        E 96 b2 0b 7f
        E 0 92 26 7f
        E 192 82 26 00
        E 0 b2 0b 7f
        E 0 92 1a 7f
        E 96 82 1a 00
        E 96 b2 0b 7f
        E 0 92 1a 7f
        E 96 82 1a 00
        E 96 b2 0b 7f
        E 0 92 26 7f
        E 192 82 26 00
        E 0 b2 0b 7f
        E 0 92 1a 7f
        E 96 82 1a 00
        E 96 b2 0b 7f
        E 0 92 1f 7f
        E 96 82 1f 00
        E 96 b2 0b 7f
        E 0 92 1f 7f
        E 96 82 1f 00
        E 96 b2 0b 7f
        E 0 92 2b 7f
        E 192 82 2b 00
        E 0 b2 0b 7f
        E 0 92 1f 7f
        E 96 82 1f 00
        E 96 b2 0b 7f
        E 0 92 1f 7f
        E 96 82 1f 00
        E 96 b2 0b 7f
        E 0 92 2b 7f
        E 192 82 2b 00
        E 0 b2 0b 7f
        E 0 92 1f 7f
        E 96 82 1f 00
        E 96 b2 0b 7f
        E 0 92 1f 7f
        E 96 82 1f 00
        E 96 b2 0b 7f
        E 0 92 2b 7f
        E 192 82 2b 00
        E 0 b2 0b 7f
        E 0 92 1f 7f
        E 96 82 1f 00
        E 96 b2 0b 7f
        E 0 92 1f 7f
        E 96 82 1f 00
        E 96 b2 0b 7f
        E 0 92 2b 7f
        E 192 82 2b 00
        E 0 b2 0b 7f
        E 0 92 1f 7f
        E 96 82 1f 00
        E 96 b2 0b 7f
        E 0 92 1f 7f
        E 96 82 1f 00
        E 96 b2 0b 7f
        E 0 92 2b 7f
        E 192 82 2b 00
        E 0 b2 0b 7f
        E 0 92 1f 7f
        E 96 82 1f 00
        E 96 b2 0b 7f
        E 0 92 1a 7f
        E 96 82 1a 00
        E 96 b2 0b 7f
        E 0 92 1a 7f
        E 96 82 1a 00
        E 96 b2 0b 7f
        E 0 92 26 7f
        E 192 82 26 00
        E 0 b2 0b 7f
        E 0 92 1a 7f
        E 96 82 1a 00
        E 96 b2 0b 7f
        E 0 92 1a 7f
        E 96 82 1a 00
        E 96 b2 0b 7f
        E 0 92 26 7f
        E 192 82 26 00
        E 0 b2 0b 7f
        E 0 92 1a 7f
        E 96 82 1a 00
        E 96 b2 0b 7f
        E 0 92 1a 7f
        E 96 82 1a 00
        E 96 b2 0b 7f
        E 0 92 26 7f
        E 192 82 26 00
        E 0 b2 0b 7f
        E 0 92 1a 7f
        E 96 82 1a 00
        E 96 b2 0b 7f
        E 0 92 1a 7f
        E 96 82 1a 00
        E 96 b2 0b 7f
        E 0 92 26 7f
        E 192 82 26 00
        E 0 b2 0b 7f
        E 0 92 1a 7f
        E 96 82 1a 00
        E 96 b2 0b 7f
        E 0 92 1a 7f
        E 96 82 1a 00
        E 96 b2 0b 7f
        E 0 92 26 7f
        E 192 82 26 00
        E 0 b2 0b 7f
        E 0 92 1a 7f
        E 96 82 1a 00
        E 96 b2 0b 7f
        E 0 92 1f 7f
        E 384 82 1f 00
        E 0 b2 0b 7f
        E 0 92 26 7f
        E 384 82 26 00
        E 0 b2 0b 7f
        E 0 92 22 7f
        E 384 82 22 00
        E 0 b2 0b 7f
        E 0 92 29 7f
        E 384 82 29 00
        E 0 b2 0b 7f
        E 0 92 22 7f
        E 384 82 22 00
        E 0 b2 0b 7f
        E 0 92 29 7f
        E 256 82 29 00
        E 0 b2 7b 00
        E 0 ff 2f 00
      >
    >
  >
  <TRACK {0293B140-6859-4280-A3B0-53F1AA22D253}
    NAME "NES - Noise / Drums"
    PEAKCOL 11184810
    BEAT -1
    AUTOMODE 0
    PANLAWFLAGS 3
    VOLPAN 1 0 -1 -1 1
    MUTESOLO 0 0 0
    IPHASE 0
    PLAYOFFS 0 1
    ISBUS 0 0
    BUSCOMP 0 0 0 0 0
    SHOWINMIX 1 0.6667 0.5 1 0.5 0 0 0
    FIXEDLANES 9 0 0 0 0
    SEL 0
    REC 0 5088 1 0 0 0 0 0
    VU 2
    TRACKHEIGHT 0 0 0 0 0 0 0
    INQ 0 0 0 0.5 100 0 0 100
    NCHAN 2
    FX 1
    TRACKID {0293B140-6859-4280-A3B0-53F1AA22D253}
    PERF 0
    MIDIOUT -1
    MAINSEND 1 0
    <FXCHAIN
      WNDRECT 24 52 700 560
      SHOW 0
      LASTSEL 0
      DOCKED 0
      BYPASS 0 0 0
      <JS "ReapNES Studio/ReapNES_Console.jsfx" ""
        2 15 1 10 80 10 100 2 1 15 1 5 60 10 80 1 1 0 50 0 0 15 1 0 100 0 0 0.500000 0.500000 0.400000 0.300000 0.800000 3 1 0 0 0 0 - - - - - - - - - - - - - - - - - - - - - - - - - -
      >
      FLOATPOS 0 0 0 0
      FXID {FB44B61B-B31D-4107-8FF8-D021071D01A8}
      WAK 0 0
    >
  >
>