<REAPER_PROJECT 0.1 "7.27/win64" 1707000000
  <NOTES 0 2
    |ReapNES Studio Project
    |MIDI Import - Final_Fantasy_song_48_rom_v1
  >
  RIPPLE 0
  GROUPOVERRIDE 0 0 0
  AUTOXFADE 129
  ENVATTACH 3
  POOLEDENVATTACH 0
  MIXERUIFLAGS 11 48
  ENVFADESZ10 40
  PEAKGAIN 1
  FEEDBACK 0
  PANLAW 1
  PROJOFFS 0 0 0
  MAXPROJLEN 0 0
  GRID 3199 8 1 8 1 0 0 0
  TIMEMODE 1 5 -1 30 0 0 -1
  VIDEO_CONFIG 0 0 65792
  PANMODE 3
  PANLAWFLAGS 3
  CURSOR 0
  ZOOM 100 0 0
  VZOOMEX 6 0
  USE_REC_CFG 0
  RECMODE 1
  SMPTESYNC 0 30 100 40 1000 300 0 0 1 0 0
  LOOP 0
  LOOPGRAN 0 4
  RECORD_PATH "Media" ""
  <RECORD_CFG
    ZXZhdxgAAQ==
  >
  <APPLYFX_CFG
  >
  RENDER_FILE ""
  RENDER_PATTERN ""
  RENDER_FMT 0 2 0
  RENDER_1X 0
  RENDER_RANGE 1 0 0 18 1000
  RENDER_RESAMPLE 3 0 1
  RENDER_ADDTOPROJ 0
  RENDER_STEMS 0
  RENDER_DITHER 0
  TIMELOCKMODE 1
  TEMPOENVLOCKMODE 1
  ITEMMIX 1
  DEFPITCHMODE 589824 0
  TAKELANE 1
  SAMPLERATE 44100 0 0
  <RENDER_CFG
    ZXZhdxgAAQ==
  >
  LOCK 1
  <METRONOME 6 2
    VOL 0.25 0.125
    BEATLEN 4
    FREQ 1760 880 1
    SAMPLES "" ""
    SPLIGNORE 0 0
    SPLDEF 2 660 "" 0
    SPLDEF 3 440 "" 0
    PATTERN 0 169
    PATTERNSTR ABBB
    MULT 1
  >
  GLOBAL_AUTO -1
  TEMPO 128.59999614200012 4 4
  PLAYRATE 1 0 0.25 4
  SELECTION 0 0
  SELECTION2 0 0
  MASTERAUTOMODE 0
  MASTERTRACKHEIGHT 0 0
  MASTERPEAKCOL 16576
  MASTERMUTESOLO 0
  MASTERTRACKVIEW 0 0.6667 0.5 0.5 0 0 0 0 0 0 0 0 0 0
  MASTERHWOUT 0 0 1 0 0 0 0 -1
  MASTER_NCH 2 2
  MASTER_VOLUME 1 0 -1 -1 1
  MASTER_PANMODE 3
  MASTER_PANLAWFLAGS 3
  MASTER_FX 1
  MASTER_SEL 0
  <MASTERPLAYSPEEDENV
    EGUID {6CEE2079-4845-40F2-9953-CDCBEAC7E97D}
    ACT 0 -1
    VIS 0 1 1
    LANEHEIGHT 0 0
    ARM 0
    DEFSHAPE 0 -1 -1
  >
  <TEMPOENVEX
    EGUID {78DE8B6A-F74D-4381-9E11-94AEA2E152A3}
    ACT 1 -1
    VIS 1 0 1
    LANEHEIGHT 0 0
    ARM 0
    DEFSHAPE 1 -1 -1
  >
  <PROJBAY
  >
  <TRACK {D1602E26-94C0-4723-8D34-E13572513E23}
    NAME "NES - Pulse 1 [ch0]"
    PEAKCOL 16576606
    BEAT -1
    AUTOMODE 0
    PANLAWFLAGS 3
    VOLPAN 1 0 -1 -1 1
    MUTESOLO 0 0 0
    IPHASE 0
    PLAYOFFS 0 1
    ISBUS 0 0
    BUSCOMP 0 0 0 0 0
    SHOWINMIX 1 0.6667 0.5 1 0.5 0 0 0
    FIXEDLANES 9 0 0 0 0
    SEL 1
    REC 1 5088 1 0 0 0 0 0
    VU 2
    TRACKHEIGHT 0 0 0 0 0 0 0
    INQ 0 0 0 0.5 100 0 0 100
    NCHAN 2
    FX 1
    TRACKID {D1602E26-94C0-4723-8D34-E13572513E23}
    PERF 0
    MIDIOUT -1
    MAINSEND 1 0
    <FXCHAIN
      WNDRECT 24 52 700 560
      SHOW 0
      LASTSEL 0
      DOCKED 0
      BYPASS 0 0 0
      <JS "ReapNES Studio/ReapNES_Console.jsfx" ""
        2 15 1 10 80 10 100 2 1 15 1 5 60 10 80 1 1 0 50 0 0 15 1 0 100 0 0 0.500000 0.500000 0.400000 0.300000 0.800000 0 1 0 0 0 0 - - - - - - - - - - - - - - - - - - - - - - - - - -
      >
      FLOATPOS 0 0 0 0
      FXID {FB6F1E22-75A9-4931-82BF-28749F972410}
      WAK 0 0
    >
    <ITEM
      POSITION 0
      LENGTH 74.5878716
      LOOP 0
      ALLTAKES 0
      FADEIN 0 0 0 0 0 0 0
      FADEOUT 0 0 0 0 0 0 0
      MUTE 0 0
      SEL 0
      IGUID {FD24BF37-A695-4DD9-8CFC-CF5F4B7CFD6F}
      <SOURCE MIDI
        HASDATA 1 480 QN
        CCINTERP 32
        E 0 c0 50
        E 0 b0 0c 20
        E 0 b0 0b 77
        E 0 90 2e 77
        E 16 80 2e 00
        E 48 b0 0b 66
        E 0 90 42 66
        E 16 b0 0b 5d
        E 16 b0 0b 55
        E 16 b0 0b 4c
        E 16 b0 0b 44
        E 16 b0 0b 3b
        E 16 b0 0b 33
        E 16 b0 0b 2a
        E 16 b0 0b 22
        E 16 b0 0b 2a
        E 16 b0 0b 33
        E 16 b0 0b 3b
        E 16 b0 0b 44
        E 16 b0 0b 3b
        E 16 b0 0b 33
        E 16 b0 0b 2a
        E 16 b0 0b 22
        E 16 b0 0b 2a
        E 16 b0 0b 33
        E 16 b0 0b 3b
        E 16 b0 0b 44
        E 16 b0 0b 3b
        E 16 b0 0b 33
        E 16 b0 0b 2a
        E 16 b0 0b 22
        E 16 b0 0b 2a
        E 16 b0 0b 33
        E 16 b0 0b 3b
        E 16 b0 0b 44
        E 16 b0 0b 4c
        E 16 b0 0b 55
        E 16 b0 0b 5d
        E 368 b0 0b 66
        E 16 b0 0b 5d
        E 16 b0 0b 55
        E 16 b0 0b 4c
        E 16 b0 0b 44
        E 16 b0 0b 3b
        E 16 b0 0b 33
        E 16 b0 0b 2a
        E 16 b0 0b 22
        E 16 b0 0b 2a
        E 16 b0 0b 33
        E 16 b0 0b 3b
        E 16 b0 0b 44
        E 16 b0 0b 3b
        E 16 b0 0b 33
        E 16 b0 0b 2a
        E 16 b0 0b 22
        E 16 b0 0b 2a
        E 16 b0 0b 66
        E 0 80 42 00
        E 0 90 43 66
        E 16 b0 0b 5d
        E 16 b0 0b 55
        E 16 b0 0b 4c
        E 16 b0 0b 44
        E 16 b0 0b 3b
        E 16 b0 0b 33
        E 16 b0 0b 2a
        E 16 b0 0b 22
        E 16 b0 0b 2a
        E 16 b0 0b 33
        E 16 b0 0b 3b
        E 16 b0 0b 44
        E 16 b0 0b 3b
        E 16 b0 0b 33
        E 16 b0 0b 2a
        E 16 b0 0b 22
        E 16 b0 0b 2a
        E 16 b0 0b 66
        E 0 80 43 00
        E 0 90 42 66
        E 16 b0 0b 5d
        E 16 b0 0b 55
        E 16 b0 0b 4c
        E 16 b0 0b 44
        E 16 b0 0b 3b
        E 16 b0 0b 33
        E 16 b0 0b 2a
        E 16 b0 0b 22
        E 16 b0 0b 2a
        E 16 b0 0b 33
        E 16 b0 0b 3b
        E 16 b0 0b 44
        E 16 b0 0b 3b
        E 16 b0 0b 33
        E 16 b0 0b 2a
        E 16 b0 0b 22
        E 16 b0 0b 2a
        E 16 b0 0b 66
        E 0 80 42 00
        E 0 90 40 66
        E 16 b0 0b 5d
        E 16 b0 0b 55
        E 16 b0 0b 4c
        E 16 b0 0b 44
        E 16 b0 0b 3b
        E 16 b0 0b 33
        E 16 b0 0b 2a
        E 16 b0 0b 22
        E 16 b0 0b 2a
        E 16 b0 0b 33
        E 16 b0 0b 3b
        E 16 b0 0b 44
        E 16 b0 0b 3b
        E 16 b0 0b 33
        E 16 b0 0b 2a
        E 16 b0 0b 22
        E 16 b0 0b 2a
        E 16 b0 0b 66
        E 0 80 40 00
        E 0 90 3e 66
        E 16 b0 0b 5d
        E 16 b0 0b 55
        E 16 b0 0b 4c
        E 16 b0 0b 44
        E 16 b0 0b 3b
        E 16 b0 0b 33
        E 16 b0 0b 2a
        E 16 b0 0b 22
        E 16 b0 0b 2a
        E 16 b0 0b 33
        E 16 b0 0b 3b
        E 16 b0 0b 44
        E 16 b0 0b 3b
        E 16 b0 0b 33
        E 16 b0 0b 2a
        E 16 b0 0b 22
        E 16 b0 0b 2a
        E 16 b0 0b 66
        E 0 80 3e 00
        E 0 90 40 66
        E 16 b0 0b 5d
        E 16 b0 0b 55
        E 16 b0 0b 4c
        E 16 b0 0b 44
        E 16 b0 0b 3b
        E 16 b0 0b 33
        E 16 b0 0b 2a
        E 16 b0 0b 22
        E 16 b0 0b 2a
        E 16 b0 0b 33
        E 16 b0 0b 3b
        E 16 b0 0b 44
        E 16 b0 0b 3b
        E 16 b0 0b 33
        E 16 b0 0b 2a
        E 16 b0 0b 22
        E 16 b0 0b 2a
        E 16 b0 0b 33
        E 16 b0 0b 3b
        E 16 b0 0b 44
        E 16 b0 0b 3b
        E 16 b0 0b 33
        E 16 b0 0b 2a
        E 16 b0 0b 22
        E 16 b0 0b 2a
        E 16 b0 0b 33
        E 16 b0 0b 3b
        E 16 b0 0b 44
        E 16 b0 0b 4c
        E 16 b0 0b 55
        E 16 b0 0b 5d
        E 80 b0 0b 66
        E 0 80 40 00
        E 0 90 39 66
        E 16 b0 0b 5d
        E 16 b0 0b 55
        E 16 b0 0b 4c
        E 16 b0 0b 44
        E 16 b0 0b 3b
        E 16 b0 0b 33
        E 16 b0 0b 2a
        E 16 b0 0b 22
        E 16 b0 0b 2a
        E 16 b0 0b 33
        E 16 b0 0b 3b
        E 16 b0 0b 44
        E 16 b0 0b 3b
        E 16 b0 0b 33
        E 16 b0 0b 2a
        E 16 b0 0b 22
        E 16 b0 0b 2a
        E 16 b0 0b 33
        E 16 b0 0b 3b
        E 16 b0 0b 44
        E 16 b0 0b 3b
        E 16 b0 0b 33
        E 16 b0 0b 2a
        E 16 b0 0b 22
        E 16 b0 0b 2a
        E 16 b0 0b 33
        E 16 b0 0b 3b
        E 16 b0 0b 44
        E 16 b0 0b 4c
        E 16 b0 0b 55
        E 16 b0 0b 5d
        E 1232 b0 0b 66
        E 0 80 39 00
        E 0 90 3e 66
        E 16 b0 0b 5d
        E 16 b0 0b 55
        E 16 b0 0b 4c
        E 16 b0 0b 44
        E 16 b0 0b 3b
        E 16 b0 0b 33
        E 16 b0 0b 2a
        E 16 b0 0b 22
        E 16 b0 0b 2a
        E 16 b0 0b 33
        E 16 b0 0b 3b
        E 16 b0 0b 44
        E 16 b0 0b 3b
        E 16 b0 0b 33
        E 16 b0 0b 2a
        E 16 b0 0b 22
        E 16 b0 0b 2a
        E 16 b0 0b 33
        E 16 b0 0b 3b
        E 16 b0 0b 44
        E 16 b0 0b 3b
        E 16 b0 0b 33
        E 16 b0 0b 2a
        E 16 b0 0b 22
        E 16 b0 0b 2a
        E 16 b0 0b 33
        E 16 b0 0b 3b
        E 16 b0 0b 44
        E 16 b0 0b 4c
        E 16 b0 0b 55
        E 16 b0 0b 5d
        E 368 b0 0b 66
        E 16 b0 0b 5d
        E 16 b0 0b 55
        E 16 b0 0b 4c
        E 16 b0 0b 44
        E 16 b0 0b 3b
        E 16 b0 0b 33
        E 16 b0 0b 2a
        E 16 b0 0b 22
        E 16 b0 0b 2a
        E 16 b0 0b 33
        E 16 b0 0b 3b
        E 16 b0 0b 44
        E 16 b0 0b 3b
        E 16 b0 0b 33
        E 16 b0 0b 2a
        E 16 b0 0b 22
        E 16 b0 0b 2a
        E 16 b0 0b 66
        E 0 80 3e 00
        E 0 90 40 66
        E 16 b0 0b 5d
        E 16 b0 0b 55
        E 16 b0 0b 4c
        E 16 b0 0b 44
        E 16 b0 0b 3b
        E 16 b0 0b 33
        E 16 b0 0b 2a
        E 16 b0 0b 22
        E 16 b0 0b 2a
        E 16 b0 0b 33
        E 16 b0 0b 3b
        E 16 b0 0b 44
        E 16 b0 0b 3b
        E 16 b0 0b 33
        E 16 b0 0b 2a
        E 16 b0 0b 22
        E 16 b0 0b 2a
        E 16 b0 0b 66
        E 0 80 40 00
        E 0 90 3e 66
        E 16 b0 0b 5d
        E 16 b0 0b 55
        E 16 b0 0b 4c
        E 16 b0 0b 44
        E 16 b0 0b 3b
        E 16 b0 0b 33
        E 16 b0 0b 2a
        E 16 b0 0b 22
        E 16 b0 0b 2a
        E 16 b0 0b 33
        E 16 b0 0b 3b
        E 16 b0 0b 44
        E 16 b0 0b 3b
        E 16 b0 0b 33
        E 16 b0 0b 2a
        E 16 b0 0b 22
        E 16 b0 0b 2a
        E 16 b0 0b 66
        E 0 80 3e 00
        E 0 90 3d 66
        E 16 b0 0b 5d
        E 16 b0 0b 55
        E 16 b0 0b 4c
        E 16 b0 0b 44
        E 16 b0 0b 3b
        E 16 b0 0b 33
        E 16 b0 0b 2a
        E 16 b0 0b 22
        E 16 b0 0b 2a
        E 16 b0 0b 33
        E 16 b0 0b 3b
        E 16 b0 0b 44
        E 16 b0 0b 3b
        E 16 b0 0b 33
        E 16 b0 0b 2a
        E 16 b0 0b 22
        E 16 b0 0b 2a
        E 16 b0 0b 66
        E 0 80 3d 00
        E 0 90 3b 66
        E 16 b0 0b 5d
        E 16 b0 0b 55
        E 16 b0 0b 4c
        E 16 b0 0b 44
        E 16 b0 0b 3b
        E 16 b0 0b 33
        E 16 b0 0b 2a
        E 16 b0 0b 22
        E 16 b0 0b 2a
        E 16 b0 0b 33
        E 16 b0 0b 3b
        E 16 b0 0b 44
        E 16 b0 0b 3b
        E 16 b0 0b 33
        E 16 b0 0b 2a
        E 16 b0 0b 22
        E 16 b0 0b 2a
        E 16 b0 0b 66
        E 0 80 3b 00
        E 0 90 3d 66
        E 16 b0 0b 5d
        E 16 b0 0b 55
        E 16 b0 0b 4c
        E 16 b0 0b 44
        E 16 b0 0b 3b
        E 16 b0 0b 33
        E 16 b0 0b 2a
        E 16 b0 0b 22
        E 16 b0 0b 2a
        E 16 b0 0b 33
        E 16 b0 0b 3b
        E 16 b0 0b 44
        E 16 b0 0b 3b
        E 16 b0 0b 33
        E 16 b0 0b 2a
        E 16 b0 0b 22
        E 16 b0 0b 2a
        E 16 b0 0b 33
        E 16 b0 0b 3b
        E 16 b0 0b 44
        E 16 b0 0b 3b
        E 16 b0 0b 33
        E 16 b0 0b 2a
        E 16 b0 0b 22
        E 16 b0 0b 2a
        E 16 b0 0b 33
        E 16 b0 0b 3b
        E 16 b0 0b 44
        E 16 b0 0b 4c
        E 16 b0 0b 55
        E 16 b0 0b 5d
        E 80 b0 0b 66
        E 0 80 3d 00
        E 0 90 36 66
        E 16 b0 0b 5d
        E 16 b0 0b 55
        E 16 b0 0b 4c
        E 16 b0 0b 44
        E 16 b0 0b 3b
        E 16 b0 0b 33
        E 16 b0 0b 2a
        E 16 b0 0b 22
        E 16 b0 0b 2a
        E 16 b0 0b 33
        E 16 b0 0b 3b
        E 16 b0 0b 44
        E 16 b0 0b 3b
        E 16 b0 0b 33
        E 16 b0 0b 2a
        E 16 b0 0b 22
        E 16 b0 0b 2a
        E 16 b0 0b 33
        E 16 b0 0b 3b
        E 16 b0 0b 44
        E 16 b0 0b 3b
        E 16 b0 0b 33
        E 16 b0 0b 2a
        E 16 b0 0b 22
        E 16 b0 0b 2a
        E 16 b0 0b 33
        E 16 b0 0b 3b
        E 16 b0 0b 44
        E 16 b0 0b 4c
        E 16 b0 0b 55
        E 16 b0 0b 5d
        E 1232 b0 0b 66
        E 0 80 36 00
        E 0 90 3b 66
        E 16 b0 0b 5d
        E 16 b0 0b 55
        E 16 b0 0b 4c
        E 16 b0 0b 44
        E 16 b0 0b 3b
        E 16 b0 0b 33
        E 16 b0 0b 2a
        E 16 b0 0b 22
        E 16 b0 0b 2a
        E 16 b0 0b 33
        E 16 b0 0b 3b
        E 16 b0 0b 44
        E 16 b0 0b 3b
        E 16 b0 0b 33
        E 16 b0 0b 2a
        E 16 b0 0b 22
        E 16 b0 0b 2a
        E 16 b0 0b 33
        E 16 b0 0b 3b
        E 16 b0 0b 44
        E 16 b0 0b 3b
        E 16 b0 0b 33
        E 16 b0 0b 2a
        E 16 b0 0b 22
        E 16 b0 0b 2a
        E 16 b0 0b 33
        E 16 b0 0b 3b
        E 16 b0 0b 44
        E 16 b0 0b 4c
        E 16 b0 0b 55
        E 16 b0 0b 5d
        E 368 b0 0b 66
        E 0 80 3b 00
        E 0 90 3d 66
        E 16 b0 0b 5d
        E 16 b0 0b 55
        E 16 b0 0b 4c
        E 16 b0 0b 44
        E 16 b0 0b 3b
        E 16 b0 0b 33
        E 16 b0 0b 2a
        E 16 b0 0b 22
        E 16 b0 0b 2a
        E 16 b0 0b 33
        E 16 b0 0b 3b
        E 16 b0 0b 44
        E 16 b0 0b 3b
        E 16 b0 0b 33
        E 16 b0 0b 2a
        E 16 b0 0b 22
        E 16 b0 0b 2a
        E 16 b0 0b 66
        E 0 80 3d 00
        E 0 90 3e 66
        E 16 b0 0b 5d
        E 16 b0 0b 55
        E 16 b0 0b 4c
        E 16 b0 0b 44
        E 16 b0 0b 3b
        E 16 b0 0b 33
        E 16 b0 0b 2a
        E 16 b0 0b 22
        E 16 b0 0b 2a
        E 16 b0 0b 33
        E 16 b0 0b 3b
        E 16 b0 0b 44
        E 16 b0 0b 3b
        E 16 b0 0b 33
        E 16 b0 0b 2a
        E 16 b0 0b 22
        E 16 b0 0b 2a
        E 16 b0 0b 33
        E 16 b0 0b 3b
        E 16 b0 0b 44
        E 16 b0 0b 3b
        E 16 b0 0b 33
        E 16 b0 0b 2a
        E 16 b0 0b 22
        E 16 b0 0b 2a
        E 16 b0 0b 33
        E 16 b0 0b 3b
        E 16 b0 0b 44
        E 16 b0 0b 4c
        E 16 b0 0b 55
        E 16 b0 0b 5d
        E 80 b0 0b 66
        E 0 80 3e 00
        E 0 90 40 66
        E 16 b0 0b 5d
        E 16 b0 0b 55
        E 16 b0 0b 4c
        E 16 b0 0b 44
        E 16 b0 0b 3b
        E 16 b0 0b 33
        E 16 b0 0b 2a
        E 16 b0 0b 22
        E 16 b0 0b 2a
        E 16 b0 0b 33
        E 16 b0 0b 3b
        E 16 b0 0b 44
        E 16 b0 0b 3b
        E 16 b0 0b 33
        E 16 b0 0b 2a
        E 16 b0 0b 22
        E 16 b0 0b 2a
        E 16 b0 0b 33
        E 16 b0 0b 3b
        E 16 b0 0b 44
        E 16 b0 0b 3b
        E 16 b0 0b 33
        E 16 b0 0b 2a
        E 16 b0 0b 22
        E 16 b0 0b 2a
        E 16 b0 0b 33
        E 16 b0 0b 3b
        E 16 b0 0b 44
        E 16 b0 0b 4c
        E 16 b0 0b 55
        E 16 b0 0b 5d
        E 80 b0 0b 66
        E 0 80 40 00
        E 0 90 42 66
        E 16 b0 0b 5d
        E 16 b0 0b 55
        E 16 b0 0b 4c
        E 16 b0 0b 44
        E 16 b0 0b 3b
        E 16 b0 0b 33
        E 16 b0 0b 2a
        E 16 b0 0b 22
        E 16 b0 0b 2a
        E 16 b0 0b 33
        E 16 b0 0b 3b
        E 16 b0 0b 44
        E 16 b0 0b 3b
        E 16 b0 0b 33
        E 16 b0 0b 2a
        E 16 b0 0b 22
        E 16 b0 0b 2a
        E 16 b0 0b 33
        E 16 b0 0b 3b
        E 16 b0 0b 44
        E 16 b0 0b 3b
        E 16 b0 0b 33
        E 16 b0 0b 2a
        E 16 b0 0b 22
        E 16 b0 0b 2a
        E 16 b0 0b 33
        E 16 b0 0b 3b
        E 16 b0 0b 44
        E 16 b0 0b 4c
        E 16 b0 0b 55
        E 16 b0 0b 5d
        E 80 b0 0b 66
        E 0 80 42 00
        E 0 90 43 66
        E 16 b0 0b 5d
        E 16 b0 0b 55
        E 16 b0 0b 4c
        E 16 b0 0b 44
        E 16 b0 0b 3b
        E 16 b0 0b 33
        E 16 b0 0b 2a
        E 16 b0 0b 22
        E 16 b0 0b 2a
        E 16 b0 0b 33
        E 16 b0 0b 3b
        E 16 b0 0b 44
        E 16 b0 0b 3b
        E 16 b0 0b 33
        E 16 b0 0b 2a
        E 16 b0 0b 22
        E 16 b0 0b 2a
        E 16 b0 0b 33
        E 16 b0 0b 3b
        E 16 b0 0b 44
        E 16 b0 0b 3b
        E 16 b0 0b 33
        E 16 b0 0b 2a
        E 16 b0 0b 22
        E 16 b0 0b 2a
        E 16 b0 0b 33
        E 16 b0 0b 3b
        E 16 b0 0b 44
        E 16 b0 0b 4c
        E 16 b0 0b 55
        E 16 b0 0b 5d
        E 80 b0 0b 66
        E 0 80 43 00
        E 0 90 45 66
        E 16 b0 0b 5d
        E 16 b0 0b 55
        E 16 b0 0b 4c
        E 16 b0 0b 44
        E 16 b0 0b 3b
        E 16 b0 0b 33
        E 16 b0 0b 2a
        E 16 b0 0b 22
        E 16 b0 0b 2a
        E 16 b0 0b 33
        E 16 b0 0b 3b
        E 16 b0 0b 44
        E 16 b0 0b 3b
        E 16 b0 0b 33
        E 16 b0 0b 2a
        E 16 b0 0b 22
        E 16 b0 0b 2a
        E 16 b0 0b 33
        E 16 b0 0b 3b
        E 16 b0 0b 44
        E 16 b0 0b 3b
        E 16 b0 0b 33
        E 16 b0 0b 2a
        E 16 b0 0b 22
        E 16 b0 0b 2a
        E 16 b0 0b 33
        E 16 b0 0b 3b
        E 16 b0 0b 44
        E 16 b0 0b 4c
        E 16 b0 0b 55
        E 16 b0 0b 5d
        E 80 b0 0b 66
        E 0 80 45 00
        E 0 90 43 66
        E 16 b0 0b 5d
        E 16 b0 0b 55
        E 16 b0 0b 4c
        E 16 b0 0b 44
        E 16 b0 0b 3b
        E 16 b0 0b 33
        E 16 b0 0b 2a
        E 16 b0 0b 22
        E 16 b0 0b 2a
        E 16 b0 0b 33
        E 16 b0 0b 3b
        E 16 b0 0b 44
        E 16 b0 0b 3b
        E 16 b0 0b 33
        E 16 b0 0b 2a
        E 16 b0 0b 22
        E 16 b0 0b 2a
        E 16 b0 0b 66
        E 0 80 43 00
        E 0 90 42 66
        E 16 b0 0b 5d
        E 16 b0 0b 55
        E 16 b0 0b 4c
        E 16 b0 0b 44
        E 16 b0 0b 3b
        E 16 b0 0b 33
        E 16 b0 0b 2a
        E 16 b0 0b 22
        E 16 b0 0b 2a
        E 16 b0 0b 33
        E 16 b0 0b 3b
        E 16 b0 0b 44
        E 16 b0 0b 3b
        E 16 b0 0b 33
        E 16 b0 0b 2a
        E 16 b0 0b 22
        E 16 b0 0b 2a
        E 16 b0 0b 66
        E 0 80 42 00
        E 0 90 40 66
        E 16 b0 0b 5d
        E 16 b0 0b 55
        E 16 b0 0b 4c
        E 16 b0 0b 44
        E 16 b0 0b 3b
        E 16 b0 0b 33
        E 16 b0 0b 2a
        E 16 b0 0b 22
        E 16 b0 0b 2a
        E 16 b0 0b 33
        E 16 b0 0b 3b
        E 16 b0 0b 44
        E 16 b0 0b 3b
        E 16 b0 0b 33
        E 16 b0 0b 2a
        E 16 b0 0b 22
        E 16 b0 0b 2a
        E 16 b0 0b 33
        E 16 b0 0b 3b
        E 16 b0 0b 44
        E 16 b0 0b 3b
        E 16 b0 0b 33
        E 16 b0 0b 2a
        E 16 b0 0b 22
        E 16 b0 0b 2a
        E 16 b0 0b 33
        E 16 b0 0b 3b
        E 16 b0 0b 44
        E 16 b0 0b 4c
        E 16 b0 0b 55
        E 16 b0 0b 5d
        E 80 b0 0b 66
        E 0 80 40 00
        E 0 90 3b 66
        E 16 b0 0b 5d
        E 16 b0 0b 55
        E 16 b0 0b 4c
        E 16 b0 0b 44
        E 16 b0 0b 3b
        E 16 b0 0b 33
        E 16 b0 0b 2a
        E 16 b0 0b 22
        E 16 b0 0b 2a
        E 16 b0 0b 33
        E 16 b0 0b 3b
        E 16 b0 0b 44
        E 16 b0 0b 3b
        E 16 b0 0b 33
        E 16 b0 0b 2a
        E 16 b0 0b 22
        E 16 b0 0b 2a
        E 16 b0 0b 33
        E 16 b0 0b 3b
        E 16 b0 0b 44
        E 16 b0 0b 3b
        E 16 b0 0b 33
        E 16 b0 0b 2a
        E 16 b0 0b 22
        E 16 b0 0b 2a
        E 16 b0 0b 33
        E 16 b0 0b 3b
        E 16 b0 0b 44
        E 16 b0 0b 4c
        E 16 b0 0b 55
        E 16 b0 0b 5d
        E 368 b0 0b 66
        E 16 b0 0b 5d
        E 16 b0 0b 55
        E 16 b0 0b 4c
        E 16 b0 0b 44
        E 16 b0 0b 3b
        E 16 b0 0b 33
        E 16 b0 0b 2a
        E 16 b0 0b 22
        E 16 b0 0b 2a
        E 16 b0 0b 33
        E 16 b0 0b 3b
        E 16 b0 0b 44
        E 16 b0 0b 3b
        E 16 b0 0b 33
        E 16 b0 0b 2a
        E 16 b0 0b 22
        E 16 b0 0b 2a
        E 16 b0 0b 66
        E 0 80 3b 00
        E 0 90 3d 66
        E 16 b0 0b 5d
        E 16 b0 0b 55
        E 16 b0 0b 4c
        E 16 b0 0b 44
        E 16 b0 0b 3b
        E 16 b0 0b 33
        E 16 b0 0b 2a
        E 16 b0 0b 22
        E 16 b0 0b 2a
        E 16 b0 0b 33
        E 16 b0 0b 3b
        E 16 b0 0b 44
        E 16 b0 0b 3b
        E 16 b0 0b 33
        E 16 b0 0b 2a
        E 16 b0 0b 22
        E 16 b0 0b 2a
        E 16 b0 0b 66
        E 0 80 3d 00
        E 0 90 3e 66
        E 16 b0 0b 5d
        E 16 b0 0b 55
        E 16 b0 0b 4c
        E 16 b0 0b 44
        E 16 b0 0b 3b
        E 16 b0 0b 33
        E 16 b0 0b 2a
        E 16 b0 0b 22
        E 16 b0 0b 2a
        E 16 b0 0b 33
        E 16 b0 0b 3b
        E 16 b0 0b 44
        E 16 b0 0b 3b
        E 16 b0 0b 33
        E 16 b0 0b 2a
        E 16 b0 0b 22
        E 16 b0 0b 2a
        E 16 b0 0b 66
        E 0 80 3e 00
        E 0 90 42 66
        E 16 b0 0b 5d
        E 16 b0 0b 55
        E 16 b0 0b 4c
        E 16 b0 0b 44
        E 16 b0 0b 3b
        E 16 b0 0b 33
        E 16 b0 0b 2a
        E 16 b0 0b 22
        E 16 b0 0b 2a
        E 16 b0 0b 33
        E 16 b0 0b 3b
        E 16 b0 0b 44
        E 16 b0 0b 3b
        E 16 b0 0b 33
        E 16 b0 0b 2a
        E 16 b0 0b 22
        E 16 b0 0b 2a
        E 16 b0 0b 33
        E 16 b0 0b 3b
        E 16 b0 0b 44
        E 16 b0 0b 3b
        E 16 b0 0b 33
        E 16 b0 0b 2a
        E 16 b0 0b 22
        E 16 b0 0b 2a
        E 16 b0 0b 33
        E 16 b0 0b 3b
        E 16 b0 0b 44
        E 16 b0 0b 4c
        E 16 b0 0b 55
        E 16 b0 0b 5d
        E 656 b0 0b 66
        E 0 80 42 00
        E 0 90 40 66
        E 16 b0 0b 5d
        E 16 b0 0b 55
        E 16 b0 0b 4c
        E 16 b0 0b 44
        E 16 b0 0b 3b
        E 16 b0 0b 33
        E 16 b0 0b 2a
        E 16 b0 0b 22
        E 16 b0 0b 2a
        E 16 b0 0b 33
        E 16 b0 0b 3b
        E 16 b0 0b 44
        E 16 b0 0b 3b
        E 16 b0 0b 33
        E 16 b0 0b 2a
        E 16 b0 0b 22
        E 16 b0 0b 2a
        E 16 b0 0b 33
        E 16 b0 0b 3b
        E 16 b0 0b 44
        E 16 b0 0b 3b
        E 16 b0 0b 33
        E 16 b0 0b 2a
        E 16 b0 0b 22
        E 16 b0 0b 2a
        E 16 b0 0b 33
        E 16 b0 0b 3b
        E 16 b0 0b 44
        E 16 b0 0b 4c
        E 16 b0 0b 55
        E 16 b0 0b 5d
        E 656 b0 0b 66
        E 0 80 40 00
        E 0 90 42 66
        E 16 b0 0b 5d
        E 16 b0 0b 55
        E 16 b0 0b 4c
        E 16 b0 0b 44
        E 16 b0 0b 3b
        E 16 b0 0b 33
        E 16 b0 0b 2a
        E 16 b0 0b 22
        E 16 b0 0b 2a
        E 16 b0 0b 33
        E 16 b0 0b 3b
        E 16 b0 0b 44
        E 16 b0 0b 3b
        E 16 b0 0b 33
        E 16 b0 0b 2a
        E 16 b0 0b 22
        E 16 b0 0b 2a
        E 16 b0 0b 33
        E 16 b0 0b 3b
        E 16 b0 0b 44
        E 16 b0 0b 3b
        E 16 b0 0b 33
        E 16 b0 0b 2a
        E 16 b0 0b 22
        E 16 b0 0b 2a
        E 16 b0 0b 33
        E 16 b0 0b 3b
        E 16 b0 0b 44
        E 16 b0 0b 4c
        E 16 b0 0b 55
        E 16 b0 0b 5d
        E 368 b0 0b 66
        E 16 b0 0b 5d
        E 16 b0 0b 55
        E 16 b0 0b 4c
        E 16 b0 0b 44
        E 16 b0 0b 3b
        E 16 b0 0b 33
        E 16 b0 0b 2a
        E 16 b0 0b 22
        E 16 b0 0b 2a
        E 16 b0 0b 33
        E 16 b0 0b 3b
        E 16 b0 0b 44
        E 16 b0 0b 3b
        E 16 b0 0b 33
        E 16 b0 0b 2a
        E 16 b0 0b 22
        E 16 b0 0b 2a
        E 16 b0 0b 66
        E 0 80 42 00
        E 0 90 43 66
        E 16 b0 0b 5d
        E 16 b0 0b 55
        E 16 b0 0b 4c
        E 16 b0 0b 44
        E 16 b0 0b 3b
        E 16 b0 0b 33
        E 16 b0 0b 2a
        E 16 b0 0b 22
        E 16 b0 0b 2a
        E 16 b0 0b 33
        E 16 b0 0b 3b
        E 16 b0 0b 44
        E 16 b0 0b 3b
        E 16 b0 0b 33
        E 16 b0 0b 2a
        E 16 b0 0b 22
        E 16 b0 0b 2a
        E 16 b0 0b 66
        E 0 80 43 00
        E 0 90 42 66
        E 16 b0 0b 5d
        E 16 b0 0b 55
        E 16 b0 0b 4c
        E 16 b0 0b 44
        E 16 b0 0b 3b
        E 16 b0 0b 33
        E 16 b0 0b 2a
        E 16 b0 0b 22
        E 16 b0 0b 2a
        E 16 b0 0b 33
        E 16 b0 0b 3b
        E 16 b0 0b 44
        E 16 b0 0b 3b
        E 16 b0 0b 33
        E 16 b0 0b 2a
        E 16 b0 0b 22
        E 16 b0 0b 2a
        E 16 b0 0b 66
        E 0 80 42 00
        E 0 90 40 66
        E 16 b0 0b 5d
        E 16 b0 0b 55
        E 16 b0 0b 4c
        E 16 b0 0b 44
        E 16 b0 0b 3b
        E 16 b0 0b 33
        E 16 b0 0b 2a
        E 16 b0 0b 22
        E 16 b0 0b 2a
        E 16 b0 0b 33
        E 16 b0 0b 3b
        E 16 b0 0b 44
        E 16 b0 0b 3b
        E 16 b0 0b 33
        E 16 b0 0b 2a
        E 16 b0 0b 22
        E 16 b0 0b 2a
        E 16 b0 0b 66
        E 0 80 40 00
        E 0 90 3e 66
        E 16 b0 0b 5d
        E 16 b0 0b 55
        E 16 b0 0b 4c
        E 16 b0 0b 44
        E 16 b0 0b 3b
        E 16 b0 0b 33
        E 16 b0 0b 2a
        E 16 b0 0b 22
        E 16 b0 0b 2a
        E 16 b0 0b 33
        E 16 b0 0b 3b
        E 16 b0 0b 44
        E 16 b0 0b 3b
        E 16 b0 0b 33
        E 16 b0 0b 2a
        E 16 b0 0b 22
        E 16 b0 0b 2a
        E 16 b0 0b 66
        E 0 80 3e 00
        E 0 90 40 66
        E 16 b0 0b 5d
        E 16 b0 0b 55
        E 16 b0 0b 4c
        E 16 b0 0b 44
        E 16 b0 0b 3b
        E 16 b0 0b 33
        E 16 b0 0b 2a
        E 16 b0 0b 22
        E 16 b0 0b 2a
        E 16 b0 0b 33
        E 16 b0 0b 3b
        E 16 b0 0b 44
        E 16 b0 0b 3b
        E 16 b0 0b 33
        E 16 b0 0b 2a
        E 16 b0 0b 22
        E 16 b0 0b 2a
        E 16 b0 0b 33
        E 16 b0 0b 3b
        E 16 b0 0b 44
        E 16 b0 0b 3b
        E 16 b0 0b 33
        E 16 b0 0b 2a
        E 16 b0 0b 22
        E 16 b0 0b 2a
        E 16 b0 0b 33
        E 16 b0 0b 3b
        E 16 b0 0b 44
        E 16 b0 0b 4c
        E 16 b0 0b 55
        E 16 b0 0b 5d
        E 80 b0 0b 66
        E 0 80 40 00
        E 0 90 39 66
        E 16 b0 0b 5d
        E 16 b0 0b 55
        E 16 b0 0b 4c
        E 16 b0 0b 44
        E 16 b0 0b 3b
        E 16 b0 0b 33
        E 16 b0 0b 2a
        E 16 b0 0b 22
        E 16 b0 0b 2a
        E 16 b0 0b 33
        E 16 b0 0b 3b
        E 16 b0 0b 44
        E 16 b0 0b 3b
        E 16 b0 0b 33
        E 16 b0 0b 2a
        E 16 b0 0b 22
        E 16 b0 0b 2a
        E 16 b0 0b 33
        E 16 b0 0b 3b
        E 16 b0 0b 44
        E 16 b0 0b 3b
        E 16 b0 0b 33
        E 16 b0 0b 2a
        E 16 b0 0b 22
        E 16 b0 0b 2a
        E 16 b0 0b 33
        E 16 b0 0b 3b
        E 16 b0 0b 44
        E 16 b0 0b 4c
        E 16 b0 0b 55
        E 16 b0 0b 5d
        E 1232 b0 0b 66
        E 0 80 39 00
        E 0 90 3e 66
        E 16 b0 0b 5d
        E 16 b0 0b 55
        E 16 b0 0b 4c
        E 16 b0 0b 44
        E 16 b0 0b 3b
        E 16 b0 0b 33
        E 16 b0 0b 2a
        E 16 b0 0b 22
        E 16 b0 0b 2a
        E 16 b0 0b 33
        E 16 b0 0b 3b
        E 16 b0 0b 44
        E 16 b0 0b 3b
        E 16 b0 0b 33
        E 16 b0 0b 2a
        E 16 b0 0b 22
        E 16 b0 0b 2a
        E 16 b0 0b 33
        E 16 b0 0b 3b
        E 16 b0 0b 44
        E 16 b0 0b 3b
        E 16 b0 0b 33
        E 16 b0 0b 2a
        E 16 b0 0b 22
        E 16 b0 0b 2a
        E 16 b0 0b 33
        E 16 b0 0b 3b
        E 16 b0 0b 44
        E 16 b0 0b 4c
        E 16 b0 0b 55
        E 16 b0 0b 5d
        E 368 b0 0b 66
        E 16 b0 0b 5d
        E 16 b0 0b 55
        E 16 b0 0b 4c
        E 16 b0 0b 44
        E 16 b0 0b 3b
        E 16 b0 0b 33
        E 16 b0 0b 2a
        E 16 b0 0b 22
        E 16 b0 0b 2a
        E 16 b0 0b 33
        E 16 b0 0b 3b
        E 16 b0 0b 44
        E 16 b0 0b 3b
        E 16 b0 0b 33
        E 16 b0 0b 2a
        E 16 b0 0b 22
        E 16 b0 0b 2a
        E 16 b0 0b 66
        E 0 80 3e 00
        E 0 90 40 66
        E 16 b0 0b 5d
        E 16 b0 0b 55
        E 16 b0 0b 4c
        E 16 b0 0b 44
        E 16 b0 0b 3b
        E 16 b0 0b 33
        E 16 b0 0b 2a
        E 16 b0 0b 22
        E 16 b0 0b 2a
        E 16 b0 0b 33
        E 16 b0 0b 3b
        E 16 b0 0b 44
        E 16 b0 0b 3b
        E 16 b0 0b 33
        E 16 b0 0b 2a
        E 16 b0 0b 22
        E 16 b0 0b 2a
        E 16 b0 0b 66
        E 0 80 40 00
        E 0 90 3e 66
        E 16 b0 0b 5d
        E 16 b0 0b 55
        E 16 b0 0b 4c
        E 16 b0 0b 44
        E 16 b0 0b 3b
        E 16 b0 0b 33
        E 16 b0 0b 2a
        E 16 b0 0b 22
        E 16 b0 0b 2a
        E 16 b0 0b 33
        E 16 b0 0b 3b
        E 16 b0 0b 44
        E 16 b0 0b 3b
        E 16 b0 0b 33
        E 16 b0 0b 2a
        E 16 b0 0b 22
        E 16 b0 0b 2a
        E 16 b0 0b 66
        E 0 80 3e 00
        E 0 90 3d 66
        E 16 b0 0b 5d
        E 16 b0 0b 55
        E 16 b0 0b 4c
        E 16 b0 0b 44
        E 16 b0 0b 3b
        E 16 b0 0b 33
        E 16 b0 0b 2a
        E 16 b0 0b 22
        E 16 b0 0b 2a
        E 16 b0 0b 33
        E 16 b0 0b 3b
        E 16 b0 0b 44
        E 16 b0 0b 3b
        E 16 b0 0b 33
        E 16 b0 0b 2a
        E 16 b0 0b 22
        E 16 b0 0b 2a
        E 16 b0 0b 66
        E 0 80 3d 00
        E 0 90 3b 66
        E 16 b0 0b 5d
        E 16 b0 0b 55
        E 16 b0 0b 4c
        E 16 b0 0b 44
        E 16 b0 0b 3b
        E 16 b0 0b 33
        E 16 b0 0b 2a
        E 16 b0 0b 22
        E 16 b0 0b 2a
        E 16 b0 0b 33
        E 16 b0 0b 3b
        E 16 b0 0b 44
        E 16 b0 0b 3b
        E 16 b0 0b 33
        E 16 b0 0b 2a
        E 16 b0 0b 22
        E 16 b0 0b 2a
        E 16 b0 0b 66
        E 0 80 3b 00
        E 0 90 3d 66
        E 16 b0 0b 5d
        E 16 b0 0b 55
        E 16 b0 0b 4c
        E 16 b0 0b 44
        E 16 b0 0b 3b
        E 16 b0 0b 33
        E 16 b0 0b 2a
        E 16 b0 0b 22
        E 16 b0 0b 2a
        E 16 b0 0b 33
        E 16 b0 0b 3b
        E 16 b0 0b 44
        E 16 b0 0b 3b
        E 16 b0 0b 33
        E 16 b0 0b 2a
        E 16 b0 0b 22
        E 16 b0 0b 2a
        E 16 b0 0b 33
        E 16 b0 0b 3b
        E 16 b0 0b 44
        E 16 b0 0b 3b
        E 16 b0 0b 33
        E 16 b0 0b 2a
        E 16 b0 0b 22
        E 16 b0 0b 2a
        E 16 b0 0b 33
        E 16 b0 0b 3b
        E 16 b0 0b 44
        E 16 b0 0b 4c
        E 16 b0 0b 55
        E 16 b0 0b 5d
        E 80 b0 0b 66
        E 0 80 3d 00
        E 0 90 36 66
        E 16 b0 0b 5d
        E 16 b0 0b 55
        E 16 b0 0b 4c
        E 16 b0 0b 44
        E 16 b0 0b 3b
        E 16 b0 0b 33
        E 16 b0 0b 2a
        E 16 b0 0b 22
        E 16 b0 0b 2a
        E 16 b0 0b 33
        E 16 b0 0b 3b
        E 16 b0 0b 44
        E 16 b0 0b 3b
        E 16 b0 0b 33
        E 16 b0 0b 2a
        E 16 b0 0b 22
        E 16 b0 0b 2a
        E 16 b0 0b 33
        E 16 b0 0b 3b
        E 16 b0 0b 44
        E 16 b0 0b 3b
        E 16 b0 0b 33
        E 16 b0 0b 2a
        E 16 b0 0b 22
        E 16 b0 0b 2a
        E 16 b0 0b 33
        E 16 b0 0b 3b
        E 16 b0 0b 44
        E 16 b0 0b 4c
        E 16 b0 0b 55
        E 16 b0 0b 5d
        E 1232 b0 0b 66
        E 0 80 36 00
        E 0 90 3b 66
        E 16 b0 0b 5d
        E 16 b0 0b 55
        E 16 b0 0b 4c
        E 16 b0 0b 44
        E 16 b0 0b 3b
        E 16 b0 0b 33
        E 16 b0 0b 2a
        E 16 b0 0b 22
        E 16 b0 0b 2a
        E 16 b0 0b 33
        E 16 b0 0b 3b
        E 16 b0 0b 44
        E 16 b0 0b 3b
        E 16 b0 0b 33
        E 16 b0 0b 2a
        E 16 b0 0b 22
        E 16 b0 0b 2a
        E 16 b0 0b 33
        E 16 b0 0b 3b
        E 16 b0 0b 44
        E 16 b0 0b 3b
        E 16 b0 0b 33
        E 16 b0 0b 2a
        E 16 b0 0b 22
        E 16 b0 0b 2a
        E 16 b0 0b 33
        E 16 b0 0b 3b
        E 16 b0 0b 44
        E 16 b0 0b 4c
        E 16 b0 0b 55
        E 16 b0 0b 5d
        E 368 b0 0b 66
        E 0 80 3b 00
        E 0 90 3d 66
        E 16 b0 0b 5d
        E 16 b0 0b 55
        E 16 b0 0b 4c
        E 16 b0 0b 44
        E 16 b0 0b 3b
        E 16 b0 0b 33
        E 16 b0 0b 2a
        E 16 b0 0b 22
        E 16 b0 0b 2a
        E 16 b0 0b 33
        E 16 b0 0b 3b
        E 16 b0 0b 44
        E 16 b0 0b 3b
        E 16 b0 0b 33
        E 16 b0 0b 2a
        E 16 b0 0b 22
        E 16 b0 0b 2a
        E 16 b0 0b 66
        E 0 80 3d 00
        E 0 90 3e 66
        E 16 b0 0b 5d
        E 16 b0 0b 55
        E 16 b0 0b 4c
        E 16 b0 0b 44
        E 16 b0 0b 3b
        E 16 b0 0b 33
        E 16 b0 0b 2a
        E 16 b0 0b 22
        E 16 b0 0b 2a
        E 16 b0 0b 33
        E 16 b0 0b 3b
        E 16 b0 0b 44
        E 16 b0 0b 3b
        E 16 b0 0b 33
        E 16 b0 0b 2a
        E 16 b0 0b 22
        E 16 b0 0b 2a
        E 16 b0 0b 33
        E 16 b0 0b 3b
        E 16 b0 0b 44
        E 16 b0 0b 3b
        E 16 b0 0b 33
        E 16 b0 0b 2a
        E 16 b0 0b 22
        E 16 b0 0b 2a
        E 16 b0 0b 33
        E 16 b0 0b 3b
        E 16 b0 0b 44
        E 16 b0 0b 4c
        E 16 b0 0b 55
        E 16 b0 0b 5d
        E 80 b0 0b 66
        E 0 80 3e 00
        E 0 90 40 66
        E 16 b0 0b 5d
        E 16 b0 0b 55
        E 16 b0 0b 4c
        E 16 b0 0b 44
        E 16 b0 0b 3b
        E 16 b0 0b 33
        E 16 b0 0b 2a
        E 16 b0 0b 22
        E 16 b0 0b 2a
        E 16 b0 0b 33
        E 16 b0 0b 3b
        E 16 b0 0b 44
        E 16 b0 0b 3b
        E 16 b0 0b 33
        E 16 b0 0b 2a
        E 16 b0 0b 22
        E 16 b0 0b 2a
        E 16 b0 0b 33
        E 16 b0 0b 3b
        E 16 b0 0b 44
        E 16 b0 0b 3b
        E 16 b0 0b 33
        E 16 b0 0b 2a
        E 16 b0 0b 22
        E 16 b0 0b 2a
        E 16 b0 0b 33
        E 16 b0 0b 3b
        E 16 b0 0b 44
        E 16 b0 0b 4c
        E 16 b0 0b 55
        E 16 b0 0b 5d
        E 80 b0 0b 66
        E 0 80 40 00
        E 0 90 42 66
        E 16 b0 0b 5d
        E 16 b0 0b 55
        E 16 b0 0b 4c
        E 16 b0 0b 44
        E 16 b0 0b 3b
        E 16 b0 0b 33
        E 16 b0 0b 2a
        E 16 b0 0b 22
        E 16 b0 0b 2a
        E 16 b0 0b 33
        E 16 b0 0b 3b
        E 16 b0 0b 44
        E 16 b0 0b 3b
        E 16 b0 0b 33
        E 16 b0 0b 2a
        E 16 b0 0b 22
        E 16 b0 0b 2a
        E 16 b0 0b 33
        E 16 b0 0b 3b
        E 16 b0 0b 44
        E 16 b0 0b 3b
        E 16 b0 0b 33
        E 16 b0 0b 2a
        E 16 b0 0b 22
        E 16 b0 0b 2a
        E 16 b0 0b 33
        E 16 b0 0b 3b
        E 16 b0 0b 44
        E 16 b0 0b 4c
        E 16 b0 0b 55
        E 16 b0 0b 5d
        E 80 b0 0b 66
        E 0 80 42 00
        E 0 90 43 66
        E 16 b0 0b 5d
        E 16 b0 0b 55
        E 16 b0 0b 4c
        E 16 b0 0b 44
        E 16 b0 0b 3b
        E 16 b0 0b 33
        E 16 b0 0b 2a
        E 16 b0 0b 22
        E 16 b0 0b 2a
        E 16 b0 0b 33
        E 16 b0 0b 3b
        E 16 b0 0b 44
        E 16 b0 0b 3b
        E 16 b0 0b 33
        E 16 b0 0b 2a
        E 16 b0 0b 22
        E 16 b0 0b 2a
        E 16 b0 0b 33
        E 16 b0 0b 3b
        E 16 b0 0b 44
        E 16 b0 0b 3b
        E 16 b0 0b 33
        E 16 b0 0b 2a
        E 16 b0 0b 22
        E 16 b0 0b 2a
        E 16 b0 0b 33
        E 16 b0 0b 3b
        E 16 b0 0b 44
        E 16 b0 0b 4c
        E 16 b0 0b 55
        E 16 b0 0b 5d
        E 80 b0 0b 66
        E 0 80 43 00
        E 0 90 45 66
        E 16 b0 0b 5d
        E 16 b0 0b 55
        E 16 b0 0b 4c
        E 16 b0 0b 44
        E 16 b0 0b 3b
        E 16 b0 0b 33
        E 16 b0 0b 2a
        E 16 b0 0b 22
        E 16 b0 0b 2a
        E 16 b0 0b 33
        E 16 b0 0b 3b
        E 16 b0 0b 44
        E 16 b0 0b 3b
        E 16 b0 0b 33
        E 16 b0 0b 2a
        E 16 b0 0b 22
        E 16 b0 0b 2a
        E 16 b0 0b 33
        E 16 b0 0b 3b
        E 16 b0 0b 44
        E 16 b0 0b 3b
        E 16 b0 0b 33
        E 16 b0 0b 2a
        E 16 b0 0b 22
        E 16 b0 0b 2a
        E 16 b0 0b 33
        E 16 b0 0b 3b
        E 16 b0 0b 44
        E 16 b0 0b 4c
        E 16 b0 0b 55
        E 16 b0 0b 5d
        E 80 b0 0b 66
        E 0 80 45 00
        E 0 90 43 66
        E 16 b0 0b 5d
        E 16 b0 0b 55
        E 16 b0 0b 4c
        E 16 b0 0b 44
        E 16 b0 0b 3b
        E 16 b0 0b 33
        E 16 b0 0b 2a
        E 16 b0 0b 22
        E 16 b0 0b 2a
        E 16 b0 0b 33
        E 16 b0 0b 3b
        E 16 b0 0b 44
        E 16 b0 0b 3b
        E 16 b0 0b 33
        E 16 b0 0b 2a
        E 16 b0 0b 22
        E 16 b0 0b 2a
        E 16 b0 0b 66
        E 0 80 43 00
        E 0 90 42 66
        E 16 b0 0b 5d
        E 16 b0 0b 55
        E 16 b0 0b 4c
        E 16 b0 0b 44
        E 16 b0 0b 3b
        E 16 b0 0b 33
        E 16 b0 0b 2a
        E 16 b0 0b 22
        E 16 b0 0b 2a
        E 16 b0 0b 33
        E 16 b0 0b 3b
        E 16 b0 0b 44
        E 16 b0 0b 3b
        E 16 b0 0b 33
        E 16 b0 0b 2a
        E 16 b0 0b 22
        E 16 b0 0b 2a
        E 16 b0 0b 66
        E 0 80 42 00
        E 0 90 40 66
        E 16 b0 0b 5d
        E 16 b0 0b 55
        E 16 b0 0b 4c
        E 16 b0 0b 44
        E 16 b0 0b 3b
        E 16 b0 0b 33
        E 16 b0 0b 2a
        E 16 b0 0b 22
        E 16 b0 0b 2a
        E 16 b0 0b 33
        E 16 b0 0b 3b
        E 16 b0 0b 44
        E 16 b0 0b 3b
        E 16 b0 0b 33
        E 16 b0 0b 2a
        E 16 b0 0b 22
        E 16 b0 0b 2a
        E 16 b0 0b 33
        E 16 b0 0b 3b
        E 16 b0 0b 44
        E 16 b0 0b 3b
        E 16 b0 0b 33
        E 16 b0 0b 2a
        E 16 b0 0b 22
        E 16 b0 0b 2a
        E 16 b0 0b 33
        E 16 b0 0b 3b
        E 16 b0 0b 44
        E 16 b0 0b 4c
        E 16 b0 0b 55
        E 16 b0 0b 5d
        E 80 b0 0b 66
        E 0 80 40 00
        E 0 90 3b 66
        E 16 b0 0b 5d
        E 16 b0 0b 55
        E 16 b0 0b 4c
        E 16 b0 0b 44
        E 16 b0 0b 3b
        E 16 b0 0b 33
        E 16 b0 0b 2a
        E 16 b0 0b 22
        E 16 b0 0b 2a
        E 16 b0 0b 33
        E 16 b0 0b 3b
        E 16 b0 0b 44
        E 16 b0 0b 3b
        E 16 b0 0b 33
        E 16 b0 0b 2a
        E 16 b0 0b 22
        E 16 b0 0b 2a
        E 16 b0 0b 33
        E 16 b0 0b 3b
        E 16 b0 0b 44
        E 16 b0 0b 3b
        E 16 b0 0b 33
        E 16 b0 0b 2a
        E 16 b0 0b 22
        E 16 b0 0b 2a
        E 16 b0 0b 33
        E 16 b0 0b 3b
        E 16 b0 0b 44
        E 16 b0 0b 4c
        E 16 b0 0b 55
        E 16 b0 0b 5d
        E 368 b0 0b 66
        E 16 b0 0b 5d
        E 16 b0 0b 55
        E 16 b0 0b 4c
        E 16 b0 0b 44
        E 16 b0 0b 3b
        E 16 b0 0b 33
        E 16 b0 0b 2a
        E 16 b0 0b 22
        E 16 b0 0b 2a
        E 16 b0 0b 33
        E 16 b0 0b 3b
        E 16 b0 0b 44
        E 16 b0 0b 3b
        E 16 b0 0b 33
        E 16 b0 0b 2a
        E 16 b0 0b 22
        E 16 b0 0b 2a
        E 16 b0 0b 66
        E 0 80 3b 00
        E 0 90 3d 66
        E 16 b0 0b 5d
        E 16 b0 0b 55
        E 16 b0 0b 4c
        E 16 b0 0b 44
        E 16 b0 0b 3b
        E 16 b0 0b 33
        E 16 b0 0b 2a
        E 16 b0 0b 22
        E 16 b0 0b 2a
        E 16 b0 0b 33
        E 16 b0 0b 3b
        E 16 b0 0b 44
        E 16 b0 0b 3b
        E 16 b0 0b 33
        E 16 b0 0b 2a
        E 16 b0 0b 22
        E 16 b0 0b 2a
        E 16 b0 0b 66
        E 0 80 3d 00
        E 0 90 3e 66
        E 16 b0 0b 5d
        E 16 b0 0b 55
        E 16 b0 0b 4c
        E 16 b0 0b 44
        E 16 b0 0b 3b
        E 16 b0 0b 33
        E 16 b0 0b 2a
        E 16 b0 0b 22
        E 16 b0 0b 2a
        E 16 b0 0b 33
        E 16 b0 0b 3b
        E 16 b0 0b 44
        E 16 b0 0b 3b
        E 16 b0 0b 33
        E 16 b0 0b 2a
        E 16 b0 0b 22
        E 16 b0 0b 2a
        E 16 b0 0b 66
        E 0 80 3e 00
        E 0 90 42 66
        E 16 b0 0b 5d
        E 16 b0 0b 55
        E 16 b0 0b 4c
        E 16 b0 0b 44
        E 16 b0 0b 3b
        E 16 b0 0b 33
        E 16 b0 0b 2a
        E 16 b0 0b 22
        E 16 b0 0b 2a
        E 16 b0 0b 33
        E 16 b0 0b 3b
        E 16 b0 0b 44
        E 16 b0 0b 3b
        E 16 b0 0b 33
        E 16 b0 0b 2a
        E 16 b0 0b 22
        E 16 b0 0b 2a
        E 16 b0 0b 33
        E 16 b0 0b 3b
        E 16 b0 0b 44
        E 16 b0 0b 3b
        E 16 b0 0b 33
        E 16 b0 0b 2a
        E 16 b0 0b 22
        E 16 b0 0b 2a
        E 16 b0 0b 33
        E 16 b0 0b 3b
        E 16 b0 0b 44
        E 16 b0 0b 4c
        E 16 b0 0b 55
        E 16 b0 0b 5d
        E 656 b0 0b 66
        E 0 80 42 00
        E 0 90 40 66
        E 16 b0 0b 5d
        E 16 b0 0b 55
        E 16 b0 0b 4c
        E 16 b0 0b 44
        E 16 b0 0b 3b
        E 16 b0 0b 33
        E 16 b0 0b 2a
        E 16 b0 0b 22
        E 16 b0 0b 2a
        E 16 b0 0b 33
        E 16 b0 0b 3b
        E 16 b0 0b 44
        E 16 b0 0b 3b
        E 16 b0 0b 33
        E 16 b0 0b 2a
        E 16 b0 0b 22
        E 16 b0 0b 2a
        E 16 b0 0b 33
        E 16 b0 0b 3b
        E 16 b0 0b 44
        E 16 b0 0b 3b
        E 16 b0 0b 33
        E 16 b0 0b 2a
        E 16 b0 0b 22
        E 16 b0 0b 2a
        E 16 b0 0b 33
        E 16 b0 0b 3b
        E 16 b0 0b 44
        E 16 b0 0b 4c
        E 16 b0 0b 55
        E 16 b0 0b 5d
        E 656 b0 0b 66
        E 0 80 40 00
        E 0 90 42 66
        E 16 b0 0b 5d
        E 16 b0 0b 55
        E 16 b0 0b 4c
        E 16 b0 0b 44
        E 16 b0 0b 3b
        E 16 b0 0b 33
        E 16 b0 0b 2a
        E 16 b0 0b 22
        E 16 b0 0b 2a
        E 16 b0 0b 33
        E 16 b0 0b 3b
        E 16 b0 0b 44
        E 16 b0 0b 3b
        E 16 b0 0b 33
        E 16 b0 0b 2a
        E 16 b0 0b 22
        E 16 b0 0b 2a
        E 16 b0 0b 33
        E 16 b0 0b 3b
        E 16 b0 0b 44
        E 16 b0 0b 3b
        E 16 b0 0b 33
        E 16 b0 0b 2a
        E 16 b0 0b 22
        E 16 b0 0b 2a
        E 16 b0 0b 33
        E 16 b0 0b 3b
        E 16 b0 0b 44
        E 16 b0 0b 4c
        E 16 b0 0b 55
        E 16 b0 0b 5d
        E 368 b0 0b 66
        E 16 b0 0b 5d
        E 16 b0 0b 55
        E 16 b0 0b 4c
        E 16 b0 0b 44
        E 16 b0 0b 3b
        E 16 b0 0b 33
        E 16 b0 0b 2a
        E 16 b0 0b 22
        E 16 b0 0b 2a
        E 16 b0 0b 33
        E 16 b0 0b 3b
        E 16 b0 0b 44
        E 16 b0 0b 3b
        E 16 b0 0b 33
        E 16 b0 0b 2a
        E 16 b0 0b 22
        E 16 b0 0b 2a
        E 16 b0 0b 66
        E 0 80 42 00
        E 0 90 43 66
        E 16 b0 0b 5d
        E 16 b0 0b 55
        E 16 b0 0b 4c
        E 16 b0 0b 44
        E 16 b0 0b 3b
        E 16 b0 0b 33
        E 16 b0 0b 2a
        E 16 b0 0b 22
        E 16 b0 0b 2a
        E 16 b0 0b 33
        E 16 b0 0b 3b
        E 16 b0 0b 44
        E 16 b0 0b 3b
        E 16 b0 0b 33
        E 16 b0 0b 2a
        E 16 b0 0b 22
        E 16 b0 0b 2a
        E 16 b0 0b 66
        E 0 80 43 00
        E 0 90 42 66
        E 16 b0 0b 5d
        E 16 b0 0b 55
        E 16 b0 0b 4c
        E 16 b0 0b 44
        E 16 b0 0b 3b
        E 16 b0 0b 33
        E 16 b0 0b 2a
        E 16 b0 0b 22
        E 16 b0 0b 2a
        E 16 b0 0b 33
        E 16 b0 0b 3b
        E 16 b0 0b 44
        E 16 b0 0b 3b
        E 16 b0 0b 33
        E 16 b0 0b 2a
        E 16 b0 0b 22
        E 16 b0 0b 2a
        E 16 b0 0b 66
        E 0 80 42 00
        E 0 90 40 66
        E 16 b0 0b 5d
        E 16 b0 0b 55
        E 16 b0 0b 4c
        E 16 b0 0b 44
        E 16 b0 0b 3b
        E 16 b0 0b 33
        E 16 b0 0b 2a
        E 16 b0 0b 22
        E 16 b0 0b 2a
        E 16 b0 0b 33
        E 16 b0 0b 3b
        E 16 b0 0b 44
        E 16 b0 0b 3b
        E 16 b0 0b 33
        E 16 b0 0b 2a
        E 16 b0 0b 22
        E 16 b0 0b 2a
        E 16 b0 0b 66
        E 0 80 40 00
        E 0 90 3e 66
        E 16 b0 0b 5d
        E 16 b0 0b 55
        E 16 b0 0b 4c
        E 16 b0 0b 44
        E 16 b0 0b 3b
        E 16 b0 0b 33
        E 16 b0 0b 2a
        E 16 b0 0b 22
        E 16 b0 0b 2a
        E 16 b0 0b 33
        E 16 b0 0b 3b
        E 16 b0 0b 44
        E 16 b0 0b 3b
        E 16 b0 0b 33
        E 16 b0 0b 2a
        E 16 b0 0b 22
        E 16 b0 0b 2a
        E 16 b0 0b 66
        E 0 80 3e 00
        E 0 90 40 66
        E 16 b0 0b 5d
        E 16 b0 0b 55
        E 16 b0 0b 4c
        E 16 b0 0b 44
        E 16 b0 0b 3b
        E 16 b0 0b 33
        E 16 b0 0b 2a
        E 16 b0 0b 22
        E 16 b0 0b 2a
        E 16 b0 0b 33
        E 16 b0 0b 3b
        E 16 b0 0b 44
        E 16 b0 0b 3b
        E 16 b0 0b 33
        E 16 b0 0b 2a
        E 16 b0 0b 22
        E 16 b0 0b 2a
        E 16 b0 0b 33
        E 16 b0 0b 3b
        E 16 b0 0b 44
        E 16 b0 0b 3b
        E 16 b0 0b 33
        E 16 b0 0b 2a
        E 16 b0 0b 22
        E 16 b0 0b 2a
        E 16 b0 0b 33
        E 16 b0 0b 3b
        E 16 b0 0b 44
        E 16 b0 0b 4c
        E 16 b0 0b 55
        E 16 b0 0b 5d
        E 80 b0 0b 66
        E 0 80 40 00
        E 0 90 39 66
        E 16 b0 0b 5d
        E 16 b0 0b 55
        E 16 b0 0b 4c
        E 16 b0 0b 44
        E 16 b0 0b 3b
        E 16 b0 0b 33
        E 16 b0 0b 2a
        E 16 b0 0b 22
        E 16 b0 0b 2a
        E 16 b0 0b 33
        E 16 b0 0b 3b
        E 16 b0 0b 44
        E 16 b0 0b 3b
        E 16 b0 0b 33
        E 16 b0 0b 2a
        E 16 b0 0b 22
        E 16 b0 0b 2a
        E 16 b0 0b 33
        E 16 b0 0b 3b
        E 16 b0 0b 44
        E 16 b0 0b 3b
        E 16 b0 0b 33
        E 16 b0 0b 2a
        E 16 b0 0b 22
        E 16 b0 0b 2a
        E 16 b0 0b 33
        E 16 b0 0b 3b
        E 16 b0 0b 44
        E 16 b0 0b 4c
        E 16 b0 0b 55
        E 16 b0 0b 5d
        E 1232 b0 0b 66
        E 0 80 39 00
        E 0 90 3e 66
        E 16 b0 0b 5d
        E 16 b0 0b 55
        E 16 b0 0b 4c
        E 16 b0 0b 44
        E 16 b0 0b 3b
        E 16 b0 0b 33
        E 16 b0 0b 2a
        E 16 b0 0b 22
        E 16 b0 0b 2a
        E 16 b0 0b 33
        E 16 b0 0b 3b
        E 16 b0 0b 44
        E 16 b0 0b 3b
        E 16 b0 0b 33
        E 16 b0 0b 2a
        E 16 b0 0b 22
        E 16 b0 0b 2a
        E 16 b0 0b 33
        E 16 b0 0b 3b
        E 16 b0 0b 44
        E 16 b0 0b 3b
        E 16 b0 0b 33
        E 16 b0 0b 2a
        E 16 b0 0b 22
        E 16 b0 0b 2a
        E 16 b0 0b 33
        E 16 b0 0b 3b
        E 16 b0 0b 44
        E 16 b0 0b 4c
        E 16 b0 0b 55
        E 16 b0 0b 5d
        E 368 b0 0b 66
        E 16 b0 0b 5d
        E 16 b0 0b 55
        E 16 b0 0b 4c
        E 16 b0 0b 44
        E 16 b0 0b 3b
        E 16 b0 0b 33
        E 16 b0 0b 2a
        E 16 b0 0b 22
        E 16 b0 0b 2a
        E 16 b0 0b 33
        E 16 b0 0b 3b
        E 16 b0 0b 44
        E 16 b0 0b 3b
        E 16 b0 0b 33
        E 16 b0 0b 2a
        E 16 b0 0b 22
        E 16 b0 0b 2a
        E 16 b0 0b 66
        E 0 80 3e 00
        E 0 90 40 66
        E 16 b0 0b 5d
        E 16 b0 0b 55
        E 16 b0 0b 4c
        E 16 b0 0b 44
        E 16 b0 0b 3b
        E 16 b0 0b 33
        E 16 b0 0b 2a
        E 16 b0 0b 22
        E 16 b0 0b 2a
        E 16 b0 0b 33
        E 16 b0 0b 3b
        E 16 b0 0b 44
        E 16 b0 0b 3b
        E 16 b0 0b 33
        E 16 b0 0b 2a
        E 16 b0 0b 22
        E 16 b0 0b 2a
        E 16 b0 0b 66
        E 0 80 40 00
        E 0 90 3e 66
        E 16 b0 0b 5d
        E 16 b0 0b 55
        E 16 b0 0b 4c
        E 16 b0 0b 44
        E 16 b0 0b 3b
        E 16 b0 0b 33
        E 16 b0 0b 2a
        E 16 b0 0b 22
        E 16 b0 0b 2a
        E 16 b0 0b 33
        E 16 b0 0b 3b
        E 16 b0 0b 44
        E 16 b0 0b 3b
        E 16 b0 0b 33
        E 16 b0 0b 2a
        E 16 b0 0b 22
        E 16 b0 0b 2a
        E 16 b0 0b 66
        E 0 80 3e 00
        E 0 90 3d 66
        E 16 b0 0b 5d
        E 16 b0 0b 55
        E 16 b0 0b 4c
        E 16 b0 0b 44
        E 16 b0 0b 3b
        E 16 b0 0b 33
        E 16 b0 0b 2a
        E 16 b0 0b 22
        E 16 b0 0b 2a
        E 16 b0 0b 33
        E 16 b0 0b 3b
        E 16 b0 0b 44
        E 16 b0 0b 3b
        E 16 b0 0b 33
        E 16 b0 0b 2a
        E 16 b0 0b 22
        E 16 b0 0b 2a
        E 16 b0 0b 66
        E 0 80 3d 00
        E 0 90 3b 66
        E 16 b0 0b 5d
        E 16 b0 0b 55
        E 16 b0 0b 4c
        E 16 b0 0b 44
        E 16 b0 0b 3b
        E 16 b0 0b 33
        E 16 b0 0b 2a
        E 16 b0 0b 22
        E 16 b0 0b 2a
        E 16 b0 0b 33
        E 16 b0 0b 3b
        E 16 b0 0b 44
        E 16 b0 0b 3b
        E 16 b0 0b 33
        E 16 b0 0b 2a
        E 16 b0 0b 22
        E 16 b0 0b 2a
        E 16 b0 0b 66
        E 0 80 3b 00
        E 0 90 3d 66
        E 16 b0 0b 5d
        E 16 b0 0b 55
        E 16 b0 0b 4c
        E 16 b0 0b 44
        E 16 b0 0b 3b
        E 16 b0 0b 33
        E 16 b0 0b 2a
        E 16 b0 0b 22
        E 16 b0 0b 2a
        E 16 b0 0b 33
        E 16 b0 0b 3b
        E 16 b0 0b 44
        E 16 b0 0b 3b
        E 16 b0 0b 33
        E 16 b0 0b 2a
        E 16 b0 0b 22
        E 16 b0 0b 2a
        E 16 b0 0b 33
        E 16 b0 0b 3b
        E 16 b0 0b 44
        E 16 b0 0b 3b
        E 16 b0 0b 33
        E 16 b0 0b 2a
        E 16 b0 0b 22
        E 16 b0 0b 2a
        E 16 b0 0b 33
        E 16 b0 0b 3b
        E 16 b0 0b 44
        E 16 b0 0b 4c
        E 16 b0 0b 55
        E 16 b0 0b 5d
        E 80 b0 0b 66
        E 0 80 3d 00
        E 0 90 36 66
        E 16 b0 0b 5d
        E 16 b0 0b 55
        E 16 b0 0b 4c
        E 16 b0 0b 44
        E 16 b0 0b 3b
        E 16 b0 0b 33
        E 16 b0 0b 2a
        E 16 b0 0b 22
        E 16 b0 0b 2a
        E 16 b0 0b 33
        E 16 b0 0b 3b
        E 16 b0 0b 44
        E 16 b0 0b 3b
        E 16 b0 0b 33
        E 16 b0 0b 2a
        E 16 b0 0b 22
        E 16 b0 0b 2a
        E 16 b0 0b 33
        E 16 b0 0b 3b
        E 16 b0 0b 44
        E 16 b0 0b 3b
        E 16 b0 0b 33
        E 16 b0 0b 2a
        E 16 b0 0b 22
        E 16 b0 0b 2a
        E 16 b0 0b 33
        E 16 b0 0b 3b
        E 16 b0 0b 44
        E 16 b0 0b 4c
        E 16 b0 0b 55
        E 16 b0 0b 5d
        E 1232 b0 0b 66
        E 0 80 36 00
        E 0 90 3b 66
        E 16 b0 0b 5d
        E 16 b0 0b 55
        E 16 b0 0b 4c
        E 16 b0 0b 44
        E 16 b0 0b 3b
        E 16 b0 0b 33
        E 16 b0 0b 2a
        E 16 b0 0b 22
        E 16 b0 0b 2a
        E 16 b0 0b 33
        E 16 b0 0b 3b
        E 16 b0 0b 44
        E 16 b0 0b 3b
        E 16 b0 0b 33
        E 16 b0 0b 2a
        E 16 b0 0b 22
        E 16 b0 0b 2a
        E 16 b0 0b 33
        E 16 b0 0b 3b
        E 16 b0 0b 44
        E 16 b0 0b 3b
        E 16 b0 0b 33
        E 16 b0 0b 2a
        E 16 b0 0b 22
        E 16 b0 0b 2a
        E 16 b0 0b 33
        E 16 b0 0b 3b
        E 16 b0 0b 44
        E 16 b0 0b 4c
        E 16 b0 0b 55
        E 16 b0 0b 5d
        E 368 b0 0b 66
        E 0 80 3b 00
        E 0 90 3d 66
        E 16 b0 0b 5d
        E 16 b0 0b 55
        E 16 b0 0b 4c
        E 16 b0 0b 44
        E 16 b0 0b 3b
        E 16 b0 0b 33
        E 16 b0 0b 2a
        E 16 b0 0b 22
        E 16 b0 0b 2a
        E 16 b0 0b 33
        E 16 b0 0b 3b
        E 16 b0 0b 44
        E 16 b0 0b 3b
        E 16 b0 0b 33
        E 16 b0 0b 2a
        E 16 b0 0b 22
        E 16 b0 0b 2a
        E 16 b0 0b 66
        E 0 80 3d 00
        E 0 90 3e 66
        E 16 b0 0b 5d
        E 16 b0 0b 55
        E 16 b0 0b 4c
        E 16 b0 0b 44
        E 16 b0 0b 3b
        E 16 b0 0b 33
        E 16 b0 0b 2a
        E 16 b0 0b 22
        E 16 b0 0b 2a
        E 16 b0 0b 33
        E 16 b0 0b 3b
        E 16 b0 0b 44
        E 16 b0 0b 3b
        E 16 b0 0b 33
        E 16 b0 0b 2a
        E 16 b0 0b 22
        E 16 b0 0b 2a
        E 16 b0 0b 33
        E 16 b0 0b 3b
        E 16 b0 0b 44
        E 16 b0 0b 3b
        E 16 b0 0b 33
        E 16 b0 0b 2a
        E 16 b0 0b 22
        E 16 b0 0b 2a
        E 16 b0 0b 33
        E 16 b0 0b 3b
        E 16 b0 0b 44
        E 16 b0 0b 4c
        E 16 b0 0b 55
        E 16 b0 0b 5d
        E 80 b0 0b 66
        E 0 80 3e 00
        E 0 90 40 66
        E 16 b0 0b 5d
        E 16 b0 0b 55
        E 16 b0 0b 4c
        E 16 b0 0b 44
        E 16 b0 0b 3b
        E 16 b0 0b 33
        E 16 b0 0b 2a
        E 16 b0 0b 22
        E 16 b0 0b 2a
        E 16 b0 0b 33
        E 16 b0 0b 3b
        E 16 b0 0b 44
        E 16 b0 0b 3b
        E 16 b0 0b 33
        E 16 b0 0b 2a
        E 16 b0 0b 22
        E 16 b0 0b 2a
        E 16 b0 0b 33
        E 16 b0 0b 3b
        E 16 b0 0b 44
        E 16 b0 0b 3b
        E 16 b0 0b 33
        E 16 b0 0b 2a
        E 16 b0 0b 22
        E 16 b0 0b 2a
        E 16 b0 0b 33
        E 16 b0 0b 3b
        E 16 b0 0b 44
        E 16 b0 0b 4c
        E 16 b0 0b 55
        E 16 b0 0b 5d
        E 80 b0 0b 66
        E 0 80 40 00
        E 0 90 42 66
        E 16 b0 0b 5d
        E 16 b0 0b 55
        E 16 b0 0b 4c
        E 16 b0 0b 44
        E 16 b0 0b 3b
        E 16 b0 0b 33
        E 16 b0 0b 2a
        E 16 b0 0b 22
        E 16 b0 0b 2a
        E 16 b0 0b 33
        E 16 b0 0b 3b
        E 16 b0 0b 44
        E 16 b0 0b 3b
        E 16 b0 0b 33
        E 16 b0 0b 2a
        E 16 b0 0b 22
        E 16 b0 0b 2a
        E 16 b0 0b 33
        E 16 b0 0b 3b
        E 16 b0 0b 44
        E 16 b0 0b 3b
        E 16 b0 0b 33
        E 16 b0 0b 2a
        E 16 b0 0b 22
        E 16 b0 0b 2a
        E 16 b0 0b 33
        E 16 b0 0b 3b
        E 16 b0 0b 44
        E 16 b0 0b 4c
        E 16 b0 0b 55
        E 16 b0 0b 5d
        E 80 b0 0b 66
        E 0 80 42 00
        E 0 90 43 66
        E 16 b0 0b 5d
        E 16 b0 0b 55
        E 16 b0 0b 4c
        E 16 b0 0b 44
        E 16 b0 0b 3b
        E 16 b0 0b 33
        E 16 b0 0b 2a
        E 16 b0 0b 22
        E 16 b0 0b 2a
        E 16 b0 0b 33
        E 16 b0 0b 3b
        E 16 b0 0b 44
        E 16 b0 0b 3b
        E 16 b0 0b 33
        E 16 b0 0b 2a
        E 16 b0 0b 22
        E 16 b0 0b 2a
        E 16 b0 0b 33
        E 16 b0 0b 3b
        E 16 b0 0b 44
        E 16 b0 0b 3b
        E 16 b0 0b 33
        E 16 b0 0b 2a
        E 16 b0 0b 22
        E 16 b0 0b 2a
        E 16 b0 0b 33
        E 16 b0 0b 3b
        E 16 b0 0b 44
        E 16 b0 0b 4c
        E 16 b0 0b 55
        E 16 b0 0b 5d
        E 80 b0 0b 66
        E 0 80 43 00
        E 0 90 45 66
        E 16 b0 0b 5d
        E 16 b0 0b 55
        E 16 b0 0b 4c
        E 16 b0 0b 44
        E 16 b0 0b 3b
        E 16 b0 0b 33
        E 16 b0 0b 2a
        E 16 b0 0b 22
        E 16 b0 0b 2a
        E 16 b0 0b 33
        E 16 b0 0b 3b
        E 16 b0 0b 44
        E 16 b0 0b 3b
        E 16 b0 0b 33
        E 16 b0 0b 2a
        E 16 b0 0b 22
        E 16 b0 0b 2a
        E 16 b0 0b 33
        E 16 b0 0b 3b
        E 16 b0 0b 44
        E 16 b0 0b 3b
        E 16 b0 0b 33
        E 16 b0 0b 2a
        E 16 b0 0b 22
        E 16 b0 0b 2a
        E 16 b0 0b 33
        E 16 b0 0b 3b
        E 16 b0 0b 44
        E 16 b0 0b 4c
        E 16 b0 0b 55
        E 16 b0 0b 5d
        E 80 b0 0b 66
        E 0 80 45 00
        E 0 90 43 66
        E 16 b0 0b 5d
        E 16 b0 0b 55
        E 16 b0 0b 4c
        E 16 b0 0b 44
        E 16 b0 0b 3b
        E 16 b0 0b 33
        E 16 b0 0b 2a
        E 16 b0 0b 22
        E 16 b0 0b 2a
        E 16 b0 0b 33
        E 16 b0 0b 3b
        E 16 b0 0b 44
        E 16 b0 0b 3b
        E 16 b0 0b 33
        E 16 b0 0b 2a
        E 16 b0 0b 22
        E 16 b0 0b 2a
        E 16 b0 0b 66
        E 0 80 43 00
        E 0 90 42 66
        E 16 b0 0b 5d
        E 16 b0 0b 55
        E 16 b0 0b 4c
        E 16 b0 0b 44
        E 16 b0 0b 3b
        E 16 b0 0b 33
        E 16 b0 0b 2a
        E 16 b0 0b 22
        E 16 b0 0b 2a
        E 16 b0 0b 33
        E 16 b0 0b 3b
        E 16 b0 0b 44
        E 16 b0 0b 3b
        E 16 b0 0b 33
        E 16 b0 0b 2a
        E 16 b0 0b 22
        E 16 b0 0b 2a
        E 16 b0 0b 66
        E 0 80 42 00
        E 0 90 40 66
        E 16 b0 0b 5d
        E 16 b0 0b 55
        E 16 b0 0b 4c
        E 16 b0 0b 44
        E 16 b0 0b 3b
        E 16 b0 0b 33
        E 16 b0 0b 2a
        E 16 b0 0b 22
        E 16 b0 0b 2a
        E 16 b0 0b 33
        E 16 b0 0b 3b
        E 16 b0 0b 44
        E 16 b0 0b 3b
        E 16 b0 0b 33
        E 16 b0 0b 2a
        E 16 b0 0b 22
        E 16 b0 0b 2a
        E 16 b0 0b 33
        E 16 b0 0b 3b
        E 16 b0 0b 44
        E 16 b0 0b 3b
        E 16 b0 0b 33
        E 16 b0 0b 2a
        E 16 b0 0b 22
        E 16 b0 0b 2a
        E 16 b0 0b 33
        E 16 b0 0b 3b
        E 16 b0 0b 44
        E 16 b0 0b 4c
        E 16 b0 0b 55
        E 16 b0 0b 5d
        E 80 b0 0b 66
        E 0 80 40 00
        E 0 90 3b 66
        E 16 b0 0b 5d
        E 16 b0 0b 55
        E 16 b0 0b 4c
        E 16 b0 0b 44
        E 16 b0 0b 3b
        E 16 b0 0b 33
        E 16 b0 0b 2a
        E 16 b0 0b 22
        E 16 b0 0b 2a
        E 16 b0 0b 33
        E 16 b0 0b 3b
        E 16 b0 0b 44
        E 16 b0 0b 3b
        E 16 b0 0b 33
        E 16 b0 0b 2a
        E 16 b0 0b 22
        E 16 b0 0b 2a
        E 16 b0 0b 33
        E 16 b0 0b 3b
        E 16 b0 0b 44
        E 16 b0 0b 3b
        E 16 b0 0b 33
        E 16 b0 0b 2a
        E 16 b0 0b 22
        E 16 b0 0b 2a
        E 16 b0 0b 33
        E 16 b0 0b 3b
        E 16 b0 0b 44
        E 16 b0 0b 4c
        E 16 b0 0b 55
        E 16 b0 0b 5d
        E 368 b0 0b 66
        E 16 b0 0b 5d
        E 16 b0 0b 55
        E 16 b0 0b 4c
        E 16 b0 0b 44
        E 16 b0 0b 3b
        E 16 b0 0b 33
        E 16 b0 0b 2a
        E 16 b0 0b 22
        E 16 b0 0b 2a
        E 16 b0 0b 33
        E 16 b0 0b 3b
        E 16 b0 0b 44
        E 16 b0 0b 3b
        E 16 b0 0b 33
        E 16 b0 0b 2a
        E 16 b0 0b 22
        E 16 b0 0b 2a
        E 16 b0 0b 66
        E 0 80 3b 00
        E 0 90 3d 66
        E 16 b0 0b 5d
        E 16 b0 0b 55
        E 16 b0 0b 4c
        E 16 b0 0b 44
        E 16 b0 0b 3b
        E 16 b0 0b 33
        E 16 b0 0b 2a
        E 16 b0 0b 22
        E 16 b0 0b 2a
        E 16 b0 0b 33
        E 16 b0 0b 3b
        E 16 b0 0b 44
        E 16 b0 0b 3b
        E 16 b0 0b 33
        E 16 b0 0b 2a
        E 16 b0 0b 22
        E 16 b0 0b 2a
        E 16 b0 0b 66
        E 0 80 3d 00
        E 0 90 3e 66
        E 16 b0 0b 5d
        E 16 b0 0b 55
        E 16 b0 0b 4c
        E 16 b0 0b 44
        E 16 b0 0b 3b
        E 16 b0 0b 33
        E 16 b0 0b 2a
        E 16 b0 0b 22
        E 16 b0 0b 2a
        E 16 b0 0b 33
        E 16 b0 0b 3b
        E 16 b0 0b 44
        E 16 b0 0b 3b
        E 16 b0 0b 33
        E 16 b0 0b 2a
        E 16 b0 0b 22
        E 16 b0 0b 2a
        E 16 b0 0b 66
        E 0 80 3e 00
        E 0 90 42 66
        E 16 b0 0b 5d
        E 16 b0 0b 55
        E 16 b0 0b 4c
        E 16 b0 0b 44
        E 16 b0 0b 3b
        E 16 b0 0b 33
        E 16 b0 0b 2a
        E 16 b0 0b 22
        E 16 b0 0b 2a
        E 16 b0 0b 33
        E 16 b0 0b 3b
        E 16 b0 0b 44
        E 16 b0 0b 3b
        E 16 b0 0b 33
        E 16 b0 0b 2a
        E 16 b0 0b 22
        E 16 b0 0b 2a
        E 16 b0 0b 33
        E 16 b0 0b 3b
        E 16 b0 0b 44
        E 16 b0 0b 3b
        E 16 b0 0b 33
        E 16 b0 0b 2a
        E 16 b0 0b 22
        E 16 b0 0b 2a
        E 16 b0 0b 33
        E 16 b0 0b 3b
        E 16 b0 0b 44
        E 16 b0 0b 4c
        E 16 b0 0b 55
        E 16 b0 0b 5d
        E 656 b0 0b 66
        E 0 80 42 00
        E 0 90 40 66
        E 16 b0 0b 5d
        E 16 b0 0b 55
        E 16 b0 0b 4c
        E 16 b0 0b 44
        E 16 b0 0b 3b
        E 16 b0 0b 33
        E 16 b0 0b 2a
        E 16 b0 0b 22
        E 16 b0 0b 2a
        E 16 b0 0b 33
        E 16 b0 0b 3b
        E 16 b0 0b 44
        E 16 b0 0b 3b
        E 16 b0 0b 33
        E 16 b0 0b 2a
        E 16 b0 0b 22
        E 16 b0 0b 2a
        E 16 b0 0b 33
        E 16 b0 0b 3b
        E 16 b0 0b 44
        E 16 b0 0b 3b
        E 16 b0 0b 33
        E 16 b0 0b 2a
        E 16 b0 0b 22
        E 16 b0 0b 2a
        E 16 b0 0b 33
        E 16 b0 0b 3b
        E 16 b0 0b 44
        E 16 b0 0b 4c
        E 16 b0 0b 55
        E 16 b0 0b 5d
        E 656 b0 0b 66
        E 0 80 40 00
        E 0 90 42 66
        E 16 b0 0b 5d
        E 16 b0 0b 55
        E 16 b0 0b 4c
        E 16 b0 0b 44
        E 16 b0 0b 3b
        E 16 b0 0b 33
        E 16 b0 0b 2a
        E 16 b0 0b 22
        E 16 b0 0b 2a
        E 16 b0 0b 33
        E 16 b0 0b 3b
        E 16 b0 0b 44
        E 16 b0 0b 3b
        E 16 b0 0b 33
        E 16 b0 0b 2a
        E 16 b0 0b 22
        E 16 b0 0b 2a
        E 16 b0 0b 33
        E 16 b0 0b 3b
        E 16 b0 0b 44
        E 16 b0 0b 3b
        E 16 b0 0b 33
        E 16 b0 0b 2a
        E 16 b0 0b 22
        E 16 b0 0b 2a
        E 16 b0 0b 33
        E 16 b0 0b 3b
        E 16 b0 0b 44
        E 16 b0 0b 4c
        E 16 b0 0b 55
        E 16 b0 0b 5d
        E 368 b0 0b 66
        E 16 b0 0b 5d
        E 16 b0 0b 55
        E 16 b0 0b 4c
        E 16 b0 0b 44
        E 16 b0 0b 3b
        E 16 b0 0b 33
        E 16 b0 0b 2a
        E 16 b0 0b 22
        E 16 b0 0b 2a
        E 16 b0 0b 33
        E 16 b0 0b 3b
        E 16 b0 0b 44
        E 16 b0 0b 3b
        E 16 b0 0b 33
        E 16 b0 0b 2a
        E 16 b0 0b 22
        E 16 b0 0b 2a
        E 16 b0 0b 66
        E 0 80 42 00
        E 0 90 43 66
        E 16 b0 0b 5d
        E 16 b0 0b 55
        E 16 b0 0b 4c
        E 16 b0 0b 44
        E 16 b0 0b 3b
        E 16 b0 0b 33
        E 16 b0 0b 2a
        E 16 b0 0b 22
        E 16 b0 0b 2a
        E 16 b0 0b 33
        E 16 b0 0b 3b
        E 16 b0 0b 44
        E 16 b0 0b 3b
        E 16 b0 0b 33
        E 16 b0 0b 2a
        E 16 b0 0b 22
        E 16 b0 0b 2a
        E 16 b0 0b 66
        E 0 80 43 00
        E 0 90 42 66
        E 16 b0 0b 5d
        E 16 b0 0b 55
        E 16 b0 0b 4c
        E 16 b0 0b 44
        E 16 b0 0b 3b
        E 16 b0 0b 33
        E 16 b0 0b 2a
        E 16 b0 0b 22
        E 16 b0 0b 2a
        E 16 b0 0b 33
        E 16 b0 0b 3b
        E 16 b0 0b 44
        E 16 b0 0b 3b
        E 16 b0 0b 33
        E 16 b0 0b 2a
        E 16 b0 0b 22
        E 16 b0 0b 2a
        E 16 b0 0b 66
        E 0 80 42 00
        E 0 90 40 66
        E 16 b0 0b 5d
        E 16 b0 0b 55
        E 16 b0 0b 4c
        E 16 b0 0b 44
        E 16 b0 0b 3b
        E 16 b0 0b 33
        E 16 b0 0b 2a
        E 16 b0 0b 22
        E 16 b0 0b 2a
        E 16 b0 0b 33
        E 16 b0 0b 3b
        E 16 b0 0b 44
        E 16 b0 0b 3b
        E 16 b0 0b 33
        E 16 b0 0b 2a
        E 16 b0 0b 22
        E 16 b0 0b 2a
        E 16 b0 0b 66
        E 0 80 40 00
        E 0 90 3e 66
        E 16 b0 0b 5d
        E 16 b0 0b 55
        E 16 b0 0b 4c
        E 16 b0 0b 44
        E 16 b0 0b 3b
        E 16 b0 0b 33
        E 16 b0 0b 2a
        E 16 b0 0b 22
        E 16 b0 0b 2a
        E 16 b0 0b 33
        E 16 b0 0b 3b
        E 16 b0 0b 44
        E 16 b0 0b 3b
        E 16 b0 0b 33
        E 16 b0 0b 2a
        E 16 b0 0b 22
        E 16 b0 0b 2a
        E 16 b0 0b 66
        E 0 80 3e 00
        E 0 90 40 66
        E 16 b0 0b 5d
        E 16 b0 0b 55
        E 16 b0 0b 4c
        E 16 b0 0b 44
        E 16 b0 0b 3b
        E 16 b0 0b 33
        E 16 b0 0b 2a
        E 16 b0 0b 22
        E 16 b0 0b 2a
        E 16 b0 0b 33
        E 16 b0 0b 3b
        E 16 b0 0b 44
        E 16 b0 0b 3b
        E 16 b0 0b 33
        E 16 b0 0b 2a
        E 16 b0 0b 22
        E 16 b0 0b 2a
        E 16 b0 0b 33
        E 16 b0 0b 3b
        E 16 b0 0b 44
        E 16 b0 0b 3b
        E 16 b0 0b 33
        E 16 b0 0b 2a
        E 16 b0 0b 22
        E 16 b0 0b 2a
        E 16 b0 0b 33
        E 16 b0 0b 3b
        E 16 b0 0b 44
        E 16 b0 0b 4c
        E 16 b0 0b 55
        E 16 b0 0b 5d
        E 80 b0 0b 66
        E 0 80 40 00
        E 0 90 39 66
        E 16 b0 0b 5d
        E 16 b0 0b 55
        E 16 b0 0b 4c
        E 16 b0 0b 44
        E 16 b0 0b 3b
        E 16 b0 0b 33
        E 16 b0 0b 2a
        E 16 b0 0b 22
        E 16 b0 0b 2a
        E 16 b0 0b 33
        E 16 b0 0b 3b
        E 16 b0 0b 44
        E 16 b0 0b 3b
        E 16 b0 0b 33
        E 16 b0 0b 2a
        E 16 b0 0b 22
        E 16 b0 0b 2a
        E 16 b0 0b 33
        E 16 b0 0b 3b
        E 16 b0 0b 44
        E 16 b0 0b 3b
        E 16 b0 0b 33
        E 16 b0 0b 2a
        E 16 b0 0b 22
        E 16 b0 0b 2a
        E 16 b0 0b 33
        E 16 b0 0b 3b
        E 16 b0 0b 44
        E 16 b0 0b 4c
        E 16 b0 0b 55
        E 16 b0 0b 5d
        E 1232 b0 0b 66
        E 0 80 39 00
        E 0 90 3e 66
        E 16 b0 0b 5d
        E 16 b0 0b 55
        E 16 b0 0b 4c
        E 16 b0 0b 44
        E 16 b0 0b 3b
        E 16 b0 0b 33
        E 16 b0 0b 2a
        E 16 b0 0b 22
        E 16 b0 0b 2a
        E 16 b0 0b 33
        E 16 b0 0b 3b
        E 16 b0 0b 44
        E 16 b0 0b 3b
        E 16 b0 0b 33
        E 16 b0 0b 2a
        E 16 b0 0b 22
        E 16 b0 0b 2a
        E 16 b0 0b 33
        E 16 b0 0b 3b
        E 16 b0 0b 44
        E 16 b0 0b 3b
        E 16 b0 0b 33
        E 16 b0 0b 2a
        E 16 b0 0b 22
        E 16 b0 0b 2a
        E 16 b0 0b 33
        E 16 b0 0b 3b
        E 16 b0 0b 44
        E 16 b0 0b 4c
        E 16 b0 0b 55
        E 16 b0 0b 5d
        E 368 b0 0b 66
        E 16 b0 0b 5d
        E 16 b0 0b 55
        E 16 b0 0b 4c
        E 16 b0 0b 44
        E 16 b0 0b 3b
        E 16 b0 0b 33
        E 16 b0 0b 2a
        E 16 b0 0b 22
        E 16 b0 0b 2a
        E 16 b0 0b 33
        E 16 b0 0b 3b
        E 16 b0 0b 44
        E 16 b0 0b 3b
        E 16 b0 0b 33
        E 16 b0 0b 2a
        E 16 b0 0b 22
        E 16 b0 0b 2a
        E 16 b0 0b 66
        E 0 80 3e 00
        E 0 90 40 66
        E 16 b0 0b 5d
        E 16 b0 0b 55
        E 16 b0 0b 4c
        E 16 b0 0b 44
        E 16 b0 0b 3b
        E 16 b0 0b 33
        E 16 b0 0b 2a
        E 16 b0 0b 22
        E 16 b0 0b 2a
        E 16 b0 0b 33
        E 16 b0 0b 3b
        E 16 b0 0b 44
        E 16 b0 0b 3b
        E 16 b0 0b 33
        E 16 b0 0b 2a
        E 16 b0 0b 22
        E 16 b0 0b 2a
        E 16 b0 0b 66
        E 0 80 40 00
        E 0 90 3e 66
        E 16 b0 0b 5d
        E 16 b0 0b 55
        E 16 b0 0b 4c
        E 16 b0 0b 44
        E 16 b0 0b 3b
        E 16 b0 0b 33
        E 16 b0 0b 2a
        E 16 b0 0b 22
        E 16 b0 0b 2a
        E 16 b0 0b 33
        E 16 b0 0b 3b
        E 16 b0 0b 44
        E 16 b0 0b 3b
        E 16 b0 0b 33
        E 16 b0 0b 2a
        E 16 b0 0b 22
        E 16 b0 0b 2a
        E 16 b0 0b 66
        E 0 80 3e 00
        E 0 90 3d 66
        E 16 b0 0b 5d
        E 16 b0 0b 55
        E 16 b0 0b 4c
        E 16 b0 0b 44
        E 16 b0 0b 3b
        E 16 b0 0b 33
        E 16 b0 0b 2a
        E 16 b0 0b 22
        E 16 b0 0b 2a
        E 16 b0 0b 33
        E 16 b0 0b 3b
        E 16 b0 0b 44
        E 16 b0 0b 3b
        E 16 b0 0b 33
        E 16 b0 0b 2a
        E 16 b0 0b 22
        E 16 b0 0b 2a
        E 16 b0 0b 66
        E 0 80 3d 00
        E 0 90 3b 66
        E 16 b0 0b 5d
        E 16 b0 0b 55
        E 16 b0 0b 4c
        E 16 b0 0b 44
        E 16 b0 0b 3b
        E 16 b0 0b 33
        E 16 b0 0b 2a
        E 16 b0 0b 22
        E 16 b0 0b 2a
        E 16 b0 0b 33
        E 16 b0 0b 3b
        E 16 b0 0b 44
        E 16 b0 0b 3b
        E 16 b0 0b 33
        E 16 b0 0b 2a
        E 16 b0 0b 22
        E 16 b0 0b 2a
        E 16 b0 0b 66
        E 0 80 3b 00
        E 0 90 3d 66
        E 16 b0 0b 5d
        E 16 b0 0b 55
        E 16 b0 0b 4c
        E 16 b0 0b 44
        E 16 b0 0b 3b
        E 16 b0 0b 33
        E 16 b0 0b 2a
        E 16 b0 0b 22
        E 16 b0 0b 2a
        E 16 b0 0b 33
        E 16 b0 0b 3b
        E 16 b0 0b 44
        E 16 b0 0b 3b
        E 16 b0 0b 33
        E 16 b0 0b 2a
        E 16 b0 0b 22
        E 16 b0 0b 2a
        E 16 b0 0b 33
        E 16 b0 0b 3b
        E 16 b0 0b 44
        E 16 b0 0b 3b
        E 16 b0 0b 33
        E 16 b0 0b 2a
        E 16 b0 0b 22
        E 16 b0 0b 2a
        E 16 b0 0b 33
        E 16 b0 0b 3b
        E 16 b0 0b 44
        E 16 b0 0b 4c
        E 16 b0 0b 55
        E 16 b0 0b 5d
        E 80 b0 0b 66
        E 0 80 3d 00
        E 0 90 36 66
        E 16 b0 0b 5d
        E 16 b0 0b 55
        E 16 b0 0b 4c
        E 16 b0 0b 44
        E 16 b0 0b 3b
        E 16 b0 0b 33
        E 16 b0 0b 2a
        E 16 b0 0b 22
        E 16 b0 0b 2a
        E 16 b0 0b 33
        E 16 b0 0b 3b
        E 16 b0 0b 44
        E 16 b0 0b 3b
        E 16 b0 0b 33
        E 16 b0 0b 2a
        E 16 b0 0b 22
        E 16 b0 0b 2a
        E 16 b0 0b 33
        E 16 b0 0b 3b
        E 16 b0 0b 44
        E 16 b0 0b 3b
        E 16 b0 0b 33
        E 16 b0 0b 2a
        E 16 b0 0b 22
        E 16 b0 0b 2a
        E 16 b0 0b 33
        E 16 b0 0b 3b
        E 16 b0 0b 44
        E 16 b0 0b 4c
        E 16 b0 0b 55
        E 16 b0 0b 5d
        E 1232 b0 0b 66
        E 0 80 36 00
        E 0 90 3b 66
        E 16 b0 0b 5d
        E 16 b0 0b 55
        E 16 b0 0b 4c
        E 16 b0 0b 44
        E 16 b0 0b 3b
        E 16 b0 0b 33
        E 16 b0 0b 2a
        E 16 b0 0b 22
        E 16 b0 0b 2a
        E 16 b0 0b 33
        E 16 b0 0b 3b
        E 16 b0 0b 44
        E 16 b0 0b 3b
        E 16 b0 0b 33
        E 16 b0 0b 2a
        E 16 b0 0b 22
        E 16 b0 0b 2a
        E 16 b0 0b 33
        E 16 b0 0b 3b
        E 16 b0 0b 44
        E 16 b0 0b 3b
        E 16 b0 0b 33
        E 16 b0 0b 2a
        E 16 b0 0b 22
        E 16 b0 0b 2a
        E 16 b0 0b 33
        E 16 b0 0b 3b
        E 16 b0 0b 44
        E 16 b0 0b 4c
        E 16 b0 0b 55
        E 16 b0 0b 5d
        E 368 b0 0b 66
        E 0 80 3b 00
        E 0 90 3d 66
        E 16 b0 0b 5d
        E 16 b0 0b 55
        E 16 b0 0b 4c
        E 16 b0 0b 44
        E 16 b0 0b 3b
        E 16 b0 0b 33
        E 16 b0 0b 2a
        E 16 b0 0b 22
        E 16 b0 0b 2a
        E 16 b0 0b 33
        E 16 b0 0b 3b
        E 16 b0 0b 44
        E 16 b0 0b 3b
        E 16 b0 0b 33
        E 16 b0 0b 2a
        E 16 b0 0b 22
        E 16 b0 0b 2a
        E 16 b0 0b 66
        E 0 80 3d 00
        E 0 90 3e 66
        E 16 b0 0b 5d
        E 16 b0 0b 55
        E 16 b0 0b 4c
        E 16 b0 0b 44
        E 16 b0 0b 3b
        E 16 b0 0b 33
        E 16 b0 0b 2a
        E 16 b0 0b 22
        E 16 b0 0b 2a
        E 16 b0 0b 33
        E 16 b0 0b 3b
        E 16 b0 0b 44
        E 16 b0 0b 3b
        E 16 b0 0b 33
        E 16 b0 0b 2a
        E 16 b0 0b 22
        E 16 b0 0b 2a
        E 16 b0 0b 33
        E 16 b0 0b 3b
        E 16 b0 0b 44
        E 16 b0 0b 3b
        E 16 b0 0b 33
        E 16 b0 0b 2a
        E 16 b0 0b 22
        E 16 b0 0b 2a
        E 16 b0 0b 33
        E 16 b0 0b 3b
        E 16 b0 0b 44
        E 16 b0 0b 4c
        E 16 b0 0b 55
        E 16 b0 0b 5d
        E 80 b0 0b 66
        E 0 80 3e 00
        E 0 90 40 66
        E 16 b0 0b 5d
        E 16 b0 0b 55
        E 16 b0 0b 4c
        E 16 b0 0b 44
        E 16 b0 0b 3b
        E 16 b0 0b 33
        E 16 b0 0b 2a
        E 16 b0 0b 22
        E 16 b0 0b 2a
        E 16 b0 0b 33
        E 16 b0 0b 3b
        E 16 b0 0b 44
        E 16 b0 0b 3b
        E 16 b0 0b 33
        E 16 b0 0b 2a
        E 16 b0 0b 22
        E 16 b0 0b 2a
        E 16 b0 0b 33
        E 16 b0 0b 3b
        E 16 b0 0b 44
        E 16 b0 0b 3b
        E 16 b0 0b 33
        E 16 b0 0b 2a
        E 16 b0 0b 22
        E 16 b0 0b 2a
        E 16 b0 0b 33
        E 16 b0 0b 3b
        E 16 b0 0b 44
        E 16 b0 0b 4c
        E 16 b0 0b 55
        E 16 b0 0b 5d
        E 80 b0 0b 66
        E 0 80 40 00
        E 0 90 42 66
        E 16 b0 0b 5d
        E 16 b0 0b 55
        E 16 b0 0b 4c
        E 16 b0 0b 44
        E 16 b0 0b 3b
        E 16 b0 0b 33
        E 16 b0 0b 2a
        E 16 b0 0b 22
        E 16 b0 0b 2a
        E 16 b0 0b 33
        E 16 b0 0b 3b
        E 16 b0 0b 44
        E 16 b0 0b 3b
        E 16 b0 0b 33
        E 16 b0 0b 2a
        E 16 b0 0b 22
        E 16 b0 0b 2a
        E 16 b0 0b 33
        E 16 b0 0b 3b
        E 16 b0 0b 44
        E 16 b0 0b 3b
        E 16 b0 0b 33
        E 16 b0 0b 2a
        E 16 b0 0b 22
        E 16 b0 0b 2a
        E 16 b0 0b 33
        E 16 b0 0b 3b
        E 16 b0 0b 44
        E 16 b0 0b 4c
        E 16 b0 0b 55
        E 16 b0 0b 5d
        E 80 b0 0b 66
        E 0 80 42 00
        E 0 90 43 66
        E 16 b0 0b 5d
        E 16 b0 0b 55
        E 16 b0 0b 4c
        E 16 b0 0b 44
        E 16 b0 0b 3b
        E 16 b0 0b 33
        E 16 b0 0b 2a
        E 16 b0 0b 22
        E 16 b0 0b 2a
        E 16 b0 0b 33
        E 16 b0 0b 3b
        E 16 b0 0b 44
        E 16 b0 0b 3b
        E 16 b0 0b 33
        E 16 b0 0b 2a
        E 16 b0 0b 22
        E 16 b0 0b 2a
        E 16 b0 0b 33
        E 16 b0 0b 3b
        E 16 b0 0b 44
        E 16 b0 0b 3b
        E 16 b0 0b 33
        E 16 b0 0b 2a
        E 16 b0 0b 22
        E 16 b0 0b 2a
        E 16 b0 0b 33
        E 16 b0 0b 3b
        E 16 b0 0b 44
        E 16 b0 0b 4c
        E 16 b0 0b 55
        E 16 b0 0b 5d
        E 80 b0 0b 66
        E 0 80 43 00
        E 0 90 45 66
        E 16 b0 0b 5d
        E 16 b0 0b 55
        E 16 b0 0b 4c
        E 16 b0 0b 44
        E 16 b0 0b 3b
        E 16 b0 0b 33
        E 16 b0 0b 2a
        E 16 b0 0b 22
        E 16 b0 0b 2a
        E 16 b0 0b 33
        E 16 b0 0b 3b
        E 16 b0 0b 44
        E 16 b0 0b 3b
        E 16 b0 0b 33
        E 16 b0 0b 2a
        E 16 b0 0b 22
        E 16 b0 0b 2a
        E 16 b0 0b 33
        E 16 b0 0b 3b
        E 16 b0 0b 44
        E 16 b0 0b 3b
        E 16 b0 0b 33
        E 16 b0 0b 2a
        E 16 b0 0b 22
        E 16 b0 0b 2a
        E 16 b0 0b 33
        E 16 b0 0b 3b
        E 16 b0 0b 44
        E 16 b0 0b 4c
        E 16 b0 0b 55
        E 16 b0 0b 5d
        E 80 b0 0b 66
        E 0 80 45 00
        E 0 90 43 66
        E 16 b0 0b 5d
        E 16 b0 0b 55
        E 16 b0 0b 4c
        E 16 b0 0b 44
        E 16 b0 0b 3b
        E 16 b0 0b 33
        E 16 b0 0b 2a
        E 16 b0 0b 22
        E 16 b0 0b 2a
        E 16 b0 0b 33
        E 16 b0 0b 3b
        E 16 b0 0b 44
        E 16 b0 0b 3b
        E 16 b0 0b 33
        E 16 b0 0b 2a
        E 16 b0 0b 22
        E 16 b0 0b 2a
        E 16 b0 0b 66
        E 0 80 43 00
        E 0 90 42 66
        E 16 b0 0b 5d
        E 16 b0 0b 55
        E 16 b0 0b 4c
        E 16 b0 0b 44
        E 16 b0 0b 3b
        E 16 b0 0b 33
        E 16 b0 0b 2a
        E 16 b0 0b 22
        E 16 b0 0b 2a
        E 16 b0 0b 33
        E 16 b0 0b 3b
        E 16 b0 0b 44
        E 16 b0 0b 3b
        E 16 b0 0b 33
        E 16 b0 0b 2a
        E 16 b0 0b 22
        E 16 b0 0b 2a
        E 16 b0 0b 66
        E 0 80 42 00
        E 0 90 40 66
        E 16 b0 0b 5d
        E 16 b0 0b 55
        E 16 b0 0b 4c
        E 16 b0 0b 44
        E 16 b0 0b 3b
        E 16 b0 0b 33
        E 16 b0 0b 2a
        E 16 b0 0b 22
        E 16 b0 0b 2a
        E 16 b0 0b 33
        E 16 b0 0b 3b
        E 16 b0 0b 44
        E 16 b0 0b 3b
        E 16 b0 0b 33
        E 16 b0 0b 2a
        E 16 b0 0b 22
        E 16 b0 0b 2a
        E 16 b0 0b 33
        E 16 b0 0b 3b
        E 16 b0 0b 44
        E 16 b0 0b 3b
        E 16 b0 0b 33
        E 16 b0 0b 2a
        E 16 b0 0b 22
        E 16 b0 0b 2a
        E 16 b0 0b 33
        E 16 b0 0b 3b
        E 16 b0 0b 44
        E 16 b0 0b 4c
        E 16 b0 0b 55
        E 16 b0 0b 5d
        E 80 b0 0b 66
        E 0 80 40 00
        E 0 90 3b 66
        E 16 b0 0b 5d
        E 16 b0 0b 55
        E 16 b0 0b 4c
        E 16 b0 0b 44
        E 16 b0 0b 3b
        E 16 b0 0b 33
        E 16 b0 0b 2a
        E 16 b0 0b 22
        E 16 b0 0b 2a
        E 16 b0 0b 33
        E 16 b0 0b 3b
        E 16 b0 0b 44
        E 16 b0 0b 3b
        E 16 b0 0b 33
        E 16 b0 0b 2a
        E 16 b0 0b 22
        E 16 b0 0b 2a
        E 16 b0 0b 33
        E 16 b0 0b 3b
        E 16 b0 0b 44
        E 16 b0 0b 3b
        E 16 b0 0b 33
        E 16 b0 0b 2a
        E 16 b0 0b 22
        E 16 b0 0b 2a
        E 16 b0 0b 33
        E 16 b0 0b 3b
        E 16 b0 0b 44
        E 16 b0 0b 4c
        E 16 b0 0b 55
        E 16 b0 0b 5d
        E 368 b0 0b 66
        E 16 b0 0b 5d
        E 16 b0 0b 55
        E 16 b0 0b 4c
        E 16 b0 0b 44
        E 16 b0 0b 3b
        E 16 b0 0b 33
        E 16 b0 0b 2a
        E 16 b0 0b 22
        E 16 b0 0b 2a
        E 16 b0 0b 33
        E 16 b0 0b 3b
        E 16 b0 0b 44
        E 16 b0 0b 3b
        E 16 b0 0b 33
        E 16 b0 0b 2a
        E 16 b0 0b 22
        E 16 b0 0b 2a
        E 16 b0 0b 66
        E 0 80 3b 00
        E 0 90 3d 66
        E 16 b0 0b 5d
        E 16 b0 0b 55
        E 16 b0 0b 4c
        E 16 b0 0b 44
        E 16 b0 0b 3b
        E 16 b0 0b 33
        E 16 b0 0b 2a
        E 16 b0 0b 22
        E 16 b0 0b 2a
        E 16 b0 0b 33
        E 16 b0 0b 3b
        E 16 b0 0b 44
        E 16 b0 0b 3b
        E 16 b0 0b 33
        E 16 b0 0b 2a
        E 16 b0 0b 22
        E 16 b0 0b 2a
        E 16 b0 0b 66
        E 0 80 3d 00
        E 0 90 3e 66
        E 16 b0 0b 5d
        E 16 b0 0b 55
        E 16 b0 0b 4c
        E 16 b0 0b 44
        E 16 b0 0b 3b
        E 16 b0 0b 33
        E 16 b0 0b 2a
        E 16 b0 0b 22
        E 16 b0 0b 2a
        E 16 b0 0b 33
        E 16 b0 0b 3b
        E 16 b0 0b 44
        E 16 b0 0b 3b
        E 16 b0 0b 33
        E 16 b0 0b 2a
        E 16 b0 0b 22
        E 16 b0 0b 2a
        E 16 b0 0b 66
        E 0 80 3e 00
        E 0 90 42 66
        E 16 b0 0b 5d
        E 16 b0 0b 55
        E 16 b0 0b 4c
        E 16 b0 0b 44
        E 16 b0 0b 3b
        E 16 b0 0b 33
        E 16 b0 0b 2a
        E 16 b0 0b 22
        E 16 b0 0b 2a
        E 16 b0 0b 33
        E 16 b0 0b 3b
        E 16 b0 0b 44
        E 16 b0 0b 3b
        E 16 b0 0b 33
        E 16 b0 0b 2a
        E 16 b0 0b 22
        E 16 b0 0b 2a
        E 16 b0 0b 33
        E 16 b0 0b 3b
        E 16 b0 0b 44
        E 16 b0 0b 3b
        E 16 b0 0b 33
        E 16 b0 0b 2a
        E 16 b0 0b 22
        E 16 b0 0b 2a
        E 16 b0 0b 33
        E 16 b0 0b 3b
        E 16 b0 0b 44
        E 16 b0 0b 4c
        E 16 b0 0b 55
        E 16 b0 0b 5d
        E 656 b0 0b 66
        E 0 80 42 00
        E 0 90 40 66
        E 16 b0 0b 5d
        E 16 b0 0b 55
        E 16 b0 0b 4c
        E 16 b0 0b 44
        E 16 b0 0b 3b
        E 16 b0 0b 33
        E 16 b0 0b 2a
        E 16 b0 0b 22
        E 16 b0 0b 2a
        E 16 b0 0b 33
        E 16 b0 0b 3b
        E 16 b0 0b 44
        E 16 b0 0b 3b
        E 16 b0 0b 33
        E 16 b0 0b 2a
        E 16 b0 0b 22
        E 16 b0 0b 2a
        E 16 b0 0b 33
        E 16 b0 0b 3b
        E 16 b0 0b 44
        E 16 b0 0b 3b
        E 16 b0 0b 33
        E 16 b0 0b 2a
        E 16 b0 0b 22
        E 16 b0 0b 2a
        E 16 b0 0b 33
        E 16 b0 0b 3b
        E 16 b0 0b 44
        E 16 b0 0b 4c
        E 16 b0 0b 55
        E 16 b0 0b 5d
        E 656 b0 0b 66
        E 0 80 40 00
        E 0 90 42 66
        E 16 b0 0b 5d
        E 16 b0 0b 55
        E 16 b0 0b 4c
        E 16 b0 0b 44
        E 16 b0 0b 3b
        E 16 b0 0b 33
        E 16 b0 0b 2a
        E 16 b0 0b 22
        E 16 b0 0b 2a
        E 16 b0 0b 33
        E 16 b0 0b 3b
        E 16 b0 0b 44
        E 16 b0 0b 3b
        E 16 b0 0b 33
        E 16 b0 0b 2a
        E 16 b0 0b 22
        E 16 b0 0b 2a
        E 16 b0 0b 33
        E 16 b0 0b 3b
        E 16 b0 0b 44
        E 16 b0 0b 3b
        E 16 b0 0b 33
        E 16 b0 0b 2a
        E 16 b0 0b 22
        E 16 b0 0b 2a
        E 16 b0 0b 33
        E 16 b0 0b 3b
        E 16 b0 0b 44
        E 16 b0 0b 4c
        E 16 b0 0b 55
        E 16 b0 0b 5d
        E 368 b0 0b 66
        E 16 b0 0b 5d
        E 16 b0 0b 55
        E 16 b0 0b 4c
        E 16 b0 0b 44
        E 16 b0 0b 3b
        E 16 b0 0b 33
        E 16 b0 0b 2a
        E 16 b0 0b 22
        E 16 b0 0b 2a
        E 16 b0 0b 33
        E 16 b0 0b 3b
        E 16 b0 0b 44
        E 16 b0 0b 3b
        E 16 b0 0b 33
        E 16 b0 0b 2a
        E 16 b0 0b 22
        E 16 b0 0b 2a
        E 16 b0 0b 66
        E 0 80 42 00
        E 0 90 43 66
        E 16 b0 0b 5d
        E 16 b0 0b 55
        E 16 b0 0b 4c
        E 16 b0 0b 44
        E 16 b0 0b 3b
        E 16 b0 0b 33
        E 16 b0 0b 2a
        E 16 b0 0b 22
        E 16 b0 0b 2a
        E 16 b0 0b 33
        E 16 b0 0b 3b
        E 16 b0 0b 44
        E 16 b0 0b 3b
        E 16 b0 0b 33
        E 16 b0 0b 2a
        E 16 b0 0b 22
        E 16 b0 0b 2a
        E 16 b0 0b 66
        E 0 80 43 00
        E 0 90 42 66
        E 16 b0 0b 5d
        E 16 b0 0b 55
        E 16 b0 0b 4c
        E 16 b0 0b 44
        E 16 b0 0b 3b
        E 16 b0 0b 33
        E 16 b0 0b 2a
        E 16 b0 0b 22
        E 16 b0 0b 2a
        E 16 b0 0b 33
        E 16 b0 0b 3b
        E 16 b0 0b 44
        E 16 b0 0b 3b
        E 16 b0 0b 33
        E 16 b0 0b 2a
        E 16 b0 0b 22
        E 16 b0 0b 2a
        E 16 b0 0b 66
        E 0 80 42 00
        E 0 90 40 66
        E 16 b0 0b 5d
        E 16 b0 0b 55
        E 16 b0 0b 4c
        E 16 b0 0b 44
        E 16 b0 0b 3b
        E 16 b0 0b 33
        E 16 b0 0b 2a
        E 16 b0 0b 22
        E 16 b0 0b 2a
        E 16 b0 0b 33
        E 16 b0 0b 3b
        E 16 b0 0b 44
        E 16 b0 0b 3b
        E 16 b0 0b 33
        E 16 b0 0b 2a
        E 16 b0 0b 22
        E 16 b0 0b 2a
        E 16 b0 0b 66
        E 0 80 40 00
        E 0 90 3e 66
        E 16 b0 0b 5d
        E 16 b0 0b 55
        E 16 b0 0b 4c
        E 16 b0 0b 44
        E 16 b0 0b 3b
        E 16 b0 0b 33
        E 16 b0 0b 2a
        E 16 b0 0b 22
        E 16 b0 0b 2a
        E 16 b0 0b 33
        E 16 b0 0b 3b
        E 16 b0 0b 44
        E 16 b0 0b 3b
        E 16 b0 0b 33
        E 16 b0 0b 2a
        E 16 b0 0b 22
        E 16 b0 0b 2a
        E 16 b0 0b 66
        E 0 80 3e 00
        E 0 90 40 66
        E 16 b0 0b 5d
        E 16 b0 0b 55
        E 16 b0 0b 4c
        E 16 b0 0b 44
        E 16 b0 0b 3b
        E 16 b0 0b 33
        E 16 b0 0b 2a
        E 16 b0 0b 22
        E 16 b0 0b 2a
        E 16 b0 0b 33
        E 16 b0 0b 3b
        E 16 b0 0b 44
        E 16 b0 0b 3b
        E 16 b0 0b 33
        E 16 b0 0b 2a
        E 16 b0 0b 22
        E 16 b0 0b 2a
        E 16 b0 0b 33
        E 16 b0 0b 3b
        E 16 b0 0b 44
        E 16 b0 0b 3b
        E 16 b0 0b 33
        E 16 b0 0b 2a
        E 16 b0 0b 22
        E 16 b0 0b 2a
        E 16 b0 0b 33
        E 16 b0 0b 3b
        E 16 b0 0b 44
        E 16 b0 0b 4c
        E 16 b0 0b 55
        E 16 b0 0b 5d
        E 80 b0 0b 66
        E 0 80 40 00
        E 0 90 39 66
        E 16 b0 0b 5d
        E 16 b0 0b 55
        E 16 b0 0b 4c
        E 16 80 39 00
        E 0 b0 7b 00
        E 0 ff 2f 00
      >
    >
  >
  <TRACK {6E3D8540-888E-4DB0-A57A-D2BB7DEF17D1}
    NAME "NES - Pulse 2 [ch1]"
    PEAKCOL 10092441
    BEAT -1
    AUTOMODE 0
    PANLAWFLAGS 3
    VOLPAN 1 0 -1 -1 1
    MUTESOLO 0 0 0
    IPHASE 0
    PLAYOFFS 0 1
    ISBUS 0 0
    BUSCOMP 0 0 0 0 0
    SHOWINMIX 1 0.6667 0.5 1 0.5 0 0 0
    FIXEDLANES 9 0 0 0 0
    SEL 0
    REC 0 5088 1 0 0 0 0 0
    VU 2
    TRACKHEIGHT 0 0 0 0 0 0 0
    INQ 0 0 0 0.5 100 0 0 100
    NCHAN 2
    FX 1
    TRACKID {6E3D8540-888E-4DB0-A57A-D2BB7DEF17D1}
    PERF 0
    MIDIOUT -1
    MAINSEND 1 0
    <FXCHAIN
      WNDRECT 24 52 700 560
      SHOW 0
      LASTSEL 0
      DOCKED 0
      BYPASS 0 0 0
      <JS "ReapNES Studio/ReapNES_Console.jsfx" ""
        2 15 1 10 80 10 100 2 1 15 1 5 60 10 80 1 1 0 50 0 0 15 1 0 100 0 0 0.500000 0.500000 0.400000 0.300000 0.800000 1 1 0 0 0 0 - - - - - - - - - - - - - - - - - - - - - - - - - -
      >
      FLOATPOS 0 0 0 0
      FXID {BE825C13-388D-43CC-BD4A-D24C46BA4AB5}
      WAK 0 0
    >
    <ITEM
      POSITION 0
      LENGTH 74.5878716
      LOOP 0
      ALLTAKES 0
      FADEIN 0 0 0 0 0 0 0
      FADEOUT 0 0 0 0 0 0 0
      MUTE 0 0
      SEL 0
      IGUID {E699E6C9-5649-4A45-A414-B580D686BCF8}
      <SOURCE MIDI
        HASDATA 1 480 QN
        CCINTERP 32
        E 0 c1 51
        E 64 b1 0c 10
        E 0 b1 0b 3b
        E 0 91 2d 3b
        E 16 b1 0b 22
        E 16 b1 0b 2a
        E 32 b1 0b 33
        E 32 b1 0b 3b
        E 32 b1 0b 44
        E 32 b1 0b 4c
        E 32 b1 0b 55
        E 32 b1 0b 5d
        E 32 b1 0b 66
        E 16 b1 0b 5d
        E 16 b1 0b 22
        E 0 81 2d 00
        E 0 91 36 22
        E 32 b1 0b 2a
        E 32 b1 0b 33
        E 32 b1 0b 3b
        E 32 b1 0b 44
        E 32 b1 0b 4c
        E 32 b1 0b 55
        E 32 b1 0b 5d
        E 32 b1 0b 66
        E 16 b1 0b 5d
        E 16 b1 0b 22
        E 0 81 36 00
        E 0 91 32 22
        E 32 b1 0b 2a
        E 32 b1 0b 33
        E 32 b1 0b 3b
        E 32 b1 0b 44
        E 32 b1 0b 4c
        E 32 b1 0b 55
        E 32 b1 0b 5d
        E 32 b1 0b 66
        E 16 b1 0b 5d
        E 16 b1 0b 22
        E 0 81 32 00
        E 0 91 36 22
        E 32 b1 0b 2a
        E 32 b1 0b 33
        E 32 b1 0b 3b
        E 32 b1 0b 44
        E 32 b1 0b 4c
        E 32 b1 0b 55
        E 32 b1 0b 5d
        E 32 b1 0b 66
        E 16 b1 0b 5d
        E 16 b1 0b 22
        E 0 81 36 00
        E 0 91 2d 22
        E 32 b1 0b 2a
        E 32 b1 0b 33
        E 32 b1 0b 3b
        E 32 b1 0b 44
        E 32 b1 0b 4c
        E 32 b1 0b 55
        E 32 b1 0b 5d
        E 32 b1 0b 66
        E 16 b1 0b 5d
        E 16 b1 0b 22
        E 0 81 2d 00
        E 0 91 36 22
        E 32 b1 0b 2a
        E 32 b1 0b 33
        E 32 b1 0b 3b
        E 32 b1 0b 44
        E 32 b1 0b 4c
        E 32 b1 0b 55
        E 32 b1 0b 5d
        E 32 b1 0b 66
        E 16 b1 0b 5d
        E 16 b1 0b 22
        E 0 81 36 00
        E 0 91 32 22
        E 32 b1 0b 2a
        E 32 b1 0b 33
        E 32 b1 0b 3b
        E 32 b1 0b 44
        E 32 b1 0b 4c
        E 32 b1 0b 55
        E 32 b1 0b 5d
        E 32 b1 0b 66
        E 16 b1 0b 5d
        E 16 b1 0b 22
        E 0 81 32 00
        E 0 91 36 22
        E 32 b1 0b 2a
        E 32 b1 0b 33
        E 32 b1 0b 3b
        E 32 b1 0b 44
        E 32 b1 0b 4c
        E 32 b1 0b 55
        E 32 b1 0b 5d
        E 32 b1 0b 66
        E 16 b1 0b 5d
        E 16 b1 0b 22
        E 0 81 36 00
        E 0 91 31 22
        E 32 b1 0b 2a
        E 32 b1 0b 33
        E 32 b1 0b 3b
        E 32 b1 0b 44
        E 32 b1 0b 4c
        E 32 b1 0b 55
        E 32 b1 0b 5d
        E 32 b1 0b 66
        E 16 b1 0b 5d
        E 16 b1 0b 22
        E 0 81 31 00
        E 0 91 34 22
        E 32 b1 0b 2a
        E 32 b1 0b 33
        E 32 b1 0b 3b
        E 32 b1 0b 44
        E 32 b1 0b 4c
        E 32 b1 0b 55
        E 32 b1 0b 5d
        E 32 b1 0b 66
        E 16 b1 0b 5d
        E 16 b1 0b 22
        E 0 81 34 00
        E 0 91 2d 22
        E 32 b1 0b 2a
        E 32 b1 0b 33
        E 32 b1 0b 3b
        E 32 b1 0b 44
        E 32 b1 0b 4c
        E 32 b1 0b 55
        E 32 b1 0b 5d
        E 32 b1 0b 66
        E 16 b1 0b 5d
        E 16 b1 0b 22
        E 0 81 2d 00
        E 0 91 34 22
        E 32 b1 0b 2a
        E 32 b1 0b 33
        E 32 b1 0b 3b
        E 32 b1 0b 44
        E 32 b1 0b 4c
        E 32 b1 0b 55
        E 32 b1 0b 5d
        E 32 b1 0b 66
        E 16 b1 0b 5d
        E 16 b1 0b 22
        E 0 81 34 00
        E 0 91 2f 22
        E 32 b1 0b 2a
        E 32 b1 0b 33
        E 32 b1 0b 3b
        E 32 b1 0b 44
        E 32 b1 0b 4c
        E 32 b1 0b 55
        E 32 b1 0b 5d
        E 32 b1 0b 66
        E 16 b1 0b 5d
        E 16 b1 0b 22
        E 0 81 2f 00
        E 0 91 34 22
        E 32 b1 0b 2a
        E 32 b1 0b 33
        E 32 b1 0b 3b
        E 32 b1 0b 44
        E 32 b1 0b 4c
        E 32 b1 0b 55
        E 32 b1 0b 5d
        E 32 b1 0b 66
        E 16 b1 0b 5d
        E 16 b1 0b 22
        E 0 81 34 00
        E 0 91 31 22
        E 32 b1 0b 2a
        E 32 b1 0b 33
        E 32 b1 0b 3b
        E 32 b1 0b 44
        E 32 b1 0b 4c
        E 32 b1 0b 55
        E 32 b1 0b 5d
        E 32 b1 0b 66
        E 16 b1 0b 5d
        E 16 b1 0b 22
        E 0 81 31 00
        E 0 91 34 22
        E 32 b1 0b 2a
        E 32 b1 0b 33
        E 32 b1 0b 3b
        E 32 b1 0b 44
        E 32 b1 0b 4c
        E 32 b1 0b 55
        E 32 b1 0b 5d
        E 32 b1 0b 66
        E 16 b1 0b 5d
        E 16 b1 0b 22
        E 0 81 34 00
        E 0 91 2f 22
        E 32 b1 0b 2a
        E 32 b1 0b 33
        E 32 b1 0b 3b
        E 32 b1 0b 44
        E 32 b1 0b 4c
        E 32 b1 0b 55
        E 32 b1 0b 5d
        E 32 b1 0b 66
        E 16 b1 0b 5d
        E 16 b1 0b 22
        E 0 81 2f 00
        E 0 91 36 22
        E 32 b1 0b 2a
        E 32 b1 0b 33
        E 32 b1 0b 3b
        E 32 b1 0b 44
        E 32 b1 0b 4c
        E 32 b1 0b 55
        E 32 b1 0b 5d
        E 32 b1 0b 66
        E 16 b1 0b 5d
        E 16 b1 0b 22
        E 0 81 36 00
        E 0 91 32 22
        E 32 b1 0b 2a
        E 32 b1 0b 33
        E 32 b1 0b 3b
        E 32 b1 0b 44
        E 32 b1 0b 4c
        E 32 b1 0b 55
        E 32 b1 0b 5d
        E 32 b1 0b 66
        E 16 b1 0b 5d
        E 16 b1 0b 22
        E 0 81 32 00
        E 0 91 36 22
        E 32 b1 0b 2a
        E 32 b1 0b 33
        E 32 b1 0b 3b
        E 32 b1 0b 44
        E 32 b1 0b 4c
        E 32 b1 0b 55
        E 32 b1 0b 5d
        E 32 b1 0b 66
        E 16 b1 0b 5d
        E 16 b1 0b 22
        E 0 81 36 00
        E 0 91 2f 22
        E 32 b1 0b 2a
        E 32 b1 0b 33
        E 32 b1 0b 3b
        E 32 b1 0b 44
        E 32 b1 0b 4c
        E 32 b1 0b 55
        E 32 b1 0b 5d
        E 32 b1 0b 66
        E 16 b1 0b 5d
        E 16 b1 0b 22
        E 0 81 2f 00
        E 0 91 36 22
        E 32 b1 0b 2a
        E 32 b1 0b 33
        E 32 b1 0b 3b
        E 32 b1 0b 44
        E 32 b1 0b 4c
        E 32 b1 0b 55
        E 32 b1 0b 5d
        E 32 b1 0b 66
        E 16 b1 0b 5d
        E 16 b1 0b 22
        E 0 81 36 00
        E 0 91 32 22
        E 32 b1 0b 2a
        E 32 b1 0b 33
        E 32 b1 0b 3b
        E 32 b1 0b 44
        E 32 b1 0b 4c
        E 32 b1 0b 55
        E 32 b1 0b 5d
        E 32 b1 0b 66
        E 16 b1 0b 5d
        E 16 b1 0b 22
        E 0 81 32 00
        E 0 91 36 22
        E 32 b1 0b 2a
        E 32 b1 0b 33
        E 32 b1 0b 3b
        E 32 b1 0b 44
        E 32 b1 0b 4c
        E 32 b1 0b 55
        E 32 b1 0b 5d
        E 32 b1 0b 66
        E 16 b1 0b 5d
        E 16 b1 0b 22
        E 0 81 36 00
        E 0 91 2e 22
        E 32 b1 0b 2a
        E 32 b1 0b 33
        E 32 b1 0b 3b
        E 32 b1 0b 44
        E 32 b1 0b 4c
        E 32 b1 0b 55
        E 32 b1 0b 5d
        E 32 b1 0b 66
        E 16 b1 0b 5d
        E 16 b1 0b 22
        E 0 81 2e 00
        E 0 91 31 22
        E 32 b1 0b 2a
        E 32 b1 0b 33
        E 32 b1 0b 3b
        E 32 b1 0b 44
        E 32 b1 0b 4c
        E 32 b1 0b 55
        E 32 b1 0b 5d
        E 32 b1 0b 66
        E 16 b1 0b 5d
        E 16 b1 0b 22
        E 0 81 31 00
        E 0 91 2a 22
        E 32 b1 0b 2a
        E 32 b1 0b 33
        E 32 b1 0b 3b
        E 32 b1 0b 44
        E 32 b1 0b 4c
        E 32 b1 0b 55
        E 32 b1 0b 5d
        E 32 b1 0b 66
        E 16 b1 0b 5d
        E 16 b1 0b 22
        E 0 81 2a 00
        E 0 91 31 22
        E 32 b1 0b 2a
        E 32 b1 0b 33
        E 32 b1 0b 3b
        E 32 b1 0b 44
        E 32 b1 0b 4c
        E 32 b1 0b 55
        E 32 b1 0b 5d
        E 32 b1 0b 66
        E 16 b1 0b 5d
        E 16 b1 0b 22
        E 0 81 31 00
        E 0 91 2c 22
        E 32 b1 0b 2a
        E 32 b1 0b 33
        E 32 b1 0b 3b
        E 32 b1 0b 44
        E 32 b1 0b 4c
        E 32 b1 0b 55
        E 32 b1 0b 5d
        E 32 b1 0b 66
        E 16 b1 0b 5d
        E 16 b1 0b 22
        E 0 81 2c 00
        E 0 91 31 22
        E 32 b1 0b 2a
        E 32 b1 0b 33
        E 32 b1 0b 3b
        E 32 b1 0b 44
        E 32 b1 0b 4c
        E 32 b1 0b 55
        E 32 b1 0b 5d
        E 32 b1 0b 66
        E 16 b1 0b 5d
        E 16 b1 0b 22
        E 0 81 31 00
        E 0 91 2e 22
        E 32 b1 0b 2a
        E 32 b1 0b 33
        E 32 b1 0b 3b
        E 32 b1 0b 44
        E 32 b1 0b 4c
        E 32 b1 0b 55
        E 32 b1 0b 5d
        E 32 b1 0b 66
        E 16 b1 0b 5d
        E 16 b1 0b 22
        E 0 81 2e 00
        E 0 91 31 22
        E 32 b1 0b 2a
        E 32 b1 0b 33
        E 32 b1 0b 3b
        E 32 b1 0b 44
        E 32 b1 0b 4c
        E 32 b1 0b 55
        E 32 b1 0b 5d
        E 32 b1 0b 66
        E 16 b1 0b 5d
        E 16 b1 0b 22
        E 0 81 31 00
        E 0 91 2f 22
        E 32 b1 0b 2a
        E 32 b1 0b 33
        E 32 b1 0b 3b
        E 32 b1 0b 44
        E 32 b1 0b 4c
        E 32 b1 0b 55
        E 32 b1 0b 5d
        E 32 b1 0b 66
        E 16 b1 0b 5d
        E 16 b1 0b 22
        E 0 81 2f 00
        E 0 91 37 22
        E 32 b1 0b 2a
        E 32 b1 0b 33
        E 32 b1 0b 3b
        E 32 b1 0b 44
        E 32 b1 0b 4c
        E 32 b1 0b 55
        E 32 b1 0b 5d
        E 32 b1 0b 66
        E 16 b1 0b 5d
        E 16 b1 0b 22
        E 0 81 37 00
        E 0 91 32 22
        E 32 b1 0b 2a
        E 32 b1 0b 33
        E 32 b1 0b 3b
        E 32 b1 0b 44
        E 32 b1 0b 4c
        E 32 b1 0b 55
        E 32 b1 0b 5d
        E 32 b1 0b 66
        E 16 b1 0b 5d
        E 16 b1 0b 22
        E 0 81 32 00
        E 0 91 37 22
        E 32 b1 0b 2a
        E 32 b1 0b 33
        E 32 b1 0b 3b
        E 32 b1 0b 44
        E 32 b1 0b 4c
        E 32 b1 0b 55
        E 32 b1 0b 5d
        E 32 b1 0b 66
        E 16 b1 0b 5d
        E 16 b1 0b 22
        E 0 81 37 00
        E 0 91 2e 22
        E 32 b1 0b 2a
        E 32 b1 0b 33
        E 32 b1 0b 3b
        E 32 b1 0b 44
        E 32 b1 0b 4c
        E 32 b1 0b 55
        E 32 b1 0b 5d
        E 32 b1 0b 66
        E 16 b1 0b 5d
        E 16 b1 0b 22
        E 0 81 2e 00
        E 0 91 37 22
        E 32 b1 0b 2a
        E 32 b1 0b 33
        E 32 b1 0b 3b
        E 32 b1 0b 44
        E 32 b1 0b 4c
        E 32 b1 0b 55
        E 32 b1 0b 5d
        E 32 b1 0b 66
        E 16 b1 0b 5d
        E 16 b1 0b 22
        E 0 81 37 00
        E 0 91 32 22
        E 32 b1 0b 2a
        E 32 b1 0b 33
        E 32 b1 0b 3b
        E 32 b1 0b 44
        E 32 b1 0b 4c
        E 32 b1 0b 55
        E 32 b1 0b 5d
        E 32 b1 0b 66
        E 16 b1 0b 5d
        E 16 b1 0b 22
        E 0 81 32 00
        E 0 91 37 22
        E 32 b1 0b 2a
        E 32 b1 0b 33
        E 32 b1 0b 3b
        E 32 b1 0b 44
        E 32 b1 0b 4c
        E 32 b1 0b 55
        E 32 b1 0b 5d
        E 32 b1 0b 66
        E 16 b1 0b 5d
        E 16 b1 0b 22
        E 0 81 37 00
        E 0 91 32 22
        E 32 b1 0b 2a
        E 32 b1 0b 33
        E 32 b1 0b 3b
        E 32 b1 0b 44
        E 32 b1 0b 4c
        E 32 b1 0b 55
        E 32 b1 0b 5d
        E 32 b1 0b 66
        E 16 b1 0b 5d
        E 16 b1 0b 22
        E 0 81 32 00
        E 0 91 39 22
        E 32 b1 0b 2a
        E 32 b1 0b 33
        E 32 b1 0b 3b
        E 32 b1 0b 44
        E 32 b1 0b 4c
        E 32 b1 0b 55
        E 32 b1 0b 5d
        E 32 b1 0b 66
        E 16 b1 0b 5d
        E 16 b1 0b 22
        E 0 81 39 00
        E 0 91 34 22
        E 32 b1 0b 2a
        E 32 b1 0b 33
        E 32 b1 0b 3b
        E 32 b1 0b 44
        E 32 b1 0b 4c
        E 32 b1 0b 55
        E 32 b1 0b 5d
        E 32 b1 0b 66
        E 16 b1 0b 5d
        E 16 b1 0b 22
        E 0 81 34 00
        E 0 91 39 22
        E 32 b1 0b 2a
        E 32 b1 0b 33
        E 32 b1 0b 3b
        E 32 b1 0b 44
        E 32 b1 0b 4c
        E 32 b1 0b 55
        E 32 b1 0b 5d
        E 32 b1 0b 66
        E 16 b1 0b 5d
        E 16 b1 0b 22
        E 0 81 39 00
        E 0 91 33 22
        E 32 b1 0b 2a
        E 32 b1 0b 33
        E 32 b1 0b 3b
        E 32 b1 0b 44
        E 32 b1 0b 4c
        E 32 b1 0b 55
        E 32 b1 0b 5d
        E 32 b1 0b 66
        E 16 b1 0b 5d
        E 16 b1 0b 22
        E 0 81 33 00
        E 0 91 3b 22
        E 32 b1 0b 2a
        E 32 b1 0b 33
        E 32 b1 0b 3b
        E 32 b1 0b 44
        E 32 b1 0b 4c
        E 32 b1 0b 55
        E 32 b1 0b 5d
        E 32 b1 0b 66
        E 16 b1 0b 5d
        E 16 b1 0b 22
        E 0 81 3b 00
        E 0 91 2f 22
        E 32 b1 0b 2a
        E 32 b1 0b 33
        E 32 b1 0b 3b
        E 32 b1 0b 44
        E 32 b1 0b 4c
        E 32 b1 0b 55
        E 32 b1 0b 5d
        E 32 b1 0b 66
        E 16 b1 0b 5d
        E 16 b1 0b 22
        E 0 81 2f 00
        E 0 91 33 22
        E 32 b1 0b 2a
        E 32 b1 0b 33
        E 32 b1 0b 3b
        E 32 b1 0b 44
        E 32 b1 0b 4c
        E 32 b1 0b 55
        E 32 b1 0b 5d
        E 32 b1 0b 66
        E 16 b1 0b 5d
        E 16 b1 0b 22
        E 0 81 33 00
        E 0 91 3b 22
        E 32 b1 0b 2a
        E 32 b1 0b 33
        E 32 b1 0b 3b
        E 32 b1 0b 44
        E 32 b1 0b 4c
        E 32 b1 0b 55
        E 32 b1 0b 5d
        E 32 b1 0b 66
        E 16 b1 0b 5d
        E 16 b1 0b 22
        E 0 81 3b 00
        E 0 91 39 22
        E 32 b1 0b 2a
        E 32 b1 0b 33
        E 32 b1 0b 3b
        E 32 b1 0b 44
        E 32 b1 0b 4c
        E 32 b1 0b 55
        E 32 b1 0b 5d
        E 32 b1 0b 66
        E 16 b1 0b 5d
        E 16 b1 0b 22
        E 0 81 39 00
        E 0 91 37 22
        E 32 b1 0b 2a
        E 32 b1 0b 33
        E 32 b1 0b 3b
        E 32 b1 0b 44
        E 32 b1 0b 4c
        E 32 b1 0b 55
        E 32 b1 0b 5d
        E 32 b1 0b 66
        E 16 b1 0b 5d
        E 16 b1 0b 22
        E 0 81 37 00
        E 0 91 36 22
        E 32 b1 0b 2a
        E 32 b1 0b 33
        E 32 b1 0b 3b
        E 32 b1 0b 44
        E 32 b1 0b 4c
        E 32 b1 0b 55
        E 32 b1 0b 5d
        E 32 b1 0b 66
        E 16 b1 0b 5d
        E 16 b1 0b 22
        E 0 81 36 00
        E 0 91 34 22
        E 32 b1 0b 2a
        E 32 b1 0b 33
        E 32 b1 0b 3b
        E 32 b1 0b 44
        E 32 b1 0b 4c
        E 32 b1 0b 55
        E 32 b1 0b 5d
        E 32 b1 0b 66
        E 16 b1 0b 5d
        E 16 b1 0b 55
        E 32 b1 0b 4c
        E 32 b1 0b 44
        E 32 b1 0b 3b
        E 32 b1 0b 33
        E 32 b1 0b 2a
        E 32 b1 0b 22
        E 672 81 34 00
        E 0 91 32 22
        E 32 b1 0b 2a
        E 32 b1 0b 33
        E 32 b1 0b 3b
        E 32 b1 0b 44
        E 32 b1 0b 4c
        E 32 b1 0b 55
        E 32 b1 0b 5d
        E 32 b1 0b 66
        E 16 b1 0b 5d
        E 16 b1 0b 22
        E 0 81 32 00
        E 0 91 3e 22
        E 32 b1 0b 2a
        E 32 b1 0b 33
        E 32 b1 0b 3b
        E 32 b1 0b 44
        E 32 b1 0b 4c
        E 32 b1 0b 55
        E 32 b1 0b 5d
        E 32 b1 0b 66
        E 16 b1 0b 5d
        E 16 b1 0b 22
        E 0 81 3e 00
        E 0 91 3d 22
        E 32 b1 0b 2a
        E 32 b1 0b 33
        E 32 b1 0b 3b
        E 32 b1 0b 44
        E 32 b1 0b 4c
        E 32 b1 0b 55
        E 32 b1 0b 5d
        E 32 b1 0b 66
        E 16 b1 0b 5d
        E 16 b1 0b 22
        E 0 81 3d 00
        E 0 91 3b 22
        E 32 b1 0b 2a
        E 32 b1 0b 33
        E 32 b1 0b 3b
        E 32 b1 0b 44
        E 32 b1 0b 4c
        E 32 b1 0b 55
        E 32 b1 0b 5d
        E 32 b1 0b 66
        E 16 b1 0b 5d
        E 16 b1 0b 22
        E 0 81 3b 00
        E 0 91 39 22
        E 32 b1 0b 2a
        E 32 b1 0b 33
        E 32 b1 0b 3b
        E 32 b1 0b 44
        E 32 b1 0b 4c
        E 32 b1 0b 55
        E 32 b1 0b 5d
        E 32 b1 0b 66
        E 16 b1 0b 5d
        E 16 b1 0b 22
        E 0 81 39 00
        E 0 91 37 22
        E 32 b1 0b 2a
        E 32 b1 0b 33
        E 32 b1 0b 3b
        E 32 b1 0b 44
        E 32 b1 0b 4c
        E 32 b1 0b 55
        E 32 b1 0b 5d
        E 32 b1 0b 66
        E 16 b1 0b 5d
        E 16 b1 0b 22
        E 0 81 37 00
        E 0 91 36 22
        E 32 b1 0b 2a
        E 32 b1 0b 33
        E 32 b1 0b 3b
        E 32 b1 0b 44
        E 32 b1 0b 4c
        E 32 b1 0b 55
        E 32 b1 0b 5d
        E 32 b1 0b 66
        E 16 b1 0b 5d
        E 16 b1 0b 22
        E 0 81 36 00
        E 0 91 34 22
        E 32 b1 0b 2a
        E 32 b1 0b 33
        E 32 b1 0b 3b
        E 32 b1 0b 44
        E 32 b1 0b 4c
        E 32 b1 0b 55
        E 32 b1 0b 5d
        E 32 b1 0b 66
        E 16 b1 0b 5d
        E 16 b1 0b 22
        E 0 81 34 00
        E 0 91 2d 22
        E 32 b1 0b 2a
        E 32 b1 0b 33
        E 32 b1 0b 3b
        E 32 b1 0b 44
        E 32 b1 0b 4c
        E 32 b1 0b 55
        E 32 b1 0b 5d
        E 32 b1 0b 66
        E 16 b1 0b 5d
        E 16 b1 0b 22
        E 0 81 2d 00
        E 0 91 36 22
        E 32 b1 0b 2a
        E 32 b1 0b 33
        E 32 b1 0b 3b
        E 32 b1 0b 44
        E 32 b1 0b 4c
        E 32 b1 0b 55
        E 32 b1 0b 5d
        E 32 b1 0b 66
        E 16 b1 0b 5d
        E 16 b1 0b 22
        E 0 81 36 00
        E 0 91 32 22
        E 32 b1 0b 2a
        E 32 b1 0b 33
        E 32 b1 0b 3b
        E 32 b1 0b 44
        E 32 b1 0b 4c
        E 32 b1 0b 55
        E 32 b1 0b 5d
        E 32 b1 0b 66
        E 16 b1 0b 5d
        E 16 b1 0b 22
        E 0 81 32 00
        E 0 91 36 22
        E 32 b1 0b 2a
        E 32 b1 0b 33
        E 32 b1 0b 3b
        E 32 b1 0b 44
        E 32 b1 0b 4c
        E 32 b1 0b 55
        E 32 b1 0b 5d
        E 32 b1 0b 66
        E 16 b1 0b 5d
        E 16 b1 0b 22
        E 0 81 36 00
        E 0 91 2d 22
        E 32 b1 0b 2a
        E 32 b1 0b 33
        E 32 b1 0b 3b
        E 32 b1 0b 44
        E 32 b1 0b 4c
        E 32 b1 0b 55
        E 32 b1 0b 5d
        E 32 b1 0b 66
        E 16 b1 0b 5d
        E 16 b1 0b 22
        E 0 81 2d 00
        E 0 91 36 22
        E 32 b1 0b 2a
        E 32 b1 0b 33
        E 32 b1 0b 3b
        E 32 b1 0b 44
        E 32 b1 0b 4c
        E 32 b1 0b 55
        E 32 b1 0b 5d
        E 32 b1 0b 66
        E 16 b1 0b 5d
        E 16 b1 0b 22
        E 0 81 36 00
        E 0 91 32 22
        E 32 b1 0b 2a
        E 32 b1 0b 33
        E 32 b1 0b 3b
        E 32 b1 0b 44
        E 32 b1 0b 4c
        E 32 b1 0b 55
        E 32 b1 0b 5d
        E 32 b1 0b 66
        E 16 b1 0b 5d
        E 16 b1 0b 22
        E 0 81 32 00
        E 0 91 36 22
        E 32 b1 0b 2a
        E 32 b1 0b 33
        E 32 b1 0b 3b
        E 32 b1 0b 44
        E 32 b1 0b 4c
        E 32 b1 0b 55
        E 32 b1 0b 5d
        E 32 b1 0b 66
        E 16 b1 0b 5d
        E 16 b1 0b 22
        E 0 81 36 00
        E 0 91 31 22
        E 32 b1 0b 2a
        E 32 b1 0b 33
        E 32 b1 0b 3b
        E 32 b1 0b 44
        E 32 b1 0b 4c
        E 32 b1 0b 55
        E 32 b1 0b 5d
        E 32 b1 0b 66
        E 16 b1 0b 5d
        E 16 b1 0b 22
        E 0 81 31 00
        E 0 91 34 22
        E 32 b1 0b 2a
        E 32 b1 0b 33
        E 32 b1 0b 3b
        E 32 b1 0b 44
        E 32 b1 0b 4c
        E 32 b1 0b 55
        E 32 b1 0b 5d
        E 32 b1 0b 66
        E 16 b1 0b 5d
        E 16 b1 0b 22
        E 0 81 34 00
        E 0 91 2d 22
        E 32 b1 0b 2a
        E 32 b1 0b 33
        E 32 b1 0b 3b
        E 32 b1 0b 44
        E 32 b1 0b 4c
        E 32 b1 0b 55
        E 32 b1 0b 5d
        E 32 b1 0b 66
        E 16 b1 0b 5d
        E 16 b1 0b 22
        E 0 81 2d 00
        E 0 91 34 22
        E 32 b1 0b 2a
        E 32 b1 0b 33
        E 32 b1 0b 3b
        E 32 b1 0b 44
        E 32 b1 0b 4c
        E 32 b1 0b 55
        E 32 b1 0b 5d
        E 32 b1 0b 66
        E 16 b1 0b 5d
        E 16 b1 0b 22
        E 0 81 34 00
        E 0 91 2f 22
        E 32 b1 0b 2a
        E 32 b1 0b 33
        E 32 b1 0b 3b
        E 32 b1 0b 44
        E 32 b1 0b 4c
        E 32 b1 0b 55
        E 32 b1 0b 5d
        E 32 b1 0b 66
        E 16 b1 0b 5d
        E 16 b1 0b 22
        E 0 81 2f 00
        E 0 91 34 22
        E 32 b1 0b 2a
        E 32 b1 0b 33
        E 32 b1 0b 3b
        E 32 b1 0b 44
        E 32 b1 0b 4c
        E 32 b1 0b 55
        E 32 b1 0b 5d
        E 32 b1 0b 66
        E 16 b1 0b 5d
        E 16 b1 0b 22
        E 0 81 34 00
        E 0 91 31 22
        E 32 b1 0b 2a
        E 32 b1 0b 33
        E 32 b1 0b 3b
        E 32 b1 0b 44
        E 32 b1 0b 4c
        E 32 b1 0b 55
        E 32 b1 0b 5d
        E 32 b1 0b 66
        E 16 b1 0b 5d
        E 16 b1 0b 22
        E 0 81 31 00
        E 0 91 34 22
        E 32 b1 0b 2a
        E 32 b1 0b 33
        E 32 b1 0b 3b
        E 32 b1 0b 44
        E 32 b1 0b 4c
        E 32 b1 0b 55
        E 32 b1 0b 5d
        E 32 b1 0b 66
        E 16 b1 0b 5d
        E 16 b1 0b 22
        E 0 81 34 00
        E 0 91 2f 22
        E 32 b1 0b 2a
        E 32 b1 0b 33
        E 32 b1 0b 3b
        E 32 b1 0b 44
        E 32 b1 0b 4c
        E 32 b1 0b 55
        E 32 b1 0b 5d
        E 32 b1 0b 66
        E 16 b1 0b 5d
        E 16 b1 0b 22
        E 0 81 2f 00
        E 0 91 36 22
        E 32 b1 0b 2a
        E 32 b1 0b 33
        E 32 b1 0b 3b
        E 32 b1 0b 44
        E 32 b1 0b 4c
        E 32 b1 0b 55
        E 32 b1 0b 5d
        E 32 b1 0b 66
        E 16 b1 0b 5d
        E 16 b1 0b 22
        E 0 81 36 00
        E 0 91 32 22
        E 32 b1 0b 2a
        E 32 b1 0b 33
        E 32 b1 0b 3b
        E 32 b1 0b 44
        E 32 b1 0b 4c
        E 32 b1 0b 55
        E 32 b1 0b 5d
        E 32 b1 0b 66
        E 16 b1 0b 5d
        E 16 b1 0b 22
        E 0 81 32 00
        E 0 91 36 22
        E 32 b1 0b 2a
        E 32 b1 0b 33
        E 32 b1 0b 3b
        E 32 b1 0b 44
        E 32 b1 0b 4c
        E 32 b1 0b 55
        E 32 b1 0b 5d
        E 32 b1 0b 66
        E 16 b1 0b 5d
        E 16 b1 0b 22
        E 0 81 36 00
        E 0 91 2f 22
        E 32 b1 0b 2a
        E 32 b1 0b 33
        E 32 b1 0b 3b
        E 32 b1 0b 44
        E 32 b1 0b 4c
        E 32 b1 0b 55
        E 32 b1 0b 5d
        E 32 b1 0b 66
        E 16 b1 0b 5d
        E 16 b1 0b 22
        E 0 81 2f 00
        E 0 91 36 22
        E 32 b1 0b 2a
        E 32 b1 0b 33
        E 32 b1 0b 3b
        E 32 b1 0b 44
        E 32 b1 0b 4c
        E 32 b1 0b 55
        E 32 b1 0b 5d
        E 32 b1 0b 66
        E 16 b1 0b 5d
        E 16 b1 0b 22
        E 0 81 36 00
        E 0 91 32 22
        E 32 b1 0b 2a
        E 32 b1 0b 33
        E 32 b1 0b 3b
        E 32 b1 0b 44
        E 32 b1 0b 4c
        E 32 b1 0b 55
        E 32 b1 0b 5d
        E 32 b1 0b 66
        E 16 b1 0b 5d
        E 16 b1 0b 22
        E 0 81 32 00
        E 0 91 36 22
        E 32 b1 0b 2a
        E 32 b1 0b 33
        E 32 b1 0b 3b
        E 32 b1 0b 44
        E 32 b1 0b 4c
        E 32 b1 0b 55
        E 32 b1 0b 5d
        E 32 b1 0b 66
        E 16 b1 0b 5d
        E 16 b1 0b 22
        E 0 81 36 00
        E 0 91 2e 22
        E 32 b1 0b 2a
        E 32 b1 0b 33
        E 32 b1 0b 3b
        E 32 b1 0b 44
        E 32 b1 0b 4c
        E 32 b1 0b 55
        E 32 b1 0b 5d
        E 32 b1 0b 66
        E 16 b1 0b 5d
        E 16 b1 0b 22
        E 0 81 2e 00
        E 0 91 31 22
        E 32 b1 0b 2a
        E 32 b1 0b 33
        E 32 b1 0b 3b
        E 32 b1 0b 44
        E 32 b1 0b 4c
        E 32 b1 0b 55
        E 32 b1 0b 5d
        E 32 b1 0b 66
        E 16 b1 0b 5d
        E 16 b1 0b 22
        E 0 81 31 00
        E 0 91 2a 22
        E 32 b1 0b 2a
        E 32 b1 0b 33
        E 32 b1 0b 3b
        E 32 b1 0b 44
        E 32 b1 0b 4c
        E 32 b1 0b 55
        E 32 b1 0b 5d
        E 32 b1 0b 66
        E 16 b1 0b 5d
        E 16 b1 0b 22
        E 0 81 2a 00
        E 0 91 31 22
        E 32 b1 0b 2a
        E 32 b1 0b 33
        E 32 b1 0b 3b
        E 32 b1 0b 44
        E 32 b1 0b 4c
        E 32 b1 0b 55
        E 32 b1 0b 5d
        E 32 b1 0b 66
        E 16 b1 0b 5d
        E 16 b1 0b 22
        E 0 81 31 00
        E 0 91 2c 22
        E 32 b1 0b 2a
        E 32 b1 0b 33
        E 32 b1 0b 3b
        E 32 b1 0b 44
        E 32 b1 0b 4c
        E 32 b1 0b 55
        E 32 b1 0b 5d
        E 32 b1 0b 66
        E 16 b1 0b 5d
        E 16 b1 0b 22
        E 0 81 2c 00
        E 0 91 31 22
        E 32 b1 0b 2a
        E 32 b1 0b 33
        E 32 b1 0b 3b
        E 32 b1 0b 44
        E 32 b1 0b 4c
        E 32 b1 0b 55
        E 32 b1 0b 5d
        E 32 b1 0b 66
        E 16 b1 0b 5d
        E 16 b1 0b 22
        E 0 81 31 00
        E 0 91 2e 22
        E 32 b1 0b 2a
        E 32 b1 0b 33
        E 32 b1 0b 3b
        E 32 b1 0b 44
        E 32 b1 0b 4c
        E 32 b1 0b 55
        E 32 b1 0b 5d
        E 32 b1 0b 66
        E 16 b1 0b 5d
        E 16 b1 0b 22
        E 0 81 2e 00
        E 0 91 31 22
        E 32 b1 0b 2a
        E 32 b1 0b 33
        E 32 b1 0b 3b
        E 32 b1 0b 44
        E 32 b1 0b 4c
        E 32 b1 0b 55
        E 32 b1 0b 5d
        E 32 b1 0b 66
        E 16 b1 0b 5d
        E 16 b1 0b 22
        E 0 81 31 00
        E 0 91 2f 22
        E 32 b1 0b 2a
        E 32 b1 0b 33
        E 32 b1 0b 3b
        E 32 b1 0b 44
        E 32 b1 0b 4c
        E 32 b1 0b 55
        E 32 b1 0b 5d
        E 32 b1 0b 66
        E 16 b1 0b 5d
        E 16 b1 0b 22
        E 0 81 2f 00
        E 0 91 37 22
        E 32 b1 0b 2a
        E 32 b1 0b 33
        E 32 b1 0b 3b
        E 32 b1 0b 44
        E 32 b1 0b 4c
        E 32 b1 0b 55
        E 32 b1 0b 5d
        E 32 b1 0b 66
        E 16 b1 0b 5d
        E 16 b1 0b 22
        E 0 81 37 00
        E 0 91 32 22
        E 32 b1 0b 2a
        E 32 b1 0b 33
        E 32 b1 0b 3b
        E 32 b1 0b 44
        E 32 b1 0b 4c
        E 32 b1 0b 55
        E 32 b1 0b 5d
        E 32 b1 0b 66
        E 16 b1 0b 5d
        E 16 b1 0b 22
        E 0 81 32 00
        E 0 91 37 22
        E 32 b1 0b 2a
        E 32 b1 0b 33
        E 32 b1 0b 3b
        E 32 b1 0b 44
        E 32 b1 0b 4c
        E 32 b1 0b 55
        E 32 b1 0b 5d
        E 32 b1 0b 66
        E 16 b1 0b 5d
        E 16 b1 0b 22
        E 0 81 37 00
        E 0 91 2e 22
        E 32 b1 0b 2a
        E 32 b1 0b 33
        E 32 b1 0b 3b
        E 32 b1 0b 44
        E 32 b1 0b 4c
        E 32 b1 0b 55
        E 32 b1 0b 5d
        E 32 b1 0b 66
        E 16 b1 0b 5d
        E 16 b1 0b 22
        E 0 81 2e 00
        E 0 91 37 22
        E 32 b1 0b 2a
        E 32 b1 0b 33
        E 32 b1 0b 3b
        E 32 b1 0b 44
        E 32 b1 0b 4c
        E 32 b1 0b 55
        E 32 b1 0b 5d
        E 32 b1 0b 66
        E 16 b1 0b 5d
        E 16 b1 0b 22
        E 0 81 37 00
        E 0 91 32 22
        E 32 b1 0b 2a
        E 32 b1 0b 33
        E 32 b1 0b 3b
        E 32 b1 0b 44
        E 32 b1 0b 4c
        E 32 b1 0b 55
        E 32 b1 0b 5d
        E 32 b1 0b 66
        E 16 b1 0b 5d
        E 16 b1 0b 22
        E 0 81 32 00
        E 0 91 37 22
        E 32 b1 0b 2a
        E 32 b1 0b 33
        E 32 b1 0b 3b
        E 32 b1 0b 44
        E 32 b1 0b 4c
        E 32 b1 0b 55
        E 32 b1 0b 5d
        E 32 b1 0b 66
        E 16 b1 0b 5d
        E 16 b1 0b 22
        E 0 81 37 00
        E 0 91 32 22
        E 32 b1 0b 2a
        E 32 b1 0b 33
        E 32 b1 0b 3b
        E 32 b1 0b 44
        E 32 b1 0b 4c
        E 32 b1 0b 55
        E 32 b1 0b 5d
        E 32 b1 0b 66
        E 16 b1 0b 5d
        E 16 b1 0b 22
        E 0 81 32 00
        E 0 91 39 22
        E 32 b1 0b 2a
        E 32 b1 0b 33
        E 32 b1 0b 3b
        E 32 b1 0b 44
        E 32 b1 0b 4c
        E 32 b1 0b 55
        E 32 b1 0b 5d
        E 32 b1 0b 66
        E 16 b1 0b 5d
        E 16 b1 0b 22
        E 0 81 39 00
        E 0 91 34 22
        E 32 b1 0b 2a
        E 32 b1 0b 33
        E 32 b1 0b 3b
        E 32 b1 0b 44
        E 32 b1 0b 4c
        E 32 b1 0b 55
        E 32 b1 0b 5d
        E 32 b1 0b 66
        E 16 b1 0b 5d
        E 16 b1 0b 22
        E 0 81 34 00
        E 0 91 39 22
        E 32 b1 0b 2a
        E 32 b1 0b 33
        E 32 b1 0b 3b
        E 32 b1 0b 44
        E 32 b1 0b 4c
        E 32 b1 0b 55
        E 32 b1 0b 5d
        E 32 b1 0b 66
        E 16 b1 0b 5d
        E 16 b1 0b 22
        E 0 81 39 00
        E 0 91 33 22
        E 32 b1 0b 2a
        E 32 b1 0b 33
        E 32 b1 0b 3b
        E 32 b1 0b 44
        E 32 b1 0b 4c
        E 32 b1 0b 55
        E 32 b1 0b 5d
        E 32 b1 0b 66
        E 16 b1 0b 5d
        E 16 b1 0b 22
        E 0 81 33 00
        E 0 91 3b 22
        E 32 b1 0b 2a
        E 32 b1 0b 33
        E 32 b1 0b 3b
        E 32 b1 0b 44
        E 32 b1 0b 4c
        E 32 b1 0b 55
        E 32 b1 0b 5d
        E 32 b1 0b 66
        E 16 b1 0b 5d
        E 16 b1 0b 22
        E 0 81 3b 00
        E 0 91 2f 22
        E 32 b1 0b 2a
        E 32 b1 0b 33
        E 32 b1 0b 3b
        E 32 b1 0b 44
        E 32 b1 0b 4c
        E 32 b1 0b 55
        E 32 b1 0b 5d
        E 32 b1 0b 66
        E 16 b1 0b 5d
        E 16 b1 0b 22
        E 0 81 2f 00
        E 0 91 33 22
        E 32 b1 0b 2a
        E 32 b1 0b 33
        E 32 b1 0b 3b
        E 32 b1 0b 44
        E 32 b1 0b 4c
        E 32 b1 0b 55
        E 32 b1 0b 5d
        E 32 b1 0b 66
        E 16 b1 0b 5d
        E 16 b1 0b 22
        E 0 81 33 00
        E 0 91 3b 22
        E 32 b1 0b 2a
        E 32 b1 0b 33
        E 32 b1 0b 3b
        E 32 b1 0b 44
        E 32 b1 0b 4c
        E 32 b1 0b 55
        E 32 b1 0b 5d
        E 32 b1 0b 66
        E 16 b1 0b 5d
        E 16 b1 0b 22
        E 0 81 3b 00
        E 0 91 39 22
        E 32 b1 0b 2a
        E 32 b1 0b 33
        E 32 b1 0b 3b
        E 32 b1 0b 44
        E 32 b1 0b 4c
        E 32 b1 0b 55
        E 32 b1 0b 5d
        E 32 b1 0b 66
        E 16 b1 0b 5d
        E 16 b1 0b 22
        E 0 81 39 00
        E 0 91 37 22
        E 32 b1 0b 2a
        E 32 b1 0b 33
        E 32 b1 0b 3b
        E 32 b1 0b 44
        E 32 b1 0b 4c
        E 32 b1 0b 55
        E 32 b1 0b 5d
        E 32 b1 0b 66
        E 16 b1 0b 5d
        E 16 b1 0b 22
        E 0 81 37 00
        E 0 91 36 22
        E 32 b1 0b 2a
        E 32 b1 0b 33
        E 32 b1 0b 3b
        E 32 b1 0b 44
        E 32 b1 0b 4c
        E 32 b1 0b 55
        E 32 b1 0b 5d
        E 32 b1 0b 66
        E 16 b1 0b 5d
        E 16 b1 0b 22
        E 0 81 36 00
        E 0 91 34 22
        E 32 b1 0b 2a
        E 32 b1 0b 33
        E 32 b1 0b 3b
        E 32 b1 0b 44
        E 32 b1 0b 4c
        E 32 b1 0b 55
        E 32 b1 0b 5d
        E 32 b1 0b 66
        E 16 b1 0b 5d
        E 16 b1 0b 55
        E 32 b1 0b 4c
        E 32 b1 0b 44
        E 32 b1 0b 3b
        E 32 b1 0b 33
        E 32 b1 0b 2a
        E 32 b1 0b 22
        E 672 81 34 00
        E 0 91 32 22
        E 32 b1 0b 2a
        E 32 b1 0b 33
        E 32 b1 0b 3b
        E 32 b1 0b 44
        E 32 b1 0b 4c
        E 32 b1 0b 55
        E 32 b1 0b 5d
        E 32 b1 0b 66
        E 16 b1 0b 5d
        E 16 b1 0b 22
        E 0 81 32 00
        E 0 91 3e 22
        E 32 b1 0b 2a
        E 32 b1 0b 33
        E 32 b1 0b 3b
        E 32 b1 0b 44
        E 32 b1 0b 4c
        E 32 b1 0b 55
        E 32 b1 0b 5d
        E 32 b1 0b 66
        E 16 b1 0b 5d
        E 16 b1 0b 22
        E 0 81 3e 00
        E 0 91 3d 22
        E 32 b1 0b 2a
        E 32 b1 0b 33
        E 32 b1 0b 3b
        E 32 b1 0b 44
        E 32 b1 0b 4c
        E 32 b1 0b 55
        E 32 b1 0b 5d
        E 32 b1 0b 66
        E 16 b1 0b 5d
        E 16 b1 0b 22
        E 0 81 3d 00
        E 0 91 3b 22
        E 32 b1 0b 2a
        E 32 b1 0b 33
        E 32 b1 0b 3b
        E 32 b1 0b 44
        E 32 b1 0b 4c
        E 32 b1 0b 55
        E 32 b1 0b 5d
        E 32 b1 0b 66
        E 16 b1 0b 5d
        E 16 b1 0b 22
        E 0 81 3b 00
        E 0 91 39 22
        E 32 b1 0b 2a
        E 32 b1 0b 33
        E 32 b1 0b 3b
        E 32 b1 0b 44
        E 32 b1 0b 4c
        E 32 b1 0b 55
        E 32 b1 0b 5d
        E 32 b1 0b 66
        E 16 b1 0b 5d
        E 16 b1 0b 22
        E 0 81 39 00
        E 0 91 37 22
        E 32 b1 0b 2a
        E 32 b1 0b 33
        E 32 b1 0b 3b
        E 32 b1 0b 44
        E 32 b1 0b 4c
        E 32 b1 0b 55
        E 32 b1 0b 5d
        E 32 b1 0b 66
        E 16 b1 0b 5d
        E 16 b1 0b 22
        E 0 81 37 00
        E 0 91 36 22
        E 32 b1 0b 2a
        E 32 b1 0b 33
        E 32 b1 0b 3b
        E 32 b1 0b 44
        E 32 b1 0b 4c
        E 32 b1 0b 55
        E 32 b1 0b 5d
        E 32 b1 0b 66
        E 16 b1 0b 5d
        E 16 b1 0b 22
        E 0 81 36 00
        E 0 91 34 22
        E 32 b1 0b 2a
        E 32 b1 0b 33
        E 32 b1 0b 3b
        E 32 b1 0b 44
        E 32 b1 0b 4c
        E 32 b1 0b 55
        E 32 b1 0b 5d
        E 32 b1 0b 66
        E 16 b1 0b 5d
        E 16 b1 0b 22
        E 0 81 34 00
        E 0 91 2d 22
        E 32 b1 0b 2a
        E 32 b1 0b 33
        E 32 b1 0b 3b
        E 32 b1 0b 44
        E 32 b1 0b 4c
        E 32 b1 0b 55
        E 32 b1 0b 5d
        E 32 b1 0b 66
        E 16 b1 0b 5d
        E 16 b1 0b 22
        E 0 81 2d 00
        E 0 91 36 22
        E 32 b1 0b 2a
        E 32 b1 0b 33
        E 32 b1 0b 3b
        E 32 b1 0b 44
        E 32 b1 0b 4c
        E 32 b1 0b 55
        E 32 b1 0b 5d
        E 32 b1 0b 66
        E 16 b1 0b 5d
        E 16 b1 0b 22
        E 0 81 36 00
        E 0 91 32 22
        E 32 b1 0b 2a
        E 32 b1 0b 33
        E 32 b1 0b 3b
        E 32 b1 0b 44
        E 32 b1 0b 4c
        E 32 b1 0b 55
        E 32 b1 0b 5d
        E 32 b1 0b 66
        E 16 b1 0b 5d
        E 16 b1 0b 22
        E 0 81 32 00
        E 0 91 36 22
        E 32 b1 0b 2a
        E 32 b1 0b 33
        E 32 b1 0b 3b
        E 32 b1 0b 44
        E 32 b1 0b 4c
        E 32 b1 0b 55
        E 32 b1 0b 5d
        E 32 b1 0b 66
        E 16 b1 0b 5d
        E 16 b1 0b 22
        E 0 81 36 00
        E 0 91 2d 22
        E 32 b1 0b 2a
        E 32 b1 0b 33
        E 32 b1 0b 3b
        E 32 b1 0b 44
        E 32 b1 0b 4c
        E 32 b1 0b 55
        E 32 b1 0b 5d
        E 32 b1 0b 66
        E 16 b1 0b 5d
        E 16 b1 0b 22
        E 0 81 2d 00
        E 0 91 36 22
        E 32 b1 0b 2a
        E 32 b1 0b 33
        E 32 b1 0b 3b
        E 32 b1 0b 44
        E 32 b1 0b 4c
        E 32 b1 0b 55
        E 32 b1 0b 5d
        E 32 b1 0b 66
        E 16 b1 0b 5d
        E 16 b1 0b 22
        E 0 81 36 00
        E 0 91 32 22
        E 32 b1 0b 2a
        E 32 b1 0b 33
        E 32 b1 0b 3b
        E 32 b1 0b 44
        E 32 b1 0b 4c
        E 32 b1 0b 55
        E 32 b1 0b 5d
        E 32 b1 0b 66
        E 16 b1 0b 5d
        E 16 b1 0b 22
        E 0 81 32 00
        E 0 91 36 22
        E 32 b1 0b 2a
        E 32 b1 0b 33
        E 32 b1 0b 3b
        E 32 b1 0b 44
        E 32 b1 0b 4c
        E 32 b1 0b 55
        E 32 b1 0b 5d
        E 32 b1 0b 66
        E 16 b1 0b 5d
        E 16 b1 0b 22
        E 0 81 36 00
        E 0 91 31 22
        E 32 b1 0b 2a
        E 32 b1 0b 33
        E 32 b1 0b 3b
        E 32 b1 0b 44
        E 32 b1 0b 4c
        E 32 b1 0b 55
        E 32 b1 0b 5d
        E 32 b1 0b 66
        E 16 b1 0b 5d
        E 16 b1 0b 22
        E 0 81 31 00
        E 0 91 34 22
        E 32 b1 0b 2a
        E 32 b1 0b 33
        E 32 b1 0b 3b
        E 32 b1 0b 44
        E 32 b1 0b 4c
        E 32 b1 0b 55
        E 32 b1 0b 5d
        E 32 b1 0b 66
        E 16 b1 0b 5d
        E 16 b1 0b 22
        E 0 81 34 00
        E 0 91 2d 22
        E 32 b1 0b 2a
        E 32 b1 0b 33
        E 32 b1 0b 3b
        E 32 b1 0b 44
        E 32 b1 0b 4c
        E 32 b1 0b 55
        E 32 b1 0b 5d
        E 32 b1 0b 66
        E 16 b1 0b 5d
        E 16 b1 0b 22
        E 0 81 2d 00
        E 0 91 34 22
        E 32 b1 0b 2a
        E 32 b1 0b 33
        E 32 b1 0b 3b
        E 32 b1 0b 44
        E 32 b1 0b 4c
        E 32 b1 0b 55
        E 32 b1 0b 5d
        E 32 b1 0b 66
        E 16 b1 0b 5d
        E 16 b1 0b 22
        E 0 81 34 00
        E 0 91 2f 22
        E 32 b1 0b 2a
        E 32 b1 0b 33
        E 32 b1 0b 3b
        E 32 b1 0b 44
        E 32 b1 0b 4c
        E 32 b1 0b 55
        E 32 b1 0b 5d
        E 32 b1 0b 66
        E 16 b1 0b 5d
        E 16 b1 0b 22
        E 0 81 2f 00
        E 0 91 34 22
        E 32 b1 0b 2a
        E 32 b1 0b 33
        E 32 b1 0b 3b
        E 32 b1 0b 44
        E 32 b1 0b 4c
        E 32 b1 0b 55
        E 32 b1 0b 5d
        E 32 b1 0b 66
        E 16 b1 0b 5d
        E 16 b1 0b 22
        E 0 81 34 00
        E 0 91 31 22
        E 32 b1 0b 2a
        E 32 b1 0b 33
        E 32 b1 0b 3b
        E 32 b1 0b 44
        E 32 b1 0b 4c
        E 32 b1 0b 55
        E 32 b1 0b 5d
        E 32 b1 0b 66
        E 16 b1 0b 5d
        E 16 b1 0b 22
        E 0 81 31 00
        E 0 91 34 22
        E 32 b1 0b 2a
        E 32 b1 0b 33
        E 32 b1 0b 3b
        E 32 b1 0b 44
        E 32 b1 0b 4c
        E 32 b1 0b 55
        E 32 b1 0b 5d
        E 32 b1 0b 66
        E 16 b1 0b 5d
        E 16 b1 0b 22
        E 0 81 34 00
        E 0 91 2f 22
        E 32 b1 0b 2a
        E 32 b1 0b 33
        E 32 b1 0b 3b
        E 32 b1 0b 44
        E 32 b1 0b 4c
        E 32 b1 0b 55
        E 32 b1 0b 5d
        E 32 b1 0b 66
        E 16 b1 0b 5d
        E 16 b1 0b 22
        E 0 81 2f 00
        E 0 91 36 22
        E 32 b1 0b 2a
        E 32 b1 0b 33
        E 32 b1 0b 3b
        E 32 b1 0b 44
        E 32 b1 0b 4c
        E 32 b1 0b 55
        E 32 b1 0b 5d
        E 32 b1 0b 66
        E 16 b1 0b 5d
        E 16 b1 0b 22
        E 0 81 36 00
        E 0 91 32 22
        E 32 b1 0b 2a
        E 32 b1 0b 33
        E 32 b1 0b 3b
        E 32 b1 0b 44
        E 32 b1 0b 4c
        E 32 b1 0b 55
        E 32 b1 0b 5d
        E 32 b1 0b 66
        E 16 b1 0b 5d
        E 16 b1 0b 22
        E 0 81 32 00
        E 0 91 36 22
        E 32 b1 0b 2a
        E 32 b1 0b 33
        E 32 b1 0b 3b
        E 32 b1 0b 44
        E 32 b1 0b 4c
        E 32 b1 0b 55
        E 32 b1 0b 5d
        E 32 b1 0b 66
        E 16 b1 0b 5d
        E 16 b1 0b 22
        E 0 81 36 00
        E 0 91 2f 22
        E 32 b1 0b 2a
        E 32 b1 0b 33
        E 32 b1 0b 3b
        E 32 b1 0b 44
        E 32 b1 0b 4c
        E 32 b1 0b 55
        E 32 b1 0b 5d
        E 32 b1 0b 66
        E 16 b1 0b 5d
        E 16 b1 0b 22
        E 0 81 2f 00
        E 0 91 36 22
        E 32 b1 0b 2a
        E 32 b1 0b 33
        E 32 b1 0b 3b
        E 32 b1 0b 44
        E 32 b1 0b 4c
        E 32 b1 0b 55
        E 32 b1 0b 5d
        E 32 b1 0b 66
        E 16 b1 0b 5d
        E 16 b1 0b 22
        E 0 81 36 00
        E 0 91 32 22
        E 32 b1 0b 2a
        E 32 b1 0b 33
        E 32 b1 0b 3b
        E 32 b1 0b 44
        E 32 b1 0b 4c
        E 32 b1 0b 55
        E 32 b1 0b 5d
        E 32 b1 0b 66
        E 16 b1 0b 5d
        E 16 b1 0b 22
        E 0 81 32 00
        E 0 91 36 22
        E 32 b1 0b 2a
        E 32 b1 0b 33
        E 32 b1 0b 3b
        E 32 b1 0b 44
        E 32 b1 0b 4c
        E 32 b1 0b 55
        E 32 b1 0b 5d
        E 32 b1 0b 66
        E 16 b1 0b 5d
        E 16 b1 0b 22
        E 0 81 36 00
        E 0 91 2e 22
        E 32 b1 0b 2a
        E 32 b1 0b 33
        E 32 b1 0b 3b
        E 32 b1 0b 44
        E 32 b1 0b 4c
        E 32 b1 0b 55
        E 32 b1 0b 5d
        E 32 b1 0b 66
        E 16 b1 0b 5d
        E 16 b1 0b 22
        E 0 81 2e 00
        E 0 91 31 22
        E 32 b1 0b 2a
        E 32 b1 0b 33
        E 32 b1 0b 3b
        E 32 b1 0b 44
        E 32 b1 0b 4c
        E 32 b1 0b 55
        E 32 b1 0b 5d
        E 32 b1 0b 66
        E 16 b1 0b 5d
        E 16 b1 0b 22
        E 0 81 31 00
        E 0 91 2a 22
        E 32 b1 0b 2a
        E 32 b1 0b 33
        E 32 b1 0b 3b
        E 32 b1 0b 44
        E 32 b1 0b 4c
        E 32 b1 0b 55
        E 32 b1 0b 5d
        E 32 b1 0b 66
        E 16 b1 0b 5d
        E 16 b1 0b 22
        E 0 81 2a 00
        E 0 91 31 22
        E 32 b1 0b 2a
        E 32 b1 0b 33
        E 32 b1 0b 3b
        E 32 b1 0b 44
        E 32 b1 0b 4c
        E 32 b1 0b 55
        E 32 b1 0b 5d
        E 32 b1 0b 66
        E 16 b1 0b 5d
        E 16 b1 0b 22
        E 0 81 31 00
        E 0 91 2c 22
        E 32 b1 0b 2a
        E 32 b1 0b 33
        E 32 b1 0b 3b
        E 32 b1 0b 44
        E 32 b1 0b 4c
        E 32 b1 0b 55
        E 32 b1 0b 5d
        E 32 b1 0b 66
        E 16 b1 0b 5d
        E 16 b1 0b 22
        E 0 81 2c 00
        E 0 91 31 22
        E 32 b1 0b 2a
        E 32 b1 0b 33
        E 32 b1 0b 3b
        E 32 b1 0b 44
        E 32 b1 0b 4c
        E 32 b1 0b 55
        E 32 b1 0b 5d
        E 32 b1 0b 66
        E 16 b1 0b 5d
        E 16 b1 0b 22
        E 0 81 31 00
        E 0 91 2e 22
        E 32 b1 0b 2a
        E 32 b1 0b 33
        E 32 b1 0b 3b
        E 32 b1 0b 44
        E 32 b1 0b 4c
        E 32 b1 0b 55
        E 32 b1 0b 5d
        E 32 b1 0b 66
        E 16 b1 0b 5d
        E 16 b1 0b 22
        E 0 81 2e 00
        E 0 91 31 22
        E 32 b1 0b 2a
        E 32 b1 0b 33
        E 32 b1 0b 3b
        E 32 b1 0b 44
        E 32 b1 0b 4c
        E 32 b1 0b 55
        E 32 b1 0b 5d
        E 32 b1 0b 66
        E 16 b1 0b 5d
        E 16 b1 0b 22
        E 0 81 31 00
        E 0 91 2f 22
        E 32 b1 0b 2a
        E 32 b1 0b 33
        E 32 b1 0b 3b
        E 32 b1 0b 44
        E 32 b1 0b 4c
        E 32 b1 0b 55
        E 32 b1 0b 5d
        E 32 b1 0b 66
        E 16 b1 0b 5d
        E 16 b1 0b 22
        E 0 81 2f 00
        E 0 91 37 22
        E 32 b1 0b 2a
        E 32 b1 0b 33
        E 32 b1 0b 3b
        E 32 b1 0b 44
        E 32 b1 0b 4c
        E 32 b1 0b 55
        E 32 b1 0b 5d
        E 32 b1 0b 66
        E 16 b1 0b 5d
        E 16 b1 0b 22
        E 0 81 37 00
        E 0 91 32 22
        E 32 b1 0b 2a
        E 32 b1 0b 33
        E 32 b1 0b 3b
        E 32 b1 0b 44
        E 32 b1 0b 4c
        E 32 b1 0b 55
        E 32 b1 0b 5d
        E 32 b1 0b 66
        E 16 b1 0b 5d
        E 16 b1 0b 22
        E 0 81 32 00
        E 0 91 37 22
        E 32 b1 0b 2a
        E 32 b1 0b 33
        E 32 b1 0b 3b
        E 32 b1 0b 44
        E 32 b1 0b 4c
        E 32 b1 0b 55
        E 32 b1 0b 5d
        E 32 b1 0b 66
        E 16 b1 0b 5d
        E 16 b1 0b 22
        E 0 81 37 00
        E 0 91 2e 22
        E 32 b1 0b 2a
        E 32 b1 0b 33
        E 32 b1 0b 3b
        E 32 b1 0b 44
        E 32 b1 0b 4c
        E 32 b1 0b 55
        E 32 b1 0b 5d
        E 32 b1 0b 66
        E 16 b1 0b 5d
        E 16 b1 0b 22
        E 0 81 2e 00
        E 0 91 37 22
        E 32 b1 0b 2a
        E 32 b1 0b 33
        E 32 b1 0b 3b
        E 32 b1 0b 44
        E 32 b1 0b 4c
        E 32 b1 0b 55
        E 32 b1 0b 5d
        E 32 b1 0b 66
        E 16 b1 0b 5d
        E 16 b1 0b 22
        E 0 81 37 00
        E 0 91 32 22
        E 32 b1 0b 2a
        E 32 b1 0b 33
        E 32 b1 0b 3b
        E 32 b1 0b 44
        E 32 b1 0b 4c
        E 32 b1 0b 55
        E 32 b1 0b 5d
        E 32 b1 0b 66
        E 16 b1 0b 5d
        E 16 b1 0b 22
        E 0 81 32 00
        E 0 91 37 22
        E 32 b1 0b 2a
        E 32 b1 0b 33
        E 32 b1 0b 3b
        E 32 b1 0b 44
        E 32 b1 0b 4c
        E 32 b1 0b 55
        E 32 b1 0b 5d
        E 32 b1 0b 66
        E 16 b1 0b 5d
        E 16 b1 0b 22
        E 0 81 37 00
        E 0 91 32 22
        E 32 b1 0b 2a
        E 32 b1 0b 33
        E 32 b1 0b 3b
        E 32 b1 0b 44
        E 32 b1 0b 4c
        E 32 b1 0b 55
        E 32 b1 0b 5d
        E 32 b1 0b 66
        E 16 b1 0b 5d
        E 16 b1 0b 22
        E 0 81 32 00
        E 0 91 39 22
        E 32 b1 0b 2a
        E 32 b1 0b 33
        E 32 b1 0b 3b
        E 32 b1 0b 44
        E 32 b1 0b 4c
        E 32 b1 0b 55
        E 32 b1 0b 5d
        E 32 b1 0b 66
        E 16 b1 0b 5d
        E 16 b1 0b 22
        E 0 81 39 00
        E 0 91 34 22
        E 32 b1 0b 2a
        E 32 b1 0b 33
        E 32 b1 0b 3b
        E 32 b1 0b 44
        E 32 b1 0b 4c
        E 32 b1 0b 55
        E 32 b1 0b 5d
        E 32 b1 0b 66
        E 16 b1 0b 5d
        E 16 b1 0b 22
        E 0 81 34 00
        E 0 91 39 22
        E 32 b1 0b 2a
        E 32 b1 0b 33
        E 32 b1 0b 3b
        E 32 b1 0b 44
        E 32 b1 0b 4c
        E 32 b1 0b 55
        E 32 b1 0b 5d
        E 32 b1 0b 66
        E 16 b1 0b 5d
        E 16 b1 0b 22
        E 0 81 39 00
        E 0 91 33 22
        E 32 b1 0b 2a
        E 32 b1 0b 33
        E 32 b1 0b 3b
        E 32 b1 0b 44
        E 32 b1 0b 4c
        E 32 b1 0b 55
        E 32 b1 0b 5d
        E 32 b1 0b 66
        E 16 b1 0b 5d
        E 16 b1 0b 22
        E 0 81 33 00
        E 0 91 3b 22
        E 32 b1 0b 2a
        E 32 b1 0b 33
        E 32 b1 0b 3b
        E 32 b1 0b 44
        E 32 b1 0b 4c
        E 32 b1 0b 55
        E 32 b1 0b 5d
        E 32 b1 0b 66
        E 16 b1 0b 5d
        E 16 b1 0b 22
        E 0 81 3b 00
        E 0 91 2f 22
        E 32 b1 0b 2a
        E 32 b1 0b 33
        E 32 b1 0b 3b
        E 32 b1 0b 44
        E 32 b1 0b 4c
        E 32 b1 0b 55
        E 32 b1 0b 5d
        E 32 b1 0b 66
        E 16 b1 0b 5d
        E 16 b1 0b 22
        E 0 81 2f 00
        E 0 91 33 22
        E 32 b1 0b 2a
        E 32 b1 0b 33
        E 32 b1 0b 3b
        E 32 b1 0b 44
        E 32 b1 0b 4c
        E 32 b1 0b 55
        E 32 b1 0b 5d
        E 32 b1 0b 66
        E 16 b1 0b 5d
        E 16 b1 0b 22
        E 0 81 33 00
        E 0 91 3b 22
        E 32 b1 0b 2a
        E 32 b1 0b 33
        E 32 b1 0b 3b
        E 32 b1 0b 44
        E 32 b1 0b 4c
        E 32 b1 0b 55
        E 32 b1 0b 5d
        E 32 b1 0b 66
        E 16 b1 0b 5d
        E 16 b1 0b 22
        E 0 81 3b 00
        E 0 91 39 22
        E 32 b1 0b 2a
        E 32 b1 0b 33
        E 32 b1 0b 3b
        E 32 b1 0b 44
        E 32 b1 0b 4c
        E 32 b1 0b 55
        E 32 b1 0b 5d
        E 32 b1 0b 66
        E 16 b1 0b 5d
        E 16 b1 0b 22
        E 0 81 39 00
        E 0 91 37 22
        E 32 b1 0b 2a
        E 32 b1 0b 33
        E 32 b1 0b 3b
        E 32 b1 0b 44
        E 32 b1 0b 4c
        E 32 b1 0b 55
        E 32 b1 0b 5d
        E 32 b1 0b 66
        E 16 b1 0b 5d
        E 16 b1 0b 22
        E 0 81 37 00
        E 0 91 36 22
        E 32 b1 0b 2a
        E 32 b1 0b 33
        E 32 b1 0b 3b
        E 32 b1 0b 44
        E 32 b1 0b 4c
        E 32 b1 0b 55
        E 32 b1 0b 5d
        E 32 b1 0b 66
        E 16 b1 0b 5d
        E 16 b1 0b 22
        E 0 81 36 00
        E 0 91 34 22
        E 32 b1 0b 2a
        E 32 b1 0b 33
        E 32 b1 0b 3b
        E 32 b1 0b 44
        E 32 b1 0b 4c
        E 32 b1 0b 55
        E 32 b1 0b 5d
        E 32 b1 0b 66
        E 16 b1 0b 5d
        E 16 b1 0b 55
        E 32 b1 0b 4c
        E 32 b1 0b 44
        E 32 b1 0b 3b
        E 32 b1 0b 33
        E 32 b1 0b 2a
        E 32 b1 0b 22
        E 672 81 34 00
        E 0 91 32 22
        E 32 b1 0b 2a
        E 32 b1 0b 33
        E 32 b1 0b 3b
        E 32 b1 0b 44
        E 32 b1 0b 4c
        E 32 b1 0b 55
        E 32 b1 0b 5d
        E 32 b1 0b 66
        E 16 b1 0b 5d
        E 16 b1 0b 22
        E 0 81 32 00
        E 0 91 3e 22
        E 32 b1 0b 2a
        E 32 b1 0b 33
        E 32 b1 0b 3b
        E 32 b1 0b 44
        E 32 b1 0b 4c
        E 32 b1 0b 55
        E 32 b1 0b 5d
        E 32 b1 0b 66
        E 16 b1 0b 5d
        E 16 b1 0b 22
        E 0 81 3e 00
        E 0 91 3d 22
        E 32 b1 0b 2a
        E 32 b1 0b 33
        E 32 b1 0b 3b
        E 32 b1 0b 44
        E 32 b1 0b 4c
        E 32 b1 0b 55
        E 32 b1 0b 5d
        E 32 b1 0b 66
        E 16 b1 0b 5d
        E 16 b1 0b 22
        E 0 81 3d 00
        E 0 91 3b 22
        E 32 b1 0b 2a
        E 32 b1 0b 33
        E 32 b1 0b 3b
        E 32 b1 0b 44
        E 32 b1 0b 4c
        E 32 b1 0b 55
        E 32 b1 0b 5d
        E 32 b1 0b 66
        E 16 b1 0b 5d
        E 16 b1 0b 22
        E 0 81 3b 00
        E 0 91 39 22
        E 32 b1 0b 2a
        E 32 b1 0b 33
        E 32 b1 0b 3b
        E 32 b1 0b 44
        E 32 b1 0b 4c
        E 32 b1 0b 55
        E 32 b1 0b 5d
        E 32 b1 0b 66
        E 16 b1 0b 5d
        E 16 b1 0b 22
        E 0 81 39 00
        E 0 91 37 22
        E 32 b1 0b 2a
        E 32 b1 0b 33
        E 32 b1 0b 3b
        E 32 b1 0b 44
        E 32 b1 0b 4c
        E 32 b1 0b 55
        E 32 b1 0b 5d
        E 32 b1 0b 66
        E 16 b1 0b 5d
        E 16 b1 0b 22
        E 0 81 37 00
        E 0 91 36 22
        E 32 b1 0b 2a
        E 32 b1 0b 33
        E 32 b1 0b 3b
        E 32 b1 0b 44
        E 32 b1 0b 4c
        E 32 b1 0b 55
        E 32 b1 0b 5d
        E 32 b1 0b 66
        E 16 b1 0b 5d
        E 16 b1 0b 22
        E 0 81 36 00
        E 0 91 34 22
        E 32 b1 0b 2a
        E 32 b1 0b 33
        E 32 b1 0b 3b
        E 32 b1 0b 44
        E 32 b1 0b 4c
        E 32 b1 0b 55
        E 32 b1 0b 5d
        E 32 b1 0b 66
        E 16 b1 0b 5d
        E 16 b1 0b 22
        E 0 81 34 00
        E 0 91 2d 22
        E 32 b1 0b 2a
        E 32 b1 0b 33
        E 32 b1 0b 3b
        E 32 b1 0b 44
        E 32 b1 0b 4c
        E 32 b1 0b 55
        E 32 b1 0b 5d
        E 32 b1 0b 66
        E 16 b1 0b 5d
        E 16 b1 0b 22
        E 0 81 2d 00
        E 0 91 36 22
        E 32 b1 0b 2a
        E 32 b1 0b 33
        E 32 b1 0b 3b
        E 32 b1 0b 44
        E 32 b1 0b 4c
        E 32 b1 0b 55
        E 32 b1 0b 5d
        E 32 b1 0b 66
        E 16 b1 0b 5d
        E 16 b1 0b 22
        E 0 81 36 00
        E 0 91 32 22
        E 32 b1 0b 2a
        E 32 b1 0b 33
        E 32 b1 0b 3b
        E 32 b1 0b 44
        E 32 b1 0b 4c
        E 32 b1 0b 55
        E 32 b1 0b 5d
        E 32 b1 0b 66
        E 16 b1 0b 5d
        E 16 b1 0b 22
        E 0 81 32 00
        E 0 91 36 22
        E 32 b1 0b 2a
        E 32 b1 0b 33
        E 32 b1 0b 3b
        E 32 b1 0b 44
        E 32 b1 0b 4c
        E 32 b1 0b 55
        E 32 b1 0b 5d
        E 32 b1 0b 66
        E 16 b1 0b 5d
        E 16 b1 0b 22
        E 0 81 36 00
        E 0 91 2d 22
        E 32 b1 0b 2a
        E 32 b1 0b 33
        E 32 b1 0b 3b
        E 32 b1 0b 44
        E 32 b1 0b 4c
        E 32 b1 0b 55
        E 32 b1 0b 5d
        E 32 b1 0b 66
        E 16 b1 0b 5d
        E 16 b1 0b 22
        E 0 81 2d 00
        E 0 91 36 22
        E 32 b1 0b 2a
        E 32 b1 0b 33
        E 32 b1 0b 3b
        E 32 b1 0b 44
        E 32 b1 0b 4c
        E 32 b1 0b 55
        E 32 b1 0b 5d
        E 32 b1 0b 66
        E 16 b1 0b 5d
        E 16 b1 0b 22
        E 0 81 36 00
        E 0 91 32 22
        E 32 b1 0b 2a
        E 32 b1 0b 33
        E 32 b1 0b 3b
        E 32 b1 0b 44
        E 32 b1 0b 4c
        E 32 b1 0b 55
        E 32 b1 0b 5d
        E 32 b1 0b 66
        E 16 b1 0b 5d
        E 16 b1 0b 22
        E 0 81 32 00
        E 0 91 36 22
        E 32 b1 0b 2a
        E 32 b1 0b 33
        E 32 b1 0b 3b
        E 32 b1 0b 44
        E 32 b1 0b 4c
        E 32 b1 0b 55
        E 32 b1 0b 5d
        E 32 b1 0b 66
        E 16 b1 0b 5d
        E 16 b1 0b 22
        E 0 81 36 00
        E 0 91 31 22
        E 32 b1 0b 2a
        E 32 b1 0b 33
        E 32 b1 0b 3b
        E 32 b1 0b 44
        E 32 b1 0b 4c
        E 32 b1 0b 55
        E 32 b1 0b 5d
        E 32 b1 0b 66
        E 16 b1 0b 5d
        E 16 b1 0b 22
        E 0 81 31 00
        E 0 91 34 22
        E 32 b1 0b 2a
        E 32 b1 0b 33
        E 32 b1 0b 3b
        E 32 b1 0b 44
        E 32 b1 0b 4c
        E 32 b1 0b 55
        E 32 b1 0b 5d
        E 32 b1 0b 66
        E 16 b1 0b 5d
        E 16 b1 0b 22
        E 0 81 34 00
        E 0 91 2d 22
        E 32 b1 0b 2a
        E 32 b1 0b 33
        E 32 b1 0b 3b
        E 32 b1 0b 44
        E 32 b1 0b 4c
        E 32 b1 0b 55
        E 32 b1 0b 5d
        E 32 b1 0b 66
        E 16 b1 0b 5d
        E 16 b1 0b 22
        E 0 81 2d 00
        E 0 91 34 22
        E 32 b1 0b 2a
        E 32 b1 0b 33
        E 32 b1 0b 3b
        E 32 b1 0b 44
        E 32 b1 0b 4c
        E 32 b1 0b 55
        E 32 b1 0b 5d
        E 32 b1 0b 66
        E 16 b1 0b 5d
        E 16 b1 0b 22
        E 0 81 34 00
        E 0 91 2f 22
        E 32 b1 0b 2a
        E 32 b1 0b 33
        E 32 b1 0b 3b
        E 32 b1 0b 44
        E 32 b1 0b 4c
        E 32 b1 0b 55
        E 32 b1 0b 5d
        E 32 b1 0b 66
        E 16 b1 0b 5d
        E 16 b1 0b 22
        E 0 81 2f 00
        E 0 91 34 22
        E 32 b1 0b 2a
        E 32 b1 0b 33
        E 32 b1 0b 3b
        E 32 b1 0b 44
        E 32 b1 0b 4c
        E 32 b1 0b 55
        E 32 b1 0b 5d
        E 32 b1 0b 66
        E 16 b1 0b 5d
        E 16 b1 0b 22
        E 0 81 34 00
        E 0 91 31 22
        E 32 b1 0b 2a
        E 32 b1 0b 33
        E 32 b1 0b 3b
        E 32 b1 0b 44
        E 32 b1 0b 4c
        E 32 b1 0b 55
        E 32 b1 0b 5d
        E 32 b1 0b 66
        E 16 b1 0b 5d
        E 16 b1 0b 22
        E 0 81 31 00
        E 0 91 34 22
        E 32 b1 0b 2a
        E 32 b1 0b 33
        E 32 b1 0b 3b
        E 32 b1 0b 44
        E 32 b1 0b 4c
        E 32 b1 0b 55
        E 32 b1 0b 5d
        E 32 b1 0b 66
        E 16 b1 0b 5d
        E 16 b1 0b 22
        E 0 81 34 00
        E 0 91 2f 22
        E 32 b1 0b 2a
        E 32 b1 0b 33
        E 32 b1 0b 3b
        E 32 b1 0b 44
        E 32 b1 0b 4c
        E 32 b1 0b 55
        E 32 b1 0b 5d
        E 32 b1 0b 66
        E 16 b1 0b 5d
        E 16 b1 0b 22
        E 0 81 2f 00
        E 0 91 36 22
        E 32 b1 0b 2a
        E 32 b1 0b 33
        E 32 b1 0b 3b
        E 32 b1 0b 44
        E 32 b1 0b 4c
        E 32 b1 0b 55
        E 32 b1 0b 5d
        E 32 b1 0b 66
        E 16 b1 0b 5d
        E 16 b1 0b 22
        E 0 81 36 00
        E 0 91 32 22
        E 32 b1 0b 2a
        E 32 b1 0b 33
        E 32 b1 0b 3b
        E 32 b1 0b 44
        E 32 b1 0b 4c
        E 32 b1 0b 55
        E 32 b1 0b 5d
        E 32 b1 0b 66
        E 16 b1 0b 5d
        E 16 b1 0b 22
        E 0 81 32 00
        E 0 91 36 22
        E 32 b1 0b 2a
        E 32 b1 0b 33
        E 32 b1 0b 3b
        E 32 b1 0b 44
        E 32 b1 0b 4c
        E 32 b1 0b 55
        E 32 b1 0b 5d
        E 32 b1 0b 66
        E 16 b1 0b 5d
        E 16 b1 0b 22
        E 0 81 36 00
        E 0 91 2f 22
        E 32 b1 0b 2a
        E 32 b1 0b 33
        E 32 b1 0b 3b
        E 32 b1 0b 44
        E 32 b1 0b 4c
        E 32 b1 0b 55
        E 32 b1 0b 5d
        E 32 b1 0b 66
        E 16 b1 0b 5d
        E 16 b1 0b 22
        E 0 81 2f 00
        E 0 91 36 22
        E 32 b1 0b 2a
        E 32 b1 0b 33
        E 32 b1 0b 3b
        E 32 b1 0b 44
        E 32 b1 0b 4c
        E 32 b1 0b 55
        E 32 b1 0b 5d
        E 32 b1 0b 66
        E 16 b1 0b 5d
        E 16 b1 0b 22
        E 0 81 36 00
        E 0 91 32 22
        E 32 b1 0b 2a
        E 32 b1 0b 33
        E 32 b1 0b 3b
        E 32 b1 0b 44
        E 32 b1 0b 4c
        E 32 b1 0b 55
        E 32 b1 0b 5d
        E 32 b1 0b 66
        E 16 b1 0b 5d
        E 16 b1 0b 22
        E 0 81 32 00
        E 0 91 36 22
        E 32 b1 0b 2a
        E 32 b1 0b 33
        E 32 b1 0b 3b
        E 32 b1 0b 44
        E 32 b1 0b 4c
        E 32 b1 0b 55
        E 32 b1 0b 5d
        E 32 b1 0b 66
        E 16 b1 0b 5d
        E 16 b1 0b 22
        E 0 81 36 00
        E 0 91 2e 22
        E 32 b1 0b 2a
        E 32 b1 0b 33
        E 32 b1 0b 3b
        E 32 b1 0b 44
        E 32 b1 0b 4c
        E 32 b1 0b 55
        E 32 b1 0b 5d
        E 32 b1 0b 66
        E 16 b1 0b 5d
        E 16 b1 0b 22
        E 0 81 2e 00
        E 0 91 31 22
        E 32 b1 0b 2a
        E 32 b1 0b 33
        E 32 b1 0b 3b
        E 32 b1 0b 44
        E 32 b1 0b 4c
        E 32 b1 0b 55
        E 32 b1 0b 5d
        E 32 b1 0b 66
        E 16 b1 0b 5d
        E 16 b1 0b 22
        E 0 81 31 00
        E 0 91 2a 22
        E 32 b1 0b 2a
        E 32 b1 0b 33
        E 32 b1 0b 3b
        E 32 b1 0b 44
        E 32 b1 0b 4c
        E 32 b1 0b 55
        E 32 b1 0b 5d
        E 32 b1 0b 66
        E 16 b1 0b 5d
        E 16 b1 0b 22
        E 0 81 2a 00
        E 0 91 31 22
        E 32 b1 0b 2a
        E 32 b1 0b 33
        E 32 b1 0b 3b
        E 32 b1 0b 44
        E 32 b1 0b 4c
        E 32 b1 0b 55
        E 32 b1 0b 5d
        E 32 b1 0b 66
        E 16 b1 0b 5d
        E 16 b1 0b 22
        E 0 81 31 00
        E 0 91 2c 22
        E 32 b1 0b 2a
        E 32 b1 0b 33
        E 32 b1 0b 3b
        E 32 b1 0b 44
        E 32 b1 0b 4c
        E 32 b1 0b 55
        E 32 b1 0b 5d
        E 32 b1 0b 66
        E 16 b1 0b 5d
        E 16 b1 0b 22
        E 0 81 2c 00
        E 0 91 31 22
        E 32 b1 0b 2a
        E 32 b1 0b 33
        E 32 b1 0b 3b
        E 32 b1 0b 44
        E 32 b1 0b 4c
        E 32 b1 0b 55
        E 32 b1 0b 5d
        E 32 b1 0b 66
        E 16 b1 0b 5d
        E 16 b1 0b 22
        E 0 81 31 00
        E 0 91 2e 22
        E 32 b1 0b 2a
        E 32 b1 0b 33
        E 32 b1 0b 3b
        E 32 b1 0b 44
        E 32 b1 0b 4c
        E 32 b1 0b 55
        E 32 b1 0b 5d
        E 32 b1 0b 66
        E 16 b1 0b 5d
        E 16 b1 0b 22
        E 0 81 2e 00
        E 0 91 31 22
        E 32 b1 0b 2a
        E 32 b1 0b 33
        E 32 b1 0b 3b
        E 32 b1 0b 44
        E 32 b1 0b 4c
        E 32 b1 0b 55
        E 32 b1 0b 5d
        E 32 b1 0b 66
        E 16 b1 0b 5d
        E 16 b1 0b 22
        E 0 81 31 00
        E 0 91 2f 22
        E 32 b1 0b 2a
        E 32 b1 0b 33
        E 32 b1 0b 3b
        E 32 b1 0b 44
        E 32 b1 0b 4c
        E 32 b1 0b 55
        E 32 b1 0b 5d
        E 32 b1 0b 66
        E 16 b1 0b 5d
        E 16 b1 0b 22
        E 0 81 2f 00
        E 0 91 37 22
        E 32 b1 0b 2a
        E 32 b1 0b 33
        E 32 b1 0b 3b
        E 32 b1 0b 44
        E 32 b1 0b 4c
        E 32 b1 0b 55
        E 32 b1 0b 5d
        E 32 b1 0b 66
        E 16 b1 0b 5d
        E 16 b1 0b 22
        E 0 81 37 00
        E 0 91 32 22
        E 32 b1 0b 2a
        E 32 b1 0b 33
        E 32 b1 0b 3b
        E 32 b1 0b 44
        E 32 b1 0b 4c
        E 32 b1 0b 55
        E 32 b1 0b 5d
        E 32 b1 0b 66
        E 16 b1 0b 5d
        E 16 b1 0b 22
        E 0 81 32 00
        E 0 91 37 22
        E 32 b1 0b 2a
        E 32 b1 0b 33
        E 32 b1 0b 3b
        E 32 b1 0b 44
        E 32 b1 0b 4c
        E 32 b1 0b 55
        E 32 b1 0b 5d
        E 32 b1 0b 66
        E 16 b1 0b 5d
        E 16 b1 0b 22
        E 0 81 37 00
        E 0 91 2e 22
        E 32 b1 0b 2a
        E 32 b1 0b 33
        E 32 b1 0b 3b
        E 32 b1 0b 44
        E 32 b1 0b 4c
        E 32 b1 0b 55
        E 32 b1 0b 5d
        E 32 b1 0b 66
        E 16 b1 0b 5d
        E 16 b1 0b 22
        E 0 81 2e 00
        E 0 91 37 22
        E 32 b1 0b 2a
        E 32 b1 0b 33
        E 32 b1 0b 3b
        E 32 b1 0b 44
        E 32 b1 0b 4c
        E 32 b1 0b 55
        E 32 b1 0b 5d
        E 32 b1 0b 66
        E 16 b1 0b 5d
        E 16 b1 0b 22
        E 0 81 37 00
        E 0 91 32 22
        E 32 b1 0b 2a
        E 32 b1 0b 33
        E 32 b1 0b 3b
        E 32 b1 0b 44
        E 32 b1 0b 4c
        E 32 b1 0b 55
        E 32 b1 0b 5d
        E 32 b1 0b 66
        E 16 b1 0b 5d
        E 16 b1 0b 22
        E 0 81 32 00
        E 0 91 37 22
        E 32 b1 0b 2a
        E 32 b1 0b 33
        E 32 b1 0b 3b
        E 32 b1 0b 44
        E 32 b1 0b 4c
        E 32 b1 0b 55
        E 32 b1 0b 5d
        E 32 b1 0b 66
        E 16 b1 0b 5d
        E 16 b1 0b 22
        E 0 81 37 00
        E 0 91 32 22
        E 32 b1 0b 2a
        E 32 b1 0b 33
        E 32 b1 0b 3b
        E 32 b1 0b 44
        E 32 b1 0b 4c
        E 32 b1 0b 55
        E 32 b1 0b 5d
        E 32 b1 0b 66
        E 16 b1 0b 5d
        E 16 b1 0b 22
        E 0 81 32 00
        E 0 91 39 22
        E 32 b1 0b 2a
        E 32 b1 0b 33
        E 32 b1 0b 3b
        E 32 b1 0b 44
        E 32 b1 0b 4c
        E 32 b1 0b 55
        E 32 b1 0b 5d
        E 32 b1 0b 66
        E 16 b1 0b 5d
        E 16 b1 0b 22
        E 0 81 39 00
        E 0 91 34 22
        E 32 b1 0b 2a
        E 32 b1 0b 33
        E 32 b1 0b 3b
        E 32 b1 0b 44
        E 32 b1 0b 4c
        E 32 b1 0b 55
        E 32 b1 0b 5d
        E 32 b1 0b 66
        E 16 b1 0b 5d
        E 16 b1 0b 22
        E 0 81 34 00
        E 0 91 39 22
        E 32 b1 0b 2a
        E 32 b1 0b 33
        E 32 b1 0b 3b
        E 32 b1 0b 44
        E 32 b1 0b 4c
        E 32 b1 0b 55
        E 32 b1 0b 5d
        E 32 b1 0b 66
        E 16 b1 0b 5d
        E 16 b1 0b 22
        E 0 81 39 00
        E 0 91 33 22
        E 32 b1 0b 2a
        E 32 b1 0b 33
        E 32 b1 0b 3b
        E 32 b1 0b 44
        E 32 b1 0b 4c
        E 32 b1 0b 55
        E 32 b1 0b 5d
        E 32 b1 0b 66
        E 16 b1 0b 5d
        E 16 b1 0b 22
        E 0 81 33 00
        E 0 91 3b 22
        E 32 b1 0b 2a
        E 32 b1 0b 33
        E 32 b1 0b 3b
        E 32 b1 0b 44
        E 32 b1 0b 4c
        E 32 b1 0b 55
        E 32 b1 0b 5d
        E 32 b1 0b 66
        E 16 b1 0b 5d
        E 16 b1 0b 22
        E 0 81 3b 00
        E 0 91 2f 22
        E 32 b1 0b 2a
        E 32 b1 0b 33
        E 32 b1 0b 3b
        E 32 b1 0b 44
        E 32 b1 0b 4c
        E 32 b1 0b 55
        E 32 b1 0b 5d
        E 32 b1 0b 66
        E 16 b1 0b 5d
        E 16 b1 0b 22
        E 0 81 2f 00
        E 0 91 33 22
        E 32 b1 0b 2a
        E 32 b1 0b 33
        E 32 b1 0b 3b
        E 32 b1 0b 44
        E 32 b1 0b 4c
        E 32 b1 0b 55
        E 32 b1 0b 5d
        E 32 b1 0b 66
        E 16 b1 0b 5d
        E 16 b1 0b 22
        E 0 81 33 00
        E 0 91 3b 22
        E 32 b1 0b 2a
        E 32 b1 0b 33
        E 32 b1 0b 3b
        E 32 b1 0b 44
        E 32 b1 0b 4c
        E 32 b1 0b 55
        E 32 b1 0b 5d
        E 32 b1 0b 66
        E 16 b1 0b 5d
        E 16 b1 0b 22
        E 0 81 3b 00
        E 0 91 39 22
        E 32 b1 0b 2a
        E 32 b1 0b 33
        E 32 b1 0b 3b
        E 32 b1 0b 44
        E 32 b1 0b 4c
        E 32 b1 0b 55
        E 32 b1 0b 5d
        E 32 b1 0b 66
        E 16 b1 0b 5d
        E 16 b1 0b 22
        E 0 81 39 00
        E 0 91 37 22
        E 32 b1 0b 2a
        E 32 b1 0b 33
        E 32 b1 0b 3b
        E 32 b1 0b 44
        E 32 b1 0b 4c
        E 32 b1 0b 55
        E 32 b1 0b 5d
        E 32 b1 0b 66
        E 16 b1 0b 5d
        E 16 b1 0b 22
        E 0 81 37 00
        E 0 91 36 22
        E 32 b1 0b 2a
        E 32 b1 0b 33
        E 32 b1 0b 3b
        E 32 b1 0b 44
        E 32 b1 0b 4c
        E 32 b1 0b 55
        E 32 b1 0b 5d
        E 32 b1 0b 66
        E 16 b1 0b 5d
        E 16 b1 0b 22
        E 0 81 36 00
        E 0 91 34 22
        E 32 b1 0b 2a
        E 32 b1 0b 33
        E 32 b1 0b 3b
        E 32 b1 0b 44
        E 32 b1 0b 4c
        E 32 b1 0b 55
        E 32 b1 0b 5d
        E 32 b1 0b 66
        E 16 b1 0b 5d
        E 16 b1 0b 55
        E 32 b1 0b 4c
        E 32 b1 0b 44
        E 32 b1 0b 3b
        E 32 b1 0b 33
        E 32 b1 0b 2a
        E 32 b1 0b 22
        E 672 81 34 00
        E 0 91 32 22
        E 32 b1 0b 2a
        E 32 b1 0b 33
        E 32 b1 0b 3b
        E 32 b1 0b 44
        E 32 b1 0b 4c
        E 32 b1 0b 55
        E 32 b1 0b 5d
        E 32 b1 0b 66
        E 16 b1 0b 5d
        E 16 b1 0b 22
        E 0 81 32 00
        E 0 91 3e 22
        E 32 b1 0b 2a
        E 32 b1 0b 33
        E 32 b1 0b 3b
        E 32 b1 0b 44
        E 32 b1 0b 4c
        E 32 b1 0b 55
        E 32 b1 0b 5d
        E 32 b1 0b 66
        E 16 b1 0b 5d
        E 16 b1 0b 22
        E 0 81 3e 00
        E 0 91 3d 22
        E 32 b1 0b 2a
        E 32 b1 0b 33
        E 32 b1 0b 3b
        E 32 b1 0b 44
        E 32 b1 0b 4c
        E 32 b1 0b 55
        E 32 b1 0b 5d
        E 32 b1 0b 66
        E 16 b1 0b 5d
        E 16 b1 0b 22
        E 0 81 3d 00
        E 0 91 3b 22
        E 32 b1 0b 2a
        E 32 b1 0b 33
        E 32 b1 0b 3b
        E 32 b1 0b 44
        E 32 b1 0b 4c
        E 32 b1 0b 55
        E 32 b1 0b 5d
        E 32 b1 0b 66
        E 16 b1 0b 5d
        E 16 b1 0b 22
        E 0 81 3b 00
        E 0 91 39 22
        E 32 b1 0b 2a
        E 32 b1 0b 33
        E 32 b1 0b 3b
        E 32 b1 0b 44
        E 32 b1 0b 4c
        E 32 b1 0b 55
        E 32 b1 0b 5d
        E 32 b1 0b 66
        E 16 b1 0b 5d
        E 16 b1 0b 22
        E 0 81 39 00
        E 0 91 37 22
        E 32 b1 0b 2a
        E 32 b1 0b 33
        E 32 b1 0b 3b
        E 32 b1 0b 44
        E 32 b1 0b 4c
        E 32 b1 0b 55
        E 32 b1 0b 5d
        E 32 b1 0b 66
        E 16 b1 0b 5d
        E 16 b1 0b 22
        E 0 81 37 00
        E 0 91 36 22
        E 32 b1 0b 2a
        E 32 b1 0b 33
        E 32 b1 0b 3b
        E 32 b1 0b 44
        E 32 b1 0b 4c
        E 32 b1 0b 55
        E 32 b1 0b 5d
        E 32 b1 0b 66
        E 16 b1 0b 5d
        E 16 b1 0b 22
        E 0 81 36 00
        E 0 91 34 22
        E 32 b1 0b 2a
        E 32 b1 0b 33
        E 32 b1 0b 3b
        E 32 b1 0b 44
        E 32 b1 0b 4c
        E 32 b1 0b 55
        E 32 b1 0b 5d
        E 32 b1 0b 66
        E 16 b1 0b 5d
        E 16 b1 0b 22
        E 0 81 34 00
        E 0 91 2d 22
        E 32 b1 0b 2a
        E 32 b1 0b 33
        E 32 b1 0b 3b
        E 32 b1 0b 44
        E 32 b1 0b 4c
        E 32 b1 0b 55
        E 32 b1 0b 5d
        E 32 b1 0b 66
        E 16 b1 0b 5d
        E 16 b1 0b 22
        E 0 81 2d 00
        E 0 91 36 22
        E 32 b1 0b 2a
        E 32 b1 0b 33
        E 32 b1 0b 3b
        E 32 b1 0b 44
        E 32 b1 0b 4c
        E 32 b1 0b 55
        E 32 b1 0b 5d
        E 32 b1 0b 66
        E 16 b1 0b 5d
        E 16 b1 0b 22
        E 0 81 36 00
        E 0 91 32 22
        E 32 b1 0b 2a
        E 32 b1 0b 33
        E 32 b1 0b 3b
        E 32 b1 0b 44
        E 32 b1 0b 4c
        E 32 b1 0b 55
        E 32 b1 0b 5d
        E 32 b1 0b 66
        E 16 b1 0b 5d
        E 16 b1 0b 22
        E 0 81 32 00
        E 0 91 36 22
        E 32 b1 0b 2a
        E 32 b1 0b 33
        E 32 b1 0b 3b
        E 32 b1 0b 44
        E 32 b1 0b 4c
        E 32 b1 0b 55
        E 32 b1 0b 5d
        E 32 b1 0b 66
        E 16 b1 0b 5d
        E 16 b1 0b 22
        E 0 81 36 00
        E 0 91 2d 22
        E 32 b1 0b 2a
        E 32 b1 0b 33
        E 32 b1 0b 3b
        E 32 b1 0b 44
        E 32 b1 0b 4c
        E 32 b1 0b 55
        E 32 b1 0b 5d
        E 32 b1 0b 66
        E 16 b1 0b 5d
        E 16 b1 0b 22
        E 0 81 2d 00
        E 0 91 36 22
        E 32 b1 0b 2a
        E 32 b1 0b 33
        E 32 b1 0b 3b
        E 32 b1 0b 44
        E 32 b1 0b 4c
        E 32 b1 0b 55
        E 32 b1 0b 5d
        E 32 b1 0b 66
        E 16 b1 0b 5d
        E 16 b1 0b 22
        E 0 81 36 00
        E 0 91 32 22
        E 32 b1 0b 2a
        E 32 b1 0b 33
        E 32 b1 0b 3b
        E 32 b1 0b 44
        E 32 b1 0b 4c
        E 32 b1 0b 55
        E 32 b1 0b 5d
        E 32 b1 0b 66
        E 16 b1 0b 5d
        E 16 b1 0b 22
        E 0 81 32 00
        E 0 91 36 22
        E 32 b1 0b 2a
        E 32 b1 0b 33
        E 32 b1 0b 3b
        E 32 b1 0b 44
        E 32 b1 0b 4c
        E 32 b1 0b 55
        E 32 b1 0b 5d
        E 32 b1 0b 66
        E 16 b1 0b 5d
        E 16 b1 0b 22
        E 0 81 36 00
        E 0 91 31 22
        E 32 b1 0b 2a
        E 32 b1 0b 33
        E 32 b1 0b 3b
        E 32 b1 0b 44
        E 32 b1 0b 4c
        E 32 b1 0b 55
        E 32 b1 0b 5d
        E 32 b1 0b 66
        E 16 b1 0b 5d
        E 16 b1 0b 22
        E 0 81 31 00
        E 0 91 34 22
        E 32 b1 0b 2a
        E 32 b1 0b 33
        E 32 b1 0b 3b
        E 32 b1 0b 44
        E 32 b1 0b 4c
        E 32 b1 0b 55
        E 32 b1 0b 5d
        E 32 b1 0b 66
        E 16 b1 0b 5d
        E 16 b1 0b 22
        E 0 81 34 00
        E 0 91 2d 22
        E 32 b1 0b 2a
        E 32 81 2d 00
        E 0 b1 7b 00
        E 0 ff 2f 00
      >
    >
  >
  <TRACK {D1920A6C-745C-4636-B8B9-469A1DD4AB42}
    NAME "NES - Triangle [ch2]"
    PEAKCOL 16744192
    BEAT -1
    AUTOMODE 0
    PANLAWFLAGS 3
    VOLPAN 1 0 -1 -1 1
    MUTESOLO 0 0 0
    IPHASE 0
    PLAYOFFS 0 1
    ISBUS 0 0
    BUSCOMP 0 0 0 0 0
    SHOWINMIX 1 0.6667 0.5 1 0.5 0 0 0
    FIXEDLANES 9 0 0 0 0
    SEL 0
    REC 0 5088 1 0 0 0 0 0
    VU 2
    TRACKHEIGHT 0 0 0 0 0 0 0
    INQ 0 0 0 0.5 100 0 0 100
    NCHAN 2
    FX 1
    TRACKID {D1920A6C-745C-4636-B8B9-469A1DD4AB42}
    PERF 0
    MIDIOUT -1
    MAINSEND 1 0
    <FXCHAIN
      WNDRECT 24 52 700 560
      SHOW 0
      LASTSEL 0
      DOCKED 0
      BYPASS 0 0 0
      <JS "ReapNES Studio/ReapNES_Console.jsfx" ""
        2 15 1 10 80 10 100 2 1 15 1 5 60 10 80 1 1 0 50 0 0 15 1 0 100 0 0 0.500000 0.500000 0.400000 0.300000 0.800000 2 1 0 0 0 0 - - - - - - - - - - - - - - - - - - - - - - - - - -
      >
      FLOATPOS 0 0 0 0
      FXID {E65E6116-B8BF-4B2A-AB5E-B923D63B9C00}
      WAK 0 0
    >
    <ITEM
      POSITION 0
      LENGTH 74.5878716
      LOOP 0
      ALLTAKES 0
      FADEIN 0 0 0 0 0 0 0
      FADEOUT 0 0 0 0 0 0 0
      MUTE 0 0
      SEL 0
      IGUID {E8768F19-491A-458A-8316-1A2816937983}
      <SOURCE MIDI
        HASDATA 1 480 QN
        CCINTERP 32
        E 0 c2 26
        E 64 b2 0b 7f
        E 0 92 32 7f
        E 2304 82 32 00
        E 0 b2 0b 7f
        E 0 92 31 7f
        E 2304 82 31 00
        E 0 b2 0b 7f
        E 0 92 2f 7f
        E 2304 82 2f 00
        E 0 b2 0b 7f
        E 0 92 2e 7f
        E 2304 82 2e 00
        E 0 b2 0b 7f
        E 0 92 2b 7f
        E 2304 82 2b 00
        E 0 b2 0b 7f
        E 0 92 32 7f
        E 1152 82 32 00
        E 0 b2 0b 7f
        E 0 92 2f 7f
        E 1152 82 2f 00
        E 0 b2 0b 7f
        E 0 92 34 7f
        E 2304 82 34 00
        E 0 b2 0b 7f
        E 0 92 2d 7f
        E 2304 82 2d 00
        E 0 b2 0b 7f
        E 0 92 32 7f
        E 2304 82 32 00
        E 0 b2 0b 7f
        E 0 92 31 7f
        E 2304 82 31 00
        E 0 b2 0b 7f
        E 0 92 2f 7f
        E 2304 82 2f 00
        E 0 b2 0b 7f
        E 0 92 2e 7f
        E 2304 82 2e 00
        E 0 b2 0b 7f
        E 0 92 2b 7f
        E 2304 82 2b 00
        E 0 b2 0b 7f
        E 0 92 32 7f
        E 1152 82 32 00
        E 0 b2 0b 7f
        E 0 92 2f 7f
        E 1152 82 2f 00
        E 0 b2 0b 7f
        E 0 92 34 7f
        E 2304 82 34 00
        E 0 b2 0b 7f
        E 0 92 2d 7f
        E 2304 82 2d 00
        E 0 b2 0b 7f
        E 0 92 32 7f
        E 2304 82 32 00
        E 0 b2 0b 7f
        E 0 92 31 7f
        E 2304 82 31 00
        E 0 b2 0b 7f
        E 0 92 2f 7f
        E 2304 82 2f 00
        E 0 b2 0b 7f
        E 0 92 2e 7f
        E 2304 82 2e 00
        E 0 b2 0b 7f
        E 0 92 2b 7f
        E 2304 82 2b 00
        E 0 b2 0b 7f
        E 0 92 32 7f
        E 1152 82 32 00
        E 0 b2 0b 7f
        E 0 92 2f 7f
        E 1152 82 2f 00
        E 0 b2 0b 7f
        E 0 92 34 7f
        E 2304 82 34 00
        E 0 b2 0b 7f
        E 0 92 2d 7f
        E 2304 82 2d 00
        E 0 b2 0b 7f
        E 0 92 32 7f
        E 2304 82 32 00
        E 0 b2 0b 7f
        E 0 92 31 7f
        E 2304 82 31 00
        E 0 b2 0b 7f
        E 0 92 2f 7f
        E 2304 82 2f 00
        E 0 b2 0b 7f
        E 0 92 2e 7f
        E 2304 82 2e 00
        E 0 b2 0b 7f
        E 0 92 2b 7f
        E 2304 82 2b 00
        E 0 b2 0b 7f
        E 0 92 32 7f
        E 1152 82 32 00
        E 0 b2 0b 7f
        E 0 92 2f 7f
        E 1152 82 2f 00
        E 0 b2 0b 7f
        E 0 92 34 7f
        E 2304 82 34 00
        E 0 b2 0b 7f
        E 0 92 2d 7f
        E 2304 82 2d 00
        E 0 b2 0b 7f
        E 0 92 32 7f
        E 2304 82 32 00
        E 0 b2 0b 7f
        E 0 92 31 7f
        E 640 82 31 00
        E 0 b2 7b 00
        E 0 ff 2f 00
      >
    >
  >
  <TRACK {07114F7E-1898-43E3-8568-C04B546F3BD6}
    NAME "NES - Noise / Drums"
    PEAKCOL 11184810
    BEAT -1
    AUTOMODE 0
    PANLAWFLAGS 3
    VOLPAN 1 0 -1 -1 1
    MUTESOLO 0 0 0
    IPHASE 0
    PLAYOFFS 0 1
    ISBUS 0 0
    BUSCOMP 0 0 0 0 0
    SHOWINMIX 1 0.6667 0.5 1 0.5 0 0 0
    FIXEDLANES 9 0 0 0 0
    SEL 0
    REC 0 5088 1 0 0 0 0 0
    VU 2
    TRACKHEIGHT 0 0 0 0 0 0 0
    INQ 0 0 0 0.5 100 0 0 100
    NCHAN 2
    FX 1
    TRACKID {07114F7E-1898-43E3-8568-C04B546F3BD6}
    PERF 0
    MIDIOUT -1
    MAINSEND 1 0
    <FXCHAIN
      WNDRECT 24 52 700 560
      SHOW 0
      LASTSEL 0
      DOCKED 0
      BYPASS 0 0 0
      <JS "ReapNES Studio/ReapNES_Console.jsfx" ""
        2 15 1 10 80 10 100 2 1 15 1 5 60 10 80 1 1 0 50 0 0 15 1 0 100 0 0 0.500000 0.500000 0.400000 0.300000 0.800000 3 1 0 0 0 0 - - - - - - - - - - - - - - - - - - - - - - - - - -
      >
      FLOATPOS 0 0 0 0
      FXID {8105AA05-0DCE-4735-99C7-B6075F5CF5EA}
      WAK 0 0
    >
  >
>