<REAPER_PROJECT 0.1 "7.27/win64" 1707000000
  <NOTES 0 2
    |ReapNES Studio Project
    |MIDI Import - Final_Fantasy_song_59_rom_v1
  >
  RIPPLE 0
  GROUPOVERRIDE 0 0 0
  AUTOXFADE 129
  ENVATTACH 3
  POOLEDENVATTACH 0
  MIXERUIFLAGS 11 48
  ENVFADESZ10 40
  PEAKGAIN 1
  FEEDBACK 0
  PANLAW 1
  PROJOFFS 0 0 0
  MAXPROJLEN 0 0
  GRID 3199 8 1 8 1 0 0 0
  TIMEMODE 1 5 -1 30 0 0 -1
  VIDEO_CONFIG 0 0 65792
  PANMODE 3
  PANLAWFLAGS 3
  CURSOR 0
  ZOOM 100 0 0
  VZOOMEX 6 0
  USE_REC_CFG 0
  RECMODE 1
  SMPTESYNC 0 30 100 40 1000 300 0 0 1 0 0
  LOOP 0
  LOOPGRAN 0 4
  RECORD_PATH "Media" ""
  <RECORD_CFG
    ZXZhdxgAAQ==
  >
  <APPLYFX_CFG
  >
  RENDER_FILE ""
  RENDER_PATTERN ""
  RENDER_FMT 0 2 0
  RENDER_1X 0
  RENDER_RANGE 1 0 0 18 1000
  RENDER_RESAMPLE 3 0 1
  RENDER_ADDTOPROJ 0
  RENDER_STEMS 0
  RENDER_DITHER 0
  TIMELOCKMODE 1
  TEMPOENVLOCKMODE 1
  ITEMMIX 1
  DEFPITCHMODE 589824 0
  TAKELANE 1
  SAMPLERATE 44100 0 0
  <RENDER_CFG
    ZXZhdxgAAQ==
  >
  LOCK 1
  <METRONOME 6 2
    VOL 0.25 0.125
    BEATLEN 4
    FREQ 1760 880 1
    SAMPLES "" ""
    SPLIGNORE 0 0
    SPLDEF 2 660 "" 0
    SPLDEF 3 440 "" 0
    PATTERN 0 169
    PATTERNSTR ABBB
    MULT 1
  >
  GLOBAL_AUTO -1
  TEMPO 128.59999614200012 4 4
  PLAYRATE 1 0 0.25 4
  SELECTION 0 0
  SELECTION2 0 0
  MASTERAUTOMODE 0
  MASTERTRACKHEIGHT 0 0
  MASTERPEAKCOL 16576
  MASTERMUTESOLO 0
  MASTERTRACKVIEW 0 0.6667 0.5 0.5 0 0 0 0 0 0 0 0 0 0
  MASTERHWOUT 0 0 1 0 0 0 0 -1
  MASTER_NCH 2 2
  MASTER_VOLUME 1 0 -1 -1 1
  MASTER_PANMODE 3
  MASTER_PANLAWFLAGS 3
  MASTER_FX 1
  MASTER_SEL 0
  <MASTERPLAYSPEEDENV
    EGUID {C9684CBC-FEA4-434F-A660-9FFCC703CA14}
    ACT 0 -1
    VIS 0 1 1
    LANEHEIGHT 0 0
    ARM 0
    DEFSHAPE 0 -1 -1
  >
  <TEMPOENVEX
    EGUID {E1A750C1-3E2F-474A-9534-DB7A204DC4C1}
    ACT 1 -1
    VIS 1 0 1
    LANEHEIGHT 0 0
    ARM 0
    DEFSHAPE 1 -1 -1
  >
  <PROJBAY
  >
  <TRACK {F88DDC4B-A02F-4FE6-AC47-AB91867B1F10}
    NAME "NES - Pulse 1 [ch0]"
    PEAKCOL 16576606
    BEAT -1
    AUTOMODE 0
    PANLAWFLAGS 3
    VOLPAN 1 0 -1 -1 1
    MUTESOLO 0 0 0
    IPHASE 0
    PLAYOFFS 0 1
    ISBUS 0 0
    BUSCOMP 0 0 0 0 0
    SHOWINMIX 1 0.6667 0.5 1 0.5 0 0 0
    FIXEDLANES 9 0 0 0 0
    SEL 1
    REC 1 5088 1 0 0 0 0 0
    VU 2
    TRACKHEIGHT 0 0 0 0 0 0 0
    INQ 0 0 0 0.5 100 0 0 100
    NCHAN 2
    FX 1
    TRACKID {F88DDC4B-A02F-4FE6-AC47-AB91867B1F10}
    PERF 0
    MIDIOUT -1
    MAINSEND 1 0
    <FXCHAIN
      WNDRECT 24 52 700 560
      SHOW 0
      LASTSEL 0
      DOCKED 0
      BYPASS 0 0 0
      <JS "ReapNES Studio/ReapNES_Console.jsfx" ""
        2 15 1 10 80 10 100 2 1 15 1 5 60 10 80 1 1 0 50 0 0 15 1 0 100 0 0 0.500000 0.500000 0.400000 0.300000 0.800000 0 1 0 0 0 0 - - - - - - - - - - - - - - - - - - - - - - - - - -
      >
      FLOATPOS 0 0 0 0
      FXID {DE5511D6-F666-45AE-BFDE-836D58553C83}
      WAK 0 0
    >
    <ITEM
      POSITION 0
      LENGTH 74.5878716
      LOOP 0
      ALLTAKES 0
      FADEIN 0 0 0 0 0 0 0
      FADEOUT 0 0 0 0 0 0 0
      MUTE 0 0
      SEL 0
      IGUID {FFD22B8F-35B2-4185-ABF5-3B8FC2B4C4CC}
      <SOURCE MIDI
        HASDATA 1 480 QN
        CCINTERP 32
        E 0 c0 50
        E 0 b0 0c 20
        E 0 b0 0b 77
        E 0 90 2e 77
        E 16 80 2e 00
        E 48 b0 0b 66
        E 0 90 25 66
        E 16 b0 0b 77
        E 16 b0 0b 66
        E 16 b0 0b 5d
        E 16 b0 0b 4c
        E 16 b0 0b 44
        E 16 b0 0b 33
        E 16 b0 0b 7f
        E 0 80 25 00
        E 0 90 2a 7f
        E 16 b0 0b 77
        E 16 b0 0b 66
        E 16 b0 0b 5d
        E 16 b0 0b 7f
        E 0 80 2a 00
        E 0 90 2c 7f
        E 16 b0 0b 77
        E 16 b0 0b 66
        E 16 b0 0b 5d
        E 16 b0 0b 4c
        E 16 b0 0b 44
        E 16 b0 0b 33
        E 16 b0 0b 2a
        E 16 b0 0b 19
        E 16 b0 0b 11
        E 16 80 2c 00
        E 1280 b0 0b 7f
        E 0 90 2e 7f
        E 16 b0 0b 77
        E 16 b0 0b 66
        E 16 b0 0b 5d
        E 16 b0 0b 4c
        E 16 b0 0b 44
        E 16 b0 0b 33
        E 16 b0 0b 2a
        E 16 b0 0b 19
        E 16 b0 0b 11
        E 16 80 2e 00
        E 800 b0 0b 7f
        E 0 90 2a 7f
        E 16 b0 0b 77
        E 16 b0 0b 66
        E 16 b0 0b 5d
        E 16 b0 0b 4c
        E 16 b0 0b 44
        E 16 b0 0b 33
        E 16 b0 0b 2a
        E 16 b0 0b 19
        E 16 b0 0b 11
        E 16 80 2a 00
        E 320 b0 0b 7f
        E 0 90 2e 7f
        E 16 b0 0b 77
        E 16 b0 0b 66
        E 16 b0 0b 5d
        E 16 b0 0b 4c
        E 16 b0 0b 44
        E 16 b0 0b 33
        E 16 b0 0b 2a
        E 16 b0 0b 19
        E 16 b0 0b 11
        E 16 80 2e 00
        E 800 b0 0b 7f
        E 0 90 24 7f
        E 16 b0 0b 77
        E 16 b0 0b 66
        E 16 b0 0b 5d
        E 16 b0 0b 4c
        E 16 b0 0b 44
        E 16 b0 0b 33
        E 16 b0 0b 2a
        E 16 b0 0b 19
        E 16 b0 0b 11
        E 16 80 24 00
        E 1760 b0 0b 7f
        E 0 90 2a 7f
        E 16 b0 0b 77
        E 16 b0 0b 66
        E 16 b0 0b 5d
        E 16 b0 0b 4c
        E 16 b0 0b 44
        E 16 b0 0b 33
        E 16 b0 0b 2a
        E 16 b0 0b 19
        E 16 b0 0b 11
        E 16 80 2a 00
        E 800 b0 0b 7f
        E 0 90 2a 7f
        E 16 b0 0b 77
        E 16 b0 0b 66
        E 16 b0 0b 5d
        E 16 b0 0b 4c
        E 16 b0 0b 44
        E 16 b0 0b 33
        E 16 b0 0b 2a
        E 16 b0 0b 19
        E 16 b0 0b 11
        E 16 80 2a 00
        E 320 b0 0b 7f
        E 0 90 2c 7f
        E 16 b0 0b 77
        E 16 b0 0b 66
        E 16 b0 0b 5d
        E 16 b0 0b 4c
        E 16 b0 0b 44
        E 16 b0 0b 33
        E 16 b0 0b 2a
        E 16 b0 0b 19
        E 16 b0 0b 11
        E 16 80 2c 00
        E 1280 b0 0b 7f
        E 0 90 2e 7f
        E 16 b0 0b 77
        E 16 b0 0b 66
        E 16 b0 0b 5d
        E 16 b0 0b 4c
        E 16 b0 0b 44
        E 16 b0 0b 33
        E 16 b0 0b 2a
        E 16 b0 0b 19
        E 16 b0 0b 11
        E 16 80 2e 00
        E 320 b0 0b 7f
        E 0 90 2a 7f
        E 16 b0 0b 77
        E 16 b0 0b 66
        E 16 b0 0b 5d
        E 16 b0 0b 4c
        E 16 b0 0b 44
        E 16 b0 0b 33
        E 16 b0 0b 2a
        E 16 b0 0b 19
        E 16 b0 0b 11
        E 16 80 2a 00
        E 320 b0 0b 7f
        E 0 90 26 7f
        E 16 b0 0b 77
        E 16 b0 0b 66
        E 16 b0 0b 5d
        E 16 b0 0b 4c
        E 16 b0 0b 44
        E 16 b0 0b 33
        E 16 b0 0b 2a
        E 16 b0 0b 19
        E 16 b0 0b 11
        E 16 80 26 00
        E 1760 b0 0b 7f
        E 0 90 2d 7f
        E 16 b0 0b 77
        E 16 b0 0b 66
        E 16 b0 0b 5d
        E 16 b0 0b 4c
        E 16 b0 0b 44
        E 16 b0 0b 33
        E 16 b0 0b 2a
        E 16 b0 0b 19
        E 16 b0 0b 11
        E 16 80 2d 00
        E 1760 b0 0b 66
        E 0 90 2e 66
        E 16 b0 0b 4c
        E 16 b0 0b 33
        E 16 b0 0b 2a
        E 16 b0 0b 44
        E 16 b0 0b 2a
        E 16 b0 0b 33
        E 16 b0 0b 3b
        E 16 b0 0b 22
        E 16 b0 0b 3b
        E 16 b0 0b 55
        E 16 b0 0b 5d
        E 1744 b0 0b 66
        E 0 80 2e 00
        E 0 90 2a 66
        E 16 b0 0b 4c
        E 16 b0 0b 33
        E 16 b0 0b 2a
        E 16 b0 0b 44
        E 16 b0 0b 2a
        E 16 b0 0b 33
        E 16 b0 0b 3b
        E 16 b0 0b 22
        E 16 b0 0b 3b
        E 16 b0 0b 55
        E 16 b0 0b 5d
        E 304 b0 0b 66
        E 0 80 2a 00
        E 0 90 2e 66
        E 16 b0 0b 4c
        E 16 b0 0b 33
        E 16 b0 0b 2a
        E 16 b0 0b 44
        E 16 b0 0b 2a
        E 16 b0 0b 33
        E 16 b0 0b 3b
        E 16 b0 0b 22
        E 16 b0 0b 3b
        E 16 b0 0b 55
        E 16 b0 0b 5d
        E 1744 b0 0b 66
        E 0 80 2e 00
        E 0 90 2a 66
        E 16 b0 0b 4c
        E 16 b0 0b 33
        E 16 b0 0b 2a
        E 16 b0 0b 44
        E 16 b0 0b 2a
        E 16 b0 0b 33
        E 16 b0 0b 3b
        E 16 b0 0b 22
        E 16 b0 0b 3b
        E 16 b0 0b 55
        E 16 b0 0b 5d
        E 304 b0 0b 66
        E 0 80 2a 00
        E 0 90 2f 66
        E 16 b0 0b 4c
        E 16 b0 0b 33
        E 16 b0 0b 2a
        E 16 b0 0b 44
        E 16 b0 0b 2a
        E 16 b0 0b 33
        E 16 b0 0b 3b
        E 16 b0 0b 22
        E 16 b0 0b 3b
        E 16 b0 0b 55
        E 16 b0 0b 5d
        E 1264 b0 0b 66
        E 0 80 2f 00
        E 0 90 2a 66
        E 16 b0 0b 4c
        E 16 b0 0b 33
        E 16 b0 0b 2a
        E 16 b0 0b 44
        E 16 b0 0b 2a
        E 16 b0 0b 33
        E 16 b0 0b 3b
        E 16 b0 0b 22
        E 16 b0 0b 3b
        E 16 b0 0b 55
        E 16 b0 0b 5d
        E 1744 b0 0b 66
        E 0 80 2a 00
        E 0 90 2e 66
        E 16 b0 0b 4c
        E 16 b0 0b 33
        E 16 b0 0b 2a
        E 16 b0 0b 44
        E 16 b0 0b 2a
        E 16 b0 0b 33
        E 16 b0 0b 3b
        E 16 b0 0b 22
        E 16 b0 0b 3b
        E 16 b0 0b 55
        E 16 b0 0b 5d
        E 1264 b0 0b 66
        E 0 80 2e 00
        E 0 90 2f 66
        E 16 b0 0b 4c
        E 16 b0 0b 33
        E 16 b0 0b 2a
        E 16 b0 0b 44
        E 16 b0 0b 2a
        E 16 b0 0b 33
        E 16 b0 0b 3b
        E 16 b0 0b 22
        E 16 b0 0b 3b
        E 16 b0 0b 55
        E 16 b0 0b 5d
        E 1264 b0 0b 66
        E 0 80 2f 00
        E 0 90 2a 66
        E 16 b0 0b 4c
        E 16 b0 0b 33
        E 16 b0 0b 2a
        E 16 b0 0b 44
        E 16 b0 0b 2a
        E 16 b0 0b 33
        E 16 b0 0b 3b
        E 16 b0 0b 22
        E 16 b0 0b 3b
        E 16 b0 0b 55
        E 16 b0 0b 5d
        E 2704 b0 0b 66
        E 0 80 2a 00
        E 0 90 24 66
        E 16 b0 0b 4c
        E 16 b0 0b 33
        E 16 b0 0b 2a
        E 16 b0 0b 44
        E 16 b0 0b 2a
        E 16 b0 0b 33
        E 16 b0 0b 66
        E 16 b0 0b 4c
        E 16 b0 0b 33
        E 16 b0 0b 2a
        E 16 b0 0b 44
        E 16 b0 0b 2a
        E 16 b0 0b 33
        E 16 b0 0b 3b
        E 16 b0 0b 22
        E 16 b0 0b 3b
        E 16 b0 0b 55
        E 16 b0 0b 5d
        E 1744 b0 0b 66
        E 16 b0 0b 4c
        E 16 b0 0b 33
        E 16 b0 0b 2a
        E 16 b0 0b 44
        E 16 b0 0b 2a
        E 16 b0 0b 33
        E 16 b0 0b 3b
        E 16 b0 0b 22
        E 16 b0 0b 3b
        E 16 b0 0b 55
        E 16 b0 0b 5d
        E 1744 b0 0b 66
        E 16 b0 0b 4c
        E 16 b0 0b 33
        E 16 b0 0b 2a
        E 16 b0 0b 44
        E 16 b0 0b 2a
        E 16 b0 0b 33
        E 16 b0 0b 3b
        E 16 b0 0b 22
        E 16 b0 0b 3b
        E 16 b0 0b 55
        E 16 b0 0b 5d
        E 1744 b0 0b 66
        E 16 b0 0b 4c
        E 16 b0 0b 33
        E 16 b0 0b 2a
        E 16 b0 0b 44
        E 16 b0 0b 2a
        E 16 b0 0b 33
        E 16 b0 0b 3b
        E 16 b0 0b 22
        E 16 b0 0b 3b
        E 16 b0 0b 55
        E 16 b0 0b 5d
        E 1744 b0 0b 66
        E 16 b0 0b 4c
        E 16 b0 0b 33
        E 16 b0 0b 2a
        E 16 b0 0b 44
        E 16 b0 0b 2a
        E 16 b0 0b 33
        E 16 b0 0b 3b
        E 16 b0 0b 22
        E 16 b0 0b 3b
        E 16 b0 0b 55
        E 16 b0 0b 5d
        E 1744 b0 0b 66
        E 16 b0 0b 4c
        E 16 b0 0b 33
        E 16 b0 0b 2a
        E 16 b0 0b 44
        E 16 b0 0b 2a
        E 16 b0 0b 33
        E 16 b0 0b 3b
        E 16 b0 0b 22
        E 16 b0 0b 3b
        E 16 b0 0b 55
        E 16 b0 0b 5d
        E 1744 b0 0b 66
        E 16 b0 0b 4c
        E 16 b0 0b 33
        E 16 b0 0b 2a
        E 16 b0 0b 44
        E 16 b0 0b 2a
        E 16 b0 0b 33
        E 16 b0 0b 3b
        E 16 b0 0b 22
        E 16 b0 0b 3b
        E 16 b0 0b 55
        E 16 b0 0b 5d
        E 1744 b0 0b 66
        E 16 b0 0b 4c
        E 16 b0 0b 33
        E 16 b0 0b 2a
        E 16 b0 0b 44
        E 16 b0 0b 2a
        E 16 b0 0b 33
        E 16 b0 0b 3b
        E 16 b0 0b 22
        E 16 b0 0b 3b
        E 16 b0 0b 55
        E 16 b0 0b 5d
        E 1744 b0 0b 66
        E 16 b0 0b 4c
        E 16 b0 0b 33
        E 16 b0 0b 2a
        E 16 b0 0b 44
        E 16 b0 0b 2a
        E 16 b0 0b 33
        E 16 b0 0b 3b
        E 16 b0 0b 22
        E 16 b0 0b 3b
        E 16 b0 0b 55
        E 16 b0 0b 5d
        E 1744 b0 0b 66
        E 16 b0 0b 4c
        E 16 b0 0b 33
        E 16 b0 0b 2a
        E 16 b0 0b 44
        E 16 b0 0b 2a
        E 16 b0 0b 33
        E 16 b0 0b 3b
        E 16 b0 0b 22
        E 16 b0 0b 3b
        E 16 b0 0b 55
        E 16 b0 0b 5d
        E 1744 b0 0b 66
        E 16 b0 0b 4c
        E 16 b0 0b 33
        E 16 b0 0b 2a
        E 16 b0 0b 44
        E 16 b0 0b 2a
        E 16 b0 0b 33
        E 16 b0 0b 3b
        E 16 b0 0b 22
        E 16 b0 0b 3b
        E 16 b0 0b 55
        E 16 b0 0b 5d
        E 1744 b0 0b 66
        E 16 b0 0b 4c
        E 16 b0 0b 33
        E 16 b0 0b 2a
        E 16 b0 0b 44
        E 16 b0 0b 2a
        E 16 b0 0b 33
        E 16 b0 0b 3b
        E 16 b0 0b 22
        E 16 b0 0b 3b
        E 16 b0 0b 55
        E 16 b0 0b 5d
        E 1744 b0 0b 66
        E 16 b0 0b 4c
        E 16 b0 0b 33
        E 16 b0 0b 2a
        E 16 b0 0b 44
        E 16 b0 0b 2a
        E 16 b0 0b 33
        E 16 b0 0b 3b
        E 16 b0 0b 22
        E 16 b0 0b 3b
        E 16 b0 0b 55
        E 16 b0 0b 5d
        E 1744 b0 0b 66
        E 16 b0 0b 4c
        E 16 b0 0b 33
        E 16 b0 0b 2a
        E 16 b0 0b 44
        E 16 b0 0b 2a
        E 16 b0 0b 33
        E 16 b0 0b 3b
        E 16 b0 0b 22
        E 16 b0 0b 3b
        E 16 b0 0b 55
        E 16 b0 0b 5d
        E 1744 b0 0b 66
        E 16 b0 0b 4c
        E 16 b0 0b 33
        E 16 b0 0b 2a
        E 16 b0 0b 44
        E 16 b0 0b 2a
        E 16 b0 0b 33
        E 16 b0 0b 3b
        E 16 b0 0b 22
        E 16 b0 0b 3b
        E 16 b0 0b 55
        E 16 b0 0b 5d
        E 1744 b0 0b 66
        E 16 b0 0b 4c
        E 16 b0 0b 33
        E 16 b0 0b 2a
        E 16 b0 0b 44
        E 16 b0 0b 2a
        E 16 b0 0b 33
        E 16 b0 0b 3b
        E 16 b0 0b 22
        E 16 b0 0b 3b
        E 16 b0 0b 55
        E 16 b0 0b 5d
        E 1744 b0 0b 66
        E 16 b0 0b 4c
        E 16 b0 0b 33
        E 16 b0 0b 2a
        E 16 b0 0b 44
        E 16 b0 0b 2a
        E 16 b0 0b 33
        E 16 b0 0b 3b
        E 16 b0 0b 22
        E 16 b0 0b 3b
        E 16 b0 0b 55
        E 16 b0 0b 5d
        E 1744 b0 0b 66
        E 16 b0 0b 4c
        E 16 b0 0b 33
        E 16 b0 0b 2a
        E 16 b0 0b 44
        E 16 b0 0b 2a
        E 16 b0 0b 33
        E 16 b0 0b 3b
        E 16 b0 0b 22
        E 16 b0 0b 3b
        E 16 b0 0b 55
        E 16 b0 0b 5d
        E 1744 b0 0b 66
        E 16 b0 0b 4c
        E 16 b0 0b 33
        E 16 b0 0b 2a
        E 16 b0 0b 44
        E 16 b0 0b 2a
        E 16 b0 0b 33
        E 16 b0 0b 3b
        E 16 b0 0b 22
        E 16 b0 0b 3b
        E 16 b0 0b 55
        E 16 b0 0b 5d
        E 1744 b0 0b 66
        E 16 b0 0b 4c
        E 16 b0 0b 33
        E 16 b0 0b 2a
        E 16 b0 0b 44
        E 16 b0 0b 2a
        E 16 b0 0b 33
        E 16 b0 0b 3b
        E 16 b0 0b 22
        E 16 b0 0b 3b
        E 16 b0 0b 55
        E 16 b0 0b 5d
        E 1744 b0 0b 66
        E 16 b0 0b 4c
        E 16 b0 0b 33
        E 16 b0 0b 2a
        E 16 b0 0b 44
        E 16 b0 0b 2a
        E 16 b0 0b 33
        E 16 b0 0b 3b
        E 16 b0 0b 22
        E 16 b0 0b 3b
        E 16 b0 0b 55
        E 16 b0 0b 5d
        E 1744 b0 0b 66
        E 16 b0 0b 4c
        E 16 b0 0b 33
        E 16 b0 0b 2a
        E 16 b0 0b 44
        E 16 b0 0b 2a
        E 16 b0 0b 33
        E 16 b0 0b 3b
        E 16 b0 0b 22
        E 16 b0 0b 3b
        E 16 b0 0b 55
        E 16 b0 0b 5d
        E 1744 b0 0b 66
        E 16 b0 0b 4c
        E 16 b0 0b 33
        E 16 b0 0b 2a
        E 16 b0 0b 44
        E 16 b0 0b 2a
        E 16 b0 0b 33
        E 16 b0 0b 3b
        E 16 b0 0b 22
        E 16 b0 0b 3b
        E 16 b0 0b 55
        E 16 b0 0b 5d
        E 1744 b0 0b 66
        E 16 b0 0b 4c
        E 16 b0 0b 33
        E 16 b0 0b 2a
        E 16 b0 0b 44
        E 16 b0 0b 2a
        E 16 b0 0b 33
        E 16 b0 0b 3b
        E 16 b0 0b 22
        E 16 b0 0b 3b
        E 16 b0 0b 55
        E 16 b0 0b 5d
        E 1744 b0 0b 66
        E 16 b0 0b 4c
        E 16 b0 0b 33
        E 16 b0 0b 2a
        E 16 b0 0b 44
        E 16 b0 0b 2a
        E 16 b0 0b 33
        E 16 b0 0b 3b
        E 16 b0 0b 22
        E 16 b0 0b 3b
        E 16 b0 0b 55
        E 16 b0 0b 5d
        E 1744 b0 0b 66
        E 16 b0 0b 4c
        E 16 b0 0b 33
        E 16 b0 0b 2a
        E 16 b0 0b 44
        E 16 b0 0b 2a
        E 16 b0 0b 33
        E 16 b0 0b 3b
        E 16 b0 0b 22
        E 16 b0 0b 3b
        E 16 b0 0b 55
        E 16 b0 0b 5d
        E 848 80 24 00
        E 0 b0 7b 00
        E 0 ff 2f 00
      >
    >
  >
  <TRACK {8BB93617-F468-4708-B66C-7D030FF5C59D}
    NAME "NES - Pulse 2 [ch1]"
    PEAKCOL 10092441
    BEAT -1
    AUTOMODE 0
    PANLAWFLAGS 3
    VOLPAN 1 0 -1 -1 1
    MUTESOLO 0 0 0
    IPHASE 0
    PLAYOFFS 0 1
    ISBUS 0 0
    BUSCOMP 0 0 0 0 0
    SHOWINMIX 1 0.6667 0.5 1 0.5 0 0 0
    FIXEDLANES 9 0 0 0 0
    SEL 0
    REC 0 5088 1 0 0 0 0 0
    VU 2
    TRACKHEIGHT 0 0 0 0 0 0 0
    INQ 0 0 0 0.5 100 0 0 100
    NCHAN 2
    FX 1
    TRACKID {8BB93617-F468-4708-B66C-7D030FF5C59D}
    PERF 0
    MIDIOUT -1
    MAINSEND 1 0
    <FXCHAIN
      WNDRECT 24 52 700 560
      SHOW 0
      LASTSEL 0
      DOCKED 0
      BYPASS 0 0 0
      <JS "ReapNES Studio/ReapNES_Console.jsfx" ""
        2 15 1 10 80 10 100 2 1 15 1 5 60 10 80 1 1 0 50 0 0 15 1 0 100 0 0 0.500000 0.500000 0.400000 0.300000 0.800000 1 1 0 0 0 0 - - - - - - - - - - - - - - - - - - - - - - - - - -
      >
      FLOATPOS 0 0 0 0
      FXID {8C07ECA6-52D2-4364-A1FC-5178BE2687D2}
      WAK 0 0
    >
    <ITEM
      POSITION 0
      LENGTH 74.5878716
      LOOP 0
      ALLTAKES 0
      FADEIN 0 0 0 0 0 0 0
      FADEOUT 0 0 0 0 0 0 0
      MUTE 0 0
      SEL 0
      IGUID {FCAC425C-D543-421D-81E5-AE1C60C1542A}
      <SOURCE MIDI
        HASDATA 1 480 QN
        CCINTERP 32
        E 0 c1 51
        E 21520 b1 0c 10
        E 0 b1 0b 7f
        E 0 91 43 7f
        E 16 b1 0b 77
        E 16 b1 0b 66
        E 16 b1 0b 5d
        E 16 b1 0b 4c
        E 16 b1 0b 44
        E 16 b1 0b 33
        E 16 b1 0b 2a
        E 16 b1 0b 19
        E 16 b1 0b 11
        E 16 81 43 00
        E 992 b1 0b 7f
        E 0 91 39 7f
        E 16 b1 0b 77
        E 16 b1 0b 66
        E 16 b1 0b 5d
        E 16 b1 0b 4c
        E 16 b1 0b 44
        E 16 b1 0b 33
        E 16 b1 0b 2a
        E 16 b1 0b 19
        E 16 b1 0b 11
        E 16 81 39 00
        E 864 b1 0b 44
        E 0 91 39 44
        E 16 b1 0b 3b
        E 16 b1 0b 2a
        E 16 b1 0b 22
        E 16 b1 0b 11
        E 16 b1 0b 08
        E 16 b1 0b 11
        E 16 b1 0b 19
        E 16 b1 0b 2a
        E 16 b1 0b 33
        E 16 b1 0b 44
        E 864 81 39 00
        E 544 91 20 44
        E 16 b1 0b 3b
        E 16 b1 0b 2a
        E 16 b1 0b 22
        E 16 b1 0b 44
        E 0 81 20 00
        E 0 91 26 44
        E 16 b1 0b 3b
        E 16 b1 0b 2a
        E 16 b1 0b 22
        E 16 b1 0b 11
        E 16 b1 0b 08
        E 16 b1 0b 11
        E 16 b1 0b 19
        E 16 b1 0b 2a
        E 16 b1 0b 33
        E 16 b1 0b 44
        E 992 81 26 00
        E 0 91 21 44
        E 16 b1 0b 3b
        E 16 b1 0b 2a
        E 16 b1 0b 22
        E 16 b1 0b 44
        E 0 81 21 00
        E 0 91 39 44
        E 16 b1 0b 3b
        E 16 b1 0b 2a
        E 16 b1 0b 22
        E 16 b1 0b 11
        E 16 b1 0b 08
        E 16 b1 0b 11
        E 16 b1 0b 19
        E 16 b1 0b 2a
        E 16 b1 0b 33
        E 16 b1 0b 44
        E 624 b1 0b 3b
        E 16 b1 0b 2a
        E 16 b1 0b 22
        E 16 b1 0b 11
        E 16 b1 0b 08
        E 16 b1 0b 11
        E 16 b1 0b 19
        E 16 b1 0b 2a
        E 16 b1 0b 33
        E 16 b1 0b 44
        E 128 81 39 00
        E 432 91 21 44
        E 16 b1 0b 3b
        E 16 b1 0b 2a
        E 16 b1 0b 22
        E 16 b1 0b 11
        E 16 b1 0b 08
        E 16 b1 0b 11
        E 16 b1 0b 19
        E 16 b1 0b 2a
        E 16 b1 0b 33
        E 16 b1 0b 44
        E 1568 81 21 00
        E 0 91 39 44
        E 16 b1 0b 3b
        E 16 b1 0b 2a
        E 16 b1 0b 22
        E 16 b1 0b 11
        E 16 b1 0b 08
        E 16 b1 0b 11
        E 16 b1 0b 19
        E 16 b1 0b 2a
        E 16 b1 0b 33
        E 16 b1 0b 44
        E 1568 81 39 00
        E 0 91 43 44
        E 16 b1 0b 3b
        E 16 b1 0b 2a
        E 16 b1 0b 22
        E 16 b1 0b 11
        E 16 b1 0b 08
        E 16 b1 0b 11
        E 16 b1 0b 19
        E 16 b1 0b 2a
        E 16 b1 0b 33
        E 16 b1 0b 44
        E 1584 b1 0b 3b
        E 16 b1 0b 2a
        E 16 b1 0b 22
        E 16 b1 0b 11
        E 16 b1 0b 08
        E 16 b1 0b 11
        E 16 b1 0b 19
        E 16 b1 0b 2a
        E 16 b1 0b 33
        E 16 b1 0b 44
        E 1568 81 43 00
        E 0 91 20 44
        E 16 b1 0b 3b
        E 16 b1 0b 2a
        E 16 b1 0b 22
        E 16 b1 0b 11
        E 16 b1 0b 08
        E 16 b1 0b 11
        E 16 b1 0b 19
        E 16 b1 0b 2a
        E 16 b1 0b 33
        E 16 b1 0b 44
        E 128 81 20 00
        E 432 91 4a 44
        E 16 b1 0b 3b
        E 16 b1 0b 2a
        E 16 b1 0b 22
        E 16 b1 0b 11
        E 16 b1 0b 08
        E 16 b1 0b 11
        E 16 b1 0b 19
        E 16 b1 0b 2a
        E 16 b1 0b 33
        E 16 b1 0b 44
        E 1376 81 4a 00
        E 0 91 26 44
        E 16 b1 0b 3b
        E 16 b1 0b 2a
        E 16 b1 0b 22
        E 16 b1 0b 11
        E 16 b1 0b 08
        E 16 b1 0b 11
        E 16 b1 0b 19
        E 16 b1 0b 2a
        E 16 b1 0b 33
        E 16 b1 0b 44
        E 704 81 26 00
        E 0 91 20 44
        E 16 b1 0b 3b
        E 16 b1 0b 2a
        E 16 b1 0b 22
        E 16 b1 0b 11
        E 16 b1 0b 08
        E 16 b1 0b 11
        E 16 b1 0b 19
        E 16 b1 0b 2a
        E 16 b1 0b 33
        E 16 b1 0b 44
        E 624 b1 0b 3b
        E 16 b1 0b 2a
        E 16 b1 0b 22
        E 16 b1 0b 44
        E 0 81 20 00
        E 0 91 26 44
        E 16 b1 0b 3b
        E 16 b1 0b 2a
        E 16 b1 0b 22
        E 16 b1 0b 11
        E 16 b1 0b 08
        E 16 b1 0b 11
        E 16 b1 0b 19
        E 16 b1 0b 2a
        E 16 b1 0b 33
        E 16 b1 0b 44
        E 992 81 26 00
        E 0 91 4a 44
        E 16 b1 0b 3b
        E 16 b1 0b 2a
        E 16 b1 0b 22
        E 16 b1 0b 11
        E 16 b1 0b 08
        E 16 b1 0b 11
        E 16 b1 0b 19
        E 16 b1 0b 2a
        E 16 b1 0b 33
        E 16 b1 0b 44
        E 1376 81 4a 00
        E 0 91 26 44
        E 16 b1 0b 3b
        E 16 b1 0b 2a
        E 16 b1 0b 22
        E 16 b1 0b 11
        E 16 b1 0b 08
        E 16 b1 0b 11
        E 16 b1 0b 44
        E 0 81 26 00
        E 0 91 20 44
        E 16 b1 0b 3b
        E 16 b1 0b 2a
        E 16 b1 0b 22
        E 16 b1 0b 11
        E 16 b1 0b 08
        E 16 b1 0b 11
        E 16 b1 0b 19
        E 16 b1 0b 2a
        E 16 b1 0b 33
        E 16 b1 0b 44
        E 624 b1 0b 3b
        E 16 b1 0b 2a
        E 16 b1 0b 22
        E 16 b1 0b 44
        E 0 81 20 00
        E 0 91 26 44
        E 16 b1 0b 3b
        E 16 b1 0b 2a
        E 16 b1 0b 22
        E 16 b1 0b 11
        E 16 b1 0b 08
        E 16 b1 0b 11
        E 16 b1 0b 19
        E 16 b1 0b 2a
        E 16 b1 0b 33
        E 16 b1 0b 44
        E 992 81 26 00
        E 0 91 4a 44
        E 16 b1 0b 3b
        E 16 b1 0b 2a
        E 16 b1 0b 22
        E 16 b1 0b 11
        E 16 b1 0b 08
        E 16 b1 0b 11
        E 16 b1 0b 19
        E 16 b1 0b 2a
        E 16 b1 0b 33
        E 16 b1 0b 44
        E 1376 81 4a 00
        E 0 91 26 44
        E 16 b1 0b 3b
        E 16 b1 0b 2a
        E 16 b1 0b 22
        E 16 b1 0b 11
        E 16 b1 0b 08
        E 16 b1 0b 11
        E 16 b1 0b 19
        E 16 b1 0b 2a
        E 16 b1 0b 33
        E 16 b1 0b 44
        E 64 81 26 00
        E 0 91 20 44
        E 16 b1 0b 3b
        E 16 b1 0b 2a
        E 16 b1 0b 22
        E 16 b1 0b 11
        E 16 b1 0b 08
        E 16 b1 0b 11
        E 16 b1 0b 19
        E 16 b1 0b 2a
        E 16 b1 0b 33
        E 16 b1 0b 44
        E 624 b1 0b 3b
        E 16 b1 0b 2a
        E 16 b1 0b 22
        E 16 b1 0b 44
        E 16 b1 0b 3b
        E 16 b1 0b 2a
        E 16 b1 0b 44
        E 0 81 20 00
        E 0 91 4a 44
        E 16 b1 0b 3b
        E 16 b1 0b 2a
        E 16 b1 0b 22
        E 16 b1 0b 11
        E 16 b1 0b 08
        E 16 b1 0b 11
        E 16 b1 0b 19
        E 16 b1 0b 2a
        E 16 b1 0b 33
        E 16 b1 0b 44
        E 1376 81 4a 00
        E 0 91 26 44
        E 16 b1 0b 3b
        E 16 b1 0b 2a
        E 16 b1 0b 22
        E 16 b1 0b 11
        E 16 b1 0b 08
        E 16 b1 0b 11
        E 16 b1 0b 19
        E 16 b1 0b 2a
        E 16 b1 0b 33
        E 16 b1 0b 44
        E 864 81 26 00
        E 0 91 20 44
        E 16 b1 0b 3b
        E 16 b1 0b 2a
        E 16 b1 0b 22
        E 16 b1 0b 11
        E 16 b1 0b 08
        E 16 b1 0b 11
        E 16 b1 0b 19
        E 16 b1 0b 2a
        E 16 b1 0b 33
        E 16 b1 0b 44
        E 624 b1 0b 3b
        E 16 b1 0b 2a
        E 16 b1 0b 22
        E 16 b1 0b 7f
        E 0 81 20 00
        E 0 91 4a 7f
        E 48 b1 0b 77
        E 16 b1 0b 5d
        E 16 b1 0b 55
        E 16 b1 0b 44
        E 16 b1 0b 3b
        E 16 b1 0b 2a
        E 16 b1 0b 22
        E 16 b1 0b 19
        E 1376 b1 0b 7f
        E 0 81 4a 00
        E 0 91 26 7f
        E 48 b1 0b 77
        E 16 b1 0b 5d
        E 16 b1 0b 55
        E 16 b1 0b 44
        E 16 b1 0b 3b
        E 16 b1 0b 2a
        E 16 b1 0b 22
        E 16 b1 0b 19
        E 608 b1 0b 7f
        E 0 81 26 00
        E 0 91 20 7f
        E 48 b1 0b 77
        E 16 b1 0b 5d
        E 16 b1 0b 55
        E 16 b1 0b 44
        E 16 b1 0b 3b
        E 16 b1 0b 2a
        E 16 b1 0b 22
        E 16 b1 0b 19
        E 608 b1 0b 7f
        E 48 b1 0b 77
        E 16 b1 0b 5d
        E 16 b1 0b 55
        E 16 b1 0b 44
        E 16 b1 0b 3b
        E 16 b1 0b 2a
        E 16 b1 0b 22
        E 16 b1 0b 19
        E 128 b1 0b 7f
        E 0 81 20 00
        E 0 91 21 7f
        E 48 b1 0b 77
        E 16 b1 0b 7f
        E 0 81 21 00
        E 0 91 26 7f
        E 48 b1 0b 77
        E 16 b1 0b 5d
        E 16 b1 0b 55
        E 16 b1 0b 44
        E 16 b1 0b 3b
        E 16 b1 0b 2a
        E 16 b1 0b 7f
        E 0 81 26 00
        E 0 91 4a 7f
        E 48 b1 0b 77
        E 16 b1 0b 5d
        E 16 b1 0b 55
        E 16 b1 0b 44
        E 16 b1 0b 3b
        E 16 b1 0b 2a
        E 16 b1 0b 22
        E 16 b1 0b 19
        E 1376 b1 0b 7f
        E 0 81 4a 00
        E 0 91 26 7f
        E 48 81 26 00
        E 0 91 20 7f
        E 48 b1 0b 77
        E 16 b1 0b 5d
        E 16 b1 0b 55
        E 16 b1 0b 44
        E 16 b1 0b 3b
        E 16 b1 0b 2a
        E 16 b1 0b 22
        E 16 b1 0b 19
        E 608 b1 0b 7f
        E 48 b1 0b 77
        E 16 b1 0b 5d
        E 16 b1 0b 55
        E 16 b1 0b 44
        E 16 b1 0b 3b
        E 16 b1 0b 2a
        E 16 b1 0b 22
        E 16 b1 0b 19
        E 1568 b1 0b 7f
        E 48 b1 0b 77
        E 16 b1 0b 5d
        E 16 b1 0b 55
        E 16 b1 0b 44
        E 16 b1 0b 3b
        E 16 b1 0b 2a
        E 16 b1 0b 22
        E 16 b1 0b 19
        E 128 81 20 00
        E 384 b1 0b 7f
        E 0 91 26 7f
        E 48 b1 0b 77
        E 16 b1 0b 7f
        E 0 81 26 00
        E 0 91 43 7f
        E 48 b1 0b 77
        E 16 b1 0b 5d
        E 16 b1 0b 55
        E 16 b1 0b 44
        E 16 b1 0b 3b
        E 16 b1 0b 2a
        E 16 b1 0b 22
        E 16 b1 0b 19
        E 1568 b1 0b 7f
        E 48 b1 0b 77
        E 16 b1 0b 5d
        E 16 b1 0b 55
        E 16 b1 0b 44
        E 16 b1 0b 3b
        E 16 b1 0b 2a
        E 16 b1 0b 22
        E 16 b1 0b 19
        E 128 81 43 00
        E 1152 b1 0b 7f
        E 0 91 20 7f
        E 48 b1 0b 77
        E 16 b1 0b 5d
        E 16 b1 0b 55
        E 16 b1 0b 44
        E 16 b1 0b 3b
        E 16 b1 0b 2a
        E 16 b1 0b 22
        E 16 b1 0b 19
        E 128 81 20 00
        E 288 b1 0b 7f
        E 0 91 20 7f
        E 144 81 20 00
        E 0 91 21 7f
        E 48 b1 0b 77
        E 32 b1 0b 5d
        E 16 b1 0b 55
        E 16 b1 0b 44
        E 16 b1 0b 3b
        E 16 b1 0b 2a
        E 16 b1 0b 22
        E 16 b1 0b 19
        E 1616 b1 0b 7f
        E 0 81 21 00
        E 0 91 26 7f
        E 48 b1 0b 77
        E 16 b1 0b 5d
        E 16 b1 0b 55
        E 16 b1 0b 44
        E 16 b1 0b 3b
        E 16 b1 0b 2a
        E 16 b1 0b 22
        E 16 b1 0b 19
        E 128 81 26 00
        E 2448 b1 0b 7f
        E 0 91 20 7f
        E 48 b1 0b 77
        E 16 b1 0b 5d
        E 16 b1 0b 55
        E 16 b1 0b 44
        E 16 b1 0b 3b
        E 16 b1 0b 2a
        E 16 b1 0b 22
        E 16 b1 0b 19
        E 1568 b1 0b 7f
        E 0 81 20 00
        E 0 91 26 7f
        E 48 b1 0b 77
        E 16 b1 0b 5d
        E 16 b1 0b 55
        E 16 b1 0b 44
        E 16 b1 0b 3b
        E 16 b1 0b 2a
        E 16 b1 0b 22
        E 16 b1 0b 19
        E 1568 b1 0b 7f
        E 0 81 26 00
        E 0 91 43 7f
        E 48 b1 0b 77
        E 16 b1 0b 5d
        E 16 b1 0b 55
        E 16 b1 0b 44
        E 16 b1 0b 3b
        E 16 b1 0b 2a
        E 16 b1 0b 22
        E 16 b1 0b 19
        E 992 81 43 00
        E 1728 b1 0b 7f
        E 0 91 26 7f
        E 48 81 26 00
        E 0 91 20 7f
        E 48 b1 0b 77
        E 16 b1 0b 5d
        E 16 b1 0b 55
        E 16 b1 0b 44
        E 16 b1 0b 7f
        E 0 81 20 00
        E 0 91 43 7f
        E 48 b1 0b 77
        E 16 b1 0b 7f
        E 0 81 43 00
        E 0 91 26 7f
        E 48 b1 0b 77
        E 16 b1 0b 5d
        E 16 b1 0b 55
        E 16 b1 0b 44
        E 16 b1 0b 3b
        E 16 b1 0b 2a
        E 16 b1 0b 22
        E 16 b1 0b 19
        E 1568 b1 0b 7f
        E 48 b1 0b 77
        E 16 b1 0b 5d
        E 16 b1 0b 55
        E 16 b1 0b 44
        E 16 b1 0b 3b
        E 16 b1 0b 2a
        E 16 b1 0b 22
        E 16 b1 0b 19
        E 272 b1 0b 7f
        E 0 81 26 00
        E 0 91 21 7f
        E 48 b1 0b 77
        E 32 b1 0b 5d
        E 16 b1 0b 55
        E 16 b1 0b 44
        E 16 b1 0b 3b
        E 16 b1 0b 2a
        E 16 b1 0b 22
        E 16 b1 0b 19
        E 1040 b1 0b 7f
        E 0 81 21 00
        E 0 91 26 7f
        E 48 b1 0b 77
        E 16 b1 0b 5d
        E 16 b1 0b 55
        E 16 b1 0b 44
        E 16 b1 0b 3b
        E 16 b1 0b 2a
        E 16 b1 0b 22
        E 16 b1 0b 19
        E 128 81 26 00
        E 0 b1 7b 00
        E 0 ff 2f 00
      >
    >
  >
  <TRACK {D6BD286B-D0BA-4E69-AD6B-3818867B45E1}
    NAME "NES - Triangle"
    PEAKCOL 16744192
    BEAT -1
    AUTOMODE 0
    PANLAWFLAGS 3
    VOLPAN 1 0 -1 -1 1
    MUTESOLO 0 0 0
    IPHASE 0
    PLAYOFFS 0 1
    ISBUS 0 0
    BUSCOMP 0 0 0 0 0
    SHOWINMIX 1 0.6667 0.5 1 0.5 0 0 0
    FIXEDLANES 9 0 0 0 0
    SEL 0
    REC 0 5088 1 0 0 0 0 0
    VU 2
    TRACKHEIGHT 0 0 0 0 0 0 0
    INQ 0 0 0 0.5 100 0 0 100
    NCHAN 2
    FX 1
    TRACKID {D6BD286B-D0BA-4E69-AD6B-3818867B45E1}
    PERF 0
    MIDIOUT -1
    MAINSEND 1 0
    <FXCHAIN
      WNDRECT 24 52 700 560
      SHOW 0
      LASTSEL 0
      DOCKED 0
      BYPASS 0 0 0
      <JS "ReapNES Studio/ReapNES_Console.jsfx" ""
        2 15 1 10 80 10 100 2 1 15 1 5 60 10 80 1 1 0 50 0 0 15 1 0 100 0 0 0.500000 0.500000 0.400000 0.300000 0.800000 2 1 0 0 0 0 - - - - - - - - - - - - - - - - - - - - - - - - - -
      >
      FLOATPOS 0 0 0 0
      FXID {E3C443FE-31D4-4F06-BFCF-1DEFAC90E448}
      WAK 0 0
    >
  >
  <TRACK {DC425892-E800-42C1-9BFA-173822FEF8FB}
    NAME "NES - Noise / Drums"
    PEAKCOL 11184810
    BEAT -1
    AUTOMODE 0
    PANLAWFLAGS 3
    VOLPAN 1 0 -1 -1 1
    MUTESOLO 0 0 0
    IPHASE 0
    PLAYOFFS 0 1
    ISBUS 0 0
    BUSCOMP 0 0 0 0 0
    SHOWINMIX 1 0.6667 0.5 1 0.5 0 0 0
    FIXEDLANES 9 0 0 0 0
    SEL 0
    REC 0 5088 1 0 0 0 0 0
    VU 2
    TRACKHEIGHT 0 0 0 0 0 0 0
    INQ 0 0 0 0.5 100 0 0 100
    NCHAN 2
    FX 1
    TRACKID {DC425892-E800-42C1-9BFA-173822FEF8FB}
    PERF 0
    MIDIOUT -1
    MAINSEND 1 0
    <FXCHAIN
      WNDRECT 24 52 700 560
      SHOW 0
      LASTSEL 0
      DOCKED 0
      BYPASS 0 0 0
      <JS "ReapNES Studio/ReapNES_Console.jsfx" ""
        2 15 1 10 80 10 100 2 1 15 1 5 60 10 80 1 1 0 50 0 0 15 1 0 100 0 0 0.500000 0.500000 0.400000 0.300000 0.800000 3 1 0 0 0 0 - - - - - - - - - - - - - - - - - - - - - - - - - -
      >
      FLOATPOS 0 0 0 0
      FXID {BEE69426-658C-4F69-919B-8A5DE35B5352}
      WAK 0 0
    >
  >
>