<REAPER_PROJECT 0.1 "7.27/win64" 1707000000
  <NOTES 0 2
    |ReapNES Studio Project
    |MIDI Import - Final_Fantasy_song_55_rom_v1
  >
  RIPPLE 0
  GROUPOVERRIDE 0 0 0
  AUTOXFADE 129
  ENVATTACH 3
  POOLEDENVATTACH 0
  MIXERUIFLAGS 11 48
  ENVFADESZ10 40
  PEAKGAIN 1
  FEEDBACK 0
  PANLAW 1
  PROJOFFS 0 0 0
  MAXPROJLEN 0 0
  GRID 3199 8 1 8 1 0 0 0
  TIMEMODE 1 5 -1 30 0 0 -1
  VIDEO_CONFIG 0 0 65792
  PANMODE 3
  PANLAWFLAGS 3
  CURSOR 0
  ZOOM 100 0 0
  VZOOMEX 6 0
  USE_REC_CFG 0
  RECMODE 1
  SMPTESYNC 0 30 100 40 1000 300 0 0 1 0 0
  LOOP 0
  LOOPGRAN 0 4
  RECORD_PATH "Media" ""
  <RECORD_CFG
    ZXZhdxgAAQ==
  >
  <APPLYFX_CFG
  >
  RENDER_FILE ""
  RENDER_PATTERN ""
  RENDER_FMT 0 2 0
  RENDER_1X 0
  RENDER_RANGE 1 0 0 18 1000
  RENDER_RESAMPLE 3 0 1
  RENDER_ADDTOPROJ 0
  RENDER_STEMS 0
  RENDER_DITHER 0
  TIMELOCKMODE 1
  TEMPOENVLOCKMODE 1
  ITEMMIX 1
  DEFPITCHMODE 589824 0
  TAKELANE 1
  SAMPLERATE 44100 0 0
  <RENDER_CFG
    ZXZhdxgAAQ==
  >
  LOCK 1
  <METRONOME 6 2
    VOL 0.25 0.125
    BEATLEN 4
    FREQ 1760 880 1
    SAMPLES "" ""
    SPLIGNORE 0 0
    SPLDEF 2 660 "" 0
    SPLDEF 3 440 "" 0
    PATTERN 0 169
    PATTERNSTR ABBB
    MULT 1
  >
  GLOBAL_AUTO -1
  TEMPO 128.59999614200012 4 4
  PLAYRATE 1 0 0.25 4
  SELECTION 0 0
  SELECTION2 0 0
  MASTERAUTOMODE 0
  MASTERTRACKHEIGHT 0 0
  MASTERPEAKCOL 16576
  MASTERMUTESOLO 0
  MASTERTRACKVIEW 0 0.6667 0.5 0.5 0 0 0 0 0 0 0 0 0 0
  MASTERHWOUT 0 0 1 0 0 0 0 -1
  MASTER_NCH 2 2
  MASTER_VOLUME 1 0 -1 -1 1
  MASTER_PANMODE 3
  MASTER_PANLAWFLAGS 3
  MASTER_FX 1
  MASTER_SEL 0
  <MASTERPLAYSPEEDENV
    EGUID {3C27B55B-9BBF-4082-A4A0-D354FDB1EC4B}
    ACT 0 -1
    VIS 0 1 1
    LANEHEIGHT 0 0
    ARM 0
    DEFSHAPE 0 -1 -1
  >
  <TEMPOENVEX
    EGUID {96934E93-AE46-4695-B507-36C1E1086867}
    ACT 1 -1
    VIS 1 0 1
    LANEHEIGHT 0 0
    ARM 0
    DEFSHAPE 1 -1 -1
  >
  <PROJBAY
  >
  <TRACK {3EABB5DD-154E-45F8-99BA-52E21BED7CF0}
    NAME "NES - Pulse 1 [ch0]"
    PEAKCOL 16576606
    BEAT -1
    AUTOMODE 0
    PANLAWFLAGS 3
    VOLPAN 1 0 -1 -1 1
    MUTESOLO 0 0 0
    IPHASE 0
    PLAYOFFS 0 1
    ISBUS 0 0
    BUSCOMP 0 0 0 0 0
    SHOWINMIX 1 0.6667 0.5 1 0.5 0 0 0
    FIXEDLANES 9 0 0 0 0
    SEL 1
    REC 1 5088 1 0 0 0 0 0
    VU 2
    TRACKHEIGHT 0 0 0 0 0 0 0
    INQ 0 0 0 0.5 100 0 0 100
    NCHAN 2
    FX 1
    TRACKID {3EABB5DD-154E-45F8-99BA-52E21BED7CF0}
    PERF 0
    MIDIOUT -1
    MAINSEND 1 0
    <FXCHAIN
      WNDRECT 24 52 700 560
      SHOW 0
      LASTSEL 0
      DOCKED 0
      BYPASS 0 0 0
      <JS "ReapNES Studio/ReapNES_Console.jsfx" ""
        2 15 1 10 80 10 100 2 1 15 1 5 60 10 80 1 1 0 50 0 0 15 1 0 100 0 0 0.500000 0.500000 0.400000 0.300000 0.800000 0 1 0 0 0 0 - - - - - - - - - - - - - - - - - - - - - - - - - -
      >
      FLOATPOS 0 0 0 0
      FXID {8F0B0952-8C20-402E-8901-96D77A7FE63C}
      WAK 0 0
    >
    <ITEM
      POSITION 0
      LENGTH 74.5878716
      LOOP 0
      ALLTAKES 0
      FADEIN 0 0 0 0 0 0 0
      FADEOUT 0 0 0 0 0 0 0
      MUTE 0 0
      SEL 0
      IGUID {23E322CB-1B4A-4854-9464-DBC8F49B265C}
      <SOURCE MIDI
        HASDATA 1 480 QN
        CCINTERP 32
        E 0 c0 50
        E 0 b0 0c 20
        E 0 b0 0b 77
        E 0 90 2e 77
        E 16 80 2e 00
        E 48 b0 0b 66
        E 0 90 2e 66
        E 16 b0 0b 77
        E 16 b0 0b 66
        E 16 b0 0b 5d
        E 16 b0 0b 4c
        E 16 b0 0b 44
        E 16 b0 0b 33
        E 16 b0 0b 2a
        E 16 b0 0b 19
        E 16 b0 0b 7f
        E 0 80 2e 00
        E 0 90 24 7f
        E 16 b0 0b 77
        E 16 b0 0b 66
        E 16 b0 0b 5d
        E 16 b0 0b 4c
        E 16 b0 0b 44
        E 16 b0 0b 33
        E 16 b0 0b 2a
        E 16 b0 0b 19
        E 16 b0 0b 7f
        E 0 80 24 00
        E 0 90 26 7f
        E 16 b0 0b 77
        E 16 b0 0b 66
        E 16 b0 0b 5d
        E 16 b0 0b 4c
        E 16 b0 0b 44
        E 16 b0 0b 33
        E 16 b0 0b 2a
        E 16 b0 0b 19
        E 16 b0 0b 7f
        E 0 80 26 00
        E 0 90 29 7f
        E 16 b0 0b 77
        E 16 b0 0b 66
        E 16 b0 0b 5d
        E 16 b0 0b 4c
        E 16 b0 0b 44
        E 16 b0 0b 33
        E 16 b0 0b 2a
        E 16 b0 0b 19
        E 16 b0 0b 7f
        E 0 80 29 00
        E 0 90 2e 7f
        E 16 b0 0b 77
        E 16 b0 0b 66
        E 16 b0 0b 5d
        E 16 b0 0b 4c
        E 16 b0 0b 44
        E 16 b0 0b 33
        E 16 b0 0b 2a
        E 16 b0 0b 19
        E 16 b0 0b 7f
        E 0 80 2e 00
        E 0 90 30 7f
        E 16 b0 0b 77
        E 16 b0 0b 66
        E 16 b0 0b 5d
        E 16 b0 0b 4c
        E 16 b0 0b 44
        E 16 b0 0b 33
        E 16 b0 0b 2a
        E 16 b0 0b 19
        E 16 b0 0b 7f
        E 0 80 30 00
        E 0 90 32 7f
        E 16 b0 0b 77
        E 16 b0 0b 66
        E 16 b0 0b 5d
        E 16 b0 0b 4c
        E 16 b0 0b 44
        E 16 b0 0b 33
        E 16 b0 0b 2a
        E 16 b0 0b 19
        E 16 b0 0b 7f
        E 0 80 32 00
        E 0 90 35 7f
        E 16 b0 0b 77
        E 16 b0 0b 66
        E 16 b0 0b 5d
        E 16 b0 0b 4c
        E 16 b0 0b 44
        E 16 b0 0b 33
        E 16 b0 0b 2a
        E 16 b0 0b 19
        E 16 b0 0b 7f
        E 0 80 35 00
        E 0 90 3a 7f
        E 16 b0 0b 77
        E 16 b0 0b 66
        E 16 b0 0b 5d
        E 16 b0 0b 4c
        E 16 b0 0b 44
        E 16 b0 0b 33
        E 16 b0 0b 2a
        E 16 b0 0b 19
        E 16 b0 0b 7f
        E 0 80 3a 00
        E 0 90 3c 7f
        E 16 b0 0b 77
        E 16 b0 0b 66
        E 16 b0 0b 5d
        E 16 b0 0b 4c
        E 16 b0 0b 44
        E 16 b0 0b 33
        E 16 b0 0b 2a
        E 16 b0 0b 19
        E 16 b0 0b 7f
        E 0 80 3c 00
        E 0 90 3e 7f
        E 16 b0 0b 77
        E 16 b0 0b 66
        E 16 b0 0b 5d
        E 16 b0 0b 4c
        E 16 b0 0b 44
        E 16 b0 0b 33
        E 16 b0 0b 2a
        E 16 b0 0b 19
        E 16 b0 0b 7f
        E 0 80 3e 00
        E 0 90 41 7f
        E 16 b0 0b 77
        E 16 b0 0b 66
        E 16 b0 0b 5d
        E 16 b0 0b 4c
        E 16 b0 0b 44
        E 16 b0 0b 33
        E 16 b0 0b 2a
        E 16 b0 0b 19
        E 16 b0 0b 7f
        E 0 80 41 00
        E 0 90 46 7f
        E 16 b0 0b 77
        E 16 b0 0b 66
        E 16 b0 0b 5d
        E 16 b0 0b 4c
        E 16 b0 0b 44
        E 16 b0 0b 33
        E 16 b0 0b 2a
        E 16 b0 0b 19
        E 16 b0 0b 7f
        E 0 80 46 00
        E 0 90 48 7f
        E 16 b0 0b 77
        E 16 b0 0b 66
        E 16 b0 0b 5d
        E 16 b0 0b 4c
        E 16 b0 0b 44
        E 16 b0 0b 33
        E 16 b0 0b 2a
        E 16 b0 0b 19
        E 16 b0 0b 7f
        E 0 80 48 00
        E 0 90 4a 7f
        E 16 b0 0b 77
        E 16 b0 0b 66
        E 16 b0 0b 5d
        E 16 b0 0b 4c
        E 16 b0 0b 44
        E 16 b0 0b 33
        E 16 b0 0b 2a
        E 16 b0 0b 19
        E 16 b0 0b 7f
        E 0 80 4a 00
        E 0 90 4d 7f
        E 16 b0 0b 77
        E 16 b0 0b 66
        E 16 b0 0b 5d
        E 16 b0 0b 4c
        E 16 b0 0b 44
        E 16 b0 0b 33
        E 16 b0 0b 2a
        E 16 b0 0b 19
        E 16 b0 0b 7f
        E 0 80 4d 00
        E 0 90 52 7f
        E 16 b0 0b 77
        E 16 b0 0b 66
        E 16 b0 0b 5d
        E 16 b0 0b 4c
        E 16 b0 0b 44
        E 16 b0 0b 33
        E 16 b0 0b 2a
        E 16 b0 0b 19
        E 16 b0 0b 7f
        E 0 80 52 00
        E 0 90 4d 7f
        E 16 b0 0b 77
        E 16 b0 0b 66
        E 16 b0 0b 5d
        E 16 b0 0b 4c
        E 16 b0 0b 44
        E 16 b0 0b 33
        E 16 b0 0b 2a
        E 16 b0 0b 19
        E 16 b0 0b 7f
        E 0 80 4d 00
        E 0 90 4a 7f
        E 16 b0 0b 77
        E 16 b0 0b 66
        E 16 b0 0b 5d
        E 16 b0 0b 4c
        E 16 b0 0b 44
        E 16 b0 0b 33
        E 16 b0 0b 2a
        E 16 b0 0b 19
        E 16 b0 0b 7f
        E 0 80 4a 00
        E 0 90 48 7f
        E 16 b0 0b 77
        E 16 b0 0b 66
        E 16 b0 0b 5d
        E 16 b0 0b 4c
        E 16 b0 0b 44
        E 16 b0 0b 33
        E 16 b0 0b 2a
        E 16 b0 0b 19
        E 16 b0 0b 7f
        E 0 80 48 00
        E 0 90 46 7f
        E 16 b0 0b 77
        E 16 b0 0b 66
        E 16 b0 0b 5d
        E 16 b0 0b 4c
        E 16 b0 0b 44
        E 16 b0 0b 33
        E 16 b0 0b 2a
        E 16 b0 0b 19
        E 16 b0 0b 7f
        E 0 80 46 00
        E 0 90 41 7f
        E 16 b0 0b 77
        E 16 b0 0b 66
        E 16 b0 0b 5d
        E 16 b0 0b 4c
        E 16 b0 0b 44
        E 16 b0 0b 33
        E 16 b0 0b 2a
        E 16 b0 0b 19
        E 16 b0 0b 7f
        E 0 80 41 00
        E 0 90 3e 7f
        E 16 b0 0b 77
        E 16 b0 0b 66
        E 16 b0 0b 5d
        E 16 b0 0b 4c
        E 16 b0 0b 44
        E 16 b0 0b 33
        E 16 b0 0b 2a
        E 16 b0 0b 19
        E 16 b0 0b 7f
        E 0 80 3e 00
        E 0 90 3c 7f
        E 16 b0 0b 77
        E 16 b0 0b 66
        E 16 b0 0b 5d
        E 16 b0 0b 4c
        E 16 b0 0b 44
        E 16 b0 0b 33
        E 16 b0 0b 2a
        E 16 b0 0b 19
        E 16 b0 0b 7f
        E 0 80 3c 00
        E 0 90 3a 7f
        E 16 b0 0b 77
        E 16 b0 0b 66
        E 16 b0 0b 5d
        E 16 b0 0b 4c
        E 16 b0 0b 44
        E 16 b0 0b 33
        E 16 b0 0b 2a
        E 16 b0 0b 19
        E 16 b0 0b 7f
        E 0 80 3a 00
        E 0 90 35 7f
        E 16 b0 0b 77
        E 16 b0 0b 66
        E 16 b0 0b 5d
        E 16 b0 0b 4c
        E 16 b0 0b 44
        E 16 b0 0b 33
        E 16 b0 0b 2a
        E 16 b0 0b 19
        E 16 b0 0b 7f
        E 0 80 35 00
        E 0 90 32 7f
        E 16 b0 0b 77
        E 16 b0 0b 66
        E 16 b0 0b 5d
        E 16 b0 0b 4c
        E 16 b0 0b 44
        E 16 b0 0b 33
        E 16 b0 0b 2a
        E 16 b0 0b 19
        E 16 b0 0b 7f
        E 0 80 32 00
        E 0 90 30 7f
        E 16 b0 0b 77
        E 16 b0 0b 66
        E 16 b0 0b 5d
        E 16 b0 0b 4c
        E 16 b0 0b 44
        E 16 b0 0b 33
        E 16 b0 0b 2a
        E 16 b0 0b 19
        E 16 b0 0b 7f
        E 0 80 30 00
        E 0 90 2e 7f
        E 16 b0 0b 77
        E 16 b0 0b 66
        E 16 b0 0b 5d
        E 16 b0 0b 4c
        E 16 b0 0b 44
        E 16 b0 0b 33
        E 16 b0 0b 2a
        E 16 b0 0b 19
        E 16 b0 0b 7f
        E 0 80 2e 00
        E 0 90 29 7f
        E 16 b0 0b 77
        E 16 b0 0b 66
        E 16 b0 0b 5d
        E 16 b0 0b 4c
        E 16 b0 0b 44
        E 16 b0 0b 33
        E 16 b0 0b 2a
        E 16 b0 0b 19
        E 16 b0 0b 7f
        E 0 80 29 00
        E 0 90 26 7f
        E 16 b0 0b 77
        E 16 b0 0b 66
        E 16 b0 0b 5d
        E 16 b0 0b 4c
        E 16 b0 0b 44
        E 16 b0 0b 33
        E 16 b0 0b 2a
        E 16 b0 0b 19
        E 16 b0 0b 7f
        E 0 80 26 00
        E 0 90 24 7f
        E 16 b0 0b 77
        E 16 b0 0b 66
        E 16 b0 0b 5d
        E 16 b0 0b 4c
        E 16 b0 0b 44
        E 16 b0 0b 33
        E 16 b0 0b 2a
        E 16 b0 0b 19
        E 16 b0 0b 7f
        E 0 80 24 00
        E 0 90 2b 7f
        E 16 b0 0b 77
        E 16 b0 0b 66
        E 16 b0 0b 5d
        E 16 b0 0b 4c
        E 16 b0 0b 44
        E 16 b0 0b 33
        E 16 b0 0b 2a
        E 16 b0 0b 19
        E 16 b0 0b 7f
        E 0 80 2b 00
        E 0 90 2d 7f
        E 16 b0 0b 77
        E 16 b0 0b 66
        E 16 b0 0b 5d
        E 16 b0 0b 4c
        E 16 b0 0b 44
        E 16 b0 0b 33
        E 16 b0 0b 2a
        E 16 b0 0b 19
        E 16 b0 0b 7f
        E 0 80 2d 00
        E 0 90 2e 7f
        E 16 b0 0b 77
        E 16 b0 0b 66
        E 16 b0 0b 5d
        E 16 b0 0b 4c
        E 16 b0 0b 44
        E 16 b0 0b 33
        E 16 b0 0b 2a
        E 16 b0 0b 19
        E 16 b0 0b 7f
        E 0 80 2e 00
        E 0 90 26 7f
        E 16 b0 0b 77
        E 16 b0 0b 66
        E 16 b0 0b 5d
        E 16 b0 0b 4c
        E 16 b0 0b 44
        E 16 b0 0b 33
        E 16 b0 0b 2a
        E 16 b0 0b 19
        E 16 b0 0b 7f
        E 0 80 26 00
        E 0 90 2b 7f
        E 16 b0 0b 77
        E 16 b0 0b 66
        E 16 b0 0b 5d
        E 16 b0 0b 4c
        E 16 b0 0b 44
        E 16 b0 0b 33
        E 16 b0 0b 2a
        E 16 b0 0b 19
        E 16 b0 0b 7f
        E 0 80 2b 00
        E 0 90 2d 7f
        E 16 b0 0b 77
        E 16 b0 0b 66
        E 16 b0 0b 5d
        E 16 b0 0b 4c
        E 16 b0 0b 44
        E 16 b0 0b 33
        E 16 b0 0b 2a
        E 16 b0 0b 19
        E 16 b0 0b 7f
        E 0 80 2d 00
        E 0 90 2e 7f
        E 16 b0 0b 77
        E 16 b0 0b 66
        E 16 b0 0b 5d
        E 16 b0 0b 4c
        E 16 b0 0b 44
        E 16 b0 0b 33
        E 16 b0 0b 2a
        E 16 b0 0b 19
        E 16 b0 0b 7f
        E 0 80 2e 00
        E 0 90 32 7f
        E 16 b0 0b 77
        E 16 b0 0b 66
        E 16 b0 0b 5d
        E 16 b0 0b 4c
        E 16 b0 0b 44
        E 16 b0 0b 33
        E 16 b0 0b 2a
        E 16 b0 0b 19
        E 16 b0 0b 7f
        E 0 80 32 00
        E 0 90 37 7f
        E 16 b0 0b 77
        E 16 b0 0b 66
        E 16 b0 0b 5d
        E 16 b0 0b 4c
        E 16 b0 0b 44
        E 16 b0 0b 33
        E 16 b0 0b 2a
        E 16 b0 0b 19
        E 16 b0 0b 7f
        E 0 80 37 00
        E 0 90 39 7f
        E 16 b0 0b 77
        E 16 b0 0b 66
        E 16 b0 0b 5d
        E 16 b0 0b 4c
        E 16 b0 0b 44
        E 16 b0 0b 33
        E 16 b0 0b 2a
        E 16 b0 0b 19
        E 16 b0 0b 7f
        E 0 80 39 00
        E 0 90 3a 7f
        E 16 b0 0b 77
        E 16 b0 0b 66
        E 16 b0 0b 5d
        E 16 b0 0b 4c
        E 16 b0 0b 44
        E 16 b0 0b 33
        E 16 b0 0b 2a
        E 16 b0 0b 19
        E 16 b0 0b 7f
        E 0 80 3a 00
        E 0 90 3e 7f
        E 16 b0 0b 77
        E 16 b0 0b 66
        E 16 b0 0b 5d
        E 16 b0 0b 4c
        E 16 b0 0b 44
        E 16 b0 0b 33
        E 16 b0 0b 2a
        E 16 b0 0b 19
        E 16 b0 0b 7f
        E 0 80 3e 00
        E 0 90 43 7f
        E 16 b0 0b 77
        E 16 b0 0b 66
        E 16 b0 0b 5d
        E 16 b0 0b 4c
        E 16 b0 0b 44
        E 16 b0 0b 33
        E 16 b0 0b 2a
        E 16 b0 0b 19
        E 16 b0 0b 7f
        E 0 80 43 00
        E 0 90 45 7f
        E 16 b0 0b 77
        E 16 b0 0b 66
        E 16 b0 0b 5d
        E 16 b0 0b 4c
        E 16 b0 0b 44
        E 16 b0 0b 33
        E 16 b0 0b 2a
        E 16 b0 0b 19
        E 16 b0 0b 7f
        E 0 80 45 00
        E 0 90 46 7f
        E 16 b0 0b 77
        E 16 b0 0b 66
        E 16 b0 0b 5d
        E 16 b0 0b 4c
        E 16 b0 0b 44
        E 16 b0 0b 33
        E 16 b0 0b 2a
        E 16 b0 0b 19
        E 16 b0 0b 7f
        E 0 80 46 00
        E 0 90 4a 7f
        E 16 b0 0b 77
        E 16 b0 0b 66
        E 16 b0 0b 5d
        E 16 b0 0b 4c
        E 16 b0 0b 44
        E 16 b0 0b 33
        E 16 b0 0b 2a
        E 16 b0 0b 19
        E 16 b0 0b 7f
        E 0 80 4a 00
        E 0 90 4f 7f
        E 16 b0 0b 77
        E 16 b0 0b 66
        E 16 b0 0b 5d
        E 16 b0 0b 4c
        E 16 b0 0b 44
        E 16 b0 0b 33
        E 16 b0 0b 2a
        E 16 b0 0b 19
        E 16 b0 0b 7f
        E 0 80 4f 00
        E 0 90 4a 7f
        E 16 b0 0b 77
        E 16 b0 0b 66
        E 16 b0 0b 5d
        E 16 b0 0b 4c
        E 16 b0 0b 44
        E 16 b0 0b 33
        E 16 b0 0b 2a
        E 16 b0 0b 19
        E 16 b0 0b 7f
        E 0 80 4a 00
        E 0 90 46 7f
        E 16 b0 0b 77
        E 16 b0 0b 66
        E 16 b0 0b 5d
        E 16 b0 0b 4c
        E 16 b0 0b 44
        E 16 b0 0b 33
        E 16 b0 0b 2a
        E 16 b0 0b 19
        E 16 b0 0b 7f
        E 0 80 46 00
        E 0 90 45 7f
        E 16 b0 0b 77
        E 16 b0 0b 66
        E 16 b0 0b 5d
        E 16 b0 0b 4c
        E 16 b0 0b 44
        E 16 b0 0b 33
        E 16 b0 0b 2a
        E 16 b0 0b 19
        E 16 b0 0b 7f
        E 0 80 45 00
        E 0 90 43 7f
        E 16 b0 0b 77
        E 16 b0 0b 66
        E 16 b0 0b 5d
        E 16 b0 0b 4c
        E 16 b0 0b 44
        E 16 b0 0b 33
        E 16 b0 0b 2a
        E 16 b0 0b 19
        E 16 b0 0b 7f
        E 0 80 43 00
        E 0 90 3e 7f
        E 16 b0 0b 77
        E 16 b0 0b 66
        E 16 b0 0b 5d
        E 16 b0 0b 4c
        E 16 b0 0b 44
        E 16 b0 0b 33
        E 16 b0 0b 2a
        E 16 b0 0b 19
        E 16 b0 0b 7f
        E 0 80 3e 00
        E 0 90 3a 7f
        E 16 b0 0b 77
        E 16 b0 0b 66
        E 16 b0 0b 5d
        E 16 b0 0b 4c
        E 16 b0 0b 44
        E 16 b0 0b 33
        E 16 b0 0b 2a
        E 16 b0 0b 19
        E 16 b0 0b 7f
        E 0 80 3a 00
        E 0 90 39 7f
        E 16 b0 0b 77
        E 16 b0 0b 66
        E 16 b0 0b 5d
        E 16 b0 0b 4c
        E 16 b0 0b 44
        E 16 b0 0b 33
        E 16 b0 0b 2a
        E 16 b0 0b 19
        E 16 b0 0b 7f
        E 0 80 39 00
        E 0 90 37 7f
        E 16 b0 0b 77
        E 16 b0 0b 66
        E 16 b0 0b 5d
        E 16 b0 0b 4c
        E 16 b0 0b 44
        E 16 b0 0b 33
        E 16 b0 0b 2a
        E 16 b0 0b 19
        E 16 b0 0b 7f
        E 0 80 37 00
        E 0 90 32 7f
        E 16 b0 0b 77
        E 16 b0 0b 66
        E 16 b0 0b 5d
        E 16 b0 0b 4c
        E 16 b0 0b 44
        E 16 b0 0b 33
        E 16 b0 0b 2a
        E 16 b0 0b 19
        E 16 b0 0b 7f
        E 0 80 32 00
        E 0 90 2e 7f
        E 16 b0 0b 77
        E 16 b0 0b 66
        E 16 b0 0b 5d
        E 16 b0 0b 4c
        E 16 b0 0b 44
        E 16 b0 0b 33
        E 16 b0 0b 2a
        E 16 b0 0b 19
        E 16 b0 0b 7f
        E 0 80 2e 00
        E 0 90 2d 7f
        E 16 b0 0b 77
        E 16 b0 0b 66
        E 16 b0 0b 5d
        E 16 b0 0b 4c
        E 16 b0 0b 44
        E 16 b0 0b 33
        E 16 b0 0b 2a
        E 16 b0 0b 19
        E 16 b0 0b 7f
        E 0 80 2d 00
        E 0 90 2b 7f
        E 16 b0 0b 77
        E 16 b0 0b 66
        E 16 b0 0b 5d
        E 16 b0 0b 4c
        E 16 b0 0b 44
        E 16 b0 0b 33
        E 16 b0 0b 2a
        E 16 b0 0b 19
        E 16 b0 0b 7f
        E 0 80 2b 00
        E 0 90 26 7f
        E 16 b0 0b 77
        E 16 b0 0b 66
        E 16 b0 0b 5d
        E 16 b0 0b 4c
        E 16 b0 0b 44
        E 16 b0 0b 33
        E 16 b0 0b 2a
        E 16 b0 0b 19
        E 16 b0 0b 7f
        E 0 80 26 00
        E 0 90 2e 7f
        E 16 b0 0b 77
        E 16 b0 0b 66
        E 16 b0 0b 5d
        E 16 b0 0b 4c
        E 16 b0 0b 44
        E 16 b0 0b 33
        E 16 b0 0b 2a
        E 16 b0 0b 19
        E 16 b0 0b 7f
        E 0 80 2e 00
        E 0 90 2d 7f
        E 16 b0 0b 77
        E 16 b0 0b 66
        E 16 b0 0b 5d
        E 16 b0 0b 4c
        E 16 b0 0b 44
        E 16 b0 0b 33
        E 16 b0 0b 2a
        E 16 b0 0b 19
        E 16 b0 0b 7f
        E 0 80 2d 00
        E 0 90 2e 7f
        E 16 b0 0b 77
        E 16 b0 0b 66
        E 16 b0 0b 5d
        E 16 b0 0b 4c
        E 16 b0 0b 44
        E 16 b0 0b 33
        E 16 b0 0b 2a
        E 16 b0 0b 19
        E 16 b0 0b 7f
        E 0 80 2e 00
        E 0 90 24 7f
        E 16 b0 0b 77
        E 16 b0 0b 66
        E 16 b0 0b 5d
        E 16 b0 0b 4c
        E 16 b0 0b 44
        E 16 b0 0b 33
        E 16 b0 0b 2a
        E 16 b0 0b 19
        E 16 b0 0b 7f
        E 0 80 24 00
        E 0 90 26 7f
        E 16 b0 0b 77
        E 16 b0 0b 66
        E 16 b0 0b 5d
        E 16 b0 0b 4c
        E 16 b0 0b 44
        E 16 b0 0b 33
        E 16 b0 0b 2a
        E 16 b0 0b 19
        E 16 b0 0b 7f
        E 0 80 26 00
        E 0 90 29 7f
        E 16 b0 0b 77
        E 16 b0 0b 66
        E 16 b0 0b 5d
        E 16 b0 0b 4c
        E 16 b0 0b 44
        E 16 b0 0b 33
        E 16 b0 0b 2a
        E 16 b0 0b 19
        E 16 b0 0b 7f
        E 0 80 29 00
        E 0 90 2e 7f
        E 16 b0 0b 77
        E 16 b0 0b 66
        E 16 b0 0b 5d
        E 16 b0 0b 4c
        E 16 b0 0b 44
        E 16 b0 0b 33
        E 16 b0 0b 2a
        E 16 b0 0b 19
        E 16 b0 0b 7f
        E 0 80 2e 00
        E 0 90 30 7f
        E 16 b0 0b 77
        E 16 b0 0b 66
        E 16 b0 0b 5d
        E 16 b0 0b 4c
        E 16 b0 0b 44
        E 16 b0 0b 33
        E 16 b0 0b 2a
        E 16 b0 0b 19
        E 16 b0 0b 7f
        E 0 80 30 00
        E 0 90 32 7f
        E 16 b0 0b 77
        E 16 b0 0b 66
        E 16 b0 0b 5d
        E 16 b0 0b 4c
        E 16 b0 0b 44
        E 16 b0 0b 33
        E 16 b0 0b 2a
        E 16 b0 0b 19
        E 16 b0 0b 7f
        E 0 80 32 00
        E 0 90 35 7f
        E 16 b0 0b 77
        E 16 b0 0b 66
        E 16 b0 0b 5d
        E 16 b0 0b 4c
        E 16 b0 0b 44
        E 16 b0 0b 33
        E 16 b0 0b 2a
        E 16 b0 0b 19
        E 16 b0 0b 7f
        E 0 80 35 00
        E 0 90 3a 7f
        E 16 b0 0b 77
        E 16 b0 0b 66
        E 16 b0 0b 5d
        E 16 b0 0b 4c
        E 16 b0 0b 44
        E 16 b0 0b 33
        E 16 b0 0b 2a
        E 16 b0 0b 19
        E 16 b0 0b 7f
        E 0 80 3a 00
        E 0 90 3c 7f
        E 16 b0 0b 77
        E 16 b0 0b 66
        E 16 b0 0b 5d
        E 16 b0 0b 4c
        E 16 b0 0b 44
        E 16 b0 0b 33
        E 16 b0 0b 2a
        E 16 b0 0b 19
        E 16 b0 0b 7f
        E 0 80 3c 00
        E 0 90 3e 7f
        E 16 b0 0b 77
        E 16 b0 0b 66
        E 16 b0 0b 5d
        E 16 b0 0b 4c
        E 16 b0 0b 44
        E 16 b0 0b 33
        E 16 b0 0b 2a
        E 16 b0 0b 19
        E 16 b0 0b 7f
        E 0 80 3e 00
        E 0 90 41 7f
        E 16 b0 0b 77
        E 16 b0 0b 66
        E 16 b0 0b 5d
        E 16 b0 0b 4c
        E 16 b0 0b 44
        E 16 b0 0b 33
        E 16 b0 0b 2a
        E 16 b0 0b 19
        E 16 b0 0b 7f
        E 0 80 41 00
        E 0 90 46 7f
        E 16 b0 0b 77
        E 16 b0 0b 66
        E 16 b0 0b 5d
        E 16 b0 0b 4c
        E 16 b0 0b 44
        E 16 b0 0b 33
        E 16 b0 0b 2a
        E 16 b0 0b 19
        E 16 b0 0b 7f
        E 0 80 46 00
        E 0 90 48 7f
        E 16 b0 0b 77
        E 16 b0 0b 66
        E 16 b0 0b 5d
        E 16 b0 0b 4c
        E 16 b0 0b 44
        E 16 b0 0b 33
        E 16 b0 0b 2a
        E 16 b0 0b 19
        E 16 b0 0b 7f
        E 0 80 48 00
        E 0 90 4a 7f
        E 16 b0 0b 77
        E 16 b0 0b 66
        E 16 b0 0b 5d
        E 16 b0 0b 4c
        E 16 b0 0b 44
        E 16 b0 0b 33
        E 16 b0 0b 2a
        E 16 b0 0b 19
        E 16 b0 0b 7f
        E 0 80 4a 00
        E 0 90 4d 7f
        E 16 b0 0b 77
        E 16 b0 0b 66
        E 16 b0 0b 5d
        E 16 b0 0b 4c
        E 16 b0 0b 44
        E 16 b0 0b 33
        E 16 b0 0b 2a
        E 16 b0 0b 19
        E 16 b0 0b 7f
        E 0 80 4d 00
        E 0 90 52 7f
        E 16 b0 0b 77
        E 16 b0 0b 66
        E 16 b0 0b 5d
        E 16 b0 0b 4c
        E 16 b0 0b 44
        E 16 b0 0b 33
        E 16 b0 0b 2a
        E 16 b0 0b 19
        E 16 b0 0b 7f
        E 0 80 52 00
        E 0 90 4d 7f
        E 16 b0 0b 77
        E 16 b0 0b 66
        E 16 b0 0b 5d
        E 16 b0 0b 4c
        E 16 b0 0b 44
        E 16 b0 0b 33
        E 16 b0 0b 2a
        E 16 b0 0b 19
        E 16 b0 0b 7f
        E 0 80 4d 00
        E 0 90 4a 7f
        E 16 b0 0b 77
        E 16 b0 0b 66
        E 16 b0 0b 5d
        E 16 b0 0b 4c
        E 16 b0 0b 44
        E 16 b0 0b 33
        E 16 b0 0b 2a
        E 16 b0 0b 19
        E 16 b0 0b 7f
        E 0 80 4a 00
        E 0 90 48 7f
        E 16 b0 0b 77
        E 16 b0 0b 66
        E 16 b0 0b 5d
        E 16 b0 0b 4c
        E 16 b0 0b 44
        E 16 b0 0b 33
        E 16 b0 0b 2a
        E 16 b0 0b 19
        E 16 b0 0b 7f
        E 0 80 48 00
        E 0 90 46 7f
        E 16 b0 0b 77
        E 16 b0 0b 66
        E 16 b0 0b 5d
        E 16 b0 0b 4c
        E 16 b0 0b 44
        E 16 b0 0b 33
        E 16 b0 0b 2a
        E 16 b0 0b 19
        E 16 b0 0b 7f
        E 0 80 46 00
        E 0 90 41 7f
        E 16 b0 0b 77
        E 16 b0 0b 66
        E 16 b0 0b 5d
        E 16 b0 0b 4c
        E 16 b0 0b 44
        E 16 b0 0b 33
        E 16 b0 0b 2a
        E 16 b0 0b 19
        E 16 b0 0b 7f
        E 0 80 41 00
        E 0 90 3e 7f
        E 16 b0 0b 77
        E 16 b0 0b 66
        E 16 b0 0b 5d
        E 16 b0 0b 4c
        E 16 b0 0b 44
        E 16 b0 0b 33
        E 16 b0 0b 2a
        E 16 b0 0b 19
        E 16 b0 0b 7f
        E 0 80 3e 00
        E 0 90 3c 7f
        E 16 b0 0b 77
        E 16 b0 0b 66
        E 16 b0 0b 5d
        E 16 b0 0b 4c
        E 16 b0 0b 44
        E 16 b0 0b 33
        E 16 b0 0b 2a
        E 16 b0 0b 19
        E 16 b0 0b 7f
        E 0 80 3c 00
        E 0 90 3a 7f
        E 16 b0 0b 77
        E 16 b0 0b 66
        E 16 b0 0b 5d
        E 16 b0 0b 4c
        E 16 b0 0b 44
        E 16 b0 0b 33
        E 16 b0 0b 2a
        E 16 b0 0b 19
        E 16 b0 0b 7f
        E 0 80 3a 00
        E 0 90 35 7f
        E 16 b0 0b 77
        E 16 b0 0b 66
        E 16 b0 0b 5d
        E 16 b0 0b 4c
        E 16 b0 0b 44
        E 16 b0 0b 33
        E 16 b0 0b 2a
        E 16 b0 0b 19
        E 16 b0 0b 7f
        E 0 80 35 00
        E 0 90 32 7f
        E 16 b0 0b 77
        E 16 b0 0b 66
        E 16 b0 0b 5d
        E 16 b0 0b 4c
        E 16 b0 0b 44
        E 16 b0 0b 33
        E 16 b0 0b 2a
        E 16 b0 0b 19
        E 16 b0 0b 7f
        E 0 80 32 00
        E 0 90 30 7f
        E 16 b0 0b 77
        E 16 b0 0b 66
        E 16 b0 0b 5d
        E 16 b0 0b 4c
        E 16 b0 0b 44
        E 16 b0 0b 33
        E 16 b0 0b 2a
        E 16 b0 0b 19
        E 16 b0 0b 7f
        E 0 80 30 00
        E 0 90 2e 7f
        E 16 b0 0b 77
        E 16 b0 0b 66
        E 16 b0 0b 5d
        E 16 b0 0b 4c
        E 16 b0 0b 44
        E 16 b0 0b 33
        E 16 b0 0b 2a
        E 16 b0 0b 19
        E 16 b0 0b 7f
        E 0 80 2e 00
        E 0 90 29 7f
        E 16 b0 0b 77
        E 16 b0 0b 66
        E 16 b0 0b 5d
        E 16 b0 0b 4c
        E 16 b0 0b 44
        E 16 b0 0b 33
        E 16 b0 0b 2a
        E 16 b0 0b 19
        E 16 b0 0b 7f
        E 0 80 29 00
        E 0 90 26 7f
        E 16 b0 0b 77
        E 16 b0 0b 66
        E 16 b0 0b 5d
        E 16 b0 0b 4c
        E 16 b0 0b 44
        E 16 b0 0b 33
        E 16 b0 0b 2a
        E 16 b0 0b 19
        E 16 b0 0b 7f
        E 0 80 26 00
        E 0 90 24 7f
        E 16 b0 0b 77
        E 16 b0 0b 66
        E 16 b0 0b 5d
        E 16 b0 0b 4c
        E 16 b0 0b 44
        E 16 b0 0b 33
        E 16 b0 0b 2a
        E 16 b0 0b 19
        E 16 b0 0b 7f
        E 0 80 24 00
        E 0 90 2b 7f
        E 16 b0 0b 77
        E 16 b0 0b 66
        E 16 b0 0b 5d
        E 16 b0 0b 4c
        E 16 b0 0b 44
        E 16 b0 0b 33
        E 16 b0 0b 2a
        E 16 b0 0b 19
        E 16 b0 0b 7f
        E 0 80 2b 00
        E 0 90 2d 7f
        E 16 b0 0b 77
        E 16 b0 0b 66
        E 16 b0 0b 5d
        E 16 b0 0b 4c
        E 16 b0 0b 44
        E 16 b0 0b 33
        E 16 b0 0b 2a
        E 16 b0 0b 19
        E 16 b0 0b 7f
        E 0 80 2d 00
        E 0 90 2e 7f
        E 16 b0 0b 77
        E 16 b0 0b 66
        E 16 b0 0b 5d
        E 16 b0 0b 4c
        E 16 b0 0b 44
        E 16 b0 0b 33
        E 16 b0 0b 2a
        E 16 b0 0b 19
        E 16 b0 0b 7f
        E 0 80 2e 00
        E 0 90 26 7f
        E 16 b0 0b 77
        E 16 b0 0b 66
        E 16 b0 0b 5d
        E 16 b0 0b 4c
        E 16 b0 0b 44
        E 16 b0 0b 33
        E 16 b0 0b 2a
        E 16 b0 0b 19
        E 16 b0 0b 7f
        E 0 80 26 00
        E 0 90 2b 7f
        E 16 b0 0b 77
        E 16 b0 0b 66
        E 16 b0 0b 5d
        E 16 b0 0b 4c
        E 16 b0 0b 44
        E 16 b0 0b 33
        E 16 b0 0b 2a
        E 16 b0 0b 19
        E 16 b0 0b 7f
        E 0 80 2b 00
        E 0 90 2d 7f
        E 16 b0 0b 77
        E 16 b0 0b 66
        E 16 b0 0b 5d
        E 16 b0 0b 4c
        E 16 b0 0b 44
        E 16 b0 0b 33
        E 16 b0 0b 2a
        E 16 b0 0b 19
        E 16 b0 0b 7f
        E 0 80 2d 00
        E 0 90 2e 7f
        E 16 b0 0b 77
        E 16 b0 0b 66
        E 16 b0 0b 5d
        E 16 b0 0b 4c
        E 16 b0 0b 44
        E 16 b0 0b 33
        E 16 b0 0b 2a
        E 16 b0 0b 19
        E 16 b0 0b 7f
        E 0 80 2e 00
        E 0 90 32 7f
        E 16 b0 0b 77
        E 16 b0 0b 66
        E 16 b0 0b 5d
        E 16 b0 0b 4c
        E 16 b0 0b 44
        E 16 b0 0b 33
        E 16 b0 0b 2a
        E 16 b0 0b 19
        E 16 b0 0b 7f
        E 0 80 32 00
        E 0 90 37 7f
        E 16 b0 0b 77
        E 16 b0 0b 66
        E 16 b0 0b 5d
        E 16 b0 0b 4c
        E 16 b0 0b 44
        E 16 b0 0b 33
        E 16 b0 0b 2a
        E 16 b0 0b 19
        E 16 b0 0b 7f
        E 0 80 37 00
        E 0 90 39 7f
        E 16 b0 0b 77
        E 16 b0 0b 66
        E 16 b0 0b 5d
        E 16 b0 0b 4c
        E 16 b0 0b 44
        E 16 b0 0b 33
        E 16 b0 0b 2a
        E 16 b0 0b 19
        E 16 b0 0b 7f
        E 0 80 39 00
        E 0 90 3a 7f
        E 16 b0 0b 77
        E 16 b0 0b 66
        E 16 b0 0b 5d
        E 16 b0 0b 4c
        E 16 b0 0b 44
        E 16 b0 0b 33
        E 16 b0 0b 2a
        E 16 b0 0b 19
        E 16 b0 0b 7f
        E 0 80 3a 00
        E 0 90 3e 7f
        E 16 b0 0b 77
        E 16 b0 0b 66
        E 16 b0 0b 5d
        E 16 b0 0b 4c
        E 16 b0 0b 44
        E 16 b0 0b 33
        E 16 b0 0b 2a
        E 16 b0 0b 19
        E 16 b0 0b 7f
        E 0 80 3e 00
        E 0 90 43 7f
        E 16 b0 0b 77
        E 16 b0 0b 66
        E 16 b0 0b 5d
        E 16 b0 0b 4c
        E 16 b0 0b 44
        E 16 b0 0b 33
        E 16 b0 0b 2a
        E 16 b0 0b 19
        E 16 b0 0b 7f
        E 0 80 43 00
        E 0 90 45 7f
        E 16 b0 0b 77
        E 16 b0 0b 66
        E 16 b0 0b 5d
        E 16 b0 0b 4c
        E 16 b0 0b 44
        E 16 b0 0b 33
        E 16 b0 0b 2a
        E 16 b0 0b 19
        E 16 b0 0b 7f
        E 0 80 45 00
        E 0 90 46 7f
        E 16 b0 0b 77
        E 16 b0 0b 66
        E 16 b0 0b 5d
        E 16 b0 0b 4c
        E 16 b0 0b 44
        E 16 b0 0b 33
        E 16 b0 0b 2a
        E 16 b0 0b 19
        E 16 b0 0b 7f
        E 0 80 46 00
        E 0 90 4a 7f
        E 16 b0 0b 77
        E 16 b0 0b 66
        E 16 b0 0b 5d
        E 16 b0 0b 4c
        E 16 b0 0b 44
        E 16 b0 0b 33
        E 16 b0 0b 2a
        E 16 b0 0b 19
        E 16 b0 0b 7f
        E 0 80 4a 00
        E 0 90 4f 7f
        E 16 b0 0b 77
        E 16 b0 0b 66
        E 16 b0 0b 5d
        E 16 b0 0b 4c
        E 16 b0 0b 44
        E 16 b0 0b 33
        E 16 b0 0b 2a
        E 16 b0 0b 19
        E 16 b0 0b 7f
        E 0 80 4f 00
        E 0 90 4a 7f
        E 16 b0 0b 77
        E 16 b0 0b 66
        E 16 b0 0b 5d
        E 16 b0 0b 4c
        E 16 b0 0b 44
        E 16 b0 0b 33
        E 16 b0 0b 2a
        E 16 b0 0b 19
        E 16 b0 0b 7f
        E 0 80 4a 00
        E 0 90 46 7f
        E 16 b0 0b 77
        E 16 b0 0b 66
        E 16 b0 0b 5d
        E 16 b0 0b 4c
        E 16 b0 0b 44
        E 16 b0 0b 33
        E 16 b0 0b 2a
        E 16 b0 0b 19
        E 16 b0 0b 7f
        E 0 80 46 00
        E 0 90 45 7f
        E 16 b0 0b 77
        E 16 b0 0b 66
        E 16 b0 0b 5d
        E 16 b0 0b 4c
        E 16 b0 0b 44
        E 16 b0 0b 33
        E 16 b0 0b 2a
        E 16 b0 0b 19
        E 16 b0 0b 7f
        E 0 80 45 00
        E 0 90 43 7f
        E 16 b0 0b 77
        E 16 b0 0b 66
        E 16 b0 0b 5d
        E 16 b0 0b 4c
        E 16 b0 0b 44
        E 16 b0 0b 33
        E 16 b0 0b 2a
        E 16 b0 0b 19
        E 16 b0 0b 7f
        E 0 80 43 00
        E 0 90 3e 7f
        E 16 b0 0b 77
        E 16 b0 0b 66
        E 16 b0 0b 5d
        E 16 b0 0b 4c
        E 16 b0 0b 44
        E 16 b0 0b 33
        E 16 b0 0b 2a
        E 16 b0 0b 19
        E 16 b0 0b 7f
        E 0 80 3e 00
        E 0 90 3a 7f
        E 16 b0 0b 77
        E 16 b0 0b 66
        E 16 b0 0b 5d
        E 16 b0 0b 4c
        E 16 b0 0b 44
        E 16 b0 0b 33
        E 16 b0 0b 2a
        E 16 b0 0b 19
        E 16 b0 0b 7f
        E 0 80 3a 00
        E 0 90 39 7f
        E 16 b0 0b 77
        E 16 b0 0b 66
        E 16 b0 0b 5d
        E 16 b0 0b 4c
        E 16 b0 0b 44
        E 16 b0 0b 33
        E 16 b0 0b 2a
        E 16 b0 0b 19
        E 16 b0 0b 7f
        E 0 80 39 00
        E 0 90 37 7f
        E 16 b0 0b 77
        E 16 b0 0b 66
        E 16 b0 0b 5d
        E 16 b0 0b 4c
        E 16 b0 0b 44
        E 16 b0 0b 33
        E 16 b0 0b 2a
        E 16 b0 0b 19
        E 16 b0 0b 7f
        E 0 80 37 00
        E 0 90 32 7f
        E 16 b0 0b 77
        E 16 b0 0b 66
        E 16 b0 0b 5d
        E 16 b0 0b 4c
        E 16 b0 0b 44
        E 16 b0 0b 33
        E 16 b0 0b 2a
        E 16 b0 0b 19
        E 16 b0 0b 7f
        E 0 80 32 00
        E 0 90 2e 7f
        E 16 b0 0b 77
        E 16 b0 0b 66
        E 16 b0 0b 5d
        E 16 b0 0b 4c
        E 16 b0 0b 44
        E 16 b0 0b 33
        E 16 b0 0b 2a
        E 16 b0 0b 19
        E 16 b0 0b 7f
        E 0 80 2e 00
        E 0 90 2d 7f
        E 16 b0 0b 77
        E 16 b0 0b 66
        E 16 b0 0b 5d
        E 16 b0 0b 4c
        E 16 b0 0b 44
        E 16 b0 0b 33
        E 16 b0 0b 2a
        E 16 b0 0b 19
        E 16 b0 0b 7f
        E 0 80 2d 00
        E 0 90 2b 7f
        E 16 b0 0b 77
        E 16 b0 0b 66
        E 16 b0 0b 5d
        E 16 b0 0b 4c
        E 16 b0 0b 44
        E 16 b0 0b 33
        E 16 b0 0b 2a
        E 16 b0 0b 19
        E 16 b0 0b 7f
        E 0 80 2b 00
        E 0 90 26 7f
        E 16 b0 0b 77
        E 16 b0 0b 66
        E 16 b0 0b 5d
        E 16 b0 0b 4c
        E 16 b0 0b 44
        E 16 b0 0b 33
        E 16 b0 0b 2a
        E 16 b0 0b 19
        E 16 b0 0b 7f
        E 0 80 26 00
        E 0 90 2e 7f
        E 16 b0 0b 77
        E 16 b0 0b 66
        E 16 b0 0b 5d
        E 16 b0 0b 4c
        E 16 b0 0b 44
        E 16 b0 0b 33
        E 16 b0 0b 2a
        E 16 b0 0b 19
        E 16 b0 0b 7f
        E 0 80 2e 00
        E 0 90 2d 7f
        E 16 b0 0b 77
        E 16 b0 0b 66
        E 16 b0 0b 5d
        E 16 b0 0b 4c
        E 16 b0 0b 44
        E 16 b0 0b 33
        E 16 b0 0b 2a
        E 16 b0 0b 19
        E 16 b0 0b 7f
        E 0 80 2d 00
        E 0 90 2b 7f
        E 16 b0 0b 77
        E 16 b0 0b 66
        E 16 b0 0b 5d
        E 16 b0 0b 4c
        E 16 b0 0b 44
        E 16 b0 0b 33
        E 16 b0 0b 2a
        E 16 b0 0b 19
        E 16 b0 0b 7f
        E 0 80 2b 00
        E 0 90 2e 7f
        E 16 b0 0b 77
        E 16 b0 0b 66
        E 16 b0 0b 5d
        E 16 b0 0b 4c
        E 16 b0 0b 44
        E 16 b0 0b 33
        E 16 b0 0b 2a
        E 16 b0 0b 19
        E 16 b0 0b 7f
        E 0 80 2e 00
        E 0 90 27 7f
        E 16 b0 0b 77
        E 16 b0 0b 66
        E 16 b0 0b 5d
        E 16 b0 0b 4c
        E 16 b0 0b 44
        E 16 b0 0b 33
        E 16 b0 0b 2a
        E 16 b0 0b 19
        E 16 b0 0b 7f
        E 0 80 27 00
        E 0 90 29 7f
        E 16 b0 0b 77
        E 16 b0 0b 66
        E 16 b0 0b 5d
        E 16 b0 0b 4c
        E 16 b0 0b 44
        E 16 b0 0b 33
        E 16 b0 0b 2a
        E 16 b0 0b 19
        E 16 b0 0b 7f
        E 0 80 29 00
        E 0 90 2b 7f
        E 16 b0 0b 77
        E 16 b0 0b 66
        E 16 b0 0b 5d
        E 16 b0 0b 4c
        E 16 b0 0b 44
        E 16 b0 0b 33
        E 16 b0 0b 2a
        E 16 b0 0b 19
        E 16 b0 0b 7f
        E 0 80 2b 00
        E 0 90 2e 7f
        E 16 b0 0b 77
        E 16 b0 0b 66
        E 16 b0 0b 5d
        E 16 b0 0b 4c
        E 16 b0 0b 44
        E 16 b0 0b 33
        E 16 b0 0b 2a
        E 16 b0 0b 19
        E 16 b0 0b 7f
        E 0 80 2e 00
        E 0 90 33 7f
        E 16 b0 0b 77
        E 16 b0 0b 66
        E 16 b0 0b 5d
        E 16 b0 0b 4c
        E 16 b0 0b 44
        E 16 b0 0b 33
        E 16 b0 0b 2a
        E 16 b0 0b 19
        E 16 b0 0b 7f
        E 0 80 33 00
        E 0 90 35 7f
        E 16 b0 0b 77
        E 16 b0 0b 66
        E 16 b0 0b 5d
        E 16 b0 0b 4c
        E 16 b0 0b 44
        E 16 b0 0b 33
        E 16 b0 0b 2a
        E 16 b0 0b 19
        E 16 b0 0b 7f
        E 0 80 35 00
        E 0 90 37 7f
        E 16 b0 0b 77
        E 16 b0 0b 66
        E 16 b0 0b 5d
        E 16 b0 0b 4c
        E 16 b0 0b 44
        E 16 b0 0b 33
        E 16 b0 0b 2a
        E 16 b0 0b 19
        E 16 b0 0b 7f
        E 0 80 37 00
        E 0 90 3a 7f
        E 16 b0 0b 77
        E 16 b0 0b 66
        E 16 b0 0b 5d
        E 16 b0 0b 4c
        E 16 b0 0b 44
        E 16 b0 0b 33
        E 16 b0 0b 2a
        E 16 b0 0b 19
        E 16 b0 0b 7f
        E 0 80 3a 00
        E 0 90 3f 7f
        E 16 b0 0b 77
        E 16 b0 0b 66
        E 16 b0 0b 5d
        E 16 b0 0b 4c
        E 16 b0 0b 44
        E 16 b0 0b 33
        E 16 b0 0b 2a
        E 16 b0 0b 19
        E 16 b0 0b 7f
        E 0 80 3f 00
        E 0 90 41 7f
        E 16 b0 0b 77
        E 16 b0 0b 66
        E 16 b0 0b 5d
        E 16 b0 0b 4c
        E 16 b0 0b 44
        E 16 b0 0b 33
        E 16 b0 0b 2a
        E 16 b0 0b 19
        E 16 b0 0b 7f
        E 0 80 41 00
        E 0 90 43 7f
        E 16 b0 0b 77
        E 16 b0 0b 66
        E 16 b0 0b 5d
        E 16 b0 0b 4c
        E 16 b0 0b 44
        E 16 b0 0b 33
        E 16 b0 0b 2a
        E 16 b0 0b 19
        E 16 b0 0b 7f
        E 0 80 43 00
        E 0 90 46 7f
        E 16 b0 0b 77
        E 16 b0 0b 66
        E 16 b0 0b 5d
        E 16 b0 0b 4c
        E 16 b0 0b 44
        E 16 b0 0b 33
        E 16 b0 0b 2a
        E 16 b0 0b 19
        E 16 b0 0b 7f
        E 0 80 46 00
        E 0 90 4b 7f
        E 16 b0 0b 77
        E 16 b0 0b 66
        E 16 b0 0b 5d
        E 16 b0 0b 4c
        E 16 b0 0b 44
        E 16 b0 0b 33
        E 16 b0 0b 2a
        E 16 b0 0b 19
        E 16 b0 0b 7f
        E 0 80 4b 00
        E 0 90 4d 7f
        E 16 b0 0b 77
        E 16 b0 0b 66
        E 16 b0 0b 5d
        E 16 b0 0b 4c
        E 16 b0 0b 44
        E 16 b0 0b 33
        E 16 b0 0b 2a
        E 16 b0 0b 19
        E 16 b0 0b 7f
        E 0 80 4d 00
        E 0 90 4f 7f
        E 16 b0 0b 77
        E 16 b0 0b 66
        E 16 b0 0b 5d
        E 16 b0 0b 4c
        E 16 b0 0b 44
        E 16 b0 0b 33
        E 16 b0 0b 2a
        E 16 b0 0b 19
        E 16 b0 0b 7f
        E 0 80 4f 00
        E 0 90 4d 7f
        E 16 b0 0b 77
        E 16 b0 0b 66
        E 16 b0 0b 5d
        E 16 b0 0b 4c
        E 16 b0 0b 44
        E 16 b0 0b 33
        E 16 b0 0b 2a
        E 16 b0 0b 19
        E 16 b0 0b 7f
        E 0 80 4d 00
        E 0 90 4b 7f
        E 16 b0 0b 77
        E 16 b0 0b 66
        E 16 b0 0b 5d
        E 16 b0 0b 4c
        E 16 b0 0b 44
        E 16 b0 0b 33
        E 16 b0 0b 2a
        E 16 b0 0b 19
        E 16 b0 0b 7f
        E 0 80 4b 00
        E 0 90 46 7f
        E 16 b0 0b 77
        E 16 b0 0b 66
        E 16 b0 0b 5d
        E 16 b0 0b 4c
        E 16 b0 0b 44
        E 16 b0 0b 33
        E 16 b0 0b 2a
        E 16 b0 0b 19
        E 16 b0 0b 7f
        E 0 80 46 00
        E 0 90 43 7f
        E 16 b0 0b 77
        E 16 b0 0b 66
        E 16 b0 0b 5d
        E 16 b0 0b 4c
        E 16 b0 0b 44
        E 16 b0 0b 33
        E 16 b0 0b 2a
        E 16 b0 0b 19
        E 16 b0 0b 7f
        E 0 80 43 00
        E 0 90 41 7f
        E 16 b0 0b 77
        E 16 b0 0b 66
        E 16 b0 0b 5d
        E 16 b0 0b 4c
        E 16 b0 0b 44
        E 16 b0 0b 33
        E 16 b0 0b 2a
        E 16 b0 0b 19
        E 16 b0 0b 7f
        E 0 80 41 00
        E 0 90 3f 7f
        E 16 b0 0b 77
        E 16 b0 0b 66
        E 16 b0 0b 5d
        E 16 b0 0b 4c
        E 16 b0 0b 44
        E 16 b0 0b 33
        E 16 b0 0b 2a
        E 16 b0 0b 19
        E 16 b0 0b 7f
        E 0 80 3f 00
        E 0 90 3a 7f
        E 16 b0 0b 77
        E 16 b0 0b 66
        E 16 b0 0b 5d
        E 16 b0 0b 4c
        E 16 b0 0b 44
        E 16 b0 0b 33
        E 16 b0 0b 2a
        E 16 b0 0b 19
        E 16 b0 0b 7f
        E 0 80 3a 00
        E 0 90 37 7f
        E 16 b0 0b 77
        E 16 b0 0b 66
        E 16 b0 0b 5d
        E 16 b0 0b 4c
        E 16 b0 0b 44
        E 16 b0 0b 33
        E 16 b0 0b 2a
        E 16 b0 0b 19
        E 16 b0 0b 7f
        E 0 80 37 00
        E 0 90 35 7f
        E 16 b0 0b 77
        E 16 b0 0b 66
        E 16 b0 0b 5d
        E 16 b0 0b 4c
        E 16 b0 0b 44
        E 16 b0 0b 33
        E 16 b0 0b 2a
        E 16 b0 0b 19
        E 16 b0 0b 7f
        E 0 80 35 00
        E 0 90 33 7f
        E 16 b0 0b 77
        E 16 b0 0b 66
        E 16 b0 0b 5d
        E 16 b0 0b 4c
        E 16 b0 0b 44
        E 16 b0 0b 33
        E 16 b0 0b 2a
        E 16 b0 0b 19
        E 16 b0 0b 7f
        E 0 80 33 00
        E 0 90 2e 7f
        E 16 b0 0b 77
        E 16 b0 0b 66
        E 16 b0 0b 5d
        E 16 b0 0b 4c
        E 16 b0 0b 44
        E 16 b0 0b 33
        E 16 b0 0b 2a
        E 16 b0 0b 19
        E 16 b0 0b 7f
        E 0 80 2e 00
        E 0 90 2b 7f
        E 16 b0 0b 77
        E 16 b0 0b 66
        E 16 b0 0b 5d
        E 16 b0 0b 4c
        E 16 b0 0b 44
        E 16 b0 0b 33
        E 16 b0 0b 2a
        E 16 b0 0b 19
        E 16 b0 0b 7f
        E 0 80 2b 00
        E 0 90 29 7f
        E 16 b0 0b 77
        E 16 b0 0b 66
        E 16 b0 0b 5d
        E 16 b0 0b 4c
        E 16 b0 0b 44
        E 16 b0 0b 33
        E 16 b0 0b 2a
        E 16 b0 0b 19
        E 16 b0 0b 7f
        E 0 80 29 00
        E 0 90 27 7f
        E 16 b0 0b 77
        E 16 b0 0b 66
        E 16 b0 0b 5d
        E 16 b0 0b 4c
        E 16 b0 0b 44
        E 16 b0 0b 33
        E 16 b0 0b 2a
        E 16 b0 0b 19
        E 16 b0 0b 7f
        E 0 80 27 00
        E 0 90 2e 7f
        E 16 b0 0b 77
        E 16 b0 0b 66
        E 16 b0 0b 5d
        E 16 b0 0b 4c
        E 16 b0 0b 44
        E 16 b0 0b 33
        E 16 b0 0b 2a
        E 16 b0 0b 19
        E 16 b0 0b 7f
        E 0 80 2e 00
        E 0 90 2d 7f
        E 16 b0 0b 77
        E 16 b0 0b 66
        E 16 b0 0b 5d
        E 16 b0 0b 4c
        E 16 b0 0b 44
        E 16 b0 0b 33
        E 16 b0 0b 2a
        E 16 b0 0b 19
        E 16 b0 0b 7f
        E 0 80 2d 00
        E 0 90 24 7f
        E 16 b0 0b 77
        E 16 b0 0b 66
        E 16 b0 0b 5d
        E 16 b0 0b 4c
        E 16 b0 0b 44
        E 16 b0 0b 33
        E 16 b0 0b 2a
        E 16 b0 0b 19
        E 16 b0 0b 7f
        E 0 80 24 00
        E 0 90 29 7f
        E 16 b0 0b 77
        E 16 b0 0b 66
        E 16 b0 0b 5d
        E 16 b0 0b 4c
        E 16 b0 0b 44
        E 16 b0 0b 33
        E 16 b0 0b 2a
        E 16 b0 0b 19
        E 16 b0 0b 7f
        E 0 80 29 00
        E 0 90 2b 7f
        E 16 b0 0b 77
        E 16 b0 0b 66
        E 16 b0 0b 5d
        E 16 b0 0b 4c
        E 16 b0 0b 44
        E 16 b0 0b 33
        E 16 b0 0b 2a
        E 16 b0 0b 19
        E 16 b0 0b 7f
        E 0 80 2b 00
        E 0 90 2d 7f
        E 16 b0 0b 77
        E 16 b0 0b 66
        E 16 b0 0b 5d
        E 16 b0 0b 4c
        E 16 b0 0b 44
        E 16 b0 0b 33
        E 16 b0 0b 2a
        E 16 b0 0b 19
        E 16 b0 0b 7f
        E 0 80 2d 00
        E 0 90 30 7f
        E 16 b0 0b 77
        E 16 b0 0b 66
        E 16 b0 0b 5d
        E 16 b0 0b 4c
        E 16 b0 0b 44
        E 16 b0 0b 33
        E 16 b0 0b 2a
        E 16 b0 0b 19
        E 16 b0 0b 7f
        E 0 80 30 00
        E 0 90 35 7f
        E 16 b0 0b 77
        E 16 b0 0b 66
        E 16 b0 0b 5d
        E 16 b0 0b 4c
        E 16 b0 0b 44
        E 16 b0 0b 33
        E 16 b0 0b 2a
        E 16 b0 0b 19
        E 16 b0 0b 7f
        E 0 80 35 00
        E 0 90 37 7f
        E 16 b0 0b 77
        E 16 b0 0b 66
        E 16 b0 0b 5d
        E 16 b0 0b 4c
        E 16 b0 0b 44
        E 16 b0 0b 33
        E 16 b0 0b 2a
        E 16 b0 0b 19
        E 16 b0 0b 7f
        E 0 80 37 00
        E 0 90 39 7f
        E 16 b0 0b 77
        E 16 b0 0b 66
        E 16 b0 0b 5d
        E 16 b0 0b 4c
        E 16 b0 0b 44
        E 16 b0 0b 33
        E 16 b0 0b 2a
        E 16 b0 0b 19
        E 16 b0 0b 7f
        E 0 80 39 00
        E 0 90 3c 7f
        E 16 b0 0b 77
        E 16 b0 0b 66
        E 16 b0 0b 5d
        E 16 b0 0b 4c
        E 16 b0 0b 44
        E 16 b0 0b 33
        E 16 b0 0b 2a
        E 16 b0 0b 19
        E 16 b0 0b 7f
        E 0 80 3c 00
        E 0 90 41 7f
        E 16 b0 0b 77
        E 16 b0 0b 66
        E 16 b0 0b 5d
        E 16 b0 0b 4c
        E 16 b0 0b 44
        E 16 b0 0b 33
        E 16 b0 0b 2a
        E 16 b0 0b 19
        E 16 b0 0b 7f
        E 0 80 41 00
        E 0 90 43 7f
        E 16 b0 0b 77
        E 16 b0 0b 66
        E 16 b0 0b 5d
        E 16 b0 0b 4c
        E 16 b0 0b 44
        E 16 b0 0b 33
        E 16 b0 0b 2a
        E 16 b0 0b 19
        E 16 b0 0b 7f
        E 0 80 43 00
        E 0 90 45 7f
        E 16 b0 0b 77
        E 16 b0 0b 66
        E 16 b0 0b 5d
        E 16 b0 0b 4c
        E 16 b0 0b 44
        E 16 b0 0b 33
        E 16 b0 0b 2a
        E 16 b0 0b 19
        E 16 b0 0b 7f
        E 0 80 45 00
        E 0 90 48 7f
        E 16 b0 0b 77
        E 16 b0 0b 66
        E 16 b0 0b 5d
        E 16 b0 0b 4c
        E 16 b0 0b 44
        E 16 b0 0b 33
        E 16 b0 0b 2a
        E 16 b0 0b 19
        E 16 b0 0b 7f
        E 0 80 48 00
        E 0 90 4d 7f
        E 16 b0 0b 77
        E 16 b0 0b 66
        E 16 b0 0b 5d
        E 16 b0 0b 4c
        E 16 b0 0b 44
        E 16 b0 0b 33
        E 16 b0 0b 2a
        E 16 b0 0b 19
        E 16 b0 0b 7f
        E 0 80 4d 00
        E 0 90 4f 7f
        E 16 b0 0b 77
        E 16 b0 0b 66
        E 16 b0 0b 5d
        E 16 b0 0b 4c
        E 16 b0 0b 44
        E 16 b0 0b 33
        E 16 b0 0b 2a
        E 16 b0 0b 19
        E 16 b0 0b 7f
        E 0 80 4f 00
        E 0 90 51 7f
        E 16 b0 0b 77
        E 16 b0 0b 66
        E 16 b0 0b 5d
        E 16 b0 0b 4c
        E 16 b0 0b 44
        E 16 b0 0b 33
        E 16 b0 0b 2a
        E 16 b0 0b 19
        E 16 b0 0b 7f
        E 0 80 51 00
        E 0 90 4f 7f
        E 16 b0 0b 77
        E 16 b0 0b 66
        E 16 b0 0b 5d
        E 16 b0 0b 4c
        E 16 b0 0b 44
        E 16 b0 0b 33
        E 16 b0 0b 2a
        E 16 b0 0b 19
        E 16 b0 0b 7f
        E 0 80 4f 00
        E 0 90 4d 7f
        E 16 b0 0b 77
        E 16 b0 0b 66
        E 16 b0 0b 5d
        E 16 b0 0b 4c
        E 16 b0 0b 44
        E 16 b0 0b 33
        E 16 b0 0b 2a
        E 16 b0 0b 19
        E 16 b0 0b 7f
        E 0 80 4d 00
        E 0 90 48 7f
        E 16 b0 0b 77
        E 16 b0 0b 66
        E 16 b0 0b 5d
        E 16 b0 0b 4c
        E 16 b0 0b 44
        E 16 b0 0b 33
        E 16 b0 0b 2a
        E 16 b0 0b 19
        E 16 b0 0b 7f
        E 0 80 48 00
        E 0 90 45 7f
        E 16 b0 0b 77
        E 16 b0 0b 66
        E 16 b0 0b 5d
        E 16 b0 0b 4c
        E 16 b0 0b 44
        E 16 b0 0b 33
        E 16 b0 0b 2a
        E 16 b0 0b 19
        E 16 b0 0b 7f
        E 0 80 45 00
        E 0 90 43 7f
        E 16 b0 0b 77
        E 16 b0 0b 66
        E 16 b0 0b 5d
        E 16 b0 0b 4c
        E 16 b0 0b 44
        E 16 b0 0b 33
        E 16 b0 0b 2a
        E 16 b0 0b 19
        E 16 b0 0b 7f
        E 0 80 43 00
        E 0 90 41 7f
        E 16 b0 0b 77
        E 16 b0 0b 66
        E 16 b0 0b 5d
        E 16 b0 0b 4c
        E 16 b0 0b 44
        E 16 b0 0b 33
        E 16 b0 0b 2a
        E 16 b0 0b 19
        E 16 b0 0b 7f
        E 0 80 41 00
        E 0 90 3c 7f
        E 16 b0 0b 77
        E 16 b0 0b 66
        E 16 b0 0b 5d
        E 16 b0 0b 4c
        E 16 b0 0b 44
        E 16 b0 0b 33
        E 16 b0 0b 2a
        E 16 b0 0b 19
        E 16 b0 0b 7f
        E 0 80 3c 00
        E 0 90 39 7f
        E 16 b0 0b 77
        E 16 b0 0b 66
        E 16 b0 0b 5d
        E 16 b0 0b 4c
        E 16 b0 0b 44
        E 16 b0 0b 33
        E 16 b0 0b 2a
        E 16 b0 0b 19
        E 16 b0 0b 7f
        E 0 80 39 00
        E 0 90 37 7f
        E 16 b0 0b 77
        E 16 b0 0b 66
        E 16 b0 0b 5d
        E 16 b0 0b 4c
        E 16 b0 0b 44
        E 16 b0 0b 33
        E 16 b0 0b 2a
        E 16 b0 0b 19
        E 16 b0 0b 7f
        E 0 80 37 00
        E 0 90 35 7f
        E 16 b0 0b 77
        E 16 b0 0b 66
        E 16 b0 0b 5d
        E 16 b0 0b 4c
        E 16 b0 0b 44
        E 16 b0 0b 33
        E 16 b0 0b 2a
        E 16 b0 0b 19
        E 16 b0 0b 7f
        E 0 80 35 00
        E 0 90 30 7f
        E 16 b0 0b 77
        E 16 b0 0b 66
        E 16 b0 0b 5d
        E 16 b0 0b 4c
        E 16 b0 0b 44
        E 16 b0 0b 33
        E 16 b0 0b 2a
        E 16 b0 0b 19
        E 16 b0 0b 7f
        E 0 80 30 00
        E 0 90 2d 7f
        E 16 b0 0b 77
        E 16 b0 0b 66
        E 16 b0 0b 5d
        E 16 b0 0b 4c
        E 16 b0 0b 44
        E 16 b0 0b 33
        E 16 b0 0b 2a
        E 16 b0 0b 19
        E 16 b0 0b 7f
        E 0 80 2d 00
        E 0 90 2b 7f
        E 16 b0 0b 77
        E 16 b0 0b 66
        E 16 b0 0b 5d
        E 16 b0 0b 4c
        E 16 b0 0b 44
        E 16 b0 0b 33
        E 16 b0 0b 2a
        E 16 b0 0b 19
        E 16 b0 0b 7f
        E 0 80 2b 00
        E 0 90 29 7f
        E 16 b0 0b 77
        E 16 b0 0b 66
        E 16 b0 0b 5d
        E 16 b0 0b 4c
        E 16 b0 0b 44
        E 16 b0 0b 33
        E 16 b0 0b 2a
        E 16 b0 0b 19
        E 16 b0 0b 7f
        E 0 80 29 00
        E 0 90 24 7f
        E 16 b0 0b 77
        E 16 b0 0b 66
        E 16 b0 0b 5d
        E 16 b0 0b 4c
        E 16 b0 0b 44
        E 16 b0 0b 33
        E 16 b0 0b 2a
        E 16 b0 0b 19
        E 16 b0 0b 7f
        E 0 80 24 00
        E 0 90 2a 7f
        E 16 b0 0b 77
        E 16 b0 0b 66
        E 16 b0 0b 5d
        E 16 b0 0b 4c
        E 16 b0 0b 44
        E 16 b0 0b 33
        E 16 b0 0b 2a
        E 16 b0 0b 19
        E 16 b0 0b 7f
        E 0 80 2a 00
        E 0 90 2e 7f
        E 16 b0 0b 77
        E 16 b0 0b 66
        E 16 b0 0b 5d
        E 16 b0 0b 4c
        E 16 b0 0b 44
        E 16 b0 0b 33
        E 16 b0 0b 2a
        E 16 b0 0b 19
        E 16 b0 0b 7f
        E 0 80 2e 00
        E 0 90 25 7f
        E 16 b0 0b 77
        E 16 b0 0b 66
        E 16 b0 0b 5d
        E 16 b0 0b 4c
        E 16 b0 0b 44
        E 16 b0 0b 33
        E 16 b0 0b 2a
        E 16 b0 0b 19
        E 16 b0 0b 7f
        E 0 80 25 00
        E 0 90 29 7f
        E 16 b0 0b 77
        E 16 b0 0b 66
        E 16 b0 0b 5d
        E 16 b0 0b 4c
        E 16 b0 0b 44
        E 16 b0 0b 33
        E 16 b0 0b 2a
        E 16 b0 0b 19
        E 16 b0 0b 7f
        E 0 80 29 00
        E 0 90 2a 7f
        E 16 b0 0b 77
        E 16 b0 0b 66
        E 16 b0 0b 5d
        E 16 b0 0b 4c
        E 16 b0 0b 44
        E 16 b0 0b 33
        E 16 b0 0b 2a
        E 16 b0 0b 19
        E 16 b0 0b 7f
        E 0 80 2a 00
        E 0 90 2e 7f
        E 16 b0 0b 77
        E 16 b0 0b 66
        E 16 b0 0b 5d
        E 16 b0 0b 4c
        E 16 b0 0b 44
        E 16 b0 0b 33
        E 16 b0 0b 2a
        E 16 b0 0b 19
        E 16 b0 0b 7f
        E 0 80 2e 00
        E 0 90 31 7f
        E 16 b0 0b 77
        E 16 b0 0b 66
        E 16 b0 0b 5d
        E 16 b0 0b 4c
        E 16 b0 0b 44
        E 16 b0 0b 33
        E 16 b0 0b 2a
        E 16 b0 0b 19
        E 16 b0 0b 7f
        E 0 80 31 00
        E 0 90 35 7f
        E 16 b0 0b 77
        E 16 b0 0b 66
        E 16 b0 0b 5d
        E 16 b0 0b 4c
        E 16 b0 0b 44
        E 16 b0 0b 33
        E 16 b0 0b 2a
        E 16 b0 0b 19
        E 16 b0 0b 7f
        E 0 80 35 00
        E 0 90 36 7f
        E 16 b0 0b 77
        E 16 b0 0b 66
        E 16 b0 0b 5d
        E 16 b0 0b 4c
        E 16 b0 0b 44
        E 16 b0 0b 33
        E 16 b0 0b 2a
        E 16 b0 0b 19
        E 16 b0 0b 7f
        E 0 80 36 00
        E 0 90 3a 7f
        E 16 b0 0b 77
        E 16 b0 0b 66
        E 16 b0 0b 5d
        E 16 b0 0b 4c
        E 16 b0 0b 44
        E 16 b0 0b 33
        E 16 b0 0b 2a
        E 16 b0 0b 19
        E 16 b0 0b 7f
        E 0 80 3a 00
        E 0 90 3d 7f
        E 16 b0 0b 77
        E 16 b0 0b 66
        E 16 b0 0b 5d
        E 16 b0 0b 4c
        E 16 b0 0b 44
        E 16 b0 0b 33
        E 16 b0 0b 2a
        E 16 b0 0b 19
        E 16 b0 0b 7f
        E 0 80 3d 00
        E 0 90 41 7f
        E 16 b0 0b 77
        E 16 b0 0b 66
        E 16 b0 0b 5d
        E 16 b0 0b 4c
        E 16 b0 0b 44
        E 16 b0 0b 33
        E 16 b0 0b 2a
        E 16 b0 0b 19
        E 16 b0 0b 7f
        E 0 80 41 00
        E 0 90 42 7f
        E 16 b0 0b 77
        E 16 b0 0b 66
        E 16 b0 0b 5d
        E 16 b0 0b 4c
        E 16 b0 0b 44
        E 16 b0 0b 33
        E 16 b0 0b 2a
        E 16 b0 0b 19
        E 16 b0 0b 7f
        E 0 80 42 00
        E 0 90 46 7f
        E 16 b0 0b 77
        E 16 b0 0b 66
        E 16 b0 0b 5d
        E 16 b0 0b 4c
        E 16 b0 0b 44
        E 16 b0 0b 33
        E 16 b0 0b 2a
        E 16 b0 0b 19
        E 16 b0 0b 7f
        E 0 80 46 00
        E 0 90 49 7f
        E 16 b0 0b 77
        E 16 b0 0b 66
        E 16 b0 0b 5d
        E 16 b0 0b 4c
        E 16 b0 0b 44
        E 16 b0 0b 33
        E 16 b0 0b 2a
        E 16 b0 0b 19
        E 16 b0 0b 7f
        E 0 80 49 00
        E 0 90 4d 7f
        E 16 b0 0b 77
        E 16 b0 0b 66
        E 16 b0 0b 5d
        E 16 b0 0b 4c
        E 16 b0 0b 44
        E 16 b0 0b 33
        E 16 b0 0b 2a
        E 16 b0 0b 19
        E 16 b0 0b 7f
        E 0 80 4d 00
        E 0 90 4e 7f
        E 16 b0 0b 77
        E 16 b0 0b 66
        E 16 b0 0b 5d
        E 16 b0 0b 4c
        E 16 b0 0b 44
        E 16 b0 0b 33
        E 16 b0 0b 2a
        E 16 b0 0b 19
        E 16 b0 0b 7f
        E 0 80 4e 00
        E 0 90 4d 7f
        E 16 b0 0b 77
        E 16 b0 0b 66
        E 16 b0 0b 5d
        E 16 b0 0b 4c
        E 16 b0 0b 44
        E 16 b0 0b 33
        E 16 b0 0b 2a
        E 16 b0 0b 19
        E 16 b0 0b 7f
        E 0 80 4d 00
        E 0 90 49 7f
        E 16 b0 0b 77
        E 16 b0 0b 66
        E 16 b0 0b 5d
        E 16 b0 0b 4c
        E 16 b0 0b 44
        E 16 b0 0b 33
        E 16 b0 0b 2a
        E 16 b0 0b 19
        E 16 b0 0b 7f
        E 0 80 49 00
        E 0 90 46 7f
        E 16 b0 0b 77
        E 16 b0 0b 66
        E 16 b0 0b 5d
        E 16 b0 0b 4c
        E 16 b0 0b 44
        E 16 b0 0b 33
        E 16 b0 0b 2a
        E 16 b0 0b 19
        E 16 b0 0b 7f
        E 0 80 46 00
        E 0 90 42 7f
        E 16 b0 0b 77
        E 16 b0 0b 66
        E 16 b0 0b 5d
        E 16 b0 0b 4c
        E 16 b0 0b 44
        E 16 b0 0b 33
        E 16 b0 0b 2a
        E 16 b0 0b 19
        E 16 b0 0b 7f
        E 0 80 42 00
        E 0 90 41 7f
        E 16 b0 0b 77
        E 16 b0 0b 66
        E 16 b0 0b 5d
        E 16 b0 0b 4c
        E 16 b0 0b 44
        E 16 b0 0b 33
        E 16 b0 0b 2a
        E 16 b0 0b 19
        E 16 b0 0b 7f
        E 0 80 41 00
        E 0 90 3d 7f
        E 16 b0 0b 77
        E 16 b0 0b 66
        E 16 b0 0b 5d
        E 16 b0 0b 4c
        E 16 b0 0b 44
        E 16 b0 0b 33
        E 16 b0 0b 2a
        E 16 b0 0b 19
        E 16 b0 0b 7f
        E 0 80 3d 00
        E 0 90 3a 7f
        E 16 b0 0b 77
        E 16 b0 0b 66
        E 16 b0 0b 5d
        E 16 b0 0b 4c
        E 16 b0 0b 44
        E 16 b0 0b 33
        E 16 b0 0b 2a
        E 16 b0 0b 19
        E 16 b0 0b 7f
        E 0 80 3a 00
        E 0 90 36 7f
        E 16 b0 0b 77
        E 16 b0 0b 66
        E 16 b0 0b 5d
        E 16 b0 0b 4c
        E 16 b0 0b 44
        E 16 b0 0b 33
        E 16 b0 0b 2a
        E 16 b0 0b 19
        E 16 b0 0b 7f
        E 0 80 36 00
        E 0 90 35 7f
        E 16 b0 0b 77
        E 16 b0 0b 66
        E 16 b0 0b 5d
        E 16 b0 0b 4c
        E 16 b0 0b 44
        E 16 b0 0b 33
        E 16 b0 0b 2a
        E 16 b0 0b 19
        E 16 b0 0b 7f
        E 0 80 35 00
        E 0 90 31 7f
        E 16 b0 0b 77
        E 16 b0 0b 66
        E 16 b0 0b 5d
        E 16 b0 0b 4c
        E 16 b0 0b 44
        E 16 b0 0b 33
        E 16 b0 0b 2a
        E 16 b0 0b 19
        E 16 b0 0b 7f
        E 0 80 31 00
        E 0 90 2e 7f
        E 16 b0 0b 77
        E 16 b0 0b 66
        E 16 b0 0b 5d
        E 16 b0 0b 4c
        E 16 b0 0b 44
        E 16 b0 0b 33
        E 16 b0 0b 2a
        E 16 b0 0b 19
        E 16 b0 0b 7f
        E 0 80 2e 00
        E 0 90 2a 7f
        E 16 b0 0b 77
        E 16 b0 0b 66
        E 16 b0 0b 5d
        E 16 b0 0b 4c
        E 16 b0 0b 44
        E 16 b0 0b 33
        E 16 b0 0b 2a
        E 16 b0 0b 19
        E 16 b0 0b 7f
        E 0 80 2a 00
        E 0 90 29 7f
        E 16 b0 0b 77
        E 16 b0 0b 66
        E 16 b0 0b 5d
        E 16 b0 0b 4c
        E 16 b0 0b 44
        E 16 b0 0b 33
        E 16 b0 0b 2a
        E 16 b0 0b 19
        E 16 b0 0b 7f
        E 0 80 29 00
        E 0 90 25 7f
        E 16 b0 0b 77
        E 16 b0 0b 66
        E 16 b0 0b 5d
        E 16 b0 0b 4c
        E 16 b0 0b 44
        E 16 b0 0b 33
        E 16 b0 0b 2a
        E 16 b0 0b 19
        E 16 b0 0b 7f
        E 0 80 25 00
        E 0 90 2e 7f
        E 16 b0 0b 77
        E 16 b0 0b 66
        E 16 b0 0b 5d
        E 16 b0 0b 4c
        E 16 b0 0b 44
        E 16 b0 0b 33
        E 16 b0 0b 2a
        E 16 b0 0b 19
        E 16 b0 0b 7f
        E 0 80 2e 00
        E 0 90 2c 7f
        E 16 b0 0b 77
        E 16 b0 0b 66
        E 16 b0 0b 5d
        E 16 b0 0b 4c
        E 16 b0 0b 44
        E 16 b0 0b 33
        E 16 b0 0b 2a
        E 16 b0 0b 19
        E 16 b0 0b 7f
        E 0 80 2c 00
        E 0 90 24 7f
        E 16 b0 0b 77
        E 16 b0 0b 66
        E 16 b0 0b 5d
        E 16 b0 0b 4c
        E 16 b0 0b 44
        E 16 b0 0b 33
        E 16 b0 0b 2a
        E 16 b0 0b 19
        E 16 b0 0b 7f
        E 0 80 24 00
        E 0 90 27 7f
        E 16 b0 0b 77
        E 16 b0 0b 66
        E 16 b0 0b 5d
        E 16 b0 0b 4c
        E 16 b0 0b 44
        E 16 b0 0b 33
        E 16 b0 0b 2a
        E 16 b0 0b 19
        E 16 b0 0b 7f
        E 0 80 27 00
        E 0 90 2b 7f
        E 16 b0 0b 77
        E 16 b0 0b 66
        E 16 b0 0b 5d
        E 16 b0 0b 4c
        E 16 b0 0b 44
        E 16 b0 0b 33
        E 16 b0 0b 2a
        E 16 b0 0b 19
        E 16 b0 0b 7f
        E 0 80 2b 00
        E 0 90 2c 7f
        E 16 b0 0b 77
        E 16 b0 0b 66
        E 16 b0 0b 5d
        E 16 b0 0b 4c
        E 16 b0 0b 44
        E 16 b0 0b 33
        E 16 b0 0b 2a
        E 16 b0 0b 19
        E 16 b0 0b 7f
        E 0 80 2c 00
        E 0 90 30 7f
        E 16 b0 0b 77
        E 16 b0 0b 66
        E 16 b0 0b 5d
        E 16 b0 0b 4c
        E 16 b0 0b 44
        E 16 b0 0b 33
        E 16 b0 0b 2a
        E 16 b0 0b 19
        E 16 b0 0b 7f
        E 0 80 30 00
        E 0 90 33 7f
        E 16 b0 0b 77
        E 16 b0 0b 66
        E 16 b0 0b 5d
        E 16 b0 0b 4c
        E 16 b0 0b 44
        E 16 b0 0b 33
        E 16 b0 0b 2a
        E 16 b0 0b 19
        E 16 b0 0b 7f
        E 0 80 33 00
        E 0 90 37 7f
        E 16 b0 0b 77
        E 16 b0 0b 66
        E 16 b0 0b 5d
        E 16 b0 0b 4c
        E 16 b0 0b 44
        E 16 b0 0b 33
        E 16 b0 0b 2a
        E 16 b0 0b 19
        E 16 b0 0b 7f
        E 0 80 37 00
        E 0 90 38 7f
        E 16 b0 0b 77
        E 16 b0 0b 66
        E 16 b0 0b 5d
        E 16 b0 0b 4c
        E 16 b0 0b 44
        E 16 b0 0b 33
        E 16 b0 0b 2a
        E 16 b0 0b 19
        E 16 b0 0b 7f
        E 0 80 38 00
        E 0 90 3c 7f
        E 16 b0 0b 77
        E 16 b0 0b 66
        E 16 b0 0b 5d
        E 16 b0 0b 4c
        E 16 b0 0b 44
        E 16 b0 0b 33
        E 16 b0 0b 2a
        E 16 b0 0b 19
        E 16 b0 0b 7f
        E 0 80 3c 00
        E 0 90 3f 7f
        E 16 b0 0b 77
        E 16 b0 0b 66
        E 16 b0 0b 5d
        E 16 b0 0b 4c
        E 16 b0 0b 44
        E 16 b0 0b 33
        E 16 b0 0b 2a
        E 16 b0 0b 19
        E 16 b0 0b 7f
        E 0 80 3f 00
        E 0 90 43 7f
        E 16 b0 0b 77
        E 16 b0 0b 66
        E 16 b0 0b 5d
        E 16 b0 0b 4c
        E 16 b0 0b 44
        E 16 b0 0b 33
        E 16 b0 0b 2a
        E 16 b0 0b 19
        E 16 b0 0b 7f
        E 0 80 43 00
        E 0 90 44 7f
        E 16 b0 0b 77
        E 16 b0 0b 66
        E 16 b0 0b 5d
        E 16 b0 0b 4c
        E 16 b0 0b 44
        E 16 b0 0b 33
        E 16 b0 0b 2a
        E 16 b0 0b 19
        E 16 b0 0b 7f
        E 0 80 44 00
        E 0 90 48 7f
        E 16 b0 0b 77
        E 16 b0 0b 66
        E 16 b0 0b 5d
        E 16 b0 0b 4c
        E 16 b0 0b 44
        E 16 b0 0b 33
        E 16 b0 0b 2a
        E 16 b0 0b 19
        E 16 b0 0b 7f
        E 0 80 48 00
        E 0 90 4b 7f
        E 16 b0 0b 77
        E 16 b0 0b 66
        E 16 b0 0b 5d
        E 16 b0 0b 4c
        E 16 b0 0b 44
        E 16 b0 0b 33
        E 16 b0 0b 2a
        E 16 b0 0b 19
        E 16 b0 0b 7f
        E 0 80 4b 00
        E 0 90 4f 7f
        E 16 b0 0b 77
        E 16 b0 0b 66
        E 16 b0 0b 5d
        E 16 b0 0b 4c
        E 16 b0 0b 44
        E 16 b0 0b 33
        E 16 b0 0b 2a
        E 16 b0 0b 19
        E 16 b0 0b 7f
        E 0 80 4f 00
        E 0 90 50 7f
        E 16 b0 0b 77
        E 16 b0 0b 66
        E 16 b0 0b 5d
        E 16 b0 0b 4c
        E 16 b0 0b 44
        E 16 b0 0b 33
        E 16 b0 0b 2a
        E 16 b0 0b 19
        E 16 b0 0b 7f
        E 0 80 50 00
        E 0 90 4f 7f
        E 16 b0 0b 77
        E 16 b0 0b 66
        E 16 b0 0b 5d
        E 16 b0 0b 4c
        E 16 b0 0b 44
        E 16 b0 0b 33
        E 16 b0 0b 2a
        E 16 b0 0b 19
        E 16 b0 0b 7f
        E 0 80 4f 00
        E 0 90 4b 7f
        E 16 b0 0b 77
        E 16 b0 0b 66
        E 16 b0 0b 5d
        E 16 b0 0b 4c
        E 16 b0 0b 44
        E 16 b0 0b 33
        E 16 b0 0b 2a
        E 16 b0 0b 19
        E 16 b0 0b 7f
        E 0 80 4b 00
        E 0 90 48 7f
        E 16 b0 0b 77
        E 16 b0 0b 66
        E 16 b0 0b 5d
        E 16 b0 0b 4c
        E 16 b0 0b 44
        E 16 b0 0b 33
        E 16 b0 0b 2a
        E 16 b0 0b 19
        E 16 b0 0b 7f
        E 0 80 48 00
        E 0 90 44 7f
        E 16 b0 0b 77
        E 16 b0 0b 66
        E 16 b0 0b 5d
        E 16 b0 0b 4c
        E 16 b0 0b 44
        E 16 b0 0b 33
        E 16 b0 0b 2a
        E 16 b0 0b 19
        E 16 b0 0b 7f
        E 0 80 44 00
        E 0 90 43 7f
        E 16 b0 0b 77
        E 16 b0 0b 66
        E 16 b0 0b 5d
        E 16 b0 0b 4c
        E 16 b0 0b 44
        E 16 b0 0b 33
        E 16 b0 0b 2a
        E 16 b0 0b 19
        E 16 b0 0b 7f
        E 0 80 43 00
        E 0 90 3f 7f
        E 16 b0 0b 77
        E 16 b0 0b 66
        E 16 b0 0b 5d
        E 16 b0 0b 4c
        E 16 b0 0b 44
        E 16 b0 0b 33
        E 16 b0 0b 2a
        E 16 b0 0b 19
        E 16 b0 0b 7f
        E 0 80 3f 00
        E 0 90 3c 7f
        E 16 b0 0b 77
        E 16 b0 0b 66
        E 16 b0 0b 5d
        E 16 b0 0b 4c
        E 16 b0 0b 44
        E 16 b0 0b 33
        E 16 b0 0b 2a
        E 16 b0 0b 19
        E 16 b0 0b 7f
        E 0 80 3c 00
        E 0 90 38 7f
        E 16 b0 0b 77
        E 16 b0 0b 66
        E 16 b0 0b 5d
        E 16 b0 0b 4c
        E 16 b0 0b 44
        E 16 b0 0b 33
        E 16 b0 0b 2a
        E 16 b0 0b 19
        E 16 b0 0b 7f
        E 0 80 38 00
        E 0 90 37 7f
        E 16 b0 0b 77
        E 16 b0 0b 66
        E 16 b0 0b 5d
        E 16 b0 0b 4c
        E 16 b0 0b 44
        E 16 b0 0b 33
        E 16 b0 0b 2a
        E 16 b0 0b 19
        E 16 b0 0b 7f
        E 0 80 37 00
        E 0 90 33 7f
        E 16 b0 0b 77
        E 16 b0 0b 66
        E 16 b0 0b 5d
        E 16 b0 0b 4c
        E 16 b0 0b 44
        E 16 b0 0b 33
        E 16 b0 0b 2a
        E 16 b0 0b 19
        E 16 b0 0b 7f
        E 0 80 33 00
        E 0 90 30 7f
        E 16 b0 0b 77
        E 16 b0 0b 66
        E 16 b0 0b 5d
        E 16 b0 0b 4c
        E 16 b0 0b 44
        E 16 b0 0b 33
        E 16 b0 0b 2a
        E 16 b0 0b 19
        E 16 b0 0b 7f
        E 0 80 30 00
        E 0 90 2c 7f
        E 16 b0 0b 77
        E 16 b0 0b 66
        E 16 b0 0b 5d
        E 16 b0 0b 4c
        E 16 b0 0b 44
        E 16 b0 0b 33
        E 16 b0 0b 2a
        E 16 b0 0b 19
        E 16 b0 0b 7f
        E 0 80 2c 00
        E 0 90 2b 7f
        E 16 b0 0b 77
        E 16 b0 0b 66
        E 16 b0 0b 5d
        E 16 b0 0b 4c
        E 16 b0 0b 44
        E 16 b0 0b 33
        E 16 b0 0b 2a
        E 16 b0 0b 19
        E 16 b0 0b 7f
        E 0 80 2b 00
        E 0 90 27 7f
        E 16 b0 0b 77
        E 16 b0 0b 66
        E 16 b0 0b 5d
        E 16 b0 0b 4c
        E 16 b0 0b 44
        E 16 b0 0b 33
        E 16 b0 0b 2a
        E 16 b0 0b 19
        E 16 b0 0b 7f
        E 0 80 27 00
        E 0 90 24 7f
        E 16 b0 0b 77
        E 16 b0 0b 66
        E 16 b0 0b 5d
        E 16 b0 0b 4c
        E 16 b0 0b 44
        E 16 b0 0b 33
        E 16 b0 0b 2a
        E 16 b0 0b 19
        E 16 b0 0b 7f
        E 0 80 24 00
        E 0 90 2e 7f
        E 16 b0 0b 77
        E 16 b0 0b 66
        E 16 b0 0b 5d
        E 16 b0 0b 4c
        E 16 b0 0b 44
        E 16 b0 0b 33
        E 16 b0 0b 2a
        E 16 b0 0b 19
        E 16 b0 0b 7f
        E 0 80 2e 00
        E 0 90 24 7f
        E 16 b0 0b 77
        E 16 b0 0b 66
        E 16 b0 0b 5d
        E 16 b0 0b 4c
        E 16 b0 0b 44
        E 16 b0 0b 33
        E 16 b0 0b 2a
        E 16 b0 0b 19
        E 16 b0 0b 7f
        E 0 80 24 00
        E 0 90 26 7f
        E 16 b0 0b 77
        E 16 b0 0b 66
        E 16 b0 0b 5d
        E 16 b0 0b 4c
        E 16 b0 0b 44
        E 16 b0 0b 33
        E 16 b0 0b 2a
        E 16 b0 0b 19
        E 16 b0 0b 7f
        E 0 80 26 00
        E 0 90 29 7f
        E 16 b0 0b 77
        E 16 b0 0b 66
        E 16 b0 0b 5d
        E 16 b0 0b 4c
        E 16 b0 0b 44
        E 16 b0 0b 33
        E 16 b0 0b 2a
        E 16 b0 0b 19
        E 16 b0 0b 7f
        E 0 80 29 00
        E 0 90 2e 7f
        E 16 b0 0b 77
        E 16 b0 0b 66
        E 16 b0 0b 5d
        E 16 b0 0b 4c
        E 16 b0 0b 44
        E 16 b0 0b 33
        E 16 b0 0b 2a
        E 16 b0 0b 19
        E 16 b0 0b 7f
        E 0 80 2e 00
        E 0 90 30 7f
        E 16 b0 0b 77
        E 16 b0 0b 66
        E 16 b0 0b 5d
        E 16 b0 0b 4c
        E 16 b0 0b 44
        E 16 b0 0b 33
        E 16 b0 0b 2a
        E 16 b0 0b 19
        E 16 b0 0b 7f
        E 0 80 30 00
        E 0 90 32 7f
        E 16 b0 0b 77
        E 16 b0 0b 66
        E 16 b0 0b 5d
        E 16 b0 0b 4c
        E 16 b0 0b 44
        E 16 b0 0b 33
        E 16 b0 0b 2a
        E 16 b0 0b 19
        E 16 b0 0b 7f
        E 0 80 32 00
        E 0 90 35 7f
        E 16 b0 0b 77
        E 16 b0 0b 66
        E 16 b0 0b 5d
        E 16 b0 0b 4c
        E 16 b0 0b 44
        E 16 b0 0b 33
        E 16 b0 0b 2a
        E 16 b0 0b 19
        E 16 b0 0b 7f
        E 0 80 35 00
        E 0 90 3a 7f
        E 16 b0 0b 77
        E 16 b0 0b 66
        E 16 b0 0b 5d
        E 16 b0 0b 4c
        E 16 b0 0b 44
        E 16 b0 0b 33
        E 16 b0 0b 2a
        E 16 b0 0b 19
        E 16 b0 0b 7f
        E 0 80 3a 00
        E 0 90 3c 7f
        E 16 b0 0b 77
        E 16 b0 0b 66
        E 16 b0 0b 5d
        E 16 b0 0b 4c
        E 16 b0 0b 44
        E 16 b0 0b 33
        E 16 b0 0b 2a
        E 16 b0 0b 19
        E 16 b0 0b 7f
        E 0 80 3c 00
        E 0 90 3e 7f
        E 16 b0 0b 77
        E 16 b0 0b 66
        E 16 b0 0b 5d
        E 16 b0 0b 4c
        E 16 b0 0b 44
        E 16 b0 0b 33
        E 16 b0 0b 2a
        E 16 b0 0b 19
        E 16 b0 0b 7f
        E 0 80 3e 00
        E 0 90 41 7f
        E 16 b0 0b 77
        E 16 b0 0b 66
        E 16 b0 0b 5d
        E 16 b0 0b 4c
        E 16 b0 0b 44
        E 16 b0 0b 33
        E 16 b0 0b 2a
        E 16 b0 0b 19
        E 16 b0 0b 7f
        E 0 80 41 00
        E 0 90 46 7f
        E 16 b0 0b 77
        E 16 b0 0b 66
        E 16 b0 0b 5d
        E 16 b0 0b 4c
        E 16 b0 0b 44
        E 16 b0 0b 33
        E 16 b0 0b 2a
        E 16 b0 0b 19
        E 16 b0 0b 7f
        E 0 80 46 00
        E 0 90 48 7f
        E 16 b0 0b 77
        E 16 b0 0b 66
        E 16 b0 0b 5d
        E 16 b0 0b 4c
        E 16 b0 0b 44
        E 16 b0 0b 33
        E 16 b0 0b 2a
        E 16 b0 0b 19
        E 16 b0 0b 7f
        E 0 80 48 00
        E 0 90 4a 7f
        E 16 b0 0b 77
        E 16 b0 0b 66
        E 16 b0 0b 5d
        E 16 b0 0b 4c
        E 16 b0 0b 44
        E 16 b0 0b 33
        E 16 b0 0b 2a
        E 16 b0 0b 19
        E 16 b0 0b 7f
        E 0 80 4a 00
        E 0 90 4d 7f
        E 16 b0 0b 77
        E 16 b0 0b 66
        E 16 b0 0b 5d
        E 16 b0 0b 4c
        E 16 b0 0b 44
        E 16 b0 0b 33
        E 16 b0 0b 2a
        E 16 b0 0b 19
        E 16 b0 0b 7f
        E 0 80 4d 00
        E 0 90 52 7f
        E 16 b0 0b 77
        E 16 b0 0b 66
        E 16 b0 0b 5d
        E 16 b0 0b 4c
        E 16 b0 0b 44
        E 16 b0 0b 33
        E 16 b0 0b 2a
        E 16 b0 0b 19
        E 16 b0 0b 7f
        E 0 80 52 00
        E 0 90 4d 7f
        E 16 b0 0b 77
        E 16 b0 0b 66
        E 16 b0 0b 5d
        E 16 b0 0b 4c
        E 16 b0 0b 44
        E 16 b0 0b 33
        E 16 b0 0b 2a
        E 16 b0 0b 19
        E 16 b0 0b 7f
        E 0 80 4d 00
        E 0 90 4a 7f
        E 16 b0 0b 77
        E 16 b0 0b 66
        E 16 b0 0b 5d
        E 16 b0 0b 4c
        E 16 b0 0b 44
        E 16 b0 0b 33
        E 16 b0 0b 2a
        E 16 b0 0b 19
        E 16 b0 0b 7f
        E 0 80 4a 00
        E 0 90 48 7f
        E 16 b0 0b 77
        E 16 b0 0b 66
        E 16 b0 0b 5d
        E 16 b0 0b 4c
        E 16 b0 0b 44
        E 16 b0 0b 33
        E 16 b0 0b 2a
        E 16 b0 0b 19
        E 16 b0 0b 7f
        E 0 80 48 00
        E 0 90 46 7f
        E 16 b0 0b 77
        E 16 b0 0b 66
        E 16 b0 0b 5d
        E 16 b0 0b 4c
        E 16 b0 0b 44
        E 16 b0 0b 33
        E 16 b0 0b 2a
        E 16 b0 0b 19
        E 16 b0 0b 7f
        E 0 80 46 00
        E 0 90 41 7f
        E 16 b0 0b 77
        E 16 b0 0b 66
        E 16 b0 0b 5d
        E 16 b0 0b 4c
        E 16 b0 0b 44
        E 16 b0 0b 33
        E 16 b0 0b 2a
        E 16 b0 0b 19
        E 16 b0 0b 7f
        E 0 80 41 00
        E 0 90 3e 7f
        E 16 b0 0b 77
        E 16 b0 0b 66
        E 16 b0 0b 5d
        E 16 b0 0b 4c
        E 16 b0 0b 44
        E 16 b0 0b 33
        E 16 b0 0b 2a
        E 16 b0 0b 19
        E 16 b0 0b 7f
        E 0 80 3e 00
        E 0 90 3c 7f
        E 16 b0 0b 77
        E 16 b0 0b 66
        E 16 b0 0b 5d
        E 16 b0 0b 4c
        E 16 b0 0b 44
        E 16 b0 0b 33
        E 16 b0 0b 2a
        E 16 b0 0b 19
        E 16 b0 0b 7f
        E 0 80 3c 00
        E 0 90 3a 7f
        E 16 b0 0b 77
        E 16 b0 0b 66
        E 16 b0 0b 5d
        E 16 b0 0b 4c
        E 16 b0 0b 44
        E 16 b0 0b 33
        E 16 b0 0b 2a
        E 16 b0 0b 19
        E 16 b0 0b 7f
        E 0 80 3a 00
        E 0 90 35 7f
        E 16 b0 0b 77
        E 16 b0 0b 66
        E 16 b0 0b 5d
        E 16 b0 0b 4c
        E 16 b0 0b 44
        E 16 b0 0b 33
        E 16 b0 0b 2a
        E 16 b0 0b 19
        E 16 b0 0b 7f
        E 0 80 35 00
        E 0 90 32 7f
        E 16 b0 0b 77
        E 16 b0 0b 66
        E 16 b0 0b 5d
        E 16 b0 0b 4c
        E 16 b0 0b 44
        E 16 b0 0b 33
        E 16 b0 0b 2a
        E 16 b0 0b 19
        E 16 b0 0b 7f
        E 0 80 32 00
        E 0 90 30 7f
        E 16 b0 0b 77
        E 16 b0 0b 66
        E 16 b0 0b 5d
        E 16 b0 0b 4c
        E 16 b0 0b 44
        E 16 b0 0b 33
        E 16 b0 0b 2a
        E 16 b0 0b 19
        E 16 b0 0b 7f
        E 0 80 30 00
        E 0 90 2e 7f
        E 16 b0 0b 77
        E 16 b0 0b 66
        E 16 b0 0b 5d
        E 16 b0 0b 4c
        E 16 b0 0b 44
        E 16 b0 0b 33
        E 16 b0 0b 2a
        E 16 b0 0b 19
        E 16 b0 0b 7f
        E 0 80 2e 00
        E 0 90 29 7f
        E 16 b0 0b 77
        E 16 b0 0b 66
        E 16 b0 0b 5d
        E 16 b0 0b 4c
        E 16 b0 0b 44
        E 16 b0 0b 33
        E 16 b0 0b 2a
        E 16 b0 0b 19
        E 16 b0 0b 7f
        E 0 80 29 00
        E 0 90 26 7f
        E 16 b0 0b 77
        E 16 b0 0b 66
        E 16 b0 0b 5d
        E 16 b0 0b 4c
        E 16 b0 0b 44
        E 16 b0 0b 33
        E 16 b0 0b 2a
        E 16 b0 0b 19
        E 16 b0 0b 7f
        E 0 80 26 00
        E 0 90 24 7f
        E 16 b0 0b 77
        E 16 b0 0b 66
        E 16 b0 0b 5d
        E 16 b0 0b 4c
        E 16 b0 0b 44
        E 16 b0 0b 33
        E 16 b0 0b 2a
        E 16 b0 0b 19
        E 16 b0 0b 7f
        E 0 80 24 00
        E 0 90 2b 7f
        E 16 b0 0b 77
        E 16 b0 0b 66
        E 16 b0 0b 5d
        E 16 b0 0b 4c
        E 16 b0 0b 44
        E 16 b0 0b 33
        E 16 b0 0b 2a
        E 16 b0 0b 19
        E 16 b0 0b 7f
        E 0 80 2b 00
        E 0 90 2d 7f
        E 16 b0 0b 77
        E 16 b0 0b 66
        E 16 b0 0b 5d
        E 16 b0 0b 4c
        E 16 b0 0b 44
        E 16 b0 0b 33
        E 16 b0 0b 2a
        E 16 b0 0b 19
        E 16 b0 0b 7f
        E 0 80 2d 00
        E 0 90 2e 7f
        E 16 b0 0b 77
        E 16 b0 0b 66
        E 16 b0 0b 5d
        E 16 b0 0b 4c
        E 16 b0 0b 44
        E 16 b0 0b 33
        E 16 b0 0b 2a
        E 16 b0 0b 19
        E 16 b0 0b 7f
        E 0 80 2e 00
        E 0 90 26 7f
        E 16 b0 0b 77
        E 16 b0 0b 66
        E 16 b0 0b 5d
        E 16 b0 0b 4c
        E 16 b0 0b 44
        E 16 b0 0b 33
        E 16 b0 0b 2a
        E 16 b0 0b 19
        E 16 b0 0b 7f
        E 0 80 26 00
        E 0 90 2b 7f
        E 16 b0 0b 77
        E 16 b0 0b 66
        E 16 b0 0b 5d
        E 16 b0 0b 4c
        E 16 b0 0b 44
        E 16 b0 0b 33
        E 16 b0 0b 2a
        E 16 b0 0b 19
        E 16 b0 0b 7f
        E 0 80 2b 00
        E 0 90 2d 7f
        E 16 b0 0b 77
        E 16 b0 0b 66
        E 16 b0 0b 5d
        E 16 b0 0b 4c
        E 16 b0 0b 44
        E 16 b0 0b 33
        E 16 b0 0b 2a
        E 16 b0 0b 19
        E 16 b0 0b 7f
        E 0 80 2d 00
        E 0 90 2e 7f
        E 16 b0 0b 77
        E 16 b0 0b 66
        E 16 b0 0b 5d
        E 16 b0 0b 4c
        E 16 b0 0b 44
        E 16 b0 0b 33
        E 16 b0 0b 2a
        E 16 b0 0b 19
        E 16 b0 0b 7f
        E 0 80 2e 00
        E 0 90 32 7f
        E 16 b0 0b 77
        E 16 b0 0b 66
        E 16 b0 0b 5d
        E 16 b0 0b 4c
        E 16 b0 0b 44
        E 16 b0 0b 33
        E 16 b0 0b 2a
        E 16 b0 0b 19
        E 16 b0 0b 7f
        E 0 80 32 00
        E 0 90 37 7f
        E 16 b0 0b 77
        E 16 b0 0b 66
        E 16 b0 0b 5d
        E 16 b0 0b 4c
        E 16 b0 0b 44
        E 16 b0 0b 33
        E 16 b0 0b 2a
        E 16 b0 0b 19
        E 16 b0 0b 7f
        E 0 80 37 00
        E 0 90 39 7f
        E 16 b0 0b 77
        E 16 b0 0b 66
        E 16 b0 0b 5d
        E 16 b0 0b 4c
        E 16 b0 0b 44
        E 16 b0 0b 33
        E 16 b0 0b 2a
        E 16 b0 0b 19
        E 16 b0 0b 7f
        E 0 80 39 00
        E 0 90 3a 7f
        E 16 b0 0b 77
        E 16 b0 0b 66
        E 16 b0 0b 5d
        E 16 b0 0b 4c
        E 16 b0 0b 44
        E 16 b0 0b 33
        E 16 b0 0b 2a
        E 16 b0 0b 19
        E 16 b0 0b 7f
        E 0 80 3a 00
        E 0 90 3e 7f
        E 16 b0 0b 77
        E 16 b0 0b 66
        E 16 b0 0b 5d
        E 16 b0 0b 4c
        E 16 b0 0b 44
        E 16 b0 0b 33
        E 16 b0 0b 2a
        E 16 b0 0b 19
        E 16 b0 0b 7f
        E 0 80 3e 00
        E 0 90 43 7f
        E 16 b0 0b 77
        E 16 b0 0b 66
        E 16 b0 0b 5d
        E 16 b0 0b 4c
        E 16 b0 0b 44
        E 16 b0 0b 33
        E 16 b0 0b 2a
        E 16 b0 0b 19
        E 16 b0 0b 7f
        E 0 80 43 00
        E 0 90 45 7f
        E 16 b0 0b 77
        E 16 b0 0b 66
        E 16 b0 0b 5d
        E 16 b0 0b 4c
        E 16 b0 0b 44
        E 16 b0 0b 33
        E 16 b0 0b 2a
        E 16 b0 0b 19
        E 16 b0 0b 7f
        E 0 80 45 00
        E 0 90 46 7f
        E 16 b0 0b 77
        E 16 b0 0b 66
        E 16 b0 0b 5d
        E 16 b0 0b 4c
        E 16 b0 0b 44
        E 16 b0 0b 33
        E 16 b0 0b 2a
        E 16 b0 0b 19
        E 16 b0 0b 7f
        E 0 80 46 00
        E 0 90 4a 7f
        E 16 b0 0b 77
        E 16 b0 0b 66
        E 16 b0 0b 5d
        E 16 b0 0b 4c
        E 16 b0 0b 44
        E 16 b0 0b 33
        E 16 b0 0b 2a
        E 16 b0 0b 19
        E 16 b0 0b 7f
        E 0 80 4a 00
        E 0 90 4f 7f
        E 16 b0 0b 77
        E 16 b0 0b 66
        E 16 b0 0b 5d
        E 16 b0 0b 4c
        E 16 b0 0b 44
        E 16 b0 0b 33
        E 16 b0 0b 2a
        E 16 b0 0b 19
        E 16 b0 0b 7f
        E 0 80 4f 00
        E 0 90 4a 7f
        E 16 b0 0b 77
        E 16 b0 0b 66
        E 16 b0 0b 5d
        E 16 b0 0b 4c
        E 16 b0 0b 44
        E 16 b0 0b 33
        E 16 b0 0b 2a
        E 16 b0 0b 19
        E 16 b0 0b 7f
        E 0 80 4a 00
        E 0 90 46 7f
        E 16 b0 0b 77
        E 16 b0 0b 66
        E 16 b0 0b 5d
        E 16 b0 0b 4c
        E 16 b0 0b 44
        E 16 b0 0b 33
        E 16 b0 0b 2a
        E 16 b0 0b 19
        E 16 b0 0b 7f
        E 0 80 46 00
        E 0 90 45 7f
        E 16 b0 0b 77
        E 16 b0 0b 66
        E 16 b0 0b 5d
        E 16 b0 0b 4c
        E 16 b0 0b 44
        E 16 b0 0b 33
        E 16 b0 0b 2a
        E 16 b0 0b 19
        E 16 b0 0b 7f
        E 0 80 45 00
        E 0 90 43 7f
        E 16 b0 0b 77
        E 16 b0 0b 66
        E 16 b0 0b 5d
        E 16 b0 0b 4c
        E 16 b0 0b 44
        E 16 b0 0b 33
        E 16 b0 0b 2a
        E 16 b0 0b 19
        E 16 b0 0b 7f
        E 0 80 43 00
        E 0 90 3e 7f
        E 16 b0 0b 77
        E 16 b0 0b 66
        E 16 b0 0b 5d
        E 16 b0 0b 4c
        E 16 b0 0b 44
        E 16 b0 0b 33
        E 16 b0 0b 2a
        E 16 b0 0b 19
        E 16 b0 0b 7f
        E 0 80 3e 00
        E 0 90 3a 7f
        E 16 b0 0b 77
        E 16 b0 0b 66
        E 16 b0 0b 5d
        E 16 b0 0b 4c
        E 16 b0 0b 44
        E 16 b0 0b 33
        E 16 b0 0b 2a
        E 16 b0 0b 19
        E 16 b0 0b 7f
        E 0 80 3a 00
        E 0 90 39 7f
        E 16 b0 0b 77
        E 16 b0 0b 66
        E 16 b0 0b 5d
        E 16 b0 0b 4c
        E 16 b0 0b 44
        E 16 b0 0b 33
        E 16 b0 0b 2a
        E 16 b0 0b 19
        E 16 b0 0b 7f
        E 0 80 39 00
        E 0 90 37 7f
        E 16 b0 0b 77
        E 16 b0 0b 66
        E 16 b0 0b 5d
        E 16 b0 0b 4c
        E 16 b0 0b 44
        E 16 b0 0b 33
        E 16 b0 0b 2a
        E 16 b0 0b 19
        E 16 b0 0b 7f
        E 0 80 37 00
        E 0 90 32 7f
        E 16 b0 0b 77
        E 16 b0 0b 66
        E 16 b0 0b 5d
        E 16 b0 0b 4c
        E 16 b0 0b 44
        E 16 b0 0b 33
        E 16 b0 0b 2a
        E 16 b0 0b 19
        E 16 b0 0b 7f
        E 0 80 32 00
        E 0 90 2e 7f
        E 16 b0 0b 77
        E 16 b0 0b 66
        E 16 b0 0b 5d
        E 16 b0 0b 4c
        E 16 b0 0b 44
        E 16 b0 0b 33
        E 16 b0 0b 2a
        E 16 b0 0b 19
        E 16 b0 0b 7f
        E 0 80 2e 00
        E 0 90 2d 7f
        E 16 b0 0b 77
        E 16 b0 0b 66
        E 16 b0 0b 5d
        E 16 b0 0b 4c
        E 16 b0 0b 44
        E 16 b0 0b 33
        E 16 b0 0b 2a
        E 16 b0 0b 19
        E 16 b0 0b 7f
        E 0 80 2d 00
        E 0 90 2b 7f
        E 16 b0 0b 77
        E 16 b0 0b 66
        E 16 b0 0b 5d
        E 16 b0 0b 4c
        E 16 b0 0b 44
        E 16 b0 0b 33
        E 16 b0 0b 2a
        E 16 b0 0b 19
        E 16 b0 0b 7f
        E 0 80 2b 00
        E 0 90 26 7f
        E 16 b0 0b 77
        E 16 b0 0b 66
        E 16 b0 0b 5d
        E 16 b0 0b 4c
        E 16 b0 0b 44
        E 16 b0 0b 33
        E 16 b0 0b 2a
        E 16 b0 0b 19
        E 16 b0 0b 7f
        E 0 80 26 00
        E 0 90 2e 7f
        E 16 b0 0b 77
        E 16 b0 0b 66
        E 16 b0 0b 5d
        E 16 b0 0b 4c
        E 16 b0 0b 44
        E 16 b0 0b 33
        E 16 b0 0b 2a
        E 16 b0 0b 19
        E 16 b0 0b 7f
        E 0 80 2e 00
        E 0 90 2d 7f
        E 16 b0 0b 77
        E 16 b0 0b 66
        E 16 b0 0b 5d
        E 16 b0 0b 4c
        E 16 b0 0b 44
        E 16 b0 0b 33
        E 16 b0 0b 2a
        E 16 b0 0b 19
        E 16 b0 0b 7f
        E 0 80 2d 00
        E 0 90 2e 7f
        E 16 b0 0b 77
        E 16 b0 0b 66
        E 16 b0 0b 5d
        E 16 b0 0b 4c
        E 16 b0 0b 44
        E 16 b0 0b 33
        E 16 b0 0b 2a
        E 16 b0 0b 19
        E 16 b0 0b 7f
        E 0 80 2e 00
        E 0 90 24 7f
        E 16 b0 0b 77
        E 16 b0 0b 66
        E 16 b0 0b 5d
        E 16 b0 0b 4c
        E 16 b0 0b 44
        E 16 b0 0b 33
        E 16 b0 0b 2a
        E 16 b0 0b 19
        E 16 b0 0b 7f
        E 0 80 24 00
        E 0 90 26 7f
        E 16 b0 0b 77
        E 16 b0 0b 66
        E 16 b0 0b 5d
        E 16 b0 0b 4c
        E 16 b0 0b 44
        E 16 b0 0b 33
        E 16 b0 0b 2a
        E 16 b0 0b 19
        E 16 b0 0b 7f
        E 0 80 26 00
        E 0 90 29 7f
        E 16 b0 0b 77
        E 16 b0 0b 66
        E 16 b0 0b 5d
        E 16 b0 0b 4c
        E 16 b0 0b 44
        E 16 b0 0b 33
        E 16 b0 0b 2a
        E 16 b0 0b 19
        E 16 b0 0b 7f
        E 0 80 29 00
        E 0 90 2e 7f
        E 16 b0 0b 77
        E 16 b0 0b 66
        E 16 b0 0b 5d
        E 16 b0 0b 4c
        E 16 b0 0b 44
        E 16 b0 0b 33
        E 16 b0 0b 2a
        E 16 b0 0b 19
        E 16 b0 0b 7f
        E 0 80 2e 00
        E 0 90 30 7f
        E 16 b0 0b 77
        E 16 b0 0b 66
        E 16 b0 0b 5d
        E 16 b0 0b 4c
        E 16 b0 0b 44
        E 16 b0 0b 33
        E 16 b0 0b 2a
        E 16 b0 0b 19
        E 16 b0 0b 7f
        E 0 80 30 00
        E 0 90 32 7f
        E 16 b0 0b 77
        E 16 b0 0b 66
        E 16 b0 0b 5d
        E 16 b0 0b 4c
        E 16 b0 0b 44
        E 16 b0 0b 33
        E 16 b0 0b 2a
        E 16 b0 0b 19
        E 16 b0 0b 7f
        E 0 80 32 00
        E 0 90 35 7f
        E 16 b0 0b 77
        E 16 b0 0b 66
        E 16 b0 0b 5d
        E 16 b0 0b 4c
        E 16 b0 0b 44
        E 16 b0 0b 33
        E 16 b0 0b 2a
        E 16 b0 0b 19
        E 16 b0 0b 7f
        E 0 80 35 00
        E 0 90 3a 7f
        E 16 b0 0b 77
        E 16 b0 0b 66
        E 16 b0 0b 5d
        E 16 b0 0b 4c
        E 16 b0 0b 44
        E 16 b0 0b 33
        E 16 b0 0b 2a
        E 16 b0 0b 19
        E 16 b0 0b 7f
        E 0 80 3a 00
        E 0 90 3c 7f
        E 16 b0 0b 77
        E 16 b0 0b 66
        E 16 b0 0b 5d
        E 16 b0 0b 4c
        E 16 b0 0b 44
        E 16 b0 0b 33
        E 16 b0 0b 2a
        E 16 b0 0b 19
        E 16 b0 0b 7f
        E 0 80 3c 00
        E 0 90 3e 7f
        E 16 b0 0b 77
        E 16 b0 0b 66
        E 16 b0 0b 5d
        E 16 b0 0b 4c
        E 16 b0 0b 44
        E 16 b0 0b 33
        E 16 b0 0b 2a
        E 16 b0 0b 19
        E 16 b0 0b 7f
        E 0 80 3e 00
        E 0 90 41 7f
        E 16 b0 0b 77
        E 16 b0 0b 66
        E 16 b0 0b 5d
        E 16 b0 0b 4c
        E 16 b0 0b 44
        E 16 b0 0b 33
        E 16 b0 0b 2a
        E 16 b0 0b 19
        E 16 b0 0b 7f
        E 0 80 41 00
        E 0 90 46 7f
        E 16 b0 0b 77
        E 16 b0 0b 66
        E 16 b0 0b 5d
        E 16 b0 0b 4c
        E 16 b0 0b 44
        E 16 b0 0b 33
        E 16 b0 0b 2a
        E 16 b0 0b 19
        E 16 b0 0b 7f
        E 0 80 46 00
        E 0 90 48 7f
        E 16 b0 0b 77
        E 16 b0 0b 66
        E 16 b0 0b 5d
        E 16 b0 0b 4c
        E 16 b0 0b 44
        E 16 b0 0b 33
        E 16 b0 0b 2a
        E 16 b0 0b 19
        E 16 b0 0b 7f
        E 0 80 48 00
        E 0 90 4a 7f
        E 16 b0 0b 77
        E 16 b0 0b 66
        E 16 b0 0b 5d
        E 16 b0 0b 4c
        E 16 b0 0b 44
        E 16 b0 0b 33
        E 16 b0 0b 2a
        E 16 b0 0b 19
        E 16 b0 0b 7f
        E 0 80 4a 00
        E 0 90 4d 7f
        E 16 b0 0b 77
        E 16 b0 0b 66
        E 16 b0 0b 5d
        E 16 b0 0b 4c
        E 16 b0 0b 44
        E 16 b0 0b 33
        E 16 b0 0b 2a
        E 16 b0 0b 19
        E 16 b0 0b 7f
        E 0 80 4d 00
        E 0 90 52 7f
        E 16 b0 0b 77
        E 16 b0 0b 66
        E 16 b0 0b 5d
        E 16 b0 0b 4c
        E 16 b0 0b 44
        E 16 b0 0b 33
        E 16 b0 0b 2a
        E 16 b0 0b 19
        E 16 b0 0b 7f
        E 0 80 52 00
        E 0 90 4d 7f
        E 16 b0 0b 77
        E 16 b0 0b 66
        E 16 b0 0b 5d
        E 16 b0 0b 4c
        E 16 b0 0b 44
        E 16 b0 0b 33
        E 16 b0 0b 2a
        E 16 b0 0b 19
        E 16 b0 0b 7f
        E 0 80 4d 00
        E 0 90 4a 7f
        E 16 b0 0b 77
        E 16 b0 0b 66
        E 16 b0 0b 5d
        E 16 b0 0b 4c
        E 16 b0 0b 44
        E 16 b0 0b 33
        E 16 b0 0b 2a
        E 16 b0 0b 19
        E 16 b0 0b 7f
        E 0 80 4a 00
        E 0 90 48 7f
        E 16 b0 0b 77
        E 16 b0 0b 66
        E 16 b0 0b 5d
        E 16 b0 0b 4c
        E 16 b0 0b 44
        E 16 b0 0b 33
        E 16 b0 0b 2a
        E 16 b0 0b 19
        E 16 b0 0b 7f
        E 0 80 48 00
        E 0 90 46 7f
        E 16 b0 0b 77
        E 16 b0 0b 66
        E 16 b0 0b 5d
        E 16 b0 0b 4c
        E 16 b0 0b 44
        E 16 b0 0b 33
        E 16 b0 0b 2a
        E 16 b0 0b 19
        E 16 b0 0b 7f
        E 0 80 46 00
        E 0 90 41 7f
        E 16 b0 0b 77
        E 16 b0 0b 66
        E 16 b0 0b 5d
        E 16 b0 0b 4c
        E 16 b0 0b 44
        E 16 b0 0b 33
        E 16 b0 0b 2a
        E 16 b0 0b 19
        E 16 b0 0b 7f
        E 0 80 41 00
        E 0 90 3e 7f
        E 16 b0 0b 77
        E 16 b0 0b 66
        E 16 b0 0b 5d
        E 16 b0 0b 4c
        E 16 b0 0b 44
        E 16 b0 0b 33
        E 16 b0 0b 2a
        E 16 b0 0b 19
        E 16 b0 0b 7f
        E 0 80 3e 00
        E 0 90 3c 7f
        E 16 b0 0b 77
        E 16 b0 0b 66
        E 16 b0 0b 5d
        E 16 b0 0b 4c
        E 16 b0 0b 44
        E 16 b0 0b 33
        E 16 b0 0b 2a
        E 16 b0 0b 19
        E 16 b0 0b 7f
        E 0 80 3c 00
        E 0 90 3a 7f
        E 16 b0 0b 77
        E 16 b0 0b 66
        E 16 b0 0b 5d
        E 16 b0 0b 4c
        E 16 b0 0b 44
        E 16 b0 0b 33
        E 16 b0 0b 2a
        E 16 b0 0b 19
        E 16 b0 0b 7f
        E 0 80 3a 00
        E 0 90 35 7f
        E 16 b0 0b 77
        E 16 b0 0b 66
        E 16 b0 0b 5d
        E 16 b0 0b 4c
        E 16 b0 0b 44
        E 16 b0 0b 33
        E 16 b0 0b 2a
        E 16 b0 0b 19
        E 16 b0 0b 7f
        E 0 80 35 00
        E 0 90 32 7f
        E 16 b0 0b 77
        E 16 b0 0b 66
        E 16 b0 0b 5d
        E 16 b0 0b 4c
        E 16 b0 0b 44
        E 16 b0 0b 33
        E 16 b0 0b 2a
        E 16 b0 0b 19
        E 16 b0 0b 7f
        E 0 80 32 00
        E 0 90 30 7f
        E 16 b0 0b 77
        E 16 b0 0b 66
        E 16 b0 0b 5d
        E 16 b0 0b 4c
        E 16 b0 0b 44
        E 16 b0 0b 33
        E 16 b0 0b 2a
        E 16 b0 0b 19
        E 16 b0 0b 7f
        E 0 80 30 00
        E 0 90 2e 7f
        E 16 b0 0b 77
        E 16 b0 0b 66
        E 16 b0 0b 5d
        E 16 b0 0b 4c
        E 16 b0 0b 44
        E 16 b0 0b 33
        E 16 b0 0b 2a
        E 16 b0 0b 19
        E 16 b0 0b 7f
        E 0 80 2e 00
        E 0 90 29 7f
        E 16 b0 0b 77
        E 16 b0 0b 66
        E 16 b0 0b 5d
        E 16 b0 0b 4c
        E 16 b0 0b 44
        E 16 b0 0b 33
        E 16 b0 0b 2a
        E 16 b0 0b 19
        E 16 b0 0b 7f
        E 0 80 29 00
        E 0 90 26 7f
        E 16 b0 0b 77
        E 16 b0 0b 66
        E 16 b0 0b 5d
        E 16 b0 0b 4c
        E 16 b0 0b 44
        E 16 b0 0b 33
        E 16 b0 0b 2a
        E 16 b0 0b 19
        E 16 b0 0b 7f
        E 0 80 26 00
        E 0 90 24 7f
        E 16 b0 0b 77
        E 16 b0 0b 66
        E 16 b0 0b 5d
        E 16 b0 0b 4c
        E 16 b0 0b 44
        E 16 b0 0b 33
        E 16 b0 0b 2a
        E 16 b0 0b 19
        E 16 b0 0b 7f
        E 0 80 24 00
        E 0 90 2b 7f
        E 16 b0 0b 77
        E 16 b0 0b 66
        E 16 b0 0b 5d
        E 16 b0 0b 4c
        E 16 b0 0b 44
        E 16 b0 0b 33
        E 16 b0 0b 2a
        E 16 b0 0b 19
        E 16 b0 0b 7f
        E 0 80 2b 00
        E 0 90 2d 7f
        E 16 b0 0b 77
        E 16 b0 0b 66
        E 16 b0 0b 5d
        E 16 b0 0b 4c
        E 16 b0 0b 44
        E 16 b0 0b 33
        E 16 b0 0b 2a
        E 16 b0 0b 19
        E 16 b0 0b 7f
        E 0 80 2d 00
        E 0 90 2e 7f
        E 16 b0 0b 77
        E 16 b0 0b 66
        E 16 b0 0b 5d
        E 16 b0 0b 4c
        E 16 b0 0b 44
        E 16 b0 0b 33
        E 16 b0 0b 2a
        E 16 b0 0b 19
        E 16 b0 0b 7f
        E 0 80 2e 00
        E 0 90 26 7f
        E 16 b0 0b 77
        E 16 b0 0b 66
        E 16 b0 0b 5d
        E 16 b0 0b 4c
        E 16 b0 0b 44
        E 16 b0 0b 33
        E 16 b0 0b 2a
        E 16 b0 0b 19
        E 16 b0 0b 7f
        E 0 80 26 00
        E 0 90 2b 7f
        E 16 b0 0b 77
        E 16 b0 0b 66
        E 16 b0 0b 5d
        E 16 b0 0b 4c
        E 16 b0 0b 44
        E 16 b0 0b 33
        E 16 b0 0b 2a
        E 16 b0 0b 19
        E 16 b0 0b 7f
        E 0 80 2b 00
        E 0 90 2d 7f
        E 16 b0 0b 77
        E 16 b0 0b 66
        E 16 b0 0b 5d
        E 16 b0 0b 4c
        E 16 b0 0b 44
        E 16 b0 0b 33
        E 16 b0 0b 2a
        E 16 b0 0b 19
        E 16 b0 0b 7f
        E 0 80 2d 00
        E 0 90 2e 7f
        E 16 b0 0b 77
        E 16 b0 0b 66
        E 16 b0 0b 5d
        E 16 b0 0b 4c
        E 16 b0 0b 44
        E 16 b0 0b 33
        E 16 b0 0b 2a
        E 16 b0 0b 19
        E 16 b0 0b 7f
        E 0 80 2e 00
        E 0 90 32 7f
        E 16 b0 0b 77
        E 16 b0 0b 66
        E 16 b0 0b 5d
        E 16 b0 0b 4c
        E 16 b0 0b 44
        E 16 b0 0b 33
        E 16 b0 0b 2a
        E 16 b0 0b 19
        E 16 b0 0b 7f
        E 0 80 32 00
        E 0 90 37 7f
        E 16 b0 0b 77
        E 16 b0 0b 66
        E 16 b0 0b 5d
        E 16 b0 0b 4c
        E 16 b0 0b 44
        E 16 b0 0b 33
        E 16 b0 0b 2a
        E 16 b0 0b 19
        E 16 b0 0b 7f
        E 0 80 37 00
        E 0 90 39 7f
        E 16 b0 0b 77
        E 16 b0 0b 66
        E 16 b0 0b 5d
        E 16 b0 0b 4c
        E 16 b0 0b 44
        E 16 b0 0b 33
        E 16 b0 0b 2a
        E 16 b0 0b 19
        E 16 b0 0b 7f
        E 0 80 39 00
        E 0 90 3a 7f
        E 16 b0 0b 77
        E 16 b0 0b 66
        E 16 b0 0b 5d
        E 16 b0 0b 4c
        E 16 b0 0b 44
        E 16 b0 0b 33
        E 16 b0 0b 2a
        E 16 b0 0b 19
        E 16 b0 0b 7f
        E 0 80 3a 00
        E 0 90 3e 7f
        E 16 b0 0b 77
        E 16 b0 0b 66
        E 16 b0 0b 5d
        E 16 b0 0b 4c
        E 16 b0 0b 44
        E 16 b0 0b 33
        E 16 b0 0b 2a
        E 16 b0 0b 19
        E 16 b0 0b 7f
        E 0 80 3e 00
        E 0 90 43 7f
        E 16 b0 0b 77
        E 16 b0 0b 66
        E 16 b0 0b 5d
        E 16 b0 0b 4c
        E 16 b0 0b 44
        E 16 b0 0b 33
        E 16 b0 0b 2a
        E 16 b0 0b 19
        E 16 b0 0b 7f
        E 0 80 43 00
        E 0 90 45 7f
        E 16 b0 0b 77
        E 16 b0 0b 66
        E 16 b0 0b 5d
        E 16 b0 0b 4c
        E 16 b0 0b 44
        E 16 b0 0b 33
        E 16 b0 0b 2a
        E 16 b0 0b 19
        E 16 b0 0b 7f
        E 0 80 45 00
        E 0 90 46 7f
        E 16 b0 0b 77
        E 16 b0 0b 66
        E 16 b0 0b 5d
        E 16 b0 0b 4c
        E 16 b0 0b 44
        E 16 b0 0b 33
        E 16 b0 0b 2a
        E 16 b0 0b 19
        E 16 b0 0b 7f
        E 0 80 46 00
        E 0 90 4a 7f
        E 16 b0 0b 77
        E 16 b0 0b 66
        E 16 b0 0b 5d
        E 16 b0 0b 4c
        E 16 b0 0b 44
        E 16 b0 0b 33
        E 16 b0 0b 2a
        E 16 b0 0b 19
        E 16 b0 0b 7f
        E 0 80 4a 00
        E 0 90 4f 7f
        E 16 b0 0b 77
        E 16 b0 0b 66
        E 16 b0 0b 5d
        E 16 b0 0b 4c
        E 16 b0 0b 44
        E 16 b0 0b 33
        E 16 b0 0b 2a
        E 16 b0 0b 19
        E 16 b0 0b 7f
        E 0 80 4f 00
        E 0 90 4a 7f
        E 16 b0 0b 77
        E 16 b0 0b 66
        E 16 b0 0b 5d
        E 16 b0 0b 4c
        E 16 b0 0b 44
        E 16 b0 0b 33
        E 16 b0 0b 2a
        E 16 b0 0b 19
        E 16 b0 0b 7f
        E 0 80 4a 00
        E 0 90 46 7f
        E 16 b0 0b 77
        E 16 b0 0b 66
        E 16 b0 0b 5d
        E 16 b0 0b 4c
        E 16 b0 0b 44
        E 16 b0 0b 33
        E 16 b0 0b 2a
        E 16 b0 0b 19
        E 16 b0 0b 7f
        E 0 80 46 00
        E 0 90 45 7f
        E 16 b0 0b 77
        E 16 b0 0b 66
        E 16 b0 0b 5d
        E 16 b0 0b 4c
        E 16 b0 0b 44
        E 16 b0 0b 33
        E 16 b0 0b 2a
        E 16 b0 0b 19
        E 16 b0 0b 7f
        E 0 80 45 00
        E 0 90 43 7f
        E 16 b0 0b 77
        E 16 b0 0b 66
        E 16 b0 0b 5d
        E 16 b0 0b 4c
        E 16 b0 0b 44
        E 16 b0 0b 33
        E 16 b0 0b 2a
        E 16 b0 0b 19
        E 16 b0 0b 7f
        E 0 80 43 00
        E 0 90 3e 7f
        E 16 b0 0b 77
        E 16 b0 0b 66
        E 16 b0 0b 5d
        E 16 b0 0b 4c
        E 16 b0 0b 44
        E 16 b0 0b 33
        E 16 b0 0b 2a
        E 16 b0 0b 19
        E 16 b0 0b 7f
        E 0 80 3e 00
        E 0 90 3a 7f
        E 16 b0 0b 77
        E 16 b0 0b 66
        E 16 b0 0b 5d
        E 16 b0 0b 4c
        E 16 b0 0b 44
        E 16 b0 0b 33
        E 16 b0 0b 2a
        E 16 b0 0b 19
        E 16 b0 0b 7f
        E 0 80 3a 00
        E 0 90 39 7f
        E 16 b0 0b 77
        E 16 b0 0b 66
        E 16 b0 0b 5d
        E 16 b0 0b 4c
        E 16 b0 0b 44
        E 16 b0 0b 33
        E 16 b0 0b 2a
        E 16 b0 0b 19
        E 16 b0 0b 7f
        E 0 80 39 00
        E 0 90 37 7f
        E 16 b0 0b 77
        E 16 b0 0b 66
        E 16 b0 0b 5d
        E 16 b0 0b 4c
        E 16 b0 0b 44
        E 16 b0 0b 33
        E 16 b0 0b 2a
        E 16 b0 0b 19
        E 16 b0 0b 7f
        E 0 80 37 00
        E 0 90 32 7f
        E 16 b0 0b 77
        E 16 b0 0b 66
        E 16 b0 0b 5d
        E 16 b0 0b 4c
        E 16 b0 0b 44
        E 16 b0 0b 33
        E 16 b0 0b 2a
        E 16 b0 0b 19
        E 16 b0 0b 7f
        E 0 80 32 00
        E 0 90 2e 7f
        E 16 b0 0b 77
        E 16 b0 0b 66
        E 16 b0 0b 5d
        E 16 b0 0b 4c
        E 16 b0 0b 44
        E 16 b0 0b 33
        E 16 b0 0b 2a
        E 16 b0 0b 19
        E 16 b0 0b 7f
        E 0 80 2e 00
        E 0 90 2d 7f
        E 16 b0 0b 77
        E 16 b0 0b 66
        E 16 b0 0b 5d
        E 16 b0 0b 4c
        E 16 b0 0b 44
        E 16 b0 0b 33
        E 16 b0 0b 2a
        E 16 b0 0b 19
        E 16 b0 0b 7f
        E 0 80 2d 00
        E 0 90 2b 7f
        E 16 b0 0b 77
        E 16 b0 0b 66
        E 16 b0 0b 5d
        E 16 b0 0b 4c
        E 16 b0 0b 44
        E 16 b0 0b 33
        E 16 b0 0b 2a
        E 16 b0 0b 19
        E 16 b0 0b 7f
        E 0 80 2b 00
        E 0 90 26 7f
        E 16 b0 0b 77
        E 16 b0 0b 66
        E 16 b0 0b 5d
        E 16 b0 0b 4c
        E 16 b0 0b 44
        E 16 b0 0b 33
        E 16 b0 0b 2a
        E 16 b0 0b 19
        E 16 b0 0b 7f
        E 0 80 26 00
        E 0 90 2e 7f
        E 16 b0 0b 77
        E 16 b0 0b 66
        E 16 b0 0b 5d
        E 16 b0 0b 4c
        E 16 b0 0b 44
        E 16 b0 0b 33
        E 16 b0 0b 2a
        E 16 b0 0b 19
        E 16 b0 0b 7f
        E 0 80 2e 00
        E 0 90 2d 7f
        E 16 b0 0b 77
        E 16 b0 0b 66
        E 16 b0 0b 5d
        E 16 b0 0b 4c
        E 16 b0 0b 44
        E 16 b0 0b 33
        E 16 b0 0b 2a
        E 16 b0 0b 19
        E 16 b0 0b 7f
        E 0 80 2d 00
        E 0 90 2b 7f
        E 16 b0 0b 77
        E 16 b0 0b 66
        E 16 b0 0b 5d
        E 16 b0 0b 4c
        E 16 b0 0b 44
        E 16 b0 0b 33
        E 16 b0 0b 2a
        E 16 b0 0b 19
        E 16 b0 0b 7f
        E 0 80 2b 00
        E 0 90 2e 7f
        E 16 b0 0b 77
        E 16 b0 0b 66
        E 16 b0 0b 5d
        E 16 b0 0b 4c
        E 16 b0 0b 44
        E 16 b0 0b 33
        E 16 b0 0b 2a
        E 16 b0 0b 19
        E 16 b0 0b 7f
        E 0 80 2e 00
        E 0 90 27 7f
        E 16 b0 0b 77
        E 16 b0 0b 66
        E 16 b0 0b 5d
        E 16 b0 0b 4c
        E 16 b0 0b 44
        E 16 b0 0b 33
        E 16 b0 0b 2a
        E 16 b0 0b 19
        E 16 b0 0b 7f
        E 0 80 27 00
        E 0 90 29 7f
        E 16 b0 0b 77
        E 16 b0 0b 66
        E 16 b0 0b 5d
        E 16 b0 0b 4c
        E 16 b0 0b 44
        E 16 b0 0b 33
        E 16 b0 0b 2a
        E 16 b0 0b 19
        E 16 b0 0b 7f
        E 0 80 29 00
        E 0 90 2b 7f
        E 16 b0 0b 77
        E 16 b0 0b 66
        E 16 b0 0b 5d
        E 16 b0 0b 4c
        E 16 b0 0b 44
        E 16 b0 0b 33
        E 16 b0 0b 2a
        E 16 b0 0b 19
        E 16 b0 0b 7f
        E 0 80 2b 00
        E 0 90 2e 7f
        E 16 b0 0b 77
        E 16 b0 0b 66
        E 16 b0 0b 5d
        E 16 b0 0b 4c
        E 16 b0 0b 44
        E 16 b0 0b 33
        E 16 b0 0b 2a
        E 16 b0 0b 19
        E 16 b0 0b 7f
        E 0 80 2e 00
        E 0 90 33 7f
        E 16 b0 0b 77
        E 16 b0 0b 66
        E 16 b0 0b 5d
        E 16 b0 0b 4c
        E 16 b0 0b 44
        E 16 b0 0b 33
        E 16 b0 0b 2a
        E 16 b0 0b 19
        E 16 b0 0b 7f
        E 0 80 33 00
        E 0 90 35 7f
        E 16 b0 0b 77
        E 16 b0 0b 66
        E 16 b0 0b 5d
        E 16 b0 0b 4c
        E 16 b0 0b 44
        E 16 b0 0b 33
        E 16 b0 0b 2a
        E 16 b0 0b 19
        E 16 b0 0b 7f
        E 0 80 35 00
        E 0 90 37 7f
        E 16 b0 0b 77
        E 16 b0 0b 66
        E 16 b0 0b 5d
        E 16 b0 0b 4c
        E 16 b0 0b 44
        E 16 b0 0b 33
        E 16 b0 0b 2a
        E 16 b0 0b 19
        E 16 b0 0b 7f
        E 0 80 37 00
        E 0 90 3a 7f
        E 16 b0 0b 77
        E 16 b0 0b 66
        E 16 b0 0b 5d
        E 16 b0 0b 4c
        E 16 b0 0b 44
        E 16 b0 0b 33
        E 16 b0 0b 2a
        E 16 b0 0b 19
        E 16 b0 0b 7f
        E 0 80 3a 00
        E 0 90 3f 7f
        E 16 b0 0b 77
        E 16 b0 0b 66
        E 16 b0 0b 5d
        E 16 b0 0b 4c
        E 16 b0 0b 44
        E 16 b0 0b 33
        E 16 b0 0b 2a
        E 16 b0 0b 19
        E 16 b0 0b 7f
        E 0 80 3f 00
        E 0 90 41 7f
        E 16 b0 0b 77
        E 16 b0 0b 66
        E 16 b0 0b 5d
        E 16 b0 0b 4c
        E 16 b0 0b 44
        E 16 b0 0b 33
        E 16 b0 0b 2a
        E 16 b0 0b 19
        E 16 b0 0b 7f
        E 0 80 41 00
        E 0 90 43 7f
        E 16 b0 0b 77
        E 16 b0 0b 66
        E 16 b0 0b 5d
        E 16 b0 0b 4c
        E 16 b0 0b 44
        E 16 b0 0b 33
        E 16 b0 0b 2a
        E 16 b0 0b 19
        E 16 b0 0b 7f
        E 0 80 43 00
        E 0 90 46 7f
        E 16 b0 0b 77
        E 16 b0 0b 66
        E 16 b0 0b 5d
        E 16 b0 0b 4c
        E 16 b0 0b 44
        E 16 b0 0b 33
        E 16 b0 0b 2a
        E 16 b0 0b 19
        E 16 b0 0b 7f
        E 0 80 46 00
        E 0 90 4b 7f
        E 16 b0 0b 77
        E 16 b0 0b 66
        E 16 b0 0b 5d
        E 16 b0 0b 4c
        E 16 b0 0b 44
        E 16 b0 0b 33
        E 16 b0 0b 2a
        E 16 b0 0b 19
        E 16 b0 0b 7f
        E 0 80 4b 00
        E 0 90 4d 7f
        E 16 b0 0b 77
        E 16 b0 0b 66
        E 16 b0 0b 5d
        E 16 b0 0b 4c
        E 16 b0 0b 44
        E 16 b0 0b 33
        E 16 b0 0b 2a
        E 16 b0 0b 19
        E 16 b0 0b 7f
        E 0 80 4d 00
        E 0 90 4f 7f
        E 16 b0 0b 77
        E 16 b0 0b 66
        E 16 b0 0b 5d
        E 16 b0 0b 4c
        E 16 b0 0b 44
        E 16 b0 0b 33
        E 16 b0 0b 2a
        E 16 b0 0b 19
        E 16 b0 0b 7f
        E 0 80 4f 00
        E 0 90 4d 7f
        E 16 b0 0b 77
        E 16 b0 0b 66
        E 16 b0 0b 5d
        E 16 b0 0b 4c
        E 16 b0 0b 44
        E 16 b0 0b 33
        E 16 b0 0b 2a
        E 16 b0 0b 19
        E 16 b0 0b 7f
        E 0 80 4d 00
        E 0 90 4b 7f
        E 16 b0 0b 77
        E 16 b0 0b 66
        E 16 b0 0b 5d
        E 16 b0 0b 4c
        E 16 b0 0b 44
        E 16 b0 0b 33
        E 16 b0 0b 2a
        E 16 b0 0b 19
        E 16 b0 0b 7f
        E 0 80 4b 00
        E 0 90 46 7f
        E 16 b0 0b 77
        E 16 b0 0b 66
        E 16 b0 0b 5d
        E 16 b0 0b 4c
        E 16 b0 0b 44
        E 16 b0 0b 33
        E 16 b0 0b 2a
        E 16 b0 0b 19
        E 16 b0 0b 7f
        E 0 80 46 00
        E 0 90 43 7f
        E 16 b0 0b 77
        E 16 b0 0b 66
        E 16 b0 0b 5d
        E 16 b0 0b 4c
        E 16 b0 0b 44
        E 16 b0 0b 33
        E 16 b0 0b 2a
        E 16 b0 0b 19
        E 16 b0 0b 7f
        E 0 80 43 00
        E 0 90 41 7f
        E 16 b0 0b 77
        E 16 b0 0b 66
        E 16 b0 0b 5d
        E 16 b0 0b 4c
        E 16 b0 0b 44
        E 16 b0 0b 33
        E 16 b0 0b 2a
        E 16 b0 0b 19
        E 16 b0 0b 7f
        E 0 80 41 00
        E 0 90 3f 7f
        E 16 b0 0b 77
        E 16 b0 0b 66
        E 16 b0 0b 5d
        E 16 b0 0b 4c
        E 16 b0 0b 44
        E 16 b0 0b 33
        E 16 b0 0b 2a
        E 16 b0 0b 19
        E 16 b0 0b 7f
        E 0 80 3f 00
        E 0 90 3a 7f
        E 16 b0 0b 77
        E 16 b0 0b 66
        E 16 b0 0b 5d
        E 16 b0 0b 4c
        E 16 b0 0b 44
        E 16 b0 0b 33
        E 16 b0 0b 2a
        E 16 b0 0b 19
        E 16 b0 0b 7f
        E 0 80 3a 00
        E 0 90 37 7f
        E 16 b0 0b 77
        E 16 b0 0b 66
        E 16 b0 0b 5d
        E 16 b0 0b 4c
        E 16 b0 0b 44
        E 16 b0 0b 33
        E 16 b0 0b 2a
        E 16 b0 0b 19
        E 16 b0 0b 7f
        E 0 80 37 00
        E 0 90 35 7f
        E 16 b0 0b 77
        E 16 b0 0b 66
        E 16 b0 0b 5d
        E 16 b0 0b 4c
        E 16 b0 0b 44
        E 16 b0 0b 33
        E 16 b0 0b 2a
        E 16 b0 0b 19
        E 16 b0 0b 7f
        E 0 80 35 00
        E 0 90 33 7f
        E 16 b0 0b 77
        E 16 b0 0b 66
        E 16 b0 0b 5d
        E 16 b0 0b 4c
        E 16 b0 0b 44
        E 16 b0 0b 33
        E 16 b0 0b 2a
        E 16 b0 0b 19
        E 16 b0 0b 7f
        E 0 80 33 00
        E 0 90 2e 7f
        E 16 b0 0b 77
        E 16 b0 0b 66
        E 16 b0 0b 5d
        E 16 b0 0b 4c
        E 16 b0 0b 44
        E 16 b0 0b 33
        E 16 b0 0b 2a
        E 16 b0 0b 19
        E 16 b0 0b 7f
        E 0 80 2e 00
        E 0 90 2b 7f
        E 16 b0 0b 77
        E 16 b0 0b 66
        E 16 b0 0b 5d
        E 16 b0 0b 4c
        E 16 b0 0b 44
        E 16 b0 0b 33
        E 16 b0 0b 2a
        E 16 b0 0b 19
        E 16 b0 0b 7f
        E 0 80 2b 00
        E 0 90 29 7f
        E 16 b0 0b 77
        E 16 b0 0b 66
        E 16 b0 0b 5d
        E 16 b0 0b 4c
        E 16 b0 0b 44
        E 16 b0 0b 33
        E 16 b0 0b 2a
        E 16 b0 0b 19
        E 16 b0 0b 7f
        E 0 80 29 00
        E 0 90 27 7f
        E 16 b0 0b 77
        E 16 b0 0b 66
        E 16 b0 0b 5d
        E 16 b0 0b 4c
        E 16 b0 0b 44
        E 16 b0 0b 33
        E 16 b0 0b 2a
        E 16 b0 0b 19
        E 16 b0 0b 7f
        E 0 80 27 00
        E 0 90 2e 7f
        E 16 b0 0b 77
        E 16 b0 0b 66
        E 16 b0 0b 5d
        E 16 b0 0b 4c
        E 16 b0 0b 44
        E 16 b0 0b 33
        E 16 b0 0b 2a
        E 16 b0 0b 19
        E 16 b0 0b 7f
        E 0 80 2e 00
        E 0 90 2d 7f
        E 16 b0 0b 77
        E 16 b0 0b 66
        E 16 b0 0b 5d
        E 16 b0 0b 4c
        E 16 b0 0b 44
        E 16 b0 0b 33
        E 16 b0 0b 2a
        E 16 b0 0b 19
        E 16 b0 0b 7f
        E 0 80 2d 00
        E 0 90 24 7f
        E 16 b0 0b 77
        E 16 b0 0b 66
        E 16 b0 0b 5d
        E 16 b0 0b 4c
        E 16 b0 0b 44
        E 16 b0 0b 33
        E 16 b0 0b 2a
        E 16 b0 0b 19
        E 16 b0 0b 7f
        E 0 80 24 00
        E 0 90 29 7f
        E 16 b0 0b 77
        E 16 b0 0b 66
        E 16 b0 0b 5d
        E 16 b0 0b 4c
        E 16 b0 0b 44
        E 16 b0 0b 33
        E 16 b0 0b 2a
        E 16 b0 0b 19
        E 16 b0 0b 7f
        E 0 80 29 00
        E 0 90 2b 7f
        E 16 b0 0b 77
        E 16 b0 0b 66
        E 16 b0 0b 5d
        E 16 b0 0b 4c
        E 16 b0 0b 44
        E 16 b0 0b 33
        E 16 b0 0b 2a
        E 16 b0 0b 19
        E 16 b0 0b 7f
        E 0 80 2b 00
        E 0 90 2d 7f
        E 16 b0 0b 77
        E 16 b0 0b 66
        E 16 b0 0b 5d
        E 16 b0 0b 4c
        E 16 b0 0b 44
        E 16 b0 0b 33
        E 16 b0 0b 2a
        E 16 b0 0b 19
        E 16 b0 0b 7f
        E 0 80 2d 00
        E 0 90 30 7f
        E 16 b0 0b 77
        E 16 b0 0b 66
        E 16 b0 0b 5d
        E 16 b0 0b 4c
        E 16 b0 0b 44
        E 16 b0 0b 33
        E 16 b0 0b 2a
        E 16 b0 0b 19
        E 16 b0 0b 7f
        E 0 80 30 00
        E 0 90 35 7f
        E 16 b0 0b 77
        E 16 b0 0b 66
        E 16 b0 0b 5d
        E 16 b0 0b 4c
        E 16 b0 0b 44
        E 16 b0 0b 33
        E 16 b0 0b 2a
        E 16 b0 0b 19
        E 16 b0 0b 7f
        E 0 80 35 00
        E 0 90 37 7f
        E 16 b0 0b 77
        E 16 b0 0b 66
        E 16 b0 0b 5d
        E 16 b0 0b 4c
        E 16 b0 0b 44
        E 16 b0 0b 33
        E 16 b0 0b 2a
        E 16 b0 0b 19
        E 16 b0 0b 7f
        E 0 80 37 00
        E 0 90 39 7f
        E 16 b0 0b 77
        E 16 b0 0b 66
        E 16 b0 0b 5d
        E 16 b0 0b 4c
        E 16 b0 0b 44
        E 16 b0 0b 33
        E 16 b0 0b 2a
        E 16 b0 0b 19
        E 16 b0 0b 7f
        E 0 80 39 00
        E 0 90 3c 7f
        E 16 b0 0b 77
        E 16 b0 0b 66
        E 16 b0 0b 5d
        E 16 b0 0b 4c
        E 16 b0 0b 44
        E 16 b0 0b 33
        E 16 b0 0b 2a
        E 16 b0 0b 19
        E 16 b0 0b 7f
        E 0 80 3c 00
        E 0 90 41 7f
        E 16 b0 0b 77
        E 16 b0 0b 66
        E 16 b0 0b 5d
        E 16 b0 0b 4c
        E 16 b0 0b 44
        E 16 b0 0b 33
        E 16 b0 0b 2a
        E 16 b0 0b 19
        E 16 b0 0b 7f
        E 0 80 41 00
        E 0 90 43 7f
        E 16 b0 0b 77
        E 16 b0 0b 66
        E 16 b0 0b 5d
        E 16 b0 0b 4c
        E 16 b0 0b 44
        E 16 b0 0b 33
        E 16 b0 0b 2a
        E 16 b0 0b 19
        E 16 b0 0b 7f
        E 0 80 43 00
        E 0 90 45 7f
        E 16 b0 0b 77
        E 16 b0 0b 66
        E 16 b0 0b 5d
        E 16 b0 0b 4c
        E 16 b0 0b 44
        E 16 b0 0b 33
        E 16 b0 0b 2a
        E 16 b0 0b 19
        E 16 b0 0b 7f
        E 0 80 45 00
        E 0 90 48 7f
        E 16 b0 0b 77
        E 16 b0 0b 66
        E 16 b0 0b 5d
        E 16 b0 0b 4c
        E 16 b0 0b 44
        E 16 b0 0b 33
        E 16 b0 0b 2a
        E 16 b0 0b 19
        E 16 b0 0b 7f
        E 0 80 48 00
        E 0 90 4d 7f
        E 16 b0 0b 77
        E 16 b0 0b 66
        E 16 b0 0b 5d
        E 16 b0 0b 4c
        E 16 b0 0b 44
        E 16 b0 0b 33
        E 16 b0 0b 2a
        E 16 b0 0b 19
        E 16 b0 0b 7f
        E 0 80 4d 00
        E 0 90 4f 7f
        E 16 b0 0b 77
        E 16 b0 0b 66
        E 16 b0 0b 5d
        E 16 b0 0b 4c
        E 16 b0 0b 44
        E 16 b0 0b 33
        E 16 b0 0b 2a
        E 16 b0 0b 19
        E 16 b0 0b 7f
        E 0 80 4f 00
        E 0 90 51 7f
        E 16 b0 0b 77
        E 16 b0 0b 66
        E 16 b0 0b 5d
        E 16 b0 0b 4c
        E 16 b0 0b 44
        E 16 b0 0b 33
        E 16 b0 0b 2a
        E 16 b0 0b 19
        E 16 b0 0b 7f
        E 0 80 51 00
        E 0 90 4f 7f
        E 16 b0 0b 77
        E 16 b0 0b 66
        E 16 b0 0b 5d
        E 16 b0 0b 4c
        E 16 b0 0b 44
        E 16 b0 0b 33
        E 16 b0 0b 2a
        E 16 b0 0b 19
        E 16 b0 0b 7f
        E 0 80 4f 00
        E 0 90 4d 7f
        E 16 b0 0b 77
        E 16 b0 0b 66
        E 16 b0 0b 5d
        E 16 b0 0b 4c
        E 16 b0 0b 44
        E 16 b0 0b 33
        E 16 b0 0b 2a
        E 16 b0 0b 19
        E 16 b0 0b 7f
        E 0 80 4d 00
        E 0 90 48 7f
        E 16 b0 0b 77
        E 16 b0 0b 66
        E 16 b0 0b 5d
        E 16 b0 0b 4c
        E 16 b0 0b 44
        E 16 b0 0b 33
        E 16 b0 0b 2a
        E 16 b0 0b 19
        E 16 b0 0b 7f
        E 0 80 48 00
        E 0 90 45 7f
        E 16 b0 0b 77
        E 16 b0 0b 66
        E 16 b0 0b 5d
        E 16 b0 0b 4c
        E 16 b0 0b 44
        E 16 b0 0b 33
        E 16 b0 0b 2a
        E 16 b0 0b 19
        E 16 b0 0b 7f
        E 0 80 45 00
        E 0 90 43 7f
        E 16 b0 0b 77
        E 16 b0 0b 66
        E 16 b0 0b 5d
        E 16 b0 0b 4c
        E 16 b0 0b 44
        E 16 b0 0b 33
        E 16 b0 0b 2a
        E 16 b0 0b 19
        E 16 b0 0b 7f
        E 0 80 43 00
        E 0 90 41 7f
        E 16 b0 0b 77
        E 16 b0 0b 66
        E 16 b0 0b 5d
        E 16 b0 0b 4c
        E 16 b0 0b 44
        E 16 b0 0b 33
        E 16 b0 0b 2a
        E 16 b0 0b 19
        E 16 b0 0b 7f
        E 0 80 41 00
        E 0 90 3c 7f
        E 16 b0 0b 77
        E 16 b0 0b 66
        E 16 b0 0b 5d
        E 16 b0 0b 4c
        E 16 b0 0b 44
        E 16 b0 0b 33
        E 16 b0 0b 2a
        E 16 b0 0b 19
        E 16 b0 0b 7f
        E 0 80 3c 00
        E 0 90 39 7f
        E 16 b0 0b 77
        E 16 b0 0b 66
        E 16 b0 0b 5d
        E 16 b0 0b 4c
        E 16 b0 0b 44
        E 16 b0 0b 33
        E 16 b0 0b 2a
        E 16 b0 0b 19
        E 16 b0 0b 7f
        E 0 80 39 00
        E 0 90 37 7f
        E 16 b0 0b 77
        E 16 b0 0b 66
        E 16 b0 0b 5d
        E 16 b0 0b 4c
        E 16 b0 0b 44
        E 16 b0 0b 33
        E 16 b0 0b 2a
        E 16 b0 0b 19
        E 16 b0 0b 7f
        E 0 80 37 00
        E 0 90 35 7f
        E 16 b0 0b 77
        E 16 b0 0b 66
        E 16 b0 0b 5d
        E 16 b0 0b 4c
        E 16 b0 0b 44
        E 16 b0 0b 33
        E 16 b0 0b 2a
        E 16 b0 0b 19
        E 16 b0 0b 7f
        E 0 80 35 00
        E 0 90 30 7f
        E 16 b0 0b 77
        E 16 b0 0b 66
        E 16 b0 0b 5d
        E 16 b0 0b 4c
        E 16 b0 0b 44
        E 16 b0 0b 33
        E 16 b0 0b 2a
        E 16 b0 0b 19
        E 16 b0 0b 7f
        E 0 80 30 00
        E 0 90 2d 7f
        E 16 b0 0b 77
        E 16 b0 0b 66
        E 16 b0 0b 5d
        E 16 b0 0b 4c
        E 16 b0 0b 44
        E 16 b0 0b 33
        E 16 b0 0b 2a
        E 16 b0 0b 19
        E 16 b0 0b 7f
        E 0 80 2d 00
        E 0 90 2b 7f
        E 16 b0 0b 77
        E 16 b0 0b 66
        E 16 b0 0b 5d
        E 16 b0 0b 4c
        E 16 b0 0b 44
        E 16 b0 0b 33
        E 16 b0 0b 2a
        E 16 b0 0b 19
        E 16 b0 0b 7f
        E 0 80 2b 00
        E 0 90 29 7f
        E 16 b0 0b 77
        E 16 b0 0b 66
        E 16 b0 0b 5d
        E 16 b0 0b 4c
        E 16 b0 0b 44
        E 16 b0 0b 33
        E 16 b0 0b 2a
        E 16 b0 0b 19
        E 16 b0 0b 7f
        E 0 80 29 00
        E 0 90 24 7f
        E 16 b0 0b 77
        E 16 b0 0b 66
        E 16 b0 0b 5d
        E 16 b0 0b 4c
        E 16 b0 0b 44
        E 16 b0 0b 33
        E 16 b0 0b 2a
        E 16 b0 0b 19
        E 16 b0 0b 7f
        E 0 80 24 00
        E 0 90 2a 7f
        E 16 b0 0b 77
        E 16 b0 0b 66
        E 16 b0 0b 5d
        E 16 b0 0b 4c
        E 16 b0 0b 44
        E 16 b0 0b 33
        E 16 b0 0b 2a
        E 16 b0 0b 19
        E 16 b0 0b 7f
        E 0 80 2a 00
        E 0 90 2e 7f
        E 16 b0 0b 77
        E 16 b0 0b 66
        E 16 b0 0b 5d
        E 16 b0 0b 4c
        E 16 b0 0b 44
        E 16 b0 0b 33
        E 16 b0 0b 2a
        E 16 b0 0b 19
        E 16 b0 0b 7f
        E 0 80 2e 00
        E 0 90 25 7f
        E 16 b0 0b 77
        E 16 b0 0b 66
        E 16 b0 0b 5d
        E 16 b0 0b 4c
        E 16 b0 0b 44
        E 16 b0 0b 33
        E 16 b0 0b 2a
        E 16 b0 0b 19
        E 16 b0 0b 7f
        E 0 80 25 00
        E 0 90 29 7f
        E 16 b0 0b 77
        E 16 b0 0b 66
        E 16 b0 0b 5d
        E 16 b0 0b 4c
        E 16 b0 0b 44
        E 16 b0 0b 33
        E 16 b0 0b 2a
        E 16 b0 0b 19
        E 16 b0 0b 7f
        E 0 80 29 00
        E 0 90 2a 7f
        E 16 b0 0b 77
        E 16 b0 0b 66
        E 16 b0 0b 5d
        E 16 b0 0b 4c
        E 16 b0 0b 44
        E 16 b0 0b 33
        E 16 b0 0b 2a
        E 16 b0 0b 19
        E 16 b0 0b 7f
        E 0 80 2a 00
        E 0 90 2e 7f
        E 16 b0 0b 77
        E 16 b0 0b 66
        E 16 b0 0b 5d
        E 16 b0 0b 4c
        E 16 b0 0b 44
        E 16 b0 0b 33
        E 16 b0 0b 2a
        E 16 b0 0b 19
        E 16 b0 0b 7f
        E 0 80 2e 00
        E 0 90 31 7f
        E 16 b0 0b 77
        E 16 b0 0b 66
        E 16 b0 0b 5d
        E 16 b0 0b 4c
        E 16 b0 0b 44
        E 16 b0 0b 33
        E 16 b0 0b 2a
        E 16 b0 0b 19
        E 16 b0 0b 7f
        E 0 80 31 00
        E 0 90 35 7f
        E 16 b0 0b 77
        E 16 b0 0b 66
        E 16 b0 0b 5d
        E 16 b0 0b 4c
        E 16 b0 0b 44
        E 16 b0 0b 33
        E 16 b0 0b 2a
        E 16 b0 0b 19
        E 16 b0 0b 7f
        E 0 80 35 00
        E 0 90 36 7f
        E 16 b0 0b 77
        E 16 b0 0b 66
        E 16 b0 0b 5d
        E 16 b0 0b 4c
        E 16 b0 0b 44
        E 16 b0 0b 33
        E 16 b0 0b 2a
        E 16 b0 0b 19
        E 16 b0 0b 7f
        E 0 80 36 00
        E 0 90 3a 7f
        E 16 b0 0b 77
        E 16 b0 0b 66
        E 16 b0 0b 5d
        E 16 b0 0b 4c
        E 16 b0 0b 44
        E 16 b0 0b 33
        E 16 b0 0b 2a
        E 16 b0 0b 19
        E 16 b0 0b 7f
        E 0 80 3a 00
        E 0 90 3d 7f
        E 16 b0 0b 77
        E 16 b0 0b 66
        E 16 b0 0b 5d
        E 16 b0 0b 4c
        E 16 b0 0b 44
        E 16 b0 0b 33
        E 16 b0 0b 2a
        E 16 b0 0b 19
        E 16 b0 0b 7f
        E 0 80 3d 00
        E 0 90 41 7f
        E 16 b0 0b 77
        E 16 b0 0b 66
        E 16 b0 0b 5d
        E 16 b0 0b 4c
        E 16 b0 0b 44
        E 16 b0 0b 33
        E 16 b0 0b 2a
        E 16 b0 0b 19
        E 16 b0 0b 7f
        E 0 80 41 00
        E 0 90 42 7f
        E 16 b0 0b 77
        E 16 b0 0b 66
        E 16 b0 0b 5d
        E 16 b0 0b 4c
        E 16 b0 0b 44
        E 16 b0 0b 33
        E 16 b0 0b 2a
        E 16 b0 0b 19
        E 16 b0 0b 7f
        E 0 80 42 00
        E 0 90 46 7f
        E 16 b0 0b 77
        E 16 b0 0b 66
        E 16 b0 0b 5d
        E 16 b0 0b 4c
        E 16 b0 0b 44
        E 16 b0 0b 33
        E 16 b0 0b 2a
        E 16 b0 0b 19
        E 16 b0 0b 7f
        E 0 80 46 00
        E 0 90 49 7f
        E 16 b0 0b 77
        E 16 b0 0b 66
        E 16 b0 0b 5d
        E 16 b0 0b 4c
        E 16 b0 0b 44
        E 16 b0 0b 33
        E 16 b0 0b 2a
        E 16 b0 0b 19
        E 16 b0 0b 7f
        E 0 80 49 00
        E 0 90 4d 7f
        E 16 b0 0b 77
        E 16 b0 0b 66
        E 16 b0 0b 5d
        E 16 b0 0b 4c
        E 16 b0 0b 44
        E 16 b0 0b 33
        E 16 b0 0b 2a
        E 16 b0 0b 19
        E 16 b0 0b 7f
        E 0 80 4d 00
        E 0 90 4e 7f
        E 16 b0 0b 77
        E 16 b0 0b 66
        E 16 b0 0b 5d
        E 16 b0 0b 4c
        E 16 b0 0b 44
        E 16 b0 0b 33
        E 16 b0 0b 2a
        E 16 b0 0b 19
        E 16 b0 0b 7f
        E 0 80 4e 00
        E 0 90 4d 7f
        E 16 b0 0b 77
        E 16 b0 0b 66
        E 16 b0 0b 5d
        E 16 b0 0b 4c
        E 16 b0 0b 44
        E 16 b0 0b 33
        E 16 b0 0b 2a
        E 16 b0 0b 19
        E 16 b0 0b 7f
        E 0 80 4d 00
        E 0 90 49 7f
        E 16 b0 0b 77
        E 16 b0 0b 66
        E 16 b0 0b 5d
        E 16 b0 0b 4c
        E 16 b0 0b 44
        E 16 b0 0b 33
        E 16 b0 0b 2a
        E 16 b0 0b 19
        E 16 b0 0b 7f
        E 0 80 49 00
        E 0 90 46 7f
        E 16 b0 0b 77
        E 16 b0 0b 66
        E 16 b0 0b 5d
        E 16 b0 0b 4c
        E 16 b0 0b 44
        E 16 b0 0b 33
        E 16 b0 0b 2a
        E 16 b0 0b 19
        E 16 b0 0b 7f
        E 0 80 46 00
        E 0 90 42 7f
        E 16 b0 0b 77
        E 16 b0 0b 66
        E 16 b0 0b 5d
        E 16 b0 0b 4c
        E 16 b0 0b 44
        E 16 b0 0b 33
        E 16 b0 0b 2a
        E 16 b0 0b 19
        E 16 b0 0b 7f
        E 0 80 42 00
        E 0 90 41 7f
        E 16 b0 0b 77
        E 16 b0 0b 66
        E 16 b0 0b 5d
        E 16 b0 0b 4c
        E 16 b0 0b 44
        E 16 b0 0b 33
        E 16 b0 0b 2a
        E 16 b0 0b 19
        E 16 b0 0b 7f
        E 0 80 41 00
        E 0 90 3d 7f
        E 16 b0 0b 77
        E 16 b0 0b 66
        E 16 b0 0b 5d
        E 16 b0 0b 4c
        E 16 b0 0b 44
        E 16 b0 0b 33
        E 16 b0 0b 2a
        E 16 b0 0b 19
        E 16 b0 0b 7f
        E 0 80 3d 00
        E 0 90 3a 7f
        E 16 b0 0b 77
        E 16 b0 0b 66
        E 16 b0 0b 5d
        E 16 b0 0b 4c
        E 16 b0 0b 44
        E 16 b0 0b 33
        E 16 b0 0b 2a
        E 16 b0 0b 19
        E 16 b0 0b 7f
        E 0 80 3a 00
        E 0 90 36 7f
        E 16 b0 0b 77
        E 16 b0 0b 66
        E 16 b0 0b 5d
        E 16 b0 0b 4c
        E 16 b0 0b 44
        E 16 b0 0b 33
        E 16 b0 0b 2a
        E 16 b0 0b 19
        E 16 b0 0b 7f
        E 0 80 36 00
        E 0 90 35 7f
        E 16 b0 0b 77
        E 16 b0 0b 66
        E 16 b0 0b 5d
        E 16 b0 0b 4c
        E 16 b0 0b 44
        E 16 b0 0b 33
        E 16 b0 0b 2a
        E 16 b0 0b 19
        E 16 b0 0b 7f
        E 0 80 35 00
        E 0 90 31 7f
        E 16 b0 0b 77
        E 16 b0 0b 66
        E 16 b0 0b 5d
        E 16 b0 0b 4c
        E 16 b0 0b 44
        E 16 b0 0b 33
        E 16 b0 0b 2a
        E 16 b0 0b 19
        E 16 b0 0b 7f
        E 0 80 31 00
        E 0 90 2e 7f
        E 16 b0 0b 77
        E 16 b0 0b 66
        E 16 b0 0b 5d
        E 16 b0 0b 4c
        E 16 b0 0b 44
        E 16 b0 0b 33
        E 16 b0 0b 2a
        E 16 b0 0b 19
        E 16 b0 0b 7f
        E 0 80 2e 00
        E 0 90 2a 7f
        E 16 b0 0b 77
        E 16 b0 0b 66
        E 16 b0 0b 5d
        E 16 b0 0b 4c
        E 16 b0 0b 44
        E 16 b0 0b 33
        E 16 b0 0b 2a
        E 16 b0 0b 19
        E 16 b0 0b 7f
        E 0 80 2a 00
        E 0 90 29 7f
        E 16 b0 0b 77
        E 16 b0 0b 66
        E 16 b0 0b 5d
        E 16 b0 0b 4c
        E 16 b0 0b 44
        E 16 b0 0b 33
        E 16 b0 0b 2a
        E 16 b0 0b 19
        E 16 b0 0b 7f
        E 0 80 29 00
        E 0 90 25 7f
        E 16 b0 0b 77
        E 16 b0 0b 66
        E 16 b0 0b 5d
        E 16 b0 0b 4c
        E 16 b0 0b 44
        E 16 b0 0b 33
        E 16 b0 0b 2a
        E 16 b0 0b 19
        E 16 b0 0b 7f
        E 0 80 25 00
        E 0 90 2e 7f
        E 16 b0 0b 77
        E 16 b0 0b 66
        E 16 b0 0b 5d
        E 16 b0 0b 4c
        E 16 b0 0b 44
        E 16 b0 0b 33
        E 16 b0 0b 2a
        E 16 b0 0b 19
        E 16 b0 0b 7f
        E 0 80 2e 00
        E 0 90 2c 7f
        E 16 b0 0b 77
        E 16 b0 0b 66
        E 16 b0 0b 5d
        E 16 b0 0b 4c
        E 16 b0 0b 44
        E 16 b0 0b 33
        E 16 b0 0b 2a
        E 16 b0 0b 19
        E 16 b0 0b 7f
        E 0 80 2c 00
        E 0 90 24 7f
        E 16 b0 0b 77
        E 16 b0 0b 66
        E 16 b0 0b 5d
        E 16 b0 0b 4c
        E 16 b0 0b 44
        E 16 b0 0b 33
        E 16 b0 0b 2a
        E 16 b0 0b 19
        E 16 b0 0b 7f
        E 0 80 24 00
        E 0 90 27 7f
        E 16 b0 0b 77
        E 16 b0 0b 66
        E 16 b0 0b 5d
        E 16 b0 0b 4c
        E 16 b0 0b 44
        E 16 b0 0b 33
        E 16 b0 0b 2a
        E 16 b0 0b 19
        E 16 b0 0b 7f
        E 0 80 27 00
        E 0 90 2b 7f
        E 16 b0 0b 77
        E 16 b0 0b 66
        E 16 b0 0b 5d
        E 16 b0 0b 4c
        E 16 b0 0b 44
        E 16 b0 0b 33
        E 16 b0 0b 2a
        E 16 b0 0b 19
        E 16 b0 0b 7f
        E 0 80 2b 00
        E 0 90 2c 7f
        E 16 b0 0b 77
        E 16 b0 0b 66
        E 16 b0 0b 5d
        E 16 b0 0b 4c
        E 16 b0 0b 44
        E 16 b0 0b 33
        E 16 b0 0b 2a
        E 16 b0 0b 19
        E 16 b0 0b 7f
        E 0 80 2c 00
        E 0 90 30 7f
        E 16 b0 0b 77
        E 16 b0 0b 66
        E 16 b0 0b 5d
        E 16 b0 0b 4c
        E 16 b0 0b 44
        E 16 b0 0b 33
        E 16 b0 0b 2a
        E 16 b0 0b 19
        E 16 b0 0b 7f
        E 0 80 30 00
        E 0 90 33 7f
        E 16 b0 0b 77
        E 16 b0 0b 66
        E 16 b0 0b 5d
        E 16 b0 0b 4c
        E 16 b0 0b 44
        E 16 b0 0b 33
        E 16 b0 0b 2a
        E 16 b0 0b 19
        E 16 b0 0b 7f
        E 0 80 33 00
        E 0 90 37 7f
        E 16 b0 0b 77
        E 16 b0 0b 66
        E 16 b0 0b 5d
        E 16 b0 0b 4c
        E 16 b0 0b 44
        E 16 b0 0b 33
        E 16 b0 0b 2a
        E 16 b0 0b 19
        E 16 b0 0b 7f
        E 0 80 37 00
        E 0 90 38 7f
        E 16 b0 0b 77
        E 16 b0 0b 66
        E 16 b0 0b 5d
        E 16 b0 0b 4c
        E 16 b0 0b 44
        E 16 b0 0b 33
        E 16 b0 0b 2a
        E 16 b0 0b 19
        E 16 b0 0b 7f
        E 0 80 38 00
        E 0 90 3c 7f
        E 16 b0 0b 77
        E 16 b0 0b 66
        E 16 b0 0b 5d
        E 16 b0 0b 4c
        E 16 b0 0b 44
        E 16 b0 0b 33
        E 16 b0 0b 2a
        E 16 b0 0b 19
        E 16 b0 0b 7f
        E 0 80 3c 00
        E 0 90 3f 7f
        E 16 b0 0b 77
        E 16 b0 0b 66
        E 16 b0 0b 5d
        E 16 b0 0b 4c
        E 16 b0 0b 44
        E 16 b0 0b 33
        E 16 b0 0b 2a
        E 16 b0 0b 19
        E 16 b0 0b 7f
        E 0 80 3f 00
        E 0 90 43 7f
        E 16 b0 0b 77
        E 16 b0 0b 66
        E 16 b0 0b 5d
        E 16 b0 0b 4c
        E 16 b0 0b 44
        E 16 b0 0b 33
        E 16 b0 0b 2a
        E 16 b0 0b 19
        E 16 b0 0b 7f
        E 0 80 43 00
        E 0 90 44 7f
        E 16 b0 0b 77
        E 16 b0 0b 66
        E 16 b0 0b 5d
        E 16 b0 0b 4c
        E 16 b0 0b 44
        E 16 b0 0b 33
        E 16 b0 0b 2a
        E 16 b0 0b 19
        E 16 b0 0b 7f
        E 0 80 44 00
        E 0 90 48 7f
        E 16 b0 0b 77
        E 16 b0 0b 66
        E 16 b0 0b 5d
        E 16 b0 0b 4c
        E 16 b0 0b 44
        E 16 b0 0b 33
        E 16 b0 0b 2a
        E 16 b0 0b 19
        E 16 b0 0b 7f
        E 0 80 48 00
        E 0 90 4b 7f
        E 16 b0 0b 77
        E 16 b0 0b 66
        E 16 b0 0b 5d
        E 16 b0 0b 4c
        E 16 b0 0b 44
        E 16 b0 0b 33
        E 16 b0 0b 2a
        E 16 b0 0b 19
        E 16 b0 0b 7f
        E 0 80 4b 00
        E 0 90 4f 7f
        E 16 b0 0b 77
        E 16 b0 0b 66
        E 16 b0 0b 5d
        E 16 b0 0b 4c
        E 16 b0 0b 44
        E 16 b0 0b 33
        E 16 b0 0b 2a
        E 16 b0 0b 19
        E 16 b0 0b 7f
        E 0 80 4f 00
        E 0 90 50 7f
        E 16 b0 0b 77
        E 16 b0 0b 66
        E 16 b0 0b 5d
        E 16 b0 0b 4c
        E 16 b0 0b 44
        E 16 b0 0b 33
        E 16 b0 0b 2a
        E 16 b0 0b 19
        E 16 b0 0b 7f
        E 0 80 50 00
        E 0 90 4f 7f
        E 16 b0 0b 77
        E 16 b0 0b 66
        E 16 b0 0b 5d
        E 16 b0 0b 4c
        E 16 b0 0b 44
        E 16 b0 0b 33
        E 16 b0 0b 2a
        E 16 b0 0b 19
        E 16 b0 0b 7f
        E 0 80 4f 00
        E 0 90 4b 7f
        E 16 b0 0b 77
        E 16 b0 0b 66
        E 16 b0 0b 5d
        E 16 b0 0b 4c
        E 16 b0 0b 44
        E 16 b0 0b 33
        E 16 b0 0b 2a
        E 16 b0 0b 19
        E 16 b0 0b 7f
        E 0 80 4b 00
        E 0 90 48 7f
        E 16 b0 0b 77
        E 16 b0 0b 66
        E 16 b0 0b 5d
        E 16 b0 0b 4c
        E 16 b0 0b 44
        E 16 b0 0b 33
        E 16 b0 0b 2a
        E 16 b0 0b 19
        E 16 b0 0b 7f
        E 0 80 48 00
        E 0 90 44 7f
        E 16 b0 0b 77
        E 16 b0 0b 66
        E 16 b0 0b 5d
        E 16 b0 0b 4c
        E 16 b0 0b 44
        E 16 b0 0b 33
        E 16 b0 0b 2a
        E 16 b0 0b 19
        E 16 b0 0b 7f
        E 0 80 44 00
        E 0 90 43 7f
        E 16 b0 0b 77
        E 16 b0 0b 66
        E 16 b0 0b 5d
        E 16 b0 0b 4c
        E 16 b0 0b 44
        E 16 b0 0b 33
        E 16 b0 0b 2a
        E 16 b0 0b 19
        E 16 b0 0b 7f
        E 0 80 43 00
        E 0 90 3f 7f
        E 16 b0 0b 77
        E 16 b0 0b 66
        E 16 b0 0b 5d
        E 16 b0 0b 4c
        E 16 b0 0b 44
        E 16 b0 0b 33
        E 16 b0 0b 2a
        E 16 b0 0b 19
        E 16 b0 0b 7f
        E 0 80 3f 00
        E 0 90 3c 7f
        E 16 b0 0b 77
        E 16 b0 0b 66
        E 16 b0 0b 5d
        E 16 b0 0b 4c
        E 16 b0 0b 44
        E 16 b0 0b 33
        E 16 b0 0b 2a
        E 16 b0 0b 19
        E 16 b0 0b 7f
        E 0 80 3c 00
        E 0 90 38 7f
        E 16 b0 0b 77
        E 16 b0 0b 66
        E 16 b0 0b 5d
        E 16 b0 0b 4c
        E 16 b0 0b 44
        E 16 b0 0b 33
        E 16 b0 0b 2a
        E 16 b0 0b 19
        E 16 b0 0b 7f
        E 0 80 38 00
        E 0 90 37 7f
        E 16 b0 0b 77
        E 16 b0 0b 66
        E 16 b0 0b 5d
        E 16 b0 0b 4c
        E 16 b0 0b 44
        E 16 b0 0b 33
        E 16 b0 0b 2a
        E 16 b0 0b 19
        E 16 b0 0b 7f
        E 0 80 37 00
        E 0 90 33 7f
        E 16 b0 0b 77
        E 16 b0 0b 66
        E 16 b0 0b 5d
        E 16 b0 0b 4c
        E 16 b0 0b 44
        E 16 b0 0b 33
        E 16 b0 0b 2a
        E 16 b0 0b 19
        E 16 b0 0b 7f
        E 0 80 33 00
        E 0 90 30 7f
        E 16 b0 0b 77
        E 16 b0 0b 66
        E 16 b0 0b 5d
        E 16 b0 0b 4c
        E 16 b0 0b 44
        E 16 b0 0b 33
        E 16 b0 0b 2a
        E 16 b0 0b 19
        E 16 b0 0b 7f
        E 0 80 30 00
        E 0 90 2c 7f
        E 16 b0 0b 77
        E 16 b0 0b 66
        E 16 b0 0b 5d
        E 16 b0 0b 4c
        E 16 b0 0b 44
        E 16 b0 0b 33
        E 16 b0 0b 2a
        E 16 b0 0b 19
        E 16 b0 0b 7f
        E 0 80 2c 00
        E 0 90 2b 7f
        E 16 b0 0b 77
        E 16 b0 0b 66
        E 16 b0 0b 5d
        E 16 b0 0b 4c
        E 16 b0 0b 44
        E 16 b0 0b 33
        E 16 b0 0b 2a
        E 16 b0 0b 19
        E 16 b0 0b 7f
        E 0 80 2b 00
        E 0 90 27 7f
        E 16 b0 0b 77
        E 16 b0 0b 66
        E 16 b0 0b 5d
        E 16 b0 0b 4c
        E 16 b0 0b 44
        E 16 b0 0b 33
        E 16 b0 0b 2a
        E 16 b0 0b 19
        E 16 b0 0b 7f
        E 0 80 27 00
        E 0 90 24 7f
        E 16 b0 0b 77
        E 16 b0 0b 66
        E 16 b0 0b 5d
        E 16 b0 0b 4c
        E 16 b0 0b 44
        E 16 b0 0b 33
        E 16 b0 0b 2a
        E 16 b0 0b 19
        E 16 b0 0b 7f
        E 0 80 24 00
        E 0 90 2e 7f
        E 16 b0 0b 77
        E 16 b0 0b 66
        E 16 b0 0b 5d
        E 16 b0 0b 4c
        E 16 b0 0b 44
        E 16 b0 0b 33
        E 16 b0 0b 2a
        E 16 b0 0b 19
        E 16 b0 0b 7f
        E 0 80 2e 00
        E 0 90 24 7f
        E 16 b0 0b 77
        E 16 b0 0b 66
        E 16 b0 0b 5d
        E 16 b0 0b 4c
        E 16 b0 0b 44
        E 16 b0 0b 33
        E 16 b0 0b 2a
        E 16 b0 0b 19
        E 16 b0 0b 7f
        E 0 80 24 00
        E 0 90 26 7f
        E 16 b0 0b 77
        E 16 b0 0b 66
        E 16 b0 0b 5d
        E 16 b0 0b 4c
        E 16 b0 0b 44
        E 16 b0 0b 33
        E 16 b0 0b 2a
        E 16 b0 0b 19
        E 16 b0 0b 7f
        E 0 80 26 00
        E 0 90 29 7f
        E 16 b0 0b 77
        E 16 b0 0b 66
        E 16 b0 0b 5d
        E 16 b0 0b 4c
        E 16 b0 0b 44
        E 16 b0 0b 33
        E 16 b0 0b 2a
        E 16 b0 0b 19
        E 16 b0 0b 7f
        E 0 80 29 00
        E 0 90 2e 7f
        E 16 b0 0b 77
        E 16 b0 0b 66
        E 16 b0 0b 5d
        E 16 b0 0b 4c
        E 16 b0 0b 44
        E 16 b0 0b 33
        E 16 b0 0b 2a
        E 16 b0 0b 19
        E 16 b0 0b 7f
        E 0 80 2e 00
        E 0 90 30 7f
        E 16 b0 0b 77
        E 16 b0 0b 66
        E 16 b0 0b 5d
        E 16 b0 0b 4c
        E 16 b0 0b 44
        E 16 b0 0b 33
        E 16 b0 0b 2a
        E 16 b0 0b 19
        E 16 b0 0b 7f
        E 0 80 30 00
        E 0 90 32 7f
        E 16 b0 0b 77
        E 16 b0 0b 66
        E 16 b0 0b 5d
        E 16 b0 0b 4c
        E 16 b0 0b 44
        E 16 b0 0b 33
        E 16 b0 0b 2a
        E 16 b0 0b 19
        E 16 b0 0b 7f
        E 0 80 32 00
        E 0 90 35 7f
        E 16 b0 0b 77
        E 16 b0 0b 66
        E 16 b0 0b 5d
        E 16 b0 0b 4c
        E 16 b0 0b 44
        E 16 b0 0b 33
        E 16 b0 0b 2a
        E 16 b0 0b 19
        E 16 b0 0b 7f
        E 0 80 35 00
        E 0 90 3a 7f
        E 16 b0 0b 77
        E 16 b0 0b 66
        E 16 b0 0b 5d
        E 16 b0 0b 4c
        E 16 b0 0b 44
        E 16 b0 0b 33
        E 16 b0 0b 2a
        E 16 b0 0b 19
        E 16 b0 0b 7f
        E 0 80 3a 00
        E 0 90 3c 7f
        E 16 b0 0b 77
        E 16 b0 0b 66
        E 16 b0 0b 5d
        E 16 b0 0b 4c
        E 16 b0 0b 44
        E 16 b0 0b 33
        E 16 b0 0b 2a
        E 16 b0 0b 19
        E 16 b0 0b 7f
        E 0 80 3c 00
        E 0 90 3e 7f
        E 16 b0 0b 77
        E 16 b0 0b 66
        E 16 b0 0b 5d
        E 16 b0 0b 4c
        E 16 b0 0b 44
        E 16 b0 0b 33
        E 16 b0 0b 2a
        E 16 b0 0b 19
        E 16 b0 0b 7f
        E 0 80 3e 00
        E 0 90 41 7f
        E 16 b0 0b 77
        E 16 b0 0b 66
        E 16 b0 0b 5d
        E 16 b0 0b 4c
        E 16 b0 0b 44
        E 16 b0 0b 33
        E 16 b0 0b 2a
        E 16 b0 0b 19
        E 16 b0 0b 7f
        E 0 80 41 00
        E 0 90 46 7f
        E 16 b0 0b 77
        E 16 b0 0b 66
        E 16 b0 0b 5d
        E 16 b0 0b 4c
        E 16 b0 0b 44
        E 16 b0 0b 33
        E 16 b0 0b 2a
        E 16 b0 0b 19
        E 16 b0 0b 7f
        E 0 80 46 00
        E 0 90 48 7f
        E 16 b0 0b 77
        E 16 b0 0b 66
        E 16 b0 0b 5d
        E 16 b0 0b 4c
        E 16 b0 0b 44
        E 16 b0 0b 33
        E 16 b0 0b 2a
        E 16 b0 0b 19
        E 16 b0 0b 7f
        E 0 80 48 00
        E 0 90 4a 7f
        E 16 b0 0b 77
        E 16 b0 0b 66
        E 16 b0 0b 5d
        E 16 b0 0b 4c
        E 16 b0 0b 44
        E 16 b0 0b 33
        E 16 b0 0b 2a
        E 16 b0 0b 19
        E 16 b0 0b 7f
        E 0 80 4a 00
        E 0 90 4d 7f
        E 16 b0 0b 77
        E 16 b0 0b 66
        E 16 b0 0b 5d
        E 16 b0 0b 4c
        E 16 b0 0b 44
        E 16 b0 0b 33
        E 16 b0 0b 2a
        E 16 b0 0b 19
        E 16 b0 0b 7f
        E 0 80 4d 00
        E 0 90 52 7f
        E 16 b0 0b 77
        E 16 b0 0b 66
        E 16 b0 0b 5d
        E 16 b0 0b 4c
        E 16 b0 0b 44
        E 16 b0 0b 33
        E 16 b0 0b 2a
        E 16 b0 0b 19
        E 16 b0 0b 7f
        E 0 80 52 00
        E 0 90 4d 7f
        E 16 b0 0b 77
        E 16 b0 0b 66
        E 16 b0 0b 5d
        E 16 b0 0b 4c
        E 16 b0 0b 44
        E 16 b0 0b 33
        E 16 b0 0b 2a
        E 16 b0 0b 19
        E 16 b0 0b 7f
        E 0 80 4d 00
        E 0 90 4a 7f
        E 16 b0 0b 77
        E 16 b0 0b 66
        E 16 b0 0b 5d
        E 16 b0 0b 4c
        E 16 b0 0b 44
        E 16 b0 0b 33
        E 16 b0 0b 2a
        E 16 b0 0b 19
        E 16 b0 0b 7f
        E 0 80 4a 00
        E 0 90 48 7f
        E 16 b0 0b 77
        E 16 b0 0b 66
        E 16 b0 0b 5d
        E 16 b0 0b 4c
        E 16 b0 0b 44
        E 16 b0 0b 33
        E 16 b0 0b 2a
        E 16 b0 0b 19
        E 16 b0 0b 7f
        E 0 80 48 00
        E 0 90 46 7f
        E 16 b0 0b 77
        E 16 b0 0b 66
        E 16 b0 0b 5d
        E 16 80 46 00
        E 0 b0 7b 00
        E 0 ff 2f 00
      >
    >
  >
  <TRACK {9FAC55BC-7CB9-4074-8F92-1068B349587C}
    NAME "NES - Pulse 2 [ch1]"
    PEAKCOL 10092441
    BEAT -1
    AUTOMODE 0
    PANLAWFLAGS 3
    VOLPAN 1 0 -1 -1 1
    MUTESOLO 0 0 0
    IPHASE 0
    PLAYOFFS 0 1
    ISBUS 0 0
    BUSCOMP 0 0 0 0 0
    SHOWINMIX 1 0.6667 0.5 1 0.5 0 0 0
    FIXEDLANES 9 0 0 0 0
    SEL 0
    REC 0 5088 1 0 0 0 0 0
    VU 2
    TRACKHEIGHT 0 0 0 0 0 0 0
    INQ 0 0 0 0.5 100 0 0 100
    NCHAN 2
    FX 1
    TRACKID {9FAC55BC-7CB9-4074-8F92-1068B349587C}
    PERF 0
    MIDIOUT -1
    MAINSEND 1 0
    <FXCHAIN
      WNDRECT 24 52 700 560
      SHOW 0
      LASTSEL 0
      DOCKED 0
      BYPASS 0 0 0
      <JS "ReapNES Studio/ReapNES_Console.jsfx" ""
        2 15 1 10 80 10 100 2 1 15 1 5 60 10 80 1 1 0 50 0 0 15 1 0 100 0 0 0.500000 0.500000 0.400000 0.300000 0.800000 1 1 0 0 0 0 - - - - - - - - - - - - - - - - - - - - - - - - - -
      >
      FLOATPOS 0 0 0 0
      FXID {887DA8F9-FB9C-4716-BF69-FD6BB034DA76}
      WAK 0 0
    >
    <ITEM
      POSITION 0
      LENGTH 74.5878716
      LOOP 0
      ALLTAKES 0
      FADEIN 0 0 0 0 0 0 0
      FADEOUT 0 0 0 0 0 0 0
      MUTE 0 0
      SEL 0
      IGUID {A1EC503A-06BE-4FA3-B566-4D2553593DD5}
      <SOURCE MIDI
        HASDATA 1 480 QN
        CCINTERP 32
        E 0 c1 51
        E 352 b1 0c 10
        E 0 b1 0b 44
        E 0 91 2e 44
        E 32 b1 0b 3b
        E 16 b1 0b 33
        E 16 b1 0b 2a
        E 32 b1 0b 22
        E 16 b1 0b 19
        E 16 b1 0b 11
        E 16 b1 0b 44
        E 0 81 2e 00
        E 0 91 24 44
        E 32 b1 0b 3b
        E 16 b1 0b 33
        E 16 b1 0b 2a
        E 32 b1 0b 22
        E 16 b1 0b 19
        E 16 b1 0b 11
        E 16 b1 0b 44
        E 0 81 24 00
        E 0 91 26 44
        E 32 b1 0b 3b
        E 16 b1 0b 33
        E 16 b1 0b 2a
        E 32 b1 0b 22
        E 16 b1 0b 19
        E 16 b1 0b 11
        E 16 b1 0b 44
        E 0 81 26 00
        E 0 91 29 44
        E 32 b1 0b 3b
        E 16 b1 0b 33
        E 16 b1 0b 2a
        E 32 b1 0b 22
        E 16 b1 0b 19
        E 16 b1 0b 11
        E 16 b1 0b 44
        E 0 81 29 00
        E 0 91 2e 44
        E 32 b1 0b 3b
        E 16 b1 0b 33
        E 16 b1 0b 2a
        E 32 b1 0b 22
        E 16 b1 0b 19
        E 16 b1 0b 11
        E 16 b1 0b 44
        E 0 81 2e 00
        E 0 91 30 44
        E 32 b1 0b 3b
        E 16 b1 0b 33
        E 16 b1 0b 2a
        E 32 b1 0b 22
        E 16 b1 0b 19
        E 16 b1 0b 11
        E 16 b1 0b 44
        E 0 81 30 00
        E 0 91 32 44
        E 32 b1 0b 3b
        E 16 b1 0b 33
        E 16 b1 0b 2a
        E 32 b1 0b 22
        E 16 b1 0b 19
        E 16 b1 0b 11
        E 16 b1 0b 44
        E 0 81 32 00
        E 0 91 35 44
        E 32 b1 0b 3b
        E 16 b1 0b 33
        E 16 b1 0b 2a
        E 32 b1 0b 22
        E 16 b1 0b 19
        E 16 b1 0b 11
        E 16 b1 0b 44
        E 0 81 35 00
        E 0 91 3a 44
        E 32 b1 0b 3b
        E 16 b1 0b 33
        E 16 b1 0b 2a
        E 32 b1 0b 22
        E 16 b1 0b 19
        E 16 b1 0b 11
        E 16 b1 0b 44
        E 0 81 3a 00
        E 0 91 3c 44
        E 32 b1 0b 3b
        E 16 b1 0b 33
        E 16 b1 0b 2a
        E 32 b1 0b 22
        E 16 b1 0b 19
        E 16 b1 0b 11
        E 16 b1 0b 44
        E 0 81 3c 00
        E 0 91 3e 44
        E 32 b1 0b 3b
        E 16 b1 0b 33
        E 16 b1 0b 2a
        E 32 b1 0b 22
        E 16 b1 0b 19
        E 16 b1 0b 11
        E 16 b1 0b 44
        E 0 81 3e 00
        E 0 91 41 44
        E 32 b1 0b 3b
        E 16 b1 0b 33
        E 16 b1 0b 2a
        E 32 b1 0b 22
        E 16 b1 0b 19
        E 16 b1 0b 11
        E 16 b1 0b 44
        E 0 81 41 00
        E 0 91 46 44
        E 32 b1 0b 3b
        E 16 b1 0b 33
        E 16 b1 0b 2a
        E 32 b1 0b 22
        E 16 b1 0b 19
        E 16 b1 0b 11
        E 16 b1 0b 44
        E 0 81 46 00
        E 0 91 48 44
        E 32 b1 0b 3b
        E 16 b1 0b 33
        E 16 b1 0b 2a
        E 32 b1 0b 22
        E 16 b1 0b 19
        E 16 b1 0b 11
        E 16 b1 0b 44
        E 0 81 48 00
        E 0 91 4a 44
        E 32 b1 0b 3b
        E 16 b1 0b 33
        E 16 b1 0b 2a
        E 32 b1 0b 22
        E 16 b1 0b 19
        E 16 b1 0b 11
        E 16 b1 0b 44
        E 0 81 4a 00
        E 0 91 4d 44
        E 32 b1 0b 3b
        E 16 b1 0b 33
        E 16 b1 0b 2a
        E 32 b1 0b 22
        E 16 b1 0b 19
        E 16 b1 0b 11
        E 16 b1 0b 44
        E 0 81 4d 00
        E 0 91 52 44
        E 32 b1 0b 3b
        E 16 b1 0b 33
        E 16 b1 0b 2a
        E 32 b1 0b 22
        E 16 b1 0b 19
        E 16 b1 0b 11
        E 16 b1 0b 44
        E 0 81 52 00
        E 0 91 4d 44
        E 32 b1 0b 3b
        E 16 b1 0b 33
        E 16 b1 0b 2a
        E 32 b1 0b 22
        E 16 b1 0b 19
        E 16 b1 0b 11
        E 16 b1 0b 44
        E 0 81 4d 00
        E 0 91 4a 44
        E 32 b1 0b 3b
        E 16 b1 0b 33
        E 16 b1 0b 2a
        E 32 b1 0b 22
        E 16 b1 0b 19
        E 16 b1 0b 11
        E 16 b1 0b 44
        E 0 81 4a 00
        E 0 91 48 44
        E 32 b1 0b 3b
        E 16 b1 0b 33
        E 16 b1 0b 2a
        E 32 b1 0b 22
        E 16 b1 0b 19
        E 16 b1 0b 11
        E 16 b1 0b 44
        E 0 81 48 00
        E 0 91 46 44
        E 32 b1 0b 3b
        E 16 b1 0b 33
        E 16 b1 0b 2a
        E 32 b1 0b 22
        E 16 b1 0b 19
        E 16 b1 0b 11
        E 16 b1 0b 44
        E 0 81 46 00
        E 0 91 41 44
        E 32 b1 0b 3b
        E 16 b1 0b 33
        E 16 b1 0b 2a
        E 32 b1 0b 22
        E 16 b1 0b 19
        E 16 b1 0b 11
        E 16 b1 0b 44
        E 0 81 41 00
        E 0 91 3e 44
        E 32 b1 0b 3b
        E 16 b1 0b 33
        E 16 b1 0b 2a
        E 32 b1 0b 22
        E 16 b1 0b 19
        E 16 b1 0b 11
        E 16 b1 0b 44
        E 0 81 3e 00
        E 0 91 3c 44
        E 32 b1 0b 3b
        E 16 b1 0b 33
        E 16 b1 0b 2a
        E 32 b1 0b 22
        E 16 b1 0b 19
        E 16 b1 0b 11
        E 16 b1 0b 44
        E 0 81 3c 00
        E 0 91 3a 44
        E 32 b1 0b 3b
        E 16 b1 0b 33
        E 16 b1 0b 2a
        E 32 b1 0b 22
        E 16 b1 0b 19
        E 16 b1 0b 11
        E 16 b1 0b 44
        E 0 81 3a 00
        E 0 91 35 44
        E 32 b1 0b 3b
        E 16 b1 0b 33
        E 16 b1 0b 2a
        E 32 b1 0b 22
        E 16 b1 0b 19
        E 16 b1 0b 11
        E 16 b1 0b 44
        E 0 81 35 00
        E 0 91 32 44
        E 32 b1 0b 3b
        E 16 b1 0b 33
        E 16 b1 0b 2a
        E 32 b1 0b 22
        E 16 b1 0b 19
        E 16 b1 0b 11
        E 16 b1 0b 44
        E 0 81 32 00
        E 0 91 30 44
        E 32 b1 0b 3b
        E 16 b1 0b 33
        E 16 b1 0b 2a
        E 32 b1 0b 22
        E 16 b1 0b 19
        E 16 b1 0b 11
        E 16 b1 0b 44
        E 0 81 30 00
        E 0 91 2e 44
        E 32 b1 0b 3b
        E 16 b1 0b 33
        E 16 b1 0b 2a
        E 32 b1 0b 22
        E 16 b1 0b 19
        E 16 b1 0b 11
        E 16 b1 0b 44
        E 0 81 2e 00
        E 0 91 29 44
        E 32 b1 0b 3b
        E 16 b1 0b 33
        E 16 b1 0b 2a
        E 32 b1 0b 22
        E 16 b1 0b 19
        E 16 b1 0b 11
        E 16 b1 0b 44
        E 0 81 29 00
        E 0 91 26 44
        E 32 b1 0b 3b
        E 16 b1 0b 33
        E 16 b1 0b 2a
        E 32 b1 0b 22
        E 16 b1 0b 19
        E 16 b1 0b 11
        E 16 b1 0b 44
        E 0 81 26 00
        E 0 91 24 44
        E 32 b1 0b 3b
        E 16 b1 0b 33
        E 16 b1 0b 2a
        E 32 b1 0b 22
        E 16 b1 0b 19
        E 16 b1 0b 11
        E 16 b1 0b 44
        E 0 81 24 00
        E 0 91 2b 44
        E 32 b1 0b 3b
        E 16 b1 0b 33
        E 16 b1 0b 2a
        E 32 b1 0b 22
        E 16 b1 0b 19
        E 16 b1 0b 11
        E 16 b1 0b 44
        E 0 81 2b 00
        E 0 91 2d 44
        E 32 b1 0b 3b
        E 16 b1 0b 33
        E 16 b1 0b 2a
        E 32 b1 0b 22
        E 16 b1 0b 19
        E 16 b1 0b 11
        E 16 b1 0b 44
        E 0 81 2d 00
        E 0 91 2e 44
        E 32 b1 0b 3b
        E 16 b1 0b 33
        E 16 b1 0b 2a
        E 32 b1 0b 22
        E 16 b1 0b 19
        E 16 b1 0b 11
        E 16 b1 0b 44
        E 0 81 2e 00
        E 0 91 26 44
        E 32 b1 0b 3b
        E 16 b1 0b 33
        E 16 b1 0b 2a
        E 32 b1 0b 22
        E 16 b1 0b 19
        E 16 b1 0b 11
        E 16 b1 0b 44
        E 0 81 26 00
        E 0 91 2b 44
        E 32 b1 0b 3b
        E 16 b1 0b 33
        E 16 b1 0b 2a
        E 32 b1 0b 22
        E 16 b1 0b 19
        E 16 b1 0b 11
        E 16 b1 0b 44
        E 0 81 2b 00
        E 0 91 2d 44
        E 32 b1 0b 3b
        E 16 b1 0b 33
        E 16 b1 0b 2a
        E 32 b1 0b 22
        E 16 b1 0b 19
        E 16 b1 0b 11
        E 16 b1 0b 44
        E 0 81 2d 00
        E 0 91 2e 44
        E 32 b1 0b 3b
        E 16 b1 0b 33
        E 16 b1 0b 2a
        E 32 b1 0b 22
        E 16 b1 0b 19
        E 16 b1 0b 11
        E 16 b1 0b 44
        E 0 81 2e 00
        E 0 91 32 44
        E 32 b1 0b 3b
        E 16 b1 0b 33
        E 16 b1 0b 2a
        E 32 b1 0b 22
        E 16 b1 0b 19
        E 16 b1 0b 11
        E 16 b1 0b 44
        E 0 81 32 00
        E 0 91 37 44
        E 32 b1 0b 3b
        E 16 b1 0b 33
        E 16 b1 0b 2a
        E 32 b1 0b 22
        E 16 b1 0b 19
        E 16 b1 0b 11
        E 16 b1 0b 44
        E 0 81 37 00
        E 0 91 39 44
        E 32 b1 0b 3b
        E 16 b1 0b 33
        E 16 b1 0b 2a
        E 32 b1 0b 22
        E 16 b1 0b 19
        E 16 b1 0b 11
        E 16 b1 0b 44
        E 0 81 39 00
        E 0 91 3a 44
        E 32 b1 0b 3b
        E 16 b1 0b 33
        E 16 b1 0b 2a
        E 32 b1 0b 22
        E 16 b1 0b 19
        E 16 b1 0b 11
        E 16 b1 0b 44
        E 0 81 3a 00
        E 0 91 3e 44
        E 32 b1 0b 3b
        E 16 b1 0b 33
        E 16 b1 0b 2a
        E 32 b1 0b 22
        E 16 b1 0b 19
        E 16 b1 0b 11
        E 16 b1 0b 44
        E 0 81 3e 00
        E 0 91 43 44
        E 32 b1 0b 3b
        E 16 b1 0b 33
        E 16 b1 0b 2a
        E 32 b1 0b 22
        E 16 b1 0b 19
        E 16 b1 0b 11
        E 16 b1 0b 44
        E 0 81 43 00
        E 0 91 45 44
        E 32 b1 0b 3b
        E 16 b1 0b 33
        E 16 b1 0b 2a
        E 32 b1 0b 22
        E 16 b1 0b 19
        E 16 b1 0b 11
        E 16 b1 0b 44
        E 0 81 45 00
        E 0 91 46 44
        E 32 b1 0b 3b
        E 16 b1 0b 33
        E 16 b1 0b 2a
        E 32 b1 0b 22
        E 16 b1 0b 19
        E 16 b1 0b 11
        E 16 b1 0b 44
        E 0 81 46 00
        E 0 91 4a 44
        E 32 b1 0b 3b
        E 16 b1 0b 33
        E 16 b1 0b 2a
        E 32 b1 0b 22
        E 16 b1 0b 19
        E 16 b1 0b 11
        E 16 b1 0b 44
        E 0 81 4a 00
        E 0 91 4f 44
        E 32 b1 0b 3b
        E 16 b1 0b 33
        E 16 b1 0b 2a
        E 32 b1 0b 22
        E 16 b1 0b 19
        E 16 b1 0b 11
        E 16 b1 0b 44
        E 0 81 4f 00
        E 0 91 4a 44
        E 32 b1 0b 3b
        E 16 b1 0b 33
        E 16 b1 0b 2a
        E 32 b1 0b 22
        E 16 b1 0b 19
        E 16 b1 0b 11
        E 16 b1 0b 44
        E 0 81 4a 00
        E 0 91 46 44
        E 32 b1 0b 3b
        E 16 b1 0b 33
        E 16 b1 0b 2a
        E 32 b1 0b 22
        E 16 b1 0b 19
        E 16 b1 0b 11
        E 16 b1 0b 44
        E 0 81 46 00
        E 0 91 45 44
        E 32 b1 0b 3b
        E 16 b1 0b 33
        E 16 b1 0b 2a
        E 32 b1 0b 22
        E 16 b1 0b 19
        E 16 b1 0b 11
        E 16 b1 0b 44
        E 0 81 45 00
        E 0 91 43 44
        E 32 b1 0b 3b
        E 16 b1 0b 33
        E 16 b1 0b 2a
        E 32 b1 0b 22
        E 16 b1 0b 19
        E 16 b1 0b 11
        E 16 b1 0b 44
        E 0 81 43 00
        E 0 91 3e 44
        E 32 b1 0b 3b
        E 16 b1 0b 33
        E 16 b1 0b 2a
        E 32 b1 0b 22
        E 16 b1 0b 19
        E 16 b1 0b 11
        E 16 b1 0b 44
        E 0 81 3e 00
        E 0 91 3a 44
        E 32 b1 0b 3b
        E 16 b1 0b 33
        E 16 b1 0b 2a
        E 32 b1 0b 22
        E 16 b1 0b 19
        E 16 b1 0b 11
        E 16 b1 0b 44
        E 0 81 3a 00
        E 0 91 39 44
        E 32 b1 0b 3b
        E 16 b1 0b 33
        E 16 b1 0b 2a
        E 32 b1 0b 22
        E 16 b1 0b 19
        E 16 b1 0b 11
        E 16 b1 0b 44
        E 0 81 39 00
        E 0 91 37 44
        E 32 b1 0b 3b
        E 16 b1 0b 33
        E 16 b1 0b 2a
        E 32 b1 0b 22
        E 16 b1 0b 19
        E 16 b1 0b 11
        E 16 b1 0b 44
        E 0 81 37 00
        E 0 91 32 44
        E 32 b1 0b 3b
        E 16 b1 0b 33
        E 16 b1 0b 2a
        E 32 b1 0b 22
        E 16 b1 0b 19
        E 16 b1 0b 11
        E 16 b1 0b 44
        E 0 81 32 00
        E 0 91 2e 44
        E 32 b1 0b 3b
        E 16 b1 0b 33
        E 16 b1 0b 2a
        E 32 b1 0b 22
        E 16 b1 0b 19
        E 16 b1 0b 11
        E 16 b1 0b 44
        E 0 81 2e 00
        E 0 91 2d 44
        E 32 b1 0b 3b
        E 16 b1 0b 33
        E 16 b1 0b 2a
        E 32 b1 0b 22
        E 16 b1 0b 19
        E 16 b1 0b 11
        E 16 b1 0b 44
        E 0 81 2d 00
        E 0 91 2b 44
        E 32 b1 0b 3b
        E 16 b1 0b 33
        E 16 b1 0b 2a
        E 32 b1 0b 22
        E 16 b1 0b 19
        E 16 b1 0b 11
        E 16 b1 0b 44
        E 0 81 2b 00
        E 0 91 26 44
        E 32 b1 0b 3b
        E 16 b1 0b 33
        E 16 b1 0b 2a
        E 32 b1 0b 22
        E 16 b1 0b 19
        E 16 b1 0b 11
        E 16 b1 0b 44
        E 0 81 26 00
        E 0 91 2e 44
        E 32 b1 0b 3b
        E 16 b1 0b 33
        E 16 b1 0b 2a
        E 32 b1 0b 22
        E 16 b1 0b 19
        E 16 b1 0b 11
        E 16 b1 0b 44
        E 0 81 2e 00
        E 0 91 2d 44
        E 32 b1 0b 3b
        E 16 b1 0b 33
        E 16 b1 0b 2a
        E 32 b1 0b 22
        E 16 b1 0b 19
        E 16 b1 0b 11
        E 16 b1 0b 44
        E 0 81 2d 00
        E 0 91 2e 44
        E 32 b1 0b 3b
        E 16 b1 0b 33
        E 16 b1 0b 2a
        E 32 b1 0b 22
        E 16 b1 0b 19
        E 16 b1 0b 11
        E 16 b1 0b 44
        E 0 81 2e 00
        E 0 91 24 44
        E 32 b1 0b 3b
        E 16 b1 0b 33
        E 16 b1 0b 2a
        E 32 b1 0b 22
        E 16 b1 0b 19
        E 16 b1 0b 11
        E 16 b1 0b 44
        E 0 81 24 00
        E 0 91 26 44
        E 32 b1 0b 3b
        E 16 b1 0b 33
        E 16 b1 0b 2a
        E 32 b1 0b 22
        E 16 b1 0b 19
        E 16 b1 0b 11
        E 16 b1 0b 44
        E 0 81 26 00
        E 0 91 29 44
        E 32 b1 0b 3b
        E 16 b1 0b 33
        E 16 b1 0b 2a
        E 32 b1 0b 22
        E 16 b1 0b 19
        E 16 b1 0b 11
        E 16 b1 0b 44
        E 0 81 29 00
        E 0 91 2e 44
        E 32 b1 0b 3b
        E 16 b1 0b 33
        E 16 b1 0b 2a
        E 32 b1 0b 22
        E 16 b1 0b 19
        E 16 b1 0b 11
        E 16 b1 0b 44
        E 0 81 2e 00
        E 0 91 30 44
        E 32 b1 0b 3b
        E 16 b1 0b 33
        E 16 b1 0b 2a
        E 32 b1 0b 22
        E 16 b1 0b 19
        E 16 b1 0b 11
        E 16 b1 0b 44
        E 0 81 30 00
        E 0 91 32 44
        E 32 b1 0b 3b
        E 16 b1 0b 33
        E 16 b1 0b 2a
        E 32 b1 0b 22
        E 16 b1 0b 19
        E 16 b1 0b 11
        E 16 b1 0b 44
        E 0 81 32 00
        E 0 91 35 44
        E 32 b1 0b 3b
        E 16 b1 0b 33
        E 16 b1 0b 2a
        E 32 b1 0b 22
        E 16 b1 0b 19
        E 16 b1 0b 11
        E 16 b1 0b 44
        E 0 81 35 00
        E 0 91 3a 44
        E 32 b1 0b 3b
        E 16 b1 0b 33
        E 16 b1 0b 2a
        E 32 b1 0b 22
        E 16 b1 0b 19
        E 16 b1 0b 11
        E 16 b1 0b 44
        E 0 81 3a 00
        E 0 91 3c 44
        E 32 b1 0b 3b
        E 16 b1 0b 33
        E 16 b1 0b 2a
        E 32 b1 0b 22
        E 16 b1 0b 19
        E 16 b1 0b 11
        E 16 b1 0b 44
        E 0 81 3c 00
        E 0 91 3e 44
        E 32 b1 0b 3b
        E 16 b1 0b 33
        E 16 b1 0b 2a
        E 32 b1 0b 22
        E 16 b1 0b 19
        E 16 b1 0b 11
        E 16 b1 0b 44
        E 0 81 3e 00
        E 0 91 41 44
        E 32 b1 0b 3b
        E 16 b1 0b 33
        E 16 b1 0b 2a
        E 32 b1 0b 22
        E 16 b1 0b 19
        E 16 b1 0b 11
        E 16 b1 0b 44
        E 0 81 41 00
        E 0 91 46 44
        E 32 b1 0b 3b
        E 16 b1 0b 33
        E 16 b1 0b 2a
        E 32 b1 0b 22
        E 16 b1 0b 19
        E 16 b1 0b 11
        E 16 b1 0b 44
        E 0 81 46 00
        E 0 91 48 44
        E 32 b1 0b 3b
        E 16 b1 0b 33
        E 16 b1 0b 2a
        E 32 b1 0b 22
        E 16 b1 0b 19
        E 16 b1 0b 11
        E 16 b1 0b 44
        E 0 81 48 00
        E 0 91 4a 44
        E 32 b1 0b 3b
        E 16 b1 0b 33
        E 16 b1 0b 2a
        E 32 b1 0b 22
        E 16 b1 0b 19
        E 16 b1 0b 11
        E 16 b1 0b 44
        E 0 81 4a 00
        E 0 91 4d 44
        E 32 b1 0b 3b
        E 16 b1 0b 33
        E 16 b1 0b 2a
        E 32 b1 0b 22
        E 16 b1 0b 19
        E 16 b1 0b 11
        E 16 b1 0b 44
        E 0 81 4d 00
        E 0 91 52 44
        E 32 b1 0b 3b
        E 16 b1 0b 33
        E 16 b1 0b 2a
        E 32 b1 0b 22
        E 16 b1 0b 19
        E 16 b1 0b 11
        E 16 b1 0b 44
        E 0 81 52 00
        E 0 91 4d 44
        E 32 b1 0b 3b
        E 16 b1 0b 33
        E 16 b1 0b 2a
        E 32 b1 0b 22
        E 16 b1 0b 19
        E 16 b1 0b 11
        E 16 b1 0b 44
        E 0 81 4d 00
        E 0 91 4a 44
        E 32 b1 0b 3b
        E 16 b1 0b 33
        E 16 b1 0b 2a
        E 32 b1 0b 22
        E 16 b1 0b 19
        E 16 b1 0b 11
        E 16 b1 0b 44
        E 0 81 4a 00
        E 0 91 48 44
        E 32 b1 0b 3b
        E 16 b1 0b 33
        E 16 b1 0b 2a
        E 32 b1 0b 22
        E 16 b1 0b 19
        E 16 b1 0b 11
        E 16 b1 0b 44
        E 0 81 48 00
        E 0 91 46 44
        E 32 b1 0b 3b
        E 16 b1 0b 33
        E 16 b1 0b 2a
        E 32 b1 0b 22
        E 16 b1 0b 19
        E 16 b1 0b 11
        E 16 b1 0b 44
        E 0 81 46 00
        E 0 91 41 44
        E 32 b1 0b 3b
        E 16 b1 0b 33
        E 16 b1 0b 2a
        E 32 b1 0b 22
        E 16 b1 0b 19
        E 16 b1 0b 11
        E 16 b1 0b 44
        E 0 81 41 00
        E 0 91 3e 44
        E 32 b1 0b 3b
        E 16 b1 0b 33
        E 16 b1 0b 2a
        E 32 b1 0b 22
        E 16 b1 0b 19
        E 16 b1 0b 11
        E 16 b1 0b 44
        E 0 81 3e 00
        E 0 91 3c 44
        E 32 b1 0b 3b
        E 16 b1 0b 33
        E 16 b1 0b 2a
        E 32 b1 0b 22
        E 16 b1 0b 19
        E 16 b1 0b 11
        E 16 b1 0b 44
        E 0 81 3c 00
        E 0 91 3a 44
        E 32 b1 0b 3b
        E 16 b1 0b 33
        E 16 b1 0b 2a
        E 32 b1 0b 22
        E 16 b1 0b 19
        E 16 b1 0b 11
        E 16 b1 0b 44
        E 0 81 3a 00
        E 0 91 35 44
        E 32 b1 0b 3b
        E 16 b1 0b 33
        E 16 b1 0b 2a
        E 32 b1 0b 22
        E 16 b1 0b 19
        E 16 b1 0b 11
        E 16 b1 0b 44
        E 0 81 35 00
        E 0 91 32 44
        E 32 b1 0b 3b
        E 16 b1 0b 33
        E 16 b1 0b 2a
        E 32 b1 0b 22
        E 16 b1 0b 19
        E 16 b1 0b 11
        E 16 b1 0b 44
        E 0 81 32 00
        E 0 91 30 44
        E 32 b1 0b 3b
        E 16 b1 0b 33
        E 16 b1 0b 2a
        E 32 b1 0b 22
        E 16 b1 0b 19
        E 16 b1 0b 11
        E 16 b1 0b 44
        E 0 81 30 00
        E 0 91 2e 44
        E 32 b1 0b 3b
        E 16 b1 0b 33
        E 16 b1 0b 2a
        E 32 b1 0b 22
        E 16 b1 0b 19
        E 16 b1 0b 11
        E 16 b1 0b 44
        E 0 81 2e 00
        E 0 91 29 44
        E 32 b1 0b 3b
        E 16 b1 0b 33
        E 16 b1 0b 2a
        E 32 b1 0b 22
        E 16 b1 0b 19
        E 16 b1 0b 11
        E 16 b1 0b 44
        E 0 81 29 00
        E 0 91 26 44
        E 32 b1 0b 3b
        E 16 b1 0b 33
        E 16 b1 0b 2a
        E 32 b1 0b 22
        E 16 b1 0b 19
        E 16 b1 0b 11
        E 16 b1 0b 44
        E 0 81 26 00
        E 0 91 24 44
        E 32 b1 0b 3b
        E 16 b1 0b 33
        E 16 b1 0b 2a
        E 32 b1 0b 22
        E 16 b1 0b 19
        E 16 b1 0b 11
        E 16 b1 0b 44
        E 0 81 24 00
        E 0 91 2b 44
        E 32 b1 0b 3b
        E 16 b1 0b 33
        E 16 b1 0b 2a
        E 32 b1 0b 22
        E 16 b1 0b 19
        E 16 b1 0b 11
        E 16 b1 0b 44
        E 0 81 2b 00
        E 0 91 2d 44
        E 32 b1 0b 3b
        E 16 b1 0b 33
        E 16 b1 0b 2a
        E 32 b1 0b 22
        E 16 b1 0b 19
        E 16 b1 0b 11
        E 16 b1 0b 44
        E 0 81 2d 00
        E 0 91 2e 44
        E 32 b1 0b 3b
        E 16 b1 0b 33
        E 16 b1 0b 2a
        E 32 b1 0b 22
        E 16 b1 0b 19
        E 16 b1 0b 11
        E 16 b1 0b 44
        E 0 81 2e 00
        E 0 91 26 44
        E 32 b1 0b 3b
        E 16 b1 0b 33
        E 16 b1 0b 2a
        E 32 b1 0b 22
        E 16 b1 0b 19
        E 16 b1 0b 11
        E 16 b1 0b 44
        E 0 81 26 00
        E 0 91 2b 44
        E 32 b1 0b 3b
        E 16 b1 0b 33
        E 16 b1 0b 2a
        E 32 b1 0b 22
        E 16 b1 0b 19
        E 16 b1 0b 11
        E 16 b1 0b 44
        E 0 81 2b 00
        E 0 91 2d 44
        E 32 b1 0b 3b
        E 16 b1 0b 33
        E 16 b1 0b 2a
        E 32 b1 0b 22
        E 16 b1 0b 19
        E 16 b1 0b 11
        E 16 b1 0b 44
        E 0 81 2d 00
        E 0 91 2e 44
        E 32 b1 0b 3b
        E 16 b1 0b 33
        E 16 b1 0b 2a
        E 32 b1 0b 22
        E 16 b1 0b 19
        E 16 b1 0b 11
        E 16 b1 0b 44
        E 0 81 2e 00
        E 0 91 32 44
        E 32 b1 0b 3b
        E 16 b1 0b 33
        E 16 b1 0b 2a
        E 32 b1 0b 22
        E 16 b1 0b 19
        E 16 b1 0b 11
        E 16 b1 0b 44
        E 0 81 32 00
        E 0 91 37 44
        E 32 b1 0b 3b
        E 16 b1 0b 33
        E 16 b1 0b 2a
        E 32 b1 0b 22
        E 16 b1 0b 19
        E 16 b1 0b 11
        E 16 b1 0b 44
        E 0 81 37 00
        E 0 91 39 44
        E 32 b1 0b 3b
        E 16 b1 0b 33
        E 16 b1 0b 2a
        E 32 b1 0b 22
        E 16 b1 0b 19
        E 16 b1 0b 11
        E 16 b1 0b 44
        E 0 81 39 00
        E 0 91 3a 44
        E 32 b1 0b 3b
        E 16 b1 0b 33
        E 16 b1 0b 2a
        E 32 b1 0b 22
        E 16 b1 0b 19
        E 16 b1 0b 11
        E 16 b1 0b 44
        E 0 81 3a 00
        E 0 91 3e 44
        E 32 b1 0b 3b
        E 16 b1 0b 33
        E 16 b1 0b 2a
        E 32 b1 0b 22
        E 16 b1 0b 19
        E 16 b1 0b 11
        E 16 b1 0b 44
        E 0 81 3e 00
        E 0 91 43 44
        E 32 b1 0b 3b
        E 16 b1 0b 33
        E 16 b1 0b 2a
        E 32 b1 0b 22
        E 16 b1 0b 19
        E 16 b1 0b 11
        E 16 b1 0b 44
        E 0 81 43 00
        E 0 91 45 44
        E 32 b1 0b 3b
        E 16 b1 0b 33
        E 16 b1 0b 2a
        E 32 b1 0b 22
        E 16 b1 0b 19
        E 16 b1 0b 11
        E 16 b1 0b 44
        E 0 81 45 00
        E 0 91 46 44
        E 32 b1 0b 3b
        E 16 b1 0b 33
        E 16 b1 0b 2a
        E 32 b1 0b 22
        E 16 b1 0b 19
        E 16 b1 0b 11
        E 16 b1 0b 44
        E 0 81 46 00
        E 0 91 4a 44
        E 32 b1 0b 3b
        E 16 b1 0b 33
        E 16 b1 0b 2a
        E 32 b1 0b 22
        E 16 b1 0b 19
        E 16 b1 0b 11
        E 16 b1 0b 44
        E 0 81 4a 00
        E 0 91 4f 44
        E 32 b1 0b 3b
        E 16 b1 0b 33
        E 16 b1 0b 2a
        E 32 b1 0b 22
        E 16 b1 0b 19
        E 16 b1 0b 11
        E 16 b1 0b 44
        E 0 81 4f 00
        E 0 91 4a 44
        E 32 b1 0b 3b
        E 16 b1 0b 33
        E 16 b1 0b 2a
        E 32 b1 0b 22
        E 16 b1 0b 19
        E 16 b1 0b 11
        E 16 b1 0b 44
        E 0 81 4a 00
        E 0 91 46 44
        E 32 b1 0b 3b
        E 16 b1 0b 33
        E 16 b1 0b 2a
        E 32 b1 0b 22
        E 16 b1 0b 19
        E 16 b1 0b 11
        E 16 b1 0b 44
        E 0 81 46 00
        E 0 91 45 44
        E 32 b1 0b 3b
        E 16 b1 0b 33
        E 16 b1 0b 2a
        E 32 b1 0b 22
        E 16 b1 0b 19
        E 16 b1 0b 11
        E 16 b1 0b 44
        E 0 81 45 00
        E 0 91 43 44
        E 32 b1 0b 3b
        E 16 b1 0b 33
        E 16 b1 0b 2a
        E 32 b1 0b 22
        E 16 b1 0b 19
        E 16 b1 0b 11
        E 16 b1 0b 44
        E 0 81 43 00
        E 0 91 3e 44
        E 32 b1 0b 3b
        E 16 b1 0b 33
        E 16 b1 0b 2a
        E 32 b1 0b 22
        E 16 b1 0b 19
        E 16 b1 0b 11
        E 16 b1 0b 44
        E 0 81 3e 00
        E 0 91 3a 44
        E 32 b1 0b 3b
        E 16 b1 0b 33
        E 16 b1 0b 2a
        E 32 b1 0b 22
        E 16 b1 0b 19
        E 16 b1 0b 11
        E 16 b1 0b 44
        E 0 81 3a 00
        E 0 91 39 44
        E 32 b1 0b 3b
        E 16 b1 0b 33
        E 16 b1 0b 2a
        E 32 b1 0b 22
        E 16 b1 0b 19
        E 16 b1 0b 11
        E 16 b1 0b 44
        E 0 81 39 00
        E 0 91 37 44
        E 32 b1 0b 3b
        E 16 b1 0b 33
        E 16 b1 0b 2a
        E 32 b1 0b 22
        E 16 b1 0b 19
        E 16 b1 0b 11
        E 16 b1 0b 44
        E 0 81 37 00
        E 0 91 32 44
        E 32 b1 0b 3b
        E 16 b1 0b 33
        E 16 b1 0b 2a
        E 32 b1 0b 22
        E 16 b1 0b 19
        E 16 b1 0b 11
        E 16 b1 0b 44
        E 0 81 32 00
        E 0 91 2e 44
        E 32 b1 0b 3b
        E 16 b1 0b 33
        E 16 b1 0b 2a
        E 32 b1 0b 22
        E 16 b1 0b 19
        E 16 b1 0b 11
        E 16 b1 0b 44
        E 0 81 2e 00
        E 0 91 2d 44
        E 32 b1 0b 3b
        E 16 b1 0b 33
        E 16 b1 0b 2a
        E 32 b1 0b 22
        E 16 b1 0b 19
        E 16 b1 0b 11
        E 16 b1 0b 44
        E 0 81 2d 00
        E 0 91 2b 44
        E 32 b1 0b 3b
        E 16 b1 0b 33
        E 16 b1 0b 2a
        E 32 b1 0b 22
        E 16 b1 0b 19
        E 16 b1 0b 11
        E 16 b1 0b 44
        E 0 81 2b 00
        E 0 91 26 44
        E 32 b1 0b 3b
        E 16 b1 0b 33
        E 16 b1 0b 2a
        E 32 b1 0b 22
        E 16 b1 0b 19
        E 16 b1 0b 11
        E 16 b1 0b 44
        E 0 81 26 00
        E 0 91 2e 44
        E 32 b1 0b 3b
        E 16 b1 0b 33
        E 16 b1 0b 2a
        E 32 b1 0b 22
        E 16 b1 0b 19
        E 16 b1 0b 11
        E 16 b1 0b 44
        E 0 81 2e 00
        E 0 91 2d 44
        E 32 b1 0b 3b
        E 16 b1 0b 33
        E 16 b1 0b 2a
        E 32 b1 0b 22
        E 16 b1 0b 19
        E 16 b1 0b 11
        E 16 b1 0b 44
        E 0 81 2d 00
        E 0 91 2b 44
        E 32 b1 0b 3b
        E 16 b1 0b 33
        E 16 b1 0b 2a
        E 32 b1 0b 22
        E 16 b1 0b 19
        E 16 b1 0b 11
        E 16 b1 0b 44
        E 0 81 2b 00
        E 0 91 2e 44
        E 32 b1 0b 3b
        E 16 b1 0b 33
        E 16 b1 0b 2a
        E 32 b1 0b 22
        E 16 b1 0b 19
        E 16 b1 0b 11
        E 16 b1 0b 44
        E 0 81 2e 00
        E 0 91 27 44
        E 32 b1 0b 3b
        E 16 b1 0b 33
        E 16 b1 0b 2a
        E 32 b1 0b 22
        E 16 b1 0b 19
        E 16 b1 0b 11
        E 16 b1 0b 44
        E 0 81 27 00
        E 0 91 29 44
        E 32 b1 0b 3b
        E 16 b1 0b 33
        E 16 b1 0b 2a
        E 32 b1 0b 22
        E 16 b1 0b 19
        E 16 b1 0b 11
        E 16 b1 0b 44
        E 0 81 29 00
        E 0 91 2b 44
        E 32 b1 0b 3b
        E 16 b1 0b 33
        E 16 b1 0b 2a
        E 32 b1 0b 22
        E 16 b1 0b 19
        E 16 b1 0b 11
        E 16 b1 0b 44
        E 0 81 2b 00
        E 0 91 2e 44
        E 32 b1 0b 3b
        E 16 b1 0b 33
        E 16 b1 0b 2a
        E 32 b1 0b 22
        E 16 b1 0b 19
        E 16 b1 0b 11
        E 16 b1 0b 44
        E 0 81 2e 00
        E 0 91 33 44
        E 32 b1 0b 3b
        E 16 b1 0b 33
        E 16 b1 0b 2a
        E 32 b1 0b 22
        E 16 b1 0b 19
        E 16 b1 0b 11
        E 16 b1 0b 44
        E 0 81 33 00
        E 0 91 35 44
        E 32 b1 0b 3b
        E 16 b1 0b 33
        E 16 b1 0b 2a
        E 32 b1 0b 22
        E 16 b1 0b 19
        E 16 b1 0b 11
        E 16 b1 0b 44
        E 0 81 35 00
        E 0 91 37 44
        E 32 b1 0b 3b
        E 16 b1 0b 33
        E 16 b1 0b 2a
        E 32 b1 0b 22
        E 16 b1 0b 19
        E 16 b1 0b 11
        E 16 b1 0b 44
        E 0 81 37 00
        E 0 91 3a 44
        E 32 b1 0b 3b
        E 16 b1 0b 33
        E 16 b1 0b 2a
        E 32 b1 0b 22
        E 16 b1 0b 19
        E 16 b1 0b 11
        E 16 b1 0b 44
        E 0 81 3a 00
        E 0 91 3f 44
        E 32 b1 0b 3b
        E 16 b1 0b 33
        E 16 b1 0b 2a
        E 32 b1 0b 22
        E 16 b1 0b 19
        E 16 b1 0b 11
        E 16 b1 0b 44
        E 0 81 3f 00
        E 0 91 41 44
        E 32 b1 0b 3b
        E 16 b1 0b 33
        E 16 b1 0b 2a
        E 32 b1 0b 22
        E 16 b1 0b 19
        E 16 b1 0b 11
        E 16 b1 0b 44
        E 0 81 41 00
        E 0 91 43 44
        E 32 b1 0b 3b
        E 16 b1 0b 33
        E 16 b1 0b 2a
        E 32 b1 0b 22
        E 16 b1 0b 19
        E 16 b1 0b 11
        E 16 b1 0b 44
        E 0 81 43 00
        E 0 91 46 44
        E 32 b1 0b 3b
        E 16 b1 0b 33
        E 16 b1 0b 2a
        E 32 b1 0b 22
        E 16 b1 0b 19
        E 16 b1 0b 11
        E 16 b1 0b 44
        E 0 81 46 00
        E 0 91 4b 44
        E 32 b1 0b 3b
        E 16 b1 0b 33
        E 16 b1 0b 2a
        E 32 b1 0b 22
        E 16 b1 0b 19
        E 16 b1 0b 11
        E 16 b1 0b 44
        E 0 81 4b 00
        E 0 91 4d 44
        E 32 b1 0b 3b
        E 16 b1 0b 33
        E 16 b1 0b 2a
        E 32 b1 0b 22
        E 16 b1 0b 19
        E 16 b1 0b 11
        E 16 b1 0b 44
        E 0 81 4d 00
        E 0 91 4f 44
        E 32 b1 0b 3b
        E 16 b1 0b 33
        E 16 b1 0b 2a
        E 32 b1 0b 22
        E 16 b1 0b 19
        E 16 b1 0b 11
        E 16 b1 0b 44
        E 0 81 4f 00
        E 0 91 4d 44
        E 32 b1 0b 3b
        E 16 b1 0b 33
        E 16 b1 0b 2a
        E 32 b1 0b 22
        E 16 b1 0b 19
        E 16 b1 0b 11
        E 16 b1 0b 44
        E 0 81 4d 00
        E 0 91 4b 44
        E 32 b1 0b 3b
        E 16 b1 0b 33
        E 16 b1 0b 2a
        E 32 b1 0b 22
        E 16 b1 0b 19
        E 16 b1 0b 11
        E 16 b1 0b 44
        E 0 81 4b 00
        E 0 91 46 44
        E 32 b1 0b 3b
        E 16 b1 0b 33
        E 16 b1 0b 2a
        E 32 b1 0b 22
        E 16 b1 0b 19
        E 16 b1 0b 11
        E 16 b1 0b 44
        E 0 81 46 00
        E 0 91 43 44
        E 32 b1 0b 3b
        E 16 b1 0b 33
        E 16 b1 0b 2a
        E 32 b1 0b 22
        E 16 b1 0b 19
        E 16 b1 0b 11
        E 16 b1 0b 44
        E 0 81 43 00
        E 0 91 41 44
        E 32 b1 0b 3b
        E 16 b1 0b 33
        E 16 b1 0b 2a
        E 32 b1 0b 22
        E 16 b1 0b 19
        E 16 b1 0b 11
        E 16 b1 0b 44
        E 0 81 41 00
        E 0 91 3f 44
        E 32 b1 0b 3b
        E 16 b1 0b 33
        E 16 b1 0b 2a
        E 32 b1 0b 22
        E 16 b1 0b 19
        E 16 b1 0b 11
        E 16 b1 0b 44
        E 0 81 3f 00
        E 0 91 3a 44
        E 32 b1 0b 3b
        E 16 b1 0b 33
        E 16 b1 0b 2a
        E 32 b1 0b 22
        E 16 b1 0b 19
        E 16 b1 0b 11
        E 16 b1 0b 44
        E 0 81 3a 00
        E 0 91 37 44
        E 32 b1 0b 3b
        E 16 b1 0b 33
        E 16 b1 0b 2a
        E 32 b1 0b 22
        E 16 b1 0b 19
        E 16 b1 0b 11
        E 16 b1 0b 44
        E 0 81 37 00
        E 0 91 35 44
        E 32 b1 0b 3b
        E 16 b1 0b 33
        E 16 b1 0b 2a
        E 32 b1 0b 22
        E 16 b1 0b 19
        E 16 b1 0b 11
        E 16 b1 0b 44
        E 0 81 35 00
        E 0 91 33 44
        E 32 b1 0b 3b
        E 16 b1 0b 33
        E 16 b1 0b 2a
        E 32 b1 0b 22
        E 16 b1 0b 19
        E 16 b1 0b 11
        E 16 b1 0b 44
        E 0 81 33 00
        E 0 91 2e 44
        E 32 b1 0b 3b
        E 16 b1 0b 33
        E 16 b1 0b 2a
        E 32 b1 0b 22
        E 16 b1 0b 19
        E 16 b1 0b 11
        E 16 b1 0b 44
        E 0 81 2e 00
        E 0 91 2b 44
        E 32 b1 0b 3b
        E 16 b1 0b 33
        E 16 b1 0b 2a
        E 32 b1 0b 22
        E 16 b1 0b 19
        E 16 b1 0b 11
        E 16 b1 0b 44
        E 0 81 2b 00
        E 0 91 29 44
        E 32 b1 0b 3b
        E 16 b1 0b 33
        E 16 b1 0b 2a
        E 32 b1 0b 22
        E 16 b1 0b 19
        E 16 b1 0b 11
        E 16 b1 0b 44
        E 0 81 29 00
        E 0 91 27 44
        E 32 b1 0b 3b
        E 16 b1 0b 33
        E 16 b1 0b 2a
        E 32 b1 0b 22
        E 16 b1 0b 19
        E 16 b1 0b 11
        E 16 b1 0b 44
        E 0 81 27 00
        E 0 91 2e 44
        E 32 b1 0b 3b
        E 16 b1 0b 33
        E 16 b1 0b 2a
        E 32 b1 0b 22
        E 16 b1 0b 19
        E 16 b1 0b 11
        E 16 b1 0b 44
        E 0 81 2e 00
        E 0 91 2d 44
        E 32 b1 0b 3b
        E 16 b1 0b 33
        E 16 b1 0b 2a
        E 32 b1 0b 22
        E 16 b1 0b 19
        E 16 b1 0b 11
        E 16 b1 0b 44
        E 0 81 2d 00
        E 0 91 24 44
        E 32 b1 0b 3b
        E 16 b1 0b 33
        E 16 b1 0b 2a
        E 32 b1 0b 22
        E 16 b1 0b 19
        E 16 b1 0b 11
        E 16 b1 0b 44
        E 0 81 24 00
        E 0 91 29 44
        E 32 b1 0b 3b
        E 16 b1 0b 33
        E 16 b1 0b 2a
        E 32 b1 0b 22
        E 16 b1 0b 19
        E 16 b1 0b 11
        E 16 b1 0b 44
        E 0 81 29 00
        E 0 91 2b 44
        E 32 b1 0b 3b
        E 16 b1 0b 33
        E 16 b1 0b 2a
        E 32 b1 0b 22
        E 16 b1 0b 19
        E 16 b1 0b 11
        E 16 b1 0b 44
        E 0 81 2b 00
        E 0 91 2d 44
        E 32 b1 0b 3b
        E 16 b1 0b 33
        E 16 b1 0b 2a
        E 32 b1 0b 22
        E 16 b1 0b 19
        E 16 b1 0b 11
        E 16 b1 0b 44
        E 0 81 2d 00
        E 0 91 30 44
        E 32 b1 0b 3b
        E 16 b1 0b 33
        E 16 b1 0b 2a
        E 32 b1 0b 22
        E 16 b1 0b 19
        E 16 b1 0b 11
        E 16 b1 0b 44
        E 0 81 30 00
        E 0 91 35 44
        E 32 b1 0b 3b
        E 16 b1 0b 33
        E 16 b1 0b 2a
        E 32 b1 0b 22
        E 16 b1 0b 19
        E 16 b1 0b 11
        E 16 b1 0b 44
        E 0 81 35 00
        E 0 91 37 44
        E 32 b1 0b 3b
        E 16 b1 0b 33
        E 16 b1 0b 2a
        E 32 b1 0b 22
        E 16 b1 0b 19
        E 16 b1 0b 11
        E 16 b1 0b 44
        E 0 81 37 00
        E 0 91 39 44
        E 32 b1 0b 3b
        E 16 b1 0b 33
        E 16 b1 0b 2a
        E 32 b1 0b 22
        E 16 b1 0b 19
        E 16 b1 0b 11
        E 16 b1 0b 44
        E 0 81 39 00
        E 0 91 3c 44
        E 32 b1 0b 3b
        E 16 b1 0b 33
        E 16 b1 0b 2a
        E 32 b1 0b 22
        E 16 b1 0b 19
        E 16 b1 0b 11
        E 16 b1 0b 44
        E 0 81 3c 00
        E 0 91 41 44
        E 32 b1 0b 3b
        E 16 b1 0b 33
        E 16 b1 0b 2a
        E 32 b1 0b 22
        E 16 b1 0b 19
        E 16 b1 0b 11
        E 16 b1 0b 44
        E 0 81 41 00
        E 0 91 43 44
        E 32 b1 0b 3b
        E 16 b1 0b 33
        E 16 b1 0b 2a
        E 32 b1 0b 22
        E 16 b1 0b 19
        E 16 b1 0b 11
        E 16 b1 0b 44
        E 0 81 43 00
        E 0 91 45 44
        E 32 b1 0b 3b
        E 16 b1 0b 33
        E 16 b1 0b 2a
        E 32 b1 0b 22
        E 16 b1 0b 19
        E 16 b1 0b 11
        E 16 b1 0b 44
        E 0 81 45 00
        E 0 91 48 44
        E 32 b1 0b 3b
        E 16 b1 0b 33
        E 16 b1 0b 2a
        E 32 b1 0b 22
        E 16 b1 0b 19
        E 16 b1 0b 11
        E 16 b1 0b 44
        E 0 81 48 00
        E 0 91 4d 44
        E 32 b1 0b 3b
        E 16 b1 0b 33
        E 16 b1 0b 2a
        E 32 b1 0b 22
        E 16 b1 0b 19
        E 16 b1 0b 11
        E 16 b1 0b 44
        E 0 81 4d 00
        E 0 91 4f 44
        E 32 b1 0b 3b
        E 16 b1 0b 33
        E 16 b1 0b 2a
        E 32 b1 0b 22
        E 16 b1 0b 19
        E 16 b1 0b 11
        E 16 b1 0b 44
        E 0 81 4f 00
        E 0 91 51 44
        E 32 b1 0b 3b
        E 16 b1 0b 33
        E 16 b1 0b 2a
        E 32 b1 0b 22
        E 16 b1 0b 19
        E 16 b1 0b 11
        E 16 b1 0b 44
        E 0 81 51 00
        E 0 91 4f 44
        E 32 b1 0b 3b
        E 16 b1 0b 33
        E 16 b1 0b 2a
        E 32 b1 0b 22
        E 16 b1 0b 19
        E 16 b1 0b 11
        E 16 b1 0b 44
        E 0 81 4f 00
        E 0 91 4d 44
        E 32 b1 0b 3b
        E 16 b1 0b 33
        E 16 b1 0b 2a
        E 32 b1 0b 22
        E 16 b1 0b 19
        E 16 b1 0b 11
        E 16 b1 0b 44
        E 0 81 4d 00
        E 0 91 48 44
        E 32 b1 0b 3b
        E 16 b1 0b 33
        E 16 b1 0b 2a
        E 32 b1 0b 22
        E 16 b1 0b 19
        E 16 b1 0b 11
        E 16 b1 0b 44
        E 0 81 48 00
        E 0 91 45 44
        E 32 b1 0b 3b
        E 16 b1 0b 33
        E 16 b1 0b 2a
        E 32 b1 0b 22
        E 16 b1 0b 19
        E 16 b1 0b 11
        E 16 b1 0b 44
        E 0 81 45 00
        E 0 91 43 44
        E 32 b1 0b 3b
        E 16 b1 0b 33
        E 16 b1 0b 2a
        E 32 b1 0b 22
        E 16 b1 0b 19
        E 16 b1 0b 11
        E 16 b1 0b 44
        E 0 81 43 00
        E 0 91 41 44
        E 32 b1 0b 3b
        E 16 b1 0b 33
        E 16 b1 0b 2a
        E 32 b1 0b 22
        E 16 b1 0b 19
        E 16 b1 0b 11
        E 16 b1 0b 44
        E 0 81 41 00
        E 0 91 3c 44
        E 32 b1 0b 3b
        E 16 b1 0b 33
        E 16 b1 0b 2a
        E 32 b1 0b 22
        E 16 b1 0b 19
        E 16 b1 0b 11
        E 16 b1 0b 44
        E 0 81 3c 00
        E 0 91 39 44
        E 32 b1 0b 3b
        E 16 b1 0b 33
        E 16 b1 0b 2a
        E 32 b1 0b 22
        E 16 b1 0b 19
        E 16 b1 0b 11
        E 16 b1 0b 44
        E 0 81 39 00
        E 0 91 37 44
        E 32 b1 0b 3b
        E 16 b1 0b 33
        E 16 b1 0b 2a
        E 32 b1 0b 22
        E 16 b1 0b 19
        E 16 b1 0b 11
        E 16 b1 0b 44
        E 0 81 37 00
        E 0 91 35 44
        E 32 b1 0b 3b
        E 16 b1 0b 33
        E 16 b1 0b 2a
        E 32 b1 0b 22
        E 16 b1 0b 19
        E 16 b1 0b 11
        E 16 b1 0b 44
        E 0 81 35 00
        E 0 91 30 44
        E 32 b1 0b 3b
        E 16 b1 0b 33
        E 16 b1 0b 2a
        E 32 b1 0b 22
        E 16 b1 0b 19
        E 16 b1 0b 11
        E 16 b1 0b 44
        E 0 81 30 00
        E 0 91 2d 44
        E 32 b1 0b 3b
        E 16 b1 0b 33
        E 16 b1 0b 2a
        E 32 b1 0b 22
        E 16 b1 0b 19
        E 16 b1 0b 11
        E 16 b1 0b 44
        E 0 81 2d 00
        E 0 91 2b 44
        E 32 b1 0b 3b
        E 16 b1 0b 33
        E 16 b1 0b 2a
        E 32 b1 0b 22
        E 16 b1 0b 19
        E 16 b1 0b 11
        E 16 b1 0b 44
        E 0 81 2b 00
        E 0 91 29 44
        E 32 b1 0b 3b
        E 16 b1 0b 33
        E 16 b1 0b 2a
        E 32 b1 0b 22
        E 16 b1 0b 19
        E 16 b1 0b 11
        E 16 b1 0b 44
        E 0 81 29 00
        E 0 91 24 44
        E 32 b1 0b 3b
        E 16 b1 0b 33
        E 16 b1 0b 2a
        E 32 b1 0b 22
        E 16 b1 0b 19
        E 16 b1 0b 11
        E 16 b1 0b 44
        E 0 81 24 00
        E 0 91 2a 44
        E 32 b1 0b 3b
        E 16 b1 0b 33
        E 16 b1 0b 2a
        E 32 b1 0b 22
        E 16 b1 0b 19
        E 16 b1 0b 11
        E 16 b1 0b 44
        E 0 81 2a 00
        E 0 91 2e 44
        E 32 b1 0b 3b
        E 16 b1 0b 33
        E 16 b1 0b 2a
        E 32 b1 0b 22
        E 16 b1 0b 19
        E 16 b1 0b 11
        E 16 b1 0b 44
        E 0 81 2e 00
        E 0 91 25 44
        E 32 b1 0b 3b
        E 16 b1 0b 33
        E 16 b1 0b 2a
        E 32 b1 0b 22
        E 16 b1 0b 19
        E 16 b1 0b 11
        E 16 b1 0b 44
        E 0 81 25 00
        E 0 91 29 44
        E 32 b1 0b 3b
        E 16 b1 0b 33
        E 16 b1 0b 2a
        E 32 b1 0b 22
        E 16 b1 0b 19
        E 16 b1 0b 11
        E 16 b1 0b 44
        E 0 81 29 00
        E 0 91 2a 44
        E 32 b1 0b 3b
        E 16 b1 0b 33
        E 16 b1 0b 2a
        E 32 b1 0b 22
        E 16 b1 0b 19
        E 16 b1 0b 11
        E 16 b1 0b 44
        E 0 81 2a 00
        E 0 91 2e 44
        E 32 b1 0b 3b
        E 16 b1 0b 33
        E 16 b1 0b 2a
        E 32 b1 0b 22
        E 16 b1 0b 19
        E 16 b1 0b 11
        E 16 b1 0b 44
        E 0 81 2e 00
        E 0 91 31 44
        E 32 b1 0b 3b
        E 16 b1 0b 33
        E 16 b1 0b 2a
        E 32 b1 0b 22
        E 16 b1 0b 19
        E 16 b1 0b 11
        E 16 b1 0b 44
        E 0 81 31 00
        E 0 91 35 44
        E 32 b1 0b 3b
        E 16 b1 0b 33
        E 16 b1 0b 2a
        E 32 b1 0b 22
        E 16 b1 0b 19
        E 16 b1 0b 11
        E 16 b1 0b 44
        E 0 81 35 00
        E 0 91 36 44
        E 32 b1 0b 3b
        E 16 b1 0b 33
        E 16 b1 0b 2a
        E 32 b1 0b 22
        E 16 b1 0b 19
        E 16 b1 0b 11
        E 16 b1 0b 44
        E 0 81 36 00
        E 0 91 3a 44
        E 32 b1 0b 3b
        E 16 b1 0b 33
        E 16 b1 0b 2a
        E 32 b1 0b 22
        E 16 b1 0b 19
        E 16 b1 0b 11
        E 16 b1 0b 44
        E 0 81 3a 00
        E 0 91 3d 44
        E 32 b1 0b 3b
        E 16 b1 0b 33
        E 16 b1 0b 2a
        E 32 b1 0b 22
        E 16 b1 0b 19
        E 16 b1 0b 11
        E 16 b1 0b 44
        E 0 81 3d 00
        E 0 91 41 44
        E 32 b1 0b 3b
        E 16 b1 0b 33
        E 16 b1 0b 2a
        E 32 b1 0b 22
        E 16 b1 0b 19
        E 16 b1 0b 11
        E 16 b1 0b 44
        E 0 81 41 00
        E 0 91 42 44
        E 32 b1 0b 3b
        E 16 b1 0b 33
        E 16 b1 0b 2a
        E 32 b1 0b 22
        E 16 b1 0b 19
        E 16 b1 0b 11
        E 16 b1 0b 44
        E 0 81 42 00
        E 0 91 46 44
        E 32 b1 0b 3b
        E 16 b1 0b 33
        E 16 b1 0b 2a
        E 32 b1 0b 22
        E 16 b1 0b 19
        E 16 b1 0b 11
        E 16 b1 0b 44
        E 0 81 46 00
        E 0 91 49 44
        E 32 b1 0b 3b
        E 16 b1 0b 33
        E 16 b1 0b 2a
        E 32 b1 0b 22
        E 16 b1 0b 19
        E 16 b1 0b 11
        E 16 b1 0b 44
        E 0 81 49 00
        E 0 91 4d 44
        E 32 b1 0b 3b
        E 16 b1 0b 33
        E 16 b1 0b 2a
        E 32 b1 0b 22
        E 16 b1 0b 19
        E 16 b1 0b 11
        E 16 b1 0b 44
        E 0 81 4d 00
        E 0 91 4e 44
        E 32 b1 0b 3b
        E 16 b1 0b 33
        E 16 b1 0b 2a
        E 32 b1 0b 22
        E 16 b1 0b 19
        E 16 b1 0b 11
        E 16 b1 0b 44
        E 0 81 4e 00
        E 0 91 4d 44
        E 32 b1 0b 3b
        E 16 b1 0b 33
        E 16 b1 0b 2a
        E 32 b1 0b 22
        E 16 b1 0b 19
        E 16 b1 0b 11
        E 16 b1 0b 44
        E 0 81 4d 00
        E 0 91 49 44
        E 32 b1 0b 3b
        E 16 b1 0b 33
        E 16 b1 0b 2a
        E 32 b1 0b 22
        E 16 b1 0b 19
        E 16 b1 0b 11
        E 16 b1 0b 44
        E 0 81 49 00
        E 0 91 46 44
        E 32 b1 0b 3b
        E 16 b1 0b 33
        E 16 b1 0b 2a
        E 32 b1 0b 22
        E 16 b1 0b 19
        E 16 b1 0b 11
        E 16 b1 0b 44
        E 0 81 46 00
        E 0 91 42 44
        E 32 b1 0b 3b
        E 16 b1 0b 33
        E 16 b1 0b 2a
        E 32 b1 0b 22
        E 16 b1 0b 19
        E 16 b1 0b 11
        E 16 b1 0b 44
        E 0 81 42 00
        E 0 91 41 44
        E 32 b1 0b 3b
        E 16 b1 0b 33
        E 16 b1 0b 2a
        E 32 b1 0b 22
        E 16 b1 0b 19
        E 16 b1 0b 11
        E 16 b1 0b 44
        E 0 81 41 00
        E 0 91 3d 44
        E 32 b1 0b 3b
        E 16 b1 0b 33
        E 16 b1 0b 2a
        E 32 b1 0b 22
        E 16 b1 0b 19
        E 16 b1 0b 11
        E 16 b1 0b 44
        E 0 81 3d 00
        E 0 91 3a 44
        E 32 b1 0b 3b
        E 16 b1 0b 33
        E 16 b1 0b 2a
        E 32 b1 0b 22
        E 16 b1 0b 19
        E 16 b1 0b 11
        E 16 b1 0b 44
        E 0 81 3a 00
        E 0 91 36 44
        E 32 b1 0b 3b
        E 16 b1 0b 33
        E 16 b1 0b 2a
        E 32 b1 0b 22
        E 16 b1 0b 19
        E 16 b1 0b 11
        E 16 b1 0b 44
        E 0 81 36 00
        E 0 91 35 44
        E 32 b1 0b 3b
        E 16 b1 0b 33
        E 16 b1 0b 2a
        E 32 b1 0b 22
        E 16 b1 0b 19
        E 16 b1 0b 11
        E 16 b1 0b 44
        E 0 81 35 00
        E 0 91 31 44
        E 32 b1 0b 3b
        E 16 b1 0b 33
        E 16 b1 0b 2a
        E 32 b1 0b 22
        E 16 b1 0b 19
        E 16 b1 0b 11
        E 16 b1 0b 44
        E 0 81 31 00
        E 0 91 2e 44
        E 32 b1 0b 3b
        E 16 b1 0b 33
        E 16 b1 0b 2a
        E 32 b1 0b 22
        E 16 b1 0b 19
        E 16 b1 0b 11
        E 16 b1 0b 44
        E 0 81 2e 00
        E 0 91 2a 44
        E 32 b1 0b 3b
        E 16 b1 0b 33
        E 16 b1 0b 2a
        E 32 b1 0b 22
        E 16 b1 0b 19
        E 16 b1 0b 11
        E 16 b1 0b 44
        E 0 81 2a 00
        E 0 91 29 44
        E 32 b1 0b 3b
        E 16 b1 0b 33
        E 16 b1 0b 2a
        E 32 b1 0b 22
        E 16 b1 0b 19
        E 16 b1 0b 11
        E 16 b1 0b 44
        E 0 81 29 00
        E 0 91 25 44
        E 32 b1 0b 3b
        E 16 b1 0b 33
        E 16 b1 0b 2a
        E 32 b1 0b 22
        E 16 b1 0b 19
        E 16 b1 0b 11
        E 16 b1 0b 44
        E 0 81 25 00
        E 0 91 2e 44
        E 32 b1 0b 3b
        E 16 b1 0b 33
        E 16 b1 0b 2a
        E 32 b1 0b 22
        E 16 b1 0b 19
        E 16 b1 0b 11
        E 16 b1 0b 44
        E 0 81 2e 00
        E 0 91 2c 44
        E 32 b1 0b 3b
        E 16 b1 0b 33
        E 16 b1 0b 2a
        E 32 b1 0b 22
        E 16 b1 0b 19
        E 16 b1 0b 11
        E 16 b1 0b 44
        E 0 81 2c 00
        E 0 91 24 44
        E 32 b1 0b 3b
        E 16 b1 0b 33
        E 16 b1 0b 2a
        E 32 b1 0b 22
        E 16 b1 0b 19
        E 16 b1 0b 11
        E 16 b1 0b 44
        E 0 81 24 00
        E 0 91 27 44
        E 32 b1 0b 3b
        E 16 b1 0b 33
        E 16 b1 0b 2a
        E 32 b1 0b 22
        E 16 b1 0b 19
        E 16 b1 0b 11
        E 16 b1 0b 44
        E 0 81 27 00
        E 0 91 2b 44
        E 32 b1 0b 3b
        E 16 b1 0b 33
        E 16 b1 0b 2a
        E 32 b1 0b 22
        E 16 b1 0b 19
        E 16 b1 0b 11
        E 16 b1 0b 44
        E 0 81 2b 00
        E 0 91 2c 44
        E 32 b1 0b 3b
        E 16 b1 0b 33
        E 16 b1 0b 2a
        E 32 b1 0b 22
        E 16 b1 0b 19
        E 16 b1 0b 11
        E 16 b1 0b 44
        E 0 81 2c 00
        E 0 91 30 44
        E 32 b1 0b 3b
        E 16 b1 0b 33
        E 16 b1 0b 2a
        E 32 b1 0b 22
        E 16 b1 0b 19
        E 16 b1 0b 11
        E 16 b1 0b 44
        E 0 81 30 00
        E 0 91 33 44
        E 32 b1 0b 3b
        E 16 b1 0b 33
        E 16 b1 0b 2a
        E 32 b1 0b 22
        E 16 b1 0b 19
        E 16 b1 0b 11
        E 16 b1 0b 44
        E 0 81 33 00
        E 0 91 37 44
        E 32 b1 0b 3b
        E 16 b1 0b 33
        E 16 b1 0b 2a
        E 32 b1 0b 22
        E 16 b1 0b 19
        E 16 b1 0b 11
        E 16 b1 0b 44
        E 0 81 37 00
        E 0 91 38 44
        E 32 b1 0b 3b
        E 16 b1 0b 33
        E 16 b1 0b 2a
        E 32 b1 0b 22
        E 16 b1 0b 19
        E 16 b1 0b 11
        E 16 b1 0b 44
        E 0 81 38 00
        E 0 91 3c 44
        E 32 b1 0b 3b
        E 16 b1 0b 33
        E 16 b1 0b 2a
        E 32 b1 0b 22
        E 16 b1 0b 19
        E 16 b1 0b 11
        E 16 b1 0b 44
        E 0 81 3c 00
        E 0 91 3f 44
        E 32 b1 0b 3b
        E 16 b1 0b 33
        E 16 b1 0b 2a
        E 32 b1 0b 22
        E 16 b1 0b 19
        E 16 b1 0b 11
        E 16 b1 0b 44
        E 0 81 3f 00
        E 0 91 43 44
        E 32 b1 0b 3b
        E 16 b1 0b 33
        E 16 b1 0b 2a
        E 32 b1 0b 22
        E 16 b1 0b 19
        E 16 b1 0b 11
        E 16 b1 0b 44
        E 0 81 43 00
        E 0 91 44 44
        E 32 b1 0b 3b
        E 16 b1 0b 33
        E 16 b1 0b 2a
        E 32 b1 0b 22
        E 16 b1 0b 19
        E 16 b1 0b 11
        E 16 b1 0b 44
        E 0 81 44 00
        E 0 91 48 44
        E 32 b1 0b 3b
        E 16 b1 0b 33
        E 16 b1 0b 2a
        E 32 b1 0b 22
        E 16 b1 0b 19
        E 16 b1 0b 11
        E 16 b1 0b 44
        E 0 81 48 00
        E 0 91 4b 44
        E 32 b1 0b 3b
        E 16 b1 0b 33
        E 16 b1 0b 2a
        E 32 b1 0b 22
        E 16 b1 0b 19
        E 16 b1 0b 11
        E 16 b1 0b 44
        E 0 81 4b 00
        E 0 91 4f 44
        E 32 b1 0b 3b
        E 16 b1 0b 33
        E 16 b1 0b 2a
        E 32 b1 0b 22
        E 16 b1 0b 19
        E 16 b1 0b 11
        E 16 b1 0b 44
        E 0 81 4f 00
        E 0 91 50 44
        E 32 b1 0b 3b
        E 16 b1 0b 33
        E 16 b1 0b 2a
        E 32 b1 0b 22
        E 16 b1 0b 19
        E 16 b1 0b 11
        E 16 b1 0b 44
        E 0 81 50 00
        E 0 91 4f 44
        E 32 b1 0b 3b
        E 16 b1 0b 33
        E 16 b1 0b 2a
        E 32 b1 0b 22
        E 16 b1 0b 19
        E 16 b1 0b 11
        E 16 b1 0b 44
        E 0 81 4f 00
        E 0 91 4b 44
        E 32 b1 0b 3b
        E 16 b1 0b 33
        E 16 b1 0b 2a
        E 32 b1 0b 22
        E 16 b1 0b 19
        E 16 b1 0b 11
        E 16 b1 0b 44
        E 0 81 4b 00
        E 0 91 48 44
        E 32 b1 0b 3b
        E 16 b1 0b 33
        E 16 b1 0b 2a
        E 32 b1 0b 22
        E 16 b1 0b 19
        E 16 b1 0b 11
        E 16 b1 0b 44
        E 0 81 48 00
        E 0 91 44 44
        E 32 b1 0b 3b
        E 16 b1 0b 33
        E 16 b1 0b 2a
        E 32 b1 0b 22
        E 16 b1 0b 19
        E 16 b1 0b 11
        E 16 b1 0b 44
        E 0 81 44 00
        E 0 91 43 44
        E 32 b1 0b 3b
        E 16 b1 0b 33
        E 16 b1 0b 2a
        E 32 b1 0b 22
        E 16 b1 0b 19
        E 16 b1 0b 11
        E 16 b1 0b 44
        E 0 81 43 00
        E 0 91 3f 44
        E 32 b1 0b 3b
        E 16 b1 0b 33
        E 16 b1 0b 2a
        E 32 b1 0b 22
        E 16 b1 0b 19
        E 16 b1 0b 11
        E 16 b1 0b 44
        E 0 81 3f 00
        E 0 91 3c 44
        E 32 b1 0b 3b
        E 16 b1 0b 33
        E 16 b1 0b 2a
        E 32 b1 0b 22
        E 16 b1 0b 19
        E 16 b1 0b 11
        E 16 b1 0b 44
        E 0 81 3c 00
        E 0 91 38 44
        E 32 b1 0b 3b
        E 16 b1 0b 33
        E 16 b1 0b 2a
        E 32 b1 0b 22
        E 16 b1 0b 19
        E 16 b1 0b 11
        E 16 b1 0b 44
        E 0 81 38 00
        E 0 91 37 44
        E 32 b1 0b 3b
        E 16 b1 0b 33
        E 16 b1 0b 2a
        E 32 b1 0b 22
        E 16 b1 0b 19
        E 16 b1 0b 11
        E 16 b1 0b 44
        E 0 81 37 00
        E 0 91 33 44
        E 32 b1 0b 3b
        E 16 b1 0b 33
        E 16 b1 0b 2a
        E 32 b1 0b 22
        E 16 b1 0b 19
        E 16 b1 0b 11
        E 16 b1 0b 44
        E 0 81 33 00
        E 0 91 30 44
        E 32 b1 0b 3b
        E 16 b1 0b 33
        E 16 b1 0b 2a
        E 32 b1 0b 22
        E 16 b1 0b 19
        E 16 b1 0b 11
        E 16 b1 0b 44
        E 0 81 30 00
        E 0 91 2c 44
        E 32 b1 0b 3b
        E 16 b1 0b 33
        E 16 b1 0b 2a
        E 32 b1 0b 22
        E 16 b1 0b 19
        E 16 b1 0b 11
        E 16 b1 0b 44
        E 0 81 2c 00
        E 0 91 2b 44
        E 32 b1 0b 3b
        E 16 b1 0b 33
        E 16 b1 0b 2a
        E 32 b1 0b 22
        E 16 b1 0b 19
        E 16 b1 0b 11
        E 16 b1 0b 44
        E 0 81 2b 00
        E 0 91 27 44
        E 32 b1 0b 3b
        E 16 b1 0b 33
        E 16 b1 0b 2a
        E 32 b1 0b 22
        E 16 b1 0b 19
        E 16 b1 0b 11
        E 16 b1 0b 44
        E 0 81 27 00
        E 0 91 24 44
        E 32 b1 0b 3b
        E 16 b1 0b 33
        E 16 b1 0b 2a
        E 32 b1 0b 22
        E 16 b1 0b 19
        E 16 b1 0b 11
        E 16 b1 0b 44
        E 0 81 24 00
        E 0 91 2e 44
        E 32 b1 0b 3b
        E 16 b1 0b 33
        E 16 b1 0b 2a
        E 32 b1 0b 22
        E 16 b1 0b 19
        E 16 b1 0b 11
        E 16 b1 0b 44
        E 0 81 2e 00
        E 0 91 24 44
        E 32 b1 0b 3b
        E 16 b1 0b 33
        E 16 b1 0b 2a
        E 32 b1 0b 22
        E 16 b1 0b 19
        E 16 b1 0b 11
        E 16 b1 0b 44
        E 0 81 24 00
        E 0 91 26 44
        E 32 b1 0b 3b
        E 16 b1 0b 33
        E 16 b1 0b 2a
        E 32 b1 0b 22
        E 16 b1 0b 19
        E 16 b1 0b 11
        E 16 b1 0b 44
        E 0 81 26 00
        E 0 91 29 44
        E 32 b1 0b 3b
        E 16 b1 0b 33
        E 16 b1 0b 2a
        E 32 b1 0b 22
        E 16 b1 0b 19
        E 16 b1 0b 11
        E 16 b1 0b 44
        E 0 81 29 00
        E 0 91 2e 44
        E 32 b1 0b 3b
        E 16 b1 0b 33
        E 16 b1 0b 2a
        E 32 b1 0b 22
        E 16 b1 0b 19
        E 16 b1 0b 11
        E 16 b1 0b 44
        E 0 81 2e 00
        E 0 91 30 44
        E 32 b1 0b 3b
        E 16 b1 0b 33
        E 16 b1 0b 2a
        E 32 b1 0b 22
        E 16 b1 0b 19
        E 16 b1 0b 11
        E 16 b1 0b 44
        E 0 81 30 00
        E 0 91 32 44
        E 32 b1 0b 3b
        E 16 b1 0b 33
        E 16 b1 0b 2a
        E 32 b1 0b 22
        E 16 b1 0b 19
        E 16 b1 0b 11
        E 16 b1 0b 44
        E 0 81 32 00
        E 0 91 35 44
        E 32 b1 0b 3b
        E 16 b1 0b 33
        E 16 b1 0b 2a
        E 32 b1 0b 22
        E 16 b1 0b 19
        E 16 b1 0b 11
        E 16 b1 0b 44
        E 0 81 35 00
        E 0 91 3a 44
        E 32 b1 0b 3b
        E 16 b1 0b 33
        E 16 b1 0b 2a
        E 32 b1 0b 22
        E 16 b1 0b 19
        E 16 b1 0b 11
        E 16 b1 0b 44
        E 0 81 3a 00
        E 0 91 3c 44
        E 32 b1 0b 3b
        E 16 b1 0b 33
        E 16 b1 0b 2a
        E 32 b1 0b 22
        E 16 b1 0b 19
        E 16 b1 0b 11
        E 16 b1 0b 44
        E 0 81 3c 00
        E 0 91 3e 44
        E 32 b1 0b 3b
        E 16 b1 0b 33
        E 16 b1 0b 2a
        E 32 b1 0b 22
        E 16 b1 0b 19
        E 16 b1 0b 11
        E 16 b1 0b 44
        E 0 81 3e 00
        E 0 91 41 44
        E 32 b1 0b 3b
        E 16 b1 0b 33
        E 16 b1 0b 2a
        E 32 b1 0b 22
        E 16 b1 0b 19
        E 16 b1 0b 11
        E 16 b1 0b 44
        E 0 81 41 00
        E 0 91 46 44
        E 32 b1 0b 3b
        E 16 b1 0b 33
        E 16 b1 0b 2a
        E 32 b1 0b 22
        E 16 b1 0b 19
        E 16 b1 0b 11
        E 16 b1 0b 44
        E 0 81 46 00
        E 0 91 48 44
        E 32 b1 0b 3b
        E 16 b1 0b 33
        E 16 b1 0b 2a
        E 32 b1 0b 22
        E 16 b1 0b 19
        E 16 b1 0b 11
        E 16 b1 0b 44
        E 0 81 48 00
        E 0 91 4a 44
        E 32 b1 0b 3b
        E 16 b1 0b 33
        E 16 b1 0b 2a
        E 32 b1 0b 22
        E 16 b1 0b 19
        E 16 b1 0b 11
        E 16 b1 0b 44
        E 0 81 4a 00
        E 0 91 4d 44
        E 32 b1 0b 3b
        E 16 b1 0b 33
        E 16 b1 0b 2a
        E 32 b1 0b 22
        E 16 b1 0b 19
        E 16 b1 0b 11
        E 16 b1 0b 44
        E 0 81 4d 00
        E 0 91 52 44
        E 32 b1 0b 3b
        E 16 b1 0b 33
        E 16 b1 0b 2a
        E 32 b1 0b 22
        E 16 b1 0b 19
        E 16 b1 0b 11
        E 16 b1 0b 44
        E 0 81 52 00
        E 0 91 4d 44
        E 32 b1 0b 3b
        E 16 b1 0b 33
        E 16 b1 0b 2a
        E 32 b1 0b 22
        E 16 b1 0b 19
        E 16 b1 0b 11
        E 16 b1 0b 44
        E 0 81 4d 00
        E 0 91 4a 44
        E 32 b1 0b 3b
        E 16 b1 0b 33
        E 16 b1 0b 2a
        E 32 b1 0b 22
        E 16 b1 0b 19
        E 16 b1 0b 11
        E 16 b1 0b 44
        E 0 81 4a 00
        E 0 91 48 44
        E 32 b1 0b 3b
        E 16 b1 0b 33
        E 16 b1 0b 2a
        E 32 b1 0b 22
        E 16 b1 0b 19
        E 16 b1 0b 11
        E 16 b1 0b 44
        E 0 81 48 00
        E 0 91 46 44
        E 32 b1 0b 3b
        E 16 b1 0b 33
        E 16 b1 0b 2a
        E 32 b1 0b 22
        E 16 b1 0b 19
        E 16 b1 0b 11
        E 16 b1 0b 44
        E 0 81 46 00
        E 0 91 41 44
        E 32 b1 0b 3b
        E 16 b1 0b 33
        E 16 b1 0b 2a
        E 32 b1 0b 22
        E 16 b1 0b 19
        E 16 b1 0b 11
        E 16 b1 0b 44
        E 0 81 41 00
        E 0 91 3e 44
        E 32 b1 0b 3b
        E 16 b1 0b 33
        E 16 b1 0b 2a
        E 32 b1 0b 22
        E 16 b1 0b 19
        E 16 b1 0b 11
        E 16 b1 0b 44
        E 0 81 3e 00
        E 0 91 3c 44
        E 32 b1 0b 3b
        E 16 b1 0b 33
        E 16 b1 0b 2a
        E 32 b1 0b 22
        E 16 b1 0b 19
        E 16 b1 0b 11
        E 16 b1 0b 44
        E 0 81 3c 00
        E 0 91 3a 44
        E 32 b1 0b 3b
        E 16 b1 0b 33
        E 16 b1 0b 2a
        E 32 b1 0b 22
        E 16 b1 0b 19
        E 16 b1 0b 11
        E 16 b1 0b 44
        E 0 81 3a 00
        E 0 91 35 44
        E 32 b1 0b 3b
        E 16 b1 0b 33
        E 16 b1 0b 2a
        E 32 b1 0b 22
        E 16 b1 0b 19
        E 16 b1 0b 11
        E 16 b1 0b 44
        E 0 81 35 00
        E 0 91 32 44
        E 32 b1 0b 3b
        E 16 b1 0b 33
        E 16 b1 0b 2a
        E 32 b1 0b 22
        E 16 b1 0b 19
        E 16 b1 0b 11
        E 16 b1 0b 44
        E 0 81 32 00
        E 0 91 30 44
        E 32 b1 0b 3b
        E 16 b1 0b 33
        E 16 b1 0b 2a
        E 32 b1 0b 22
        E 16 b1 0b 19
        E 16 b1 0b 11
        E 16 b1 0b 44
        E 0 81 30 00
        E 0 91 2e 44
        E 32 b1 0b 3b
        E 16 b1 0b 33
        E 16 b1 0b 2a
        E 32 b1 0b 22
        E 16 b1 0b 19
        E 16 b1 0b 11
        E 16 b1 0b 44
        E 0 81 2e 00
        E 0 91 29 44
        E 32 b1 0b 3b
        E 16 b1 0b 33
        E 16 b1 0b 2a
        E 32 b1 0b 22
        E 16 b1 0b 19
        E 16 b1 0b 11
        E 16 b1 0b 44
        E 0 81 29 00
        E 0 91 26 44
        E 32 b1 0b 3b
        E 16 b1 0b 33
        E 16 b1 0b 2a
        E 32 b1 0b 22
        E 16 b1 0b 19
        E 16 b1 0b 11
        E 16 b1 0b 44
        E 0 81 26 00
        E 0 91 24 44
        E 32 b1 0b 3b
        E 16 b1 0b 33
        E 16 b1 0b 2a
        E 32 b1 0b 22
        E 16 b1 0b 19
        E 16 b1 0b 11
        E 16 b1 0b 44
        E 0 81 24 00
        E 0 91 2b 44
        E 32 b1 0b 3b
        E 16 b1 0b 33
        E 16 b1 0b 2a
        E 32 b1 0b 22
        E 16 b1 0b 19
        E 16 b1 0b 11
        E 16 b1 0b 44
        E 0 81 2b 00
        E 0 91 2d 44
        E 32 b1 0b 3b
        E 16 b1 0b 33
        E 16 b1 0b 2a
        E 32 b1 0b 22
        E 16 b1 0b 19
        E 16 b1 0b 11
        E 16 b1 0b 44
        E 0 81 2d 00
        E 0 91 2e 44
        E 32 b1 0b 3b
        E 16 b1 0b 33
        E 16 b1 0b 2a
        E 32 b1 0b 22
        E 16 b1 0b 19
        E 16 b1 0b 11
        E 16 b1 0b 44
        E 0 81 2e 00
        E 0 91 26 44
        E 32 b1 0b 3b
        E 16 b1 0b 33
        E 16 b1 0b 2a
        E 32 b1 0b 22
        E 16 b1 0b 19
        E 16 b1 0b 11
        E 16 b1 0b 44
        E 0 81 26 00
        E 0 91 2b 44
        E 32 b1 0b 3b
        E 16 b1 0b 33
        E 16 b1 0b 2a
        E 32 b1 0b 22
        E 16 b1 0b 19
        E 16 b1 0b 11
        E 16 b1 0b 44
        E 0 81 2b 00
        E 0 91 2d 44
        E 32 b1 0b 3b
        E 16 b1 0b 33
        E 16 b1 0b 2a
        E 32 b1 0b 22
        E 16 b1 0b 19
        E 16 b1 0b 11
        E 16 b1 0b 44
        E 0 81 2d 00
        E 0 91 2e 44
        E 32 b1 0b 3b
        E 16 b1 0b 33
        E 16 b1 0b 2a
        E 32 b1 0b 22
        E 16 b1 0b 19
        E 16 b1 0b 11
        E 16 b1 0b 44
        E 0 81 2e 00
        E 0 91 32 44
        E 32 b1 0b 3b
        E 16 b1 0b 33
        E 16 b1 0b 2a
        E 32 b1 0b 22
        E 16 b1 0b 19
        E 16 b1 0b 11
        E 16 b1 0b 44
        E 0 81 32 00
        E 0 91 37 44
        E 32 b1 0b 3b
        E 16 b1 0b 33
        E 16 b1 0b 2a
        E 32 b1 0b 22
        E 16 b1 0b 19
        E 16 b1 0b 11
        E 16 b1 0b 44
        E 0 81 37 00
        E 0 91 39 44
        E 32 b1 0b 3b
        E 16 b1 0b 33
        E 16 b1 0b 2a
        E 32 b1 0b 22
        E 16 b1 0b 19
        E 16 b1 0b 11
        E 16 b1 0b 44
        E 0 81 39 00
        E 0 91 3a 44
        E 32 b1 0b 3b
        E 16 b1 0b 33
        E 16 b1 0b 2a
        E 32 b1 0b 22
        E 16 b1 0b 19
        E 16 b1 0b 11
        E 16 b1 0b 44
        E 0 81 3a 00
        E 0 91 3e 44
        E 32 b1 0b 3b
        E 16 b1 0b 33
        E 16 b1 0b 2a
        E 32 b1 0b 22
        E 16 b1 0b 19
        E 16 b1 0b 11
        E 16 b1 0b 44
        E 0 81 3e 00
        E 0 91 43 44
        E 32 b1 0b 3b
        E 16 b1 0b 33
        E 16 b1 0b 2a
        E 32 b1 0b 22
        E 16 b1 0b 19
        E 16 b1 0b 11
        E 16 b1 0b 44
        E 0 81 43 00
        E 0 91 45 44
        E 32 b1 0b 3b
        E 16 b1 0b 33
        E 16 b1 0b 2a
        E 32 b1 0b 22
        E 16 b1 0b 19
        E 16 b1 0b 11
        E 16 b1 0b 44
        E 0 81 45 00
        E 0 91 46 44
        E 32 b1 0b 3b
        E 16 b1 0b 33
        E 16 b1 0b 2a
        E 32 b1 0b 22
        E 16 b1 0b 19
        E 16 b1 0b 11
        E 16 b1 0b 44
        E 0 81 46 00
        E 0 91 4a 44
        E 32 b1 0b 3b
        E 16 b1 0b 33
        E 16 b1 0b 2a
        E 32 b1 0b 22
        E 16 b1 0b 19
        E 16 b1 0b 11
        E 16 b1 0b 44
        E 0 81 4a 00
        E 0 91 4f 44
        E 32 b1 0b 3b
        E 16 b1 0b 33
        E 16 b1 0b 2a
        E 32 b1 0b 22
        E 16 b1 0b 19
        E 16 b1 0b 11
        E 16 b1 0b 44
        E 0 81 4f 00
        E 0 91 4a 44
        E 32 b1 0b 3b
        E 16 b1 0b 33
        E 16 b1 0b 2a
        E 32 b1 0b 22
        E 16 b1 0b 19
        E 16 b1 0b 11
        E 16 b1 0b 44
        E 0 81 4a 00
        E 0 91 46 44
        E 32 b1 0b 3b
        E 16 b1 0b 33
        E 16 b1 0b 2a
        E 32 b1 0b 22
        E 16 b1 0b 19
        E 16 b1 0b 11
        E 16 b1 0b 44
        E 0 81 46 00
        E 0 91 45 44
        E 32 b1 0b 3b
        E 16 b1 0b 33
        E 16 b1 0b 2a
        E 32 b1 0b 22
        E 16 b1 0b 19
        E 16 b1 0b 11
        E 16 b1 0b 44
        E 0 81 45 00
        E 0 91 43 44
        E 32 b1 0b 3b
        E 16 b1 0b 33
        E 16 b1 0b 2a
        E 32 b1 0b 22
        E 16 b1 0b 19
        E 16 b1 0b 11
        E 16 b1 0b 44
        E 0 81 43 00
        E 0 91 3e 44
        E 32 b1 0b 3b
        E 16 b1 0b 33
        E 16 b1 0b 2a
        E 32 b1 0b 22
        E 16 b1 0b 19
        E 16 b1 0b 11
        E 16 b1 0b 44
        E 0 81 3e 00
        E 0 91 3a 44
        E 32 b1 0b 3b
        E 16 b1 0b 33
        E 16 b1 0b 2a
        E 32 b1 0b 22
        E 16 b1 0b 19
        E 16 b1 0b 11
        E 16 b1 0b 44
        E 0 81 3a 00
        E 0 91 39 44
        E 32 b1 0b 3b
        E 16 b1 0b 33
        E 16 b1 0b 2a
        E 32 b1 0b 22
        E 16 b1 0b 19
        E 16 b1 0b 11
        E 16 b1 0b 44
        E 0 81 39 00
        E 0 91 37 44
        E 32 b1 0b 3b
        E 16 b1 0b 33
        E 16 b1 0b 2a
        E 32 b1 0b 22
        E 16 b1 0b 19
        E 16 b1 0b 11
        E 16 b1 0b 44
        E 0 81 37 00
        E 0 91 32 44
        E 32 b1 0b 3b
        E 16 b1 0b 33
        E 16 b1 0b 2a
        E 32 b1 0b 22
        E 16 b1 0b 19
        E 16 b1 0b 11
        E 16 b1 0b 44
        E 0 81 32 00
        E 0 91 2e 44
        E 32 b1 0b 3b
        E 16 b1 0b 33
        E 16 b1 0b 2a
        E 32 b1 0b 22
        E 16 b1 0b 19
        E 16 b1 0b 11
        E 16 b1 0b 44
        E 0 81 2e 00
        E 0 91 2d 44
        E 32 b1 0b 3b
        E 16 b1 0b 33
        E 16 b1 0b 2a
        E 32 b1 0b 22
        E 16 b1 0b 19
        E 16 b1 0b 11
        E 16 b1 0b 44
        E 0 81 2d 00
        E 0 91 2b 44
        E 32 b1 0b 3b
        E 16 b1 0b 33
        E 16 b1 0b 2a
        E 32 b1 0b 22
        E 16 b1 0b 19
        E 16 b1 0b 11
        E 16 b1 0b 44
        E 0 81 2b 00
        E 0 91 26 44
        E 32 b1 0b 3b
        E 16 b1 0b 33
        E 16 b1 0b 2a
        E 32 b1 0b 22
        E 16 b1 0b 19
        E 16 b1 0b 11
        E 16 b1 0b 44
        E 0 81 26 00
        E 0 91 2e 44
        E 32 b1 0b 3b
        E 16 b1 0b 33
        E 16 b1 0b 2a
        E 32 b1 0b 22
        E 16 b1 0b 19
        E 16 b1 0b 11
        E 16 b1 0b 44
        E 0 81 2e 00
        E 0 91 2d 44
        E 32 b1 0b 3b
        E 16 b1 0b 33
        E 16 b1 0b 2a
        E 32 b1 0b 22
        E 16 b1 0b 19
        E 16 b1 0b 11
        E 16 b1 0b 44
        E 0 81 2d 00
        E 0 91 2e 44
        E 32 b1 0b 3b
        E 16 b1 0b 33
        E 16 b1 0b 2a
        E 32 b1 0b 22
        E 16 b1 0b 19
        E 16 b1 0b 11
        E 16 b1 0b 44
        E 0 81 2e 00
        E 0 91 24 44
        E 32 b1 0b 3b
        E 16 b1 0b 33
        E 16 b1 0b 2a
        E 32 b1 0b 22
        E 16 b1 0b 19
        E 16 b1 0b 11
        E 16 b1 0b 44
        E 0 81 24 00
        E 0 91 26 44
        E 32 b1 0b 3b
        E 16 b1 0b 33
        E 16 b1 0b 2a
        E 32 b1 0b 22
        E 16 b1 0b 19
        E 16 b1 0b 11
        E 16 b1 0b 44
        E 0 81 26 00
        E 0 91 29 44
        E 32 b1 0b 3b
        E 16 b1 0b 33
        E 16 b1 0b 2a
        E 32 b1 0b 22
        E 16 b1 0b 19
        E 16 b1 0b 11
        E 16 b1 0b 44
        E 0 81 29 00
        E 0 91 2e 44
        E 32 b1 0b 3b
        E 16 b1 0b 33
        E 16 b1 0b 2a
        E 32 b1 0b 22
        E 16 b1 0b 19
        E 16 b1 0b 11
        E 16 b1 0b 44
        E 0 81 2e 00
        E 0 91 30 44
        E 32 b1 0b 3b
        E 16 b1 0b 33
        E 16 b1 0b 2a
        E 32 b1 0b 22
        E 16 b1 0b 19
        E 16 b1 0b 11
        E 16 b1 0b 44
        E 0 81 30 00
        E 0 91 32 44
        E 32 b1 0b 3b
        E 16 b1 0b 33
        E 16 b1 0b 2a
        E 32 b1 0b 22
        E 16 b1 0b 19
        E 16 b1 0b 11
        E 16 b1 0b 44
        E 0 81 32 00
        E 0 91 35 44
        E 32 b1 0b 3b
        E 16 b1 0b 33
        E 16 b1 0b 2a
        E 32 b1 0b 22
        E 16 b1 0b 19
        E 16 b1 0b 11
        E 16 b1 0b 44
        E 0 81 35 00
        E 0 91 3a 44
        E 32 b1 0b 3b
        E 16 b1 0b 33
        E 16 b1 0b 2a
        E 32 b1 0b 22
        E 16 b1 0b 19
        E 16 b1 0b 11
        E 16 b1 0b 44
        E 0 81 3a 00
        E 0 91 3c 44
        E 32 b1 0b 3b
        E 16 b1 0b 33
        E 16 b1 0b 2a
        E 32 b1 0b 22
        E 16 b1 0b 19
        E 16 b1 0b 11
        E 16 b1 0b 44
        E 0 81 3c 00
        E 0 91 3e 44
        E 32 b1 0b 3b
        E 16 b1 0b 33
        E 16 b1 0b 2a
        E 32 b1 0b 22
        E 16 b1 0b 19
        E 16 b1 0b 11
        E 16 b1 0b 44
        E 0 81 3e 00
        E 0 91 41 44
        E 32 b1 0b 3b
        E 16 b1 0b 33
        E 16 b1 0b 2a
        E 32 b1 0b 22
        E 16 b1 0b 19
        E 16 b1 0b 11
        E 16 b1 0b 44
        E 0 81 41 00
        E 0 91 46 44
        E 32 b1 0b 3b
        E 16 b1 0b 33
        E 16 b1 0b 2a
        E 32 b1 0b 22
        E 16 b1 0b 19
        E 16 b1 0b 11
        E 16 b1 0b 44
        E 0 81 46 00
        E 0 91 48 44
        E 32 b1 0b 3b
        E 16 b1 0b 33
        E 16 b1 0b 2a
        E 32 b1 0b 22
        E 16 b1 0b 19
        E 16 b1 0b 11
        E 16 b1 0b 44
        E 0 81 48 00
        E 0 91 4a 44
        E 32 b1 0b 3b
        E 16 b1 0b 33
        E 16 b1 0b 2a
        E 32 b1 0b 22
        E 16 b1 0b 19
        E 16 b1 0b 11
        E 16 b1 0b 44
        E 0 81 4a 00
        E 0 91 4d 44
        E 32 b1 0b 3b
        E 16 b1 0b 33
        E 16 b1 0b 2a
        E 32 b1 0b 22
        E 16 b1 0b 19
        E 16 b1 0b 11
        E 16 b1 0b 44
        E 0 81 4d 00
        E 0 91 52 44
        E 32 b1 0b 3b
        E 16 b1 0b 33
        E 16 b1 0b 2a
        E 32 b1 0b 22
        E 16 b1 0b 19
        E 16 b1 0b 11
        E 16 b1 0b 44
        E 0 81 52 00
        E 0 91 4d 44
        E 32 b1 0b 3b
        E 16 b1 0b 33
        E 16 b1 0b 2a
        E 32 b1 0b 22
        E 16 b1 0b 19
        E 16 b1 0b 11
        E 16 b1 0b 44
        E 0 81 4d 00
        E 0 91 4a 44
        E 32 b1 0b 3b
        E 16 b1 0b 33
        E 16 b1 0b 2a
        E 32 b1 0b 22
        E 16 b1 0b 19
        E 16 b1 0b 11
        E 16 b1 0b 44
        E 0 81 4a 00
        E 0 91 48 44
        E 32 b1 0b 3b
        E 16 b1 0b 33
        E 16 b1 0b 2a
        E 32 b1 0b 22
        E 16 b1 0b 19
        E 16 b1 0b 11
        E 16 b1 0b 44
        E 0 81 48 00
        E 0 91 46 44
        E 32 b1 0b 3b
        E 16 b1 0b 33
        E 16 b1 0b 2a
        E 32 b1 0b 22
        E 16 b1 0b 19
        E 16 b1 0b 11
        E 16 b1 0b 44
        E 0 81 46 00
        E 0 91 41 44
        E 32 b1 0b 3b
        E 16 b1 0b 33
        E 16 b1 0b 2a
        E 32 b1 0b 22
        E 16 b1 0b 19
        E 16 b1 0b 11
        E 16 b1 0b 44
        E 0 81 41 00
        E 0 91 3e 44
        E 32 b1 0b 3b
        E 16 b1 0b 33
        E 16 b1 0b 2a
        E 32 b1 0b 22
        E 16 b1 0b 19
        E 16 b1 0b 11
        E 16 b1 0b 44
        E 0 81 3e 00
        E 0 91 3c 44
        E 32 b1 0b 3b
        E 16 b1 0b 33
        E 16 b1 0b 2a
        E 32 b1 0b 22
        E 16 b1 0b 19
        E 16 b1 0b 11
        E 16 b1 0b 44
        E 0 81 3c 00
        E 0 91 3a 44
        E 32 b1 0b 3b
        E 16 b1 0b 33
        E 16 b1 0b 2a
        E 32 b1 0b 22
        E 16 b1 0b 19
        E 16 b1 0b 11
        E 16 b1 0b 44
        E 0 81 3a 00
        E 0 91 35 44
        E 32 b1 0b 3b
        E 16 b1 0b 33
        E 16 b1 0b 2a
        E 32 b1 0b 22
        E 16 b1 0b 19
        E 16 b1 0b 11
        E 16 b1 0b 44
        E 0 81 35 00
        E 0 91 32 44
        E 32 b1 0b 3b
        E 16 b1 0b 33
        E 16 b1 0b 2a
        E 32 b1 0b 22
        E 16 b1 0b 19
        E 16 b1 0b 11
        E 16 b1 0b 44
        E 0 81 32 00
        E 0 91 30 44
        E 32 b1 0b 3b
        E 16 b1 0b 33
        E 16 b1 0b 2a
        E 32 b1 0b 22
        E 16 b1 0b 19
        E 16 b1 0b 11
        E 16 b1 0b 44
        E 0 81 30 00
        E 0 91 2e 44
        E 32 b1 0b 3b
        E 16 b1 0b 33
        E 16 b1 0b 2a
        E 32 b1 0b 22
        E 16 b1 0b 19
        E 16 b1 0b 11
        E 16 b1 0b 44
        E 0 81 2e 00
        E 0 91 29 44
        E 32 b1 0b 3b
        E 16 b1 0b 33
        E 16 b1 0b 2a
        E 32 b1 0b 22
        E 16 b1 0b 19
        E 16 b1 0b 11
        E 16 b1 0b 44
        E 0 81 29 00
        E 0 91 26 44
        E 32 b1 0b 3b
        E 16 b1 0b 33
        E 16 b1 0b 2a
        E 32 b1 0b 22
        E 16 b1 0b 19
        E 16 b1 0b 11
        E 16 b1 0b 44
        E 0 81 26 00
        E 0 91 24 44
        E 32 b1 0b 3b
        E 16 b1 0b 33
        E 16 b1 0b 2a
        E 32 b1 0b 22
        E 16 b1 0b 19
        E 16 b1 0b 11
        E 16 b1 0b 44
        E 0 81 24 00
        E 0 91 2b 44
        E 32 b1 0b 3b
        E 16 b1 0b 33
        E 16 b1 0b 2a
        E 32 b1 0b 22
        E 16 b1 0b 19
        E 16 b1 0b 11
        E 16 b1 0b 44
        E 0 81 2b 00
        E 0 91 2d 44
        E 32 b1 0b 3b
        E 16 b1 0b 33
        E 16 b1 0b 2a
        E 32 b1 0b 22
        E 16 b1 0b 19
        E 16 b1 0b 11
        E 16 b1 0b 44
        E 0 81 2d 00
        E 0 91 2e 44
        E 32 b1 0b 3b
        E 16 b1 0b 33
        E 16 b1 0b 2a
        E 32 b1 0b 22
        E 16 b1 0b 19
        E 16 b1 0b 11
        E 16 b1 0b 44
        E 0 81 2e 00
        E 0 91 26 44
        E 32 b1 0b 3b
        E 16 b1 0b 33
        E 16 b1 0b 2a
        E 32 b1 0b 22
        E 16 b1 0b 19
        E 16 b1 0b 11
        E 16 b1 0b 44
        E 0 81 26 00
        E 0 91 2b 44
        E 32 b1 0b 3b
        E 16 b1 0b 33
        E 16 b1 0b 2a
        E 32 b1 0b 22
        E 16 b1 0b 19
        E 16 b1 0b 11
        E 16 b1 0b 44
        E 0 81 2b 00
        E 0 91 2d 44
        E 32 b1 0b 3b
        E 16 b1 0b 33
        E 16 b1 0b 2a
        E 32 b1 0b 22
        E 16 b1 0b 19
        E 16 b1 0b 11
        E 16 b1 0b 44
        E 0 81 2d 00
        E 0 91 2e 44
        E 32 b1 0b 3b
        E 16 b1 0b 33
        E 16 b1 0b 2a
        E 32 b1 0b 22
        E 16 b1 0b 19
        E 16 b1 0b 11
        E 16 b1 0b 44
        E 0 81 2e 00
        E 0 91 32 44
        E 32 b1 0b 3b
        E 16 b1 0b 33
        E 16 b1 0b 2a
        E 32 b1 0b 22
        E 16 b1 0b 19
        E 16 b1 0b 11
        E 16 b1 0b 44
        E 0 81 32 00
        E 0 91 37 44
        E 32 b1 0b 3b
        E 16 b1 0b 33
        E 16 b1 0b 2a
        E 32 b1 0b 22
        E 16 b1 0b 19
        E 16 b1 0b 11
        E 16 b1 0b 44
        E 0 81 37 00
        E 0 91 39 44
        E 32 b1 0b 3b
        E 16 b1 0b 33
        E 16 b1 0b 2a
        E 32 b1 0b 22
        E 16 b1 0b 19
        E 16 b1 0b 11
        E 16 b1 0b 44
        E 0 81 39 00
        E 0 91 3a 44
        E 32 b1 0b 3b
        E 16 b1 0b 33
        E 16 b1 0b 2a
        E 32 b1 0b 22
        E 16 b1 0b 19
        E 16 b1 0b 11
        E 16 b1 0b 44
        E 0 81 3a 00
        E 0 91 3e 44
        E 32 b1 0b 3b
        E 16 b1 0b 33
        E 16 b1 0b 2a
        E 32 b1 0b 22
        E 16 b1 0b 19
        E 16 b1 0b 11
        E 16 b1 0b 44
        E 0 81 3e 00
        E 0 91 43 44
        E 32 b1 0b 3b
        E 16 b1 0b 33
        E 16 b1 0b 2a
        E 32 b1 0b 22
        E 16 b1 0b 19
        E 16 b1 0b 11
        E 16 b1 0b 44
        E 0 81 43 00
        E 0 91 45 44
        E 32 b1 0b 3b
        E 16 b1 0b 33
        E 16 b1 0b 2a
        E 32 b1 0b 22
        E 16 b1 0b 19
        E 16 b1 0b 11
        E 16 b1 0b 44
        E 0 81 45 00
        E 0 91 46 44
        E 32 b1 0b 3b
        E 16 b1 0b 33
        E 16 b1 0b 2a
        E 32 b1 0b 22
        E 16 b1 0b 19
        E 16 b1 0b 11
        E 16 b1 0b 44
        E 0 81 46 00
        E 0 91 4a 44
        E 32 b1 0b 3b
        E 16 b1 0b 33
        E 16 b1 0b 2a
        E 32 b1 0b 22
        E 16 b1 0b 19
        E 16 b1 0b 11
        E 16 b1 0b 44
        E 0 81 4a 00
        E 0 91 4f 44
        E 32 b1 0b 3b
        E 16 b1 0b 33
        E 16 b1 0b 2a
        E 32 b1 0b 22
        E 16 b1 0b 19
        E 16 b1 0b 11
        E 16 b1 0b 44
        E 0 81 4f 00
        E 0 91 4a 44
        E 32 b1 0b 3b
        E 16 b1 0b 33
        E 16 b1 0b 2a
        E 32 b1 0b 22
        E 16 b1 0b 19
        E 16 b1 0b 11
        E 16 b1 0b 44
        E 0 81 4a 00
        E 0 91 46 44
        E 32 b1 0b 3b
        E 16 b1 0b 33
        E 16 b1 0b 2a
        E 32 b1 0b 22
        E 16 b1 0b 19
        E 16 b1 0b 11
        E 16 b1 0b 44
        E 0 81 46 00
        E 0 91 45 44
        E 32 b1 0b 3b
        E 16 b1 0b 33
        E 16 b1 0b 2a
        E 32 b1 0b 22
        E 16 b1 0b 19
        E 16 b1 0b 11
        E 16 b1 0b 44
        E 0 81 45 00
        E 0 91 43 44
        E 32 b1 0b 3b
        E 16 b1 0b 33
        E 16 b1 0b 2a
        E 32 b1 0b 22
        E 16 b1 0b 19
        E 16 b1 0b 11
        E 16 b1 0b 44
        E 0 81 43 00
        E 0 91 3e 44
        E 32 b1 0b 3b
        E 16 b1 0b 33
        E 16 b1 0b 2a
        E 32 b1 0b 22
        E 16 b1 0b 19
        E 16 b1 0b 11
        E 16 b1 0b 44
        E 0 81 3e 00
        E 0 91 3a 44
        E 32 b1 0b 3b
        E 16 b1 0b 33
        E 16 b1 0b 2a
        E 32 b1 0b 22
        E 16 b1 0b 19
        E 16 b1 0b 11
        E 16 b1 0b 44
        E 0 81 3a 00
        E 0 91 39 44
        E 32 b1 0b 3b
        E 16 b1 0b 33
        E 16 b1 0b 2a
        E 32 b1 0b 22
        E 16 b1 0b 19
        E 16 b1 0b 11
        E 16 b1 0b 44
        E 0 81 39 00
        E 0 91 37 44
        E 32 b1 0b 3b
        E 16 b1 0b 33
        E 16 b1 0b 2a
        E 32 b1 0b 22
        E 16 b1 0b 19
        E 16 b1 0b 11
        E 16 b1 0b 44
        E 0 81 37 00
        E 0 91 32 44
        E 32 b1 0b 3b
        E 16 b1 0b 33
        E 16 b1 0b 2a
        E 32 b1 0b 22
        E 16 b1 0b 19
        E 16 b1 0b 11
        E 16 b1 0b 44
        E 0 81 32 00
        E 0 91 2e 44
        E 32 b1 0b 3b
        E 16 b1 0b 33
        E 16 b1 0b 2a
        E 32 b1 0b 22
        E 16 b1 0b 19
        E 16 b1 0b 11
        E 16 b1 0b 44
        E 0 81 2e 00
        E 0 91 2d 44
        E 32 b1 0b 3b
        E 16 b1 0b 33
        E 16 b1 0b 2a
        E 32 b1 0b 22
        E 16 b1 0b 19
        E 16 b1 0b 11
        E 16 b1 0b 44
        E 0 81 2d 00
        E 0 91 2b 44
        E 32 b1 0b 3b
        E 16 b1 0b 33
        E 16 b1 0b 2a
        E 32 b1 0b 22
        E 16 b1 0b 19
        E 16 b1 0b 11
        E 16 b1 0b 44
        E 0 81 2b 00
        E 0 91 26 44
        E 32 b1 0b 3b
        E 16 b1 0b 33
        E 16 b1 0b 2a
        E 32 b1 0b 22
        E 16 b1 0b 19
        E 16 b1 0b 11
        E 16 b1 0b 44
        E 0 81 26 00
        E 0 91 2e 44
        E 32 b1 0b 3b
        E 16 b1 0b 33
        E 16 b1 0b 2a
        E 32 b1 0b 22
        E 16 b1 0b 19
        E 16 b1 0b 11
        E 16 b1 0b 44
        E 0 81 2e 00
        E 0 91 2d 44
        E 32 b1 0b 3b
        E 16 b1 0b 33
        E 16 b1 0b 2a
        E 32 b1 0b 22
        E 16 b1 0b 19
        E 16 b1 0b 11
        E 16 b1 0b 44
        E 0 81 2d 00
        E 0 91 2b 44
        E 32 b1 0b 3b
        E 16 b1 0b 33
        E 16 b1 0b 2a
        E 32 b1 0b 22
        E 16 b1 0b 19
        E 16 b1 0b 11
        E 16 b1 0b 44
        E 0 81 2b 00
        E 0 91 2e 44
        E 32 b1 0b 3b
        E 16 b1 0b 33
        E 16 b1 0b 2a
        E 32 b1 0b 22
        E 16 b1 0b 19
        E 16 b1 0b 11
        E 16 b1 0b 44
        E 0 81 2e 00
        E 0 91 27 44
        E 32 b1 0b 3b
        E 16 b1 0b 33
        E 16 b1 0b 2a
        E 32 b1 0b 22
        E 16 b1 0b 19
        E 16 b1 0b 11
        E 16 b1 0b 44
        E 0 81 27 00
        E 0 91 29 44
        E 32 b1 0b 3b
        E 16 b1 0b 33
        E 16 b1 0b 2a
        E 32 b1 0b 22
        E 16 b1 0b 19
        E 16 b1 0b 11
        E 16 b1 0b 44
        E 0 81 29 00
        E 0 91 2b 44
        E 32 b1 0b 3b
        E 16 b1 0b 33
        E 16 b1 0b 2a
        E 32 b1 0b 22
        E 16 b1 0b 19
        E 16 b1 0b 11
        E 16 b1 0b 44
        E 0 81 2b 00
        E 0 91 2e 44
        E 32 b1 0b 3b
        E 16 b1 0b 33
        E 16 b1 0b 2a
        E 32 b1 0b 22
        E 16 b1 0b 19
        E 16 b1 0b 11
        E 16 b1 0b 44
        E 0 81 2e 00
        E 0 91 33 44
        E 32 b1 0b 3b
        E 16 b1 0b 33
        E 16 b1 0b 2a
        E 32 b1 0b 22
        E 16 b1 0b 19
        E 16 b1 0b 11
        E 16 b1 0b 44
        E 0 81 33 00
        E 0 91 35 44
        E 32 b1 0b 3b
        E 16 b1 0b 33
        E 16 b1 0b 2a
        E 32 b1 0b 22
        E 16 b1 0b 19
        E 16 b1 0b 11
        E 16 b1 0b 44
        E 0 81 35 00
        E 0 91 37 44
        E 32 b1 0b 3b
        E 16 b1 0b 33
        E 16 b1 0b 2a
        E 32 b1 0b 22
        E 16 b1 0b 19
        E 16 b1 0b 11
        E 16 b1 0b 44
        E 0 81 37 00
        E 0 91 3a 44
        E 32 b1 0b 3b
        E 16 b1 0b 33
        E 16 b1 0b 2a
        E 32 b1 0b 22
        E 16 b1 0b 19
        E 16 b1 0b 11
        E 16 b1 0b 44
        E 0 81 3a 00
        E 0 91 3f 44
        E 32 b1 0b 3b
        E 16 b1 0b 33
        E 16 b1 0b 2a
        E 32 b1 0b 22
        E 16 b1 0b 19
        E 16 b1 0b 11
        E 16 b1 0b 44
        E 0 81 3f 00
        E 0 91 41 44
        E 32 b1 0b 3b
        E 16 b1 0b 33
        E 16 b1 0b 2a
        E 32 b1 0b 22
        E 16 b1 0b 19
        E 16 b1 0b 11
        E 16 b1 0b 44
        E 0 81 41 00
        E 0 91 43 44
        E 32 b1 0b 3b
        E 16 b1 0b 33
        E 16 b1 0b 2a
        E 32 b1 0b 22
        E 16 b1 0b 19
        E 16 b1 0b 11
        E 16 b1 0b 44
        E 0 81 43 00
        E 0 91 46 44
        E 32 b1 0b 3b
        E 16 b1 0b 33
        E 16 b1 0b 2a
        E 32 b1 0b 22
        E 16 b1 0b 19
        E 16 b1 0b 11
        E 16 b1 0b 44
        E 0 81 46 00
        E 0 91 4b 44
        E 32 b1 0b 3b
        E 16 b1 0b 33
        E 16 b1 0b 2a
        E 32 b1 0b 22
        E 16 b1 0b 19
        E 16 b1 0b 11
        E 16 b1 0b 44
        E 0 81 4b 00
        E 0 91 4d 44
        E 32 b1 0b 3b
        E 16 b1 0b 33
        E 16 b1 0b 2a
        E 32 b1 0b 22
        E 16 b1 0b 19
        E 16 b1 0b 11
        E 16 b1 0b 44
        E 0 81 4d 00
        E 0 91 4f 44
        E 32 b1 0b 3b
        E 16 b1 0b 33
        E 16 b1 0b 2a
        E 32 b1 0b 22
        E 16 b1 0b 19
        E 16 b1 0b 11
        E 16 b1 0b 44
        E 0 81 4f 00
        E 0 91 4d 44
        E 32 b1 0b 3b
        E 16 b1 0b 33
        E 16 b1 0b 2a
        E 32 b1 0b 22
        E 16 b1 0b 19
        E 16 b1 0b 11
        E 16 b1 0b 44
        E 0 81 4d 00
        E 0 91 4b 44
        E 32 b1 0b 3b
        E 16 b1 0b 33
        E 16 b1 0b 2a
        E 32 b1 0b 22
        E 16 b1 0b 19
        E 16 b1 0b 11
        E 16 b1 0b 44
        E 0 81 4b 00
        E 0 91 46 44
        E 32 b1 0b 3b
        E 16 b1 0b 33
        E 16 b1 0b 2a
        E 32 b1 0b 22
        E 16 b1 0b 19
        E 16 b1 0b 11
        E 16 b1 0b 44
        E 0 81 46 00
        E 0 91 43 44
        E 32 b1 0b 3b
        E 16 b1 0b 33
        E 16 b1 0b 2a
        E 32 b1 0b 22
        E 16 b1 0b 19
        E 16 b1 0b 11
        E 16 b1 0b 44
        E 0 81 43 00
        E 0 91 41 44
        E 32 b1 0b 3b
        E 16 b1 0b 33
        E 16 b1 0b 2a
        E 32 b1 0b 22
        E 16 b1 0b 19
        E 16 b1 0b 11
        E 16 b1 0b 44
        E 0 81 41 00
        E 0 91 3f 44
        E 32 b1 0b 3b
        E 16 b1 0b 33
        E 16 b1 0b 2a
        E 32 b1 0b 22
        E 16 b1 0b 19
        E 16 b1 0b 11
        E 16 b1 0b 44
        E 0 81 3f 00
        E 0 91 3a 44
        E 32 b1 0b 3b
        E 16 b1 0b 33
        E 16 b1 0b 2a
        E 32 b1 0b 22
        E 16 b1 0b 19
        E 16 b1 0b 11
        E 16 b1 0b 44
        E 0 81 3a 00
        E 0 91 37 44
        E 32 b1 0b 3b
        E 16 b1 0b 33
        E 16 b1 0b 2a
        E 32 b1 0b 22
        E 16 b1 0b 19
        E 16 b1 0b 11
        E 16 b1 0b 44
        E 0 81 37 00
        E 0 91 35 44
        E 32 b1 0b 3b
        E 16 b1 0b 33
        E 16 b1 0b 2a
        E 32 b1 0b 22
        E 16 b1 0b 19
        E 16 b1 0b 11
        E 16 b1 0b 44
        E 0 81 35 00
        E 0 91 33 44
        E 32 b1 0b 3b
        E 16 b1 0b 33
        E 16 b1 0b 2a
        E 32 b1 0b 22
        E 16 b1 0b 19
        E 16 b1 0b 11
        E 16 b1 0b 44
        E 0 81 33 00
        E 0 91 2e 44
        E 32 b1 0b 3b
        E 16 b1 0b 33
        E 16 b1 0b 2a
        E 32 b1 0b 22
        E 16 b1 0b 19
        E 16 b1 0b 11
        E 16 b1 0b 44
        E 0 81 2e 00
        E 0 91 2b 44
        E 32 b1 0b 3b
        E 16 b1 0b 33
        E 16 b1 0b 2a
        E 32 b1 0b 22
        E 16 b1 0b 19
        E 16 b1 0b 11
        E 16 b1 0b 44
        E 0 81 2b 00
        E 0 91 29 44
        E 32 b1 0b 3b
        E 16 b1 0b 33
        E 16 b1 0b 2a
        E 32 b1 0b 22
        E 16 b1 0b 19
        E 16 b1 0b 11
        E 16 b1 0b 44
        E 0 81 29 00
        E 0 91 27 44
        E 32 b1 0b 3b
        E 16 b1 0b 33
        E 16 b1 0b 2a
        E 32 b1 0b 22
        E 16 b1 0b 19
        E 16 b1 0b 11
        E 16 b1 0b 44
        E 0 81 27 00
        E 0 91 2e 44
        E 32 b1 0b 3b
        E 16 b1 0b 33
        E 16 b1 0b 2a
        E 32 b1 0b 22
        E 16 b1 0b 19
        E 16 b1 0b 11
        E 16 b1 0b 44
        E 0 81 2e 00
        E 0 91 2d 44
        E 32 b1 0b 3b
        E 16 b1 0b 33
        E 16 b1 0b 2a
        E 32 b1 0b 22
        E 16 b1 0b 19
        E 16 b1 0b 11
        E 16 b1 0b 44
        E 0 81 2d 00
        E 0 91 24 44
        E 32 b1 0b 3b
        E 16 b1 0b 33
        E 16 b1 0b 2a
        E 32 b1 0b 22
        E 16 b1 0b 19
        E 16 b1 0b 11
        E 16 b1 0b 44
        E 0 81 24 00
        E 0 91 29 44
        E 32 b1 0b 3b
        E 16 b1 0b 33
        E 16 b1 0b 2a
        E 32 b1 0b 22
        E 16 b1 0b 19
        E 16 b1 0b 11
        E 16 b1 0b 44
        E 0 81 29 00
        E 0 91 2b 44
        E 32 b1 0b 3b
        E 16 b1 0b 33
        E 16 b1 0b 2a
        E 32 b1 0b 22
        E 16 b1 0b 19
        E 16 b1 0b 11
        E 16 b1 0b 44
        E 0 81 2b 00
        E 0 91 2d 44
        E 32 b1 0b 3b
        E 16 b1 0b 33
        E 16 b1 0b 2a
        E 32 b1 0b 22
        E 16 b1 0b 19
        E 16 b1 0b 11
        E 16 b1 0b 44
        E 0 81 2d 00
        E 0 91 30 44
        E 32 b1 0b 3b
        E 16 b1 0b 33
        E 16 b1 0b 2a
        E 32 b1 0b 22
        E 16 b1 0b 19
        E 16 b1 0b 11
        E 16 b1 0b 44
        E 0 81 30 00
        E 0 91 35 44
        E 32 b1 0b 3b
        E 16 b1 0b 33
        E 16 b1 0b 2a
        E 32 b1 0b 22
        E 16 b1 0b 19
        E 16 b1 0b 11
        E 16 b1 0b 44
        E 0 81 35 00
        E 0 91 37 44
        E 32 b1 0b 3b
        E 16 b1 0b 33
        E 16 b1 0b 2a
        E 32 b1 0b 22
        E 16 b1 0b 19
        E 16 b1 0b 11
        E 16 b1 0b 44
        E 0 81 37 00
        E 0 91 39 44
        E 32 b1 0b 3b
        E 16 b1 0b 33
        E 16 b1 0b 2a
        E 32 b1 0b 22
        E 16 b1 0b 19
        E 16 b1 0b 11
        E 16 b1 0b 44
        E 0 81 39 00
        E 0 91 3c 44
        E 32 b1 0b 3b
        E 16 b1 0b 33
        E 16 b1 0b 2a
        E 32 b1 0b 22
        E 16 b1 0b 19
        E 16 b1 0b 11
        E 16 b1 0b 44
        E 0 81 3c 00
        E 0 91 41 44
        E 32 b1 0b 3b
        E 16 b1 0b 33
        E 16 b1 0b 2a
        E 32 b1 0b 22
        E 16 b1 0b 19
        E 16 b1 0b 11
        E 16 b1 0b 44
        E 0 81 41 00
        E 0 91 43 44
        E 32 b1 0b 3b
        E 16 b1 0b 33
        E 16 b1 0b 2a
        E 32 b1 0b 22
        E 16 b1 0b 19
        E 16 b1 0b 11
        E 16 b1 0b 44
        E 0 81 43 00
        E 0 91 45 44
        E 32 b1 0b 3b
        E 16 b1 0b 33
        E 16 b1 0b 2a
        E 32 b1 0b 22
        E 16 b1 0b 19
        E 16 b1 0b 11
        E 16 b1 0b 44
        E 0 81 45 00
        E 0 91 48 44
        E 32 b1 0b 3b
        E 16 b1 0b 33
        E 16 b1 0b 2a
        E 32 b1 0b 22
        E 16 b1 0b 19
        E 16 b1 0b 11
        E 16 b1 0b 44
        E 0 81 48 00
        E 0 91 4d 44
        E 32 b1 0b 3b
        E 16 b1 0b 33
        E 16 b1 0b 2a
        E 32 b1 0b 22
        E 16 b1 0b 19
        E 16 b1 0b 11
        E 16 b1 0b 44
        E 0 81 4d 00
        E 0 91 4f 44
        E 32 b1 0b 3b
        E 16 b1 0b 33
        E 16 b1 0b 2a
        E 32 b1 0b 22
        E 16 b1 0b 19
        E 16 b1 0b 11
        E 16 b1 0b 44
        E 0 81 4f 00
        E 0 91 51 44
        E 32 b1 0b 3b
        E 16 b1 0b 33
        E 16 b1 0b 2a
        E 32 b1 0b 22
        E 16 b1 0b 19
        E 16 b1 0b 11
        E 16 b1 0b 44
        E 0 81 51 00
        E 0 91 4f 44
        E 32 b1 0b 3b
        E 16 b1 0b 33
        E 16 b1 0b 2a
        E 32 b1 0b 22
        E 16 b1 0b 19
        E 16 b1 0b 11
        E 16 b1 0b 44
        E 0 81 4f 00
        E 0 91 4d 44
        E 32 b1 0b 3b
        E 16 b1 0b 33
        E 16 b1 0b 2a
        E 32 b1 0b 22
        E 16 b1 0b 19
        E 16 b1 0b 11
        E 16 b1 0b 44
        E 0 81 4d 00
        E 0 91 48 44
        E 32 b1 0b 3b
        E 16 b1 0b 33
        E 16 b1 0b 2a
        E 32 b1 0b 22
        E 16 b1 0b 19
        E 16 b1 0b 11
        E 16 b1 0b 44
        E 0 81 48 00
        E 0 91 45 44
        E 32 b1 0b 3b
        E 16 b1 0b 33
        E 16 b1 0b 2a
        E 32 b1 0b 22
        E 16 b1 0b 19
        E 16 b1 0b 11
        E 16 b1 0b 44
        E 0 81 45 00
        E 0 91 43 44
        E 32 b1 0b 3b
        E 16 b1 0b 33
        E 16 b1 0b 2a
        E 32 b1 0b 22
        E 16 b1 0b 19
        E 16 b1 0b 11
        E 16 b1 0b 44
        E 0 81 43 00
        E 0 91 41 44
        E 32 b1 0b 3b
        E 16 b1 0b 33
        E 16 b1 0b 2a
        E 32 b1 0b 22
        E 16 b1 0b 19
        E 16 b1 0b 11
        E 16 b1 0b 44
        E 0 81 41 00
        E 0 91 3c 44
        E 32 b1 0b 3b
        E 16 b1 0b 33
        E 16 b1 0b 2a
        E 32 b1 0b 22
        E 16 b1 0b 19
        E 16 b1 0b 11
        E 16 b1 0b 44
        E 0 81 3c 00
        E 0 91 39 44
        E 32 b1 0b 3b
        E 16 b1 0b 33
        E 16 b1 0b 2a
        E 32 b1 0b 22
        E 16 b1 0b 19
        E 16 b1 0b 11
        E 16 b1 0b 44
        E 0 81 39 00
        E 0 91 37 44
        E 32 b1 0b 3b
        E 16 b1 0b 33
        E 16 b1 0b 2a
        E 32 b1 0b 22
        E 16 b1 0b 19
        E 16 b1 0b 11
        E 16 b1 0b 44
        E 0 81 37 00
        E 0 91 35 44
        E 32 b1 0b 3b
        E 16 b1 0b 33
        E 16 b1 0b 2a
        E 32 b1 0b 22
        E 16 b1 0b 19
        E 16 b1 0b 11
        E 16 b1 0b 44
        E 0 81 35 00
        E 0 91 30 44
        E 32 b1 0b 3b
        E 16 b1 0b 33
        E 16 b1 0b 2a
        E 32 b1 0b 22
        E 16 b1 0b 19
        E 16 b1 0b 11
        E 16 b1 0b 44
        E 0 81 30 00
        E 0 91 2d 44
        E 32 b1 0b 3b
        E 16 b1 0b 33
        E 16 b1 0b 2a
        E 32 b1 0b 22
        E 16 b1 0b 19
        E 16 b1 0b 11
        E 16 b1 0b 44
        E 0 81 2d 00
        E 0 91 2b 44
        E 32 b1 0b 3b
        E 16 b1 0b 33
        E 16 b1 0b 2a
        E 32 b1 0b 22
        E 16 b1 0b 19
        E 16 b1 0b 11
        E 16 b1 0b 44
        E 0 81 2b 00
        E 0 91 29 44
        E 32 b1 0b 3b
        E 16 b1 0b 33
        E 16 b1 0b 2a
        E 32 b1 0b 22
        E 16 b1 0b 19
        E 16 b1 0b 11
        E 16 b1 0b 44
        E 0 81 29 00
        E 0 91 24 44
        E 32 b1 0b 3b
        E 16 b1 0b 33
        E 16 b1 0b 2a
        E 32 b1 0b 22
        E 16 b1 0b 19
        E 16 b1 0b 11
        E 16 b1 0b 44
        E 0 81 24 00
        E 0 91 2a 44
        E 32 b1 0b 3b
        E 16 b1 0b 33
        E 16 b1 0b 2a
        E 32 b1 0b 22
        E 16 b1 0b 19
        E 16 b1 0b 11
        E 16 b1 0b 44
        E 0 81 2a 00
        E 0 91 2e 44
        E 32 b1 0b 3b
        E 16 b1 0b 33
        E 16 b1 0b 2a
        E 32 b1 0b 22
        E 16 b1 0b 19
        E 16 b1 0b 11
        E 16 b1 0b 44
        E 0 81 2e 00
        E 0 91 25 44
        E 32 b1 0b 3b
        E 16 b1 0b 33
        E 16 b1 0b 2a
        E 32 b1 0b 22
        E 16 b1 0b 19
        E 16 b1 0b 11
        E 16 b1 0b 44
        E 0 81 25 00
        E 0 91 29 44
        E 32 b1 0b 3b
        E 16 b1 0b 33
        E 16 b1 0b 2a
        E 32 b1 0b 22
        E 16 b1 0b 19
        E 16 b1 0b 11
        E 16 b1 0b 44
        E 0 81 29 00
        E 0 91 2a 44
        E 32 b1 0b 3b
        E 16 b1 0b 33
        E 16 b1 0b 2a
        E 32 b1 0b 22
        E 16 b1 0b 19
        E 16 b1 0b 11
        E 16 b1 0b 44
        E 0 81 2a 00
        E 0 91 2e 44
        E 32 b1 0b 3b
        E 16 b1 0b 33
        E 16 b1 0b 2a
        E 32 b1 0b 22
        E 16 b1 0b 19
        E 16 b1 0b 11
        E 16 b1 0b 44
        E 0 81 2e 00
        E 0 91 31 44
        E 32 b1 0b 3b
        E 16 b1 0b 33
        E 16 b1 0b 2a
        E 32 b1 0b 22
        E 16 b1 0b 19
        E 16 b1 0b 11
        E 16 b1 0b 44
        E 0 81 31 00
        E 0 91 35 44
        E 32 b1 0b 3b
        E 16 b1 0b 33
        E 16 b1 0b 2a
        E 32 b1 0b 22
        E 16 b1 0b 19
        E 16 b1 0b 11
        E 16 b1 0b 44
        E 0 81 35 00
        E 0 91 36 44
        E 32 b1 0b 3b
        E 16 b1 0b 33
        E 16 b1 0b 2a
        E 32 b1 0b 22
        E 16 b1 0b 19
        E 16 b1 0b 11
        E 16 b1 0b 44
        E 0 81 36 00
        E 0 91 3a 44
        E 32 b1 0b 3b
        E 16 b1 0b 33
        E 16 b1 0b 2a
        E 32 b1 0b 22
        E 16 b1 0b 19
        E 16 b1 0b 11
        E 16 b1 0b 44
        E 0 81 3a 00
        E 0 91 3d 44
        E 32 b1 0b 3b
        E 16 b1 0b 33
        E 16 b1 0b 2a
        E 32 b1 0b 22
        E 16 b1 0b 19
        E 16 b1 0b 11
        E 16 b1 0b 44
        E 0 81 3d 00
        E 0 91 41 44
        E 32 b1 0b 3b
        E 16 b1 0b 33
        E 16 b1 0b 2a
        E 32 b1 0b 22
        E 16 b1 0b 19
        E 16 b1 0b 11
        E 16 b1 0b 44
        E 0 81 41 00
        E 0 91 42 44
        E 32 b1 0b 3b
        E 16 b1 0b 33
        E 16 b1 0b 2a
        E 32 b1 0b 22
        E 16 b1 0b 19
        E 16 b1 0b 11
        E 16 b1 0b 44
        E 0 81 42 00
        E 0 91 46 44
        E 32 b1 0b 3b
        E 16 b1 0b 33
        E 16 b1 0b 2a
        E 32 b1 0b 22
        E 16 b1 0b 19
        E 16 b1 0b 11
        E 16 b1 0b 44
        E 0 81 46 00
        E 0 91 49 44
        E 32 b1 0b 3b
        E 16 b1 0b 33
        E 16 b1 0b 2a
        E 32 b1 0b 22
        E 16 b1 0b 19
        E 16 b1 0b 11
        E 16 b1 0b 44
        E 0 81 49 00
        E 0 91 4d 44
        E 32 b1 0b 3b
        E 16 b1 0b 33
        E 16 b1 0b 2a
        E 32 b1 0b 22
        E 16 b1 0b 19
        E 16 b1 0b 11
        E 16 b1 0b 44
        E 0 81 4d 00
        E 0 91 4e 44
        E 32 b1 0b 3b
        E 16 b1 0b 33
        E 16 b1 0b 2a
        E 32 b1 0b 22
        E 16 b1 0b 19
        E 16 b1 0b 11
        E 16 b1 0b 44
        E 0 81 4e 00
        E 0 91 4d 44
        E 32 b1 0b 3b
        E 16 b1 0b 33
        E 16 b1 0b 2a
        E 32 b1 0b 22
        E 16 b1 0b 19
        E 16 b1 0b 11
        E 16 b1 0b 44
        E 0 81 4d 00
        E 0 91 49 44
        E 32 b1 0b 3b
        E 16 b1 0b 33
        E 16 b1 0b 2a
        E 32 b1 0b 22
        E 16 b1 0b 19
        E 16 b1 0b 11
        E 16 b1 0b 44
        E 0 81 49 00
        E 0 91 46 44
        E 32 b1 0b 3b
        E 16 b1 0b 33
        E 16 b1 0b 2a
        E 32 b1 0b 22
        E 16 b1 0b 19
        E 16 b1 0b 11
        E 16 b1 0b 44
        E 0 81 46 00
        E 0 91 42 44
        E 32 b1 0b 3b
        E 16 b1 0b 33
        E 16 b1 0b 2a
        E 32 b1 0b 22
        E 16 b1 0b 19
        E 16 b1 0b 11
        E 16 b1 0b 44
        E 0 81 42 00
        E 0 91 41 44
        E 32 b1 0b 3b
        E 16 b1 0b 33
        E 16 b1 0b 2a
        E 32 b1 0b 22
        E 16 b1 0b 19
        E 16 b1 0b 11
        E 16 b1 0b 44
        E 0 81 41 00
        E 0 91 3d 44
        E 32 b1 0b 3b
        E 16 b1 0b 33
        E 16 b1 0b 2a
        E 32 b1 0b 22
        E 16 b1 0b 19
        E 16 b1 0b 11
        E 16 b1 0b 44
        E 0 81 3d 00
        E 0 91 3a 44
        E 32 b1 0b 3b
        E 16 b1 0b 33
        E 16 b1 0b 2a
        E 32 b1 0b 22
        E 16 b1 0b 19
        E 16 b1 0b 11
        E 16 b1 0b 44
        E 0 81 3a 00
        E 0 91 36 44
        E 32 b1 0b 3b
        E 16 b1 0b 33
        E 16 b1 0b 2a
        E 32 b1 0b 22
        E 16 b1 0b 19
        E 16 b1 0b 11
        E 16 b1 0b 44
        E 0 81 36 00
        E 0 91 35 44
        E 32 b1 0b 3b
        E 16 b1 0b 33
        E 16 b1 0b 2a
        E 32 b1 0b 22
        E 16 b1 0b 19
        E 16 b1 0b 11
        E 16 b1 0b 44
        E 0 81 35 00
        E 0 91 31 44
        E 32 b1 0b 3b
        E 16 b1 0b 33
        E 16 b1 0b 2a
        E 32 b1 0b 22
        E 16 b1 0b 19
        E 16 b1 0b 11
        E 16 b1 0b 44
        E 0 81 31 00
        E 0 91 2e 44
        E 32 b1 0b 3b
        E 16 b1 0b 33
        E 16 b1 0b 2a
        E 32 b1 0b 22
        E 16 b1 0b 19
        E 16 b1 0b 11
        E 16 b1 0b 44
        E 0 81 2e 00
        E 0 91 2a 44
        E 32 b1 0b 3b
        E 16 b1 0b 33
        E 16 b1 0b 2a
        E 32 b1 0b 22
        E 16 b1 0b 19
        E 16 b1 0b 11
        E 16 b1 0b 44
        E 0 81 2a 00
        E 0 91 29 44
        E 32 b1 0b 3b
        E 16 b1 0b 33
        E 16 b1 0b 2a
        E 32 b1 0b 22
        E 16 b1 0b 19
        E 16 b1 0b 11
        E 16 b1 0b 44
        E 0 81 29 00
        E 0 91 25 44
        E 32 b1 0b 3b
        E 16 b1 0b 33
        E 16 b1 0b 2a
        E 32 b1 0b 22
        E 16 b1 0b 19
        E 16 b1 0b 11
        E 16 b1 0b 44
        E 0 81 25 00
        E 0 91 2e 44
        E 32 b1 0b 3b
        E 16 b1 0b 33
        E 16 b1 0b 2a
        E 32 b1 0b 22
        E 16 b1 0b 19
        E 16 b1 0b 11
        E 16 b1 0b 44
        E 0 81 2e 00
        E 0 91 2c 44
        E 32 b1 0b 3b
        E 16 b1 0b 33
        E 16 b1 0b 2a
        E 32 b1 0b 22
        E 16 b1 0b 19
        E 16 b1 0b 11
        E 16 b1 0b 44
        E 0 81 2c 00
        E 0 91 24 44
        E 32 b1 0b 3b
        E 16 b1 0b 33
        E 16 b1 0b 2a
        E 32 b1 0b 22
        E 16 b1 0b 19
        E 16 b1 0b 11
        E 16 b1 0b 44
        E 0 81 24 00
        E 0 91 27 44
        E 32 b1 0b 3b
        E 16 b1 0b 33
        E 16 b1 0b 2a
        E 32 b1 0b 22
        E 16 b1 0b 19
        E 16 b1 0b 11
        E 16 b1 0b 44
        E 0 81 27 00
        E 0 91 2b 44
        E 32 b1 0b 3b
        E 16 b1 0b 33
        E 16 b1 0b 2a
        E 32 b1 0b 22
        E 16 b1 0b 19
        E 16 b1 0b 11
        E 16 b1 0b 44
        E 0 81 2b 00
        E 0 91 2c 44
        E 32 b1 0b 3b
        E 16 b1 0b 33
        E 16 b1 0b 2a
        E 32 b1 0b 22
        E 16 b1 0b 19
        E 16 b1 0b 11
        E 16 b1 0b 44
        E 0 81 2c 00
        E 0 91 30 44
        E 32 b1 0b 3b
        E 16 b1 0b 33
        E 16 b1 0b 2a
        E 32 b1 0b 22
        E 16 b1 0b 19
        E 16 b1 0b 11
        E 16 b1 0b 44
        E 0 81 30 00
        E 0 91 33 44
        E 32 b1 0b 3b
        E 16 b1 0b 33
        E 16 b1 0b 2a
        E 32 b1 0b 22
        E 16 b1 0b 19
        E 16 b1 0b 11
        E 16 b1 0b 44
        E 0 81 33 00
        E 0 91 37 44
        E 32 b1 0b 3b
        E 16 b1 0b 33
        E 16 b1 0b 2a
        E 32 b1 0b 22
        E 16 b1 0b 19
        E 16 b1 0b 11
        E 16 b1 0b 44
        E 0 81 37 00
        E 0 91 38 44
        E 32 b1 0b 3b
        E 16 b1 0b 33
        E 16 b1 0b 2a
        E 32 b1 0b 22
        E 16 b1 0b 19
        E 16 b1 0b 11
        E 16 b1 0b 44
        E 0 81 38 00
        E 0 91 3c 44
        E 32 b1 0b 3b
        E 16 b1 0b 33
        E 16 b1 0b 2a
        E 32 b1 0b 22
        E 16 b1 0b 19
        E 16 b1 0b 11
        E 16 b1 0b 44
        E 0 81 3c 00
        E 0 91 3f 44
        E 32 b1 0b 3b
        E 16 b1 0b 33
        E 16 b1 0b 2a
        E 32 b1 0b 22
        E 16 b1 0b 19
        E 16 b1 0b 11
        E 16 b1 0b 44
        E 0 81 3f 00
        E 0 91 43 44
        E 32 b1 0b 3b
        E 16 b1 0b 33
        E 16 b1 0b 2a
        E 32 b1 0b 22
        E 16 b1 0b 19
        E 16 b1 0b 11
        E 16 b1 0b 44
        E 0 81 43 00
        E 0 91 44 44
        E 32 b1 0b 3b
        E 16 b1 0b 33
        E 16 b1 0b 2a
        E 32 b1 0b 22
        E 16 b1 0b 19
        E 16 b1 0b 11
        E 16 b1 0b 44
        E 0 81 44 00
        E 0 91 48 44
        E 32 b1 0b 3b
        E 16 b1 0b 33
        E 16 b1 0b 2a
        E 32 b1 0b 22
        E 16 b1 0b 19
        E 16 b1 0b 11
        E 16 b1 0b 44
        E 0 81 48 00
        E 0 91 4b 44
        E 32 b1 0b 3b
        E 16 b1 0b 33
        E 16 b1 0b 2a
        E 32 b1 0b 22
        E 16 b1 0b 19
        E 16 b1 0b 11
        E 16 b1 0b 44
        E 0 81 4b 00
        E 0 91 4f 44
        E 32 b1 0b 3b
        E 16 b1 0b 33
        E 16 b1 0b 2a
        E 32 b1 0b 22
        E 16 b1 0b 19
        E 16 b1 0b 11
        E 16 b1 0b 44
        E 0 81 4f 00
        E 0 91 50 44
        E 32 b1 0b 3b
        E 16 b1 0b 33
        E 16 b1 0b 2a
        E 32 b1 0b 22
        E 16 b1 0b 19
        E 16 b1 0b 11
        E 16 b1 0b 44
        E 0 81 50 00
        E 0 91 4f 44
        E 32 b1 0b 3b
        E 16 b1 0b 33
        E 16 b1 0b 2a
        E 32 b1 0b 22
        E 16 b1 0b 19
        E 16 b1 0b 11
        E 16 b1 0b 44
        E 0 81 4f 00
        E 0 91 4b 44
        E 32 b1 0b 3b
        E 16 b1 0b 33
        E 16 b1 0b 2a
        E 32 b1 0b 22
        E 16 b1 0b 19
        E 16 b1 0b 11
        E 16 b1 0b 44
        E 0 81 4b 00
        E 0 91 48 44
        E 32 b1 0b 3b
        E 16 b1 0b 33
        E 16 b1 0b 2a
        E 32 b1 0b 22
        E 16 b1 0b 19
        E 16 b1 0b 11
        E 16 b1 0b 44
        E 0 81 48 00
        E 0 91 44 44
        E 32 b1 0b 3b
        E 16 b1 0b 33
        E 16 b1 0b 2a
        E 32 b1 0b 22
        E 16 b1 0b 19
        E 16 b1 0b 11
        E 16 b1 0b 44
        E 0 81 44 00
        E 0 91 43 44
        E 32 b1 0b 3b
        E 16 b1 0b 33
        E 16 b1 0b 2a
        E 32 b1 0b 22
        E 16 b1 0b 19
        E 16 b1 0b 11
        E 16 b1 0b 44
        E 0 81 43 00
        E 0 91 3f 44
        E 32 b1 0b 3b
        E 16 b1 0b 33
        E 16 b1 0b 2a
        E 32 b1 0b 22
        E 16 b1 0b 19
        E 16 b1 0b 11
        E 16 b1 0b 44
        E 0 81 3f 00
        E 0 91 3c 44
        E 32 b1 0b 3b
        E 16 b1 0b 33
        E 16 b1 0b 2a
        E 32 b1 0b 22
        E 16 b1 0b 19
        E 16 b1 0b 11
        E 16 b1 0b 44
        E 0 81 3c 00
        E 0 91 38 44
        E 32 b1 0b 3b
        E 16 b1 0b 33
        E 16 b1 0b 2a
        E 32 b1 0b 22
        E 16 b1 0b 19
        E 16 b1 0b 11
        E 16 b1 0b 44
        E 0 81 38 00
        E 0 91 37 44
        E 32 b1 0b 3b
        E 16 b1 0b 33
        E 16 b1 0b 2a
        E 32 b1 0b 22
        E 16 b1 0b 19
        E 16 b1 0b 11
        E 16 b1 0b 44
        E 0 81 37 00
        E 0 91 33 44
        E 32 b1 0b 3b
        E 16 b1 0b 33
        E 16 b1 0b 2a
        E 32 b1 0b 22
        E 16 b1 0b 19
        E 16 b1 0b 11
        E 16 b1 0b 44
        E 0 81 33 00
        E 0 91 30 44
        E 32 b1 0b 3b
        E 16 b1 0b 33
        E 16 b1 0b 2a
        E 32 b1 0b 22
        E 16 b1 0b 19
        E 16 b1 0b 11
        E 16 b1 0b 44
        E 0 81 30 00
        E 0 91 2c 44
        E 32 b1 0b 3b
        E 16 b1 0b 33
        E 16 b1 0b 2a
        E 32 b1 0b 22
        E 16 b1 0b 19
        E 16 b1 0b 11
        E 16 b1 0b 44
        E 0 81 2c 00
        E 0 91 2b 44
        E 32 b1 0b 3b
        E 16 b1 0b 33
        E 16 b1 0b 2a
        E 32 b1 0b 22
        E 16 b1 0b 19
        E 16 b1 0b 11
        E 16 b1 0b 44
        E 0 81 2b 00
        E 0 91 27 44
        E 32 b1 0b 3b
        E 16 b1 0b 33
        E 16 b1 0b 2a
        E 32 b1 0b 22
        E 16 b1 0b 19
        E 16 b1 0b 11
        E 16 b1 0b 44
        E 0 81 27 00
        E 0 91 24 44
        E 32 b1 0b 3b
        E 16 b1 0b 33
        E 16 b1 0b 2a
        E 32 b1 0b 22
        E 16 b1 0b 19
        E 16 b1 0b 11
        E 16 b1 0b 44
        E 0 81 24 00
        E 0 91 2e 44
        E 32 b1 0b 3b
        E 16 b1 0b 33
        E 16 b1 0b 2a
        E 32 b1 0b 22
        E 16 b1 0b 19
        E 16 b1 0b 11
        E 16 b1 0b 44
        E 0 81 2e 00
        E 0 91 24 44
        E 32 b1 0b 3b
        E 16 b1 0b 33
        E 16 b1 0b 2a
        E 32 b1 0b 22
        E 16 b1 0b 19
        E 16 b1 0b 11
        E 16 b1 0b 44
        E 0 81 24 00
        E 0 91 26 44
        E 32 b1 0b 3b
        E 16 b1 0b 33
        E 16 b1 0b 2a
        E 32 b1 0b 22
        E 16 b1 0b 19
        E 16 b1 0b 11
        E 16 b1 0b 44
        E 0 81 26 00
        E 0 91 29 44
        E 32 b1 0b 3b
        E 16 b1 0b 33
        E 16 b1 0b 2a
        E 32 b1 0b 22
        E 16 b1 0b 19
        E 16 b1 0b 11
        E 16 b1 0b 44
        E 0 81 29 00
        E 0 91 2e 44
        E 32 b1 0b 3b
        E 16 b1 0b 33
        E 16 b1 0b 2a
        E 32 b1 0b 22
        E 16 b1 0b 19
        E 16 b1 0b 11
        E 16 b1 0b 44
        E 0 81 2e 00
        E 0 91 30 44
        E 32 b1 0b 3b
        E 16 b1 0b 33
        E 16 b1 0b 2a
        E 32 b1 0b 22
        E 16 b1 0b 19
        E 16 b1 0b 11
        E 16 b1 0b 44
        E 0 81 30 00
        E 0 91 32 44
        E 32 b1 0b 3b
        E 16 b1 0b 33
        E 16 b1 0b 2a
        E 32 b1 0b 22
        E 16 b1 0b 19
        E 16 b1 0b 11
        E 16 b1 0b 44
        E 0 81 32 00
        E 0 91 35 44
        E 32 b1 0b 3b
        E 16 b1 0b 33
        E 16 b1 0b 2a
        E 32 b1 0b 22
        E 16 b1 0b 19
        E 16 b1 0b 11
        E 16 b1 0b 44
        E 0 81 35 00
        E 0 91 3a 44
        E 32 b1 0b 3b
        E 16 b1 0b 33
        E 16 b1 0b 2a
        E 32 b1 0b 22
        E 16 b1 0b 19
        E 16 b1 0b 11
        E 16 b1 0b 44
        E 0 81 3a 00
        E 0 91 3c 44
        E 32 b1 0b 3b
        E 16 b1 0b 33
        E 16 b1 0b 2a
        E 32 b1 0b 22
        E 16 b1 0b 19
        E 16 b1 0b 11
        E 16 b1 0b 44
        E 0 81 3c 00
        E 0 91 3e 44
        E 32 b1 0b 3b
        E 16 b1 0b 33
        E 16 b1 0b 2a
        E 32 b1 0b 22
        E 16 b1 0b 19
        E 16 b1 0b 11
        E 16 b1 0b 44
        E 0 81 3e 00
        E 0 91 41 44
        E 32 b1 0b 3b
        E 16 b1 0b 33
        E 16 b1 0b 2a
        E 32 b1 0b 22
        E 16 b1 0b 19
        E 16 b1 0b 11
        E 16 b1 0b 44
        E 0 81 41 00
        E 0 91 46 44
        E 32 b1 0b 3b
        E 16 b1 0b 33
        E 16 b1 0b 2a
        E 32 b1 0b 22
        E 16 b1 0b 19
        E 16 b1 0b 11
        E 16 b1 0b 44
        E 0 81 46 00
        E 0 91 48 44
        E 32 b1 0b 3b
        E 16 b1 0b 33
        E 16 b1 0b 2a
        E 32 b1 0b 22
        E 16 b1 0b 19
        E 16 b1 0b 11
        E 16 b1 0b 44
        E 0 81 48 00
        E 0 91 4a 44
        E 32 b1 0b 3b
        E 16 b1 0b 33
        E 16 b1 0b 2a
        E 32 b1 0b 22
        E 16 b1 0b 19
        E 16 b1 0b 11
        E 16 b1 0b 44
        E 0 81 4a 00
        E 0 91 4d 44
        E 32 b1 0b 3b
        E 16 b1 0b 33
        E 16 b1 0b 2a
        E 32 b1 0b 22
        E 16 b1 0b 19
        E 16 b1 0b 11
        E 16 b1 0b 44
        E 0 81 4d 00
        E 0 91 52 44
        E 32 b1 0b 3b
        E 16 b1 0b 33
        E 16 b1 0b 2a
        E 32 b1 0b 22
        E 16 b1 0b 19
        E 16 b1 0b 11
        E 16 b1 0b 44
        E 0 81 52 00
        E 0 91 4d 44
        E 32 b1 0b 3b
        E 16 b1 0b 33
        E 16 b1 0b 2a
        E 32 b1 0b 22
        E 16 b1 0b 19
        E 16 b1 0b 11
        E 16 b1 0b 44
        E 0 81 4d 00
        E 0 91 4a 44
        E 32 b1 0b 3b
        E 16 b1 0b 33
        E 16 81 4a 00
        E 0 b1 7b 00
        E 0 ff 2f 00
      >
    >
  >
  <TRACK {2BDA6AE9-D427-4262-81E7-60045876C7EE}
    NAME "NES - Triangle"
    PEAKCOL 16744192
    BEAT -1
    AUTOMODE 0
    PANLAWFLAGS 3
    VOLPAN 1 0 -1 -1 1
    MUTESOLO 0 0 0
    IPHASE 0
    PLAYOFFS 0 1
    ISBUS 0 0
    BUSCOMP 0 0 0 0 0
    SHOWINMIX 1 0.6667 0.5 1 0.5 0 0 0
    FIXEDLANES 9 0 0 0 0
    SEL 0
    REC 0 5088 1 0 0 0 0 0
    VU 2
    TRACKHEIGHT 0 0 0 0 0 0 0
    INQ 0 0 0 0.5 100 0 0 100
    NCHAN 2
    FX 1
    TRACKID {2BDA6AE9-D427-4262-81E7-60045876C7EE}
    PERF 0
    MIDIOUT -1
    MAINSEND 1 0
    <FXCHAIN
      WNDRECT 24 52 700 560
      SHOW 0
      LASTSEL 0
      DOCKED 0
      BYPASS 0 0 0
      <JS "ReapNES Studio/ReapNES_Console.jsfx" ""
        2 15 1 10 80 10 100 2 1 15 1 5 60 10 80 1 1 0 50 0 0 15 1 0 100 0 0 0.500000 0.500000 0.400000 0.300000 0.800000 2 1 0 0 0 0 - - - - - - - - - - - - - - - - - - - - - - - - - -
      >
      FLOATPOS 0 0 0 0
      FXID {766F7050-FEEE-403B-8DAE-973E7650E014}
      WAK 0 0
    >
  >
  <TRACK {17023C3C-1B4E-4CB9-AB0F-E69EA907C960}
    NAME "NES - Noise / Drums"
    PEAKCOL 11184810
    BEAT -1
    AUTOMODE 0
    PANLAWFLAGS 3
    VOLPAN 1 0 -1 -1 1
    MUTESOLO 0 0 0
    IPHASE 0
    PLAYOFFS 0 1
    ISBUS 0 0
    BUSCOMP 0 0 0 0 0
    SHOWINMIX 1 0.6667 0.5 1 0.5 0 0 0
    FIXEDLANES 9 0 0 0 0
    SEL 0
    REC 0 5088 1 0 0 0 0 0
    VU 2
    TRACKHEIGHT 0 0 0 0 0 0 0
    INQ 0 0 0 0.5 100 0 0 100
    NCHAN 2
    FX 1
    TRACKID {17023C3C-1B4E-4CB9-AB0F-E69EA907C960}
    PERF 0
    MIDIOUT -1
    MAINSEND 1 0
    <FXCHAIN
      WNDRECT 24 52 700 560
      SHOW 0
      LASTSEL 0
      DOCKED 0
      BYPASS 0 0 0
      <JS "ReapNES Studio/ReapNES_Console.jsfx" ""
        2 15 1 10 80 10 100 2 1 15 1 5 60 10 80 1 1 0 50 0 0 15 1 0 100 0 0 0.500000 0.500000 0.400000 0.300000 0.800000 3 1 0 0 0 0 - - - - - - - - - - - - - - - - - - - - - - - - - -
      >
      FLOATPOS 0 0 0 0
      FXID {AD7A11D3-0582-448F-BC6E-B61F706C9DEF}
      WAK 0 0
    >
  >
>