<REAPER_PROJECT 0.1 "7.27/win64" 1707000000
  <NOTES 0 2
    |ReapNES Studio Project
    |MIDI Import - Final_Fantasy_song_4C_rom_v1
  >
  RIPPLE 0
  GROUPOVERRIDE 0 0 0
  AUTOXFADE 129
  ENVATTACH 3
  POOLEDENVATTACH 0
  MIXERUIFLAGS 11 48
  ENVFADESZ10 40
  PEAKGAIN 1
  FEEDBACK 0
  PANLAW 1
  PROJOFFS 0 0 0
  MAXPROJLEN 0 0
  GRID 3199 8 1 8 1 0 0 0
  TIMEMODE 1 5 -1 30 0 0 -1
  VIDEO_CONFIG 0 0 65792
  PANMODE 3
  PANLAWFLAGS 3
  CURSOR 0
  ZOOM 100 0 0
  VZOOMEX 6 0
  USE_REC_CFG 0
  RECMODE 1
  SMPTESYNC 0 30 100 40 1000 300 0 0 1 0 0
  LOOP 0
  LOOPGRAN 0 4
  RECORD_PATH "Media" ""
  <RECORD_CFG
    ZXZhdxgAAQ==
  >
  <APPLYFX_CFG
  >
  RENDER_FILE ""
  RENDER_PATTERN ""
  RENDER_FMT 0 2 0
  RENDER_1X 0
  RENDER_RANGE 1 0 0 18 1000
  RENDER_RESAMPLE 3 0 1
  RENDER_ADDTOPROJ 0
  RENDER_STEMS 0
  RENDER_DITHER 0
  TIMELOCKMODE 1
  TEMPOENVLOCKMODE 1
  ITEMMIX 1
  DEFPITCHMODE 589824 0
  TAKELANE 1
  SAMPLERATE 44100 0 0
  <RENDER_CFG
    ZXZhdxgAAQ==
  >
  LOCK 1
  <METRONOME 6 2
    VOL 0.25 0.125
    BEATLEN 4
    FREQ 1760 880 1
    SAMPLES "" ""
    SPLIGNORE 0 0
    SPLDEF 2 660 "" 0
    SPLDEF 3 440 "" 0
    PATTERN 0 169
    PATTERNSTR ABBB
    MULT 1
  >
  GLOBAL_AUTO -1
  TEMPO 128.59999614200012 4 4
  PLAYRATE 1 0 0.25 4
  SELECTION 0 0
  SELECTION2 0 0
  MASTERAUTOMODE 0
  MASTERTRACKHEIGHT 0 0
  MASTERPEAKCOL 16576
  MASTERMUTESOLO 0
  MASTERTRACKVIEW 0 0.6667 0.5 0.5 0 0 0 0 0 0 0 0 0 0
  MASTERHWOUT 0 0 1 0 0 0 0 -1
  MASTER_NCH 2 2
  MASTER_VOLUME 1 0 -1 -1 1
  MASTER_PANMODE 3
  MASTER_PANLAWFLAGS 3
  MASTER_FX 1
  MASTER_SEL 0
  <MASTERPLAYSPEEDENV
    EGUID {37DFD744-7EA4-4358-A5E7-5DD694CE19C1}
    ACT 0 -1
    VIS 0 1 1
    LANEHEIGHT 0 0
    ARM 0
    DEFSHAPE 0 -1 -1
  >
  <TEMPOENVEX
    EGUID {D1F5463A-4317-47CA-8E03-998161C2B164}
    ACT 1 -1
    VIS 1 0 1
    LANEHEIGHT 0 0
    ARM 0
    DEFSHAPE 1 -1 -1
  >
  <PROJBAY
  >
  <TRACK {B186916D-3BA0-457F-A03E-19748B8E7074}
    NAME "NES - Pulse 1 [ch0]"
    PEAKCOL 16576606
    BEAT -1
    AUTOMODE 0
    PANLAWFLAGS 3
    VOLPAN 1 0 -1 -1 1
    MUTESOLO 0 0 0
    IPHASE 0
    PLAYOFFS 0 1
    ISBUS 0 0
    BUSCOMP 0 0 0 0 0
    SHOWINMIX 1 0.6667 0.5 1 0.5 0 0 0
    FIXEDLANES 9 0 0 0 0
    SEL 1
    REC 1 5088 1 0 0 0 0 0
    VU 2
    TRACKHEIGHT 0 0 0 0 0 0 0
    INQ 0 0 0 0.5 100 0 0 100
    NCHAN 2
    FX 1
    TRACKID {B186916D-3BA0-457F-A03E-19748B8E7074}
    PERF 0
    MIDIOUT -1
    MAINSEND 1 0
    <FXCHAIN
      WNDRECT 24 52 700 560
      SHOW 0
      LASTSEL 0
      DOCKED 0
      BYPASS 0 0 0
      <JS "ReapNES Studio/ReapNES_Console.jsfx" ""
        2 15 1 10 80 10 100 2 1 15 1 5 60 10 80 1 1 0 50 0 0 15 1 0 100 0 0 0.500000 0.500000 0.400000 0.300000 0.800000 0 1 0 0 0 0 - - - - - - - - - - - - - - - - - - - - - - - - - -
      >
      FLOATPOS 0 0 0 0
      FXID {89DE9C1E-E869-41D6-9C54-4AA33BD40488}
      WAK 0 0
    >
    <ITEM
      POSITION 0
      LENGTH 74.5878716
      LOOP 0
      ALLTAKES 0
      FADEIN 0 0 0 0 0 0 0
      FADEOUT 0 0 0 0 0 0 0
      MUTE 0 0
      SEL 0
      IGUID {1BD88D6B-37CC-490F-ABE4-274C1EFEE043}
      <SOURCE MIDI
        HASDATA 1 480 QN
        CCINTERP 32
        E 0 c0 50
        E 0 b0 0c 20
        E 0 b0 0b 77
        E 0 90 2e 77
        E 16 80 2e 00
        E 48 b0 0b 66
        E 0 90 40 66
        E 16 b0 0b 5d
        E 16 b0 0b 55
        E 16 b0 0b 4c
        E 16 b0 0b 44
        E 16 b0 0b 3b
        E 16 b0 0b 33
        E 16 b0 0b 2a
        E 16 b0 0b 22
        E 16 b0 0b 2a
        E 16 b0 0b 33
        E 16 b0 0b 3b
        E 16 b0 0b 44
        E 16 b0 0b 3b
        E 16 b0 0b 33
        E 16 b0 0b 2a
        E 16 b0 0b 22
        E 16 b0 0b 2a
        E 16 b0 0b 33
        E 16 b0 0b 3b
        E 16 b0 0b 44
        E 16 b0 0b 3b
        E 16 b0 0b 33
        E 16 b0 0b 2a
        E 16 b0 0b 22
        E 16 b0 0b 2a
        E 16 b0 0b 33
        E 16 b0 0b 3b
        E 16 b0 0b 44
        E 16 b0 0b 4c
        E 16 b0 0b 55
        E 16 b0 0b 5d
        E 272 b0 0b 66
        E 0 80 40 00
        E 0 90 3b 66
        E 16 b0 0b 5d
        E 16 b0 0b 55
        E 16 b0 0b 4c
        E 16 b0 0b 44
        E 16 b0 0b 3b
        E 16 b0 0b 33
        E 16 b0 0b 2a
        E 16 b0 0b 22
        E 16 b0 0b 2a
        E 16 b0 0b 33
        E 16 b0 0b 3b
        E 16 b0 0b 44
        E 16 b0 0b 3b
        E 16 b0 0b 33
        E 16 b0 0b 2a
        E 16 b0 0b 22
        E 16 b0 0b 2a
        E 16 b0 0b 33
        E 16 b0 0b 3b
        E 16 b0 0b 44
        E 16 b0 0b 3b
        E 16 b0 0b 33
        E 16 b0 0b 2a
        E 16 b0 0b 66
        E 0 80 3b 00
        E 0 90 47 66
        E 16 b0 0b 5d
        E 16 b0 0b 55
        E 16 b0 0b 4c
        E 16 b0 0b 44
        E 16 b0 0b 3b
        E 16 b0 0b 33
        E 16 b0 0b 2a
        E 16 b0 0b 22
        E 16 b0 0b 2a
        E 16 b0 0b 33
        E 16 b0 0b 3b
        E 16 b0 0b 44
        E 16 b0 0b 3b
        E 16 b0 0b 33
        E 16 b0 0b 2a
        E 16 b0 0b 22
        E 16 b0 0b 2a
        E 16 b0 0b 33
        E 16 b0 0b 3b
        E 16 b0 0b 44
        E 16 b0 0b 3b
        E 16 b0 0b 33
        E 16 b0 0b 2a
        E 16 b0 0b 66
        E 0 80 47 00
        E 0 90 45 66
        E 16 b0 0b 5d
        E 16 b0 0b 55
        E 16 b0 0b 4c
        E 16 b0 0b 44
        E 16 b0 0b 3b
        E 16 b0 0b 33
        E 16 b0 0b 2a
        E 16 b0 0b 22
        E 16 b0 0b 2a
        E 16 b0 0b 33
        E 16 b0 0b 3b
        E 16 b0 0b 44
        E 16 b0 0b 3b
        E 16 b0 0b 33
        E 16 b0 0b 2a
        E 16 b0 0b 22
        E 16 b0 0b 2a
        E 16 b0 0b 33
        E 16 b0 0b 3b
        E 16 b0 0b 44
        E 16 b0 0b 3b
        E 16 b0 0b 33
        E 16 b0 0b 2a
        E 16 b0 0b 66
        E 0 80 45 00
        E 0 90 43 66
        E 16 b0 0b 5d
        E 16 b0 0b 55
        E 16 b0 0b 4c
        E 16 b0 0b 44
        E 16 b0 0b 3b
        E 16 b0 0b 33
        E 16 b0 0b 2a
        E 16 b0 0b 22
        E 16 b0 0b 2a
        E 16 b0 0b 33
        E 16 b0 0b 3b
        E 16 b0 0b 44
        E 16 b0 0b 3b
        E 16 b0 0b 33
        E 16 b0 0b 2a
        E 16 b0 0b 22
        E 16 b0 0b 2a
        E 16 b0 0b 33
        E 16 b0 0b 3b
        E 16 b0 0b 44
        E 16 b0 0b 3b
        E 16 b0 0b 33
        E 16 b0 0b 2a
        E 16 b0 0b 66
        E 0 80 43 00
        E 0 90 42 66
        E 16 b0 0b 5d
        E 16 b0 0b 55
        E 16 b0 0b 4c
        E 16 b0 0b 44
        E 16 b0 0b 3b
        E 16 b0 0b 33
        E 16 b0 0b 2a
        E 16 b0 0b 22
        E 16 b0 0b 2a
        E 16 b0 0b 33
        E 16 b0 0b 3b
        E 16 b0 0b 44
        E 16 b0 0b 3b
        E 16 b0 0b 33
        E 16 b0 0b 2a
        E 16 b0 0b 22
        E 16 b0 0b 2a
        E 16 b0 0b 33
        E 16 b0 0b 3b
        E 16 b0 0b 44
        E 16 b0 0b 3b
        E 16 b0 0b 33
        E 16 b0 0b 2a
        E 16 b0 0b 66
        E 0 80 42 00
        E 0 90 40 66
        E 16 b0 0b 5d
        E 16 b0 0b 55
        E 16 b0 0b 4c
        E 16 b0 0b 44
        E 16 b0 0b 3b
        E 16 b0 0b 33
        E 16 b0 0b 2a
        E 16 b0 0b 22
        E 16 b0 0b 2a
        E 16 b0 0b 33
        E 16 b0 0b 3b
        E 16 b0 0b 44
        E 16 b0 0b 3b
        E 16 b0 0b 33
        E 16 b0 0b 2a
        E 16 b0 0b 22
        E 16 b0 0b 2a
        E 16 b0 0b 33
        E 16 b0 0b 3b
        E 16 b0 0b 44
        E 16 b0 0b 3b
        E 16 b0 0b 33
        E 16 b0 0b 2a
        E 16 b0 0b 66
        E 0 80 40 00
        E 0 90 43 66
        E 16 b0 0b 5d
        E 16 b0 0b 55
        E 16 b0 0b 4c
        E 16 b0 0b 44
        E 16 b0 0b 3b
        E 16 b0 0b 33
        E 16 b0 0b 2a
        E 16 b0 0b 22
        E 16 b0 0b 2a
        E 16 b0 0b 33
        E 16 b0 0b 3b
        E 16 b0 0b 44
        E 16 b0 0b 3b
        E 16 b0 0b 33
        E 16 b0 0b 2a
        E 16 b0 0b 22
        E 16 b0 0b 2a
        E 16 b0 0b 33
        E 16 b0 0b 3b
        E 16 b0 0b 44
        E 16 b0 0b 3b
        E 16 b0 0b 33
        E 16 b0 0b 2a
        E 16 b0 0b 22
        E 16 b0 0b 2a
        E 16 b0 0b 33
        E 16 b0 0b 3b
        E 16 b0 0b 44
        E 16 b0 0b 4c
        E 16 b0 0b 55
        E 16 b0 0b 5d
        E 272 b0 0b 66
        E 0 80 43 00
        E 0 90 40 66
        E 16 b0 0b 5d
        E 16 b0 0b 55
        E 16 b0 0b 4c
        E 16 b0 0b 44
        E 16 b0 0b 3b
        E 16 b0 0b 33
        E 16 b0 0b 2a
        E 16 b0 0b 22
        E 16 b0 0b 2a
        E 16 b0 0b 33
        E 16 b0 0b 3b
        E 16 b0 0b 44
        E 16 b0 0b 3b
        E 16 b0 0b 33
        E 16 b0 0b 2a
        E 16 b0 0b 22
        E 16 b0 0b 2a
        E 16 b0 0b 33
        E 16 b0 0b 3b
        E 16 b0 0b 44
        E 16 b0 0b 3b
        E 16 b0 0b 33
        E 16 b0 0b 2a
        E 16 b0 0b 22
        E 16 b0 0b 2a
        E 16 b0 0b 33
        E 16 b0 0b 3b
        E 16 b0 0b 44
        E 16 b0 0b 4c
        E 16 b0 0b 55
        E 16 b0 0b 5d
        E 2192 b0 0b 66
        E 16 b0 0b 5d
        E 16 b0 0b 55
        E 16 b0 0b 4c
        E 16 b0 0b 44
        E 16 b0 0b 3b
        E 16 b0 0b 33
        E 16 b0 0b 2a
        E 16 b0 0b 22
        E 16 b0 0b 2a
        E 16 b0 0b 33
        E 16 b0 0b 3b
        E 16 b0 0b 44
        E 16 b0 0b 3b
        E 16 b0 0b 33
        E 16 b0 0b 2a
        E 16 b0 0b 22
        E 16 b0 0b 2a
        E 16 b0 0b 33
        E 16 b0 0b 3b
        E 16 b0 0b 44
        E 16 b0 0b 3b
        E 16 b0 0b 33
        E 16 b0 0b 2a
        E 16 b0 0b 66
        E 0 80 40 00
        E 0 90 3b 66
        E 16 b0 0b 5d
        E 16 b0 0b 55
        E 16 b0 0b 4c
        E 16 b0 0b 44
        E 16 b0 0b 3b
        E 16 b0 0b 33
        E 16 b0 0b 2a
        E 16 b0 0b 22
        E 16 b0 0b 2a
        E 16 b0 0b 33
        E 16 b0 0b 3b
        E 16 b0 0b 44
        E 16 b0 0b 3b
        E 16 b0 0b 33
        E 16 b0 0b 2a
        E 16 b0 0b 22
        E 16 b0 0b 2a
        E 16 b0 0b 33
        E 16 b0 0b 3b
        E 16 b0 0b 44
        E 16 b0 0b 3b
        E 16 b0 0b 33
        E 16 b0 0b 2a
        E 16 b0 0b 66
        E 0 80 3b 00
        E 0 90 47 66
        E 16 b0 0b 5d
        E 16 b0 0b 55
        E 16 b0 0b 4c
        E 16 b0 0b 44
        E 16 b0 0b 3b
        E 16 b0 0b 33
        E 16 b0 0b 2a
        E 16 b0 0b 22
        E 16 b0 0b 2a
        E 16 b0 0b 33
        E 16 b0 0b 3b
        E 16 b0 0b 44
        E 16 b0 0b 3b
        E 16 b0 0b 33
        E 16 b0 0b 2a
        E 16 b0 0b 22
        E 16 b0 0b 2a
        E 16 b0 0b 33
        E 16 b0 0b 3b
        E 16 b0 0b 44
        E 16 b0 0b 3b
        E 16 b0 0b 33
        E 16 b0 0b 2a
        E 16 b0 0b 66
        E 0 80 47 00
        E 0 90 4a 66
        E 16 b0 0b 5d
        E 16 b0 0b 55
        E 16 b0 0b 4c
        E 16 b0 0b 44
        E 16 b0 0b 3b
        E 16 b0 0b 33
        E 16 b0 0b 2a
        E 16 b0 0b 22
        E 16 b0 0b 2a
        E 16 b0 0b 33
        E 16 b0 0b 3b
        E 16 b0 0b 44
        E 16 b0 0b 3b
        E 16 b0 0b 33
        E 16 b0 0b 2a
        E 16 b0 0b 22
        E 16 b0 0b 2a
        E 16 b0 0b 33
        E 16 b0 0b 3b
        E 16 b0 0b 44
        E 16 b0 0b 3b
        E 16 b0 0b 33
        E 16 b0 0b 2a
        E 16 b0 0b 66
        E 0 80 4a 00
        E 0 90 48 66
        E 16 b0 0b 5d
        E 16 b0 0b 55
        E 16 b0 0b 4c
        E 16 b0 0b 44
        E 16 b0 0b 3b
        E 16 b0 0b 33
        E 16 b0 0b 2a
        E 16 b0 0b 22
        E 16 b0 0b 2a
        E 16 b0 0b 33
        E 16 b0 0b 3b
        E 16 b0 0b 44
        E 16 b0 0b 3b
        E 16 b0 0b 33
        E 16 b0 0b 2a
        E 16 b0 0b 22
        E 16 b0 0b 2a
        E 16 b0 0b 33
        E 16 b0 0b 3b
        E 16 b0 0b 44
        E 16 b0 0b 3b
        E 16 b0 0b 33
        E 16 b0 0b 2a
        E 16 b0 0b 66
        E 0 80 48 00
        E 0 90 47 66
        E 16 b0 0b 5d
        E 16 b0 0b 55
        E 16 b0 0b 4c
        E 16 b0 0b 44
        E 16 b0 0b 3b
        E 16 b0 0b 33
        E 16 b0 0b 2a
        E 16 b0 0b 22
        E 16 b0 0b 2a
        E 16 b0 0b 33
        E 16 b0 0b 3b
        E 16 b0 0b 44
        E 16 b0 0b 3b
        E 16 b0 0b 33
        E 16 b0 0b 2a
        E 16 b0 0b 22
        E 16 b0 0b 2a
        E 16 b0 0b 33
        E 16 b0 0b 3b
        E 16 b0 0b 44
        E 16 b0 0b 3b
        E 16 b0 0b 33
        E 16 b0 0b 2a
        E 16 b0 0b 66
        E 0 80 47 00
        E 0 90 45 66
        E 16 b0 0b 5d
        E 16 b0 0b 55
        E 16 b0 0b 4c
        E 16 b0 0b 44
        E 16 b0 0b 3b
        E 16 b0 0b 33
        E 16 b0 0b 2a
        E 16 b0 0b 22
        E 16 b0 0b 2a
        E 16 b0 0b 33
        E 16 b0 0b 3b
        E 16 b0 0b 44
        E 16 b0 0b 3b
        E 16 b0 0b 33
        E 16 b0 0b 2a
        E 16 b0 0b 22
        E 16 b0 0b 2a
        E 16 b0 0b 33
        E 16 b0 0b 3b
        E 16 b0 0b 44
        E 16 b0 0b 3b
        E 16 b0 0b 33
        E 16 b0 0b 2a
        E 16 b0 0b 66
        E 0 80 45 00
        E 0 90 47 66
        E 16 b0 0b 5d
        E 16 b0 0b 55
        E 16 b0 0b 4c
        E 16 b0 0b 44
        E 16 b0 0b 3b
        E 16 b0 0b 33
        E 16 b0 0b 2a
        E 16 b0 0b 22
        E 16 b0 0b 2a
        E 16 b0 0b 33
        E 16 b0 0b 3b
        E 16 b0 0b 44
        E 16 b0 0b 3b
        E 16 b0 0b 33
        E 16 b0 0b 2a
        E 16 b0 0b 22
        E 16 b0 0b 2a
        E 16 b0 0b 33
        E 16 b0 0b 3b
        E 16 b0 0b 44
        E 16 b0 0b 3b
        E 16 b0 0b 33
        E 16 b0 0b 2a
        E 16 b0 0b 22
        E 16 b0 0b 2a
        E 16 b0 0b 33
        E 16 b0 0b 3b
        E 16 b0 0b 44
        E 16 b0 0b 4c
        E 16 b0 0b 55
        E 16 b0 0b 5d
        E 1808 b0 0b 66
        E 0 80 47 00
        E 0 90 43 66
        E 16 b0 0b 5d
        E 16 b0 0b 55
        E 16 b0 0b 4c
        E 16 b0 0b 44
        E 16 b0 0b 3b
        E 16 b0 0b 33
        E 16 b0 0b 2a
        E 16 b0 0b 22
        E 16 b0 0b 2a
        E 16 b0 0b 33
        E 16 b0 0b 3b
        E 16 b0 0b 44
        E 16 b0 0b 3b
        E 16 b0 0b 33
        E 16 b0 0b 2a
        E 16 b0 0b 22
        E 16 b0 0b 2a
        E 16 b0 0b 33
        E 16 b0 0b 3b
        E 16 b0 0b 44
        E 16 b0 0b 3b
        E 16 b0 0b 33
        E 16 b0 0b 2a
        E 16 b0 0b 66
        E 0 80 43 00
        E 0 90 45 66
        E 16 b0 0b 5d
        E 16 b0 0b 55
        E 16 b0 0b 4c
        E 16 b0 0b 44
        E 16 b0 0b 3b
        E 16 b0 0b 33
        E 16 b0 0b 2a
        E 16 b0 0b 22
        E 16 b0 0b 2a
        E 16 b0 0b 33
        E 16 b0 0b 3b
        E 16 b0 0b 44
        E 16 b0 0b 3b
        E 16 b0 0b 33
        E 16 b0 0b 2a
        E 16 b0 0b 22
        E 16 b0 0b 2a
        E 16 b0 0b 33
        E 16 b0 0b 3b
        E 16 b0 0b 44
        E 16 b0 0b 3b
        E 16 b0 0b 33
        E 16 b0 0b 2a
        E 16 b0 0b 66
        E 0 80 45 00
        E 0 90 47 66
        E 16 b0 0b 5d
        E 16 b0 0b 55
        E 16 b0 0b 4c
        E 16 b0 0b 44
        E 16 b0 0b 3b
        E 16 b0 0b 33
        E 16 b0 0b 2a
        E 16 b0 0b 22
        E 16 b0 0b 2a
        E 16 b0 0b 33
        E 16 b0 0b 3b
        E 16 b0 0b 44
        E 16 b0 0b 3b
        E 16 b0 0b 33
        E 16 b0 0b 2a
        E 16 b0 0b 22
        E 16 b0 0b 2a
        E 16 b0 0b 33
        E 16 b0 0b 3b
        E 16 b0 0b 44
        E 16 b0 0b 3b
        E 16 b0 0b 33
        E 16 b0 0b 2a
        E 16 b0 0b 22
        E 16 b0 0b 2a
        E 16 b0 0b 33
        E 16 b0 0b 3b
        E 16 b0 0b 44
        E 16 b0 0b 4c
        E 16 b0 0b 55
        E 16 b0 0b 5d
        E 272 b0 0b 66
        E 0 80 47 00
        E 0 90 3e 66
        E 16 b0 0b 5d
        E 16 b0 0b 55
        E 16 b0 0b 4c
        E 16 b0 0b 44
        E 16 b0 0b 3b
        E 16 b0 0b 33
        E 16 b0 0b 2a
        E 16 b0 0b 22
        E 16 b0 0b 2a
        E 16 b0 0b 33
        E 16 b0 0b 3b
        E 16 b0 0b 44
        E 16 b0 0b 3b
        E 16 b0 0b 33
        E 16 b0 0b 2a
        E 16 b0 0b 22
        E 16 b0 0b 2a
        E 16 b0 0b 33
        E 16 b0 0b 3b
        E 16 b0 0b 44
        E 16 b0 0b 3b
        E 16 b0 0b 33
        E 16 b0 0b 2a
        E 16 b0 0b 66
        E 0 80 3e 00
        E 0 90 43 66
        E 16 b0 0b 5d
        E 16 b0 0b 55
        E 16 b0 0b 4c
        E 16 b0 0b 44
        E 16 b0 0b 3b
        E 16 b0 0b 33
        E 16 b0 0b 2a
        E 16 b0 0b 22
        E 16 b0 0b 2a
        E 16 b0 0b 33
        E 16 b0 0b 3b
        E 16 b0 0b 44
        E 16 b0 0b 3b
        E 16 b0 0b 33
        E 16 b0 0b 2a
        E 16 b0 0b 22
        E 16 b0 0b 2a
        E 16 b0 0b 33
        E 16 b0 0b 3b
        E 16 b0 0b 44
        E 16 b0 0b 3b
        E 16 b0 0b 33
        E 16 b0 0b 2a
        E 16 b0 0b 66
        E 0 80 43 00
        E 0 90 42 66
        E 16 b0 0b 5d
        E 16 b0 0b 55
        E 16 b0 0b 4c
        E 16 b0 0b 44
        E 16 b0 0b 3b
        E 16 b0 0b 33
        E 16 b0 0b 2a
        E 16 b0 0b 22
        E 16 b0 0b 2a
        E 16 b0 0b 33
        E 16 b0 0b 3b
        E 16 b0 0b 44
        E 16 b0 0b 3b
        E 16 b0 0b 33
        E 16 b0 0b 2a
        E 16 b0 0b 22
        E 16 b0 0b 2a
        E 16 b0 0b 33
        E 16 b0 0b 3b
        E 16 b0 0b 44
        E 16 b0 0b 3b
        E 16 b0 0b 33
        E 16 b0 0b 2a
        E 16 b0 0b 66
        E 0 80 42 00
        E 0 90 40 66
        E 16 b0 0b 5d
        E 16 b0 0b 55
        E 16 b0 0b 4c
        E 16 b0 0b 44
        E 16 b0 0b 3b
        E 16 b0 0b 33
        E 16 b0 0b 2a
        E 16 b0 0b 22
        E 16 b0 0b 2a
        E 16 b0 0b 33
        E 16 b0 0b 3b
        E 16 b0 0b 44
        E 16 b0 0b 3b
        E 16 b0 0b 33
        E 16 b0 0b 2a
        E 16 b0 0b 22
        E 16 b0 0b 2a
        E 16 b0 0b 33
        E 16 b0 0b 3b
        E 16 b0 0b 44
        E 16 b0 0b 3b
        E 16 b0 0b 33
        E 16 b0 0b 2a
        E 16 b0 0b 66
        E 0 80 40 00
        E 0 90 42 66
        E 16 b0 0b 5d
        E 16 b0 0b 55
        E 16 b0 0b 4c
        E 16 b0 0b 44
        E 16 b0 0b 3b
        E 16 b0 0b 33
        E 16 b0 0b 2a
        E 16 b0 0b 22
        E 16 b0 0b 2a
        E 16 b0 0b 33
        E 16 b0 0b 3b
        E 16 b0 0b 44
        E 16 b0 0b 3b
        E 16 b0 0b 33
        E 16 b0 0b 2a
        E 16 b0 0b 22
        E 16 b0 0b 2a
        E 16 b0 0b 33
        E 16 b0 0b 3b
        E 16 b0 0b 44
        E 16 b0 0b 3b
        E 16 b0 0b 33
        E 16 b0 0b 2a
        E 16 b0 0b 66
        E 0 80 42 00
        E 0 90 43 66
        E 16 b0 0b 5d
        E 16 b0 0b 55
        E 16 b0 0b 4c
        E 16 b0 0b 44
        E 16 b0 0b 3b
        E 16 b0 0b 33
        E 16 b0 0b 2a
        E 16 b0 0b 22
        E 16 b0 0b 2a
        E 16 b0 0b 33
        E 16 b0 0b 3b
        E 16 b0 0b 44
        E 16 b0 0b 3b
        E 16 b0 0b 33
        E 16 b0 0b 2a
        E 16 b0 0b 22
        E 16 b0 0b 2a
        E 16 b0 0b 33
        E 16 b0 0b 3b
        E 16 b0 0b 44
        E 16 b0 0b 3b
        E 16 b0 0b 33
        E 16 b0 0b 2a
        E 16 b0 0b 66
        E 0 80 43 00
        E 0 90 40 66
        E 16 b0 0b 5d
        E 16 b0 0b 55
        E 16 b0 0b 4c
        E 16 b0 0b 44
        E 16 b0 0b 3b
        E 16 b0 0b 33
        E 16 b0 0b 2a
        E 16 b0 0b 22
        E 16 b0 0b 2a
        E 16 b0 0b 33
        E 16 b0 0b 3b
        E 16 b0 0b 44
        E 16 b0 0b 3b
        E 16 b0 0b 33
        E 16 b0 0b 2a
        E 16 b0 0b 22
        E 16 b0 0b 2a
        E 16 b0 0b 33
        E 16 b0 0b 3b
        E 16 b0 0b 44
        E 16 b0 0b 3b
        E 16 b0 0b 33
        E 16 b0 0b 2a
        E 16 b0 0b 22
        E 16 b0 0b 2a
        E 16 b0 0b 33
        E 16 b0 0b 3b
        E 16 b0 0b 44
        E 16 b0 0b 4c
        E 16 b0 0b 55
        E 16 b0 0b 5d
        E 272 b0 0b 66
        E 0 80 40 00
        E 0 90 3b 66
        E 16 b0 0b 5d
        E 16 b0 0b 55
        E 16 b0 0b 4c
        E 16 b0 0b 44
        E 16 b0 0b 3b
        E 16 b0 0b 33
        E 16 b0 0b 2a
        E 16 b0 0b 22
        E 16 b0 0b 2a
        E 16 b0 0b 33
        E 16 b0 0b 3b
        E 16 b0 0b 44
        E 16 b0 0b 3b
        E 16 b0 0b 33
        E 16 b0 0b 2a
        E 16 b0 0b 22
        E 16 b0 0b 2a
        E 16 b0 0b 33
        E 16 b0 0b 3b
        E 16 b0 0b 44
        E 16 b0 0b 3b
        E 16 b0 0b 33
        E 16 b0 0b 2a
        E 16 b0 0b 22
        E 16 b0 0b 2a
        E 16 b0 0b 33
        E 16 b0 0b 3b
        E 16 b0 0b 44
        E 16 b0 0b 4c
        E 16 b0 0b 55
        E 16 b0 0b 5d
        E 272 b0 0b 66
        E 0 80 3b 00
        E 0 90 3e 66
        E 16 b0 0b 5d
        E 16 b0 0b 55
        E 16 b0 0b 4c
        E 16 b0 0b 44
        E 16 b0 0b 3b
        E 16 b0 0b 33
        E 16 b0 0b 2a
        E 16 b0 0b 22
        E 16 b0 0b 2a
        E 16 b0 0b 33
        E 16 b0 0b 3b
        E 16 b0 0b 44
        E 16 b0 0b 3b
        E 16 b0 0b 33
        E 16 b0 0b 2a
        E 16 b0 0b 22
        E 16 b0 0b 2a
        E 16 b0 0b 33
        E 16 b0 0b 3b
        E 16 b0 0b 44
        E 16 b0 0b 3b
        E 16 b0 0b 33
        E 16 b0 0b 2a
        E 16 b0 0b 22
        E 16 b0 0b 2a
        E 16 b0 0b 33
        E 16 b0 0b 3b
        E 16 b0 0b 44
        E 16 b0 0b 4c
        E 16 b0 0b 55
        E 16 b0 0b 5d
        E 656 b0 0b 66
        E 0 80 3e 00
        E 0 90 3b 66
        E 16 b0 0b 5d
        E 16 b0 0b 55
        E 16 b0 0b 4c
        E 16 b0 0b 44
        E 16 b0 0b 3b
        E 16 b0 0b 33
        E 16 b0 0b 2a
        E 16 b0 0b 22
        E 16 b0 0b 2a
        E 16 b0 0b 33
        E 16 b0 0b 3b
        E 16 b0 0b 44
        E 16 b0 0b 3b
        E 16 b0 0b 33
        E 16 b0 0b 2a
        E 16 b0 0b 22
        E 16 b0 0b 2a
        E 16 b0 0b 33
        E 16 b0 0b 3b
        E 16 b0 0b 44
        E 16 b0 0b 3b
        E 16 b0 0b 33
        E 16 b0 0b 2a
        E 16 b0 0b 66
        E 0 80 3b 00
        E 0 90 3c 66
        E 16 b0 0b 5d
        E 16 b0 0b 55
        E 16 b0 0b 4c
        E 16 b0 0b 44
        E 16 b0 0b 3b
        E 16 b0 0b 33
        E 16 b0 0b 2a
        E 16 b0 0b 22
        E 16 b0 0b 2a
        E 16 b0 0b 33
        E 16 b0 0b 3b
        E 16 b0 0b 44
        E 16 b0 0b 3b
        E 16 b0 0b 33
        E 16 b0 0b 2a
        E 16 b0 0b 22
        E 16 b0 0b 2a
        E 16 b0 0b 33
        E 16 b0 0b 3b
        E 16 b0 0b 44
        E 16 b0 0b 3b
        E 16 b0 0b 33
        E 16 b0 0b 2a
        E 16 b0 0b 66
        E 0 80 3c 00
        E 0 90 40 66
        E 16 b0 0b 5d
        E 16 b0 0b 55
        E 16 b0 0b 4c
        E 16 b0 0b 44
        E 16 b0 0b 3b
        E 16 b0 0b 33
        E 16 b0 0b 2a
        E 16 b0 0b 22
        E 16 b0 0b 2a
        E 16 b0 0b 33
        E 16 b0 0b 3b
        E 16 b0 0b 44
        E 16 b0 0b 3b
        E 16 b0 0b 33
        E 16 b0 0b 2a
        E 16 b0 0b 22
        E 16 b0 0b 2a
        E 16 b0 0b 33
        E 16 b0 0b 3b
        E 16 b0 0b 44
        E 16 b0 0b 3b
        E 16 b0 0b 33
        E 16 b0 0b 2a
        E 16 b0 0b 66
        E 0 80 40 00
        E 0 90 47 66
        E 16 b0 0b 5d
        E 16 b0 0b 55
        E 16 b0 0b 4c
        E 16 b0 0b 44
        E 16 b0 0b 3b
        E 16 b0 0b 33
        E 16 b0 0b 2a
        E 16 b0 0b 22
        E 16 b0 0b 2a
        E 16 b0 0b 33
        E 16 b0 0b 3b
        E 16 b0 0b 44
        E 16 b0 0b 3b
        E 16 b0 0b 33
        E 16 b0 0b 2a
        E 16 b0 0b 22
        E 16 b0 0b 2a
        E 16 b0 0b 33
        E 16 b0 0b 3b
        E 16 b0 0b 44
        E 16 b0 0b 3b
        E 16 b0 0b 33
        E 16 b0 0b 2a
        E 16 b0 0b 66
        E 0 80 47 00
        E 0 90 45 66
        E 16 b0 0b 5d
        E 16 b0 0b 55
        E 16 b0 0b 4c
        E 16 b0 0b 44
        E 16 b0 0b 3b
        E 16 b0 0b 33
        E 16 b0 0b 2a
        E 16 b0 0b 22
        E 16 b0 0b 2a
        E 16 b0 0b 33
        E 16 b0 0b 3b
        E 16 b0 0b 44
        E 16 b0 0b 3b
        E 16 b0 0b 33
        E 16 b0 0b 2a
        E 16 b0 0b 22
        E 16 b0 0b 2a
        E 16 b0 0b 33
        E 16 b0 0b 3b
        E 16 b0 0b 44
        E 16 b0 0b 3b
        E 16 b0 0b 33
        E 16 b0 0b 2a
        E 16 b0 0b 66
        E 0 80 45 00
        E 0 90 41 66
        E 16 b0 0b 5d
        E 16 b0 0b 55
        E 16 b0 0b 4c
        E 16 b0 0b 44
        E 16 b0 0b 3b
        E 16 b0 0b 33
        E 16 b0 0b 2a
        E 16 b0 0b 22
        E 16 b0 0b 2a
        E 16 b0 0b 33
        E 16 b0 0b 3b
        E 16 b0 0b 44
        E 16 b0 0b 3b
        E 16 b0 0b 33
        E 16 b0 0b 2a
        E 16 b0 0b 22
        E 16 b0 0b 2a
        E 16 b0 0b 33
        E 16 b0 0b 3b
        E 16 b0 0b 44
        E 16 b0 0b 3b
        E 16 b0 0b 33
        E 16 b0 0b 2a
        E 16 b0 0b 22
        E 16 b0 0b 2a
        E 16 b0 0b 33
        E 16 b0 0b 3b
        E 16 b0 0b 44
        E 16 b0 0b 4c
        E 16 b0 0b 55
        E 16 b0 0b 5d
        E 272 b0 0b 66
        E 0 80 41 00
        E 0 90 43 66
        E 16 b0 0b 5d
        E 16 b0 0b 55
        E 16 b0 0b 4c
        E 16 b0 0b 44
        E 16 b0 0b 3b
        E 16 b0 0b 33
        E 16 b0 0b 2a
        E 16 b0 0b 22
        E 16 b0 0b 2a
        E 16 b0 0b 33
        E 16 b0 0b 3b
        E 16 b0 0b 44
        E 16 b0 0b 3b
        E 16 b0 0b 33
        E 16 b0 0b 2a
        E 16 b0 0b 22
        E 16 b0 0b 2a
        E 16 b0 0b 33
        E 16 b0 0b 3b
        E 16 b0 0b 44
        E 16 b0 0b 3b
        E 16 b0 0b 33
        E 16 b0 0b 2a
        E 16 b0 0b 66
        E 0 80 43 00
        E 0 90 45 66
        E 16 b0 0b 5d
        E 16 b0 0b 55
        E 16 b0 0b 4c
        E 16 b0 0b 44
        E 16 b0 0b 3b
        E 16 b0 0b 33
        E 16 b0 0b 2a
        E 16 b0 0b 22
        E 16 b0 0b 2a
        E 16 b0 0b 33
        E 16 b0 0b 3b
        E 16 b0 0b 44
        E 16 b0 0b 3b
        E 16 b0 0b 33
        E 16 b0 0b 2a
        E 16 b0 0b 22
        E 16 b0 0b 2a
        E 16 b0 0b 33
        E 16 b0 0b 3b
        E 16 b0 0b 44
        E 16 b0 0b 3b
        E 16 b0 0b 33
        E 16 b0 0b 2a
        E 16 b0 0b 66
        E 0 80 45 00
        E 0 90 43 66
        E 16 b0 0b 5d
        E 16 b0 0b 55
        E 16 b0 0b 4c
        E 16 b0 0b 44
        E 16 b0 0b 3b
        E 16 b0 0b 33
        E 16 b0 0b 2a
        E 16 b0 0b 22
        E 16 b0 0b 2a
        E 16 b0 0b 33
        E 16 b0 0b 3b
        E 16 b0 0b 44
        E 16 b0 0b 3b
        E 16 b0 0b 33
        E 16 b0 0b 2a
        E 16 b0 0b 22
        E 16 b0 0b 2a
        E 16 b0 0b 33
        E 16 b0 0b 3b
        E 16 b0 0b 44
        E 16 b0 0b 3b
        E 16 b0 0b 33
        E 16 b0 0b 2a
        E 16 b0 0b 22
        E 16 b0 0b 2a
        E 16 b0 0b 33
        E 16 b0 0b 3b
        E 16 b0 0b 44
        E 16 b0 0b 4c
        E 16 b0 0b 55
        E 16 b0 0b 5d
        E 1040 b0 0b 66
        E 0 80 43 00
        E 0 90 42 66
        E 16 b0 0b 5d
        E 16 b0 0b 55
        E 16 b0 0b 4c
        E 16 b0 0b 44
        E 16 b0 0b 3b
        E 16 b0 0b 33
        E 16 b0 0b 2a
        E 16 b0 0b 22
        E 16 b0 0b 2a
        E 16 b0 0b 33
        E 16 b0 0b 3b
        E 16 b0 0b 44
        E 16 b0 0b 3b
        E 16 b0 0b 33
        E 16 b0 0b 2a
        E 16 b0 0b 22
        E 16 b0 0b 2a
        E 16 b0 0b 33
        E 16 b0 0b 3b
        E 16 b0 0b 44
        E 16 b0 0b 3b
        E 16 b0 0b 33
        E 16 b0 0b 2a
        E 16 b0 0b 22
        E 16 b0 0b 2a
        E 16 b0 0b 33
        E 16 b0 0b 3b
        E 16 b0 0b 44
        E 16 b0 0b 4c
        E 16 b0 0b 55
        E 16 b0 0b 5d
        E 1040 b0 0b 66
        E 0 80 42 00
        E 0 90 40 66
        E 16 b0 0b 5d
        E 16 b0 0b 55
        E 16 b0 0b 4c
        E 16 b0 0b 44
        E 16 b0 0b 3b
        E 16 b0 0b 33
        E 16 b0 0b 2a
        E 16 b0 0b 22
        E 16 b0 0b 2a
        E 16 b0 0b 33
        E 16 b0 0b 3b
        E 16 b0 0b 44
        E 16 b0 0b 3b
        E 16 b0 0b 33
        E 16 b0 0b 2a
        E 16 b0 0b 22
        E 16 b0 0b 2a
        E 16 b0 0b 33
        E 16 b0 0b 3b
        E 16 b0 0b 44
        E 16 b0 0b 3b
        E 16 b0 0b 33
        E 16 b0 0b 2a
        E 16 b0 0b 22
        E 16 b0 0b 2a
        E 16 b0 0b 33
        E 16 b0 0b 3b
        E 16 b0 0b 44
        E 16 b0 0b 4c
        E 16 b0 0b 55
        E 16 b0 0b 5d
        E 272 b0 0b 66
        E 0 80 40 00
        E 0 90 3b 66
        E 16 b0 0b 5d
        E 16 b0 0b 55
        E 16 b0 0b 4c
        E 16 b0 0b 44
        E 16 b0 0b 3b
        E 16 b0 0b 33
        E 16 b0 0b 2a
        E 16 b0 0b 22
        E 16 b0 0b 2a
        E 16 b0 0b 33
        E 16 b0 0b 3b
        E 16 b0 0b 44
        E 16 b0 0b 3b
        E 16 b0 0b 33
        E 16 b0 0b 2a
        E 16 b0 0b 22
        E 16 b0 0b 2a
        E 16 b0 0b 33
        E 16 b0 0b 3b
        E 16 b0 0b 44
        E 16 b0 0b 3b
        E 16 b0 0b 33
        E 16 b0 0b 2a
        E 16 b0 0b 66
        E 0 80 3b 00
        E 0 90 47 66
        E 16 b0 0b 5d
        E 16 b0 0b 55
        E 16 b0 0b 4c
        E 16 b0 0b 44
        E 16 b0 0b 3b
        E 16 b0 0b 33
        E 16 b0 0b 2a
        E 16 b0 0b 22
        E 16 b0 0b 2a
        E 16 b0 0b 33
        E 16 b0 0b 3b
        E 16 b0 0b 44
        E 16 b0 0b 3b
        E 16 b0 0b 33
        E 16 b0 0b 2a
        E 16 b0 0b 22
        E 16 b0 0b 2a
        E 16 b0 0b 33
        E 16 b0 0b 3b
        E 16 b0 0b 44
        E 16 b0 0b 3b
        E 16 b0 0b 33
        E 16 b0 0b 2a
        E 16 b0 0b 66
        E 0 80 47 00
        E 0 90 45 66
        E 16 b0 0b 5d
        E 16 b0 0b 55
        E 16 b0 0b 4c
        E 16 b0 0b 44
        E 16 b0 0b 3b
        E 16 b0 0b 33
        E 16 b0 0b 2a
        E 16 b0 0b 22
        E 16 b0 0b 2a
        E 16 b0 0b 33
        E 16 b0 0b 3b
        E 16 b0 0b 44
        E 16 b0 0b 3b
        E 16 b0 0b 33
        E 16 b0 0b 2a
        E 16 b0 0b 22
        E 16 b0 0b 2a
        E 16 b0 0b 33
        E 16 b0 0b 3b
        E 16 b0 0b 44
        E 16 b0 0b 3b
        E 16 b0 0b 33
        E 16 b0 0b 2a
        E 16 b0 0b 66
        E 0 80 45 00
        E 0 90 43 66
        E 16 b0 0b 5d
        E 16 b0 0b 55
        E 16 b0 0b 4c
        E 16 b0 0b 44
        E 16 b0 0b 3b
        E 16 b0 0b 33
        E 16 b0 0b 2a
        E 16 b0 0b 22
        E 16 b0 0b 2a
        E 16 b0 0b 33
        E 16 b0 0b 3b
        E 16 b0 0b 44
        E 16 b0 0b 3b
        E 16 b0 0b 33
        E 16 b0 0b 2a
        E 16 b0 0b 22
        E 16 b0 0b 2a
        E 16 b0 0b 33
        E 16 b0 0b 3b
        E 16 b0 0b 44
        E 16 b0 0b 3b
        E 16 b0 0b 33
        E 16 b0 0b 2a
        E 16 b0 0b 66
        E 0 80 43 00
        E 0 90 42 66
        E 16 b0 0b 5d
        E 16 b0 0b 55
        E 16 b0 0b 4c
        E 16 b0 0b 44
        E 16 b0 0b 3b
        E 16 b0 0b 33
        E 16 b0 0b 2a
        E 16 b0 0b 22
        E 16 b0 0b 2a
        E 16 b0 0b 33
        E 16 b0 0b 3b
        E 16 b0 0b 44
        E 16 b0 0b 3b
        E 16 b0 0b 33
        E 16 b0 0b 2a
        E 16 b0 0b 22
        E 16 b0 0b 2a
        E 16 b0 0b 33
        E 16 b0 0b 3b
        E 16 b0 0b 44
        E 16 b0 0b 3b
        E 16 b0 0b 33
        E 16 b0 0b 2a
        E 16 b0 0b 66
        E 0 80 42 00
        E 0 90 40 66
        E 16 b0 0b 5d
        E 16 b0 0b 55
        E 16 b0 0b 4c
        E 16 b0 0b 44
        E 16 b0 0b 3b
        E 16 b0 0b 33
        E 16 b0 0b 2a
        E 16 b0 0b 22
        E 16 b0 0b 2a
        E 16 b0 0b 33
        E 16 b0 0b 3b
        E 16 b0 0b 44
        E 16 b0 0b 3b
        E 16 b0 0b 33
        E 16 b0 0b 2a
        E 16 b0 0b 22
        E 16 b0 0b 2a
        E 16 b0 0b 33
        E 16 b0 0b 3b
        E 16 b0 0b 44
        E 16 b0 0b 3b
        E 16 b0 0b 33
        E 16 b0 0b 2a
        E 16 b0 0b 66
        E 0 80 40 00
        E 0 90 43 66
        E 16 b0 0b 5d
        E 16 b0 0b 55
        E 16 b0 0b 4c
        E 16 b0 0b 44
        E 16 b0 0b 3b
        E 16 b0 0b 33
        E 16 b0 0b 2a
        E 16 b0 0b 22
        E 16 b0 0b 2a
        E 16 b0 0b 33
        E 16 b0 0b 3b
        E 16 b0 0b 44
        E 16 b0 0b 3b
        E 16 b0 0b 33
        E 16 b0 0b 2a
        E 16 b0 0b 22
        E 16 b0 0b 2a
        E 16 b0 0b 33
        E 16 b0 0b 3b
        E 16 b0 0b 44
        E 16 b0 0b 3b
        E 16 b0 0b 33
        E 16 b0 0b 2a
        E 16 b0 0b 22
        E 16 b0 0b 2a
        E 16 b0 0b 33
        E 16 b0 0b 3b
        E 16 b0 0b 44
        E 16 b0 0b 4c
        E 16 b0 0b 55
        E 16 b0 0b 5d
        E 272 b0 0b 66
        E 0 80 43 00
        E 0 90 40 66
        E 16 b0 0b 5d
        E 16 b0 0b 55
        E 16 b0 0b 4c
        E 16 b0 0b 44
        E 16 b0 0b 3b
        E 16 b0 0b 33
        E 16 b0 0b 2a
        E 16 b0 0b 22
        E 16 b0 0b 2a
        E 16 b0 0b 33
        E 16 b0 0b 3b
        E 16 b0 0b 44
        E 16 b0 0b 3b
        E 16 b0 0b 33
        E 16 b0 0b 2a
        E 16 b0 0b 22
        E 16 b0 0b 2a
        E 16 b0 0b 33
        E 16 b0 0b 3b
        E 16 b0 0b 44
        E 16 b0 0b 3b
        E 16 b0 0b 33
        E 16 b0 0b 2a
        E 16 b0 0b 22
        E 16 b0 0b 2a
        E 16 b0 0b 33
        E 16 b0 0b 3b
        E 16 b0 0b 44
        E 16 b0 0b 4c
        E 16 b0 0b 55
        E 16 b0 0b 5d
        E 2192 b0 0b 66
        E 16 b0 0b 5d
        E 16 b0 0b 55
        E 16 b0 0b 4c
        E 16 b0 0b 44
        E 16 b0 0b 3b
        E 16 b0 0b 33
        E 16 b0 0b 2a
        E 16 b0 0b 22
        E 16 b0 0b 2a
        E 16 b0 0b 33
        E 16 b0 0b 3b
        E 16 b0 0b 44
        E 16 b0 0b 3b
        E 16 b0 0b 33
        E 16 b0 0b 2a
        E 16 b0 0b 22
        E 16 b0 0b 2a
        E 16 b0 0b 33
        E 16 b0 0b 3b
        E 16 b0 0b 44
        E 16 b0 0b 3b
        E 16 b0 0b 33
        E 16 b0 0b 2a
        E 16 b0 0b 66
        E 0 80 40 00
        E 0 90 3b 66
        E 16 b0 0b 5d
        E 16 b0 0b 55
        E 16 b0 0b 4c
        E 16 b0 0b 44
        E 16 b0 0b 3b
        E 16 b0 0b 33
        E 16 b0 0b 2a
        E 16 b0 0b 22
        E 16 b0 0b 2a
        E 16 b0 0b 33
        E 16 b0 0b 3b
        E 16 b0 0b 44
        E 16 b0 0b 3b
        E 16 b0 0b 33
        E 16 b0 0b 2a
        E 16 b0 0b 22
        E 16 b0 0b 2a
        E 16 b0 0b 33
        E 16 b0 0b 3b
        E 16 b0 0b 44
        E 16 b0 0b 3b
        E 16 b0 0b 33
        E 16 b0 0b 2a
        E 16 b0 0b 66
        E 0 80 3b 00
        E 0 90 47 66
        E 16 b0 0b 5d
        E 16 b0 0b 55
        E 16 b0 0b 4c
        E 16 b0 0b 44
        E 16 b0 0b 3b
        E 16 b0 0b 33
        E 16 b0 0b 2a
        E 16 b0 0b 22
        E 16 b0 0b 2a
        E 16 b0 0b 33
        E 16 b0 0b 3b
        E 16 b0 0b 44
        E 16 b0 0b 3b
        E 16 b0 0b 33
        E 16 b0 0b 2a
        E 16 b0 0b 22
        E 16 b0 0b 2a
        E 16 b0 0b 33
        E 16 b0 0b 3b
        E 16 b0 0b 44
        E 16 b0 0b 3b
        E 16 b0 0b 33
        E 16 b0 0b 2a
        E 16 b0 0b 66
        E 0 80 47 00
        E 0 90 4a 66
        E 16 b0 0b 5d
        E 16 b0 0b 55
        E 16 b0 0b 4c
        E 16 b0 0b 44
        E 16 b0 0b 3b
        E 16 b0 0b 33
        E 16 b0 0b 2a
        E 16 b0 0b 22
        E 16 b0 0b 2a
        E 16 b0 0b 33
        E 16 b0 0b 3b
        E 16 b0 0b 44
        E 16 b0 0b 3b
        E 16 b0 0b 33
        E 16 b0 0b 2a
        E 16 b0 0b 22
        E 16 b0 0b 2a
        E 16 b0 0b 33
        E 16 b0 0b 3b
        E 16 b0 0b 44
        E 16 b0 0b 3b
        E 16 b0 0b 33
        E 16 b0 0b 2a
        E 16 b0 0b 66
        E 0 80 4a 00
        E 0 90 48 66
        E 16 b0 0b 5d
        E 16 b0 0b 55
        E 16 b0 0b 4c
        E 16 b0 0b 44
        E 16 b0 0b 3b
        E 16 b0 0b 33
        E 16 b0 0b 2a
        E 16 b0 0b 22
        E 16 b0 0b 2a
        E 16 b0 0b 33
        E 16 b0 0b 3b
        E 16 b0 0b 44
        E 16 b0 0b 3b
        E 16 b0 0b 33
        E 16 b0 0b 2a
        E 16 b0 0b 22
        E 16 b0 0b 2a
        E 16 b0 0b 33
        E 16 b0 0b 3b
        E 16 b0 0b 44
        E 16 b0 0b 3b
        E 16 b0 0b 33
        E 16 b0 0b 2a
        E 16 b0 0b 66
        E 0 80 48 00
        E 0 90 47 66
        E 16 b0 0b 5d
        E 16 b0 0b 55
        E 16 b0 0b 4c
        E 16 b0 0b 44
        E 16 b0 0b 3b
        E 16 b0 0b 33
        E 16 b0 0b 2a
        E 16 b0 0b 22
        E 16 b0 0b 2a
        E 16 b0 0b 33
        E 16 b0 0b 3b
        E 16 b0 0b 44
        E 16 b0 0b 3b
        E 16 b0 0b 33
        E 16 b0 0b 2a
        E 16 b0 0b 22
        E 16 b0 0b 2a
        E 16 b0 0b 33
        E 16 b0 0b 3b
        E 16 b0 0b 44
        E 16 b0 0b 3b
        E 16 b0 0b 33
        E 16 b0 0b 2a
        E 16 b0 0b 66
        E 0 80 47 00
        E 0 90 45 66
        E 16 b0 0b 5d
        E 16 b0 0b 55
        E 16 b0 0b 4c
        E 16 b0 0b 44
        E 16 b0 0b 3b
        E 16 b0 0b 33
        E 16 b0 0b 2a
        E 16 b0 0b 22
        E 16 b0 0b 2a
        E 16 b0 0b 33
        E 16 b0 0b 3b
        E 16 b0 0b 44
        E 16 b0 0b 3b
        E 16 b0 0b 33
        E 16 b0 0b 2a
        E 16 b0 0b 22
        E 16 b0 0b 2a
        E 16 b0 0b 33
        E 16 b0 0b 3b
        E 16 b0 0b 44
        E 16 b0 0b 3b
        E 16 b0 0b 33
        E 16 b0 0b 2a
        E 16 b0 0b 66
        E 0 80 45 00
        E 0 90 47 66
        E 16 b0 0b 5d
        E 16 b0 0b 55
        E 16 b0 0b 4c
        E 16 b0 0b 44
        E 16 b0 0b 3b
        E 16 b0 0b 33
        E 16 b0 0b 2a
        E 16 b0 0b 22
        E 16 b0 0b 2a
        E 16 b0 0b 33
        E 16 b0 0b 3b
        E 16 b0 0b 44
        E 16 b0 0b 3b
        E 16 b0 0b 33
        E 16 b0 0b 2a
        E 16 b0 0b 22
        E 16 b0 0b 2a
        E 16 b0 0b 33
        E 16 b0 0b 3b
        E 16 b0 0b 44
        E 16 b0 0b 3b
        E 16 b0 0b 33
        E 16 b0 0b 2a
        E 16 b0 0b 22
        E 16 b0 0b 2a
        E 16 b0 0b 33
        E 16 b0 0b 3b
        E 16 b0 0b 44
        E 16 b0 0b 4c
        E 16 b0 0b 55
        E 16 b0 0b 5d
        E 1808 b0 0b 66
        E 0 80 47 00
        E 0 90 43 66
        E 16 b0 0b 5d
        E 16 b0 0b 55
        E 16 b0 0b 4c
        E 16 b0 0b 44
        E 16 b0 0b 3b
        E 16 b0 0b 33
        E 16 b0 0b 2a
        E 16 b0 0b 22
        E 16 b0 0b 2a
        E 16 b0 0b 33
        E 16 b0 0b 3b
        E 16 b0 0b 44
        E 16 b0 0b 3b
        E 16 b0 0b 33
        E 16 b0 0b 2a
        E 16 b0 0b 22
        E 16 b0 0b 2a
        E 16 b0 0b 33
        E 16 b0 0b 3b
        E 16 b0 0b 44
        E 16 b0 0b 3b
        E 16 b0 0b 33
        E 16 b0 0b 2a
        E 16 b0 0b 66
        E 0 80 43 00
        E 0 90 45 66
        E 16 b0 0b 5d
        E 16 b0 0b 55
        E 16 b0 0b 4c
        E 16 b0 0b 44
        E 16 b0 0b 3b
        E 16 b0 0b 33
        E 16 b0 0b 2a
        E 16 b0 0b 22
        E 16 b0 0b 2a
        E 16 b0 0b 33
        E 16 b0 0b 3b
        E 16 b0 0b 44
        E 16 b0 0b 3b
        E 16 b0 0b 33
        E 16 b0 0b 2a
        E 16 b0 0b 22
        E 16 b0 0b 2a
        E 16 b0 0b 33
        E 16 b0 0b 3b
        E 16 b0 0b 44
        E 16 b0 0b 3b
        E 16 b0 0b 33
        E 16 b0 0b 2a
        E 16 b0 0b 66
        E 0 80 45 00
        E 0 90 47 66
        E 16 b0 0b 5d
        E 16 b0 0b 55
        E 16 b0 0b 4c
        E 16 b0 0b 44
        E 16 b0 0b 3b
        E 16 b0 0b 33
        E 16 b0 0b 2a
        E 16 b0 0b 22
        E 16 b0 0b 2a
        E 16 b0 0b 33
        E 16 b0 0b 3b
        E 16 b0 0b 44
        E 16 b0 0b 3b
        E 16 b0 0b 33
        E 16 b0 0b 2a
        E 16 b0 0b 22
        E 16 b0 0b 2a
        E 16 b0 0b 33
        E 16 b0 0b 3b
        E 16 b0 0b 44
        E 16 b0 0b 3b
        E 16 b0 0b 33
        E 16 b0 0b 2a
        E 16 b0 0b 22
        E 16 b0 0b 2a
        E 16 b0 0b 33
        E 16 b0 0b 3b
        E 16 b0 0b 44
        E 16 b0 0b 4c
        E 16 b0 0b 55
        E 16 b0 0b 5d
        E 272 b0 0b 66
        E 0 80 47 00
        E 0 90 3e 66
        E 16 b0 0b 5d
        E 16 b0 0b 55
        E 16 b0 0b 4c
        E 16 b0 0b 44
        E 16 b0 0b 3b
        E 16 b0 0b 33
        E 16 b0 0b 2a
        E 16 b0 0b 22
        E 16 b0 0b 2a
        E 16 b0 0b 33
        E 16 b0 0b 3b
        E 16 b0 0b 44
        E 16 b0 0b 3b
        E 16 b0 0b 33
        E 16 b0 0b 2a
        E 16 b0 0b 22
        E 16 b0 0b 2a
        E 16 b0 0b 33
        E 16 b0 0b 3b
        E 16 b0 0b 44
        E 16 b0 0b 3b
        E 16 b0 0b 33
        E 16 b0 0b 2a
        E 16 b0 0b 66
        E 0 80 3e 00
        E 0 90 43 66
        E 16 b0 0b 5d
        E 16 b0 0b 55
        E 16 b0 0b 4c
        E 16 b0 0b 44
        E 16 b0 0b 3b
        E 16 b0 0b 33
        E 16 b0 0b 2a
        E 16 b0 0b 22
        E 16 b0 0b 2a
        E 16 b0 0b 33
        E 16 b0 0b 3b
        E 16 b0 0b 44
        E 16 b0 0b 3b
        E 16 b0 0b 33
        E 16 b0 0b 2a
        E 16 b0 0b 22
        E 16 b0 0b 2a
        E 16 b0 0b 33
        E 16 b0 0b 3b
        E 16 b0 0b 44
        E 16 b0 0b 3b
        E 16 b0 0b 33
        E 16 b0 0b 2a
        E 16 b0 0b 66
        E 0 80 43 00
        E 0 90 42 66
        E 16 b0 0b 5d
        E 16 b0 0b 55
        E 16 b0 0b 4c
        E 16 b0 0b 44
        E 16 b0 0b 3b
        E 16 b0 0b 33
        E 16 b0 0b 2a
        E 16 b0 0b 22
        E 16 b0 0b 2a
        E 16 b0 0b 33
        E 16 b0 0b 3b
        E 16 b0 0b 44
        E 16 b0 0b 3b
        E 16 b0 0b 33
        E 16 b0 0b 2a
        E 16 b0 0b 22
        E 16 b0 0b 2a
        E 16 b0 0b 33
        E 16 b0 0b 3b
        E 16 b0 0b 44
        E 16 b0 0b 3b
        E 16 b0 0b 33
        E 16 b0 0b 2a
        E 16 b0 0b 66
        E 0 80 42 00
        E 0 90 40 66
        E 16 b0 0b 5d
        E 16 b0 0b 55
        E 16 b0 0b 4c
        E 16 b0 0b 44
        E 16 b0 0b 3b
        E 16 b0 0b 33
        E 16 b0 0b 2a
        E 16 b0 0b 22
        E 16 b0 0b 2a
        E 16 b0 0b 33
        E 16 b0 0b 3b
        E 16 b0 0b 44
        E 16 b0 0b 3b
        E 16 b0 0b 33
        E 16 b0 0b 2a
        E 16 b0 0b 22
        E 16 b0 0b 2a
        E 16 b0 0b 33
        E 16 b0 0b 3b
        E 16 b0 0b 44
        E 16 b0 0b 3b
        E 16 b0 0b 33
        E 16 b0 0b 2a
        E 16 b0 0b 66
        E 0 80 40 00
        E 0 90 42 66
        E 16 b0 0b 5d
        E 16 b0 0b 55
        E 16 b0 0b 4c
        E 16 b0 0b 44
        E 16 b0 0b 3b
        E 16 b0 0b 33
        E 16 b0 0b 2a
        E 16 b0 0b 22
        E 16 b0 0b 2a
        E 16 b0 0b 33
        E 16 b0 0b 3b
        E 16 b0 0b 44
        E 16 b0 0b 3b
        E 16 b0 0b 33
        E 16 b0 0b 2a
        E 16 b0 0b 22
        E 16 b0 0b 2a
        E 16 b0 0b 33
        E 16 b0 0b 3b
        E 16 b0 0b 44
        E 16 b0 0b 3b
        E 16 b0 0b 33
        E 16 b0 0b 2a
        E 16 b0 0b 66
        E 0 80 42 00
        E 0 90 43 66
        E 16 b0 0b 5d
        E 16 b0 0b 55
        E 16 b0 0b 4c
        E 16 b0 0b 44
        E 16 b0 0b 3b
        E 16 b0 0b 33
        E 16 b0 0b 2a
        E 16 b0 0b 22
        E 16 b0 0b 2a
        E 16 b0 0b 33
        E 16 b0 0b 3b
        E 16 b0 0b 44
        E 16 b0 0b 3b
        E 16 b0 0b 33
        E 16 b0 0b 2a
        E 16 b0 0b 22
        E 16 b0 0b 2a
        E 16 b0 0b 33
        E 16 b0 0b 3b
        E 16 b0 0b 44
        E 16 b0 0b 3b
        E 16 b0 0b 33
        E 16 b0 0b 2a
        E 16 b0 0b 66
        E 0 80 43 00
        E 0 90 40 66
        E 16 b0 0b 5d
        E 16 b0 0b 55
        E 16 b0 0b 4c
        E 16 b0 0b 44
        E 16 b0 0b 3b
        E 16 b0 0b 33
        E 16 b0 0b 2a
        E 16 b0 0b 22
        E 16 b0 0b 2a
        E 16 b0 0b 33
        E 16 b0 0b 3b
        E 16 b0 0b 44
        E 16 b0 0b 3b
        E 16 b0 0b 33
        E 16 b0 0b 2a
        E 16 b0 0b 22
        E 16 b0 0b 2a
        E 16 b0 0b 33
        E 16 b0 0b 3b
        E 16 b0 0b 44
        E 16 b0 0b 3b
        E 16 b0 0b 33
        E 16 b0 0b 2a
        E 16 b0 0b 22
        E 16 b0 0b 2a
        E 16 b0 0b 33
        E 16 b0 0b 3b
        E 16 b0 0b 44
        E 16 b0 0b 4c
        E 16 b0 0b 55
        E 16 b0 0b 5d
        E 272 b0 0b 66
        E 0 80 40 00
        E 0 90 3b 66
        E 16 b0 0b 5d
        E 16 b0 0b 55
        E 16 b0 0b 4c
        E 16 b0 0b 44
        E 16 b0 0b 3b
        E 16 b0 0b 33
        E 16 b0 0b 2a
        E 16 b0 0b 22
        E 16 b0 0b 2a
        E 16 b0 0b 33
        E 16 b0 0b 3b
        E 16 b0 0b 44
        E 16 b0 0b 3b
        E 16 b0 0b 33
        E 16 b0 0b 2a
        E 16 b0 0b 22
        E 16 b0 0b 2a
        E 16 b0 0b 33
        E 16 b0 0b 3b
        E 16 b0 0b 44
        E 16 b0 0b 3b
        E 16 b0 0b 33
        E 16 b0 0b 2a
        E 16 b0 0b 22
        E 16 b0 0b 2a
        E 16 b0 0b 33
        E 16 b0 0b 3b
        E 16 b0 0b 44
        E 16 b0 0b 4c
        E 16 b0 0b 55
        E 16 b0 0b 5d
        E 272 b0 0b 66
        E 0 80 3b 00
        E 0 90 3e 66
        E 16 b0 0b 5d
        E 16 b0 0b 55
        E 16 b0 0b 4c
        E 16 b0 0b 44
        E 16 b0 0b 3b
        E 16 b0 0b 33
        E 16 b0 0b 2a
        E 16 b0 0b 22
        E 16 b0 0b 2a
        E 16 b0 0b 33
        E 16 b0 0b 3b
        E 16 b0 0b 44
        E 16 b0 0b 3b
        E 16 b0 0b 33
        E 16 b0 0b 2a
        E 16 b0 0b 22
        E 16 b0 0b 2a
        E 16 b0 0b 33
        E 16 b0 0b 3b
        E 16 b0 0b 44
        E 16 b0 0b 3b
        E 16 b0 0b 33
        E 16 b0 0b 2a
        E 16 b0 0b 22
        E 16 b0 0b 2a
        E 16 b0 0b 33
        E 16 b0 0b 3b
        E 16 b0 0b 44
        E 16 b0 0b 4c
        E 16 b0 0b 55
        E 16 b0 0b 5d
        E 656 b0 0b 66
        E 0 80 3e 00
        E 0 90 3b 66
        E 16 b0 0b 5d
        E 16 b0 0b 55
        E 16 b0 0b 4c
        E 16 b0 0b 44
        E 16 b0 0b 3b
        E 16 b0 0b 33
        E 16 b0 0b 2a
        E 16 b0 0b 22
        E 16 b0 0b 2a
        E 16 b0 0b 33
        E 16 b0 0b 3b
        E 16 b0 0b 44
        E 16 b0 0b 3b
        E 16 b0 0b 33
        E 16 b0 0b 2a
        E 16 b0 0b 22
        E 16 b0 0b 2a
        E 16 b0 0b 33
        E 16 b0 0b 3b
        E 16 b0 0b 44
        E 16 b0 0b 3b
        E 16 b0 0b 33
        E 16 b0 0b 2a
        E 16 b0 0b 66
        E 0 80 3b 00
        E 0 90 3c 66
        E 16 b0 0b 5d
        E 16 b0 0b 55
        E 16 b0 0b 4c
        E 16 b0 0b 44
        E 16 b0 0b 3b
        E 16 b0 0b 33
        E 16 b0 0b 2a
        E 16 b0 0b 22
        E 16 b0 0b 2a
        E 16 b0 0b 33
        E 16 b0 0b 3b
        E 16 b0 0b 44
        E 16 b0 0b 3b
        E 16 b0 0b 33
        E 16 b0 0b 2a
        E 16 b0 0b 22
        E 16 b0 0b 2a
        E 16 b0 0b 33
        E 16 b0 0b 3b
        E 16 b0 0b 44
        E 16 b0 0b 3b
        E 16 b0 0b 33
        E 16 b0 0b 2a
        E 16 b0 0b 66
        E 0 80 3c 00
        E 0 90 40 66
        E 16 b0 0b 5d
        E 16 b0 0b 55
        E 16 b0 0b 4c
        E 16 b0 0b 44
        E 16 b0 0b 3b
        E 16 b0 0b 33
        E 16 b0 0b 2a
        E 16 b0 0b 22
        E 16 b0 0b 2a
        E 16 b0 0b 33
        E 16 b0 0b 3b
        E 16 b0 0b 44
        E 16 b0 0b 3b
        E 16 b0 0b 33
        E 16 b0 0b 2a
        E 16 b0 0b 22
        E 16 b0 0b 2a
        E 16 b0 0b 33
        E 16 b0 0b 3b
        E 16 b0 0b 44
        E 16 b0 0b 3b
        E 16 b0 0b 33
        E 16 b0 0b 2a
        E 16 b0 0b 66
        E 0 80 40 00
        E 0 90 47 66
        E 16 b0 0b 5d
        E 16 b0 0b 55
        E 16 b0 0b 4c
        E 16 b0 0b 44
        E 16 b0 0b 3b
        E 16 b0 0b 33
        E 16 b0 0b 2a
        E 16 b0 0b 22
        E 16 b0 0b 2a
        E 16 b0 0b 33
        E 16 b0 0b 3b
        E 16 b0 0b 44
        E 16 b0 0b 3b
        E 16 b0 0b 33
        E 16 b0 0b 2a
        E 16 b0 0b 22
        E 16 b0 0b 2a
        E 16 b0 0b 33
        E 16 b0 0b 3b
        E 16 b0 0b 44
        E 16 b0 0b 3b
        E 16 b0 0b 33
        E 16 b0 0b 2a
        E 16 b0 0b 66
        E 0 80 47 00
        E 0 90 45 66
        E 16 b0 0b 5d
        E 16 b0 0b 55
        E 16 b0 0b 4c
        E 16 b0 0b 44
        E 16 b0 0b 3b
        E 16 b0 0b 33
        E 16 b0 0b 2a
        E 16 b0 0b 22
        E 16 b0 0b 2a
        E 16 b0 0b 33
        E 16 b0 0b 3b
        E 16 b0 0b 44
        E 16 b0 0b 3b
        E 16 b0 0b 33
        E 16 b0 0b 2a
        E 16 b0 0b 22
        E 16 b0 0b 2a
        E 16 b0 0b 33
        E 16 b0 0b 3b
        E 16 b0 0b 44
        E 16 b0 0b 3b
        E 16 b0 0b 33
        E 16 b0 0b 2a
        E 16 b0 0b 66
        E 0 80 45 00
        E 0 90 41 66
        E 16 b0 0b 5d
        E 16 b0 0b 55
        E 16 b0 0b 4c
        E 16 b0 0b 44
        E 16 b0 0b 3b
        E 16 b0 0b 33
        E 16 b0 0b 2a
        E 16 b0 0b 22
        E 16 b0 0b 2a
        E 16 b0 0b 33
        E 16 b0 0b 3b
        E 16 b0 0b 44
        E 16 b0 0b 3b
        E 16 b0 0b 33
        E 16 b0 0b 2a
        E 16 b0 0b 22
        E 16 b0 0b 2a
        E 16 b0 0b 33
        E 16 b0 0b 3b
        E 16 b0 0b 44
        E 16 b0 0b 3b
        E 16 b0 0b 33
        E 16 b0 0b 2a
        E 16 b0 0b 22
        E 16 b0 0b 2a
        E 16 b0 0b 33
        E 16 b0 0b 3b
        E 16 b0 0b 44
        E 16 b0 0b 4c
        E 16 b0 0b 55
        E 16 b0 0b 5d
        E 272 b0 0b 66
        E 0 80 41 00
        E 0 90 43 66
        E 16 b0 0b 5d
        E 16 b0 0b 55
        E 16 b0 0b 4c
        E 16 b0 0b 44
        E 16 b0 0b 3b
        E 16 b0 0b 33
        E 16 b0 0b 2a
        E 16 b0 0b 22
        E 16 b0 0b 2a
        E 16 b0 0b 33
        E 16 b0 0b 3b
        E 16 b0 0b 44
        E 16 b0 0b 3b
        E 16 b0 0b 33
        E 16 b0 0b 2a
        E 16 b0 0b 22
        E 16 b0 0b 2a
        E 16 b0 0b 33
        E 16 b0 0b 3b
        E 16 b0 0b 44
        E 16 b0 0b 3b
        E 16 b0 0b 33
        E 16 b0 0b 2a
        E 16 b0 0b 66
        E 0 80 43 00
        E 0 90 45 66
        E 16 b0 0b 5d
        E 16 b0 0b 55
        E 16 b0 0b 4c
        E 16 b0 0b 44
        E 16 b0 0b 3b
        E 16 b0 0b 33
        E 16 b0 0b 2a
        E 16 b0 0b 22
        E 16 b0 0b 2a
        E 16 b0 0b 33
        E 16 b0 0b 3b
        E 16 b0 0b 44
        E 16 b0 0b 3b
        E 16 b0 0b 33
        E 16 b0 0b 2a
        E 16 b0 0b 22
        E 16 b0 0b 2a
        E 16 b0 0b 33
        E 16 b0 0b 3b
        E 16 b0 0b 44
        E 16 b0 0b 3b
        E 16 b0 0b 33
        E 16 b0 0b 2a
        E 16 b0 0b 66
        E 0 80 45 00
        E 0 90 43 66
        E 16 b0 0b 5d
        E 16 b0 0b 55
        E 16 b0 0b 4c
        E 16 b0 0b 44
        E 16 b0 0b 3b
        E 16 b0 0b 33
        E 16 b0 0b 2a
        E 16 b0 0b 22
        E 16 b0 0b 2a
        E 16 b0 0b 33
        E 16 b0 0b 3b
        E 16 b0 0b 44
        E 16 b0 0b 3b
        E 16 b0 0b 33
        E 16 b0 0b 2a
        E 16 b0 0b 22
        E 16 b0 0b 2a
        E 16 b0 0b 33
        E 16 b0 0b 3b
        E 16 b0 0b 44
        E 16 b0 0b 3b
        E 16 b0 0b 33
        E 16 b0 0b 2a
        E 16 b0 0b 22
        E 16 b0 0b 2a
        E 16 b0 0b 33
        E 16 b0 0b 3b
        E 16 b0 0b 44
        E 16 b0 0b 4c
        E 16 b0 0b 55
        E 16 b0 0b 5d
        E 1040 b0 0b 66
        E 0 80 43 00
        E 0 90 42 66
        E 16 b0 0b 5d
        E 16 b0 0b 55
        E 16 b0 0b 4c
        E 16 b0 0b 44
        E 16 b0 0b 3b
        E 16 b0 0b 33
        E 16 b0 0b 2a
        E 16 b0 0b 22
        E 16 b0 0b 2a
        E 16 b0 0b 33
        E 16 b0 0b 3b
        E 16 b0 0b 44
        E 16 b0 0b 3b
        E 16 b0 0b 33
        E 16 b0 0b 2a
        E 16 b0 0b 22
        E 16 b0 0b 2a
        E 16 b0 0b 33
        E 16 b0 0b 3b
        E 16 b0 0b 44
        E 16 b0 0b 3b
        E 16 b0 0b 33
        E 16 b0 0b 2a
        E 16 b0 0b 22
        E 16 b0 0b 2a
        E 16 b0 0b 33
        E 16 b0 0b 3b
        E 16 b0 0b 44
        E 16 b0 0b 4c
        E 16 b0 0b 55
        E 16 b0 0b 5d
        E 1040 b0 0b 66
        E 0 80 42 00
        E 0 90 40 66
        E 16 b0 0b 5d
        E 16 b0 0b 55
        E 16 b0 0b 4c
        E 16 b0 0b 44
        E 16 b0 0b 3b
        E 16 b0 0b 33
        E 16 b0 0b 2a
        E 16 b0 0b 22
        E 16 b0 0b 2a
        E 16 b0 0b 33
        E 16 b0 0b 3b
        E 16 b0 0b 44
        E 16 b0 0b 3b
        E 16 b0 0b 33
        E 16 b0 0b 2a
        E 16 b0 0b 22
        E 16 b0 0b 2a
        E 16 b0 0b 33
        E 16 b0 0b 3b
        E 16 b0 0b 44
        E 16 b0 0b 3b
        E 16 b0 0b 33
        E 16 b0 0b 2a
        E 16 b0 0b 22
        E 16 b0 0b 2a
        E 16 b0 0b 33
        E 16 b0 0b 3b
        E 16 b0 0b 44
        E 16 b0 0b 4c
        E 16 b0 0b 55
        E 16 b0 0b 5d
        E 272 b0 0b 66
        E 0 80 40 00
        E 0 90 3b 66
        E 16 b0 0b 5d
        E 16 b0 0b 55
        E 16 b0 0b 4c
        E 16 b0 0b 44
        E 16 b0 0b 3b
        E 16 b0 0b 33
        E 16 b0 0b 2a
        E 16 b0 0b 22
        E 16 b0 0b 2a
        E 16 b0 0b 33
        E 16 b0 0b 3b
        E 16 b0 0b 44
        E 16 b0 0b 3b
        E 16 b0 0b 33
        E 16 b0 0b 2a
        E 16 b0 0b 22
        E 16 b0 0b 2a
        E 16 b0 0b 33
        E 16 b0 0b 3b
        E 16 b0 0b 44
        E 16 b0 0b 3b
        E 16 b0 0b 33
        E 16 b0 0b 2a
        E 16 b0 0b 66
        E 0 80 3b 00
        E 0 90 47 66
        E 16 b0 0b 5d
        E 16 b0 0b 55
        E 16 b0 0b 4c
        E 16 b0 0b 44
        E 16 b0 0b 3b
        E 16 b0 0b 33
        E 16 b0 0b 2a
        E 16 b0 0b 22
        E 16 b0 0b 2a
        E 16 b0 0b 33
        E 16 b0 0b 3b
        E 16 b0 0b 44
        E 16 b0 0b 3b
        E 16 b0 0b 33
        E 16 b0 0b 2a
        E 16 b0 0b 22
        E 16 b0 0b 2a
        E 16 b0 0b 33
        E 16 b0 0b 3b
        E 16 b0 0b 44
        E 16 b0 0b 3b
        E 16 b0 0b 33
        E 16 b0 0b 2a
        E 16 b0 0b 66
        E 0 80 47 00
        E 0 90 45 66
        E 16 b0 0b 5d
        E 16 b0 0b 55
        E 16 b0 0b 4c
        E 16 b0 0b 44
        E 16 b0 0b 3b
        E 16 b0 0b 33
        E 16 b0 0b 2a
        E 16 b0 0b 22
        E 16 b0 0b 2a
        E 16 b0 0b 33
        E 16 b0 0b 3b
        E 16 b0 0b 44
        E 16 b0 0b 3b
        E 16 b0 0b 33
        E 16 b0 0b 2a
        E 16 b0 0b 22
        E 16 b0 0b 2a
        E 16 b0 0b 33
        E 16 b0 0b 3b
        E 16 b0 0b 44
        E 16 b0 0b 3b
        E 16 b0 0b 33
        E 16 b0 0b 2a
        E 16 b0 0b 66
        E 0 80 45 00
        E 0 90 43 66
        E 16 b0 0b 5d
        E 16 b0 0b 55
        E 16 b0 0b 4c
        E 16 b0 0b 44
        E 16 b0 0b 3b
        E 16 b0 0b 33
        E 16 b0 0b 2a
        E 16 b0 0b 22
        E 16 b0 0b 2a
        E 16 b0 0b 33
        E 16 b0 0b 3b
        E 16 b0 0b 44
        E 16 b0 0b 3b
        E 16 b0 0b 33
        E 16 b0 0b 2a
        E 16 b0 0b 22
        E 16 b0 0b 2a
        E 16 b0 0b 33
        E 16 b0 0b 3b
        E 16 b0 0b 44
        E 16 b0 0b 3b
        E 16 b0 0b 33
        E 16 b0 0b 2a
        E 16 b0 0b 66
        E 0 80 43 00
        E 0 90 42 66
        E 16 b0 0b 5d
        E 16 b0 0b 55
        E 16 b0 0b 4c
        E 16 b0 0b 44
        E 16 b0 0b 3b
        E 16 b0 0b 33
        E 16 b0 0b 2a
        E 16 b0 0b 22
        E 16 b0 0b 2a
        E 16 b0 0b 33
        E 16 b0 0b 3b
        E 16 b0 0b 44
        E 16 b0 0b 3b
        E 16 b0 0b 33
        E 16 b0 0b 2a
        E 16 b0 0b 22
        E 16 b0 0b 2a
        E 16 b0 0b 33
        E 16 b0 0b 3b
        E 16 b0 0b 44
        E 16 b0 0b 3b
        E 16 b0 0b 33
        E 16 b0 0b 2a
        E 16 b0 0b 66
        E 0 80 42 00
        E 0 90 40 66
        E 16 b0 0b 5d
        E 16 b0 0b 55
        E 16 b0 0b 4c
        E 16 b0 0b 44
        E 16 b0 0b 3b
        E 16 b0 0b 33
        E 16 b0 0b 2a
        E 16 b0 0b 22
        E 16 b0 0b 2a
        E 16 b0 0b 33
        E 16 b0 0b 3b
        E 16 b0 0b 44
        E 16 b0 0b 3b
        E 16 b0 0b 33
        E 16 b0 0b 2a
        E 16 b0 0b 22
        E 16 b0 0b 2a
        E 16 b0 0b 33
        E 16 b0 0b 3b
        E 16 b0 0b 44
        E 16 b0 0b 3b
        E 16 b0 0b 33
        E 16 b0 0b 2a
        E 16 b0 0b 66
        E 0 80 40 00
        E 0 90 43 66
        E 16 b0 0b 5d
        E 16 b0 0b 55
        E 16 b0 0b 4c
        E 16 b0 0b 44
        E 16 b0 0b 3b
        E 16 b0 0b 33
        E 16 b0 0b 2a
        E 16 b0 0b 22
        E 16 b0 0b 2a
        E 16 b0 0b 33
        E 16 b0 0b 3b
        E 16 b0 0b 44
        E 16 b0 0b 3b
        E 16 b0 0b 33
        E 16 b0 0b 2a
        E 16 b0 0b 22
        E 16 b0 0b 2a
        E 16 b0 0b 33
        E 16 b0 0b 3b
        E 16 b0 0b 44
        E 16 b0 0b 3b
        E 16 b0 0b 33
        E 16 b0 0b 2a
        E 16 b0 0b 22
        E 16 b0 0b 2a
        E 16 b0 0b 33
        E 16 b0 0b 3b
        E 16 b0 0b 44
        E 16 b0 0b 4c
        E 16 b0 0b 55
        E 16 b0 0b 5d
        E 272 b0 0b 66
        E 0 80 43 00
        E 0 90 40 66
        E 16 b0 0b 5d
        E 16 b0 0b 55
        E 16 b0 0b 4c
        E 16 b0 0b 44
        E 16 b0 0b 3b
        E 16 b0 0b 33
        E 16 b0 0b 2a
        E 16 b0 0b 22
        E 16 b0 0b 2a
        E 16 b0 0b 33
        E 16 b0 0b 3b
        E 16 b0 0b 44
        E 16 b0 0b 3b
        E 16 b0 0b 33
        E 16 b0 0b 2a
        E 16 b0 0b 22
        E 16 b0 0b 2a
        E 16 b0 0b 33
        E 16 b0 0b 3b
        E 16 b0 0b 44
        E 16 b0 0b 3b
        E 16 b0 0b 33
        E 16 b0 0b 2a
        E 16 b0 0b 22
        E 16 b0 0b 2a
        E 16 b0 0b 33
        E 16 b0 0b 3b
        E 16 b0 0b 44
        E 16 b0 0b 4c
        E 16 b0 0b 55
        E 16 b0 0b 5d
        E 2192 b0 0b 66
        E 16 b0 0b 5d
        E 16 b0 0b 55
        E 16 b0 0b 4c
        E 16 b0 0b 44
        E 16 b0 0b 3b
        E 16 b0 0b 33
        E 16 b0 0b 2a
        E 16 b0 0b 22
        E 16 b0 0b 2a
        E 16 b0 0b 33
        E 16 b0 0b 3b
        E 16 b0 0b 44
        E 16 b0 0b 3b
        E 16 b0 0b 33
        E 16 b0 0b 2a
        E 16 b0 0b 22
        E 16 b0 0b 2a
        E 16 b0 0b 33
        E 16 b0 0b 3b
        E 16 b0 0b 44
        E 16 b0 0b 3b
        E 16 b0 0b 33
        E 16 b0 0b 2a
        E 16 b0 0b 66
        E 0 80 40 00
        E 0 90 3b 66
        E 16 b0 0b 5d
        E 16 b0 0b 55
        E 16 b0 0b 4c
        E 16 b0 0b 44
        E 16 b0 0b 3b
        E 16 b0 0b 33
        E 16 b0 0b 2a
        E 16 b0 0b 22
        E 16 b0 0b 2a
        E 16 b0 0b 33
        E 16 b0 0b 3b
        E 16 b0 0b 44
        E 16 b0 0b 3b
        E 16 b0 0b 33
        E 16 b0 0b 2a
        E 16 b0 0b 22
        E 16 b0 0b 2a
        E 16 b0 0b 33
        E 16 b0 0b 3b
        E 16 b0 0b 44
        E 16 b0 0b 3b
        E 16 b0 0b 33
        E 16 b0 0b 2a
        E 16 b0 0b 66
        E 0 80 3b 00
        E 0 90 47 66
        E 16 b0 0b 5d
        E 16 b0 0b 55
        E 16 b0 0b 4c
        E 16 b0 0b 44
        E 16 b0 0b 3b
        E 16 b0 0b 33
        E 16 b0 0b 2a
        E 16 b0 0b 22
        E 16 b0 0b 2a
        E 16 b0 0b 33
        E 16 b0 0b 3b
        E 16 b0 0b 44
        E 16 b0 0b 3b
        E 16 b0 0b 33
        E 16 b0 0b 2a
        E 16 b0 0b 22
        E 16 b0 0b 2a
        E 16 b0 0b 33
        E 16 b0 0b 3b
        E 16 b0 0b 44
        E 16 b0 0b 3b
        E 16 b0 0b 33
        E 16 b0 0b 2a
        E 16 b0 0b 66
        E 0 80 47 00
        E 0 90 4a 66
        E 16 b0 0b 5d
        E 16 b0 0b 55
        E 16 b0 0b 4c
        E 16 b0 0b 44
        E 16 b0 0b 3b
        E 16 b0 0b 33
        E 16 b0 0b 2a
        E 16 b0 0b 22
        E 16 b0 0b 2a
        E 16 b0 0b 33
        E 16 b0 0b 3b
        E 16 b0 0b 44
        E 16 b0 0b 3b
        E 16 b0 0b 33
        E 16 b0 0b 2a
        E 16 b0 0b 22
        E 16 b0 0b 2a
        E 16 b0 0b 33
        E 16 b0 0b 3b
        E 16 b0 0b 44
        E 16 b0 0b 3b
        E 16 b0 0b 33
        E 16 b0 0b 2a
        E 16 b0 0b 66
        E 0 80 4a 00
        E 0 90 48 66
        E 16 b0 0b 5d
        E 16 b0 0b 55
        E 16 b0 0b 4c
        E 16 b0 0b 44
        E 16 b0 0b 3b
        E 16 b0 0b 33
        E 16 b0 0b 2a
        E 16 b0 0b 22
        E 16 b0 0b 2a
        E 16 b0 0b 33
        E 16 b0 0b 3b
        E 16 b0 0b 44
        E 16 b0 0b 3b
        E 16 b0 0b 33
        E 16 b0 0b 2a
        E 16 b0 0b 22
        E 16 b0 0b 2a
        E 16 b0 0b 33
        E 16 b0 0b 3b
        E 16 b0 0b 44
        E 16 b0 0b 3b
        E 16 b0 0b 33
        E 16 b0 0b 2a
        E 16 b0 0b 66
        E 0 80 48 00
        E 0 90 47 66
        E 16 b0 0b 5d
        E 16 b0 0b 55
        E 16 b0 0b 4c
        E 16 b0 0b 44
        E 16 b0 0b 3b
        E 16 b0 0b 33
        E 16 b0 0b 2a
        E 16 b0 0b 22
        E 16 b0 0b 2a
        E 16 b0 0b 33
        E 16 b0 0b 3b
        E 16 b0 0b 44
        E 16 b0 0b 3b
        E 16 b0 0b 33
        E 16 b0 0b 2a
        E 16 b0 0b 22
        E 16 b0 0b 2a
        E 16 b0 0b 33
        E 16 b0 0b 3b
        E 16 b0 0b 44
        E 16 b0 0b 3b
        E 16 b0 0b 33
        E 16 b0 0b 2a
        E 16 b0 0b 66
        E 0 80 47 00
        E 0 90 45 66
        E 16 b0 0b 5d
        E 16 b0 0b 55
        E 16 b0 0b 4c
        E 16 b0 0b 44
        E 16 b0 0b 3b
        E 16 b0 0b 33
        E 16 b0 0b 2a
        E 16 b0 0b 22
        E 16 b0 0b 2a
        E 16 b0 0b 33
        E 16 b0 0b 3b
        E 16 b0 0b 44
        E 16 b0 0b 3b
        E 16 b0 0b 33
        E 16 b0 0b 2a
        E 16 b0 0b 22
        E 16 b0 0b 2a
        E 16 b0 0b 33
        E 16 b0 0b 3b
        E 16 b0 0b 44
        E 16 b0 0b 3b
        E 16 b0 0b 33
        E 16 b0 0b 2a
        E 16 b0 0b 66
        E 0 80 45 00
        E 0 90 47 66
        E 16 b0 0b 5d
        E 16 b0 0b 55
        E 16 b0 0b 4c
        E 16 b0 0b 44
        E 16 b0 0b 3b
        E 16 b0 0b 33
        E 16 b0 0b 2a
        E 16 b0 0b 22
        E 16 b0 0b 2a
        E 16 b0 0b 33
        E 16 b0 0b 3b
        E 16 b0 0b 44
        E 16 b0 0b 3b
        E 16 b0 0b 33
        E 16 b0 0b 2a
        E 16 b0 0b 22
        E 16 b0 0b 2a
        E 16 b0 0b 33
        E 16 b0 0b 3b
        E 16 b0 0b 44
        E 16 b0 0b 3b
        E 16 b0 0b 33
        E 16 b0 0b 2a
        E 16 b0 0b 22
        E 16 b0 0b 2a
        E 16 b0 0b 33
        E 16 b0 0b 3b
        E 16 b0 0b 44
        E 16 b0 0b 4c
        E 16 b0 0b 55
        E 16 b0 0b 5d
        E 1808 b0 0b 66
        E 0 80 47 00
        E 0 90 43 66
        E 16 b0 0b 5d
        E 16 b0 0b 55
        E 16 b0 0b 4c
        E 16 b0 0b 44
        E 16 b0 0b 3b
        E 16 b0 0b 33
        E 16 b0 0b 2a
        E 16 b0 0b 22
        E 16 b0 0b 2a
        E 16 b0 0b 33
        E 16 b0 0b 3b
        E 16 b0 0b 44
        E 16 b0 0b 3b
        E 16 b0 0b 33
        E 16 b0 0b 2a
        E 16 b0 0b 22
        E 16 b0 0b 2a
        E 16 b0 0b 33
        E 16 b0 0b 3b
        E 16 b0 0b 44
        E 16 b0 0b 3b
        E 16 b0 0b 33
        E 16 b0 0b 2a
        E 16 b0 0b 66
        E 0 80 43 00
        E 0 90 45 66
        E 16 b0 0b 5d
        E 16 b0 0b 55
        E 16 b0 0b 4c
        E 16 b0 0b 44
        E 16 b0 0b 3b
        E 16 b0 0b 33
        E 16 b0 0b 2a
        E 16 b0 0b 22
        E 16 b0 0b 2a
        E 16 b0 0b 33
        E 16 b0 0b 3b
        E 16 b0 0b 44
        E 16 b0 0b 3b
        E 16 b0 0b 33
        E 16 b0 0b 2a
        E 16 b0 0b 22
        E 16 b0 0b 2a
        E 16 b0 0b 33
        E 16 b0 0b 3b
        E 16 b0 0b 44
        E 16 b0 0b 3b
        E 16 b0 0b 33
        E 16 b0 0b 2a
        E 16 b0 0b 66
        E 0 80 45 00
        E 0 90 47 66
        E 16 b0 0b 5d
        E 16 b0 0b 55
        E 16 b0 0b 4c
        E 16 b0 0b 44
        E 16 b0 0b 3b
        E 16 b0 0b 33
        E 16 b0 0b 2a
        E 16 b0 0b 22
        E 16 b0 0b 2a
        E 16 b0 0b 33
        E 16 b0 0b 3b
        E 16 b0 0b 44
        E 16 b0 0b 3b
        E 16 b0 0b 33
        E 16 b0 0b 2a
        E 16 b0 0b 22
        E 16 b0 0b 2a
        E 16 b0 0b 33
        E 16 b0 0b 3b
        E 16 b0 0b 44
        E 16 b0 0b 3b
        E 16 b0 0b 33
        E 16 b0 0b 2a
        E 16 b0 0b 22
        E 16 b0 0b 2a
        E 16 b0 0b 33
        E 16 b0 0b 3b
        E 16 b0 0b 44
        E 16 b0 0b 4c
        E 16 b0 0b 55
        E 16 b0 0b 5d
        E 272 b0 0b 66
        E 0 80 47 00
        E 0 90 3e 66
        E 16 b0 0b 5d
        E 16 b0 0b 55
        E 16 b0 0b 4c
        E 16 b0 0b 44
        E 16 b0 0b 3b
        E 16 b0 0b 33
        E 16 b0 0b 2a
        E 16 b0 0b 22
        E 16 b0 0b 2a
        E 16 b0 0b 33
        E 16 b0 0b 3b
        E 16 b0 0b 44
        E 16 b0 0b 3b
        E 16 b0 0b 33
        E 16 b0 0b 2a
        E 16 b0 0b 22
        E 16 b0 0b 2a
        E 16 b0 0b 33
        E 16 b0 0b 3b
        E 16 b0 0b 44
        E 16 b0 0b 3b
        E 16 b0 0b 33
        E 16 b0 0b 2a
        E 16 b0 0b 66
        E 0 80 3e 00
        E 0 90 43 66
        E 16 b0 0b 5d
        E 16 b0 0b 55
        E 16 b0 0b 4c
        E 16 b0 0b 44
        E 16 b0 0b 3b
        E 16 b0 0b 33
        E 16 b0 0b 2a
        E 16 b0 0b 22
        E 16 b0 0b 2a
        E 16 b0 0b 33
        E 16 b0 0b 3b
        E 16 b0 0b 44
        E 16 b0 0b 3b
        E 16 b0 0b 33
        E 16 b0 0b 2a
        E 16 b0 0b 22
        E 16 b0 0b 2a
        E 16 b0 0b 33
        E 16 b0 0b 3b
        E 16 b0 0b 44
        E 16 b0 0b 3b
        E 16 b0 0b 33
        E 16 b0 0b 2a
        E 16 b0 0b 66
        E 0 80 43 00
        E 0 90 42 66
        E 16 b0 0b 5d
        E 16 b0 0b 55
        E 16 b0 0b 4c
        E 16 b0 0b 44
        E 16 b0 0b 3b
        E 16 b0 0b 33
        E 16 b0 0b 2a
        E 16 b0 0b 22
        E 16 b0 0b 2a
        E 16 b0 0b 33
        E 16 b0 0b 3b
        E 16 b0 0b 44
        E 16 b0 0b 3b
        E 16 b0 0b 33
        E 16 b0 0b 2a
        E 16 b0 0b 22
        E 16 b0 0b 2a
        E 16 b0 0b 33
        E 16 b0 0b 3b
        E 16 b0 0b 44
        E 16 b0 0b 3b
        E 16 b0 0b 33
        E 16 b0 0b 2a
        E 16 b0 0b 66
        E 0 80 42 00
        E 0 90 40 66
        E 16 b0 0b 5d
        E 16 b0 0b 55
        E 16 b0 0b 4c
        E 16 b0 0b 44
        E 16 b0 0b 3b
        E 16 b0 0b 33
        E 16 b0 0b 2a
        E 16 b0 0b 22
        E 16 b0 0b 2a
        E 16 b0 0b 33
        E 16 b0 0b 3b
        E 16 b0 0b 44
        E 16 b0 0b 3b
        E 16 b0 0b 33
        E 16 b0 0b 2a
        E 16 b0 0b 22
        E 16 b0 0b 2a
        E 16 b0 0b 33
        E 16 b0 0b 3b
        E 16 b0 0b 44
        E 16 b0 0b 3b
        E 16 b0 0b 33
        E 16 b0 0b 2a
        E 16 b0 0b 66
        E 0 80 40 00
        E 0 90 42 66
        E 16 b0 0b 5d
        E 16 b0 0b 55
        E 16 b0 0b 4c
        E 16 b0 0b 44
        E 16 b0 0b 3b
        E 16 b0 0b 33
        E 16 b0 0b 2a
        E 16 b0 0b 22
        E 16 b0 0b 2a
        E 16 b0 0b 33
        E 16 b0 0b 3b
        E 16 b0 0b 44
        E 16 b0 0b 3b
        E 16 b0 0b 33
        E 16 b0 0b 2a
        E 16 b0 0b 22
        E 16 b0 0b 2a
        E 16 b0 0b 33
        E 16 b0 0b 3b
        E 16 b0 0b 44
        E 16 b0 0b 3b
        E 16 b0 0b 33
        E 16 b0 0b 2a
        E 16 b0 0b 66
        E 0 80 42 00
        E 0 90 43 66
        E 16 b0 0b 5d
        E 16 b0 0b 55
        E 16 b0 0b 4c
        E 16 b0 0b 44
        E 16 b0 0b 3b
        E 16 b0 0b 33
        E 16 b0 0b 2a
        E 16 b0 0b 22
        E 16 b0 0b 2a
        E 16 b0 0b 33
        E 16 b0 0b 3b
        E 16 b0 0b 44
        E 16 b0 0b 3b
        E 16 b0 0b 33
        E 16 b0 0b 2a
        E 16 b0 0b 22
        E 16 b0 0b 2a
        E 16 b0 0b 33
        E 16 b0 0b 3b
        E 16 b0 0b 44
        E 16 b0 0b 3b
        E 16 b0 0b 33
        E 16 b0 0b 2a
        E 16 b0 0b 66
        E 0 80 43 00
        E 0 90 40 66
        E 16 b0 0b 5d
        E 16 b0 0b 55
        E 16 b0 0b 4c
        E 16 b0 0b 44
        E 16 b0 0b 3b
        E 16 b0 0b 33
        E 16 b0 0b 2a
        E 16 b0 0b 22
        E 16 b0 0b 2a
        E 16 b0 0b 33
        E 16 b0 0b 3b
        E 16 b0 0b 44
        E 16 b0 0b 3b
        E 16 b0 0b 33
        E 16 b0 0b 2a
        E 16 b0 0b 22
        E 16 b0 0b 2a
        E 16 b0 0b 33
        E 16 b0 0b 3b
        E 16 b0 0b 44
        E 16 b0 0b 3b
        E 16 b0 0b 33
        E 16 b0 0b 2a
        E 16 b0 0b 22
        E 16 b0 0b 2a
        E 16 b0 0b 33
        E 16 b0 0b 3b
        E 16 b0 0b 44
        E 16 b0 0b 4c
        E 16 b0 0b 55
        E 16 b0 0b 5d
        E 272 b0 0b 66
        E 0 80 40 00
        E 0 90 3b 66
        E 16 b0 0b 5d
        E 16 b0 0b 55
        E 16 b0 0b 4c
        E 16 b0 0b 44
        E 16 b0 0b 3b
        E 16 b0 0b 33
        E 16 b0 0b 2a
        E 16 b0 0b 22
        E 16 b0 0b 2a
        E 16 b0 0b 33
        E 16 b0 0b 3b
        E 16 b0 0b 44
        E 16 b0 0b 3b
        E 16 b0 0b 33
        E 16 b0 0b 2a
        E 16 b0 0b 22
        E 16 b0 0b 2a
        E 16 b0 0b 33
        E 16 b0 0b 3b
        E 16 b0 0b 44
        E 16 b0 0b 3b
        E 16 b0 0b 33
        E 16 b0 0b 2a
        E 16 b0 0b 22
        E 16 b0 0b 2a
        E 16 b0 0b 33
        E 16 b0 0b 3b
        E 16 b0 0b 44
        E 16 b0 0b 4c
        E 16 b0 0b 55
        E 16 b0 0b 5d
        E 272 b0 0b 66
        E 0 80 3b 00
        E 0 90 3e 66
        E 16 b0 0b 5d
        E 16 b0 0b 55
        E 16 b0 0b 4c
        E 16 b0 0b 44
        E 16 b0 0b 3b
        E 16 b0 0b 33
        E 16 b0 0b 2a
        E 16 b0 0b 22
        E 16 b0 0b 2a
        E 16 b0 0b 33
        E 16 b0 0b 3b
        E 16 b0 0b 44
        E 16 b0 0b 3b
        E 16 b0 0b 33
        E 16 b0 0b 2a
        E 16 b0 0b 22
        E 16 b0 0b 2a
        E 16 b0 0b 33
        E 16 b0 0b 3b
        E 16 b0 0b 44
        E 16 b0 0b 3b
        E 16 b0 0b 33
        E 16 b0 0b 2a
        E 16 b0 0b 22
        E 16 b0 0b 2a
        E 16 b0 0b 33
        E 16 b0 0b 3b
        E 16 b0 0b 44
        E 16 b0 0b 4c
        E 16 b0 0b 55
        E 16 b0 0b 5d
        E 656 b0 0b 66
        E 0 80 3e 00
        E 0 90 3b 66
        E 16 b0 0b 5d
        E 16 b0 0b 55
        E 16 b0 0b 4c
        E 16 b0 0b 44
        E 16 b0 0b 3b
        E 16 b0 0b 33
        E 16 b0 0b 2a
        E 16 b0 0b 22
        E 16 b0 0b 2a
        E 16 b0 0b 33
        E 16 b0 0b 3b
        E 16 b0 0b 44
        E 16 b0 0b 3b
        E 16 b0 0b 33
        E 16 b0 0b 2a
        E 16 b0 0b 22
        E 16 b0 0b 2a
        E 16 b0 0b 33
        E 16 b0 0b 3b
        E 16 b0 0b 44
        E 16 b0 0b 3b
        E 16 b0 0b 33
        E 16 b0 0b 2a
        E 16 b0 0b 66
        E 0 80 3b 00
        E 0 90 3c 66
        E 16 b0 0b 5d
        E 16 b0 0b 55
        E 16 b0 0b 4c
        E 16 b0 0b 44
        E 16 b0 0b 3b
        E 16 b0 0b 33
        E 16 b0 0b 2a
        E 16 b0 0b 22
        E 16 b0 0b 2a
        E 16 b0 0b 33
        E 16 b0 0b 3b
        E 16 b0 0b 44
        E 16 b0 0b 3b
        E 16 b0 0b 33
        E 16 b0 0b 2a
        E 16 b0 0b 22
        E 16 b0 0b 2a
        E 16 b0 0b 33
        E 16 b0 0b 3b
        E 16 b0 0b 44
        E 16 b0 0b 3b
        E 16 b0 0b 33
        E 16 b0 0b 2a
        E 16 b0 0b 66
        E 0 80 3c 00
        E 0 90 40 66
        E 16 b0 0b 5d
        E 16 b0 0b 55
        E 16 b0 0b 4c
        E 16 b0 0b 44
        E 16 b0 0b 3b
        E 16 b0 0b 33
        E 16 b0 0b 2a
        E 16 b0 0b 22
        E 16 b0 0b 2a
        E 16 b0 0b 33
        E 16 b0 0b 3b
        E 16 b0 0b 44
        E 16 b0 0b 3b
        E 16 b0 0b 33
        E 16 b0 0b 2a
        E 16 b0 0b 22
        E 16 b0 0b 2a
        E 16 b0 0b 33
        E 16 b0 0b 3b
        E 16 b0 0b 44
        E 16 b0 0b 3b
        E 16 b0 0b 33
        E 16 b0 0b 2a
        E 16 b0 0b 66
        E 0 80 40 00
        E 0 90 47 66
        E 16 b0 0b 5d
        E 16 b0 0b 55
        E 16 b0 0b 4c
        E 16 b0 0b 44
        E 16 b0 0b 3b
        E 16 b0 0b 33
        E 16 b0 0b 2a
        E 16 b0 0b 22
        E 16 b0 0b 2a
        E 16 b0 0b 33
        E 16 b0 0b 3b
        E 16 b0 0b 44
        E 16 b0 0b 3b
        E 16 b0 0b 33
        E 16 b0 0b 2a
        E 16 b0 0b 22
        E 16 b0 0b 2a
        E 16 b0 0b 33
        E 16 b0 0b 3b
        E 16 b0 0b 44
        E 16 b0 0b 3b
        E 16 b0 0b 33
        E 16 b0 0b 2a
        E 16 b0 0b 66
        E 0 80 47 00
        E 0 90 45 66
        E 16 b0 0b 5d
        E 16 b0 0b 55
        E 16 b0 0b 4c
        E 16 b0 0b 44
        E 16 b0 0b 3b
        E 16 b0 0b 33
        E 16 b0 0b 2a
        E 16 b0 0b 22
        E 16 b0 0b 2a
        E 16 b0 0b 33
        E 16 b0 0b 3b
        E 16 b0 0b 44
        E 16 b0 0b 3b
        E 16 b0 0b 33
        E 16 b0 0b 2a
        E 16 b0 0b 22
        E 16 b0 0b 2a
        E 16 b0 0b 33
        E 16 b0 0b 3b
        E 16 b0 0b 44
        E 16 b0 0b 3b
        E 16 b0 0b 33
        E 16 b0 0b 2a
        E 16 b0 0b 66
        E 0 80 45 00
        E 0 90 41 66
        E 16 b0 0b 5d
        E 16 b0 0b 55
        E 16 b0 0b 4c
        E 16 b0 0b 44
        E 16 b0 0b 3b
        E 16 b0 0b 33
        E 16 b0 0b 2a
        E 16 b0 0b 22
        E 16 b0 0b 2a
        E 16 b0 0b 33
        E 16 b0 0b 3b
        E 16 b0 0b 44
        E 16 b0 0b 3b
        E 16 b0 0b 33
        E 16 b0 0b 2a
        E 16 b0 0b 22
        E 16 b0 0b 2a
        E 16 b0 0b 33
        E 16 b0 0b 3b
        E 16 b0 0b 44
        E 16 b0 0b 3b
        E 16 b0 0b 33
        E 16 b0 0b 2a
        E 16 b0 0b 22
        E 16 b0 0b 2a
        E 16 b0 0b 33
        E 16 b0 0b 3b
        E 16 b0 0b 44
        E 16 b0 0b 4c
        E 16 b0 0b 55
        E 16 b0 0b 5d
        E 272 b0 0b 66
        E 0 80 41 00
        E 0 90 43 66
        E 16 b0 0b 5d
        E 16 b0 0b 55
        E 16 b0 0b 4c
        E 16 b0 0b 44
        E 16 b0 0b 3b
        E 16 b0 0b 33
        E 16 b0 0b 2a
        E 16 b0 0b 22
        E 16 b0 0b 2a
        E 16 b0 0b 33
        E 16 b0 0b 3b
        E 16 b0 0b 44
        E 16 b0 0b 3b
        E 16 b0 0b 33
        E 16 b0 0b 2a
        E 16 b0 0b 22
        E 16 b0 0b 2a
        E 16 b0 0b 33
        E 16 b0 0b 3b
        E 16 b0 0b 44
        E 16 b0 0b 3b
        E 16 b0 0b 33
        E 16 b0 0b 2a
        E 16 b0 0b 66
        E 0 80 43 00
        E 0 90 45 66
        E 16 b0 0b 5d
        E 16 b0 0b 55
        E 16 b0 0b 4c
        E 16 b0 0b 44
        E 16 b0 0b 3b
        E 16 b0 0b 33
        E 16 b0 0b 2a
        E 16 b0 0b 22
        E 16 b0 0b 2a
        E 16 b0 0b 33
        E 16 b0 0b 3b
        E 16 b0 0b 44
        E 16 b0 0b 3b
        E 16 b0 0b 33
        E 16 b0 0b 2a
        E 16 b0 0b 22
        E 16 b0 0b 2a
        E 16 b0 0b 33
        E 16 b0 0b 3b
        E 16 b0 0b 44
        E 16 b0 0b 3b
        E 16 b0 0b 33
        E 16 b0 0b 2a
        E 16 b0 0b 66
        E 0 80 45 00
        E 0 90 43 66
        E 16 b0 0b 5d
        E 16 b0 0b 55
        E 16 b0 0b 4c
        E 16 b0 0b 44
        E 16 b0 0b 3b
        E 16 b0 0b 33
        E 16 b0 0b 2a
        E 16 b0 0b 22
        E 16 b0 0b 2a
        E 16 b0 0b 33
        E 16 b0 0b 3b
        E 16 b0 0b 44
        E 16 b0 0b 3b
        E 16 b0 0b 33
        E 16 b0 0b 2a
        E 16 b0 0b 22
        E 16 b0 0b 2a
        E 16 b0 0b 33
        E 16 b0 0b 3b
        E 16 b0 0b 44
        E 16 b0 0b 3b
        E 16 b0 0b 33
        E 16 b0 0b 2a
        E 16 b0 0b 22
        E 16 b0 0b 2a
        E 16 b0 0b 33
        E 16 b0 0b 3b
        E 16 b0 0b 44
        E 16 b0 0b 4c
        E 16 b0 0b 55
        E 16 b0 0b 5d
        E 1040 b0 0b 66
        E 0 80 43 00
        E 0 90 42 66
        E 16 b0 0b 5d
        E 16 b0 0b 55
        E 16 b0 0b 4c
        E 16 b0 0b 44
        E 16 b0 0b 3b
        E 16 b0 0b 33
        E 16 b0 0b 2a
        E 16 b0 0b 22
        E 16 b0 0b 2a
        E 16 b0 0b 33
        E 16 b0 0b 3b
        E 16 b0 0b 44
        E 16 b0 0b 3b
        E 16 b0 0b 33
        E 16 b0 0b 2a
        E 16 b0 0b 22
        E 16 b0 0b 2a
        E 16 b0 0b 33
        E 16 b0 0b 3b
        E 16 b0 0b 44
        E 16 b0 0b 3b
        E 16 b0 0b 33
        E 16 b0 0b 2a
        E 16 b0 0b 22
        E 16 b0 0b 2a
        E 16 b0 0b 33
        E 16 b0 0b 3b
        E 16 b0 0b 44
        E 16 b0 0b 4c
        E 16 b0 0b 55
        E 16 b0 0b 5d
        E 1040 b0 0b 66
        E 0 80 42 00
        E 0 90 40 66
        E 16 b0 0b 5d
        E 16 b0 0b 55
        E 16 b0 0b 4c
        E 16 b0 0b 44
        E 16 b0 0b 3b
        E 16 b0 0b 33
        E 16 b0 0b 2a
        E 16 b0 0b 22
        E 16 b0 0b 2a
        E 16 b0 0b 33
        E 16 b0 0b 3b
        E 16 b0 0b 44
        E 16 b0 0b 3b
        E 16 b0 0b 33
        E 16 b0 0b 2a
        E 16 b0 0b 22
        E 16 b0 0b 2a
        E 16 b0 0b 33
        E 16 b0 0b 3b
        E 16 b0 0b 44
        E 16 b0 0b 3b
        E 16 b0 0b 33
        E 16 b0 0b 2a
        E 16 b0 0b 22
        E 16 b0 0b 2a
        E 16 b0 0b 33
        E 16 b0 0b 3b
        E 16 b0 0b 44
        E 16 b0 0b 4c
        E 16 b0 0b 55
        E 16 b0 0b 5d
        E 272 b0 0b 66
        E 0 80 40 00
        E 0 90 3b 66
        E 16 b0 0b 5d
        E 16 b0 0b 55
        E 16 b0 0b 4c
        E 16 b0 0b 44
        E 16 b0 0b 3b
        E 16 b0 0b 33
        E 16 b0 0b 2a
        E 16 b0 0b 22
        E 16 b0 0b 2a
        E 16 b0 0b 33
        E 16 b0 0b 3b
        E 16 b0 0b 44
        E 16 b0 0b 3b
        E 16 b0 0b 33
        E 16 b0 0b 2a
        E 16 b0 0b 22
        E 16 b0 0b 2a
        E 16 b0 0b 33
        E 16 b0 0b 3b
        E 16 b0 0b 44
        E 16 b0 0b 3b
        E 16 b0 0b 33
        E 16 b0 0b 2a
        E 16 b0 0b 66
        E 0 80 3b 00
        E 0 90 47 66
        E 16 b0 0b 5d
        E 16 b0 0b 55
        E 16 b0 0b 4c
        E 16 b0 0b 44
        E 16 b0 0b 3b
        E 16 b0 0b 33
        E 16 b0 0b 2a
        E 16 b0 0b 22
        E 16 b0 0b 2a
        E 16 b0 0b 33
        E 16 b0 0b 3b
        E 16 b0 0b 44
        E 16 b0 0b 3b
        E 16 b0 0b 33
        E 16 b0 0b 2a
        E 16 b0 0b 22
        E 16 b0 0b 2a
        E 16 b0 0b 33
        E 16 b0 0b 3b
        E 16 b0 0b 44
        E 16 b0 0b 3b
        E 16 b0 0b 33
        E 16 b0 0b 2a
        E 16 b0 0b 66
        E 0 80 47 00
        E 0 90 45 66
        E 16 b0 0b 5d
        E 16 b0 0b 55
        E 16 b0 0b 4c
        E 16 b0 0b 44
        E 16 b0 0b 3b
        E 16 b0 0b 33
        E 16 b0 0b 2a
        E 16 b0 0b 22
        E 16 b0 0b 2a
        E 16 b0 0b 33
        E 16 b0 0b 3b
        E 16 b0 0b 44
        E 16 b0 0b 3b
        E 16 b0 0b 33
        E 16 b0 0b 2a
        E 16 b0 0b 22
        E 16 b0 0b 2a
        E 16 b0 0b 33
        E 16 b0 0b 3b
        E 16 b0 0b 44
        E 16 b0 0b 3b
        E 16 b0 0b 33
        E 16 b0 0b 2a
        E 16 b0 0b 66
        E 0 80 45 00
        E 0 90 43 66
        E 16 b0 0b 5d
        E 16 b0 0b 55
        E 16 b0 0b 4c
        E 16 b0 0b 44
        E 16 b0 0b 3b
        E 16 b0 0b 33
        E 16 b0 0b 2a
        E 16 b0 0b 22
        E 16 b0 0b 2a
        E 16 b0 0b 33
        E 16 b0 0b 3b
        E 16 b0 0b 44
        E 16 b0 0b 3b
        E 16 b0 0b 33
        E 16 b0 0b 2a
        E 16 b0 0b 22
        E 16 b0 0b 2a
        E 16 b0 0b 33
        E 16 b0 0b 3b
        E 16 b0 0b 44
        E 16 b0 0b 3b
        E 16 b0 0b 33
        E 16 b0 0b 2a
        E 16 b0 0b 66
        E 0 80 43 00
        E 0 90 42 66
        E 16 b0 0b 5d
        E 16 b0 0b 55
        E 16 b0 0b 4c
        E 16 b0 0b 44
        E 16 b0 0b 3b
        E 16 b0 0b 33
        E 16 b0 0b 2a
        E 16 b0 0b 22
        E 16 b0 0b 2a
        E 16 b0 0b 33
        E 16 b0 0b 3b
        E 16 b0 0b 44
        E 16 b0 0b 3b
        E 16 b0 0b 33
        E 16 b0 0b 2a
        E 16 b0 0b 22
        E 16 b0 0b 2a
        E 16 b0 0b 33
        E 16 b0 0b 3b
        E 16 b0 0b 44
        E 16 b0 0b 3b
        E 16 b0 0b 33
        E 16 b0 0b 2a
        E 16 b0 0b 66
        E 0 80 42 00
        E 0 90 40 66
        E 16 b0 0b 5d
        E 16 b0 0b 55
        E 16 b0 0b 4c
        E 16 b0 0b 44
        E 16 b0 0b 3b
        E 16 b0 0b 33
        E 16 b0 0b 2a
        E 16 b0 0b 22
        E 16 b0 0b 2a
        E 16 b0 0b 33
        E 16 b0 0b 3b
        E 16 b0 0b 44
        E 16 b0 0b 3b
        E 16 b0 0b 33
        E 16 b0 0b 2a
        E 16 80 40 00
        E 0 b0 7b 00
        E 0 ff 2f 00
      >
    >
  >
  <TRACK {1CA56E15-43C5-4DAE-8F4F-F50458E4C998}
    NAME "NES - Pulse 2 [ch1]"
    PEAKCOL 10092441
    BEAT -1
    AUTOMODE 0
    PANLAWFLAGS 3
    VOLPAN 1 0 -1 -1 1
    MUTESOLO 0 0 0
    IPHASE 0
    PLAYOFFS 0 1
    ISBUS 0 0
    BUSCOMP 0 0 0 0 0
    SHOWINMIX 1 0.6667 0.5 1 0.5 0 0 0
    FIXEDLANES 9 0 0 0 0
    SEL 0
    REC 0 5088 1 0 0 0 0 0
    VU 2
    TRACKHEIGHT 0 0 0 0 0 0 0
    INQ 0 0 0 0.5 100 0 0 100
    NCHAN 2
    FX 1
    TRACKID {1CA56E15-43C5-4DAE-8F4F-F50458E4C998}
    PERF 0
    MIDIOUT -1
    MAINSEND 1 0
    <FXCHAIN
      WNDRECT 24 52 700 560
      SHOW 0
      LASTSEL 0
      DOCKED 0
      BYPASS 0 0 0
      <JS "ReapNES Studio/ReapNES_Console.jsfx" ""
        2 15 1 10 80 10 100 2 1 15 1 5 60 10 80 1 1 0 50 0 0 15 1 0 100 0 0 0.500000 0.500000 0.400000 0.300000 0.800000 1 1 0 0 0 0 - - - - - - - - - - - - - - - - - - - - - - - - - -
      >
      FLOATPOS 0 0 0 0
      FXID {2197AD0B-B900-4758-AA85-DC0DA0A741AC}
      WAK 0 0
    >
    <ITEM
      POSITION 0
      LENGTH 74.5878716
      LOOP 0
      ALLTAKES 0
      FADEIN 0 0 0 0 0 0 0
      FADEOUT 0 0 0 0 0 0 0
      MUTE 0 0
      SEL 0
      IGUID {C54CED53-A8A4-4553-9A54-C8EA1EADE539}
      <SOURCE MIDI
        HASDATA 1 480 QN
        CCINTERP 32
        E 0 c1 51
        E 64 b1 0c 10
        E 0 b1 0b 3b
        E 0 91 2f 3b
        E 32 b1 0b 55
        E 32 b1 0b 3b
        E 16 b1 0b 22
        E 112 81 2f 00
        E 0 91 37 22
        E 16 b1 0b 3b
        E 16 b1 0b 55
        E 32 b1 0b 3b
        E 16 b1 0b 22
        E 112 81 37 00
        E 0 91 36 22
        E 16 b1 0b 3b
        E 16 b1 0b 55
        E 32 b1 0b 3b
        E 16 b1 0b 22
        E 112 81 36 00
        E 0 91 37 22
        E 16 b1 0b 3b
        E 16 b1 0b 55
        E 32 b1 0b 3b
        E 16 b1 0b 22
        E 112 81 37 00
        E 0 91 34 22
        E 16 b1 0b 3b
        E 16 b1 0b 55
        E 32 b1 0b 3b
        E 16 b1 0b 22
        E 112 81 34 00
        E 0 91 37 22
        E 16 b1 0b 3b
        E 16 b1 0b 55
        E 32 b1 0b 3b
        E 16 b1 0b 22
        E 112 81 37 00
        E 0 91 32 22
        E 16 b1 0b 3b
        E 16 b1 0b 55
        E 32 b1 0b 3b
        E 16 b1 0b 22
        E 112 81 32 00
        E 0 91 37 22
        E 16 b1 0b 3b
        E 16 b1 0b 55
        E 32 b1 0b 3b
        E 16 b1 0b 22
        E 112 81 37 00
        E 0 91 2d 22
        E 16 b1 0b 3b
        E 16 b1 0b 55
        E 32 b1 0b 3b
        E 16 b1 0b 22
        E 112 81 2d 00
        E 0 91 36 22
        E 16 b1 0b 3b
        E 16 b1 0b 55
        E 32 b1 0b 3b
        E 16 b1 0b 22
        E 112 81 36 00
        E 0 91 34 22
        E 16 b1 0b 3b
        E 16 b1 0b 55
        E 32 b1 0b 3b
        E 16 b1 0b 22
        E 112 81 34 00
        E 0 91 36 22
        E 16 b1 0b 3b
        E 16 b1 0b 55
        E 32 b1 0b 3b
        E 16 b1 0b 22
        E 112 81 36 00
        E 0 91 32 22
        E 16 b1 0b 3b
        E 16 b1 0b 55
        E 32 b1 0b 3b
        E 16 b1 0b 22
        E 112 81 32 00
        E 0 91 36 22
        E 16 b1 0b 3b
        E 16 b1 0b 55
        E 32 b1 0b 3b
        E 16 b1 0b 22
        E 112 81 36 00
        E 0 91 30 22
        E 16 b1 0b 3b
        E 16 b1 0b 55
        E 32 b1 0b 3b
        E 16 b1 0b 22
        E 112 81 30 00
        E 0 91 36 22
        E 16 b1 0b 3b
        E 16 b1 0b 55
        E 32 b1 0b 3b
        E 16 b1 0b 22
        E 112 81 36 00
        E 0 91 2b 22
        E 16 b1 0b 3b
        E 16 b1 0b 55
        E 32 b1 0b 3b
        E 16 b1 0b 22
        E 112 81 2b 00
        E 0 91 34 22
        E 16 b1 0b 3b
        E 16 b1 0b 55
        E 32 b1 0b 3b
        E 16 b1 0b 22
        E 112 81 34 00
        E 0 91 32 22
        E 16 b1 0b 3b
        E 16 b1 0b 55
        E 32 b1 0b 3b
        E 16 b1 0b 22
        E 112 81 32 00
        E 0 91 34 22
        E 16 b1 0b 3b
        E 16 b1 0b 55
        E 32 b1 0b 3b
        E 16 b1 0b 22
        E 112 81 34 00
        E 0 91 30 22
        E 16 b1 0b 3b
        E 16 b1 0b 55
        E 32 b1 0b 3b
        E 16 b1 0b 22
        E 112 81 30 00
        E 0 91 34 22
        E 16 b1 0b 3b
        E 16 b1 0b 55
        E 32 b1 0b 3b
        E 16 b1 0b 22
        E 112 81 34 00
        E 0 91 2f 22
        E 16 b1 0b 3b
        E 16 b1 0b 55
        E 32 b1 0b 3b
        E 16 b1 0b 22
        E 112 81 2f 00
        E 0 91 34 22
        E 16 b1 0b 3b
        E 16 b1 0b 55
        E 32 b1 0b 3b
        E 16 b1 0b 22
        E 112 81 34 00
        E 0 91 2d 22
        E 16 b1 0b 3b
        E 16 b1 0b 55
        E 32 b1 0b 3b
        E 16 b1 0b 22
        E 112 81 2d 00
        E 0 91 34 22
        E 16 b1 0b 3b
        E 16 b1 0b 55
        E 32 b1 0b 3b
        E 16 b1 0b 22
        E 112 81 34 00
        E 0 91 2b 22
        E 16 b1 0b 3b
        E 16 b1 0b 55
        E 32 b1 0b 3b
        E 16 b1 0b 22
        E 112 81 2b 00
        E 0 91 34 22
        E 16 b1 0b 3b
        E 16 b1 0b 55
        E 32 b1 0b 3b
        E 16 b1 0b 22
        E 112 81 34 00
        E 0 91 2d 22
        E 16 b1 0b 3b
        E 16 b1 0b 55
        E 32 b1 0b 3b
        E 16 b1 0b 22
        E 112 81 2d 00
        E 0 91 36 22
        E 16 b1 0b 3b
        E 16 b1 0b 55
        E 32 b1 0b 3b
        E 16 b1 0b 22
        E 112 81 36 00
        E 0 91 32 22
        E 16 b1 0b 3b
        E 16 b1 0b 55
        E 32 b1 0b 3b
        E 16 b1 0b 22
        E 112 81 32 00
        E 0 91 36 22
        E 16 b1 0b 3b
        E 16 b1 0b 55
        E 32 b1 0b 3b
        E 16 b1 0b 22
        E 112 81 36 00
        E 0 91 2f 22
        E 16 b1 0b 3b
        E 16 b1 0b 55
        E 32 b1 0b 3b
        E 16 b1 0b 22
        E 112 81 2f 00
        E 0 91 37 22
        E 16 b1 0b 3b
        E 16 b1 0b 55
        E 32 b1 0b 3b
        E 16 b1 0b 22
        E 112 81 37 00
        E 0 91 36 22
        E 16 b1 0b 3b
        E 16 b1 0b 55
        E 32 b1 0b 3b
        E 16 b1 0b 22
        E 112 81 36 00
        E 0 91 37 22
        E 16 b1 0b 3b
        E 16 b1 0b 55
        E 32 b1 0b 3b
        E 16 b1 0b 22
        E 112 81 37 00
        E 0 91 34 22
        E 16 b1 0b 3b
        E 16 b1 0b 55
        E 32 b1 0b 3b
        E 16 b1 0b 22
        E 112 81 34 00
        E 0 91 37 22
        E 16 b1 0b 3b
        E 16 b1 0b 55
        E 32 b1 0b 3b
        E 16 b1 0b 22
        E 112 81 37 00
        E 0 91 32 22
        E 16 b1 0b 3b
        E 16 b1 0b 55
        E 32 b1 0b 3b
        E 16 b1 0b 22
        E 112 81 32 00
        E 0 91 37 22
        E 16 b1 0b 3b
        E 16 b1 0b 55
        E 32 b1 0b 3b
        E 16 b1 0b 22
        E 112 81 37 00
        E 0 91 2d 22
        E 16 b1 0b 3b
        E 16 b1 0b 55
        E 32 b1 0b 3b
        E 16 b1 0b 22
        E 112 81 2d 00
        E 0 91 36 22
        E 16 b1 0b 3b
        E 16 b1 0b 55
        E 32 b1 0b 3b
        E 16 b1 0b 22
        E 112 81 36 00
        E 0 91 34 22
        E 16 b1 0b 3b
        E 16 b1 0b 55
        E 32 b1 0b 3b
        E 16 b1 0b 22
        E 112 81 34 00
        E 0 91 36 22
        E 16 b1 0b 3b
        E 16 b1 0b 55
        E 32 b1 0b 3b
        E 16 b1 0b 22
        E 112 81 36 00
        E 0 91 32 22
        E 16 b1 0b 3b
        E 16 b1 0b 55
        E 32 b1 0b 3b
        E 16 b1 0b 22
        E 112 81 32 00
        E 0 91 36 22
        E 16 b1 0b 3b
        E 16 b1 0b 55
        E 32 b1 0b 3b
        E 16 b1 0b 22
        E 112 81 36 00
        E 0 91 30 22
        E 16 b1 0b 3b
        E 16 b1 0b 55
        E 32 b1 0b 3b
        E 16 b1 0b 22
        E 112 81 30 00
        E 0 91 36 22
        E 16 b1 0b 3b
        E 16 b1 0b 55
        E 32 b1 0b 3b
        E 16 b1 0b 22
        E 112 81 36 00
        E 0 91 2d 22
        E 16 b1 0b 3b
        E 16 b1 0b 55
        E 32 b1 0b 3b
        E 16 b1 0b 22
        E 112 81 2d 00
        E 0 91 34 22
        E 16 b1 0b 3b
        E 16 b1 0b 55
        E 32 b1 0b 3b
        E 16 b1 0b 22
        E 112 81 34 00
        E 0 91 32 22
        E 16 b1 0b 3b
        E 16 b1 0b 55
        E 32 b1 0b 3b
        E 16 b1 0b 22
        E 112 81 32 00
        E 0 91 34 22
        E 16 b1 0b 3b
        E 16 b1 0b 55
        E 32 b1 0b 3b
        E 16 b1 0b 22
        E 112 81 34 00
        E 0 91 31 22
        E 16 b1 0b 3b
        E 16 b1 0b 55
        E 32 b1 0b 3b
        E 16 b1 0b 22
        E 112 81 31 00
        E 0 91 34 22
        E 16 b1 0b 3b
        E 16 b1 0b 55
        E 32 b1 0b 3b
        E 16 b1 0b 22
        E 112 81 34 00
        E 0 91 2f 22
        E 16 b1 0b 3b
        E 16 b1 0b 55
        E 32 b1 0b 3b
        E 16 b1 0b 22
        E 112 81 2f 00
        E 0 91 34 22
        E 16 b1 0b 3b
        E 16 b1 0b 55
        E 32 b1 0b 3b
        E 16 b1 0b 22
        E 112 81 34 00
        E 0 91 2b 22
        E 16 b1 0b 3b
        E 16 b1 0b 55
        E 32 b1 0b 3b
        E 16 b1 0b 22
        E 112 81 2b 00
        E 0 91 34 22
        E 16 b1 0b 3b
        E 16 b1 0b 55
        E 32 b1 0b 3b
        E 16 b1 0b 22
        E 112 81 34 00
        E 0 91 30 22
        E 16 b1 0b 3b
        E 16 b1 0b 55
        E 32 b1 0b 3b
        E 16 b1 0b 22
        E 112 81 30 00
        E 0 91 34 22
        E 16 b1 0b 3b
        E 16 b1 0b 55
        E 32 b1 0b 3b
        E 16 b1 0b 22
        E 112 81 34 00
        E 0 91 2b 22
        E 16 b1 0b 3b
        E 16 b1 0b 55
        E 32 b1 0b 3b
        E 16 b1 0b 22
        E 112 81 2b 00
        E 0 91 34 22
        E 16 b1 0b 3b
        E 16 b1 0b 55
        E 32 b1 0b 3b
        E 16 b1 0b 22
        E 112 81 34 00
        E 0 91 30 22
        E 16 b1 0b 3b
        E 16 b1 0b 55
        E 32 b1 0b 3b
        E 16 b1 0b 22
        E 112 81 30 00
        E 0 91 34 22
        E 16 b1 0b 3b
        E 16 b1 0b 55
        E 32 b1 0b 3b
        E 16 b1 0b 22
        E 112 b1 0b 44
        E 0 81 34 00
        E 0 91 37 44
        E 16 b1 0b 3b
        E 16 b1 0b 2a
        E 16 b1 0b 22
        E 16 b1 0b 11
        E 16 81 37 00
        E 112 b1 0b 44
        E 0 91 3b 44
        E 16 b1 0b 3b
        E 16 b1 0b 2a
        E 16 b1 0b 22
        E 16 b1 0b 11
        E 16 81 3b 00
        E 112 b1 0b 44
        E 0 91 39 44
        E 16 b1 0b 3b
        E 16 b1 0b 2a
        E 16 b1 0b 22
        E 16 b1 0b 11
        E 16 81 39 00
        E 112 b1 0b 44
        E 0 91 3b 44
        E 16 b1 0b 3b
        E 16 b1 0b 2a
        E 16 b1 0b 22
        E 16 b1 0b 11
        E 16 81 3b 00
        E 304 b1 0b 44
        E 0 91 3b 44
        E 16 b1 0b 3b
        E 16 b1 0b 2a
        E 16 b1 0b 22
        E 16 b1 0b 11
        E 16 81 3b 00
        E 112 b1 0b 44
        E 0 91 39 44
        E 16 b1 0b 3b
        E 16 b1 0b 2a
        E 16 b1 0b 22
        E 16 b1 0b 11
        E 16 81 39 00
        E 112 b1 0b 44
        E 0 91 3b 44
        E 16 b1 0b 3b
        E 16 b1 0b 2a
        E 16 b1 0b 22
        E 16 b1 0b 11
        E 16 81 3b 00
        E 112 b1 0b 44
        E 0 91 36 44
        E 16 b1 0b 3b
        E 16 b1 0b 2a
        E 16 b1 0b 22
        E 16 b1 0b 11
        E 16 81 36 00
        E 112 b1 0b 44
        E 0 91 39 44
        E 16 b1 0b 3b
        E 16 b1 0b 2a
        E 16 b1 0b 22
        E 16 b1 0b 11
        E 16 81 39 00
        E 112 b1 0b 44
        E 0 91 37 44
        E 16 b1 0b 3b
        E 16 b1 0b 2a
        E 16 b1 0b 22
        E 16 b1 0b 11
        E 16 81 37 00
        E 112 b1 0b 44
        E 0 91 39 44
        E 16 b1 0b 3b
        E 16 b1 0b 2a
        E 16 b1 0b 22
        E 16 b1 0b 11
        E 16 81 39 00
        E 304 b1 0b 44
        E 0 91 39 44
        E 16 b1 0b 3b
        E 16 b1 0b 2a
        E 16 b1 0b 22
        E 16 b1 0b 11
        E 16 81 39 00
        E 112 b1 0b 44
        E 0 91 37 44
        E 16 b1 0b 3b
        E 16 b1 0b 2a
        E 16 b1 0b 22
        E 16 b1 0b 11
        E 16 81 37 00
        E 112 b1 0b 44
        E 0 91 39 44
        E 16 b1 0b 3b
        E 16 b1 0b 2a
        E 16 b1 0b 22
        E 16 b1 0b 11
        E 16 81 39 00
        E 112 b1 0b 44
        E 0 91 34 44
        E 16 b1 0b 3b
        E 16 b1 0b 2a
        E 16 b1 0b 22
        E 16 b1 0b 11
        E 16 81 34 00
        E 112 b1 0b 44
        E 0 91 37 44
        E 16 b1 0b 3b
        E 16 b1 0b 2a
        E 16 b1 0b 22
        E 16 b1 0b 11
        E 16 81 37 00
        E 112 b1 0b 44
        E 0 91 36 44
        E 16 b1 0b 3b
        E 16 b1 0b 2a
        E 16 b1 0b 22
        E 16 b1 0b 11
        E 16 81 36 00
        E 112 b1 0b 44
        E 0 91 37 44
        E 16 b1 0b 3b
        E 16 b1 0b 2a
        E 16 b1 0b 22
        E 16 b1 0b 11
        E 16 81 37 00
        E 304 b1 0b 44
        E 0 91 37 44
        E 16 b1 0b 3b
        E 16 b1 0b 2a
        E 16 b1 0b 22
        E 16 b1 0b 11
        E 16 81 37 00
        E 112 b1 0b 44
        E 0 91 36 44
        E 16 b1 0b 3b
        E 16 b1 0b 2a
        E 16 b1 0b 22
        E 16 b1 0b 11
        E 16 81 36 00
        E 112 b1 0b 44
        E 0 91 37 44
        E 16 b1 0b 3b
        E 16 b1 0b 2a
        E 16 b1 0b 22
        E 16 b1 0b 11
        E 16 81 37 00
        E 112 b1 0b 44
        E 0 91 32 44
        E 16 b1 0b 3b
        E 16 b1 0b 2a
        E 16 b1 0b 22
        E 16 b1 0b 11
        E 16 81 32 00
        E 112 b1 0b 44
        E 0 91 36 44
        E 16 b1 0b 3b
        E 16 b1 0b 2a
        E 16 b1 0b 22
        E 16 b1 0b 11
        E 16 81 36 00
        E 112 b1 0b 44
        E 0 91 34 44
        E 16 b1 0b 3b
        E 16 b1 0b 2a
        E 16 b1 0b 22
        E 16 b1 0b 11
        E 16 81 34 00
        E 112 b1 0b 44
        E 0 91 36 44
        E 16 b1 0b 3b
        E 16 b1 0b 2a
        E 16 b1 0b 22
        E 16 b1 0b 11
        E 16 81 36 00
        E 304 b1 0b 44
        E 0 91 36 44
        E 16 b1 0b 3b
        E 16 b1 0b 2a
        E 16 b1 0b 22
        E 16 b1 0b 11
        E 16 81 36 00
        E 112 b1 0b 44
        E 0 91 34 44
        E 16 b1 0b 3b
        E 16 b1 0b 2a
        E 16 b1 0b 22
        E 16 b1 0b 11
        E 16 81 34 00
        E 112 b1 0b 44
        E 0 91 36 44
        E 16 b1 0b 3b
        E 16 b1 0b 2a
        E 16 b1 0b 22
        E 16 b1 0b 11
        E 16 81 36 00
        E 112 b1 0b 44
        E 0 91 34 44
        E 16 b1 0b 3b
        E 16 b1 0b 2a
        E 16 b1 0b 22
        E 16 b1 0b 11
        E 16 81 34 00
        E 112 b1 0b 44
        E 0 91 37 44
        E 16 b1 0b 3b
        E 16 b1 0b 2a
        E 16 b1 0b 22
        E 16 b1 0b 11
        E 16 81 37 00
        E 112 b1 0b 44
        E 0 91 36 44
        E 16 b1 0b 3b
        E 16 b1 0b 2a
        E 16 b1 0b 22
        E 16 b1 0b 11
        E 16 81 36 00
        E 112 b1 0b 44
        E 0 91 37 44
        E 16 b1 0b 3b
        E 16 b1 0b 2a
        E 16 b1 0b 22
        E 16 b1 0b 11
        E 16 81 37 00
        E 304 b1 0b 44
        E 0 91 37 44
        E 16 b1 0b 3b
        E 16 b1 0b 2a
        E 16 b1 0b 22
        E 16 b1 0b 11
        E 16 81 37 00
        E 112 b1 0b 44
        E 0 91 36 44
        E 16 b1 0b 3b
        E 16 b1 0b 2a
        E 16 b1 0b 22
        E 16 b1 0b 11
        E 16 81 36 00
        E 112 b1 0b 44
        E 0 91 37 44
        E 16 b1 0b 3b
        E 16 b1 0b 2a
        E 16 b1 0b 22
        E 16 b1 0b 11
        E 16 81 37 00
        E 112 b1 0b 44
        E 0 91 39 44
        E 16 b1 0b 3b
        E 16 b1 0b 2a
        E 16 b1 0b 22
        E 16 b1 0b 11
        E 16 81 39 00
        E 112 b1 0b 44
        E 0 91 3c 44
        E 16 b1 0b 3b
        E 16 b1 0b 2a
        E 16 b1 0b 22
        E 16 b1 0b 11
        E 16 81 3c 00
        E 112 b1 0b 44
        E 0 91 3b 44
        E 16 b1 0b 3b
        E 16 b1 0b 2a
        E 16 b1 0b 22
        E 16 b1 0b 11
        E 16 81 3b 00
        E 112 b1 0b 44
        E 0 91 3c 44
        E 16 b1 0b 3b
        E 16 b1 0b 2a
        E 16 b1 0b 22
        E 16 b1 0b 11
        E 16 81 3c 00
        E 304 b1 0b 44
        E 0 91 3c 44
        E 16 b1 0b 3b
        E 16 b1 0b 2a
        E 16 b1 0b 22
        E 16 b1 0b 11
        E 16 81 3c 00
        E 112 b1 0b 44
        E 0 91 3b 44
        E 16 b1 0b 3b
        E 16 b1 0b 2a
        E 16 b1 0b 22
        E 16 b1 0b 11
        E 16 81 3b 00
        E 112 b1 0b 44
        E 0 91 3c 44
        E 16 b1 0b 3b
        E 16 b1 0b 2a
        E 16 b1 0b 22
        E 16 b1 0b 11
        E 16 81 3c 00
        E 112 b1 0b 44
        E 0 91 2d 44
        E 16 b1 0b 2a
        E 16 b1 0b 11
        E 32 b1 0b 2a
        E 16 b1 0b 44
        E 112 81 2d 00
        E 0 91 39 44
        E 16 b1 0b 3b
        E 16 b1 0b 2a
        E 16 b1 0b 22
        E 16 b1 0b 11
        E 16 81 39 00
        E 112 b1 0b 44
        E 0 91 37 44
        E 16 b1 0b 3b
        E 16 b1 0b 2a
        E 16 b1 0b 22
        E 16 b1 0b 11
        E 16 81 37 00
        E 112 b1 0b 44
        E 0 91 2d 44
        E 16 b1 0b 3b
        E 16 b1 0b 2a
        E 16 b1 0b 22
        E 16 b1 0b 11
        E 16 81 2d 00
        E 112 b1 0b 44
        E 0 91 39 44
        E 16 b1 0b 3b
        E 16 b1 0b 2a
        E 16 b1 0b 22
        E 16 b1 0b 11
        E 16 81 39 00
        E 112 b1 0b 44
        E 0 91 37 44
        E 16 b1 0b 3b
        E 16 b1 0b 2a
        E 16 b1 0b 22
        E 16 b1 0b 11
        E 16 b1 0b 08
        E 16 b1 0b 11
        E 16 b1 0b 19
        E 16 b1 0b 2a
        E 16 b1 0b 33
        E 16 b1 0b 44
        E 224 81 37 00
        E 0 91 39 44
        E 16 b1 0b 3b
        E 16 b1 0b 2a
        E 16 b1 0b 22
        E 16 b1 0b 11
        E 16 81 39 00
        E 112 b1 0b 44
        E 0 91 32 44
        E 16 b1 0b 2a
        E 16 b1 0b 11
        E 32 b1 0b 2a
        E 16 b1 0b 44
        E 112 81 32 00
        E 0 91 3e 44
        E 16 b1 0b 3b
        E 16 b1 0b 2a
        E 16 b1 0b 22
        E 16 b1 0b 11
        E 16 81 3e 00
        E 112 b1 0b 44
        E 0 91 3c 44
        E 16 b1 0b 3b
        E 16 b1 0b 2a
        E 16 b1 0b 22
        E 16 b1 0b 11
        E 16 81 3c 00
        E 112 b1 0b 44
        E 0 91 32 44
        E 16 b1 0b 3b
        E 16 b1 0b 2a
        E 16 b1 0b 22
        E 16 b1 0b 11
        E 16 81 32 00
        E 112 b1 0b 44
        E 0 91 3e 44
        E 16 b1 0b 3b
        E 16 b1 0b 2a
        E 16 b1 0b 22
        E 16 b1 0b 11
        E 16 81 3e 00
        E 16 b1 0b 44
        E 0 91 3e 44
        E 96 81 3e 00
        E 0 91 3c 44
        E 16 b1 0b 3b
        E 16 b1 0b 2a
        E 16 b1 0b 22
        E 16 b1 0b 11
        E 16 b1 0b 08
        E 16 b1 0b 11
        E 16 b1 0b 19
        E 16 b1 0b 2a
        E 16 b1 0b 33
        E 16 b1 0b 44
        E 224 81 3c 00
        E 0 91 3e 44
        E 16 b1 0b 3b
        E 16 b1 0b 2a
        E 16 b1 0b 22
        E 16 b1 0b 11
        E 16 81 3e 00
        E 112 b1 0b 22
        E 0 91 2f 22
        E 16 b1 0b 3b
        E 16 b1 0b 55
        E 32 b1 0b 3b
        E 16 b1 0b 22
        E 112 81 2f 00
        E 0 91 37 22
        E 16 b1 0b 3b
        E 16 b1 0b 55
        E 32 b1 0b 3b
        E 16 b1 0b 22
        E 112 81 37 00
        E 0 91 36 22
        E 16 b1 0b 3b
        E 16 b1 0b 55
        E 32 b1 0b 3b
        E 16 b1 0b 22
        E 112 81 36 00
        E 0 91 37 22
        E 16 b1 0b 3b
        E 16 b1 0b 55
        E 32 b1 0b 3b
        E 16 b1 0b 22
        E 112 81 37 00
        E 0 91 34 22
        E 16 b1 0b 3b
        E 16 b1 0b 55
        E 32 b1 0b 3b
        E 16 b1 0b 22
        E 112 81 34 00
        E 0 91 37 22
        E 16 b1 0b 3b
        E 16 b1 0b 55
        E 32 b1 0b 3b
        E 16 b1 0b 22
        E 112 81 37 00
        E 0 91 32 22
        E 16 b1 0b 3b
        E 16 b1 0b 55
        E 32 b1 0b 3b
        E 16 b1 0b 22
        E 112 81 32 00
        E 0 91 37 22
        E 16 b1 0b 3b
        E 16 b1 0b 55
        E 32 b1 0b 3b
        E 16 b1 0b 22
        E 112 81 37 00
        E 0 91 2d 22
        E 16 b1 0b 3b
        E 16 b1 0b 55
        E 32 b1 0b 3b
        E 16 b1 0b 22
        E 112 81 2d 00
        E 0 91 36 22
        E 16 b1 0b 3b
        E 16 b1 0b 55
        E 32 b1 0b 3b
        E 16 b1 0b 22
        E 112 81 36 00
        E 0 91 34 22
        E 16 b1 0b 3b
        E 16 b1 0b 55
        E 32 b1 0b 3b
        E 16 b1 0b 22
        E 112 81 34 00
        E 0 91 36 22
        E 16 b1 0b 3b
        E 16 b1 0b 55
        E 32 b1 0b 3b
        E 16 b1 0b 22
        E 112 81 36 00
        E 0 91 32 22
        E 16 b1 0b 3b
        E 16 b1 0b 55
        E 32 b1 0b 3b
        E 16 b1 0b 22
        E 112 81 32 00
        E 0 91 36 22
        E 16 b1 0b 3b
        E 16 b1 0b 55
        E 32 b1 0b 3b
        E 16 b1 0b 22
        E 112 81 36 00
        E 0 91 30 22
        E 16 b1 0b 3b
        E 16 b1 0b 55
        E 32 b1 0b 3b
        E 16 b1 0b 22
        E 112 81 30 00
        E 0 91 36 22
        E 16 b1 0b 3b
        E 16 b1 0b 55
        E 32 b1 0b 3b
        E 16 b1 0b 22
        E 112 81 36 00
        E 0 91 2b 22
        E 16 b1 0b 3b
        E 16 b1 0b 55
        E 32 b1 0b 3b
        E 16 b1 0b 22
        E 112 81 2b 00
        E 0 91 34 22
        E 16 b1 0b 3b
        E 16 b1 0b 55
        E 32 b1 0b 3b
        E 16 b1 0b 22
        E 112 81 34 00
        E 0 91 32 22
        E 16 b1 0b 3b
        E 16 b1 0b 55
        E 32 b1 0b 3b
        E 16 b1 0b 22
        E 112 81 32 00
        E 0 91 34 22
        E 16 b1 0b 3b
        E 16 b1 0b 55
        E 32 b1 0b 3b
        E 16 b1 0b 22
        E 112 81 34 00
        E 0 91 30 22
        E 16 b1 0b 3b
        E 16 b1 0b 55
        E 32 b1 0b 3b
        E 16 b1 0b 22
        E 112 81 30 00
        E 0 91 34 22
        E 16 b1 0b 3b
        E 16 b1 0b 55
        E 32 b1 0b 3b
        E 16 b1 0b 22
        E 112 81 34 00
        E 0 91 2f 22
        E 16 b1 0b 3b
        E 16 b1 0b 55
        E 32 b1 0b 3b
        E 16 b1 0b 22
        E 112 81 2f 00
        E 0 91 34 22
        E 16 b1 0b 3b
        E 16 b1 0b 55
        E 32 b1 0b 3b
        E 16 b1 0b 22
        E 112 81 34 00
        E 0 91 2d 22
        E 16 b1 0b 3b
        E 16 b1 0b 55
        E 32 b1 0b 3b
        E 16 b1 0b 22
        E 112 81 2d 00
        E 0 91 34 22
        E 16 b1 0b 3b
        E 16 b1 0b 55
        E 32 b1 0b 3b
        E 16 b1 0b 22
        E 112 81 34 00
        E 0 91 2b 22
        E 16 b1 0b 3b
        E 16 b1 0b 55
        E 32 b1 0b 3b
        E 16 b1 0b 22
        E 112 81 2b 00
        E 0 91 34 22
        E 16 b1 0b 3b
        E 16 b1 0b 55
        E 32 b1 0b 3b
        E 16 b1 0b 22
        E 112 81 34 00
        E 0 91 2d 22
        E 16 b1 0b 3b
        E 16 b1 0b 55
        E 32 b1 0b 3b
        E 16 b1 0b 22
        E 112 81 2d 00
        E 0 91 36 22
        E 16 b1 0b 3b
        E 16 b1 0b 55
        E 32 b1 0b 3b
        E 16 b1 0b 22
        E 112 81 36 00
        E 0 91 32 22
        E 16 b1 0b 3b
        E 16 b1 0b 55
        E 32 b1 0b 3b
        E 16 b1 0b 22
        E 112 81 32 00
        E 0 91 36 22
        E 16 b1 0b 3b
        E 16 b1 0b 55
        E 32 b1 0b 3b
        E 16 b1 0b 22
        E 112 81 36 00
        E 0 91 2f 22
        E 16 b1 0b 3b
        E 16 b1 0b 55
        E 32 b1 0b 3b
        E 16 b1 0b 22
        E 112 81 2f 00
        E 0 91 37 22
        E 16 b1 0b 3b
        E 16 b1 0b 55
        E 32 b1 0b 3b
        E 16 b1 0b 22
        E 112 81 37 00
        E 0 91 36 22
        E 16 b1 0b 3b
        E 16 b1 0b 55
        E 32 b1 0b 3b
        E 16 b1 0b 22
        E 112 81 36 00
        E 0 91 37 22
        E 16 b1 0b 3b
        E 16 b1 0b 55
        E 32 b1 0b 3b
        E 16 b1 0b 22
        E 112 81 37 00
        E 0 91 34 22
        E 16 b1 0b 3b
        E 16 b1 0b 55
        E 32 b1 0b 3b
        E 16 b1 0b 22
        E 112 81 34 00
        E 0 91 37 22
        E 16 b1 0b 3b
        E 16 b1 0b 55
        E 32 b1 0b 3b
        E 16 b1 0b 22
        E 112 81 37 00
        E 0 91 32 22
        E 16 b1 0b 3b
        E 16 b1 0b 55
        E 32 b1 0b 3b
        E 16 b1 0b 22
        E 112 81 32 00
        E 0 91 37 22
        E 16 b1 0b 3b
        E 16 b1 0b 55
        E 32 b1 0b 3b
        E 16 b1 0b 22
        E 112 81 37 00
        E 0 91 2d 22
        E 16 b1 0b 3b
        E 16 b1 0b 55
        E 32 b1 0b 3b
        E 16 b1 0b 22
        E 112 81 2d 00
        E 0 91 36 22
        E 16 b1 0b 3b
        E 16 b1 0b 55
        E 32 b1 0b 3b
        E 16 b1 0b 22
        E 112 81 36 00
        E 0 91 34 22
        E 16 b1 0b 3b
        E 16 b1 0b 55
        E 32 b1 0b 3b
        E 16 b1 0b 22
        E 112 81 34 00
        E 0 91 36 22
        E 16 b1 0b 3b
        E 16 b1 0b 55
        E 32 b1 0b 3b
        E 16 b1 0b 22
        E 112 81 36 00
        E 0 91 32 22
        E 16 b1 0b 3b
        E 16 b1 0b 55
        E 32 b1 0b 3b
        E 16 b1 0b 22
        E 112 81 32 00
        E 0 91 36 22
        E 16 b1 0b 3b
        E 16 b1 0b 55
        E 32 b1 0b 3b
        E 16 b1 0b 22
        E 112 81 36 00
        E 0 91 30 22
        E 16 b1 0b 3b
        E 16 b1 0b 55
        E 32 b1 0b 3b
        E 16 b1 0b 22
        E 112 81 30 00
        E 0 91 36 22
        E 16 b1 0b 3b
        E 16 b1 0b 55
        E 32 b1 0b 3b
        E 16 b1 0b 22
        E 112 81 36 00
        E 0 91 2d 22
        E 16 b1 0b 3b
        E 16 b1 0b 55
        E 32 b1 0b 3b
        E 16 b1 0b 22
        E 112 81 2d 00
        E 0 91 34 22
        E 16 b1 0b 3b
        E 16 b1 0b 55
        E 32 b1 0b 3b
        E 16 b1 0b 22
        E 112 81 34 00
        E 0 91 32 22
        E 16 b1 0b 3b
        E 16 b1 0b 55
        E 32 b1 0b 3b
        E 16 b1 0b 22
        E 112 81 32 00
        E 0 91 34 22
        E 16 b1 0b 3b
        E 16 b1 0b 55
        E 32 b1 0b 3b
        E 16 b1 0b 22
        E 112 81 34 00
        E 0 91 31 22
        E 16 b1 0b 3b
        E 16 b1 0b 55
        E 32 b1 0b 3b
        E 16 b1 0b 22
        E 112 81 31 00
        E 0 91 34 22
        E 16 b1 0b 3b
        E 16 b1 0b 55
        E 32 b1 0b 3b
        E 16 b1 0b 22
        E 112 81 34 00
        E 0 91 2f 22
        E 16 b1 0b 3b
        E 16 b1 0b 55
        E 32 b1 0b 3b
        E 16 b1 0b 22
        E 112 81 2f 00
        E 0 91 34 22
        E 16 b1 0b 3b
        E 16 b1 0b 55
        E 32 b1 0b 3b
        E 16 b1 0b 22
        E 112 81 34 00
        E 0 91 2b 22
        E 16 b1 0b 3b
        E 16 b1 0b 55
        E 32 b1 0b 3b
        E 16 b1 0b 22
        E 112 81 2b 00
        E 0 91 34 22
        E 16 b1 0b 3b
        E 16 b1 0b 55
        E 32 b1 0b 3b
        E 16 b1 0b 22
        E 112 81 34 00
        E 0 91 30 22
        E 16 b1 0b 3b
        E 16 b1 0b 55
        E 32 b1 0b 3b
        E 16 b1 0b 22
        E 112 81 30 00
        E 0 91 34 22
        E 16 b1 0b 3b
        E 16 b1 0b 55
        E 32 b1 0b 3b
        E 16 b1 0b 22
        E 112 81 34 00
        E 0 91 2b 22
        E 16 b1 0b 3b
        E 16 b1 0b 55
        E 32 b1 0b 3b
        E 16 b1 0b 22
        E 112 81 2b 00
        E 0 91 34 22
        E 16 b1 0b 3b
        E 16 b1 0b 55
        E 32 b1 0b 3b
        E 16 b1 0b 22
        E 112 81 34 00
        E 0 91 30 22
        E 16 b1 0b 3b
        E 16 b1 0b 55
        E 32 b1 0b 3b
        E 16 b1 0b 22
        E 112 81 30 00
        E 0 91 34 22
        E 16 b1 0b 3b
        E 16 b1 0b 55
        E 32 b1 0b 3b
        E 16 b1 0b 22
        E 112 b1 0b 44
        E 0 81 34 00
        E 0 91 37 44
        E 16 b1 0b 3b
        E 16 b1 0b 2a
        E 16 b1 0b 22
        E 16 b1 0b 11
        E 16 81 37 00
        E 112 b1 0b 44
        E 0 91 3b 44
        E 16 b1 0b 3b
        E 16 b1 0b 2a
        E 16 b1 0b 22
        E 16 b1 0b 11
        E 16 81 3b 00
        E 112 b1 0b 44
        E 0 91 39 44
        E 16 b1 0b 3b
        E 16 b1 0b 2a
        E 16 b1 0b 22
        E 16 b1 0b 11
        E 16 81 39 00
        E 112 b1 0b 44
        E 0 91 3b 44
        E 16 b1 0b 3b
        E 16 b1 0b 2a
        E 16 b1 0b 22
        E 16 b1 0b 11
        E 16 81 3b 00
        E 304 b1 0b 44
        E 0 91 3b 44
        E 16 b1 0b 3b
        E 16 b1 0b 2a
        E 16 b1 0b 22
        E 16 b1 0b 11
        E 16 81 3b 00
        E 112 b1 0b 44
        E 0 91 39 44
        E 16 b1 0b 3b
        E 16 b1 0b 2a
        E 16 b1 0b 22
        E 16 b1 0b 11
        E 16 81 39 00
        E 112 b1 0b 44
        E 0 91 3b 44
        E 16 b1 0b 3b
        E 16 b1 0b 2a
        E 16 b1 0b 22
        E 16 b1 0b 11
        E 16 81 3b 00
        E 112 b1 0b 44
        E 0 91 36 44
        E 16 b1 0b 3b
        E 16 b1 0b 2a
        E 16 b1 0b 22
        E 16 b1 0b 11
        E 16 81 36 00
        E 112 b1 0b 44
        E 0 91 39 44
        E 16 b1 0b 3b
        E 16 b1 0b 2a
        E 16 b1 0b 22
        E 16 b1 0b 11
        E 16 81 39 00
        E 112 b1 0b 44
        E 0 91 37 44
        E 16 b1 0b 3b
        E 16 b1 0b 2a
        E 16 b1 0b 22
        E 16 b1 0b 11
        E 16 81 37 00
        E 112 b1 0b 44
        E 0 91 39 44
        E 16 b1 0b 3b
        E 16 b1 0b 2a
        E 16 b1 0b 22
        E 16 b1 0b 11
        E 16 81 39 00
        E 304 b1 0b 44
        E 0 91 39 44
        E 16 b1 0b 3b
        E 16 b1 0b 2a
        E 16 b1 0b 22
        E 16 b1 0b 11
        E 16 81 39 00
        E 112 b1 0b 44
        E 0 91 37 44
        E 16 b1 0b 3b
        E 16 b1 0b 2a
        E 16 b1 0b 22
        E 16 b1 0b 11
        E 16 81 37 00
        E 112 b1 0b 44
        E 0 91 39 44
        E 16 b1 0b 3b
        E 16 b1 0b 2a
        E 16 b1 0b 22
        E 16 b1 0b 11
        E 16 81 39 00
        E 112 b1 0b 44
        E 0 91 34 44
        E 16 b1 0b 3b
        E 16 b1 0b 2a
        E 16 b1 0b 22
        E 16 b1 0b 11
        E 16 81 34 00
        E 112 b1 0b 44
        E 0 91 37 44
        E 16 b1 0b 3b
        E 16 b1 0b 2a
        E 16 b1 0b 22
        E 16 b1 0b 11
        E 16 81 37 00
        E 112 b1 0b 44
        E 0 91 36 44
        E 16 b1 0b 3b
        E 16 b1 0b 2a
        E 16 b1 0b 22
        E 16 b1 0b 11
        E 16 81 36 00
        E 112 b1 0b 44
        E 0 91 37 44
        E 16 b1 0b 3b
        E 16 b1 0b 2a
        E 16 b1 0b 22
        E 16 b1 0b 11
        E 16 81 37 00
        E 304 b1 0b 44
        E 0 91 37 44
        E 16 b1 0b 3b
        E 16 b1 0b 2a
        E 16 b1 0b 22
        E 16 b1 0b 11
        E 16 81 37 00
        E 112 b1 0b 44
        E 0 91 36 44
        E 16 b1 0b 3b
        E 16 b1 0b 2a
        E 16 b1 0b 22
        E 16 b1 0b 11
        E 16 81 36 00
        E 112 b1 0b 44
        E 0 91 37 44
        E 16 b1 0b 3b
        E 16 b1 0b 2a
        E 16 b1 0b 22
        E 16 b1 0b 11
        E 16 81 37 00
        E 112 b1 0b 44
        E 0 91 32 44
        E 16 b1 0b 3b
        E 16 b1 0b 2a
        E 16 b1 0b 22
        E 16 b1 0b 11
        E 16 81 32 00
        E 112 b1 0b 44
        E 0 91 36 44
        E 16 b1 0b 3b
        E 16 b1 0b 2a
        E 16 b1 0b 22
        E 16 b1 0b 11
        E 16 81 36 00
        E 112 b1 0b 44
        E 0 91 34 44
        E 16 b1 0b 3b
        E 16 b1 0b 2a
        E 16 b1 0b 22
        E 16 b1 0b 11
        E 16 81 34 00
        E 112 b1 0b 44
        E 0 91 36 44
        E 16 b1 0b 3b
        E 16 b1 0b 2a
        E 16 b1 0b 22
        E 16 b1 0b 11
        E 16 81 36 00
        E 304 b1 0b 44
        E 0 91 36 44
        E 16 b1 0b 3b
        E 16 b1 0b 2a
        E 16 b1 0b 22
        E 16 b1 0b 11
        E 16 81 36 00
        E 112 b1 0b 44
        E 0 91 34 44
        E 16 b1 0b 3b
        E 16 b1 0b 2a
        E 16 b1 0b 22
        E 16 b1 0b 11
        E 16 81 34 00
        E 112 b1 0b 44
        E 0 91 36 44
        E 16 b1 0b 3b
        E 16 b1 0b 2a
        E 16 b1 0b 22
        E 16 b1 0b 11
        E 16 81 36 00
        E 112 b1 0b 44
        E 0 91 34 44
        E 16 b1 0b 3b
        E 16 b1 0b 2a
        E 16 b1 0b 22
        E 16 b1 0b 11
        E 16 81 34 00
        E 112 b1 0b 44
        E 0 91 37 44
        E 16 b1 0b 3b
        E 16 b1 0b 2a
        E 16 b1 0b 22
        E 16 b1 0b 11
        E 16 81 37 00
        E 112 b1 0b 44
        E 0 91 36 44
        E 16 b1 0b 3b
        E 16 b1 0b 2a
        E 16 b1 0b 22
        E 16 b1 0b 11
        E 16 81 36 00
        E 112 b1 0b 44
        E 0 91 37 44
        E 16 b1 0b 3b
        E 16 b1 0b 2a
        E 16 b1 0b 22
        E 16 b1 0b 11
        E 16 81 37 00
        E 304 b1 0b 44
        E 0 91 37 44
        E 16 b1 0b 3b
        E 16 b1 0b 2a
        E 16 b1 0b 22
        E 16 b1 0b 11
        E 16 81 37 00
        E 112 b1 0b 44
        E 0 91 36 44
        E 16 b1 0b 3b
        E 16 b1 0b 2a
        E 16 b1 0b 22
        E 16 b1 0b 11
        E 16 81 36 00
        E 112 b1 0b 44
        E 0 91 37 44
        E 16 b1 0b 3b
        E 16 b1 0b 2a
        E 16 b1 0b 22
        E 16 b1 0b 11
        E 16 81 37 00
        E 112 b1 0b 44
        E 0 91 39 44
        E 16 b1 0b 3b
        E 16 b1 0b 2a
        E 16 b1 0b 22
        E 16 b1 0b 11
        E 16 81 39 00
        E 112 b1 0b 44
        E 0 91 3c 44
        E 16 b1 0b 3b
        E 16 b1 0b 2a
        E 16 b1 0b 22
        E 16 b1 0b 11
        E 16 81 3c 00
        E 112 b1 0b 44
        E 0 91 3b 44
        E 16 b1 0b 3b
        E 16 b1 0b 2a
        E 16 b1 0b 22
        E 16 b1 0b 11
        E 16 81 3b 00
        E 112 b1 0b 44
        E 0 91 3c 44
        E 16 b1 0b 3b
        E 16 b1 0b 2a
        E 16 b1 0b 22
        E 16 b1 0b 11
        E 16 81 3c 00
        E 304 b1 0b 44
        E 0 91 3c 44
        E 16 b1 0b 3b
        E 16 b1 0b 2a
        E 16 b1 0b 22
        E 16 b1 0b 11
        E 16 81 3c 00
        E 112 b1 0b 44
        E 0 91 3b 44
        E 16 b1 0b 3b
        E 16 b1 0b 2a
        E 16 b1 0b 22
        E 16 b1 0b 11
        E 16 81 3b 00
        E 112 b1 0b 44
        E 0 91 3c 44
        E 16 b1 0b 3b
        E 16 b1 0b 2a
        E 16 b1 0b 22
        E 16 b1 0b 11
        E 16 81 3c 00
        E 112 b1 0b 44
        E 0 91 2d 44
        E 16 b1 0b 2a
        E 16 b1 0b 11
        E 32 b1 0b 2a
        E 16 b1 0b 44
        E 112 81 2d 00
        E 0 91 39 44
        E 16 b1 0b 3b
        E 16 b1 0b 2a
        E 16 b1 0b 22
        E 16 b1 0b 11
        E 16 81 39 00
        E 112 b1 0b 44
        E 0 91 37 44
        E 16 b1 0b 3b
        E 16 b1 0b 2a
        E 16 b1 0b 22
        E 16 b1 0b 11
        E 16 81 37 00
        E 112 b1 0b 44
        E 0 91 2d 44
        E 16 b1 0b 3b
        E 16 b1 0b 2a
        E 16 b1 0b 22
        E 16 b1 0b 11
        E 16 81 2d 00
        E 112 b1 0b 44
        E 0 91 39 44
        E 16 b1 0b 3b
        E 16 b1 0b 2a
        E 16 b1 0b 22
        E 16 b1 0b 11
        E 16 81 39 00
        E 112 b1 0b 44
        E 0 91 37 44
        E 16 b1 0b 3b
        E 16 b1 0b 2a
        E 16 b1 0b 22
        E 16 b1 0b 11
        E 16 b1 0b 08
        E 16 b1 0b 11
        E 16 b1 0b 19
        E 16 b1 0b 2a
        E 16 b1 0b 33
        E 16 b1 0b 44
        E 224 81 37 00
        E 0 91 39 44
        E 16 b1 0b 3b
        E 16 b1 0b 2a
        E 16 b1 0b 22
        E 16 b1 0b 11
        E 16 81 39 00
        E 112 b1 0b 44
        E 0 91 32 44
        E 16 b1 0b 2a
        E 16 b1 0b 11
        E 32 b1 0b 2a
        E 16 b1 0b 44
        E 112 81 32 00
        E 0 91 3e 44
        E 16 b1 0b 3b
        E 16 b1 0b 2a
        E 16 b1 0b 22
        E 16 b1 0b 11
        E 16 81 3e 00
        E 112 b1 0b 44
        E 0 91 3c 44
        E 16 b1 0b 3b
        E 16 b1 0b 2a
        E 16 b1 0b 22
        E 16 b1 0b 11
        E 16 81 3c 00
        E 112 b1 0b 44
        E 0 91 32 44
        E 16 b1 0b 3b
        E 16 b1 0b 2a
        E 16 b1 0b 22
        E 16 b1 0b 11
        E 16 81 32 00
        E 112 b1 0b 44
        E 0 91 3e 44
        E 16 b1 0b 3b
        E 16 b1 0b 2a
        E 16 b1 0b 22
        E 16 b1 0b 11
        E 16 81 3e 00
        E 16 b1 0b 44
        E 0 91 3e 44
        E 96 81 3e 00
        E 0 91 3c 44
        E 16 b1 0b 3b
        E 16 b1 0b 2a
        E 16 b1 0b 22
        E 16 b1 0b 11
        E 16 b1 0b 08
        E 16 b1 0b 11
        E 16 b1 0b 19
        E 16 b1 0b 2a
        E 16 b1 0b 33
        E 16 b1 0b 44
        E 224 81 3c 00
        E 0 91 3e 44
        E 16 b1 0b 3b
        E 16 b1 0b 2a
        E 16 b1 0b 22
        E 16 b1 0b 11
        E 16 81 3e 00
        E 112 b1 0b 22
        E 0 91 2f 22
        E 16 b1 0b 3b
        E 16 b1 0b 55
        E 32 b1 0b 3b
        E 16 b1 0b 22
        E 112 81 2f 00
        E 0 91 37 22
        E 16 b1 0b 3b
        E 16 b1 0b 55
        E 32 b1 0b 3b
        E 16 b1 0b 22
        E 112 81 37 00
        E 0 91 36 22
        E 16 b1 0b 3b
        E 16 b1 0b 55
        E 32 b1 0b 3b
        E 16 b1 0b 22
        E 112 81 36 00
        E 0 91 37 22
        E 16 b1 0b 3b
        E 16 b1 0b 55
        E 32 b1 0b 3b
        E 16 b1 0b 22
        E 112 81 37 00
        E 0 91 34 22
        E 16 b1 0b 3b
        E 16 b1 0b 55
        E 32 b1 0b 3b
        E 16 b1 0b 22
        E 112 81 34 00
        E 0 91 37 22
        E 16 b1 0b 3b
        E 16 b1 0b 55
        E 32 b1 0b 3b
        E 16 b1 0b 22
        E 112 81 37 00
        E 0 91 32 22
        E 16 b1 0b 3b
        E 16 b1 0b 55
        E 32 b1 0b 3b
        E 16 b1 0b 22
        E 112 81 32 00
        E 0 91 37 22
        E 16 b1 0b 3b
        E 16 b1 0b 55
        E 32 b1 0b 3b
        E 16 b1 0b 22
        E 112 81 37 00
        E 0 91 2d 22
        E 16 b1 0b 3b
        E 16 b1 0b 55
        E 32 b1 0b 3b
        E 16 b1 0b 22
        E 112 81 2d 00
        E 0 91 36 22
        E 16 b1 0b 3b
        E 16 b1 0b 55
        E 32 b1 0b 3b
        E 16 b1 0b 22
        E 112 81 36 00
        E 0 91 34 22
        E 16 b1 0b 3b
        E 16 b1 0b 55
        E 32 b1 0b 3b
        E 16 b1 0b 22
        E 112 81 34 00
        E 0 91 36 22
        E 16 b1 0b 3b
        E 16 b1 0b 55
        E 32 b1 0b 3b
        E 16 b1 0b 22
        E 112 81 36 00
        E 0 91 32 22
        E 16 b1 0b 3b
        E 16 b1 0b 55
        E 32 b1 0b 3b
        E 16 b1 0b 22
        E 112 81 32 00
        E 0 91 36 22
        E 16 b1 0b 3b
        E 16 b1 0b 55
        E 32 b1 0b 3b
        E 16 b1 0b 22
        E 112 81 36 00
        E 0 91 30 22
        E 16 b1 0b 3b
        E 16 b1 0b 55
        E 32 b1 0b 3b
        E 16 b1 0b 22
        E 112 81 30 00
        E 0 91 36 22
        E 16 b1 0b 3b
        E 16 b1 0b 55
        E 32 b1 0b 3b
        E 16 b1 0b 22
        E 112 81 36 00
        E 0 91 2b 22
        E 16 b1 0b 3b
        E 16 b1 0b 55
        E 32 b1 0b 3b
        E 16 b1 0b 22
        E 112 81 2b 00
        E 0 91 34 22
        E 16 b1 0b 3b
        E 16 b1 0b 55
        E 32 b1 0b 3b
        E 16 b1 0b 22
        E 112 81 34 00
        E 0 91 32 22
        E 16 b1 0b 3b
        E 16 b1 0b 55
        E 32 b1 0b 3b
        E 16 b1 0b 22
        E 112 81 32 00
        E 0 91 34 22
        E 16 b1 0b 3b
        E 16 b1 0b 55
        E 32 b1 0b 3b
        E 16 b1 0b 22
        E 112 81 34 00
        E 0 91 30 22
        E 16 b1 0b 3b
        E 16 b1 0b 55
        E 32 b1 0b 3b
        E 16 b1 0b 22
        E 112 81 30 00
        E 0 91 34 22
        E 16 b1 0b 3b
        E 16 b1 0b 55
        E 32 b1 0b 3b
        E 16 b1 0b 22
        E 112 81 34 00
        E 0 91 2f 22
        E 16 b1 0b 3b
        E 16 b1 0b 55
        E 32 b1 0b 3b
        E 16 b1 0b 22
        E 112 81 2f 00
        E 0 91 34 22
        E 16 b1 0b 3b
        E 16 b1 0b 55
        E 32 b1 0b 3b
        E 16 b1 0b 22
        E 112 81 34 00
        E 0 91 2d 22
        E 16 b1 0b 3b
        E 16 b1 0b 55
        E 32 b1 0b 3b
        E 16 b1 0b 22
        E 112 81 2d 00
        E 0 91 34 22
        E 16 b1 0b 3b
        E 16 b1 0b 55
        E 32 b1 0b 3b
        E 16 b1 0b 22
        E 112 81 34 00
        E 0 91 2b 22
        E 16 b1 0b 3b
        E 16 b1 0b 55
        E 32 b1 0b 3b
        E 16 b1 0b 22
        E 112 81 2b 00
        E 0 91 34 22
        E 16 b1 0b 3b
        E 16 b1 0b 55
        E 32 b1 0b 3b
        E 16 b1 0b 22
        E 112 81 34 00
        E 0 91 2d 22
        E 16 b1 0b 3b
        E 16 b1 0b 55
        E 32 b1 0b 3b
        E 16 b1 0b 22
        E 112 81 2d 00
        E 0 91 36 22
        E 16 b1 0b 3b
        E 16 b1 0b 55
        E 32 b1 0b 3b
        E 16 b1 0b 22
        E 112 81 36 00
        E 0 91 32 22
        E 16 b1 0b 3b
        E 16 b1 0b 55
        E 32 b1 0b 3b
        E 16 b1 0b 22
        E 112 81 32 00
        E 0 91 36 22
        E 16 b1 0b 3b
        E 16 b1 0b 55
        E 32 b1 0b 3b
        E 16 b1 0b 22
        E 112 81 36 00
        E 0 91 2f 22
        E 16 b1 0b 3b
        E 16 b1 0b 55
        E 32 b1 0b 3b
        E 16 b1 0b 22
        E 112 81 2f 00
        E 0 91 37 22
        E 16 b1 0b 3b
        E 16 b1 0b 55
        E 32 b1 0b 3b
        E 16 b1 0b 22
        E 112 81 37 00
        E 0 91 36 22
        E 16 b1 0b 3b
        E 16 b1 0b 55
        E 32 b1 0b 3b
        E 16 b1 0b 22
        E 112 81 36 00
        E 0 91 37 22
        E 16 b1 0b 3b
        E 16 b1 0b 55
        E 32 b1 0b 3b
        E 16 b1 0b 22
        E 112 81 37 00
        E 0 91 34 22
        E 16 b1 0b 3b
        E 16 b1 0b 55
        E 32 b1 0b 3b
        E 16 b1 0b 22
        E 112 81 34 00
        E 0 91 37 22
        E 16 b1 0b 3b
        E 16 b1 0b 55
        E 32 b1 0b 3b
        E 16 b1 0b 22
        E 112 81 37 00
        E 0 91 32 22
        E 16 b1 0b 3b
        E 16 b1 0b 55
        E 32 b1 0b 3b
        E 16 b1 0b 22
        E 112 81 32 00
        E 0 91 37 22
        E 16 b1 0b 3b
        E 16 b1 0b 55
        E 32 b1 0b 3b
        E 16 b1 0b 22
        E 112 81 37 00
        E 0 91 2d 22
        E 16 b1 0b 3b
        E 16 b1 0b 55
        E 32 b1 0b 3b
        E 16 b1 0b 22
        E 112 81 2d 00
        E 0 91 36 22
        E 16 b1 0b 3b
        E 16 b1 0b 55
        E 32 b1 0b 3b
        E 16 b1 0b 22
        E 112 81 36 00
        E 0 91 34 22
        E 16 b1 0b 3b
        E 16 b1 0b 55
        E 32 b1 0b 3b
        E 16 b1 0b 22
        E 112 81 34 00
        E 0 91 36 22
        E 16 b1 0b 3b
        E 16 b1 0b 55
        E 32 b1 0b 3b
        E 16 b1 0b 22
        E 112 81 36 00
        E 0 91 32 22
        E 16 b1 0b 3b
        E 16 b1 0b 55
        E 32 b1 0b 3b
        E 16 b1 0b 22
        E 112 81 32 00
        E 0 91 36 22
        E 16 b1 0b 3b
        E 16 b1 0b 55
        E 32 b1 0b 3b
        E 16 b1 0b 22
        E 112 81 36 00
        E 0 91 30 22
        E 16 b1 0b 3b
        E 16 b1 0b 55
        E 32 b1 0b 3b
        E 16 b1 0b 22
        E 112 81 30 00
        E 0 91 36 22
        E 16 b1 0b 3b
        E 16 b1 0b 55
        E 32 b1 0b 3b
        E 16 b1 0b 22
        E 112 81 36 00
        E 0 91 2d 22
        E 16 b1 0b 3b
        E 16 b1 0b 55
        E 32 b1 0b 3b
        E 16 b1 0b 22
        E 112 81 2d 00
        E 0 91 34 22
        E 16 b1 0b 3b
        E 16 b1 0b 55
        E 32 b1 0b 3b
        E 16 b1 0b 22
        E 112 81 34 00
        E 0 91 32 22
        E 16 b1 0b 3b
        E 16 b1 0b 55
        E 32 b1 0b 3b
        E 16 b1 0b 22
        E 112 81 32 00
        E 0 91 34 22
        E 16 b1 0b 3b
        E 16 b1 0b 55
        E 32 b1 0b 3b
        E 16 b1 0b 22
        E 112 81 34 00
        E 0 91 31 22
        E 16 b1 0b 3b
        E 16 b1 0b 55
        E 32 b1 0b 3b
        E 16 b1 0b 22
        E 112 81 31 00
        E 0 91 34 22
        E 16 b1 0b 3b
        E 16 b1 0b 55
        E 32 b1 0b 3b
        E 16 b1 0b 22
        E 112 81 34 00
        E 0 91 2f 22
        E 16 b1 0b 3b
        E 16 b1 0b 55
        E 32 b1 0b 3b
        E 16 b1 0b 22
        E 112 81 2f 00
        E 0 91 34 22
        E 16 b1 0b 3b
        E 16 b1 0b 55
        E 32 b1 0b 3b
        E 16 b1 0b 22
        E 112 81 34 00
        E 0 91 2b 22
        E 16 b1 0b 3b
        E 16 b1 0b 55
        E 32 b1 0b 3b
        E 16 b1 0b 22
        E 112 81 2b 00
        E 0 91 34 22
        E 16 b1 0b 3b
        E 16 b1 0b 55
        E 32 b1 0b 3b
        E 16 b1 0b 22
        E 112 81 34 00
        E 0 91 30 22
        E 16 b1 0b 3b
        E 16 b1 0b 55
        E 32 b1 0b 3b
        E 16 b1 0b 22
        E 112 81 30 00
        E 0 91 34 22
        E 16 b1 0b 3b
        E 16 b1 0b 55
        E 32 b1 0b 3b
        E 16 b1 0b 22
        E 112 81 34 00
        E 0 91 2b 22
        E 16 b1 0b 3b
        E 16 b1 0b 55
        E 32 b1 0b 3b
        E 16 b1 0b 22
        E 112 81 2b 00
        E 0 91 34 22
        E 16 b1 0b 3b
        E 16 b1 0b 55
        E 32 b1 0b 3b
        E 16 b1 0b 22
        E 112 81 34 00
        E 0 91 30 22
        E 16 b1 0b 3b
        E 16 b1 0b 55
        E 32 b1 0b 3b
        E 16 b1 0b 22
        E 112 81 30 00
        E 0 91 34 22
        E 16 b1 0b 3b
        E 16 b1 0b 55
        E 32 b1 0b 3b
        E 16 b1 0b 22
        E 112 b1 0b 44
        E 0 81 34 00
        E 0 91 37 44
        E 16 b1 0b 3b
        E 16 b1 0b 2a
        E 16 b1 0b 22
        E 16 b1 0b 11
        E 16 81 37 00
        E 112 b1 0b 44
        E 0 91 3b 44
        E 16 b1 0b 3b
        E 16 b1 0b 2a
        E 16 b1 0b 22
        E 16 b1 0b 11
        E 16 81 3b 00
        E 112 b1 0b 44
        E 0 91 39 44
        E 16 b1 0b 3b
        E 16 b1 0b 2a
        E 16 b1 0b 22
        E 16 b1 0b 11
        E 16 81 39 00
        E 112 b1 0b 44
        E 0 91 3b 44
        E 16 b1 0b 3b
        E 16 b1 0b 2a
        E 16 b1 0b 22
        E 16 b1 0b 11
        E 16 81 3b 00
        E 304 b1 0b 44
        E 0 91 3b 44
        E 16 b1 0b 3b
        E 16 b1 0b 2a
        E 16 b1 0b 22
        E 16 b1 0b 11
        E 16 81 3b 00
        E 112 b1 0b 44
        E 0 91 39 44
        E 16 b1 0b 3b
        E 16 b1 0b 2a
        E 16 b1 0b 22
        E 16 b1 0b 11
        E 16 81 39 00
        E 112 b1 0b 44
        E 0 91 3b 44
        E 16 b1 0b 3b
        E 16 b1 0b 2a
        E 16 b1 0b 22
        E 16 b1 0b 11
        E 16 81 3b 00
        E 112 b1 0b 44
        E 0 91 36 44
        E 16 b1 0b 3b
        E 16 b1 0b 2a
        E 16 b1 0b 22
        E 16 b1 0b 11
        E 16 81 36 00
        E 112 b1 0b 44
        E 0 91 39 44
        E 16 b1 0b 3b
        E 16 b1 0b 2a
        E 16 b1 0b 22
        E 16 b1 0b 11
        E 16 81 39 00
        E 112 b1 0b 44
        E 0 91 37 44
        E 16 b1 0b 3b
        E 16 b1 0b 2a
        E 16 b1 0b 22
        E 16 b1 0b 11
        E 16 81 37 00
        E 112 b1 0b 44
        E 0 91 39 44
        E 16 b1 0b 3b
        E 16 b1 0b 2a
        E 16 b1 0b 22
        E 16 b1 0b 11
        E 16 81 39 00
        E 304 b1 0b 44
        E 0 91 39 44
        E 16 b1 0b 3b
        E 16 b1 0b 2a
        E 16 b1 0b 22
        E 16 b1 0b 11
        E 16 81 39 00
        E 112 b1 0b 44
        E 0 91 37 44
        E 16 b1 0b 3b
        E 16 b1 0b 2a
        E 16 b1 0b 22
        E 16 b1 0b 11
        E 16 81 37 00
        E 112 b1 0b 44
        E 0 91 39 44
        E 16 b1 0b 3b
        E 16 b1 0b 2a
        E 16 b1 0b 22
        E 16 b1 0b 11
        E 16 81 39 00
        E 112 b1 0b 44
        E 0 91 34 44
        E 16 b1 0b 3b
        E 16 b1 0b 2a
        E 16 b1 0b 22
        E 16 b1 0b 11
        E 16 81 34 00
        E 112 b1 0b 44
        E 0 91 37 44
        E 16 b1 0b 3b
        E 16 b1 0b 2a
        E 16 b1 0b 22
        E 16 b1 0b 11
        E 16 81 37 00
        E 112 b1 0b 44
        E 0 91 36 44
        E 16 b1 0b 3b
        E 16 b1 0b 2a
        E 16 b1 0b 22
        E 16 b1 0b 11
        E 16 81 36 00
        E 112 b1 0b 44
        E 0 91 37 44
        E 16 b1 0b 3b
        E 16 b1 0b 2a
        E 16 b1 0b 22
        E 16 b1 0b 11
        E 16 81 37 00
        E 304 b1 0b 44
        E 0 91 37 44
        E 16 b1 0b 3b
        E 16 b1 0b 2a
        E 16 b1 0b 22
        E 16 b1 0b 11
        E 16 81 37 00
        E 112 b1 0b 44
        E 0 91 36 44
        E 16 b1 0b 3b
        E 16 b1 0b 2a
        E 16 b1 0b 22
        E 16 b1 0b 11
        E 16 81 36 00
        E 112 b1 0b 44
        E 0 91 37 44
        E 16 b1 0b 3b
        E 16 b1 0b 2a
        E 16 b1 0b 22
        E 16 b1 0b 11
        E 16 81 37 00
        E 112 b1 0b 44
        E 0 91 32 44
        E 16 b1 0b 3b
        E 16 b1 0b 2a
        E 16 b1 0b 22
        E 16 b1 0b 11
        E 16 81 32 00
        E 112 b1 0b 44
        E 0 91 36 44
        E 16 b1 0b 3b
        E 16 b1 0b 2a
        E 16 b1 0b 22
        E 16 b1 0b 11
        E 16 81 36 00
        E 112 b1 0b 44
        E 0 91 34 44
        E 16 b1 0b 3b
        E 16 b1 0b 2a
        E 16 b1 0b 22
        E 16 b1 0b 11
        E 16 81 34 00
        E 112 b1 0b 44
        E 0 91 36 44
        E 16 b1 0b 3b
        E 16 b1 0b 2a
        E 16 b1 0b 22
        E 16 b1 0b 11
        E 16 81 36 00
        E 304 b1 0b 44
        E 0 91 36 44
        E 16 b1 0b 3b
        E 16 b1 0b 2a
        E 16 b1 0b 22
        E 16 b1 0b 11
        E 16 81 36 00
        E 112 b1 0b 44
        E 0 91 34 44
        E 16 b1 0b 3b
        E 16 b1 0b 2a
        E 16 b1 0b 22
        E 16 b1 0b 11
        E 16 81 34 00
        E 112 b1 0b 44
        E 0 91 36 44
        E 16 b1 0b 3b
        E 16 b1 0b 2a
        E 16 b1 0b 22
        E 16 b1 0b 11
        E 16 81 36 00
        E 112 b1 0b 44
        E 0 91 34 44
        E 16 b1 0b 3b
        E 16 b1 0b 2a
        E 16 b1 0b 22
        E 16 b1 0b 11
        E 16 81 34 00
        E 112 b1 0b 44
        E 0 91 37 44
        E 16 b1 0b 3b
        E 16 b1 0b 2a
        E 16 b1 0b 22
        E 16 b1 0b 11
        E 16 81 37 00
        E 112 b1 0b 44
        E 0 91 36 44
        E 16 b1 0b 3b
        E 16 b1 0b 2a
        E 16 b1 0b 22
        E 16 b1 0b 11
        E 16 81 36 00
        E 112 b1 0b 44
        E 0 91 37 44
        E 16 b1 0b 3b
        E 16 b1 0b 2a
        E 16 b1 0b 22
        E 16 b1 0b 11
        E 16 81 37 00
        E 304 b1 0b 44
        E 0 91 37 44
        E 16 b1 0b 3b
        E 16 b1 0b 2a
        E 16 b1 0b 22
        E 16 b1 0b 11
        E 16 81 37 00
        E 112 b1 0b 44
        E 0 91 36 44
        E 16 b1 0b 3b
        E 16 b1 0b 2a
        E 16 b1 0b 22
        E 16 b1 0b 11
        E 16 81 36 00
        E 112 b1 0b 44
        E 0 91 37 44
        E 16 b1 0b 3b
        E 16 b1 0b 2a
        E 16 b1 0b 22
        E 16 b1 0b 11
        E 16 81 37 00
        E 112 b1 0b 44
        E 0 91 39 44
        E 16 b1 0b 3b
        E 16 b1 0b 2a
        E 16 b1 0b 22
        E 16 b1 0b 11
        E 16 81 39 00
        E 112 b1 0b 44
        E 0 91 3c 44
        E 16 b1 0b 3b
        E 16 b1 0b 2a
        E 16 b1 0b 22
        E 16 b1 0b 11
        E 16 81 3c 00
        E 112 b1 0b 44
        E 0 91 3b 44
        E 16 b1 0b 3b
        E 16 b1 0b 2a
        E 16 b1 0b 22
        E 16 b1 0b 11
        E 16 81 3b 00
        E 112 b1 0b 44
        E 0 91 3c 44
        E 16 b1 0b 3b
        E 16 b1 0b 2a
        E 16 b1 0b 22
        E 16 b1 0b 11
        E 16 81 3c 00
        E 304 b1 0b 44
        E 0 91 3c 44
        E 16 b1 0b 3b
        E 16 b1 0b 2a
        E 16 b1 0b 22
        E 16 b1 0b 11
        E 16 81 3c 00
        E 112 b1 0b 44
        E 0 91 3b 44
        E 16 b1 0b 3b
        E 16 b1 0b 2a
        E 16 b1 0b 22
        E 16 b1 0b 11
        E 16 81 3b 00
        E 112 b1 0b 44
        E 0 91 3c 44
        E 16 b1 0b 3b
        E 16 b1 0b 2a
        E 16 b1 0b 22
        E 16 b1 0b 11
        E 16 81 3c 00
        E 112 b1 0b 44
        E 0 91 2d 44
        E 16 b1 0b 2a
        E 16 b1 0b 11
        E 32 b1 0b 2a
        E 16 b1 0b 44
        E 112 81 2d 00
        E 0 91 39 44
        E 16 b1 0b 3b
        E 16 b1 0b 2a
        E 16 b1 0b 22
        E 16 b1 0b 11
        E 16 81 39 00
        E 112 b1 0b 44
        E 0 91 37 44
        E 16 b1 0b 3b
        E 16 b1 0b 2a
        E 16 b1 0b 22
        E 16 b1 0b 11
        E 16 81 37 00
        E 112 b1 0b 44
        E 0 91 2d 44
        E 16 b1 0b 3b
        E 16 b1 0b 2a
        E 16 b1 0b 22
        E 16 b1 0b 11
        E 16 81 2d 00
        E 112 b1 0b 44
        E 0 91 39 44
        E 16 b1 0b 3b
        E 16 b1 0b 2a
        E 16 b1 0b 22
        E 16 b1 0b 11
        E 16 81 39 00
        E 112 b1 0b 44
        E 0 91 37 44
        E 16 b1 0b 3b
        E 16 b1 0b 2a
        E 16 b1 0b 22
        E 16 b1 0b 11
        E 16 b1 0b 08
        E 16 b1 0b 11
        E 16 b1 0b 19
        E 16 b1 0b 2a
        E 16 b1 0b 33
        E 16 b1 0b 44
        E 224 81 37 00
        E 0 91 39 44
        E 16 b1 0b 3b
        E 16 b1 0b 2a
        E 16 b1 0b 22
        E 16 b1 0b 11
        E 16 81 39 00
        E 112 b1 0b 44
        E 0 91 32 44
        E 16 b1 0b 2a
        E 16 b1 0b 11
        E 32 b1 0b 2a
        E 16 b1 0b 44
        E 112 81 32 00
        E 0 91 3e 44
        E 16 b1 0b 3b
        E 16 b1 0b 2a
        E 16 b1 0b 22
        E 16 b1 0b 11
        E 16 81 3e 00
        E 112 b1 0b 44
        E 0 91 3c 44
        E 16 b1 0b 3b
        E 16 b1 0b 2a
        E 16 b1 0b 22
        E 16 b1 0b 11
        E 16 81 3c 00
        E 112 b1 0b 44
        E 0 91 32 44
        E 16 b1 0b 3b
        E 16 b1 0b 2a
        E 16 b1 0b 22
        E 16 b1 0b 11
        E 16 81 32 00
        E 112 b1 0b 44
        E 0 91 3e 44
        E 16 b1 0b 3b
        E 16 b1 0b 2a
        E 16 b1 0b 22
        E 16 b1 0b 11
        E 16 81 3e 00
        E 16 b1 0b 44
        E 0 91 3e 44
        E 96 81 3e 00
        E 0 91 3c 44
        E 16 b1 0b 3b
        E 16 b1 0b 2a
        E 16 b1 0b 22
        E 16 b1 0b 11
        E 16 b1 0b 08
        E 16 b1 0b 11
        E 16 b1 0b 19
        E 16 b1 0b 2a
        E 16 b1 0b 33
        E 16 b1 0b 44
        E 224 81 3c 00
        E 0 91 3e 44
        E 16 b1 0b 3b
        E 16 b1 0b 2a
        E 16 b1 0b 22
        E 16 b1 0b 11
        E 16 81 3e 00
        E 112 b1 0b 22
        E 0 91 2f 22
        E 16 b1 0b 3b
        E 16 b1 0b 55
        E 32 b1 0b 3b
        E 16 b1 0b 22
        E 112 81 2f 00
        E 0 91 37 22
        E 16 b1 0b 3b
        E 16 b1 0b 55
        E 32 b1 0b 3b
        E 16 b1 0b 22
        E 112 81 37 00
        E 0 91 36 22
        E 16 b1 0b 3b
        E 16 b1 0b 55
        E 32 b1 0b 3b
        E 16 b1 0b 22
        E 112 81 36 00
        E 0 91 37 22
        E 16 b1 0b 3b
        E 16 b1 0b 55
        E 32 b1 0b 3b
        E 16 b1 0b 22
        E 112 81 37 00
        E 0 91 34 22
        E 16 b1 0b 3b
        E 16 b1 0b 55
        E 32 b1 0b 3b
        E 16 b1 0b 22
        E 112 81 34 00
        E 0 91 37 22
        E 16 b1 0b 3b
        E 16 b1 0b 55
        E 32 b1 0b 3b
        E 16 b1 0b 22
        E 112 81 37 00
        E 0 91 32 22
        E 16 b1 0b 3b
        E 16 b1 0b 55
        E 32 b1 0b 3b
        E 16 b1 0b 22
        E 112 81 32 00
        E 0 91 37 22
        E 16 b1 0b 3b
        E 16 b1 0b 55
        E 32 b1 0b 3b
        E 16 b1 0b 22
        E 112 81 37 00
        E 0 91 2d 22
        E 16 b1 0b 3b
        E 16 b1 0b 55
        E 32 b1 0b 3b
        E 16 b1 0b 22
        E 112 81 2d 00
        E 0 91 36 22
        E 16 b1 0b 3b
        E 16 b1 0b 55
        E 32 b1 0b 3b
        E 16 b1 0b 22
        E 112 81 36 00
        E 0 91 34 22
        E 16 b1 0b 3b
        E 16 b1 0b 55
        E 32 b1 0b 3b
        E 16 b1 0b 22
        E 112 81 34 00
        E 0 91 36 22
        E 16 b1 0b 3b
        E 16 b1 0b 55
        E 32 b1 0b 3b
        E 16 b1 0b 22
        E 112 81 36 00
        E 0 91 32 22
        E 16 b1 0b 3b
        E 16 b1 0b 55
        E 32 b1 0b 3b
        E 16 b1 0b 22
        E 112 81 32 00
        E 0 91 36 22
        E 16 b1 0b 3b
        E 16 b1 0b 55
        E 32 b1 0b 3b
        E 16 b1 0b 22
        E 112 81 36 00
        E 0 91 30 22
        E 16 b1 0b 3b
        E 16 b1 0b 55
        E 32 b1 0b 3b
        E 16 b1 0b 22
        E 112 81 30 00
        E 0 91 36 22
        E 16 b1 0b 3b
        E 16 b1 0b 55
        E 32 81 36 00
        E 0 b1 7b 00
        E 0 ff 2f 00
      >
    >
  >
  <TRACK {95DBC537-8154-4377-B87B-F0013ADEC4BF}
    NAME "NES - Triangle [ch2]"
    PEAKCOL 16744192
    BEAT -1
    AUTOMODE 0
    PANLAWFLAGS 3
    VOLPAN 1 0 -1 -1 1
    MUTESOLO 0 0 0
    IPHASE 0
    PLAYOFFS 0 1
    ISBUS 0 0
    BUSCOMP 0 0 0 0 0
    SHOWINMIX 1 0.6667 0.5 1 0.5 0 0 0
    FIXEDLANES 9 0 0 0 0
    SEL 0
    REC 0 5088 1 0 0 0 0 0
    VU 2
    TRACKHEIGHT 0 0 0 0 0 0 0
    INQ 0 0 0 0.5 100 0 0 100
    NCHAN 2
    FX 1
    TRACKID {95DBC537-8154-4377-B87B-F0013ADEC4BF}
    PERF 0
    MIDIOUT -1
    MAINSEND 1 0
    <FXCHAIN
      WNDRECT 24 52 700 560
      SHOW 0
      LASTSEL 0
      DOCKED 0
      BYPASS 0 0 0
      <JS "ReapNES Studio/ReapNES_Console.jsfx" ""
        2 15 1 10 80 10 100 2 1 15 1 5 60 10 80 1 1 0 50 0 0 15 1 0 100 0 0 0.500000 0.500000 0.400000 0.300000 0.800000 2 1 0 0 0 0 - - - - - - - - - - - - - - - - - - - - - - - - - -
      >
      FLOATPOS 0 0 0 0
      FXID {86912AC0-25E1-4C03-9E9F-5AE156A5C349}
      WAK 0 0
    >
    <ITEM
      POSITION 0
      LENGTH 74.5878716
      LOOP 0
      ALLTAKES 0
      FADEIN 0 0 0 0 0 0 0
      FADEOUT 0 0 0 0 0 0 0
      MUTE 0 0
      SEL 0
      IGUID {F0209147-E88A-4933-A7E6-F32205FCBF86}
      <SOURCE MIDI
        HASDATA 1 480 QN
        CCINTERP 32
        E 0 c2 26
        E 64 b2 0b 7f
        E 0 92 28 7f
        E 1536 82 28 00
        E 0 b2 0b 7f
        E 0 92 26 7f
        E 1536 82 26 00
        E 0 b2 0b 7f
        E 0 92 24 7f
        E 2304 82 24 00
        E 0 b2 0b 7f
        E 0 92 26 7f
        E 768 82 26 00
        E 0 b2 0b 7f
        E 0 92 28 7f
        E 1536 82 28 00
        E 0 b2 0b 7f
        E 0 92 26 7f
        E 1536 82 26 00
        E 0 b2 0b 7f
        E 0 92 25 7f
        E 1536 82 25 00
        E 0 b2 0b 7f
        E 0 92 24 7f
        E 1536 82 24 00
        E 0 b2 0b 7f
        E 0 92 1f 7f
        E 192 82 1f 00
        E 0 b2 0b 7f
        E 0 92 2b 7f
        E 96 82 2b 00
        E 288 b2 0b 7f
        E 0 92 2b 7f
        E 96 82 2b 00
        E 96 b2 0b 7f
        E 0 92 1f 7f
        E 192 82 1f 00
        E 0 b2 0b 7f
        E 0 92 2b 7f
        E 96 82 2b 00
        E 288 b2 0b 7f
        E 0 92 2b 7f
        E 96 82 2b 00
        E 96 b2 0b 7f
        E 0 92 26 7f
        E 192 82 26 00
        E 0 b2 0b 7f
        E 0 92 2d 7f
        E 96 82 2d 00
        E 288 b2 0b 7f
        E 0 92 2d 7f
        E 96 82 2d 00
        E 96 b2 0b 7f
        E 0 92 26 7f
        E 192 82 26 00
        E 0 b2 0b 7f
        E 0 92 2d 7f
        E 96 82 2d 00
        E 288 b2 0b 7f
        E 0 92 2d 7f
        E 96 82 2d 00
        E 96 b2 0b 7f
        E 0 92 28 7f
        E 192 82 28 00
        E 0 b2 0b 7f
        E 0 92 2f 7f
        E 96 82 2f 00
        E 288 b2 0b 7f
        E 0 92 2f 7f
        E 96 82 2f 00
        E 96 b2 0b 7f
        E 0 92 28 7f
        E 192 82 28 00
        E 0 b2 0b 7f
        E 0 92 2f 7f
        E 96 82 2f 00
        E 288 b2 0b 7f
        E 0 92 2f 7f
        E 96 82 2f 00
        E 96 b2 0b 7f
        E 0 92 23 7f
        E 192 82 23 00
        E 0 b2 0b 7f
        E 0 92 2f 7f
        E 96 82 2f 00
        E 288 b2 0b 7f
        E 0 92 2f 7f
        E 96 82 2f 00
        E 96 b2 0b 7f
        E 0 92 23 7f
        E 192 82 23 00
        E 0 b2 0b 7f
        E 0 92 2f 7f
        E 96 82 2f 00
        E 288 b2 0b 7f
        E 0 92 2f 7f
        E 96 82 2f 00
        E 96 b2 0b 7f
        E 0 92 24 7f
        E 192 82 24 00
        E 0 b2 0b 7f
        E 0 92 30 7f
        E 96 82 30 00
        E 288 b2 0b 7f
        E 0 92 30 7f
        E 96 82 30 00
        E 96 b2 0b 7f
        E 0 92 24 7f
        E 192 82 24 00
        E 0 b2 0b 7f
        E 0 92 30 7f
        E 96 82 30 00
        E 288 b2 0b 7f
        E 0 92 30 7f
        E 96 82 30 00
        E 96 b2 0b 7f
        E 0 92 29 7f
        E 192 82 29 00
        E 0 b2 0b 7f
        E 0 92 30 7f
        E 96 82 30 00
        E 288 b2 0b 7f
        E 0 92 30 7f
        E 96 82 30 00
        E 96 b2 0b 7f
        E 0 92 29 7f
        E 192 82 29 00
        E 0 b2 0b 7f
        E 0 92 30 7f
        E 96 82 30 00
        E 288 b2 0b 7f
        E 0 92 30 7f
        E 96 82 30 00
        E 96 b2 0b 7f
        E 0 92 26 7f
        E 192 82 26 00
        E 0 b2 0b 7f
        E 0 92 32 7f
        E 96 82 32 00
        E 96 b2 0b 7f
        E 0 92 30 7f
        E 96 82 30 00
        E 96 b2 0b 7f
        E 0 92 26 7f
        E 96 82 26 00
        E 96 b2 0b 7f
        E 0 92 32 7f
        E 96 82 32 00
        E 96 b2 0b 7f
        E 0 92 30 7f
        E 384 82 30 00
        E 0 b2 0b 7f
        E 0 92 32 7f
        E 96 82 32 00
        E 96 b2 0b 7f
        E 0 92 2d 7f
        E 192 82 2d 00
        E 0 b2 0b 7f
        E 0 92 36 7f
        E 96 82 36 00
        E 96 b2 0b 7f
        E 0 92 34 7f
        E 96 82 34 00
        E 96 b2 0b 7f
        E 0 92 2d 7f
        E 96 82 2d 00
        E 96 b2 0b 7f
        E 0 92 36 7f
        E 96 82 36 00
        E 96 b2 0b 7f
        E 0 92 34 7f
        E 384 82 34 00
        E 0 b2 0b 7f
        E 0 92 36 7f
        E 96 82 36 00
        E 96 b2 0b 7f
        E 0 92 28 7f
        E 1536 82 28 00
        E 0 b2 0b 7f
        E 0 92 26 7f
        E 1536 82 26 00
        E 0 b2 0b 7f
        E 0 92 24 7f
        E 2304 82 24 00
        E 0 b2 0b 7f
        E 0 92 26 7f
        E 768 82 26 00
        E 0 b2 0b 7f
        E 0 92 28 7f
        E 1536 82 28 00
        E 0 b2 0b 7f
        E 0 92 26 7f
        E 1536 82 26 00
        E 0 b2 0b 7f
        E 0 92 25 7f
        E 1536 82 25 00
        E 0 b2 0b 7f
        E 0 92 24 7f
        E 1536 82 24 00
        E 0 b2 0b 7f
        E 0 92 1f 7f
        E 192 82 1f 00
        E 0 b2 0b 7f
        E 0 92 2b 7f
        E 96 82 2b 00
        E 288 b2 0b 7f
        E 0 92 2b 7f
        E 96 82 2b 00
        E 96 b2 0b 7f
        E 0 92 1f 7f
        E 192 82 1f 00
        E 0 b2 0b 7f
        E 0 92 2b 7f
        E 96 82 2b 00
        E 288 b2 0b 7f
        E 0 92 2b 7f
        E 96 82 2b 00
        E 96 b2 0b 7f
        E 0 92 26 7f
        E 192 82 26 00
        E 0 b2 0b 7f
        E 0 92 2d 7f
        E 96 82 2d 00
        E 288 b2 0b 7f
        E 0 92 2d 7f
        E 96 82 2d 00
        E 96 b2 0b 7f
        E 0 92 26 7f
        E 192 82 26 00
        E 0 b2 0b 7f
        E 0 92 2d 7f
        E 96 82 2d 00
        E 288 b2 0b 7f
        E 0 92 2d 7f
        E 96 82 2d 00
        E 96 b2 0b 7f
        E 0 92 28 7f
        E 192 82 28 00
        E 0 b2 0b 7f
        E 0 92 2f 7f
        E 96 82 2f 00
        E 288 b2 0b 7f
        E 0 92 2f 7f
        E 96 82 2f 00
        E 96 b2 0b 7f
        E 0 92 28 7f
        E 192 82 28 00
        E 0 b2 0b 7f
        E 0 92 2f 7f
        E 96 82 2f 00
        E 288 b2 0b 7f
        E 0 92 2f 7f
        E 96 82 2f 00
        E 96 b2 0b 7f
        E 0 92 23 7f
        E 192 82 23 00
        E 0 b2 0b 7f
        E 0 92 2f 7f
        E 96 82 2f 00
        E 288 b2 0b 7f
        E 0 92 2f 7f
        E 96 82 2f 00
        E 96 b2 0b 7f
        E 0 92 23 7f
        E 192 82 23 00
        E 0 b2 0b 7f
        E 0 92 2f 7f
        E 96 82 2f 00
        E 288 b2 0b 7f
        E 0 92 2f 7f
        E 96 82 2f 00
        E 96 b2 0b 7f
        E 0 92 24 7f
        E 192 82 24 00
        E 0 b2 0b 7f
        E 0 92 30 7f
        E 96 82 30 00
        E 288 b2 0b 7f
        E 0 92 30 7f
        E 96 82 30 00
        E 96 b2 0b 7f
        E 0 92 24 7f
        E 192 82 24 00
        E 0 b2 0b 7f
        E 0 92 30 7f
        E 96 82 30 00
        E 288 b2 0b 7f
        E 0 92 30 7f
        E 96 82 30 00
        E 96 b2 0b 7f
        E 0 92 29 7f
        E 192 82 29 00
        E 0 b2 0b 7f
        E 0 92 30 7f
        E 96 82 30 00
        E 288 b2 0b 7f
        E 0 92 30 7f
        E 96 82 30 00
        E 96 b2 0b 7f
        E 0 92 29 7f
        E 192 82 29 00
        E 0 b2 0b 7f
        E 0 92 30 7f
        E 96 82 30 00
        E 288 b2 0b 7f
        E 0 92 30 7f
        E 96 82 30 00
        E 96 b2 0b 7f
        E 0 92 26 7f
        E 192 82 26 00
        E 0 b2 0b 7f
        E 0 92 32 7f
        E 96 82 32 00
        E 96 b2 0b 7f
        E 0 92 30 7f
        E 96 82 30 00
        E 96 b2 0b 7f
        E 0 92 26 7f
        E 96 82 26 00
        E 96 b2 0b 7f
        E 0 92 32 7f
        E 96 82 32 00
        E 96 b2 0b 7f
        E 0 92 30 7f
        E 384 82 30 00
        E 0 b2 0b 7f
        E 0 92 32 7f
        E 96 82 32 00
        E 96 b2 0b 7f
        E 0 92 2d 7f
        E 192 82 2d 00
        E 0 b2 0b 7f
        E 0 92 36 7f
        E 96 82 36 00
        E 96 b2 0b 7f
        E 0 92 34 7f
        E 96 82 34 00
        E 96 b2 0b 7f
        E 0 92 2d 7f
        E 96 82 2d 00
        E 96 b2 0b 7f
        E 0 92 36 7f
        E 96 82 36 00
        E 96 b2 0b 7f
        E 0 92 34 7f
        E 384 82 34 00
        E 0 b2 0b 7f
        E 0 92 36 7f
        E 96 82 36 00
        E 96 b2 0b 7f
        E 0 92 28 7f
        E 1536 82 28 00
        E 0 b2 0b 7f
        E 0 92 26 7f
        E 1536 82 26 00
        E 0 b2 0b 7f
        E 0 92 24 7f
        E 2304 82 24 00
        E 0 b2 0b 7f
        E 0 92 26 7f
        E 768 82 26 00
        E 0 b2 0b 7f
        E 0 92 28 7f
        E 1536 82 28 00
        E 0 b2 0b 7f
        E 0 92 26 7f
        E 1536 82 26 00
        E 0 b2 0b 7f
        E 0 92 25 7f
        E 1536 82 25 00
        E 0 b2 0b 7f
        E 0 92 24 7f
        E 1536 82 24 00
        E 0 b2 0b 7f
        E 0 92 1f 7f
        E 192 82 1f 00
        E 0 b2 0b 7f
        E 0 92 2b 7f
        E 96 82 2b 00
        E 288 b2 0b 7f
        E 0 92 2b 7f
        E 96 82 2b 00
        E 96 b2 0b 7f
        E 0 92 1f 7f
        E 192 82 1f 00
        E 0 b2 0b 7f
        E 0 92 2b 7f
        E 96 82 2b 00
        E 288 b2 0b 7f
        E 0 92 2b 7f
        E 96 82 2b 00
        E 96 b2 0b 7f
        E 0 92 26 7f
        E 192 82 26 00
        E 0 b2 0b 7f
        E 0 92 2d 7f
        E 96 82 2d 00
        E 288 b2 0b 7f
        E 0 92 2d 7f
        E 96 82 2d 00
        E 96 b2 0b 7f
        E 0 92 26 7f
        E 192 82 26 00
        E 0 b2 0b 7f
        E 0 92 2d 7f
        E 96 82 2d 00
        E 288 b2 0b 7f
        E 0 92 2d 7f
        E 96 82 2d 00
        E 96 b2 0b 7f
        E 0 92 28 7f
        E 192 82 28 00
        E 0 b2 0b 7f
        E 0 92 2f 7f
        E 96 82 2f 00
        E 288 b2 0b 7f
        E 0 92 2f 7f
        E 96 82 2f 00
        E 96 b2 0b 7f
        E 0 92 28 7f
        E 192 82 28 00
        E 0 b2 0b 7f
        E 0 92 2f 7f
        E 96 82 2f 00
        E 288 b2 0b 7f
        E 0 92 2f 7f
        E 96 82 2f 00
        E 96 b2 0b 7f
        E 0 92 23 7f
        E 192 82 23 00
        E 0 b2 0b 7f
        E 0 92 2f 7f
        E 96 82 2f 00
        E 288 b2 0b 7f
        E 0 92 2f 7f
        E 96 82 2f 00
        E 96 b2 0b 7f
        E 0 92 23 7f
        E 192 82 23 00
        E 0 b2 0b 7f
        E 0 92 2f 7f
        E 96 82 2f 00
        E 288 b2 0b 7f
        E 0 92 2f 7f
        E 96 82 2f 00
        E 96 b2 0b 7f
        E 0 92 24 7f
        E 192 82 24 00
        E 0 b2 0b 7f
        E 0 92 30 7f
        E 96 82 30 00
        E 288 b2 0b 7f
        E 0 92 30 7f
        E 96 82 30 00
        E 96 b2 0b 7f
        E 0 92 24 7f
        E 192 82 24 00
        E 0 b2 0b 7f
        E 0 92 30 7f
        E 96 82 30 00
        E 288 b2 0b 7f
        E 0 92 30 7f
        E 96 82 30 00
        E 96 b2 0b 7f
        E 0 92 29 7f
        E 192 82 29 00
        E 0 b2 0b 7f
        E 0 92 30 7f
        E 96 82 30 00
        E 288 b2 0b 7f
        E 0 92 30 7f
        E 96 82 30 00
        E 96 b2 0b 7f
        E 0 92 29 7f
        E 192 82 29 00
        E 0 b2 0b 7f
        E 0 92 30 7f
        E 96 82 30 00
        E 288 b2 0b 7f
        E 0 92 30 7f
        E 96 82 30 00
        E 96 b2 0b 7f
        E 0 92 26 7f
        E 192 82 26 00
        E 0 b2 0b 7f
        E 0 92 32 7f
        E 96 82 32 00
        E 96 b2 0b 7f
        E 0 92 30 7f
        E 96 82 30 00
        E 96 b2 0b 7f
        E 0 92 26 7f
        E 96 82 26 00
        E 96 b2 0b 7f
        E 0 92 32 7f
        E 96 82 32 00
        E 96 b2 0b 7f
        E 0 92 30 7f
        E 384 82 30 00
        E 0 b2 0b 7f
        E 0 92 32 7f
        E 96 82 32 00
        E 96 b2 0b 7f
        E 0 92 2d 7f
        E 192 82 2d 00
        E 0 b2 0b 7f
        E 0 92 36 7f
        E 96 82 36 00
        E 96 b2 0b 7f
        E 0 92 34 7f
        E 96 82 34 00
        E 96 b2 0b 7f
        E 0 92 2d 7f
        E 96 82 2d 00
        E 96 b2 0b 7f
        E 0 92 36 7f
        E 96 82 36 00
        E 96 b2 0b 7f
        E 0 92 34 7f
        E 384 82 34 00
        E 0 b2 0b 7f
        E 0 92 36 7f
        E 96 82 36 00
        E 96 b2 0b 7f
        E 0 92 28 7f
        E 1536 82 28 00
        E 0 b2 0b 7f
        E 0 92 26 7f
        E 1408 82 26 00
        E 0 b2 7b 00
        E 0 ff 2f 00
      >
    >
  >
  <TRACK {024F46BA-6AB8-4B5B-BFED-67BB016EE8C8}
    NAME "NES - Noise / Drums"
    PEAKCOL 11184810
    BEAT -1
    AUTOMODE 0
    PANLAWFLAGS 3
    VOLPAN 1 0 -1 -1 1
    MUTESOLO 0 0 0
    IPHASE 0
    PLAYOFFS 0 1
    ISBUS 0 0
    BUSCOMP 0 0 0 0 0
    SHOWINMIX 1 0.6667 0.5 1 0.5 0 0 0
    FIXEDLANES 9 0 0 0 0
    SEL 0
    REC 0 5088 1 0 0 0 0 0
    VU 2
    TRACKHEIGHT 0 0 0 0 0 0 0
    INQ 0 0 0 0.5 100 0 0 100
    NCHAN 2
    FX 1
    TRACKID {024F46BA-6AB8-4B5B-BFED-67BB016EE8C8}
    PERF 0
    MIDIOUT -1
    MAINSEND 1 0
    <FXCHAIN
      WNDRECT 24 52 700 560
      SHOW 0
      LASTSEL 0
      DOCKED 0
      BYPASS 0 0 0
      <JS "ReapNES Studio/ReapNES_Console.jsfx" ""
        2 15 1 10 80 10 100 2 1 15 1 5 60 10 80 1 1 0 50 0 0 15 1 0 100 0 0 0.500000 0.500000 0.400000 0.300000 0.800000 3 1 0 0 0 0 - - - - - - - - - - - - - - - - - - - - - - - - - -
      >
      FLOATPOS 0 0 0 0
      FXID {A72910E3-5074-4767-8532-76B334149241}
      WAK 0 0
    >
  >
>