<REAPER_PROJECT 0.1 "7.27/win64" 1707000000
  <NOTES 0 2
    |ReapNES Studio Project
    |MIDI Import - Final_Fantasy_song_46_rom_v1
  >
  RIPPLE 0
  GROUPOVERRIDE 0 0 0
  AUTOXFADE 129
  ENVATTACH 3
  POOLEDENVATTACH 0
  MIXERUIFLAGS 11 48
  ENVFADESZ10 40
  PEAKGAIN 1
  FEEDBACK 0
  PANLAW 1
  PROJOFFS 0 0 0
  MAXPROJLEN 0 0
  GRID 3199 8 1 8 1 0 0 0
  TIMEMODE 1 5 -1 30 0 0 -1
  VIDEO_CONFIG 0 0 65792
  PANMODE 3
  PANLAWFLAGS 3
  CURSOR 0
  ZOOM 100 0 0
  VZOOMEX 6 0
  USE_REC_CFG 0
  RECMODE 1
  SMPTESYNC 0 30 100 40 1000 300 0 0 1 0 0
  LOOP 0
  LOOPGRAN 0 4
  RECORD_PATH "Media" ""
  <RECORD_CFG
    ZXZhdxgAAQ==
  >
  <APPLYFX_CFG
  >
  RENDER_FILE ""
  RENDER_PATTERN ""
  RENDER_FMT 0 2 0
  RENDER_1X 0
  RENDER_RANGE 1 0 0 18 1000
  RENDER_RESAMPLE 3 0 1
  RENDER_ADDTOPROJ 0
  RENDER_STEMS 0
  RENDER_DITHER 0
  TIMELOCKMODE 1
  TEMPOENVLOCKMODE 1
  ITEMMIX 1
  DEFPITCHMODE 589824 0
  TAKELANE 1
  SAMPLERATE 44100 0 0
  <RENDER_CFG
    ZXZhdxgAAQ==
  >
  LOCK 1
  <METRONOME 6 2
    VOL 0.25 0.125
    BEATLEN 4
    FREQ 1760 880 1
    SAMPLES "" ""
    SPLIGNORE 0 0
    SPLDEF 2 660 "" 0
    SPLDEF 3 440 "" 0
    PATTERN 0 169
    PATTERNSTR ABBB
    MULT 1
  >
  GLOBAL_AUTO -1
  TEMPO 128.59999614200012 4 4
  PLAYRATE 1 0 0.25 4
  SELECTION 0 0
  SELECTION2 0 0
  MASTERAUTOMODE 0
  MASTERTRACKHEIGHT 0 0
  MASTERPEAKCOL 16576
  MASTERMUTESOLO 0
  MASTERTRACKVIEW 0 0.6667 0.5 0.5 0 0 0 0 0 0 0 0 0 0
  MASTERHWOUT 0 0 1 0 0 0 0 -1
  MASTER_NCH 2 2
  MASTER_VOLUME 1 0 -1 -1 1
  MASTER_PANMODE 3
  MASTER_PANLAWFLAGS 3
  MASTER_FX 1
  MASTER_SEL 0
  <MASTERPLAYSPEEDENV
    EGUID {76387349-AC0B-4BBE-80EA-D9FFB4B13012}
    ACT 0 -1
    VIS 0 1 1
    LANEHEIGHT 0 0
    ARM 0
    DEFSHAPE 0 -1 -1
  >
  <TEMPOENVEX
    EGUID {B61616C0-574A-428A-97B3-2C6882CB25C2}
    ACT 1 -1
    VIS 1 0 1
    LANEHEIGHT 0 0
    ARM 0
    DEFSHAPE 1 -1 -1
  >
  <PROJBAY
  >
  <TRACK {97C67048-E68D-4B6F-8E2C-8D775F859196}
    NAME "NES - Pulse 1 [ch0]"
    PEAKCOL 16576606
    BEAT -1
    AUTOMODE 0
    PANLAWFLAGS 3
    VOLPAN 1 0 -1 -1 1
    MUTESOLO 0 0 0
    IPHASE 0
    PLAYOFFS 0 1
    ISBUS 0 0
    BUSCOMP 0 0 0 0 0
    SHOWINMIX 1 0.6667 0.5 1 0.5 0 0 0
    FIXEDLANES 9 0 0 0 0
    SEL 1
    REC 1 5088 1 0 0 0 0 0
    VU 2
    TRACKHEIGHT 0 0 0 0 0 0 0
    INQ 0 0 0 0.5 100 0 0 100
    NCHAN 2
    FX 1
    TRACKID {97C67048-E68D-4B6F-8E2C-8D775F859196}
    PERF 0
    MIDIOUT -1
    MAINSEND 1 0
    <FXCHAIN
      WNDRECT 24 52 700 560
      SHOW 0
      LASTSEL 0
      DOCKED 0
      BYPASS 0 0 0
      <JS "ReapNES Studio/ReapNES_Console.jsfx" ""
        2 15 1 10 80 10 100 2 1 15 1 5 60 10 80 1 1 0 50 0 0 15 1 0 100 0 0 0.500000 0.500000 0.400000 0.300000 0.800000 0 1 0 0 0 0 - - - - - - - - - - - - - - - - - - - - - - - - - -
      >
      FLOATPOS 0 0 0 0
      FXID {D599C3C0-7D82-493C-8110-23F88F799F88}
      WAK 0 0
    >
    <ITEM
      POSITION 0
      LENGTH 74.5878716
      LOOP 0
      ALLTAKES 0
      FADEIN 0 0 0 0 0 0 0
      FADEOUT 0 0 0 0 0 0 0
      MUTE 0 0
      SEL 0
      IGUID {0528BB79-861C-4F08-A79C-068BFB70CD3E}
      <SOURCE MIDI
        HASDATA 1 480 QN
        CCINTERP 32
        E 0 c0 50
        E 0 b0 0c 20
        E 0 b0 0b 77
        E 0 90 2e 77
        E 16 80 2e 00
        E 48 b0 0b 66
        E 0 90 3c 66
        E 16 b0 0b 33
        E 16 b0 0b 44
        E 16 b0 0b 55
        E 16 b0 0b 66
        E 16 b0 0b 4c
        E 16 b0 0b 3b
        E 16 b0 0b 2a
        E 16 b0 0b 22
        E 192 80 3c 00
        E 0 90 41 22
        E 16 b0 0b 33
        E 16 b0 0b 44
        E 16 b0 0b 55
        E 16 b0 0b 66
        E 16 b0 0b 4c
        E 16 b0 0b 3b
        E 16 b0 0b 2a
        E 16 b0 0b 22
        E 192 80 41 00
        E 0 90 43 22
        E 16 b0 0b 33
        E 16 b0 0b 44
        E 16 b0 0b 55
        E 16 b0 0b 66
        E 16 b0 0b 4c
        E 16 b0 0b 3b
        E 16 b0 0b 2a
        E 16 b0 0b 22
        E 192 80 43 00
        E 0 90 46 22
        E 16 b0 0b 33
        E 16 b0 0b 44
        E 16 b0 0b 55
        E 16 b0 0b 66
        E 16 b0 0b 4c
        E 16 b0 0b 3b
        E 16 b0 0b 2a
        E 16 b0 0b 22
        E 192 80 46 00
        E 0 90 45 22
        E 16 b0 0b 33
        E 16 b0 0b 44
        E 16 b0 0b 55
        E 16 b0 0b 66
        E 16 b0 0b 4c
        E 16 b0 0b 3b
        E 16 b0 0b 2a
        E 16 b0 0b 22
        E 32 80 45 00
        E 0 90 43 22
        E 16 b0 0b 33
        E 16 b0 0b 44
        E 16 b0 0b 55
        E 16 b0 0b 66
        E 16 b0 0b 4c
        E 16 b0 0b 3b
        E 16 b0 0b 2a
        E 16 b0 0b 22
        E 32 80 43 00
        E 0 90 41 22
        E 16 b0 0b 33
        E 16 b0 0b 44
        E 16 b0 0b 55
        E 16 b0 0b 66
        E 16 b0 0b 4c
        E 16 b0 0b 3b
        E 16 b0 0b 2a
        E 16 b0 0b 22
        E 32 80 41 00
        E 0 90 45 22
        E 16 b0 0b 33
        E 16 b0 0b 44
        E 16 b0 0b 55
        E 16 b0 0b 66
        E 16 b0 0b 4c
        E 16 b0 0b 3b
        E 16 b0 0b 2a
        E 16 b0 0b 22
        E 32 80 45 00
        E 0 90 43 22
        E 16 b0 0b 33
        E 16 b0 0b 44
        E 16 b0 0b 55
        E 16 b0 0b 66
        E 16 b0 0b 4c
        E 16 b0 0b 3b
        E 16 b0 0b 2a
        E 16 b0 0b 22
        E 192 80 43 00
        E 0 90 3c 22
        E 16 b0 0b 33
        E 16 b0 0b 44
        E 16 b0 0b 55
        E 16 b0 0b 66
        E 16 b0 0b 4c
        E 16 b0 0b 3b
        E 16 b0 0b 2a
        E 16 b0 0b 22
        E 32 80 3c 00
        E 0 90 3e 22
        E 16 b0 0b 33
        E 16 b0 0b 44
        E 16 b0 0b 55
        E 16 b0 0b 66
        E 16 b0 0b 4c
        E 16 b0 0b 3b
        E 16 b0 0b 2a
        E 16 b0 0b 22
        E 32 80 3e 00
        E 0 90 3f 22
        E 16 b0 0b 33
        E 16 b0 0b 44
        E 16 b0 0b 55
        E 16 b0 0b 66
        E 16 b0 0b 4c
        E 16 b0 0b 3b
        E 16 b0 0b 2a
        E 16 b0 0b 22
        E 352 80 3f 00
        E 0 90 3c 22
        E 48 b0 0b 2a
        E 48 b0 0b 33
        E 32 b0 0b 3b
        E 48 b0 0b 44
        E 48 b0 0b 4c
        E 32 b0 0b 55
        E 48 b0 0b 5d
        E 48 b0 0b 66
        E 16 b0 0b 5d
        E 16 b0 0b 55
        E 48 b0 0b 4c
        E 48 b0 0b 44
        E 32 b0 0b 3b
        E 48 b0 0b 33
        E 48 b0 0b 2a
        E 32 b0 0b 22
        E 1456 b0 0b 33
        E 16 b0 0b 44
        E 16 b0 0b 55
        E 16 b0 0b 66
        E 16 b0 0b 4c
        E 16 b0 0b 3b
        E 16 b0 0b 2a
        E 16 b0 0b 22
        E 192 80 3c 00
        E 0 90 41 22
        E 16 b0 0b 33
        E 16 b0 0b 44
        E 16 b0 0b 55
        E 16 b0 0b 66
        E 16 b0 0b 4c
        E 16 b0 0b 3b
        E 16 b0 0b 2a
        E 16 b0 0b 22
        E 192 80 41 00
        E 0 90 43 22
        E 16 b0 0b 33
        E 16 b0 0b 44
        E 16 b0 0b 55
        E 16 b0 0b 66
        E 16 b0 0b 4c
        E 16 b0 0b 3b
        E 16 b0 0b 2a
        E 16 b0 0b 22
        E 192 80 43 00
        E 0 90 46 22
        E 16 b0 0b 33
        E 16 b0 0b 44
        E 16 b0 0b 55
        E 16 b0 0b 66
        E 16 b0 0b 4c
        E 16 b0 0b 3b
        E 16 b0 0b 2a
        E 16 b0 0b 22
        E 192 80 46 00
        E 0 90 45 22
        E 16 b0 0b 33
        E 16 b0 0b 44
        E 16 b0 0b 55
        E 16 b0 0b 66
        E 16 b0 0b 4c
        E 16 b0 0b 3b
        E 16 b0 0b 2a
        E 16 b0 0b 22
        E 32 80 45 00
        E 0 90 43 22
        E 16 b0 0b 33
        E 16 b0 0b 44
        E 16 b0 0b 55
        E 16 b0 0b 66
        E 16 b0 0b 4c
        E 16 b0 0b 3b
        E 16 b0 0b 2a
        E 16 b0 0b 22
        E 32 80 43 00
        E 0 90 41 22
        E 16 b0 0b 33
        E 16 b0 0b 44
        E 16 b0 0b 55
        E 16 b0 0b 66
        E 16 b0 0b 4c
        E 16 b0 0b 3b
        E 16 b0 0b 2a
        E 16 b0 0b 22
        E 32 80 41 00
        E 0 90 45 22
        E 16 b0 0b 33
        E 16 b0 0b 44
        E 16 b0 0b 55
        E 16 b0 0b 66
        E 16 b0 0b 4c
        E 16 b0 0b 3b
        E 16 b0 0b 2a
        E 16 b0 0b 22
        E 32 80 45 00
        E 0 90 43 22
        E 16 b0 0b 33
        E 16 b0 0b 44
        E 16 b0 0b 55
        E 16 b0 0b 66
        E 16 b0 0b 4c
        E 16 b0 0b 3b
        E 16 b0 0b 2a
        E 16 b0 0b 22
        E 192 80 43 00
        E 0 90 3f 22
        E 16 b0 0b 33
        E 16 b0 0b 44
        E 16 b0 0b 55
        E 16 b0 0b 66
        E 16 b0 0b 4c
        E 16 b0 0b 3b
        E 16 b0 0b 2a
        E 16 b0 0b 22
        E 32 80 3f 00
        E 0 90 41 22
        E 16 b0 0b 33
        E 16 b0 0b 44
        E 16 b0 0b 55
        E 16 b0 0b 66
        E 16 b0 0b 4c
        E 16 b0 0b 3b
        E 16 b0 0b 2a
        E 16 b0 0b 22
        E 32 80 41 00
        E 0 90 43 22
        E 16 b0 0b 33
        E 16 b0 0b 44
        E 16 b0 0b 55
        E 16 b0 0b 66
        E 16 b0 0b 4c
        E 16 b0 0b 3b
        E 16 b0 0b 2a
        E 16 b0 0b 22
        E 352 80 43 00
        E 0 90 48 22
        E 48 b0 0b 2a
        E 48 b0 0b 33
        E 32 b0 0b 3b
        E 48 b0 0b 44
        E 48 b0 0b 4c
        E 32 b0 0b 55
        E 48 b0 0b 5d
        E 48 b0 0b 66
        E 16 b0 0b 5d
        E 16 b0 0b 55
        E 48 b0 0b 4c
        E 48 b0 0b 44
        E 32 b0 0b 3b
        E 48 b0 0b 33
        E 48 b0 0b 2a
        E 32 b0 0b 22
        E 640 80 48 00
        E 160 b0 0b 66
        E 0 90 3a 66
        E 16 b0 0b 55
        E 16 b0 0b 44
        E 16 b0 0b 33
        E 16 b0 0b 19
        E 16 b0 0b 66
        E 0 80 3a 00
        E 0 90 3c 66
        E 16 b0 0b 55
        E 16 b0 0b 44
        E 16 b0 0b 33
        E 16 b0 0b 19
        E 16 b0 0b 66
        E 0 80 3c 00
        E 0 90 3e 66
        E 16 b0 0b 55
        E 16 b0 0b 44
        E 16 b0 0b 33
        E 16 b0 0b 19
        E 16 b0 0b 66
        E 0 80 3e 00
        E 0 90 3f 66
        E 16 b0 0b 55
        E 16 b0 0b 44
        E 16 b0 0b 33
        E 16 b0 0b 19
        E 16 b0 0b 66
        E 0 80 3f 00
        E 0 90 41 66
        E 16 b0 0b 55
        E 16 b0 0b 44
        E 16 b0 0b 33
        E 16 b0 0b 19
        E 16 b0 0b 66
        E 0 80 41 00
        E 0 90 43 66
        E 16 b0 0b 55
        E 16 b0 0b 44
        E 16 b0 0b 33
        E 16 b0 0b 19
        E 16 b0 0b 66
        E 0 80 43 00
        E 0 90 44 66
        E 16 b0 0b 55
        E 16 b0 0b 44
        E 16 b0 0b 33
        E 16 b0 0b 19
        E 16 b0 0b 66
        E 0 80 44 00
        E 0 90 45 66
        E 16 b0 0b 55
        E 16 b0 0b 44
        E 16 b0 0b 33
        E 16 b0 0b 19
        E 16 b0 0b 66
        E 0 80 45 00
        E 0 90 46 66
        E 16 b0 0b 5d
        E 16 b0 0b 55
        E 16 b0 0b 44
        E 16 b0 0b 3b
        E 16 b0 0b 2a
        E 16 b0 0b 19
        E 16 b0 0b 08
        E 16 80 46 00
        E 32 b0 0b 66
        E 0 90 44 66
        E 16 b0 0b 5d
        E 16 b0 0b 55
        E 16 b0 0b 44
        E 16 b0 0b 3b
        E 16 b0 0b 2a
        E 16 b0 0b 19
        E 16 b0 0b 08
        E 16 80 44 00
        E 32 b0 0b 66
        E 0 90 41 66
        E 16 b0 0b 5d
        E 16 b0 0b 55
        E 16 b0 0b 44
        E 16 b0 0b 3b
        E 16 b0 0b 2a
        E 16 b0 0b 19
        E 16 b0 0b 08
        E 16 80 41 00
        E 32 b0 0b 66
        E 0 90 46 66
        E 16 b0 0b 5d
        E 16 b0 0b 55
        E 16 b0 0b 44
        E 16 b0 0b 3b
        E 16 b0 0b 2a
        E 16 b0 0b 19
        E 16 b0 0b 08
        E 16 80 46 00
        E 32 b0 0b 66
        E 0 90 44 66
        E 16 b0 0b 5d
        E 16 b0 0b 55
        E 16 b0 0b 44
        E 16 b0 0b 3b
        E 16 b0 0b 2a
        E 16 b0 0b 19
        E 16 b0 0b 08
        E 16 80 44 00
        E 192 b0 0b 66
        E 0 90 3f 66
        E 16 b0 0b 5d
        E 16 b0 0b 55
        E 16 b0 0b 44
        E 16 b0 0b 3b
        E 16 b0 0b 2a
        E 16 b0 0b 19
        E 16 b0 0b 08
        E 16 80 3f 00
        E 32 b0 0b 66
        E 0 90 41 66
        E 16 b0 0b 5d
        E 16 b0 0b 55
        E 16 b0 0b 44
        E 16 b0 0b 3b
        E 16 b0 0b 2a
        E 16 b0 0b 19
        E 16 b0 0b 08
        E 16 80 41 00
        E 32 b0 0b 66
        E 0 90 46 66
        E 16 b0 0b 5d
        E 16 b0 0b 55
        E 16 b0 0b 44
        E 16 b0 0b 3b
        E 16 b0 0b 2a
        E 16 b0 0b 19
        E 16 b0 0b 08
        E 16 80 46 00
        E 32 b0 0b 66
        E 0 90 44 66
        E 16 b0 0b 5d
        E 16 b0 0b 55
        E 16 b0 0b 44
        E 16 b0 0b 3b
        E 16 b0 0b 2a
        E 16 b0 0b 19
        E 16 b0 0b 08
        E 16 80 44 00
        E 32 b0 0b 66
        E 0 90 41 66
        E 16 b0 0b 5d
        E 16 b0 0b 55
        E 16 b0 0b 44
        E 16 b0 0b 3b
        E 16 b0 0b 2a
        E 16 b0 0b 19
        E 16 b0 0b 08
        E 16 80 41 00
        E 32 b0 0b 66
        E 0 90 46 66
        E 16 b0 0b 5d
        E 16 b0 0b 55
        E 16 b0 0b 44
        E 16 b0 0b 3b
        E 16 b0 0b 2a
        E 16 b0 0b 19
        E 16 b0 0b 08
        E 16 80 46 00
        E 32 b0 0b 66
        E 0 90 44 66
        E 16 b0 0b 5d
        E 16 b0 0b 55
        E 16 b0 0b 44
        E 16 b0 0b 3b
        E 16 b0 0b 2a
        E 16 b0 0b 19
        E 16 b0 0b 08
        E 16 80 44 00
        E 512 b0 0b 66
        E 0 90 46 66
        E 16 b0 0b 5d
        E 16 b0 0b 55
        E 16 b0 0b 44
        E 16 b0 0b 3b
        E 16 b0 0b 2a
        E 16 b0 0b 19
        E 16 b0 0b 08
        E 16 80 46 00
        E 32 b0 0b 66
        E 0 90 44 66
        E 16 b0 0b 5d
        E 16 b0 0b 55
        E 16 b0 0b 44
        E 16 b0 0b 3b
        E 16 b0 0b 2a
        E 16 b0 0b 19
        E 16 b0 0b 08
        E 16 80 44 00
        E 32 b0 0b 66
        E 0 90 41 66
        E 16 b0 0b 5d
        E 16 b0 0b 55
        E 16 b0 0b 44
        E 16 b0 0b 3b
        E 16 b0 0b 2a
        E 16 b0 0b 19
        E 16 b0 0b 08
        E 16 80 41 00
        E 32 b0 0b 66
        E 0 90 46 66
        E 16 b0 0b 5d
        E 16 b0 0b 55
        E 16 b0 0b 44
        E 16 b0 0b 3b
        E 16 b0 0b 2a
        E 16 b0 0b 19
        E 16 b0 0b 08
        E 16 80 46 00
        E 32 b0 0b 66
        E 0 90 44 66
        E 16 b0 0b 5d
        E 16 b0 0b 55
        E 16 b0 0b 44
        E 16 b0 0b 3b
        E 16 b0 0b 2a
        E 16 b0 0b 19
        E 16 b0 0b 08
        E 16 80 44 00
        E 192 b0 0b 66
        E 0 90 3f 66
        E 16 b0 0b 5d
        E 16 b0 0b 55
        E 16 b0 0b 44
        E 16 b0 0b 3b
        E 16 b0 0b 2a
        E 16 b0 0b 19
        E 16 b0 0b 08
        E 16 80 3f 00
        E 32 b0 0b 66
        E 0 90 41 66
        E 16 b0 0b 5d
        E 16 b0 0b 55
        E 16 b0 0b 44
        E 16 b0 0b 3b
        E 16 b0 0b 2a
        E 16 b0 0b 19
        E 16 b0 0b 08
        E 16 80 41 00
        E 32 b0 0b 66
        E 0 90 46 66
        E 16 b0 0b 5d
        E 16 b0 0b 55
        E 16 b0 0b 44
        E 16 b0 0b 3b
        E 16 b0 0b 2a
        E 16 b0 0b 19
        E 16 b0 0b 08
        E 16 80 46 00
        E 32 b0 0b 66
        E 0 90 44 66
        E 16 b0 0b 5d
        E 16 b0 0b 55
        E 16 b0 0b 44
        E 16 b0 0b 3b
        E 16 b0 0b 2a
        E 16 b0 0b 19
        E 16 b0 0b 08
        E 16 80 44 00
        E 32 b0 0b 66
        E 0 90 41 66
        E 16 b0 0b 5d
        E 16 b0 0b 55
        E 16 b0 0b 44
        E 16 b0 0b 3b
        E 16 b0 0b 2a
        E 16 b0 0b 19
        E 16 b0 0b 08
        E 16 80 41 00
        E 32 b0 0b 66
        E 0 90 46 66
        E 16 b0 0b 5d
        E 16 b0 0b 55
        E 16 b0 0b 44
        E 16 b0 0b 3b
        E 16 b0 0b 2a
        E 16 b0 0b 19
        E 16 b0 0b 08
        E 16 80 46 00
        E 32 b0 0b 66
        E 0 90 44 66
        E 16 b0 0b 5d
        E 16 b0 0b 55
        E 16 b0 0b 44
        E 16 b0 0b 3b
        E 16 b0 0b 2a
        E 16 b0 0b 19
        E 16 b0 0b 08
        E 16 80 44 00
        E 512 b0 0b 66
        E 0 90 43 66
        E 16 b0 0b 5d
        E 16 b0 0b 55
        E 16 b0 0b 44
        E 16 b0 0b 3b
        E 16 b0 0b 2a
        E 16 b0 0b 19
        E 16 b0 0b 08
        E 16 80 43 00
        E 32 b0 0b 66
        E 0 90 41 66
        E 16 b0 0b 5d
        E 16 b0 0b 55
        E 16 b0 0b 44
        E 16 b0 0b 3b
        E 16 b0 0b 2a
        E 16 b0 0b 19
        E 16 b0 0b 08
        E 16 80 41 00
        E 32 b0 0b 66
        E 0 90 3e 66
        E 16 b0 0b 5d
        E 16 b0 0b 55
        E 16 b0 0b 44
        E 16 b0 0b 3b
        E 16 b0 0b 2a
        E 16 b0 0b 19
        E 16 b0 0b 08
        E 16 80 3e 00
        E 32 b0 0b 66
        E 0 90 43 66
        E 16 b0 0b 5d
        E 16 b0 0b 55
        E 16 b0 0b 44
        E 16 b0 0b 3b
        E 16 b0 0b 2a
        E 16 b0 0b 19
        E 16 b0 0b 08
        E 16 80 43 00
        E 32 b0 0b 66
        E 0 90 41 66
        E 16 b0 0b 5d
        E 16 b0 0b 55
        E 16 b0 0b 44
        E 16 b0 0b 3b
        E 16 b0 0b 2a
        E 16 b0 0b 19
        E 16 b0 0b 08
        E 16 80 41 00
        E 192 b0 0b 66
        E 0 90 3c 66
        E 16 b0 0b 5d
        E 16 b0 0b 55
        E 16 b0 0b 44
        E 16 b0 0b 3b
        E 16 b0 0b 2a
        E 16 b0 0b 19
        E 16 b0 0b 08
        E 16 80 3c 00
        E 32 b0 0b 66
        E 0 90 3f 66
        E 16 b0 0b 5d
        E 16 b0 0b 55
        E 16 b0 0b 44
        E 16 b0 0b 3b
        E 16 b0 0b 2a
        E 16 b0 0b 19
        E 16 b0 0b 08
        E 16 80 3f 00
        E 32 b0 0b 66
        E 0 90 41 66
        E 16 b0 0b 5d
        E 16 b0 0b 55
        E 16 b0 0b 44
        E 16 b0 0b 3b
        E 16 b0 0b 2a
        E 16 b0 0b 19
        E 16 b0 0b 08
        E 16 80 41 00
        E 32 b0 0b 66
        E 0 90 3e 66
        E 16 b0 0b 5d
        E 16 b0 0b 55
        E 16 b0 0b 44
        E 16 b0 0b 3b
        E 16 b0 0b 2a
        E 16 b0 0b 19
        E 16 b0 0b 08
        E 16 80 3e 00
        E 32 b0 0b 66
        E 0 90 3a 66
        E 16 b0 0b 5d
        E 16 b0 0b 55
        E 16 b0 0b 44
        E 16 b0 0b 3b
        E 16 b0 0b 2a
        E 16 b0 0b 19
        E 16 b0 0b 08
        E 16 80 3a 00
        E 32 b0 0b 66
        E 0 90 41 66
        E 16 b0 0b 5d
        E 16 b0 0b 55
        E 16 b0 0b 44
        E 16 b0 0b 3b
        E 16 b0 0b 2a
        E 16 b0 0b 19
        E 16 b0 0b 08
        E 16 80 41 00
        E 32 b0 0b 66
        E 0 90 3f 66
        E 16 b0 0b 5d
        E 16 b0 0b 55
        E 16 b0 0b 44
        E 16 b0 0b 3b
        E 16 b0 0b 2a
        E 16 b0 0b 19
        E 16 b0 0b 08
        E 16 80 3f 00
        E 192 b0 0b 66
        E 0 90 3a 66
        E 16 b0 0b 5d
        E 16 b0 0b 55
        E 16 b0 0b 44
        E 16 b0 0b 3b
        E 16 b0 0b 2a
        E 16 b0 0b 19
        E 16 b0 0b 08
        E 16 80 3a 00
        E 32 b0 0b 66
        E 0 90 3d 66
        E 16 b0 0b 5d
        E 16 b0 0b 55
        E 16 b0 0b 44
        E 16 b0 0b 3b
        E 16 b0 0b 2a
        E 16 b0 0b 19
        E 16 b0 0b 08
        E 16 80 3d 00
        E 32 b0 0b 22
        E 0 90 3c 22
        E 48 b0 0b 2a
        E 48 b0 0b 33
        E 32 b0 0b 3b
        E 48 b0 0b 44
        E 48 b0 0b 4c
        E 32 b0 0b 55
        E 48 b0 0b 5d
        E 48 b0 0b 66
        E 16 b0 0b 5d
        E 16 b0 0b 55
        E 48 b0 0b 4c
        E 48 b0 0b 44
        E 32 b0 0b 3b
        E 48 b0 0b 33
        E 48 b0 0b 2a
        E 32 b0 0b 66
        E 0 80 3c 00
        E 0 90 40 66
        E 16 b0 0b 55
        E 16 b0 0b 44
        E 16 b0 0b 33
        E 16 b0 0b 19
        E 16 80 40 00
        E 80 b0 0b 66
        E 0 90 3c 66
        E 16 b0 0b 55
        E 16 b0 0b 44
        E 16 b0 0b 33
        E 16 b0 0b 19
        E 16 b0 0b 66
        E 0 80 3c 00
        E 0 90 40 66
        E 16 b0 0b 55
        E 16 b0 0b 44
        E 16 b0 0b 33
        E 16 b0 0b 19
        E 16 b0 0b 66
        E 0 80 40 00
        E 0 90 43 66
        E 16 b0 0b 55
        E 16 b0 0b 44
        E 16 b0 0b 33
        E 16 b0 0b 19
        E 16 80 43 00
        E 80 b0 0b 66
        E 0 90 40 66
        E 16 b0 0b 55
        E 16 b0 0b 44
        E 16 b0 0b 33
        E 16 b0 0b 19
        E 16 b0 0b 66
        E 0 80 40 00
        E 0 90 43 66
        E 16 b0 0b 55
        E 16 b0 0b 44
        E 16 b0 0b 33
        E 16 b0 0b 19
        E 16 b0 0b 66
        E 0 80 43 00
        E 0 90 48 66
        E 16 b0 0b 5d
        E 16 b0 0b 55
        E 16 b0 0b 4c
        E 16 b0 0b 44
        E 16 b0 0b 3b
        E 16 b0 0b 33
        E 16 b0 0b 2a
        E 16 b0 0b 22
        E 16 b0 0b 2a
        E 16 b0 0b 33
        E 16 b0 0b 3b
        E 16 b0 0b 44
        E 16 b0 0b 3b
        E 16 b0 0b 33
        E 16 b0 0b 2a
        E 16 b0 0b 22
        E 16 b0 0b 2a
        E 16 b0 0b 33
        E 16 b0 0b 3b
        E 16 b0 0b 44
        E 16 b0 0b 3b
        E 16 b0 0b 33
        E 16 b0 0b 2a
        E 16 b0 0b 22
        E 16 b0 0b 2a
        E 16 b0 0b 33
        E 16 b0 0b 3b
        E 16 b0 0b 44
        E 16 b0 0b 4c
        E 16 b0 0b 55
        E 16 b0 0b 5d
        E 784 b0 0b 22
        E 0 80 48 00
        E 0 90 3c 22
        E 16 b0 0b 33
        E 16 b0 0b 44
        E 16 b0 0b 55
        E 16 b0 0b 66
        E 16 b0 0b 4c
        E 16 b0 0b 3b
        E 16 b0 0b 2a
        E 16 b0 0b 22
        E 192 80 3c 00
        E 0 90 41 22
        E 16 b0 0b 33
        E 16 b0 0b 44
        E 16 b0 0b 55
        E 16 b0 0b 66
        E 16 b0 0b 4c
        E 16 b0 0b 3b
        E 16 b0 0b 2a
        E 16 b0 0b 22
        E 192 80 41 00
        E 0 90 43 22
        E 16 b0 0b 33
        E 16 b0 0b 44
        E 16 b0 0b 55
        E 16 b0 0b 66
        E 16 b0 0b 4c
        E 16 b0 0b 3b
        E 16 b0 0b 2a
        E 16 b0 0b 22
        E 192 80 43 00
        E 0 90 46 22
        E 16 b0 0b 33
        E 16 b0 0b 44
        E 16 b0 0b 55
        E 16 b0 0b 66
        E 16 b0 0b 4c
        E 16 b0 0b 3b
        E 16 b0 0b 2a
        E 16 b0 0b 22
        E 192 80 46 00
        E 0 90 45 22
        E 16 b0 0b 33
        E 16 b0 0b 44
        E 16 b0 0b 55
        E 16 b0 0b 66
        E 16 b0 0b 4c
        E 16 b0 0b 3b
        E 16 b0 0b 2a
        E 16 b0 0b 22
        E 32 80 45 00
        E 0 90 43 22
        E 16 b0 0b 33
        E 16 b0 0b 44
        E 16 b0 0b 55
        E 16 b0 0b 66
        E 16 b0 0b 4c
        E 16 b0 0b 3b
        E 16 b0 0b 2a
        E 16 b0 0b 22
        E 32 80 43 00
        E 0 90 41 22
        E 16 b0 0b 33
        E 16 b0 0b 44
        E 16 b0 0b 55
        E 16 b0 0b 66
        E 16 b0 0b 4c
        E 16 b0 0b 3b
        E 16 b0 0b 2a
        E 16 b0 0b 22
        E 32 80 41 00
        E 0 90 45 22
        E 16 b0 0b 33
        E 16 b0 0b 44
        E 16 b0 0b 55
        E 16 b0 0b 66
        E 16 b0 0b 4c
        E 16 b0 0b 3b
        E 16 b0 0b 2a
        E 16 b0 0b 22
        E 32 80 45 00
        E 0 90 43 22
        E 16 b0 0b 33
        E 16 b0 0b 44
        E 16 b0 0b 55
        E 16 b0 0b 66
        E 16 b0 0b 4c
        E 16 b0 0b 3b
        E 16 b0 0b 2a
        E 16 b0 0b 22
        E 192 80 43 00
        E 0 90 3c 22
        E 16 b0 0b 33
        E 16 b0 0b 44
        E 16 b0 0b 55
        E 16 b0 0b 66
        E 16 b0 0b 4c
        E 16 b0 0b 3b
        E 16 b0 0b 2a
        E 16 b0 0b 22
        E 32 80 3c 00
        E 0 90 3e 22
        E 16 b0 0b 33
        E 16 b0 0b 44
        E 16 b0 0b 55
        E 16 b0 0b 66
        E 16 b0 0b 4c
        E 16 b0 0b 3b
        E 16 b0 0b 2a
        E 16 b0 0b 22
        E 32 80 3e 00
        E 0 90 3f 22
        E 16 b0 0b 33
        E 16 b0 0b 44
        E 16 b0 0b 55
        E 16 b0 0b 66
        E 16 b0 0b 4c
        E 16 b0 0b 3b
        E 16 b0 0b 2a
        E 16 b0 0b 22
        E 352 80 3f 00
        E 0 90 3c 22
        E 48 b0 0b 2a
        E 48 b0 0b 33
        E 32 b0 0b 3b
        E 48 b0 0b 44
        E 48 b0 0b 4c
        E 32 b0 0b 55
        E 48 b0 0b 5d
        E 48 b0 0b 66
        E 16 b0 0b 5d
        E 16 b0 0b 55
        E 48 b0 0b 4c
        E 48 b0 0b 44
        E 32 b0 0b 3b
        E 48 b0 0b 33
        E 48 b0 0b 2a
        E 32 b0 0b 22
        E 1456 b0 0b 33
        E 16 b0 0b 44
        E 16 b0 0b 55
        E 16 b0 0b 66
        E 16 b0 0b 4c
        E 16 b0 0b 3b
        E 16 b0 0b 2a
        E 16 b0 0b 22
        E 192 80 3c 00
        E 0 90 41 22
        E 16 b0 0b 33
        E 16 b0 0b 44
        E 16 b0 0b 55
        E 16 b0 0b 66
        E 16 b0 0b 4c
        E 16 b0 0b 3b
        E 16 b0 0b 2a
        E 16 b0 0b 22
        E 192 80 41 00
        E 0 90 43 22
        E 16 b0 0b 33
        E 16 b0 0b 44
        E 16 b0 0b 55
        E 16 b0 0b 66
        E 16 b0 0b 4c
        E 16 b0 0b 3b
        E 16 b0 0b 2a
        E 16 b0 0b 22
        E 192 80 43 00
        E 0 90 46 22
        E 16 b0 0b 33
        E 16 b0 0b 44
        E 16 b0 0b 55
        E 16 b0 0b 66
        E 16 b0 0b 4c
        E 16 b0 0b 3b
        E 16 b0 0b 2a
        E 16 b0 0b 22
        E 192 80 46 00
        E 0 90 45 22
        E 16 b0 0b 33
        E 16 b0 0b 44
        E 16 b0 0b 55
        E 16 b0 0b 66
        E 16 b0 0b 4c
        E 16 b0 0b 3b
        E 16 b0 0b 2a
        E 16 b0 0b 22
        E 32 80 45 00
        E 0 90 43 22
        E 16 b0 0b 33
        E 16 b0 0b 44
        E 16 b0 0b 55
        E 16 b0 0b 66
        E 16 b0 0b 4c
        E 16 b0 0b 3b
        E 16 b0 0b 2a
        E 16 b0 0b 22
        E 32 80 43 00
        E 0 90 41 22
        E 16 b0 0b 33
        E 16 b0 0b 44
        E 16 b0 0b 55
        E 16 b0 0b 66
        E 16 b0 0b 4c
        E 16 b0 0b 3b
        E 16 b0 0b 2a
        E 16 b0 0b 22
        E 32 80 41 00
        E 0 90 45 22
        E 16 b0 0b 33
        E 16 b0 0b 44
        E 16 b0 0b 55
        E 16 b0 0b 66
        E 16 b0 0b 4c
        E 16 b0 0b 3b
        E 16 b0 0b 2a
        E 16 b0 0b 22
        E 32 80 45 00
        E 0 90 43 22
        E 16 b0 0b 33
        E 16 b0 0b 44
        E 16 b0 0b 55
        E 16 b0 0b 66
        E 16 b0 0b 4c
        E 16 b0 0b 3b
        E 16 b0 0b 2a
        E 16 b0 0b 22
        E 192 80 43 00
        E 0 90 3f 22
        E 16 b0 0b 33
        E 16 b0 0b 44
        E 16 b0 0b 55
        E 16 b0 0b 66
        E 16 b0 0b 4c
        E 16 b0 0b 3b
        E 16 b0 0b 2a
        E 16 b0 0b 22
        E 32 80 3f 00
        E 0 90 41 22
        E 16 b0 0b 33
        E 16 b0 0b 44
        E 16 b0 0b 55
        E 16 b0 0b 66
        E 16 b0 0b 4c
        E 16 b0 0b 3b
        E 16 b0 0b 2a
        E 16 b0 0b 22
        E 32 80 41 00
        E 0 90 43 22
        E 16 b0 0b 33
        E 16 b0 0b 44
        E 16 b0 0b 55
        E 16 b0 0b 66
        E 16 b0 0b 4c
        E 16 b0 0b 3b
        E 16 b0 0b 2a
        E 16 b0 0b 22
        E 352 80 43 00
        E 0 90 48 22
        E 48 b0 0b 2a
        E 48 b0 0b 33
        E 32 b0 0b 3b
        E 48 b0 0b 44
        E 48 b0 0b 4c
        E 32 b0 0b 55
        E 48 b0 0b 5d
        E 48 b0 0b 66
        E 16 b0 0b 5d
        E 16 b0 0b 55
        E 48 b0 0b 4c
        E 48 b0 0b 44
        E 32 b0 0b 3b
        E 48 b0 0b 33
        E 48 b0 0b 2a
        E 32 b0 0b 22
        E 640 80 48 00
        E 160 b0 0b 66
        E 0 90 3a 66
        E 16 b0 0b 55
        E 16 b0 0b 44
        E 16 b0 0b 33
        E 16 b0 0b 19
        E 16 b0 0b 66
        E 0 80 3a 00
        E 0 90 3c 66
        E 16 b0 0b 55
        E 16 b0 0b 44
        E 16 b0 0b 33
        E 16 b0 0b 19
        E 16 b0 0b 66
        E 0 80 3c 00
        E 0 90 3e 66
        E 16 b0 0b 55
        E 16 b0 0b 44
        E 16 b0 0b 33
        E 16 b0 0b 19
        E 16 b0 0b 66
        E 0 80 3e 00
        E 0 90 3f 66
        E 16 b0 0b 55
        E 16 b0 0b 44
        E 16 b0 0b 33
        E 16 b0 0b 19
        E 16 b0 0b 66
        E 0 80 3f 00
        E 0 90 41 66
        E 16 b0 0b 55
        E 16 b0 0b 44
        E 16 b0 0b 33
        E 16 b0 0b 19
        E 16 b0 0b 66
        E 0 80 41 00
        E 0 90 43 66
        E 16 b0 0b 55
        E 16 b0 0b 44
        E 16 b0 0b 33
        E 16 b0 0b 19
        E 16 b0 0b 66
        E 0 80 43 00
        E 0 90 44 66
        E 16 b0 0b 55
        E 16 b0 0b 44
        E 16 b0 0b 33
        E 16 b0 0b 19
        E 16 b0 0b 66
        E 0 80 44 00
        E 0 90 45 66
        E 16 b0 0b 55
        E 16 b0 0b 44
        E 16 b0 0b 33
        E 16 b0 0b 19
        E 16 b0 0b 66
        E 0 80 45 00
        E 0 90 46 66
        E 16 b0 0b 5d
        E 16 b0 0b 55
        E 16 b0 0b 44
        E 16 b0 0b 3b
        E 16 b0 0b 2a
        E 16 b0 0b 19
        E 16 b0 0b 08
        E 16 80 46 00
        E 32 b0 0b 66
        E 0 90 44 66
        E 16 b0 0b 5d
        E 16 b0 0b 55
        E 16 b0 0b 44
        E 16 b0 0b 3b
        E 16 b0 0b 2a
        E 16 b0 0b 19
        E 16 b0 0b 08
        E 16 80 44 00
        E 32 b0 0b 66
        E 0 90 41 66
        E 16 b0 0b 5d
        E 16 b0 0b 55
        E 16 b0 0b 44
        E 16 b0 0b 3b
        E 16 b0 0b 2a
        E 16 b0 0b 19
        E 16 b0 0b 08
        E 16 80 41 00
        E 32 b0 0b 66
        E 0 90 46 66
        E 16 b0 0b 5d
        E 16 b0 0b 55
        E 16 b0 0b 44
        E 16 b0 0b 3b
        E 16 b0 0b 2a
        E 16 b0 0b 19
        E 16 b0 0b 08
        E 16 80 46 00
        E 32 b0 0b 66
        E 0 90 44 66
        E 16 b0 0b 5d
        E 16 b0 0b 55
        E 16 b0 0b 44
        E 16 b0 0b 3b
        E 16 b0 0b 2a
        E 16 b0 0b 19
        E 16 b0 0b 08
        E 16 80 44 00
        E 192 b0 0b 66
        E 0 90 3f 66
        E 16 b0 0b 5d
        E 16 b0 0b 55
        E 16 b0 0b 44
        E 16 b0 0b 3b
        E 16 b0 0b 2a
        E 16 b0 0b 19
        E 16 b0 0b 08
        E 16 80 3f 00
        E 32 b0 0b 66
        E 0 90 41 66
        E 16 b0 0b 5d
        E 16 b0 0b 55
        E 16 b0 0b 44
        E 16 b0 0b 3b
        E 16 b0 0b 2a
        E 16 b0 0b 19
        E 16 b0 0b 08
        E 16 80 41 00
        E 32 b0 0b 66
        E 0 90 46 66
        E 16 b0 0b 5d
        E 16 b0 0b 55
        E 16 b0 0b 44
        E 16 b0 0b 3b
        E 16 b0 0b 2a
        E 16 b0 0b 19
        E 16 b0 0b 08
        E 16 80 46 00
        E 32 b0 0b 66
        E 0 90 44 66
        E 16 b0 0b 5d
        E 16 b0 0b 55
        E 16 b0 0b 44
        E 16 b0 0b 3b
        E 16 b0 0b 2a
        E 16 b0 0b 19
        E 16 b0 0b 08
        E 16 80 44 00
        E 32 b0 0b 66
        E 0 90 41 66
        E 16 b0 0b 5d
        E 16 b0 0b 55
        E 16 b0 0b 44
        E 16 b0 0b 3b
        E 16 b0 0b 2a
        E 16 b0 0b 19
        E 16 b0 0b 08
        E 16 80 41 00
        E 32 b0 0b 66
        E 0 90 46 66
        E 16 b0 0b 5d
        E 16 b0 0b 55
        E 16 b0 0b 44
        E 16 b0 0b 3b
        E 16 b0 0b 2a
        E 16 b0 0b 19
        E 16 b0 0b 08
        E 16 80 46 00
        E 32 b0 0b 66
        E 0 90 44 66
        E 16 b0 0b 5d
        E 16 b0 0b 55
        E 16 b0 0b 44
        E 16 b0 0b 3b
        E 16 b0 0b 2a
        E 16 b0 0b 19
        E 16 b0 0b 08
        E 16 80 44 00
        E 512 b0 0b 66
        E 0 90 46 66
        E 16 b0 0b 5d
        E 16 b0 0b 55
        E 16 b0 0b 44
        E 16 b0 0b 3b
        E 16 b0 0b 2a
        E 16 b0 0b 19
        E 16 b0 0b 08
        E 16 80 46 00
        E 32 b0 0b 66
        E 0 90 44 66
        E 16 b0 0b 5d
        E 16 b0 0b 55
        E 16 b0 0b 44
        E 16 b0 0b 3b
        E 16 b0 0b 2a
        E 16 b0 0b 19
        E 16 b0 0b 08
        E 16 80 44 00
        E 32 b0 0b 66
        E 0 90 41 66
        E 16 b0 0b 5d
        E 16 b0 0b 55
        E 16 b0 0b 44
        E 16 b0 0b 3b
        E 16 b0 0b 2a
        E 16 b0 0b 19
        E 16 b0 0b 08
        E 16 80 41 00
        E 32 b0 0b 66
        E 0 90 46 66
        E 16 b0 0b 5d
        E 16 b0 0b 55
        E 16 b0 0b 44
        E 16 b0 0b 3b
        E 16 b0 0b 2a
        E 16 b0 0b 19
        E 16 b0 0b 08
        E 16 80 46 00
        E 32 b0 0b 66
        E 0 90 44 66
        E 16 b0 0b 5d
        E 16 b0 0b 55
        E 16 b0 0b 44
        E 16 b0 0b 3b
        E 16 b0 0b 2a
        E 16 b0 0b 19
        E 16 b0 0b 08
        E 16 80 44 00
        E 192 b0 0b 66
        E 0 90 3f 66
        E 16 b0 0b 5d
        E 16 b0 0b 55
        E 16 b0 0b 44
        E 16 b0 0b 3b
        E 16 b0 0b 2a
        E 16 b0 0b 19
        E 16 b0 0b 08
        E 16 80 3f 00
        E 32 b0 0b 66
        E 0 90 41 66
        E 16 b0 0b 5d
        E 16 b0 0b 55
        E 16 b0 0b 44
        E 16 b0 0b 3b
        E 16 b0 0b 2a
        E 16 b0 0b 19
        E 16 b0 0b 08
        E 16 80 41 00
        E 32 b0 0b 66
        E 0 90 46 66
        E 16 b0 0b 5d
        E 16 b0 0b 55
        E 16 b0 0b 44
        E 16 b0 0b 3b
        E 16 b0 0b 2a
        E 16 b0 0b 19
        E 16 b0 0b 08
        E 16 80 46 00
        E 32 b0 0b 66
        E 0 90 44 66
        E 16 b0 0b 5d
        E 16 b0 0b 55
        E 16 b0 0b 44
        E 16 b0 0b 3b
        E 16 b0 0b 2a
        E 16 b0 0b 19
        E 16 b0 0b 08
        E 16 80 44 00
        E 32 b0 0b 66
        E 0 90 41 66
        E 16 b0 0b 5d
        E 16 b0 0b 55
        E 16 b0 0b 44
        E 16 b0 0b 3b
        E 16 b0 0b 2a
        E 16 b0 0b 19
        E 16 b0 0b 08
        E 16 80 41 00
        E 32 b0 0b 66
        E 0 90 46 66
        E 16 b0 0b 5d
        E 16 b0 0b 55
        E 16 b0 0b 44
        E 16 b0 0b 3b
        E 16 b0 0b 2a
        E 16 b0 0b 19
        E 16 b0 0b 08
        E 16 80 46 00
        E 32 b0 0b 66
        E 0 90 44 66
        E 16 b0 0b 5d
        E 16 b0 0b 55
        E 16 b0 0b 44
        E 16 b0 0b 3b
        E 16 b0 0b 2a
        E 16 b0 0b 19
        E 16 b0 0b 08
        E 16 80 44 00
        E 512 b0 0b 66
        E 0 90 43 66
        E 16 b0 0b 5d
        E 16 b0 0b 55
        E 16 b0 0b 44
        E 16 b0 0b 3b
        E 16 b0 0b 2a
        E 16 b0 0b 19
        E 16 b0 0b 08
        E 16 80 43 00
        E 32 b0 0b 66
        E 0 90 41 66
        E 16 b0 0b 5d
        E 16 b0 0b 55
        E 16 b0 0b 44
        E 16 b0 0b 3b
        E 16 b0 0b 2a
        E 16 b0 0b 19
        E 16 b0 0b 08
        E 16 80 41 00
        E 32 b0 0b 66
        E 0 90 3e 66
        E 16 b0 0b 5d
        E 16 b0 0b 55
        E 16 b0 0b 44
        E 16 b0 0b 3b
        E 16 b0 0b 2a
        E 16 b0 0b 19
        E 16 b0 0b 08
        E 16 80 3e 00
        E 32 b0 0b 66
        E 0 90 43 66
        E 16 b0 0b 5d
        E 16 b0 0b 55
        E 16 b0 0b 44
        E 16 b0 0b 3b
        E 16 b0 0b 2a
        E 16 b0 0b 19
        E 16 b0 0b 08
        E 16 80 43 00
        E 32 b0 0b 66
        E 0 90 41 66
        E 16 b0 0b 5d
        E 16 b0 0b 55
        E 16 b0 0b 44
        E 16 b0 0b 3b
        E 16 b0 0b 2a
        E 16 b0 0b 19
        E 16 b0 0b 08
        E 16 80 41 00
        E 192 b0 0b 66
        E 0 90 3c 66
        E 16 b0 0b 5d
        E 16 b0 0b 55
        E 16 b0 0b 44
        E 16 b0 0b 3b
        E 16 b0 0b 2a
        E 16 b0 0b 19
        E 16 b0 0b 08
        E 16 80 3c 00
        E 32 b0 0b 66
        E 0 90 3f 66
        E 16 b0 0b 5d
        E 16 b0 0b 55
        E 16 b0 0b 44
        E 16 b0 0b 3b
        E 16 b0 0b 2a
        E 16 b0 0b 19
        E 16 b0 0b 08
        E 16 80 3f 00
        E 32 b0 0b 66
        E 0 90 41 66
        E 16 b0 0b 5d
        E 16 b0 0b 55
        E 16 b0 0b 44
        E 16 b0 0b 3b
        E 16 b0 0b 2a
        E 16 b0 0b 19
        E 16 b0 0b 08
        E 16 80 41 00
        E 32 b0 0b 66
        E 0 90 3e 66
        E 16 b0 0b 5d
        E 16 b0 0b 55
        E 16 b0 0b 44
        E 16 b0 0b 3b
        E 16 b0 0b 2a
        E 16 b0 0b 19
        E 16 b0 0b 08
        E 16 80 3e 00
        E 32 b0 0b 66
        E 0 90 3a 66
        E 16 b0 0b 5d
        E 16 b0 0b 55
        E 16 b0 0b 44
        E 16 b0 0b 3b
        E 16 b0 0b 2a
        E 16 b0 0b 19
        E 16 b0 0b 08
        E 16 80 3a 00
        E 32 b0 0b 66
        E 0 90 41 66
        E 16 b0 0b 5d
        E 16 b0 0b 55
        E 16 b0 0b 44
        E 16 b0 0b 3b
        E 16 b0 0b 2a
        E 16 b0 0b 19
        E 16 b0 0b 08
        E 16 80 41 00
        E 32 b0 0b 66
        E 0 90 3f 66
        E 16 b0 0b 5d
        E 16 b0 0b 55
        E 16 b0 0b 44
        E 16 b0 0b 3b
        E 16 b0 0b 2a
        E 16 b0 0b 19
        E 16 b0 0b 08
        E 16 80 3f 00
        E 192 b0 0b 66
        E 0 90 3a 66
        E 16 b0 0b 5d
        E 16 b0 0b 55
        E 16 b0 0b 44
        E 16 b0 0b 3b
        E 16 b0 0b 2a
        E 16 b0 0b 19
        E 16 b0 0b 08
        E 16 80 3a 00
        E 32 b0 0b 66
        E 0 90 3d 66
        E 16 b0 0b 5d
        E 16 b0 0b 55
        E 16 b0 0b 44
        E 16 b0 0b 3b
        E 16 b0 0b 2a
        E 16 b0 0b 19
        E 16 b0 0b 08
        E 16 80 3d 00
        E 32 b0 0b 22
        E 0 90 3c 22
        E 48 b0 0b 2a
        E 48 b0 0b 33
        E 32 b0 0b 3b
        E 48 b0 0b 44
        E 48 b0 0b 4c
        E 32 b0 0b 55
        E 48 b0 0b 5d
        E 48 b0 0b 66
        E 16 b0 0b 5d
        E 16 b0 0b 55
        E 48 b0 0b 4c
        E 48 b0 0b 44
        E 32 b0 0b 3b
        E 48 b0 0b 33
        E 48 b0 0b 2a
        E 32 b0 0b 66
        E 0 80 3c 00
        E 0 90 40 66
        E 16 b0 0b 55
        E 16 b0 0b 44
        E 16 b0 0b 33
        E 16 b0 0b 19
        E 16 80 40 00
        E 80 b0 0b 66
        E 0 90 3c 66
        E 16 b0 0b 55
        E 16 b0 0b 44
        E 16 b0 0b 33
        E 16 b0 0b 19
        E 16 b0 0b 66
        E 0 80 3c 00
        E 0 90 40 66
        E 16 b0 0b 55
        E 16 b0 0b 44
        E 16 b0 0b 33
        E 16 b0 0b 19
        E 16 b0 0b 66
        E 0 80 40 00
        E 0 90 43 66
        E 16 b0 0b 55
        E 16 b0 0b 44
        E 16 b0 0b 33
        E 16 b0 0b 19
        E 16 80 43 00
        E 80 b0 0b 66
        E 0 90 40 66
        E 16 b0 0b 55
        E 16 b0 0b 44
        E 16 b0 0b 33
        E 16 b0 0b 19
        E 16 b0 0b 66
        E 0 80 40 00
        E 0 90 43 66
        E 16 b0 0b 55
        E 16 b0 0b 44
        E 16 b0 0b 33
        E 16 b0 0b 19
        E 16 b0 0b 66
        E 0 80 43 00
        E 0 90 48 66
        E 16 b0 0b 5d
        E 16 b0 0b 55
        E 16 b0 0b 4c
        E 16 b0 0b 44
        E 16 b0 0b 3b
        E 16 b0 0b 33
        E 16 b0 0b 2a
        E 16 b0 0b 22
        E 16 b0 0b 2a
        E 16 b0 0b 33
        E 16 b0 0b 3b
        E 16 b0 0b 44
        E 16 b0 0b 3b
        E 16 b0 0b 33
        E 16 b0 0b 2a
        E 16 b0 0b 22
        E 16 b0 0b 2a
        E 16 b0 0b 33
        E 16 b0 0b 3b
        E 16 b0 0b 44
        E 16 b0 0b 3b
        E 16 b0 0b 33
        E 16 b0 0b 2a
        E 16 b0 0b 22
        E 16 b0 0b 2a
        E 16 b0 0b 33
        E 16 b0 0b 3b
        E 16 b0 0b 44
        E 16 b0 0b 4c
        E 16 b0 0b 55
        E 16 b0 0b 5d
        E 784 b0 0b 22
        E 0 80 48 00
        E 0 90 3c 22
        E 16 b0 0b 33
        E 16 b0 0b 44
        E 16 b0 0b 55
        E 16 b0 0b 66
        E 16 b0 0b 4c
        E 16 b0 0b 3b
        E 16 b0 0b 2a
        E 16 b0 0b 22
        E 192 80 3c 00
        E 0 90 41 22
        E 16 b0 0b 33
        E 16 b0 0b 44
        E 16 b0 0b 55
        E 16 b0 0b 66
        E 16 b0 0b 4c
        E 16 b0 0b 3b
        E 16 b0 0b 2a
        E 16 b0 0b 22
        E 192 80 41 00
        E 0 90 43 22
        E 16 b0 0b 33
        E 16 b0 0b 44
        E 16 b0 0b 55
        E 16 b0 0b 66
        E 16 b0 0b 4c
        E 16 b0 0b 3b
        E 16 b0 0b 2a
        E 16 b0 0b 22
        E 192 80 43 00
        E 0 90 46 22
        E 16 b0 0b 33
        E 16 b0 0b 44
        E 16 b0 0b 55
        E 16 b0 0b 66
        E 16 b0 0b 4c
        E 16 b0 0b 3b
        E 16 b0 0b 2a
        E 16 b0 0b 22
        E 192 80 46 00
        E 0 90 45 22
        E 16 b0 0b 33
        E 16 b0 0b 44
        E 16 b0 0b 55
        E 16 b0 0b 66
        E 16 b0 0b 4c
        E 16 b0 0b 3b
        E 16 b0 0b 2a
        E 16 b0 0b 22
        E 32 80 45 00
        E 0 90 43 22
        E 16 b0 0b 33
        E 16 b0 0b 44
        E 16 b0 0b 55
        E 16 b0 0b 66
        E 16 b0 0b 4c
        E 16 b0 0b 3b
        E 16 b0 0b 2a
        E 16 b0 0b 22
        E 32 80 43 00
        E 0 90 41 22
        E 16 b0 0b 33
        E 16 b0 0b 44
        E 16 b0 0b 55
        E 16 b0 0b 66
        E 16 b0 0b 4c
        E 16 b0 0b 3b
        E 16 b0 0b 2a
        E 16 b0 0b 22
        E 32 80 41 00
        E 0 90 45 22
        E 16 b0 0b 33
        E 16 b0 0b 44
        E 16 b0 0b 55
        E 16 b0 0b 66
        E 16 b0 0b 4c
        E 16 b0 0b 3b
        E 16 b0 0b 2a
        E 16 b0 0b 22
        E 32 80 45 00
        E 0 90 43 22
        E 16 b0 0b 33
        E 16 b0 0b 44
        E 16 b0 0b 55
        E 16 b0 0b 66
        E 16 b0 0b 4c
        E 16 b0 0b 3b
        E 16 b0 0b 2a
        E 16 b0 0b 22
        E 192 80 43 00
        E 0 90 3c 22
        E 16 b0 0b 33
        E 16 b0 0b 44
        E 16 b0 0b 55
        E 16 b0 0b 66
        E 16 b0 0b 4c
        E 16 b0 0b 3b
        E 16 b0 0b 2a
        E 16 b0 0b 22
        E 32 80 3c 00
        E 0 90 3e 22
        E 16 b0 0b 33
        E 16 b0 0b 44
        E 16 b0 0b 55
        E 16 b0 0b 66
        E 16 b0 0b 4c
        E 16 b0 0b 3b
        E 16 b0 0b 2a
        E 16 b0 0b 22
        E 32 80 3e 00
        E 0 90 3f 22
        E 16 b0 0b 33
        E 16 b0 0b 44
        E 16 b0 0b 55
        E 16 b0 0b 66
        E 16 b0 0b 4c
        E 16 b0 0b 3b
        E 16 b0 0b 2a
        E 16 b0 0b 22
        E 352 80 3f 00
        E 0 90 3c 22
        E 48 b0 0b 2a
        E 48 b0 0b 33
        E 32 b0 0b 3b
        E 48 b0 0b 44
        E 48 b0 0b 4c
        E 32 b0 0b 55
        E 48 b0 0b 5d
        E 48 b0 0b 66
        E 16 b0 0b 5d
        E 16 b0 0b 55
        E 48 b0 0b 4c
        E 48 b0 0b 44
        E 32 b0 0b 3b
        E 48 b0 0b 33
        E 48 b0 0b 2a
        E 32 b0 0b 22
        E 1456 b0 0b 33
        E 16 b0 0b 44
        E 16 b0 0b 55
        E 16 b0 0b 66
        E 16 b0 0b 4c
        E 16 b0 0b 3b
        E 16 b0 0b 2a
        E 16 b0 0b 22
        E 192 80 3c 00
        E 0 90 41 22
        E 16 b0 0b 33
        E 16 b0 0b 44
        E 16 b0 0b 55
        E 16 b0 0b 66
        E 16 b0 0b 4c
        E 16 b0 0b 3b
        E 16 b0 0b 2a
        E 16 b0 0b 22
        E 192 80 41 00
        E 0 90 43 22
        E 16 b0 0b 33
        E 16 b0 0b 44
        E 16 b0 0b 55
        E 16 b0 0b 66
        E 16 b0 0b 4c
        E 16 b0 0b 3b
        E 16 b0 0b 2a
        E 16 b0 0b 22
        E 192 80 43 00
        E 0 90 46 22
        E 16 b0 0b 33
        E 16 b0 0b 44
        E 16 b0 0b 55
        E 16 b0 0b 66
        E 16 b0 0b 4c
        E 16 b0 0b 3b
        E 16 b0 0b 2a
        E 16 b0 0b 22
        E 192 80 46 00
        E 0 90 45 22
        E 16 b0 0b 33
        E 16 b0 0b 44
        E 16 b0 0b 55
        E 16 b0 0b 66
        E 16 b0 0b 4c
        E 16 b0 0b 3b
        E 16 b0 0b 2a
        E 16 b0 0b 22
        E 32 80 45 00
        E 0 90 43 22
        E 16 b0 0b 33
        E 16 b0 0b 44
        E 16 b0 0b 55
        E 16 b0 0b 66
        E 16 b0 0b 4c
        E 16 b0 0b 3b
        E 16 b0 0b 2a
        E 16 b0 0b 22
        E 32 80 43 00
        E 0 90 41 22
        E 16 b0 0b 33
        E 16 b0 0b 44
        E 16 b0 0b 55
        E 16 b0 0b 66
        E 16 b0 0b 4c
        E 16 b0 0b 3b
        E 16 b0 0b 2a
        E 16 b0 0b 22
        E 32 80 41 00
        E 0 90 45 22
        E 16 b0 0b 33
        E 16 b0 0b 44
        E 16 b0 0b 55
        E 16 b0 0b 66
        E 16 b0 0b 4c
        E 16 b0 0b 3b
        E 16 b0 0b 2a
        E 16 b0 0b 22
        E 32 80 45 00
        E 0 90 43 22
        E 16 b0 0b 33
        E 16 b0 0b 44
        E 16 b0 0b 55
        E 16 b0 0b 66
        E 16 b0 0b 4c
        E 16 b0 0b 3b
        E 16 b0 0b 2a
        E 16 b0 0b 22
        E 192 80 43 00
        E 0 90 3f 22
        E 16 b0 0b 33
        E 16 b0 0b 44
        E 16 b0 0b 55
        E 16 b0 0b 66
        E 16 b0 0b 4c
        E 16 b0 0b 3b
        E 16 b0 0b 2a
        E 16 b0 0b 22
        E 32 80 3f 00
        E 0 90 41 22
        E 16 b0 0b 33
        E 16 b0 0b 44
        E 16 b0 0b 55
        E 16 b0 0b 66
        E 16 b0 0b 4c
        E 16 b0 0b 3b
        E 16 b0 0b 2a
        E 16 b0 0b 22
        E 32 80 41 00
        E 0 90 43 22
        E 16 b0 0b 33
        E 16 b0 0b 44
        E 16 b0 0b 55
        E 16 b0 0b 66
        E 16 b0 0b 4c
        E 16 b0 0b 3b
        E 16 b0 0b 2a
        E 16 b0 0b 22
        E 352 80 43 00
        E 0 90 48 22
        E 48 b0 0b 2a
        E 48 b0 0b 33
        E 32 b0 0b 3b
        E 48 b0 0b 44
        E 48 b0 0b 4c
        E 32 b0 0b 55
        E 48 b0 0b 5d
        E 48 b0 0b 66
        E 16 b0 0b 5d
        E 16 b0 0b 55
        E 48 b0 0b 4c
        E 48 b0 0b 44
        E 32 b0 0b 3b
        E 48 b0 0b 33
        E 48 b0 0b 2a
        E 32 b0 0b 22
        E 640 80 48 00
        E 160 b0 0b 66
        E 0 90 3a 66
        E 16 b0 0b 55
        E 16 b0 0b 44
        E 16 b0 0b 33
        E 16 b0 0b 19
        E 16 b0 0b 66
        E 0 80 3a 00
        E 0 90 3c 66
        E 16 b0 0b 55
        E 16 b0 0b 44
        E 16 b0 0b 33
        E 16 b0 0b 19
        E 16 b0 0b 66
        E 0 80 3c 00
        E 0 90 3e 66
        E 16 b0 0b 55
        E 16 b0 0b 44
        E 16 b0 0b 33
        E 16 b0 0b 19
        E 16 b0 0b 66
        E 0 80 3e 00
        E 0 90 3f 66
        E 16 b0 0b 55
        E 16 b0 0b 44
        E 16 b0 0b 33
        E 16 b0 0b 19
        E 16 b0 0b 66
        E 0 80 3f 00
        E 0 90 41 66
        E 16 b0 0b 55
        E 16 b0 0b 44
        E 16 b0 0b 33
        E 16 b0 0b 19
        E 16 b0 0b 66
        E 0 80 41 00
        E 0 90 43 66
        E 16 b0 0b 55
        E 16 b0 0b 44
        E 16 b0 0b 33
        E 16 b0 0b 19
        E 16 b0 0b 66
        E 0 80 43 00
        E 0 90 44 66
        E 16 b0 0b 55
        E 16 b0 0b 44
        E 16 b0 0b 33
        E 16 b0 0b 19
        E 16 b0 0b 66
        E 0 80 44 00
        E 0 90 45 66
        E 16 b0 0b 55
        E 16 b0 0b 44
        E 16 b0 0b 33
        E 16 b0 0b 19
        E 16 b0 0b 66
        E 0 80 45 00
        E 0 90 46 66
        E 16 b0 0b 5d
        E 16 b0 0b 55
        E 16 b0 0b 44
        E 16 b0 0b 3b
        E 16 b0 0b 2a
        E 16 b0 0b 19
        E 16 b0 0b 08
        E 16 80 46 00
        E 32 b0 0b 66
        E 0 90 44 66
        E 16 b0 0b 5d
        E 16 b0 0b 55
        E 16 b0 0b 44
        E 16 b0 0b 3b
        E 16 b0 0b 2a
        E 16 b0 0b 19
        E 16 b0 0b 08
        E 16 80 44 00
        E 32 b0 0b 66
        E 0 90 41 66
        E 16 b0 0b 5d
        E 16 b0 0b 55
        E 16 b0 0b 44
        E 16 b0 0b 3b
        E 16 b0 0b 2a
        E 16 b0 0b 19
        E 16 b0 0b 08
        E 16 80 41 00
        E 32 b0 0b 66
        E 0 90 46 66
        E 16 b0 0b 5d
        E 16 b0 0b 55
        E 16 b0 0b 44
        E 16 b0 0b 3b
        E 16 b0 0b 2a
        E 16 b0 0b 19
        E 16 b0 0b 08
        E 16 80 46 00
        E 32 b0 0b 66
        E 0 90 44 66
        E 16 b0 0b 5d
        E 16 b0 0b 55
        E 16 b0 0b 44
        E 16 b0 0b 3b
        E 16 b0 0b 2a
        E 16 b0 0b 19
        E 16 b0 0b 08
        E 16 80 44 00
        E 192 b0 0b 66
        E 0 90 3f 66
        E 16 b0 0b 5d
        E 16 b0 0b 55
        E 16 b0 0b 44
        E 16 b0 0b 3b
        E 16 b0 0b 2a
        E 16 b0 0b 19
        E 16 b0 0b 08
        E 16 80 3f 00
        E 32 b0 0b 66
        E 0 90 41 66
        E 16 b0 0b 5d
        E 16 b0 0b 55
        E 16 b0 0b 44
        E 16 b0 0b 3b
        E 16 b0 0b 2a
        E 16 b0 0b 19
        E 16 b0 0b 08
        E 16 80 41 00
        E 32 b0 0b 66
        E 0 90 46 66
        E 16 b0 0b 5d
        E 16 b0 0b 55
        E 16 b0 0b 44
        E 16 b0 0b 3b
        E 16 b0 0b 2a
        E 16 b0 0b 19
        E 16 b0 0b 08
        E 16 80 46 00
        E 32 b0 0b 66
        E 0 90 44 66
        E 16 b0 0b 5d
        E 16 b0 0b 55
        E 16 b0 0b 44
        E 16 b0 0b 3b
        E 16 b0 0b 2a
        E 16 b0 0b 19
        E 16 b0 0b 08
        E 16 80 44 00
        E 32 b0 0b 66
        E 0 90 41 66
        E 16 b0 0b 5d
        E 16 b0 0b 55
        E 16 b0 0b 44
        E 16 b0 0b 3b
        E 16 b0 0b 2a
        E 16 b0 0b 19
        E 16 b0 0b 08
        E 16 80 41 00
        E 32 b0 0b 66
        E 0 90 46 66
        E 16 b0 0b 5d
        E 16 b0 0b 55
        E 16 b0 0b 44
        E 16 b0 0b 3b
        E 16 b0 0b 2a
        E 16 b0 0b 19
        E 16 b0 0b 08
        E 16 80 46 00
        E 32 b0 0b 66
        E 0 90 44 66
        E 16 b0 0b 5d
        E 16 b0 0b 55
        E 16 b0 0b 44
        E 16 b0 0b 3b
        E 16 b0 0b 2a
        E 16 b0 0b 19
        E 16 b0 0b 08
        E 16 80 44 00
        E 512 b0 0b 66
        E 0 90 46 66
        E 16 b0 0b 5d
        E 16 b0 0b 55
        E 16 b0 0b 44
        E 16 b0 0b 3b
        E 16 b0 0b 2a
        E 16 b0 0b 19
        E 16 b0 0b 08
        E 16 80 46 00
        E 32 b0 0b 66
        E 0 90 44 66
        E 16 b0 0b 5d
        E 16 b0 0b 55
        E 16 b0 0b 44
        E 16 b0 0b 3b
        E 16 b0 0b 2a
        E 16 b0 0b 19
        E 16 b0 0b 08
        E 16 80 44 00
        E 32 b0 0b 66
        E 0 90 41 66
        E 16 b0 0b 5d
        E 16 b0 0b 55
        E 16 b0 0b 44
        E 16 b0 0b 3b
        E 16 b0 0b 2a
        E 16 b0 0b 19
        E 16 b0 0b 08
        E 16 80 41 00
        E 32 b0 0b 66
        E 0 90 46 66
        E 16 b0 0b 5d
        E 16 b0 0b 55
        E 16 b0 0b 44
        E 16 b0 0b 3b
        E 16 b0 0b 2a
        E 16 b0 0b 19
        E 16 b0 0b 08
        E 16 80 46 00
        E 32 b0 0b 66
        E 0 90 44 66
        E 16 b0 0b 5d
        E 16 b0 0b 55
        E 16 b0 0b 44
        E 16 b0 0b 3b
        E 16 b0 0b 2a
        E 16 b0 0b 19
        E 16 b0 0b 08
        E 16 80 44 00
        E 192 b0 0b 66
        E 0 90 3f 66
        E 16 b0 0b 5d
        E 16 b0 0b 55
        E 16 b0 0b 44
        E 16 b0 0b 3b
        E 16 b0 0b 2a
        E 16 b0 0b 19
        E 16 b0 0b 08
        E 16 80 3f 00
        E 32 b0 0b 66
        E 0 90 41 66
        E 16 b0 0b 5d
        E 16 b0 0b 55
        E 16 b0 0b 44
        E 16 b0 0b 3b
        E 16 b0 0b 2a
        E 16 b0 0b 19
        E 16 b0 0b 08
        E 16 80 41 00
        E 32 b0 0b 66
        E 0 90 46 66
        E 16 b0 0b 5d
        E 16 b0 0b 55
        E 16 b0 0b 44
        E 16 b0 0b 3b
        E 16 b0 0b 2a
        E 16 b0 0b 19
        E 16 b0 0b 08
        E 16 80 46 00
        E 32 b0 0b 66
        E 0 90 44 66
        E 16 b0 0b 5d
        E 16 b0 0b 55
        E 16 b0 0b 44
        E 16 b0 0b 3b
        E 16 b0 0b 2a
        E 16 b0 0b 19
        E 16 b0 0b 08
        E 16 80 44 00
        E 32 b0 0b 66
        E 0 90 41 66
        E 16 b0 0b 5d
        E 16 b0 0b 55
        E 16 b0 0b 44
        E 16 b0 0b 3b
        E 16 b0 0b 2a
        E 16 b0 0b 19
        E 16 b0 0b 08
        E 16 80 41 00
        E 32 b0 0b 66
        E 0 90 46 66
        E 16 b0 0b 5d
        E 16 b0 0b 55
        E 16 b0 0b 44
        E 16 b0 0b 3b
        E 16 b0 0b 2a
        E 16 b0 0b 19
        E 16 b0 0b 08
        E 16 80 46 00
        E 32 b0 0b 66
        E 0 90 44 66
        E 16 b0 0b 5d
        E 16 b0 0b 55
        E 16 b0 0b 44
        E 16 b0 0b 3b
        E 16 b0 0b 2a
        E 16 b0 0b 19
        E 16 b0 0b 08
        E 16 80 44 00
        E 512 b0 0b 66
        E 0 90 43 66
        E 16 b0 0b 5d
        E 16 b0 0b 55
        E 16 b0 0b 44
        E 16 b0 0b 3b
        E 16 b0 0b 2a
        E 16 b0 0b 19
        E 16 b0 0b 08
        E 16 80 43 00
        E 32 b0 0b 66
        E 0 90 41 66
        E 16 b0 0b 5d
        E 16 b0 0b 55
        E 16 b0 0b 44
        E 16 b0 0b 3b
        E 16 b0 0b 2a
        E 16 b0 0b 19
        E 16 b0 0b 08
        E 16 80 41 00
        E 32 b0 0b 66
        E 0 90 3e 66
        E 16 b0 0b 5d
        E 16 b0 0b 55
        E 16 b0 0b 44
        E 16 b0 0b 3b
        E 16 b0 0b 2a
        E 16 b0 0b 19
        E 16 b0 0b 08
        E 16 80 3e 00
        E 32 b0 0b 66
        E 0 90 43 66
        E 16 b0 0b 5d
        E 16 b0 0b 55
        E 16 b0 0b 44
        E 16 b0 0b 3b
        E 16 b0 0b 2a
        E 16 b0 0b 19
        E 16 b0 0b 08
        E 16 80 43 00
        E 32 b0 0b 66
        E 0 90 41 66
        E 16 b0 0b 5d
        E 16 b0 0b 55
        E 16 b0 0b 44
        E 16 b0 0b 3b
        E 16 b0 0b 2a
        E 16 b0 0b 19
        E 16 b0 0b 08
        E 16 80 41 00
        E 192 b0 0b 66
        E 0 90 3c 66
        E 16 b0 0b 5d
        E 16 b0 0b 55
        E 16 b0 0b 44
        E 16 b0 0b 3b
        E 16 b0 0b 2a
        E 16 b0 0b 19
        E 16 b0 0b 08
        E 16 80 3c 00
        E 32 b0 0b 66
        E 0 90 3f 66
        E 16 b0 0b 5d
        E 16 b0 0b 55
        E 16 b0 0b 44
        E 16 b0 0b 3b
        E 16 b0 0b 2a
        E 16 b0 0b 19
        E 16 b0 0b 08
        E 16 80 3f 00
        E 32 b0 0b 66
        E 0 90 41 66
        E 16 b0 0b 5d
        E 16 b0 0b 55
        E 16 b0 0b 44
        E 16 b0 0b 3b
        E 16 b0 0b 2a
        E 16 b0 0b 19
        E 16 b0 0b 08
        E 16 80 41 00
        E 32 b0 0b 66
        E 0 90 3e 66
        E 16 b0 0b 5d
        E 16 b0 0b 55
        E 16 b0 0b 44
        E 16 b0 0b 3b
        E 16 b0 0b 2a
        E 16 b0 0b 19
        E 16 b0 0b 08
        E 16 80 3e 00
        E 32 b0 0b 66
        E 0 90 3a 66
        E 16 b0 0b 5d
        E 16 b0 0b 55
        E 16 b0 0b 44
        E 16 b0 0b 3b
        E 16 b0 0b 2a
        E 16 b0 0b 19
        E 16 b0 0b 08
        E 16 80 3a 00
        E 32 b0 0b 66
        E 0 90 41 66
        E 16 b0 0b 5d
        E 16 b0 0b 55
        E 16 b0 0b 44
        E 16 b0 0b 3b
        E 16 b0 0b 2a
        E 16 b0 0b 19
        E 16 b0 0b 08
        E 16 80 41 00
        E 32 b0 0b 66
        E 0 90 3f 66
        E 16 b0 0b 5d
        E 16 b0 0b 55
        E 16 b0 0b 44
        E 16 b0 0b 3b
        E 16 b0 0b 2a
        E 16 b0 0b 19
        E 16 b0 0b 08
        E 16 80 3f 00
        E 192 b0 0b 66
        E 0 90 3a 66
        E 16 b0 0b 5d
        E 16 b0 0b 55
        E 16 b0 0b 44
        E 16 b0 0b 3b
        E 16 b0 0b 2a
        E 16 b0 0b 19
        E 16 b0 0b 08
        E 16 80 3a 00
        E 32 b0 0b 66
        E 0 90 3d 66
        E 16 b0 0b 5d
        E 16 b0 0b 55
        E 16 b0 0b 44
        E 16 b0 0b 3b
        E 16 b0 0b 2a
        E 16 b0 0b 19
        E 16 b0 0b 08
        E 16 80 3d 00
        E 32 b0 0b 22
        E 0 90 3c 22
        E 48 b0 0b 2a
        E 48 b0 0b 33
        E 32 b0 0b 3b
        E 48 b0 0b 44
        E 48 b0 0b 4c
        E 32 b0 0b 55
        E 48 b0 0b 5d
        E 48 b0 0b 66
        E 16 b0 0b 5d
        E 16 b0 0b 55
        E 48 b0 0b 4c
        E 48 b0 0b 44
        E 32 b0 0b 3b
        E 48 b0 0b 33
        E 48 b0 0b 2a
        E 32 b0 0b 66
        E 0 80 3c 00
        E 0 90 40 66
        E 16 b0 0b 55
        E 16 b0 0b 44
        E 16 b0 0b 33
        E 16 b0 0b 19
        E 16 80 40 00
        E 80 b0 0b 66
        E 0 90 3c 66
        E 16 b0 0b 55
        E 16 b0 0b 44
        E 16 b0 0b 33
        E 16 b0 0b 19
        E 16 b0 0b 66
        E 0 80 3c 00
        E 0 90 40 66
        E 16 b0 0b 55
        E 16 b0 0b 44
        E 16 b0 0b 33
        E 16 b0 0b 19
        E 16 b0 0b 66
        E 0 80 40 00
        E 0 90 43 66
        E 16 b0 0b 55
        E 16 b0 0b 44
        E 16 b0 0b 33
        E 16 b0 0b 19
        E 16 80 43 00
        E 80 b0 0b 66
        E 0 90 40 66
        E 16 b0 0b 55
        E 16 b0 0b 44
        E 16 b0 0b 33
        E 16 b0 0b 19
        E 16 b0 0b 66
        E 0 80 40 00
        E 0 90 43 66
        E 16 b0 0b 55
        E 16 b0 0b 44
        E 16 b0 0b 33
        E 16 b0 0b 19
        E 16 b0 0b 66
        E 0 80 43 00
        E 0 90 48 66
        E 16 b0 0b 5d
        E 16 b0 0b 55
        E 16 b0 0b 4c
        E 16 b0 0b 44
        E 16 b0 0b 3b
        E 16 b0 0b 33
        E 16 b0 0b 2a
        E 16 b0 0b 22
        E 16 b0 0b 2a
        E 16 b0 0b 33
        E 16 b0 0b 3b
        E 16 b0 0b 44
        E 16 b0 0b 3b
        E 16 b0 0b 33
        E 16 b0 0b 2a
        E 16 b0 0b 22
        E 16 b0 0b 2a
        E 16 b0 0b 33
        E 16 b0 0b 3b
        E 16 b0 0b 44
        E 16 b0 0b 3b
        E 16 b0 0b 33
        E 16 b0 0b 2a
        E 16 b0 0b 22
        E 16 b0 0b 2a
        E 16 b0 0b 33
        E 16 b0 0b 3b
        E 16 b0 0b 44
        E 16 b0 0b 4c
        E 16 b0 0b 55
        E 16 b0 0b 5d
        E 784 b0 0b 22
        E 0 80 48 00
        E 0 90 3c 22
        E 16 b0 0b 33
        E 16 b0 0b 44
        E 16 b0 0b 55
        E 16 b0 0b 66
        E 16 b0 0b 4c
        E 16 b0 0b 3b
        E 16 b0 0b 2a
        E 16 b0 0b 22
        E 192 80 3c 00
        E 0 90 41 22
        E 16 b0 0b 33
        E 16 b0 0b 44
        E 16 b0 0b 55
        E 16 b0 0b 66
        E 16 b0 0b 4c
        E 16 b0 0b 3b
        E 16 b0 0b 2a
        E 16 b0 0b 22
        E 192 80 41 00
        E 0 90 43 22
        E 16 b0 0b 33
        E 16 b0 0b 44
        E 16 b0 0b 55
        E 16 b0 0b 66
        E 16 b0 0b 4c
        E 16 b0 0b 3b
        E 16 b0 0b 2a
        E 16 b0 0b 22
        E 192 80 43 00
        E 0 90 46 22
        E 16 b0 0b 33
        E 16 b0 0b 44
        E 16 b0 0b 55
        E 16 b0 0b 66
        E 16 b0 0b 4c
        E 16 b0 0b 3b
        E 16 b0 0b 2a
        E 16 b0 0b 22
        E 192 80 46 00
        E 0 90 45 22
        E 16 b0 0b 33
        E 16 b0 0b 44
        E 16 b0 0b 55
        E 16 b0 0b 66
        E 16 b0 0b 4c
        E 16 b0 0b 3b
        E 16 b0 0b 2a
        E 16 b0 0b 22
        E 32 80 45 00
        E 0 90 43 22
        E 16 b0 0b 33
        E 16 b0 0b 44
        E 16 b0 0b 55
        E 16 b0 0b 66
        E 16 b0 0b 4c
        E 16 b0 0b 3b
        E 16 b0 0b 2a
        E 16 b0 0b 22
        E 32 80 43 00
        E 0 90 41 22
        E 16 b0 0b 33
        E 16 b0 0b 44
        E 16 b0 0b 55
        E 16 b0 0b 66
        E 16 b0 0b 4c
        E 16 b0 0b 3b
        E 16 b0 0b 2a
        E 16 b0 0b 22
        E 32 80 41 00
        E 0 90 45 22
        E 16 b0 0b 33
        E 16 b0 0b 44
        E 16 b0 0b 55
        E 16 b0 0b 66
        E 16 b0 0b 4c
        E 16 b0 0b 3b
        E 16 b0 0b 2a
        E 16 b0 0b 22
        E 32 80 45 00
        E 0 90 43 22
        E 16 b0 0b 33
        E 16 b0 0b 44
        E 16 b0 0b 55
        E 16 b0 0b 66
        E 16 b0 0b 4c
        E 16 b0 0b 3b
        E 16 b0 0b 2a
        E 16 b0 0b 22
        E 192 80 43 00
        E 0 90 3c 22
        E 16 b0 0b 33
        E 16 b0 0b 44
        E 16 b0 0b 55
        E 16 b0 0b 66
        E 16 b0 0b 4c
        E 16 b0 0b 3b
        E 16 b0 0b 2a
        E 16 b0 0b 22
        E 32 80 3c 00
        E 0 90 3e 22
        E 16 b0 0b 33
        E 16 b0 0b 44
        E 16 b0 0b 55
        E 16 b0 0b 66
        E 16 b0 0b 4c
        E 16 b0 0b 3b
        E 16 b0 0b 2a
        E 16 b0 0b 22
        E 32 80 3e 00
        E 0 90 3f 22
        E 16 b0 0b 33
        E 16 b0 0b 44
        E 16 b0 0b 55
        E 16 b0 0b 66
        E 16 b0 0b 4c
        E 16 b0 0b 3b
        E 16 b0 0b 2a
        E 16 b0 0b 22
        E 352 80 3f 00
        E 0 90 3c 22
        E 48 b0 0b 2a
        E 48 b0 0b 33
        E 32 b0 0b 3b
        E 48 b0 0b 44
        E 48 b0 0b 4c
        E 32 b0 0b 55
        E 48 b0 0b 5d
        E 48 b0 0b 66
        E 16 b0 0b 5d
        E 16 b0 0b 55
        E 48 b0 0b 4c
        E 48 b0 0b 44
        E 32 b0 0b 3b
        E 48 b0 0b 33
        E 48 b0 0b 2a
        E 32 b0 0b 22
        E 1456 b0 0b 33
        E 16 b0 0b 44
        E 16 b0 0b 55
        E 16 b0 0b 66
        E 16 b0 0b 4c
        E 16 b0 0b 3b
        E 16 b0 0b 2a
        E 16 b0 0b 22
        E 192 80 3c 00
        E 0 90 41 22
        E 16 b0 0b 33
        E 16 b0 0b 44
        E 16 b0 0b 55
        E 16 b0 0b 66
        E 16 b0 0b 4c
        E 16 b0 0b 3b
        E 16 b0 0b 2a
        E 16 b0 0b 22
        E 192 80 41 00
        E 0 90 43 22
        E 16 b0 0b 33
        E 16 b0 0b 44
        E 16 b0 0b 55
        E 16 b0 0b 66
        E 16 b0 0b 4c
        E 16 b0 0b 3b
        E 16 b0 0b 2a
        E 16 b0 0b 22
        E 192 80 43 00
        E 0 90 46 22
        E 16 b0 0b 33
        E 16 b0 0b 44
        E 16 b0 0b 55
        E 16 b0 0b 66
        E 16 b0 0b 4c
        E 16 b0 0b 3b
        E 16 b0 0b 2a
        E 16 b0 0b 22
        E 192 80 46 00
        E 0 90 45 22
        E 16 b0 0b 33
        E 16 b0 0b 44
        E 16 b0 0b 55
        E 16 b0 0b 66
        E 16 b0 0b 4c
        E 16 b0 0b 3b
        E 16 b0 0b 2a
        E 16 b0 0b 22
        E 32 80 45 00
        E 0 90 43 22
        E 16 b0 0b 33
        E 16 b0 0b 44
        E 16 b0 0b 55
        E 16 b0 0b 66
        E 16 b0 0b 4c
        E 16 b0 0b 3b
        E 16 b0 0b 2a
        E 16 b0 0b 22
        E 32 80 43 00
        E 0 90 41 22
        E 16 b0 0b 33
        E 16 b0 0b 44
        E 16 b0 0b 55
        E 16 b0 0b 66
        E 16 b0 0b 4c
        E 16 b0 0b 3b
        E 16 b0 0b 2a
        E 16 b0 0b 22
        E 32 80 41 00
        E 0 90 45 22
        E 16 b0 0b 33
        E 16 b0 0b 44
        E 16 b0 0b 55
        E 16 b0 0b 66
        E 16 b0 0b 4c
        E 16 b0 0b 3b
        E 16 b0 0b 2a
        E 16 b0 0b 22
        E 32 80 45 00
        E 0 90 43 22
        E 16 b0 0b 33
        E 16 b0 0b 44
        E 16 b0 0b 55
        E 16 b0 0b 66
        E 16 b0 0b 4c
        E 16 b0 0b 3b
        E 16 b0 0b 2a
        E 16 b0 0b 22
        E 192 80 43 00
        E 0 90 3f 22
        E 16 b0 0b 33
        E 16 b0 0b 44
        E 16 b0 0b 55
        E 16 b0 0b 66
        E 16 b0 0b 4c
        E 16 b0 0b 3b
        E 16 b0 0b 2a
        E 16 b0 0b 22
        E 32 80 3f 00
        E 0 90 41 22
        E 16 b0 0b 33
        E 16 b0 0b 44
        E 16 b0 0b 55
        E 16 b0 0b 66
        E 16 b0 0b 4c
        E 16 b0 0b 3b
        E 16 b0 0b 2a
        E 16 b0 0b 22
        E 32 80 41 00
        E 0 90 43 22
        E 16 b0 0b 33
        E 16 b0 0b 44
        E 16 b0 0b 55
        E 16 b0 0b 66
        E 16 b0 0b 4c
        E 16 b0 0b 3b
        E 16 b0 0b 2a
        E 16 b0 0b 22
        E 352 80 43 00
        E 0 90 48 22
        E 48 b0 0b 2a
        E 48 b0 0b 33
        E 32 b0 0b 3b
        E 48 b0 0b 44
        E 48 b0 0b 4c
        E 32 b0 0b 55
        E 48 b0 0b 5d
        E 48 b0 0b 66
        E 16 b0 0b 5d
        E 16 b0 0b 55
        E 48 b0 0b 4c
        E 48 b0 0b 44
        E 32 b0 0b 3b
        E 48 b0 0b 33
        E 48 b0 0b 2a
        E 32 b0 0b 22
        E 640 80 48 00
        E 160 b0 0b 66
        E 0 90 3a 66
        E 16 b0 0b 55
        E 16 b0 0b 44
        E 16 b0 0b 33
        E 16 b0 0b 19
        E 16 b0 0b 66
        E 0 80 3a 00
        E 0 90 3c 66
        E 16 b0 0b 55
        E 16 b0 0b 44
        E 16 b0 0b 33
        E 16 b0 0b 19
        E 16 b0 0b 66
        E 0 80 3c 00
        E 0 90 3e 66
        E 16 b0 0b 55
        E 16 b0 0b 44
        E 16 b0 0b 33
        E 16 b0 0b 19
        E 16 b0 0b 66
        E 0 80 3e 00
        E 0 90 3f 66
        E 16 b0 0b 55
        E 16 b0 0b 44
        E 16 b0 0b 33
        E 16 b0 0b 19
        E 16 b0 0b 66
        E 0 80 3f 00
        E 0 90 41 66
        E 16 b0 0b 55
        E 16 b0 0b 44
        E 16 b0 0b 33
        E 16 b0 0b 19
        E 16 b0 0b 66
        E 0 80 41 00
        E 0 90 43 66
        E 16 b0 0b 55
        E 16 b0 0b 44
        E 16 b0 0b 33
        E 16 b0 0b 19
        E 16 b0 0b 66
        E 0 80 43 00
        E 0 90 44 66
        E 16 b0 0b 55
        E 16 b0 0b 44
        E 16 b0 0b 33
        E 16 b0 0b 19
        E 16 b0 0b 66
        E 0 80 44 00
        E 0 90 45 66
        E 16 b0 0b 55
        E 16 b0 0b 44
        E 16 b0 0b 33
        E 16 b0 0b 19
        E 16 b0 0b 66
        E 0 80 45 00
        E 0 90 46 66
        E 16 b0 0b 5d
        E 16 b0 0b 55
        E 16 b0 0b 44
        E 16 b0 0b 3b
        E 16 b0 0b 2a
        E 16 b0 0b 19
        E 16 b0 0b 08
        E 16 80 46 00
        E 32 b0 0b 66
        E 0 90 44 66
        E 16 b0 0b 5d
        E 16 b0 0b 55
        E 16 b0 0b 44
        E 16 b0 0b 3b
        E 16 b0 0b 2a
        E 16 b0 0b 19
        E 16 b0 0b 08
        E 16 80 44 00
        E 32 b0 0b 66
        E 0 90 41 66
        E 16 b0 0b 5d
        E 16 b0 0b 55
        E 16 b0 0b 44
        E 16 b0 0b 3b
        E 16 b0 0b 2a
        E 16 b0 0b 19
        E 16 b0 0b 08
        E 16 80 41 00
        E 32 b0 0b 66
        E 0 90 46 66
        E 16 b0 0b 5d
        E 16 b0 0b 55
        E 16 b0 0b 44
        E 16 b0 0b 3b
        E 16 b0 0b 2a
        E 16 b0 0b 19
        E 16 b0 0b 08
        E 16 80 46 00
        E 32 b0 0b 66
        E 0 90 44 66
        E 16 b0 0b 5d
        E 16 b0 0b 55
        E 16 b0 0b 44
        E 16 b0 0b 3b
        E 16 b0 0b 2a
        E 16 b0 0b 19
        E 16 b0 0b 08
        E 16 80 44 00
        E 192 b0 0b 66
        E 0 90 3f 66
        E 16 b0 0b 5d
        E 16 b0 0b 55
        E 16 b0 0b 44
        E 16 b0 0b 3b
        E 16 b0 0b 2a
        E 16 b0 0b 19
        E 16 b0 0b 08
        E 16 80 3f 00
        E 32 b0 0b 66
        E 0 90 41 66
        E 16 b0 0b 5d
        E 16 b0 0b 55
        E 16 b0 0b 44
        E 16 b0 0b 3b
        E 16 b0 0b 2a
        E 16 b0 0b 19
        E 16 b0 0b 08
        E 16 80 41 00
        E 32 b0 0b 66
        E 0 90 46 66
        E 16 b0 0b 5d
        E 16 b0 0b 55
        E 16 b0 0b 44
        E 16 b0 0b 3b
        E 16 b0 0b 2a
        E 16 b0 0b 19
        E 16 b0 0b 08
        E 16 80 46 00
        E 32 b0 0b 66
        E 0 90 44 66
        E 16 b0 0b 5d
        E 16 b0 0b 55
        E 16 b0 0b 44
        E 16 b0 0b 3b
        E 16 b0 0b 2a
        E 16 b0 0b 19
        E 16 b0 0b 08
        E 16 80 44 00
        E 32 b0 0b 66
        E 0 90 41 66
        E 16 b0 0b 5d
        E 16 b0 0b 55
        E 16 b0 0b 44
        E 16 b0 0b 3b
        E 16 b0 0b 2a
        E 16 b0 0b 19
        E 16 b0 0b 08
        E 16 80 41 00
        E 32 b0 0b 66
        E 0 90 46 66
        E 16 b0 0b 5d
        E 16 b0 0b 55
        E 16 b0 0b 44
        E 16 b0 0b 3b
        E 16 b0 0b 2a
        E 16 b0 0b 19
        E 16 b0 0b 08
        E 16 80 46 00
        E 32 b0 0b 66
        E 0 90 44 66
        E 16 b0 0b 5d
        E 16 b0 0b 55
        E 16 b0 0b 44
        E 16 b0 0b 3b
        E 16 b0 0b 2a
        E 16 b0 0b 19
        E 16 b0 0b 08
        E 16 80 44 00
        E 512 b0 0b 66
        E 0 90 46 66
        E 16 b0 0b 5d
        E 16 b0 0b 55
        E 16 b0 0b 44
        E 16 b0 0b 3b
        E 16 b0 0b 2a
        E 16 b0 0b 19
        E 16 b0 0b 08
        E 16 80 46 00
        E 32 b0 0b 66
        E 0 90 44 66
        E 16 b0 0b 5d
        E 16 b0 0b 55
        E 16 b0 0b 44
        E 16 b0 0b 3b
        E 16 b0 0b 2a
        E 16 b0 0b 19
        E 16 b0 0b 08
        E 16 80 44 00
        E 32 b0 0b 66
        E 0 90 41 66
        E 16 b0 0b 5d
        E 16 b0 0b 55
        E 16 b0 0b 44
        E 16 b0 0b 3b
        E 16 b0 0b 2a
        E 16 b0 0b 19
        E 16 b0 0b 08
        E 16 80 41 00
        E 32 b0 0b 66
        E 0 90 46 66
        E 16 b0 0b 5d
        E 16 b0 0b 55
        E 16 b0 0b 44
        E 16 b0 0b 3b
        E 16 b0 0b 2a
        E 16 b0 0b 19
        E 16 b0 0b 08
        E 16 80 46 00
        E 32 b0 0b 66
        E 0 90 44 66
        E 16 b0 0b 5d
        E 16 b0 0b 55
        E 16 b0 0b 44
        E 16 b0 0b 3b
        E 16 b0 0b 2a
        E 16 b0 0b 19
        E 16 b0 0b 08
        E 16 80 44 00
        E 192 b0 0b 66
        E 0 90 3f 66
        E 16 b0 0b 5d
        E 16 b0 0b 55
        E 16 b0 0b 44
        E 16 b0 0b 3b
        E 16 b0 0b 2a
        E 16 b0 0b 19
        E 16 b0 0b 08
        E 16 80 3f 00
        E 32 b0 0b 66
        E 0 90 41 66
        E 16 b0 0b 5d
        E 16 b0 0b 55
        E 16 b0 0b 44
        E 16 b0 0b 3b
        E 16 b0 0b 2a
        E 16 b0 0b 19
        E 16 b0 0b 08
        E 16 80 41 00
        E 32 b0 0b 66
        E 0 90 46 66
        E 16 b0 0b 5d
        E 16 b0 0b 55
        E 16 b0 0b 44
        E 16 b0 0b 3b
        E 16 b0 0b 2a
        E 16 b0 0b 19
        E 16 b0 0b 08
        E 16 80 46 00
        E 32 b0 0b 66
        E 0 90 44 66
        E 16 b0 0b 5d
        E 16 b0 0b 55
        E 16 b0 0b 44
        E 16 b0 0b 3b
        E 16 b0 0b 2a
        E 16 b0 0b 19
        E 16 b0 0b 08
        E 16 80 44 00
        E 32 b0 0b 66
        E 0 90 41 66
        E 16 b0 0b 5d
        E 16 b0 0b 55
        E 16 b0 0b 44
        E 16 b0 0b 3b
        E 16 b0 0b 2a
        E 16 b0 0b 19
        E 16 b0 0b 08
        E 16 80 41 00
        E 32 b0 0b 66
        E 0 90 46 66
        E 16 b0 0b 5d
        E 16 b0 0b 55
        E 16 b0 0b 44
        E 16 b0 0b 3b
        E 16 b0 0b 2a
        E 16 b0 0b 19
        E 16 b0 0b 08
        E 16 80 46 00
        E 32 b0 0b 66
        E 0 90 44 66
        E 16 b0 0b 5d
        E 16 b0 0b 55
        E 16 b0 0b 44
        E 16 b0 0b 3b
        E 16 b0 0b 2a
        E 16 b0 0b 19
        E 16 b0 0b 08
        E 16 80 44 00
        E 384 b0 7b 00
        E 0 ff 2f 00
      >
    >
  >
  <TRACK {16808636-241B-475E-8658-AADCAB2C2C4D}
    NAME "NES - Pulse 2 [ch1]"
    PEAKCOL 10092441
    BEAT -1
    AUTOMODE 0
    PANLAWFLAGS 3
    VOLPAN 1 0 -1 -1 1
    MUTESOLO 0 0 0
    IPHASE 0
    PLAYOFFS 0 1
    ISBUS 0 0
    BUSCOMP 0 0 0 0 0
    SHOWINMIX 1 0.6667 0.5 1 0.5 0 0 0
    FIXEDLANES 9 0 0 0 0
    SEL 0
    REC 0 5088 1 0 0 0 0 0
    VU 2
    TRACKHEIGHT 0 0 0 0 0 0 0
    INQ 0 0 0 0.5 100 0 0 100
    NCHAN 2
    FX 1
    TRACKID {16808636-241B-475E-8658-AADCAB2C2C4D}
    PERF 0
    MIDIOUT -1
    MAINSEND 1 0
    <FXCHAIN
      WNDRECT 24 52 700 560
      SHOW 0
      LASTSEL 0
      DOCKED 0
      BYPASS 0 0 0
      <JS "ReapNES Studio/ReapNES_Console.jsfx" ""
        2 15 1 10 80 10 100 2 1 15 1 5 60 10 80 1 1 0 50 0 0 15 1 0 100 0 0 0.500000 0.500000 0.400000 0.300000 0.800000 1 1 0 0 0 0 - - - - - - - - - - - - - - - - - - - - - - - - - -
      >
      FLOATPOS 0 0 0 0
      FXID {0B8FFCEC-C346-4C56-928B-BDF0E85E8272}
      WAK 0 0
    >
    <ITEM
      POSITION 0
      LENGTH 74.5878716
      LOOP 0
      ALLTAKES 0
      FADEIN 0 0 0 0 0 0 0
      FADEOUT 0 0 0 0 0 0 0
      MUTE 0 0
      SEL 0
      IGUID {7CFCA497-C793-4173-83F0-D8670713A429}
      <SOURCE MIDI
        HASDATA 1 480 QN
        CCINTERP 32
        E 0 c1 51
        E 64 b1 0c 10
        E 0 b1 0b 3b
        E 0 91 39 3b
        E 16 b1 0b 22
        E 16 b1 0b 2a
        E 16 b1 0b 33
        E 16 b1 0b 3b
        E 32 b1 0b 44
        E 16 b1 0b 4c
        E 16 b1 0b 55
        E 32 b1 0b 5d
        E 16 b1 0b 66
        E 16 b1 0b 55
        E 32 b1 0b 4c
        E 16 b1 0b 44
        E 16 b1 0b 3b
        E 32 b1 0b 33
        E 16 b1 0b 2a
        E 16 b1 0b 22
        E 320 81 39 00
        E 0 91 37 22
        E 32 b1 0b 2a
        E 16 b1 0b 33
        E 16 b1 0b 3b
        E 32 b1 0b 44
        E 16 b1 0b 4c
        E 16 b1 0b 55
        E 32 b1 0b 5d
        E 16 b1 0b 66
        E 16 b1 0b 55
        E 32 b1 0b 4c
        E 16 b1 0b 44
        E 16 b1 0b 3b
        E 32 b1 0b 33
        E 16 b1 0b 2a
        E 16 b1 0b 22
        E 320 81 37 00
        E 0 91 39 22
        E 32 b1 0b 2a
        E 16 b1 0b 33
        E 16 b1 0b 3b
        E 32 b1 0b 44
        E 16 b1 0b 4c
        E 16 b1 0b 55
        E 32 b1 0b 5d
        E 16 b1 0b 66
        E 16 b1 0b 55
        E 32 b1 0b 4c
        E 16 b1 0b 44
        E 16 b1 0b 3b
        E 32 b1 0b 33
        E 16 b1 0b 2a
        E 16 b1 0b 22
        E 320 81 39 00
        E 0 91 37 22
        E 32 b1 0b 2a
        E 16 b1 0b 33
        E 16 b1 0b 3b
        E 32 b1 0b 44
        E 16 b1 0b 4c
        E 16 b1 0b 55
        E 32 b1 0b 5d
        E 16 b1 0b 66
        E 16 b1 0b 55
        E 32 b1 0b 4c
        E 16 b1 0b 44
        E 16 b1 0b 3b
        E 32 b1 0b 33
        E 16 b1 0b 2a
        E 16 b1 0b 22
        E 320 81 37 00
        E 0 91 39 22
        E 32 b1 0b 2a
        E 16 b1 0b 33
        E 16 b1 0b 3b
        E 32 b1 0b 44
        E 16 b1 0b 4c
        E 16 b1 0b 55
        E 32 b1 0b 5d
        E 16 b1 0b 66
        E 16 b1 0b 55
        E 32 b1 0b 4c
        E 16 b1 0b 44
        E 16 b1 0b 3b
        E 32 b1 0b 33
        E 16 b1 0b 2a
        E 16 b1 0b 22
        E 320 81 39 00
        E 0 91 37 22
        E 32 b1 0b 2a
        E 16 b1 0b 33
        E 16 b1 0b 3b
        E 32 b1 0b 44
        E 16 b1 0b 4c
        E 16 b1 0b 55
        E 32 b1 0b 5d
        E 16 b1 0b 66
        E 16 b1 0b 55
        E 32 b1 0b 4c
        E 16 b1 0b 44
        E 16 b1 0b 3b
        E 32 b1 0b 33
        E 16 b1 0b 2a
        E 16 b1 0b 22
        E 320 81 37 00
        E 0 91 39 22
        E 32 b1 0b 2a
        E 16 b1 0b 33
        E 16 b1 0b 3b
        E 32 b1 0b 44
        E 16 b1 0b 4c
        E 16 b1 0b 55
        E 32 b1 0b 5d
        E 16 b1 0b 66
        E 16 b1 0b 55
        E 32 b1 0b 4c
        E 16 b1 0b 44
        E 16 b1 0b 3b
        E 32 b1 0b 33
        E 16 b1 0b 2a
        E 16 b1 0b 22
        E 320 81 39 00
        E 0 91 37 22
        E 32 b1 0b 2a
        E 16 b1 0b 33
        E 16 b1 0b 3b
        E 32 b1 0b 44
        E 16 b1 0b 4c
        E 16 b1 0b 55
        E 32 b1 0b 5d
        E 16 b1 0b 66
        E 16 b1 0b 55
        E 32 b1 0b 4c
        E 16 b1 0b 44
        E 16 b1 0b 3b
        E 32 b1 0b 33
        E 16 b1 0b 2a
        E 16 b1 0b 22
        E 320 81 37 00
        E 0 91 39 22
        E 32 b1 0b 2a
        E 16 b1 0b 33
        E 16 b1 0b 3b
        E 32 b1 0b 44
        E 16 b1 0b 4c
        E 16 b1 0b 55
        E 32 b1 0b 5d
        E 16 b1 0b 66
        E 16 b1 0b 55
        E 32 b1 0b 4c
        E 16 b1 0b 44
        E 16 b1 0b 3b
        E 32 b1 0b 33
        E 16 b1 0b 2a
        E 16 b1 0b 22
        E 320 81 39 00
        E 0 91 37 22
        E 32 b1 0b 2a
        E 16 b1 0b 33
        E 16 b1 0b 3b
        E 32 b1 0b 44
        E 16 b1 0b 4c
        E 16 b1 0b 55
        E 32 b1 0b 5d
        E 16 b1 0b 66
        E 16 b1 0b 55
        E 32 b1 0b 4c
        E 16 b1 0b 44
        E 16 b1 0b 3b
        E 32 b1 0b 33
        E 16 b1 0b 2a
        E 16 b1 0b 22
        E 320 81 37 00
        E 0 91 39 22
        E 32 b1 0b 2a
        E 16 b1 0b 33
        E 16 b1 0b 3b
        E 32 b1 0b 44
        E 16 b1 0b 4c
        E 16 b1 0b 55
        E 32 b1 0b 5d
        E 16 b1 0b 66
        E 16 b1 0b 55
        E 32 b1 0b 4c
        E 16 b1 0b 44
        E 16 b1 0b 3b
        E 32 b1 0b 33
        E 16 b1 0b 2a
        E 16 b1 0b 22
        E 320 81 39 00
        E 0 91 37 22
        E 32 b1 0b 2a
        E 16 b1 0b 33
        E 16 b1 0b 3b
        E 32 b1 0b 44
        E 16 b1 0b 4c
        E 16 b1 0b 55
        E 32 b1 0b 5d
        E 16 b1 0b 66
        E 16 b1 0b 55
        E 32 b1 0b 4c
        E 16 b1 0b 44
        E 16 b1 0b 3b
        E 32 b1 0b 33
        E 16 b1 0b 2a
        E 16 b1 0b 22
        E 320 81 37 00
        E 0 91 39 22
        E 32 b1 0b 2a
        E 16 b1 0b 33
        E 16 b1 0b 3b
        E 32 b1 0b 44
        E 16 b1 0b 4c
        E 16 b1 0b 55
        E 32 b1 0b 5d
        E 16 b1 0b 66
        E 16 b1 0b 55
        E 32 b1 0b 4c
        E 16 b1 0b 44
        E 16 b1 0b 3b
        E 32 b1 0b 33
        E 16 b1 0b 2a
        E 16 b1 0b 22
        E 320 81 39 00
        E 0 91 37 22
        E 32 b1 0b 2a
        E 16 b1 0b 33
        E 16 b1 0b 3b
        E 32 b1 0b 44
        E 16 b1 0b 4c
        E 16 b1 0b 55
        E 32 b1 0b 5d
        E 16 b1 0b 66
        E 16 b1 0b 55
        E 32 b1 0b 4c
        E 16 b1 0b 44
        E 16 b1 0b 3b
        E 32 b1 0b 33
        E 16 b1 0b 2a
        E 16 b1 0b 22
        E 320 81 37 00
        E 0 91 39 22
        E 32 b1 0b 2a
        E 16 b1 0b 33
        E 16 b1 0b 3b
        E 32 b1 0b 44
        E 16 b1 0b 4c
        E 16 b1 0b 55
        E 32 b1 0b 5d
        E 16 b1 0b 66
        E 16 b1 0b 55
        E 32 b1 0b 4c
        E 16 b1 0b 44
        E 16 b1 0b 3b
        E 32 b1 0b 33
        E 16 b1 0b 2a
        E 16 b1 0b 22
        E 320 81 39 00
        E 0 91 37 22
        E 32 b1 0b 2a
        E 16 b1 0b 33
        E 16 b1 0b 3b
        E 32 b1 0b 44
        E 16 b1 0b 4c
        E 16 b1 0b 55
        E 32 b1 0b 5d
        E 16 b1 0b 66
        E 16 b1 0b 55
        E 32 b1 0b 4c
        E 16 b1 0b 44
        E 16 b1 0b 3b
        E 32 b1 0b 33
        E 16 b1 0b 2a
        E 16 b1 0b 22
        E 320 81 37 00
        E 0 91 3e 22
        E 32 b1 0b 2a
        E 16 b1 0b 33
        E 16 b1 0b 3b
        E 32 b1 0b 44
        E 16 b1 0b 4c
        E 16 b1 0b 55
        E 32 b1 0b 5d
        E 16 b1 0b 66
        E 16 b1 0b 55
        E 32 b1 0b 4c
        E 16 b1 0b 44
        E 16 b1 0b 3b
        E 32 b1 0b 33
        E 16 b1 0b 2a
        E 16 b1 0b 22
        E 320 81 3e 00
        E 0 91 3c 22
        E 32 b1 0b 2a
        E 16 b1 0b 33
        E 16 b1 0b 3b
        E 32 b1 0b 44
        E 16 b1 0b 4c
        E 16 b1 0b 55
        E 32 b1 0b 5d
        E 16 b1 0b 66
        E 16 b1 0b 55
        E 32 b1 0b 4c
        E 16 b1 0b 44
        E 16 b1 0b 3b
        E 32 b1 0b 33
        E 16 b1 0b 2a
        E 16 b1 0b 22
        E 320 81 3c 00
        E 0 91 3e 22
        E 32 b1 0b 2a
        E 16 b1 0b 33
        E 16 b1 0b 3b
        E 32 b1 0b 44
        E 16 b1 0b 4c
        E 16 b1 0b 55
        E 32 b1 0b 5d
        E 16 b1 0b 66
        E 16 b1 0b 55
        E 32 b1 0b 4c
        E 16 b1 0b 44
        E 16 b1 0b 3b
        E 32 b1 0b 33
        E 16 b1 0b 2a
        E 16 b1 0b 22
        E 320 b1 0b 44
        E 0 81 3e 00
        E 0 91 30 44
        E 16 b1 0b 3b
        E 16 b1 0b 33
        E 16 b1 0b 2a
        E 16 b1 0b 22
        E 16 b1 0b 44
        E 0 81 30 00
        E 0 91 32 44
        E 16 b1 0b 3b
        E 16 b1 0b 33
        E 16 b1 0b 2a
        E 16 b1 0b 22
        E 16 b1 0b 44
        E 0 81 32 00
        E 0 91 33 44
        E 16 b1 0b 3b
        E 16 b1 0b 33
        E 16 b1 0b 2a
        E 16 b1 0b 22
        E 16 b1 0b 44
        E 0 81 33 00
        E 0 91 38 44
        E 16 b1 0b 3b
        E 16 b1 0b 33
        E 16 b1 0b 2a
        E 16 b1 0b 22
        E 16 b1 0b 44
        E 0 81 38 00
        E 0 91 3c 44
        E 16 b1 0b 3b
        E 16 b1 0b 33
        E 16 b1 0b 2a
        E 16 b1 0b 22
        E 16 b1 0b 44
        E 0 81 3c 00
        E 0 91 3e 44
        E 16 b1 0b 3b
        E 16 b1 0b 33
        E 16 b1 0b 2a
        E 16 b1 0b 22
        E 16 b1 0b 44
        E 0 81 3e 00
        E 0 91 3f 44
        E 16 b1 0b 3b
        E 16 b1 0b 33
        E 16 b1 0b 2a
        E 16 b1 0b 22
        E 16 b1 0b 44
        E 0 81 3f 00
        E 0 91 44 44
        E 16 b1 0b 3b
        E 16 b1 0b 33
        E 16 b1 0b 2a
        E 16 b1 0b 22
        E 16 81 44 00
        E 0 91 3e 22
        E 32 b1 0b 2a
        E 16 b1 0b 33
        E 16 b1 0b 3b
        E 32 b1 0b 44
        E 16 b1 0b 4c
        E 16 b1 0b 55
        E 32 b1 0b 5d
        E 16 b1 0b 66
        E 16 b1 0b 55
        E 32 b1 0b 4c
        E 16 b1 0b 44
        E 16 b1 0b 3b
        E 32 b1 0b 33
        E 16 b1 0b 2a
        E 16 b1 0b 22
        E 320 81 3e 00
        E 0 91 3c 22
        E 32 b1 0b 2a
        E 16 b1 0b 33
        E 16 b1 0b 3b
        E 32 b1 0b 44
        E 16 b1 0b 4c
        E 16 b1 0b 55
        E 32 b1 0b 5d
        E 16 b1 0b 66
        E 16 b1 0b 55
        E 32 b1 0b 4c
        E 16 b1 0b 44
        E 16 b1 0b 3b
        E 32 b1 0b 33
        E 16 b1 0b 2a
        E 16 b1 0b 22
        E 320 81 3c 00
        E 0 91 3e 22
        E 32 b1 0b 2a
        E 16 b1 0b 33
        E 16 b1 0b 3b
        E 32 b1 0b 44
        E 16 b1 0b 4c
        E 16 b1 0b 55
        E 32 b1 0b 5d
        E 16 b1 0b 66
        E 16 b1 0b 55
        E 32 b1 0b 4c
        E 16 b1 0b 44
        E 16 b1 0b 3b
        E 32 b1 0b 33
        E 16 b1 0b 2a
        E 16 b1 0b 22
        E 320 b1 0b 44
        E 0 81 3e 00
        E 0 91 30 44
        E 16 b1 0b 3b
        E 16 b1 0b 33
        E 16 b1 0b 2a
        E 16 b1 0b 22
        E 16 b1 0b 44
        E 0 81 30 00
        E 0 91 37 44
        E 16 b1 0b 3b
        E 16 b1 0b 33
        E 16 b1 0b 2a
        E 16 b1 0b 22
        E 16 b1 0b 44
        E 0 81 37 00
        E 0 91 3e 44
        E 16 b1 0b 3b
        E 16 b1 0b 33
        E 16 b1 0b 2a
        E 16 b1 0b 22
        E 16 b1 0b 44
        E 0 81 3e 00
        E 0 91 45 44
        E 16 b1 0b 3b
        E 16 b1 0b 33
        E 16 b1 0b 2a
        E 16 b1 0b 22
        E 16 b1 0b 44
        E 0 81 45 00
        E 0 91 32 44
        E 16 b1 0b 3b
        E 16 b1 0b 33
        E 16 b1 0b 2a
        E 16 b1 0b 22
        E 16 b1 0b 44
        E 0 81 32 00
        E 0 91 39 44
        E 16 b1 0b 3b
        E 16 b1 0b 33
        E 16 b1 0b 2a
        E 16 b1 0b 22
        E 16 b1 0b 44
        E 0 81 39 00
        E 0 91 40 44
        E 16 b1 0b 3b
        E 16 b1 0b 33
        E 16 b1 0b 2a
        E 16 b1 0b 22
        E 16 b1 0b 44
        E 0 81 40 00
        E 0 91 47 44
        E 16 b1 0b 3b
        E 16 b1 0b 33
        E 16 b1 0b 2a
        E 16 b1 0b 22
        E 16 81 47 00
        E 0 91 3b 22
        E 32 b1 0b 2a
        E 16 b1 0b 33
        E 16 b1 0b 3b
        E 32 b1 0b 44
        E 16 b1 0b 4c
        E 16 b1 0b 55
        E 32 b1 0b 5d
        E 16 b1 0b 66
        E 16 b1 0b 55
        E 32 b1 0b 4c
        E 16 b1 0b 44
        E 16 b1 0b 3b
        E 32 b1 0b 33
        E 16 b1 0b 2a
        E 16 b1 0b 22
        E 320 81 3b 00
        E 0 91 38 22
        E 32 b1 0b 2a
        E 16 b1 0b 33
        E 16 b1 0b 3b
        E 32 b1 0b 44
        E 16 b1 0b 4c
        E 16 b1 0b 55
        E 32 b1 0b 5d
        E 16 b1 0b 66
        E 16 b1 0b 55
        E 32 b1 0b 4c
        E 16 b1 0b 44
        E 16 b1 0b 3b
        E 32 b1 0b 33
        E 16 b1 0b 2a
        E 16 b1 0b 22
        E 320 81 38 00
        E 0 91 35 22
        E 32 b1 0b 2a
        E 16 b1 0b 33
        E 16 b1 0b 3b
        E 32 b1 0b 44
        E 16 b1 0b 4c
        E 16 b1 0b 55
        E 32 b1 0b 5d
        E 16 b1 0b 66
        E 16 b1 0b 55
        E 32 b1 0b 4c
        E 16 b1 0b 44
        E 16 b1 0b 3b
        E 32 b1 0b 33
        E 16 b1 0b 2a
        E 16 b1 0b 22
        E 320 81 35 00
        E 0 91 38 22
        E 32 b1 0b 2a
        E 16 b1 0b 33
        E 16 b1 0b 3b
        E 32 b1 0b 44
        E 16 b1 0b 4c
        E 16 b1 0b 55
        E 32 b1 0b 5d
        E 16 b1 0b 66
        E 16 b1 0b 55
        E 32 b1 0b 4c
        E 16 b1 0b 44
        E 16 b1 0b 3b
        E 32 b1 0b 33
        E 16 b1 0b 2a
        E 16 b1 0b 22
        E 320 b1 0b 44
        E 0 81 38 00
        E 0 91 3a 44
        E 16 b1 0b 3b
        E 16 b1 0b 33
        E 16 b1 0b 2a
        E 16 b1 0b 22
        E 16 b1 0b 19
        E 16 b1 0b 11
        E 16 b1 0b 08
        E 16 81 3a 00
        E 32 b1 0b 44
        E 0 91 3a 44
        E 16 b1 0b 3b
        E 16 b1 0b 33
        E 16 b1 0b 2a
        E 16 b1 0b 22
        E 16 b1 0b 19
        E 16 b1 0b 11
        E 16 b1 0b 08
        E 16 81 3a 00
        E 32 b1 0b 44
        E 0 91 39 44
        E 16 b1 0b 3b
        E 16 b1 0b 33
        E 16 b1 0b 2a
        E 16 b1 0b 22
        E 16 b1 0b 19
        E 16 b1 0b 11
        E 16 b1 0b 08
        E 16 81 39 00
        E 32 b1 0b 44
        E 0 91 3a 44
        E 16 b1 0b 3b
        E 16 b1 0b 33
        E 16 b1 0b 2a
        E 16 b1 0b 22
        E 16 b1 0b 19
        E 16 b1 0b 11
        E 16 b1 0b 08
        E 16 81 3a 00
        E 192 b1 0b 44
        E 0 91 3a 44
        E 16 b1 0b 3b
        E 16 b1 0b 33
        E 16 b1 0b 2a
        E 16 b1 0b 22
        E 16 b1 0b 19
        E 16 b1 0b 11
        E 16 b1 0b 08
        E 16 81 3a 00
        E 32 b1 0b 44
        E 0 91 39 44
        E 16 b1 0b 3b
        E 16 b1 0b 33
        E 16 b1 0b 2a
        E 16 b1 0b 22
        E 16 b1 0b 19
        E 16 b1 0b 11
        E 16 b1 0b 08
        E 16 81 39 00
        E 32 b1 0b 44
        E 0 91 3a 44
        E 16 b1 0b 3b
        E 16 b1 0b 33
        E 16 b1 0b 2a
        E 16 b1 0b 22
        E 16 b1 0b 19
        E 16 b1 0b 11
        E 16 b1 0b 08
        E 16 81 3a 00
        E 32 b1 0b 44
        E 0 91 37 44
        E 16 b1 0b 3b
        E 16 b1 0b 33
        E 16 b1 0b 2a
        E 16 b1 0b 22
        E 16 b1 0b 19
        E 16 b1 0b 11
        E 16 b1 0b 08
        E 16 81 37 00
        E 32 b1 0b 44
        E 0 91 37 44
        E 16 b1 0b 3b
        E 16 b1 0b 33
        E 16 b1 0b 2a
        E 16 b1 0b 22
        E 16 b1 0b 19
        E 16 b1 0b 11
        E 16 b1 0b 08
        E 16 81 37 00
        E 32 b1 0b 44
        E 0 91 34 44
        E 16 b1 0b 3b
        E 16 b1 0b 33
        E 16 b1 0b 2a
        E 16 b1 0b 22
        E 16 b1 0b 19
        E 16 b1 0b 11
        E 16 b1 0b 08
        E 16 81 34 00
        E 32 b1 0b 44
        E 0 91 37 44
        E 16 b1 0b 3b
        E 16 b1 0b 33
        E 16 b1 0b 2a
        E 16 b1 0b 22
        E 16 b1 0b 19
        E 16 b1 0b 11
        E 16 b1 0b 08
        E 16 81 37 00
        E 192 b1 0b 44
        E 0 91 37 44
        E 16 b1 0b 3b
        E 16 b1 0b 33
        E 16 b1 0b 2a
        E 16 b1 0b 22
        E 16 b1 0b 19
        E 16 b1 0b 11
        E 16 b1 0b 08
        E 16 81 37 00
        E 32 b1 0b 44
        E 0 91 34 44
        E 16 b1 0b 3b
        E 16 b1 0b 33
        E 16 b1 0b 2a
        E 16 b1 0b 22
        E 16 b1 0b 19
        E 16 b1 0b 11
        E 16 b1 0b 08
        E 16 81 34 00
        E 32 b1 0b 44
        E 0 91 37 44
        E 16 b1 0b 3b
        E 16 b1 0b 33
        E 16 b1 0b 2a
        E 16 b1 0b 22
        E 16 b1 0b 19
        E 16 b1 0b 11
        E 16 b1 0b 08
        E 16 81 37 00
        E 32 b1 0b 22
        E 0 91 39 22
        E 32 b1 0b 2a
        E 16 b1 0b 33
        E 16 b1 0b 3b
        E 32 b1 0b 44
        E 16 b1 0b 4c
        E 16 b1 0b 55
        E 32 b1 0b 5d
        E 16 b1 0b 66
        E 16 b1 0b 55
        E 32 b1 0b 4c
        E 16 b1 0b 44
        E 16 b1 0b 3b
        E 32 b1 0b 33
        E 16 b1 0b 2a
        E 16 b1 0b 22
        E 320 81 39 00
        E 0 91 37 22
        E 32 b1 0b 2a
        E 16 b1 0b 33
        E 16 b1 0b 3b
        E 32 b1 0b 44
        E 16 b1 0b 4c
        E 16 b1 0b 55
        E 32 b1 0b 5d
        E 16 b1 0b 66
        E 16 b1 0b 55
        E 32 b1 0b 4c
        E 16 b1 0b 44
        E 16 b1 0b 3b
        E 32 b1 0b 33
        E 16 b1 0b 2a
        E 16 b1 0b 22
        E 320 81 37 00
        E 0 91 39 22
        E 32 b1 0b 2a
        E 16 b1 0b 33
        E 16 b1 0b 3b
        E 32 b1 0b 44
        E 16 b1 0b 4c
        E 16 b1 0b 55
        E 32 b1 0b 5d
        E 16 b1 0b 66
        E 16 b1 0b 55
        E 32 b1 0b 4c
        E 16 b1 0b 44
        E 16 b1 0b 3b
        E 32 b1 0b 33
        E 16 b1 0b 2a
        E 16 b1 0b 22
        E 320 81 39 00
        E 0 91 37 22
        E 32 b1 0b 2a
        E 16 b1 0b 33
        E 16 b1 0b 3b
        E 32 b1 0b 44
        E 16 b1 0b 4c
        E 16 b1 0b 55
        E 32 b1 0b 5d
        E 16 b1 0b 66
        E 16 b1 0b 55
        E 32 b1 0b 4c
        E 16 b1 0b 44
        E 16 b1 0b 3b
        E 32 b1 0b 33
        E 16 b1 0b 2a
        E 16 b1 0b 22
        E 320 81 37 00
        E 0 91 39 22
        E 32 b1 0b 2a
        E 16 b1 0b 33
        E 16 b1 0b 3b
        E 32 b1 0b 44
        E 16 b1 0b 4c
        E 16 b1 0b 55
        E 32 b1 0b 5d
        E 16 b1 0b 66
        E 16 b1 0b 55
        E 32 b1 0b 4c
        E 16 b1 0b 44
        E 16 b1 0b 3b
        E 32 b1 0b 33
        E 16 b1 0b 2a
        E 16 b1 0b 22
        E 320 81 39 00
        E 0 91 37 22
        E 32 b1 0b 2a
        E 16 b1 0b 33
        E 16 b1 0b 3b
        E 32 b1 0b 44
        E 16 b1 0b 4c
        E 16 b1 0b 55
        E 32 b1 0b 5d
        E 16 b1 0b 66
        E 16 b1 0b 55
        E 32 b1 0b 4c
        E 16 b1 0b 44
        E 16 b1 0b 3b
        E 32 b1 0b 33
        E 16 b1 0b 2a
        E 16 b1 0b 22
        E 320 81 37 00
        E 0 91 39 22
        E 32 b1 0b 2a
        E 16 b1 0b 33
        E 16 b1 0b 3b
        E 32 b1 0b 44
        E 16 b1 0b 4c
        E 16 b1 0b 55
        E 32 b1 0b 5d
        E 16 b1 0b 66
        E 16 b1 0b 55
        E 32 b1 0b 4c
        E 16 b1 0b 44
        E 16 b1 0b 3b
        E 32 b1 0b 33
        E 16 b1 0b 2a
        E 16 b1 0b 22
        E 320 81 39 00
        E 0 91 37 22
        E 32 b1 0b 2a
        E 16 b1 0b 33
        E 16 b1 0b 3b
        E 32 b1 0b 44
        E 16 b1 0b 4c
        E 16 b1 0b 55
        E 32 b1 0b 5d
        E 16 b1 0b 66
        E 16 b1 0b 55
        E 32 b1 0b 4c
        E 16 b1 0b 44
        E 16 b1 0b 3b
        E 32 b1 0b 33
        E 16 b1 0b 2a
        E 16 b1 0b 22
        E 320 81 37 00
        E 0 91 39 22
        E 32 b1 0b 2a
        E 16 b1 0b 33
        E 16 b1 0b 3b
        E 32 b1 0b 44
        E 16 b1 0b 4c
        E 16 b1 0b 55
        E 32 b1 0b 5d
        E 16 b1 0b 66
        E 16 b1 0b 55
        E 32 b1 0b 4c
        E 16 b1 0b 44
        E 16 b1 0b 3b
        E 32 b1 0b 33
        E 16 b1 0b 2a
        E 16 b1 0b 22
        E 320 81 39 00
        E 0 91 37 22
        E 32 b1 0b 2a
        E 16 b1 0b 33
        E 16 b1 0b 3b
        E 32 b1 0b 44
        E 16 b1 0b 4c
        E 16 b1 0b 55
        E 32 b1 0b 5d
        E 16 b1 0b 66
        E 16 b1 0b 55
        E 32 b1 0b 4c
        E 16 b1 0b 44
        E 16 b1 0b 3b
        E 32 b1 0b 33
        E 16 b1 0b 2a
        E 16 b1 0b 22
        E 320 81 37 00
        E 0 91 39 22
        E 32 b1 0b 2a
        E 16 b1 0b 33
        E 16 b1 0b 3b
        E 32 b1 0b 44
        E 16 b1 0b 4c
        E 16 b1 0b 55
        E 32 b1 0b 5d
        E 16 b1 0b 66
        E 16 b1 0b 55
        E 32 b1 0b 4c
        E 16 b1 0b 44
        E 16 b1 0b 3b
        E 32 b1 0b 33
        E 16 b1 0b 2a
        E 16 b1 0b 22
        E 320 81 39 00
        E 0 91 37 22
        E 32 b1 0b 2a
        E 16 b1 0b 33
        E 16 b1 0b 3b
        E 32 b1 0b 44
        E 16 b1 0b 4c
        E 16 b1 0b 55
        E 32 b1 0b 5d
        E 16 b1 0b 66
        E 16 b1 0b 55
        E 32 b1 0b 4c
        E 16 b1 0b 44
        E 16 b1 0b 3b
        E 32 b1 0b 33
        E 16 b1 0b 2a
        E 16 b1 0b 22
        E 320 81 37 00
        E 0 91 39 22
        E 32 b1 0b 2a
        E 16 b1 0b 33
        E 16 b1 0b 3b
        E 32 b1 0b 44
        E 16 b1 0b 4c
        E 16 b1 0b 55
        E 32 b1 0b 5d
        E 16 b1 0b 66
        E 16 b1 0b 55
        E 32 b1 0b 4c
        E 16 b1 0b 44
        E 16 b1 0b 3b
        E 32 b1 0b 33
        E 16 b1 0b 2a
        E 16 b1 0b 22
        E 320 81 39 00
        E 0 91 37 22
        E 32 b1 0b 2a
        E 16 b1 0b 33
        E 16 b1 0b 3b
        E 32 b1 0b 44
        E 16 b1 0b 4c
        E 16 b1 0b 55
        E 32 b1 0b 5d
        E 16 b1 0b 66
        E 16 b1 0b 55
        E 32 b1 0b 4c
        E 16 b1 0b 44
        E 16 b1 0b 3b
        E 32 b1 0b 33
        E 16 b1 0b 2a
        E 16 b1 0b 22
        E 320 81 37 00
        E 0 91 39 22
        E 32 b1 0b 2a
        E 16 b1 0b 33
        E 16 b1 0b 3b
        E 32 b1 0b 44
        E 16 b1 0b 4c
        E 16 b1 0b 55
        E 32 b1 0b 5d
        E 16 b1 0b 66
        E 16 b1 0b 55
        E 32 b1 0b 4c
        E 16 b1 0b 44
        E 16 b1 0b 3b
        E 32 b1 0b 33
        E 16 b1 0b 2a
        E 16 b1 0b 22
        E 320 81 39 00
        E 0 91 37 22
        E 32 b1 0b 2a
        E 16 b1 0b 33
        E 16 b1 0b 3b
        E 32 b1 0b 44
        E 16 b1 0b 4c
        E 16 b1 0b 55
        E 32 b1 0b 5d
        E 16 b1 0b 66
        E 16 b1 0b 55
        E 32 b1 0b 4c
        E 16 b1 0b 44
        E 16 b1 0b 3b
        E 32 b1 0b 33
        E 16 b1 0b 2a
        E 16 b1 0b 22
        E 320 81 37 00
        E 0 91 3e 22
        E 32 b1 0b 2a
        E 16 b1 0b 33
        E 16 b1 0b 3b
        E 32 b1 0b 44
        E 16 b1 0b 4c
        E 16 b1 0b 55
        E 32 b1 0b 5d
        E 16 b1 0b 66
        E 16 b1 0b 55
        E 32 b1 0b 4c
        E 16 b1 0b 44
        E 16 b1 0b 3b
        E 32 b1 0b 33
        E 16 b1 0b 2a
        E 16 b1 0b 22
        E 320 81 3e 00
        E 0 91 3c 22
        E 32 b1 0b 2a
        E 16 b1 0b 33
        E 16 b1 0b 3b
        E 32 b1 0b 44
        E 16 b1 0b 4c
        E 16 b1 0b 55
        E 32 b1 0b 5d
        E 16 b1 0b 66
        E 16 b1 0b 55
        E 32 b1 0b 4c
        E 16 b1 0b 44
        E 16 b1 0b 3b
        E 32 b1 0b 33
        E 16 b1 0b 2a
        E 16 b1 0b 22
        E 320 81 3c 00
        E 0 91 3e 22
        E 32 b1 0b 2a
        E 16 b1 0b 33
        E 16 b1 0b 3b
        E 32 b1 0b 44
        E 16 b1 0b 4c
        E 16 b1 0b 55
        E 32 b1 0b 5d
        E 16 b1 0b 66
        E 16 b1 0b 55
        E 32 b1 0b 4c
        E 16 b1 0b 44
        E 16 b1 0b 3b
        E 32 b1 0b 33
        E 16 b1 0b 2a
        E 16 b1 0b 22
        E 320 b1 0b 44
        E 0 81 3e 00
        E 0 91 30 44
        E 16 b1 0b 3b
        E 16 b1 0b 33
        E 16 b1 0b 2a
        E 16 b1 0b 22
        E 16 b1 0b 44
        E 0 81 30 00
        E 0 91 32 44
        E 16 b1 0b 3b
        E 16 b1 0b 33
        E 16 b1 0b 2a
        E 16 b1 0b 22
        E 16 b1 0b 44
        E 0 81 32 00
        E 0 91 33 44
        E 16 b1 0b 3b
        E 16 b1 0b 33
        E 16 b1 0b 2a
        E 16 b1 0b 22
        E 16 b1 0b 44
        E 0 81 33 00
        E 0 91 38 44
        E 16 b1 0b 3b
        E 16 b1 0b 33
        E 16 b1 0b 2a
        E 16 b1 0b 22
        E 16 b1 0b 44
        E 0 81 38 00
        E 0 91 3c 44
        E 16 b1 0b 3b
        E 16 b1 0b 33
        E 16 b1 0b 2a
        E 16 b1 0b 22
        E 16 b1 0b 44
        E 0 81 3c 00
        E 0 91 3e 44
        E 16 b1 0b 3b
        E 16 b1 0b 33
        E 16 b1 0b 2a
        E 16 b1 0b 22
        E 16 b1 0b 44
        E 0 81 3e 00
        E 0 91 3f 44
        E 16 b1 0b 3b
        E 16 b1 0b 33
        E 16 b1 0b 2a
        E 16 b1 0b 22
        E 16 b1 0b 44
        E 0 81 3f 00
        E 0 91 44 44
        E 16 b1 0b 3b
        E 16 b1 0b 33
        E 16 b1 0b 2a
        E 16 b1 0b 22
        E 16 81 44 00
        E 0 91 3e 22
        E 32 b1 0b 2a
        E 16 b1 0b 33
        E 16 b1 0b 3b
        E 32 b1 0b 44
        E 16 b1 0b 4c
        E 16 b1 0b 55
        E 32 b1 0b 5d
        E 16 b1 0b 66
        E 16 b1 0b 55
        E 32 b1 0b 4c
        E 16 b1 0b 44
        E 16 b1 0b 3b
        E 32 b1 0b 33
        E 16 b1 0b 2a
        E 16 b1 0b 22
        E 320 81 3e 00
        E 0 91 3c 22
        E 32 b1 0b 2a
        E 16 b1 0b 33
        E 16 b1 0b 3b
        E 32 b1 0b 44
        E 16 b1 0b 4c
        E 16 b1 0b 55
        E 32 b1 0b 5d
        E 16 b1 0b 66
        E 16 b1 0b 55
        E 32 b1 0b 4c
        E 16 b1 0b 44
        E 16 b1 0b 3b
        E 32 b1 0b 33
        E 16 b1 0b 2a
        E 16 b1 0b 22
        E 320 81 3c 00
        E 0 91 3e 22
        E 32 b1 0b 2a
        E 16 b1 0b 33
        E 16 b1 0b 3b
        E 32 b1 0b 44
        E 16 b1 0b 4c
        E 16 b1 0b 55
        E 32 b1 0b 5d
        E 16 b1 0b 66
        E 16 b1 0b 55
        E 32 b1 0b 4c
        E 16 b1 0b 44
        E 16 b1 0b 3b
        E 32 b1 0b 33
        E 16 b1 0b 2a
        E 16 b1 0b 22
        E 320 b1 0b 44
        E 0 81 3e 00
        E 0 91 30 44
        E 16 b1 0b 3b
        E 16 b1 0b 33
        E 16 b1 0b 2a
        E 16 b1 0b 22
        E 16 b1 0b 44
        E 0 81 30 00
        E 0 91 37 44
        E 16 b1 0b 3b
        E 16 b1 0b 33
        E 16 b1 0b 2a
        E 16 b1 0b 22
        E 16 b1 0b 44
        E 0 81 37 00
        E 0 91 3e 44
        E 16 b1 0b 3b
        E 16 b1 0b 33
        E 16 b1 0b 2a
        E 16 b1 0b 22
        E 16 b1 0b 44
        E 0 81 3e 00
        E 0 91 45 44
        E 16 b1 0b 3b
        E 16 b1 0b 33
        E 16 b1 0b 2a
        E 16 b1 0b 22
        E 16 b1 0b 44
        E 0 81 45 00
        E 0 91 32 44
        E 16 b1 0b 3b
        E 16 b1 0b 33
        E 16 b1 0b 2a
        E 16 b1 0b 22
        E 16 b1 0b 44
        E 0 81 32 00
        E 0 91 39 44
        E 16 b1 0b 3b
        E 16 b1 0b 33
        E 16 b1 0b 2a
        E 16 b1 0b 22
        E 16 b1 0b 44
        E 0 81 39 00
        E 0 91 40 44
        E 16 b1 0b 3b
        E 16 b1 0b 33
        E 16 b1 0b 2a
        E 16 b1 0b 22
        E 16 b1 0b 44
        E 0 81 40 00
        E 0 91 47 44
        E 16 b1 0b 3b
        E 16 b1 0b 33
        E 16 b1 0b 2a
        E 16 b1 0b 22
        E 16 81 47 00
        E 0 91 3b 22
        E 32 b1 0b 2a
        E 16 b1 0b 33
        E 16 b1 0b 3b
        E 32 b1 0b 44
        E 16 b1 0b 4c
        E 16 b1 0b 55
        E 32 b1 0b 5d
        E 16 b1 0b 66
        E 16 b1 0b 55
        E 32 b1 0b 4c
        E 16 b1 0b 44
        E 16 b1 0b 3b
        E 32 b1 0b 33
        E 16 b1 0b 2a
        E 16 b1 0b 22
        E 320 81 3b 00
        E 0 91 38 22
        E 32 b1 0b 2a
        E 16 b1 0b 33
        E 16 b1 0b 3b
        E 32 b1 0b 44
        E 16 b1 0b 4c
        E 16 b1 0b 55
        E 32 b1 0b 5d
        E 16 b1 0b 66
        E 16 b1 0b 55
        E 32 b1 0b 4c
        E 16 b1 0b 44
        E 16 b1 0b 3b
        E 32 b1 0b 33
        E 16 b1 0b 2a
        E 16 b1 0b 22
        E 320 81 38 00
        E 0 91 35 22
        E 32 b1 0b 2a
        E 16 b1 0b 33
        E 16 b1 0b 3b
        E 32 b1 0b 44
        E 16 b1 0b 4c
        E 16 b1 0b 55
        E 32 b1 0b 5d
        E 16 b1 0b 66
        E 16 b1 0b 55
        E 32 b1 0b 4c
        E 16 b1 0b 44
        E 16 b1 0b 3b
        E 32 b1 0b 33
        E 16 b1 0b 2a
        E 16 b1 0b 22
        E 320 81 35 00
        E 0 91 38 22
        E 32 b1 0b 2a
        E 16 b1 0b 33
        E 16 b1 0b 3b
        E 32 b1 0b 44
        E 16 b1 0b 4c
        E 16 b1 0b 55
        E 32 b1 0b 5d
        E 16 b1 0b 66
        E 16 b1 0b 55
        E 32 b1 0b 4c
        E 16 b1 0b 44
        E 16 b1 0b 3b
        E 32 b1 0b 33
        E 16 b1 0b 2a
        E 16 b1 0b 22
        E 320 b1 0b 44
        E 0 81 38 00
        E 0 91 3a 44
        E 16 b1 0b 3b
        E 16 b1 0b 33
        E 16 b1 0b 2a
        E 16 b1 0b 22
        E 16 b1 0b 19
        E 16 b1 0b 11
        E 16 b1 0b 08
        E 16 81 3a 00
        E 32 b1 0b 44
        E 0 91 3a 44
        E 16 b1 0b 3b
        E 16 b1 0b 33
        E 16 b1 0b 2a
        E 16 b1 0b 22
        E 16 b1 0b 19
        E 16 b1 0b 11
        E 16 b1 0b 08
        E 16 81 3a 00
        E 32 b1 0b 44
        E 0 91 39 44
        E 16 b1 0b 3b
        E 16 b1 0b 33
        E 16 b1 0b 2a
        E 16 b1 0b 22
        E 16 b1 0b 19
        E 16 b1 0b 11
        E 16 b1 0b 08
        E 16 81 39 00
        E 32 b1 0b 44
        E 0 91 3a 44
        E 16 b1 0b 3b
        E 16 b1 0b 33
        E 16 b1 0b 2a
        E 16 b1 0b 22
        E 16 b1 0b 19
        E 16 b1 0b 11
        E 16 b1 0b 08
        E 16 81 3a 00
        E 192 b1 0b 44
        E 0 91 3a 44
        E 16 b1 0b 3b
        E 16 b1 0b 33
        E 16 b1 0b 2a
        E 16 b1 0b 22
        E 16 b1 0b 19
        E 16 b1 0b 11
        E 16 b1 0b 08
        E 16 81 3a 00
        E 32 b1 0b 44
        E 0 91 39 44
        E 16 b1 0b 3b
        E 16 b1 0b 33
        E 16 b1 0b 2a
        E 16 b1 0b 22
        E 16 b1 0b 19
        E 16 b1 0b 11
        E 16 b1 0b 08
        E 16 81 39 00
        E 32 b1 0b 44
        E 0 91 3a 44
        E 16 b1 0b 3b
        E 16 b1 0b 33
        E 16 b1 0b 2a
        E 16 b1 0b 22
        E 16 b1 0b 19
        E 16 b1 0b 11
        E 16 b1 0b 08
        E 16 81 3a 00
        E 32 b1 0b 44
        E 0 91 37 44
        E 16 b1 0b 3b
        E 16 b1 0b 33
        E 16 b1 0b 2a
        E 16 b1 0b 22
        E 16 b1 0b 19
        E 16 b1 0b 11
        E 16 b1 0b 08
        E 16 81 37 00
        E 32 b1 0b 44
        E 0 91 37 44
        E 16 b1 0b 3b
        E 16 b1 0b 33
        E 16 b1 0b 2a
        E 16 b1 0b 22
        E 16 b1 0b 19
        E 16 b1 0b 11
        E 16 b1 0b 08
        E 16 81 37 00
        E 32 b1 0b 44
        E 0 91 34 44
        E 16 b1 0b 3b
        E 16 b1 0b 33
        E 16 b1 0b 2a
        E 16 b1 0b 22
        E 16 b1 0b 19
        E 16 b1 0b 11
        E 16 b1 0b 08
        E 16 81 34 00
        E 32 b1 0b 44
        E 0 91 37 44
        E 16 b1 0b 3b
        E 16 b1 0b 33
        E 16 b1 0b 2a
        E 16 b1 0b 22
        E 16 b1 0b 19
        E 16 b1 0b 11
        E 16 b1 0b 08
        E 16 81 37 00
        E 192 b1 0b 44
        E 0 91 37 44
        E 16 b1 0b 3b
        E 16 b1 0b 33
        E 16 b1 0b 2a
        E 16 b1 0b 22
        E 16 b1 0b 19
        E 16 b1 0b 11
        E 16 b1 0b 08
        E 16 81 37 00
        E 32 b1 0b 44
        E 0 91 34 44
        E 16 b1 0b 3b
        E 16 b1 0b 33
        E 16 b1 0b 2a
        E 16 b1 0b 22
        E 16 b1 0b 19
        E 16 b1 0b 11
        E 16 b1 0b 08
        E 16 81 34 00
        E 32 b1 0b 44
        E 0 91 37 44
        E 16 b1 0b 3b
        E 16 b1 0b 33
        E 16 b1 0b 2a
        E 16 b1 0b 22
        E 16 b1 0b 19
        E 16 b1 0b 11
        E 16 b1 0b 08
        E 16 81 37 00
        E 32 b1 0b 22
        E 0 91 39 22
        E 32 b1 0b 2a
        E 16 b1 0b 33
        E 16 b1 0b 3b
        E 32 b1 0b 44
        E 16 b1 0b 4c
        E 16 b1 0b 55
        E 32 b1 0b 5d
        E 16 b1 0b 66
        E 16 b1 0b 55
        E 32 b1 0b 4c
        E 16 b1 0b 44
        E 16 b1 0b 3b
        E 32 b1 0b 33
        E 16 b1 0b 2a
        E 16 b1 0b 22
        E 320 81 39 00
        E 0 91 37 22
        E 32 b1 0b 2a
        E 16 b1 0b 33
        E 16 b1 0b 3b
        E 32 b1 0b 44
        E 16 b1 0b 4c
        E 16 b1 0b 55
        E 32 b1 0b 5d
        E 16 b1 0b 66
        E 16 b1 0b 55
        E 32 b1 0b 4c
        E 16 b1 0b 44
        E 16 b1 0b 3b
        E 32 b1 0b 33
        E 16 b1 0b 2a
        E 16 b1 0b 22
        E 320 81 37 00
        E 0 91 39 22
        E 32 b1 0b 2a
        E 16 b1 0b 33
        E 16 b1 0b 3b
        E 32 b1 0b 44
        E 16 b1 0b 4c
        E 16 b1 0b 55
        E 32 b1 0b 5d
        E 16 b1 0b 66
        E 16 b1 0b 55
        E 32 b1 0b 4c
        E 16 b1 0b 44
        E 16 b1 0b 3b
        E 32 b1 0b 33
        E 16 b1 0b 2a
        E 16 b1 0b 22
        E 320 81 39 00
        E 0 91 37 22
        E 32 b1 0b 2a
        E 16 b1 0b 33
        E 16 b1 0b 3b
        E 32 b1 0b 44
        E 16 b1 0b 4c
        E 16 b1 0b 55
        E 32 b1 0b 5d
        E 16 b1 0b 66
        E 16 b1 0b 55
        E 32 b1 0b 4c
        E 16 b1 0b 44
        E 16 b1 0b 3b
        E 32 b1 0b 33
        E 16 b1 0b 2a
        E 16 b1 0b 22
        E 320 81 37 00
        E 0 91 39 22
        E 32 b1 0b 2a
        E 16 b1 0b 33
        E 16 b1 0b 3b
        E 32 b1 0b 44
        E 16 b1 0b 4c
        E 16 b1 0b 55
        E 32 b1 0b 5d
        E 16 b1 0b 66
        E 16 b1 0b 55
        E 32 b1 0b 4c
        E 16 b1 0b 44
        E 16 b1 0b 3b
        E 32 b1 0b 33
        E 16 b1 0b 2a
        E 16 b1 0b 22
        E 320 81 39 00
        E 0 91 37 22
        E 32 b1 0b 2a
        E 16 b1 0b 33
        E 16 b1 0b 3b
        E 32 b1 0b 44
        E 16 b1 0b 4c
        E 16 b1 0b 55
        E 32 b1 0b 5d
        E 16 b1 0b 66
        E 16 b1 0b 55
        E 32 b1 0b 4c
        E 16 b1 0b 44
        E 16 b1 0b 3b
        E 32 b1 0b 33
        E 16 b1 0b 2a
        E 16 b1 0b 22
        E 320 81 37 00
        E 0 91 39 22
        E 32 b1 0b 2a
        E 16 b1 0b 33
        E 16 b1 0b 3b
        E 32 b1 0b 44
        E 16 b1 0b 4c
        E 16 b1 0b 55
        E 32 b1 0b 5d
        E 16 b1 0b 66
        E 16 b1 0b 55
        E 32 b1 0b 4c
        E 16 b1 0b 44
        E 16 b1 0b 3b
        E 32 b1 0b 33
        E 16 b1 0b 2a
        E 16 b1 0b 22
        E 320 81 39 00
        E 0 91 37 22
        E 32 b1 0b 2a
        E 16 b1 0b 33
        E 16 b1 0b 3b
        E 32 b1 0b 44
        E 16 b1 0b 4c
        E 16 b1 0b 55
        E 32 b1 0b 5d
        E 16 b1 0b 66
        E 16 b1 0b 55
        E 32 b1 0b 4c
        E 16 b1 0b 44
        E 16 b1 0b 3b
        E 32 b1 0b 33
        E 16 b1 0b 2a
        E 16 b1 0b 22
        E 320 81 37 00
        E 0 91 39 22
        E 32 b1 0b 2a
        E 16 b1 0b 33
        E 16 b1 0b 3b
        E 32 b1 0b 44
        E 16 b1 0b 4c
        E 16 b1 0b 55
        E 32 b1 0b 5d
        E 16 b1 0b 66
        E 16 b1 0b 55
        E 32 b1 0b 4c
        E 16 b1 0b 44
        E 16 b1 0b 3b
        E 32 b1 0b 33
        E 16 b1 0b 2a
        E 16 b1 0b 22
        E 320 81 39 00
        E 0 91 37 22
        E 32 b1 0b 2a
        E 16 b1 0b 33
        E 16 b1 0b 3b
        E 32 b1 0b 44
        E 16 b1 0b 4c
        E 16 b1 0b 55
        E 32 b1 0b 5d
        E 16 b1 0b 66
        E 16 b1 0b 55
        E 32 b1 0b 4c
        E 16 b1 0b 44
        E 16 b1 0b 3b
        E 32 b1 0b 33
        E 16 b1 0b 2a
        E 16 b1 0b 22
        E 320 81 37 00
        E 0 91 39 22
        E 32 b1 0b 2a
        E 16 b1 0b 33
        E 16 b1 0b 3b
        E 32 b1 0b 44
        E 16 b1 0b 4c
        E 16 b1 0b 55
        E 32 b1 0b 5d
        E 16 b1 0b 66
        E 16 b1 0b 55
        E 32 b1 0b 4c
        E 16 b1 0b 44
        E 16 b1 0b 3b
        E 32 b1 0b 33
        E 16 b1 0b 2a
        E 16 b1 0b 22
        E 320 81 39 00
        E 0 91 37 22
        E 32 b1 0b 2a
        E 16 b1 0b 33
        E 16 b1 0b 3b
        E 32 b1 0b 44
        E 16 b1 0b 4c
        E 16 b1 0b 55
        E 32 b1 0b 5d
        E 16 b1 0b 66
        E 16 b1 0b 55
        E 32 b1 0b 4c
        E 16 b1 0b 44
        E 16 b1 0b 3b
        E 32 b1 0b 33
        E 16 b1 0b 2a
        E 16 b1 0b 22
        E 320 81 37 00
        E 0 91 39 22
        E 32 b1 0b 2a
        E 16 b1 0b 33
        E 16 b1 0b 3b
        E 32 b1 0b 44
        E 16 b1 0b 4c
        E 16 b1 0b 55
        E 32 b1 0b 5d
        E 16 b1 0b 66
        E 16 b1 0b 55
        E 32 b1 0b 4c
        E 16 b1 0b 44
        E 16 b1 0b 3b
        E 32 b1 0b 33
        E 16 b1 0b 2a
        E 16 b1 0b 22
        E 320 81 39 00
        E 0 91 37 22
        E 32 b1 0b 2a
        E 16 b1 0b 33
        E 16 b1 0b 3b
        E 32 b1 0b 44
        E 16 b1 0b 4c
        E 16 b1 0b 55
        E 32 b1 0b 5d
        E 16 b1 0b 66
        E 16 b1 0b 55
        E 32 b1 0b 4c
        E 16 b1 0b 44
        E 16 b1 0b 3b
        E 32 b1 0b 33
        E 16 b1 0b 2a
        E 16 b1 0b 22
        E 320 81 37 00
        E 0 91 39 22
        E 32 b1 0b 2a
        E 16 b1 0b 33
        E 16 b1 0b 3b
        E 32 b1 0b 44
        E 16 b1 0b 4c
        E 16 b1 0b 55
        E 32 b1 0b 5d
        E 16 b1 0b 66
        E 16 b1 0b 55
        E 32 b1 0b 4c
        E 16 b1 0b 44
        E 16 b1 0b 3b
        E 32 b1 0b 33
        E 16 b1 0b 2a
        E 16 b1 0b 22
        E 320 81 39 00
        E 0 91 37 22
        E 32 b1 0b 2a
        E 16 b1 0b 33
        E 16 b1 0b 3b
        E 32 b1 0b 44
        E 16 b1 0b 4c
        E 16 b1 0b 55
        E 32 b1 0b 5d
        E 16 b1 0b 66
        E 16 b1 0b 55
        E 32 b1 0b 4c
        E 16 b1 0b 44
        E 16 b1 0b 3b
        E 32 b1 0b 33
        E 16 b1 0b 2a
        E 16 b1 0b 22
        E 320 81 37 00
        E 0 91 3e 22
        E 32 b1 0b 2a
        E 16 b1 0b 33
        E 16 b1 0b 3b
        E 32 b1 0b 44
        E 16 b1 0b 4c
        E 16 b1 0b 55
        E 32 b1 0b 5d
        E 16 b1 0b 66
        E 16 b1 0b 55
        E 32 b1 0b 4c
        E 16 b1 0b 44
        E 16 b1 0b 3b
        E 32 b1 0b 33
        E 16 b1 0b 2a
        E 16 b1 0b 22
        E 320 81 3e 00
        E 0 91 3c 22
        E 32 b1 0b 2a
        E 16 b1 0b 33
        E 16 b1 0b 3b
        E 32 b1 0b 44
        E 16 b1 0b 4c
        E 16 b1 0b 55
        E 32 b1 0b 5d
        E 16 b1 0b 66
        E 16 b1 0b 55
        E 32 b1 0b 4c
        E 16 b1 0b 44
        E 16 b1 0b 3b
        E 32 b1 0b 33
        E 16 b1 0b 2a
        E 16 b1 0b 22
        E 320 81 3c 00
        E 0 91 3e 22
        E 32 b1 0b 2a
        E 16 b1 0b 33
        E 16 b1 0b 3b
        E 32 b1 0b 44
        E 16 b1 0b 4c
        E 16 b1 0b 55
        E 32 b1 0b 5d
        E 16 b1 0b 66
        E 16 b1 0b 55
        E 32 b1 0b 4c
        E 16 b1 0b 44
        E 16 b1 0b 3b
        E 32 b1 0b 33
        E 16 b1 0b 2a
        E 16 b1 0b 22
        E 320 b1 0b 44
        E 0 81 3e 00
        E 0 91 30 44
        E 16 b1 0b 3b
        E 16 b1 0b 33
        E 16 b1 0b 2a
        E 16 b1 0b 22
        E 16 b1 0b 44
        E 0 81 30 00
        E 0 91 32 44
        E 16 b1 0b 3b
        E 16 b1 0b 33
        E 16 b1 0b 2a
        E 16 b1 0b 22
        E 16 b1 0b 44
        E 0 81 32 00
        E 0 91 33 44
        E 16 b1 0b 3b
        E 16 b1 0b 33
        E 16 b1 0b 2a
        E 16 b1 0b 22
        E 16 b1 0b 44
        E 0 81 33 00
        E 0 91 38 44
        E 16 b1 0b 3b
        E 16 b1 0b 33
        E 16 b1 0b 2a
        E 16 b1 0b 22
        E 16 b1 0b 44
        E 0 81 38 00
        E 0 91 3c 44
        E 16 b1 0b 3b
        E 16 b1 0b 33
        E 16 b1 0b 2a
        E 16 b1 0b 22
        E 16 b1 0b 44
        E 0 81 3c 00
        E 0 91 3e 44
        E 16 b1 0b 3b
        E 16 b1 0b 33
        E 16 b1 0b 2a
        E 16 b1 0b 22
        E 16 b1 0b 44
        E 0 81 3e 00
        E 0 91 3f 44
        E 16 b1 0b 3b
        E 16 b1 0b 33
        E 16 b1 0b 2a
        E 16 b1 0b 22
        E 16 b1 0b 44
        E 0 81 3f 00
        E 0 91 44 44
        E 16 b1 0b 3b
        E 16 b1 0b 33
        E 16 b1 0b 2a
        E 16 b1 0b 22
        E 16 81 44 00
        E 0 91 3e 22
        E 32 b1 0b 2a
        E 16 b1 0b 33
        E 16 b1 0b 3b
        E 32 b1 0b 44
        E 16 b1 0b 4c
        E 16 b1 0b 55
        E 32 b1 0b 5d
        E 16 b1 0b 66
        E 16 b1 0b 55
        E 32 b1 0b 4c
        E 16 b1 0b 44
        E 16 b1 0b 3b
        E 32 b1 0b 33
        E 16 b1 0b 2a
        E 16 b1 0b 22
        E 320 81 3e 00
        E 0 91 3c 22
        E 32 b1 0b 2a
        E 16 b1 0b 33
        E 16 b1 0b 3b
        E 32 b1 0b 44
        E 16 b1 0b 4c
        E 16 b1 0b 55
        E 32 b1 0b 5d
        E 16 b1 0b 66
        E 16 b1 0b 55
        E 32 b1 0b 4c
        E 16 b1 0b 44
        E 16 b1 0b 3b
        E 32 b1 0b 33
        E 16 b1 0b 2a
        E 16 b1 0b 22
        E 320 81 3c 00
        E 0 91 3e 22
        E 32 b1 0b 2a
        E 16 b1 0b 33
        E 16 b1 0b 3b
        E 32 b1 0b 44
        E 16 b1 0b 4c
        E 16 b1 0b 55
        E 32 b1 0b 5d
        E 16 b1 0b 66
        E 16 b1 0b 55
        E 32 b1 0b 4c
        E 16 b1 0b 44
        E 16 b1 0b 3b
        E 32 b1 0b 33
        E 16 b1 0b 2a
        E 16 b1 0b 22
        E 320 b1 0b 44
        E 0 81 3e 00
        E 0 91 30 44
        E 16 b1 0b 3b
        E 16 b1 0b 33
        E 16 b1 0b 2a
        E 16 b1 0b 22
        E 16 b1 0b 44
        E 0 81 30 00
        E 0 91 37 44
        E 16 b1 0b 3b
        E 16 b1 0b 33
        E 16 b1 0b 2a
        E 16 b1 0b 22
        E 16 b1 0b 44
        E 0 81 37 00
        E 0 91 3e 44
        E 16 b1 0b 3b
        E 16 b1 0b 33
        E 16 b1 0b 2a
        E 16 b1 0b 22
        E 16 b1 0b 44
        E 0 81 3e 00
        E 0 91 45 44
        E 16 b1 0b 3b
        E 16 b1 0b 33
        E 16 b1 0b 2a
        E 16 b1 0b 22
        E 16 b1 0b 44
        E 0 81 45 00
        E 0 91 32 44
        E 16 b1 0b 3b
        E 16 b1 0b 33
        E 16 b1 0b 2a
        E 16 b1 0b 22
        E 16 b1 0b 44
        E 0 81 32 00
        E 0 91 39 44
        E 16 b1 0b 3b
        E 16 b1 0b 33
        E 16 b1 0b 2a
        E 16 b1 0b 22
        E 16 b1 0b 44
        E 0 81 39 00
        E 0 91 40 44
        E 16 b1 0b 3b
        E 16 b1 0b 33
        E 16 b1 0b 2a
        E 16 b1 0b 22
        E 16 b1 0b 44
        E 0 81 40 00
        E 0 91 47 44
        E 16 b1 0b 3b
        E 16 b1 0b 33
        E 16 b1 0b 2a
        E 16 b1 0b 22
        E 16 81 47 00
        E 0 91 3b 22
        E 32 b1 0b 2a
        E 16 b1 0b 33
        E 16 b1 0b 3b
        E 32 b1 0b 44
        E 16 b1 0b 4c
        E 16 b1 0b 55
        E 32 b1 0b 5d
        E 16 b1 0b 66
        E 16 b1 0b 55
        E 32 b1 0b 4c
        E 16 b1 0b 44
        E 16 b1 0b 3b
        E 32 b1 0b 33
        E 16 b1 0b 2a
        E 16 b1 0b 22
        E 320 81 3b 00
        E 0 91 38 22
        E 32 b1 0b 2a
        E 16 b1 0b 33
        E 16 b1 0b 3b
        E 32 b1 0b 44
        E 16 b1 0b 4c
        E 16 b1 0b 55
        E 32 b1 0b 5d
        E 16 b1 0b 66
        E 16 b1 0b 55
        E 32 b1 0b 4c
        E 16 b1 0b 44
        E 16 b1 0b 3b
        E 32 b1 0b 33
        E 16 b1 0b 2a
        E 16 b1 0b 22
        E 320 81 38 00
        E 0 91 35 22
        E 32 b1 0b 2a
        E 16 b1 0b 33
        E 16 b1 0b 3b
        E 32 b1 0b 44
        E 16 b1 0b 4c
        E 16 b1 0b 55
        E 32 b1 0b 5d
        E 16 b1 0b 66
        E 16 b1 0b 55
        E 32 b1 0b 4c
        E 16 b1 0b 44
        E 16 b1 0b 3b
        E 32 b1 0b 33
        E 16 b1 0b 2a
        E 16 b1 0b 22
        E 320 81 35 00
        E 0 91 38 22
        E 32 b1 0b 2a
        E 16 b1 0b 33
        E 16 b1 0b 3b
        E 32 b1 0b 44
        E 16 b1 0b 4c
        E 16 b1 0b 55
        E 32 b1 0b 5d
        E 16 b1 0b 66
        E 16 b1 0b 55
        E 32 b1 0b 4c
        E 16 b1 0b 44
        E 16 b1 0b 3b
        E 32 b1 0b 33
        E 16 b1 0b 2a
        E 16 b1 0b 22
        E 320 b1 0b 44
        E 0 81 38 00
        E 0 91 3a 44
        E 16 b1 0b 3b
        E 16 b1 0b 33
        E 16 b1 0b 2a
        E 16 b1 0b 22
        E 16 b1 0b 19
        E 16 b1 0b 11
        E 16 b1 0b 08
        E 16 81 3a 00
        E 32 b1 0b 44
        E 0 91 3a 44
        E 16 b1 0b 3b
        E 16 b1 0b 33
        E 16 b1 0b 2a
        E 16 b1 0b 22
        E 16 b1 0b 19
        E 16 b1 0b 11
        E 16 b1 0b 08
        E 16 81 3a 00
        E 32 b1 0b 44
        E 0 91 39 44
        E 16 b1 0b 3b
        E 16 b1 0b 33
        E 16 b1 0b 2a
        E 16 b1 0b 22
        E 16 b1 0b 19
        E 16 b1 0b 11
        E 16 b1 0b 08
        E 16 81 39 00
        E 32 b1 0b 44
        E 0 91 3a 44
        E 16 b1 0b 3b
        E 16 b1 0b 33
        E 16 b1 0b 2a
        E 16 b1 0b 22
        E 16 b1 0b 19
        E 16 b1 0b 11
        E 16 b1 0b 08
        E 16 81 3a 00
        E 192 b1 0b 44
        E 0 91 3a 44
        E 16 b1 0b 3b
        E 16 b1 0b 33
        E 16 b1 0b 2a
        E 16 b1 0b 22
        E 16 b1 0b 19
        E 16 b1 0b 11
        E 16 b1 0b 08
        E 16 81 3a 00
        E 32 b1 0b 44
        E 0 91 39 44
        E 16 b1 0b 3b
        E 16 b1 0b 33
        E 16 b1 0b 2a
        E 16 b1 0b 22
        E 16 b1 0b 19
        E 16 b1 0b 11
        E 16 b1 0b 08
        E 16 81 39 00
        E 32 b1 0b 44
        E 0 91 3a 44
        E 16 b1 0b 3b
        E 16 b1 0b 33
        E 16 b1 0b 2a
        E 16 b1 0b 22
        E 16 b1 0b 19
        E 16 b1 0b 11
        E 16 b1 0b 08
        E 16 81 3a 00
        E 32 b1 0b 44
        E 0 91 37 44
        E 16 b1 0b 3b
        E 16 b1 0b 33
        E 16 b1 0b 2a
        E 16 b1 0b 22
        E 16 b1 0b 19
        E 16 b1 0b 11
        E 16 b1 0b 08
        E 16 81 37 00
        E 32 b1 0b 44
        E 0 91 37 44
        E 16 b1 0b 3b
        E 16 b1 0b 33
        E 16 b1 0b 2a
        E 16 b1 0b 22
        E 16 b1 0b 19
        E 16 b1 0b 11
        E 16 b1 0b 08
        E 16 81 37 00
        E 32 b1 0b 44
        E 0 91 34 44
        E 16 b1 0b 3b
        E 16 b1 0b 33
        E 16 b1 0b 2a
        E 16 b1 0b 22
        E 16 b1 0b 19
        E 16 b1 0b 11
        E 16 b1 0b 08
        E 16 81 34 00
        E 32 b1 0b 44
        E 0 91 37 44
        E 16 b1 0b 3b
        E 16 b1 0b 33
        E 16 b1 0b 2a
        E 16 b1 0b 22
        E 16 b1 0b 19
        E 16 b1 0b 11
        E 16 b1 0b 08
        E 16 81 37 00
        E 192 b1 0b 44
        E 0 91 37 44
        E 16 b1 0b 3b
        E 16 b1 0b 33
        E 16 b1 0b 2a
        E 16 b1 0b 22
        E 16 b1 0b 19
        E 16 b1 0b 11
        E 16 b1 0b 08
        E 16 81 37 00
        E 32 b1 0b 44
        E 0 91 34 44
        E 16 b1 0b 3b
        E 16 b1 0b 33
        E 16 b1 0b 2a
        E 16 b1 0b 22
        E 16 b1 0b 19
        E 16 b1 0b 11
        E 16 b1 0b 08
        E 16 81 34 00
        E 32 b1 0b 44
        E 0 91 37 44
        E 16 b1 0b 3b
        E 16 b1 0b 33
        E 16 b1 0b 2a
        E 16 b1 0b 22
        E 16 b1 0b 19
        E 16 b1 0b 11
        E 16 b1 0b 08
        E 16 81 37 00
        E 32 b1 0b 22
        E 0 91 39 22
        E 32 b1 0b 2a
        E 16 b1 0b 33
        E 16 b1 0b 3b
        E 32 b1 0b 44
        E 16 b1 0b 4c
        E 16 b1 0b 55
        E 32 b1 0b 5d
        E 16 b1 0b 66
        E 16 b1 0b 55
        E 32 b1 0b 4c
        E 16 b1 0b 44
        E 16 b1 0b 3b
        E 32 b1 0b 33
        E 16 b1 0b 2a
        E 16 b1 0b 22
        E 320 81 39 00
        E 0 91 37 22
        E 32 b1 0b 2a
        E 16 b1 0b 33
        E 16 b1 0b 3b
        E 32 b1 0b 44
        E 16 b1 0b 4c
        E 16 b1 0b 55
        E 32 b1 0b 5d
        E 16 b1 0b 66
        E 16 b1 0b 55
        E 32 b1 0b 4c
        E 16 b1 0b 44
        E 16 b1 0b 3b
        E 32 b1 0b 33
        E 16 b1 0b 2a
        E 16 b1 0b 22
        E 320 81 37 00
        E 0 91 39 22
        E 32 b1 0b 2a
        E 16 b1 0b 33
        E 16 b1 0b 3b
        E 32 b1 0b 44
        E 16 b1 0b 4c
        E 16 b1 0b 55
        E 32 b1 0b 5d
        E 16 b1 0b 66
        E 16 b1 0b 55
        E 32 b1 0b 4c
        E 16 b1 0b 44
        E 16 b1 0b 3b
        E 32 b1 0b 33
        E 16 b1 0b 2a
        E 16 b1 0b 22
        E 320 81 39 00
        E 0 91 37 22
        E 32 b1 0b 2a
        E 16 b1 0b 33
        E 16 b1 0b 3b
        E 32 b1 0b 44
        E 16 b1 0b 4c
        E 16 b1 0b 55
        E 32 b1 0b 5d
        E 16 b1 0b 66
        E 16 b1 0b 55
        E 32 b1 0b 4c
        E 16 b1 0b 44
        E 16 b1 0b 3b
        E 32 b1 0b 33
        E 16 b1 0b 2a
        E 16 b1 0b 22
        E 320 81 37 00
        E 0 91 39 22
        E 32 b1 0b 2a
        E 16 b1 0b 33
        E 16 b1 0b 3b
        E 32 b1 0b 44
        E 16 b1 0b 4c
        E 16 b1 0b 55
        E 32 b1 0b 5d
        E 16 b1 0b 66
        E 16 b1 0b 55
        E 32 b1 0b 4c
        E 16 b1 0b 44
        E 16 b1 0b 3b
        E 32 b1 0b 33
        E 16 b1 0b 2a
        E 16 b1 0b 22
        E 320 81 39 00
        E 0 91 37 22
        E 32 b1 0b 2a
        E 16 b1 0b 33
        E 16 b1 0b 3b
        E 32 b1 0b 44
        E 16 b1 0b 4c
        E 16 b1 0b 55
        E 32 b1 0b 5d
        E 16 b1 0b 66
        E 16 b1 0b 55
        E 32 b1 0b 4c
        E 16 b1 0b 44
        E 16 b1 0b 3b
        E 32 b1 0b 33
        E 16 b1 0b 2a
        E 16 b1 0b 22
        E 320 81 37 00
        E 0 91 39 22
        E 32 b1 0b 2a
        E 16 b1 0b 33
        E 16 b1 0b 3b
        E 32 b1 0b 44
        E 16 b1 0b 4c
        E 16 b1 0b 55
        E 32 b1 0b 5d
        E 16 b1 0b 66
        E 16 b1 0b 55
        E 32 b1 0b 4c
        E 16 b1 0b 44
        E 16 b1 0b 3b
        E 32 b1 0b 33
        E 16 b1 0b 2a
        E 16 b1 0b 22
        E 320 81 39 00
        E 0 91 37 22
        E 32 b1 0b 2a
        E 16 b1 0b 33
        E 16 b1 0b 3b
        E 32 b1 0b 44
        E 16 b1 0b 4c
        E 16 b1 0b 55
        E 32 b1 0b 5d
        E 16 b1 0b 66
        E 16 b1 0b 55
        E 32 b1 0b 4c
        E 16 b1 0b 44
        E 16 b1 0b 3b
        E 32 b1 0b 33
        E 16 b1 0b 2a
        E 16 b1 0b 22
        E 320 81 37 00
        E 0 91 39 22
        E 32 b1 0b 2a
        E 16 b1 0b 33
        E 16 b1 0b 3b
        E 32 b1 0b 44
        E 16 b1 0b 4c
        E 16 b1 0b 55
        E 32 b1 0b 5d
        E 16 b1 0b 66
        E 16 b1 0b 55
        E 32 b1 0b 4c
        E 16 b1 0b 44
        E 16 b1 0b 3b
        E 32 b1 0b 33
        E 16 b1 0b 2a
        E 16 b1 0b 22
        E 320 81 39 00
        E 0 91 37 22
        E 32 b1 0b 2a
        E 16 b1 0b 33
        E 16 b1 0b 3b
        E 32 b1 0b 44
        E 16 b1 0b 4c
        E 16 b1 0b 55
        E 32 b1 0b 5d
        E 16 b1 0b 66
        E 16 b1 0b 55
        E 32 b1 0b 4c
        E 16 b1 0b 44
        E 16 b1 0b 3b
        E 32 b1 0b 33
        E 16 b1 0b 2a
        E 16 b1 0b 22
        E 320 81 37 00
        E 0 91 39 22
        E 32 b1 0b 2a
        E 16 b1 0b 33
        E 16 b1 0b 3b
        E 32 b1 0b 44
        E 16 b1 0b 4c
        E 16 b1 0b 55
        E 32 b1 0b 5d
        E 16 b1 0b 66
        E 16 b1 0b 55
        E 32 b1 0b 4c
        E 16 b1 0b 44
        E 16 b1 0b 3b
        E 32 b1 0b 33
        E 16 b1 0b 2a
        E 16 b1 0b 22
        E 320 81 39 00
        E 0 91 37 22
        E 32 b1 0b 2a
        E 16 b1 0b 33
        E 16 b1 0b 3b
        E 32 b1 0b 44
        E 16 b1 0b 4c
        E 16 b1 0b 55
        E 32 b1 0b 5d
        E 16 b1 0b 66
        E 16 b1 0b 55
        E 32 b1 0b 4c
        E 16 b1 0b 44
        E 16 b1 0b 3b
        E 32 b1 0b 33
        E 16 b1 0b 2a
        E 16 b1 0b 22
        E 320 81 37 00
        E 0 91 39 22
        E 32 b1 0b 2a
        E 16 b1 0b 33
        E 16 b1 0b 3b
        E 32 b1 0b 44
        E 16 b1 0b 4c
        E 16 b1 0b 55
        E 32 b1 0b 5d
        E 16 b1 0b 66
        E 16 b1 0b 55
        E 32 b1 0b 4c
        E 16 b1 0b 44
        E 16 b1 0b 3b
        E 32 b1 0b 33
        E 16 b1 0b 2a
        E 16 b1 0b 22
        E 320 81 39 00
        E 0 91 37 22
        E 32 b1 0b 2a
        E 16 b1 0b 33
        E 16 b1 0b 3b
        E 32 b1 0b 44
        E 16 b1 0b 4c
        E 16 b1 0b 55
        E 32 b1 0b 5d
        E 16 b1 0b 66
        E 16 b1 0b 55
        E 32 b1 0b 4c
        E 16 b1 0b 44
        E 16 b1 0b 3b
        E 32 b1 0b 33
        E 16 b1 0b 2a
        E 16 b1 0b 22
        E 320 81 37 00
        E 0 91 39 22
        E 32 b1 0b 2a
        E 16 b1 0b 33
        E 16 b1 0b 3b
        E 32 b1 0b 44
        E 16 b1 0b 4c
        E 16 b1 0b 55
        E 32 b1 0b 5d
        E 16 b1 0b 66
        E 16 b1 0b 55
        E 32 b1 0b 4c
        E 16 b1 0b 44
        E 16 b1 0b 3b
        E 32 b1 0b 33
        E 16 b1 0b 2a
        E 16 b1 0b 22
        E 320 81 39 00
        E 0 91 37 22
        E 32 b1 0b 2a
        E 16 b1 0b 33
        E 16 b1 0b 3b
        E 32 b1 0b 44
        E 16 b1 0b 4c
        E 16 b1 0b 55
        E 32 b1 0b 5d
        E 16 b1 0b 66
        E 16 b1 0b 55
        E 32 b1 0b 4c
        E 16 b1 0b 44
        E 16 b1 0b 3b
        E 32 b1 0b 33
        E 16 b1 0b 2a
        E 16 b1 0b 22
        E 320 81 37 00
        E 0 91 3e 22
        E 32 b1 0b 2a
        E 16 b1 0b 33
        E 16 b1 0b 3b
        E 32 b1 0b 44
        E 16 b1 0b 4c
        E 16 b1 0b 55
        E 32 b1 0b 5d
        E 16 b1 0b 66
        E 16 b1 0b 55
        E 32 b1 0b 4c
        E 16 b1 0b 44
        E 16 b1 0b 3b
        E 32 b1 0b 33
        E 16 b1 0b 2a
        E 16 b1 0b 22
        E 320 81 3e 00
        E 0 91 3c 22
        E 32 b1 0b 2a
        E 16 b1 0b 33
        E 16 b1 0b 3b
        E 32 b1 0b 44
        E 16 b1 0b 4c
        E 16 b1 0b 55
        E 32 b1 0b 5d
        E 16 b1 0b 66
        E 16 b1 0b 55
        E 32 b1 0b 4c
        E 16 b1 0b 44
        E 16 b1 0b 3b
        E 32 b1 0b 33
        E 16 b1 0b 2a
        E 16 b1 0b 22
        E 320 81 3c 00
        E 0 91 3e 22
        E 32 b1 0b 2a
        E 16 b1 0b 33
        E 16 b1 0b 3b
        E 32 b1 0b 44
        E 16 b1 0b 4c
        E 16 b1 0b 55
        E 32 b1 0b 5d
        E 16 b1 0b 66
        E 16 b1 0b 55
        E 32 b1 0b 4c
        E 16 b1 0b 44
        E 16 b1 0b 3b
        E 32 b1 0b 33
        E 16 b1 0b 2a
        E 16 b1 0b 22
        E 320 b1 0b 44
        E 0 81 3e 00
        E 0 91 30 44
        E 16 b1 0b 3b
        E 16 b1 0b 33
        E 16 b1 0b 2a
        E 16 b1 0b 22
        E 16 b1 0b 44
        E 0 81 30 00
        E 0 91 32 44
        E 16 b1 0b 3b
        E 16 b1 0b 33
        E 16 b1 0b 2a
        E 16 b1 0b 22
        E 16 b1 0b 44
        E 0 81 32 00
        E 0 91 33 44
        E 16 b1 0b 3b
        E 16 b1 0b 33
        E 16 b1 0b 2a
        E 16 b1 0b 22
        E 16 b1 0b 44
        E 0 81 33 00
        E 0 91 38 44
        E 16 b1 0b 3b
        E 16 b1 0b 33
        E 16 b1 0b 2a
        E 16 b1 0b 22
        E 16 b1 0b 44
        E 0 81 38 00
        E 0 91 3c 44
        E 16 b1 0b 3b
        E 16 b1 0b 33
        E 16 b1 0b 2a
        E 16 b1 0b 22
        E 16 b1 0b 44
        E 0 81 3c 00
        E 0 91 3e 44
        E 16 b1 0b 3b
        E 16 b1 0b 33
        E 16 b1 0b 2a
        E 16 b1 0b 22
        E 16 b1 0b 44
        E 0 81 3e 00
        E 0 91 3f 44
        E 16 b1 0b 3b
        E 16 b1 0b 33
        E 16 b1 0b 2a
        E 16 b1 0b 22
        E 16 b1 0b 44
        E 0 81 3f 00
        E 0 91 44 44
        E 16 b1 0b 3b
        E 16 b1 0b 33
        E 16 b1 0b 2a
        E 16 b1 0b 22
        E 16 81 44 00
        E 0 91 3e 22
        E 32 b1 0b 2a
        E 16 b1 0b 33
        E 16 b1 0b 3b
        E 32 b1 0b 44
        E 16 b1 0b 4c
        E 16 b1 0b 55
        E 32 b1 0b 5d
        E 16 b1 0b 66
        E 16 b1 0b 55
        E 32 b1 0b 4c
        E 16 b1 0b 44
        E 16 b1 0b 3b
        E 32 b1 0b 33
        E 16 b1 0b 2a
        E 16 b1 0b 22
        E 320 81 3e 00
        E 0 91 3c 22
        E 32 b1 0b 2a
        E 16 b1 0b 33
        E 16 b1 0b 3b
        E 32 b1 0b 44
        E 16 b1 0b 4c
        E 16 b1 0b 55
        E 32 b1 0b 5d
        E 16 b1 0b 66
        E 16 b1 0b 55
        E 32 b1 0b 4c
        E 16 b1 0b 44
        E 16 b1 0b 3b
        E 32 b1 0b 33
        E 16 b1 0b 2a
        E 16 b1 0b 22
        E 320 81 3c 00
        E 0 91 3e 22
        E 32 b1 0b 2a
        E 16 b1 0b 33
        E 16 b1 0b 3b
        E 32 b1 0b 44
        E 16 b1 0b 4c
        E 16 b1 0b 55
        E 32 b1 0b 5d
        E 16 b1 0b 66
        E 16 b1 0b 55
        E 32 b1 0b 4c
        E 16 b1 0b 44
        E 16 b1 0b 3b
        E 32 b1 0b 33
        E 16 b1 0b 2a
        E 16 b1 0b 22
        E 320 b1 0b 44
        E 0 81 3e 00
        E 0 91 30 44
        E 16 b1 0b 3b
        E 16 b1 0b 33
        E 16 b1 0b 2a
        E 16 b1 0b 22
        E 16 b1 0b 44
        E 0 81 30 00
        E 0 91 37 44
        E 16 b1 0b 3b
        E 16 b1 0b 33
        E 16 b1 0b 2a
        E 16 b1 0b 22
        E 16 b1 0b 44
        E 0 81 37 00
        E 0 91 3e 44
        E 16 b1 0b 3b
        E 16 b1 0b 33
        E 16 b1 0b 2a
        E 16 b1 0b 22
        E 16 b1 0b 44
        E 0 81 3e 00
        E 0 91 45 44
        E 16 b1 0b 3b
        E 16 b1 0b 33
        E 16 b1 0b 2a
        E 16 b1 0b 22
        E 16 b1 0b 44
        E 0 81 45 00
        E 0 91 32 44
        E 16 b1 0b 3b
        E 16 b1 0b 33
        E 16 b1 0b 2a
        E 16 b1 0b 22
        E 16 b1 0b 44
        E 0 81 32 00
        E 0 91 39 44
        E 16 b1 0b 3b
        E 16 b1 0b 33
        E 16 b1 0b 2a
        E 16 b1 0b 22
        E 16 b1 0b 44
        E 0 81 39 00
        E 0 91 40 44
        E 16 b1 0b 3b
        E 16 81 40 00
        E 0 b1 7b 00
        E 0 ff 2f 00
      >
    >
  >
  <TRACK {083A6559-F85C-4F03-A2C6-77020171FDA8}
    NAME "NES - Triangle [ch2]"
    PEAKCOL 16744192
    BEAT -1
    AUTOMODE 0
    PANLAWFLAGS 3
    VOLPAN 1 0 -1 -1 1
    MUTESOLO 0 0 0
    IPHASE 0
    PLAYOFFS 0 1
    ISBUS 0 0
    BUSCOMP 0 0 0 0 0
    SHOWINMIX 1 0.6667 0.5 1 0.5 0 0 0
    FIXEDLANES 9 0 0 0 0
    SEL 0
    REC 0 5088 1 0 0 0 0 0
    VU 2
    TRACKHEIGHT 0 0 0 0 0 0 0
    INQ 0 0 0 0.5 100 0 0 100
    NCHAN 2
    FX 1
    TRACKID {083A6559-F85C-4F03-A2C6-77020171FDA8}
    PERF 0
    MIDIOUT -1
    MAINSEND 1 0
    <FXCHAIN
      WNDRECT 24 52 700 560
      SHOW 0
      LASTSEL 0
      DOCKED 0
      BYPASS 0 0 0
      <JS "ReapNES Studio/ReapNES_Console.jsfx" ""
        2 15 1 10 80 10 100 2 1 15 1 5 60 10 80 1 1 0 50 0 0 15 1 0 100 0 0 0.500000 0.500000 0.400000 0.300000 0.800000 2 1 0 0 0 0 - - - - - - - - - - - - - - - - - - - - - - - - - -
      >
      FLOATPOS 0 0 0 0
      FXID {B4CF0F16-BCCA-42B5-B72E-78CBE9925BD2}
      WAK 0 0
    >
    <ITEM
      POSITION 0
      LENGTH 74.5878716
      LOOP 0
      ALLTAKES 0
      FADEIN 0 0 0 0 0 0 0
      FADEOUT 0 0 0 0 0 0 0
      MUTE 0 0
      SEL 0
      IGUID {EAB1DD42-3D43-44D1-AB78-B92F404C9929}
      <SOURCE MIDI
        HASDATA 1 480 QN
        CCINTERP 32
        E 0 c2 26
        E 64 b2 0b 7f
        E 0 92 29 7f
        E 160 82 29 00
        E 0 b2 0b 7f
        E 0 92 30 7f
        E 160 82 30 00
        E 0 b2 0b 7f
        E 0 92 29 7f
        E 160 82 29 00
        E 0 b2 0b 7f
        E 0 92 30 7f
        E 160 82 30 00
        E 0 b2 0b 7f
        E 0 92 27 7f
        E 160 82 27 00
        E 0 b2 0b 7f
        E 0 92 2e 7f
        E 160 82 2e 00
        E 0 b2 0b 7f
        E 0 92 27 7f
        E 160 82 27 00
        E 0 b2 0b 7f
        E 0 92 2e 7f
        E 160 82 2e 00
        E 0 b2 0b 7f
        E 0 92 29 7f
        E 160 82 29 00
        E 0 b2 0b 7f
        E 0 92 30 7f
        E 160 82 30 00
        E 0 b2 0b 7f
        E 0 92 29 7f
        E 160 82 29 00
        E 0 b2 0b 7f
        E 0 92 30 7f
        E 160 82 30 00
        E 0 b2 0b 7f
        E 0 92 27 7f
        E 160 82 27 00
        E 0 b2 0b 7f
        E 0 92 2e 7f
        E 160 82 2e 00
        E 0 b2 0b 7f
        E 0 92 27 7f
        E 160 82 27 00
        E 0 b2 0b 7f
        E 0 92 2e 7f
        E 160 82 2e 00
        E 0 b2 0b 7f
        E 0 92 29 7f
        E 160 82 29 00
        E 0 b2 0b 7f
        E 0 92 30 7f
        E 160 82 30 00
        E 0 b2 0b 7f
        E 0 92 29 7f
        E 160 82 29 00
        E 0 b2 0b 7f
        E 0 92 30 7f
        E 160 82 30 00
        E 0 b2 0b 7f
        E 0 92 27 7f
        E 160 82 27 00
        E 0 b2 0b 7f
        E 0 92 2e 7f
        E 160 82 2e 00
        E 0 b2 0b 7f
        E 0 92 27 7f
        E 160 82 27 00
        E 0 b2 0b 7f
        E 0 92 2e 7f
        E 160 82 2e 00
        E 0 b2 0b 7f
        E 0 92 29 7f
        E 160 82 29 00
        E 0 b2 0b 7f
        E 0 92 30 7f
        E 160 82 30 00
        E 0 b2 0b 7f
        E 0 92 29 7f
        E 160 82 29 00
        E 0 b2 0b 7f
        E 0 92 30 7f
        E 160 82 30 00
        E 0 b2 0b 7f
        E 0 92 27 7f
        E 160 82 27 00
        E 0 b2 0b 7f
        E 0 92 2e 7f
        E 160 82 2e 00
        E 0 b2 0b 7f
        E 0 92 27 7f
        E 160 82 27 00
        E 0 b2 0b 7f
        E 0 92 2e 7f
        E 160 82 2e 00
        E 0 b2 0b 7f
        E 0 92 29 7f
        E 160 82 29 00
        E 0 b2 0b 7f
        E 0 92 30 7f
        E 160 82 30 00
        E 0 b2 0b 7f
        E 0 92 29 7f
        E 160 82 29 00
        E 0 b2 0b 7f
        E 0 92 30 7f
        E 160 82 30 00
        E 0 b2 0b 7f
        E 0 92 27 7f
        E 160 82 27 00
        E 0 b2 0b 7f
        E 0 92 2e 7f
        E 160 82 2e 00
        E 0 b2 0b 7f
        E 0 92 27 7f
        E 160 82 27 00
        E 0 b2 0b 7f
        E 0 92 2e 7f
        E 160 82 2e 00
        E 0 b2 0b 7f
        E 0 92 29 7f
        E 160 82 29 00
        E 0 b2 0b 7f
        E 0 92 30 7f
        E 160 82 30 00
        E 0 b2 0b 7f
        E 0 92 29 7f
        E 160 82 29 00
        E 0 b2 0b 7f
        E 0 92 30 7f
        E 160 82 30 00
        E 0 b2 0b 7f
        E 0 92 27 7f
        E 160 82 27 00
        E 0 b2 0b 7f
        E 0 92 2e 7f
        E 160 82 2e 00
        E 0 b2 0b 7f
        E 0 92 27 7f
        E 160 82 27 00
        E 0 b2 0b 7f
        E 0 92 2e 7f
        E 160 82 2e 00
        E 0 b2 0b 7f
        E 0 92 29 7f
        E 160 82 29 00
        E 0 b2 0b 7f
        E 0 92 30 7f
        E 160 82 30 00
        E 0 b2 0b 7f
        E 0 92 29 7f
        E 160 82 29 00
        E 0 b2 0b 7f
        E 0 92 30 7f
        E 160 82 30 00
        E 0 b2 0b 7f
        E 0 92 27 7f
        E 160 82 27 00
        E 0 b2 0b 7f
        E 0 92 2e 7f
        E 160 82 2e 00
        E 0 b2 0b 7f
        E 0 92 27 7f
        E 160 82 27 00
        E 0 b2 0b 7f
        E 0 92 2e 7f
        E 160 82 2e 00
        E 0 b2 0b 7f
        E 0 92 29 7f
        E 160 82 29 00
        E 0 b2 0b 7f
        E 0 92 30 7f
        E 160 82 30 00
        E 0 b2 0b 7f
        E 0 92 29 7f
        E 160 82 29 00
        E 0 b2 0b 7f
        E 0 92 30 7f
        E 160 82 30 00
        E 0 b2 0b 7f
        E 0 92 27 7f
        E 160 82 27 00
        E 0 b2 0b 7f
        E 0 92 2e 7f
        E 160 82 2e 00
        E 0 b2 0b 7f
        E 0 92 27 7f
        E 160 82 27 00
        E 0 b2 0b 7f
        E 0 92 2e 7f
        E 320 82 2e 00
        E 0 b2 0b 7f
        E 0 92 35 7f
        E 160 82 35 00
        E 0 b2 0b 7f
        E 0 92 2e 7f
        E 160 82 2e 00
        E 0 b2 0b 7f
        E 0 92 35 7f
        E 160 82 35 00
        E 0 b2 0b 7f
        E 0 92 2c 7f
        E 160 82 2c 00
        E 0 b2 0b 7f
        E 0 92 33 7f
        E 160 82 33 00
        E 0 b2 0b 7f
        E 0 92 2c 7f
        E 160 82 2c 00
        E 0 b2 0b 7f
        E 0 92 33 7f
        E 160 82 33 00
        E 0 b2 0b 7f
        E 0 92 2e 7f
        E 160 82 2e 00
        E 0 b2 0b 7f
        E 0 92 35 7f
        E 160 82 35 00
        E 0 b2 0b 7f
        E 0 92 2e 7f
        E 160 82 2e 00
        E 0 b2 0b 7f
        E 0 92 35 7f
        E 160 82 35 00
        E 0 b2 0b 7f
        E 0 92 2c 7f
        E 160 82 2c 00
        E 480 b2 0b 7f
        E 0 92 2e 7f
        E 160 82 2e 00
        E 0 b2 0b 7f
        E 0 92 35 7f
        E 160 82 35 00
        E 0 b2 0b 7f
        E 0 92 2e 7f
        E 160 82 2e 00
        E 0 b2 0b 7f
        E 0 92 35 7f
        E 160 82 35 00
        E 0 b2 0b 7f
        E 0 92 2c 7f
        E 160 82 2c 00
        E 0 b2 0b 7f
        E 0 92 33 7f
        E 160 82 33 00
        E 0 b2 0b 7f
        E 0 92 2c 7f
        E 160 82 2c 00
        E 0 b2 0b 7f
        E 0 92 33 7f
        E 160 82 33 00
        E 0 b2 0b 7f
        E 0 92 2e 7f
        E 160 82 2e 00
        E 0 b2 0b 7f
        E 0 92 35 7f
        E 160 82 35 00
        E 0 b2 0b 7f
        E 0 92 2e 7f
        E 160 82 2e 00
        E 0 b2 0b 7f
        E 0 92 35 7f
        E 160 82 35 00
        E 0 b2 0b 7f
        E 0 92 2c 7f
        E 160 82 2c 00
        E 480 b2 0b 7f
        E 0 92 2b 7f
        E 160 82 2b 00
        E 0 b2 0b 7f
        E 0 92 32 7f
        E 160 82 32 00
        E 160 b2 0b 7f
        E 0 92 32 7f
        E 160 82 32 00
        E 0 b2 0b 7f
        E 0 92 2c 7f
        E 160 82 2c 00
        E 0 b2 0b 7f
        E 0 92 33 7f
        E 160 82 33 00
        E 160 b2 0b 7f
        E 0 92 33 7f
        E 160 82 33 00
        E 0 b2 0b 7f
        E 0 92 2e 7f
        E 160 82 2e 00
        E 0 b2 0b 7f
        E 0 92 32 7f
        E 160 82 32 00
        E 160 b2 0b 7f
        E 0 92 32 7f
        E 160 82 32 00
        E 0 b2 0b 7f
        E 0 92 31 7f
        E 160 82 31 00
        E 0 b2 0b 7f
        E 0 92 35 7f
        E 160 82 35 00
        E 160 b2 0b 7f
        E 0 92 35 7f
        E 160 82 35 00
        E 0 b2 0b 7f
        E 0 92 37 7f
        E 320 82 37 00
        E 0 b2 0b 7f
        E 0 92 35 7f
        E 320 82 35 00
        E 0 b2 0b 7f
        E 0 92 34 7f
        E 320 82 34 00
        E 0 b2 0b 7f
        E 0 92 32 7f
        E 320 82 32 00
        E 0 b2 0b 7f
        E 0 92 30 7f
        E 320 82 30 00
        E 0 b2 0b 7f
        E 0 92 2e 7f
        E 320 82 2e 00
        E 0 b2 0b 7f
        E 0 92 2d 7f
        E 320 82 2d 00
        E 0 b2 0b 7f
        E 0 92 2b 7f
        E 320 82 2b 00
        E 0 b2 0b 7f
        E 0 92 29 7f
        E 160 82 29 00
        E 0 b2 0b 7f
        E 0 92 30 7f
        E 160 82 30 00
        E 0 b2 0b 7f
        E 0 92 29 7f
        E 160 82 29 00
        E 0 b2 0b 7f
        E 0 92 30 7f
        E 160 82 30 00
        E 0 b2 0b 7f
        E 0 92 27 7f
        E 160 82 27 00
        E 0 b2 0b 7f
        E 0 92 2e 7f
        E 160 82 2e 00
        E 0 b2 0b 7f
        E 0 92 27 7f
        E 160 82 27 00
        E 0 b2 0b 7f
        E 0 92 2e 7f
        E 160 82 2e 00
        E 0 b2 0b 7f
        E 0 92 29 7f
        E 160 82 29 00
        E 0 b2 0b 7f
        E 0 92 30 7f
        E 160 82 30 00
        E 0 b2 0b 7f
        E 0 92 29 7f
        E 160 82 29 00
        E 0 b2 0b 7f
        E 0 92 30 7f
        E 160 82 30 00
        E 0 b2 0b 7f
        E 0 92 27 7f
        E 160 82 27 00
        E 0 b2 0b 7f
        E 0 92 2e 7f
        E 160 82 2e 00
        E 0 b2 0b 7f
        E 0 92 27 7f
        E 160 82 27 00
        E 0 b2 0b 7f
        E 0 92 2e 7f
        E 160 82 2e 00
        E 0 b2 0b 7f
        E 0 92 29 7f
        E 160 82 29 00
        E 0 b2 0b 7f
        E 0 92 30 7f
        E 160 82 30 00
        E 0 b2 0b 7f
        E 0 92 29 7f
        E 160 82 29 00
        E 0 b2 0b 7f
        E 0 92 30 7f
        E 160 82 30 00
        E 0 b2 0b 7f
        E 0 92 27 7f
        E 160 82 27 00
        E 0 b2 0b 7f
        E 0 92 2e 7f
        E 160 82 2e 00
        E 0 b2 0b 7f
        E 0 92 27 7f
        E 160 82 27 00
        E 0 b2 0b 7f
        E 0 92 2e 7f
        E 160 82 2e 00
        E 0 b2 0b 7f
        E 0 92 29 7f
        E 160 82 29 00
        E 0 b2 0b 7f
        E 0 92 30 7f
        E 160 82 30 00
        E 0 b2 0b 7f
        E 0 92 29 7f
        E 160 82 29 00
        E 0 b2 0b 7f
        E 0 92 30 7f
        E 160 82 30 00
        E 0 b2 0b 7f
        E 0 92 27 7f
        E 160 82 27 00
        E 0 b2 0b 7f
        E 0 92 2e 7f
        E 160 82 2e 00
        E 0 b2 0b 7f
        E 0 92 27 7f
        E 160 82 27 00
        E 0 b2 0b 7f
        E 0 92 2e 7f
        E 160 82 2e 00
        E 0 b2 0b 7f
        E 0 92 29 7f
        E 160 82 29 00
        E 0 b2 0b 7f
        E 0 92 30 7f
        E 160 82 30 00
        E 0 b2 0b 7f
        E 0 92 29 7f
        E 160 82 29 00
        E 0 b2 0b 7f
        E 0 92 30 7f
        E 160 82 30 00
        E 0 b2 0b 7f
        E 0 92 27 7f
        E 160 82 27 00
        E 0 b2 0b 7f
        E 0 92 2e 7f
        E 160 82 2e 00
        E 0 b2 0b 7f
        E 0 92 27 7f
        E 160 82 27 00
        E 0 b2 0b 7f
        E 0 92 2e 7f
        E 160 82 2e 00
        E 0 b2 0b 7f
        E 0 92 29 7f
        E 160 82 29 00
        E 0 b2 0b 7f
        E 0 92 30 7f
        E 160 82 30 00
        E 0 b2 0b 7f
        E 0 92 29 7f
        E 160 82 29 00
        E 0 b2 0b 7f
        E 0 92 30 7f
        E 160 82 30 00
        E 0 b2 0b 7f
        E 0 92 27 7f
        E 160 82 27 00
        E 0 b2 0b 7f
        E 0 92 2e 7f
        E 160 82 2e 00
        E 0 b2 0b 7f
        E 0 92 27 7f
        E 160 82 27 00
        E 0 b2 0b 7f
        E 0 92 2e 7f
        E 160 82 2e 00
        E 0 b2 0b 7f
        E 0 92 29 7f
        E 160 82 29 00
        E 0 b2 0b 7f
        E 0 92 30 7f
        E 160 82 30 00
        E 0 b2 0b 7f
        E 0 92 29 7f
        E 160 82 29 00
        E 0 b2 0b 7f
        E 0 92 30 7f
        E 160 82 30 00
        E 0 b2 0b 7f
        E 0 92 27 7f
        E 160 82 27 00
        E 0 b2 0b 7f
        E 0 92 2e 7f
        E 160 82 2e 00
        E 0 b2 0b 7f
        E 0 92 27 7f
        E 160 82 27 00
        E 0 b2 0b 7f
        E 0 92 2e 7f
        E 160 82 2e 00
        E 0 b2 0b 7f
        E 0 92 29 7f
        E 160 82 29 00
        E 0 b2 0b 7f
        E 0 92 30 7f
        E 160 82 30 00
        E 0 b2 0b 7f
        E 0 92 29 7f
        E 160 82 29 00
        E 0 b2 0b 7f
        E 0 92 30 7f
        E 160 82 30 00
        E 0 b2 0b 7f
        E 0 92 27 7f
        E 160 82 27 00
        E 0 b2 0b 7f
        E 0 92 2e 7f
        E 160 82 2e 00
        E 0 b2 0b 7f
        E 0 92 27 7f
        E 160 82 27 00
        E 0 b2 0b 7f
        E 0 92 2e 7f
        E 320 82 2e 00
        E 0 b2 0b 7f
        E 0 92 35 7f
        E 160 82 35 00
        E 0 b2 0b 7f
        E 0 92 2e 7f
        E 160 82 2e 00
        E 0 b2 0b 7f
        E 0 92 35 7f
        E 160 82 35 00
        E 0 b2 0b 7f
        E 0 92 2c 7f
        E 160 82 2c 00
        E 0 b2 0b 7f
        E 0 92 33 7f
        E 160 82 33 00
        E 0 b2 0b 7f
        E 0 92 2c 7f
        E 160 82 2c 00
        E 0 b2 0b 7f
        E 0 92 33 7f
        E 160 82 33 00
        E 0 b2 0b 7f
        E 0 92 2e 7f
        E 160 82 2e 00
        E 0 b2 0b 7f
        E 0 92 35 7f
        E 160 82 35 00
        E 0 b2 0b 7f
        E 0 92 2e 7f
        E 160 82 2e 00
        E 0 b2 0b 7f
        E 0 92 35 7f
        E 160 82 35 00
        E 0 b2 0b 7f
        E 0 92 2c 7f
        E 160 82 2c 00
        E 480 b2 0b 7f
        E 0 92 2e 7f
        E 160 82 2e 00
        E 0 b2 0b 7f
        E 0 92 35 7f
        E 160 82 35 00
        E 0 b2 0b 7f
        E 0 92 2e 7f
        E 160 82 2e 00
        E 0 b2 0b 7f
        E 0 92 35 7f
        E 160 82 35 00
        E 0 b2 0b 7f
        E 0 92 2c 7f
        E 160 82 2c 00
        E 0 b2 0b 7f
        E 0 92 33 7f
        E 160 82 33 00
        E 0 b2 0b 7f
        E 0 92 2c 7f
        E 160 82 2c 00
        E 0 b2 0b 7f
        E 0 92 33 7f
        E 160 82 33 00
        E 0 b2 0b 7f
        E 0 92 2e 7f
        E 160 82 2e 00
        E 0 b2 0b 7f
        E 0 92 35 7f
        E 160 82 35 00
        E 0 b2 0b 7f
        E 0 92 2e 7f
        E 160 82 2e 00
        E 0 b2 0b 7f
        E 0 92 35 7f
        E 160 82 35 00
        E 0 b2 0b 7f
        E 0 92 2c 7f
        E 160 82 2c 00
        E 480 b2 0b 7f
        E 0 92 2b 7f
        E 160 82 2b 00
        E 0 b2 0b 7f
        E 0 92 32 7f
        E 160 82 32 00
        E 160 b2 0b 7f
        E 0 92 32 7f
        E 160 82 32 00
        E 0 b2 0b 7f
        E 0 92 2c 7f
        E 160 82 2c 00
        E 0 b2 0b 7f
        E 0 92 33 7f
        E 160 82 33 00
        E 160 b2 0b 7f
        E 0 92 33 7f
        E 160 82 33 00
        E 0 b2 0b 7f
        E 0 92 2e 7f
        E 160 82 2e 00
        E 0 b2 0b 7f
        E 0 92 32 7f
        E 160 82 32 00
        E 160 b2 0b 7f
        E 0 92 32 7f
        E 160 82 32 00
        E 0 b2 0b 7f
        E 0 92 31 7f
        E 160 82 31 00
        E 0 b2 0b 7f
        E 0 92 35 7f
        E 160 82 35 00
        E 160 b2 0b 7f
        E 0 92 35 7f
        E 160 82 35 00
        E 0 b2 0b 7f
        E 0 92 37 7f
        E 320 82 37 00
        E 0 b2 0b 7f
        E 0 92 35 7f
        E 320 82 35 00
        E 0 b2 0b 7f
        E 0 92 34 7f
        E 320 82 34 00
        E 0 b2 0b 7f
        E 0 92 32 7f
        E 320 82 32 00
        E 0 b2 0b 7f
        E 0 92 30 7f
        E 320 82 30 00
        E 0 b2 0b 7f
        E 0 92 2e 7f
        E 320 82 2e 00
        E 0 b2 0b 7f
        E 0 92 2d 7f
        E 320 82 2d 00
        E 0 b2 0b 7f
        E 0 92 2b 7f
        E 320 82 2b 00
        E 0 b2 0b 7f
        E 0 92 29 7f
        E 160 82 29 00
        E 0 b2 0b 7f
        E 0 92 30 7f
        E 160 82 30 00
        E 0 b2 0b 7f
        E 0 92 29 7f
        E 160 82 29 00
        E 0 b2 0b 7f
        E 0 92 30 7f
        E 160 82 30 00
        E 0 b2 0b 7f
        E 0 92 27 7f
        E 160 82 27 00
        E 0 b2 0b 7f
        E 0 92 2e 7f
        E 160 82 2e 00
        E 0 b2 0b 7f
        E 0 92 27 7f
        E 160 82 27 00
        E 0 b2 0b 7f
        E 0 92 2e 7f
        E 160 82 2e 00
        E 0 b2 0b 7f
        E 0 92 29 7f
        E 160 82 29 00
        E 0 b2 0b 7f
        E 0 92 30 7f
        E 160 82 30 00
        E 0 b2 0b 7f
        E 0 92 29 7f
        E 160 82 29 00
        E 0 b2 0b 7f
        E 0 92 30 7f
        E 160 82 30 00
        E 0 b2 0b 7f
        E 0 92 27 7f
        E 160 82 27 00
        E 0 b2 0b 7f
        E 0 92 2e 7f
        E 160 82 2e 00
        E 0 b2 0b 7f
        E 0 92 27 7f
        E 160 82 27 00
        E 0 b2 0b 7f
        E 0 92 2e 7f
        E 160 82 2e 00
        E 0 b2 0b 7f
        E 0 92 29 7f
        E 160 82 29 00
        E 0 b2 0b 7f
        E 0 92 30 7f
        E 160 82 30 00
        E 0 b2 0b 7f
        E 0 92 29 7f
        E 160 82 29 00
        E 0 b2 0b 7f
        E 0 92 30 7f
        E 160 82 30 00
        E 0 b2 0b 7f
        E 0 92 27 7f
        E 160 82 27 00
        E 0 b2 0b 7f
        E 0 92 2e 7f
        E 160 82 2e 00
        E 0 b2 0b 7f
        E 0 92 27 7f
        E 160 82 27 00
        E 0 b2 0b 7f
        E 0 92 2e 7f
        E 160 82 2e 00
        E 0 b2 0b 7f
        E 0 92 29 7f
        E 160 82 29 00
        E 0 b2 0b 7f
        E 0 92 30 7f
        E 160 82 30 00
        E 0 b2 0b 7f
        E 0 92 29 7f
        E 160 82 29 00
        E 0 b2 0b 7f
        E 0 92 30 7f
        E 160 82 30 00
        E 0 b2 0b 7f
        E 0 92 27 7f
        E 160 82 27 00
        E 0 b2 0b 7f
        E 0 92 2e 7f
        E 160 82 2e 00
        E 0 b2 0b 7f
        E 0 92 27 7f
        E 160 82 27 00
        E 0 b2 0b 7f
        E 0 92 2e 7f
        E 160 82 2e 00
        E 0 b2 0b 7f
        E 0 92 29 7f
        E 160 82 29 00
        E 0 b2 0b 7f
        E 0 92 30 7f
        E 160 82 30 00
        E 0 b2 0b 7f
        E 0 92 29 7f
        E 160 82 29 00
        E 0 b2 0b 7f
        E 0 92 30 7f
        E 160 82 30 00
        E 0 b2 0b 7f
        E 0 92 27 7f
        E 160 82 27 00
        E 0 b2 0b 7f
        E 0 92 2e 7f
        E 160 82 2e 00
        E 0 b2 0b 7f
        E 0 92 27 7f
        E 160 82 27 00
        E 0 b2 0b 7f
        E 0 92 2e 7f
        E 160 82 2e 00
        E 0 b2 0b 7f
        E 0 92 29 7f
        E 160 82 29 00
        E 0 b2 0b 7f
        E 0 92 30 7f
        E 160 82 30 00
        E 0 b2 0b 7f
        E 0 92 29 7f
        E 160 82 29 00
        E 0 b2 0b 7f
        E 0 92 30 7f
        E 160 82 30 00
        E 0 b2 0b 7f
        E 0 92 27 7f
        E 160 82 27 00
        E 0 b2 0b 7f
        E 0 92 2e 7f
        E 160 82 2e 00
        E 0 b2 0b 7f
        E 0 92 27 7f
        E 160 82 27 00
        E 0 b2 0b 7f
        E 0 92 2e 7f
        E 160 82 2e 00
        E 0 b2 0b 7f
        E 0 92 29 7f
        E 160 82 29 00
        E 0 b2 0b 7f
        E 0 92 30 7f
        E 160 82 30 00
        E 0 b2 0b 7f
        E 0 92 29 7f
        E 160 82 29 00
        E 0 b2 0b 7f
        E 0 92 30 7f
        E 160 82 30 00
        E 0 b2 0b 7f
        E 0 92 27 7f
        E 160 82 27 00
        E 0 b2 0b 7f
        E 0 92 2e 7f
        E 160 82 2e 00
        E 0 b2 0b 7f
        E 0 92 27 7f
        E 160 82 27 00
        E 0 b2 0b 7f
        E 0 92 2e 7f
        E 160 82 2e 00
        E 0 b2 0b 7f
        E 0 92 29 7f
        E 160 82 29 00
        E 0 b2 0b 7f
        E 0 92 30 7f
        E 160 82 30 00
        E 0 b2 0b 7f
        E 0 92 29 7f
        E 160 82 29 00
        E 0 b2 0b 7f
        E 0 92 30 7f
        E 160 82 30 00
        E 0 b2 0b 7f
        E 0 92 27 7f
        E 160 82 27 00
        E 0 b2 0b 7f
        E 0 92 2e 7f
        E 160 82 2e 00
        E 0 b2 0b 7f
        E 0 92 27 7f
        E 160 82 27 00
        E 0 b2 0b 7f
        E 0 92 2e 7f
        E 320 82 2e 00
        E 0 b2 0b 7f
        E 0 92 35 7f
        E 160 82 35 00
        E 0 b2 0b 7f
        E 0 92 2e 7f
        E 160 82 2e 00
        E 0 b2 0b 7f
        E 0 92 35 7f
        E 160 82 35 00
        E 0 b2 0b 7f
        E 0 92 2c 7f
        E 160 82 2c 00
        E 0 b2 0b 7f
        E 0 92 33 7f
        E 160 82 33 00
        E 0 b2 0b 7f
        E 0 92 2c 7f
        E 160 82 2c 00
        E 0 b2 0b 7f
        E 0 92 33 7f
        E 160 82 33 00
        E 0 b2 0b 7f
        E 0 92 2e 7f
        E 160 82 2e 00
        E 0 b2 0b 7f
        E 0 92 35 7f
        E 160 82 35 00
        E 0 b2 0b 7f
        E 0 92 2e 7f
        E 160 82 2e 00
        E 0 b2 0b 7f
        E 0 92 35 7f
        E 160 82 35 00
        E 0 b2 0b 7f
        E 0 92 2c 7f
        E 160 82 2c 00
        E 480 b2 0b 7f
        E 0 92 2e 7f
        E 160 82 2e 00
        E 0 b2 0b 7f
        E 0 92 35 7f
        E 160 82 35 00
        E 0 b2 0b 7f
        E 0 92 2e 7f
        E 160 82 2e 00
        E 0 b2 0b 7f
        E 0 92 35 7f
        E 160 82 35 00
        E 0 b2 0b 7f
        E 0 92 2c 7f
        E 160 82 2c 00
        E 0 b2 0b 7f
        E 0 92 33 7f
        E 160 82 33 00
        E 0 b2 0b 7f
        E 0 92 2c 7f
        E 160 82 2c 00
        E 0 b2 0b 7f
        E 0 92 33 7f
        E 160 82 33 00
        E 0 b2 0b 7f
        E 0 92 2e 7f
        E 160 82 2e 00
        E 0 b2 0b 7f
        E 0 92 35 7f
        E 160 82 35 00
        E 0 b2 0b 7f
        E 0 92 2e 7f
        E 160 82 2e 00
        E 0 b2 0b 7f
        E 0 92 35 7f
        E 160 82 35 00
        E 0 b2 0b 7f
        E 0 92 2c 7f
        E 160 82 2c 00
        E 480 b2 0b 7f
        E 0 92 2b 7f
        E 160 82 2b 00
        E 0 b2 0b 7f
        E 0 92 32 7f
        E 160 82 32 00
        E 160 b2 0b 7f
        E 0 92 32 7f
        E 160 82 32 00
        E 0 b2 0b 7f
        E 0 92 2c 7f
        E 160 82 2c 00
        E 0 b2 0b 7f
        E 0 92 33 7f
        E 160 82 33 00
        E 160 b2 0b 7f
        E 0 92 33 7f
        E 160 82 33 00
        E 0 b2 0b 7f
        E 0 92 2e 7f
        E 160 82 2e 00
        E 0 b2 0b 7f
        E 0 92 32 7f
        E 160 82 32 00
        E 160 b2 0b 7f
        E 0 92 32 7f
        E 160 82 32 00
        E 0 b2 0b 7f
        E 0 92 31 7f
        E 160 82 31 00
        E 0 b2 0b 7f
        E 0 92 35 7f
        E 160 82 35 00
        E 160 b2 0b 7f
        E 0 92 35 7f
        E 160 82 35 00
        E 0 b2 0b 7f
        E 0 92 37 7f
        E 320 82 37 00
        E 0 b2 0b 7f
        E 0 92 35 7f
        E 320 82 35 00
        E 0 b2 0b 7f
        E 0 92 34 7f
        E 320 82 34 00
        E 0 b2 0b 7f
        E 0 92 32 7f
        E 320 82 32 00
        E 0 b2 0b 7f
        E 0 92 30 7f
        E 320 82 30 00
        E 0 b2 0b 7f
        E 0 92 2e 7f
        E 320 82 2e 00
        E 0 b2 0b 7f
        E 0 92 2d 7f
        E 320 82 2d 00
        E 0 b2 0b 7f
        E 0 92 2b 7f
        E 320 82 2b 00
        E 0 b2 0b 7f
        E 0 92 29 7f
        E 160 82 29 00
        E 0 b2 0b 7f
        E 0 92 30 7f
        E 160 82 30 00
        E 0 b2 0b 7f
        E 0 92 29 7f
        E 160 82 29 00
        E 0 b2 0b 7f
        E 0 92 30 7f
        E 160 82 30 00
        E 0 b2 0b 7f
        E 0 92 27 7f
        E 160 82 27 00
        E 0 b2 0b 7f
        E 0 92 2e 7f
        E 160 82 2e 00
        E 0 b2 0b 7f
        E 0 92 27 7f
        E 160 82 27 00
        E 0 b2 0b 7f
        E 0 92 2e 7f
        E 160 82 2e 00
        E 0 b2 0b 7f
        E 0 92 29 7f
        E 160 82 29 00
        E 0 b2 0b 7f
        E 0 92 30 7f
        E 160 82 30 00
        E 0 b2 0b 7f
        E 0 92 29 7f
        E 160 82 29 00
        E 0 b2 0b 7f
        E 0 92 30 7f
        E 160 82 30 00
        E 0 b2 0b 7f
        E 0 92 27 7f
        E 160 82 27 00
        E 0 b2 0b 7f
        E 0 92 2e 7f
        E 160 82 2e 00
        E 0 b2 0b 7f
        E 0 92 27 7f
        E 160 82 27 00
        E 0 b2 0b 7f
        E 0 92 2e 7f
        E 160 82 2e 00
        E 0 b2 0b 7f
        E 0 92 29 7f
        E 160 82 29 00
        E 0 b2 0b 7f
        E 0 92 30 7f
        E 160 82 30 00
        E 0 b2 0b 7f
        E 0 92 29 7f
        E 160 82 29 00
        E 0 b2 0b 7f
        E 0 92 30 7f
        E 160 82 30 00
        E 0 b2 0b 7f
        E 0 92 27 7f
        E 160 82 27 00
        E 0 b2 0b 7f
        E 0 92 2e 7f
        E 160 82 2e 00
        E 0 b2 0b 7f
        E 0 92 27 7f
        E 160 82 27 00
        E 0 b2 0b 7f
        E 0 92 2e 7f
        E 160 82 2e 00
        E 0 b2 0b 7f
        E 0 92 29 7f
        E 160 82 29 00
        E 0 b2 0b 7f
        E 0 92 30 7f
        E 160 82 30 00
        E 0 b2 0b 7f
        E 0 92 29 7f
        E 160 82 29 00
        E 0 b2 0b 7f
        E 0 92 30 7f
        E 160 82 30 00
        E 0 b2 0b 7f
        E 0 92 27 7f
        E 160 82 27 00
        E 0 b2 0b 7f
        E 0 92 2e 7f
        E 160 82 2e 00
        E 0 b2 0b 7f
        E 0 92 27 7f
        E 160 82 27 00
        E 0 b2 0b 7f
        E 0 92 2e 7f
        E 160 82 2e 00
        E 0 b2 0b 7f
        E 0 92 29 7f
        E 160 82 29 00
        E 0 b2 0b 7f
        E 0 92 30 7f
        E 160 82 30 00
        E 0 b2 0b 7f
        E 0 92 29 7f
        E 160 82 29 00
        E 0 b2 0b 7f
        E 0 92 30 7f
        E 160 82 30 00
        E 0 b2 0b 7f
        E 0 92 27 7f
        E 160 82 27 00
        E 0 b2 0b 7f
        E 0 92 2e 7f
        E 160 82 2e 00
        E 0 b2 0b 7f
        E 0 92 27 7f
        E 160 82 27 00
        E 0 b2 0b 7f
        E 0 92 2e 7f
        E 160 82 2e 00
        E 0 b2 0b 7f
        E 0 92 29 7f
        E 160 82 29 00
        E 0 b2 0b 7f
        E 0 92 30 7f
        E 160 82 30 00
        E 0 b2 0b 7f
        E 0 92 29 7f
        E 160 82 29 00
        E 0 b2 0b 7f
        E 0 92 30 7f
        E 160 82 30 00
        E 0 b2 0b 7f
        E 0 92 27 7f
        E 160 82 27 00
        E 0 b2 0b 7f
        E 0 92 2e 7f
        E 160 82 2e 00
        E 0 b2 0b 7f
        E 0 92 27 7f
        E 160 82 27 00
        E 0 b2 0b 7f
        E 0 92 2e 7f
        E 160 82 2e 00
        E 0 b2 0b 7f
        E 0 92 29 7f
        E 160 82 29 00
        E 0 b2 0b 7f
        E 0 92 30 7f
        E 160 82 30 00
        E 0 b2 0b 7f
        E 0 92 29 7f
        E 160 82 29 00
        E 0 b2 0b 7f
        E 0 92 30 7f
        E 160 82 30 00
        E 0 b2 0b 7f
        E 0 92 27 7f
        E 160 82 27 00
        E 0 b2 0b 7f
        E 0 92 2e 7f
        E 160 82 2e 00
        E 0 b2 0b 7f
        E 0 92 27 7f
        E 160 82 27 00
        E 0 b2 0b 7f
        E 0 92 2e 7f
        E 160 82 2e 00
        E 0 b2 0b 7f
        E 0 92 29 7f
        E 160 82 29 00
        E 0 b2 0b 7f
        E 0 92 30 7f
        E 160 82 30 00
        E 0 b2 0b 7f
        E 0 92 29 7f
        E 160 82 29 00
        E 0 b2 0b 7f
        E 0 92 30 7f
        E 160 82 30 00
        E 0 b2 0b 7f
        E 0 92 27 7f
        E 160 82 27 00
        E 0 b2 0b 7f
        E 0 92 2e 7f
        E 160 82 2e 00
        E 0 b2 0b 7f
        E 0 92 27 7f
        E 160 82 27 00
        E 0 b2 0b 7f
        E 0 92 2e 7f
        E 320 82 2e 00
        E 0 b2 0b 7f
        E 0 92 35 7f
        E 160 82 35 00
        E 0 b2 0b 7f
        E 0 92 2e 7f
        E 160 82 2e 00
        E 0 b2 0b 7f
        E 0 92 35 7f
        E 160 82 35 00
        E 0 b2 0b 7f
        E 0 92 2c 7f
        E 160 82 2c 00
        E 0 b2 0b 7f
        E 0 92 33 7f
        E 160 82 33 00
        E 0 b2 0b 7f
        E 0 92 2c 7f
        E 160 82 2c 00
        E 0 b2 0b 7f
        E 0 92 33 7f
        E 160 82 33 00
        E 0 b2 0b 7f
        E 0 92 2e 7f
        E 160 82 2e 00
        E 0 b2 0b 7f
        E 0 92 35 7f
        E 160 82 35 00
        E 0 b2 0b 7f
        E 0 92 2e 7f
        E 160 82 2e 00
        E 0 b2 0b 7f
        E 0 92 35 7f
        E 160 82 35 00
        E 0 b2 0b 7f
        E 0 92 2c 7f
        E 160 82 2c 00
        E 480 b2 0b 7f
        E 0 92 2e 7f
        E 160 82 2e 00
        E 0 b2 0b 7f
        E 0 92 35 7f
        E 160 82 35 00
        E 0 b2 0b 7f
        E 0 92 2e 7f
        E 160 82 2e 00
        E 0 b2 0b 7f
        E 0 92 35 7f
        E 160 82 35 00
        E 0 b2 0b 7f
        E 0 92 2c 7f
        E 160 82 2c 00
        E 0 b2 0b 7f
        E 0 92 33 7f
        E 160 82 33 00
        E 0 b2 0b 7f
        E 0 92 2c 7f
        E 160 82 2c 00
        E 0 b2 0b 7f
        E 0 92 33 7f
        E 160 82 33 00
        E 0 b2 0b 7f
        E 0 92 2e 7f
        E 160 82 2e 00
        E 0 b2 0b 7f
        E 0 92 35 7f
        E 160 82 35 00
        E 0 b2 0b 7f
        E 0 92 2e 7f
        E 160 82 2e 00
        E 0 b2 0b 7f
        E 0 92 35 7f
        E 160 82 35 00
        E 0 b2 0b 7f
        E 0 92 2c 7f
        E 160 82 2c 00
        E 352 b2 7b 00
        E 0 ff 2f 00
      >
    >
  >
  <TRACK {2C833508-FBC7-449C-AE93-B6CDD0AC25A2}
    NAME "NES - Noise / Drums"
    PEAKCOL 11184810
    BEAT -1
    AUTOMODE 0
    PANLAWFLAGS 3
    VOLPAN 1 0 -1 -1 1
    MUTESOLO 0 0 0
    IPHASE 0
    PLAYOFFS 0 1
    ISBUS 0 0
    BUSCOMP 0 0 0 0 0
    SHOWINMIX 1 0.6667 0.5 1 0.5 0 0 0
    FIXEDLANES 9 0 0 0 0
    SEL 0
    REC 0 5088 1 0 0 0 0 0
    VU 2
    TRACKHEIGHT 0 0 0 0 0 0 0
    INQ 0 0 0 0.5 100 0 0 100
    NCHAN 2
    FX 1
    TRACKID {2C833508-FBC7-449C-AE93-B6CDD0AC25A2}
    PERF 0
    MIDIOUT -1
    MAINSEND 1 0
    <FXCHAIN
      WNDRECT 24 52 700 560
      SHOW 0
      LASTSEL 0
      DOCKED 0
      BYPASS 0 0 0
      <JS "ReapNES Studio/ReapNES_Console.jsfx" ""
        2 15 1 10 80 10 100 2 1 15 1 5 60 10 80 1 1 0 50 0 0 15 1 0 100 0 0 0.500000 0.500000 0.400000 0.300000 0.800000 3 1 0 0 0 0 - - - - - - - - - - - - - - - - - - - - - - - - - -
      >
      FLOATPOS 0 0 0 0
      FXID {5B8922BC-DC3E-497E-90AB-18C18DDD5AE0}
      WAK 0 0
    >
  >
>