<REAPER_PROJECT 0.1 "7.27/win64" 1707000000
  <NOTES 0 2
    |ReapNES Studio Project
    |MIDI Import - Final_Fantasy_song_4B_rom_v1
  >
  RIPPLE 0
  GROUPOVERRIDE 0 0 0
  AUTOXFADE 129
  ENVATTACH 3
  POOLEDENVATTACH 0
  MIXERUIFLAGS 11 48
  ENVFADESZ10 40
  PEAKGAIN 1
  FEEDBACK 0
  PANLAW 1
  PROJOFFS 0 0 0
  MAXPROJLEN 0 0
  GRID 3199 8 1 8 1 0 0 0
  TIMEMODE 1 5 -1 30 0 0 -1
  VIDEO_CONFIG 0 0 65792
  PANMODE 3
  PANLAWFLAGS 3
  CURSOR 0
  ZOOM 100 0 0
  VZOOMEX 6 0
  USE_REC_CFG 0
  RECMODE 1
  SMPTESYNC 0 30 100 40 1000 300 0 0 1 0 0
  LOOP 0
  LOOPGRAN 0 4
  RECORD_PATH "Media" ""
  <RECORD_CFG
    ZXZhdxgAAQ==
  >
  <APPLYFX_CFG
  >
  RENDER_FILE ""
  RENDER_PATTERN ""
  RENDER_FMT 0 2 0
  RENDER_1X 0
  RENDER_RANGE 1 0 0 18 1000
  RENDER_RESAMPLE 3 0 1
  RENDER_ADDTOPROJ 0
  RENDER_STEMS 0
  RENDER_DITHER 0
  TIMELOCKMODE 1
  TEMPOENVLOCKMODE 1
  ITEMMIX 1
  DEFPITCHMODE 589824 0
  TAKELANE 1
  SAMPLERATE 44100 0 0
  <RENDER_CFG
    ZXZhdxgAAQ==
  >
  LOCK 1
  <METRONOME 6 2
    VOL 0.25 0.125
    BEATLEN 4
    FREQ 1760 880 1
    SAMPLES "" ""
    SPLIGNORE 0 0
    SPLDEF 2 660 "" 0
    SPLDEF 3 440 "" 0
    PATTERN 0 169
    PATTERNSTR ABBB
    MULT 1
  >
  GLOBAL_AUTO -1
  TEMPO 128.59999614200012 4 4
  PLAYRATE 1 0 0.25 4
  SELECTION 0 0
  SELECTION2 0 0
  MASTERAUTOMODE 0
  MASTERTRACKHEIGHT 0 0
  MASTERPEAKCOL 16576
  MASTERMUTESOLO 0
  MASTERTRACKVIEW 0 0.6667 0.5 0.5 0 0 0 0 0 0 0 0 0 0
  MASTERHWOUT 0 0 1 0 0 0 0 -1
  MASTER_NCH 2 2
  MASTER_VOLUME 1 0 -1 -1 1
  MASTER_PANMODE 3
  MASTER_PANLAWFLAGS 3
  MASTER_FX 1
  MASTER_SEL 0
  <MASTERPLAYSPEEDENV
    EGUID {FF20A57B-D6C2-4DC8-881D-981D482D71D2}
    ACT 0 -1
    VIS 0 1 1
    LANEHEIGHT 0 0
    ARM 0
    DEFSHAPE 0 -1 -1
  >
  <TEMPOENVEX
    EGUID {2BAE54E0-88C2-4ED7-8A0A-8FA77B3C48B2}
    ACT 1 -1
    VIS 1 0 1
    LANEHEIGHT 0 0
    ARM 0
    DEFSHAPE 1 -1 -1
  >
  <PROJBAY
  >
  <TRACK {1DC708FB-938D-4DB0-AF59-4835DF435864}
    NAME "NES - Pulse 1 [ch0]"
    PEAKCOL 16576606
    BEAT -1
    AUTOMODE 0
    PANLAWFLAGS 3
    VOLPAN 1 0 -1 -1 1
    MUTESOLO 0 0 0
    IPHASE 0
    PLAYOFFS 0 1
    ISBUS 0 0
    BUSCOMP 0 0 0 0 0
    SHOWINMIX 1 0.6667 0.5 1 0.5 0 0 0
    FIXEDLANES 9 0 0 0 0
    SEL 1
    REC 1 5088 1 0 0 0 0 0
    VU 2
    TRACKHEIGHT 0 0 0 0 0 0 0
    INQ 0 0 0 0.5 100 0 0 100
    NCHAN 2
    FX 1
    TRACKID {1DC708FB-938D-4DB0-AF59-4835DF435864}
    PERF 0
    MIDIOUT -1
    MAINSEND 1 0
    <FXCHAIN
      WNDRECT 24 52 700 560
      SHOW 0
      LASTSEL 0
      DOCKED 0
      BYPASS 0 0 0
      <JS "ReapNES Studio/ReapNES_Console.jsfx" ""
        2 15 1 10 80 10 100 2 1 15 1 5 60 10 80 1 1 0 50 0 0 15 1 0 100 0 0 0.500000 0.500000 0.400000 0.300000 0.800000 0 1 0 0 0 0 - - - - - - - - - - - - - - - - - - - - - - - - - -
      >
      FLOATPOS 0 0 0 0
      FXID {FF4CE4FF-0547-474E-B4A6-4D03B98A9206}
      WAK 0 0
    >
    <ITEM
      POSITION 0
      LENGTH 74.5878716
      LOOP 0
      ALLTAKES 0
      FADEIN 0 0 0 0 0 0 0
      FADEOUT 0 0 0 0 0 0 0
      MUTE 0 0
      SEL 0
      IGUID {30958F3B-23C5-48B5-B269-20BA7B512E2A}
      <SOURCE MIDI
        HASDATA 1 480 QN
        CCINTERP 32
        E 0 c0 50
        E 0 b0 0c 20
        E 0 b0 0b 77
        E 0 90 2e 77
        E 16 80 2e 00
        E 48 b0 0b 66
        E 0 90 36 66
        E 48 b0 0b 5d
        E 48 b0 0b 66
        E 0 80 36 00
        E 0 90 37 66
        E 48 b0 0b 5d
        E 48 b0 0b 66
        E 0 80 37 00
        E 0 90 38 66
        E 48 b0 0b 5d
        E 48 b0 0b 66
        E 0 80 38 00
        E 0 90 37 66
        E 48 b0 0b 5d
        E 48 b0 0b 66
        E 0 80 37 00
        E 0 90 36 66
        E 48 b0 0b 5d
        E 48 b0 0b 66
        E 0 80 36 00
        E 0 90 37 66
        E 48 b0 0b 5d
        E 48 b0 0b 66
        E 0 80 37 00
        E 0 90 38 66
        E 48 b0 0b 5d
        E 48 b0 0b 66
        E 0 80 38 00
        E 0 90 3a 66
        E 48 b0 0b 5d
        E 48 b0 0b 66
        E 0 80 3a 00
        E 0 90 38 66
        E 48 b0 0b 5d
        E 48 b0 0b 66
        E 0 80 38 00
        E 0 90 37 66
        E 48 b0 0b 5d
        E 48 b0 0b 66
        E 0 80 37 00
        E 0 90 33 66
        E 48 b0 0b 5d
        E 48 b0 0b 66
        E 0 80 33 00
        E 0 90 30 66
        E 48 b0 0b 5d
        E 48 b0 0b 66
        E 0 80 30 00
        E 0 90 36 66
        E 48 b0 0b 5d
        E 48 b0 0b 66
        E 0 80 36 00
        E 0 90 37 66
        E 48 b0 0b 5d
        E 48 b0 0b 66
        E 0 80 37 00
        E 0 90 38 66
        E 48 b0 0b 5d
        E 48 b0 0b 66
        E 0 80 38 00
        E 0 90 37 66
        E 48 b0 0b 5d
        E 48 b0 0b 66
        E 0 80 37 00
        E 0 90 36 66
        E 48 b0 0b 5d
        E 48 b0 0b 66
        E 0 80 36 00
        E 0 90 37 66
        E 48 b0 0b 5d
        E 48 b0 0b 66
        E 0 80 37 00
        E 0 90 38 66
        E 48 b0 0b 5d
        E 48 b0 0b 66
        E 0 80 38 00
        E 0 90 3a 66
        E 48 b0 0b 5d
        E 48 b0 0b 66
        E 0 80 3a 00
        E 0 90 38 66
        E 48 b0 0b 5d
        E 48 b0 0b 66
        E 0 80 38 00
        E 0 90 37 66
        E 48 b0 0b 5d
        E 48 b0 0b 66
        E 0 80 37 00
        E 0 90 33 66
        E 48 b0 0b 5d
        E 48 b0 0b 66
        E 0 80 33 00
        E 0 90 30 66
        E 48 b0 0b 5d
        E 48 b0 0b 66
        E 0 80 30 00
        E 0 90 33 66
        E 48 b0 0b 5d
        E 48 b0 0b 66
        E 0 80 33 00
        E 0 90 34 66
        E 48 b0 0b 5d
        E 48 b0 0b 66
        E 0 80 34 00
        E 0 90 37 66
        E 48 b0 0b 5d
        E 48 b0 0b 66
        E 0 80 37 00
        E 0 90 3a 66
        E 48 b0 0b 5d
        E 48 b0 0b 66
        E 0 80 3a 00
        E 0 90 3b 66
        E 48 b0 0b 5d
        E 48 b0 0b 66
        E 0 80 3b 00
        E 0 90 3c 66
        E 48 b0 0b 5d
        E 48 b0 0b 66
        E 0 80 3c 00
        E 0 90 3d 66
        E 48 b0 0b 5d
        E 48 b0 0b 66
        E 0 80 3d 00
        E 0 90 3c 66
        E 48 b0 0b 5d
        E 48 b0 0b 66
        E 0 80 3c 00
        E 0 90 3b 66
        E 48 b0 0b 5d
        E 48 b0 0b 66
        E 0 80 3b 00
        E 0 90 3c 66
        E 48 b0 0b 5d
        E 48 b0 0b 66
        E 0 80 3c 00
        E 0 90 3d 66
        E 48 b0 0b 5d
        E 48 b0 0b 66
        E 0 80 3d 00
        E 0 90 3f 66
        E 48 b0 0b 5d
        E 48 b0 0b 66
        E 0 80 3f 00
        E 0 90 3d 66
        E 48 b0 0b 5d
        E 48 b0 0b 66
        E 0 80 3d 00
        E 0 90 3c 66
        E 48 b0 0b 5d
        E 48 b0 0b 66
        E 0 80 3c 00
        E 0 90 38 66
        E 48 b0 0b 5d
        E 48 b0 0b 66
        E 0 80 38 00
        E 0 90 35 66
        E 48 b0 0b 5d
        E 48 b0 0b 66
        E 0 80 35 00
        E 0 90 3b 66
        E 48 b0 0b 5d
        E 48 b0 0b 66
        E 0 80 3b 00
        E 0 90 3c 66
        E 48 b0 0b 5d
        E 48 b0 0b 66
        E 0 80 3c 00
        E 0 90 3d 66
        E 48 b0 0b 5d
        E 48 b0 0b 66
        E 0 80 3d 00
        E 0 90 3c 66
        E 48 b0 0b 5d
        E 48 b0 0b 66
        E 0 80 3c 00
        E 0 90 3b 66
        E 48 b0 0b 5d
        E 48 b0 0b 66
        E 0 80 3b 00
        E 0 90 3c 66
        E 48 b0 0b 5d
        E 48 b0 0b 66
        E 0 80 3c 00
        E 0 90 3d 66
        E 48 b0 0b 5d
        E 48 b0 0b 66
        E 0 80 3d 00
        E 0 90 3f 66
        E 48 b0 0b 5d
        E 48 b0 0b 66
        E 0 80 3f 00
        E 0 90 3d 66
        E 48 b0 0b 5d
        E 48 b0 0b 66
        E 0 80 3d 00
        E 0 90 3c 66
        E 48 b0 0b 5d
        E 48 b0 0b 66
        E 0 80 3c 00
        E 0 90 38 66
        E 48 b0 0b 5d
        E 48 b0 0b 66
        E 0 80 38 00
        E 0 90 35 66
        E 48 b0 0b 5d
        E 48 b0 0b 66
        E 0 80 35 00
        E 0 90 3c 66
        E 48 b0 0b 5d
        E 48 b0 0b 66
        E 0 80 3c 00
        E 0 90 3a 66
        E 48 b0 0b 5d
        E 48 b0 0b 66
        E 0 80 3a 00
        E 0 90 38 66
        E 48 b0 0b 5d
        E 48 b0 0b 66
        E 0 80 38 00
        E 0 90 35 66
        E 48 b0 0b 5d
        E 48 b0 0b 66
        E 0 80 35 00
        E 0 90 36 66
        E 48 b0 0b 5d
        E 48 b0 0b 66
        E 0 80 36 00
        E 0 90 37 66
        E 48 b0 0b 5d
        E 48 b0 0b 66
        E 0 80 37 00
        E 0 90 38 66
        E 48 b0 0b 5d
        E 48 b0 0b 66
        E 0 80 38 00
        E 0 90 37 66
        E 48 b0 0b 5d
        E 48 b0 0b 66
        E 0 80 37 00
        E 0 90 36 66
        E 48 b0 0b 5d
        E 48 b0 0b 66
        E 0 80 36 00
        E 0 90 37 66
        E 48 b0 0b 5d
        E 48 b0 0b 66
        E 0 80 37 00
        E 0 90 38 66
        E 48 b0 0b 5d
        E 48 b0 0b 66
        E 0 80 38 00
        E 0 90 3a 66
        E 48 b0 0b 5d
        E 48 b0 0b 66
        E 0 80 3a 00
        E 0 90 38 66
        E 48 b0 0b 5d
        E 48 b0 0b 66
        E 0 80 38 00
        E 0 90 37 66
        E 48 b0 0b 5d
        E 48 b0 0b 66
        E 0 80 37 00
        E 0 90 33 66
        E 48 b0 0b 5d
        E 48 b0 0b 66
        E 0 80 33 00
        E 0 90 30 66
        E 48 b0 0b 5d
        E 48 b0 0b 66
        E 0 80 30 00
        E 0 90 36 66
        E 48 b0 0b 5d
        E 48 b0 0b 66
        E 0 80 36 00
        E 0 90 37 66
        E 48 b0 0b 5d
        E 48 b0 0b 66
        E 0 80 37 00
        E 0 90 38 66
        E 48 b0 0b 5d
        E 48 b0 0b 66
        E 0 80 38 00
        E 0 90 37 66
        E 48 b0 0b 5d
        E 48 b0 0b 66
        E 0 80 37 00
        E 0 90 36 66
        E 48 b0 0b 5d
        E 48 b0 0b 66
        E 0 80 36 00
        E 0 90 37 66
        E 48 b0 0b 5d
        E 48 b0 0b 66
        E 0 80 37 00
        E 0 90 38 66
        E 48 b0 0b 5d
        E 48 b0 0b 66
        E 0 80 38 00
        E 0 90 3a 66
        E 48 b0 0b 5d
        E 48 b0 0b 66
        E 0 80 3a 00
        E 0 90 38 66
        E 48 b0 0b 5d
        E 48 b0 0b 66
        E 0 80 38 00
        E 0 90 37 66
        E 48 b0 0b 5d
        E 48 b0 0b 66
        E 0 80 37 00
        E 0 90 33 66
        E 48 b0 0b 5d
        E 48 b0 0b 66
        E 0 80 33 00
        E 0 90 30 66
        E 48 b0 0b 5d
        E 48 b0 0b 66
        E 0 80 30 00
        E 0 90 33 66
        E 48 b0 0b 5d
        E 48 b0 0b 66
        E 0 80 33 00
        E 0 90 34 66
        E 48 b0 0b 5d
        E 48 b0 0b 66
        E 0 80 34 00
        E 0 90 37 66
        E 48 b0 0b 5d
        E 48 b0 0b 66
        E 0 80 37 00
        E 0 90 3a 66
        E 48 b0 0b 5d
        E 48 b0 0b 66
        E 0 80 3a 00
        E 0 90 3b 66
        E 48 b0 0b 5d
        E 48 b0 0b 66
        E 0 80 3b 00
        E 0 90 3c 66
        E 48 b0 0b 5d
        E 48 b0 0b 66
        E 0 80 3c 00
        E 0 90 3d 66
        E 48 b0 0b 5d
        E 48 b0 0b 66
        E 0 80 3d 00
        E 0 90 3c 66
        E 48 b0 0b 5d
        E 48 b0 0b 66
        E 0 80 3c 00
        E 0 90 3b 66
        E 48 b0 0b 5d
        E 48 b0 0b 66
        E 0 80 3b 00
        E 0 90 3c 66
        E 48 b0 0b 5d
        E 48 b0 0b 66
        E 0 80 3c 00
        E 0 90 3d 66
        E 48 b0 0b 5d
        E 48 b0 0b 66
        E 0 80 3d 00
        E 0 90 3f 66
        E 48 b0 0b 5d
        E 48 b0 0b 66
        E 0 80 3f 00
        E 0 90 3d 66
        E 48 b0 0b 5d
        E 48 b0 0b 66
        E 0 80 3d 00
        E 0 90 3c 66
        E 48 b0 0b 5d
        E 48 b0 0b 66
        E 0 80 3c 00
        E 0 90 38 66
        E 48 b0 0b 5d
        E 48 b0 0b 66
        E 0 80 38 00
        E 0 90 35 66
        E 48 b0 0b 5d
        E 48 b0 0b 66
        E 0 80 35 00
        E 0 90 3b 66
        E 48 b0 0b 5d
        E 48 b0 0b 66
        E 0 80 3b 00
        E 0 90 3c 66
        E 48 b0 0b 5d
        E 48 b0 0b 66
        E 0 80 3c 00
        E 0 90 3d 66
        E 48 b0 0b 5d
        E 48 b0 0b 66
        E 0 80 3d 00
        E 0 90 3c 66
        E 48 b0 0b 5d
        E 48 b0 0b 66
        E 0 80 3c 00
        E 0 90 3b 66
        E 48 b0 0b 5d
        E 48 b0 0b 66
        E 0 80 3b 00
        E 0 90 3c 66
        E 48 b0 0b 5d
        E 48 b0 0b 66
        E 0 80 3c 00
        E 0 90 3d 66
        E 48 b0 0b 5d
        E 48 b0 0b 66
        E 0 80 3d 00
        E 0 90 3f 66
        E 48 b0 0b 5d
        E 48 b0 0b 66
        E 0 80 3f 00
        E 0 90 3d 66
        E 48 b0 0b 5d
        E 48 b0 0b 66
        E 0 80 3d 00
        E 0 90 3c 66
        E 48 b0 0b 5d
        E 48 b0 0b 66
        E 0 80 3c 00
        E 0 90 38 66
        E 48 b0 0b 5d
        E 48 b0 0b 66
        E 0 80 38 00
        E 0 90 35 66
        E 48 b0 0b 5d
        E 48 b0 0b 66
        E 0 80 35 00
        E 0 90 3c 66
        E 48 b0 0b 5d
        E 48 b0 0b 66
        E 0 80 3c 00
        E 0 90 3a 66
        E 48 b0 0b 5d
        E 48 b0 0b 66
        E 0 80 3a 00
        E 0 90 38 66
        E 48 b0 0b 5d
        E 48 b0 0b 66
        E 0 80 38 00
        E 0 90 35 66
        E 48 b0 0b 5d
        E 48 b0 0b 66
        E 0 80 35 00
        E 0 90 43 66
        E 16 b0 0b 5d
        E 16 b0 0b 4c
        E 16 b0 0b 44
        E 16 b0 0b 33
        E 16 b0 0b 2a
        E 16 b0 0b 66
        E 0 80 43 00
        E 0 90 44 66
        E 16 b0 0b 5d
        E 16 b0 0b 4c
        E 16 b0 0b 44
        E 16 b0 0b 33
        E 16 b0 0b 2a
        E 16 b0 0b 66
        E 0 80 44 00
        E 0 90 43 66
        E 16 b0 0b 5d
        E 16 b0 0b 4c
        E 16 b0 0b 44
        E 16 b0 0b 33
        E 16 b0 0b 2a
        E 32 b0 0b 33
        E 16 b0 0b 44
        E 16 b0 0b 3b
        E 16 b0 0b 2a
        E 16 b0 0b 22
        E 16 b0 0b 33
        E 16 b0 0b 3b
        E 32 b0 0b 33
        E 16 b0 0b 22
        E 16 b0 0b 2a
        E 16 b0 0b 3b
        E 16 b0 0b 44
        E 16 b0 0b 55
        E 16 b0 0b 5d
        E 1392 b0 0b 66
        E 0 80 43 00
        E 0 90 46 66
        E 16 b0 0b 5d
        E 16 b0 0b 4c
        E 16 b0 0b 44
        E 16 b0 0b 33
        E 16 b0 0b 2a
        E 32 b0 0b 33
        E 16 b0 0b 44
        E 16 b0 0b 3b
        E 16 b0 0b 2a
        E 16 b0 0b 22
        E 16 b0 0b 33
        E 16 b0 0b 3b
        E 32 b0 0b 33
        E 16 b0 0b 22
        E 16 b0 0b 2a
        E 16 b0 0b 3b
        E 16 b0 0b 44
        E 16 b0 0b 55
        E 16 b0 0b 5d
        E 48 b0 0b 66
        E 0 80 46 00
        E 0 90 45 66
        E 16 b0 0b 5d
        E 16 b0 0b 4c
        E 16 b0 0b 44
        E 16 b0 0b 33
        E 16 b0 0b 2a
        E 32 b0 0b 33
        E 16 b0 0b 44
        E 16 b0 0b 3b
        E 16 b0 0b 2a
        E 16 b0 0b 22
        E 16 b0 0b 33
        E 16 b0 0b 3b
        E 32 b0 0b 33
        E 16 b0 0b 22
        E 16 b0 0b 2a
        E 16 b0 0b 3b
        E 16 b0 0b 44
        E 16 b0 0b 55
        E 16 b0 0b 5d
        E 48 b0 0b 66
        E 0 80 45 00
        E 0 90 44 66
        E 16 b0 0b 5d
        E 16 b0 0b 4c
        E 16 b0 0b 44
        E 16 b0 0b 33
        E 16 b0 0b 2a
        E 32 b0 0b 33
        E 16 b0 0b 44
        E 16 b0 0b 3b
        E 16 b0 0b 2a
        E 16 b0 0b 22
        E 16 b0 0b 33
        E 16 b0 0b 3b
        E 32 b0 0b 33
        E 16 b0 0b 22
        E 16 b0 0b 2a
        E 16 b0 0b 3b
        E 16 b0 0b 44
        E 16 b0 0b 55
        E 16 b0 0b 5d
        E 48 b0 0b 66
        E 0 80 44 00
        E 0 90 43 66
        E 16 b0 0b 5d
        E 16 b0 0b 4c
        E 16 b0 0b 44
        E 16 b0 0b 33
        E 16 b0 0b 2a
        E 16 b0 0b 66
        E 0 80 43 00
        E 0 90 44 66
        E 16 b0 0b 5d
        E 16 b0 0b 4c
        E 16 b0 0b 44
        E 16 b0 0b 33
        E 16 b0 0b 2a
        E 16 b0 0b 66
        E 0 80 44 00
        E 0 90 43 66
        E 16 b0 0b 5d
        E 16 b0 0b 4c
        E 16 b0 0b 44
        E 16 b0 0b 33
        E 16 b0 0b 2a
        E 32 b0 0b 33
        E 16 b0 0b 44
        E 16 b0 0b 3b
        E 16 b0 0b 2a
        E 16 b0 0b 22
        E 16 b0 0b 33
        E 16 b0 0b 3b
        E 32 b0 0b 33
        E 16 b0 0b 22
        E 16 b0 0b 2a
        E 16 b0 0b 3b
        E 16 b0 0b 44
        E 16 b0 0b 55
        E 16 b0 0b 5d
        E 1392 b0 0b 66
        E 0 80 43 00
        E 0 90 46 66
        E 16 b0 0b 5d
        E 16 b0 0b 4c
        E 16 b0 0b 44
        E 16 b0 0b 33
        E 16 b0 0b 2a
        E 32 b0 0b 33
        E 16 b0 0b 44
        E 16 b0 0b 3b
        E 16 b0 0b 2a
        E 16 b0 0b 22
        E 16 b0 0b 33
        E 16 b0 0b 3b
        E 32 b0 0b 33
        E 16 b0 0b 22
        E 16 b0 0b 2a
        E 16 b0 0b 3b
        E 16 b0 0b 44
        E 16 b0 0b 55
        E 16 b0 0b 5d
        E 48 b0 0b 66
        E 0 80 46 00
        E 0 90 45 66
        E 16 b0 0b 5d
        E 16 b0 0b 4c
        E 16 b0 0b 44
        E 16 b0 0b 33
        E 16 b0 0b 2a
        E 32 b0 0b 33
        E 16 b0 0b 44
        E 16 b0 0b 3b
        E 16 b0 0b 2a
        E 16 b0 0b 22
        E 16 b0 0b 33
        E 16 b0 0b 3b
        E 32 b0 0b 33
        E 16 b0 0b 22
        E 16 b0 0b 2a
        E 16 b0 0b 3b
        E 16 b0 0b 44
        E 16 b0 0b 55
        E 16 b0 0b 5d
        E 48 b0 0b 66
        E 0 80 45 00
        E 0 90 44 66
        E 16 b0 0b 5d
        E 16 b0 0b 4c
        E 16 b0 0b 44
        E 16 b0 0b 33
        E 16 b0 0b 2a
        E 32 b0 0b 33
        E 16 b0 0b 44
        E 16 b0 0b 3b
        E 16 b0 0b 2a
        E 16 b0 0b 22
        E 16 b0 0b 33
        E 16 b0 0b 3b
        E 32 b0 0b 33
        E 16 b0 0b 22
        E 16 b0 0b 2a
        E 16 b0 0b 3b
        E 16 b0 0b 44
        E 16 b0 0b 55
        E 16 b0 0b 5d
        E 48 b0 0b 66
        E 0 80 44 00
        E 0 90 48 66
        E 16 b0 0b 5d
        E 16 b0 0b 4c
        E 16 b0 0b 44
        E 16 b0 0b 33
        E 16 b0 0b 2a
        E 16 b0 0b 66
        E 0 80 48 00
        E 0 90 49 66
        E 16 b0 0b 5d
        E 16 b0 0b 4c
        E 16 b0 0b 44
        E 16 b0 0b 33
        E 16 b0 0b 2a
        E 16 b0 0b 66
        E 0 80 49 00
        E 0 90 48 66
        E 16 b0 0b 5d
        E 16 b0 0b 4c
        E 16 b0 0b 44
        E 16 b0 0b 33
        E 16 b0 0b 2a
        E 32 b0 0b 33
        E 16 b0 0b 44
        E 16 b0 0b 3b
        E 16 b0 0b 2a
        E 16 b0 0b 22
        E 16 b0 0b 33
        E 16 b0 0b 3b
        E 32 b0 0b 33
        E 16 b0 0b 22
        E 16 b0 0b 2a
        E 16 b0 0b 3b
        E 16 b0 0b 44
        E 16 b0 0b 55
        E 16 b0 0b 5d
        E 1392 b0 0b 66
        E 0 80 48 00
        E 0 90 4b 66
        E 16 b0 0b 5d
        E 16 b0 0b 4c
        E 16 b0 0b 44
        E 16 b0 0b 33
        E 16 b0 0b 2a
        E 32 b0 0b 33
        E 16 b0 0b 44
        E 16 b0 0b 3b
        E 16 b0 0b 2a
        E 16 b0 0b 22
        E 16 b0 0b 33
        E 16 b0 0b 3b
        E 32 b0 0b 33
        E 16 b0 0b 22
        E 16 b0 0b 2a
        E 16 b0 0b 3b
        E 16 b0 0b 44
        E 16 b0 0b 55
        E 16 b0 0b 5d
        E 48 b0 0b 66
        E 0 80 4b 00
        E 0 90 4a 66
        E 16 b0 0b 5d
        E 16 b0 0b 4c
        E 16 b0 0b 44
        E 16 b0 0b 33
        E 16 b0 0b 2a
        E 32 b0 0b 33
        E 16 b0 0b 44
        E 16 b0 0b 3b
        E 16 b0 0b 2a
        E 16 b0 0b 22
        E 16 b0 0b 33
        E 16 b0 0b 3b
        E 32 b0 0b 33
        E 16 b0 0b 22
        E 16 b0 0b 2a
        E 16 b0 0b 3b
        E 16 b0 0b 44
        E 16 b0 0b 55
        E 16 b0 0b 5d
        E 48 b0 0b 66
        E 0 80 4a 00
        E 0 90 49 66
        E 16 b0 0b 5d
        E 16 b0 0b 4c
        E 16 b0 0b 44
        E 16 b0 0b 33
        E 16 b0 0b 2a
        E 32 b0 0b 33
        E 16 b0 0b 44
        E 16 b0 0b 3b
        E 16 b0 0b 2a
        E 16 b0 0b 22
        E 16 b0 0b 33
        E 16 b0 0b 3b
        E 32 b0 0b 33
        E 16 b0 0b 22
        E 16 b0 0b 2a
        E 16 b0 0b 3b
        E 16 b0 0b 44
        E 16 b0 0b 55
        E 16 b0 0b 5d
        E 48 b0 0b 66
        E 0 80 49 00
        E 0 90 48 66
        E 16 b0 0b 5d
        E 16 b0 0b 4c
        E 16 b0 0b 44
        E 16 b0 0b 33
        E 16 b0 0b 2a
        E 16 b0 0b 66
        E 0 80 48 00
        E 0 90 49 66
        E 16 b0 0b 5d
        E 16 b0 0b 4c
        E 16 b0 0b 44
        E 16 b0 0b 33
        E 16 b0 0b 2a
        E 16 b0 0b 66
        E 0 80 49 00
        E 0 90 48 66
        E 16 b0 0b 5d
        E 16 b0 0b 4c
        E 16 b0 0b 44
        E 16 b0 0b 33
        E 16 b0 0b 2a
        E 32 b0 0b 33
        E 16 b0 0b 44
        E 16 b0 0b 3b
        E 16 b0 0b 2a
        E 16 b0 0b 22
        E 16 b0 0b 33
        E 16 b0 0b 3b
        E 32 b0 0b 33
        E 16 b0 0b 22
        E 16 b0 0b 2a
        E 16 b0 0b 3b
        E 16 b0 0b 44
        E 16 b0 0b 55
        E 16 b0 0b 5d
        E 1392 b0 0b 66
        E 0 80 48 00
        E 0 90 4b 66
        E 16 b0 0b 5d
        E 16 b0 0b 4c
        E 16 b0 0b 44
        E 16 b0 0b 33
        E 16 b0 0b 2a
        E 32 b0 0b 33
        E 16 b0 0b 44
        E 16 b0 0b 3b
        E 16 b0 0b 2a
        E 16 b0 0b 22
        E 16 b0 0b 33
        E 16 b0 0b 3b
        E 32 b0 0b 33
        E 16 b0 0b 22
        E 16 b0 0b 2a
        E 16 b0 0b 3b
        E 16 b0 0b 44
        E 16 b0 0b 55
        E 16 b0 0b 5d
        E 48 b0 0b 66
        E 0 80 4b 00
        E 0 90 4a 66
        E 16 b0 0b 5d
        E 16 b0 0b 4c
        E 16 b0 0b 44
        E 16 b0 0b 33
        E 16 b0 0b 2a
        E 32 b0 0b 33
        E 16 b0 0b 44
        E 16 b0 0b 3b
        E 16 b0 0b 2a
        E 16 b0 0b 22
        E 16 b0 0b 33
        E 16 b0 0b 3b
        E 32 b0 0b 33
        E 16 b0 0b 22
        E 16 b0 0b 2a
        E 16 b0 0b 3b
        E 16 b0 0b 44
        E 16 b0 0b 55
        E 16 b0 0b 5d
        E 48 b0 0b 66
        E 0 80 4a 00
        E 0 90 49 66
        E 16 b0 0b 5d
        E 16 b0 0b 4c
        E 16 b0 0b 44
        E 16 b0 0b 33
        E 16 b0 0b 2a
        E 32 b0 0b 33
        E 16 b0 0b 44
        E 16 b0 0b 3b
        E 16 b0 0b 2a
        E 16 b0 0b 22
        E 16 b0 0b 33
        E 16 b0 0b 3b
        E 32 b0 0b 33
        E 16 b0 0b 22
        E 16 b0 0b 2a
        E 16 b0 0b 3b
        E 16 b0 0b 44
        E 16 b0 0b 55
        E 16 b0 0b 5d
        E 48 b0 0b 66
        E 0 80 49 00
        E 0 90 36 66
        E 48 b0 0b 5d
        E 48 b0 0b 66
        E 0 80 36 00
        E 0 90 37 66
        E 48 b0 0b 5d
        E 48 b0 0b 66
        E 0 80 37 00
        E 0 90 38 66
        E 48 b0 0b 5d
        E 48 b0 0b 66
        E 0 80 38 00
        E 0 90 37 66
        E 48 b0 0b 5d
        E 48 b0 0b 66
        E 0 80 37 00
        E 0 90 36 66
        E 48 b0 0b 5d
        E 48 b0 0b 66
        E 0 80 36 00
        E 0 90 37 66
        E 48 b0 0b 5d
        E 48 b0 0b 66
        E 0 80 37 00
        E 0 90 38 66
        E 48 b0 0b 5d
        E 48 b0 0b 66
        E 0 80 38 00
        E 0 90 3a 66
        E 48 b0 0b 5d
        E 48 b0 0b 66
        E 0 80 3a 00
        E 0 90 38 66
        E 48 b0 0b 5d
        E 48 b0 0b 66
        E 0 80 38 00
        E 0 90 37 66
        E 48 b0 0b 5d
        E 48 b0 0b 66
        E 0 80 37 00
        E 0 90 33 66
        E 48 b0 0b 5d
        E 48 b0 0b 66
        E 0 80 33 00
        E 0 90 30 66
        E 48 b0 0b 5d
        E 48 b0 0b 66
        E 0 80 30 00
        E 0 90 36 66
        E 48 b0 0b 5d
        E 48 b0 0b 66
        E 0 80 36 00
        E 0 90 37 66
        E 48 b0 0b 5d
        E 48 b0 0b 66
        E 0 80 37 00
        E 0 90 38 66
        E 48 b0 0b 5d
        E 48 b0 0b 66
        E 0 80 38 00
        E 0 90 37 66
        E 48 b0 0b 5d
        E 48 b0 0b 66
        E 0 80 37 00
        E 0 90 36 66
        E 48 b0 0b 5d
        E 48 b0 0b 66
        E 0 80 36 00
        E 0 90 37 66
        E 48 b0 0b 5d
        E 48 b0 0b 66
        E 0 80 37 00
        E 0 90 38 66
        E 48 b0 0b 5d
        E 48 b0 0b 66
        E 0 80 38 00
        E 0 90 3a 66
        E 48 b0 0b 5d
        E 48 b0 0b 66
        E 0 80 3a 00
        E 0 90 38 66
        E 48 b0 0b 5d
        E 48 b0 0b 66
        E 0 80 38 00
        E 0 90 37 66
        E 48 b0 0b 5d
        E 48 b0 0b 66
        E 0 80 37 00
        E 0 90 33 66
        E 48 b0 0b 5d
        E 48 b0 0b 66
        E 0 80 33 00
        E 0 90 30 66
        E 48 b0 0b 5d
        E 48 b0 0b 66
        E 0 80 30 00
        E 0 90 33 66
        E 48 b0 0b 5d
        E 48 b0 0b 66
        E 0 80 33 00
        E 0 90 34 66
        E 48 b0 0b 5d
        E 48 b0 0b 66
        E 0 80 34 00
        E 0 90 37 66
        E 48 b0 0b 5d
        E 48 b0 0b 66
        E 0 80 37 00
        E 0 90 3a 66
        E 48 b0 0b 5d
        E 48 b0 0b 66
        E 0 80 3a 00
        E 0 90 3b 66
        E 48 b0 0b 5d
        E 48 b0 0b 66
        E 0 80 3b 00
        E 0 90 3c 66
        E 48 b0 0b 5d
        E 48 b0 0b 66
        E 0 80 3c 00
        E 0 90 3d 66
        E 48 b0 0b 5d
        E 48 b0 0b 66
        E 0 80 3d 00
        E 0 90 3c 66
        E 48 b0 0b 5d
        E 48 b0 0b 66
        E 0 80 3c 00
        E 0 90 3b 66
        E 48 b0 0b 5d
        E 48 b0 0b 66
        E 0 80 3b 00
        E 0 90 3c 66
        E 48 b0 0b 5d
        E 48 b0 0b 66
        E 0 80 3c 00
        E 0 90 3d 66
        E 48 b0 0b 5d
        E 48 b0 0b 66
        E 0 80 3d 00
        E 0 90 3f 66
        E 48 b0 0b 5d
        E 48 b0 0b 66
        E 0 80 3f 00
        E 0 90 3d 66
        E 48 b0 0b 5d
        E 48 b0 0b 66
        E 0 80 3d 00
        E 0 90 3c 66
        E 48 b0 0b 5d
        E 48 b0 0b 66
        E 0 80 3c 00
        E 0 90 38 66
        E 48 b0 0b 5d
        E 48 b0 0b 66
        E 0 80 38 00
        E 0 90 35 66
        E 48 b0 0b 5d
        E 48 b0 0b 66
        E 0 80 35 00
        E 0 90 3b 66
        E 48 b0 0b 5d
        E 48 b0 0b 66
        E 0 80 3b 00
        E 0 90 3c 66
        E 48 b0 0b 5d
        E 48 b0 0b 66
        E 0 80 3c 00
        E 0 90 3d 66
        E 48 b0 0b 5d
        E 48 b0 0b 66
        E 0 80 3d 00
        E 0 90 3c 66
        E 48 b0 0b 5d
        E 48 b0 0b 66
        E 0 80 3c 00
        E 0 90 3b 66
        E 48 b0 0b 5d
        E 48 b0 0b 66
        E 0 80 3b 00
        E 0 90 3c 66
        E 48 b0 0b 5d
        E 48 b0 0b 66
        E 0 80 3c 00
        E 0 90 3d 66
        E 48 b0 0b 5d
        E 48 b0 0b 66
        E 0 80 3d 00
        E 0 90 3f 66
        E 48 b0 0b 5d
        E 48 b0 0b 66
        E 0 80 3f 00
        E 0 90 3d 66
        E 48 b0 0b 5d
        E 48 b0 0b 66
        E 0 80 3d 00
        E 0 90 3c 66
        E 48 b0 0b 5d
        E 48 b0 0b 66
        E 0 80 3c 00
        E 0 90 38 66
        E 48 b0 0b 5d
        E 48 b0 0b 66
        E 0 80 38 00
        E 0 90 35 66
        E 48 b0 0b 5d
        E 48 b0 0b 66
        E 0 80 35 00
        E 0 90 3c 66
        E 48 b0 0b 5d
        E 48 b0 0b 66
        E 0 80 3c 00
        E 0 90 3a 66
        E 48 b0 0b 5d
        E 48 b0 0b 66
        E 0 80 3a 00
        E 0 90 38 66
        E 48 b0 0b 5d
        E 48 b0 0b 66
        E 0 80 38 00
        E 0 90 35 66
        E 48 b0 0b 5d
        E 48 b0 0b 66
        E 0 80 35 00
        E 0 90 36 66
        E 48 b0 0b 5d
        E 48 b0 0b 66
        E 0 80 36 00
        E 0 90 37 66
        E 48 b0 0b 5d
        E 48 b0 0b 66
        E 0 80 37 00
        E 0 90 38 66
        E 48 b0 0b 5d
        E 48 b0 0b 66
        E 0 80 38 00
        E 0 90 37 66
        E 48 b0 0b 5d
        E 48 b0 0b 66
        E 0 80 37 00
        E 0 90 36 66
        E 48 b0 0b 5d
        E 48 b0 0b 66
        E 0 80 36 00
        E 0 90 37 66
        E 48 b0 0b 5d
        E 48 b0 0b 66
        E 0 80 37 00
        E 0 90 38 66
        E 48 b0 0b 5d
        E 48 b0 0b 66
        E 0 80 38 00
        E 0 90 3a 66
        E 48 b0 0b 5d
        E 48 b0 0b 66
        E 0 80 3a 00
        E 0 90 38 66
        E 48 b0 0b 5d
        E 48 b0 0b 66
        E 0 80 38 00
        E 0 90 37 66
        E 48 b0 0b 5d
        E 48 b0 0b 66
        E 0 80 37 00
        E 0 90 33 66
        E 48 b0 0b 5d
        E 48 b0 0b 66
        E 0 80 33 00
        E 0 90 30 66
        E 48 b0 0b 5d
        E 48 b0 0b 66
        E 0 80 30 00
        E 0 90 36 66
        E 48 b0 0b 5d
        E 48 b0 0b 66
        E 0 80 36 00
        E 0 90 37 66
        E 48 b0 0b 5d
        E 48 b0 0b 66
        E 0 80 37 00
        E 0 90 38 66
        E 48 b0 0b 5d
        E 48 b0 0b 66
        E 0 80 38 00
        E 0 90 37 66
        E 48 b0 0b 5d
        E 48 b0 0b 66
        E 0 80 37 00
        E 0 90 36 66
        E 48 b0 0b 5d
        E 48 b0 0b 66
        E 0 80 36 00
        E 0 90 37 66
        E 48 b0 0b 5d
        E 48 b0 0b 66
        E 0 80 37 00
        E 0 90 38 66
        E 48 b0 0b 5d
        E 48 b0 0b 66
        E 0 80 38 00
        E 0 90 3a 66
        E 48 b0 0b 5d
        E 48 b0 0b 66
        E 0 80 3a 00
        E 0 90 38 66
        E 48 b0 0b 5d
        E 48 b0 0b 66
        E 0 80 38 00
        E 0 90 37 66
        E 48 b0 0b 5d
        E 48 b0 0b 66
        E 0 80 37 00
        E 0 90 33 66
        E 48 b0 0b 5d
        E 48 b0 0b 66
        E 0 80 33 00
        E 0 90 30 66
        E 48 b0 0b 5d
        E 48 b0 0b 66
        E 0 80 30 00
        E 0 90 33 66
        E 48 b0 0b 5d
        E 48 b0 0b 66
        E 0 80 33 00
        E 0 90 34 66
        E 48 b0 0b 5d
        E 48 b0 0b 66
        E 0 80 34 00
        E 0 90 37 66
        E 48 b0 0b 5d
        E 48 b0 0b 66
        E 0 80 37 00
        E 0 90 3a 66
        E 48 b0 0b 5d
        E 48 b0 0b 66
        E 0 80 3a 00
        E 0 90 3b 66
        E 48 b0 0b 5d
        E 48 b0 0b 66
        E 0 80 3b 00
        E 0 90 3c 66
        E 48 b0 0b 5d
        E 48 b0 0b 66
        E 0 80 3c 00
        E 0 90 3d 66
        E 48 b0 0b 5d
        E 48 b0 0b 66
        E 0 80 3d 00
        E 0 90 3c 66
        E 48 b0 0b 5d
        E 48 b0 0b 66
        E 0 80 3c 00
        E 0 90 3b 66
        E 48 b0 0b 5d
        E 48 b0 0b 66
        E 0 80 3b 00
        E 0 90 3c 66
        E 48 b0 0b 5d
        E 48 b0 0b 66
        E 0 80 3c 00
        E 0 90 3d 66
        E 48 b0 0b 5d
        E 48 b0 0b 66
        E 0 80 3d 00
        E 0 90 3f 66
        E 48 b0 0b 5d
        E 48 b0 0b 66
        E 0 80 3f 00
        E 0 90 3d 66
        E 48 b0 0b 5d
        E 48 b0 0b 66
        E 0 80 3d 00
        E 0 90 3c 66
        E 48 b0 0b 5d
        E 48 b0 0b 66
        E 0 80 3c 00
        E 0 90 38 66
        E 48 b0 0b 5d
        E 48 b0 0b 66
        E 0 80 38 00
        E 0 90 35 66
        E 48 b0 0b 5d
        E 48 b0 0b 66
        E 0 80 35 00
        E 0 90 3b 66
        E 48 b0 0b 5d
        E 48 b0 0b 66
        E 0 80 3b 00
        E 0 90 3c 66
        E 48 b0 0b 5d
        E 48 b0 0b 66
        E 0 80 3c 00
        E 0 90 3d 66
        E 48 b0 0b 5d
        E 48 b0 0b 66
        E 0 80 3d 00
        E 0 90 3c 66
        E 48 b0 0b 5d
        E 48 b0 0b 66
        E 0 80 3c 00
        E 0 90 3b 66
        E 48 b0 0b 5d
        E 48 b0 0b 66
        E 0 80 3b 00
        E 0 90 3c 66
        E 48 b0 0b 5d
        E 48 b0 0b 66
        E 0 80 3c 00
        E 0 90 3d 66
        E 48 b0 0b 5d
        E 48 b0 0b 66
        E 0 80 3d 00
        E 0 90 3f 66
        E 48 b0 0b 5d
        E 48 b0 0b 66
        E 0 80 3f 00
        E 0 90 3d 66
        E 48 b0 0b 5d
        E 48 b0 0b 66
        E 0 80 3d 00
        E 0 90 3c 66
        E 48 b0 0b 5d
        E 48 b0 0b 66
        E 0 80 3c 00
        E 0 90 38 66
        E 48 b0 0b 5d
        E 48 b0 0b 66
        E 0 80 38 00
        E 0 90 35 66
        E 48 b0 0b 5d
        E 48 b0 0b 66
        E 0 80 35 00
        E 0 90 3c 66
        E 48 b0 0b 5d
        E 48 b0 0b 66
        E 0 80 3c 00
        E 0 90 3a 66
        E 48 b0 0b 5d
        E 48 b0 0b 66
        E 0 80 3a 00
        E 0 90 38 66
        E 48 b0 0b 5d
        E 48 b0 0b 66
        E 0 80 38 00
        E 0 90 35 66
        E 48 b0 0b 5d
        E 48 b0 0b 66
        E 0 80 35 00
        E 0 90 43 66
        E 16 b0 0b 5d
        E 16 b0 0b 4c
        E 16 b0 0b 44
        E 16 b0 0b 33
        E 16 b0 0b 2a
        E 16 b0 0b 66
        E 0 80 43 00
        E 0 90 44 66
        E 16 b0 0b 5d
        E 16 b0 0b 4c
        E 16 b0 0b 44
        E 16 b0 0b 33
        E 16 b0 0b 2a
        E 16 b0 0b 66
        E 0 80 44 00
        E 0 90 43 66
        E 16 b0 0b 5d
        E 16 b0 0b 4c
        E 16 b0 0b 44
        E 16 b0 0b 33
        E 16 b0 0b 2a
        E 32 b0 0b 33
        E 16 b0 0b 44
        E 16 b0 0b 3b
        E 16 b0 0b 2a
        E 16 b0 0b 22
        E 16 b0 0b 33
        E 16 b0 0b 3b
        E 32 b0 0b 33
        E 16 b0 0b 22
        E 16 b0 0b 2a
        E 16 b0 0b 3b
        E 16 b0 0b 44
        E 16 b0 0b 55
        E 16 b0 0b 5d
        E 1392 b0 0b 66
        E 0 80 43 00
        E 0 90 46 66
        E 16 b0 0b 5d
        E 16 b0 0b 4c
        E 16 b0 0b 44
        E 16 b0 0b 33
        E 16 b0 0b 2a
        E 32 b0 0b 33
        E 16 b0 0b 44
        E 16 b0 0b 3b
        E 16 b0 0b 2a
        E 16 b0 0b 22
        E 16 b0 0b 33
        E 16 b0 0b 3b
        E 32 b0 0b 33
        E 16 b0 0b 22
        E 16 b0 0b 2a
        E 16 b0 0b 3b
        E 16 b0 0b 44
        E 16 b0 0b 55
        E 16 b0 0b 5d
        E 48 b0 0b 66
        E 0 80 46 00
        E 0 90 45 66
        E 16 b0 0b 5d
        E 16 b0 0b 4c
        E 16 b0 0b 44
        E 16 b0 0b 33
        E 16 b0 0b 2a
        E 32 b0 0b 33
        E 16 b0 0b 44
        E 16 b0 0b 3b
        E 16 b0 0b 2a
        E 16 b0 0b 22
        E 16 b0 0b 33
        E 16 b0 0b 3b
        E 32 b0 0b 33
        E 16 b0 0b 22
        E 16 b0 0b 2a
        E 16 b0 0b 3b
        E 16 b0 0b 44
        E 16 b0 0b 55
        E 16 b0 0b 5d
        E 48 b0 0b 66
        E 0 80 45 00
        E 0 90 44 66
        E 16 b0 0b 5d
        E 16 b0 0b 4c
        E 16 b0 0b 44
        E 16 b0 0b 33
        E 16 b0 0b 2a
        E 32 b0 0b 33
        E 16 b0 0b 44
        E 16 b0 0b 3b
        E 16 b0 0b 2a
        E 16 b0 0b 22
        E 16 b0 0b 33
        E 16 b0 0b 3b
        E 32 b0 0b 33
        E 16 b0 0b 22
        E 16 b0 0b 2a
        E 16 b0 0b 3b
        E 16 b0 0b 44
        E 16 b0 0b 55
        E 16 b0 0b 5d
        E 48 b0 0b 66
        E 0 80 44 00
        E 0 90 43 66
        E 16 b0 0b 5d
        E 16 b0 0b 4c
        E 16 b0 0b 44
        E 16 b0 0b 33
        E 16 b0 0b 2a
        E 16 b0 0b 66
        E 0 80 43 00
        E 0 90 44 66
        E 16 b0 0b 5d
        E 16 b0 0b 4c
        E 16 b0 0b 44
        E 16 b0 0b 33
        E 16 b0 0b 2a
        E 16 b0 0b 66
        E 0 80 44 00
        E 0 90 43 66
        E 16 b0 0b 5d
        E 16 b0 0b 4c
        E 16 b0 0b 44
        E 16 b0 0b 33
        E 16 b0 0b 2a
        E 32 b0 0b 33
        E 16 b0 0b 44
        E 16 b0 0b 3b
        E 16 b0 0b 2a
        E 16 b0 0b 22
        E 16 b0 0b 33
        E 16 b0 0b 3b
        E 32 b0 0b 33
        E 16 b0 0b 22
        E 16 b0 0b 2a
        E 16 b0 0b 3b
        E 16 b0 0b 44
        E 16 b0 0b 55
        E 16 b0 0b 5d
        E 1392 b0 0b 66
        E 0 80 43 00
        E 0 90 46 66
        E 16 b0 0b 5d
        E 16 b0 0b 4c
        E 16 b0 0b 44
        E 16 b0 0b 33
        E 16 b0 0b 2a
        E 32 b0 0b 33
        E 16 b0 0b 44
        E 16 b0 0b 3b
        E 16 b0 0b 2a
        E 16 b0 0b 22
        E 16 b0 0b 33
        E 16 b0 0b 3b
        E 32 b0 0b 33
        E 16 b0 0b 22
        E 16 b0 0b 2a
        E 16 b0 0b 3b
        E 16 b0 0b 44
        E 16 b0 0b 55
        E 16 b0 0b 5d
        E 48 b0 0b 66
        E 0 80 46 00
        E 0 90 45 66
        E 16 b0 0b 5d
        E 16 b0 0b 4c
        E 16 b0 0b 44
        E 16 b0 0b 33
        E 16 b0 0b 2a
        E 32 b0 0b 33
        E 16 b0 0b 44
        E 16 b0 0b 3b
        E 16 b0 0b 2a
        E 16 b0 0b 22
        E 16 b0 0b 33
        E 16 b0 0b 3b
        E 32 b0 0b 33
        E 16 b0 0b 22
        E 16 b0 0b 2a
        E 16 b0 0b 3b
        E 16 b0 0b 44
        E 16 b0 0b 55
        E 16 b0 0b 5d
        E 48 b0 0b 66
        E 0 80 45 00
        E 0 90 44 66
        E 16 b0 0b 5d
        E 16 b0 0b 4c
        E 16 b0 0b 44
        E 16 b0 0b 33
        E 16 b0 0b 2a
        E 32 b0 0b 33
        E 16 b0 0b 44
        E 16 b0 0b 3b
        E 16 b0 0b 2a
        E 16 b0 0b 22
        E 16 b0 0b 33
        E 16 b0 0b 3b
        E 32 b0 0b 33
        E 16 b0 0b 22
        E 16 b0 0b 2a
        E 16 b0 0b 3b
        E 16 b0 0b 44
        E 16 b0 0b 55
        E 16 b0 0b 5d
        E 48 b0 0b 66
        E 0 80 44 00
        E 0 90 48 66
        E 16 b0 0b 5d
        E 16 b0 0b 4c
        E 16 b0 0b 44
        E 16 b0 0b 33
        E 16 b0 0b 2a
        E 16 b0 0b 66
        E 0 80 48 00
        E 0 90 49 66
        E 16 b0 0b 5d
        E 16 b0 0b 4c
        E 16 b0 0b 44
        E 16 b0 0b 33
        E 16 b0 0b 2a
        E 16 b0 0b 66
        E 0 80 49 00
        E 0 90 48 66
        E 16 b0 0b 5d
        E 16 b0 0b 4c
        E 16 b0 0b 44
        E 16 b0 0b 33
        E 16 b0 0b 2a
        E 32 b0 0b 33
        E 16 b0 0b 44
        E 16 b0 0b 3b
        E 16 b0 0b 2a
        E 16 b0 0b 22
        E 16 b0 0b 33
        E 16 b0 0b 3b
        E 32 b0 0b 33
        E 16 b0 0b 22
        E 16 b0 0b 2a
        E 16 b0 0b 3b
        E 16 b0 0b 44
        E 16 b0 0b 55
        E 16 b0 0b 5d
        E 1392 b0 0b 66
        E 0 80 48 00
        E 0 90 4b 66
        E 16 b0 0b 5d
        E 16 b0 0b 4c
        E 16 b0 0b 44
        E 16 b0 0b 33
        E 16 b0 0b 2a
        E 32 b0 0b 33
        E 16 b0 0b 44
        E 16 b0 0b 3b
        E 16 b0 0b 2a
        E 16 b0 0b 22
        E 16 b0 0b 33
        E 16 b0 0b 3b
        E 32 b0 0b 33
        E 16 b0 0b 22
        E 16 b0 0b 2a
        E 16 b0 0b 3b
        E 16 b0 0b 44
        E 16 b0 0b 55
        E 16 b0 0b 5d
        E 48 b0 0b 66
        E 0 80 4b 00
        E 0 90 4a 66
        E 16 b0 0b 5d
        E 16 b0 0b 4c
        E 16 b0 0b 44
        E 16 b0 0b 33
        E 16 b0 0b 2a
        E 32 b0 0b 33
        E 16 b0 0b 44
        E 16 b0 0b 3b
        E 16 b0 0b 2a
        E 16 b0 0b 22
        E 16 b0 0b 33
        E 16 b0 0b 3b
        E 32 b0 0b 33
        E 16 b0 0b 22
        E 16 b0 0b 2a
        E 16 b0 0b 3b
        E 16 b0 0b 44
        E 16 b0 0b 55
        E 16 b0 0b 5d
        E 48 b0 0b 66
        E 0 80 4a 00
        E 0 90 49 66
        E 16 b0 0b 5d
        E 16 b0 0b 4c
        E 16 b0 0b 44
        E 16 b0 0b 33
        E 16 b0 0b 2a
        E 32 b0 0b 33
        E 16 b0 0b 44
        E 16 b0 0b 3b
        E 16 b0 0b 2a
        E 16 b0 0b 22
        E 16 b0 0b 33
        E 16 b0 0b 3b
        E 32 b0 0b 33
        E 16 b0 0b 22
        E 16 b0 0b 2a
        E 16 b0 0b 3b
        E 16 b0 0b 44
        E 16 b0 0b 55
        E 16 b0 0b 5d
        E 48 b0 0b 66
        E 0 80 49 00
        E 0 90 48 66
        E 16 b0 0b 5d
        E 16 b0 0b 4c
        E 16 b0 0b 44
        E 16 b0 0b 33
        E 16 b0 0b 2a
        E 16 b0 0b 66
        E 0 80 48 00
        E 0 90 49 66
        E 16 b0 0b 5d
        E 16 b0 0b 4c
        E 16 b0 0b 44
        E 16 b0 0b 33
        E 16 b0 0b 2a
        E 16 b0 0b 66
        E 0 80 49 00
        E 0 90 48 66
        E 16 b0 0b 5d
        E 16 b0 0b 4c
        E 16 b0 0b 44
        E 16 b0 0b 33
        E 16 b0 0b 2a
        E 32 b0 0b 33
        E 16 b0 0b 44
        E 16 b0 0b 3b
        E 16 b0 0b 2a
        E 16 b0 0b 22
        E 16 b0 0b 33
        E 16 b0 0b 3b
        E 32 b0 0b 33
        E 16 b0 0b 22
        E 16 b0 0b 2a
        E 16 b0 0b 3b
        E 16 b0 0b 44
        E 16 b0 0b 55
        E 16 b0 0b 5d
        E 1392 b0 0b 66
        E 0 80 48 00
        E 0 90 4b 66
        E 16 b0 0b 5d
        E 16 b0 0b 4c
        E 16 b0 0b 44
        E 16 b0 0b 33
        E 16 b0 0b 2a
        E 32 b0 0b 33
        E 16 b0 0b 44
        E 16 b0 0b 3b
        E 16 b0 0b 2a
        E 16 b0 0b 22
        E 16 b0 0b 33
        E 16 b0 0b 3b
        E 32 b0 0b 33
        E 16 b0 0b 22
        E 16 b0 0b 2a
        E 16 b0 0b 3b
        E 16 b0 0b 44
        E 16 b0 0b 55
        E 16 b0 0b 5d
        E 48 b0 0b 66
        E 0 80 4b 00
        E 0 90 4a 66
        E 16 b0 0b 5d
        E 16 b0 0b 4c
        E 16 b0 0b 44
        E 16 b0 0b 33
        E 16 b0 0b 2a
        E 32 b0 0b 33
        E 16 b0 0b 44
        E 16 b0 0b 3b
        E 16 b0 0b 2a
        E 16 b0 0b 22
        E 16 b0 0b 33
        E 16 b0 0b 3b
        E 32 b0 0b 33
        E 16 b0 0b 22
        E 16 b0 0b 2a
        E 16 b0 0b 3b
        E 16 b0 0b 44
        E 16 b0 0b 55
        E 16 b0 0b 5d
        E 48 b0 0b 66
        E 0 80 4a 00
        E 0 90 49 66
        E 16 b0 0b 5d
        E 16 b0 0b 4c
        E 16 b0 0b 44
        E 16 b0 0b 33
        E 16 b0 0b 2a
        E 32 b0 0b 33
        E 16 b0 0b 44
        E 16 b0 0b 3b
        E 16 b0 0b 2a
        E 16 b0 0b 22
        E 16 b0 0b 33
        E 16 b0 0b 3b
        E 32 b0 0b 33
        E 16 b0 0b 22
        E 16 b0 0b 2a
        E 16 b0 0b 3b
        E 16 b0 0b 44
        E 16 b0 0b 55
        E 16 b0 0b 5d
        E 48 b0 0b 66
        E 0 80 49 00
        E 0 90 36 66
        E 48 b0 0b 5d
        E 48 b0 0b 66
        E 0 80 36 00
        E 0 90 37 66
        E 48 b0 0b 5d
        E 48 b0 0b 66
        E 0 80 37 00
        E 0 90 38 66
        E 48 b0 0b 5d
        E 48 b0 0b 66
        E 0 80 38 00
        E 0 90 37 66
        E 48 b0 0b 5d
        E 48 b0 0b 66
        E 0 80 37 00
        E 0 90 36 66
        E 48 b0 0b 5d
        E 48 b0 0b 66
        E 0 80 36 00
        E 0 90 37 66
        E 48 b0 0b 5d
        E 48 b0 0b 66
        E 0 80 37 00
        E 0 90 38 66
        E 48 b0 0b 5d
        E 48 b0 0b 66
        E 0 80 38 00
        E 0 90 3a 66
        E 48 b0 0b 5d
        E 48 b0 0b 66
        E 0 80 3a 00
        E 0 90 38 66
        E 48 b0 0b 5d
        E 48 b0 0b 66
        E 0 80 38 00
        E 0 90 37 66
        E 48 b0 0b 5d
        E 48 b0 0b 66
        E 0 80 37 00
        E 0 90 33 66
        E 48 b0 0b 5d
        E 48 b0 0b 66
        E 0 80 33 00
        E 0 90 30 66
        E 48 b0 0b 5d
        E 48 b0 0b 66
        E 0 80 30 00
        E 0 90 36 66
        E 48 b0 0b 5d
        E 48 b0 0b 66
        E 0 80 36 00
        E 0 90 37 66
        E 48 b0 0b 5d
        E 48 b0 0b 66
        E 0 80 37 00
        E 0 90 38 66
        E 48 b0 0b 5d
        E 48 b0 0b 66
        E 0 80 38 00
        E 0 90 37 66
        E 48 b0 0b 5d
        E 48 b0 0b 66
        E 0 80 37 00
        E 0 90 36 66
        E 48 b0 0b 5d
        E 48 b0 0b 66
        E 0 80 36 00
        E 0 90 37 66
        E 48 b0 0b 5d
        E 48 b0 0b 66
        E 0 80 37 00
        E 0 90 38 66
        E 48 b0 0b 5d
        E 48 b0 0b 66
        E 0 80 38 00
        E 0 90 3a 66
        E 48 b0 0b 5d
        E 48 b0 0b 66
        E 0 80 3a 00
        E 0 90 38 66
        E 48 b0 0b 5d
        E 48 b0 0b 66
        E 0 80 38 00
        E 0 90 37 66
        E 48 b0 0b 5d
        E 48 b0 0b 66
        E 0 80 37 00
        E 0 90 33 66
        E 48 b0 0b 5d
        E 48 b0 0b 66
        E 0 80 33 00
        E 0 90 30 66
        E 48 b0 0b 5d
        E 48 b0 0b 66
        E 0 80 30 00
        E 0 90 33 66
        E 48 b0 0b 5d
        E 48 b0 0b 66
        E 0 80 33 00
        E 0 90 34 66
        E 48 b0 0b 5d
        E 48 b0 0b 66
        E 0 80 34 00
        E 0 90 37 66
        E 48 b0 0b 5d
        E 48 b0 0b 66
        E 0 80 37 00
        E 0 90 3a 66
        E 48 b0 0b 5d
        E 48 b0 0b 66
        E 0 80 3a 00
        E 0 90 3b 66
        E 48 b0 0b 5d
        E 48 b0 0b 66
        E 0 80 3b 00
        E 0 90 3c 66
        E 48 b0 0b 5d
        E 48 b0 0b 66
        E 0 80 3c 00
        E 0 90 3d 66
        E 48 b0 0b 5d
        E 48 b0 0b 66
        E 0 80 3d 00
        E 0 90 3c 66
        E 48 b0 0b 5d
        E 48 b0 0b 66
        E 0 80 3c 00
        E 0 90 3b 66
        E 48 b0 0b 5d
        E 48 b0 0b 66
        E 0 80 3b 00
        E 0 90 3c 66
        E 48 b0 0b 5d
        E 48 b0 0b 66
        E 0 80 3c 00
        E 0 90 3d 66
        E 48 b0 0b 5d
        E 48 b0 0b 66
        E 0 80 3d 00
        E 0 90 3f 66
        E 48 b0 0b 5d
        E 48 b0 0b 66
        E 0 80 3f 00
        E 0 90 3d 66
        E 48 b0 0b 5d
        E 48 b0 0b 66
        E 0 80 3d 00
        E 0 90 3c 66
        E 48 b0 0b 5d
        E 48 b0 0b 66
        E 0 80 3c 00
        E 0 90 38 66
        E 48 b0 0b 5d
        E 48 b0 0b 66
        E 0 80 38 00
        E 0 90 35 66
        E 48 b0 0b 5d
        E 48 b0 0b 66
        E 0 80 35 00
        E 0 90 3b 66
        E 48 b0 0b 5d
        E 48 b0 0b 66
        E 0 80 3b 00
        E 0 90 3c 66
        E 48 b0 0b 5d
        E 48 b0 0b 66
        E 0 80 3c 00
        E 0 90 3d 66
        E 48 b0 0b 5d
        E 48 b0 0b 66
        E 0 80 3d 00
        E 0 90 3c 66
        E 48 b0 0b 5d
        E 48 b0 0b 66
        E 0 80 3c 00
        E 0 90 3b 66
        E 48 b0 0b 5d
        E 48 b0 0b 66
        E 0 80 3b 00
        E 0 90 3c 66
        E 48 b0 0b 5d
        E 48 b0 0b 66
        E 0 80 3c 00
        E 0 90 3d 66
        E 48 b0 0b 5d
        E 48 b0 0b 66
        E 0 80 3d 00
        E 0 90 3f 66
        E 48 b0 0b 5d
        E 48 b0 0b 66
        E 0 80 3f 00
        E 0 90 3d 66
        E 48 b0 0b 5d
        E 48 b0 0b 66
        E 0 80 3d 00
        E 0 90 3c 66
        E 48 b0 0b 5d
        E 48 b0 0b 66
        E 0 80 3c 00
        E 0 90 38 66
        E 48 b0 0b 5d
        E 48 b0 0b 66
        E 0 80 38 00
        E 0 90 35 66
        E 48 b0 0b 5d
        E 48 b0 0b 66
        E 0 80 35 00
        E 0 90 3c 66
        E 48 b0 0b 5d
        E 48 b0 0b 66
        E 0 80 3c 00
        E 0 90 3a 66
        E 48 b0 0b 5d
        E 48 b0 0b 66
        E 0 80 3a 00
        E 0 90 38 66
        E 48 b0 0b 5d
        E 48 b0 0b 66
        E 0 80 38 00
        E 0 90 35 66
        E 48 b0 0b 5d
        E 48 b0 0b 66
        E 0 80 35 00
        E 0 90 36 66
        E 48 b0 0b 5d
        E 48 b0 0b 66
        E 0 80 36 00
        E 0 90 37 66
        E 48 b0 0b 5d
        E 48 b0 0b 66
        E 0 80 37 00
        E 0 90 38 66
        E 48 b0 0b 5d
        E 48 b0 0b 66
        E 0 80 38 00
        E 0 90 37 66
        E 48 b0 0b 5d
        E 48 b0 0b 66
        E 0 80 37 00
        E 0 90 36 66
        E 48 b0 0b 5d
        E 48 b0 0b 66
        E 0 80 36 00
        E 0 90 37 66
        E 48 b0 0b 5d
        E 48 b0 0b 66
        E 0 80 37 00
        E 0 90 38 66
        E 48 b0 0b 5d
        E 48 b0 0b 66
        E 0 80 38 00
        E 0 90 3a 66
        E 48 b0 0b 5d
        E 48 b0 0b 66
        E 0 80 3a 00
        E 0 90 38 66
        E 48 b0 0b 5d
        E 48 b0 0b 66
        E 0 80 38 00
        E 0 90 37 66
        E 48 b0 0b 5d
        E 48 b0 0b 66
        E 0 80 37 00
        E 0 90 33 66
        E 48 b0 0b 5d
        E 48 b0 0b 66
        E 0 80 33 00
        E 0 90 30 66
        E 48 b0 0b 5d
        E 48 b0 0b 66
        E 0 80 30 00
        E 0 90 36 66
        E 48 b0 0b 5d
        E 48 b0 0b 66
        E 0 80 36 00
        E 0 90 37 66
        E 48 b0 0b 5d
        E 48 b0 0b 66
        E 0 80 37 00
        E 0 90 38 66
        E 48 b0 0b 5d
        E 48 b0 0b 66
        E 0 80 38 00
        E 0 90 37 66
        E 48 b0 0b 5d
        E 48 b0 0b 66
        E 0 80 37 00
        E 0 90 36 66
        E 48 b0 0b 5d
        E 48 b0 0b 66
        E 0 80 36 00
        E 0 90 37 66
        E 48 b0 0b 5d
        E 48 b0 0b 66
        E 0 80 37 00
        E 0 90 38 66
        E 48 b0 0b 5d
        E 48 b0 0b 66
        E 0 80 38 00
        E 0 90 3a 66
        E 48 b0 0b 5d
        E 48 b0 0b 66
        E 0 80 3a 00
        E 0 90 38 66
        E 48 b0 0b 5d
        E 48 b0 0b 66
        E 0 80 38 00
        E 0 90 37 66
        E 48 b0 0b 5d
        E 48 b0 0b 66
        E 0 80 37 00
        E 0 90 33 66
        E 48 b0 0b 5d
        E 48 b0 0b 66
        E 0 80 33 00
        E 0 90 30 66
        E 48 b0 0b 5d
        E 48 b0 0b 66
        E 0 80 30 00
        E 0 90 33 66
        E 48 b0 0b 5d
        E 48 b0 0b 66
        E 0 80 33 00
        E 0 90 34 66
        E 48 b0 0b 5d
        E 48 b0 0b 66
        E 0 80 34 00
        E 0 90 37 66
        E 48 b0 0b 5d
        E 48 b0 0b 66
        E 0 80 37 00
        E 0 90 3a 66
        E 48 b0 0b 5d
        E 48 b0 0b 66
        E 0 80 3a 00
        E 0 90 3b 66
        E 48 b0 0b 5d
        E 48 b0 0b 66
        E 0 80 3b 00
        E 0 90 3c 66
        E 48 b0 0b 5d
        E 48 b0 0b 66
        E 0 80 3c 00
        E 0 90 3d 66
        E 48 b0 0b 5d
        E 48 b0 0b 66
        E 0 80 3d 00
        E 0 90 3c 66
        E 48 b0 0b 5d
        E 48 b0 0b 66
        E 0 80 3c 00
        E 0 90 3b 66
        E 48 b0 0b 5d
        E 48 b0 0b 66
        E 0 80 3b 00
        E 0 90 3c 66
        E 48 b0 0b 5d
        E 48 b0 0b 66
        E 0 80 3c 00
        E 0 90 3d 66
        E 48 b0 0b 5d
        E 48 b0 0b 66
        E 0 80 3d 00
        E 0 90 3f 66
        E 48 b0 0b 5d
        E 48 b0 0b 66
        E 0 80 3f 00
        E 0 90 3d 66
        E 48 b0 0b 5d
        E 48 b0 0b 66
        E 0 80 3d 00
        E 0 90 3c 66
        E 48 b0 0b 5d
        E 48 b0 0b 66
        E 0 80 3c 00
        E 0 90 38 66
        E 48 b0 0b 5d
        E 48 b0 0b 66
        E 0 80 38 00
        E 0 90 35 66
        E 48 b0 0b 5d
        E 48 b0 0b 66
        E 0 80 35 00
        E 0 90 3b 66
        E 48 b0 0b 5d
        E 48 b0 0b 66
        E 0 80 3b 00
        E 0 90 3c 66
        E 48 b0 0b 5d
        E 48 b0 0b 66
        E 0 80 3c 00
        E 0 90 3d 66
        E 48 b0 0b 5d
        E 48 b0 0b 66
        E 0 80 3d 00
        E 0 90 3c 66
        E 48 b0 0b 5d
        E 48 b0 0b 66
        E 0 80 3c 00
        E 0 90 3b 66
        E 48 b0 0b 5d
        E 48 b0 0b 66
        E 0 80 3b 00
        E 0 90 3c 66
        E 48 b0 0b 5d
        E 48 b0 0b 66
        E 0 80 3c 00
        E 0 90 3d 66
        E 48 b0 0b 5d
        E 48 b0 0b 66
        E 0 80 3d 00
        E 0 90 3f 66
        E 48 b0 0b 5d
        E 48 b0 0b 66
        E 0 80 3f 00
        E 0 90 3d 66
        E 48 b0 0b 5d
        E 48 b0 0b 66
        E 0 80 3d 00
        E 0 90 3c 66
        E 48 b0 0b 5d
        E 48 b0 0b 66
        E 0 80 3c 00
        E 0 90 38 66
        E 48 b0 0b 5d
        E 48 b0 0b 66
        E 0 80 38 00
        E 0 90 35 66
        E 48 b0 0b 5d
        E 48 b0 0b 66
        E 0 80 35 00
        E 0 90 3c 66
        E 48 b0 0b 5d
        E 48 b0 0b 66
        E 0 80 3c 00
        E 0 90 3a 66
        E 48 b0 0b 5d
        E 48 b0 0b 66
        E 0 80 3a 00
        E 0 90 38 66
        E 48 b0 0b 5d
        E 48 b0 0b 66
        E 0 80 38 00
        E 0 90 35 66
        E 48 b0 0b 5d
        E 48 b0 0b 66
        E 0 80 35 00
        E 0 90 43 66
        E 16 b0 0b 5d
        E 16 b0 0b 4c
        E 16 b0 0b 44
        E 16 b0 0b 33
        E 16 b0 0b 2a
        E 16 b0 0b 66
        E 0 80 43 00
        E 0 90 44 66
        E 16 b0 0b 5d
        E 16 b0 0b 4c
        E 16 b0 0b 44
        E 16 b0 0b 33
        E 16 b0 0b 2a
        E 16 b0 0b 66
        E 0 80 44 00
        E 0 90 43 66
        E 16 b0 0b 5d
        E 16 b0 0b 4c
        E 16 b0 0b 44
        E 16 b0 0b 33
        E 16 b0 0b 2a
        E 32 b0 0b 33
        E 16 b0 0b 44
        E 16 b0 0b 3b
        E 16 b0 0b 2a
        E 16 b0 0b 22
        E 16 b0 0b 33
        E 16 b0 0b 3b
        E 32 b0 0b 33
        E 16 b0 0b 22
        E 16 b0 0b 2a
        E 16 b0 0b 3b
        E 16 b0 0b 44
        E 16 b0 0b 55
        E 16 b0 0b 5d
        E 1392 b0 0b 66
        E 0 80 43 00
        E 0 90 46 66
        E 16 b0 0b 5d
        E 16 b0 0b 4c
        E 16 b0 0b 44
        E 16 b0 0b 33
        E 16 b0 0b 2a
        E 32 b0 0b 33
        E 16 b0 0b 44
        E 16 b0 0b 3b
        E 16 b0 0b 2a
        E 16 b0 0b 22
        E 16 b0 0b 33
        E 16 b0 0b 3b
        E 32 b0 0b 33
        E 16 b0 0b 22
        E 16 b0 0b 2a
        E 16 b0 0b 3b
        E 16 b0 0b 44
        E 16 b0 0b 55
        E 16 b0 0b 5d
        E 48 b0 0b 66
        E 0 80 46 00
        E 0 90 45 66
        E 16 b0 0b 5d
        E 16 b0 0b 4c
        E 16 b0 0b 44
        E 16 b0 0b 33
        E 16 b0 0b 2a
        E 32 b0 0b 33
        E 16 b0 0b 44
        E 16 b0 0b 3b
        E 16 b0 0b 2a
        E 16 b0 0b 22
        E 16 b0 0b 33
        E 16 b0 0b 3b
        E 32 b0 0b 33
        E 16 b0 0b 22
        E 16 b0 0b 2a
        E 16 b0 0b 3b
        E 16 b0 0b 44
        E 16 b0 0b 55
        E 16 b0 0b 5d
        E 48 b0 0b 66
        E 0 80 45 00
        E 0 90 44 66
        E 16 b0 0b 5d
        E 16 b0 0b 4c
        E 16 b0 0b 44
        E 16 b0 0b 33
        E 16 b0 0b 2a
        E 32 b0 0b 33
        E 16 b0 0b 44
        E 16 b0 0b 3b
        E 16 b0 0b 2a
        E 16 b0 0b 22
        E 16 b0 0b 33
        E 16 b0 0b 3b
        E 32 b0 0b 33
        E 16 b0 0b 22
        E 16 b0 0b 2a
        E 16 b0 0b 3b
        E 16 b0 0b 44
        E 16 b0 0b 55
        E 16 b0 0b 5d
        E 48 b0 0b 66
        E 0 80 44 00
        E 0 90 43 66
        E 16 b0 0b 5d
        E 16 b0 0b 4c
        E 16 b0 0b 44
        E 16 b0 0b 33
        E 16 b0 0b 2a
        E 16 b0 0b 66
        E 0 80 43 00
        E 0 90 44 66
        E 16 b0 0b 5d
        E 16 b0 0b 4c
        E 16 b0 0b 44
        E 16 b0 0b 33
        E 16 b0 0b 2a
        E 16 b0 0b 66
        E 0 80 44 00
        E 0 90 43 66
        E 16 b0 0b 5d
        E 16 b0 0b 4c
        E 16 b0 0b 44
        E 16 b0 0b 33
        E 16 b0 0b 2a
        E 32 b0 0b 33
        E 16 b0 0b 44
        E 16 b0 0b 3b
        E 16 b0 0b 2a
        E 16 b0 0b 22
        E 16 b0 0b 33
        E 16 b0 0b 3b
        E 32 b0 0b 33
        E 16 b0 0b 22
        E 16 b0 0b 2a
        E 16 b0 0b 3b
        E 16 b0 0b 44
        E 16 b0 0b 55
        E 16 b0 0b 5d
        E 1392 b0 0b 66
        E 0 80 43 00
        E 0 90 46 66
        E 16 b0 0b 5d
        E 16 b0 0b 4c
        E 16 b0 0b 44
        E 16 b0 0b 33
        E 16 b0 0b 2a
        E 32 b0 0b 33
        E 16 b0 0b 44
        E 16 b0 0b 3b
        E 16 b0 0b 2a
        E 16 b0 0b 22
        E 16 b0 0b 33
        E 16 b0 0b 3b
        E 32 b0 0b 33
        E 16 b0 0b 22
        E 16 b0 0b 2a
        E 16 b0 0b 3b
        E 16 b0 0b 44
        E 16 b0 0b 55
        E 16 b0 0b 5d
        E 48 b0 0b 66
        E 0 80 46 00
        E 0 90 45 66
        E 16 b0 0b 5d
        E 16 b0 0b 4c
        E 16 b0 0b 44
        E 16 b0 0b 33
        E 16 b0 0b 2a
        E 32 b0 0b 33
        E 16 b0 0b 44
        E 16 b0 0b 3b
        E 16 b0 0b 2a
        E 16 b0 0b 22
        E 16 b0 0b 33
        E 16 b0 0b 3b
        E 32 b0 0b 33
        E 16 b0 0b 22
        E 16 b0 0b 2a
        E 16 b0 0b 3b
        E 16 b0 0b 44
        E 16 b0 0b 55
        E 16 b0 0b 5d
        E 48 b0 0b 66
        E 0 80 45 00
        E 0 90 44 66
        E 16 b0 0b 5d
        E 16 b0 0b 4c
        E 16 b0 0b 44
        E 16 b0 0b 33
        E 16 b0 0b 2a
        E 32 b0 0b 33
        E 16 b0 0b 44
        E 16 b0 0b 3b
        E 16 b0 0b 2a
        E 16 b0 0b 22
        E 16 b0 0b 33
        E 16 b0 0b 3b
        E 32 b0 0b 33
        E 16 b0 0b 22
        E 16 b0 0b 2a
        E 16 b0 0b 3b
        E 16 b0 0b 44
        E 16 b0 0b 55
        E 16 b0 0b 5d
        E 48 b0 0b 66
        E 0 80 44 00
        E 0 90 48 66
        E 16 b0 0b 5d
        E 16 b0 0b 4c
        E 16 b0 0b 44
        E 16 b0 0b 33
        E 16 b0 0b 2a
        E 16 b0 0b 66
        E 0 80 48 00
        E 0 90 49 66
        E 16 b0 0b 5d
        E 16 b0 0b 4c
        E 16 b0 0b 44
        E 16 b0 0b 33
        E 16 b0 0b 2a
        E 16 b0 0b 66
        E 0 80 49 00
        E 0 90 48 66
        E 16 b0 0b 5d
        E 16 b0 0b 4c
        E 16 b0 0b 44
        E 16 b0 0b 33
        E 16 b0 0b 2a
        E 32 b0 0b 33
        E 16 b0 0b 44
        E 16 b0 0b 3b
        E 16 b0 0b 2a
        E 16 b0 0b 22
        E 16 b0 0b 33
        E 16 b0 0b 3b
        E 32 b0 0b 33
        E 16 b0 0b 22
        E 16 b0 0b 2a
        E 16 b0 0b 3b
        E 16 b0 0b 44
        E 16 b0 0b 55
        E 16 b0 0b 5d
        E 1392 b0 0b 66
        E 0 80 48 00
        E 0 90 4b 66
        E 16 b0 0b 5d
        E 16 b0 0b 4c
        E 16 b0 0b 44
        E 16 b0 0b 33
        E 16 b0 0b 2a
        E 32 b0 0b 33
        E 16 b0 0b 44
        E 16 b0 0b 3b
        E 16 b0 0b 2a
        E 16 b0 0b 22
        E 16 b0 0b 33
        E 16 b0 0b 3b
        E 32 b0 0b 33
        E 16 b0 0b 22
        E 16 b0 0b 2a
        E 16 b0 0b 3b
        E 16 b0 0b 44
        E 16 b0 0b 55
        E 16 b0 0b 5d
        E 48 b0 0b 66
        E 0 80 4b 00
        E 0 90 4a 66
        E 16 b0 0b 5d
        E 16 b0 0b 4c
        E 16 b0 0b 44
        E 16 b0 0b 33
        E 16 b0 0b 2a
        E 32 b0 0b 33
        E 16 b0 0b 44
        E 16 b0 0b 3b
        E 16 b0 0b 2a
        E 16 b0 0b 22
        E 16 b0 0b 33
        E 16 b0 0b 3b
        E 32 b0 0b 33
        E 16 b0 0b 22
        E 16 b0 0b 2a
        E 16 b0 0b 3b
        E 16 b0 0b 44
        E 16 b0 0b 55
        E 16 b0 0b 5d
        E 48 b0 0b 66
        E 0 80 4a 00
        E 0 90 49 66
        E 16 b0 0b 5d
        E 16 b0 0b 4c
        E 16 b0 0b 44
        E 16 b0 0b 33
        E 16 b0 0b 2a
        E 32 b0 0b 33
        E 16 b0 0b 44
        E 16 b0 0b 3b
        E 16 b0 0b 2a
        E 16 b0 0b 22
        E 16 b0 0b 33
        E 16 b0 0b 3b
        E 32 b0 0b 33
        E 16 b0 0b 22
        E 16 b0 0b 2a
        E 16 b0 0b 3b
        E 16 b0 0b 44
        E 16 b0 0b 55
        E 16 b0 0b 5d
        E 48 b0 0b 66
        E 0 80 49 00
        E 0 90 48 66
        E 16 b0 0b 5d
        E 16 b0 0b 4c
        E 16 b0 0b 44
        E 16 b0 0b 33
        E 16 b0 0b 2a
        E 16 b0 0b 66
        E 0 80 48 00
        E 0 90 49 66
        E 16 b0 0b 5d
        E 16 b0 0b 4c
        E 16 b0 0b 44
        E 16 b0 0b 33
        E 16 b0 0b 2a
        E 16 b0 0b 66
        E 0 80 49 00
        E 0 90 48 66
        E 16 b0 0b 5d
        E 16 b0 0b 4c
        E 16 b0 0b 44
        E 16 b0 0b 33
        E 16 b0 0b 2a
        E 32 b0 0b 33
        E 16 b0 0b 44
        E 16 b0 0b 3b
        E 16 b0 0b 2a
        E 16 b0 0b 22
        E 16 b0 0b 33
        E 16 b0 0b 3b
        E 32 b0 0b 33
        E 16 b0 0b 22
        E 16 b0 0b 2a
        E 16 b0 0b 3b
        E 16 b0 0b 44
        E 16 b0 0b 55
        E 16 b0 0b 5d
        E 1392 b0 0b 66
        E 0 80 48 00
        E 0 90 4b 66
        E 16 b0 0b 5d
        E 16 b0 0b 4c
        E 16 b0 0b 44
        E 16 b0 0b 33
        E 16 b0 0b 2a
        E 32 b0 0b 33
        E 16 b0 0b 44
        E 16 b0 0b 3b
        E 16 b0 0b 2a
        E 16 b0 0b 22
        E 16 b0 0b 33
        E 16 b0 0b 3b
        E 32 b0 0b 33
        E 16 b0 0b 22
        E 16 b0 0b 2a
        E 16 b0 0b 3b
        E 16 b0 0b 44
        E 16 b0 0b 55
        E 16 b0 0b 5d
        E 48 b0 0b 66
        E 0 80 4b 00
        E 0 90 4a 66
        E 16 b0 0b 5d
        E 16 b0 0b 4c
        E 16 b0 0b 44
        E 16 b0 0b 33
        E 16 b0 0b 2a
        E 32 b0 0b 33
        E 16 b0 0b 44
        E 16 b0 0b 3b
        E 16 b0 0b 2a
        E 16 b0 0b 22
        E 16 b0 0b 33
        E 16 b0 0b 3b
        E 32 b0 0b 33
        E 16 b0 0b 22
        E 16 b0 0b 2a
        E 16 b0 0b 3b
        E 16 b0 0b 44
        E 16 b0 0b 55
        E 16 b0 0b 5d
        E 48 b0 0b 66
        E 0 80 4a 00
        E 0 90 49 66
        E 16 b0 0b 5d
        E 16 b0 0b 4c
        E 16 b0 0b 44
        E 16 b0 0b 33
        E 16 b0 0b 2a
        E 32 b0 0b 33
        E 16 b0 0b 44
        E 16 b0 0b 3b
        E 16 b0 0b 2a
        E 16 b0 0b 22
        E 16 b0 0b 33
        E 16 b0 0b 3b
        E 32 b0 0b 33
        E 16 b0 0b 22
        E 16 b0 0b 2a
        E 16 b0 0b 3b
        E 16 b0 0b 44
        E 16 b0 0b 55
        E 16 b0 0b 5d
        E 48 b0 0b 66
        E 0 80 49 00
        E 0 90 36 66
        E 48 b0 0b 5d
        E 48 b0 0b 66
        E 0 80 36 00
        E 0 90 37 66
        E 48 b0 0b 5d
        E 48 b0 0b 66
        E 0 80 37 00
        E 0 90 38 66
        E 48 b0 0b 5d
        E 48 b0 0b 66
        E 0 80 38 00
        E 0 90 37 66
        E 48 b0 0b 5d
        E 48 b0 0b 66
        E 0 80 37 00
        E 0 90 36 66
        E 48 b0 0b 5d
        E 48 b0 0b 66
        E 0 80 36 00
        E 0 90 37 66
        E 48 b0 0b 5d
        E 48 b0 0b 66
        E 0 80 37 00
        E 0 90 38 66
        E 48 b0 0b 5d
        E 48 b0 0b 66
        E 0 80 38 00
        E 0 90 3a 66
        E 48 b0 0b 5d
        E 48 b0 0b 66
        E 0 80 3a 00
        E 0 90 38 66
        E 48 b0 0b 5d
        E 48 b0 0b 66
        E 0 80 38 00
        E 0 90 37 66
        E 48 b0 0b 5d
        E 48 b0 0b 66
        E 0 80 37 00
        E 0 90 33 66
        E 48 b0 0b 5d
        E 48 b0 0b 66
        E 0 80 33 00
        E 0 90 30 66
        E 48 b0 0b 5d
        E 48 b0 0b 66
        E 0 80 30 00
        E 0 90 36 66
        E 48 b0 0b 5d
        E 48 b0 0b 66
        E 0 80 36 00
        E 0 90 37 66
        E 48 b0 0b 5d
        E 48 b0 0b 66
        E 0 80 37 00
        E 0 90 38 66
        E 48 b0 0b 5d
        E 48 b0 0b 66
        E 0 80 38 00
        E 0 90 37 66
        E 48 b0 0b 5d
        E 48 b0 0b 66
        E 0 80 37 00
        E 0 90 36 66
        E 48 b0 0b 5d
        E 48 b0 0b 66
        E 0 80 36 00
        E 0 90 37 66
        E 48 b0 0b 5d
        E 48 b0 0b 66
        E 0 80 37 00
        E 0 90 38 66
        E 48 b0 0b 5d
        E 48 b0 0b 66
        E 0 80 38 00
        E 0 90 3a 66
        E 48 b0 0b 5d
        E 48 b0 0b 66
        E 0 80 3a 00
        E 0 90 38 66
        E 48 b0 0b 5d
        E 48 b0 0b 66
        E 0 80 38 00
        E 0 90 37 66
        E 48 b0 0b 5d
        E 48 b0 0b 66
        E 0 80 37 00
        E 0 90 33 66
        E 48 b0 0b 5d
        E 48 b0 0b 66
        E 0 80 33 00
        E 0 90 30 66
        E 48 b0 0b 5d
        E 48 b0 0b 66
        E 0 80 30 00
        E 0 90 33 66
        E 48 b0 0b 5d
        E 48 b0 0b 66
        E 0 80 33 00
        E 0 90 34 66
        E 48 b0 0b 5d
        E 48 b0 0b 66
        E 0 80 34 00
        E 0 90 37 66
        E 48 b0 0b 5d
        E 48 b0 0b 66
        E 0 80 37 00
        E 0 90 3a 66
        E 48 b0 0b 5d
        E 48 b0 0b 66
        E 0 80 3a 00
        E 0 90 3b 66
        E 48 b0 0b 5d
        E 48 b0 0b 66
        E 0 80 3b 00
        E 0 90 3c 66
        E 48 b0 0b 5d
        E 48 b0 0b 66
        E 0 80 3c 00
        E 0 90 3d 66
        E 48 b0 0b 5d
        E 48 b0 0b 66
        E 0 80 3d 00
        E 0 90 3c 66
        E 48 b0 0b 5d
        E 48 b0 0b 66
        E 0 80 3c 00
        E 0 90 3b 66
        E 48 b0 0b 5d
        E 48 b0 0b 66
        E 0 80 3b 00
        E 0 90 3c 66
        E 48 b0 0b 5d
        E 48 b0 0b 66
        E 0 80 3c 00
        E 0 90 3d 66
        E 48 b0 0b 5d
        E 48 b0 0b 66
        E 0 80 3d 00
        E 0 90 3f 66
        E 48 b0 0b 5d
        E 48 b0 0b 66
        E 0 80 3f 00
        E 0 90 3d 66
        E 48 b0 0b 5d
        E 48 b0 0b 66
        E 0 80 3d 00
        E 0 90 3c 66
        E 48 b0 0b 5d
        E 48 b0 0b 66
        E 0 80 3c 00
        E 0 90 38 66
        E 48 b0 0b 5d
        E 48 b0 0b 66
        E 0 80 38 00
        E 0 90 35 66
        E 48 b0 0b 5d
        E 48 b0 0b 66
        E 0 80 35 00
        E 0 90 3b 66
        E 48 b0 0b 5d
        E 48 b0 0b 66
        E 0 80 3b 00
        E 0 90 3c 66
        E 48 b0 0b 5d
        E 48 b0 0b 66
        E 0 80 3c 00
        E 0 90 3d 66
        E 48 b0 0b 5d
        E 48 b0 0b 66
        E 0 80 3d 00
        E 0 90 3c 66
        E 48 b0 0b 5d
        E 48 b0 0b 66
        E 0 80 3c 00
        E 0 90 3b 66
        E 48 b0 0b 5d
        E 48 b0 0b 66
        E 0 80 3b 00
        E 0 90 3c 66
        E 48 b0 0b 5d
        E 48 b0 0b 66
        E 0 80 3c 00
        E 0 90 3d 66
        E 48 b0 0b 5d
        E 48 b0 0b 66
        E 0 80 3d 00
        E 0 90 3f 66
        E 48 b0 0b 5d
        E 48 b0 0b 66
        E 0 80 3f 00
        E 0 90 3d 66
        E 48 b0 0b 5d
        E 48 b0 0b 66
        E 0 80 3d 00
        E 0 90 3c 66
        E 48 b0 0b 5d
        E 48 b0 0b 66
        E 0 80 3c 00
        E 0 90 38 66
        E 48 b0 0b 5d
        E 48 b0 0b 66
        E 0 80 38 00
        E 0 90 35 66
        E 48 b0 0b 5d
        E 48 b0 0b 66
        E 0 80 35 00
        E 0 90 3c 66
        E 48 b0 0b 5d
        E 48 b0 0b 66
        E 0 80 3c 00
        E 0 90 3a 66
        E 48 b0 0b 5d
        E 48 b0 0b 66
        E 0 80 3a 00
        E 0 90 38 66
        E 48 b0 0b 5d
        E 48 b0 0b 66
        E 0 80 38 00
        E 0 90 35 66
        E 48 b0 0b 5d
        E 48 b0 0b 66
        E 0 80 35 00
        E 0 90 36 66
        E 48 b0 0b 5d
        E 48 b0 0b 66
        E 0 80 36 00
        E 0 90 37 66
        E 48 b0 0b 5d
        E 48 b0 0b 66
        E 0 80 37 00
        E 0 90 38 66
        E 48 b0 0b 5d
        E 48 b0 0b 66
        E 0 80 38 00
        E 0 90 37 66
        E 48 b0 0b 5d
        E 48 b0 0b 66
        E 0 80 37 00
        E 0 90 36 66
        E 48 b0 0b 5d
        E 48 b0 0b 66
        E 0 80 36 00
        E 0 90 37 66
        E 48 b0 0b 5d
        E 48 b0 0b 66
        E 0 80 37 00
        E 0 90 38 66
        E 48 b0 0b 5d
        E 48 b0 0b 66
        E 0 80 38 00
        E 0 90 3a 66
        E 48 b0 0b 5d
        E 48 b0 0b 66
        E 0 80 3a 00
        E 0 90 38 66
        E 48 b0 0b 5d
        E 48 b0 0b 66
        E 0 80 38 00
        E 0 90 37 66
        E 48 b0 0b 5d
        E 48 b0 0b 66
        E 0 80 37 00
        E 0 90 33 66
        E 48 b0 0b 5d
        E 48 b0 0b 66
        E 0 80 33 00
        E 0 90 30 66
        E 48 b0 0b 5d
        E 48 b0 0b 66
        E 0 80 30 00
        E 0 90 36 66
        E 48 b0 0b 5d
        E 48 b0 0b 66
        E 0 80 36 00
        E 0 90 37 66
        E 48 b0 0b 5d
        E 48 b0 0b 66
        E 0 80 37 00
        E 0 90 38 66
        E 48 b0 0b 5d
        E 48 b0 0b 66
        E 0 80 38 00
        E 0 90 37 66
        E 48 b0 0b 5d
        E 48 b0 0b 66
        E 0 80 37 00
        E 0 90 36 66
        E 48 b0 0b 5d
        E 48 b0 0b 66
        E 0 80 36 00
        E 0 90 37 66
        E 48 b0 0b 5d
        E 48 b0 0b 66
        E 0 80 37 00
        E 0 90 38 66
        E 48 b0 0b 5d
        E 48 b0 0b 66
        E 0 80 38 00
        E 0 90 3a 66
        E 48 b0 0b 5d
        E 48 b0 0b 66
        E 0 80 3a 00
        E 0 90 38 66
        E 48 b0 0b 5d
        E 48 b0 0b 66
        E 0 80 38 00
        E 0 90 37 66
        E 48 b0 0b 5d
        E 48 b0 0b 66
        E 0 80 37 00
        E 0 90 33 66
        E 48 b0 0b 5d
        E 16 80 33 00
        E 0 b0 7b 00
        E 0 ff 2f 00
      >
    >
  >
  <TRACK {EDF99AF7-9464-467F-8316-DA814125C45D}
    NAME "NES - Pulse 2 [ch1]"
    PEAKCOL 10092441
    BEAT -1
    AUTOMODE 0
    PANLAWFLAGS 3
    VOLPAN 1 0 -1 -1 1
    MUTESOLO 0 0 0
    IPHASE 0
    PLAYOFFS 0 1
    ISBUS 0 0
    BUSCOMP 0 0 0 0 0
    SHOWINMIX 1 0.6667 0.5 1 0.5 0 0 0
    FIXEDLANES 9 0 0 0 0
    SEL 0
    REC 0 5088 1 0 0 0 0 0
    VU 2
    TRACKHEIGHT 0 0 0 0 0 0 0
    INQ 0 0 0 0.5 100 0 0 100
    NCHAN 2
    FX 1
    TRACKID {EDF99AF7-9464-467F-8316-DA814125C45D}
    PERF 0
    MIDIOUT -1
    MAINSEND 1 0
    <FXCHAIN
      WNDRECT 24 52 700 560
      SHOW 0
      LASTSEL 0
      DOCKED 0
      BYPASS 0 0 0
      <JS "ReapNES Studio/ReapNES_Console.jsfx" ""
        2 15 1 10 80 10 100 2 1 15 1 5 60 10 80 1 1 0 50 0 0 15 1 0 100 0 0 0.500000 0.500000 0.400000 0.300000 0.800000 1 1 0 0 0 0 - - - - - - - - - - - - - - - - - - - - - - - - - -
      >
      FLOATPOS 0 0 0 0
      FXID {C4808996-9146-4311-AE4A-C6C7602FDD55}
      WAK 0 0
    >
    <ITEM
      POSITION 0
      LENGTH 74.5878716
      LOOP 0
      ALLTAKES 0
      FADEIN 0 0 0 0 0 0 0
      FADEOUT 0 0 0 0 0 0 0
      MUTE 0 0
      SEL 0
      IGUID {059F5D64-531E-4F35-A0B3-E55813069EF5}
      <SOURCE MIDI
        HASDATA 1 480 QN
        CCINTERP 32
        E 0 c1 51
        E 64 b1 0c 10
        E 0 b1 0b 3b
        E 0 91 2b 3b
        E 16 b1 0b 66
        E 16 b1 0b 5d
        E 16 b1 0b 55
        E 32 b1 0b 4c
        E 16 b1 0b 44
        E 32 b1 0b 3b
        E 16 b1 0b 33
        E 16 b1 0b 2a
        E 16 b1 0b 22
        E 32 b1 0b 19
        E 16 b1 0b 11
        E 16 b1 0b 08
        E 16 81 2b 00
        E 320 b1 0b 66
        E 0 91 2b 66
        E 32 b1 0b 5d
        E 16 b1 0b 55
        E 32 b1 0b 4c
        E 16 b1 0b 44
        E 32 b1 0b 3b
        E 16 b1 0b 33
        E 16 b1 0b 2a
        E 16 b1 0b 22
        E 32 b1 0b 19
        E 16 b1 0b 11
        E 16 b1 0b 08
        E 16 81 2b 00
        E 704 b1 0b 66
        E 0 91 2b 66
        E 32 b1 0b 5d
        E 16 b1 0b 55
        E 32 b1 0b 4c
        E 16 b1 0b 44
        E 32 b1 0b 3b
        E 16 b1 0b 33
        E 16 b1 0b 2a
        E 16 b1 0b 22
        E 32 b1 0b 19
        E 16 b1 0b 11
        E 16 b1 0b 08
        E 16 81 2b 00
        E 128 b1 0b 66
        E 0 91 2b 66
        E 32 b1 0b 5d
        E 16 b1 0b 55
        E 32 b1 0b 4c
        E 16 b1 0b 44
        E 32 b1 0b 3b
        E 16 b1 0b 33
        E 16 b1 0b 2a
        E 16 b1 0b 22
        E 32 b1 0b 19
        E 16 b1 0b 11
        E 16 b1 0b 08
        E 16 81 2b 00
        E 128 b1 0b 66
        E 0 91 2b 66
        E 32 b1 0b 5d
        E 16 b1 0b 55
        E 32 b1 0b 4c
        E 16 b1 0b 44
        E 32 b1 0b 3b
        E 16 b1 0b 33
        E 16 b1 0b 2a
        E 16 b1 0b 22
        E 32 b1 0b 19
        E 16 b1 0b 11
        E 16 b1 0b 08
        E 16 81 2b 00
        E 128 b1 0b 66
        E 0 91 30 66
        E 32 b1 0b 5d
        E 16 b1 0b 55
        E 32 b1 0b 4c
        E 16 b1 0b 44
        E 32 b1 0b 3b
        E 16 b1 0b 33
        E 16 b1 0b 2a
        E 16 b1 0b 22
        E 32 b1 0b 19
        E 16 b1 0b 11
        E 16 b1 0b 08
        E 16 81 30 00
        E 320 b1 0b 66
        E 0 91 30 66
        E 32 b1 0b 5d
        E 16 b1 0b 55
        E 32 b1 0b 4c
        E 16 b1 0b 44
        E 32 b1 0b 3b
        E 16 b1 0b 33
        E 16 b1 0b 2a
        E 16 b1 0b 22
        E 32 b1 0b 19
        E 16 b1 0b 11
        E 16 b1 0b 08
        E 16 81 30 00
        E 320 b1 0b 66
        E 0 91 30 66
        E 32 b1 0b 5d
        E 16 b1 0b 55
        E 32 b1 0b 4c
        E 16 b1 0b 44
        E 32 b1 0b 3b
        E 16 b1 0b 33
        E 16 b1 0b 2a
        E 16 b1 0b 22
        E 32 b1 0b 19
        E 16 b1 0b 11
        E 16 b1 0b 08
        E 16 81 30 00
        E 320 b1 0b 66
        E 0 91 30 66
        E 32 b1 0b 5d
        E 16 b1 0b 55
        E 32 b1 0b 4c
        E 16 b1 0b 44
        E 32 b1 0b 3b
        E 16 b1 0b 33
        E 16 b1 0b 2a
        E 16 b1 0b 22
        E 32 b1 0b 19
        E 16 b1 0b 11
        E 16 b1 0b 08
        E 16 81 30 00
        E 320 b1 0b 66
        E 0 91 30 66
        E 32 b1 0b 5d
        E 16 b1 0b 55
        E 32 b1 0b 4c
        E 16 b1 0b 44
        E 32 b1 0b 3b
        E 16 b1 0b 33
        E 16 b1 0b 2a
        E 16 b1 0b 22
        E 32 b1 0b 19
        E 16 b1 0b 11
        E 16 b1 0b 08
        E 16 81 30 00
        E 128 b1 0b 66
        E 0 91 2b 66
        E 32 b1 0b 5d
        E 16 b1 0b 55
        E 32 b1 0b 4c
        E 16 b1 0b 44
        E 32 b1 0b 3b
        E 16 b1 0b 33
        E 16 b1 0b 2a
        E 16 b1 0b 22
        E 32 b1 0b 19
        E 16 b1 0b 11
        E 16 b1 0b 08
        E 16 81 2b 00
        E 320 b1 0b 66
        E 0 91 2b 66
        E 32 b1 0b 5d
        E 16 b1 0b 55
        E 32 b1 0b 4c
        E 16 b1 0b 44
        E 32 b1 0b 3b
        E 16 b1 0b 33
        E 16 b1 0b 2a
        E 16 b1 0b 22
        E 32 b1 0b 19
        E 16 b1 0b 11
        E 16 b1 0b 08
        E 16 81 2b 00
        E 704 b1 0b 66
        E 0 91 2b 66
        E 32 b1 0b 5d
        E 16 b1 0b 55
        E 32 b1 0b 4c
        E 16 b1 0b 44
        E 32 b1 0b 3b
        E 16 b1 0b 33
        E 16 b1 0b 2a
        E 16 b1 0b 22
        E 32 b1 0b 19
        E 16 b1 0b 11
        E 16 b1 0b 08
        E 16 81 2b 00
        E 128 b1 0b 66
        E 0 91 2b 66
        E 32 b1 0b 5d
        E 16 b1 0b 55
        E 32 b1 0b 4c
        E 16 b1 0b 44
        E 32 b1 0b 3b
        E 16 b1 0b 33
        E 16 b1 0b 2a
        E 16 b1 0b 22
        E 32 b1 0b 19
        E 16 b1 0b 11
        E 16 b1 0b 08
        E 16 81 2b 00
        E 128 b1 0b 66
        E 0 91 2b 66
        E 32 b1 0b 5d
        E 16 b1 0b 55
        E 32 b1 0b 4c
        E 16 b1 0b 44
        E 32 b1 0b 3b
        E 16 b1 0b 33
        E 16 b1 0b 2a
        E 16 b1 0b 22
        E 32 b1 0b 19
        E 16 b1 0b 11
        E 16 b1 0b 08
        E 16 81 2b 00
        E 128 b1 0b 66
        E 0 91 30 66
        E 32 b1 0b 5d
        E 16 b1 0b 55
        E 32 b1 0b 4c
        E 16 b1 0b 44
        E 32 b1 0b 3b
        E 16 b1 0b 33
        E 16 b1 0b 2a
        E 16 b1 0b 22
        E 32 b1 0b 19
        E 16 b1 0b 11
        E 16 b1 0b 08
        E 16 81 30 00
        E 320 b1 0b 66
        E 0 91 30 66
        E 32 b1 0b 5d
        E 16 b1 0b 55
        E 32 b1 0b 4c
        E 16 b1 0b 44
        E 32 b1 0b 3b
        E 16 b1 0b 33
        E 16 b1 0b 2a
        E 16 b1 0b 22
        E 32 b1 0b 19
        E 16 b1 0b 11
        E 16 b1 0b 08
        E 16 81 30 00
        E 320 b1 0b 66
        E 0 91 30 66
        E 32 b1 0b 5d
        E 16 b1 0b 55
        E 32 b1 0b 4c
        E 16 b1 0b 44
        E 32 b1 0b 3b
        E 16 b1 0b 33
        E 16 b1 0b 2a
        E 16 b1 0b 22
        E 32 b1 0b 19
        E 16 b1 0b 11
        E 16 b1 0b 08
        E 16 81 30 00
        E 320 b1 0b 66
        E 0 91 30 66
        E 32 b1 0b 5d
        E 16 b1 0b 55
        E 32 b1 0b 4c
        E 16 b1 0b 44
        E 32 b1 0b 3b
        E 16 b1 0b 33
        E 16 b1 0b 2a
        E 16 b1 0b 22
        E 32 b1 0b 19
        E 16 b1 0b 11
        E 16 b1 0b 08
        E 16 81 30 00
        E 320 b1 0b 66
        E 0 91 30 66
        E 32 b1 0b 5d
        E 16 b1 0b 55
        E 32 b1 0b 4c
        E 16 b1 0b 44
        E 32 b1 0b 3b
        E 16 b1 0b 33
        E 16 b1 0b 2a
        E 16 b1 0b 22
        E 32 b1 0b 19
        E 16 b1 0b 11
        E 16 b1 0b 08
        E 16 81 30 00
        E 128 b1 0b 22
        E 0 91 32 22
        E 32 b1 0b 2a
        E 32 b1 0b 33
        E 32 b1 0b 3b
        E 32 b1 0b 44
        E 32 b1 0b 4c
        E 32 b1 0b 55
        E 32 b1 0b 5d
        E 32 b1 0b 66
        E 16 b1 0b 5d
        E 16 b1 0b 55
        E 32 b1 0b 4c
        E 32 b1 0b 44
        E 32 b1 0b 22
        E 0 81 32 00
        E 0 91 30 22
        E 32 b1 0b 2a
        E 32 b1 0b 33
        E 32 b1 0b 3b
        E 32 b1 0b 44
        E 32 b1 0b 4c
        E 32 b1 0b 22
        E 0 81 30 00
        E 0 91 35 22
        E 32 b1 0b 2a
        E 32 b1 0b 33
        E 32 b1 0b 3b
        E 32 b1 0b 44
        E 32 b1 0b 4c
        E 32 b1 0b 55
        E 32 b1 0b 5d
        E 32 b1 0b 66
        E 16 b1 0b 5d
        E 16 b1 0b 55
        E 32 b1 0b 4c
        E 32 b1 0b 44
        E 32 b1 0b 22
        E 0 81 35 00
        E 0 91 32 22
        E 32 b1 0b 2a
        E 32 b1 0b 33
        E 32 b1 0b 3b
        E 32 b1 0b 44
        E 32 b1 0b 4c
        E 32 b1 0b 22
        E 0 81 32 00
        E 0 91 37 22
        E 32 b1 0b 2a
        E 32 b1 0b 33
        E 32 b1 0b 3b
        E 32 b1 0b 44
        E 32 b1 0b 4c
        E 32 b1 0b 55
        E 32 b1 0b 5d
        E 32 b1 0b 66
        E 16 b1 0b 5d
        E 16 b1 0b 55
        E 32 b1 0b 4c
        E 32 b1 0b 44
        E 32 b1 0b 3b
        E 32 b1 0b 33
        E 32 b1 0b 2a
        E 32 b1 0b 22
        E 288 81 37 00
        E 0 91 35 22
        E 32 b1 0b 2a
        E 32 b1 0b 33
        E 32 b1 0b 3b
        E 32 b1 0b 44
        E 32 b1 0b 4c
        E 32 b1 0b 22
        E 32 b1 0b 2a
        E 32 b1 0b 33
        E 32 b1 0b 3b
        E 32 b1 0b 44
        E 32 b1 0b 4c
        E 32 b1 0b 22
        E 0 81 35 00
        E 0 91 34 22
        E 32 b1 0b 2a
        E 32 b1 0b 33
        E 32 b1 0b 3b
        E 32 b1 0b 44
        E 32 b1 0b 4c
        E 32 b1 0b 22
        E 32 b1 0b 2a
        E 32 b1 0b 33
        E 32 b1 0b 3b
        E 32 b1 0b 44
        E 32 b1 0b 4c
        E 32 b1 0b 22
        E 0 81 34 00
        E 0 91 33 22
        E 32 b1 0b 2a
        E 32 b1 0b 33
        E 32 b1 0b 3b
        E 32 b1 0b 44
        E 32 b1 0b 4c
        E 32 b1 0b 22
        E 32 b1 0b 2a
        E 32 b1 0b 33
        E 32 b1 0b 3b
        E 32 b1 0b 44
        E 32 b1 0b 4c
        E 32 b1 0b 22
        E 0 81 33 00
        E 0 91 32 22
        E 32 b1 0b 2a
        E 32 b1 0b 33
        E 32 b1 0b 3b
        E 32 b1 0b 44
        E 32 b1 0b 4c
        E 32 b1 0b 55
        E 32 b1 0b 5d
        E 32 b1 0b 66
        E 16 b1 0b 5d
        E 16 b1 0b 55
        E 32 b1 0b 4c
        E 32 b1 0b 44
        E 32 b1 0b 22
        E 0 81 32 00
        E 0 91 30 22
        E 32 b1 0b 2a
        E 32 b1 0b 33
        E 32 b1 0b 3b
        E 32 b1 0b 44
        E 32 b1 0b 4c
        E 32 b1 0b 22
        E 0 81 30 00
        E 0 91 35 22
        E 32 b1 0b 2a
        E 32 b1 0b 33
        E 32 b1 0b 3b
        E 32 b1 0b 44
        E 32 b1 0b 4c
        E 32 b1 0b 55
        E 32 b1 0b 5d
        E 32 b1 0b 66
        E 16 b1 0b 5d
        E 16 b1 0b 55
        E 32 b1 0b 4c
        E 32 b1 0b 44
        E 32 b1 0b 22
        E 0 81 35 00
        E 0 91 32 22
        E 32 b1 0b 2a
        E 32 b1 0b 33
        E 32 b1 0b 3b
        E 32 b1 0b 44
        E 32 b1 0b 4c
        E 32 b1 0b 22
        E 0 81 32 00
        E 0 91 37 22
        E 32 b1 0b 2a
        E 32 b1 0b 33
        E 32 b1 0b 3b
        E 32 b1 0b 44
        E 32 b1 0b 4c
        E 32 b1 0b 55
        E 32 b1 0b 5d
        E 32 b1 0b 66
        E 16 b1 0b 5d
        E 16 b1 0b 55
        E 32 b1 0b 4c
        E 32 b1 0b 44
        E 32 b1 0b 3b
        E 32 b1 0b 33
        E 32 b1 0b 2a
        E 32 b1 0b 22
        E 288 81 37 00
        E 0 91 35 22
        E 32 b1 0b 2a
        E 32 b1 0b 33
        E 32 b1 0b 3b
        E 32 b1 0b 44
        E 32 b1 0b 4c
        E 32 b1 0b 22
        E 32 b1 0b 2a
        E 32 b1 0b 33
        E 32 b1 0b 3b
        E 32 b1 0b 44
        E 32 b1 0b 4c
        E 32 b1 0b 22
        E 0 81 35 00
        E 0 91 34 22
        E 32 b1 0b 2a
        E 32 b1 0b 33
        E 32 b1 0b 3b
        E 32 b1 0b 44
        E 32 b1 0b 4c
        E 32 b1 0b 22
        E 32 b1 0b 2a
        E 32 b1 0b 33
        E 32 b1 0b 3b
        E 32 b1 0b 44
        E 32 b1 0b 4c
        E 32 b1 0b 22
        E 0 81 34 00
        E 0 91 33 22
        E 32 b1 0b 2a
        E 32 b1 0b 33
        E 32 b1 0b 3b
        E 32 b1 0b 44
        E 32 b1 0b 4c
        E 32 b1 0b 22
        E 32 b1 0b 2a
        E 32 b1 0b 33
        E 32 b1 0b 3b
        E 32 b1 0b 44
        E 32 b1 0b 4c
        E 32 b1 0b 22
        E 0 81 33 00
        E 0 91 37 22
        E 32 b1 0b 2a
        E 32 b1 0b 33
        E 32 b1 0b 3b
        E 32 b1 0b 44
        E 32 b1 0b 4c
        E 32 b1 0b 55
        E 32 b1 0b 5d
        E 32 b1 0b 66
        E 16 b1 0b 5d
        E 16 b1 0b 55
        E 32 b1 0b 4c
        E 32 b1 0b 44
        E 32 b1 0b 22
        E 0 81 37 00
        E 0 91 35 22
        E 32 b1 0b 2a
        E 32 b1 0b 33
        E 32 b1 0b 3b
        E 32 b1 0b 44
        E 32 b1 0b 4c
        E 32 b1 0b 22
        E 0 81 35 00
        E 0 91 3a 22
        E 32 b1 0b 2a
        E 32 b1 0b 33
        E 32 b1 0b 3b
        E 32 b1 0b 44
        E 32 b1 0b 4c
        E 32 b1 0b 55
        E 32 b1 0b 5d
        E 32 b1 0b 66
        E 16 b1 0b 5d
        E 16 b1 0b 55
        E 32 b1 0b 4c
        E 32 b1 0b 44
        E 32 b1 0b 22
        E 0 81 3a 00
        E 0 91 37 22
        E 32 b1 0b 2a
        E 32 b1 0b 33
        E 32 b1 0b 3b
        E 32 b1 0b 44
        E 32 b1 0b 4c
        E 32 b1 0b 22
        E 0 81 37 00
        E 0 91 3c 22
        E 32 b1 0b 2a
        E 32 b1 0b 33
        E 32 b1 0b 3b
        E 32 b1 0b 44
        E 32 b1 0b 4c
        E 32 b1 0b 55
        E 32 b1 0b 5d
        E 32 b1 0b 66
        E 16 b1 0b 5d
        E 16 b1 0b 55
        E 32 b1 0b 4c
        E 32 b1 0b 44
        E 32 b1 0b 3b
        E 32 b1 0b 33
        E 32 b1 0b 2a
        E 32 b1 0b 22
        E 288 81 3c 00
        E 0 91 3a 22
        E 32 b1 0b 2a
        E 32 b1 0b 33
        E 32 b1 0b 3b
        E 32 b1 0b 44
        E 32 b1 0b 4c
        E 32 b1 0b 22
        E 32 b1 0b 2a
        E 32 b1 0b 33
        E 32 b1 0b 3b
        E 32 b1 0b 44
        E 32 b1 0b 4c
        E 32 b1 0b 22
        E 0 81 3a 00
        E 0 91 39 22
        E 32 b1 0b 2a
        E 32 b1 0b 33
        E 32 b1 0b 3b
        E 32 b1 0b 44
        E 32 b1 0b 4c
        E 32 b1 0b 22
        E 32 b1 0b 2a
        E 32 b1 0b 33
        E 32 b1 0b 3b
        E 32 b1 0b 44
        E 32 b1 0b 4c
        E 32 b1 0b 22
        E 0 81 39 00
        E 0 91 38 22
        E 32 b1 0b 2a
        E 32 b1 0b 33
        E 32 b1 0b 3b
        E 32 b1 0b 44
        E 32 b1 0b 4c
        E 32 b1 0b 22
        E 32 b1 0b 2a
        E 32 b1 0b 33
        E 32 b1 0b 3b
        E 32 b1 0b 44
        E 32 b1 0b 4c
        E 32 b1 0b 22
        E 0 81 38 00
        E 0 91 37 22
        E 32 b1 0b 2a
        E 32 b1 0b 33
        E 32 b1 0b 3b
        E 32 b1 0b 44
        E 32 b1 0b 4c
        E 32 b1 0b 55
        E 32 b1 0b 5d
        E 32 b1 0b 66
        E 16 b1 0b 5d
        E 16 b1 0b 55
        E 32 b1 0b 4c
        E 32 b1 0b 44
        E 32 b1 0b 22
        E 0 81 37 00
        E 0 91 35 22
        E 32 b1 0b 2a
        E 32 b1 0b 33
        E 32 b1 0b 3b
        E 32 b1 0b 44
        E 32 b1 0b 4c
        E 32 b1 0b 22
        E 0 81 35 00
        E 0 91 3a 22
        E 32 b1 0b 2a
        E 32 b1 0b 33
        E 32 b1 0b 3b
        E 32 b1 0b 44
        E 32 b1 0b 4c
        E 32 b1 0b 55
        E 32 b1 0b 5d
        E 32 b1 0b 66
        E 16 b1 0b 5d
        E 16 b1 0b 55
        E 32 b1 0b 4c
        E 32 b1 0b 44
        E 32 b1 0b 22
        E 0 81 3a 00
        E 0 91 37 22
        E 32 b1 0b 2a
        E 32 b1 0b 33
        E 32 b1 0b 3b
        E 32 b1 0b 44
        E 32 b1 0b 4c
        E 32 b1 0b 22
        E 0 81 37 00
        E 0 91 3c 22
        E 32 b1 0b 2a
        E 32 b1 0b 33
        E 32 b1 0b 3b
        E 32 b1 0b 44
        E 32 b1 0b 4c
        E 32 b1 0b 55
        E 32 b1 0b 5d
        E 32 b1 0b 66
        E 16 b1 0b 5d
        E 16 b1 0b 55
        E 32 b1 0b 4c
        E 32 b1 0b 44
        E 32 b1 0b 3b
        E 32 b1 0b 33
        E 32 b1 0b 2a
        E 32 b1 0b 22
        E 288 81 3c 00
        E 0 91 3a 22
        E 32 b1 0b 2a
        E 32 b1 0b 33
        E 32 b1 0b 3b
        E 32 b1 0b 44
        E 32 b1 0b 4c
        E 32 b1 0b 22
        E 32 b1 0b 2a
        E 32 b1 0b 33
        E 32 b1 0b 3b
        E 32 b1 0b 44
        E 32 b1 0b 4c
        E 32 b1 0b 22
        E 0 81 3a 00
        E 0 91 39 22
        E 32 b1 0b 2a
        E 32 b1 0b 33
        E 32 b1 0b 3b
        E 32 b1 0b 44
        E 32 b1 0b 4c
        E 32 b1 0b 22
        E 32 b1 0b 2a
        E 32 b1 0b 33
        E 32 b1 0b 3b
        E 32 b1 0b 44
        E 32 b1 0b 4c
        E 32 b1 0b 22
        E 0 81 39 00
        E 0 91 38 22
        E 32 b1 0b 2a
        E 32 b1 0b 33
        E 32 b1 0b 3b
        E 32 b1 0b 44
        E 32 b1 0b 4c
        E 32 b1 0b 22
        E 32 b1 0b 2a
        E 32 b1 0b 33
        E 32 b1 0b 3b
        E 32 b1 0b 44
        E 32 b1 0b 4c
        E 32 b1 0b 66
        E 0 81 38 00
        E 0 91 2b 66
        E 32 b1 0b 5d
        E 16 b1 0b 55
        E 32 b1 0b 4c
        E 16 b1 0b 44
        E 32 b1 0b 3b
        E 16 b1 0b 33
        E 16 b1 0b 2a
        E 16 b1 0b 22
        E 32 b1 0b 19
        E 16 b1 0b 11
        E 16 b1 0b 08
        E 16 81 2b 00
        E 320 b1 0b 66
        E 0 91 2b 66
        E 32 b1 0b 5d
        E 16 b1 0b 55
        E 32 b1 0b 4c
        E 16 b1 0b 44
        E 32 b1 0b 3b
        E 16 b1 0b 33
        E 16 b1 0b 2a
        E 16 b1 0b 22
        E 32 b1 0b 19
        E 16 b1 0b 11
        E 16 b1 0b 08
        E 16 81 2b 00
        E 704 b1 0b 66
        E 0 91 2b 66
        E 32 b1 0b 5d
        E 16 b1 0b 55
        E 32 b1 0b 4c
        E 16 b1 0b 44
        E 32 b1 0b 3b
        E 16 b1 0b 33
        E 16 b1 0b 2a
        E 16 b1 0b 22
        E 32 b1 0b 19
        E 16 b1 0b 11
        E 16 b1 0b 08
        E 16 81 2b 00
        E 128 b1 0b 66
        E 0 91 2b 66
        E 32 b1 0b 5d
        E 16 b1 0b 55
        E 32 b1 0b 4c
        E 16 b1 0b 44
        E 32 b1 0b 3b
        E 16 b1 0b 33
        E 16 b1 0b 2a
        E 16 b1 0b 22
        E 32 b1 0b 19
        E 16 b1 0b 11
        E 16 b1 0b 08
        E 16 81 2b 00
        E 128 b1 0b 66
        E 0 91 2b 66
        E 32 b1 0b 5d
        E 16 b1 0b 55
        E 32 b1 0b 4c
        E 16 b1 0b 44
        E 32 b1 0b 3b
        E 16 b1 0b 33
        E 16 b1 0b 2a
        E 16 b1 0b 22
        E 32 b1 0b 19
        E 16 b1 0b 11
        E 16 b1 0b 08
        E 16 81 2b 00
        E 128 b1 0b 66
        E 0 91 30 66
        E 32 b1 0b 5d
        E 16 b1 0b 55
        E 32 b1 0b 4c
        E 16 b1 0b 44
        E 32 b1 0b 3b
        E 16 b1 0b 33
        E 16 b1 0b 2a
        E 16 b1 0b 22
        E 32 b1 0b 19
        E 16 b1 0b 11
        E 16 b1 0b 08
        E 16 81 30 00
        E 320 b1 0b 66
        E 0 91 30 66
        E 32 b1 0b 5d
        E 16 b1 0b 55
        E 32 b1 0b 4c
        E 16 b1 0b 44
        E 32 b1 0b 3b
        E 16 b1 0b 33
        E 16 b1 0b 2a
        E 16 b1 0b 22
        E 32 b1 0b 19
        E 16 b1 0b 11
        E 16 b1 0b 08
        E 16 81 30 00
        E 320 b1 0b 66
        E 0 91 30 66
        E 32 b1 0b 5d
        E 16 b1 0b 55
        E 32 b1 0b 4c
        E 16 b1 0b 44
        E 32 b1 0b 3b
        E 16 b1 0b 33
        E 16 b1 0b 2a
        E 16 b1 0b 22
        E 32 b1 0b 19
        E 16 b1 0b 11
        E 16 b1 0b 08
        E 16 81 30 00
        E 320 b1 0b 66
        E 0 91 30 66
        E 32 b1 0b 5d
        E 16 b1 0b 55
        E 32 b1 0b 4c
        E 16 b1 0b 44
        E 32 b1 0b 3b
        E 16 b1 0b 33
        E 16 b1 0b 2a
        E 16 b1 0b 22
        E 32 b1 0b 19
        E 16 b1 0b 11
        E 16 b1 0b 08
        E 16 81 30 00
        E 320 b1 0b 66
        E 0 91 30 66
        E 32 b1 0b 5d
        E 16 b1 0b 55
        E 32 b1 0b 4c
        E 16 b1 0b 44
        E 32 b1 0b 3b
        E 16 b1 0b 33
        E 16 b1 0b 2a
        E 16 b1 0b 22
        E 32 b1 0b 19
        E 16 b1 0b 11
        E 16 b1 0b 08
        E 16 81 30 00
        E 128 b1 0b 66
        E 0 91 2b 66
        E 32 b1 0b 5d
        E 16 b1 0b 55
        E 32 b1 0b 4c
        E 16 b1 0b 44
        E 32 b1 0b 3b
        E 16 b1 0b 33
        E 16 b1 0b 2a
        E 16 b1 0b 22
        E 32 b1 0b 19
        E 16 b1 0b 11
        E 16 b1 0b 08
        E 16 81 2b 00
        E 320 b1 0b 66
        E 0 91 2b 66
        E 32 b1 0b 5d
        E 16 b1 0b 55
        E 32 b1 0b 4c
        E 16 b1 0b 44
        E 32 b1 0b 3b
        E 16 b1 0b 33
        E 16 b1 0b 2a
        E 16 b1 0b 22
        E 32 b1 0b 19
        E 16 b1 0b 11
        E 16 b1 0b 08
        E 16 81 2b 00
        E 704 b1 0b 66
        E 0 91 2b 66
        E 32 b1 0b 5d
        E 16 b1 0b 55
        E 32 b1 0b 4c
        E 16 b1 0b 44
        E 32 b1 0b 3b
        E 16 b1 0b 33
        E 16 b1 0b 2a
        E 16 b1 0b 22
        E 32 b1 0b 19
        E 16 b1 0b 11
        E 16 b1 0b 08
        E 16 81 2b 00
        E 128 b1 0b 66
        E 0 91 2b 66
        E 32 b1 0b 5d
        E 16 b1 0b 55
        E 32 b1 0b 4c
        E 16 b1 0b 44
        E 32 b1 0b 3b
        E 16 b1 0b 33
        E 16 b1 0b 2a
        E 16 b1 0b 22
        E 32 b1 0b 19
        E 16 b1 0b 11
        E 16 b1 0b 08
        E 16 81 2b 00
        E 128 b1 0b 66
        E 0 91 2b 66
        E 32 b1 0b 5d
        E 16 b1 0b 55
        E 32 b1 0b 4c
        E 16 b1 0b 44
        E 32 b1 0b 3b
        E 16 b1 0b 33
        E 16 b1 0b 2a
        E 16 b1 0b 22
        E 32 b1 0b 19
        E 16 b1 0b 11
        E 16 b1 0b 08
        E 16 81 2b 00
        E 128 b1 0b 66
        E 0 91 30 66
        E 32 b1 0b 5d
        E 16 b1 0b 55
        E 32 b1 0b 4c
        E 16 b1 0b 44
        E 32 b1 0b 3b
        E 16 b1 0b 33
        E 16 b1 0b 2a
        E 16 b1 0b 22
        E 32 b1 0b 19
        E 16 b1 0b 11
        E 16 b1 0b 08
        E 16 81 30 00
        E 320 b1 0b 66
        E 0 91 30 66
        E 32 b1 0b 5d
        E 16 b1 0b 55
        E 32 b1 0b 4c
        E 16 b1 0b 44
        E 32 b1 0b 3b
        E 16 b1 0b 33
        E 16 b1 0b 2a
        E 16 b1 0b 22
        E 32 b1 0b 19
        E 16 b1 0b 11
        E 16 b1 0b 08
        E 16 81 30 00
        E 320 b1 0b 66
        E 0 91 30 66
        E 32 b1 0b 5d
        E 16 b1 0b 55
        E 32 b1 0b 4c
        E 16 b1 0b 44
        E 32 b1 0b 3b
        E 16 b1 0b 33
        E 16 b1 0b 2a
        E 16 b1 0b 22
        E 32 b1 0b 19
        E 16 b1 0b 11
        E 16 b1 0b 08
        E 16 81 30 00
        E 320 b1 0b 66
        E 0 91 30 66
        E 32 b1 0b 5d
        E 16 b1 0b 55
        E 32 b1 0b 4c
        E 16 b1 0b 44
        E 32 b1 0b 3b
        E 16 b1 0b 33
        E 16 b1 0b 2a
        E 16 b1 0b 22
        E 32 b1 0b 19
        E 16 b1 0b 11
        E 16 b1 0b 08
        E 16 81 30 00
        E 320 b1 0b 66
        E 0 91 30 66
        E 32 b1 0b 5d
        E 16 b1 0b 55
        E 32 b1 0b 4c
        E 16 b1 0b 44
        E 32 b1 0b 3b
        E 16 b1 0b 33
        E 16 b1 0b 2a
        E 16 b1 0b 22
        E 32 b1 0b 19
        E 16 b1 0b 11
        E 16 b1 0b 08
        E 16 81 30 00
        E 128 b1 0b 22
        E 0 91 32 22
        E 32 b1 0b 2a
        E 32 b1 0b 33
        E 32 b1 0b 3b
        E 32 b1 0b 44
        E 32 b1 0b 4c
        E 32 b1 0b 55
        E 32 b1 0b 5d
        E 32 b1 0b 66
        E 16 b1 0b 5d
        E 16 b1 0b 55
        E 32 b1 0b 4c
        E 32 b1 0b 44
        E 32 b1 0b 22
        E 0 81 32 00
        E 0 91 30 22
        E 32 b1 0b 2a
        E 32 b1 0b 33
        E 32 b1 0b 3b
        E 32 b1 0b 44
        E 32 b1 0b 4c
        E 32 b1 0b 22
        E 0 81 30 00
        E 0 91 35 22
        E 32 b1 0b 2a
        E 32 b1 0b 33
        E 32 b1 0b 3b
        E 32 b1 0b 44
        E 32 b1 0b 4c
        E 32 b1 0b 55
        E 32 b1 0b 5d
        E 32 b1 0b 66
        E 16 b1 0b 5d
        E 16 b1 0b 55
        E 32 b1 0b 4c
        E 32 b1 0b 44
        E 32 b1 0b 22
        E 0 81 35 00
        E 0 91 32 22
        E 32 b1 0b 2a
        E 32 b1 0b 33
        E 32 b1 0b 3b
        E 32 b1 0b 44
        E 32 b1 0b 4c
        E 32 b1 0b 22
        E 0 81 32 00
        E 0 91 37 22
        E 32 b1 0b 2a
        E 32 b1 0b 33
        E 32 b1 0b 3b
        E 32 b1 0b 44
        E 32 b1 0b 4c
        E 32 b1 0b 55
        E 32 b1 0b 5d
        E 32 b1 0b 66
        E 16 b1 0b 5d
        E 16 b1 0b 55
        E 32 b1 0b 4c
        E 32 b1 0b 44
        E 32 b1 0b 3b
        E 32 b1 0b 33
        E 32 b1 0b 2a
        E 32 b1 0b 22
        E 288 81 37 00
        E 0 91 35 22
        E 32 b1 0b 2a
        E 32 b1 0b 33
        E 32 b1 0b 3b
        E 32 b1 0b 44
        E 32 b1 0b 4c
        E 32 b1 0b 22
        E 32 b1 0b 2a
        E 32 b1 0b 33
        E 32 b1 0b 3b
        E 32 b1 0b 44
        E 32 b1 0b 4c
        E 32 b1 0b 22
        E 0 81 35 00
        E 0 91 34 22
        E 32 b1 0b 2a
        E 32 b1 0b 33
        E 32 b1 0b 3b
        E 32 b1 0b 44
        E 32 b1 0b 4c
        E 32 b1 0b 22
        E 32 b1 0b 2a
        E 32 b1 0b 33
        E 32 b1 0b 3b
        E 32 b1 0b 44
        E 32 b1 0b 4c
        E 32 b1 0b 22
        E 0 81 34 00
        E 0 91 33 22
        E 32 b1 0b 2a
        E 32 b1 0b 33
        E 32 b1 0b 3b
        E 32 b1 0b 44
        E 32 b1 0b 4c
        E 32 b1 0b 22
        E 32 b1 0b 2a
        E 32 b1 0b 33
        E 32 b1 0b 3b
        E 32 b1 0b 44
        E 32 b1 0b 4c
        E 32 b1 0b 22
        E 0 81 33 00
        E 0 91 32 22
        E 32 b1 0b 2a
        E 32 b1 0b 33
        E 32 b1 0b 3b
        E 32 b1 0b 44
        E 32 b1 0b 4c
        E 32 b1 0b 55
        E 32 b1 0b 5d
        E 32 b1 0b 66
        E 16 b1 0b 5d
        E 16 b1 0b 55
        E 32 b1 0b 4c
        E 32 b1 0b 44
        E 32 b1 0b 22
        E 0 81 32 00
        E 0 91 30 22
        E 32 b1 0b 2a
        E 32 b1 0b 33
        E 32 b1 0b 3b
        E 32 b1 0b 44
        E 32 b1 0b 4c
        E 32 b1 0b 22
        E 0 81 30 00
        E 0 91 35 22
        E 32 b1 0b 2a
        E 32 b1 0b 33
        E 32 b1 0b 3b
        E 32 b1 0b 44
        E 32 b1 0b 4c
        E 32 b1 0b 55
        E 32 b1 0b 5d
        E 32 b1 0b 66
        E 16 b1 0b 5d
        E 16 b1 0b 55
        E 32 b1 0b 4c
        E 32 b1 0b 44
        E 32 b1 0b 22
        E 0 81 35 00
        E 0 91 32 22
        E 32 b1 0b 2a
        E 32 b1 0b 33
        E 32 b1 0b 3b
        E 32 b1 0b 44
        E 32 b1 0b 4c
        E 32 b1 0b 22
        E 0 81 32 00
        E 0 91 37 22
        E 32 b1 0b 2a
        E 32 b1 0b 33
        E 32 b1 0b 3b
        E 32 b1 0b 44
        E 32 b1 0b 4c
        E 32 b1 0b 55
        E 32 b1 0b 5d
        E 32 b1 0b 66
        E 16 b1 0b 5d
        E 16 b1 0b 55
        E 32 b1 0b 4c
        E 32 b1 0b 44
        E 32 b1 0b 3b
        E 32 b1 0b 33
        E 32 b1 0b 2a
        E 32 b1 0b 22
        E 288 81 37 00
        E 0 91 35 22
        E 32 b1 0b 2a
        E 32 b1 0b 33
        E 32 b1 0b 3b
        E 32 b1 0b 44
        E 32 b1 0b 4c
        E 32 b1 0b 22
        E 32 b1 0b 2a
        E 32 b1 0b 33
        E 32 b1 0b 3b
        E 32 b1 0b 44
        E 32 b1 0b 4c
        E 32 b1 0b 22
        E 0 81 35 00
        E 0 91 34 22
        E 32 b1 0b 2a
        E 32 b1 0b 33
        E 32 b1 0b 3b
        E 32 b1 0b 44
        E 32 b1 0b 4c
        E 32 b1 0b 22
        E 32 b1 0b 2a
        E 32 b1 0b 33
        E 32 b1 0b 3b
        E 32 b1 0b 44
        E 32 b1 0b 4c
        E 32 b1 0b 22
        E 0 81 34 00
        E 0 91 33 22
        E 32 b1 0b 2a
        E 32 b1 0b 33
        E 32 b1 0b 3b
        E 32 b1 0b 44
        E 32 b1 0b 4c
        E 32 b1 0b 22
        E 32 b1 0b 2a
        E 32 b1 0b 33
        E 32 b1 0b 3b
        E 32 b1 0b 44
        E 32 b1 0b 4c
        E 32 b1 0b 22
        E 0 81 33 00
        E 0 91 37 22
        E 32 b1 0b 2a
        E 32 b1 0b 33
        E 32 b1 0b 3b
        E 32 b1 0b 44
        E 32 b1 0b 4c
        E 32 b1 0b 55
        E 32 b1 0b 5d
        E 32 b1 0b 66
        E 16 b1 0b 5d
        E 16 b1 0b 55
        E 32 b1 0b 4c
        E 32 b1 0b 44
        E 32 b1 0b 22
        E 0 81 37 00
        E 0 91 35 22
        E 32 b1 0b 2a
        E 32 b1 0b 33
        E 32 b1 0b 3b
        E 32 b1 0b 44
        E 32 b1 0b 4c
        E 32 b1 0b 22
        E 0 81 35 00
        E 0 91 3a 22
        E 32 b1 0b 2a
        E 32 b1 0b 33
        E 32 b1 0b 3b
        E 32 b1 0b 44
        E 32 b1 0b 4c
        E 32 b1 0b 55
        E 32 b1 0b 5d
        E 32 b1 0b 66
        E 16 b1 0b 5d
        E 16 b1 0b 55
        E 32 b1 0b 4c
        E 32 b1 0b 44
        E 32 b1 0b 22
        E 0 81 3a 00
        E 0 91 37 22
        E 32 b1 0b 2a
        E 32 b1 0b 33
        E 32 b1 0b 3b
        E 32 b1 0b 44
        E 32 b1 0b 4c
        E 32 b1 0b 22
        E 0 81 37 00
        E 0 91 3c 22
        E 32 b1 0b 2a
        E 32 b1 0b 33
        E 32 b1 0b 3b
        E 32 b1 0b 44
        E 32 b1 0b 4c
        E 32 b1 0b 55
        E 32 b1 0b 5d
        E 32 b1 0b 66
        E 16 b1 0b 5d
        E 16 b1 0b 55
        E 32 b1 0b 4c
        E 32 b1 0b 44
        E 32 b1 0b 3b
        E 32 b1 0b 33
        E 32 b1 0b 2a
        E 32 b1 0b 22
        E 288 81 3c 00
        E 0 91 3a 22
        E 32 b1 0b 2a
        E 32 b1 0b 33
        E 32 b1 0b 3b
        E 32 b1 0b 44
        E 32 b1 0b 4c
        E 32 b1 0b 22
        E 32 b1 0b 2a
        E 32 b1 0b 33
        E 32 b1 0b 3b
        E 32 b1 0b 44
        E 32 b1 0b 4c
        E 32 b1 0b 22
        E 0 81 3a 00
        E 0 91 39 22
        E 32 b1 0b 2a
        E 32 b1 0b 33
        E 32 b1 0b 3b
        E 32 b1 0b 44
        E 32 b1 0b 4c
        E 32 b1 0b 22
        E 32 b1 0b 2a
        E 32 b1 0b 33
        E 32 b1 0b 3b
        E 32 b1 0b 44
        E 32 b1 0b 4c
        E 32 b1 0b 22
        E 0 81 39 00
        E 0 91 38 22
        E 32 b1 0b 2a
        E 32 b1 0b 33
        E 32 b1 0b 3b
        E 32 b1 0b 44
        E 32 b1 0b 4c
        E 32 b1 0b 22
        E 32 b1 0b 2a
        E 32 b1 0b 33
        E 32 b1 0b 3b
        E 32 b1 0b 44
        E 32 b1 0b 4c
        E 32 b1 0b 22
        E 0 81 38 00
        E 0 91 37 22
        E 32 b1 0b 2a
        E 32 b1 0b 33
        E 32 b1 0b 3b
        E 32 b1 0b 44
        E 32 b1 0b 4c
        E 32 b1 0b 55
        E 32 b1 0b 5d
        E 32 b1 0b 66
        E 16 b1 0b 5d
        E 16 b1 0b 55
        E 32 b1 0b 4c
        E 32 b1 0b 44
        E 32 b1 0b 22
        E 0 81 37 00
        E 0 91 35 22
        E 32 b1 0b 2a
        E 32 b1 0b 33
        E 32 b1 0b 3b
        E 32 b1 0b 44
        E 32 b1 0b 4c
        E 32 b1 0b 22
        E 0 81 35 00
        E 0 91 3a 22
        E 32 b1 0b 2a
        E 32 b1 0b 33
        E 32 b1 0b 3b
        E 32 b1 0b 44
        E 32 b1 0b 4c
        E 32 b1 0b 55
        E 32 b1 0b 5d
        E 32 b1 0b 66
        E 16 b1 0b 5d
        E 16 b1 0b 55
        E 32 b1 0b 4c
        E 32 b1 0b 44
        E 32 b1 0b 22
        E 0 81 3a 00
        E 0 91 37 22
        E 32 b1 0b 2a
        E 32 b1 0b 33
        E 32 b1 0b 3b
        E 32 b1 0b 44
        E 32 b1 0b 4c
        E 32 b1 0b 22
        E 0 81 37 00
        E 0 91 3c 22
        E 32 b1 0b 2a
        E 32 b1 0b 33
        E 32 b1 0b 3b
        E 32 b1 0b 44
        E 32 b1 0b 4c
        E 32 b1 0b 55
        E 32 b1 0b 5d
        E 32 b1 0b 66
        E 16 b1 0b 5d
        E 16 b1 0b 55
        E 32 b1 0b 4c
        E 32 b1 0b 44
        E 32 b1 0b 3b
        E 32 b1 0b 33
        E 32 b1 0b 2a
        E 32 b1 0b 22
        E 288 81 3c 00
        E 0 91 3a 22
        E 32 b1 0b 2a
        E 32 b1 0b 33
        E 32 b1 0b 3b
        E 32 b1 0b 44
        E 32 b1 0b 4c
        E 32 b1 0b 22
        E 32 b1 0b 2a
        E 32 b1 0b 33
        E 32 b1 0b 3b
        E 32 b1 0b 44
        E 32 b1 0b 4c
        E 32 b1 0b 22
        E 0 81 3a 00
        E 0 91 39 22
        E 32 b1 0b 2a
        E 32 b1 0b 33
        E 32 b1 0b 3b
        E 32 b1 0b 44
        E 32 b1 0b 4c
        E 32 b1 0b 22
        E 32 b1 0b 2a
        E 32 b1 0b 33
        E 32 b1 0b 3b
        E 32 b1 0b 44
        E 32 b1 0b 4c
        E 32 b1 0b 22
        E 0 81 39 00
        E 0 91 38 22
        E 32 b1 0b 2a
        E 32 b1 0b 33
        E 32 b1 0b 3b
        E 32 b1 0b 44
        E 32 b1 0b 4c
        E 32 b1 0b 22
        E 32 b1 0b 2a
        E 32 b1 0b 33
        E 32 b1 0b 3b
        E 32 b1 0b 44
        E 32 b1 0b 4c
        E 32 b1 0b 66
        E 0 81 38 00
        E 0 91 2b 66
        E 32 b1 0b 5d
        E 16 b1 0b 55
        E 32 b1 0b 4c
        E 16 b1 0b 44
        E 32 b1 0b 3b
        E 16 b1 0b 33
        E 16 b1 0b 2a
        E 16 b1 0b 22
        E 32 b1 0b 19
        E 16 b1 0b 11
        E 16 b1 0b 08
        E 16 81 2b 00
        E 320 b1 0b 66
        E 0 91 2b 66
        E 32 b1 0b 5d
        E 16 b1 0b 55
        E 32 b1 0b 4c
        E 16 b1 0b 44
        E 32 b1 0b 3b
        E 16 b1 0b 33
        E 16 b1 0b 2a
        E 16 b1 0b 22
        E 32 b1 0b 19
        E 16 b1 0b 11
        E 16 b1 0b 08
        E 16 81 2b 00
        E 704 b1 0b 66
        E 0 91 2b 66
        E 32 b1 0b 5d
        E 16 b1 0b 55
        E 32 b1 0b 4c
        E 16 b1 0b 44
        E 32 b1 0b 3b
        E 16 b1 0b 33
        E 16 b1 0b 2a
        E 16 b1 0b 22
        E 32 b1 0b 19
        E 16 b1 0b 11
        E 16 b1 0b 08
        E 16 81 2b 00
        E 128 b1 0b 66
        E 0 91 2b 66
        E 32 b1 0b 5d
        E 16 b1 0b 55
        E 32 b1 0b 4c
        E 16 b1 0b 44
        E 32 b1 0b 3b
        E 16 b1 0b 33
        E 16 b1 0b 2a
        E 16 b1 0b 22
        E 32 b1 0b 19
        E 16 b1 0b 11
        E 16 b1 0b 08
        E 16 81 2b 00
        E 128 b1 0b 66
        E 0 91 2b 66
        E 32 b1 0b 5d
        E 16 b1 0b 55
        E 32 b1 0b 4c
        E 16 b1 0b 44
        E 32 b1 0b 3b
        E 16 b1 0b 33
        E 16 b1 0b 2a
        E 16 b1 0b 22
        E 32 b1 0b 19
        E 16 b1 0b 11
        E 16 b1 0b 08
        E 16 81 2b 00
        E 128 b1 0b 66
        E 0 91 30 66
        E 32 b1 0b 5d
        E 16 b1 0b 55
        E 32 b1 0b 4c
        E 16 b1 0b 44
        E 32 b1 0b 3b
        E 16 b1 0b 33
        E 16 b1 0b 2a
        E 16 b1 0b 22
        E 32 b1 0b 19
        E 16 b1 0b 11
        E 16 b1 0b 08
        E 16 81 30 00
        E 320 b1 0b 66
        E 0 91 30 66
        E 32 b1 0b 5d
        E 16 b1 0b 55
        E 32 b1 0b 4c
        E 16 b1 0b 44
        E 32 b1 0b 3b
        E 16 b1 0b 33
        E 16 b1 0b 2a
        E 16 b1 0b 22
        E 32 b1 0b 19
        E 16 b1 0b 11
        E 16 b1 0b 08
        E 16 81 30 00
        E 320 b1 0b 66
        E 0 91 30 66
        E 32 b1 0b 5d
        E 16 b1 0b 55
        E 32 b1 0b 4c
        E 16 b1 0b 44
        E 32 b1 0b 3b
        E 16 b1 0b 33
        E 16 b1 0b 2a
        E 16 b1 0b 22
        E 32 b1 0b 19
        E 16 b1 0b 11
        E 16 b1 0b 08
        E 16 81 30 00
        E 320 b1 0b 66
        E 0 91 30 66
        E 32 b1 0b 5d
        E 16 b1 0b 55
        E 32 b1 0b 4c
        E 16 b1 0b 44
        E 32 b1 0b 3b
        E 16 b1 0b 33
        E 16 b1 0b 2a
        E 16 b1 0b 22
        E 32 b1 0b 19
        E 16 b1 0b 11
        E 16 b1 0b 08
        E 16 81 30 00
        E 320 b1 0b 66
        E 0 91 30 66
        E 32 b1 0b 5d
        E 16 b1 0b 55
        E 32 b1 0b 4c
        E 16 b1 0b 44
        E 32 b1 0b 3b
        E 16 b1 0b 33
        E 16 b1 0b 2a
        E 16 b1 0b 22
        E 32 b1 0b 19
        E 16 b1 0b 11
        E 16 b1 0b 08
        E 16 81 30 00
        E 128 b1 0b 66
        E 0 91 2b 66
        E 32 b1 0b 5d
        E 16 b1 0b 55
        E 32 b1 0b 4c
        E 16 b1 0b 44
        E 32 b1 0b 3b
        E 16 b1 0b 33
        E 16 b1 0b 2a
        E 16 b1 0b 22
        E 32 b1 0b 19
        E 16 b1 0b 11
        E 16 b1 0b 08
        E 16 81 2b 00
        E 320 b1 0b 66
        E 0 91 2b 66
        E 32 b1 0b 5d
        E 16 b1 0b 55
        E 32 b1 0b 4c
        E 16 b1 0b 44
        E 32 b1 0b 3b
        E 16 b1 0b 33
        E 16 b1 0b 2a
        E 16 b1 0b 22
        E 32 b1 0b 19
        E 16 b1 0b 11
        E 16 b1 0b 08
        E 16 81 2b 00
        E 704 b1 0b 66
        E 0 91 2b 66
        E 32 b1 0b 5d
        E 16 b1 0b 55
        E 32 b1 0b 4c
        E 16 b1 0b 44
        E 32 b1 0b 3b
        E 16 b1 0b 33
        E 16 b1 0b 2a
        E 16 b1 0b 22
        E 32 b1 0b 19
        E 16 b1 0b 11
        E 16 b1 0b 08
        E 16 81 2b 00
        E 128 b1 0b 66
        E 0 91 2b 66
        E 32 b1 0b 5d
        E 16 b1 0b 55
        E 32 b1 0b 4c
        E 16 b1 0b 44
        E 32 b1 0b 3b
        E 16 b1 0b 33
        E 16 b1 0b 2a
        E 16 b1 0b 22
        E 32 b1 0b 19
        E 16 b1 0b 11
        E 16 b1 0b 08
        E 16 81 2b 00
        E 128 b1 0b 66
        E 0 91 2b 66
        E 32 b1 0b 5d
        E 16 b1 0b 55
        E 32 b1 0b 4c
        E 16 b1 0b 44
        E 32 b1 0b 3b
        E 16 b1 0b 33
        E 16 b1 0b 2a
        E 16 b1 0b 22
        E 32 b1 0b 19
        E 16 b1 0b 11
        E 16 b1 0b 08
        E 16 81 2b 00
        E 128 b1 0b 66
        E 0 91 30 66
        E 32 b1 0b 5d
        E 16 b1 0b 55
        E 32 b1 0b 4c
        E 16 b1 0b 44
        E 32 b1 0b 3b
        E 16 b1 0b 33
        E 16 b1 0b 2a
        E 16 b1 0b 22
        E 32 b1 0b 19
        E 16 b1 0b 11
        E 16 b1 0b 08
        E 16 81 30 00
        E 320 b1 0b 66
        E 0 91 30 66
        E 32 b1 0b 5d
        E 16 b1 0b 55
        E 32 b1 0b 4c
        E 16 b1 0b 44
        E 32 b1 0b 3b
        E 16 b1 0b 33
        E 16 b1 0b 2a
        E 16 b1 0b 22
        E 32 b1 0b 19
        E 16 b1 0b 11
        E 16 b1 0b 08
        E 16 81 30 00
        E 320 b1 0b 66
        E 0 91 30 66
        E 32 b1 0b 5d
        E 16 b1 0b 55
        E 32 b1 0b 4c
        E 16 b1 0b 44
        E 32 b1 0b 3b
        E 16 b1 0b 33
        E 16 b1 0b 2a
        E 16 b1 0b 22
        E 32 b1 0b 19
        E 16 b1 0b 11
        E 16 b1 0b 08
        E 16 81 30 00
        E 320 b1 0b 66
        E 0 91 30 66
        E 32 b1 0b 5d
        E 16 b1 0b 55
        E 32 b1 0b 4c
        E 16 b1 0b 44
        E 32 b1 0b 3b
        E 16 b1 0b 33
        E 16 b1 0b 2a
        E 16 b1 0b 22
        E 32 b1 0b 19
        E 16 b1 0b 11
        E 16 b1 0b 08
        E 16 81 30 00
        E 320 b1 0b 66
        E 0 91 30 66
        E 32 b1 0b 5d
        E 16 b1 0b 55
        E 32 b1 0b 4c
        E 16 b1 0b 44
        E 32 b1 0b 3b
        E 16 b1 0b 33
        E 16 b1 0b 2a
        E 16 b1 0b 22
        E 32 b1 0b 19
        E 16 b1 0b 11
        E 16 b1 0b 08
        E 16 81 30 00
        E 128 b1 0b 22
        E 0 91 32 22
        E 32 b1 0b 2a
        E 32 b1 0b 33
        E 32 b1 0b 3b
        E 32 b1 0b 44
        E 32 b1 0b 4c
        E 32 b1 0b 55
        E 32 b1 0b 5d
        E 32 b1 0b 66
        E 16 b1 0b 5d
        E 16 b1 0b 55
        E 32 b1 0b 4c
        E 32 b1 0b 44
        E 32 b1 0b 22
        E 0 81 32 00
        E 0 91 30 22
        E 32 b1 0b 2a
        E 32 b1 0b 33
        E 32 b1 0b 3b
        E 32 b1 0b 44
        E 32 b1 0b 4c
        E 32 b1 0b 22
        E 0 81 30 00
        E 0 91 35 22
        E 32 b1 0b 2a
        E 32 b1 0b 33
        E 32 b1 0b 3b
        E 32 b1 0b 44
        E 32 b1 0b 4c
        E 32 b1 0b 55
        E 32 b1 0b 5d
        E 32 b1 0b 66
        E 16 b1 0b 5d
        E 16 b1 0b 55
        E 32 b1 0b 4c
        E 32 b1 0b 44
        E 32 b1 0b 22
        E 0 81 35 00
        E 0 91 32 22
        E 32 b1 0b 2a
        E 32 b1 0b 33
        E 32 b1 0b 3b
        E 32 b1 0b 44
        E 32 b1 0b 4c
        E 32 b1 0b 22
        E 0 81 32 00
        E 0 91 37 22
        E 32 b1 0b 2a
        E 32 b1 0b 33
        E 32 b1 0b 3b
        E 32 b1 0b 44
        E 32 b1 0b 4c
        E 32 b1 0b 55
        E 32 b1 0b 5d
        E 32 b1 0b 66
        E 16 b1 0b 5d
        E 16 b1 0b 55
        E 32 b1 0b 4c
        E 32 b1 0b 44
        E 32 b1 0b 3b
        E 32 b1 0b 33
        E 32 b1 0b 2a
        E 32 b1 0b 22
        E 288 81 37 00
        E 0 91 35 22
        E 32 b1 0b 2a
        E 32 b1 0b 33
        E 32 b1 0b 3b
        E 32 b1 0b 44
        E 32 b1 0b 4c
        E 32 b1 0b 22
        E 32 b1 0b 2a
        E 32 b1 0b 33
        E 32 b1 0b 3b
        E 32 b1 0b 44
        E 32 b1 0b 4c
        E 32 b1 0b 22
        E 0 81 35 00
        E 0 91 34 22
        E 32 b1 0b 2a
        E 32 b1 0b 33
        E 32 b1 0b 3b
        E 32 b1 0b 44
        E 32 b1 0b 4c
        E 32 b1 0b 22
        E 32 b1 0b 2a
        E 32 b1 0b 33
        E 32 b1 0b 3b
        E 32 b1 0b 44
        E 32 b1 0b 4c
        E 32 b1 0b 22
        E 0 81 34 00
        E 0 91 33 22
        E 32 b1 0b 2a
        E 32 b1 0b 33
        E 32 b1 0b 3b
        E 32 b1 0b 44
        E 32 b1 0b 4c
        E 32 b1 0b 22
        E 32 b1 0b 2a
        E 32 b1 0b 33
        E 32 b1 0b 3b
        E 32 b1 0b 44
        E 32 b1 0b 4c
        E 32 b1 0b 22
        E 0 81 33 00
        E 0 91 32 22
        E 32 b1 0b 2a
        E 32 b1 0b 33
        E 32 b1 0b 3b
        E 32 b1 0b 44
        E 32 b1 0b 4c
        E 32 b1 0b 55
        E 32 b1 0b 5d
        E 32 b1 0b 66
        E 16 b1 0b 5d
        E 16 b1 0b 55
        E 32 b1 0b 4c
        E 32 b1 0b 44
        E 32 b1 0b 22
        E 0 81 32 00
        E 0 91 30 22
        E 32 b1 0b 2a
        E 32 b1 0b 33
        E 32 b1 0b 3b
        E 32 b1 0b 44
        E 32 b1 0b 4c
        E 32 b1 0b 22
        E 0 81 30 00
        E 0 91 35 22
        E 32 b1 0b 2a
        E 32 b1 0b 33
        E 32 b1 0b 3b
        E 32 b1 0b 44
        E 32 b1 0b 4c
        E 32 b1 0b 55
        E 32 b1 0b 5d
        E 32 b1 0b 66
        E 16 b1 0b 5d
        E 16 b1 0b 55
        E 32 b1 0b 4c
        E 32 b1 0b 44
        E 32 b1 0b 22
        E 0 81 35 00
        E 0 91 32 22
        E 32 b1 0b 2a
        E 32 b1 0b 33
        E 32 b1 0b 3b
        E 32 b1 0b 44
        E 32 b1 0b 4c
        E 32 b1 0b 22
        E 0 81 32 00
        E 0 91 37 22
        E 32 b1 0b 2a
        E 32 b1 0b 33
        E 32 b1 0b 3b
        E 32 b1 0b 44
        E 32 b1 0b 4c
        E 32 b1 0b 55
        E 32 b1 0b 5d
        E 32 b1 0b 66
        E 16 b1 0b 5d
        E 16 b1 0b 55
        E 32 b1 0b 4c
        E 32 b1 0b 44
        E 32 b1 0b 3b
        E 32 b1 0b 33
        E 32 b1 0b 2a
        E 32 b1 0b 22
        E 288 81 37 00
        E 0 91 35 22
        E 32 b1 0b 2a
        E 32 b1 0b 33
        E 32 b1 0b 3b
        E 32 b1 0b 44
        E 32 b1 0b 4c
        E 32 b1 0b 22
        E 32 b1 0b 2a
        E 32 b1 0b 33
        E 32 b1 0b 3b
        E 32 b1 0b 44
        E 32 b1 0b 4c
        E 32 b1 0b 22
        E 0 81 35 00
        E 0 91 34 22
        E 32 b1 0b 2a
        E 32 b1 0b 33
        E 32 b1 0b 3b
        E 32 b1 0b 44
        E 32 b1 0b 4c
        E 32 b1 0b 22
        E 32 b1 0b 2a
        E 32 b1 0b 33
        E 32 b1 0b 3b
        E 32 b1 0b 44
        E 32 b1 0b 4c
        E 32 b1 0b 22
        E 0 81 34 00
        E 0 91 33 22
        E 32 b1 0b 2a
        E 32 b1 0b 33
        E 32 b1 0b 3b
        E 32 b1 0b 44
        E 32 b1 0b 4c
        E 32 b1 0b 22
        E 32 b1 0b 2a
        E 32 b1 0b 33
        E 32 b1 0b 3b
        E 32 b1 0b 44
        E 32 b1 0b 4c
        E 32 b1 0b 22
        E 0 81 33 00
        E 0 91 37 22
        E 32 b1 0b 2a
        E 32 b1 0b 33
        E 32 b1 0b 3b
        E 32 b1 0b 44
        E 32 b1 0b 4c
        E 32 b1 0b 55
        E 32 b1 0b 5d
        E 32 b1 0b 66
        E 16 b1 0b 5d
        E 16 b1 0b 55
        E 32 b1 0b 4c
        E 32 b1 0b 44
        E 32 b1 0b 22
        E 0 81 37 00
        E 0 91 35 22
        E 32 b1 0b 2a
        E 32 b1 0b 33
        E 32 b1 0b 3b
        E 32 b1 0b 44
        E 32 b1 0b 4c
        E 32 b1 0b 22
        E 0 81 35 00
        E 0 91 3a 22
        E 32 b1 0b 2a
        E 32 b1 0b 33
        E 32 b1 0b 3b
        E 32 b1 0b 44
        E 32 b1 0b 4c
        E 32 b1 0b 55
        E 32 b1 0b 5d
        E 32 b1 0b 66
        E 16 b1 0b 5d
        E 16 b1 0b 55
        E 32 b1 0b 4c
        E 32 b1 0b 44
        E 32 b1 0b 22
        E 0 81 3a 00
        E 0 91 37 22
        E 32 b1 0b 2a
        E 32 b1 0b 33
        E 32 b1 0b 3b
        E 32 b1 0b 44
        E 32 b1 0b 4c
        E 32 b1 0b 22
        E 0 81 37 00
        E 0 91 3c 22
        E 32 b1 0b 2a
        E 32 b1 0b 33
        E 32 b1 0b 3b
        E 32 b1 0b 44
        E 32 b1 0b 4c
        E 32 b1 0b 55
        E 32 b1 0b 5d
        E 32 b1 0b 66
        E 16 b1 0b 5d
        E 16 b1 0b 55
        E 32 b1 0b 4c
        E 32 b1 0b 44
        E 32 b1 0b 3b
        E 32 b1 0b 33
        E 32 b1 0b 2a
        E 32 b1 0b 22
        E 288 81 3c 00
        E 0 91 3a 22
        E 32 b1 0b 2a
        E 32 b1 0b 33
        E 32 b1 0b 3b
        E 32 b1 0b 44
        E 32 b1 0b 4c
        E 32 b1 0b 22
        E 32 b1 0b 2a
        E 32 b1 0b 33
        E 32 b1 0b 3b
        E 32 b1 0b 44
        E 32 b1 0b 4c
        E 32 b1 0b 22
        E 0 81 3a 00
        E 0 91 39 22
        E 32 b1 0b 2a
        E 32 b1 0b 33
        E 32 b1 0b 3b
        E 32 b1 0b 44
        E 32 b1 0b 4c
        E 32 b1 0b 22
        E 32 b1 0b 2a
        E 32 b1 0b 33
        E 32 b1 0b 3b
        E 32 b1 0b 44
        E 32 b1 0b 4c
        E 32 b1 0b 22
        E 0 81 39 00
        E 0 91 38 22
        E 32 b1 0b 2a
        E 32 b1 0b 33
        E 32 b1 0b 3b
        E 32 b1 0b 44
        E 32 b1 0b 4c
        E 32 b1 0b 22
        E 32 b1 0b 2a
        E 32 b1 0b 33
        E 32 b1 0b 3b
        E 32 b1 0b 44
        E 32 b1 0b 4c
        E 32 b1 0b 22
        E 0 81 38 00
        E 0 91 37 22
        E 32 b1 0b 2a
        E 32 b1 0b 33
        E 32 b1 0b 3b
        E 32 b1 0b 44
        E 32 b1 0b 4c
        E 32 b1 0b 55
        E 32 b1 0b 5d
        E 32 b1 0b 66
        E 16 b1 0b 5d
        E 16 b1 0b 55
        E 32 b1 0b 4c
        E 32 b1 0b 44
        E 32 b1 0b 22
        E 0 81 37 00
        E 0 91 35 22
        E 32 b1 0b 2a
        E 32 b1 0b 33
        E 32 b1 0b 3b
        E 32 b1 0b 44
        E 32 b1 0b 4c
        E 32 b1 0b 22
        E 0 81 35 00
        E 0 91 3a 22
        E 32 b1 0b 2a
        E 32 b1 0b 33
        E 32 b1 0b 3b
        E 32 b1 0b 44
        E 32 b1 0b 4c
        E 32 b1 0b 55
        E 32 b1 0b 5d
        E 32 b1 0b 66
        E 16 b1 0b 5d
        E 16 b1 0b 55
        E 32 b1 0b 4c
        E 32 b1 0b 44
        E 32 b1 0b 22
        E 0 81 3a 00
        E 0 91 37 22
        E 32 b1 0b 2a
        E 32 b1 0b 33
        E 32 b1 0b 3b
        E 32 b1 0b 44
        E 32 b1 0b 4c
        E 32 b1 0b 22
        E 0 81 37 00
        E 0 91 3c 22
        E 32 b1 0b 2a
        E 32 b1 0b 33
        E 32 b1 0b 3b
        E 32 b1 0b 44
        E 32 b1 0b 4c
        E 32 b1 0b 55
        E 32 b1 0b 5d
        E 32 b1 0b 66
        E 16 b1 0b 5d
        E 16 b1 0b 55
        E 32 b1 0b 4c
        E 32 b1 0b 44
        E 32 b1 0b 3b
        E 32 b1 0b 33
        E 32 b1 0b 2a
        E 32 b1 0b 22
        E 288 81 3c 00
        E 0 91 3a 22
        E 32 b1 0b 2a
        E 32 b1 0b 33
        E 32 b1 0b 3b
        E 32 b1 0b 44
        E 32 b1 0b 4c
        E 32 b1 0b 22
        E 32 b1 0b 2a
        E 32 b1 0b 33
        E 32 b1 0b 3b
        E 32 b1 0b 44
        E 32 b1 0b 4c
        E 32 b1 0b 22
        E 0 81 3a 00
        E 0 91 39 22
        E 32 b1 0b 2a
        E 32 b1 0b 33
        E 32 b1 0b 3b
        E 32 b1 0b 44
        E 32 b1 0b 4c
        E 32 b1 0b 22
        E 32 b1 0b 2a
        E 32 b1 0b 33
        E 32 b1 0b 3b
        E 32 b1 0b 44
        E 32 b1 0b 4c
        E 32 b1 0b 22
        E 0 81 39 00
        E 0 91 38 22
        E 32 b1 0b 2a
        E 32 b1 0b 33
        E 32 b1 0b 3b
        E 32 b1 0b 44
        E 32 b1 0b 4c
        E 32 b1 0b 22
        E 32 b1 0b 2a
        E 32 b1 0b 33
        E 32 b1 0b 3b
        E 32 b1 0b 44
        E 32 b1 0b 4c
        E 32 b1 0b 66
        E 0 81 38 00
        E 0 91 2b 66
        E 32 b1 0b 5d
        E 16 b1 0b 55
        E 32 b1 0b 4c
        E 16 b1 0b 44
        E 32 b1 0b 3b
        E 16 b1 0b 33
        E 16 b1 0b 2a
        E 16 b1 0b 22
        E 32 b1 0b 19
        E 16 b1 0b 11
        E 16 b1 0b 08
        E 16 81 2b 00
        E 320 b1 0b 66
        E 0 91 2b 66
        E 32 b1 0b 5d
        E 16 b1 0b 55
        E 32 b1 0b 4c
        E 16 b1 0b 44
        E 32 b1 0b 3b
        E 16 b1 0b 33
        E 16 b1 0b 2a
        E 16 b1 0b 22
        E 32 b1 0b 19
        E 16 b1 0b 11
        E 16 b1 0b 08
        E 16 81 2b 00
        E 704 b1 0b 66
        E 0 91 2b 66
        E 32 b1 0b 5d
        E 16 b1 0b 55
        E 32 b1 0b 4c
        E 16 b1 0b 44
        E 32 b1 0b 3b
        E 16 b1 0b 33
        E 16 b1 0b 2a
        E 16 b1 0b 22
        E 32 b1 0b 19
        E 16 b1 0b 11
        E 16 b1 0b 08
        E 16 81 2b 00
        E 128 b1 0b 66
        E 0 91 2b 66
        E 32 b1 0b 5d
        E 16 b1 0b 55
        E 32 b1 0b 4c
        E 16 b1 0b 44
        E 32 b1 0b 3b
        E 16 b1 0b 33
        E 16 b1 0b 2a
        E 16 b1 0b 22
        E 32 b1 0b 19
        E 16 b1 0b 11
        E 16 b1 0b 08
        E 16 81 2b 00
        E 128 b1 0b 66
        E 0 91 2b 66
        E 32 b1 0b 5d
        E 16 b1 0b 55
        E 32 b1 0b 4c
        E 16 b1 0b 44
        E 32 b1 0b 3b
        E 16 b1 0b 33
        E 16 b1 0b 2a
        E 16 b1 0b 22
        E 32 b1 0b 19
        E 16 b1 0b 11
        E 16 b1 0b 08
        E 16 81 2b 00
        E 128 b1 0b 66
        E 0 91 30 66
        E 32 b1 0b 5d
        E 16 b1 0b 55
        E 32 b1 0b 4c
        E 16 b1 0b 44
        E 32 b1 0b 3b
        E 16 b1 0b 33
        E 16 b1 0b 2a
        E 16 b1 0b 22
        E 32 b1 0b 19
        E 16 b1 0b 11
        E 16 b1 0b 08
        E 16 81 30 00
        E 320 b1 0b 66
        E 0 91 30 66
        E 32 b1 0b 5d
        E 16 b1 0b 55
        E 32 b1 0b 4c
        E 16 b1 0b 44
        E 32 b1 0b 3b
        E 16 b1 0b 33
        E 16 b1 0b 2a
        E 16 b1 0b 22
        E 32 b1 0b 19
        E 16 b1 0b 11
        E 16 b1 0b 08
        E 16 81 30 00
        E 320 b1 0b 66
        E 0 91 30 66
        E 32 b1 0b 5d
        E 16 b1 0b 55
        E 32 b1 0b 4c
        E 16 b1 0b 44
        E 32 b1 0b 3b
        E 16 b1 0b 33
        E 16 b1 0b 2a
        E 16 b1 0b 22
        E 32 b1 0b 19
        E 16 b1 0b 11
        E 16 b1 0b 08
        E 16 81 30 00
        E 320 b1 0b 66
        E 0 91 30 66
        E 32 b1 0b 5d
        E 16 b1 0b 55
        E 32 b1 0b 4c
        E 16 b1 0b 44
        E 32 b1 0b 3b
        E 16 b1 0b 33
        E 16 b1 0b 2a
        E 16 b1 0b 22
        E 32 b1 0b 19
        E 16 b1 0b 11
        E 16 b1 0b 08
        E 16 81 30 00
        E 320 b1 0b 66
        E 0 91 30 66
        E 32 b1 0b 5d
        E 16 b1 0b 55
        E 32 b1 0b 4c
        E 16 b1 0b 44
        E 32 b1 0b 3b
        E 16 b1 0b 33
        E 16 b1 0b 2a
        E 16 b1 0b 22
        E 32 b1 0b 19
        E 16 b1 0b 11
        E 16 b1 0b 08
        E 16 81 30 00
        E 128 b1 0b 66
        E 0 91 2b 66
        E 32 b1 0b 5d
        E 16 b1 0b 55
        E 32 b1 0b 4c
        E 16 b1 0b 44
        E 32 b1 0b 3b
        E 16 b1 0b 33
        E 16 b1 0b 2a
        E 16 b1 0b 22
        E 32 b1 0b 19
        E 16 b1 0b 11
        E 16 b1 0b 08
        E 16 81 2b 00
        E 320 b1 0b 66
        E 0 91 2b 66
        E 32 b1 0b 5d
        E 16 b1 0b 55
        E 32 b1 0b 4c
        E 16 b1 0b 44
        E 32 b1 0b 3b
        E 16 b1 0b 33
        E 16 b1 0b 2a
        E 16 b1 0b 22
        E 32 b1 0b 19
        E 16 b1 0b 11
        E 16 b1 0b 08
        E 16 81 2b 00
        E 704 b1 0b 66
        E 0 91 2b 66
        E 32 b1 0b 5d
        E 16 b1 0b 55
        E 32 b1 0b 4c
        E 16 b1 0b 44
        E 32 b1 0b 3b
        E 16 b1 0b 33
        E 16 b1 0b 2a
        E 16 b1 0b 22
        E 32 b1 0b 19
        E 16 b1 0b 11
        E 16 b1 0b 08
        E 16 81 2b 00
        E 128 b1 0b 66
        E 0 91 2b 66
        E 32 b1 0b 5d
        E 16 b1 0b 55
        E 32 b1 0b 4c
        E 16 b1 0b 44
        E 32 b1 0b 3b
        E 16 b1 0b 33
        E 16 b1 0b 2a
        E 16 b1 0b 22
        E 32 b1 0b 19
        E 16 b1 0b 11
        E 16 b1 0b 08
        E 16 81 2b 00
        E 0 b1 7b 00
        E 0 ff 2f 00
      >
    >
  >
  <TRACK {89F570AD-09E9-4868-9B74-AE16026D1EB1}
    NAME "NES - Triangle [ch2]"
    PEAKCOL 16744192
    BEAT -1
    AUTOMODE 0
    PANLAWFLAGS 3
    VOLPAN 1 0 -1 -1 1
    MUTESOLO 0 0 0
    IPHASE 0
    PLAYOFFS 0 1
    ISBUS 0 0
    BUSCOMP 0 0 0 0 0
    SHOWINMIX 1 0.6667 0.5 1 0.5 0 0 0
    FIXEDLANES 9 0 0 0 0
    SEL 0
    REC 0 5088 1 0 0 0 0 0
    VU 2
    TRACKHEIGHT 0 0 0 0 0 0 0
    INQ 0 0 0 0.5 100 0 0 100
    NCHAN 2
    FX 1
    TRACKID {89F570AD-09E9-4868-9B74-AE16026D1EB1}
    PERF 0
    MIDIOUT -1
    MAINSEND 1 0
    <FXCHAIN
      WNDRECT 24 52 700 560
      SHOW 0
      LASTSEL 0
      DOCKED 0
      BYPASS 0 0 0
      <JS "ReapNES Studio/ReapNES_Console.jsfx" ""
        2 15 1 10 80 10 100 2 1 15 1 5 60 10 80 1 1 0 50 0 0 15 1 0 100 0 0 0.500000 0.500000 0.400000 0.300000 0.800000 2 1 0 0 0 0 - - - - - - - - - - - - - - - - - - - - - - - - - -
      >
      FLOATPOS 0 0 0 0
      FXID {837E88C5-1D6A-4676-AAF6-758AAD74E9B1}
      WAK 0 0
    >
    <ITEM
      POSITION 0
      LENGTH 74.5878716
      LOOP 0
      ALLTAKES 0
      FADEIN 0 0 0 0 0 0 0
      FADEOUT 0 0 0 0 0 0 0
      MUTE 0 0
      SEL 0
      IGUID {CFEC95B7-1668-46CB-A67D-F41279EDD839}
      <SOURCE MIDI
        HASDATA 1 480 QN
        CCINTERP 32
        E 0 c2 26
        E 64 b2 0b 7f
        E 0 92 24 7f
        E 192 82 24 00
        E 384 b2 0b 7f
        E 0 92 24 7f
        E 192 82 24 00
        E 768 b2 0b 7f
        E 0 92 24 7f
        E 192 82 24 00
        E 192 b2 0b 7f
        E 0 92 24 7f
        E 192 82 24 00
        E 192 b2 0b 7f
        E 0 92 24 7f
        E 192 82 24 00
        E 192 b2 0b 7f
        E 0 92 29 7f
        E 192 82 29 00
        E 384 b2 0b 7f
        E 0 92 29 7f
        E 192 82 29 00
        E 384 b2 0b 7f
        E 0 92 29 7f
        E 192 82 29 00
        E 384 b2 0b 7f
        E 0 92 29 7f
        E 192 82 29 00
        E 384 b2 0b 7f
        E 0 92 29 7f
        E 192 82 29 00
        E 192 b2 0b 7f
        E 0 92 24 7f
        E 192 82 24 00
        E 384 b2 0b 7f
        E 0 92 24 7f
        E 192 82 24 00
        E 768 b2 0b 7f
        E 0 92 24 7f
        E 192 82 24 00
        E 192 b2 0b 7f
        E 0 92 24 7f
        E 192 82 24 00
        E 192 b2 0b 7f
        E 0 92 24 7f
        E 192 82 24 00
        E 192 b2 0b 7f
        E 0 92 29 7f
        E 192 82 29 00
        E 384 b2 0b 7f
        E 0 92 29 7f
        E 192 82 29 00
        E 384 b2 0b 7f
        E 0 92 29 7f
        E 192 82 29 00
        E 384 b2 0b 7f
        E 0 92 29 7f
        E 192 82 29 00
        E 384 b2 0b 7f
        E 0 92 29 7f
        E 192 82 29 00
        E 192 b2 0b 7f
        E 0 92 2b 7f
        E 192 82 2b 00
        E 0 b2 0b 7f
        E 0 92 2a 7f
        E 64 82 2a 00
        E 0 b2 0b 7f
        E 0 92 29 7f
        E 64 82 29 00
        E 0 b2 0b 7f
        E 0 92 28 7f
        E 64 82 28 00
        E 0 b2 0b 7f
        E 0 92 29 7f
        E 192 82 29 00
        E 0 b2 0b 7f
        E 0 92 2a 7f
        E 192 82 2a 00
        E 0 b2 0b 7f
        E 0 92 2b 7f
        E 192 82 2b 00
        E 0 b2 0b 7f
        E 0 92 2a 7f
        E 64 82 2a 00
        E 0 b2 0b 7f
        E 0 92 29 7f
        E 64 82 29 00
        E 0 b2 0b 7f
        E 0 92 28 7f
        E 64 82 28 00
        E 0 b2 0b 7f
        E 0 92 29 7f
        E 192 82 29 00
        E 0 b2 0b 7f
        E 0 92 2a 7f
        E 192 82 2a 00
        E 0 b2 0b 7f
        E 0 92 2b 7f
        E 192 82 2b 00
        E 0 b2 0b 7f
        E 0 92 2a 7f
        E 64 82 2a 00
        E 0 b2 0b 7f
        E 0 92 29 7f
        E 64 82 29 00
        E 0 b2 0b 7f
        E 0 92 28 7f
        E 64 82 28 00
        E 0 b2 0b 7f
        E 0 92 2e 7f
        E 192 82 2e 00
        E 0 b2 0b 7f
        E 0 92 30 7f
        E 192 82 30 00
        E 0 b2 0b 7f
        E 0 92 2d 7f
        E 192 82 2d 00
        E 0 b2 0b 7f
        E 0 92 2f 7f
        E 192 82 2f 00
        E 0 b2 0b 7f
        E 0 92 2c 7f
        E 192 82 2c 00
        E 0 b2 0b 7f
        E 0 92 2e 7f
        E 192 82 2e 00
        E 0 b2 0b 7f
        E 0 92 2b 7f
        E 192 82 2b 00
        E 0 b2 0b 7f
        E 0 92 2a 7f
        E 64 82 2a 00
        E 0 b2 0b 7f
        E 0 92 29 7f
        E 64 82 29 00
        E 0 b2 0b 7f
        E 0 92 28 7f
        E 64 82 28 00
        E 0 b2 0b 7f
        E 0 92 29 7f
        E 192 82 29 00
        E 0 b2 0b 7f
        E 0 92 2a 7f
        E 192 82 2a 00
        E 0 b2 0b 7f
        E 0 92 2b 7f
        E 192 82 2b 00
        E 0 b2 0b 7f
        E 0 92 2a 7f
        E 64 82 2a 00
        E 0 b2 0b 7f
        E 0 92 29 7f
        E 64 82 29 00
        E 0 b2 0b 7f
        E 0 92 28 7f
        E 64 82 28 00
        E 0 b2 0b 7f
        E 0 92 29 7f
        E 192 82 29 00
        E 0 b2 0b 7f
        E 0 92 2a 7f
        E 192 82 2a 00
        E 0 b2 0b 7f
        E 0 92 2b 7f
        E 192 82 2b 00
        E 0 b2 0b 7f
        E 0 92 2a 7f
        E 64 82 2a 00
        E 0 b2 0b 7f
        E 0 92 29 7f
        E 64 82 29 00
        E 0 b2 0b 7f
        E 0 92 28 7f
        E 64 82 28 00
        E 0 b2 0b 7f
        E 0 92 2e 7f
        E 192 82 2e 00
        E 0 b2 0b 7f
        E 0 92 30 7f
        E 192 82 30 00
        E 0 b2 0b 7f
        E 0 92 2d 7f
        E 192 82 2d 00
        E 0 b2 0b 7f
        E 0 92 2f 7f
        E 192 82 2f 00
        E 0 b2 0b 7f
        E 0 92 2c 7f
        E 192 82 2c 00
        E 0 b2 0b 7f
        E 0 92 2e 7f
        E 192 82 2e 00
        E 0 b2 0b 7f
        E 0 92 30 7f
        E 192 82 30 00
        E 0 b2 0b 7f
        E 0 92 2f 7f
        E 64 82 2f 00
        E 0 b2 0b 7f
        E 0 92 2e 7f
        E 64 82 2e 00
        E 0 b2 0b 7f
        E 0 92 2d 7f
        E 64 82 2d 00
        E 0 b2 0b 7f
        E 0 92 2e 7f
        E 192 82 2e 00
        E 0 b2 0b 7f
        E 0 92 2f 7f
        E 192 82 2f 00
        E 0 b2 0b 7f
        E 0 92 30 7f
        E 192 82 30 00
        E 0 b2 0b 7f
        E 0 92 2f 7f
        E 64 82 2f 00
        E 0 b2 0b 7f
        E 0 92 2e 7f
        E 64 82 2e 00
        E 0 b2 0b 7f
        E 0 92 2d 7f
        E 64 82 2d 00
        E 0 b2 0b 7f
        E 0 92 2e 7f
        E 192 82 2e 00
        E 0 b2 0b 7f
        E 0 92 2f 7f
        E 192 82 2f 00
        E 0 b2 0b 7f
        E 0 92 30 7f
        E 192 82 30 00
        E 0 b2 0b 7f
        E 0 92 2f 7f
        E 64 82 2f 00
        E 0 b2 0b 7f
        E 0 92 2e 7f
        E 64 82 2e 00
        E 0 b2 0b 7f
        E 0 92 2d 7f
        E 64 82 2d 00
        E 0 b2 0b 7f
        E 0 92 33 7f
        E 192 82 33 00
        E 0 b2 0b 7f
        E 0 92 35 7f
        E 192 82 35 00
        E 0 b2 0b 7f
        E 0 92 32 7f
        E 192 82 32 00
        E 0 b2 0b 7f
        E 0 92 34 7f
        E 192 82 34 00
        E 0 b2 0b 7f
        E 0 92 31 7f
        E 192 82 31 00
        E 0 b2 0b 7f
        E 0 92 33 7f
        E 192 82 33 00
        E 0 b2 0b 7f
        E 0 92 30 7f
        E 192 82 30 00
        E 0 b2 0b 7f
        E 0 92 2f 7f
        E 64 82 2f 00
        E 0 b2 0b 7f
        E 0 92 2e 7f
        E 64 82 2e 00
        E 0 b2 0b 7f
        E 0 92 2d 7f
        E 64 82 2d 00
        E 0 b2 0b 7f
        E 0 92 2e 7f
        E 192 82 2e 00
        E 0 b2 0b 7f
        E 0 92 2f 7f
        E 192 82 2f 00
        E 0 b2 0b 7f
        E 0 92 30 7f
        E 192 82 30 00
        E 0 b2 0b 7f
        E 0 92 2f 7f
        E 64 82 2f 00
        E 0 b2 0b 7f
        E 0 92 2e 7f
        E 64 82 2e 00
        E 0 b2 0b 7f
        E 0 92 2d 7f
        E 64 82 2d 00
        E 0 b2 0b 7f
        E 0 92 2e 7f
        E 192 82 2e 00
        E 0 b2 0b 7f
        E 0 92 2f 7f
        E 192 82 2f 00
        E 0 b2 0b 7f
        E 0 92 30 7f
        E 192 82 30 00
        E 0 b2 0b 7f
        E 0 92 2f 7f
        E 64 82 2f 00
        E 0 b2 0b 7f
        E 0 92 2e 7f
        E 64 82 2e 00
        E 0 b2 0b 7f
        E 0 92 2d 7f
        E 64 82 2d 00
        E 0 b2 0b 7f
        E 0 92 33 7f
        E 192 82 33 00
        E 0 b2 0b 7f
        E 0 92 35 7f
        E 192 82 35 00
        E 0 b2 0b 7f
        E 0 92 32 7f
        E 192 82 32 00
        E 0 b2 0b 7f
        E 0 92 34 7f
        E 192 82 34 00
        E 0 b2 0b 7f
        E 0 92 31 7f
        E 192 82 31 00
        E 0 b2 0b 7f
        E 0 92 33 7f
        E 192 82 33 00
        E 0 b2 0b 7f
        E 0 92 24 7f
        E 192 82 24 00
        E 384 b2 0b 7f
        E 0 92 24 7f
        E 192 82 24 00
        E 768 b2 0b 7f
        E 0 92 24 7f
        E 192 82 24 00
        E 192 b2 0b 7f
        E 0 92 24 7f
        E 192 82 24 00
        E 192 b2 0b 7f
        E 0 92 24 7f
        E 192 82 24 00
        E 192 b2 0b 7f
        E 0 92 29 7f
        E 192 82 29 00
        E 384 b2 0b 7f
        E 0 92 29 7f
        E 192 82 29 00
        E 384 b2 0b 7f
        E 0 92 29 7f
        E 192 82 29 00
        E 384 b2 0b 7f
        E 0 92 29 7f
        E 192 82 29 00
        E 384 b2 0b 7f
        E 0 92 29 7f
        E 192 82 29 00
        E 192 b2 0b 7f
        E 0 92 24 7f
        E 192 82 24 00
        E 384 b2 0b 7f
        E 0 92 24 7f
        E 192 82 24 00
        E 768 b2 0b 7f
        E 0 92 24 7f
        E 192 82 24 00
        E 192 b2 0b 7f
        E 0 92 24 7f
        E 192 82 24 00
        E 192 b2 0b 7f
        E 0 92 24 7f
        E 192 82 24 00
        E 192 b2 0b 7f
        E 0 92 29 7f
        E 192 82 29 00
        E 384 b2 0b 7f
        E 0 92 29 7f
        E 192 82 29 00
        E 384 b2 0b 7f
        E 0 92 29 7f
        E 192 82 29 00
        E 384 b2 0b 7f
        E 0 92 29 7f
        E 192 82 29 00
        E 384 b2 0b 7f
        E 0 92 29 7f
        E 192 82 29 00
        E 192 b2 0b 7f
        E 0 92 2b 7f
        E 192 82 2b 00
        E 0 b2 0b 7f
        E 0 92 2a 7f
        E 64 82 2a 00
        E 0 b2 0b 7f
        E 0 92 29 7f
        E 64 82 29 00
        E 0 b2 0b 7f
        E 0 92 28 7f
        E 64 82 28 00
        E 0 b2 0b 7f
        E 0 92 29 7f
        E 192 82 29 00
        E 0 b2 0b 7f
        E 0 92 2a 7f
        E 192 82 2a 00
        E 0 b2 0b 7f
        E 0 92 2b 7f
        E 192 82 2b 00
        E 0 b2 0b 7f
        E 0 92 2a 7f
        E 64 82 2a 00
        E 0 b2 0b 7f
        E 0 92 29 7f
        E 64 82 29 00
        E 0 b2 0b 7f
        E 0 92 28 7f
        E 64 82 28 00
        E 0 b2 0b 7f
        E 0 92 29 7f
        E 192 82 29 00
        E 0 b2 0b 7f
        E 0 92 2a 7f
        E 192 82 2a 00
        E 0 b2 0b 7f
        E 0 92 2b 7f
        E 192 82 2b 00
        E 0 b2 0b 7f
        E 0 92 2a 7f
        E 64 82 2a 00
        E 0 b2 0b 7f
        E 0 92 29 7f
        E 64 82 29 00
        E 0 b2 0b 7f
        E 0 92 28 7f
        E 64 82 28 00
        E 0 b2 0b 7f
        E 0 92 2e 7f
        E 192 82 2e 00
        E 0 b2 0b 7f
        E 0 92 30 7f
        E 192 82 30 00
        E 0 b2 0b 7f
        E 0 92 2d 7f
        E 192 82 2d 00
        E 0 b2 0b 7f
        E 0 92 2f 7f
        E 192 82 2f 00
        E 0 b2 0b 7f
        E 0 92 2c 7f
        E 192 82 2c 00
        E 0 b2 0b 7f
        E 0 92 2e 7f
        E 192 82 2e 00
        E 0 b2 0b 7f
        E 0 92 2b 7f
        E 192 82 2b 00
        E 0 b2 0b 7f
        E 0 92 2a 7f
        E 64 82 2a 00
        E 0 b2 0b 7f
        E 0 92 29 7f
        E 64 82 29 00
        E 0 b2 0b 7f
        E 0 92 28 7f
        E 64 82 28 00
        E 0 b2 0b 7f
        E 0 92 29 7f
        E 192 82 29 00
        E 0 b2 0b 7f
        E 0 92 2a 7f
        E 192 82 2a 00
        E 0 b2 0b 7f
        E 0 92 2b 7f
        E 192 82 2b 00
        E 0 b2 0b 7f
        E 0 92 2a 7f
        E 64 82 2a 00
        E 0 b2 0b 7f
        E 0 92 29 7f
        E 64 82 29 00
        E 0 b2 0b 7f
        E 0 92 28 7f
        E 64 82 28 00
        E 0 b2 0b 7f
        E 0 92 29 7f
        E 192 82 29 00
        E 0 b2 0b 7f
        E 0 92 2a 7f
        E 192 82 2a 00
        E 0 b2 0b 7f
        E 0 92 2b 7f
        E 192 82 2b 00
        E 0 b2 0b 7f
        E 0 92 2a 7f
        E 64 82 2a 00
        E 0 b2 0b 7f
        E 0 92 29 7f
        E 64 82 29 00
        E 0 b2 0b 7f
        E 0 92 28 7f
        E 64 82 28 00
        E 0 b2 0b 7f
        E 0 92 2e 7f
        E 192 82 2e 00
        E 0 b2 0b 7f
        E 0 92 30 7f
        E 192 82 30 00
        E 0 b2 0b 7f
        E 0 92 2d 7f
        E 192 82 2d 00
        E 0 b2 0b 7f
        E 0 92 2f 7f
        E 192 82 2f 00
        E 0 b2 0b 7f
        E 0 92 2c 7f
        E 192 82 2c 00
        E 0 b2 0b 7f
        E 0 92 2e 7f
        E 192 82 2e 00
        E 0 b2 0b 7f
        E 0 92 30 7f
        E 192 82 30 00
        E 0 b2 0b 7f
        E 0 92 2f 7f
        E 64 82 2f 00
        E 0 b2 0b 7f
        E 0 92 2e 7f
        E 64 82 2e 00
        E 0 b2 0b 7f
        E 0 92 2d 7f
        E 64 82 2d 00
        E 0 b2 0b 7f
        E 0 92 2e 7f
        E 192 82 2e 00
        E 0 b2 0b 7f
        E 0 92 2f 7f
        E 192 82 2f 00
        E 0 b2 0b 7f
        E 0 92 30 7f
        E 192 82 30 00
        E 0 b2 0b 7f
        E 0 92 2f 7f
        E 64 82 2f 00
        E 0 b2 0b 7f
        E 0 92 2e 7f
        E 64 82 2e 00
        E 0 b2 0b 7f
        E 0 92 2d 7f
        E 64 82 2d 00
        E 0 b2 0b 7f
        E 0 92 2e 7f
        E 192 82 2e 00
        E 0 b2 0b 7f
        E 0 92 2f 7f
        E 192 82 2f 00
        E 0 b2 0b 7f
        E 0 92 30 7f
        E 192 82 30 00
        E 0 b2 0b 7f
        E 0 92 2f 7f
        E 64 82 2f 00
        E 0 b2 0b 7f
        E 0 92 2e 7f
        E 64 82 2e 00
        E 0 b2 0b 7f
        E 0 92 2d 7f
        E 64 82 2d 00
        E 0 b2 0b 7f
        E 0 92 33 7f
        E 192 82 33 00
        E 0 b2 0b 7f
        E 0 92 35 7f
        E 192 82 35 00
        E 0 b2 0b 7f
        E 0 92 32 7f
        E 192 82 32 00
        E 0 b2 0b 7f
        E 0 92 34 7f
        E 192 82 34 00
        E 0 b2 0b 7f
        E 0 92 31 7f
        E 192 82 31 00
        E 0 b2 0b 7f
        E 0 92 33 7f
        E 192 82 33 00
        E 0 b2 0b 7f
        E 0 92 30 7f
        E 192 82 30 00
        E 0 b2 0b 7f
        E 0 92 2f 7f
        E 64 82 2f 00
        E 0 b2 0b 7f
        E 0 92 2e 7f
        E 64 82 2e 00
        E 0 b2 0b 7f
        E 0 92 2d 7f
        E 64 82 2d 00
        E 0 b2 0b 7f
        E 0 92 2e 7f
        E 192 82 2e 00
        E 0 b2 0b 7f
        E 0 92 2f 7f
        E 192 82 2f 00
        E 0 b2 0b 7f
        E 0 92 30 7f
        E 192 82 30 00
        E 0 b2 0b 7f
        E 0 92 2f 7f
        E 64 82 2f 00
        E 0 b2 0b 7f
        E 0 92 2e 7f
        E 64 82 2e 00
        E 0 b2 0b 7f
        E 0 92 2d 7f
        E 64 82 2d 00
        E 0 b2 0b 7f
        E 0 92 2e 7f
        E 192 82 2e 00
        E 0 b2 0b 7f
        E 0 92 2f 7f
        E 192 82 2f 00
        E 0 b2 0b 7f
        E 0 92 30 7f
        E 192 82 30 00
        E 0 b2 0b 7f
        E 0 92 2f 7f
        E 64 82 2f 00
        E 0 b2 0b 7f
        E 0 92 2e 7f
        E 64 82 2e 00
        E 0 b2 0b 7f
        E 0 92 2d 7f
        E 64 82 2d 00
        E 0 b2 0b 7f
        E 0 92 33 7f
        E 192 82 33 00
        E 0 b2 0b 7f
        E 0 92 35 7f
        E 192 82 35 00
        E 0 b2 0b 7f
        E 0 92 32 7f
        E 192 82 32 00
        E 0 b2 0b 7f
        E 0 92 34 7f
        E 192 82 34 00
        E 0 b2 0b 7f
        E 0 92 31 7f
        E 192 82 31 00
        E 0 b2 0b 7f
        E 0 92 33 7f
        E 192 82 33 00
        E 0 b2 0b 7f
        E 0 92 24 7f
        E 192 82 24 00
        E 384 b2 0b 7f
        E 0 92 24 7f
        E 192 82 24 00
        E 768 b2 0b 7f
        E 0 92 24 7f
        E 192 82 24 00
        E 192 b2 0b 7f
        E 0 92 24 7f
        E 192 82 24 00
        E 192 b2 0b 7f
        E 0 92 24 7f
        E 192 82 24 00
        E 192 b2 0b 7f
        E 0 92 29 7f
        E 192 82 29 00
        E 384 b2 0b 7f
        E 0 92 29 7f
        E 192 82 29 00
        E 384 b2 0b 7f
        E 0 92 29 7f
        E 192 82 29 00
        E 384 b2 0b 7f
        E 0 92 29 7f
        E 192 82 29 00
        E 384 b2 0b 7f
        E 0 92 29 7f
        E 192 82 29 00
        E 192 b2 0b 7f
        E 0 92 24 7f
        E 192 82 24 00
        E 384 b2 0b 7f
        E 0 92 24 7f
        E 192 82 24 00
        E 768 b2 0b 7f
        E 0 92 24 7f
        E 192 82 24 00
        E 192 b2 0b 7f
        E 0 92 24 7f
        E 192 82 24 00
        E 192 b2 0b 7f
        E 0 92 24 7f
        E 192 82 24 00
        E 192 b2 0b 7f
        E 0 92 29 7f
        E 192 82 29 00
        E 384 b2 0b 7f
        E 0 92 29 7f
        E 192 82 29 00
        E 384 b2 0b 7f
        E 0 92 29 7f
        E 192 82 29 00
        E 384 b2 0b 7f
        E 0 92 29 7f
        E 192 82 29 00
        E 384 b2 0b 7f
        E 0 92 29 7f
        E 192 82 29 00
        E 192 b2 0b 7f
        E 0 92 2b 7f
        E 192 82 2b 00
        E 0 b2 0b 7f
        E 0 92 2a 7f
        E 64 82 2a 00
        E 0 b2 0b 7f
        E 0 92 29 7f
        E 64 82 29 00
        E 0 b2 0b 7f
        E 0 92 28 7f
        E 64 82 28 00
        E 0 b2 0b 7f
        E 0 92 29 7f
        E 192 82 29 00
        E 0 b2 0b 7f
        E 0 92 2a 7f
        E 192 82 2a 00
        E 0 b2 0b 7f
        E 0 92 2b 7f
        E 192 82 2b 00
        E 0 b2 0b 7f
        E 0 92 2a 7f
        E 64 82 2a 00
        E 0 b2 0b 7f
        E 0 92 29 7f
        E 64 82 29 00
        E 0 b2 0b 7f
        E 0 92 28 7f
        E 64 82 28 00
        E 0 b2 0b 7f
        E 0 92 29 7f
        E 192 82 29 00
        E 0 b2 0b 7f
        E 0 92 2a 7f
        E 192 82 2a 00
        E 0 b2 0b 7f
        E 0 92 2b 7f
        E 192 82 2b 00
        E 0 b2 0b 7f
        E 0 92 2a 7f
        E 64 82 2a 00
        E 0 b2 0b 7f
        E 0 92 29 7f
        E 64 82 29 00
        E 0 b2 0b 7f
        E 0 92 28 7f
        E 64 82 28 00
        E 0 b2 0b 7f
        E 0 92 2e 7f
        E 192 82 2e 00
        E 0 b2 0b 7f
        E 0 92 30 7f
        E 192 82 30 00
        E 0 b2 0b 7f
        E 0 92 2d 7f
        E 192 82 2d 00
        E 0 b2 0b 7f
        E 0 92 2f 7f
        E 192 82 2f 00
        E 0 b2 0b 7f
        E 0 92 2c 7f
        E 192 82 2c 00
        E 0 b2 0b 7f
        E 0 92 2e 7f
        E 192 82 2e 00
        E 0 b2 0b 7f
        E 0 92 2b 7f
        E 192 82 2b 00
        E 0 b2 0b 7f
        E 0 92 2a 7f
        E 64 82 2a 00
        E 0 b2 0b 7f
        E 0 92 29 7f
        E 64 82 29 00
        E 0 b2 0b 7f
        E 0 92 28 7f
        E 64 82 28 00
        E 0 b2 0b 7f
        E 0 92 29 7f
        E 192 82 29 00
        E 0 b2 0b 7f
        E 0 92 2a 7f
        E 192 82 2a 00
        E 0 b2 0b 7f
        E 0 92 2b 7f
        E 192 82 2b 00
        E 0 b2 0b 7f
        E 0 92 2a 7f
        E 64 82 2a 00
        E 0 b2 0b 7f
        E 0 92 29 7f
        E 64 82 29 00
        E 0 b2 0b 7f
        E 0 92 28 7f
        E 64 82 28 00
        E 0 b2 0b 7f
        E 0 92 29 7f
        E 192 82 29 00
        E 0 b2 0b 7f
        E 0 92 2a 7f
        E 192 82 2a 00
        E 0 b2 0b 7f
        E 0 92 2b 7f
        E 192 82 2b 00
        E 0 b2 0b 7f
        E 0 92 2a 7f
        E 64 82 2a 00
        E 0 b2 0b 7f
        E 0 92 29 7f
        E 64 82 29 00
        E 0 b2 0b 7f
        E 0 92 28 7f
        E 64 82 28 00
        E 0 b2 0b 7f
        E 0 92 2e 7f
        E 192 82 2e 00
        E 0 b2 0b 7f
        E 0 92 30 7f
        E 192 82 30 00
        E 0 b2 0b 7f
        E 0 92 2d 7f
        E 192 82 2d 00
        E 0 b2 0b 7f
        E 0 92 2f 7f
        E 192 82 2f 00
        E 0 b2 0b 7f
        E 0 92 2c 7f
        E 192 82 2c 00
        E 0 b2 0b 7f
        E 0 92 2e 7f
        E 192 82 2e 00
        E 0 b2 0b 7f
        E 0 92 30 7f
        E 192 82 30 00
        E 0 b2 0b 7f
        E 0 92 2f 7f
        E 64 82 2f 00
        E 0 b2 0b 7f
        E 0 92 2e 7f
        E 64 82 2e 00
        E 0 b2 0b 7f
        E 0 92 2d 7f
        E 64 82 2d 00
        E 0 b2 0b 7f
        E 0 92 2e 7f
        E 192 82 2e 00
        E 0 b2 0b 7f
        E 0 92 2f 7f
        E 192 82 2f 00
        E 0 b2 0b 7f
        E 0 92 30 7f
        E 192 82 30 00
        E 0 b2 0b 7f
        E 0 92 2f 7f
        E 64 82 2f 00
        E 0 b2 0b 7f
        E 0 92 2e 7f
        E 64 82 2e 00
        E 0 b2 0b 7f
        E 0 92 2d 7f
        E 64 82 2d 00
        E 0 b2 0b 7f
        E 0 92 2e 7f
        E 192 82 2e 00
        E 0 b2 0b 7f
        E 0 92 2f 7f
        E 192 82 2f 00
        E 0 b2 0b 7f
        E 0 92 30 7f
        E 192 82 30 00
        E 0 b2 0b 7f
        E 0 92 2f 7f
        E 64 82 2f 00
        E 0 b2 0b 7f
        E 0 92 2e 7f
        E 64 82 2e 00
        E 0 b2 0b 7f
        E 0 92 2d 7f
        E 64 82 2d 00
        E 0 b2 0b 7f
        E 0 92 33 7f
        E 192 82 33 00
        E 0 b2 0b 7f
        E 0 92 35 7f
        E 192 82 35 00
        E 0 b2 0b 7f
        E 0 92 32 7f
        E 192 82 32 00
        E 0 b2 0b 7f
        E 0 92 34 7f
        E 192 82 34 00
        E 0 b2 0b 7f
        E 0 92 31 7f
        E 192 82 31 00
        E 0 b2 0b 7f
        E 0 92 33 7f
        E 192 82 33 00
        E 0 b2 0b 7f
        E 0 92 30 7f
        E 192 82 30 00
        E 0 b2 0b 7f
        E 0 92 2f 7f
        E 64 82 2f 00
        E 0 b2 0b 7f
        E 0 92 2e 7f
        E 64 82 2e 00
        E 0 b2 0b 7f
        E 0 92 2d 7f
        E 64 82 2d 00
        E 0 b2 0b 7f
        E 0 92 2e 7f
        E 192 82 2e 00
        E 0 b2 0b 7f
        E 0 92 2f 7f
        E 192 82 2f 00
        E 0 b2 0b 7f
        E 0 92 30 7f
        E 192 82 30 00
        E 0 b2 0b 7f
        E 0 92 2f 7f
        E 64 82 2f 00
        E 0 b2 0b 7f
        E 0 92 2e 7f
        E 64 82 2e 00
        E 0 b2 0b 7f
        E 0 92 2d 7f
        E 64 82 2d 00
        E 0 b2 0b 7f
        E 0 92 2e 7f
        E 192 82 2e 00
        E 0 b2 0b 7f
        E 0 92 2f 7f
        E 192 82 2f 00
        E 0 b2 0b 7f
        E 0 92 30 7f
        E 192 82 30 00
        E 0 b2 0b 7f
        E 0 92 2f 7f
        E 64 82 2f 00
        E 0 b2 0b 7f
        E 0 92 2e 7f
        E 64 82 2e 00
        E 0 b2 0b 7f
        E 0 92 2d 7f
        E 64 82 2d 00
        E 0 b2 0b 7f
        E 0 92 33 7f
        E 192 82 33 00
        E 0 b2 0b 7f
        E 0 92 35 7f
        E 192 82 35 00
        E 0 b2 0b 7f
        E 0 92 32 7f
        E 192 82 32 00
        E 0 b2 0b 7f
        E 0 92 34 7f
        E 192 82 34 00
        E 0 b2 0b 7f
        E 0 92 31 7f
        E 192 82 31 00
        E 0 b2 0b 7f
        E 0 92 33 7f
        E 192 82 33 00
        E 0 b2 0b 7f
        E 0 92 24 7f
        E 192 82 24 00
        E 384 b2 0b 7f
        E 0 92 24 7f
        E 192 82 24 00
        E 768 b2 0b 7f
        E 0 92 24 7f
        E 192 82 24 00
        E 192 b2 0b 7f
        E 0 92 24 7f
        E 192 82 24 00
        E 192 b2 0b 7f
        E 0 92 24 7f
        E 192 82 24 00
        E 192 b2 0b 7f
        E 0 92 29 7f
        E 192 82 29 00
        E 384 b2 0b 7f
        E 0 92 29 7f
        E 192 82 29 00
        E 384 b2 0b 7f
        E 0 92 29 7f
        E 192 82 29 00
        E 384 b2 0b 7f
        E 0 92 29 7f
        E 192 82 29 00
        E 384 b2 0b 7f
        E 0 92 29 7f
        E 192 82 29 00
        E 192 b2 0b 7f
        E 0 92 24 7f
        E 192 82 24 00
        E 384 b2 0b 7f
        E 0 92 24 7f
        E 192 82 24 00
        E 768 b2 0b 7f
        E 0 92 24 7f
        E 192 82 24 00
        E 192 b2 0b 7f
        E 0 92 24 7f
        E 192 82 24 00
        E 64 b2 7b 00
        E 0 ff 2f 00
      >
    >
  >
  <TRACK {71EC49B8-ED41-4016-9383-24773F4E6228}
    NAME "NES - Noise / Drums"
    PEAKCOL 11184810
    BEAT -1
    AUTOMODE 0
    PANLAWFLAGS 3
    VOLPAN 1 0 -1 -1 1
    MUTESOLO 0 0 0
    IPHASE 0
    PLAYOFFS 0 1
    ISBUS 0 0
    BUSCOMP 0 0 0 0 0
    SHOWINMIX 1 0.6667 0.5 1 0.5 0 0 0
    FIXEDLANES 9 0 0 0 0
    SEL 0
    REC 0 5088 1 0 0 0 0 0
    VU 2
    TRACKHEIGHT 0 0 0 0 0 0 0
    INQ 0 0 0 0.5 100 0 0 100
    NCHAN 2
    FX 1
    TRACKID {71EC49B8-ED41-4016-9383-24773F4E6228}
    PERF 0
    MIDIOUT -1
    MAINSEND 1 0
    <FXCHAIN
      WNDRECT 24 52 700 560
      SHOW 0
      LASTSEL 0
      DOCKED 0
      BYPASS 0 0 0
      <JS "ReapNES Studio/ReapNES_Console.jsfx" ""
        2 15 1 10 80 10 100 2 1 15 1 5 60 10 80 1 1 0 50 0 0 15 1 0 100 0 0 0.500000 0.500000 0.400000 0.300000 0.800000 3 1 0 0 0 0 - - - - - - - - - - - - - - - - - - - - - - - - - -
      >
      FLOATPOS 0 0 0 0
      FXID {9B8FE105-46B9-4B27-B9FA-0FA3BDE4D82B}
      WAK 0 0
    >
  >
>