<REAPER_PROJECT 0.1 "7.27/win64" 1707000000
  <NOTES 0 2
    |ReapNES Studio Project
    |MIDI Import - Dusty_Diamonds_All_Star_Softball_title_rom_v1
  >
  RIPPLE 0
  GROUPOVERRIDE 0 0 0
  AUTOXFADE 129
  ENVATTACH 3
  POOLEDENVATTACH 0
  MIXERUIFLAGS 11 48
  ENVFADESZ10 40
  PEAKGAIN 1
  FEEDBACK 0
  PANLAW 1
  PROJOFFS 0 0 0
  MAXPROJLEN 0 0
  GRID 3199 8 1 8 1 0 0 0
  TIMEMODE 1 5 -1 30 0 0 -1
  VIDEO_CONFIG 0 0 65792
  PANMODE 3
  PANLAWFLAGS 3
  CURSOR 0
  ZOOM 100 0 0
  VZOOMEX 6 0
  USE_REC_CFG 0
  RECMODE 1
  SMPTESYNC 0 30 100 40 1000 300 0 0 1 0 0
  LOOP 0
  LOOPGRAN 0 4
  RECORD_PATH "Media" ""
  <RECORD_CFG
    ZXZhdxgAAQ==
  >
  <APPLYFX_CFG
  >
  RENDER_FILE ""
  RENDER_PATTERN ""
  RENDER_FMT 0 2 0
  RENDER_1X 0
  RENDER_RANGE 1 0 0 18 1000
  RENDER_RESAMPLE 3 0 1
  RENDER_ADDTOPROJ 0
  RENDER_STEMS 0
  RENDER_DITHER 0
  TIMELOCKMODE 1
  TEMPOENVLOCKMODE 1
  ITEMMIX 1
  DEFPITCHMODE 589824 0
  TAKELANE 1
  SAMPLERATE 44100 0 0
  <RENDER_CFG
    ZXZhdxgAAQ==
  >
  LOCK 1
  <METRONOME 6 2
    VOL 0.25 0.125
    BEATLEN 4
    FREQ 1760 880 1
    SAMPLES "" ""
    SPLIGNORE 0 0
    SPLDEF 2 660 "" 0
    SPLDEF 3 440 "" 0
    PATTERN 0 169
    PATTERNSTR ABBB
    MULT 1
  >
  GLOBAL_AUTO -1
  TEMPO 128.59999614200012 4 4
  PLAYRATE 1 0 0.25 4
  SELECTION 0 0
  SELECTION2 0 0
  MASTERAUTOMODE 0
  MASTERTRACKHEIGHT 0 0
  MASTERPEAKCOL 16576
  MASTERMUTESOLO 0
  MASTERTRACKVIEW 0 0.6667 0.5 0.5 0 0 0 0 0 0 0 0 0 0
  MASTERHWOUT 0 0 1 0 0 0 0 -1
  MASTER_NCH 2 2
  MASTER_VOLUME 1 0 -1 -1 1
  MASTER_PANMODE 3
  MASTER_PANLAWFLAGS 3
  MASTER_FX 1
  MASTER_SEL 0
  <MASTERPLAYSPEEDENV
    EGUID {616B188D-9CCB-4D1D-B832-67CBAF35004F}
    ACT 0 -1
    VIS 0 1 1
    LANEHEIGHT 0 0
    ARM 0
    DEFSHAPE 0 -1 -1
  >
  <TEMPOENVEX
    EGUID {2CBA4DAD-5C18-4DDF-9125-77B4134DCAA7}
    ACT 1 -1
    VIS 1 0 1
    LANEHEIGHT 0 0
    ARM 0
    DEFSHAPE 1 -1 -1
  >
  <PROJBAY
  >
  <TRACK {46E76EC0-770A-443A-AE7B-9E4B9B5AC9AD}
    NAME "NES - Pulse 1 [ch0]"
    PEAKCOL 16576606
    BEAT -1
    AUTOMODE 0
    PANLAWFLAGS 3
    VOLPAN 1 0 -1 -1 1
    MUTESOLO 0 0 0
    IPHASE 0
    PLAYOFFS 0 1
    ISBUS 0 0
    BUSCOMP 0 0 0 0 0
    SHOWINMIX 1 0.6667 0.5 1 0.5 0 0 0
    FIXEDLANES 9 0 0 0 0
    SEL 1
    REC 1 5088 1 0 0 0 0 0
    VU 2
    TRACKHEIGHT 0 0 0 0 0 0 0
    INQ 0 0 0 0.5 100 0 0 100
    NCHAN 2
    FX 1
    TRACKID {46E76EC0-770A-443A-AE7B-9E4B9B5AC9AD}
    PERF 0
    MIDIOUT -1
    MAINSEND 1 0
    <FXCHAIN
      WNDRECT 24 52 700 560
      SHOW 0
      LASTSEL 0
      DOCKED 0
      BYPASS 0 0 0
      <JS "ReapNES Studio/ReapNES_Console.jsfx" ""
        2 15 1 10 80 10 100 2 1 15 1 5 60 10 80 1 1 0 50 0 0 15 1 0 100 0 0 0.500000 0.500000 0.400000 0.300000 0.800000 0 1 0 0 0 0 - - - - - - - - - - - - - - - - - - - - - - - - - -
      >
      FLOATPOS 0 0 0 0
      FXID {69767D61-4E96-4A59-9ADD-827003268F0D}
      WAK 0 0
    >
    <ITEM
      POSITION 0
      LENGTH 7.838258400000001
      LOOP 0
      ALLTAKES 0
      FADEIN 0 0 0 0 0 0 0
      FADEOUT 0 0 0 0 0 0 0
      MUTE 0 0
      SEL 0
      IGUID {F67EF069-CC50-47BA-BE00-69647A2BF03C}
      <SOURCE MIDI
        HASDATA 1 480 QN
        CCINTERP 32
        E 0 c0 50
        E 0 b0 0c 40
        E 0 b0 0b 7f
        E 0 90 48 7f
        E 32 b0 0b 44
        E 16 b0 0b 7f
        E 16 b0 0b 44
        E 16 b0 0b 3b
        E 16 b0 0b 33
        E 32 b0 0b 22
        E 16 b0 0b 11
        E 80 b0 0b 7f
        E 32 b0 0b 44
        E 16 b0 0b 7f
        E 16 b0 0b 44
        E 16 b0 0b 3b
        E 16 b0 0b 33
        E 32 b0 0b 22
        E 16 b0 0b 11
        E 80 b0 0b 7f
        E 0 80 48 00
        E 0 90 47 7f
        E 32 b0 0b 44
        E 16 b0 0b 7f
        E 16 b0 0b 44
        E 16 b0 0b 3b
        E 16 b0 0b 33
        E 32 b0 0b 22
        E 16 b0 0b 11
        E 80 b0 0b 7f
        E 0 80 47 00
        E 0 90 48 7f
        E 32 b0 0b 44
        E 16 b0 0b 7f
        E 16 b0 0b 44
        E 16 b0 0b 3b
        E 16 b0 0b 33
        E 32 b0 0b 22
        E 16 b0 0b 11
        E 80 b0 0b 7f
        E 0 80 48 00
        E 0 90 43 7f
        E 32 b0 0b 44
        E 16 b0 0b 7f
        E 16 b0 0b 44
        E 16 b0 0b 3b
        E 16 b0 0b 33
        E 16 b0 0b 7f
        E 0 80 43 00
        E 0 90 41 7f
        E 32 b0 0b 44
        E 16 b0 0b 7f
        E 16 b0 0b 44
        E 16 b0 0b 3b
        E 16 b0 0b 33
        E 16 b0 0b 7f
        E 0 80 41 00
        E 0 90 40 7f
        E 32 b0 0b 44
        E 16 b0 0b 7f
        E 16 b0 0b 44
        E 16 b0 0b 3b
        E 16 b0 0b 33
        E 16 b0 0b 7f
        E 0 80 40 00
        E 0 90 3e 7f
        E 32 b0 0b 44
        E 16 b0 0b 7f
        E 16 b0 0b 44
        E 16 b0 0b 3b
        E 16 b0 0b 33
        E 16 b0 0b 7f
        E 0 80 3e 00
        E 0 90 43 7f
        E 32 b0 0b 44
        E 16 b0 0b 7f
        E 16 b0 0b 44
        E 16 b0 0b 3b
        E 16 b0 0b 33
        E 32 b0 0b 22
        E 16 b0 0b 11
        E 80 b0 0b 7f
        E 32 b0 0b 44
        E 16 b0 0b 7f
        E 16 b0 0b 44
        E 16 b0 0b 3b
        E 16 b0 0b 33
        E 32 b0 0b 22
        E 16 b0 0b 11
        E 80 b0 0b 7f
        E 32 b0 0b 44
        E 16 b0 0b 7f
        E 16 b0 0b 44
        E 16 b0 0b 3b
        E 16 b0 0b 33
        E 16 b0 0b 7f
        E 0 80 43 00
        E 0 90 45 7f
        E 32 b0 0b 44
        E 16 b0 0b 7f
        E 16 b0 0b 44
        E 16 b0 0b 3b
        E 16 b0 0b 33
        E 32 b0 0b 22
        E 16 b0 0b 11
        E 80 b0 0b 7f
        E 0 80 45 00
        E 0 90 43 7f
        E 32 b0 0b 44
        E 16 b0 0b 7f
        E 16 b0 0b 44
        E 16 b0 0b 3b
        E 16 b0 0b 33
        E 32 b0 0b 22
        E 16 b0 0b 11
        E 80 b0 0b 7f
        E 0 80 43 00
        E 0 90 41 7f
        E 32 b0 0b 44
        E 16 b0 0b 7f
        E 16 b0 0b 44
        E 16 b0 0b 3b
        E 16 b0 0b 33
        E 32 b0 0b 22
        E 16 b0 0b 11
        E 80 b0 0b 7f
        E 0 80 41 00
        E 0 90 40 7f
        E 32 b0 0b 44
        E 16 b0 0b 7f
        E 16 b0 0b 44
        E 16 b0 0b 3b
        E 16 b0 0b 33
        E 32 b0 0b 22
        E 16 b0 0b 11
        E 80 b0 0b 7f
        E 0 80 40 00
        E 0 90 43 7f
        E 32 b0 0b 44
        E 16 b0 0b 7f
        E 16 b0 0b 44
        E 16 b0 0b 3b
        E 16 b0 0b 33
        E 16 b0 0b 2a
        E 16 b0 0b 22
        E 16 b0 0b 11
        E 192 b0 0b 7f
        E 0 80 43 00
        E 0 90 41 7f
        E 32 b0 0b 44
        E 16 b0 0b 7f
        E 16 b0 0b 44
        E 16 b0 0b 3b
        E 16 b0 0b 33
        E 32 b0 0b 22
        E 16 b0 0b 11
        E 80 b0 0b 7f
        E 32 b0 0b 44
        E 16 b0 0b 7f
        E 16 b0 0b 44
        E 16 b0 0b 3b
        E 16 b0 0b 33
        E 32 b0 0b 22
        E 16 b0 0b 11
        E 80 b0 0b 7f
        E 32 b0 0b 44
        E 16 b0 0b 7f
        E 16 b0 0b 44
        E 16 b0 0b 3b
        E 16 b0 0b 33
        E 16 b0 0b 7f
        E 0 80 41 00
        E 0 90 43 7f
        E 32 b0 0b 44
        E 16 b0 0b 7f
        E 16 b0 0b 44
        E 16 b0 0b 3b
        E 16 b0 0b 33
        E 32 b0 0b 22
        E 16 b0 0b 11
        E 80 b0 0b 7f
        E 0 80 43 00
        E 0 90 41 7f
        E 32 b0 0b 44
        E 16 b0 0b 7f
        E 16 b0 0b 44
        E 16 b0 0b 3b
        E 16 b0 0b 33
        E 16 b0 0b 2a
        E 16 b0 0b 22
        E 16 b0 0b 11
        E 528 b0 0b 7f
        E 0 80 41 00
        E 0 90 40 7f
        E 32 b0 0b 44
        E 16 b0 0b 7f
        E 16 b0 0b 44
        E 16 b0 0b 3b
        E 16 b0 0b 33
        E 16 b0 0b 7f
        E 0 80 40 00
        E 0 90 41 7f
        E 32 b0 0b 44
        E 16 b0 0b 7f
        E 16 b0 0b 44
        E 16 b0 0b 3b
        E 16 b0 0b 33
        E 16 b0 0b 7f
        E 0 80 41 00
        E 0 90 42 7f
        E 32 b0 0b 44
        E 16 b0 0b 7f
        E 16 b0 0b 44
        E 16 b0 0b 3b
        E 16 b0 0b 33
        E 16 b0 0b 7f
        E 0 80 42 00
        E 0 90 43 7f
        E 32 b0 0b 44
        E 16 b0 0b 7f
        E 16 b0 0b 44
        E 16 b0 0b 3b
        E 16 b0 0b 33
        E 32 b0 0b 22
        E 16 b0 0b 11
        E 80 b0 0b 7f
        E 32 b0 0b 44
        E 16 b0 0b 7f
        E 16 b0 0b 44
        E 16 b0 0b 3b
        E 16 b0 0b 33
        E 32 b0 0b 22
        E 16 b0 0b 11
        E 80 b0 0b 7f
        E 32 b0 0b 44
        E 16 b0 0b 7f
        E 16 b0 0b 44
        E 16 b0 0b 3b
        E 16 b0 0b 33
        E 16 b0 0b 7f
        E 0 80 43 00
        E 0 90 45 7f
        E 32 b0 0b 44
        E 16 b0 0b 7f
        E 16 b0 0b 44
        E 16 b0 0b 3b
        E 16 b0 0b 33
        E 32 b0 0b 22
        E 16 b0 0b 11
        E 80 b0 0b 7f
        E 0 80 45 00
        E 0 90 43 7f
        E 32 b0 0b 44
        E 16 b0 0b 7f
        E 16 b0 0b 44
        E 16 b0 0b 3b
        E 16 b0 0b 33
        E 32 b0 0b 22
        E 16 b0 0b 11
        E 80 b0 0b 7f
        E 0 80 43 00
        E 0 90 40 7f
        E 32 b0 0b 44
        E 16 b0 0b 7f
        E 16 b0 0b 44
        E 16 b0 0b 3b
        E 16 b0 0b 33
        E 32 b0 0b 22
        E 16 b0 0b 11
        E 80 b0 0b 7f
        E 0 80 40 00
        E 0 90 43 7f
        E 32 b0 0b 44
        E 16 b0 0b 7f
        E 16 b0 0b 44
        E 16 b0 0b 3b
        E 16 b0 0b 33
        E 32 b0 0b 22
        E 16 b0 0b 11
        E 80 b0 0b 7f
        E 0 80 43 00
        E 0 90 48 7f
        E 32 b0 0b 44
        E 16 b0 0b 7f
        E 16 b0 0b 44
        E 16 b0 0b 3b
        E 16 b0 0b 33
        E 16 b0 0b 2a
        E 16 b0 0b 22
        E 16 b0 0b 11
        E 192 b0 0b 7f
        E 0 80 48 00
        E 0 90 45 7f
        E 32 b0 0b 44
        E 16 b0 0b 7f
        E 16 b0 0b 44
        E 16 b0 0b 3b
        E 16 b0 0b 33
        E 16 b0 0b 2a
        E 16 b0 0b 22
        E 16 b0 0b 11
        E 80 b0 0b 7f
        E 0 80 45 00
        E 0 90 44 7f
        E 32 b0 0b 44
        E 16 b0 0b 7f
        E 16 b0 0b 44
        E 16 b0 0b 3b
        E 16 b0 0b 33
        E 16 b0 0b 2a
        E 16 b0 0b 22
        E 16 b0 0b 11
        E 80 b0 0b 7f
        E 0 80 44 00
        E 0 90 45 7f
        E 32 b0 0b 44
        E 16 b0 0b 7f
        E 16 b0 0b 44
        E 16 b0 0b 3b
        E 16 b0 0b 33
        E 16 b0 0b 2a
        E 16 b0 0b 22
        E 16 b0 0b 11
        E 80 b0 0b 7f
        E 0 80 45 00
        E 0 90 47 7f
        E 32 b0 0b 44
        E 16 b0 0b 7f
        E 16 b0 0b 44
        E 16 b0 0b 3b
        E 16 b0 0b 33
        E 16 b0 0b 2a
        E 16 b0 0b 22
        E 16 b0 0b 11
        E 304 b0 0b 7f
        E 0 80 47 00
        E 0 90 48 7f
        E 32 b0 0b 44
        E 16 b0 0b 7f
        E 16 b0 0b 44
        E 16 b0 0b 3b
        E 16 b0 0b 33
        E 16 b0 0b 2a
        E 16 b0 0b 22
        E 16 b0 0b 11
        E 80 80 48 00
        E 0 b0 7b 00
        E 0 ff 2f 00
      >
    >
  >
  <TRACK {F33D8BC0-E190-4731-A5FC-A3799D9D8946}
    NAME "NES - Pulse 2 [ch1]"
    PEAKCOL 10092441
    BEAT -1
    AUTOMODE 0
    PANLAWFLAGS 3
    VOLPAN 1 0 -1 -1 1
    MUTESOLO 0 0 0
    IPHASE 0
    PLAYOFFS 0 1
    ISBUS 0 0
    BUSCOMP 0 0 0 0 0
    SHOWINMIX 1 0.6667 0.5 1 0.5 0 0 0
    FIXEDLANES 9 0 0 0 0
    SEL 0
    REC 0 5088 1 0 0 0 0 0
    VU 2
    TRACKHEIGHT 0 0 0 0 0 0 0
    INQ 0 0 0 0.5 100 0 0 100
    NCHAN 2
    FX 1
    TRACKID {F33D8BC0-E190-4731-A5FC-A3799D9D8946}
    PERF 0
    MIDIOUT -1
    MAINSEND 1 0
    <FXCHAIN
      WNDRECT 24 52 700 560
      SHOW 0
      LASTSEL 0
      DOCKED 0
      BYPASS 0 0 0
      <JS "ReapNES Studio/ReapNES_Console.jsfx" ""
        2 15 1 10 80 10 100 2 1 15 1 5 60 10 80 1 1 0 50 0 0 15 1 0 100 0 0 0.500000 0.500000 0.400000 0.300000 0.800000 1 1 0 0 0 0 - - - - - - - - - - - - - - - - - - - - - - - - - -
      >
      FLOATPOS 0 0 0 0
      FXID {122188F4-DEC9-433B-B117-650D91D7AFEA}
      WAK 0 0
    >
    <ITEM
      POSITION 0
      LENGTH 7.838258400000001
      LOOP 0
      ALLTAKES 0
      FADEIN 0 0 0 0 0 0 0
      FADEOUT 0 0 0 0 0 0 0
      MUTE 0 0
      SEL 0
      IGUID {7FB39D2B-2066-4A00-9019-97E0C17007B2}
      <SOURCE MIDI
        HASDATA 1 480 QN
        CCINTERP 32
        E 0 c1 51
        E 0 b1 0c 60
        E 0 b1 0b 4c
        E 0 91 43 4c
        E 16 b1 0b 2a
        E 16 b1 0b 33
        E 16 b1 0b 22
        E 16 b1 0b 19
        E 16 b1 0b 08
        E 144 b1 0b 4c
        E 16 b1 0b 2a
        E 16 b1 0b 33
        E 16 b1 0b 22
        E 16 b1 0b 19
        E 16 b1 0b 08
        E 144 b1 0b 4c
        E 16 b1 0b 2a
        E 16 b1 0b 33
        E 16 b1 0b 22
        E 16 b1 0b 19
        E 16 b1 0b 08
        E 144 b1 0b 4c
        E 16 b1 0b 2a
        E 16 b1 0b 33
        E 16 b1 0b 22
        E 16 b1 0b 19
        E 16 b1 0b 08
        E 144 b1 0b 4c
        E 0 81 43 00
        E 0 91 40 4c
        E 16 b1 0b 2a
        E 16 b1 0b 33
        E 16 b1 0b 22
        E 16 b1 0b 19
        E 16 b1 0b 08
        E 32 b1 0b 4c
        E 0 81 40 00
        E 0 91 3e 4c
        E 16 b1 0b 2a
        E 16 b1 0b 33
        E 16 b1 0b 22
        E 16 b1 0b 19
        E 16 b1 0b 08
        E 32 b1 0b 4c
        E 0 81 3e 00
        E 0 91 3c 4c
        E 16 b1 0b 2a
        E 16 b1 0b 33
        E 16 b1 0b 22
        E 16 b1 0b 19
        E 16 b1 0b 08
        E 32 b1 0b 4c
        E 0 81 3c 00
        E 0 91 3b 4c
        E 16 b1 0b 2a
        E 16 b1 0b 33
        E 16 b1 0b 22
        E 16 b1 0b 19
        E 16 b1 0b 08
        E 5408 b1 0b 4c
        E 0 81 3b 00
        E 0 91 41 4c
        E 16 b1 0b 2a
        E 16 b1 0b 33
        E 16 b1 0b 22
        E 16 b1 0b 19
        E 16 b1 0b 08
        E 144 b1 0b 4c
        E 0 81 41 00
        E 0 91 40 4c
        E 16 b1 0b 2a
        E 16 b1 0b 33
        E 16 b1 0b 22
        E 16 b1 0b 19
        E 16 b1 0b 08
        E 144 b1 0b 4c
        E 0 81 40 00
        E 0 91 41 4c
        E 16 b1 0b 2a
        E 16 b1 0b 33
        E 16 b1 0b 22
        E 16 b1 0b 19
        E 16 b1 0b 08
        E 144 b1 0b 4c
        E 0 81 41 00
        E 0 91 43 4c
        E 16 b1 0b 2a
        E 16 b1 0b 33
        E 16 b1 0b 22
        E 16 b1 0b 19
        E 16 b1 0b 08
        E 368 b1 0b 4c
        E 0 81 43 00
        E 0 91 45 4c
        E 16 b1 0b 2a
        E 16 b1 0b 33
        E 16 b1 0b 22
        E 16 b1 0b 19
        E 16 b1 0b 08
        E 144 81 45 00
        E 0 b1 7b 00
        E 0 ff 2f 00
      >
    >
  >
  <TRACK {6CD2FA88-14CF-4C25-9221-50919D7245E5}
    NAME "NES - Triangle [ch2]"
    PEAKCOL 16744192
    BEAT -1
    AUTOMODE 0
    PANLAWFLAGS 3
    VOLPAN 1 0 -1 -1 1
    MUTESOLO 0 0 0
    IPHASE 0
    PLAYOFFS 0 1
    ISBUS 0 0
    BUSCOMP 0 0 0 0 0
    SHOWINMIX 1 0.6667 0.5 1 0.5 0 0 0
    FIXEDLANES 9 0 0 0 0
    SEL 0
    REC 0 5088 1 0 0 0 0 0
    VU 2
    TRACKHEIGHT 0 0 0 0 0 0 0
    INQ 0 0 0 0.5 100 0 0 100
    NCHAN 2
    FX 1
    TRACKID {6CD2FA88-14CF-4C25-9221-50919D7245E5}
    PERF 0
    MIDIOUT -1
    MAINSEND 1 0
    <FXCHAIN
      WNDRECT 24 52 700 560
      SHOW 0
      LASTSEL 0
      DOCKED 0
      BYPASS 0 0 0
      <JS "ReapNES Studio/ReapNES_Console.jsfx" ""
        2 15 1 10 80 10 100 2 1 15 1 5 60 10 80 1 1 0 50 0 0 15 1 0 100 0 0 0.500000 0.500000 0.400000 0.300000 0.800000 2 1 0 0 0 0 - - - - - - - - - - - - - - - - - - - - - - - - - -
      >
      FLOATPOS 0 0 0 0
      FXID {F6ED6784-9925-4660-8A2D-594F270C12D4}
      WAK 0 0
    >
    <ITEM
      POSITION 0
      LENGTH 7.838258400000001
      LOOP 0
      ALLTAKES 0
      FADEIN 0 0 0 0 0 0 0
      FADEOUT 0 0 0 0 0 0 0
      MUTE 0 0
      SEL 0
      IGUID {8CAF7842-700C-4C07-A14E-0686A0099341}
      <SOURCE MIDI
        HASDATA 1 480 QN
        CCINTERP 32
        E 0 c2 26
        E 0 b2 0b 7f
        E 0 92 24 7f
        E 896 82 24 00
        E 0 b2 0b 7f
        E 0 92 2b 7f
        E 448 82 2b 00
        E 0 b2 0b 7f
        E 0 92 24 7f
        E 336 82 24 00
        E 0 b2 0b 7f
        E 0 92 2b 7f
        E 448 82 2b 00
        E 0 b2 0b 7f
        E 0 92 1f 7f
        E 112 82 1f 00
        E 0 b2 0b 7f
        E 0 92 24 7f
        E 336 82 24 00
        E 0 b2 0b 7f
        E 0 92 2b 7f
        E 448 82 2b 00
        E 0 b2 0b 7f
        E 0 92 1f 7f
        E 112 82 1f 00
        E 0 b2 0b 7f
        E 0 92 22 7f
        E 336 82 22 00
        E 0 b2 0b 7f
        E 0 92 29 7f
        E 448 82 29 00
        E 0 b2 0b 7f
        E 0 92 1d 7f
        E 112 82 1d 00
        E 0 b2 0b 7f
        E 0 92 22 7f
        E 336 82 22 00
        E 0 b2 0b 7f
        E 0 92 29 7f
        E 448 82 29 00
        E 0 b2 0b 7f
        E 0 92 1d 7f
        E 112 82 1d 00
        E 0 b2 0b 7f
        E 0 92 24 7f
        E 336 82 24 00
        E 0 b2 0b 7f
        E 0 92 2b 7f
        E 448 82 2b 00
        E 0 b2 0b 7f
        E 0 92 1f 7f
        E 112 82 1f 00
        E 0 b2 0b 7f
        E 0 92 24 7f
        E 336 82 24 00
        E 0 b2 0b 7f
        E 0 92 2b 7f
        E 448 82 2b 00
        E 0 b2 0b 7f
        E 0 92 1f 7f
        E 112 82 1f 00
        E 0 b2 0b 7f
        E 0 92 29 7f
        E 336 82 29 00
        E 0 b2 0b 7f
        E 0 92 30 7f
        E 336 82 30 00
        E 0 b2 0b 7f
        E 0 92 29 7f
        E 112 82 29 00
        E 0 b2 0b 7f
        E 0 92 30 7f
        E 112 82 30 00
        E 0 b2 0b 7f
        E 0 92 2b 7f
        E 336 82 2b 00
        E 0 b2 0b 7f
        E 0 92 32 7f
        E 112 82 32 00
        E 0 b2 7b 00
        E 0 ff 2f 00
      >
    >
  >
  <TRACK {1D42C022-FD3A-4D51-9BAC-FA13B4B3F9C7}
    NAME "NES - Noise / Drums [ch3]"
    PEAKCOL 11184810
    BEAT -1
    AUTOMODE 0
    PANLAWFLAGS 3
    VOLPAN 1 0 -1 -1 1
    MUTESOLO 0 0 0
    IPHASE 0
    PLAYOFFS 0 1
    ISBUS 0 0
    BUSCOMP 0 0 0 0 0
    SHOWINMIX 1 0.6667 0.5 1 0.5 0 0 0
    FIXEDLANES 9 0 0 0 0
    SEL 0
    REC 0 5088 1 0 0 0 0 0
    VU 2
    TRACKHEIGHT 0 0 0 0 0 0 0
    INQ 0 0 0 0.5 100 0 0 100
    NCHAN 2
    FX 1
    TRACKID {1D42C022-FD3A-4D51-9BAC-FA13B4B3F9C7}
    PERF 0
    MIDIOUT -1
    MAINSEND 1 0
    <FXCHAIN
      WNDRECT 24 52 700 560
      SHOW 0
      LASTSEL 0
      DOCKED 0
      BYPASS 0 0 0
      <JS "ReapNES Studio/ReapNES_Console.jsfx" ""
        2 15 1 10 80 10 100 2 1 15 1 5 60 10 80 1 1 0 50 0 0 15 1 0 100 0 0 0.500000 0.500000 0.400000 0.300000 0.800000 3 1 0 0 0 0 - - - - - - - - - - - - - - - - - - - - - - - - - -
      >
      FLOATPOS 0 0 0 0
      FXID {E60C4B8A-9D8A-49E2-AC0E-19CE20A9D81E}
      WAK 0 0
    >
    <ITEM
      POSITION 0
      LENGTH 7.838258400000001
      LOOP 0
      ALLTAKES 0
      FADEIN 0 0 0 0 0 0 0
      FADEOUT 0 0 0 0 0 0 0
      MUTE 0 0
      SEL 0
      IGUID {C15F483B-616D-459D-94D8-0C17C808AAE1}
      <SOURCE MIDI
        HASDATA 1 480 QN
        CCINTERP 32
        E 0 93 2a 7f
        E 32 83 2a 00
        E 80 93 2a 7f
        E 32 83 2a 00
        E 80 93 2a 7f
        E 32 83 2a 00
        E 80 93 2a 7f
        E 32 83 2a 00
        E 80 93 2a 7f
        E 32 83 2a 00
        E 80 93 2a 7f
        E 32 83 2a 00
        E 80 93 2a 7f
        E 32 83 2a 00
        E 80 93 2a 7f
        E 32 83 2a 00
        E 80 93 2a 7f
        E 32 83 2a 00
        E 80 93 2a 7f
        E 32 83 2a 00
        E 80 93 2a 7f
        E 32 83 2a 00
        E 80 93 2a 7f
        E 32 83 2a 00
        E 80 93 2a 7f
        E 32 83 2a 00
        E 304 93 2a 7f
        E 32 83 2a 00
        E 80 93 2a 7f
        E 32 83 2a 00
        E 304 93 2a 7f
        E 32 83 2a 00
        E 80 93 2a 7f
        E 32 83 2a 00
        E 304 93 2a 7f
        E 32 83 2a 00
        E 80 93 2a 7f
        E 32 83 2a 00
        E 304 93 2a 7f
        E 32 83 2a 00
        E 80 93 2a 7f
        E 32 83 2a 00
        E 304 93 2a 7f
        E 32 83 2a 00
        E 80 93 2a 7f
        E 32 83 2a 00
        E 304 93 2a 7f
        E 32 83 2a 00
        E 80 93 2a 7f
        E 32 83 2a 00
        E 304 93 2a 7f
        E 32 83 2a 00
        E 80 93 2a 7f
        E 32 83 2a 00
        E 304 93 2a 7f
        E 32 83 2a 00
        E 80 93 2a 7f
        E 32 83 2a 00
        E 304 93 2a 7f
        E 32 83 2a 00
        E 80 93 2a 7f
        E 32 83 2a 00
        E 304 93 2a 7f
        E 32 83 2a 00
        E 80 93 2a 7f
        E 32 83 2a 00
        E 304 93 2a 7f
        E 32 83 2a 00
        E 80 93 2a 7f
        E 32 83 2a 00
        E 304 93 2a 7f
        E 32 83 2a 00
        E 80 93 2a 7f
        E 32 83 2a 00
        E 80 93 2a 7f
        E 32 83 2a 00
        E 80 93 2a 7f
        E 32 83 2a 00
        E 80 93 2a 7f
        E 32 83 2a 00
        E 192 93 2a 7f
        E 32 83 2a 00
        E 80 93 2a 7f
        E 32 83 2a 00
        E 80 93 2a 7f
        E 32 83 2a 00
        E 80 93 2a 7f
        E 32 83 2a 00
        E 80 93 2a 7f
        E 32 83 2a 00
        E 80 93 2a 7f
        E 32 83 2a 00
        E 80 93 2a 7f
        E 32 83 2a 00
        E 80 b3 7b 00
        E 0 ff 2f 00
      >
    >
  >
>