<REAPER_PROJECT 0.1 "7.27/win64" 1707000000
  <NOTES 0 2
    |ReapNES Studio Project
    |MIDI Import - Amagon_title_rom_v1
  >
  RIPPLE 0
  GROUPOVERRIDE 0 0 0
  AUTOXFADE 129
  ENVATTACH 3
  POOLEDENVATTACH 0
  MIXERUIFLAGS 11 48
  ENVFADESZ10 40
  PEAKGAIN 1
  FEEDBACK 0
  PANLAW 1
  PROJOFFS 0 0 0
  MAXPROJLEN 0 0
  GRID 3199 8 1 8 1 0 0 0
  TIMEMODE 1 5 -1 30 0 0 -1
  VIDEO_CONFIG 0 0 65792
  PANMODE 3
  PANLAWFLAGS 3
  CURSOR 0
  ZOOM 100 0 0
  VZOOMEX 6 0
  USE_REC_CFG 0
  RECMODE 1
  SMPTESYNC 0 30 100 40 1000 300 0 0 1 0 0
  LOOP 0
  LOOPGRAN 0 4
  RECORD_PATH "Media" ""
  <RECORD_CFG
    ZXZhdxgAAQ==
  >
  <APPLYFX_CFG
  >
  RENDER_FILE ""
  RENDER_PATTERN ""
  RENDER_FMT 0 2 0
  RENDER_1X 0
  RENDER_RANGE 1 0 0 18 1000
  RENDER_RESAMPLE 3 0 1
  RENDER_ADDTOPROJ 0
  RENDER_STEMS 0
  RENDER_DITHER 0
  TIMELOCKMODE 1
  TEMPOENVLOCKMODE 1
  ITEMMIX 1
  DEFPITCHMODE 589824 0
  TAKELANE 1
  SAMPLERATE 44100 0 0
  <RENDER_CFG
    ZXZhdxgAAQ==
  >
  LOCK 1
  <METRONOME 6 2
    VOL 0.25 0.125
    BEATLEN 4
    FREQ 1760 880 1
    SAMPLES "" ""
    SPLIGNORE 0 0
    SPLDEF 2 660 "" 0
    SPLDEF 3 440 "" 0
    PATTERN 0 169
    PATTERNSTR ABBB
    MULT 1
  >
  GLOBAL_AUTO -1
  TEMPO 128.59999614200012 4 4
  PLAYRATE 1 0 0.25 4
  SELECTION 0 0
  SELECTION2 0 0
  MASTERAUTOMODE 0
  MASTERTRACKHEIGHT 0 0
  MASTERPEAKCOL 16576
  MASTERMUTESOLO 0
  MASTERTRACKVIEW 0 0.6667 0.5 0.5 0 0 0 0 0 0 0 0 0 0
  MASTERHWOUT 0 0 1 0 0 0 0 -1
  MASTER_NCH 2 2
  MASTER_VOLUME 1 0 -1 -1 1
  MASTER_PANMODE 3
  MASTER_PANLAWFLAGS 3
  MASTER_FX 1
  MASTER_SEL 0
  <MASTERPLAYSPEEDENV
    EGUID {2442BC8A-B9AB-44FB-8458-3E38E2A4BE70}
    ACT 0 -1
    VIS 0 1 1
    LANEHEIGHT 0 0
    ARM 0
    DEFSHAPE 0 -1 -1
  >
  <TEMPOENVEX
    EGUID {AD2E9898-B4C0-489A-9B9A-013BE13B281B}
    ACT 1 -1
    VIS 1 0 1
    LANEHEIGHT 0 0
    ARM 0
    DEFSHAPE 1 -1 -1
  >
  <PROJBAY
  >
  <TRACK {67BD23BC-1B15-4B03-B336-C93DC42DD685}
    NAME "NES - Pulse 1 [ch0]"
    PEAKCOL 16576606
    BEAT -1
    AUTOMODE 0
    PANLAWFLAGS 3
    VOLPAN 1 0 -1 -1 1
    MUTESOLO 0 0 0
    IPHASE 0
    PLAYOFFS 0 1
    ISBUS 0 0
    BUSCOMP 0 0 0 0 0
    SHOWINMIX 1 0.6667 0.5 1 0.5 0 0 0
    FIXEDLANES 9 0 0 0 0
    SEL 1
    REC 1 5088 1 0 0 0 0 0
    VU 2
    TRACKHEIGHT 0 0 0 0 0 0 0
    INQ 0 0 0 0.5 100 0 0 100
    NCHAN 2
    FX 1
    TRACKID {67BD23BC-1B15-4B03-B336-C93DC42DD685}
    PERF 0
    MIDIOUT -1
    MAINSEND 1 0
    <FXCHAIN
      WNDRECT 24 52 700 560
      SHOW 0
      LASTSEL 0
      DOCKED 0
      BYPASS 0 0 0
      <JS "ReapNES Studio/ReapNES_Console.jsfx" ""
        2 15 1 10 80 10 100 2 1 15 1 5 60 10 80 1 1 0 50 0 0 15 1 0 100 0 0 0.500000 0.500000 0.400000 0.300000 0.800000 0 1 0 0 0 0 - - - - - - - - - - - - - - - - - - - - - - - - - -
      >
      FLOATPOS 0 0 0 0
      FXID {FE7476E9-AE29-442D-A3EA-8A2B95970BC2}
      WAK 0 0
    >
    <ITEM
      POSITION 0
      LENGTH 8.367029800000001
      LOOP 0
      ALLTAKES 0
      FADEIN 0 0 0 0 0 0 0
      FADEOUT 0 0 0 0 0 0 0
      MUTE 0 0
      SEL 0
      IGUID {56D13564-8BE9-4099-B4BA-DFD59B976878}
      <SOURCE MIDI
        HASDATA 1 480 QN
        CCINTERP 32
        E 0 c0 50
        E 0 b0 0c 10
        E 0 b0 0b 7f
        E 0 90 45 7f
        E 48 b0 0b 77
        E 32 b0 0b 6e
        E 32 b0 0b 66
        E 32 b0 0b 55
        E 32 b0 0b 44
        E 208 b0 0b 7f
        E 0 80 45 00
        E 0 90 47 7f
        E 32 b0 0b 77
        E 32 b0 0b 6e
        E 32 b0 0b 66
        E 32 b0 0b 55
        E 48 b0 0b 44
        E 16 b0 0b 7f
        E 0 80 47 00
        E 0 90 49 7f
        E 32 b0 0b 77
        E 32 b0 0b 6e
        E 32 b0 0b 66
        E 32 b0 0b 55
        E 32 b0 0b 44
        E 224 b0 0b 7f
        E 0 80 49 00
        E 0 90 40 7f
        E 32 b0 0b 77
        E 32 b0 0b 6e
        E 48 b0 0b 66
        E 32 b0 0b 55
        E 32 b0 0b 44
        E 16 b0 0b 7f
        E 0 80 40 00
        E 0 90 3f 7f
        E 32 b0 0b 77
        E 32 b0 0b 6e
        E 32 b0 0b 66
        E 32 b0 0b 55
        E 32 b0 0b 44
        E 32 b0 0b 7f
        E 0 80 3f 00
        E 0 90 40 7f
        E 32 b0 0b 77
        E 32 b0 0b 6e
        E 32 b0 0b 66
        E 32 b0 0b 55
        E 32 b0 0b 44
        E 32 b0 0b 7f
        E 0 80 40 00
        E 0 90 45 7f
        E 48 b0 0b 77
        E 32 b0 0b 6e
        E 32 b0 0b 66
        E 32 b0 0b 55
        E 32 b0 0b 44
        E 16 b0 0b 7f
        E 0 80 45 00
        E 0 90 44 7f
        E 32 b0 0b 77
        E 32 b0 0b 6e
        E 32 b0 0b 66
        E 32 b0 0b 55
        E 32 b0 0b 44
        E 32 b0 0b 7f
        E 0 80 44 00
        E 0 90 43 7f
        E 32 b0 0b 77
        E 32 b0 0b 6e
        E 32 b0 0b 66
        E 32 b0 0b 55
        E 48 b0 0b 44
        E 208 b0 0b 7f
        E 0 80 43 00
        E 0 90 42 7f
        E 32 b0 0b 77
        E 32 b0 0b 6e
        E 32 b0 0b 66
        E 32 b0 0b 55
        E 32 b0 0b 44
        E 224 b0 0b 7f
        E 0 80 42 00
        E 0 90 45 7f
        E 32 b0 0b 77
        E 32 b0 0b 6e
        E 32 b0 0b 66
        E 32 b0 0b 55
        E 32 b0 0b 44
        E 224 b0 0b 7f
        E 0 80 45 00
        E 0 90 47 7f
        E 48 b0 0b 77
        E 32 b0 0b 6e
        E 32 b0 0b 66
        E 32 b0 0b 55
        E 32 b0 0b 44
        E 16 b0 0b 7f
        E 0 80 47 00
        E 0 90 45 7f
        E 32 b0 0b 77
        E 32 b0 0b 6e
        E 32 b0 0b 66
        E 32 b0 0b 55
        E 32 b0 0b 44
        E 32 b0 0b 7f
        E 0 80 45 00
        E 0 90 47 7f
        E 32 b0 0b 77
        E 32 b0 0b 6e
        E 32 b0 0b 66
        E 32 b0 0b 55
        E 48 b0 0b 44
        E 400 b0 0b 7f
        E 0 80 47 00
        E 0 90 49 7f
        E 32 b0 0b 77
        E 32 b0 0b 6e
        E 48 b0 0b 66
        E 32 b0 0b 55
        E 32 b0 0b 44
        E 16 b0 0b 7f
        E 0 80 49 00
        E 0 90 4a 7f
        E 32 b0 0b 77
        E 32 b0 0b 6e
        E 32 b0 0b 66
        E 32 b0 0b 55
        E 32 b0 0b 44
        E 224 b0 0b 7f
        E 0 80 4a 00
        E 0 90 47 7f
        E 48 b0 0b 77
        E 32 b0 0b 6e
        E 32 b0 0b 66
        E 32 b0 0b 55
        E 32 b0 0b 44
        E 208 b0 0b 7f
        E 0 80 47 00
        E 0 90 4c 7f
        E 32 b0 0b 77
        E 32 b0 0b 6e
        E 32 b0 0b 66
        E 32 b0 0b 55
        E 48 b0 0b 44
        E 592 b0 0b 7f
        E 0 80 4c 00
        E 0 90 4e 7f
        E 32 b0 0b 77
        E 32 b0 0b 6e
        E 32 b0 0b 66
        E 32 b0 0b 55
        E 32 b0 0b 44
        E 224 b0 0b 7f
        E 0 80 4e 00
        E 0 90 51 7f
        E 48 b0 0b 77
        E 32 b0 0b 6e
        E 32 b0 0b 66
        E 32 b0 0b 55
        E 32 b0 0b 44
        E 208 b0 0b 7f
        E 0 80 51 00
        E 0 90 53 7f
        E 32 b0 0b 77
        E 32 b0 0b 6e
        E 32 b0 0b 66
        E 32 b0 0b 55
        E 48 b0 0b 44
        E 16 b0 0b 7f
        E 0 80 53 00
        E 0 90 54 7f
        E 32 b0 0b 77
        E 32 b0 0b 6e
        E 32 b0 0b 66
        E 32 b0 0b 55
        E 32 b0 0b 44
        E 224 b0 0b 7f
        E 0 80 54 00
        E 0 90 4c 7f
        E 32 b0 0b 77
        E 32 b0 0b 6e
        E 48 b0 0b 66
        E 32 b0 0b 55
        E 32 b0 0b 44
        E 16 b0 0b 7f
        E 0 80 4c 00
        E 0 90 4b 7f
        E 32 b0 0b 77
        E 32 b0 0b 6e
        E 32 b0 0b 66
        E 32 b0 0b 55
        E 32 b0 0b 44
        E 32 b0 0b 7f
        E 0 80 4b 00
        E 0 90 4c 7f
        E 32 b0 0b 77
        E 32 b0 0b 6e
        E 32 b0 0b 66
        E 32 b0 0b 55
        E 32 b0 0b 44
        E 32 b0 0b 7f
        E 0 80 4c 00
        E 0 90 4e 7f
        E 48 b0 0b 77
        E 32 b0 0b 6e
        E 32 b0 0b 66
        E 32 b0 0b 55
        E 32 b0 0b 44
        E 16 b0 0b 7f
        E 0 80 4e 00
        E 0 90 4d 7f
        E 32 b0 0b 77
        E 32 b0 0b 6e
        E 32 b0 0b 66
        E 32 b0 0b 55
        E 32 b0 0b 44
        E 32 b0 0b 7f
        E 0 80 4d 00
        E 0 90 4c 7f
        E 32 b0 0b 77
        E 32 b0 0b 6e
        E 32 b0 0b 66
        E 32 b0 0b 55
        E 48 b0 0b 44
        E 208 b0 0b 7f
        E 0 80 4c 00
        E 0 90 4b 7f
        E 32 b0 0b 77
        E 32 b0 0b 6e
        E 32 b0 0b 66
        E 32 b0 0b 55
        E 32 80 4b 00
        E 0 b0 7b 00
        E 0 ff 2f 00
      >
    >
  >
  <TRACK {573563C5-9C17-47AF-910C-24AD37A05F27}
    NAME "NES - Pulse 2"
    PEAKCOL 10092441
    BEAT -1
    AUTOMODE 0
    PANLAWFLAGS 3
    VOLPAN 1 0 -1 -1 1
    MUTESOLO 0 0 0
    IPHASE 0
    PLAYOFFS 0 1
    ISBUS 0 0
    BUSCOMP 0 0 0 0 0
    SHOWINMIX 1 0.6667 0.5 1 0.5 0 0 0
    FIXEDLANES 9 0 0 0 0
    SEL 0
    REC 0 5088 1 0 0 0 0 0
    VU 2
    TRACKHEIGHT 0 0 0 0 0 0 0
    INQ 0 0 0 0.5 100 0 0 100
    NCHAN 2
    FX 1
    TRACKID {573563C5-9C17-47AF-910C-24AD37A05F27}
    PERF 0
    MIDIOUT -1
    MAINSEND 1 0
    <FXCHAIN
      WNDRECT 24 52 700 560
      SHOW 0
      LASTSEL 0
      DOCKED 0
      BYPASS 0 0 0
      <JS "ReapNES Studio/ReapNES_Console.jsfx" ""
        2 15 1 10 80 10 100 2 1 15 1 5 60 10 80 1 1 0 50 0 0 15 1 0 100 0 0 0.500000 0.500000 0.400000 0.300000 0.800000 1 1 0 0 0 0 - - - - - - - - - - - - - - - - - - - - - - - - - -
      >
      FLOATPOS 0 0 0 0
      FXID {D0FDA8CD-4F3D-4D9F-B622-8838BBC38DE8}
      WAK 0 0
    >
  >
  <TRACK {010541B9-88EA-44B2-94A3-20D2F3AA86B5}
    NAME "NES - Triangle [ch2]"
    PEAKCOL 16744192
    BEAT -1
    AUTOMODE 0
    PANLAWFLAGS 3
    VOLPAN 1 0 -1 -1 1
    MUTESOLO 0 0 0
    IPHASE 0
    PLAYOFFS 0 1
    ISBUS 0 0
    BUSCOMP 0 0 0 0 0
    SHOWINMIX 1 0.6667 0.5 1 0.5 0 0 0
    FIXEDLANES 9 0 0 0 0
    SEL 0
    REC 0 5088 1 0 0 0 0 0
    VU 2
    TRACKHEIGHT 0 0 0 0 0 0 0
    INQ 0 0 0 0.5 100 0 0 100
    NCHAN 2
    FX 1
    TRACKID {010541B9-88EA-44B2-94A3-20D2F3AA86B5}
    PERF 0
    MIDIOUT -1
    MAINSEND 1 0
    <FXCHAIN
      WNDRECT 24 52 700 560
      SHOW 0
      LASTSEL 0
      DOCKED 0
      BYPASS 0 0 0
      <JS "ReapNES Studio/ReapNES_Console.jsfx" ""
        2 15 1 10 80 10 100 2 1 15 1 5 60 10 80 1 1 0 50 0 0 15 1 0 100 0 0 0.500000 0.500000 0.400000 0.300000 0.800000 2 1 0 0 0 0 - - - - - - - - - - - - - - - - - - - - - - - - - -
      >
      FLOATPOS 0 0 0 0
      FXID {63C3317C-3D8D-4D9A-8BD3-A70DC6A630F0}
      WAK 0 0
    >
    <ITEM
      POSITION 0
      LENGTH 8.367029800000001
      LOOP 0
      ALLTAKES 0
      FADEIN 0 0 0 0 0 0 0
      FADEOUT 0 0 0 0 0 0 0
      MUTE 0 0
      SEL 0
      IGUID {66636D9C-E8E9-401F-8B5F-4C21BFBC3D2C}
      <SOURCE MIDI
        HASDATA 1 480 QN
        CCINTERP 32
        E 0 c2 26
        E 0 b2 0b 7f
        E 0 92 26 7f
        E 16 82 26 00
        E 0 b2 0b 7f
        E 0 92 25 7f
        E 192 82 25 00
        E 0 b2 0b 7f
        E 0 92 23 7f
        E 176 82 23 00
        E 0 b2 0b 7f
        E 0 92 1b 7f
        E 16 82 1b 00
        E 0 b2 0b 7f
        E 0 92 21 7f
        E 384 82 21 00
        E 0 b2 0b 7f
        E 0 92 1c 7f
        E 384 82 1c 00
        E 0 b2 0b 7f
        E 0 92 21 7f
        E 368 82 21 00
        E 0 b2 0b 7f
        E 0 92 2d 7f
        E 16 82 2d 00
        E 0 b2 0b 7f
        E 0 92 23 7f
        E 192 82 23 00
        E 0 b2 0b 7f
        E 0 92 25 7f
        E 192 82 25 00
        E 0 b2 0b 7f
        E 0 92 26 7f
        E 368 82 26 00
        E 0 b2 0b 7f
        E 0 92 1d 7f
        E 16 82 1d 00
        E 0 b2 0b 7f
        E 0 92 21 7f
        E 368 82 21 00
        E 0 b2 0b 7f
        E 0 92 2d 7f
        E 16 82 2d 00
        E 0 b2 0b 7f
        E 0 92 26 7f
        E 384 82 26 00
        E 0 b2 0b 7f
        E 0 92 25 7f
        E 192 82 25 00
        E 0 b2 0b 7f
        E 0 92 23 7f
        E 176 82 23 00
        E 0 b2 0b 7f
        E 0 92 1b 7f
        E 16 82 1b 00
        E 0 b2 0b 7f
        E 0 92 1c 7f
        E 176 82 1c 00
        E 0 b2 0b 7f
        E 0 92 24 7f
        E 16 82 24 00
        E 0 b2 0b 7f
        E 0 92 28 7f
        E 176 82 28 00
        E 0 b2 0b 7f
        E 0 92 1e 7f
        E 16 82 1e 00
        E 0 b2 0b 7f
        E 0 92 1d 7f
        E 176 82 1d 00
        E 0 b2 0b 7f
        E 0 92 26 7f
        E 16 82 26 00
        E 0 b2 0b 7f
        E 0 92 29 7f
        E 176 82 29 00
        E 0 b2 0b 7f
        E 0 92 1f 7f
        E 16 82 1f 00
        E 0 b2 0b 7f
        E 0 92 1c 7f
        E 176 82 1c 00
        E 0 b2 0b 7f
        E 0 92 24 7f
        E 16 82 24 00
        E 0 b2 0b 7f
        E 0 92 28 7f
        E 176 82 28 00
        E 0 b2 0b 7f
        E 0 92 1e 7f
        E 16 82 1e 00
        E 0 b2 0b 7f
        E 0 92 1b 7f
        E 176 82 1b 00
        E 0 b2 0b 7f
        E 0 92 22 7f
        E 16 82 22 00
        E 0 b2 0b 7f
        E 0 92 27 7f
        E 192 82 27 00
        E 0 b2 0b 7f
        E 0 92 26 7f
        E 368 82 26 00
        E 0 b2 0b 7f
        E 0 92 1d 7f
        E 16 82 1d 00
        E 0 b2 0b 7f
        E 0 92 21 7f
        E 368 82 21 00
        E 0 b2 0b 7f
        E 0 92 2d 7f
        E 16 82 2d 00
        E 0 b2 0b 7f
        E 0 92 26 7f
        E 384 82 26 00
        E 0 b2 0b 7f
        E 0 92 25 7f
        E 192 82 25 00
        E 0 b2 0b 7f
        E 0 92 23 7f
        E 176 82 23 00
        E 0 b2 0b 7f
        E 0 92 1b 7f
        E 16 82 1b 00
        E 0 b2 0b 7f
        E 0 92 21 7f
        E 384 82 21 00
        E 0 b2 0b 7f
        E 0 92 1c 7f
        E 384 82 1c 00
        E 0 b2 0b 7f
        E 0 92 21 7f
        E 368 82 21 00
        E 0 b2 0b 7f
        E 0 92 2d 7f
        E 16 82 2d 00
        E 0 b2 0b 7f
        E 0 92 23 7f
        E 192 82 23 00
        E 0 b2 0b 7f
        E 0 92 25 7f
        E 192 82 25 00
        E 0 b2 0b 7f
        E 0 92 27 7f
        E 384 82 27 00
        E 0 b2 0b 7f
        E 0 92 23 7f
        E 144 82 23 00
        E 0 b2 7b 00
        E 0 ff 2f 00
      >
    >
  >
  <TRACK {DF8A1EA6-28D9-42D8-8AE6-E2160CF0249E}
    NAME "NES - Noise / Drums [ch3]"
    PEAKCOL 11184810
    BEAT -1
    AUTOMODE 0
    PANLAWFLAGS 3
    VOLPAN 1 0 -1 -1 1
    MUTESOLO 0 0 0
    IPHASE 0
    PLAYOFFS 0 1
    ISBUS 0 0
    BUSCOMP 0 0 0 0 0
    SHOWINMIX 1 0.6667 0.5 1 0.5 0 0 0
    FIXEDLANES 9 0 0 0 0
    SEL 0
    REC 0 5088 1 0 0 0 0 0
    VU 2
    TRACKHEIGHT 0 0 0 0 0 0 0
    INQ 0 0 0 0.5 100 0 0 100
    NCHAN 2
    FX 1
    TRACKID {DF8A1EA6-28D9-42D8-8AE6-E2160CF0249E}
    PERF 0
    MIDIOUT -1
    MAINSEND 1 0
    <FXCHAIN
      WNDRECT 24 52 700 560
      SHOW 0
      LASTSEL 0
      DOCKED 0
      BYPASS 0 0 0
      <JS "ReapNES Studio/ReapNES_Console.jsfx" ""
        2 15 1 10 80 10 100 2 1 15 1 5 60 10 80 1 1 0 50 0 0 15 1 0 100 0 0 0.500000 0.500000 0.400000 0.300000 0.800000 3 1 0 0 0 0 - - - - - - - - - - - - - - - - - - - - - - - - - -
      >
      FLOATPOS 0 0 0 0
      FXID {E23C5745-CDC1-4D73-A9BB-42E09E5DBC0D}
      WAK 0 0
    >
    <ITEM
      POSITION 0
      LENGTH 8.367029800000001
      LOOP 0
      ALLTAKES 0
      FADEIN 0 0 0 0 0 0 0
      FADEOUT 0 0 0 0 0 0 0
      MUTE 0 0
      SEL 0
      IGUID {B4DAD049-6289-4FB1-B676-7B9A8D23325C}
      <SOURCE MIDI
        HASDATA 1 480 QN
        CCINTERP 32
        E 192 93 2a 2a
        E 128 83 2a 00
        E 64 93 2a 2a
        E 128 83 2a 00
        E 64 93 2a 2a
        E 128 83 2a 00
        E 256 93 2a 2a
        E 128 83 2a 00
        E 64 93 2a 2a
        E 128 83 2a 00
        E 64 93 2a 2a
        E 128 83 2a 00
        E 256 93 2a 2a
        E 128 83 2a 00
        E 64 93 2a 2a
        E 128 83 2a 00
        E 64 93 2a 2a
        E 128 83 2a 00
        E 256 93 2a 2a
        E 128 83 2a 00
        E 64 93 2a 2a
        E 128 83 2a 00
        E 64 93 2a 2a
        E 128 83 2a 00
        E 256 93 2a 2a
        E 128 83 2a 00
        E 64 93 2a 2a
        E 128 83 2a 00
        E 64 93 2a 2a
        E 128 83 2a 00
        E 256 93 2a 2a
        E 128 83 2a 00
        E 64 93 2a 2a
        E 128 83 2a 00
        E 64 93 2a 2a
        E 128 83 2a 00
        E 256 93 2a 2a
        E 128 83 2a 00
        E 64 93 2a 2a
        E 128 83 2a 00
        E 64 93 2a 2a
        E 128 83 2a 00
        E 256 93 2a 2a
        E 128 83 2a 00
        E 64 93 2a 2a
        E 128 83 2a 00
        E 64 93 2a 2a
        E 128 83 2a 00
        E 256 93 2a 2a
        E 128 83 2a 00
        E 64 93 2a 2a
        E 128 83 2a 00
        E 64 93 2a 2a
        E 128 83 2a 00
        E 256 93 2a 2a
        E 128 83 2a 00
        E 64 93 2a 2a
        E 128 83 2a 00
        E 64 93 2a 2a
        E 128 83 2a 00
        E 256 93 2a 2a
        E 128 83 2a 00
        E 64 93 2a 2a
        E 128 83 2a 00
        E 64 93 2a 2a
        E 128 83 2a 00
        E 224 b3 7b 00
        E 0 ff 2f 00
      >
    >
  >
>