<REAPER_PROJECT 0.1 "7.27/win64" 1707000000
  <NOTES 0 2
    |ReapNES Studio Project
    |MIDI Import - Maniac_Mansion_intro_rom_v1
  >
  RIPPLE 0
  GROUPOVERRIDE 0 0 0
  AUTOXFADE 129
  ENVATTACH 3
  POOLEDENVATTACH 0
  MIXERUIFLAGS 11 48
  ENVFADESZ10 40
  PEAKGAIN 1
  FEEDBACK 0
  PANLAW 1
  PROJOFFS 0 0 0
  MAXPROJLEN 0 0
  GRID 3199 8 1 8 1 0 0 0
  TIMEMODE 1 5 -1 30 0 0 -1
  VIDEO_CONFIG 0 0 65792
  PANMODE 3
  PANLAWFLAGS 3
  CURSOR 0
  ZOOM 100 0 0
  VZOOMEX 6 0
  USE_REC_CFG 0
  RECMODE 1
  SMPTESYNC 0 30 100 40 1000 300 0 0 1 0 0
  LOOP 0
  LOOPGRAN 0 4
  RECORD_PATH "Media" ""
  <RECORD_CFG
    ZXZhdxgAAQ==
  >
  <APPLYFX_CFG
  >
  RENDER_FILE ""
  RENDER_PATTERN ""
  RENDER_FMT 0 2 0
  RENDER_1X 0
  RENDER_RANGE 1 0 0 18 1000
  RENDER_RESAMPLE 3 0 1
  RENDER_ADDTOPROJ 0
  RENDER_STEMS 0
  RENDER_DITHER 0
  TIMELOCKMODE 1
  TEMPOENVLOCKMODE 1
  ITEMMIX 1
  DEFPITCHMODE 589824 0
  TAKELANE 1
  SAMPLERATE 44100 0 0
  <RENDER_CFG
    ZXZhdxgAAQ==
  >
  LOCK 1
  <METRONOME 6 2
    VOL 0.25 0.125
    BEATLEN 4
    FREQ 1760 880 1
    SAMPLES "" ""
    SPLIGNORE 0 0
    SPLDEF 2 660 "" 0
    SPLDEF 3 440 "" 0
    PATTERN 0 169
    PATTERNSTR ABBB
    MULT 1
  >
  GLOBAL_AUTO -1
  TEMPO 128.59999614200012 4 4
  PLAYRATE 1 0 0.25 4
  SELECTION 0 0
  SELECTION2 0 0
  MASTERAUTOMODE 0
  MASTERTRACKHEIGHT 0 0
  MASTERPEAKCOL 16576
  MASTERMUTESOLO 0
  MASTERTRACKVIEW 0 0.6667 0.5 0.5 0 0 0 0 0 0 0 0 0 0
  MASTERHWOUT 0 0 1 0 0 0 0 -1
  MASTER_NCH 2 2
  MASTER_VOLUME 1 0 -1 -1 1
  MASTER_PANMODE 3
  MASTER_PANLAWFLAGS 3
  MASTER_FX 1
  MASTER_SEL 0
  <MASTERPLAYSPEEDENV
    EGUID {8E6C0EA4-F432-449B-A1EE-84815704D91A}
    ACT 0 -1
    VIS 0 1 1
    LANEHEIGHT 0 0
    ARM 0
    DEFSHAPE 0 -1 -1
  >
  <TEMPOENVEX
    EGUID {6298C1E1-A5B0-4A50-A9B2-8A2C7519E30E}
    ACT 1 -1
    VIS 1 0 1
    LANEHEIGHT 0 0
    ARM 0
    DEFSHAPE 1 -1 -1
  >
  <PROJBAY
  >
  <TRACK {56DDBF43-EBF8-4995-8BC5-21E80D69F82A}
    NAME "NES - Pulse 1 [ch0]"
    PEAKCOL 16576606
    BEAT -1
    AUTOMODE 0
    PANLAWFLAGS 3
    VOLPAN 1 0 -1 -1 1
    MUTESOLO 0 0 0
    IPHASE 0
    PLAYOFFS 0 1
    ISBUS 0 0
    BUSCOMP 0 0 0 0 0
    SHOWINMIX 1 0.6667 0.5 1 0.5 0 0 0
    FIXEDLANES 9 0 0 0 0
    SEL 1
    REC 1 5088 1 0 0 0 0 0
    VU 2
    TRACKHEIGHT 0 0 0 0 0 0 0
    INQ 0 0 0 0.5 100 0 0 100
    NCHAN 2
    FX 1
    TRACKID {56DDBF43-EBF8-4995-8BC5-21E80D69F82A}
    PERF 0
    MIDIOUT -1
    MAINSEND 1 0
    <FXCHAIN
      WNDRECT 24 52 700 560
      SHOW 0
      LASTSEL 0
      DOCKED 0
      BYPASS 0 0 0
      <JS "ReapNES Studio/ReapNES_Console.jsfx" ""
        2 15 1 10 80 10 100 2 1 15 1 5 60 10 80 1 1 0 50 0 0 15 1 0 100 0 0 0.500000 0.500000 0.400000 0.300000 0.800000 0 1 0 0 0 0 - - - - - - - - - - - - - - - - - - - - - - - - - -
      >
      FLOATPOS 0 0 0 0
      FXID {7D17EC1C-0E72-4A47-BB5B-7788F251BA1E}
      WAK 0 0
    >
    <ITEM
      POSITION 0
      LENGTH 69.8600332
      LOOP 0
      ALLTAKES 0
      FADEIN 0 0 0 0 0 0 0
      FADEOUT 0 0 0 0 0 0 0
      MUTE 0 0
      SEL 0
      IGUID {034553B0-96FA-4F21-BA1C-16C918EFEC63}
      <SOURCE MIDI
        HASDATA 1 480 QN
        CCINTERP 32
        E 0 c0 50
        E 0 b0 0c 10
        E 0 b0 0b 2a
        E 0 90 6f 2a
        E 1600 80 6f 00
        E 0 90 6b 2a
        E 128 80 6b 00
        E 0 90 71 2a
        E 768 80 71 00
        E 0 90 6e 2a
        E 384 80 6e 00
        E 0 90 6b 2a
        E 4640 b0 0b 22
        E 0 80 6b 00
        E 0 90 5b 22
        E 8496 80 5b 00
        E 8336 b0 0c 60
        E 0 b0 0b 66
        E 0 90 2b 66
        E 16 b0 0b 55
        E 16 b0 0b 44
        E 16 b0 0b 33
        E 16 b0 0b 22
        E 16 b0 0b 11
        E 16 80 2b 00
        E 32 b0 0b 66
        E 0 90 32 66
        E 16 b0 0b 55
        E 16 b0 0b 44
        E 16 b0 0b 33
        E 16 b0 0b 22
        E 16 b0 0b 11
        E 16 80 32 00
        E 32 b0 0b 66
        E 0 90 37 66
        E 16 b0 0b 55
        E 16 b0 0b 44
        E 16 b0 0b 33
        E 16 b0 0b 22
        E 16 b0 0b 11
        E 16 80 37 00
        E 32 b0 0b 66
        E 0 90 3e 66
        E 16 b0 0b 55
        E 16 b0 0b 44
        E 16 b0 0b 33
        E 16 b0 0b 22
        E 16 b0 0b 11
        E 16 80 3e 00
        E 48 b0 0b 66
        E 0 90 43 66
        E 16 b0 0b 55
        E 16 b0 0b 44
        E 16 b0 0b 33
        E 16 b0 0b 22
        E 16 b0 0b 11
        E 16 80 43 00
        E 16 b0 0b 66
        E 0 90 3e 66
        E 16 b0 0b 55
        E 16 b0 0b 44
        E 16 b0 0b 33
        E 16 b0 0b 22
        E 16 b0 0b 11
        E 16 80 3e 00
        E 48 b0 0b 66
        E 0 90 4a 66
        E 16 b0 0b 55
        E 16 b0 0b 44
        E 16 b0 0b 33
        E 16 b0 0b 22
        E 16 b0 0b 11
        E 16 80 4a 00
        E 16 b0 0b 66
        E 0 90 43 66
        E 16 b0 0b 55
        E 16 b0 0b 44
        E 16 b0 0b 33
        E 16 b0 0b 22
        E 16 b0 0b 11
        E 16 80 43 00
        E 48 b0 0b 66
        E 0 90 4f 66
        E 16 b0 0b 55
        E 16 b0 0b 44
        E 16 b0 0b 33
        E 16 b0 0b 22
        E 16 b0 0b 11
        E 16 80 4f 00
        E 32 b0 0b 66
        E 0 90 43 66
        E 16 b0 0b 55
        E 16 b0 0b 44
        E 16 b0 0b 33
        E 16 b0 0b 22
        E 16 b0 0b 11
        E 16 80 43 00
        E 32 b0 0b 66
        E 0 90 3e 66
        E 16 b0 0b 55
        E 16 b0 0b 44
        E 16 b0 0b 33
        E 16 b0 0b 22
        E 16 b0 0b 11
        E 16 80 3e 00
        E 32 b0 0b 66
        E 0 90 37 66
        E 16 b0 0b 55
        E 16 b0 0b 44
        E 16 b0 0b 33
        E 16 b0 0b 22
        E 16 b0 0b 11
        E 16 80 37 00
        E 32 b0 0b 66
        E 0 90 32 66
        E 16 b0 0b 55
        E 16 b0 0b 44
        E 16 b0 0b 33
        E 16 b0 0b 22
        E 16 b0 0b 11
        E 16 80 32 00
        E 32 b0 0b 66
        E 0 90 37 66
        E 16 b0 0b 55
        E 16 b0 0b 44
        E 16 b0 0b 33
        E 16 b0 0b 22
        E 16 b0 0b 11
        E 16 80 37 00
        E 48 b0 0b 66
        E 0 90 3e 66
        E 16 b0 0b 55
        E 16 b0 0b 44
        E 16 b0 0b 33
        E 16 b0 0b 22
        E 16 b0 0b 11
        E 16 80 3e 00
        E 16 b0 0b 66
        E 0 90 43 66
        E 16 b0 0b 55
        E 16 b0 0b 44
        E 16 b0 0b 33
        E 16 b0 0b 22
        E 16 b0 0b 11
        E 16 80 43 00
        E 48 b0 0b 66
        E 0 90 3e 66
        E 16 b0 0b 55
        E 16 b0 0b 44
        E 16 b0 0b 33
        E 16 b0 0b 22
        E 16 b0 0b 11
        E 16 80 3e 00
        E 16 b0 0b 66
        E 0 90 37 66
        E 16 b0 0b 55
        E 16 b0 0b 44
        E 16 b0 0b 33
        E 16 b0 0b 22
        E 16 b0 0b 11
        E 16 80 37 00
        E 48 b0 0b 66
        E 0 90 32 66
        E 16 b0 0b 55
        E 16 b0 0b 44
        E 16 b0 0b 33
        E 16 b0 0b 22
        E 16 b0 0b 11
        E 16 80 32 00
        E 32 b0 0b 66
        E 0 90 37 66
        E 16 b0 0b 55
        E 16 b0 0b 44
        E 16 b0 0b 33
        E 16 b0 0b 22
        E 16 b0 0b 11
        E 16 80 37 00
        E 32 b0 0b 66
        E 0 90 3c 66
        E 16 b0 0b 55
        E 16 b0 0b 44
        E 16 b0 0b 33
        E 16 b0 0b 22
        E 16 b0 0b 11
        E 16 80 3c 00
        E 32 b0 0b 66
        E 0 90 43 66
        E 16 b0 0b 55
        E 16 b0 0b 44
        E 16 b0 0b 33
        E 16 b0 0b 22
        E 16 b0 0b 11
        E 16 80 43 00
        E 32 b0 0b 66
        E 0 90 4a 66
        E 16 b0 0b 55
        E 16 b0 0b 44
        E 16 b0 0b 33
        E 16 b0 0b 22
        E 16 b0 0b 11
        E 16 80 4a 00
        E 32 b0 0b 66
        E 0 90 4f 66
        E 16 b0 0b 55
        E 16 b0 0b 44
        E 16 b0 0b 33
        E 16 b0 0b 22
        E 16 b0 0b 11
        E 16 80 4f 00
        E 32 b0 0b 66
        E 0 90 4a 66
        E 16 b0 0b 55
        E 16 b0 0b 44
        E 16 b0 0b 33
        E 16 b0 0b 22
        E 16 b0 0b 11
        E 16 80 4a 00
        E 16 b0 0b 66
        E 0 90 43 66
        E 16 b0 0b 55
        E 16 b0 0b 44
        E 16 b0 0b 33
        E 16 b0 0b 22
        E 16 b0 0b 11
        E 16 80 43 00
        E 48 b0 0b 66
        E 0 90 3e 66
        E 16 b0 0b 55
        E 16 b0 0b 44
        E 16 b0 0b 33
        E 16 b0 0b 22
        E 16 b0 0b 11
        E 16 80 3e 00
        E 16 b0 0b 66
        E 0 90 37 66
        E 16 b0 0b 55
        E 16 b0 0b 44
        E 16 b0 0b 33
        E 16 b0 0b 22
        E 16 b0 0b 11
        E 16 80 37 00
        E 48 b0 0b 66
        E 0 90 32 66
        E 16 b0 0b 55
        E 16 b0 0b 44
        E 16 b0 0b 33
        E 16 b0 0b 22
        E 16 b0 0b 11
        E 16 80 32 00
        E 32 b0 0b 66
        E 0 90 3c 66
        E 16 b0 0b 55
        E 16 b0 0b 44
        E 16 b0 0b 33
        E 16 b0 0b 22
        E 16 b0 0b 11
        E 16 80 3c 00
        E 32 b0 0b 66
        E 0 90 4a 66
        E 16 b0 0b 55
        E 16 b0 0b 44
        E 16 b0 0b 33
        E 16 b0 0b 22
        E 16 b0 0b 11
        E 16 80 4a 00
        E 32 b0 0b 66
        E 0 90 37 66
        E 16 b0 0b 55
        E 16 b0 0b 44
        E 16 b0 0b 33
        E 16 b0 0b 22
        E 16 b0 0b 11
        E 16 80 37 00
        E 48 b0 0c 10
        E 0 b0 0b 6e
        E 0 90 43 6e
        E 96 b0 0b 66
        E 16 b0 0b 6e
        E 128 b0 0b 66
        E 16 b0 0b 6e
        E 112 b0 0b 66
        E 16 b0 0b 6e
        E 112 b0 0b 66
        E 16 b0 0b 6e
        E 0 80 43 00
        E 0 90 3e 6e
        E 112 b0 0b 66
        E 16 b0 0b 6e
        E 0 80 3e 00
        E 0 90 46 6e
        E 128 b0 0b 66
        E 16 b0 0b 5d
        E 16 b0 0b 55
        E 16 b0 0b 44
        E 16 b0 0b 3b
        E 16 b0 0b 33
        E 16 b0 0b 2a
        E 16 b0 0b 19
        E 16 b0 0b 6e
        E 0 80 46 00
        E 0 90 48 6e
        E 128 b0 0b 66
        E 16 b0 0b 5d
        E 16 b0 0b 55
        E 16 b0 0b 44
        E 16 b0 0b 3b
        E 16 b0 0b 33
        E 16 b0 0b 2a
        E 16 b0 0b 19
        E 16 b0 0b 6e
        E 0 80 48 00
        E 0 90 43 6e
        E 128 b0 0b 66
        E 16 b0 0b 5d
        E 16 b0 0b 55
        E 16 b0 0b 44
        E 16 b0 0b 3b
        E 16 b0 0b 33
        E 16 b0 0b 2a
        E 16 b0 0b 19
        E 16 b0 0b 6e
        E 0 80 43 00
        E 0 90 3e 6e
        E 128 b0 0b 66
        E 16 b0 0b 6e
        E 0 80 3e 00
        E 0 90 3c 6e
        E 112 b0 0b 66
        E 16 b0 0b 6e
        E 0 80 3c 00
        E 0 90 3a 6e
        E 128 80 3a 00
        E 0 90 37 6e
        E 112 b0 0b 66
        E 16 b0 0b 6e
        E 0 80 37 00
        E 0 90 41 6e
        E 128 b0 0b 66
        E 16 b0 0b 5d
        E 16 b0 0b 55
        E 16 b0 0b 44
        E 16 b0 0b 3b
        E 16 b0 0b 33
        E 16 b0 0b 2a
        E 16 b0 0b 19
        E 16 b0 0b 11
        E 16 b0 0b 08
        E 16 80 41 00
        E 224 b0 0b 6e
        E 0 90 24 6e
        E 64 80 24 00
        E 0 90 26 6e
        E 80 80 26 00
        E 0 90 27 6e
        E 48 80 27 00
        E 0 90 29 6e
        E 64 80 29 00
        E 0 90 2b 6e
        E 80 80 2b 00
        E 0 90 2d 6e
        E 64 80 2d 00
        E 0 90 2e 6e
        E 48 80 2e 00
        E 0 90 30 6e
        E 64 80 30 00
        E 0 90 32 6e
        E 80 80 32 00
        E 0 90 33 6e
        E 64 80 33 00
        E 0 90 35 6e
        E 48 80 35 00
        E 0 90 37 6e
        E 80 80 37 00
        E 0 90 39 6e
        E 64 80 39 00
        E 0 90 3a 6e
        E 80 80 3a 00
        E 0 90 3c 6e
        E 48 80 3c 00
        E 0 90 3e 6e
        E 64 80 3e 00
        E 0 90 3f 6e
        E 64 80 3f 00
        E 0 90 41 6e
        E 80 80 41 00
        E 0 90 43 6e
        E 48 80 43 00
        E 0 90 45 6e
        E 64 80 45 00
        E 0 90 46 6e
        E 80 80 46 00
        E 0 90 48 6e
        E 64 80 48 00
        E 0 90 4a 6e
        E 48 80 4a 00
        E 0 90 4b 6e
        E 64 80 4b 00
        E 0 90 4d 6e
        E 80 80 4d 00
        E 0 90 4f 6e
        E 160 b0 0b 66
        E 64 b0 0b 5d
        E 64 b0 0b 55
        E 64 b0 0b 4c
        E 64 b0 0b 44
        E 64 b0 0b 3b
        E 32 b0 0b 6e
        E 0 80 4f 00
        E 0 90 43 6e
        E 160 b0 0b 66
        E 64 b0 0b 5d
        E 64 b0 0b 55
        E 64 b0 0b 4c
        E 64 b0 0b 44
        E 64 b0 0b 3b
        E 48 b0 0b 6e
        E 0 80 43 00
        E 0 90 46 6e
        E 112 80 46 00
        E 0 90 48 6e
        E 128 b0 0b 66
        E 16 b0 0b 5d
        E 16 b0 0b 55
        E 16 b0 0b 44
        E 16 b0 0b 3b
        E 16 b0 0b 33
        E 16 b0 0b 2a
        E 16 b0 0b 19
        E 16 b0 0b 11
        E 16 b0 0b 6e
        E 0 80 48 00
        E 0 90 3e 6e
        E 112 b0 0b 66
        E 16 b0 0b 5d
        E 16 b0 0b 55
        E 16 b0 0b 44
        E 16 b0 0b 3b
        E 16 b0 0b 33
        E 16 b0 0b 2a
        E 16 b0 0b 19
        E 16 b0 0b 11
        E 16 b0 0b 6e
        E 0 80 3e 00
        E 0 90 46 6e
        E 112 b0 0b 66
        E 16 b0 0b 5d
        E 16 b0 0b 55
        E 16 b0 0b 44
        E 16 b0 0b 3b
        E 16 b0 0b 33
        E 16 b0 0b 2a
        E 16 b0 0b 19
        E 16 b0 0b 11
        E 16 b0 0b 6e
        E 0 80 46 00
        E 0 90 45 6e
        E 112 b0 0b 66
        E 16 b0 0b 6e
        E 0 80 45 00
        E 0 90 3c 6e
        E 128 b0 0b 66
        E 16 b0 0b 5d
        E 16 b0 0b 55
        E 16 b0 0b 44
        E 16 b0 0b 3b
        E 16 b0 0b 33
        E 16 b0 0b 2a
        E 16 b0 0b 19
        E 16 b0 0b 6e
        E 0 80 3c 00
        E 0 90 41 6e
        E 128 80 41 00
        E 0 90 3a 6e
        E 112 b0 0b 66
        E 16 b0 0b 55
        E 16 b0 0b 4c
        E 16 b0 0b 3b
        E 16 b0 0b 33
        E 16 b0 0b 22
        E 16 b0 0b 19
        E 16 b0 0b 08
        E 16 80 3a 00
        E 32 b0 0b 6e
        E 0 90 3e 6e
        E 112 b0 0b 66
        E 16 b0 0b 5d
        E 16 b0 0b 55
        E 16 b0 0b 44
        E 16 b0 0b 3b
        E 16 b0 0b 33
        E 16 b0 0b 2a
        E 16 b0 0b 19
        E 16 b0 0b 11
        E 16 b0 0b 6e
        E 0 80 3e 00
        E 0 90 41 6e
        E 112 b0 0b 66
        E 16 b0 0b 55
        E 16 b0 0b 4c
        E 16 b0 0b 3b
        E 16 b0 0b 33
        E 16 b0 0b 22
        E 16 b0 0b 19
        E 16 b0 0b 08
        E 16 80 41 00
        E 16 b0 0b 6e
        E 0 90 41 6e
        E 112 b0 0b 66
        E 16 b0 0b 6e
        E 0 80 41 00
        E 0 90 3e 6e
        E 128 b0 0b 66
        E 16 b0 0b 55
        E 16 b0 0b 4c
        E 16 b0 0b 3b
        E 16 b0 0b 33
        E 16 b0 0b 22
        E 16 b0 0b 19
        E 16 b0 0b 08
        E 16 b0 0b 6e
        E 0 80 3e 00
        E 0 90 41 6e
        E 128 b0 0b 66
        E 16 b0 0b 6e
        E 0 80 41 00
        E 0 90 3e 6e
        E 96 b0 0b 66
        E 16 b0 0b 6e
        E 0 80 3e 00
        E 0 90 41 6e
        E 128 b0 0b 66
        E 16 b0 0b 6e
        E 0 80 41 00
        E 0 90 43 6e
        E 112 b0 0b 66
        E 16 b0 0b 55
        E 16 b0 0b 4c
        E 16 b0 0b 3b
        E 16 b0 0b 33
        E 16 b0 0b 22
        E 16 b0 0b 19
        E 16 b0 0b 08
        E 16 80 43 00
        E 4016 b0 0b 6e
        E 0 90 26 6e
        E 288 b0 0b 66
        E 64 b0 0b 5d
        E 64 b0 0b 55
        E 64 b0 0b 4c
        E 64 b0 0b 44
        E 64 b0 0b 3b
        E 64 b0 0b 33
        E 64 b0 0b 2a
        E 64 b0 0b 22
        E 64 b0 0b 19
        E 64 b0 0b 11
        E 64 b0 0b 08
        E 48 b0 0b 6e
        E 0 80 26 00
        E 0 90 32 6e
        E 288 b0 0b 66
        E 64 b0 0b 5d
        E 64 b0 0b 55
        E 64 b0 0b 4c
        E 64 b0 0b 44
        E 64 b0 0b 3b
        E 64 b0 0b 33
        E 64 b0 0b 2a
        E 64 b0 0b 22
        E 64 b0 0b 19
        E 64 b0 0b 11
        E 64 b0 0b 08
        E 48 b0 0b 6e
        E 0 80 32 00
        E 0 90 3e 6e
        E 288 b0 0b 66
        E 64 b0 0b 5d
        E 64 b0 0b 55
        E 64 b0 0b 4c
        E 64 b0 0b 44
        E 64 b0 0b 3b
        E 64 b0 0b 33
        E 64 b0 0b 2a
        E 64 b0 0b 22
        E 64 b0 0b 19
        E 64 b0 0b 11
        E 64 b0 0b 08
        E 32 b0 0c 20
        E 0 b0 0b 6e
        E 0 80 3e 00
        E 0 90 2b 6e
        E 48 b0 0c 40
        E 16 b0 0b 66
        E 16 b0 0c 20
        E 0 b0 0b 6e
        E 0 80 2b 00
        E 0 90 2d 6e
        E 48 b0 0c 40
        E 16 b0 0c 20
        E 0 80 2d 00
        E 0 90 2e 6e
        E 48 b0 0b 66
        E 16 b0 0b 6e
        E 0 80 2e 00
        E 0 90 30 6e
        E 48 b0 0b 66
        E 16 b0 0b 6e
        E 0 80 30 00
        E 0 90 32 6e
        E 48 b0 0c 40
        E 16 b0 0c 20
        E 0 80 32 00
        E 0 90 34 6e
        E 48 b0 0c 40
        E 16 b0 0b 66
        E 16 b0 0c 20
        E 0 b0 0b 6e
        E 0 80 34 00
        E 0 90 35 6e
        E 48 80 35 00
        E 0 90 37 6e
        E 48 b0 0c 40
        E 16 b0 0c 20
        E 0 80 37 00
        E 0 90 39 6e
        E 48 b0 0c 40
        E 16 b0 0b 66
        E 16 b0 0c 20
        E 0 b0 0b 6e
        E 0 80 39 00
        E 0 90 3a 6e
        E 48 b0 0b 66
        E 16 b0 0b 6e
        E 0 80 3a 00
        E 0 90 3c 6e
        E 48 80 3c 00
        E 0 90 3e 6e
        E 48 b0 0c 40
        E 16 b0 0c 20
        E 0 80 3e 00
        E 0 90 40 6e
        E 48 b0 0c 40
        E 16 b0 0b 66
        E 16 b0 0c 20
        E 0 b0 0b 6e
        E 0 80 40 00
        E 0 90 41 6e
        E 48 b0 0c 40
        E 16 b0 0c 20
        E 0 80 41 00
        E 0 90 43 6e
        E 48 80 43 00
        E 0 90 45 6e
        E 48 b0 0c 40
        E 16 b0 0b 66
        E 16 b0 0c 20
        E 0 b0 0b 6e
        E 0 80 45 00
        E 0 90 46 6e
        E 48 b0 0c 40
        E 80 b0 0c 20
        E 0 80 46 00
        E 0 90 45 6e
        E 48 b0 0c 40
        E 64 b0 0b 66
        E 16 b0 0c 20
        E 0 b0 0b 6e
        E 0 80 45 00
        E 0 90 43 6e
        E 48 b0 0c 40
        E 80 b0 0b 66
        E 16 b0 0b 5d
        E 16 b0 0b 55
        E 16 b0 0b 44
        E 16 b0 0b 3b
        E 16 b0 0b 33
        E 16 b0 0b 2a
        E 16 b0 0b 19
        E 16 b0 0c 20
        E 0 b0 0b 6e
        E 48 b0 0c 40
        E 80 b0 0b 66
        E 16 b0 0b 5d
        E 16 b0 0b 55
        E 16 b0 0b 44
        E 16 b0 0b 3b
        E 16 b0 0b 33
        E 16 b0 0b 2a
        E 16 b0 0b 19
        E 16 b0 0c 20
        E 0 b0 0b 6e
        E 0 80 43 00
        E 0 90 45 6e
        E 48 b0 0c 40
        E 80 b0 0b 66
        E 16 b0 0c 20
        E 0 b0 0b 6e
        E 0 80 45 00
        E 0 90 43 6e
        E 48 b0 0c 40
        E 64 b0 0b 66
        E 16 b0 0b 5d
        E 16 b0 0b 55
        E 16 b0 0b 44
        E 16 b0 0b 3b
        E 16 b0 0b 33
        E 16 b0 0b 2a
        E 16 b0 0b 19
        E 16 b0 0b 11
        E 16 b0 0c 20
        E 0 b0 0b 6e
        E 48 b0 0c 40
        E 64 b0 0b 66
        E 16 b0 0b 5d
        E 16 b0 0b 55
        E 16 b0 0b 44
        E 16 b0 0b 3b
        E 16 b0 0b 33
        E 16 b0 0b 2a
        E 16 b0 0b 19
        E 16 b0 0b 11
        E 16 b0 0c 20
        E 0 b0 0b 6e
        E 0 80 43 00
        E 0 90 46 6e
        E 48 b0 0c 40
        E 64 b0 0b 66
        E 16 b0 0c 20
        E 0 b0 0b 6e
        E 0 80 46 00
        E 0 90 4a 6e
        E 48 b0 0c 40
        E 80 b0 0b 66
        E 16 b0 0c 20
        E 0 b0 0b 6e
        E 0 80 4a 00
        E 0 90 46 6e
        E 48 b0 0c 40
        E 64 b0 0b 66
        E 16 b0 0b 5d
        E 16 b0 0b 55
        E 16 b0 0b 44
        E 16 b0 0b 3b
        E 16 b0 0b 33
        E 16 b0 0b 2a
        E 16 b0 0b 19
        E 16 b0 0b 11
        E 16 b0 0c 20
        E 0 b0 0b 6e
        E 48 b0 0c 40
        E 64 b0 0b 66
        E 16 b0 0c 20
        E 0 b0 0b 6e
        E 48 b0 0c 40
        E 48 b0 0b 66
        E 16 b0 0c 20
        E 0 b0 0b 6e
        E 0 80 46 00
        E 0 90 45 6e
        E 48 b0 0c 40
        E 64 b0 0c 20
        E 0 80 45 00
        E 0 90 43 6e
        E 48 b0 0c 40
        E 96 b0 0b 66
        E 16 b0 0b 5d
        E 16 b0 0b 55
        E 16 b0 0b 44
        E 16 b0 0b 3b
        E 16 b0 0b 33
        E 16 b0 0b 2a
        E 16 b0 0b 19
        E 16 b0 0c 20
        E 0 b0 0b 6e
        E 48 b0 0c 40
        E 80 b0 0b 66
        E 16 b0 0b 5d
        E 16 b0 0b 55
        E 16 b0 0b 44
        E 16 b0 0b 3b
        E 16 b0 0b 33
        E 16 b0 0b 2a
        E 16 b0 0b 19
        E 16 b0 0c 20
        E 0 b0 0b 6e
        E 0 80 43 00
        E 0 90 45 6e
        E 48 b0 0c 40
        E 80 b0 0b 66
        E 16 b0 0c 20
        E 0 b0 0b 6e
        E 0 80 45 00
        E 0 90 43 6e
        E 48 b0 0c 40
        E 64 b0 0b 66
        E 16 b0 0b 5d
        E 16 b0 0b 55
        E 16 b0 0b 44
        E 16 b0 0b 3b
        E 16 b0 0b 33
        E 16 b0 0b 2a
        E 16 b0 0b 19
        E 16 b0 0b 11
        E 16 b0 0c 20
        E 0 b0 0b 6e
        E 0 80 43 00
        E 0 90 46 6e
        E 48 b0 0c 40
        E 64 b0 0b 66
        E 16 b0 0b 5d
        E 16 b0 0b 55
        E 16 b0 0b 44
        E 16 b0 0b 3b
        E 16 b0 0b 33
        E 16 b0 0b 2a
        E 16 b0 0b 19
        E 16 b0 0b 11
        E 16 b0 0c 20
        E 0 b0 0b 6e
        E 0 80 46 00
        E 0 90 4a 6e
        E 48 b0 0c 40
        E 64 b0 0b 66
        E 16 b0 0c 20
        E 0 b0 0b 6e
        E 0 80 4a 00
        E 0 90 4e 6e
        E 48 b0 0c 40
        E 80 b0 0c 20
        E 0 80 4e 00
        E 0 90 4f 6e
        E 48 b0 0c 40
        E 64 b0 0b 66
        E 16 b0 0c 20
        E 0 b0 0b 6e
        E 0 80 4f 00
        E 0 90 4e 6e
        E 48 b0 0c 40
        E 80 b0 0b 66
        E 16 b0 0c 20
        E 0 b0 0b 6e
        E 0 80 4e 00
        E 0 90 4a 6e
        E 48 b0 0c 40
        E 64 b0 0c 20
        E 0 80 4a 00
        E 0 90 46 6e
        E 48 b0 0c 40
        E 80 b0 0b 66
        E 16 b0 0c 20
        E 0 b0 0b 6e
        E 0 80 46 00
        E 0 90 45 6e
        E 48 b0 0c 40
        E 64 b0 0c 20
        E 0 80 45 00
        E 0 90 43 6e
        E 48 b0 0c 40
        E 96 b0 0b 66
        E 16 b0 0b 5d
        E 16 b0 0b 55
        E 16 b0 0b 44
        E 16 b0 0b 3b
        E 16 b0 0b 33
        E 16 b0 0b 2a
        E 16 b0 0b 19
        E 16 b0 0c 20
        E 0 b0 0b 6e
        E 48 b0 0c 40
        E 80 b0 0b 66
        E 16 b0 0b 5d
        E 16 b0 0b 55
        E 16 b0 0b 44
        E 16 b0 0b 3b
        E 16 b0 0b 33
        E 16 b0 0b 2a
        E 16 b0 0b 19
        E 16 b0 0c 20
        E 0 b0 0b 6e
        E 0 80 43 00
        E 0 90 45 6e
        E 48 b0 0c 40
        E 80 b0 0c 20
        E 0 80 45 00
        E 0 90 43 6e
        E 48 b0 0c 40
        E 80 b0 0b 66
        E 16 b0 0b 5d
        E 16 b0 0b 55
        E 16 b0 0b 44
        E 16 b0 0b 3b
        E 16 b0 0b 33
        E 16 b0 0b 2a
        E 16 b0 0b 19
        E 16 b0 0b 11
        E 16 b0 0c 20
        E 0 b0 0b 6e
        E 0 80 43 00
        E 0 90 46 6e
        E 48 b0 0c 40
        E 64 b0 0b 66
        E 16 b0 0b 5d
        E 16 b0 0b 55
        E 16 b0 0b 44
        E 16 b0 0b 3b
        E 16 b0 0b 33
        E 16 b0 0b 2a
        E 16 b0 0b 19
        E 16 b0 0b 11
        E 16 b0 0c 20
        E 0 b0 0b 6e
        E 48 b0 0c 40
        E 64 b0 0b 66
        E 16 b0 0c 20
        E 0 b0 0b 6e
        E 48 b0 0c 40
        E 64 b0 0b 66
        E 16 b0 0b 5d
        E 16 b0 0b 55
        E 16 b0 0b 44
        E 16 b0 0b 3b
        E 16 b0 0b 33
        E 16 b0 0b 2a
        E 16 b0 0b 19
        E 16 b0 0b 11
        E 16 b0 0c 20
        E 0 b0 0b 6e
        E 0 80 46 00
        E 0 90 45 6e
        E 48 b0 0c 40
        E 80 b0 0b 66
        E 16 b0 0b 5d
        E 16 b0 0b 55
        E 16 b0 0b 44
        E 16 b0 0b 3b
        E 16 b0 0b 33
        E 16 b0 0b 2a
        E 16 b0 0b 19
        E 16 b0 0c 20
        E 0 b0 0b 6e
        E 0 80 45 00
        E 0 90 3e 6e
        E 48 b0 0c 40
        E 80 b0 0b 66
        E 16 b0 0c 20
        E 0 b0 0b 6e
        E 0 80 3e 00
        E 0 90 41 6e
        E 48 b0 0c 40
        E 48 b0 0b 66
        E 16 b0 0c 20
        E 0 b0 0b 6e
        E 0 80 41 00
        E 0 90 43 6e
        E 48 b0 0c 40
        E 80 b0 0b 66
        E 16 b0 0b 5d
        E 16 b0 0b 55
        E 16 b0 0b 44
        E 16 b0 0b 3b
        E 16 b0 0b 33
        E 16 b0 0b 2a
        E 16 b0 0b 19
        E 16 b0 0b 11
        E 16 b0 0c 10
        E 0 b0 0b 6e
        E 0 80 43 00
        E 0 90 46 6e
        E 128 b0 0b 66
        E 16 b0 0b 55
        E 16 b0 0b 4c
        E 16 b0 0b 3b
        E 16 b0 0b 33
        E 16 b0 0b 22
        E 16 b0 0b 19
        E 16 b0 0b 08
        E 16 b0 0c 20
        E 0 b0 0b 6e
        E 0 80 46 00
        E 0 90 41 6e
        E 48 b0 0c 40
        E 80 b0 0c 20
        E 0 80 41 00
        E 0 90 43 6e
        E 48 b0 0c 40
        E 80 b0 0b 66
        E 16 b0 0b 5d
        E 16 b0 0b 55
        E 16 b0 0b 44
        E 16 b0 0b 3b
        E 16 b0 0b 33
        E 16 b0 0b 2a
        E 16 b0 0b 19
        E 16 b0 0b 11
        E 16 b0 0c 20
        E 0 b0 0b 6e
        E 0 80 43 00
        E 0 90 3f 6e
        E 48 b0 0c 40
        E 64 b0 0c 20
        E 0 80 3f 00
        E 0 90 3a 6e
        E 48 b0 0c 40
        E 80 b0 0b 66
        E 16 b0 0c 20
        E 0 b0 0b 6e
        E 0 80 3a 00
        E 0 90 3f 6e
        E 48 b0 0c 40
        E 64 b0 0c 20
        E 0 80 3f 00
        E 0 90 38 6e
        E 48 b0 0c 40
        E 80 b0 0b 66
        E 16 b0 0c 20
        E 0 b0 0b 6e
        E 0 80 38 00
        E 0 90 46 6e
        E 48 b0 0c 40
        E 64 b0 0b 66
        E 16 b0 0c 20
        E 0 b0 0b 6e
        E 0 80 46 00
        E 0 90 3d 6e
        E 48 b0 0c 40
        E 80 b0 0c 20
        E 0 80 3d 00
        E 0 90 34 6e
        E 48 b0 0c 40
        E 64 b0 0b 66
        E 16 b0 0c 20
        E 0 b0 0b 6e
        E 0 80 34 00
        E 0 90 46 6e
        E 48 b0 0c 40
        E 64 b0 0c 20
        E 0 80 46 00
        E 0 90 45 6e
        E 48 b0 0c 40
        E 80 b0 0b 66
        E 16 b0 0c 20
        E 0 b0 0b 6e
        E 0 80 45 00
        E 0 90 43 6e
        E 48 b0 0c 40
        E 64 b0 0b 66
        E 16 b0 0b 5d
        E 16 b0 0b 55
        E 16 b0 0b 44
        E 16 b0 0b 3b
        E 16 b0 0b 33
        E 16 b0 0b 2a
        E 16 b0 0b 19
        E 16 b0 0c 20
        E 0 b0 0b 6e
        E 48 b0 0c 40
        E 80 b0 0b 66
        E 16 b0 0b 5d
        E 16 b0 0b 55
        E 16 b0 0b 44
        E 16 b0 0b 3b
        E 16 b0 0b 33
        E 16 b0 0b 2a
        E 16 b0 0b 19
        E 16 b0 0c 20
        E 0 b0 0b 6e
        E 0 80 43 00
        E 0 90 45 6e
        E 48 b0 0c 40
        E 80 b0 0b 66
        E 16 b0 0c 20
        E 0 b0 0b 6e
        E 0 80 45 00
        E 0 90 43 6e
        E 48 b0 0c 40
        E 64 b0 0b 66
        E 16 b0 0b 5d
        E 16 b0 0b 55
        E 16 b0 0b 44
        E 16 b0 0b 3b
        E 16 b0 0b 33
        E 16 b0 0b 2a
        E 16 b0 0b 19
        E 16 b0 0b 11
        E 16 b0 0c 20
        E 0 b0 0b 6e
        E 48 b0 0c 40
        E 64 b0 0b 66
        E 16 b0 0b 5d
        E 16 b0 0b 55
        E 16 b0 0b 44
        E 16 b0 0b 3b
        E 16 b0 0b 33
        E 16 b0 0b 2a
        E 16 b0 0b 19
        E 16 b0 0b 11
        E 16 b0 0c 20
        E 0 b0 0b 6e
        E 0 80 43 00
        E 0 90 46 6e
        E 48 b0 0c 40
        E 64 b0 0b 66
        E 16 b0 0c 20
        E 0 b0 0b 6e
        E 0 80 46 00
        E 0 90 4a 6e
        E 48 b0 0c 40
        E 80 b0 0b 66
        E 16 b0 0c 20
        E 0 b0 0b 6e
        E 0 80 4a 00
        E 0 90 46 6e
        E 48 b0 0c 40
        E 64 b0 0b 66
        E 16 b0 0b 5d
        E 16 b0 0b 55
        E 16 b0 0b 44
        E 16 b0 0b 3b
        E 16 b0 0b 33
        E 16 b0 0b 2a
        E 16 b0 0b 19
        E 16 b0 0b 11
        E 16 b0 0c 20
        E 0 b0 0b 6e
        E 48 b0 0c 40
        E 64 b0 0b 66
        E 16 b0 0c 20
        E 0 b0 0b 6e
        E 48 b0 0c 40
        E 80 b0 0c 20
        E 0 80 46 00
        E 0 90 45 6e
        E 48 b0 0c 40
        E 64 b0 0b 66
        E 16 b0 0c 20
        E 0 b0 0b 6e
        E 0 80 45 00
        E 0 90 43 6e
        E 48 b0 0c 40
        E 80 b0 0b 66
        E 16 b0 0b 5d
        E 16 b0 0b 55
        E 16 b0 0b 44
        E 16 b0 0b 3b
        E 16 b0 0b 33
        E 16 b0 0b 2a
        E 16 b0 0b 19
        E 16 b0 0c 20
        E 0 b0 0b 6e
        E 48 b0 0c 40
        E 80 b0 0b 66
        E 16 b0 0b 5d
        E 16 b0 0b 55
        E 16 b0 0b 44
        E 16 b0 0b 3b
        E 16 b0 0b 33
        E 16 b0 0b 2a
        E 16 b0 0b 19
        E 16 b0 0c 20
        E 0 b0 0b 6e
        E 0 80 43 00
        E 0 90 45 6e
        E 48 b0 0c 40
        E 80 b0 0b 66
        E 16 b0 0c 20
        E 0 b0 0b 6e
        E 0 80 45 00
        E 0 90 43 6e
        E 48 b0 0c 40
        E 64 b0 0b 66
        E 16 b0 0c 20
        E 0 b0 0b 6e
        E 0 80 43 00
        E 0 90 4b 6e
        E 48 b0 0c 40
        E 80 b0 0c 20
        E 0 80 4b 00
        E 0 90 42 6e
        E 48 b0 0c 40
        E 64 b0 0b 66
        E 16 b0 0c 20
        E 0 b0 0b 6e
        E 0 80 42 00
        E 0 90 47 6e
        E 48 b0 0c 40
        E 80 b0 0c 20
        E 0 80 47 00
        E 0 90 49 6e
        E 48 b0 0c 40
        E 64 b0 0b 66
        E 16 b0 0c 20
        E 0 b0 0b 6e
        E 0 80 49 00
        E 0 90 44 6e
        E 48 b0 0c 40
        E 80 b0 0b 66
        E 16 b0 0c 20
        E 0 b0 0b 6e
        E 0 80 44 00
        E 0 90 4c 6e
        E 48 b0 0c 40
        E 64 b0 0c 20
        E 0 80 4c 00
        E 0 90 46 6e
        E 48 b0 0c 40
        E 80 b0 0b 66
        E 16 b0 0c 20
        E 0 b0 0b 6e
        E 0 80 46 00
        E 0 90 3e 6e
        E 48 b0 0c 40
        E 64 b0 0c 20
        E 0 80 3e 00
        E 0 90 46 6e
        E 48 b0 0c 40
        E 80 b0 0b 66
        E 16 b0 0c 20
        E 0 b0 0b 6e
        E 0 80 46 00
        E 0 90 45 6e
        E 48 b0 0c 40
        E 64 b0 0b 66
        E 16 b0 0c 20
        E 0 b0 0b 6e
        E 0 80 45 00
        E 0 90 43 6e
        E 48 b0 0c 40
        E 80 b0 0b 66
        E 16 b0 0b 5d
        E 16 b0 0b 55
        E 16 b0 0b 44
        E 16 b0 0b 3b
        E 16 b0 0b 33
        E 16 b0 0b 2a
        E 16 b0 0b 19
        E 16 b0 0c 20
        E 0 b0 0b 6e
        E 48 b0 0c 40
        E 80 b0 0b 66
        E 16 b0 0b 5d
        E 16 b0 0b 55
        E 16 b0 0b 44
        E 16 b0 0b 3b
        E 16 b0 0b 33
        E 16 b0 0b 2a
        E 16 b0 0b 19
        E 16 b0 0c 20
        E 0 b0 0b 6e
        E 0 80 43 00
        E 0 90 45 6e
        E 48 b0 0c 40
        E 80 b0 0b 66
        E 16 b0 0c 20
        E 0 b0 0b 6e
        E 0 80 45 00
        E 0 90 43 6e
        E 48 b0 0c 40
        E 64 b0 0b 66
        E 16 b0 0b 5d
        E 16 b0 0b 55
        E 16 b0 0b 44
        E 16 b0 0b 3b
        E 16 b0 0b 33
        E 16 b0 0b 2a
        E 16 b0 0b 19
        E 16 b0 0b 11
        E 16 b0 0c 20
        E 0 b0 0b 6e
        E 0 80 43 00
        E 0 90 36 6e
        E 48 b0 0c 40
        E 64 b0 0b 66
        E 16 b0 0c 20
        E 0 b0 0b 6e
        E 0 80 36 00
        E 0 90 41 6e
        E 48 b0 0c 40
        E 80 b0 0c 20
        E 0 80 41 00
        E 0 90 3d 6e
        E 48 b0 0c 40
        E 64 b0 0b 66
        E 16 b0 0c 20
        E 0 b0 0b 6e
        E 0 80 3d 00
        E 0 90 48 6e
        E 48 b0 0c 40
        E 80 b0 0b 66
        E 16 b0 0c 20
        E 0 b0 0b 6e
        E 0 80 48 00
        E 0 90 44 6e
        E 48 b0 0c 40
        E 48 b0 0b 66
        E 16 b0 0c 20
        E 0 b0 0b 6e
        E 0 80 44 00
        E 0 90 4b 6e
        E 48 b0 0c 40
        E 80 b0 0b 66
        E 16 b0 0c 20
        E 0 b0 0b 6e
        E 0 80 4b 00
        E 0 90 41 6e
        E 48 b0 0c 40
        E 64 b0 0c 20
        E 0 80 41 00
        E 0 90 3e 6e
        E 48 b0 0c 40
        E 80 b0 0b 66
        E 16 b0 0c 20
        E 0 b0 0b 6e
        E 0 80 3e 00
        E 0 90 41 6e
        E 48 b0 0c 40
        E 64 b0 0b 66
        E 16 b0 0c 20
        E 0 b0 0b 6e
        E 0 80 41 00
        E 0 90 43 6e
        E 48 b0 0c 40
        E 80 b0 0b 66
        E 16 b0 0b 5d
        E 16 b0 0b 55
        E 16 b0 0b 44
        E 16 b0 0b 3b
        E 16 b0 0b 33
        E 16 b0 0b 2a
        E 16 b0 0b 19
        E 16 b0 0c 10
        E 0 b0 0b 6e
        E 0 80 43 00
        E 0 90 46 6e
        E 112 b0 0b 66
        E 16 b0 0b 55
        E 16 b0 0b 4c
        E 16 b0 0b 3b
        E 16 b0 0b 33
        E 16 b0 0b 22
        E 16 b0 0b 19
        E 16 b0 0b 08
        E 16 b0 0c 20
        E 0 b0 0b 6e
        E 0 80 46 00
        E 0 90 41 6e
        E 48 b0 0c 40
        E 80 b0 0b 66
        E 16 b0 0c 20
        E 0 b0 0b 6e
        E 0 80 41 00
        E 0 90 43 6e
        E 48 b0 0c 40
        E 64 b0 0b 66
        E 16 b0 0b 5d
        E 16 b0 0b 55
        E 16 b0 0b 44
        E 16 b0 0b 3b
        E 16 b0 0b 33
        E 16 b0 0b 2a
        E 16 b0 0b 19
        E 16 b0 0b 11
        E 16 b0 0c 20
        E 0 b0 0b 6e
        E 0 80 43 00
        E 0 90 4a 6e
        E 48 b0 0c 40
        E 64 b0 0c 20
        E 0 80 4a 00
        E 0 90 41 6e
        E 48 b0 0c 40
        E 80 b0 0b 66
        E 16 b0 0c 20
        E 0 b0 0b 6e
        E 0 80 41 00
        E 0 90 3c 6e
        E 48 b0 0c 40
        E 64 b0 0b 66
        E 16 b0 0c 20
        E 0 b0 0b 6e
        E 0 80 3c 00
        E 0 90 45 6e
        E 48 b0 0c 40
        E 80 b0 0c 20
        E 0 80 45 00
        E 0 90 3e 6e
        E 48 b0 0c 40
        E 64 b0 0b 66
        E 16 b0 0c 20
        E 0 b0 0b 6e
        E 0 80 3e 00
        E 0 90 39 6e
        E 48 b0 0c 40
        E 80 b0 0c 20
        E 0 80 39 00
        E 0 90 37 6e
        E 48 b0 0c 40
        E 64 b0 0b 66
        E 16 b0 0c 10
        E 0 b0 0b 6e
        E 0 80 37 00
        E 0 90 1f 6e
        E 128 b0 0b 66
        E 16 b0 0b 55
        E 16 b0 0b 4c
        E 16 b0 0b 3b
        E 16 b0 0b 33
        E 16 b0 0b 22
        E 16 b0 0b 19
        E 16 b0 0b 08
        E 16 80 1f 00
        E 256 b0 0b 6e
        E 0 90 2b 6e
        E 128 b0 0b 66
        E 16 b0 0b 55
        E 16 b0 0b 4c
        E 16 b0 0b 3b
        E 16 b0 0b 33
        E 16 b0 0b 22
        E 16 b0 0b 19
        E 16 b0 0b 08
        E 16 80 2b 00
        E 400 b0 0b 6e
        E 0 90 2b 6e
        E 64 b0 0b 66
        E 16 b0 0b 55
        E 16 b0 0b 4c
        E 16 b0 0b 3b
        E 16 b0 0b 6e
        E 0 80 2b 00
        E 0 90 1d 6e
        E 496 b0 0b 66
        E 16 b0 0b 55
        E 16 b0 0b 6e
        E 0 80 1d 00
        E 0 90 1e 6e
        E 240 b0 0b 66
        E 16 b0 0b 6e
        E 0 80 1e 00
        E 0 90 1f 6e
        E 128 b0 0b 66
        E 16 b0 0b 55
        E 16 b0 0b 4c
        E 16 b0 0b 3b
        E 16 b0 0b 33
        E 16 b0 0b 22
        E 16 b0 0b 19
        E 16 b0 0b 08
        E 16 80 1f 00
        E 256 b0 0b 6e
        E 0 90 2b 6e
        E 128 b0 0b 66
        E 16 b0 0b 55
        E 16 b0 0b 4c
        E 16 b0 0b 3b
        E 16 b0 0b 33
        E 16 b0 0b 22
        E 16 b0 0b 19
        E 16 b0 0b 08
        E 16 80 2b 00
        E 400 b0 0b 6e
        E 0 90 2b 6e
        E 64 b0 0b 66
        E 16 b0 0b 55
        E 16 b0 0b 4c
        E 16 b0 0b 3b
        E 16 b0 0b 33
        E 16 b0 0b 22
        E 16 b0 0b 19
        E 16 b0 0b 08
        E 16 80 2b 00
        E 448 b0 0b 6e
        E 0 90 22 6e
        E 128 b0 0b 66
        E 16 b0 0b 6e
        E 0 80 22 00
        E 0 90 1f 6e
        E 112 b0 0b 66
        E 16 b0 0b 6e
        E 128 b0 0b 66
        E 16 b0 0b 55
        E 16 b0 0b 4c
        E 16 b0 0b 3b
        E 16 b0 0b 33
        E 16 b0 0b 22
        E 16 b0 0b 19
        E 16 b0 0b 08
        E 16 80 1f 00
        E 256 b0 0b 6e
        E 0 90 2b 6e
        E 128 b0 0b 66
        E 16 b0 0b 55
        E 16 b0 0b 4c
        E 16 b0 0b 3b
        E 16 b0 0b 33
        E 16 b0 0b 22
        E 16 b0 0b 19
        E 16 b0 0b 08
        E 16 80 2b 00
        E 384 b0 0b 6e
        E 0 90 2b 6e
        E 64 b0 0b 66
        E 16 b0 0b 55
        E 16 b0 0b 4c
        E 16 b0 0b 6e
        E 0 80 2b 00
        E 0 90 1d 6e
        E 496 b0 0b 66
        E 16 b0 0b 55
        E 16 b0 0b 6e
        E 0 80 1d 00
        E 0 90 1e 6e
        E 256 80 1e 00
        E 0 90 1f 6e
        E 144 b0 0b 66
        E 16 b0 0b 55
        E 16 b0 0b 4c
        E 16 b0 0b 3b
        E 16 b0 0b 33
        E 16 b0 0b 22
        E 16 b0 0b 19
        E 16 b0 0b 08
        E 16 80 1f 00
        E 256 b0 0b 6e
        E 0 90 2b 6e
        E 128 b0 0b 66
        E 16 b0 0b 55
        E 16 b0 0b 4c
        E 16 b0 0b 3b
        E 16 b0 0b 33
        E 16 b0 0b 22
        E 16 b0 0b 19
        E 16 b0 0b 08
        E 16 80 2b 00
        E 400 b0 0b 6e
        E 0 90 2b 6e
        E 64 b0 0b 66
        E 16 b0 0b 55
        E 16 b0 0b 4c
        E 16 b0 0b 3b
        E 16 b0 0b 33
        E 16 b0 0b 22
        E 16 b0 0b 19
        E 16 b0 0b 08
        E 16 80 2b 00
        E 464 b0 0b 6e
        E 0 90 22 6e
        E 112 b0 0b 66
        E 16 b0 0b 6e
        E 0 80 22 00
        E 0 90 1f 6e
        E 240 b0 0b 66
        E 16 b0 0b 55
        E 16 b0 0b 4c
        E 16 b0 0b 3b
        E 16 b0 0b 33
        E 16 b0 0b 22
        E 16 b0 0b 19
        E 16 b0 0b 08
        E 16 80 1f 00
        E 288 b0 0b 6e
        E 0 90 2b 6e
        E 112 b0 0b 66
        E 16 b0 0b 55
        E 16 b0 0b 4c
        E 16 b0 0b 3b
        E 16 b0 0b 33
        E 16 b0 0b 22
        E 16 b0 0b 19
        E 16 b0 0b 08
        E 16 80 2b 00
        E 400 b0 0b 6e
        E 0 90 2b 6e
        E 64 b0 0b 66
        E 16 b0 0b 55
        E 16 b0 0b 4c
        E 16 b0 0b 3b
        E 16 b0 0b 6e
        E 0 80 2b 00
        E 0 90 1d 6e
        E 496 b0 0b 66
        E 16 b0 0b 55
        E 16 b0 0b 6e
        E 0 80 1d 00
        E 0 90 1e 6e
        E 176 80 1e 00
        E 0 b0 7b 00
        E 0 ff 2f 00
      >
    >
  >
  <TRACK {BAA6B38F-37DD-4CD6-8E81-CF741382D707}
    NAME "NES - Pulse 2 [ch1]"
    PEAKCOL 10092441
    BEAT -1
    AUTOMODE 0
    PANLAWFLAGS 3
    VOLPAN 1 0 -1 -1 1
    MUTESOLO 0 0 0
    IPHASE 0
    PLAYOFFS 0 1
    ISBUS 0 0
    BUSCOMP 0 0 0 0 0
    SHOWINMIX 1 0.6667 0.5 1 0.5 0 0 0
    FIXEDLANES 9 0 0 0 0
    SEL 0
    REC 0 5088 1 0 0 0 0 0
    VU 2
    TRACKHEIGHT 0 0 0 0 0 0 0
    INQ 0 0 0 0.5 100 0 0 100
    NCHAN 2
    FX 1
    TRACKID {BAA6B38F-37DD-4CD6-8E81-CF741382D707}
    PERF 0
    MIDIOUT -1
    MAINSEND 1 0
    <FXCHAIN
      WNDRECT 24 52 700 560
      SHOW 0
      LASTSEL 0
      DOCKED 0
      BYPASS 0 0 0
      <JS "ReapNES Studio/ReapNES_Console.jsfx" ""
        2 15 1 10 80 10 100 2 1 15 1 5 60 10 80 1 1 0 50 0 0 15 1 0 100 0 0 0.500000 0.500000 0.400000 0.300000 0.800000 1 1 0 0 0 0 - - - - - - - - - - - - - - - - - - - - - - - - - -
      >
      FLOATPOS 0 0 0 0
      FXID {BA81291A-354F-4974-BAAA-30D173932232}
      WAK 0 0
    >
    <ITEM
      POSITION 0
      LENGTH 69.8600332
      LOOP 0
      ALLTAKES 0
      FADEIN 0 0 0 0 0 0 0
      FADEOUT 0 0 0 0 0 0 0
      MUTE 0 0
      SEL 0
      IGUID {9A36BBED-2A07-4829-B75A-5C939380AD74}
      <SOURCE MIDI
        HASDATA 1 480 QN
        CCINTERP 32
        E 0 c1 51
        E 64 b1 0c 10
        E 0 b1 0b 2a
        E 0 91 6a 2a
        E 128 81 6a 00
        E 0 91 68 2a
        E 384 81 68 00
        E 0 91 66 2a
        E 192 81 66 00
        E 0 91 6c 2a
        E 128 81 6c 00
        E 0 91 6a 2a
        E 320 81 6a 00
        E 0 91 66 2a
        E 128 81 66 00
        E 0 91 69 2a
        E 704 81 69 00
        E 0 91 66 2a
        E 256 81 66 00
        E 0 91 6c 2a
        E 128 81 6c 00
        E 0 91 6a 2a
        E 256 81 6a 00
        E 0 91 66 2a
        E 128 81 66 00
        E 0 91 69 2a
        E 4704 b1 0b 22
        E 0 81 69 00
        E 0 91 5c 22
        E 8496 81 5c 00
        E 3680 b1 0c 40
        E 0 b1 0b 6e
        E 0 91 43 6e
        E 256 81 43 00
        E 0 91 35 6e
        E 256 b1 0c 10
        E 0 81 35 00
        E 0 91 1f 6e
        E 48 b1 0c 20
        E 48 b1 0c 40
        E 16 b1 0b 66
        E 16 b1 0c 10
        E 0 b1 0b 6e
        E 48 b1 0c 20
        E 48 b1 0c 40
        E 32 b1 0b 66
        E 16 b1 0b 5d
        E 16 b1 0b 55
        E 16 b1 0b 44
        E 16 b1 0b 3b
        E 16 b1 0b 33
        E 16 b1 0b 2a
        E 16 b1 0b 19
        E 16 b1 0c 10
        E 0 b1 0b 6e
        E 48 b1 0c 20
        E 48 b1 0c 40
        E 32 b1 0b 66
        E 16 b1 0b 5d
        E 16 b1 0b 55
        E 16 b1 0b 44
        E 16 b1 0b 3b
        E 16 b1 0b 33
        E 16 b1 0b 2a
        E 16 b1 0b 19
        E 16 b1 0c 10
        E 0 b1 0b 6e
        E 48 b1 0c 20
        E 48 b1 0c 40
        E 48 b1 0b 66
        E 16 b1 0b 5d
        E 16 b1 0b 55
        E 16 b1 0b 44
        E 16 b1 0b 3b
        E 16 b1 0b 33
        E 16 b1 0b 2a
        E 16 b1 0c 10
        E 0 b1 0b 6e
        E 48 b1 0c 20
        E 48 b1 0c 40
        E 32 b1 0c 10
        E 48 b1 0c 20
        E 48 b1 0c 40
        E 16 b1 0b 66
        E 16 b1 0b 5d
        E 16 b1 0b 55
        E 16 b1 0b 44
        E 16 b1 0b 3b
        E 16 b1 0b 33
        E 16 b1 0b 2a
        E 16 b1 0b 19
        E 16 b1 0b 11
        E 16 b1 0c 10
        E 0 b1 0b 6e
        E 0 81 1f 00
        E 0 91 21 6e
        E 48 b1 0c 20
        E 48 b1 0c 40
        E 16 b1 0b 66
        E 16 b1 0b 5d
        E 16 b1 0b 55
        E 16 b1 0b 44
        E 16 b1 0b 3b
        E 16 b1 0b 33
        E 16 b1 0b 2a
        E 16 b1 0b 19
        E 16 b1 0b 11
        E 16 b1 0c 10
        E 0 b1 0b 6e
        E 0 81 21 00
        E 0 91 22 6e
        E 48 b1 0c 20
        E 48 b1 0c 40
        E 32 b1 0b 66
        E 16 b1 0b 5d
        E 16 b1 0b 55
        E 16 b1 0b 44
        E 16 b1 0b 3b
        E 16 b1 0b 33
        E 16 b1 0b 2a
        E 16 b1 0b 19
        E 16 b1 0b 11
        E 16 b1 0c 10
        E 0 b1 0b 6e
        E 0 81 22 00
        E 0 91 23 6e
        E 48 b1 0c 20
        E 48 b1 0c 40
        E 16 b1 0b 66
        E 16 b1 0b 5d
        E 16 b1 0b 55
        E 16 b1 0b 44
        E 16 b1 0b 3b
        E 16 b1 0b 33
        E 16 b1 0b 2a
        E 16 b1 0b 19
        E 16 b1 0b 11
        E 16 b1 0c 10
        E 0 b1 0b 6e
        E 0 81 23 00
        E 0 91 1f 6e
        E 48 b1 0c 20
        E 48 b1 0c 40
        E 16 b1 0b 66
        E 16 b1 0c 10
        E 0 b1 0b 6e
        E 48 b1 0c 20
        E 48 b1 0c 40
        E 32 b1 0b 66
        E 16 b1 0b 5d
        E 16 b1 0b 55
        E 16 b1 0b 44
        E 16 b1 0b 3b
        E 16 b1 0b 33
        E 16 b1 0b 2a
        E 16 b1 0b 19
        E 16 b1 0c 10
        E 0 b1 0b 6e
        E 48 b1 0c 20
        E 48 b1 0c 40
        E 32 b1 0b 66
        E 16 b1 0b 5d
        E 16 b1 0b 55
        E 16 b1 0b 44
        E 16 b1 0b 3b
        E 16 b1 0b 33
        E 16 b1 0b 2a
        E 16 b1 0b 19
        E 16 b1 0c 10
        E 0 b1 0b 6e
        E 48 b1 0c 20
        E 48 b1 0c 40
        E 32 b1 0b 66
        E 16 b1 0b 5d
        E 16 b1 0b 55
        E 16 b1 0b 44
        E 16 b1 0b 3b
        E 16 b1 0b 33
        E 16 b1 0b 2a
        E 16 b1 0b 19
        E 16 b1 0c 10
        E 0 b1 0b 6e
        E 48 b1 0c 20
        E 48 b1 0c 40
        E 32 b1 0b 66
        E 16 b1 0c 10
        E 0 b1 0b 6e
        E 48 b1 0c 20
        E 48 b1 0c 40
        E 16 b1 0b 66
        E 16 b1 0b 5d
        E 16 b1 0b 55
        E 16 b1 0b 44
        E 16 b1 0b 3b
        E 16 b1 0b 33
        E 16 b1 0b 2a
        E 16 b1 0b 19
        E 16 b1 0b 11
        E 16 b1 0c 10
        E 0 b1 0b 6e
        E 0 81 1f 00
        E 0 91 1c 6e
        E 48 b1 0c 20
        E 48 b1 0c 40
        E 16 b1 0b 66
        E 16 b1 0b 5d
        E 16 b1 0b 55
        E 16 b1 0b 44
        E 16 b1 0b 3b
        E 16 b1 0b 33
        E 16 b1 0b 2a
        E 16 b1 0b 19
        E 16 b1 0b 11
        E 16 b1 0c 10
        E 0 b1 0b 6e
        E 0 81 1c 00
        E 0 91 1d 6e
        E 48 b1 0c 20
        E 48 b1 0c 40
        E 16 b1 0b 66
        E 16 b1 0b 5d
        E 16 b1 0b 55
        E 16 b1 0b 44
        E 16 b1 0b 3b
        E 16 b1 0b 33
        E 16 b1 0b 2a
        E 16 b1 0b 19
        E 16 b1 0b 11
        E 16 b1 0b 08
        E 16 b1 0c 10
        E 0 b1 0b 6e
        E 0 81 1d 00
        E 0 91 1e 6e
        E 48 b1 0c 20
        E 48 b1 0c 40
        E 16 b1 0b 66
        E 16 b1 0b 5d
        E 16 b1 0b 55
        E 16 b1 0b 44
        E 16 b1 0b 3b
        E 16 b1 0b 33
        E 16 b1 0b 2a
        E 16 b1 0b 19
        E 16 b1 0b 11
        E 16 b1 0c 10
        E 0 b1 0b 6e
        E 0 81 1e 00
        E 0 91 1f 6e
        E 48 b1 0c 20
        E 48 b1 0c 40
        E 16 b1 0b 66
        E 16 b1 0c 10
        E 0 b1 0b 6e
        E 48 b1 0c 20
        E 48 b1 0c 40
        E 32 b1 0b 66
        E 16 b1 0b 5d
        E 16 b1 0b 55
        E 16 b1 0b 44
        E 16 b1 0b 3b
        E 16 b1 0b 33
        E 16 b1 0b 2a
        E 16 b1 0b 19
        E 16 b1 0c 10
        E 0 b1 0b 6e
        E 48 b1 0c 20
        E 48 b1 0c 40
        E 32 b1 0b 66
        E 16 b1 0b 5d
        E 16 b1 0b 55
        E 16 b1 0b 44
        E 16 b1 0b 3b
        E 16 b1 0b 33
        E 16 b1 0b 2a
        E 16 b1 0b 19
        E 16 b1 0c 10
        E 0 b1 0b 6e
        E 48 b1 0c 20
        E 48 b1 0c 40
        E 32 b1 0b 66
        E 16 b1 0b 5d
        E 16 b1 0b 55
        E 16 b1 0b 44
        E 16 b1 0b 3b
        E 16 b1 0b 33
        E 16 b1 0b 2a
        E 16 b1 0b 19
        E 16 b1 0c 10
        E 0 b1 0b 6e
        E 48 b1 0c 20
        E 48 b1 0c 40
        E 32 b1 0b 66
        E 16 b1 0c 10
        E 0 b1 0b 6e
        E 48 b1 0c 20
        E 48 b1 0c 40
        E 16 b1 0b 66
        E 16 b1 0b 5d
        E 16 b1 0b 55
        E 16 b1 0b 44
        E 16 b1 0b 3b
        E 16 b1 0b 33
        E 16 b1 0b 2a
        E 16 b1 0b 19
        E 16 b1 0b 11
        E 16 b1 0c 10
        E 0 b1 0b 6e
        E 0 81 1f 00
        E 0 91 21 6e
        E 48 b1 0c 20
        E 48 b1 0c 40
        E 16 b1 0b 66
        E 16 b1 0b 5d
        E 16 b1 0b 55
        E 16 b1 0b 44
        E 16 b1 0b 3b
        E 16 b1 0b 33
        E 16 b1 0b 2a
        E 16 b1 0b 19
        E 16 b1 0b 11
        E 16 b1 0c 10
        E 0 b1 0b 6e
        E 0 81 21 00
        E 0 91 22 6e
        E 48 b1 0c 20
        E 48 b1 0c 40
        E 16 b1 0b 66
        E 16 b1 0b 5d
        E 16 b1 0b 55
        E 16 b1 0b 44
        E 16 b1 0b 3b
        E 16 b1 0b 33
        E 16 b1 0b 2a
        E 16 b1 0b 19
        E 16 b1 0b 11
        E 16 b1 0b 08
        E 16 b1 0c 10
        E 0 b1 0b 6e
        E 0 81 22 00
        E 0 91 23 6e
        E 48 b1 0c 20
        E 48 b1 0c 40
        E 16 b1 0b 66
        E 16 b1 0b 5d
        E 16 b1 0b 55
        E 16 b1 0b 44
        E 16 b1 0b 3b
        E 16 b1 0b 33
        E 16 b1 0b 2a
        E 16 b1 0b 19
        E 16 b1 0b 11
        E 16 b1 0c 10
        E 0 b1 0b 6e
        E 0 81 23 00
        E 0 91 1f 6e
        E 48 b1 0c 20
        E 48 b1 0c 40
        E 16 b1 0c 10
        E 48 b1 0c 20
        E 48 b1 0c 40
        E 32 b1 0b 66
        E 16 b1 0b 5d
        E 16 b1 0b 55
        E 16 b1 0b 44
        E 16 b1 0b 3b
        E 16 b1 0b 33
        E 16 b1 0b 2a
        E 16 b1 0b 19
        E 16 b1 0b 11
        E 16 b1 0c 10
        E 0 b1 0b 6e
        E 48 b1 0c 20
        E 48 b1 0c 40
        E 32 b1 0b 66
        E 16 b1 0b 5d
        E 16 b1 0b 55
        E 16 b1 0b 44
        E 16 b1 0b 3b
        E 16 b1 0b 33
        E 16 b1 0b 2a
        E 16 b1 0b 19
        E 16 b1 0c 10
        E 0 b1 0b 6e
        E 48 b1 0c 20
        E 48 b1 0c 40
        E 32 b1 0b 66
        E 16 b1 0b 5d
        E 16 b1 0b 55
        E 16 b1 0b 44
        E 16 b1 0b 3b
        E 16 b1 0b 33
        E 16 b1 0b 2a
        E 16 b1 0b 19
        E 16 b1 0c 10
        E 0 b1 0b 6e
        E 48 b1 0c 20
        E 48 b1 0c 40
        E 16 b1 0b 66
        E 16 b1 0c 10
        E 0 b1 0b 6e
        E 48 b1 0c 20
        E 48 b1 0c 40
        E 16 b1 0c 10
        E 0 81 1f 00
        E 0 91 2b 6e
        E 48 b1 0c 20
        E 48 b1 0c 40
        E 32 b1 0b 66
        E 16 b1 0c 10
        E 0 b1 0b 6e
        E 0 81 2b 00
        E 0 91 1c 6e
        E 48 b1 0c 20
        E 48 b1 0c 40
        E 16 b1 0c 10
        E 0 81 1c 00
        E 0 91 28 6e
        E 48 b1 0c 20
        E 48 b1 0c 40
        E 32 b1 0b 66
        E 16 b1 0c 10
        E 0 b1 0b 6e
        E 0 81 28 00
        E 0 91 1d 6e
        E 48 b1 0c 20
        E 48 b1 0c 40
        E 16 b1 0b 66
        E 16 b1 0c 10
        E 0 b1 0b 6e
        E 0 81 1d 00
        E 0 91 29 6e
        E 48 b1 0c 20
        E 48 b1 0c 40
        E 32 b1 0c 10
        E 0 81 29 00
        E 0 91 1e 6e
        E 48 b1 0c 20
        E 48 b1 0c 40
        E 16 b1 0b 66
        E 16 b1 0c 10
        E 0 b1 0b 6e
        E 0 81 1e 00
        E 0 91 2a 6e
        E 48 b1 0c 20
        E 48 b1 0c 40
        E 32 b1 0b 66
        E 16 b1 0c 10
        E 0 b1 0b 6e
        E 0 81 2a 00
        E 0 91 1f 6e
        E 48 b1 0c 20
        E 48 b1 0c 40
        E 16 b1 0b 66
        E 16 b1 0b 5d
        E 16 b1 0b 55
        E 16 b1 0b 44
        E 16 b1 0b 3b
        E 16 b1 0b 33
        E 16 b1 0b 2a
        E 16 b1 0b 19
        E 16 b1 0b 11
        E 16 b1 0c 10
        E 0 b1 0b 6e
        E 48 b1 0c 20
        E 48 b1 0c 40
        E 16 b1 0c 10
        E 48 b1 0c 20
        E 48 b1 0c 40
        E 32 b1 0b 66
        E 16 b1 0c 10
        E 0 b1 0b 6e
        E 0 81 1f 00
        E 0 91 26 6e
        E 48 b1 0c 20
        E 48 b1 0c 40
        E 16 b1 0b 66
        E 16 b1 0c 10
        E 0 b1 0b 6e
        E 0 81 26 00
        E 0 91 1a 6e
        E 48 b1 0c 20
        E 48 b1 0c 40
        E 32 b1 0c 10
        E 0 81 1a 00
        E 0 91 1f 6e
        E 48 b1 0c 20
        E 48 b1 0c 40
        E 16 b1 0b 66
        E 16 b1 0b 5d
        E 16 b1 0b 55
        E 16 b1 0b 44
        E 16 b1 0b 3b
        E 16 b1 0b 33
        E 16 b1 0b 2a
        E 16 b1 0b 19
        E 16 b1 0b 11
        E 16 b1 0b 08
        E 16 81 1f 00
        E 112 b1 0c 10
        E 0 b1 0b 6e
        E 0 91 1a 6e
        E 48 b1 0c 20
        E 48 b1 0c 40
        E 32 b1 0b 66
        E 16 b1 0c 10
        E 0 b1 0b 6e
        E 0 81 1a 00
        E 0 91 1f 6e
        E 48 b1 0c 20
        E 48 b1 0c 40
        E 16 b1 0c 10
        E 0 81 1f 00
        E 0 91 1a 6e
        E 48 b1 0c 20
        E 48 b1 0c 40
        E 32 b1 0b 66
        E 16 b1 0c 10
        E 0 b1 0b 6e
        E 0 81 1a 00
        E 0 91 26 6e
        E 48 b1 0c 20
        E 48 b1 0c 40
        E 16 b1 0b 66
        E 16 b1 0c 10
        E 0 b1 0b 6e
        E 0 81 26 00
        E 0 91 1a 6e
        E 48 b1 0c 20
        E 48 b1 0c 40
        E 32 b1 0c 10
        E 0 81 1a 00
        E 0 91 1f 6e
        E 48 b1 0c 20
        E 48 b1 0c 40
        E 16 b1 0b 66
        E 16 b1 0b 5d
        E 16 b1 0b 55
        E 16 b1 0b 44
        E 16 b1 0b 3b
        E 16 b1 0b 33
        E 16 b1 0b 2a
        E 16 b1 0b 19
        E 16 b1 0b 11
        E 16 b1 0c 10
        E 0 b1 0b 6e
        E 0 81 1f 00
        E 0 91 21 6e
        E 48 b1 0c 20
        E 48 b1 0c 40
        E 16 b1 0b 66
        E 16 b1 0b 5d
        E 16 b1 0b 55
        E 16 b1 0b 44
        E 16 b1 0b 3b
        E 16 b1 0b 33
        E 16 b1 0b 2a
        E 16 b1 0b 19
        E 16 b1 0b 11
        E 16 b1 0c 10
        E 0 b1 0b 6e
        E 48 b1 0c 20
        E 48 b1 0c 40
        E 32 b1 0c 10
        E 48 b1 0c 20
        E 48 b1 0c 40
        E 32 b1 0b 66
        E 16 b1 0c 10
        E 0 b1 0b 6e
        E 0 81 21 00
        E 0 91 28 6e
        E 48 b1 0c 20
        E 48 b1 0c 40
        E 16 b1 0c 10
        E 0 81 28 00
        E 0 91 1c 6e
        E 48 b1 0c 20
        E 48 b1 0c 40
        E 32 b1 0b 66
        E 16 b1 0c 10
        E 0 b1 0b 6e
        E 0 81 1c 00
        E 0 91 21 6e
        E 48 b1 0c 20
        E 48 b1 0c 40
        E 16 b1 0b 66
        E 16 b1 0b 5d
        E 16 b1 0b 55
        E 16 b1 0b 44
        E 16 b1 0b 3b
        E 16 b1 0b 33
        E 16 b1 0b 2a
        E 16 b1 0b 19
        E 16 b1 0b 11
        E 16 b1 0b 08
        E 16 81 21 00
        E 112 b1 0c 10
        E 0 b1 0b 6e
        E 0 91 1c 6e
        E 48 b1 0c 20
        E 48 b1 0c 40
        E 32 b1 0b 66
        E 16 b1 0c 10
        E 0 b1 0b 6e
        E 0 81 1c 00
        E 0 91 21 6e
        E 48 b1 0c 20
        E 48 b1 0b 66
        E 16 b1 0c 10
        E 0 b1 0b 6e
        E 0 81 21 00
        E 0 91 1c 6e
        E 48 b1 0c 20
        E 48 b1 0c 40
        E 32 b1 0b 66
        E 16 b1 0c 10
        E 0 b1 0b 6e
        E 0 81 1c 00
        E 0 91 28 6e
        E 48 b1 0c 20
        E 48 b1 0c 40
        E 16 b1 0b 66
        E 16 b1 0c 10
        E 0 b1 0b 6e
        E 0 81 28 00
        E 0 91 1c 6e
        E 48 b1 0c 20
        E 48 b1 0c 40
        E 16 b1 0b 66
        E 16 b1 0c 10
        E 0 b1 0b 6e
        E 0 81 1c 00
        E 0 91 21 6e
        E 48 b1 0c 20
        E 48 b1 0c 40
        E 16 b1 0b 66
        E 16 b1 0b 5d
        E 16 b1 0b 55
        E 16 b1 0b 44
        E 16 b1 0b 3b
        E 16 b1 0c 10
        E 0 b1 0b 6e
        E 0 81 21 00
        E 0 91 22 6e
        E 48 b1 0c 20
        E 48 b1 0c 40
        E 16 b1 0b 66
        E 16 b1 0b 5d
        E 16 b1 0b 55
        E 16 b1 0b 44
        E 16 b1 0b 3b
        E 16 b1 0b 33
        E 16 b1 0b 2a
        E 16 b1 0b 19
        E 16 b1 0b 11
        E 16 b1 0c 10
        E 0 b1 0b 6e
        E 48 b1 0c 20
        E 48 b1 0c 40
        E 16 b1 0c 10
        E 48 b1 0c 20
        E 48 b1 0c 40
        E 48 b1 0c 10
        E 0 81 22 00
        E 0 91 29 6e
        E 48 b1 0c 20
        E 48 b1 0c 40
        E 32 b1 0c 10
        E 0 81 29 00
        E 0 91 1d 6e
        E 48 b1 0c 20
        E 48 b1 0c 40
        E 32 b1 0b 66
        E 16 b1 0c 10
        E 0 b1 0b 6e
        E 0 81 1d 00
        E 0 91 22 6e
        E 48 b1 0c 20
        E 48 b1 0c 40
        E 16 b1 0b 66
        E 16 b1 0b 5d
        E 16 b1 0b 55
        E 16 b1 0b 44
        E 16 b1 0b 3b
        E 16 b1 0b 33
        E 16 b1 0b 2a
        E 16 b1 0b 19
        E 16 b1 0b 11
        E 16 b1 0b 08
        E 16 81 22 00
        E 96 b1 0c 10
        E 0 b1 0b 6e
        E 0 91 1d 6e
        E 48 b1 0c 20
        E 48 b1 0c 40
        E 32 b1 0b 66
        E 16 b1 0c 10
        E 0 b1 0b 6e
        E 0 81 1d 00
        E 0 91 22 6e
        E 48 b1 0c 20
        E 48 b1 0c 40
        E 16 b1 0b 66
        E 16 b1 0c 10
        E 0 b1 0b 6e
        E 0 81 22 00
        E 0 91 1d 6e
        E 48 b1 0c 20
        E 48 b1 0c 40
        E 16 b1 0c 10
        E 0 81 1d 00
        E 0 91 29 6e
        E 48 b1 0c 20
        E 48 b1 0c 40
        E 32 b1 0b 66
        E 16 b1 0c 10
        E 0 b1 0b 6e
        E 0 81 29 00
        E 0 91 1d 6e
        E 48 b1 0c 20
        E 48 b1 0c 40
        E 16 b1 0c 10
        E 0 81 1d 00
        E 0 91 22 6e
        E 48 b1 0c 20
        E 48 b1 0c 40
        E 32 b1 0b 66
        E 16 b1 0b 5d
        E 16 b1 0b 55
        E 16 b1 0b 44
        E 16 b1 0b 3b
        E 16 b1 0b 33
        E 16 b1 0b 2a
        E 16 b1 0b 19
        E 16 b1 0b 11
        E 16 b1 0c 10
        E 0 b1 0b 6e
        E 0 81 22 00
        E 0 91 24 6e
        E 48 b1 0c 20
        E 48 b1 0c 40
        E 32 b1 0b 66
        E 16 b1 0b 5d
        E 16 b1 0b 55
        E 16 b1 0b 44
        E 16 b1 0b 3b
        E 16 b1 0b 33
        E 16 b1 0b 2a
        E 16 b1 0b 19
        E 16 b1 0c 10
        E 0 b1 0b 6e
        E 48 b1 0c 20
        E 48 b1 0c 40
        E 32 b1 0c 10
        E 48 b1 0c 20
        E 48 b1 0c 40
        E 16 b1 0b 66
        E 16 b1 0c 10
        E 0 b1 0b 6e
        E 0 81 24 00
        E 0 91 2b 6e
        E 48 b1 0c 20
        E 48 b1 0c 40
        E 32 b1 0b 66
        E 16 b1 0c 10
        E 0 b1 0b 6e
        E 0 81 2b 00
        E 0 91 1f 6e
        E 48 b1 0c 20
        E 48 b1 0c 40
        E 16 b1 0c 10
        E 0 81 1f 00
        E 0 91 24 6e
        E 48 b1 0c 20
        E 48 b1 0c 40
        E 32 b1 0b 66
        E 16 b1 0b 5d
        E 16 b1 0b 55
        E 16 b1 0b 44
        E 16 b1 0b 3b
        E 16 b1 0b 33
        E 16 b1 0b 2a
        E 16 b1 0b 19
        E 16 b1 0b 11
        E 16 b1 0b 08
        E 16 81 24 00
        E 112 b1 0c 10
        E 0 b1 0b 6e
        E 0 91 1f 6e
        E 48 b1 0c 20
        E 48 b1 0c 40
        E 16 b1 0b 66
        E 16 b1 0c 10
        E 0 b1 0b 6e
        E 0 81 1f 00
        E 0 91 24 6e
        E 48 b1 0c 20
        E 48 b1 0c 40
        E 32 b1 0c 10
        E 0 81 24 00
        E 0 91 1f 6e
        E 48 b1 0c 20
        E 48 b1 0c 40
        E 16 b1 0b 66
        E 16 b1 0c 10
        E 0 b1 0b 6e
        E 0 81 1f 00
        E 0 91 2b 6e
        E 48 b1 0c 20
        E 48 b1 0c 40
        E 32 b1 0b 66
        E 16 b1 0c 10
        E 0 b1 0b 6e
        E 0 81 2b 00
        E 0 91 1f 6e
        E 48 b1 0c 20
        E 48 b1 0c 40
        E 16 b1 0c 10
        E 0 81 1f 00
        E 0 91 24 6e
        E 48 b1 0c 20
        E 48 b1 0c 40
        E 32 b1 0b 66
        E 16 b1 0b 5d
        E 16 b1 0b 55
        E 16 b1 0b 44
        E 16 b1 0b 3b
        E 16 b1 0b 33
        E 16 b1 0b 2a
        E 16 b1 0b 19
        E 16 b1 0c 10
        E 0 b1 0b 6e
        E 0 81 24 00
        E 0 91 1f 6e
        E 48 b1 0c 20
        E 48 b1 0c 40
        E 48 b1 0b 66
        E 16 b1 0b 5d
        E 16 b1 0b 55
        E 16 b1 0b 44
        E 16 b1 0b 3b
        E 16 b1 0b 33
        E 16 b1 0b 2a
        E 16 b1 0c 10
        E 0 b1 0b 6e
        E 48 b1 0c 20
        E 48 b1 0c 40
        E 48 b1 0c 10
        E 48 b1 0c 20
        E 48 b1 0c 40
        E 16 b1 0b 66
        E 16 b1 0c 10
        E 0 b1 0b 6e
        E 0 81 1f 00
        E 0 91 26 6e
        E 48 b1 0c 20
        E 48 b1 0c 40
        E 32 b1 0b 66
        E 16 b1 0b 5d
        E 16 b1 0b 55
        E 16 b1 0b 44
        E 16 b1 0b 3b
        E 16 b1 0b 33
        E 16 b1 0b 2a
        E 16 b1 0b 19
        E 16 b1 0c 10
        E 0 b1 0b 6e
        E 0 81 26 00
        E 0 91 1f 6e
        E 48 b1 0c 20
        E 48 b1 0c 40
        E 32 b1 0b 66
        E 16 b1 0b 5d
        E 16 b1 0b 55
        E 16 b1 0b 44
        E 16 b1 0b 3b
        E 16 b1 0b 33
        E 16 b1 0b 2a
        E 16 b1 0b 19
        E 16 b1 0b 11
        E 16 b1 0b 08
        E 16 81 1f 00
        E 112 b1 0c 10
        E 0 b1 0b 6e
        E 0 91 2b 6e
        E 48 b1 0c 20
        E 48 b1 0c 40
        E 16 b1 0b 66
        E 16 b1 0c 10
        E 0 b1 0b 6e
        E 0 81 2b 00
        E 0 91 1c 6e
        E 48 b1 0c 20
        E 48 b1 0c 40
        E 32 b1 0b 66
        E 16 b1 0b 5d
        E 16 b1 0b 55
        E 16 b1 0b 44
        E 16 b1 0b 3b
        E 16 b1 0b 33
        E 16 b1 0b 2a
        E 16 b1 0b 19
        E 16 b1 0c 10
        E 0 b1 0b 6e
        E 0 81 1c 00
        E 0 91 1d 6e
        E 48 b1 0c 20
        E 48 b1 0c 40
        E 32 b1 0b 66
        E 16 b1 0b 5d
        E 16 b1 0b 55
        E 16 b1 0b 44
        E 16 b1 0b 3b
        E 16 b1 0b 33
        E 16 b1 0b 2a
        E 16 b1 0b 19
        E 16 b1 0c 10
        E 0 b1 0b 6e
        E 0 81 1d 00
        E 0 91 1e 6e
        E 48 b1 0c 20
        E 48 b1 0c 40
        E 32 b1 0b 66
        E 16 b1 0b 5d
        E 16 b1 0b 55
        E 16 b1 0b 44
        E 16 b1 0b 3b
        E 16 b1 0b 33
        E 16 b1 0b 2a
        E 16 b1 0b 19
        E 16 b1 0c 10
        E 0 b1 0b 6e
        E 0 81 1e 00
        E 0 91 1f 6e
        E 48 b1 0c 20
        E 48 b1 0c 40
        E 32 b1 0b 66
        E 16 b1 0b 5d
        E 16 b1 0b 55
        E 16 b1 0b 44
        E 16 b1 0b 3b
        E 16 b1 0b 33
        E 16 b1 0b 2a
        E 16 b1 0b 19
        E 16 b1 0c 10
        E 0 b1 0b 6e
        E 48 b1 0c 20
        E 48 b1 0c 40
        E 32 b1 0b 66
        E 16 b1 0c 10
        E 0 b1 0b 6e
        E 48 b1 0c 20
        E 48 b1 0c 40
        E 16 b1 0c 10
        E 0 81 1f 00
        E 0 91 26 6e
        E 48 b1 0c 20
        E 48 b1 0c 40
        E 48 b1 0b 66
        E 16 b1 0b 5d
        E 16 b1 0b 55
        E 16 b1 0b 44
        E 16 b1 0b 3b
        E 16 b1 0b 33
        E 16 b1 0b 2a
        E 16 b1 0b 19
        E 16 b1 0c 10
        E 0 b1 0b 6e
        E 0 81 26 00
        E 0 91 1f 6e
        E 48 b1 0c 20
        E 48 b1 0c 40
        E 32 b1 0b 66
        E 16 b1 0b 5d
        E 16 b1 0b 55
        E 16 b1 0b 44
        E 16 b1 0b 3b
        E 16 b1 0b 33
        E 16 b1 0b 2a
        E 16 b1 0b 19
        E 16 b1 0b 11
        E 16 b1 0b 08
        E 16 81 1f 00
        E 112 b1 0c 10
        E 0 b1 0b 6e
        E 0 91 2b 6e
        E 48 b1 0c 20
        E 48 b1 0c 40
        E 16 b1 0c 10
        E 0 81 2b 00
        E 0 91 1c 6e
        E 48 b1 0c 20
        E 48 b1 0c 40
        E 48 b1 0b 66
        E 16 b1 0b 5d
        E 16 b1 0b 55
        E 16 b1 0b 44
        E 16 b1 0b 3b
        E 16 b1 0b 33
        E 16 b1 0b 2a
        E 16 b1 0c 10
        E 0 b1 0b 6e
        E 0 81 1c 00
        E 0 91 1d 6e
        E 48 b1 0c 20
        E 48 b1 0c 40
        E 48 b1 0b 66
        E 16 b1 0b 5d
        E 16 b1 0b 55
        E 16 b1 0b 44
        E 16 b1 0b 3b
        E 16 b1 0b 33
        E 16 b1 0b 2a
        E 16 b1 0c 10
        E 0 b1 0b 6e
        E 0 81 1d 00
        E 0 91 1e 6e
        E 48 b1 0c 20
        E 48 b1 0c 40
        E 32 b1 0b 66
        E 16 b1 0b 5d
        E 16 b1 0b 55
        E 16 b1 0b 44
        E 16 b1 0b 3b
        E 16 b1 0b 33
        E 16 b1 0b 2a
        E 16 b1 0b 19
        E 16 b1 0c 10
        E 0 b1 0b 6e
        E 0 81 1e 00
        E 0 91 1f 6e
        E 48 b1 0c 20
        E 48 b1 0c 40
        E 32 b1 0b 66
        E 16 b1 0b 5d
        E 16 b1 0b 55
        E 16 b1 0b 44
        E 16 b1 0b 3b
        E 16 b1 0b 33
        E 16 b1 0b 2a
        E 16 b1 0b 19
        E 16 b1 0c 10
        E 0 b1 0b 6e
        E 48 b1 0c 20
        E 48 b1 0c 40
        E 32 b1 0b 66
        E 16 b1 0c 10
        E 0 b1 0b 6e
        E 48 b1 0c 20
        E 48 b1 0c 40
        E 16 b1 0b 66
        E 16 b1 0c 10
        E 0 b1 0b 6e
        E 0 81 1f 00
        E 0 91 26 6e
        E 48 b1 0c 20
        E 48 b1 0c 40
        E 32 b1 0b 66
        E 16 b1 0b 5d
        E 16 b1 0b 55
        E 16 b1 0b 44
        E 16 b1 0b 3b
        E 16 b1 0b 33
        E 16 b1 0b 2a
        E 16 b1 0c 10
        E 0 b1 0b 6e
        E 0 81 26 00
        E 0 91 1f 6e
        E 48 b1 0c 20
        E 48 b1 0c 40
        E 48 b1 0b 66
        E 16 b1 0b 5d
        E 16 b1 0b 55
        E 16 b1 0b 44
        E 16 b1 0b 3b
        E 16 b1 0b 33
        E 16 b1 0b 2a
        E 16 b1 0b 19
        E 16 b1 0b 11
        E 16 b1 0b 08
        E 16 81 1f 00
        E 96 b1 0c 10
        E 0 b1 0b 6e
        E 0 91 2b 6e
        E 48 b1 0c 20
        E 48 b1 0c 40
        E 32 b1 0c 10
        E 0 81 2b 00
        E 0 91 1c 6e
        E 48 b1 0c 20
        E 48 b1 0c 40
        E 32 b1 0b 66
        E 16 b1 0b 5d
        E 16 b1 0b 55
        E 16 b1 0b 44
        E 16 b1 0b 3b
        E 16 b1 0b 33
        E 16 b1 0b 2a
        E 16 b1 0b 19
        E 16 b1 0c 10
        E 0 b1 0b 6e
        E 0 81 1c 00
        E 0 91 1d 6e
        E 48 b1 0c 20
        E 48 b1 0c 40
        E 32 b1 0b 66
        E 16 b1 0b 5d
        E 16 b1 0b 55
        E 16 b1 0b 44
        E 16 b1 0b 3b
        E 16 b1 0b 33
        E 16 b1 0b 2a
        E 16 b1 0b 19
        E 16 b1 0c 10
        E 0 b1 0b 6e
        E 0 81 1d 00
        E 0 91 1e 6e
        E 48 b1 0c 20
        E 48 b1 0c 40
        E 48 b1 0b 66
        E 16 b1 0b 5d
        E 16 b1 0b 55
        E 16 b1 0b 44
        E 16 b1 0b 3b
        E 16 b1 0b 33
        E 16 b1 0b 2a
        E 16 b1 0b 19
        E 16 b1 0c 10
        E 0 b1 0b 6e
        E 0 81 1e 00
        E 0 91 1f 6e
        E 48 b1 0c 20
        E 48 b1 0c 40
        E 32 b1 0b 66
        E 16 b1 0b 5d
        E 16 b1 0b 55
        E 16 b1 0b 44
        E 16 b1 0b 3b
        E 16 b1 0b 33
        E 16 b1 0b 2a
        E 16 b1 0b 19
        E 16 b1 0c 10
        E 0 b1 0b 6e
        E 48 b1 0c 20
        E 48 b1 0c 40
        E 32 b1 0c 10
        E 48 b1 0c 20
        E 48 b1 0c 40
        E 32 b1 0c 10
        E 0 81 1f 00
        E 0 91 26 6e
        E 48 b1 0c 20
        E 48 b1 0c 40
        E 32 b1 0b 66
        E 16 b1 0b 5d
        E 16 b1 0b 55
        E 16 b1 0b 44
        E 16 b1 0b 3b
        E 16 b1 0b 33
        E 16 b1 0b 2a
        E 16 b1 0b 19
        E 16 b1 0c 10
        E 0 b1 0b 6e
        E 0 81 26 00
        E 0 91 1f 6e
        E 48 b1 0c 20
        E 48 b1 0c 40
        E 48 b1 0b 66
        E 16 b1 0b 5d
        E 16 b1 0b 55
        E 16 b1 0b 44
        E 16 b1 0b 3b
        E 16 b1 0b 33
        E 16 b1 0b 2a
        E 16 b1 0b 19
        E 16 b1 0b 11
        E 16 b1 0b 08
        E 16 81 1f 00
        E 160 b1 0c 10
        E 0 b1 0b 6e
        E 0 91 2b 6e
        E 48 b1 0b 66
        E 16 b1 0b 5d
        E 16 b1 0b 55
        E 16 b1 0b 44
        E 16 b1 0b 3b
        E 16 b1 0b 6e
        E 0 81 2b 00
        E 0 91 1c 6e
        E 48 b1 0c 20
        E 16 b1 0b 66
        E 16 b1 0b 5d
        E 16 b1 0b 55
        E 16 b1 0b 44
        E 16 b1 0b 3b
        E 16 b1 0b 33
        E 16 b1 0b 2a
        E 16 b1 0b 19
        E 16 b1 0b 11
        E 16 b1 0b 08
        E 16 81 1c 00
        E 48 b1 0c 10
        E 0 b1 0b 6e
        E 0 91 1d 6e
        E 48 b1 0b 66
        E 16 b1 0b 5d
        E 16 b1 0b 55
        E 16 b1 0b 44
        E 16 b1 0b 3b
        E 16 b1 0b 33
        E 16 b1 0b 2a
        E 16 b1 0b 19
        E 16 b1 0b 11
        E 16 b1 0b 08
        E 16 81 1d 00
        E 48 b1 0b 6e
        E 0 91 1e 6e
        E 48 b1 0c 20
        E 16 b1 0b 66
        E 16 b1 0b 5d
        E 16 b1 0b 55
        E 16 b1 0b 44
        E 16 b1 0b 3b
        E 16 b1 0b 33
        E 16 b1 0b 2a
        E 16 b1 0b 19
        E 16 b1 0c 10
        E 0 b1 0b 6e
        E 0 81 1e 00
        E 0 91 1f 6e
        E 48 b1 0c 20
        E 48 b1 0c 40
        E 32 b1 0b 66
        E 16 b1 0b 5d
        E 16 b1 0b 55
        E 16 b1 0b 44
        E 16 b1 0b 3b
        E 16 b1 0b 33
        E 16 b1 0b 2a
        E 16 b1 0b 19
        E 16 b1 0c 10
        E 0 b1 0b 6e
        E 48 b1 0c 20
        E 48 b1 0c 40
        E 32 b1 0b 66
        E 16 b1 0c 10
        E 0 b1 0b 6e
        E 48 b1 0c 20
        E 48 b1 0c 40
        E 16 b1 0c 10
        E 0 81 1f 00
        E 0 91 26 6e
        E 48 b1 0c 20
        E 48 b1 0c 40
        E 32 b1 0b 66
        E 16 b1 0b 5d
        E 16 b1 0b 55
        E 16 b1 0b 44
        E 16 b1 0b 3b
        E 16 b1 0b 33
        E 16 b1 0b 2a
        E 16 b1 0b 19
        E 16 b1 0c 10
        E 0 b1 0b 6e
        E 0 81 26 00
        E 0 91 1f 6e
        E 48 b1 0c 20
        E 48 b1 0c 40
        E 32 b1 0b 66
        E 16 b1 0b 5d
        E 16 b1 0b 55
        E 16 b1 0b 44
        E 16 b1 0b 3b
        E 16 b1 0b 33
        E 16 b1 0b 2a
        E 16 b1 0b 19
        E 16 b1 0b 11
        E 16 b1 0b 08
        E 16 81 1f 00
        E 112 b1 0c 10
        E 0 b1 0b 6e
        E 0 91 2b 6e
        E 48 b1 0c 20
        E 48 b1 0c 40
        E 16 b1 0b 66
        E 16 b1 0c 10
        E 0 b1 0b 6e
        E 0 81 2b 00
        E 0 91 1f 6e
        E 48 b1 0c 20
        E 48 b1 0c 40
        E 32 b1 0b 66
        E 16 b1 0b 5d
        E 16 b1 0b 55
        E 16 b1 0b 44
        E 16 b1 0b 3b
        E 16 b1 0b 33
        E 16 b1 0b 2a
        E 16 b1 0b 19
        E 16 b1 0c 10
        E 0 b1 0b 6e
        E 48 b1 0c 20
        E 48 b1 0c 40
        E 32 b1 0b 66
        E 16 b1 0c 10
        E 0 b1 0b 6e
        E 0 81 1f 00
        E 0 91 2b 6e
        E 48 b1 0c 20
        E 48 b1 0c 40
        E 16 b1 0c 10
        E 0 81 2b 00
        E 0 91 1f 6e
        E 48 b1 0c 20
        E 48 b1 0c 40
        E 32 b1 0b 66
        E 16 b1 0b 5d
        E 16 b1 0b 55
        E 16 b1 0b 44
        E 16 b1 0b 3b
        E 16 b1 0b 33
        E 16 b1 0b 2a
        E 16 b1 0b 19
        E 16 b1 0c 10
        E 0 b1 0b 6e
        E 0 81 1f 00
        E 0 91 21 6e
        E 48 b1 0c 20
        E 48 b1 0c 40
        E 16 b1 0b 66
        E 16 b1 0b 5d
        E 16 b1 0b 55
        E 16 b1 0b 44
        E 16 b1 0b 3b
        E 16 b1 0b 33
        E 16 b1 0b 2a
        E 16 b1 0b 19
        E 16 b1 0c 10
        E 0 b1 0b 6e
        E 48 b1 0c 20
        E 48 b1 0c 40
        E 48 b1 0c 10
        E 48 b1 0c 20
        E 48 b1 0c 40
        E 16 b1 0b 66
        E 16 b1 0c 10
        E 0 b1 0b 6e
        E 0 81 21 00
        E 0 91 28 6e
        E 48 b1 0c 20
        E 48 b1 0c 40
        E 32 b1 0b 66
        E 16 b1 0b 5d
        E 16 b1 0b 55
        E 16 b1 0b 44
        E 16 b1 0b 3b
        E 16 b1 0b 33
        E 16 b1 0b 2a
        E 16 b1 0b 19
        E 16 b1 0c 10
        E 0 b1 0b 6e
        E 0 81 28 00
        E 0 91 21 6e
        E 48 b1 0c 20
        E 48 b1 0c 40
        E 32 b1 0b 66
        E 16 b1 0b 5d
        E 16 b1 0b 55
        E 16 b1 0b 44
        E 16 b1 0b 3b
        E 16 b1 0b 33
        E 16 b1 0b 2a
        E 16 b1 0b 19
        E 16 b1 0b 11
        E 16 b1 0b 08
        E 16 81 21 00
        E 112 b1 0c 10
        E 0 b1 0b 6e
        E 0 91 2d 6e
        E 48 b1 0c 20
        E 48 b1 0c 40
        E 16 b1 0b 66
        E 16 b1 0c 10
        E 0 b1 0b 6e
        E 0 81 2d 00
        E 0 91 21 6e
        E 48 b1 0c 20
        E 48 b1 0c 40
        E 32 b1 0b 66
        E 16 b1 0b 5d
        E 16 b1 0b 55
        E 16 b1 0b 44
        E 16 b1 0b 3b
        E 16 b1 0b 33
        E 16 b1 0b 2a
        E 16 b1 0b 19
        E 16 b1 0c 10
        E 0 b1 0b 6e
        E 0 81 21 00
        E 0 91 28 6e
        E 48 b1 0c 20
        E 48 b1 0c 40
        E 32 b1 0b 66
        E 16 b1 0b 5d
        E 16 b1 0b 55
        E 16 b1 0b 44
        E 16 b1 0b 3b
        E 16 b1 0b 33
        E 16 b1 0b 2a
        E 16 b1 0b 19
        E 16 b1 0c 10
        E 0 b1 0b 6e
        E 0 81 28 00
        E 0 91 21 6e
        E 48 b1 0c 20
        E 48 b1 0c 40
        E 32 b1 0b 66
        E 16 b1 0b 5d
        E 16 b1 0b 55
        E 16 b1 0b 44
        E 16 b1 0b 3b
        E 16 b1 0b 33
        E 16 b1 0b 2a
        E 16 b1 0b 19
        E 16 b1 0c 10
        E 0 b1 0b 6e
        E 0 81 21 00
        E 0 91 1d 6e
        E 48 b1 0c 20
        E 48 b1 0c 40
        E 32 b1 0b 66
        E 16 b1 0b 5d
        E 16 b1 0b 55
        E 16 b1 0b 44
        E 16 b1 0b 3b
        E 16 b1 0b 33
        E 16 b1 0b 2a
        E 16 b1 0b 19
        E 16 b1 0c 10
        E 0 b1 0b 6e
        E 48 b1 0c 20
        E 48 b1 0c 40
        E 48 b1 0c 10
        E 48 b1 0c 20
        E 48 b1 0c 40
        E 16 b1 0b 66
        E 16 b1 0c 10
        E 0 b1 0b 6e
        E 0 81 1d 00
        E 0 91 24 6e
        E 48 b1 0c 20
        E 48 b1 0c 40
        E 32 b1 0b 66
        E 16 b1 0b 5d
        E 16 b1 0b 55
        E 16 b1 0b 44
        E 16 b1 0b 3b
        E 16 b1 0b 33
        E 16 b1 0b 2a
        E 16 b1 0b 19
        E 16 b1 0c 10
        E 0 b1 0b 6e
        E 0 81 24 00
        E 0 91 1d 6e
        E 48 b1 0c 20
        E 48 b1 0c 40
        E 32 b1 0b 66
        E 16 b1 0b 5d
        E 16 b1 0b 55
        E 16 b1 0b 44
        E 16 b1 0b 3b
        E 16 b1 0b 33
        E 16 b1 0b 2a
        E 16 b1 0b 19
        E 16 b1 0b 11
        E 16 b1 0b 08
        E 16 81 1d 00
        E 112 b1 0c 10
        E 0 b1 0b 6e
        E 0 91 29 6e
        E 48 b1 0c 20
        E 48 b1 0c 40
        E 16 b1 0c 10
        E 0 81 29 00
        E 0 91 1d 6e
        E 48 b1 0c 20
        E 48 b1 0c 40
        E 32 b1 0b 66
        E 16 b1 0c 10
        E 0 b1 0b 6e
        E 48 b1 0c 20
        E 48 b1 0c 40
        E 16 b1 0b 66
        E 16 b1 0c 10
        E 0 b1 0b 6e
        E 0 81 1d 00
        E 0 91 24 6e
        E 48 b1 0c 20
        E 48 b1 0c 40
        E 32 b1 0b 66
        E 16 b1 0b 5d
        E 16 b1 0b 55
        E 16 b1 0b 44
        E 16 b1 0b 3b
        E 16 b1 0b 33
        E 16 b1 0b 2a
        E 16 b1 0b 19
        E 16 b1 0c 10
        E 0 b1 0b 6e
        E 0 81 24 00
        E 0 91 1d 6e
        E 48 b1 0c 20
        E 48 b1 0c 40
        E 32 b1 0b 66
        E 16 b1 0b 5d
        E 16 b1 0b 55
        E 16 b1 0b 44
        E 16 b1 0b 3b
        E 16 b1 0b 33
        E 16 b1 0b 2a
        E 16 b1 0b 19
        E 16 b1 0c 10
        E 0 b1 0b 6e
        E 0 81 1d 00
        E 0 91 1f 6e
        E 48 b1 0c 20
        E 48 b1 0c 40
        E 32 b1 0b 66
        E 16 b1 0b 5d
        E 16 b1 0b 55
        E 16 b1 0b 44
        E 16 b1 0b 3b
        E 16 b1 0b 33
        E 16 b1 0b 2a
        E 16 b1 0b 19
        E 16 b1 0c 10
        E 0 b1 0b 6e
        E 48 b1 0c 20
        E 48 b1 0c 40
        E 32 b1 0b 66
        E 16 b1 0c 10
        E 0 b1 0b 6e
        E 48 b1 0c 20
        E 48 b1 0c 40
        E 16 b1 0b 66
        E 16 b1 0c 10
        E 0 b1 0b 6e
        E 0 81 1f 00
        E 0 91 26 6e
        E 48 b1 0c 20
        E 48 b1 0c 40
        E 32 b1 0b 66
        E 16 b1 0b 5d
        E 16 b1 0b 55
        E 16 b1 0b 44
        E 16 b1 0b 3b
        E 16 b1 0b 33
        E 16 b1 0b 2a
        E 16 b1 0c 10
        E 0 b1 0b 6e
        E 0 81 26 00
        E 0 91 1f 6e
        E 48 b1 0c 20
        E 48 b1 0c 40
        E 48 b1 0b 66
        E 16 b1 0b 5d
        E 16 b1 0b 55
        E 16 b1 0b 44
        E 16 b1 0b 3b
        E 16 b1 0b 33
        E 16 b1 0b 2a
        E 16 b1 0b 19
        E 16 b1 0b 11
        E 16 b1 0b 08
        E 16 81 1f 00
        E 112 b1 0c 10
        E 0 b1 0b 6e
        E 0 91 2b 6e
        E 48 b1 0c 20
        E 48 b1 0c 40
        E 16 b1 0c 10
        E 0 81 2b 00
        E 0 91 1c 6e
        E 48 b1 0c 20
        E 48 b1 0c 40
        E 32 b1 0b 66
        E 16 b1 0c 10
        E 0 b1 0b 6e
        E 0 81 1c 00
        E 0 91 28 6e
        E 48 b1 0c 20
        E 48 b1 0c 40
        E 16 b1 0c 10
        E 0 81 28 00
        E 0 91 1d 6e
        E 48 b1 0c 20
        E 48 b1 0c 40
        E 32 b1 0b 66
        E 16 b1 0c 10
        E 0 b1 0b 6e
        E 0 81 1d 00
        E 0 91 29 6e
        E 48 b1 0c 20
        E 48 b1 0c 40
        E 16 b1 0b 66
        E 16 b1 0c 10
        E 0 b1 0b 6e
        E 0 81 29 00
        E 0 91 1e 6e
        E 48 b1 0c 20
        E 48 b1 0c 40
        E 32 b1 0c 10
        E 0 81 1e 00
        E 0 91 2a 6e
        E 48 b1 0c 20
        E 48 b1 0c 40
        E 16 b1 0b 66
        E 16 b1 0c 10
        E 0 b1 0b 6e
        E 0 81 2a 00
        E 0 91 1f 6e
        E 48 b1 0c 20
        E 48 b1 0c 40
        E 16 b1 0b 66
        E 16 b1 0b 5d
        E 16 b1 0b 55
        E 16 b1 0b 44
        E 16 b1 0b 3b
        E 16 b1 0b 33
        E 16 b1 0b 2a
        E 16 b1 0b 19
        E 16 b1 0b 11
        E 16 b1 0c 10
        E 0 b1 0b 6e
        E 48 b1 0c 20
        E 48 b1 0c 40
        E 16 b1 0b 66
        E 16 b1 0c 10
        E 0 b1 0b 6e
        E 48 b1 0c 20
        E 48 b1 0c 40
        E 16 b1 0c 10
        E 0 81 1f 00
        E 0 91 26 6e
        E 48 b1 0c 20
        E 48 b1 0c 40
        E 32 b1 0b 66
        E 16 b1 0b 5d
        E 16 b1 0b 55
        E 16 b1 0b 44
        E 16 b1 0b 3b
        E 16 b1 0b 33
        E 16 b1 0b 2a
        E 16 b1 0b 19
        E 16 b1 0c 10
        E 0 b1 0b 6e
        E 0 81 26 00
        E 0 91 1f 6e
        E 48 b1 0c 20
        E 48 b1 0c 40
        E 32 b1 0b 66
        E 16 b1 0b 5d
        E 16 b1 0b 55
        E 16 b1 0b 44
        E 16 b1 0b 3b
        E 16 b1 0b 33
        E 16 b1 0b 2a
        E 16 b1 0b 19
        E 16 b1 0b 11
        E 16 b1 0b 08
        E 16 81 1f 00
        E 112 b1 0c 10
        E 0 b1 0b 6e
        E 0 91 2b 6e
        E 48 b1 0c 20
        E 48 b1 0c 40
        E 16 b1 0b 66
        E 16 b1 0c 10
        E 0 b1 0b 6e
        E 0 81 2b 00
        E 0 91 1f 6e
        E 48 b1 0c 20
        E 48 b1 0c 40
        E 32 b1 0b 66
        E 16 b1 0b 5d
        E 16 b1 0b 55
        E 16 b1 0b 44
        E 16 b1 0b 3b
        E 16 b1 0b 33
        E 16 b1 0b 2a
        E 16 b1 0b 19
        E 16 b1 0c 10
        E 0 b1 0b 6e
        E 48 b1 0c 20
        E 48 b1 0c 40
        E 32 b1 0b 66
        E 16 b1 0c 10
        E 0 b1 0b 6e
        E 0 81 1f 00
        E 0 91 2b 6e
        E 48 b1 0c 20
        E 48 b1 0c 40
        E 16 b1 0c 10
        E 0 81 2b 00
        E 0 91 1f 6e
        E 48 b1 0c 20
        E 48 b1 0c 40
        E 32 b1 0b 66
        E 16 b1 0b 5d
        E 16 b1 0b 55
        E 16 b1 0b 44
        E 16 b1 0b 3b
        E 16 b1 0b 33
        E 16 b1 0b 2a
        E 16 b1 0b 19
        E 16 b1 0b 11
        E 16 b1 0c 10
        E 0 b1 0b 6e
        E 0 81 1f 00
        E 0 91 21 6e
        E 48 b1 0c 20
        E 48 b1 0c 40
        E 32 b1 0b 66
        E 16 b1 0b 5d
        E 16 b1 0b 55
        E 16 b1 0b 44
        E 16 b1 0b 3b
        E 16 b1 0b 33
        E 16 b1 0b 2a
        E 16 b1 0b 19
        E 16 b1 0c 10
        E 0 b1 0b 6e
        E 48 b1 0c 20
        E 48 b1 0c 40
        E 32 b1 0b 66
        E 16 b1 0c 10
        E 0 b1 0b 6e
        E 48 b1 0c 20
        E 48 b1 0b 66
        E 16 b1 0c 10
        E 0 b1 0b 6e
        E 0 81 21 00
        E 0 91 28 6e
        E 48 b1 0c 20
        E 48 b1 0c 40
        E 32 b1 0b 66
        E 16 b1 0b 5d
        E 16 b1 0b 55
        E 16 b1 0b 44
        E 16 b1 0b 3b
        E 16 b1 0b 33
        E 16 b1 0b 2a
        E 16 b1 0b 19
        E 16 b1 0c 10
        E 0 b1 0b 6e
        E 0 81 28 00
        E 0 91 21 6e
        E 48 b1 0c 20
        E 48 b1 0c 40
        E 32 b1 0b 66
        E 16 b1 0b 5d
        E 16 b1 0b 55
        E 16 b1 0b 44
        E 16 b1 0b 3b
        E 16 b1 0b 33
        E 16 b1 0b 2a
        E 16 b1 0b 19
        E 16 b1 0b 11
        E 16 b1 0b 08
        E 16 81 21 00
        E 112 b1 0c 10
        E 0 b1 0b 6e
        E 0 91 2d 6e
        E 48 b1 0c 20
        E 48 b1 0c 40
        E 16 b1 0b 66
        E 16 b1 0c 10
        E 0 b1 0b 6e
        E 0 81 2d 00
        E 0 91 21 6e
        E 48 b1 0c 20
        E 48 b1 0c 40
        E 32 b1 0b 66
        E 16 b1 0b 5d
        E 16 b1 0b 55
        E 16 b1 0b 44
        E 16 b1 0b 3b
        E 16 b1 0b 33
        E 16 b1 0b 2a
        E 16 b1 0b 19
        E 16 b1 0c 10
        E 0 b1 0b 6e
        E 0 81 21 00
        E 0 91 28 6e
        E 48 b1 0c 20
        E 48 b1 0c 40
        E 32 b1 0b 66
        E 16 b1 0b 5d
        E 16 b1 0b 55
        E 16 b1 0b 44
        E 16 b1 0b 3b
        E 16 b1 0b 33
        E 16 b1 0b 2a
        E 16 b1 0b 19
        E 16 b1 0c 10
        E 0 b1 0b 6e
        E 0 81 28 00
        E 0 91 21 6e
        E 48 b1 0c 20
        E 48 b1 0c 40
        E 32 b1 0b 66
        E 16 b1 0b 5d
        E 16 b1 0b 55
        E 16 b1 0b 44
        E 16 b1 0b 3b
        E 16 b1 0b 33
        E 16 b1 0b 2a
        E 16 b1 0b 19
        E 16 b1 0c 10
        E 0 b1 0b 6e
        E 0 81 21 00
        E 0 91 1d 6e
        E 48 b1 0c 20
        E 48 b1 0c 40
        E 32 b1 0b 66
        E 16 b1 0b 5d
        E 16 b1 0b 55
        E 16 b1 0b 44
        E 16 b1 0b 3b
        E 16 b1 0b 33
        E 16 b1 0b 2a
        E 16 b1 0b 19
        E 16 b1 0b 11
        E 16 b1 0c 10
        E 0 b1 0b 6e
        E 48 b1 0c 20
        E 48 b1 0c 40
        E 32 b1 0c 10
        E 48 b1 0c 20
        E 48 b1 0c 40
        E 16 b1 0b 66
        E 16 b1 0c 10
        E 0 b1 0b 6e
        E 0 81 1d 00
        E 0 91 24 6e
        E 48 b1 0c 20
        E 48 b1 0c 40
        E 32 b1 0b 66
        E 16 b1 0b 5d
        E 16 b1 0b 55
        E 16 b1 0b 44
        E 16 b1 0b 3b
        E 16 b1 0b 33
        E 16 b1 0b 2a
        E 16 b1 0b 19
        E 16 b1 0c 10
        E 0 b1 0b 6e
        E 0 81 24 00
        E 0 91 1d 6e
        E 48 b1 0c 20
        E 48 b1 0c 40
        E 32 b1 0b 66
        E 16 b1 0b 5d
        E 16 b1 0b 55
        E 16 b1 0b 44
        E 16 b1 0b 3b
        E 16 b1 0b 33
        E 16 b1 0b 2a
        E 16 b1 0b 19
        E 16 b1 0b 11
        E 16 b1 0b 08
        E 16 81 1d 00
        E 112 b1 0c 10
        E 0 b1 0b 6e
        E 0 91 29 6e
        E 48 b1 0c 20
        E 48 b1 0c 40
        E 16 b1 0b 66
        E 16 b1 0c 10
        E 0 b1 0b 6e
        E 0 81 29 00
        E 0 91 1d 6e
        E 48 b1 0c 20
        E 48 b1 0c 40
        E 32 b1 0c 10
        E 48 b1 0c 20
        E 48 b1 0c 40
        E 16 b1 0b 66
        E 16 b1 0c 10
        E 0 b1 0b 6e
        E 0 81 1d 00
        E 0 91 24 6e
        E 48 b1 0c 20
        E 48 b1 0c 40
        E 32 b1 0b 66
        E 16 b1 0b 5d
        E 16 b1 0b 55
        E 16 b1 0b 44
        E 16 b1 0b 3b
        E 16 b1 0b 33
        E 16 b1 0b 2a
        E 16 b1 0b 19
        E 16 b1 0c 10
        E 0 b1 0b 6e
        E 0 81 24 00
        E 0 91 1d 6e
        E 48 b1 0c 20
        E 48 b1 0c 40
        E 32 b1 0b 66
        E 16 b1 0b 5d
        E 16 b1 0b 55
        E 16 b1 0b 44
        E 16 b1 0b 3b
        E 16 b1 0b 33
        E 16 b1 0b 2a
        E 16 b1 0b 19
        E 16 b1 0c 10
        E 0 b1 0b 6e
        E 0 81 1d 00
        E 0 91 1f 6e
        E 48 b1 0c 20
        E 48 b1 0c 40
        E 32 b1 0b 66
        E 16 b1 0b 5d
        E 16 b1 0b 55
        E 16 b1 0b 44
        E 16 b1 0b 3b
        E 16 b1 0b 33
        E 16 b1 0b 2a
        E 16 b1 0b 19
        E 16 b1 0b 11
        E 16 b1 0c 10
        E 0 b1 0b 6e
        E 48 b1 0c 20
        E 48 b1 0c 40
        E 32 b1 0c 10
        E 48 b1 0c 20
        E 48 b1 0c 40
        E 16 b1 0b 66
        E 16 b1 0c 10
        E 0 b1 0b 6e
        E 0 81 1f 00
        E 0 91 26 6e
        E 48 b1 0c 20
        E 48 b1 0c 40
        E 16 b1 0b 66
        E 16 b1 0b 5d
        E 16 b1 0b 55
        E 16 b1 0b 44
        E 16 b1 0b 3b
        E 16 b1 0b 33
        E 16 b1 0b 2a
        E 16 b1 0b 19
        E 16 b1 0c 10
        E 0 b1 0b 6e
        E 0 81 26 00
        E 0 91 1f 6e
        E 48 b1 0c 20
        E 48 b1 0c 40
        E 32 b1 0b 66
        E 16 b1 0b 5d
        E 16 b1 0b 55
        E 16 b1 0b 44
        E 16 b1 0b 3b
        E 16 b1 0b 33
        E 16 b1 0b 2a
        E 16 b1 0b 19
        E 16 b1 0b 11
        E 16 b1 0b 08
        E 16 81 1f 00
        E 112 b1 0c 10
        E 0 b1 0b 6e
        E 0 91 2b 6e
        E 48 b1 0c 20
        E 48 b1 0c 40
        E 16 b1 0c 10
        E 0 81 2b 00
        E 0 91 1c 6e
        E 48 b1 0c 20
        E 48 b1 0c 40
        E 32 b1 0b 66
        E 16 b1 0c 10
        E 0 b1 0b 6e
        E 0 81 1c 00
        E 0 91 28 6e
        E 48 b1 0c 20
        E 48 b1 0c 40
        E 16 b1 0b 66
        E 16 b1 0c 10
        E 0 b1 0b 6e
        E 0 81 28 00
        E 0 91 1d 6e
        E 48 b1 0c 20
        E 48 b1 0c 40
        E 32 b1 0c 10
        E 0 81 1d 00
        E 0 91 29 6e
        E 48 b1 0c 20
        E 48 b1 0c 40
        E 16 b1 0b 66
        E 16 b1 0c 10
        E 0 b1 0b 6e
        E 0 81 29 00
        E 0 91 1e 6e
        E 48 b1 0c 20
        E 48 b1 0c 40
        E 32 b1 0c 10
        E 0 81 1e 00
        E 0 91 2a 6e
        E 48 b1 0c 20
        E 48 b1 0c 40
        E 16 b1 0b 66
        E 16 b1 0b 5d
        E 16 b1 0b 55
        E 16 b1 0b 44
        E 16 b1 0b 3b
        E 16 b1 0b 33
        E 16 b1 0b 2a
        E 16 b1 0b 19
        E 16 b1 0b 11
        E 16 b1 0b 08
        E 16 81 2a 00
        E 10160 b1 7b 00
        E 0 ff 2f 00
      >
    >
  >
  <TRACK {FA8A8CB2-698A-42E2-AD88-DDD243E7876E}
    NAME "NES - Triangle [ch2]"
    PEAKCOL 16744192
    BEAT -1
    AUTOMODE 0
    PANLAWFLAGS 3
    VOLPAN 1 0 -1 -1 1
    MUTESOLO 0 0 0
    IPHASE 0
    PLAYOFFS 0 1
    ISBUS 0 0
    BUSCOMP 0 0 0 0 0
    SHOWINMIX 1 0.6667 0.5 1 0.5 0 0 0
    FIXEDLANES 9 0 0 0 0
    SEL 0
    REC 0 5088 1 0 0 0 0 0
    VU 2
    TRACKHEIGHT 0 0 0 0 0 0 0
    INQ 0 0 0 0.5 100 0 0 100
    NCHAN 2
    FX 1
    TRACKID {FA8A8CB2-698A-42E2-AD88-DDD243E7876E}
    PERF 0
    MIDIOUT -1
    MAINSEND 1 0
    <FXCHAIN
      WNDRECT 24 52 700 560
      SHOW 0
      LASTSEL 0
      DOCKED 0
      BYPASS 0 0 0
      <JS "ReapNES Studio/ReapNES_Console.jsfx" ""
        2 15 1 10 80 10 100 2 1 15 1 5 60 10 80 1 1 0 50 0 0 15 1 0 100 0 0 0.500000 0.500000 0.400000 0.300000 0.800000 2 1 0 0 0 0 - - - - - - - - - - - - - - - - - - - - - - - - - -
      >
      FLOATPOS 0 0 0 0
      FXID {1C67EA75-697F-4128-9503-82305ECF88A6}
      WAK 0 0
    >
    <ITEM
      POSITION 0
      LENGTH 69.8600332
      LOOP 0
      ALLTAKES 0
      FADEIN 0 0 0 0 0 0 0
      FADEOUT 0 0 0 0 0 0 0
      MUTE 0 0
      SEL 0
      IGUID {7932564E-3222-4F30-932A-3ECF20DF60EF}
      <SOURCE MIDI
        HASDATA 1 480 QN
        CCINTERP 32
        E 0 c2 26
        E 44288 b2 0b 7f
        E 0 92 3e 7f
        E 80 82 3e 00
        E 0 b2 0b 7f
        E 0 92 3c 7f
        E 48 82 3c 00
        E 0 b2 0b 7f
        E 0 92 3a 7f
        E 64 82 3a 00
        E 0 b2 0b 7f
        E 0 92 39 7f
        E 80 82 39 00
        E 0 b2 0b 7f
        E 0 92 37 7f
        E 64 82 37 00
        E 0 b2 0b 7f
        E 0 92 35 7f
        E 48 82 35 00
        E 0 b2 0b 7f
        E 0 92 34 7f
        E 64 82 34 00
        E 0 b2 0b 7f
        E 0 92 32 7f
        E 80 82 32 00
        E 0 b2 0b 7f
        E 0 92 30 7f
        E 64 82 30 00
        E 0 b2 0b 7f
        E 0 92 2e 7f
        E 48 82 2e 00
        E 0 b2 0b 7f
        E 0 92 2d 7f
        E 80 82 2d 00
        E 0 b2 0b 7f
        E 0 92 2b 7f
        E 64 82 2b 00
        E 0 b2 0b 7f
        E 0 92 29 7f
        E 64 82 29 00
        E 0 b2 0b 7f
        E 0 92 28 7f
        E 64 82 28 00
        E 0 b2 0b 7f
        E 0 92 26 7f
        E 64 82 26 00
        E 0 b2 0b 7f
        E 0 92 24 7f
        E 64 82 24 00
        E 0 b2 0b 7f
        E 0 92 23 7f
        E 64 82 23 00
        E 0 b2 0b 7f
        E 0 92 21 7f
        E 64 82 21 00
        E 0 b2 0b 7f
        E 0 92 1f 7f
        E 224 82 1f 00
        E 26192 b2 7b 00
        E 0 ff 2f 00
      >
    >
  >
  <TRACK {6BDCB839-F14A-413B-848B-DF62A3AAB71D}
    NAME "NES - Noise / Drums [ch3]"
    PEAKCOL 11184810
    BEAT -1
    AUTOMODE 0
    PANLAWFLAGS 3
    VOLPAN 1 0 -1 -1 1
    MUTESOLO 0 0 0
    IPHASE 0
    PLAYOFFS 0 1
    ISBUS 0 0
    BUSCOMP 0 0 0 0 0
    SHOWINMIX 1 0.6667 0.5 1 0.5 0 0 0
    FIXEDLANES 9 0 0 0 0
    SEL 0
    REC 0 5088 1 0 0 0 0 0
    VU 2
    TRACKHEIGHT 0 0 0 0 0 0 0
    INQ 0 0 0 0.5 100 0 0 100
    NCHAN 2
    FX 1
    TRACKID {6BDCB839-F14A-413B-848B-DF62A3AAB71D}
    PERF 0
    MIDIOUT -1
    MAINSEND 1 0
    <FXCHAIN
      WNDRECT 24 52 700 560
      SHOW 0
      LASTSEL 0
      DOCKED 0
      BYPASS 0 0 0
      <JS "ReapNES Studio/ReapNES_Console.jsfx" ""
        2 15 1 10 80 10 100 2 1 15 1 5 60 10 80 1 1 0 50 0 0 15 1 0 100 0 0 0.500000 0.500000 0.400000 0.300000 0.800000 3 1 0 0 0 0 - - - - - - - - - - - - - - - - - - - - - - - - - -
      >
      FLOATPOS 0 0 0 0
      FXID {35E0F305-BDEE-42DA-B4CC-72BFD20056AE}
      WAK 0 0
    >
    <ITEM
      POSITION 0
      LENGTH 69.8600332
      LOOP 0
      ALLTAKES 0
      FADEIN 0 0 0 0 0 0 0
      FADEOUT 0 0 0 0 0 0 0
      MUTE 0 0
      SEL 0
      IGUID {6B19DBC2-A75B-4930-AFC0-48BFF57FAE08}
      <SOURCE MIDI
        HASDATA 1 480 QN
        CCINTERP 32
        E 14288 93 2a 7f
        E 64 83 2a 00
        E 0 93 2a 7f
        E 1664 83 2a 00
        E 48 93 2a 5d
        E 224 83 2a 00
        E 288 93 2a 5d
        E 224 83 2a 00
        E 160 93 2a 5d
        E 128 83 2a 00
        E 0 93 2a 5d
        E 224 83 2a 00
        E 48 93 2a 5d
        E 224 83 2a 00
        E 32 93 2a 5d
        E 224 83 2a 00
        E 160 93 2a 5d
        E 144 83 2a 00
        E 0 93 2a 5d
        E 224 83 2a 00
        E 288 93 2a 5d
        E 224 83 2a 00
        E 160 93 2a 5d
        E 128 83 2a 00
        E 0 93 2a 5d
        E 224 83 2a 00
        E 48 93 2a 5d
        E 224 83 2a 00
        E 32 93 2a 5d
        E 224 83 2a 00
        E 288 93 2a 5d
        E 224 83 2a 00
        E 304 93 2a 5d
        E 224 83 2a 00
        E 160 93 2a 5d
        E 112 83 2a 00
        E 0 93 2a 5d
        E 224 83 2a 00
        E 32 93 2a 5d
        E 224 83 2a 00
        E 48 93 2a 5d
        E 224 83 2a 00
        E 288 93 2a 5d
        E 224 83 2a 00
        E 304 93 2a 5d
        E 224 83 2a 00
        E 144 93 2a 5d
        E 144 83 2a 00
        E 0 93 2a 5d
        E 224 83 2a 00
        E 32 93 2a 5d
        E 224 83 2a 00
        E 32 93 2a 5d
        E 224 83 2a 00
        E 304 93 2a 5d
        E 224 83 2a 00
        E 304 93 2a 5d
        E 224 83 2a 00
        E 144 93 2a 5d
        E 144 83 2a 00
        E 0 93 2a 5d
        E 224 83 2a 00
        E 32 93 2a 5d
        E 224 83 2a 00
        E 32 93 2a 5d
        E 224 83 2a 00
        E 304 93 2a 5d
        E 224 83 2a 00
        E 288 93 2a 5d
        E 224 83 2a 00
        E 160 93 2a 5d
        E 128 83 2a 00
        E 0 93 2a 5d
        E 224 83 2a 00
        E 32 93 2a 5d
        E 224 83 2a 00
        E 32 93 2a 5d
        E 224 83 2a 00
        E 304 93 2a 5d
        E 224 83 2a 00
        E 288 93 2a 5d
        E 224 83 2a 00
        E 160 93 2a 5d
        E 144 83 2a 00
        E 0 93 2a 5d
        E 224 83 2a 00
        E 32 93 2a 5d
        E 224 83 2a 00
        E 32 93 2a 5d
        E 224 83 2a 00
        E 288 93 2a 5d
        E 224 83 2a 00
        E 304 93 2a 5d
        E 224 83 2a 00
        E 224 93 2a 5d
        E 192 83 2a 00
        E 0 93 2a 5d
        E 224 83 2a 00
        E 32 93 2a 5d
        E 224 83 2a 00
        E 48 93 2a 5d
        E 224 83 2a 00
        E 96 93 2a 5d
        E 224 83 2a 00
        E 288 93 2a 5d
        E 224 83 2a 00
        E 160 93 2a 5d
        E 144 83 2a 00
        E 0 93 2a 5d
        E 224 83 2a 00
        E 32 93 2a 5d
        E 224 83 2a 00
        E 16 93 2a 5d
        E 224 83 2a 00
        E 304 93 2a 5d
        E 224 83 2a 00
        E 288 93 2a 5d
        E 224 83 2a 00
        E 176 93 2a 5d
        E 112 83 2a 00
        E 0 93 2a 5d
        E 224 83 2a 00
        E 48 93 2a 5d
        E 224 83 2a 00
        E 32 93 2a 5d
        E 224 83 2a 00
        E 304 93 2a 5d
        E 64 83 2a 00
        E 0 93 2a 44
        E 32 83 2a 00
        E 0 93 2a 33
        E 32 83 2a 00
        E 0 93 2a 2a
        E 32 83 2a 00
        E 0 93 2a 19
        E 32 83 2a 00
        E 0 93 2a 11
        E 32 83 2a 00
        E 288 93 2a 5d
        E 64 83 2a 00
        E 0 93 2a 44
        E 32 83 2a 00
        E 0 93 2a 33
        E 32 83 2a 00
        E 0 93 2a 2a
        E 32 83 2a 00
        E 0 93 2a 19
        E 32 83 2a 00
        E 0 93 2a 11
        E 32 83 2a 00
        E 176 93 2a 5d
        E 64 83 2a 00
        E 0 93 2a 44
        E 32 83 2a 00
        E 0 93 2a 33
        E 16 83 2a 00
        E 0 93 2a 5d
        E 64 83 2a 00
        E 0 93 2a 44
        E 32 83 2a 00
        E 0 93 2a 33
        E 32 83 2a 00
        E 0 93 2a 2a
        E 32 83 2a 00
        E 0 93 2a 19
        E 32 83 2a 00
        E 0 93 2a 11
        E 32 83 2a 00
        E 48 93 2a 5d
        E 64 83 2a 00
        E 0 93 2a 44
        E 32 83 2a 00
        E 0 93 2a 33
        E 32 83 2a 00
        E 0 93 2a 2a
        E 32 83 2a 00
        E 0 93 2a 19
        E 32 83 2a 00
        E 0 93 2a 11
        E 32 83 2a 00
        E 32 93 2a 5d
        E 64 83 2a 00
        E 0 93 2a 44
        E 32 83 2a 00
        E 0 93 2a 33
        E 32 83 2a 00
        E 0 93 2a 2a
        E 32 83 2a 00
        E 0 93 2a 19
        E 32 83 2a 00
        E 0 93 2a 11
        E 32 83 2a 00
        E 288 93 2a 5d
        E 64 83 2a 00
        E 0 93 2a 44
        E 32 83 2a 00
        E 0 93 2a 33
        E 32 83 2a 00
        E 0 93 2a 2a
        E 32 83 2a 00
        E 0 93 2a 19
        E 32 83 2a 00
        E 0 93 2a 11
        E 32 83 2a 00
        E 304 93 2a 5d
        E 64 83 2a 00
        E 0 93 2a 44
        E 32 83 2a 00
        E 0 93 2a 33
        E 32 83 2a 00
        E 0 93 2a 2a
        E 32 83 2a 00
        E 0 93 2a 19
        E 32 83 2a 00
        E 0 93 2a 11
        E 32 83 2a 00
        E 160 93 2a 5d
        E 64 83 2a 00
        E 0 93 2a 44
        E 32 83 2a 00
        E 0 93 2a 33
        E 32 83 2a 00
        E 0 93 2a 5d
        E 64 83 2a 00
        E 0 93 2a 44
        E 32 83 2a 00
        E 0 93 2a 33
        E 32 83 2a 00
        E 0 93 2a 2a
        E 32 83 2a 00
        E 0 93 2a 19
        E 32 83 2a 00
        E 0 93 2a 11
        E 32 83 2a 00
        E 48 93 2a 5d
        E 64 83 2a 00
        E 0 93 2a 44
        E 32 83 2a 00
        E 0 93 2a 33
        E 32 83 2a 00
        E 0 93 2a 2a
        E 32 83 2a 00
        E 0 93 2a 19
        E 32 83 2a 00
        E 0 93 2a 11
        E 32 83 2a 00
        E 32 93 2a 5d
        E 64 83 2a 00
        E 0 93 2a 44
        E 32 83 2a 00
        E 0 93 2a 33
        E 32 83 2a 00
        E 0 93 2a 2a
        E 32 83 2a 00
        E 0 93 2a 19
        E 32 83 2a 00
        E 0 93 2a 11
        E 32 83 2a 00
        E 272 93 2a 5d
        E 64 83 2a 00
        E 0 93 2a 44
        E 32 83 2a 00
        E 0 93 2a 33
        E 32 83 2a 00
        E 0 93 2a 2a
        E 32 83 2a 00
        E 0 93 2a 19
        E 32 83 2a 00
        E 0 93 2a 11
        E 32 83 2a 00
        E 304 93 2a 5d
        E 64 83 2a 00
        E 0 93 2a 44
        E 32 83 2a 00
        E 0 93 2a 33
        E 32 83 2a 00
        E 0 93 2a 2a
        E 32 83 2a 00
        E 0 93 2a 19
        E 32 83 2a 00
        E 0 93 2a 11
        E 32 83 2a 00
        E 160 93 2a 5d
        E 64 83 2a 00
        E 0 93 2a 44
        E 32 83 2a 00
        E 0 93 2a 33
        E 32 83 2a 00
        E 0 93 2a 5d
        E 64 83 2a 00
        E 0 93 2a 44
        E 32 83 2a 00
        E 0 93 2a 33
        E 32 83 2a 00
        E 0 93 2a 2a
        E 32 83 2a 00
        E 0 93 2a 19
        E 32 83 2a 00
        E 0 93 2a 11
        E 32 83 2a 00
        E 32 93 2a 5d
        E 64 83 2a 00
        E 0 93 2a 44
        E 32 83 2a 00
        E 0 93 2a 33
        E 32 83 2a 00
        E 0 93 2a 2a
        E 32 83 2a 00
        E 0 93 2a 19
        E 32 83 2a 00
        E 0 93 2a 11
        E 32 83 2a 00
        E 32 93 2a 5d
        E 64 83 2a 00
        E 0 93 2a 44
        E 32 83 2a 00
        E 0 93 2a 33
        E 32 83 2a 00
        E 0 93 2a 2a
        E 32 83 2a 00
        E 0 93 2a 19
        E 32 83 2a 00
        E 0 93 2a 11
        E 32 83 2a 00
        E 304 93 2a 5d
        E 64 83 2a 00
        E 0 93 2a 44
        E 32 83 2a 00
        E 0 93 2a 33
        E 32 83 2a 00
        E 0 93 2a 2a
        E 32 83 2a 00
        E 0 93 2a 19
        E 32 83 2a 00
        E 0 93 2a 11
        E 32 83 2a 00
        E 288 93 2a 5d
        E 64 83 2a 00
        E 0 93 2a 44
        E 32 83 2a 00
        E 0 93 2a 33
        E 32 83 2a 00
        E 0 93 2a 2a
        E 32 83 2a 00
        E 0 93 2a 19
        E 32 83 2a 00
        E 0 93 2a 11
        E 32 83 2a 00
        E 176 93 2a 5d
        E 64 83 2a 00
        E 0 93 2a 44
        E 32 83 2a 00
        E 0 93 2a 33
        E 32 83 2a 00
        E 0 93 2a 2a
        E 32 83 2a 00
        E 0 93 2a 19
        E 32 83 2a 00
        E 0 93 2a 5d
        E 64 83 2a 00
        E 0 93 2a 44
        E 32 83 2a 00
        E 0 93 2a 33
        E 32 83 2a 00
        E 0 93 2a 2a
        E 32 83 2a 00
        E 0 93 2a 19
        E 32 83 2a 00
        E 0 93 2a 11
        E 32 83 2a 00
        E 32 93 2a 5d
        E 64 83 2a 00
        E 0 93 2a 44
        E 32 83 2a 00
        E 0 93 2a 33
        E 32 83 2a 00
        E 0 93 2a 2a
        E 32 83 2a 00
        E 0 93 2a 19
        E 32 83 2a 00
        E 0 93 2a 11
        E 32 83 2a 00
        E 48 93 2a 5d
        E 64 83 2a 00
        E 0 93 2a 44
        E 32 83 2a 00
        E 0 93 2a 33
        E 32 83 2a 00
        E 0 93 2a 2a
        E 32 83 2a 00
        E 0 93 2a 19
        E 32 83 2a 00
        E 0 93 2a 11
        E 32 83 2a 00
        E 224 93 2a 5d
        E 64 83 2a 00
        E 0 93 2a 44
        E 32 83 2a 00
        E 0 93 2a 33
        E 32 83 2a 00
        E 0 93 2a 2a
        E 32 83 2a 00
        E 0 93 2a 19
        E 32 83 2a 00
        E 0 93 2a 11
        E 32 83 2a 00
        E 288 93 2a 5d
        E 64 83 2a 00
        E 0 93 2a 44
        E 32 83 2a 00
        E 0 93 2a 33
        E 32 83 2a 00
        E 0 93 2a 2a
        E 32 83 2a 00
        E 0 93 2a 19
        E 32 83 2a 00
        E 0 93 2a 11
        E 32 83 2a 00
        E 176 93 2a 5d
        E 64 83 2a 00
        E 0 93 2a 44
        E 32 83 2a 00
        E 0 93 2a 33
        E 16 83 2a 00
        E 0 93 2a 5d
        E 64 83 2a 00
        E 0 93 2a 44
        E 32 83 2a 00
        E 0 93 2a 33
        E 32 83 2a 00
        E 0 93 2a 2a
        E 32 83 2a 00
        E 0 93 2a 19
        E 32 83 2a 00
        E 0 93 2a 11
        E 32 83 2a 00
        E 48 93 2a 5d
        E 64 83 2a 00
        E 0 93 2a 44
        E 32 83 2a 00
        E 0 93 2a 33
        E 32 83 2a 00
        E 0 93 2a 2a
        E 32 83 2a 00
        E 0 93 2a 19
        E 32 83 2a 00
        E 0 93 2a 11
        E 32 83 2a 00
        E 32 93 2a 5d
        E 64 83 2a 00
        E 0 93 2a 44
        E 32 83 2a 00
        E 0 93 2a 33
        E 32 83 2a 00
        E 0 93 2a 2a
        E 32 83 2a 00
        E 0 93 2a 19
        E 32 83 2a 00
        E 0 93 2a 11
        E 32 83 2a 00
        E 304 93 2a 5d
        E 64 83 2a 00
        E 0 93 2a 44
        E 32 83 2a 00
        E 0 93 2a 33
        E 32 83 2a 00
        E 0 93 2a 2a
        E 32 83 2a 00
        E 0 93 2a 19
        E 32 83 2a 00
        E 0 93 2a 11
        E 32 83 2a 00
        E 272 93 2a 5d
        E 64 83 2a 00
        E 0 93 2a 44
        E 32 83 2a 00
        E 0 93 2a 33
        E 32 83 2a 00
        E 0 93 2a 2a
        E 32 83 2a 00
        E 0 93 2a 19
        E 32 83 2a 00
        E 0 93 2a 11
        E 32 83 2a 00
        E 176 93 2a 5d
        E 64 83 2a 00
        E 0 93 2a 44
        E 32 83 2a 00
        E 0 93 2a 33
        E 16 83 2a 00
        E 0 93 2a 5d
        E 64 83 2a 00
        E 0 93 2a 44
        E 32 83 2a 00
        E 0 93 2a 33
        E 32 83 2a 00
        E 0 93 2a 2a
        E 32 83 2a 00
        E 0 93 2a 19
        E 32 83 2a 00
        E 0 93 2a 11
        E 32 83 2a 00
        E 48 93 2a 5d
        E 64 83 2a 00
        E 0 93 2a 44
        E 32 83 2a 00
        E 0 93 2a 33
        E 32 83 2a 00
        E 0 93 2a 2a
        E 32 83 2a 00
        E 0 93 2a 19
        E 32 83 2a 00
        E 0 93 2a 11
        E 32 83 2a 00
        E 32 93 2a 5d
        E 64 83 2a 00
        E 0 93 2a 44
        E 32 83 2a 00
        E 0 93 2a 33
        E 32 83 2a 00
        E 0 93 2a 2a
        E 32 83 2a 00
        E 0 93 2a 19
        E 32 83 2a 00
        E 0 93 2a 11
        E 32 83 2a 00
        E 288 93 2a 5d
        E 64 83 2a 00
        E 0 93 2a 44
        E 32 83 2a 00
        E 0 93 2a 33
        E 32 83 2a 00
        E 0 93 2a 2a
        E 32 83 2a 00
        E 0 93 2a 19
        E 32 83 2a 00
        E 0 93 2a 11
        E 32 83 2a 00
        E 304 93 2a 5d
        E 64 83 2a 00
        E 0 93 2a 44
        E 32 83 2a 00
        E 0 93 2a 33
        E 32 83 2a 00
        E 0 93 2a 2a
        E 32 83 2a 00
        E 0 93 2a 19
        E 32 83 2a 00
        E 0 93 2a 11
        E 32 83 2a 00
        E 176 93 2a 5d
        E 64 83 2a 00
        E 0 93 2a 44
        E 32 83 2a 00
        E 0 93 2a 33
        E 16 83 2a 00
        E 0 93 2a 5d
        E 64 83 2a 00
        E 0 93 2a 44
        E 32 83 2a 00
        E 0 93 2a 33
        E 32 83 2a 00
        E 0 93 2a 2a
        E 32 83 2a 00
        E 0 93 2a 19
        E 32 83 2a 00
        E 0 93 2a 11
        E 32 83 2a 00
        E 32 93 2a 5d
        E 64 83 2a 00
        E 0 93 2a 44
        E 32 83 2a 00
        E 0 93 2a 33
        E 32 83 2a 00
        E 0 93 2a 2a
        E 32 83 2a 00
        E 0 93 2a 19
        E 32 83 2a 00
        E 0 93 2a 11
        E 32 83 2a 00
        E 48 93 2a 5d
        E 64 83 2a 00
        E 0 93 2a 44
        E 32 83 2a 00
        E 0 93 2a 33
        E 32 83 2a 00
        E 0 93 2a 2a
        E 32 83 2a 00
        E 0 93 2a 19
        E 32 83 2a 00
        E 0 93 2a 11
        E 32 83 2a 00
        E 288 93 2a 5d
        E 64 83 2a 00
        E 0 93 2a 44
        E 32 83 2a 00
        E 0 93 2a 33
        E 32 83 2a 00
        E 0 93 2a 2a
        E 32 83 2a 00
        E 0 93 2a 19
        E 32 83 2a 00
        E 0 93 2a 11
        E 32 83 2a 00
        E 304 93 2a 5d
        E 64 83 2a 00
        E 0 93 2a 44
        E 32 83 2a 00
        E 0 93 2a 33
        E 32 83 2a 00
        E 0 93 2a 2a
        E 32 83 2a 00
        E 0 93 2a 19
        E 32 83 2a 00
        E 0 93 2a 11
        E 32 83 2a 00
        E 160 93 2a 5d
        E 64 83 2a 00
        E 0 93 2a 44
        E 32 83 2a 00
        E 0 93 2a 33
        E 32 83 2a 00
        E 0 93 2a 5d
        E 64 83 2a 00
        E 0 93 2a 44
        E 32 83 2a 00
        E 0 93 2a 33
        E 32 83 2a 00
        E 0 93 2a 2a
        E 32 83 2a 00
        E 0 93 2a 19
        E 32 83 2a 00
        E 0 93 2a 11
        E 32 83 2a 00
        E 32 93 2a 5d
        E 64 83 2a 00
        E 0 93 2a 44
        E 32 83 2a 00
        E 0 93 2a 33
        E 32 83 2a 00
        E 0 93 2a 2a
        E 32 83 2a 00
        E 0 93 2a 19
        E 32 83 2a 00
        E 0 93 2a 11
        E 32 83 2a 00
        E 32 93 2a 5d
        E 64 83 2a 00
        E 0 93 2a 44
        E 32 83 2a 00
        E 0 93 2a 33
        E 32 83 2a 00
        E 0 93 2a 2a
        E 32 83 2a 00
        E 0 93 2a 19
        E 32 83 2a 00
        E 0 93 2a 11
        E 32 83 2a 00
        E 304 93 2a 5d
        E 64 83 2a 00
        E 0 93 2a 44
        E 32 83 2a 00
        E 0 93 2a 33
        E 32 83 2a 00
        E 0 93 2a 2a
        E 32 83 2a 00
        E 0 93 2a 19
        E 32 83 2a 00
        E 0 93 2a 11
        E 32 83 2a 00
        E 272 93 2a 5d
        E 64 83 2a 00
        E 0 93 2a 44
        E 32 83 2a 00
        E 0 93 2a 33
        E 32 83 2a 00
        E 0 93 2a 2a
        E 32 83 2a 00
        E 0 93 2a 19
        E 32 83 2a 00
        E 0 93 2a 11
        E 32 83 2a 00
        E 176 93 2a 5d
        E 64 83 2a 00
        E 0 93 2a 44
        E 32 83 2a 00
        E 0 93 2a 33
        E 32 83 2a 00
        E 0 93 2a 5d
        E 64 83 2a 00
        E 0 93 2a 44
        E 32 83 2a 00
        E 0 93 2a 33
        E 32 83 2a 00
        E 0 93 2a 2a
        E 32 83 2a 00
        E 0 93 2a 19
        E 32 83 2a 00
        E 0 93 2a 11
        E 32 83 2a 00
        E 32 93 2a 5d
        E 64 83 2a 00
        E 0 93 2a 44
        E 32 83 2a 00
        E 0 93 2a 33
        E 32 83 2a 00
        E 0 93 2a 2a
        E 32 83 2a 00
        E 0 93 2a 19
        E 32 83 2a 00
        E 0 93 2a 11
        E 32 83 2a 00
        E 32 93 2a 5d
        E 64 83 2a 00
        E 0 93 2a 44
        E 32 83 2a 00
        E 0 93 2a 33
        E 32 83 2a 00
        E 0 93 2a 2a
        E 32 83 2a 00
        E 0 93 2a 19
        E 32 83 2a 00
        E 0 93 2a 11
        E 32 83 2a 00
        E 304 93 2a 5d
        E 64 83 2a 00
        E 0 93 2a 44
        E 32 83 2a 00
        E 0 93 2a 33
        E 32 83 2a 00
        E 0 93 2a 2a
        E 32 83 2a 00
        E 0 93 2a 19
        E 32 83 2a 00
        E 0 93 2a 11
        E 32 83 2a 00
        E 288 93 2a 5d
        E 64 83 2a 00
        E 0 93 2a 44
        E 32 83 2a 00
        E 0 93 2a 33
        E 32 83 2a 00
        E 0 93 2a 2a
        E 32 83 2a 00
        E 0 93 2a 19
        E 32 83 2a 00
        E 0 93 2a 11
        E 32 83 2a 00
        E 176 93 2a 5d
        E 64 83 2a 00
        E 0 93 2a 44
        E 32 83 2a 00
        E 0 93 2a 33
        E 32 83 2a 00
        E 0 93 2a 5d
        E 64 83 2a 00
        E 0 93 2a 44
        E 32 83 2a 00
        E 0 93 2a 33
        E 32 83 2a 00
        E 0 93 2a 2a
        E 32 83 2a 00
        E 0 93 2a 19
        E 32 83 2a 00
        E 0 93 2a 11
        E 32 83 2a 00
        E 32 93 2a 5d
        E 64 83 2a 00
        E 0 93 2a 44
        E 32 83 2a 00
        E 0 93 2a 33
        E 32 83 2a 00
        E 0 93 2a 2a
        E 32 83 2a 00
        E 0 93 2a 19
        E 32 83 2a 00
        E 0 93 2a 11
        E 32 83 2a 00
        E 32 93 2a 5d
        E 64 83 2a 00
        E 0 93 2a 44
        E 32 83 2a 00
        E 0 93 2a 33
        E 32 83 2a 00
        E 0 93 2a 2a
        E 32 83 2a 00
        E 0 93 2a 19
        E 32 83 2a 00
        E 0 93 2a 11
        E 32 83 2a 00
        E 288 93 2a 5d
        E 64 83 2a 00
        E 0 93 2a 44
        E 32 83 2a 00
        E 0 93 2a 33
        E 32 83 2a 00
        E 0 93 2a 2a
        E 32 83 2a 00
        E 0 93 2a 19
        E 32 83 2a 00
        E 0 93 2a 11
        E 32 83 2a 00
        E 304 93 2a 5d
        E 64 83 2a 00
        E 0 93 2a 44
        E 32 83 2a 00
        E 0 93 2a 33
        E 32 83 2a 00
        E 0 93 2a 2a
        E 32 83 2a 00
        E 0 93 2a 19
        E 32 83 2a 00
        E 0 93 2a 11
        E 32 83 2a 00
        E 176 93 2a 5d
        E 64 83 2a 00
        E 0 93 2a 44
        E 32 83 2a 00
        E 0 93 2a 33
        E 16 83 2a 00
        E 0 93 2a 5d
        E 64 83 2a 00
        E 0 93 2a 44
        E 32 83 2a 00
        E 0 93 2a 33
        E 32 83 2a 00
        E 0 93 2a 2a
        E 32 83 2a 00
        E 0 93 2a 19
        E 32 83 2a 00
        E 0 93 2a 11
        E 32 83 2a 00
        E 48 93 2a 5d
        E 64 83 2a 00
        E 0 93 2a 44
        E 32 83 2a 00
        E 0 93 2a 33
        E 32 83 2a 00
        E 0 93 2a 2a
        E 32 83 2a 00
        E 0 93 2a 19
        E 32 83 2a 00
        E 0 93 2a 11
        E 32 83 2a 00
        E 32 93 2a 5d
        E 64 83 2a 00
        E 0 93 2a 44
        E 32 83 2a 00
        E 0 93 2a 33
        E 32 83 2a 00
        E 0 93 2a 2a
        E 32 83 2a 00
        E 0 93 2a 19
        E 32 83 2a 00
        E 0 93 2a 11
        E 32 83 2a 00
        E 288 93 2a 5d
        E 64 83 2a 00
        E 0 93 2a 44
        E 32 83 2a 00
        E 0 93 2a 33
        E 32 83 2a 00
        E 0 93 2a 2a
        E 32 83 2a 00
        E 0 93 2a 19
        E 32 83 2a 00
        E 0 93 2a 11
        E 32 83 2a 00
        E 304 93 2a 5d
        E 64 83 2a 00
        E 0 93 2a 44
        E 32 83 2a 00
        E 0 93 2a 33
        E 32 83 2a 00
        E 0 93 2a 2a
        E 32 83 2a 00
        E 0 93 2a 19
        E 32 83 2a 00
        E 0 93 2a 11
        E 32 83 2a 00
        E 160 93 2a 5d
        E 64 83 2a 00
        E 0 93 2a 44
        E 32 83 2a 00
        E 0 93 2a 33
        E 16 83 2a 00
        E 0 93 2a 5d
        E 64 83 2a 00
        E 0 93 2a 44
        E 32 83 2a 00
        E 0 93 2a 33
        E 32 83 2a 00
        E 0 93 2a 2a
        E 32 83 2a 00
        E 0 93 2a 19
        E 32 83 2a 00
        E 0 93 2a 11
        E 32 83 2a 00
        E 32 93 2a 5d
        E 64 83 2a 00
        E 0 93 2a 44
        E 32 83 2a 00
        E 0 93 2a 33
        E 32 83 2a 00
        E 0 93 2a 2a
        E 32 83 2a 00
        E 0 93 2a 19
        E 32 83 2a 00
        E 0 93 2a 11
        E 32 83 2a 00
        E 48 93 2a 5d
        E 64 83 2a 00
        E 0 93 2a 44
        E 32 83 2a 00
        E 0 93 2a 33
        E 32 83 2a 00
        E 0 93 2a 2a
        E 32 83 2a 00
        E 0 93 2a 19
        E 32 83 2a 00
        E 0 93 2a 11
        E 32 83 2a 00
        E 288 93 2a 5d
        E 224 83 2a 00
        E 288 93 2a 5d
        E 224 83 2a 00
        E 176 93 2a 5d
        E 128 83 2a 00
        E 0 93 2a 5d
        E 224 83 2a 00
        E 32 93 2a 5d
        E 224 83 2a 00
        E 32 93 2a 5d
        E 144 83 2a 00
        E 0 93 2a 5d
        E 128 83 2a 00
        E 0 93 2a 5d
        E 128 83 2a 00
        E 0 93 2a 5d
        E 128 83 2a 00
        E 0 93 2a 5d
        E 224 83 2a 00
        E 288 93 2a 5d
        E 224 83 2a 00
        E 176 93 2a 5d
        E 128 83 2a 00
        E 0 93 2a 5d
        E 224 83 2a 00
        E 32 93 2a 5d
        E 224 83 2a 00
        E 32 93 2a 5d
        E 144 83 2a 00
        E 0 93 2a 5d
        E 112 83 2a 00
        E 0 93 2a 5d
        E 144 83 2a 00
        E 0 93 2a 5d
        E 112 83 2a 00
        E 0 93 2a 5d
        E 224 83 2a 00
        E 304 93 2a 5d
        E 224 83 2a 00
        E 160 93 2a 5d
        E 112 83 2a 00
        E 0 93 2a 5d
        E 224 83 2a 00
        E 32 93 2a 5d
        E 224 83 2a 00
        E 48 93 2a 5d
        E 128 83 2a 00
        E 0 93 2a 5d
        E 128 83 2a 00
        E 0 93 2a 5d
        E 144 83 2a 00
        E 0 93 2a 5d
        E 112 83 2a 00
        E 0 93 2a 5d
        E 224 83 2a 00
        E 304 93 2a 5d
        E 224 83 2a 00
        E 176 93 2a 5d
        E 112 83 2a 00
        E 0 93 2a 5d
        E 224 83 2a 00
        E 32 93 2a 5d
        E 224 83 2a 00
        E 48 93 2a 5d
        E 128 83 2a 00
        E 0 93 2a 5d
        E 144 83 2a 00
        E 0 93 2a 5d
        E 128 83 2a 00
        E 0 93 2a 5d
        E 128 83 2a 00
        E 0 93 2a 5d
        E 224 83 2a 00
        E 288 93 2a 5d
        E 224 83 2a 00
        E 160 93 2a 5d
        E 144 83 2a 00
        E 0 93 2a 5d
        E 224 83 2a 00
        E 32 93 2a 5d
        E 224 83 2a 00
        E 48 93 2a 5d
        E 112 83 2a 00
        E 0 93 2a 5d
        E 144 83 2a 00
        E 0 93 2a 5d
        E 112 83 2a 00
        E 0 93 2a 5d
        E 64 83 2a 00
        E 0 b3 7b 00
        E 0 ff 2f 00
      >
    >
  >
>