<REAPER_PROJECT 0.1 "7.27/win64" 1707000000
  <NOTES 0 2
    |ReapNES Studio Project
    |MIDI Import - Adventures_Lolo_title_rom_v1
  >
  RIPPLE 0
  GROUPOVERRIDE 0 0 0
  AUTOXFADE 129
  ENVATTACH 3
  POOLEDENVATTACH 0
  MIXERUIFLAGS 11 48
  ENVFADESZ10 40
  PEAKGAIN 1
  FEEDBACK 0
  PANLAW 1
  PROJOFFS 0 0 0
  MAXPROJLEN 0 0
  GRID 3199 8 1 8 1 0 0 0
  TIMEMODE 1 5 -1 30 0 0 -1
  VIDEO_CONFIG 0 0 65792
  PANMODE 3
  PANLAWFLAGS 3
  CURSOR 0
  ZOOM 100 0 0
  VZOOMEX 6 0
  USE_REC_CFG 0
  RECMODE 1
  SMPTESYNC 0 30 100 40 1000 300 0 0 1 0 0
  LOOP 0
  LOOPGRAN 0 4
  RECORD_PATH "Media" ""
  <RECORD_CFG
    ZXZhdxgAAQ==
  >
  <APPLYFX_CFG
  >
  RENDER_FILE ""
  RENDER_PATTERN ""
  RENDER_FMT 0 2 0
  RENDER_1X 0
  RENDER_RANGE 1 0 0 18 1000
  RENDER_RESAMPLE 3 0 1
  RENDER_ADDTOPROJ 0
  RENDER_STEMS 0
  RENDER_DITHER 0
  TIMELOCKMODE 1
  TEMPOENVLOCKMODE 1
  ITEMMIX 1
  DEFPITCHMODE 589824 0
  TAKELANE 1
  SAMPLERATE 44100 0 0
  <RENDER_CFG
    ZXZhdxgAAQ==
  >
  LOCK 1
  <METRONOME 6 2
    VOL 0.25 0.125
    BEATLEN 4
    FREQ 1760 880 1
    SAMPLES "" ""
    SPLIGNORE 0 0
    SPLDEF 2 660 "" 0
    SPLDEF 3 440 "" 0
    PATTERN 0 169
    PATTERNSTR ABBB
    MULT 1
  >
  GLOBAL_AUTO -1
  TEMPO 128.59999614200012 4 4
  PLAYRATE 1 0 0.25 4
  SELECTION 0 0
  SELECTION2 0 0
  MASTERAUTOMODE 0
  MASTERTRACKHEIGHT 0 0
  MASTERPEAKCOL 16576
  MASTERMUTESOLO 0
  MASTERTRACKVIEW 0 0.6667 0.5 0.5 0 0 0 0 0 0 0 0 0 0
  MASTERHWOUT 0 0 1 0 0 0 0 -1
  MASTER_NCH 2 2
  MASTER_VOLUME 1 0 -1 -1 1
  MASTER_PANMODE 3
  MASTER_PANLAWFLAGS 3
  MASTER_FX 1
  MASTER_SEL 0
  <MASTERPLAYSPEEDENV
    EGUID {8BBF1F2E-2A5A-4D9C-930D-F92AC5FDF21C}
    ACT 0 -1
    VIS 0 1 1
    LANEHEIGHT 0 0
    ARM 0
    DEFSHAPE 0 -1 -1
  >
  <TEMPOENVEX
    EGUID {A7C33A53-1A5D-4210-BF9B-E1510892E1F9}
    ACT 1 -1
    VIS 1 0 1
    LANEHEIGHT 0 0
    ARM 0
    DEFSHAPE 1 -1 -1
  >
  <PROJBAY
  >
  <TRACK {8D163DA5-AC62-406A-82FC-D4159B82F8D4}
    NAME "NES - Pulse 1 [ch0]"
    PEAKCOL 16576606
    BEAT -1
    AUTOMODE 0
    PANLAWFLAGS 3
    VOLPAN 1 0 -1 -1 1
    MUTESOLO 0 0 0
    IPHASE 0
    PLAYOFFS 0 1
    ISBUS 0 0
    BUSCOMP 0 0 0 0 0
    SHOWINMIX 1 0.6667 0.5 1 0.5 0 0 0
    FIXEDLANES 9 0 0 0 0
    SEL 1
    REC 1 5088 1 0 0 0 0 0
    VU 2
    TRACKHEIGHT 0 0 0 0 0 0 0
    INQ 0 0 0 0.5 100 0 0 100
    NCHAN 2
    FX 1
    TRACKID {8D163DA5-AC62-406A-82FC-D4159B82F8D4}
    PERF 0
    MIDIOUT -1
    MAINSEND 1 0
    <FXCHAIN
      WNDRECT 24 52 700 560
      SHOW 0
      LASTSEL 0
      DOCKED 0
      BYPASS 0 0 0
      <JS "ReapNES Studio/ReapNES_Console.jsfx" ""
        2 15 1 10 80 10 100 2 1 15 1 5 60 10 80 1 1 0 50 0 0 15 1 0 100 0 0 0.500000 0.500000 0.400000 0.300000 0.800000 0 1 0 0 0 0 - - - - - - - - - - - - - - - - - - - - - - - - - -
      >
      FLOATPOS 0 0 0 0
      FXID {469A7A43-1D30-4947-82D0-1F326A357E90}
      WAK 0 0
    >
    <ITEM
      POSITION 0
      LENGTH 69.5800954
      LOOP 0
      ALLTAKES 0
      FADEIN 0 0 0 0 0 0 0
      FADEOUT 0 0 0 0 0 0 0
      MUTE 0 0
      SEL 0
      IGUID {57F91C5D-506B-4F1B-90D3-8061BF5B0DCD}
      <SOURCE MIDI
        HASDATA 1 480 QN
        CCINTERP 32
        E 0 c0 50
        E 0 b0 0c 10
        E 0 b0 0b 7f
        E 0 90 39 7f
        E 16 80 39 00
        E 0 90 40 7f
        E 32 80 40 00
        E 0 90 32 7f
        E 16 80 32 00
        E 0 90 42 7f
        E 32 80 42 00
        E 0 90 32 7f
        E 16 80 32 00
        E 0 90 45 7f
        E 32 80 45 00
        E 0 90 32 7f
        E 16 80 32 00
        E 0 90 48 7f
        E 32 80 48 00
        E 0 90 33 7f
        E 16 80 33 00
        E 0 90 4c 7f
        E 32 80 4c 00
        E 0 90 33 7f
        E 16 80 33 00
        E 0 90 48 7f
        E 32 80 48 00
        E 0 90 33 7f
        E 16 80 33 00
        E 0 90 4c 7f
        E 32 80 4c 00
        E 0 90 33 7f
        E 16 80 33 00
        E 0 90 51 7f
        E 32 80 51 00
        E 0 90 33 7f
        E 16 80 33 00
        E 0 90 56 7f
        E 32 80 56 00
        E 0 90 33 7f
        E 16 80 33 00
        E 0 90 5e 7f
        E 32 80 5e 00
        E 0 90 34 7f
        E 16 80 34 00
        E 0 90 4c 7f
        E 32 80 4c 00
        E 0 90 33 7f
        E 16 80 33 00
        E 0 90 51 7f
        E 32 80 51 00
        E 0 90 33 7f
        E 16 80 33 00
        E 0 90 56 7f
        E 32 80 56 00
        E 0 90 33 7f
        E 16 80 33 00
        E 0 90 5e 7f
        E 32 80 5e 00
        E 0 90 34 7f
        E 16 80 34 00
        E 0 90 6b 7f
        E 32 80 6b 00
        E 0 90 34 7f
        E 16 80 34 00
        E 0 90 56 7f
        E 32 80 56 00
        E 0 90 33 7f
        E 16 80 33 00
        E 0 90 5e 7f
        E 32 80 5e 00
        E 0 90 34 7f
        E 16 80 34 00
        E 0 90 6b 7f
        E 32 80 6b 00
        E 0 90 4c 7f
        E 16 80 4c 00
        E 0 90 39 7f
        E 32 80 39 00
        E 0 90 4d 7f
        E 16 80 4d 00
        E 0 90 3a 7f
        E 32 80 3a 00
        E 0 90 34 7f
        E 16 80 34 00
        E 0 90 6b 7f
        E 32 80 6b 00
        E 0 90 4c 7f
        E 16 80 4c 00
        E 0 90 39 7f
        E 32 80 39 00
        E 0 90 4d 7f
        E 16 80 4d 00
        E 0 90 3a 7f
        E 32 80 3a 00
        E 0 90 4e 7f
        E 16 80 4e 00
        E 0 90 3b 7f
        E 32 80 3b 00
        E 0 90 4f 7f
        E 16 80 4f 00
        E 0 90 3c 7f
        E 32 b0 0b 08
        E 0 80 3c 00
        E 0 90 50 08
        E 16 80 50 00
        E 0 90 3a 08
        E 32 80 3a 00
        E 0 90 4e 08
        E 16 80 4e 00
        E 0 90 3b 08
        E 32 80 3b 00
        E 0 90 4f 08
        E 16 80 4f 00
        E 0 90 3c 08
        E 32 80 3c 00
        E 0 90 50 08
        E 16 80 50 00
        E 0 90 3a 08
        E 32 80 3a 00
        E 0 90 4e 08
        E 16 80 4e 00
        E 0 90 3b 08
        E 32 80 3b 00
        E 0 90 4f 08
        E 16 80 4f 00
        E 0 90 3c 08
        E 32 b0 0b 11
        E 0 80 3c 00
        E 0 90 50 11
        E 16 80 50 00
        E 0 90 3a 11
        E 32 80 3a 00
        E 0 90 4e 11
        E 16 80 4e 00
        E 0 90 3b 11
        E 32 80 3b 00
        E 0 90 4f 11
        E 16 80 4f 00
        E 0 90 3c 11
        E 32 80 3c 00
        E 0 90 50 11
        E 16 80 50 00
        E 0 90 3a 11
        E 32 80 3a 00
        E 0 90 4e 11
        E 16 80 4e 00
        E 0 90 3b 11
        E 32 80 3b 00
        E 0 90 4f 11
        E 16 80 4f 00
        E 0 90 3c 11
        E 32 b0 0b 19
        E 0 80 3c 00
        E 0 90 50 19
        E 16 80 50 00
        E 0 90 3a 19
        E 32 80 3a 00
        E 0 90 4e 19
        E 16 80 4e 00
        E 0 90 3b 19
        E 32 80 3b 00
        E 0 90 4f 19
        E 16 80 4f 00
        E 0 90 3c 19
        E 32 80 3c 00
        E 0 90 50 19
        E 16 80 50 00
        E 0 90 3a 19
        E 32 80 3a 00
        E 0 90 4e 19
        E 16 80 4e 00
        E 0 90 3b 19
        E 32 80 3b 00
        E 0 90 4f 19
        E 16 80 4f 00
        E 0 90 3c 19
        E 32 b0 0b 22
        E 0 80 3c 00
        E 0 90 50 22
        E 16 80 50 00
        E 0 90 3a 22
        E 32 80 3a 00
        E 0 90 4e 22
        E 16 80 4e 00
        E 0 90 3b 22
        E 32 80 3b 00
        E 0 90 4f 22
        E 16 80 4f 00
        E 0 90 3c 22
        E 32 80 3c 00
        E 0 90 50 22
        E 16 80 50 00
        E 0 90 3a 22
        E 32 80 3a 00
        E 0 90 4e 22
        E 16 80 4e 00
        E 0 90 3b 22
        E 32 80 3b 00
        E 0 90 4f 22
        E 16 80 4f 00
        E 0 90 3c 22
        E 32 b0 0b 2a
        E 0 80 3c 00
        E 0 90 50 2a
        E 16 80 50 00
        E 0 90 3a 2a
        E 32 80 3a 00
        E 0 90 4e 2a
        E 16 80 4e 00
        E 0 90 3b 2a
        E 32 80 3b 00
        E 0 90 4f 2a
        E 16 80 4f 00
        E 0 90 3c 2a
        E 32 80 3c 00
        E 0 90 50 2a
        E 16 80 50 00
        E 0 90 3a 2a
        E 32 80 3a 00
        E 0 90 4e 2a
        E 16 80 4e 00
        E 0 90 3b 2a
        E 32 80 3b 00
        E 0 90 4f 2a
        E 16 80 4f 00
        E 0 90 3c 2a
        E 32 b0 0b 22
        E 0 80 3c 00
        E 0 90 50 22
        E 16 80 50 00
        E 0 90 3a 22
        E 32 80 3a 00
        E 0 90 4e 22
        E 16 80 4e 00
        E 0 90 3b 22
        E 32 80 3b 00
        E 0 90 4f 22
        E 16 80 4f 00
        E 0 90 3c 22
        E 32 80 3c 00
        E 0 90 50 22
        E 16 80 50 00
        E 0 90 3a 22
        E 32 80 3a 00
        E 0 90 4e 22
        E 16 80 4e 00
        E 0 90 3b 22
        E 32 80 3b 00
        E 0 90 4f 22
        E 16 80 4f 00
        E 0 90 3c 22
        E 32 b0 0b 19
        E 0 80 3c 00
        E 0 90 50 19
        E 16 80 50 00
        E 0 90 3a 19
        E 32 80 3a 00
        E 0 90 4e 19
        E 16 80 4e 00
        E 0 90 3b 19
        E 32 80 3b 00
        E 0 90 4f 19
        E 16 80 4f 00
        E 0 90 3c 19
        E 32 80 3c 00
        E 0 90 50 19
        E 16 80 50 00
        E 0 90 3a 19
        E 32 80 3a 00
        E 0 90 4e 19
        E 16 80 4e 00
        E 0 90 3b 19
        E 32 80 3b 00
        E 0 90 4f 19
        E 16 80 4f 00
        E 0 90 3c 19
        E 32 b0 0b 11
        E 0 80 3c 00
        E 0 90 50 11
        E 16 80 50 00
        E 0 90 3a 11
        E 32 80 3a 00
        E 0 90 4e 11
        E 16 80 4e 00
        E 0 90 3b 11
        E 32 80 3b 00
        E 0 90 4f 11
        E 16 80 4f 00
        E 0 90 3c 11
        E 32 80 3c 00
        E 0 90 50 11
        E 16 80 50 00
        E 0 90 3a 11
        E 32 80 3a 00
        E 0 90 4e 11
        E 16 80 4e 00
        E 0 90 3b 11
        E 32 80 3b 00
        E 0 90 4f 11
        E 16 80 4f 00
        E 0 90 3c 11
        E 32 b0 0b 08
        E 0 80 3c 00
        E 0 90 50 08
        E 16 80 50 00
        E 0 90 3a 08
        E 32 80 3a 00
        E 0 90 4e 08
        E 16 80 4e 00
        E 0 90 3b 08
        E 32 80 3b 00
        E 0 90 4f 08
        E 16 80 4f 00
        E 0 90 3c 08
        E 32 80 3c 00
        E 0 90 50 08
        E 16 80 50 00
        E 0 90 3a 08
        E 32 80 3a 00
        E 0 90 4e 08
        E 16 80 4e 00
        E 0 90 3b 08
        E 32 80 3b 00
        E 0 90 4f 08
        E 16 80 4f 00
        E 0 90 3c 08
        E 32 80 3c 00
        E 0 90 50 08
        E 16 80 50 00
        E 0 90 3a 08
        E 32 80 3a 00
        E 0 90 4e 08
        E 16 80 4e 00
        E 0 90 3b 08
        E 32 80 3b 00
        E 0 90 4f 08
        E 16 80 4f 00
        E 0 90 3c 08
        E 32 80 3c 00
        E 0 90 50 08
        E 16 80 50 00
        E 0 90 3a 08
        E 32 80 3a 00
        E 0 90 4e 08
        E 16 80 4e 00
        E 0 90 3b 08
        E 32 80 3b 00
        E 0 90 4f 08
        E 16 80 4f 00
        E 0 90 3c 08
        E 32 b0 0b 11
        E 0 80 3c 00
        E 0 90 50 11
        E 16 80 50 00
        E 0 90 3a 11
        E 32 80 3a 00
        E 0 90 4e 11
        E 16 80 4e 00
        E 0 90 3b 11
        E 32 80 3b 00
        E 0 90 4f 11
        E 16 80 4f 00
        E 0 90 3c 11
        E 32 80 3c 00
        E 0 90 50 11
        E 16 80 50 00
        E 0 90 3a 11
        E 32 80 3a 00
        E 0 90 4e 11
        E 16 80 4e 00
        E 0 90 3b 11
        E 32 80 3b 00
        E 0 90 4f 11
        E 16 80 4f 00
        E 0 90 3c 11
        E 32 b0 0b 19
        E 0 80 3c 00
        E 0 90 50 19
        E 16 80 50 00
        E 0 90 3a 19
        E 32 80 3a 00
        E 0 90 4e 19
        E 16 80 4e 00
        E 0 90 3b 19
        E 32 80 3b 00
        E 0 90 4f 19
        E 16 80 4f 00
        E 0 90 3c 19
        E 32 80 3c 00
        E 0 90 50 19
        E 16 80 50 00
        E 0 90 3a 19
        E 32 80 3a 00
        E 0 90 4e 19
        E 16 80 4e 00
        E 0 90 3b 19
        E 32 80 3b 00
        E 0 90 4f 19
        E 16 80 4f 00
        E 0 90 3c 19
        E 32 b0 0b 22
        E 0 80 3c 00
        E 0 90 50 22
        E 16 80 50 00
        E 0 90 3a 22
        E 32 80 3a 00
        E 0 90 4e 22
        E 16 80 4e 00
        E 0 90 3b 22
        E 32 80 3b 00
        E 0 90 4f 22
        E 16 80 4f 00
        E 0 90 3c 22
        E 32 80 3c 00
        E 0 90 50 22
        E 16 80 50 00
        E 0 90 3a 22
        E 32 80 3a 00
        E 0 90 4e 22
        E 16 80 4e 00
        E 0 90 3b 22
        E 32 80 3b 00
        E 0 90 4f 22
        E 16 80 4f 00
        E 0 90 3c 22
        E 32 b0 0b 2a
        E 0 80 3c 00
        E 0 90 50 2a
        E 16 80 50 00
        E 0 90 3a 2a
        E 32 80 3a 00
        E 0 90 4e 2a
        E 16 80 4e 00
        E 0 90 3b 2a
        E 32 80 3b 00
        E 0 90 4f 2a
        E 16 80 4f 00
        E 0 90 3c 2a
        E 32 80 3c 00
        E 0 90 50 2a
        E 16 80 50 00
        E 0 90 3a 2a
        E 32 80 3a 00
        E 0 90 4e 2a
        E 16 80 4e 00
        E 0 90 3b 2a
        E 32 80 3b 00
        E 0 90 4f 2a
        E 16 80 4f 00
        E 0 90 3c 2a
        E 32 b0 0b 22
        E 0 80 3c 00
        E 0 90 50 22
        E 16 80 50 00
        E 0 90 3a 22
        E 32 80 3a 00
        E 0 90 4e 22
        E 16 80 4e 00
        E 0 90 3b 22
        E 32 80 3b 00
        E 0 90 4f 22
        E 16 80 4f 00
        E 0 90 3c 22
        E 32 80 3c 00
        E 0 90 50 22
        E 16 80 50 00
        E 0 90 3a 22
        E 32 80 3a 00
        E 0 90 4e 22
        E 16 80 4e 00
        E 0 90 3b 22
        E 32 80 3b 00
        E 0 90 4f 22
        E 16 80 4f 00
        E 0 90 3c 22
        E 32 b0 0b 19
        E 0 80 3c 00
        E 0 90 50 19
        E 16 80 50 00
        E 0 90 3a 19
        E 32 80 3a 00
        E 0 90 4e 19
        E 16 80 4e 00
        E 0 90 3b 19
        E 32 80 3b 00
        E 0 90 4f 19
        E 16 80 4f 00
        E 0 90 3c 19
        E 32 80 3c 00
        E 0 90 50 19
        E 16 80 50 00
        E 0 90 3a 19
        E 32 80 3a 00
        E 0 90 4e 19
        E 16 80 4e 00
        E 0 90 3b 19
        E 32 80 3b 00
        E 0 90 4f 19
        E 16 80 4f 00
        E 0 90 3c 19
        E 32 b0 0b 11
        E 0 80 3c 00
        E 0 90 50 11
        E 16 80 50 00
        E 0 90 3a 11
        E 32 80 3a 00
        E 0 90 4e 11
        E 16 80 4e 00
        E 0 90 3b 11
        E 32 80 3b 00
        E 0 90 4f 11
        E 16 80 4f 00
        E 0 90 3c 11
        E 32 80 3c 00
        E 0 90 50 11
        E 16 80 50 00
        E 0 90 3a 11
        E 32 80 3a 00
        E 0 90 4e 11
        E 16 80 4e 00
        E 0 90 3b 11
        E 32 80 3b 00
        E 0 90 4f 11
        E 16 80 4f 00
        E 0 90 3c 11
        E 32 b0 0b 08
        E 0 80 3c 00
        E 0 90 50 08
        E 16 80 50 00
        E 0 90 3a 08
        E 32 80 3a 00
        E 0 90 4e 08
        E 16 80 4e 00
        E 0 90 3b 08
        E 32 80 3b 00
        E 0 90 4f 08
        E 16 80 4f 00
        E 0 90 3c 08
        E 32 b0 0c 40
        E 0 b0 0b 22
        E 0 80 3c 00
        E 0 90 19 22
        E 16 80 19 00
        E 0 90 22 22
        E 16 80 22 00
        E 0 90 1c 22
        E 16 80 1c 00
        E 0 90 26 22
        E 16 80 26 00
        E 0 90 1a 22
        E 16 80 1a 00
        E 0 90 2a 22
        E 16 80 2a 00
        E 0 90 1f 22
        E 16 80 1f 00
        E 0 90 27 22
        E 16 80 27 00
        E 0 90 20 22
        E 16 80 20 00
        E 0 90 36 22
        E 16 80 36 00
        E 0 90 21 22
        E 16 80 21 00
        E 0 90 2f 22
        E 16 80 2f 00
        E 0 90 18 22
        E 16 80 18 00
        E 0 90 22 22
        E 16 80 22 00
        E 0 90 1c 22
        E 16 80 1c 00
        E 0 90 26 22
        E 16 80 26 00
        E 0 90 1a 22
        E 16 80 1a 00
        E 0 90 2a 22
        E 16 80 2a 00
        E 0 90 1f 22
        E 16 80 1f 00
        E 0 90 27 22
        E 16 80 27 00
        E 0 90 20 22
        E 16 80 20 00
        E 0 90 36 22
        E 16 80 36 00
        E 0 90 21 22
        E 16 80 21 00
        E 0 90 2f 22
        E 16 80 2f 00
        E 0 90 18 22
        E 16 80 18 00
        E 0 90 22 22
        E 16 80 22 00
        E 0 90 1c 22
        E 16 80 1c 00
        E 0 90 26 22
        E 16 80 26 00
        E 0 90 1a 22
        E 16 80 1a 00
        E 0 90 2a 22
        E 16 80 2a 00
        E 0 90 1f 22
        E 16 80 1f 00
        E 0 90 27 22
        E 16 80 27 00
        E 0 90 20 22
        E 16 80 20 00
        E 0 90 36 22
        E 16 80 36 00
        E 0 90 21 22
        E 16 80 21 00
        E 0 90 2f 22
        E 16 b0 0b 7f
        E 0 80 2f 00
        E 0 90 1b 7f
        E 16 80 1b 00
        E 0 90 1e 7f
        E 16 80 1e 00
        E 0 90 22 7f
        E 16 80 22 00
        E 0 90 29 7f
        E 16 80 29 00
        E 0 90 26 7f
        E 16 80 26 00
        E 0 90 2a 7f
        E 16 80 2a 00
        E 0 90 2b 7f
        E 16 80 2b 00
        E 0 90 2c 7f
        E 16 80 2c 00
        E 0 90 2b 7f
        E 16 80 2b 00
        E 0 90 2c 7f
        E 16 80 2c 00
        E 0 90 2b 7f
        E 16 80 2b 00
        E 0 90 27 7f
        E 16 80 27 00
        E 0 90 21 7f
        E 16 80 21 00
        E 208 90 27 7f
        E 16 80 27 00
        E 0 90 29 7f
        E 16 80 29 00
        E 0 90 22 7f
        E 16 80 22 00
        E 0 90 24 7f
        E 16 80 24 00
        E 0 90 1f 7f
        E 16 80 1f 00
        E 192 90 29 7f
        E 16 80 29 00
        E 0 90 21 7f
        E 16 80 21 00
        E 0 90 25 7f
        E 16 80 25 00
        E 0 90 1d 7f
        E 16 80 1d 00
        E 0 90 1c 7f
        E 16 80 1c 00
        E 160 90 24 7f
        E 16 80 24 00
        E 0 90 23 7f
        E 16 80 23 00
        E 0 90 1e 7f
        E 16 80 1e 00
        E 0 90 1b 7f
        E 16 80 1b 00
        E 0 90 1a 7f
        E 16 80 1a 00
        E 144 90 24 7f
        E 16 80 24 00
        E 0 90 22 7f
        E 16 80 22 00
        E 0 90 1a 7f
        E 16 80 1a 00
        E 0 90 1d 7f
        E 16 80 1d 00
        E 0 90 19 7f
        E 16 80 19 00
        E 112 90 1e 7f
        E 16 80 1e 00
        E 0 90 20 7f
        E 16 80 20 00
        E 0 90 1b 7f
        E 32 80 1b 00
        E 0 90 15 7f
        E 16 80 15 00
        E 128 b0 0b 19
        E 0 90 23 19
        E 16 80 23 00
        E 0 90 29 19
        E 16 80 29 00
        E 0 90 21 19
        E 16 80 21 00
        E 0 90 2c 19
        E 16 80 2c 00
        E 0 90 28 19
        E 16 80 28 00
        E 0 90 27 19
        E 16 80 27 00
        E 0 90 2a 19
        E 16 80 2a 00
        E 0 90 29 19
        E 16 b0 0b 11
        E 0 80 29 00
        E 0 90 25 11
        E 16 80 25 00
        E 0 90 2c 11
        E 16 80 2c 00
        E 0 90 28 11
        E 16 80 28 00
        E 0 90 27 11
        E 16 80 27 00
        E 0 90 2a 11
        E 16 80 2a 00
        E 0 90 29 11
        E 16 80 29 00
        E 0 90 2c 11
        E 16 80 2c 00
        E 0 90 35 11
        E 16 80 35 00
        E 0 90 27 11
        E 32 80 27 00
        E 0 90 2a 11
        E 16 80 2a 00
        E 0 90 29 11
        E 16 80 29 00
        E 0 90 2c 11
        E 16 80 2c 00
        E 0 90 35 11
        E 16 80 35 00
        E 0 90 2e 11
        E 16 80 2e 00
        E 0 90 2d 11
        E 16 80 2d 00
        E 0 90 28 11
        E 16 80 28 00
        E 0 90 37 11
        E 16 80 37 00
        E 0 90 2f 11
        E 16 80 2f 00
        E 0 90 2e 11
        E 16 80 2e 00
        E 0 90 31 11
        E 16 80 31 00
        E 0 90 30 11
        E 16 80 30 00
        E 0 90 33 11
        E 16 80 33 00
        E 0 90 32 11
        E 16 b0 0b 08
        E 0 80 32 00
        E 0 90 35 08
        E 16 80 35 00
        E 0 90 2e 08
        E 16 80 2e 00
        E 0 90 31 08
        E 16 80 31 00
        E 0 90 30 08
        E 16 80 30 00
        E 0 90 33 08
        E 16 80 33 00
        E 0 90 32 08
        E 16 80 32 00
        E 0 90 35 08
        E 16 80 35 00
        E 0 90 34 08
        E 16 80 34 00
        E 0 90 37 08
        E 16 80 37 00
        E 0 90 30 08
        E 16 80 30 00
        E 0 90 33 08
        E 16 80 33 00
        E 0 90 32 08
        E 16 80 32 00
        E 0 90 35 08
        E 16 80 35 00
        E 0 90 34 08
        E 16 80 34 00
        E 0 90 37 08
        E 16 80 37 00
        E 0 90 56 08
        E 16 80 56 00
        E 0 90 2d 08
        E 16 80 2d 00
        E 0 90 35 08
        E 16 80 35 00
        E 0 90 38 08
        E 16 80 38 00
        E 0 90 5e 08
        E 16 80 5e 00
        E 0 90 3a 08
        E 16 80 3a 00
        E 0 90 39 08
        E 16 80 39 00
        E 0 90 3c 08
        E 16 80 3c 00
        E 0 90 3b 08
        E 16 80 3b 00
        E 256 b0 0b 11
        E 0 90 42 11
        E 16 80 42 00
        E 0 90 3e 11
        E 16 80 3e 00
        E 0 90 41 11
        E 16 80 41 00
        E 0 90 40 11
        E 16 80 40 00
        E 0 90 43 11
        E 16 80 43 00
        E 0 90 42 11
        E 16 80 42 00
        E 0 90 45 11
        E 16 80 45 00
        E 0 90 44 11
        E 16 b0 0b 08
        E 0 80 44 00
        E 0 90 47 08
        E 16 80 47 00
        E 0 90 40 08
        E 16 80 40 00
        E 0 90 43 08
        E 16 80 43 00
        E 0 90 42 08
        E 16 80 42 00
        E 0 90 45 08
        E 16 80 45 00
        E 0 90 44 08
        E 16 80 44 00
        E 0 90 47 08
        E 16 80 47 00
        E 0 90 46 08
        E 16 80 46 00
        E 0 90 49 08
        E 16 80 49 00
        E 0 90 42 08
        E 16 80 42 00
        E 0 90 45 08
        E 16 80 45 00
        E 0 90 44 08
        E 16 80 44 00
        E 0 90 47 08
        E 16 80 47 00
        E 0 90 46 08
        E 16 80 46 00
        E 0 90 49 08
        E 16 80 49 00
        E 0 90 48 08
        E 16 80 48 00
        E 448 b0 0b 5d
        E 0 90 26 5d
        E 16 80 26 00
        E 0 90 2c 5d
        E 16 80 2c 00
        E 0 90 22 5d
        E 16 80 22 00
        E 0 90 2c 5d
        E 16 80 2c 00
        E 0 90 22 5d
        E 16 80 22 00
        E 0 90 2c 5d
        E 16 80 2c 00
        E 0 90 22 5d
        E 16 80 22 00
        E 0 90 2c 5d
        E 16 80 2c 00
        E 0 90 22 5d
        E 16 80 22 00
        E 0 90 2c 5d
        E 16 80 2c 00
        E 0 90 22 5d
        E 16 80 22 00
        E 0 90 2c 5d
        E 16 80 2c 00
        E 0 90 22 5d
        E 16 80 22 00
        E 0 90 2c 5d
        E 16 80 2c 00
        E 0 90 22 5d
        E 16 80 22 00
        E 0 90 2c 5d
        E 16 80 2c 00
        E 0 90 22 5d
        E 16 80 22 00
        E 0 90 2c 5d
        E 16 80 2c 00
        E 0 90 22 5d
        E 16 80 22 00
        E 0 90 2c 5d
        E 16 80 2c 00
        E 0 90 22 5d
        E 16 80 22 00
        E 0 90 2c 5d
        E 16 80 2c 00
        E 0 90 27 5d
        E 16 80 27 00
        E 0 90 26 5d
        E 16 80 26 00
        E 0 90 28 5d
        E 16 80 28 00
        E 0 90 27 5d
        E 16 80 27 00
        E 0 90 29 5d
        E 16 80 29 00
        E 0 90 28 5d
        E 16 80 28 00
        E 0 90 2a 5d
        E 16 80 2a 00
        E 0 90 29 5d
        E 16 80 29 00
        E 0 90 2b 5d
        E 16 80 2b 00
        E 0 90 2a 5d
        E 16 b0 0b 55
        E 0 80 2a 00
        E 0 90 37 55
        E 16 80 37 00
        E 0 90 2d 55
        E 16 80 2d 00
        E 0 90 2f 55
        E 16 80 2f 00
        E 0 90 2e 55
        E 16 80 2e 00
        E 0 90 30 55
        E 16 80 30 00
        E 0 90 2f 55
        E 16 80 2f 00
        E 0 90 31 55
        E 16 80 31 00
        E 0 90 30 55
        E 16 80 30 00
        E 0 90 32 55
        E 16 80 32 00
        E 0 90 31 55
        E 16 b0 0b 4c
        E 0 80 31 00
        E 0 90 33 4c
        E 32 80 33 00
        E 0 90 35 4c
        E 16 80 35 00
        E 0 90 34 4c
        E 16 80 34 00
        E 0 90 36 4c
        E 16 80 36 00
        E 0 90 35 4c
        E 16 80 35 00
        E 0 90 37 4c
        E 16 80 37 00
        E 0 90 36 4c
        E 16 80 36 00
        E 0 90 38 4c
        E 16 80 38 00
        E 0 90 5e 4c
        E 16 80 5e 00
        E 0 90 2d 4c
        E 16 80 2d 00
        E 0 90 6b 4c
        E 16 b0 0b 44
        E 0 80 6b 00
        E 0 90 3a 44
        E 16 80 3a 00
        E 0 90 39 44
        E 16 80 39 00
        E 0 90 3b 44
        E 16 80 3b 00
        E 0 90 3a 44
        E 16 80 3a 00
        E 0 90 3c 44
        E 16 80 3c 00
        E 0 90 3b 44
        E 16 80 3b 00
        E 0 90 3d 44
        E 16 80 3d 00
        E 0 90 3c 44
        E 16 80 3c 00
        E 0 90 3e 44
        E 16 80 3e 00
        E 0 90 3d 44
        E 16 80 3d 00
        E 0 90 3f 44
        E 16 80 3f 00
        E 0 90 3e 44
        E 16 b0 0b 3b
        E 0 80 3e 00
        E 0 90 40 3b
        E 16 80 40 00
        E 0 90 3c 3b
        E 16 80 3c 00
        E 0 90 3e 3b
        E 16 80 3e 00
        E 0 90 3d 3b
        E 16 80 3d 00
        E 0 90 3f 3b
        E 16 80 3f 00
        E 0 90 3e 3b
        E 16 b0 0b 33
        E 0 80 3e 00
        E 0 90 40 33
        E 16 80 40 00
        E 0 90 3c 33
        E 16 80 3c 00
        E 0 90 3e 33
        E 16 80 3e 00
        E 0 90 3d 33
        E 16 80 3d 00
        E 0 90 3f 33
        E 16 80 3f 00
        E 0 90 3e 33
        E 16 b0 0b 2a
        E 0 80 3e 00
        E 0 90 40 2a
        E 16 80 40 00
        E 0 90 3c 2a
        E 16 80 3c 00
        E 0 90 3e 2a
        E 16 80 3e 00
        E 0 90 3d 2a
        E 16 80 3d 00
        E 0 90 3f 2a
        E 16 80 3f 00
        E 0 90 3e 2a
        E 16 b0 0b 22
        E 0 80 3e 00
        E 0 90 40 22
        E 16 80 40 00
        E 0 90 3c 22
        E 16 80 3c 00
        E 0 90 3e 22
        E 16 80 3e 00
        E 0 90 3d 22
        E 16 80 3d 00
        E 0 90 3f 22
        E 16 80 3f 00
        E 0 90 3e 22
        E 16 b0 0b 19
        E 0 80 3e 00
        E 0 90 40 19
        E 16 80 40 00
        E 0 90 3c 19
        E 16 80 3c 00
        E 0 90 3e 19
        E 16 80 3e 00
        E 0 90 3d 19
        E 16 80 3d 00
        E 0 90 3f 19
        E 16 80 3f 00
        E 0 90 3e 19
        E 16 b0 0b 11
        E 0 80 3e 00
        E 0 90 40 11
        E 16 80 40 00
        E 0 90 3c 11
        E 16 80 3c 00
        E 0 90 3e 11
        E 16 80 3e 00
        E 0 90 3d 11
        E 16 80 3d 00
        E 0 90 3f 11
        E 16 80 3f 00
        E 0 90 3e 11
        E 16 b0 0b 08
        E 0 80 3e 00
        E 0 90 40 08
        E 16 80 40 00
        E 0 90 3c 08
        E 16 80 3c 00
        E 0 90 3e 08
        E 16 80 3e 00
        E 0 90 3d 08
        E 16 80 3d 00
        E 0 90 3f 08
        E 16 80 3f 00
        E 0 90 3e 08
        E 16 80 3e 00
        E 10832 b0 0b 66
        E 0 90 4d 66
        E 32 b0 0c 20
        E 0 80 4d 00
        E 0 90 51 66
        E 32 80 51 00
        E 0 90 55 66
        E 32 80 55 00
        E 0 90 58 66
        E 32 80 58 00
        E 0 90 5c 66
        E 32 b0 0c 40
        E 0 b0 0b 22
        E 0 80 5c 00
        E 0 90 5f 22
        E 32 80 5f 00
        E 0 90 4d 22
        E 32 b0 0c 20
        E 0 80 4d 00
        E 0 90 51 22
        E 32 80 51 00
        E 0 90 55 22
        E 32 80 55 00
        E 0 90 58 22
        E 32 80 58 00
        E 0 90 5c 22
        E 32 b0 0c 40
        E 0 b0 0b 19
        E 0 80 5c 00
        E 0 90 5f 19
        E 32 80 5f 00
        E 0 90 4d 19
        E 32 b0 0c 20
        E 0 80 4d 00
        E 0 90 51 19
        E 32 80 51 00
        E 0 90 55 19
        E 32 80 55 00
        E 0 90 58 19
        E 32 80 58 00
        E 0 90 5c 19
        E 32 b0 0c 40
        E 0 b0 0b 11
        E 0 80 5c 00
        E 0 90 5f 11
        E 32 80 5f 00
        E 0 90 4d 11
        E 32 b0 0c 20
        E 0 80 4d 00
        E 0 90 51 11
        E 32 80 51 00
        E 0 90 55 11
        E 32 80 55 00
        E 0 90 58 11
        E 32 80 58 00
        E 0 90 5c 11
        E 32 b0 0c 40
        E 0 b0 0b 08
        E 0 80 5c 00
        E 0 90 5f 08
        E 32 80 5f 00
        E 0 90 4d 08
        E 32 b0 0c 20
        E 0 80 4d 00
        E 0 90 51 08
        E 32 80 51 00
        E 0 90 55 08
        E 32 80 55 00
        E 0 90 58 08
        E 32 80 58 00
        E 0 90 5c 08
        E 32 80 5c 00
        E 9536 b0 0c 10
        E 0 b0 0b 7f
        E 0 90 37 7f
        E 16 80 37 00
        E 0 90 40 7f
        E 32 80 40 00
        E 0 90 32 7f
        E 16 80 32 00
        E 0 90 42 7f
        E 32 80 42 00
        E 0 90 32 7f
        E 16 80 32 00
        E 0 90 45 7f
        E 32 80 45 00
        E 0 90 32 7f
        E 16 80 32 00
        E 0 90 48 7f
        E 32 80 48 00
        E 0 90 33 7f
        E 16 80 33 00
        E 0 90 4c 7f
        E 32 80 4c 00
        E 0 90 33 7f
        E 16 80 33 00
        E 0 90 48 7f
        E 32 80 48 00
        E 0 90 33 7f
        E 16 80 33 00
        E 0 90 4c 7f
        E 32 80 4c 00
        E 0 90 33 7f
        E 16 80 33 00
        E 0 90 51 7f
        E 32 80 51 00
        E 0 90 33 7f
        E 16 80 33 00
        E 0 90 56 7f
        E 32 80 56 00
        E 0 90 33 7f
        E 16 80 33 00
        E 0 90 5e 7f
        E 32 80 5e 00
        E 0 90 34 7f
        E 16 80 34 00
        E 0 90 4c 7f
        E 32 80 4c 00
        E 0 90 33 7f
        E 16 80 33 00
        E 0 90 51 7f
        E 32 80 51 00
        E 0 90 33 7f
        E 16 80 33 00
        E 0 90 56 7f
        E 32 80 56 00
        E 0 90 33 7f
        E 16 80 33 00
        E 0 90 5e 7f
        E 32 80 5e 00
        E 0 90 34 7f
        E 16 80 34 00
        E 0 90 6b 7f
        E 32 80 6b 00
        E 0 90 34 7f
        E 16 80 34 00
        E 0 90 56 7f
        E 32 80 56 00
        E 0 90 33 7f
        E 16 80 33 00
        E 0 90 5e 7f
        E 32 80 5e 00
        E 0 90 34 7f
        E 16 80 34 00
        E 0 90 6b 7f
        E 32 80 6b 00
        E 0 90 4c 7f
        E 16 80 4c 00
        E 0 90 39 7f
        E 32 80 39 00
        E 0 90 4d 7f
        E 16 80 4d 00
        E 0 90 3a 7f
        E 32 80 3a 00
        E 0 90 34 7f
        E 16 80 34 00
        E 0 90 6b 7f
        E 32 80 6b 00
        E 0 90 4c 7f
        E 16 80 4c 00
        E 0 90 39 7f
        E 32 80 39 00
        E 0 90 4d 7f
        E 16 80 4d 00
        E 0 90 3a 7f
        E 32 80 3a 00
        E 0 90 4e 7f
        E 16 80 4e 00
        E 0 90 3b 7f
        E 32 80 3b 00
        E 0 90 4f 7f
        E 16 80 4f 00
        E 0 90 3c 7f
        E 32 b0 0b 08
        E 0 80 3c 00
        E 0 90 50 08
        E 16 80 50 00
        E 0 90 3a 08
        E 32 80 3a 00
        E 0 90 4e 08
        E 16 80 4e 00
        E 0 90 3b 08
        E 32 80 3b 00
        E 0 90 4f 08
        E 16 80 4f 00
        E 0 90 3c 08
        E 32 80 3c 00
        E 0 90 50 08
        E 16 80 50 00
        E 0 90 3a 08
        E 32 80 3a 00
        E 0 90 4e 08
        E 16 80 4e 00
        E 0 90 3b 08
        E 32 80 3b 00
        E 0 90 4f 08
        E 16 80 4f 00
        E 0 90 3c 08
        E 32 b0 0b 11
        E 0 80 3c 00
        E 0 90 50 11
        E 16 80 50 00
        E 0 90 3a 11
        E 32 80 3a 00
        E 0 90 4e 11
        E 16 80 4e 00
        E 0 90 3b 11
        E 32 80 3b 00
        E 0 90 4f 11
        E 16 80 4f 00
        E 0 90 3c 11
        E 32 80 3c 00
        E 0 90 50 11
        E 16 80 50 00
        E 0 90 3a 11
        E 32 80 3a 00
        E 0 90 4e 11
        E 16 80 4e 00
        E 0 90 3b 11
        E 32 80 3b 00
        E 0 90 4f 11
        E 16 80 4f 00
        E 0 90 3c 11
        E 32 b0 0b 19
        E 0 80 3c 00
        E 0 90 50 19
        E 16 80 50 00
        E 0 90 3a 19
        E 32 80 3a 00
        E 0 90 4e 19
        E 16 80 4e 00
        E 0 90 3b 19
        E 32 80 3b 00
        E 0 90 4f 19
        E 16 80 4f 00
        E 0 90 3c 19
        E 32 80 3c 00
        E 0 90 50 19
        E 16 80 50 00
        E 0 90 3a 19
        E 32 80 3a 00
        E 0 90 4e 19
        E 16 80 4e 00
        E 0 90 3b 19
        E 32 80 3b 00
        E 0 90 4f 19
        E 16 80 4f 00
        E 0 90 3c 19
        E 32 b0 0b 22
        E 0 80 3c 00
        E 0 90 50 22
        E 16 80 50 00
        E 0 90 3a 22
        E 32 80 3a 00
        E 0 90 4e 22
        E 16 80 4e 00
        E 0 90 3b 22
        E 32 80 3b 00
        E 0 90 4f 22
        E 16 80 4f 00
        E 0 90 3c 22
        E 32 80 3c 00
        E 0 90 50 22
        E 16 80 50 00
        E 0 90 3a 22
        E 32 80 3a 00
        E 0 90 4e 22
        E 16 80 4e 00
        E 0 90 3b 22
        E 32 80 3b 00
        E 0 90 4f 22
        E 16 80 4f 00
        E 0 90 3c 22
        E 32 b0 0b 2a
        E 0 80 3c 00
        E 0 90 50 2a
        E 16 80 50 00
        E 0 90 3a 2a
        E 32 80 3a 00
        E 0 90 4e 2a
        E 16 80 4e 00
        E 0 90 3b 2a
        E 32 80 3b 00
        E 0 90 4f 2a
        E 16 80 4f 00
        E 0 90 3c 2a
        E 32 80 3c 00
        E 0 90 50 2a
        E 16 80 50 00
        E 0 90 3a 2a
        E 32 80 3a 00
        E 0 90 4e 2a
        E 16 80 4e 00
        E 0 90 3b 2a
        E 32 80 3b 00
        E 0 90 4f 2a
        E 16 80 4f 00
        E 0 90 3c 2a
        E 32 b0 0b 22
        E 0 80 3c 00
        E 0 90 50 22
        E 16 80 50 00
        E 0 90 3a 22
        E 32 80 3a 00
        E 0 90 4e 22
        E 16 80 4e 00
        E 0 90 3b 22
        E 32 80 3b 00
        E 0 90 4f 22
        E 16 80 4f 00
        E 0 90 3c 22
        E 32 80 3c 00
        E 0 90 50 22
        E 16 80 50 00
        E 0 90 3a 22
        E 32 80 3a 00
        E 0 90 4e 22
        E 16 80 4e 00
        E 0 90 3b 22
        E 32 80 3b 00
        E 0 90 4f 22
        E 16 80 4f 00
        E 0 90 3c 22
        E 32 b0 0b 19
        E 0 80 3c 00
        E 0 90 50 19
        E 16 80 50 00
        E 0 90 3a 19
        E 32 80 3a 00
        E 0 90 4e 19
        E 16 80 4e 00
        E 0 90 3b 19
        E 32 80 3b 00
        E 0 90 4f 19
        E 16 80 4f 00
        E 0 90 3c 19
        E 32 80 3c 00
        E 0 90 50 19
        E 16 80 50 00
        E 0 90 3a 19
        E 32 80 3a 00
        E 0 90 4e 19
        E 16 80 4e 00
        E 0 90 3b 19
        E 32 80 3b 00
        E 0 90 4f 19
        E 16 80 4f 00
        E 0 90 3c 19
        E 32 b0 0b 11
        E 0 80 3c 00
        E 0 90 50 11
        E 16 80 50 00
        E 0 90 3a 11
        E 32 80 3a 00
        E 0 90 4e 11
        E 16 80 4e 00
        E 0 90 3b 11
        E 32 80 3b 00
        E 0 90 4f 11
        E 16 80 4f 00
        E 0 90 3c 11
        E 32 80 3c 00
        E 0 90 50 11
        E 16 80 50 00
        E 0 90 3a 11
        E 32 80 3a 00
        E 0 90 4e 11
        E 16 80 4e 00
        E 0 90 3b 11
        E 32 80 3b 00
        E 0 90 4f 11
        E 16 80 4f 00
        E 0 90 3c 11
        E 32 b0 0b 08
        E 0 80 3c 00
        E 0 90 50 08
        E 16 80 50 00
        E 0 90 3a 08
        E 32 80 3a 00
        E 0 90 4e 08
        E 16 80 4e 00
        E 0 90 3b 08
        E 32 80 3b 00
        E 0 90 4f 08
        E 16 80 4f 00
        E 0 90 3c 08
        E 32 80 3c 00
        E 0 90 50 08
        E 16 80 50 00
        E 0 90 3a 08
        E 32 80 3a 00
        E 0 90 4e 08
        E 16 80 4e 00
        E 0 90 3b 08
        E 32 80 3b 00
        E 0 90 4f 08
        E 16 80 4f 00
        E 0 90 3c 08
        E 32 80 3c 00
        E 0 90 50 08
        E 16 80 50 00
        E 0 90 3a 08
        E 32 80 3a 00
        E 0 90 4e 08
        E 16 80 4e 00
        E 0 90 3b 08
        E 32 80 3b 00
        E 0 90 4f 08
        E 16 80 4f 00
        E 0 90 3c 08
        E 32 80 3c 00
        E 0 90 50 08
        E 16 80 50 00
        E 0 90 3a 08
        E 32 80 3a 00
        E 0 90 4e 08
        E 16 80 4e 00
        E 0 90 3b 08
        E 32 80 3b 00
        E 0 90 4f 08
        E 16 80 4f 00
        E 0 90 3c 08
        E 32 b0 0b 11
        E 0 80 3c 00
        E 0 90 50 11
        E 16 80 50 00
        E 0 90 3a 11
        E 32 80 3a 00
        E 0 90 4e 11
        E 16 80 4e 00
        E 0 90 3b 11
        E 32 80 3b 00
        E 0 90 4f 11
        E 16 80 4f 00
        E 0 90 3c 11
        E 32 80 3c 00
        E 0 90 50 11
        E 16 80 50 00
        E 0 90 3a 11
        E 32 80 3a 00
        E 0 90 4e 11
        E 16 80 4e 00
        E 0 90 3b 11
        E 32 80 3b 00
        E 0 90 4f 11
        E 16 80 4f 00
        E 0 90 3c 11
        E 32 b0 0b 19
        E 0 80 3c 00
        E 0 90 50 19
        E 16 80 50 00
        E 0 90 3a 19
        E 32 80 3a 00
        E 0 90 4e 19
        E 16 80 4e 00
        E 0 90 3b 19
        E 32 80 3b 00
        E 0 90 4f 19
        E 16 80 4f 00
        E 0 90 3c 19
        E 32 80 3c 00
        E 0 90 50 19
        E 16 80 50 00
        E 0 90 3a 19
        E 32 80 3a 00
        E 0 90 4e 19
        E 16 80 4e 00
        E 0 90 3b 19
        E 32 80 3b 00
        E 0 90 4f 19
        E 16 80 4f 00
        E 0 90 3c 19
        E 32 b0 0b 22
        E 0 80 3c 00
        E 0 90 50 22
        E 16 80 50 00
        E 0 90 3a 22
        E 32 80 3a 00
        E 0 90 4e 22
        E 16 80 4e 00
        E 0 90 3b 22
        E 32 80 3b 00
        E 0 90 4f 22
        E 16 80 4f 00
        E 0 90 3c 22
        E 32 80 3c 00
        E 0 90 50 22
        E 16 80 50 00
        E 0 90 3a 22
        E 32 80 3a 00
        E 0 90 4e 22
        E 16 80 4e 00
        E 0 90 3b 22
        E 32 80 3b 00
        E 0 90 4f 22
        E 16 80 4f 00
        E 0 90 3c 22
        E 32 b0 0b 2a
        E 0 80 3c 00
        E 0 90 50 2a
        E 16 80 50 00
        E 0 90 3a 2a
        E 32 80 3a 00
        E 0 90 4e 2a
        E 16 80 4e 00
        E 0 90 3b 2a
        E 32 80 3b 00
        E 0 90 4f 2a
        E 16 80 4f 00
        E 0 90 3c 2a
        E 32 80 3c 00
        E 0 90 50 2a
        E 16 80 50 00
        E 0 90 3a 2a
        E 32 80 3a 00
        E 0 90 4e 2a
        E 16 80 4e 00
        E 0 90 3b 2a
        E 32 80 3b 00
        E 0 90 4f 2a
        E 16 80 4f 00
        E 0 90 3c 2a
        E 32 b0 0b 22
        E 0 80 3c 00
        E 0 90 50 22
        E 16 80 50 00
        E 0 90 3a 22
        E 32 80 3a 00
        E 0 90 4e 22
        E 16 80 4e 00
        E 0 90 3b 22
        E 32 80 3b 00
        E 0 90 4f 22
        E 16 80 4f 00
        E 0 90 3c 22
        E 32 80 3c 00
        E 0 90 50 22
        E 16 80 50 00
        E 0 90 3a 22
        E 32 80 3a 00
        E 0 90 4e 22
        E 16 80 4e 00
        E 0 90 3b 22
        E 32 80 3b 00
        E 0 90 4f 22
        E 16 80 4f 00
        E 0 90 3c 22
        E 32 b0 0b 19
        E 0 80 3c 00
        E 0 90 50 19
        E 16 80 50 00
        E 0 90 3a 19
        E 32 80 3a 00
        E 0 90 4e 19
        E 16 80 4e 00
        E 0 90 3b 19
        E 32 80 3b 00
        E 0 90 4f 19
        E 16 80 4f 00
        E 0 90 3c 19
        E 32 80 3c 00
        E 0 90 50 19
        E 16 80 50 00
        E 0 90 3a 19
        E 32 80 3a 00
        E 0 90 4e 19
        E 16 80 4e 00
        E 0 90 3b 19
        E 32 80 3b 00
        E 0 90 4f 19
        E 16 80 4f 00
        E 0 90 3c 19
        E 32 b0 0b 11
        E 0 80 3c 00
        E 0 90 50 11
        E 16 80 50 00
        E 0 90 3a 11
        E 32 80 3a 00
        E 0 90 4e 11
        E 16 80 4e 00
        E 0 90 3b 11
        E 32 80 3b 00
        E 0 90 4f 11
        E 16 80 4f 00
        E 0 90 3c 11
        E 32 80 3c 00
        E 0 90 50 11
        E 16 80 50 00
        E 0 90 3a 11
        E 32 80 3a 00
        E 0 90 4e 11
        E 16 80 4e 00
        E 0 90 3b 11
        E 32 80 3b 00
        E 0 90 4f 11
        E 16 80 4f 00
        E 0 90 3c 11
        E 32 b0 0b 08
        E 0 80 3c 00
        E 0 90 50 08
        E 16 80 50 00
        E 0 90 3a 08
        E 32 80 3a 00
        E 0 90 4e 08
        E 16 80 4e 00
        E 0 90 3b 08
        E 32 80 3b 00
        E 0 90 4f 08
        E 16 80 4f 00
        E 0 90 3c 08
        E 32 b0 0c 40
        E 0 b0 0b 22
        E 0 80 3c 00
        E 0 90 19 22
        E 16 80 19 00
        E 0 90 22 22
        E 16 80 22 00
        E 0 90 1c 22
        E 16 80 1c 00
        E 0 90 26 22
        E 16 80 26 00
        E 0 90 1a 22
        E 16 80 1a 00
        E 0 90 2a 22
        E 16 80 2a 00
        E 0 90 1f 22
        E 16 80 1f 00
        E 0 90 27 22
        E 16 80 27 00
        E 0 90 20 22
        E 16 80 20 00
        E 0 90 36 22
        E 16 80 36 00
        E 0 90 21 22
        E 16 80 21 00
        E 0 90 2f 22
        E 16 80 2f 00
        E 0 90 18 22
        E 16 80 18 00
        E 0 90 22 22
        E 16 80 22 00
        E 0 90 1c 22
        E 16 80 1c 00
        E 0 90 26 22
        E 16 80 26 00
        E 0 90 1a 22
        E 16 80 1a 00
        E 0 90 2a 22
        E 16 80 2a 00
        E 0 90 1f 22
        E 16 80 1f 00
        E 0 90 27 22
        E 16 80 27 00
        E 0 90 20 22
        E 16 80 20 00
        E 0 90 36 22
        E 16 80 36 00
        E 0 90 21 22
        E 16 80 21 00
        E 0 90 2f 22
        E 16 80 2f 00
        E 0 90 18 22
        E 16 80 18 00
        E 0 90 22 22
        E 16 80 22 00
        E 0 90 1c 22
        E 16 80 1c 00
        E 0 90 26 22
        E 16 80 26 00
        E 0 90 1a 22
        E 16 80 1a 00
        E 0 90 2a 22
        E 16 80 2a 00
        E 0 90 1f 22
        E 16 80 1f 00
        E 0 90 27 22
        E 16 80 27 00
        E 0 90 20 22
        E 16 80 20 00
        E 0 90 36 22
        E 16 80 36 00
        E 0 90 21 22
        E 16 80 21 00
        E 0 90 2f 22
        E 16 b0 0b 7f
        E 0 80 2f 00
        E 0 90 1b 7f
        E 16 80 1b 00
        E 0 90 1e 7f
        E 16 80 1e 00
        E 0 90 22 7f
        E 16 80 22 00
        E 0 90 29 7f
        E 16 80 29 00
        E 0 90 26 7f
        E 16 80 26 00
        E 0 90 2a 7f
        E 16 80 2a 00
        E 0 90 2b 7f
        E 16 80 2b 00
        E 0 90 2c 7f
        E 16 80 2c 00
        E 0 90 2b 7f
        E 16 80 2b 00
        E 0 90 2c 7f
        E 16 80 2c 00
        E 0 90 2b 7f
        E 16 80 2b 00
        E 0 90 27 7f
        E 16 80 27 00
        E 0 90 21 7f
        E 16 80 21 00
        E 208 90 27 7f
        E 16 80 27 00
        E 0 90 29 7f
        E 16 80 29 00
        E 0 90 22 7f
        E 16 80 22 00
        E 0 90 24 7f
        E 16 80 24 00
        E 0 90 1f 7f
        E 16 80 1f 00
        E 192 90 29 7f
        E 16 80 29 00
        E 0 90 21 7f
        E 16 80 21 00
        E 0 90 25 7f
        E 16 80 25 00
        E 0 90 1d 7f
        E 16 80 1d 00
        E 0 90 1c 7f
        E 16 80 1c 00
        E 160 90 24 7f
        E 16 80 24 00
        E 0 90 23 7f
        E 16 80 23 00
        E 0 90 1e 7f
        E 16 80 1e 00
        E 0 90 1b 7f
        E 16 80 1b 00
        E 0 90 1a 7f
        E 16 80 1a 00
        E 144 90 24 7f
        E 16 80 24 00
        E 0 90 22 7f
        E 16 80 22 00
        E 0 90 1a 7f
        E 16 80 1a 00
        E 0 90 1d 7f
        E 16 80 1d 00
        E 0 90 19 7f
        E 16 80 19 00
        E 112 90 1e 7f
        E 16 80 1e 00
        E 0 90 20 7f
        E 16 80 20 00
        E 0 90 1b 7f
        E 32 80 1b 00
        E 0 90 15 7f
        E 16 80 15 00
        E 128 b0 0b 19
        E 0 90 23 19
        E 16 80 23 00
        E 0 90 29 19
        E 16 80 29 00
        E 0 90 21 19
        E 16 80 21 00
        E 0 90 2c 19
        E 16 80 2c 00
        E 0 90 28 19
        E 16 80 28 00
        E 0 90 27 19
        E 16 80 27 00
        E 0 90 2a 19
        E 16 80 2a 00
        E 0 90 29 19
        E 16 b0 0b 11
        E 0 80 29 00
        E 0 90 25 11
        E 16 80 25 00
        E 0 90 2c 11
        E 16 80 2c 00
        E 0 90 28 11
        E 16 80 28 00
        E 0 90 27 11
        E 16 80 27 00
        E 0 90 2a 11
        E 16 80 2a 00
        E 0 90 29 11
        E 16 80 29 00
        E 0 90 2c 11
        E 16 80 2c 00
        E 0 90 35 11
        E 16 80 35 00
        E 0 90 27 11
        E 32 80 27 00
        E 0 90 2a 11
        E 16 80 2a 00
        E 0 90 29 11
        E 16 80 29 00
        E 0 90 2c 11
        E 16 80 2c 00
        E 0 90 35 11
        E 16 80 35 00
        E 0 90 2e 11
        E 16 80 2e 00
        E 0 90 2d 11
        E 16 80 2d 00
        E 0 90 28 11
        E 16 80 28 00
        E 0 90 37 11
        E 16 80 37 00
        E 0 90 2f 11
        E 16 80 2f 00
        E 0 90 2e 11
        E 16 80 2e 00
        E 0 90 31 11
        E 16 80 31 00
        E 0 90 30 11
        E 16 80 30 00
        E 0 90 33 11
        E 16 80 33 00
        E 0 90 32 11
        E 16 b0 0b 08
        E 0 80 32 00
        E 0 90 35 08
        E 16 80 35 00
        E 0 90 2e 08
        E 16 80 2e 00
        E 0 90 31 08
        E 16 80 31 00
        E 0 90 30 08
        E 16 80 30 00
        E 0 90 33 08
        E 16 80 33 00
        E 0 90 32 08
        E 16 80 32 00
        E 0 90 35 08
        E 16 80 35 00
        E 0 90 34 08
        E 16 80 34 00
        E 0 90 37 08
        E 16 80 37 00
        E 0 90 30 08
        E 16 80 30 00
        E 0 90 33 08
        E 16 80 33 00
        E 0 90 32 08
        E 16 80 32 00
        E 0 90 35 08
        E 16 80 35 00
        E 0 90 34 08
        E 16 80 34 00
        E 0 90 37 08
        E 16 80 37 00
        E 0 90 56 08
        E 16 80 56 00
        E 0 90 2d 08
        E 16 80 2d 00
        E 0 90 35 08
        E 16 80 35 00
        E 0 90 38 08
        E 16 80 38 00
        E 0 90 5e 08
        E 16 80 5e 00
        E 0 90 3a 08
        E 16 80 3a 00
        E 0 90 39 08
        E 16 80 39 00
        E 0 90 3c 08
        E 16 80 3c 00
        E 0 90 3b 08
        E 16 80 3b 00
        E 256 b0 0b 11
        E 0 90 42 11
        E 16 80 42 00
        E 0 90 3e 11
        E 16 80 3e 00
        E 0 90 41 11
        E 16 80 41 00
        E 0 90 40 11
        E 16 80 40 00
        E 0 90 43 11
        E 16 80 43 00
        E 0 90 42 11
        E 16 80 42 00
        E 0 90 45 11
        E 16 80 45 00
        E 0 90 44 11
        E 16 b0 0b 08
        E 0 80 44 00
        E 0 90 47 08
        E 16 80 47 00
        E 0 90 40 08
        E 16 80 40 00
        E 0 90 43 08
        E 16 80 43 00
        E 0 90 42 08
        E 16 80 42 00
        E 0 90 45 08
        E 16 80 45 00
        E 0 90 44 08
        E 16 80 44 00
        E 0 90 47 08
        E 16 80 47 00
        E 0 90 46 08
        E 16 80 46 00
        E 0 90 49 08
        E 16 80 49 00
        E 0 90 42 08
        E 16 80 42 00
        E 0 90 45 08
        E 16 80 45 00
        E 0 90 44 08
        E 16 80 44 00
        E 0 90 47 08
        E 16 80 47 00
        E 0 90 46 08
        E 16 80 46 00
        E 0 90 49 08
        E 16 80 49 00
        E 0 90 48 08
        E 16 80 48 00
        E 448 b0 0b 5d
        E 0 90 26 5d
        E 16 80 26 00
        E 0 90 2c 5d
        E 16 80 2c 00
        E 0 90 22 5d
        E 16 80 22 00
        E 0 90 2c 5d
        E 16 80 2c 00
        E 0 90 22 5d
        E 16 80 22 00
        E 0 90 2c 5d
        E 16 80 2c 00
        E 0 90 22 5d
        E 16 80 22 00
        E 0 90 2c 5d
        E 16 80 2c 00
        E 0 90 22 5d
        E 16 80 22 00
        E 0 90 2c 5d
        E 16 80 2c 00
        E 0 90 22 5d
        E 16 80 22 00
        E 0 90 2c 5d
        E 16 80 2c 00
        E 0 90 22 5d
        E 16 80 22 00
        E 0 90 2c 5d
        E 16 80 2c 00
        E 0 90 22 5d
        E 16 80 22 00
        E 0 90 2c 5d
        E 16 80 2c 00
        E 0 90 22 5d
        E 16 80 22 00
        E 0 90 2c 5d
        E 16 80 2c 00
        E 0 90 22 5d
        E 16 80 22 00
        E 0 90 2c 5d
        E 16 80 2c 00
        E 0 90 22 5d
        E 16 80 22 00
        E 0 90 2c 5d
        E 16 80 2c 00
        E 0 90 27 5d
        E 16 80 27 00
        E 0 90 26 5d
        E 16 80 26 00
        E 0 90 28 5d
        E 16 80 28 00
        E 0 90 27 5d
        E 16 80 27 00
        E 0 90 29 5d
        E 16 80 29 00
        E 0 90 28 5d
        E 16 80 28 00
        E 0 90 2a 5d
        E 16 80 2a 00
        E 0 90 29 5d
        E 16 80 29 00
        E 0 90 2b 5d
        E 16 80 2b 00
        E 0 90 2a 5d
        E 16 b0 0b 55
        E 0 80 2a 00
        E 0 90 37 55
        E 16 80 37 00
        E 0 90 2d 55
        E 16 80 2d 00
        E 0 90 2f 55
        E 16 80 2f 00
        E 0 90 2e 55
        E 16 80 2e 00
        E 0 90 30 55
        E 16 80 30 00
        E 0 90 2f 55
        E 16 80 2f 00
        E 0 90 31 55
        E 16 80 31 00
        E 0 90 30 55
        E 16 80 30 00
        E 0 90 32 55
        E 16 80 32 00
        E 0 90 31 55
        E 16 b0 0b 4c
        E 0 80 31 00
        E 0 90 33 4c
        E 32 80 33 00
        E 0 90 35 4c
        E 16 80 35 00
        E 0 90 34 4c
        E 16 80 34 00
        E 0 90 36 4c
        E 16 80 36 00
        E 0 90 35 4c
        E 16 80 35 00
        E 0 90 37 4c
        E 16 80 37 00
        E 0 90 36 4c
        E 16 80 36 00
        E 0 90 38 4c
        E 16 80 38 00
        E 0 90 5e 4c
        E 16 80 5e 00
        E 0 90 2d 4c
        E 16 80 2d 00
        E 0 90 6b 4c
        E 16 b0 0b 44
        E 0 80 6b 00
        E 0 90 3a 44
        E 16 80 3a 00
        E 0 90 39 44
        E 16 80 39 00
        E 0 90 3b 44
        E 16 80 3b 00
        E 0 90 3a 44
        E 16 80 3a 00
        E 0 90 3c 44
        E 16 80 3c 00
        E 0 90 3b 44
        E 16 80 3b 00
        E 0 90 3d 44
        E 16 80 3d 00
        E 0 90 3c 44
        E 16 80 3c 00
        E 0 90 3e 44
        E 16 80 3e 00
        E 0 90 3d 44
        E 16 80 3d 00
        E 0 90 3f 44
        E 16 80 3f 00
        E 0 90 3e 44
        E 16 b0 0b 3b
        E 0 80 3e 00
        E 0 90 40 3b
        E 16 80 40 00
        E 0 90 3c 3b
        E 16 80 3c 00
        E 0 90 3e 3b
        E 16 80 3e 00
        E 0 90 3d 3b
        E 16 80 3d 00
        E 0 90 3f 3b
        E 16 80 3f 00
        E 0 90 3e 3b
        E 16 b0 0b 33
        E 0 80 3e 00
        E 0 90 40 33
        E 16 80 40 00
        E 0 90 3c 33
        E 16 80 3c 00
        E 0 90 3e 33
        E 16 80 3e 00
        E 0 90 3d 33
        E 16 80 3d 00
        E 0 90 3f 33
        E 16 80 3f 00
        E 0 90 3e 33
        E 16 b0 0b 2a
        E 0 80 3e 00
        E 0 90 40 2a
        E 16 80 40 00
        E 0 90 3c 2a
        E 16 80 3c 00
        E 0 90 3e 2a
        E 16 80 3e 00
        E 0 90 3d 2a
        E 16 80 3d 00
        E 0 90 3f 2a
        E 16 80 3f 00
        E 0 90 3e 2a
        E 16 b0 0b 22
        E 0 80 3e 00
        E 0 90 40 22
        E 16 80 40 00
        E 0 90 3c 22
        E 16 80 3c 00
        E 0 90 3e 22
        E 16 80 3e 00
        E 0 90 3d 22
        E 16 80 3d 00
        E 0 90 3f 22
        E 16 80 3f 00
        E 0 90 3e 22
        E 16 b0 0b 19
        E 0 80 3e 00
        E 0 90 40 19
        E 16 80 40 00
        E 0 90 3c 19
        E 16 80 3c 00
        E 0 90 3e 19
        E 16 80 3e 00
        E 0 90 3d 19
        E 16 80 3d 00
        E 0 90 3f 19
        E 16 80 3f 00
        E 0 90 3e 19
        E 16 b0 0b 11
        E 0 80 3e 00
        E 0 90 40 11
        E 16 80 40 00
        E 0 90 3c 11
        E 16 80 3c 00
        E 0 90 3e 11
        E 16 80 3e 00
        E 0 90 3d 11
        E 16 80 3d 00
        E 0 90 3f 11
        E 16 80 3f 00
        E 0 90 3e 11
        E 16 b0 0b 08
        E 0 80 3e 00
        E 0 90 40 08
        E 16 80 40 00
        E 0 90 3c 08
        E 16 80 3c 00
        E 0 90 3e 08
        E 16 80 3e 00
        E 0 90 3d 08
        E 16 80 3d 00
        E 0 90 3f 08
        E 16 80 3f 00
        E 0 90 3e 08
        E 16 80 3e 00
        E 10832 b0 0b 66
        E 0 90 4d 66
        E 32 b0 0c 20
        E 0 80 4d 00
        E 0 90 51 66
        E 32 80 51 00
        E 0 90 55 66
        E 32 80 55 00
        E 0 90 58 66
        E 32 80 58 00
        E 0 90 5c 66
        E 32 b0 0c 40
        E 0 b0 0b 22
        E 0 80 5c 00
        E 0 90 5f 22
        E 32 80 5f 00
        E 0 90 4d 22
        E 32 b0 0c 20
        E 0 80 4d 00
        E 0 90 51 22
        E 32 80 51 00
        E 0 90 55 22
        E 32 80 55 00
        E 0 90 58 22
        E 32 80 58 00
        E 0 90 5c 22
        E 32 b0 0c 40
        E 0 b0 0b 19
        E 0 80 5c 00
        E 0 90 5f 19
        E 32 80 5f 00
        E 0 90 4d 19
        E 32 b0 0c 20
        E 0 80 4d 00
        E 0 90 51 19
        E 32 80 51 00
        E 0 90 55 19
        E 32 80 55 00
        E 0 90 58 19
        E 32 80 58 00
        E 0 90 5c 19
        E 32 b0 0c 40
        E 0 b0 0b 11
        E 0 80 5c 00
        E 0 90 5f 11
        E 32 80 5f 00
        E 0 90 4d 11
        E 32 b0 0c 20
        E 0 80 4d 00
        E 0 90 51 11
        E 32 80 51 00
        E 0 90 55 11
        E 32 80 55 00
        E 0 90 58 11
        E 32 80 58 00
        E 0 90 5c 11
        E 32 b0 0c 40
        E 0 b0 0b 08
        E 0 80 5c 00
        E 0 90 5f 08
        E 32 80 5f 00
        E 0 90 4d 08
        E 32 b0 0c 20
        E 0 80 4d 00
        E 0 90 51 08
        E 32 80 51 00
        E 0 90 55 08
        E 32 80 55 00
        E 0 90 58 08
        E 32 80 58 00
        E 0 90 5c 08
        E 32 80 5c 00
        E 9536 b0 0c 10
        E 0 b0 0b 7f
        E 0 90 37 7f
        E 16 80 37 00
        E 0 90 40 7f
        E 32 80 40 00
        E 0 90 32 7f
        E 16 80 32 00
        E 0 90 42 7f
        E 32 80 42 00
        E 0 90 32 7f
        E 16 80 32 00
        E 0 90 45 7f
        E 32 80 45 00
        E 0 90 32 7f
        E 16 80 32 00
        E 0 90 48 7f
        E 32 80 48 00
        E 0 90 33 7f
        E 16 80 33 00
        E 0 90 4c 7f
        E 32 80 4c 00
        E 0 90 33 7f
        E 16 80 33 00
        E 0 90 48 7f
        E 32 80 48 00
        E 0 90 33 7f
        E 16 80 33 00
        E 0 90 4c 7f
        E 32 80 4c 00
        E 0 90 33 7f
        E 16 80 33 00
        E 0 90 51 7f
        E 32 80 51 00
        E 0 90 33 7f
        E 16 80 33 00
        E 0 90 56 7f
        E 32 80 56 00
        E 0 90 33 7f
        E 16 80 33 00
        E 0 90 5e 7f
        E 32 80 5e 00
        E 0 90 34 7f
        E 16 80 34 00
        E 0 90 4c 7f
        E 32 80 4c 00
        E 0 90 33 7f
        E 16 80 33 00
        E 0 90 51 7f
        E 32 80 51 00
        E 0 90 33 7f
        E 16 80 33 00
        E 0 90 56 7f
        E 32 80 56 00
        E 0 90 33 7f
        E 16 80 33 00
        E 0 90 5e 7f
        E 32 80 5e 00
        E 0 90 34 7f
        E 16 80 34 00
        E 0 90 6b 7f
        E 32 80 6b 00
        E 0 90 34 7f
        E 16 80 34 00
        E 0 90 56 7f
        E 32 80 56 00
        E 0 90 33 7f
        E 16 80 33 00
        E 0 90 5e 7f
        E 32 80 5e 00
        E 0 90 34 7f
        E 16 80 34 00
        E 0 90 6b 7f
        E 32 80 6b 00
        E 0 90 4c 7f
        E 16 80 4c 00
        E 0 90 39 7f
        E 32 80 39 00
        E 0 90 4d 7f
        E 16 80 4d 00
        E 0 90 3a 7f
        E 32 80 3a 00
        E 0 90 34 7f
        E 16 80 34 00
        E 0 90 6b 7f
        E 32 80 6b 00
        E 0 90 4c 7f
        E 16 80 4c 00
        E 0 90 39 7f
        E 32 80 39 00
        E 0 90 4d 7f
        E 16 80 4d 00
        E 0 90 3a 7f
        E 32 80 3a 00
        E 0 90 4e 7f
        E 16 80 4e 00
        E 0 90 3b 7f
        E 32 80 3b 00
        E 0 90 4f 7f
        E 16 80 4f 00
        E 0 90 3c 7f
        E 32 b0 0b 08
        E 0 80 3c 00
        E 0 90 50 08
        E 16 80 50 00
        E 0 90 3a 08
        E 32 80 3a 00
        E 0 90 4e 08
        E 16 80 4e 00
        E 0 90 3b 08
        E 32 80 3b 00
        E 0 90 4f 08
        E 16 80 4f 00
        E 0 90 3c 08
        E 32 80 3c 00
        E 0 90 50 08
        E 16 80 50 00
        E 0 90 3a 08
        E 32 80 3a 00
        E 0 90 4e 08
        E 16 80 4e 00
        E 0 90 3b 08
        E 32 80 3b 00
        E 0 90 4f 08
        E 16 80 4f 00
        E 0 90 3c 08
        E 32 b0 0b 11
        E 0 80 3c 00
        E 0 90 50 11
        E 16 80 50 00
        E 0 90 3a 11
        E 32 80 3a 00
        E 0 90 4e 11
        E 16 80 4e 00
        E 0 90 3b 11
        E 32 80 3b 00
        E 0 90 4f 11
        E 16 80 4f 00
        E 0 90 3c 11
        E 32 80 3c 00
        E 0 90 50 11
        E 16 80 50 00
        E 0 90 3a 11
        E 32 80 3a 00
        E 0 90 4e 11
        E 16 80 4e 00
        E 0 90 3b 11
        E 32 80 3b 00
        E 0 90 4f 11
        E 16 80 4f 00
        E 0 90 3c 11
        E 32 b0 0b 19
        E 0 80 3c 00
        E 0 90 50 19
        E 16 80 50 00
        E 0 90 3a 19
        E 32 80 3a 00
        E 0 90 4e 19
        E 16 80 4e 00
        E 0 90 3b 19
        E 32 80 3b 00
        E 0 90 4f 19
        E 16 80 4f 00
        E 0 90 3c 19
        E 32 80 3c 00
        E 0 90 50 19
        E 16 80 50 00
        E 0 90 3a 19
        E 32 80 3a 00
        E 0 90 4e 19
        E 16 80 4e 00
        E 0 90 3b 19
        E 32 80 3b 00
        E 0 90 4f 19
        E 16 80 4f 00
        E 0 90 3c 19
        E 32 b0 0b 22
        E 0 80 3c 00
        E 0 90 50 22
        E 16 80 50 00
        E 0 90 3a 22
        E 32 80 3a 00
        E 0 90 4e 22
        E 16 80 4e 00
        E 0 90 3b 22
        E 32 80 3b 00
        E 0 90 4f 22
        E 16 80 4f 00
        E 0 90 3c 22
        E 32 80 3c 00
        E 0 90 50 22
        E 16 80 50 00
        E 0 90 3a 22
        E 32 80 3a 00
        E 0 90 4e 22
        E 16 80 4e 00
        E 0 90 3b 22
        E 32 80 3b 00
        E 0 90 4f 22
        E 16 80 4f 00
        E 0 90 3c 22
        E 32 b0 0b 2a
        E 0 80 3c 00
        E 0 90 50 2a
        E 16 80 50 00
        E 0 90 3a 2a
        E 32 80 3a 00
        E 0 90 4e 2a
        E 16 80 4e 00
        E 0 90 3b 2a
        E 32 80 3b 00
        E 0 90 4f 2a
        E 16 80 4f 00
        E 0 90 3c 2a
        E 32 80 3c 00
        E 0 90 50 2a
        E 16 80 50 00
        E 0 90 3a 2a
        E 32 80 3a 00
        E 0 90 4e 2a
        E 16 80 4e 00
        E 0 90 3b 2a
        E 32 80 3b 00
        E 0 90 4f 2a
        E 16 80 4f 00
        E 0 90 3c 2a
        E 32 b0 0b 22
        E 0 80 3c 00
        E 0 90 50 22
        E 16 80 50 00
        E 0 90 3a 22
        E 32 80 3a 00
        E 0 90 4e 22
        E 16 80 4e 00
        E 0 90 3b 22
        E 32 80 3b 00
        E 0 90 4f 22
        E 16 80 4f 00
        E 0 90 3c 22
        E 32 80 3c 00
        E 0 90 50 22
        E 16 80 50 00
        E 0 90 3a 22
        E 32 80 3a 00
        E 0 90 4e 22
        E 16 80 4e 00
        E 0 90 3b 22
        E 32 80 3b 00
        E 0 90 4f 22
        E 16 80 4f 00
        E 0 90 3c 22
        E 32 b0 0b 19
        E 0 80 3c 00
        E 0 90 50 19
        E 16 80 50 00
        E 0 90 3a 19
        E 32 80 3a 00
        E 0 90 4e 19
        E 16 80 4e 00
        E 0 90 3b 19
        E 32 80 3b 00
        E 0 90 4f 19
        E 16 80 4f 00
        E 0 90 3c 19
        E 32 80 3c 00
        E 0 90 50 19
        E 16 80 50 00
        E 0 90 3a 19
        E 32 80 3a 00
        E 0 90 4e 19
        E 16 80 4e 00
        E 0 90 3b 19
        E 32 80 3b 00
        E 0 90 4f 19
        E 16 80 4f 00
        E 0 90 3c 19
        E 32 b0 0b 11
        E 0 80 3c 00
        E 0 90 50 11
        E 16 80 50 00
        E 0 90 3a 11
        E 32 80 3a 00
        E 0 90 4e 11
        E 16 80 4e 00
        E 0 90 3b 11
        E 32 80 3b 00
        E 0 90 4f 11
        E 16 80 4f 00
        E 0 90 3c 11
        E 32 80 3c 00
        E 0 90 50 11
        E 16 80 50 00
        E 0 90 3a 11
        E 32 80 3a 00
        E 0 90 4e 11
        E 16 80 4e 00
        E 0 90 3b 11
        E 32 80 3b 00
        E 0 90 4f 11
        E 16 80 4f 00
        E 0 90 3c 11
        E 32 b0 0b 08
        E 0 80 3c 00
        E 0 90 50 08
        E 16 80 50 00
        E 0 90 3a 08
        E 32 80 3a 00
        E 0 90 4e 08
        E 16 80 4e 00
        E 0 90 3b 08
        E 32 80 3b 00
        E 0 90 4f 08
        E 16 80 4f 00
        E 0 90 3c 08
        E 32 80 3c 00
        E 0 90 50 08
        E 16 80 50 00
        E 0 90 3a 08
        E 32 80 3a 00
        E 0 90 4e 08
        E 16 80 4e 00
        E 0 90 3b 08
        E 32 80 3b 00
        E 0 90 4f 08
        E 16 80 4f 00
        E 0 90 3c 08
        E 32 80 3c 00
        E 0 90 50 08
        E 16 80 50 00
        E 0 90 3a 08
        E 32 80 3a 00
        E 0 90 4e 08
        E 16 80 4e 00
        E 0 90 3b 08
        E 32 80 3b 00
        E 0 90 4f 08
        E 16 80 4f 00
        E 0 90 3c 08
        E 32 80 3c 00
        E 0 90 50 08
        E 16 80 50 00
        E 0 90 3a 08
        E 32 80 3a 00
        E 0 90 4e 08
        E 16 80 4e 00
        E 0 90 3b 08
        E 32 80 3b 00
        E 0 90 4f 08
        E 16 80 4f 00
        E 0 90 3c 08
        E 32 b0 0b 11
        E 0 80 3c 00
        E 0 90 50 11
        E 16 80 50 00
        E 0 90 3a 11
        E 32 80 3a 00
        E 0 90 4e 11
        E 16 80 4e 00
        E 0 90 3b 11
        E 32 80 3b 00
        E 0 90 4f 11
        E 16 80 4f 00
        E 0 90 3c 11
        E 32 80 3c 00
        E 0 90 50 11
        E 16 80 50 00
        E 0 90 3a 11
        E 32 80 3a 00
        E 0 90 4e 11
        E 16 80 4e 00
        E 0 90 3b 11
        E 32 80 3b 00
        E 0 90 4f 11
        E 16 80 4f 00
        E 0 90 3c 11
        E 32 b0 0b 19
        E 0 80 3c 00
        E 0 90 50 19
        E 16 80 50 00
        E 0 90 3a 19
        E 32 80 3a 00
        E 0 90 4e 19
        E 16 80 4e 00
        E 0 90 3b 19
        E 32 80 3b 00
        E 0 90 4f 19
        E 16 80 4f 00
        E 0 90 3c 19
        E 32 80 3c 00
        E 0 90 50 19
        E 16 80 50 00
        E 0 90 3a 19
        E 32 80 3a 00
        E 0 90 4e 19
        E 16 80 4e 00
        E 0 90 3b 19
        E 32 80 3b 00
        E 0 90 4f 19
        E 16 80 4f 00
        E 0 90 3c 19
        E 32 b0 0b 22
        E 0 80 3c 00
        E 0 90 50 22
        E 16 80 50 00
        E 0 90 3a 22
        E 32 80 3a 00
        E 0 90 4e 22
        E 16 80 4e 00
        E 0 90 3b 22
        E 32 80 3b 00
        E 0 90 4f 22
        E 16 80 4f 00
        E 0 90 3c 22
        E 32 80 3c 00
        E 0 90 50 22
        E 16 80 50 00
        E 0 90 3a 22
        E 16 80 3a 00
        E 0 b0 7b 00
        E 0 ff 2f 00
      >
    >
  >
  <TRACK {8D287593-0138-4342-A345-707E935408ED}
    NAME "NES - Pulse 2 [ch1]"
    PEAKCOL 10092441
    BEAT -1
    AUTOMODE 0
    PANLAWFLAGS 3
    VOLPAN 1 0 -1 -1 1
    MUTESOLO 0 0 0
    IPHASE 0
    PLAYOFFS 0 1
    ISBUS 0 0
    BUSCOMP 0 0 0 0 0
    SHOWINMIX 1 0.6667 0.5 1 0.5 0 0 0
    FIXEDLANES 9 0 0 0 0
    SEL 0
    REC 0 5088 1 0 0 0 0 0
    VU 2
    TRACKHEIGHT 0 0 0 0 0 0 0
    INQ 0 0 0 0.5 100 0 0 100
    NCHAN 2
    FX 1
    TRACKID {8D287593-0138-4342-A345-707E935408ED}
    PERF 0
    MIDIOUT -1
    MAINSEND 1 0
    <FXCHAIN
      WNDRECT 24 52 700 560
      SHOW 0
      LASTSEL 0
      DOCKED 0
      BYPASS 0 0 0
      <JS "ReapNES Studio/ReapNES_Console.jsfx" ""
        2 15 1 10 80 10 100 2 1 15 1 5 60 10 80 1 1 0 50 0 0 15 1 0 100 0 0 0.500000 0.500000 0.400000 0.300000 0.800000 1 1 0 0 0 0 - - - - - - - - - - - - - - - - - - - - - - - - - -
      >
      FLOATPOS 0 0 0 0
      FXID {A9D53FD6-2867-4334-8F72-CCF73208376B}
      WAK 0 0
    >
    <ITEM
      POSITION 0
      LENGTH 69.5800954
      LOOP 0
      ALLTAKES 0
      FADEIN 0 0 0 0 0 0 0
      FADEOUT 0 0 0 0 0 0 0
      MUTE 0 0
      SEL 0
      IGUID {5EF4AE91-FF32-4539-84E7-553C7EF9CCCF}
      <SOURCE MIDI
        HASDATA 1 480 QN
        CCINTERP 32
        E 0 c1 51
        E 0 b1 0c 10
        E 0 b1 0b 7f
        E 0 91 2d 7f
        E 16 81 2d 00
        E 0 91 5f 7f
        E 32 81 5f 00
        E 0 91 30 7f
        E 16 81 30 00
        E 0 91 39 7f
        E 32 81 39 00
        E 0 91 30 7f
        E 16 81 30 00
        E 0 91 3b 7f
        E 32 81 3b 00
        E 0 91 31 7f
        E 16 81 31 00
        E 0 91 3d 7f
        E 32 81 3d 00
        E 0 91 31 7f
        E 16 81 31 00
        E 0 91 40 7f
        E 32 81 40 00
        E 0 91 32 7f
        E 16 81 32 00
        E 0 91 3d 7f
        E 32 81 3d 00
        E 0 91 31 7f
        E 16 81 31 00
        E 0 91 40 7f
        E 32 81 40 00
        E 0 91 32 7f
        E 16 81 32 00
        E 0 91 42 7f
        E 32 81 42 00
        E 0 91 32 7f
        E 16 81 32 00
        E 0 91 45 7f
        E 32 81 45 00
        E 0 91 32 7f
        E 16 81 32 00
        E 0 91 48 7f
        E 32 81 48 00
        E 0 91 33 7f
        E 16 81 33 00
        E 0 91 40 7f
        E 32 81 40 00
        E 0 91 32 7f
        E 16 81 32 00
        E 0 91 42 7f
        E 32 81 42 00
        E 0 91 32 7f
        E 16 81 32 00
        E 0 91 45 7f
        E 32 81 45 00
        E 0 91 32 7f
        E 16 81 32 00
        E 0 91 48 7f
        E 32 81 48 00
        E 0 91 33 7f
        E 16 81 33 00
        E 0 91 4c 7f
        E 32 81 4c 00
        E 0 91 33 7f
        E 16 81 33 00
        E 0 91 45 7f
        E 32 81 45 00
        E 0 91 32 7f
        E 16 81 32 00
        E 0 91 48 7f
        E 32 81 48 00
        E 0 91 33 7f
        E 16 81 33 00
        E 0 91 4c 7f
        E 32 81 4c 00
        E 0 91 33 7f
        E 16 81 33 00
        E 0 91 51 7f
        E 32 81 51 00
        E 0 91 33 7f
        E 16 81 33 00
        E 0 91 56 7f
        E 32 81 56 00
        E 0 91 33 7f
        E 16 81 33 00
        E 0 91 4c 7f
        E 32 81 4c 00
        E 0 91 33 7f
        E 16 81 33 00
        E 0 91 51 7f
        E 32 81 51 00
        E 0 91 33 7f
        E 16 81 33 00
        E 0 91 56 7f
        E 32 81 56 00
        E 0 91 33 7f
        E 16 81 33 00
        E 0 91 5e 7f
        E 32 81 5e 00
        E 0 91 34 7f
        E 16 81 34 00
        E 0 91 6b 7f
        E 32 b1 0b 08
        E 0 81 6b 00
        E 0 91 34 08
        E 16 81 34 00
        E 0 91 56 08
        E 32 81 56 00
        E 0 91 33 08
        E 16 81 33 00
        E 0 91 5e 08
        E 32 81 5e 00
        E 0 91 34 08
        E 16 81 34 00
        E 0 91 6b 08
        E 32 b1 0b 11
        E 0 81 6b 00
        E 0 91 34 11
        E 16 81 34 00
        E 0 91 56 11
        E 32 81 56 00
        E 0 91 33 11
        E 16 81 33 00
        E 0 91 5e 11
        E 32 81 5e 00
        E 0 91 34 11
        E 16 81 34 00
        E 0 91 6b 11
        E 32 81 6b 00
        E 0 91 34 11
        E 16 81 34 00
        E 0 91 56 11
        E 32 81 56 00
        E 0 91 33 11
        E 16 81 33 00
        E 0 91 5e 11
        E 32 81 5e 00
        E 0 91 34 11
        E 16 81 34 00
        E 0 91 6b 11
        E 32 b1 0b 19
        E 0 81 6b 00
        E 0 91 34 19
        E 16 81 34 00
        E 0 91 56 19
        E 32 81 56 00
        E 0 91 33 19
        E 16 81 33 00
        E 0 91 5e 19
        E 32 81 5e 00
        E 0 91 34 19
        E 16 81 34 00
        E 0 91 6b 19
        E 32 81 6b 00
        E 0 91 34 19
        E 16 81 34 00
        E 0 91 56 19
        E 32 81 56 00
        E 0 91 33 19
        E 16 81 33 00
        E 0 91 5e 19
        E 32 81 5e 00
        E 0 91 34 19
        E 16 81 34 00
        E 0 91 6b 19
        E 32 b1 0b 22
        E 0 81 6b 00
        E 0 91 34 22
        E 16 81 34 00
        E 0 91 56 22
        E 32 81 56 00
        E 0 91 33 22
        E 16 81 33 00
        E 0 91 5e 22
        E 32 81 5e 00
        E 0 91 34 22
        E 16 81 34 00
        E 0 91 6b 22
        E 32 81 6b 00
        E 0 91 34 22
        E 16 81 34 00
        E 0 91 56 22
        E 32 81 56 00
        E 0 91 33 22
        E 16 81 33 00
        E 0 91 5e 22
        E 32 81 5e 00
        E 0 91 34 22
        E 16 81 34 00
        E 0 91 6b 22
        E 32 b1 0b 2a
        E 0 81 6b 00
        E 0 91 34 2a
        E 16 81 34 00
        E 0 91 56 2a
        E 32 81 56 00
        E 0 91 33 2a
        E 16 81 33 00
        E 0 91 5e 2a
        E 32 81 5e 00
        E 0 91 34 2a
        E 16 81 34 00
        E 0 91 6b 2a
        E 32 81 6b 00
        E 0 91 34 2a
        E 16 81 34 00
        E 0 91 56 2a
        E 32 81 56 00
        E 0 91 33 2a
        E 16 81 33 00
        E 0 91 5e 2a
        E 32 81 5e 00
        E 0 91 34 2a
        E 16 81 34 00
        E 0 91 6b 2a
        E 32 b1 0b 22
        E 0 81 6b 00
        E 0 91 34 22
        E 16 81 34 00
        E 0 91 56 22
        E 32 81 56 00
        E 0 91 33 22
        E 16 81 33 00
        E 0 91 5e 22
        E 32 81 5e 00
        E 0 91 34 22
        E 16 81 34 00
        E 0 91 6b 22
        E 32 81 6b 00
        E 0 91 34 22
        E 16 81 34 00
        E 0 91 56 22
        E 32 81 56 00
        E 0 91 33 22
        E 16 81 33 00
        E 0 91 5e 22
        E 32 81 5e 00
        E 0 91 34 22
        E 16 81 34 00
        E 0 91 6b 22
        E 32 b1 0b 19
        E 0 81 6b 00
        E 0 91 34 19
        E 16 81 34 00
        E 0 91 56 19
        E 32 81 56 00
        E 0 91 33 19
        E 16 81 33 00
        E 0 91 5e 19
        E 32 81 5e 00
        E 0 91 34 19
        E 16 81 34 00
        E 0 91 6b 19
        E 32 81 6b 00
        E 0 91 34 19
        E 16 81 34 00
        E 0 91 56 19
        E 32 81 56 00
        E 0 91 33 19
        E 16 81 33 00
        E 0 91 5e 19
        E 32 81 5e 00
        E 0 91 34 19
        E 16 81 34 00
        E 0 91 6b 19
        E 32 b1 0b 11
        E 0 81 6b 00
        E 0 91 34 11
        E 16 81 34 00
        E 0 91 56 11
        E 32 81 56 00
        E 0 91 33 11
        E 16 81 33 00
        E 0 91 5e 11
        E 32 81 5e 00
        E 0 91 34 11
        E 16 81 34 00
        E 0 91 6b 11
        E 32 81 6b 00
        E 0 91 34 11
        E 16 81 34 00
        E 0 91 56 11
        E 32 81 56 00
        E 0 91 33 11
        E 16 81 33 00
        E 0 91 5e 11
        E 32 81 5e 00
        E 0 91 34 11
        E 16 81 34 00
        E 0 91 6b 11
        E 32 b1 0b 08
        E 0 81 6b 00
        E 0 91 34 08
        E 16 81 34 00
        E 0 91 56 08
        E 32 81 56 00
        E 0 91 33 08
        E 16 81 33 00
        E 0 91 5e 08
        E 32 81 5e 00
        E 0 91 34 08
        E 16 81 34 00
        E 0 91 6b 08
        E 32 81 6b 00
        E 0 91 34 08
        E 16 81 34 00
        E 0 91 56 08
        E 32 81 56 00
        E 0 91 33 08
        E 16 81 33 00
        E 0 91 5e 08
        E 32 81 5e 00
        E 0 91 34 08
        E 16 81 34 00
        E 0 91 6b 08
        E 32 81 6b 00
        E 144 91 34 08
        E 16 81 34 00
        E 0 91 56 08
        E 32 81 56 00
        E 0 91 33 08
        E 16 81 33 00
        E 0 91 5e 08
        E 32 81 5e 00
        E 0 91 34 08
        E 16 81 34 00
        E 0 91 6b 08
        E 32 b1 0b 11
        E 0 81 6b 00
        E 0 91 34 11
        E 16 81 34 00
        E 0 91 56 11
        E 32 81 56 00
        E 0 91 33 11
        E 16 81 33 00
        E 0 91 5e 11
        E 32 81 5e 00
        E 0 91 34 11
        E 16 81 34 00
        E 0 91 6b 11
        E 32 81 6b 00
        E 0 91 34 11
        E 16 81 34 00
        E 0 91 56 11
        E 32 81 56 00
        E 0 91 33 11
        E 16 81 33 00
        E 0 91 5e 11
        E 32 81 5e 00
        E 0 91 34 11
        E 16 81 34 00
        E 0 91 6b 11
        E 32 b1 0b 19
        E 0 81 6b 00
        E 0 91 34 19
        E 16 81 34 00
        E 0 91 56 19
        E 32 81 56 00
        E 0 91 33 19
        E 16 81 33 00
        E 0 91 5e 19
        E 32 81 5e 00
        E 0 91 34 19
        E 16 81 34 00
        E 0 91 6b 19
        E 32 81 6b 00
        E 0 91 34 19
        E 16 81 34 00
        E 0 91 56 19
        E 32 81 56 00
        E 0 91 33 19
        E 16 81 33 00
        E 0 91 5e 19
        E 32 81 5e 00
        E 0 91 34 19
        E 16 81 34 00
        E 0 91 6b 19
        E 32 b1 0b 22
        E 0 81 6b 00
        E 0 91 34 22
        E 16 81 34 00
        E 0 91 56 22
        E 32 81 56 00
        E 0 91 33 22
        E 16 81 33 00
        E 0 91 5e 22
        E 32 81 5e 00
        E 0 91 34 22
        E 16 81 34 00
        E 0 91 6b 22
        E 32 81 6b 00
        E 0 91 34 22
        E 16 81 34 00
        E 0 91 56 22
        E 32 81 56 00
        E 0 91 33 22
        E 16 81 33 00
        E 0 91 5e 22
        E 32 81 5e 00
        E 0 91 34 22
        E 16 81 34 00
        E 0 91 6b 22
        E 32 b1 0b 2a
        E 0 81 6b 00
        E 0 91 34 2a
        E 16 81 34 00
        E 0 91 56 2a
        E 32 81 56 00
        E 0 91 33 2a
        E 16 81 33 00
        E 0 91 5e 2a
        E 32 81 5e 00
        E 0 91 34 2a
        E 16 81 34 00
        E 0 91 6b 2a
        E 32 81 6b 00
        E 0 91 34 2a
        E 16 81 34 00
        E 0 91 56 2a
        E 32 81 56 00
        E 0 91 33 2a
        E 16 81 33 00
        E 0 91 5e 2a
        E 32 81 5e 00
        E 0 91 34 2a
        E 16 81 34 00
        E 0 91 6b 2a
        E 32 b1 0b 22
        E 0 81 6b 00
        E 0 91 34 22
        E 16 81 34 00
        E 0 91 56 22
        E 32 81 56 00
        E 0 91 33 22
        E 16 81 33 00
        E 0 91 5e 22
        E 32 81 5e 00
        E 0 91 34 22
        E 16 81 34 00
        E 0 91 6b 22
        E 32 81 6b 00
        E 0 91 34 22
        E 16 81 34 00
        E 0 91 56 22
        E 32 81 56 00
        E 0 91 33 22
        E 16 81 33 00
        E 0 91 5e 22
        E 32 81 5e 00
        E 0 91 34 22
        E 16 81 34 00
        E 0 91 6b 22
        E 32 b1 0b 19
        E 0 81 6b 00
        E 0 91 34 19
        E 16 81 34 00
        E 0 91 56 19
        E 32 81 56 00
        E 0 91 33 19
        E 16 81 33 00
        E 0 91 5e 19
        E 32 81 5e 00
        E 0 91 34 19
        E 16 81 34 00
        E 0 91 6b 19
        E 32 81 6b 00
        E 0 91 34 19
        E 16 81 34 00
        E 0 91 56 19
        E 32 81 56 00
        E 0 91 33 19
        E 16 81 33 00
        E 0 91 5e 19
        E 32 81 5e 00
        E 0 91 34 19
        E 16 81 34 00
        E 0 91 6b 19
        E 32 b1 0b 11
        E 0 81 6b 00
        E 0 91 34 11
        E 16 81 34 00
        E 0 91 56 11
        E 32 81 56 00
        E 0 91 33 11
        E 16 81 33 00
        E 0 91 5e 11
        E 32 81 5e 00
        E 0 91 34 11
        E 16 81 34 00
        E 0 91 6b 11
        E 32 81 6b 00
        E 0 91 34 11
        E 16 81 34 00
        E 0 91 56 11
        E 32 81 56 00
        E 0 91 33 11
        E 16 81 33 00
        E 0 91 5e 11
        E 32 81 5e 00
        E 0 91 34 11
        E 16 81 34 00
        E 0 91 6b 11
        E 32 b1 0b 08
        E 0 81 6b 00
        E 0 91 34 08
        E 16 81 34 00
        E 0 91 56 08
        E 32 81 56 00
        E 0 91 33 08
        E 16 81 33 00
        E 0 91 5e 08
        E 32 81 5e 00
        E 0 91 34 08
        E 16 81 34 00
        E 0 91 6b 08
        E 32 81 6b 00
        E 0 91 34 08
        E 16 81 34 00
        E 0 91 56 08
        E 32 81 56 00
        E 0 91 33 08
        E 16 81 33 00
        E 0 91 5e 08
        E 32 81 5e 00
        E 0 91 34 08
        E 16 81 34 00
        E 0 91 6b 08
        E 32 81 6b 00
        E 592 b1 0c 40
        E 0 b1 0b 7f
        E 0 91 1c 7f
        E 16 81 1c 00
        E 0 91 20 7f
        E 16 81 20 00
        E 0 91 23 7f
        E 16 81 23 00
        E 0 91 2a 7f
        E 16 81 2a 00
        E 0 91 27 7f
        E 16 81 27 00
        E 0 91 2b 7f
        E 16 81 2b 00
        E 0 91 37 7f
        E 16 81 37 00
        E 0 91 26 7f
        E 16 81 26 00
        E 0 91 37 7f
        E 16 81 37 00
        E 0 91 26 7f
        E 16 81 26 00
        E 0 91 2c 7f
        E 16 81 2c 00
        E 0 91 28 7f
        E 16 81 28 00
        E 0 91 22 7f
        E 16 81 22 00
        E 208 91 29 7f
        E 16 81 29 00
        E 0 91 2a 7f
        E 16 81 2a 00
        E 0 91 23 7f
        E 16 81 23 00
        E 0 91 25 7f
        E 16 81 25 00
        E 0 91 1f 7f
        E 16 81 1f 00
        E 192 91 2b 7f
        E 16 81 2b 00
        E 0 91 27 7f
        E 16 81 27 00
        E 0 91 21 7f
        E 16 81 21 00
        E 0 91 22 7f
        E 16 81 22 00
        E 0 91 1a 7f
        E 16 81 1a 00
        E 160 91 26 7f
        E 16 81 26 00
        E 0 91 24 7f
        E 16 81 24 00
        E 0 91 1f 7f
        E 32 81 1f 00
        E 0 91 1b 7f
        E 16 81 1b 00
        E 144 91 21 7f
        E 16 81 21 00
        E 0 91 23 7f
        E 16 81 23 00
        E 0 91 1e 7f
        E 16 81 1e 00
        E 0 91 1b 7f
        E 16 81 1b 00
        E 0 91 1a 7f
        E 16 81 1a 00
        E 112 91 24 7f
        E 16 81 24 00
        E 0 91 1d 7f
        E 16 81 1d 00
        E 0 91 1c 7f
        E 32 81 1c 00
        E 0 91 16 7f
        E 16 81 16 00
        E 2128 b1 0b 5d
        E 0 91 25 5d
        E 16 81 25 00
        E 0 91 2c 5d
        E 16 81 2c 00
        E 0 91 22 5d
        E 16 81 22 00
        E 0 91 2c 5d
        E 16 81 2c 00
        E 0 91 22 5d
        E 16 81 22 00
        E 0 91 2c 5d
        E 16 81 2c 00
        E 0 91 22 5d
        E 16 81 22 00
        E 0 91 2c 5d
        E 16 81 2c 00
        E 0 91 22 5d
        E 16 81 22 00
        E 0 91 2c 5d
        E 16 81 2c 00
        E 0 91 22 5d
        E 16 81 22 00
        E 0 91 2c 5d
        E 16 81 2c 00
        E 0 91 22 5d
        E 16 81 22 00
        E 0 91 2c 5d
        E 16 81 2c 00
        E 0 91 22 5d
        E 16 81 22 00
        E 0 91 2c 5d
        E 16 81 2c 00
        E 0 91 22 5d
        E 16 81 22 00
        E 0 91 2c 5d
        E 16 81 2c 00
        E 0 91 22 5d
        E 16 81 22 00
        E 0 91 2c 5d
        E 16 81 2c 00
        E 0 91 22 5d
        E 16 81 22 00
        E 0 91 2c 5d
        E 16 81 2c 00
        E 0 91 27 5d
        E 16 81 27 00
        E 0 91 26 5d
        E 16 81 26 00
        E 0 91 28 5d
        E 16 81 28 00
        E 0 91 27 5d
        E 16 81 27 00
        E 0 91 29 5d
        E 16 81 29 00
        E 0 91 28 5d
        E 16 81 28 00
        E 0 91 2a 5d
        E 16 81 2a 00
        E 0 91 29 5d
        E 16 81 29 00
        E 0 91 2b 5d
        E 16 81 2b 00
        E 0 91 2a 5d
        E 16 b1 0b 55
        E 0 81 2a 00
        E 0 91 37 55
        E 16 81 37 00
        E 0 91 2d 55
        E 16 81 2d 00
        E 0 91 2f 55
        E 16 81 2f 00
        E 0 91 2e 55
        E 16 81 2e 00
        E 0 91 30 55
        E 16 81 30 00
        E 0 91 2f 55
        E 16 81 2f 00
        E 0 91 31 55
        E 16 81 31 00
        E 0 91 30 55
        E 16 81 30 00
        E 0 91 32 55
        E 16 81 32 00
        E 0 91 31 55
        E 16 b1 0b 4c
        E 0 81 31 00
        E 0 91 33 4c
        E 32 81 33 00
        E 0 91 35 4c
        E 16 81 35 00
        E 0 91 34 4c
        E 16 81 34 00
        E 0 91 36 4c
        E 16 81 36 00
        E 0 91 35 4c
        E 16 81 35 00
        E 0 91 37 4c
        E 16 81 37 00
        E 0 91 36 4c
        E 16 81 36 00
        E 0 91 38 4c
        E 16 81 38 00
        E 0 91 5e 4c
        E 16 81 5e 00
        E 0 91 2d 4c
        E 16 81 2d 00
        E 0 91 6b 4c
        E 16 b1 0b 44
        E 0 81 6b 00
        E 0 91 3a 44
        E 16 81 3a 00
        E 0 91 39 44
        E 16 81 39 00
        E 0 91 3b 44
        E 16 81 3b 00
        E 0 91 3a 44
        E 16 81 3a 00
        E 0 91 3c 44
        E 16 81 3c 00
        E 0 91 3b 44
        E 16 81 3b 00
        E 0 91 3d 44
        E 16 81 3d 00
        E 0 91 3c 44
        E 16 81 3c 00
        E 0 91 3e 44
        E 16 81 3e 00
        E 0 91 3d 44
        E 16 81 3d 00
        E 0 91 3f 44
        E 16 81 3f 00
        E 0 91 3e 44
        E 16 b1 0b 3b
        E 0 81 3e 00
        E 0 91 40 3b
        E 16 81 40 00
        E 0 91 3c 3b
        E 16 81 3c 00
        E 0 91 3e 3b
        E 16 81 3e 00
        E 0 91 3d 3b
        E 16 81 3d 00
        E 0 91 3f 3b
        E 16 81 3f 00
        E 0 91 3e 3b
        E 16 b1 0b 33
        E 0 81 3e 00
        E 0 91 40 33
        E 16 81 40 00
        E 0 91 3c 33
        E 16 81 3c 00
        E 0 91 3e 33
        E 16 81 3e 00
        E 0 91 3d 33
        E 16 81 3d 00
        E 0 91 3f 33
        E 16 81 3f 00
        E 0 91 3e 33
        E 16 b1 0b 2a
        E 0 81 3e 00
        E 0 91 40 2a
        E 16 81 40 00
        E 0 91 3c 2a
        E 16 81 3c 00
        E 0 91 3e 2a
        E 16 81 3e 00
        E 0 91 3d 2a
        E 16 81 3d 00
        E 0 91 3f 2a
        E 16 81 3f 00
        E 0 91 3e 2a
        E 16 b1 0b 22
        E 0 81 3e 00
        E 0 91 40 22
        E 16 81 40 00
        E 0 91 3c 22
        E 16 81 3c 00
        E 0 91 3e 22
        E 16 81 3e 00
        E 0 91 3d 22
        E 16 81 3d 00
        E 0 91 3f 22
        E 16 81 3f 00
        E 0 91 3e 22
        E 16 b1 0b 19
        E 0 81 3e 00
        E 0 91 40 19
        E 16 81 40 00
        E 0 91 3c 19
        E 16 81 3c 00
        E 0 91 3e 19
        E 16 81 3e 00
        E 0 91 3d 19
        E 16 81 3d 00
        E 0 91 3f 19
        E 16 81 3f 00
        E 0 91 3e 19
        E 16 b1 0b 11
        E 0 81 3e 00
        E 0 91 40 11
        E 16 81 40 00
        E 0 91 3c 11
        E 16 81 3c 00
        E 0 91 3e 11
        E 16 81 3e 00
        E 0 91 3d 11
        E 16 81 3d 00
        E 0 91 3f 11
        E 16 81 3f 00
        E 0 91 3e 11
        E 16 b1 0b 08
        E 0 81 3e 00
        E 0 91 40 08
        E 16 81 40 00
        E 0 91 3c 08
        E 16 81 3c 00
        E 0 91 3e 08
        E 16 81 3e 00
        E 0 91 3d 08
        E 16 81 3d 00
        E 0 91 3f 08
        E 16 81 3f 00
        E 0 91 3e 08
        E 16 81 3e 00
        E 21264 b1 0c 10
        E 0 b1 0b 7f
        E 0 91 28 7f
        E 16 81 28 00
        E 0 91 5f 7f
        E 32 81 5f 00
        E 0 91 30 7f
        E 16 81 30 00
        E 0 91 39 7f
        E 32 81 39 00
        E 0 91 30 7f
        E 16 81 30 00
        E 0 91 3b 7f
        E 32 81 3b 00
        E 0 91 31 7f
        E 16 81 31 00
        E 0 91 3d 7f
        E 32 81 3d 00
        E 0 91 31 7f
        E 16 81 31 00
        E 0 91 40 7f
        E 32 81 40 00
        E 0 91 32 7f
        E 16 81 32 00
        E 0 91 3d 7f
        E 32 81 3d 00
        E 0 91 31 7f
        E 16 81 31 00
        E 0 91 40 7f
        E 32 81 40 00
        E 0 91 32 7f
        E 16 81 32 00
        E 0 91 42 7f
        E 32 81 42 00
        E 0 91 32 7f
        E 16 81 32 00
        E 0 91 45 7f
        E 32 81 45 00
        E 0 91 32 7f
        E 16 81 32 00
        E 0 91 48 7f
        E 32 81 48 00
        E 0 91 33 7f
        E 16 81 33 00
        E 0 91 40 7f
        E 32 81 40 00
        E 0 91 32 7f
        E 16 81 32 00
        E 0 91 42 7f
        E 32 81 42 00
        E 0 91 32 7f
        E 16 81 32 00
        E 0 91 45 7f
        E 32 81 45 00
        E 0 91 32 7f
        E 16 81 32 00
        E 0 91 48 7f
        E 32 81 48 00
        E 0 91 33 7f
        E 16 81 33 00
        E 0 91 4c 7f
        E 32 81 4c 00
        E 0 91 33 7f
        E 16 81 33 00
        E 0 91 45 7f
        E 32 81 45 00
        E 0 91 32 7f
        E 16 81 32 00
        E 0 91 48 7f
        E 32 81 48 00
        E 0 91 33 7f
        E 16 81 33 00
        E 0 91 4c 7f
        E 32 81 4c 00
        E 0 91 33 7f
        E 16 81 33 00
        E 0 91 51 7f
        E 32 81 51 00
        E 0 91 33 7f
        E 16 81 33 00
        E 0 91 56 7f
        E 32 81 56 00
        E 0 91 33 7f
        E 16 81 33 00
        E 0 91 4c 7f
        E 32 81 4c 00
        E 0 91 33 7f
        E 16 81 33 00
        E 0 91 51 7f
        E 32 81 51 00
        E 0 91 33 7f
        E 16 81 33 00
        E 0 91 56 7f
        E 32 81 56 00
        E 0 91 33 7f
        E 16 81 33 00
        E 0 91 5e 7f
        E 32 81 5e 00
        E 0 91 34 7f
        E 16 81 34 00
        E 0 91 6b 7f
        E 32 b1 0b 08
        E 0 81 6b 00
        E 0 91 34 08
        E 16 81 34 00
        E 0 91 56 08
        E 32 81 56 00
        E 0 91 33 08
        E 16 81 33 00
        E 0 91 5e 08
        E 32 81 5e 00
        E 0 91 34 08
        E 16 81 34 00
        E 0 91 6b 08
        E 32 b1 0b 11
        E 0 81 6b 00
        E 0 91 34 11
        E 16 81 34 00
        E 0 91 56 11
        E 32 81 56 00
        E 0 91 33 11
        E 16 81 33 00
        E 0 91 5e 11
        E 32 81 5e 00
        E 0 91 34 11
        E 16 81 34 00
        E 0 91 6b 11
        E 32 81 6b 00
        E 0 91 34 11
        E 16 81 34 00
        E 0 91 56 11
        E 32 81 56 00
        E 0 91 33 11
        E 16 81 33 00
        E 0 91 5e 11
        E 32 81 5e 00
        E 0 91 34 11
        E 16 81 34 00
        E 0 91 6b 11
        E 32 b1 0b 19
        E 0 81 6b 00
        E 0 91 34 19
        E 16 81 34 00
        E 0 91 56 19
        E 32 81 56 00
        E 0 91 33 19
        E 16 81 33 00
        E 0 91 5e 19
        E 32 81 5e 00
        E 0 91 34 19
        E 16 81 34 00
        E 0 91 6b 19
        E 32 81 6b 00
        E 0 91 34 19
        E 16 81 34 00
        E 0 91 56 19
        E 32 81 56 00
        E 0 91 33 19
        E 16 81 33 00
        E 0 91 5e 19
        E 32 81 5e 00
        E 0 91 34 19
        E 16 81 34 00
        E 0 91 6b 19
        E 32 b1 0b 22
        E 0 81 6b 00
        E 0 91 34 22
        E 16 81 34 00
        E 0 91 56 22
        E 32 81 56 00
        E 0 91 33 22
        E 16 81 33 00
        E 0 91 5e 22
        E 32 81 5e 00
        E 0 91 34 22
        E 16 81 34 00
        E 0 91 6b 22
        E 32 81 6b 00
        E 0 91 34 22
        E 16 81 34 00
        E 0 91 56 22
        E 32 81 56 00
        E 0 91 33 22
        E 16 81 33 00
        E 0 91 5e 22
        E 32 81 5e 00
        E 0 91 34 22
        E 16 81 34 00
        E 0 91 6b 22
        E 32 b1 0b 2a
        E 0 81 6b 00
        E 0 91 34 2a
        E 16 81 34 00
        E 0 91 56 2a
        E 32 81 56 00
        E 0 91 33 2a
        E 16 81 33 00
        E 0 91 5e 2a
        E 32 81 5e 00
        E 0 91 34 2a
        E 16 81 34 00
        E 0 91 6b 2a
        E 32 81 6b 00
        E 0 91 34 2a
        E 16 81 34 00
        E 0 91 56 2a
        E 32 81 56 00
        E 0 91 33 2a
        E 16 81 33 00
        E 0 91 5e 2a
        E 32 81 5e 00
        E 0 91 34 2a
        E 16 81 34 00
        E 0 91 6b 2a
        E 32 b1 0b 22
        E 0 81 6b 00
        E 0 91 34 22
        E 16 81 34 00
        E 0 91 56 22
        E 32 81 56 00
        E 0 91 33 22
        E 16 81 33 00
        E 0 91 5e 22
        E 32 81 5e 00
        E 0 91 34 22
        E 16 81 34 00
        E 0 91 6b 22
        E 32 81 6b 00
        E 0 91 34 22
        E 16 81 34 00
        E 0 91 56 22
        E 32 81 56 00
        E 0 91 33 22
        E 16 81 33 00
        E 0 91 5e 22
        E 32 81 5e 00
        E 0 91 34 22
        E 16 81 34 00
        E 0 91 6b 22
        E 32 b1 0b 19
        E 0 81 6b 00
        E 0 91 34 19
        E 16 81 34 00
        E 0 91 56 19
        E 32 81 56 00
        E 0 91 33 19
        E 16 81 33 00
        E 0 91 5e 19
        E 32 81 5e 00
        E 0 91 34 19
        E 16 81 34 00
        E 0 91 6b 19
        E 32 81 6b 00
        E 0 91 34 19
        E 16 81 34 00
        E 0 91 56 19
        E 32 81 56 00
        E 0 91 33 19
        E 16 81 33 00
        E 0 91 5e 19
        E 32 81 5e 00
        E 0 91 34 19
        E 16 81 34 00
        E 0 91 6b 19
        E 32 b1 0b 11
        E 0 81 6b 00
        E 0 91 34 11
        E 16 81 34 00
        E 0 91 56 11
        E 32 81 56 00
        E 0 91 33 11
        E 16 81 33 00
        E 0 91 5e 11
        E 32 81 5e 00
        E 0 91 34 11
        E 16 81 34 00
        E 0 91 6b 11
        E 32 81 6b 00
        E 0 91 34 11
        E 16 81 34 00
        E 0 91 56 11
        E 32 81 56 00
        E 0 91 33 11
        E 16 81 33 00
        E 0 91 5e 11
        E 32 81 5e 00
        E 0 91 34 11
        E 16 81 34 00
        E 0 91 6b 11
        E 32 b1 0b 08
        E 0 81 6b 00
        E 0 91 34 08
        E 16 81 34 00
        E 0 91 56 08
        E 32 81 56 00
        E 0 91 33 08
        E 16 81 33 00
        E 0 91 5e 08
        E 32 81 5e 00
        E 0 91 34 08
        E 16 81 34 00
        E 0 91 6b 08
        E 32 81 6b 00
        E 0 91 34 08
        E 16 81 34 00
        E 0 91 56 08
        E 32 81 56 00
        E 0 91 33 08
        E 16 81 33 00
        E 0 91 5e 08
        E 32 81 5e 00
        E 0 91 34 08
        E 16 81 34 00
        E 0 91 6b 08
        E 32 81 6b 00
        E 144 91 34 08
        E 16 81 34 00
        E 0 91 56 08
        E 32 81 56 00
        E 0 91 33 08
        E 16 81 33 00
        E 0 91 5e 08
        E 32 81 5e 00
        E 0 91 34 08
        E 16 81 34 00
        E 0 91 6b 08
        E 32 b1 0b 11
        E 0 81 6b 00
        E 0 91 34 11
        E 16 81 34 00
        E 0 91 56 11
        E 32 81 56 00
        E 0 91 33 11
        E 16 81 33 00
        E 0 91 5e 11
        E 32 81 5e 00
        E 0 91 34 11
        E 16 81 34 00
        E 0 91 6b 11
        E 32 81 6b 00
        E 0 91 34 11
        E 16 81 34 00
        E 0 91 56 11
        E 32 81 56 00
        E 0 91 33 11
        E 16 81 33 00
        E 0 91 5e 11
        E 32 81 5e 00
        E 0 91 34 11
        E 16 81 34 00
        E 0 91 6b 11
        E 32 b1 0b 19
        E 0 81 6b 00
        E 0 91 34 19
        E 16 81 34 00
        E 0 91 56 19
        E 32 81 56 00
        E 0 91 33 19
        E 16 81 33 00
        E 0 91 5e 19
        E 32 81 5e 00
        E 0 91 34 19
        E 16 81 34 00
        E 0 91 6b 19
        E 32 81 6b 00
        E 0 91 34 19
        E 16 81 34 00
        E 0 91 56 19
        E 32 81 56 00
        E 0 91 33 19
        E 16 81 33 00
        E 0 91 5e 19
        E 32 81 5e 00
        E 0 91 34 19
        E 16 81 34 00
        E 0 91 6b 19
        E 32 b1 0b 22
        E 0 81 6b 00
        E 0 91 34 22
        E 16 81 34 00
        E 0 91 56 22
        E 32 81 56 00
        E 0 91 33 22
        E 16 81 33 00
        E 0 91 5e 22
        E 32 81 5e 00
        E 0 91 34 22
        E 16 81 34 00
        E 0 91 6b 22
        E 32 81 6b 00
        E 0 91 34 22
        E 16 81 34 00
        E 0 91 56 22
        E 32 81 56 00
        E 0 91 33 22
        E 16 81 33 00
        E 0 91 5e 22
        E 32 81 5e 00
        E 0 91 34 22
        E 16 81 34 00
        E 0 91 6b 22
        E 32 b1 0b 2a
        E 0 81 6b 00
        E 0 91 34 2a
        E 16 81 34 00
        E 0 91 56 2a
        E 32 81 56 00
        E 0 91 33 2a
        E 16 81 33 00
        E 0 91 5e 2a
        E 32 81 5e 00
        E 0 91 34 2a
        E 16 81 34 00
        E 0 91 6b 2a
        E 32 81 6b 00
        E 0 91 34 2a
        E 16 81 34 00
        E 0 91 56 2a
        E 32 81 56 00
        E 0 91 33 2a
        E 16 81 33 00
        E 0 91 5e 2a
        E 32 81 5e 00
        E 0 91 34 2a
        E 16 81 34 00
        E 0 91 6b 2a
        E 32 b1 0b 22
        E 0 81 6b 00
        E 0 91 34 22
        E 16 81 34 00
        E 0 91 56 22
        E 32 81 56 00
        E 0 91 33 22
        E 16 81 33 00
        E 0 91 5e 22
        E 32 81 5e 00
        E 0 91 34 22
        E 16 81 34 00
        E 0 91 6b 22
        E 32 81 6b 00
        E 0 91 34 22
        E 16 81 34 00
        E 0 91 56 22
        E 32 81 56 00
        E 0 91 33 22
        E 16 81 33 00
        E 0 91 5e 22
        E 32 81 5e 00
        E 0 91 34 22
        E 16 81 34 00
        E 0 91 6b 22
        E 32 b1 0b 19
        E 0 81 6b 00
        E 0 91 34 19
        E 16 81 34 00
        E 0 91 56 19
        E 32 81 56 00
        E 0 91 33 19
        E 16 81 33 00
        E 0 91 5e 19
        E 32 81 5e 00
        E 0 91 34 19
        E 16 81 34 00
        E 0 91 6b 19
        E 32 81 6b 00
        E 0 91 34 19
        E 16 81 34 00
        E 0 91 56 19
        E 32 81 56 00
        E 0 91 33 19
        E 16 81 33 00
        E 0 91 5e 19
        E 32 81 5e 00
        E 0 91 34 19
        E 16 81 34 00
        E 0 91 6b 19
        E 32 b1 0b 11
        E 0 81 6b 00
        E 0 91 34 11
        E 16 81 34 00
        E 0 91 56 11
        E 32 81 56 00
        E 0 91 33 11
        E 16 81 33 00
        E 0 91 5e 11
        E 32 81 5e 00
        E 0 91 34 11
        E 16 81 34 00
        E 0 91 6b 11
        E 32 81 6b 00
        E 0 91 34 11
        E 16 81 34 00
        E 0 91 56 11
        E 32 81 56 00
        E 0 91 33 11
        E 16 81 33 00
        E 0 91 5e 11
        E 32 81 5e 00
        E 0 91 34 11
        E 16 81 34 00
        E 0 91 6b 11
        E 32 b1 0b 08
        E 0 81 6b 00
        E 0 91 34 08
        E 16 81 34 00
        E 0 91 56 08
        E 32 81 56 00
        E 0 91 33 08
        E 16 81 33 00
        E 0 91 5e 08
        E 32 81 5e 00
        E 0 91 34 08
        E 16 81 34 00
        E 0 91 6b 08
        E 32 81 6b 00
        E 0 91 34 08
        E 16 81 34 00
        E 0 91 56 08
        E 32 81 56 00
        E 0 91 33 08
        E 16 81 33 00
        E 0 91 5e 08
        E 32 81 5e 00
        E 0 91 34 08
        E 16 81 34 00
        E 0 91 6b 08
        E 32 81 6b 00
        E 592 b1 0c 40
        E 0 b1 0b 7f
        E 0 91 1c 7f
        E 16 81 1c 00
        E 0 91 20 7f
        E 16 81 20 00
        E 0 91 23 7f
        E 16 81 23 00
        E 0 91 2a 7f
        E 16 81 2a 00
        E 0 91 27 7f
        E 16 81 27 00
        E 0 91 2b 7f
        E 16 81 2b 00
        E 0 91 37 7f
        E 16 81 37 00
        E 0 91 26 7f
        E 16 81 26 00
        E 0 91 37 7f
        E 16 81 37 00
        E 0 91 26 7f
        E 16 81 26 00
        E 0 91 2c 7f
        E 16 81 2c 00
        E 0 91 28 7f
        E 16 81 28 00
        E 0 91 22 7f
        E 16 81 22 00
        E 208 91 29 7f
        E 16 81 29 00
        E 0 91 2a 7f
        E 16 81 2a 00
        E 0 91 23 7f
        E 16 81 23 00
        E 0 91 25 7f
        E 16 81 25 00
        E 0 91 1f 7f
        E 16 81 1f 00
        E 192 91 2b 7f
        E 16 81 2b 00
        E 0 91 27 7f
        E 16 81 27 00
        E 0 91 21 7f
        E 16 81 21 00
        E 0 91 22 7f
        E 16 81 22 00
        E 0 91 1a 7f
        E 16 81 1a 00
        E 160 91 26 7f
        E 16 81 26 00
        E 0 91 24 7f
        E 16 81 24 00
        E 0 91 1f 7f
        E 32 81 1f 00
        E 0 91 1b 7f
        E 16 81 1b 00
        E 144 91 21 7f
        E 16 81 21 00
        E 0 91 23 7f
        E 16 81 23 00
        E 0 91 1e 7f
        E 16 81 1e 00
        E 0 91 1b 7f
        E 16 81 1b 00
        E 0 91 1a 7f
        E 16 81 1a 00
        E 112 91 24 7f
        E 16 81 24 00
        E 0 91 1d 7f
        E 16 81 1d 00
        E 0 91 1c 7f
        E 32 81 1c 00
        E 0 91 16 7f
        E 16 81 16 00
        E 2128 b1 0b 5d
        E 0 91 25 5d
        E 16 81 25 00
        E 0 91 2c 5d
        E 16 81 2c 00
        E 0 91 22 5d
        E 16 81 22 00
        E 0 91 2c 5d
        E 16 81 2c 00
        E 0 91 22 5d
        E 16 81 22 00
        E 0 91 2c 5d
        E 16 81 2c 00
        E 0 91 22 5d
        E 16 81 22 00
        E 0 91 2c 5d
        E 16 81 2c 00
        E 0 91 22 5d
        E 16 81 22 00
        E 0 91 2c 5d
        E 16 81 2c 00
        E 0 91 22 5d
        E 16 81 22 00
        E 0 91 2c 5d
        E 16 81 2c 00
        E 0 91 22 5d
        E 16 81 22 00
        E 0 91 2c 5d
        E 16 81 2c 00
        E 0 91 22 5d
        E 16 81 22 00
        E 0 91 2c 5d
        E 16 81 2c 00
        E 0 91 22 5d
        E 16 81 22 00
        E 0 91 2c 5d
        E 16 81 2c 00
        E 0 91 22 5d
        E 16 81 22 00
        E 0 91 2c 5d
        E 16 81 2c 00
        E 0 91 22 5d
        E 16 81 22 00
        E 0 91 2c 5d
        E 16 81 2c 00
        E 0 91 27 5d
        E 16 81 27 00
        E 0 91 26 5d
        E 16 81 26 00
        E 0 91 28 5d
        E 16 81 28 00
        E 0 91 27 5d
        E 16 81 27 00
        E 0 91 29 5d
        E 16 81 29 00
        E 0 91 28 5d
        E 16 81 28 00
        E 0 91 2a 5d
        E 16 81 2a 00
        E 0 91 29 5d
        E 16 81 29 00
        E 0 91 2b 5d
        E 16 81 2b 00
        E 0 91 2a 5d
        E 16 b1 0b 55
        E 0 81 2a 00
        E 0 91 37 55
        E 16 81 37 00
        E 0 91 2d 55
        E 16 81 2d 00
        E 0 91 2f 55
        E 16 81 2f 00
        E 0 91 2e 55
        E 16 81 2e 00
        E 0 91 30 55
        E 16 81 30 00
        E 0 91 2f 55
        E 16 81 2f 00
        E 0 91 31 55
        E 16 81 31 00
        E 0 91 30 55
        E 16 81 30 00
        E 0 91 32 55
        E 16 81 32 00
        E 0 91 31 55
        E 16 b1 0b 4c
        E 0 81 31 00
        E 0 91 33 4c
        E 32 81 33 00
        E 0 91 35 4c
        E 16 81 35 00
        E 0 91 34 4c
        E 16 81 34 00
        E 0 91 36 4c
        E 16 81 36 00
        E 0 91 35 4c
        E 16 81 35 00
        E 0 91 37 4c
        E 16 81 37 00
        E 0 91 36 4c
        E 16 81 36 00
        E 0 91 38 4c
        E 16 81 38 00
        E 0 91 5e 4c
        E 16 81 5e 00
        E 0 91 2d 4c
        E 16 81 2d 00
        E 0 91 6b 4c
        E 16 b1 0b 44
        E 0 81 6b 00
        E 0 91 3a 44
        E 16 81 3a 00
        E 0 91 39 44
        E 16 81 39 00
        E 0 91 3b 44
        E 16 81 3b 00
        E 0 91 3a 44
        E 16 81 3a 00
        E 0 91 3c 44
        E 16 81 3c 00
        E 0 91 3b 44
        E 16 81 3b 00
        E 0 91 3d 44
        E 16 81 3d 00
        E 0 91 3c 44
        E 16 81 3c 00
        E 0 91 3e 44
        E 16 81 3e 00
        E 0 91 3d 44
        E 16 81 3d 00
        E 0 91 3f 44
        E 16 81 3f 00
        E 0 91 3e 44
        E 16 b1 0b 3b
        E 0 81 3e 00
        E 0 91 40 3b
        E 16 81 40 00
        E 0 91 3c 3b
        E 16 81 3c 00
        E 0 91 3e 3b
        E 16 81 3e 00
        E 0 91 3d 3b
        E 16 81 3d 00
        E 0 91 3f 3b
        E 16 81 3f 00
        E 0 91 3e 3b
        E 16 b1 0b 33
        E 0 81 3e 00
        E 0 91 40 33
        E 16 81 40 00
        E 0 91 3c 33
        E 16 81 3c 00
        E 0 91 3e 33
        E 16 81 3e 00
        E 0 91 3d 33
        E 16 81 3d 00
        E 0 91 3f 33
        E 16 81 3f 00
        E 0 91 3e 33
        E 16 b1 0b 2a
        E 0 81 3e 00
        E 0 91 40 2a
        E 16 81 40 00
        E 0 91 3c 2a
        E 16 81 3c 00
        E 0 91 3e 2a
        E 16 81 3e 00
        E 0 91 3d 2a
        E 16 81 3d 00
        E 0 91 3f 2a
        E 16 81 3f 00
        E 0 91 3e 2a
        E 16 b1 0b 22
        E 0 81 3e 00
        E 0 91 40 22
        E 16 81 40 00
        E 0 91 3c 22
        E 16 81 3c 00
        E 0 91 3e 22
        E 16 81 3e 00
        E 0 91 3d 22
        E 16 81 3d 00
        E 0 91 3f 22
        E 16 81 3f 00
        E 0 91 3e 22
        E 16 b1 0b 19
        E 0 81 3e 00
        E 0 91 40 19
        E 16 81 40 00
        E 0 91 3c 19
        E 16 81 3c 00
        E 0 91 3e 19
        E 16 81 3e 00
        E 0 91 3d 19
        E 16 81 3d 00
        E 0 91 3f 19
        E 16 81 3f 00
        E 0 91 3e 19
        E 16 b1 0b 11
        E 0 81 3e 00
        E 0 91 40 11
        E 16 81 40 00
        E 0 91 3c 11
        E 16 81 3c 00
        E 0 91 3e 11
        E 16 81 3e 00
        E 0 91 3d 11
        E 16 81 3d 00
        E 0 91 3f 11
        E 16 81 3f 00
        E 0 91 3e 11
        E 16 b1 0b 08
        E 0 81 3e 00
        E 0 91 40 08
        E 16 81 40 00
        E 0 91 3c 08
        E 16 81 3c 00
        E 0 91 3e 08
        E 16 81 3e 00
        E 0 91 3d 08
        E 16 81 3d 00
        E 0 91 3f 08
        E 16 81 3f 00
        E 0 91 3e 08
        E 16 81 3e 00
        E 21264 b1 0c 10
        E 0 b1 0b 7f
        E 0 91 28 7f
        E 16 81 28 00
        E 0 91 5f 7f
        E 32 81 5f 00
        E 0 91 30 7f
        E 16 81 30 00
        E 0 91 39 7f
        E 32 81 39 00
        E 0 91 30 7f
        E 16 81 30 00
        E 0 91 3b 7f
        E 32 81 3b 00
        E 0 91 31 7f
        E 16 81 31 00
        E 0 91 3d 7f
        E 32 81 3d 00
        E 0 91 31 7f
        E 16 81 31 00
        E 0 91 40 7f
        E 32 81 40 00
        E 0 91 32 7f
        E 16 81 32 00
        E 0 91 3d 7f
        E 32 81 3d 00
        E 0 91 31 7f
        E 16 81 31 00
        E 0 91 40 7f
        E 32 81 40 00
        E 0 91 32 7f
        E 16 81 32 00
        E 0 91 42 7f
        E 32 81 42 00
        E 0 91 32 7f
        E 16 81 32 00
        E 0 91 45 7f
        E 32 81 45 00
        E 0 91 32 7f
        E 16 81 32 00
        E 0 91 48 7f
        E 32 81 48 00
        E 0 91 33 7f
        E 16 81 33 00
        E 0 91 40 7f
        E 32 81 40 00
        E 0 91 32 7f
        E 16 81 32 00
        E 0 91 42 7f
        E 32 81 42 00
        E 0 91 32 7f
        E 16 81 32 00
        E 0 91 45 7f
        E 32 81 45 00
        E 0 91 32 7f
        E 16 81 32 00
        E 0 91 48 7f
        E 32 81 48 00
        E 0 91 33 7f
        E 16 81 33 00
        E 0 91 4c 7f
        E 32 81 4c 00
        E 0 91 33 7f
        E 16 81 33 00
        E 0 91 45 7f
        E 32 81 45 00
        E 0 91 32 7f
        E 16 81 32 00
        E 0 91 48 7f
        E 32 81 48 00
        E 0 91 33 7f
        E 16 81 33 00
        E 0 91 4c 7f
        E 32 81 4c 00
        E 0 91 33 7f
        E 16 81 33 00
        E 0 91 51 7f
        E 32 81 51 00
        E 0 91 33 7f
        E 16 81 33 00
        E 0 91 56 7f
        E 32 81 56 00
        E 0 91 33 7f
        E 16 81 33 00
        E 0 91 4c 7f
        E 32 81 4c 00
        E 0 91 33 7f
        E 16 81 33 00
        E 0 91 51 7f
        E 32 81 51 00
        E 0 91 33 7f
        E 16 81 33 00
        E 0 91 56 7f
        E 32 81 56 00
        E 0 91 33 7f
        E 16 81 33 00
        E 0 91 5e 7f
        E 32 81 5e 00
        E 0 91 34 7f
        E 16 81 34 00
        E 0 91 6b 7f
        E 32 b1 0b 08
        E 0 81 6b 00
        E 0 91 34 08
        E 16 81 34 00
        E 0 91 56 08
        E 32 81 56 00
        E 0 91 33 08
        E 16 81 33 00
        E 0 91 5e 08
        E 32 81 5e 00
        E 0 91 34 08
        E 16 81 34 00
        E 0 91 6b 08
        E 32 b1 0b 11
        E 0 81 6b 00
        E 0 91 34 11
        E 16 81 34 00
        E 0 91 56 11
        E 32 81 56 00
        E 0 91 33 11
        E 16 81 33 00
        E 0 91 5e 11
        E 32 81 5e 00
        E 0 91 34 11
        E 16 81 34 00
        E 0 91 6b 11
        E 32 81 6b 00
        E 0 91 34 11
        E 16 81 34 00
        E 0 91 56 11
        E 32 81 56 00
        E 0 91 33 11
        E 16 81 33 00
        E 0 91 5e 11
        E 32 81 5e 00
        E 0 91 34 11
        E 16 81 34 00
        E 0 91 6b 11
        E 32 b1 0b 19
        E 0 81 6b 00
        E 0 91 34 19
        E 16 81 34 00
        E 0 91 56 19
        E 32 81 56 00
        E 0 91 33 19
        E 16 81 33 00
        E 0 91 5e 19
        E 32 81 5e 00
        E 0 91 34 19
        E 16 81 34 00
        E 0 91 6b 19
        E 32 81 6b 00
        E 0 91 34 19
        E 16 81 34 00
        E 0 91 56 19
        E 32 81 56 00
        E 0 91 33 19
        E 16 81 33 00
        E 0 91 5e 19
        E 32 81 5e 00
        E 0 91 34 19
        E 16 81 34 00
        E 0 91 6b 19
        E 32 b1 0b 22
        E 0 81 6b 00
        E 0 91 34 22
        E 16 81 34 00
        E 0 91 56 22
        E 32 81 56 00
        E 0 91 33 22
        E 16 81 33 00
        E 0 91 5e 22
        E 32 81 5e 00
        E 0 91 34 22
        E 16 81 34 00
        E 0 91 6b 22
        E 32 81 6b 00
        E 0 91 34 22
        E 16 81 34 00
        E 0 91 56 22
        E 32 81 56 00
        E 0 91 33 22
        E 16 81 33 00
        E 0 91 5e 22
        E 32 81 5e 00
        E 0 91 34 22
        E 16 81 34 00
        E 0 91 6b 22
        E 32 b1 0b 2a
        E 0 81 6b 00
        E 0 91 34 2a
        E 16 81 34 00
        E 0 91 56 2a
        E 32 81 56 00
        E 0 91 33 2a
        E 16 81 33 00
        E 0 91 5e 2a
        E 32 81 5e 00
        E 0 91 34 2a
        E 16 81 34 00
        E 0 91 6b 2a
        E 32 81 6b 00
        E 0 91 34 2a
        E 16 81 34 00
        E 0 91 56 2a
        E 32 81 56 00
        E 0 91 33 2a
        E 16 81 33 00
        E 0 91 5e 2a
        E 32 81 5e 00
        E 0 91 34 2a
        E 16 81 34 00
        E 0 91 6b 2a
        E 32 b1 0b 22
        E 0 81 6b 00
        E 0 91 34 22
        E 16 81 34 00
        E 0 91 56 22
        E 32 81 56 00
        E 0 91 33 22
        E 16 81 33 00
        E 0 91 5e 22
        E 32 81 5e 00
        E 0 91 34 22
        E 16 81 34 00
        E 0 91 6b 22
        E 32 81 6b 00
        E 0 91 34 22
        E 16 81 34 00
        E 0 91 56 22
        E 32 81 56 00
        E 0 91 33 22
        E 16 81 33 00
        E 0 91 5e 22
        E 32 81 5e 00
        E 0 91 34 22
        E 16 81 34 00
        E 0 91 6b 22
        E 32 b1 0b 19
        E 0 81 6b 00
        E 0 91 34 19
        E 16 81 34 00
        E 0 91 56 19
        E 32 81 56 00
        E 0 91 33 19
        E 16 81 33 00
        E 0 91 5e 19
        E 32 81 5e 00
        E 0 91 34 19
        E 16 81 34 00
        E 0 91 6b 19
        E 32 81 6b 00
        E 0 91 34 19
        E 16 81 34 00
        E 0 91 56 19
        E 32 81 56 00
        E 0 91 33 19
        E 16 81 33 00
        E 0 91 5e 19
        E 32 81 5e 00
        E 0 91 34 19
        E 16 81 34 00
        E 0 91 6b 19
        E 32 b1 0b 11
        E 0 81 6b 00
        E 0 91 34 11
        E 16 81 34 00
        E 0 91 56 11
        E 32 81 56 00
        E 0 91 33 11
        E 16 81 33 00
        E 0 91 5e 11
        E 32 81 5e 00
        E 0 91 34 11
        E 16 81 34 00
        E 0 91 6b 11
        E 32 81 6b 00
        E 0 91 34 11
        E 16 81 34 00
        E 0 91 56 11
        E 32 81 56 00
        E 0 91 33 11
        E 16 81 33 00
        E 0 91 5e 11
        E 32 81 5e 00
        E 0 91 34 11
        E 16 81 34 00
        E 0 91 6b 11
        E 32 b1 0b 08
        E 0 81 6b 00
        E 0 91 34 08
        E 16 81 34 00
        E 0 91 56 08
        E 32 81 56 00
        E 0 91 33 08
        E 16 81 33 00
        E 0 91 5e 08
        E 32 81 5e 00
        E 0 91 34 08
        E 16 81 34 00
        E 0 91 6b 08
        E 32 81 6b 00
        E 0 91 34 08
        E 16 81 34 00
        E 0 91 56 08
        E 32 81 56 00
        E 0 91 33 08
        E 16 81 33 00
        E 0 91 5e 08
        E 32 81 5e 00
        E 0 91 34 08
        E 16 81 34 00
        E 0 91 6b 08
        E 32 81 6b 00
        E 144 91 34 08
        E 16 81 34 00
        E 0 91 56 08
        E 32 81 56 00
        E 0 91 33 08
        E 16 81 33 00
        E 0 91 5e 08
        E 32 81 5e 00
        E 0 91 34 08
        E 16 81 34 00
        E 0 91 6b 08
        E 32 b1 0b 11
        E 0 81 6b 00
        E 0 91 34 11
        E 16 81 34 00
        E 0 91 56 11
        E 32 81 56 00
        E 0 91 33 11
        E 16 81 33 00
        E 0 91 5e 11
        E 32 81 5e 00
        E 0 91 34 11
        E 16 81 34 00
        E 0 91 6b 11
        E 32 81 6b 00
        E 0 91 34 11
        E 16 81 34 00
        E 0 91 56 11
        E 32 81 56 00
        E 0 91 33 11
        E 16 81 33 00
        E 0 91 5e 11
        E 32 81 5e 00
        E 0 91 34 11
        E 16 81 34 00
        E 0 91 6b 11
        E 32 b1 0b 19
        E 0 81 6b 00
        E 0 91 34 19
        E 16 81 34 00
        E 0 91 56 19
        E 32 81 56 00
        E 0 91 33 19
        E 16 81 33 00
        E 0 91 5e 19
        E 32 81 5e 00
        E 0 91 34 19
        E 16 81 34 00
        E 0 91 6b 19
        E 32 81 6b 00
        E 0 91 34 19
        E 16 81 34 00
        E 0 91 56 19
        E 32 81 56 00
        E 0 91 33 19
        E 16 81 33 00
        E 0 91 5e 19
        E 32 81 5e 00
        E 0 91 34 19
        E 16 81 34 00
        E 0 91 6b 19
        E 32 b1 0b 22
        E 0 81 6b 00
        E 0 91 34 22
        E 16 81 34 00
        E 0 91 56 22
        E 32 81 56 00
        E 0 91 33 22
        E 16 81 33 00
        E 0 91 5e 22
        E 32 81 5e 00
        E 0 91 34 22
        E 16 81 34 00
        E 0 91 6b 22
        E 32 81 6b 00
        E 0 91 34 22
        E 16 81 34 00
        E 0 91 56 22
        E 32 81 56 00
        E 0 91 33 22
        E 16 81 33 00
        E 0 91 5e 22
        E 32 81 5e 00
        E 0 91 34 22
        E 16 81 34 00
        E 0 91 6b 22
        E 32 b1 0b 2a
        E 0 81 6b 00
        E 0 91 34 2a
        E 16 81 34 00
        E 0 91 56 2a
        E 16 81 56 00
        E 0 b1 7b 00
        E 0 ff 2f 00
      >
    >
  >
  <TRACK {EC1B3698-81CD-4F51-ADC1-C7F3F3D8931D}
    NAME "NES - Triangle [ch2]"
    PEAKCOL 16744192
    BEAT -1
    AUTOMODE 0
    PANLAWFLAGS 3
    VOLPAN 1 0 -1 -1 1
    MUTESOLO 0 0 0
    IPHASE 0
    PLAYOFFS 0 1
    ISBUS 0 0
    BUSCOMP 0 0 0 0 0
    SHOWINMIX 1 0.6667 0.5 1 0.5 0 0 0
    FIXEDLANES 9 0 0 0 0
    SEL 0
    REC 0 5088 1 0 0 0 0 0
    VU 2
    TRACKHEIGHT 0 0 0 0 0 0 0
    INQ 0 0 0 0.5 100 0 0 100
    NCHAN 2
    FX 1
    TRACKID {EC1B3698-81CD-4F51-ADC1-C7F3F3D8931D}
    PERF 0
    MIDIOUT -1
    MAINSEND 1 0
    <FXCHAIN
      WNDRECT 24 52 700 560
      SHOW 0
      LASTSEL 0
      DOCKED 0
      BYPASS 0 0 0
      <JS "ReapNES Studio/ReapNES_Console.jsfx" ""
        2 15 1 10 80 10 100 2 1 15 1 5 60 10 80 1 1 0 50 0 0 15 1 0 100 0 0 0.500000 0.500000 0.400000 0.300000 0.800000 2 1 0 0 0 0 - - - - - - - - - - - - - - - - - - - - - - - - - -
      >
      FLOATPOS 0 0 0 0
      FXID {09DC4E02-6310-4329-A433-177D3AA0E02D}
      WAK 0 0
    >
    <ITEM
      POSITION 0
      LENGTH 69.5800954
      LOOP 0
      ALLTAKES 0
      FADEIN 0 0 0 0 0 0 0
      FADEOUT 0 0 0 0 0 0 0
      MUTE 0 0
      SEL 0
      IGUID {7EC0F1E4-7BA3-429B-A17C-7326C2E8E5E9}
      <SOURCE MIDI
        HASDATA 1 480 QN
        CCINTERP 32
        E 0 c2 26
        E 0 b2 0b 7f
        E 0 92 34 7f
        E 16 82 34 00
        E 32 b2 0b 7f
        E 0 92 35 7f
        E 16 82 35 00
        E 32 b2 0b 7f
        E 0 92 36 7f
        E 16 82 36 00
        E 32 b2 0b 7f
        E 0 92 37 7f
        E 16 82 37 00
        E 32 b2 0b 7f
        E 0 92 38 7f
        E 16 82 38 00
        E 32 b2 0b 7f
        E 0 92 37 7f
        E 16 82 37 00
        E 32 b2 0b 7f
        E 0 92 38 7f
        E 16 82 38 00
        E 32 b2 0b 7f
        E 0 92 39 7f
        E 16 82 39 00
        E 32 b2 0b 7f
        E 0 92 3a 7f
        E 16 82 3a 00
        E 32 b2 0b 7f
        E 0 92 3b 7f
        E 16 82 3b 00
        E 32 b2 0b 7f
        E 0 92 39 7f
        E 16 82 39 00
        E 32 b2 0b 7f
        E 0 92 3a 7f
        E 16 82 3a 00
        E 32 b2 0b 7f
        E 0 92 3b 7f
        E 16 82 3b 00
        E 32 b2 0b 7f
        E 0 92 3c 7f
        E 16 82 3c 00
        E 32 b2 0b 7f
        E 0 92 3d 7f
        E 16 82 3d 00
        E 32 b2 0b 7f
        E 0 92 3a 7f
        E 16 82 3a 00
        E 32 b2 0b 7f
        E 0 92 3b 7f
        E 16 82 3b 00
        E 32 b2 0b 7f
        E 0 92 3c 7f
        E 16 82 3c 00
        E 32 b2 0b 7f
        E 0 92 3d 7f
        E 16 82 3d 00
        E 32 b2 0b 7f
        E 0 92 3e 7f
        E 16 82 3e 00
        E 32 b2 0b 7f
        E 0 92 3c 7f
        E 16 82 3c 00
        E 32 b2 0b 7f
        E 0 92 3d 7f
        E 16 82 3d 00
        E 32 b2 0b 7f
        E 0 92 3e 7f
        E 16 82 3e 00
        E 32 b2 0b 7f
        E 0 92 3f 7f
        E 16 82 3f 00
        E 32 b2 0b 7f
        E 0 92 40 7f
        E 16 82 40 00
        E 5072 b2 0b 7f
        E 0 92 18 7f
        E 16 82 18 00
        E 0 b2 0b 7f
        E 0 92 25 7f
        E 16 82 25 00
        E 0 b2 0b 7f
        E 0 92 1a 7f
        E 16 82 1a 00
        E 0 b2 0b 7f
        E 0 92 27 7f
        E 16 82 27 00
        E 0 b2 0b 7f
        E 0 92 1c 7f
        E 16 82 1c 00
        E 0 b2 0b 7f
        E 0 92 29 7f
        E 16 82 29 00
        E 0 b2 0b 7f
        E 0 92 1e 7f
        E 16 82 1e 00
        E 0 b2 0b 7f
        E 0 92 2b 7f
        E 16 82 2b 00
        E 0 b2 0b 7f
        E 0 92 20 7f
        E 16 82 20 00
        E 0 b2 0b 7f
        E 0 92 2d 7f
        E 16 82 2d 00
        E 0 b2 0b 7f
        E 0 92 22 7f
        E 16 82 22 00
        E 0 b2 0b 7f
        E 0 92 2f 7f
        E 16 82 2f 00
        E 0 b2 0b 7f
        E 0 92 18 7f
        E 16 82 18 00
        E 0 b2 0b 7f
        E 0 92 25 7f
        E 16 82 25 00
        E 0 b2 0b 7f
        E 0 92 1a 7f
        E 16 82 1a 00
        E 0 b2 0b 7f
        E 0 92 27 7f
        E 16 82 27 00
        E 0 b2 0b 7f
        E 0 92 1c 7f
        E 16 82 1c 00
        E 0 b2 0b 7f
        E 0 92 29 7f
        E 16 82 29 00
        E 0 b2 0b 7f
        E 0 92 1e 7f
        E 16 82 1e 00
        E 0 b2 0b 7f
        E 0 92 2b 7f
        E 16 82 2b 00
        E 0 b2 0b 7f
        E 0 92 20 7f
        E 16 82 20 00
        E 0 b2 0b 7f
        E 0 92 2d 7f
        E 16 82 2d 00
        E 0 b2 0b 7f
        E 0 92 22 7f
        E 16 82 22 00
        E 0 b2 0b 7f
        E 0 92 2f 7f
        E 16 82 2f 00
        E 0 b2 0b 7f
        E 0 92 18 7f
        E 16 82 18 00
        E 0 b2 0b 7f
        E 0 92 25 7f
        E 16 82 25 00
        E 0 b2 0b 7f
        E 0 92 1a 7f
        E 16 82 1a 00
        E 0 b2 0b 7f
        E 0 92 27 7f
        E 16 82 27 00
        E 0 b2 0b 7f
        E 0 92 1c 7f
        E 16 82 1c 00
        E 0 b2 0b 7f
        E 0 92 29 7f
        E 16 82 29 00
        E 0 b2 0b 7f
        E 0 92 1e 7f
        E 16 82 1e 00
        E 0 b2 0b 7f
        E 0 92 2b 7f
        E 16 82 2b 00
        E 0 b2 0b 7f
        E 0 92 20 7f
        E 16 82 20 00
        E 0 b2 0b 7f
        E 0 92 2d 7f
        E 16 82 2d 00
        E 0 b2 0b 7f
        E 0 92 22 7f
        E 16 82 22 00
        E 0 b2 0b 7f
        E 0 92 2f 7f
        E 16 82 2f 00
        E 0 b2 0b 7f
        E 0 92 18 7f
        E 16 82 18 00
        E 0 b2 0b 7f
        E 0 92 25 7f
        E 16 82 25 00
        E 0 b2 0b 7f
        E 0 92 1a 7f
        E 16 82 1a 00
        E 0 b2 0b 7f
        E 0 92 27 7f
        E 16 82 27 00
        E 0 b2 0b 7f
        E 0 92 1c 7f
        E 16 82 1c 00
        E 0 b2 0b 7f
        E 0 92 29 7f
        E 16 82 29 00
        E 0 b2 0b 7f
        E 0 92 1e 7f
        E 16 82 1e 00
        E 0 b2 0b 7f
        E 0 92 2b 7f
        E 16 82 2b 00
        E 0 b2 0b 7f
        E 0 92 20 7f
        E 16 82 20 00
        E 0 b2 0b 7f
        E 0 92 2d 7f
        E 16 82 2d 00
        E 0 b2 0b 7f
        E 0 92 22 7f
        E 16 82 22 00
        E 0 b2 0b 7f
        E 0 92 2f 7f
        E 16 82 2f 00
        E 0 b2 0b 7f
        E 0 92 18 7f
        E 16 82 18 00
        E 0 b2 0b 7f
        E 0 92 25 7f
        E 16 82 25 00
        E 0 b2 0b 7f
        E 0 92 1a 7f
        E 16 82 1a 00
        E 0 b2 0b 7f
        E 0 92 27 7f
        E 16 82 27 00
        E 0 b2 0b 7f
        E 0 92 1c 7f
        E 16 82 1c 00
        E 0 b2 0b 7f
        E 0 92 29 7f
        E 16 82 29 00
        E 0 b2 0b 7f
        E 0 92 1e 7f
        E 16 82 1e 00
        E 0 b2 0b 7f
        E 0 92 2b 7f
        E 16 82 2b 00
        E 0 b2 0b 7f
        E 0 92 20 7f
        E 16 82 20 00
        E 0 b2 0b 7f
        E 0 92 2d 7f
        E 16 82 2d 00
        E 0 b2 0b 7f
        E 0 92 22 7f
        E 16 82 22 00
        E 0 b2 0b 7f
        E 0 92 2f 7f
        E 16 82 2f 00
        E 0 b2 0b 7f
        E 0 92 18 7f
        E 16 82 18 00
        E 0 b2 0b 7f
        E 0 92 25 7f
        E 16 82 25 00
        E 0 b2 0b 7f
        E 0 92 1a 7f
        E 16 82 1a 00
        E 0 b2 0b 7f
        E 0 92 27 7f
        E 16 82 27 00
        E 0 b2 0b 7f
        E 0 92 1c 7f
        E 16 82 1c 00
        E 0 b2 0b 7f
        E 0 92 29 7f
        E 16 82 29 00
        E 0 b2 0b 7f
        E 0 92 1e 7f
        E 16 82 1e 00
        E 0 b2 0b 7f
        E 0 92 2b 7f
        E 16 82 2b 00
        E 0 b2 0b 7f
        E 0 92 20 7f
        E 16 82 20 00
        E 0 b2 0b 7f
        E 0 92 2d 7f
        E 16 82 2d 00
        E 0 b2 0b 7f
        E 0 92 22 7f
        E 16 82 22 00
        E 0 b2 0b 7f
        E 0 92 2f 7f
        E 16 82 2f 00
        E 0 b2 0b 7f
        E 0 92 18 7f
        E 16 82 18 00
        E 0 b2 0b 7f
        E 0 92 25 7f
        E 16 82 25 00
        E 0 b2 0b 7f
        E 0 92 1a 7f
        E 16 82 1a 00
        E 0 b2 0b 7f
        E 0 92 27 7f
        E 16 82 27 00
        E 0 b2 0b 7f
        E 0 92 1c 7f
        E 16 82 1c 00
        E 0 b2 0b 7f
        E 0 92 29 7f
        E 16 82 29 00
        E 0 b2 0b 7f
        E 0 92 1e 7f
        E 16 82 1e 00
        E 0 b2 0b 7f
        E 0 92 2b 7f
        E 16 82 2b 00
        E 0 b2 0b 7f
        E 0 92 20 7f
        E 16 82 20 00
        E 0 b2 0b 7f
        E 0 92 2d 7f
        E 16 82 2d 00
        E 0 b2 0b 7f
        E 0 92 22 7f
        E 16 82 22 00
        E 0 b2 0b 7f
        E 0 92 2f 7f
        E 16 82 2f 00
        E 0 b2 0b 7f
        E 0 92 18 7f
        E 16 82 18 00
        E 0 b2 0b 7f
        E 0 92 25 7f
        E 16 82 25 00
        E 0 b2 0b 7f
        E 0 92 1a 7f
        E 16 82 1a 00
        E 0 b2 0b 7f
        E 0 92 27 7f
        E 16 82 27 00
        E 0 b2 0b 7f
        E 0 92 1c 7f
        E 16 82 1c 00
        E 0 b2 0b 7f
        E 0 92 29 7f
        E 16 82 29 00
        E 0 b2 0b 7f
        E 0 92 1e 7f
        E 16 82 1e 00
        E 0 b2 0b 7f
        E 0 92 2b 7f
        E 16 82 2b 00
        E 0 b2 0b 7f
        E 0 92 20 7f
        E 16 82 20 00
        E 0 b2 0b 7f
        E 0 92 2d 7f
        E 16 82 2d 00
        E 0 b2 0b 7f
        E 0 92 22 7f
        E 16 82 22 00
        E 0 b2 0b 7f
        E 0 92 2f 7f
        E 16 82 2f 00
        E 0 b2 0b 7f
        E 0 92 18 7f
        E 16 82 18 00
        E 0 b2 0b 7f
        E 0 92 25 7f
        E 16 82 25 00
        E 0 b2 0b 7f
        E 0 92 1a 7f
        E 16 82 1a 00
        E 0 b2 0b 7f
        E 0 92 27 7f
        E 16 82 27 00
        E 0 b2 0b 7f
        E 0 92 1c 7f
        E 16 82 1c 00
        E 0 b2 0b 7f
        E 0 92 29 7f
        E 16 82 29 00
        E 0 b2 0b 7f
        E 0 92 1e 7f
        E 16 82 1e 00
        E 0 b2 0b 7f
        E 0 92 2b 7f
        E 16 82 2b 00
        E 0 b2 0b 7f
        E 0 92 20 7f
        E 16 82 20 00
        E 0 b2 0b 7f
        E 0 92 2d 7f
        E 16 82 2d 00
        E 0 b2 0b 7f
        E 0 92 22 7f
        E 16 82 22 00
        E 0 b2 0b 7f
        E 0 92 2f 7f
        E 16 82 2f 00
        E 0 b2 0b 7f
        E 0 92 1a 7f
        E 16 82 1a 00
        E 0 b2 0b 7f
        E 0 92 1d 7f
        E 16 82 1d 00
        E 0 b2 0b 7f
        E 0 92 1c 7f
        E 16 82 1c 00
        E 0 b2 0b 7f
        E 0 92 1f 7f
        E 16 82 1f 00
        E 0 b2 0b 7f
        E 0 92 1e 7f
        E 16 82 1e 00
        E 0 b2 0b 7f
        E 0 92 21 7f
        E 16 82 21 00
        E 0 b2 0b 7f
        E 0 92 20 7f
        E 16 82 20 00
        E 0 b2 0b 7f
        E 0 92 23 7f
        E 16 82 23 00
        E 0 b2 0b 7f
        E 0 92 1c 7f
        E 16 82 1c 00
        E 0 b2 0b 7f
        E 0 92 1f 7f
        E 16 82 1f 00
        E 0 b2 0b 7f
        E 0 92 1e 7f
        E 16 82 1e 00
        E 0 b2 0b 7f
        E 0 92 21 7f
        E 16 82 21 00
        E 0 b2 0b 7f
        E 0 92 20 7f
        E 16 82 20 00
        E 0 b2 0b 7f
        E 0 92 23 7f
        E 16 82 23 00
        E 0 b2 0b 7f
        E 0 92 22 7f
        E 16 82 22 00
        E 0 b2 0b 7f
        E 0 92 25 7f
        E 16 82 25 00
        E 0 b2 0b 7f
        E 0 92 1e 7f
        E 16 82 1e 00
        E 0 b2 0b 7f
        E 0 92 21 7f
        E 16 82 21 00
        E 0 b2 0b 7f
        E 0 92 20 7f
        E 16 82 20 00
        E 0 b2 0b 7f
        E 0 92 23 7f
        E 16 82 23 00
        E 0 b2 0b 7f
        E 0 92 22 7f
        E 16 82 22 00
        E 0 b2 0b 7f
        E 0 92 25 7f
        E 16 82 25 00
        E 0 b2 0b 7f
        E 0 92 24 7f
        E 16 82 24 00
        E 0 b2 0b 7f
        E 0 92 27 7f
        E 16 82 27 00
        E 0 b2 0b 7f
        E 0 92 23 7f
        E 16 82 23 00
        E 0 b2 0b 7f
        E 0 92 26 7f
        E 16 82 26 00
        E 0 b2 0b 7f
        E 0 92 25 7f
        E 16 82 25 00
        E 0 b2 0b 7f
        E 0 92 28 7f
        E 16 82 28 00
        E 0 b2 0b 7f
        E 0 92 27 7f
        E 16 82 27 00
        E 0 b2 0b 7f
        E 0 92 2a 7f
        E 16 82 2a 00
        E 0 b2 0b 7f
        E 0 92 29 7f
        E 16 82 29 00
        E 0 b2 0b 7f
        E 0 92 2c 7f
        E 16 82 2c 00
        E 0 b2 0b 7f
        E 0 92 25 7f
        E 16 82 25 00
        E 0 b2 0b 7f
        E 0 92 28 7f
        E 16 82 28 00
        E 0 b2 0b 7f
        E 0 92 27 7f
        E 16 82 27 00
        E 0 b2 0b 7f
        E 0 92 2a 7f
        E 16 82 2a 00
        E 0 b2 0b 7f
        E 0 92 29 7f
        E 16 82 29 00
        E 0 b2 0b 7f
        E 0 92 2c 7f
        E 16 82 2c 00
        E 0 b2 0b 7f
        E 0 92 2b 7f
        E 16 82 2b 00
        E 0 b2 0b 7f
        E 0 92 2e 7f
        E 16 82 2e 00
        E 0 b2 0b 7f
        E 0 92 27 7f
        E 16 82 27 00
        E 0 b2 0b 7f
        E 0 92 2a 7f
        E 16 82 2a 00
        E 0 b2 0b 7f
        E 0 92 29 7f
        E 16 82 29 00
        E 0 b2 0b 7f
        E 0 92 2c 7f
        E 16 82 2c 00
        E 0 b2 0b 7f
        E 0 92 2b 7f
        E 16 82 2b 00
        E 0 b2 0b 7f
        E 0 92 2e 7f
        E 16 82 2e 00
        E 0 b2 0b 7f
        E 0 92 2d 7f
        E 16 82 2d 00
        E 0 b2 0b 7f
        E 0 92 30 7f
        E 16 82 30 00
        E 0 b2 0b 7f
        E 0 92 2c 7f
        E 16 82 2c 00
        E 0 b2 0b 7f
        E 0 92 2f 7f
        E 16 82 2f 00
        E 0 b2 0b 7f
        E 0 92 2e 7f
        E 16 82 2e 00
        E 0 b2 0b 7f
        E 0 92 31 7f
        E 16 82 31 00
        E 0 b2 0b 7f
        E 0 92 30 7f
        E 16 82 30 00
        E 0 b2 0b 7f
        E 0 92 33 7f
        E 16 82 33 00
        E 0 b2 0b 7f
        E 0 92 32 7f
        E 16 82 32 00
        E 0 b2 0b 7f
        E 0 92 35 7f
        E 16 82 35 00
        E 0 b2 0b 7f
        E 0 92 2e 7f
        E 16 82 2e 00
        E 0 b2 0b 7f
        E 0 92 31 7f
        E 16 82 31 00
        E 0 b2 0b 7f
        E 0 92 30 7f
        E 16 82 30 00
        E 0 b2 0b 7f
        E 0 92 33 7f
        E 16 82 33 00
        E 0 b2 0b 7f
        E 0 92 32 7f
        E 16 82 32 00
        E 0 b2 0b 7f
        E 0 92 35 7f
        E 16 82 35 00
        E 0 b2 0b 7f
        E 0 92 34 7f
        E 16 82 34 00
        E 0 b2 0b 7f
        E 0 92 37 7f
        E 16 82 37 00
        E 0 b2 0b 7f
        E 0 92 30 7f
        E 16 82 30 00
        E 0 b2 0b 7f
        E 0 92 33 7f
        E 16 82 33 00
        E 0 b2 0b 7f
        E 0 92 32 7f
        E 16 82 32 00
        E 0 b2 0b 7f
        E 0 92 35 7f
        E 16 82 35 00
        E 0 b2 0b 7f
        E 0 92 34 7f
        E 16 82 34 00
        E 0 b2 0b 7f
        E 0 92 37 7f
        E 16 82 37 00
        E 0 b2 0b 7f
        E 0 92 36 7f
        E 16 82 36 00
        E 0 b2 0b 7f
        E 0 92 39 7f
        E 16 82 39 00
        E 0 b2 0b 7f
        E 0 92 35 7f
        E 16 82 35 00
        E 0 b2 0b 7f
        E 0 92 38 7f
        E 16 82 38 00
        E 0 b2 0b 7f
        E 0 92 37 7f
        E 16 82 37 00
        E 0 b2 0b 7f
        E 0 92 3a 7f
        E 16 82 3a 00
        E 0 b2 0b 7f
        E 0 92 39 7f
        E 16 82 39 00
        E 0 b2 0b 7f
        E 0 92 3c 7f
        E 16 82 3c 00
        E 0 b2 0b 7f
        E 0 92 3b 7f
        E 16 82 3b 00
        E 0 b2 0b 7f
        E 0 92 3e 7f
        E 16 82 3e 00
        E 0 b2 0b 7f
        E 0 92 37 7f
        E 16 82 37 00
        E 0 b2 0b 7f
        E 0 92 3a 7f
        E 16 82 3a 00
        E 0 b2 0b 7f
        E 0 92 39 7f
        E 16 82 39 00
        E 0 b2 0b 7f
        E 0 92 3c 7f
        E 16 82 3c 00
        E 0 b2 0b 7f
        E 0 92 3b 7f
        E 16 82 3b 00
        E 0 b2 0b 7f
        E 0 92 3e 7f
        E 16 82 3e 00
        E 0 b2 0b 7f
        E 0 92 3d 7f
        E 16 82 3d 00
        E 0 b2 0b 7f
        E 0 92 40 7f
        E 16 82 40 00
        E 0 b2 0b 7f
        E 0 92 39 7f
        E 16 82 39 00
        E 0 b2 0b 7f
        E 0 92 3c 7f
        E 16 82 3c 00
        E 0 b2 0b 7f
        E 0 92 3b 7f
        E 16 82 3b 00
        E 0 b2 0b 7f
        E 0 92 3e 7f
        E 16 82 3e 00
        E 0 b2 0b 7f
        E 0 92 3d 7f
        E 16 82 3d 00
        E 0 b2 0b 7f
        E 0 92 40 7f
        E 16 82 40 00
        E 0 b2 0b 7f
        E 0 92 3f 7f
        E 16 82 3f 00
        E 0 b2 0b 7f
        E 0 92 42 7f
        E 16 82 42 00
        E 23872 b2 0b 7f
        E 0 92 34 7f
        E 16 82 34 00
        E 32 b2 0b 7f
        E 0 92 35 7f
        E 16 82 35 00
        E 32 b2 0b 7f
        E 0 92 36 7f
        E 16 82 36 00
        E 32 b2 0b 7f
        E 0 92 37 7f
        E 16 82 37 00
        E 32 b2 0b 7f
        E 0 92 38 7f
        E 16 82 38 00
        E 32 b2 0b 7f
        E 0 92 37 7f
        E 16 82 37 00
        E 32 b2 0b 7f
        E 0 92 38 7f
        E 16 82 38 00
        E 32 b2 0b 7f
        E 0 92 39 7f
        E 16 82 39 00
        E 32 b2 0b 7f
        E 0 92 3a 7f
        E 16 82 3a 00
        E 32 b2 0b 7f
        E 0 92 3b 7f
        E 16 82 3b 00
        E 32 b2 0b 7f
        E 0 92 39 7f
        E 16 82 39 00
        E 32 b2 0b 7f
        E 0 92 3a 7f
        E 16 82 3a 00
        E 32 b2 0b 7f
        E 0 92 3b 7f
        E 16 82 3b 00
        E 32 b2 0b 7f
        E 0 92 3c 7f
        E 16 82 3c 00
        E 32 b2 0b 7f
        E 0 92 3d 7f
        E 16 82 3d 00
        E 32 b2 0b 7f
        E 0 92 3a 7f
        E 16 82 3a 00
        E 32 b2 0b 7f
        E 0 92 3b 7f
        E 16 82 3b 00
        E 32 b2 0b 7f
        E 0 92 3c 7f
        E 16 82 3c 00
        E 32 b2 0b 7f
        E 0 92 3d 7f
        E 16 82 3d 00
        E 32 b2 0b 7f
        E 0 92 3e 7f
        E 16 82 3e 00
        E 32 b2 0b 7f
        E 0 92 3c 7f
        E 16 82 3c 00
        E 32 b2 0b 7f
        E 0 92 3d 7f
        E 16 82 3d 00
        E 32 b2 0b 7f
        E 0 92 3e 7f
        E 16 82 3e 00
        E 32 b2 0b 7f
        E 0 92 3f 7f
        E 16 82 3f 00
        E 32 b2 0b 7f
        E 0 92 40 7f
        E 16 82 40 00
        E 5072 b2 0b 7f
        E 0 92 18 7f
        E 16 82 18 00
        E 0 b2 0b 7f
        E 0 92 25 7f
        E 16 82 25 00
        E 0 b2 0b 7f
        E 0 92 1a 7f
        E 16 82 1a 00
        E 0 b2 0b 7f
        E 0 92 27 7f
        E 16 82 27 00
        E 0 b2 0b 7f
        E 0 92 1c 7f
        E 16 82 1c 00
        E 0 b2 0b 7f
        E 0 92 29 7f
        E 16 82 29 00
        E 0 b2 0b 7f
        E 0 92 1e 7f
        E 16 82 1e 00
        E 0 b2 0b 7f
        E 0 92 2b 7f
        E 16 82 2b 00
        E 0 b2 0b 7f
        E 0 92 20 7f
        E 16 82 20 00
        E 0 b2 0b 7f
        E 0 92 2d 7f
        E 16 82 2d 00
        E 0 b2 0b 7f
        E 0 92 22 7f
        E 16 82 22 00
        E 0 b2 0b 7f
        E 0 92 2f 7f
        E 16 82 2f 00
        E 0 b2 0b 7f
        E 0 92 18 7f
        E 16 82 18 00
        E 0 b2 0b 7f
        E 0 92 25 7f
        E 16 82 25 00
        E 0 b2 0b 7f
        E 0 92 1a 7f
        E 16 82 1a 00
        E 0 b2 0b 7f
        E 0 92 27 7f
        E 16 82 27 00
        E 0 b2 0b 7f
        E 0 92 1c 7f
        E 16 82 1c 00
        E 0 b2 0b 7f
        E 0 92 29 7f
        E 16 82 29 00
        E 0 b2 0b 7f
        E 0 92 1e 7f
        E 16 82 1e 00
        E 0 b2 0b 7f
        E 0 92 2b 7f
        E 16 82 2b 00
        E 0 b2 0b 7f
        E 0 92 20 7f
        E 16 82 20 00
        E 0 b2 0b 7f
        E 0 92 2d 7f
        E 16 82 2d 00
        E 0 b2 0b 7f
        E 0 92 22 7f
        E 16 82 22 00
        E 0 b2 0b 7f
        E 0 92 2f 7f
        E 16 82 2f 00
        E 0 b2 0b 7f
        E 0 92 18 7f
        E 16 82 18 00
        E 0 b2 0b 7f
        E 0 92 25 7f
        E 16 82 25 00
        E 0 b2 0b 7f
        E 0 92 1a 7f
        E 16 82 1a 00
        E 0 b2 0b 7f
        E 0 92 27 7f
        E 16 82 27 00
        E 0 b2 0b 7f
        E 0 92 1c 7f
        E 16 82 1c 00
        E 0 b2 0b 7f
        E 0 92 29 7f
        E 16 82 29 00
        E 0 b2 0b 7f
        E 0 92 1e 7f
        E 16 82 1e 00
        E 0 b2 0b 7f
        E 0 92 2b 7f
        E 16 82 2b 00
        E 0 b2 0b 7f
        E 0 92 20 7f
        E 16 82 20 00
        E 0 b2 0b 7f
        E 0 92 2d 7f
        E 16 82 2d 00
        E 0 b2 0b 7f
        E 0 92 22 7f
        E 16 82 22 00
        E 0 b2 0b 7f
        E 0 92 2f 7f
        E 16 82 2f 00
        E 0 b2 0b 7f
        E 0 92 18 7f
        E 16 82 18 00
        E 0 b2 0b 7f
        E 0 92 25 7f
        E 16 82 25 00
        E 0 b2 0b 7f
        E 0 92 1a 7f
        E 16 82 1a 00
        E 0 b2 0b 7f
        E 0 92 27 7f
        E 16 82 27 00
        E 0 b2 0b 7f
        E 0 92 1c 7f
        E 16 82 1c 00
        E 0 b2 0b 7f
        E 0 92 29 7f
        E 16 82 29 00
        E 0 b2 0b 7f
        E 0 92 1e 7f
        E 16 82 1e 00
        E 0 b2 0b 7f
        E 0 92 2b 7f
        E 16 82 2b 00
        E 0 b2 0b 7f
        E 0 92 20 7f
        E 16 82 20 00
        E 0 b2 0b 7f
        E 0 92 2d 7f
        E 16 82 2d 00
        E 0 b2 0b 7f
        E 0 92 22 7f
        E 16 82 22 00
        E 0 b2 0b 7f
        E 0 92 2f 7f
        E 16 82 2f 00
        E 0 b2 0b 7f
        E 0 92 18 7f
        E 16 82 18 00
        E 0 b2 0b 7f
        E 0 92 25 7f
        E 16 82 25 00
        E 0 b2 0b 7f
        E 0 92 1a 7f
        E 16 82 1a 00
        E 0 b2 0b 7f
        E 0 92 27 7f
        E 16 82 27 00
        E 0 b2 0b 7f
        E 0 92 1c 7f
        E 16 82 1c 00
        E 0 b2 0b 7f
        E 0 92 29 7f
        E 16 82 29 00
        E 0 b2 0b 7f
        E 0 92 1e 7f
        E 16 82 1e 00
        E 0 b2 0b 7f
        E 0 92 2b 7f
        E 16 82 2b 00
        E 0 b2 0b 7f
        E 0 92 20 7f
        E 16 82 20 00
        E 0 b2 0b 7f
        E 0 92 2d 7f
        E 16 82 2d 00
        E 0 b2 0b 7f
        E 0 92 22 7f
        E 16 82 22 00
        E 0 b2 0b 7f
        E 0 92 2f 7f
        E 16 82 2f 00
        E 0 b2 0b 7f
        E 0 92 18 7f
        E 16 82 18 00
        E 0 b2 0b 7f
        E 0 92 25 7f
        E 16 82 25 00
        E 0 b2 0b 7f
        E 0 92 1a 7f
        E 16 82 1a 00
        E 0 b2 0b 7f
        E 0 92 27 7f
        E 16 82 27 00
        E 0 b2 0b 7f
        E 0 92 1c 7f
        E 16 82 1c 00
        E 0 b2 0b 7f
        E 0 92 29 7f
        E 16 82 29 00
        E 0 b2 0b 7f
        E 0 92 1e 7f
        E 16 82 1e 00
        E 0 b2 0b 7f
        E 0 92 2b 7f
        E 16 82 2b 00
        E 0 b2 0b 7f
        E 0 92 20 7f
        E 16 82 20 00
        E 0 b2 0b 7f
        E 0 92 2d 7f
        E 16 82 2d 00
        E 0 b2 0b 7f
        E 0 92 22 7f
        E 16 82 22 00
        E 0 b2 0b 7f
        E 0 92 2f 7f
        E 16 82 2f 00
        E 0 b2 0b 7f
        E 0 92 18 7f
        E 16 82 18 00
        E 0 b2 0b 7f
        E 0 92 25 7f
        E 16 82 25 00
        E 0 b2 0b 7f
        E 0 92 1a 7f
        E 16 82 1a 00
        E 0 b2 0b 7f
        E 0 92 27 7f
        E 16 82 27 00
        E 0 b2 0b 7f
        E 0 92 1c 7f
        E 16 82 1c 00
        E 0 b2 0b 7f
        E 0 92 29 7f
        E 16 82 29 00
        E 0 b2 0b 7f
        E 0 92 1e 7f
        E 16 82 1e 00
        E 0 b2 0b 7f
        E 0 92 2b 7f
        E 16 82 2b 00
        E 0 b2 0b 7f
        E 0 92 20 7f
        E 16 82 20 00
        E 0 b2 0b 7f
        E 0 92 2d 7f
        E 16 82 2d 00
        E 0 b2 0b 7f
        E 0 92 22 7f
        E 16 82 22 00
        E 0 b2 0b 7f
        E 0 92 2f 7f
        E 16 82 2f 00
        E 0 b2 0b 7f
        E 0 92 18 7f
        E 16 82 18 00
        E 0 b2 0b 7f
        E 0 92 25 7f
        E 16 82 25 00
        E 0 b2 0b 7f
        E 0 92 1a 7f
        E 16 82 1a 00
        E 0 b2 0b 7f
        E 0 92 27 7f
        E 16 82 27 00
        E 0 b2 0b 7f
        E 0 92 1c 7f
        E 16 82 1c 00
        E 0 b2 0b 7f
        E 0 92 29 7f
        E 16 82 29 00
        E 0 b2 0b 7f
        E 0 92 1e 7f
        E 16 82 1e 00
        E 0 b2 0b 7f
        E 0 92 2b 7f
        E 16 82 2b 00
        E 0 b2 0b 7f
        E 0 92 20 7f
        E 16 82 20 00
        E 0 b2 0b 7f
        E 0 92 2d 7f
        E 16 82 2d 00
        E 0 b2 0b 7f
        E 0 92 22 7f
        E 16 82 22 00
        E 0 b2 0b 7f
        E 0 92 2f 7f
        E 16 82 2f 00
        E 0 b2 0b 7f
        E 0 92 18 7f
        E 16 82 18 00
        E 0 b2 0b 7f
        E 0 92 25 7f
        E 16 82 25 00
        E 0 b2 0b 7f
        E 0 92 1a 7f
        E 16 82 1a 00
        E 0 b2 0b 7f
        E 0 92 27 7f
        E 16 82 27 00
        E 0 b2 0b 7f
        E 0 92 1c 7f
        E 16 82 1c 00
        E 0 b2 0b 7f
        E 0 92 29 7f
        E 16 82 29 00
        E 0 b2 0b 7f
        E 0 92 1e 7f
        E 16 82 1e 00
        E 0 b2 0b 7f
        E 0 92 2b 7f
        E 16 82 2b 00
        E 0 b2 0b 7f
        E 0 92 20 7f
        E 16 82 20 00
        E 0 b2 0b 7f
        E 0 92 2d 7f
        E 16 82 2d 00
        E 0 b2 0b 7f
        E 0 92 22 7f
        E 16 82 22 00
        E 0 b2 0b 7f
        E 0 92 2f 7f
        E 16 82 2f 00
        E 0 b2 0b 7f
        E 0 92 1a 7f
        E 16 82 1a 00
        E 0 b2 0b 7f
        E 0 92 1d 7f
        E 16 82 1d 00
        E 0 b2 0b 7f
        E 0 92 1c 7f
        E 16 82 1c 00
        E 0 b2 0b 7f
        E 0 92 1f 7f
        E 16 82 1f 00
        E 0 b2 0b 7f
        E 0 92 1e 7f
        E 16 82 1e 00
        E 0 b2 0b 7f
        E 0 92 21 7f
        E 16 82 21 00
        E 0 b2 0b 7f
        E 0 92 20 7f
        E 16 82 20 00
        E 0 b2 0b 7f
        E 0 92 23 7f
        E 16 82 23 00
        E 0 b2 0b 7f
        E 0 92 1c 7f
        E 16 82 1c 00
        E 0 b2 0b 7f
        E 0 92 1f 7f
        E 16 82 1f 00
        E 0 b2 0b 7f
        E 0 92 1e 7f
        E 16 82 1e 00
        E 0 b2 0b 7f
        E 0 92 21 7f
        E 16 82 21 00
        E 0 b2 0b 7f
        E 0 92 20 7f
        E 16 82 20 00
        E 0 b2 0b 7f
        E 0 92 23 7f
        E 16 82 23 00
        E 0 b2 0b 7f
        E 0 92 22 7f
        E 16 82 22 00
        E 0 b2 0b 7f
        E 0 92 25 7f
        E 16 82 25 00
        E 0 b2 0b 7f
        E 0 92 1e 7f
        E 16 82 1e 00
        E 0 b2 0b 7f
        E 0 92 21 7f
        E 16 82 21 00
        E 0 b2 0b 7f
        E 0 92 20 7f
        E 16 82 20 00
        E 0 b2 0b 7f
        E 0 92 23 7f
        E 16 82 23 00
        E 0 b2 0b 7f
        E 0 92 22 7f
        E 16 82 22 00
        E 0 b2 0b 7f
        E 0 92 25 7f
        E 16 82 25 00
        E 0 b2 0b 7f
        E 0 92 24 7f
        E 16 82 24 00
        E 0 b2 0b 7f
        E 0 92 27 7f
        E 16 82 27 00
        E 0 b2 0b 7f
        E 0 92 23 7f
        E 16 82 23 00
        E 0 b2 0b 7f
        E 0 92 26 7f
        E 16 82 26 00
        E 0 b2 0b 7f
        E 0 92 25 7f
        E 16 82 25 00
        E 0 b2 0b 7f
        E 0 92 28 7f
        E 16 82 28 00
        E 0 b2 0b 7f
        E 0 92 27 7f
        E 16 82 27 00
        E 0 b2 0b 7f
        E 0 92 2a 7f
        E 16 82 2a 00
        E 0 b2 0b 7f
        E 0 92 29 7f
        E 16 82 29 00
        E 0 b2 0b 7f
        E 0 92 2c 7f
        E 16 82 2c 00
        E 0 b2 0b 7f
        E 0 92 25 7f
        E 16 82 25 00
        E 0 b2 0b 7f
        E 0 92 28 7f
        E 16 82 28 00
        E 0 b2 0b 7f
        E 0 92 27 7f
        E 16 82 27 00
        E 0 b2 0b 7f
        E 0 92 2a 7f
        E 16 82 2a 00
        E 0 b2 0b 7f
        E 0 92 29 7f
        E 16 82 29 00
        E 0 b2 0b 7f
        E 0 92 2c 7f
        E 16 82 2c 00
        E 0 b2 0b 7f
        E 0 92 2b 7f
        E 16 82 2b 00
        E 0 b2 0b 7f
        E 0 92 2e 7f
        E 16 82 2e 00
        E 0 b2 0b 7f
        E 0 92 27 7f
        E 16 82 27 00
        E 0 b2 0b 7f
        E 0 92 2a 7f
        E 16 82 2a 00
        E 0 b2 0b 7f
        E 0 92 29 7f
        E 16 82 29 00
        E 0 b2 0b 7f
        E 0 92 2c 7f
        E 16 82 2c 00
        E 0 b2 0b 7f
        E 0 92 2b 7f
        E 16 82 2b 00
        E 0 b2 0b 7f
        E 0 92 2e 7f
        E 16 82 2e 00
        E 0 b2 0b 7f
        E 0 92 2d 7f
        E 16 82 2d 00
        E 0 b2 0b 7f
        E 0 92 30 7f
        E 16 82 30 00
        E 0 b2 0b 7f
        E 0 92 2c 7f
        E 16 82 2c 00
        E 0 b2 0b 7f
        E 0 92 2f 7f
        E 16 82 2f 00
        E 0 b2 0b 7f
        E 0 92 2e 7f
        E 16 82 2e 00
        E 0 b2 0b 7f
        E 0 92 31 7f
        E 16 82 31 00
        E 0 b2 0b 7f
        E 0 92 30 7f
        E 16 82 30 00
        E 0 b2 0b 7f
        E 0 92 33 7f
        E 16 82 33 00
        E 0 b2 0b 7f
        E 0 92 32 7f
        E 16 82 32 00
        E 0 b2 0b 7f
        E 0 92 35 7f
        E 16 82 35 00
        E 0 b2 0b 7f
        E 0 92 2e 7f
        E 16 82 2e 00
        E 0 b2 0b 7f
        E 0 92 31 7f
        E 16 82 31 00
        E 0 b2 0b 7f
        E 0 92 30 7f
        E 16 82 30 00
        E 0 b2 0b 7f
        E 0 92 33 7f
        E 16 82 33 00
        E 0 b2 0b 7f
        E 0 92 32 7f
        E 16 82 32 00
        E 0 b2 0b 7f
        E 0 92 35 7f
        E 16 82 35 00
        E 0 b2 0b 7f
        E 0 92 34 7f
        E 16 82 34 00
        E 0 b2 0b 7f
        E 0 92 37 7f
        E 16 82 37 00
        E 0 b2 0b 7f
        E 0 92 30 7f
        E 16 82 30 00
        E 0 b2 0b 7f
        E 0 92 33 7f
        E 16 82 33 00
        E 0 b2 0b 7f
        E 0 92 32 7f
        E 16 82 32 00
        E 0 b2 0b 7f
        E 0 92 35 7f
        E 16 82 35 00
        E 0 b2 0b 7f
        E 0 92 34 7f
        E 16 82 34 00
        E 0 b2 0b 7f
        E 0 92 37 7f
        E 16 82 37 00
        E 0 b2 0b 7f
        E 0 92 36 7f
        E 16 82 36 00
        E 0 b2 0b 7f
        E 0 92 39 7f
        E 16 82 39 00
        E 0 b2 0b 7f
        E 0 92 35 7f
        E 16 82 35 00
        E 0 b2 0b 7f
        E 0 92 38 7f
        E 16 82 38 00
        E 0 b2 0b 7f
        E 0 92 37 7f
        E 16 82 37 00
        E 0 b2 0b 7f
        E 0 92 3a 7f
        E 16 82 3a 00
        E 0 b2 0b 7f
        E 0 92 39 7f
        E 16 82 39 00
        E 0 b2 0b 7f
        E 0 92 3c 7f
        E 16 82 3c 00
        E 0 b2 0b 7f
        E 0 92 3b 7f
        E 16 82 3b 00
        E 0 b2 0b 7f
        E 0 92 3e 7f
        E 16 82 3e 00
        E 0 b2 0b 7f
        E 0 92 37 7f
        E 16 82 37 00
        E 0 b2 0b 7f
        E 0 92 3a 7f
        E 16 82 3a 00
        E 0 b2 0b 7f
        E 0 92 39 7f
        E 16 82 39 00
        E 0 b2 0b 7f
        E 0 92 3c 7f
        E 16 82 3c 00
        E 0 b2 0b 7f
        E 0 92 3b 7f
        E 16 82 3b 00
        E 0 b2 0b 7f
        E 0 92 3e 7f
        E 16 82 3e 00
        E 0 b2 0b 7f
        E 0 92 3d 7f
        E 16 82 3d 00
        E 0 b2 0b 7f
        E 0 92 40 7f
        E 16 82 40 00
        E 0 b2 0b 7f
        E 0 92 39 7f
        E 16 82 39 00
        E 0 b2 0b 7f
        E 0 92 3c 7f
        E 16 82 3c 00
        E 0 b2 0b 7f
        E 0 92 3b 7f
        E 16 82 3b 00
        E 0 b2 0b 7f
        E 0 92 3e 7f
        E 16 82 3e 00
        E 0 b2 0b 7f
        E 0 92 3d 7f
        E 16 82 3d 00
        E 0 b2 0b 7f
        E 0 92 40 7f
        E 16 82 40 00
        E 0 b2 0b 7f
        E 0 92 3f 7f
        E 16 82 3f 00
        E 0 b2 0b 7f
        E 0 92 42 7f
        E 16 82 42 00
        E 23872 b2 0b 7f
        E 0 92 34 7f
        E 16 82 34 00
        E 32 b2 0b 7f
        E 0 92 35 7f
        E 16 82 35 00
        E 32 b2 0b 7f
        E 0 92 36 7f
        E 16 82 36 00
        E 32 b2 0b 7f
        E 0 92 37 7f
        E 16 82 37 00
        E 32 b2 0b 7f
        E 0 92 38 7f
        E 16 82 38 00
        E 32 b2 0b 7f
        E 0 92 37 7f
        E 16 82 37 00
        E 32 b2 0b 7f
        E 0 92 38 7f
        E 16 82 38 00
        E 32 b2 0b 7f
        E 0 92 39 7f
        E 16 82 39 00
        E 32 b2 0b 7f
        E 0 92 3a 7f
        E 16 82 3a 00
        E 32 b2 0b 7f
        E 0 92 3b 7f
        E 16 82 3b 00
        E 32 b2 0b 7f
        E 0 92 39 7f
        E 16 82 39 00
        E 32 b2 0b 7f
        E 0 92 3a 7f
        E 16 82 3a 00
        E 32 b2 0b 7f
        E 0 92 3b 7f
        E 16 82 3b 00
        E 32 b2 0b 7f
        E 0 92 3c 7f
        E 16 82 3c 00
        E 32 b2 0b 7f
        E 0 92 3d 7f
        E 16 82 3d 00
        E 32 b2 0b 7f
        E 0 92 3a 7f
        E 16 82 3a 00
        E 32 b2 0b 7f
        E 0 92 3b 7f
        E 16 82 3b 00
        E 32 b2 0b 7f
        E 0 92 3c 7f
        E 16 82 3c 00
        E 32 b2 0b 7f
        E 0 92 3d 7f
        E 16 82 3d 00
        E 32 b2 0b 7f
        E 0 92 3e 7f
        E 16 82 3e 00
        E 32 b2 0b 7f
        E 0 92 3c 7f
        E 16 82 3c 00
        E 32 b2 0b 7f
        E 0 92 3d 7f
        E 16 82 3d 00
        E 32 b2 0b 7f
        E 0 92 3e 7f
        E 16 82 3e 00
        E 32 b2 0b 7f
        E 0 92 3f 7f
        E 16 82 3f 00
        E 32 b2 0b 7f
        E 0 92 40 7f
        E 16 82 40 00
        E 3664 b2 7b 00
        E 0 ff 2f 00
      >
    >
  >
  <TRACK {75274D5C-1B77-4DA6-95CF-4F9E32126A09}
    NAME "NES - Noise / Drums [ch3]"
    PEAKCOL 11184810
    BEAT -1
    AUTOMODE 0
    PANLAWFLAGS 3
    VOLPAN 1 0 -1 -1 1
    MUTESOLO 0 0 0
    IPHASE 0
    PLAYOFFS 0 1
    ISBUS 0 0
    BUSCOMP 0 0 0 0 0
    SHOWINMIX 1 0.6667 0.5 1 0.5 0 0 0
    FIXEDLANES 9 0 0 0 0
    SEL 0
    REC 0 5088 1 0 0 0 0 0
    VU 2
    TRACKHEIGHT 0 0 0 0 0 0 0
    INQ 0 0 0 0.5 100 0 0 100
    NCHAN 2
    FX 1
    TRACKID {75274D5C-1B77-4DA6-95CF-4F9E32126A09}
    PERF 0
    MIDIOUT -1
    MAINSEND 1 0
    <FXCHAIN
      WNDRECT 24 52 700 560
      SHOW 0
      LASTSEL 0
      DOCKED 0
      BYPASS 0 0 0
      <JS "ReapNES Studio/ReapNES_Console.jsfx" ""
        2 15 1 10 80 10 100 2 1 15 1 5 60 10 80 1 1 0 50 0 0 15 1 0 100 0 0 0.500000 0.500000 0.400000 0.300000 0.800000 3 1 0 0 0 0 - - - - - - - - - - - - - - - - - - - - - - - - - -
      >
      FLOATPOS 0 0 0 0
      FXID {CB11FDA9-8399-49CE-8991-E007C4733CDA}
      WAK 0 0
    >
    <ITEM
      POSITION 0
      LENGTH 69.5800954
      LOOP 0
      ALLTAKES 0
      FADEIN 0 0 0 0 0 0 0
      FADEOUT 0 0 0 0 0 0 0
      MUTE 0 0
      SEL 0
      IGUID {DD08676E-E5CF-4C08-A355-083AA3E2081F}
      <SOURCE MIDI
        HASDATA 1 480 QN
        CCINTERP 32
        E 0 93 2a 7f
        E 32 83 2a 00
        E 0 93 2a 7f
        E 16 83 2a 00
        E 0 93 2a 7f
        E 32 83 2a 00
        E 0 93 2a 7f
        E 16 83 2a 00
        E 0 93 2a 7f
        E 32 83 2a 00
        E 0 93 2a 7f
        E 16 83 2a 00
        E 0 93 2a 7f
        E 32 83 2a 00
        E 0 93 2a 7f
        E 16 83 2a 00
        E 0 93 2a 7f
        E 32 83 2a 00
        E 0 93 2a 7f
        E 16 83 2a 00
        E 0 93 2a 7f
        E 32 83 2a 00
        E 0 93 2a 7f
        E 16 83 2a 00
        E 0 93 2a 7f
        E 32 83 2a 00
        E 0 93 2a 7f
        E 16 83 2a 00
        E 0 93 2a 7f
        E 32 83 2a 00
        E 0 93 2a 7f
        E 16 83 2a 00
        E 0 93 2a 7f
        E 32 83 2a 00
        E 0 93 2a 7f
        E 16 83 2a 00
        E 0 93 2a 7f
        E 32 83 2a 00
        E 0 93 2a 7f
        E 16 83 2a 00
        E 0 93 2a 7f
        E 32 83 2a 00
        E 0 93 2a 7f
        E 16 83 2a 00
        E 0 93 2a 7f
        E 32 83 2a 00
        E 0 93 2a 7f
        E 16 83 2a 00
        E 0 93 2a 7f
        E 32 83 2a 00
        E 0 93 2a 7f
        E 16 83 2a 00
        E 0 93 2a 7f
        E 32 83 2a 00
        E 0 93 2a 7f
        E 16 83 2a 00
        E 0 93 2a 7f
        E 32 83 2a 00
        E 0 93 2a 7f
        E 16 83 2a 00
        E 0 93 2a 7f
        E 32 83 2a 00
        E 0 93 2a 7f
        E 16 83 2a 00
        E 0 93 2a 7f
        E 32 83 2a 00
        E 0 93 2a 7f
        E 16 83 2a 00
        E 0 93 2a 7f
        E 32 83 2a 00
        E 0 93 2a 7f
        E 16 83 2a 00
        E 0 93 2a 7f
        E 32 83 2a 00
        E 0 93 2a 7f
        E 16 83 2a 00
        E 0 93 2a 7f
        E 32 83 2a 00
        E 0 93 2a 7f
        E 16 83 2a 00
        E 0 93 2a 7f
        E 32 83 2a 00
        E 0 93 2a 7f
        E 16 83 2a 00
        E 0 93 2a 7f
        E 32 83 2a 00
        E 0 93 2a 7f
        E 16 83 2a 00
        E 0 93 2a 7f
        E 32 83 2a 00
        E 0 93 2a 7f
        E 16 83 2a 00
        E 0 93 2a 7f
        E 32 83 2a 00
        E 0 93 2a 7f
        E 16 83 2a 00
        E 0 93 2a 7f
        E 32 83 2a 00
        E 0 93 2a 7f
        E 16 83 2a 00
        E 32176 93 2a 7f
        E 32 83 2a 00
        E 0 93 2a 7f
        E 16 83 2a 00
        E 0 93 2a 7f
        E 32 83 2a 00
        E 0 93 2a 7f
        E 16 83 2a 00
        E 0 93 2a 7f
        E 32 83 2a 00
        E 0 93 2a 7f
        E 16 83 2a 00
        E 0 93 2a 7f
        E 32 83 2a 00
        E 0 93 2a 7f
        E 16 83 2a 00
        E 0 93 2a 7f
        E 32 83 2a 00
        E 0 93 2a 7f
        E 16 83 2a 00
        E 0 93 2a 7f
        E 32 83 2a 00
        E 0 93 2a 7f
        E 16 83 2a 00
        E 0 93 2a 7f
        E 32 83 2a 00
        E 0 93 2a 7f
        E 16 83 2a 00
        E 0 93 2a 7f
        E 32 83 2a 00
        E 0 93 2a 7f
        E 16 83 2a 00
        E 0 93 2a 7f
        E 32 83 2a 00
        E 0 93 2a 7f
        E 16 83 2a 00
        E 0 93 2a 7f
        E 32 83 2a 00
        E 0 93 2a 7f
        E 16 83 2a 00
        E 0 93 2a 7f
        E 32 83 2a 00
        E 0 93 2a 7f
        E 16 83 2a 00
        E 0 93 2a 7f
        E 32 83 2a 00
        E 0 93 2a 7f
        E 16 83 2a 00
        E 0 93 2a 7f
        E 32 83 2a 00
        E 0 93 2a 7f
        E 16 83 2a 00
        E 0 93 2a 7f
        E 32 83 2a 00
        E 0 93 2a 7f
        E 16 83 2a 00
        E 0 93 2a 7f
        E 32 83 2a 00
        E 0 93 2a 7f
        E 16 83 2a 00
        E 0 93 2a 7f
        E 32 83 2a 00
        E 0 93 2a 7f
        E 16 83 2a 00
        E 0 93 2a 7f
        E 32 83 2a 00
        E 0 93 2a 7f
        E 16 83 2a 00
        E 0 93 2a 7f
        E 32 83 2a 00
        E 0 93 2a 7f
        E 16 83 2a 00
        E 0 93 2a 7f
        E 32 83 2a 00
        E 0 93 2a 7f
        E 16 83 2a 00
        E 0 93 2a 7f
        E 32 83 2a 00
        E 0 93 2a 7f
        E 16 83 2a 00
        E 0 93 2a 7f
        E 32 83 2a 00
        E 0 93 2a 7f
        E 16 83 2a 00
        E 0 93 2a 7f
        E 32 83 2a 00
        E 0 93 2a 7f
        E 16 83 2a 00
        E 0 93 2a 7f
        E 32 83 2a 00
        E 0 93 2a 7f
        E 16 83 2a 00
        E 0 93 2a 7f
        E 32 83 2a 00
        E 0 93 2a 7f
        E 16 83 2a 00
        E 0 93 2a 7f
        E 32 83 2a 00
        E 0 93 2a 7f
        E 16 83 2a 00
        E 32176 93 2a 7f
        E 32 83 2a 00
        E 0 93 2a 7f
        E 16 83 2a 00
        E 0 93 2a 7f
        E 32 83 2a 00
        E 0 93 2a 7f
        E 16 83 2a 00
        E 0 93 2a 7f
        E 32 83 2a 00
        E 0 93 2a 7f
        E 16 83 2a 00
        E 0 93 2a 7f
        E 32 83 2a 00
        E 0 93 2a 7f
        E 16 83 2a 00
        E 0 93 2a 7f
        E 32 83 2a 00
        E 0 93 2a 7f
        E 16 83 2a 00
        E 0 93 2a 7f
        E 32 83 2a 00
        E 0 93 2a 7f
        E 16 83 2a 00
        E 0 93 2a 7f
        E 32 83 2a 00
        E 0 93 2a 7f
        E 16 83 2a 00
        E 0 93 2a 7f
        E 32 83 2a 00
        E 0 93 2a 7f
        E 16 83 2a 00
        E 0 93 2a 7f
        E 32 83 2a 00
        E 0 93 2a 7f
        E 16 83 2a 00
        E 0 93 2a 7f
        E 32 83 2a 00
        E 0 93 2a 7f
        E 16 83 2a 00
        E 0 93 2a 7f
        E 32 83 2a 00
        E 0 93 2a 7f
        E 16 83 2a 00
        E 0 93 2a 7f
        E 32 83 2a 00
        E 0 93 2a 7f
        E 16 83 2a 00
        E 0 93 2a 7f
        E 32 83 2a 00
        E 0 93 2a 7f
        E 16 83 2a 00
        E 0 93 2a 7f
        E 32 83 2a 00
        E 0 93 2a 7f
        E 16 83 2a 00
        E 0 93 2a 7f
        E 32 83 2a 00
        E 0 93 2a 7f
        E 16 83 2a 00
        E 0 93 2a 7f
        E 32 83 2a 00
        E 0 93 2a 7f
        E 16 83 2a 00
        E 0 93 2a 7f
        E 32 83 2a 00
        E 0 93 2a 7f
        E 16 83 2a 00
        E 0 93 2a 7f
        E 32 83 2a 00
        E 0 93 2a 7f
        E 16 83 2a 00
        E 0 93 2a 7f
        E 32 83 2a 00
        E 0 93 2a 7f
        E 16 83 2a 00
        E 0 93 2a 7f
        E 32 83 2a 00
        E 0 93 2a 7f
        E 16 83 2a 00
        E 0 93 2a 7f
        E 32 83 2a 00
        E 0 93 2a 7f
        E 16 83 2a 00
        E 0 93 2a 7f
        E 32 83 2a 00
        E 0 93 2a 7f
        E 16 83 2a 00
        E 0 93 2a 7f
        E 32 83 2a 00
        E 0 93 2a 7f
        E 16 83 2a 00
        E 0 93 2a 7f
        E 32 83 2a 00
        E 0 93 2a 7f
        E 16 83 2a 00
        E 0 93 2a 7f
        E 32 83 2a 00
        E 0 93 2a 7f
        E 16 83 2a 00
        E 3632 b3 7b 00
        E 0 ff 2f 00
      >
    >
  >
>