<REAPER_PROJECT 0.1 "7.27/win64" 1707000000
  <NOTES 0 2
    |ReapNES Studio Project
    |MIDI Import - Super_Mario_Bros._01_Song_1_v1
  >
  RIPPLE 0
  GROUPOVERRIDE 0 0 0
  AUTOXFADE 129
  ENVATTACH 3
  POOLEDENVATTACH 0
  MIXERUIFLAGS 11 48
  ENVFADESZ10 40
  PEAKGAIN 1
  FEEDBACK 0
  PANLAW 1
  PROJOFFS 0 0 0
  MAXPROJLEN 0 0
  GRID 3199 8 1 8 1 0 0 0
  TIMEMODE 1 5 -1 30 0 0 -1
  VIDEO_CONFIG 0 0 65792
  PANMODE 3
  PANLAWFLAGS 3
  CURSOR 0
  ZOOM 100 0 0
  VZOOMEX 6 0
  USE_REC_CFG 0
  RECMODE 1
  SMPTESYNC 0 30 100 40 1000 300 0 0 1 0 0
  LOOP 0
  LOOPGRAN 0 4
  RECORD_PATH "Media" ""
  <RECORD_CFG
    ZXZhdxgAAQ==
  >
  <APPLYFX_CFG
  >
  RENDER_FILE ""
  RENDER_PATTERN ""
  RENDER_FMT 0 2 0
  RENDER_1X 0
  RENDER_RANGE 1 0 0 18 1000
  RENDER_RESAMPLE 3 0 1
  RENDER_ADDTOPROJ 0
  RENDER_STEMS 0
  RENDER_DITHER 0
  TIMELOCKMODE 1
  TEMPOENVLOCKMODE 1
  ITEMMIX 1
  DEFPITCHMODE 589824 0
  TAKELANE 1
  SAMPLERATE 44100 0 0
  <RENDER_CFG
    ZXZhdxgAAQ==
  >
  LOCK 1
  <METRONOME 6 2
    VOL 0.25 0.125
    BEATLEN 4
    FREQ 1760 880 1
    SAMPLES "" ""
    SPLIGNORE 0 0
    SPLDEF 2 660 "" 0
    SPLDEF 3 440 "" 0
    PATTERN 0 169
    PATTERNSTR ABBB
    MULT 1
  >
  GLOBAL_AUTO -1
  TEMPO 128.59999614200012 4 4
  PLAYRATE 1 0 0.25 4
  SELECTION 0 0
  SELECTION2 0 0
  MASTERAUTOMODE 0
  MASTERTRACKHEIGHT 0 0
  MASTERPEAKCOL 16576
  MASTERMUTESOLO 0
  MASTERTRACKVIEW 0 0.6667 0.5 0.5 0 0 0 0 0 0 0 0 0 0
  MASTERHWOUT 0 0 1 0 0 0 0 -1
  MASTER_NCH 2 2
  MASTER_VOLUME 1 0 -1 -1 1
  MASTER_PANMODE 3
  MASTER_PANLAWFLAGS 3
  MASTER_FX 1
  MASTER_SEL 0
  <MASTERPLAYSPEEDENV
    EGUID {8679EEC8-EB5F-43C1-A2D0-7DC289E42813}
    ACT 0 -1
    VIS 0 1 1
    LANEHEIGHT 0 0
    ARM 0
    DEFSHAPE 0 -1 -1
  >
  <TEMPOENVEX
    EGUID {673F8010-A08F-4068-9FF0-D55668919B4A}
    ACT 1 -1
    VIS 1 0 1
    LANEHEIGHT 0 0
    ARM 0
    DEFSHAPE 1 -1 -1
  >
  <PROJBAY
  >
  <TRACK {0BAC50FB-73A9-4FA4-8191-C8B46D1F8DC5}
    NAME "NES - Pulse 1 [ch0]"
    PEAKCOL 16576606
    BEAT -1
    AUTOMODE 0
    PANLAWFLAGS 3
    VOLPAN 1 0 -1 -1 1
    MUTESOLO 0 0 0
    IPHASE 0
    PLAYOFFS 0 1
    ISBUS 0 0
    BUSCOMP 0 0 0 0 0
    SHOWINMIX 1 0.6667 0.5 1 0.5 0 0 0
    FIXEDLANES 9 0 0 0 0
    SEL 1
    REC 0 5088 1 0 0 0 0 0
    VU 2
    TRACKHEIGHT 0 0 0 0 0 0 0
    INQ 0 0 0 0.5 100 0 0 100
    NCHAN 2
    FX 1
    TRACKID {0BAC50FB-73A9-4FA4-8191-C8B46D1F8DC5}
    PERF 0
    MIDIOUT -1
    MAINSEND 1 0
    <FXCHAIN
      WNDRECT 24 52 700 560
      SHOW 0
      LASTSEL 0
      DOCKED 0
      BYPASS 0 0 0
      <JS "ReapNES Studio/ReapNES_Console.jsfx" ""
        2 15 1 10 80 10 100 2 1 15 1 5 60 10 80 1 1 0 50 0 0 15 1 0 100 0 0 0.500000 0.500000 0.400000 0.300000 0.800000 0 1 0 0 0 0 - - - - - - - - - - - - - - - - - - - - - - - - - -
      >
      FLOATPOS 0 0 0 0
      FXID {EA2907D6-BCAC-405A-976F-B702755619B1}
      WAK 0 0
    >
    <ITEM
      POSITION 0
      LENGTH 83.98134
      LOOP 0
      ALLTAKES 0
      FADEIN 0 0 0 0 0 0 0
      FADEOUT 0 0 0 0 0 0 0
      MUTE 0 0
      SEL 0
      IGUID {45E3821E-08B9-451F-8090-54BAD3818FDA}
      <SOURCE MIDI
        HASDATA 1 480 QN
        CCINTERP 32
        E 0 c0 50
        E 16 b0 0c 40
        E 0 b0 0b 40
        E 0 90 36 40
        E 16 b0 0b 38
        E 16 b0 0b 30
        E 16 b0 0b 28
        E 32 b0 0b 20
        E 32 80 36 00
        E 32 b0 0b 40
        E 0 90 36 40
        E 16 b0 0b 38
        E 16 b0 0b 30
        E 16 b0 0b 28
        E 32 b0 0b 20
        E 32 80 36 00
        E 176 b0 0b 40
        E 0 90 36 40
        E 16 b0 0b 38
        E 16 b0 0b 30
        E 16 b0 0b 28
        E 32 b0 0b 20
        E 32 80 36 00
        E 176 b0 0b 40
        E 0 90 36 40
        E 16 b0 0b 38
        E 16 b0 0b 30
        E 16 b0 0b 28
        E 32 b0 0b 20
        E 32 80 36 00
        E 32 b0 0b 40
        E 0 90 36 40
        E 16 b0 0b 38
        E 16 b0 0b 30
        E 16 b0 0b 28
        E 32 b0 0b 20
        E 32 80 36 00
        E 176 b0 0b 40
        E 0 90 3b 40
        E 16 b0 0b 38
        E 16 b0 0b 30
        E 16 b0 0b 28
        E 32 b0 0b 20
        E 32 80 3b 00
        E 464 b0 0b 40
        E 0 90 37 40
        E 16 b0 0b 38
        E 16 b0 0b 30
        E 16 b0 0b 28
        E 32 b0 0b 20
        E 32 80 37 00
        E 464 b0 0b 40
        E 0 90 34 40
        E 16 b0 0b 38
        E 16 b0 0b 30
        E 16 b0 0b 28
        E 32 b0 0b 20
        E 32 80 34 00
        E 320 b0 0b 40
        E 0 90 30 40
        E 16 b0 0b 38
        E 16 b0 0b 30
        E 16 b0 0b 28
        E 32 b0 0b 20
        E 32 80 30 00
        E 320 b0 0b 40
        E 0 90 2b 40
        E 16 b0 0b 38
        E 16 b0 0b 30
        E 16 b0 0b 28
        E 32 b0 0b 20
        E 32 80 2b 00
        E 320 b0 0b 40
        E 0 90 30 40
        E 16 b0 0b 38
        E 16 b0 0b 30
        E 16 b0 0b 28
        E 32 b0 0b 20
        E 32 80 30 00
        E 176 b0 0b 40
        E 0 90 32 40
        E 16 b0 0b 38
        E 16 b0 0b 30
        E 16 b0 0b 28
        E 32 b0 0b 20
        E 32 80 32 00
        E 176 b0 0b 40
        E 0 90 31 40
        E 16 b0 0b 38
        E 16 b0 0b 30
        E 16 b0 0b 28
        E 32 b0 0b 20
        E 32 80 31 00
        E 32 b0 0b 40
        E 0 90 30 40
        E 16 b0 0b 38
        E 16 b0 0b 30
        E 16 b0 0b 28
        E 32 b0 0b 20
        E 32 80 30 00
        E 176 b0 0b 40
        E 0 90 30 40
        E 16 b0 0b 38
        E 16 b0 0b 30
        E 16 b0 0b 28
        E 32 b0 0b 20
        E 32 80 30 00
        E 80 b0 0b 40
        E 0 90 37 40
        E 16 b0 0b 38
        E 16 b0 0b 30
        E 16 b0 0b 28
        E 32 b0 0b 20
        E 32 80 37 00
        E 80 b0 0b 40
        E 0 90 3b 40
        E 16 b0 0b 38
        E 16 b0 0b 30
        E 16 b0 0b 28
        E 32 b0 0b 20
        E 32 80 3b 00
        E 80 b0 0b 40
        E 0 90 3c 40
        E 16 b0 0b 38
        E 16 b0 0b 30
        E 16 b0 0b 28
        E 32 b0 0b 20
        E 32 80 3c 00
        E 176 b0 0b 40
        E 0 90 39 40
        E 16 b0 0b 38
        E 16 b0 0b 30
        E 16 b0 0b 28
        E 32 b0 0b 20
        E 32 80 39 00
        E 32 b0 0b 40
        E 0 90 3b 40
        E 16 b0 0b 38
        E 16 b0 0b 30
        E 16 b0 0b 28
        E 32 b0 0b 20
        E 32 80 3b 00
        E 176 b0 0b 40
        E 0 90 39 40
        E 16 b0 0b 38
        E 16 b0 0b 30
        E 16 b0 0b 28
        E 32 b0 0b 20
        E 32 80 39 00
        E 176 b0 0b 40
        E 0 90 34 40
        E 16 b0 0b 38
        E 16 b0 0b 30
        E 16 b0 0b 28
        E 32 b0 0b 20
        E 32 80 34 00
        E 32 b0 0b 40
        E 0 90 35 40
        E 16 b0 0b 38
        E 16 b0 0b 30
        E 16 b0 0b 28
        E 32 b0 0b 20
        E 32 80 35 00
        E 32 b0 0b 40
        E 0 90 32 40
        E 16 b0 0b 38
        E 16 b0 0b 30
        E 16 b0 0b 28
        E 32 b0 0b 20
        E 32 80 32 00
        E 320 b0 0b 40
        E 0 90 34 40
        E 16 b0 0b 38
        E 16 b0 0b 30
        E 16 b0 0b 28
        E 32 b0 0b 20
        E 32 80 34 00
        E 320 b0 0b 40
        E 0 90 30 40
        E 16 b0 0b 38
        E 16 b0 0b 30
        E 16 b0 0b 28
        E 32 b0 0b 20
        E 32 80 30 00
        E 320 b0 0b 40
        E 0 90 2b 40
        E 16 b0 0b 38
        E 16 b0 0b 30
        E 16 b0 0b 28
        E 32 b0 0b 20
        E 32 80 2b 00
        E 320 b0 0b 40
        E 0 90 30 40
        E 16 b0 0b 38
        E 16 b0 0b 30
        E 16 b0 0b 28
        E 32 b0 0b 20
        E 32 80 30 00
        E 176 b0 0b 40
        E 0 90 32 40
        E 16 b0 0b 38
        E 16 b0 0b 30
        E 16 b0 0b 28
        E 32 b0 0b 20
        E 32 80 32 00
        E 176 b0 0b 40
        E 0 90 31 40
        E 16 b0 0b 38
        E 16 b0 0b 30
        E 16 b0 0b 28
        E 32 b0 0b 20
        E 32 80 31 00
        E 32 b0 0b 40
        E 0 90 30 40
        E 16 b0 0b 38
        E 16 b0 0b 30
        E 16 b0 0b 28
        E 32 b0 0b 20
        E 32 80 30 00
        E 176 b0 0b 40
        E 0 90 30 40
        E 16 b0 0b 38
        E 16 b0 0b 30
        E 16 b0 0b 28
        E 32 b0 0b 20
        E 32 80 30 00
        E 80 b0 0b 40
        E 0 90 37 40
        E 16 b0 0b 38
        E 16 b0 0b 30
        E 16 b0 0b 28
        E 32 b0 0b 20
        E 32 80 37 00
        E 80 b0 0b 40
        E 0 90 3b 40
        E 16 b0 0b 38
        E 16 b0 0b 30
        E 16 b0 0b 28
        E 32 b0 0b 20
        E 32 80 3b 00
        E 80 b0 0b 40
        E 0 90 3c 40
        E 16 b0 0b 38
        E 16 b0 0b 30
        E 16 b0 0b 28
        E 32 b0 0b 20
        E 32 80 3c 00
        E 176 b0 0b 40
        E 0 90 39 40
        E 16 b0 0b 38
        E 16 b0 0b 30
        E 16 b0 0b 28
        E 32 b0 0b 20
        E 32 80 39 00
        E 32 b0 0b 40
        E 0 90 3b 40
        E 16 b0 0b 38
        E 16 b0 0b 30
        E 16 b0 0b 28
        E 32 b0 0b 20
        E 32 80 3b 00
        E 176 b0 0b 40
        E 0 90 39 40
        E 16 b0 0b 38
        E 16 b0 0b 30
        E 16 b0 0b 28
        E 32 b0 0b 20
        E 32 80 39 00
        E 176 b0 0b 40
        E 0 90 34 40
        E 16 b0 0b 38
        E 16 b0 0b 30
        E 16 b0 0b 28
        E 32 b0 0b 20
        E 32 80 34 00
        E 32 b0 0b 40
        E 0 90 35 40
        E 16 b0 0b 38
        E 16 b0 0b 30
        E 16 b0 0b 28
        E 32 b0 0b 20
        E 32 80 35 00
        E 32 b0 0b 40
        E 0 90 32 40
        E 16 b0 0b 38
        E 16 b0 0b 30
        E 16 b0 0b 28
        E 32 b0 0b 20
        E 32 80 32 00
        E 608 b0 0b 40
        E 0 90 40 40
        E 16 b0 0b 38
        E 16 b0 0b 30
        E 16 b0 0b 28
        E 32 b0 0b 20
        E 32 80 40 00
        E 32 b0 0b 40
        E 0 90 3f 40
        E 16 b0 0b 38
        E 16 b0 0b 30
        E 16 b0 0b 28
        E 32 b0 0b 20
        E 32 80 3f 00
        E 32 b0 0b 40
        E 0 90 3e 40
        E 16 b0 0b 38
        E 16 b0 0b 30
        E 16 b0 0b 28
        E 32 b0 0b 20
        E 32 80 3e 00
        E 32 b0 0b 40
        E 0 90 3b 40
        E 16 b0 0b 38
        E 16 b0 0b 30
        E 16 b0 0b 28
        E 32 b0 0b 20
        E 32 80 3b 00
        E 176 b0 0b 40
        E 0 90 3c 40
        E 16 b0 0b 38
        E 16 b0 0b 30
        E 16 b0 0b 28
        E 32 b0 0b 20
        E 32 80 3c 00
        E 176 b0 0b 40
        E 0 90 34 40
        E 16 b0 0b 38
        E 16 b0 0b 30
        E 16 b0 0b 28
        E 32 b0 0b 20
        E 32 80 34 00
        E 32 b0 0b 40
        E 0 90 35 40
        E 16 b0 0b 38
        E 16 b0 0b 30
        E 16 b0 0b 28
        E 32 b0 0b 20
        E 32 80 35 00
        E 32 b0 0b 40
        E 0 90 37 40
        E 16 b0 0b 38
        E 16 b0 0b 30
        E 16 b0 0b 28
        E 32 b0 0b 20
        E 32 80 37 00
        E 176 b0 0b 40
        E 0 90 30 40
        E 16 b0 0b 38
        E 16 b0 0b 30
        E 16 b0 0b 28
        E 32 b0 0b 20
        E 32 80 30 00
        E 32 b0 0b 40
        E 0 90 34 40
        E 16 b0 0b 38
        E 16 b0 0b 30
        E 16 b0 0b 28
        E 32 b0 0b 20
        E 32 80 34 00
        E 32 b0 0b 40
        E 0 90 35 40
        E 16 b0 0b 38
        E 16 b0 0b 30
        E 16 b0 0b 28
        E 32 b0 0b 20
        E 32 80 35 00
        E 320 b0 0b 40
        E 0 90 40 40
        E 16 b0 0b 38
        E 16 b0 0b 30
        E 16 b0 0b 28
        E 32 b0 0b 20
        E 32 80 40 00
        E 32 b0 0b 40
        E 0 90 3f 40
        E 16 b0 0b 38
        E 16 b0 0b 30
        E 16 b0 0b 28
        E 32 b0 0b 20
        E 32 80 3f 00
        E 32 b0 0b 40
        E 0 90 3e 40
        E 16 b0 0b 38
        E 16 b0 0b 30
        E 16 b0 0b 28
        E 32 b0 0b 20
        E 32 80 3e 00
        E 32 b0 0b 40
        E 0 90 3b 40
        E 16 b0 0b 38
        E 16 b0 0b 30
        E 16 b0 0b 28
        E 32 b0 0b 20
        E 32 80 3b 00
        E 176 b0 0b 40
        E 0 90 3c 40
        E 16 b0 0b 38
        E 16 b0 0b 30
        E 16 b0 0b 28
        E 32 b0 0b 20
        E 32 80 3c 00
        E 176 b0 0b 40
        E 0 90 41 40
        E 16 b0 0b 38
        E 16 b0 0b 30
        E 16 b0 0b 28
        E 32 b0 0b 20
        E 32 80 41 00
        E 176 b0 0b 40
        E 0 90 41 40
        E 16 b0 0b 38
        E 16 b0 0b 30
        E 16 b0 0b 28
        E 32 b0 0b 20
        E 32 80 41 00
        E 32 b0 0b 40
        E 0 90 41 40
        E 16 b0 0b 38
        E 16 b0 0b 30
        E 16 b0 0b 28
        E 32 b0 0b 20
        E 32 80 41 00
        E 752 b0 0b 40
        E 0 90 40 40
        E 16 b0 0b 38
        E 16 b0 0b 30
        E 16 b0 0b 28
        E 32 b0 0b 20
        E 32 80 40 00
        E 32 b0 0b 40
        E 0 90 3f 40
        E 16 b0 0b 38
        E 16 b0 0b 30
        E 16 b0 0b 28
        E 32 b0 0b 20
        E 32 80 3f 00
        E 32 b0 0b 40
        E 0 90 3e 40
        E 16 b0 0b 38
        E 16 b0 0b 30
        E 16 b0 0b 28
        E 32 b0 0b 20
        E 32 80 3e 00
        E 32 b0 0b 40
        E 0 90 3b 40
        E 16 b0 0b 38
        E 16 b0 0b 30
        E 16 b0 0b 28
        E 32 b0 0b 20
        E 32 80 3b 00
        E 176 b0 0b 40
        E 0 90 3c 40
        E 16 b0 0b 38
        E 16 b0 0b 30
        E 16 b0 0b 28
        E 32 b0 0b 20
        E 32 80 3c 00
        E 176 b0 0b 40
        E 0 90 34 40
        E 16 b0 0b 38
        E 16 b0 0b 30
        E 16 b0 0b 28
        E 32 b0 0b 20
        E 32 80 34 00
        E 32 b0 0b 40
        E 0 90 35 40
        E 16 b0 0b 38
        E 16 b0 0b 30
        E 16 b0 0b 28
        E 32 b0 0b 20
        E 32 80 35 00
        E 32 b0 0b 40
        E 0 90 37 40
        E 16 b0 0b 38
        E 16 b0 0b 30
        E 16 b0 0b 28
        E 32 b0 0b 20
        E 32 80 37 00
        E 176 b0 0b 40
        E 0 90 30 40
        E 16 b0 0b 38
        E 16 b0 0b 30
        E 16 b0 0b 28
        E 32 b0 0b 20
        E 32 80 30 00
        E 32 b0 0b 40
        E 0 90 34 40
        E 16 b0 0b 38
        E 16 b0 0b 30
        E 16 b0 0b 28
        E 32 b0 0b 20
        E 32 80 34 00
        E 32 b0 0b 40
        E 0 90 35 40
        E 16 b0 0b 38
        E 16 b0 0b 30
        E 16 b0 0b 28
        E 32 b0 0b 20
        E 32 80 35 00
        E 320 b0 0b 40
        E 0 90 38 40
        E 16 b0 0b 38
        E 16 b0 0b 30
        E 16 b0 0b 28
        E 32 b0 0b 20
        E 32 80 38 00
        E 320 b0 0b 40
        E 0 90 35 40
        E 16 b0 0b 38
        E 16 b0 0b 30
        E 16 b0 0b 28
        E 32 b0 0b 20
        E 32 80 35 00
        E 320 b0 0b 40
        E 0 90 34 40
        E 16 b0 0b 38
        E 16 b0 0b 30
        E 16 b0 0b 28
        E 32 b0 0b 20
        E 32 80 34 00
        E 1328 b0 0b 40
        E 0 90 40 40
        E 16 b0 0b 38
        E 16 b0 0b 30
        E 16 b0 0b 28
        E 32 b0 0b 20
        E 32 80 40 00
        E 32 b0 0b 40
        E 0 90 3f 40
        E 16 b0 0b 38
        E 16 b0 0b 30
        E 16 b0 0b 28
        E 32 b0 0b 20
        E 32 80 3f 00
        E 32 b0 0b 40
        E 0 90 3e 40
        E 16 b0 0b 38
        E 16 b0 0b 30
        E 16 b0 0b 28
        E 32 b0 0b 20
        E 32 80 3e 00
        E 32 b0 0b 40
        E 0 90 3b 40
        E 16 b0 0b 38
        E 16 b0 0b 30
        E 16 b0 0b 28
        E 32 b0 0b 20
        E 32 80 3b 00
        E 176 b0 0b 40
        E 0 90 3c 40
        E 16 b0 0b 38
        E 16 b0 0b 30
        E 16 b0 0b 28
        E 32 b0 0b 20
        E 32 80 3c 00
        E 176 b0 0b 40
        E 0 90 34 40
        E 16 b0 0b 38
        E 16 b0 0b 30
        E 16 b0 0b 28
        E 32 b0 0b 20
        E 32 80 34 00
        E 32 b0 0b 40
        E 0 90 35 40
        E 16 b0 0b 38
        E 16 b0 0b 30
        E 16 b0 0b 28
        E 32 b0 0b 20
        E 32 80 35 00
        E 32 b0 0b 40
        E 0 90 37 40
        E 16 b0 0b 38
        E 16 b0 0b 30
        E 16 b0 0b 28
        E 32 b0 0b 20
        E 32 80 37 00
        E 176 b0 0b 40
        E 0 90 30 40
        E 16 b0 0b 38
        E 16 b0 0b 30
        E 16 b0 0b 28
        E 32 b0 0b 20
        E 32 80 30 00
        E 32 b0 0b 40
        E 0 90 34 40
        E 16 b0 0b 38
        E 16 b0 0b 30
        E 16 b0 0b 28
        E 32 b0 0b 20
        E 32 80 34 00
        E 32 b0 0b 40
        E 0 90 35 40
        E 16 b0 0b 38
        E 16 b0 0b 30
        E 16 b0 0b 28
        E 32 b0 0b 20
        E 32 80 35 00
        E 320 b0 0b 40
        E 0 90 40 40
        E 16 b0 0b 38
        E 16 b0 0b 30
        E 16 b0 0b 28
        E 32 b0 0b 20
        E 32 80 40 00
        E 32 b0 0b 40
        E 0 90 3f 40
        E 16 b0 0b 38
        E 16 b0 0b 30
        E 16 b0 0b 28
        E 32 b0 0b 20
        E 32 80 3f 00
        E 32 b0 0b 40
        E 0 90 3e 40
        E 16 b0 0b 38
        E 16 b0 0b 30
        E 16 b0 0b 28
        E 32 b0 0b 20
        E 32 80 3e 00
        E 32 b0 0b 40
        E 0 90 3b 40
        E 16 b0 0b 38
        E 16 b0 0b 30
        E 16 b0 0b 28
        E 32 b0 0b 20
        E 32 80 3b 00
        E 176 b0 0b 40
        E 0 90 3c 40
        E 16 b0 0b 38
        E 16 b0 0b 30
        E 16 b0 0b 28
        E 32 b0 0b 20
        E 32 80 3c 00
        E 176 b0 0b 40
        E 0 90 41 40
        E 16 b0 0b 38
        E 16 b0 0b 30
        E 16 b0 0b 28
        E 32 b0 0b 20
        E 32 80 41 00
        E 176 b0 0b 40
        E 0 90 41 40
        E 16 b0 0b 38
        E 16 b0 0b 30
        E 16 b0 0b 28
        E 32 b0 0b 20
        E 32 80 41 00
        E 32 b0 0b 40
        E 0 90 41 40
        E 16 b0 0b 38
        E 16 b0 0b 30
        E 16 b0 0b 28
        E 32 b0 0b 20
        E 32 80 41 00
        E 752 b0 0b 40
        E 0 90 40 40
        E 16 b0 0b 38
        E 16 b0 0b 30
        E 16 b0 0b 28
        E 32 b0 0b 20
        E 32 80 40 00
        E 32 b0 0b 40
        E 0 90 3f 40
        E 16 b0 0b 38
        E 16 b0 0b 30
        E 16 b0 0b 28
        E 32 b0 0b 20
        E 32 80 3f 00
        E 32 b0 0b 40
        E 0 90 3e 40
        E 16 b0 0b 38
        E 16 b0 0b 30
        E 16 b0 0b 28
        E 32 b0 0b 20
        E 32 80 3e 00
        E 32 b0 0b 40
        E 0 90 3b 40
        E 16 b0 0b 38
        E 16 b0 0b 30
        E 16 b0 0b 28
        E 32 b0 0b 20
        E 32 80 3b 00
        E 176 b0 0b 40
        E 0 90 3c 40
        E 16 b0 0b 38
        E 16 b0 0b 30
        E 16 b0 0b 28
        E 32 b0 0b 20
        E 32 80 3c 00
        E 176 b0 0b 40
        E 0 90 34 40
        E 16 b0 0b 38
        E 16 b0 0b 30
        E 16 b0 0b 28
        E 32 b0 0b 20
        E 32 80 34 00
        E 32 b0 0b 40
        E 0 90 35 40
        E 16 b0 0b 38
        E 16 b0 0b 30
        E 16 b0 0b 28
        E 32 b0 0b 20
        E 32 80 35 00
        E 32 b0 0b 40
        E 0 90 37 40
        E 16 b0 0b 38
        E 16 b0 0b 30
        E 16 b0 0b 28
        E 32 b0 0b 20
        E 32 80 37 00
        E 176 b0 0b 40
        E 0 90 30 40
        E 16 b0 0b 38
        E 16 b0 0b 30
        E 16 b0 0b 28
        E 32 b0 0b 20
        E 32 80 30 00
        E 32 b0 0b 40
        E 0 90 34 40
        E 16 b0 0b 38
        E 16 b0 0b 30
        E 16 b0 0b 28
        E 32 b0 0b 20
        E 32 80 34 00
        E 32 b0 0b 40
        E 0 90 35 40
        E 16 b0 0b 38
        E 16 b0 0b 30
        E 16 b0 0b 28
        E 32 b0 0b 20
        E 32 80 35 00
        E 320 b0 0b 40
        E 0 90 38 40
        E 16 b0 0b 38
        E 16 b0 0b 30
        E 16 b0 0b 28
        E 32 b0 0b 20
        E 32 80 38 00
        E 320 b0 0b 40
        E 0 90 35 40
        E 16 b0 0b 38
        E 16 b0 0b 30
        E 16 b0 0b 28
        E 32 b0 0b 20
        E 32 80 35 00
        E 320 b0 0b 40
        E 0 90 34 40
        E 16 b0 0b 38
        E 16 b0 0b 30
        E 16 b0 0b 28
        E 32 b0 0b 20
        E 32 80 34 00
        E 1040 b0 0b 40
        E 0 90 38 40
        E 16 b0 0b 38
        E 16 b0 0b 30
        E 16 b0 0b 28
        E 32 b0 0b 20
        E 32 80 38 00
        E 32 b0 0b 40
        E 0 90 38 40
        E 16 b0 0b 38
        E 16 b0 0b 30
        E 16 b0 0b 28
        E 32 b0 0b 20
        E 32 80 38 00
        E 176 b0 0b 40
        E 0 90 38 40
        E 16 b0 0b 38
        E 16 b0 0b 30
        E 16 b0 0b 28
        E 32 b0 0b 20
        E 32 80 38 00
        E 176 b0 0b 40
        E 0 90 38 40
        E 16 b0 0b 38
        E 16 b0 0b 30
        E 16 b0 0b 28
        E 32 b0 0b 20
        E 32 80 38 00
        E 32 b0 0b 40
        E 0 90 3a 40
        E 16 b0 0b 38
        E 16 b0 0b 30
        E 16 b0 0b 28
        E 32 b0 0b 20
        E 32 80 3a 00
        E 176 b0 0b 40
        E 0 90 37 40
        E 16 b0 0b 38
        E 16 b0 0b 30
        E 16 b0 0b 28
        E 32 b0 0b 20
        E 32 80 37 00
        E 32 b0 0b 40
        E 0 90 34 40
        E 16 b0 0b 38
        E 16 b0 0b 30
        E 16 b0 0b 28
        E 32 b0 0b 20
        E 32 80 34 00
        E 176 b0 0b 40
        E 0 90 34 40
        E 16 b0 0b 38
        E 16 b0 0b 30
        E 16 b0 0b 28
        E 32 b0 0b 20
        E 32 80 34 00
        E 32 b0 0b 40
        E 0 90 30 40
        E 16 b0 0b 38
        E 16 b0 0b 30
        E 16 b0 0b 28
        E 32 b0 0b 20
        E 32 80 30 00
        E 464 b0 0b 40
        E 0 90 38 40
        E 16 b0 0b 38
        E 16 b0 0b 30
        E 16 b0 0b 28
        E 32 b0 0b 20
        E 32 80 38 00
        E 32 b0 0b 40
        E 0 90 38 40
        E 16 b0 0b 38
        E 16 b0 0b 30
        E 16 b0 0b 28
        E 32 b0 0b 20
        E 32 80 38 00
        E 176 b0 0b 40
        E 0 90 38 40
        E 16 b0 0b 38
        E 16 b0 0b 30
        E 16 b0 0b 28
        E 32 b0 0b 20
        E 32 80 38 00
        E 176 b0 0b 40
        E 0 90 38 40
        E 16 b0 0b 38
        E 16 b0 0b 30
        E 16 b0 0b 28
        E 32 b0 0b 20
        E 32 80 38 00
        E 32 b0 0b 40
        E 0 90 3a 40
        E 16 b0 0b 38
        E 16 b0 0b 30
        E 16 b0 0b 28
        E 32 b0 0b 20
        E 32 80 3a 00
        E 32 b0 0b 40
        E 0 90 37 40
        E 16 b0 0b 38
        E 16 b0 0b 30
        E 16 b0 0b 28
        E 32 b0 0b 20
        E 32 80 37 00
        E 1184 b0 0b 40
        E 0 90 38 40
        E 16 b0 0b 38
        E 16 b0 0b 30
        E 16 b0 0b 28
        E 32 b0 0b 20
        E 32 80 38 00
        E 32 b0 0b 40
        E 0 90 38 40
        E 16 b0 0b 38
        E 16 b0 0b 30
        E 16 b0 0b 28
        E 32 b0 0b 20
        E 32 80 38 00
        E 176 b0 0b 40
        E 0 90 38 40
        E 16 b0 0b 38
        E 16 b0 0b 30
        E 16 b0 0b 28
        E 32 b0 0b 20
        E 32 80 38 00
        E 176 b0 0b 40
        E 0 90 38 40
        E 16 b0 0b 38
        E 16 b0 0b 30
        E 16 b0 0b 28
        E 32 b0 0b 20
        E 32 80 38 00
        E 32 b0 0b 40
        E 0 90 3a 40
        E 16 b0 0b 38
        E 16 b0 0b 30
        E 16 b0 0b 28
        E 32 b0 0b 20
        E 32 80 3a 00
        E 176 b0 0b 40
        E 0 90 37 40
        E 16 b0 0b 38
        E 16 b0 0b 30
        E 16 b0 0b 28
        E 32 b0 0b 20
        E 32 80 37 00
        E 32 b0 0b 40
        E 0 90 34 40
        E 16 b0 0b 38
        E 16 b0 0b 30
        E 16 b0 0b 28
        E 32 b0 0b 20
        E 32 80 34 00
        E 176 b0 0b 40
        E 0 90 34 40
        E 16 b0 0b 38
        E 16 b0 0b 30
        E 16 b0 0b 28
        E 32 b0 0b 20
        E 32 80 34 00
        E 32 b0 0b 40
        E 0 90 30 40
        E 16 b0 0b 38
        E 16 b0 0b 30
        E 16 b0 0b 28
        E 32 b0 0b 20
        E 32 80 30 00
        E 464 b0 0b 40
        E 0 90 36 40
        E 16 b0 0b 38
        E 16 b0 0b 30
        E 16 b0 0b 28
        E 32 b0 0b 20
        E 32 80 36 00
        E 32 b0 0b 40
        E 0 90 36 40
        E 16 b0 0b 38
        E 16 b0 0b 30
        E 16 b0 0b 28
        E 32 b0 0b 20
        E 32 80 36 00
        E 176 b0 0b 40
        E 0 90 36 40
        E 16 b0 0b 38
        E 16 b0 0b 30
        E 16 b0 0b 28
        E 32 b0 0b 20
        E 32 80 36 00
        E 176 b0 0b 40
        E 0 90 36 40
        E 16 b0 0b 38
        E 16 b0 0b 30
        E 16 b0 0b 28
        E 32 b0 0b 20
        E 32 80 36 00
        E 32 b0 0b 40
        E 0 90 36 40
        E 16 b0 0b 38
        E 16 b0 0b 30
        E 16 b0 0b 28
        E 32 b0 0b 20
        E 32 80 36 00
        E 176 b0 0b 40
        E 0 90 3b 40
        E 16 b0 0b 38
        E 16 b0 0b 30
        E 16 b0 0b 28
        E 32 b0 0b 20
        E 32 80 3b 00
        E 464 b0 0b 40
        E 0 90 37 40
        E 16 b0 0b 38
        E 16 b0 0b 30
        E 16 b0 0b 28
        E 32 b0 0b 20
        E 32 80 37 00
        E 464 b0 0b 40
        E 0 90 34 40
        E 16 b0 0b 38
        E 16 b0 0b 30
        E 16 b0 0b 28
        E 32 b0 0b 20
        E 32 80 34 00
        E 320 b0 0b 40
        E 0 90 30 40
        E 16 b0 0b 38
        E 16 b0 0b 30
        E 16 b0 0b 28
        E 32 b0 0b 20
        E 32 80 30 00
        E 320 b0 0b 40
        E 0 90 2b 40
        E 16 b0 0b 38
        E 16 b0 0b 30
        E 16 b0 0b 28
        E 32 b0 0b 20
        E 32 80 2b 00
        E 320 b0 0b 40
        E 0 90 30 40
        E 16 b0 0b 38
        E 16 b0 0b 30
        E 16 b0 0b 28
        E 32 b0 0b 20
        E 32 80 30 00
        E 176 b0 0b 40
        E 0 90 32 40
        E 16 b0 0b 38
        E 16 b0 0b 30
        E 16 b0 0b 28
        E 32 b0 0b 20
        E 32 80 32 00
        E 176 b0 0b 40
        E 0 90 31 40
        E 16 b0 0b 38
        E 16 b0 0b 30
        E 16 b0 0b 28
        E 32 b0 0b 20
        E 32 80 31 00
        E 32 b0 0b 40
        E 0 90 30 40
        E 16 b0 0b 38
        E 16 b0 0b 30
        E 16 b0 0b 28
        E 32 b0 0b 20
        E 32 80 30 00
        E 176 b0 0b 40
        E 0 90 30 40
        E 16 b0 0b 38
        E 16 b0 0b 30
        E 16 b0 0b 28
        E 32 b0 0b 20
        E 32 80 30 00
        E 80 b0 0b 40
        E 0 90 37 40
        E 16 b0 0b 38
        E 16 b0 0b 30
        E 16 b0 0b 28
        E 32 b0 0b 20
        E 32 80 37 00
        E 80 b0 0b 40
        E 0 90 3b 40
        E 16 b0 0b 38
        E 16 b0 0b 30
        E 16 b0 0b 28
        E 32 b0 0b 20
        E 32 80 3b 00
        E 80 b0 0b 40
        E 0 90 3c 40
        E 16 b0 0b 38
        E 16 b0 0b 30
        E 16 b0 0b 28
        E 32 b0 0b 20
        E 32 80 3c 00
        E 176 b0 0b 40
        E 0 90 39 40
        E 16 b0 0b 38
        E 16 b0 0b 30
        E 16 b0 0b 28
        E 32 b0 0b 20
        E 32 80 39 00
        E 32 b0 0b 40
        E 0 90 3b 40
        E 16 b0 0b 38
        E 16 b0 0b 30
        E 16 b0 0b 28
        E 32 b0 0b 20
        E 32 80 3b 00
        E 176 b0 0b 40
        E 0 90 39 40
        E 16 b0 0b 38
        E 16 b0 0b 30
        E 16 b0 0b 28
        E 32 b0 0b 20
        E 32 80 39 00
        E 176 b0 0b 40
        E 0 90 34 40
        E 16 b0 0b 38
        E 16 b0 0b 30
        E 16 b0 0b 28
        E 32 b0 0b 20
        E 32 80 34 00
        E 32 b0 0b 40
        E 0 90 35 40
        E 16 b0 0b 38
        E 16 b0 0b 30
        E 16 b0 0b 28
        E 32 b0 0b 20
        E 32 80 35 00
        E 32 b0 0b 40
        E 0 90 32 40
        E 16 b0 0b 38
        E 16 b0 0b 30
        E 16 b0 0b 28
        E 32 b0 0b 20
        E 32 80 32 00
        E 320 b0 0b 40
        E 0 90 34 40
        E 16 b0 0b 38
        E 16 b0 0b 30
        E 16 b0 0b 28
        E 32 b0 0b 20
        E 32 80 34 00
        E 320 b0 0b 40
        E 0 90 30 40
        E 16 b0 0b 38
        E 16 b0 0b 30
        E 16 b0 0b 28
        E 32 b0 0b 20
        E 32 80 30 00
        E 320 b0 0b 40
        E 0 90 2b 40
        E 16 b0 0b 38
        E 16 b0 0b 30
        E 16 b0 0b 28
        E 32 b0 0b 20
        E 32 80 2b 00
        E 320 b0 0b 40
        E 0 90 30 40
        E 16 b0 0b 38
        E 16 b0 0b 30
        E 16 b0 0b 28
        E 32 b0 0b 20
        E 32 80 30 00
        E 176 b0 0b 40
        E 0 90 32 40
        E 16 b0 0b 38
        E 16 b0 0b 30
        E 16 b0 0b 28
        E 32 b0 0b 20
        E 32 80 32 00
        E 176 b0 0b 40
        E 0 90 31 40
        E 16 b0 0b 38
        E 16 b0 0b 30
        E 16 b0 0b 28
        E 32 b0 0b 20
        E 32 80 31 00
        E 32 b0 0b 40
        E 0 90 30 40
        E 16 b0 0b 38
        E 16 b0 0b 30
        E 16 b0 0b 28
        E 32 b0 0b 20
        E 32 80 30 00
        E 176 b0 0b 40
        E 0 90 30 40
        E 16 b0 0b 38
        E 16 b0 0b 30
        E 16 b0 0b 28
        E 32 b0 0b 20
        E 32 80 30 00
        E 80 b0 0b 40
        E 0 90 37 40
        E 16 b0 0b 38
        E 16 b0 0b 30
        E 16 b0 0b 28
        E 32 b0 0b 20
        E 32 80 37 00
        E 80 b0 0b 40
        E 0 90 3b 40
        E 16 b0 0b 38
        E 16 b0 0b 30
        E 16 b0 0b 28
        E 32 b0 0b 20
        E 32 80 3b 00
        E 80 b0 0b 40
        E 0 90 3c 40
        E 16 b0 0b 38
        E 16 b0 0b 30
        E 16 b0 0b 28
        E 32 b0 0b 20
        E 32 80 3c 00
        E 176 b0 0b 40
        E 0 90 39 40
        E 16 b0 0b 38
        E 16 b0 0b 30
        E 16 b0 0b 28
        E 32 b0 0b 20
        E 32 80 39 00
        E 32 b0 0b 40
        E 0 90 3b 40
        E 16 b0 0b 38
        E 16 b0 0b 30
        E 16 b0 0b 28
        E 32 b0 0b 20
        E 32 80 3b 00
        E 176 b0 0b 40
        E 0 90 39 40
        E 16 b0 0b 38
        E 16 b0 0b 30
        E 16 b0 0b 28
        E 32 b0 0b 20
        E 32 80 39 00
        E 176 b0 0b 40
        E 0 90 34 40
        E 16 b0 0b 38
        E 16 b0 0b 30
        E 16 b0 0b 28
        E 32 b0 0b 20
        E 32 80 34 00
        E 32 b0 0b 40
        E 0 90 35 40
        E 16 b0 0b 38
        E 16 b0 0b 30
        E 16 b0 0b 28
        E 32 b0 0b 20
        E 32 80 35 00
        E 32 b0 0b 40
        E 0 90 32 40
        E 16 b0 0b 38
        E 16 b0 0b 30
        E 16 b0 0b 28
        E 32 b0 0b 20
        E 32 80 32 00
        E 320 b0 0b 40
        E 0 90 3c 40
        E 16 b0 0b 38
        E 16 b0 0b 30
        E 16 b0 0b 28
        E 32 b0 0b 20
        E 32 80 3c 00
        E 32 b0 0b 40
        E 0 90 39 40
        E 16 b0 0b 38
        E 16 b0 0b 30
        E 16 b0 0b 28
        E 32 b0 0b 20
        E 32 80 39 00
        E 176 b0 0b 40
        E 0 90 34 40
        E 16 b0 0b 38
        E 16 b0 0b 30
        E 16 b0 0b 28
        E 32 b0 0b 20
        E 32 80 34 00
        E 320 b0 0b 40
        E 0 90 34 40
        E 16 b0 0b 38
        E 16 b0 0b 30
        E 16 b0 0b 28
        E 32 b0 0b 20
        E 32 80 34 00
        E 176 b0 0b 40
        E 0 90 35 40
        E 16 b0 0b 38
        E 16 b0 0b 30
        E 16 b0 0b 28
        E 32 b0 0b 20
        E 32 80 35 00
        E 32 b0 0b 40
        E 0 90 3c 40
        E 16 b0 0b 38
        E 16 b0 0b 30
        E 16 b0 0b 28
        E 32 b0 0b 20
        E 32 80 3c 00
        E 176 b0 0b 40
        E 0 90 3c 40
        E 16 b0 0b 38
        E 16 b0 0b 30
        E 16 b0 0b 28
        E 32 b0 0b 20
        E 32 80 3c 00
        E 32 b0 0b 40
        E 0 90 35 40
        E 16 b0 0b 38
        E 16 b0 0b 30
        E 16 b0 0b 28
        E 32 b0 0b 20
        E 32 80 35 00
        E 464 b0 0b 40
        E 0 90 37 40
        E 16 b0 0b 38
        E 16 b0 0b 30
        E 16 b0 0b 28
        E 32 b0 0b 20
        E 32 80 37 00
        E 80 b0 0b 40
        E 0 90 41 40
        E 16 b0 0b 38
        E 16 b0 0b 30
        E 16 b0 0b 28
        E 32 b0 0b 20
        E 32 80 41 00
        E 80 b0 0b 40
        E 0 90 41 40
        E 16 b0 0b 38
        E 16 b0 0b 30
        E 16 b0 0b 28
        E 32 b0 0b 20
        E 32 80 41 00
        E 80 b0 0b 40
        E 0 90 41 40
        E 16 b0 0b 38
        E 16 b0 0b 30
        E 16 b0 0b 28
        E 32 b0 0b 20
        E 32 80 41 00
        E 80 b0 0b 40
        E 0 90 40 40
        E 16 b0 0b 38
        E 16 b0 0b 30
        E 16 b0 0b 28
        E 32 b0 0b 20
        E 32 80 40 00
        E 80 b0 0b 40
        E 0 90 3e 40
        E 16 b0 0b 38
        E 16 b0 0b 30
        E 16 b0 0b 28
        E 32 b0 0b 20
        E 32 80 3e 00
        E 80 b0 0b 40
        E 0 90 3c 40
        E 16 b0 0b 38
        E 16 b0 0b 30
        E 16 b0 0b 28
        E 32 b0 0b 20
        E 32 80 3c 00
        E 32 b0 0b 40
        E 0 90 39 40
        E 16 b0 0b 38
        E 16 b0 0b 30
        E 16 b0 0b 28
        E 32 b0 0b 20
        E 32 80 39 00
        E 176 b0 0b 40
        E 0 90 35 40
        E 16 b0 0b 38
        E 16 b0 0b 30
        E 16 b0 0b 28
        E 32 b0 0b 20
        E 32 80 35 00
        E 32 b0 0b 40
        E 0 90 34 40
        E 16 b0 0b 38
        E 16 b0 0b 30
        E 16 b0 0b 28
        E 32 b0 0b 20
        E 32 80 34 00
        E 464 b0 0b 40
        E 0 90 3c 40
        E 16 b0 0b 38
        E 16 b0 0b 30
        E 16 b0 0b 28
        E 32 b0 0b 20
        E 32 80 3c 00
        E 32 b0 0b 40
        E 0 90 39 40
        E 16 b0 0b 38
        E 16 b0 0b 30
        E 16 b0 0b 28
        E 32 b0 0b 20
        E 32 80 39 00
        E 176 b0 0b 40
        E 0 90 34 40
        E 16 b0 0b 38
        E 16 b0 0b 30
        E 16 b0 0b 28
        E 32 b0 0b 20
        E 32 80 34 00
        E 320 b0 0b 40
        E 0 90 34 40
        E 16 b0 0b 38
        E 16 b0 0b 30
        E 16 b0 0b 28
        E 32 b0 0b 20
        E 32 80 34 00
        E 176 b0 0b 40
        E 0 90 35 40
        E 16 b0 0b 38
        E 16 b0 0b 30
        E 16 b0 0b 28
        E 32 b0 0b 20
        E 32 80 35 00
        E 32 b0 0b 40
        E 0 90 3c 40
        E 16 b0 0b 38
        E 16 b0 0b 30
        E 16 b0 0b 28
        E 32 b0 0b 20
        E 32 80 3c 00
        E 176 b0 0b 40
        E 0 90 3c 40
        E 16 b0 0b 38
        E 16 b0 0b 30
        E 16 b0 0b 28
        E 32 b0 0b 20
        E 32 80 3c 00
        E 32 b0 0b 40
        E 0 90 35 40
        E 16 b0 0b 38
        E 16 b0 0b 30
        E 16 b0 0b 28
        E 32 b0 0b 20
        E 32 80 35 00
        E 464 b0 0b 40
        E 0 90 37 40
        E 16 b0 0b 38
        E 16 b0 0b 30
        E 16 b0 0b 28
        E 32 b0 0b 20
        E 32 80 37 00
        E 32 b0 0b 40
        E 0 90 3e 40
        E 16 b0 0b 38
        E 16 b0 0b 30
        E 16 b0 0b 28
        E 32 b0 0b 20
        E 32 80 3e 00
        E 176 b0 0b 40
        E 0 90 3e 40
        E 16 b0 0b 38
        E 16 b0 0b 30
        E 16 b0 0b 28
        E 32 b0 0b 20
        E 32 80 3e 00
        E 32 b0 0b 40
        E 0 90 3e 40
        E 16 b0 0b 38
        E 16 b0 0b 30
        E 16 b0 0b 28
        E 32 b0 0b 20
        E 32 80 3e 00
        E 80 b0 0b 40
        E 0 90 3c 40
        E 16 b0 0b 38
        E 16 b0 0b 30
        E 16 b0 0b 28
        E 32 b0 0b 20
        E 32 80 3c 00
        E 80 b0 0b 40
        E 0 90 3b 40
        E 16 b0 0b 38
        E 16 b0 0b 30
        E 16 b0 0b 28
        E 32 b0 0b 20
        E 32 80 3b 00
        E 80 b0 0b 40
        E 0 90 37 40
        E 16 b0 0b 38
        E 16 b0 0b 30
        E 16 b0 0b 28
        E 32 b0 0b 20
        E 32 80 37 00
        E 32 b0 0b 40
        E 0 90 34 40
        E 16 b0 0b 38
        E 16 b0 0b 30
        E 16 b0 0b 28
        E 32 b0 0b 20
        E 32 80 34 00
        E 176 b0 0b 40
        E 0 90 34 40
        E 16 b0 0b 38
        E 16 b0 0b 30
        E 16 b0 0b 28
        E 32 b0 0b 20
        E 32 80 34 00
        E 32 b0 0b 40
        E 0 90 30 40
        E 16 b0 0b 38
        E 16 b0 0b 30
        E 16 b0 0b 28
        E 32 b0 0b 20
        E 32 80 30 00
        E 464 b0 0b 40
        E 0 90 3c 40
        E 16 b0 0b 38
        E 16 b0 0b 30
        E 16 b0 0b 28
        E 32 b0 0b 20
        E 32 80 3c 00
        E 32 b0 0b 40
        E 0 90 39 40
        E 16 b0 0b 38
        E 16 b0 0b 30
        E 16 b0 0b 28
        E 32 b0 0b 20
        E 32 80 39 00
        E 176 b0 0b 40
        E 0 90 34 40
        E 16 b0 0b 38
        E 16 b0 0b 30
        E 16 b0 0b 28
        E 32 b0 0b 20
        E 32 80 34 00
        E 320 b0 0b 40
        E 0 90 34 40
        E 16 b0 0b 38
        E 16 b0 0b 30
        E 16 b0 0b 28
        E 32 b0 0b 20
        E 32 80 34 00
        E 176 b0 0b 40
        E 0 90 35 40
        E 16 b0 0b 38
        E 16 b0 0b 30
        E 16 b0 0b 28
        E 32 b0 0b 20
        E 32 80 35 00
        E 32 b0 0b 40
        E 0 90 3c 40
        E 16 b0 0b 38
        E 16 b0 0b 30
        E 16 b0 0b 28
        E 32 b0 0b 20
        E 32 80 3c 00
        E 176 b0 0b 40
        E 0 90 3c 40
        E 16 b0 0b 38
        E 16 b0 0b 30
        E 16 b0 0b 28
        E 32 b0 0b 20
        E 32 80 3c 00
        E 32 b0 0b 40
        E 0 90 35 40
        E 16 b0 0b 38
        E 16 b0 0b 30
        E 16 b0 0b 28
        E 32 b0 0b 20
        E 32 80 35 00
        E 464 b0 0b 40
        E 0 90 37 40
        E 16 b0 0b 38
        E 16 b0 0b 30
        E 16 b0 0b 28
        E 32 b0 0b 20
        E 32 80 37 00
        E 80 b0 0b 40
        E 0 90 41 40
        E 16 b0 0b 38
        E 16 b0 0b 30
        E 16 b0 0b 28
        E 32 b0 0b 20
        E 32 80 41 00
        E 80 b0 0b 40
        E 0 90 41 40
        E 16 b0 0b 38
        E 16 b0 0b 30
        E 16 b0 0b 28
        E 32 b0 0b 20
        E 32 80 41 00
        E 80 b0 0b 40
        E 0 90 41 40
        E 16 b0 0b 38
        E 16 b0 0b 30
        E 16 b0 0b 28
        E 32 b0 0b 20
        E 32 80 41 00
        E 80 b0 0b 40
        E 0 90 40 40
        E 16 b0 0b 38
        E 16 b0 0b 30
        E 16 b0 0b 28
        E 32 b0 0b 20
        E 32 80 40 00
        E 80 b0 0b 40
        E 0 90 3e 40
        E 16 b0 0b 38
        E 16 b0 0b 30
        E 16 b0 0b 28
        E 32 b0 0b 20
        E 32 80 3e 00
        E 80 b0 0b 40
        E 0 90 3c 40
        E 16 b0 0b 38
        E 16 b0 0b 30
        E 16 b0 0b 28
        E 32 b0 0b 20
        E 32 80 3c 00
        E 32 b0 0b 40
        E 0 90 39 40
        E 16 b0 0b 38
        E 16 b0 0b 30
        E 16 b0 0b 28
        E 32 b0 0b 20
        E 32 80 39 00
        E 176 b0 0b 40
        E 0 90 35 40
        E 16 b0 0b 38
        E 16 b0 0b 30
        E 16 b0 0b 28
        E 32 b0 0b 20
        E 32 80 35 00
        E 32 b0 0b 40
        E 0 90 34 40
        E 16 b0 0b 38
        E 16 b0 0b 30
        E 16 b0 0b 28
        E 32 b0 0b 20
        E 32 80 34 00
        E 464 b0 0b 40
        E 0 90 3c 40
        E 16 b0 0b 38
        E 16 b0 0b 30
        E 16 b0 0b 28
        E 32 b0 0b 20
        E 32 80 3c 00
        E 32 b0 0b 40
        E 0 90 39 40
        E 16 b0 0b 38
        E 16 b0 0b 30
        E 16 b0 0b 28
        E 32 b0 0b 20
        E 32 80 39 00
        E 176 b0 0b 40
        E 0 90 34 40
        E 16 b0 0b 38
        E 16 b0 0b 30
        E 16 b0 0b 28
        E 32 b0 0b 20
        E 32 80 34 00
        E 320 b0 0b 40
        E 0 90 34 40
        E 16 b0 0b 38
        E 16 b0 0b 30
        E 16 b0 0b 28
        E 32 b0 0b 20
        E 32 80 34 00
        E 176 b0 0b 40
        E 0 90 35 40
        E 16 b0 0b 38
        E 16 b0 0b 30
        E 16 b0 0b 28
        E 32 b0 0b 20
        E 32 80 35 00
        E 32 b0 0b 40
        E 0 90 3c 40
        E 16 b0 0b 38
        E 16 b0 0b 30
        E 16 b0 0b 28
        E 32 b0 0b 20
        E 32 80 3c 00
        E 176 b0 0b 40
        E 0 90 3c 40
        E 16 b0 0b 38
        E 16 b0 0b 30
        E 16 b0 0b 28
        E 32 b0 0b 20
        E 32 80 3c 00
        E 32 b0 0b 40
        E 0 90 35 40
        E 16 b0 0b 38
        E 16 b0 0b 30
        E 16 b0 0b 28
        E 32 b0 0b 20
        E 32 80 35 00
        E 464 b0 0b 40
        E 0 90 37 40
        E 16 b0 0b 38
        E 16 b0 0b 30
        E 16 b0 0b 28
        E 32 b0 0b 20
        E 32 80 37 00
        E 32 b0 0b 40
        E 0 90 3e 40
        E 16 b0 0b 38
        E 16 b0 0b 30
        E 16 b0 0b 28
        E 32 b0 0b 20
        E 32 80 3e 00
        E 176 b0 0b 40
        E 0 90 3e 40
        E 16 b0 0b 38
        E 16 b0 0b 30
        E 16 b0 0b 28
        E 32 b0 0b 20
        E 32 80 3e 00
        E 32 b0 0b 40
        E 0 90 3e 40
        E 16 b0 0b 38
        E 16 b0 0b 30
        E 16 b0 0b 28
        E 32 b0 0b 20
        E 32 80 3e 00
        E 80 b0 0b 40
        E 0 90 3c 40
        E 16 b0 0b 38
        E 16 b0 0b 30
        E 16 b0 0b 28
        E 32 b0 0b 20
        E 32 80 3c 00
        E 80 b0 0b 40
        E 0 90 3b 40
        E 16 b0 0b 38
        E 16 b0 0b 30
        E 16 b0 0b 28
        E 32 b0 0b 20
        E 32 80 3b 00
        E 80 b0 0b 40
        E 0 90 37 40
        E 16 b0 0b 38
        E 16 b0 0b 30
        E 16 b0 0b 28
        E 32 b0 0b 20
        E 32 80 37 00
        E 32 b0 0b 40
        E 0 90 34 40
        E 16 b0 0b 38
        E 16 b0 0b 30
        E 16 b0 0b 28
        E 32 b0 0b 20
        E 32 80 34 00
        E 176 b0 0b 40
        E 0 90 34 40
        E 16 b0 0b 38
        E 16 b0 0b 30
        E 16 b0 0b 28
        E 32 b0 0b 20
        E 32 80 34 00
        E 32 b0 0b 40
        E 0 90 30 40
        E 16 b0 0b 38
        E 16 b0 0b 30
        E 16 b0 0b 28
        E 32 b0 0b 20
        E 32 80 30 00
        E 464 b0 0b 40
        E 0 90 38 40
        E 16 b0 0b 38
        E 16 b0 0b 30
        E 16 b0 0b 28
        E 32 b0 0b 20
        E 32 80 38 00
        E 32 b0 0b 40
        E 0 90 38 40
        E 16 b0 0b 38
        E 16 b0 0b 30
        E 16 b0 0b 28
        E 32 b0 0b 20
        E 32 80 38 00
        E 176 b0 0b 40
        E 0 90 38 40
        E 16 b0 0b 38
        E 16 b0 0b 30
        E 16 b0 0b 28
        E 32 b0 0b 20
        E 32 80 38 00
        E 176 b0 0b 40
        E 0 90 38 40
        E 16 b0 0b 38
        E 16 b0 0b 30
        E 16 b0 0b 28
        E 32 b0 0b 20
        E 32 80 38 00
        E 32 b0 0b 40
        E 0 90 3a 40
        E 16 b0 0b 38
        E 16 b0 0b 30
        E 16 b0 0b 28
        E 32 b0 0b 20
        E 32 80 3a 00
        E 176 b0 0b 40
        E 0 90 37 40
        E 16 b0 0b 38
        E 16 b0 0b 30
        E 16 b0 0b 28
        E 32 b0 0b 20
        E 32 80 37 00
        E 32 b0 0b 40
        E 0 90 34 40
        E 16 b0 0b 38
        E 16 b0 0b 30
        E 16 b0 0b 28
        E 32 b0 0b 20
        E 32 80 34 00
        E 176 b0 0b 40
        E 0 90 34 40
        E 16 b0 0b 38
        E 16 b0 0b 30
        E 16 b0 0b 28
        E 32 b0 0b 20
        E 32 80 34 00
        E 32 b0 0b 40
        E 0 90 30 40
        E 16 b0 0b 38
        E 16 b0 0b 30
        E 16 b0 0b 28
        E 32 b0 0b 20
        E 32 80 30 00
        E 464 b0 0b 40
        E 0 90 38 40
        E 16 b0 0b 38
        E 16 b0 0b 30
        E 16 b0 0b 28
        E 32 b0 0b 20
        E 32 80 38 00
        E 32 b0 0b 40
        E 0 90 38 40
        E 16 b0 0b 38
        E 16 b0 0b 30
        E 16 b0 0b 28
        E 32 b0 0b 20
        E 32 80 38 00
        E 176 b0 0b 40
        E 0 90 38 40
        E 16 b0 0b 38
        E 16 b0 0b 30
        E 16 b0 0b 28
        E 32 b0 0b 20
        E 32 80 38 00
        E 176 b0 0b 40
        E 0 90 38 40
        E 16 b0 0b 38
        E 16 b0 0b 30
        E 16 b0 0b 28
        E 32 b0 0b 20
        E 32 80 38 00
        E 32 b0 0b 40
        E 0 90 3a 40
        E 16 b0 0b 38
        E 16 b0 0b 30
        E 16 b0 0b 28
        E 32 b0 0b 20
        E 32 80 3a 00
        E 32 b0 0b 40
        E 0 90 37 40
        E 16 b0 0b 38
        E 16 b0 0b 30
        E 16 b0 0b 28
        E 32 b0 0b 20
        E 32 80 37 00
        E 1184 b0 0b 40
        E 0 90 38 40
        E 16 b0 0b 38
        E 16 b0 0b 30
        E 16 b0 0b 28
        E 32 b0 0b 20
        E 32 80 38 00
        E 32 b0 0b 40
        E 0 90 38 40
        E 16 b0 0b 38
        E 16 b0 0b 30
        E 16 b0 0b 28
        E 32 b0 0b 20
        E 32 80 38 00
        E 176 b0 0b 40
        E 0 90 38 40
        E 16 b0 0b 38
        E 16 b0 0b 30
        E 16 b0 0b 28
        E 32 b0 0b 20
        E 32 80 38 00
        E 176 b0 0b 40
        E 0 90 38 40
        E 16 b0 0b 38
        E 16 b0 0b 30
        E 16 b0 0b 28
        E 32 b0 0b 20
        E 32 80 38 00
        E 32 b0 0b 40
        E 0 90 3a 40
        E 16 b0 0b 38
        E 16 b0 0b 30
        E 16 b0 0b 28
        E 32 b0 0b 20
        E 32 80 3a 00
        E 176 b0 0b 40
        E 0 90 37 40
        E 16 b0 0b 38
        E 16 b0 0b 30
        E 16 b0 0b 28
        E 32 b0 0b 20
        E 32 80 37 00
        E 32 b0 0b 40
        E 0 90 34 40
        E 16 b0 0b 38
        E 16 b0 0b 30
        E 16 b0 0b 28
        E 32 b0 0b 20
        E 32 80 34 00
        E 176 b0 0b 40
        E 0 90 34 40
        E 16 b0 0b 38
        E 16 b0 0b 30
        E 16 b0 0b 28
        E 32 b0 0b 20
        E 32 80 34 00
        E 32 b0 0b 40
        E 0 90 30 40
        E 16 b0 0b 38
        E 16 b0 0b 30
        E 16 b0 0b 28
        E 32 b0 0b 20
        E 32 80 30 00
        E 464 b0 0b 40
        E 0 90 36 40
        E 16 b0 0b 38
        E 16 b0 0b 30
        E 16 b0 0b 28
        E 32 b0 0b 20
        E 32 80 36 00
        E 32 b0 0b 40
        E 0 90 36 40
        E 16 b0 0b 38
        E 16 b0 0b 30
        E 16 b0 0b 28
        E 32 b0 0b 20
        E 32 80 36 00
        E 176 b0 0b 40
        E 0 90 36 40
        E 16 b0 0b 38
        E 16 b0 0b 30
        E 16 b0 0b 28
        E 32 b0 0b 20
        E 32 80 36 00
        E 176 b0 0b 40
        E 0 90 36 40
        E 16 b0 0b 38
        E 16 b0 0b 30
        E 16 b0 0b 28
        E 32 b0 0b 20
        E 32 80 36 00
        E 32 b0 0b 40
        E 0 90 36 40
        E 16 b0 0b 38
        E 16 b0 0b 30
        E 16 b0 0b 28
        E 32 b0 0b 20
        E 32 80 36 00
        E 176 b0 0b 40
        E 0 90 3b 40
        E 16 b0 0b 38
        E 16 b0 0b 30
        E 16 b0 0b 28
        E 32 b0 0b 20
        E 32 80 3b 00
        E 464 b0 0b 40
        E 0 90 37 40
        E 16 b0 0b 38
        E 16 b0 0b 30
        E 16 b0 0b 28
        E 32 b0 0b 20
        E 32 80 37 00
        E 464 b0 0b 40
        E 0 90 3c 40
        E 16 b0 0b 38
        E 16 b0 0b 30
        E 16 b0 0b 28
        E 32 b0 0b 20
        E 32 80 3c 00
        E 32 b0 0b 40
        E 0 90 39 40
        E 16 b0 0b 38
        E 16 b0 0b 30
        E 16 b0 0b 28
        E 32 b0 0b 20
        E 32 80 39 00
        E 176 b0 0b 40
        E 0 90 34 40
        E 16 b0 0b 38
        E 16 b0 0b 30
        E 16 b0 0b 28
        E 32 b0 0b 20
        E 32 80 34 00
        E 320 b0 0b 40
        E 0 90 34 40
        E 16 b0 0b 38
        E 16 b0 0b 30
        E 16 b0 0b 28
        E 32 b0 0b 20
        E 32 80 34 00
        E 176 b0 0b 40
        E 0 90 35 40
        E 16 b0 0b 38
        E 16 b0 0b 30
        E 16 b0 0b 28
        E 32 b0 0b 20
        E 32 80 35 00
        E 32 b0 0b 40
        E 0 90 3c 40
        E 16 b0 0b 38
        E 16 b0 0b 30
        E 16 b0 0b 28
        E 32 b0 0b 20
        E 32 80 3c 00
        E 176 b0 0b 40
        E 0 90 3c 40
        E 16 b0 0b 38
        E 16 b0 0b 30
        E 16 b0 0b 28
        E 32 b0 0b 20
        E 32 80 3c 00
        E 32 b0 0b 40
        E 0 90 35 40
        E 16 b0 0b 38
        E 16 b0 0b 30
        E 16 b0 0b 28
        E 32 b0 0b 20
        E 32 80 35 00
        E 464 b0 0b 40
        E 0 90 37 40
        E 16 b0 0b 38
        E 16 b0 0b 30
        E 16 b0 0b 28
        E 32 b0 0b 20
        E 32 80 37 00
        E 80 b0 0b 40
        E 0 90 41 40
        E 16 b0 0b 38
        E 16 b0 0b 30
        E 16 b0 0b 28
        E 32 b0 0b 20
        E 32 80 41 00
        E 80 b0 0b 40
        E 0 90 41 40
        E 16 b0 0b 38
        E 16 b0 0b 30
        E 16 b0 0b 28
        E 32 b0 0b 20
        E 32 80 41 00
        E 80 b0 0b 40
        E 0 90 41 40
        E 16 b0 0b 38
        E 16 b0 0b 30
        E 16 b0 0b 28
        E 32 b0 0b 20
        E 32 80 41 00
        E 80 b0 0b 40
        E 0 90 40 40
        E 16 b0 0b 38
        E 16 b0 0b 30
        E 16 b0 0b 28
        E 32 b0 0b 20
        E 32 80 40 00
        E 80 b0 0b 40
        E 0 90 3e 40
        E 16 b0 0b 38
        E 16 b0 0b 30
        E 16 b0 0b 28
        E 32 b0 0b 20
        E 32 80 3e 00
        E 80 b0 0b 40
        E 0 90 3c 40
        E 16 b0 0b 38
        E 16 b0 0b 30
        E 16 b0 0b 28
        E 32 b0 0b 20
        E 32 80 3c 00
        E 32 b0 0b 40
        E 0 90 39 40
        E 16 b0 0b 38
        E 16 b0 0b 30
        E 16 b0 0b 28
        E 32 b0 0b 20
        E 32 80 39 00
        E 176 b0 0b 40
        E 0 90 35 40
        E 16 b0 0b 38
        E 16 b0 0b 30
        E 16 b0 0b 28
        E 32 b0 0b 20
        E 32 80 35 00
        E 32 b0 0b 40
        E 0 90 34 40
        E 16 b0 0b 38
        E 16 b0 0b 30
        E 16 b0 0b 28
        E 32 b0 0b 20
        E 32 80 34 00
        E 464 b0 0b 40
        E 0 90 3c 40
        E 16 b0 0b 38
        E 16 b0 0b 30
        E 16 b0 0b 28
        E 32 b0 0b 20
        E 32 80 3c 00
        E 32 b0 0b 40
        E 0 90 39 40
        E 16 b0 0b 38
        E 16 b0 0b 30
        E 16 b0 0b 28
        E 32 b0 0b 20
        E 32 80 39 00
        E 176 b0 0b 40
        E 0 90 34 40
        E 16 b0 0b 38
        E 16 b0 0b 30
        E 16 b0 0b 28
        E 32 b0 0b 20
        E 32 80 34 00
        E 320 b0 0b 40
        E 0 90 34 40
        E 16 b0 0b 38
        E 16 b0 0b 30
        E 16 b0 0b 28
        E 32 b0 0b 20
        E 32 80 34 00
        E 176 b0 0b 40
        E 0 90 35 40
        E 16 b0 0b 38
        E 16 b0 0b 30
        E 16 b0 0b 28
        E 32 b0 0b 20
        E 32 80 35 00
        E 32 b0 0b 40
        E 0 90 3c 40
        E 16 b0 0b 38
        E 16 b0 0b 30
        E 16 b0 0b 28
        E 32 b0 0b 20
        E 32 80 3c 00
        E 176 b0 0b 40
        E 0 90 3c 40
        E 16 b0 0b 38
        E 16 b0 0b 30
        E 16 b0 0b 28
        E 32 b0 0b 20
        E 32 80 3c 00
        E 32 b0 0b 40
        E 0 90 35 40
        E 16 b0 0b 38
        E 16 b0 0b 30
        E 16 b0 0b 28
        E 32 b0 0b 20
        E 32 80 35 00
        E 464 b0 0b 40
        E 0 90 37 40
        E 16 b0 0b 38
        E 16 b0 0b 30
        E 16 b0 0b 28
        E 32 b0 0b 20
        E 32 80 37 00
        E 32 b0 0b 40
        E 0 90 3e 40
        E 16 b0 0b 38
        E 16 b0 0b 30
        E 16 b0 0b 28
        E 32 b0 0b 20
        E 32 80 3e 00
        E 176 b0 0b 40
        E 0 90 3e 40
        E 16 b0 0b 38
        E 16 b0 0b 30
        E 16 b0 0b 28
        E 32 b0 0b 20
        E 32 80 3e 00
        E 32 b0 0b 40
        E 0 90 3e 40
        E 16 b0 0b 38
        E 16 b0 0b 30
        E 16 b0 0b 28
        E 32 b0 0b 20
        E 32 80 3e 00
        E 80 b0 0b 40
        E 0 90 3c 40
        E 16 b0 0b 38
        E 16 b0 0b 30
        E 16 b0 0b 28
        E 32 b0 0b 20
        E 32 80 3c 00
        E 80 b0 0b 40
        E 0 90 3b 40
        E 16 b0 0b 38
        E 16 b0 0b 30
        E 16 b0 0b 28
        E 32 b0 0b 20
        E 32 80 3b 00
        E 80 b0 0b 40
        E 0 90 37 40
        E 16 b0 0b 38
        E 16 b0 0b 30
        E 16 b0 0b 28
        E 32 b0 0b 20
        E 32 80 37 00
        E 32 b0 0b 40
        E 0 90 34 40
        E 16 b0 0b 38
        E 16 b0 0b 30
        E 16 b0 0b 28
        E 32 b0 0b 20
        E 32 80 34 00
        E 176 b0 0b 40
        E 0 90 34 40
        E 16 b0 0b 38
        E 16 b0 0b 30
        E 16 b0 0b 28
        E 32 b0 0b 20
        E 32 80 34 00
        E 32 b0 0b 40
        E 0 90 30 40
        E 16 b0 0b 38
        E 16 b0 0b 30
        E 16 b0 0b 28
        E 32 b0 0b 20
        E 32 80 30 00
        E 464 b0 0b 40
        E 0 90 34 40
        E 16 b0 0b 38
        E 16 b0 0b 30
        E 16 b0 0b 28
        E 32 b0 0b 20
        E 32 80 34 00
        E 320 b0 0b 40
        E 0 90 30 40
        E 16 b0 0b 38
        E 16 b0 0b 30
        E 16 b0 0b 28
        E 32 b0 0b 20
        E 32 80 30 00
        E 320 b0 0b 40
        E 0 90 2b 40
        E 16 b0 0b 38
        E 16 b0 0b 30
        E 16 b0 0b 28
        E 32 b0 0b 20
        E 32 80 2b 00
        E 0 ff 2f 00
      >
    >
  >
  <TRACK {9590A770-CCB4-4690-8757-1BBBA29C4BC0}
    NAME "NES - Pulse 2 [ch1]"
    PEAKCOL 10092441
    BEAT -1
    AUTOMODE 0
    PANLAWFLAGS 3
    VOLPAN 1 0 -1 -1 1
    MUTESOLO 0 0 0
    IPHASE 0
    PLAYOFFS 0 1
    ISBUS 0 0
    BUSCOMP 0 0 0 0 0
    SHOWINMIX 1 0.6667 0.5 1 0.5 0 0 0
    FIXEDLANES 9 0 0 0 0
    SEL 0
    REC 0 5088 1 0 0 0 0 0
    VU 2
    TRACKHEIGHT 0 0 0 0 0 0 0
    INQ 0 0 0 0.5 100 0 0 100
    NCHAN 2
    FX 1
    TRACKID {9590A770-CCB4-4690-8757-1BBBA29C4BC0}
    PERF 0
    MIDIOUT -1
    MAINSEND 1 0
    <FXCHAIN
      WNDRECT 24 52 700 560
      SHOW 0
      LASTSEL 0
      DOCKED 0
      BYPASS 0 0 0
      <JS "ReapNES Studio/ReapNES_Console.jsfx" ""
        2 15 1 10 80 10 100 2 1 15 1 5 60 10 80 1 1 0 50 0 0 15 1 0 100 0 0 0.500000 0.500000 0.400000 0.300000 0.800000 1 1 0 0 0 0 - - - - - - - - - - - - - - - - - - - - - - - - - -
      >
      FLOATPOS 0 0 0 0
      FXID {775BACF2-4244-4F00-BC4A-1F88AEA3C6FE}
      WAK 0 0
    >
    <ITEM
      POSITION 0
      LENGTH 83.98134
      LOOP 0
      ALLTAKES 0
      FADEIN 0 0 0 0 0 0 0
      FADEOUT 0 0 0 0 0 0 0
      MUTE 0 0
      SEL 0
      IGUID {54D59CCA-2180-4210-A844-C90C7E447FE3}
      <SOURCE MIDI
        HASDATA 1 480 QN
        CCINTERP 32
        E 0 c1 51
        E 16 b1 0c 40
        E 0 b1 0b 40
        E 0 91 40 40
        E 16 b1 0b 38
        E 16 b1 0b 30
        E 16 b1 0b 28
        E 32 b1 0b 20
        E 32 81 40 00
        E 32 b1 0b 40
        E 0 91 40 40
        E 16 b1 0b 38
        E 16 b1 0b 30
        E 16 b1 0b 28
        E 32 b1 0b 20
        E 32 81 40 00
        E 176 b1 0b 40
        E 0 91 40 40
        E 16 b1 0b 38
        E 16 b1 0b 30
        E 16 b1 0b 28
        E 32 b1 0b 20
        E 32 81 40 00
        E 176 b1 0b 40
        E 0 91 3c 40
        E 16 b1 0b 38
        E 16 b1 0b 30
        E 16 b1 0b 28
        E 32 b1 0b 20
        E 32 81 3c 00
        E 32 b1 0b 40
        E 0 91 40 40
        E 16 b1 0b 38
        E 16 b1 0b 30
        E 16 b1 0b 28
        E 32 b1 0b 20
        E 32 81 40 00
        E 176 b1 0b 40
        E 0 91 43 40
        E 16 b1 0b 38
        E 16 b1 0b 30
        E 16 b1 0b 28
        E 32 b1 0b 20
        E 32 81 43 00
        E 1040 b1 0b 40
        E 0 91 3c 40
        E 16 b1 0b 38
        E 16 b1 0b 30
        E 16 b1 0b 28
        E 32 b1 0b 20
        E 32 81 3c 00
        E 320 b1 0b 40
        E 0 91 37 40
        E 16 b1 0b 38
        E 16 b1 0b 30
        E 16 b1 0b 28
        E 32 b1 0b 20
        E 32 81 37 00
        E 320 b1 0b 40
        E 0 91 34 40
        E 16 b1 0b 38
        E 16 b1 0b 30
        E 16 b1 0b 28
        E 32 b1 0b 20
        E 32 81 34 00
        E 320 b1 0b 40
        E 0 91 39 40
        E 16 b1 0b 38
        E 16 b1 0b 30
        E 16 b1 0b 28
        E 32 b1 0b 20
        E 32 81 39 00
        E 176 b1 0b 40
        E 0 91 3b 40
        E 16 b1 0b 38
        E 16 b1 0b 30
        E 16 b1 0b 28
        E 32 b1 0b 20
        E 32 81 3b 00
        E 176 b1 0b 40
        E 0 91 3a 40
        E 16 b1 0b 38
        E 16 b1 0b 30
        E 16 b1 0b 28
        E 32 b1 0b 20
        E 32 81 3a 00
        E 32 b1 0b 40
        E 0 91 39 40
        E 16 b1 0b 38
        E 16 b1 0b 30
        E 16 b1 0b 28
        E 32 b1 0b 20
        E 32 81 39 00
        E 176 b1 0b 40
        E 0 91 37 40
        E 16 b1 0b 38
        E 16 b1 0b 30
        E 16 b1 0b 28
        E 32 b1 0b 20
        E 32 81 37 00
        E 80 b1 0b 40
        E 0 91 40 40
        E 16 b1 0b 38
        E 16 b1 0b 30
        E 16 b1 0b 28
        E 32 b1 0b 20
        E 32 81 40 00
        E 80 b1 0b 40
        E 0 91 43 40
        E 16 b1 0b 38
        E 16 b1 0b 30
        E 16 b1 0b 28
        E 32 b1 0b 20
        E 32 81 43 00
        E 80 b1 0b 40
        E 0 91 45 40
        E 16 b1 0b 38
        E 16 b1 0b 30
        E 16 b1 0b 28
        E 32 b1 0b 20
        E 32 81 45 00
        E 176 b1 0b 40
        E 0 91 41 40
        E 16 b1 0b 38
        E 16 b1 0b 30
        E 16 b1 0b 28
        E 32 b1 0b 20
        E 32 81 41 00
        E 32 b1 0b 40
        E 0 91 43 40
        E 16 b1 0b 38
        E 16 b1 0b 30
        E 16 b1 0b 28
        E 32 b1 0b 20
        E 32 81 43 00
        E 176 b1 0b 40
        E 0 91 40 40
        E 16 b1 0b 38
        E 16 b1 0b 30
        E 16 b1 0b 28
        E 32 b1 0b 20
        E 32 81 40 00
        E 176 b1 0b 40
        E 0 91 3c 40
        E 16 b1 0b 38
        E 16 b1 0b 30
        E 16 b1 0b 28
        E 32 b1 0b 20
        E 32 81 3c 00
        E 32 b1 0b 40
        E 0 91 3e 40
        E 16 b1 0b 38
        E 16 b1 0b 30
        E 16 b1 0b 28
        E 32 b1 0b 20
        E 32 81 3e 00
        E 32 b1 0b 40
        E 0 91 3b 40
        E 16 b1 0b 38
        E 16 b1 0b 30
        E 16 b1 0b 28
        E 32 b1 0b 20
        E 32 81 3b 00
        E 320 b1 0b 40
        E 0 91 3c 40
        E 16 b1 0b 38
        E 16 b1 0b 30
        E 16 b1 0b 28
        E 32 b1 0b 20
        E 32 81 3c 00
        E 320 b1 0b 40
        E 0 91 37 40
        E 16 b1 0b 38
        E 16 b1 0b 30
        E 16 b1 0b 28
        E 32 b1 0b 20
        E 32 81 37 00
        E 320 b1 0b 40
        E 0 91 34 40
        E 16 b1 0b 38
        E 16 b1 0b 30
        E 16 b1 0b 28
        E 32 b1 0b 20
        E 32 81 34 00
        E 320 b1 0b 40
        E 0 91 39 40
        E 16 b1 0b 38
        E 16 b1 0b 30
        E 16 b1 0b 28
        E 32 b1 0b 20
        E 32 81 39 00
        E 176 b1 0b 40
        E 0 91 3b 40
        E 16 b1 0b 38
        E 16 b1 0b 30
        E 16 b1 0b 28
        E 32 b1 0b 20
        E 32 81 3b 00
        E 176 b1 0b 40
        E 0 91 3a 40
        E 16 b1 0b 38
        E 16 b1 0b 30
        E 16 b1 0b 28
        E 32 b1 0b 20
        E 32 81 3a 00
        E 32 b1 0b 40
        E 0 91 39 40
        E 16 b1 0b 38
        E 16 b1 0b 30
        E 16 b1 0b 28
        E 32 b1 0b 20
        E 32 81 39 00
        E 176 b1 0b 40
        E 0 91 37 40
        E 16 b1 0b 38
        E 16 b1 0b 30
        E 16 b1 0b 28
        E 32 b1 0b 20
        E 32 81 37 00
        E 80 b1 0b 40
        E 0 91 40 40
        E 16 b1 0b 38
        E 16 b1 0b 30
        E 16 b1 0b 28
        E 32 b1 0b 20
        E 32 81 40 00
        E 80 b1 0b 40
        E 0 91 43 40
        E 16 b1 0b 38
        E 16 b1 0b 30
        E 16 b1 0b 28
        E 32 b1 0b 20
        E 32 81 43 00
        E 80 b1 0b 40
        E 0 91 45 40
        E 16 b1 0b 38
        E 16 b1 0b 30
        E 16 b1 0b 28
        E 32 b1 0b 20
        E 32 81 45 00
        E 176 b1 0b 40
        E 0 91 41 40
        E 16 b1 0b 38
        E 16 b1 0b 30
        E 16 b1 0b 28
        E 32 b1 0b 20
        E 32 81 41 00
        E 32 b1 0b 40
        E 0 91 43 40
        E 16 b1 0b 38
        E 16 b1 0b 30
        E 16 b1 0b 28
        E 32 b1 0b 20
        E 32 81 43 00
        E 176 b1 0b 40
        E 0 91 40 40
        E 16 b1 0b 38
        E 16 b1 0b 30
        E 16 b1 0b 28
        E 32 b1 0b 20
        E 32 81 40 00
        E 176 b1 0b 40
        E 0 91 3c 40
        E 16 b1 0b 38
        E 16 b1 0b 30
        E 16 b1 0b 28
        E 32 b1 0b 20
        E 32 81 3c 00
        E 32 b1 0b 40
        E 0 91 3e 40
        E 16 b1 0b 38
        E 16 b1 0b 30
        E 16 b1 0b 28
        E 32 b1 0b 20
        E 32 81 3e 00
        E 32 b1 0b 40
        E 0 91 3b 40
        E 16 b1 0b 38
        E 16 b1 0b 30
        E 16 b1 0b 28
        E 32 b1 0b 20
        E 32 81 3b 00
        E 608 b1 0b 40
        E 0 91 43 40
        E 16 b1 0b 38
        E 16 b1 0b 30
        E 16 b1 0b 28
        E 32 b1 0b 20
        E 32 81 43 00
        E 32 b1 0b 40
        E 0 91 42 40
        E 16 b1 0b 38
        E 16 b1 0b 30
        E 16 b1 0b 28
        E 32 b1 0b 20
        E 32 81 42 00
        E 32 b1 0b 40
        E 0 91 41 40
        E 16 b1 0b 38
        E 16 b1 0b 30
        E 16 b1 0b 28
        E 32 b1 0b 20
        E 32 81 41 00
        E 32 b1 0b 40
        E 0 91 3f 40
        E 16 b1 0b 38
        E 16 b1 0b 30
        E 16 b1 0b 28
        E 32 b1 0b 20
        E 32 81 3f 00
        E 176 b1 0b 40
        E 0 91 40 40
        E 16 b1 0b 38
        E 16 b1 0b 30
        E 16 b1 0b 28
        E 32 b1 0b 20
        E 32 81 40 00
        E 176 b1 0b 40
        E 0 91 38 40
        E 16 b1 0b 38
        E 16 b1 0b 30
        E 16 b1 0b 28
        E 32 b1 0b 20
        E 32 81 38 00
        E 32 b1 0b 40
        E 0 91 39 40
        E 16 b1 0b 38
        E 16 b1 0b 30
        E 16 b1 0b 28
        E 32 b1 0b 20
        E 32 81 39 00
        E 32 b1 0b 40
        E 0 91 3c 40
        E 16 b1 0b 38
        E 16 b1 0b 30
        E 16 b1 0b 28
        E 32 b1 0b 20
        E 32 81 3c 00
        E 176 b1 0b 40
        E 0 91 39 40
        E 16 b1 0b 38
        E 16 b1 0b 30
        E 16 b1 0b 28
        E 32 b1 0b 20
        E 32 81 39 00
        E 32 b1 0b 40
        E 0 91 3c 40
        E 16 b1 0b 38
        E 16 b1 0b 30
        E 16 b1 0b 28
        E 32 b1 0b 20
        E 32 81 3c 00
        E 32 b1 0b 40
        E 0 91 3e 40
        E 16 b1 0b 38
        E 16 b1 0b 30
        E 16 b1 0b 28
        E 32 b1 0b 20
        E 32 81 3e 00
        E 320 b1 0b 40
        E 0 91 43 40
        E 16 b1 0b 38
        E 16 b1 0b 30
        E 16 b1 0b 28
        E 32 b1 0b 20
        E 32 81 43 00
        E 32 b1 0b 40
        E 0 91 42 40
        E 16 b1 0b 38
        E 16 b1 0b 30
        E 16 b1 0b 28
        E 32 b1 0b 20
        E 32 81 42 00
        E 32 b1 0b 40
        E 0 91 41 40
        E 16 b1 0b 38
        E 16 b1 0b 30
        E 16 b1 0b 28
        E 32 b1 0b 20
        E 32 81 41 00
        E 32 b1 0b 40
        E 0 91 3f 40
        E 16 b1 0b 38
        E 16 b1 0b 30
        E 16 b1 0b 28
        E 32 b1 0b 20
        E 32 81 3f 00
        E 176 b1 0b 40
        E 0 91 40 40
        E 16 b1 0b 38
        E 16 b1 0b 30
        E 16 b1 0b 28
        E 32 b1 0b 20
        E 32 81 40 00
        E 176 b1 0b 40
        E 0 91 48 40
        E 16 b1 0b 38
        E 16 b1 0b 30
        E 16 b1 0b 28
        E 32 b1 0b 20
        E 32 81 48 00
        E 176 b1 0b 40
        E 0 91 48 40
        E 16 b1 0b 38
        E 16 b1 0b 30
        E 16 b1 0b 28
        E 32 b1 0b 20
        E 32 81 48 00
        E 32 b1 0b 40
        E 0 91 48 40
        E 16 b1 0b 38
        E 16 b1 0b 30
        E 16 b1 0b 28
        E 32 b1 0b 20
        E 32 81 48 00
        E 752 b1 0b 40
        E 0 91 43 40
        E 16 b1 0b 38
        E 16 b1 0b 30
        E 16 b1 0b 28
        E 32 b1 0b 20
        E 32 81 43 00
        E 32 b1 0b 40
        E 0 91 42 40
        E 16 b1 0b 38
        E 16 b1 0b 30
        E 16 b1 0b 28
        E 32 b1 0b 20
        E 32 81 42 00
        E 32 b1 0b 40
        E 0 91 41 40
        E 16 b1 0b 38
        E 16 b1 0b 30
        E 16 b1 0b 28
        E 32 b1 0b 20
        E 32 81 41 00
        E 32 b1 0b 40
        E 0 91 3f 40
        E 16 b1 0b 38
        E 16 b1 0b 30
        E 16 b1 0b 28
        E 32 b1 0b 20
        E 32 81 3f 00
        E 176 b1 0b 40
        E 0 91 40 40
        E 16 b1 0b 38
        E 16 b1 0b 30
        E 16 b1 0b 28
        E 32 b1 0b 20
        E 32 81 40 00
        E 176 b1 0b 40
        E 0 91 38 40
        E 16 b1 0b 38
        E 16 b1 0b 30
        E 16 b1 0b 28
        E 32 b1 0b 20
        E 32 81 38 00
        E 32 b1 0b 40
        E 0 91 39 40
        E 16 b1 0b 38
        E 16 b1 0b 30
        E 16 b1 0b 28
        E 32 b1 0b 20
        E 32 81 39 00
        E 32 b1 0b 40
        E 0 91 3c 40
        E 16 b1 0b 38
        E 16 b1 0b 30
        E 16 b1 0b 28
        E 32 b1 0b 20
        E 32 81 3c 00
        E 176 b1 0b 40
        E 0 91 39 40
        E 16 b1 0b 38
        E 16 b1 0b 30
        E 16 b1 0b 28
        E 32 b1 0b 20
        E 32 81 39 00
        E 32 b1 0b 40
        E 0 91 3c 40
        E 16 b1 0b 38
        E 16 b1 0b 30
        E 16 b1 0b 28
        E 32 b1 0b 20
        E 32 81 3c 00
        E 32 b1 0b 40
        E 0 91 3e 40
        E 16 b1 0b 38
        E 16 b1 0b 30
        E 16 b1 0b 28
        E 32 b1 0b 20
        E 32 81 3e 00
        E 320 b1 0b 40
        E 0 91 3f 40
        E 16 b1 0b 38
        E 16 b1 0b 30
        E 16 b1 0b 28
        E 32 b1 0b 20
        E 32 81 3f 00
        E 320 b1 0b 40
        E 0 91 3e 40
        E 16 b1 0b 38
        E 16 b1 0b 30
        E 16 b1 0b 28
        E 32 b1 0b 20
        E 32 81 3e 00
        E 320 b1 0b 40
        E 0 91 3c 40
        E 16 b1 0b 38
        E 16 b1 0b 30
        E 16 b1 0b 28
        E 32 b1 0b 20
        E 32 81 3c 00
        E 1328 b1 0b 40
        E 0 91 43 40
        E 16 b1 0b 38
        E 16 b1 0b 30
        E 16 b1 0b 28
        E 32 b1 0b 20
        E 32 81 43 00
        E 32 b1 0b 40
        E 0 91 42 40
        E 16 b1 0b 38
        E 16 b1 0b 30
        E 16 b1 0b 28
        E 32 b1 0b 20
        E 32 81 42 00
        E 32 b1 0b 40
        E 0 91 41 40
        E 16 b1 0b 38
        E 16 b1 0b 30
        E 16 b1 0b 28
        E 32 b1 0b 20
        E 32 81 41 00
        E 32 b1 0b 40
        E 0 91 3f 40
        E 16 b1 0b 38
        E 16 b1 0b 30
        E 16 b1 0b 28
        E 32 b1 0b 20
        E 32 81 3f 00
        E 176 b1 0b 40
        E 0 91 40 40
        E 16 b1 0b 38
        E 16 b1 0b 30
        E 16 b1 0b 28
        E 32 b1 0b 20
        E 32 81 40 00
        E 176 b1 0b 40
        E 0 91 38 40
        E 16 b1 0b 38
        E 16 b1 0b 30
        E 16 b1 0b 28
        E 32 b1 0b 20
        E 32 81 38 00
        E 32 b1 0b 40
        E 0 91 39 40
        E 16 b1 0b 38
        E 16 b1 0b 30
        E 16 b1 0b 28
        E 32 b1 0b 20
        E 32 81 39 00
        E 32 b1 0b 40
        E 0 91 3c 40
        E 16 b1 0b 38
        E 16 b1 0b 30
        E 16 b1 0b 28
        E 32 b1 0b 20
        E 32 81 3c 00
        E 176 b1 0b 40
        E 0 91 39 40
        E 16 b1 0b 38
        E 16 b1 0b 30
        E 16 b1 0b 28
        E 32 b1 0b 20
        E 32 81 39 00
        E 32 b1 0b 40
        E 0 91 3c 40
        E 16 b1 0b 38
        E 16 b1 0b 30
        E 16 b1 0b 28
        E 32 b1 0b 20
        E 32 81 3c 00
        E 32 b1 0b 40
        E 0 91 3e 40
        E 16 b1 0b 38
        E 16 b1 0b 30
        E 16 b1 0b 28
        E 32 b1 0b 20
        E 32 81 3e 00
        E 320 b1 0b 40
        E 0 91 43 40
        E 16 b1 0b 38
        E 16 b1 0b 30
        E 16 b1 0b 28
        E 32 b1 0b 20
        E 32 81 43 00
        E 32 b1 0b 40
        E 0 91 42 40
        E 16 b1 0b 38
        E 16 b1 0b 30
        E 16 b1 0b 28
        E 32 b1 0b 20
        E 32 81 42 00
        E 32 b1 0b 40
        E 0 91 41 40
        E 16 b1 0b 38
        E 16 b1 0b 30
        E 16 b1 0b 28
        E 32 b1 0b 20
        E 32 81 41 00
        E 32 b1 0b 40
        E 0 91 3f 40
        E 16 b1 0b 38
        E 16 b1 0b 30
        E 16 b1 0b 28
        E 32 b1 0b 20
        E 32 81 3f 00
        E 176 b1 0b 40
        E 0 91 40 40
        E 16 b1 0b 38
        E 16 b1 0b 30
        E 16 b1 0b 28
        E 32 b1 0b 20
        E 32 81 40 00
        E 176 b1 0b 40
        E 0 91 48 40
        E 16 b1 0b 38
        E 16 b1 0b 30
        E 16 b1 0b 28
        E 32 b1 0b 20
        E 32 81 48 00
        E 176 b1 0b 40
        E 0 91 48 40
        E 16 b1 0b 38
        E 16 b1 0b 30
        E 16 b1 0b 28
        E 32 b1 0b 20
        E 32 81 48 00
        E 32 b1 0b 40
        E 0 91 48 40
        E 16 b1 0b 38
        E 16 b1 0b 30
        E 16 b1 0b 28
        E 32 b1 0b 20
        E 32 81 48 00
        E 752 b1 0b 40
        E 0 91 43 40
        E 16 b1 0b 38
        E 16 b1 0b 30
        E 16 b1 0b 28
        E 32 b1 0b 20
        E 32 81 43 00
        E 32 b1 0b 40
        E 0 91 42 40
        E 16 b1 0b 38
        E 16 b1 0b 30
        E 16 b1 0b 28
        E 32 b1 0b 20
        E 32 81 42 00
        E 32 b1 0b 40
        E 0 91 41 40
        E 16 b1 0b 38
        E 16 b1 0b 30
        E 16 b1 0b 28
        E 32 b1 0b 20
        E 32 81 41 00
        E 32 b1 0b 40
        E 0 91 3f 40
        E 16 b1 0b 38
        E 16 b1 0b 30
        E 16 b1 0b 28
        E 32 b1 0b 20
        E 32 81 3f 00
        E 176 b1 0b 40
        E 0 91 40 40
        E 16 b1 0b 38
        E 16 b1 0b 30
        E 16 b1 0b 28
        E 32 b1 0b 20
        E 32 81 40 00
        E 176 b1 0b 40
        E 0 91 38 40
        E 16 b1 0b 38
        E 16 b1 0b 30
        E 16 b1 0b 28
        E 32 b1 0b 20
        E 32 81 38 00
        E 32 b1 0b 40
        E 0 91 39 40
        E 16 b1 0b 38
        E 16 b1 0b 30
        E 16 b1 0b 28
        E 32 b1 0b 20
        E 32 81 39 00
        E 32 b1 0b 40
        E 0 91 3c 40
        E 16 b1 0b 38
        E 16 b1 0b 30
        E 16 b1 0b 28
        E 32 b1 0b 20
        E 32 81 3c 00
        E 176 b1 0b 40
        E 0 91 39 40
        E 16 b1 0b 38
        E 16 b1 0b 30
        E 16 b1 0b 28
        E 32 b1 0b 20
        E 32 81 39 00
        E 32 b1 0b 40
        E 0 91 3c 40
        E 16 b1 0b 38
        E 16 b1 0b 30
        E 16 b1 0b 28
        E 32 b1 0b 20
        E 32 81 3c 00
        E 32 b1 0b 40
        E 0 91 3e 40
        E 16 b1 0b 38
        E 16 b1 0b 30
        E 16 b1 0b 28
        E 32 b1 0b 20
        E 32 81 3e 00
        E 320 b1 0b 40
        E 0 91 3f 40
        E 16 b1 0b 38
        E 16 b1 0b 30
        E 16 b1 0b 28
        E 32 b1 0b 20
        E 32 81 3f 00
        E 320 b1 0b 40
        E 0 91 3e 40
        E 16 b1 0b 38
        E 16 b1 0b 30
        E 16 b1 0b 28
        E 32 b1 0b 20
        E 32 81 3e 00
        E 320 b1 0b 40
        E 0 91 3c 40
        E 16 b1 0b 38
        E 16 b1 0b 30
        E 16 b1 0b 28
        E 32 b1 0b 20
        E 32 81 3c 00
        E 1040 b1 0b 40
        E 0 91 3c 40
        E 16 b1 0b 38
        E 16 b1 0b 30
        E 16 b1 0b 28
        E 32 b1 0b 20
        E 32 81 3c 00
        E 32 b1 0b 40
        E 0 91 3c 40
        E 16 b1 0b 38
        E 16 b1 0b 30
        E 16 b1 0b 28
        E 32 b1 0b 20
        E 32 81 3c 00
        E 176 b1 0b 40
        E 0 91 3c 40
        E 16 b1 0b 38
        E 16 b1 0b 30
        E 16 b1 0b 28
        E 32 b1 0b 20
        E 32 81 3c 00
        E 176 b1 0b 40
        E 0 91 3c 40
        E 16 b1 0b 38
        E 16 b1 0b 30
        E 16 b1 0b 28
        E 32 b1 0b 20
        E 32 81 3c 00
        E 32 b1 0b 40
        E 0 91 3e 40
        E 16 b1 0b 38
        E 16 b1 0b 30
        E 16 b1 0b 28
        E 32 b1 0b 20
        E 32 81 3e 00
        E 176 b1 0b 40
        E 0 91 40 40
        E 16 b1 0b 38
        E 16 b1 0b 30
        E 16 b1 0b 28
        E 32 b1 0b 20
        E 32 81 40 00
        E 32 b1 0b 40
        E 0 91 3c 40
        E 16 b1 0b 38
        E 16 b1 0b 30
        E 16 b1 0b 28
        E 32 b1 0b 20
        E 32 81 3c 00
        E 176 b1 0b 40
        E 0 91 39 40
        E 16 b1 0b 38
        E 16 b1 0b 30
        E 16 b1 0b 28
        E 32 b1 0b 20
        E 32 81 39 00
        E 32 b1 0b 40
        E 0 91 37 40
        E 16 b1 0b 38
        E 16 b1 0b 30
        E 16 b1 0b 28
        E 32 b1 0b 20
        E 32 81 37 00
        E 464 b1 0b 40
        E 0 91 3c 40
        E 16 b1 0b 38
        E 16 b1 0b 30
        E 16 b1 0b 28
        E 32 b1 0b 20
        E 32 81 3c 00
        E 32 b1 0b 40
        E 0 91 3c 40
        E 16 b1 0b 38
        E 16 b1 0b 30
        E 16 b1 0b 28
        E 32 b1 0b 20
        E 32 81 3c 00
        E 176 b1 0b 40
        E 0 91 3c 40
        E 16 b1 0b 38
        E 16 b1 0b 30
        E 16 b1 0b 28
        E 32 b1 0b 20
        E 32 81 3c 00
        E 176 b1 0b 40
        E 0 91 3c 40
        E 16 b1 0b 38
        E 16 b1 0b 30
        E 16 b1 0b 28
        E 32 b1 0b 20
        E 32 81 3c 00
        E 32 b1 0b 40
        E 0 91 3e 40
        E 16 b1 0b 38
        E 16 b1 0b 30
        E 16 b1 0b 28
        E 32 b1 0b 20
        E 32 81 3e 00
        E 32 b1 0b 40
        E 0 91 40 40
        E 16 b1 0b 38
        E 16 b1 0b 30
        E 16 b1 0b 28
        E 32 b1 0b 20
        E 32 81 40 00
        E 1184 b1 0b 40
        E 0 91 3c 40
        E 16 b1 0b 38
        E 16 b1 0b 30
        E 16 b1 0b 28
        E 32 b1 0b 20
        E 32 81 3c 00
        E 32 b1 0b 40
        E 0 91 3c 40
        E 16 b1 0b 38
        E 16 b1 0b 30
        E 16 b1 0b 28
        E 32 b1 0b 20
        E 32 81 3c 00
        E 176 b1 0b 40
        E 0 91 3c 40
        E 16 b1 0b 38
        E 16 b1 0b 30
        E 16 b1 0b 28
        E 32 b1 0b 20
        E 32 81 3c 00
        E 176 b1 0b 40
        E 0 91 3c 40
        E 16 b1 0b 38
        E 16 b1 0b 30
        E 16 b1 0b 28
        E 32 b1 0b 20
        E 32 81 3c 00
        E 32 b1 0b 40
        E 0 91 3e 40
        E 16 b1 0b 38
        E 16 b1 0b 30
        E 16 b1 0b 28
        E 32 b1 0b 20
        E 32 81 3e 00
        E 176 b1 0b 40
        E 0 91 40 40
        E 16 b1 0b 38
        E 16 b1 0b 30
        E 16 b1 0b 28
        E 32 b1 0b 20
        E 32 81 40 00
        E 32 b1 0b 40
        E 0 91 3c 40
        E 16 b1 0b 38
        E 16 b1 0b 30
        E 16 b1 0b 28
        E 32 b1 0b 20
        E 32 81 3c 00
        E 176 b1 0b 40
        E 0 91 39 40
        E 16 b1 0b 38
        E 16 b1 0b 30
        E 16 b1 0b 28
        E 32 b1 0b 20
        E 32 81 39 00
        E 32 b1 0b 40
        E 0 91 37 40
        E 16 b1 0b 38
        E 16 b1 0b 30
        E 16 b1 0b 28
        E 32 b1 0b 20
        E 32 81 37 00
        E 464 b1 0b 40
        E 0 91 40 40
        E 16 b1 0b 38
        E 16 b1 0b 30
        E 16 b1 0b 28
        E 32 b1 0b 20
        E 32 81 40 00
        E 32 b1 0b 40
        E 0 91 40 40
        E 16 b1 0b 38
        E 16 b1 0b 30
        E 16 b1 0b 28
        E 32 b1 0b 20
        E 32 81 40 00
        E 176 b1 0b 40
        E 0 91 40 40
        E 16 b1 0b 38
        E 16 b1 0b 30
        E 16 b1 0b 28
        E 32 b1 0b 20
        E 32 81 40 00
        E 176 b1 0b 40
        E 0 91 3c 40
        E 16 b1 0b 38
        E 16 b1 0b 30
        E 16 b1 0b 28
        E 32 b1 0b 20
        E 32 81 3c 00
        E 32 b1 0b 40
        E 0 91 40 40
        E 16 b1 0b 38
        E 16 b1 0b 30
        E 16 b1 0b 28
        E 32 b1 0b 20
        E 32 81 40 00
        E 176 b1 0b 40
        E 0 91 43 40
        E 16 b1 0b 38
        E 16 b1 0b 30
        E 16 b1 0b 28
        E 32 b1 0b 20
        E 32 81 43 00
        E 1040 b1 0b 40
        E 0 91 3c 40
        E 16 b1 0b 38
        E 16 b1 0b 30
        E 16 b1 0b 28
        E 32 b1 0b 20
        E 32 81 3c 00
        E 320 b1 0b 40
        E 0 91 37 40
        E 16 b1 0b 38
        E 16 b1 0b 30
        E 16 b1 0b 28
        E 32 b1 0b 20
        E 32 81 37 00
        E 320 b1 0b 40
        E 0 91 34 40
        E 16 b1 0b 38
        E 16 b1 0b 30
        E 16 b1 0b 28
        E 32 b1 0b 20
        E 32 81 34 00
        E 320 b1 0b 40
        E 0 91 39 40
        E 16 b1 0b 38
        E 16 b1 0b 30
        E 16 b1 0b 28
        E 32 b1 0b 20
        E 32 81 39 00
        E 176 b1 0b 40
        E 0 91 3b 40
        E 16 b1 0b 38
        E 16 b1 0b 30
        E 16 b1 0b 28
        E 32 b1 0b 20
        E 32 81 3b 00
        E 176 b1 0b 40
        E 0 91 3a 40
        E 16 b1 0b 38
        E 16 b1 0b 30
        E 16 b1 0b 28
        E 32 b1 0b 20
        E 32 81 3a 00
        E 32 b1 0b 40
        E 0 91 39 40
        E 16 b1 0b 38
        E 16 b1 0b 30
        E 16 b1 0b 28
        E 32 b1 0b 20
        E 32 81 39 00
        E 176 b1 0b 40
        E 0 91 37 40
        E 16 b1 0b 38
        E 16 b1 0b 30
        E 16 b1 0b 28
        E 32 b1 0b 20
        E 32 81 37 00
        E 80 b1 0b 40
        E 0 91 40 40
        E 16 b1 0b 38
        E 16 b1 0b 30
        E 16 b1 0b 28
        E 32 b1 0b 20
        E 32 81 40 00
        E 80 b1 0b 40
        E 0 91 43 40
        E 16 b1 0b 38
        E 16 b1 0b 30
        E 16 b1 0b 28
        E 32 b1 0b 20
        E 32 81 43 00
        E 80 b1 0b 40
        E 0 91 45 40
        E 16 b1 0b 38
        E 16 b1 0b 30
        E 16 b1 0b 28
        E 32 b1 0b 20
        E 32 81 45 00
        E 176 b1 0b 40
        E 0 91 41 40
        E 16 b1 0b 38
        E 16 b1 0b 30
        E 16 b1 0b 28
        E 32 b1 0b 20
        E 32 81 41 00
        E 32 b1 0b 40
        E 0 91 43 40
        E 16 b1 0b 38
        E 16 b1 0b 30
        E 16 b1 0b 28
        E 32 b1 0b 20
        E 32 81 43 00
        E 176 b1 0b 40
        E 0 91 40 40
        E 16 b1 0b 38
        E 16 b1 0b 30
        E 16 b1 0b 28
        E 32 b1 0b 20
        E 32 81 40 00
        E 176 b1 0b 40
        E 0 91 3c 40
        E 16 b1 0b 38
        E 16 b1 0b 30
        E 16 b1 0b 28
        E 32 b1 0b 20
        E 32 81 3c 00
        E 32 b1 0b 40
        E 0 91 3e 40
        E 16 b1 0b 38
        E 16 b1 0b 30
        E 16 b1 0b 28
        E 32 b1 0b 20
        E 32 81 3e 00
        E 32 b1 0b 40
        E 0 91 3b 40
        E 16 b1 0b 38
        E 16 b1 0b 30
        E 16 b1 0b 28
        E 32 b1 0b 20
        E 32 81 3b 00
        E 320 b1 0b 40
        E 0 91 3c 40
        E 16 b1 0b 38
        E 16 b1 0b 30
        E 16 b1 0b 28
        E 32 b1 0b 20
        E 32 81 3c 00
        E 320 b1 0b 40
        E 0 91 37 40
        E 16 b1 0b 38
        E 16 b1 0b 30
        E 16 b1 0b 28
        E 32 b1 0b 20
        E 32 81 37 00
        E 320 b1 0b 40
        E 0 91 34 40
        E 16 b1 0b 38
        E 16 b1 0b 30
        E 16 b1 0b 28
        E 32 b1 0b 20
        E 32 81 34 00
        E 320 b1 0b 40
        E 0 91 39 40
        E 16 b1 0b 38
        E 16 b1 0b 30
        E 16 b1 0b 28
        E 32 b1 0b 20
        E 32 81 39 00
        E 176 b1 0b 40
        E 0 91 3b 40
        E 16 b1 0b 38
        E 16 b1 0b 30
        E 16 b1 0b 28
        E 32 b1 0b 20
        E 32 81 3b 00
        E 176 b1 0b 40
        E 0 91 3a 40
        E 16 b1 0b 38
        E 16 b1 0b 30
        E 16 b1 0b 28
        E 32 b1 0b 20
        E 32 81 3a 00
        E 32 b1 0b 40
        E 0 91 39 40
        E 16 b1 0b 38
        E 16 b1 0b 30
        E 16 b1 0b 28
        E 32 b1 0b 20
        E 32 81 39 00
        E 176 b1 0b 40
        E 0 91 37 40
        E 16 b1 0b 38
        E 16 b1 0b 30
        E 16 b1 0b 28
        E 32 b1 0b 20
        E 32 81 37 00
        E 80 b1 0b 40
        E 0 91 40 40
        E 16 b1 0b 38
        E 16 b1 0b 30
        E 16 b1 0b 28
        E 32 b1 0b 20
        E 32 81 40 00
        E 80 b1 0b 40
        E 0 91 43 40
        E 16 b1 0b 38
        E 16 b1 0b 30
        E 16 b1 0b 28
        E 32 b1 0b 20
        E 32 81 43 00
        E 80 b1 0b 40
        E 0 91 45 40
        E 16 b1 0b 38
        E 16 b1 0b 30
        E 16 b1 0b 28
        E 32 b1 0b 20
        E 32 81 45 00
        E 176 b1 0b 40
        E 0 91 41 40
        E 16 b1 0b 38
        E 16 b1 0b 30
        E 16 b1 0b 28
        E 32 b1 0b 20
        E 32 81 41 00
        E 32 b1 0b 40
        E 0 91 43 40
        E 16 b1 0b 38
        E 16 b1 0b 30
        E 16 b1 0b 28
        E 32 b1 0b 20
        E 32 81 43 00
        E 176 b1 0b 40
        E 0 91 40 40
        E 16 b1 0b 38
        E 16 b1 0b 30
        E 16 b1 0b 28
        E 32 b1 0b 20
        E 32 81 40 00
        E 176 b1 0b 40
        E 0 91 3c 40
        E 16 b1 0b 38
        E 16 b1 0b 30
        E 16 b1 0b 28
        E 32 b1 0b 20
        E 32 81 3c 00
        E 32 b1 0b 40
        E 0 91 3e 40
        E 16 b1 0b 38
        E 16 b1 0b 30
        E 16 b1 0b 28
        E 32 b1 0b 20
        E 32 81 3e 00
        E 32 b1 0b 40
        E 0 91 3b 40
        E 16 b1 0b 38
        E 16 b1 0b 30
        E 16 b1 0b 28
        E 32 b1 0b 20
        E 32 81 3b 00
        E 320 b1 0b 40
        E 0 91 40 40
        E 16 b1 0b 38
        E 16 b1 0b 30
        E 16 b1 0b 28
        E 32 b1 0b 20
        E 32 81 40 00
        E 32 b1 0b 40
        E 0 91 3c 40
        E 16 b1 0b 38
        E 16 b1 0b 30
        E 16 b1 0b 28
        E 32 b1 0b 20
        E 32 81 3c 00
        E 176 b1 0b 40
        E 0 91 37 40
        E 16 b1 0b 38
        E 16 b1 0b 30
        E 16 b1 0b 28
        E 32 b1 0b 20
        E 32 81 37 00
        E 320 b1 0b 40
        E 0 91 38 40
        E 16 b1 0b 38
        E 16 b1 0b 30
        E 16 b1 0b 28
        E 32 b1 0b 20
        E 32 81 38 00
        E 176 b1 0b 40
        E 0 91 39 40
        E 16 b1 0b 38
        E 16 b1 0b 30
        E 16 b1 0b 28
        E 32 b1 0b 20
        E 32 81 39 00
        E 32 b1 0b 40
        E 0 91 41 40
        E 16 b1 0b 38
        E 16 b1 0b 30
        E 16 b1 0b 28
        E 32 b1 0b 20
        E 32 81 41 00
        E 176 b1 0b 40
        E 0 91 41 40
        E 16 b1 0b 38
        E 16 b1 0b 30
        E 16 b1 0b 28
        E 32 b1 0b 20
        E 32 81 41 00
        E 32 b1 0b 40
        E 0 91 39 40
        E 16 b1 0b 38
        E 16 b1 0b 30
        E 16 b1 0b 28
        E 32 b1 0b 20
        E 32 81 39 00
        E 464 b1 0b 40
        E 0 91 3b 40
        E 16 b1 0b 38
        E 16 b1 0b 30
        E 16 b1 0b 28
        E 32 b1 0b 20
        E 32 81 3b 00
        E 80 b1 0b 40
        E 0 91 45 40
        E 16 b1 0b 38
        E 16 b1 0b 30
        E 16 b1 0b 28
        E 32 b1 0b 20
        E 32 81 45 00
        E 80 b1 0b 40
        E 0 91 45 40
        E 16 b1 0b 38
        E 16 b1 0b 30
        E 16 b1 0b 28
        E 32 b1 0b 20
        E 32 81 45 00
        E 80 b1 0b 40
        E 0 91 45 40
        E 16 b1 0b 38
        E 16 b1 0b 30
        E 16 b1 0b 28
        E 32 b1 0b 20
        E 32 81 45 00
        E 80 b1 0b 40
        E 0 91 43 40
        E 16 b1 0b 38
        E 16 b1 0b 30
        E 16 b1 0b 28
        E 32 b1 0b 20
        E 32 81 43 00
        E 80 b1 0b 40
        E 0 91 41 40
        E 16 b1 0b 38
        E 16 b1 0b 30
        E 16 b1 0b 28
        E 32 b1 0b 20
        E 32 81 41 00
        E 80 b1 0b 40
        E 0 91 40 40
        E 16 b1 0b 38
        E 16 b1 0b 30
        E 16 b1 0b 28
        E 32 b1 0b 20
        E 32 81 40 00
        E 32 b1 0b 40
        E 0 91 3c 40
        E 16 b1 0b 38
        E 16 b1 0b 30
        E 16 b1 0b 28
        E 32 b1 0b 20
        E 32 81 3c 00
        E 176 b1 0b 40
        E 0 91 39 40
        E 16 b1 0b 38
        E 16 b1 0b 30
        E 16 b1 0b 28
        E 32 b1 0b 20
        E 32 81 39 00
        E 32 b1 0b 40
        E 0 91 37 40
        E 16 b1 0b 38
        E 16 b1 0b 30
        E 16 b1 0b 28
        E 32 b1 0b 20
        E 32 81 37 00
        E 464 b1 0b 40
        E 0 91 40 40
        E 16 b1 0b 38
        E 16 b1 0b 30
        E 16 b1 0b 28
        E 32 b1 0b 20
        E 32 81 40 00
        E 32 b1 0b 40
        E 0 91 3c 40
        E 16 b1 0b 38
        E 16 b1 0b 30
        E 16 b1 0b 28
        E 32 b1 0b 20
        E 32 81 3c 00
        E 176 b1 0b 40
        E 0 91 37 40
        E 16 b1 0b 38
        E 16 b1 0b 30
        E 16 b1 0b 28
        E 32 b1 0b 20
        E 32 81 37 00
        E 320 b1 0b 40
        E 0 91 38 40
        E 16 b1 0b 38
        E 16 b1 0b 30
        E 16 b1 0b 28
        E 32 b1 0b 20
        E 32 81 38 00
        E 176 b1 0b 40
        E 0 91 39 40
        E 16 b1 0b 38
        E 16 b1 0b 30
        E 16 b1 0b 28
        E 32 b1 0b 20
        E 32 81 39 00
        E 32 b1 0b 40
        E 0 91 41 40
        E 16 b1 0b 38
        E 16 b1 0b 30
        E 16 b1 0b 28
        E 32 b1 0b 20
        E 32 81 41 00
        E 176 b1 0b 40
        E 0 91 41 40
        E 16 b1 0b 38
        E 16 b1 0b 30
        E 16 b1 0b 28
        E 32 b1 0b 20
        E 32 81 41 00
        E 32 b1 0b 40
        E 0 91 39 40
        E 16 b1 0b 38
        E 16 b1 0b 30
        E 16 b1 0b 28
        E 32 b1 0b 20
        E 32 81 39 00
        E 464 b1 0b 40
        E 0 91 3b 40
        E 16 b1 0b 38
        E 16 b1 0b 30
        E 16 b1 0b 28
        E 32 b1 0b 20
        E 32 81 3b 00
        E 32 b1 0b 40
        E 0 91 41 40
        E 16 b1 0b 38
        E 16 b1 0b 30
        E 16 b1 0b 28
        E 32 b1 0b 20
        E 32 81 41 00
        E 176 b1 0b 40
        E 0 91 41 40
        E 16 b1 0b 38
        E 16 b1 0b 30
        E 16 b1 0b 28
        E 32 b1 0b 20
        E 32 81 41 00
        E 32 b1 0b 40
        E 0 91 41 40
        E 16 b1 0b 38
        E 16 b1 0b 30
        E 16 b1 0b 28
        E 32 b1 0b 20
        E 32 81 41 00
        E 80 b1 0b 40
        E 0 91 40 40
        E 16 b1 0b 38
        E 16 b1 0b 30
        E 16 b1 0b 28
        E 32 b1 0b 20
        E 32 81 40 00
        E 80 b1 0b 40
        E 0 91 3e 40
        E 16 b1 0b 38
        E 16 b1 0b 30
        E 16 b1 0b 28
        E 32 b1 0b 20
        E 32 81 3e 00
        E 80 b1 0b 40
        E 0 91 3c 40
        E 16 b1 0b 38
        E 16 b1 0b 30
        E 16 b1 0b 28
        E 32 b1 0b 20
        E 32 81 3c 00
        E 1040 b1 0b 40
        E 0 91 40 40
        E 16 b1 0b 38
        E 16 b1 0b 30
        E 16 b1 0b 28
        E 32 b1 0b 20
        E 32 81 40 00
        E 32 b1 0b 40
        E 0 91 3c 40
        E 16 b1 0b 38
        E 16 b1 0b 30
        E 16 b1 0b 28
        E 32 b1 0b 20
        E 32 81 3c 00
        E 176 b1 0b 40
        E 0 91 37 40
        E 16 b1 0b 38
        E 16 b1 0b 30
        E 16 b1 0b 28
        E 32 b1 0b 20
        E 32 81 37 00
        E 320 b1 0b 40
        E 0 91 38 40
        E 16 b1 0b 38
        E 16 b1 0b 30
        E 16 b1 0b 28
        E 32 b1 0b 20
        E 32 81 38 00
        E 176 b1 0b 40
        E 0 91 39 40
        E 16 b1 0b 38
        E 16 b1 0b 30
        E 16 b1 0b 28
        E 32 b1 0b 20
        E 32 81 39 00
        E 32 b1 0b 40
        E 0 91 41 40
        E 16 b1 0b 38
        E 16 b1 0b 30
        E 16 b1 0b 28
        E 32 b1 0b 20
        E 32 81 41 00
        E 176 b1 0b 40
        E 0 91 41 40
        E 16 b1 0b 38
        E 16 b1 0b 30
        E 16 b1 0b 28
        E 32 b1 0b 20
        E 32 81 41 00
        E 32 b1 0b 40
        E 0 91 39 40
        E 16 b1 0b 38
        E 16 b1 0b 30
        E 16 b1 0b 28
        E 32 b1 0b 20
        E 32 81 39 00
        E 464 b1 0b 40
        E 0 91 3b 40
        E 16 b1 0b 38
        E 16 b1 0b 30
        E 16 b1 0b 28
        E 32 b1 0b 20
        E 32 81 3b 00
        E 80 b1 0b 40
        E 0 91 45 40
        E 16 b1 0b 38
        E 16 b1 0b 30
        E 16 b1 0b 28
        E 32 b1 0b 20
        E 32 81 45 00
        E 80 b1 0b 40
        E 0 91 45 40
        E 16 b1 0b 38
        E 16 b1 0b 30
        E 16 b1 0b 28
        E 32 b1 0b 20
        E 32 81 45 00
        E 80 b1 0b 40
        E 0 91 45 40
        E 16 b1 0b 38
        E 16 b1 0b 30
        E 16 b1 0b 28
        E 32 b1 0b 20
        E 32 81 45 00
        E 80 b1 0b 40
        E 0 91 43 40
        E 16 b1 0b 38
        E 16 b1 0b 30
        E 16 b1 0b 28
        E 32 b1 0b 20
        E 32 81 43 00
        E 80 b1 0b 40
        E 0 91 41 40
        E 16 b1 0b 38
        E 16 b1 0b 30
        E 16 b1 0b 28
        E 32 b1 0b 20
        E 32 81 41 00
        E 80 b1 0b 40
        E 0 91 40 40
        E 16 b1 0b 38
        E 16 b1 0b 30
        E 16 b1 0b 28
        E 32 b1 0b 20
        E 32 81 40 00
        E 32 b1 0b 40
        E 0 91 3c 40
        E 16 b1 0b 38
        E 16 b1 0b 30
        E 16 b1 0b 28
        E 32 b1 0b 20
        E 32 81 3c 00
        E 176 b1 0b 40
        E 0 91 39 40
        E 16 b1 0b 38
        E 16 b1 0b 30
        E 16 b1 0b 28
        E 32 b1 0b 20
        E 32 81 39 00
        E 32 b1 0b 40
        E 0 91 37 40
        E 16 b1 0b 38
        E 16 b1 0b 30
        E 16 b1 0b 28
        E 32 b1 0b 20
        E 32 81 37 00
        E 464 b1 0b 40
        E 0 91 40 40
        E 16 b1 0b 38
        E 16 b1 0b 30
        E 16 b1 0b 28
        E 32 b1 0b 20
        E 32 81 40 00
        E 32 b1 0b 40
        E 0 91 3c 40
        E 16 b1 0b 38
        E 16 b1 0b 30
        E 16 b1 0b 28
        E 32 b1 0b 20
        E 32 81 3c 00
        E 176 b1 0b 40
        E 0 91 37 40
        E 16 b1 0b 38
        E 16 b1 0b 30
        E 16 b1 0b 28
        E 32 b1 0b 20
        E 32 81 37 00
        E 320 b1 0b 40
        E 0 91 38 40
        E 16 b1 0b 38
        E 16 b1 0b 30
        E 16 b1 0b 28
        E 32 b1 0b 20
        E 32 81 38 00
        E 176 b1 0b 40
        E 0 91 39 40
        E 16 b1 0b 38
        E 16 b1 0b 30
        E 16 b1 0b 28
        E 32 b1 0b 20
        E 32 81 39 00
        E 32 b1 0b 40
        E 0 91 41 40
        E 16 b1 0b 38
        E 16 b1 0b 30
        E 16 b1 0b 28
        E 32 b1 0b 20
        E 32 81 41 00
        E 176 b1 0b 40
        E 0 91 41 40
        E 16 b1 0b 38
        E 16 b1 0b 30
        E 16 b1 0b 28
        E 32 b1 0b 20
        E 32 81 41 00
        E 32 b1 0b 40
        E 0 91 39 40
        E 16 b1 0b 38
        E 16 b1 0b 30
        E 16 b1 0b 28
        E 32 b1 0b 20
        E 32 81 39 00
        E 464 b1 0b 40
        E 0 91 3b 40
        E 16 b1 0b 38
        E 16 b1 0b 30
        E 16 b1 0b 28
        E 32 b1 0b 20
        E 32 81 3b 00
        E 32 b1 0b 40
        E 0 91 41 40
        E 16 b1 0b 38
        E 16 b1 0b 30
        E 16 b1 0b 28
        E 32 b1 0b 20
        E 32 81 41 00
        E 176 b1 0b 40
        E 0 91 41 40
        E 16 b1 0b 38
        E 16 b1 0b 30
        E 16 b1 0b 28
        E 32 b1 0b 20
        E 32 81 41 00
        E 32 b1 0b 40
        E 0 91 41 40
        E 16 b1 0b 38
        E 16 b1 0b 30
        E 16 b1 0b 28
        E 32 b1 0b 20
        E 32 81 41 00
        E 80 b1 0b 40
        E 0 91 40 40
        E 16 b1 0b 38
        E 16 b1 0b 30
        E 16 b1 0b 28
        E 32 b1 0b 20
        E 32 81 40 00
        E 80 b1 0b 40
        E 0 91 3e 40
        E 16 b1 0b 38
        E 16 b1 0b 30
        E 16 b1 0b 28
        E 32 b1 0b 20
        E 32 81 3e 00
        E 80 b1 0b 40
        E 0 91 3c 40
        E 16 b1 0b 38
        E 16 b1 0b 30
        E 16 b1 0b 28
        E 32 b1 0b 20
        E 32 81 3c 00
        E 1040 b1 0b 40
        E 0 91 3c 40
        E 16 b1 0b 38
        E 16 b1 0b 30
        E 16 b1 0b 28
        E 32 b1 0b 20
        E 32 81 3c 00
        E 32 b1 0b 40
        E 0 91 3c 40
        E 16 b1 0b 38
        E 16 b1 0b 30
        E 16 b1 0b 28
        E 32 b1 0b 20
        E 32 81 3c 00
        E 176 b1 0b 40
        E 0 91 3c 40
        E 16 b1 0b 38
        E 16 b1 0b 30
        E 16 b1 0b 28
        E 32 b1 0b 20
        E 32 81 3c 00
        E 176 b1 0b 40
        E 0 91 3c 40
        E 16 b1 0b 38
        E 16 b1 0b 30
        E 16 b1 0b 28
        E 32 b1 0b 20
        E 32 81 3c 00
        E 32 b1 0b 40
        E 0 91 3e 40
        E 16 b1 0b 38
        E 16 b1 0b 30
        E 16 b1 0b 28
        E 32 b1 0b 20
        E 32 81 3e 00
        E 176 b1 0b 40
        E 0 91 40 40
        E 16 b1 0b 38
        E 16 b1 0b 30
        E 16 b1 0b 28
        E 32 b1 0b 20
        E 32 81 40 00
        E 32 b1 0b 40
        E 0 91 3c 40
        E 16 b1 0b 38
        E 16 b1 0b 30
        E 16 b1 0b 28
        E 32 b1 0b 20
        E 32 81 3c 00
        E 176 b1 0b 40
        E 0 91 39 40
        E 16 b1 0b 38
        E 16 b1 0b 30
        E 16 b1 0b 28
        E 32 b1 0b 20
        E 32 81 39 00
        E 32 b1 0b 40
        E 0 91 37 40
        E 16 b1 0b 38
        E 16 b1 0b 30
        E 16 b1 0b 28
        E 32 b1 0b 20
        E 32 81 37 00
        E 464 b1 0b 40
        E 0 91 3c 40
        E 16 b1 0b 38
        E 16 b1 0b 30
        E 16 b1 0b 28
        E 32 b1 0b 20
        E 32 81 3c 00
        E 32 b1 0b 40
        E 0 91 3c 40
        E 16 b1 0b 38
        E 16 b1 0b 30
        E 16 b1 0b 28
        E 32 b1 0b 20
        E 32 81 3c 00
        E 176 b1 0b 40
        E 0 91 3c 40
        E 16 b1 0b 38
        E 16 b1 0b 30
        E 16 b1 0b 28
        E 32 b1 0b 20
        E 32 81 3c 00
        E 176 b1 0b 40
        E 0 91 3c 40
        E 16 b1 0b 38
        E 16 b1 0b 30
        E 16 b1 0b 28
        E 32 b1 0b 20
        E 32 81 3c 00
        E 32 b1 0b 40
        E 0 91 3e 40
        E 16 b1 0b 38
        E 16 b1 0b 30
        E 16 b1 0b 28
        E 32 b1 0b 20
        E 32 81 3e 00
        E 32 b1 0b 40
        E 0 91 40 40
        E 16 b1 0b 38
        E 16 b1 0b 30
        E 16 b1 0b 28
        E 32 b1 0b 20
        E 32 81 40 00
        E 1184 b1 0b 40
        E 0 91 3c 40
        E 16 b1 0b 38
        E 16 b1 0b 30
        E 16 b1 0b 28
        E 32 b1 0b 20
        E 32 81 3c 00
        E 32 b1 0b 40
        E 0 91 3c 40
        E 16 b1 0b 38
        E 16 b1 0b 30
        E 16 b1 0b 28
        E 32 b1 0b 20
        E 32 81 3c 00
        E 176 b1 0b 40
        E 0 91 3c 40
        E 16 b1 0b 38
        E 16 b1 0b 30
        E 16 b1 0b 28
        E 32 b1 0b 20
        E 32 81 3c 00
        E 176 b1 0b 40
        E 0 91 3c 40
        E 16 b1 0b 38
        E 16 b1 0b 30
        E 16 b1 0b 28
        E 32 b1 0b 20
        E 32 81 3c 00
        E 32 b1 0b 40
        E 0 91 3e 40
        E 16 b1 0b 38
        E 16 b1 0b 30
        E 16 b1 0b 28
        E 32 b1 0b 20
        E 32 81 3e 00
        E 176 b1 0b 40
        E 0 91 40 40
        E 16 b1 0b 38
        E 16 b1 0b 30
        E 16 b1 0b 28
        E 32 b1 0b 20
        E 32 81 40 00
        E 32 b1 0b 40
        E 0 91 3c 40
        E 16 b1 0b 38
        E 16 b1 0b 30
        E 16 b1 0b 28
        E 32 b1 0b 20
        E 32 81 3c 00
        E 176 b1 0b 40
        E 0 91 39 40
        E 16 b1 0b 38
        E 16 b1 0b 30
        E 16 b1 0b 28
        E 32 b1 0b 20
        E 32 81 39 00
        E 32 b1 0b 40
        E 0 91 37 40
        E 16 b1 0b 38
        E 16 b1 0b 30
        E 16 b1 0b 28
        E 32 b1 0b 20
        E 32 81 37 00
        E 464 b1 0b 40
        E 0 91 40 40
        E 16 b1 0b 38
        E 16 b1 0b 30
        E 16 b1 0b 28
        E 32 b1 0b 20
        E 32 81 40 00
        E 32 b1 0b 40
        E 0 91 40 40
        E 16 b1 0b 38
        E 16 b1 0b 30
        E 16 b1 0b 28
        E 32 b1 0b 20
        E 32 81 40 00
        E 176 b1 0b 40
        E 0 91 40 40
        E 16 b1 0b 38
        E 16 b1 0b 30
        E 16 b1 0b 28
        E 32 b1 0b 20
        E 32 81 40 00
        E 176 b1 0b 40
        E 0 91 3c 40
        E 16 b1 0b 38
        E 16 b1 0b 30
        E 16 b1 0b 28
        E 32 b1 0b 20
        E 32 81 3c 00
        E 32 b1 0b 40
        E 0 91 40 40
        E 16 b1 0b 38
        E 16 b1 0b 30
        E 16 b1 0b 28
        E 32 b1 0b 20
        E 32 81 40 00
        E 176 b1 0b 40
        E 0 91 43 40
        E 16 b1 0b 38
        E 16 b1 0b 30
        E 16 b1 0b 28
        E 32 b1 0b 20
        E 32 81 43 00
        E 1040 b1 0b 40
        E 0 91 40 40
        E 16 b1 0b 38
        E 16 b1 0b 30
        E 16 b1 0b 28
        E 32 b1 0b 20
        E 32 81 40 00
        E 32 b1 0b 40
        E 0 91 3c 40
        E 16 b1 0b 38
        E 16 b1 0b 30
        E 16 b1 0b 28
        E 32 b1 0b 20
        E 32 81 3c 00
        E 176 b1 0b 40
        E 0 91 37 40
        E 16 b1 0b 38
        E 16 b1 0b 30
        E 16 b1 0b 28
        E 32 b1 0b 20
        E 32 81 37 00
        E 320 b1 0b 40
        E 0 91 38 40
        E 16 b1 0b 38
        E 16 b1 0b 30
        E 16 b1 0b 28
        E 32 b1 0b 20
        E 32 81 38 00
        E 176 b1 0b 40
        E 0 91 39 40
        E 16 b1 0b 38
        E 16 b1 0b 30
        E 16 b1 0b 28
        E 32 b1 0b 20
        E 32 81 39 00
        E 32 b1 0b 40
        E 0 91 41 40
        E 16 b1 0b 38
        E 16 b1 0b 30
        E 16 b1 0b 28
        E 32 b1 0b 20
        E 32 81 41 00
        E 176 b1 0b 40
        E 0 91 41 40
        E 16 b1 0b 38
        E 16 b1 0b 30
        E 16 b1 0b 28
        E 32 b1 0b 20
        E 32 81 41 00
        E 32 b1 0b 40
        E 0 91 39 40
        E 16 b1 0b 38
        E 16 b1 0b 30
        E 16 b1 0b 28
        E 32 b1 0b 20
        E 32 81 39 00
        E 464 b1 0b 40
        E 0 91 3b 40
        E 16 b1 0b 38
        E 16 b1 0b 30
        E 16 b1 0b 28
        E 32 b1 0b 20
        E 32 81 3b 00
        E 80 b1 0b 40
        E 0 91 45 40
        E 16 b1 0b 38
        E 16 b1 0b 30
        E 16 b1 0b 28
        E 32 b1 0b 20
        E 32 81 45 00
        E 80 b1 0b 40
        E 0 91 45 40
        E 16 b1 0b 38
        E 16 b1 0b 30
        E 16 b1 0b 28
        E 32 b1 0b 20
        E 32 81 45 00
        E 80 b1 0b 40
        E 0 91 45 40
        E 16 b1 0b 38
        E 16 b1 0b 30
        E 16 b1 0b 28
        E 32 b1 0b 20
        E 32 81 45 00
        E 80 b1 0b 40
        E 0 91 43 40
        E 16 b1 0b 38
        E 16 b1 0b 30
        E 16 b1 0b 28
        E 32 b1 0b 20
        E 32 81 43 00
        E 80 b1 0b 40
        E 0 91 41 40
        E 16 b1 0b 38
        E 16 b1 0b 30
        E 16 b1 0b 28
        E 32 b1 0b 20
        E 32 81 41 00
        E 80 b1 0b 40
        E 0 91 40 40
        E 16 b1 0b 38
        E 16 b1 0b 30
        E 16 b1 0b 28
        E 32 b1 0b 20
        E 32 81 40 00
        E 32 b1 0b 40
        E 0 91 3c 40
        E 16 b1 0b 38
        E 16 b1 0b 30
        E 16 b1 0b 28
        E 32 b1 0b 20
        E 32 81 3c 00
        E 176 b1 0b 40
        E 0 91 39 40
        E 16 b1 0b 38
        E 16 b1 0b 30
        E 16 b1 0b 28
        E 32 b1 0b 20
        E 32 81 39 00
        E 32 b1 0b 40
        E 0 91 37 40
        E 16 b1 0b 38
        E 16 b1 0b 30
        E 16 b1 0b 28
        E 32 b1 0b 20
        E 32 81 37 00
        E 464 b1 0b 40
        E 0 91 40 40
        E 16 b1 0b 38
        E 16 b1 0b 30
        E 16 b1 0b 28
        E 32 b1 0b 20
        E 32 81 40 00
        E 32 b1 0b 40
        E 0 91 3c 40
        E 16 b1 0b 38
        E 16 b1 0b 30
        E 16 b1 0b 28
        E 32 b1 0b 20
        E 32 81 3c 00
        E 176 b1 0b 40
        E 0 91 37 40
        E 16 b1 0b 38
        E 16 b1 0b 30
        E 16 b1 0b 28
        E 32 b1 0b 20
        E 32 81 37 00
        E 320 b1 0b 40
        E 0 91 38 40
        E 16 b1 0b 38
        E 16 b1 0b 30
        E 16 b1 0b 28
        E 32 b1 0b 20
        E 32 81 38 00
        E 176 b1 0b 40
        E 0 91 39 40
        E 16 b1 0b 38
        E 16 b1 0b 30
        E 16 b1 0b 28
        E 32 b1 0b 20
        E 32 81 39 00
        E 32 b1 0b 40
        E 0 91 41 40
        E 16 b1 0b 38
        E 16 b1 0b 30
        E 16 b1 0b 28
        E 32 b1 0b 20
        E 32 81 41 00
        E 176 b1 0b 40
        E 0 91 41 40
        E 16 b1 0b 38
        E 16 b1 0b 30
        E 16 b1 0b 28
        E 32 b1 0b 20
        E 32 81 41 00
        E 32 b1 0b 40
        E 0 91 39 40
        E 16 b1 0b 38
        E 16 b1 0b 30
        E 16 b1 0b 28
        E 32 b1 0b 20
        E 32 81 39 00
        E 464 b1 0b 40
        E 0 91 3b 40
        E 16 b1 0b 38
        E 16 b1 0b 30
        E 16 b1 0b 28
        E 32 b1 0b 20
        E 32 81 3b 00
        E 32 b1 0b 40
        E 0 91 41 40
        E 16 b1 0b 38
        E 16 b1 0b 30
        E 16 b1 0b 28
        E 32 b1 0b 20
        E 32 81 41 00
        E 176 b1 0b 40
        E 0 91 41 40
        E 16 b1 0b 38
        E 16 b1 0b 30
        E 16 b1 0b 28
        E 32 b1 0b 20
        E 32 81 41 00
        E 32 b1 0b 40
        E 0 91 41 40
        E 16 b1 0b 38
        E 16 b1 0b 30
        E 16 b1 0b 28
        E 32 b1 0b 20
        E 32 81 41 00
        E 80 b1 0b 40
        E 0 91 40 40
        E 16 b1 0b 38
        E 16 b1 0b 30
        E 16 b1 0b 28
        E 32 b1 0b 20
        E 32 81 40 00
        E 80 b1 0b 40
        E 0 91 3e 40
        E 16 b1 0b 38
        E 16 b1 0b 30
        E 16 b1 0b 28
        E 32 b1 0b 20
        E 32 81 3e 00
        E 80 b1 0b 40
        E 0 91 3c 40
        E 16 b1 0b 38
        E 16 b1 0b 30
        E 16 b1 0b 28
        E 32 b1 0b 20
        E 32 81 3c 00
        E 1040 b1 0b 40
        E 0 91 3c 40
        E 16 b1 0b 38
        E 16 b1 0b 30
        E 16 b1 0b 28
        E 32 b1 0b 20
        E 32 81 3c 00
        E 320 b1 0b 40
        E 0 91 37 40
        E 16 b1 0b 38
        E 16 b1 0b 30
        E 16 b1 0b 28
        E 32 b1 0b 20
        E 32 81 37 00
        E 320 b1 0b 40
        E 0 91 34 40
        E 16 b1 0b 38
        E 16 b1 0b 30
        E 16 b1 0b 28
        E 32 b1 0b 20
        E 32 81 34 00
        E 0 ff 2f 00
      >
    >
  >
  <TRACK {0400A7C4-EF23-4A63-AF01-BBF45692E51C}
    NAME "NES - Triangle [ch2]"
    PEAKCOL 16744192
    BEAT -1
    AUTOMODE 0
    PANLAWFLAGS 3
    VOLPAN 1 0 -1 -1 1
    MUTESOLO 0 0 0
    IPHASE 0
    PLAYOFFS 0 1
    ISBUS 0 0
    BUSCOMP 0 0 0 0 0
    SHOWINMIX 1 0.6667 0.5 1 0.5 0 0 0
    FIXEDLANES 9 0 0 0 0
    SEL 0
    REC 0 5088 1 0 0 0 0 0
    VU 2
    TRACKHEIGHT 0 0 0 0 0 0 0
    INQ 0 0 0 0.5 100 0 0 100
    NCHAN 2
    FX 1
    TRACKID {0400A7C4-EF23-4A63-AF01-BBF45692E51C}
    PERF 0
    MIDIOUT -1
    MAINSEND 1 0
    <FXCHAIN
      WNDRECT 24 52 700 560
      SHOW 0
      LASTSEL 0
      DOCKED 0
      BYPASS 0 0 0
      <JS "ReapNES Studio/ReapNES_Console.jsfx" ""
        2 15 1 10 80 10 100 2 1 15 1 5 60 10 80 1 1 0 50 0 0 15 1 0 100 0 0 0.500000 0.500000 0.400000 0.300000 0.800000 2 1 0 0 0 0 - - - - - - - - - - - - - - - - - - - - - - - - - -
      >
      FLOATPOS 0 0 0 0
      FXID {D35ED35F-5CE7-480D-8F6D-2A3CE415C5F7}
      WAK 0 0
    >
    <ITEM
      POSITION 0
      LENGTH 83.98134
      LOOP 0
      ALLTAKES 0
      FADEIN 0 0 0 0 0 0 0
      FADEOUT 0 0 0 0 0 0 0
      MUTE 0 0
      SEL 0
      IGUID {7F70FC95-3A19-44DA-984D-0CB7183EC0A9}
      <SOURCE MIDI
        HASDATA 1 480 QN
        CCINTERP 32
        E 0 c2 26
        E 0 b2 0b 7f
        E 0 92 32 7f
        E 1152 82 32 00
        E 0 b2 0b 7f
        E 0 92 43 7f
        E 576 82 43 00
        E 0 b2 0b 7f
        E 0 92 37 7f
        E 1008 82 37 00
        E 0 b2 0b 7f
        E 0 92 34 7f
        E 432 82 34 00
        E 0 b2 0b 7f
        E 0 92 30 7f
        E 432 82 30 00
        E 0 b2 0b 7f
        E 0 92 35 7f
        E 288 82 35 00
        E 0 b2 0b 7f
        E 0 92 37 7f
        E 288 82 37 00
        E 0 b2 0b 7f
        E 0 92 36 7f
        E 144 82 36 00
        E 0 b2 0b 7f
        E 0 92 35 7f
        E 288 82 35 00
        E 0 b2 0b 7f
        E 0 92 34 7f
        E 192 82 34 00
        E 0 b2 0b 7f
        E 0 92 3c 7f
        E 192 82 3c 00
        E 0 b2 0b 7f
        E 0 92 40 7f
        E 192 82 40 00
        E 0 b2 0b 7f
        E 0 92 41 7f
        E 288 82 41 00
        E 0 b2 0b 7f
        E 0 92 3e 7f
        E 144 82 3e 00
        E 0 b2 0b 7f
        E 0 92 40 7f
        E 288 82 40 00
        E 0 b2 0b 7f
        E 0 92 3c 7f
        E 288 82 3c 00
        E 0 b2 0b 7f
        E 0 92 39 7f
        E 144 82 39 00
        E 0 b2 0b 7f
        E 0 92 3b 7f
        E 144 82 3b 00
        E 0 b2 0b 7f
        E 0 92 37 7f
        E 864 82 37 00
        E 0 b2 0b 7f
        E 0 92 34 7f
        E 432 82 34 00
        E 0 b2 0b 7f
        E 0 92 30 7f
        E 432 82 30 00
        E 0 b2 0b 7f
        E 0 92 35 7f
        E 288 82 35 00
        E 0 b2 0b 7f
        E 0 92 37 7f
        E 288 82 37 00
        E 0 b2 0b 7f
        E 0 92 36 7f
        E 144 82 36 00
        E 0 b2 0b 7f
        E 0 92 35 7f
        E 288 82 35 00
        E 0 b2 0b 7f
        E 0 92 34 7f
        E 192 82 34 00
        E 0 b2 0b 7f
        E 0 92 3c 7f
        E 192 82 3c 00
        E 0 b2 0b 7f
        E 0 92 40 7f
        E 192 82 40 00
        E 0 b2 0b 7f
        E 0 92 41 7f
        E 288 82 41 00
        E 0 b2 0b 7f
        E 0 92 3e 7f
        E 144 82 3e 00
        E 0 b2 0b 7f
        E 0 92 40 7f
        E 288 82 40 00
        E 0 b2 0b 7f
        E 0 92 3c 7f
        E 288 82 3c 00
        E 0 b2 0b 7f
        E 0 92 39 7f
        E 144 82 39 00
        E 0 b2 0b 7f
        E 0 92 3b 7f
        E 144 82 3b 00
        E 0 b2 0b 7f
        E 0 92 37 7f
        E 432 82 37 00
        E 0 b2 0b 7f
        E 0 92 30 7f
        E 432 82 30 00
        E 0 b2 0b 7f
        E 0 92 37 7f
        E 432 82 37 00
        E 0 b2 0b 7f
        E 0 92 3c 7f
        E 288 82 3c 00
        E 0 b2 0b 7f
        E 0 92 35 7f
        E 432 82 35 00
        E 0 b2 0b 7f
        E 0 92 3c 7f
        E 432 82 3c 00
        E 0 b2 0b 7f
        E 0 92 35 7f
        E 288 82 35 00
        E 0 b2 0b 7f
        E 0 92 30 7f
        E 432 82 30 00
        E 0 b2 0b 7f
        E 0 92 34 7f
        E 432 82 34 00
        E 0 b2 0b 7f
        E 0 92 37 7f
        E 144 82 37 00
        E 0 b2 0b 7f
        E 0 92 3c 7f
        E 288 82 3c 00
        E 0 b2 0b 7f
        E 0 92 4f 7f
        E 720 82 4f 00
        E 0 b2 0b 7f
        E 0 92 37 7f
        E 288 82 37 00
        E 0 b2 0b 7f
        E 0 92 30 7f
        E 432 82 30 00
        E 0 b2 0b 7f
        E 0 92 37 7f
        E 432 82 37 00
        E 0 b2 0b 7f
        E 0 92 3c 7f
        E 288 82 3c 00
        E 0 b2 0b 7f
        E 0 92 35 7f
        E 432 82 35 00
        E 0 b2 0b 7f
        E 0 92 3c 7f
        E 432 82 3c 00
        E 0 b2 0b 7f
        E 0 92 35 7f
        E 288 82 35 00
        E 0 b2 0b 7f
        E 0 92 30 7f
        E 288 82 30 00
        E 0 b2 0b 7f
        E 0 92 38 7f
        E 432 82 38 00
        E 0 b2 0b 7f
        E 0 92 3a 7f
        E 432 82 3a 00
        E 0 b2 0b 7f
        E 0 92 3c 7f
        E 432 82 3c 00
        E 0 b2 0b 7f
        E 0 92 37 7f
        E 432 82 37 00
        E 0 b2 0b 7f
        E 0 92 30 7f
        E 720 82 30 00
        E 0 b2 0b 7f
        E 0 92 37 7f
        E 432 82 37 00
        E 0 b2 0b 7f
        E 0 92 3c 7f
        E 288 82 3c 00
        E 0 b2 0b 7f
        E 0 92 35 7f
        E 432 82 35 00
        E 0 b2 0b 7f
        E 0 92 3c 7f
        E 432 82 3c 00
        E 0 b2 0b 7f
        E 0 92 35 7f
        E 288 82 35 00
        E 0 b2 0b 7f
        E 0 92 30 7f
        E 432 82 30 00
        E 0 b2 0b 7f
        E 0 92 34 7f
        E 432 82 34 00
        E 0 b2 0b 7f
        E 0 92 37 7f
        E 144 82 37 00
        E 0 b2 0b 7f
        E 0 92 3c 7f
        E 288 82 3c 00
        E 0 b2 0b 7f
        E 0 92 4f 7f
        E 720 82 4f 00
        E 0 b2 0b 7f
        E 0 92 37 7f
        E 288 82 37 00
        E 0 b2 0b 7f
        E 0 92 30 7f
        E 432 82 30 00
        E 0 b2 0b 7f
        E 0 92 37 7f
        E 432 82 37 00
        E 0 b2 0b 7f
        E 0 92 3c 7f
        E 288 82 3c 00
        E 0 b2 0b 7f
        E 0 92 35 7f
        E 432 82 35 00
        E 0 b2 0b 7f
        E 0 92 3c 7f
        E 432 82 3c 00
        E 0 b2 0b 7f
        E 0 92 35 7f
        E 288 82 35 00
        E 0 b2 0b 7f
        E 0 92 30 7f
        E 288 82 30 00
        E 0 b2 0b 7f
        E 0 92 38 7f
        E 432 82 38 00
        E 0 b2 0b 7f
        E 0 92 3a 7f
        E 432 82 3a 00
        E 0 b2 0b 7f
        E 0 92 3c 7f
        E 432 82 3c 00
        E 0 b2 0b 7f
        E 0 92 37 7f
        E 432 82 37 00
        E 0 b2 0b 7f
        E 0 92 30 7f
        E 288 82 30 00
        E 0 b2 0b 7f
        E 0 92 2c 7f
        E 432 82 2c 00
        E 0 b2 0b 7f
        E 0 92 33 7f
        E 432 82 33 00
        E 0 b2 0b 7f
        E 0 92 38 7f
        E 288 82 38 00
        E 0 b2 0b 7f
        E 0 92 37 7f
        E 432 82 37 00
        E 0 b2 0b 7f
        E 0 92 30 7f
        E 432 82 30 00
        E 0 b2 0b 7f
        E 0 92 2b 7f
        E 288 82 2b 00
        E 0 b2 0b 7f
        E 0 92 2c 7f
        E 432 82 2c 00
        E 0 b2 0b 7f
        E 0 92 33 7f
        E 432 82 33 00
        E 0 b2 0b 7f
        E 0 92 38 7f
        E 288 82 38 00
        E 0 b2 0b 7f
        E 0 92 37 7f
        E 432 82 37 00
        E 0 b2 0b 7f
        E 0 92 30 7f
        E 432 82 30 00
        E 0 b2 0b 7f
        E 0 92 2b 7f
        E 288 82 2b 00
        E 0 b2 0b 7f
        E 0 92 2c 7f
        E 432 82 2c 00
        E 0 b2 0b 7f
        E 0 92 33 7f
        E 432 82 33 00
        E 0 b2 0b 7f
        E 0 92 38 7f
        E 288 82 38 00
        E 0 b2 0b 7f
        E 0 92 37 7f
        E 432 82 37 00
        E 0 b2 0b 7f
        E 0 92 30 7f
        E 432 82 30 00
        E 0 b2 0b 7f
        E 0 92 2b 7f
        E 288 82 2b 00
        E 0 b2 0b 7f
        E 0 92 32 7f
        E 1152 82 32 00
        E 0 b2 0b 7f
        E 0 92 43 7f
        E 576 82 43 00
        E 0 b2 0b 7f
        E 0 92 37 7f
        E 1008 82 37 00
        E 0 b2 0b 7f
        E 0 92 34 7f
        E 432 82 34 00
        E 0 b2 0b 7f
        E 0 92 30 7f
        E 432 82 30 00
        E 0 b2 0b 7f
        E 0 92 35 7f
        E 288 82 35 00
        E 0 b2 0b 7f
        E 0 92 37 7f
        E 288 82 37 00
        E 0 b2 0b 7f
        E 0 92 36 7f
        E 144 82 36 00
        E 0 b2 0b 7f
        E 0 92 35 7f
        E 288 82 35 00
        E 0 b2 0b 7f
        E 0 92 34 7f
        E 192 82 34 00
        E 0 b2 0b 7f
        E 0 92 3c 7f
        E 192 82 3c 00
        E 0 b2 0b 7f
        E 0 92 40 7f
        E 192 82 40 00
        E 0 b2 0b 7f
        E 0 92 41 7f
        E 288 82 41 00
        E 0 b2 0b 7f
        E 0 92 3e 7f
        E 144 82 3e 00
        E 0 b2 0b 7f
        E 0 92 40 7f
        E 288 82 40 00
        E 0 b2 0b 7f
        E 0 92 3c 7f
        E 288 82 3c 00
        E 0 b2 0b 7f
        E 0 92 39 7f
        E 144 82 39 00
        E 0 b2 0b 7f
        E 0 92 3b 7f
        E 144 82 3b 00
        E 0 b2 0b 7f
        E 0 92 37 7f
        E 864 82 37 00
        E 0 b2 0b 7f
        E 0 92 34 7f
        E 432 82 34 00
        E 0 b2 0b 7f
        E 0 92 30 7f
        E 432 82 30 00
        E 0 b2 0b 7f
        E 0 92 35 7f
        E 288 82 35 00
        E 0 b2 0b 7f
        E 0 92 37 7f
        E 288 82 37 00
        E 0 b2 0b 7f
        E 0 92 36 7f
        E 144 82 36 00
        E 0 b2 0b 7f
        E 0 92 35 7f
        E 288 82 35 00
        E 0 b2 0b 7f
        E 0 92 34 7f
        E 192 82 34 00
        E 0 b2 0b 7f
        E 0 92 3c 7f
        E 192 82 3c 00
        E 0 b2 0b 7f
        E 0 92 40 7f
        E 192 82 40 00
        E 0 b2 0b 7f
        E 0 92 41 7f
        E 288 82 41 00
        E 0 b2 0b 7f
        E 0 92 3e 7f
        E 144 82 3e 00
        E 0 b2 0b 7f
        E 0 92 40 7f
        E 288 82 40 00
        E 0 b2 0b 7f
        E 0 92 3c 7f
        E 288 82 3c 00
        E 0 b2 0b 7f
        E 0 92 39 7f
        E 144 82 39 00
        E 0 b2 0b 7f
        E 0 92 3b 7f
        E 144 82 3b 00
        E 0 b2 0b 7f
        E 0 92 37 7f
        E 432 82 37 00
        E 0 b2 0b 7f
        E 0 92 30 7f
        E 432 82 30 00
        E 0 b2 0b 7f
        E 0 92 36 7f
        E 144 82 36 00
        E 0 b2 0b 7f
        E 0 92 37 7f
        E 288 82 37 00
        E 0 b2 0b 7f
        E 0 92 3c 7f
        E 288 82 3c 00
        E 0 b2 0b 7f
        E 0 92 35 7f
        E 576 82 35 00
        E 0 b2 0b 7f
        E 0 92 3c 7f
        E 288 82 3c 00
        E 0 b2 0b 7f
        E 0 92 35 7f
        E 288 82 35 00
        E 0 b2 0b 7f
        E 0 92 32 7f
        E 432 82 32 00
        E 0 b2 0b 7f
        E 0 92 35 7f
        E 144 82 35 00
        E 0 b2 0b 7f
        E 0 92 37 7f
        E 288 82 37 00
        E 0 b2 0b 7f
        E 0 92 3b 7f
        E 288 82 3b 00
        E 0 b2 0b 7f
        E 0 92 37 7f
        E 576 82 37 00
        E 0 b2 0b 7f
        E 0 92 3c 7f
        E 288 82 3c 00
        E 0 b2 0b 7f
        E 0 92 37 7f
        E 288 82 37 00
        E 0 b2 0b 7f
        E 0 92 30 7f
        E 432 82 30 00
        E 0 b2 0b 7f
        E 0 92 36 7f
        E 144 82 36 00
        E 0 b2 0b 7f
        E 0 92 37 7f
        E 288 82 37 00
        E 0 b2 0b 7f
        E 0 92 3c 7f
        E 288 82 3c 00
        E 0 b2 0b 7f
        E 0 92 35 7f
        E 576 82 35 00
        E 0 b2 0b 7f
        E 0 92 3c 7f
        E 288 82 3c 00
        E 0 b2 0b 7f
        E 0 92 35 7f
        E 288 82 35 00
        E 0 b2 0b 7f
        E 0 92 37 7f
        E 768 82 37 00
        E 0 b2 0b 7f
        E 0 92 39 7f
        E 192 82 39 00
        E 0 b2 0b 7f
        E 0 92 3b 7f
        E 192 82 3b 00
        E 0 b2 0b 7f
        E 0 92 3c 7f
        E 288 82 3c 00
        E 0 b2 0b 7f
        E 0 92 37 7f
        E 288 82 37 00
        E 0 b2 0b 7f
        E 0 92 30 7f
        E 1008 82 30 00
        E 0 b2 0b 7f
        E 0 92 36 7f
        E 144 82 36 00
        E 0 b2 0b 7f
        E 0 92 37 7f
        E 288 82 37 00
        E 0 b2 0b 7f
        E 0 92 3c 7f
        E 288 82 3c 00
        E 0 b2 0b 7f
        E 0 92 35 7f
        E 576 82 35 00
        E 0 b2 0b 7f
        E 0 92 3c 7f
        E 288 82 3c 00
        E 0 b2 0b 7f
        E 0 92 35 7f
        E 288 82 35 00
        E 0 b2 0b 7f
        E 0 92 32 7f
        E 432 82 32 00
        E 0 b2 0b 7f
        E 0 92 35 7f
        E 144 82 35 00
        E 0 b2 0b 7f
        E 0 92 37 7f
        E 288 82 37 00
        E 0 b2 0b 7f
        E 0 92 3b 7f
        E 288 82 3b 00
        E 0 b2 0b 7f
        E 0 92 37 7f
        E 576 82 37 00
        E 0 b2 0b 7f
        E 0 92 3c 7f
        E 288 82 3c 00
        E 0 b2 0b 7f
        E 0 92 37 7f
        E 288 82 37 00
        E 0 b2 0b 7f
        E 0 92 30 7f
        E 432 82 30 00
        E 0 b2 0b 7f
        E 0 92 36 7f
        E 144 82 36 00
        E 0 b2 0b 7f
        E 0 92 37 7f
        E 288 82 37 00
        E 0 b2 0b 7f
        E 0 92 3c 7f
        E 288 82 3c 00
        E 0 b2 0b 7f
        E 0 92 35 7f
        E 576 82 35 00
        E 0 b2 0b 7f
        E 0 92 3c 7f
        E 288 82 3c 00
        E 0 b2 0b 7f
        E 0 92 35 7f
        E 288 82 35 00
        E 0 b2 0b 7f
        E 0 92 37 7f
        E 768 82 37 00
        E 0 b2 0b 7f
        E 0 92 39 7f
        E 192 82 39 00
        E 0 b2 0b 7f
        E 0 92 3b 7f
        E 192 82 3b 00
        E 0 b2 0b 7f
        E 0 92 3c 7f
        E 288 82 3c 00
        E 0 b2 0b 7f
        E 0 92 37 7f
        E 288 82 37 00
        E 0 b2 0b 7f
        E 0 92 30 7f
        E 576 82 30 00
        E 0 b2 0b 7f
        E 0 92 2c 7f
        E 432 82 2c 00
        E 0 b2 0b 7f
        E 0 92 33 7f
        E 432 82 33 00
        E 0 b2 0b 7f
        E 0 92 38 7f
        E 288 82 38 00
        E 0 b2 0b 7f
        E 0 92 37 7f
        E 432 82 37 00
        E 0 b2 0b 7f
        E 0 92 30 7f
        E 432 82 30 00
        E 0 b2 0b 7f
        E 0 92 2b 7f
        E 288 82 2b 00
        E 0 b2 0b 7f
        E 0 92 2c 7f
        E 432 82 2c 00
        E 0 b2 0b 7f
        E 0 92 33 7f
        E 432 82 33 00
        E 0 b2 0b 7f
        E 0 92 38 7f
        E 288 82 38 00
        E 0 b2 0b 7f
        E 0 92 37 7f
        E 432 82 37 00
        E 0 b2 0b 7f
        E 0 92 30 7f
        E 432 82 30 00
        E 0 b2 0b 7f
        E 0 92 2b 7f
        E 288 82 2b 00
        E 0 b2 0b 7f
        E 0 92 2c 7f
        E 432 82 2c 00
        E 0 b2 0b 7f
        E 0 92 33 7f
        E 432 82 33 00
        E 0 b2 0b 7f
        E 0 92 38 7f
        E 288 82 38 00
        E 0 b2 0b 7f
        E 0 92 37 7f
        E 432 82 37 00
        E 0 b2 0b 7f
        E 0 92 30 7f
        E 432 82 30 00
        E 0 b2 0b 7f
        E 0 92 2b 7f
        E 288 82 2b 00
        E 0 b2 0b 7f
        E 0 92 32 7f
        E 1152 82 32 00
        E 0 b2 0b 7f
        E 0 92 43 7f
        E 576 82 43 00
        E 0 b2 0b 7f
        E 0 92 37 7f
        E 576 82 37 00
        E 0 b2 0b 7f
        E 0 92 30 7f
        E 432 82 30 00
        E 0 b2 0b 7f
        E 0 92 36 7f
        E 144 82 36 00
        E 0 b2 0b 7f
        E 0 92 37 7f
        E 288 82 37 00
        E 0 b2 0b 7f
        E 0 92 3c 7f
        E 288 82 3c 00
        E 0 b2 0b 7f
        E 0 92 35 7f
        E 576 82 35 00
        E 0 b2 0b 7f
        E 0 92 3c 7f
        E 288 82 3c 00
        E 0 b2 0b 7f
        E 0 92 35 7f
        E 288 82 35 00
        E 0 b2 0b 7f
        E 0 92 32 7f
        E 432 82 32 00
        E 0 b2 0b 7f
        E 0 92 35 7f
        E 144 82 35 00
        E 0 b2 0b 7f
        E 0 92 37 7f
        E 288 82 37 00
        E 0 b2 0b 7f
        E 0 92 3b 7f
        E 288 82 3b 00
        E 0 b2 0b 7f
        E 0 92 37 7f
        E 576 82 37 00
        E 0 b2 0b 7f
        E 0 92 3c 7f
        E 288 82 3c 00
        E 0 b2 0b 7f
        E 0 92 37 7f
        E 288 82 37 00
        E 0 b2 0b 7f
        E 0 92 30 7f
        E 432 82 30 00
        E 0 b2 0b 7f
        E 0 92 36 7f
        E 144 82 36 00
        E 0 b2 0b 7f
        E 0 92 37 7f
        E 288 82 37 00
        E 0 b2 0b 7f
        E 0 92 3c 7f
        E 288 82 3c 00
        E 0 b2 0b 7f
        E 0 92 35 7f
        E 576 82 35 00
        E 0 b2 0b 7f
        E 0 92 3c 7f
        E 288 82 3c 00
        E 0 b2 0b 7f
        E 0 92 35 7f
        E 288 82 35 00
        E 0 b2 0b 7f
        E 0 92 37 7f
        E 768 82 37 00
        E 0 b2 0b 7f
        E 0 92 39 7f
        E 192 82 39 00
        E 0 b2 0b 7f
        E 0 92 3b 7f
        E 192 82 3b 00
        E 0 b2 0b 7f
        E 0 92 3c 7f
        E 288 82 3c 00
        E 0 b2 0b 7f
        E 0 92 37 7f
        E 288 82 37 00
        E 0 b2 0b 7f
        E 0 92 30 7f
        E 576 82 30 00
        E 0 b2 0b 7f
        E 0 92 37 7f
        E 432 82 37 00
        E 0 b2 0b 7f
        E 0 92 34 7f
        E 432 82 34 00
        E 0 b2 0b 7f
        E 0 92 30 7f
        E 288 82 30 00
        E 0 ff 2f 00
      >
    >
  >
  <TRACK {FC3E425F-00AE-474F-BFC6-79221CDC3482}
    NAME "NES - Noise / Drums [ch3]"
    PEAKCOL 11184810
    BEAT -1
    AUTOMODE 0
    PANLAWFLAGS 3
    VOLPAN 1 0 -1 -1 1
    MUTESOLO 0 0 0
    IPHASE 0
    PLAYOFFS 0 1
    ISBUS 0 0
    BUSCOMP 0 0 0 0 0
    SHOWINMIX 1 0.6667 0.5 1 0.5 0 0 0
    FIXEDLANES 9 0 0 0 0
    SEL 0
    REC 0 5088 1 0 0 0 0 0
    VU 2
    TRACKHEIGHT 0 0 0 0 0 0 0
    INQ 0 0 0 0.5 100 0 0 100
    NCHAN 2
    FX 1
    TRACKID {FC3E425F-00AE-474F-BFC6-79221CDC3482}
    PERF 0
    MIDIOUT -1
    MAINSEND 1 0
    <FXCHAIN
      WNDRECT 24 52 700 560
      SHOW 0
      LASTSEL 0
      DOCKED 0
      BYPASS 0 0 0
      <JS "ReapNES Studio/ReapNES_Console.jsfx" ""
        2 15 1 10 80 10 100 2 1 15 1 5 60 10 80 1 1 0 50 0 0 15 1 0 100 0 0 0.500000 0.500000 0.400000 0.300000 0.800000 3 1 0 0 0 0 - - - - - - - - - - - - - - - - - - - - - - - - - -
      >
      FLOATPOS 0 0 0 0
      FXID {B72BF4BB-AF10-4110-B768-2495365DE562}
      WAK 0 0
    >
    <ITEM
      POSITION 0
      LENGTH 83.98134
      LOOP 0
      ALLTAKES 0
      FADEIN 0 0 0 0 0 0 0
      FADEOUT 0 0 0 0 0 0 0
      MUTE 0 0
      SEL 0
      IGUID {4F78ABB7-A9B7-4EF0-ACD9-38EC0286AAC6}
      <SOURCE MIDI
        HASDATA 1 480 QN
        CCINTERP 32
        E 0 93 2a 60
        E 208 83 2a 00
        E 16 83 2a 00
        E 16 83 2a 00
        E 16 83 2a 00
        E 16 83 2a 00
        E 16 83 2a 00
        E 16 83 2a 00
        E 16 83 2a 00
        E 16 83 2a 00
        E 16 83 2a 00
        E 16 83 2a 00
        E 16 83 2a 00
        E 16 83 2a 00
        E 16 83 2a 00
        E 16 83 2a 00
        E 16 83 2a 00
        E 16 83 2a 00
        E 16 83 2a 00
        E 16 83 2a 00
        E 16 83 2a 00
        E 16 83 2a 00
        E 16 83 2a 00
        E 16 83 2a 00
        E 16 83 2a 00
        E 16 83 2a 00
        E 16 83 2a 00
        E 16 83 2a 00
        E 16 83 2a 00
        E 16 83 2a 00
        E 16 83 2a 00
        E 16 83 2a 00
        E 16 83 2a 00
        E 16 83 2a 00
        E 16 83 2a 00
        E 16 83 2a 00
        E 16 83 2a 00
        E 16 83 2a 00
        E 16 83 2a 00
        E 16 83 2a 00
        E 16 83 2a 00
        E 16 83 2a 00
        E 16 83 2a 00
        E 16 83 2a 00
        E 16 83 2a 00
        E 16 83 2a 00
        E 16 83 2a 00
        E 16 83 2a 00
        E 16 83 2a 00
        E 16 83 2a 00
        E 16 83 2a 00
        E 16 83 2a 00
        E 16 83 2a 00
        E 16 83 2a 00
        E 16 83 2a 00
        E 16 83 2a 00
        E 16 83 2a 00
        E 16 83 2a 00
        E 16 83 2a 00
        E 16 83 2a 00
        E 16 83 2a 00
        E 16 83 2a 00
        E 16 83 2a 00
        E 16 83 2a 00
        E 16 83 2a 00
        E 16 83 2a 00
        E 16 83 2a 00
        E 16 83 2a 00
        E 16 83 2a 00
        E 16 83 2a 00
        E 16 83 2a 00
        E 16 83 2a 00
        E 16 83 2a 00
        E 16 83 2a 00
        E 16 83 2a 00
        E 16 83 2a 00
        E 16 83 2a 00
        E 16 83 2a 00
        E 16 83 2a 00
        E 16 83 2a 00
        E 16 83 2a 00
        E 16 83 2a 00
        E 16 83 2a 00
        E 16 83 2a 00
        E 16 83 2a 00
        E 16 83 2a 00
        E 16 83 2a 00
        E 16 83 2a 00
        E 16 83 2a 00
        E 16 83 2a 00
        E 16 83 2a 00
        E 16 83 2a 00
        E 16 83 2a 00
        E 16 83 2a 00
        E 16 83 2a 00
        E 16 83 2a 00
        E 16 83 2a 00
        E 16 83 2a 00
        E 16 83 2a 00
        E 16 83 2a 00
        E 16 83 2a 00
        E 16 83 2a 00
        E 16 83 2a 00
        E 16 83 2a 00
        E 16 83 2a 00
        E 16 83 2a 00
        E 16 83 2a 00
        E 16 83 2a 00
        E 16 83 2a 00
        E 16 83 2a 00
        E 16 83 2a 00
        E 16 83 2a 00
        E 16 83 2a 00
        E 16 83 2a 00
        E 16 83 2a 00
        E 16 83 2a 00
        E 16 83 2a 00
        E 16 83 2a 00
        E 16 83 2a 00
        E 16 83 2a 00
        E 16 83 2a 00
        E 16 83 2a 00
        E 16 83 2a 00
        E 16 83 2a 00
        E 16 83 2a 00
        E 16 83 2a 00
        E 16 83 2a 00
        E 16 83 2a 00
        E 16 83 2a 00
        E 16 83 2a 00
        E 16 83 2a 00
        E 16 83 2a 00
        E 16 83 2a 00
        E 16 83 2a 00
        E 16 83 2a 00
        E 16 83 2a 00
        E 16 83 2a 00
        E 16 83 2a 00
        E 16 83 2a 00
        E 16 83 2a 00
        E 16 83 2a 00
        E 16 83 2a 00
        E 16 83 2a 00
        E 16 83 2a 00
        E 16 83 2a 00
        E 16 83 2a 00
        E 16 83 2a 00
        E 16 83 2a 00
        E 16 83 2a 00
        E 16 83 2a 00
        E 16 83 2a 00
        E 16 83 2a 00
        E 16 83 2a 00
        E 16 83 2a 00
        E 16 83 2a 00
        E 16 83 2a 00
        E 16 83 2a 00
        E 96 93 2a 60
        E 208 83 2a 00
        E 16 83 2a 00
        E 16 83 2a 00
        E 16 83 2a 00
        E 16 83 2a 00
        E 16 83 2a 00
        E 16 83 2a 00
        E 16 83 2a 00
        E 16 83 2a 00
        E 16 83 2a 00
        E 16 83 2a 00
        E 16 83 2a 00
        E 16 83 2a 00
        E 16 83 2a 00
        E 16 83 2a 00
        E 16 83 2a 00
        E 16 83 2a 00
        E 16 83 2a 00
        E 96 93 2a 60
        E 208 83 2a 00
        E 16 83 2a 00
        E 16 83 2a 00
        E 16 83 2a 00
        E 16 83 2a 00
        E 16 83 2a 00
        E 16 83 2a 00
        E 16 83 2a 00
        E 16 83 2a 00
        E 16 83 2a 00
        E 16 83 2a 00
        E 16 83 2a 00
        E 16 83 2a 00
        E 16 83 2a 00
        E 16 83 2a 00
        E 16 83 2a 00
        E 16 83 2a 00
        E 16 83 2a 00
        E 96 93 2a 60
        E 208 83 2a 00
        E 16 83 2a 00
        E 16 83 2a 00
        E 16 83 2a 00
        E 16 83 2a 00
        E 16 83 2a 00
        E 16 83 2a 00
        E 16 83 2a 00
        E 16 83 2a 00
        E 16 83 2a 00
        E 16 83 2a 00
        E 16 83 2a 00
        E 16 83 2a 00
        E 16 83 2a 00
        E 16 83 2a 00
        E 16 83 2a 00
        E 16 83 2a 00
        E 16 83 2a 00
        E 96 93 2a 60
        E 208 83 2a 00
        E 16 83 2a 00
        E 16 83 2a 00
        E 16 83 2a 00
        E 16 83 2a 00
        E 16 83 2a 00
        E 16 83 2a 00
        E 16 83 2a 00
        E 16 83 2a 00
        E 16 83 2a 00
        E 16 83 2a 00
        E 16 83 2a 00
        E 16 83 2a 00
        E 16 83 2a 00
        E 16 83 2a 00
        E 16 83 2a 00
        E 16 83 2a 00
        E 16 83 2a 00
        E 96 93 2a 60
        E 208 83 2a 00
        E 16 83 2a 00
        E 16 83 2a 00
        E 16 83 2a 00
        E 16 83 2a 00
        E 16 83 2a 00
        E 16 83 2a 00
        E 16 83 2a 00
        E 16 83 2a 00
        E 16 83 2a 00
        E 16 83 2a 00
        E 16 83 2a 00
        E 16 83 2a 00
        E 16 83 2a 00
        E 16 83 2a 00
        E 16 83 2a 00
        E 16 83 2a 00
        E 16 83 2a 00
        E 96 93 2a 60
        E 208 83 2a 00
        E 16 83 2a 00
        E 16 83 2a 00
        E 16 83 2a 00
        E 16 83 2a 00
        E 16 83 2a 00
        E 16 83 2a 00
        E 16 83 2a 00
        E 16 83 2a 00
        E 16 83 2a 00
        E 16 83 2a 00
        E 16 83 2a 00
        E 16 83 2a 00
        E 16 83 2a 00
        E 16 83 2a 00
        E 16 83 2a 00
        E 16 83 2a 00
        E 16 83 2a 00
        E 96 93 2a 60
        E 208 83 2a 00
        E 16 83 2a 00
        E 16 83 2a 00
        E 16 83 2a 00
        E 16 83 2a 00
        E 16 83 2a 00
        E 16 83 2a 00
        E 16 83 2a 00
        E 16 83 2a 00
        E 16 83 2a 00
        E 16 83 2a 00
        E 16 83 2a 00
        E 16 83 2a 00
        E 16 83 2a 00
        E 16 83 2a 00
        E 16 83 2a 00
        E 16 83 2a 00
        E 16 83 2a 00
        E 96 93 2a 60
        E 208 83 2a 00
        E 16 83 2a 00
        E 16 83 2a 00
        E 16 83 2a 00
        E 16 83 2a 00
        E 16 83 2a 00
        E 16 83 2a 00
        E 16 83 2a 00
        E 16 83 2a 00
        E 16 83 2a 00
        E 16 83 2a 00
        E 16 83 2a 00
        E 16 83 2a 00
        E 16 83 2a 00
        E 16 83 2a 00
        E 16 83 2a 00
        E 16 83 2a 00
        E 16 83 2a 00
        E 96 93 2a 60
        E 208 83 2a 00
        E 16 83 2a 00
        E 16 83 2a 00
        E 16 83 2a 00
        E 16 83 2a 00
        E 16 83 2a 00
        E 16 83 2a 00
        E 16 83 2a 00
        E 16 83 2a 00
        E 16 83 2a 00
        E 16 83 2a 00
        E 16 83 2a 00
        E 16 83 2a 00
        E 16 83 2a 00
        E 16 83 2a 00
        E 16 83 2a 00
        E 16 83 2a 00
        E 16 83 2a 00
        E 96 93 2a 60
        E 208 83 2a 00
        E 16 83 2a 00
        E 16 83 2a 00
        E 16 83 2a 00
        E 16 83 2a 00
        E 16 83 2a 00
        E 16 83 2a 00
        E 16 83 2a 00
        E 16 83 2a 00
        E 16 83 2a 00
        E 16 83 2a 00
        E 16 83 2a 00
        E 16 83 2a 00
        E 16 83 2a 00
        E 16 83 2a 00
        E 16 83 2a 00
        E 16 83 2a 00
        E 16 83 2a 00
        E 96 93 2a 60
        E 208 83 2a 00
        E 16 83 2a 00
        E 16 83 2a 00
        E 16 83 2a 00
        E 16 83 2a 00
        E 16 83 2a 00
        E 16 83 2a 00
        E 16 83 2a 00
        E 16 83 2a 00
        E 16 83 2a 00
        E 16 83 2a 00
        E 16 83 2a 00
        E 16 83 2a 00
        E 16 83 2a 00
        E 16 83 2a 00
        E 16 83 2a 00
        E 16 83 2a 00
        E 16 83 2a 00
        E 96 93 2a 60
        E 208 83 2a 00
        E 16 83 2a 00
        E 16 83 2a 00
        E 16 83 2a 00
        E 16 83 2a 00
        E 16 83 2a 00
        E 16 83 2a 00
        E 16 83 2a 00
        E 16 83 2a 00
        E 16 83 2a 00
        E 16 83 2a 00
        E 16 83 2a 00
        E 16 83 2a 00
        E 16 83 2a 00
        E 16 83 2a 00
        E 16 83 2a 00
        E 16 83 2a 00
        E 16 83 2a 00
        E 96 93 2a 60
        E 208 83 2a 00
        E 16 83 2a 00
        E 16 83 2a 00
        E 16 83 2a 00
        E 16 83 2a 00
        E 16 83 2a 00
        E 16 83 2a 00
        E 16 83 2a 00
        E 16 83 2a 00
        E 16 83 2a 00
        E 16 83 2a 00
        E 16 83 2a 00
        E 16 83 2a 00
        E 16 83 2a 00
        E 16 83 2a 00
        E 16 83 2a 00
        E 16 83 2a 00
        E 16 83 2a 00
        E 96 93 2a 60
        E 208 83 2a 00
        E 16 83 2a 00
        E 16 83 2a 00
        E 16 83 2a 00
        E 16 83 2a 00
        E 16 83 2a 00
        E 16 83 2a 00
        E 16 83 2a 00
        E 16 83 2a 00
        E 16 83 2a 00
        E 16 83 2a 00
        E 16 83 2a 00
        E 16 83 2a 00
        E 16 83 2a 00
        E 16 83 2a 00
        E 16 83 2a 00
        E 16 83 2a 00
        E 16 83 2a 00
        E 96 93 2a 60
        E 208 83 2a 00
        E 16 83 2a 00
        E 16 83 2a 00
        E 16 83 2a 00
        E 16 83 2a 00
        E 16 83 2a 00
        E 16 83 2a 00
        E 16 83 2a 00
        E 16 83 2a 00
        E 16 83 2a 00
        E 16 83 2a 00
        E 16 83 2a 00
        E 16 83 2a 00
        E 16 83 2a 00
        E 16 83 2a 00
        E 16 83 2a 00
        E 16 83 2a 00
        E 16 83 2a 00
        E 96 93 2a 60
        E 208 83 2a 00
        E 16 83 2a 00
        E 16 83 2a 00
        E 16 83 2a 00
        E 16 83 2a 00
        E 16 83 2a 00
        E 16 83 2a 00
        E 16 83 2a 00
        E 16 83 2a 00
        E 16 83 2a 00
        E 16 83 2a 00
        E 16 83 2a 00
        E 16 83 2a 00
        E 16 83 2a 00
        E 16 83 2a 00
        E 16 83 2a 00
        E 16 83 2a 00
        E 16 83 2a 00
        E 96 93 2a 60
        E 208 83 2a 00
        E 16 83 2a 00
        E 16 83 2a 00
        E 16 83 2a 00
        E 16 83 2a 00
        E 16 83 2a 00
        E 16 83 2a 00
        E 16 83 2a 00
        E 16 83 2a 00
        E 16 83 2a 00
        E 16 83 2a 00
        E 16 83 2a 00
        E 16 83 2a 00
        E 16 83 2a 00
        E 16 83 2a 00
        E 16 83 2a 00
        E 16 83 2a 00
        E 16 83 2a 00
        E 96 93 2a 60
        E 208 83 2a 00
        E 16 83 2a 00
        E 16 83 2a 00
        E 16 83 2a 00
        E 16 83 2a 00
        E 16 83 2a 00
        E 16 83 2a 00
        E 16 83 2a 00
        E 16 83 2a 00
        E 16 83 2a 00
        E 16 83 2a 00
        E 16 83 2a 00
        E 16 83 2a 00
        E 16 83 2a 00
        E 16 83 2a 00
        E 16 83 2a 00
        E 16 83 2a 00
        E 16 83 2a 00
        E 96 93 2a 60
        E 208 83 2a 00
        E 16 83 2a 00
        E 16 83 2a 00
        E 16 83 2a 00
        E 16 83 2a 00
        E 16 83 2a 00
        E 16 83 2a 00
        E 16 83 2a 00
        E 16 83 2a 00
        E 16 83 2a 00
        E 16 83 2a 00
        E 16 83 2a 00
        E 16 83 2a 00
        E 16 83 2a 00
        E 16 83 2a 00
        E 16 83 2a 00
        E 16 83 2a 00
        E 16 83 2a 00
        E 96 93 2a 60
        E 208 83 2a 00
        E 16 83 2a 00
        E 16 83 2a 00
        E 16 83 2a 00
        E 16 83 2a 00
        E 16 83 2a 00
        E 16 83 2a 00
        E 16 83 2a 00
        E 16 83 2a 00
        E 16 83 2a 00
        E 16 83 2a 00
        E 16 83 2a 00
        E 16 83 2a 00
        E 16 83 2a 00
        E 16 83 2a 00
        E 16 83 2a 00
        E 16 83 2a 00
        E 16 83 2a 00
        E 96 93 2a 60
        E 208 83 2a 00
        E 16 83 2a 00
        E 16 83 2a 00
        E 16 83 2a 00
        E 16 83 2a 00
        E 16 83 2a 00
        E 16 83 2a 00
        E 16 83 2a 00
        E 16 83 2a 00
        E 16 83 2a 00
        E 16 83 2a 00
        E 16 83 2a 00
        E 16 83 2a 00
        E 16 83 2a 00
        E 16 83 2a 00
        E 16 83 2a 00
        E 16 83 2a 00
        E 16 83 2a 00
        E 96 93 2a 60
        E 208 83 2a 00
        E 16 83 2a 00
        E 16 83 2a 00
        E 16 83 2a 00
        E 16 83 2a 00
        E 16 83 2a 00
        E 16 83 2a 00
        E 16 83 2a 00
        E 16 83 2a 00
        E 16 83 2a 00
        E 16 83 2a 00
        E 16 83 2a 00
        E 16 83 2a 00
        E 16 83 2a 00
        E 16 83 2a 00
        E 16 83 2a 00
        E 16 83 2a 00
        E 16 83 2a 00
        E 96 93 2a 60
        E 208 83 2a 00
        E 16 83 2a 00
        E 16 83 2a 00
        E 16 83 2a 00
        E 16 83 2a 00
        E 16 83 2a 00
        E 16 83 2a 00
        E 16 83 2a 00
        E 16 83 2a 00
        E 16 83 2a 00
        E 16 83 2a 00
        E 16 83 2a 00
        E 16 83 2a 00
        E 16 83 2a 00
        E 16 83 2a 00
        E 16 83 2a 00
        E 16 83 2a 00
        E 16 83 2a 00
        E 96 93 2a 60
        E 208 83 2a 00
        E 16 83 2a 00
        E 16 83 2a 00
        E 16 83 2a 00
        E 16 83 2a 00
        E 16 83 2a 00
        E 16 83 2a 00
        E 16 83 2a 00
        E 16 83 2a 00
        E 16 83 2a 00
        E 16 83 2a 00
        E 16 83 2a 00
        E 16 83 2a 00
        E 16 83 2a 00
        E 16 83 2a 00
        E 16 83 2a 00
        E 16 83 2a 00
        E 16 83 2a 00
        E 96 93 2a 60
        E 208 83 2a 00
        E 16 83 2a 00
        E 16 83 2a 00
        E 16 83 2a 00
        E 16 83 2a 00
        E 16 83 2a 00
        E 16 83 2a 00
        E 16 83 2a 00
        E 16 83 2a 00
        E 16 83 2a 00
        E 16 83 2a 00
        E 16 83 2a 00
        E 16 83 2a 00
        E 16 83 2a 00
        E 16 83 2a 00
        E 16 83 2a 00
        E 16 83 2a 00
        E 16 83 2a 00
        E 96 93 2a 60
        E 208 83 2a 00
        E 16 83 2a 00
        E 16 83 2a 00
        E 16 83 2a 00
        E 16 83 2a 00
        E 16 83 2a 00
        E 16 83 2a 00
        E 16 83 2a 00
        E 16 83 2a 00
        E 16 83 2a 00
        E 16 83 2a 00
        E 16 83 2a 00
        E 16 83 2a 00
        E 16 83 2a 00
        E 16 83 2a 00
        E 16 83 2a 00
        E 16 83 2a 00
        E 16 83 2a 00
        E 96 93 2a 60
        E 208 83 2a 00
        E 16 83 2a 00
        E 16 83 2a 00
        E 16 83 2a 00
        E 16 83 2a 00
        E 16 83 2a 00
        E 16 83 2a 00
        E 16 83 2a 00
        E 16 83 2a 00
        E 16 83 2a 00
        E 16 83 2a 00
        E 16 83 2a 00
        E 16 83 2a 00
        E 16 83 2a 00
        E 16 83 2a 00
        E 16 83 2a 00
        E 16 83 2a 00
        E 16 83 2a 00
        E 96 93 2a 60
        E 208 83 2a 00
        E 16 83 2a 00
        E 16 83 2a 00
        E 16 83 2a 00
        E 16 83 2a 00
        E 16 83 2a 00
        E 16 83 2a 00
        E 16 83 2a 00
        E 16 83 2a 00
        E 16 83 2a 00
        E 16 83 2a 00
        E 16 83 2a 00
        E 16 83 2a 00
        E 16 83 2a 00
        E 16 83 2a 00
        E 16 83 2a 00
        E 16 83 2a 00
        E 16 83 2a 00
        E 96 93 2a 60
        E 208 83 2a 00
        E 16 83 2a 00
        E 16 83 2a 00
        E 16 83 2a 00
        E 16 83 2a 00
        E 16 83 2a 00
        E 16 83 2a 00
        E 16 83 2a 00
        E 16 83 2a 00
        E 16 83 2a 00
        E 16 83 2a 00
        E 16 83 2a 00
        E 16 83 2a 00
        E 16 83 2a 00
        E 16 83 2a 00
        E 16 83 2a 00
        E 16 83 2a 00
        E 16 83 2a 00
        E 96 93 2a 60
        E 208 83 2a 00
        E 16 83 2a 00
        E 16 83 2a 00
        E 16 83 2a 00
        E 16 83 2a 00
        E 16 83 2a 00
        E 16 83 2a 00
        E 16 83 2a 00
        E 16 83 2a 00
        E 16 83 2a 00
        E 16 83 2a 00
        E 16 83 2a 00
        E 16 83 2a 00
        E 16 83 2a 00
        E 16 83 2a 00
        E 16 83 2a 00
        E 16 83 2a 00
        E 16 83 2a 00
        E 96 93 2a 60
        E 208 83 2a 00
        E 16 83 2a 00
        E 16 83 2a 00
        E 16 83 2a 00
        E 16 83 2a 00
        E 16 83 2a 00
        E 16 83 2a 00
        E 16 83 2a 00
        E 16 83 2a 00
        E 16 83 2a 00
        E 16 83 2a 00
        E 16 83 2a 00
        E 16 83 2a 00
        E 16 83 2a 00
        E 16 83 2a 00
        E 16 83 2a 00
        E 16 83 2a 00
        E 16 83 2a 00
        E 96 93 2a 60
        E 208 83 2a 00
        E 16 83 2a 00
        E 16 83 2a 00
        E 16 83 2a 00
        E 16 83 2a 00
        E 16 83 2a 00
        E 16 83 2a 00
        E 16 83 2a 00
        E 16 83 2a 00
        E 16 83 2a 00
        E 16 83 2a 00
        E 16 83 2a 00
        E 16 83 2a 00
        E 16 83 2a 00
        E 16 83 2a 00
        E 16 83 2a 00
        E 16 83 2a 00
        E 16 83 2a 00
        E 96 93 2a 60
        E 208 83 2a 00
        E 16 83 2a 00
        E 16 83 2a 00
        E 16 83 2a 00
        E 16 83 2a 00
        E 16 83 2a 00
        E 16 83 2a 00
        E 16 83 2a 00
        E 16 83 2a 00
        E 16 83 2a 00
        E 16 83 2a 00
        E 16 83 2a 00
        E 16 83 2a 00
        E 16 83 2a 00
        E 16 83 2a 00
        E 16 83 2a 00
        E 16 83 2a 00
        E 16 83 2a 00
        E 96 93 2a 60
        E 208 83 2a 00
        E 16 83 2a 00
        E 16 83 2a 00
        E 16 83 2a 00
        E 16 83 2a 00
        E 16 83 2a 00
        E 16 83 2a 00
        E 16 83 2a 00
        E 16 83 2a 00
        E 16 83 2a 00
        E 16 83 2a 00
        E 16 83 2a 00
        E 16 83 2a 00
        E 16 83 2a 00
        E 16 83 2a 00
        E 16 83 2a 00
        E 16 83 2a 00
        E 16 83 2a 00
        E 96 93 2a 60
        E 208 83 2a 00
        E 16 83 2a 00
        E 16 83 2a 00
        E 16 83 2a 00
        E 16 83 2a 00
        E 16 83 2a 00
        E 16 83 2a 00
        E 16 83 2a 00
        E 16 83 2a 00
        E 16 83 2a 00
        E 16 83 2a 00
        E 16 83 2a 00
        E 16 83 2a 00
        E 16 83 2a 00
        E 16 83 2a 00
        E 16 83 2a 00
        E 16 83 2a 00
        E 16 83 2a 00
        E 96 93 2a 60
        E 208 83 2a 00
        E 16 83 2a 00
        E 16 83 2a 00
        E 16 83 2a 00
        E 16 83 2a 00
        E 16 83 2a 00
        E 16 83 2a 00
        E 16 83 2a 00
        E 16 83 2a 00
        E 16 83 2a 00
        E 16 83 2a 00
        E 16 83 2a 00
        E 16 83 2a 00
        E 16 83 2a 00
        E 16 83 2a 00
        E 16 83 2a 00
        E 16 83 2a 00
        E 16 83 2a 00
        E 96 93 2a 60
        E 208 83 2a 00
        E 16 83 2a 00
        E 16 83 2a 00
        E 16 83 2a 00
        E 16 83 2a 00
        E 16 83 2a 00
        E 16 83 2a 00
        E 16 83 2a 00
        E 16 83 2a 00
        E 16 83 2a 00
        E 16 83 2a 00
        E 16 83 2a 00
        E 16 83 2a 00
        E 16 83 2a 00
        E 16 83 2a 00
        E 16 83 2a 00
        E 16 83 2a 00
        E 16 83 2a 00
        E 96 93 2a 60
        E 208 83 2a 00
        E 16 83 2a 00
        E 16 83 2a 00
        E 16 83 2a 00
        E 16 83 2a 00
        E 16 83 2a 00
        E 16 83 2a 00
        E 16 83 2a 00
        E 16 83 2a 00
        E 16 83 2a 00
        E 16 83 2a 00
        E 16 83 2a 00
        E 16 83 2a 00
        E 16 83 2a 00
        E 16 83 2a 00
        E 16 83 2a 00
        E 16 83 2a 00
        E 16 83 2a 00
        E 96 93 2a 60
        E 208 83 2a 00
        E 16 83 2a 00
        E 16 83 2a 00
        E 16 83 2a 00
        E 16 83 2a 00
        E 16 83 2a 00
        E 16 83 2a 00
        E 16 83 2a 00
        E 16 83 2a 00
        E 16 83 2a 00
        E 16 83 2a 00
        E 16 83 2a 00
        E 16 83 2a 00
        E 16 83 2a 00
        E 16 83 2a 00
        E 16 83 2a 00
        E 16 83 2a 00
        E 16 83 2a 00
        E 96 93 2a 60
        E 208 83 2a 00
        E 16 83 2a 00
        E 16 83 2a 00
        E 16 83 2a 00
        E 16 83 2a 00
        E 16 83 2a 00
        E 16 83 2a 00
        E 16 83 2a 00
        E 16 83 2a 00
        E 16 83 2a 00
        E 16 83 2a 00
        E 16 83 2a 00
        E 16 83 2a 00
        E 16 83 2a 00
        E 16 83 2a 00
        E 16 83 2a 00
        E 16 83 2a 00
        E 16 83 2a 00
        E 96 93 2a 60
        E 208 83 2a 00
        E 16 83 2a 00
        E 16 83 2a 00
        E 16 83 2a 00
        E 16 83 2a 00
        E 16 83 2a 00
        E 16 83 2a 00
        E 16 83 2a 00
        E 16 83 2a 00
        E 16 83 2a 00
        E 16 83 2a 00
        E 16 83 2a 00
        E 16 83 2a 00
        E 16 83 2a 00
        E 16 83 2a 00
        E 16 83 2a 00
        E 16 83 2a 00
        E 16 83 2a 00
        E 96 93 2a 60
        E 208 83 2a 00
        E 16 83 2a 00
        E 16 83 2a 00
        E 16 83 2a 00
        E 16 83 2a 00
        E 16 83 2a 00
        E 16 83 2a 00
        E 16 83 2a 00
        E 16 83 2a 00
        E 16 83 2a 00
        E 16 83 2a 00
        E 16 83 2a 00
        E 16 83 2a 00
        E 16 83 2a 00
        E 16 83 2a 00
        E 16 83 2a 00
        E 16 83 2a 00
        E 16 83 2a 00
        E 96 93 2a 60
        E 208 83 2a 00
        E 16 83 2a 00
        E 16 83 2a 00
        E 16 83 2a 00
        E 16 83 2a 00
        E 16 83 2a 00
        E 16 83 2a 00
        E 16 83 2a 00
        E 16 83 2a 00
        E 16 83 2a 00
        E 16 83 2a 00
        E 16 83 2a 00
        E 16 83 2a 00
        E 16 83 2a 00
        E 16 83 2a 00
        E 16 83 2a 00
        E 16 83 2a 00
        E 16 83 2a 00
        E 96 93 2a 60
        E 208 83 2a 00
        E 16 83 2a 00
        E 16 83 2a 00
        E 16 83 2a 00
        E 16 83 2a 00
        E 16 83 2a 00
        E 16 83 2a 00
        E 16 83 2a 00
        E 16 83 2a 00
        E 16 83 2a 00
        E 16 83 2a 00
        E 16 83 2a 00
        E 16 83 2a 00
        E 16 83 2a 00
        E 16 83 2a 00
        E 16 83 2a 00
        E 16 83 2a 00
        E 16 83 2a 00
        E 96 93 2a 60
        E 208 83 2a 00
        E 16 83 2a 00
        E 16 83 2a 00
        E 16 83 2a 00
        E 16 83 2a 00
        E 16 83 2a 00
        E 16 83 2a 00
        E 16 83 2a 00
        E 16 83 2a 00
        E 16 83 2a 00
        E 16 83 2a 00
        E 16 83 2a 00
        E 16 83 2a 00
        E 16 83 2a 00
        E 16 83 2a 00
        E 16 83 2a 00
        E 16 83 2a 00
        E 16 83 2a 00
        E 96 93 2a 60
        E 208 83 2a 00
        E 16 83 2a 00
        E 16 83 2a 00
        E 16 83 2a 00
        E 16 83 2a 00
        E 16 83 2a 00
        E 16 83 2a 00
        E 16 83 2a 00
        E 16 83 2a 00
        E 16 83 2a 00
        E 16 83 2a 00
        E 16 83 2a 00
        E 16 83 2a 00
        E 16 83 2a 00
        E 16 83 2a 00
        E 16 83 2a 00
        E 16 83 2a 00
        E 16 83 2a 00
        E 96 93 2a 60
        E 208 83 2a 00
        E 16 83 2a 00
        E 16 83 2a 00
        E 16 83 2a 00
        E 16 83 2a 00
        E 16 83 2a 00
        E 16 83 2a 00
        E 16 83 2a 00
        E 16 83 2a 00
        E 16 83 2a 00
        E 16 83 2a 00
        E 16 83 2a 00
        E 16 83 2a 00
        E 16 83 2a 00
        E 16 83 2a 00
        E 16 83 2a 00
        E 16 83 2a 00
        E 16 83 2a 00
        E 96 93 2a 60
        E 208 83 2a 00
        E 16 83 2a 00
        E 16 83 2a 00
        E 16 83 2a 00
        E 16 83 2a 00
        E 16 83 2a 00
        E 16 83 2a 00
        E 16 83 2a 00
        E 16 83 2a 00
        E 16 83 2a 00
        E 16 83 2a 00
        E 16 83 2a 00
        E 16 83 2a 00
        E 16 83 2a 00
        E 16 83 2a 00
        E 16 83 2a 00
        E 16 83 2a 00
        E 16 83 2a 00
        E 16 83 2a 00
        E 16 83 2a 00
        E 16 83 2a 00
        E 16 83 2a 00
        E 16 83 2a 00
        E 16 83 2a 00
        E 16 83 2a 00
        E 16 83 2a 00
        E 16 83 2a 00
        E 16 83 2a 00
        E 16 83 2a 00
        E 16 83 2a 00
        E 16 83 2a 00
        E 16 83 2a 00
        E 16 83 2a 00
        E 16 83 2a 00
        E 16 83 2a 00
        E 16 83 2a 00
        E 16 83 2a 00
        E 16 83 2a 00
        E 16 83 2a 00
        E 16 83 2a 00
        E 16 83 2a 00
        E 16 83 2a 00
        E 16 83 2a 00
        E 16 83 2a 00
        E 16 83 2a 00
        E 16 83 2a 00
        E 16 83 2a 00
        E 16 83 2a 00
        E 16 83 2a 00
        E 16 83 2a 00
        E 16 83 2a 00
        E 16 83 2a 00
        E 16 83 2a 00
        E 16 83 2a 00
        E 16 83 2a 00
        E 16 83 2a 00
        E 16 83 2a 00
        E 16 83 2a 00
        E 16 83 2a 00
        E 16 83 2a 00
        E 16 83 2a 00
        E 16 83 2a 00
        E 16 83 2a 00
        E 16 83 2a 00
        E 16 83 2a 00
        E 16 83 2a 00
        E 16 83 2a 00
        E 16 83 2a 00
        E 16 83 2a 00
        E 16 83 2a 00
        E 16 83 2a 00
        E 16 83 2a 00
        E 16 83 2a 00
        E 16 83 2a 00
        E 16 83 2a 00
        E 16 83 2a 00
        E 16 83 2a 00
        E 16 83 2a 00
        E 16 83 2a 00
        E 16 83 2a 00
        E 16 83 2a 00
        E 16 83 2a 00
        E 16 83 2a 00
        E 16 83 2a 00
        E 16 83 2a 00
        E 16 83 2a 00
        E 16 83 2a 00
        E 16 83 2a 00
        E 16 83 2a 00
        E 16 83 2a 00
        E 16 83 2a 00
        E 16 83 2a 00
        E 16 83 2a 00
        E 16 83 2a 00
        E 16 83 2a 00
        E 16 83 2a 00
        E 16 83 2a 00
        E 16 83 2a 00
        E 16 83 2a 00
        E 16 83 2a 00
        E 16 83 2a 00
        E 16 83 2a 00
        E 16 83 2a 00
        E 16 83 2a 00
        E 16 83 2a 00
        E 16 83 2a 00
        E 16 83 2a 00
        E 16 83 2a 00
        E 16 83 2a 00
        E 16 83 2a 00
        E 16 83 2a 00
        E 16 83 2a 00
        E 16 83 2a 00
        E 16 83 2a 00
        E 16 83 2a 00
        E 16 83 2a 00
        E 16 83 2a 00
        E 16 83 2a 00
        E 16 83 2a 00
        E 16 83 2a 00
        E 16 83 2a 00
        E 16 83 2a 00
        E 16 83 2a 00
        E 16 83 2a 00
        E 16 83 2a 00
        E 16 83 2a 00
        E 16 83 2a 00
        E 16 83 2a 00
        E 16 83 2a 00
        E 16 83 2a 00
        E 16 83 2a 00
        E 16 83 2a 00
        E 16 83 2a 00
        E 16 83 2a 00
        E 16 83 2a 00
        E 16 83 2a 00
        E 16 83 2a 00
        E 16 83 2a 00
        E 16 83 2a 00
        E 16 83 2a 00
        E 16 83 2a 00
        E 16 83 2a 00
        E 16 83 2a 00
        E 16 83 2a 00
        E 16 83 2a 00
        E 16 83 2a 00
        E 16 83 2a 00
        E 16 83 2a 00
        E 16 83 2a 00
        E 16 83 2a 00
        E 16 83 2a 00
        E 16 83 2a 00
        E 16 83 2a 00
        E 16 83 2a 00
        E 16 83 2a 00
        E 16 83 2a 00
        E 16 83 2a 00
        E 16 83 2a 00
        E 16 83 2a 00
        E 16 83 2a 00
        E 16 83 2a 00
        E 16 83 2a 00
        E 16 83 2a 00
        E 16 83 2a 00
        E 16 83 2a 00
        E 16 83 2a 00
        E 16 83 2a 00
        E 16 83 2a 00
        E 16 83 2a 00
        E 16 83 2a 00
        E 16 83 2a 00
        E 16 83 2a 00
        E 16 83 2a 00
        E 16 83 2a 00
        E 16 83 2a 00
        E 16 83 2a 00
        E 16 83 2a 00
        E 16 83 2a 00
        E 16 83 2a 00
        E 16 83 2a 00
        E 16 83 2a 00
        E 16 83 2a 00
        E 16 83 2a 00
        E 16 83 2a 00
        E 16 83 2a 00
        E 16 83 2a 00
        E 16 83 2a 00
        E 16 83 2a 00
        E 16 83 2a 00
        E 16 83 2a 00
        E 16 83 2a 00
        E 16 83 2a 00
        E 16 83 2a 00
        E 16 83 2a 00
        E 16 83 2a 00
        E 16 83 2a 00
        E 16 83 2a 00
        E 16 83 2a 00
        E 16 83 2a 00
        E 16 83 2a 00
        E 16 83 2a 00
        E 16 83 2a 00
        E 16 83 2a 00
        E 16 83 2a 00
        E 16 83 2a 00
        E 16 83 2a 00
        E 16 83 2a 00
        E 16 83 2a 00
        E 16 83 2a 00
        E 16 83 2a 00
        E 16 83 2a 00
        E 16 83 2a 00
        E 16 83 2a 00
        E 16 83 2a 00
        E 16 83 2a 00
        E 16 83 2a 00
        E 16 83 2a 00
        E 16 83 2a 00
        E 16 83 2a 00
        E 16 83 2a 00
        E 16 83 2a 00
        E 16 83 2a 00
        E 16 83 2a 00
        E 16 83 2a 00
        E 16 83 2a 00
        E 16 83 2a 00
        E 16 83 2a 00
        E 16 83 2a 00
        E 16 83 2a 00
        E 16 83 2a 00
        E 16 83 2a 00
        E 16 83 2a 00
        E 16 83 2a 00
        E 16 83 2a 00
        E 16 83 2a 00
        E 16 83 2a 00
        E 16 83 2a 00
        E 16 83 2a 00
        E 16 83 2a 00
        E 16 83 2a 00
        E 16 83 2a 00
        E 16 83 2a 00
        E 16 83 2a 00
        E 16 83 2a 00
        E 16 83 2a 00
        E 16 83 2a 00
        E 16 83 2a 00
        E 16 83 2a 00
        E 16 83 2a 00
        E 16 83 2a 00
        E 16 83 2a 00
        E 16 83 2a 00
        E 16 83 2a 00
        E 16 83 2a 00
        E 16 83 2a 00
        E 16 83 2a 00
        E 16 83 2a 00
        E 16 83 2a 00
        E 16 83 2a 00
        E 16 83 2a 00
        E 16 83 2a 00
        E 16 83 2a 00
        E 16 83 2a 00
        E 16 83 2a 00
        E 16 83 2a 00
        E 16 83 2a 00
        E 16 83 2a 00
        E 16 83 2a 00
        E 16 83 2a 00
        E 16 83 2a 00
        E 16 83 2a 00
        E 16 83 2a 00
        E 16 83 2a 00
        E 16 83 2a 00
        E 16 83 2a 00
        E 16 83 2a 00
        E 16 83 2a 00
        E 16 83 2a 00
        E 16 83 2a 00
        E 16 83 2a 00
        E 16 83 2a 00
        E 16 83 2a 00
        E 16 83 2a 00
        E 16 83 2a 00
        E 16 83 2a 00
        E 16 83 2a 00
        E 16 83 2a 00
        E 16 83 2a 00
        E 16 83 2a 00
        E 16 83 2a 00
        E 16 83 2a 00
        E 16 83 2a 00
        E 16 83 2a 00
        E 16 83 2a 00
        E 16 83 2a 00
        E 16 83 2a 00
        E 16 83 2a 00
        E 16 83 2a 00
        E 16 83 2a 00
        E 16 83 2a 00
        E 16 83 2a 00
        E 16 83 2a 00
        E 16 83 2a 00
        E 16 83 2a 00
        E 16 83 2a 00
        E 16 83 2a 00
        E 16 83 2a 00
        E 16 83 2a 00
        E 16 83 2a 00
        E 16 83 2a 00
        E 16 83 2a 00
        E 16 83 2a 00
        E 16 83 2a 00
        E 16 83 2a 00
        E 16 83 2a 00
        E 16 83 2a 00
        E 16 83 2a 00
        E 16 83 2a 00
        E 16 83 2a 00
        E 16 83 2a 00
        E 16 83 2a 00
        E 16 83 2a 00
        E 16 83 2a 00
        E 16 83 2a 00
        E 16 83 2a 00
        E 16 83 2a 00
        E 16 83 2a 00
        E 16 83 2a 00
        E 16 83 2a 00
        E 16 83 2a 00
        E 16 83 2a 00
        E 16 83 2a 00
        E 16 83 2a 00
        E 16 83 2a 00
        E 16 83 2a 00
        E 16 83 2a 00
        E 16 83 2a 00
        E 16 83 2a 00
        E 16 83 2a 00
        E 16 83 2a 00
        E 16 83 2a 00
        E 16 83 2a 00
        E 16 83 2a 00
        E 16 83 2a 00
        E 16 83 2a 00
        E 16 83 2a 00
        E 16 83 2a 00
        E 16 83 2a 00
        E 16 83 2a 00
        E 16 83 2a 00
        E 16 83 2a 00
        E 16 83 2a 00
        E 16 83 2a 00
        E 16 83 2a 00
        E 16 83 2a 00
        E 16 83 2a 00
        E 16 83 2a 00
        E 16 83 2a 00
        E 16 83 2a 00
        E 16 83 2a 00
        E 16 83 2a 00
        E 16 83 2a 00
        E 16 83 2a 00
        E 16 83 2a 00
        E 16 83 2a 00
        E 16 83 2a 00
        E 16 83 2a 00
        E 16 83 2a 00
        E 16 83 2a 00
        E 16 83 2a 00
        E 16 83 2a 00
        E 16 83 2a 00
        E 16 83 2a 00
        E 16 83 2a 00
        E 16 83 2a 00
        E 16 83 2a 00
        E 16 83 2a 00
        E 16 83 2a 00
        E 16 83 2a 00
        E 16 83 2a 00
        E 16 83 2a 00
        E 16 83 2a 00
        E 16 83 2a 00
        E 16 83 2a 00
        E 16 83 2a 00
        E 16 83 2a 00
        E 16 83 2a 00
        E 16 83 2a 00
        E 16 83 2a 00
        E 16 83 2a 00
        E 16 83 2a 00
        E 16 83 2a 00
        E 16 83 2a 00
        E 16 83 2a 00
        E 16 83 2a 00
        E 16 83 2a 00
        E 16 83 2a 00
        E 16 83 2a 00
        E 16 83 2a 00
        E 16 83 2a 00
        E 16 83 2a 00
        E 16 83 2a 00
        E 16 83 2a 00
        E 16 83 2a 00
        E 16 83 2a 00
        E 16 83 2a 00
        E 16 83 2a 00
        E 16 83 2a 00
        E 16 83 2a 00
        E 16 83 2a 00
        E 16 83 2a 00
        E 16 83 2a 00
        E 16 83 2a 00
        E 16 83 2a 00
        E 16 83 2a 00
        E 16 83 2a 00
        E 16 83 2a 00
        E 16 83 2a 00
        E 16 83 2a 00
        E 16 83 2a 00
        E 16 83 2a 00
        E 16 83 2a 00
        E 16 83 2a 00
        E 16 83 2a 00
        E 16 83 2a 00
        E 16 83 2a 00
        E 16 83 2a 00
        E 16 83 2a 00
        E 16 83 2a 00
        E 16 83 2a 00
        E 16 83 2a 00
        E 16 83 2a 00
        E 16 83 2a 00
        E 16 83 2a 00
        E 16 83 2a 00
        E 16 83 2a 00
        E 16 83 2a 00
        E 16 83 2a 00
        E 16 83 2a 00
        E 16 83 2a 00
        E 16 83 2a 00
        E 16 83 2a 00
        E 16 83 2a 00
        E 16 83 2a 00
        E 16 83 2a 00
        E 16 83 2a 00
        E 16 83 2a 00
        E 16 83 2a 00
        E 16 83 2a 00
        E 16 83 2a 00
        E 16 83 2a 00
        E 16 83 2a 00
        E 16 83 2a 00
        E 16 83 2a 00
        E 16 83 2a 00
        E 16 83 2a 00
        E 16 83 2a 00
        E 16 83 2a 00
        E 16 83 2a 00
        E 16 83 2a 00
        E 16 83 2a 00
        E 16 83 2a 00
        E 16 83 2a 00
        E 16 83 2a 00
        E 16 83 2a 00
        E 16 83 2a 00
        E 16 83 2a 00
        E 16 83 2a 00
        E 16 83 2a 00
        E 16 83 2a 00
        E 16 83 2a 00
        E 16 83 2a 00
        E 16 83 2a 00
        E 16 83 2a 00
        E 16 83 2a 00
        E 16 83 2a 00
        E 16 83 2a 00
        E 16 83 2a 00
        E 16 83 2a 00
        E 16 83 2a 00
        E 16 83 2a 00
        E 16 83 2a 00
        E 16 83 2a 00
        E 16 83 2a 00
        E 16 83 2a 00
        E 16 83 2a 00
        E 16 83 2a 00
        E 16 83 2a 00
        E 16 83 2a 00
        E 16 83 2a 00
        E 16 83 2a 00
        E 16 83 2a 00
        E 16 83 2a 00
        E 16 83 2a 00
        E 16 83 2a 00
        E 16 83 2a 00
        E 16 83 2a 00
        E 16 83 2a 00
        E 16 83 2a 00
        E 16 83 2a 00
        E 16 83 2a 00
        E 16 83 2a 00
        E 16 83 2a 00
        E 16 83 2a 00
        E 16 83 2a 00
        E 16 83 2a 00
        E 16 83 2a 00
        E 16 83 2a 00
        E 16 83 2a 00
        E 16 83 2a 00
        E 16 83 2a 00
        E 16 83 2a 00
        E 16 83 2a 00
        E 16 83 2a 00
        E 16 83 2a 00
        E 16 83 2a 00
        E 16 83 2a 00
        E 16 83 2a 00
        E 16 83 2a 00
        E 16 83 2a 00
        E 16 83 2a 00
        E 16 83 2a 00
        E 16 83 2a 00
        E 16 83 2a 00
        E 16 83 2a 00
        E 16 83 2a 00
        E 16 83 2a 00
        E 16 83 2a 00
        E 16 83 2a 00
        E 16 83 2a 00
        E 16 83 2a 00
        E 16 83 2a 00
        E 16 83 2a 00
        E 16 83 2a 00
        E 16 83 2a 00
        E 16 83 2a 00
        E 16 83 2a 00
        E 16 83 2a 00
        E 16 83 2a 00
        E 16 83 2a 00
        E 16 83 2a 00
        E 16 83 2a 00
        E 16 83 2a 00
        E 16 83 2a 00
        E 16 83 2a 00
        E 16 83 2a 00
        E 16 83 2a 00
        E 16 83 2a 00
        E 16 83 2a 00
        E 16 83 2a 00
        E 16 83 2a 00
        E 16 83 2a 00
        E 16 83 2a 00
        E 16 83 2a 00
        E 16 83 2a 00
        E 16 83 2a 00
        E 16 83 2a 00
        E 16 83 2a 00
        E 16 83 2a 00
        E 16 83 2a 00
        E 16 83 2a 00
        E 16 83 2a 00
        E 16 83 2a 00
        E 16 83 2a 00
        E 16 83 2a 00
        E 16 83 2a 00
        E 16 83 2a 00
        E 16 83 2a 00
        E 16 83 2a 00
        E 16 83 2a 00
        E 16 83 2a 00
        E 16 83 2a 00
        E 16 83 2a 00
        E 16 83 2a 00
        E 16 83 2a 00
        E 16 83 2a 00
        E 16 83 2a 00
        E 16 83 2a 00
        E 16 83 2a 00
        E 16 83 2a 00
        E 16 83 2a 00
        E 16 83 2a 00
        E 16 83 2a 00
        E 16 83 2a 00
        E 16 83 2a 00
        E 16 83 2a 00
        E 16 83 2a 00
        E 16 83 2a 00
        E 16 83 2a 00
        E 16 83 2a 00
        E 16 83 2a 00
        E 16 83 2a 00
        E 16 83 2a 00
        E 16 83 2a 00
        E 96 93 2a 60
        E 208 83 2a 00
        E 16 83 2a 00
        E 16 83 2a 00
        E 16 83 2a 00
        E 16 83 2a 00
        E 16 83 2a 00
        E 16 83 2a 00
        E 16 83 2a 00
        E 16 83 2a 00
        E 16 83 2a 00
        E 16 83 2a 00
        E 16 83 2a 00
        E 16 83 2a 00
        E 16 83 2a 00
        E 16 83 2a 00
        E 16 83 2a 00
        E 16 83 2a 00
        E 16 83 2a 00
        E 96 93 2a 60
        E 208 83 2a 00
        E 16 83 2a 00
        E 16 83 2a 00
        E 16 83 2a 00
        E 16 83 2a 00
        E 16 83 2a 00
        E 16 83 2a 00
        E 16 83 2a 00
        E 16 83 2a 00
        E 16 83 2a 00
        E 16 83 2a 00
        E 16 83 2a 00
        E 16 83 2a 00
        E 16 83 2a 00
        E 16 83 2a 00
        E 16 83 2a 00
        E 16 83 2a 00
        E 16 83 2a 00
        E 96 93 2a 60
        E 208 83 2a 00
        E 16 83 2a 00
        E 16 83 2a 00
        E 16 83 2a 00
        E 16 83 2a 00
        E 16 83 2a 00
        E 16 83 2a 00
        E 16 83 2a 00
        E 16 83 2a 00
        E 16 83 2a 00
        E 16 83 2a 00
        E 16 83 2a 00
        E 16 83 2a 00
        E 16 83 2a 00
        E 16 83 2a 00
        E 16 83 2a 00
        E 16 83 2a 00
        E 16 83 2a 00
        E 96 93 2a 60
        E 208 83 2a 00
        E 16 83 2a 00
        E 16 83 2a 00
        E 16 83 2a 00
        E 16 83 2a 00
        E 16 83 2a 00
        E 16 83 2a 00
        E 16 83 2a 00
        E 16 83 2a 00
        E 16 83 2a 00
        E 16 83 2a 00
        E 16 83 2a 00
        E 16 83 2a 00
        E 16 83 2a 00
        E 16 83 2a 00
        E 16 83 2a 00
        E 16 83 2a 00
        E 16 83 2a 00
        E 96 93 2a 60
        E 208 83 2a 00
        E 16 83 2a 00
        E 16 83 2a 00
        E 16 83 2a 00
        E 16 83 2a 00
        E 16 83 2a 00
        E 16 83 2a 00
        E 16 83 2a 00
        E 16 83 2a 00
        E 16 83 2a 00
        E 16 83 2a 00
        E 16 83 2a 00
        E 16 83 2a 00
        E 16 83 2a 00
        E 16 83 2a 00
        E 16 83 2a 00
        E 16 83 2a 00
        E 16 83 2a 00
        E 96 93 2a 60
        E 208 83 2a 00
        E 16 83 2a 00
        E 16 83 2a 00
        E 16 83 2a 00
        E 16 83 2a 00
        E 16 83 2a 00
        E 16 83 2a 00
        E 16 83 2a 00
        E 16 83 2a 00
        E 16 83 2a 00
        E 16 83 2a 00
        E 16 83 2a 00
        E 16 83 2a 00
        E 16 83 2a 00
        E 16 83 2a 00
        E 16 83 2a 00
        E 16 83 2a 00
        E 16 83 2a 00
        E 96 93 2a 60
        E 208 83 2a 00
        E 16 83 2a 00
        E 16 83 2a 00
        E 16 83 2a 00
        E 16 83 2a 00
        E 16 83 2a 00
        E 16 83 2a 00
        E 16 83 2a 00
        E 16 83 2a 00
        E 16 83 2a 00
        E 16 83 2a 00
        E 16 83 2a 00
        E 16 83 2a 00
        E 16 83 2a 00
        E 16 83 2a 00
        E 16 83 2a 00
        E 16 83 2a 00
        E 16 83 2a 00
        E 96 93 2a 60
        E 208 83 2a 00
        E 16 83 2a 00
        E 16 83 2a 00
        E 16 83 2a 00
        E 16 83 2a 00
        E 16 83 2a 00
        E 16 83 2a 00
        E 16 83 2a 00
        E 16 83 2a 00
        E 16 83 2a 00
        E 16 83 2a 00
        E 16 83 2a 00
        E 16 83 2a 00
        E 16 83 2a 00
        E 16 83 2a 00
        E 16 83 2a 00
        E 16 83 2a 00
        E 16 83 2a 00
        E 96 93 2a 60
        E 208 83 2a 00
        E 16 83 2a 00
        E 16 83 2a 00
        E 16 83 2a 00
        E 16 83 2a 00
        E 16 83 2a 00
        E 16 83 2a 00
        E 16 83 2a 00
        E 16 83 2a 00
        E 16 83 2a 00
        E 16 83 2a 00
        E 16 83 2a 00
        E 16 83 2a 00
        E 16 83 2a 00
        E 16 83 2a 00
        E 16 83 2a 00
        E 16 83 2a 00
        E 16 83 2a 00
        E 96 93 2a 60
        E 208 83 2a 00
        E 16 83 2a 00
        E 16 83 2a 00
        E 16 83 2a 00
        E 16 83 2a 00
        E 16 83 2a 00
        E 16 83 2a 00
        E 16 83 2a 00
        E 16 83 2a 00
        E 16 83 2a 00
        E 16 83 2a 00
        E 16 83 2a 00
        E 16 83 2a 00
        E 16 83 2a 00
        E 16 83 2a 00
        E 16 83 2a 00
        E 16 83 2a 00
        E 16 83 2a 00
        E 96 93 2a 60
        E 208 83 2a 00
        E 16 83 2a 00
        E 16 83 2a 00
        E 16 83 2a 00
        E 16 83 2a 00
        E 16 83 2a 00
        E 16 83 2a 00
        E 16 83 2a 00
        E 16 83 2a 00
        E 16 83 2a 00
        E 16 83 2a 00
        E 16 83 2a 00
        E 16 83 2a 00
        E 16 83 2a 00
        E 16 83 2a 00
        E 16 83 2a 00
        E 16 83 2a 00
        E 16 83 2a 00
        E 96 93 2a 60
        E 208 83 2a 00
        E 16 83 2a 00
        E 16 83 2a 00
        E 16 83 2a 00
        E 16 83 2a 00
        E 16 83 2a 00
        E 16 83 2a 00
        E 16 83 2a 00
        E 16 83 2a 00
        E 16 83 2a 00
        E 16 83 2a 00
        E 16 83 2a 00
        E 16 83 2a 00
        E 16 83 2a 00
        E 16 83 2a 00
        E 16 83 2a 00
        E 16 83 2a 00
        E 16 83 2a 00
        E 96 93 2a 60
        E 208 83 2a 00
        E 16 83 2a 00
        E 16 83 2a 00
        E 16 83 2a 00
        E 16 83 2a 00
        E 16 83 2a 00
        E 16 83 2a 00
        E 16 83 2a 00
        E 16 83 2a 00
        E 16 83 2a 00
        E 16 83 2a 00
        E 16 83 2a 00
        E 16 83 2a 00
        E 16 83 2a 00
        E 16 83 2a 00
        E 16 83 2a 00
        E 16 83 2a 00
        E 16 83 2a 00
        E 96 93 2a 60
        E 208 83 2a 00
        E 16 83 2a 00
        E 16 83 2a 00
        E 16 83 2a 00
        E 16 83 2a 00
        E 16 83 2a 00
        E 16 83 2a 00
        E 16 83 2a 00
        E 16 83 2a 00
        E 16 83 2a 00
        E 16 83 2a 00
        E 16 83 2a 00
        E 16 83 2a 00
        E 16 83 2a 00
        E 16 83 2a 00
        E 16 83 2a 00
        E 16 83 2a 00
        E 16 83 2a 00
        E 96 93 2a 60
        E 208 83 2a 00
        E 16 83 2a 00
        E 16 83 2a 00
        E 16 83 2a 00
        E 16 83 2a 00
        E 16 83 2a 00
        E 16 83 2a 00
        E 16 83 2a 00
        E 16 83 2a 00
        E 16 83 2a 00
        E 16 83 2a 00
        E 16 83 2a 00
        E 16 83 2a 00
        E 16 83 2a 00
        E 16 83 2a 00
        E 16 83 2a 00
        E 16 83 2a 00
        E 16 83 2a 00
        E 96 93 2a 60
        E 208 83 2a 00
        E 16 83 2a 00
        E 16 83 2a 00
        E 16 83 2a 00
        E 16 83 2a 00
        E 16 83 2a 00
        E 16 83 2a 00
        E 16 83 2a 00
        E 16 83 2a 00
        E 16 83 2a 00
        E 16 83 2a 00
        E 16 83 2a 00
        E 16 83 2a 00
        E 16 83 2a 00
        E 16 83 2a 00
        E 16 83 2a 00
        E 16 83 2a 00
        E 16 83 2a 00
        E 16 83 2a 00
        E 16 83 2a 00
        E 16 83 2a 00
        E 16 83 2a 00
        E 16 83 2a 00
        E 16 83 2a 00
        E 16 83 2a 00
        E 16 83 2a 00
        E 16 83 2a 00
        E 16 83 2a 00
        E 16 83 2a 00
        E 16 83 2a 00
        E 16 83 2a 00
        E 16 83 2a 00
        E 16 83 2a 00
        E 16 83 2a 00
        E 16 83 2a 00
        E 16 83 2a 00
        E 16 83 2a 00
        E 16 83 2a 00
        E 16 83 2a 00
        E 16 83 2a 00
        E 16 83 2a 00
        E 16 83 2a 00
        E 16 83 2a 00
        E 16 83 2a 00
        E 16 83 2a 00
        E 16 83 2a 00
        E 16 83 2a 00
        E 16 83 2a 00
        E 16 83 2a 00
        E 16 83 2a 00
        E 16 83 2a 00
        E 16 83 2a 00
        E 16 83 2a 00
        E 16 83 2a 00
        E 16 83 2a 00
        E 16 83 2a 00
        E 16 83 2a 00
        E 16 83 2a 00
        E 16 83 2a 00
        E 16 83 2a 00
        E 16 83 2a 00
        E 16 83 2a 00
        E 16 83 2a 00
        E 16 83 2a 00
        E 16 83 2a 00
        E 16 83 2a 00
        E 16 83 2a 00
        E 16 83 2a 00
        E 16 83 2a 00
        E 16 83 2a 00
        E 16 83 2a 00
        E 16 83 2a 00
        E 16 83 2a 00
        E 16 83 2a 00
        E 16 83 2a 00
        E 16 83 2a 00
        E 16 83 2a 00
        E 16 83 2a 00
        E 16 83 2a 00
        E 16 83 2a 00
        E 16 83 2a 00
        E 16 83 2a 00
        E 16 83 2a 00
        E 16 83 2a 00
        E 16 83 2a 00
        E 16 83 2a 00
        E 16 83 2a 00
        E 16 83 2a 00
        E 16 83 2a 00
        E 16 83 2a 00
        E 16 83 2a 00
        E 16 83 2a 00
        E 16 83 2a 00
        E 16 83 2a 00
        E 16 83 2a 00
        E 16 83 2a 00
        E 16 83 2a 00
        E 16 83 2a 00
        E 16 83 2a 00
        E 16 83 2a 00
        E 16 83 2a 00
        E 16 83 2a 00
        E 16 83 2a 00
        E 16 83 2a 00
        E 16 83 2a 00
        E 16 83 2a 00
        E 16 83 2a 00
        E 16 83 2a 00
        E 16 83 2a 00
        E 16 83 2a 00
        E 16 83 2a 00
        E 16 83 2a 00
        E 16 83 2a 00
        E 16 83 2a 00
        E 16 83 2a 00
        E 16 83 2a 00
        E 16 83 2a 00
        E 16 83 2a 00
        E 16 83 2a 00
        E 16 83 2a 00
        E 16 83 2a 00
        E 16 83 2a 00
        E 16 83 2a 00
        E 16 83 2a 00
        E 16 83 2a 00
        E 16 83 2a 00
        E 16 83 2a 00
        E 16 83 2a 00
        E 16 83 2a 00
        E 16 83 2a 00
        E 16 83 2a 00
        E 16 83 2a 00
        E 16 83 2a 00
        E 16 83 2a 00
        E 16 83 2a 00
        E 16 83 2a 00
        E 16 83 2a 00
        E 16 83 2a 00
        E 16 83 2a 00
        E 16 83 2a 00
        E 16 83 2a 00
        E 16 83 2a 00
        E 16 83 2a 00
        E 16 83 2a 00
        E 16 83 2a 00
        E 16 83 2a 00
        E 16 83 2a 00
        E 16 83 2a 00
        E 16 83 2a 00
        E 16 83 2a 00
        E 16 83 2a 00
        E 16 83 2a 00
        E 16 83 2a 00
        E 16 83 2a 00
        E 16 83 2a 00
        E 16 83 2a 00
        E 16 83 2a 00
        E 16 83 2a 00
        E 16 83 2a 00
        E 16 83 2a 00
        E 16 83 2a 00
        E 16 83 2a 00
        E 16 83 2a 00
        E 16 83 2a 00
        E 16 83 2a 00
        E 16 83 2a 00
        E 16 83 2a 00
        E 16 83 2a 00
        E 16 83 2a 00
        E 16 83 2a 00
        E 16 83 2a 00
        E 16 83 2a 00
        E 16 83 2a 00
        E 16 83 2a 00
        E 16 83 2a 00
        E 16 83 2a 00
        E 16 83 2a 00
        E 16 83 2a 00
        E 16 83 2a 00
        E 16 83 2a 00
        E 16 83 2a 00
        E 16 83 2a 00
        E 16 83 2a 00
        E 16 83 2a 00
        E 16 83 2a 00
        E 16 83 2a 00
        E 16 83 2a 00
        E 16 83 2a 00
        E 16 83 2a 00
        E 16 83 2a 00
        E 16 83 2a 00
        E 16 83 2a 00
        E 16 83 2a 00
        E 16 83 2a 00
        E 16 83 2a 00
        E 16 83 2a 00
        E 16 83 2a 00
        E 16 83 2a 00
        E 16 83 2a 00
        E 16 83 2a 00
        E 16 83 2a 00
        E 16 83 2a 00
        E 16 83 2a 00
        E 16 83 2a 00
        E 16 83 2a 00
        E 16 83 2a 00
        E 16 83 2a 00
        E 16 83 2a 00
        E 16 83 2a 00
        E 16 83 2a 00
        E 16 83 2a 00
        E 16 83 2a 00
        E 16 83 2a 00
        E 16 83 2a 00
        E 16 83 2a 00
        E 16 83 2a 00
        E 16 83 2a 00
        E 16 83 2a 00
        E 16 83 2a 00
        E 16 83 2a 00
        E 16 83 2a 00
        E 16 83 2a 00
        E 16 83 2a 00
        E 16 83 2a 00
        E 16 83 2a 00
        E 16 83 2a 00
        E 16 83 2a 00
        E 16 83 2a 00
        E 16 83 2a 00
        E 16 83 2a 00
        E 16 83 2a 00
        E 16 83 2a 00
        E 16 83 2a 00
        E 16 83 2a 00
        E 16 83 2a 00
        E 16 83 2a 00
        E 16 83 2a 00
        E 16 83 2a 00
        E 16 83 2a 00
        E 16 83 2a 00
        E 16 83 2a 00
        E 16 83 2a 00
        E 16 83 2a 00
        E 16 83 2a 00
        E 16 83 2a 00
        E 16 83 2a 00
        E 16 83 2a 00
        E 16 83 2a 00
        E 16 83 2a 00
        E 16 83 2a 00
        E 16 83 2a 00
        E 16 83 2a 00
        E 16 83 2a 00
        E 16 83 2a 00
        E 16 83 2a 00
        E 16 83 2a 00
        E 16 83 2a 00
        E 16 83 2a 00
        E 16 83 2a 00
        E 16 83 2a 00
        E 16 83 2a 00
        E 16 83 2a 00
        E 16 83 2a 00
        E 16 83 2a 00
        E 16 83 2a 00
        E 16 83 2a 00
        E 16 83 2a 00
        E 16 83 2a 00
        E 16 83 2a 00
        E 16 83 2a 00
        E 16 83 2a 00
        E 16 83 2a 00
        E 16 83 2a 00
        E 16 83 2a 00
        E 16 83 2a 00
        E 16 83 2a 00
        E 16 83 2a 00
        E 16 83 2a 00
        E 16 83 2a 00
        E 16 83 2a 00
        E 16 83 2a 00
        E 16 83 2a 00
        E 16 83 2a 00
        E 16 83 2a 00
        E 16 83 2a 00
        E 16 83 2a 00
        E 16 83 2a 00
        E 16 83 2a 00
        E 16 83 2a 00
        E 16 83 2a 00
        E 16 83 2a 00
        E 16 83 2a 00
        E 16 83 2a 00
        E 16 83 2a 00
        E 16 83 2a 00
        E 16 83 2a 00
        E 16 83 2a 00
        E 16 83 2a 00
        E 16 83 2a 00
        E 16 83 2a 00
        E 16 83 2a 00
        E 16 83 2a 00
        E 16 83 2a 00
        E 16 83 2a 00
        E 16 83 2a 00
        E 16 83 2a 00
        E 16 83 2a 00
        E 16 83 2a 00
        E 16 83 2a 00
        E 16 83 2a 00
        E 16 83 2a 00
        E 16 83 2a 00
        E 16 83 2a 00
        E 16 83 2a 00
        E 16 83 2a 00
        E 16 83 2a 00
        E 16 83 2a 00
        E 16 83 2a 00
        E 16 83 2a 00
        E 16 83 2a 00
        E 16 83 2a 00
        E 16 83 2a 00
        E 16 83 2a 00
        E 16 83 2a 00
        E 16 83 2a 00
        E 16 83 2a 00
        E 16 83 2a 00
        E 16 83 2a 00
        E 16 83 2a 00
        E 16 83 2a 00
        E 16 83 2a 00
        E 16 83 2a 00
        E 16 83 2a 00
        E 16 83 2a 00
        E 16 83 2a 00
        E 16 83 2a 00
        E 16 83 2a 00
        E 16 83 2a 00
        E 16 83 2a 00
        E 16 83 2a 00
        E 16 83 2a 00
        E 16 83 2a 00
        E 16 83 2a 00
        E 16 83 2a 00
        E 16 83 2a 00
        E 16 83 2a 00
        E 16 83 2a 00
        E 16 83 2a 00
        E 16 83 2a 00
        E 16 83 2a 00
        E 16 83 2a 00
        E 16 83 2a 00
        E 16 83 2a 00
        E 16 83 2a 00
        E 16 83 2a 00
        E 16 83 2a 00
        E 16 83 2a 00
        E 16 83 2a 00
        E 16 83 2a 00
        E 16 83 2a 00
        E 16 83 2a 00
        E 16 83 2a 00
        E 16 83 2a 00
        E 16 83 2a 00
        E 16 83 2a 00
        E 16 83 2a 00
        E 16 83 2a 00
        E 16 83 2a 00
        E 16 83 2a 00
        E 16 83 2a 00
        E 16 83 2a 00
        E 16 83 2a 00
        E 16 83 2a 00
        E 16 83 2a 00
        E 16 83 2a 00
        E 16 83 2a 00
        E 16 83 2a 00
        E 16 83 2a 00
        E 16 83 2a 00
        E 16 83 2a 00
        E 16 83 2a 00
        E 16 83 2a 00
        E 16 83 2a 00
        E 16 83 2a 00
        E 16 83 2a 00
        E 16 83 2a 00
        E 16 83 2a 00
        E 16 83 2a 00
        E 16 83 2a 00
        E 16 83 2a 00
        E 16 83 2a 00
        E 16 83 2a 00
        E 16 83 2a 00
        E 16 83 2a 00
        E 16 83 2a 00
        E 16 83 2a 00
        E 16 83 2a 00
        E 16 83 2a 00
        E 16 83 2a 00
        E 16 83 2a 00
        E 16 83 2a 00
        E 16 83 2a 00
        E 16 83 2a 00
        E 16 83 2a 00
        E 16 83 2a 00
        E 16 83 2a 00
        E 16 83 2a 00
        E 16 83 2a 00
        E 16 83 2a 00
        E 16 83 2a 00
        E 16 83 2a 00
        E 16 83 2a 00
        E 16 83 2a 00
        E 16 83 2a 00
        E 16 83 2a 00
        E 16 83 2a 00
        E 16 83 2a 00
        E 16 83 2a 00
        E 16 83 2a 00
        E 16 83 2a 00
        E 16 83 2a 00
        E 16 83 2a 00
        E 16 83 2a 00
        E 16 83 2a 00
        E 16 83 2a 00
        E 16 83 2a 00
        E 16 83 2a 00
        E 16 83 2a 00
        E 16 83 2a 00
        E 16 83 2a 00
        E 16 83 2a 00
        E 16 83 2a 00
        E 16 83 2a 00
        E 16 83 2a 00
        E 16 83 2a 00
        E 16 83 2a 00
        E 16 83 2a 00
        E 16 83 2a 00
        E 16 83 2a 00
        E 16 83 2a 00
        E 16 83 2a 00
        E 16 83 2a 00
        E 16 83 2a 00
        E 16 83 2a 00
        E 16 83 2a 00
        E 16 83 2a 00
        E 16 83 2a 00
        E 16 83 2a 00
        E 16 83 2a 00
        E 16 83 2a 00
        E 16 83 2a 00
        E 16 83 2a 00
        E 16 83 2a 00
        E 16 83 2a 00
        E 16 83 2a 00
        E 16 83 2a 00
        E 16 83 2a 00
        E 16 83 2a 00
        E 16 83 2a 00
        E 16 83 2a 00
        E 16 83 2a 00
        E 16 83 2a 00
        E 16 83 2a 00
        E 16 83 2a 00
        E 16 83 2a 00
        E 16 83 2a 00
        E 16 83 2a 00
        E 16 83 2a 00
        E 16 83 2a 00
        E 16 83 2a 00
        E 16 83 2a 00
        E 16 83 2a 00
        E 16 83 2a 00
        E 16 83 2a 00
        E 16 83 2a 00
        E 16 83 2a 00
        E 16 83 2a 00
        E 16 83 2a 00
        E 16 83 2a 00
        E 16 83 2a 00
        E 16 83 2a 00
        E 16 83 2a 00
        E 16 83 2a 00
        E 16 83 2a 00
        E 16 83 2a 00
        E 16 83 2a 00
        E 16 83 2a 00
        E 16 83 2a 00
        E 16 83 2a 00
        E 16 83 2a 00
        E 16 83 2a 00
        E 16 83 2a 00
        E 16 83 2a 00
        E 16 83 2a 00
        E 16 83 2a 00
        E 16 83 2a 00
        E 16 83 2a 00
        E 16 83 2a 00
        E 16 83 2a 00
        E 16 83 2a 00
        E 16 83 2a 00
        E 16 83 2a 00
        E 16 83 2a 00
        E 16 83 2a 00
        E 16 83 2a 00
        E 16 83 2a 00
        E 16 83 2a 00
        E 16 83 2a 00
        E 16 83 2a 00
        E 16 83 2a 00
        E 16 83 2a 00
        E 16 83 2a 00
        E 16 83 2a 00
        E 16 83 2a 00
        E 16 83 2a 00
        E 16 83 2a 00
        E 16 83 2a 00
        E 16 83 2a 00
        E 16 83 2a 00
        E 16 83 2a 00
        E 16 83 2a 00
        E 16 83 2a 00
        E 16 83 2a 00
        E 16 83 2a 00
        E 16 83 2a 00
        E 16 83 2a 00
        E 16 83 2a 00
        E 16 83 2a 00
        E 16 83 2a 00
        E 16 83 2a 00
        E 16 83 2a 00
        E 16 83 2a 00
        E 16 83 2a 00
        E 16 83 2a 00
        E 16 83 2a 00
        E 16 83 2a 00
        E 16 83 2a 00
        E 16 83 2a 00
        E 16 83 2a 00
        E 16 83 2a 00
        E 16 83 2a 00
        E 16 83 2a 00
        E 16 83 2a 00
        E 16 83 2a 00
        E 16 83 2a 00
        E 16 83 2a 00
        E 16 83 2a 00
        E 16 83 2a 00
        E 16 83 2a 00
        E 16 83 2a 00
        E 16 83 2a 00
        E 16 83 2a 00
        E 16 83 2a 00
        E 16 83 2a 00
        E 16 83 2a 00
        E 16 83 2a 00
        E 16 83 2a 00
        E 16 83 2a 00
        E 16 83 2a 00
        E 16 83 2a 00
        E 16 83 2a 00
        E 16 83 2a 00
        E 16 83 2a 00
        E 16 83 2a 00
        E 16 83 2a 00
        E 16 83 2a 00
        E 16 83 2a 00
        E 16 83 2a 00
        E 16 83 2a 00
        E 16 83 2a 00
        E 16 83 2a 00
        E 16 83 2a 00
        E 16 83 2a 00
        E 16 83 2a 00
        E 16 83 2a 00
        E 16 83 2a 00
        E 16 83 2a 00
        E 16 83 2a 00
        E 16 83 2a 00
        E 16 83 2a 00
        E 16 83 2a 00
        E 16 83 2a 00
        E 16 83 2a 00
        E 16 83 2a 00
        E 16 83 2a 00
        E 16 83 2a 00
        E 16 83 2a 00
        E 16 83 2a 00
        E 16 83 2a 00
        E 16 83 2a 00
        E 16 83 2a 00
        E 16 83 2a 00
        E 16 83 2a 00
        E 16 83 2a 00
        E 16 83 2a 00
        E 16 83 2a 00
        E 16 83 2a 00
        E 16 83 2a 00
        E 16 83 2a 00
        E 16 83 2a 00
        E 16 83 2a 00
        E 16 83 2a 00
        E 16 83 2a 00
        E 16 83 2a 00
        E 16 83 2a 00
        E 16 83 2a 00
        E 16 83 2a 00
        E 16 83 2a 00
        E 16 83 2a 00
        E 16 83 2a 00
        E 16 83 2a 00
        E 16 83 2a 00
        E 16 83 2a 00
        E 16 83 2a 00
        E 16 83 2a 00
        E 16 83 2a 00
        E 16 83 2a 00
        E 16 83 2a 00
        E 16 83 2a 00
        E 16 83 2a 00
        E 16 83 2a 00
        E 16 83 2a 00
        E 16 83 2a 00
        E 16 83 2a 00
        E 16 83 2a 00
        E 16 83 2a 00
        E 16 83 2a 00
        E 16 83 2a 00
        E 16 83 2a 00
        E 16 83 2a 00
        E 16 83 2a 00
        E 16 83 2a 00
        E 16 83 2a 00
        E 16 83 2a 00
        E 16 83 2a 00
        E 16 83 2a 00
        E 16 83 2a 00
        E 16 83 2a 00
        E 16 83 2a 00
        E 16 83 2a 00
        E 16 83 2a 00
        E 16 83 2a 00
        E 16 83 2a 00
        E 16 83 2a 00
        E 16 83 2a 00
        E 16 83 2a 00
        E 16 83 2a 00
        E 16 83 2a 00
        E 16 83 2a 00
        E 16 83 2a 00
        E 16 83 2a 00
        E 16 83 2a 00
        E 16 83 2a 00
        E 16 83 2a 00
        E 16 83 2a 00
        E 16 83 2a 00
        E 16 83 2a 00
        E 16 83 2a 00
        E 16 83 2a 00
        E 16 83 2a 00
        E 16 83 2a 00
        E 16 83 2a 00
        E 16 83 2a 00
        E 16 83 2a 00
        E 16 83 2a 00
        E 16 83 2a 00
        E 16 83 2a 00
        E 16 83 2a 00
        E 16 83 2a 00
        E 16 83 2a 00
        E 16 83 2a 00
        E 16 83 2a 00
        E 16 83 2a 00
        E 16 83 2a 00
        E 16 83 2a 00
        E 16 83 2a 00
        E 16 83 2a 00
        E 16 83 2a 00
        E 16 83 2a 00
        E 16 83 2a 00
        E 16 83 2a 00
        E 16 83 2a 00
        E 16 83 2a 00
        E 16 83 2a 00
        E 16 83 2a 00
        E 16 83 2a 00
        E 16 83 2a 00
        E 16 83 2a 00
        E 16 83 2a 00
        E 16 83 2a 00
        E 16 83 2a 00
        E 16 83 2a 00
        E 16 83 2a 00
        E 16 83 2a 00
        E 16 83 2a 00
        E 16 83 2a 00
        E 16 83 2a 00
        E 16 83 2a 00
        E 16 83 2a 00
        E 16 83 2a 00
        E 16 83 2a 00
        E 16 83 2a 00
        E 16 83 2a 00
        E 16 83 2a 00
        E 16 83 2a 00
        E 16 83 2a 00
        E 16 83 2a 00
        E 16 83 2a 00
        E 16 83 2a 00
        E 16 83 2a 00
        E 16 83 2a 00
        E 16 83 2a 00
        E 16 83 2a 00
        E 16 83 2a 00
        E 16 83 2a 00
        E 16 83 2a 00
        E 16 83 2a 00
        E 16 83 2a 00
        E 16 83 2a 00
        E 16 83 2a 00
        E 16 83 2a 00
        E 16 83 2a 00
        E 16 83 2a 00
        E 16 83 2a 00
        E 16 83 2a 00
        E 16 83 2a 00
        E 16 83 2a 00
        E 16 83 2a 00
        E 16 83 2a 00
        E 16 83 2a 00
        E 16 83 2a 00
        E 16 83 2a 00
        E 16 83 2a 00
        E 16 83 2a 00
        E 16 83 2a 00
        E 16 83 2a 00
        E 16 83 2a 00
        E 16 83 2a 00
        E 16 83 2a 00
        E 16 83 2a 00
        E 16 83 2a 00
        E 16 83 2a 00
        E 16 83 2a 00
        E 16 83 2a 00
        E 16 83 2a 00
        E 16 83 2a 00
        E 16 83 2a 00
        E 16 83 2a 00
        E 16 83 2a 00
        E 16 83 2a 00
        E 16 83 2a 00
        E 16 83 2a 00
        E 16 83 2a 00
        E 16 83 2a 00
        E 16 83 2a 00
        E 16 83 2a 00
        E 16 83 2a 00
        E 16 83 2a 00
        E 16 83 2a 00
        E 16 83 2a 00
        E 16 83 2a 00
        E 16 83 2a 00
        E 16 83 2a 00
        E 16 83 2a 00
        E 16 83 2a 00
        E 16 83 2a 00
        E 16 83 2a 00
        E 16 83 2a 00
        E 16 83 2a 00
        E 16 83 2a 00
        E 16 83 2a 00
        E 16 83 2a 00
        E 16 83 2a 00
        E 16 83 2a 00
        E 16 83 2a 00
        E 16 83 2a 00
        E 16 83 2a 00
        E 16 83 2a 00
        E 16 83 2a 00
        E 16 83 2a 00
        E 16 83 2a 00
        E 16 83 2a 00
        E 16 83 2a 00
        E 16 83 2a 00
        E 16 83 2a 00
        E 16 83 2a 00
        E 16 83 2a 00
        E 16 83 2a 00
        E 16 83 2a 00
        E 16 83 2a 00
        E 16 83 2a 00
        E 16 83 2a 00
        E 16 83 2a 00
        E 16 83 2a 00
        E 16 83 2a 00
        E 16 83 2a 00
        E 16 83 2a 00
        E 16 83 2a 00
        E 16 83 2a 00
        E 16 83 2a 00
        E 16 83 2a 00
        E 16 83 2a 00
        E 16 83 2a 00
        E 16 83 2a 00
        E 16 83 2a 00
        E 16 83 2a 00
        E 16 83 2a 00
        E 16 83 2a 00
        E 16 83 2a 00
        E 16 83 2a 00
        E 16 83 2a 00
        E 16 83 2a 00
        E 16 83 2a 00
        E 16 83 2a 00
        E 16 83 2a 00
        E 16 83 2a 00
        E 16 83 2a 00
        E 16 83 2a 00
        E 16 83 2a 00
        E 16 83 2a 00
        E 16 83 2a 00
        E 16 83 2a 00
        E 16 83 2a 00
        E 16 83 2a 00
        E 16 83 2a 00
        E 16 83 2a 00
        E 16 83 2a 00
        E 16 83 2a 00
        E 16 83 2a 00
        E 16 83 2a 00
        E 16 83 2a 00
        E 16 83 2a 00
        E 16 83 2a 00
        E 16 83 2a 00
        E 16 83 2a 00
        E 16 83 2a 00
        E 16 83 2a 00
        E 16 83 2a 00
        E 16 83 2a 00
        E 16 83 2a 00
        E 16 83 2a 00
        E 16 83 2a 00
        E 16 83 2a 00
        E 16 83 2a 00
        E 16 83 2a 00
        E 16 83 2a 00
        E 16 83 2a 00
        E 16 83 2a 00
        E 16 83 2a 00
        E 16 83 2a 00
        E 16 83 2a 00
        E 16 83 2a 00
        E 16 83 2a 00
        E 16 83 2a 00
        E 16 83 2a 00
        E 16 83 2a 00
        E 16 83 2a 00
        E 16 83 2a 00
        E 16 83 2a 00
        E 16 83 2a 00
        E 16 83 2a 00
        E 16 83 2a 00
        E 16 83 2a 00
        E 16 83 2a 00
        E 16 83 2a 00
        E 16 83 2a 00
        E 16 83 2a 00
        E 16 83 2a 00
        E 16 83 2a 00
        E 16 83 2a 00
        E 16 83 2a 00
        E 16 83 2a 00
        E 16 83 2a 00
        E 16 83 2a 00
        E 16 83 2a 00
        E 16 83 2a 00
        E 16 83 2a 00
        E 16 83 2a 00
        E 16 83 2a 00
        E 16 83 2a 00
        E 16 83 2a 00
        E 16 83 2a 00
        E 16 83 2a 00
        E 16 83 2a 00
        E 16 83 2a 00
        E 16 83 2a 00
        E 16 83 2a 00
        E 16 83 2a 00
        E 16 83 2a 00
        E 16 83 2a 00
        E 16 83 2a 00
        E 16 83 2a 00
        E 16 83 2a 00
        E 16 83 2a 00
        E 16 83 2a 00
        E 16 83 2a 00
        E 16 83 2a 00
        E 16 83 2a 00
        E 16 83 2a 00
        E 16 83 2a 00
        E 16 83 2a 00
        E 16 83 2a 00
        E 16 83 2a 00
        E 16 83 2a 00
        E 16 83 2a 00
        E 16 83 2a 00
        E 16 83 2a 00
        E 16 83 2a 00
        E 16 83 2a 00
        E 16 83 2a 00
        E 16 83 2a 00
        E 16 83 2a 00
        E 16 83 2a 00
        E 16 83 2a 00
        E 16 83 2a 00
        E 16 83 2a 00
        E 16 83 2a 00
        E 16 83 2a 00
        E 16 83 2a 00
        E 16 83 2a 00
        E 16 83 2a 00
        E 16 83 2a 00
        E 16 83 2a 00
        E 16 83 2a 00
        E 16 83 2a 00
        E 16 83 2a 00
        E 16 83 2a 00
        E 16 83 2a 00
        E 16 83 2a 00
        E 16 83 2a 00
        E 16 83 2a 00
        E 16 83 2a 00
        E 16 83 2a 00
        E 16 83 2a 00
        E 16 83 2a 00
        E 16 83 2a 00
        E 16 83 2a 00
        E 16 83 2a 00
        E 16 83 2a 00
        E 16 83 2a 00
        E 16 83 2a 00
        E 16 83 2a 00
        E 16 83 2a 00
        E 16 83 2a 00
        E 16 83 2a 00
        E 16 83 2a 00
        E 16 83 2a 00
        E 16 83 2a 00
        E 16 83 2a 00
        E 16 83 2a 00
        E 16 83 2a 00
        E 16 83 2a 00
        E 16 83 2a 00
        E 16 83 2a 00
        E 16 83 2a 00
        E 16 83 2a 00
        E 16 83 2a 00
        E 16 83 2a 00
        E 16 83 2a 00
        E 16 83 2a 00
        E 16 83 2a 00
        E 16 83 2a 00
        E 16 83 2a 00
        E 16 83 2a 00
        E 16 83 2a 00
        E 16 83 2a 00
        E 16 83 2a 00
        E 16 83 2a 00
        E 16 83 2a 00
        E 16 83 2a 00
        E 16 83 2a 00
        E 16 83 2a 00
        E 16 83 2a 00
        E 16 83 2a 00
        E 16 83 2a 00
        E 16 83 2a 00
        E 16 83 2a 00
        E 16 83 2a 00
        E 16 83 2a 00
        E 16 83 2a 00
        E 16 83 2a 00
        E 16 83 2a 00
        E 16 83 2a 00
        E 16 83 2a 00
        E 16 83 2a 00
        E 16 83 2a 00
        E 16 83 2a 00
        E 16 83 2a 00
        E 16 83 2a 00
        E 16 83 2a 00
        E 16 83 2a 00
        E 16 83 2a 00
        E 16 83 2a 00
        E 16 83 2a 00
        E 16 83 2a 00
        E 16 83 2a 00
        E 16 83 2a 00
        E 16 83 2a 00
        E 16 83 2a 00
        E 16 83 2a 00
        E 16 83 2a 00
        E 16 83 2a 00
        E 16 83 2a 00
        E 16 83 2a 00
        E 16 83 2a 00
        E 16 83 2a 00
        E 16 83 2a 00
        E 16 83 2a 00
        E 16 83 2a 00
        E 16 83 2a 00
        E 16 83 2a 00
        E 16 83 2a 00
        E 16 83 2a 00
        E 16 83 2a 00
        E 16 83 2a 00
        E 16 83 2a 00
        E 16 83 2a 00
        E 16 83 2a 00
        E 16 83 2a 00
        E 16 83 2a 00
        E 16 83 2a 00
        E 16 83 2a 00
        E 16 83 2a 00
        E 16 83 2a 00
        E 16 83 2a 00
        E 16 83 2a 00
        E 16 83 2a 00
        E 16 83 2a 00
        E 16 83 2a 00
        E 16 83 2a 00
        E 16 83 2a 00
        E 16 83 2a 00
        E 16 83 2a 00
        E 16 83 2a 00
        E 16 83 2a 00
        E 16 83 2a 00
        E 16 83 2a 00
        E 16 83 2a 00
        E 16 83 2a 00
        E 16 83 2a 00
        E 16 83 2a 00
        E 16 83 2a 00
        E 16 83 2a 00
        E 16 83 2a 00
        E 16 83 2a 00
        E 16 83 2a 00
        E 16 83 2a 00
        E 16 83 2a 00
        E 16 83 2a 00
        E 16 83 2a 00
        E 16 83 2a 00
        E 16 83 2a 00
        E 16 83 2a 00
        E 16 83 2a 00
        E 16 83 2a 00
        E 16 83 2a 00
        E 16 83 2a 00
        E 16 83 2a 00
        E 16 83 2a 00
        E 16 83 2a 00
        E 16 83 2a 00
        E 16 83 2a 00
        E 16 83 2a 00
        E 16 83 2a 00
        E 16 83 2a 00
        E 16 83 2a 00
        E 16 83 2a 00
        E 16 83 2a 00
        E 16 83 2a 00
        E 16 83 2a 00
        E 16 83 2a 00
        E 16 83 2a 00
        E 16 83 2a 00
        E 16 83 2a 00
        E 16 83 2a 00
        E 16 83 2a 00
        E 16 83 2a 00
        E 16 83 2a 00
        E 16 83 2a 00
        E 16 83 2a 00
        E 16 83 2a 00
        E 16 83 2a 00
        E 16 83 2a 00
        E 16 83 2a 00
        E 16 83 2a 00
        E 16 83 2a 00
        E 16 83 2a 00
        E 16 83 2a 00
        E 16 83 2a 00
        E 16 83 2a 00
        E 16 83 2a 00
        E 16 83 2a 00
        E 16 83 2a 00
        E 16 83 2a 00
        E 16 83 2a 00
        E 16 83 2a 00
        E 16 83 2a 00
        E 16 83 2a 00
        E 16 83 2a 00
        E 16 83 2a 00
        E 16 83 2a 00
        E 16 83 2a 00
        E 16 83 2a 00
        E 16 83 2a 00
        E 16 83 2a 00
        E 16 83 2a 00
        E 16 83 2a 00
        E 16 83 2a 00
        E 16 83 2a 00
        E 16 83 2a 00
        E 16 83 2a 00
        E 16 83 2a 00
        E 16 83 2a 00
        E 16 83 2a 00
        E 16 83 2a 00
        E 16 83 2a 00
        E 16 83 2a 00
        E 16 83 2a 00
        E 16 83 2a 00
        E 16 83 2a 00
        E 16 83 2a 00
        E 16 83 2a 00
        E 16 83 2a 00
        E 16 83 2a 00
        E 16 83 2a 00
        E 16 83 2a 00
        E 16 83 2a 00
        E 16 83 2a 00
        E 16 83 2a 00
        E 16 83 2a 00
        E 16 83 2a 00
        E 16 83 2a 00
        E 16 83 2a 00
        E 16 83 2a 00
        E 16 83 2a 00
        E 16 83 2a 00
        E 16 83 2a 00
        E 16 83 2a 00
        E 16 83 2a 00
        E 16 83 2a 00
        E 16 83 2a 00
        E 16 83 2a 00
        E 16 83 2a 00
        E 16 83 2a 00
        E 16 83 2a 00
        E 16 83 2a 00
        E 16 83 2a 00
        E 16 83 2a 00
        E 16 83 2a 00
        E 16 83 2a 00
        E 16 83 2a 00
        E 16 83 2a 00
        E 16 83 2a 00
        E 16 83 2a 00
        E 16 83 2a 00
        E 16 83 2a 00
        E 16 83 2a 00
        E 16 83 2a 00
        E 16 83 2a 00
        E 16 83 2a 00
        E 16 83 2a 00
        E 16 83 2a 00
        E 16 83 2a 00
        E 16 83 2a 00
        E 16 83 2a 00
        E 16 83 2a 00
        E 16 83 2a 00
        E 16 83 2a 00
        E 16 83 2a 00
        E 16 83 2a 00
        E 16 83 2a 00
        E 16 83 2a 00
        E 16 83 2a 00
        E 16 83 2a 00
        E 16 83 2a 00
        E 16 83 2a 00
        E 16 83 2a 00
        E 16 83 2a 00
        E 16 83 2a 00
        E 16 83 2a 00
        E 16 83 2a 00
        E 16 83 2a 00
        E 16 83 2a 00
        E 16 83 2a 00
        E 16 83 2a 00
        E 16 83 2a 00
        E 16 83 2a 00
        E 16 83 2a 00
        E 16 83 2a 00
        E 16 83 2a 00
        E 16 83 2a 00
        E 16 83 2a 00
        E 16 83 2a 00
        E 16 83 2a 00
        E 16 83 2a 00
        E 16 83 2a 00
        E 16 83 2a 00
        E 16 83 2a 00
        E 16 83 2a 00
        E 16 83 2a 00
        E 16 83 2a 00
        E 16 83 2a 00
        E 16 83 2a 00
        E 16 83 2a 00
        E 16 83 2a 00
        E 16 83 2a 00
        E 16 83 2a 00
        E 16 83 2a 00
        E 16 83 2a 00
        E 16 83 2a 00
        E 16 83 2a 00
        E 16 83 2a 00
        E 16 83 2a 00
        E 16 83 2a 00
        E 16 83 2a 00
        E 16 83 2a 00
        E 16 83 2a 00
        E 16 83 2a 00
        E 16 83 2a 00
        E 16 83 2a 00
        E 16 83 2a 00
        E 16 83 2a 00
        E 16 83 2a 00
        E 16 83 2a 00
        E 16 83 2a 00
        E 16 83 2a 00
        E 16 83 2a 00
        E 16 83 2a 00
        E 16 83 2a 00
        E 16 83 2a 00
        E 16 83 2a 00
        E 16 83 2a 00
        E 16 83 2a 00
        E 16 83 2a 00
        E 16 83 2a 00
        E 16 83 2a 00
        E 16 83 2a 00
        E 16 83 2a 00
        E 16 83 2a 00
        E 16 83 2a 00
        E 16 83 2a 00
        E 16 83 2a 00
        E 16 83 2a 00
        E 16 83 2a 00
        E 16 83 2a 00
        E 16 83 2a 00
        E 16 83 2a 00
        E 16 83 2a 00
        E 16 83 2a 00
        E 16 83 2a 00
        E 16 83 2a 00
        E 16 83 2a 00
        E 16 83 2a 00
        E 16 83 2a 00
        E 16 83 2a 00
        E 16 83 2a 00
        E 16 83 2a 00
        E 16 83 2a 00
        E 16 83 2a 00
        E 16 83 2a 00
        E 16 83 2a 00
        E 16 83 2a 00
        E 16 83 2a 00
        E 16 83 2a 00
        E 16 83 2a 00
        E 16 83 2a 00
        E 16 83 2a 00
        E 16 83 2a 00
        E 16 83 2a 00
        E 16 83 2a 00
        E 16 83 2a 00
        E 16 83 2a 00
        E 16 83 2a 00
        E 16 83 2a 00
        E 16 83 2a 00
        E 16 83 2a 00
        E 16 83 2a 00
        E 16 83 2a 00
        E 16 83 2a 00
        E 16 83 2a 00
        E 16 83 2a 00
        E 16 83 2a 00
        E 16 83 2a 00
        E 16 83 2a 00
        E 16 83 2a 00
        E 16 83 2a 00
        E 16 83 2a 00
        E 16 83 2a 00
        E 16 83 2a 00
        E 16 83 2a 00
        E 16 83 2a 00
        E 16 83 2a 00
        E 16 83 2a 00
        E 16 83 2a 00
        E 16 83 2a 00
        E 16 83 2a 00
        E 16 83 2a 00
        E 16 83 2a 00
        E 16 83 2a 00
        E 16 83 2a 00
        E 16 83 2a 00
        E 16 83 2a 00
        E 16 83 2a 00
        E 16 83 2a 00
        E 16 83 2a 00
        E 16 83 2a 00
        E 16 83 2a 00
        E 16 83 2a 00
        E 16 83 2a 00
        E 16 83 2a 00
        E 16 83 2a 00
        E 16 83 2a 00
        E 16 83 2a 00
        E 16 83 2a 00
        E 16 83 2a 00
        E 16 83 2a 00
        E 16 83 2a 00
        E 16 83 2a 00
        E 16 83 2a 00
        E 16 83 2a 00
        E 16 83 2a 00
        E 16 83 2a 00
        E 16 83 2a 00
        E 16 83 2a 00
        E 16 83 2a 00
        E 16 83 2a 00
        E 16 83 2a 00
        E 16 83 2a 00
        E 16 83 2a 00
        E 16 83 2a 00
        E 16 83 2a 00
        E 16 83 2a 00
        E 16 83 2a 00
        E 16 83 2a 00
        E 16 83 2a 00
        E 16 83 2a 00
        E 16 83 2a 00
        E 16 83 2a 00
        E 16 83 2a 00
        E 16 83 2a 00
        E 16 83 2a 00
        E 16 83 2a 00
        E 16 83 2a 00
        E 16 83 2a 00
        E 16 83 2a 00
        E 16 83 2a 00
        E 16 83 2a 00
        E 16 83 2a 00
        E 16 83 2a 00
        E 16 83 2a 00
        E 16 83 2a 00
        E 16 83 2a 00
        E 16 83 2a 00
        E 16 83 2a 00
        E 16 83 2a 00
        E 16 83 2a 00
        E 16 83 2a 00
        E 16 83 2a 00
        E 16 83 2a 00
        E 16 83 2a 00
        E 16 83 2a 00
        E 16 83 2a 00
        E 16 83 2a 00
        E 16 83 2a 00
        E 16 83 2a 00
        E 16 83 2a 00
        E 16 83 2a 00
        E 16 83 2a 00
        E 16 83 2a 00
        E 16 83 2a 00
        E 16 83 2a 00
        E 16 83 2a 00
        E 16 83 2a 00
        E 16 83 2a 00
        E 16 83 2a 00
        E 16 83 2a 00
        E 16 83 2a 00
        E 16 83 2a 00
        E 16 83 2a 00
        E 16 83 2a 00
        E 16 83 2a 00
        E 16 83 2a 00
        E 16 83 2a 00
        E 16 83 2a 00
        E 16 83 2a 00
        E 16 83 2a 00
        E 16 83 2a 00
        E 16 83 2a 00
        E 16 83 2a 00
        E 16 83 2a 00
        E 16 83 2a 00
        E 16 83 2a 00
        E 16 83 2a 00
        E 16 83 2a 00
        E 16 83 2a 00
        E 16 83 2a 00
        E 16 83 2a 00
        E 16 83 2a 00
        E 16 83 2a 00
        E 16 83 2a 00
        E 16 83 2a 00
        E 16 83 2a 00
        E 16 83 2a 00
        E 16 83 2a 00
        E 16 83 2a 00
        E 16 83 2a 00
        E 16 83 2a 00
        E 16 83 2a 00
        E 16 83 2a 00
        E 16 83 2a 00
        E 16 83 2a 00
        E 16 83 2a 00
        E 16 83 2a 00
        E 16 83 2a 00
        E 16 83 2a 00
        E 16 83 2a 00
        E 16 83 2a 00
        E 16 83 2a 00
        E 16 83 2a 00
        E 16 83 2a 00
        E 16 83 2a 00
        E 16 83 2a 00
        E 16 83 2a 00
        E 16 83 2a 00
        E 16 83 2a 00
        E 16 83 2a 00
        E 16 83 2a 00
        E 16 83 2a 00
        E 16 83 2a 00
        E 16 83 2a 00
        E 16 83 2a 00
        E 16 83 2a 00
        E 16 83 2a 00
        E 16 83 2a 00
        E 16 83 2a 00
        E 16 83 2a 00
        E 16 83 2a 00
        E 16 83 2a 00
        E 16 83 2a 00
        E 16 83 2a 00
        E 16 83 2a 00
        E 16 83 2a 00
        E 16 83 2a 00
        E 16 83 2a 00
        E 16 83 2a 00
        E 16 83 2a 00
        E 16 83 2a 00
        E 16 83 2a 00
        E 16 83 2a 00
        E 16 83 2a 00
        E 16 83 2a 00
        E 16 83 2a 00
        E 16 83 2a 00
        E 16 83 2a 00
        E 16 83 2a 00
        E 16 83 2a 00
        E 16 83 2a 00
        E 16 83 2a 00
        E 16 83 2a 00
        E 16 83 2a 00
        E 16 83 2a 00
        E 16 83 2a 00
        E 16 83 2a 00
        E 16 83 2a 00
        E 16 83 2a 00
        E 16 83 2a 00
        E 16 83 2a 00
        E 16 83 2a 00
        E 16 83 2a 00
        E 16 83 2a 00
        E 16 83 2a 00
        E 16 83 2a 00
        E 16 83 2a 00
        E 16 83 2a 00
        E 16 83 2a 00
        E 16 83 2a 00
        E 16 83 2a 00
        E 16 83 2a 00
        E 16 83 2a 00
        E 16 83 2a 00
        E 16 83 2a 00
        E 16 83 2a 00
        E 16 83 2a 00
        E 16 83 2a 00
        E 16 83 2a 00
        E 16 83 2a 00
        E 16 83 2a 00
        E 16 83 2a 00
        E 16 83 2a 00
        E 16 83 2a 00
        E 16 83 2a 00
        E 16 83 2a 00
        E 16 83 2a 00
        E 16 83 2a 00
        E 16 83 2a 00
        E 16 83 2a 00
        E 16 83 2a 00
        E 16 83 2a 00
        E 16 83 2a 00
        E 16 83 2a 00
        E 16 83 2a 00
        E 16 83 2a 00
        E 16 83 2a 00
        E 16 83 2a 00
        E 16 83 2a 00
        E 16 83 2a 00
        E 16 83 2a 00
        E 16 83 2a 00
        E 16 83 2a 00
        E 16 83 2a 00
        E 16 83 2a 00
        E 16 83 2a 00
        E 16 83 2a 00
        E 16 83 2a 00
        E 16 83 2a 00
        E 16 83 2a 00
        E 16 83 2a 00
        E 16 83 2a 00
        E 16 83 2a 00
        E 16 83 2a 00
        E 16 83 2a 00
        E 16 83 2a 00
        E 16 83 2a 00
        E 16 83 2a 00
        E 16 83 2a 00
        E 16 83 2a 00
        E 16 83 2a 00
        E 16 83 2a 00
        E 16 83 2a 00
        E 16 83 2a 00
        E 16 83 2a 00
        E 16 83 2a 00
        E 16 83 2a 00
        E 16 83 2a 00
        E 16 83 2a 00
        E 16 83 2a 00
        E 16 83 2a 00
        E 16 83 2a 00
        E 16 83 2a 00
        E 16 83 2a 00
        E 16 83 2a 00
        E 16 83 2a 00
        E 16 83 2a 00
        E 16 83 2a 00
        E 16 83 2a 00
        E 16 83 2a 00
        E 16 83 2a 00
        E 16 83 2a 00
        E 16 83 2a 00
        E 16 83 2a 00
        E 16 83 2a 00
        E 16 83 2a 00
        E 16 83 2a 00
        E 16 83 2a 00
        E 16 83 2a 00
        E 16 83 2a 00
        E 16 83 2a 00
        E 16 83 2a 00
        E 16 83 2a 00
        E 16 83 2a 00
        E 16 83 2a 00
        E 16 83 2a 00
        E 16 83 2a 00
        E 16 83 2a 00
        E 16 83 2a 00
        E 16 83 2a 00
        E 16 83 2a 00
        E 16 83 2a 00
        E 16 83 2a 00
        E 16 83 2a 00
        E 16 83 2a 00
        E 16 83 2a 00
        E 16 83 2a 00
        E 16 83 2a 00
        E 16 83 2a 00
        E 16 83 2a 00
        E 16 83 2a 00
        E 16 83 2a 00
        E 16 83 2a 00
        E 16 83 2a 00
        E 16 83 2a 00
        E 16 83 2a 00
        E 16 83 2a 00
        E 16 83 2a 00
        E 16 83 2a 00
        E 16 83 2a 00
        E 16 83 2a 00
        E 16 83 2a 00
        E 16 83 2a 00
        E 16 83 2a 00
        E 16 83 2a 00
        E 16 83 2a 00
        E 16 83 2a 00
        E 16 83 2a 00
        E 16 83 2a 00
        E 16 83 2a 00
        E 16 83 2a 00
        E 16 83 2a 00
        E 16 83 2a 00
        E 16 83 2a 00
        E 16 83 2a 00
        E 16 83 2a 00
        E 16 83 2a 00
        E 16 83 2a 00
        E 16 83 2a 00
        E 16 83 2a 00
        E 16 83 2a 00
        E 16 83 2a 00
        E 16 83 2a 00
        E 16 83 2a 00
        E 16 83 2a 00
        E 16 83 2a 00
        E 16 83 2a 00
        E 16 83 2a 00
        E 16 83 2a 00
        E 16 83 2a 00
        E 16 83 2a 00
        E 16 83 2a 00
        E 16 83 2a 00
        E 16 83 2a 00
        E 16 83 2a 00
        E 16 83 2a 00
        E 16 83 2a 00
        E 16 83 2a 00
        E 16 83 2a 00
        E 16 83 2a 00
        E 16 83 2a 00
        E 16 83 2a 00
        E 16 83 2a 00
        E 16 83 2a 00
        E 16 83 2a 00
        E 16 83 2a 00
        E 16 83 2a 00
        E 16 83 2a 00
        E 16 83 2a 00
        E 16 83 2a 00
        E 16 83 2a 00
        E 16 83 2a 00
        E 16 83 2a 00
        E 16 83 2a 00
        E 16 83 2a 00
        E 16 83 2a 00
        E 16 83 2a 00
        E 16 83 2a 00
        E 16 83 2a 00
        E 16 83 2a 00
        E 16 83 2a 00
        E 16 83 2a 00
        E 16 83 2a 00
        E 16 83 2a 00
        E 16 83 2a 00
        E 16 83 2a 00
        E 16 83 2a 00
        E 16 83 2a 00
        E 16 83 2a 00
        E 16 83 2a 00
        E 16 83 2a 00
        E 16 83 2a 00
        E 16 83 2a 00
        E 16 83 2a 00
        E 16 83 2a 00
        E 16 83 2a 00
        E 16 83 2a 00
        E 16 83 2a 00
        E 16 83 2a 00
        E 16 83 2a 00
        E 16 83 2a 00
        E 16 83 2a 00
        E 16 83 2a 00
        E 16 83 2a 00
        E 16 83 2a 00
        E 16 83 2a 00
        E 16 83 2a 00
        E 16 83 2a 00
        E 16 83 2a 00
        E 16 83 2a 00
        E 16 83 2a 00
        E 16 83 2a 00
        E 16 83 2a 00
        E 16 83 2a 00
        E 16 83 2a 00
        E 16 83 2a 00
        E 16 83 2a 00
        E 16 83 2a 00
        E 16 83 2a 00
        E 16 83 2a 00
        E 16 83 2a 00
        E 16 83 2a 00
        E 16 83 2a 00
        E 16 83 2a 00
        E 16 83 2a 00
        E 16 83 2a 00
        E 16 83 2a 00
        E 16 83 2a 00
        E 16 83 2a 00
        E 16 83 2a 00
        E 16 83 2a 00
        E 16 83 2a 00
        E 16 83 2a 00
        E 16 83 2a 00
        E 16 83 2a 00
        E 16 83 2a 00
        E 16 83 2a 00
        E 16 83 2a 00
        E 16 83 2a 00
        E 16 83 2a 00
        E 16 83 2a 00
        E 16 83 2a 00
        E 16 83 2a 00
        E 16 83 2a 00
        E 16 83 2a 00
        E 16 83 2a 00
        E 16 83 2a 00
        E 16 83 2a 00
        E 16 83 2a 00
        E 16 83 2a 00
        E 16 83 2a 00
        E 16 83 2a 00
        E 16 83 2a 00
        E 16 83 2a 00
        E 16 83 2a 00
        E 16 83 2a 00
        E 16 83 2a 00
        E 16 83 2a 00
        E 16 83 2a 00
        E 16 83 2a 00
        E 16 83 2a 00
        E 16 83 2a 00
        E 16 83 2a 00
        E 16 83 2a 00
        E 16 83 2a 00
        E 16 83 2a 00
        E 16 83 2a 00
        E 16 83 2a 00
        E 16 83 2a 00
        E 16 83 2a 00
        E 16 83 2a 00
        E 16 83 2a 00
        E 16 83 2a 00
        E 16 83 2a 00
        E 16 83 2a 00
        E 16 83 2a 00
        E 16 83 2a 00
        E 16 83 2a 00
        E 16 83 2a 00
        E 16 83 2a 00
        E 16 83 2a 00
        E 16 83 2a 00
        E 16 83 2a 00
        E 16 83 2a 00
        E 16 83 2a 00
        E 16 83 2a 00
        E 16 83 2a 00
        E 16 83 2a 00
        E 16 83 2a 00
        E 16 83 2a 00
        E 16 83 2a 00
        E 16 83 2a 00
        E 16 83 2a 00
        E 16 83 2a 00
        E 16 83 2a 00
        E 16 83 2a 00
        E 16 83 2a 00
        E 16 83 2a 00
        E 16 83 2a 00
        E 16 83 2a 00
        E 16 83 2a 00
        E 16 83 2a 00
        E 16 83 2a 00
        E 16 83 2a 00
        E 16 83 2a 00
        E 16 83 2a 00
        E 16 83 2a 00
        E 16 83 2a 00
        E 16 83 2a 00
        E 16 83 2a 00
        E 16 83 2a 00
        E 16 83 2a 00
        E 16 83 2a 00
        E 16 83 2a 00
        E 16 83 2a 00
        E 16 83 2a 00
        E 16 83 2a 00
        E 16 83 2a 00
        E 16 83 2a 00
        E 16 83 2a 00
        E 16 83 2a 00
        E 16 83 2a 00
        E 16 83 2a 00
        E 16 83 2a 00
        E 16 83 2a 00
        E 16 83 2a 00
        E 16 83 2a 00
        E 16 83 2a 00
        E 16 83 2a 00
        E 16 83 2a 00
        E 16 83 2a 00
        E 16 83 2a 00
        E 16 83 2a 00
        E 16 83 2a 00
        E 16 83 2a 00
        E 16 83 2a 00
        E 16 83 2a 00
        E 16 83 2a 00
        E 16 83 2a 00
        E 16 83 2a 00
        E 16 83 2a 00
        E 16 83 2a 00
        E 16 83 2a 00
        E 16 83 2a 00
        E 16 83 2a 00
        E 16 83 2a 00
        E 16 83 2a 00
        E 16 83 2a 00
        E 16 83 2a 00
        E 16 83 2a 00
        E 16 83 2a 00
        E 16 83 2a 00
        E 16 83 2a 00
        E 16 83 2a 00
        E 16 83 2a 00
        E 16 83 2a 00
        E 16 83 2a 00
        E 16 83 2a 00
        E 16 83 2a 00
        E 16 83 2a 00
        E 16 83 2a 00
        E 16 83 2a 00
        E 16 83 2a 00
        E 16 83 2a 00
        E 16 83 2a 00
        E 16 83 2a 00
        E 16 83 2a 00
        E 16 83 2a 00
        E 16 83 2a 00
        E 16 83 2a 00
        E 16 83 2a 00
        E 16 83 2a 00
        E 16 83 2a 00
        E 16 83 2a 00
        E 16 83 2a 00
        E 16 83 2a 00
        E 16 83 2a 00
        E 16 83 2a 00
        E 16 83 2a 00
        E 16 83 2a 00
        E 16 83 2a 00
        E 16 83 2a 00
        E 16 83 2a 00
        E 16 83 2a 00
        E 16 83 2a 00
        E 16 83 2a 00
        E 16 83 2a 00
        E 16 83 2a 00
        E 16 83 2a 00
        E 16 83 2a 00
        E 16 83 2a 00
        E 16 83 2a 00
        E 16 83 2a 00
        E 16 83 2a 00
        E 16 83 2a 00
        E 16 83 2a 00
        E 16 83 2a 00
        E 16 83 2a 00
        E 16 83 2a 00
        E 16 83 2a 00
        E 16 83 2a 00
        E 16 83 2a 00
        E 16 83 2a 00
        E 16 83 2a 00
        E 16 83 2a 00
        E 16 83 2a 00
        E 16 83 2a 00
        E 16 83 2a 00
        E 16 83 2a 00
        E 16 83 2a 00
        E 16 83 2a 00
        E 16 83 2a 00
        E 16 83 2a 00
        E 16 83 2a 00
        E 16 83 2a 00
        E 16 83 2a 00
        E 16 83 2a 00
        E 16 83 2a 00
        E 16 83 2a 00
        E 16 83 2a 00
        E 16 83 2a 00
        E 16 83 2a 00
        E 16 83 2a 00
        E 16 83 2a 00
        E 16 83 2a 00
        E 16 83 2a 00
        E 16 83 2a 00
        E 16 83 2a 00
        E 16 83 2a 00
        E 16 83 2a 00
        E 16 83 2a 00
        E 16 83 2a 00
        E 16 83 2a 00
        E 16 83 2a 00
        E 16 83 2a 00
        E 16 83 2a 00
        E 16 83 2a 00
        E 16 83 2a 00
        E 16 83 2a 00
        E 16 83 2a 00
        E 16 83 2a 00
        E 16 83 2a 00
        E 16 83 2a 00
        E 16 83 2a 00
        E 16 83 2a 00
        E 16 83 2a 00
        E 16 83 2a 00
        E 16 83 2a 00
        E 16 83 2a 00
        E 16 83 2a 00
        E 16 83 2a 00
        E 16 83 2a 00
        E 16 83 2a 00
        E 16 83 2a 00
        E 16 83 2a 00
        E 16 83 2a 00
        E 16 83 2a 00
        E 16 83 2a 00
        E 16 83 2a 00
        E 16 83 2a 00
        E 16 83 2a 00
        E 16 83 2a 00
        E 16 83 2a 00
        E 16 83 2a 00
        E 16 83 2a 00
        E 16 83 2a 00
        E 16 83 2a 00
        E 16 83 2a 00
        E 16 83 2a 00
        E 16 83 2a 00
        E 16 83 2a 00
        E 16 83 2a 00
        E 16 83 2a 00
        E 16 83 2a 00
        E 16 83 2a 00
        E 16 83 2a 00
        E 16 83 2a 00
        E 16 83 2a 00
        E 16 83 2a 00
        E 16 83 2a 00
        E 16 83 2a 00
        E 16 83 2a 00
        E 16 83 2a 00
        E 16 83 2a 00
        E 16 83 2a 00
        E 16 83 2a 00
        E 16 83 2a 00
        E 16 83 2a 00
        E 16 83 2a 00
        E 16 83 2a 00
        E 16 83 2a 00
        E 16 83 2a 00
        E 16 83 2a 00
        E 16 83 2a 00
        E 16 83 2a 00
        E 16 83 2a 00
        E 16 83 2a 00
        E 16 83 2a 00
        E 16 83 2a 00
        E 16 83 2a 00
        E 16 83 2a 00
        E 16 83 2a 00
        E 16 83 2a 00
        E 16 83 2a 00
        E 16 83 2a 00
        E 16 83 2a 00
        E 16 83 2a 00
        E 16 83 2a 00
        E 16 83 2a 00
        E 16 83 2a 00
        E 16 83 2a 00
        E 16 83 2a 00
        E 16 83 2a 00
        E 16 83 2a 00
        E 16 83 2a 00
        E 16 83 2a 00
        E 16 83 2a 00
        E 16 83 2a 00
        E 16 83 2a 00
        E 16 83 2a 00
        E 16 83 2a 00
        E 16 83 2a 00
        E 16 83 2a 00
        E 16 83 2a 00
        E 16 83 2a 00
        E 16 83 2a 00
        E 16 83 2a 00
        E 16 83 2a 00
        E 16 83 2a 00
        E 16 83 2a 00
        E 16 83 2a 00
        E 16 83 2a 00
        E 16 83 2a 00
        E 16 83 2a 00
        E 16 83 2a 00
        E 16 83 2a 00
        E 16 83 2a 00
        E 16 83 2a 00
        E 16 83 2a 00
        E 16 83 2a 00
        E 16 83 2a 00
        E 16 83 2a 00
        E 16 83 2a 00
        E 16 83 2a 00
        E 16 83 2a 00
        E 16 83 2a 00
        E 16 83 2a 00
        E 16 83 2a 00
        E 16 83 2a 00
        E 16 83 2a 00
        E 16 83 2a 00
        E 16 83 2a 00
        E 16 83 2a 00
        E 16 83 2a 00
        E 16 83 2a 00
        E 16 83 2a 00
        E 16 83 2a 00
        E 16 83 2a 00
        E 16 83 2a 00
        E 16 83 2a 00
        E 16 83 2a 00
        E 16 83 2a 00
        E 16 83 2a 00
        E 16 83 2a 00
        E 16 83 2a 00
        E 16 83 2a 00
        E 16 83 2a 00
        E 16 83 2a 00
        E 16 83 2a 00
        E 16 83 2a 00
        E 16 83 2a 00
        E 16 83 2a 00
        E 16 83 2a 00
        E 16 83 2a 00
        E 16 83 2a 00
        E 16 83 2a 00
        E 16 83 2a 00
        E 16 83 2a 00
        E 16 83 2a 00
        E 16 83 2a 00
        E 16 83 2a 00
        E 16 83 2a 00
        E 16 83 2a 00
        E 16 83 2a 00
        E 16 83 2a 00
        E 16 83 2a 00
        E 16 83 2a 00
        E 16 83 2a 00
        E 16 83 2a 00
        E 16 83 2a 00
        E 16 83 2a 00
        E 16 83 2a 00
        E 16 83 2a 00
        E 16 83 2a 00
        E 16 83 2a 00
        E 16 83 2a 00
        E 16 83 2a 00
        E 16 83 2a 00
        E 16 83 2a 00
        E 16 83 2a 00
        E 16 83 2a 00
        E 16 83 2a 00
        E 16 83 2a 00
        E 16 83 2a 00
        E 16 83 2a 00
        E 16 83 2a 00
        E 16 83 2a 00
        E 16 83 2a 00
        E 16 83 2a 00
        E 16 83 2a 00
        E 16 83 2a 00
        E 16 83 2a 00
        E 16 83 2a 00
        E 16 83 2a 00
        E 16 83 2a 00
        E 16 83 2a 00
        E 16 83 2a 00
        E 16 83 2a 00
        E 16 83 2a 00
        E 16 83 2a 00
        E 16 83 2a 00
        E 16 83 2a 00
        E 16 83 2a 00
        E 16 83 2a 00
        E 16 83 2a 00
        E 16 83 2a 00
        E 16 83 2a 00
        E 16 83 2a 00
        E 16 83 2a 00
        E 16 83 2a 00
        E 16 83 2a 00
        E 16 83 2a 00
        E 16 83 2a 00
        E 16 83 2a 00
        E 16 83 2a 00
        E 16 83 2a 00
        E 16 83 2a 00
        E 16 83 2a 00
        E 16 83 2a 00
        E 16 83 2a 00
        E 16 83 2a 00
        E 16 83 2a 00
        E 16 83 2a 00
        E 16 83 2a 00
        E 16 83 2a 00
        E 16 83 2a 00
        E 16 83 2a 00
        E 16 83 2a 00
        E 16 83 2a 00
        E 16 83 2a 00
        E 16 83 2a 00
        E 16 83 2a 00
        E 16 83 2a 00
        E 16 83 2a 00
        E 16 83 2a 00
        E 16 83 2a 00
        E 16 83 2a 00
        E 16 83 2a 00
        E 16 83 2a 00
        E 16 83 2a 00
        E 16 83 2a 00
        E 16 83 2a 00
        E 16 83 2a 00
        E 16 83 2a 00
        E 16 83 2a 00
        E 16 83 2a 00
        E 16 83 2a 00
        E 16 83 2a 00
        E 16 83 2a 00
        E 16 83 2a 00
        E 16 83 2a 00
        E 16 83 2a 00
        E 16 83 2a 00
        E 16 83 2a 00
        E 16 83 2a 00
        E 16 83 2a 00
        E 16 83 2a 00
        E 16 83 2a 00
        E 16 83 2a 00
        E 16 83 2a 00
        E 16 83 2a 00
        E 16 83 2a 00
        E 16 83 2a 00
        E 16 83 2a 00
        E 16 83 2a 00
        E 16 83 2a 00
        E 16 83 2a 00
        E 16 83 2a 00
        E 16 83 2a 00
        E 16 83 2a 00
        E 16 83 2a 00
        E 16 83 2a 00
        E 16 83 2a 00
        E 16 83 2a 00
        E 16 83 2a 00
        E 16 83 2a 00
        E 16 83 2a 00
        E 16 83 2a 00
        E 16 83 2a 00
        E 16 83 2a 00
        E 16 83 2a 00
        E 16 83 2a 00
        E 16 83 2a 00
        E 16 83 2a 00
        E 16 83 2a 00
        E 16 83 2a 00
        E 16 83 2a 00
        E 16 83 2a 00
        E 16 83 2a 00
        E 16 83 2a 00
        E 16 83 2a 00
        E 16 83 2a 00
        E 16 83 2a 00
        E 16 83 2a 00
        E 16 83 2a 00
        E 16 83 2a 00
        E 16 83 2a 00
        E 16 83 2a 00
        E 16 83 2a 00
        E 16 83 2a 00
        E 16 83 2a 00
        E 16 83 2a 00
        E 16 83 2a 00
        E 16 83 2a 00
        E 16 83 2a 00
        E 16 83 2a 00
        E 16 83 2a 00
        E 16 83 2a 00
        E 16 83 2a 00
        E 16 83 2a 00
        E 16 83 2a 00
        E 16 83 2a 00
        E 16 83 2a 00
        E 16 83 2a 00
        E 16 83 2a 00
        E 16 83 2a 00
        E 16 83 2a 00
        E 16 83 2a 00
        E 16 83 2a 00
        E 16 83 2a 00
        E 16 83 2a 00
        E 16 83 2a 00
        E 16 83 2a 00
        E 16 83 2a 00
        E 16 83 2a 00
        E 16 83 2a 00
        E 16 83 2a 00
        E 16 83 2a 00
        E 16 83 2a 00
        E 16 83 2a 00
        E 16 83 2a 00
        E 16 83 2a 00
        E 16 83 2a 00
        E 16 83 2a 00
        E 16 83 2a 00
        E 16 83 2a 00
        E 16 83 2a 00
        E 16 83 2a 00
        E 16 83 2a 00
        E 16 83 2a 00
        E 16 83 2a 00
        E 16 83 2a 00
        E 16 83 2a 00
        E 16 83 2a 00
        E 16 83 2a 00
        E 16 83 2a 00
        E 16 83 2a 00
        E 16 83 2a 00
        E 16 83 2a 00
        E 16 83 2a 00
        E 16 83 2a 00
        E 16 83 2a 00
        E 16 83 2a 00
        E 16 83 2a 00
        E 16 83 2a 00
        E 16 83 2a 00
        E 16 83 2a 00
        E 16 83 2a 00
        E 16 83 2a 00
        E 16 83 2a 00
        E 16 83 2a 00
        E 16 83 2a 00
        E 16 83 2a 00
        E 16 83 2a 00
        E 16 83 2a 00
        E 16 83 2a 00
        E 16 83 2a 00
        E 16 83 2a 00
        E 16 83 2a 00
        E 16 83 2a 00
        E 16 83 2a 00
        E 16 83 2a 00
        E 16 83 2a 00
        E 16 83 2a 00
        E 16 83 2a 00
        E 16 83 2a 00
        E 16 83 2a 00
        E 16 83 2a 00
        E 16 83 2a 00
        E 16 83 2a 00
        E 16 83 2a 00
        E 16 83 2a 00
        E 16 83 2a 00
        E 16 83 2a 00
        E 16 83 2a 00
        E 16 83 2a 00
        E 16 83 2a 00
        E 16 83 2a 00
        E 16 83 2a 00
        E 16 83 2a 00
        E 16 83 2a 00
        E 16 83 2a 00
        E 16 83 2a 00
        E 16 83 2a 00
        E 16 83 2a 00
        E 16 83 2a 00
        E 16 83 2a 00
        E 16 83 2a 00
        E 16 83 2a 00
        E 16 83 2a 00
        E 16 83 2a 00
        E 16 83 2a 00
        E 16 83 2a 00
        E 16 83 2a 00
        E 16 83 2a 00
        E 16 83 2a 00
        E 16 83 2a 00
        E 16 83 2a 00
        E 16 83 2a 00
        E 16 83 2a 00
        E 16 83 2a 00
        E 16 83 2a 00
        E 16 83 2a 00
        E 16 83 2a 00
        E 16 83 2a 00
        E 16 83 2a 00
        E 16 83 2a 00
        E 16 83 2a 00
        E 16 83 2a 00
        E 16 83 2a 00
        E 16 83 2a 00
        E 16 83 2a 00
        E 16 83 2a 00
        E 16 83 2a 00
        E 16 83 2a 00
        E 16 83 2a 00
        E 16 83 2a 00
        E 16 83 2a 00
        E 16 83 2a 00
        E 16 83 2a 00
        E 16 83 2a 00
        E 16 83 2a 00
        E 16 83 2a 00
        E 16 83 2a 00
        E 16 83 2a 00
        E 16 83 2a 00
        E 96 93 2a 60
        E 208 83 2a 00
        E 16 83 2a 00
        E 16 83 2a 00
        E 16 83 2a 00
        E 16 83 2a 00
        E 16 83 2a 00
        E 16 83 2a 00
        E 16 83 2a 00
        E 16 83 2a 00
        E 16 83 2a 00
        E 16 83 2a 00
        E 16 83 2a 00
        E 16 83 2a 00
        E 16 83 2a 00
        E 16 83 2a 00
        E 16 83 2a 00
        E 16 83 2a 00
        E 16 83 2a 00
        E 96 93 2a 60
        E 96 83 2a 00
        E 0 ff 2f 00
      >
    >
  >
>