<REAPER_PROJECT 0.1 "7.27/win64" 1707000000
  <NOTES 0 2
    |ReapNES Studio Project
    |MIDI Import - Super_Mario_Bros._01_Overworld_mesen_v1
  >
  RIPPLE 0
  GROUPOVERRIDE 0 0 0
  AUTOXFADE 129
  ENVATTACH 3
  POOLEDENVATTACH 0
  MIXERUIFLAGS 11 48
  ENVFADESZ10 40
  PEAKGAIN 1
  FEEDBACK 0
  PANLAW 1
  PROJOFFS 0 0 0
  MAXPROJLEN 0 0
  GRID 3199 8 1 8 1 0 0 0
  TIMEMODE 1 5 -1 30 0 0 -1
  VIDEO_CONFIG 0 0 65792
  PANMODE 3
  PANLAWFLAGS 3
  CURSOR 0
  ZOOM 100 0 0
  VZOOMEX 6 0
  USE_REC_CFG 0
  RECMODE 1
  SMPTESYNC 0 30 100 40 1000 300 0 0 1 0 0
  LOOP 0
  LOOPGRAN 0 4
  RECORD_PATH "Media" ""
  <RECORD_CFG
    ZXZhdxgAAQ==
  >
  <APPLYFX_CFG
  >
  RENDER_FILE ""
  RENDER_PATTERN ""
  RENDER_FMT 0 2 0
  RENDER_1X 0
  RENDER_RANGE 1 0 0 18 1000
  RENDER_RESAMPLE 3 0 1
  RENDER_ADDTOPROJ 0
  RENDER_STEMS 0
  RENDER_DITHER 0
  TIMELOCKMODE 1
  TEMPOENVLOCKMODE 1
  ITEMMIX 1
  DEFPITCHMODE 589824 0
  TAKELANE 1
  SAMPLERATE 44100 0 0
  <RENDER_CFG
    ZXZhdxgAAQ==
  >
  LOCK 1
  <METRONOME 6 2
    VOL 0.25 0.125
    BEATLEN 4
    FREQ 1760 880 1
    SAMPLES "" ""
    SPLIGNORE 0 0
    SPLDEF 2 660 "" 0
    SPLDEF 3 440 "" 0
    PATTERN 0 169
    PATTERNSTR ABBB
    MULT 1
  >
  GLOBAL_AUTO -1
  TEMPO 128.59999614200012 4 4
  PLAYRATE 1 0 0.25 4
  SELECTION 0 0
  SELECTION2 0 0
  MASTERAUTOMODE 0
  MASTERTRACKHEIGHT 0 0
  MASTERPEAKCOL 16576
  MASTERMUTESOLO 0
  MASTERTRACKVIEW 0 0.6667 0.5 0.5 0 0 0 0 0 0 0 0 0 0
  MASTERHWOUT 0 0 1 0 0 0 0 -1
  MASTER_NCH 2 2
  MASTER_VOLUME 1 0 -1 -1 1
  MASTER_PANMODE 3
  MASTER_PANLAWFLAGS 3
  MASTER_FX 1
  MASTER_SEL 0
  <MASTERPLAYSPEEDENV
    EGUID {E09E1930-E015-4B3F-92EB-E0591FC9E876}
    ACT 0 -1
    VIS 0 1 1
    LANEHEIGHT 0 0
    ARM 0
    DEFSHAPE 0 -1 -1
  >
  <TEMPOENVEX
    EGUID {9E29B868-7F6E-4D54-B4A7-A9332BEE56E9}
    ACT 1 -1
    VIS 1 0 1
    LANEHEIGHT 0 0
    ARM 0
    DEFSHAPE 1 -1 -1
  >
  <PROJBAY
  >
  <TRACK {824502CF-02F9-4B95-A5E3-FB21652AC024}
    NAME "NES - Pulse 1 [ch0]"
    PEAKCOL 16576606
    BEAT -1
    AUTOMODE 0
    PANLAWFLAGS 3
    VOLPAN 1 0 -1 -1 1
    MUTESOLO 0 0 0
    IPHASE 0
    PLAYOFFS 0 1
    ISBUS 0 0
    BUSCOMP 0 0 0 0 0
    SHOWINMIX 1 0.6667 0.5 1 0.5 0 0 0
    FIXEDLANES 9 0 0 0 0
    SEL 1
    REC 1 5088 1 0 0 0 0 0
    VU 2
    TRACKHEIGHT 0 0 0 0 0 0 0
    INQ 0 0 0 0.5 100 0 0 100
    NCHAN 2
    FX 1
    TRACKID {824502CF-02F9-4B95-A5E3-FB21652AC024}
    PERF 0
    MIDIOUT -1
    MAINSEND 1 0
    <FXCHAIN
      WNDRECT 24 52 700 560
      SHOW 0
      LASTSEL 0
      DOCKED 0
      BYPASS 0 0 0
      <JS "ReapNES Studio/ReapNES_Console.jsfx" ""
        2 15 1 10 80 10 100 2 1 15 1 5 60 10 80 1 1 0 50 0 0 15 1 0 100 0 0 0.500000 0.500000 0.400000 0.300000 0.800000 0 1 0 0 0 0 - - - - - - - - - - - - - - - - - - - - - - - - - -
      >
      FLOATPOS 0 0 0 0
      FXID {5CEDF66A-5AAA-4922-8D20-3B6899E7ED05}
      WAK 0 0
    >
    <ITEM
      POSITION 0
      LENGTH 93.5614336
      LOOP 0
      ALLTAKES 0
      FADEIN 0 0 0 0 0 0 0
      FADEOUT 0 0 0 0 0 0 0
      MUTE 0 0
      SEL 0
      IGUID {95561577-48D1-4998-95A2-E38811BD2CE0}
      <SOURCE MIDI
        HASDATA 1 480 QN
        CCINTERP 32
        E 0 c0 50
        E 0 b0 0c 40
        E 0 b0 0b 44
        E 0 90 36 44
        E 16 b0 0b 3b
        E 16 b0 0b 33
        E 16 b0 0b 2a
        E 32 b0 0b 22
        E 32 80 36 00
        E 32 b0 0b 44
        E 0 90 36 44
        E 16 b0 0b 3b
        E 16 b0 0b 33
        E 16 b0 0b 2a
        E 32 b0 0b 22
        E 32 80 36 00
        E 176 b0 0b 44
        E 0 90 36 44
        E 16 b0 0b 3b
        E 16 b0 0b 33
        E 16 b0 0b 2a
        E 32 b0 0b 22
        E 32 80 36 00
        E 176 b0 0b 44
        E 0 90 36 44
        E 16 b0 0b 3b
        E 16 b0 0b 33
        E 16 b0 0b 2a
        E 32 b0 0b 22
        E 32 80 36 00
        E 32 b0 0b 44
        E 0 90 36 44
        E 16 b0 0b 3b
        E 16 b0 0b 33
        E 16 b0 0b 2a
        E 32 b0 0b 22
        E 32 80 36 00
        E 176 b0 0b 44
        E 0 90 3b 44
        E 16 b0 0b 3b
        E 16 b0 0b 33
        E 16 b0 0b 2a
        E 32 b0 0b 22
        E 32 80 3b 00
        E 464 b0 0b 44
        E 0 90 37 44
        E 16 b0 0b 3b
        E 16 b0 0b 33
        E 16 b0 0b 2a
        E 32 b0 0b 22
        E 32 80 37 00
        E 464 b0 0b 44
        E 0 90 34 44
        E 16 b0 0b 3b
        E 16 b0 0b 33
        E 16 b0 0b 2a
        E 32 b0 0b 22
        E 32 80 34 00
        E 320 b0 0b 44
        E 0 90 30 44
        E 16 b0 0b 3b
        E 16 b0 0b 33
        E 16 b0 0b 2a
        E 32 b0 0b 22
        E 32 80 30 00
        E 320 b0 0b 44
        E 0 90 2b 44
        E 16 b0 0b 3b
        E 16 b0 0b 33
        E 16 b0 0b 2a
        E 32 b0 0b 22
        E 32 80 2b 00
        E 320 b0 0b 44
        E 0 90 30 44
        E 16 b0 0b 3b
        E 16 b0 0b 33
        E 16 b0 0b 2a
        E 32 b0 0b 22
        E 32 80 30 00
        E 176 b0 0b 44
        E 0 90 32 44
        E 16 b0 0b 3b
        E 16 b0 0b 33
        E 16 b0 0b 2a
        E 32 b0 0b 22
        E 32 80 32 00
        E 176 b0 0b 44
        E 0 90 31 44
        E 16 b0 0b 3b
        E 16 b0 0b 33
        E 16 b0 0b 2a
        E 32 b0 0b 22
        E 32 80 31 00
        E 32 b0 0b 44
        E 0 90 30 44
        E 16 b0 0b 3b
        E 16 b0 0b 33
        E 16 b0 0b 2a
        E 32 b0 0b 22
        E 32 80 30 00
        E 176 b0 0b 44
        E 0 90 30 44
        E 16 b0 0b 3b
        E 16 b0 0b 33
        E 16 b0 0b 2a
        E 32 b0 0b 22
        E 32 80 30 00
        E 80 b0 0b 44
        E 0 90 37 44
        E 16 b0 0b 3b
        E 16 b0 0b 33
        E 16 b0 0b 2a
        E 32 b0 0b 22
        E 32 80 37 00
        E 80 b0 0b 44
        E 0 90 3b 44
        E 16 b0 0b 3b
        E 16 b0 0b 33
        E 16 b0 0b 2a
        E 32 b0 0b 22
        E 32 80 3b 00
        E 80 b0 0b 44
        E 0 90 3c 44
        E 16 b0 0b 3b
        E 16 b0 0b 33
        E 16 b0 0b 2a
        E 32 b0 0b 22
        E 32 80 3c 00
        E 176 b0 0b 44
        E 0 90 39 44
        E 16 b0 0b 3b
        E 16 b0 0b 33
        E 16 b0 0b 2a
        E 32 b0 0b 22
        E 32 80 39 00
        E 32 b0 0b 44
        E 0 90 3b 44
        E 16 b0 0b 3b
        E 16 b0 0b 33
        E 16 b0 0b 2a
        E 32 b0 0b 22
        E 32 80 3b 00
        E 176 b0 0b 44
        E 0 90 39 44
        E 16 b0 0b 3b
        E 16 b0 0b 33
        E 16 b0 0b 2a
        E 32 b0 0b 22
        E 32 80 39 00
        E 176 b0 0b 44
        E 0 90 34 44
        E 16 b0 0b 3b
        E 16 b0 0b 33
        E 16 b0 0b 2a
        E 32 b0 0b 22
        E 32 80 34 00
        E 32 b0 0b 44
        E 0 90 35 44
        E 16 b0 0b 3b
        E 16 b0 0b 33
        E 16 b0 0b 2a
        E 32 b0 0b 22
        E 32 80 35 00
        E 32 b0 0b 44
        E 0 90 32 44
        E 16 b0 0b 3b
        E 16 b0 0b 33
        E 16 b0 0b 2a
        E 32 b0 0b 22
        E 32 80 32 00
        E 320 b0 0b 44
        E 0 90 34 44
        E 16 b0 0b 3b
        E 16 b0 0b 33
        E 16 b0 0b 2a
        E 32 b0 0b 22
        E 32 80 34 00
        E 320 b0 0b 44
        E 0 90 30 44
        E 16 b0 0b 3b
        E 16 b0 0b 33
        E 16 b0 0b 2a
        E 32 b0 0b 22
        E 32 80 30 00
        E 320 b0 0b 44
        E 0 90 2b 44
        E 16 b0 0b 3b
        E 16 b0 0b 33
        E 16 b0 0b 2a
        E 32 b0 0b 22
        E 32 80 2b 00
        E 320 b0 0b 44
        E 0 90 30 44
        E 16 b0 0b 3b
        E 16 b0 0b 33
        E 16 b0 0b 2a
        E 32 b0 0b 22
        E 32 80 30 00
        E 176 b0 0b 44
        E 0 90 32 44
        E 16 b0 0b 3b
        E 16 b0 0b 33
        E 16 b0 0b 2a
        E 32 b0 0b 22
        E 32 80 32 00
        E 176 b0 0b 44
        E 0 90 31 44
        E 16 b0 0b 3b
        E 16 b0 0b 33
        E 16 b0 0b 2a
        E 32 b0 0b 22
        E 32 80 31 00
        E 32 b0 0b 44
        E 0 90 30 44
        E 16 b0 0b 3b
        E 16 b0 0b 33
        E 16 b0 0b 2a
        E 32 b0 0b 22
        E 32 80 30 00
        E 176 b0 0b 44
        E 0 90 30 44
        E 16 b0 0b 3b
        E 16 b0 0b 33
        E 16 b0 0b 2a
        E 32 b0 0b 22
        E 32 80 30 00
        E 80 b0 0b 44
        E 0 90 37 44
        E 16 b0 0b 3b
        E 16 b0 0b 33
        E 16 b0 0b 2a
        E 32 b0 0b 22
        E 32 80 37 00
        E 80 b0 0b 44
        E 0 90 3b 44
        E 16 b0 0b 3b
        E 16 b0 0b 33
        E 16 b0 0b 2a
        E 32 b0 0b 22
        E 32 80 3b 00
        E 80 b0 0b 44
        E 0 90 3c 44
        E 16 b0 0b 3b
        E 16 b0 0b 33
        E 16 b0 0b 2a
        E 32 b0 0b 22
        E 32 80 3c 00
        E 176 b0 0b 44
        E 0 90 39 44
        E 16 b0 0b 3b
        E 16 b0 0b 33
        E 16 b0 0b 2a
        E 32 b0 0b 22
        E 32 80 39 00
        E 32 b0 0b 44
        E 0 90 3b 44
        E 16 b0 0b 3b
        E 16 b0 0b 33
        E 16 b0 0b 2a
        E 32 b0 0b 22
        E 32 80 3b 00
        E 176 b0 0b 44
        E 0 90 39 44
        E 16 b0 0b 3b
        E 16 b0 0b 33
        E 16 b0 0b 2a
        E 32 b0 0b 22
        E 32 80 39 00
        E 176 b0 0b 44
        E 0 90 34 44
        E 16 b0 0b 3b
        E 16 b0 0b 33
        E 16 b0 0b 2a
        E 32 b0 0b 22
        E 32 80 34 00
        E 32 b0 0b 44
        E 0 90 35 44
        E 16 b0 0b 3b
        E 16 b0 0b 33
        E 16 b0 0b 2a
        E 32 b0 0b 22
        E 32 80 35 00
        E 32 b0 0b 44
        E 0 90 32 44
        E 16 b0 0b 3b
        E 16 b0 0b 33
        E 16 b0 0b 2a
        E 32 b0 0b 22
        E 32 80 32 00
        E 608 b0 0b 44
        E 0 90 40 44
        E 16 b0 0b 3b
        E 16 b0 0b 33
        E 16 b0 0b 2a
        E 32 b0 0b 22
        E 32 80 40 00
        E 32 b0 0b 44
        E 0 90 3f 44
        E 16 b0 0b 3b
        E 16 b0 0b 33
        E 16 b0 0b 2a
        E 32 b0 0b 22
        E 32 80 3f 00
        E 32 b0 0b 44
        E 0 90 3e 44
        E 16 b0 0b 3b
        E 16 b0 0b 33
        E 16 b0 0b 2a
        E 32 b0 0b 22
        E 32 80 3e 00
        E 32 b0 0b 44
        E 0 90 3b 44
        E 16 b0 0b 3b
        E 16 b0 0b 33
        E 16 b0 0b 2a
        E 32 b0 0b 22
        E 32 80 3b 00
        E 176 b0 0b 44
        E 0 90 3c 44
        E 16 b0 0b 3b
        E 16 b0 0b 33
        E 16 b0 0b 2a
        E 32 b0 0b 22
        E 32 80 3c 00
        E 176 b0 0b 44
        E 0 90 34 44
        E 16 b0 0b 3b
        E 16 b0 0b 33
        E 16 b0 0b 2a
        E 32 b0 0b 22
        E 32 80 34 00
        E 32 b0 0b 44
        E 0 90 35 44
        E 16 b0 0b 3b
        E 16 b0 0b 33
        E 16 b0 0b 2a
        E 32 b0 0b 22
        E 32 80 35 00
        E 32 b0 0b 44
        E 0 90 37 44
        E 16 b0 0b 3b
        E 16 b0 0b 33
        E 16 b0 0b 2a
        E 32 b0 0b 22
        E 32 80 37 00
        E 176 b0 0b 44
        E 0 90 30 44
        E 16 b0 0b 3b
        E 16 b0 0b 33
        E 16 b0 0b 2a
        E 32 b0 0b 22
        E 32 80 30 00
        E 32 b0 0b 44
        E 0 90 34 44
        E 16 b0 0b 3b
        E 16 b0 0b 33
        E 16 b0 0b 2a
        E 32 b0 0b 22
        E 32 80 34 00
        E 32 b0 0b 44
        E 0 90 35 44
        E 16 b0 0b 3b
        E 16 b0 0b 33
        E 16 b0 0b 2a
        E 32 b0 0b 22
        E 32 80 35 00
        E 320 b0 0b 44
        E 0 90 40 44
        E 16 b0 0b 3b
        E 16 b0 0b 33
        E 16 b0 0b 2a
        E 32 b0 0b 22
        E 32 80 40 00
        E 32 b0 0b 44
        E 0 90 3f 44
        E 16 b0 0b 3b
        E 16 b0 0b 33
        E 16 b0 0b 2a
        E 32 b0 0b 22
        E 32 80 3f 00
        E 32 b0 0b 44
        E 0 90 3e 44
        E 16 b0 0b 3b
        E 16 b0 0b 33
        E 16 b0 0b 2a
        E 32 b0 0b 22
        E 32 80 3e 00
        E 32 b0 0b 44
        E 0 90 3b 44
        E 16 b0 0b 3b
        E 16 b0 0b 33
        E 16 b0 0b 2a
        E 32 b0 0b 22
        E 32 80 3b 00
        E 176 b0 0b 44
        E 0 90 3c 44
        E 16 b0 0b 3b
        E 16 b0 0b 33
        E 16 b0 0b 2a
        E 32 b0 0b 22
        E 32 80 3c 00
        E 176 b0 0b 44
        E 0 90 41 44
        E 16 b0 0b 3b
        E 16 b0 0b 33
        E 16 b0 0b 2a
        E 32 b0 0b 22
        E 32 80 41 00
        E 176 b0 0b 44
        E 0 90 41 44
        E 16 b0 0b 3b
        E 16 b0 0b 33
        E 16 b0 0b 2a
        E 32 b0 0b 22
        E 32 80 41 00
        E 32 b0 0b 44
        E 0 90 41 44
        E 16 b0 0b 3b
        E 16 b0 0b 33
        E 16 b0 0b 2a
        E 32 b0 0b 22
        E 32 80 41 00
        E 752 b0 0b 44
        E 0 90 40 44
        E 16 b0 0b 3b
        E 16 b0 0b 33
        E 16 b0 0b 2a
        E 32 b0 0b 22
        E 32 80 40 00
        E 32 b0 0b 44
        E 0 90 3f 44
        E 16 b0 0b 3b
        E 16 b0 0b 33
        E 16 b0 0b 2a
        E 32 b0 0b 22
        E 32 80 3f 00
        E 32 b0 0b 44
        E 0 90 3e 44
        E 16 b0 0b 3b
        E 16 b0 0b 33
        E 16 b0 0b 2a
        E 32 b0 0b 22
        E 32 80 3e 00
        E 32 b0 0b 44
        E 0 90 3b 44
        E 16 b0 0b 3b
        E 16 b0 0b 33
        E 16 b0 0b 2a
        E 32 b0 0b 22
        E 32 80 3b 00
        E 176 b0 0b 44
        E 0 90 3c 44
        E 16 b0 0b 3b
        E 16 b0 0b 33
        E 16 b0 0b 2a
        E 32 b0 0b 22
        E 32 80 3c 00
        E 176 b0 0b 44
        E 0 90 34 44
        E 16 b0 0b 3b
        E 16 b0 0b 33
        E 16 b0 0b 2a
        E 32 b0 0b 22
        E 32 80 34 00
        E 32 b0 0b 44
        E 0 90 35 44
        E 16 b0 0b 3b
        E 16 b0 0b 33
        E 16 b0 0b 2a
        E 32 b0 0b 22
        E 32 80 35 00
        E 32 b0 0b 44
        E 0 90 37 44
        E 16 b0 0b 3b
        E 16 b0 0b 33
        E 16 b0 0b 2a
        E 32 b0 0b 22
        E 32 80 37 00
        E 176 b0 0b 44
        E 0 90 30 44
        E 16 b0 0b 3b
        E 16 b0 0b 33
        E 16 b0 0b 2a
        E 32 b0 0b 22
        E 32 80 30 00
        E 32 b0 0b 44
        E 0 90 34 44
        E 16 b0 0b 3b
        E 16 b0 0b 33
        E 16 b0 0b 2a
        E 32 b0 0b 22
        E 32 80 34 00
        E 32 b0 0b 44
        E 0 90 35 44
        E 16 b0 0b 3b
        E 16 b0 0b 33
        E 16 b0 0b 2a
        E 32 b0 0b 22
        E 32 80 35 00
        E 320 b0 0b 44
        E 0 90 38 44
        E 16 b0 0b 3b
        E 16 b0 0b 33
        E 16 b0 0b 2a
        E 32 b0 0b 22
        E 32 80 38 00
        E 320 b0 0b 44
        E 0 90 35 44
        E 16 b0 0b 3b
        E 16 b0 0b 33
        E 16 b0 0b 2a
        E 32 b0 0b 22
        E 32 80 35 00
        E 320 b0 0b 44
        E 0 90 34 44
        E 16 b0 0b 3b
        E 16 b0 0b 33
        E 16 b0 0b 2a
        E 32 b0 0b 22
        E 32 80 34 00
        E 1328 b0 0b 44
        E 0 90 40 44
        E 16 b0 0b 3b
        E 16 b0 0b 33
        E 16 b0 0b 2a
        E 32 b0 0b 22
        E 32 80 40 00
        E 32 b0 0b 44
        E 0 90 3f 44
        E 16 b0 0b 3b
        E 16 b0 0b 33
        E 16 b0 0b 2a
        E 32 b0 0b 22
        E 32 80 3f 00
        E 32 b0 0b 44
        E 0 90 3e 44
        E 16 b0 0b 3b
        E 16 b0 0b 33
        E 16 b0 0b 2a
        E 32 b0 0b 22
        E 32 80 3e 00
        E 32 b0 0b 44
        E 0 90 3b 44
        E 16 b0 0b 3b
        E 16 b0 0b 33
        E 16 b0 0b 2a
        E 32 b0 0b 22
        E 32 80 3b 00
        E 176 b0 0b 44
        E 0 90 3c 44
        E 16 b0 0b 3b
        E 16 b0 0b 33
        E 16 b0 0b 2a
        E 32 b0 0b 22
        E 32 80 3c 00
        E 176 b0 0b 44
        E 0 90 34 44
        E 16 b0 0b 3b
        E 16 b0 0b 33
        E 16 b0 0b 2a
        E 32 b0 0b 22
        E 32 80 34 00
        E 32 b0 0b 44
        E 0 90 35 44
        E 16 b0 0b 3b
        E 16 b0 0b 33
        E 16 b0 0b 2a
        E 32 b0 0b 22
        E 32 80 35 00
        E 32 b0 0b 44
        E 0 90 37 44
        E 16 b0 0b 3b
        E 16 b0 0b 33
        E 16 b0 0b 2a
        E 32 b0 0b 22
        E 32 80 37 00
        E 176 b0 0b 44
        E 0 90 30 44
        E 16 b0 0b 3b
        E 16 b0 0b 33
        E 16 b0 0b 2a
        E 32 b0 0b 22
        E 32 80 30 00
        E 32 b0 0b 44
        E 0 90 34 44
        E 16 b0 0b 3b
        E 16 b0 0b 33
        E 16 b0 0b 2a
        E 32 b0 0b 22
        E 32 80 34 00
        E 32 b0 0b 44
        E 0 90 35 44
        E 16 b0 0b 3b
        E 16 b0 0b 33
        E 16 b0 0b 2a
        E 32 b0 0b 22
        E 32 80 35 00
        E 320 b0 0b 44
        E 0 90 40 44
        E 16 b0 0b 3b
        E 16 b0 0b 33
        E 16 b0 0b 2a
        E 32 b0 0b 22
        E 32 80 40 00
        E 32 b0 0b 44
        E 0 90 3f 44
        E 16 b0 0b 3b
        E 16 b0 0b 33
        E 16 b0 0b 2a
        E 32 b0 0b 22
        E 32 80 3f 00
        E 32 b0 0b 44
        E 0 90 3e 44
        E 16 b0 0b 3b
        E 16 b0 0b 33
        E 16 b0 0b 2a
        E 32 b0 0b 22
        E 32 80 3e 00
        E 32 b0 0b 44
        E 0 90 3b 44
        E 16 b0 0b 3b
        E 16 b0 0b 33
        E 16 b0 0b 2a
        E 32 b0 0b 22
        E 32 80 3b 00
        E 176 b0 0b 44
        E 0 90 3c 44
        E 16 b0 0b 3b
        E 16 b0 0b 33
        E 16 b0 0b 2a
        E 32 b0 0b 22
        E 32 80 3c 00
        E 176 b0 0b 44
        E 0 90 41 44
        E 16 b0 0b 3b
        E 16 b0 0b 33
        E 16 b0 0b 2a
        E 32 b0 0b 22
        E 32 80 41 00
        E 176 b0 0b 44
        E 0 90 41 44
        E 16 b0 0b 3b
        E 16 b0 0b 33
        E 16 b0 0b 2a
        E 32 b0 0b 22
        E 32 80 41 00
        E 32 b0 0b 44
        E 0 90 41 44
        E 16 b0 0b 3b
        E 16 b0 0b 33
        E 16 b0 0b 2a
        E 32 b0 0b 22
        E 32 80 41 00
        E 752 b0 0b 44
        E 0 90 40 44
        E 16 b0 0b 3b
        E 16 b0 0b 33
        E 16 b0 0b 2a
        E 32 b0 0b 22
        E 32 80 40 00
        E 32 b0 0b 44
        E 0 90 3f 44
        E 16 b0 0b 3b
        E 16 b0 0b 33
        E 16 b0 0b 2a
        E 32 b0 0b 22
        E 32 80 3f 00
        E 32 b0 0b 44
        E 0 90 3e 44
        E 16 b0 0b 3b
        E 16 b0 0b 33
        E 16 b0 0b 2a
        E 32 b0 0b 22
        E 32 80 3e 00
        E 32 b0 0b 44
        E 0 90 3b 44
        E 16 b0 0b 3b
        E 16 b0 0b 33
        E 16 b0 0b 2a
        E 32 b0 0b 22
        E 32 80 3b 00
        E 176 b0 0b 44
        E 0 90 3c 44
        E 16 b0 0b 3b
        E 16 b0 0b 33
        E 16 b0 0b 2a
        E 32 b0 0b 22
        E 32 80 3c 00
        E 176 b0 0b 44
        E 0 90 34 44
        E 16 b0 0b 3b
        E 16 b0 0b 33
        E 16 b0 0b 2a
        E 32 b0 0b 22
        E 32 80 34 00
        E 32 b0 0b 44
        E 0 90 35 44
        E 16 b0 0b 3b
        E 16 b0 0b 33
        E 16 b0 0b 2a
        E 32 b0 0b 22
        E 32 80 35 00
        E 32 b0 0b 44
        E 0 90 37 44
        E 16 b0 0b 3b
        E 16 b0 0b 33
        E 16 b0 0b 2a
        E 32 b0 0b 22
        E 32 80 37 00
        E 176 b0 0b 44
        E 0 90 30 44
        E 16 b0 0b 3b
        E 16 b0 0b 33
        E 16 b0 0b 2a
        E 32 b0 0b 22
        E 32 80 30 00
        E 32 b0 0b 44
        E 0 90 34 44
        E 16 b0 0b 3b
        E 16 b0 0b 33
        E 16 b0 0b 2a
        E 32 b0 0b 22
        E 32 80 34 00
        E 32 b0 0b 44
        E 0 90 35 44
        E 16 b0 0b 3b
        E 16 b0 0b 33
        E 16 b0 0b 2a
        E 32 b0 0b 22
        E 32 80 35 00
        E 320 b0 0b 44
        E 0 90 38 44
        E 16 b0 0b 3b
        E 16 b0 0b 33
        E 16 b0 0b 2a
        E 32 b0 0b 22
        E 32 80 38 00
        E 320 b0 0b 44
        E 0 90 35 44
        E 16 b0 0b 3b
        E 16 b0 0b 33
        E 16 b0 0b 2a
        E 32 b0 0b 22
        E 32 80 35 00
        E 320 b0 0b 44
        E 0 90 34 44
        E 16 b0 0b 3b
        E 16 b0 0b 33
        E 16 b0 0b 2a
        E 32 b0 0b 22
        E 32 80 34 00
        E 1040 b0 0b 44
        E 0 90 38 44
        E 16 b0 0b 3b
        E 16 b0 0b 33
        E 16 b0 0b 2a
        E 32 b0 0b 22
        E 32 80 38 00
        E 32 b0 0b 44
        E 0 90 38 44
        E 16 b0 0b 3b
        E 16 b0 0b 33
        E 16 b0 0b 2a
        E 32 b0 0b 22
        E 32 80 38 00
        E 176 b0 0b 44
        E 0 90 38 44
        E 16 b0 0b 3b
        E 16 b0 0b 33
        E 16 b0 0b 2a
        E 32 b0 0b 22
        E 32 80 38 00
        E 176 b0 0b 44
        E 0 90 38 44
        E 16 b0 0b 3b
        E 16 b0 0b 33
        E 16 b0 0b 2a
        E 32 b0 0b 22
        E 32 80 38 00
        E 32 b0 0b 44
        E 0 90 3a 44
        E 16 b0 0b 3b
        E 16 b0 0b 33
        E 16 b0 0b 2a
        E 32 b0 0b 22
        E 32 80 3a 00
        E 176 b0 0b 44
        E 0 90 37 44
        E 16 b0 0b 3b
        E 16 b0 0b 33
        E 16 b0 0b 2a
        E 32 b0 0b 22
        E 32 80 37 00
        E 32 b0 0b 44
        E 0 90 34 44
        E 16 b0 0b 3b
        E 16 b0 0b 33
        E 16 b0 0b 2a
        E 32 b0 0b 22
        E 32 80 34 00
        E 176 b0 0b 44
        E 0 90 34 44
        E 16 b0 0b 3b
        E 16 b0 0b 33
        E 16 b0 0b 2a
        E 32 b0 0b 22
        E 32 80 34 00
        E 32 b0 0b 44
        E 0 90 30 44
        E 16 b0 0b 3b
        E 16 b0 0b 33
        E 16 b0 0b 2a
        E 32 b0 0b 22
        E 32 80 30 00
        E 464 b0 0b 44
        E 0 90 38 44
        E 16 b0 0b 3b
        E 16 b0 0b 33
        E 16 b0 0b 2a
        E 32 b0 0b 22
        E 32 80 38 00
        E 32 b0 0b 44
        E 0 90 38 44
        E 16 b0 0b 3b
        E 16 b0 0b 33
        E 16 b0 0b 2a
        E 32 b0 0b 22
        E 32 80 38 00
        E 176 b0 0b 44
        E 0 90 38 44
        E 16 b0 0b 3b
        E 16 b0 0b 33
        E 16 b0 0b 2a
        E 32 b0 0b 22
        E 32 80 38 00
        E 176 b0 0b 44
        E 0 90 38 44
        E 16 b0 0b 3b
        E 16 b0 0b 33
        E 16 b0 0b 2a
        E 32 b0 0b 22
        E 32 80 38 00
        E 32 b0 0b 44
        E 0 90 3a 44
        E 16 b0 0b 3b
        E 16 b0 0b 33
        E 16 b0 0b 2a
        E 32 b0 0b 22
        E 32 80 3a 00
        E 32 b0 0b 44
        E 0 90 37 44
        E 16 b0 0b 3b
        E 16 b0 0b 33
        E 16 b0 0b 2a
        E 32 b0 0b 22
        E 32 80 37 00
        E 1184 b0 0b 44
        E 0 90 38 44
        E 16 b0 0b 3b
        E 16 b0 0b 33
        E 16 b0 0b 2a
        E 32 b0 0b 22
        E 32 80 38 00
        E 32 b0 0b 44
        E 0 90 38 44
        E 16 b0 0b 3b
        E 16 b0 0b 33
        E 16 b0 0b 2a
        E 32 b0 0b 22
        E 32 80 38 00
        E 176 b0 0b 44
        E 0 90 38 44
        E 16 b0 0b 3b
        E 16 b0 0b 33
        E 16 b0 0b 2a
        E 32 b0 0b 22
        E 32 80 38 00
        E 176 b0 0b 44
        E 0 90 38 44
        E 16 b0 0b 3b
        E 16 b0 0b 33
        E 16 b0 0b 2a
        E 32 b0 0b 22
        E 32 80 38 00
        E 32 b0 0b 44
        E 0 90 3a 44
        E 16 b0 0b 3b
        E 16 b0 0b 33
        E 16 b0 0b 2a
        E 32 b0 0b 22
        E 32 80 3a 00
        E 176 b0 0b 44
        E 0 90 37 44
        E 16 b0 0b 3b
        E 16 b0 0b 33
        E 16 b0 0b 2a
        E 32 b0 0b 22
        E 32 80 37 00
        E 32 b0 0b 44
        E 0 90 34 44
        E 16 b0 0b 3b
        E 16 b0 0b 33
        E 16 b0 0b 2a
        E 32 b0 0b 22
        E 32 80 34 00
        E 176 b0 0b 44
        E 0 90 34 44
        E 16 b0 0b 3b
        E 16 b0 0b 33
        E 16 b0 0b 2a
        E 32 b0 0b 22
        E 32 80 34 00
        E 32 b0 0b 44
        E 0 90 30 44
        E 16 b0 0b 3b
        E 16 b0 0b 33
        E 16 b0 0b 2a
        E 32 b0 0b 22
        E 32 80 30 00
        E 464 b0 0b 44
        E 0 90 36 44
        E 16 b0 0b 3b
        E 16 b0 0b 33
        E 16 b0 0b 2a
        E 32 b0 0b 22
        E 32 80 36 00
        E 32 b0 0b 44
        E 0 90 36 44
        E 16 b0 0b 3b
        E 16 b0 0b 33
        E 16 b0 0b 2a
        E 32 b0 0b 22
        E 32 80 36 00
        E 176 b0 0b 44
        E 0 90 36 44
        E 16 b0 0b 3b
        E 16 b0 0b 33
        E 16 b0 0b 2a
        E 32 b0 0b 22
        E 32 80 36 00
        E 176 b0 0b 44
        E 0 90 36 44
        E 16 b0 0b 3b
        E 16 b0 0b 33
        E 16 b0 0b 2a
        E 32 b0 0b 22
        E 32 80 36 00
        E 32 b0 0b 44
        E 0 90 36 44
        E 16 b0 0b 3b
        E 16 b0 0b 33
        E 16 b0 0b 2a
        E 32 b0 0b 22
        E 32 80 36 00
        E 176 b0 0b 44
        E 0 90 3b 44
        E 16 b0 0b 3b
        E 16 b0 0b 33
        E 16 b0 0b 2a
        E 32 b0 0b 22
        E 32 80 3b 00
        E 464 b0 0b 44
        E 0 90 37 44
        E 16 b0 0b 3b
        E 16 b0 0b 33
        E 16 b0 0b 2a
        E 32 b0 0b 22
        E 32 80 37 00
        E 464 b0 0b 44
        E 0 90 34 44
        E 16 b0 0b 3b
        E 16 b0 0b 33
        E 16 b0 0b 2a
        E 32 b0 0b 22
        E 32 80 34 00
        E 320 b0 0b 44
        E 0 90 30 44
        E 16 b0 0b 3b
        E 16 b0 0b 33
        E 16 b0 0b 2a
        E 32 b0 0b 22
        E 32 80 30 00
        E 320 b0 0b 44
        E 0 90 2b 44
        E 16 b0 0b 3b
        E 16 b0 0b 33
        E 16 b0 0b 2a
        E 32 b0 0b 22
        E 32 80 2b 00
        E 320 b0 0b 44
        E 0 90 30 44
        E 16 b0 0b 3b
        E 16 b0 0b 33
        E 16 b0 0b 2a
        E 32 b0 0b 22
        E 32 80 30 00
        E 176 b0 0b 44
        E 0 90 32 44
        E 16 b0 0b 3b
        E 16 b0 0b 33
        E 16 b0 0b 2a
        E 32 b0 0b 22
        E 32 80 32 00
        E 176 b0 0b 44
        E 0 90 31 44
        E 16 b0 0b 3b
        E 16 b0 0b 33
        E 16 b0 0b 2a
        E 32 b0 0b 22
        E 32 80 31 00
        E 32 b0 0b 44
        E 0 90 30 44
        E 16 b0 0b 3b
        E 16 b0 0b 33
        E 16 b0 0b 2a
        E 32 b0 0b 22
        E 32 80 30 00
        E 176 b0 0b 44
        E 0 90 30 44
        E 16 b0 0b 3b
        E 16 b0 0b 33
        E 16 b0 0b 2a
        E 32 b0 0b 22
        E 32 80 30 00
        E 80 b0 0b 44
        E 0 90 37 44
        E 16 b0 0b 3b
        E 16 b0 0b 33
        E 16 b0 0b 2a
        E 32 b0 0b 22
        E 32 80 37 00
        E 80 b0 0b 44
        E 0 90 3b 44
        E 16 b0 0b 3b
        E 16 b0 0b 33
        E 16 b0 0b 2a
        E 32 b0 0b 22
        E 32 80 3b 00
        E 80 b0 0b 44
        E 0 90 3c 44
        E 16 b0 0b 3b
        E 16 b0 0b 33
        E 16 b0 0b 2a
        E 32 b0 0b 22
        E 32 80 3c 00
        E 176 b0 0b 44
        E 0 90 39 44
        E 16 b0 0b 3b
        E 16 b0 0b 33
        E 16 b0 0b 2a
        E 32 b0 0b 22
        E 32 80 39 00
        E 32 b0 0b 44
        E 0 90 3b 44
        E 16 b0 0b 3b
        E 16 b0 0b 33
        E 16 b0 0b 2a
        E 32 b0 0b 22
        E 32 80 3b 00
        E 176 b0 0b 44
        E 0 90 39 44
        E 16 b0 0b 3b
        E 16 b0 0b 33
        E 16 b0 0b 2a
        E 32 b0 0b 22
        E 32 80 39 00
        E 176 b0 0b 44
        E 0 90 34 44
        E 16 b0 0b 3b
        E 16 b0 0b 33
        E 16 b0 0b 2a
        E 32 b0 0b 22
        E 32 80 34 00
        E 32 b0 0b 44
        E 0 90 35 44
        E 16 b0 0b 3b
        E 16 b0 0b 33
        E 16 b0 0b 2a
        E 32 b0 0b 22
        E 32 80 35 00
        E 32 b0 0b 44
        E 0 90 32 44
        E 16 b0 0b 3b
        E 16 b0 0b 33
        E 16 b0 0b 2a
        E 32 b0 0b 22
        E 32 80 32 00
        E 320 b0 0b 44
        E 0 90 34 44
        E 16 b0 0b 3b
        E 16 b0 0b 33
        E 16 b0 0b 2a
        E 32 b0 0b 22
        E 32 80 34 00
        E 320 b0 0b 44
        E 0 90 30 44
        E 16 b0 0b 3b
        E 16 b0 0b 33
        E 16 b0 0b 2a
        E 32 b0 0b 22
        E 32 80 30 00
        E 320 b0 0b 44
        E 0 90 2b 44
        E 16 b0 0b 3b
        E 16 b0 0b 33
        E 16 b0 0b 2a
        E 32 b0 0b 22
        E 32 80 2b 00
        E 320 b0 0b 44
        E 0 90 30 44
        E 16 b0 0b 3b
        E 16 b0 0b 33
        E 16 b0 0b 2a
        E 32 b0 0b 22
        E 32 80 30 00
        E 176 b0 0b 44
        E 0 90 32 44
        E 16 b0 0b 3b
        E 16 b0 0b 33
        E 16 b0 0b 2a
        E 32 b0 0b 22
        E 32 80 32 00
        E 176 b0 0b 44
        E 0 90 31 44
        E 16 b0 0b 3b
        E 16 b0 0b 33
        E 16 b0 0b 2a
        E 32 b0 0b 22
        E 32 80 31 00
        E 32 b0 0b 44
        E 0 90 30 44
        E 16 b0 0b 3b
        E 16 b0 0b 33
        E 16 b0 0b 2a
        E 32 b0 0b 22
        E 32 80 30 00
        E 176 b0 0b 44
        E 0 90 30 44
        E 16 b0 0b 3b
        E 16 b0 0b 33
        E 16 b0 0b 2a
        E 32 b0 0b 22
        E 32 80 30 00
        E 80 b0 0b 44
        E 0 90 37 44
        E 16 b0 0b 3b
        E 16 b0 0b 33
        E 16 b0 0b 2a
        E 32 b0 0b 22
        E 32 80 37 00
        E 80 b0 0b 44
        E 0 90 3b 44
        E 16 b0 0b 3b
        E 16 b0 0b 33
        E 16 b0 0b 2a
        E 32 b0 0b 22
        E 32 80 3b 00
        E 80 b0 0b 44
        E 0 90 3c 44
        E 16 b0 0b 3b
        E 16 b0 0b 33
        E 16 b0 0b 2a
        E 32 b0 0b 22
        E 32 80 3c 00
        E 176 b0 0b 44
        E 0 90 39 44
        E 16 b0 0b 3b
        E 16 b0 0b 33
        E 16 b0 0b 2a
        E 32 b0 0b 22
        E 32 80 39 00
        E 32 b0 0b 44
        E 0 90 3b 44
        E 16 b0 0b 3b
        E 16 b0 0b 33
        E 16 b0 0b 2a
        E 32 b0 0b 22
        E 32 80 3b 00
        E 176 b0 0b 44
        E 0 90 39 44
        E 16 b0 0b 3b
        E 16 b0 0b 33
        E 16 b0 0b 2a
        E 32 b0 0b 22
        E 32 80 39 00
        E 176 b0 0b 44
        E 0 90 34 44
        E 16 b0 0b 3b
        E 16 b0 0b 33
        E 16 b0 0b 2a
        E 32 b0 0b 22
        E 32 80 34 00
        E 32 b0 0b 44
        E 0 90 35 44
        E 16 b0 0b 3b
        E 16 b0 0b 33
        E 16 b0 0b 2a
        E 32 b0 0b 22
        E 32 80 35 00
        E 32 b0 0b 44
        E 0 90 32 44
        E 16 b0 0b 3b
        E 16 b0 0b 33
        E 16 b0 0b 2a
        E 32 b0 0b 22
        E 32 80 32 00
        E 320 b0 0b 44
        E 0 90 3c 44
        E 16 b0 0b 3b
        E 16 b0 0b 33
        E 16 b0 0b 2a
        E 32 b0 0b 22
        E 32 80 3c 00
        E 32 b0 0b 44
        E 0 90 39 44
        E 16 b0 0b 3b
        E 16 b0 0b 33
        E 16 b0 0b 2a
        E 32 b0 0b 22
        E 32 80 39 00
        E 176 b0 0b 44
        E 0 90 34 44
        E 16 b0 0b 3b
        E 16 b0 0b 33
        E 16 b0 0b 2a
        E 32 b0 0b 22
        E 32 80 34 00
        E 320 b0 0b 44
        E 0 90 34 44
        E 16 b0 0b 3b
        E 16 b0 0b 33
        E 16 b0 0b 2a
        E 32 b0 0b 22
        E 32 80 34 00
        E 176 b0 0b 44
        E 0 90 35 44
        E 16 b0 0b 3b
        E 16 b0 0b 33
        E 16 b0 0b 2a
        E 32 b0 0b 22
        E 32 80 35 00
        E 32 b0 0b 44
        E 0 90 3c 44
        E 16 b0 0b 3b
        E 16 b0 0b 33
        E 16 b0 0b 2a
        E 32 b0 0b 22
        E 32 80 3c 00
        E 176 b0 0b 44
        E 0 90 3c 44
        E 16 b0 0b 3b
        E 16 b0 0b 33
        E 16 b0 0b 2a
        E 32 b0 0b 22
        E 32 80 3c 00
        E 32 b0 0b 44
        E 0 90 35 44
        E 16 b0 0b 3b
        E 16 b0 0b 33
        E 16 b0 0b 2a
        E 32 b0 0b 22
        E 32 80 35 00
        E 464 b0 0b 44
        E 0 90 37 44
        E 16 b0 0b 3b
        E 16 b0 0b 33
        E 16 b0 0b 2a
        E 32 b0 0b 22
        E 32 80 37 00
        E 80 b0 0b 44
        E 0 90 41 44
        E 16 b0 0b 3b
        E 16 b0 0b 33
        E 16 b0 0b 2a
        E 32 b0 0b 22
        E 32 80 41 00
        E 80 b0 0b 44
        E 0 90 41 44
        E 16 b0 0b 3b
        E 16 b0 0b 33
        E 16 b0 0b 2a
        E 32 b0 0b 22
        E 32 80 41 00
        E 80 b0 0b 44
        E 0 90 41 44
        E 16 b0 0b 3b
        E 16 b0 0b 33
        E 16 b0 0b 2a
        E 32 b0 0b 22
        E 32 80 41 00
        E 80 b0 0b 44
        E 0 90 40 44
        E 16 b0 0b 3b
        E 16 b0 0b 33
        E 16 b0 0b 2a
        E 32 b0 0b 22
        E 32 80 40 00
        E 80 b0 0b 44
        E 0 90 3e 44
        E 16 b0 0b 3b
        E 16 b0 0b 33
        E 16 b0 0b 2a
        E 32 b0 0b 22
        E 32 80 3e 00
        E 80 b0 0b 44
        E 0 90 3c 44
        E 16 b0 0b 3b
        E 16 b0 0b 33
        E 16 b0 0b 2a
        E 32 b0 0b 22
        E 32 80 3c 00
        E 32 b0 0b 44
        E 0 90 39 44
        E 16 b0 0b 3b
        E 16 b0 0b 33
        E 16 b0 0b 2a
        E 32 b0 0b 22
        E 32 80 39 00
        E 176 b0 0b 44
        E 0 90 35 44
        E 16 b0 0b 3b
        E 16 b0 0b 33
        E 16 b0 0b 2a
        E 32 b0 0b 22
        E 32 80 35 00
        E 32 b0 0b 44
        E 0 90 34 44
        E 16 b0 0b 3b
        E 16 b0 0b 33
        E 16 b0 0b 2a
        E 32 b0 0b 22
        E 32 80 34 00
        E 464 b0 0b 44
        E 0 90 3c 44
        E 16 b0 0b 3b
        E 16 b0 0b 33
        E 16 b0 0b 2a
        E 32 b0 0b 22
        E 32 80 3c 00
        E 32 b0 0b 44
        E 0 90 39 44
        E 16 b0 0b 3b
        E 16 b0 0b 33
        E 16 b0 0b 2a
        E 32 b0 0b 22
        E 32 80 39 00
        E 176 b0 0b 44
        E 0 90 34 44
        E 16 b0 0b 3b
        E 16 b0 0b 33
        E 16 b0 0b 2a
        E 32 b0 0b 22
        E 32 80 34 00
        E 320 b0 0b 44
        E 0 90 34 44
        E 16 b0 0b 3b
        E 16 b0 0b 33
        E 16 b0 0b 2a
        E 32 b0 0b 22
        E 32 80 34 00
        E 176 b0 0b 44
        E 0 90 35 44
        E 16 b0 0b 3b
        E 16 b0 0b 33
        E 16 b0 0b 2a
        E 32 b0 0b 22
        E 32 80 35 00
        E 32 b0 0b 44
        E 0 90 3c 44
        E 16 b0 0b 3b
        E 16 b0 0b 33
        E 16 b0 0b 2a
        E 32 b0 0b 22
        E 32 80 3c 00
        E 176 b0 0b 44
        E 0 90 3c 44
        E 16 b0 0b 3b
        E 16 b0 0b 33
        E 16 b0 0b 2a
        E 32 b0 0b 22
        E 32 80 3c 00
        E 32 b0 0b 44
        E 0 90 35 44
        E 16 b0 0b 3b
        E 16 b0 0b 33
        E 16 b0 0b 2a
        E 32 b0 0b 22
        E 32 80 35 00
        E 464 b0 0b 44
        E 0 90 37 44
        E 16 b0 0b 3b
        E 16 b0 0b 33
        E 16 b0 0b 2a
        E 32 b0 0b 22
        E 32 80 37 00
        E 32 b0 0b 44
        E 0 90 3e 44
        E 16 b0 0b 3b
        E 16 b0 0b 33
        E 16 b0 0b 2a
        E 32 b0 0b 22
        E 32 80 3e 00
        E 176 b0 0b 44
        E 0 90 3e 44
        E 16 b0 0b 3b
        E 16 b0 0b 33
        E 16 b0 0b 2a
        E 32 b0 0b 22
        E 32 80 3e 00
        E 32 b0 0b 44
        E 0 90 3e 44
        E 16 b0 0b 3b
        E 16 b0 0b 33
        E 16 b0 0b 2a
        E 32 b0 0b 22
        E 32 80 3e 00
        E 80 b0 0b 44
        E 0 90 3c 44
        E 16 b0 0b 3b
        E 16 b0 0b 33
        E 16 b0 0b 2a
        E 32 b0 0b 22
        E 32 80 3c 00
        E 80 b0 0b 44
        E 0 90 3b 44
        E 16 b0 0b 3b
        E 16 b0 0b 33
        E 16 b0 0b 2a
        E 32 b0 0b 22
        E 32 80 3b 00
        E 80 b0 0b 44
        E 0 90 37 44
        E 16 b0 0b 3b
        E 16 b0 0b 33
        E 16 b0 0b 2a
        E 32 b0 0b 22
        E 32 80 37 00
        E 32 b0 0b 44
        E 0 90 34 44
        E 16 b0 0b 3b
        E 16 b0 0b 33
        E 16 b0 0b 2a
        E 32 b0 0b 22
        E 32 80 34 00
        E 176 b0 0b 44
        E 0 90 34 44
        E 16 b0 0b 3b
        E 16 b0 0b 33
        E 16 b0 0b 2a
        E 32 b0 0b 22
        E 32 80 34 00
        E 32 b0 0b 44
        E 0 90 30 44
        E 16 b0 0b 3b
        E 16 b0 0b 33
        E 16 b0 0b 2a
        E 32 b0 0b 22
        E 32 80 30 00
        E 464 b0 0b 44
        E 0 90 3c 44
        E 16 b0 0b 3b
        E 16 b0 0b 33
        E 16 b0 0b 2a
        E 32 b0 0b 22
        E 32 80 3c 00
        E 32 b0 0b 44
        E 0 90 39 44
        E 16 b0 0b 3b
        E 16 b0 0b 33
        E 16 b0 0b 2a
        E 32 b0 0b 22
        E 32 80 39 00
        E 176 b0 0b 44
        E 0 90 34 44
        E 16 b0 0b 3b
        E 16 b0 0b 33
        E 16 b0 0b 2a
        E 32 b0 0b 22
        E 32 80 34 00
        E 320 b0 0b 44
        E 0 90 34 44
        E 16 b0 0b 3b
        E 16 b0 0b 33
        E 16 b0 0b 2a
        E 32 b0 0b 22
        E 32 80 34 00
        E 176 b0 0b 44
        E 0 90 35 44
        E 16 b0 0b 3b
        E 16 b0 0b 33
        E 16 b0 0b 2a
        E 32 b0 0b 22
        E 32 80 35 00
        E 32 b0 0b 44
        E 0 90 3c 44
        E 16 b0 0b 3b
        E 16 b0 0b 33
        E 16 b0 0b 2a
        E 32 b0 0b 22
        E 32 80 3c 00
        E 176 b0 0b 44
        E 0 90 3c 44
        E 16 b0 0b 3b
        E 16 b0 0b 33
        E 16 b0 0b 2a
        E 32 b0 0b 22
        E 32 80 3c 00
        E 32 b0 0b 44
        E 0 90 35 44
        E 16 b0 0b 3b
        E 16 b0 0b 33
        E 16 b0 0b 2a
        E 32 b0 0b 22
        E 32 80 35 00
        E 464 b0 0b 44
        E 0 90 37 44
        E 16 b0 0b 3b
        E 16 b0 0b 33
        E 16 b0 0b 2a
        E 32 b0 0b 22
        E 32 80 37 00
        E 80 b0 0b 44
        E 0 90 41 44
        E 16 b0 0b 3b
        E 16 b0 0b 33
        E 16 b0 0b 2a
        E 32 b0 0b 22
        E 32 80 41 00
        E 80 b0 0b 44
        E 0 90 41 44
        E 16 b0 0b 3b
        E 16 b0 0b 33
        E 16 b0 0b 2a
        E 32 b0 0b 22
        E 32 80 41 00
        E 80 b0 0b 44
        E 0 90 41 44
        E 16 b0 0b 3b
        E 16 b0 0b 33
        E 16 b0 0b 2a
        E 32 b0 0b 22
        E 32 80 41 00
        E 80 b0 0b 44
        E 0 90 40 44
        E 16 b0 0b 3b
        E 16 b0 0b 33
        E 16 b0 0b 2a
        E 32 b0 0b 22
        E 32 80 40 00
        E 80 b0 0b 44
        E 0 90 3e 44
        E 16 b0 0b 3b
        E 16 b0 0b 33
        E 16 b0 0b 2a
        E 32 b0 0b 22
        E 32 80 3e 00
        E 80 b0 0b 44
        E 0 90 3c 44
        E 16 b0 0b 3b
        E 16 b0 0b 33
        E 16 b0 0b 2a
        E 32 b0 0b 22
        E 32 80 3c 00
        E 32 b0 0b 44
        E 0 90 39 44
        E 16 b0 0b 3b
        E 16 b0 0b 33
        E 16 b0 0b 2a
        E 32 b0 0b 22
        E 32 80 39 00
        E 176 b0 0b 44
        E 0 90 35 44
        E 16 b0 0b 3b
        E 16 b0 0b 33
        E 16 b0 0b 2a
        E 32 b0 0b 22
        E 32 80 35 00
        E 32 b0 0b 44
        E 0 90 34 44
        E 16 b0 0b 3b
        E 16 b0 0b 33
        E 16 b0 0b 2a
        E 32 b0 0b 22
        E 32 80 34 00
        E 464 b0 0b 44
        E 0 90 3c 44
        E 16 b0 0b 3b
        E 16 b0 0b 33
        E 16 b0 0b 2a
        E 32 b0 0b 22
        E 32 80 3c 00
        E 32 b0 0b 44
        E 0 90 39 44
        E 16 b0 0b 3b
        E 16 b0 0b 33
        E 16 b0 0b 2a
        E 32 b0 0b 22
        E 32 80 39 00
        E 176 b0 0b 44
        E 0 90 34 44
        E 16 b0 0b 3b
        E 16 b0 0b 33
        E 16 b0 0b 2a
        E 32 b0 0b 22
        E 32 80 34 00
        E 320 b0 0b 44
        E 0 90 34 44
        E 16 b0 0b 3b
        E 16 b0 0b 33
        E 16 b0 0b 2a
        E 32 b0 0b 22
        E 32 80 34 00
        E 176 b0 0b 44
        E 0 90 35 44
        E 16 b0 0b 3b
        E 16 b0 0b 33
        E 16 b0 0b 2a
        E 32 b0 0b 22
        E 32 80 35 00
        E 32 b0 0b 44
        E 0 90 3c 44
        E 16 b0 0b 3b
        E 16 b0 0b 33
        E 16 b0 0b 2a
        E 32 b0 0b 22
        E 32 80 3c 00
        E 176 b0 0b 44
        E 0 90 3c 44
        E 16 b0 0b 3b
        E 16 b0 0b 33
        E 16 b0 0b 2a
        E 32 b0 0b 22
        E 32 80 3c 00
        E 32 b0 0b 44
        E 0 90 35 44
        E 16 b0 0b 3b
        E 16 b0 0b 33
        E 16 b0 0b 2a
        E 32 b0 0b 22
        E 32 80 35 00
        E 464 b0 0b 44
        E 0 90 37 44
        E 16 b0 0b 3b
        E 16 b0 0b 33
        E 16 b0 0b 2a
        E 32 b0 0b 22
        E 32 80 37 00
        E 32 b0 0b 44
        E 0 90 3e 44
        E 16 b0 0b 3b
        E 16 b0 0b 33
        E 16 b0 0b 2a
        E 32 b0 0b 22
        E 32 80 3e 00
        E 176 b0 0b 44
        E 0 90 3e 44
        E 16 b0 0b 3b
        E 16 b0 0b 33
        E 16 b0 0b 2a
        E 32 b0 0b 22
        E 32 80 3e 00
        E 32 b0 0b 44
        E 0 90 3e 44
        E 16 b0 0b 3b
        E 16 b0 0b 33
        E 16 b0 0b 2a
        E 32 b0 0b 22
        E 32 80 3e 00
        E 80 b0 0b 44
        E 0 90 3c 44
        E 16 b0 0b 3b
        E 16 b0 0b 33
        E 16 b0 0b 2a
        E 32 b0 0b 22
        E 32 80 3c 00
        E 80 b0 0b 44
        E 0 90 3b 44
        E 16 b0 0b 3b
        E 16 b0 0b 33
        E 16 b0 0b 2a
        E 32 b0 0b 22
        E 32 80 3b 00
        E 80 b0 0b 44
        E 0 90 37 44
        E 16 b0 0b 3b
        E 16 b0 0b 33
        E 16 b0 0b 2a
        E 32 b0 0b 22
        E 32 80 37 00
        E 32 b0 0b 44
        E 0 90 34 44
        E 16 b0 0b 3b
        E 16 b0 0b 33
        E 16 b0 0b 2a
        E 32 b0 0b 22
        E 32 80 34 00
        E 176 b0 0b 44
        E 0 90 34 44
        E 16 b0 0b 3b
        E 16 b0 0b 33
        E 16 b0 0b 2a
        E 32 b0 0b 22
        E 32 80 34 00
        E 32 b0 0b 44
        E 0 90 30 44
        E 16 b0 0b 3b
        E 16 b0 0b 33
        E 16 b0 0b 2a
        E 32 b0 0b 22
        E 32 80 30 00
        E 464 b0 0b 44
        E 0 90 38 44
        E 16 b0 0b 3b
        E 16 b0 0b 33
        E 16 b0 0b 2a
        E 32 b0 0b 22
        E 32 80 38 00
        E 32 b0 0b 44
        E 0 90 38 44
        E 16 b0 0b 3b
        E 16 b0 0b 33
        E 16 b0 0b 2a
        E 32 b0 0b 22
        E 32 80 38 00
        E 176 b0 0b 44
        E 0 90 38 44
        E 16 b0 0b 3b
        E 16 b0 0b 33
        E 16 b0 0b 2a
        E 32 b0 0b 22
        E 32 80 38 00
        E 176 b0 0b 44
        E 0 90 38 44
        E 16 b0 0b 3b
        E 16 b0 0b 33
        E 16 b0 0b 2a
        E 32 b0 0b 22
        E 32 80 38 00
        E 32 b0 0b 44
        E 0 90 3a 44
        E 16 b0 0b 3b
        E 16 b0 0b 33
        E 16 b0 0b 2a
        E 32 b0 0b 22
        E 32 80 3a 00
        E 176 b0 0b 44
        E 0 90 37 44
        E 16 b0 0b 3b
        E 16 b0 0b 33
        E 16 b0 0b 2a
        E 32 b0 0b 22
        E 32 80 37 00
        E 32 b0 0b 44
        E 0 90 34 44
        E 16 b0 0b 3b
        E 16 b0 0b 33
        E 16 b0 0b 2a
        E 32 b0 0b 22
        E 32 80 34 00
        E 176 b0 0b 44
        E 0 90 34 44
        E 16 b0 0b 3b
        E 16 b0 0b 33
        E 16 b0 0b 2a
        E 32 b0 0b 22
        E 32 80 34 00
        E 32 b0 0b 44
        E 0 90 30 44
        E 16 b0 0b 3b
        E 16 b0 0b 33
        E 16 b0 0b 2a
        E 32 b0 0b 22
        E 32 80 30 00
        E 464 b0 0b 44
        E 0 90 38 44
        E 16 b0 0b 3b
        E 16 b0 0b 33
        E 16 b0 0b 2a
        E 32 b0 0b 22
        E 32 80 38 00
        E 32 b0 0b 44
        E 0 90 38 44
        E 16 b0 0b 3b
        E 16 b0 0b 33
        E 16 b0 0b 2a
        E 32 b0 0b 22
        E 32 80 38 00
        E 176 b0 0b 44
        E 0 90 38 44
        E 16 b0 0b 3b
        E 16 b0 0b 33
        E 16 b0 0b 2a
        E 32 b0 0b 22
        E 32 80 38 00
        E 176 b0 0b 44
        E 0 90 38 44
        E 16 b0 0b 3b
        E 16 b0 0b 33
        E 16 b0 0b 2a
        E 32 b0 0b 22
        E 32 80 38 00
        E 32 b0 0b 44
        E 0 90 3a 44
        E 16 b0 0b 3b
        E 16 b0 0b 33
        E 16 b0 0b 2a
        E 32 b0 0b 22
        E 32 80 3a 00
        E 32 b0 0b 44
        E 0 90 37 44
        E 16 b0 0b 3b
        E 16 b0 0b 33
        E 16 b0 0b 2a
        E 32 b0 0b 22
        E 32 80 37 00
        E 1184 b0 0b 44
        E 0 90 38 44
        E 16 b0 0b 3b
        E 16 b0 0b 33
        E 16 b0 0b 2a
        E 32 b0 0b 22
        E 32 80 38 00
        E 32 b0 0b 44
        E 0 90 38 44
        E 16 b0 0b 3b
        E 16 b0 0b 33
        E 16 b0 0b 2a
        E 32 b0 0b 22
        E 32 80 38 00
        E 176 b0 0b 44
        E 0 90 38 44
        E 16 b0 0b 3b
        E 16 b0 0b 33
        E 16 b0 0b 2a
        E 32 b0 0b 22
        E 32 80 38 00
        E 176 b0 0b 44
        E 0 90 38 44
        E 16 b0 0b 3b
        E 16 b0 0b 33
        E 16 b0 0b 2a
        E 32 b0 0b 22
        E 32 80 38 00
        E 32 b0 0b 44
        E 0 90 3a 44
        E 16 b0 0b 3b
        E 16 b0 0b 33
        E 16 b0 0b 2a
        E 32 b0 0b 22
        E 32 80 3a 00
        E 176 b0 0b 44
        E 0 90 37 44
        E 16 b0 0b 3b
        E 16 b0 0b 33
        E 16 b0 0b 2a
        E 32 b0 0b 22
        E 32 80 37 00
        E 32 b0 0b 44
        E 0 90 34 44
        E 16 b0 0b 3b
        E 16 b0 0b 33
        E 16 b0 0b 2a
        E 32 b0 0b 22
        E 32 80 34 00
        E 176 b0 0b 44
        E 0 90 34 44
        E 16 b0 0b 3b
        E 16 b0 0b 33
        E 16 b0 0b 2a
        E 32 b0 0b 22
        E 32 80 34 00
        E 32 b0 0b 44
        E 0 90 30 44
        E 16 b0 0b 3b
        E 16 b0 0b 33
        E 16 b0 0b 2a
        E 32 b0 0b 22
        E 32 80 30 00
        E 464 b0 0b 44
        E 0 90 36 44
        E 16 b0 0b 3b
        E 16 b0 0b 33
        E 16 b0 0b 2a
        E 32 b0 0b 22
        E 32 80 36 00
        E 32 b0 0b 44
        E 0 90 36 44
        E 16 b0 0b 3b
        E 16 b0 0b 33
        E 16 b0 0b 2a
        E 32 b0 0b 22
        E 32 80 36 00
        E 176 b0 0b 44
        E 0 90 36 44
        E 16 b0 0b 3b
        E 16 b0 0b 33
        E 16 b0 0b 2a
        E 32 b0 0b 22
        E 32 80 36 00
        E 176 b0 0b 44
        E 0 90 36 44
        E 16 b0 0b 3b
        E 16 b0 0b 33
        E 16 b0 0b 2a
        E 32 b0 0b 22
        E 32 80 36 00
        E 32 b0 0b 44
        E 0 90 36 44
        E 16 b0 0b 3b
        E 16 b0 0b 33
        E 16 b0 0b 2a
        E 32 b0 0b 22
        E 32 80 36 00
        E 176 b0 0b 44
        E 0 90 3b 44
        E 16 b0 0b 3b
        E 16 b0 0b 33
        E 16 b0 0b 2a
        E 32 b0 0b 22
        E 32 80 3b 00
        E 464 b0 0b 44
        E 0 90 37 44
        E 16 b0 0b 3b
        E 16 b0 0b 33
        E 16 b0 0b 2a
        E 32 b0 0b 22
        E 32 80 37 00
        E 464 b0 0b 44
        E 0 90 3c 44
        E 16 b0 0b 3b
        E 16 b0 0b 33
        E 16 b0 0b 2a
        E 32 b0 0b 22
        E 32 80 3c 00
        E 32 b0 0b 44
        E 0 90 39 44
        E 16 b0 0b 3b
        E 16 b0 0b 33
        E 16 b0 0b 2a
        E 32 b0 0b 22
        E 32 80 39 00
        E 176 b0 0b 44
        E 0 90 34 44
        E 16 b0 0b 3b
        E 16 b0 0b 33
        E 16 b0 0b 2a
        E 32 b0 0b 22
        E 32 80 34 00
        E 320 b0 0b 44
        E 0 90 34 44
        E 16 b0 0b 3b
        E 16 b0 0b 33
        E 16 b0 0b 2a
        E 32 b0 0b 22
        E 32 80 34 00
        E 176 b0 0b 44
        E 0 90 35 44
        E 16 b0 0b 3b
        E 16 b0 0b 33
        E 16 b0 0b 2a
        E 32 b0 0b 22
        E 32 80 35 00
        E 32 b0 0b 44
        E 0 90 3c 44
        E 16 b0 0b 3b
        E 16 b0 0b 33
        E 16 b0 0b 2a
        E 32 b0 0b 22
        E 32 80 3c 00
        E 176 b0 0b 44
        E 0 90 3c 44
        E 16 b0 0b 3b
        E 16 b0 0b 33
        E 16 b0 0b 2a
        E 32 b0 0b 22
        E 32 80 3c 00
        E 32 b0 0b 44
        E 0 90 35 44
        E 16 b0 0b 3b
        E 16 b0 0b 33
        E 16 b0 0b 2a
        E 32 b0 0b 22
        E 32 80 35 00
        E 464 b0 0b 44
        E 0 90 37 44
        E 16 b0 0b 3b
        E 16 b0 0b 33
        E 16 b0 0b 2a
        E 32 b0 0b 22
        E 32 80 37 00
        E 80 b0 0b 44
        E 0 90 41 44
        E 16 b0 0b 3b
        E 16 b0 0b 33
        E 16 b0 0b 2a
        E 32 b0 0b 22
        E 32 80 41 00
        E 80 b0 0b 44
        E 0 90 41 44
        E 16 b0 0b 3b
        E 16 b0 0b 33
        E 16 b0 0b 2a
        E 32 b0 0b 22
        E 32 80 41 00
        E 80 b0 0b 44
        E 0 90 41 44
        E 16 b0 0b 3b
        E 16 b0 0b 33
        E 16 b0 0b 2a
        E 32 b0 0b 22
        E 32 80 41 00
        E 80 b0 0b 44
        E 0 90 40 44
        E 16 b0 0b 3b
        E 16 b0 0b 33
        E 16 b0 0b 2a
        E 32 b0 0b 22
        E 32 80 40 00
        E 80 b0 0b 44
        E 0 90 3e 44
        E 16 b0 0b 3b
        E 16 b0 0b 33
        E 16 b0 0b 2a
        E 32 b0 0b 22
        E 32 80 3e 00
        E 80 b0 0b 44
        E 0 90 3c 44
        E 16 b0 0b 3b
        E 16 b0 0b 33
        E 16 b0 0b 2a
        E 32 b0 0b 22
        E 32 80 3c 00
        E 32 b0 0b 44
        E 0 90 39 44
        E 16 b0 0b 3b
        E 16 b0 0b 33
        E 16 b0 0b 2a
        E 32 b0 0b 22
        E 32 80 39 00
        E 176 b0 0b 44
        E 0 90 35 44
        E 16 b0 0b 3b
        E 16 b0 0b 33
        E 16 b0 0b 2a
        E 32 b0 0b 22
        E 32 80 35 00
        E 32 b0 0b 44
        E 0 90 34 44
        E 16 b0 0b 3b
        E 16 b0 0b 33
        E 16 b0 0b 2a
        E 32 b0 0b 22
        E 32 80 34 00
        E 464 b0 0b 44
        E 0 90 3c 44
        E 16 b0 0b 3b
        E 16 b0 0b 33
        E 16 b0 0b 2a
        E 32 b0 0b 22
        E 32 80 3c 00
        E 32 b0 0b 44
        E 0 90 39 44
        E 16 b0 0b 3b
        E 16 b0 0b 33
        E 16 b0 0b 2a
        E 32 b0 0b 22
        E 32 80 39 00
        E 176 b0 0b 44
        E 0 90 34 44
        E 16 b0 0b 3b
        E 16 b0 0b 33
        E 16 b0 0b 2a
        E 32 b0 0b 22
        E 32 80 34 00
        E 320 b0 0b 44
        E 0 90 34 44
        E 16 b0 0b 3b
        E 16 b0 0b 33
        E 16 b0 0b 2a
        E 32 b0 0b 22
        E 32 80 34 00
        E 176 b0 0b 44
        E 0 90 35 44
        E 16 b0 0b 3b
        E 16 b0 0b 33
        E 16 b0 0b 2a
        E 32 b0 0b 22
        E 32 80 35 00
        E 32 b0 0b 44
        E 0 90 3c 44
        E 16 b0 0b 3b
        E 16 b0 0b 33
        E 16 b0 0b 2a
        E 32 b0 0b 22
        E 32 80 3c 00
        E 176 b0 0b 44
        E 0 90 3c 44
        E 16 b0 0b 3b
        E 16 b0 0b 33
        E 16 b0 0b 2a
        E 32 b0 0b 22
        E 32 80 3c 00
        E 32 b0 0b 44
        E 0 90 35 44
        E 16 b0 0b 3b
        E 16 b0 0b 33
        E 16 b0 0b 2a
        E 32 b0 0b 22
        E 32 80 35 00
        E 464 b0 0b 44
        E 0 90 37 44
        E 16 b0 0b 3b
        E 16 b0 0b 33
        E 16 b0 0b 2a
        E 32 b0 0b 22
        E 32 80 37 00
        E 32 b0 0b 44
        E 0 90 3e 44
        E 16 b0 0b 3b
        E 16 b0 0b 33
        E 16 b0 0b 2a
        E 32 b0 0b 22
        E 32 80 3e 00
        E 176 b0 0b 44
        E 0 90 3e 44
        E 16 b0 0b 3b
        E 16 b0 0b 33
        E 16 b0 0b 2a
        E 32 b0 0b 22
        E 32 80 3e 00
        E 32 b0 0b 44
        E 0 90 3e 44
        E 16 b0 0b 3b
        E 16 b0 0b 33
        E 16 b0 0b 2a
        E 32 b0 0b 22
        E 32 80 3e 00
        E 80 b0 0b 44
        E 0 90 3c 44
        E 16 b0 0b 3b
        E 16 b0 0b 33
        E 16 b0 0b 2a
        E 32 b0 0b 22
        E 32 80 3c 00
        E 80 b0 0b 44
        E 0 90 3b 44
        E 16 b0 0b 3b
        E 16 b0 0b 33
        E 16 b0 0b 2a
        E 32 b0 0b 22
        E 32 80 3b 00
        E 80 b0 0b 44
        E 0 90 37 44
        E 16 b0 0b 3b
        E 16 b0 0b 33
        E 16 b0 0b 2a
        E 32 b0 0b 22
        E 32 80 37 00
        E 32 b0 0b 44
        E 0 90 34 44
        E 16 b0 0b 3b
        E 16 b0 0b 33
        E 16 b0 0b 2a
        E 32 b0 0b 22
        E 32 80 34 00
        E 176 b0 0b 44
        E 0 90 34 44
        E 16 b0 0b 3b
        E 16 b0 0b 33
        E 16 b0 0b 2a
        E 32 b0 0b 22
        E 32 80 34 00
        E 32 b0 0b 44
        E 0 90 30 44
        E 16 b0 0b 3b
        E 16 b0 0b 33
        E 16 b0 0b 2a
        E 32 b0 0b 22
        E 32 80 30 00
        E 464 b0 0b 44
        E 0 90 34 44
        E 16 b0 0b 3b
        E 16 b0 0b 33
        E 16 b0 0b 2a
        E 32 b0 0b 22
        E 32 80 34 00
        E 320 b0 0b 44
        E 0 90 30 44
        E 16 b0 0b 3b
        E 16 b0 0b 33
        E 16 b0 0b 2a
        E 32 b0 0b 22
        E 32 80 30 00
        E 320 b0 0b 44
        E 0 90 2b 44
        E 16 b0 0b 3b
        E 16 b0 0b 33
        E 16 b0 0b 2a
        E 32 b0 0b 22
        E 32 80 2b 00
        E 320 b0 0b 44
        E 0 90 30 44
        E 16 b0 0b 3b
        E 16 b0 0b 33
        E 16 b0 0b 2a
        E 32 b0 0b 22
        E 32 80 30 00
        E 176 b0 0b 44
        E 0 90 32 44
        E 16 b0 0b 3b
        E 16 b0 0b 33
        E 16 b0 0b 2a
        E 32 b0 0b 22
        E 32 80 32 00
        E 176 b0 0b 44
        E 0 90 31 44
        E 16 b0 0b 3b
        E 16 b0 0b 33
        E 16 b0 0b 2a
        E 32 b0 0b 22
        E 32 80 31 00
        E 32 b0 0b 44
        E 0 90 30 44
        E 16 b0 0b 3b
        E 16 b0 0b 33
        E 16 b0 0b 2a
        E 32 b0 0b 22
        E 32 80 30 00
        E 176 b0 0b 44
        E 0 90 30 44
        E 16 b0 0b 3b
        E 16 b0 0b 33
        E 16 b0 0b 2a
        E 32 b0 0b 22
        E 32 80 30 00
        E 80 b0 0b 44
        E 0 90 37 44
        E 16 b0 0b 3b
        E 16 b0 0b 33
        E 16 b0 0b 2a
        E 32 b0 0b 22
        E 32 80 37 00
        E 80 b0 0b 44
        E 0 90 3b 44
        E 16 b0 0b 3b
        E 16 b0 0b 33
        E 16 b0 0b 2a
        E 32 b0 0b 22
        E 32 80 3b 00
        E 80 b0 0b 44
        E 0 90 3c 44
        E 16 b0 0b 3b
        E 16 b0 0b 33
        E 16 b0 0b 2a
        E 32 b0 0b 22
        E 32 80 3c 00
        E 176 b0 0b 44
        E 0 90 39 44
        E 16 b0 0b 3b
        E 16 b0 0b 33
        E 16 b0 0b 2a
        E 32 b0 0b 22
        E 32 80 39 00
        E 32 b0 0b 44
        E 0 90 3b 44
        E 16 b0 0b 3b
        E 16 b0 0b 33
        E 16 b0 0b 2a
        E 32 b0 0b 22
        E 32 80 3b 00
        E 176 b0 0b 44
        E 0 90 39 44
        E 16 b0 0b 3b
        E 16 b0 0b 33
        E 16 b0 0b 2a
        E 32 b0 0b 22
        E 32 80 39 00
        E 176 b0 0b 44
        E 0 90 34 44
        E 16 b0 0b 3b
        E 16 b0 0b 33
        E 16 b0 0b 2a
        E 32 b0 0b 22
        E 32 80 34 00
        E 32 b0 0b 44
        E 0 90 35 44
        E 16 b0 0b 3b
        E 16 b0 0b 33
        E 16 b0 0b 2a
        E 32 b0 0b 22
        E 32 80 35 00
        E 32 b0 0b 44
        E 0 90 32 44
        E 16 b0 0b 3b
        E 16 b0 0b 33
        E 16 b0 0b 2a
        E 32 b0 0b 22
        E 32 80 32 00
        E 320 b0 0b 44
        E 0 90 34 44
        E 16 b0 0b 3b
        E 16 b0 0b 33
        E 16 b0 0b 2a
        E 32 b0 0b 22
        E 32 80 34 00
        E 320 b0 0b 44
        E 0 90 30 44
        E 16 b0 0b 3b
        E 16 b0 0b 33
        E 16 b0 0b 2a
        E 32 b0 0b 22
        E 32 80 30 00
        E 320 b0 0b 44
        E 0 90 2b 44
        E 16 b0 0b 3b
        E 16 b0 0b 33
        E 16 b0 0b 2a
        E 32 b0 0b 22
        E 32 80 2b 00
        E 320 b0 0b 44
        E 0 90 30 44
        E 16 b0 0b 3b
        E 16 b0 0b 33
        E 16 b0 0b 2a
        E 32 b0 0b 22
        E 32 80 30 00
        E 176 b0 0b 44
        E 0 90 32 44
        E 16 b0 0b 3b
        E 16 b0 0b 33
        E 16 b0 0b 2a
        E 32 b0 0b 22
        E 32 80 32 00
        E 176 b0 0b 44
        E 0 90 31 44
        E 16 b0 0b 3b
        E 16 b0 0b 33
        E 16 b0 0b 2a
        E 32 b0 0b 22
        E 32 80 31 00
        E 32 b0 0b 44
        E 0 90 30 44
        E 16 b0 0b 3b
        E 16 b0 0b 33
        E 16 b0 0b 2a
        E 32 b0 0b 22
        E 32 80 30 00
        E 176 b0 0b 44
        E 0 90 30 44
        E 16 b0 0b 3b
        E 16 b0 0b 33
        E 16 b0 0b 2a
        E 32 b0 0b 22
        E 32 80 30 00
        E 80 b0 0b 44
        E 0 90 37 44
        E 16 b0 0b 3b
        E 16 b0 0b 33
        E 16 b0 0b 2a
        E 32 b0 0b 22
        E 32 80 37 00
        E 80 b0 0b 44
        E 0 90 3b 44
        E 16 b0 0b 3b
        E 16 b0 0b 33
        E 16 b0 0b 2a
        E 32 b0 0b 22
        E 32 80 3b 00
        E 80 b0 0b 44
        E 0 90 3c 44
        E 16 b0 0b 3b
        E 16 b0 0b 33
        E 16 b0 0b 2a
        E 32 b0 0b 22
        E 32 80 3c 00
        E 176 b0 0b 44
        E 0 90 39 44
        E 16 b0 0b 3b
        E 16 b0 0b 33
        E 16 b0 0b 2a
        E 32 b0 0b 22
        E 32 80 39 00
        E 32 b0 0b 44
        E 0 90 3b 44
        E 16 b0 0b 3b
        E 16 b0 0b 33
        E 16 b0 0b 2a
        E 32 b0 0b 22
        E 32 80 3b 00
        E 176 b0 0b 44
        E 0 90 39 44
        E 16 b0 0b 3b
        E 16 b0 0b 33
        E 16 b0 0b 2a
        E 32 b0 0b 22
        E 32 80 39 00
        E 176 b0 0b 44
        E 0 90 34 44
        E 16 b0 0b 3b
        E 16 b0 0b 33
        E 16 b0 0b 2a
        E 32 b0 0b 22
        E 32 80 34 00
        E 32 b0 0b 44
        E 0 90 35 44
        E 16 b0 0b 3b
        E 16 b0 0b 33
        E 16 b0 0b 2a
        E 32 b0 0b 22
        E 32 80 35 00
        E 32 b0 0b 44
        E 0 90 32 44
        E 16 b0 0b 3b
        E 16 b0 0b 33
        E 16 b0 0b 2a
        E 32 b0 0b 22
        E 32 80 32 00
        E 608 b0 0b 44
        E 0 90 40 44
        E 16 b0 0b 3b
        E 16 b0 0b 33
        E 16 b0 0b 2a
        E 32 b0 0b 22
        E 32 80 40 00
        E 32 b0 0b 44
        E 0 90 3f 44
        E 16 b0 0b 3b
        E 16 b0 0b 33
        E 16 b0 0b 2a
        E 32 b0 0b 22
        E 32 80 3f 00
        E 32 b0 0b 44
        E 0 90 3e 44
        E 16 b0 0b 3b
        E 16 b0 0b 33
        E 16 b0 0b 2a
        E 32 b0 0b 22
        E 32 80 3e 00
        E 32 b0 0b 44
        E 0 90 3b 44
        E 16 b0 0b 3b
        E 16 b0 0b 33
        E 16 b0 0b 2a
        E 32 b0 0b 22
        E 32 80 3b 00
        E 176 b0 0b 44
        E 0 90 3c 44
        E 16 b0 0b 3b
        E 16 b0 0b 33
        E 16 b0 0b 2a
        E 32 b0 0b 22
        E 32 80 3c 00
        E 176 b0 0b 44
        E 0 90 34 44
        E 16 b0 0b 3b
        E 16 b0 0b 33
        E 16 b0 0b 2a
        E 32 b0 0b 22
        E 32 80 34 00
        E 32 b0 0b 44
        E 0 90 35 44
        E 16 b0 0b 3b
        E 16 b0 0b 33
        E 16 b0 0b 2a
        E 32 b0 0b 22
        E 32 80 35 00
        E 32 b0 0b 44
        E 0 90 37 44
        E 16 b0 0b 3b
        E 16 b0 0b 33
        E 16 b0 0b 2a
        E 32 b0 0b 22
        E 32 80 37 00
        E 0 ff 2f 00
      >
    >
  >
  <TRACK {BD307498-6237-48BA-82DD-25FDC301EAC2}
    NAME "NES - Pulse 2 [ch1]"
    PEAKCOL 10092441
    BEAT -1
    AUTOMODE 0
    PANLAWFLAGS 3
    VOLPAN 1 0 -1 -1 1
    MUTESOLO 0 0 0
    IPHASE 0
    PLAYOFFS 0 1
    ISBUS 0 0
    BUSCOMP 0 0 0 0 0
    SHOWINMIX 1 0.6667 0.5 1 0.5 0 0 0
    FIXEDLANES 9 0 0 0 0
    SEL 0
    REC 0 5088 1 0 0 0 0 0
    VU 2
    TRACKHEIGHT 0 0 0 0 0 0 0
    INQ 0 0 0 0.5 100 0 0 100
    NCHAN 2
    FX 1
    TRACKID {BD307498-6237-48BA-82DD-25FDC301EAC2}
    PERF 0
    MIDIOUT -1
    MAINSEND 1 0
    <FXCHAIN
      WNDRECT 24 52 700 560
      SHOW 0
      LASTSEL 0
      DOCKED 0
      BYPASS 0 0 0
      <JS "ReapNES Studio/ReapNES_Console.jsfx" ""
        2 15 1 10 80 10 100 2 1 15 1 5 60 10 80 1 1 0 50 0 0 15 1 0 100 0 0 0.500000 0.500000 0.400000 0.300000 0.800000 1 1 0 0 0 0 - - - - - - - - - - - - - - - - - - - - - - - - - -
      >
      FLOATPOS 0 0 0 0
      FXID {4C3DACE3-595F-4090-BB49-6C4142C59C90}
      WAK 0 0
    >
    <ITEM
      POSITION 0
      LENGTH 93.5614336
      LOOP 0
      ALLTAKES 0
      FADEIN 0 0 0 0 0 0 0
      FADEOUT 0 0 0 0 0 0 0
      MUTE 0 0
      SEL 0
      IGUID {26746C8B-25EF-47C6-9256-7ED14B56DD4E}
      <SOURCE MIDI
        HASDATA 1 480 QN
        CCINTERP 32
        E 0 c1 51
        E 0 b1 0c 40
        E 0 b1 0b 44
        E 0 91 40 44
        E 16 b1 0b 3b
        E 16 b1 0b 33
        E 16 b1 0b 2a
        E 32 b1 0b 22
        E 32 81 40 00
        E 32 b1 0b 44
        E 0 91 40 44
        E 16 b1 0b 3b
        E 16 b1 0b 33
        E 16 b1 0b 2a
        E 32 b1 0b 22
        E 32 81 40 00
        E 176 b1 0b 44
        E 0 91 40 44
        E 16 b1 0b 3b
        E 16 b1 0b 33
        E 16 b1 0b 2a
        E 32 b1 0b 22
        E 32 81 40 00
        E 176 b1 0b 44
        E 0 91 3c 44
        E 16 b1 0b 3b
        E 16 b1 0b 33
        E 16 b1 0b 2a
        E 32 b1 0b 22
        E 32 81 3c 00
        E 32 b1 0b 44
        E 0 91 40 44
        E 16 b1 0b 3b
        E 16 b1 0b 33
        E 16 b1 0b 2a
        E 32 b1 0b 22
        E 32 81 40 00
        E 176 b1 0b 44
        E 0 91 43 44
        E 16 b1 0b 3b
        E 16 b1 0b 33
        E 16 b1 0b 2a
        E 32 b1 0b 22
        E 32 81 43 00
        E 1040 b1 0b 44
        E 0 91 3c 44
        E 16 b1 0b 3b
        E 16 b1 0b 33
        E 16 b1 0b 2a
        E 32 b1 0b 22
        E 32 81 3c 00
        E 320 b1 0b 44
        E 0 91 37 44
        E 16 b1 0b 3b
        E 16 b1 0b 33
        E 16 b1 0b 2a
        E 32 b1 0b 22
        E 32 81 37 00
        E 320 b1 0b 44
        E 0 91 34 44
        E 16 b1 0b 3b
        E 16 b1 0b 33
        E 16 b1 0b 2a
        E 32 b1 0b 22
        E 32 81 34 00
        E 320 b1 0b 44
        E 0 91 39 44
        E 16 b1 0b 3b
        E 16 b1 0b 33
        E 16 b1 0b 2a
        E 32 b1 0b 22
        E 32 81 39 00
        E 176 b1 0b 44
        E 0 91 3b 44
        E 16 b1 0b 3b
        E 16 b1 0b 33
        E 16 b1 0b 2a
        E 32 b1 0b 22
        E 32 81 3b 00
        E 176 b1 0b 44
        E 0 91 3a 44
        E 16 b1 0b 3b
        E 16 b1 0b 33
        E 16 b1 0b 2a
        E 32 b1 0b 22
        E 32 81 3a 00
        E 32 b1 0b 44
        E 0 91 39 44
        E 16 b1 0b 3b
        E 16 b1 0b 33
        E 16 b1 0b 2a
        E 32 b1 0b 22
        E 32 81 39 00
        E 176 b1 0b 44
        E 0 91 37 44
        E 16 b1 0b 3b
        E 16 b1 0b 33
        E 16 b1 0b 2a
        E 32 b1 0b 22
        E 32 81 37 00
        E 80 b1 0b 44
        E 0 91 40 44
        E 16 b1 0b 3b
        E 16 b1 0b 33
        E 16 b1 0b 2a
        E 32 b1 0b 22
        E 32 81 40 00
        E 80 b1 0b 44
        E 0 91 43 44
        E 16 b1 0b 3b
        E 16 b1 0b 33
        E 16 b1 0b 2a
        E 32 b1 0b 22
        E 32 81 43 00
        E 80 b1 0b 44
        E 0 91 45 44
        E 16 b1 0b 3b
        E 16 b1 0b 33
        E 16 b1 0b 2a
        E 32 b1 0b 22
        E 32 81 45 00
        E 176 b1 0b 44
        E 0 91 41 44
        E 16 b1 0b 3b
        E 16 b1 0b 33
        E 16 b1 0b 2a
        E 32 b1 0b 22
        E 32 81 41 00
        E 32 b1 0b 44
        E 0 91 43 44
        E 16 b1 0b 3b
        E 16 b1 0b 33
        E 16 b1 0b 2a
        E 32 b1 0b 22
        E 32 81 43 00
        E 176 b1 0b 44
        E 0 91 40 44
        E 16 b1 0b 3b
        E 16 b1 0b 33
        E 16 b1 0b 2a
        E 32 b1 0b 22
        E 32 81 40 00
        E 176 b1 0b 44
        E 0 91 3c 44
        E 16 b1 0b 3b
        E 16 b1 0b 33
        E 16 b1 0b 2a
        E 32 b1 0b 22
        E 32 81 3c 00
        E 32 b1 0b 44
        E 0 91 3e 44
        E 16 b1 0b 3b
        E 16 b1 0b 33
        E 16 b1 0b 2a
        E 32 b1 0b 22
        E 32 81 3e 00
        E 32 b1 0b 44
        E 0 91 3b 44
        E 16 b1 0b 3b
        E 16 b1 0b 33
        E 16 b1 0b 2a
        E 32 b1 0b 22
        E 32 81 3b 00
        E 320 b1 0b 44
        E 0 91 3c 44
        E 16 b1 0b 3b
        E 16 b1 0b 33
        E 16 b1 0b 2a
        E 32 b1 0b 22
        E 32 81 3c 00
        E 320 b1 0b 44
        E 0 91 37 44
        E 16 b1 0b 3b
        E 16 b1 0b 33
        E 16 b1 0b 2a
        E 32 b1 0b 22
        E 32 81 37 00
        E 320 b1 0b 44
        E 0 91 34 44
        E 16 b1 0b 3b
        E 16 b1 0b 33
        E 16 b1 0b 2a
        E 32 b1 0b 22
        E 32 81 34 00
        E 320 b1 0b 44
        E 0 91 39 44
        E 16 b1 0b 3b
        E 16 b1 0b 33
        E 16 b1 0b 2a
        E 32 b1 0b 22
        E 32 81 39 00
        E 176 b1 0b 44
        E 0 91 3b 44
        E 16 b1 0b 3b
        E 16 b1 0b 33
        E 16 b1 0b 2a
        E 32 b1 0b 22
        E 32 81 3b 00
        E 176 b1 0b 44
        E 0 91 3a 44
        E 16 b1 0b 3b
        E 16 b1 0b 33
        E 16 b1 0b 2a
        E 32 b1 0b 22
        E 32 81 3a 00
        E 32 b1 0b 44
        E 0 91 39 44
        E 16 b1 0b 3b
        E 16 b1 0b 33
        E 16 b1 0b 2a
        E 32 b1 0b 22
        E 32 81 39 00
        E 176 b1 0b 44
        E 0 91 37 44
        E 16 b1 0b 3b
        E 16 b1 0b 33
        E 16 b1 0b 2a
        E 32 b1 0b 22
        E 32 81 37 00
        E 80 b1 0b 44
        E 0 91 40 44
        E 16 b1 0b 3b
        E 16 b1 0b 33
        E 16 b1 0b 2a
        E 32 b1 0b 22
        E 32 81 40 00
        E 80 b1 0b 44
        E 0 91 43 44
        E 16 b1 0b 3b
        E 16 b1 0b 33
        E 16 b1 0b 2a
        E 32 b1 0b 22
        E 32 81 43 00
        E 80 b1 0b 44
        E 0 91 45 44
        E 16 b1 0b 3b
        E 16 b1 0b 33
        E 16 b1 0b 2a
        E 32 b1 0b 22
        E 32 81 45 00
        E 176 b1 0b 44
        E 0 91 41 44
        E 16 b1 0b 3b
        E 16 b1 0b 33
        E 16 b1 0b 2a
        E 32 b1 0b 22
        E 32 81 41 00
        E 32 b1 0b 44
        E 0 91 43 44
        E 16 b1 0b 3b
        E 16 b1 0b 33
        E 16 b1 0b 2a
        E 32 b1 0b 22
        E 32 81 43 00
        E 176 b1 0b 44
        E 0 91 40 44
        E 16 b1 0b 3b
        E 16 b1 0b 33
        E 16 b1 0b 2a
        E 32 b1 0b 22
        E 32 81 40 00
        E 176 b1 0b 44
        E 0 91 3c 44
        E 16 b1 0b 3b
        E 16 b1 0b 33
        E 16 b1 0b 2a
        E 32 b1 0b 22
        E 32 81 3c 00
        E 32 b1 0b 44
        E 0 91 3e 44
        E 16 b1 0b 3b
        E 16 b1 0b 33
        E 16 b1 0b 2a
        E 32 b1 0b 22
        E 32 81 3e 00
        E 32 b1 0b 44
        E 0 91 3b 44
        E 16 b1 0b 3b
        E 16 b1 0b 33
        E 16 b1 0b 2a
        E 32 b1 0b 22
        E 32 81 3b 00
        E 608 b1 0b 44
        E 0 91 43 44
        E 16 b1 0b 3b
        E 16 b1 0b 33
        E 16 b1 0b 2a
        E 32 b1 0b 22
        E 32 81 43 00
        E 32 b1 0b 44
        E 0 91 42 44
        E 16 b1 0b 3b
        E 16 b1 0b 33
        E 16 b1 0b 2a
        E 32 b1 0b 22
        E 32 81 42 00
        E 32 b1 0b 44
        E 0 91 41 44
        E 16 b1 0b 3b
        E 16 b1 0b 33
        E 16 b1 0b 2a
        E 32 b1 0b 22
        E 32 81 41 00
        E 32 b1 0b 44
        E 0 91 3f 44
        E 16 b1 0b 3b
        E 16 b1 0b 33
        E 16 b1 0b 2a
        E 32 b1 0b 22
        E 32 81 3f 00
        E 176 b1 0b 44
        E 0 91 40 44
        E 16 b1 0b 3b
        E 16 b1 0b 33
        E 16 b1 0b 2a
        E 32 b1 0b 22
        E 32 81 40 00
        E 176 b1 0b 44
        E 0 91 38 44
        E 16 b1 0b 3b
        E 16 b1 0b 33
        E 16 b1 0b 2a
        E 32 b1 0b 22
        E 32 81 38 00
        E 32 b1 0b 44
        E 0 91 39 44
        E 16 b1 0b 3b
        E 16 b1 0b 33
        E 16 b1 0b 2a
        E 32 b1 0b 22
        E 32 81 39 00
        E 32 b1 0b 44
        E 0 91 3c 44
        E 16 b1 0b 3b
        E 16 b1 0b 33
        E 16 b1 0b 2a
        E 32 b1 0b 22
        E 32 81 3c 00
        E 176 b1 0b 44
        E 0 91 39 44
        E 16 b1 0b 3b
        E 16 b1 0b 33
        E 16 b1 0b 2a
        E 32 b1 0b 22
        E 32 81 39 00
        E 32 b1 0b 44
        E 0 91 3c 44
        E 16 b1 0b 3b
        E 16 b1 0b 33
        E 16 b1 0b 2a
        E 32 b1 0b 22
        E 32 81 3c 00
        E 32 b1 0b 44
        E 0 91 3e 44
        E 16 b1 0b 3b
        E 16 b1 0b 33
        E 16 b1 0b 2a
        E 32 b1 0b 22
        E 32 81 3e 00
        E 320 b1 0b 44
        E 0 91 43 44
        E 16 b1 0b 3b
        E 16 b1 0b 33
        E 16 b1 0b 2a
        E 32 b1 0b 22
        E 32 81 43 00
        E 32 b1 0b 44
        E 0 91 42 44
        E 16 b1 0b 3b
        E 16 b1 0b 33
        E 16 b1 0b 2a
        E 32 b1 0b 22
        E 32 81 42 00
        E 32 b1 0b 44
        E 0 91 41 44
        E 16 b1 0b 3b
        E 16 b1 0b 33
        E 16 b1 0b 2a
        E 32 b1 0b 22
        E 32 81 41 00
        E 32 b1 0b 44
        E 0 91 3f 44
        E 16 b1 0b 3b
        E 16 b1 0b 33
        E 16 b1 0b 2a
        E 32 b1 0b 22
        E 32 81 3f 00
        E 176 b1 0b 44
        E 0 91 40 44
        E 16 b1 0b 3b
        E 16 b1 0b 33
        E 16 b1 0b 2a
        E 32 b1 0b 22
        E 32 81 40 00
        E 176 b1 0b 44
        E 0 91 48 44
        E 16 b1 0b 3b
        E 16 b1 0b 33
        E 16 b1 0b 2a
        E 32 b1 0b 22
        E 32 81 48 00
        E 176 b1 0b 44
        E 0 91 48 44
        E 16 b1 0b 3b
        E 16 b1 0b 33
        E 16 b1 0b 2a
        E 32 b1 0b 22
        E 32 81 48 00
        E 32 b1 0b 44
        E 0 91 48 44
        E 16 b1 0b 3b
        E 16 b1 0b 33
        E 16 b1 0b 2a
        E 32 b1 0b 22
        E 32 81 48 00
        E 752 b1 0b 44
        E 0 91 43 44
        E 16 b1 0b 3b
        E 16 b1 0b 33
        E 16 b1 0b 2a
        E 32 b1 0b 22
        E 32 81 43 00
        E 32 b1 0b 44
        E 0 91 42 44
        E 16 b1 0b 3b
        E 16 b1 0b 33
        E 16 b1 0b 2a
        E 32 b1 0b 22
        E 32 81 42 00
        E 32 b1 0b 44
        E 0 91 41 44
        E 16 b1 0b 3b
        E 16 b1 0b 33
        E 16 b1 0b 2a
        E 32 b1 0b 22
        E 32 81 41 00
        E 32 b1 0b 44
        E 0 91 3f 44
        E 16 b1 0b 3b
        E 16 b1 0b 33
        E 16 b1 0b 2a
        E 32 b1 0b 22
        E 32 81 3f 00
        E 176 b1 0b 44
        E 0 91 40 44
        E 16 b1 0b 3b
        E 16 b1 0b 33
        E 16 b1 0b 2a
        E 32 b1 0b 22
        E 32 81 40 00
        E 176 b1 0b 44
        E 0 91 38 44
        E 16 b1 0b 3b
        E 16 b1 0b 33
        E 16 b1 0b 2a
        E 32 b1 0b 22
        E 32 81 38 00
        E 32 b1 0b 44
        E 0 91 39 44
        E 16 b1 0b 3b
        E 16 b1 0b 33
        E 16 b1 0b 2a
        E 32 b1 0b 22
        E 32 81 39 00
        E 32 b1 0b 44
        E 0 91 3c 44
        E 16 b1 0b 3b
        E 16 b1 0b 33
        E 16 b1 0b 2a
        E 32 b1 0b 22
        E 32 81 3c 00
        E 176 b1 0b 44
        E 0 91 39 44
        E 16 b1 0b 3b
        E 16 b1 0b 33
        E 16 b1 0b 2a
        E 32 b1 0b 22
        E 32 81 39 00
        E 32 b1 0b 44
        E 0 91 3c 44
        E 16 b1 0b 3b
        E 16 b1 0b 33
        E 16 b1 0b 2a
        E 32 b1 0b 22
        E 32 81 3c 00
        E 32 b1 0b 44
        E 0 91 3e 44
        E 16 b1 0b 3b
        E 16 b1 0b 33
        E 16 b1 0b 2a
        E 32 b1 0b 22
        E 32 81 3e 00
        E 320 b1 0b 44
        E 0 91 3f 44
        E 16 b1 0b 3b
        E 16 b1 0b 33
        E 16 b1 0b 2a
        E 32 b1 0b 22
        E 32 81 3f 00
        E 320 b1 0b 44
        E 0 91 3e 44
        E 16 b1 0b 3b
        E 16 b1 0b 33
        E 16 b1 0b 2a
        E 32 b1 0b 22
        E 32 81 3e 00
        E 320 b1 0b 44
        E 0 91 3c 44
        E 16 b1 0b 3b
        E 16 b1 0b 33
        E 16 b1 0b 2a
        E 32 b1 0b 22
        E 32 81 3c 00
        E 1328 b1 0b 44
        E 0 91 43 44
        E 16 b1 0b 3b
        E 16 b1 0b 33
        E 16 b1 0b 2a
        E 32 b1 0b 22
        E 32 81 43 00
        E 32 b1 0b 44
        E 0 91 42 44
        E 16 b1 0b 3b
        E 16 b1 0b 33
        E 16 b1 0b 2a
        E 32 b1 0b 22
        E 32 81 42 00
        E 32 b1 0b 44
        E 0 91 41 44
        E 16 b1 0b 3b
        E 16 b1 0b 33
        E 16 b1 0b 2a
        E 32 b1 0b 22
        E 32 81 41 00
        E 32 b1 0b 44
        E 0 91 3f 44
        E 16 b1 0b 3b
        E 16 b1 0b 33
        E 16 b1 0b 2a
        E 32 b1 0b 22
        E 32 81 3f 00
        E 176 b1 0b 44
        E 0 91 40 44
        E 16 b1 0b 3b
        E 16 b1 0b 33
        E 16 b1 0b 2a
        E 32 b1 0b 22
        E 32 81 40 00
        E 176 b1 0b 44
        E 0 91 38 44
        E 16 b1 0b 3b
        E 16 b1 0b 33
        E 16 b1 0b 2a
        E 32 b1 0b 22
        E 32 81 38 00
        E 32 b1 0b 44
        E 0 91 39 44
        E 16 b1 0b 3b
        E 16 b1 0b 33
        E 16 b1 0b 2a
        E 32 b1 0b 22
        E 32 81 39 00
        E 32 b1 0b 44
        E 0 91 3c 44
        E 16 b1 0b 3b
        E 16 b1 0b 33
        E 16 b1 0b 2a
        E 32 b1 0b 22
        E 32 81 3c 00
        E 176 b1 0b 44
        E 0 91 39 44
        E 16 b1 0b 3b
        E 16 b1 0b 33
        E 16 b1 0b 2a
        E 32 b1 0b 22
        E 32 81 39 00
        E 32 b1 0b 44
        E 0 91 3c 44
        E 16 b1 0b 3b
        E 16 b1 0b 33
        E 16 b1 0b 2a
        E 32 b1 0b 22
        E 32 81 3c 00
        E 32 b1 0b 44
        E 0 91 3e 44
        E 16 b1 0b 3b
        E 16 b1 0b 33
        E 16 b1 0b 2a
        E 32 b1 0b 22
        E 32 81 3e 00
        E 320 b1 0b 44
        E 0 91 43 44
        E 16 b1 0b 3b
        E 16 b1 0b 33
        E 16 b1 0b 2a
        E 32 b1 0b 22
        E 32 81 43 00
        E 32 b1 0b 44
        E 0 91 42 44
        E 16 b1 0b 3b
        E 16 b1 0b 33
        E 16 b1 0b 2a
        E 32 b1 0b 22
        E 32 81 42 00
        E 32 b1 0b 44
        E 0 91 41 44
        E 16 b1 0b 3b
        E 16 b1 0b 33
        E 16 b1 0b 2a
        E 32 b1 0b 22
        E 32 81 41 00
        E 32 b1 0b 44
        E 0 91 3f 44
        E 16 b1 0b 3b
        E 16 b1 0b 33
        E 16 b1 0b 2a
        E 32 b1 0b 22
        E 32 81 3f 00
        E 176 b1 0b 44
        E 0 91 40 44
        E 16 b1 0b 3b
        E 16 b1 0b 33
        E 16 b1 0b 2a
        E 32 b1 0b 22
        E 32 81 40 00
        E 176 b1 0b 44
        E 0 91 48 44
        E 16 b1 0b 3b
        E 16 b1 0b 33
        E 16 b1 0b 2a
        E 32 b1 0b 22
        E 32 81 48 00
        E 176 b1 0b 44
        E 0 91 48 44
        E 16 b1 0b 3b
        E 16 b1 0b 33
        E 16 b1 0b 2a
        E 32 b1 0b 22
        E 32 81 48 00
        E 32 b1 0b 44
        E 0 91 48 44
        E 16 b1 0b 3b
        E 16 b1 0b 33
        E 16 b1 0b 2a
        E 32 b1 0b 22
        E 32 81 48 00
        E 752 b1 0b 44
        E 0 91 43 44
        E 16 b1 0b 3b
        E 16 b1 0b 33
        E 16 b1 0b 2a
        E 32 b1 0b 22
        E 32 81 43 00
        E 32 b1 0b 44
        E 0 91 42 44
        E 16 b1 0b 3b
        E 16 b1 0b 33
        E 16 b1 0b 2a
        E 32 b1 0b 22
        E 32 81 42 00
        E 32 b1 0b 44
        E 0 91 41 44
        E 16 b1 0b 3b
        E 16 b1 0b 33
        E 16 b1 0b 2a
        E 32 b1 0b 22
        E 32 81 41 00
        E 32 b1 0b 44
        E 0 91 3f 44
        E 16 b1 0b 3b
        E 16 b1 0b 33
        E 16 b1 0b 2a
        E 32 b1 0b 22
        E 32 81 3f 00
        E 176 b1 0b 44
        E 0 91 40 44
        E 16 b1 0b 3b
        E 16 b1 0b 33
        E 16 b1 0b 2a
        E 32 b1 0b 22
        E 32 81 40 00
        E 176 b1 0b 44
        E 0 91 38 44
        E 16 b1 0b 3b
        E 16 b1 0b 33
        E 16 b1 0b 2a
        E 32 b1 0b 22
        E 32 81 38 00
        E 32 b1 0b 44
        E 0 91 39 44
        E 16 b1 0b 3b
        E 16 b1 0b 33
        E 16 b1 0b 2a
        E 32 b1 0b 22
        E 32 81 39 00
        E 32 b1 0b 44
        E 0 91 3c 44
        E 16 b1 0b 3b
        E 16 b1 0b 33
        E 16 b1 0b 2a
        E 32 b1 0b 22
        E 32 81 3c 00
        E 176 b1 0b 44
        E 0 91 39 44
        E 16 b1 0b 3b
        E 16 b1 0b 33
        E 16 b1 0b 2a
        E 32 b1 0b 22
        E 32 81 39 00
        E 32 b1 0b 44
        E 0 91 3c 44
        E 16 b1 0b 3b
        E 16 b1 0b 33
        E 16 b1 0b 2a
        E 32 b1 0b 22
        E 32 81 3c 00
        E 32 b1 0b 44
        E 0 91 3e 44
        E 16 b1 0b 3b
        E 16 b1 0b 33
        E 16 b1 0b 2a
        E 32 b1 0b 22
        E 32 81 3e 00
        E 320 b1 0b 44
        E 0 91 3f 44
        E 16 b1 0b 3b
        E 16 b1 0b 33
        E 16 b1 0b 2a
        E 32 b1 0b 22
        E 32 81 3f 00
        E 320 b1 0b 44
        E 0 91 3e 44
        E 16 b1 0b 3b
        E 16 b1 0b 33
        E 16 b1 0b 2a
        E 32 b1 0b 22
        E 32 81 3e 00
        E 320 b1 0b 44
        E 0 91 3c 44
        E 16 b1 0b 3b
        E 16 b1 0b 33
        E 16 b1 0b 2a
        E 32 b1 0b 22
        E 32 81 3c 00
        E 1040 b1 0b 44
        E 0 91 3c 44
        E 16 b1 0b 3b
        E 16 b1 0b 33
        E 16 b1 0b 2a
        E 32 b1 0b 22
        E 32 81 3c 00
        E 32 b1 0b 44
        E 0 91 3c 44
        E 16 b1 0b 3b
        E 16 b1 0b 33
        E 16 b1 0b 2a
        E 32 b1 0b 22
        E 32 81 3c 00
        E 176 b1 0b 44
        E 0 91 3c 44
        E 16 b1 0b 3b
        E 16 b1 0b 33
        E 16 b1 0b 2a
        E 32 b1 0b 22
        E 32 81 3c 00
        E 176 b1 0b 44
        E 0 91 3c 44
        E 16 b1 0b 3b
        E 16 b1 0b 33
        E 16 b1 0b 2a
        E 32 b1 0b 22
        E 32 81 3c 00
        E 32 b1 0b 44
        E 0 91 3e 44
        E 16 b1 0b 3b
        E 16 b1 0b 33
        E 16 b1 0b 2a
        E 32 b1 0b 22
        E 32 81 3e 00
        E 176 b1 0b 44
        E 0 91 40 44
        E 16 b1 0b 3b
        E 16 b1 0b 33
        E 16 b1 0b 2a
        E 32 b1 0b 22
        E 32 81 40 00
        E 32 b1 0b 44
        E 0 91 3c 44
        E 16 b1 0b 3b
        E 16 b1 0b 33
        E 16 b1 0b 2a
        E 32 b1 0b 22
        E 32 81 3c 00
        E 176 b1 0b 44
        E 0 91 39 44
        E 16 b1 0b 3b
        E 16 b1 0b 33
        E 16 b1 0b 2a
        E 32 b1 0b 22
        E 32 81 39 00
        E 32 b1 0b 44
        E 0 91 37 44
        E 16 b1 0b 3b
        E 16 b1 0b 33
        E 16 b1 0b 2a
        E 32 b1 0b 22
        E 32 81 37 00
        E 464 b1 0b 44
        E 0 91 3c 44
        E 16 b1 0b 3b
        E 16 b1 0b 33
        E 16 b1 0b 2a
        E 32 b1 0b 22
        E 32 81 3c 00
        E 32 b1 0b 44
        E 0 91 3c 44
        E 16 b1 0b 3b
        E 16 b1 0b 33
        E 16 b1 0b 2a
        E 32 b1 0b 22
        E 32 81 3c 00
        E 176 b1 0b 44
        E 0 91 3c 44
        E 16 b1 0b 3b
        E 16 b1 0b 33
        E 16 b1 0b 2a
        E 32 b1 0b 22
        E 32 81 3c 00
        E 176 b1 0b 44
        E 0 91 3c 44
        E 16 b1 0b 3b
        E 16 b1 0b 33
        E 16 b1 0b 2a
        E 32 b1 0b 22
        E 32 81 3c 00
        E 32 b1 0b 44
        E 0 91 3e 44
        E 16 b1 0b 3b
        E 16 b1 0b 33
        E 16 b1 0b 2a
        E 32 b1 0b 22
        E 32 81 3e 00
        E 32 b1 0b 44
        E 0 91 40 44
        E 16 b1 0b 3b
        E 16 b1 0b 33
        E 16 b1 0b 2a
        E 32 b1 0b 22
        E 32 81 40 00
        E 1184 b1 0b 44
        E 0 91 3c 44
        E 16 b1 0b 3b
        E 16 b1 0b 33
        E 16 b1 0b 2a
        E 32 b1 0b 22
        E 32 81 3c 00
        E 32 b1 0b 44
        E 0 91 3c 44
        E 16 b1 0b 3b
        E 16 b1 0b 33
        E 16 b1 0b 2a
        E 32 b1 0b 22
        E 32 81 3c 00
        E 176 b1 0b 44
        E 0 91 3c 44
        E 16 b1 0b 3b
        E 16 b1 0b 33
        E 16 b1 0b 2a
        E 32 b1 0b 22
        E 32 81 3c 00
        E 176 b1 0b 44
        E 0 91 3c 44
        E 16 b1 0b 3b
        E 16 b1 0b 33
        E 16 b1 0b 2a
        E 32 b1 0b 22
        E 32 81 3c 00
        E 32 b1 0b 44
        E 0 91 3e 44
        E 16 b1 0b 3b
        E 16 b1 0b 33
        E 16 b1 0b 2a
        E 32 b1 0b 22
        E 32 81 3e 00
        E 176 b1 0b 44
        E 0 91 40 44
        E 16 b1 0b 3b
        E 16 b1 0b 33
        E 16 b1 0b 2a
        E 32 b1 0b 22
        E 32 81 40 00
        E 32 b1 0b 44
        E 0 91 3c 44
        E 16 b1 0b 3b
        E 16 b1 0b 33
        E 16 b1 0b 2a
        E 32 b1 0b 22
        E 32 81 3c 00
        E 176 b1 0b 44
        E 0 91 39 44
        E 16 b1 0b 3b
        E 16 b1 0b 33
        E 16 b1 0b 2a
        E 32 b1 0b 22
        E 32 81 39 00
        E 32 b1 0b 44
        E 0 91 37 44
        E 16 b1 0b 3b
        E 16 b1 0b 33
        E 16 b1 0b 2a
        E 32 b1 0b 22
        E 32 81 37 00
        E 464 b1 0b 44
        E 0 91 40 44
        E 16 b1 0b 3b
        E 16 b1 0b 33
        E 16 b1 0b 2a
        E 32 b1 0b 22
        E 32 81 40 00
        E 32 b1 0b 44
        E 0 91 40 44
        E 16 b1 0b 3b
        E 16 b1 0b 33
        E 16 b1 0b 2a
        E 32 b1 0b 22
        E 32 81 40 00
        E 176 b1 0b 44
        E 0 91 40 44
        E 16 b1 0b 3b
        E 16 b1 0b 33
        E 16 b1 0b 2a
        E 32 b1 0b 22
        E 32 81 40 00
        E 176 b1 0b 44
        E 0 91 3c 44
        E 16 b1 0b 3b
        E 16 b1 0b 33
        E 16 b1 0b 2a
        E 32 b1 0b 22
        E 32 81 3c 00
        E 32 b1 0b 44
        E 0 91 40 44
        E 16 b1 0b 3b
        E 16 b1 0b 33
        E 16 b1 0b 2a
        E 32 b1 0b 22
        E 32 81 40 00
        E 176 b1 0b 44
        E 0 91 43 44
        E 16 b1 0b 3b
        E 16 b1 0b 33
        E 16 b1 0b 2a
        E 32 b1 0b 22
        E 32 81 43 00
        E 1040 b1 0b 44
        E 0 91 3c 44
        E 16 b1 0b 3b
        E 16 b1 0b 33
        E 16 b1 0b 2a
        E 32 b1 0b 22
        E 32 81 3c 00
        E 320 b1 0b 44
        E 0 91 37 44
        E 16 b1 0b 3b
        E 16 b1 0b 33
        E 16 b1 0b 2a
        E 32 b1 0b 22
        E 32 81 37 00
        E 320 b1 0b 44
        E 0 91 34 44
        E 16 b1 0b 3b
        E 16 b1 0b 33
        E 16 b1 0b 2a
        E 32 b1 0b 22
        E 32 81 34 00
        E 320 b1 0b 44
        E 0 91 39 44
        E 16 b1 0b 3b
        E 16 b1 0b 33
        E 16 b1 0b 2a
        E 32 b1 0b 22
        E 32 81 39 00
        E 176 b1 0b 44
        E 0 91 3b 44
        E 16 b1 0b 3b
        E 16 b1 0b 33
        E 16 b1 0b 2a
        E 32 b1 0b 22
        E 32 81 3b 00
        E 176 b1 0b 44
        E 0 91 3a 44
        E 16 b1 0b 3b
        E 16 b1 0b 33
        E 16 b1 0b 2a
        E 32 b1 0b 22
        E 32 81 3a 00
        E 32 b1 0b 44
        E 0 91 39 44
        E 16 b1 0b 3b
        E 16 b1 0b 33
        E 16 b1 0b 2a
        E 32 b1 0b 22
        E 32 81 39 00
        E 176 b1 0b 44
        E 0 91 37 44
        E 16 b1 0b 3b
        E 16 b1 0b 33
        E 16 b1 0b 2a
        E 32 b1 0b 22
        E 32 81 37 00
        E 80 b1 0b 44
        E 0 91 40 44
        E 16 b1 0b 3b
        E 16 b1 0b 33
        E 16 b1 0b 2a
        E 32 b1 0b 22
        E 32 81 40 00
        E 80 b1 0b 44
        E 0 91 43 44
        E 16 b1 0b 3b
        E 16 b1 0b 33
        E 16 b1 0b 2a
        E 32 b1 0b 22
        E 32 81 43 00
        E 80 b1 0b 44
        E 0 91 45 44
        E 16 b1 0b 3b
        E 16 b1 0b 33
        E 16 b1 0b 2a
        E 32 b1 0b 22
        E 32 81 45 00
        E 176 b1 0b 44
        E 0 91 41 44
        E 16 b1 0b 3b
        E 16 b1 0b 33
        E 16 b1 0b 2a
        E 32 b1 0b 22
        E 32 81 41 00
        E 32 b1 0b 44
        E 0 91 43 44
        E 16 b1 0b 3b
        E 16 b1 0b 33
        E 16 b1 0b 2a
        E 32 b1 0b 22
        E 32 81 43 00
        E 176 b1 0b 44
        E 0 91 40 44
        E 16 b1 0b 3b
        E 16 b1 0b 33
        E 16 b1 0b 2a
        E 32 b1 0b 22
        E 32 81 40 00
        E 176 b1 0b 44
        E 0 91 3c 44
        E 16 b1 0b 3b
        E 16 b1 0b 33
        E 16 b1 0b 2a
        E 32 b1 0b 22
        E 32 81 3c 00
        E 32 b1 0b 44
        E 0 91 3e 44
        E 16 b1 0b 3b
        E 16 b1 0b 33
        E 16 b1 0b 2a
        E 32 b1 0b 22
        E 32 81 3e 00
        E 32 b1 0b 44
        E 0 91 3b 44
        E 16 b1 0b 3b
        E 16 b1 0b 33
        E 16 b1 0b 2a
        E 32 b1 0b 22
        E 32 81 3b 00
        E 320 b1 0b 44
        E 0 91 3c 44
        E 16 b1 0b 3b
        E 16 b1 0b 33
        E 16 b1 0b 2a
        E 32 b1 0b 22
        E 32 81 3c 00
        E 320 b1 0b 44
        E 0 91 37 44
        E 16 b1 0b 3b
        E 16 b1 0b 33
        E 16 b1 0b 2a
        E 32 b1 0b 22
        E 32 81 37 00
        E 320 b1 0b 44
        E 0 91 34 44
        E 16 b1 0b 3b
        E 16 b1 0b 33
        E 16 b1 0b 2a
        E 32 b1 0b 22
        E 32 81 34 00
        E 320 b1 0b 44
        E 0 91 39 44
        E 16 b1 0b 3b
        E 16 b1 0b 33
        E 16 b1 0b 2a
        E 32 b1 0b 22
        E 32 81 39 00
        E 176 b1 0b 44
        E 0 91 3b 44
        E 16 b1 0b 3b
        E 16 b1 0b 33
        E 16 b1 0b 2a
        E 32 b1 0b 22
        E 32 81 3b 00
        E 176 b1 0b 44
        E 0 91 3a 44
        E 16 b1 0b 3b
        E 16 b1 0b 33
        E 16 b1 0b 2a
        E 32 b1 0b 22
        E 32 81 3a 00
        E 32 b1 0b 44
        E 0 91 39 44
        E 16 b1 0b 3b
        E 16 b1 0b 33
        E 16 b1 0b 2a
        E 32 b1 0b 22
        E 32 81 39 00
        E 176 b1 0b 44
        E 0 91 37 44
        E 16 b1 0b 3b
        E 16 b1 0b 33
        E 16 b1 0b 2a
        E 32 b1 0b 22
        E 32 81 37 00
        E 80 b1 0b 44
        E 0 91 40 44
        E 16 b1 0b 3b
        E 16 b1 0b 33
        E 16 b1 0b 2a
        E 32 b1 0b 22
        E 32 81 40 00
        E 80 b1 0b 44
        E 0 91 43 44
        E 16 b1 0b 3b
        E 16 b1 0b 33
        E 16 b1 0b 2a
        E 32 b1 0b 22
        E 32 81 43 00
        E 80 b1 0b 44
        E 0 91 45 44
        E 16 b1 0b 3b
        E 16 b1 0b 33
        E 16 b1 0b 2a
        E 32 b1 0b 22
        E 32 81 45 00
        E 176 b1 0b 44
        E 0 91 41 44
        E 16 b1 0b 3b
        E 16 b1 0b 33
        E 16 b1 0b 2a
        E 32 b1 0b 22
        E 32 81 41 00
        E 32 b1 0b 44
        E 0 91 43 44
        E 16 b1 0b 3b
        E 16 b1 0b 33
        E 16 b1 0b 2a
        E 32 b1 0b 22
        E 32 81 43 00
        E 176 b1 0b 44
        E 0 91 40 44
        E 16 b1 0b 3b
        E 16 b1 0b 33
        E 16 b1 0b 2a
        E 32 b1 0b 22
        E 32 81 40 00
        E 176 b1 0b 44
        E 0 91 3c 44
        E 16 b1 0b 3b
        E 16 b1 0b 33
        E 16 b1 0b 2a
        E 32 b1 0b 22
        E 32 81 3c 00
        E 32 b1 0b 44
        E 0 91 3e 44
        E 16 b1 0b 3b
        E 16 b1 0b 33
        E 16 b1 0b 2a
        E 32 b1 0b 22
        E 32 81 3e 00
        E 32 b1 0b 44
        E 0 91 3b 44
        E 16 b1 0b 3b
        E 16 b1 0b 33
        E 16 b1 0b 2a
        E 32 b1 0b 22
        E 32 81 3b 00
        E 320 b1 0b 44
        E 0 91 40 44
        E 16 b1 0b 3b
        E 16 b1 0b 33
        E 16 b1 0b 2a
        E 32 b1 0b 22
        E 32 81 40 00
        E 32 b1 0b 44
        E 0 91 3c 44
        E 16 b1 0b 3b
        E 16 b1 0b 33
        E 16 b1 0b 2a
        E 32 b1 0b 22
        E 32 81 3c 00
        E 176 b1 0b 44
        E 0 91 37 44
        E 16 b1 0b 3b
        E 16 b1 0b 33
        E 16 b1 0b 2a
        E 32 b1 0b 22
        E 32 81 37 00
        E 320 b1 0b 44
        E 0 91 38 44
        E 16 b1 0b 3b
        E 16 b1 0b 33
        E 16 b1 0b 2a
        E 32 b1 0b 22
        E 32 81 38 00
        E 176 b1 0b 44
        E 0 91 39 44
        E 16 b1 0b 3b
        E 16 b1 0b 33
        E 16 b1 0b 2a
        E 32 b1 0b 22
        E 32 81 39 00
        E 32 b1 0b 44
        E 0 91 41 44
        E 16 b1 0b 3b
        E 16 b1 0b 33
        E 16 b1 0b 2a
        E 32 b1 0b 22
        E 32 81 41 00
        E 176 b1 0b 44
        E 0 91 41 44
        E 16 b1 0b 3b
        E 16 b1 0b 33
        E 16 b1 0b 2a
        E 32 b1 0b 22
        E 32 81 41 00
        E 32 b1 0b 44
        E 0 91 39 44
        E 16 b1 0b 3b
        E 16 b1 0b 33
        E 16 b1 0b 2a
        E 32 b1 0b 22
        E 32 81 39 00
        E 464 b1 0b 44
        E 0 91 3b 44
        E 16 b1 0b 3b
        E 16 b1 0b 33
        E 16 b1 0b 2a
        E 32 b1 0b 22
        E 32 81 3b 00
        E 80 b1 0b 44
        E 0 91 45 44
        E 16 b1 0b 3b
        E 16 b1 0b 33
        E 16 b1 0b 2a
        E 32 b1 0b 22
        E 32 81 45 00
        E 80 b1 0b 44
        E 0 91 45 44
        E 16 b1 0b 3b
        E 16 b1 0b 33
        E 16 b1 0b 2a
        E 32 b1 0b 22
        E 32 81 45 00
        E 80 b1 0b 44
        E 0 91 45 44
        E 16 b1 0b 3b
        E 16 b1 0b 33
        E 16 b1 0b 2a
        E 32 b1 0b 22
        E 32 81 45 00
        E 80 b1 0b 44
        E 0 91 43 44
        E 16 b1 0b 3b
        E 16 b1 0b 33
        E 16 b1 0b 2a
        E 32 b1 0b 22
        E 32 81 43 00
        E 80 b1 0b 44
        E 0 91 41 44
        E 16 b1 0b 3b
        E 16 b1 0b 33
        E 16 b1 0b 2a
        E 32 b1 0b 22
        E 32 81 41 00
        E 80 b1 0b 44
        E 0 91 40 44
        E 16 b1 0b 3b
        E 16 b1 0b 33
        E 16 b1 0b 2a
        E 32 b1 0b 22
        E 32 81 40 00
        E 32 b1 0b 44
        E 0 91 3c 44
        E 16 b1 0b 3b
        E 16 b1 0b 33
        E 16 b1 0b 2a
        E 32 b1 0b 22
        E 32 81 3c 00
        E 176 b1 0b 44
        E 0 91 39 44
        E 16 b1 0b 3b
        E 16 b1 0b 33
        E 16 b1 0b 2a
        E 32 b1 0b 22
        E 32 81 39 00
        E 32 b1 0b 44
        E 0 91 37 44
        E 16 b1 0b 3b
        E 16 b1 0b 33
        E 16 b1 0b 2a
        E 32 b1 0b 22
        E 32 81 37 00
        E 464 b1 0b 44
        E 0 91 40 44
        E 16 b1 0b 3b
        E 16 b1 0b 33
        E 16 b1 0b 2a
        E 32 b1 0b 22
        E 32 81 40 00
        E 32 b1 0b 44
        E 0 91 3c 44
        E 16 b1 0b 3b
        E 16 b1 0b 33
        E 16 b1 0b 2a
        E 32 b1 0b 22
        E 32 81 3c 00
        E 176 b1 0b 44
        E 0 91 37 44
        E 16 b1 0b 3b
        E 16 b1 0b 33
        E 16 b1 0b 2a
        E 32 b1 0b 22
        E 32 81 37 00
        E 320 b1 0b 44
        E 0 91 38 44
        E 16 b1 0b 3b
        E 16 b1 0b 33
        E 16 b1 0b 2a
        E 32 b1 0b 22
        E 32 81 38 00
        E 176 b1 0b 44
        E 0 91 39 44
        E 16 b1 0b 3b
        E 16 b1 0b 33
        E 16 b1 0b 2a
        E 32 b1 0b 22
        E 32 81 39 00
        E 32 b1 0b 44
        E 0 91 41 44
        E 16 b1 0b 3b
        E 16 b1 0b 33
        E 16 b1 0b 2a
        E 32 b1 0b 22
        E 32 81 41 00
        E 176 b1 0b 44
        E 0 91 41 44
        E 16 b1 0b 3b
        E 16 b1 0b 33
        E 16 b1 0b 2a
        E 32 b1 0b 22
        E 32 81 41 00
        E 32 b1 0b 44
        E 0 91 39 44
        E 16 b1 0b 3b
        E 16 b1 0b 33
        E 16 b1 0b 2a
        E 32 b1 0b 22
        E 32 81 39 00
        E 464 b1 0b 44
        E 0 91 3b 44
        E 16 b1 0b 3b
        E 16 b1 0b 33
        E 16 b1 0b 2a
        E 32 b1 0b 22
        E 32 81 3b 00
        E 32 b1 0b 44
        E 0 91 41 44
        E 16 b1 0b 3b
        E 16 b1 0b 33
        E 16 b1 0b 2a
        E 32 b1 0b 22
        E 32 81 41 00
        E 176 b1 0b 44
        E 0 91 41 44
        E 16 b1 0b 3b
        E 16 b1 0b 33
        E 16 b1 0b 2a
        E 32 b1 0b 22
        E 32 81 41 00
        E 32 b1 0b 44
        E 0 91 41 44
        E 16 b1 0b 3b
        E 16 b1 0b 33
        E 16 b1 0b 2a
        E 32 b1 0b 22
        E 32 81 41 00
        E 80 b1 0b 44
        E 0 91 40 44
        E 16 b1 0b 3b
        E 16 b1 0b 33
        E 16 b1 0b 2a
        E 32 b1 0b 22
        E 32 81 40 00
        E 80 b1 0b 44
        E 0 91 3e 44
        E 16 b1 0b 3b
        E 16 b1 0b 33
        E 16 b1 0b 2a
        E 32 b1 0b 22
        E 32 81 3e 00
        E 80 b1 0b 44
        E 0 91 3c 44
        E 16 b1 0b 3b
        E 16 b1 0b 33
        E 16 b1 0b 2a
        E 32 b1 0b 22
        E 32 81 3c 00
        E 1040 b1 0b 44
        E 0 91 40 44
        E 16 b1 0b 3b
        E 16 b1 0b 33
        E 16 b1 0b 2a
        E 32 b1 0b 22
        E 32 81 40 00
        E 32 b1 0b 44
        E 0 91 3c 44
        E 16 b1 0b 3b
        E 16 b1 0b 33
        E 16 b1 0b 2a
        E 32 b1 0b 22
        E 32 81 3c 00
        E 176 b1 0b 44
        E 0 91 37 44
        E 16 b1 0b 3b
        E 16 b1 0b 33
        E 16 b1 0b 2a
        E 32 b1 0b 22
        E 32 81 37 00
        E 320 b1 0b 44
        E 0 91 38 44
        E 16 b1 0b 3b
        E 16 b1 0b 33
        E 16 b1 0b 2a
        E 32 b1 0b 22
        E 32 81 38 00
        E 176 b1 0b 44
        E 0 91 39 44
        E 16 b1 0b 3b
        E 16 b1 0b 33
        E 16 b1 0b 2a
        E 32 b1 0b 22
        E 32 81 39 00
        E 32 b1 0b 44
        E 0 91 41 44
        E 16 b1 0b 3b
        E 16 b1 0b 33
        E 16 b1 0b 2a
        E 32 b1 0b 22
        E 32 81 41 00
        E 176 b1 0b 44
        E 0 91 41 44
        E 16 b1 0b 3b
        E 16 b1 0b 33
        E 16 b1 0b 2a
        E 32 b1 0b 22
        E 32 81 41 00
        E 32 b1 0b 44
        E 0 91 39 44
        E 16 b1 0b 3b
        E 16 b1 0b 33
        E 16 b1 0b 2a
        E 32 b1 0b 22
        E 32 81 39 00
        E 464 b1 0b 44
        E 0 91 3b 44
        E 16 b1 0b 3b
        E 16 b1 0b 33
        E 16 b1 0b 2a
        E 32 b1 0b 22
        E 32 81 3b 00
        E 80 b1 0b 44
        E 0 91 45 44
        E 16 b1 0b 3b
        E 16 b1 0b 33
        E 16 b1 0b 2a
        E 32 b1 0b 22
        E 32 81 45 00
        E 80 b1 0b 44
        E 0 91 45 44
        E 16 b1 0b 3b
        E 16 b1 0b 33
        E 16 b1 0b 2a
        E 32 b1 0b 22
        E 32 81 45 00
        E 80 b1 0b 44
        E 0 91 45 44
        E 16 b1 0b 3b
        E 16 b1 0b 33
        E 16 b1 0b 2a
        E 32 b1 0b 22
        E 32 81 45 00
        E 80 b1 0b 44
        E 0 91 43 44
        E 16 b1 0b 3b
        E 16 b1 0b 33
        E 16 b1 0b 2a
        E 32 b1 0b 22
        E 32 81 43 00
        E 80 b1 0b 44
        E 0 91 41 44
        E 16 b1 0b 3b
        E 16 b1 0b 33
        E 16 b1 0b 2a
        E 32 b1 0b 22
        E 32 81 41 00
        E 80 b1 0b 44
        E 0 91 40 44
        E 16 b1 0b 3b
        E 16 b1 0b 33
        E 16 b1 0b 2a
        E 32 b1 0b 22
        E 32 81 40 00
        E 32 b1 0b 44
        E 0 91 3c 44
        E 16 b1 0b 3b
        E 16 b1 0b 33
        E 16 b1 0b 2a
        E 32 b1 0b 22
        E 32 81 3c 00
        E 176 b1 0b 44
        E 0 91 39 44
        E 16 b1 0b 3b
        E 16 b1 0b 33
        E 16 b1 0b 2a
        E 32 b1 0b 22
        E 32 81 39 00
        E 32 b1 0b 44
        E 0 91 37 44
        E 16 b1 0b 3b
        E 16 b1 0b 33
        E 16 b1 0b 2a
        E 32 b1 0b 22
        E 32 81 37 00
        E 464 b1 0b 44
        E 0 91 40 44
        E 16 b1 0b 3b
        E 16 b1 0b 33
        E 16 b1 0b 2a
        E 32 b1 0b 22
        E 32 81 40 00
        E 32 b1 0b 44
        E 0 91 3c 44
        E 16 b1 0b 3b
        E 16 b1 0b 33
        E 16 b1 0b 2a
        E 32 b1 0b 22
        E 32 81 3c 00
        E 176 b1 0b 44
        E 0 91 37 44
        E 16 b1 0b 3b
        E 16 b1 0b 33
        E 16 b1 0b 2a
        E 32 b1 0b 22
        E 32 81 37 00
        E 320 b1 0b 44
        E 0 91 38 44
        E 16 b1 0b 3b
        E 16 b1 0b 33
        E 16 b1 0b 2a
        E 32 b1 0b 22
        E 32 81 38 00
        E 176 b1 0b 44
        E 0 91 39 44
        E 16 b1 0b 3b
        E 16 b1 0b 33
        E 16 b1 0b 2a
        E 32 b1 0b 22
        E 32 81 39 00
        E 32 b1 0b 44
        E 0 91 41 44
        E 16 b1 0b 3b
        E 16 b1 0b 33
        E 16 b1 0b 2a
        E 32 b1 0b 22
        E 32 81 41 00
        E 176 b1 0b 44
        E 0 91 41 44
        E 16 b1 0b 3b
        E 16 b1 0b 33
        E 16 b1 0b 2a
        E 32 b1 0b 22
        E 32 81 41 00
        E 32 b1 0b 44
        E 0 91 39 44
        E 16 b1 0b 3b
        E 16 b1 0b 33
        E 16 b1 0b 2a
        E 32 b1 0b 22
        E 32 81 39 00
        E 464 b1 0b 44
        E 0 91 3b 44
        E 16 b1 0b 3b
        E 16 b1 0b 33
        E 16 b1 0b 2a
        E 32 b1 0b 22
        E 32 81 3b 00
        E 32 b1 0b 44
        E 0 91 41 44
        E 16 b1 0b 3b
        E 16 b1 0b 33
        E 16 b1 0b 2a
        E 32 b1 0b 22
        E 32 81 41 00
        E 176 b1 0b 44
        E 0 91 41 44
        E 16 b1 0b 3b
        E 16 b1 0b 33
        E 16 b1 0b 2a
        E 32 b1 0b 22
        E 32 81 41 00
        E 32 b1 0b 44
        E 0 91 41 44
        E 16 b1 0b 3b
        E 16 b1 0b 33
        E 16 b1 0b 2a
        E 32 b1 0b 22
        E 32 81 41 00
        E 80 b1 0b 44
        E 0 91 40 44
        E 16 b1 0b 3b
        E 16 b1 0b 33
        E 16 b1 0b 2a
        E 32 b1 0b 22
        E 32 81 40 00
        E 80 b1 0b 44
        E 0 91 3e 44
        E 16 b1 0b 3b
        E 16 b1 0b 33
        E 16 b1 0b 2a
        E 32 b1 0b 22
        E 32 81 3e 00
        E 80 b1 0b 44
        E 0 91 3c 44
        E 16 b1 0b 3b
        E 16 b1 0b 33
        E 16 b1 0b 2a
        E 32 b1 0b 22
        E 32 81 3c 00
        E 1040 b1 0b 44
        E 0 91 3c 44
        E 16 b1 0b 3b
        E 16 b1 0b 33
        E 16 b1 0b 2a
        E 32 b1 0b 22
        E 32 81 3c 00
        E 32 b1 0b 44
        E 0 91 3c 44
        E 16 b1 0b 3b
        E 16 b1 0b 33
        E 16 b1 0b 2a
        E 32 b1 0b 22
        E 32 81 3c 00
        E 176 b1 0b 44
        E 0 91 3c 44
        E 16 b1 0b 3b
        E 16 b1 0b 33
        E 16 b1 0b 2a
        E 32 b1 0b 22
        E 32 81 3c 00
        E 176 b1 0b 44
        E 0 91 3c 44
        E 16 b1 0b 3b
        E 16 b1 0b 33
        E 16 b1 0b 2a
        E 32 b1 0b 22
        E 32 81 3c 00
        E 32 b1 0b 44
        E 0 91 3e 44
        E 16 b1 0b 3b
        E 16 b1 0b 33
        E 16 b1 0b 2a
        E 32 b1 0b 22
        E 32 81 3e 00
        E 176 b1 0b 44
        E 0 91 40 44
        E 16 b1 0b 3b
        E 16 b1 0b 33
        E 16 b1 0b 2a
        E 32 b1 0b 22
        E 32 81 40 00
        E 32 b1 0b 44
        E 0 91 3c 44
        E 16 b1 0b 3b
        E 16 b1 0b 33
        E 16 b1 0b 2a
        E 32 b1 0b 22
        E 32 81 3c 00
        E 176 b1 0b 44
        E 0 91 39 44
        E 16 b1 0b 3b
        E 16 b1 0b 33
        E 16 b1 0b 2a
        E 32 b1 0b 22
        E 32 81 39 00
        E 32 b1 0b 44
        E 0 91 37 44
        E 16 b1 0b 3b
        E 16 b1 0b 33
        E 16 b1 0b 2a
        E 32 b1 0b 22
        E 32 81 37 00
        E 464 b1 0b 44
        E 0 91 3c 44
        E 16 b1 0b 3b
        E 16 b1 0b 33
        E 16 b1 0b 2a
        E 32 b1 0b 22
        E 32 81 3c 00
        E 32 b1 0b 44
        E 0 91 3c 44
        E 16 b1 0b 3b
        E 16 b1 0b 33
        E 16 b1 0b 2a
        E 32 b1 0b 22
        E 32 81 3c 00
        E 176 b1 0b 44
        E 0 91 3c 44
        E 16 b1 0b 3b
        E 16 b1 0b 33
        E 16 b1 0b 2a
        E 32 b1 0b 22
        E 32 81 3c 00
        E 176 b1 0b 44
        E 0 91 3c 44
        E 16 b1 0b 3b
        E 16 b1 0b 33
        E 16 b1 0b 2a
        E 32 b1 0b 22
        E 32 81 3c 00
        E 32 b1 0b 44
        E 0 91 3e 44
        E 16 b1 0b 3b
        E 16 b1 0b 33
        E 16 b1 0b 2a
        E 32 b1 0b 22
        E 32 81 3e 00
        E 32 b1 0b 44
        E 0 91 40 44
        E 16 b1 0b 3b
        E 16 b1 0b 33
        E 16 b1 0b 2a
        E 32 b1 0b 22
        E 32 81 40 00
        E 1184 b1 0b 44
        E 0 91 3c 44
        E 16 b1 0b 3b
        E 16 b1 0b 33
        E 16 b1 0b 2a
        E 32 b1 0b 22
        E 32 81 3c 00
        E 32 b1 0b 44
        E 0 91 3c 44
        E 16 b1 0b 3b
        E 16 b1 0b 33
        E 16 b1 0b 2a
        E 32 b1 0b 22
        E 32 81 3c 00
        E 176 b1 0b 44
        E 0 91 3c 44
        E 16 b1 0b 3b
        E 16 b1 0b 33
        E 16 b1 0b 2a
        E 32 b1 0b 22
        E 32 81 3c 00
        E 176 b1 0b 44
        E 0 91 3c 44
        E 16 b1 0b 3b
        E 16 b1 0b 33
        E 16 b1 0b 2a
        E 32 b1 0b 22
        E 32 81 3c 00
        E 32 b1 0b 44
        E 0 91 3e 44
        E 16 b1 0b 3b
        E 16 b1 0b 33
        E 16 b1 0b 2a
        E 32 b1 0b 22
        E 32 81 3e 00
        E 176 b1 0b 44
        E 0 91 40 44
        E 16 b1 0b 3b
        E 16 b1 0b 33
        E 16 b1 0b 2a
        E 32 b1 0b 22
        E 32 81 40 00
        E 32 b1 0b 44
        E 0 91 3c 44
        E 16 b1 0b 3b
        E 16 b1 0b 33
        E 16 b1 0b 2a
        E 32 b1 0b 22
        E 32 81 3c 00
        E 176 b1 0b 44
        E 0 91 39 44
        E 16 b1 0b 3b
        E 16 b1 0b 33
        E 16 b1 0b 2a
        E 32 b1 0b 22
        E 32 81 39 00
        E 32 b1 0b 44
        E 0 91 37 44
        E 16 b1 0b 3b
        E 16 b1 0b 33
        E 16 b1 0b 2a
        E 32 b1 0b 22
        E 32 81 37 00
        E 464 b1 0b 44
        E 0 91 40 44
        E 16 b1 0b 3b
        E 16 b1 0b 33
        E 16 b1 0b 2a
        E 32 b1 0b 22
        E 32 81 40 00
        E 32 b1 0b 44
        E 0 91 40 44
        E 16 b1 0b 3b
        E 16 b1 0b 33
        E 16 b1 0b 2a
        E 32 b1 0b 22
        E 32 81 40 00
        E 176 b1 0b 44
        E 0 91 40 44
        E 16 b1 0b 3b
        E 16 b1 0b 33
        E 16 b1 0b 2a
        E 32 b1 0b 22
        E 32 81 40 00
        E 176 b1 0b 44
        E 0 91 3c 44
        E 16 b1 0b 3b
        E 16 b1 0b 33
        E 16 b1 0b 2a
        E 32 b1 0b 22
        E 32 81 3c 00
        E 32 b1 0b 44
        E 0 91 40 44
        E 16 b1 0b 3b
        E 16 b1 0b 33
        E 16 b1 0b 2a
        E 32 b1 0b 22
        E 32 81 40 00
        E 176 b1 0b 44
        E 0 91 43 44
        E 16 b1 0b 3b
        E 16 b1 0b 33
        E 16 b1 0b 2a
        E 32 b1 0b 22
        E 32 81 43 00
        E 1040 b1 0b 44
        E 0 91 40 44
        E 16 b1 0b 3b
        E 16 b1 0b 33
        E 16 b1 0b 2a
        E 32 b1 0b 22
        E 32 81 40 00
        E 32 b1 0b 44
        E 0 91 3c 44
        E 16 b1 0b 3b
        E 16 b1 0b 33
        E 16 b1 0b 2a
        E 32 b1 0b 22
        E 32 81 3c 00
        E 176 b1 0b 44
        E 0 91 37 44
        E 16 b1 0b 3b
        E 16 b1 0b 33
        E 16 b1 0b 2a
        E 32 b1 0b 22
        E 32 81 37 00
        E 320 b1 0b 44
        E 0 91 38 44
        E 16 b1 0b 3b
        E 16 b1 0b 33
        E 16 b1 0b 2a
        E 32 b1 0b 22
        E 32 81 38 00
        E 176 b1 0b 44
        E 0 91 39 44
        E 16 b1 0b 3b
        E 16 b1 0b 33
        E 16 b1 0b 2a
        E 32 b1 0b 22
        E 32 81 39 00
        E 32 b1 0b 44
        E 0 91 41 44
        E 16 b1 0b 3b
        E 16 b1 0b 33
        E 16 b1 0b 2a
        E 32 b1 0b 22
        E 32 81 41 00
        E 176 b1 0b 44
        E 0 91 41 44
        E 16 b1 0b 3b
        E 16 b1 0b 33
        E 16 b1 0b 2a
        E 32 b1 0b 22
        E 32 81 41 00
        E 32 b1 0b 44
        E 0 91 39 44
        E 16 b1 0b 3b
        E 16 b1 0b 33
        E 16 b1 0b 2a
        E 32 b1 0b 22
        E 32 81 39 00
        E 464 b1 0b 44
        E 0 91 3b 44
        E 16 b1 0b 3b
        E 16 b1 0b 33
        E 16 b1 0b 2a
        E 32 b1 0b 22
        E 32 81 3b 00
        E 80 b1 0b 44
        E 0 91 45 44
        E 16 b1 0b 3b
        E 16 b1 0b 33
        E 16 b1 0b 2a
        E 32 b1 0b 22
        E 32 81 45 00
        E 80 b1 0b 44
        E 0 91 45 44
        E 16 b1 0b 3b
        E 16 b1 0b 33
        E 16 b1 0b 2a
        E 32 b1 0b 22
        E 32 81 45 00
        E 80 b1 0b 44
        E 0 91 45 44
        E 16 b1 0b 3b
        E 16 b1 0b 33
        E 16 b1 0b 2a
        E 32 b1 0b 22
        E 32 81 45 00
        E 80 b1 0b 44
        E 0 91 43 44
        E 16 b1 0b 3b
        E 16 b1 0b 33
        E 16 b1 0b 2a
        E 32 b1 0b 22
        E 32 81 43 00
        E 80 b1 0b 44
        E 0 91 41 44
        E 16 b1 0b 3b
        E 16 b1 0b 33
        E 16 b1 0b 2a
        E 32 b1 0b 22
        E 32 81 41 00
        E 80 b1 0b 44
        E 0 91 40 44
        E 16 b1 0b 3b
        E 16 b1 0b 33
        E 16 b1 0b 2a
        E 32 b1 0b 22
        E 32 81 40 00
        E 32 b1 0b 44
        E 0 91 3c 44
        E 16 b1 0b 3b
        E 16 b1 0b 33
        E 16 b1 0b 2a
        E 32 b1 0b 22
        E 32 81 3c 00
        E 176 b1 0b 44
        E 0 91 39 44
        E 16 b1 0b 3b
        E 16 b1 0b 33
        E 16 b1 0b 2a
        E 32 b1 0b 22
        E 32 81 39 00
        E 32 b1 0b 44
        E 0 91 37 44
        E 16 b1 0b 3b
        E 16 b1 0b 33
        E 16 b1 0b 2a
        E 32 b1 0b 22
        E 32 81 37 00
        E 464 b1 0b 44
        E 0 91 40 44
        E 16 b1 0b 3b
        E 16 b1 0b 33
        E 16 b1 0b 2a
        E 32 b1 0b 22
        E 32 81 40 00
        E 32 b1 0b 44
        E 0 91 3c 44
        E 16 b1 0b 3b
        E 16 b1 0b 33
        E 16 b1 0b 2a
        E 32 b1 0b 22
        E 32 81 3c 00
        E 176 b1 0b 44
        E 0 91 37 44
        E 16 b1 0b 3b
        E 16 b1 0b 33
        E 16 b1 0b 2a
        E 32 b1 0b 22
        E 32 81 37 00
        E 320 b1 0b 44
        E 0 91 38 44
        E 16 b1 0b 3b
        E 16 b1 0b 33
        E 16 b1 0b 2a
        E 32 b1 0b 22
        E 32 81 38 00
        E 176 b1 0b 44
        E 0 91 39 44
        E 16 b1 0b 3b
        E 16 b1 0b 33
        E 16 b1 0b 2a
        E 32 b1 0b 22
        E 32 81 39 00
        E 32 b1 0b 44
        E 0 91 41 44
        E 16 b1 0b 3b
        E 16 b1 0b 33
        E 16 b1 0b 2a
        E 32 b1 0b 22
        E 32 81 41 00
        E 176 b1 0b 44
        E 0 91 41 44
        E 16 b1 0b 3b
        E 16 b1 0b 33
        E 16 b1 0b 2a
        E 32 b1 0b 22
        E 32 81 41 00
        E 32 b1 0b 44
        E 0 91 39 44
        E 16 b1 0b 3b
        E 16 b1 0b 33
        E 16 b1 0b 2a
        E 32 b1 0b 22
        E 32 81 39 00
        E 464 b1 0b 44
        E 0 91 3b 44
        E 16 b1 0b 3b
        E 16 b1 0b 33
        E 16 b1 0b 2a
        E 32 b1 0b 22
        E 32 81 3b 00
        E 32 b1 0b 44
        E 0 91 41 44
        E 16 b1 0b 3b
        E 16 b1 0b 33
        E 16 b1 0b 2a
        E 32 b1 0b 22
        E 32 81 41 00
        E 176 b1 0b 44
        E 0 91 41 44
        E 16 b1 0b 3b
        E 16 b1 0b 33
        E 16 b1 0b 2a
        E 32 b1 0b 22
        E 32 81 41 00
        E 32 b1 0b 44
        E 0 91 41 44
        E 16 b1 0b 3b
        E 16 b1 0b 33
        E 16 b1 0b 2a
        E 32 b1 0b 22
        E 32 81 41 00
        E 80 b1 0b 44
        E 0 91 40 44
        E 16 b1 0b 3b
        E 16 b1 0b 33
        E 16 b1 0b 2a
        E 32 b1 0b 22
        E 32 81 40 00
        E 80 b1 0b 44
        E 0 91 3e 44
        E 16 b1 0b 3b
        E 16 b1 0b 33
        E 16 b1 0b 2a
        E 32 b1 0b 22
        E 32 81 3e 00
        E 80 b1 0b 44
        E 0 91 3c 44
        E 16 b1 0b 3b
        E 16 b1 0b 33
        E 16 b1 0b 2a
        E 32 b1 0b 22
        E 32 81 3c 00
        E 1040 b1 0b 44
        E 0 91 3c 44
        E 16 b1 0b 3b
        E 16 b1 0b 33
        E 16 b1 0b 2a
        E 32 b1 0b 22
        E 32 81 3c 00
        E 320 b1 0b 44
        E 0 91 37 44
        E 16 b1 0b 3b
        E 16 b1 0b 33
        E 16 b1 0b 2a
        E 32 b1 0b 22
        E 32 81 37 00
        E 320 b1 0b 44
        E 0 91 34 44
        E 16 b1 0b 3b
        E 16 b1 0b 33
        E 16 b1 0b 2a
        E 32 b1 0b 22
        E 32 81 34 00
        E 320 b1 0b 44
        E 0 91 39 44
        E 16 b1 0b 3b
        E 16 b1 0b 33
        E 16 b1 0b 2a
        E 32 b1 0b 22
        E 32 81 39 00
        E 176 b1 0b 44
        E 0 91 3b 44
        E 16 b1 0b 3b
        E 16 b1 0b 33
        E 16 b1 0b 2a
        E 32 b1 0b 22
        E 32 81 3b 00
        E 176 b1 0b 44
        E 0 91 3a 44
        E 16 b1 0b 3b
        E 16 b1 0b 33
        E 16 b1 0b 2a
        E 32 b1 0b 22
        E 32 81 3a 00
        E 32 b1 0b 44
        E 0 91 39 44
        E 16 b1 0b 3b
        E 16 b1 0b 33
        E 16 b1 0b 2a
        E 32 b1 0b 22
        E 32 81 39 00
        E 176 b1 0b 44
        E 0 91 37 44
        E 16 b1 0b 3b
        E 16 b1 0b 33
        E 16 b1 0b 2a
        E 32 b1 0b 22
        E 32 81 37 00
        E 80 b1 0b 44
        E 0 91 40 44
        E 16 b1 0b 3b
        E 16 b1 0b 33
        E 16 b1 0b 2a
        E 32 b1 0b 22
        E 32 81 40 00
        E 80 b1 0b 44
        E 0 91 43 44
        E 16 b1 0b 3b
        E 16 b1 0b 33
        E 16 b1 0b 2a
        E 32 b1 0b 22
        E 32 81 43 00
        E 80 b1 0b 44
        E 0 91 45 44
        E 16 b1 0b 3b
        E 16 b1 0b 33
        E 16 b1 0b 2a
        E 32 b1 0b 22
        E 32 81 45 00
        E 176 b1 0b 44
        E 0 91 41 44
        E 16 b1 0b 3b
        E 16 b1 0b 33
        E 16 b1 0b 2a
        E 32 b1 0b 22
        E 32 81 41 00
        E 32 b1 0b 44
        E 0 91 43 44
        E 16 b1 0b 3b
        E 16 b1 0b 33
        E 16 b1 0b 2a
        E 32 b1 0b 22
        E 32 81 43 00
        E 176 b1 0b 44
        E 0 91 40 44
        E 16 b1 0b 3b
        E 16 b1 0b 33
        E 16 b1 0b 2a
        E 32 b1 0b 22
        E 32 81 40 00
        E 176 b1 0b 44
        E 0 91 3c 44
        E 16 b1 0b 3b
        E 16 b1 0b 33
        E 16 b1 0b 2a
        E 32 b1 0b 22
        E 32 81 3c 00
        E 32 b1 0b 44
        E 0 91 3e 44
        E 16 b1 0b 3b
        E 16 b1 0b 33
        E 16 b1 0b 2a
        E 32 b1 0b 22
        E 32 81 3e 00
        E 32 b1 0b 44
        E 0 91 3b 44
        E 16 b1 0b 3b
        E 16 b1 0b 33
        E 16 b1 0b 2a
        E 32 b1 0b 22
        E 32 81 3b 00
        E 320 b1 0b 44
        E 0 91 3c 44
        E 16 b1 0b 3b
        E 16 b1 0b 33
        E 16 b1 0b 2a
        E 32 b1 0b 22
        E 32 81 3c 00
        E 320 b1 0b 44
        E 0 91 37 44
        E 16 b1 0b 3b
        E 16 b1 0b 33
        E 16 b1 0b 2a
        E 32 b1 0b 22
        E 32 81 37 00
        E 320 b1 0b 44
        E 0 91 34 44
        E 16 b1 0b 3b
        E 16 b1 0b 33
        E 16 b1 0b 2a
        E 32 b1 0b 22
        E 32 81 34 00
        E 320 b1 0b 44
        E 0 91 39 44
        E 16 b1 0b 3b
        E 16 b1 0b 33
        E 16 b1 0b 2a
        E 32 b1 0b 22
        E 32 81 39 00
        E 176 b1 0b 44
        E 0 91 3b 44
        E 16 b1 0b 3b
        E 16 b1 0b 33
        E 16 b1 0b 2a
        E 32 b1 0b 22
        E 32 81 3b 00
        E 176 b1 0b 44
        E 0 91 3a 44
        E 16 b1 0b 3b
        E 16 b1 0b 33
        E 16 b1 0b 2a
        E 32 b1 0b 22
        E 32 81 3a 00
        E 32 b1 0b 44
        E 0 91 39 44
        E 16 b1 0b 3b
        E 16 b1 0b 33
        E 16 b1 0b 2a
        E 32 b1 0b 22
        E 32 81 39 00
        E 176 b1 0b 44
        E 0 91 37 44
        E 16 b1 0b 3b
        E 16 b1 0b 33
        E 16 b1 0b 2a
        E 32 b1 0b 22
        E 32 81 37 00
        E 80 b1 0b 44
        E 0 91 40 44
        E 16 b1 0b 3b
        E 16 b1 0b 33
        E 16 b1 0b 2a
        E 32 b1 0b 22
        E 32 81 40 00
        E 80 b1 0b 44
        E 0 91 43 44
        E 16 b1 0b 3b
        E 16 b1 0b 33
        E 16 b1 0b 2a
        E 32 b1 0b 22
        E 32 81 43 00
        E 80 b1 0b 44
        E 0 91 45 44
        E 16 b1 0b 3b
        E 16 b1 0b 33
        E 16 b1 0b 2a
        E 32 b1 0b 22
        E 32 81 45 00
        E 176 b1 0b 44
        E 0 91 41 44
        E 16 b1 0b 3b
        E 16 b1 0b 33
        E 16 b1 0b 2a
        E 32 b1 0b 22
        E 32 81 41 00
        E 32 b1 0b 44
        E 0 91 43 44
        E 16 b1 0b 3b
        E 16 b1 0b 33
        E 16 b1 0b 2a
        E 32 b1 0b 22
        E 32 81 43 00
        E 176 b1 0b 44
        E 0 91 40 44
        E 16 b1 0b 3b
        E 16 b1 0b 33
        E 16 b1 0b 2a
        E 32 b1 0b 22
        E 32 81 40 00
        E 176 b1 0b 44
        E 0 91 3c 44
        E 16 b1 0b 3b
        E 16 b1 0b 33
        E 16 b1 0b 2a
        E 32 b1 0b 22
        E 32 81 3c 00
        E 32 b1 0b 44
        E 0 91 3e 44
        E 16 b1 0b 3b
        E 16 b1 0b 33
        E 16 b1 0b 2a
        E 32 b1 0b 22
        E 32 81 3e 00
        E 32 b1 0b 44
        E 0 91 3b 44
        E 16 b1 0b 3b
        E 16 b1 0b 33
        E 16 b1 0b 2a
        E 32 b1 0b 22
        E 32 81 3b 00
        E 608 b1 0b 44
        E 0 91 43 44
        E 16 b1 0b 3b
        E 16 b1 0b 33
        E 16 b1 0b 2a
        E 32 b1 0b 22
        E 32 81 43 00
        E 32 b1 0b 44
        E 0 91 42 44
        E 16 b1 0b 3b
        E 16 b1 0b 33
        E 16 b1 0b 2a
        E 32 b1 0b 22
        E 32 81 42 00
        E 32 b1 0b 44
        E 0 91 41 44
        E 16 b1 0b 3b
        E 16 b1 0b 33
        E 16 b1 0b 2a
        E 32 b1 0b 22
        E 32 81 41 00
        E 32 b1 0b 44
        E 0 91 3f 44
        E 16 b1 0b 3b
        E 16 b1 0b 33
        E 16 b1 0b 2a
        E 32 b1 0b 22
        E 32 81 3f 00
        E 176 b1 0b 44
        E 0 91 40 44
        E 16 b1 0b 3b
        E 16 b1 0b 33
        E 16 b1 0b 2a
        E 32 b1 0b 22
        E 32 81 40 00
        E 176 b1 0b 44
        E 0 91 38 44
        E 16 b1 0b 3b
        E 16 b1 0b 33
        E 16 b1 0b 2a
        E 32 b1 0b 22
        E 32 81 38 00
        E 32 b1 0b 44
        E 0 91 39 44
        E 16 b1 0b 3b
        E 16 b1 0b 33
        E 16 b1 0b 2a
        E 32 b1 0b 22
        E 32 81 39 00
        E 32 b1 0b 44
        E 0 91 3c 44
        E 16 b1 0b 3b
        E 16 b1 0b 33
        E 16 b1 0b 2a
        E 32 b1 0b 22
        E 32 81 3c 00
        E 0 ff 2f 00
      >
    >
  >
  <TRACK {732981B3-CA4C-4B4A-B9D8-80FB5E698F07}
    NAME "NES - Triangle [ch2]"
    PEAKCOL 16744192
    BEAT -1
    AUTOMODE 0
    PANLAWFLAGS 3
    VOLPAN 1 0 -1 -1 1
    MUTESOLO 0 0 0
    IPHASE 0
    PLAYOFFS 0 1
    ISBUS 0 0
    BUSCOMP 0 0 0 0 0
    SHOWINMIX 1 0.6667 0.5 1 0.5 0 0 0
    FIXEDLANES 9 0 0 0 0
    SEL 0
    REC 0 5088 1 0 0 0 0 0
    VU 2
    TRACKHEIGHT 0 0 0 0 0 0 0
    INQ 0 0 0 0.5 100 0 0 100
    NCHAN 2
    FX 1
    TRACKID {732981B3-CA4C-4B4A-B9D8-80FB5E698F07}
    PERF 0
    MIDIOUT -1
    MAINSEND 1 0
    <FXCHAIN
      WNDRECT 24 52 700 560
      SHOW 0
      LASTSEL 0
      DOCKED 0
      BYPASS 0 0 0
      <JS "ReapNES Studio/ReapNES_Console.jsfx" ""
        2 15 1 10 80 10 100 2 1 15 1 5 60 10 80 1 1 0 50 0 0 15 1 0 100 0 0 0.500000 0.500000 0.400000 0.300000 0.800000 2 1 0 0 0 0 - - - - - - - - - - - - - - - - - - - - - - - - - -
      >
      FLOATPOS 0 0 0 0
      FXID {07B19633-76C9-4042-AEEB-2C5AA5344495}
      WAK 0 0
    >
    <ITEM
      POSITION 0
      LENGTH 93.5614336
      LOOP 0
      ALLTAKES 0
      FADEIN 0 0 0 0 0 0 0
      FADEOUT 0 0 0 0 0 0 0
      MUTE 0 0
      SEL 0
      IGUID {0125A319-9A94-4AE5-A442-574471548BA1}
      <SOURCE MIDI
        HASDATA 1 480 QN
        CCINTERP 32
        E 0 c2 26
        E 0 b2 0b 7f
        E 0 92 32 7f
        E 112 82 32 00
        E 16 b2 0b 7f
        E 0 92 32 7f
        E 128 82 32 00
        E 160 b2 0b 7f
        E 0 92 32 7f
        E 128 82 32 00
        E 160 b2 0b 7f
        E 0 92 32 7f
        E 128 82 32 00
        E 16 b2 0b 7f
        E 0 92 32 7f
        E 128 82 32 00
        E 160 b2 0b 7f
        E 0 92 43 7f
        E 128 82 43 00
        E 448 b2 0b 7f
        E 0 92 37 7f
        E 128 82 37 00
        E 448 b2 0b 7f
        E 0 92 37 7f
        E 128 82 37 00
        E 304 b2 0b 7f
        E 0 92 34 7f
        E 128 82 34 00
        E 304 b2 0b 7f
        E 0 92 30 7f
        E 128 82 30 00
        E 304 b2 0b 7f
        E 0 92 35 7f
        E 128 82 35 00
        E 160 b2 0b 7f
        E 0 92 37 7f
        E 128 82 37 00
        E 160 b2 0b 7f
        E 0 92 36 7f
        E 128 82 36 00
        E 16 b2 0b 7f
        E 0 92 35 7f
        E 128 82 35 00
        E 160 b2 0b 7f
        E 0 92 34 7f
        E 128 82 34 00
        E 64 b2 0b 7f
        E 0 92 3c 7f
        E 128 82 3c 00
        E 64 b2 0b 7f
        E 0 92 40 7f
        E 128 82 40 00
        E 64 b2 0b 7f
        E 0 92 41 7f
        E 128 82 41 00
        E 160 b2 0b 7f
        E 0 92 3e 7f
        E 128 82 3e 00
        E 16 b2 0b 7f
        E 0 92 40 7f
        E 128 82 40 00
        E 160 b2 0b 7f
        E 0 92 3c 7f
        E 128 82 3c 00
        E 160 b2 0b 7f
        E 0 92 39 7f
        E 128 82 39 00
        E 16 b2 0b 7f
        E 0 92 3b 7f
        E 128 82 3b 00
        E 16 b2 0b 7f
        E 0 92 37 7f
        E 128 82 37 00
        E 304 b2 0b 7f
        E 0 92 37 7f
        E 128 82 37 00
        E 304 b2 0b 7f
        E 0 92 34 7f
        E 128 82 34 00
        E 304 b2 0b 7f
        E 0 92 30 7f
        E 128 82 30 00
        E 304 b2 0b 7f
        E 0 92 35 7f
        E 128 82 35 00
        E 160 b2 0b 7f
        E 0 92 37 7f
        E 128 82 37 00
        E 160 b2 0b 7f
        E 0 92 36 7f
        E 128 82 36 00
        E 16 b2 0b 7f
        E 0 92 35 7f
        E 128 82 35 00
        E 160 b2 0b 7f
        E 0 92 34 7f
        E 128 82 34 00
        E 64 b2 0b 7f
        E 0 92 3c 7f
        E 128 82 3c 00
        E 64 b2 0b 7f
        E 0 92 40 7f
        E 128 82 40 00
        E 64 b2 0b 7f
        E 0 92 41 7f
        E 128 82 41 00
        E 160 b2 0b 7f
        E 0 92 3e 7f
        E 128 82 3e 00
        E 16 b2 0b 7f
        E 0 92 40 7f
        E 128 82 40 00
        E 160 b2 0b 7f
        E 0 92 3c 7f
        E 128 82 3c 00
        E 160 b2 0b 7f
        E 0 92 39 7f
        E 128 82 39 00
        E 16 b2 0b 7f
        E 0 92 3b 7f
        E 128 82 3b 00
        E 16 b2 0b 7f
        E 0 92 37 7f
        E 128 82 37 00
        E 304 b2 0b 7f
        E 0 92 30 7f
        E 128 82 30 00
        E 304 b2 0b 7f
        E 0 92 37 7f
        E 128 82 37 00
        E 304 b2 0b 7f
        E 0 92 3c 7f
        E 128 82 3c 00
        E 160 b2 0b 7f
        E 0 92 35 7f
        E 128 82 35 00
        E 304 b2 0b 7f
        E 0 92 3c 7f
        E 128 82 3c 00
        E 16 b2 0b 7f
        E 0 92 3c 7f
        E 128 82 3c 00
        E 160 b2 0b 7f
        E 0 92 35 7f
        E 128 82 35 00
        E 160 b2 0b 7f
        E 0 92 30 7f
        E 128 82 30 00
        E 304 b2 0b 7f
        E 0 92 34 7f
        E 128 82 34 00
        E 304 b2 0b 7f
        E 0 92 37 7f
        E 128 82 37 00
        E 16 b2 0b 7f
        E 0 92 3c 7f
        E 128 82 3c 00
        E 160 b2 0b 7f
        E 0 92 4f 7f
        E 128 82 4f 00
        E 160 b2 0b 7f
        E 0 92 4f 7f
        E 128 82 4f 00
        E 16 b2 0b 7f
        E 0 92 4f 7f
        E 128 82 4f 00
        E 160 b2 0b 7f
        E 0 92 37 7f
        E 128 82 37 00
        E 160 b2 0b 7f
        E 0 92 30 7f
        E 128 82 30 00
        E 304 b2 0b 7f
        E 0 92 37 7f
        E 128 82 37 00
        E 304 b2 0b 7f
        E 0 92 3c 7f
        E 128 82 3c 00
        E 160 b2 0b 7f
        E 0 92 35 7f
        E 128 82 35 00
        E 304 b2 0b 7f
        E 0 92 3c 7f
        E 128 82 3c 00
        E 16 b2 0b 7f
        E 0 92 3c 7f
        E 128 82 3c 00
        E 160 b2 0b 7f
        E 0 92 35 7f
        E 128 82 35 00
        E 160 b2 0b 7f
        E 0 92 30 7f
        E 128 82 30 00
        E 160 b2 0b 7f
        E 0 92 38 7f
        E 128 82 38 00
        E 304 b2 0b 7f
        E 0 92 3a 7f
        E 128 82 3a 00
        E 304 b2 0b 7f
        E 0 92 3c 7f
        E 128 82 3c 00
        E 304 b2 0b 7f
        E 0 92 37 7f
        E 128 82 37 00
        E 16 b2 0b 7f
        E 0 92 37 7f
        E 128 82 37 00
        E 160 b2 0b 7f
        E 0 92 30 7f
        E 128 82 30 00
        E 160 b2 0b 7f
        E 0 92 30 7f
        E 128 82 30 00
        E 304 b2 0b 7f
        E 0 92 37 7f
        E 128 82 37 00
        E 304 b2 0b 7f
        E 0 92 3c 7f
        E 128 82 3c 00
        E 160 b2 0b 7f
        E 0 92 35 7f
        E 128 82 35 00
        E 304 b2 0b 7f
        E 0 92 3c 7f
        E 128 82 3c 00
        E 16 b2 0b 7f
        E 0 92 3c 7f
        E 128 82 3c 00
        E 160 b2 0b 7f
        E 0 92 35 7f
        E 128 82 35 00
        E 160 b2 0b 7f
        E 0 92 30 7f
        E 128 82 30 00
        E 304 b2 0b 7f
        E 0 92 34 7f
        E 128 82 34 00
        E 304 b2 0b 7f
        E 0 92 37 7f
        E 128 82 37 00
        E 16 b2 0b 7f
        E 0 92 3c 7f
        E 128 82 3c 00
        E 160 b2 0b 7f
        E 0 92 4f 7f
        E 128 82 4f 00
        E 160 b2 0b 7f
        E 0 92 4f 7f
        E 128 82 4f 00
        E 16 b2 0b 7f
        E 0 92 4f 7f
        E 128 82 4f 00
        E 160 b2 0b 7f
        E 0 92 37 7f
        E 128 82 37 00
        E 160 b2 0b 7f
        E 0 92 30 7f
        E 128 82 30 00
        E 304 b2 0b 7f
        E 0 92 37 7f
        E 128 82 37 00
        E 304 b2 0b 7f
        E 0 92 3c 7f
        E 128 82 3c 00
        E 160 b2 0b 7f
        E 0 92 35 7f
        E 128 82 35 00
        E 304 b2 0b 7f
        E 0 92 3c 7f
        E 128 82 3c 00
        E 16 b2 0b 7f
        E 0 92 3c 7f
        E 128 82 3c 00
        E 160 b2 0b 7f
        E 0 92 35 7f
        E 128 82 35 00
        E 160 b2 0b 7f
        E 0 92 30 7f
        E 128 82 30 00
        E 160 b2 0b 7f
        E 0 92 38 7f
        E 128 82 38 00
        E 304 b2 0b 7f
        E 0 92 3a 7f
        E 128 82 3a 00
        E 304 b2 0b 7f
        E 0 92 3c 7f
        E 128 82 3c 00
        E 304 b2 0b 7f
        E 0 92 37 7f
        E 128 82 37 00
        E 16 b2 0b 7f
        E 0 92 37 7f
        E 128 82 37 00
        E 160 b2 0b 7f
        E 0 92 30 7f
        E 128 82 30 00
        E 160 b2 0b 7f
        E 0 92 2c 7f
        E 128 82 2c 00
        E 304 b2 0b 7f
        E 0 92 33 7f
        E 128 82 33 00
        E 304 b2 0b 7f
        E 0 92 38 7f
        E 128 82 38 00
        E 160 b2 0b 7f
        E 0 92 37 7f
        E 128 82 37 00
        E 304 b2 0b 7f
        E 0 92 30 7f
        E 128 82 30 00
        E 304 b2 0b 7f
        E 0 92 2b 7f
        E 128 82 2b 00
        E 160 b2 0b 7f
        E 0 92 2c 7f
        E 128 82 2c 00
        E 304 b2 0b 7f
        E 0 92 33 7f
        E 128 82 33 00
        E 304 b2 0b 7f
        E 0 92 38 7f
        E 128 82 38 00
        E 160 b2 0b 7f
        E 0 92 37 7f
        E 128 82 37 00
        E 304 b2 0b 7f
        E 0 92 30 7f
        E 128 82 30 00
        E 304 b2 0b 7f
        E 0 92 2b 7f
        E 128 82 2b 00
        E 160 b2 0b 7f
        E 0 92 2c 7f
        E 128 82 2c 00
        E 304 b2 0b 7f
        E 0 92 33 7f
        E 128 82 33 00
        E 304 b2 0b 7f
        E 0 92 38 7f
        E 128 82 38 00
        E 160 b2 0b 7f
        E 0 92 37 7f
        E 128 82 37 00
        E 304 b2 0b 7f
        E 0 92 30 7f
        E 128 82 30 00
        E 304 b2 0b 7f
        E 0 92 2b 7f
        E 128 82 2b 00
        E 160 b2 0b 7f
        E 0 92 32 7f
        E 128 82 32 00
        E 16 b2 0b 7f
        E 0 92 32 7f
        E 128 82 32 00
        E 160 b2 0b 7f
        E 0 92 32 7f
        E 128 82 32 00
        E 160 b2 0b 7f
        E 0 92 32 7f
        E 128 82 32 00
        E 16 b2 0b 7f
        E 0 92 32 7f
        E 128 82 32 00
        E 160 b2 0b 7f
        E 0 92 43 7f
        E 128 82 43 00
        E 448 b2 0b 7f
        E 0 92 37 7f
        E 128 82 37 00
        E 448 b2 0b 7f
        E 0 92 37 7f
        E 128 82 37 00
        E 304 b2 0b 7f
        E 0 92 34 7f
        E 128 82 34 00
        E 304 b2 0b 7f
        E 0 92 30 7f
        E 128 82 30 00
        E 304 b2 0b 7f
        E 0 92 35 7f
        E 128 82 35 00
        E 160 b2 0b 7f
        E 0 92 37 7f
        E 128 82 37 00
        E 160 b2 0b 7f
        E 0 92 36 7f
        E 128 82 36 00
        E 16 b2 0b 7f
        E 0 92 35 7f
        E 128 82 35 00
        E 160 b2 0b 7f
        E 0 92 34 7f
        E 128 82 34 00
        E 64 b2 0b 7f
        E 0 92 3c 7f
        E 128 82 3c 00
        E 64 b2 0b 7f
        E 0 92 40 7f
        E 128 82 40 00
        E 64 b2 0b 7f
        E 0 92 41 7f
        E 128 82 41 00
        E 160 b2 0b 7f
        E 0 92 3e 7f
        E 128 82 3e 00
        E 16 b2 0b 7f
        E 0 92 40 7f
        E 128 82 40 00
        E 160 b2 0b 7f
        E 0 92 3c 7f
        E 128 82 3c 00
        E 160 b2 0b 7f
        E 0 92 39 7f
        E 128 82 39 00
        E 16 b2 0b 7f
        E 0 92 3b 7f
        E 128 82 3b 00
        E 16 b2 0b 7f
        E 0 92 37 7f
        E 128 82 37 00
        E 304 b2 0b 7f
        E 0 92 37 7f
        E 128 82 37 00
        E 304 b2 0b 7f
        E 0 92 34 7f
        E 128 82 34 00
        E 304 b2 0b 7f
        E 0 92 30 7f
        E 128 82 30 00
        E 304 b2 0b 7f
        E 0 92 35 7f
        E 128 82 35 00
        E 160 b2 0b 7f
        E 0 92 37 7f
        E 128 82 37 00
        E 160 b2 0b 7f
        E 0 92 36 7f
        E 128 82 36 00
        E 16 b2 0b 7f
        E 0 92 35 7f
        E 128 82 35 00
        E 160 b2 0b 7f
        E 0 92 34 7f
        E 128 82 34 00
        E 64 b2 0b 7f
        E 0 92 3c 7f
        E 128 82 3c 00
        E 64 b2 0b 7f
        E 0 92 40 7f
        E 128 82 40 00
        E 64 b2 0b 7f
        E 0 92 41 7f
        E 128 82 41 00
        E 160 b2 0b 7f
        E 0 92 3e 7f
        E 128 82 3e 00
        E 16 b2 0b 7f
        E 0 92 40 7f
        E 128 82 40 00
        E 160 b2 0b 7f
        E 0 92 3c 7f
        E 128 82 3c 00
        E 160 b2 0b 7f
        E 0 92 39 7f
        E 128 82 39 00
        E 16 b2 0b 7f
        E 0 92 3b 7f
        E 128 82 3b 00
        E 16 b2 0b 7f
        E 0 92 37 7f
        E 128 82 37 00
        E 304 b2 0b 7f
        E 0 92 30 7f
        E 128 82 30 00
        E 304 b2 0b 7f
        E 0 92 36 7f
        E 128 82 36 00
        E 16 b2 0b 7f
        E 0 92 37 7f
        E 128 82 37 00
        E 160 b2 0b 7f
        E 0 92 3c 7f
        E 128 82 3c 00
        E 160 b2 0b 7f
        E 0 92 35 7f
        E 128 82 35 00
        E 160 b2 0b 7f
        E 0 92 35 7f
        E 128 82 35 00
        E 160 b2 0b 7f
        E 0 92 3c 7f
        E 128 82 3c 00
        E 16 b2 0b 7f
        E 0 92 3c 7f
        E 128 82 3c 00
        E 16 b2 0b 7f
        E 0 92 35 7f
        E 128 82 35 00
        E 160 b2 0b 7f
        E 0 92 32 7f
        E 128 82 32 00
        E 304 b2 0b 7f
        E 0 92 35 7f
        E 128 82 35 00
        E 16 b2 0b 7f
        E 0 92 37 7f
        E 128 82 37 00
        E 160 b2 0b 7f
        E 0 92 3b 7f
        E 128 82 3b 00
        E 160 b2 0b 7f
        E 0 92 37 7f
        E 128 82 37 00
        E 160 b2 0b 7f
        E 0 92 37 7f
        E 128 82 37 00
        E 160 b2 0b 7f
        E 0 92 3c 7f
        E 128 82 3c 00
        E 16 b2 0b 7f
        E 0 92 3c 7f
        E 128 82 3c 00
        E 16 b2 0b 7f
        E 0 92 37 7f
        E 128 82 37 00
        E 160 b2 0b 7f
        E 0 92 30 7f
        E 128 82 30 00
        E 304 b2 0b 7f
        E 0 92 36 7f
        E 128 82 36 00
        E 16 b2 0b 7f
        E 0 92 37 7f
        E 128 82 37 00
        E 160 b2 0b 7f
        E 0 92 3c 7f
        E 128 82 3c 00
        E 160 b2 0b 7f
        E 0 92 35 7f
        E 128 82 35 00
        E 160 b2 0b 7f
        E 0 92 35 7f
        E 128 82 35 00
        E 160 b2 0b 7f
        E 0 92 3c 7f
        E 128 82 3c 00
        E 16 b2 0b 7f
        E 0 92 3c 7f
        E 128 82 3c 00
        E 16 b2 0b 7f
        E 0 92 35 7f
        E 128 82 35 00
        E 160 b2 0b 7f
        E 0 92 37 7f
        E 128 82 37 00
        E 304 b2 0b 7f
        E 0 92 37 7f
        E 128 82 37 00
        E 16 b2 0b 7f
        E 0 92 37 7f
        E 128 82 37 00
        E 64 b2 0b 7f
        E 0 92 39 7f
        E 128 82 39 00
        E 64 b2 0b 7f
        E 0 92 3b 7f
        E 128 82 3b 00
        E 64 b2 0b 7f
        E 0 92 3c 7f
        E 128 82 3c 00
        E 160 b2 0b 7f
        E 0 92 37 7f
        E 128 82 37 00
        E 160 b2 0b 7f
        E 0 92 30 7f
        E 128 82 30 00
        E 448 b2 0b 7f
        E 0 92 30 7f
        E 128 82 30 00
        E 304 b2 0b 7f
        E 0 92 36 7f
        E 128 82 36 00
        E 16 b2 0b 7f
        E 0 92 37 7f
        E 128 82 37 00
        E 160 b2 0b 7f
        E 0 92 3c 7f
        E 128 82 3c 00
        E 160 b2 0b 7f
        E 0 92 35 7f
        E 128 82 35 00
        E 160 b2 0b 7f
        E 0 92 35 7f
        E 128 82 35 00
        E 160 b2 0b 7f
        E 0 92 3c 7f
        E 128 82 3c 00
        E 16 b2 0b 7f
        E 0 92 3c 7f
        E 128 82 3c 00
        E 16 b2 0b 7f
        E 0 92 35 7f
        E 128 82 35 00
        E 160 b2 0b 7f
        E 0 92 32 7f
        E 128 82 32 00
        E 304 b2 0b 7f
        E 0 92 35 7f
        E 128 82 35 00
        E 16 b2 0b 7f
        E 0 92 37 7f
        E 128 82 37 00
        E 160 b2 0b 7f
        E 0 92 3b 7f
        E 128 82 3b 00
        E 160 b2 0b 7f
        E 0 92 37 7f
        E 128 82 37 00
        E 160 b2 0b 7f
        E 0 92 37 7f
        E 128 82 37 00
        E 160 b2 0b 7f
        E 0 92 3c 7f
        E 128 82 3c 00
        E 16 b2 0b 7f
        E 0 92 3c 7f
        E 128 82 3c 00
        E 16 b2 0b 7f
        E 0 92 37 7f
        E 128 82 37 00
        E 160 b2 0b 7f
        E 0 92 30 7f
        E 128 82 30 00
        E 304 b2 0b 7f
        E 0 92 36 7f
        E 128 82 36 00
        E 16 b2 0b 7f
        E 0 92 37 7f
        E 128 82 37 00
        E 160 b2 0b 7f
        E 0 92 3c 7f
        E 128 82 3c 00
        E 160 b2 0b 7f
        E 0 92 35 7f
        E 128 82 35 00
        E 160 b2 0b 7f
        E 0 92 35 7f
        E 128 82 35 00
        E 160 b2 0b 7f
        E 0 92 3c 7f
        E 128 82 3c 00
        E 16 b2 0b 7f
        E 0 92 3c 7f
        E 128 82 3c 00
        E 16 b2 0b 7f
        E 0 92 35 7f
        E 128 82 35 00
        E 160 b2 0b 7f
        E 0 92 37 7f
        E 128 82 37 00
        E 304 b2 0b 7f
        E 0 92 37 7f
        E 128 82 37 00
        E 16 b2 0b 7f
        E 0 92 37 7f
        E 128 82 37 00
        E 64 b2 0b 7f
        E 0 92 39 7f
        E 128 82 39 00
        E 64 b2 0b 7f
        E 0 92 3b 7f
        E 128 82 3b 00
        E 64 b2 0b 7f
        E 0 92 3c 7f
        E 128 82 3c 00
        E 160 b2 0b 7f
        E 0 92 37 7f
        E 128 82 37 00
        E 160 b2 0b 7f
        E 0 92 30 7f
        E 128 82 30 00
        E 448 b2 0b 7f
        E 0 92 2c 7f
        E 128 82 2c 00
        E 304 b2 0b 7f
        E 0 92 33 7f
        E 128 82 33 00
        E 304 b2 0b 7f
        E 0 92 38 7f
        E 128 82 38 00
        E 160 b2 0b 7f
        E 0 92 37 7f
        E 128 82 37 00
        E 304 b2 0b 7f
        E 0 92 30 7f
        E 128 82 30 00
        E 304 b2 0b 7f
        E 0 92 2b 7f
        E 128 82 2b 00
        E 160 b2 0b 7f
        E 0 92 2c 7f
        E 128 82 2c 00
        E 304 b2 0b 7f
        E 0 92 33 7f
        E 128 82 33 00
        E 304 b2 0b 7f
        E 0 92 38 7f
        E 128 82 38 00
        E 160 b2 0b 7f
        E 0 92 37 7f
        E 128 82 37 00
        E 304 b2 0b 7f
        E 0 92 30 7f
        E 128 82 30 00
        E 304 b2 0b 7f
        E 0 92 2b 7f
        E 128 82 2b 00
        E 160 b2 0b 7f
        E 0 92 2c 7f
        E 128 82 2c 00
        E 304 b2 0b 7f
        E 0 92 33 7f
        E 128 82 33 00
        E 304 b2 0b 7f
        E 0 92 38 7f
        E 128 82 38 00
        E 160 b2 0b 7f
        E 0 92 37 7f
        E 128 82 37 00
        E 304 b2 0b 7f
        E 0 92 30 7f
        E 128 82 30 00
        E 304 b2 0b 7f
        E 0 92 2b 7f
        E 128 82 2b 00
        E 160 b2 0b 7f
        E 0 92 32 7f
        E 128 82 32 00
        E 16 b2 0b 7f
        E 0 92 32 7f
        E 128 82 32 00
        E 160 b2 0b 7f
        E 0 92 32 7f
        E 128 82 32 00
        E 160 b2 0b 7f
        E 0 92 32 7f
        E 128 82 32 00
        E 16 b2 0b 7f
        E 0 92 32 7f
        E 128 82 32 00
        E 160 b2 0b 7f
        E 0 92 43 7f
        E 128 82 43 00
        E 448 b2 0b 7f
        E 0 92 37 7f
        E 128 82 37 00
        E 448 b2 0b 7f
        E 0 92 30 7f
        E 128 82 30 00
        E 304 b2 0b 7f
        E 0 92 36 7f
        E 128 82 36 00
        E 16 b2 0b 7f
        E 0 92 37 7f
        E 128 82 37 00
        E 160 b2 0b 7f
        E 0 92 3c 7f
        E 128 82 3c 00
        E 160 b2 0b 7f
        E 0 92 35 7f
        E 128 82 35 00
        E 160 b2 0b 7f
        E 0 92 35 7f
        E 128 82 35 00
        E 160 b2 0b 7f
        E 0 92 3c 7f
        E 128 82 3c 00
        E 16 b2 0b 7f
        E 0 92 3c 7f
        E 128 82 3c 00
        E 16 b2 0b 7f
        E 0 92 35 7f
        E 128 82 35 00
        E 160 b2 0b 7f
        E 0 92 32 7f
        E 128 82 32 00
        E 304 b2 0b 7f
        E 0 92 35 7f
        E 128 82 35 00
        E 16 b2 0b 7f
        E 0 92 37 7f
        E 128 82 37 00
        E 160 b2 0b 7f
        E 0 92 3b 7f
        E 128 82 3b 00
        E 160 b2 0b 7f
        E 0 92 37 7f
        E 128 82 37 00
        E 160 b2 0b 7f
        E 0 92 37 7f
        E 128 82 37 00
        E 160 b2 0b 7f
        E 0 92 3c 7f
        E 128 82 3c 00
        E 16 b2 0b 7f
        E 0 92 3c 7f
        E 128 82 3c 00
        E 16 b2 0b 7f
        E 0 92 37 7f
        E 128 82 37 00
        E 160 b2 0b 7f
        E 0 92 30 7f
        E 128 82 30 00
        E 304 b2 0b 7f
        E 0 92 36 7f
        E 128 82 36 00
        E 16 b2 0b 7f
        E 0 92 37 7f
        E 128 82 37 00
        E 160 b2 0b 7f
        E 0 92 3c 7f
        E 128 82 3c 00
        E 160 b2 0b 7f
        E 0 92 35 7f
        E 128 82 35 00
        E 160 b2 0b 7f
        E 0 92 35 7f
        E 128 82 35 00
        E 160 b2 0b 7f
        E 0 92 3c 7f
        E 128 82 3c 00
        E 16 b2 0b 7f
        E 0 92 3c 7f
        E 128 82 3c 00
        E 16 b2 0b 7f
        E 0 92 35 7f
        E 128 82 35 00
        E 160 b2 0b 7f
        E 0 92 37 7f
        E 128 82 37 00
        E 304 b2 0b 7f
        E 0 92 37 7f
        E 128 82 37 00
        E 16 b2 0b 7f
        E 0 92 37 7f
        E 128 82 37 00
        E 64 b2 0b 7f
        E 0 92 39 7f
        E 128 82 39 00
        E 64 b2 0b 7f
        E 0 92 3b 7f
        E 128 82 3b 00
        E 64 b2 0b 7f
        E 0 92 3c 7f
        E 128 82 3c 00
        E 160 b2 0b 7f
        E 0 92 37 7f
        E 128 82 37 00
        E 160 b2 0b 7f
        E 0 92 30 7f
        E 128 82 30 00
        E 448 b2 0b 7f
        E 0 92 37 7f
        E 128 82 37 00
        E 304 b2 0b 7f
        E 0 92 34 7f
        E 128 82 34 00
        E 304 b2 0b 7f
        E 0 92 30 7f
        E 128 82 30 00
        E 304 b2 0b 7f
        E 0 92 35 7f
        E 128 82 35 00
        E 160 b2 0b 7f
        E 0 92 37 7f
        E 128 82 37 00
        E 160 b2 0b 7f
        E 0 92 36 7f
        E 128 82 36 00
        E 16 b2 0b 7f
        E 0 92 35 7f
        E 128 82 35 00
        E 160 b2 0b 7f
        E 0 92 34 7f
        E 128 82 34 00
        E 64 b2 0b 7f
        E 0 92 3c 7f
        E 128 82 3c 00
        E 64 b2 0b 7f
        E 0 92 40 7f
        E 128 82 40 00
        E 64 b2 0b 7f
        E 0 92 41 7f
        E 128 82 41 00
        E 160 b2 0b 7f
        E 0 92 3e 7f
        E 128 82 3e 00
        E 16 b2 0b 7f
        E 0 92 40 7f
        E 128 82 40 00
        E 160 b2 0b 7f
        E 0 92 3c 7f
        E 128 82 3c 00
        E 160 b2 0b 7f
        E 0 92 39 7f
        E 128 82 39 00
        E 16 b2 0b 7f
        E 0 92 3b 7f
        E 128 82 3b 00
        E 16 b2 0b 7f
        E 0 92 37 7f
        E 128 82 37 00
        E 304 b2 0b 7f
        E 0 92 37 7f
        E 128 82 37 00
        E 304 b2 0b 7f
        E 0 92 34 7f
        E 128 82 34 00
        E 304 b2 0b 7f
        E 0 92 30 7f
        E 128 82 30 00
        E 304 b2 0b 7f
        E 0 92 35 7f
        E 128 82 35 00
        E 160 b2 0b 7f
        E 0 92 37 7f
        E 128 82 37 00
        E 160 b2 0b 7f
        E 0 92 36 7f
        E 128 82 36 00
        E 16 b2 0b 7f
        E 0 92 35 7f
        E 128 82 35 00
        E 160 b2 0b 7f
        E 0 92 34 7f
        E 128 82 34 00
        E 64 b2 0b 7f
        E 0 92 3c 7f
        E 128 82 3c 00
        E 64 b2 0b 7f
        E 0 92 40 7f
        E 128 82 40 00
        E 64 b2 0b 7f
        E 0 92 41 7f
        E 128 82 41 00
        E 160 b2 0b 7f
        E 0 92 3e 7f
        E 128 82 3e 00
        E 16 b2 0b 7f
        E 0 92 40 7f
        E 128 82 40 00
        E 160 b2 0b 7f
        E 0 92 3c 7f
        E 128 82 3c 00
        E 160 b2 0b 7f
        E 0 92 39 7f
        E 128 82 39 00
        E 16 b2 0b 7f
        E 0 92 3b 7f
        E 128 82 3b 00
        E 16 b2 0b 7f
        E 0 92 37 7f
        E 128 82 37 00
        E 304 b2 0b 7f
        E 0 92 30 7f
        E 128 82 30 00
        E 304 b2 0b 7f
        E 0 92 37 7f
        E 128 82 37 00
        E 304 b2 0b 7f
        E 0 92 3c 7f
        E 128 82 3c 00
        E 160 b2 0b 7f
        E 0 92 35 7f
        E 128 82 35 00
        E 304 b2 0b 7f
        E 0 92 3c 7f
        E 128 82 3c 00
        E 16 b2 0b 7f
        E 0 92 3c 7f
        E 80 82 3c 00
        E 0 ff 2f 00
      >
    >
  >
  <TRACK {0B367D58-A702-4CC5-A0D2-574E67FCA4B9}
    NAME "NES - Noise / Drums [ch3]"
    PEAKCOL 11184810
    BEAT -1
    AUTOMODE 0
    PANLAWFLAGS 3
    VOLPAN 1 0 -1 -1 1
    MUTESOLO 0 0 0
    IPHASE 0
    PLAYOFFS 0 1
    ISBUS 0 0
    BUSCOMP 0 0 0 0 0
    SHOWINMIX 1 0.6667 0.5 1 0.5 0 0 0
    FIXEDLANES 9 0 0 0 0
    SEL 0
    REC 0 5088 1 0 0 0 0 0
    VU 2
    TRACKHEIGHT 0 0 0 0 0 0 0
    INQ 0 0 0 0.5 100 0 0 100
    NCHAN 2
    FX 1
    TRACKID {0B367D58-A702-4CC5-A0D2-574E67FCA4B9}
    PERF 0
    MIDIOUT -1
    MAINSEND 1 0
    <FXCHAIN
      WNDRECT 24 52 700 560
      SHOW 0
      LASTSEL 0
      DOCKED 0
      BYPASS 0 0 0
      <JS "ReapNES Studio/ReapNES_Console.jsfx" ""
        2 15 1 10 80 10 100 2 1 15 1 5 60 10 80 1 1 0 50 0 0 15 1 0 100 0 0 0.500000 0.500000 0.400000 0.300000 0.800000 3 1 0 0 0 0 - - - - - - - - - - - - - - - - - - - - - - - - - -
      >
      FLOATPOS 0 0 0 0
      FXID {46B18362-43E2-48F1-81B3-8BCC78F1134D}
      WAK 0 0
    >
    <ITEM
      POSITION 0
      LENGTH 93.5614336
      LOOP 0
      ALLTAKES 0
      FADEIN 0 0 0 0 0 0 0
      FADEOUT 0 0 0 0 0 0 0
      MUTE 0 0
      SEL 0
      IGUID {22DAEEA9-1D9F-4C18-8DF5-8F7746DCF494}
      <SOURCE MIDI
        HASDATA 1 480 QN
        CCINTERP 32
        E 0 93 2a 66
        E 2288 83 2a 00
        E 0 93 2d 66
        E 288 83 2d 00
        E 0 93 2a 66
        E 96 83 2a 00
        E 96 93 2a 66
        E 480 83 2a 00
        E 96 93 2a 66
        E 96 83 2a 00
        E 0 93 2d 66
        E 288 83 2d 00
        E 0 93 2a 66
        E 96 83 2a 00
        E 96 93 2a 66
        E 480 83 2a 00
        E 96 93 2a 66
        E 96 83 2a 00
        E 0 93 2d 66
        E 288 83 2d 00
        E 0 93 2a 66
        E 96 83 2a 00
        E 96 93 2a 66
        E 480 83 2a 00
        E 96 93 2a 66
        E 96 83 2a 00
        E 0 93 2d 66
        E 288 83 2d 00
        E 0 93 2a 66
        E 96 83 2a 00
        E 96 93 2a 66
        E 480 83 2a 00
        E 96 93 2a 66
        E 96 83 2a 00
        E 0 93 2d 66
        E 288 83 2d 00
        E 0 93 2a 66
        E 96 83 2a 00
        E 96 93 2a 66
        E 480 83 2a 00
        E 96 93 2a 66
        E 96 83 2a 00
        E 0 93 2d 66
        E 288 83 2d 00
        E 0 93 2a 66
        E 96 83 2a 00
        E 96 93 2a 66
        E 480 83 2a 00
        E 96 93 2a 66
        E 96 83 2a 00
        E 0 93 2d 66
        E 288 83 2d 00
        E 0 93 2a 66
        E 96 83 2a 00
        E 96 93 2a 66
        E 480 83 2a 00
        E 96 93 2a 66
        E 96 83 2a 00
        E 0 93 2d 66
        E 288 83 2d 00
        E 0 93 2a 66
        E 96 83 2a 00
        E 96 93 2a 66
        E 480 83 2a 00
        E 96 93 2a 66
        E 96 83 2a 00
        E 0 93 2d 66
        E 288 83 2d 00
        E 0 93 2a 66
        E 96 83 2a 00
        E 96 93 2a 66
        E 480 83 2a 00
        E 96 93 2a 66
        E 96 83 2a 00
        E 0 93 2d 66
        E 288 83 2d 00
        E 0 93 2a 66
        E 96 83 2a 00
        E 96 93 2a 66
        E 480 83 2a 00
        E 96 93 2a 66
        E 96 83 2a 00
        E 0 93 2d 66
        E 288 83 2d 00
        E 0 93 2a 66
        E 96 83 2a 00
        E 96 93 2a 66
        E 480 83 2a 00
        E 96 93 2a 66
        E 96 83 2a 00
        E 0 93 2d 66
        E 288 83 2d 00
        E 0 93 2a 66
        E 96 83 2a 00
        E 96 93 2a 66
        E 480 83 2a 00
        E 96 93 2a 66
        E 96 83 2a 00
        E 0 93 2d 66
        E 288 83 2d 00
        E 0 93 2a 66
        E 96 83 2a 00
        E 96 93 2a 66
        E 480 83 2a 00
        E 96 93 2a 66
        E 96 83 2a 00
        E 0 93 2d 66
        E 288 83 2d 00
        E 0 93 2a 66
        E 96 83 2a 00
        E 96 93 2a 66
        E 480 83 2a 00
        E 96 93 2a 66
        E 96 83 2a 00
        E 0 93 2d 66
        E 288 83 2d 00
        E 0 93 2a 66
        E 96 83 2a 00
        E 96 93 2a 66
        E 480 83 2a 00
        E 96 93 2a 66
        E 96 83 2a 00
        E 0 93 2d 66
        E 288 83 2d 00
        E 0 93 2a 66
        E 96 83 2a 00
        E 96 93 2a 66
        E 480 83 2a 00
        E 96 93 2a 66
        E 96 83 2a 00
        E 0 93 2d 66
        E 288 83 2d 00
        E 0 93 2a 66
        E 96 83 2a 00
        E 96 93 2a 66
        E 480 83 2a 00
        E 96 93 2a 66
        E 96 83 2a 00
        E 0 93 2d 66
        E 288 83 2d 00
        E 0 93 2a 66
        E 96 83 2a 00
        E 96 93 2a 66
        E 480 83 2a 00
        E 96 93 2a 66
        E 96 83 2a 00
        E 0 93 2d 66
        E 288 83 2d 00
        E 0 93 2a 66
        E 96 83 2a 00
        E 96 93 2a 66
        E 480 83 2a 00
        E 96 93 2a 66
        E 96 83 2a 00
        E 0 93 2d 66
        E 288 83 2d 00
        E 0 93 2a 66
        E 96 83 2a 00
        E 96 93 2a 66
        E 480 83 2a 00
        E 96 93 2a 66
        E 96 83 2a 00
        E 0 93 2d 66
        E 288 83 2d 00
        E 0 93 2a 66
        E 96 83 2a 00
        E 96 93 2a 66
        E 480 83 2a 00
        E 96 93 2a 66
        E 96 83 2a 00
        E 0 93 2d 66
        E 288 83 2d 00
        E 0 93 2a 66
        E 96 83 2a 00
        E 96 93 2a 66
        E 480 83 2a 00
        E 96 93 2a 66
        E 96 83 2a 00
        E 0 93 2d 66
        E 288 83 2d 00
        E 0 93 2a 66
        E 96 83 2a 00
        E 96 93 2a 66
        E 480 83 2a 00
        E 96 93 2a 66
        E 96 83 2a 00
        E 0 93 2d 66
        E 288 83 2d 00
        E 0 93 2a 66
        E 96 83 2a 00
        E 96 93 2a 66
        E 480 83 2a 00
        E 96 93 2a 66
        E 9312 83 2a 00
        E 0 93 2d 66
        E 288 83 2d 00
        E 0 93 2a 66
        E 96 83 2a 00
        E 96 93 2a 66
        E 480 83 2a 00
        E 96 93 2a 66
        E 96 83 2a 00
        E 0 93 2d 66
        E 288 83 2d 00
        E 0 93 2a 66
        E 96 83 2a 00
        E 96 93 2a 66
        E 480 83 2a 00
        E 96 93 2a 66
        E 96 83 2a 00
        E 0 93 2d 66
        E 288 83 2d 00
        E 0 93 2a 66
        E 96 83 2a 00
        E 96 93 2a 66
        E 480 83 2a 00
        E 96 93 2a 66
        E 96 83 2a 00
        E 0 93 2d 66
        E 288 83 2d 00
        E 0 93 2a 66
        E 96 83 2a 00
        E 96 93 2a 66
        E 480 83 2a 00
        E 96 93 2a 66
        E 96 83 2a 00
        E 0 93 2d 66
        E 288 83 2d 00
        E 0 93 2a 66
        E 96 83 2a 00
        E 96 93 2a 66
        E 480 83 2a 00
        E 96 93 2a 66
        E 96 83 2a 00
        E 0 93 2d 66
        E 288 83 2d 00
        E 0 93 2a 66
        E 96 83 2a 00
        E 96 93 2a 66
        E 480 83 2a 00
        E 96 93 2a 66
        E 96 83 2a 00
        E 0 93 2d 66
        E 288 83 2d 00
        E 0 93 2a 66
        E 96 83 2a 00
        E 96 93 2a 66
        E 480 83 2a 00
        E 96 93 2a 66
        E 96 83 2a 00
        E 0 93 2d 66
        E 288 83 2d 00
        E 0 93 2a 66
        E 96 83 2a 00
        E 96 93 2a 66
        E 480 83 2a 00
        E 96 93 2a 66
        E 36960 83 2a 00
        E 0 93 2d 66
        E 288 83 2d 00
        E 0 93 2a 66
        E 96 83 2a 00
        E 96 93 2a 66
        E 480 83 2a 00
        E 96 93 2a 66
        E 96 83 2a 00
        E 0 93 2d 66
        E 288 83 2d 00
        E 0 93 2a 66
        E 96 83 2a 00
        E 96 93 2a 66
        E 480 83 2a 00
        E 96 93 2a 66
        E 96 83 2a 00
        E 0 93 2d 66
        E 288 83 2d 00
        E 0 93 2a 66
        E 96 83 2a 00
        E 96 93 2a 66
        E 480 83 2a 00
        E 96 93 2a 66
        E 96 83 2a 00
        E 0 93 2d 66
        E 288 83 2d 00
        E 0 93 2a 66
        E 96 83 2a 00
        E 96 93 2a 66
        E 480 83 2a 00
        E 96 93 2a 66
        E 96 83 2a 00
        E 0 93 2d 66
        E 288 83 2d 00
        E 0 93 2a 66
        E 96 83 2a 00
        E 96 93 2a 66
        E 480 83 2a 00
        E 96 93 2a 66
        E 96 83 2a 00
        E 0 93 2d 66
        E 288 83 2d 00
        E 0 93 2a 66
        E 96 83 2a 00
        E 96 93 2a 66
        E 480 83 2a 00
        E 96 93 2a 66
        E 96 83 2a 00
        E 0 93 2d 66
        E 288 83 2d 00
        E 0 93 2a 66
        E 96 83 2a 00
        E 96 93 2a 66
        E 480 83 2a 00
        E 96 93 2a 66
        E 96 83 2a 00
        E 0 93 2d 66
        E 288 83 2d 00
        E 0 93 2a 66
        E 96 83 2a 00
        E 96 93 2a 66
        E 480 83 2a 00
        E 96 93 2a 66
        E 96 83 2a 00
        E 0 93 2d 66
        E 288 83 2d 00
        E 0 93 2a 66
        E 96 83 2a 00
        E 96 93 2a 66
        E 480 83 2a 00
        E 96 93 2a 66
        E 96 83 2a 00
        E 0 93 2d 66
        E 288 83 2d 00
        E 0 93 2a 66
        E 96 83 2a 00
        E 96 93 2a 66
        E 176 83 2a 00
        E 0 ff 2f 00
      >
    >
  >
>