<REAPER_PROJECT 0.1 "7.27/win64" 1707000000
  <NOTES 0 2
    |ReapNES Studio Project
    |MIDI Import - Super_Mario_Bros._01_Overworld_mesen_v2
  >
  RIPPLE 0
  GROUPOVERRIDE 0 0 0
  AUTOXFADE 129
  ENVATTACH 3
  POOLEDENVATTACH 0
  MIXERUIFLAGS 11 48
  ENVFADESZ10 40
  PEAKGAIN 1
  FEEDBACK 0
  PANLAW 1
  PROJOFFS 0 0 0
  MAXPROJLEN 0 0
  GRID 3199 8 1 8 1 0 0 0
  TIMEMODE 1 5 -1 30 0 0 -1
  VIDEO_CONFIG 0 0 65792
  PANMODE 3
  PANLAWFLAGS 3
  CURSOR 0
  ZOOM 100 0 0
  VZOOMEX 6 0
  USE_REC_CFG 0
  RECMODE 1
  SMPTESYNC 0 30 100 40 1000 300 0 0 1 0 0
  LOOP 0
  LOOPGRAN 0 4
  RECORD_PATH "Media" ""
  <RECORD_CFG
    ZXZhdxgAAQ==
  >
  <APPLYFX_CFG
  >
  RENDER_FILE ""
  RENDER_PATTERN ""
  RENDER_FMT 0 2 0
  RENDER_1X 0
  RENDER_RANGE 1 0 0 18 1000
  RENDER_RESAMPLE 3 0 1
  RENDER_ADDTOPROJ 0
  RENDER_STEMS 0
  RENDER_DITHER 0
  TIMELOCKMODE 1
  TEMPOENVLOCKMODE 1
  ITEMMIX 1
  DEFPITCHMODE 589824 0
  TAKELANE 1
  SAMPLERATE 44100 0 0
  <RENDER_CFG
    ZXZhdxgAAQ==
  >
  LOCK 1
  <METRONOME 6 2
    VOL 0.25 0.125
    BEATLEN 4
    FREQ 1760 880 1
    SAMPLES "" ""
    SPLIGNORE 0 0
    SPLDEF 2 660 "" 0
    SPLDEF 3 440 "" 0
    PATTERN 0 169
    PATTERNSTR ABBB
    MULT 1
  >
  GLOBAL_AUTO -1
  TEMPO 128.59999614200012 4 4
  PLAYRATE 1 0 0.25 4
  SELECTION 0 0
  SELECTION2 0 0
  MASTERAUTOMODE 0
  MASTERTRACKHEIGHT 0 0
  MASTERPEAKCOL 16576
  MASTERMUTESOLO 0
  MASTERTRACKVIEW 0 0.6667 0.5 0.5 0 0 0 0 0 0 0 0 0 0
  MASTERHWOUT 0 0 1 0 0 0 0 -1
  MASTER_NCH 2 2
  MASTER_VOLUME 1 0 -1 -1 1
  MASTER_PANMODE 3
  MASTER_PANLAWFLAGS 3
  MASTER_FX 1
  MASTER_SEL 0
  <MASTERPLAYSPEEDENV
    EGUID {C703EC95-626D-4ADC-8E3D-03FF95DF2550}
    ACT 0 -1
    VIS 0 1 1
    LANEHEIGHT 0 0
    ARM 0
    DEFSHAPE 0 -1 -1
  >
  <TEMPOENVEX
    EGUID {EAA557EC-B591-4D55-B81C-7D8387BADC27}
    ACT 1 -1
    VIS 1 0 1
    LANEHEIGHT 0 0
    ARM 0
    DEFSHAPE 1 -1 -1
  >
  <PROJBAY
  >
  <TRACK {950153E5-B85E-4840-869E-3A85F3370867}
    NAME "NES - Pulse 1 [ch0]"
    PEAKCOL 16576606
    BEAT -1
    AUTOMODE 0
    PANLAWFLAGS 3
    VOLPAN 1 0 -1 -1 1
    MUTESOLO 0 0 0
    IPHASE 0
    PLAYOFFS 0 1
    ISBUS 0 0
    BUSCOMP 0 0 0 0 0
    SHOWINMIX 1 0.6667 0.5 1 0.5 0 0 0
    FIXEDLANES 9 0 0 0 0
    SEL 1
    REC 1 5088 1 0 0 0 0 0
    VU 2
    TRACKHEIGHT 0 0 0 0 0 0 0
    INQ 0 0 0 0.5 100 0 0 100
    NCHAN 2
    FX 1
    TRACKID {950153E5-B85E-4840-869E-3A85F3370867}
    PERF 0
    MIDIOUT -1
    MAINSEND 1 0
    <FXCHAIN
      WNDRECT 24 52 700 560
      SHOW 0
      LASTSEL 0
      DOCKED 0
      BYPASS 0 0 0
      <JS "ReapNES Studio/ReapNES_Console.jsfx" ""
        2 15 1 10 80 10 100 2 1 15 1 5 60 10 80 1 1 0 50 0 0 15 1 0 100 0 0 0.500000 0.500000 0.400000 0.300000 0.800000 0 1 0 0 0 0 - - - - - - - - - - - - - - - - - - - - - - - - - -
      >
      FLOATPOS 0 0 0 0
      FXID {960EB1C0-99B2-44B2-962D-06D4535305D6}
      WAK 0 0
    >
    <ITEM
      POSITION 0
      LENGTH 145.59876020000002
      LOOP 0
      ALLTAKES 0
      FADEIN 0 0 0 0 0 0 0
      FADEOUT 0 0 0 0 0 0 0
      MUTE 0 0
      SEL 0
      IGUID {D4F5BFD5-01C9-42FC-89CA-DE0C5BC14804}
      <SOURCE MIDI
        HASDATA 1 480 QN
        CCINTERP 32
        E 0 c0 50
        E 0 b0 0c 40
        E 0 b0 0b 66
        E 0 90 3f 66
        E 16 80 3f 00
        E 0 90 3b 66
        E 16 80 3b 00
        E 0 90 39 66
        E 16 80 39 00
        E 0 90 35 66
        E 16 80 35 00
        E 0 90 31 66
        E 16 80 31 00
        E 0 90 2f 66
        E 16 80 2f 00
        E 0 90 2b 66
        E 16 80 2b 00
        E 0 90 29 66
        E 16 80 29 00
        E 0 90 25 66
        E 16 80 25 00
        E 112 90 41 66
        E 16 80 41 00
        E 0 90 3f 66
        E 16 80 3f 00
        E 0 90 3b 66
        E 16 80 3b 00
        E 0 90 37 66
        E 16 80 37 00
        E 0 90 35 66
        E 16 80 35 00
        E 0 90 31 66
        E 16 80 31 00
        E 0 90 2f 66
        E 16 80 2f 00
        E 0 90 2b 66
        E 16 80 2b 00
        E 0 90 27 66
        E 16 80 27 00
        E 1536 b0 0c 10
        E 0 b0 0b 22
        E 0 90 34 22
        E 16 b0 0b 19
        E 32 b0 0b 11
        E 32 b0 0b 08
        E 32 80 34 00
        E 32 b0 0b 19
        E 0 90 34 19
        E 16 b0 0b 11
        E 32 b0 0b 08
        E 32 80 34 00
        E 48 b0 0b 11
        E 0 90 34 11
        E 48 b0 0b 08
        E 64 80 34 00
        E 16 90 34 08
        E 64 80 34 00
        E 80 b0 0b 22
        E 0 90 34 22
        E 16 b0 0b 19
        E 32 b0 0b 11
        E 32 b0 0b 08
        E 32 80 34 00
        E 16 b0 0b 19
        E 0 90 34 19
        E 16 b0 0b 11
        E 32 b0 0b 08
        E 32 80 34 00
        E 64 b0 0b 11
        E 0 90 34 11
        E 48 b0 0b 08
        E 64 80 34 00
        E 16 90 34 08
        E 80 80 34 00
        E 48 b0 0b 22
        E 0 90 34 22
        E 16 b0 0b 19
        E 32 b0 0b 11
        E 16 b0 0b 08
        E 32 80 34 00
        E 48 b0 0b 19
        E 0 90 34 19
        E 16 b0 0b 11
        E 32 b0 0b 08
        E 32 80 34 00
        E 48 b0 0b 11
        E 0 90 34 11
        E 48 b0 0b 08
        E 64 80 34 00
        E 32 90 34 08
        E 80 80 34 00
        E 48 b0 0b 22
        E 0 90 34 22
        E 16 b0 0b 19
        E 32 b0 0b 11
        E 32 b0 0b 08
        E 32 80 34 00
        E 16 b0 0b 19
        E 0 90 34 19
        E 16 b0 0b 11
        E 32 b0 0b 08
        E 32 80 34 00
        E 64 b0 0b 11
        E 0 90 34 11
        E 48 b0 0b 08
        E 64 80 34 00
        E 16 90 34 08
        E 80 80 34 00
        E 48 b0 0b 22
        E 0 90 34 22
        E 16 b0 0b 19
        E 16 b0 0b 11
        E 32 b0 0b 08
        E 32 80 34 00
        E 48 b0 0b 19
        E 0 90 34 19
        E 16 b0 0b 11
        E 32 b0 0b 08
        E 32 80 34 00
        E 48 b0 0b 11
        E 0 90 34 11
        E 48 b0 0b 08
        E 48 80 34 00
        E 48 90 34 08
        E 80 80 34 00
        E 48 b0 0b 22
        E 0 90 34 22
        E 16 b0 0b 19
        E 32 b0 0b 11
        E 32 b0 0b 08
        E 32 80 34 00
        E 16 b0 0b 19
        E 0 90 34 19
        E 16 b0 0b 11
        E 16 b0 0b 08
        E 32 80 34 00
        E 80 b0 0b 11
        E 0 90 34 11
        E 48 b0 0b 08
        E 64 80 34 00
        E 16 90 34 08
        E 80 80 34 00
        E 64 b0 0b 22
        E 0 90 34 22
        E 16 b0 0b 19
        E 32 b0 0b 11
        E 32 b0 0b 08
        E 32 80 34 00
        E 16 b0 0b 19
        E 0 90 34 19
        E 16 b0 0b 11
        E 32 b0 0b 08
        E 32 80 34 00
        E 48 b0 0b 11
        E 0 90 34 11
        E 32 b0 0b 08
        E 64 80 34 00
        E 48 90 34 08
        E 80 80 34 00
        E 48 b0 0b 22
        E 0 90 34 22
        E 16 b0 0b 19
        E 32 b0 0b 11
        E 32 b0 0b 08
        E 32 80 34 00
        E 32 b0 0b 19
        E 0 90 34 19
        E 16 b0 0b 11
        E 32 b0 0b 08
        E 32 80 34 00
        E 48 b0 0b 11
        E 0 90 34 11
        E 48 b0 0b 08
        E 64 80 34 00
        E 16 90 34 08
        E 64 80 34 00
        E 80 b0 0c 40
        E 0 b0 0b 3b
        E 0 90 28 3b
        E 16 b0 0b 33
        E 32 b0 0b 2a
        E 32 b0 0b 22
        E 32 b0 0b 19
        E 16 b0 0b 22
        E 16 b0 0b 19
        E 32 b0 0b 11
        E 32 b0 0b 08
        E 32 80 28 00
        E 32 b0 0b 11
        E 0 90 28 11
        E 48 b0 0b 08
        E 64 80 28 00
        E 16 90 28 08
        E 80 80 28 00
        E 48 b0 0b 3b
        E 0 90 28 3b
        E 16 b0 0b 33
        E 32 b0 0b 2a
        E 16 b0 0b 22
        E 32 b0 0b 19
        E 32 b0 0b 11
        E 16 b0 0b 3b
        E 0 80 28 00
        E 0 90 26 3b
        E 16 b0 0b 33
        E 32 b0 0b 2a
        E 32 b0 0b 22
        E 32 b0 0b 19
        E 16 b0 0b 22
        E 16 b0 0b 19
        E 32 b0 0b 11
        E 32 b0 0b 08
        E 32 80 26 00
        E 32 b0 0b 11
        E 0 90 26 11
        E 48 b0 0b 08
        E 64 80 26 00
        E 16 b0 0b 5d
        E 0 90 28 5d
        E 16 b0 0b 55
        E 32 b0 0b 4c
        E 32 b0 0b 44
        E 32 b0 0b 3b
        E 32 b0 0b 33
        E 32 b0 0b 2a
        E 16 b0 0b 22
        E 32 b0 0b 19
        E 32 b0 0b 11
        E 16 80 28 00
        E 0 90 33 11
        E 144 b0 0b 19
        E 144 b0 0b 22
        E 64 80 33 00
        E 0 90 34 22
        E 96 b0 0b 2a
        E 160 b0 0b 33
        E 144 b0 0b 3b
        E 48 b0 0c 60
        E 0 b0 0b 33
        E 0 80 34 00
        E 0 90 2d 33
        E 128 80 2d 00
        E 0 90 37 33
        E 16 b0 0b 2a
        E 16 b0 0b 22
        E 32 b0 0b 19
        E 32 b0 0b 11
        E 32 b0 0b 08
        E 16 b0 0b 33
        E 16 b0 0b 2a
        E 32 b0 0b 22
        E 32 b0 0b 19
        E 32 b0 0b 11
        E 16 b0 0b 33
        E 0 80 37 00
        E 0 90 2d 33
        E 16 b0 0b 2a
        E 32 b0 0b 22
        E 32 b0 0b 19
        E 16 b0 0b 11
        E 32 b0 0b 08
        E 16 b0 0b 33
        E 0 80 2d 00
        E 0 90 34 33
        E 16 b0 0b 2a
        E 32 b0 0b 22
        E 32 b0 0b 19
        E 32 b0 0b 11
        E 16 b0 0b 33
        E 0 80 34 00
        E 0 90 2d 33
        E 16 b0 0b 2a
        E 32 b0 0b 22
        E 32 b0 0b 19
        E 32 b0 0b 11
        E 16 b0 0b 33
        E 0 80 2d 00
        E 0 90 34 33
        E 16 b0 0b 2a
        E 16 b0 0b 22
        E 32 b0 0b 19
        E 32 b0 0b 11
        E 32 b0 0b 08
        E 16 b0 0b 33
        E 16 b0 0b 2a
        E 32 b0 0b 22
        E 32 b0 0b 19
        E 32 b0 0b 11
        E 16 b0 0b 33
        E 0 80 34 00
        E 0 90 2d 33
        E 16 b0 0b 2a
        E 32 b0 0b 22
        E 32 b0 0b 19
        E 16 b0 0b 11
        E 32 b0 0b 08
        E 16 b0 0b 33
        E 0 80 2d 00
        E 0 90 37 33
        E 16 b0 0b 2a
        E 32 b0 0b 22
        E 32 b0 0b 19
        E 32 b0 0b 11
        E 16 b0 0b 33
        E 16 b0 0b 2a
        E 32 b0 0b 22
        E 32 b0 0b 19
        E 32 b0 0b 11
        E 16 b0 0b 33
        E 0 80 37 00
        E 0 90 2d 33
        E 16 b0 0b 2a
        E 32 b0 0b 22
        E 16 b0 0b 19
        E 32 b0 0b 11
        E 32 b0 0b 08
        E 16 b0 0b 33
        E 0 80 2d 00
        E 0 90 34 33
        E 16 b0 0b 2a
        E 32 b0 0b 22
        E 32 b0 0b 19
        E 32 b0 0b 11
        E 16 b0 0b 33
        E 0 80 34 00
        E 0 90 2d 33
        E 16 b0 0b 2a
        E 32 b0 0b 22
        E 32 b0 0b 19
        E 32 b0 0b 11
        E 16 b0 0b 08
        E 16 b0 0b 33
        E 0 80 2d 00
        E 0 90 34 33
        E 16 b0 0b 2a
        E 32 b0 0b 22
        E 32 b0 0b 19
        E 32 b0 0b 11
        E 16 b0 0b 33
        E 16 b0 0b 2a
        E 32 b0 0b 22
        E 32 b0 0b 19
        E 32 b0 0b 11
        E 16 b0 0c 20
        E 0 b0 0b 3b
        E 0 80 34 00
        E 0 90 23 3b
        E 16 b0 0b 33
        E 32 b0 0b 2a
        E 16 b0 0b 22
        E 32 b0 0b 19
        E 32 b0 0b 11
        E 32 b0 0b 08
        E 32 80 23 00
        E 80 b0 0b 3b
        E 0 90 23 3b
        E 16 b0 0b 33
        E 32 b0 0b 2a
        E 32 b0 0b 22
        E 32 b0 0b 19
        E 16 b0 0b 11
        E 32 b0 0b 08
        E 32 80 23 00
        E 80 b0 0b 3b
        E 0 90 23 3b
        E 16 b0 0b 33
        E 32 b0 0b 2a
        E 32 b0 0b 22
        E 32 b0 0b 19
        E 16 b0 0b 3b
        E 0 80 23 00
        E 0 90 21 3b
        E 48 b0 0b 33
        E 48 b0 0b 2a
        E 64 b0 0b 22
        E 64 b0 0b 19
        E 48 b0 0b 3b
        E 0 80 21 00
        E 0 90 23 3b
        E 16 b0 0b 33
        E 32 b0 0b 2a
        E 32 b0 0b 22
        E 32 b0 0b 19
        E 16 b0 0b 11
        E 32 b0 0b 08
        E 32 80 23 00
        E 80 b0 0b 3b
        E 0 90 23 3b
        E 16 b0 0b 33
        E 32 b0 0b 2a
        E 32 b0 0b 22
        E 32 b0 0b 19
        E 16 b0 0b 3b
        E 16 b0 0b 33
        E 32 b0 0b 2a
        E 32 b0 0b 22
        E 16 b0 0b 19
        E 32 b0 0b 11
        E 32 b0 0b 08
        E 32 80 23 00
        E 80 b0 0b 3b
        E 0 90 23 3b
        E 16 b0 0b 33
        E 32 b0 0b 2a
        E 32 b0 0b 22
        E 32 b0 0b 19
        E 16 b0 0b 3b
        E 0 80 23 00
        E 0 90 26 3b
        E 32 b0 0b 33
        E 64 b0 0b 2a
        E 64 b0 0b 22
        E 64 b0 0b 19
        E 64 b0 0b 11
        E 64 b0 0b 08
        E 48 80 26 00
        E 16 b0 0b 3b
        E 0 90 23 3b
        E 16 b0 0b 33
        E 32 b0 0b 2a
        E 32 b0 0b 22
        E 32 b0 0b 19
        E 32 b0 0b 11
        E 32 b0 0b 08
        E 32 80 23 00
        E 48 b0 0b 3b
        E 0 90 23 3b
        E 16 b0 0b 33
        E 16 b0 0b 2a
        E 32 b0 0b 22
        E 32 b0 0b 19
        E 32 b0 0b 11
        E 32 b0 0b 08
        E 32 80 23 00
        E 80 b0 0b 3b
        E 0 90 23 3b
        E 16 b0 0b 33
        E 32 b0 0b 2a
        E 32 b0 0b 22
        E 16 b0 0b 19
        E 32 b0 0b 11
        E 16 b0 0b 3b
        E 0 80 23 00
        E 0 90 21 3b
        E 48 b0 0b 33
        E 64 b0 0b 2a
        E 64 b0 0b 22
        E 64 b0 0b 19
        E 16 b0 0b 3b
        E 0 80 21 00
        E 0 90 23 3b
        E 16 b0 0b 33
        E 16 b0 0b 2a
        E 32 b0 0b 22
        E 32 b0 0b 19
        E 32 b0 0b 11
        E 32 b0 0b 08
        E 32 80 23 00
        E 80 b0 0b 3b
        E 0 90 23 3b
        E 16 b0 0b 33
        E 32 b0 0b 2a
        E 32 b0 0b 22
        E 32 b0 0b 19
        E 16 b0 0b 11
        E 16 b0 0b 3b
        E 16 b0 0b 33
        E 32 b0 0b 2a
        E 32 b0 0b 22
        E 32 b0 0b 19
        E 32 b0 0b 11
        E 32 b0 0b 08
        E 32 80 23 00
        E 48 b0 0b 3b
        E 0 90 23 3b
        E 16 b0 0b 33
        E 32 b0 0b 2a
        E 16 b0 0b 22
        E 32 b0 0b 19
        E 32 b0 0b 11
        E 16 b0 0b 3b
        E 0 80 23 00
        E 0 90 26 3b
        E 48 b0 0b 33
        E 64 b0 0b 2a
        E 64 b0 0b 22
        E 64 b0 0b 19
        E 48 b0 0b 11
        E 64 b0 0b 08
        E 48 b0 0c 60
        E 0 b0 0b 33
        E 0 80 26 00
        E 0 90 2d 33
        E 16 b0 0b 2a
        E 64 b0 0b 22
        E 48 b0 0b 33
        E 0 80 2d 00
        E 0 90 37 33
        E 16 b0 0b 2a
        E 32 b0 0b 22
        E 16 b0 0b 19
        E 32 b0 0b 11
        E 32 b0 0b 08
        E 16 b0 0b 33
        E 16 b0 0b 2a
        E 32 b0 0b 22
        E 32 b0 0b 19
        E 32 b0 0b 11
        E 16 b0 0b 33
        E 0 80 37 00
        E 0 90 2d 33
        E 16 b0 0b 2a
        E 32 b0 0b 22
        E 32 b0 0b 19
        E 32 b0 0b 11
        E 16 b0 0b 08
        E 16 b0 0b 33
        E 0 80 2d 00
        E 0 90 34 33
        E 16 b0 0b 2a
        E 32 b0 0b 22
        E 32 b0 0b 19
        E 32 b0 0b 11
        E 16 b0 0b 33
        E 0 80 34 00
        E 0 90 2d 33
        E 16 b0 0b 2a
        E 32 b0 0b 22
        E 32 b0 0b 19
        E 32 b0 0b 11
        E 16 b0 0b 33
        E 0 80 2d 00
        E 0 90 34 33
        E 16 b0 0b 2a
        E 32 b0 0b 22
        E 16 b0 0b 19
        E 32 b0 0b 11
        E 32 b0 0b 08
        E 16 b0 0b 33
        E 16 b0 0b 2a
        E 32 b0 0b 22
        E 32 b0 0b 19
        E 32 b0 0b 11
        E 16 b0 0b 33
        E 0 80 34 00
        E 0 90 2d 33
        E 16 b0 0b 2a
        E 32 b0 0b 22
        E 32 b0 0b 19
        E 32 b0 0b 11
        E 16 b0 0b 33
        E 0 80 2d 00
        E 0 90 37 33
        E 16 b0 0b 2a
        E 16 b0 0b 22
        E 32 b0 0b 19
        E 32 b0 0b 11
        E 32 b0 0b 08
        E 16 b0 0b 33
        E 16 b0 0b 2a
        E 32 b0 0b 22
        E 32 b0 0b 19
        E 32 b0 0b 11
        E 16 b0 0b 33
        E 0 80 37 00
        E 0 90 2d 33
        E 16 b0 0b 2a
        E 32 b0 0b 22
        E 32 b0 0b 19
        E 16 b0 0b 11
        E 32 b0 0b 08
        E 16 b0 0b 33
        E 0 80 2d 00
        E 0 90 34 33
        E 16 b0 0b 2a
        E 32 b0 0b 22
        E 32 b0 0b 19
        E 32 b0 0b 11
        E 16 b0 0b 33
        E 0 80 34 00
        E 0 90 2d 33
        E 16 b0 0b 2a
        E 32 b0 0b 22
        E 32 b0 0b 19
        E 32 b0 0b 11
        E 16 b0 0b 33
        E 0 80 2d 00
        E 0 90 34 33
        E 16 b0 0b 2a
        E 16 b0 0b 22
        E 32 b0 0b 19
        E 32 b0 0b 11
        E 32 b0 0b 08
        E 16 b0 0b 33
        E 16 b0 0b 2a
        E 32 b0 0b 22
        E 32 b0 0b 19
        E 32 b0 0b 11
        E 16 b0 0c 10
        E 0 b0 0b 3b
        E 0 80 34 00
        E 0 90 2f 3b
        E 16 b0 0b 33
        E 32 b0 0b 2a
        E 32 b0 0b 22
        E 16 b0 0b 19
        E 32 b0 0b 11
        E 16 b0 0b 22
        E 128 b0 0b 3b
        E 0 80 2f 00
        E 0 90 36 3b
        E 144 b0 0b 33
        E 16 b0 0b 2a
        E 32 b0 0b 22
        E 32 b0 0b 19
        E 32 b0 0b 11
        E 16 b0 0b 22
        E 128 b0 0b 3b
        E 0 80 36 00
        E 0 90 37 3b
        E 16 b0 0b 33
        E 32 b0 0b 2a
        E 32 b0 0b 22
        E 16 b0 0b 19
        E 32 b0 0b 11
        E 16 b0 0b 22
        E 16 b0 0b 19
        E 32 b0 0b 11
        E 32 b0 0b 08
        E 32 80 37 00
        E 16 b0 0b 3b
        E 0 90 39 3b
        E 16 b0 0b 33
        E 32 b0 0b 2a
        E 32 b0 0b 22
        E 32 b0 0b 19
        E 16 b0 0b 22
        E 16 b0 0b 19
        E 32 b0 0b 11
        E 16 b0 0b 08
        E 32 80 39 00
        E 48 b0 0b 11
        E 0 90 39 11
        E 128 b0 0b 3b
        E 272 b0 0b 22
        E 128 b0 0b 3b
        E 144 b0 0b 22
        E 128 b0 0b 11
        E 144 80 39 00
        E 12880 b0 0b 22
        E 0 90 34 22
        E 16 b0 0b 19
        E 32 b0 0b 11
        E 16 b0 0b 08
        E 32 80 34 00
        E 48 b0 0b 19
        E 0 90 34 19
        E 16 b0 0b 11
        E 32 b0 0b 08
        E 32 80 34 00
        E 48 b0 0b 11
        E 0 90 34 11
        E 48 b0 0b 08
        E 64 80 34 00
        E 16 90 34 08
        E 64 80 34 00
        E 80 b0 0b 22
        E 0 90 34 22
        E 16 b0 0b 19
        E 32 b0 0b 11
        E 32 b0 0b 08
        E 32 80 34 00
        E 16 b0 0b 19
        E 0 90 34 19
        E 16 b0 0b 11
        E 32 b0 0b 08
        E 32 80 34 00
        E 64 b0 0b 11
        E 0 90 34 11
        E 48 b0 0b 08
        E 64 80 34 00
        E 16 90 34 08
        E 80 80 34 00
        E 48 b0 0b 22
        E 0 90 34 22
        E 16 b0 0b 19
        E 16 b0 0b 11
        E 32 b0 0b 08
        E 32 80 34 00
        E 48 b0 0b 19
        E 0 90 34 19
        E 16 b0 0b 11
        E 32 b0 0b 08
        E 32 80 34 00
        E 48 b0 0b 11
        E 0 90 34 11
        E 48 b0 0b 08
        E 48 80 34 00
        E 48 90 34 08
        E 80 80 34 00
        E 48 b0 0b 22
        E 0 90 34 22
        E 16 b0 0b 19
        E 32 b0 0b 11
        E 32 b0 0b 08
        E 32 80 34 00
        E 16 b0 0b 19
        E 0 90 34 19
        E 16 b0 0b 11
        E 16 b0 0b 08
        E 32 80 34 00
        E 80 b0 0b 11
        E 0 90 34 11
        E 48 b0 0b 08
        E 64 80 34 00
        E 16 90 34 08
        E 80 80 34 00
        E 64 b0 0b 22
        E 0 90 34 22
        E 16 b0 0b 19
        E 32 b0 0b 11
        E 32 b0 0b 08
        E 32 80 34 00
        E 16 b0 0b 19
        E 0 90 34 19
        E 16 b0 0b 11
        E 32 b0 0b 08
        E 32 80 34 00
        E 48 b0 0b 11
        E 0 90 34 11
        E 48 b0 0b 08
        E 48 80 34 00
        E 48 90 34 08
        E 80 80 34 00
        E 48 b0 0b 22
        E 0 90 34 22
        E 16 b0 0b 19
        E 32 b0 0b 11
        E 32 b0 0b 08
        E 32 80 34 00
        E 32 b0 0b 19
        E 0 90 34 19
        E 16 b0 0b 11
        E 32 b0 0b 08
        E 32 80 34 00
        E 48 b0 0b 11
        E 0 90 34 11
        E 48 b0 0b 08
        E 64 80 34 00
        E 16 90 34 08
        E 64 80 34 00
        E 80 b0 0b 22
        E 0 90 34 22
        E 16 b0 0b 19
        E 32 b0 0b 11
        E 32 b0 0b 08
        E 32 80 34 00
        E 16 b0 0b 19
        E 0 90 34 19
        E 16 b0 0b 11
        E 32 b0 0b 08
        E 32 80 34 00
        E 64 b0 0b 11
        E 0 90 34 11
        E 48 b0 0b 08
        E 64 80 34 00
        E 16 90 34 08
        E 80 80 34 00
        E 48 b0 0b 22
        E 0 90 34 22
        E 16 b0 0b 19
        E 32 b0 0b 11
        E 16 b0 0b 08
        E 32 80 34 00
        E 48 b0 0b 19
        E 0 90 34 19
        E 16 b0 0b 11
        E 32 b0 0b 08
        E 32 80 34 00
        E 48 b0 0b 11
        E 0 90 34 11
        E 48 b0 0b 08
        E 64 80 34 00
        E 32 90 34 08
        E 80 80 34 00
        E 48 b0 0b 22
        E 0 90 3b 22
        E 16 b0 0b 19
        E 32 b0 0b 11
        E 32 b0 0b 08
        E 32 80 3b 00
        E 16 b0 0b 19
        E 0 90 3b 19
        E 16 b0 0b 11
        E 32 b0 0b 08
        E 32 80 3b 00
        E 64 b0 0b 11
        E 0 90 3b 11
        E 48 b0 0b 08
        E 64 80 3b 00
        E 16 90 3b 08
        E 80 80 3b 00
        E 48 b0 0b 22
        E 0 90 3b 22
        E 16 b0 0b 19
        E 16 b0 0b 11
        E 32 b0 0b 08
        E 32 80 3b 00
        E 48 b0 0b 19
        E 0 90 3b 19
        E 16 b0 0b 11
        E 32 b0 0b 08
        E 32 80 3b 00
        E 48 b0 0b 11
        E 0 90 3b 11
        E 48 b0 0b 08
        E 48 80 3b 00
        E 48 90 3b 08
        E 80 80 3b 00
        E 48 b0 0b 22
        E 0 90 3b 22
        E 16 b0 0b 19
        E 32 b0 0b 11
        E 32 b0 0b 08
        E 32 80 3b 00
        E 16 b0 0b 19
        E 0 90 3b 19
        E 16 b0 0b 11
        E 16 b0 0b 08
        E 32 80 3b 00
        E 80 b0 0b 11
        E 0 90 3b 11
        E 48 b0 0b 08
        E 64 80 3b 00
        E 16 90 3b 08
        E 80 80 3b 00
        E 64 b0 0b 22
        E 0 90 3b 22
        E 16 b0 0b 19
        E 32 b0 0b 11
        E 32 b0 0b 08
        E 32 80 3b 00
        E 16 b0 0b 19
        E 0 90 3b 19
        E 16 b0 0b 11
        E 32 b0 0b 08
        E 32 80 3b 00
        E 48 b0 0b 11
        E 0 90 3b 11
        E 32 b0 0b 08
        E 64 80 3b 00
        E 48 90 3b 08
        E 80 80 3b 00
        E 48 b0 0b 22
        E 0 90 3b 22
        E 16 b0 0b 19
        E 32 b0 0b 11
        E 32 b0 0b 08
        E 32 80 3b 00
        E 32 b0 0b 19
        E 0 90 3b 19
        E 16 b0 0b 11
        E 32 b0 0b 08
        E 32 80 3b 00
        E 48 b0 0b 11
        E 0 90 3b 11
        E 48 b0 0b 08
        E 64 80 3b 00
        E 16 90 3b 08
        E 64 80 3b 00
        E 80 b0 0b 22
        E 0 90 3b 22
        E 16 b0 0b 19
        E 32 b0 0b 11
        E 32 b0 0b 08
        E 32 80 3b 00
        E 16 b0 0b 19
        E 0 90 3b 19
        E 16 b0 0b 11
        E 32 b0 0b 08
        E 32 80 3b 00
        E 64 b0 0b 11
        E 0 90 3b 11
        E 48 b0 0b 08
        E 64 80 3b 00
        E 16 90 3b 08
        E 80 80 3b 00
        E 48 b0 0b 22
        E 0 90 3b 22
        E 16 b0 0b 19
        E 32 b0 0b 11
        E 16 b0 0b 08
        E 32 80 3b 00
        E 48 b0 0b 19
        E 0 90 3b 19
        E 16 b0 0b 11
        E 32 b0 0b 08
        E 32 80 3b 00
        E 48 b0 0b 11
        E 0 90 3b 11
        E 48 b0 0b 08
        E 64 80 3b 00
        E 32 90 3b 08
        E 80 80 3b 00
        E 48 b0 0b 22
        E 0 90 3b 22
        E 16 b0 0b 19
        E 32 b0 0b 11
        E 32 b0 0b 08
        E 32 80 3b 00
        E 16 b0 0b 19
        E 0 90 3b 19
        E 16 b0 0b 11
        E 32 b0 0b 08
        E 16 80 3b 00
        E 80 b0 0b 11
        E 0 90 3b 11
        E 48 b0 0b 08
        E 64 80 3b 00
        E 16 90 3b 08
        E 80 80 3b 00
        E 48 b0 0c 40
        E 0 b0 0b 33
        E 0 90 3b 33
        E 64 b0 0b 2a
        E 80 b0 0b 33
        E 0 80 3b 00
        E 0 90 43 33
        E 16 b0 0b 2a
        E 48 b0 0b 19
        E 0 80 43 00
        E 0 90 3b 19
        E 64 b0 0b 33
        E 0 80 3b 00
        E 0 90 42 33
        E 48 b0 0b 2a
        E 16 b0 0b 19
        E 0 80 42 00
        E 0 90 43 19
        E 64 b0 0b 11
        E 16 b0 0b 33
        E 0 80 43 00
        E 0 90 3e 33
        E 64 b0 0b 19
        E 0 80 3e 00
        E 0 90 42 19
        E 16 b0 0b 11
        E 48 b0 0b 33
        E 0 80 42 00
        E 0 90 39 33
        E 48 b0 0b 2a
        E 16 b0 0b 19
        E 0 80 39 00
        E 0 90 3e 19
        E 64 b0 0b 33
        E 16 b0 0b 2a
        E 64 b0 0b 19
        E 0 80 3e 00
        E 0 90 39 19
        E 16 b0 0b 11
        E 48 b0 0b 33
        E 0 80 39 00
        E 0 90 3b 33
        E 48 b0 0b 2a
        E 16 b0 0b 19
        E 0 80 3b 00
        E 0 90 3e 19
        E 64 b0 0b 33
        E 0 80 3e 00
        E 0 90 40 33
        E 16 b0 0b 2a
        E 48 b0 0b 19
        E 0 80 40 00
        E 0 90 3b 19
        E 32 b0 0b 11
        E 48 b0 0b 33
        E 0 80 3b 00
        E 0 90 40 33
        E 48 b0 0b 2a
        E 16 b0 0b 19
        E 64 b0 0b 11
        E 64 b0 0b 08
        E 64 b0 0b 33
        E 0 80 40 00
        E 0 90 3e 33
        E 80 b0 0b 19
        E 0 80 3e 00
        E 0 90 40 19
        E 16 b0 0b 11
        E 48 b0 0b 33
        E 0 80 40 00
        E 0 90 3b 33
        E 48 b0 0b 2a
        E 16 b0 0b 19
        E 0 80 3b 00
        E 0 90 3e 19
        E 64 b0 0b 33
        E 0 80 3e 00
        E 0 90 39 33
        E 16 b0 0b 2a
        E 48 b0 0b 19
        E 0 80 39 00
        E 0 90 3b 19
        E 32 b0 0b 11
        E 48 b0 0b 33
        E 48 b0 0b 2a
        E 16 b0 0b 19
        E 0 80 3b 00
        E 0 90 39 19
        E 64 b0 0b 33
        E 0 80 39 00
        E 0 90 3e 33
        E 16 b0 0b 2a
        E 48 b0 0b 19
        E 0 80 3e 00
        E 0 90 3b 19
        E 48 b0 0b 11
        E 16 b0 0b 33
        E 0 80 3b 00
        E 0 90 40 33
        E 64 b0 0b 2a
        E 16 b0 0b 19
        E 0 80 40 00
        E 0 90 3e 19
        E 64 b0 0b 33
        E 0 80 3e 00
        E 0 90 3b 33
        E 16 b0 0b 2a
        E 96 b0 0b 22
        E 16 b0 0b 33
        E 0 80 3b 00
        E 0 90 43 33
        E 64 b0 0b 19
        E 0 80 43 00
        E 0 90 3b 19
        E 80 b0 0b 33
        E 0 80 3b 00
        E 0 90 42 33
        E 16 b0 0b 2a
        E 48 b0 0b 19
        E 0 80 42 00
        E 0 90 43 19
        E 48 b0 0b 11
        E 16 b0 0b 33
        E 0 80 43 00
        E 0 90 3e 33
        E 64 b0 0b 19
        E 0 80 3e 00
        E 0 90 42 19
        E 16 b0 0b 11
        E 48 b0 0b 33
        E 0 80 42 00
        E 0 90 39 33
        E 48 b0 0b 2a
        E 32 b0 0b 19
        E 0 80 39 00
        E 0 90 3e 19
        E 48 b0 0b 11
        E 16 b0 0b 33
        E 64 b0 0b 19
        E 0 80 3e 00
        E 0 90 39 19
        E 16 b0 0b 11
        E 48 b0 0b 33
        E 0 80 39 00
        E 0 90 3b 33
        E 48 b0 0b 2a
        E 16 b0 0b 19
        E 0 80 3b 00
        E 0 90 3e 19
        E 64 b0 0b 11
        E 16 b0 0b 33
        E 0 80 3e 00
        E 0 90 40 33
        E 64 b0 0b 19
        E 0 80 40 00
        E 0 90 3b 19
        E 16 b0 0b 11
        E 48 b0 0b 33
        E 0 80 3b 00
        E 0 90 40 33
        E 48 b0 0b 2a
        E 16 b0 0b 19
        E 64 b0 0b 11
        E 80 b0 0b 08
        E 64 b0 0b 33
        E 0 80 40 00
        E 0 90 3e 33
        E 64 b0 0b 19
        E 0 80 3e 00
        E 0 90 40 19
        E 16 b0 0b 11
        E 48 b0 0b 33
        E 0 80 40 00
        E 0 90 3b 33
        E 48 b0 0b 2a
        E 16 b0 0b 19
        E 0 80 3b 00
        E 0 90 3e 19
        E 64 b0 0b 11
        E 16 b0 0b 33
        E 0 80 3e 00
        E 0 90 39 33
        E 64 b0 0b 19
        E 0 80 39 00
        E 0 90 3b 19
        E 16 b0 0b 11
        E 48 b0 0b 33
        E 48 b0 0b 2a
        E 16 b0 0b 19
        E 0 80 3b 00
        E 0 90 39 19
        E 64 b0 0b 33
        E 0 80 39 00
        E 0 90 3e 33
        E 16 b0 0b 2a
        E 48 b0 0b 19
        E 0 80 3e 00
        E 0 90 3b 19
        E 32 b0 0b 11
        E 48 b0 0b 33
        E 0 80 3b 00
        E 0 90 40 33
        E 48 b0 0b 2a
        E 16 b0 0b 19
        E 0 80 40 00
        E 0 90 3e 19
        E 64 b0 0b 33
        E 0 80 3e 00
        E 0 90 3b 33
        E 16 b0 0b 2a
        E 96 b0 0b 22
        E 16 b0 0b 33
        E 0 80 3b 00
        E 0 90 43 33
        E 64 b0 0b 2a
        E 16 b0 0b 19
        E 0 80 43 00
        E 0 90 3b 19
        E 64 b0 0b 33
        E 0 80 3b 00
        E 0 90 42 33
        E 64 b0 0b 19
        E 0 80 42 00
        E 0 90 43 19
        E 16 b0 0b 11
        E 48 b0 0b 33
        E 0 80 43 00
        E 0 90 3e 33
        E 48 b0 0b 2a
        E 16 b0 0b 19
        E 0 80 3e 00
        E 0 90 42 19
        E 64 b0 0b 11
        E 16 b0 0b 33
        E 0 80 42 00
        E 0 90 39 33
        E 64 b0 0b 19
        E 0 80 39 00
        E 0 90 3e 19
        E 16 b0 0b 11
        E 48 b0 0b 33
        E 48 b0 0b 2a
        E 16 b0 0b 19
        E 0 80 3e 00
        E 0 90 39 19
        E 64 b0 0b 33
        E 0 80 39 00
        E 0 90 3b 33
        E 16 b0 0b 2a
        E 64 b0 0b 19
        E 0 80 3b 00
        E 0 90 3e 19
        E 16 b0 0b 11
        E 48 b0 0b 33
        E 0 80 3e 00
        E 0 90 40 33
        E 48 b0 0b 2a
        E 16 b0 0b 19
        E 0 80 40 00
        E 0 90 3b 19
        E 64 b0 0b 33
        E 0 80 3b 00
        E 0 90 40 33
        E 16 b0 0b 2a
        E 48 b0 0b 19
        E 32 b0 0b 11
        E 112 b0 0b 08
        E 64 b0 0b 33
        E 0 80 40 00
        E 0 90 3e 33
        E 64 b0 0b 19
        E 0 80 3e 00
        E 0 90 40 19
        E 48 b0 0b 11
        E 16 b0 0b 33
        E 0 80 40 00
        E 0 90 3b 33
        E 64 b0 0b 2a
        E 16 b0 0b 19
        E 0 80 3b 00
        E 0 90 3e 19
        E 64 b0 0b 33
        E 0 80 3e 00
        E 0 90 39 33
        E 16 b0 0b 2a
        E 48 b0 0b 19
        E 0 80 39 00
        E 0 90 3b 19
        E 48 b0 0b 11
        E 16 b0 0b 33
        E 64 b0 0b 19
        E 0 80 3b 00
        E 0 90 39 19
        E 16 b0 0b 11
        E 64 b0 0b 33
        E 0 80 39 00
        E 0 90 3e 33
        E 16 b0 0b 2a
        E 48 b0 0b 19
        E 0 80 3e 00
        E 0 90 3b 19
        E 48 b0 0b 11
        E 16 b0 0b 33
        E 0 80 3b 00
        E 0 90 40 33
        E 64 b0 0b 19
        E 0 80 40 00
        E 0 90 3e 19
        E 16 b0 0b 11
        E 48 b0 0b 33
        E 0 80 3e 00
        E 0 90 3b 33
        E 48 b0 0b 2a
        E 80 b0 0b 22
        E 16 b0 0b 33
        E 0 80 3b 00
        E 0 90 43 33
        E 64 b0 0b 19
        E 0 80 43 00
        E 0 90 3b 19
        E 64 b0 0b 33
        E 0 80 3b 00
        E 0 90 42 33
        E 16 b0 0b 2a
        E 48 b0 0b 19
        E 0 80 42 00
        E 0 90 43 19
        E 48 b0 0b 11
        E 32 b0 0b 33
        E 0 80 43 00
        E 0 90 3e 33
        E 48 b0 0b 2a
        E 16 b0 0b 19
        E 0 80 3e 00
        E 0 90 42 19
        E 64 b0 0b 33
        E 0 80 42 00
        E 0 90 39 33
        E 16 b0 0b 2a
        E 48 b0 0b 19
        E 0 80 39 00
        E 0 90 3e 19
        E 48 b0 0b 11
        E 16 b0 0b 33
        E 64 b0 0b 2a
        E 16 b0 0b 19
        E 0 80 3e 00
        E 0 90 39 19
        E 64 b0 0b 33
        E 0 80 39 00
        E 0 90 3b 33
        E 16 b0 0b 2a
        E 48 b0 0b 19
        E 0 80 3b 00
        E 0 90 3e 19
        E 48 b0 0b 11
        E 16 b0 0b 33
        E 0 80 3e 00
        E 0 90 40 33
        E 64 b0 0b 19
        E 0 80 40 00
        E 0 90 3b 19
        E 16 b0 0b 11
        E 64 b0 0b 33
        E 0 80 3b 00
        E 0 90 40 33
        E 16 b0 0b 2a
        E 48 b0 0b 19
        E 48 b0 0b 11
        E 80 b0 0b 08
        E 64 b0 0b 33
        E 0 80 40 00
        E 0 90 3e 33
        E 80 b0 0b 19
        E 0 80 3e 00
        E 0 90 40 19
        E 64 b0 0b 33
        E 0 80 40 00
        E 0 90 3b 33
        E 16 b0 0b 2a
        E 48 b0 0b 19
        E 0 80 3b 00
        E 0 90 3e 19
        E 48 b0 0b 11
        E 16 b0 0b 33
        E 0 80 3e 00
        E 0 90 39 33
        E 64 b0 0b 19
        E 0 80 39 00
        E 0 90 3b 19
        E 16 b0 0b 11
        E 48 b0 0b 33
        E 32 b0 0b 2a
        E 48 b0 0b 19
        E 0 80 3b 00
        E 0 90 39 19
        E 48 b0 0b 11
        E 16 b0 0b 33
        E 0 80 39 00
        E 0 90 3e 33
        E 64 b0 0b 19
        E 0 80 3e 00
        E 0 90 3b 19
        E 16 b0 0b 11
        E 48 b0 0b 33
        E 0 80 3b 00
        E 0 90 40 33
        E 48 b0 0b 2a
        E 16 b0 0b 19
        E 0 80 40 00
        E 0 90 3e 19
        E 64 b0 0b 11
        E 16 b0 0b 4c
        E 0 80 3e 00
        E 0 90 26 4c
        E 16 b0 0b 44
        E 32 b0 0b 3b
        E 32 b0 0b 33
        E 32 b0 0b 2a
        E 16 b0 0b 4c
        E 0 80 26 00
        E 0 90 28 4c
        E 16 b0 0b 44
        E 32 b0 0b 3b
        E 32 b0 0b 33
        E 32 b0 0b 2a
        E 16 b0 0c 10
        E 0 b0 0b 3b
        E 0 80 28 00
        E 0 90 36 3b
        E 16 b0 0b 33
        E 16 b0 0b 2a
        E 32 b0 0b 22
        E 32 b0 0b 19
        E 32 b0 0b 11
        E 16 b0 0b 3b
        E 0 80 36 00
        E 0 90 37 3b
        E 16 b0 0b 33
        E 32 b0 0b 2a
        E 32 b0 0b 22
        E 32 b0 0b 19
        E 16 b0 0b 22
        E 144 b0 0b 3b
        E 16 b0 0b 33
        E 32 b0 0b 2a
        E 32 b0 0b 22
        E 32 b0 0b 19
        E 16 b0 0b 22
        E 16 b0 0b 19
        E 32 b0 0b 11
        E 32 b0 0b 08
        E 32 80 37 00
        E 16 b0 0b 3b
        E 0 90 37 3b
        E 16 b0 0b 33
        E 16 b0 0b 2a
        E 32 b0 0b 22
        E 32 b0 0b 19
        E 32 b0 0b 11
        E 16 b0 0b 22
        E 16 b0 0b 19
        E 32 b0 0b 11
        E 32 b0 0b 08
        E 32 80 37 00
        E 16 b0 0b 11
        E 0 90 37 11
        E 144 b0 0b 3b
        E 256 b0 0b 22
        E 16 b0 0b 19
        E 32 b0 0b 11
        E 16 b0 0b 08
        E 32 80 37 00
        E 48 b0 0b 3b
        E 0 90 37 3b
        E 16 b0 0b 33
        E 32 b0 0b 2a
        E 32 b0 0b 22
        E 32 b0 0b 19
        E 16 b0 0b 22
        E 16 b0 0b 19
        E 32 b0 0b 11
        E 32 b0 0b 08
        E 32 80 37 00
        E 32 b0 0c 40
        E 0 b0 0b 4c
        E 0 90 28 4c
        E 16 b0 0b 44
        E 32 b0 0b 3b
        E 32 b0 0b 33
        E 32 b0 0b 2a
        E 16 b0 0b 4c
        E 0 80 28 00
        E 0 90 26 4c
        E 16 b0 0b 44
        E 32 b0 0b 3b
        E 32 b0 0b 33
        E 32 b0 0b 2a
        E 16 b0 0b 4c
        E 0 80 26 00
        E 0 90 28 4c
        E 16 b0 0b 44
        E 32 b0 0b 3b
        E 16 b0 0b 33
        E 32 b0 0b 2a
        E 32 b0 0b 22
        E 16 b0 0c 10
        E 0 b0 0b 3b
        E 0 80 28 00
        E 0 90 36 3b
        E 16 b0 0b 33
        E 32 b0 0b 2a
        E 32 b0 0b 22
        E 32 b0 0b 19
        E 16 b0 0b 3b
        E 0 80 36 00
        E 0 90 37 3b
        E 16 b0 0b 33
        E 32 b0 0b 2a
        E 32 b0 0b 22
        E 32 b0 0b 19
        E 16 b0 0b 11
        E 16 b0 0b 22
        E 128 b0 0b 3b
        E 16 b0 0b 33
        E 32 b0 0b 2a
        E 32 b0 0b 22
        E 32 b0 0b 19
        E 16 b0 0b 22
        E 16 b0 0b 19
        E 32 b0 0b 11
        E 16 b0 0b 08
        E 32 80 37 00
        E 48 b0 0b 3b
        E 0 90 37 3b
        E 16 b0 0b 33
        E 32 b0 0b 2a
        E 32 b0 0b 22
        E 32 b0 0b 19
        E 16 b0 0b 22
        E 16 b0 0b 19
        E 32 b0 0b 11
        E 32 b0 0b 08
        E 32 80 37 00
        E 32 b0 0b 11
        E 0 90 37 11
        E 128 b0 0b 3b
        E 272 b0 0b 22
        E 16 b0 0b 19
        E 32 b0 0b 11
        E 32 b0 0b 08
        E 32 80 37 00
        E 16 b0 0b 3b
        E 0 90 37 3b
        E 16 b0 0b 33
        E 32 b0 0b 2a
        E 32 b0 0b 22
        E 32 b0 0b 19
        E 16 b0 0b 22
        E 16 b0 0b 19
        E 16 b0 0b 11
        E 32 b0 0b 08
        E 32 80 37 00
        E 48 b0 0c 40
        E 0 b0 0b 4c
        E 0 90 28 4c
        E 16 b0 0b 44
        E 32 b0 0b 3b
        E 32 b0 0b 33
        E 32 b0 0b 2a
        E 16 b0 0b 4c
        E 0 80 28 00
        E 0 90 26 4c
        E 16 b0 0b 44
        E 32 b0 0b 3b
        E 32 b0 0b 33
        E 16 b0 0b 2a
        E 32 b0 0b 22
        E 16 b0 0b 4c
        E 0 80 26 00
        E 0 90 28 4c
        E 16 b0 0b 44
        E 32 b0 0b 3b
        E 32 b0 0b 33
        E 32 b0 0b 2a
        E 16 b0 0c 10
        E 0 b0 0b 3b
        E 0 80 28 00
        E 0 90 36 3b
        E 16 b0 0b 33
        E 32 b0 0b 2a
        E 32 b0 0b 22
        E 32 b0 0b 19
        E 16 b0 0b 3b
        E 0 80 36 00
        E 0 90 37 3b
        E 16 b0 0b 33
        E 16 b0 0b 2a
        E 32 b0 0b 22
        E 32 b0 0b 19
        E 32 b0 0b 11
        E 16 b0 0b 22
        E 128 b0 0b 3b
        E 16 b0 0b 33
        E 32 b0 0b 2a
        E 32 b0 0b 22
        E 16 b0 0b 19
        E 32 b0 0b 11
        E 16 b0 0b 22
        E 16 b0 0b 19
        E 32 b0 0b 11
        E 32 b0 0b 08
        E 32 80 37 00
        E 16 b0 0b 3b
        E 0 90 37 3b
        E 16 b0 0b 33
        E 32 b0 0b 2a
        E 32 b0 0b 22
        E 32 b0 0b 19
        E 16 b0 0b 22
        E 16 b0 0b 19
        E 16 b0 0b 11
        E 32 b0 0b 08
        E 32 80 37 00
        E 48 b0 0b 11
        E 0 90 37 11
        E 128 b0 0b 3b
        E 272 b0 0b 22
        E 16 b0 0b 19
        E 32 b0 0b 11
        E 32 b0 0b 08
        E 32 80 37 00
        E 16 b0 0b 3b
        E 0 90 37 3b
        E 16 b0 0b 33
        E 32 b0 0b 2a
        E 16 b0 0b 22
        E 32 b0 0b 19
        E 32 b0 0b 11
        E 16 b0 0b 22
        E 16 b0 0b 19
        E 32 b0 0b 11
        E 32 b0 0b 08
        E 32 80 37 00
        E 16 b0 0c 40
        E 0 b0 0b 4c
        E 0 90 28 4c
        E 16 b0 0b 44
        E 32 b0 0b 3b
        E 32 b0 0b 33
        E 32 b0 0b 2a
        E 16 b0 0b 22
        E 16 b0 0b 4c
        E 0 80 28 00
        E 0 90 26 4c
        E 16 b0 0b 44
        E 32 b0 0b 3b
        E 32 b0 0b 33
        E 32 b0 0b 2a
        E 16 b0 0b 4c
        E 0 80 26 00
        E 0 90 28 4c
        E 16 b0 0b 44
        E 32 b0 0b 3b
        E 32 b0 0b 33
        E 32 b0 0b 2a
        E 16 b0 0c 10
        E 0 b0 0b 3b
        E 0 80 28 00
        E 0 90 36 3b
        E 16 b0 0b 33
        E 32 b0 0b 2a
        E 16 b0 0b 22
        E 32 b0 0b 19
        E 32 b0 0b 11
        E 16 b0 0b 3b
        E 0 80 36 00
        E 0 90 37 3b
        E 16 b0 0b 33
        E 32 b0 0b 2a
        E 32 b0 0b 22
        E 32 b0 0b 19
        E 16 b0 0b 22
        E 144 b0 0b 3b
        E 16 b0 0b 33
        E 32 b0 0b 2a
        E 32 b0 0b 22
        E 32 b0 0b 19
        E 16 b0 0b 22
        E 16 b0 0b 19
        E 32 b0 0b 11
        E 32 b0 0b 08
        E 32 80 37 00
        E 16 b0 0b 3b
        E 0 90 37 3b
        E 16 b0 0b 33
        E 32 b0 0b 2a
        E 16 b0 0b 22
        E 32 b0 0b 19
        E 32 b0 0b 11
        E 16 b0 0b 22
        E 16 b0 0b 19
        E 32 b0 0b 11
        E 32 b0 0b 08
        E 32 80 37 00
        E 16 b0 0b 11
        E 0 90 37 11
        E 128 b0 0b 3b
        E 272 b0 0b 22
        E 16 b0 0b 19
        E 32 b0 0b 11
        E 32 b0 0b 08
        E 16 80 37 00
        E 48 b0 0b 3b
        E 0 90 37 3b
        E 16 b0 0b 33
        E 32 b0 0b 2a
        E 32 b0 0b 22
        E 32 b0 0b 19
        E 16 b0 0b 22
        E 16 b0 0b 19
        E 32 b0 0b 11
        E 32 b0 0b 08
        E 32 80 37 00
        E 16 b0 0c 40
        E 0 b0 0b 4c
        E 0 90 28 4c
        E 16 b0 0b 44
        E 16 b0 0b 3b
        E 32 b0 0b 33
        E 32 b0 0b 2a
        E 32 b0 0b 22
        E 16 b0 0b 33
        E 0 80 28 00
        E 0 90 21 33
        E 16 b0 0b 2a
        E 32 b0 0b 22
        E 32 b0 0b 19
        E 32 b0 0b 11
        E 16 b0 0b 33
        E 0 80 21 00
        E 0 90 24 33
        E 16 b0 0b 2a
        E 32 b0 0b 22
        E 16 b0 0b 19
        E 0 80 24 00
        E 0 90 21 19
        E 80 b0 0b 33
        E 0 80 21 00
        E 0 90 28 33
        E 16 b0 0b 2a
        E 32 b0 0b 22
        E 16 b0 0b 19
        E 0 80 28 00
        E 0 90 24 19
        E 16 b0 0b 11
        E 32 b0 0b 08
        E 16 b0 0b 33
        E 0 80 24 00
        E 0 90 2b 33
        E 16 b0 0b 2a
        E 32 b0 0b 22
        E 16 b0 0b 19
        E 0 80 2b 00
        E 0 90 28 19
        E 16 b0 0b 11
        E 32 b0 0b 08
        E 16 b0 0b 33
        E 16 b0 0b 2a
        E 16 b0 0b 22
        E 32 b0 0b 19
        E 16 80 28 00
        E 0 90 2b 19
        E 16 b0 0b 11
        E 32 b0 0b 08
        E 16 b0 0b 33
        E 0 80 2b 00
        E 0 90 24 33
        E 16 b0 0b 2a
        E 32 b0 0b 22
        E 16 b0 0b 19
        E 0 80 24 00
        E 0 90 28 19
        E 16 b0 0b 11
        E 32 b0 0b 08
        E 16 b0 0b 33
        E 16 b0 0b 2a
        E 32 b0 0b 22
        E 16 b0 0b 19
        E 0 80 28 00
        E 0 90 24 19
        E 16 b0 0b 11
        E 16 b0 0b 08
        E 32 80 24 00
        E 16 b0 0b 33
        E 0 90 2b 33
        E 16 b0 0b 2a
        E 32 b0 0b 22
        E 16 b0 0b 19
        E 0 80 2b 00
        E 0 90 28 19
        E 16 b0 0b 11
        E 32 b0 0b 08
        E 16 b0 0b 33
        E 0 80 28 00
        E 0 90 2d 33
        E 16 b0 0b 2a
        E 32 b0 0b 22
        E 16 b0 0b 19
        E 0 80 2d 00
        E 0 90 2b 19
        E 16 b0 0b 11
        E 32 b0 0b 08
        E 16 b0 0b 33
        E 0 80 2b 00
        E 0 90 30 33
        E 16 b0 0b 2a
        E 32 b0 0b 22
        E 16 b0 0b 19
        E 16 80 30 00
        E 0 90 2d 19
        E 16 b0 0b 11
        E 32 b0 0b 08
        E 16 b0 0b 33
        E 0 80 2d 00
        E 0 90 34 33
        E 16 b0 0b 2a
        E 32 b0 0b 22
        E 16 b0 0b 19
        E 0 80 34 00
        E 0 90 30 19
        E 16 b0 0b 11
        E 32 b0 0b 08
        E 16 b0 0b 33
        E 0 80 30 00
        E 0 90 37 33
        E 16 b0 0b 2a
        E 32 b0 0b 22
        E 16 b0 0b 19
        E 0 80 37 00
        E 0 90 34 19
        E 16 b0 0b 11
        E 32 b0 0b 08
        E 16 80 34 00
        E 16 b0 0b 33
        E 0 90 39 33
        E 16 b0 0b 2a
        E 32 b0 0b 22
        E 16 b0 0b 19
        E 0 80 39 00
        E 0 90 37 19
        E 16 b0 0b 11
        E 32 b0 0b 08
        E 16 b0 0b 33
        E 0 80 37 00
        E 0 90 3c 33
        E 16 b0 0b 2a
        E 32 b0 0b 22
        E 16 b0 0b 19
        E 0 80 3c 00
        E 0 90 39 19
        E 16 b0 0b 11
        E 32 b0 0b 08
        E 16 b0 0b 33
        E 0 80 39 00
        E 0 90 40 33
        E 16 b0 0b 2a
        E 32 b0 0b 22
        E 16 b0 0b 19
        E 16 80 40 00
        E 0 90 3c 19
        E 16 b0 0b 11
        E 32 b0 0b 08
        E 16 b0 0b 33
        E 0 80 3c 00
        E 0 90 43 33
        E 16 b0 0b 2a
        E 32 b0 0b 22
        E 16 b0 0b 19
        E 0 80 43 00
        E 0 90 40 19
        E 16 b0 0b 11
        E 32 b0 0b 08
        E 16 b0 0b 33
        E 0 80 40 00
        E 0 90 23 33
        E 16 b0 0b 2a
        E 32 b0 0b 22
        E 16 b0 0b 19
        E 0 80 23 00
        E 0 90 43 19
        E 16 b0 0b 11
        E 32 b0 0b 08
        E 16 80 43 00
        E 16 b0 0b 33
        E 0 90 27 33
        E 16 b0 0b 2a
        E 32 b0 0b 22
        E 16 b0 0b 19
        E 0 80 27 00
        E 0 90 23 19
        E 16 b0 0b 11
        E 32 b0 0b 08
        E 16 b0 0b 33
        E 0 80 23 00
        E 0 90 2a 33
        E 16 b0 0b 2a
        E 32 b0 0b 22
        E 16 b0 0b 19
        E 0 80 2a 00
        E 0 90 27 19
        E 16 b0 0b 11
        E 32 b0 0b 08
        E 16 b0 0b 33
        E 0 80 27 00
        E 0 90 2d 33
        E 16 b0 0b 2a
        E 32 b0 0b 22
        E 16 b0 0b 19
        E 16 80 2d 00
        E 0 90 2a 19
        E 16 b0 0b 11
        E 32 b0 0b 08
        E 16 b0 0b 33
        E 16 b0 0b 2a
        E 32 b0 0b 22
        E 16 b0 0b 19
        E 0 80 2a 00
        E 0 90 2d 19
        E 16 b0 0b 11
        E 32 b0 0b 08
        E 16 b0 0b 33
        E 0 80 2d 00
        E 0 90 27 33
        E 16 b0 0b 2a
        E 32 b0 0b 22
        E 16 b0 0b 19
        E 0 80 27 00
        E 0 90 2a 19
        E 16 b0 0b 11
        E 32 b0 0b 08
        E 16 80 2a 00
        E 16 b0 0b 33
        E 0 90 2a 33
        E 16 b0 0b 2a
        E 32 b0 0b 22
        E 16 b0 0b 19
        E 0 80 2a 00
        E 0 90 27 19
        E 16 b0 0b 11
        E 32 b0 0b 08
        E 16 b0 0b 33
        E 0 80 27 00
        E 0 90 2d 33
        E 16 b0 0b 2a
        E 32 b0 0b 22
        E 16 b0 0b 19
        E 0 80 2d 00
        E 0 90 2a 19
        E 16 b0 0b 11
        E 32 b0 0b 08
        E 16 b0 0b 33
        E 0 80 2a 00
        E 0 90 2f 33
        E 16 b0 0b 2a
        E 32 b0 0b 22
        E 16 b0 0b 19
        E 0 80 2f 00
        E 0 90 1d 19
        E 16 b0 0b 11
        E 16 b0 0b 08
        E 32 80 1d 00
        E 16 b0 0b 33
        E 0 90 33 33
        E 16 b0 0b 2a
        E 32 b0 0b 22
        E 16 b0 0b 19
        E 0 80 33 00
        E 0 90 2f 19
        E 16 b0 0b 11
        E 32 b0 0b 08
        E 16 b0 0b 33
        E 0 80 2f 00
        E 0 90 36 33
        E 16 b0 0b 2a
        E 32 b0 0b 22
        E 16 b0 0b 19
        E 0 80 36 00
        E 0 90 33 19
        E 16 b0 0b 11
        E 32 b0 0b 08
        E 16 b0 0b 33
        E 0 80 33 00
        E 0 90 39 33
        E 16 b0 0b 2a
        E 16 b0 0b 22
        E 32 b0 0b 19
        E 16 80 39 00
        E 0 90 36 19
        E 16 b0 0b 11
        E 32 b0 0b 08
        E 16 b0 0b 33
        E 0 80 36 00
        E 0 90 3b 33
        E 16 b0 0b 2a
        E 32 b0 0b 22
        E 16 b0 0b 19
        E 0 80 3b 00
        E 0 90 39 19
        E 16 b0 0b 11
        E 32 b0 0b 08
        E 16 b0 0b 33
        E 0 80 39 00
        E 0 90 3f 33
        E 16 b0 0b 2a
        E 32 b0 0b 22
        E 16 b0 0b 19
        E 0 80 3f 00
        E 0 90 3b 19
        E 16 b0 0b 11
        E 16 b0 0b 08
        E 32 80 3b 00
        E 16 b0 0b 33
        E 0 90 42 33
        E 16 b0 0b 2a
        E 32 b0 0b 22
        E 16 b0 0b 19
        E 0 80 42 00
        E 0 90 3f 19
        E 16 b0 0b 11
        E 32 b0 0b 08
        E 16 b0 0b 33
        E 0 80 3f 00
        E 0 90 45 33
        E 16 b0 0b 2a
        E 32 b0 0b 22
        E 16 b0 0b 19
        E 0 80 45 00
        E 0 90 42 19
        E 64 80 42 00
        E 4304 b0 0c 10
        E 0 b0 0b 22
        E 0 90 34 22
        E 16 b0 0b 19
        E 32 b0 0b 11
        E 32 b0 0b 08
        E 32 80 34 00
        E 16 b0 0b 19
        E 0 90 34 19
        E 16 b0 0b 11
        E 16 b0 0b 08
        E 32 80 34 00
        E 80 b0 0b 11
        E 0 90 34 11
        E 48 b0 0b 08
        E 64 80 34 00
        E 16 90 34 08
        E 80 80 34 00
        E 64 b0 0b 22
        E 0 90 34 22
        E 16 b0 0b 19
        E 32 b0 0b 11
        E 32 b0 0b 08
        E 32 80 34 00
        E 16 b0 0b 19
        E 0 90 34 19
        E 16 b0 0b 11
        E 32 b0 0b 08
        E 32 80 34 00
        E 48 b0 0b 11
        E 0 90 34 11
        E 48 b0 0b 08
        E 48 80 34 00
        E 48 90 34 08
        E 80 80 34 00
        E 48 b0 0b 22
        E 0 90 34 22
        E 16 b0 0b 19
        E 32 b0 0b 11
        E 32 b0 0b 08
        E 32 80 34 00
        E 32 b0 0b 19
        E 0 90 34 19
        E 16 b0 0b 11
        E 32 b0 0b 08
        E 32 80 34 00
        E 48 b0 0b 11
        E 0 90 34 11
        E 48 b0 0b 08
        E 64 80 34 00
        E 16 90 34 08
        E 64 80 34 00
        E 80 b0 0b 22
        E 0 90 34 22
        E 16 b0 0b 19
        E 32 b0 0b 11
        E 32 b0 0b 08
        E 32 80 34 00
        E 16 b0 0b 19
        E 0 90 34 19
        E 16 b0 0b 11
        E 32 b0 0b 08
        E 32 80 34 00
        E 64 b0 0b 11
        E 0 90 34 11
        E 48 b0 0b 08
        E 64 80 34 00
        E 16 90 34 08
        E 80 80 34 00
        E 48 b0 0b 22
        E 0 90 34 22
        E 16 b0 0b 19
        E 32 b0 0b 11
        E 16 b0 0b 08
        E 32 80 34 00
        E 48 b0 0b 19
        E 0 90 34 19
        E 16 b0 0b 11
        E 32 b0 0b 08
        E 32 80 34 00
        E 48 b0 0b 11
        E 0 90 34 11
        E 48 b0 0b 08
        E 64 80 34 00
        E 32 90 34 08
        E 80 80 34 00
        E 48 b0 0b 22
        E 0 90 34 22
        E 16 b0 0b 19
        E 32 b0 0b 11
        E 32 b0 0b 08
        E 32 80 34 00
        E 16 b0 0b 19
        E 0 90 34 19
        E 16 b0 0b 11
        E 32 b0 0b 08
        E 32 80 34 00
        E 64 b0 0b 11
        E 0 90 34 11
        E 48 b0 0b 08
        E 64 80 34 00
        E 16 90 34 08
        E 80 80 34 00
        E 48 b0 0b 22
        E 0 90 34 22
        E 16 b0 0b 19
        E 16 b0 0b 11
        E 32 b0 0b 08
        E 32 80 34 00
        E 48 b0 0b 19
        E 0 90 34 19
        E 16 b0 0b 11
        E 32 b0 0b 08
        E 32 80 34 00
        E 48 b0 0b 11
        E 0 90 34 11
        E 48 b0 0b 08
        E 48 80 34 00
        E 48 90 34 08
        E 80 80 34 00
        E 48 b0 0b 22
        E 0 90 34 22
        E 16 b0 0b 19
        E 32 b0 0b 11
        E 32 b0 0b 08
        E 32 80 34 00
        E 16 b0 0b 19
        E 0 90 34 19
        E 16 b0 0b 11
        E 16 b0 0b 08
        E 32 80 34 00
        E 80 b0 0b 11
        E 0 90 34 11
        E 48 b0 0b 08
        E 64 80 34 00
        E 16 90 34 08
        E 80 80 34 00
        E 64 b0 0c 40
        E 0 b0 0b 3b
        E 0 90 28 3b
        E 16 b0 0b 33
        E 32 b0 0b 2a
        E 32 b0 0b 22
        E 32 b0 0b 19
        E 16 b0 0b 22
        E 16 b0 0b 19
        E 32 b0 0b 11
        E 32 b0 0b 08
        E 32 80 28 00
        E 16 b0 0b 11
        E 0 90 28 11
        E 32 b0 0b 08
        E 64 80 28 00
        E 48 90 28 08
        E 80 80 28 00
        E 48 b0 0b 3b
        E 0 90 28 3b
        E 16 b0 0b 33
        E 32 b0 0b 2a
        E 32 b0 0b 22
        E 32 b0 0b 19
        E 16 b0 0b 11
        E 16 b0 0b 3b
        E 0 80 28 00
        E 0 90 26 3b
        E 16 b0 0b 33
        E 32 b0 0b 2a
        E 32 b0 0b 22
        E 32 b0 0b 19
        E 16 b0 0b 22
        E 16 b0 0b 19
        E 32 b0 0b 11
        E 32 b0 0b 08
        E 32 80 26 00
        E 16 b0 0b 11
        E 0 90 26 11
        E 48 b0 0b 08
        E 48 80 26 00
        E 48 b0 0b 5d
        E 0 90 28 5d
        E 16 b0 0b 55
        E 32 b0 0b 4c
        E 32 b0 0b 44
        E 32 b0 0b 3b
        E 32 b0 0b 33
        E 32 b0 0b 2a
        E 32 b0 0b 22
        E 32 b0 0b 19
        E 16 b0 0b 11
        E 16 80 28 00
        E 0 90 33 11
        E 144 b0 0b 19
        E 160 b0 0b 22
        E 48 80 33 00
        E 0 90 34 22
        E 96 b0 0b 2a
        E 160 b0 0b 33
        E 144 b0 0b 3b
        E 48 b0 0c 60
        E 0 b0 0b 33
        E 0 80 34 00
        E 0 90 2d 33
        E 128 80 2d 00
        E 0 90 37 33
        E 16 b0 0b 2a
        E 32 b0 0b 22
        E 16 b0 0b 19
        E 32 b0 0b 11
        E 32 b0 0b 08
        E 16 b0 0b 33
        E 16 b0 0b 2a
        E 32 b0 0b 22
        E 32 b0 0b 19
        E 32 b0 0b 11
        E 16 b0 0b 33
        E 0 80 37 00
        E 0 90 2d 33
        E 16 b0 0b 2a
        E 32 b0 0b 22
        E 32 b0 0b 19
        E 32 b0 0b 11
        E 16 b0 0b 33
        E 0 80 2d 00
        E 0 90 34 33
        E 16 b0 0b 2a
        E 16 b0 0b 22
        E 32 b0 0b 19
        E 32 b0 0b 11
        E 32 b0 0b 08
        E 16 b0 0b 33
        E 0 80 34 00
        E 0 90 2d 33
        E 16 b0 0b 2a
        E 32 b0 0b 22
        E 32 b0 0b 19
        E 32 b0 0b 11
        E 16 b0 0b 33
        E 0 80 2d 00
        E 0 90 34 33
        E 16 b0 0b 2a
        E 32 b0 0b 22
        E 32 b0 0b 19
        E 16 b0 0b 11
        E 32 b0 0b 08
        E 16 b0 0b 33
        E 16 b0 0b 2a
        E 32 b0 0b 22
        E 32 b0 0b 19
        E 32 b0 0b 11
        E 16 b0 0b 33
        E 0 80 34 00
        E 0 90 2d 33
        E 16 b0 0b 2a
        E 32 b0 0b 22
        E 32 b0 0b 19
        E 32 b0 0b 11
        E 16 b0 0b 33
        E 0 80 2d 00
        E 0 90 37 33
        E 16 b0 0b 2a
        E 16 b0 0b 22
        E 32 b0 0b 19
        E 32 b0 0b 11
        E 32 b0 0b 08
        E 16 b0 0b 33
        E 16 b0 0b 2a
        E 32 b0 0b 22
        E 32 b0 0b 19
        E 32 b0 0b 11
        E 16 b0 0b 33
        E 0 80 37 00
        E 0 90 2d 33
        E 16 b0 0b 2a
        E 32 b0 0b 22
        E 32 b0 0b 19
        E 16 b0 0b 11
        E 32 b0 0b 08
        E 16 b0 0b 33
        E 0 80 2d 00
        E 0 90 34 33
        E 16 b0 0b 2a
        E 32 b0 0b 22
        E 32 b0 0b 19
        E 32 b0 0b 11
        E 16 b0 0b 33
        E 0 80 34 00
        E 0 90 2d 33
        E 16 b0 0b 2a
        E 32 b0 0b 22
        E 32 b0 0b 19
        E 32 b0 0b 11
        E 16 b0 0b 33
        E 0 80 2d 00
        E 0 90 34 33
        E 16 b0 0b 2a
        E 16 b0 0b 22
        E 32 b0 0b 19
        E 32 b0 0b 11
        E 32 b0 0b 08
        E 16 b0 0b 33
        E 16 b0 0b 2a
        E 32 b0 0b 22
        E 32 b0 0b 19
        E 32 b0 0b 11
        E 16 b0 0c 20
        E 0 b0 0b 3b
        E 0 80 34 00
        E 0 90 23 3b
        E 16 b0 0b 33
        E 32 b0 0b 2a
        E 32 b0 0b 22
        E 16 b0 0b 19
        E 32 b0 0b 11
        E 32 b0 0b 08
        E 32 80 23 00
        E 80 b0 0b 3b
        E 0 90 23 3b
        E 16 b0 0b 33
        E 32 b0 0b 2a
        E 32 b0 0b 22
        E 32 b0 0b 19
        E 32 b0 0b 11
        E 32 b0 0b 08
        E 16 80 23 00
        E 80 b0 0b 3b
        E 0 90 23 3b
        E 16 b0 0b 33
        E 32 b0 0b 2a
        E 32 b0 0b 22
        E 32 b0 0b 19
        E 16 b0 0b 3b
        E 0 80 23 00
        E 0 90 21 3b
        E 48 b0 0b 33
        E 64 b0 0b 2a
        E 48 b0 0b 22
        E 64 b0 0b 19
        E 48 b0 0b 3b
        E 0 80 21 00
        E 0 90 23 3b
        E 16 b0 0b 33
        E 32 b0 0b 2a
        E 32 b0 0b 22
        E 32 b0 0b 19
        E 32 b0 0b 11
        E 32 b0 0b 08
        E 16 80 23 00
        E 80 b0 0b 3b
        E 0 90 23 3b
        E 16 b0 0b 33
        E 32 b0 0b 2a
        E 32 b0 0b 22
        E 32 b0 0b 19
        E 16 b0 0b 3b
        E 16 b0 0b 33
        E 32 b0 0b 2a
        E 32 b0 0b 22
        E 32 b0 0b 19
        E 16 b0 0b 11
        E 32 b0 0b 08
        E 32 80 23 00
        E 80 b0 0b 3b
        E 0 90 23 3b
        E 16 b0 0b 33
        E 32 b0 0b 2a
        E 32 b0 0b 22
        E 32 b0 0b 19
        E 16 b0 0b 3b
        E 0 80 23 00
        E 0 90 26 3b
        E 48 b0 0b 33
        E 48 b0 0b 2a
        E 64 b0 0b 22
        E 64 b0 0b 19
        E 64 b0 0b 11
        E 64 b0 0b 08
        E 48 80 26 00
        E 16 b0 0b 3b
        E 0 90 23 3b
        E 16 b0 0b 33
        E 32 b0 0b 2a
        E 32 b0 0b 22
        E 32 b0 0b 19
        E 32 b0 0b 11
        E 32 b0 0b 08
        E 32 80 23 00
        E 48 b0 0b 3b
        E 0 90 23 3b
        E 16 b0 0b 33
        E 32 b0 0b 2a
        E 32 b0 0b 22
        E 16 b0 0b 19
        E 32 b0 0b 11
        E 32 b0 0b 08
        E 32 80 23 00
        E 80 b0 0b 3b
        E 0 90 23 3b
        E 16 b0 0b 33
        E 32 b0 0b 2a
        E 32 b0 0b 22
        E 32 b0 0b 19
        E 16 b0 0b 3b
        E 0 80 23 00
        E 0 90 21 3b
        E 32 b0 0b 33
        E 64 b0 0b 2a
        E 64 b0 0b 22
        E 64 b0 0b 19
        E 48 b0 0b 3b
        E 0 80 21 00
        E 0 90 23 3b
        E 16 b0 0b 33
        E 32 b0 0b 2a
        E 32 b0 0b 22
        E 16 b0 0b 19
        E 32 b0 0b 11
        E 32 b0 0b 08
        E 32 80 23 00
        E 80 b0 0b 3b
        E 0 90 23 3b
        E 16 b0 0b 33
        E 32 b0 0b 2a
        E 32 b0 0b 22
        E 32 b0 0b 19
        E 16 b0 0b 3b
        E 16 b0 0b 33
        E 16 b0 0b 2a
        E 32 b0 0b 22
        E 32 b0 0b 19
        E 32 b0 0b 11
        E 32 b0 0b 08
        E 32 80 23 00
        E 80 b0 0b 3b
        E 0 90 23 3b
        E 16 b0 0b 33
        E 32 b0 0b 2a
        E 32 b0 0b 22
        E 16 b0 0b 19
        E 32 b0 0b 11
        E 16 b0 0b 3b
        E 0 80 23 00
        E 0 90 26 3b
        E 48 b0 0b 33
        E 64 b0 0b 2a
        E 64 b0 0b 22
        E 64 b0 0b 19
        E 48 b0 0b 11
        E 64 b0 0b 08
        E 48 b0 0c 60
        E 0 b0 0b 33
        E 0 80 26 00
        E 0 90 2d 33
        E 16 b0 0b 2a
        E 64 b0 0b 22
        E 48 b0 0b 33
        E 0 80 2d 00
        E 0 90 37 33
        E 16 b0 0b 2a
        E 32 b0 0b 22
        E 32 b0 0b 19
        E 32 b0 0b 11
        E 16 b0 0b 08
        E 16 b0 0b 33
        E 16 b0 0b 2a
        E 32 b0 0b 22
        E 32 b0 0b 19
        E 32 b0 0b 11
        E 16 b0 0b 33
        E 0 80 37 00
        E 0 90 2d 33
        E 16 b0 0b 2a
        E 32 b0 0b 22
        E 32 b0 0b 19
        E 32 b0 0b 11
        E 16 b0 0b 33
        E 0 80 2d 00
        E 0 90 34 33
        E 16 b0 0b 2a
        E 32 b0 0b 22
        E 16 b0 0b 19
        E 32 b0 0b 11
        E 32 b0 0b 08
        E 16 b0 0b 33
        E 0 80 34 00
        E 0 90 2d 33
        E 16 b0 0b 2a
        E 32 b0 0b 22
        E 32 b0 0b 19
        E 32 b0 0b 11
        E 16 b0 0b 33
        E 0 80 2d 00
        E 0 90 34 33
        E 16 b0 0b 2a
        E 32 b0 0b 22
        E 32 b0 0b 19
        E 32 b0 0b 11
        E 16 b0 0b 08
        E 16 b0 0b 33
        E 16 b0 0b 2a
        E 32 b0 0b 22
        E 32 b0 0b 19
        E 32 b0 0b 11
        E 16 b0 0b 33
        E 0 80 34 00
        E 0 90 2d 33
        E 16 b0 0b 2a
        E 32 b0 0b 22
        E 32 b0 0b 19
        E 32 b0 0b 11
        E 16 b0 0b 33
        E 0 80 2d 00
        E 0 90 37 33
        E 16 b0 0b 2a
        E 32 b0 0b 22
        E 16 b0 0b 19
        E 32 b0 0b 11
        E 32 b0 0b 08
        E 16 b0 0b 33
        E 16 b0 0b 2a
        E 32 b0 0b 22
        E 32 b0 0b 19
        E 32 b0 0b 11
        E 16 b0 0b 33
        E 0 80 37 00
        E 0 90 2d 33
        E 16 b0 0b 2a
        E 32 b0 0b 22
        E 32 b0 0b 19
        E 32 b0 0b 11
        E 16 b0 0b 08
        E 16 b0 0b 33
        E 0 80 2d 00
        E 0 90 34 33
        E 16 b0 0b 2a
        E 32 b0 0b 22
        E 32 b0 0b 19
        E 32 b0 0b 11
        E 16 b0 0b 33
        E 0 80 34 00
        E 0 90 2d 33
        E 16 b0 0b 2a
        E 32 b0 0b 22
        E 32 b0 0b 19
        E 32 b0 0b 11
        E 16 b0 0b 33
        E 0 80 2d 00
        E 0 90 34 33
        E 16 b0 0b 2a
        E 32 b0 0b 22
        E 16 b0 0b 19
        E 32 b0 0b 11
        E 32 b0 0b 08
        E 16 b0 0b 33
        E 16 b0 0b 2a
        E 32 b0 0b 22
        E 32 b0 0b 19
        E 32 b0 0b 11
        E 16 b0 0c 10
        E 0 b0 0b 3b
        E 0 80 34 00
        E 0 90 2f 3b
        E 16 b0 0b 33
        E 32 b0 0b 2a
        E 32 b0 0b 22
        E 32 b0 0b 19
        E 16 b0 0b 22
        E 144 b0 0b 3b
        E 0 80 2f 00
        E 0 90 36 3b
        E 144 b0 0b 33
        E 32 b0 0b 2a
        E 32 b0 0b 22
        E 16 b0 0b 19
        E 32 b0 0b 11
        E 16 b0 0b 22
        E 128 b0 0b 3b
        E 0 80 36 00
        E 0 90 37 3b
        E 16 b0 0b 33
        E 32 b0 0b 2a
        E 32 b0 0b 22
        E 32 b0 0b 19
        E 16 b0 0b 22
        E 16 b0 0b 19
        E 16 b0 0b 11
        E 32 b0 0b 08
        E 32 80 37 00
        E 48 b0 0b 3b
        E 0 90 39 3b
        E 16 b0 0b 33
        E 32 b0 0b 2a
        E 32 b0 0b 22
        E 32 b0 0b 19
        E 16 b0 0b 22
        E 16 b0 0b 19
        E 32 b0 0b 11
        E 32 b0 0b 08
        E 16 80 39 00
        E 48 b0 0b 11
        E 0 90 39 11
        E 128 b0 0b 3b
        E 272 b0 0b 22
        E 128 b0 0b 3b
        E 144 b0 0b 22
        E 128 b0 0b 11
        E 128 80 39 00
        E 12896 b0 0b 22
        E 0 90 34 22
        E 16 b0 0b 19
        E 32 b0 0b 11
        E 32 b0 0b 08
        E 32 80 34 00
        E 32 b0 0b 19
        E 0 90 34 19
        E 16 b0 0b 11
        E 32 b0 0b 08
        E 32 80 34 00
        E 48 b0 0b 11
        E 0 90 34 11
        E 48 b0 0b 08
        E 64 80 34 00
        E 16 90 34 08
        E 64 80 34 00
        E 80 b0 0b 22
        E 0 90 34 22
        E 16 b0 0b 19
        E 32 b0 0b 11
        E 32 b0 0b 08
        E 32 80 34 00
        E 16 b0 0b 19
        E 0 90 34 19
        E 16 b0 0b 11
        E 32 b0 0b 08
        E 32 80 34 00
        E 64 b0 0b 11
        E 0 90 34 11
        E 48 b0 0b 08
        E 64 80 34 00
        E 16 90 34 08
        E 80 80 34 00
        E 48 b0 0b 22
        E 0 90 34 22
        E 16 b0 0b 19
        E 32 b0 0b 11
        E 16 b0 0b 08
        E 32 80 34 00
        E 48 b0 0b 19
        E 0 90 34 19
        E 16 b0 0b 11
        E 32 b0 0b 08
        E 32 80 34 00
        E 48 b0 0b 11
        E 0 90 34 11
        E 48 b0 0b 08
        E 64 80 34 00
        E 16 90 34 08
        E 64 80 34 00
        E 80 b0 0b 22
        E 0 90 34 22
        E 16 b0 0b 19
        E 32 b0 0b 11
        E 32 b0 0b 08
        E 32 80 34 00
        E 16 b0 0b 19
        E 0 90 34 19
        E 16 b0 0b 11
        E 32 b0 0b 08
        E 32 80 34 00
        E 64 b0 0b 11
        E 0 90 34 11
        E 48 b0 0b 08
        E 64 80 34 00
        E 16 90 34 08
        E 80 80 34 00
        E 48 b0 0b 22
        E 0 90 34 22
        E 16 b0 0b 19
        E 16 b0 0b 11
        E 32 b0 0b 08
        E 32 80 34 00
        E 48 b0 0b 19
        E 0 90 34 19
        E 16 b0 0b 11
        E 32 b0 0b 08
        E 32 80 34 00
        E 48 b0 0b 11
        E 0 90 34 11
        E 48 b0 0b 08
        E 48 80 34 00
        E 48 90 34 08
        E 80 80 34 00
        E 48 b0 0b 22
        E 0 90 34 22
        E 16 b0 0b 19
        E 32 b0 0b 11
        E 32 b0 0b 08
        E 32 80 34 00
        E 16 b0 0b 19
        E 0 90 34 19
        E 16 b0 0b 11
        E 16 b0 0b 08
        E 32 80 34 00
        E 80 b0 0b 11
        E 0 90 34 11
        E 48 b0 0b 08
        E 64 80 34 00
        E 16 90 34 08
        E 80 80 34 00
        E 64 b0 0b 22
        E 0 90 34 22
        E 16 b0 0b 19
        E 32 b0 0b 11
        E 32 b0 0b 08
        E 32 80 34 00
        E 16 b0 0b 19
        E 0 90 34 19
        E 16 b0 0b 11
        E 32 b0 0b 08
        E 32 80 34 00
        E 48 b0 0b 11
        E 0 90 34 11
        E 48 b0 0b 08
        E 48 80 34 00
        E 48 90 34 08
        E 80 80 34 00
        E 48 b0 0b 22
        E 0 90 34 22
        E 16 b0 0b 19
        E 32 b0 0b 11
        E 32 b0 0b 08
        E 32 80 34 00
        E 32 b0 0b 19
        E 0 90 34 19
        E 16 b0 0b 11
        E 32 b0 0b 08
        E 32 80 34 00
        E 48 b0 0b 11
        E 0 90 34 11
        E 48 b0 0b 08
        E 64 80 34 00
        E 16 90 34 08
        E 64 80 34 00
        E 80 b0 0b 22
        E 0 90 3b 22
        E 16 b0 0b 19
        E 32 b0 0b 11
        E 32 b0 0b 08
        E 32 80 3b 00
        E 16 b0 0b 19
        E 0 90 3b 19
        E 16 b0 0b 11
        E 32 b0 0b 08
        E 32 80 3b 00
        E 64 b0 0b 11
        E 0 90 3b 11
        E 48 b0 0b 08
        E 64 80 3b 00
        E 16 90 3b 08
        E 80 80 3b 00
        E 48 b0 0b 22
        E 0 90 3b 22
        E 16 b0 0b 19
        E 32 b0 0b 11
        E 16 b0 0b 08
        E 32 80 3b 00
        E 48 b0 0b 19
        E 0 90 3b 19
        E 16 b0 0b 11
        E 32 b0 0b 08
        E 32 80 3b 00
        E 48 b0 0b 11
        E 0 90 3b 11
        E 48 b0 0b 08
        E 64 80 3b 00
        E 32 90 3b 08
        E 80 80 3b 00
        E 48 b0 0b 22
        E 0 90 3b 22
        E 16 b0 0b 19
        E 32 b0 0b 11
        E 32 b0 0b 08
        E 32 80 3b 00
        E 16 b0 0b 19
        E 0 90 3b 19
        E 16 b0 0b 11
        E 32 b0 0b 08
        E 32 80 3b 00
        E 64 b0 0b 11
        E 0 90 3b 11
        E 48 b0 0b 08
        E 64 80 3b 00
        E 16 90 3b 08
        E 80 80 3b 00
        E 48 b0 0b 22
        E 0 90 3b 22
        E 16 b0 0b 19
        E 16 b0 0b 11
        E 32 b0 0b 08
        E 32 80 3b 00
        E 48 b0 0b 19
        E 0 90 3b 19
        E 16 b0 0b 11
        E 32 b0 0b 08
        E 32 80 3b 00
        E 48 b0 0b 11
        E 0 90 3b 11
        E 48 b0 0b 08
        E 48 80 3b 00
        E 48 90 3b 08
        E 80 80 3b 00
        E 48 b0 0b 22
        E 0 90 3b 22
        E 16 b0 0b 19
        E 32 b0 0b 11
        E 32 b0 0b 08
        E 32 80 3b 00
        E 16 b0 0b 19
        E 0 90 3b 19
        E 16 b0 0b 11
        E 16 b0 0b 08
        E 32 80 3b 00
        E 80 b0 0b 11
        E 0 90 3b 11
        E 48 b0 0b 08
        E 64 80 3b 00
        E 16 90 3b 08
        E 80 80 3b 00
        E 64 b0 0b 22
        E 0 90 3b 22
        E 16 b0 0b 19
        E 32 b0 0b 11
        E 32 b0 0b 08
        E 32 80 3b 00
        E 16 b0 0b 19
        E 0 90 3b 19
        E 16 b0 0b 11
        E 32 b0 0b 08
        E 32 80 3b 00
        E 48 b0 0b 11
        E 0 90 3b 11
        E 32 b0 0b 08
        E 64 80 3b 00
        E 48 90 3b 08
        E 80 80 3b 00
        E 48 b0 0b 22
        E 0 90 3b 22
        E 16 b0 0b 19
        E 32 b0 0b 11
        E 32 b0 0b 08
        E 32 80 3b 00
        E 32 b0 0b 19
        E 0 90 3b 19
        E 16 b0 0b 11
        E 32 b0 0b 08
        E 32 80 3b 00
        E 48 b0 0b 11
        E 0 90 3b 11
        E 48 b0 0b 08
        E 64 80 3b 00
        E 16 90 3b 08
        E 64 80 3b 00
        E 80 b0 0b 22
        E 0 90 3b 22
        E 16 b0 0b 19
        E 32 b0 0b 11
        E 32 b0 0b 08
        E 32 80 3b 00
        E 16 b0 0b 19
        E 0 90 3b 19
        E 16 b0 0b 11
        E 32 b0 0b 08
        E 32 80 3b 00
        E 64 b0 0b 11
        E 0 90 3b 11
        E 48 b0 0b 08
        E 64 80 3b 00
        E 16 90 3b 08
        E 80 80 3b 00
        E 48 b0 0c 40
        E 0 b0 0b 33
        E 0 90 3b 33
        E 64 b0 0b 2a
        E 80 b0 0b 33
        E 0 80 3b 00
        E 0 90 43 33
        E 16 b0 0b 2a
        E 48 b0 0b 19
        E 0 80 43 00
        E 0 90 3b 19
        E 64 b0 0b 33
        E 0 80 3b 00
        E 0 90 42 33
        E 48 b0 0b 2a
        E 16 b0 0b 19
        E 0 80 42 00
        E 0 90 43 19
        E 64 b0 0b 11
        E 16 b0 0b 33
        E 0 80 43 00
        E 0 90 3e 33
        E 64 b0 0b 19
        E 0 80 3e 00
        E 0 90 42 19
        E 16 b0 0b 11
        E 48 b0 0b 33
        E 0 80 42 00
        E 0 90 39 33
        E 48 b0 0b 2a
        E 16 b0 0b 19
        E 0 80 39 00
        E 0 90 3e 19
        E 64 b0 0b 33
        E 16 b0 0b 2a
        E 64 b0 0b 19
        E 0 80 3e 00
        E 0 90 39 19
        E 16 b0 0b 11
        E 48 b0 0b 33
        E 0 80 39 00
        E 0 90 3b 33
        E 48 b0 0b 2a
        E 16 b0 0b 19
        E 0 80 3b 00
        E 0 90 3e 19
        E 64 b0 0b 33
        E 0 80 3e 00
        E 0 90 40 33
        E 16 b0 0b 2a
        E 48 b0 0b 19
        E 0 80 40 00
        E 0 90 3b 19
        E 48 b0 0b 11
        E 16 b0 0b 33
        E 0 80 3b 00
        E 0 90 40 33
        E 64 b0 0b 2a
        E 16 b0 0b 19
        E 64 b0 0b 11
        E 64 b0 0b 08
        E 64 b0 0b 33
        E 0 80 40 00
        E 0 90 3e 33
        E 64 b0 0b 19
        E 0 80 3e 00
        E 0 90 40 19
        E 16 b0 0b 11
        E 64 b0 0b 33
        E 0 80 40 00
        E 0 90 3b 33
        E 16 b0 0b 2a
        E 48 b0 0b 19
        E 0 80 3b 00
        E 0 90 3e 19
        E 48 b0 0b 11
        E 16 b0 0b 33
        E 0 80 3e 00
        E 0 90 39 33
        E 64 b0 0b 19
        E 0 80 39 00
        E 0 90 3b 19
        E 16 b0 0b 11
        E 48 b0 0b 33
        E 32 b0 0b 2a
        E 48 b0 0b 19
        E 0 80 3b 00
        E 0 90 39 19
        E 48 b0 0b 11
        E 16 b0 0b 33
        E 0 80 39 00
        E 0 90 3e 33
        E 64 b0 0b 19
        E 0 80 3e 00
        E 0 90 3b 19
        E 16 b0 0b 11
        E 48 b0 0b 33
        E 0 80 3b 00
        E 0 90 40 33
        E 48 b0 0b 2a
        E 16 b0 0b 19
        E 0 80 40 00
        E 0 90 3e 19
        E 64 b0 0b 11
        E 16 b0 0b 33
        E 0 80 3e 00
        E 0 90 3b 33
        E 80 b0 0b 2a
        E 48 b0 0b 33
        E 0 80 3b 00
        E 0 90 43 33
        E 48 b0 0b 2a
        E 16 b0 0b 19
        E 0 80 43 00
        E 0 90 3b 19
        E 64 b0 0b 33
        E 0 80 3b 00
        E 0 90 42 33
        E 64 b0 0b 2a
        E 16 b0 0b 19
        E 0 80 42 00
        E 0 90 43 19
        E 64 b0 0b 33
        E 0 80 43 00
        E 0 90 3e 33
        E 16 b0 0b 2a
        E 48 b0 0b 19
        E 0 80 3e 00
        E 0 90 42 19
        E 48 b0 0b 11
        E 16 b0 0b 33
        E 0 80 42 00
        E 0 90 39 33
        E 64 b0 0b 19
        E 0 80 39 00
        E 0 90 3e 19
        E 16 b0 0b 11
        E 64 b0 0b 33
        E 16 b0 0b 2a
        E 48 b0 0b 19
        E 0 80 3e 00
        E 0 90 39 19
        E 48 b0 0b 11
        E 16 b0 0b 33
        E 0 80 39 00
        E 0 90 3b 33
        E 64 b0 0b 19
        E 0 80 3b 00
        E 0 90 3e 19
        E 16 b0 0b 11
        E 48 b0 0b 33
        E 0 80 3e 00
        E 0 90 40 33
        E 48 b0 0b 2a
        E 32 b0 0b 19
        E 0 80 40 00
        E 0 90 3b 19
        E 48 b0 0b 11
        E 16 b0 0b 33
        E 0 80 3b 00
        E 0 90 40 33
        E 64 b0 0b 19
        E 16 b0 0b 11
        E 112 b0 0b 08
        E 80 b0 0b 33
        E 0 80 40 00
        E 0 90 3e 33
        E 64 b0 0b 19
        E 0 80 3e 00
        E 0 90 40 19
        E 48 b0 0b 11
        E 16 b0 0b 33
        E 0 80 40 00
        E 0 90 3b 33
        E 64 b0 0b 19
        E 0 80 3b 00
        E 0 90 3e 19
        E 16 b0 0b 11
        E 48 b0 0b 33
        E 0 80 3e 00
        E 0 90 39 33
        E 48 b0 0b 2a
        E 32 b0 0b 19
        E 0 80 39 00
        E 0 90 3b 19
        E 48 b0 0b 11
        E 16 b0 0b 33
        E 64 b0 0b 19
        E 0 80 3b 00
        E 0 90 39 19
        E 16 b0 0b 11
        E 48 b0 0b 33
        E 0 80 39 00
        E 0 90 3e 33
        E 48 b0 0b 2a
        E 16 b0 0b 19
        E 0 80 3e 00
        E 0 90 3b 19
        E 64 b0 0b 11
        E 16 b0 0b 33
        E 0 80 3b 00
        E 0 90 40 33
        E 64 b0 0b 19
        E 0 80 40 00
        E 0 90 3e 19
        E 16 b0 0b 11
        E 48 b0 0b 33
        E 0 80 3e 00
        E 0 90 3b 33
        E 48 b0 0b 2a
        E 80 b0 0b 33
        E 0 80 3b 00
        E 0 90 43 33
        E 16 b0 0b 2a
        E 64 b0 0b 19
        E 0 80 43 00
        E 0 90 3b 19
        E 64 b0 0b 33
        E 0 80 3b 00
        E 0 90 42 33
        E 16 b0 0b 2a
        E 48 b0 0b 19
        E 0 80 42 00
        E 0 90 43 19
        E 48 b0 0b 11
        E 16 b0 0b 33
        E 0 80 43 00
        E 0 90 3e 33
        E 64 b0 0b 19
        E 0 80 3e 00
        E 0 90 42 19
        E 16 b0 0b 11
        E 64 b0 0b 33
        E 0 80 42 00
        E 0 90 39 33
        E 16 b0 0b 2a
        E 48 b0 0b 19
        E 0 80 39 00
        E 0 90 3e 19
        E 48 b0 0b 11
        E 16 b0 0b 33
        E 64 b0 0b 19
        E 0 80 3e 00
        E 0 90 39 19
        E 16 b0 0b 11
        E 48 b0 0b 33
        E 0 80 39 00
        E 0 90 3b 33
        E 48 b0 0b 2a
        E 16 b0 0b 19
        E 0 80 3b 00
        E 0 90 3e 19
        E 64 b0 0b 11
        E 16 b0 0b 33
        E 0 80 3e 00
        E 0 90 40 33
        E 64 b0 0b 19
        E 0 80 40 00
        E 0 90 3b 19
        E 16 b0 0b 11
        E 48 b0 0b 33
        E 0 80 3b 00
        E 0 90 40 33
        E 48 b0 0b 2a
        E 16 b0 0b 19
        E 64 b0 0b 11
        E 80 b0 0b 08
        E 64 b0 0b 33
        E 0 80 40 00
        E 0 90 3e 33
        E 64 b0 0b 19
        E 0 80 3e 00
        E 0 90 40 19
        E 16 b0 0b 11
        E 48 b0 0b 33
        E 0 80 40 00
        E 0 90 3b 33
        E 48 b0 0b 2a
        E 16 b0 0b 19
        E 0 80 3b 00
        E 0 90 3e 19
        E 64 b0 0b 11
        E 16 b0 0b 33
        E 0 80 3e 00
        E 0 90 39 33
        E 64 b0 0b 19
        E 0 80 39 00
        E 0 90 3b 19
        E 16 b0 0b 11
        E 48 b0 0b 33
        E 48 b0 0b 2a
        E 16 b0 0b 19
        E 0 80 3b 00
        E 0 90 39 19
        E 64 b0 0b 33
        E 0 80 39 00
        E 0 90 3e 33
        E 16 b0 0b 2a
        E 64 b0 0b 19
        E 0 80 3e 00
        E 0 90 3b 19
        E 16 b0 0b 11
        E 48 b0 0b 33
        E 0 80 3b 00
        E 0 90 40 33
        E 48 b0 0b 2a
        E 16 b0 0b 19
        E 0 80 40 00
        E 0 90 3e 19
        E 64 b0 0b 33
        E 0 80 3e 00
        E 0 90 3b 33
        E 16 b0 0b 2a
        E 80 b0 0b 22
        E 48 b0 0b 33
        E 0 80 3b 00
        E 0 90 43 33
        E 48 b0 0b 2a
        E 16 b0 0b 19
        E 0 80 43 00
        E 0 90 3b 19
        E 64 b0 0b 33
        E 0 80 3b 00
        E 0 90 42 33
        E 64 b0 0b 19
        E 0 80 42 00
        E 0 90 43 19
        E 16 b0 0b 11
        E 48 b0 0b 33
        E 0 80 43 00
        E 0 90 3e 33
        E 32 b0 0b 2a
        E 48 b0 0b 19
        E 0 80 3e 00
        E 0 90 42 19
        E 48 b0 0b 11
        E 16 b0 0b 33
        E 0 80 42 00
        E 0 90 39 33
        E 64 b0 0b 19
        E 0 80 39 00
        E 0 90 3e 19
        E 16 b0 0b 11
        E 48 b0 0b 33
        E 48 b0 0b 2a
        E 16 b0 0b 19
        E 0 80 3e 00
        E 0 90 39 19
        E 64 b0 0b 11
        E 16 b0 0b 33
        E 0 80 39 00
        E 0 90 3b 33
        E 64 b0 0b 19
        E 0 80 3b 00
        E 0 90 3e 19
        E 16 b0 0b 11
        E 48 b0 0b 33
        E 0 80 3e 00
        E 0 90 40 33
        E 48 b0 0b 2a
        E 16 b0 0b 19
        E 0 80 40 00
        E 0 90 3b 19
        E 64 b0 0b 33
        E 0 80 3b 00
        E 0 90 40 33
        E 16 b0 0b 2a
        E 64 b0 0b 19
        E 16 b0 0b 11
        E 112 b0 0b 08
        E 64 b0 0b 33
        E 0 80 40 00
        E 0 90 3e 33
        E 64 b0 0b 19
        E 0 80 3e 00
        E 0 90 40 19
        E 48 b0 0b 11
        E 32 b0 0b 33
        E 0 80 40 00
        E 0 90 3b 33
        E 48 b0 0b 2a
        E 16 b0 0b 19
        E 0 80 3b 00
        E 0 90 3e 19
        E 64 b0 0b 33
        E 0 80 3e 00
        E 0 90 39 33
        E 16 b0 0b 2a
        E 48 b0 0b 19
        E 0 80 39 00
        E 0 90 3b 19
        E 48 b0 0b 11
        E 16 b0 0b 33
        E 64 b0 0b 2a
        E 16 b0 0b 19
        E 0 80 3b 00
        E 0 90 39 19
        E 64 b0 0b 33
        E 0 80 39 00
        E 0 90 3e 33
        E 16 b0 0b 2a
        E 48 b0 0b 19
        E 0 80 3e 00
        E 0 90 3b 19
        E 48 b0 0b 11
        E 16 b0 0b 33
        E 0 80 3b 00
        E 0 90 40 33
        E 64 b0 0b 19
        E 0 80 40 00
        E 0 90 3e 19
        E 16 b0 0b 11
        E 64 b0 0b 4c
        E 0 80 3e 00
        E 0 90 26 4c
        E 16 b0 0b 44
        E 32 b0 0b 3b
        E 32 b0 0b 33
        E 32 b0 0b 2a
        E 16 b0 0b 4c
        E 0 80 26 00
        E 0 90 28 4c
        E 16 b0 0b 44
        E 32 b0 0b 3b
        E 32 b0 0b 33
        E 32 b0 0b 2a
        E 16 b0 0c 10
        E 0 b0 0b 3b
        E 0 80 28 00
        E 0 90 36 3b
        E 16 b0 0b 33
        E 32 b0 0b 2a
        E 16 b0 0b 22
        E 32 b0 0b 19
        E 32 b0 0b 11
        E 16 b0 0b 3b
        E 0 80 36 00
        E 0 90 37 3b
        E 16 b0 0b 33
        E 32 b0 0b 2a
        E 32 b0 0b 22
        E 32 b0 0b 19
        E 16 b0 0b 22
        E 128 b0 0b 3b
        E 16 b0 0b 33
        E 16 b0 0b 2a
        E 32 b0 0b 22
        E 32 b0 0b 19
        E 32 b0 0b 11
        E 16 b0 0b 22
        E 16 b0 0b 19
        E 32 b0 0b 11
        E 32 b0 0b 08
        E 32 80 37 00
        E 16 b0 0b 3b
        E 0 90 37 3b
        E 16 b0 0b 33
        E 32 b0 0b 2a
        E 32 b0 0b 22
        E 16 b0 0b 19
        E 32 b0 0b 11
        E 16 b0 0b 22
        E 16 b0 0b 19
        E 32 b0 0b 11
        E 32 b0 0b 08
        E 32 80 37 00
        E 16 b0 0b 11
        E 0 90 37 11
        E 128 b0 0b 3b
        E 272 b0 0b 22
        E 16 b0 0b 19
        E 32 b0 0b 11
        E 32 b0 0b 08
        E 16 80 37 00
        E 48 b0 0b 3b
        E 0 90 37 3b
        E 16 b0 0b 33
        E 32 b0 0b 2a
        E 32 b0 0b 22
        E 32 b0 0b 19
        E 16 b0 0b 22
        E 16 b0 0b 19
        E 32 b0 0b 11
        E 32 b0 0b 08
        E 32 80 37 00
        E 16 b0 0c 40
        E 0 b0 0b 4c
        E 0 90 28 4c
        E 16 b0 0b 44
        E 16 b0 0b 3b
        E 32 b0 0b 33
        E 32 b0 0b 2a
        E 32 b0 0b 22
        E 16 b0 0b 4c
        E 0 80 28 00
        E 0 90 26 4c
        E 16 b0 0b 44
        E 32 b0 0b 3b
        E 32 b0 0b 33
        E 32 b0 0b 2a
        E 16 b0 0b 4c
        E 0 80 26 00
        E 0 90 28 4c
        E 16 b0 0b 44
        E 32 b0 0b 3b
        E 32 b0 0b 33
        E 16 b0 0b 2a
        E 32 b0 0b 22
        E 16 b0 0c 10
        E 0 b0 0b 3b
        E 0 80 28 00
        E 0 90 36 3b
        E 16 b0 0b 33
        E 32 b0 0b 2a
        E 32 b0 0b 22
        E 32 b0 0b 19
        E 16 b0 0b 3b
        E 0 80 36 00
        E 0 90 37 3b
        E 16 b0 0b 33
        E 32 b0 0b 2a
        E 32 b0 0b 22
        E 32 b0 0b 19
        E 16 b0 0b 22
        E 144 b0 0b 3b
        E 16 b0 0b 33
        E 32 b0 0b 2a
        E 32 b0 0b 22
        E 32 b0 0b 19
        E 16 b0 0b 22
        E 16 b0 0b 19
        E 32 b0 0b 11
        E 32 b0 0b 08
        E 32 80 37 00
        E 32 b0 0b 3b
        E 0 90 37 3b
        E 16 b0 0b 33
        E 32 b0 0b 2a
        E 32 b0 0b 22
        E 32 b0 0b 19
        E 16 b0 0b 22
        E 16 b0 0b 19
        E 32 b0 0b 11
        E 32 b0 0b 08
        E 32 80 37 00
        E 16 b0 0b 11
        E 0 90 37 11
        E 144 b0 0b 3b
        E 272 b0 0b 22
        E 16 b0 0b 19
        E 32 b0 0b 11
        E 32 b0 0b 08
        E 32 80 37 00
        E 16 b0 0b 3b
        E 0 90 37 3b
        E 16 b0 0b 33
        E 32 b0 0b 2a
        E 32 b0 0b 22
        E 32 b0 0b 19
        E 16 b0 0b 22
        E 16 b0 0b 19
        E 32 b0 0b 11
        E 16 b0 0b 08
        E 32 80 37 00
        E 48 b0 0c 40
        E 0 b0 0b 4c
        E 0 90 28 4c
        E 16 b0 0b 44
        E 32 b0 0b 3b
        E 32 b0 0b 33
        E 32 b0 0b 2a
        E 16 b0 0b 4c
        E 0 80 28 00
        E 0 90 26 4c
        E 16 b0 0b 44
        E 32 b0 0b 3b
        E 32 b0 0b 33
        E 32 b0 0b 2a
        E 16 b0 0b 22
        E 16 b0 0b 4c
        E 0 80 26 00
        E 0 90 28 4c
        E 16 b0 0b 44
        E 32 b0 0b 3b
        E 32 b0 0b 33
        E 32 b0 0b 2a
        E 16 b0 0c 10
        E 0 b0 0b 3b
        E 0 80 28 00
        E 0 90 36 3b
        E 16 b0 0b 33
        E 32 b0 0b 2a
        E 32 b0 0b 22
        E 32 b0 0b 19
        E 16 b0 0b 3b
        E 0 80 36 00
        E 0 90 37 3b
        E 16 b0 0b 33
        E 32 b0 0b 2a
        E 32 b0 0b 22
        E 16 b0 0b 19
        E 32 b0 0b 11
        E 16 b0 0b 22
        E 128 b0 0b 3b
        E 16 b0 0b 33
        E 32 b0 0b 2a
        E 32 b0 0b 22
        E 32 b0 0b 19
        E 16 b0 0b 22
        E 16 b0 0b 19
        E 16 b0 0b 11
        E 32 b0 0b 08
        E 32 80 37 00
        E 48 b0 0b 3b
        E 0 90 37 3b
        E 16 b0 0b 33
        E 32 b0 0b 2a
        E 32 b0 0b 22
        E 32 b0 0b 19
        E 16 b0 0b 22
        E 16 b0 0b 19
        E 32 b0 0b 11
        E 32 b0 0b 08
        E 16 80 37 00
        E 48 b0 0b 11
        E 0 90 37 11
        E 128 b0 0b 3b
        E 272 b0 0b 22
        E 16 b0 0b 19
        E 32 b0 0b 11
        E 32 b0 0b 08
        E 32 80 37 00
        E 16 b0 0b 3b
        E 0 90 37 3b
        E 16 b0 0b 33
        E 32 b0 0b 2a
        E 32 b0 0b 22
        E 16 b0 0b 19
        E 32 b0 0b 11
        E 16 b0 0b 22
        E 16 b0 0b 19
        E 32 b0 0b 11
        E 32 b0 0b 08
        E 32 80 37 00
        E 16 b0 0c 40
        E 0 b0 0b 4c
        E 0 90 28 4c
        E 16 b0 0b 44
        E 32 b0 0b 3b
        E 32 b0 0b 33
        E 32 b0 0b 2a
        E 16 b0 0b 4c
        E 0 80 28 00
        E 0 90 26 4c
        E 16 b0 0b 44
        E 16 b0 0b 3b
        E 32 b0 0b 33
        E 32 b0 0b 2a
        E 32 b0 0b 22
        E 16 b0 0b 4c
        E 0 80 26 00
        E 0 90 28 4c
        E 16 b0 0b 44
        E 32 b0 0b 3b
        E 32 b0 0b 33
        E 32 b0 0b 2a
        E 16 b0 0c 10
        E 0 b0 0b 3b
        E 0 80 28 00
        E 0 90 36 3b
        E 16 b0 0b 33
        E 32 b0 0b 2a
        E 32 b0 0b 22
        E 32 b0 0b 19
        E 16 b0 0b 11
        E 16 b0 0b 3b
        E 0 80 36 00
        E 0 90 37 3b
        E 16 b0 0b 33
        E 32 b0 0b 2a
        E 32 b0 0b 22
        E 32 b0 0b 19
        E 16 b0 0b 22
        E 128 b0 0b 3b
        E 16 b0 0b 33
        E 32 b0 0b 2a
        E 16 b0 0b 22
        E 32 b0 0b 19
        E 32 b0 0b 11
        E 16 b0 0b 22
        E 16 b0 0b 19
        E 32 b0 0b 11
        E 32 b0 0b 08
        E 32 80 37 00
        E 16 b0 0b 3b
        E 0 90 37 3b
        E 16 b0 0b 33
        E 32 b0 0b 2a
        E 32 b0 0b 22
        E 32 b0 0b 19
        E 16 b0 0b 11
        E 16 b0 0b 22
        E 16 b0 0b 19
        E 32 b0 0b 11
        E 32 b0 0b 08
        E 32 80 37 00
        E 16 b0 0b 11
        E 0 90 37 11
        E 128 b0 0b 3b
        E 272 b0 0b 22
        E 16 b0 0b 19
        E 32 b0 0b 11
        E 32 b0 0b 08
        E 32 80 37 00
        E 32 b0 0b 3b
        E 0 90 37 3b
        E 16 b0 0b 33
        E 32 b0 0b 2a
        E 32 b0 0b 22
        E 32 b0 0b 19
        E 16 b0 0b 22
        E 16 b0 0b 19
        E 32 b0 0b 11
        E 32 b0 0b 08
        E 32 80 37 00
        E 16 b0 0c 40
        E 0 b0 0b 4c
        E 0 90 28 4c
        E 16 b0 0b 44
        E 32 b0 0b 3b
        E 16 b0 0b 33
        E 32 b0 0b 2a
        E 32 b0 0b 22
        E 16 b0 0b 33
        E 0 80 28 00
        E 0 90 21 33
        E 16 b0 0b 2a
        E 32 b0 0b 22
        E 32 b0 0b 19
        E 32 b0 0b 11
        E 16 b0 0b 33
        E 0 80 21 00
        E 0 90 24 33
        E 16 b0 0b 2a
        E 32 b0 0b 22
        E 16 b0 0b 19
        E 0 80 24 00
        E 0 90 21 19
        E 64 b0 0b 33
        E 0 80 21 00
        E 0 90 28 33
        E 16 b0 0b 2a
        E 16 b0 0b 22
        E 32 b0 0b 19
        E 16 80 28 00
        E 0 90 24 19
        E 16 b0 0b 11
        E 32 b0 0b 08
        E 16 b0 0b 33
        E 0 80 24 00
        E 0 90 2b 33
        E 16 b0 0b 2a
        E 32 b0 0b 22
        E 16 b0 0b 19
        E 0 80 2b 00
        E 0 90 28 19
        E 16 b0 0b 11
        E 32 b0 0b 08
        E 16 b0 0b 33
        E 16 b0 0b 2a
        E 32 b0 0b 22
        E 16 b0 0b 19
        E 0 80 28 00
        E 0 90 2b 19
        E 16 b0 0b 11
        E 16 b0 0b 08
        E 32 80 2b 00
        E 16 b0 0b 33
        E 0 90 24 33
        E 16 b0 0b 2a
        E 32 b0 0b 22
        E 16 b0 0b 19
        E 0 80 24 00
        E 0 90 28 19
        E 16 b0 0b 11
        E 32 b0 0b 08
        E 16 b0 0b 33
        E 16 b0 0b 2a
        E 32 b0 0b 22
        E 16 b0 0b 19
        E 0 80 28 00
        E 0 90 24 19
        E 16 b0 0b 11
        E 32 b0 0b 08
        E 16 b0 0b 33
        E 0 80 24 00
        E 0 90 2b 33
        E 16 b0 0b 2a
        E 16 b0 0b 22
        E 32 b0 0b 19
        E 16 80 2b 00
        E 0 90 28 19
        E 16 b0 0b 11
        E 32 b0 0b 08
        E 16 b0 0b 33
        E 0 80 28 00
        E 0 90 2d 33
        E 16 b0 0b 2a
        E 32 b0 0b 22
        E 16 b0 0b 19
        E 0 80 2d 00
        E 0 90 2b 19
        E 16 b0 0b 11
        E 32 b0 0b 08
        E 16 b0 0b 33
        E 0 80 2b 00
        E 0 90 30 33
        E 16 b0 0b 2a
        E 32 b0 0b 22
        E 16 b0 0b 19
        E 0 80 30 00
        E 0 90 2d 19
        E 16 b0 0b 11
        E 16 b0 0b 08
        E 32 80 2d 00
        E 16 b0 0b 33
        E 0 90 34 33
        E 16 b0 0b 2a
        E 32 b0 0b 22
        E 16 b0 0b 19
        E 0 80 34 00
        E 0 90 30 19
        E 16 b0 0b 11
        E 32 b0 0b 08
        E 16 b0 0b 33
        E 0 80 30 00
        E 0 90 37 33
        E 16 b0 0b 2a
        E 32 b0 0b 22
        E 16 b0 0b 19
        E 0 80 37 00
        E 0 90 34 19
        E 16 b0 0b 11
        E 32 b0 0b 08
        E 16 b0 0b 33
        E 0 80 34 00
        E 0 90 39 33
        E 16 b0 0b 2a
        E 16 b0 0b 22
        E 32 b0 0b 19
        E 16 80 39 00
        E 0 90 37 19
        E 16 b0 0b 11
        E 32 b0 0b 08
        E 16 b0 0b 33
        E 0 80 37 00
        E 0 90 3c 33
        E 16 b0 0b 2a
        E 32 b0 0b 22
        E 16 b0 0b 19
        E 0 80 3c 00
        E 0 90 39 19
        E 16 b0 0b 11
        E 32 b0 0b 08
        E 16 b0 0b 33
        E 0 80 39 00
        E 0 90 40 33
        E 16 b0 0b 2a
        E 32 b0 0b 22
        E 16 b0 0b 19
        E 0 80 40 00
        E 0 90 3c 19
        E 16 b0 0b 11
        E 16 b0 0b 08
        E 32 80 3c 00
        E 16 b0 0b 33
        E 0 90 43 33
        E 16 b0 0b 2a
        E 32 b0 0b 22
        E 16 b0 0b 19
        E 0 80 43 00
        E 0 90 40 19
        E 16 b0 0b 11
        E 32 b0 0b 08
        E 16 b0 0b 33
        E 0 80 40 00
        E 0 90 23 33
        E 16 b0 0b 2a
        E 32 b0 0b 22
        E 16 b0 0b 19
        E 0 80 23 00
        E 0 90 43 19
        E 16 b0 0b 11
        E 32 b0 0b 08
        E 16 b0 0b 33
        E 0 80 43 00
        E 0 90 27 33
        E 16 b0 0b 2a
        E 32 b0 0b 22
        E 16 b0 0b 19
        E 16 80 27 00
        E 0 90 23 19
        E 16 b0 0b 11
        E 32 b0 0b 08
        E 16 b0 0b 33
        E 0 80 23 00
        E 0 90 2a 33
        E 16 b0 0b 2a
        E 32 b0 0b 22
        E 16 b0 0b 19
        E 0 80 2a 00
        E 0 90 27 19
        E 16 b0 0b 11
        E 32 b0 0b 08
        E 16 b0 0b 33
        E 0 80 27 00
        E 0 90 2d 33
        E 16 b0 0b 2a
        E 32 b0 0b 22
        E 16 b0 0b 19
        E 0 80 2d 00
        E 0 90 2a 19
        E 16 b0 0b 11
        E 32 b0 0b 08
        E 16 80 2a 00
        E 16 b0 0b 33
        E 0 90 2a 33
        E 16 b0 0b 2a
        E 32 b0 0b 22
        E 16 b0 0b 19
        E 0 80 2a 00
        E 0 90 2d 19
        E 16 b0 0b 11
        E 32 b0 0b 08
        E 16 b0 0b 33
        E 0 80 2d 00
        E 0 90 27 33
        E 16 b0 0b 2a
        E 32 b0 0b 22
        E 16 b0 0b 19
        E 0 80 27 00
        E 0 90 2a 19
        E 16 b0 0b 11
        E 32 b0 0b 08
        E 16 b0 0b 33
        E 16 b0 0b 2a
        E 32 b0 0b 22
        E 16 b0 0b 19
        E 16 80 2a 00
        E 0 90 27 19
        E 16 b0 0b 11
        E 32 b0 0b 08
        E 16 b0 0b 33
        E 0 80 27 00
        E 0 90 2d 33
        E 16 b0 0b 2a
        E 32 b0 0b 22
        E 16 b0 0b 19
        E 0 80 2d 00
        E 0 90 2a 19
        E 16 b0 0b 11
        E 32 b0 0b 08
        E 16 b0 0b 33
        E 0 80 2a 00
        E 0 90 2f 33
        E 16 b0 0b 2a
        E 32 b0 0b 22
        E 16 b0 0b 19
        E 0 80 2f 00
        E 0 90 1d 19
        E 16 b0 0b 11
        E 32 b0 0b 08
        E 16 80 1d 00
        E 16 b0 0b 33
        E 0 90 33 33
        E 16 b0 0b 2a
        E 32 b0 0b 22
        E 16 b0 0b 19
        E 0 80 33 00
        E 0 90 2f 19
        E 16 b0 0b 11
        E 32 b0 0b 08
        E 16 b0 0b 33
        E 0 80 2f 00
        E 0 90 36 33
        E 16 b0 0b 2a
        E 32 b0 0b 22
        E 16 b0 0b 19
        E 0 80 36 00
        E 0 90 33 19
        E 16 b0 0b 11
        E 32 b0 0b 08
        E 16 b0 0b 33
        E 0 80 33 00
        E 0 90 39 33
        E 16 b0 0b 2a
        E 32 b0 0b 22
        E 16 b0 0b 19
        E 16 80 39 00
        E 0 90 36 19
        E 16 b0 0b 11
        E 32 b0 0b 08
        E 16 b0 0b 33
        E 0 80 36 00
        E 0 90 3b 33
        E 16 b0 0b 2a
        E 32 b0 0b 22
        E 16 b0 0b 19
        E 0 80 3b 00
        E 0 90 39 19
        E 16 b0 0b 11
        E 32 b0 0b 08
        E 16 b0 0b 33
        E 0 80 39 00
        E 0 90 3f 33
        E 16 b0 0b 2a
        E 32 b0 0b 22
        E 16 b0 0b 19
        E 0 80 3f 00
        E 0 90 3b 19
        E 16 b0 0b 11
        E 32 b0 0b 08
        E 16 80 3b 00
        E 16 b0 0b 33
        E 0 90 42 33
        E 16 b0 0b 2a
        E 32 b0 0b 22
        E 16 b0 0b 19
        E 0 80 42 00
        E 0 90 3f 19
        E 16 b0 0b 11
        E 32 b0 0b 08
        E 16 b0 0b 33
        E 0 80 3f 00
        E 0 90 45 33
        E 16 b0 0b 2a
        E 32 b0 0b 22
        E 16 b0 0b 19
        E 0 80 45 00
        E 0 90 42 19
        E 64 80 42 00
        E 4304 b0 0c 10
        E 0 b0 0b 22
        E 0 90 34 22
        E 16 b0 0b 19
        E 32 b0 0b 11
        E 32 b0 0b 08
        E 32 80 34 00
        E 16 b0 0b 19
        E 0 90 34 19
        E 16 b0 0b 11
        E 32 b0 0b 08
        E 32 80 34 00
        E 64 b0 0b 11
        E 0 90 34 11
        E 48 b0 0b 08
        E 64 80 34 00
        E 16 90 34 08
        E 80 80 34 00
        E 48 b0 0b 22
        E 0 90 34 22
        E 16 b0 0b 19
        E 16 b0 0b 11
        E 32 b0 0b 08
        E 32 80 34 00
        E 48 b0 0b 19
        E 0 90 34 19
        E 16 b0 0b 11
        E 32 b0 0b 08
        E 32 80 34 00
        E 48 b0 0b 11
        E 0 90 34 11
        E 48 b0 0b 08
        E 48 80 34 00
        E 48 90 34 08
        E 80 80 34 00
        E 48 b0 0b 22
        E 0 90 34 22
        E 16 b0 0b 19
        E 32 b0 0b 11
        E 32 b0 0b 08
        E 32 80 34 00
        E 16 b0 0b 19
        E 0 90 34 19
        E 16 b0 0b 11
        E 16 b0 0b 08
        E 32 80 34 00
        E 80 b0 0b 11
        E 0 90 34 11
        E 48 b0 0b 08
        E 64 80 34 00
        E 16 90 34 08
        E 80 80 34 00
        E 64 b0 0b 22
        E 0 90 34 22
        E 16 b0 0b 19
        E 32 b0 0b 11
        E 32 b0 0b 08
        E 32 80 34 00
        E 16 b0 0b 19
        E 0 90 34 19
        E 16 b0 0b 11
        E 32 b0 0b 08
        E 32 80 34 00
        E 48 b0 0b 11
        E 0 90 34 11
        E 48 b0 0b 08
        E 48 80 34 00
        E 48 90 34 08
        E 80 80 34 00
        E 48 b0 0b 22
        E 0 90 34 22
        E 16 b0 0b 19
        E 32 b0 0b 11
        E 32 b0 0b 08
        E 32 80 34 00
        E 32 b0 0b 19
        E 0 90 34 19
        E 16 b0 0b 11
        E 32 b0 0b 08
        E 32 80 34 00
        E 48 b0 0b 11
        E 0 90 34 11
        E 48 b0 0b 08
        E 64 80 34 00
        E 16 90 34 08
        E 64 80 34 00
        E 80 b0 0b 22
        E 0 90 34 22
        E 16 b0 0b 19
        E 32 b0 0b 11
        E 32 b0 0b 08
        E 32 80 34 00
        E 16 b0 0b 19
        E 0 90 34 19
        E 16 b0 0b 11
        E 32 b0 0b 08
        E 32 80 34 00
        E 64 b0 0b 11
        E 0 90 34 11
        E 48 b0 0b 08
        E 64 80 34 00
        E 16 90 34 08
        E 80 80 34 00
        E 48 b0 0b 22
        E 0 90 34 22
        E 16 b0 0b 19
        E 32 b0 0b 11
        E 16 b0 0b 08
        E 32 80 34 00
        E 48 b0 0b 19
        E 0 90 34 19
        E 16 b0 0b 11
        E 32 b0 0b 08
        E 32 80 34 00
        E 48 b0 0b 11
        E 0 90 34 11
        E 48 b0 0b 08
        E 64 80 34 00
        E 32 90 34 08
        E 80 80 34 00
        E 48 b0 0b 22
        E 0 90 34 22
        E 16 b0 0b 19
        E 32 b0 0b 11
        E 32 b0 0b 08
        E 32 80 34 00
        E 16 b0 0b 19
        E 0 90 34 19
        E 16 b0 0b 11
        E 32 b0 0b 08
        E 32 80 34 00
        E 64 b0 0b 11
        E 0 90 34 11
        E 48 b0 0b 08
        E 64 80 34 00
        E 16 90 34 08
        E 80 80 34 00
        E 48 b0 0c 40
        E 0 b0 0b 3b
        E 0 90 28 3b
        E 16 b0 0b 33
        E 16 b0 0b 2a
        E 32 b0 0b 22
        E 32 b0 0b 19
        E 32 b0 0b 11
        E 16 b0 0b 22
        E 16 b0 0b 19
        E 32 b0 0b 11
        E 32 b0 0b 08
        E 32 80 28 00
        E 16 b0 0b 11
        E 0 90 28 11
        E 48 b0 0b 08
        E 48 80 28 00
        E 48 90 28 08
        E 80 80 28 00
        E 48 b0 0b 3b
        E 0 90 28 3b
        E 16 b0 0b 33
        E 32 b0 0b 2a
        E 32 b0 0b 22
        E 32 b0 0b 19
        E 16 b0 0b 3b
        E 0 80 28 00
        E 0 90 26 3b
        E 16 b0 0b 33
        E 16 b0 0b 2a
        E 32 b0 0b 22
        E 32 b0 0b 19
        E 32 b0 0b 11
        E 16 b0 0b 22
        E 16 b0 0b 19
        E 32 b0 0b 11
        E 32 b0 0b 08
        E 32 80 26 00
        E 16 b0 0b 11
        E 0 90 26 11
        E 48 b0 0b 08
        E 48 80 26 00
        E 48 b0 0b 5d
        E 0 90 28 5d
        E 16 b0 0b 55
        E 32 b0 0b 4c
        E 32 b0 0b 44
        E 32 b0 0b 3b
        E 32 b0 0b 33
        E 32 b0 0b 2a
        E 32 b0 0b 22
        E 32 b0 0b 19
        E 16 b0 0b 11
        E 0 80 28 00
        E 0 90 33 11
        E 128 b0 0b 19
        E 160 b0 0b 22
        E 64 80 33 00
        E 0 90 34 22
        E 80 b0 0b 2a
        E 160 b0 0b 33
        E 144 b0 0b 3b
        E 80 b0 0c 60
        E 0 b0 0b 33
        E 0 80 34 00
        E 0 90 2d 33
        E 128 80 2d 00
        E 0 90 37 33
        E 16 b0 0b 2a
        E 32 b0 0b 22
        E 32 b0 0b 19
        E 32 b0 0b 11
        E 16 b0 0b 08
        E 16 b0 0b 33
        E 16 b0 0b 2a
        E 32 b0 0b 22
        E 32 b0 0b 19
        E 32 b0 0b 11
        E 16 b0 0b 33
        E 0 80 37 00
        E 0 90 2d 33
        E 16 b0 0b 2a
        E 32 b0 0b 22
        E 32 b0 0b 19
        E 32 b0 0b 11
        E 16 b0 0b 33
        E 0 80 2d 00
        E 0 90 34 33
        E 16 b0 0b 2a
        E 32 b0 0b 22
        E 16 b0 0b 19
        E 32 b0 0b 11
        E 32 b0 0b 08
        E 16 b0 0b 33
        E 0 80 34 00
        E 0 90 2d 33
        E 16 b0 0b 2a
        E 32 b0 0b 22
        E 32 b0 0b 19
        E 32 b0 0b 11
        E 16 b0 0b 33
        E 0 80 2d 00
        E 0 90 34 33
        E 16 b0 0b 2a
        E 32 b0 0b 22
        E 32 b0 0b 19
        E 32 b0 0b 11
        E 16 b0 0b 08
        E 16 b0 0b 33
        E 16 b0 0b 2a
        E 32 b0 0b 22
        E 32 b0 0b 19
        E 32 b0 0b 11
        E 16 b0 0b 33
        E 0 80 34 00
        E 0 90 2d 33
        E 16 b0 0b 2a
        E 32 b0 0b 22
        E 32 b0 0b 19
        E 32 b0 0b 11
        E 16 b0 0b 33
        E 0 80 2d 00
        E 0 90 37 33
        E 16 b0 0b 2a
        E 32 b0 0b 22
        E 16 b0 0b 19
        E 32 b0 0b 11
        E 32 b0 0b 08
        E 16 b0 0b 33
        E 16 b0 0b 2a
        E 32 b0 0b 22
        E 32 b0 0b 19
        E 32 b0 0b 11
        E 16 b0 0b 33
        E 0 80 37 00
        E 0 90 2d 33
        E 16 b0 0b 2a
        E 32 b0 0b 22
        E 32 b0 0b 19
        E 32 b0 0b 11
        E 16 b0 0b 33
        E 0 80 2d 00
        E 0 90 34 33
        E 16 b0 0b 2a
        E 16 b0 0b 22
        E 32 b0 0b 19
        E 32 b0 0b 11
        E 32 b0 0b 08
        E 16 b0 0b 33
        E 0 80 34 00
        E 0 90 2d 33
        E 16 b0 0b 2a
        E 32 b0 0b 22
        E 32 b0 0b 19
        E 32 b0 0b 11
        E 16 b0 0b 33
        E 0 80 2d 00
        E 0 90 34 33
        E 16 b0 0b 2a
        E 32 b0 0b 22
        E 32 b0 0b 19
        E 16 b0 0b 11
        E 32 b0 0b 08
        E 16 b0 0b 33
        E 16 b0 0b 2a
        E 32 b0 0b 22
        E 32 b0 0b 19
        E 32 b0 0b 11
        E 16 b0 0c 20
        E 0 b0 0b 3b
        E 0 80 34 00
        E 0 90 23 3b
        E 16 b0 0b 33
        E 32 b0 0b 2a
        E 32 b0 0b 22
        E 32 b0 0b 19
        E 32 b0 0b 11
        E 16 b0 0b 08
        E 32 80 23 00
        E 80 b0 0b 3b
        E 0 90 23 3b
        E 16 b0 0b 33
        E 32 b0 0b 2a
        E 32 b0 0b 22
        E 32 b0 0b 19
        E 32 b0 0b 11
        E 32 b0 0b 08
        E 32 80 23 00
        E 64 b0 0b 3b
        E 0 90 23 3b
        E 16 b0 0b 33
        E 32 b0 0b 2a
        E 32 b0 0b 22
        E 32 b0 0b 19
        E 16 b0 0b 3b
        E 0 80 23 00
        E 0 90 21 3b
        E 48 b0 0b 33
        E 64 b0 0b 2a
        E 48 b0 0b 22
        E 64 b0 0b 19
        E 48 b0 0b 3b
        E 0 80 21 00
        E 0 90 23 3b
        E 16 b0 0b 33
        E 32 b0 0b 2a
        E 32 b0 0b 22
        E 32 b0 0b 19
        E 32 b0 0b 11
        E 32 b0 0b 08
        E 32 80 23 00
        E 64 b0 0b 3b
        E 0 90 23 3b
        E 16 b0 0b 33
        E 32 b0 0b 2a
        E 32 b0 0b 22
        E 32 b0 0b 19
        E 16 b0 0b 3b
        E 16 b0 0b 33
        E 32 b0 0b 2a
        E 32 b0 0b 22
        E 32 b0 0b 19
        E 32 b0 0b 11
        E 32 b0 0b 08
        E 16 80 23 00
        E 80 b0 0b 3b
        E 0 90 23 3b
        E 16 b0 0b 33
        E 32 b0 0b 2a
        E 32 b0 0b 22
        E 32 b0 0b 19
        E 16 b0 0b 3b
        E 0 80 23 00
        E 0 90 26 3b
        E 48 b0 0b 33
        E 64 b0 0b 2a
        E 48 b0 0b 22
        E 64 b0 0b 19
        E 64 b0 0b 11
        E 64 b0 0b 08
        E 48 b0 0b 3b
        E 0 80 26 00
        E 0 90 23 3b
        E 16 b0 0b 33
        E 32 b0 0b 2a
        E 16 b0 0b 22
        E 32 b0 0b 19
        E 32 b0 0b 11
        E 32 b0 0b 08
        E 32 80 23 00
        E 80 b0 0b 3b
        E 0 90 23 3b
        E 16 b0 0b 33
        E 32 b0 0b 2a
        E 32 b0 0b 22
        E 32 b0 0b 19
        E 16 b0 0b 11
        E 32 b0 0b 08
        E 32 80 23 00
        E 80 b0 0b 3b
        E 0 90 23 3b
        E 16 b0 0b 33
        E 32 b0 0b 2a
        E 32 b0 0b 22
        E 32 b0 0b 19
        E 16 b0 0b 3b
        E 0 80 23 00
        E 0 90 21 3b
        E 48 b0 0b 33
        E 48 b0 0b 2a
        E 64 b0 0b 22
        E 64 b0 0b 19
        E 48 b0 0b 3b
        E 0 80 21 00
        E 0 90 23 3b
        E 16 b0 0b 33
        E 32 b0 0b 2a
        E 32 b0 0b 22
        E 32 b0 0b 19
        E 16 b0 0b 11
        E 32 b0 0b 08
        E 32 80 23 00
        E 80 b0 0b 3b
        E 0 90 23 3b
        E 16 b0 0b 33
        E 32 b0 0b 2a
        E 32 b0 0b 22
        E 32 b0 0b 19
        E 16 b0 0b 3b
        E 16 b0 0b 33
        E 32 b0 0b 2a
        E 32 b0 0b 22
        E 16 b0 0b 19
        E 32 b0 0b 11
        E 32 b0 0b 08
        E 32 80 23 00
        E 80 b0 0b 3b
        E 0 90 23 3b
        E 16 b0 0b 33
        E 32 b0 0b 2a
        E 32 b0 0b 22
        E 32 b0 0b 19
        E 16 b0 0b 3b
        E 0 80 23 00
        E 0 90 26 3b
        E 32 b0 0b 33
        E 64 b0 0b 2a
        E 64 b0 0b 22
        E 64 b0 0b 19
        E 64 b0 0b 11
        E 64 b0 0b 08
        E 48 80 26 00
        E 16 b0 0c 60
        E 0 b0 0b 33
        E 0 90 2d 33
        E 48 b0 0b 2a
        E 64 b0 0b 22
        E 16 b0 0b 33
        E 0 80 2d 00
        E 0 90 37 33
        E 16 b0 0b 2a
        E 32 b0 0b 22
        E 32 b0 0b 19
        E 32 b0 0b 11
        E 16 b0 0b 33
        E 16 b0 0b 2a
        E 16 b0 0b 22
        E 32 b0 0b 19
        E 32 b0 0b 11
        E 32 b0 0b 08
        E 16 b0 0b 33
        E 0 80 37 00
        E 0 90 2d 33
        E 16 b0 0b 2a
        E 32 b0 0b 22
        E 32 b0 0b 19
        E 32 b0 0b 11
        E 16 b0 0b 33
        E 0 80 2d 00
        E 0 90 34 33
        E 16 b0 0b 2a
        E 32 b0 0b 22
        E 32 b0 0b 19
        E 16 b0 0b 11
        E 32 b0 0b 08
        E 16 b0 0b 33
        E 0 80 34 00
        E 0 90 2d 33
        E 16 b0 0b 2a
        E 32 b0 0b 22
        E 32 b0 0b 19
        E 32 b0 0b 11
        E 16 b0 0b 33
        E 0 80 2d 00
        E 0 90 34 33
        E 16 b0 0b 2a
        E 32 b0 0b 22
        E 32 b0 0b 19
        E 32 b0 0b 11
        E 16 b0 0b 33
        E 16 b0 0b 2a
        E 16 b0 0b 22
        E 32 b0 0b 19
        E 32 b0 0b 11
        E 32 b0 0b 08
        E 16 b0 0b 33
        E 0 80 34 00
        E 0 90 2d 33
        E 16 b0 0b 2a
        E 32 b0 0b 22
        E 32 b0 0b 19
        E 32 b0 0b 11
        E 16 b0 0b 33
        E 0 80 2d 00
        E 0 90 37 33
        E 16 b0 0b 2a
        E 32 b0 0b 22
        E 32 b0 0b 19
        E 32 b0 0b 11
        E 16 b0 0b 08
        E 16 b0 0b 33
        E 16 b0 0b 2a
        E 32 b0 0b 22
        E 32 b0 0b 19
        E 32 b0 0b 11
        E 16 b0 0b 33
        E 0 80 37 00
        E 0 90 2d 33
        E 16 b0 0b 2a
        E 32 b0 0b 22
        E 32 b0 0b 19
        E 32 b0 0b 11
        E 16 b0 0b 33
        E 0 80 2d 00
        E 0 90 34 33
        E 16 b0 0b 2a
        E 32 b0 0b 22
        E 16 b0 0b 19
        E 32 b0 0b 11
        E 32 b0 0b 08
        E 16 b0 0b 33
        E 0 80 34 00
        E 0 90 2d 33
        E 16 b0 0b 2a
        E 32 b0 0b 22
        E 32 b0 0b 19
        E 32 b0 0b 11
        E 16 b0 0b 33
        E 0 80 2d 00
        E 0 90 34 33
        E 16 b0 0b 2a
        E 32 b0 0b 22
        E 32 b0 0b 19
        E 32 b0 0b 11
        E 16 b0 0b 08
        E 16 b0 0b 33
        E 16 b0 0b 2a
        E 32 b0 0b 22
        E 32 b0 0b 19
        E 32 b0 0b 11
        E 16 b0 0c 10
        E 0 b0 0b 3b
        E 0 80 34 00
        E 0 90 2f 3b
        E 16 b0 0b 33
        E 32 b0 0b 2a
        E 32 b0 0b 22
        E 32 b0 0b 19
        E 16 b0 0b 22
        E 144 b0 0b 3b
        E 0 80 2f 00
        E 0 90 36 3b
        E 144 b0 0b 33
        E 32 b0 0b 2a
        E 32 b0 0b 22
        E 32 b0 0b 19
        E 16 b0 0b 11
        E 16 b0 0b 22
        E 128 b0 0b 3b
        E 0 80 36 00
        E 0 90 37 3b
        E 16 b0 0b 33
        E 32 b0 0b 2a
        E 32 b0 0b 22
        E 32 b0 0b 19
        E 16 b0 0b 22
        E 16 b0 0b 19
        E 32 b0 0b 11
        E 16 b0 0b 08
        E 32 80 37 00
        E 48 b0 0b 3b
        E 0 90 39 3b
        E 16 b0 0b 33
        E 32 b0 0b 2a
        E 32 b0 0b 22
        E 32 b0 0b 19
        E 16 b0 0b 22
        E 16 b0 0b 19
        E 32 b0 0b 11
        E 32 b0 0b 08
        E 32 80 39 00
        E 16 b0 0b 11
        E 0 90 39 11
        E 144 b0 0b 3b
        E 272 b0 0b 22
        E 128 b0 0b 3b
        E 128 b0 0b 22
        E 144 b0 0b 11
        E 128 80 39 00
        E 1744 b0 7b 00
        E 0 ff 2f 00
      >
    >
  >
  <TRACK {D6315EB4-7DC9-4CB0-85EB-3168CD72DC75}
    NAME "NES - Pulse 2 [ch1]"
    PEAKCOL 10092441
    BEAT -1
    AUTOMODE 0
    PANLAWFLAGS 3
    VOLPAN 1 0 -1 -1 1
    MUTESOLO 0 0 0
    IPHASE 0
    PLAYOFFS 0 1
    ISBUS 0 0
    BUSCOMP 0 0 0 0 0
    SHOWINMIX 1 0.6667 0.5 1 0.5 0 0 0
    FIXEDLANES 9 0 0 0 0
    SEL 0
    REC 0 5088 1 0 0 0 0 0
    VU 2
    TRACKHEIGHT 0 0 0 0 0 0 0
    INQ 0 0 0 0.5 100 0 0 100
    NCHAN 2
    FX 1
    TRACKID {D6315EB4-7DC9-4CB0-85EB-3168CD72DC75}
    PERF 0
    MIDIOUT -1
    MAINSEND 1 0
    <FXCHAIN
      WNDRECT 24 52 700 560
      SHOW 0
      LASTSEL 0
      DOCKED 0
      BYPASS 0 0 0
      <JS "ReapNES Studio/ReapNES_Console.jsfx" ""
        2 15 1 10 80 10 100 2 1 15 1 5 60 10 80 1 1 0 50 0 0 15 1 0 100 0 0 0.500000 0.500000 0.400000 0.300000 0.800000 1 1 0 0 0 0 - - - - - - - - - - - - - - - - - - - - - - - - - -
      >
      FLOATPOS 0 0 0 0
      FXID {01E135F0-5F1B-44DF-8C39-C27DA34DDB85}
      WAK 0 0
    >
    <ITEM
      POSITION 0
      LENGTH 145.59876020000002
      LOOP 0
      ALLTAKES 0
      FADEIN 0 0 0 0 0 0 0
      FADEOUT 0 0 0 0 0 0 0
      MUTE 0 0
      SEL 0
      IGUID {B5FE532A-1D2B-42B1-9B29-5568DCBBE0FE}
      <SOURCE MIDI
        HASDATA 1 480 QN
        CCINTERP 32
        E 0 c1 51
        E 96 b1 0c 20
        E 0 b1 0b 33
        E 0 91 1c 33
        E 16 b1 0b 2a
        E 32 b1 0b 22
        E 32 b1 0b 19
        E 32 b1 0b 11
        E 32 b1 0b 08
        E 32 81 1c 00
        E 96 b1 0b 33
        E 0 91 1c 33
        E 16 b1 0b 2a
        E 32 b1 0b 22
        E 32 b1 0b 19
        E 32 b1 0b 11
        E 16 b1 0b 33
        E 0 81 1c 00
        E 0 91 1a 33
        E 48 b1 0b 2a
        E 64 b1 0b 22
        E 64 b1 0b 19
        E 48 b1 0b 11
        E 48 b1 0b 33
        E 0 81 1a 00
        E 0 91 1c 33
        E 16 b1 0b 2a
        E 32 b1 0b 22
        E 32 b1 0b 19
        E 32 b1 0b 11
        E 32 b1 0b 08
        E 32 81 1c 00
        E 96 b1 0b 33
        E 0 91 1c 33
        E 16 b1 0b 2a
        E 32 b1 0b 22
        E 32 b1 0b 19
        E 32 b1 0b 11
        E 16 b1 0b 33
        E 16 b1 0b 2a
        E 32 b1 0b 22
        E 32 b1 0b 19
        E 32 b1 0b 11
        E 32 b1 0b 08
        E 32 81 1c 00
        E 96 b1 0b 33
        E 0 91 1c 33
        E 16 b1 0b 2a
        E 32 b1 0b 22
        E 32 b1 0b 19
        E 32 b1 0b 11
        E 16 b1 0b 33
        E 0 81 1c 00
        E 0 91 1f 33
        E 48 b1 0b 2a
        E 64 b1 0b 22
        E 48 b1 0b 19
        E 64 b1 0b 11
        E 64 b1 0b 08
        E 64 81 1f 00
        E 48 b1 0b 33
        E 0 91 1c 33
        E 16 b1 0b 2a
        E 32 b1 0b 22
        E 32 b1 0b 19
        E 16 b1 0b 11
        E 32 b1 0b 08
        E 32 81 1c 00
        E 112 b1 0b 33
        E 0 91 1c 33
        E 16 b1 0b 2a
        E 32 b1 0b 22
        E 32 b1 0b 19
        E 32 b1 0b 11
        E 32 b1 0b 08
        E 16 81 1c 00
        E 112 b1 0b 33
        E 0 91 1c 33
        E 16 b1 0b 2a
        E 32 b1 0b 22
        E 32 b1 0b 19
        E 32 b1 0b 11
        E 16 b1 0b 33
        E 0 81 1c 00
        E 0 91 1a 33
        E 48 b1 0b 2a
        E 48 b1 0b 22
        E 64 b1 0b 19
        E 64 b1 0b 11
        E 48 b1 0b 33
        E 0 81 1a 00
        E 0 91 1c 33
        E 16 b1 0b 2a
        E 32 b1 0b 22
        E 32 b1 0b 19
        E 32 b1 0b 11
        E 32 b1 0b 08
        E 16 81 1c 00
        E 112 b1 0b 33
        E 0 91 1c 33
        E 16 b1 0b 2a
        E 32 b1 0b 22
        E 32 b1 0b 19
        E 32 b1 0b 11
        E 16 b1 0b 33
        E 16 b1 0b 2a
        E 32 b1 0b 22
        E 32 b1 0b 19
        E 16 b1 0b 11
        E 32 b1 0b 08
        E 32 81 1c 00
        E 112 b1 0b 33
        E 0 91 1c 33
        E 16 b1 0b 2a
        E 32 b1 0b 22
        E 32 b1 0b 19
        E 32 b1 0b 11
        E 16 b1 0b 33
        E 0 81 1c 00
        E 0 91 1f 33
        E 48 b1 0b 2a
        E 48 b1 0b 22
        E 64 b1 0b 19
        E 64 b1 0b 11
        E 64 b1 0b 08
        E 64 81 1f 00
        E 64 b1 0b 33
        E 0 91 1c 33
        E 16 b1 0b 2a
        E 32 b1 0b 22
        E 32 b1 0b 19
        E 32 b1 0b 11
        E 32 b1 0b 08
        E 32 81 1c 00
        E 80 b1 0b 33
        E 0 91 1c 33
        E 16 b1 0b 2a
        E 32 b1 0b 22
        E 16 b1 0b 19
        E 32 b1 0b 11
        E 32 b1 0b 08
        E 32 81 1c 00
        E 112 b1 0b 33
        E 0 91 1c 33
        E 16 b1 0b 2a
        E 32 b1 0b 22
        E 32 b1 0b 19
        E 32 b1 0b 11
        E 16 b1 0b 08
        E 16 b1 0b 33
        E 0 81 1c 00
        E 0 91 1a 33
        E 48 b1 0b 2a
        E 64 b1 0b 22
        E 64 b1 0b 19
        E 64 b1 0b 11
        E 16 b1 0b 33
        E 0 81 1a 00
        E 0 91 1c 33
        E 16 b1 0b 2a
        E 32 b1 0b 22
        E 16 b1 0b 19
        E 32 b1 0b 11
        E 32 b1 0b 08
        E 32 81 1c 00
        E 112 b1 0b 33
        E 0 91 1c 33
        E 16 b1 0b 2a
        E 32 b1 0b 22
        E 32 b1 0b 19
        E 32 b1 0b 11
        E 16 b1 0b 08
        E 16 b1 0b 33
        E 16 b1 0b 2a
        E 32 b1 0b 22
        E 32 b1 0b 19
        E 32 b1 0b 11
        E 32 b1 0b 08
        E 32 81 1c 00
        E 80 b1 0b 33
        E 0 91 1c 33
        E 16 b1 0b 2a
        E 32 b1 0b 22
        E 32 b1 0b 19
        E 16 b1 0b 11
        E 32 b1 0b 08
        E 16 b1 0b 33
        E 0 81 1c 00
        E 0 91 1f 33
        E 48 b1 0b 2a
        E 64 b1 0b 22
        E 64 b1 0b 19
        E 64 b1 0b 11
        E 48 b1 0b 08
        E 64 81 1f 00
        E 48 b1 0c 40
        E 0 b1 0b 3b
        E 0 91 23 3b
        E 16 b1 0b 33
        E 32 b1 0b 2a
        E 32 b1 0b 22
        E 32 b1 0b 19
        E 16 b1 0b 22
        E 16 b1 0b 19
        E 32 b1 0b 11
        E 32 b1 0b 08
        E 16 81 23 00
        E 48 b1 0b 11
        E 0 91 23 11
        E 48 b1 0b 08
        E 64 81 23 00
        E 16 91 23 08
        E 80 81 23 00
        E 48 b1 0b 3b
        E 0 91 23 3b
        E 16 b1 0b 33
        E 16 b1 0b 2a
        E 32 b1 0b 22
        E 32 b1 0b 19
        E 32 b1 0b 11
        E 16 b1 0b 3b
        E 0 81 23 00
        E 0 91 21 3b
        E 16 b1 0b 33
        E 32 b1 0b 2a
        E 32 b1 0b 22
        E 32 b1 0b 19
        E 16 b1 0b 22
        E 16 b1 0b 19
        E 32 b1 0b 11
        E 32 b1 0b 08
        E 16 81 21 00
        E 48 b1 0b 11
        E 0 91 21 11
        E 48 b1 0b 08
        E 64 81 21 00
        E 16 b1 0b 5d
        E 0 91 23 5d
        E 16 b1 0b 55
        E 32 b1 0b 4c
        E 32 b1 0b 44
        E 32 b1 0b 3b
        E 32 b1 0b 33
        E 16 b1 0b 2a
        E 32 b1 0b 22
        E 32 b1 0b 19
        E 32 b1 0b 11
        E 16 81 23 00
        E 0 91 2d 11
        E 144 b1 0b 19
        E 144 b1 0b 22
        E 160 b1 0b 2a
        E 32 81 2d 00
        E 0 91 2e 2a
        E 112 b1 0b 33
        E 160 b1 0b 3b
        E 48 b1 0c 60
        E 0 b1 0b 33
        E 0 81 2e 00
        E 0 91 21 33
        E 128 b1 0b 3b
        E 16 b1 0b 33
        E 0 81 21 00
        E 0 91 34 33
        E 16 b1 0b 2a
        E 32 b1 0b 22
        E 32 b1 0b 19
        E 32 b1 0b 11
        E 16 b1 0b 33
        E 16 b1 0b 2a
        E 32 b1 0b 22
        E 32 b1 0b 19
        E 32 b1 0b 11
        E 16 b1 0b 33
        E 0 81 34 00
        E 0 91 21 33
        E 16 b1 0b 2a
        E 32 b1 0b 22
        E 16 b1 0b 19
        E 32 b1 0b 11
        E 32 b1 0b 08
        E 16 b1 0b 33
        E 0 81 21 00
        E 0 91 30 33
        E 16 b1 0b 2a
        E 32 b1 0b 22
        E 32 b1 0b 19
        E 32 b1 0b 11
        E 16 b1 0b 33
        E 0 81 30 00
        E 0 91 21 33
        E 16 b1 0b 2a
        E 32 b1 0b 22
        E 32 b1 0b 19
        E 32 b1 0b 11
        E 16 b1 0b 08
        E 16 b1 0b 33
        E 0 81 21 00
        E 0 91 30 33
        E 16 b1 0b 2a
        E 32 b1 0b 22
        E 32 b1 0b 19
        E 32 b1 0b 11
        E 16 b1 0b 33
        E 16 b1 0b 2a
        E 32 b1 0b 22
        E 32 b1 0b 19
        E 32 b1 0b 11
        E 16 b1 0b 33
        E 0 81 30 00
        E 0 91 21 33
        E 16 b1 0b 2a
        E 32 b1 0b 22
        E 16 b1 0b 19
        E 32 b1 0b 11
        E 32 b1 0b 08
        E 16 b1 0b 33
        E 0 81 21 00
        E 0 91 34 33
        E 16 b1 0b 2a
        E 32 b1 0b 22
        E 32 b1 0b 19
        E 32 b1 0b 11
        E 16 b1 0b 33
        E 16 b1 0b 2a
        E 32 b1 0b 22
        E 32 b1 0b 19
        E 32 b1 0b 11
        E 16 b1 0b 33
        E 0 81 34 00
        E 0 91 21 33
        E 16 b1 0b 2a
        E 16 b1 0b 22
        E 32 b1 0b 19
        E 32 b1 0b 11
        E 32 b1 0b 08
        E 16 b1 0b 33
        E 0 81 21 00
        E 0 91 30 33
        E 16 b1 0b 2a
        E 32 b1 0b 22
        E 32 b1 0b 19
        E 32 b1 0b 11
        E 16 b1 0b 33
        E 0 81 30 00
        E 0 91 21 33
        E 16 b1 0b 2a
        E 32 b1 0b 22
        E 32 b1 0b 19
        E 16 b1 0b 11
        E 32 b1 0b 08
        E 16 b1 0b 33
        E 0 81 21 00
        E 0 91 30 33
        E 16 b1 0b 2a
        E 32 b1 0b 22
        E 32 b1 0b 19
        E 32 b1 0b 11
        E 16 b1 0b 33
        E 16 b1 0b 2a
        E 32 b1 0b 22
        E 32 b1 0b 19
        E 32 b1 0b 11
        E 16 b1 0c 20
        E 0 b1 0b 3b
        E 0 81 30 00
        E 0 91 1c 3b
        E 16 b1 0b 33
        E 16 b1 0b 2a
        E 32 b1 0b 22
        E 32 b1 0b 19
        E 32 b1 0b 11
        E 32 b1 0b 08
        E 32 81 1c 00
        E 80 b1 0b 3b
        E 0 91 1c 3b
        E 16 b1 0b 33
        E 32 b1 0b 2a
        E 32 b1 0b 22
        E 16 b1 0b 19
        E 32 b1 0b 11
        E 32 b1 0b 08
        E 32 81 1c 00
        E 80 b1 0b 3b
        E 0 91 1c 3b
        E 16 b1 0b 33
        E 32 b1 0b 2a
        E 32 b1 0b 22
        E 32 b1 0b 19
        E 16 b1 0b 3b
        E 0 81 1c 00
        E 0 91 1a 3b
        E 32 b1 0b 33
        E 64 b1 0b 2a
        E 64 b1 0b 22
        E 64 b1 0b 19
        E 48 b1 0b 3b
        E 0 81 1a 00
        E 0 91 1c 3b
        E 16 b1 0b 33
        E 32 b1 0b 2a
        E 32 b1 0b 22
        E 16 b1 0b 19
        E 32 b1 0b 11
        E 32 b1 0b 08
        E 32 81 1c 00
        E 80 b1 0b 3b
        E 0 91 1c 3b
        E 16 b1 0b 33
        E 32 b1 0b 2a
        E 32 b1 0b 22
        E 32 b1 0b 19
        E 16 b1 0b 3b
        E 16 b1 0b 33
        E 32 b1 0b 2a
        E 16 b1 0b 22
        E 32 b1 0b 19
        E 32 b1 0b 11
        E 32 b1 0b 08
        E 32 81 1c 00
        E 80 b1 0b 3b
        E 0 91 1c 3b
        E 16 b1 0b 33
        E 32 b1 0b 2a
        E 32 b1 0b 22
        E 32 b1 0b 19
        E 16 b1 0b 11
        E 16 b1 0b 3b
        E 0 81 1c 00
        E 0 91 1f 3b
        E 48 b1 0b 33
        E 64 b1 0b 2a
        E 64 b1 0b 22
        E 64 b1 0b 19
        E 64 b1 0b 11
        E 48 b1 0b 08
        E 48 b1 0b 3b
        E 0 81 1f 00
        E 0 91 1c 3b
        E 16 b1 0b 33
        E 32 b1 0b 2a
        E 32 b1 0b 22
        E 32 b1 0b 19
        E 32 b1 0b 11
        E 32 b1 0b 08
        E 32 81 1c 00
        E 64 b1 0b 3b
        E 0 91 1c 3b
        E 16 b1 0b 33
        E 32 b1 0b 2a
        E 32 b1 0b 22
        E 32 b1 0b 19
        E 32 b1 0b 11
        E 32 b1 0b 08
        E 32 81 1c 00
        E 48 b1 0b 3b
        E 0 91 1c 3b
        E 16 b1 0b 33
        E 32 b1 0b 2a
        E 16 b1 0b 22
        E 32 b1 0b 19
        E 32 b1 0b 11
        E 16 b1 0b 3b
        E 0 81 1c 00
        E 0 91 1a 3b
        E 48 b1 0b 33
        E 64 b1 0b 2a
        E 64 b1 0b 22
        E 64 b1 0b 19
        E 32 b1 0b 3b
        E 0 81 1a 00
        E 0 91 1c 3b
        E 16 b1 0b 33
        E 32 b1 0b 2a
        E 32 b1 0b 22
        E 32 b1 0b 19
        E 32 b1 0b 11
        E 32 b1 0b 08
        E 32 81 1c 00
        E 48 b1 0b 3b
        E 0 91 1c 3b
        E 16 b1 0b 33
        E 32 b1 0b 2a
        E 32 b1 0b 22
        E 16 b1 0b 19
        E 32 b1 0b 11
        E 16 b1 0b 3b
        E 16 b1 0b 33
        E 32 b1 0b 2a
        E 32 b1 0b 22
        E 32 b1 0b 19
        E 32 b1 0b 11
        E 32 b1 0b 08
        E 32 81 1c 00
        E 48 b1 0b 3b
        E 0 91 1c 3b
        E 16 b1 0b 33
        E 16 b1 0b 2a
        E 32 b1 0b 22
        E 32 b1 0b 19
        E 32 b1 0b 11
        E 16 b1 0b 3b
        E 0 81 1c 00
        E 0 91 1f 3b
        E 48 b1 0b 33
        E 64 b1 0b 2a
        E 64 b1 0b 22
        E 48 b1 0b 19
        E 64 b1 0b 11
        E 64 b1 0b 08
        E 48 b1 0c 60
        E 0 b1 0b 33
        E 0 81 1f 00
        E 0 91 21 33
        E 16 b1 0b 2a
        E 64 b1 0b 22
        E 48 b1 0b 33
        E 0 81 21 00
        E 0 91 34 33
        E 16 b1 0b 2a
        E 16 b1 0b 22
        E 32 b1 0b 19
        E 32 b1 0b 11
        E 32 b1 0b 08
        E 16 b1 0b 33
        E 16 b1 0b 2a
        E 32 b1 0b 22
        E 32 b1 0b 19
        E 32 b1 0b 11
        E 16 b1 0b 33
        E 0 81 34 00
        E 0 91 21 33
        E 16 b1 0b 2a
        E 32 b1 0b 22
        E 32 b1 0b 19
        E 16 b1 0b 11
        E 32 b1 0b 08
        E 16 b1 0b 33
        E 0 81 21 00
        E 0 91 30 33
        E 16 b1 0b 2a
        E 32 b1 0b 22
        E 32 b1 0b 19
        E 32 b1 0b 11
        E 16 b1 0b 33
        E 0 81 30 00
        E 0 91 21 33
        E 16 b1 0b 2a
        E 32 b1 0b 22
        E 32 b1 0b 19
        E 32 b1 0b 11
        E 16 b1 0b 33
        E 0 81 21 00
        E 0 91 30 33
        E 16 b1 0b 2a
        E 16 b1 0b 22
        E 32 b1 0b 19
        E 32 b1 0b 11
        E 32 b1 0b 08
        E 16 b1 0b 33
        E 16 b1 0b 2a
        E 32 b1 0b 22
        E 32 b1 0b 19
        E 32 b1 0b 11
        E 16 b1 0b 33
        E 0 81 30 00
        E 0 91 21 33
        E 16 b1 0b 2a
        E 32 b1 0b 22
        E 32 b1 0b 19
        E 32 b1 0b 11
        E 16 b1 0b 08
        E 16 b1 0b 33
        E 0 81 21 00
        E 0 91 34 33
        E 16 b1 0b 2a
        E 32 b1 0b 22
        E 32 b1 0b 19
        E 32 b1 0b 11
        E 16 b1 0b 33
        E 16 b1 0b 2a
        E 32 b1 0b 22
        E 32 b1 0b 19
        E 32 b1 0b 11
        E 16 b1 0b 33
        E 0 81 34 00
        E 0 91 21 33
        E 16 b1 0b 2a
        E 32 b1 0b 22
        E 16 b1 0b 19
        E 32 b1 0b 11
        E 32 b1 0b 08
        E 16 b1 0b 33
        E 0 81 21 00
        E 0 91 30 33
        E 16 b1 0b 2a
        E 32 b1 0b 22
        E 32 b1 0b 19
        E 32 b1 0b 11
        E 16 b1 0b 33
        E 0 81 30 00
        E 0 91 21 33
        E 16 b1 0b 2a
        E 32 b1 0b 22
        E 32 b1 0b 19
        E 32 b1 0b 11
        E 16 b1 0b 08
        E 16 b1 0b 33
        E 0 81 21 00
        E 0 91 30 33
        E 16 b1 0b 2a
        E 32 b1 0b 22
        E 32 b1 0b 19
        E 32 b1 0b 11
        E 16 b1 0b 33
        E 16 b1 0b 2a
        E 32 b1 0b 22
        E 32 b1 0b 19
        E 32 b1 0b 11
        E 16 b1 0c 10
        E 0 b1 0b 3b
        E 0 81 30 00
        E 0 91 23 3b
        E 16 b1 0b 33
        E 32 b1 0b 2a
        E 16 b1 0b 22
        E 32 b1 0b 19
        E 32 b1 0b 11
        E 16 b1 0b 22
        E 128 b1 0b 3b
        E 0 81 23 00
        E 0 91 33 3b
        E 160 b1 0b 33
        E 32 b1 0b 2a
        E 32 b1 0b 22
        E 32 b1 0b 19
        E 16 b1 0b 22
        E 128 b1 0b 3b
        E 0 81 33 00
        E 0 91 36 3b
        E 16 b1 0b 33
        E 32 b1 0b 2a
        E 16 b1 0b 22
        E 32 b1 0b 19
        E 32 b1 0b 11
        E 16 b1 0b 22
        E 16 b1 0b 19
        E 32 b1 0b 11
        E 32 b1 0b 08
        E 32 81 36 00
        E 16 b1 0b 3b
        E 0 91 36 3b
        E 16 b1 0b 33
        E 32 b1 0b 2a
        E 32 b1 0b 22
        E 32 b1 0b 19
        E 16 b1 0b 22
        E 16 b1 0b 19
        E 16 b1 0b 11
        E 32 b1 0b 08
        E 32 81 36 00
        E 48 b1 0b 11
        E 0 91 36 11
        E 128 b1 0b 3b
        E 272 b1 0b 22
        E 128 b1 0b 3b
        E 144 b1 0b 22
        E 128 b1 0b 11
        E 144 b1 0c 20
        E 0 b1 0b 33
        E 0 81 36 00
        E 0 91 1c 33
        E 16 b1 0b 2a
        E 32 b1 0b 22
        E 32 b1 0b 19
        E 32 b1 0b 11
        E 32 b1 0b 08
        E 32 81 1c 00
        E 80 b1 0b 33
        E 0 91 1c 33
        E 16 b1 0b 2a
        E 16 b1 0b 22
        E 32 b1 0b 19
        E 32 b1 0b 11
        E 32 b1 0b 08
        E 32 81 1c 00
        E 112 b1 0b 33
        E 0 91 1c 33
        E 16 b1 0b 2a
        E 32 b1 0b 22
        E 32 b1 0b 19
        E 16 b1 0b 11
        E 32 b1 0b 08
        E 16 b1 0b 33
        E 0 81 1c 00
        E 0 91 1a 33
        E 48 b1 0b 2a
        E 64 b1 0b 22
        E 64 b1 0b 19
        E 64 b1 0b 11
        E 16 b1 0b 33
        E 0 81 1a 00
        E 0 91 1c 33
        E 16 b1 0b 2a
        E 32 b1 0b 22
        E 16 b1 0b 19
        E 32 b1 0b 11
        E 32 b1 0b 08
        E 32 81 1c 00
        E 112 b1 0b 33
        E 0 91 1c 33
        E 16 b1 0b 2a
        E 32 b1 0b 22
        E 32 b1 0b 19
        E 32 b1 0b 11
        E 16 b1 0b 08
        E 16 b1 0b 33
        E 16 b1 0b 2a
        E 32 b1 0b 22
        E 32 b1 0b 19
        E 32 b1 0b 11
        E 32 b1 0b 08
        E 32 81 1c 00
        E 80 b1 0b 33
        E 0 91 1c 33
        E 16 b1 0b 2a
        E 32 b1 0b 22
        E 16 b1 0b 19
        E 32 b1 0b 11
        E 32 b1 0b 08
        E 16 b1 0b 33
        E 0 81 1c 00
        E 0 91 1f 33
        E 48 b1 0b 2a
        E 64 b1 0b 22
        E 64 b1 0b 19
        E 64 b1 0b 11
        E 48 b1 0b 08
        E 64 81 1f 00
        E 48 b1 0b 33
        E 0 91 1c 33
        E 16 b1 0b 2a
        E 32 b1 0b 22
        E 32 b1 0b 19
        E 32 b1 0b 11
        E 32 b1 0b 08
        E 32 81 1c 00
        E 96 b1 0b 33
        E 0 91 1c 33
        E 16 b1 0b 2a
        E 32 b1 0b 22
        E 32 b1 0b 19
        E 32 b1 0b 11
        E 32 b1 0b 08
        E 32 81 1c 00
        E 96 b1 0b 33
        E 0 91 1c 33
        E 16 b1 0b 2a
        E 32 b1 0b 22
        E 32 b1 0b 19
        E 32 b1 0b 11
        E 16 b1 0b 33
        E 0 81 1c 00
        E 0 91 1a 33
        E 48 b1 0b 2a
        E 64 b1 0b 22
        E 64 b1 0b 19
        E 48 b1 0b 11
        E 48 b1 0b 33
        E 0 81 1a 00
        E 0 91 1c 33
        E 16 b1 0b 2a
        E 32 b1 0b 22
        E 32 b1 0b 19
        E 32 b1 0b 11
        E 32 b1 0b 08
        E 32 81 1c 00
        E 80 b1 0b 33
        E 0 91 1c 33
        E 16 b1 0b 2a
        E 16 b1 0b 22
        E 32 b1 0b 19
        E 32 b1 0b 11
        E 32 b1 0b 08
        E 16 b1 0b 33
        E 16 b1 0b 2a
        E 32 b1 0b 22
        E 32 b1 0b 19
        E 32 b1 0b 11
        E 32 b1 0b 08
        E 32 81 1c 00
        E 96 b1 0b 33
        E 0 91 1c 33
        E 16 b1 0b 2a
        E 32 b1 0b 22
        E 32 b1 0b 19
        E 32 b1 0b 11
        E 16 b1 0b 33
        E 0 81 1c 00
        E 0 91 1f 33
        E 48 b1 0b 2a
        E 64 b1 0b 22
        E 48 b1 0b 19
        E 64 b1 0b 11
        E 64 b1 0b 08
        E 64 81 1f 00
        E 48 b1 0b 33
        E 0 91 1c 33
        E 16 b1 0b 2a
        E 32 b1 0b 22
        E 32 b1 0b 19
        E 16 b1 0b 11
        E 32 b1 0b 08
        E 32 81 1c 00
        E 112 b1 0b 33
        E 0 91 1c 33
        E 16 b1 0b 2a
        E 32 b1 0b 22
        E 32 b1 0b 19
        E 32 b1 0b 11
        E 32 b1 0b 08
        E 16 81 1c 00
        E 112 b1 0b 33
        E 0 91 1c 33
        E 16 b1 0b 2a
        E 32 b1 0b 22
        E 32 b1 0b 19
        E 32 b1 0b 11
        E 16 b1 0b 33
        E 0 81 1c 00
        E 0 91 1a 33
        E 48 b1 0b 2a
        E 64 b1 0b 22
        E 48 b1 0b 19
        E 64 b1 0b 11
        E 48 b1 0b 33
        E 0 81 1a 00
        E 0 91 1c 33
        E 16 b1 0b 2a
        E 32 b1 0b 22
        E 32 b1 0b 19
        E 32 b1 0b 11
        E 32 b1 0b 08
        E 32 81 1c 00
        E 96 b1 0b 33
        E 0 91 1c 33
        E 16 b1 0b 2a
        E 32 b1 0b 22
        E 32 b1 0b 19
        E 32 b1 0b 11
        E 16 b1 0b 33
        E 16 b1 0b 2a
        E 32 b1 0b 22
        E 32 b1 0b 19
        E 32 b1 0b 11
        E 16 b1 0b 08
        E 32 81 1c 00
        E 112 b1 0b 33
        E 0 91 1c 33
        E 16 b1 0b 2a
        E 32 b1 0b 22
        E 32 b1 0b 19
        E 32 b1 0b 11
        E 16 b1 0b 33
        E 0 81 1c 00
        E 0 91 1f 33
        E 48 b1 0b 2a
        E 48 b1 0b 22
        E 64 b1 0b 19
        E 64 b1 0b 11
        E 64 b1 0b 08
        E 64 81 1f 00
        E 64 b1 0b 33
        E 0 91 1c 33
        E 16 b1 0b 2a
        E 32 b1 0b 22
        E 32 b1 0b 19
        E 32 b1 0b 11
        E 32 b1 0b 08
        E 32 81 1c 00
        E 80 b1 0b 33
        E 0 91 1c 33
        E 16 b1 0b 2a
        E 32 b1 0b 22
        E 16 b1 0b 19
        E 32 b1 0b 11
        E 32 b1 0b 08
        E 32 81 1c 00
        E 112 b1 0b 33
        E 0 91 1c 33
        E 16 b1 0b 2a
        E 32 b1 0b 22
        E 32 b1 0b 19
        E 32 b1 0b 11
        E 16 b1 0b 33
        E 0 81 1c 00
        E 0 91 1a 33
        E 32 b1 0b 2a
        E 64 b1 0b 22
        E 64 b1 0b 19
        E 64 b1 0b 11
        E 48 b1 0b 33
        E 0 81 1a 00
        E 0 91 1c 33
        E 16 b1 0b 2a
        E 32 b1 0b 22
        E 32 b1 0b 19
        E 16 b1 0b 11
        E 32 b1 0b 08
        E 32 81 1c 00
        E 112 b1 0b 33
        E 0 91 1c 33
        E 16 b1 0b 2a
        E 32 b1 0b 22
        E 32 b1 0b 19
        E 32 b1 0b 11
        E 16 b1 0b 33
        E 16 b1 0b 2a
        E 16 b1 0b 22
        E 32 b1 0b 19
        E 32 b1 0b 11
        E 32 b1 0b 08
        E 32 81 1c 00
        E 112 b1 0b 33
        E 0 91 1c 33
        E 16 b1 0b 2a
        E 32 b1 0b 22
        E 32 b1 0b 19
        E 16 b1 0b 11
        E 32 b1 0b 08
        E 16 b1 0b 33
        E 0 81 1c 00
        E 0 91 1f 33
        E 48 b1 0b 2a
        E 64 b1 0b 22
        E 64 b1 0b 19
        E 64 b1 0b 11
        E 48 b1 0b 08
        E 64 81 1f 00
        E 48 b1 0b 33
        E 0 91 1c 33
        E 16 b1 0b 2a
        E 32 b1 0b 22
        E 32 b1 0b 19
        E 32 b1 0b 11
        E 32 b1 0b 08
        E 32 81 1c 00
        E 96 b1 0b 33
        E 0 91 1c 33
        E 16 b1 0b 2a
        E 32 b1 0b 22
        E 32 b1 0b 19
        E 32 b1 0b 11
        E 32 b1 0b 08
        E 32 81 1c 00
        E 80 b1 0b 33
        E 0 91 1c 33
        E 16 b1 0b 2a
        E 32 b1 0b 22
        E 16 b1 0b 19
        E 32 b1 0b 11
        E 32 b1 0b 08
        E 16 b1 0b 33
        E 0 81 1c 00
        E 0 91 1a 33
        E 48 b1 0b 2a
        E 64 b1 0b 22
        E 64 b1 0b 19
        E 64 b1 0b 11
        E 32 b1 0b 33
        E 0 81 1a 00
        E 0 91 1c 33
        E 16 b1 0b 2a
        E 32 b1 0b 22
        E 32 b1 0b 19
        E 32 b1 0b 11
        E 32 b1 0b 08
        E 32 81 1c 00
        E 80 b1 0b 33
        E 0 91 1c 33
        E 16 b1 0b 2a
        E 32 b1 0b 22
        E 16 b1 0b 19
        E 32 b1 0b 11
        E 32 b1 0b 08
        E 16 b1 0b 33
        E 16 b1 0b 2a
        E 32 b1 0b 22
        E 32 b1 0b 19
        E 32 b1 0b 11
        E 32 b1 0b 08
        E 32 81 1c 00
        E 96 b1 0b 33
        E 0 91 1c 33
        E 16 b1 0b 2a
        E 32 b1 0b 22
        E 32 b1 0b 19
        E 32 b1 0b 11
        E 16 b1 0b 33
        E 0 81 1c 00
        E 0 91 1f 33
        E 48 b1 0b 2a
        E 64 b1 0b 22
        E 64 b1 0b 19
        E 48 b1 0b 11
        E 64 b1 0b 08
        E 64 81 1f 00
        E 48 b1 0b 33
        E 0 91 1c 33
        E 16 b1 0b 2a
        E 32 b1 0b 22
        E 32 b1 0b 19
        E 32 b1 0b 11
        E 16 b1 0b 08
        E 32 81 1c 00
        E 112 b1 0b 33
        E 0 91 1c 33
        E 16 b1 0b 2a
        E 32 b1 0b 22
        E 32 b1 0b 19
        E 32 b1 0b 11
        E 32 b1 0b 08
        E 32 81 1c 00
        E 96 b1 0b 33
        E 0 91 1c 33
        E 16 b1 0b 2a
        E 32 b1 0b 22
        E 32 b1 0b 19
        E 32 b1 0b 11
        E 16 b1 0b 33
        E 0 81 1c 00
        E 0 91 1a 33
        E 48 b1 0b 2a
        E 64 b1 0b 22
        E 48 b1 0b 19
        E 64 b1 0b 11
        E 48 b1 0b 33
        E 0 81 1a 00
        E 0 91 1c 33
        E 16 b1 0b 2a
        E 32 b1 0b 22
        E 32 b1 0b 19
        E 32 b1 0b 11
        E 32 b1 0b 08
        E 32 81 1c 00
        E 96 b1 0b 33
        E 0 91 1c 33
        E 16 b1 0b 2a
        E 32 b1 0b 22
        E 32 b1 0b 19
        E 32 b1 0b 11
        E 16 b1 0b 33
        E 16 b1 0b 2a
        E 32 b1 0b 22
        E 32 b1 0b 19
        E 32 b1 0b 11
        E 32 b1 0b 08
        E 16 81 1c 00
        E 112 b1 0b 33
        E 0 91 1c 33
        E 16 b1 0b 2a
        E 32 b1 0b 22
        E 32 b1 0b 19
        E 32 b1 0b 11
        E 16 b1 0b 33
        E 0 81 1c 00
        E 0 91 1f 33
        E 48 b1 0b 2a
        E 48 b1 0b 22
        E 64 b1 0b 19
        E 64 b1 0b 11
        E 64 b1 0b 08
        E 64 81 1f 00
        E 48 b1 0b 33
        E 0 91 1c 33
        E 16 b1 0b 2a
        E 16 b1 0b 22
        E 32 b1 0b 19
        E 32 b1 0b 11
        E 32 b1 0b 08
        E 32 81 1c 00
        E 112 b1 0b 33
        E 0 91 1c 33
        E 16 b1 0b 2a
        E 32 b1 0b 22
        E 32 b1 0b 19
        E 32 b1 0b 11
        E 16 b1 0b 08
        E 32 81 1c 00
        E 112 b1 0b 33
        E 0 91 1c 33
        E 16 b1 0b 2a
        E 32 b1 0b 22
        E 32 b1 0b 19
        E 32 b1 0b 11
        E 16 b1 0b 33
        E 0 81 1c 00
        E 0 91 1a 33
        E 48 b1 0b 2a
        E 48 b1 0b 22
        E 64 b1 0b 19
        E 64 b1 0b 11
        E 48 b1 0b 33
        E 0 81 1a 00
        E 0 91 1c 33
        E 16 b1 0b 2a
        E 32 b1 0b 22
        E 32 b1 0b 19
        E 32 b1 0b 11
        E 16 b1 0b 08
        E 32 81 1c 00
        E 112 b1 0b 33
        E 0 91 1c 33
        E 16 b1 0b 2a
        E 32 b1 0b 22
        E 32 b1 0b 19
        E 32 b1 0b 11
        E 16 b1 0b 33
        E 16 b1 0b 2a
        E 32 b1 0b 22
        E 16 b1 0b 19
        E 32 b1 0b 11
        E 32 b1 0b 08
        E 32 81 1c 00
        E 112 b1 0b 33
        E 0 91 1c 33
        E 16 b1 0b 2a
        E 32 b1 0b 22
        E 32 b1 0b 19
        E 32 b1 0b 11
        E 16 b1 0b 08
        E 16 b1 0b 33
        E 0 81 1c 00
        E 0 91 1f 33
        E 48 b1 0b 2a
        E 64 b1 0b 22
        E 64 b1 0b 19
        E 64 b1 0b 11
        E 64 b1 0b 08
        E 48 81 1f 00
        E 48 b1 0b 33
        E 0 91 1c 33
        E 16 b1 0b 2a
        E 32 b1 0b 22
        E 32 b1 0b 19
        E 32 b1 0b 11
        E 32 b1 0b 08
        E 32 81 1c 00
        E 80 b1 0b 33
        E 0 91 1c 33
        E 16 b1 0b 2a
        E 16 b1 0b 22
        E 32 b1 0b 19
        E 32 b1 0b 11
        E 32 b1 0b 08
        E 32 81 1c 00
        E 112 b1 0b 33
        E 0 91 1c 33
        E 16 b1 0b 2a
        E 32 b1 0b 22
        E 32 b1 0b 19
        E 16 b1 0b 11
        E 32 b1 0b 08
        E 16 b1 0b 33
        E 0 81 1c 00
        E 0 91 1a 33
        E 48 b1 0b 2a
        E 64 b1 0b 22
        E 64 b1 0b 19
        E 64 b1 0b 11
        E 16 b1 0b 33
        E 0 81 1a 00
        E 0 91 1c 33
        E 16 b1 0b 2a
        E 16 b1 0b 22
        E 32 b1 0b 19
        E 32 b1 0b 11
        E 32 b1 0b 08
        E 32 81 1c 00
        E 112 b1 0b 33
        E 0 91 1c 33
        E 16 b1 0b 2a
        E 32 b1 0b 22
        E 32 b1 0b 19
        E 16 b1 0b 11
        E 32 b1 0b 08
        E 16 b1 0b 33
        E 16 b1 0b 2a
        E 32 b1 0b 22
        E 32 b1 0b 19
        E 32 b1 0b 11
        E 32 b1 0b 08
        E 32 81 1c 00
        E 80 b1 0b 33
        E 0 91 1c 33
        E 16 b1 0b 2a
        E 16 b1 0b 22
        E 32 b1 0b 19
        E 32 b1 0b 11
        E 32 b1 0b 08
        E 16 b1 0b 33
        E 0 81 1c 00
        E 0 91 1f 33
        E 48 b1 0b 2a
        E 64 b1 0b 22
        E 64 b1 0b 19
        E 48 b1 0b 11
        E 64 b1 0b 08
        E 64 81 1f 00
        E 48 b1 0b 33
        E 0 91 23 33
        E 16 b1 0b 2a
        E 32 b1 0b 22
        E 32 b1 0b 19
        E 32 b1 0b 11
        E 32 b1 0b 08
        E 32 81 23 00
        E 96 b1 0b 33
        E 0 91 23 33
        E 16 b1 0b 2a
        E 32 b1 0b 22
        E 32 b1 0b 19
        E 32 b1 0b 11
        E 32 b1 0b 08
        E 32 81 23 00
        E 96 b1 0b 33
        E 0 91 23 33
        E 16 b1 0b 2a
        E 32 b1 0b 22
        E 32 b1 0b 19
        E 32 b1 0b 11
        E 16 b1 0b 33
        E 0 81 23 00
        E 0 91 21 33
        E 48 b1 0b 2a
        E 64 b1 0b 22
        E 64 b1 0b 19
        E 48 b1 0b 11
        E 48 b1 0b 33
        E 0 81 21 00
        E 0 91 23 33
        E 16 b1 0b 2a
        E 32 b1 0b 22
        E 32 b1 0b 19
        E 32 b1 0b 11
        E 32 b1 0b 08
        E 32 81 23 00
        E 96 b1 0b 33
        E 0 91 23 33
        E 16 b1 0b 2a
        E 32 b1 0b 22
        E 32 b1 0b 19
        E 32 b1 0b 11
        E 16 b1 0b 33
        E 16 b1 0b 2a
        E 32 b1 0b 22
        E 32 b1 0b 19
        E 32 b1 0b 11
        E 32 b1 0b 08
        E 32 81 23 00
        E 96 b1 0b 33
        E 0 91 23 33
        E 16 b1 0b 2a
        E 32 b1 0b 22
        E 32 b1 0b 19
        E 32 b1 0b 11
        E 16 b1 0b 33
        E 0 81 23 00
        E 0 91 26 33
        E 48 b1 0b 2a
        E 64 b1 0b 22
        E 48 b1 0b 19
        E 64 b1 0b 11
        E 64 b1 0b 08
        E 64 81 26 00
        E 48 b1 0b 33
        E 0 91 23 33
        E 16 b1 0b 2a
        E 32 b1 0b 22
        E 32 b1 0b 19
        E 16 b1 0b 11
        E 32 b1 0b 08
        E 32 81 23 00
        E 112 b1 0b 33
        E 0 91 23 33
        E 16 b1 0b 2a
        E 32 b1 0b 22
        E 32 b1 0b 19
        E 32 b1 0b 11
        E 32 b1 0b 08
        E 16 81 23 00
        E 112 b1 0b 33
        E 0 91 23 33
        E 16 b1 0b 2a
        E 32 b1 0b 22
        E 32 b1 0b 19
        E 32 b1 0b 11
        E 16 b1 0b 33
        E 0 81 23 00
        E 0 91 21 33
        E 48 b1 0b 2a
        E 48 b1 0b 22
        E 64 b1 0b 19
        E 64 b1 0b 11
        E 48 b1 0b 33
        E 0 81 21 00
        E 0 91 23 33
        E 16 b1 0b 2a
        E 32 b1 0b 22
        E 32 b1 0b 19
        E 32 b1 0b 11
        E 32 b1 0b 08
        E 16 81 23 00
        E 112 b1 0b 33
        E 0 91 23 33
        E 16 b1 0b 2a
        E 32 b1 0b 22
        E 32 b1 0b 19
        E 32 b1 0b 11
        E 16 b1 0b 33
        E 16 b1 0b 2a
        E 32 b1 0b 22
        E 32 b1 0b 19
        E 16 b1 0b 11
        E 32 b1 0b 08
        E 32 81 23 00
        E 112 b1 0b 33
        E 0 91 23 33
        E 16 b1 0b 2a
        E 32 b1 0b 22
        E 32 b1 0b 19
        E 32 b1 0b 11
        E 16 b1 0b 33
        E 0 81 23 00
        E 0 91 26 33
        E 32 b1 0b 2a
        E 64 b1 0b 22
        E 64 b1 0b 19
        E 64 b1 0b 11
        E 64 b1 0b 08
        E 64 81 26 00
        E 64 b1 0b 33
        E 0 91 1c 33
        E 16 b1 0b 2a
        E 32 b1 0b 22
        E 32 b1 0b 19
        E 32 b1 0b 11
        E 32 b1 0b 08
        E 32 81 1c 00
        E 80 b1 0b 33
        E 0 91 1c 33
        E 16 b1 0b 2a
        E 32 b1 0b 22
        E 16 b1 0b 19
        E 32 b1 0b 11
        E 32 b1 0b 08
        E 32 81 1c 00
        E 112 b1 0b 33
        E 0 91 1c 33
        E 16 b1 0b 2a
        E 32 b1 0b 22
        E 32 b1 0b 19
        E 32 b1 0b 11
        E 16 b1 0b 08
        E 16 b1 0b 33
        E 0 81 1c 00
        E 0 91 1a 33
        E 48 b1 0b 2a
        E 64 b1 0b 22
        E 64 b1 0b 19
        E 64 b1 0b 11
        E 16 b1 0b 33
        E 0 81 1a 00
        E 0 91 1c 33
        E 16 b1 0b 2a
        E 32 b1 0b 22
        E 16 b1 0b 19
        E 32 b1 0b 11
        E 32 b1 0b 08
        E 32 81 1c 00
        E 112 b1 0b 33
        E 0 91 1c 33
        E 16 b1 0b 2a
        E 32 b1 0b 22
        E 32 b1 0b 19
        E 32 b1 0b 11
        E 16 b1 0b 08
        E 16 b1 0b 33
        E 16 b1 0b 2a
        E 32 b1 0b 22
        E 32 b1 0b 19
        E 32 b1 0b 11
        E 32 b1 0b 08
        E 32 81 1c 00
        E 80 b1 0b 33
        E 0 91 1c 33
        E 16 b1 0b 2a
        E 32 b1 0b 22
        E 16 b1 0b 19
        E 32 b1 0b 11
        E 32 b1 0b 08
        E 16 b1 0b 33
        E 0 81 1c 00
        E 0 91 1f 33
        E 48 b1 0b 2a
        E 64 b1 0b 22
        E 64 b1 0b 19
        E 64 b1 0b 11
        E 48 b1 0b 08
        E 64 81 1f 00
        E 48 b1 0b 33
        E 0 91 1c 33
        E 16 b1 0b 2a
        E 32 b1 0b 22
        E 32 b1 0b 19
        E 32 b1 0b 11
        E 32 b1 0b 08
        E 32 81 1c 00
        E 96 b1 0b 33
        E 0 91 1c 33
        E 16 b1 0b 2a
        E 32 b1 0b 22
        E 32 b1 0b 19
        E 32 b1 0b 11
        E 32 b1 0b 08
        E 32 81 1c 00
        E 80 b1 0b 33
        E 0 91 1c 33
        E 16 b1 0b 2a
        E 16 b1 0b 22
        E 32 b1 0b 19
        E 32 b1 0b 11
        E 32 b1 0b 08
        E 16 b1 0b 33
        E 0 81 1c 00
        E 0 91 1a 33
        E 48 b1 0b 2a
        E 64 b1 0b 22
        E 64 b1 0b 19
        E 48 b1 0b 11
        E 48 b1 0b 33
        E 0 81 1a 00
        E 0 91 1c 33
        E 16 b1 0b 2a
        E 32 b1 0b 22
        E 32 b1 0b 19
        E 32 b1 0b 11
        E 32 b1 0b 08
        E 32 81 1c 00
        E 80 b1 0b 33
        E 0 91 1c 33
        E 16 b1 0b 2a
        E 16 b1 0b 22
        E 32 b1 0b 19
        E 32 b1 0b 11
        E 32 b1 0b 08
        E 16 b1 0b 33
        E 16 b1 0b 2a
        E 32 b1 0b 22
        E 32 b1 0b 19
        E 32 b1 0b 11
        E 32 b1 0b 08
        E 32 81 1c 00
        E 96 b1 0b 33
        E 0 91 1c 33
        E 16 b1 0b 2a
        E 32 b1 0b 22
        E 32 b1 0b 19
        E 32 b1 0b 11
        E 16 b1 0b 33
        E 0 81 1c 00
        E 0 91 1f 33
        E 48 b1 0b 2a
        E 64 b1 0b 22
        E 64 b1 0b 19
        E 48 b1 0b 11
        E 64 b1 0b 08
        E 64 81 1f 00
        E 48 b1 0b 2a
        E 0 91 1f 2a
        E 224 b1 0b 22
        E 192 b1 0b 19
        E 1728 b1 0b 2a
        E 0 81 1f 00
        E 0 91 23 2a
        E 224 b1 0b 22
        E 176 b1 0b 19
        E 1760 b1 0c 40
        E 0 b1 0b 4c
        E 0 81 23 00
        E 0 91 1a 4c
        E 16 b1 0b 44
        E 32 b1 0b 3b
        E 32 b1 0b 33
        E 32 b1 0b 2a
        E 16 b1 0b 4c
        E 0 81 1a 00
        E 0 91 1c 4c
        E 16 b1 0b 44
        E 32 b1 0b 3b
        E 32 b1 0b 33
        E 32 b1 0b 2a
        E 16 b1 0b 22
        E 16 b1 0c 10
        E 0 b1 0b 3b
        E 0 81 1c 00
        E 0 91 33 3b
        E 16 b1 0b 33
        E 32 b1 0b 2a
        E 32 b1 0b 22
        E 32 b1 0b 19
        E 16 b1 0b 3b
        E 0 81 33 00
        E 0 91 34 3b
        E 16 b1 0b 33
        E 32 b1 0b 2a
        E 32 b1 0b 22
        E 32 b1 0b 19
        E 16 b1 0b 22
        E 144 b1 0b 3b
        E 16 b1 0b 33
        E 32 b1 0b 2a
        E 32 b1 0b 22
        E 32 b1 0b 19
        E 16 b1 0b 22
        E 16 b1 0b 19
        E 32 b1 0b 11
        E 32 b1 0b 08
        E 32 81 34 00
        E 32 b1 0b 3b
        E 0 91 34 3b
        E 16 b1 0b 33
        E 32 b1 0b 2a
        E 32 b1 0b 22
        E 32 b1 0b 19
        E 16 b1 0b 22
        E 16 b1 0b 19
        E 32 b1 0b 11
        E 32 b1 0b 08
        E 32 81 34 00
        E 16 b1 0b 11
        E 0 91 34 11
        E 144 b1 0b 3b
        E 256 b1 0b 22
        E 144 b1 0b 3b
        E 128 b1 0b 22
        E 144 b1 0c 40
        E 0 b1 0b 4c
        E 0 81 34 00
        E 0 91 1c 4c
        E 16 b1 0b 44
        E 32 b1 0b 3b
        E 32 b1 0b 33
        E 32 b1 0b 2a
        E 16 b1 0b 4c
        E 0 81 1c 00
        E 0 91 1a 4c
        E 16 b1 0b 44
        E 32 b1 0b 3b
        E 32 b1 0b 33
        E 32 b1 0b 2a
        E 16 b1 0b 4c
        E 0 81 1a 00
        E 0 91 1c 4c
        E 16 b1 0b 44
        E 16 b1 0b 3b
        E 32 b1 0b 33
        E 32 b1 0b 2a
        E 32 b1 0b 22
        E 16 b1 0c 10
        E 0 b1 0b 3b
        E 0 81 1c 00
        E 0 91 33 3b
        E 16 b1 0b 33
        E 32 b1 0b 2a
        E 32 b1 0b 22
        E 32 b1 0b 19
        E 16 b1 0b 3b
        E 0 81 33 00
        E 0 91 34 3b
        E 16 b1 0b 33
        E 32 b1 0b 2a
        E 32 b1 0b 22
        E 16 b1 0b 19
        E 32 b1 0b 11
        E 16 b1 0b 22
        E 128 b1 0b 3b
        E 16 b1 0b 33
        E 32 b1 0b 2a
        E 32 b1 0b 22
        E 32 b1 0b 19
        E 16 b1 0b 22
        E 16 b1 0b 19
        E 16 b1 0b 11
        E 32 b1 0b 08
        E 32 81 34 00
        E 48 b1 0b 3b
        E 0 91 34 3b
        E 16 b1 0b 33
        E 32 b1 0b 2a
        E 32 b1 0b 22
        E 32 b1 0b 19
        E 16 b1 0b 22
        E 16 b1 0b 19
        E 32 b1 0b 11
        E 32 b1 0b 08
        E 16 81 34 00
        E 48 b1 0b 11
        E 0 91 34 11
        E 128 b1 0b 3b
        E 272 b1 0b 22
        E 128 b1 0b 3b
        E 144 b1 0b 22
        E 128 b1 0c 40
        E 0 b1 0b 4c
        E 0 81 34 00
        E 0 91 1c 4c
        E 16 b1 0b 44
        E 32 b1 0b 3b
        E 32 b1 0b 33
        E 32 b1 0b 2a
        E 16 b1 0b 4c
        E 0 81 1c 00
        E 0 91 1a 4c
        E 16 b1 0b 44
        E 32 b1 0b 3b
        E 16 b1 0b 33
        E 32 b1 0b 2a
        E 32 b1 0b 22
        E 16 b1 0b 4c
        E 0 81 1a 00
        E 0 91 1c 4c
        E 16 b1 0b 44
        E 32 b1 0b 3b
        E 32 b1 0b 33
        E 32 b1 0b 2a
        E 16 b1 0c 10
        E 0 b1 0b 3b
        E 0 81 1c 00
        E 0 91 33 3b
        E 16 b1 0b 33
        E 32 b1 0b 2a
        E 32 b1 0b 22
        E 32 b1 0b 19
        E 16 b1 0b 11
        E 16 b1 0b 3b
        E 0 81 33 00
        E 0 91 34 3b
        E 16 b1 0b 33
        E 32 b1 0b 2a
        E 32 b1 0b 22
        E 32 b1 0b 19
        E 16 b1 0b 22
        E 128 b1 0b 3b
        E 16 b1 0b 33
        E 32 b1 0b 2a
        E 16 b1 0b 22
        E 32 b1 0b 19
        E 32 b1 0b 11
        E 16 b1 0b 22
        E 16 b1 0b 19
        E 32 b1 0b 11
        E 32 b1 0b 08
        E 32 81 34 00
        E 16 b1 0b 3b
        E 0 91 34 3b
        E 16 b1 0b 33
        E 32 b1 0b 2a
        E 32 b1 0b 22
        E 32 b1 0b 19
        E 16 b1 0b 11
        E 16 b1 0b 22
        E 16 b1 0b 19
        E 32 b1 0b 11
        E 32 b1 0b 08
        E 32 81 34 00
        E 16 b1 0b 11
        E 0 91 34 11
        E 128 b1 0b 3b
        E 272 b1 0b 22
        E 128 b1 0b 3b
        E 144 b1 0b 22
        E 128 b1 0c 40
        E 0 b1 0b 4c
        E 0 81 34 00
        E 0 91 1c 4c
        E 16 b1 0b 44
        E 32 b1 0b 3b
        E 32 b1 0b 33
        E 16 b1 0b 2a
        E 32 b1 0b 22
        E 16 b1 0b 4c
        E 0 81 1c 00
        E 0 91 1a 4c
        E 16 b1 0b 44
        E 32 b1 0b 3b
        E 32 b1 0b 33
        E 32 b1 0b 2a
        E 16 b1 0b 4c
        E 0 81 1a 00
        E 0 91 1c 4c
        E 16 b1 0b 44
        E 32 b1 0b 3b
        E 32 b1 0b 33
        E 32 b1 0b 2a
        E 16 b1 0c 10
        E 0 b1 0b 3b
        E 0 81 1c 00
        E 0 91 33 3b
        E 16 b1 0b 33
        E 16 b1 0b 2a
        E 32 b1 0b 22
        E 32 b1 0b 19
        E 32 b1 0b 11
        E 16 b1 0b 3b
        E 0 81 33 00
        E 0 91 34 3b
        E 16 b1 0b 33
        E 32 b1 0b 2a
        E 32 b1 0b 22
        E 32 b1 0b 19
        E 16 b1 0b 22
        E 144 b1 0b 3b
        E 16 b1 0b 33
        E 32 b1 0b 2a
        E 32 b1 0b 22
        E 32 b1 0b 19
        E 16 b1 0b 22
        E 16 b1 0b 19
        E 32 b1 0b 11
        E 32 b1 0b 08
        E 32 81 34 00
        E 16 b1 0b 3b
        E 0 91 34 3b
        E 16 b1 0b 33
        E 16 b1 0b 2a
        E 32 b1 0b 22
        E 32 b1 0b 19
        E 32 b1 0b 11
        E 16 b1 0b 22
        E 16 b1 0b 19
        E 32 b1 0b 11
        E 32 b1 0b 08
        E 32 81 34 00
        E 16 b1 0b 11
        E 0 91 34 11
        E 144 b1 0b 3b
        E 256 b1 0b 22
        E 144 b1 0b 3b
        E 128 b1 0b 22
        E 144 b1 0c 40
        E 0 b1 0b 4c
        E 0 81 34 00
        E 0 91 1c 4c
        E 16 b1 0b 44
        E 32 b1 0b 3b
        E 32 b1 0b 33
        E 32 b1 0b 2a
        E 16 b1 0b 33
        E 0 81 1c 00
        E 0 91 2d 33
        E 16 b1 0b 2a
        E 32 b1 0b 22
        E 32 b1 0b 19
        E 32 b1 0b 11
        E 16 b1 0b 33
        E 0 81 2d 00
        E 0 91 30 33
        E 16 b1 0b 2a
        E 32 b1 0b 22
        E 16 b1 0b 19
        E 16 81 30 00
        E 0 91 2d 19
        E 64 b1 0b 33
        E 0 81 2d 00
        E 0 91 34 33
        E 16 b1 0b 2a
        E 32 b1 0b 22
        E 16 b1 0b 19
        E 0 81 34 00
        E 0 91 30 19
        E 16 b1 0b 11
        E 32 b1 0b 08
        E 16 b1 0b 33
        E 0 81 30 00
        E 0 91 37 33
        E 16 b1 0b 2a
        E 32 b1 0b 22
        E 16 b1 0b 19
        E 0 81 37 00
        E 0 91 34 19
        E 16 b1 0b 11
        E 32 b1 0b 08
        E 16 81 34 00
        E 16 b1 0b 33
        E 0 91 34 33
        E 16 b1 0b 2a
        E 32 b1 0b 22
        E 16 b1 0b 19
        E 0 81 34 00
        E 0 91 37 19
        E 16 b1 0b 11
        E 32 b1 0b 08
        E 16 b1 0b 33
        E 0 81 37 00
        E 0 91 30 33
        E 16 b1 0b 2a
        E 32 b1 0b 22
        E 16 b1 0b 19
        E 0 81 30 00
        E 0 91 34 19
        E 16 b1 0b 11
        E 32 b1 0b 08
        E 16 b1 0b 33
        E 16 b1 0b 2a
        E 32 b1 0b 22
        E 16 b1 0b 19
        E 16 81 34 00
        E 0 91 30 19
        E 16 b1 0b 11
        E 32 b1 0b 08
        E 16 b1 0b 33
        E 0 81 30 00
        E 0 91 37 33
        E 16 b1 0b 2a
        E 32 b1 0b 22
        E 16 b1 0b 19
        E 0 81 37 00
        E 0 91 34 19
        E 16 b1 0b 11
        E 32 b1 0b 08
        E 16 b1 0b 33
        E 0 81 34 00
        E 0 91 39 33
        E 16 b1 0b 2a
        E 32 b1 0b 22
        E 16 b1 0b 19
        E 0 81 39 00
        E 0 91 37 19
        E 16 b1 0b 11
        E 32 b1 0b 08
        E 16 b1 0b 33
        E 0 81 37 00
        E 0 91 3c 33
        E 16 b1 0b 2a
        E 16 b1 0b 22
        E 32 b1 0b 19
        E 16 81 3c 00
        E 0 91 39 19
        E 16 b1 0b 11
        E 32 b1 0b 08
        E 16 b1 0b 33
        E 0 81 39 00
        E 0 91 40 33
        E 16 b1 0b 2a
        E 32 b1 0b 22
        E 16 b1 0b 19
        E 0 81 40 00
        E 0 91 3c 19
        E 16 b1 0b 11
        E 32 b1 0b 08
        E 16 b1 0b 33
        E 0 81 3c 00
        E 0 91 43 33
        E 16 b1 0b 2a
        E 32 b1 0b 22
        E 16 b1 0b 19
        E 0 81 43 00
        E 0 91 40 19
        E 16 b1 0b 11
        E 16 b1 0b 08
        E 32 81 40 00
        E 16 b1 0b 33
        E 0 91 45 33
        E 16 b1 0b 2a
        E 32 b1 0b 22
        E 16 b1 0b 19
        E 0 81 45 00
        E 0 91 43 19
        E 16 b1 0b 11
        E 32 b1 0b 08
        E 16 b1 0b 33
        E 0 81 43 00
        E 0 91 48 33
        E 16 b1 0b 2a
        E 32 b1 0b 22
        E 16 b1 0b 19
        E 0 81 48 00
        E 0 91 45 19
        E 16 b1 0b 11
        E 32 b1 0b 08
        E 16 b1 0b 33
        E 0 81 45 00
        E 0 91 4c 33
        E 16 b1 0b 2a
        E 16 b1 0b 22
        E 32 b1 0b 19
        E 16 81 4c 00
        E 0 91 48 19
        E 16 b1 0b 11
        E 32 b1 0b 08
        E 16 b1 0b 33
        E 0 81 48 00
        E 0 91 4f 33
        E 16 b1 0b 2a
        E 32 b1 0b 22
        E 16 b1 0b 19
        E 0 81 4f 00
        E 0 91 4c 19
        E 16 b1 0b 11
        E 32 b1 0b 08
        E 16 b1 0b 33
        E 0 81 4c 00
        E 0 91 2f 33
        E 16 b1 0b 2a
        E 32 b1 0b 22
        E 16 b1 0b 19
        E 0 81 2f 00
        E 0 91 4f 19
        E 16 b1 0b 11
        E 0 81 4f 00
        E 0 91 50 11
        E 16 b1 0b 08
        E 0 81 50 00
        E 0 91 4f 08
        E 32 81 4f 00
        E 16 b1 0b 33
        E 0 91 33 33
        E 16 b1 0b 2a
        E 32 b1 0b 22
        E 16 b1 0b 19
        E 0 81 33 00
        E 0 91 2f 19
        E 16 b1 0b 11
        E 32 b1 0b 08
        E 16 b1 0b 33
        E 0 81 2f 00
        E 0 91 36 33
        E 16 b1 0b 2a
        E 32 b1 0b 22
        E 16 b1 0b 19
        E 0 81 36 00
        E 0 91 33 19
        E 16 b1 0b 11
        E 32 b1 0b 08
        E 16 b1 0b 33
        E 0 81 33 00
        E 0 91 39 33
        E 16 b1 0b 2a
        E 16 b1 0b 22
        E 32 b1 0b 19
        E 16 81 39 00
        E 0 91 36 19
        E 16 b1 0b 11
        E 32 b1 0b 08
        E 16 b1 0b 33
        E 16 b1 0b 2a
        E 32 b1 0b 22
        E 16 b1 0b 19
        E 0 81 36 00
        E 0 91 39 19
        E 16 b1 0b 11
        E 32 b1 0b 08
        E 16 b1 0b 33
        E 0 81 39 00
        E 0 91 33 33
        E 16 b1 0b 2a
        E 32 b1 0b 22
        E 16 b1 0b 19
        E 0 81 33 00
        E 0 91 36 19
        E 16 b1 0b 11
        E 16 b1 0b 08
        E 32 81 36 00
        E 16 b1 0b 33
        E 0 91 36 33
        E 16 b1 0b 2a
        E 32 b1 0b 22
        E 16 b1 0b 19
        E 0 81 36 00
        E 0 91 33 19
        E 16 b1 0b 11
        E 32 b1 0b 08
        E 16 b1 0b 33
        E 0 81 33 00
        E 0 91 39 33
        E 16 b1 0b 2a
        E 32 b1 0b 22
        E 16 b1 0b 19
        E 0 81 39 00
        E 0 91 36 19
        E 16 b1 0b 11
        E 32 b1 0b 08
        E 16 b1 0b 33
        E 0 81 36 00
        E 0 91 3b 33
        E 16 b1 0b 2a
        E 32 b1 0b 22
        E 16 b1 0b 19
        E 16 81 3b 00
        E 0 91 29 19
        E 16 b1 0b 11
        E 32 b1 0b 08
        E 16 b1 0b 33
        E 0 81 29 00
        E 0 91 3f 33
        E 16 b1 0b 2a
        E 32 b1 0b 22
        E 16 b1 0b 19
        E 0 81 3f 00
        E 0 91 3b 19
        E 16 b1 0b 11
        E 32 b1 0b 08
        E 16 b1 0b 33
        E 0 81 3b 00
        E 0 91 42 33
        E 16 b1 0b 2a
        E 32 b1 0b 22
        E 16 b1 0b 19
        E 0 81 42 00
        E 0 91 3f 19
        E 16 b1 0b 11
        E 32 b1 0b 08
        E 16 81 3f 00
        E 16 b1 0b 33
        E 0 91 45 33
        E 16 b1 0b 2a
        E 32 b1 0b 22
        E 16 b1 0b 19
        E 0 81 45 00
        E 0 91 42 19
        E 16 b1 0b 11
        E 32 b1 0b 08
        E 16 b1 0b 33
        E 0 81 42 00
        E 0 91 47 33
        E 16 b1 0b 2a
        E 32 b1 0b 22
        E 16 b1 0b 19
        E 0 81 47 00
        E 0 91 45 19
        E 16 b1 0b 11
        E 32 b1 0b 08
        E 16 b1 0b 33
        E 0 81 45 00
        E 0 91 4b 33
        E 16 b1 0b 2a
        E 32 b1 0b 22
        E 16 b1 0b 19
        E 16 81 4b 00
        E 0 91 47 19
        E 16 b1 0b 11
        E 32 b1 0b 08
        E 16 b1 0b 33
        E 0 81 47 00
        E 0 91 4e 33
        E 16 b1 0b 2a
        E 0 81 4e 00
        E 0 91 4d 2a
        E 32 b1 0b 22
        E 0 81 4d 00
        E 0 91 4e 22
        E 16 b1 0b 19
        E 0 81 4e 00
        E 0 91 4b 19
        E 16 b1 0b 11
        E 32 b1 0b 08
        E 16 b1 0b 33
        E 0 81 4b 00
        E 0 91 51 33
        E 16 b1 0b 2a
        E 0 81 51 00
        E 0 91 50 2a
        E 32 b1 0b 22
        E 0 81 50 00
        E 0 91 51 22
        E 16 b1 0b 19
        E 0 81 51 00
        E 0 91 4e 19
        E 64 81 4e 00
        E 0 91 4d 19
        E 16 b1 0c 20
        E 0 b1 0b 33
        E 0 81 4d 00
        E 0 91 1c 33
        E 16 b1 0b 2a
        E 16 b1 0b 33
        E 16 b1 0b 2a
        E 16 b1 0b 33
        E 16 b1 0b 2a
        E 32 b1 0b 22
        E 32 b1 0b 19
        E 32 b1 0b 11
        E 32 b1 0b 08
        E 32 81 1c 00
        E 16 b1 0b 33
        E 0 91 1c 33
        E 16 b1 0b 2a
        E 32 b1 0b 22
        E 16 b1 0b 19
        E 32 b1 0b 11
        E 32 b1 0b 08
        E 32 81 1c 00
        E 112 b1 0b 33
        E 0 91 1c 33
        E 16 b1 0b 2a
        E 32 b1 0b 22
        E 32 b1 0b 19
        E 32 b1 0b 11
        E 16 b1 0b 08
        E 16 b1 0b 33
        E 0 81 1c 00
        E 0 91 1a 33
        E 48 b1 0b 2a
        E 64 b1 0b 22
        E 64 b1 0b 19
        E 64 b1 0b 11
        E 16 b1 0b 33
        E 0 81 1a 00
        E 0 91 1c 33
        E 16 b1 0b 2a
        E 32 b1 0b 22
        E 32 b1 0b 19
        E 16 b1 0b 11
        E 32 b1 0b 08
        E 32 81 1c 00
        E 112 b1 0b 33
        E 0 91 1c 33
        E 16 b1 0b 2a
        E 32 b1 0b 22
        E 32 b1 0b 19
        E 32 b1 0b 11
        E 16 b1 0b 33
        E 16 b1 0b 2a
        E 16 b1 0b 22
        E 32 b1 0b 19
        E 32 b1 0b 11
        E 32 b1 0b 08
        E 32 81 1c 00
        E 112 b1 0b 33
        E 0 91 1c 33
        E 16 b1 0b 2a
        E 32 b1 0b 22
        E 32 b1 0b 19
        E 16 b1 0b 11
        E 32 b1 0b 08
        E 16 b1 0b 33
        E 0 81 1c 00
        E 0 91 1f 33
        E 48 b1 0b 2a
        E 64 b1 0b 22
        E 64 b1 0b 19
        E 64 b1 0b 11
        E 48 b1 0b 08
        E 64 81 1f 00
        E 48 b1 0b 33
        E 0 91 1c 33
        E 16 b1 0b 2a
        E 32 b1 0b 22
        E 32 b1 0b 19
        E 32 b1 0b 11
        E 32 b1 0b 08
        E 32 81 1c 00
        E 96 b1 0b 33
        E 0 91 1c 33
        E 16 b1 0b 2a
        E 32 b1 0b 22
        E 32 b1 0b 19
        E 32 b1 0b 11
        E 32 b1 0b 08
        E 32 81 1c 00
        E 80 b1 0b 33
        E 0 91 1c 33
        E 16 b1 0b 2a
        E 16 b1 0b 22
        E 32 b1 0b 19
        E 32 b1 0b 11
        E 32 b1 0b 08
        E 16 b1 0b 33
        E 0 81 1c 00
        E 0 91 1a 33
        E 48 b1 0b 2a
        E 64 b1 0b 22
        E 64 b1 0b 19
        E 64 b1 0b 11
        E 32 b1 0b 33
        E 0 81 1a 00
        E 0 91 1c 33
        E 16 b1 0b 2a
        E 32 b1 0b 22
        E 32 b1 0b 19
        E 32 b1 0b 11
        E 32 b1 0b 08
        E 32 81 1c 00
        E 80 b1 0b 33
        E 0 91 1c 33
        E 16 b1 0b 2a
        E 32 b1 0b 22
        E 16 b1 0b 19
        E 32 b1 0b 11
        E 32 b1 0b 08
        E 16 b1 0b 33
        E 16 b1 0b 2a
        E 32 b1 0b 22
        E 32 b1 0b 19
        E 32 b1 0b 11
        E 32 b1 0b 08
        E 32 81 1c 00
        E 96 b1 0b 33
        E 0 91 1c 33
        E 16 b1 0b 2a
        E 32 b1 0b 22
        E 32 b1 0b 19
        E 32 b1 0b 11
        E 16 b1 0b 33
        E 0 81 1c 00
        E 0 91 1f 33
        E 48 b1 0b 2a
        E 64 b1 0b 22
        E 64 b1 0b 19
        E 48 b1 0b 11
        E 64 b1 0b 08
        E 64 81 1f 00
        E 48 b1 0b 33
        E 0 91 1c 33
        E 16 b1 0b 2a
        E 32 b1 0b 22
        E 32 b1 0b 19
        E 32 b1 0b 11
        E 16 b1 0b 08
        E 32 81 1c 00
        E 112 b1 0b 33
        E 0 91 1c 33
        E 16 b1 0b 2a
        E 32 b1 0b 22
        E 32 b1 0b 19
        E 32 b1 0b 11
        E 32 b1 0b 08
        E 32 81 1c 00
        E 96 b1 0b 33
        E 0 91 1c 33
        E 16 b1 0b 2a
        E 32 b1 0b 22
        E 32 b1 0b 19
        E 32 b1 0b 11
        E 16 b1 0b 33
        E 0 81 1c 00
        E 0 91 1a 33
        E 48 b1 0b 2a
        E 64 b1 0b 22
        E 48 b1 0b 19
        E 64 b1 0b 11
        E 48 b1 0b 33
        E 0 81 1a 00
        E 0 91 1c 33
        E 16 b1 0b 2a
        E 32 b1 0b 22
        E 32 b1 0b 19
        E 32 b1 0b 11
        E 32 b1 0b 08
        E 32 81 1c 00
        E 96 b1 0b 33
        E 0 91 1c 33
        E 16 b1 0b 2a
        E 32 b1 0b 22
        E 32 b1 0b 19
        E 32 b1 0b 11
        E 16 b1 0b 33
        E 16 b1 0b 2a
        E 32 b1 0b 22
        E 32 b1 0b 19
        E 32 b1 0b 11
        E 32 b1 0b 08
        E 16 81 1c 00
        E 112 b1 0b 33
        E 0 91 1c 33
        E 16 b1 0b 2a
        E 32 b1 0b 22
        E 32 b1 0b 19
        E 32 b1 0b 11
        E 16 b1 0b 33
        E 0 81 1c 00
        E 0 91 1f 33
        E 48 b1 0b 2a
        E 48 b1 0b 22
        E 64 b1 0b 19
        E 64 b1 0b 11
        E 64 b1 0b 08
        E 64 81 1f 00
        E 48 b1 0b 33
        E 0 91 1c 33
        E 16 b1 0b 2a
        E 16 b1 0b 22
        E 32 b1 0b 19
        E 32 b1 0b 11
        E 32 b1 0b 08
        E 32 81 1c 00
        E 112 b1 0b 33
        E 0 91 1c 33
        E 16 b1 0b 2a
        E 32 b1 0b 22
        E 32 b1 0b 19
        E 16 b1 0b 11
        E 32 b1 0b 08
        E 32 81 1c 00
        E 112 b1 0b 33
        E 0 91 1c 33
        E 16 b1 0b 2a
        E 32 b1 0b 22
        E 32 b1 0b 19
        E 32 b1 0b 11
        E 16 b1 0b 33
        E 0 81 1c 00
        E 0 91 1a 33
        E 48 b1 0b 2a
        E 48 b1 0b 22
        E 64 b1 0b 19
        E 64 b1 0b 11
        E 48 b1 0b 33
        E 0 81 1a 00
        E 0 91 1c 33
        E 16 b1 0b 2a
        E 32 b1 0b 22
        E 32 b1 0b 19
        E 32 b1 0b 11
        E 16 b1 0b 08
        E 32 81 1c 00
        E 112 b1 0b 33
        E 0 91 1c 33
        E 16 b1 0b 2a
        E 32 b1 0b 22
        E 32 b1 0b 19
        E 32 b1 0b 11
        E 16 b1 0b 33
        E 16 b1 0b 2a
        E 32 b1 0b 22
        E 16 b1 0b 19
        E 32 b1 0b 11
        E 32 b1 0b 08
        E 32 81 1c 00
        E 112 b1 0b 33
        E 0 91 1c 33
        E 16 b1 0b 2a
        E 32 b1 0b 22
        E 32 b1 0b 19
        E 32 b1 0b 11
        E 16 b1 0b 08
        E 16 b1 0b 33
        E 0 81 1c 00
        E 0 91 1f 33
        E 48 b1 0b 2a
        E 64 b1 0b 22
        E 64 b1 0b 19
        E 64 b1 0b 11
        E 64 b1 0b 08
        E 48 81 1f 00
        E 48 b1 0c 40
        E 0 b1 0b 3b
        E 0 91 23 3b
        E 16 b1 0b 33
        E 32 b1 0b 2a
        E 32 b1 0b 22
        E 32 b1 0b 19
        E 16 b1 0b 22
        E 16 b1 0b 19
        E 32 b1 0b 11
        E 32 b1 0b 08
        E 32 81 23 00
        E 32 b1 0b 11
        E 0 91 23 11
        E 48 b1 0b 08
        E 64 81 23 00
        E 16 91 23 08
        E 80 81 23 00
        E 48 b1 0b 3b
        E 0 91 23 3b
        E 16 b1 0b 33
        E 32 b1 0b 2a
        E 32 b1 0b 22
        E 16 b1 0b 19
        E 32 b1 0b 11
        E 16 b1 0b 3b
        E 0 81 23 00
        E 0 91 21 3b
        E 16 b1 0b 33
        E 32 b1 0b 2a
        E 32 b1 0b 22
        E 32 b1 0b 19
        E 16 b1 0b 22
        E 16 b1 0b 19
        E 32 b1 0b 11
        E 32 b1 0b 08
        E 32 81 21 00
        E 16 b1 0b 11
        E 0 91 21 11
        E 32 b1 0b 08
        E 64 81 21 00
        E 48 b1 0b 5d
        E 0 91 23 5d
        E 16 b1 0b 55
        E 32 b1 0b 4c
        E 32 b1 0b 44
        E 32 b1 0b 3b
        E 32 b1 0b 33
        E 32 b1 0b 2a
        E 32 b1 0b 22
        E 16 b1 0b 19
        E 32 b1 0b 11
        E 16 81 23 00
        E 0 91 2d 11
        E 144 b1 0b 19
        E 144 b1 0b 22
        E 160 b1 0b 2a
        E 32 81 2d 00
        E 0 91 2e 2a
        E 128 b1 0b 33
        E 144 b1 0b 3b
        E 48 b1 0c 60
        E 0 b1 0b 33
        E 0 81 2e 00
        E 0 91 21 33
        E 128 81 21 00
        E 0 91 34 33
        E 16 b1 0b 2a
        E 16 b1 0b 22
        E 32 b1 0b 19
        E 32 b1 0b 11
        E 32 b1 0b 08
        E 16 b1 0b 33
        E 16 b1 0b 2a
        E 32 b1 0b 22
        E 32 b1 0b 19
        E 32 b1 0b 11
        E 16 b1 0b 33
        E 0 81 34 00
        E 0 91 21 33
        E 16 b1 0b 2a
        E 32 b1 0b 22
        E 32 b1 0b 19
        E 32 b1 0b 11
        E 16 b1 0b 08
        E 16 b1 0b 33
        E 0 81 21 00
        E 0 91 30 33
        E 16 b1 0b 2a
        E 32 b1 0b 22
        E 32 b1 0b 19
        E 32 b1 0b 11
        E 16 b1 0b 33
        E 0 81 30 00
        E 0 91 21 33
        E 16 b1 0b 2a
        E 32 b1 0b 22
        E 32 b1 0b 19
        E 32 b1 0b 11
        E 16 b1 0b 33
        E 0 81 21 00
        E 0 91 30 33
        E 16 b1 0b 2a
        E 32 b1 0b 22
        E 16 b1 0b 19
        E 32 b1 0b 11
        E 32 b1 0b 08
        E 16 b1 0b 33
        E 16 b1 0b 2a
        E 32 b1 0b 22
        E 32 b1 0b 19
        E 32 b1 0b 11
        E 16 b1 0b 33
        E 0 81 30 00
        E 0 91 21 33
        E 16 b1 0b 2a
        E 32 b1 0b 22
        E 32 b1 0b 19
        E 32 b1 0b 11
        E 16 b1 0b 08
        E 16 b1 0b 33
        E 0 81 21 00
        E 0 91 34 33
        E 16 b1 0b 2a
        E 32 b1 0b 22
        E 32 b1 0b 19
        E 32 b1 0b 11
        E 16 b1 0b 33
        E 16 b1 0b 2a
        E 32 b1 0b 22
        E 32 b1 0b 19
        E 32 b1 0b 11
        E 16 b1 0b 33
        E 0 81 34 00
        E 0 91 21 33
        E 16 b1 0b 2a
        E 32 b1 0b 22
        E 16 b1 0b 19
        E 32 b1 0b 11
        E 32 b1 0b 08
        E 16 b1 0b 33
        E 0 81 21 00
        E 0 91 30 33
        E 16 b1 0b 2a
        E 32 b1 0b 22
        E 32 b1 0b 19
        E 32 b1 0b 11
        E 16 b1 0b 33
        E 0 81 30 00
        E 0 91 21 33
        E 16 b1 0b 2a
        E 32 b1 0b 22
        E 32 b1 0b 19
        E 32 b1 0b 11
        E 16 b1 0b 08
        E 16 b1 0b 33
        E 0 81 21 00
        E 0 91 30 33
        E 16 b1 0b 2a
        E 32 b1 0b 22
        E 32 b1 0b 19
        E 32 b1 0b 11
        E 16 b1 0b 33
        E 16 b1 0b 2a
        E 32 b1 0b 22
        E 32 b1 0b 19
        E 32 b1 0b 11
        E 16 b1 0c 20
        E 0 b1 0b 3b
        E 0 81 30 00
        E 0 91 1c 3b
        E 16 b1 0b 33
        E 32 b1 0b 2a
        E 16 b1 0b 22
        E 32 b1 0b 19
        E 32 b1 0b 11
        E 32 b1 0b 08
        E 32 81 1c 00
        E 80 b1 0b 3b
        E 0 91 1c 3b
        E 16 b1 0b 33
        E 32 b1 0b 2a
        E 32 b1 0b 22
        E 32 b1 0b 19
        E 32 b1 0b 11
        E 16 b1 0b 08
        E 32 81 1c 00
        E 80 b1 0b 3b
        E 0 91 1c 3b
        E 16 b1 0b 33
        E 32 b1 0b 2a
        E 32 b1 0b 22
        E 32 b1 0b 19
        E 16 b1 0b 3b
        E 0 81 1c 00
        E 0 91 1a 3b
        E 48 b1 0b 33
        E 48 b1 0b 2a
        E 64 b1 0b 22
        E 64 b1 0b 19
        E 48 b1 0b 3b
        E 0 81 1a 00
        E 0 91 1c 3b
        E 16 b1 0b 33
        E 32 b1 0b 2a
        E 32 b1 0b 22
        E 32 b1 0b 19
        E 32 b1 0b 11
        E 16 b1 0b 08
        E 32 81 1c 00
        E 80 b1 0b 3b
        E 0 91 1c 3b
        E 16 b1 0b 33
        E 32 b1 0b 2a
        E 32 b1 0b 22
        E 32 b1 0b 19
        E 16 b1 0b 3b
        E 16 b1 0b 33
        E 32 b1 0b 2a
        E 32 b1 0b 22
        E 16 b1 0b 19
        E 32 b1 0b 11
        E 32 b1 0b 08
        E 32 81 1c 00
        E 80 b1 0b 3b
        E 0 91 1c 3b
        E 16 b1 0b 33
        E 32 b1 0b 2a
        E 32 b1 0b 22
        E 32 b1 0b 19
        E 16 b1 0b 3b
        E 0 81 1c 00
        E 0 91 1f 3b
        E 32 b1 0b 33
        E 64 b1 0b 2a
        E 64 b1 0b 22
        E 64 b1 0b 19
        E 64 b1 0b 11
        E 64 b1 0b 08
        E 48 81 1f 00
        E 16 b1 0b 3b
        E 0 91 1c 3b
        E 16 b1 0b 33
        E 32 b1 0b 2a
        E 32 b1 0b 22
        E 32 b1 0b 19
        E 32 b1 0b 11
        E 32 b1 0b 08
        E 32 81 1c 00
        E 48 b1 0b 3b
        E 0 91 1c 3b
        E 16 b1 0b 33
        E 32 b1 0b 2a
        E 16 b1 0b 22
        E 32 b1 0b 19
        E 32 b1 0b 11
        E 32 b1 0b 08
        E 32 81 1c 00
        E 80 b1 0b 3b
        E 0 91 1c 3b
        E 16 b1 0b 33
        E 32 b1 0b 2a
        E 32 b1 0b 22
        E 32 b1 0b 19
        E 16 b1 0b 11
        E 16 b1 0b 3b
        E 0 81 1c 00
        E 0 91 1a 3b
        E 48 b1 0b 33
        E 64 b1 0b 2a
        E 64 b1 0b 22
        E 64 b1 0b 19
        E 16 b1 0b 3b
        E 0 81 1a 00
        E 0 91 1c 3b
        E 16 b1 0b 33
        E 32 b1 0b 2a
        E 16 b1 0b 22
        E 32 b1 0b 19
        E 32 b1 0b 11
        E 32 b1 0b 08
        E 32 81 1c 00
        E 80 b1 0b 3b
        E 0 91 1c 3b
        E 16 b1 0b 33
        E 32 b1 0b 2a
        E 32 b1 0b 22
        E 32 b1 0b 19
        E 16 b1 0b 11
        E 16 b1 0b 3b
        E 16 b1 0b 33
        E 32 b1 0b 2a
        E 32 b1 0b 22
        E 32 b1 0b 19
        E 32 b1 0b 11
        E 32 b1 0b 08
        E 32 81 1c 00
        E 48 b1 0b 3b
        E 0 91 1c 3b
        E 16 b1 0b 33
        E 32 b1 0b 2a
        E 16 b1 0b 22
        E 32 b1 0b 19
        E 32 b1 0b 11
        E 16 b1 0b 3b
        E 0 81 1c 00
        E 0 91 1f 3b
        E 48 b1 0b 33
        E 64 b1 0b 2a
        E 64 b1 0b 22
        E 64 b1 0b 19
        E 48 b1 0b 11
        E 64 b1 0b 08
        E 48 b1 0c 60
        E 0 b1 0b 33
        E 0 81 1f 00
        E 0 91 21 33
        E 16 b1 0b 2a
        E 64 b1 0b 22
        E 48 b1 0b 33
        E 0 81 21 00
        E 0 91 34 33
        E 16 b1 0b 2a
        E 32 b1 0b 22
        E 32 b1 0b 19
        E 16 b1 0b 11
        E 32 b1 0b 08
        E 16 b1 0b 33
        E 16 b1 0b 2a
        E 32 b1 0b 22
        E 32 b1 0b 19
        E 32 b1 0b 11
        E 16 b1 0b 33
        E 0 81 34 00
        E 0 91 21 33
        E 16 b1 0b 2a
        E 32 b1 0b 22
        E 32 b1 0b 19
        E 32 b1 0b 11
        E 16 b1 0b 33
        E 0 81 21 00
        E 0 91 30 33
        E 16 b1 0b 2a
        E 16 b1 0b 22
        E 32 b1 0b 19
        E 32 b1 0b 11
        E 32 b1 0b 08
        E 16 b1 0b 33
        E 0 81 30 00
        E 0 91 21 33
        E 16 b1 0b 2a
        E 32 b1 0b 22
        E 32 b1 0b 19
        E 32 b1 0b 11
        E 16 b1 0b 33
        E 0 81 21 00
        E 0 91 30 33
        E 16 b1 0b 2a
        E 32 b1 0b 22
        E 32 b1 0b 19
        E 16 b1 0b 11
        E 32 b1 0b 08
        E 16 b1 0b 33
        E 16 b1 0b 2a
        E 32 b1 0b 22
        E 32 b1 0b 19
        E 32 b1 0b 11
        E 16 b1 0b 33
        E 0 81 30 00
        E 0 91 21 33
        E 16 b1 0b 2a
        E 32 b1 0b 22
        E 32 b1 0b 19
        E 32 b1 0b 11
        E 16 b1 0b 33
        E 0 81 21 00
        E 0 91 34 33
        E 16 b1 0b 2a
        E 16 b1 0b 22
        E 32 b1 0b 19
        E 32 b1 0b 11
        E 32 b1 0b 08
        E 16 b1 0b 33
        E 16 b1 0b 2a
        E 32 b1 0b 22
        E 32 b1 0b 19
        E 32 b1 0b 11
        E 16 b1 0b 33
        E 0 81 34 00
        E 0 91 21 33
        E 16 b1 0b 2a
        E 32 b1 0b 22
        E 32 b1 0b 19
        E 16 b1 0b 11
        E 32 b1 0b 08
        E 16 b1 0b 33
        E 0 81 21 00
        E 0 91 30 33
        E 16 b1 0b 2a
        E 32 b1 0b 22
        E 32 b1 0b 19
        E 32 b1 0b 11
        E 16 b1 0b 33
        E 0 81 30 00
        E 0 91 21 33
        E 16 b1 0b 2a
        E 32 b1 0b 22
        E 32 b1 0b 19
        E 32 b1 0b 11
        E 16 b1 0b 33
        E 0 81 21 00
        E 0 91 30 33
        E 16 b1 0b 2a
        E 16 b1 0b 22
        E 32 b1 0b 19
        E 32 b1 0b 11
        E 32 b1 0b 08
        E 16 b1 0b 33
        E 16 b1 0b 2a
        E 32 b1 0b 22
        E 32 b1 0b 19
        E 32 b1 0b 11
        E 16 b1 0c 10
        E 0 b1 0b 3b
        E 0 81 30 00
        E 0 91 23 3b
        E 16 b1 0b 33
        E 32 b1 0b 2a
        E 32 b1 0b 22
        E 32 b1 0b 19
        E 16 b1 0b 11
        E 16 b1 0b 22
        E 128 b1 0b 3b
        E 0 81 23 00
        E 0 91 33 3b
        E 144 b1 0b 33
        E 32 b1 0b 2a
        E 16 b1 0b 22
        E 32 b1 0b 19
        E 32 b1 0b 11
        E 16 b1 0b 22
        E 128 b1 0b 3b
        E 0 81 33 00
        E 0 91 36 3b
        E 16 b1 0b 33
        E 32 b1 0b 2a
        E 32 b1 0b 22
        E 32 b1 0b 19
        E 16 b1 0b 11
        E 16 b1 0b 22
        E 16 b1 0b 19
        E 32 b1 0b 11
        E 32 b1 0b 08
        E 32 81 36 00
        E 16 b1 0b 3b
        E 0 91 36 3b
        E 16 b1 0b 33
        E 32 b1 0b 2a
        E 32 b1 0b 22
        E 32 b1 0b 19
        E 16 b1 0b 22
        E 16 b1 0b 19
        E 32 b1 0b 11
        E 16 b1 0b 08
        E 32 81 36 00
        E 48 b1 0b 11
        E 0 91 36 11
        E 128 b1 0b 3b
        E 272 b1 0b 22
        E 128 b1 0b 3b
        E 144 b1 0b 22
        E 128 b1 0b 11
        E 128 b1 0c 20
        E 0 b1 0b 33
        E 0 81 36 00
        E 0 91 1c 33
        E 16 b1 0b 2a
        E 16 b1 0b 22
        E 32 b1 0b 19
        E 32 b1 0b 11
        E 32 b1 0b 08
        E 32 81 1c 00
        E 112 b1 0b 33
        E 0 91 1c 33
        E 16 b1 0b 2a
        E 32 b1 0b 22
        E 32 b1 0b 19
        E 16 b1 0b 11
        E 32 b1 0b 08
        E 32 81 1c 00
        E 112 b1 0b 33
        E 0 91 1c 33
        E 16 b1 0b 2a
        E 32 b1 0b 22
        E 32 b1 0b 19
        E 32 b1 0b 11
        E 16 b1 0b 33
        E 0 81 1c 00
        E 0 91 1a 33
        E 32 b1 0b 2a
        E 64 b1 0b 22
        E 64 b1 0b 19
        E 64 b1 0b 11
        E 48 b1 0b 33
        E 0 81 1a 00
        E 0 91 1c 33
        E 16 b1 0b 2a
        E 32 b1 0b 22
        E 32 b1 0b 19
        E 16 b1 0b 11
        E 32 b1 0b 08
        E 32 81 1c 00
        E 112 b1 0b 33
        E 0 91 1c 33
        E 16 b1 0b 2a
        E 32 b1 0b 22
        E 32 b1 0b 19
        E 32 b1 0b 11
        E 16 b1 0b 33
        E 16 b1 0b 2a
        E 16 b1 0b 22
        E 32 b1 0b 19
        E 32 b1 0b 11
        E 32 b1 0b 08
        E 32 81 1c 00
        E 112 b1 0b 33
        E 0 91 1c 33
        E 16 b1 0b 2a
        E 32 b1 0b 22
        E 32 b1 0b 19
        E 16 b1 0b 11
        E 32 b1 0b 08
        E 16 b1 0b 33
        E 0 81 1c 00
        E 0 91 1f 33
        E 48 b1 0b 2a
        E 64 b1 0b 22
        E 64 b1 0b 19
        E 64 b1 0b 11
        E 64 b1 0b 08
        E 48 81 1f 00
        E 48 b1 0b 33
        E 0 91 1c 33
        E 16 b1 0b 2a
        E 32 b1 0b 22
        E 32 b1 0b 19
        E 32 b1 0b 11
        E 32 b1 0b 08
        E 32 81 1c 00
        E 96 b1 0b 33
        E 0 91 1c 33
        E 16 b1 0b 2a
        E 32 b1 0b 22
        E 32 b1 0b 19
        E 32 b1 0b 11
        E 32 b1 0b 08
        E 32 81 1c 00
        E 80 b1 0b 33
        E 0 91 1c 33
        E 16 b1 0b 2a
        E 32 b1 0b 22
        E 16 b1 0b 19
        E 32 b1 0b 11
        E 32 b1 0b 08
        E 16 b1 0b 33
        E 0 81 1c 00
        E 0 91 1a 33
        E 48 b1 0b 2a
        E 64 b1 0b 22
        E 64 b1 0b 19
        E 64 b1 0b 11
        E 32 b1 0b 33
        E 0 81 1a 00
        E 0 91 1c 33
        E 16 b1 0b 2a
        E 32 b1 0b 22
        E 32 b1 0b 19
        E 32 b1 0b 11
        E 32 b1 0b 08
        E 32 81 1c 00
        E 80 b1 0b 33
        E 0 91 1c 33
        E 16 b1 0b 2a
        E 32 b1 0b 22
        E 16 b1 0b 19
        E 32 b1 0b 11
        E 32 b1 0b 08
        E 16 b1 0b 33
        E 16 b1 0b 2a
        E 32 b1 0b 22
        E 32 b1 0b 19
        E 32 b1 0b 11
        E 32 b1 0b 08
        E 32 81 1c 00
        E 96 b1 0b 33
        E 0 91 1c 33
        E 16 b1 0b 2a
        E 32 b1 0b 22
        E 32 b1 0b 19
        E 32 b1 0b 11
        E 16 b1 0b 33
        E 0 81 1c 00
        E 0 91 1f 33
        E 48 b1 0b 2a
        E 64 b1 0b 22
        E 64 b1 0b 19
        E 48 b1 0b 11
        E 64 b1 0b 08
        E 64 81 1f 00
        E 48 b1 0b 33
        E 0 91 1c 33
        E 16 b1 0b 2a
        E 32 b1 0b 22
        E 32 b1 0b 19
        E 32 b1 0b 11
        E 32 b1 0b 08
        E 16 81 1c 00
        E 112 b1 0b 33
        E 0 91 1c 33
        E 16 b1 0b 2a
        E 32 b1 0b 22
        E 32 b1 0b 19
        E 32 b1 0b 11
        E 32 b1 0b 08
        E 32 81 1c 00
        E 96 b1 0b 33
        E 0 91 1c 33
        E 16 b1 0b 2a
        E 32 b1 0b 22
        E 32 b1 0b 19
        E 32 b1 0b 11
        E 16 b1 0b 33
        E 0 81 1c 00
        E 0 91 1a 33
        E 48 b1 0b 2a
        E 64 b1 0b 22
        E 48 b1 0b 19
        E 64 b1 0b 11
        E 48 b1 0b 33
        E 0 81 1a 00
        E 0 91 1c 33
        E 16 b1 0b 2a
        E 32 b1 0b 22
        E 32 b1 0b 19
        E 32 b1 0b 11
        E 32 b1 0b 08
        E 32 81 1c 00
        E 96 b1 0b 33
        E 0 91 1c 33
        E 16 b1 0b 2a
        E 32 b1 0b 22
        E 32 b1 0b 19
        E 32 b1 0b 11
        E 16 b1 0b 33
        E 16 b1 0b 2a
        E 32 b1 0b 22
        E 32 b1 0b 19
        E 32 b1 0b 11
        E 32 b1 0b 08
        E 16 81 1c 00
        E 112 b1 0b 33
        E 0 91 1c 33
        E 16 b1 0b 2a
        E 32 b1 0b 22
        E 32 b1 0b 19
        E 32 b1 0b 11
        E 16 b1 0b 33
        E 0 81 1c 00
        E 0 91 1f 33
        E 48 b1 0b 2a
        E 64 b1 0b 22
        E 48 b1 0b 19
        E 64 b1 0b 11
        E 64 b1 0b 08
        E 64 81 1f 00
        E 48 b1 0b 33
        E 0 91 1c 33
        E 16 b1 0b 2a
        E 32 b1 0b 22
        E 16 b1 0b 19
        E 32 b1 0b 11
        E 32 b1 0b 08
        E 32 81 1c 00
        E 112 b1 0b 33
        E 0 91 1c 33
        E 16 b1 0b 2a
        E 32 b1 0b 22
        E 32 b1 0b 19
        E 32 b1 0b 11
        E 16 b1 0b 08
        E 32 81 1c 00
        E 112 b1 0b 33
        E 0 91 1c 33
        E 16 b1 0b 2a
        E 32 b1 0b 22
        E 32 b1 0b 19
        E 32 b1 0b 11
        E 16 b1 0b 33
        E 0 81 1c 00
        E 0 91 1a 33
        E 48 b1 0b 2a
        E 48 b1 0b 22
        E 64 b1 0b 19
        E 64 b1 0b 11
        E 48 b1 0b 33
        E 0 81 1a 00
        E 0 91 1c 33
        E 16 b1 0b 2a
        E 32 b1 0b 22
        E 32 b1 0b 19
        E 32 b1 0b 11
        E 16 b1 0b 08
        E 32 81 1c 00
        E 112 b1 0b 33
        E 0 91 1c 33
        E 16 b1 0b 2a
        E 32 b1 0b 22
        E 32 b1 0b 19
        E 32 b1 0b 11
        E 16 b1 0b 33
        E 16 b1 0b 2a
        E 32 b1 0b 22
        E 16 b1 0b 19
        E 32 b1 0b 11
        E 32 b1 0b 08
        E 32 81 1c 00
        E 112 b1 0b 33
        E 0 91 1c 33
        E 16 b1 0b 2a
        E 32 b1 0b 22
        E 32 b1 0b 19
        E 32 b1 0b 11
        E 16 b1 0b 33
        E 0 81 1c 00
        E 0 91 1f 33
        E 32 b1 0b 2a
        E 64 b1 0b 22
        E 64 b1 0b 19
        E 64 b1 0b 11
        E 64 b1 0b 08
        E 64 81 1f 00
        E 64 b1 0b 33
        E 0 91 1c 33
        E 16 b1 0b 2a
        E 32 b1 0b 22
        E 32 b1 0b 19
        E 32 b1 0b 11
        E 32 b1 0b 08
        E 32 81 1c 00
        E 80 b1 0b 33
        E 0 91 1c 33
        E 16 b1 0b 2a
        E 16 b1 0b 22
        E 32 b1 0b 19
        E 32 b1 0b 11
        E 32 b1 0b 08
        E 32 81 1c 00
        E 112 b1 0b 33
        E 0 91 1c 33
        E 16 b1 0b 2a
        E 32 b1 0b 22
        E 32 b1 0b 19
        E 16 b1 0b 11
        E 32 b1 0b 08
        E 16 b1 0b 33
        E 0 81 1c 00
        E 0 91 1a 33
        E 48 b1 0b 2a
        E 64 b1 0b 22
        E 64 b1 0b 19
        E 64 b1 0b 11
        E 16 b1 0b 33
        E 0 81 1a 00
        E 0 91 1c 33
        E 16 b1 0b 2a
        E 16 b1 0b 22
        E 32 b1 0b 19
        E 32 b1 0b 11
        E 32 b1 0b 08
        E 32 81 1c 00
        E 112 b1 0b 33
        E 0 91 1c 33
        E 16 b1 0b 2a
        E 32 b1 0b 22
        E 32 b1 0b 19
        E 16 b1 0b 11
        E 32 b1 0b 08
        E 16 b1 0b 33
        E 16 b1 0b 2a
        E 32 b1 0b 22
        E 32 b1 0b 19
        E 32 b1 0b 11
        E 32 b1 0b 08
        E 32 81 1c 00
        E 80 b1 0b 33
        E 0 91 1c 33
        E 16 b1 0b 2a
        E 32 b1 0b 22
        E 16 b1 0b 19
        E 32 b1 0b 11
        E 32 b1 0b 08
        E 16 b1 0b 33
        E 0 81 1c 00
        E 0 91 1f 33
        E 48 b1 0b 2a
        E 64 b1 0b 22
        E 64 b1 0b 19
        E 64 b1 0b 11
        E 48 b1 0b 08
        E 64 81 1f 00
        E 48 b1 0b 33
        E 0 91 1c 33
        E 16 b1 0b 2a
        E 32 b1 0b 22
        E 32 b1 0b 19
        E 32 b1 0b 11
        E 32 b1 0b 08
        E 32 81 1c 00
        E 96 b1 0b 33
        E 0 91 1c 33
        E 16 b1 0b 2a
        E 32 b1 0b 22
        E 32 b1 0b 19
        E 32 b1 0b 11
        E 32 b1 0b 08
        E 32 81 1c 00
        E 96 b1 0b 33
        E 0 91 1c 33
        E 16 b1 0b 2a
        E 32 b1 0b 22
        E 32 b1 0b 19
        E 32 b1 0b 11
        E 16 b1 0b 33
        E 0 81 1c 00
        E 0 91 1a 33
        E 48 b1 0b 2a
        E 64 b1 0b 22
        E 64 b1 0b 19
        E 48 b1 0b 11
        E 48 b1 0b 33
        E 0 81 1a 00
        E 0 91 1c 33
        E 16 b1 0b 2a
        E 32 b1 0b 22
        E 32 b1 0b 19
        E 32 b1 0b 11
        E 32 b1 0b 08
        E 32 81 1c 00
        E 96 b1 0b 33
        E 0 91 1c 33
        E 16 b1 0b 2a
        E 32 b1 0b 22
        E 32 b1 0b 19
        E 32 b1 0b 11
        E 16 b1 0b 33
        E 16 b1 0b 2a
        E 32 b1 0b 22
        E 32 b1 0b 19
        E 32 b1 0b 11
        E 32 b1 0b 08
        E 32 81 1c 00
        E 96 b1 0b 33
        E 0 91 1c 33
        E 16 b1 0b 2a
        E 32 b1 0b 22
        E 32 b1 0b 19
        E 32 b1 0b 11
        E 16 b1 0b 33
        E 0 81 1c 00
        E 0 91 1f 33
        E 48 b1 0b 2a
        E 64 b1 0b 22
        E 48 b1 0b 19
        E 64 b1 0b 11
        E 64 b1 0b 08
        E 64 81 1f 00
        E 48 b1 0b 33
        E 0 91 1c 33
        E 16 b1 0b 2a
        E 32 b1 0b 22
        E 32 b1 0b 19
        E 16 b1 0b 11
        E 32 b1 0b 08
        E 32 81 1c 00
        E 112 b1 0b 33
        E 0 91 1c 33
        E 16 b1 0b 2a
        E 32 b1 0b 22
        E 32 b1 0b 19
        E 32 b1 0b 11
        E 32 b1 0b 08
        E 16 81 1c 00
        E 112 b1 0b 33
        E 0 91 1c 33
        E 16 b1 0b 2a
        E 32 b1 0b 22
        E 32 b1 0b 19
        E 32 b1 0b 11
        E 16 b1 0b 33
        E 0 81 1c 00
        E 0 91 1a 33
        E 48 b1 0b 2a
        E 48 b1 0b 22
        E 64 b1 0b 19
        E 64 b1 0b 11
        E 48 b1 0b 33
        E 0 81 1a 00
        E 0 91 1c 33
        E 16 b1 0b 2a
        E 32 b1 0b 22
        E 32 b1 0b 19
        E 32 b1 0b 11
        E 32 b1 0b 08
        E 16 81 1c 00
        E 112 b1 0b 33
        E 0 91 1c 33
        E 16 b1 0b 2a
        E 32 b1 0b 22
        E 32 b1 0b 19
        E 32 b1 0b 11
        E 16 b1 0b 33
        E 16 b1 0b 2a
        E 32 b1 0b 22
        E 32 b1 0b 19
        E 32 b1 0b 11
        E 16 b1 0b 08
        E 32 81 1c 00
        E 112 b1 0b 33
        E 0 91 1c 33
        E 16 b1 0b 2a
        E 32 b1 0b 22
        E 32 b1 0b 19
        E 32 b1 0b 11
        E 16 b1 0b 33
        E 0 81 1c 00
        E 0 91 1f 33
        E 48 b1 0b 2a
        E 48 b1 0b 22
        E 64 b1 0b 19
        E 64 b1 0b 11
        E 64 b1 0b 08
        E 64 81 1f 00
        E 64 b1 0b 33
        E 0 91 1c 33
        E 16 b1 0b 2a
        E 32 b1 0b 22
        E 32 b1 0b 19
        E 32 b1 0b 11
        E 32 b1 0b 08
        E 32 81 1c 00
        E 80 b1 0b 33
        E 0 91 1c 33
        E 16 b1 0b 2a
        E 32 b1 0b 22
        E 16 b1 0b 19
        E 32 b1 0b 11
        E 32 b1 0b 08
        E 32 81 1c 00
        E 112 b1 0b 33
        E 0 91 1c 33
        E 16 b1 0b 2a
        E 32 b1 0b 22
        E 32 b1 0b 19
        E 32 b1 0b 11
        E 16 b1 0b 08
        E 16 b1 0b 33
        E 0 81 1c 00
        E 0 91 1a 33
        E 48 b1 0b 2a
        E 64 b1 0b 22
        E 64 b1 0b 19
        E 64 b1 0b 11
        E 16 b1 0b 33
        E 0 81 1a 00
        E 0 91 1c 33
        E 16 b1 0b 2a
        E 32 b1 0b 22
        E 16 b1 0b 19
        E 32 b1 0b 11
        E 32 b1 0b 08
        E 32 81 1c 00
        E 112 b1 0b 33
        E 0 91 1c 33
        E 16 b1 0b 2a
        E 32 b1 0b 22
        E 32 b1 0b 19
        E 32 b1 0b 11
        E 16 b1 0b 33
        E 16 b1 0b 2a
        E 16 b1 0b 22
        E 32 b1 0b 19
        E 32 b1 0b 11
        E 32 b1 0b 08
        E 32 81 1c 00
        E 112 b1 0b 33
        E 0 91 1c 33
        E 16 b1 0b 2a
        E 32 b1 0b 22
        E 32 b1 0b 19
        E 16 b1 0b 11
        E 32 b1 0b 08
        E 16 b1 0b 33
        E 0 81 1c 00
        E 0 91 1f 33
        E 48 b1 0b 2a
        E 64 b1 0b 22
        E 64 b1 0b 19
        E 64 b1 0b 11
        E 48 b1 0b 08
        E 64 81 1f 00
        E 48 b1 0b 33
        E 0 91 23 33
        E 16 b1 0b 2a
        E 32 b1 0b 22
        E 32 b1 0b 19
        E 32 b1 0b 11
        E 32 b1 0b 08
        E 32 81 23 00
        E 96 b1 0b 33
        E 0 91 23 33
        E 16 b1 0b 2a
        E 32 b1 0b 22
        E 32 b1 0b 19
        E 32 b1 0b 11
        E 32 b1 0b 08
        E 32 81 23 00
        E 80 b1 0b 33
        E 0 91 23 33
        E 16 b1 0b 2a
        E 16 b1 0b 22
        E 32 b1 0b 19
        E 32 b1 0b 11
        E 32 b1 0b 08
        E 16 b1 0b 33
        E 0 81 23 00
        E 0 91 21 33
        E 48 b1 0b 2a
        E 64 b1 0b 22
        E 64 b1 0b 19
        E 48 b1 0b 11
        E 48 b1 0b 33
        E 0 81 21 00
        E 0 91 23 33
        E 16 b1 0b 2a
        E 32 b1 0b 22
        E 32 b1 0b 19
        E 32 b1 0b 11
        E 32 b1 0b 08
        E 32 81 23 00
        E 80 b1 0b 33
        E 0 91 23 33
        E 16 b1 0b 2a
        E 32 b1 0b 22
        E 16 b1 0b 19
        E 32 b1 0b 11
        E 32 b1 0b 08
        E 16 b1 0b 33
        E 16 b1 0b 2a
        E 32 b1 0b 22
        E 32 b1 0b 19
        E 32 b1 0b 11
        E 32 b1 0b 08
        E 32 81 23 00
        E 96 b1 0b 33
        E 0 91 23 33
        E 16 b1 0b 2a
        E 32 b1 0b 22
        E 32 b1 0b 19
        E 32 b1 0b 11
        E 16 b1 0b 33
        E 0 81 23 00
        E 0 91 26 33
        E 48 b1 0b 2a
        E 64 b1 0b 22
        E 64 b1 0b 19
        E 48 b1 0b 11
        E 64 b1 0b 08
        E 64 81 26 00
        E 48 b1 0b 33
        E 0 91 23 33
        E 16 b1 0b 2a
        E 32 b1 0b 22
        E 32 b1 0b 19
        E 32 b1 0b 11
        E 16 b1 0b 08
        E 32 81 23 00
        E 112 b1 0b 33
        E 0 91 23 33
        E 16 b1 0b 2a
        E 32 b1 0b 22
        E 32 b1 0b 19
        E 32 b1 0b 11
        E 32 b1 0b 08
        E 32 81 23 00
        E 96 b1 0b 33
        E 0 91 23 33
        E 16 b1 0b 2a
        E 32 b1 0b 22
        E 32 b1 0b 19
        E 32 b1 0b 11
        E 16 b1 0b 33
        E 0 81 23 00
        E 0 91 21 33
        E 48 b1 0b 2a
        E 64 b1 0b 22
        E 48 b1 0b 19
        E 64 b1 0b 11
        E 48 b1 0b 33
        E 0 81 21 00
        E 0 91 23 33
        E 16 b1 0b 2a
        E 32 b1 0b 22
        E 32 b1 0b 19
        E 32 b1 0b 11
        E 32 b1 0b 08
        E 32 81 23 00
        E 96 b1 0b 33
        E 0 91 23 33
        E 16 b1 0b 2a
        E 32 b1 0b 22
        E 32 b1 0b 19
        E 32 b1 0b 11
        E 16 b1 0b 33
        E 16 b1 0b 2a
        E 32 b1 0b 22
        E 32 b1 0b 19
        E 32 b1 0b 11
        E 32 b1 0b 08
        E 16 81 23 00
        E 112 b1 0b 33
        E 0 91 23 33
        E 16 b1 0b 2a
        E 32 b1 0b 22
        E 32 b1 0b 19
        E 32 b1 0b 11
        E 16 b1 0b 33
        E 0 81 23 00
        E 0 91 26 33
        E 48 b1 0b 2a
        E 48 b1 0b 22
        E 64 b1 0b 19
        E 64 b1 0b 11
        E 64 b1 0b 08
        E 64 81 26 00
        E 48 b1 0b 33
        E 0 91 1c 33
        E 16 b1 0b 2a
        E 16 b1 0b 22
        E 32 b1 0b 19
        E 32 b1 0b 11
        E 32 b1 0b 08
        E 32 81 1c 00
        E 112 b1 0b 33
        E 0 91 1c 33
        E 16 b1 0b 2a
        E 32 b1 0b 22
        E 32 b1 0b 19
        E 16 b1 0b 11
        E 32 b1 0b 08
        E 32 81 1c 00
        E 112 b1 0b 33
        E 0 91 1c 33
        E 16 b1 0b 2a
        E 32 b1 0b 22
        E 32 b1 0b 19
        E 32 b1 0b 11
        E 16 b1 0b 33
        E 0 81 1c 00
        E 0 91 1a 33
        E 32 b1 0b 2a
        E 64 b1 0b 22
        E 64 b1 0b 19
        E 64 b1 0b 11
        E 48 b1 0b 33
        E 0 81 1a 00
        E 0 91 1c 33
        E 16 b1 0b 2a
        E 32 b1 0b 22
        E 32 b1 0b 19
        E 32 b1 0b 11
        E 16 b1 0b 08
        E 32 81 1c 00
        E 112 b1 0b 33
        E 0 91 1c 33
        E 16 b1 0b 2a
        E 32 b1 0b 22
        E 32 b1 0b 19
        E 32 b1 0b 11
        E 16 b1 0b 33
        E 16 b1 0b 2a
        E 32 b1 0b 22
        E 16 b1 0b 19
        E 32 b1 0b 11
        E 32 b1 0b 08
        E 32 81 1c 00
        E 112 b1 0b 33
        E 0 91 1c 33
        E 16 b1 0b 2a
        E 32 b1 0b 22
        E 32 b1 0b 19
        E 32 b1 0b 11
        E 16 b1 0b 08
        E 16 b1 0b 33
        E 0 81 1c 00
        E 0 91 1f 33
        E 48 b1 0b 2a
        E 64 b1 0b 22
        E 64 b1 0b 19
        E 64 b1 0b 11
        E 64 b1 0b 08
        E 48 81 1f 00
        E 48 b1 0b 33
        E 0 91 1c 33
        E 16 b1 0b 2a
        E 32 b1 0b 22
        E 32 b1 0b 19
        E 32 b1 0b 11
        E 32 b1 0b 08
        E 32 81 1c 00
        E 96 b1 0b 33
        E 0 91 1c 33
        E 16 b1 0b 2a
        E 32 b1 0b 22
        E 32 b1 0b 19
        E 32 b1 0b 11
        E 32 b1 0b 08
        E 32 81 1c 00
        E 80 b1 0b 33
        E 0 91 1c 33
        E 16 b1 0b 2a
        E 32 b1 0b 22
        E 16 b1 0b 19
        E 32 b1 0b 11
        E 32 b1 0b 08
        E 16 b1 0b 33
        E 0 81 1c 00
        E 0 91 1a 33
        E 48 b1 0b 2a
        E 64 b1 0b 22
        E 64 b1 0b 19
        E 64 b1 0b 11
        E 16 b1 0b 33
        E 0 81 1a 00
        E 0 91 1c 33
        E 16 b1 0b 2a
        E 16 b1 0b 22
        E 32 b1 0b 19
        E 32 b1 0b 11
        E 32 b1 0b 08
        E 32 81 1c 00
        E 112 b1 0b 33
        E 0 91 1c 33
        E 16 b1 0b 2a
        E 32 b1 0b 22
        E 32 b1 0b 19
        E 16 b1 0b 11
        E 32 b1 0b 08
        E 16 b1 0b 33
        E 16 b1 0b 2a
        E 32 b1 0b 22
        E 32 b1 0b 19
        E 32 b1 0b 11
        E 32 b1 0b 08
        E 32 81 1c 00
        E 80 b1 0b 33
        E 0 91 1c 33
        E 16 b1 0b 2a
        E 16 b1 0b 22
        E 32 b1 0b 19
        E 32 b1 0b 11
        E 32 b1 0b 08
        E 16 b1 0b 33
        E 0 81 1c 00
        E 0 91 1f 33
        E 48 b1 0b 2a
        E 64 b1 0b 22
        E 64 b1 0b 19
        E 48 b1 0b 11
        E 64 b1 0b 08
        E 64 81 1f 00
        E 48 b1 0b 2a
        E 0 91 1f 2a
        E 224 b1 0b 22
        E 192 b1 0b 19
        E 1728 b1 0b 2a
        E 0 81 1f 00
        E 0 91 23 2a
        E 224 b1 0b 22
        E 176 b1 0b 19
        E 1760 b1 0c 40
        E 0 b1 0b 4c
        E 0 81 23 00
        E 0 91 1a 4c
        E 16 b1 0b 44
        E 32 b1 0b 3b
        E 32 b1 0b 33
        E 32 b1 0b 2a
        E 16 b1 0b 4c
        E 0 81 1a 00
        E 0 91 1c 4c
        E 16 b1 0b 44
        E 32 b1 0b 3b
        E 32 b1 0b 33
        E 32 b1 0b 2a
        E 16 b1 0c 10
        E 0 b1 0b 3b
        E 0 81 1c 00
        E 0 91 33 3b
        E 16 b1 0b 33
        E 16 b1 0b 2a
        E 32 b1 0b 22
        E 32 b1 0b 19
        E 32 b1 0b 11
        E 16 b1 0b 3b
        E 0 81 33 00
        E 0 91 34 3b
        E 16 b1 0b 33
        E 32 b1 0b 2a
        E 32 b1 0b 22
        E 32 b1 0b 19
        E 16 b1 0b 22
        E 144 b1 0b 3b
        E 16 b1 0b 33
        E 32 b1 0b 2a
        E 32 b1 0b 22
        E 32 b1 0b 19
        E 16 b1 0b 22
        E 16 b1 0b 19
        E 32 b1 0b 11
        E 32 b1 0b 08
        E 32 81 34 00
        E 16 b1 0b 3b
        E 0 91 34 3b
        E 16 b1 0b 33
        E 32 b1 0b 2a
        E 16 b1 0b 22
        E 32 b1 0b 19
        E 32 b1 0b 11
        E 16 b1 0b 22
        E 16 b1 0b 19
        E 32 b1 0b 11
        E 32 b1 0b 08
        E 32 81 34 00
        E 16 b1 0b 11
        E 0 91 34 11
        E 144 b1 0b 3b
        E 256 b1 0b 22
        E 144 b1 0b 3b
        E 128 b1 0b 22
        E 144 b1 0c 40
        E 0 b1 0b 4c
        E 0 81 34 00
        E 0 91 1c 4c
        E 16 b1 0b 44
        E 32 b1 0b 3b
        E 32 b1 0b 33
        E 32 b1 0b 2a
        E 16 b1 0b 4c
        E 0 81 1c 00
        E 0 91 1a 4c
        E 16 b1 0b 44
        E 32 b1 0b 3b
        E 32 b1 0b 33
        E 32 b1 0b 2a
        E 16 b1 0b 4c
        E 0 81 1a 00
        E 0 91 1c 4c
        E 16 b1 0b 44
        E 32 b1 0b 3b
        E 16 b1 0b 33
        E 32 b1 0b 2a
        E 32 b1 0b 22
        E 16 b1 0c 10
        E 0 b1 0b 3b
        E 0 81 1c 00
        E 0 91 33 3b
        E 16 b1 0b 33
        E 32 b1 0b 2a
        E 32 b1 0b 22
        E 32 b1 0b 19
        E 16 b1 0b 3b
        E 0 81 33 00
        E 0 91 34 3b
        E 16 b1 0b 33
        E 32 b1 0b 2a
        E 32 b1 0b 22
        E 32 b1 0b 19
        E 16 b1 0b 22
        E 144 b1 0b 3b
        E 16 b1 0b 33
        E 32 b1 0b 2a
        E 32 b1 0b 22
        E 32 b1 0b 19
        E 16 b1 0b 22
        E 16 b1 0b 19
        E 32 b1 0b 11
        E 32 b1 0b 08
        E 16 81 34 00
        E 48 b1 0b 3b
        E 0 91 34 3b
        E 16 b1 0b 33
        E 32 b1 0b 2a
        E 32 b1 0b 22
        E 32 b1 0b 19
        E 16 b1 0b 22
        E 16 b1 0b 19
        E 32 b1 0b 11
        E 32 b1 0b 08
        E 32 81 34 00
        E 16 b1 0b 11
        E 0 91 34 11
        E 144 b1 0b 3b
        E 272 b1 0b 22
        E 128 b1 0b 3b
        E 128 b1 0b 22
        E 144 b1 0c 40
        E 0 b1 0b 4c
        E 0 81 34 00
        E 0 91 1c 4c
        E 16 b1 0b 44
        E 32 b1 0b 3b
        E 32 b1 0b 33
        E 32 b1 0b 2a
        E 16 b1 0b 4c
        E 0 81 1c 00
        E 0 91 1a 4c
        E 16 b1 0b 44
        E 32 b1 0b 3b
        E 32 b1 0b 33
        E 16 b1 0b 2a
        E 32 b1 0b 22
        E 16 b1 0b 4c
        E 0 81 1a 00
        E 0 91 1c 4c
        E 16 b1 0b 44
        E 32 b1 0b 3b
        E 32 b1 0b 33
        E 32 b1 0b 2a
        E 16 b1 0c 10
        E 0 b1 0b 3b
        E 0 81 1c 00
        E 0 91 33 3b
        E 16 b1 0b 33
        E 32 b1 0b 2a
        E 32 b1 0b 22
        E 32 b1 0b 19
        E 16 b1 0b 3b
        E 0 81 33 00
        E 0 91 34 3b
        E 16 b1 0b 33
        E 32 b1 0b 2a
        E 16 b1 0b 22
        E 32 b1 0b 19
        E 32 b1 0b 11
        E 16 b1 0b 22
        E 128 b1 0b 3b
        E 16 b1 0b 33
        E 32 b1 0b 2a
        E 32 b1 0b 22
        E 32 b1 0b 19
        E 16 b1 0b 11
        E 16 b1 0b 22
        E 16 b1 0b 19
        E 32 b1 0b 11
        E 32 b1 0b 08
        E 32 81 34 00
        E 16 b1 0b 3b
        E 0 91 34 3b
        E 16 b1 0b 33
        E 32 b1 0b 2a
        E 32 b1 0b 22
        E 32 b1 0b 19
        E 16 b1 0b 22
        E 16 b1 0b 19
        E 32 b1 0b 11
        E 16 b1 0b 08
        E 32 81 34 00
        E 48 b1 0b 11
        E 0 91 34 11
        E 128 b1 0b 3b
        E 272 b1 0b 22
        E 128 b1 0b 3b
        E 144 b1 0b 22
        E 128 b1 0c 40
        E 0 b1 0b 4c
        E 0 81 34 00
        E 0 91 1c 4c
        E 16 b1 0b 44
        E 32 b1 0b 3b
        E 32 b1 0b 33
        E 32 b1 0b 2a
        E 16 b1 0b 22
        E 16 b1 0b 4c
        E 0 81 1c 00
        E 0 91 1a 4c
        E 16 b1 0b 44
        E 32 b1 0b 3b
        E 32 b1 0b 33
        E 32 b1 0b 2a
        E 16 b1 0b 4c
        E 0 81 1a 00
        E 0 91 1c 4c
        E 16 b1 0b 44
        E 32 b1 0b 3b
        E 32 b1 0b 33
        E 32 b1 0b 2a
        E 16 b1 0c 10
        E 0 b1 0b 3b
        E 0 81 1c 00
        E 0 91 33 3b
        E 16 b1 0b 33
        E 32 b1 0b 2a
        E 32 b1 0b 22
        E 16 b1 0b 19
        E 32 b1 0b 11
        E 16 b1 0b 3b
        E 0 81 33 00
        E 0 91 34 3b
        E 16 b1 0b 33
        E 32 b1 0b 2a
        E 32 b1 0b 22
        E 32 b1 0b 19
        E 16 b1 0b 22
        E 128 b1 0b 3b
        E 16 b1 0b 33
        E 16 b1 0b 2a
        E 32 b1 0b 22
        E 32 b1 0b 19
        E 32 b1 0b 11
        E 16 b1 0b 22
        E 16 b1 0b 19
        E 32 b1 0b 11
        E 32 b1 0b 08
        E 32 81 34 00
        E 16 b1 0b 3b
        E 0 91 34 3b
        E 16 b1 0b 33
        E 32 b1 0b 2a
        E 32 b1 0b 22
        E 16 b1 0b 19
        E 32 b1 0b 11
        E 16 b1 0b 22
        E 16 b1 0b 19
        E 32 b1 0b 11
        E 32 b1 0b 08
        E 32 81 34 00
        E 16 b1 0b 11
        E 0 91 34 11
        E 128 b1 0b 3b
        E 272 b1 0b 22
        E 144 b1 0b 3b
        E 128 b1 0b 22
        E 128 b1 0c 40
        E 0 b1 0b 4c
        E 0 81 34 00
        E 0 91 1c 4c
        E 16 b1 0b 44
        E 16 b1 0b 3b
        E 32 b1 0b 33
        E 32 b1 0b 2a
        E 32 b1 0b 22
        E 16 b1 0b 33
        E 0 81 1c 00
        E 0 91 2d 33
        E 16 b1 0b 2a
        E 32 b1 0b 22
        E 32 b1 0b 19
        E 32 b1 0b 11
        E 16 b1 0b 33
        E 0 81 2d 00
        E 0 91 30 33
        E 16 b1 0b 2a
        E 32 b1 0b 22
        E 16 b1 0b 19
        E 0 81 30 00
        E 0 91 2d 19
        E 80 b1 0b 33
        E 0 81 2d 00
        E 0 91 34 33
        E 16 b1 0b 2a
        E 32 b1 0b 22
        E 16 b1 0b 19
        E 0 81 34 00
        E 0 91 30 19
        E 16 b1 0b 11
        E 32 b1 0b 08
        E 16 b1 0b 33
        E 0 81 30 00
        E 0 91 37 33
        E 16 b1 0b 2a
        E 32 b1 0b 22
        E 16 b1 0b 19
        E 0 81 37 00
        E 0 91 34 19
        E 16 b1 0b 11
        E 32 b1 0b 08
        E 16 b1 0b 33
        E 16 b1 0b 2a
        E 32 b1 0b 22
        E 16 b1 0b 19
        E 16 81 34 00
        E 0 91 37 19
        E 16 b1 0b 11
        E 32 b1 0b 08
        E 16 b1 0b 33
        E 0 81 37 00
        E 0 91 30 33
        E 16 b1 0b 2a
        E 32 b1 0b 22
        E 16 b1 0b 19
        E 0 81 30 00
        E 0 91 34 19
        E 16 b1 0b 11
        E 32 b1 0b 08
        E 16 b1 0b 33
        E 16 b1 0b 2a
        E 32 b1 0b 22
        E 16 b1 0b 19
        E 0 81 34 00
        E 0 91 30 19
        E 16 b1 0b 11
        E 32 b1 0b 08
        E 16 81 30 00
        E 16 b1 0b 33
        E 0 91 37 33
        E 16 b1 0b 2a
        E 32 b1 0b 22
        E 16 b1 0b 19
        E 0 81 37 00
        E 0 91 34 19
        E 16 b1 0b 11
        E 32 b1 0b 08
        E 16 b1 0b 33
        E 0 81 34 00
        E 0 91 39 33
        E 16 b1 0b 2a
        E 32 b1 0b 22
        E 16 b1 0b 19
        E 0 81 39 00
        E 0 91 37 19
        E 16 b1 0b 11
        E 32 b1 0b 08
        E 16 b1 0b 33
        E 0 81 37 00
        E 0 91 3c 33
        E 16 b1 0b 2a
        E 32 b1 0b 22
        E 16 b1 0b 19
        E 16 81 3c 00
        E 0 91 39 19
        E 16 b1 0b 11
        E 32 b1 0b 08
        E 16 b1 0b 33
        E 0 81 39 00
        E 0 91 40 33
        E 16 b1 0b 2a
        E 32 b1 0b 22
        E 16 b1 0b 19
        E 0 81 40 00
        E 0 91 3c 19
        E 16 b1 0b 11
        E 32 b1 0b 08
        E 16 b1 0b 33
        E 0 81 3c 00
        E 0 91 43 33
        E 16 b1 0b 2a
        E 32 b1 0b 22
        E 16 b1 0b 19
        E 0 81 43 00
        E 0 91 40 19
        E 16 b1 0b 11
        E 32 b1 0b 08
        E 16 81 40 00
        E 16 b1 0b 33
        E 0 91 45 33
        E 16 b1 0b 2a
        E 32 b1 0b 22
        E 16 b1 0b 19
        E 0 81 45 00
        E 0 91 43 19
        E 16 b1 0b 11
        E 32 b1 0b 08
        E 16 b1 0b 33
        E 0 81 43 00
        E 0 91 48 33
        E 16 b1 0b 2a
        E 32 b1 0b 22
        E 16 b1 0b 19
        E 0 81 48 00
        E 0 91 45 19
        E 16 b1 0b 11
        E 32 b1 0b 08
        E 16 b1 0b 33
        E 0 81 45 00
        E 0 91 4c 33
        E 16 b1 0b 2a
        E 32 b1 0b 22
        E 16 b1 0b 19
        E 16 81 4c 00
        E 0 91 48 19
        E 16 b1 0b 11
        E 32 b1 0b 08
        E 16 b1 0b 33
        E 0 81 48 00
        E 0 91 4f 33
        E 16 b1 0b 2a
        E 32 b1 0b 22
        E 16 b1 0b 19
        E 0 81 4f 00
        E 0 91 4c 19
        E 16 b1 0b 11
        E 32 b1 0b 08
        E 16 b1 0b 33
        E 0 81 4c 00
        E 0 91 2f 33
        E 16 b1 0b 2a
        E 32 b1 0b 22
        E 16 b1 0b 19
        E 0 81 2f 00
        E 0 91 4f 19
        E 16 b1 0b 11
        E 0 81 4f 00
        E 0 91 50 11
        E 32 b1 0b 08
        E 0 81 50 00
        E 0 91 4f 08
        E 16 b1 0b 33
        E 0 81 4f 00
        E 0 91 33 33
        E 16 b1 0b 2a
        E 16 b1 0b 22
        E 32 b1 0b 19
        E 16 81 33 00
        E 0 91 2f 19
        E 16 b1 0b 11
        E 32 b1 0b 08
        E 16 b1 0b 33
        E 0 81 2f 00
        E 0 91 36 33
        E 16 b1 0b 2a
        E 32 b1 0b 22
        E 16 b1 0b 19
        E 0 81 36 00
        E 0 91 33 19
        E 16 b1 0b 11
        E 32 b1 0b 08
        E 16 b1 0b 33
        E 0 81 33 00
        E 0 91 39 33
        E 16 b1 0b 2a
        E 32 b1 0b 22
        E 16 b1 0b 19
        E 0 81 39 00
        E 0 91 36 19
        E 16 b1 0b 11
        E 16 b1 0b 08
        E 32 81 36 00
        E 16 b1 0b 33
        E 0 91 36 33
        E 16 b1 0b 2a
        E 32 b1 0b 22
        E 16 b1 0b 19
        E 0 81 36 00
        E 0 91 39 19
        E 16 b1 0b 11
        E 32 b1 0b 08
        E 16 b1 0b 33
        E 0 81 39 00
        E 0 91 33 33
        E 16 b1 0b 2a
        E 32 b1 0b 22
        E 16 b1 0b 19
        E 0 81 33 00
        E 0 91 36 19
        E 16 b1 0b 11
        E 32 b1 0b 08
        E 16 b1 0b 33
        E 16 b1 0b 2a
        E 16 b1 0b 22
        E 32 b1 0b 19
        E 16 81 36 00
        E 0 91 33 19
        E 16 b1 0b 11
        E 32 b1 0b 08
        E 16 b1 0b 33
        E 0 81 33 00
        E 0 91 39 33
        E 16 b1 0b 2a
        E 32 b1 0b 22
        E 16 b1 0b 19
        E 0 81 39 00
        E 0 91 36 19
        E 16 b1 0b 11
        E 32 b1 0b 08
        E 16 b1 0b 33
        E 0 81 36 00
        E 0 91 3b 33
        E 16 b1 0b 2a
        E 32 b1 0b 22
        E 16 b1 0b 19
        E 0 81 3b 00
        E 0 91 29 19
        E 16 b1 0b 11
        E 16 b1 0b 08
        E 32 81 29 00
        E 16 b1 0b 33
        E 0 91 3f 33
        E 16 b1 0b 2a
        E 32 b1 0b 22
        E 16 b1 0b 19
        E 0 81 3f 00
        E 0 91 3b 19
        E 16 b1 0b 11
        E 32 b1 0b 08
        E 16 b1 0b 33
        E 0 81 3b 00
        E 0 91 42 33
        E 16 b1 0b 2a
        E 32 b1 0b 22
        E 16 b1 0b 19
        E 0 81 42 00
        E 0 91 3f 19
        E 16 b1 0b 11
        E 32 b1 0b 08
        E 16 b1 0b 33
        E 0 81 3f 00
        E 0 91 45 33
        E 16 b1 0b 2a
        E 16 b1 0b 22
        E 32 b1 0b 19
        E 16 81 45 00
        E 0 91 42 19
        E 16 b1 0b 11
        E 32 b1 0b 08
        E 16 b1 0b 33
        E 0 81 42 00
        E 0 91 47 33
        E 16 b1 0b 2a
        E 32 b1 0b 22
        E 16 b1 0b 19
        E 0 81 47 00
        E 0 91 45 19
        E 16 b1 0b 11
        E 32 b1 0b 08
        E 16 b1 0b 33
        E 0 81 45 00
        E 0 91 4b 33
        E 16 b1 0b 2a
        E 32 b1 0b 22
        E 16 b1 0b 19
        E 0 81 4b 00
        E 0 91 47 19
        E 16 b1 0b 11
        E 16 b1 0b 08
        E 32 81 47 00
        E 16 b1 0b 33
        E 0 91 4e 33
        E 16 b1 0b 2a
        E 0 81 4e 00
        E 0 91 4d 2a
        E 32 b1 0b 22
        E 0 81 4d 00
        E 0 91 4e 22
        E 16 b1 0b 19
        E 0 81 4e 00
        E 0 91 4b 19
        E 16 b1 0b 11
        E 32 b1 0b 08
        E 16 b1 0b 33
        E 0 81 4b 00
        E 0 91 51 33
        E 16 b1 0b 2a
        E 0 81 51 00
        E 0 91 50 2a
        E 32 b1 0b 22
        E 0 81 50 00
        E 0 91 51 22
        E 16 b1 0b 19
        E 0 81 51 00
        E 0 91 4e 19
        E 64 b1 0c 20
        E 0 b1 0b 33
        E 0 81 4e 00
        E 0 91 1c 33
        E 16 b1 0b 2a
        E 16 b1 0b 33
        E 16 b1 0b 2a
        E 16 b1 0b 22
        E 16 b1 0b 33
        E 16 b1 0b 2a
        E 32 b1 0b 22
        E 32 b1 0b 19
        E 32 b1 0b 11
        E 32 b1 0b 08
        E 32 81 1c 00
        E 16 b1 0b 33
        E 0 91 1c 33
        E 16 b1 0b 2a
        E 32 b1 0b 22
        E 32 b1 0b 19
        E 32 b1 0b 11
        E 16 b1 0b 08
        E 32 81 1c 00
        E 112 b1 0b 33
        E 0 91 1c 33
        E 16 b1 0b 2a
        E 32 b1 0b 22
        E 32 b1 0b 19
        E 32 b1 0b 11
        E 16 b1 0b 33
        E 0 81 1c 00
        E 0 91 1a 33
        E 48 b1 0b 2a
        E 48 b1 0b 22
        E 64 b1 0b 19
        E 64 b1 0b 11
        E 48 b1 0b 33
        E 0 81 1a 00
        E 0 91 1c 33
        E 16 b1 0b 2a
        E 32 b1 0b 22
        E 32 b1 0b 19
        E 32 b1 0b 11
        E 16 b1 0b 08
        E 32 81 1c 00
        E 112 b1 0b 33
        E 0 91 1c 33
        E 16 b1 0b 2a
        E 32 b1 0b 22
        E 32 b1 0b 19
        E 32 b1 0b 11
        E 16 b1 0b 33
        E 16 b1 0b 2a
        E 32 b1 0b 22
        E 16 b1 0b 19
        E 32 b1 0b 11
        E 32 b1 0b 08
        E 32 81 1c 00
        E 112 b1 0b 33
        E 0 91 1c 33
        E 16 b1 0b 2a
        E 32 b1 0b 22
        E 32 b1 0b 19
        E 32 b1 0b 11
        E 16 b1 0b 08
        E 16 b1 0b 33
        E 0 81 1c 00
        E 0 91 1f 33
        E 48 b1 0b 2a
        E 64 b1 0b 22
        E 64 b1 0b 19
        E 64 b1 0b 11
        E 64 b1 0b 08
        E 48 81 1f 00
        E 48 b1 0b 33
        E 0 91 1c 33
        E 16 b1 0b 2a
        E 32 b1 0b 22
        E 32 b1 0b 19
        E 32 b1 0b 11
        E 32 b1 0b 08
        E 32 81 1c 00
        E 80 b1 0b 33
        E 0 91 1c 33
        E 16 b1 0b 2a
        E 16 b1 0b 22
        E 32 b1 0b 19
        E 32 b1 0b 11
        E 32 b1 0b 08
        E 32 81 1c 00
        E 112 b1 0b 33
        E 0 91 1c 33
        E 16 b1 0b 2a
        E 32 b1 0b 22
        E 32 b1 0b 19
        E 16 b1 0b 11
        E 32 b1 0b 08
        E 16 b1 0b 33
        E 0 81 1c 00
        E 0 91 1a 33
        E 48 b1 0b 2a
        E 64 b1 0b 22
        E 64 b1 0b 19
        E 64 b1 0b 11
        E 16 b1 0b 33
        E 0 81 1a 00
        E 0 91 1c 33
        E 16 b1 0b 2a
        E 16 b1 0b 22
        E 32 b1 0b 19
        E 32 b1 0b 11
        E 32 b1 0b 08
        E 32 81 1c 00
        E 112 b1 0b 33
        E 0 91 1c 33
        E 16 b1 0b 2a
        E 32 b1 0b 22
        E 32 b1 0b 19
        E 16 b1 0b 11
        E 32 b1 0b 08
        E 16 b1 0b 33
        E 16 b1 0b 2a
        E 32 b1 0b 22
        E 32 b1 0b 19
        E 32 b1 0b 11
        E 32 b1 0b 08
        E 32 81 1c 00
        E 80 b1 0b 33
        E 0 91 1c 33
        E 16 b1 0b 2a
        E 16 b1 0b 22
        E 32 b1 0b 19
        E 32 b1 0b 11
        E 32 b1 0b 08
        E 16 b1 0b 33
        E 0 81 1c 00
        E 0 91 1f 33
        E 48 b1 0b 2a
        E 64 b1 0b 22
        E 64 b1 0b 19
        E 64 b1 0b 11
        E 48 b1 0b 08
        E 64 81 1f 00
        E 48 b1 0b 33
        E 0 91 1c 33
        E 16 b1 0b 2a
        E 32 b1 0b 22
        E 32 b1 0b 19
        E 32 b1 0b 11
        E 32 b1 0b 08
        E 32 81 1c 00
        E 96 b1 0b 33
        E 0 91 1c 33
        E 16 b1 0b 2a
        E 32 b1 0b 22
        E 32 b1 0b 19
        E 32 b1 0b 11
        E 32 b1 0b 08
        E 32 81 1c 00
        E 96 b1 0b 33
        E 0 91 1c 33
        E 16 b1 0b 2a
        E 32 b1 0b 22
        E 32 b1 0b 19
        E 32 b1 0b 11
        E 16 b1 0b 33
        E 0 81 1c 00
        E 0 91 1a 33
        E 48 b1 0b 2a
        E 64 b1 0b 22
        E 64 b1 0b 19
        E 48 b1 0b 11
        E 48 b1 0b 33
        E 0 81 1a 00
        E 0 91 1c 33
        E 16 b1 0b 2a
        E 32 b1 0b 22
        E 32 b1 0b 19
        E 32 b1 0b 11
        E 32 b1 0b 08
        E 32 81 1c 00
        E 96 b1 0b 33
        E 0 91 1c 33
        E 16 b1 0b 2a
        E 32 b1 0b 22
        E 32 b1 0b 19
        E 32 b1 0b 11
        E 16 b1 0b 33
        E 16 b1 0b 2a
        E 32 b1 0b 22
        E 32 b1 0b 19
        E 32 b1 0b 11
        E 32 b1 0b 08
        E 32 81 1c 00
        E 96 b1 0b 33
        E 0 91 1c 33
        E 16 b1 0b 2a
        E 32 b1 0b 22
        E 32 b1 0b 19
        E 32 b1 0b 11
        E 16 b1 0b 33
        E 0 81 1c 00
        E 0 91 1f 33
        E 48 b1 0b 2a
        E 64 b1 0b 22
        E 48 b1 0b 19
        E 64 b1 0b 11
        E 64 b1 0b 08
        E 64 81 1f 00
        E 48 b1 0b 33
        E 0 91 1c 33
        E 16 b1 0b 2a
        E 32 b1 0b 22
        E 32 b1 0b 19
        E 16 b1 0b 11
        E 32 b1 0b 08
        E 32 81 1c 00
        E 112 b1 0b 33
        E 0 91 1c 33
        E 16 b1 0b 2a
        E 32 b1 0b 22
        E 32 b1 0b 19
        E 32 b1 0b 11
        E 32 b1 0b 08
        E 16 81 1c 00
        E 112 b1 0b 33
        E 0 91 1c 33
        E 16 b1 0b 2a
        E 32 b1 0b 22
        E 32 b1 0b 19
        E 32 b1 0b 11
        E 16 b1 0b 33
        E 0 81 1c 00
        E 0 91 1a 33
        E 48 b1 0b 2a
        E 48 b1 0b 22
        E 64 b1 0b 19
        E 64 b1 0b 11
        E 48 b1 0b 33
        E 0 81 1a 00
        E 0 91 1c 33
        E 16 b1 0b 2a
        E 32 b1 0b 22
        E 32 b1 0b 19
        E 32 b1 0b 11
        E 32 b1 0b 08
        E 16 81 1c 00
        E 112 b1 0b 33
        E 0 91 1c 33
        E 16 b1 0b 2a
        E 32 b1 0b 22
        E 32 b1 0b 19
        E 32 b1 0b 11
        E 16 b1 0b 33
        E 16 b1 0b 2a
        E 32 b1 0b 22
        E 32 b1 0b 19
        E 16 b1 0b 11
        E 32 b1 0b 08
        E 32 81 1c 00
        E 112 b1 0b 33
        E 0 91 1c 33
        E 16 b1 0b 2a
        E 32 b1 0b 22
        E 32 b1 0b 19
        E 32 b1 0b 11
        E 16 b1 0b 33
        E 0 81 1c 00
        E 0 91 1f 33
        E 48 b1 0b 2a
        E 48 b1 0b 22
        E 64 b1 0b 19
        E 64 b1 0b 11
        E 64 b1 0b 08
        E 64 81 1f 00
        E 64 b1 0c 40
        E 0 b1 0b 3b
        E 0 91 23 3b
        E 16 b1 0b 33
        E 32 b1 0b 2a
        E 32 b1 0b 22
        E 32 b1 0b 19
        E 16 b1 0b 22
        E 16 b1 0b 19
        E 32 b1 0b 11
        E 32 b1 0b 08
        E 32 81 23 00
        E 16 b1 0b 11
        E 0 91 23 11
        E 48 b1 0b 08
        E 48 81 23 00
        E 48 91 23 08
        E 80 81 23 00
        E 48 b1 0b 3b
        E 0 91 23 3b
        E 16 b1 0b 33
        E 32 b1 0b 2a
        E 32 b1 0b 22
        E 32 b1 0b 19
        E 16 b1 0b 11
        E 16 b1 0b 3b
        E 0 81 23 00
        E 0 91 21 3b
        E 16 b1 0b 33
        E 32 b1 0b 2a
        E 32 b1 0b 22
        E 32 b1 0b 19
        E 16 b1 0b 22
        E 16 b1 0b 19
        E 32 b1 0b 11
        E 32 b1 0b 08
        E 32 81 21 00
        E 16 b1 0b 11
        E 0 91 21 11
        E 48 b1 0b 08
        E 48 81 21 00
        E 48 b1 0b 5d
        E 0 91 23 5d
        E 16 b1 0b 55
        E 32 b1 0b 4c
        E 32 b1 0b 44
        E 32 b1 0b 3b
        E 32 b1 0b 33
        E 32 b1 0b 2a
        E 32 b1 0b 22
        E 32 b1 0b 19
        E 16 b1 0b 11
        E 16 81 23 00
        E 0 91 2d 11
        E 144 b1 0b 19
        E 160 b1 0b 22
        E 144 b1 0b 2a
        E 32 81 2d 00
        E 0 91 2e 2a
        E 128 b1 0b 33
        E 144 b1 0b 3b
        E 48 b1 0c 60
        E 0 b1 0b 33
        E 0 81 2e 00
        E 0 91 21 33
        E 128 81 21 00
        E 0 91 34 33
        E 16 b1 0b 2a
        E 32 b1 0b 22
        E 32 b1 0b 19
        E 16 b1 0b 11
        E 32 b1 0b 08
        E 16 b1 0b 33
        E 16 b1 0b 2a
        E 32 b1 0b 22
        E 32 b1 0b 19
        E 32 b1 0b 11
        E 16 b1 0b 33
        E 0 81 34 00
        E 0 91 21 33
        E 16 b1 0b 2a
        E 32 b1 0b 22
        E 32 b1 0b 19
        E 32 b1 0b 11
        E 16 b1 0b 33
        E 0 81 21 00
        E 0 91 30 33
        E 16 b1 0b 2a
        E 16 b1 0b 22
        E 32 b1 0b 19
        E 32 b1 0b 11
        E 32 b1 0b 08
        E 16 b1 0b 33
        E 0 81 30 00
        E 0 91 21 33
        E 16 b1 0b 2a
        E 32 b1 0b 22
        E 32 b1 0b 19
        E 32 b1 0b 11
        E 16 b1 0b 33
        E 0 81 21 00
        E 0 91 30 33
        E 16 b1 0b 2a
        E 32 b1 0b 22
        E 32 b1 0b 19
        E 16 b1 0b 11
        E 32 b1 0b 08
        E 16 b1 0b 33
        E 16 b1 0b 2a
        E 32 b1 0b 22
        E 32 b1 0b 19
        E 32 b1 0b 11
        E 16 b1 0b 33
        E 0 81 30 00
        E 0 91 21 33
        E 16 b1 0b 2a
        E 32 b1 0b 22
        E 32 b1 0b 19
        E 32 b1 0b 11
        E 16 b1 0b 33
        E 0 81 21 00
        E 0 91 34 33
        E 16 b1 0b 2a
        E 16 b1 0b 22
        E 32 b1 0b 19
        E 32 b1 0b 11
        E 32 b1 0b 08
        E 16 b1 0b 33
        E 16 b1 0b 2a
        E 32 b1 0b 22
        E 32 b1 0b 19
        E 32 b1 0b 11
        E 16 b1 0b 33
        E 0 81 34 00
        E 0 91 21 33
        E 16 b1 0b 2a
        E 32 b1 0b 22
        E 32 b1 0b 19
        E 32 b1 0b 11
        E 16 b1 0b 08
        E 16 b1 0b 33
        E 0 81 21 00
        E 0 91 30 33
        E 16 b1 0b 2a
        E 32 b1 0b 22
        E 32 b1 0b 19
        E 32 b1 0b 11
        E 16 b1 0b 33
        E 0 81 30 00
        E 0 91 21 33
        E 16 b1 0b 2a
        E 32 b1 0b 22
        E 32 b1 0b 19
        E 32 b1 0b 11
        E 16 b1 0b 33
        E 0 81 21 00
        E 0 91 30 33
        E 16 b1 0b 2a
        E 32 b1 0b 22
        E 16 b1 0b 19
        E 32 b1 0b 11
        E 32 b1 0b 08
        E 16 b1 0b 33
        E 16 b1 0b 2a
        E 32 b1 0b 22
        E 32 b1 0b 19
        E 32 b1 0b 11
        E 16 b1 0c 20
        E 0 b1 0b 3b
        E 0 81 30 00
        E 0 91 1c 3b
        E 16 b1 0b 33
        E 32 b1 0b 2a
        E 32 b1 0b 22
        E 32 b1 0b 19
        E 16 b1 0b 11
        E 32 b1 0b 08
        E 32 81 1c 00
        E 80 b1 0b 3b
        E 0 91 1c 3b
        E 16 b1 0b 33
        E 32 b1 0b 2a
        E 32 b1 0b 22
        E 32 b1 0b 19
        E 32 b1 0b 11
        E 32 b1 0b 08
        E 16 81 1c 00
        E 80 b1 0b 3b
        E 0 91 1c 3b
        E 16 b1 0b 33
        E 32 b1 0b 2a
        E 32 b1 0b 22
        E 32 b1 0b 19
        E 16 b1 0b 3b
        E 0 81 1c 00
        E 0 91 1a 3b
        E 48 b1 0b 33
        E 64 b1 0b 2a
        E 48 b1 0b 22
        E 64 b1 0b 19
        E 48 b1 0b 3b
        E 0 81 1a 00
        E 0 91 1c 3b
        E 16 b1 0b 33
        E 32 b1 0b 2a
        E 32 b1 0b 22
        E 32 b1 0b 19
        E 32 b1 0b 11
        E 32 b1 0b 08
        E 16 81 1c 00
        E 80 b1 0b 3b
        E 0 91 1c 3b
        E 16 b1 0b 33
        E 32 b1 0b 2a
        E 32 b1 0b 22
        E 32 b1 0b 19
        E 16 b1 0b 3b
        E 16 b1 0b 33
        E 32 b1 0b 2a
        E 32 b1 0b 22
        E 32 b1 0b 19
        E 32 b1 0b 11
        E 16 b1 0b 08
        E 32 81 1c 00
        E 80 b1 0b 3b
        E 0 91 1c 3b
        E 16 b1 0b 33
        E 32 b1 0b 2a
        E 32 b1 0b 22
        E 32 b1 0b 19
        E 16 b1 0b 3b
        E 0 81 1c 00
        E 0 91 1f 3b
        E 48 b1 0b 33
        E 48 b1 0b 2a
        E 64 b1 0b 22
        E 64 b1 0b 19
        E 64 b1 0b 11
        E 64 b1 0b 08
        E 48 b1 0b 3b
        E 0 81 1f 00
        E 0 91 1c 3b
        E 16 b1 0b 33
        E 16 b1 0b 2a
        E 32 b1 0b 22
        E 32 b1 0b 19
        E 32 b1 0b 11
        E 32 b1 0b 08
        E 32 81 1c 00
        E 80 b1 0b 3b
        E 0 91 1c 3b
        E 16 b1 0b 33
        E 32 b1 0b 2a
        E 32 b1 0b 22
        E 16 b1 0b 19
        E 32 b1 0b 11
        E 32 b1 0b 08
        E 32 81 1c 00
        E 80 b1 0b 3b
        E 0 91 1c 3b
        E 16 b1 0b 33
        E 32 b1 0b 2a
        E 32 b1 0b 22
        E 32 b1 0b 19
        E 16 b1 0b 3b
        E 0 81 1c 00
        E 0 91 1a 3b
        E 32 b1 0b 33
        E 64 b1 0b 2a
        E 64 b1 0b 22
        E 64 b1 0b 19
        E 48 b1 0b 3b
        E 0 81 1a 00
        E 0 91 1c 3b
        E 16 b1 0b 33
        E 32 b1 0b 2a
        E 32 b1 0b 22
        E 16 b1 0b 19
        E 32 b1 0b 11
        E 32 b1 0b 08
        E 32 81 1c 00
        E 80 b1 0b 3b
        E 0 91 1c 3b
        E 16 b1 0b 33
        E 32 b1 0b 2a
        E 32 b1 0b 22
        E 32 b1 0b 19
        E 16 b1 0b 3b
        E 16 b1 0b 33
        E 32 b1 0b 2a
        E 16 b1 0b 22
        E 32 b1 0b 19
        E 32 b1 0b 11
        E 32 b1 0b 08
        E 32 81 1c 00
        E 80 b1 0b 3b
        E 0 91 1c 3b
        E 16 b1 0b 33
        E 32 b1 0b 2a
        E 32 b1 0b 22
        E 32 b1 0b 19
        E 16 b1 0b 11
        E 16 b1 0b 3b
        E 0 81 1c 00
        E 0 91 1f 3b
        E 48 b1 0b 33
        E 64 b1 0b 2a
        E 64 b1 0b 22
        E 64 b1 0b 19
        E 64 b1 0b 11
        E 48 b1 0b 08
        E 48 b1 0c 60
        E 0 b1 0b 33
        E 0 81 1f 00
        E 0 91 21 33
        E 16 b1 0b 2a
        E 64 b1 0b 22
        E 48 b1 0b 33
        E 0 81 21 00
        E 0 91 34 33
        E 16 b1 0b 2a
        E 32 b1 0b 22
        E 32 b1 0b 19
        E 32 b1 0b 11
        E 16 b1 0b 08
        E 16 b1 0b 33
        E 16 b1 0b 2a
        E 32 b1 0b 22
        E 32 b1 0b 19
        E 32 b1 0b 11
        E 16 b1 0b 33
        E 0 81 34 00
        E 0 91 21 33
        E 16 b1 0b 2a
        E 32 b1 0b 22
        E 32 b1 0b 19
        E 32 b1 0b 11
        E 16 b1 0b 33
        E 0 81 21 00
        E 0 91 30 33
        E 16 b1 0b 2a
        E 32 b1 0b 22
        E 16 b1 0b 19
        E 32 b1 0b 11
        E 32 b1 0b 08
        E 16 b1 0b 33
        E 0 81 30 00
        E 0 91 21 33
        E 16 b1 0b 2a
        E 32 b1 0b 22
        E 32 b1 0b 19
        E 32 b1 0b 11
        E 16 b1 0b 33
        E 0 81 21 00
        E 0 91 30 33
        E 16 b1 0b 2a
        E 32 b1 0b 22
        E 32 b1 0b 19
        E 32 b1 0b 11
        E 16 b1 0b 08
        E 16 b1 0b 33
        E 16 b1 0b 2a
        E 32 b1 0b 22
        E 32 b1 0b 19
        E 32 b1 0b 11
        E 16 b1 0b 33
        E 0 81 30 00
        E 0 91 21 33
        E 16 b1 0b 2a
        E 32 b1 0b 22
        E 32 b1 0b 19
        E 32 b1 0b 11
        E 16 b1 0b 33
        E 0 81 21 00
        E 0 91 34 33
        E 16 b1 0b 2a
        E 32 b1 0b 22
        E 32 b1 0b 19
        E 16 b1 0b 11
        E 32 b1 0b 08
        E 16 b1 0b 33
        E 16 b1 0b 2a
        E 32 b1 0b 22
        E 32 b1 0b 19
        E 32 b1 0b 11
        E 16 b1 0b 33
        E 0 81 34 00
        E 0 91 21 33
        E 16 b1 0b 2a
        E 32 b1 0b 22
        E 32 b1 0b 19
        E 32 b1 0b 11
        E 16 b1 0b 33
        E 0 81 21 00
        E 0 91 30 33
        E 16 b1 0b 2a
        E 16 b1 0b 22
        E 32 b1 0b 19
        E 32 b1 0b 11
        E 32 b1 0b 08
        E 16 b1 0b 33
        E 0 81 30 00
        E 0 91 21 33
        E 16 b1 0b 2a
        E 32 b1 0b 22
        E 32 b1 0b 19
        E 32 b1 0b 11
        E 16 b1 0b 33
        E 0 81 21 00
        E 0 91 30 33
        E 16 b1 0b 2a
        E 32 b1 0b 22
        E 32 b1 0b 19
        E 16 b1 0b 11
        E 32 b1 0b 08
        E 16 b1 0b 33
        E 16 b1 0b 2a
        E 32 b1 0b 22
        E 32 b1 0b 19
        E 32 b1 0b 11
        E 16 b1 0c 10
        E 0 b1 0b 3b
        E 0 81 30 00
        E 0 91 23 3b
        E 16 b1 0b 33
        E 32 b1 0b 2a
        E 32 b1 0b 22
        E 32 b1 0b 19
        E 16 b1 0b 22
        E 144 b1 0b 3b
        E 0 81 23 00
        E 0 91 33 3b
        E 144 b1 0b 33
        E 32 b1 0b 2a
        E 32 b1 0b 22
        E 16 b1 0b 19
        E 32 b1 0b 11
        E 16 b1 0b 22
        E 128 b1 0b 3b
        E 0 81 33 00
        E 0 91 36 3b
        E 16 b1 0b 33
        E 32 b1 0b 2a
        E 32 b1 0b 22
        E 32 b1 0b 19
        E 16 b1 0b 22
        E 16 b1 0b 19
        E 16 b1 0b 11
        E 32 b1 0b 08
        E 32 81 36 00
        E 48 b1 0b 3b
        E 0 91 36 3b
        E 16 b1 0b 33
        E 32 b1 0b 2a
        E 32 b1 0b 22
        E 32 b1 0b 19
        E 16 b1 0b 22
        E 16 b1 0b 19
        E 32 b1 0b 11
        E 32 b1 0b 08
        E 32 81 36 00
        E 32 b1 0b 11
        E 0 91 36 11
        E 128 b1 0b 3b
        E 272 b1 0b 22
        E 128 b1 0b 3b
        E 144 b1 0b 22
        E 128 b1 0b 11
        E 128 b1 0c 20
        E 0 b1 0b 33
        E 0 81 36 00
        E 0 91 1c 33
        E 16 b1 0b 2a
        E 32 b1 0b 22
        E 16 b1 0b 19
        E 32 b1 0b 11
        E 32 b1 0b 08
        E 32 81 1c 00
        E 112 b1 0b 33
        E 0 91 1c 33
        E 16 b1 0b 2a
        E 32 b1 0b 22
        E 32 b1 0b 19
        E 32 b1 0b 11
        E 16 b1 0b 08
        E 32 81 1c 00
        E 112 b1 0b 33
        E 0 91 1c 33
        E 16 b1 0b 2a
        E 32 b1 0b 22
        E 32 b1 0b 19
        E 32 b1 0b 11
        E 16 b1 0b 33
        E 0 81 1c 00
        E 0 91 1a 33
        E 48 b1 0b 2a
        E 48 b1 0b 22
        E 64 b1 0b 19
        E 64 b1 0b 11
        E 48 b1 0b 33
        E 0 81 1a 00
        E 0 91 1c 33
        E 16 b1 0b 2a
        E 32 b1 0b 22
        E 32 b1 0b 19
        E 32 b1 0b 11
        E 32 b1 0b 08
        E 16 81 1c 00
        E 112 b1 0b 33
        E 0 91 1c 33
        E 16 b1 0b 2a
        E 32 b1 0b 22
        E 32 b1 0b 19
        E 32 b1 0b 11
        E 16 b1 0b 33
        E 16 b1 0b 2a
        E 32 b1 0b 22
        E 32 b1 0b 19
        E 16 b1 0b 11
        E 32 b1 0b 08
        E 32 81 1c 00
        E 112 b1 0b 33
        E 0 91 1c 33
        E 16 b1 0b 2a
        E 32 b1 0b 22
        E 32 b1 0b 19
        E 16 81 1c 00
        E 0 b1 7b 00
        E 0 ff 2f 00
      >
    >
  >
  <TRACK {3ED9E136-E402-47BB-9CC9-8F420629F61F}
    NAME "NES - Triangle [ch2]"
    PEAKCOL 16744192
    BEAT -1
    AUTOMODE 0
    PANLAWFLAGS 3
    VOLPAN 1 0 -1 -1 1
    MUTESOLO 0 0 0
    IPHASE 0
    PLAYOFFS 0 1
    ISBUS 0 0
    BUSCOMP 0 0 0 0 0
    SHOWINMIX 1 0.6667 0.5 1 0.5 0 0 0
    FIXEDLANES 9 0 0 0 0
    SEL 0
    REC 0 5088 1 0 0 0 0 0
    VU 2
    TRACKHEIGHT 0 0 0 0 0 0 0
    INQ 0 0 0 0.5 100 0 0 100
    NCHAN 2
    FX 1
    TRACKID {3ED9E136-E402-47BB-9CC9-8F420629F61F}
    PERF 0
    MIDIOUT -1
    MAINSEND 1 0
    <FXCHAIN
      WNDRECT 24 52 700 560
      SHOW 0
      LASTSEL 0
      DOCKED 0
      BYPASS 0 0 0
      <JS "ReapNES Studio/ReapNES_Console.jsfx" ""
        2 15 1 10 80 10 100 2 1 15 1 5 60 10 80 1 1 0 50 0 0 15 1 0 100 0 0 0.500000 0.500000 0.400000 0.300000 0.800000 2 1 0 0 0 0 - - - - - - - - - - - - - - - - - - - - - - - - - -
      >
      FLOATPOS 0 0 0 0
      FXID {8C41901D-57B0-4C75-897F-8BF7FBFCB9B2}
      WAK 0 0
    >
    <ITEM
      POSITION 0
      LENGTH 145.59876020000002
      LOOP 0
      ALLTAKES 0
      FADEIN 0 0 0 0 0 0 0
      FADEOUT 0 0 0 0 0 0 0
      MUTE 0 0
      SEL 0
      IGUID {F26004AD-41A3-40E4-85C7-84A8E39E038D}
      <SOURCE MIDI
        HASDATA 1 480 QN
        CCINTERP 32
        E 0 c2 26
        E 6240 b2 0b 7f
        E 0 92 28 7f
        E 144 82 28 00
        E 384 b2 0b 7f
        E 0 92 28 7f
        E 144 82 28 00
        E 0 b2 0b 7f
        E 0 92 26 7f
        E 336 82 26 00
        E 64 b2 0b 7f
        E 0 92 28 7f
        E 160 82 28 00
        E 912 b2 0b 7f
        E 0 92 2d 7f
        E 128 82 2d 00
        E 0 b2 0b 7f
        E 0 92 3c 7f
        E 272 82 3c 00
        E 0 b2 0b 7f
        E 0 92 2d 7f
        E 144 82 2d 00
        E 0 b2 0b 7f
        E 0 92 39 7f
        E 128 82 39 00
        E 0 b2 0b 7f
        E 0 92 2d 7f
        E 128 82 2d 00
        E 0 b2 0b 7f
        E 0 92 39 7f
        E 272 82 39 00
        E 0 b2 0b 7f
        E 0 92 2d 7f
        E 144 82 2d 00
        E 0 b2 0b 7f
        E 0 92 3c 7f
        E 256 82 3c 00
        E 0 b2 0b 7f
        E 0 92 2d 7f
        E 144 82 2d 00
        E 0 b2 0b 7f
        E 0 92 39 7f
        E 128 82 39 00
        E 0 b2 0b 7f
        E 0 92 2d 7f
        E 144 82 2d 00
        E 0 b2 0b 7f
        E 0 92 39 7f
        E 256 82 39 00
        E 4304 b2 0b 7f
        E 0 92 2d 7f
        E 128 82 2d 00
        E 0 b2 0b 7f
        E 0 92 3c 7f
        E 272 82 3c 00
        E 0 b2 0b 7f
        E 0 92 2d 7f
        E 144 82 2d 00
        E 0 b2 0b 7f
        E 0 92 39 7f
        E 128 82 39 00
        E 0 b2 0b 7f
        E 0 92 2d 7f
        E 128 82 2d 00
        E 0 b2 0b 7f
        E 0 92 39 7f
        E 272 82 39 00
        E 0 b2 0b 7f
        E 0 92 2d 7f
        E 128 82 2d 00
        E 0 b2 0b 7f
        E 0 92 3c 7f
        E 272 82 3c 00
        E 0 b2 0b 7f
        E 0 92 2d 7f
        E 144 82 2d 00
        E 0 b2 0b 7f
        E 0 92 39 7f
        E 128 82 39 00
        E 0 b2 0b 7f
        E 0 92 2d 7f
        E 128 82 2d 00
        E 0 b2 0b 7f
        E 0 92 39 7f
        E 272 82 39 00
        E 0 b2 0b 7f
        E 0 92 2f 7f
        E 144 82 2f 00
        E 128 b2 0b 7f
        E 0 92 3b 7f
        E 272 82 3b 00
        E 128 b2 0b 7f
        E 0 92 3f 7f
        E 160 82 3f 00
        E 112 b2 0b 7f
        E 0 92 3f 7f
        E 160 82 3f 00
        E 240 b2 0b 7f
        E 0 92 3f 7f
        E 304 82 3f 00
        E 96 b2 0b 7f
        E 0 92 3f 7f
        E 160 82 3f 00
        E 8912 b2 0b 7f
        E 0 92 34 7f
        E 144 82 34 00
        E 0 b2 0b 7f
        E 0 92 33 7f
        E 48 82 33 00
        E 0 b2 0b 7f
        E 0 92 32 7f
        E 64 82 32 00
        E 0 b2 0b 7f
        E 0 92 31 7f
        E 64 82 31 00
        E 0 b2 0b 7f
        E 0 92 30 7f
        E 96 82 30 00
        E 0 b2 0b 7f
        E 0 92 2f 7f
        E 112 82 2f 00
        E 80 b2 0b 7f
        E 0 92 32 7f
        E 160 82 32 00
        E 96 b2 0b 7f
        E 0 92 34 7f
        E 160 82 34 00
        E 112 b2 0b 7f
        E 0 92 28 7f
        E 304 82 28 00
        E 96 b2 0b 7f
        E 0 92 28 7f
        E 144 82 28 00
        E 0 b2 0b 7f
        E 0 92 2b 7f
        E 128 82 2b 00
        E 0 b2 0b 7f
        E 0 92 2d 7f
        E 144 82 2d 00
        E 0 b2 0b 7f
        E 0 92 2f 7f
        E 128 82 2f 00
        E 64 b2 0b 7f
        E 0 92 34 7f
        E 160 82 34 00
        E 0 b2 0b 7f
        E 0 92 33 7f
        E 32 82 33 00
        E 0 b2 0b 7f
        E 0 92 32 7f
        E 64 82 32 00
        E 0 b2 0b 7f
        E 0 92 31 7f
        E 96 82 31 00
        E 0 b2 0b 7f
        E 0 92 30 7f
        E 64 82 30 00
        E 0 b2 0b 7f
        E 0 92 2f 7f
        E 128 82 2f 00
        E 64 b2 0b 7f
        E 0 92 32 7f
        E 144 82 32 00
        E 128 b2 0b 7f
        E 0 92 34 7f
        E 160 82 34 00
        E 112 b2 0b 7f
        E 0 92 28 7f
        E 288 82 28 00
        E 112 b2 0b 7f
        E 0 92 28 7f
        E 128 82 28 00
        E 0 b2 0b 7f
        E 0 92 2b 7f
        E 144 82 2b 00
        E 0 b2 0b 7f
        E 0 92 2d 7f
        E 128 82 2d 00
        E 0 b2 0b 7f
        E 0 92 2f 7f
        E 128 82 2f 00
        E 80 b2 0b 7f
        E 0 92 34 7f
        E 176 82 34 00
        E 0 b2 0b 7f
        E 0 92 33 7f
        E 32 82 33 00
        E 0 b2 0b 7f
        E 0 92 32 7f
        E 64 82 32 00
        E 0 b2 0b 7f
        E 0 92 31 7f
        E 80 82 31 00
        E 0 b2 0b 7f
        E 0 92 30 7f
        E 64 82 30 00
        E 0 b2 0b 7f
        E 0 92 2f 7f
        E 112 82 2f 00
        E 64 b2 0b 7f
        E 0 92 32 7f
        E 160 82 32 00
        E 112 b2 0b 7f
        E 0 92 34 7f
        E 144 82 34 00
        E 128 b2 0b 7f
        E 0 92 28 7f
        E 288 82 28 00
        E 112 b2 0b 7f
        E 0 92 28 7f
        E 128 82 28 00
        E 0 b2 0b 7f
        E 0 92 2b 7f
        E 144 82 2b 00
        E 0 b2 0b 7f
        E 0 92 2d 7f
        E 128 82 2d 00
        E 0 b2 0b 7f
        E 0 92 2f 7f
        E 144 82 2f 00
        E 64 b2 0b 7f
        E 0 92 34 7f
        E 176 82 34 00
        E 0 b2 0b 7f
        E 0 92 33 7f
        E 32 82 33 00
        E 0 b2 0b 7f
        E 0 92 32 7f
        E 48 82 32 00
        E 0 b2 0b 7f
        E 0 92 31 7f
        E 96 82 31 00
        E 0 b2 0b 7f
        E 0 92 30 7f
        E 64 82 30 00
        E 0 b2 0b 7f
        E 0 92 2f 7f
        E 112 82 2f 00
        E 80 b2 0b 7f
        E 0 92 32 7f
        E 160 82 32 00
        E 96 b2 0b 7f
        E 0 92 34 7f
        E 160 82 34 00
        E 112 b2 0b 7f
        E 0 92 28 7f
        E 288 82 28 00
        E 112 b2 0b 7f
        E 0 92 28 7f
        E 144 82 28 00
        E 0 b2 0b 7f
        E 0 92 2b 7f
        E 128 82 2b 00
        E 0 b2 0b 7f
        E 0 92 2d 7f
        E 144 82 2d 00
        E 0 b2 0b 7f
        E 0 92 2f 7f
        E 128 82 2f 00
        E 64 b2 0b 7f
        E 0 92 2f 7f
        E 160 82 2f 00
        E 0 b2 0b 7f
        E 0 92 2e 7f
        E 64 82 2e 00
        E 0 b2 0b 7f
        E 0 92 2d 7f
        E 96 82 2d 00
        E 0 b2 0b 7f
        E 0 92 2c 7f
        E 96 82 2c 00
        E 0 b2 0b 7f
        E 0 92 2b 7f
        E 128 82 2b 00
        E 64 b2 0b 7f
        E 0 92 2d 7f
        E 160 82 2d 00
        E 112 b2 0b 7f
        E 0 92 2f 7f
        E 160 82 2f 00
        E 96 b2 0b 7f
        E 0 92 23 7f
        E 304 82 23 00
        E 112 b2 0b 7f
        E 0 92 23 7f
        E 128 82 23 00
        E 0 b2 0b 7f
        E 0 92 26 7f
        E 128 82 26 00
        E 0 b2 0b 7f
        E 0 92 28 7f
        E 144 82 28 00
        E 0 b2 0b 7f
        E 0 92 2a 7f
        E 128 82 2a 00
        E 64 b2 0b 7f
        E 0 92 2f 7f
        E 160 82 2f 00
        E 0 b2 0b 7f
        E 0 92 2e 7f
        E 64 82 2e 00
        E 0 b2 0b 7f
        E 0 92 2d 7f
        E 96 82 2d 00
        E 0 b2 0b 7f
        E 0 92 2c 7f
        E 80 82 2c 00
        E 0 b2 0b 7f
        E 0 92 2b 7f
        E 144 82 2b 00
        E 64 b2 0b 7f
        E 0 92 2d 7f
        E 160 82 2d 00
        E 112 b2 0b 7f
        E 0 92 2f 7f
        E 160 82 2f 00
        E 112 b2 0b 7f
        E 0 92 23 7f
        E 288 82 23 00
        E 112 b2 0b 7f
        E 0 92 23 7f
        E 128 82 23 00
        E 0 b2 0b 7f
        E 0 92 26 7f
        E 144 82 26 00
        E 0 b2 0b 7f
        E 0 92 28 7f
        E 128 82 28 00
        E 0 b2 0b 7f
        E 0 92 2a 7f
        E 128 82 2a 00
        E 80 b2 0b 7f
        E 0 92 34 7f
        E 144 82 34 00
        E 0 b2 0b 7f
        E 0 92 33 7f
        E 64 82 33 00
        E 0 b2 0b 7f
        E 0 92 32 7f
        E 64 82 32 00
        E 0 b2 0b 7f
        E 0 92 31 7f
        E 48 82 31 00
        E 0 b2 0b 7f
        E 0 92 30 7f
        E 96 82 30 00
        E 0 b2 0b 7f
        E 0 92 2f 7f
        E 112 82 2f 00
        E 64 b2 0b 7f
        E 0 92 32 7f
        E 144 82 32 00
        E 128 b2 0b 7f
        E 0 92 34 7f
        E 160 82 34 00
        E 112 b2 0b 7f
        E 0 92 28 7f
        E 288 82 28 00
        E 112 b2 0b 7f
        E 0 92 28 7f
        E 144 82 28 00
        E 0 b2 0b 7f
        E 0 92 2b 7f
        E 128 82 2b 00
        E 0 b2 0b 7f
        E 0 92 2d 7f
        E 128 82 2d 00
        E 0 b2 0b 7f
        E 0 92 2f 7f
        E 144 82 2f 00
        E 64 b2 0b 7f
        E 0 92 34 7f
        E 144 82 34 00
        E 0 b2 0b 7f
        E 0 92 33 7f
        E 48 82 33 00
        E 0 b2 0b 7f
        E 0 92 32 7f
        E 64 82 32 00
        E 0 b2 0b 7f
        E 0 92 31 7f
        E 64 82 31 00
        E 0 b2 0b 7f
        E 0 92 30 7f
        E 96 82 30 00
        E 0 b2 0b 7f
        E 0 92 2f 7f
        E 128 82 2f 00
        E 64 b2 0b 7f
        E 0 92 32 7f
        E 144 82 32 00
        E 128 b2 0b 7f
        E 0 92 34 7f
        E 144 82 34 00
        E 112 b2 0b 7f
        E 0 92 28 7f
        E 288 82 28 00
        E 128 b2 0b 7f
        E 0 92 28 7f
        E 128 82 28 00
        E 0 b2 0b 7f
        E 0 92 2b 7f
        E 128 82 2b 00
        E 0 b2 0b 7f
        E 0 92 2d 7f
        E 144 82 2d 00
        E 0 b2 0b 7f
        E 0 92 2f 7f
        E 128 82 2f 00
        E 0 b2 0b 7f
        E 0 92 24 7f
        E 2144 82 24 00
        E 0 b2 0b 7f
        E 0 92 2a 7f
        E 2160 82 2a 00
        E 0 b2 0b 7f
        E 0 92 26 7f
        E 128 82 26 00
        E 0 b2 0b 7f
        E 0 92 28 7f
        E 128 82 28 00
        E 0 b2 0b 7f
        E 0 92 3d 7f
        E 144 82 3d 00
        E 0 b2 0b 7f
        E 0 92 3e 7f
        E 160 82 3e 00
        E 112 b2 0b 7f
        E 0 92 3e 7f
        E 160 82 3e 00
        E 96 b2 0b 7f
        E 0 92 3e 7f
        E 160 82 3e 00
        E 256 b2 0b 7f
        E 0 92 3e 7f
        E 288 82 3e 00
        E 112 b2 0b 7f
        E 0 92 3e 7f
        E 144 82 3e 00
        E 128 b2 0b 7f
        E 0 92 28 7f
        E 128 82 28 00
        E 0 b2 0b 7f
        E 0 92 26 7f
        E 128 82 26 00
        E 0 b2 0b 7f
        E 0 92 28 7f
        E 144 82 28 00
        E 0 b2 0b 7f
        E 0 92 3d 7f
        E 128 82 3d 00
        E 0 b2 0b 7f
        E 0 92 3e 7f
        E 144 82 3e 00
        E 128 b2 0b 7f
        E 0 92 3e 7f
        E 160 82 3e 00
        E 112 b2 0b 7f
        E 0 92 3e 7f
        E 144 82 3e 00
        E 256 b2 0b 7f
        E 0 92 3e 7f
        E 288 82 3e 00
        E 112 b2 0b 7f
        E 0 92 3e 7f
        E 144 82 3e 00
        E 128 b2 0b 7f
        E 0 92 28 7f
        E 128 82 28 00
        E 0 b2 0b 7f
        E 0 92 26 7f
        E 144 82 26 00
        E 0 b2 0b 7f
        E 0 92 28 7f
        E 128 82 28 00
        E 0 b2 0b 7f
        E 0 92 3d 7f
        E 128 82 3d 00
        E 0 b2 0b 7f
        E 0 92 3e 7f
        E 144 82 3e 00
        E 128 b2 0b 7f
        E 0 92 3e 7f
        E 144 82 3e 00
        E 128 b2 0b 7f
        E 0 92 3e 7f
        E 144 82 3e 00
        E 256 b2 0b 7f
        E 0 92 3e 7f
        E 304 82 3e 00
        E 96 b2 0b 7f
        E 0 92 3e 7f
        E 144 82 3e 00
        E 128 b2 0b 7f
        E 0 92 28 7f
        E 144 82 28 00
        E 0 b2 0b 7f
        E 0 92 26 7f
        E 128 82 26 00
        E 0 b2 0b 7f
        E 0 92 28 7f
        E 128 82 28 00
        E 0 b2 0b 7f
        E 0 92 3d 7f
        E 144 82 3d 00
        E 0 b2 0b 7f
        E 0 92 3e 7f
        E 160 82 3e 00
        E 112 b2 0b 7f
        E 0 92 3e 7f
        E 160 82 3e 00
        E 96 b2 0b 7f
        E 0 92 3e 7f
        E 144 82 3e 00
        E 256 b2 0b 7f
        E 0 92 3e 7f
        E 288 82 3e 00
        E 128 b2 0b 7f
        E 0 92 3e 7f
        E 160 82 3e 00
        E 96 b2 0b 7f
        E 0 92 28 7f
        E 144 82 28 00
        E 0 b2 0b 7f
        E 0 92 2d 7f
        E 160 82 2d 00
        E 112 b2 0b 7f
        E 0 92 2d 7f
        E 160 82 2d 00
        E 96 b2 0b 7f
        E 0 92 2d 7f
        E 160 82 2d 00
        E 112 b2 0b 7f
        E 0 92 2d 7f
        E 160 82 2d 00
        E 112 b2 0b 7f
        E 0 92 2d 7f
        E 160 82 2d 00
        E 112 b2 0b 7f
        E 0 92 2d 7f
        E 144 82 2d 00
        E 128 b2 0b 7f
        E 0 92 2d 7f
        E 144 82 2d 00
        E 112 b2 0b 7f
        E 0 92 2d 7f
        E 144 82 2d 00
        E 128 b2 0b 7f
        E 0 92 2f 7f
        E 160 82 2f 00
        E 112 b2 0b 7f
        E 0 92 2f 7f
        E 160 82 2f 00
        E 112 b2 0b 7f
        E 0 92 2f 7f
        E 144 82 2f 00
        E 128 b2 0b 7f
        E 0 92 2f 7f
        E 160 82 2f 00
        E 96 b2 0b 7f
        E 0 92 2f 7f
        E 160 82 2f 00
        E 112 b2 0b 7f
        E 0 92 2f 7f
        E 144 82 2f 00
        E 128 b2 0b 7f
        E 0 92 2f 7f
        E 160 82 2f 00
        E 112 b2 0b 7f
        E 0 92 2f 7f
        E 160 82 2f 00
        E 8704 b2 0b 7f
        E 0 92 28 7f
        E 160 82 28 00
        E 368 b2 0b 7f
        E 0 92 28 7f
        E 144 82 28 00
        E 0 b2 0b 7f
        E 0 92 26 7f
        E 336 82 26 00
        E 64 b2 0b 7f
        E 0 92 28 7f
        E 160 82 28 00
        E 912 b2 0b 7f
        E 0 92 2d 7f
        E 128 82 2d 00
        E 0 b2 0b 7f
        E 0 92 3c 7f
        E 272 82 3c 00
        E 0 b2 0b 7f
        E 0 92 2d 7f
        E 128 82 2d 00
        E 0 b2 0b 7f
        E 0 92 39 7f
        E 144 82 39 00
        E 0 b2 0b 7f
        E 0 92 2d 7f
        E 128 82 2d 00
        E 0 b2 0b 7f
        E 0 92 39 7f
        E 272 82 39 00
        E 0 b2 0b 7f
        E 0 92 2d 7f
        E 128 82 2d 00
        E 0 b2 0b 7f
        E 0 92 3c 7f
        E 272 82 3c 00
        E 0 b2 0b 7f
        E 0 92 2d 7f
        E 144 82 2d 00
        E 0 b2 0b 7f
        E 0 92 39 7f
        E 128 82 39 00
        E 0 b2 0b 7f
        E 0 92 2d 7f
        E 128 82 2d 00
        E 0 b2 0b 7f
        E 0 92 39 7f
        E 272 82 39 00
        E 4304 b2 0b 7f
        E 0 92 2d 7f
        E 128 82 2d 00
        E 0 b2 0b 7f
        E 0 92 3c 7f
        E 272 82 3c 00
        E 0 b2 0b 7f
        E 0 92 2d 7f
        E 128 82 2d 00
        E 0 b2 0b 7f
        E 0 92 39 7f
        E 144 82 39 00
        E 0 b2 0b 7f
        E 0 92 2d 7f
        E 128 82 2d 00
        E 0 b2 0b 7f
        E 0 92 39 7f
        E 272 82 39 00
        E 0 b2 0b 7f
        E 0 92 2d 7f
        E 128 82 2d 00
        E 0 b2 0b 7f
        E 0 92 3c 7f
        E 272 82 3c 00
        E 0 b2 0b 7f
        E 0 92 2d 7f
        E 144 82 2d 00
        E 0 b2 0b 7f
        E 0 92 39 7f
        E 128 82 39 00
        E 0 b2 0b 7f
        E 0 92 2d 7f
        E 128 82 2d 00
        E 0 b2 0b 7f
        E 0 92 39 7f
        E 272 82 39 00
        E 0 b2 0b 7f
        E 0 92 2f 7f
        E 160 82 2f 00
        E 112 b2 0b 7f
        E 0 92 3b 7f
        E 288 82 3b 00
        E 112 b2 0b 7f
        E 0 92 3f 7f
        E 160 82 3f 00
        E 112 b2 0b 7f
        E 0 92 3f 7f
        E 160 82 3f 00
        E 240 b2 0b 7f
        E 0 92 3f 7f
        E 288 82 3f 00
        E 112 b2 0b 7f
        E 0 92 3f 7f
        E 144 82 3f 00
        E 8928 b2 0b 7f
        E 0 92 34 7f
        E 176 82 34 00
        E 0 b2 0b 7f
        E 0 92 33 7f
        E 32 82 33 00
        E 0 b2 0b 7f
        E 0 92 32 7f
        E 48 82 32 00
        E 0 b2 0b 7f
        E 0 92 31 7f
        E 96 82 31 00
        E 0 b2 0b 7f
        E 0 92 30 7f
        E 64 82 30 00
        E 0 b2 0b 7f
        E 0 92 2f 7f
        E 112 82 2f 00
        E 80 b2 0b 7f
        E 0 92 32 7f
        E 144 82 32 00
        E 112 b2 0b 7f
        E 0 92 34 7f
        E 160 82 34 00
        E 112 b2 0b 7f
        E 0 92 28 7f
        E 304 82 28 00
        E 96 b2 0b 7f
        E 0 92 28 7f
        E 144 82 28 00
        E 0 b2 0b 7f
        E 0 92 2b 7f
        E 128 82 2b 00
        E 0 b2 0b 7f
        E 0 92 2d 7f
        E 128 82 2d 00
        E 0 b2 0b 7f
        E 0 92 2f 7f
        E 144 82 2f 00
        E 64 b2 0b 7f
        E 0 92 34 7f
        E 144 82 34 00
        E 0 b2 0b 7f
        E 0 92 33 7f
        E 48 82 33 00
        E 0 b2 0b 7f
        E 0 92 32 7f
        E 64 82 32 00
        E 0 b2 0b 7f
        E 0 92 31 7f
        E 64 82 31 00
        E 0 b2 0b 7f
        E 0 92 30 7f
        E 96 82 30 00
        E 0 b2 0b 7f
        E 0 92 2f 7f
        E 128 82 2f 00
        E 64 b2 0b 7f
        E 0 92 32 7f
        E 144 82 32 00
        E 128 b2 0b 7f
        E 0 92 34 7f
        E 160 82 34 00
        E 96 b2 0b 7f
        E 0 92 28 7f
        E 304 82 28 00
        E 112 b2 0b 7f
        E 0 92 28 7f
        E 128 82 28 00
        E 0 b2 0b 7f
        E 0 92 2b 7f
        E 128 82 2b 00
        E 0 b2 0b 7f
        E 0 92 2d 7f
        E 144 82 2d 00
        E 0 b2 0b 7f
        E 0 92 2f 7f
        E 128 82 2f 00
        E 64 b2 0b 7f
        E 0 92 34 7f
        E 128 82 34 00
        E 0 b2 0b 7f
        E 0 92 33 7f
        E 64 82 33 00
        E 0 b2 0b 7f
        E 0 92 32 7f
        E 64 82 32 00
        E 0 b2 0b 7f
        E 0 92 31 7f
        E 64 82 31 00
        E 0 b2 0b 7f
        E 0 92 30 7f
        E 80 82 30 00
        E 0 b2 0b 7f
        E 0 92 2f 7f
        E 144 82 2f 00
        E 64 b2 0b 7f
        E 0 92 32 7f
        E 144 82 32 00
        E 128 b2 0b 7f
        E 0 92 34 7f
        E 160 82 34 00
        E 112 b2 0b 7f
        E 0 92 28 7f
        E 288 82 28 00
        E 112 b2 0b 7f
        E 0 92 28 7f
        E 128 82 28 00
        E 0 b2 0b 7f
        E 0 92 2b 7f
        E 144 82 2b 00
        E 0 b2 0b 7f
        E 0 92 2d 7f
        E 128 82 2d 00
        E 0 b2 0b 7f
        E 0 92 2f 7f
        E 128 82 2f 00
        E 80 b2 0b 7f
        E 0 92 34 7f
        E 144 82 34 00
        E 0 b2 0b 7f
        E 0 92 33 7f
        E 64 82 33 00
        E 0 b2 0b 7f
        E 0 92 32 7f
        E 64 82 32 00
        E 0 b2 0b 7f
        E 0 92 31 7f
        E 48 82 31 00
        E 0 b2 0b 7f
        E 0 92 30 7f
        E 96 82 30 00
        E 0 b2 0b 7f
        E 0 92 2f 7f
        E 112 82 2f 00
        E 64 b2 0b 7f
        E 0 92 32 7f
        E 144 82 32 00
        E 128 b2 0b 7f
        E 0 92 34 7f
        E 144 82 34 00
        E 128 b2 0b 7f
        E 0 92 28 7f
        E 288 82 28 00
        E 112 b2 0b 7f
        E 0 92 28 7f
        E 144 82 28 00
        E 0 b2 0b 7f
        E 0 92 2b 7f
        E 128 82 2b 00
        E 0 b2 0b 7f
        E 0 92 2d 7f
        E 128 82 2d 00
        E 0 b2 0b 7f
        E 0 92 2f 7f
        E 144 82 2f 00
        E 64 b2 0b 7f
        E 0 92 2f 7f
        E 176 82 2f 00
        E 0 b2 0b 7f
        E 0 92 2e 7f
        E 48 82 2e 00
        E 0 b2 0b 7f
        E 0 92 2d 7f
        E 96 82 2d 00
        E 0 b2 0b 7f
        E 0 92 2c 7f
        E 96 82 2c 00
        E 0 b2 0b 7f
        E 0 92 2b 7f
        E 128 82 2b 00
        E 64 b2 0b 7f
        E 0 92 2d 7f
        E 144 82 2d 00
        E 128 b2 0b 7f
        E 0 92 2f 7f
        E 144 82 2f 00
        E 112 b2 0b 7f
        E 0 92 23 7f
        E 288 82 23 00
        E 112 b2 0b 7f
        E 0 92 23 7f
        E 144 82 23 00
        E 0 b2 0b 7f
        E 0 92 26 7f
        E 128 82 26 00
        E 0 b2 0b 7f
        E 0 92 28 7f
        E 144 82 28 00
        E 0 b2 0b 7f
        E 0 92 2a 7f
        E 128 82 2a 00
        E 64 b2 0b 7f
        E 0 92 2f 7f
        E 160 82 2f 00
        E 0 b2 0b 7f
        E 0 92 2e 7f
        E 64 82 2e 00
        E 0 b2 0b 7f
        E 0 92 2d 7f
        E 96 82 2d 00
        E 0 b2 0b 7f
        E 0 92 2c 7f
        E 96 82 2c 00
        E 0 b2 0b 7f
        E 0 92 2b 7f
        E 128 82 2b 00
        E 64 b2 0b 7f
        E 0 92 2d 7f
        E 144 82 2d 00
        E 128 b2 0b 7f
        E 0 92 2f 7f
        E 160 82 2f 00
        E 112 b2 0b 7f
        E 0 92 23 7f
        E 288 82 23 00
        E 112 b2 0b 7f
        E 0 92 23 7f
        E 128 82 23 00
        E 0 b2 0b 7f
        E 0 92 26 7f
        E 144 82 26 00
        E 0 b2 0b 7f
        E 0 92 28 7f
        E 128 82 28 00
        E 0 b2 0b 7f
        E 0 92 2a 7f
        E 128 82 2a 00
        E 80 b2 0b 7f
        E 0 92 34 7f
        E 144 82 34 00
        E 0 b2 0b 7f
        E 0 92 33 7f
        E 64 82 33 00
        E 0 b2 0b 7f
        E 0 92 32 7f
        E 64 82 32 00
        E 0 b2 0b 7f
        E 0 92 31 7f
        E 48 82 31 00
        E 0 b2 0b 7f
        E 0 92 30 7f
        E 96 82 30 00
        E 0 b2 0b 7f
        E 0 92 2f 7f
        E 112 82 2f 00
        E 64 b2 0b 7f
        E 0 92 32 7f
        E 144 82 32 00
        E 128 b2 0b 7f
        E 0 92 34 7f
        E 160 82 34 00
        E 112 b2 0b 7f
        E 0 92 28 7f
        E 288 82 28 00
        E 112 b2 0b 7f
        E 0 92 28 7f
        E 128 82 28 00
        E 0 b2 0b 7f
        E 0 92 2b 7f
        E 144 82 2b 00
        E 0 b2 0b 7f
        E 0 92 2d 7f
        E 128 82 2d 00
        E 0 b2 0b 7f
        E 0 92 2f 7f
        E 144 82 2f 00
        E 64 b2 0b 7f
        E 0 92 34 7f
        E 144 82 34 00
        E 0 b2 0b 7f
        E 0 92 33 7f
        E 64 82 33 00
        E 0 b2 0b 7f
        E 0 92 32 7f
        E 48 82 32 00
        E 0 b2 0b 7f
        E 0 92 31 7f
        E 64 82 31 00
        E 0 b2 0b 7f
        E 0 92 30 7f
        E 96 82 30 00
        E 0 b2 0b 7f
        E 0 92 2f 7f
        E 112 82 2f 00
        E 80 b2 0b 7f
        E 0 92 32 7f
        E 160 82 32 00
        E 96 b2 0b 7f
        E 0 92 34 7f
        E 160 82 34 00
        E 112 b2 0b 7f
        E 0 92 28 7f
        E 304 82 28 00
        E 96 b2 0b 7f
        E 0 92 28 7f
        E 144 82 28 00
        E 0 b2 0b 7f
        E 0 92 2b 7f
        E 128 82 2b 00
        E 0 b2 0b 7f
        E 0 92 2d 7f
        E 144 82 2d 00
        E 0 b2 0b 7f
        E 0 92 2f 7f
        E 128 82 2f 00
        E 0 b2 0b 7f
        E 0 92 24 7f
        E 2144 82 24 00
        E 0 b2 0b 7f
        E 0 92 2a 7f
        E 2160 82 2a 00
        E 0 b2 0b 7f
        E 0 92 26 7f
        E 128 82 26 00
        E 0 b2 0b 7f
        E 0 92 28 7f
        E 128 82 28 00
        E 0 b2 0b 7f
        E 0 92 3d 7f
        E 144 82 3d 00
        E 0 b2 0b 7f
        E 0 92 3e 7f
        E 160 82 3e 00
        E 96 b2 0b 7f
        E 0 92 3e 7f
        E 144 82 3e 00
        E 128 b2 0b 7f
        E 0 92 3e 7f
        E 160 82 3e 00
        E 240 b2 0b 7f
        E 0 92 3e 7f
        E 288 82 3e 00
        E 128 b2 0b 7f
        E 0 92 3e 7f
        E 144 82 3e 00
        E 112 b2 0b 7f
        E 0 92 28 7f
        E 144 82 28 00
        E 0 b2 0b 7f
        E 0 92 26 7f
        E 128 82 26 00
        E 0 b2 0b 7f
        E 0 92 28 7f
        E 144 82 28 00
        E 0 b2 0b 7f
        E 0 92 3d 7f
        E 128 82 3d 00
        E 0 b2 0b 7f
        E 0 92 3e 7f
        E 160 82 3e 00
        E 112 b2 0b 7f
        E 0 92 3e 7f
        E 160 82 3e 00
        E 112 b2 0b 7f
        E 0 92 3e 7f
        E 160 82 3e 00
        E 240 b2 0b 7f
        E 0 92 3e 7f
        E 288 82 3e 00
        E 112 b2 0b 7f
        E 0 92 3e 7f
        E 160 82 3e 00
        E 112 b2 0b 7f
        E 0 92 28 7f
        E 128 82 28 00
        E 0 b2 0b 7f
        E 0 92 26 7f
        E 144 82 26 00
        E 0 b2 0b 7f
        E 0 92 28 7f
        E 128 82 28 00
        E 0 b2 0b 7f
        E 0 92 3d 7f
        E 128 82 3d 00
        E 0 b2 0b 7f
        E 0 92 3e 7f
        E 160 82 3e 00
        E 112 b2 0b 7f
        E 0 92 3e 7f
        E 160 82 3e 00
        E 112 b2 0b 7f
        E 0 92 3e 7f
        E 160 82 3e 00
        E 240 b2 0b 7f
        E 0 92 3e 7f
        E 288 82 3e 00
        E 112 b2 0b 7f
        E 0 92 3e 7f
        E 160 82 3e 00
        E 112 b2 0b 7f
        E 0 92 28 7f
        E 128 82 28 00
        E 0 b2 0b 7f
        E 0 92 26 7f
        E 144 82 26 00
        E 0 b2 0b 7f
        E 0 92 28 7f
        E 128 82 28 00
        E 0 b2 0b 7f
        E 0 92 3d 7f
        E 144 82 3d 00
        E 0 b2 0b 7f
        E 0 92 3e 7f
        E 144 82 3e 00
        E 112 b2 0b 7f
        E 0 92 3e 7f
        E 144 82 3e 00
        E 128 b2 0b 7f
        E 0 92 3e 7f
        E 160 82 3e 00
        E 240 b2 0b 7f
        E 0 92 3e 7f
        E 304 82 3e 00
        E 112 b2 0b 7f
        E 0 92 3e 7f
        E 160 82 3e 00
        E 96 b2 0b 7f
        E 0 92 28 7f
        E 144 82 28 00
        E 0 b2 0b 7f
        E 0 92 2d 7f
        E 160 82 2d 00
        E 96 b2 0b 7f
        E 0 92 2d 7f
        E 144 82 2d 00
        E 128 b2 0b 7f
        E 0 92 2d 7f
        E 160 82 2d 00
        E 112 b2 0b 7f
        E 0 92 2d 7f
        E 144 82 2d 00
        E 128 b2 0b 7f
        E 0 92 2d 7f
        E 144 82 2d 00
        E 128 b2 0b 7f
        E 0 92 2d 7f
        E 160 82 2d 00
        E 96 b2 0b 7f
        E 0 92 2d 7f
        E 144 82 2d 00
        E 128 b2 0b 7f
        E 0 92 2d 7f
        E 160 82 2d 00
        E 112 b2 0b 7f
        E 0 92 2f 7f
        E 160 82 2f 00
        E 112 b2 0b 7f
        E 0 92 2f 7f
        E 160 82 2f 00
        E 112 b2 0b 7f
        E 0 92 2f 7f
        E 160 82 2f 00
        E 96 b2 0b 7f
        E 0 92 2f 7f
        E 160 82 2f 00
        E 112 b2 0b 7f
        E 0 92 2f 7f
        E 160 82 2f 00
        E 112 b2 0b 7f
        E 0 92 2f 7f
        E 144 82 2f 00
        E 128 b2 0b 7f
        E 0 92 2f 7f
        E 144 82 2f 00
        E 128 b2 0b 7f
        E 0 92 2f 7f
        E 160 82 2f 00
        E 8688 b2 0b 7f
        E 0 92 28 7f
        E 160 82 28 00
        E 384 b2 0b 7f
        E 0 92 28 7f
        E 128 82 28 00
        E 0 b2 0b 7f
        E 0 92 26 7f
        E 336 82 26 00
        E 80 b2 0b 7f
        E 0 92 28 7f
        E 160 82 28 00
        E 912 b2 0b 7f
        E 0 92 2d 7f
        E 128 82 2d 00
        E 0 b2 0b 7f
        E 0 92 3c 7f
        E 272 82 3c 00
        E 0 b2 0b 7f
        E 0 92 2d 7f
        E 128 82 2d 00
        E 0 b2 0b 7f
        E 0 92 39 7f
        E 144 82 39 00
        E 0 b2 0b 7f
        E 0 92 2d 7f
        E 128 82 2d 00
        E 0 b2 0b 7f
        E 0 92 39 7f
        E 272 82 39 00
        E 0 b2 0b 7f
        E 0 92 2d 7f
        E 128 82 2d 00
        E 0 b2 0b 7f
        E 0 92 3c 7f
        E 272 82 3c 00
        E 0 b2 0b 7f
        E 0 92 2d 7f
        E 128 82 2d 00
        E 0 b2 0b 7f
        E 0 92 39 7f
        E 144 82 39 00
        E 0 b2 0b 7f
        E 0 92 2d 7f
        E 128 82 2d 00
        E 0 b2 0b 7f
        E 0 92 39 7f
        E 272 82 39 00
        E 4304 b2 0b 7f
        E 0 92 2d 7f
        E 128 82 2d 00
        E 0 b2 0b 7f
        E 0 92 3c 7f
        E 272 82 3c 00
        E 0 b2 0b 7f
        E 0 92 2d 7f
        E 128 82 2d 00
        E 0 b2 0b 7f
        E 0 92 39 7f
        E 144 82 39 00
        E 0 b2 0b 7f
        E 0 92 2d 7f
        E 128 82 2d 00
        E 0 b2 0b 7f
        E 0 92 39 7f
        E 272 82 39 00
        E 0 b2 0b 7f
        E 0 92 2d 7f
        E 128 82 2d 00
        E 0 b2 0b 7f
        E 0 92 3c 7f
        E 272 82 3c 00
        E 0 b2 0b 7f
        E 0 92 2d 7f
        E 128 82 2d 00
        E 0 b2 0b 7f
        E 0 92 39 7f
        E 144 82 39 00
        E 0 b2 0b 7f
        E 0 92 2d 7f
        E 128 82 2d 00
        E 0 b2 0b 7f
        E 0 92 39 7f
        E 272 82 39 00
        E 0 b2 0b 7f
        E 0 92 2f 7f
        E 144 82 2f 00
        E 128 b2 0b 7f
        E 0 92 3b 7f
        E 272 82 3b 00
        E 128 b2 0b 7f
        E 0 92 3f 7f
        E 160 82 3f 00
        E 112 b2 0b 7f
        E 0 92 3f 7f
        E 160 82 3f 00
        E 240 b2 0b 7f
        E 0 92 3f 7f
        E 272 82 3f 00
        E 128 b2 0b 7f
        E 0 92 3f 7f
        E 144 82 3f 00
        E 2000 b2 7b 00
        E 0 ff 2f 00
      >
    >
  >
  <TRACK {9D28D1A1-A4DD-4D65-ABEB-451C8B7A4F10}
    NAME "NES - Noise / Drums [ch3]"
    PEAKCOL 11184810
    BEAT -1
    AUTOMODE 0
    PANLAWFLAGS 3
    VOLPAN 1 0 -1 -1 1
    MUTESOLO 0 0 0
    IPHASE 0
    PLAYOFFS 0 1
    ISBUS 0 0
    BUSCOMP 0 0 0 0 0
    SHOWINMIX 1 0.6667 0.5 1 0.5 0 0 0
    FIXEDLANES 9 0 0 0 0
    SEL 0
    REC 0 5088 1 0 0 0 0 0
    VU 2
    TRACKHEIGHT 0 0 0 0 0 0 0
    INQ 0 0 0 0.5 100 0 0 100
    NCHAN 2
    FX 1
    TRACKID {9D28D1A1-A4DD-4D65-ABEB-451C8B7A4F10}
    PERF 0
    MIDIOUT -1
    MAINSEND 1 0
    <FXCHAIN
      WNDRECT 24 52 700 560
      SHOW 0
      LASTSEL 0
      DOCKED 0
      BYPASS 0 0 0
      <JS "ReapNES Studio/ReapNES_Console.jsfx" ""
        2 15 1 10 80 10 100 2 1 15 1 5 60 10 80 1 1 0 50 0 0 15 1 0 100 0 0 0.500000 0.500000 0.400000 0.300000 0.800000 3 1 0 0 0 0 - - - - - - - - - - - - - - - - - - - - - - - - - -
      >
      FLOATPOS 0 0 0 0
      FXID {6A095413-ED51-45AF-BD11-E75B1E39CB82}
      WAK 0 0
    >
    <ITEM
      POSITION 0
      LENGTH 145.59876020000002
      LOOP 0
      ALLTAKES 0
      FADEIN 0 0 0 0 0 0 0
      FADEOUT 0 0 0 0 0 0 0
      MUTE 0 0
      SEL 0
      IGUID {85FCDDD2-926E-4778-B51C-F5C0C0611A02}
      <SOURCE MIDI
        HASDATA 1 480 QN
        CCINTERP 32
        E 6272 93 2d 3b
        E 528 83 2d 00
        E 0 93 26 3b
        E 544 83 26 00
        E 0 93 26 5d
        E 1072 83 26 00
        E 0 93 2d 3b
        E 192 83 2d 00
        E 80 93 2a 3b
        E 192 83 2a 00
        E 80 93 26 3b
        E 208 83 26 00
        E 64 93 2a 3b
        E 208 83 2a 00
        E 48 93 2d 3b
        E 192 83 2d 00
        E 80 93 2a 3b
        E 192 83 2a 00
        E 80 93 26 3b
        E 208 83 26 00
        E 64 93 2a 3b
        E 208 83 2a 00
        E 48 93 2d 3b
        E 192 83 2d 00
        E 80 93 2a 3b
        E 192 83 2a 00
        E 80 93 26 3b
        E 192 83 26 00
        E 80 93 2a 3b
        E 208 83 2a 00
        E 64 93 2d 3b
        E 208 83 2d 00
        E 48 93 2a 3b
        E 192 83 2a 00
        E 80 93 26 3b
        E 192 83 26 00
        E 80 93 2a 3b
        E 192 83 2a 00
        E 80 93 2d 3b
        E 208 83 2d 00
        E 64 93 2a 3b
        E 208 83 2a 00
        E 48 93 26 3b
        E 192 83 26 00
        E 80 93 2a 3b
        E 192 83 2a 00
        E 80 93 2d 3b
        E 208 83 2d 00
        E 64 93 2a 3b
        E 208 83 2a 00
        E 48 93 26 3b
        E 192 83 26 00
        E 80 93 2a 3b
        E 192 83 2a 00
        E 80 93 2d 3b
        E 192 83 2d 00
        E 80 93 2a 3b
        E 208 83 2a 00
        E 64 93 26 3b
        E 208 83 26 00
        E 48 93 2a 3b
        E 192 83 2a 00
        E 80 93 2d 3b
        E 192 83 2d 00
        E 80 93 2a 3b
        E 192 83 2a 00
        E 80 93 26 3b
        E 208 83 26 00
        E 64 93 2a 3b
        E 208 83 2a 00
        E 48 93 2d 5d
        E 2160 83 2d 00
        E 0 93 2a 44
        E 25488 83 2a 00
        E 0 93 2d 7f
        E 32 83 2d 00
        E 0 93 2a 2a
        E 32 83 2a 00
        E 0 93 26 7f
        E 32 83 26 00
        E 0 93 2a 19
        E 192 83 2a 00
        E 0 93 2d 3b
        E 192 83 2d 00
        E 80 93 2a 3b
        E 192 83 2a 00
        E 80 93 26 3b
        E 208 83 26 00
        E 64 93 2a 3b
        E 208 83 2a 00
        E 48 93 2d 3b
        E 192 83 2d 00
        E 80 93 2a 3b
        E 192 83 2a 00
        E 80 93 26 3b
        E 208 83 26 00
        E 64 93 2a 3b
        E 208 83 2a 00
        E 48 93 2d 3b
        E 192 83 2d 00
        E 80 93 2a 3b
        E 192 83 2a 00
        E 80 93 26 3b
        E 192 83 26 00
        E 80 93 2a 3b
        E 208 83 2a 00
        E 64 93 2d 3b
        E 208 83 2d 00
        E 48 93 2a 3b
        E 192 83 2a 00
        E 80 93 26 3b
        E 192 83 26 00
        E 80 93 2a 3b
        E 192 83 2a 00
        E 80 93 2d 3b
        E 208 83 2d 00
        E 64 93 2a 3b
        E 208 83 2a 00
        E 48 93 26 3b
        E 192 83 26 00
        E 80 93 2a 3b
        E 192 83 2a 00
        E 80 93 2d 3b
        E 192 83 2d 00
        E 80 93 2a 3b
        E 208 83 2a 00
        E 48 93 26 3b
        E 192 83 26 00
        E 80 93 2a 3b
        E 192 83 2a 00
        E 80 93 2d 3b
        E 192 83 2d 00
        E 80 93 2a 3b
        E 208 83 2a 00
        E 64 93 26 3b
        E 144 83 26 00
        E 0 93 2d 7f
        E 32 83 2d 00
        E 0 93 2a 2a
        E 32 83 2a 00
        E 0 93 26 7f
        E 32 83 26 00
        E 16 93 2a 3b
        E 192 83 2a 00
        E 80 93 2d 3b
        E 192 83 2d 00
        E 80 93 2a 3b
        E 192 83 2a 00
        E 80 93 26 3b
        E 208 83 26 00
        E 64 93 2a 3b
        E 208 83 2a 00
        E 48 93 2d 3b
        E 192 83 2d 00
        E 80 93 2a 3b
        E 192 83 2a 00
        E 80 93 26 3b
        E 192 83 26 00
        E 80 93 2a 3b
        E 208 83 2a 00
        E 64 93 2d 3b
        E 208 83 2d 00
        E 48 93 2a 3b
        E 192 83 2a 00
        E 80 93 26 3b
        E 192 83 26 00
        E 80 93 2a 3b
        E 208 83 2a 00
        E 64 93 2d 3b
        E 208 83 2d 00
        E 48 93 2a 3b
        E 192 83 2a 00
        E 80 93 26 3b
        E 192 83 26 00
        E 80 93 2a 3b
        E 192 83 2a 00
        E 80 93 2d 3b
        E 208 83 2d 00
        E 64 93 2a 3b
        E 208 83 2a 00
        E 48 93 26 3b
        E 192 83 26 00
        E 80 93 2a 3b
        E 192 83 2a 00
        E 80 93 2a 44
        E 4304 83 2a 00
        E 16 93 2a 7f
        E 32 83 2a 00
        E 4256 93 2a 7f
        E 32 83 2a 00
        E 4256 93 2d 3b
        E 528 83 2d 00
        E 0 93 26 3b
        E 544 83 26 00
        E 0 93 26 5d
        E 1072 83 26 00
        E 0 93 2d 3b
        E 192 83 2d 00
        E 80 93 2a 3b
        E 208 83 2a 00
        E 64 93 26 3b
        E 208 83 26 00
        E 48 93 2a 3b
        E 192 83 2a 00
        E 80 93 2d 3b
        E 192 83 2d 00
        E 80 93 2a 3b
        E 192 83 2a 00
        E 80 93 26 3b
        E 208 83 26 00
        E 64 93 2a 3b
        E 208 83 2a 00
        E 48 93 2d 3b
        E 192 83 2d 00
        E 80 93 2a 3b
        E 192 83 2a 00
        E 80 93 26 3b
        E 208 83 26 00
        E 64 93 2a 3b
        E 208 83 2a 00
        E 48 93 2d 3b
        E 192 83 2d 00
        E 80 93 2a 3b
        E 192 83 2a 00
        E 80 93 26 3b
        E 192 83 26 00
        E 80 93 2a 3b
        E 208 83 2a 00
        E 64 93 2d 3b
        E 208 83 2d 00
        E 48 93 2a 3b
        E 192 83 2a 00
        E 80 93 26 3b
        E 192 83 26 00
        E 80 93 2a 3b
        E 192 83 2a 00
        E 80 93 2d 3b
        E 208 83 2d 00
        E 64 93 2a 3b
        E 208 83 2a 00
        E 48 93 26 3b
        E 192 83 26 00
        E 80 93 2a 3b
        E 192 83 2a 00
        E 80 93 2d 3b
        E 208 83 2d 00
        E 64 93 2a 3b
        E 208 83 2a 00
        E 48 93 26 3b
        E 192 83 26 00
        E 80 93 2a 3b
        E 192 83 2a 00
        E 80 93 2d 3b
        E 192 83 2d 00
        E 80 93 2a 3b
        E 208 83 2a 00
        E 64 93 26 3b
        E 208 83 26 00
        E 48 93 2a 3b
        E 192 83 2a 00
        E 80 93 2d 5d
        E 2144 83 2d 00
        E 0 93 2a 44
        E 25792 83 2a 00
        E 0 93 2d 3b
        E 192 83 2d 00
        E 80 93 2a 3b
        E 208 83 2a 00
        E 64 93 26 3b
        E 208 83 26 00
        E 48 93 2a 3b
        E 192 83 2a 00
        E 80 93 2d 3b
        E 192 83 2d 00
        E 80 93 2a 3b
        E 192 83 2a 00
        E 80 93 26 3b
        E 208 83 26 00
        E 64 93 2a 3b
        E 208 83 2a 00
        E 48 93 2d 3b
        E 192 83 2d 00
        E 80 93 2a 3b
        E 192 83 2a 00
        E 80 93 26 3b
        E 208 83 26 00
        E 64 93 2a 3b
        E 208 83 2a 00
        E 48 93 2d 3b
        E 192 83 2d 00
        E 80 93 2a 3b
        E 192 83 2a 00
        E 80 93 26 3b
        E 192 83 26 00
        E 80 93 2a 3b
        E 208 83 2a 00
        E 64 93 2d 3b
        E 208 83 2d 00
        E 48 93 2a 3b
        E 192 83 2a 00
        E 80 93 26 3b
        E 192 83 26 00
        E 80 93 2a 3b
        E 192 83 2a 00
        E 80 93 2d 3b
        E 208 83 2d 00
        E 64 93 2a 3b
        E 208 83 2a 00
        E 48 93 26 3b
        E 192 83 26 00
        E 80 93 2a 3b
        E 192 83 2a 00
        E 80 93 2d 3b
        E 192 83 2d 00
        E 80 93 2a 3b
        E 208 83 2a 00
        E 48 93 26 3b
        E 192 83 26 00
        E 80 93 2a 3b
        E 192 83 2a 00
        E 80 93 2d 3b
        E 192 83 2d 00
        E 80 93 2a 3b
        E 208 83 2a 00
        E 64 93 26 3b
        E 208 83 26 00
        E 48 93 2a 3b
        E 192 83 2a 00
        E 80 93 2d 3b
        E 192 83 2d 00
        E 80 93 2a 3b
        E 192 83 2a 00
        E 80 93 26 3b
        E 208 83 26 00
        E 64 93 2a 3b
        E 208 83 2a 00
        E 48 93 2d 3b
        E 192 83 2d 00
        E 80 93 2a 3b
        E 192 83 2a 00
        E 80 93 26 3b
        E 192 83 26 00
        E 80 93 2a 3b
        E 208 83 2a 00
        E 64 93 2d 3b
        E 208 83 2d 00
        E 48 93 2a 3b
        E 192 83 2a 00
        E 80 93 26 3b
        E 192 83 26 00
        E 80 93 2a 3b
        E 208 83 2a 00
        E 64 93 2d 3b
        E 208 83 2d 00
        E 48 93 2a 3b
        E 192 83 2a 00
        E 80 93 26 3b
        E 192 83 26 00
        E 80 93 2a 3b
        E 192 83 2a 00
        E 80 93 2a 44
        E 4288 83 2a 00
        E 16 93 2a 7f
        E 32 83 2a 00
        E 4272 93 2a 7f
        E 32 83 2a 00
        E 4256 93 2d 3b
        E 528 83 2d 00
        E 0 93 26 3b
        E 544 83 26 00
        E 0 93 26 5d
        E 1072 83 26 00
        E 0 93 2d 3b
        E 208 83 2d 00
        E 64 93 2a 3b
        E 208 83 2a 00
        E 48 93 26 3b
        E 192 83 26 00
        E 80 93 2a 3b
        E 192 83 2a 00
        E 80 93 2d 3b
        E 192 83 2d 00
        E 80 93 2a 3b
        E 208 83 2a 00
        E 64 93 26 3b
        E 208 83 26 00
        E 48 93 2a 3b
        E 192 83 2a 00
        E 80 93 2d 3b
        E 192 83 2d 00
        E 80 93 2a 3b
        E 192 83 2a 00
        E 80 93 26 3b
        E 208 83 26 00
        E 64 93 2a 3b
        E 208 83 2a 00
        E 48 93 2d 3b
        E 192 83 2d 00
        E 80 93 2a 3b
        E 192 83 2a 00
        E 80 93 26 3b
        E 208 83 26 00
        E 64 93 2a 3b
        E 208 83 2a 00
        E 48 93 2d 3b
        E 192 83 2d 00
        E 80 93 2a 3b
        E 192 83 2a 00
        E 80 93 26 3b
        E 192 83 26 00
        E 80 93 2a 3b
        E 208 83 2a 00
        E 64 93 2d 3b
        E 208 83 2d 00
        E 48 93 2a 3b
        E 192 83 2a 00
        E 80 93 26 3b
        E 192 83 26 00
        E 80 93 2a 3b
        E 192 83 2a 00
        E 80 93 2d 3b
        E 192 83 2d 00
        E 0 93 2d 7f
        E 32 83 2d 00
        E 0 93 2a 2a
        E 32 83 2a 00
        E 0 93 26 7f
        E 32 83 26 00
        E 0 93 2a 33
        E 192 83 2a 00
        E 48 93 26 3b
        E 192 83 26 00
        E 80 93 2a 3b
        E 192 83 2a 00
        E 80 93 2d 3b
        E 208 83 2d 00
        E 64 93 2a 3b
        E 208 83 2a 00
        E 48 93 26 3b
        E 192 83 26 00
        E 80 93 2a 3b
        E 192 83 2a 00
        E 80 93 2d 5d
        E 2144 83 2d 00
        E 0 93 2a 44
        E 1712 83 2a 00
        E 0 b3 7b 00
        E 0 ff 2f 00
      >
    >
  >
>