<REAPER_PROJECT 0.1 "7.27/win64" 1707000000
  <NOTES 0 2
    |ReapNES Studio Project
    |MIDI Import - Super_Mario_Bros._01_Overworld_mesen_v1
  >
  RIPPLE 0
  GROUPOVERRIDE 0 0 0
  AUTOXFADE 129
  ENVATTACH 3
  POOLEDENVATTACH 0
  MIXERUIFLAGS 11 48
  ENVFADESZ10 40
  PEAKGAIN 1
  FEEDBACK 0
  PANLAW 1
  PROJOFFS 0 0 0
  MAXPROJLEN 0 0
  GRID 3199 8 1 8 1 0 0 0
  TIMEMODE 1 5 -1 30 0 0 -1
  VIDEO_CONFIG 0 0 65792
  PANMODE 3
  PANLAWFLAGS 3
  CURSOR 0
  ZOOM 100 0 0
  VZOOMEX 6 0
  USE_REC_CFG 0
  RECMODE 1
  SMPTESYNC 0 30 100 40 1000 300 0 0 1 0 0
  LOOP 0
  LOOPGRAN 0 4
  RECORD_PATH "Media" ""
  <RECORD_CFG
    ZXZhdxgAAQ==
  >
  <APPLYFX_CFG
  >
  RENDER_FILE ""
  RENDER_PATTERN ""
  RENDER_FMT 0 2 0
  RENDER_1X 0
  RENDER_RANGE 1 0 0 18 1000
  RENDER_RESAMPLE 3 0 1
  RENDER_ADDTOPROJ 0
  RENDER_STEMS 0
  RENDER_DITHER 0
  TIMELOCKMODE 1
  TEMPOENVLOCKMODE 1
  ITEMMIX 1
  DEFPITCHMODE 589824 0
  TAKELANE 1
  SAMPLERATE 44100 0 0
  <RENDER_CFG
    ZXZhdxgAAQ==
  >
  LOCK 1
  <METRONOME 6 2
    VOL 0.25 0.125
    BEATLEN 4
    FREQ 1760 880 1
    SAMPLES "" ""
    SPLIGNORE 0 0
    SPLDEF 2 660 "" 0
    SPLDEF 3 440 "" 0
    PATTERN 0 169
    PATTERNSTR ABBB
    MULT 1
  >
  GLOBAL_AUTO -1
  TEMPO 128.59999614200012 4 4
  PLAYRATE 1 0 0.25 4
  SELECTION 0 0
  SELECTION2 0 0
  MASTERAUTOMODE 0
  MASTERTRACKHEIGHT 0 0
  MASTERPEAKCOL 16576
  MASTERMUTESOLO 0
  MASTERTRACKVIEW 0 0.6667 0.5 0.5 0 0 0 0 0 0 0 0 0 0
  MASTERHWOUT 0 0 1 0 0 0 0 -1
  MASTER_NCH 2 2
  MASTER_VOLUME 1 0 -1 -1 1
  MASTER_PANMODE 3
  MASTER_PANLAWFLAGS 3
  MASTER_FX 1
  MASTER_SEL 0
  <MASTERPLAYSPEEDENV
    EGUID {69B11EE1-AB4D-43E6-A97B-D083D4CD255F}
    ACT 0 -1
    VIS 0 1 1
    LANEHEIGHT 0 0
    ARM 0
    DEFSHAPE 0 -1 -1
  >
  <TEMPOENVEX
    EGUID {D5E9CA34-56D9-4F00-96C5-742C67E1CA78}
    ACT 1 -1
    VIS 1 0 1
    LANEHEIGHT 0 0
    ARM 0
    DEFSHAPE 1 -1 -1
  >
  <PROJBAY
  >
  <TRACK {D1B2E365-9098-4F97-9AE6-5CAA1FF5DE3F}
    NAME "NES - Pulse 1 [ch0]"
    PEAKCOL 16576606
    BEAT -1
    AUTOMODE 0
    PANLAWFLAGS 3
    VOLPAN 1 0 -1 -1 1
    MUTESOLO 0 0 0
    IPHASE 0
    PLAYOFFS 0 1
    ISBUS 0 0
    BUSCOMP 0 0 0 0 0
    SHOWINMIX 1 0.6667 0.5 1 0.5 0 0 0
    FIXEDLANES 9 0 0 0 0
    SEL 1
    REC 0 5088 1 0 0 0 0 0
    VU 2
    TRACKHEIGHT 0 0 0 0 0 0 0
    INQ 0 0 0 0.5 100 0 0 100
    NCHAN 2
    FX 1
    TRACKID {D1B2E365-9098-4F97-9AE6-5CAA1FF5DE3F}
    PERF 0
    MIDIOUT -1
    MAINSEND 1 0
    <FXCHAIN
      WNDRECT 24 52 700 560
      SHOW 0
      LASTSEL 0
      DOCKED 0
      BYPASS 0 0 0
      <JS "ReapNES Studio/ReapNES_Console.jsfx" ""
        2 15 1 10 80 10 100 2 1 15 1 5 60 10 80 1 1 0 50 0 0 15 1 0 100 0 0 0.500000 0.500000 0.400000 0.300000 0.800000 0 1 0 0 0 0 - - - - - - - - - - - - - - - - - - - - - - - - - -
      >
      FLOATPOS 0 0 0 0
      FXID {81DE647C-6B2A-4A40-89C8-E2C4702661C2}
      WAK 0 0
    >
    <ITEM
      POSITION 0
      LENGTH 93.5614336
      LOOP 0
      ALLTAKES 0
      FADEIN 0 0 0 0 0 0 0
      FADEOUT 0 0 0 0 0 0 0
      MUTE 0 0
      SEL 0
      IGUID {7E929126-090C-4ECB-AEE8-6B8FC017A34C}
      <SOURCE MIDI
        HASDATA 1 480 QN
        CCINTERP 32
        E 0 c0 50
        E 0 b0 0c 40
        E 0 b0 0b 44
        E 0 90 36 44
        E 16 b0 0b 3b
        E 16 b0 0b 33
        E 16 b0 0b 2a
        E 32 b0 0b 22
        E 32 80 36 00
        E 32 b0 0b 44
        E 0 90 36 44
        E 16 b0 0b 3b
        E 16 b0 0b 33
        E 16 b0 0b 2a
        E 32 b0 0b 22
        E 32 80 36 00
        E 176 b0 0b 44
        E 0 90 36 44
        E 16 b0 0b 3b
        E 16 b0 0b 33
        E 16 b0 0b 2a
        E 32 b0 0b 22
        E 32 80 36 00
        E 176 b0 0b 44
        E 0 90 36 44
        E 16 b0 0b 3b
        E 16 b0 0b 33
        E 16 b0 0b 2a
        E 32 b0 0b 22
        E 32 80 36 00
        E 32 b0 0b 44
        E 0 90 36 44
        E 16 b0 0b 3b
        E 16 b0 0b 33
        E 16 b0 0b 2a
        E 32 b0 0b 22
        E 32 80 36 00
        E 176 b0 0b 44
        E 0 90 3b 44
        E 16 b0 0b 3b
        E 16 b0 0b 33
        E 16 b0 0b 2a
        E 32 b0 0b 22
        E 32 80 3b 00
        E 464 b0 0b 44
        E 0 90 37 44
        E 16 b0 0b 3b
        E 16 b0 0b 33
        E 16 b0 0b 2a
        E 32 b0 0b 22
        E 32 80 37 00
        E 464 b0 0b 44
        E 0 90 34 44
        E 16 b0 0b 3b
        E 16 b0 0b 33
        E 16 b0 0b 2a
        E 32 b0 0b 22
        E 32 80 34 00
        E 320 b0 0b 44
        E 0 90 30 44
        E 16 b0 0b 3b
        E 16 b0 0b 33
        E 16 b0 0b 2a
        E 32 b0 0b 22
        E 32 80 30 00
        E 320 b0 0b 44
        E 0 90 2b 44
        E 16 b0 0b 3b
        E 16 b0 0b 33
        E 16 b0 0b 2a
        E 32 b0 0b 22
        E 32 80 2b 00
        E 320 b0 0b 44
        E 0 90 30 44
        E 16 b0 0b 3b
        E 16 b0 0b 33
        E 16 b0 0b 2a
        E 32 b0 0b 22
        E 32 80 30 00
        E 176 b0 0b 44
        E 0 90 32 44
        E 16 b0 0b 3b
        E 16 b0 0b 33
        E 16 b0 0b 2a
        E 32 b0 0b 22
        E 32 80 32 00
        E 176 b0 0b 44
        E 0 90 31 44
        E 16 b0 0b 3b
        E 16 b0 0b 33
        E 16 b0 0b 2a
        E 32 b0 0b 22
        E 32 80 31 00
        E 32 b0 0b 44
        E 0 90 30 44
        E 16 b0 0b 3b
        E 16 b0 0b 33
        E 16 b0 0b 2a
        E 32 b0 0b 22
        E 32 80 30 00
        E 176 b0 0b 44
        E 0 90 30 44
        E 16 b0 0b 3b
        E 16 b0 0b 33
        E 16 b0 0b 2a
        E 32 b0 0b 22
        E 32 80 30 00
        E 80 b0 0b 44
        E 0 90 37 44
        E 16 b0 0b 3b
        E 16 b0 0b 33
        E 16 b0 0b 2a
        E 32 b0 0b 22
        E 32 80 37 00
        E 80 b0 0b 44
        E 0 90 3b 44
        E 16 b0 0b 3b
        E 16 b0 0b 33
        E 16 b0 0b 2a
        E 32 b0 0b 22
        E 32 80 3b 00
        E 80 b0 0b 44
        E 0 90 3c 44
        E 16 b0 0b 3b
        E 16 b0 0b 33
        E 16 b0 0b 2a
        E 32 b0 0b 22
        E 32 80 3c 00
        E 176 b0 0b 44
        E 0 90 39 44
        E 16 b0 0b 3b
        E 16 b0 0b 33
        E 16 b0 0b 2a
        E 32 b0 0b 22
        E 32 80 39 00
        E 32 b0 0b 44
        E 0 90 3b 44
        E 16 b0 0b 3b
        E 16 b0 0b 33
        E 16 b0 0b 2a
        E 32 b0 0b 22
        E 32 80 3b 00
        E 176 b0 0b 44
        E 0 90 39 44
        E 16 b0 0b 3b
        E 16 b0 0b 33
        E 16 b0 0b 2a
        E 32 b0 0b 22
        E 32 80 39 00
        E 176 b0 0b 44
        E 0 90 34 44
        E 16 b0 0b 3b
        E 16 b0 0b 33
        E 16 b0 0b 2a
        E 32 b0 0b 22
        E 32 80 34 00
        E 32 b0 0b 44
        E 0 90 35 44
        E 16 b0 0b 3b
        E 16 b0 0b 33
        E 16 b0 0b 2a
        E 32 b0 0b 22
        E 32 80 35 00
        E 32 b0 0b 44
        E 0 90 32 44
        E 16 b0 0b 3b
        E 16 b0 0b 33
        E 16 b0 0b 2a
        E 32 b0 0b 22
        E 32 80 32 00
        E 320 b0 0b 44
        E 0 90 34 44
        E 16 b0 0b 3b
        E 16 b0 0b 33
        E 16 b0 0b 2a
        E 32 b0 0b 22
        E 32 80 34 00
        E 320 b0 0b 44
        E 0 90 30 44
        E 16 b0 0b 3b
        E 16 b0 0b 33
        E 16 b0 0b 2a
        E 32 b0 0b 22
        E 32 80 30 00
        E 320 b0 0b 44
        E 0 90 2b 44
        E 16 b0 0b 3b
        E 16 b0 0b 33
        E 16 b0 0b 2a
        E 32 b0 0b 22
        E 32 80 2b 00
        E 320 b0 0b 44
        E 0 90 30 44
        E 16 b0 0b 3b
        E 16 b0 0b 33
        E 16 b0 0b 2a
        E 32 b0 0b 22
        E 32 80 30 00
        E 176 b0 0b 44
        E 0 90 32 44
        E 16 b0 0b 3b
        E 16 b0 0b 33
        E 16 b0 0b 2a
        E 32 b0 0b 22
        E 32 80 32 00
        E 176 b0 0b 44
        E 0 90 31 44
        E 16 b0 0b 3b
        E 16 b0 0b 33
        E 16 b0 0b 2a
        E 32 b0 0b 22
        E 32 80 31 00
        E 32 b0 0b 44
        E 0 90 30 44
        E 16 b0 0b 3b
        E 16 b0 0b 33
        E 16 b0 0b 2a
        E 32 b0 0b 22
        E 32 80 30 00
        E 176 b0 0b 44
        E 0 90 30 44
        E 16 b0 0b 3b
        E 16 b0 0b 33
        E 16 b0 0b 2a
        E 32 b0 0b 22
        E 32 80 30 00
        E 80 b0 0b 44
        E 0 90 37 44
        E 16 b0 0b 3b
        E 16 b0 0b 33
        E 16 b0 0b 2a
        E 32 b0 0b 22
        E 32 80 37 00
        E 80 b0 0b 44
        E 0 90 3b 44
        E 16 b0 0b 3b
        E 16 b0 0b 33
        E 16 b0 0b 2a
        E 32 b0 0b 22
        E 32 80 3b 00
        E 80 b0 0b 44
        E 0 90 3c 44
        E 16 b0 0b 3b
        E 16 b0 0b 33
        E 16 b0 0b 2a
        E 32 b0 0b 22
        E 32 80 3c 00
        E 176 b0 0b 44
        E 0 90 39 44
        E 16 b0 0b 3b
        E 16 b0 0b 33
        E 16 b0 0b 2a
        E 32 b0 0b 22
        E 32 80 39 00
        E 32 b0 0b 44
        E 0 90 3b 44
        E 16 b0 0b 3b
        E 16 b0 0b 33
        E 16 b0 0b 2a
        E 32 b0 0b 22
        E 32 80 3b 00
        E 176 b0 0b 44
        E 0 90 39 44
        E 16 b0 0b 3b
        E 16 b0 0b 33
        E 16 b0 0b 2a
        E 32 b0 0b 22
        E 32 80 39 00
        E 176 b0 0b 44
        E 0 90 34 44
        E 16 b0 0b 3b
        E 16 b0 0b 33
        E 16 b0 0b 2a
        E 32 b0 0b 22
        E 32 80 34 00
        E 32 b0 0b 44
        E 0 90 35 44
        E 16 b0 0b 3b
        E 16 b0 0b 33
        E 16 b0 0b 2a
        E 32 b0 0b 22
        E 32 80 35 00
        E 32 b0 0b 44
        E 0 90 32 44
        E 16 b0 0b 3b
        E 16 b0 0b 33
        E 16 b0 0b 2a
        E 32 b0 0b 22
        E 32 80 32 00
        E 608 b0 0b 44
        E 0 90 40 44
        E 16 b0 0b 3b
        E 16 b0 0b 33
        E 16 b0 0b 2a
        E 32 b0 0b 22
        E 32 80 40 00
        E 32 b0 0b 44
        E 0 90 3f 44
        E 16 b0 0b 3b
        E 16 b0 0b 33
        E 16 b0 0b 2a
        E 32 b0 0b 22
        E 32 80 3f 00
        E 32 b0 0b 44
        E 0 90 3e 44
        E 16 b0 0b 3b
        E 16 b0 0b 33
        E 16 b0 0b 2a
        E 32 b0 0b 22
        E 32 80 3e 00
        E 32 b0 0b 44
        E 0 90 3b 44
        E 16 b0 0b 3b
        E 16 b0 0b 33
        E 16 b0 0b 2a
        E 32 b0 0b 22
        E 32 80 3b 00
        E 176 b0 0b 44
        E 0 90 3c 44
        E 16 b0 0b 3b
        E 16 b0 0b 33
        E 16 b0 0b 2a
        E 32 b0 0b 22
        E 32 80 3c 00
        E 176 b0 0b 44
        E 0 90 34 44
        E 16 b0 0b 3b
        E 16 b0 0b 33
        E 16 b0 0b 2a
        E 32 b0 0b 22
        E 32 80 34 00
        E 32 b0 0b 44
        E 0 90 35 44
        E 16 b0 0b 3b
        E 16 b0 0b 33
        E 16 b0 0b 2a
        E 32 b0 0b 22
        E 32 80 35 00
        E 32 b0 0b 44
        E 0 90 37 44
        E 16 b0 0b 3b
        E 16 b0 0b 33
        E 16 b0 0b 2a
        E 32 b0 0b 22
        E 32 80 37 00
        E 176 b0 0b 44
        E 0 90 30 44
        E 16 b0 0b 3b
        E 16 b0 0b 33
        E 16 b0 0b 2a
        E 32 b0 0b 22
        E 32 80 30 00
        E 32 b0 0b 44
        E 0 90 34 44
        E 16 b0 0b 3b
        E 16 b0 0b 33
        E 16 b0 0b 2a
        E 32 b0 0b 22
        E 32 80 34 00
        E 32 b0 0b 44
        E 0 90 35 44
        E 16 b0 0b 3b
        E 16 b0 0b 33
        E 16 b0 0b 2a
        E 32 b0 0b 22
        E 32 80 35 00
        E 320 b0 0b 44
        E 0 90 40 44
        E 16 b0 0b 3b
        E 16 b0 0b 33
        E 16 b0 0b 2a
        E 32 b0 0b 22
        E 32 80 40 00
        E 32 b0 0b 44
        E 0 90 3f 44
        E 16 b0 0b 3b
        E 16 b0 0b 33
        E 16 b0 0b 2a
        E 32 b0 0b 22
        E 32 80 3f 00
        E 32 b0 0b 44
        E 0 90 3e 44
        E 16 b0 0b 3b
        E 16 b0 0b 33
        E 16 b0 0b 2a
        E 32 b0 0b 22
        E 32 80 3e 00
        E 32 b0 0b 44
        E 0 90 3b 44
        E 16 b0 0b 3b
        E 16 b0 0b 33
        E 16 b0 0b 2a
        E 32 b0 0b 22
        E 32 80 3b 00
        E 176 b0 0b 44
        E 0 90 3c 44
        E 16 b0 0b 3b
        E 16 b0 0b 33
        E 16 b0 0b 2a
        E 32 b0 0b 22
        E 32 80 3c 00
        E 176 b0 0b 44
        E 0 90 41 44
        E 16 b0 0b 3b
        E 16 b0 0b 33
        E 16 b0 0b 2a
        E 32 b0 0b 22
        E 32 80 41 00
        E 176 b0 0b 44
        E 0 90 41 44
        E 16 b0 0b 3b
        E 16 b0 0b 33
        E 16 b0 0b 2a
        E 32 b0 0b 22
        E 32 80 41 00
        E 32 b0 0b 44
        E 0 90 41 44
        E 16 b0 0b 3b
        E 16 b0 0b 33
        E 16 b0 0b 2a
        E 32 b0 0b 22
        E 32 80 41 00
        E 752 b0 0b 44
        E 0 90 40 44
        E 16 b0 0b 3b
        E 16 b0 0b 33
        E 16 b0 0b 2a
        E 32 b0 0b 22
        E 32 80 40 00
        E 32 b0 0b 44
        E 0 90 3f 44
        E 16 b0 0b 3b
        E 16 b0 0b 33
        E 16 b0 0b 2a
        E 32 b0 0b 22
        E 32 80 3f 00
        E 32 b0 0b 44
        E 0 90 3e 44
        E 16 b0 0b 3b
        E 16 b0 0b 33
        E 16 b0 0b 2a
        E 32 b0 0b 22
        E 32 80 3e 00
        E 32 b0 0b 44
        E 0 90 3b 44
        E 16 b0 0b 3b
        E 16 b0 0b 33
        E 16 b0 0b 2a
        E 32 b0 0b 22
        E 32 80 3b 00
        E 176 b0 0b 44
        E 0 90 3c 44
        E 16 b0 0b 3b
        E 16 b0 0b 33
        E 16 b0 0b 2a
        E 32 b0 0b 22
        E 32 80 3c 00
        E 176 b0 0b 44
        E 0 90 34 44
        E 16 b0 0b 3b
        E 16 b0 0b 33
        E 16 b0 0b 2a
        E 32 b0 0b 22
        E 32 80 34 00
        E 32 b0 0b 44
        E 0 90 35 44
        E 16 b0 0b 3b
        E 16 b0 0b 33
        E 16 b0 0b 2a
        E 32 b0 0b 22
        E 32 80 35 00
        E 32 b0 0b 44
        E 0 90 37 44
        E 16 b0 0b 3b
        E 16 b0 0b 33
        E 16 b0 0b 2a
        E 32 b0 0b 22
        E 32 80 37 00
        E 176 b0 0b 44
        E 0 90 30 44
        E 16 b0 0b 3b
        E 16 b0 0b 33
        E 16 b0 0b 2a
        E 32 b0 0b 22
        E 32 80 30 00
        E 32 b0 0b 44
        E 0 90 34 44
        E 16 b0 0b 3b
        E 16 b0 0b 33
        E 16 b0 0b 2a
        E 32 b0 0b 22
        E 32 80 34 00
        E 32 b0 0b 44
        E 0 90 35 44
        E 16 b0 0b 3b
        E 16 b0 0b 33
        E 16 b0 0b 2a
        E 32 b0 0b 22
        E 32 80 35 00
        E 320 b0 0b 44
        E 0 90 38 44
        E 16 b0 0b 3b
        E 16 b0 0b 33
        E 16 b0 0b 2a
        E 32 b0 0b 22
        E 32 80 38 00
        E 320 b0 0b 44
        E 0 90 35 44
        E 16 b0 0b 3b
        E 16 b0 0b 33
        E 16 b0 0b 2a
        E 32 b0 0b 22
        E 32 80 35 00
        E 320 b0 0b 44
        E 0 90 34 44
        E 16 b0 0b 3b
        E 16 b0 0b 33
        E 16 b0 0b 2a
        E 32 b0 0b 22
        E 32 80 34 00
        E 1328 b0 0b 44
        E 0 90 40 44
        E 16 b0 0b 3b
        E 16 b0 0b 33
        E 16 b0 0b 2a
        E 32 b0 0b 22
        E 32 80 40 00
        E 32 b0 0b 44
        E 0 90 3f 44
        E 16 b0 0b 3b
        E 16 b0 0b 33
        E 16 b0 0b 2a
        E 32 b0 0b 22
        E 32 80 3f 00
        E 32 b0 0b 44
        E 0 90 3e 44
        E 16 b0 0b 3b
        E 16 b0 0b 33
        E 16 b0 0b 2a
        E 32 b0 0b 22
        E 32 80 3e 00
        E 32 b0 0b 44
        E 0 90 3b 44
        E 16 b0 0b 3b
        E 16 b0 0b 33
        E 16 b0 0b 2a
        E 32 b0 0b 22
        E 32 80 3b 00
        E 176 b0 0b 44
        E 0 90 3c 44
        E 16 b0 0b 3b
        E 16 b0 0b 33
        E 16 b0 0b 2a
        E 32 b0 0b 22
        E 32 80 3c 00
        E 176 b0 0b 44
        E 0 90 34 44
        E 16 b0 0b 3b
        E 16 b0 0b 33
        E 16 b0 0b 2a
        E 32 b0 0b 22
        E 32 80 34 00
        E 32 b0 0b 44
        E 0 90 35 44
        E 16 b0 0b 3b
        E 16 b0 0b 33
        E 16 b0 0b 2a
        E 32 b0 0b 22
        E 32 80 35 00
        E 32 b0 0b 44
        E 0 90 37 44
        E 16 b0 0b 3b
        E 16 b0 0b 33
        E 16 b0 0b 2a
        E 32 b0 0b 22
        E 32 80 37 00
        E 176 b0 0b 44
        E 0 90 30 44
        E 16 b0 0b 3b
        E 16 b0 0b 33
        E 16 b0 0b 2a
        E 32 b0 0b 22
        E 32 80 30 00
        E 32 b0 0b 44
        E 0 90 34 44
        E 16 b0 0b 3b
        E 16 b0 0b 33
        E 16 b0 0b 2a
        E 32 b0 0b 22
        E 32 80 34 00
        E 32 b0 0b 44
        E 0 90 35 44
        E 16 b0 0b 3b
        E 16 b0 0b 33
        E 16 b0 0b 2a
        E 32 b0 0b 22
        E 32 80 35 00
        E 320 b0 0b 44
        E 0 90 40 44
        E 16 b0 0b 3b
        E 16 b0 0b 33
        E 16 b0 0b 2a
        E 32 b0 0b 22
        E 32 80 40 00
        E 32 b0 0b 44
        E 0 90 3f 44
        E 16 b0 0b 3b
        E 16 b0 0b 33
        E 16 b0 0b 2a
        E 32 b0 0b 22
        E 32 80 3f 00
        E 32 b0 0b 44
        E 0 90 3e 44
        E 16 b0 0b 3b
        E 16 b0 0b 33
        E 16 b0 0b 2a
        E 32 b0 0b 22
        E 32 80 3e 00
        E 32 b0 0b 44
        E 0 90 3b 44
        E 16 b0 0b 3b
        E 16 b0 0b 33
        E 16 b0 0b 2a
        E 32 b0 0b 22
        E 32 80 3b 00
        E 176 b0 0b 44
        E 0 90 3c 44
        E 16 b0 0b 3b
        E 16 b0 0b 33
        E 16 b0 0b 2a
        E 32 b0 0b 22
        E 32 80 3c 00
        E 176 b0 0b 44
        E 0 90 41 44
        E 16 b0 0b 3b
        E 16 b0 0b 33
        E 16 b0 0b 2a
        E 32 b0 0b 22
        E 32 80 41 00
        E 176 b0 0b 44
        E 0 90 41 44
        E 16 b0 0b 3b
        E 16 b0 0b 33
        E 16 b0 0b 2a
        E 32 b0 0b 22
        E 32 80 41 00
        E 32 b0 0b 44
        E 0 90 41 44
        E 16 b0 0b 3b
        E 16 b0 0b 33
        E 16 b0 0b 2a
        E 32 b0 0b 22
        E 32 80 41 00
        E 752 b0 0b 44
        E 0 90 40 44
        E 16 b0 0b 3b
        E 16 b0 0b 33
        E 16 b0 0b 2a
        E 32 b0 0b 22
        E 32 80 40 00
        E 32 b0 0b 44
        E 0 90 3f 44
        E 16 b0 0b 3b
        E 16 b0 0b 33
        E 16 b0 0b 2a
        E 32 b0 0b 22
        E 32 80 3f 00
        E 32 b0 0b 44
        E 0 90 3e 44
        E 16 b0 0b 3b
        E 16 b0 0b 33
        E 16 b0 0b 2a
        E 32 b0 0b 22
        E 32 80 3e 00
        E 32 b0 0b 44
        E 0 90 3b 44
        E 16 b0 0b 3b
        E 16 b0 0b 33
        E 16 b0 0b 2a
        E 32 b0 0b 22
        E 32 80 3b 00
        E 176 b0 0b 44
        E 0 90 3c 44
        E 16 b0 0b 3b
        E 16 b0 0b 33
        E 16 b0 0b 2a
        E 32 b0 0b 22
        E 32 80 3c 00
        E 176 b0 0b 44
        E 0 90 34 44
        E 16 b0 0b 3b
        E 16 b0 0b 33
        E 16 b0 0b 2a
        E 32 b0 0b 22
        E 32 80 34 00
        E 32 b0 0b 44
        E 0 90 35 44
        E 16 b0 0b 3b
        E 16 b0 0b 33
        E 16 b0 0b 2a
        E 32 b0 0b 22
        E 32 80 35 00
        E 32 b0 0b 44
        E 0 90 37 44
        E 16 b0 0b 3b
        E 16 b0 0b 33
        E 16 b0 0b 2a
        E 32 b0 0b 22
        E 32 80 37 00
        E 176 b0 0b 44
        E 0 90 30 44
        E 16 b0 0b 3b
        E 16 b0 0b 33
        E 16 b0 0b 2a
        E 32 b0 0b 22
        E 32 80 30 00
        E 32 b0 0b 44
        E 0 90 34 44
        E 16 b0 0b 3b
        E 16 b0 0b 33
        E 16 b0 0b 2a
        E 32 b0 0b 22
        E 32 80 34 00
        E 32 b0 0b 44
        E 0 90 35 44
        E 16 b0 0b 3b
        E 16 b0 0b 33
        E 16 b0 0b 2a
        E 32 b0 0b 22
        E 32 80 35 00
        E 320 b0 0b 44
        E 0 90 38 44
        E 16 b0 0b 3b
        E 16 b0 0b 33
        E 16 b0 0b 2a
        E 32 b0 0b 22
        E 32 80 38 00
        E 320 b0 0b 44
        E 0 90 35 44
        E 16 b0 0b 3b
        E 16 b0 0b 33
        E 16 b0 0b 2a
        E 32 b0 0b 22
        E 32 80 35 00
        E 320 b0 0b 44
        E 0 90 34 44
        E 16 b0 0b 3b
        E 16 b0 0b 33
        E 16 b0 0b 2a
        E 32 b0 0b 22
        E 32 80 34 00
        E 1040 b0 0b 44
        E 0 90 38 44
        E 16 b0 0b 3b
        E 16 b0 0b 33
        E 16 b0 0b 2a
        E 32 b0 0b 22
        E 32 80 38 00
        E 32 b0 0b 44
        E 0 90 38 44
        E 16 b0 0b 3b
        E 16 b0 0b 33
        E 16 b0 0b 2a
        E 32 b0 0b 22
        E 32 80 38 00
        E 176 b0 0b 44
        E 0 90 38 44
        E 16 b0 0b 3b
        E 16 b0 0b 33
        E 16 b0 0b 2a
        E 32 b0 0b 22
        E 32 80 38 00
        E 176 b0 0b 44
        E 0 90 38 44
        E 16 b0 0b 3b
        E 16 b0 0b 33
        E 16 b0 0b 2a
        E 32 b0 0b 22
        E 32 80 38 00
        E 32 b0 0b 44
        E 0 90 3a 44
        E 16 b0 0b 3b
        E 16 b0 0b 33
        E 16 b0 0b 2a
        E 32 b0 0b 22
        E 32 80 3a 00
        E 176 b0 0b 44
        E 0 90 37 44
        E 16 b0 0b 3b
        E 16 b0 0b 33
        E 16 b0 0b 2a
        E 32 b0 0b 22
        E 32 80 37 00
        E 32 b0 0b 44
        E 0 90 34 44
        E 16 b0 0b 3b
        E 16 b0 0b 33
        E 16 b0 0b 2a
        E 32 b0 0b 22
        E 32 80 34 00
        E 176 b0 0b 44
        E 0 90 34 44
        E 16 b0 0b 3b
        E 16 b0 0b 33
        E 16 b0 0b 2a
        E 32 b0 0b 22
        E 32 80 34 00
        E 32 b0 0b 44
        E 0 90 30 44
        E 16 b0 0b 3b
        E 16 b0 0b 33
        E 16 b0 0b 2a
        E 32 b0 0b 22
        E 32 80 30 00
        E 464 b0 0b 44
        E 0 90 38 44
        E 16 b0 0b 3b
        E 16 b0 0b 33
        E 16 b0 0b 2a
        E 32 b0 0b 22
        E 32 80 38 00
        E 32 b0 0b 44
        E 0 90 38 44
        E 16 b0 0b 3b
        E 16 b0 0b 33
        E 16 b0 0b 2a
        E 32 b0 0b 22
        E 32 80 38 00
        E 176 b0 0b 44
        E 0 90 38 44
        E 16 b0 0b 3b
        E 16 b0 0b 33
        E 16 b0 0b 2a
        E 32 b0 0b 22
        E 32 80 38 00
        E 176 b0 0b 44
        E 0 90 38 44
        E 16 b0 0b 3b
        E 16 b0 0b 33
        E 16 b0 0b 2a
        E 32 b0 0b 22
        E 32 80 38 00
        E 32 b0 0b 44
        E 0 90 3a 44
        E 16 b0 0b 3b
        E 16 b0 0b 33
        E 16 b0 0b 2a
        E 32 b0 0b 22
        E 32 80 3a 00
        E 32 b0 0b 44
        E 0 90 37 44
        E 16 b0 0b 3b
        E 16 b0 0b 33
        E 16 b0 0b 2a
        E 32 b0 0b 22
        E 32 80 37 00
        E 1184 b0 0b 44
        E 0 90 38 44
        E 16 b0 0b 3b
        E 16 b0 0b 33
        E 16 b0 0b 2a
        E 32 b0 0b 22
        E 32 80 38 00
        E 32 b0 0b 44
        E 0 90 38 44
        E 16 b0 0b 3b
        E 16 b0 0b 33
        E 16 b0 0b 2a
        E 32 b0 0b 22
        E 32 80 38 00
        E 176 b0 0b 44
        E 0 90 38 44
        E 16 b0 0b 3b
        E 16 b0 0b 33
        E 16 b0 0b 2a
        E 32 b0 0b 22
        E 32 80 38 00
        E 176 b0 0b 44
        E 0 90 38 44
        E 16 b0 0b 3b
        E 16 b0 0b 33
        E 16 b0 0b 2a
        E 32 b0 0b 22
        E 32 80 38 00
        E 32 b0 0b 44
        E 0 90 3a 44
        E 16 b0 0b 3b
        E 16 b0 0b 33
        E 16 b0 0b 2a
        E 32 b0 0b 22
        E 32 80 3a 00
        E 176 b0 0b 44
        E 0 90 37 44
        E 16 b0 0b 3b
        E 16 b0 0b 33
        E 16 b0 0b 2a
        E 32 b0 0b 22
        E 32 80 37 00
        E 32 b0 0b 44
        E 0 90 34 44
        E 16 b0 0b 3b
        E 16 b0 0b 33
        E 16 b0 0b 2a
        E 32 b0 0b 22
        E 32 80 34 00
        E 176 b0 0b 44
        E 0 90 34 44
        E 16 b0 0b 3b
        E 16 b0 0b 33
        E 16 b0 0b 2a
        E 32 b0 0b 22
        E 32 80 34 00
        E 32 b0 0b 44
        E 0 90 30 44
        E 16 b0 0b 3b
        E 16 b0 0b 33
        E 16 b0 0b 2a
        E 32 b0 0b 22
        E 32 80 30 00
        E 464 b0 0b 44
        E 0 90 36 44
        E 16 b0 0b 3b
        E 16 b0 0b 33
        E 16 b0 0b 2a
        E 32 b0 0b 22
        E 32 80 36 00
        E 32 b0 0b 44
        E 0 90 36 44
        E 16 b0 0b 3b
        E 16 b0 0b 33
        E 16 b0 0b 2a
        E 32 b0 0b 22
        E 32 80 36 00
        E 176 b0 0b 44
        E 0 90 36 44
        E 16 b0 0b 3b
        E 16 b0 0b 33
        E 16 b0 0b 2a
        E 32 b0 0b 22
        E 32 80 36 00
        E 176 b0 0b 44
        E 0 90 36 44
        E 16 b0 0b 3b
        E 16 b0 0b 33
        E 16 b0 0b 2a
        E 32 b0 0b 22
        E 32 80 36 00
        E 32 b0 0b 44
        E 0 90 36 44
        E 16 b0 0b 3b
        E 16 b0 0b 33
        E 16 b0 0b 2a
        E 32 b0 0b 22
        E 32 80 36 00
        E 176 b0 0b 44
        E 0 90 3b 44
        E 16 b0 0b 3b
        E 16 b0 0b 33
        E 16 b0 0b 2a
        E 32 b0 0b 22
        E 32 80 3b 00
        E 464 b0 0b 44
        E 0 90 37 44
        E 16 b0 0b 3b
        E 16 b0 0b 33
        E 16 b0 0b 2a
        E 32 b0 0b 22
        E 32 80 37 00
        E 464 b0 0b 44
        E 0 90 34 44
        E 16 b0 0b 3b
        E 16 b0 0b 33
        E 16 b0 0b 2a
        E 32 b0 0b 22
        E 32 80 34 00
        E 320 b0 0b 44
        E 0 90 30 44
        E 16 b0 0b 3b
        E 16 b0 0b 33
        E 16 b0 0b 2a
        E 32 b0 0b 22
        E 32 80 30 00
        E 320 b0 0b 44
        E 0 90 2b 44
        E 16 b0 0b 3b
        E 16 b0 0b 33
        E 16 b0 0b 2a
        E 32 b0 0b 22
        E 32 80 2b 00
        E 320 b0 0b 44
        E 0 90 30 44
        E 16 b0 0b 3b
        E 16 b0 0b 33
        E 16 b0 0b 2a
        E 32 b0 0b 22
        E 32 80 30 00
        E 176 b0 0b 44
        E 0 90 32 44
        E 16 b0 0b 3b
        E 16 b0 0b 33
        E 16 b0 0b 2a
        E 32 b0 0b 22
        E 32 80 32 00
        E 176 b0 0b 44
        E 0 90 31 44
        E 16 b0 0b 3b
        E 16 b0 0b 33
        E 16 b0 0b 2a
        E 32 b0 0b 22
        E 32 80 31 00
        E 32 b0 0b 44
        E 0 90 30 44
        E 16 b0 0b 3b
        E 16 b0 0b 33
        E 16 b0 0b 2a
        E 32 b0 0b 22
        E 32 80 30 00
        E 176 b0 0b 44
        E 0 90 30 44
        E 16 b0 0b 3b
        E 16 b0 0b 33
        E 16 b0 0b 2a
        E 32 b0 0b 22
        E 32 80 30 00
        E 80 b0 0b 44
        E 0 90 37 44
        E 16 b0 0b 3b
        E 16 b0 0b 33
        E 16 b0 0b 2a
        E 32 b0 0b 22
        E 32 80 37 00
        E 80 b0 0b 44
        E 0 90 3b 44
        E 16 b0 0b 3b
        E 16 b0 0b 33
        E 16 b0 0b 2a
        E 32 b0 0b 22
        E 32 80 3b 00
        E 80 b0 0b 44
        E 0 90 3c 44
        E 16 b0 0b 3b
        E 16 b0 0b 33
        E 16 b0 0b 2a
        E 32 b0 0b 22
        E 32 80 3c 00
        E 176 b0 0b 44
        E 0 90 39 44
        E 16 b0 0b 3b
        E 16 b0 0b 33
        E 16 b0 0b 2a
        E 32 b0 0b 22
        E 32 80 39 00
        E 32 b0 0b 44
        E 0 90 3b 44
        E 16 b0 0b 3b
        E 16 b0 0b 33
        E 16 b0 0b 2a
        E 32 b0 0b 22
        E 32 80 3b 00
        E 176 b0 0b 44
        E 0 90 39 44
        E 16 b0 0b 3b
        E 16 b0 0b 33
        E 16 b0 0b 2a
        E 32 b0 0b 22
        E 32 80 39 00
        E 176 b0 0b 44
        E 0 90 34 44
        E 16 b0 0b 3b
        E 16 b0 0b 33
        E 16 b0 0b 2a
        E 32 b0 0b 22
        E 32 80 34 00
        E 32 b0 0b 44
        E 0 90 35 44
        E 16 b0 0b 3b
        E 16 b0 0b 33
        E 16 b0 0b 2a
        E 32 b0 0b 22
        E 32 80 35 00
        E 32 b0 0b 44
        E 0 90 32 44
        E 16 b0 0b 3b
        E 16 b0 0b 33
        E 16 b0 0b 2a
        E 32 b0 0b 22
        E 32 80 32 00
        E 320 b0 0b 44
        E 0 90 34 44
        E 16 b0 0b 3b
        E 16 b0 0b 33
        E 16 b0 0b 2a
        E 32 b0 0b 22
        E 32 80 34 00
        E 320 b0 0b 44
        E 0 90 30 44
        E 16 b0 0b 3b
        E 16 b0 0b 33
        E 16 b0 0b 2a
        E 32 b0 0b 22
        E 32 80 30 00
        E 320 b0 0b 44
        E 0 90 2b 44
        E 16 b0 0b 3b
        E 16 b0 0b 33
        E 16 b0 0b 2a
        E 32 b0 0b 22
        E 32 80 2b 00
        E 320 b0 0b 44
        E 0 90 30 44
        E 16 b0 0b 3b
        E 16 b0 0b 33
        E 16 b0 0b 2a
        E 32 b0 0b 22
        E 32 80 30 00
        E 176 b0 0b 44
        E 0 90 32 44
        E 16 b0 0b 3b
        E 16 b0 0b 33
        E 16 b0 0b 2a
        E 32 b0 0b 22
        E 32 80 32 00
        E 176 b0 0b 44
        E 0 90 31 44
        E 16 b0 0b 3b
        E 16 b0 0b 33
        E 16 b0 0b 2a
        E 32 b0 0b 22
        E 32 80 31 00
        E 32 b0 0b 44
        E 0 90 30 44
        E 16 b0 0b 3b
        E 16 b0 0b 33
        E 16 b0 0b 2a
        E 32 b0 0b 22
        E 32 80 30 00
        E 176 b0 0b 44
        E 0 90 30 44
        E 16 b0 0b 3b
        E 16 b0 0b 33
        E 16 b0 0b 2a
        E 32 b0 0b 22
        E 32 80 30 00
        E 80 b0 0b 44
        E 0 90 37 44
        E 16 b0 0b 3b
        E 16 b0 0b 33
        E 16 b0 0b 2a
        E 32 b0 0b 22
        E 32 80 37 00
        E 80 b0 0b 44
        E 0 90 3b 44
        E 16 b0 0b 3b
        E 16 b0 0b 33
        E 16 b0 0b 2a
        E 32 b0 0b 22
        E 32 80 3b 00
        E 80 b0 0b 44
        E 0 90 3c 44
        E 16 b0 0b 3b
        E 16 b0 0b 33
        E 16 b0 0b 2a
        E 32 b0 0b 22
        E 32 80 3c 00
        E 176 b0 0b 44
        E 0 90 39 44
        E 16 b0 0b 3b
        E 16 b0 0b 33
        E 16 b0 0b 2a
        E 32 b0 0b 22
        E 32 80 39 00
        E 32 b0 0b 44
        E 0 90 3b 44
        E 16 b0 0b 3b
        E 16 b0 0b 33
        E 16 b0 0b 2a
        E 32 b0 0b 22
        E 32 80 3b 00
        E 176 b0 0b 44
        E 0 90 39 44
        E 16 b0 0b 3b
        E 16 b0 0b 33
        E 16 b0 0b 2a
        E 32 b0 0b 22
        E 32 80 39 00
        E 176 b0 0b 44
        E 0 90 34 44
        E 16 b0 0b 3b
        E 16 b0 0b 33
        E 16 b0 0b 2a
        E 32 b0 0b 22
        E 32 80 34 00
        E 32 b0 0b 44
        E 0 90 35 44
        E 16 b0 0b 3b
        E 16 b0 0b 33
        E 16 b0 0b 2a
        E 32 b0 0b 22
        E 32 80 35 00
        E 32 b0 0b 44
        E 0 90 32 44
        E 16 b0 0b 3b
        E 16 b0 0b 33
        E 16 b0 0b 2a
        E 32 b0 0b 22
        E 32 80 32 00
        E 320 b0 0b 44
        E 0 90 3c 44
        E 16 b0 0b 3b
        E 16 b0 0b 33
        E 16 b0 0b 2a
        E 32 b0 0b 22
        E 32 80 3c 00
        E 32 b0 0b 44
        E 0 90 39 44
        E 16 b0 0b 3b
        E 16 b0 0b 33
        E 16 b0 0b 2a
        E 32 b0 0b 22
        E 32 80 39 00
        E 176 b0 0b 44
        E 0 90 34 44
        E 16 b0 0b 3b
        E 16 b0 0b 33
        E 16 b0 0b 2a
        E 32 b0 0b 22
        E 32 80 34 00
        E 320 b0 0b 44
        E 0 90 34 44
        E 16 b0 0b 3b
        E 16 b0 0b 33
        E 16 b0 0b 2a
        E 32 b0 0b 22
        E 32 80 34 00
        E 176 b0 0b 44
        E 0 90 35 44
        E 16 b0 0b 3b
        E 16 b0 0b 33
        E 16 b0 0b 2a
        E 32 b0 0b 22
        E 32 80 35 00
        E 32 b0 0b 44
        E 0 90 3c 44
        E 16 b0 0b 3b
        E 16 b0 0b 33
        E 16 b0 0b 2a
        E 32 b0 0b 22
        E 32 80 3c 00
        E 176 b0 0b 44
        E 0 90 3c 44
        E 16 b0 0b 3b
        E 16 b0 0b 33
        E 16 b0 0b 2a
        E 32 b0 0b 22
        E 32 80 3c 00
        E 32 b0 0b 44
        E 0 90 35 44
        E 16 b0 0b 3b
        E 16 b0 0b 33
        E 16 b0 0b 2a
        E 32 b0 0b 22
        E 32 80 35 00
        E 464 b0 0b 44
        E 0 90 37 44
        E 16 b0 0b 3b
        E 16 b0 0b 33
        E 16 b0 0b 2a
        E 32 b0 0b 22
        E 32 80 37 00
        E 80 b0 0b 44
        E 0 90 41 44
        E 16 b0 0b 3b
        E 16 b0 0b 33
        E 16 b0 0b 2a
        E 32 b0 0b 22
        E 32 80 41 00
        E 80 b0 0b 44
        E 0 90 41 44
        E 16 b0 0b 3b
        E 16 b0 0b 33
        E 16 b0 0b 2a
        E 32 b0 0b 22
        E 32 80 41 00
        E 80 b0 0b 44
        E 0 90 41 44
        E 16 b0 0b 3b
        E 16 b0 0b 33
        E 16 b0 0b 2a
        E 32 b0 0b 22
        E 32 80 41 00
        E 80 b0 0b 44
        E 0 90 40 44
        E 16 b0 0b 3b
        E 16 b0 0b 33
        E 16 b0 0b 2a
        E 32 b0 0b 22
        E 32 80 40 00
        E 80 b0 0b 44
        E 0 90 3e 44
        E 16 b0 0b 3b
        E 16 b0 0b 33
        E 16 b0 0b 2a
        E 32 b0 0b 22
        E 32 80 3e 00
        E 80 b0 0b 44
        E 0 90 3c 44
        E 16 b0 0b 3b
        E 16 b0 0b 33
        E 16 b0 0b 2a
        E 32 b0 0b 22
        E 32 80 3c 00
        E 32 b0 0b 44
        E 0 90 39 44
        E 16 b0 0b 3b
        E 16 b0 0b 33
        E 16 b0 0b 2a
        E 32 b0 0b 22
        E 32 80 39 00
        E 176 b0 0b 44
        E 0 90 35 44
        E 16 b0 0b 3b
        E 16 b0 0b 33
        E 16 b0 0b 2a
        E 32 b0 0b 22
        E 32 80 35 00
        E 32 b0 0b 44
        E 0 90 34 44
        E 16 b0 0b 3b
        E 16 b0 0b 33
        E 16 b0 0b 2a
        E 32 b0 0b 22
        E 32 80 34 00
        E 464 b0 0b 44
        E 0 90 3c 44
        E 16 b0 0b 3b
        E 16 b0 0b 33
        E 16 b0 0b 2a
        E 32 b0 0b 22
        E 32 80 3c 00
        E 32 b0 0b 44
        E 0 90 39 44
        E 16 b0 0b 3b
        E 16 b0 0b 33
        E 16 b0 0b 2a
        E 32 b0 0b 22
        E 32 80 39 00
        E 176 b0 0b 44
        E 0 90 34 44
        E 16 b0 0b 3b
        E 16 b0 0b 33
        E 16 b0 0b 2a
        E 32 b0 0b 22
        E 32 80 34 00
        E 320 b0 0b 44
        E 0 90 34 44
        E 16 b0 0b 3b
        E 16 b0 0b 33
        E 16 b0 0b 2a
        E 32 b0 0b 22
        E 32 80 34 00
        E 176 b0 0b 44
        E 0 90 35 44
        E 16 b0 0b 3b
        E 16 b0 0b 33
        E 16 b0 0b 2a
        E 32 b0 0b 22
        E 32 80 35 00
        E 32 b0 0b 44
        E 0 90 3c 44
        E 16 b0 0b 3b
        E 16 b0 0b 33
        E 16 b0 0b 2a
        E 32 b0 0b 22
        E 32 80 3c 00
        E 176 b0 0b 44
        E 0 90 3c 44
        E 16 b0 0b 3b
        E 16 b0 0b 33
        E 16 b0 0b 2a
        E 32 b0 0b 22
        E 32 80 3c 00
        E 32 b0 0b 44
        E 0 90 35 44
        E 16 b0 0b 3b
        E 16 b0 0b 33
        E 16 b0 0b 2a
        E 32 b0 0b 22
        E 32 80 35 00
        E 464 b0 0b 44
        E 0 90 37 44
        E 16 b0 0b 3b
        E 16 b0 0b 33
        E 16 b0 0b 2a
        E 32 b0 0b 22
        E 32 80 37 00
        E 32 b0 0b 44
        E 0 90 3e 44
        E 16 b0 0b 3b
        E 16 b0 0b 33
        E 16 b0 0b 2a
        E 32 b0 0b 22
        E 32 80 3e 00
        E 176 b0 0b 44
        E 0 90 3e 44
        E 16 b0 0b 3b
        E 16 b0 0b 33
        E 16 b0 0b 2a
        E 32 b0 0b 22
        E 32 80 3e 00
        E 32 b0 0b 44
        E 0 90 3e 44
        E 16 b0 0b 3b
        E 16 b0 0b 33
        E 16 b0 0b 2a
        E 32 b0 0b 22
        E 32 80 3e 00
        E 80 b0 0b 44
        E 0 90 3c 44
        E 16 b0 0b 3b
        E 16 b0 0b 33
        E 16 b0 0b 2a
        E 32 b0 0b 22
        E 32 80 3c 00
        E 80 b0 0b 44
        E 0 90 3b 44
        E 16 b0 0b 3b
        E 16 b0 0b 33
        E 16 b0 0b 2a
        E 32 b0 0b 22
        E 32 80 3b 00
        E 80 b0 0b 44
        E 0 90 37 44
        E 16 b0 0b 3b
        E 16 b0 0b 33
        E 16 b0 0b 2a
        E 32 b0 0b 22
        E 32 80 37 00
        E 32 b0 0b 44
        E 0 90 34 44
        E 16 b0 0b 3b
        E 16 b0 0b 33
        E 16 b0 0b 2a
        E 32 b0 0b 22
        E 32 80 34 00
        E 176 b0 0b 44
        E 0 90 34 44
        E 16 b0 0b 3b
        E 16 b0 0b 33
        E 16 b0 0b 2a
        E 32 b0 0b 22
        E 32 80 34 00
        E 32 b0 0b 44
        E 0 90 30 44
        E 16 b0 0b 3b
        E 16 b0 0b 33
        E 16 b0 0b 2a
        E 32 b0 0b 22
        E 32 80 30 00
        E 464 b0 0b 44
        E 0 90 3c 44
        E 16 b0 0b 3b
        E 16 b0 0b 33
        E 16 b0 0b 2a
        E 32 b0 0b 22
        E 32 80 3c 00
        E 32 b0 0b 44
        E 0 90 39 44
        E 16 b0 0b 3b
        E 16 b0 0b 33
        E 16 b0 0b 2a
        E 32 b0 0b 22
        E 32 80 39 00
        E 176 b0 0b 44
        E 0 90 34 44
        E 16 b0 0b 3b
        E 16 b0 0b 33
        E 16 b0 0b 2a
        E 32 b0 0b 22
        E 32 80 34 00
        E 320 b0 0b 44
        E 0 90 34 44
        E 16 b0 0b 3b
        E 16 b0 0b 33
        E 16 b0 0b 2a
        E 32 b0 0b 22
        E 32 80 34 00
        E 176 b0 0b 44
        E 0 90 35 44
        E 16 b0 0b 3b
        E 16 b0 0b 33
        E 16 b0 0b 2a
        E 32 b0 0b 22
        E 32 80 35 00
        E 32 b0 0b 44
        E 0 90 3c 44
        E 16 b0 0b 3b
        E 16 b0 0b 33
        E 16 b0 0b 2a
        E 32 b0 0b 22
        E 32 80 3c 00
        E 176 b0 0b 44
        E 0 90 3c 44
        E 16 b0 0b 3b
        E 16 b0 0b 33
        E 16 b0 0b 2a
        E 32 b0 0b 22
        E 32 80 3c 00
        E 32 b0 0b 44
        E 0 90 35 44
        E 16 b0 0b 3b
        E 16 b0 0b 33
        E 16 b0 0b 2a
        E 32 b0 0b 22
        E 32 80 35 00
        E 464 b0 0b 44
        E 0 90 37 44
        E 16 b0 0b 3b
        E 16 b0 0b 33
        E 16 b0 0b 2a
        E 32 b0 0b 22
        E 32 80 37 00
        E 80 b0 0b 44
        E 0 90 41 44
        E 16 b0 0b 3b
        E 16 b0 0b 33
        E 16 b0 0b 2a
        E 32 b0 0b 22
        E 32 80 41 00
        E 80 b0 0b 44
        E 0 90 41 44
        E 16 b0 0b 3b
        E 16 b0 0b 33
        E 16 b0 0b 2a
        E 32 b0 0b 22
        E 32 80 41 00
        E 80 b0 0b 44
        E 0 90 41 44
        E 16 b0 0b 3b
        E 16 b0 0b 33
        E 16 b0 0b 2a
        E 32 b0 0b 22
        E 32 80 41 00
        E 80 b0 0b 44
        E 0 90 40 44
        E 16 b0 0b 3b
        E 16 b0 0b 33
        E 16 b0 0b 2a
        E 32 b0 0b 22
        E 32 80 40 00
        E 80 b0 0b 44
        E 0 90 3e 44
        E 16 b0 0b 3b
        E 16 b0 0b 33
        E 16 b0 0b 2a
        E 32 b0 0b 22
        E 32 80 3e 00
        E 80 b0 0b 44
        E 0 90 3c 44
        E 16 b0 0b 3b
        E 16 b0 0b 33
        E 16 b0 0b 2a
        E 32 b0 0b 22
        E 32 80 3c 00
        E 32 b0 0b 44
        E 0 90 39 44
        E 16 b0 0b 3b
        E 16 b0 0b 33
        E 16 b0 0b 2a
        E 32 b0 0b 22
        E 32 80 39 00
        E 176 b0 0b 44
        E 0 90 35 44
        E 16 b0 0b 3b
        E 16 b0 0b 33
        E 16 b0 0b 2a
        E 32 b0 0b 22
        E 32 80 35 00
        E 32 b0 0b 44
        E 0 90 34 44
        E 16 b0 0b 3b
        E 16 b0 0b 33
        E 16 b0 0b 2a
        E 32 b0 0b 22
        E 32 80 34 00
        E 464 b0 0b 44
        E 0 90 3c 44
        E 16 b0 0b 3b
        E 16 b0 0b 33
        E 16 b0 0b 2a
        E 32 b0 0b 22
        E 32 80 3c 00
        E 32 b0 0b 44
        E 0 90 39 44
        E 16 b0 0b 3b
        E 16 b0 0b 33
        E 16 b0 0b 2a
        E 32 b0 0b 22
        E 32 80 39 00
        E 176 b0 0b 44
        E 0 90 34 44
        E 16 b0 0b 3b
        E 16 b0 0b 33
        E 16 b0 0b 2a
        E 32 b0 0b 22
        E 32 80 34 00
        E 320 b0 0b 44
        E 0 90 34 44
        E 16 b0 0b 3b
        E 16 b0 0b 33
        E 16 b0 0b 2a
        E 32 b0 0b 22
        E 32 80 34 00
        E 176 b0 0b 44
        E 0 90 35 44
        E 16 b0 0b 3b
        E 16 b0 0b 33
        E 16 b0 0b 2a
        E 32 b0 0b 22
        E 32 80 35 00
        E 32 b0 0b 44
        E 0 90 3c 44
        E 16 b0 0b 3b
        E 16 b0 0b 33
        E 16 b0 0b 2a
        E 32 b0 0b 22
        E 32 80 3c 00
        E 176 b0 0b 44
        E 0 90 3c 44
        E 16 b0 0b 3b
        E 16 b0 0b 33
        E 16 b0 0b 2a
        E 32 b0 0b 22
        E 32 80 3c 00
        E 32 b0 0b 44
        E 0 90 35 44
        E 16 b0 0b 3b
        E 16 b0 0b 33
        E 16 b0 0b 2a
        E 32 b0 0b 22
        E 32 80 35 00
        E 464 b0 0b 44
        E 0 90 37 44
        E 16 b0 0b 3b
        E 16 b0 0b 33
        E 16 b0 0b 2a
        E 32 b0 0b 22
        E 32 80 37 00
        E 32 b0 0b 44
        E 0 90 3e 44
        E 16 b0 0b 3b
        E 16 b0 0b 33
        E 16 b0 0b 2a
        E 32 b0 0b 22
        E 32 80 3e 00
        E 176 b0 0b 44
        E 0 90 3e 44
        E 16 b0 0b 3b
        E 16 b0 0b 33
        E 16 b0 0b 2a
        E 32 b0 0b 22
        E 32 80 3e 00
        E 32 b0 0b 44
        E 0 90 3e 44
        E 16 b0 0b 3b
        E 16 b0 0b 33
        E 16 b0 0b 2a
        E 32 b0 0b 22
        E 32 80 3e 00
        E 80 b0 0b 44
        E 0 90 3c 44
        E 16 b0 0b 3b
        E 16 b0 0b 33
        E 16 b0 0b 2a
        E 32 b0 0b 22
        E 32 80 3c 00
        E 80 b0 0b 44
        E 0 90 3b 44
        E 16 b0 0b 3b
        E 16 b0 0b 33
        E 16 b0 0b 2a
        E 32 b0 0b 22
        E 32 80 3b 00
        E 80 b0 0b 44
        E 0 90 37 44
        E 16 b0 0b 3b
        E 16 b0 0b 33
        E 16 b0 0b 2a
        E 32 b0 0b 22
        E 32 80 37 00
        E 32 b0 0b 44
        E 0 90 34 44
        E 16 b0 0b 3b
        E 16 b0 0b 33
        E 16 b0 0b 2a
        E 32 b0 0b 22
        E 32 80 34 00
        E 176 b0 0b 44
        E 0 90 34 44
        E 16 b0 0b 3b
        E 16 b0 0b 33
        E 16 b0 0b 2a
        E 32 b0 0b 22
        E 32 80 34 00
        E 32 b0 0b 44
        E 0 90 30 44
        E 16 b0 0b 3b
        E 16 b0 0b 33
        E 16 b0 0b 2a
        E 32 b0 0b 22
        E 32 80 30 00
        E 464 b0 0b 44
        E 0 90 38 44
        E 16 b0 0b 3b
        E 16 b0 0b 33
        E 16 b0 0b 2a
        E 32 b0 0b 22
        E 32 80 38 00
        E 32 b0 0b 44
        E 0 90 38 44
        E 16 b0 0b 3b
        E 16 b0 0b 33
        E 16 b0 0b 2a
        E 32 b0 0b 22
        E 32 80 38 00
        E 176 b0 0b 44
        E 0 90 38 44
        E 16 b0 0b 3b
        E 16 b0 0b 33
        E 16 b0 0b 2a
        E 32 b0 0b 22
        E 32 80 38 00
        E 176 b0 0b 44
        E 0 90 38 44
        E 16 b0 0b 3b
        E 16 b0 0b 33
        E 16 b0 0b 2a
        E 32 b0 0b 22
        E 32 80 38 00
        E 32 b0 0b 44
        E 0 90 3a 44
        E 16 b0 0b 3b
        E 16 b0 0b 33
        E 16 b0 0b 2a
        E 32 b0 0b 22
        E 32 80 3a 00
        E 176 b0 0b 44
        E 0 90 37 44
        E 16 b0 0b 3b
        E 16 b0 0b 33
        E 16 b0 0b 2a
        E 32 b0 0b 22
        E 32 80 37 00
        E 32 b0 0b 44
        E 0 90 34 44
        E 16 b0 0b 3b
        E 16 b0 0b 33
        E 16 b0 0b 2a
        E 32 b0 0b 22
        E 32 80 34 00
        E 176 b0 0b 44
        E 0 90 34 44
        E 16 b0 0b 3b
        E 16 b0 0b 33
        E 16 b0 0b 2a
        E 32 b0 0b 22
        E 32 80 34 00
        E 32 b0 0b 44
        E 0 90 30 44
        E 16 b0 0b 3b
        E 16 b0 0b 33
        E 16 b0 0b 2a
        E 32 b0 0b 22
        E 32 80 30 00
        E 464 b0 0b 44
        E 0 90 38 44
        E 16 b0 0b 3b
        E 16 b0 0b 33
        E 16 b0 0b 2a
        E 32 b0 0b 22
        E 32 80 38 00
        E 32 b0 0b 44
        E 0 90 38 44
        E 16 b0 0b 3b
        E 16 b0 0b 33
        E 16 b0 0b 2a
        E 32 b0 0b 22
        E 32 80 38 00
        E 176 b0 0b 44
        E 0 90 38 44
        E 16 b0 0b 3b
        E 16 b0 0b 33
        E 16 b0 0b 2a
        E 32 b0 0b 22
        E 32 80 38 00
        E 176 b0 0b 44
        E 0 90 38 44
        E 16 b0 0b 3b
        E 16 b0 0b 33
        E 16 b0 0b 2a
        E 32 b0 0b 22
        E 32 80 38 00
        E 32 b0 0b 44
        E 0 90 3a 44
        E 16 b0 0b 3b
        E 16 b0 0b 33
        E 16 b0 0b 2a
        E 32 b0 0b 22
        E 32 80 3a 00
        E 32 b0 0b 44
        E 0 90 37 44
        E 16 b0 0b 3b
        E 16 b0 0b 33
        E 16 b0 0b 2a
        E 32 b0 0b 22
        E 32 80 37 00
        E 1184 b0 0b 44
        E 0 90 38 44
        E 16 b0 0b 3b
        E 16 b0 0b 33
        E 16 b0 0b 2a
        E 32 b0 0b 22
        E 32 80 38 00
        E 32 b0 0b 44
        E 0 90 38 44
        E 16 b0 0b 3b
        E 16 b0 0b 33
        E 16 b0 0b 2a
        E 32 b0 0b 22
        E 32 80 38 00
        E 176 b0 0b 44
        E 0 90 38 44
        E 16 b0 0b 3b
        E 16 b0 0b 33
        E 16 b0 0b 2a
        E 32 b0 0b 22
        E 32 80 38 00
        E 176 b0 0b 44
        E 0 90 38 44
        E 16 b0 0b 3b
        E 16 b0 0b 33
        E 16 b0 0b 2a
        E 32 b0 0b 22
        E 32 80 38 00
        E 32 b0 0b 44
        E 0 90 3a 44
        E 16 b0 0b 3b
        E 16 b0 0b 33
        E 16 b0 0b 2a
        E 32 b0 0b 22
        E 32 80 3a 00
        E 176 b0 0b 44
        E 0 90 37 44
        E 16 b0 0b 3b
        E 16 b0 0b 33
        E 16 b0 0b 2a
        E 32 b0 0b 22
        E 32 80 37 00
        E 32 b0 0b 44
        E 0 90 34 44
        E 16 b0 0b 3b
        E 16 b0 0b 33
        E 16 b0 0b 2a
        E 32 b0 0b 22
        E 32 80 34 00
        E 176 b0 0b 44
        E 0 90 34 44
        E 16 b0 0b 3b
        E 16 b0 0b 33
        E 16 b0 0b 2a
        E 32 b0 0b 22
        E 32 80 34 00
        E 32 b0 0b 44
        E 0 90 30 44
        E 16 b0 0b 3b
        E 16 b0 0b 33
        E 16 b0 0b 2a
        E 32 b0 0b 22
        E 32 80 30 00
        E 464 b0 0b 44
        E 0 90 36 44
        E 16 b0 0b 3b
        E 16 b0 0b 33
        E 16 b0 0b 2a
        E 32 b0 0b 22
        E 32 80 36 00
        E 32 b0 0b 44
        E 0 90 36 44
        E 16 b0 0b 3b
        E 16 b0 0b 33
        E 16 b0 0b 2a
        E 32 b0 0b 22
        E 32 80 36 00
        E 176 b0 0b 44
        E 0 90 36 44
        E 16 b0 0b 3b
        E 16 b0 0b 33
        E 16 b0 0b 2a
        E 32 b0 0b 22
        E 32 80 36 00
        E 176 b0 0b 44
        E 0 90 36 44
        E 16 b0 0b 3b
        E 16 b0 0b 33
        E 16 b0 0b 2a
        E 32 b0 0b 22
        E 32 80 36 00
        E 32 b0 0b 44
        E 0 90 36 44
        E 16 b0 0b 3b
        E 16 b0 0b 33
        E 16 b0 0b 2a
        E 32 b0 0b 22
        E 32 80 36 00
        E 176 b0 0b 44
        E 0 90 3b 44
        E 16 b0 0b 3b
        E 16 b0 0b 33
        E 16 b0 0b 2a
        E 32 b0 0b 22
        E 32 80 3b 00
        E 464 b0 0b 44
        E 0 90 37 44
        E 16 b0 0b 3b
        E 16 b0 0b 33
        E 16 b0 0b 2a
        E 32 b0 0b 22
        E 32 80 37 00
        E 464 b0 0b 44
        E 0 90 3c 44
        E 16 b0 0b 3b
        E 16 b0 0b 33
        E 16 b0 0b 2a
        E 32 b0 0b 22
        E 32 80 3c 00
        E 32 b0 0b 44
        E 0 90 39 44
        E 16 b0 0b 3b
        E 16 b0 0b 33
        E 16 b0 0b 2a
        E 32 b0 0b 22
        E 32 80 39 00
        E 176 b0 0b 44
        E 0 90 34 44
        E 16 b0 0b 3b
        E 16 b0 0b 33
        E 16 b0 0b 2a
        E 32 b0 0b 22
        E 32 80 34 00
        E 320 b0 0b 44
        E 0 90 34 44
        E 16 b0 0b 3b
        E 16 b0 0b 33
        E 16 b0 0b 2a
        E 32 b0 0b 22
        E 32 80 34 00
        E 176 b0 0b 44
        E 0 90 35 44
        E 16 b0 0b 3b
        E 16 b0 0b 33
        E 16 b0 0b 2a
        E 32 b0 0b 22
        E 32 80 35 00
        E 32 b0 0b 44
        E 0 90 3c 44
        E 16 b0 0b 3b
        E 16 b0 0b 33
        E 16 b0 0b 2a
        E 32 b0 0b 22
        E 32 80 3c 00
        E 176 b0 0b 44
        E 0 90 3c 44
        E 16 b0 0b 3b
        E 16 b0 0b 33
        E 16 b0 0b 2a
        E 32 b0 0b 22
        E 32 80 3c 00
        E 32 b0 0b 44
        E 0 90 35 44
        E 16 b0 0b 3b
        E 16 b0 0b 33
        E 16 b0 0b 2a
        E 32 b0 0b 22
        E 32 80 35 00
        E 464 b0 0b 44
        E 0 90 37 44
        E 16 b0 0b 3b
        E 16 b0 0b 33
        E 16 b0 0b 2a
        E 32 b0 0b 22
        E 32 80 37 00
        E 80 b0 0b 44
        E 0 90 41 44
        E 16 b0 0b 3b
        E 16 b0 0b 33
        E 16 b0 0b 2a
        E 32 b0 0b 22
        E 32 80 41 00
        E 80 b0 0b 44
        E 0 90 41 44
        E 16 b0 0b 3b
        E 16 b0 0b 33
        E 16 b0 0b 2a
        E 32 b0 0b 22
        E 32 80 41 00
        E 80 b0 0b 44
        E 0 90 41 44
        E 16 b0 0b 3b
        E 16 b0 0b 33
        E 16 b0 0b 2a
        E 32 b0 0b 22
        E 32 80 41 00
        E 80 b0 0b 44
        E 0 90 40 44
        E 16 b0 0b 3b
        E 16 b0 0b 33
        E 16 b0 0b 2a
        E 32 b0 0b 22
        E 32 80 40 00
        E 80 b0 0b 44
        E 0 90 3e 44
        E 16 b0 0b 3b
        E 16 b0 0b 33
        E 16 b0 0b 2a
        E 32 b0 0b 22
        E 32 80 3e 00
        E 80 b0 0b 44
        E 0 90 3c 44
        E 16 b0 0b 3b
        E 16 b0 0b 33
        E 16 b0 0b 2a
        E 32 b0 0b 22
        E 32 80 3c 00
        E 32 b0 0b 44
        E 0 90 39 44
        E 16 b0 0b 3b
        E 16 b0 0b 33
        E 16 b0 0b 2a
        E 32 b0 0b 22
        E 32 80 39 00
        E 176 b0 0b 44
        E 0 90 35 44
        E 16 b0 0b 3b
        E 16 b0 0b 33
        E 16 b0 0b 2a
        E 32 b0 0b 22
        E 32 80 35 00
        E 32 b0 0b 44
        E 0 90 34 44
        E 16 b0 0b 3b
        E 16 b0 0b 33
        E 16 b0 0b 2a
        E 32 b0 0b 22
        E 32 80 34 00
        E 464 b0 0b 44
        E 0 90 3c 44
        E 16 b0 0b 3b
        E 16 b0 0b 33
        E 16 b0 0b 2a
        E 32 b0 0b 22
        E 32 80 3c 00
        E 32 b0 0b 44
        E 0 90 39 44
        E 16 b0 0b 3b
        E 16 b0 0b 33
        E 16 b0 0b 2a
        E 32 b0 0b 22
        E 32 80 39 00
        E 176 b0 0b 44
        E 0 90 34 44
        E 16 b0 0b 3b
        E 16 b0 0b 33
        E 16 b0 0b 2a
        E 32 b0 0b 22
        E 32 80 34 00
        E 320 b0 0b 44
        E 0 90 34 44
        E 16 b0 0b 3b
        E 16 b0 0b 33
        E 16 b0 0b 2a
        E 32 b0 0b 22
        E 32 80 34 00
        E 176 b0 0b 44
        E 0 90 35 44
        E 16 b0 0b 3b
        E 16 b0 0b 33
        E 16 b0 0b 2a
        E 32 b0 0b 22
        E 32 80 35 00
        E 32 b0 0b 44
        E 0 90 3c 44
        E 16 b0 0b 3b
        E 16 b0 0b 33
        E 16 b0 0b 2a
        E 32 b0 0b 22
        E 32 80 3c 00
        E 176 b0 0b 44
        E 0 90 3c 44
        E 16 b0 0b 3b
        E 16 b0 0b 33
        E 16 b0 0b 2a
        E 32 b0 0b 22
        E 32 80 3c 00
        E 32 b0 0b 44
        E 0 90 35 44
        E 16 b0 0b 3b
        E 16 b0 0b 33
        E 16 b0 0b 2a
        E 32 b0 0b 22
        E 32 80 35 00
        E 464 b0 0b 44
        E 0 90 37 44
        E 16 b0 0b 3b
        E 16 b0 0b 33
        E 16 b0 0b 2a
        E 32 b0 0b 22
        E 32 80 37 00
        E 32 b0 0b 44
        E 0 90 3e 44
        E 16 b0 0b 3b
        E 16 b0 0b 33
        E 16 b0 0b 2a
        E 32 b0 0b 22
        E 32 80 3e 00
        E 176 b0 0b 44
        E 0 90 3e 44
        E 16 b0 0b 3b
        E 16 b0 0b 33
        E 16 b0 0b 2a
        E 32 b0 0b 22
        E 32 80 3e 00
        E 32 b0 0b 44
        E 0 90 3e 44
        E 16 b0 0b 3b
        E 16 b0 0b 33
        E 16 b0 0b 2a
        E 32 b0 0b 22
        E 32 80 3e 00
        E 80 b0 0b 44
        E 0 90 3c 44
        E 16 b0 0b 3b
        E 16 b0 0b 33
        E 16 b0 0b 2a
        E 32 b0 0b 22
        E 32 80 3c 00
        E 80 b0 0b 44
        E 0 90 3b 44
        E 16 b0 0b 3b
        E 16 b0 0b 33
        E 16 b0 0b 2a
        E 32 b0 0b 22
        E 32 80 3b 00
        E 80 b0 0b 44
        E 0 90 37 44
        E 16 b0 0b 3b
        E 16 b0 0b 33
        E 16 b0 0b 2a
        E 32 b0 0b 22
        E 32 80 37 00
        E 32 b0 0b 44
        E 0 90 34 44
        E 16 b0 0b 3b
        E 16 b0 0b 33
        E 16 b0 0b 2a
        E 32 b0 0b 22
        E 32 80 34 00
        E 176 b0 0b 44
        E 0 90 34 44
        E 16 b0 0b 3b
        E 16 b0 0b 33
        E 16 b0 0b 2a
        E 32 b0 0b 22
        E 32 80 34 00
        E 32 b0 0b 44
        E 0 90 30 44
        E 16 b0 0b 3b
        E 16 b0 0b 33
        E 16 b0 0b 2a
        E 32 b0 0b 22
        E 32 80 30 00
        E 464 b0 0b 44
        E 0 90 34 44
        E 16 b0 0b 3b
        E 16 b0 0b 33
        E 16 b0 0b 2a
        E 32 b0 0b 22
        E 32 80 34 00
        E 320 b0 0b 44
        E 0 90 30 44
        E 16 b0 0b 3b
        E 16 b0 0b 33
        E 16 b0 0b 2a
        E 32 b0 0b 22
        E 32 80 30 00
        E 320 b0 0b 44
        E 0 90 2b 44
        E 16 b0 0b 3b
        E 16 b0 0b 33
        E 16 b0 0b 2a
        E 32 b0 0b 22
        E 32 80 2b 00
        E 320 b0 0b 44
        E 0 90 30 44
        E 16 b0 0b 3b
        E 16 b0 0b 33
        E 16 b0 0b 2a
        E 32 b0 0b 22
        E 32 80 30 00
        E 176 b0 0b 44
        E 0 90 32 44
        E 16 b0 0b 3b
        E 16 b0 0b 33
        E 16 b0 0b 2a
        E 32 b0 0b 22
        E 32 80 32 00
        E 176 b0 0b 44
        E 0 90 31 44
        E 16 b0 0b 3b
        E 16 b0 0b 33
        E 16 b0 0b 2a
        E 32 b0 0b 22
        E 32 80 31 00
        E 32 b0 0b 44
        E 0 90 30 44
        E 16 b0 0b 3b
        E 16 b0 0b 33
        E 16 b0 0b 2a
        E 32 b0 0b 22
        E 32 80 30 00
        E 176 b0 0b 44
        E 0 90 30 44
        E 16 b0 0b 3b
        E 16 b0 0b 33
        E 16 b0 0b 2a
        E 32 b0 0b 22
        E 32 80 30 00
        E 80 b0 0b 44
        E 0 90 37 44
        E 16 b0 0b 3b
        E 16 b0 0b 33
        E 16 b0 0b 2a
        E 32 b0 0b 22
        E 32 80 37 00
        E 80 b0 0b 44
        E 0 90 3b 44
        E 16 b0 0b 3b
        E 16 b0 0b 33
        E 16 b0 0b 2a
        E 32 b0 0b 22
        E 32 80 3b 00
        E 80 b0 0b 44
        E 0 90 3c 44
        E 16 b0 0b 3b
        E 16 b0 0b 33
        E 16 b0 0b 2a
        E 32 b0 0b 22
        E 32 80 3c 00
        E 176 b0 0b 44
        E 0 90 39 44
        E 16 b0 0b 3b
        E 16 b0 0b 33
        E 16 b0 0b 2a
        E 32 b0 0b 22
        E 32 80 39 00
        E 32 b0 0b 44
        E 0 90 3b 44
        E 16 b0 0b 3b
        E 16 b0 0b 33
        E 16 b0 0b 2a
        E 32 b0 0b 22
        E 32 80 3b 00
        E 176 b0 0b 44
        E 0 90 39 44
        E 16 b0 0b 3b
        E 16 b0 0b 33
        E 16 b0 0b 2a
        E 32 b0 0b 22
        E 32 80 39 00
        E 176 b0 0b 44
        E 0 90 34 44
        E 16 b0 0b 3b
        E 16 b0 0b 33
        E 16 b0 0b 2a
        E 32 b0 0b 22
        E 32 80 34 00
        E 32 b0 0b 44
        E 0 90 35 44
        E 16 b0 0b 3b
        E 16 b0 0b 33
        E 16 b0 0b 2a
        E 32 b0 0b 22
        E 32 80 35 00
        E 32 b0 0b 44
        E 0 90 32 44
        E 16 b0 0b 3b
        E 16 b0 0b 33
        E 16 b0 0b 2a
        E 32 b0 0b 22
        E 32 80 32 00
        E 320 b0 0b 44
        E 0 90 34 44
        E 16 b0 0b 3b
        E 16 b0 0b 33
        E 16 b0 0b 2a
        E 32 b0 0b 22
        E 32 80 34 00
        E 320 b0 0b 44
        E 0 90 30 44
        E 16 b0 0b 3b
        E 16 b0 0b 33
        E 16 b0 0b 2a
        E 32 b0 0b 22
        E 32 80 30 00
        E 320 b0 0b 44
        E 0 90 2b 44
        E 16 b0 0b 3b
        E 16 b0 0b 33
        E 16 b0 0b 2a
        E 32 b0 0b 22
        E 32 80 2b 00
        E 320 b0 0b 44
        E 0 90 30 44
        E 16 b0 0b 3b
        E 16 b0 0b 33
        E 16 b0 0b 2a
        E 32 b0 0b 22
        E 32 80 30 00
        E 176 b0 0b 44
        E 0 90 32 44
        E 16 b0 0b 3b
        E 16 b0 0b 33
        E 16 b0 0b 2a
        E 32 b0 0b 22
        E 32 80 32 00
        E 176 b0 0b 44
        E 0 90 31 44
        E 16 b0 0b 3b
        E 16 b0 0b 33
        E 16 b0 0b 2a
        E 32 b0 0b 22
        E 32 80 31 00
        E 32 b0 0b 44
        E 0 90 30 44
        E 16 b0 0b 3b
        E 16 b0 0b 33
        E 16 b0 0b 2a
        E 32 b0 0b 22
        E 32 80 30 00
        E 176 b0 0b 44
        E 0 90 30 44
        E 16 b0 0b 3b
        E 16 b0 0b 33
        E 16 b0 0b 2a
        E 32 b0 0b 22
        E 32 80 30 00
        E 80 b0 0b 44
        E 0 90 37 44
        E 16 b0 0b 3b
        E 16 b0 0b 33
        E 16 b0 0b 2a
        E 32 b0 0b 22
        E 32 80 37 00
        E 80 b0 0b 44
        E 0 90 3b 44
        E 16 b0 0b 3b
        E 16 b0 0b 33
        E 16 b0 0b 2a
        E 32 b0 0b 22
        E 32 80 3b 00
        E 80 b0 0b 44
        E 0 90 3c 44
        E 16 b0 0b 3b
        E 16 b0 0b 33
        E 16 b0 0b 2a
        E 32 b0 0b 22
        E 32 80 3c 00
        E 176 b0 0b 44
        E 0 90 39 44
        E 16 b0 0b 3b
        E 16 b0 0b 33
        E 16 b0 0b 2a
        E 32 b0 0b 22
        E 32 80 39 00
        E 32 b0 0b 44
        E 0 90 3b 44
        E 16 b0 0b 3b
        E 16 b0 0b 33
        E 16 b0 0b 2a
        E 32 b0 0b 22
        E 32 80 3b 00
        E 176 b0 0b 44
        E 0 90 39 44
        E 16 b0 0b 3b
        E 16 b0 0b 33
        E 16 b0 0b 2a
        E 32 b0 0b 22
        E 32 80 39 00
        E 176 b0 0b 44
        E 0 90 34 44
        E 16 b0 0b 3b
        E 16 b0 0b 33
        E 16 b0 0b 2a
        E 32 b0 0b 22
        E 32 80 34 00
        E 32 b0 0b 44
        E 0 90 35 44
        E 16 b0 0b 3b
        E 16 b0 0b 33
        E 16 b0 0b 2a
        E 32 b0 0b 22
        E 32 80 35 00
        E 32 b0 0b 44
        E 0 90 32 44
        E 16 b0 0b 3b
        E 16 b0 0b 33
        E 16 b0 0b 2a
        E 32 b0 0b 22
        E 32 80 32 00
        E 608 b0 0b 44
        E 0 90 40 44
        E 16 b0 0b 3b
        E 16 b0 0b 33
        E 16 b0 0b 2a
        E 32 b0 0b 22
        E 32 80 40 00
        E 32 b0 0b 44
        E 0 90 3f 44
        E 16 b0 0b 3b
        E 16 b0 0b 33
        E 16 b0 0b 2a
        E 32 b0 0b 22
        E 32 80 3f 00
        E 32 b0 0b 44
        E 0 90 3e 44
        E 16 b0 0b 3b
        E 16 b0 0b 33
        E 16 b0 0b 2a
        E 32 b0 0b 22
        E 32 80 3e 00
        E 32 b0 0b 44
        E 0 90 3b 44
        E 16 b0 0b 3b
        E 16 b0 0b 33
        E 16 b0 0b 2a
        E 32 b0 0b 22
        E 32 80 3b 00
        E 176 b0 0b 44
        E 0 90 3c 44
        E 16 b0 0b 3b
        E 16 b0 0b 33
        E 16 b0 0b 2a
        E 32 b0 0b 22
        E 32 80 3c 00
        E 176 b0 0b 44
        E 0 90 34 44
        E 16 b0 0b 3b
        E 16 b0 0b 33
        E 16 b0 0b 2a
        E 32 b0 0b 22
        E 32 80 34 00
        E 32 b0 0b 44
        E 0 90 35 44
        E 16 b0 0b 3b
        E 16 b0 0b 33
        E 16 b0 0b 2a
        E 32 b0 0b 22
        E 32 80 35 00
        E 32 b0 0b 44
        E 0 90 37 44
        E 16 b0 0b 3b
        E 16 b0 0b 33
        E 16 b0 0b 2a
        E 32 b0 0b 22
        E 32 80 37 00
        E 0 ff 2f 00
      >
    >
  >
  <TRACK {60DDCA0F-EAFD-4BE5-8007-3804A547D48E}
    NAME "NES - Pulse 2 [ch1]"
    PEAKCOL 10092441
    BEAT -1
    AUTOMODE 0
    PANLAWFLAGS 3
    VOLPAN 1 0 -1 -1 1
    MUTESOLO 0 0 0
    IPHASE 0
    PLAYOFFS 0 1
    ISBUS 0 0
    BUSCOMP 0 0 0 0 0
    SHOWINMIX 1 0.6667 0.5 1 0.5 0 0 0
    FIXEDLANES 9 0 0 0 0
    SEL 0
    REC 0 5088 1 0 0 0 0 0
    VU 2
    TRACKHEIGHT 0 0 0 0 0 0 0
    INQ 0 0 0 0.5 100 0 0 100
    NCHAN 2
    FX 1
    TRACKID {60DDCA0F-EAFD-4BE5-8007-3804A547D48E}
    PERF 0
    MIDIOUT -1
    MAINSEND 1 0
    <FXCHAIN
      WNDRECT 24 52 700 560
      SHOW 0
      LASTSEL 0
      DOCKED 0
      BYPASS 0 0 0
      <JS "ReapNES Studio/ReapNES_Console.jsfx" ""
        2 15 1 10 80 10 100 2 1 15 1 5 60 10 80 1 1 0 50 0 0 15 1 0 100 0 0 0.500000 0.500000 0.400000 0.300000 0.800000 1 1 0 0 0 0 - - - - - - - - - - - - - - - - - - - - - - - - - -
      >
      FLOATPOS 0 0 0 0
      FXID {F7F4A409-6471-430F-B4E6-682D1D47FE11}
      WAK 0 0
    >
    <ITEM
      POSITION 0
      LENGTH 93.5614336
      LOOP 0
      ALLTAKES 0
      FADEIN 0 0 0 0 0 0 0
      FADEOUT 0 0 0 0 0 0 0
      MUTE 0 0
      SEL 0
      IGUID {4456DCAD-D84B-4140-AAF7-46FDF1EA12DE}
      <SOURCE MIDI
        HASDATA 1 480 QN
        CCINTERP 32
        E 0 c1 51
        E 0 b1 0c 40
        E 0 b1 0b 44
        E 0 91 40 44
        E 16 b1 0b 3b
        E 16 b1 0b 33
        E 16 b1 0b 2a
        E 32 b1 0b 22
        E 32 81 40 00
        E 32 b1 0b 44
        E 0 91 40 44
        E 16 b1 0b 3b
        E 16 b1 0b 33
        E 16 b1 0b 2a
        E 32 b1 0b 22
        E 32 81 40 00
        E 176 b1 0b 44
        E 0 91 40 44
        E 16 b1 0b 3b
        E 16 b1 0b 33
        E 16 b1 0b 2a
        E 32 b1 0b 22
        E 32 81 40 00
        E 176 b1 0b 44
        E 0 91 3c 44
        E 16 b1 0b 3b
        E 16 b1 0b 33
        E 16 b1 0b 2a
        E 32 b1 0b 22
        E 32 81 3c 00
        E 32 b1 0b 44
        E 0 91 40 44
        E 16 b1 0b 3b
        E 16 b1 0b 33
        E 16 b1 0b 2a
        E 32 b1 0b 22
        E 32 81 40 00
        E 176 b1 0b 44
        E 0 91 43 44
        E 16 b1 0b 3b
        E 16 b1 0b 33
        E 16 b1 0b 2a
        E 32 b1 0b 22
        E 32 81 43 00
        E 1040 b1 0b 44
        E 0 91 3c 44
        E 16 b1 0b 3b
        E 16 b1 0b 33
        E 16 b1 0b 2a
        E 32 b1 0b 22
        E 32 81 3c 00
        E 320 b1 0b 44
        E 0 91 37 44
        E 16 b1 0b 3b
        E 16 b1 0b 33
        E 16 b1 0b 2a
        E 32 b1 0b 22
        E 32 81 37 00
        E 320 b1 0b 44
        E 0 91 34 44
        E 16 b1 0b 3b
        E 16 b1 0b 33
        E 16 b1 0b 2a
        E 32 b1 0b 22
        E 32 81 34 00
        E 320 b1 0b 44
        E 0 91 39 44
        E 16 b1 0b 3b
        E 16 b1 0b 33
        E 16 b1 0b 2a
        E 32 b1 0b 22
        E 32 81 39 00
        E 176 b1 0b 44
        E 0 91 3b 44
        E 16 b1 0b 3b
        E 16 b1 0b 33
        E 16 b1 0b 2a
        E 32 b1 0b 22
        E 32 81 3b 00
        E 176 b1 0b 44
        E 0 91 3a 44
        E 16 b1 0b 3b
        E 16 b1 0b 33
        E 16 b1 0b 2a
        E 32 b1 0b 22
        E 32 81 3a 00
        E 32 b1 0b 44
        E 0 91 39 44
        E 16 b1 0b 3b
        E 16 b1 0b 33
        E 16 b1 0b 2a
        E 32 b1 0b 22
        E 32 81 39 00
        E 176 b1 0b 44
        E 0 91 37 44
        E 16 b1 0b 3b
        E 16 b1 0b 33
        E 16 b1 0b 2a
        E 32 b1 0b 22
        E 32 81 37 00
        E 80 b1 0b 44
        E 0 91 40 44
        E 16 b1 0b 3b
        E 16 b1 0b 33
        E 16 b1 0b 2a
        E 32 b1 0b 22
        E 32 81 40 00
        E 80 b1 0b 44
        E 0 91 43 44
        E 16 b1 0b 3b
        E 16 b1 0b 33
        E 16 b1 0b 2a
        E 32 b1 0b 22
        E 32 81 43 00
        E 80 b1 0b 44
        E 0 91 45 44
        E 16 b1 0b 3b
        E 16 b1 0b 33
        E 16 b1 0b 2a
        E 32 b1 0b 22
        E 32 81 45 00
        E 176 b1 0b 44
        E 0 91 41 44
        E 16 b1 0b 3b
        E 16 b1 0b 33
        E 16 b1 0b 2a
        E 32 b1 0b 22
        E 32 81 41 00
        E 32 b1 0b 44
        E 0 91 43 44
        E 16 b1 0b 3b
        E 16 b1 0b 33
        E 16 b1 0b 2a
        E 32 b1 0b 22
        E 32 81 43 00
        E 176 b1 0b 44
        E 0 91 40 44
        E 16 b1 0b 3b
        E 16 b1 0b 33
        E 16 b1 0b 2a
        E 32 b1 0b 22
        E 32 81 40 00
        E 176 b1 0b 44
        E 0 91 3c 44
        E 16 b1 0b 3b
        E 16 b1 0b 33
        E 16 b1 0b 2a
        E 32 b1 0b 22
        E 32 81 3c 00
        E 32 b1 0b 44
        E 0 91 3e 44
        E 16 b1 0b 3b
        E 16 b1 0b 33
        E 16 b1 0b 2a
        E 32 b1 0b 22
        E 32 81 3e 00
        E 32 b1 0b 44
        E 0 91 3b 44
        E 16 b1 0b 3b
        E 16 b1 0b 33
        E 16 b1 0b 2a
        E 32 b1 0b 22
        E 32 81 3b 00
        E 320 b1 0b 44
        E 0 91 3c 44
        E 16 b1 0b 3b
        E 16 b1 0b 33
        E 16 b1 0b 2a
        E 32 b1 0b 22
        E 32 81 3c 00
        E 320 b1 0b 44
        E 0 91 37 44
        E 16 b1 0b 3b
        E 16 b1 0b 33
        E 16 b1 0b 2a
        E 32 b1 0b 22
        E 32 81 37 00
        E 320 b1 0b 44
        E 0 91 34 44
        E 16 b1 0b 3b
        E 16 b1 0b 33
        E 16 b1 0b 2a
        E 32 b1 0b 22
        E 32 81 34 00
        E 320 b1 0b 44
        E 0 91 39 44
        E 16 b1 0b 3b
        E 16 b1 0b 33
        E 16 b1 0b 2a
        E 32 b1 0b 22
        E 32 81 39 00
        E 176 b1 0b 44
        E 0 91 3b 44
        E 16 b1 0b 3b
        E 16 b1 0b 33
        E 16 b1 0b 2a
        E 32 b1 0b 22
        E 32 81 3b 00
        E 176 b1 0b 44
        E 0 91 3a 44
        E 16 b1 0b 3b
        E 16 b1 0b 33
        E 16 b1 0b 2a
        E 32 b1 0b 22
        E 32 81 3a 00
        E 32 b1 0b 44
        E 0 91 39 44
        E 16 b1 0b 3b
        E 16 b1 0b 33
        E 16 b1 0b 2a
        E 32 b1 0b 22
        E 32 81 39 00
        E 176 b1 0b 44
        E 0 91 37 44
        E 16 b1 0b 3b
        E 16 b1 0b 33
        E 16 b1 0b 2a
        E 32 b1 0b 22
        E 32 81 37 00
        E 80 b1 0b 44
        E 0 91 40 44
        E 16 b1 0b 3b
        E 16 b1 0b 33
        E 16 b1 0b 2a
        E 32 b1 0b 22
        E 32 81 40 00
        E 80 b1 0b 44
        E 0 91 43 44
        E 16 b1 0b 3b
        E 16 b1 0b 33
        E 16 b1 0b 2a
        E 32 b1 0b 22
        E 32 81 43 00
        E 80 b1 0b 44
        E 0 91 45 44
        E 16 b1 0b 3b
        E 16 b1 0b 33
        E 16 b1 0b 2a
        E 32 b1 0b 22
        E 32 81 45 00
        E 176 b1 0b 44
        E 0 91 41 44
        E 16 b1 0b 3b
        E 16 b1 0b 33
        E 16 b1 0b 2a
        E 32 b1 0b 22
        E 32 81 41 00
        E 32 b1 0b 44
        E 0 91 43 44
        E 16 b1 0b 3b
        E 16 b1 0b 33
        E 16 b1 0b 2a
        E 32 b1 0b 22
        E 32 81 43 00
        E 176 b1 0b 44
        E 0 91 40 44
        E 16 b1 0b 3b
        E 16 b1 0b 33
        E 16 b1 0b 2a
        E 32 b1 0b 22
        E 32 81 40 00
        E 176 b1 0b 44
        E 0 91 3c 44
        E 16 b1 0b 3b
        E 16 b1 0b 33
        E 16 b1 0b 2a
        E 32 b1 0b 22
        E 32 81 3c 00
        E 32 b1 0b 44
        E 0 91 3e 44
        E 16 b1 0b 3b
        E 16 b1 0b 33
        E 16 b1 0b 2a
        E 32 b1 0b 22
        E 32 81 3e 00
        E 32 b1 0b 44
        E 0 91 3b 44
        E 16 b1 0b 3b
        E 16 b1 0b 33
        E 16 b1 0b 2a
        E 32 b1 0b 22
        E 32 81 3b 00
        E 608 b1 0b 44
        E 0 91 43 44
        E 16 b1 0b 3b
        E 16 b1 0b 33
        E 16 b1 0b 2a
        E 32 b1 0b 22
        E 32 81 43 00
        E 32 b1 0b 44
        E 0 91 42 44
        E 16 b1 0b 3b
        E 16 b1 0b 33
        E 16 b1 0b 2a
        E 32 b1 0b 22
        E 32 81 42 00
        E 32 b1 0b 44
        E 0 91 41 44
        E 16 b1 0b 3b
        E 16 b1 0b 33
        E 16 b1 0b 2a
        E 32 b1 0b 22
        E 32 81 41 00
        E 32 b1 0b 44
        E 0 91 3f 44
        E 16 b1 0b 3b
        E 16 b1 0b 33
        E 16 b1 0b 2a
        E 32 b1 0b 22
        E 32 81 3f 00
        E 176 b1 0b 44
        E 0 91 40 44
        E 16 b1 0b 3b
        E 16 b1 0b 33
        E 16 b1 0b 2a
        E 32 b1 0b 22
        E 32 81 40 00
        E 176 b1 0b 44
        E 0 91 38 44
        E 16 b1 0b 3b
        E 16 b1 0b 33
        E 16 b1 0b 2a
        E 32 b1 0b 22
        E 32 81 38 00
        E 32 b1 0b 44
        E 0 91 39 44
        E 16 b1 0b 3b
        E 16 b1 0b 33
        E 16 b1 0b 2a
        E 32 b1 0b 22
        E 32 81 39 00
        E 32 b1 0b 44
        E 0 91 3c 44
        E 16 b1 0b 3b
        E 16 b1 0b 33
        E 16 b1 0b 2a
        E 32 b1 0b 22
        E 32 81 3c 00
        E 176 b1 0b 44
        E 0 91 39 44
        E 16 b1 0b 3b
        E 16 b1 0b 33
        E 16 b1 0b 2a
        E 32 b1 0b 22
        E 32 81 39 00
        E 32 b1 0b 44
        E 0 91 3c 44
        E 16 b1 0b 3b
        E 16 b1 0b 33
        E 16 b1 0b 2a
        E 32 b1 0b 22
        E 32 81 3c 00
        E 32 b1 0b 44
        E 0 91 3e 44
        E 16 b1 0b 3b
        E 16 b1 0b 33
        E 16 b1 0b 2a
        E 32 b1 0b 22
        E 32 81 3e 00
        E 320 b1 0b 44
        E 0 91 43 44
        E 16 b1 0b 3b
        E 16 b1 0b 33
        E 16 b1 0b 2a
        E 32 b1 0b 22
        E 32 81 43 00
        E 32 b1 0b 44
        E 0 91 42 44
        E 16 b1 0b 3b
        E 16 b1 0b 33
        E 16 b1 0b 2a
        E 32 b1 0b 22
        E 32 81 42 00
        E 32 b1 0b 44
        E 0 91 41 44
        E 16 b1 0b 3b
        E 16 b1 0b 33
        E 16 b1 0b 2a
        E 32 b1 0b 22
        E 32 81 41 00
        E 32 b1 0b 44
        E 0 91 3f 44
        E 16 b1 0b 3b
        E 16 b1 0b 33
        E 16 b1 0b 2a
        E 32 b1 0b 22
        E 32 81 3f 00
        E 176 b1 0b 44
        E 0 91 40 44
        E 16 b1 0b 3b
        E 16 b1 0b 33
        E 16 b1 0b 2a
        E 32 b1 0b 22
        E 32 81 40 00
        E 176 b1 0b 44
        E 0 91 48 44
        E 16 b1 0b 3b
        E 16 b1 0b 33
        E 16 b1 0b 2a
        E 32 b1 0b 22
        E 32 81 48 00
        E 176 b1 0b 44
        E 0 91 48 44
        E 16 b1 0b 3b
        E 16 b1 0b 33
        E 16 b1 0b 2a
        E 32 b1 0b 22
        E 32 81 48 00
        E 32 b1 0b 44
        E 0 91 48 44
        E 16 b1 0b 3b
        E 16 b1 0b 33
        E 16 b1 0b 2a
        E 32 b1 0b 22
        E 32 81 48 00
        E 752 b1 0b 44
        E 0 91 43 44
        E 16 b1 0b 3b
        E 16 b1 0b 33
        E 16 b1 0b 2a
        E 32 b1 0b 22
        E 32 81 43 00
        E 32 b1 0b 44
        E 0 91 42 44
        E 16 b1 0b 3b
        E 16 b1 0b 33
        E 16 b1 0b 2a
        E 32 b1 0b 22
        E 32 81 42 00
        E 32 b1 0b 44
        E 0 91 41 44
        E 16 b1 0b 3b
        E 16 b1 0b 33
        E 16 b1 0b 2a
        E 32 b1 0b 22
        E 32 81 41 00
        E 32 b1 0b 44
        E 0 91 3f 44
        E 16 b1 0b 3b
        E 16 b1 0b 33
        E 16 b1 0b 2a
        E 32 b1 0b 22
        E 32 81 3f 00
        E 176 b1 0b 44
        E 0 91 40 44
        E 16 b1 0b 3b
        E 16 b1 0b 33
        E 16 b1 0b 2a
        E 32 b1 0b 22
        E 32 81 40 00
        E 176 b1 0b 44
        E 0 91 38 44
        E 16 b1 0b 3b
        E 16 b1 0b 33
        E 16 b1 0b 2a
        E 32 b1 0b 22
        E 32 81 38 00
        E 32 b1 0b 44
        E 0 91 39 44
        E 16 b1 0b 3b
        E 16 b1 0b 33
        E 16 b1 0b 2a
        E 32 b1 0b 22
        E 32 81 39 00
        E 32 b1 0b 44
        E 0 91 3c 44
        E 16 b1 0b 3b
        E 16 b1 0b 33
        E 16 b1 0b 2a
        E 32 b1 0b 22
        E 32 81 3c 00
        E 176 b1 0b 44
        E 0 91 39 44
        E 16 b1 0b 3b
        E 16 b1 0b 33
        E 16 b1 0b 2a
        E 32 b1 0b 22
        E 32 81 39 00
        E 32 b1 0b 44
        E 0 91 3c 44
        E 16 b1 0b 3b
        E 16 b1 0b 33
        E 16 b1 0b 2a
        E 32 b1 0b 22
        E 32 81 3c 00
        E 32 b1 0b 44
        E 0 91 3e 44
        E 16 b1 0b 3b
        E 16 b1 0b 33
        E 16 b1 0b 2a
        E 32 b1 0b 22
        E 32 81 3e 00
        E 320 b1 0b 44
        E 0 91 3f 44
        E 16 b1 0b 3b
        E 16 b1 0b 33
        E 16 b1 0b 2a
        E 32 b1 0b 22
        E 32 81 3f 00
        E 320 b1 0b 44
        E 0 91 3e 44
        E 16 b1 0b 3b
        E 16 b1 0b 33
        E 16 b1 0b 2a
        E 32 b1 0b 22
        E 32 81 3e 00
        E 320 b1 0b 44
        E 0 91 3c 44
        E 16 b1 0b 3b
        E 16 b1 0b 33
        E 16 b1 0b 2a
        E 32 b1 0b 22
        E 32 81 3c 00
        E 1328 b1 0b 44
        E 0 91 43 44
        E 16 b1 0b 3b
        E 16 b1 0b 33
        E 16 b1 0b 2a
        E 32 b1 0b 22
        E 32 81 43 00
        E 32 b1 0b 44
        E 0 91 42 44
        E 16 b1 0b 3b
        E 16 b1 0b 33
        E 16 b1 0b 2a
        E 32 b1 0b 22
        E 32 81 42 00
        E 32 b1 0b 44
        E 0 91 41 44
        E 16 b1 0b 3b
        E 16 b1 0b 33
        E 16 b1 0b 2a
        E 32 b1 0b 22
        E 32 81 41 00
        E 32 b1 0b 44
        E 0 91 3f 44
        E 16 b1 0b 3b
        E 16 b1 0b 33
        E 16 b1 0b 2a
        E 32 b1 0b 22
        E 32 81 3f 00
        E 176 b1 0b 44
        E 0 91 40 44
        E 16 b1 0b 3b
        E 16 b1 0b 33
        E 16 b1 0b 2a
        E 32 b1 0b 22
        E 32 81 40 00
        E 176 b1 0b 44
        E 0 91 38 44
        E 16 b1 0b 3b
        E 16 b1 0b 33
        E 16 b1 0b 2a
        E 32 b1 0b 22
        E 32 81 38 00
        E 32 b1 0b 44
        E 0 91 39 44
        E 16 b1 0b 3b
        E 16 b1 0b 33
        E 16 b1 0b 2a
        E 32 b1 0b 22
        E 32 81 39 00
        E 32 b1 0b 44
        E 0 91 3c 44
        E 16 b1 0b 3b
        E 16 b1 0b 33
        E 16 b1 0b 2a
        E 32 b1 0b 22
        E 32 81 3c 00
        E 176 b1 0b 44
        E 0 91 39 44
        E 16 b1 0b 3b
        E 16 b1 0b 33
        E 16 b1 0b 2a
        E 32 b1 0b 22
        E 32 81 39 00
        E 32 b1 0b 44
        E 0 91 3c 44
        E 16 b1 0b 3b
        E 16 b1 0b 33
        E 16 b1 0b 2a
        E 32 b1 0b 22
        E 32 81 3c 00
        E 32 b1 0b 44
        E 0 91 3e 44
        E 16 b1 0b 3b
        E 16 b1 0b 33
        E 16 b1 0b 2a
        E 32 b1 0b 22
        E 32 81 3e 00
        E 320 b1 0b 44
        E 0 91 43 44
        E 16 b1 0b 3b
        E 16 b1 0b 33
        E 16 b1 0b 2a
        E 32 b1 0b 22
        E 32 81 43 00
        E 32 b1 0b 44
        E 0 91 42 44
        E 16 b1 0b 3b
        E 16 b1 0b 33
        E 16 b1 0b 2a
        E 32 b1 0b 22
        E 32 81 42 00
        E 32 b1 0b 44
        E 0 91 41 44
        E 16 b1 0b 3b
        E 16 b1 0b 33
        E 16 b1 0b 2a
        E 32 b1 0b 22
        E 32 81 41 00
        E 32 b1 0b 44
        E 0 91 3f 44
        E 16 b1 0b 3b
        E 16 b1 0b 33
        E 16 b1 0b 2a
        E 32 b1 0b 22
        E 32 81 3f 00
        E 176 b1 0b 44
        E 0 91 40 44
        E 16 b1 0b 3b
        E 16 b1 0b 33
        E 16 b1 0b 2a
        E 32 b1 0b 22
        E 32 81 40 00
        E 176 b1 0b 44
        E 0 91 48 44
        E 16 b1 0b 3b
        E 16 b1 0b 33
        E 16 b1 0b 2a
        E 32 b1 0b 22
        E 32 81 48 00
        E 176 b1 0b 44
        E 0 91 48 44
        E 16 b1 0b 3b
        E 16 b1 0b 33
        E 16 b1 0b 2a
        E 32 b1 0b 22
        E 32 81 48 00
        E 32 b1 0b 44
        E 0 91 48 44
        E 16 b1 0b 3b
        E 16 b1 0b 33
        E 16 b1 0b 2a
        E 32 b1 0b 22
        E 32 81 48 00
        E 752 b1 0b 44
        E 0 91 43 44
        E 16 b1 0b 3b
        E 16 b1 0b 33
        E 16 b1 0b 2a
        E 32 b1 0b 22
        E 32 81 43 00
        E 32 b1 0b 44
        E 0 91 42 44
        E 16 b1 0b 3b
        E 16 b1 0b 33
        E 16 b1 0b 2a
        E 32 b1 0b 22
        E 32 81 42 00
        E 32 b1 0b 44
        E 0 91 41 44
        E 16 b1 0b 3b
        E 16 b1 0b 33
        E 16 b1 0b 2a
        E 32 b1 0b 22
        E 32 81 41 00
        E 32 b1 0b 44
        E 0 91 3f 44
        E 16 b1 0b 3b
        E 16 b1 0b 33
        E 16 b1 0b 2a
        E 32 b1 0b 22
        E 32 81 3f 00
        E 176 b1 0b 44
        E 0 91 40 44
        E 16 b1 0b 3b
        E 16 b1 0b 33
        E 16 b1 0b 2a
        E 32 b1 0b 22
        E 32 81 40 00
        E 176 b1 0b 44
        E 0 91 38 44
        E 16 b1 0b 3b
        E 16 b1 0b 33
        E 16 b1 0b 2a
        E 32 b1 0b 22
        E 32 81 38 00
        E 32 b1 0b 44
        E 0 91 39 44
        E 16 b1 0b 3b
        E 16 b1 0b 33
        E 16 b1 0b 2a
        E 32 b1 0b 22
        E 32 81 39 00
        E 32 b1 0b 44
        E 0 91 3c 44
        E 16 b1 0b 3b
        E 16 b1 0b 33
        E 16 b1 0b 2a
        E 32 b1 0b 22
        E 32 81 3c 00
        E 176 b1 0b 44
        E 0 91 39 44
        E 16 b1 0b 3b
        E 16 b1 0b 33
        E 16 b1 0b 2a
        E 32 b1 0b 22
        E 32 81 39 00
        E 32 b1 0b 44
        E 0 91 3c 44
        E 16 b1 0b 3b
        E 16 b1 0b 33
        E 16 b1 0b 2a
        E 32 b1 0b 22
        E 32 81 3c 00
        E 32 b1 0b 44
        E 0 91 3e 44
        E 16 b1 0b 3b
        E 16 b1 0b 33
        E 16 b1 0b 2a
        E 32 b1 0b 22
        E 32 81 3e 00
        E 320 b1 0b 44
        E 0 91 3f 44
        E 16 b1 0b 3b
        E 16 b1 0b 33
        E 16 b1 0b 2a
        E 32 b1 0b 22
        E 32 81 3f 00
        E 320 b1 0b 44
        E 0 91 3e 44
        E 16 b1 0b 3b
        E 16 b1 0b 33
        E 16 b1 0b 2a
        E 32 b1 0b 22
        E 32 81 3e 00
        E 320 b1 0b 44
        E 0 91 3c 44
        E 16 b1 0b 3b
        E 16 b1 0b 33
        E 16 b1 0b 2a
        E 32 b1 0b 22
        E 32 81 3c 00
        E 1040 b1 0b 44
        E 0 91 3c 44
        E 16 b1 0b 3b
        E 16 b1 0b 33
        E 16 b1 0b 2a
        E 32 b1 0b 22
        E 32 81 3c 00
        E 32 b1 0b 44
        E 0 91 3c 44
        E 16 b1 0b 3b
        E 16 b1 0b 33
        E 16 b1 0b 2a
        E 32 b1 0b 22
        E 32 81 3c 00
        E 176 b1 0b 44
        E 0 91 3c 44
        E 16 b1 0b 3b
        E 16 b1 0b 33
        E 16 b1 0b 2a
        E 32 b1 0b 22
        E 32 81 3c 00
        E 176 b1 0b 44
        E 0 91 3c 44
        E 16 b1 0b 3b
        E 16 b1 0b 33
        E 16 b1 0b 2a
        E 32 b1 0b 22
        E 32 81 3c 00
        E 32 b1 0b 44
        E 0 91 3e 44
        E 16 b1 0b 3b
        E 16 b1 0b 33
        E 16 b1 0b 2a
        E 32 b1 0b 22
        E 32 81 3e 00
        E 176 b1 0b 44
        E 0 91 40 44
        E 16 b1 0b 3b
        E 16 b1 0b 33
        E 16 b1 0b 2a
        E 32 b1 0b 22
        E 32 81 40 00
        E 32 b1 0b 44
        E 0 91 3c 44
        E 16 b1 0b 3b
        E 16 b1 0b 33
        E 16 b1 0b 2a
        E 32 b1 0b 22
        E 32 81 3c 00
        E 176 b1 0b 44
        E 0 91 39 44
        E 16 b1 0b 3b
        E 16 b1 0b 33
        E 16 b1 0b 2a
        E 32 b1 0b 22
        E 32 81 39 00
        E 32 b1 0b 44
        E 0 91 37 44
        E 16 b1 0b 3b
        E 16 b1 0b 33
        E 16 b1 0b 2a
        E 32 b1 0b 22
        E 32 81 37 00
        E 464 b1 0b 44
        E 0 91 3c 44
        E 16 b1 0b 3b
        E 16 b1 0b 33
        E 16 b1 0b 2a
        E 32 b1 0b 22
        E 32 81 3c 00
        E 32 b1 0b 44
        E 0 91 3c 44
        E 16 b1 0b 3b
        E 16 b1 0b 33
        E 16 b1 0b 2a
        E 32 b1 0b 22
        E 32 81 3c 00
        E 176 b1 0b 44
        E 0 91 3c 44
        E 16 b1 0b 3b
        E 16 b1 0b 33
        E 16 b1 0b 2a
        E 32 b1 0b 22
        E 32 81 3c 00
        E 176 b1 0b 44
        E 0 91 3c 44
        E 16 b1 0b 3b
        E 16 b1 0b 33
        E 16 b1 0b 2a
        E 32 b1 0b 22
        E 32 81 3c 00
        E 32 b1 0b 44
        E 0 91 3e 44
        E 16 b1 0b 3b
        E 16 b1 0b 33
        E 16 b1 0b 2a
        E 32 b1 0b 22
        E 32 81 3e 00
        E 32 b1 0b 44
        E 0 91 40 44
        E 16 b1 0b 3b
        E 16 b1 0b 33
        E 16 b1 0b 2a
        E 32 b1 0b 22
        E 32 81 40 00
        E 1184 b1 0b 44
        E 0 91 3c 44
        E 16 b1 0b 3b
        E 16 b1 0b 33
        E 16 b1 0b 2a
        E 32 b1 0b 22
        E 32 81 3c 00
        E 32 b1 0b 44
        E 0 91 3c 44
        E 16 b1 0b 3b
        E 16 b1 0b 33
        E 16 b1 0b 2a
        E 32 b1 0b 22
        E 32 81 3c 00
        E 176 b1 0b 44
        E 0 91 3c 44
        E 16 b1 0b 3b
        E 16 b1 0b 33
        E 16 b1 0b 2a
        E 32 b1 0b 22
        E 32 81 3c 00
        E 176 b1 0b 44
        E 0 91 3c 44
        E 16 b1 0b 3b
        E 16 b1 0b 33
        E 16 b1 0b 2a
        E 32 b1 0b 22
        E 32 81 3c 00
        E 32 b1 0b 44
        E 0 91 3e 44
        E 16 b1 0b 3b
        E 16 b1 0b 33
        E 16 b1 0b 2a
        E 32 b1 0b 22
        E 32 81 3e 00
        E 176 b1 0b 44
        E 0 91 40 44
        E 16 b1 0b 3b
        E 16 b1 0b 33
        E 16 b1 0b 2a
        E 32 b1 0b 22
        E 32 81 40 00
        E 32 b1 0b 44
        E 0 91 3c 44
        E 16 b1 0b 3b
        E 16 b1 0b 33
        E 16 b1 0b 2a
        E 32 b1 0b 22
        E 32 81 3c 00
        E 176 b1 0b 44
        E 0 91 39 44
        E 16 b1 0b 3b
        E 16 b1 0b 33
        E 16 b1 0b 2a
        E 32 b1 0b 22
        E 32 81 39 00
        E 32 b1 0b 44
        E 0 91 37 44
        E 16 b1 0b 3b
        E 16 b1 0b 33
        E 16 b1 0b 2a
        E 32 b1 0b 22
        E 32 81 37 00
        E 464 b1 0b 44
        E 0 91 40 44
        E 16 b1 0b 3b
        E 16 b1 0b 33
        E 16 b1 0b 2a
        E 32 b1 0b 22
        E 32 81 40 00
        E 32 b1 0b 44
        E 0 91 40 44
        E 16 b1 0b 3b
        E 16 b1 0b 33
        E 16 b1 0b 2a
        E 32 b1 0b 22
        E 32 81 40 00
        E 176 b1 0b 44
        E 0 91 40 44
        E 16 b1 0b 3b
        E 16 b1 0b 33
        E 16 b1 0b 2a
        E 32 b1 0b 22
        E 32 81 40 00
        E 176 b1 0b 44
        E 0 91 3c 44
        E 16 b1 0b 3b
        E 16 b1 0b 33
        E 16 b1 0b 2a
        E 32 b1 0b 22
        E 32 81 3c 00
        E 32 b1 0b 44
        E 0 91 40 44
        E 16 b1 0b 3b
        E 16 b1 0b 33
        E 16 b1 0b 2a
        E 32 b1 0b 22
        E 32 81 40 00
        E 176 b1 0b 44
        E 0 91 43 44
        E 16 b1 0b 3b
        E 16 b1 0b 33
        E 16 b1 0b 2a
        E 32 b1 0b 22
        E 32 81 43 00
        E 1040 b1 0b 44
        E 0 91 3c 44
        E 16 b1 0b 3b
        E 16 b1 0b 33
        E 16 b1 0b 2a
        E 32 b1 0b 22
        E 32 81 3c 00
        E 320 b1 0b 44
        E 0 91 37 44
        E 16 b1 0b 3b
        E 16 b1 0b 33
        E 16 b1 0b 2a
        E 32 b1 0b 22
        E 32 81 37 00
        E 320 b1 0b 44
        E 0 91 34 44
        E 16 b1 0b 3b
        E 16 b1 0b 33
        E 16 b1 0b 2a
        E 32 b1 0b 22
        E 32 81 34 00
        E 320 b1 0b 44
        E 0 91 39 44
        E 16 b1 0b 3b
        E 16 b1 0b 33
        E 16 b1 0b 2a
        E 32 b1 0b 22
        E 32 81 39 00
        E 176 b1 0b 44
        E 0 91 3b 44
        E 16 b1 0b 3b
        E 16 b1 0b 33
        E 16 b1 0b 2a
        E 32 b1 0b 22
        E 32 81 3b 00
        E 176 b1 0b 44
        E 0 91 3a 44
        E 16 b1 0b 3b
        E 16 b1 0b 33
        E 16 b1 0b 2a
        E 32 b1 0b 22
        E 32 81 3a 00
        E 32 b1 0b 44
        E 0 91 39 44
        E 16 b1 0b 3b
        E 16 b1 0b 33
        E 16 b1 0b 2a
        E 32 b1 0b 22
        E 32 81 39 00
        E 176 b1 0b 44
        E 0 91 37 44
        E 16 b1 0b 3b
        E 16 b1 0b 33
        E 16 b1 0b 2a
        E 32 b1 0b 22
        E 32 81 37 00
        E 80 b1 0b 44
        E 0 91 40 44
        E 16 b1 0b 3b
        E 16 b1 0b 33
        E 16 b1 0b 2a
        E 32 b1 0b 22
        E 32 81 40 00
        E 80 b1 0b 44
        E 0 91 43 44
        E 16 b1 0b 3b
        E 16 b1 0b 33
        E 16 b1 0b 2a
        E 32 b1 0b 22
        E 32 81 43 00
        E 80 b1 0b 44
        E 0 91 45 44
        E 16 b1 0b 3b
        E 16 b1 0b 33
        E 16 b1 0b 2a
        E 32 b1 0b 22
        E 32 81 45 00
        E 176 b1 0b 44
        E 0 91 41 44
        E 16 b1 0b 3b
        E 16 b1 0b 33
        E 16 b1 0b 2a
        E 32 b1 0b 22
        E 32 81 41 00
        E 32 b1 0b 44
        E 0 91 43 44
        E 16 b1 0b 3b
        E 16 b1 0b 33
        E 16 b1 0b 2a
        E 32 b1 0b 22
        E 32 81 43 00
        E 176 b1 0b 44
        E 0 91 40 44
        E 16 b1 0b 3b
        E 16 b1 0b 33
        E 16 b1 0b 2a
        E 32 b1 0b 22
        E 32 81 40 00
        E 176 b1 0b 44
        E 0 91 3c 44
        E 16 b1 0b 3b
        E 16 b1 0b 33
        E 16 b1 0b 2a
        E 32 b1 0b 22
        E 32 81 3c 00
        E 32 b1 0b 44
        E 0 91 3e 44
        E 16 b1 0b 3b
        E 16 b1 0b 33
        E 16 b1 0b 2a
        E 32 b1 0b 22
        E 32 81 3e 00
        E 32 b1 0b 44
        E 0 91 3b 44
        E 16 b1 0b 3b
        E 16 b1 0b 33
        E 16 b1 0b 2a
        E 32 b1 0b 22
        E 32 81 3b 00
        E 320 b1 0b 44
        E 0 91 3c 44
        E 16 b1 0b 3b
        E 16 b1 0b 33
        E 16 b1 0b 2a
        E 32 b1 0b 22
        E 32 81 3c 00
        E 320 b1 0b 44
        E 0 91 37 44
        E 16 b1 0b 3b
        E 16 b1 0b 33
        E 16 b1 0b 2a
        E 32 b1 0b 22
        E 32 81 37 00
        E 320 b1 0b 44
        E 0 91 34 44
        E 16 b1 0b 3b
        E 16 b1 0b 33
        E 16 b1 0b 2a
        E 32 b1 0b 22
        E 32 81 34 00
        E 320 b1 0b 44
        E 0 91 39 44
        E 16 b1 0b 3b
        E 16 b1 0b 33
        E 16 b1 0b 2a
        E 32 b1 0b 22
        E 32 81 39 00
        E 176 b1 0b 44
        E 0 91 3b 44
        E 16 b1 0b 3b
        E 16 b1 0b 33
        E 16 b1 0b 2a
        E 32 b1 0b 22
        E 32 81 3b 00
        E 176 b1 0b 44
        E 0 91 3a 44
        E 16 b1 0b 3b
        E 16 b1 0b 33
        E 16 b1 0b 2a
        E 32 b1 0b 22
        E 32 81 3a 00
        E 32 b1 0b 44
        E 0 91 39 44
        E 16 b1 0b 3b
        E 16 b1 0b 33
        E 16 b1 0b 2a
        E 32 b1 0b 22
        E 32 81 39 00
        E 176 b1 0b 44
        E 0 91 37 44
        E 16 b1 0b 3b
        E 16 b1 0b 33
        E 16 b1 0b 2a
        E 32 b1 0b 22
        E 32 81 37 00
        E 80 b1 0b 44
        E 0 91 40 44
        E 16 b1 0b 3b
        E 16 b1 0b 33
        E 16 b1 0b 2a
        E 32 b1 0b 22
        E 32 81 40 00
        E 80 b1 0b 44
        E 0 91 43 44
        E 16 b1 0b 3b
        E 16 b1 0b 33
        E 16 b1 0b 2a
        E 32 b1 0b 22
        E 32 81 43 00
        E 80 b1 0b 44
        E 0 91 45 44
        E 16 b1 0b 3b
        E 16 b1 0b 33
        E 16 b1 0b 2a
        E 32 b1 0b 22
        E 32 81 45 00
        E 176 b1 0b 44
        E 0 91 41 44
        E 16 b1 0b 3b
        E 16 b1 0b 33
        E 16 b1 0b 2a
        E 32 b1 0b 22
        E 32 81 41 00
        E 32 b1 0b 44
        E 0 91 43 44
        E 16 b1 0b 3b
        E 16 b1 0b 33
        E 16 b1 0b 2a
        E 32 b1 0b 22
        E 32 81 43 00
        E 176 b1 0b 44
        E 0 91 40 44
        E 16 b1 0b 3b
        E 16 b1 0b 33
        E 16 b1 0b 2a
        E 32 b1 0b 22
        E 32 81 40 00
        E 176 b1 0b 44
        E 0 91 3c 44
        E 16 b1 0b 3b
        E 16 b1 0b 33
        E 16 b1 0b 2a
        E 32 b1 0b 22
        E 32 81 3c 00
        E 32 b1 0b 44
        E 0 91 3e 44
        E 16 b1 0b 3b
        E 16 b1 0b 33
        E 16 b1 0b 2a
        E 32 b1 0b 22
        E 32 81 3e 00
        E 32 b1 0b 44
        E 0 91 3b 44
        E 16 b1 0b 3b
        E 16 b1 0b 33
        E 16 b1 0b 2a
        E 32 b1 0b 22
        E 32 81 3b 00
        E 320 b1 0b 44
        E 0 91 40 44
        E 16 b1 0b 3b
        E 16 b1 0b 33
        E 16 b1 0b 2a
        E 32 b1 0b 22
        E 32 81 40 00
        E 32 b1 0b 44
        E 0 91 3c 44
        E 16 b1 0b 3b
        E 16 b1 0b 33
        E 16 b1 0b 2a
        E 32 b1 0b 22
        E 32 81 3c 00
        E 176 b1 0b 44
        E 0 91 37 44
        E 16 b1 0b 3b
        E 16 b1 0b 33
        E 16 b1 0b 2a
        E 32 b1 0b 22
        E 32 81 37 00
        E 320 b1 0b 44
        E 0 91 38 44
        E 16 b1 0b 3b
        E 16 b1 0b 33
        E 16 b1 0b 2a
        E 32 b1 0b 22
        E 32 81 38 00
        E 176 b1 0b 44
        E 0 91 39 44
        E 16 b1 0b 3b
        E 16 b1 0b 33
        E 16 b1 0b 2a
        E 32 b1 0b 22
        E 32 81 39 00
        E 32 b1 0b 44
        E 0 91 41 44
        E 16 b1 0b 3b
        E 16 b1 0b 33
        E 16 b1 0b 2a
        E 32 b1 0b 22
        E 32 81 41 00
        E 176 b1 0b 44
        E 0 91 41 44
        E 16 b1 0b 3b
        E 16 b1 0b 33
        E 16 b1 0b 2a
        E 32 b1 0b 22
        E 32 81 41 00
        E 32 b1 0b 44
        E 0 91 39 44
        E 16 b1 0b 3b
        E 16 b1 0b 33
        E 16 b1 0b 2a
        E 32 b1 0b 22
        E 32 81 39 00
        E 464 b1 0b 44
        E 0 91 3b 44
        E 16 b1 0b 3b
        E 16 b1 0b 33
        E 16 b1 0b 2a
        E 32 b1 0b 22
        E 32 81 3b 00
        E 80 b1 0b 44
        E 0 91 45 44
        E 16 b1 0b 3b
        E 16 b1 0b 33
        E 16 b1 0b 2a
        E 32 b1 0b 22
        E 32 81 45 00
        E 80 b1 0b 44
        E 0 91 45 44
        E 16 b1 0b 3b
        E 16 b1 0b 33
        E 16 b1 0b 2a
        E 32 b1 0b 22
        E 32 81 45 00
        E 80 b1 0b 44
        E 0 91 45 44
        E 16 b1 0b 3b
        E 16 b1 0b 33
        E 16 b1 0b 2a
        E 32 b1 0b 22
        E 32 81 45 00
        E 80 b1 0b 44
        E 0 91 43 44
        E 16 b1 0b 3b
        E 16 b1 0b 33
        E 16 b1 0b 2a
        E 32 b1 0b 22
        E 32 81 43 00
        E 80 b1 0b 44
        E 0 91 41 44
        E 16 b1 0b 3b
        E 16 b1 0b 33
        E 16 b1 0b 2a
        E 32 b1 0b 22
        E 32 81 41 00
        E 80 b1 0b 44
        E 0 91 40 44
        E 16 b1 0b 3b
        E 16 b1 0b 33
        E 16 b1 0b 2a
        E 32 b1 0b 22
        E 32 81 40 00
        E 32 b1 0b 44
        E 0 91 3c 44
        E 16 b1 0b 3b
        E 16 b1 0b 33
        E 16 b1 0b 2a
        E 32 b1 0b 22
        E 32 81 3c 00
        E 176 b1 0b 44
        E 0 91 39 44
        E 16 b1 0b 3b
        E 16 b1 0b 33
        E 16 b1 0b 2a
        E 32 b1 0b 22
        E 32 81 39 00
        E 32 b1 0b 44
        E 0 91 37 44
        E 16 b1 0b 3b
        E 16 b1 0b 33
        E 16 b1 0b 2a
        E 32 b1 0b 22
        E 32 81 37 00
        E 464 b1 0b 44
        E 0 91 40 44
        E 16 b1 0b 3b
        E 16 b1 0b 33
        E 16 b1 0b 2a
        E 32 b1 0b 22
        E 32 81 40 00
        E 32 b1 0b 44
        E 0 91 3c 44
        E 16 b1 0b 3b
        E 16 b1 0b 33
        E 16 b1 0b 2a
        E 32 b1 0b 22
        E 32 81 3c 00
        E 176 b1 0b 44
        E 0 91 37 44
        E 16 b1 0b 3b
        E 16 b1 0b 33
        E 16 b1 0b 2a
        E 32 b1 0b 22
        E 32 81 37 00
        E 320 b1 0b 44
        E 0 91 38 44
        E 16 b1 0b 3b
        E 16 b1 0b 33
        E 16 b1 0b 2a
        E 32 b1 0b 22
        E 32 81 38 00
        E 176 b1 0b 44
        E 0 91 39 44
        E 16 b1 0b 3b
        E 16 b1 0b 33
        E 16 b1 0b 2a
        E 32 b1 0b 22
        E 32 81 39 00
        E 32 b1 0b 44
        E 0 91 41 44
        E 16 b1 0b 3b
        E 16 b1 0b 33
        E 16 b1 0b 2a
        E 32 b1 0b 22
        E 32 81 41 00
        E 176 b1 0b 44
        E 0 91 41 44
        E 16 b1 0b 3b
        E 16 b1 0b 33
        E 16 b1 0b 2a
        E 32 b1 0b 22
        E 32 81 41 00
        E 32 b1 0b 44
        E 0 91 39 44
        E 16 b1 0b 3b
        E 16 b1 0b 33
        E 16 b1 0b 2a
        E 32 b1 0b 22
        E 32 81 39 00
        E 464 b1 0b 44
        E 0 91 3b 44
        E 16 b1 0b 3b
        E 16 b1 0b 33
        E 16 b1 0b 2a
        E 32 b1 0b 22
        E 32 81 3b 00
        E 32 b1 0b 44
        E 0 91 41 44
        E 16 b1 0b 3b
        E 16 b1 0b 33
        E 16 b1 0b 2a
        E 32 b1 0b 22
        E 32 81 41 00
        E 176 b1 0b 44
        E 0 91 41 44
        E 16 b1 0b 3b
        E 16 b1 0b 33
        E 16 b1 0b 2a
        E 32 b1 0b 22
        E 32 81 41 00
        E 32 b1 0b 44
        E 0 91 41 44
        E 16 b1 0b 3b
        E 16 b1 0b 33
        E 16 b1 0b 2a
        E 32 b1 0b 22
        E 32 81 41 00
        E 80 b1 0b 44
        E 0 91 40 44
        E 16 b1 0b 3b
        E 16 b1 0b 33
        E 16 b1 0b 2a
        E 32 b1 0b 22
        E 32 81 40 00
        E 80 b1 0b 44
        E 0 91 3e 44
        E 16 b1 0b 3b
        E 16 b1 0b 33
        E 16 b1 0b 2a
        E 32 b1 0b 22
        E 32 81 3e 00
        E 80 b1 0b 44
        E 0 91 3c 44
        E 16 b1 0b 3b
        E 16 b1 0b 33
        E 16 b1 0b 2a
        E 32 b1 0b 22
        E 32 81 3c 00
        E 1040 b1 0b 44
        E 0 91 40 44
        E 16 b1 0b 3b
        E 16 b1 0b 33
        E 16 b1 0b 2a
        E 32 b1 0b 22
        E 32 81 40 00
        E 32 b1 0b 44
        E 0 91 3c 44
        E 16 b1 0b 3b
        E 16 b1 0b 33
        E 16 b1 0b 2a
        E 32 b1 0b 22
        E 32 81 3c 00
        E 176 b1 0b 44
        E 0 91 37 44
        E 16 b1 0b 3b
        E 16 b1 0b 33
        E 16 b1 0b 2a
        E 32 b1 0b 22
        E 32 81 37 00
        E 320 b1 0b 44
        E 0 91 38 44
        E 16 b1 0b 3b
        E 16 b1 0b 33
        E 16 b1 0b 2a
        E 32 b1 0b 22
        E 32 81 38 00
        E 176 b1 0b 44
        E 0 91 39 44
        E 16 b1 0b 3b
        E 16 b1 0b 33
        E 16 b1 0b 2a
        E 32 b1 0b 22
        E 32 81 39 00
        E 32 b1 0b 44
        E 0 91 41 44
        E 16 b1 0b 3b
        E 16 b1 0b 33
        E 16 b1 0b 2a
        E 32 b1 0b 22
        E 32 81 41 00
        E 176 b1 0b 44
        E 0 91 41 44
        E 16 b1 0b 3b
        E 16 b1 0b 33
        E 16 b1 0b 2a
        E 32 b1 0b 22
        E 32 81 41 00
        E 32 b1 0b 44
        E 0 91 39 44
        E 16 b1 0b 3b
        E 16 b1 0b 33
        E 16 b1 0b 2a
        E 32 b1 0b 22
        E 32 81 39 00
        E 464 b1 0b 44
        E 0 91 3b 44
        E 16 b1 0b 3b
        E 16 b1 0b 33
        E 16 b1 0b 2a
        E 32 b1 0b 22
        E 32 81 3b 00
        E 80 b1 0b 44
        E 0 91 45 44
        E 16 b1 0b 3b
        E 16 b1 0b 33
        E 16 b1 0b 2a
        E 32 b1 0b 22
        E 32 81 45 00
        E 80 b1 0b 44
        E 0 91 45 44
        E 16 b1 0b 3b
        E 16 b1 0b 33
        E 16 b1 0b 2a
        E 32 b1 0b 22
        E 32 81 45 00
        E 80 b1 0b 44
        E 0 91 45 44
        E 16 b1 0b 3b
        E 16 b1 0b 33
        E 16 b1 0b 2a
        E 32 b1 0b 22
        E 32 81 45 00
        E 80 b1 0b 44
        E 0 91 43 44
        E 16 b1 0b 3b
        E 16 b1 0b 33
        E 16 b1 0b 2a
        E 32 b1 0b 22
        E 32 81 43 00
        E 80 b1 0b 44
        E 0 91 41 44
        E 16 b1 0b 3b
        E 16 b1 0b 33
        E 16 b1 0b 2a
        E 32 b1 0b 22
        E 32 81 41 00
        E 80 b1 0b 44
        E 0 91 40 44
        E 16 b1 0b 3b
        E 16 b1 0b 33
        E 16 b1 0b 2a
        E 32 b1 0b 22
        E 32 81 40 00
        E 32 b1 0b 44
        E 0 91 3c 44
        E 16 b1 0b 3b
        E 16 b1 0b 33
        E 16 b1 0b 2a
        E 32 b1 0b 22
        E 32 81 3c 00
        E 176 b1 0b 44
        E 0 91 39 44
        E 16 b1 0b 3b
        E 16 b1 0b 33
        E 16 b1 0b 2a
        E 32 b1 0b 22
        E 32 81 39 00
        E 32 b1 0b 44
        E 0 91 37 44
        E 16 b1 0b 3b
        E 16 b1 0b 33
        E 16 b1 0b 2a
        E 32 b1 0b 22
        E 32 81 37 00
        E 464 b1 0b 44
        E 0 91 40 44
        E 16 b1 0b 3b
        E 16 b1 0b 33
        E 16 b1 0b 2a
        E 32 b1 0b 22
        E 32 81 40 00
        E 32 b1 0b 44
        E 0 91 3c 44
        E 16 b1 0b 3b
        E 16 b1 0b 33
        E 16 b1 0b 2a
        E 32 b1 0b 22
        E 32 81 3c 00
        E 176 b1 0b 44
        E 0 91 37 44
        E 16 b1 0b 3b
        E 16 b1 0b 33
        E 16 b1 0b 2a
        E 32 b1 0b 22
        E 32 81 37 00
        E 320 b1 0b 44
        E 0 91 38 44
        E 16 b1 0b 3b
        E 16 b1 0b 33
        E 16 b1 0b 2a
        E 32 b1 0b 22
        E 32 81 38 00
        E 176 b1 0b 44
        E 0 91 39 44
        E 16 b1 0b 3b
        E 16 b1 0b 33
        E 16 b1 0b 2a
        E 32 b1 0b 22
        E 32 81 39 00
        E 32 b1 0b 44
        E 0 91 41 44
        E 16 b1 0b 3b
        E 16 b1 0b 33
        E 16 b1 0b 2a
        E 32 b1 0b 22
        E 32 81 41 00
        E 176 b1 0b 44
        E 0 91 41 44
        E 16 b1 0b 3b
        E 16 b1 0b 33
        E 16 b1 0b 2a
        E 32 b1 0b 22
        E 32 81 41 00
        E 32 b1 0b 44
        E 0 91 39 44
        E 16 b1 0b 3b
        E 16 b1 0b 33
        E 16 b1 0b 2a
        E 32 b1 0b 22
        E 32 81 39 00
        E 464 b1 0b 44
        E 0 91 3b 44
        E 16 b1 0b 3b
        E 16 b1 0b 33
        E 16 b1 0b 2a
        E 32 b1 0b 22
        E 32 81 3b 00
        E 32 b1 0b 44
        E 0 91 41 44
        E 16 b1 0b 3b
        E 16 b1 0b 33
        E 16 b1 0b 2a
        E 32 b1 0b 22
        E 32 81 41 00
        E 176 b1 0b 44
        E 0 91 41 44
        E 16 b1 0b 3b
        E 16 b1 0b 33
        E 16 b1 0b 2a
        E 32 b1 0b 22
        E 32 81 41 00
        E 32 b1 0b 44
        E 0 91 41 44
        E 16 b1 0b 3b
        E 16 b1 0b 33
        E 16 b1 0b 2a
        E 32 b1 0b 22
        E 32 81 41 00
        E 80 b1 0b 44
        E 0 91 40 44
        E 16 b1 0b 3b
        E 16 b1 0b 33
        E 16 b1 0b 2a
        E 32 b1 0b 22
        E 32 81 40 00
        E 80 b1 0b 44
        E 0 91 3e 44
        E 16 b1 0b 3b
        E 16 b1 0b 33
        E 16 b1 0b 2a
        E 32 b1 0b 22
        E 32 81 3e 00
        E 80 b1 0b 44
        E 0 91 3c 44
        E 16 b1 0b 3b
        E 16 b1 0b 33
        E 16 b1 0b 2a
        E 32 b1 0b 22
        E 32 81 3c 00
        E 1040 b1 0b 44
        E 0 91 3c 44
        E 16 b1 0b 3b
        E 16 b1 0b 33
        E 16 b1 0b 2a
        E 32 b1 0b 22
        E 32 81 3c 00
        E 32 b1 0b 44
        E 0 91 3c 44
        E 16 b1 0b 3b
        E 16 b1 0b 33
        E 16 b1 0b 2a
        E 32 b1 0b 22
        E 32 81 3c 00
        E 176 b1 0b 44
        E 0 91 3c 44
        E 16 b1 0b 3b
        E 16 b1 0b 33
        E 16 b1 0b 2a
        E 32 b1 0b 22
        E 32 81 3c 00
        E 176 b1 0b 44
        E 0 91 3c 44
        E 16 b1 0b 3b
        E 16 b1 0b 33
        E 16 b1 0b 2a
        E 32 b1 0b 22
        E 32 81 3c 00
        E 32 b1 0b 44
        E 0 91 3e 44
        E 16 b1 0b 3b
        E 16 b1 0b 33
        E 16 b1 0b 2a
        E 32 b1 0b 22
        E 32 81 3e 00
        E 176 b1 0b 44
        E 0 91 40 44
        E 16 b1 0b 3b
        E 16 b1 0b 33
        E 16 b1 0b 2a
        E 32 b1 0b 22
        E 32 81 40 00
        E 32 b1 0b 44
        E 0 91 3c 44
        E 16 b1 0b 3b
        E 16 b1 0b 33
        E 16 b1 0b 2a
        E 32 b1 0b 22
        E 32 81 3c 00
        E 176 b1 0b 44
        E 0 91 39 44
        E 16 b1 0b 3b
        E 16 b1 0b 33
        E 16 b1 0b 2a
        E 32 b1 0b 22
        E 32 81 39 00
        E 32 b1 0b 44
        E 0 91 37 44
        E 16 b1 0b 3b
        E 16 b1 0b 33
        E 16 b1 0b 2a
        E 32 b1 0b 22
        E 32 81 37 00
        E 464 b1 0b 44
        E 0 91 3c 44
        E 16 b1 0b 3b
        E 16 b1 0b 33
        E 16 b1 0b 2a
        E 32 b1 0b 22
        E 32 81 3c 00
        E 32 b1 0b 44
        E 0 91 3c 44
        E 16 b1 0b 3b
        E 16 b1 0b 33
        E 16 b1 0b 2a
        E 32 b1 0b 22
        E 32 81 3c 00
        E 176 b1 0b 44
        E 0 91 3c 44
        E 16 b1 0b 3b
        E 16 b1 0b 33
        E 16 b1 0b 2a
        E 32 b1 0b 22
        E 32 81 3c 00
        E 176 b1 0b 44
        E 0 91 3c 44
        E 16 b1 0b 3b
        E 16 b1 0b 33
        E 16 b1 0b 2a
        E 32 b1 0b 22
        E 32 81 3c 00
        E 32 b1 0b 44
        E 0 91 3e 44
        E 16 b1 0b 3b
        E 16 b1 0b 33
        E 16 b1 0b 2a
        E 32 b1 0b 22
        E 32 81 3e 00
        E 32 b1 0b 44
        E 0 91 40 44
        E 16 b1 0b 3b
        E 16 b1 0b 33
        E 16 b1 0b 2a
        E 32 b1 0b 22
        E 32 81 40 00
        E 1184 b1 0b 44
        E 0 91 3c 44
        E 16 b1 0b 3b
        E 16 b1 0b 33
        E 16 b1 0b 2a
        E 32 b1 0b 22
        E 32 81 3c 00
        E 32 b1 0b 44
        E 0 91 3c 44
        E 16 b1 0b 3b
        E 16 b1 0b 33
        E 16 b1 0b 2a
        E 32 b1 0b 22
        E 32 81 3c 00
        E 176 b1 0b 44
        E 0 91 3c 44
        E 16 b1 0b 3b
        E 16 b1 0b 33
        E 16 b1 0b 2a
        E 32 b1 0b 22
        E 32 81 3c 00
        E 176 b1 0b 44
        E 0 91 3c 44
        E 16 b1 0b 3b
        E 16 b1 0b 33
        E 16 b1 0b 2a
        E 32 b1 0b 22
        E 32 81 3c 00
        E 32 b1 0b 44
        E 0 91 3e 44
        E 16 b1 0b 3b
        E 16 b1 0b 33
        E 16 b1 0b 2a
        E 32 b1 0b 22
        E 32 81 3e 00
        E 176 b1 0b 44
        E 0 91 40 44
        E 16 b1 0b 3b
        E 16 b1 0b 33
        E 16 b1 0b 2a
        E 32 b1 0b 22
        E 32 81 40 00
        E 32 b1 0b 44
        E 0 91 3c 44
        E 16 b1 0b 3b
        E 16 b1 0b 33
        E 16 b1 0b 2a
        E 32 b1 0b 22
        E 32 81 3c 00
        E 176 b1 0b 44
        E 0 91 39 44
        E 16 b1 0b 3b
        E 16 b1 0b 33
        E 16 b1 0b 2a
        E 32 b1 0b 22
        E 32 81 39 00
        E 32 b1 0b 44
        E 0 91 37 44
        E 16 b1 0b 3b
        E 16 b1 0b 33
        E 16 b1 0b 2a
        E 32 b1 0b 22
        E 32 81 37 00
        E 464 b1 0b 44
        E 0 91 40 44
        E 16 b1 0b 3b
        E 16 b1 0b 33
        E 16 b1 0b 2a
        E 32 b1 0b 22
        E 32 81 40 00
        E 32 b1 0b 44
        E 0 91 40 44
        E 16 b1 0b 3b
        E 16 b1 0b 33
        E 16 b1 0b 2a
        E 32 b1 0b 22
        E 32 81 40 00
        E 176 b1 0b 44
        E 0 91 40 44
        E 16 b1 0b 3b
        E 16 b1 0b 33
        E 16 b1 0b 2a
        E 32 b1 0b 22
        E 32 81 40 00
        E 176 b1 0b 44
        E 0 91 3c 44
        E 16 b1 0b 3b
        E 16 b1 0b 33
        E 16 b1 0b 2a
        E 32 b1 0b 22
        E 32 81 3c 00
        E 32 b1 0b 44
        E 0 91 40 44
        E 16 b1 0b 3b
        E 16 b1 0b 33
        E 16 b1 0b 2a
        E 32 b1 0b 22
        E 32 81 40 00
        E 176 b1 0b 44
        E 0 91 43 44
        E 16 b1 0b 3b
        E 16 b1 0b 33
        E 16 b1 0b 2a
        E 32 b1 0b 22
        E 32 81 43 00
        E 1040 b1 0b 44
        E 0 91 40 44
        E 16 b1 0b 3b
        E 16 b1 0b 33
        E 16 b1 0b 2a
        E 32 b1 0b 22
        E 32 81 40 00
        E 32 b1 0b 44
        E 0 91 3c 44
        E 16 b1 0b 3b
        E 16 b1 0b 33
        E 16 b1 0b 2a
        E 32 b1 0b 22
        E 32 81 3c 00
        E 176 b1 0b 44
        E 0 91 37 44
        E 16 b1 0b 3b
        E 16 b1 0b 33
        E 16 b1 0b 2a
        E 32 b1 0b 22
        E 32 81 37 00
        E 320 b1 0b 44
        E 0 91 38 44
        E 16 b1 0b 3b
        E 16 b1 0b 33
        E 16 b1 0b 2a
        E 32 b1 0b 22
        E 32 81 38 00
        E 176 b1 0b 44
        E 0 91 39 44
        E 16 b1 0b 3b
        E 16 b1 0b 33
        E 16 b1 0b 2a
        E 32 b1 0b 22
        E 32 81 39 00
        E 32 b1 0b 44
        E 0 91 41 44
        E 16 b1 0b 3b
        E 16 b1 0b 33
        E 16 b1 0b 2a
        E 32 b1 0b 22
        E 32 81 41 00
        E 176 b1 0b 44
        E 0 91 41 44
        E 16 b1 0b 3b
        E 16 b1 0b 33
        E 16 b1 0b 2a
        E 32 b1 0b 22
        E 32 81 41 00
        E 32 b1 0b 44
        E 0 91 39 44
        E 16 b1 0b 3b
        E 16 b1 0b 33
        E 16 b1 0b 2a
        E 32 b1 0b 22
        E 32 81 39 00
        E 464 b1 0b 44
        E 0 91 3b 44
        E 16 b1 0b 3b
        E 16 b1 0b 33
        E 16 b1 0b 2a
        E 32 b1 0b 22
        E 32 81 3b 00
        E 80 b1 0b 44
        E 0 91 45 44
        E 16 b1 0b 3b
        E 16 b1 0b 33
        E 16 b1 0b 2a
        E 32 b1 0b 22
        E 32 81 45 00
        E 80 b1 0b 44
        E 0 91 45 44
        E 16 b1 0b 3b
        E 16 b1 0b 33
        E 16 b1 0b 2a
        E 32 b1 0b 22
        E 32 81 45 00
        E 80 b1 0b 44
        E 0 91 45 44
        E 16 b1 0b 3b
        E 16 b1 0b 33
        E 16 b1 0b 2a
        E 32 b1 0b 22
        E 32 81 45 00
        E 80 b1 0b 44
        E 0 91 43 44
        E 16 b1 0b 3b
        E 16 b1 0b 33
        E 16 b1 0b 2a
        E 32 b1 0b 22
        E 32 81 43 00
        E 80 b1 0b 44
        E 0 91 41 44
        E 16 b1 0b 3b
        E 16 b1 0b 33
        E 16 b1 0b 2a
        E 32 b1 0b 22
        E 32 81 41 00
        E 80 b1 0b 44
        E 0 91 40 44
        E 16 b1 0b 3b
        E 16 b1 0b 33
        E 16 b1 0b 2a
        E 32 b1 0b 22
        E 32 81 40 00
        E 32 b1 0b 44
        E 0 91 3c 44
        E 16 b1 0b 3b
        E 16 b1 0b 33
        E 16 b1 0b 2a
        E 32 b1 0b 22
        E 32 81 3c 00
        E 176 b1 0b 44
        E 0 91 39 44
        E 16 b1 0b 3b
        E 16 b1 0b 33
        E 16 b1 0b 2a
        E 32 b1 0b 22
        E 32 81 39 00
        E 32 b1 0b 44
        E 0 91 37 44
        E 16 b1 0b 3b
        E 16 b1 0b 33
        E 16 b1 0b 2a
        E 32 b1 0b 22
        E 32 81 37 00
        E 464 b1 0b 44
        E 0 91 40 44
        E 16 b1 0b 3b
        E 16 b1 0b 33
        E 16 b1 0b 2a
        E 32 b1 0b 22
        E 32 81 40 00
        E 32 b1 0b 44
        E 0 91 3c 44
        E 16 b1 0b 3b
        E 16 b1 0b 33
        E 16 b1 0b 2a
        E 32 b1 0b 22
        E 32 81 3c 00
        E 176 b1 0b 44
        E 0 91 37 44
        E 16 b1 0b 3b
        E 16 b1 0b 33
        E 16 b1 0b 2a
        E 32 b1 0b 22
        E 32 81 37 00
        E 320 b1 0b 44
        E 0 91 38 44
        E 16 b1 0b 3b
        E 16 b1 0b 33
        E 16 b1 0b 2a
        E 32 b1 0b 22
        E 32 81 38 00
        E 176 b1 0b 44
        E 0 91 39 44
        E 16 b1 0b 3b
        E 16 b1 0b 33
        E 16 b1 0b 2a
        E 32 b1 0b 22
        E 32 81 39 00
        E 32 b1 0b 44
        E 0 91 41 44
        E 16 b1 0b 3b
        E 16 b1 0b 33
        E 16 b1 0b 2a
        E 32 b1 0b 22
        E 32 81 41 00
        E 176 b1 0b 44
        E 0 91 41 44
        E 16 b1 0b 3b
        E 16 b1 0b 33
        E 16 b1 0b 2a
        E 32 b1 0b 22
        E 32 81 41 00
        E 32 b1 0b 44
        E 0 91 39 44
        E 16 b1 0b 3b
        E 16 b1 0b 33
        E 16 b1 0b 2a
        E 32 b1 0b 22
        E 32 81 39 00
        E 464 b1 0b 44
        E 0 91 3b 44
        E 16 b1 0b 3b
        E 16 b1 0b 33
        E 16 b1 0b 2a
        E 32 b1 0b 22
        E 32 81 3b 00
        E 32 b1 0b 44
        E 0 91 41 44
        E 16 b1 0b 3b
        E 16 b1 0b 33
        E 16 b1 0b 2a
        E 32 b1 0b 22
        E 32 81 41 00
        E 176 b1 0b 44
        E 0 91 41 44
        E 16 b1 0b 3b
        E 16 b1 0b 33
        E 16 b1 0b 2a
        E 32 b1 0b 22
        E 32 81 41 00
        E 32 b1 0b 44
        E 0 91 41 44
        E 16 b1 0b 3b
        E 16 b1 0b 33
        E 16 b1 0b 2a
        E 32 b1 0b 22
        E 32 81 41 00
        E 80 b1 0b 44
        E 0 91 40 44
        E 16 b1 0b 3b
        E 16 b1 0b 33
        E 16 b1 0b 2a
        E 32 b1 0b 22
        E 32 81 40 00
        E 80 b1 0b 44
        E 0 91 3e 44
        E 16 b1 0b 3b
        E 16 b1 0b 33
        E 16 b1 0b 2a
        E 32 b1 0b 22
        E 32 81 3e 00
        E 80 b1 0b 44
        E 0 91 3c 44
        E 16 b1 0b 3b
        E 16 b1 0b 33
        E 16 b1 0b 2a
        E 32 b1 0b 22
        E 32 81 3c 00
        E 1040 b1 0b 44
        E 0 91 3c 44
        E 16 b1 0b 3b
        E 16 b1 0b 33
        E 16 b1 0b 2a
        E 32 b1 0b 22
        E 32 81 3c 00
        E 320 b1 0b 44
        E 0 91 37 44
        E 16 b1 0b 3b
        E 16 b1 0b 33
        E 16 b1 0b 2a
        E 32 b1 0b 22
        E 32 81 37 00
        E 320 b1 0b 44
        E 0 91 34 44
        E 16 b1 0b 3b
        E 16 b1 0b 33
        E 16 b1 0b 2a
        E 32 b1 0b 22
        E 32 81 34 00
        E 320 b1 0b 44
        E 0 91 39 44
        E 16 b1 0b 3b
        E 16 b1 0b 33
        E 16 b1 0b 2a
        E 32 b1 0b 22
        E 32 81 39 00
        E 176 b1 0b 44
        E 0 91 3b 44
        E 16 b1 0b 3b
        E 16 b1 0b 33
        E 16 b1 0b 2a
        E 32 b1 0b 22
        E 32 81 3b 00
        E 176 b1 0b 44
        E 0 91 3a 44
        E 16 b1 0b 3b
        E 16 b1 0b 33
        E 16 b1 0b 2a
        E 32 b1 0b 22
        E 32 81 3a 00
        E 32 b1 0b 44
        E 0 91 39 44
        E 16 b1 0b 3b
        E 16 b1 0b 33
        E 16 b1 0b 2a
        E 32 b1 0b 22
        E 32 81 39 00
        E 176 b1 0b 44
        E 0 91 37 44
        E 16 b1 0b 3b
        E 16 b1 0b 33
        E 16 b1 0b 2a
        E 32 b1 0b 22
        E 32 81 37 00
        E 80 b1 0b 44
        E 0 91 40 44
        E 16 b1 0b 3b
        E 16 b1 0b 33
        E 16 b1 0b 2a
        E 32 b1 0b 22
        E 32 81 40 00
        E 80 b1 0b 44
        E 0 91 43 44
        E 16 b1 0b 3b
        E 16 b1 0b 33
        E 16 b1 0b 2a
        E 32 b1 0b 22
        E 32 81 43 00
        E 80 b1 0b 44
        E 0 91 45 44
        E 16 b1 0b 3b
        E 16 b1 0b 33
        E 16 b1 0b 2a
        E 32 b1 0b 22
        E 32 81 45 00
        E 176 b1 0b 44
        E 0 91 41 44
        E 16 b1 0b 3b
        E 16 b1 0b 33
        E 16 b1 0b 2a
        E 32 b1 0b 22
        E 32 81 41 00
        E 32 b1 0b 44
        E 0 91 43 44
        E 16 b1 0b 3b
        E 16 b1 0b 33
        E 16 b1 0b 2a
        E 32 b1 0b 22
        E 32 81 43 00
        E 176 b1 0b 44
        E 0 91 40 44
        E 16 b1 0b 3b
        E 16 b1 0b 33
        E 16 b1 0b 2a
        E 32 b1 0b 22
        E 32 81 40 00
        E 176 b1 0b 44
        E 0 91 3c 44
        E 16 b1 0b 3b
        E 16 b1 0b 33
        E 16 b1 0b 2a
        E 32 b1 0b 22
        E 32 81 3c 00
        E 32 b1 0b 44
        E 0 91 3e 44
        E 16 b1 0b 3b
        E 16 b1 0b 33
        E 16 b1 0b 2a
        E 32 b1 0b 22
        E 32 81 3e 00
        E 32 b1 0b 44
        E 0 91 3b 44
        E 16 b1 0b 3b
        E 16 b1 0b 33
        E 16 b1 0b 2a
        E 32 b1 0b 22
        E 32 81 3b 00
        E 320 b1 0b 44
        E 0 91 3c 44
        E 16 b1 0b 3b
        E 16 b1 0b 33
        E 16 b1 0b 2a
        E 32 b1 0b 22
        E 32 81 3c 00
        E 320 b1 0b 44
        E 0 91 37 44
        E 16 b1 0b 3b
        E 16 b1 0b 33
        E 16 b1 0b 2a
        E 32 b1 0b 22
        E 32 81 37 00
        E 320 b1 0b 44
        E 0 91 34 44
        E 16 b1 0b 3b
        E 16 b1 0b 33
        E 16 b1 0b 2a
        E 32 b1 0b 22
        E 32 81 34 00
        E 320 b1 0b 44
        E 0 91 39 44
        E 16 b1 0b 3b
        E 16 b1 0b 33
        E 16 b1 0b 2a
        E 32 b1 0b 22
        E 32 81 39 00
        E 176 b1 0b 44
        E 0 91 3b 44
        E 16 b1 0b 3b
        E 16 b1 0b 33
        E 16 b1 0b 2a
        E 32 b1 0b 22
        E 32 81 3b 00
        E 176 b1 0b 44
        E 0 91 3a 44
        E 16 b1 0b 3b
        E 16 b1 0b 33
        E 16 b1 0b 2a
        E 32 b1 0b 22
        E 32 81 3a 00
        E 32 b1 0b 44
        E 0 91 39 44
        E 16 b1 0b 3b
        E 16 b1 0b 33
        E 16 b1 0b 2a
        E 32 b1 0b 22
        E 32 81 39 00
        E 176 b1 0b 44
        E 0 91 37 44
        E 16 b1 0b 3b
        E 16 b1 0b 33
        E 16 b1 0b 2a
        E 32 b1 0b 22
        E 32 81 37 00
        E 80 b1 0b 44
        E 0 91 40 44
        E 16 b1 0b 3b
        E 16 b1 0b 33
        E 16 b1 0b 2a
        E 32 b1 0b 22
        E 32 81 40 00
        E 80 b1 0b 44
        E 0 91 43 44
        E 16 b1 0b 3b
        E 16 b1 0b 33
        E 16 b1 0b 2a
        E 32 b1 0b 22
        E 32 81 43 00
        E 80 b1 0b 44
        E 0 91 45 44
        E 16 b1 0b 3b
        E 16 b1 0b 33
        E 16 b1 0b 2a
        E 32 b1 0b 22
        E 32 81 45 00
        E 176 b1 0b 44
        E 0 91 41 44
        E 16 b1 0b 3b
        E 16 b1 0b 33
        E 16 b1 0b 2a
        E 32 b1 0b 22
        E 32 81 41 00
        E 32 b1 0b 44
        E 0 91 43 44
        E 16 b1 0b 3b
        E 16 b1 0b 33
        E 16 b1 0b 2a
        E 32 b1 0b 22
        E 32 81 43 00
        E 176 b1 0b 44
        E 0 91 40 44
        E 16 b1 0b 3b
        E 16 b1 0b 33
        E 16 b1 0b 2a
        E 32 b1 0b 22
        E 32 81 40 00
        E 176 b1 0b 44
        E 0 91 3c 44
        E 16 b1 0b 3b
        E 16 b1 0b 33
        E 16 b1 0b 2a
        E 32 b1 0b 22
        E 32 81 3c 00
        E 32 b1 0b 44
        E 0 91 3e 44
        E 16 b1 0b 3b
        E 16 b1 0b 33
        E 16 b1 0b 2a
        E 32 b1 0b 22
        E 32 81 3e 00
        E 32 b1 0b 44
        E 0 91 3b 44
        E 16 b1 0b 3b
        E 16 b1 0b 33
        E 16 b1 0b 2a
        E 32 b1 0b 22
        E 32 81 3b 00
        E 608 b1 0b 44
        E 0 91 43 44
        E 16 b1 0b 3b
        E 16 b1 0b 33
        E 16 b1 0b 2a
        E 32 b1 0b 22
        E 32 81 43 00
        E 32 b1 0b 44
        E 0 91 42 44
        E 16 b1 0b 3b
        E 16 b1 0b 33
        E 16 b1 0b 2a
        E 32 b1 0b 22
        E 32 81 42 00
        E 32 b1 0b 44
        E 0 91 41 44
        E 16 b1 0b 3b
        E 16 b1 0b 33
        E 16 b1 0b 2a
        E 32 b1 0b 22
        E 32 81 41 00
        E 32 b1 0b 44
        E 0 91 3f 44
        E 16 b1 0b 3b
        E 16 b1 0b 33
        E 16 b1 0b 2a
        E 32 b1 0b 22
        E 32 81 3f 00
        E 176 b1 0b 44
        E 0 91 40 44
        E 16 b1 0b 3b
        E 16 b1 0b 33
        E 16 b1 0b 2a
        E 32 b1 0b 22
        E 32 81 40 00
        E 176 b1 0b 44
        E 0 91 38 44
        E 16 b1 0b 3b
        E 16 b1 0b 33
        E 16 b1 0b 2a
        E 32 b1 0b 22
        E 32 81 38 00
        E 32 b1 0b 44
        E 0 91 39 44
        E 16 b1 0b 3b
        E 16 b1 0b 33
        E 16 b1 0b 2a
        E 32 b1 0b 22
        E 32 81 39 00
        E 32 b1 0b 44
        E 0 91 3c 44
        E 16 b1 0b 3b
        E 16 b1 0b 33
        E 16 b1 0b 2a
        E 32 b1 0b 22
        E 32 81 3c 00
        E 0 ff 2f 00
      >
    >
  >
  <TRACK {BAC2E774-D21D-4172-B3D2-4F961EA2FC88}
    NAME "NES - Triangle [ch2]"
    PEAKCOL 16744192
    BEAT -1
    AUTOMODE 0
    PANLAWFLAGS 3
    VOLPAN 1 0 -1 -1 1
    MUTESOLO 0 0 0
    IPHASE 0
    PLAYOFFS 0 1
    ISBUS 0 0
    BUSCOMP 0 0 0 0 0
    SHOWINMIX 1 0.6667 0.5 1 0.5 0 0 0
    FIXEDLANES 9 0 0 0 0
    SEL 0
    REC 0 5088 1 0 0 0 0 0
    VU 2
    TRACKHEIGHT 0 0 0 0 0 0 0
    INQ 0 0 0 0.5 100 0 0 100
    NCHAN 2
    FX 1
    TRACKID {BAC2E774-D21D-4172-B3D2-4F961EA2FC88}
    PERF 0
    MIDIOUT -1
    MAINSEND 1 0
    <FXCHAIN
      WNDRECT 24 52 700 560
      SHOW 0
      LASTSEL 0
      DOCKED 0
      BYPASS 0 0 0
      <JS "ReapNES Studio/ReapNES_Console.jsfx" ""
        2 15 1 10 80 10 100 2 1 15 1 5 60 10 80 1 1 0 50 0 0 15 1 0 100 0 0 0.500000 0.500000 0.400000 0.300000 0.800000 2 1 0 0 0 0 - - - - - - - - - - - - - - - - - - - - - - - - - -
      >
      FLOATPOS 0 0 0 0
      FXID {3A45735F-A790-44B7-8DDC-48A6F6BC35C8}
      WAK 0 0
    >
    <ITEM
      POSITION 0
      LENGTH 93.5614336
      LOOP 0
      ALLTAKES 0
      FADEIN 0 0 0 0 0 0 0
      FADEOUT 0 0 0 0 0 0 0
      MUTE 0 0
      SEL 0
      IGUID {F1C1214A-7CA4-42CD-AC9B-A72B9E6DB05F}
      <SOURCE MIDI
        HASDATA 1 480 QN
        CCINTERP 32
        E 0 c2 26
        E 0 b2 0b 7f
        E 0 92 32 7f
        E 112 82 32 00
        E 16 b2 0b 7f
        E 0 92 32 7f
        E 128 82 32 00
        E 160 b2 0b 7f
        E 0 92 32 7f
        E 128 82 32 00
        E 160 b2 0b 7f
        E 0 92 32 7f
        E 128 82 32 00
        E 16 b2 0b 7f
        E 0 92 32 7f
        E 128 82 32 00
        E 160 b2 0b 7f
        E 0 92 43 7f
        E 128 82 43 00
        E 448 b2 0b 7f
        E 0 92 37 7f
        E 128 82 37 00
        E 448 b2 0b 7f
        E 0 92 37 7f
        E 128 82 37 00
        E 304 b2 0b 7f
        E 0 92 34 7f
        E 128 82 34 00
        E 304 b2 0b 7f
        E 0 92 30 7f
        E 128 82 30 00
        E 304 b2 0b 7f
        E 0 92 35 7f
        E 128 82 35 00
        E 160 b2 0b 7f
        E 0 92 37 7f
        E 128 82 37 00
        E 160 b2 0b 7f
        E 0 92 36 7f
        E 128 82 36 00
        E 16 b2 0b 7f
        E 0 92 35 7f
        E 128 82 35 00
        E 160 b2 0b 7f
        E 0 92 34 7f
        E 128 82 34 00
        E 64 b2 0b 7f
        E 0 92 3c 7f
        E 128 82 3c 00
        E 64 b2 0b 7f
        E 0 92 40 7f
        E 128 82 40 00
        E 64 b2 0b 7f
        E 0 92 41 7f
        E 128 82 41 00
        E 160 b2 0b 7f
        E 0 92 3e 7f
        E 128 82 3e 00
        E 16 b2 0b 7f
        E 0 92 40 7f
        E 128 82 40 00
        E 160 b2 0b 7f
        E 0 92 3c 7f
        E 128 82 3c 00
        E 160 b2 0b 7f
        E 0 92 39 7f
        E 128 82 39 00
        E 16 b2 0b 7f
        E 0 92 3b 7f
        E 128 82 3b 00
        E 16 b2 0b 7f
        E 0 92 37 7f
        E 128 82 37 00
        E 304 b2 0b 7f
        E 0 92 37 7f
        E 128 82 37 00
        E 304 b2 0b 7f
        E 0 92 34 7f
        E 128 82 34 00
        E 304 b2 0b 7f
        E 0 92 30 7f
        E 128 82 30 00
        E 304 b2 0b 7f
        E 0 92 35 7f
        E 128 82 35 00
        E 160 b2 0b 7f
        E 0 92 37 7f
        E 128 82 37 00
        E 160 b2 0b 7f
        E 0 92 36 7f
        E 128 82 36 00
        E 16 b2 0b 7f
        E 0 92 35 7f
        E 128 82 35 00
        E 160 b2 0b 7f
        E 0 92 34 7f
        E 128 82 34 00
        E 64 b2 0b 7f
        E 0 92 3c 7f
        E 128 82 3c 00
        E 64 b2 0b 7f
        E 0 92 40 7f
        E 128 82 40 00
        E 64 b2 0b 7f
        E 0 92 41 7f
        E 128 82 41 00
        E 160 b2 0b 7f
        E 0 92 3e 7f
        E 128 82 3e 00
        E 16 b2 0b 7f
        E 0 92 40 7f
        E 128 82 40 00
        E 160 b2 0b 7f
        E 0 92 3c 7f
        E 128 82 3c 00
        E 160 b2 0b 7f
        E 0 92 39 7f
        E 128 82 39 00
        E 16 b2 0b 7f
        E 0 92 3b 7f
        E 128 82 3b 00
        E 16 b2 0b 7f
        E 0 92 37 7f
        E 128 82 37 00
        E 304 b2 0b 7f
        E 0 92 30 7f
        E 128 82 30 00
        E 304 b2 0b 7f
        E 0 92 37 7f
        E 128 82 37 00
        E 304 b2 0b 7f
        E 0 92 3c 7f
        E 128 82 3c 00
        E 160 b2 0b 7f
        E 0 92 35 7f
        E 128 82 35 00
        E 304 b2 0b 7f
        E 0 92 3c 7f
        E 128 82 3c 00
        E 16 b2 0b 7f
        E 0 92 3c 7f
        E 128 82 3c 00
        E 160 b2 0b 7f
        E 0 92 35 7f
        E 128 82 35 00
        E 160 b2 0b 7f
        E 0 92 30 7f
        E 128 82 30 00
        E 304 b2 0b 7f
        E 0 92 34 7f
        E 128 82 34 00
        E 304 b2 0b 7f
        E 0 92 37 7f
        E 128 82 37 00
        E 16 b2 0b 7f
        E 0 92 3c 7f
        E 128 82 3c 00
        E 160 b2 0b 7f
        E 0 92 4f 7f
        E 128 82 4f 00
        E 160 b2 0b 7f
        E 0 92 4f 7f
        E 128 82 4f 00
        E 16 b2 0b 7f
        E 0 92 4f 7f
        E 128 82 4f 00
        E 160 b2 0b 7f
        E 0 92 37 7f
        E 128 82 37 00
        E 160 b2 0b 7f
        E 0 92 30 7f
        E 128 82 30 00
        E 304 b2 0b 7f
        E 0 92 37 7f
        E 128 82 37 00
        E 304 b2 0b 7f
        E 0 92 3c 7f
        E 128 82 3c 00
        E 160 b2 0b 7f
        E 0 92 35 7f
        E 128 82 35 00
        E 304 b2 0b 7f
        E 0 92 3c 7f
        E 128 82 3c 00
        E 16 b2 0b 7f
        E 0 92 3c 7f
        E 128 82 3c 00
        E 160 b2 0b 7f
        E 0 92 35 7f
        E 128 82 35 00
        E 160 b2 0b 7f
        E 0 92 30 7f
        E 128 82 30 00
        E 160 b2 0b 7f
        E 0 92 38 7f
        E 128 82 38 00
        E 304 b2 0b 7f
        E 0 92 3a 7f
        E 128 82 3a 00
        E 304 b2 0b 7f
        E 0 92 3c 7f
        E 128 82 3c 00
        E 304 b2 0b 7f
        E 0 92 37 7f
        E 128 82 37 00
        E 16 b2 0b 7f
        E 0 92 37 7f
        E 128 82 37 00
        E 160 b2 0b 7f
        E 0 92 30 7f
        E 128 82 30 00
        E 160 b2 0b 7f
        E 0 92 30 7f
        E 128 82 30 00
        E 304 b2 0b 7f
        E 0 92 37 7f
        E 128 82 37 00
        E 304 b2 0b 7f
        E 0 92 3c 7f
        E 128 82 3c 00
        E 160 b2 0b 7f
        E 0 92 35 7f
        E 128 82 35 00
        E 304 b2 0b 7f
        E 0 92 3c 7f
        E 128 82 3c 00
        E 16 b2 0b 7f
        E 0 92 3c 7f
        E 128 82 3c 00
        E 160 b2 0b 7f
        E 0 92 35 7f
        E 128 82 35 00
        E 160 b2 0b 7f
        E 0 92 30 7f
        E 128 82 30 00
        E 304 b2 0b 7f
        E 0 92 34 7f
        E 128 82 34 00
        E 304 b2 0b 7f
        E 0 92 37 7f
        E 128 82 37 00
        E 16 b2 0b 7f
        E 0 92 3c 7f
        E 128 82 3c 00
        E 160 b2 0b 7f
        E 0 92 4f 7f
        E 128 82 4f 00
        E 160 b2 0b 7f
        E 0 92 4f 7f
        E 128 82 4f 00
        E 16 b2 0b 7f
        E 0 92 4f 7f
        E 128 82 4f 00
        E 160 b2 0b 7f
        E 0 92 37 7f
        E 128 82 37 00
        E 160 b2 0b 7f
        E 0 92 30 7f
        E 128 82 30 00
        E 304 b2 0b 7f
        E 0 92 37 7f
        E 128 82 37 00
        E 304 b2 0b 7f
        E 0 92 3c 7f
        E 128 82 3c 00
        E 160 b2 0b 7f
        E 0 92 35 7f
        E 128 82 35 00
        E 304 b2 0b 7f
        E 0 92 3c 7f
        E 128 82 3c 00
        E 16 b2 0b 7f
        E 0 92 3c 7f
        E 128 82 3c 00
        E 160 b2 0b 7f
        E 0 92 35 7f
        E 128 82 35 00
        E 160 b2 0b 7f
        E 0 92 30 7f
        E 128 82 30 00
        E 160 b2 0b 7f
        E 0 92 38 7f
        E 128 82 38 00
        E 304 b2 0b 7f
        E 0 92 3a 7f
        E 128 82 3a 00
        E 304 b2 0b 7f
        E 0 92 3c 7f
        E 128 82 3c 00
        E 304 b2 0b 7f
        E 0 92 37 7f
        E 128 82 37 00
        E 16 b2 0b 7f
        E 0 92 37 7f
        E 128 82 37 00
        E 160 b2 0b 7f
        E 0 92 30 7f
        E 128 82 30 00
        E 160 b2 0b 7f
        E 0 92 2c 7f
        E 128 82 2c 00
        E 304 b2 0b 7f
        E 0 92 33 7f
        E 128 82 33 00
        E 304 b2 0b 7f
        E 0 92 38 7f
        E 128 82 38 00
        E 160 b2 0b 7f
        E 0 92 37 7f
        E 128 82 37 00
        E 304 b2 0b 7f
        E 0 92 30 7f
        E 128 82 30 00
        E 304 b2 0b 7f
        E 0 92 2b 7f
        E 128 82 2b 00
        E 160 b2 0b 7f
        E 0 92 2c 7f
        E 128 82 2c 00
        E 304 b2 0b 7f
        E 0 92 33 7f
        E 128 82 33 00
        E 304 b2 0b 7f
        E 0 92 38 7f
        E 128 82 38 00
        E 160 b2 0b 7f
        E 0 92 37 7f
        E 128 82 37 00
        E 304 b2 0b 7f
        E 0 92 30 7f
        E 128 82 30 00
        E 304 b2 0b 7f
        E 0 92 2b 7f
        E 128 82 2b 00
        E 160 b2 0b 7f
        E 0 92 2c 7f
        E 128 82 2c 00
        E 304 b2 0b 7f
        E 0 92 33 7f
        E 128 82 33 00
        E 304 b2 0b 7f
        E 0 92 38 7f
        E 128 82 38 00
        E 160 b2 0b 7f
        E 0 92 37 7f
        E 128 82 37 00
        E 304 b2 0b 7f
        E 0 92 30 7f
        E 128 82 30 00
        E 304 b2 0b 7f
        E 0 92 2b 7f
        E 128 82 2b 00
        E 160 b2 0b 7f
        E 0 92 32 7f
        E 128 82 32 00
        E 16 b2 0b 7f
        E 0 92 32 7f
        E 128 82 32 00
        E 160 b2 0b 7f
        E 0 92 32 7f
        E 128 82 32 00
        E 160 b2 0b 7f
        E 0 92 32 7f
        E 128 82 32 00
        E 16 b2 0b 7f
        E 0 92 32 7f
        E 128 82 32 00
        E 160 b2 0b 7f
        E 0 92 43 7f
        E 128 82 43 00
        E 448 b2 0b 7f
        E 0 92 37 7f
        E 128 82 37 00
        E 448 b2 0b 7f
        E 0 92 37 7f
        E 128 82 37 00
        E 304 b2 0b 7f
        E 0 92 34 7f
        E 128 82 34 00
        E 304 b2 0b 7f
        E 0 92 30 7f
        E 128 82 30 00
        E 304 b2 0b 7f
        E 0 92 35 7f
        E 128 82 35 00
        E 160 b2 0b 7f
        E 0 92 37 7f
        E 128 82 37 00
        E 160 b2 0b 7f
        E 0 92 36 7f
        E 128 82 36 00
        E 16 b2 0b 7f
        E 0 92 35 7f
        E 128 82 35 00
        E 160 b2 0b 7f
        E 0 92 34 7f
        E 128 82 34 00
        E 64 b2 0b 7f
        E 0 92 3c 7f
        E 128 82 3c 00
        E 64 b2 0b 7f
        E 0 92 40 7f
        E 128 82 40 00
        E 64 b2 0b 7f
        E 0 92 41 7f
        E 128 82 41 00
        E 160 b2 0b 7f
        E 0 92 3e 7f
        E 128 82 3e 00
        E 16 b2 0b 7f
        E 0 92 40 7f
        E 128 82 40 00
        E 160 b2 0b 7f
        E 0 92 3c 7f
        E 128 82 3c 00
        E 160 b2 0b 7f
        E 0 92 39 7f
        E 128 82 39 00
        E 16 b2 0b 7f
        E 0 92 3b 7f
        E 128 82 3b 00
        E 16 b2 0b 7f
        E 0 92 37 7f
        E 128 82 37 00
        E 304 b2 0b 7f
        E 0 92 37 7f
        E 128 82 37 00
        E 304 b2 0b 7f
        E 0 92 34 7f
        E 128 82 34 00
        E 304 b2 0b 7f
        E 0 92 30 7f
        E 128 82 30 00
        E 304 b2 0b 7f
        E 0 92 35 7f
        E 128 82 35 00
        E 160 b2 0b 7f
        E 0 92 37 7f
        E 128 82 37 00
        E 160 b2 0b 7f
        E 0 92 36 7f
        E 128 82 36 00
        E 16 b2 0b 7f
        E 0 92 35 7f
        E 128 82 35 00
        E 160 b2 0b 7f
        E 0 92 34 7f
        E 128 82 34 00
        E 64 b2 0b 7f
        E 0 92 3c 7f
        E 128 82 3c 00
        E 64 b2 0b 7f
        E 0 92 40 7f
        E 128 82 40 00
        E 64 b2 0b 7f
        E 0 92 41 7f
        E 128 82 41 00
        E 160 b2 0b 7f
        E 0 92 3e 7f
        E 128 82 3e 00
        E 16 b2 0b 7f
        E 0 92 40 7f
        E 128 82 40 00
        E 160 b2 0b 7f
        E 0 92 3c 7f
        E 128 82 3c 00
        E 160 b2 0b 7f
        E 0 92 39 7f
        E 128 82 39 00
        E 16 b2 0b 7f
        E 0 92 3b 7f
        E 128 82 3b 00
        E 16 b2 0b 7f
        E 0 92 37 7f
        E 128 82 37 00
        E 304 b2 0b 7f
        E 0 92 30 7f
        E 128 82 30 00
        E 304 b2 0b 7f
        E 0 92 36 7f
        E 128 82 36 00
        E 16 b2 0b 7f
        E 0 92 37 7f
        E 128 82 37 00
        E 160 b2 0b 7f
        E 0 92 3c 7f
        E 128 82 3c 00
        E 160 b2 0b 7f
        E 0 92 35 7f
        E 128 82 35 00
        E 160 b2 0b 7f
        E 0 92 35 7f
        E 128 82 35 00
        E 160 b2 0b 7f
        E 0 92 3c 7f
        E 128 82 3c 00
        E 16 b2 0b 7f
        E 0 92 3c 7f
        E 128 82 3c 00
        E 16 b2 0b 7f
        E 0 92 35 7f
        E 128 82 35 00
        E 160 b2 0b 7f
        E 0 92 32 7f
        E 128 82 32 00
        E 304 b2 0b 7f
        E 0 92 35 7f
        E 128 82 35 00
        E 16 b2 0b 7f
        E 0 92 37 7f
        E 128 82 37 00
        E 160 b2 0b 7f
        E 0 92 3b 7f
        E 128 82 3b 00
        E 160 b2 0b 7f
        E 0 92 37 7f
        E 128 82 37 00
        E 160 b2 0b 7f
        E 0 92 37 7f
        E 128 82 37 00
        E 160 b2 0b 7f
        E 0 92 3c 7f
        E 128 82 3c 00
        E 16 b2 0b 7f
        E 0 92 3c 7f
        E 128 82 3c 00
        E 16 b2 0b 7f
        E 0 92 37 7f
        E 128 82 37 00
        E 160 b2 0b 7f
        E 0 92 30 7f
        E 128 82 30 00
        E 304 b2 0b 7f
        E 0 92 36 7f
        E 128 82 36 00
        E 16 b2 0b 7f
        E 0 92 37 7f
        E 128 82 37 00
        E 160 b2 0b 7f
        E 0 92 3c 7f
        E 128 82 3c 00
        E 160 b2 0b 7f
        E 0 92 35 7f
        E 128 82 35 00
        E 160 b2 0b 7f
        E 0 92 35 7f
        E 128 82 35 00
        E 160 b2 0b 7f
        E 0 92 3c 7f
        E 128 82 3c 00
        E 16 b2 0b 7f
        E 0 92 3c 7f
        E 128 82 3c 00
        E 16 b2 0b 7f
        E 0 92 35 7f
        E 128 82 35 00
        E 160 b2 0b 7f
        E 0 92 37 7f
        E 128 82 37 00
        E 304 b2 0b 7f
        E 0 92 37 7f
        E 128 82 37 00
        E 16 b2 0b 7f
        E 0 92 37 7f
        E 128 82 37 00
        E 64 b2 0b 7f
        E 0 92 39 7f
        E 128 82 39 00
        E 64 b2 0b 7f
        E 0 92 3b 7f
        E 128 82 3b 00
        E 64 b2 0b 7f
        E 0 92 3c 7f
        E 128 82 3c 00
        E 160 b2 0b 7f
        E 0 92 37 7f
        E 128 82 37 00
        E 160 b2 0b 7f
        E 0 92 30 7f
        E 128 82 30 00
        E 448 b2 0b 7f
        E 0 92 30 7f
        E 128 82 30 00
        E 304 b2 0b 7f
        E 0 92 36 7f
        E 128 82 36 00
        E 16 b2 0b 7f
        E 0 92 37 7f
        E 128 82 37 00
        E 160 b2 0b 7f
        E 0 92 3c 7f
        E 128 82 3c 00
        E 160 b2 0b 7f
        E 0 92 35 7f
        E 128 82 35 00
        E 160 b2 0b 7f
        E 0 92 35 7f
        E 128 82 35 00
        E 160 b2 0b 7f
        E 0 92 3c 7f
        E 128 82 3c 00
        E 16 b2 0b 7f
        E 0 92 3c 7f
        E 128 82 3c 00
        E 16 b2 0b 7f
        E 0 92 35 7f
        E 128 82 35 00
        E 160 b2 0b 7f
        E 0 92 32 7f
        E 128 82 32 00
        E 304 b2 0b 7f
        E 0 92 35 7f
        E 128 82 35 00
        E 16 b2 0b 7f
        E 0 92 37 7f
        E 128 82 37 00
        E 160 b2 0b 7f
        E 0 92 3b 7f
        E 128 82 3b 00
        E 160 b2 0b 7f
        E 0 92 37 7f
        E 128 82 37 00
        E 160 b2 0b 7f
        E 0 92 37 7f
        E 128 82 37 00
        E 160 b2 0b 7f
        E 0 92 3c 7f
        E 128 82 3c 00
        E 16 b2 0b 7f
        E 0 92 3c 7f
        E 128 82 3c 00
        E 16 b2 0b 7f
        E 0 92 37 7f
        E 128 82 37 00
        E 160 b2 0b 7f
        E 0 92 30 7f
        E 128 82 30 00
        E 304 b2 0b 7f
        E 0 92 36 7f
        E 128 82 36 00
        E 16 b2 0b 7f
        E 0 92 37 7f
        E 128 82 37 00
        E 160 b2 0b 7f
        E 0 92 3c 7f
        E 128 82 3c 00
        E 160 b2 0b 7f
        E 0 92 35 7f
        E 128 82 35 00
        E 160 b2 0b 7f
        E 0 92 35 7f
        E 128 82 35 00
        E 160 b2 0b 7f
        E 0 92 3c 7f
        E 128 82 3c 00
        E 16 b2 0b 7f
        E 0 92 3c 7f
        E 128 82 3c 00
        E 16 b2 0b 7f
        E 0 92 35 7f
        E 128 82 35 00
        E 160 b2 0b 7f
        E 0 92 37 7f
        E 128 82 37 00
        E 304 b2 0b 7f
        E 0 92 37 7f
        E 128 82 37 00
        E 16 b2 0b 7f
        E 0 92 37 7f
        E 128 82 37 00
        E 64 b2 0b 7f
        E 0 92 39 7f
        E 128 82 39 00
        E 64 b2 0b 7f
        E 0 92 3b 7f
        E 128 82 3b 00
        E 64 b2 0b 7f
        E 0 92 3c 7f
        E 128 82 3c 00
        E 160 b2 0b 7f
        E 0 92 37 7f
        E 128 82 37 00
        E 160 b2 0b 7f
        E 0 92 30 7f
        E 128 82 30 00
        E 448 b2 0b 7f
        E 0 92 2c 7f
        E 128 82 2c 00
        E 304 b2 0b 7f
        E 0 92 33 7f
        E 128 82 33 00
        E 304 b2 0b 7f
        E 0 92 38 7f
        E 128 82 38 00
        E 160 b2 0b 7f
        E 0 92 37 7f
        E 128 82 37 00
        E 304 b2 0b 7f
        E 0 92 30 7f
        E 128 82 30 00
        E 304 b2 0b 7f
        E 0 92 2b 7f
        E 128 82 2b 00
        E 160 b2 0b 7f
        E 0 92 2c 7f
        E 128 82 2c 00
        E 304 b2 0b 7f
        E 0 92 33 7f
        E 128 82 33 00
        E 304 b2 0b 7f
        E 0 92 38 7f
        E 128 82 38 00
        E 160 b2 0b 7f
        E 0 92 37 7f
        E 128 82 37 00
        E 304 b2 0b 7f
        E 0 92 30 7f
        E 128 82 30 00
        E 304 b2 0b 7f
        E 0 92 2b 7f
        E 128 82 2b 00
        E 160 b2 0b 7f
        E 0 92 2c 7f
        E 128 82 2c 00
        E 304 b2 0b 7f
        E 0 92 33 7f
        E 128 82 33 00
        E 304 b2 0b 7f
        E 0 92 38 7f
        E 128 82 38 00
        E 160 b2 0b 7f
        E 0 92 37 7f
        E 128 82 37 00
        E 304 b2 0b 7f
        E 0 92 30 7f
        E 128 82 30 00
        E 304 b2 0b 7f
        E 0 92 2b 7f
        E 128 82 2b 00
        E 160 b2 0b 7f
        E 0 92 32 7f
        E 128 82 32 00
        E 16 b2 0b 7f
        E 0 92 32 7f
        E 128 82 32 00
        E 160 b2 0b 7f
        E 0 92 32 7f
        E 128 82 32 00
        E 160 b2 0b 7f
        E 0 92 32 7f
        E 128 82 32 00
        E 16 b2 0b 7f
        E 0 92 32 7f
        E 128 82 32 00
        E 160 b2 0b 7f
        E 0 92 43 7f
        E 128 82 43 00
        E 448 b2 0b 7f
        E 0 92 37 7f
        E 128 82 37 00
        E 448 b2 0b 7f
        E 0 92 30 7f
        E 128 82 30 00
        E 304 b2 0b 7f
        E 0 92 36 7f
        E 128 82 36 00
        E 16 b2 0b 7f
        E 0 92 37 7f
        E 128 82 37 00
        E 160 b2 0b 7f
        E 0 92 3c 7f
        E 128 82 3c 00
        E 160 b2 0b 7f
        E 0 92 35 7f
        E 128 82 35 00
        E 160 b2 0b 7f
        E 0 92 35 7f
        E 128 82 35 00
        E 160 b2 0b 7f
        E 0 92 3c 7f
        E 128 82 3c 00
        E 16 b2 0b 7f
        E 0 92 3c 7f
        E 128 82 3c 00
        E 16 b2 0b 7f
        E 0 92 35 7f
        E 128 82 35 00
        E 160 b2 0b 7f
        E 0 92 32 7f
        E 128 82 32 00
        E 304 b2 0b 7f
        E 0 92 35 7f
        E 128 82 35 00
        E 16 b2 0b 7f
        E 0 92 37 7f
        E 128 82 37 00
        E 160 b2 0b 7f
        E 0 92 3b 7f
        E 128 82 3b 00
        E 160 b2 0b 7f
        E 0 92 37 7f
        E 128 82 37 00
        E 160 b2 0b 7f
        E 0 92 37 7f
        E 128 82 37 00
        E 160 b2 0b 7f
        E 0 92 3c 7f
        E 128 82 3c 00
        E 16 b2 0b 7f
        E 0 92 3c 7f
        E 128 82 3c 00
        E 16 b2 0b 7f
        E 0 92 37 7f
        E 128 82 37 00
        E 160 b2 0b 7f
        E 0 92 30 7f
        E 128 82 30 00
        E 304 b2 0b 7f
        E 0 92 36 7f
        E 128 82 36 00
        E 16 b2 0b 7f
        E 0 92 37 7f
        E 128 82 37 00
        E 160 b2 0b 7f
        E 0 92 3c 7f
        E 128 82 3c 00
        E 160 b2 0b 7f
        E 0 92 35 7f
        E 128 82 35 00
        E 160 b2 0b 7f
        E 0 92 35 7f
        E 128 82 35 00
        E 160 b2 0b 7f
        E 0 92 3c 7f
        E 128 82 3c 00
        E 16 b2 0b 7f
        E 0 92 3c 7f
        E 128 82 3c 00
        E 16 b2 0b 7f
        E 0 92 35 7f
        E 128 82 35 00
        E 160 b2 0b 7f
        E 0 92 37 7f
        E 128 82 37 00
        E 304 b2 0b 7f
        E 0 92 37 7f
        E 128 82 37 00
        E 16 b2 0b 7f
        E 0 92 37 7f
        E 128 82 37 00
        E 64 b2 0b 7f
        E 0 92 39 7f
        E 128 82 39 00
        E 64 b2 0b 7f
        E 0 92 3b 7f
        E 128 82 3b 00
        E 64 b2 0b 7f
        E 0 92 3c 7f
        E 128 82 3c 00
        E 160 b2 0b 7f
        E 0 92 37 7f
        E 128 82 37 00
        E 160 b2 0b 7f
        E 0 92 30 7f
        E 128 82 30 00
        E 448 b2 0b 7f
        E 0 92 37 7f
        E 128 82 37 00
        E 304 b2 0b 7f
        E 0 92 34 7f
        E 128 82 34 00
        E 304 b2 0b 7f
        E 0 92 30 7f
        E 128 82 30 00
        E 304 b2 0b 7f
        E 0 92 35 7f
        E 128 82 35 00
        E 160 b2 0b 7f
        E 0 92 37 7f
        E 128 82 37 00
        E 160 b2 0b 7f
        E 0 92 36 7f
        E 128 82 36 00
        E 16 b2 0b 7f
        E 0 92 35 7f
        E 128 82 35 00
        E 160 b2 0b 7f
        E 0 92 34 7f
        E 128 82 34 00
        E 64 b2 0b 7f
        E 0 92 3c 7f
        E 128 82 3c 00
        E 64 b2 0b 7f
        E 0 92 40 7f
        E 128 82 40 00
        E 64 b2 0b 7f
        E 0 92 41 7f
        E 128 82 41 00
        E 160 b2 0b 7f
        E 0 92 3e 7f
        E 128 82 3e 00
        E 16 b2 0b 7f
        E 0 92 40 7f
        E 128 82 40 00
        E 160 b2 0b 7f
        E 0 92 3c 7f
        E 128 82 3c 00
        E 160 b2 0b 7f
        E 0 92 39 7f
        E 128 82 39 00
        E 16 b2 0b 7f
        E 0 92 3b 7f
        E 128 82 3b 00
        E 16 b2 0b 7f
        E 0 92 37 7f
        E 128 82 37 00
        E 304 b2 0b 7f
        E 0 92 37 7f
        E 128 82 37 00
        E 304 b2 0b 7f
        E 0 92 34 7f
        E 128 82 34 00
        E 304 b2 0b 7f
        E 0 92 30 7f
        E 128 82 30 00
        E 304 b2 0b 7f
        E 0 92 35 7f
        E 128 82 35 00
        E 160 b2 0b 7f
        E 0 92 37 7f
        E 128 82 37 00
        E 160 b2 0b 7f
        E 0 92 36 7f
        E 128 82 36 00
        E 16 b2 0b 7f
        E 0 92 35 7f
        E 128 82 35 00
        E 160 b2 0b 7f
        E 0 92 34 7f
        E 128 82 34 00
        E 64 b2 0b 7f
        E 0 92 3c 7f
        E 128 82 3c 00
        E 64 b2 0b 7f
        E 0 92 40 7f
        E 128 82 40 00
        E 64 b2 0b 7f
        E 0 92 41 7f
        E 128 82 41 00
        E 160 b2 0b 7f
        E 0 92 3e 7f
        E 128 82 3e 00
        E 16 b2 0b 7f
        E 0 92 40 7f
        E 128 82 40 00
        E 160 b2 0b 7f
        E 0 92 3c 7f
        E 128 82 3c 00
        E 160 b2 0b 7f
        E 0 92 39 7f
        E 128 82 39 00
        E 16 b2 0b 7f
        E 0 92 3b 7f
        E 128 82 3b 00
        E 16 b2 0b 7f
        E 0 92 37 7f
        E 128 82 37 00
        E 304 b2 0b 7f
        E 0 92 30 7f
        E 128 82 30 00
        E 304 b2 0b 7f
        E 0 92 37 7f
        E 128 82 37 00
        E 304 b2 0b 7f
        E 0 92 3c 7f
        E 128 82 3c 00
        E 160 b2 0b 7f
        E 0 92 35 7f
        E 128 82 35 00
        E 304 b2 0b 7f
        E 0 92 3c 7f
        E 128 82 3c 00
        E 16 b2 0b 7f
        E 0 92 3c 7f
        E 80 82 3c 00
        E 0 ff 2f 00
      >
    >
  >
  <TRACK {6BE43187-BC46-4987-9AB3-1208E0CB6B05}
    NAME "NES - Noise / Drums [ch3]"
    PEAKCOL 11184810
    BEAT -1
    AUTOMODE 0
    PANLAWFLAGS 3
    VOLPAN 1 0 -1 -1 1
    MUTESOLO 0 0 0
    IPHASE 0
    PLAYOFFS 0 1
    ISBUS 0 0
    BUSCOMP 0 0 0 0 0
    SHOWINMIX 1 0.6667 0.5 1 0.5 0 0 0
    FIXEDLANES 9 0 0 0 0
    SEL 0
    REC 0 5088 1 0 0 0 0 0
    VU 2
    TRACKHEIGHT 0 0 0 0 0 0 0
    INQ 0 0 0 0.5 100 0 0 100
    NCHAN 2
    FX 1
    TRACKID {6BE43187-BC46-4987-9AB3-1208E0CB6B05}
    PERF 0
    MIDIOUT -1
    MAINSEND 1 0
    <FXCHAIN
      WNDRECT 24 52 700 560
      SHOW 0
      LASTSEL 0
      DOCKED 0
      BYPASS 0 0 0
      <JS "ReapNES Studio/ReapNES_Console.jsfx" ""
        2 15 1 10 80 10 100 2 1 15 1 5 60 10 80 1 1 0 50 0 0 15 1 0 100 0 0 0.500000 0.500000 0.400000 0.300000 0.800000 3 1 0 0 0 0 - - - - - - - - - - - - - - - - - - - - - - - - - -
      >
      FLOATPOS 0 0 0 0
      FXID {B173F85D-101C-4F09-A27A-5BAECAF19246}
      WAK 0 0
    >
    <ITEM
      POSITION 0
      LENGTH 93.5614336
      LOOP 0
      ALLTAKES 0
      FADEIN 0 0 0 0 0 0 0
      FADEOUT 0 0 0 0 0 0 0
      MUTE 0 0
      SEL 0
      IGUID {8B77F1F9-81E2-4212-98E1-718598310347}
      <SOURCE MIDI
        HASDATA 1 480 QN
        CCINTERP 32
        E 0 93 2a 66
        E 2288 83 2a 00
        E 0 93 2d 66
        E 288 83 2d 00
        E 0 93 2a 66
        E 96 83 2a 00
        E 96 93 2a 66
        E 480 83 2a 00
        E 96 93 2a 66
        E 96 83 2a 00
        E 0 93 2d 66
        E 288 83 2d 00
        E 0 93 2a 66
        E 96 83 2a 00
        E 96 93 2a 66
        E 480 83 2a 00
        E 96 93 2a 66
        E 96 83 2a 00
        E 0 93 2d 66
        E 288 83 2d 00
        E 0 93 2a 66
        E 96 83 2a 00
        E 96 93 2a 66
        E 480 83 2a 00
        E 96 93 2a 66
        E 96 83 2a 00
        E 0 93 2d 66
        E 288 83 2d 00
        E 0 93 2a 66
        E 96 83 2a 00
        E 96 93 2a 66
        E 480 83 2a 00
        E 96 93 2a 66
        E 96 83 2a 00
        E 0 93 2d 66
        E 288 83 2d 00
        E 0 93 2a 66
        E 96 83 2a 00
        E 96 93 2a 66
        E 480 83 2a 00
        E 96 93 2a 66
        E 96 83 2a 00
        E 0 93 2d 66
        E 288 83 2d 00
        E 0 93 2a 66
        E 96 83 2a 00
        E 96 93 2a 66
        E 480 83 2a 00
        E 96 93 2a 66
        E 96 83 2a 00
        E 0 93 2d 66
        E 288 83 2d 00
        E 0 93 2a 66
        E 96 83 2a 00
        E 96 93 2a 66
        E 480 83 2a 00
        E 96 93 2a 66
        E 96 83 2a 00
        E 0 93 2d 66
        E 288 83 2d 00
        E 0 93 2a 66
        E 96 83 2a 00
        E 96 93 2a 66
        E 480 83 2a 00
        E 96 93 2a 66
        E 96 83 2a 00
        E 0 93 2d 66
        E 288 83 2d 00
        E 0 93 2a 66
        E 96 83 2a 00
        E 96 93 2a 66
        E 480 83 2a 00
        E 96 93 2a 66
        E 96 83 2a 00
        E 0 93 2d 66
        E 288 83 2d 00
        E 0 93 2a 66
        E 96 83 2a 00
        E 96 93 2a 66
        E 480 83 2a 00
        E 96 93 2a 66
        E 96 83 2a 00
        E 0 93 2d 66
        E 288 83 2d 00
        E 0 93 2a 66
        E 96 83 2a 00
        E 96 93 2a 66
        E 480 83 2a 00
        E 96 93 2a 66
        E 96 83 2a 00
        E 0 93 2d 66
        E 288 83 2d 00
        E 0 93 2a 66
        E 96 83 2a 00
        E 96 93 2a 66
        E 480 83 2a 00
        E 96 93 2a 66
        E 96 83 2a 00
        E 0 93 2d 66
        E 288 83 2d 00
        E 0 93 2a 66
        E 96 83 2a 00
        E 96 93 2a 66
        E 480 83 2a 00
        E 96 93 2a 66
        E 96 83 2a 00
        E 0 93 2d 66
        E 288 83 2d 00
        E 0 93 2a 66
        E 96 83 2a 00
        E 96 93 2a 66
        E 480 83 2a 00
        E 96 93 2a 66
        E 96 83 2a 00
        E 0 93 2d 66
        E 288 83 2d 00
        E 0 93 2a 66
        E 96 83 2a 00
        E 96 93 2a 66
        E 480 83 2a 00
        E 96 93 2a 66
        E 96 83 2a 00
        E 0 93 2d 66
        E 288 83 2d 00
        E 0 93 2a 66
        E 96 83 2a 00
        E 96 93 2a 66
        E 480 83 2a 00
        E 96 93 2a 66
        E 96 83 2a 00
        E 0 93 2d 66
        E 288 83 2d 00
        E 0 93 2a 66
        E 96 83 2a 00
        E 96 93 2a 66
        E 480 83 2a 00
        E 96 93 2a 66
        E 96 83 2a 00
        E 0 93 2d 66
        E 288 83 2d 00
        E 0 93 2a 66
        E 96 83 2a 00
        E 96 93 2a 66
        E 480 83 2a 00
        E 96 93 2a 66
        E 96 83 2a 00
        E 0 93 2d 66
        E 288 83 2d 00
        E 0 93 2a 66
        E 96 83 2a 00
        E 96 93 2a 66
        E 480 83 2a 00
        E 96 93 2a 66
        E 96 83 2a 00
        E 0 93 2d 66
        E 288 83 2d 00
        E 0 93 2a 66
        E 96 83 2a 00
        E 96 93 2a 66
        E 480 83 2a 00
        E 96 93 2a 66
        E 96 83 2a 00
        E 0 93 2d 66
        E 288 83 2d 00
        E 0 93 2a 66
        E 96 83 2a 00
        E 96 93 2a 66
        E 480 83 2a 00
        E 96 93 2a 66
        E 96 83 2a 00
        E 0 93 2d 66
        E 288 83 2d 00
        E 0 93 2a 66
        E 96 83 2a 00
        E 96 93 2a 66
        E 480 83 2a 00
        E 96 93 2a 66
        E 96 83 2a 00
        E 0 93 2d 66
        E 288 83 2d 00
        E 0 93 2a 66
        E 96 83 2a 00
        E 96 93 2a 66
        E 480 83 2a 00
        E 96 93 2a 66
        E 96 83 2a 00
        E 0 93 2d 66
        E 288 83 2d 00
        E 0 93 2a 66
        E 96 83 2a 00
        E 96 93 2a 66
        E 480 83 2a 00
        E 96 93 2a 66
        E 9312 83 2a 00
        E 0 93 2d 66
        E 288 83 2d 00
        E 0 93 2a 66
        E 96 83 2a 00
        E 96 93 2a 66
        E 480 83 2a 00
        E 96 93 2a 66
        E 96 83 2a 00
        E 0 93 2d 66
        E 288 83 2d 00
        E 0 93 2a 66
        E 96 83 2a 00
        E 96 93 2a 66
        E 480 83 2a 00
        E 96 93 2a 66
        E 96 83 2a 00
        E 0 93 2d 66
        E 288 83 2d 00
        E 0 93 2a 66
        E 96 83 2a 00
        E 96 93 2a 66
        E 480 83 2a 00
        E 96 93 2a 66
        E 96 83 2a 00
        E 0 93 2d 66
        E 288 83 2d 00
        E 0 93 2a 66
        E 96 83 2a 00
        E 96 93 2a 66
        E 480 83 2a 00
        E 96 93 2a 66
        E 96 83 2a 00
        E 0 93 2d 66
        E 288 83 2d 00
        E 0 93 2a 66
        E 96 83 2a 00
        E 96 93 2a 66
        E 480 83 2a 00
        E 96 93 2a 66
        E 96 83 2a 00
        E 0 93 2d 66
        E 288 83 2d 00
        E 0 93 2a 66
        E 96 83 2a 00
        E 96 93 2a 66
        E 480 83 2a 00
        E 96 93 2a 66
        E 96 83 2a 00
        E 0 93 2d 66
        E 288 83 2d 00
        E 0 93 2a 66
        E 96 83 2a 00
        E 96 93 2a 66
        E 480 83 2a 00
        E 96 93 2a 66
        E 96 83 2a 00
        E 0 93 2d 66
        E 288 83 2d 00
        E 0 93 2a 66
        E 96 83 2a 00
        E 96 93 2a 66
        E 480 83 2a 00
        E 96 93 2a 66
        E 36960 83 2a 00
        E 0 93 2d 66
        E 288 83 2d 00
        E 0 93 2a 66
        E 96 83 2a 00
        E 96 93 2a 66
        E 480 83 2a 00
        E 96 93 2a 66
        E 96 83 2a 00
        E 0 93 2d 66
        E 288 83 2d 00
        E 0 93 2a 66
        E 96 83 2a 00
        E 96 93 2a 66
        E 480 83 2a 00
        E 96 93 2a 66
        E 96 83 2a 00
        E 0 93 2d 66
        E 288 83 2d 00
        E 0 93 2a 66
        E 96 83 2a 00
        E 96 93 2a 66
        E 480 83 2a 00
        E 96 93 2a 66
        E 96 83 2a 00
        E 0 93 2d 66
        E 288 83 2d 00
        E 0 93 2a 66
        E 96 83 2a 00
        E 96 93 2a 66
        E 480 83 2a 00
        E 96 93 2a 66
        E 96 83 2a 00
        E 0 93 2d 66
        E 288 83 2d 00
        E 0 93 2a 66
        E 96 83 2a 00
        E 96 93 2a 66
        E 480 83 2a 00
        E 96 93 2a 66
        E 96 83 2a 00
        E 0 93 2d 66
        E 288 83 2d 00
        E 0 93 2a 66
        E 96 83 2a 00
        E 96 93 2a 66
        E 480 83 2a 00
        E 96 93 2a 66
        E 96 83 2a 00
        E 0 93 2d 66
        E 288 83 2d 00
        E 0 93 2a 66
        E 96 83 2a 00
        E 96 93 2a 66
        E 480 83 2a 00
        E 96 93 2a 66
        E 96 83 2a 00
        E 0 93 2d 66
        E 288 83 2d 00
        E 0 93 2a 66
        E 96 83 2a 00
        E 96 93 2a 66
        E 480 83 2a 00
        E 96 93 2a 66
        E 96 83 2a 00
        E 0 93 2d 66
        E 288 83 2d 00
        E 0 93 2a 66
        E 96 83 2a 00
        E 96 93 2a 66
        E 480 83 2a 00
        E 96 93 2a 66
        E 96 83 2a 00
        E 0 93 2d 66
        E 288 83 2d 00
        E 0 93 2a 66
        E 96 83 2a 00
        E 96 93 2a 66
        E 176 83 2a 00
        E 0 ff 2f 00
      >
    >
  >
>