<REAPER_PROJECT 0.1 "7.27/win64" 1707000000
  <NOTES 0 2
    |ReapNES Studio Project
    |MIDI Import - Felix_Cat_title_rom_v1
  >
  RIPPLE 0
  GROUPOVERRIDE 0 0 0
  AUTOXFADE 129
  ENVATTACH 3
  POOLEDENVATTACH 0
  MIXERUIFLAGS 11 48
  ENVFADESZ10 40
  PEAKGAIN 1
  FEEDBACK 0
  PANLAW 1
  PROJOFFS 0 0 0
  MAXPROJLEN 0 0
  GRID 3199 8 1 8 1 0 0 0
  TIMEMODE 1 5 -1 30 0 0 -1
  VIDEO_CONFIG 0 0 65792
  PANMODE 3
  PANLAWFLAGS 3
  CURSOR 0
  ZOOM 100 0 0
  VZOOMEX 6 0
  USE_REC_CFG 0
  RECMODE 1
  SMPTESYNC 0 30 100 40 1000 300 0 0 1 0 0
  LOOP 0
  LOOPGRAN 0 4
  RECORD_PATH "Media" ""
  <RECORD_CFG
    ZXZhdxgAAQ==
  >
  <APPLYFX_CFG
  >
  RENDER_FILE ""
  RENDER_PATTERN ""
  RENDER_FMT 0 2 0
  RENDER_1X 0
  RENDER_RANGE 1 0 0 18 1000
  RENDER_RESAMPLE 3 0 1
  RENDER_ADDTOPROJ 0
  RENDER_STEMS 0
  RENDER_DITHER 0
  TIMELOCKMODE 1
  TEMPOENVLOCKMODE 1
  ITEMMIX 1
  DEFPITCHMODE 589824 0
  TAKELANE 1
  SAMPLERATE 44100 0 0
  <RENDER_CFG
    ZXZhdxgAAQ==
  >
  LOCK 1
  <METRONOME 6 2
    VOL 0.25 0.125
    BEATLEN 4
    FREQ 1760 880 1
    SAMPLES "" ""
    SPLIGNORE 0 0
    SPLDEF 2 660 "" 0
    SPLDEF 3 440 "" 0
    PATTERN 0 169
    PATTERNSTR ABBB
    MULT 1
  >
  GLOBAL_AUTO -1
  TEMPO 128.59999614200012 4 4
  PLAYRATE 1 0 0.25 4
  SELECTION 0 0
  SELECTION2 0 0
  MASTERAUTOMODE 0
  MASTERTRACKHEIGHT 0 0
  MASTERPEAKCOL 16576
  MASTERMUTESOLO 0
  MASTERTRACKVIEW 0 0.6667 0.5 0.5 0 0 0 0 0 0 0 0 0 0
  MASTERHWOUT 0 0 1 0 0 0 0 -1
  MASTER_NCH 2 2
  MASTER_VOLUME 1 0 -1 -1 1
  MASTER_PANMODE 3
  MASTER_PANLAWFLAGS 3
  MASTER_FX 1
  MASTER_SEL 0
  <MASTERPLAYSPEEDENV
    EGUID {EF947B3C-AA02-4EDE-857D-77BE6077296C}
    ACT 0 -1
    VIS 0 1 1
    LANEHEIGHT 0 0
    ARM 0
    DEFSHAPE 0 -1 -1
  >
  <TEMPOENVEX
    EGUID {F5DD19B5-9406-430E-BC30-A28278C3EC58}
    ACT 1 -1
    VIS 1 0 1
    LANEHEIGHT 0 0
    ARM 0
    DEFSHAPE 1 -1 -1
  >
  <PROJBAY
  >
  <TRACK {BD98E498-6160-48C2-BB3C-7F273257ED28}
    NAME "NES - Pulse 1 [ch0]"
    PEAKCOL 16576606
    BEAT -1
    AUTOMODE 0
    PANLAWFLAGS 3
    VOLPAN 1 0 -1 -1 1
    MUTESOLO 0 0 0
    IPHASE 0
    PLAYOFFS 0 1
    ISBUS 0 0
    BUSCOMP 0 0 0 0 0
    SHOWINMIX 1 0.6667 0.5 1 0.5 0 0 0
    FIXEDLANES 9 0 0 0 0
    SEL 1
    REC 1 5088 1 0 0 0 0 0
    VU 2
    TRACKHEIGHT 0 0 0 0 0 0 0
    INQ 0 0 0 0.5 100 0 0 100
    NCHAN 2
    FX 1
    TRACKID {BD98E498-6160-48C2-BB3C-7F273257ED28}
    PERF 0
    MIDIOUT -1
    MAINSEND 1 0
    <FXCHAIN
      WNDRECT 24 52 700 560
      SHOW 0
      LASTSEL 0
      DOCKED 0
      BYPASS 0 0 0
      <JS "ReapNES Studio/ReapNES_Console.jsfx" ""
        2 15 1 10 80 10 100 2 1 15 1 5 60 10 80 1 1 0 50 0 0 15 1 0 100 0 0 0.500000 0.500000 0.400000 0.300000 0.800000 0 1 0 0 0 0 - - - - - - - - - - - - - - - - - - - - - - - - - -
      >
      FLOATPOS 0 0 0 0
      FXID {5A00B2A1-CB80-48C9-8E8F-78EE0E040F9C}
      WAK 0 0
    >
    <ITEM
      POSITION 0
      LENGTH 74.4790069
      LOOP 0
      ALLTAKES 0
      FADEIN 0 0 0 0 0 0 0
      FADEOUT 0 0 0 0 0 0 0
      MUTE 0 0
      SEL 0
      IGUID {ECC16E2F-9062-4E96-8DF0-97F1281E0E95}
      <SOURCE MIDI
        HASDATA 1 480 QN
        CCINTERP 32
        E 0 c0 50
        E 320 b0 0c 10
        E 0 b0 0b 3b
        E 0 90 3c 3b
        E 64 b0 0b 33
        E 64 b0 0b 2a
        E 96 b0 0b 22
        E 96 b0 0b 3b
        E 0 80 3c 00
        E 0 90 37 3b
        E 112 80 37 00
        E 96 90 39 3b
        E 112 80 39 00
        E 0 90 3c 3b
        E 112 80 3c 00
        E 96 90 40 3b
        E 64 b0 0b 33
        E 48 b0 0b 2a
        E 112 80 40 00
        E 96 b0 0b 3b
        E 0 90 3c 3b
        E 64 b0 0b 33
        E 16 80 3c 00
        E 32 b0 0c 20
        E 0 90 3c 33
        E 16 b0 0b 3b
        E 32 b0 0b 44
        E 32 b0 0b 4c
        E 32 b0 0b 55
        E 16 b0 0b 4c
        E 96 b0 0b 2a
        E 32 b0 0b 33
        E 32 b0 0b 3b
        E 32 b0 0b 44
        E 128 b0 0b 19
        E 16 b0 0b 22
        E 32 b0 0b 2a
        E 32 b0 0b 33
        E 32 b0 0b 3b
        E 16 b0 0b 33
        E 96 b0 0b 11
        E 32 b0 0b 19
        E 32 b0 0b 22
        E 32 b0 0b 2a
        E 128 b0 0b 33
        E 0 80 3c 00
        E 0 90 43 33
        E 16 b0 0b 3b
        E 32 b0 0b 44
        E 32 b0 0b 4c
        E 32 b0 0b 55
        E 16 b0 0b 4c
        E 96 b0 0b 2a
        E 32 b0 0b 33
        E 32 b0 0b 3b
        E 32 b0 0b 44
        E 128 b0 0b 19
        E 16 b0 0b 22
        E 32 b0 0b 2a
        E 32 b0 0b 33
        E 32 b0 0b 3b
        E 16 b0 0b 33
        E 96 b0 0b 11
        E 32 b0 0b 19
        E 32 b0 0b 22
        E 32 b0 0b 2a
        E 128 b0 0b 33
        E 0 80 43 00
        E 0 90 3b 33
        E 16 b0 0b 3b
        E 32 b0 0b 44
        E 32 b0 0b 4c
        E 32 b0 0b 55
        E 16 b0 0b 4c
        E 96 b0 0b 33
        E 0 80 3b 00
        E 0 90 3c 33
        E 16 b0 0b 3b
        E 32 b0 0b 44
        E 32 b0 0b 4c
        E 32 b0 0b 55
        E 16 b0 0b 4c
        E 96 b0 0b 33
        E 0 80 3c 00
        E 0 90 43 33
        E 16 b0 0b 3b
        E 32 b0 0b 44
        E 32 b0 0b 4c
        E 32 b0 0b 55
        E 16 b0 0b 4c
        E 320 b0 0b 33
        E 0 80 43 00
        E 0 90 46 33
        E 16 b0 0b 3b
        E 32 b0 0b 44
        E 32 b0 0b 4c
        E 32 b0 0b 55
        E 16 b0 0b 4c
        E 96 b0 0b 2a
        E 32 b0 0b 33
        E 32 b0 0b 3b
        E 32 b0 0b 44
        E 128 b0 0b 19
        E 16 b0 0b 22
        E 32 b0 0b 2a
        E 32 b0 0b 33
        E 32 b0 0b 3b
        E 16 b0 0b 33
        E 96 b0 0b 11
        E 32 b0 0b 19
        E 32 b0 0b 22
        E 32 b0 0b 2a
        E 128 b0 0b 33
        E 0 80 46 00
        E 0 90 3c 33
        E 16 b0 0b 3b
        E 32 b0 0b 44
        E 32 b0 0b 4c
        E 32 b0 0b 55
        E 16 b0 0b 4c
        E 96 b0 0b 2a
        E 32 b0 0b 33
        E 32 b0 0b 3b
        E 32 b0 0b 44
        E 128 b0 0b 19
        E 16 b0 0b 22
        E 32 b0 0b 2a
        E 32 b0 0b 33
        E 32 b0 0b 3b
        E 16 b0 0b 33
        E 96 b0 0b 11
        E 32 b0 0b 19
        E 32 b0 0b 22
        E 32 b0 0b 2a
        E 128 b0 0b 33
        E 0 80 3c 00
        E 0 90 43 33
        E 16 b0 0b 3b
        E 32 b0 0b 44
        E 32 b0 0b 4c
        E 32 b0 0b 55
        E 16 b0 0b 4c
        E 96 b0 0b 2a
        E 32 b0 0b 33
        E 32 b0 0b 3b
        E 32 b0 0b 44
        E 128 b0 0b 19
        E 16 b0 0b 22
        E 32 b0 0b 2a
        E 32 b0 0b 33
        E 32 b0 0b 3b
        E 16 b0 0b 33
        E 96 b0 0b 11
        E 32 b0 0b 19
        E 32 b0 0b 22
        E 32 b0 0b 2a
        E 128 b0 0b 33
        E 0 80 43 00
        E 0 90 3b 33
        E 16 b0 0b 3b
        E 32 b0 0b 44
        E 32 b0 0b 4c
        E 32 b0 0b 55
        E 16 b0 0b 4c
        E 96 b0 0b 33
        E 0 80 3b 00
        E 0 90 3c 33
        E 16 b0 0b 3b
        E 32 b0 0b 44
        E 32 b0 0b 4c
        E 32 b0 0b 55
        E 16 b0 0b 4c
        E 96 b0 0b 33
        E 0 80 3c 00
        E 0 90 43 33
        E 16 b0 0b 3b
        E 32 b0 0b 44
        E 32 b0 0b 4c
        E 32 b0 0b 55
        E 16 b0 0b 4c
        E 320 b0 0b 33
        E 0 80 43 00
        E 0 90 42 33
        E 16 b0 0b 3b
        E 32 b0 0b 44
        E 32 b0 0b 4c
        E 32 b0 0b 55
        E 16 b0 0b 4c
        E 96 b0 0b 2a
        E 32 b0 0b 33
        E 32 b0 0b 3b
        E 32 b0 0b 44
        E 128 b0 0b 19
        E 16 b0 0b 22
        E 32 b0 0b 2a
        E 32 b0 0b 33
        E 32 b0 0b 3b
        E 16 b0 0b 33
        E 96 b0 0b 11
        E 32 b0 0b 19
        E 32 b0 0b 22
        E 32 b0 0b 2a
        E 128 b0 0b 33
        E 0 80 42 00
        E 0 90 3c 33
        E 16 b0 0b 3b
        E 32 b0 0b 44
        E 32 b0 0b 4c
        E 32 b0 0b 55
        E 16 b0 0b 4c
        E 96 b0 0b 2a
        E 32 b0 0b 33
        E 32 b0 0b 3b
        E 32 b0 0b 44
        E 128 b0 0b 19
        E 16 b0 0b 22
        E 32 b0 0b 2a
        E 32 b0 0b 33
        E 32 b0 0b 3b
        E 16 b0 0b 33
        E 96 b0 0b 11
        E 32 b0 0b 19
        E 32 b0 0b 22
        E 32 b0 0b 2a
        E 128 b0 0b 33
        E 0 80 3c 00
        E 0 90 43 33
        E 16 b0 0b 3b
        E 32 b0 0b 44
        E 32 b0 0b 4c
        E 32 b0 0b 55
        E 16 b0 0b 4c
        E 96 b0 0b 2a
        E 32 b0 0b 33
        E 32 b0 0b 3b
        E 32 b0 0b 44
        E 128 b0 0b 19
        E 16 b0 0b 22
        E 32 b0 0b 2a
        E 32 b0 0b 33
        E 32 b0 0b 3b
        E 16 b0 0b 33
        E 96 b0 0b 11
        E 32 b0 0b 19
        E 32 b0 0b 22
        E 32 b0 0b 2a
        E 128 b0 0b 33
        E 0 80 43 00
        E 0 90 3b 33
        E 16 b0 0b 3b
        E 32 b0 0b 44
        E 32 b0 0b 4c
        E 32 b0 0b 55
        E 16 b0 0b 4c
        E 96 b0 0b 33
        E 0 80 3b 00
        E 0 90 3c 33
        E 16 b0 0b 3b
        E 32 b0 0b 44
        E 32 b0 0b 4c
        E 32 b0 0b 55
        E 16 b0 0b 4c
        E 96 b0 0b 33
        E 0 80 3c 00
        E 0 90 43 33
        E 16 b0 0b 3b
        E 32 b0 0b 44
        E 32 b0 0b 4c
        E 32 b0 0b 55
        E 16 b0 0b 4c
        E 320 b0 0b 33
        E 0 80 43 00
        E 0 90 46 33
        E 16 b0 0b 3b
        E 32 b0 0b 44
        E 32 b0 0b 4c
        E 32 b0 0b 55
        E 16 b0 0b 4c
        E 96 b0 0b 2a
        E 32 b0 0b 33
        E 32 b0 0b 3b
        E 32 b0 0b 44
        E 128 b0 0b 19
        E 16 b0 0b 22
        E 32 b0 0b 2a
        E 32 b0 0b 33
        E 32 b0 0b 3b
        E 16 b0 0b 33
        E 96 b0 0b 11
        E 32 b0 0b 19
        E 32 b0 0b 22
        E 32 b0 0b 2a
        E 128 b0 0b 33
        E 0 80 46 00
        E 0 90 47 33
        E 16 b0 0b 3b
        E 32 b0 0b 44
        E 32 b0 0b 4c
        E 32 b0 0b 55
        E 16 b0 0b 4c
        E 96 b0 0b 33
        E 0 80 47 00
        E 0 90 45 33
        E 16 b0 0b 3b
        E 32 b0 0b 44
        E 32 b0 0b 4c
        E 32 b0 0b 55
        E 16 b0 0b 4c
        E 96 b0 0b 33
        E 0 80 45 00
        E 0 90 43 33
        E 16 b0 0b 3b
        E 32 b0 0b 44
        E 32 b0 0b 4c
        E 32 b0 0b 55
        E 16 b0 0b 4c
        E 96 b0 0b 33
        E 0 80 43 00
        E 0 90 41 33
        E 16 b0 0b 3b
        E 32 b0 0b 44
        E 32 b0 0b 4c
        E 32 b0 0b 55
        E 16 b0 0b 4c
        E 96 b0 0b 33
        E 0 80 41 00
        E 0 90 3f 33
        E 16 b0 0b 3b
        E 32 b0 0b 44
        E 32 b0 0b 4c
        E 32 b0 0b 55
        E 16 b0 0b 4c
        E 96 b0 0b 33
        E 0 80 3f 00
        E 0 90 3d 33
        E 16 b0 0b 3b
        E 32 b0 0b 44
        E 32 b0 0b 4c
        E 32 b0 0b 55
        E 16 b0 0b 4c
        E 96 b0 0b 33
        E 0 80 3d 00
        E 0 90 3a 33
        E 16 b0 0b 3b
        E 32 b0 0b 44
        E 32 b0 0b 4c
        E 32 b0 0b 55
        E 16 b0 0b 4c
        E 96 b0 0b 33
        E 0 80 3a 00
        E 0 90 38 33
        E 16 b0 0b 3b
        E 32 b0 0b 44
        E 32 b0 0b 4c
        E 32 b0 0b 55
        E 16 b0 0b 4c
        E 96 b0 0b 33
        E 0 80 38 00
        E 0 90 37 33
        E 16 b0 0b 3b
        E 32 b0 0b 44
        E 32 b0 0b 4c
        E 32 b0 0b 55
        E 16 b0 0b 4c
        E 320 b0 0b 19
        E 32 b0 0b 22
        E 32 b0 0b 2a
        E 32 b0 0b 33
        E 352 80 37 00
        E 0 90 43 33
        E 16 b0 0b 3b
        E 32 b0 0b 44
        E 32 b0 0b 4c
        E 32 b0 0b 55
        E 16 b0 0b 4c
        E 96 b0 0b 2a
        E 32 b0 0b 33
        E 32 b0 0b 3b
        E 32 b0 0b 44
        E 128 b0 0b 19
        E 16 b0 0b 22
        E 32 b0 0b 2a
        E 32 b0 0b 33
        E 32 b0 0b 3b
        E 16 b0 0b 33
        E 96 b0 0b 11
        E 32 b0 0b 19
        E 32 b0 0b 22
        E 32 b0 0b 2a
        E 128 b0 0b 33
        E 0 80 43 00
        E 0 90 3c 33
        E 16 b0 0b 3b
        E 32 b0 0b 44
        E 32 b0 0b 4c
        E 32 b0 0b 55
        E 16 b0 0b 4c
        E 96 b0 0b 2a
        E 32 b0 0b 33
        E 32 b0 0b 3b
        E 32 b0 0b 44
        E 128 b0 0b 19
        E 16 b0 0b 22
        E 32 b0 0b 2a
        E 32 b0 0b 33
        E 32 b0 0b 3b
        E 16 b0 0b 33
        E 96 b0 0b 11
        E 32 b0 0b 19
        E 32 b0 0b 22
        E 32 b0 0b 2a
        E 128 b0 0b 33
        E 0 80 3c 00
        E 0 90 43 33
        E 16 b0 0b 3b
        E 32 b0 0b 44
        E 32 b0 0b 4c
        E 32 b0 0b 55
        E 16 b0 0b 4c
        E 96 b0 0b 2a
        E 32 b0 0b 33
        E 32 b0 0b 3b
        E 32 b0 0b 44
        E 128 b0 0b 19
        E 16 b0 0b 22
        E 32 b0 0b 2a
        E 32 80 43 00
        E 48 b0 0c 10
        E 0 b0 0b 3b
        E 0 90 43 3b
        E 64 b0 0b 33
        E 64 b0 0b 2a
        E 96 b0 0b 22
        E 96 b0 0b 3b
        E 0 80 43 00
        E 0 90 3c 3b
        E 64 b0 0b 33
        E 64 b0 0b 2a
        E 80 b0 0b 3b
        E 0 80 3c 00
        E 0 90 45 3b
        E 112 80 45 00
        E 0 90 43 3b
        E 64 b0 0b 33
        E 64 b0 0b 2a
        E 96 b0 0b 22
        E 128 b0 0b 19
        E 192 b0 0b 11
        E 96 b0 0b 3b
        E 0 80 43 00
        E 0 90 3c 3b
        E 64 b0 0b 33
        E 64 b0 0b 2a
        E 96 b0 0b 22
        E 96 b0 0b 3b
        E 0 80 3c 00
        E 0 90 37 3b
        E 112 80 37 00
        E 96 90 39 3b
        E 112 80 39 00
        E 0 90 3c 3b
        E 112 80 3c 00
        E 96 90 40 3b
        E 64 b0 0b 33
        E 48 b0 0b 2a
        E 112 80 40 00
        E 96 b0 0b 3b
        E 0 90 3c 3b
        E 64 b0 0b 33
        E 48 b0 0b 2a
        E 96 b0 0b 22
        E 128 b0 0b 19
        E 192 b0 0b 11
        E 224 80 3c 00
        E 368 b0 0b 2a
        E 0 90 37 2a
        E 112 b0 0b 22
        E 112 b0 0b 2a
        E 112 b0 0b 22
        E 112 b0 0b 2a
        E 0 80 37 00
        E 0 90 3b 2a
        E 144 80 3b 00
        E 0 90 3e 2a
        E 112 b0 0b 22
        E 80 b0 0b 19
        E 112 b0 0b 2a
        E 0 80 3e 00
        E 0 90 43 2a
        E 112 b0 0b 22
        E 112 b0 0b 2a
        E 0 80 43 00
        E 0 90 3e 2a
        E 144 80 3e 00
        E 0 90 3b 2a
        E 112 b0 0b 22
        E 80 b0 0b 19
        E 112 b0 0b 2a
        E 0 80 3b 00
        E 0 90 37 2a
        E 112 b0 0b 22
        E 112 b0 0b 2a
        E 0 80 37 00
        E 0 90 35 2a
        E 112 b0 0b 22
        E 112 b0 0b 2a
        E 112 b0 0b 22
        E 96 b0 0b 19
        E 80 b0 0b 11
        E 80 b0 0b 08
        E 80 b0 0b 2a
        E 0 80 35 00
        E 0 90 37 2a
        E 112 b0 0b 22
        E 96 b0 0b 19
        E 80 b0 0b 11
        E 80 b0 0b 08
        E 96 80 37 00
        E 208 b0 0b 2a
        E 0 90 47 2a
        E 112 b0 0b 22
        E 112 b0 0b 2a
        E 0 80 47 00
        E 0 90 43 2a
        E 112 b0 0b 22
        E 112 b0 0b 2a
        E 0 80 43 00
        E 0 90 37 2a
        E 112 b0 0b 22
        E 112 b0 0b 2a
        E 112 b0 0b 22
        E 112 b0 0b 2a
        E 0 80 37 00
        E 0 90 3b 2a
        E 144 80 3b 00
        E 0 90 3e 2a
        E 112 b0 0b 22
        E 80 b0 0b 19
        E 112 b0 0b 2a
        E 0 80 3e 00
        E 0 90 43 2a
        E 112 b0 0b 22
        E 112 b0 0b 2a
        E 0 80 43 00
        E 0 90 3e 2a
        E 144 80 3e 00
        E 0 90 3b 2a
        E 112 b0 0b 22
        E 80 b0 0b 19
        E 112 b0 0b 2a
        E 0 80 3b 00
        E 0 90 37 2a
        E 112 b0 0b 22
        E 112 b0 0b 2a
        E 0 80 37 00
        E 0 90 35 2a
        E 112 b0 0b 22
        E 112 b0 0b 2a
        E 112 b0 0b 22
        E 96 b0 0b 19
        E 80 b0 0b 11
        E 80 b0 0b 08
        E 80 b0 0b 2a
        E 0 80 35 00
        E 0 90 37 2a
        E 112 b0 0b 22
        E 96 b0 0b 19
        E 80 b0 0b 11
        E 80 b0 0b 08
        E 96 80 37 00
        E 208 b0 0b 2a
        E 0 90 47 2a
        E 112 b0 0b 22
        E 112 b0 0b 2a
        E 112 b0 0b 22
        E 112 b0 0b 2a
        E 0 80 47 00
        E 0 90 37 2a
        E 112 b0 0b 22
        E 112 b0 0b 2a
        E 112 b0 0b 22
        E 112 b0 0b 2a
        E 0 80 37 00
        E 0 90 3b 2a
        E 144 80 3b 00
        E 0 90 3e 2a
        E 112 b0 0b 22
        E 80 b0 0b 19
        E 112 b0 0b 2a
        E 0 80 3e 00
        E 0 90 43 2a
        E 112 b0 0b 22
        E 112 b0 0b 2a
        E 0 80 43 00
        E 0 90 3e 2a
        E 144 80 3e 00
        E 0 90 3b 2a
        E 112 b0 0b 22
        E 80 b0 0b 19
        E 112 b0 0b 2a
        E 0 80 3b 00
        E 0 90 37 2a
        E 112 b0 0b 22
        E 112 b0 0b 2a
        E 0 80 37 00
        E 0 90 35 2a
        E 112 b0 0b 22
        E 112 b0 0b 2a
        E 0 80 35 00
        E 0 90 3a 2a
        E 112 b0 0b 22
        E 112 b0 0b 2a
        E 0 80 3a 00
        E 0 90 39 2a
        E 224 80 39 00
        E 0 90 3a 2a
        E 224 80 3a 00
        E 0 90 35 2a
        E 112 b0 0b 22
        E 96 b0 0b 19
        E 80 b0 0b 11
        E 80 b0 0b 08
        E 96 80 35 00
        E 432 b0 0b 2a
        E 0 90 37 2a
        E 112 b0 0b 22
        E 112 b0 0b 2a
        E 112 b0 0b 22
        E 112 b0 0b 2a
        E 0 80 37 00
        E 0 90 3b 2a
        E 144 80 3b 00
        E 0 90 3e 2a
        E 112 b0 0b 22
        E 80 b0 0b 19
        E 112 b0 0b 2a
        E 0 80 3e 00
        E 0 90 43 2a
        E 112 b0 0b 22
        E 112 b0 0b 2a
        E 0 80 43 00
        E 0 90 3e 2a
        E 144 80 3e 00
        E 0 90 3b 2a
        E 112 b0 0b 22
        E 80 b0 0b 19
        E 112 b0 0b 2a
        E 0 80 3b 00
        E 0 90 37 2a
        E 112 b0 0b 22
        E 112 b0 0b 2a
        E 0 80 37 00
        E 0 90 35 2a
        E 112 b0 0b 22
        E 112 b0 0b 2a
        E 0 80 35 00
        E 0 90 3a 2a
        E 112 b0 0b 22
        E 112 b0 0b 2a
        E 144 80 3a 00
        E 0 90 39 2a
        E 112 b0 0b 22
        E 48 b0 0b 2a
        E 0 80 39 00
        E 0 90 3a 2a
        E 144 80 3a 00
        E 0 90 3c 2a
        E 112 b0 0b 22
        E 96 b0 0b 19
        E 80 b0 0b 11
        E 80 b0 0b 08
        E 80 b0 0b 2a
        E 0 80 3c 00
        E 0 90 41 2a
        E 112 b0 0b 22
        E 96 b0 0b 19
        E 80 b0 0b 11
        E 80 b0 0b 08
        E 80 b0 0b 2a
        E 0 80 41 00
        E 0 90 42 2a
        E 112 b0 0b 22
        E 112 b0 0b 2a
        E 112 b0 0b 22
        E 112 b0 0b 2a
        E 256 b0 0b 22
        E 80 b0 0b 19
        E 112 b0 0b 2a
        E 112 b0 0b 22
        E 96 b0 0b 19
        E 80 b0 0b 11
        E 80 b0 0b 08
        E 80 b0 0b 2a
        E 0 80 42 00
        E 0 90 3f 2a
        E 144 80 3f 00
        E 0 90 40 2a
        E 112 b0 0b 22
        E 48 b0 0b 2a
        E 0 80 40 00
        E 0 90 42 2a
        E 144 80 42 00
        E 0 90 43 2a
        E 112 b0 0b 22
        E 112 b0 0b 2a
        E 112 b0 0b 22
        E 112 b0 0b 2a
        E 0 80 43 00
        E 0 90 42 2a
        E 256 b0 0b 22
        E 80 b0 0b 19
        E 112 b0 0b 2a
        E 0 80 42 00
        E 0 90 43 2a
        E 112 b0 0b 22
        E 96 b0 0b 19
        E 80 b0 0b 11
        E 80 b0 0b 08
        E 80 b0 0b 2a
        E 64 80 43 00
        E 0 90 42 2a
        E 48 80 42 00
        E 0 90 40 2a
        E 64 80 40 00
        E 0 90 3e 2a
        E 48 80 3e 00
        E 0 90 3c 2a
        E 64 80 3c 00
        E 0 90 3e 2a
        E 48 80 3e 00
        E 0 90 40 2a
        E 64 80 40 00
        E 0 90 42 2a
        E 160 b0 0b 22
        E 112 b0 0b 2a
        E 112 b0 0b 22
        E 112 b0 0b 2a
        E 256 b0 0b 22
        E 80 b0 0b 19
        E 112 b0 0b 2a
        E 112 b0 0b 22
        E 96 b0 0b 19
        E 80 b0 0b 11
        E 80 b0 0b 08
        E 80 b0 0b 2a
        E 0 80 42 00
        E 0 90 3f 2a
        E 144 80 3f 00
        E 0 90 40 2a
        E 112 b0 0b 22
        E 48 b0 0b 2a
        E 0 80 40 00
        E 0 90 42 2a
        E 144 80 42 00
        E 0 90 43 2a
        E 112 b0 0b 22
        E 112 b0 0b 2a
        E 112 b0 0b 22
        E 112 b0 0b 2a
        E 0 80 43 00
        E 0 90 42 2a
        E 256 b0 0b 22
        E 80 b0 0b 19
        E 112 b0 0b 2a
        E 0 80 42 00
        E 0 90 47 2a
        E 112 b0 0b 22
        E 96 b0 0b 19
        E 80 b0 0b 11
        E 80 b0 0b 08
        E 80 b0 0b 2a
        E 0 80 47 00
        E 0 90 39 2a
        E 64 80 39 00
        E 0 90 3b 2a
        E 48 80 3b 00
        E 0 90 3c 2a
        E 64 80 3c 00
        E 0 90 3e 2a
        E 48 80 3e 00
        E 0 90 40 2a
        E 64 80 40 00
        E 0 90 42 2a
        E 48 80 42 00
        E 0 90 43 2a
        E 64 80 43 00
        E 0 90 45 2a
        E 48 80 45 00
        E 0 90 48 2a
        E 112 b0 0b 22
        E 112 b0 0b 2a
        E 112 b0 0b 22
        E 112 b0 0b 2a
        E 224 b0 0b 22
        E 96 b0 0b 19
        E 128 b0 0b 2a
        E 0 80 48 00
        E 0 90 47 2a
        E 112 b0 0b 22
        E 96 b0 0b 19
        E 80 b0 0b 11
        E 80 b0 0b 08
        E 80 b0 0b 2a
        E 112 b0 0b 22
        E 96 b0 0b 19
        E 80 b0 0b 11
        E 80 b0 0b 08
        E 80 b0 0b 2a
        E 0 80 47 00
        E 0 90 45 2a
        E 112 b0 0b 22
        E 112 b0 0b 2a
        E 0 80 45 00
        E 0 90 43 2a
        E 112 b0 0b 22
        E 112 b0 0b 2a
        E 0 80 43 00
        E 0 90 45 2a
        E 112 b0 0b 22
        E 96 b0 0b 19
        E 80 b0 0b 11
        E 80 b0 0b 08
        E 80 b0 0b 2a
        E 0 80 45 00
        E 0 90 43 2a
        E 112 b0 0b 22
        E 96 b0 0b 19
        E 80 b0 0b 11
        E 80 b0 0b 08
        E 96 80 43 00
        E 432 b0 0b 2a
        E 0 90 48 2a
        E 112 b0 0b 22
        E 112 b0 0b 2a
        E 112 b0 0b 22
        E 112 b0 0b 2a
        E 224 b0 0b 22
        E 96 b0 0b 19
        E 128 b0 0b 2a
        E 0 80 48 00
        E 0 90 47 2a
        E 112 b0 0b 22
        E 96 b0 0b 19
        E 80 b0 0b 11
        E 80 b0 0b 08
        E 80 b0 0b 2a
        E 112 b0 0b 22
        E 96 b0 0b 19
        E 80 b0 0b 11
        E 80 b0 0b 08
        E 80 b0 0b 2a
        E 0 80 47 00
        E 0 90 45 2a
        E 112 b0 0b 22
        E 112 b0 0b 2a
        E 0 80 45 00
        E 0 90 47 2a
        E 112 b0 0b 22
        E 112 b0 0b 2a
        E 0 80 47 00
        E 0 90 48 2a
        E 112 b0 0b 22
        E 112 b0 0b 2a
        E 0 80 48 00
        E 0 90 45 2a
        E 112 b0 0b 22
        E 112 b0 0b 2a
        E 0 80 45 00
        E 0 90 43 2a
        E 112 b0 0b 22
        E 96 b0 0b 19
        E 80 b0 0b 11
        E 80 b0 0b 08
        E 96 80 43 00
        E 432 b0 0b 2a
        E 0 90 37 2a
        E 112 b0 0b 22
        E 112 b0 0b 2a
        E 112 b0 0b 22
        E 112 b0 0b 2a
        E 0 80 37 00
        E 0 90 3b 2a
        E 144 80 3b 00
        E 0 90 3e 2a
        E 112 b0 0b 22
        E 80 b0 0b 19
        E 112 b0 0b 2a
        E 0 80 3e 00
        E 0 90 43 2a
        E 112 b0 0b 22
        E 112 b0 0b 2a
        E 0 80 43 00
        E 0 90 3e 2a
        E 144 80 3e 00
        E 0 90 3b 2a
        E 112 b0 0b 22
        E 80 b0 0b 19
        E 112 b0 0b 2a
        E 0 80 3b 00
        E 0 90 37 2a
        E 112 b0 0b 22
        E 112 b0 0b 2a
        E 0 80 37 00
        E 0 90 35 2a
        E 112 b0 0b 22
        E 112 b0 0b 2a
        E 112 b0 0b 22
        E 96 b0 0b 19
        E 80 b0 0b 11
        E 80 b0 0b 08
        E 80 b0 0b 2a
        E 0 80 35 00
        E 0 90 37 2a
        E 112 b0 0b 22
        E 96 b0 0b 19
        E 80 b0 0b 11
        E 80 b0 0b 08
        E 96 80 37 00
        E 208 b0 0b 2a
        E 0 90 47 2a
        E 112 b0 0b 22
        E 112 b0 0b 2a
        E 0 80 47 00
        E 0 90 43 2a
        E 112 b0 0b 22
        E 112 b0 0b 2a
        E 0 80 43 00
        E 0 90 37 2a
        E 112 b0 0b 22
        E 112 b0 0b 2a
        E 112 b0 0b 22
        E 112 b0 0b 2a
        E 0 80 37 00
        E 0 90 3b 2a
        E 144 80 3b 00
        E 0 90 3e 2a
        E 112 b0 0b 22
        E 80 b0 0b 19
        E 112 b0 0b 2a
        E 0 80 3e 00
        E 0 90 43 2a
        E 112 b0 0b 22
        E 112 b0 0b 2a
        E 0 80 43 00
        E 0 90 3e 2a
        E 144 80 3e 00
        E 0 90 3b 2a
        E 112 b0 0b 22
        E 80 b0 0b 19
        E 112 b0 0b 2a
        E 0 80 3b 00
        E 0 90 37 2a
        E 112 b0 0b 22
        E 112 b0 0b 2a
        E 0 80 37 00
        E 0 90 35 2a
        E 112 b0 0b 22
        E 112 b0 0b 2a
        E 112 b0 0b 22
        E 96 b0 0b 19
        E 80 b0 0b 11
        E 80 b0 0b 08
        E 80 b0 0b 2a
        E 0 80 35 00
        E 0 90 37 2a
        E 112 b0 0b 22
        E 96 b0 0b 19
        E 80 b0 0b 11
        E 80 b0 0b 08
        E 96 80 37 00
        E 208 b0 0b 2a
        E 0 90 47 2a
        E 112 b0 0b 22
        E 112 b0 0b 2a
        E 112 b0 0b 22
        E 112 b0 0b 2a
        E 0 80 47 00
        E 0 90 37 2a
        E 112 b0 0b 22
        E 112 b0 0b 2a
        E 112 b0 0b 22
        E 112 b0 0b 2a
        E 0 80 37 00
        E 0 90 3b 2a
        E 144 80 3b 00
        E 0 90 3e 2a
        E 112 b0 0b 22
        E 80 b0 0b 19
        E 112 b0 0b 2a
        E 0 80 3e 00
        E 0 90 43 2a
        E 112 b0 0b 22
        E 112 b0 0b 2a
        E 0 80 43 00
        E 0 90 3e 2a
        E 144 80 3e 00
        E 0 90 3b 2a
        E 112 b0 0b 22
        E 80 b0 0b 19
        E 112 b0 0b 2a
        E 0 80 3b 00
        E 0 90 37 2a
        E 112 b0 0b 22
        E 112 b0 0b 2a
        E 0 80 37 00
        E 0 90 35 2a
        E 112 b0 0b 22
        E 112 b0 0b 2a
        E 0 80 35 00
        E 0 90 3a 2a
        E 112 b0 0b 22
        E 112 b0 0b 2a
        E 0 80 3a 00
        E 0 90 39 2a
        E 224 80 39 00
        E 0 90 3a 2a
        E 224 80 3a 00
        E 0 90 35 2a
        E 112 b0 0b 22
        E 96 b0 0b 19
        E 80 b0 0b 11
        E 80 b0 0b 08
        E 96 80 35 00
        E 432 b0 0b 2a
        E 0 90 37 2a
        E 112 b0 0b 22
        E 112 b0 0b 2a
        E 112 b0 0b 22
        E 112 b0 0b 2a
        E 0 80 37 00
        E 0 90 3b 2a
        E 144 80 3b 00
        E 0 90 3e 2a
        E 112 b0 0b 22
        E 80 b0 0b 19
        E 112 b0 0b 2a
        E 0 80 3e 00
        E 0 90 43 2a
        E 112 b0 0b 22
        E 112 b0 0b 2a
        E 0 80 43 00
        E 0 90 3e 2a
        E 144 80 3e 00
        E 0 90 3b 2a
        E 112 b0 0b 22
        E 80 b0 0b 19
        E 112 b0 0b 2a
        E 0 80 3b 00
        E 0 90 37 2a
        E 112 b0 0b 22
        E 112 b0 0b 2a
        E 0 80 37 00
        E 0 90 35 2a
        E 112 b0 0b 22
        E 112 b0 0b 2a
        E 0 80 35 00
        E 0 90 3a 2a
        E 112 b0 0b 22
        E 112 b0 0b 2a
        E 144 80 3a 00
        E 0 90 39 2a
        E 112 b0 0b 22
        E 48 b0 0b 2a
        E 0 80 39 00
        E 0 90 3a 2a
        E 144 80 3a 00
        E 0 90 3c 2a
        E 112 b0 0b 22
        E 96 b0 0b 19
        E 80 b0 0b 11
        E 80 b0 0b 08
        E 80 b0 0b 2a
        E 0 80 3c 00
        E 0 90 41 2a
        E 112 b0 0b 22
        E 96 b0 0b 19
        E 80 b0 0b 11
        E 80 b0 0b 08
        E 80 b0 0b 2a
        E 0 80 41 00
        E 0 90 42 2a
        E 112 b0 0b 22
        E 112 b0 0b 2a
        E 112 b0 0b 22
        E 112 b0 0b 2a
        E 256 b0 0b 22
        E 80 b0 0b 19
        E 112 b0 0b 2a
        E 112 b0 0b 22
        E 96 b0 0b 19
        E 80 b0 0b 11
        E 80 b0 0b 08
        E 80 b0 0b 2a
        E 0 80 42 00
        E 0 90 3f 2a
        E 144 80 3f 00
        E 0 90 40 2a
        E 112 b0 0b 22
        E 48 b0 0b 2a
        E 0 80 40 00
        E 0 90 42 2a
        E 144 80 42 00
        E 0 90 43 2a
        E 112 b0 0b 22
        E 112 b0 0b 2a
        E 112 b0 0b 22
        E 112 b0 0b 2a
        E 0 80 43 00
        E 0 90 42 2a
        E 256 b0 0b 22
        E 80 b0 0b 19
        E 112 b0 0b 2a
        E 0 80 42 00
        E 0 90 43 2a
        E 112 b0 0b 22
        E 96 b0 0b 19
        E 80 b0 0b 11
        E 80 b0 0b 08
        E 80 b0 0b 2a
        E 64 80 43 00
        E 0 90 42 2a
        E 48 80 42 00
        E 0 90 40 2a
        E 64 80 40 00
        E 0 90 3e 2a
        E 48 80 3e 00
        E 0 90 3c 2a
        E 64 80 3c 00
        E 0 90 3e 2a
        E 48 80 3e 00
        E 0 90 40 2a
        E 64 80 40 00
        E 0 90 42 2a
        E 160 b0 0b 22
        E 112 b0 0b 2a
        E 112 b0 0b 22
        E 112 b0 0b 2a
        E 256 b0 0b 22
        E 80 b0 0b 19
        E 112 b0 0b 2a
        E 112 b0 0b 22
        E 96 b0 0b 19
        E 80 b0 0b 11
        E 80 b0 0b 08
        E 80 b0 0b 2a
        E 0 80 42 00
        E 0 90 3f 2a
        E 144 80 3f 00
        E 0 90 40 2a
        E 112 b0 0b 22
        E 48 b0 0b 2a
        E 0 80 40 00
        E 0 90 42 2a
        E 144 80 42 00
        E 0 90 43 2a
        E 112 b0 0b 22
        E 112 b0 0b 2a
        E 112 b0 0b 22
        E 112 b0 0b 2a
        E 0 80 43 00
        E 0 90 42 2a
        E 256 b0 0b 22
        E 80 b0 0b 19
        E 112 b0 0b 2a
        E 0 80 42 00
        E 0 90 47 2a
        E 112 b0 0b 22
        E 96 b0 0b 19
        E 80 b0 0b 11
        E 80 b0 0b 08
        E 80 b0 0b 2a
        E 0 80 47 00
        E 0 90 39 2a
        E 64 80 39 00
        E 0 90 3b 2a
        E 48 80 3b 00
        E 0 90 3c 2a
        E 64 80 3c 00
        E 0 90 3e 2a
        E 48 80 3e 00
        E 0 90 40 2a
        E 64 80 40 00
        E 0 90 42 2a
        E 48 80 42 00
        E 0 90 43 2a
        E 64 80 43 00
        E 0 90 45 2a
        E 48 80 45 00
        E 0 90 48 2a
        E 112 b0 0b 22
        E 112 b0 0b 2a
        E 112 b0 0b 22
        E 112 b0 0b 2a
        E 224 b0 0b 22
        E 96 b0 0b 19
        E 128 b0 0b 2a
        E 0 80 48 00
        E 0 90 47 2a
        E 112 b0 0b 22
        E 96 b0 0b 19
        E 80 b0 0b 11
        E 80 b0 0b 08
        E 80 b0 0b 2a
        E 112 b0 0b 22
        E 96 b0 0b 19
        E 80 b0 0b 11
        E 80 b0 0b 08
        E 80 b0 0b 2a
        E 0 80 47 00
        E 0 90 45 2a
        E 112 b0 0b 22
        E 112 b0 0b 2a
        E 0 80 45 00
        E 0 90 43 2a
        E 112 b0 0b 22
        E 112 b0 0b 2a
        E 0 80 43 00
        E 0 90 45 2a
        E 112 b0 0b 22
        E 96 b0 0b 19
        E 80 b0 0b 11
        E 80 b0 0b 08
        E 80 b0 0b 2a
        E 0 80 45 00
        E 0 90 43 2a
        E 112 b0 0b 22
        E 96 b0 0b 19
        E 80 b0 0b 11
        E 80 b0 0b 08
        E 96 80 43 00
        E 432 b0 0b 2a
        E 0 90 48 2a
        E 112 b0 0b 22
        E 112 b0 0b 2a
        E 112 b0 0b 22
        E 112 b0 0b 2a
        E 224 b0 0b 22
        E 96 b0 0b 19
        E 128 b0 0b 2a
        E 0 80 48 00
        E 0 90 47 2a
        E 112 b0 0b 22
        E 96 b0 0b 19
        E 80 b0 0b 11
        E 80 b0 0b 08
        E 80 b0 0b 2a
        E 112 b0 0b 22
        E 96 b0 0b 19
        E 80 b0 0b 11
        E 80 b0 0b 08
        E 80 b0 0b 2a
        E 0 80 47 00
        E 0 90 45 2a
        E 96 80 45 00
        E 0 b0 7b 00
        E 0 ff 2f 00
      >
    >
  >
  <TRACK {B7D7113B-0679-4F88-88AC-F26A0E21ACE9}
    NAME "NES - Pulse 2 [ch1]"
    PEAKCOL 10092441
    BEAT -1
    AUTOMODE 0
    PANLAWFLAGS 3
    VOLPAN 1 0 -1 -1 1
    MUTESOLO 0 0 0
    IPHASE 0
    PLAYOFFS 0 1
    ISBUS 0 0
    BUSCOMP 0 0 0 0 0
    SHOWINMIX 1 0.6667 0.5 1 0.5 0 0 0
    FIXEDLANES 9 0 0 0 0
    SEL 0
    REC 0 5088 1 0 0 0 0 0
    VU 2
    TRACKHEIGHT 0 0 0 0 0 0 0
    INQ 0 0 0 0.5 100 0 0 100
    NCHAN 2
    FX 1
    TRACKID {B7D7113B-0679-4F88-88AC-F26A0E21ACE9}
    PERF 0
    MIDIOUT -1
    MAINSEND 1 0
    <FXCHAIN
      WNDRECT 24 52 700 560
      SHOW 0
      LASTSEL 0
      DOCKED 0
      BYPASS 0 0 0
      <JS "ReapNES Studio/ReapNES_Console.jsfx" ""
        2 15 1 10 80 10 100 2 1 15 1 5 60 10 80 1 1 0 50 0 0 15 1 0 100 0 0 0.500000 0.500000 0.400000 0.300000 0.800000 1 1 0 0 0 0 - - - - - - - - - - - - - - - - - - - - - - - - - -
      >
      FLOATPOS 0 0 0 0
      FXID {5F02B12D-EEB9-4F23-8126-6EE43CF40FB4}
      WAK 0 0
    >
    <ITEM
      POSITION 0
      LENGTH 74.4790069
      LOOP 0
      ALLTAKES 0
      FADEIN 0 0 0 0 0 0 0
      FADEOUT 0 0 0 0 0 0 0
      MUTE 0 0
      SEL 0
      IGUID {341FABD1-9215-48BE-A47A-9DFFAF7DF7B8}
      <SOURCE MIDI
        HASDATA 1 480 QN
        CCINTERP 32
        E 0 c1 51
        E 0 b1 0c 10
        E 0 b1 0b 19
        E 0 91 3c 19
        E 32 81 3c 00
        E 0 91 3e 19
        E 32 b1 0b 2a
        E 16 b1 0b 19
        E 0 81 3e 00
        E 0 91 40 19
        E 32 81 40 00
        E 0 91 41 19
        E 32 b1 0b 2a
        E 16 b1 0b 19
        E 0 81 41 00
        E 0 91 43 19
        E 32 81 43 00
        E 0 91 45 19
        E 32 b1 0b 2a
        E 16 b1 0b 19
        E 0 81 45 00
        E 0 91 47 19
        E 32 81 47 00
        E 0 91 48 19
        E 32 b1 0b 2a
        E 16 81 48 00
        E 160 b1 0b 11
        E 0 91 3c 11
        E 16 b1 0b 19
        E 16 b1 0b 22
        E 16 b1 0b 19
        E 272 b1 0b 11
        E 0 81 3c 00
        E 0 91 37 11
        E 16 b1 0b 19
        E 16 b1 0b 22
        E 16 b1 0b 19
        E 64 81 37 00
        E 96 b1 0b 11
        E 0 91 39 11
        E 16 b1 0b 19
        E 16 b1 0b 22
        E 16 b1 0b 19
        E 64 b1 0b 11
        E 0 81 39 00
        E 0 91 3c 11
        E 16 b1 0b 19
        E 16 b1 0b 22
        E 16 b1 0b 19
        E 64 81 3c 00
        E 96 b1 0b 11
        E 0 91 40 11
        E 16 b1 0b 19
        E 16 b1 0b 22
        E 16 b1 0b 19
        E 176 81 40 00
        E 48 b1 0c 20
        E 0 b1 0b 7f
        E 0 91 51 7f
        E 64 81 51 00
        E 16 91 51 7f
        E 64 81 51 00
        E 16 91 51 7f
        E 64 81 51 00
        E 16 91 51 7f
        E 64 81 51 00
        E 16 91 51 7f
        E 64 81 51 00
        E 16 91 51 7f
        E 64 81 51 00
        E 16 91 51 7f
        E 64 81 51 00
        E 16 91 51 7f
        E 64 81 51 00
        E 16 91 51 7f
        E 64 b1 0c 10
        E 0 b1 0b 22
        E 0 81 51 00
        E 0 91 43 22
        E 48 b1 0b 33
        E 0 81 43 00
        E 0 91 44 33
        E 96 b1 0b 22
        E 48 b1 0b 33
        E 0 81 44 00
        E 0 91 45 33
        E 96 b1 0b 22
        E 48 b1 0b 33
        E 0 81 45 00
        E 0 91 44 33
        E 48 b1 0c 20
        E 0 b1 0b 7f
        E 0 81 44 00
        E 0 91 51 7f
        E 64 81 51 00
        E 16 91 51 7f
        E 64 81 51 00
        E 16 91 51 7f
        E 64 81 51 00
        E 16 91 51 7f
        E 64 81 51 00
        E 16 91 51 7f
        E 64 81 51 00
        E 16 91 51 7f
        E 64 81 51 00
        E 16 91 51 7f
        E 64 81 51 00
        E 16 91 51 7f
        E 64 81 51 00
        E 16 91 51 7f
        E 64 b1 0c 10
        E 0 b1 0b 33
        E 0 81 51 00
        E 0 91 45 33
        E 96 b1 0b 22
        E 48 b1 0b 33
        E 0 81 45 00
        E 0 91 44 33
        E 112 b1 0b 22
        E 48 b1 0b 33
        E 0 81 44 00
        E 0 91 43 33
        E 80 b1 0c 20
        E 0 b1 0b 7f
        E 0 81 43 00
        E 0 91 51 7f
        E 64 81 51 00
        E 16 91 51 7f
        E 64 81 51 00
        E 16 91 51 7f
        E 64 81 51 00
        E 16 91 51 7f
        E 64 81 51 00
        E 16 91 51 7f
        E 64 81 51 00
        E 16 91 51 7f
        E 64 81 51 00
        E 16 91 51 7f
        E 64 81 51 00
        E 16 91 51 7f
        E 64 81 51 00
        E 16 91 51 7f
        E 64 b1 0c 10
        E 0 b1 0b 33
        E 0 81 51 00
        E 0 91 44 33
        E 64 b1 0b 22
        E 48 b1 0b 33
        E 0 81 44 00
        E 0 91 43 33
        E 96 b1 0b 22
        E 48 b1 0b 33
        E 0 81 43 00
        E 0 91 42 33
        E 96 b1 0b 22
        E 32 b1 0c 20
        E 0 b1 0b 7f
        E 0 81 42 00
        E 0 91 51 7f
        E 64 81 51 00
        E 16 91 51 7f
        E 64 81 51 00
        E 16 91 51 7f
        E 64 81 51 00
        E 16 91 51 7f
        E 64 81 51 00
        E 16 91 51 7f
        E 64 81 51 00
        E 16 91 51 7f
        E 64 81 51 00
        E 16 91 51 7f
        E 64 81 51 00
        E 16 91 51 7f
        E 64 81 51 00
        E 16 91 51 7f
        E 64 b1 0c 10
        E 0 b1 0b 33
        E 0 81 51 00
        E 0 91 43 33
        E 16 b1 0b 22
        E 48 b1 0b 33
        E 0 81 43 00
        E 0 91 42 33
        E 96 b1 0b 22
        E 48 b1 0b 33
        E 0 81 42 00
        E 0 91 43 33
        E 112 b1 0b 22
        E 48 b1 0b 33
        E 0 81 43 00
        E 0 91 44 33
        E 96 b1 0b 22
        E 48 b1 0b 33
        E 0 81 44 00
        E 0 91 45 33
        E 96 b1 0b 22
        E 48 b1 0b 33
        E 0 81 45 00
        E 0 91 44 33
        E 112 b1 0b 22
        E 48 b1 0b 33
        E 0 81 44 00
        E 0 91 43 33
        E 96 b1 0b 22
        E 48 b1 0b 33
        E 0 81 43 00
        E 0 91 42 33
        E 96 b1 0b 22
        E 48 b1 0b 33
        E 0 81 42 00
        E 0 91 43 33
        E 112 b1 0b 22
        E 48 b1 0b 33
        E 0 81 43 00
        E 0 91 44 33
        E 96 b1 0b 22
        E 16 b1 0c 40
        E 0 b1 0b 7f
        E 0 81 44 00
        E 0 91 1e 7f
        E 80 81 1e 00
        E 48 91 1e 7f
        E 80 81 1e 00
        E 48 91 1e 7f
        E 80 81 1e 00
        E 48 91 3b 7f
        E 384 81 3b 00
        E 0 91 1e 7f
        E 80 81 1e 00
        E 48 91 1e 7f
        E 64 81 1e 00
        E 0 91 3b 7f
        E 448 81 3b 00
        E 0 91 1e 7f
        E 80 81 1e 00
        E 48 91 3b 7f
        E 192 81 3b 00
        E 0 91 1e 7f
        E 80 81 1e 00
        E 48 91 1e 7f
        E 144 81 1e 00
        E 48 91 1e 7f
        E 80 81 1e 00
        E 48 91 1e 7f
        E 144 81 1e 00
        E 48 91 1e 7f
        E 64 81 1e 00
        E 0 91 3b 7f
        E 320 81 3b 00
        E 0 91 1e 7f
        E 80 81 1e 00
        E 48 91 1e 7f
        E 144 81 1e 00
        E 48 91 3b 7f
        E 192 81 3b 00
        E 0 91 1e 7f
        E 80 81 1e 00
        E 48 91 3b 7f
        E 512 81 3b 00
        E 0 91 1e 7f
        E 80 81 1e 00
        E 48 91 1e 7f
        E 144 81 1e 00
        E 48 91 1e 7f
        E 144 81 1e 00
        E 48 91 1e 7f
        E 80 81 1e 00
        E 48 91 1e 7f
        E 80 81 1e 00
        E 48 91 3b 7f
        E 192 81 3b 00
        E 0 91 1e 7f
        E 80 81 1e 00
        E 48 91 1e 7f
        E 80 81 1e 00
        E 48 91 1e 7f
        E 80 81 1e 00
        E 48 91 3b 7f
        E 320 b1 0c 10
        E 0 b1 0b 33
        E 0 81 3b 00
        E 0 91 44 33
        E 96 b1 0b 22
        E 48 b1 0b 33
        E 0 81 44 00
        E 0 91 43 33
        E 96 b1 0b 22
        E 48 b1 0b 33
        E 0 81 43 00
        E 0 91 42 33
        E 96 b1 0b 22
        E 48 b1 0b 33
        E 0 81 42 00
        E 0 91 43 33
        E 112 b1 0b 22
        E 48 b1 0b 33
        E 0 81 43 00
        E 0 91 44 33
        E 96 b1 0b 22
        E 48 b1 0b 33
        E 0 81 44 00
        E 0 91 45 33
        E 96 b1 0b 22
        E 48 b1 0b 33
        E 0 81 45 00
        E 0 91 44 33
        E 80 b1 0c 60
        E 0 b1 0b 77
        E 0 81 44 00
        E 0 91 48 77
        E 544 b1 0c 10
        E 0 b1 0b 33
        E 0 81 48 00
        E 0 91 44 33
        E 80 b1 0b 22
        E 48 b1 0b 33
        E 0 81 44 00
        E 0 91 45 33
        E 96 b1 0b 22
        E 48 b1 0b 33
        E 0 81 45 00
        E 0 91 44 33
        E 112 b1 0b 22
        E 48 b1 0b 33
        E 0 81 44 00
        E 0 91 43 33
        E 96 b1 0b 22
        E 48 b1 0b 33
        E 0 81 43 00
        E 0 91 42 33
        E 96 b1 0b 22
        E 48 b1 0b 33
        E 0 81 42 00
        E 0 91 43 33
        E 112 b1 0b 22
        E 48 b1 0b 33
        E 0 81 43 00
        E 0 91 44 33
        E 96 b1 0b 22
        E 48 b1 0b 33
        E 0 81 44 00
        E 0 91 45 33
        E 96 b1 0b 22
        E 48 b1 0b 33
        E 0 81 45 00
        E 0 91 44 33
        E 112 b1 0b 22
        E 48 b1 0b 33
        E 0 81 44 00
        E 0 91 43 33
        E 96 b1 0b 22
        E 48 b1 0b 33
        E 0 81 43 00
        E 0 91 42 33
        E 96 b1 0b 22
        E 48 b1 0b 33
        E 0 81 42 00
        E 0 91 43 33
        E 112 b1 0b 22
        E 48 b1 0b 33
        E 0 81 43 00
        E 0 91 44 33
        E 96 b1 0b 22
        E 48 b1 0b 33
        E 0 81 44 00
        E 0 91 45 33
        E 96 b1 0b 22
        E 48 b1 0b 33
        E 0 81 45 00
        E 0 91 44 33
        E 112 b1 0b 22
        E 48 b1 0b 33
        E 0 81 44 00
        E 0 91 43 33
        E 96 b1 0b 22
        E 48 b1 0b 33
        E 0 81 43 00
        E 0 91 42 33
        E 96 b1 0b 22
        E 48 b1 0b 33
        E 0 81 42 00
        E 0 91 43 33
        E 112 b1 0b 22
        E 48 b1 0b 33
        E 0 81 43 00
        E 0 91 44 33
        E 96 b1 0b 22
        E 48 b1 0b 33
        E 0 81 44 00
        E 0 91 45 33
        E 96 b1 0b 22
        E 48 b1 0b 33
        E 0 81 45 00
        E 0 91 44 33
        E 112 b1 0b 22
        E 48 b1 0b 33
        E 0 81 44 00
        E 0 91 43 33
        E 96 b1 0b 22
        E 48 b1 0b 33
        E 0 81 43 00
        E 0 91 42 33
        E 80 81 42 00
        E 48 b1 0b 19
        E 0 91 40 19
        E 16 b1 0b 2a
        E 304 b1 0b 19
        E 16 b1 0b 2a
        E 192 b1 0b 19
        E 0 81 40 00
        E 0 91 41 19
        E 16 b1 0b 2a
        E 96 b1 0b 19
        E 0 81 41 00
        E 0 91 40 19
        E 16 b1 0b 2a
        E 304 b1 0b 19
        E 0 81 40 00
        E 0 91 3c 19
        E 32 81 3c 00
        E 0 91 3e 19
        E 32 b1 0b 2a
        E 16 b1 0b 19
        E 0 81 3e 00
        E 0 91 40 19
        E 32 81 40 00
        E 0 91 41 19
        E 32 b1 0b 2a
        E 16 b1 0b 19
        E 0 81 41 00
        E 0 91 43 19
        E 32 81 43 00
        E 0 91 45 19
        E 32 b1 0b 2a
        E 16 b1 0b 19
        E 0 81 45 00
        E 0 91 47 19
        E 32 81 47 00
        E 0 91 48 19
        E 32 b1 0b 2a
        E 16 81 48 00
        E 112 b1 0b 7f
        E 0 91 45 7f
        E 224 b1 0b 19
        E 0 81 45 00
        E 0 91 3c 19
        E 144 b1 0b 11
        E 0 81 3c 00
        E 0 91 37 11
        E 16 b1 0b 19
        E 16 b1 0b 22
        E 16 b1 0b 19
        E 64 81 37 00
        E 96 b1 0b 11
        E 0 91 39 11
        E 16 b1 0b 19
        E 16 b1 0b 22
        E 16 b1 0b 19
        E 64 b1 0b 11
        E 0 81 39 00
        E 0 91 3c 11
        E 16 b1 0b 19
        E 16 b1 0b 22
        E 16 b1 0b 19
        E 64 81 3c 00
        E 96 b1 0b 11
        E 0 91 40 11
        E 16 b1 0b 19
        E 16 b1 0b 22
        E 16 b1 0b 19
        E 176 81 40 00
        E 96 b1 0b 11
        E 0 91 3c 11
        E 16 b1 0b 19
        E 16 b1 0b 22
        E 16 b1 0b 19
        E 544 81 3c 00
        E 368 b1 0b 2a
        E 0 91 32 2a
        E 112 81 32 00
        E 0 91 34 2a
        E 112 81 34 00
        E 0 91 37 2a
        E 112 81 37 00
        E 112 91 39 2a
        E 112 81 39 00
        E 112 91 3e 2a
        E 80 b1 0b 22
        E 80 b1 0b 19
        E 64 b1 0b 2a
        E 0 81 3e 00
        E 0 91 3b 2a
        E 80 b1 0b 22
        E 64 b1 0b 2a
        E 0 81 3b 00
        E 0 91 37 2a
        E 80 b1 0b 22
        E 80 b1 0b 19
        E 64 b1 0b 11
        E 80 b1 0b 2a
        E 0 81 37 00
        E 0 91 34 2a
        E 80 b1 0b 22
        E 80 b1 0b 19
        E 80 b1 0b 11
        E 96 b1 0b 08
        E 112 b1 0b 33
        E 0 81 34 00
        E 0 91 39 33
        E 80 b1 0b 2a
        E 80 b1 0b 22
        E 64 b1 0b 33
        E 80 b1 0b 2a
        E 80 b1 0b 22
        E 80 b1 0b 19
        E 96 b1 0b 11
        E 112 b1 0b 2a
        E 0 81 39 00
        E 0 91 3b 2a
        E 80 b1 0b 22
        E 80 b1 0b 19
        E 80 b1 0b 11
        E 96 b1 0b 08
        E 80 81 3b 00
        E 256 b1 0b 2a
        E 0 91 47 2a
        E 80 b1 0b 22
        E 80 b1 0b 19
        E 64 b1 0b 2a
        E 80 b1 0b 22
        E 80 b1 0b 19
        E 64 b1 0b 2a
        E 0 81 47 00
        E 0 91 32 2a
        E 112 81 32 00
        E 0 91 34 2a
        E 112 81 34 00
        E 0 91 37 2a
        E 112 81 37 00
        E 112 91 39 2a
        E 112 81 39 00
        E 112 91 3e 2a
        E 80 b1 0b 22
        E 80 b1 0b 19
        E 64 b1 0b 2a
        E 0 81 3e 00
        E 0 91 3b 2a
        E 80 b1 0b 22
        E 64 b1 0b 2a
        E 0 81 3b 00
        E 0 91 37 2a
        E 80 b1 0b 22
        E 80 b1 0b 19
        E 64 b1 0b 11
        E 80 b1 0b 2a
        E 0 81 37 00
        E 0 91 34 2a
        E 80 b1 0b 22
        E 80 b1 0b 19
        E 80 b1 0b 11
        E 96 b1 0b 08
        E 112 b1 0b 33
        E 0 81 34 00
        E 0 91 39 33
        E 80 b1 0b 2a
        E 80 b1 0b 22
        E 64 b1 0b 33
        E 80 b1 0b 2a
        E 80 b1 0b 22
        E 80 b1 0b 19
        E 96 b1 0b 11
        E 112 b1 0b 2a
        E 0 81 39 00
        E 0 91 37 2a
        E 80 b1 0b 22
        E 80 b1 0b 19
        E 80 b1 0b 11
        E 96 b1 0b 08
        E 80 81 37 00
        E 256 b1 0b 33
        E 0 91 37 33
        E 64 81 37 00
        E 0 91 39 33
        E 48 81 39 00
        E 0 91 3b 33
        E 64 81 3b 00
        E 0 91 3c 33
        E 48 81 3c 00
        E 0 91 3e 33
        E 64 81 3e 00
        E 0 91 40 33
        E 48 81 40 00
        E 0 91 41 33
        E 64 81 41 00
        E 0 91 43 33
        E 48 b1 0b 2a
        E 0 81 43 00
        E 0 91 32 2a
        E 112 81 32 00
        E 0 91 34 2a
        E 112 81 34 00
        E 0 91 37 2a
        E 112 81 37 00
        E 112 91 39 2a
        E 112 81 39 00
        E 112 91 3b 2a
        E 112 81 3b 00
        E 112 91 3e 2a
        E 80 b1 0b 22
        E 80 b1 0b 19
        E 64 b1 0b 2a
        E 0 81 3e 00
        E 0 91 3b 2a
        E 80 b1 0b 22
        E 64 b1 0b 2a
        E 0 81 3b 00
        E 0 91 37 2a
        E 80 b1 0b 22
        E 80 b1 0b 19
        E 64 b1 0b 11
        E 80 b1 0b 2a
        E 0 81 37 00
        E 0 91 34 2a
        E 80 b1 0b 22
        E 80 b1 0b 19
        E 64 b1 0b 2a
        E 0 81 34 00
        E 0 91 3e 2a
        E 112 81 3e 00
        E 0 91 3c 2a
        E 112 81 3c 00
        E 0 91 3b 2a
        E 112 81 3b 00
        E 0 91 3c 2a
        E 112 81 3c 00
        E 0 91 39 2a
        E 112 81 39 00
        E 0 91 3b 2a
        E 112 81 3b 00
        E 0 91 3c 2a
        E 112 81 3c 00
        E 0 91 39 2a
        E 112 81 39 00
        E 0 91 3c 2a
        E 80 b1 0b 22
        E 80 b1 0b 19
        E 80 b1 0b 11
        E 96 b1 0b 08
        E 112 b1 0b 33
        E 0 81 3c 00
        E 0 91 47 33
        E 80 b1 0b 2a
        E 64 b1 0b 33
        E 80 b1 0b 2a
        E 80 b1 0b 33
        E 80 b1 0b 2a
        E 64 81 47 00
        E 0 91 32 2a
        E 112 81 32 00
        E 0 91 34 2a
        E 112 81 34 00
        E 0 91 37 2a
        E 112 81 37 00
        E 112 91 39 2a
        E 112 81 39 00
        E 112 91 3b 2a
        E 112 81 3b 00
        E 112 91 3e 2a
        E 80 b1 0b 22
        E 80 b1 0b 19
        E 64 b1 0b 2a
        E 0 81 3e 00
        E 0 91 3b 2a
        E 80 b1 0b 22
        E 64 b1 0b 2a
        E 0 81 3b 00
        E 0 91 37 2a
        E 80 b1 0b 22
        E 80 b1 0b 19
        E 64 b1 0b 11
        E 80 b1 0b 2a
        E 0 81 37 00
        E 0 91 34 2a
        E 80 b1 0b 22
        E 80 b1 0b 19
        E 64 b1 0b 2a
        E 0 81 34 00
        E 0 91 3c 2a
        E 80 b1 0b 22
        E 80 b1 0b 19
        E 64 b1 0b 2a
        E 0 81 3c 00
        E 0 91 41 2a
        E 80 b1 0b 22
        E 80 b1 0b 19
        E 64 b1 0b 2a
        E 80 b1 0b 22
        E 64 b1 0b 2a
        E 0 81 41 00
        E 0 91 40 2a
        E 80 b1 0b 22
        E 80 b1 0b 2a
        E 0 81 40 00
        E 0 91 41 2a
        E 80 b1 0b 22
        E 64 b1 0b 2a
        E 0 81 41 00
        E 0 91 43 2a
        E 80 b1 0b 22
        E 80 b1 0b 19
        E 80 b1 0b 11
        E 96 b1 0b 08
        E 112 b1 0b 33
        E 0 81 43 00
        E 0 91 48 33
        E 64 81 48 00
        E 0 91 47 33
        E 48 81 47 00
        E 0 91 45 33
        E 64 81 45 00
        E 0 91 43 33
        E 48 81 43 00
        E 0 91 41 33
        E 64 81 41 00
        E 0 91 40 33
        E 48 81 40 00
        E 0 91 3e 33
        E 64 81 3e 00
        E 0 91 3c 33
        E 48 b1 0b 2a
        E 0 81 3c 00
        E 0 91 45 2a
        E 80 b1 0b 22
        E 80 b1 0b 19
        E 64 b1 0b 2a
        E 80 b1 0b 22
        E 80 b1 0b 19
        E 64 b1 0b 2a
        E 0 81 45 00
        E 0 91 3e 2a
        E 80 b1 0b 22
        E 80 b1 0b 19
        E 64 b1 0b 2a
        E 0 81 3e 00
        E 0 91 45 2a
        E 80 b1 0b 22
        E 80 b1 0b 19
        E 64 b1 0b 2a
        E 80 b1 0b 22
        E 80 b1 0b 19
        E 64 b1 0b 2a
        E 0 81 45 00
        E 0 91 36 2a
        E 80 b1 0b 22
        E 80 b1 0b 19
        E 64 b1 0b 2a
        E 0 81 36 00
        E 0 91 42 2a
        E 80 b1 0b 22
        E 64 b1 0b 2a
        E 0 81 42 00
        E 0 91 40 2a
        E 80 b1 0b 22
        E 80 b1 0b 2a
        E 0 81 40 00
        E 0 91 3e 2a
        E 80 b1 0b 22
        E 64 b1 0b 2a
        E 0 81 3e 00
        E 0 91 47 2a
        E 80 b1 0b 22
        E 80 b1 0b 19
        E 64 b1 0b 2a
        E 80 b1 0b 22
        E 80 b1 0b 19
        E 64 b1 0b 2a
        E 0 81 47 00
        E 0 91 37 2a
        E 80 b1 0b 22
        E 80 b1 0b 19
        E 64 b1 0b 2a
        E 0 81 37 00
        E 0 91 47 2a
        E 80 b1 0b 22
        E 80 b1 0b 19
        E 64 b1 0b 2a
        E 80 b1 0b 22
        E 80 b1 0b 19
        E 64 b1 0b 2a
        E 0 81 47 00
        E 0 91 3b 2a
        E 80 b1 0b 22
        E 80 b1 0b 19
        E 64 b1 0b 2a
        E 0 81 3b 00
        E 0 91 43 2a
        E 80 b1 0b 22
        E 64 b1 0b 2a
        E 0 81 43 00
        E 0 91 42 2a
        E 80 b1 0b 22
        E 80 b1 0b 2a
        E 0 81 42 00
        E 0 91 40 2a
        E 80 b1 0b 22
        E 64 b1 0b 2a
        E 0 81 40 00
        E 0 91 45 2a
        E 80 b1 0b 22
        E 80 b1 0b 19
        E 64 b1 0b 2a
        E 80 b1 0b 22
        E 80 b1 0b 19
        E 64 b1 0b 2a
        E 0 81 45 00
        E 0 91 3e 2a
        E 80 b1 0b 22
        E 80 b1 0b 19
        E 64 b1 0b 2a
        E 0 81 3e 00
        E 0 91 45 2a
        E 80 b1 0b 22
        E 80 b1 0b 19
        E 64 b1 0b 2a
        E 80 b1 0b 22
        E 80 b1 0b 19
        E 64 b1 0b 2a
        E 0 81 45 00
        E 0 91 36 2a
        E 80 b1 0b 22
        E 80 b1 0b 19
        E 64 b1 0b 2a
        E 0 81 36 00
        E 0 91 42 2a
        E 80 b1 0b 22
        E 64 b1 0b 2a
        E 0 81 42 00
        E 0 91 40 2a
        E 80 b1 0b 22
        E 80 b1 0b 2a
        E 0 81 40 00
        E 0 91 3e 2a
        E 80 b1 0b 22
        E 64 b1 0b 2a
        E 0 81 3e 00
        E 0 91 47 2a
        E 80 b1 0b 22
        E 80 b1 0b 19
        E 64 b1 0b 2a
        E 80 b1 0b 22
        E 80 b1 0b 19
        E 64 b1 0b 2a
        E 0 81 47 00
        E 0 91 37 2a
        E 80 b1 0b 22
        E 80 b1 0b 19
        E 64 b1 0b 2a
        E 0 81 37 00
        E 0 91 47 2a
        E 80 b1 0b 22
        E 80 b1 0b 19
        E 64 b1 0b 2a
        E 80 b1 0b 22
        E 80 b1 0b 19
        E 64 b1 0b 2a
        E 0 81 47 00
        E 0 91 3b 2a
        E 80 b1 0b 22
        E 80 b1 0b 19
        E 64 b1 0b 2a
        E 0 81 3b 00
        E 0 91 43 2a
        E 80 b1 0b 22
        E 64 b1 0b 2a
        E 0 81 43 00
        E 0 91 45 2a
        E 80 b1 0b 22
        E 80 b1 0b 2a
        E 0 81 45 00
        E 0 91 47 2a
        E 80 b1 0b 22
        E 64 b1 0b 2a
        E 0 81 47 00
        E 0 91 40 2a
        E 80 b1 0b 22
        E 80 b1 0b 19
        E 64 b1 0b 2a
        E 80 b1 0b 22
        E 80 b1 0b 19
        E 64 b1 0b 2a
        E 192 b1 0b 22
        E 80 b1 0b 19
        E 80 b1 0b 11
        E 96 b1 0b 2a
        E 80 b1 0b 22
        E 80 b1 0b 19
        E 64 b1 0b 2a
        E 80 b1 0b 22
        E 80 b1 0b 19
        E 64 b1 0b 2a
        E 0 81 40 00
        E 0 91 43 2a
        E 80 b1 0b 22
        E 80 b1 0b 19
        E 64 b1 0b 2a
        E 80 b1 0b 22
        E 80 b1 0b 19
        E 64 b1 0b 2a
        E 0 81 43 00
        E 0 91 45 2a
        E 80 b1 0b 22
        E 80 b1 0b 19
        E 64 b1 0b 2a
        E 80 b1 0b 22
        E 80 b1 0b 19
        E 64 b1 0b 2a
        E 0 81 45 00
        E 0 91 43 2a
        E 80 b1 0b 22
        E 80 b1 0b 19
        E 64 b1 0b 2a
        E 0 81 43 00
        E 0 91 42 2a
        E 80 b1 0b 22
        E 80 b1 0b 19
        E 64 b1 0b 2a
        E 0 81 42 00
        E 0 91 43 2a
        E 80 b1 0b 22
        E 80 b1 0b 19
        E 64 b1 0b 2a
        E 80 b1 0b 22
        E 80 b1 0b 19
        E 64 b1 0b 2a
        E 0 81 43 00
        E 0 91 45 2a
        E 80 b1 0b 22
        E 80 b1 0b 19
        E 64 b1 0b 2a
        E 0 81 45 00
        E 0 91 47 2a
        E 80 b1 0b 22
        E 80 b1 0b 19
        E 64 b1 0b 2a
        E 0 81 47 00
        E 0 91 40 2a
        E 80 b1 0b 22
        E 80 b1 0b 19
        E 64 b1 0b 2a
        E 80 b1 0b 22
        E 80 b1 0b 19
        E 64 b1 0b 2a
        E 192 b1 0b 22
        E 80 b1 0b 19
        E 80 b1 0b 11
        E 96 b1 0b 2a
        E 80 b1 0b 22
        E 80 b1 0b 19
        E 64 b1 0b 2a
        E 80 b1 0b 22
        E 80 b1 0b 19
        E 64 b1 0b 2a
        E 0 81 40 00
        E 0 91 43 2a
        E 80 b1 0b 22
        E 80 b1 0b 19
        E 64 b1 0b 2a
        E 80 b1 0b 22
        E 80 b1 0b 19
        E 64 b1 0b 2a
        E 0 81 43 00
        E 0 91 45 2a
        E 80 b1 0b 22
        E 80 b1 0b 19
        E 64 b1 0b 2a
        E 80 b1 0b 22
        E 80 b1 0b 19
        E 64 b1 0b 2a
        E 0 81 45 00
        E 0 91 43 2a
        E 80 b1 0b 22
        E 80 b1 0b 19
        E 64 b1 0b 2a
        E 0 81 43 00
        E 0 91 42 2a
        E 80 b1 0b 22
        E 80 b1 0b 19
        E 64 b1 0b 2a
        E 0 81 42 00
        E 0 91 43 2a
        E 80 b1 0b 22
        E 80 b1 0b 19
        E 64 b1 0b 2a
        E 0 81 43 00
        E 0 91 3e 2a
        E 80 b1 0b 22
        E 80 b1 0b 19
        E 64 b1 0b 2a
        E 0 81 3e 00
        E 0 91 40 2a
        E 80 b1 0b 22
        E 80 b1 0b 19
        E 64 b1 0b 2a
        E 0 81 40 00
        E 0 91 43 2a
        E 64 81 43 00
        E 0 91 45 2a
        E 48 81 45 00
        E 0 91 47 2a
        E 64 81 47 00
        E 0 91 43 2a
        E 48 81 43 00
        E 0 91 32 2a
        E 112 81 32 00
        E 0 91 34 2a
        E 112 81 34 00
        E 0 91 37 2a
        E 112 81 37 00
        E 112 91 39 2a
        E 112 81 39 00
        E 112 91 3e 2a
        E 80 b1 0b 22
        E 80 b1 0b 19
        E 64 b1 0b 2a
        E 0 81 3e 00
        E 0 91 3b 2a
        E 80 b1 0b 22
        E 64 b1 0b 2a
        E 0 81 3b 00
        E 0 91 37 2a
        E 80 b1 0b 22
        E 80 b1 0b 19
        E 64 b1 0b 11
        E 80 b1 0b 2a
        E 0 81 37 00
        E 0 91 34 2a
        E 80 b1 0b 22
        E 80 b1 0b 19
        E 80 b1 0b 11
        E 96 b1 0b 08
        E 112 b1 0b 33
        E 0 81 34 00
        E 0 91 39 33
        E 80 b1 0b 2a
        E 80 b1 0b 22
        E 64 b1 0b 33
        E 80 b1 0b 2a
        E 80 b1 0b 22
        E 80 b1 0b 19
        E 96 b1 0b 11
        E 112 b1 0b 2a
        E 0 81 39 00
        E 0 91 3b 2a
        E 80 b1 0b 22
        E 80 b1 0b 19
        E 80 b1 0b 11
        E 96 b1 0b 08
        E 80 81 3b 00
        E 256 b1 0b 2a
        E 0 91 47 2a
        E 80 b1 0b 22
        E 80 b1 0b 19
        E 64 b1 0b 2a
        E 80 b1 0b 22
        E 80 b1 0b 19
        E 64 b1 0b 2a
        E 0 81 47 00
        E 0 91 32 2a
        E 112 81 32 00
        E 0 91 34 2a
        E 112 81 34 00
        E 0 91 37 2a
        E 112 81 37 00
        E 112 91 39 2a
        E 112 81 39 00
        E 112 91 3e 2a
        E 80 b1 0b 22
        E 80 b1 0b 19
        E 64 b1 0b 2a
        E 0 81 3e 00
        E 0 91 3b 2a
        E 80 b1 0b 22
        E 64 b1 0b 2a
        E 0 81 3b 00
        E 0 91 37 2a
        E 80 b1 0b 22
        E 80 b1 0b 19
        E 64 b1 0b 11
        E 80 b1 0b 2a
        E 0 81 37 00
        E 0 91 34 2a
        E 80 b1 0b 22
        E 80 b1 0b 19
        E 80 b1 0b 11
        E 96 b1 0b 08
        E 112 b1 0b 33
        E 0 81 34 00
        E 0 91 39 33
        E 80 b1 0b 2a
        E 80 b1 0b 22
        E 64 b1 0b 33
        E 80 b1 0b 2a
        E 80 b1 0b 22
        E 80 b1 0b 19
        E 96 b1 0b 11
        E 112 b1 0b 2a
        E 0 81 39 00
        E 0 91 37 2a
        E 80 b1 0b 22
        E 80 b1 0b 19
        E 80 b1 0b 11
        E 96 b1 0b 08
        E 80 81 37 00
        E 256 b1 0b 33
        E 0 91 37 33
        E 64 81 37 00
        E 0 91 39 33
        E 48 81 39 00
        E 0 91 3b 33
        E 64 81 3b 00
        E 0 91 3c 33
        E 48 81 3c 00
        E 0 91 3e 33
        E 64 81 3e 00
        E 0 91 40 33
        E 48 81 40 00
        E 0 91 41 33
        E 64 81 41 00
        E 0 91 43 33
        E 48 b1 0b 2a
        E 0 81 43 00
        E 0 91 32 2a
        E 112 81 32 00
        E 0 91 34 2a
        E 112 81 34 00
        E 0 91 37 2a
        E 112 81 37 00
        E 112 91 39 2a
        E 112 81 39 00
        E 112 91 3b 2a
        E 112 81 3b 00
        E 112 91 3e 2a
        E 80 b1 0b 22
        E 80 b1 0b 19
        E 64 b1 0b 2a
        E 0 81 3e 00
        E 0 91 3b 2a
        E 80 b1 0b 22
        E 64 b1 0b 2a
        E 0 81 3b 00
        E 0 91 37 2a
        E 80 b1 0b 22
        E 80 b1 0b 19
        E 64 b1 0b 11
        E 80 b1 0b 2a
        E 0 81 37 00
        E 0 91 34 2a
        E 80 b1 0b 22
        E 80 b1 0b 19
        E 64 b1 0b 2a
        E 0 81 34 00
        E 0 91 3e 2a
        E 112 81 3e 00
        E 0 91 3c 2a
        E 112 81 3c 00
        E 0 91 3b 2a
        E 112 81 3b 00
        E 0 91 3c 2a
        E 112 81 3c 00
        E 0 91 39 2a
        E 112 81 39 00
        E 0 91 3b 2a
        E 112 81 3b 00
        E 0 91 3c 2a
        E 112 81 3c 00
        E 0 91 39 2a
        E 112 81 39 00
        E 0 91 3c 2a
        E 80 b1 0b 22
        E 80 b1 0b 19
        E 80 b1 0b 11
        E 96 b1 0b 08
        E 112 b1 0b 33
        E 0 81 3c 00
        E 0 91 47 33
        E 80 b1 0b 2a
        E 64 b1 0b 33
        E 80 b1 0b 2a
        E 80 b1 0b 33
        E 80 b1 0b 2a
        E 64 81 47 00
        E 0 91 32 2a
        E 112 81 32 00
        E 0 91 34 2a
        E 112 81 34 00
        E 0 91 37 2a
        E 112 81 37 00
        E 112 91 39 2a
        E 112 81 39 00
        E 112 91 3b 2a
        E 112 81 3b 00
        E 112 91 3e 2a
        E 80 b1 0b 22
        E 80 b1 0b 19
        E 64 b1 0b 2a
        E 0 81 3e 00
        E 0 91 3b 2a
        E 80 b1 0b 22
        E 64 b1 0b 2a
        E 0 81 3b 00
        E 0 91 37 2a
        E 80 b1 0b 22
        E 80 b1 0b 19
        E 64 b1 0b 11
        E 80 b1 0b 2a
        E 0 81 37 00
        E 0 91 34 2a
        E 80 b1 0b 22
        E 80 b1 0b 19
        E 64 b1 0b 2a
        E 0 81 34 00
        E 0 91 3c 2a
        E 80 b1 0b 22
        E 80 b1 0b 19
        E 64 b1 0b 2a
        E 0 81 3c 00
        E 0 91 41 2a
        E 80 b1 0b 22
        E 80 b1 0b 19
        E 64 b1 0b 2a
        E 80 b1 0b 22
        E 64 b1 0b 2a
        E 0 81 41 00
        E 0 91 40 2a
        E 80 b1 0b 22
        E 80 b1 0b 2a
        E 0 81 40 00
        E 0 91 41 2a
        E 80 b1 0b 22
        E 64 b1 0b 2a
        E 0 81 41 00
        E 0 91 43 2a
        E 80 b1 0b 22
        E 80 b1 0b 19
        E 80 b1 0b 11
        E 96 b1 0b 08
        E 112 b1 0b 33
        E 0 81 43 00
        E 0 91 48 33
        E 64 81 48 00
        E 0 91 47 33
        E 48 81 47 00
        E 0 91 45 33
        E 64 81 45 00
        E 0 91 43 33
        E 48 81 43 00
        E 0 91 41 33
        E 64 81 41 00
        E 0 91 40 33
        E 48 81 40 00
        E 0 91 3e 33
        E 64 81 3e 00
        E 0 91 3c 33
        E 48 b1 0b 2a
        E 0 81 3c 00
        E 0 91 45 2a
        E 80 b1 0b 22
        E 80 b1 0b 19
        E 64 b1 0b 2a
        E 80 b1 0b 22
        E 80 b1 0b 19
        E 64 b1 0b 2a
        E 0 81 45 00
        E 0 91 3e 2a
        E 80 b1 0b 22
        E 80 b1 0b 19
        E 64 b1 0b 2a
        E 0 81 3e 00
        E 0 91 45 2a
        E 80 b1 0b 22
        E 80 b1 0b 19
        E 64 b1 0b 2a
        E 80 b1 0b 22
        E 80 b1 0b 19
        E 64 b1 0b 2a
        E 0 81 45 00
        E 0 91 36 2a
        E 80 b1 0b 22
        E 80 b1 0b 19
        E 64 b1 0b 2a
        E 0 81 36 00
        E 0 91 42 2a
        E 80 b1 0b 22
        E 64 b1 0b 2a
        E 0 81 42 00
        E 0 91 40 2a
        E 80 b1 0b 22
        E 80 b1 0b 2a
        E 0 81 40 00
        E 0 91 3e 2a
        E 80 b1 0b 22
        E 64 b1 0b 2a
        E 0 81 3e 00
        E 0 91 47 2a
        E 80 b1 0b 22
        E 80 b1 0b 19
        E 64 b1 0b 2a
        E 80 b1 0b 22
        E 80 b1 0b 19
        E 64 b1 0b 2a
        E 0 81 47 00
        E 0 91 37 2a
        E 80 b1 0b 22
        E 80 b1 0b 19
        E 64 b1 0b 2a
        E 0 81 37 00
        E 0 91 47 2a
        E 80 b1 0b 22
        E 80 b1 0b 19
        E 64 b1 0b 2a
        E 80 b1 0b 22
        E 80 b1 0b 19
        E 64 b1 0b 2a
        E 0 81 47 00
        E 0 91 3b 2a
        E 80 b1 0b 22
        E 80 b1 0b 19
        E 64 b1 0b 2a
        E 0 81 3b 00
        E 0 91 43 2a
        E 80 b1 0b 22
        E 64 b1 0b 2a
        E 0 81 43 00
        E 0 91 42 2a
        E 80 b1 0b 22
        E 80 b1 0b 2a
        E 0 81 42 00
        E 0 91 40 2a
        E 80 b1 0b 22
        E 64 b1 0b 2a
        E 0 81 40 00
        E 0 91 45 2a
        E 80 b1 0b 22
        E 80 b1 0b 19
        E 64 b1 0b 2a
        E 80 b1 0b 22
        E 80 b1 0b 19
        E 64 b1 0b 2a
        E 0 81 45 00
        E 0 91 3e 2a
        E 80 b1 0b 22
        E 80 b1 0b 19
        E 64 b1 0b 2a
        E 0 81 3e 00
        E 0 91 45 2a
        E 80 b1 0b 22
        E 80 b1 0b 19
        E 64 b1 0b 2a
        E 80 b1 0b 22
        E 80 b1 0b 19
        E 64 b1 0b 2a
        E 0 81 45 00
        E 0 91 36 2a
        E 80 b1 0b 22
        E 80 b1 0b 19
        E 64 b1 0b 2a
        E 0 81 36 00
        E 0 91 42 2a
        E 80 b1 0b 22
        E 64 b1 0b 2a
        E 0 81 42 00
        E 0 91 40 2a
        E 80 b1 0b 22
        E 80 b1 0b 2a
        E 0 81 40 00
        E 0 91 3e 2a
        E 80 b1 0b 22
        E 64 b1 0b 2a
        E 0 81 3e 00
        E 0 91 47 2a
        E 80 b1 0b 22
        E 80 b1 0b 19
        E 64 b1 0b 2a
        E 80 b1 0b 22
        E 80 b1 0b 19
        E 64 b1 0b 2a
        E 0 81 47 00
        E 0 91 37 2a
        E 80 b1 0b 22
        E 80 b1 0b 19
        E 64 b1 0b 2a
        E 0 81 37 00
        E 0 91 47 2a
        E 80 b1 0b 22
        E 80 b1 0b 19
        E 64 b1 0b 2a
        E 80 b1 0b 22
        E 80 b1 0b 19
        E 64 b1 0b 2a
        E 0 81 47 00
        E 0 91 3b 2a
        E 80 b1 0b 22
        E 80 b1 0b 19
        E 64 b1 0b 2a
        E 0 81 3b 00
        E 0 91 43 2a
        E 80 b1 0b 22
        E 64 b1 0b 2a
        E 0 81 43 00
        E 0 91 45 2a
        E 80 b1 0b 22
        E 80 b1 0b 2a
        E 0 81 45 00
        E 0 91 47 2a
        E 80 b1 0b 22
        E 64 b1 0b 2a
        E 0 81 47 00
        E 0 91 40 2a
        E 80 b1 0b 22
        E 80 b1 0b 19
        E 64 b1 0b 2a
        E 80 b1 0b 22
        E 80 b1 0b 19
        E 64 b1 0b 2a
        E 192 b1 0b 22
        E 80 b1 0b 19
        E 80 b1 0b 11
        E 96 b1 0b 2a
        E 80 b1 0b 22
        E 80 b1 0b 19
        E 64 b1 0b 2a
        E 80 b1 0b 22
        E 80 b1 0b 19
        E 64 b1 0b 2a
        E 0 81 40 00
        E 0 91 43 2a
        E 80 b1 0b 22
        E 80 b1 0b 19
        E 64 b1 0b 2a
        E 80 b1 0b 22
        E 80 b1 0b 19
        E 64 b1 0b 2a
        E 0 81 43 00
        E 0 91 45 2a
        E 80 b1 0b 22
        E 80 b1 0b 19
        E 64 b1 0b 2a
        E 80 b1 0b 22
        E 80 b1 0b 19
        E 64 b1 0b 2a
        E 0 81 45 00
        E 0 91 43 2a
        E 80 b1 0b 22
        E 80 b1 0b 19
        E 64 b1 0b 2a
        E 0 81 43 00
        E 0 91 42 2a
        E 80 b1 0b 22
        E 80 b1 0b 19
        E 64 b1 0b 2a
        E 0 81 42 00
        E 0 91 43 2a
        E 80 b1 0b 22
        E 80 b1 0b 19
        E 64 b1 0b 2a
        E 80 b1 0b 22
        E 80 b1 0b 19
        E 64 b1 0b 2a
        E 0 81 43 00
        E 0 91 45 2a
        E 80 b1 0b 22
        E 80 b1 0b 19
        E 64 b1 0b 2a
        E 0 81 45 00
        E 0 91 47 2a
        E 80 b1 0b 22
        E 80 b1 0b 19
        E 64 b1 0b 2a
        E 0 81 47 00
        E 0 91 40 2a
        E 80 b1 0b 22
        E 80 b1 0b 19
        E 64 b1 0b 2a
        E 80 b1 0b 22
        E 80 b1 0b 19
        E 64 b1 0b 2a
        E 192 b1 0b 22
        E 80 b1 0b 19
        E 80 b1 0b 11
        E 96 b1 0b 2a
        E 80 b1 0b 22
        E 80 b1 0b 19
        E 64 b1 0b 2a
        E 80 b1 0b 22
        E 80 b1 0b 19
        E 64 b1 0b 2a
        E 0 81 40 00
        E 0 91 43 2a
        E 80 b1 0b 22
        E 80 b1 0b 19
        E 64 b1 0b 2a
        E 80 b1 0b 22
        E 80 b1 0b 19
        E 64 b1 0b 2a
        E 0 81 43 00
        E 0 91 45 2a
        E 80 b1 0b 22
        E 16 81 45 00
        E 0 b1 7b 00
        E 0 ff 2f 00
      >
    >
  >
  <TRACK {7D90AE62-227A-4FF1-ADC1-10CBE60DE3AC}
    NAME "NES - Triangle [ch2]"
    PEAKCOL 16744192
    BEAT -1
    AUTOMODE 0
    PANLAWFLAGS 3
    VOLPAN 1 0 -1 -1 1
    MUTESOLO 0 0 0
    IPHASE 0
    PLAYOFFS 0 1
    ISBUS 0 0
    BUSCOMP 0 0 0 0 0
    SHOWINMIX 1 0.6667 0.5 1 0.5 0 0 0
    FIXEDLANES 9 0 0 0 0
    SEL 0
    REC 0 5088 1 0 0 0 0 0
    VU 2
    TRACKHEIGHT 0 0 0 0 0 0 0
    INQ 0 0 0 0.5 100 0 0 100
    NCHAN 2
    FX 1
    TRACKID {7D90AE62-227A-4FF1-ADC1-10CBE60DE3AC}
    PERF 0
    MIDIOUT -1
    MAINSEND 1 0
    <FXCHAIN
      WNDRECT 24 52 700 560
      SHOW 0
      LASTSEL 0
      DOCKED 0
      BYPASS 0 0 0
      <JS "ReapNES Studio/ReapNES_Console.jsfx" ""
        2 15 1 10 80 10 100 2 1 15 1 5 60 10 80 1 1 0 50 0 0 15 1 0 100 0 0 0.500000 0.500000 0.400000 0.300000 0.800000 2 1 0 0 0 0 - - - - - - - - - - - - - - - - - - - - - - - - - -
      >
      FLOATPOS 0 0 0 0
      FXID {77188F0F-479F-45CD-B42C-096E0FCCE019}
      WAK 0 0
    >
    <ITEM
      POSITION 0
      LENGTH 74.4790069
      LOOP 0
      ALLTAKES 0
      FADEIN 0 0 0 0 0 0 0
      FADEOUT 0 0 0 0 0 0 0
      MUTE 0 0
      SEL 0
      IGUID {9B0A6933-DFC2-4754-BD14-3ABA1DDA9E39}
      <SOURCE MIDI
        HASDATA 1 480 QN
        CCINTERP 32
        E 0 c2 26
        E 0 b2 0b 7f
        E 0 92 39 7f
        E 112 82 39 00
        E 96 b2 0b 7f
        E 0 92 24 7f
        E 48 82 24 00
        E 64 b2 0b 7f
        E 0 92 24 7f
        E 192 82 24 00
        E 128 b2 0b 7f
        E 0 92 21 7f
        E 192 82 21 00
        E 128 b2 0b 7f
        E 0 92 23 7f
        E 192 82 23 00
        E 128 b2 0b 7f
        E 0 92 1f 7f
        E 192 82 1f 00
        E 128 b2 0b 7f
        E 0 92 1f 7f
        E 448 82 1f 00
        E 448 b2 0b 7f
        E 0 92 43 7f
        E 32 82 43 00
        E 32 b2 0b 7f
        E 0 92 41 7f
        E 16 82 41 00
        E 32 b2 0b 7f
        E 0 92 40 7f
        E 32 82 40 00
        E 32 b2 0b 7f
        E 0 92 3e 7f
        E 16 82 3e 00
        E 32 b2 0b 7f
        E 0 92 3c 7f
        E 32 82 3c 00
        E 32 b2 0b 7f
        E 0 92 3b 7f
        E 16 82 3b 00
        E 32 b2 0b 7f
        E 0 92 3c 7f
        E 32 82 3c 00
        E 32 b2 0b 7f
        E 0 92 3e 7f
        E 16 82 3e 00
        E 32 b2 0b 7f
        E 0 92 40 7f
        E 32 82 40 00
        E 32 b2 0b 7f
        E 0 92 41 7f
        E 16 82 41 00
        E 32 b2 0b 7f
        E 0 92 43 7f
        E 32 82 43 00
        E 32 b2 0b 7f
        E 0 92 45 7f
        E 16 82 45 00
        E 32 b2 0b 7f
        E 0 92 47 7f
        E 32 82 47 00
        E 32 b2 0b 7f
        E 0 92 45 7f
        E 16 82 45 00
        E 32 b2 0b 7f
        E 0 92 43 7f
        E 32 82 43 00
        E 32 b2 0b 7f
        E 0 92 43 7f
        E 16 82 43 00
        E 32 b2 0b 7f
        E 0 92 1f 7f
        E 448 82 1f 00
        E 448 b2 0b 7f
        E 0 92 22 7f
        E 448 82 22 00
        E 448 b2 0b 7f
        E 0 92 1f 7f
        E 448 82 1f 00
        E 448 b2 0b 7f
        E 0 92 37 7f
        E 32 82 37 00
        E 32 b2 0b 7f
        E 0 92 39 7f
        E 16 82 39 00
        E 32 b2 0b 7f
        E 0 92 3b 7f
        E 32 82 3b 00
        E 32 b2 0b 7f
        E 0 92 3c 7f
        E 16 82 3c 00
        E 32 b2 0b 7f
        E 0 92 3e 7f
        E 32 82 3e 00
        E 32 b2 0b 7f
        E 0 92 40 7f
        E 16 82 40 00
        E 32 b2 0b 7f
        E 0 92 41 7f
        E 32 82 41 00
        E 32 b2 0b 7f
        E 0 92 43 7f
        E 16 82 43 00
        E 32 b2 0b 7f
        E 0 92 45 7f
        E 32 82 45 00
        E 32 b2 0b 7f
        E 0 92 47 7f
        E 16 82 47 00
        E 32 b2 0b 7f
        E 0 92 45 7f
        E 32 82 45 00
        E 32 b2 0b 7f
        E 0 92 43 7f
        E 16 82 43 00
        E 32 b2 0b 7f
        E 0 92 41 7f
        E 32 82 41 00
        E 32 b2 0b 7f
        E 0 92 40 7f
        E 16 82 40 00
        E 32 b2 0b 7f
        E 0 92 3e 7f
        E 32 82 3e 00
        E 32 b2 0b 7f
        E 0 92 3e 7f
        E 16 82 3e 00
        E 32 b2 0b 7f
        E 0 92 1f 7f
        E 448 82 1f 00
        E 448 b2 0b 7f
        E 0 92 1e 7f
        E 448 82 1e 00
        E 448 b2 0b 7f
        E 0 92 1f 7f
        E 448 82 1f 00
        E 448 b2 0b 7f
        E 0 92 43 7f
        E 32 82 43 00
        E 32 b2 0b 7f
        E 0 92 41 7f
        E 16 82 41 00
        E 32 b2 0b 7f
        E 0 92 40 7f
        E 32 82 40 00
        E 32 b2 0b 7f
        E 0 92 3e 7f
        E 16 82 3e 00
        E 32 b2 0b 7f
        E 0 92 3c 7f
        E 32 82 3c 00
        E 32 b2 0b 7f
        E 0 92 3b 7f
        E 16 82 3b 00
        E 32 b2 0b 7f
        E 0 92 3c 7f
        E 32 82 3c 00
        E 32 b2 0b 7f
        E 0 92 3e 7f
        E 16 82 3e 00
        E 32 b2 0b 7f
        E 0 92 40 7f
        E 32 82 40 00
        E 32 b2 0b 7f
        E 0 92 41 7f
        E 16 82 41 00
        E 32 b2 0b 7f
        E 0 92 43 7f
        E 32 82 43 00
        E 32 b2 0b 7f
        E 0 92 45 7f
        E 16 82 45 00
        E 32 b2 0b 7f
        E 0 92 47 7f
        E 32 82 47 00
        E 32 b2 0b 7f
        E 0 92 45 7f
        E 16 82 45 00
        E 32 b2 0b 7f
        E 0 92 43 7f
        E 32 82 43 00
        E 32 b2 0b 7f
        E 0 92 43 7f
        E 16 82 43 00
        E 32 b2 0b 7f
        E 0 92 1f 7f
        E 448 82 1f 00
        E 448 b2 0b 7f
        E 0 92 22 7f
        E 448 82 22 00
        E 448 b2 0b 7f
        E 0 92 2b 7f
        E 224 82 2b 00
        E 224 b2 0b 7f
        E 0 92 2a 7f
        E 224 82 2a 00
        E 224 b2 0b 7f
        E 0 92 29 7f
        E 224 82 29 00
        E 224 b2 0b 7f
        E 0 92 28 7f
        E 224 82 28 00
        E 224 b2 0b 7f
        E 0 92 1f 7f
        E 448 82 1f 00
        E 448 b2 0b 7f
        E 0 92 2b 7f
        E 448 82 2b 00
        E 448 b2 0b 7f
        E 0 92 1f 7f
        E 448 82 1f 00
        E 448 b2 0b 7f
        E 0 92 43 7f
        E 32 82 43 00
        E 32 b2 0b 7f
        E 0 92 41 7f
        E 16 82 41 00
        E 32 b2 0b 7f
        E 0 92 40 7f
        E 32 82 40 00
        E 32 b2 0b 7f
        E 0 92 3e 7f
        E 16 82 3e 00
        E 32 b2 0b 7f
        E 0 92 3c 7f
        E 32 82 3c 00
        E 32 b2 0b 7f
        E 0 92 3b 7f
        E 16 82 3b 00
        E 32 b2 0b 7f
        E 0 92 3c 7f
        E 32 82 3c 00
        E 32 b2 0b 7f
        E 0 92 3e 7f
        E 16 82 3e 00
        E 32 b2 0b 7f
        E 0 92 40 7f
        E 32 82 40 00
        E 32 b2 0b 7f
        E 0 92 41 7f
        E 16 82 41 00
        E 896 b2 0b 7f
        E 0 92 37 7f
        E 48 82 37 00
        E 64 b2 0b 7f
        E 0 92 39 7f
        E 112 82 39 00
        E 96 b2 0b 7f
        E 0 92 24 7f
        E 48 82 24 00
        E 64 b2 0b 7f
        E 0 92 24 7f
        E 192 82 24 00
        E 128 b2 0b 7f
        E 0 92 21 7f
        E 192 82 21 00
        E 128 b2 0b 7f
        E 0 92 23 7f
        E 192 82 23 00
        E 128 b2 0b 7f
        E 0 92 1f 7f
        E 192 82 1f 00
        E 128 b2 0b 7f
        E 0 92 24 7f
        E 192 82 24 00
        E 128 b2 0b 7f
        E 0 92 21 7f
        E 192 82 21 00
        E 128 b2 0b 7f
        E 0 92 23 7f
        E 48 82 23 00
        E 320 b2 0b 7f
        E 0 92 2b 7f
        E 112 82 2b 00
        E 112 b2 0b 7f
        E 0 92 2b 7f
        E 112 82 2b 00
        E 112 b2 0b 7f
        E 0 92 28 7f
        E 48 82 28 00
        E 64 b2 0b 7f
        E 0 92 29 7f
        E 112 82 29 00
        E 112 b2 0b 7f
        E 0 92 28 7f
        E 48 82 28 00
        E 64 b2 0b 7f
        E 0 92 2b 7f
        E 112 82 2b 00
        E 112 b2 0b 7f
        E 0 92 28 7f
        E 48 82 28 00
        E 64 b2 0b 7f
        E 0 92 2b 7f
        E 112 82 2b 00
        E 112 b2 0b 7f
        E 0 92 28 7f
        E 48 82 28 00
        E 64 b2 0b 7f
        E 0 92 2c 7f
        E 112 82 2c 00
        E 112 b2 0b 7f
        E 0 92 2b 7f
        E 112 82 2b 00
        E 112 b2 0b 7f
        E 0 92 2b 7f
        E 112 82 2b 00
        E 112 b2 0b 7f
        E 0 92 28 7f
        E 48 82 28 00
        E 64 b2 0b 7f
        E 0 92 29 7f
        E 112 82 29 00
        E 112 b2 0b 7f
        E 0 92 28 7f
        E 48 82 28 00
        E 64 b2 0b 7f
        E 0 92 2b 7f
        E 112 82 2b 00
        E 112 b2 0b 7f
        E 0 92 28 7f
        E 48 82 28 00
        E 64 b2 0b 7f
        E 0 92 2b 7f
        E 112 82 2b 00
        E 112 b2 0b 7f
        E 0 92 28 7f
        E 48 82 28 00
        E 64 b2 0b 7f
        E 0 92 2a 7f
        E 112 82 2a 00
        E 112 b2 0b 7f
        E 0 92 2b 7f
        E 112 82 2b 00
        E 112 b2 0b 7f
        E 0 92 2b 7f
        E 112 82 2b 00
        E 112 b2 0b 7f
        E 0 92 28 7f
        E 48 82 28 00
        E 64 b2 0b 7f
        E 0 92 29 7f
        E 112 82 29 00
        E 112 b2 0b 7f
        E 0 92 28 7f
        E 48 82 28 00
        E 64 b2 0b 7f
        E 0 92 2b 7f
        E 112 82 2b 00
        E 112 b2 0b 7f
        E 0 92 28 7f
        E 48 82 28 00
        E 64 b2 0b 7f
        E 0 92 2b 7f
        E 112 82 2b 00
        E 112 b2 0b 7f
        E 0 92 28 7f
        E 48 82 28 00
        E 64 b2 0b 7f
        E 0 92 2c 7f
        E 112 82 2c 00
        E 112 b2 0b 7f
        E 0 92 2b 7f
        E 112 82 2b 00
        E 112 b2 0b 7f
        E 0 92 2b 7f
        E 112 82 2b 00
        E 112 b2 0b 7f
        E 0 92 28 7f
        E 48 82 28 00
        E 64 b2 0b 7f
        E 0 92 29 7f
        E 112 82 29 00
        E 112 b2 0b 7f
        E 0 92 28 7f
        E 48 82 28 00
        E 64 b2 0b 7f
        E 0 92 2b 7f
        E 112 82 2b 00
        E 112 b2 0b 7f
        E 0 92 28 7f
        E 48 82 28 00
        E 64 b2 0b 7f
        E 0 92 2b 7f
        E 112 82 2b 00
        E 112 b2 0b 7f
        E 0 92 28 7f
        E 48 82 28 00
        E 64 b2 0b 7f
        E 0 92 2a 7f
        E 112 82 2a 00
        E 112 b2 0b 7f
        E 0 92 2b 7f
        E 112 82 2b 00
        E 112 b2 0b 7f
        E 0 92 2b 7f
        E 112 82 2b 00
        E 112 b2 0b 7f
        E 0 92 28 7f
        E 48 82 28 00
        E 64 b2 0b 7f
        E 0 92 29 7f
        E 112 82 29 00
        E 112 b2 0b 7f
        E 0 92 28 7f
        E 48 82 28 00
        E 64 b2 0b 7f
        E 0 92 2b 7f
        E 112 82 2b 00
        E 112 b2 0b 7f
        E 0 92 28 7f
        E 48 82 28 00
        E 64 b2 0b 7f
        E 0 92 2b 7f
        E 112 82 2b 00
        E 112 b2 0b 7f
        E 0 92 28 7f
        E 48 82 28 00
        E 64 b2 0b 7f
        E 0 92 2c 7f
        E 112 82 2c 00
        E 112 b2 0b 7f
        E 0 92 2b 7f
        E 112 82 2b 00
        E 112 b2 0b 7f
        E 0 92 2b 7f
        E 112 82 2b 00
        E 112 b2 0b 7f
        E 0 92 28 7f
        E 48 82 28 00
        E 64 b2 0b 7f
        E 0 92 29 7f
        E 112 82 29 00
        E 112 b2 0b 7f
        E 0 92 28 7f
        E 48 82 28 00
        E 64 b2 0b 7f
        E 0 92 2b 7f
        E 112 82 2b 00
        E 112 b2 0b 7f
        E 0 92 28 7f
        E 48 82 28 00
        E 64 b2 0b 7f
        E 0 92 2b 7f
        E 112 82 2b 00
        E 112 b2 0b 7f
        E 0 92 28 7f
        E 48 82 28 00
        E 64 b2 0b 7f
        E 0 92 2a 7f
        E 112 82 2a 00
        E 112 b2 0b 7f
        E 0 92 2b 7f
        E 112 82 2b 00
        E 112 b2 0b 7f
        E 0 92 2b 7f
        E 112 82 2b 00
        E 112 b2 0b 7f
        E 0 92 28 7f
        E 48 82 28 00
        E 64 b2 0b 7f
        E 0 92 29 7f
        E 112 82 29 00
        E 112 b2 0b 7f
        E 0 92 28 7f
        E 48 82 28 00
        E 64 b2 0b 7f
        E 0 92 2b 7f
        E 112 82 2b 00
        E 112 b2 0b 7f
        E 0 92 28 7f
        E 48 82 28 00
        E 64 b2 0b 7f
        E 0 92 2b 7f
        E 112 82 2b 00
        E 112 b2 0b 7f
        E 0 92 28 7f
        E 48 82 28 00
        E 64 b2 0b 7f
        E 0 92 2c 7f
        E 112 82 2c 00
        E 112 b2 0b 7f
        E 0 92 2b 7f
        E 112 82 2b 00
        E 112 b2 0b 7f
        E 0 92 2b 7f
        E 112 82 2b 00
        E 112 b2 0b 7f
        E 0 92 28 7f
        E 48 82 28 00
        E 64 b2 0b 7f
        E 0 92 29 7f
        E 112 82 29 00
        E 112 b2 0b 7f
        E 0 92 28 7f
        E 48 82 28 00
        E 64 b2 0b 7f
        E 0 92 2b 7f
        E 112 82 2b 00
        E 112 b2 0b 7f
        E 0 92 28 7f
        E 48 82 28 00
        E 64 b2 0b 7f
        E 0 92 2b 7f
        E 112 82 2b 00
        E 112 b2 0b 7f
        E 0 92 28 7f
        E 48 82 28 00
        E 64 b2 0b 7f
        E 0 92 2a 7f
        E 112 82 2a 00
        E 112 b2 0b 7f
        E 0 92 26 7f
        E 112 82 26 00
        E 112 b2 0b 7f
        E 0 92 26 7f
        E 112 82 26 00
        E 112 b2 0b 7f
        E 0 92 24 7f
        E 112 82 24 00
        E 112 b2 0b 7f
        E 0 92 24 7f
        E 112 82 24 00
        E 112 b2 0b 7f
        E 0 92 23 7f
        E 112 82 23 00
        E 112 b2 0b 7f
        E 0 92 23 7f
        E 112 82 23 00
        E 112 b2 0b 7f
        E 0 92 21 7f
        E 112 82 21 00
        E 112 b2 0b 7f
        E 0 92 21 7f
        E 112 82 21 00
        E 112 b2 0b 7f
        E 0 92 1f 7f
        E 112 82 1f 00
        E 112 b2 0b 7f
        E 0 92 1f 7f
        E 112 82 1f 00
        E 112 b2 0b 7f
        E 0 92 1e 7f
        E 112 82 1e 00
        E 112 b2 0b 7f
        E 0 92 1e 7f
        E 112 82 1e 00
        E 112 b2 0b 7f
        E 0 92 1c 7f
        E 112 82 1c 00
        E 112 b2 0b 7f
        E 0 92 1c 7f
        E 112 82 1c 00
        E 112 b2 0b 7f
        E 0 92 1e 7f
        E 112 82 1e 00
        E 112 b2 0b 7f
        E 0 92 1e 7f
        E 112 82 1e 00
        E 112 b2 0b 7f
        E 0 92 26 7f
        E 112 82 26 00
        E 112 b2 0b 7f
        E 0 92 26 7f
        E 112 82 26 00
        E 112 b2 0b 7f
        E 0 92 24 7f
        E 112 82 24 00
        E 112 b2 0b 7f
        E 0 92 24 7f
        E 112 82 24 00
        E 112 b2 0b 7f
        E 0 92 23 7f
        E 112 82 23 00
        E 112 b2 0b 7f
        E 0 92 23 7f
        E 112 82 23 00
        E 112 b2 0b 7f
        E 0 92 21 7f
        E 112 82 21 00
        E 112 b2 0b 7f
        E 0 92 21 7f
        E 112 82 21 00
        E 112 b2 0b 7f
        E 0 92 1f 7f
        E 112 82 1f 00
        E 112 b2 0b 7f
        E 0 92 1f 7f
        E 112 82 1f 00
        E 112 b2 0b 7f
        E 0 92 1e 7f
        E 112 82 1e 00
        E 112 b2 0b 7f
        E 0 92 1e 7f
        E 112 82 1e 00
        E 112 b2 0b 7f
        E 0 92 1c 7f
        E 112 82 1c 00
        E 112 b2 0b 7f
        E 0 92 1c 7f
        E 112 82 1c 00
        E 112 b2 0b 7f
        E 0 92 1e 7f
        E 112 82 1e 00
        E 112 b2 0b 7f
        E 0 92 1e 7f
        E 112 82 1e 00
        E 112 b2 0b 7f
        E 0 92 24 7f
        E 112 82 24 00
        E 112 b2 0b 7f
        E 0 92 24 7f
        E 112 82 24 00
        E 112 b2 0b 7f
        E 0 92 26 7f
        E 112 82 26 00
        E 112 b2 0b 7f
        E 0 92 28 7f
        E 112 82 28 00
        E 112 b2 0b 7f
        E 0 92 26 7f
        E 112 82 26 00
        E 112 b2 0b 7f
        E 0 92 26 7f
        E 112 82 26 00
        E 112 b2 0b 7f
        E 0 92 24 7f
        E 112 82 24 00
        E 112 b2 0b 7f
        E 0 92 23 7f
        E 112 82 23 00
        E 112 b2 0b 7f
        E 0 92 26 7f
        E 112 82 26 00
        E 112 b2 0b 7f
        E 0 92 26 7f
        E 112 82 26 00
        E 112 b2 0b 7f
        E 0 92 24 7f
        E 112 82 24 00
        E 112 b2 0b 7f
        E 0 92 23 7f
        E 112 82 23 00
        E 112 b2 0b 7f
        E 0 92 1f 7f
        E 112 82 1f 00
        E 112 b2 0b 7f
        E 0 92 1f 7f
        E 112 82 1f 00
        E 112 b2 0b 7f
        E 0 92 21 7f
        E 112 82 21 00
        E 112 b2 0b 7f
        E 0 92 23 7f
        E 112 82 23 00
        E 112 b2 0b 7f
        E 0 92 24 7f
        E 112 82 24 00
        E 112 b2 0b 7f
        E 0 92 24 7f
        E 112 82 24 00
        E 112 b2 0b 7f
        E 0 92 26 7f
        E 112 82 26 00
        E 112 b2 0b 7f
        E 0 92 28 7f
        E 112 82 28 00
        E 112 b2 0b 7f
        E 0 92 26 7f
        E 112 82 26 00
        E 112 b2 0b 7f
        E 0 92 26 7f
        E 112 82 26 00
        E 112 b2 0b 7f
        E 0 92 24 7f
        E 112 82 24 00
        E 112 b2 0b 7f
        E 0 92 23 7f
        E 112 82 23 00
        E 112 b2 0b 7f
        E 0 92 26 7f
        E 112 82 26 00
        E 112 b2 0b 7f
        E 0 92 26 7f
        E 112 82 26 00
        E 112 b2 0b 7f
        E 0 92 24 7f
        E 112 82 24 00
        E 112 b2 0b 7f
        E 0 92 23 7f
        E 112 82 23 00
        E 112 b2 0b 7f
        E 0 92 1f 7f
        E 112 82 1f 00
        E 112 b2 0b 7f
        E 0 92 1f 7f
        E 112 82 1f 00
        E 112 b2 0b 7f
        E 0 92 21 7f
        E 112 82 21 00
        E 112 b2 0b 7f
        E 0 92 23 7f
        E 112 82 23 00
        E 112 b2 0b 7f
        E 0 92 2b 7f
        E 112 82 2b 00
        E 112 b2 0b 7f
        E 0 92 2b 7f
        E 112 82 2b 00
        E 112 b2 0b 7f
        E 0 92 28 7f
        E 48 82 28 00
        E 64 b2 0b 7f
        E 0 92 29 7f
        E 112 82 29 00
        E 112 b2 0b 7f
        E 0 92 28 7f
        E 48 82 28 00
        E 64 b2 0b 7f
        E 0 92 2b 7f
        E 112 82 2b 00
        E 112 b2 0b 7f
        E 0 92 28 7f
        E 48 82 28 00
        E 64 b2 0b 7f
        E 0 92 2b 7f
        E 112 82 2b 00
        E 112 b2 0b 7f
        E 0 92 28 7f
        E 48 82 28 00
        E 64 b2 0b 7f
        E 0 92 2c 7f
        E 112 82 2c 00
        E 112 b2 0b 7f
        E 0 92 2b 7f
        E 112 82 2b 00
        E 112 b2 0b 7f
        E 0 92 2b 7f
        E 112 82 2b 00
        E 112 b2 0b 7f
        E 0 92 28 7f
        E 48 82 28 00
        E 64 b2 0b 7f
        E 0 92 29 7f
        E 112 82 29 00
        E 112 b2 0b 7f
        E 0 92 28 7f
        E 48 82 28 00
        E 64 b2 0b 7f
        E 0 92 2b 7f
        E 112 82 2b 00
        E 112 b2 0b 7f
        E 0 92 28 7f
        E 48 82 28 00
        E 64 b2 0b 7f
        E 0 92 2b 7f
        E 112 82 2b 00
        E 112 b2 0b 7f
        E 0 92 28 7f
        E 48 82 28 00
        E 64 b2 0b 7f
        E 0 92 2a 7f
        E 112 82 2a 00
        E 112 b2 0b 7f
        E 0 92 2b 7f
        E 112 82 2b 00
        E 112 b2 0b 7f
        E 0 92 2b 7f
        E 112 82 2b 00
        E 112 b2 0b 7f
        E 0 92 28 7f
        E 48 82 28 00
        E 64 b2 0b 7f
        E 0 92 29 7f
        E 112 82 29 00
        E 112 b2 0b 7f
        E 0 92 28 7f
        E 48 82 28 00
        E 64 b2 0b 7f
        E 0 92 2b 7f
        E 112 82 2b 00
        E 112 b2 0b 7f
        E 0 92 28 7f
        E 48 82 28 00
        E 64 b2 0b 7f
        E 0 92 2b 7f
        E 112 82 2b 00
        E 112 b2 0b 7f
        E 0 92 28 7f
        E 48 82 28 00
        E 64 b2 0b 7f
        E 0 92 2c 7f
        E 112 82 2c 00
        E 112 b2 0b 7f
        E 0 92 2b 7f
        E 112 82 2b 00
        E 112 b2 0b 7f
        E 0 92 2b 7f
        E 112 82 2b 00
        E 112 b2 0b 7f
        E 0 92 28 7f
        E 48 82 28 00
        E 64 b2 0b 7f
        E 0 92 29 7f
        E 112 82 29 00
        E 112 b2 0b 7f
        E 0 92 28 7f
        E 48 82 28 00
        E 64 b2 0b 7f
        E 0 92 2b 7f
        E 112 82 2b 00
        E 112 b2 0b 7f
        E 0 92 28 7f
        E 48 82 28 00
        E 64 b2 0b 7f
        E 0 92 2b 7f
        E 112 82 2b 00
        E 112 b2 0b 7f
        E 0 92 28 7f
        E 48 82 28 00
        E 64 b2 0b 7f
        E 0 92 2a 7f
        E 112 82 2a 00
        E 112 b2 0b 7f
        E 0 92 2b 7f
        E 112 82 2b 00
        E 112 b2 0b 7f
        E 0 92 2b 7f
        E 112 82 2b 00
        E 112 b2 0b 7f
        E 0 92 28 7f
        E 48 82 28 00
        E 64 b2 0b 7f
        E 0 92 29 7f
        E 112 82 29 00
        E 112 b2 0b 7f
        E 0 92 28 7f
        E 48 82 28 00
        E 64 b2 0b 7f
        E 0 92 2b 7f
        E 112 82 2b 00
        E 112 b2 0b 7f
        E 0 92 28 7f
        E 48 82 28 00
        E 64 b2 0b 7f
        E 0 92 2b 7f
        E 112 82 2b 00
        E 112 b2 0b 7f
        E 0 92 28 7f
        E 48 82 28 00
        E 64 b2 0b 7f
        E 0 92 2c 7f
        E 112 82 2c 00
        E 112 b2 0b 7f
        E 0 92 2b 7f
        E 112 82 2b 00
        E 112 b2 0b 7f
        E 0 92 2b 7f
        E 112 82 2b 00
        E 112 b2 0b 7f
        E 0 92 28 7f
        E 48 82 28 00
        E 64 b2 0b 7f
        E 0 92 29 7f
        E 112 82 29 00
        E 112 b2 0b 7f
        E 0 92 28 7f
        E 48 82 28 00
        E 64 b2 0b 7f
        E 0 92 2b 7f
        E 112 82 2b 00
        E 112 b2 0b 7f
        E 0 92 28 7f
        E 48 82 28 00
        E 64 b2 0b 7f
        E 0 92 2b 7f
        E 112 82 2b 00
        E 112 b2 0b 7f
        E 0 92 28 7f
        E 48 82 28 00
        E 64 b2 0b 7f
        E 0 92 2a 7f
        E 112 82 2a 00
        E 112 b2 0b 7f
        E 0 92 2b 7f
        E 112 82 2b 00
        E 112 b2 0b 7f
        E 0 92 2b 7f
        E 112 82 2b 00
        E 112 b2 0b 7f
        E 0 92 28 7f
        E 48 82 28 00
        E 64 b2 0b 7f
        E 0 92 29 7f
        E 112 82 29 00
        E 112 b2 0b 7f
        E 0 92 28 7f
        E 48 82 28 00
        E 64 b2 0b 7f
        E 0 92 2b 7f
        E 112 82 2b 00
        E 112 b2 0b 7f
        E 0 92 28 7f
        E 48 82 28 00
        E 64 b2 0b 7f
        E 0 92 2b 7f
        E 112 82 2b 00
        E 112 b2 0b 7f
        E 0 92 28 7f
        E 48 82 28 00
        E 64 b2 0b 7f
        E 0 92 2c 7f
        E 112 82 2c 00
        E 112 b2 0b 7f
        E 0 92 2b 7f
        E 112 82 2b 00
        E 112 b2 0b 7f
        E 0 92 2b 7f
        E 112 82 2b 00
        E 112 b2 0b 7f
        E 0 92 28 7f
        E 48 82 28 00
        E 64 b2 0b 7f
        E 0 92 29 7f
        E 112 82 29 00
        E 112 b2 0b 7f
        E 0 92 28 7f
        E 48 82 28 00
        E 64 b2 0b 7f
        E 0 92 2b 7f
        E 112 82 2b 00
        E 112 b2 0b 7f
        E 0 92 28 7f
        E 48 82 28 00
        E 64 b2 0b 7f
        E 0 92 2b 7f
        E 112 82 2b 00
        E 112 b2 0b 7f
        E 0 92 28 7f
        E 48 82 28 00
        E 64 b2 0b 7f
        E 0 92 2a 7f
        E 112 82 2a 00
        E 112 b2 0b 7f
        E 0 92 26 7f
        E 112 82 26 00
        E 112 b2 0b 7f
        E 0 92 26 7f
        E 112 82 26 00
        E 112 b2 0b 7f
        E 0 92 24 7f
        E 112 82 24 00
        E 112 b2 0b 7f
        E 0 92 24 7f
        E 112 82 24 00
        E 112 b2 0b 7f
        E 0 92 23 7f
        E 112 82 23 00
        E 112 b2 0b 7f
        E 0 92 23 7f
        E 112 82 23 00
        E 112 b2 0b 7f
        E 0 92 21 7f
        E 112 82 21 00
        E 112 b2 0b 7f
        E 0 92 21 7f
        E 112 82 21 00
        E 112 b2 0b 7f
        E 0 92 1f 7f
        E 112 82 1f 00
        E 112 b2 0b 7f
        E 0 92 1f 7f
        E 112 82 1f 00
        E 112 b2 0b 7f
        E 0 92 1e 7f
        E 112 82 1e 00
        E 112 b2 0b 7f
        E 0 92 1e 7f
        E 112 82 1e 00
        E 112 b2 0b 7f
        E 0 92 1c 7f
        E 112 82 1c 00
        E 112 b2 0b 7f
        E 0 92 1c 7f
        E 112 82 1c 00
        E 112 b2 0b 7f
        E 0 92 1e 7f
        E 112 82 1e 00
        E 112 b2 0b 7f
        E 0 92 1e 7f
        E 112 82 1e 00
        E 112 b2 0b 7f
        E 0 92 26 7f
        E 112 82 26 00
        E 112 b2 0b 7f
        E 0 92 26 7f
        E 112 82 26 00
        E 112 b2 0b 7f
        E 0 92 24 7f
        E 112 82 24 00
        E 112 b2 0b 7f
        E 0 92 24 7f
        E 112 82 24 00
        E 112 b2 0b 7f
        E 0 92 23 7f
        E 112 82 23 00
        E 112 b2 0b 7f
        E 0 92 23 7f
        E 112 82 23 00
        E 112 b2 0b 7f
        E 0 92 21 7f
        E 112 82 21 00
        E 112 b2 0b 7f
        E 0 92 21 7f
        E 112 82 21 00
        E 112 b2 0b 7f
        E 0 92 1f 7f
        E 112 82 1f 00
        E 112 b2 0b 7f
        E 0 92 1f 7f
        E 112 82 1f 00
        E 112 b2 0b 7f
        E 0 92 1e 7f
        E 112 82 1e 00
        E 112 b2 0b 7f
        E 0 92 1e 7f
        E 112 82 1e 00
        E 112 b2 0b 7f
        E 0 92 1c 7f
        E 112 82 1c 00
        E 112 b2 0b 7f
        E 0 92 1c 7f
        E 112 82 1c 00
        E 112 b2 0b 7f
        E 0 92 1e 7f
        E 112 82 1e 00
        E 112 b2 0b 7f
        E 0 92 1e 7f
        E 112 82 1e 00
        E 112 b2 0b 7f
        E 0 92 24 7f
        E 112 82 24 00
        E 112 b2 0b 7f
        E 0 92 24 7f
        E 112 82 24 00
        E 112 b2 0b 7f
        E 0 92 26 7f
        E 112 82 26 00
        E 112 b2 0b 7f
        E 0 92 28 7f
        E 112 82 28 00
        E 112 b2 0b 7f
        E 0 92 26 7f
        E 112 82 26 00
        E 112 b2 0b 7f
        E 0 92 26 7f
        E 112 82 26 00
        E 112 b2 0b 7f
        E 0 92 24 7f
        E 112 82 24 00
        E 112 b2 0b 7f
        E 0 92 23 7f
        E 112 82 23 00
        E 112 b2 0b 7f
        E 0 92 26 7f
        E 112 82 26 00
        E 112 b2 0b 7f
        E 0 92 26 7f
        E 112 82 26 00
        E 112 b2 0b 7f
        E 0 92 24 7f
        E 112 82 24 00
        E 112 b2 0b 7f
        E 0 92 23 7f
        E 112 82 23 00
        E 112 b2 0b 7f
        E 0 92 1f 7f
        E 112 82 1f 00
        E 112 b2 0b 7f
        E 0 92 1f 7f
        E 112 82 1f 00
        E 112 b2 0b 7f
        E 0 92 21 7f
        E 112 82 21 00
        E 112 b2 0b 7f
        E 0 92 23 7f
        E 112 82 23 00
        E 112 b2 0b 7f
        E 0 92 24 7f
        E 112 82 24 00
        E 112 b2 0b 7f
        E 0 92 24 7f
        E 112 82 24 00
        E 112 b2 0b 7f
        E 0 92 26 7f
        E 112 82 26 00
        E 112 b2 0b 7f
        E 0 92 28 7f
        E 112 82 28 00
        E 112 b2 0b 7f
        E 0 92 26 7f
        E 112 82 26 00
        E 112 b2 0b 7f
        E 0 92 26 7f
        E 112 82 26 00
        E 112 b2 0b 7f
        E 0 92 24 7f
        E 112 82 24 00
        E 112 b2 0b 7f
        E 0 92 23 7f
        E 112 82 23 00
        E 112 b2 0b 7f
        E 0 92 26 7f
        E 96 82 26 00
        E 0 b2 7b 00
        E 0 ff 2f 00
      >
    >
  >
  <TRACK {6087DD75-FD5C-4078-8F68-F65DFB4F229C}
    NAME "NES - Noise / Drums [ch3]"
    PEAKCOL 11184810
    BEAT -1
    AUTOMODE 0
    PANLAWFLAGS 3
    VOLPAN 1 0 -1 -1 1
    MUTESOLO 0 0 0
    IPHASE 0
    PLAYOFFS 0 1
    ISBUS 0 0
    BUSCOMP 0 0 0 0 0
    SHOWINMIX 1 0.6667 0.5 1 0.5 0 0 0
    FIXEDLANES 9 0 0 0 0
    SEL 0
    REC 0 5088 1 0 0 0 0 0
    VU 2
    TRACKHEIGHT 0 0 0 0 0 0 0
    INQ 0 0 0 0.5 100 0 0 100
    NCHAN 2
    FX 1
    TRACKID {6087DD75-FD5C-4078-8F68-F65DFB4F229C}
    PERF 0
    MIDIOUT -1
    MAINSEND 1 0
    <FXCHAIN
      WNDRECT 24 52 700 560
      SHOW 0
      LASTSEL 0
      DOCKED 0
      BYPASS 0 0 0
      <JS "ReapNES Studio/ReapNES_Console.jsfx" ""
        2 15 1 10 80 10 100 2 1 15 1 5 60 10 80 1 1 0 50 0 0 15 1 0 100 0 0 0.500000 0.500000 0.400000 0.300000 0.800000 3 1 0 0 0 0 - - - - - - - - - - - - - - - - - - - - - - - - - -
      >
      FLOATPOS 0 0 0 0
      FXID {B19C6009-B87B-4304-A0DB-A6F0481923F0}
      WAK 0 0
    >
    <ITEM
      POSITION 0
      LENGTH 74.4790069
      LOOP 0
      ALLTAKES 0
      FADEIN 0 0 0 0 0 0 0
      FADEOUT 0 0 0 0 0 0 0
      MUTE 0 0
      SEL 0
      IGUID {1F74987C-4566-4E98-81AF-CF4625EB0863}
      <SOURCE MIDI
        HASDATA 1 480 QN
        CCINTERP 32
        E 0 93 2a 4c
        E 32 83 2a 00
        E 0 93 2a 2a
        E 112 83 2a 00
        E 80 93 2a 4c
        E 32 83 2a 00
        E 0 93 2a 2a
        E 80 83 2a 00
        E 0 93 2a 4c
        E 32 83 2a 00
        E 176 93 2a 4c
        E 32 83 2a 00
        E 80 93 2a 4c
        E 32 83 2a 00
        E 0 93 2a 2a
        E 112 83 2a 00
        E 176 93 2a 4c
        E 32 83 2a 00
        E 80 93 2a 4c
        E 32 83 2a 00
        E 64 93 2a 4c
        E 32 83 2a 00
        E 80 93 2a 4c
        E 32 83 2a 00
        E 0 93 2a 2a
        E 112 83 2a 00
        E 160 93 2a 4c
        E 32 83 2a 00
        E 0 93 2a 2a
        E 112 83 2a 00
        E 752 93 2a 4c
        E 32 83 2a 00
        E 0 93 2a 2a
        E 80 83 2a 00
        E 0 93 2a 4c
        E 32 83 2a 00
        E 0 93 2a 2a
        E 80 83 2a 00
        E 0 93 2a 4c
        E 32 83 2a 00
        E 0 93 2a 2a
        E 112 83 2a 00
        E 80 93 2a 4c
        E 32 83 2a 00
        E 0 93 2a 2a
        E 112 83 2a 00
        E 0 93 2a 4c
        E 32 83 2a 00
        E 0 93 2a 2a
        E 112 83 2a 00
        E 160 93 2a 4c
        E 32 83 2a 00
        E 0 93 2a 2a
        E 112 83 2a 00
        E 976 93 2a 4c
        E 32 83 2a 00
        E 0 93 2a 2a
        E 80 83 2a 00
        E 0 93 2a 4c
        E 32 83 2a 00
        E 0 93 2a 2a
        E 80 83 2a 00
        E 0 93 2a 4c
        E 32 83 2a 00
        E 0 93 2a 2a
        E 80 83 2a 00
        E 0 93 2a 4c
        E 32 83 2a 00
        E 0 93 2a 2a
        E 80 83 2a 00
        E 0 93 2a 4c
        E 32 83 2a 00
        E 0 93 2a 2a
        E 80 83 2a 00
        E 0 93 2a 4c
        E 32 83 2a 00
        E 0 93 2a 2a
        E 80 83 2a 00
        E 0 93 2a 4c
        E 32 83 2a 00
        E 0 93 2a 2a
        E 112 83 2a 00
        E 592 93 2a 55
        E 80 83 2a 00
        E 0 93 2a 55
        E 48 83 2a 00
        E 0 93 2a 55
        E 32 83 2a 00
        E 896 93 2a 4c
        E 32 83 2a 00
        E 0 93 2a 2a
        E 112 83 2a 00
        E 1200 93 2a 4c
        E 32 83 2a 00
        E 0 93 2a 2a
        E 112 83 2a 00
        E 0 93 2a 4c
        E 32 83 2a 00
        E 0 93 2a 2a
        E 112 83 2a 00
        E 160 93 2a 4c
        E 32 83 2a 00
        E 0 93 2a 2a
        E 112 83 2a 00
        E 752 93 2a 4c
        E 32 83 2a 00
        E 0 93 2a 2a
        E 80 83 2a 00
        E 0 93 2a 4c
        E 32 83 2a 00
        E 0 93 2a 2a
        E 80 83 2a 00
        E 0 93 2a 4c
        E 32 83 2a 00
        E 0 93 2a 2a
        E 112 83 2a 00
        E 80 93 2a 4c
        E 32 83 2a 00
        E 0 93 2a 2a
        E 80 83 2a 00
        E 0 93 2a 4c
        E 32 83 2a 00
        E 0 93 2a 2a
        E 80 83 2a 00
        E 0 93 2a 4c
        E 32 83 2a 00
        E 0 93 2a 2a
        E 112 83 2a 00
        E 80 93 2a 4c
        E 32 83 2a 00
        E 0 93 2a 2a
        E 112 83 2a 00
        E 976 93 2a 4c
        E 32 83 2a 00
        E 0 93 2a 2a
        E 80 83 2a 00
        E 0 93 2a 4c
        E 32 83 2a 00
        E 0 93 2a 2a
        E 80 83 2a 00
        E 0 93 2a 4c
        E 32 83 2a 00
        E 0 93 2a 2a
        E 80 83 2a 00
        E 0 93 2a 4c
        E 32 83 2a 00
        E 0 93 2a 2a
        E 80 83 2a 00
        E 0 93 2a 4c
        E 32 83 2a 00
        E 0 93 2a 2a
        E 80 83 2a 00
        E 0 93 2a 4c
        E 32 83 2a 00
        E 0 93 2a 2a
        E 80 83 2a 00
        E 0 93 2a 2a
        E 32 83 2a 00
        E 192 93 2a 4c
        E 32 83 2a 00
        E 0 93 2a 2a
        E 112 83 2a 00
        E 80 93 2a 2a
        E 32 83 2a 00
        E 192 93 2a 4c
        E 32 83 2a 00
        E 0 93 2a 2a
        E 112 83 2a 00
        E 80 93 2a 2a
        E 32 83 2a 00
        E 160 93 2a 55
        E 32 83 2a 00
        E 0 93 2a 4c
        E 32 83 2a 00
        E 0 93 2a 2a
        E 112 83 2a 00
        E 80 93 2a 2a
        E 32 83 2a 00
        E 192 93 2a 4c
        E 32 83 2a 00
        E 0 93 2a 2a
        E 112 83 2a 00
        E 80 93 2a 4c
        E 32 83 2a 00
        E 0 93 2a 2a
        E 112 83 2a 00
        E 752 93 2a 4c
        E 32 83 2a 00
        E 0 93 2a 2a
        E 112 83 2a 00
        E 80 93 2a 4c
        E 32 83 2a 00
        E 0 93 2a 2a
        E 80 83 2a 00
        E 0 93 2a 4c
        E 32 83 2a 00
        E 0 93 2a 2a
        E 80 83 2a 00
        E 0 93 2a 4c
        E 32 83 2a 00
        E 0 93 2a 2a
        E 80 83 2a 00
        E 0 93 2a 4c
        E 32 83 2a 00
        E 0 93 2a 2a
        E 80 83 2a 00
        E 0 93 2a 4c
        E 32 83 2a 00
        E 0 93 2a 2a
        E 80 83 2a 00
        E 0 93 2a 4c
        E 32 83 2a 00
        E 0 93 2a 2a
        E 80 83 2a 00
        E 0 93 2a 4c
        E 32 83 2a 00
        E 0 93 2a 2a
        E 112 83 2a 00
        E 752 93 2a 4c
        E 32 83 2a 00
        E 0 93 2a 2a
        E 80 83 2a 00
        E 0 93 2a 4c
        E 32 83 2a 00
        E 0 93 2a 2a
        E 80 83 2a 00
        E 0 93 2a 4c
        E 32 83 2a 00
        E 0 93 2a 2a
        E 112 83 2a 00
        E 80 93 2a 4c
        E 32 83 2a 00
        E 0 93 2a 2a
        E 48 83 2a 00
        E 896 93 2a 4c
        E 32 83 2a 00
        E 0 93 2a 2a
        E 80 83 2a 00
        E 0 93 2a 4c
        E 32 83 2a 00
        E 0 93 2a 2a
        E 112 83 2a 00
        E 80 93 2a 4c
        E 32 83 2a 00
        E 0 93 2a 2a
        E 80 83 2a 00
        E 0 93 2a 4c
        E 32 83 2a 00
        E 176 93 2a 4c
        E 32 83 2a 00
        E 80 93 2a 4c
        E 32 83 2a 00
        E 0 93 2a 2a
        E 112 83 2a 00
        E 176 93 2a 4c
        E 32 83 2a 00
        E 80 93 2a 4c
        E 32 83 2a 00
        E 64 93 2a 4c
        E 32 83 2a 00
        E 80 93 2a 4c
        E 32 83 2a 00
        E 0 93 2a 2a
        E 112 83 2a 00
        E 176 93 2a 4c
        E 32 83 2a 00
        E 176 93 2a 4c
        E 32 83 2a 00
        E 80 93 2a 4c
        E 32 83 2a 00
        E 0 93 2a 2a
        E 112 83 2a 00
        E 176 93 2a 4c
        E 32 83 2a 00
        E 320 93 2a 2a
        E 32 83 2a 00
        E 192 93 2a 2a
        E 32 83 2a 00
        E 192 93 2a 4c
        E 32 83 2a 00
        E 0 93 2a 2a
        E 112 83 2a 00
        E 304 93 2a 2a
        E 32 83 2a 00
        E 192 93 2a 2a
        E 32 83 2a 00
        E 192 93 2a 4c
        E 32 83 2a 00
        E 0 93 2a 2a
        E 112 83 2a 00
        E 304 93 2a 2a
        E 32 83 2a 00
        E 192 93 2a 2a
        E 32 83 2a 00
        E 192 93 2a 4c
        E 32 83 2a 00
        E 0 93 2a 2a
        E 112 83 2a 00
        E 304 93 2a 2a
        E 32 83 2a 00
        E 192 93 2a 2a
        E 32 83 2a 00
        E 192 93 2a 4c
        E 32 83 2a 00
        E 0 93 2a 2a
        E 112 83 2a 00
        E 304 93 2a 2a
        E 32 83 2a 00
        E 192 93 2a 2a
        E 32 83 2a 00
        E 192 93 2a 4c
        E 32 83 2a 00
        E 0 93 2a 2a
        E 112 83 2a 00
        E 304 93 2a 2a
        E 32 83 2a 00
        E 192 93 2a 2a
        E 32 83 2a 00
        E 192 93 2a 4c
        E 32 83 2a 00
        E 0 93 2a 2a
        E 112 83 2a 00
        E 304 93 2a 2a
        E 32 83 2a 00
        E 192 93 2a 2a
        E 32 83 2a 00
        E 192 93 2a 4c
        E 32 83 2a 00
        E 0 93 2a 2a
        E 112 83 2a 00
        E 304 93 2a 2a
        E 32 83 2a 00
        E 192 93 2a 4c
        E 32 83 2a 00
        E 0 93 2a 2a
        E 112 83 2a 00
        E 80 93 2a 4c
        E 32 83 2a 00
        E 0 93 2a 2a
        E 80 83 2a 00
        E 0 93 2a 4c
        E 32 83 2a 00
        E 0 93 2a 2a
        E 80 83 2a 00
        E 0 93 2a 4c
        E 32 83 2a 00
        E 0 93 2a 2a
        E 112 83 2a 00
        E 80 93 2a 2a
        E 32 83 2a 00
        E 192 93 2a 2a
        E 32 83 2a 00
        E 192 93 2a 4c
        E 32 83 2a 00
        E 0 93 2a 2a
        E 112 83 2a 00
        E 304 93 2a 2a
        E 32 83 2a 00
        E 192 93 2a 2a
        E 32 83 2a 00
        E 192 93 2a 4c
        E 32 83 2a 00
        E 0 93 2a 2a
        E 112 83 2a 00
        E 304 93 2a 2a
        E 32 83 2a 00
        E 192 93 2a 2a
        E 32 83 2a 00
        E 192 93 2a 4c
        E 32 83 2a 00
        E 0 93 2a 2a
        E 112 83 2a 00
        E 304 93 2a 2a
        E 32 83 2a 00
        E 192 93 2a 2a
        E 32 83 2a 00
        E 192 93 2a 4c
        E 32 83 2a 00
        E 0 93 2a 2a
        E 112 83 2a 00
        E 304 93 2a 2a
        E 32 83 2a 00
        E 192 93 2a 2a
        E 32 83 2a 00
        E 192 93 2a 4c
        E 32 83 2a 00
        E 0 93 2a 2a
        E 112 83 2a 00
        E 304 93 2a 2a
        E 32 83 2a 00
        E 192 93 2a 2a
        E 32 83 2a 00
        E 192 93 2a 4c
        E 32 83 2a 00
        E 0 93 2a 2a
        E 112 83 2a 00
        E 304 93 2a 2a
        E 32 83 2a 00
        E 192 93 2a 2a
        E 32 83 2a 00
        E 192 93 2a 4c
        E 32 83 2a 00
        E 0 93 2a 2a
        E 112 83 2a 00
        E 304 93 2a 2a
        E 32 83 2a 00
        E 192 93 2a 4c
        E 32 83 2a 00
        E 0 93 2a 2a
        E 112 83 2a 00
        E 80 93 2a 4c
        E 32 83 2a 00
        E 0 93 2a 2a
        E 80 83 2a 00
        E 0 93 2a 4c
        E 32 83 2a 00
        E 0 93 2a 2a
        E 80 83 2a 00
        E 0 93 2a 4c
        E 32 83 2a 00
        E 0 93 2a 2a
        E 112 83 2a 00
        E 80 93 2a 2a
        E 32 83 2a 00
        E 416 93 2a 4c
        E 32 83 2a 00
        E 0 93 2a 2a
        E 112 83 2a 00
        E 304 93 2a 2a
        E 32 83 2a 00
        E 192 93 2a 2a
        E 32 83 2a 00
        E 192 93 2a 4c
        E 32 83 2a 00
        E 0 93 2a 2a
        E 112 83 2a 00
        E 304 93 2a 2a
        E 32 83 2a 00
        E 416 93 2a 4c
        E 32 83 2a 00
        E 0 93 2a 2a
        E 112 83 2a 00
        E 304 93 2a 2a
        E 32 83 2a 00
        E 192 93 2a 2a
        E 32 83 2a 00
        E 192 93 2a 4c
        E 32 83 2a 00
        E 0 93 2a 2a
        E 112 83 2a 00
        E 304 93 2a 2a
        E 32 83 2a 00
        E 416 93 2a 4c
        E 32 83 2a 00
        E 0 93 2a 2a
        E 112 83 2a 00
        E 304 93 2a 2a
        E 32 83 2a 00
        E 192 93 2a 2a
        E 32 83 2a 00
        E 192 93 2a 4c
        E 32 83 2a 00
        E 0 93 2a 2a
        E 112 83 2a 00
        E 304 93 2a 2a
        E 32 83 2a 00
        E 416 93 2a 4c
        E 32 83 2a 00
        E 0 93 2a 2a
        E 112 83 2a 00
        E 304 93 2a 2a
        E 32 83 2a 00
        E 192 93 2a 4c
        E 32 83 2a 00
        E 0 93 2a 2a
        E 112 83 2a 00
        E 80 93 2a 4c
        E 32 83 2a 00
        E 0 93 2a 2a
        E 80 83 2a 00
        E 0 93 2a 4c
        E 32 83 2a 00
        E 0 93 2a 2a
        E 80 83 2a 00
        E 0 93 2a 4c
        E 32 83 2a 00
        E 0 93 2a 2a
        E 112 83 2a 00
        E 80 93 2a 4c
        E 32 83 2a 00
        E 0 93 2a 2a
        E 112 83 2a 00
        E 80 93 2a 2a
        E 32 83 2a 00
        E 192 93 2a 4c
        E 32 83 2a 00
        E 0 93 2a 2a
        E 112 83 2a 00
        E 80 93 2a 2a
        E 32 83 2a 00
        E 192 93 2a 4c
        E 32 83 2a 00
        E 0 93 2a 2a
        E 112 83 2a 00
        E 80 93 2a 2a
        E 32 83 2a 00
        E 192 93 2a 4c
        E 32 83 2a 00
        E 0 93 2a 2a
        E 112 83 2a 00
        E 80 93 2a 2a
        E 32 83 2a 00
        E 192 93 2a 4c
        E 32 83 2a 00
        E 0 93 2a 2a
        E 112 83 2a 00
        E 80 93 2a 2a
        E 32 83 2a 00
        E 192 93 2a 4c
        E 32 83 2a 00
        E 0 93 2a 2a
        E 112 83 2a 00
        E 80 93 2a 2a
        E 32 83 2a 00
        E 192 93 2a 4c
        E 32 83 2a 00
        E 0 93 2a 2a
        E 112 83 2a 00
        E 80 93 2a 2a
        E 32 83 2a 00
        E 192 93 2a 4c
        E 32 83 2a 00
        E 0 93 2a 2a
        E 112 83 2a 00
        E 80 93 2a 2a
        E 32 83 2a 00
        E 192 93 2a 4c
        E 32 83 2a 00
        E 0 93 2a 2a
        E 112 83 2a 00
        E 80 93 2a 2a
        E 32 83 2a 00
        E 192 93 2a 4c
        E 32 83 2a 00
        E 0 93 2a 2a
        E 112 83 2a 00
        E 80 93 2a 2a
        E 32 83 2a 00
        E 192 93 2a 4c
        E 32 83 2a 00
        E 0 93 2a 2a
        E 112 83 2a 00
        E 80 93 2a 2a
        E 32 83 2a 00
        E 192 93 2a 4c
        E 32 83 2a 00
        E 0 93 2a 2a
        E 112 83 2a 00
        E 80 93 2a 2a
        E 32 83 2a 00
        E 192 93 2a 4c
        E 32 83 2a 00
        E 0 93 2a 2a
        E 112 83 2a 00
        E 80 93 2a 4c
        E 32 83 2a 00
        E 192 93 2a 4c
        E 32 83 2a 00
        E 0 93 2a 2a
        E 112 83 2a 00
        E 80 93 2a 4c
        E 32 83 2a 00
        E 192 93 2a 4c
        E 32 83 2a 00
        E 0 93 2a 2a
        E 112 83 2a 00
        E 80 93 2a 4c
        E 32 83 2a 00
        E 0 93 2a 2a
        E 112 83 2a 00
        E 80 93 2a 4c
        E 32 83 2a 00
        E 0 93 2a 2a
        E 80 83 2a 00
        E 0 93 2a 4c
        E 32 83 2a 00
        E 0 93 2a 2a
        E 80 83 2a 00
        E 0 93 2a 4c
        E 32 83 2a 00
        E 0 93 2a 2a
        E 80 83 2a 00
        E 0 93 2a 4c
        E 32 83 2a 00
        E 0 93 2a 2a
        E 80 83 2a 00
        E 0 93 2a 2a
        E 32 83 2a 00
        E 192 93 2a 2a
        E 32 83 2a 00
        E 192 93 2a 4c
        E 32 83 2a 00
        E 0 93 2a 2a
        E 112 83 2a 00
        E 304 93 2a 2a
        E 32 83 2a 00
        E 192 93 2a 2a
        E 32 83 2a 00
        E 192 93 2a 4c
        E 32 83 2a 00
        E 0 93 2a 2a
        E 112 83 2a 00
        E 304 93 2a 2a
        E 32 83 2a 00
        E 192 93 2a 2a
        E 32 83 2a 00
        E 192 93 2a 4c
        E 32 83 2a 00
        E 0 93 2a 2a
        E 112 83 2a 00
        E 304 93 2a 2a
        E 32 83 2a 00
        E 192 93 2a 2a
        E 32 83 2a 00
        E 192 93 2a 4c
        E 32 83 2a 00
        E 0 93 2a 2a
        E 112 83 2a 00
        E 304 93 2a 2a
        E 32 83 2a 00
        E 192 93 2a 2a
        E 32 83 2a 00
        E 192 93 2a 4c
        E 32 83 2a 00
        E 0 93 2a 2a
        E 112 83 2a 00
        E 304 93 2a 2a
        E 32 83 2a 00
        E 192 93 2a 2a
        E 32 83 2a 00
        E 192 93 2a 4c
        E 32 83 2a 00
        E 0 93 2a 2a
        E 112 83 2a 00
        E 304 93 2a 2a
        E 32 83 2a 00
        E 192 93 2a 2a
        E 32 83 2a 00
        E 192 93 2a 4c
        E 32 83 2a 00
        E 0 93 2a 2a
        E 112 83 2a 00
        E 304 93 2a 2a
        E 32 83 2a 00
        E 192 93 2a 4c
        E 32 83 2a 00
        E 0 93 2a 2a
        E 112 83 2a 00
        E 80 93 2a 4c
        E 32 83 2a 00
        E 0 93 2a 2a
        E 80 83 2a 00
        E 0 93 2a 4c
        E 32 83 2a 00
        E 0 93 2a 2a
        E 80 83 2a 00
        E 0 93 2a 4c
        E 32 83 2a 00
        E 0 93 2a 2a
        E 112 83 2a 00
        E 80 93 2a 2a
        E 32 83 2a 00
        E 192 93 2a 2a
        E 32 83 2a 00
        E 192 93 2a 4c
        E 32 83 2a 00
        E 0 93 2a 2a
        E 112 83 2a 00
        E 304 93 2a 2a
        E 32 83 2a 00
        E 192 93 2a 2a
        E 32 83 2a 00
        E 192 93 2a 4c
        E 32 83 2a 00
        E 0 93 2a 2a
        E 112 83 2a 00
        E 304 93 2a 2a
        E 32 83 2a 00
        E 192 93 2a 2a
        E 32 83 2a 00
        E 192 93 2a 4c
        E 32 83 2a 00
        E 0 93 2a 2a
        E 112 83 2a 00
        E 304 93 2a 2a
        E 32 83 2a 00
        E 192 93 2a 2a
        E 32 83 2a 00
        E 192 93 2a 4c
        E 32 83 2a 00
        E 0 93 2a 2a
        E 112 83 2a 00
        E 304 93 2a 2a
        E 32 83 2a 00
        E 192 93 2a 2a
        E 32 83 2a 00
        E 192 93 2a 4c
        E 32 83 2a 00
        E 0 93 2a 2a
        E 112 83 2a 00
        E 304 93 2a 2a
        E 32 83 2a 00
        E 192 93 2a 2a
        E 32 83 2a 00
        E 192 93 2a 4c
        E 32 83 2a 00
        E 0 93 2a 2a
        E 112 83 2a 00
        E 304 93 2a 2a
        E 32 83 2a 00
        E 192 93 2a 2a
        E 32 83 2a 00
        E 192 93 2a 4c
        E 32 83 2a 00
        E 0 93 2a 2a
        E 112 83 2a 00
        E 304 93 2a 2a
        E 32 83 2a 00
        E 192 93 2a 4c
        E 32 83 2a 00
        E 0 93 2a 2a
        E 112 83 2a 00
        E 80 93 2a 4c
        E 32 83 2a 00
        E 0 93 2a 2a
        E 80 83 2a 00
        E 0 93 2a 4c
        E 32 83 2a 00
        E 0 93 2a 2a
        E 80 83 2a 00
        E 0 93 2a 4c
        E 32 83 2a 00
        E 0 93 2a 2a
        E 112 83 2a 00
        E 80 93 2a 2a
        E 32 83 2a 00
        E 416 93 2a 4c
        E 32 83 2a 00
        E 0 93 2a 2a
        E 112 83 2a 00
        E 304 93 2a 2a
        E 32 83 2a 00
        E 192 93 2a 2a
        E 32 83 2a 00
        E 192 93 2a 4c
        E 32 83 2a 00
        E 0 93 2a 2a
        E 112 83 2a 00
        E 304 93 2a 2a
        E 32 83 2a 00
        E 416 93 2a 4c
        E 32 83 2a 00
        E 0 93 2a 2a
        E 112 83 2a 00
        E 304 93 2a 2a
        E 32 83 2a 00
        E 192 93 2a 2a
        E 32 83 2a 00
        E 192 93 2a 4c
        E 32 83 2a 00
        E 0 93 2a 2a
        E 112 83 2a 00
        E 304 93 2a 2a
        E 32 83 2a 00
        E 416 93 2a 4c
        E 32 83 2a 00
        E 0 93 2a 2a
        E 112 83 2a 00
        E 304 93 2a 2a
        E 32 83 2a 00
        E 192 93 2a 2a
        E 32 83 2a 00
        E 192 93 2a 4c
        E 32 83 2a 00
        E 0 93 2a 2a
        E 112 83 2a 00
        E 304 93 2a 2a
        E 32 83 2a 00
        E 416 93 2a 4c
        E 32 83 2a 00
        E 0 93 2a 2a
        E 112 83 2a 00
        E 304 93 2a 2a
        E 32 83 2a 00
        E 192 93 2a 4c
        E 32 83 2a 00
        E 0 93 2a 2a
        E 112 83 2a 00
        E 80 93 2a 4c
        E 32 83 2a 00
        E 0 93 2a 2a
        E 80 83 2a 00
        E 0 93 2a 4c
        E 32 83 2a 00
        E 0 93 2a 2a
        E 80 83 2a 00
        E 0 93 2a 4c
        E 32 83 2a 00
        E 0 93 2a 2a
        E 112 83 2a 00
        E 80 93 2a 4c
        E 32 83 2a 00
        E 0 93 2a 2a
        E 112 83 2a 00
        E 80 93 2a 2a
        E 32 83 2a 00
        E 192 93 2a 4c
        E 32 83 2a 00
        E 0 93 2a 2a
        E 112 83 2a 00
        E 80 93 2a 2a
        E 32 83 2a 00
        E 192 93 2a 4c
        E 32 83 2a 00
        E 0 93 2a 2a
        E 112 83 2a 00
        E 80 93 2a 2a
        E 32 83 2a 00
        E 192 93 2a 4c
        E 32 83 2a 00
        E 0 93 2a 2a
        E 112 83 2a 00
        E 80 93 2a 2a
        E 32 83 2a 00
        E 192 93 2a 4c
        E 32 83 2a 00
        E 0 93 2a 2a
        E 112 83 2a 00
        E 80 93 2a 2a
        E 32 83 2a 00
        E 192 93 2a 4c
        E 32 83 2a 00
        E 0 93 2a 2a
        E 112 83 2a 00
        E 80 93 2a 2a
        E 32 83 2a 00
        E 192 93 2a 4c
        E 32 83 2a 00
        E 0 93 2a 2a
        E 112 83 2a 00
        E 80 93 2a 2a
        E 32 83 2a 00
        E 192 93 2a 4c
        E 32 83 2a 00
        E 0 93 2a 2a
        E 112 83 2a 00
        E 80 93 2a 2a
        E 32 83 2a 00
        E 192 93 2a 4c
        E 32 83 2a 00
        E 0 93 2a 2a
        E 112 83 2a 00
        E 80 93 2a 2a
        E 32 83 2a 00
        E 192 93 2a 4c
        E 32 83 2a 00
        E 0 93 2a 2a
        E 112 83 2a 00
        E 80 93 2a 2a
        E 32 83 2a 00
        E 192 93 2a 4c
        E 32 83 2a 00
        E 0 93 2a 2a
        E 112 83 2a 00
        E 80 93 2a 2a
        E 32 83 2a 00
        E 192 93 2a 4c
        E 32 83 2a 00
        E 0 93 2a 2a
        E 112 83 2a 00
        E 80 93 2a 2a
        E 32 83 2a 00
        E 192 93 2a 4c
        E 32 83 2a 00
        E 0 93 2a 2a
        E 64 83 2a 00
        E 0 b3 7b 00
        E 0 ff 2f 00
      >
    >
  >
>