<REAPER_PROJECT 0.1 "7.27/win64" 1707000000
  <NOTES 0 2
    |ReapNES Studio Project
    |MIDI Import - Kid_Icarus_song_mode6_rom_v1
  >
  RIPPLE 0
  GROUPOVERRIDE 0 0 0
  AUTOXFADE 129
  ENVATTACH 3
  POOLEDENVATTACH 0
  MIXERUIFLAGS 11 48
  ENVFADESZ10 40
  PEAKGAIN 1
  FEEDBACK 0
  PANLAW 1
  PROJOFFS 0 0 0
  MAXPROJLEN 0 0
  GRID 3199 8 1 8 1 0 0 0
  TIMEMODE 1 5 -1 30 0 0 -1
  VIDEO_CONFIG 0 0 65792
  PANMODE 3
  PANLAWFLAGS 3
  CURSOR 0
  ZOOM 100 0 0
  VZOOMEX 6 0
  USE_REC_CFG 0
  RECMODE 1
  SMPTESYNC 0 30 100 40 1000 300 0 0 1 0 0
  LOOP 0
  LOOPGRAN 0 4
  RECORD_PATH "Media" ""
  <RECORD_CFG
    ZXZhdxgAAQ==
  >
  <APPLYFX_CFG
  >
  RENDER_FILE ""
  RENDER_PATTERN ""
  RENDER_FMT 0 2 0
  RENDER_1X 0
  RENDER_RANGE 1 0 0 18 1000
  RENDER_RESAMPLE 3 0 1
  RENDER_ADDTOPROJ 0
  RENDER_STEMS 0
  RENDER_DITHER 0
  TIMELOCKMODE 1
  TEMPOENVLOCKMODE 1
  ITEMMIX 1
  DEFPITCHMODE 589824 0
  TAKELANE 1
  SAMPLERATE 44100 0 0
  <RENDER_CFG
    ZXZhdxgAAQ==
  >
  LOCK 1
  <METRONOME 6 2
    VOL 0.25 0.125
    BEATLEN 4
    FREQ 1760 880 1
    SAMPLES "" ""
    SPLIGNORE 0 0
    SPLDEF 2 660 "" 0
    SPLDEF 3 440 "" 0
    PATTERN 0 169
    PATTERNSTR ABBB
    MULT 1
  >
  GLOBAL_AUTO -1
  TEMPO 128.59999614200012 4 4
  PLAYRATE 1 0 0.25 4
  SELECTION 0 0
  SELECTION2 0 0
  MASTERAUTOMODE 0
  MASTERTRACKHEIGHT 0 0
  MASTERPEAKCOL 16576
  MASTERMUTESOLO 0
  MASTERTRACKVIEW 0 0.6667 0.5 0.5 0 0 0 0 0 0 0 0 0 0
  MASTERHWOUT 0 0 1 0 0 0 0 -1
  MASTER_NCH 2 2
  MASTER_VOLUME 1 0 -1 -1 1
  MASTER_PANMODE 3
  MASTER_PANLAWFLAGS 3
  MASTER_FX 1
  MASTER_SEL 0
  <MASTERPLAYSPEEDENV
    EGUID {B5B23AC9-5CA0-4601-905B-C6BF7022B7DC}
    ACT 0 -1
    VIS 0 1 1
    LANEHEIGHT 0 0
    ARM 0
    DEFSHAPE 0 -1 -1
  >
  <TEMPOENVEX
    EGUID {ED159CED-7C02-4172-A89D-A91B4A5DF4E2}
    ACT 1 -1
    VIS 1 0 1
    LANEHEIGHT 0 0
    ARM 0
    DEFSHAPE 1 -1 -1
  >
  <PROJBAY
  >
  <TRACK {C73180E7-F6E7-4554-854D-6B4E95F301E5}
    NAME "NES - Pulse 1 [ch0]"
    PEAKCOL 16576606
    BEAT -1
    AUTOMODE 0
    PANLAWFLAGS 3
    VOLPAN 1 0 -1 -1 1
    MUTESOLO 0 0 0
    IPHASE 0
    PLAYOFFS 0 1
    ISBUS 0 0
    BUSCOMP 0 0 0 0 0
    SHOWINMIX 1 0.6667 0.5 1 0.5 0 0 0
    FIXEDLANES 9 0 0 0 0
    SEL 1
    REC 1 5088 1 0 0 0 0 0
    VU 2
    TRACKHEIGHT 0 0 0 0 0 0 0
    INQ 0 0 0 0.5 100 0 0 100
    NCHAN 2
    FX 1
    TRACKID {C73180E7-F6E7-4554-854D-6B4E95F301E5}
    PERF 0
    MIDIOUT -1
    MAINSEND 1 0
    <FXCHAIN
      WNDRECT 24 52 700 560
      SHOW 0
      LASTSEL 0
      DOCKED 0
      BYPASS 0 0 0
      <JS "ReapNES Studio/ReapNES_Console.jsfx" ""
        2 15 1 10 80 10 100 2 1 15 1 5 60 10 80 1 1 0 50 0 0 15 1 0 100 0 0 0.500000 0.500000 0.400000 0.300000 0.800000 0 1 0 0 0 0 - - - - - - - - - - - - - - - - - - - - - - - - - -
      >
      FLOATPOS 0 0 0 0
      FXID {141F77F0-F248-4B6C-B23B-AEEA3B0F45C9}
      WAK 0 0
    >
    <ITEM
      POSITION 0
      LENGTH 74.65008
      LOOP 0
      ALLTAKES 0
      FADEIN 0 0 0 0 0 0 0
      FADEOUT 0 0 0 0 0 0 0
      MUTE 0 0
      SEL 0
      IGUID {FDA05320-6CAD-48BC-8362-ED92B6707C8C}
      <SOURCE MIDI
        HASDATA 1 480 QN
        CCINTERP 32
        E 0 c0 50
        E 0 b0 0c 40
        E 0 b0 0b 08
        E 0 90 49 08
        E 16 b0 0b 11
        E 32 b0 0b 19
        E 32 b0 0b 22
        E 32 b0 0b 2a
        E 16 b0 0b 08
        E 0 80 49 00
        E 0 90 47 08
        E 16 b0 0b 11
        E 32 b0 0b 19
        E 32 b0 0b 22
        E 32 b0 0b 2a
        E 16 80 47 00
        E 128 b0 0b 08
        E 0 90 40 08
        E 16 b0 0b 11
        E 32 b0 0b 19
        E 32 b0 0b 22
        E 32 b0 0b 2a
        E 16 80 40 00
        E 128 b0 0b 08
        E 0 90 47 08
        E 16 b0 0b 11
        E 32 b0 0b 19
        E 32 b0 0b 22
        E 32 b0 0b 2a
        E 16 80 47 00
        E 128 b0 0b 08
        E 0 90 45 08
        E 16 b0 0b 11
        E 32 b0 0b 19
        E 32 b0 0b 22
        E 32 b0 0b 2a
        E 16 b0 0b 08
        E 0 80 45 00
        E 0 90 49 08
        E 16 b0 0b 11
        E 32 b0 0b 19
        E 32 b0 0b 22
        E 32 b0 0b 2a
        E 16 b0 0b 08
        E 0 80 49 00
        E 0 90 47 08
        E 16 b0 0b 11
        E 32 b0 0b 19
        E 32 b0 0b 22
        E 32 b0 0b 2a
        E 16 80 47 00
        E 128 b0 0b 08
        E 0 90 40 08
        E 16 b0 0b 11
        E 32 b0 0b 19
        E 32 b0 0b 22
        E 32 b0 0b 2a
        E 16 80 40 00
        E 128 b0 0b 08
        E 0 90 47 08
        E 16 b0 0b 11
        E 32 b0 0b 19
        E 32 b0 0b 22
        E 32 b0 0b 2a
        E 16 80 47 00
        E 128 b0 0b 08
        E 0 90 45 08
        E 16 b0 0b 11
        E 32 b0 0b 19
        E 32 b0 0b 22
        E 32 b0 0b 2a
        E 16 80 45 00
        E 1024 b0 0b 08
        E 0 90 3b 08
        E 16 b0 0b 11
        E 32 b0 0b 19
        E 16 80 3b 00
        E 192 b0 0b 08
        E 0 90 40 08
        E 16 b0 0b 11
        E 32 b0 0b 19
        E 16 80 40 00
        E 192 b0 0b 08
        E 0 90 47 08
        E 16 b0 0b 11
        E 32 b0 0b 19
        E 16 80 47 00
        E 192 b0 0b 08
        E 0 90 28 08
        E 16 b0 0b 11
        E 32 b0 0b 19
        E 32 b0 0b 22
        E 32 b0 0b 2a
        E 32 b0 0b 22
        E 112 80 28 00
        E 256 b0 0b 08
        E 0 90 34 08
        E 16 b0 0b 11
        E 32 b0 0b 19
        E 32 b0 0b 22
        E 32 b0 0b 2a
        E 32 b0 0b 22
        E 112 80 34 00
        E 256 b0 0b 08
        E 0 90 34 08
        E 16 b0 0b 11
        E 32 b0 0b 19
        E 32 b0 0b 22
        E 32 b0 0b 2a
        E 32 b0 0b 22
        E 112 80 34 00
        E 256 b0 0b 08
        E 0 90 36 08
        E 16 b0 0b 11
        E 32 b0 0b 19
        E 32 b0 0b 22
        E 32 b0 0b 2a
        E 32 b0 0b 22
        E 112 80 36 00
        E 256 b0 0b 08
        E 0 90 38 08
        E 16 b0 0b 11
        E 32 b0 0b 19
        E 32 b0 0b 22
        E 32 b0 0b 2a
        E 32 b0 0b 22
        E 112 80 38 00
        E 256 b0 0b 08
        E 0 90 39 08
        E 16 b0 0b 11
        E 32 b0 0b 19
        E 32 b0 0b 22
        E 32 b0 0b 2a
        E 32 b0 0b 22
        E 112 80 39 00
        E 256 b0 0b 08
        E 0 90 39 08
        E 16 b0 0b 11
        E 32 b0 0b 19
        E 32 b0 0b 22
        E 32 b0 0b 2a
        E 32 b0 0b 22
        E 112 80 39 00
        E 256 b0 0b 08
        E 0 90 32 08
        E 16 b0 0b 11
        E 32 b0 0b 19
        E 32 b0 0b 22
        E 32 b0 0b 2a
        E 32 b0 0b 22
        E 112 80 32 00
        E 256 b0 0b 08
        E 0 90 32 08
        E 16 b0 0b 11
        E 32 b0 0b 19
        E 32 b0 0b 22
        E 32 b0 0b 2a
        E 32 b0 0b 22
        E 112 80 32 00
        E 256 b0 0b 08
        E 0 90 34 08
        E 16 b0 0b 11
        E 32 b0 0b 19
        E 32 b0 0b 22
        E 32 b0 0b 2a
        E 32 b0 0b 22
        E 112 80 34 00
        E 256 b0 0b 08
        E 0 90 34 08
        E 16 b0 0b 11
        E 32 b0 0b 19
        E 32 b0 0b 22
        E 32 b0 0b 2a
        E 32 b0 0b 22
        E 112 80 34 00
        E 256 b0 0b 08
        E 0 90 36 08
        E 16 b0 0b 11
        E 32 b0 0b 19
        E 32 b0 0b 22
        E 32 b0 0b 2a
        E 32 b0 0b 22
        E 112 80 36 00
        E 256 b0 0b 08
        E 0 90 38 08
        E 16 b0 0b 11
        E 32 b0 0b 19
        E 32 b0 0b 22
        E 32 b0 0b 2a
        E 32 b0 0b 22
        E 112 80 38 00
        E 256 b0 0b 08
        E 0 90 39 08
        E 16 b0 0b 11
        E 32 b0 0b 19
        E 32 b0 0b 22
        E 32 b0 0b 2a
        E 32 b0 0b 22
        E 112 80 39 00
        E 256 b0 0b 08
        E 0 90 39 08
        E 16 b0 0b 11
        E 32 b0 0b 19
        E 32 b0 0b 22
        E 32 b0 0b 2a
        E 32 b0 0b 22
        E 112 80 39 00
        E 256 b0 0b 08
        E 0 90 32 08
        E 16 b0 0b 11
        E 32 b0 0b 19
        E 32 b0 0b 22
        E 32 b0 0b 2a
        E 32 b0 0b 22
        E 112 80 32 00
        E 256 b0 0b 08
        E 0 90 32 08
        E 16 b0 0b 11
        E 32 b0 0b 19
        E 32 b0 0b 22
        E 32 b0 0b 2a
        E 32 b0 0b 22
        E 112 b0 0b 08
        E 0 80 32 00
        E 0 90 39 08
        E 16 b0 0b 11
        E 32 b0 0b 19
        E 32 b0 0b 22
        E 32 b0 0b 2a
        E 16 b0 0b 08
        E 16 b0 0b 11
        E 32 b0 0b 19
        E 32 b0 0b 22
        E 32 b0 0b 2a
        E 16 b0 0b 08
        E 16 b0 0b 11
        E 32 b0 0b 19
        E 32 b0 0b 22
        E 32 b0 0b 2a
        E 16 b0 0b 08
        E 16 b0 0b 11
        E 32 b0 0b 19
        E 32 b0 0b 22
        E 32 b0 0b 2a
        E 16 80 39 00
        E 128 b0 0b 08
        E 0 90 3b 08
        E 16 b0 0b 11
        E 32 b0 0b 19
        E 32 b0 0b 22
        E 32 b0 0b 2a
        E 16 80 3b 00
        E 256 b0 0b 08
        E 0 90 3d 08
        E 16 b0 0b 11
        E 32 b0 0b 19
        E 32 b0 0b 22
        E 32 b0 0b 2a
        E 16 80 3d 00
        E 384 b0 0b 08
        E 0 90 39 08
        E 16 b0 0b 11
        E 32 b0 0b 19
        E 32 b0 0b 22
        E 32 b0 0b 2a
        E 16 80 39 00
        E 640 b0 0b 08
        E 0 90 42 08
        E 16 b0 0b 11
        E 32 b0 0b 19
        E 32 b0 0b 22
        E 32 b0 0b 2a
        E 32 b0 0b 22
        E 112 80 42 00
        E 256 b0 0b 08
        E 0 90 42 08
        E 16 b0 0b 11
        E 32 b0 0b 19
        E 32 b0 0b 22
        E 32 b0 0b 2a
        E 32 b0 0b 22
        E 112 80 42 00
        E 256 b0 0b 08
        E 0 90 3d 08
        E 16 b0 0b 11
        E 32 b0 0b 19
        E 32 b0 0b 22
        E 32 b0 0b 2a
        E 32 b0 0b 22
        E 112 80 3d 00
        E 256 b0 0b 08
        E 0 90 3d 08
        E 16 b0 0b 11
        E 32 b0 0b 19
        E 32 b0 0b 22
        E 32 b0 0b 2a
        E 32 b0 0b 22
        E 112 b0 0b 08
        E 0 80 3d 00
        E 0 90 39 08
        E 16 b0 0b 11
        E 32 b0 0b 19
        E 32 b0 0b 22
        E 32 b0 0b 2a
        E 16 b0 0b 08
        E 16 b0 0b 11
        E 32 b0 0b 19
        E 32 b0 0b 22
        E 32 b0 0b 2a
        E 16 b0 0b 08
        E 16 b0 0b 11
        E 32 b0 0b 19
        E 32 b0 0b 22
        E 32 b0 0b 2a
        E 16 b0 0b 08
        E 16 b0 0b 11
        E 32 b0 0b 19
        E 32 b0 0b 22
        E 32 b0 0b 2a
        E 16 80 39 00
        E 128 b0 0b 08
        E 0 90 3b 08
        E 16 b0 0b 11
        E 32 b0 0b 19
        E 32 b0 0b 22
        E 32 b0 0b 2a
        E 16 80 3b 00
        E 256 b0 0b 08
        E 0 90 3d 08
        E 16 b0 0b 11
        E 32 b0 0b 19
        E 32 b0 0b 22
        E 32 b0 0b 2a
        E 16 80 3d 00
        E 384 b0 0b 08
        E 0 90 45 08
        E 16 b0 0b 11
        E 32 b0 0b 19
        E 32 b0 0b 22
        E 32 b0 0b 2a
        E 16 b0 0b 08
        E 0 80 45 00
        E 0 90 40 08
        E 16 b0 0b 11
        E 32 b0 0b 19
        E 32 b0 0b 22
        E 32 b0 0b 2a
        E 16 b0 0b 08
        E 0 80 40 00
        E 0 90 3d 08
        E 16 b0 0b 11
        E 32 b0 0b 19
        E 32 b0 0b 22
        E 32 b0 0b 2a
        E 16 b0 0b 08
        E 0 80 3d 00
        E 0 90 39 08
        E 16 b0 0b 11
        E 32 b0 0b 19
        E 32 b0 0b 22
        E 32 b0 0b 2a
        E 16 b0 0b 08
        E 0 80 39 00
        E 0 90 34 08
        E 16 b0 0b 11
        E 32 b0 0b 19
        E 32 b0 0b 22
        E 32 b0 0b 2a
        E 16 b0 0b 08
        E 0 80 34 00
        E 0 90 36 08
        E 16 b0 0b 11
        E 32 b0 0b 19
        E 32 b0 0b 22
        E 32 b0 0b 2a
        E 16 b0 0b 08
        E 0 80 36 00
        E 0 90 34 08
        E 16 b0 0b 11
        E 32 b0 0b 19
        E 32 b0 0b 22
        E 32 b0 0b 2a
        E 16 b0 0b 08
        E 0 80 34 00
        E 0 90 36 08
        E 16 b0 0b 11
        E 32 b0 0b 19
        E 32 b0 0b 22
        E 32 b0 0b 2a
        E 16 b0 0b 08
        E 0 80 36 00
        E 0 90 34 08
        E 16 b0 0b 11
        E 32 b0 0b 19
        E 32 b0 0b 22
        E 32 b0 0b 2a
        E 16 b0 0b 08
        E 0 80 34 00
        E 0 90 36 08
        E 16 b0 0b 11
        E 32 b0 0b 19
        E 32 b0 0b 22
        E 32 b0 0b 2a
        E 16 b0 0b 08
        E 0 80 36 00
        E 0 90 34 08
        E 16 b0 0b 11
        E 32 b0 0b 19
        E 32 b0 0b 22
        E 32 b0 0b 2a
        E 16 b0 0b 08
        E 0 80 34 00
        E 0 90 36 08
        E 16 b0 0b 11
        E 32 b0 0b 19
        E 32 b0 0b 22
        E 32 b0 0b 2a
        E 16 b0 0b 08
        E 0 80 36 00
        E 0 90 39 08
        E 16 b0 0b 11
        E 32 b0 0b 19
        E 32 b0 0b 22
        E 32 b0 0b 2a
        E 16 b0 0b 08
        E 0 80 39 00
        E 0 90 3b 08
        E 16 b0 0b 11
        E 32 b0 0b 19
        E 32 b0 0b 22
        E 32 b0 0b 2a
        E 16 b0 0b 08
        E 0 80 3b 00
        E 0 90 39 08
        E 16 b0 0b 11
        E 32 b0 0b 19
        E 32 b0 0b 22
        E 32 b0 0b 2a
        E 16 b0 0b 08
        E 0 80 39 00
        E 0 90 3b 08
        E 16 b0 0b 11
        E 32 b0 0b 19
        E 32 b0 0b 22
        E 32 b0 0b 2a
        E 16 b0 0b 08
        E 0 80 3b 00
        E 0 90 39 08
        E 16 b0 0b 11
        E 32 b0 0b 19
        E 32 b0 0b 22
        E 32 b0 0b 2a
        E 16 b0 0b 08
        E 0 80 39 00
        E 0 90 3b 08
        E 16 b0 0b 11
        E 32 b0 0b 19
        E 32 b0 0b 22
        E 32 b0 0b 2a
        E 16 b0 0b 08
        E 0 80 3b 00
        E 0 90 39 08
        E 16 b0 0b 11
        E 32 b0 0b 19
        E 32 b0 0b 22
        E 32 b0 0b 2a
        E 16 b0 0b 08
        E 0 80 39 00
        E 0 90 3b 08
        E 16 b0 0b 11
        E 32 b0 0b 19
        E 32 b0 0b 22
        E 32 b0 0b 2a
        E 16 b0 0b 08
        E 0 80 3b 00
        E 0 90 42 08
        E 16 b0 0b 11
        E 32 b0 0b 19
        E 32 b0 0b 22
        E 32 b0 0b 2a
        E 16 b0 0b 08
        E 16 b0 0b 11
        E 32 b0 0b 19
        E 32 b0 0b 22
        E 32 b0 0b 2a
        E 16 b0 0b 08
        E 16 b0 0b 11
        E 32 b0 0b 19
        E 32 b0 0b 22
        E 32 b0 0b 2a
        E 16 b0 0b 08
        E 16 b0 0b 11
        E 32 b0 0b 19
        E 32 b0 0b 22
        E 32 b0 0b 2a
        E 16 80 42 00
        E 128 b0 0b 08
        E 0 90 42 08
        E 16 b0 0b 11
        E 32 b0 0b 19
        E 32 b0 0b 22
        E 32 b0 0b 2a
        E 16 80 42 00
        E 128 b0 0b 08
        E 0 90 42 08
        E 16 b0 0b 11
        E 32 b0 0b 19
        E 32 b0 0b 22
        E 32 b0 0b 2a
        E 16 b0 0b 08
        E 16 b0 0b 11
        E 32 b0 0b 19
        E 32 b0 0b 22
        E 32 b0 0b 2a
        E 16 80 42 00
        E 912 b0 0b 08
        E 0 90 49 08
        E 16 b0 0b 11
        E 32 b0 0b 19
        E 32 b0 0b 22
        E 32 b0 0b 2a
        E 16 b0 0b 08
        E 0 80 49 00
        E 0 90 47 08
        E 16 b0 0b 11
        E 32 b0 0b 19
        E 32 b0 0b 22
        E 32 b0 0b 2a
        E 16 80 47 00
        E 128 b0 0b 08
        E 0 90 40 08
        E 16 b0 0b 11
        E 32 b0 0b 19
        E 32 b0 0b 22
        E 32 b0 0b 2a
        E 16 80 40 00
        E 128 b0 0b 08
        E 0 90 47 08
        E 16 b0 0b 11
        E 32 b0 0b 19
        E 32 b0 0b 22
        E 32 b0 0b 2a
        E 16 80 47 00
        E 128 b0 0b 08
        E 0 90 45 08
        E 16 b0 0b 11
        E 32 b0 0b 19
        E 32 b0 0b 22
        E 32 b0 0b 2a
        E 16 b0 0b 08
        E 0 80 45 00
        E 0 90 49 08
        E 16 b0 0b 11
        E 32 b0 0b 19
        E 32 b0 0b 22
        E 32 b0 0b 2a
        E 16 b0 0b 08
        E 0 80 49 00
        E 0 90 47 08
        E 16 b0 0b 11
        E 32 b0 0b 19
        E 32 b0 0b 22
        E 32 b0 0b 2a
        E 16 80 47 00
        E 128 b0 0b 08
        E 0 90 40 08
        E 16 b0 0b 11
        E 32 b0 0b 19
        E 32 b0 0b 22
        E 32 b0 0b 2a
        E 16 80 40 00
        E 128 b0 0b 08
        E 0 90 47 08
        E 16 b0 0b 11
        E 32 b0 0b 19
        E 32 b0 0b 22
        E 32 b0 0b 2a
        E 16 80 47 00
        E 128 b0 0b 08
        E 0 90 45 08
        E 16 b0 0b 11
        E 32 b0 0b 19
        E 32 b0 0b 22
        E 32 b0 0b 2a
        E 16 80 45 00
        E 1024 b0 0b 08
        E 0 90 3b 08
        E 16 b0 0b 11
        E 32 b0 0b 19
        E 16 80 3b 00
        E 192 b0 0b 08
        E 0 90 40 08
        E 16 b0 0b 11
        E 32 b0 0b 19
        E 16 80 40 00
        E 192 b0 0b 08
        E 0 90 47 08
        E 16 b0 0b 11
        E 32 b0 0b 19
        E 16 80 47 00
        E 192 b0 0b 08
        E 0 90 28 08
        E 16 b0 0b 11
        E 32 b0 0b 19
        E 32 b0 0b 22
        E 32 b0 0b 2a
        E 32 b0 0b 22
        E 112 80 28 00
        E 256 b0 0b 08
        E 0 90 34 08
        E 16 b0 0b 11
        E 32 b0 0b 19
        E 32 b0 0b 22
        E 32 b0 0b 2a
        E 32 b0 0b 22
        E 112 80 34 00
        E 256 b0 0b 08
        E 0 90 34 08
        E 16 b0 0b 11
        E 32 b0 0b 19
        E 32 b0 0b 22
        E 32 b0 0b 2a
        E 32 b0 0b 22
        E 112 80 34 00
        E 256 b0 0b 08
        E 0 90 36 08
        E 16 b0 0b 11
        E 32 b0 0b 19
        E 32 b0 0b 22
        E 32 b0 0b 2a
        E 32 b0 0b 22
        E 112 80 36 00
        E 256 b0 0b 08
        E 0 90 38 08
        E 16 b0 0b 11
        E 32 b0 0b 19
        E 32 b0 0b 22
        E 32 b0 0b 2a
        E 32 b0 0b 22
        E 112 80 38 00
        E 256 b0 0b 08
        E 0 90 39 08
        E 16 b0 0b 11
        E 32 b0 0b 19
        E 32 b0 0b 22
        E 32 b0 0b 2a
        E 32 b0 0b 22
        E 112 80 39 00
        E 256 b0 0b 08
        E 0 90 39 08
        E 16 b0 0b 11
        E 32 b0 0b 19
        E 32 b0 0b 22
        E 32 b0 0b 2a
        E 32 b0 0b 22
        E 112 80 39 00
        E 256 b0 0b 08
        E 0 90 32 08
        E 16 b0 0b 11
        E 32 b0 0b 19
        E 32 b0 0b 22
        E 32 b0 0b 2a
        E 32 b0 0b 22
        E 112 80 32 00
        E 256 b0 0b 08
        E 0 90 32 08
        E 16 b0 0b 11
        E 32 b0 0b 19
        E 32 b0 0b 22
        E 32 b0 0b 2a
        E 32 b0 0b 22
        E 112 80 32 00
        E 256 b0 0b 08
        E 0 90 34 08
        E 16 b0 0b 11
        E 32 b0 0b 19
        E 32 b0 0b 22
        E 32 b0 0b 2a
        E 32 b0 0b 22
        E 112 80 34 00
        E 256 b0 0b 08
        E 0 90 34 08
        E 16 b0 0b 11
        E 32 b0 0b 19
        E 32 b0 0b 22
        E 32 b0 0b 2a
        E 32 b0 0b 22
        E 112 80 34 00
        E 256 b0 0b 08
        E 0 90 36 08
        E 16 b0 0b 11
        E 32 b0 0b 19
        E 32 b0 0b 22
        E 32 b0 0b 2a
        E 32 b0 0b 22
        E 112 80 36 00
        E 256 b0 0b 08
        E 0 90 38 08
        E 16 b0 0b 11
        E 32 b0 0b 19
        E 32 b0 0b 22
        E 32 b0 0b 2a
        E 32 b0 0b 22
        E 112 80 38 00
        E 256 b0 0b 08
        E 0 90 39 08
        E 16 b0 0b 11
        E 32 b0 0b 19
        E 32 b0 0b 22
        E 32 b0 0b 2a
        E 32 b0 0b 22
        E 112 80 39 00
        E 256 b0 0b 08
        E 0 90 39 08
        E 16 b0 0b 11
        E 32 b0 0b 19
        E 32 b0 0b 22
        E 32 b0 0b 2a
        E 32 b0 0b 22
        E 112 80 39 00
        E 256 b0 0b 08
        E 0 90 32 08
        E 16 b0 0b 11
        E 32 b0 0b 19
        E 32 b0 0b 22
        E 32 b0 0b 2a
        E 32 b0 0b 22
        E 112 80 32 00
        E 256 b0 0b 08
        E 0 90 32 08
        E 16 b0 0b 11
        E 32 b0 0b 19
        E 32 b0 0b 22
        E 32 b0 0b 2a
        E 32 b0 0b 22
        E 112 b0 0b 08
        E 0 80 32 00
        E 0 90 39 08
        E 16 b0 0b 11
        E 32 b0 0b 19
        E 32 b0 0b 22
        E 32 b0 0b 2a
        E 16 b0 0b 08
        E 16 b0 0b 11
        E 32 b0 0b 19
        E 32 b0 0b 22
        E 32 b0 0b 2a
        E 16 b0 0b 08
        E 16 b0 0b 11
        E 32 b0 0b 19
        E 32 b0 0b 22
        E 32 b0 0b 2a
        E 16 b0 0b 08
        E 16 b0 0b 11
        E 32 b0 0b 19
        E 32 b0 0b 22
        E 32 b0 0b 2a
        E 16 80 39 00
        E 128 b0 0b 08
        E 0 90 3b 08
        E 16 b0 0b 11
        E 32 b0 0b 19
        E 32 b0 0b 22
        E 32 b0 0b 2a
        E 16 80 3b 00
        E 256 b0 0b 08
        E 0 90 3d 08
        E 16 b0 0b 11
        E 32 b0 0b 19
        E 32 b0 0b 22
        E 32 b0 0b 2a
        E 16 80 3d 00
        E 384 b0 0b 08
        E 0 90 39 08
        E 16 b0 0b 11
        E 32 b0 0b 19
        E 32 b0 0b 22
        E 32 b0 0b 2a
        E 16 80 39 00
        E 640 b0 0b 08
        E 0 90 42 08
        E 16 b0 0b 11
        E 32 b0 0b 19
        E 32 b0 0b 22
        E 32 b0 0b 2a
        E 32 b0 0b 22
        E 112 80 42 00
        E 256 b0 0b 08
        E 0 90 42 08
        E 16 b0 0b 11
        E 32 b0 0b 19
        E 32 b0 0b 22
        E 32 b0 0b 2a
        E 32 b0 0b 22
        E 112 80 42 00
        E 256 b0 0b 08
        E 0 90 3d 08
        E 16 b0 0b 11
        E 32 b0 0b 19
        E 32 b0 0b 22
        E 32 b0 0b 2a
        E 32 b0 0b 22
        E 112 80 3d 00
        E 256 b0 0b 08
        E 0 90 3d 08
        E 16 b0 0b 11
        E 32 b0 0b 19
        E 32 b0 0b 22
        E 32 b0 0b 2a
        E 32 b0 0b 22
        E 112 b0 0b 08
        E 0 80 3d 00
        E 0 90 39 08
        E 16 b0 0b 11
        E 32 b0 0b 19
        E 32 b0 0b 22
        E 32 b0 0b 2a
        E 16 b0 0b 08
        E 16 b0 0b 11
        E 32 b0 0b 19
        E 32 b0 0b 22
        E 32 b0 0b 2a
        E 16 b0 0b 08
        E 16 b0 0b 11
        E 32 b0 0b 19
        E 32 b0 0b 22
        E 32 b0 0b 2a
        E 16 b0 0b 08
        E 16 b0 0b 11
        E 32 b0 0b 19
        E 32 b0 0b 22
        E 32 b0 0b 2a
        E 16 80 39 00
        E 128 b0 0b 08
        E 0 90 3b 08
        E 16 b0 0b 11
        E 32 b0 0b 19
        E 32 b0 0b 22
        E 32 b0 0b 2a
        E 16 80 3b 00
        E 256 b0 0b 08
        E 0 90 3d 08
        E 16 b0 0b 11
        E 32 b0 0b 19
        E 32 b0 0b 22
        E 32 b0 0b 2a
        E 16 80 3d 00
        E 384 b0 0b 08
        E 0 90 45 08
        E 16 b0 0b 11
        E 32 b0 0b 19
        E 32 b0 0b 22
        E 32 b0 0b 2a
        E 16 b0 0b 08
        E 0 80 45 00
        E 0 90 40 08
        E 16 b0 0b 11
        E 32 b0 0b 19
        E 32 b0 0b 22
        E 32 b0 0b 2a
        E 16 b0 0b 08
        E 0 80 40 00
        E 0 90 3d 08
        E 16 b0 0b 11
        E 32 b0 0b 19
        E 32 b0 0b 22
        E 32 b0 0b 2a
        E 16 b0 0b 08
        E 0 80 3d 00
        E 0 90 39 08
        E 16 b0 0b 11
        E 32 b0 0b 19
        E 32 b0 0b 22
        E 32 b0 0b 2a
        E 16 b0 0b 08
        E 0 80 39 00
        E 0 90 34 08
        E 16 b0 0b 11
        E 32 b0 0b 19
        E 32 b0 0b 22
        E 32 b0 0b 2a
        E 16 b0 0b 08
        E 0 80 34 00
        E 0 90 36 08
        E 16 b0 0b 11
        E 32 b0 0b 19
        E 32 b0 0b 22
        E 32 b0 0b 2a
        E 16 b0 0b 08
        E 0 80 36 00
        E 0 90 34 08
        E 16 b0 0b 11
        E 32 b0 0b 19
        E 32 b0 0b 22
        E 32 b0 0b 2a
        E 16 b0 0b 08
        E 0 80 34 00
        E 0 90 36 08
        E 16 b0 0b 11
        E 32 b0 0b 19
        E 32 b0 0b 22
        E 32 b0 0b 2a
        E 16 b0 0b 08
        E 0 80 36 00
        E 0 90 34 08
        E 16 b0 0b 11
        E 32 b0 0b 19
        E 32 b0 0b 22
        E 32 b0 0b 2a
        E 16 b0 0b 08
        E 0 80 34 00
        E 0 90 36 08
        E 16 b0 0b 11
        E 32 b0 0b 19
        E 32 b0 0b 22
        E 32 b0 0b 2a
        E 16 b0 0b 08
        E 0 80 36 00
        E 0 90 34 08
        E 16 b0 0b 11
        E 32 b0 0b 19
        E 32 b0 0b 22
        E 32 b0 0b 2a
        E 16 b0 0b 08
        E 0 80 34 00
        E 0 90 36 08
        E 16 b0 0b 11
        E 32 b0 0b 19
        E 32 b0 0b 22
        E 32 b0 0b 2a
        E 16 b0 0b 08
        E 0 80 36 00
        E 0 90 39 08
        E 16 b0 0b 11
        E 32 b0 0b 19
        E 32 b0 0b 22
        E 32 b0 0b 2a
        E 16 b0 0b 08
        E 0 80 39 00
        E 0 90 3b 08
        E 16 b0 0b 11
        E 32 b0 0b 19
        E 32 b0 0b 22
        E 32 b0 0b 2a
        E 16 b0 0b 08
        E 0 80 3b 00
        E 0 90 39 08
        E 16 b0 0b 11
        E 32 b0 0b 19
        E 32 b0 0b 22
        E 32 b0 0b 2a
        E 16 b0 0b 08
        E 0 80 39 00
        E 0 90 3b 08
        E 16 b0 0b 11
        E 32 b0 0b 19
        E 32 b0 0b 22
        E 32 b0 0b 2a
        E 16 b0 0b 08
        E 0 80 3b 00
        E 0 90 39 08
        E 16 b0 0b 11
        E 32 b0 0b 19
        E 32 b0 0b 22
        E 32 b0 0b 2a
        E 16 b0 0b 08
        E 0 80 39 00
        E 0 90 3b 08
        E 16 b0 0b 11
        E 32 b0 0b 19
        E 32 b0 0b 22
        E 32 b0 0b 2a
        E 16 b0 0b 08
        E 0 80 3b 00
        E 0 90 39 08
        E 16 b0 0b 11
        E 32 b0 0b 19
        E 32 b0 0b 22
        E 32 b0 0b 2a
        E 16 b0 0b 08
        E 0 80 39 00
        E 0 90 3b 08
        E 16 b0 0b 11
        E 32 b0 0b 19
        E 32 b0 0b 22
        E 32 b0 0b 2a
        E 16 b0 0b 08
        E 0 80 3b 00
        E 0 90 42 08
        E 16 b0 0b 11
        E 32 b0 0b 19
        E 32 b0 0b 22
        E 32 b0 0b 2a
        E 16 b0 0b 08
        E 16 b0 0b 11
        E 32 b0 0b 19
        E 32 b0 0b 22
        E 32 b0 0b 2a
        E 16 b0 0b 08
        E 16 b0 0b 11
        E 32 b0 0b 19
        E 32 b0 0b 22
        E 32 b0 0b 2a
        E 16 b0 0b 08
        E 16 b0 0b 11
        E 32 b0 0b 19
        E 32 b0 0b 22
        E 32 b0 0b 2a
        E 16 80 42 00
        E 128 b0 0b 08
        E 0 90 42 08
        E 16 b0 0b 11
        E 32 b0 0b 19
        E 32 b0 0b 22
        E 32 b0 0b 2a
        E 16 80 42 00
        E 128 b0 0b 08
        E 0 90 42 08
        E 16 b0 0b 11
        E 32 b0 0b 19
        E 32 b0 0b 22
        E 32 b0 0b 2a
        E 16 b0 0b 08
        E 16 b0 0b 11
        E 32 b0 0b 19
        E 32 b0 0b 22
        E 32 b0 0b 2a
        E 16 80 42 00
        E 912 b0 0b 08
        E 0 90 49 08
        E 16 b0 0b 11
        E 32 b0 0b 19
        E 32 b0 0b 22
        E 32 b0 0b 2a
        E 16 b0 0b 08
        E 0 80 49 00
        E 0 90 47 08
        E 16 b0 0b 11
        E 32 b0 0b 19
        E 32 b0 0b 22
        E 32 b0 0b 2a
        E 16 80 47 00
        E 128 b0 0b 08
        E 0 90 40 08
        E 16 b0 0b 11
        E 32 b0 0b 19
        E 32 b0 0b 22
        E 32 b0 0b 2a
        E 16 80 40 00
        E 128 b0 0b 08
        E 0 90 47 08
        E 16 b0 0b 11
        E 32 b0 0b 19
        E 32 b0 0b 22
        E 32 b0 0b 2a
        E 16 80 47 00
        E 128 b0 0b 08
        E 0 90 45 08
        E 16 b0 0b 11
        E 32 b0 0b 19
        E 32 b0 0b 22
        E 32 b0 0b 2a
        E 16 b0 0b 08
        E 0 80 45 00
        E 0 90 49 08
        E 16 b0 0b 11
        E 32 b0 0b 19
        E 32 b0 0b 22
        E 32 b0 0b 2a
        E 16 b0 0b 08
        E 0 80 49 00
        E 0 90 47 08
        E 16 b0 0b 11
        E 32 b0 0b 19
        E 32 b0 0b 22
        E 32 b0 0b 2a
        E 16 80 47 00
        E 128 b0 0b 08
        E 0 90 40 08
        E 16 b0 0b 11
        E 32 b0 0b 19
        E 32 b0 0b 22
        E 32 b0 0b 2a
        E 16 80 40 00
        E 128 b0 0b 08
        E 0 90 47 08
        E 16 b0 0b 11
        E 32 b0 0b 19
        E 32 b0 0b 22
        E 32 b0 0b 2a
        E 16 80 47 00
        E 128 b0 0b 08
        E 0 90 45 08
        E 16 b0 0b 11
        E 32 b0 0b 19
        E 32 b0 0b 22
        E 32 b0 0b 2a
        E 16 80 45 00
        E 1024 b0 0b 08
        E 0 90 3b 08
        E 16 b0 0b 11
        E 32 b0 0b 19
        E 16 80 3b 00
        E 192 b0 0b 08
        E 0 90 40 08
        E 16 b0 0b 11
        E 32 b0 0b 19
        E 16 80 40 00
        E 192 b0 0b 08
        E 0 90 47 08
        E 16 b0 0b 11
        E 32 b0 0b 19
        E 16 80 47 00
        E 192 b0 0b 08
        E 0 90 28 08
        E 16 b0 0b 11
        E 32 b0 0b 19
        E 32 b0 0b 22
        E 32 b0 0b 2a
        E 32 b0 0b 22
        E 112 80 28 00
        E 256 b0 0b 08
        E 0 90 34 08
        E 16 b0 0b 11
        E 32 b0 0b 19
        E 32 b0 0b 22
        E 32 b0 0b 2a
        E 32 b0 0b 22
        E 112 80 34 00
        E 256 b0 0b 08
        E 0 90 34 08
        E 16 b0 0b 11
        E 32 b0 0b 19
        E 32 b0 0b 22
        E 32 b0 0b 2a
        E 32 b0 0b 22
        E 112 80 34 00
        E 256 b0 0b 08
        E 0 90 36 08
        E 16 b0 0b 11
        E 32 b0 0b 19
        E 32 b0 0b 22
        E 32 b0 0b 2a
        E 32 b0 0b 22
        E 112 80 36 00
        E 256 b0 0b 08
        E 0 90 38 08
        E 16 b0 0b 11
        E 32 b0 0b 19
        E 32 b0 0b 22
        E 32 b0 0b 2a
        E 32 b0 0b 22
        E 112 80 38 00
        E 256 b0 0b 08
        E 0 90 39 08
        E 16 b0 0b 11
        E 32 b0 0b 19
        E 32 b0 0b 22
        E 32 b0 0b 2a
        E 32 b0 0b 22
        E 112 80 39 00
        E 256 b0 0b 08
        E 0 90 39 08
        E 16 b0 0b 11
        E 32 b0 0b 19
        E 32 b0 0b 22
        E 32 b0 0b 2a
        E 32 b0 0b 22
        E 112 80 39 00
        E 256 b0 0b 08
        E 0 90 32 08
        E 16 b0 0b 11
        E 32 b0 0b 19
        E 32 b0 0b 22
        E 32 b0 0b 2a
        E 32 b0 0b 22
        E 112 80 32 00
        E 256 b0 0b 08
        E 0 90 32 08
        E 16 b0 0b 11
        E 32 b0 0b 19
        E 32 b0 0b 22
        E 32 b0 0b 2a
        E 32 b0 0b 22
        E 112 80 32 00
        E 256 b0 0b 08
        E 0 90 34 08
        E 16 b0 0b 11
        E 32 b0 0b 19
        E 32 b0 0b 22
        E 32 b0 0b 2a
        E 32 b0 0b 22
        E 112 80 34 00
        E 256 b0 0b 08
        E 0 90 34 08
        E 16 b0 0b 11
        E 32 b0 0b 19
        E 32 b0 0b 22
        E 32 b0 0b 2a
        E 32 b0 0b 22
        E 112 80 34 00
        E 256 b0 0b 08
        E 0 90 36 08
        E 16 b0 0b 11
        E 32 b0 0b 19
        E 32 b0 0b 22
        E 32 b0 0b 2a
        E 32 b0 0b 22
        E 112 80 36 00
        E 256 b0 0b 08
        E 0 90 38 08
        E 16 b0 0b 11
        E 32 b0 0b 19
        E 32 b0 0b 22
        E 32 b0 0b 2a
        E 32 b0 0b 22
        E 112 80 38 00
        E 256 b0 0b 08
        E 0 90 39 08
        E 16 b0 0b 11
        E 32 b0 0b 19
        E 32 b0 0b 22
        E 32 b0 0b 2a
        E 32 b0 0b 22
        E 112 80 39 00
        E 256 b0 0b 08
        E 0 90 39 08
        E 16 b0 0b 11
        E 32 b0 0b 19
        E 32 b0 0b 22
        E 32 b0 0b 2a
        E 32 b0 0b 22
        E 112 80 39 00
        E 256 b0 0b 08
        E 0 90 32 08
        E 16 b0 0b 11
        E 32 b0 0b 19
        E 32 b0 0b 22
        E 32 b0 0b 2a
        E 32 b0 0b 22
        E 112 80 32 00
        E 256 b0 0b 08
        E 0 90 32 08
        E 16 b0 0b 11
        E 32 b0 0b 19
        E 32 b0 0b 22
        E 32 b0 0b 2a
        E 32 b0 0b 22
        E 112 b0 0b 08
        E 0 80 32 00
        E 0 90 39 08
        E 16 b0 0b 11
        E 32 b0 0b 19
        E 32 b0 0b 22
        E 32 b0 0b 2a
        E 16 b0 0b 08
        E 16 b0 0b 11
        E 32 b0 0b 19
        E 32 b0 0b 22
        E 32 b0 0b 2a
        E 16 b0 0b 08
        E 16 b0 0b 11
        E 32 b0 0b 19
        E 32 b0 0b 22
        E 32 b0 0b 2a
        E 16 b0 0b 08
        E 16 b0 0b 11
        E 32 b0 0b 19
        E 32 b0 0b 22
        E 32 b0 0b 2a
        E 16 80 39 00
        E 128 b0 0b 08
        E 0 90 3b 08
        E 16 b0 0b 11
        E 32 b0 0b 19
        E 32 b0 0b 22
        E 32 b0 0b 2a
        E 16 80 3b 00
        E 256 b0 0b 08
        E 0 90 3d 08
        E 16 b0 0b 11
        E 32 b0 0b 19
        E 32 b0 0b 22
        E 32 b0 0b 2a
        E 16 80 3d 00
        E 384 b0 0b 08
        E 0 90 39 08
        E 16 b0 0b 11
        E 32 b0 0b 19
        E 32 b0 0b 22
        E 32 b0 0b 2a
        E 16 80 39 00
        E 640 b0 0b 08
        E 0 90 42 08
        E 16 b0 0b 11
        E 32 b0 0b 19
        E 32 b0 0b 22
        E 32 b0 0b 2a
        E 32 b0 0b 22
        E 112 80 42 00
        E 256 b0 0b 08
        E 0 90 42 08
        E 16 b0 0b 11
        E 32 b0 0b 19
        E 32 b0 0b 22
        E 32 b0 0b 2a
        E 32 b0 0b 22
        E 112 80 42 00
        E 256 b0 0b 08
        E 0 90 3d 08
        E 16 b0 0b 11
        E 32 b0 0b 19
        E 32 b0 0b 22
        E 32 b0 0b 2a
        E 32 b0 0b 22
        E 112 80 3d 00
        E 256 b0 0b 08
        E 0 90 3d 08
        E 16 b0 0b 11
        E 32 b0 0b 19
        E 32 b0 0b 22
        E 32 b0 0b 2a
        E 32 b0 0b 22
        E 112 b0 0b 08
        E 0 80 3d 00
        E 0 90 39 08
        E 16 b0 0b 11
        E 32 b0 0b 19
        E 32 b0 0b 22
        E 32 b0 0b 2a
        E 16 b0 0b 08
        E 16 b0 0b 11
        E 32 b0 0b 19
        E 32 b0 0b 22
        E 32 b0 0b 2a
        E 16 b0 0b 08
        E 16 b0 0b 11
        E 32 b0 0b 19
        E 32 b0 0b 22
        E 32 b0 0b 2a
        E 16 b0 0b 08
        E 16 b0 0b 11
        E 32 b0 0b 19
        E 32 b0 0b 22
        E 32 b0 0b 2a
        E 16 80 39 00
        E 128 b0 0b 08
        E 0 90 3b 08
        E 16 b0 0b 11
        E 32 b0 0b 19
        E 32 b0 0b 22
        E 32 b0 0b 2a
        E 16 80 3b 00
        E 256 b0 0b 08
        E 0 90 3d 08
        E 16 b0 0b 11
        E 32 b0 0b 19
        E 32 b0 0b 22
        E 32 b0 0b 2a
        E 16 80 3d 00
        E 384 b0 0b 08
        E 0 90 45 08
        E 16 b0 0b 11
        E 32 b0 0b 19
        E 32 b0 0b 22
        E 32 b0 0b 2a
        E 16 b0 0b 08
        E 0 80 45 00
        E 0 90 40 08
        E 16 b0 0b 11
        E 32 b0 0b 19
        E 32 b0 0b 22
        E 32 b0 0b 2a
        E 16 b0 0b 08
        E 0 80 40 00
        E 0 90 3d 08
        E 16 b0 0b 11
        E 32 b0 0b 19
        E 32 b0 0b 22
        E 32 b0 0b 2a
        E 16 b0 0b 08
        E 0 80 3d 00
        E 0 90 39 08
        E 16 b0 0b 11
        E 32 b0 0b 19
        E 32 b0 0b 22
        E 32 b0 0b 2a
        E 16 b0 0b 08
        E 0 80 39 00
        E 0 90 34 08
        E 16 b0 0b 11
        E 32 b0 0b 19
        E 32 b0 0b 22
        E 32 b0 0b 2a
        E 16 b0 0b 08
        E 0 80 34 00
        E 0 90 36 08
        E 16 b0 0b 11
        E 32 b0 0b 19
        E 32 b0 0b 22
        E 32 b0 0b 2a
        E 16 b0 0b 08
        E 0 80 36 00
        E 0 90 34 08
        E 16 b0 0b 11
        E 32 b0 0b 19
        E 32 b0 0b 22
        E 32 b0 0b 2a
        E 16 b0 0b 08
        E 0 80 34 00
        E 0 90 36 08
        E 16 b0 0b 11
        E 32 b0 0b 19
        E 32 b0 0b 22
        E 32 b0 0b 2a
        E 16 b0 0b 08
        E 0 80 36 00
        E 0 90 34 08
        E 16 b0 0b 11
        E 32 b0 0b 19
        E 32 b0 0b 22
        E 32 b0 0b 2a
        E 16 b0 0b 08
        E 0 80 34 00
        E 0 90 36 08
        E 16 b0 0b 11
        E 32 b0 0b 19
        E 32 b0 0b 22
        E 32 b0 0b 2a
        E 16 b0 0b 08
        E 0 80 36 00
        E 0 90 34 08
        E 16 b0 0b 11
        E 32 b0 0b 19
        E 32 b0 0b 22
        E 32 b0 0b 2a
        E 16 b0 0b 08
        E 0 80 34 00
        E 0 90 36 08
        E 16 b0 0b 11
        E 32 b0 0b 19
        E 32 b0 0b 22
        E 32 b0 0b 2a
        E 16 b0 0b 08
        E 0 80 36 00
        E 0 90 39 08
        E 16 b0 0b 11
        E 32 b0 0b 19
        E 32 b0 0b 22
        E 32 b0 0b 2a
        E 16 b0 0b 08
        E 0 80 39 00
        E 0 90 3b 08
        E 16 b0 0b 11
        E 32 b0 0b 19
        E 32 b0 0b 22
        E 32 b0 0b 2a
        E 16 b0 0b 08
        E 0 80 3b 00
        E 0 90 39 08
        E 16 b0 0b 11
        E 32 b0 0b 19
        E 32 b0 0b 22
        E 32 b0 0b 2a
        E 16 b0 0b 08
        E 0 80 39 00
        E 0 90 3b 08
        E 16 b0 0b 11
        E 32 b0 0b 19
        E 32 b0 0b 22
        E 32 b0 0b 2a
        E 16 b0 0b 08
        E 0 80 3b 00
        E 0 90 39 08
        E 16 b0 0b 11
        E 32 b0 0b 19
        E 32 b0 0b 22
        E 32 b0 0b 2a
        E 16 b0 0b 08
        E 0 80 39 00
        E 0 90 3b 08
        E 16 b0 0b 11
        E 32 b0 0b 19
        E 32 b0 0b 22
        E 32 b0 0b 2a
        E 16 b0 0b 08
        E 0 80 3b 00
        E 0 90 39 08
        E 16 b0 0b 11
        E 32 b0 0b 19
        E 32 b0 0b 22
        E 32 b0 0b 2a
        E 16 b0 0b 08
        E 0 80 39 00
        E 0 90 3b 08
        E 16 b0 0b 11
        E 32 b0 0b 19
        E 32 b0 0b 22
        E 32 b0 0b 2a
        E 16 b0 0b 08
        E 0 80 3b 00
        E 0 90 42 08
        E 16 b0 0b 11
        E 32 b0 0b 19
        E 32 b0 0b 22
        E 32 b0 0b 2a
        E 16 b0 0b 08
        E 16 b0 0b 11
        E 32 b0 0b 19
        E 32 b0 0b 22
        E 32 b0 0b 2a
        E 16 b0 0b 08
        E 16 b0 0b 11
        E 32 b0 0b 19
        E 32 b0 0b 22
        E 32 b0 0b 2a
        E 16 b0 0b 08
        E 16 b0 0b 11
        E 32 b0 0b 19
        E 32 b0 0b 22
        E 32 b0 0b 2a
        E 16 80 42 00
        E 128 b0 0b 08
        E 0 90 42 08
        E 16 b0 0b 11
        E 32 b0 0b 19
        E 32 b0 0b 22
        E 32 b0 0b 2a
        E 16 80 42 00
        E 128 b0 0b 08
        E 0 90 42 08
        E 16 b0 0b 11
        E 32 b0 0b 19
        E 32 b0 0b 22
        E 32 b0 0b 2a
        E 16 b0 0b 08
        E 16 b0 0b 11
        E 32 b0 0b 19
        E 32 b0 0b 22
        E 32 b0 0b 2a
        E 16 80 42 00
        E 912 b0 0b 08
        E 0 90 49 08
        E 16 b0 0b 11
        E 32 b0 0b 19
        E 32 b0 0b 22
        E 32 b0 0b 2a
        E 16 b0 0b 08
        E 0 80 49 00
        E 0 90 47 08
        E 16 b0 0b 11
        E 32 b0 0b 19
        E 32 b0 0b 22
        E 32 b0 0b 2a
        E 16 80 47 00
        E 128 b0 0b 08
        E 0 90 40 08
        E 16 b0 0b 11
        E 32 b0 0b 19
        E 32 b0 0b 22
        E 32 b0 0b 2a
        E 16 80 40 00
        E 128 b0 0b 08
        E 0 90 47 08
        E 16 b0 0b 11
        E 32 b0 0b 19
        E 32 b0 0b 22
        E 32 b0 0b 2a
        E 16 80 47 00
        E 128 b0 0b 08
        E 0 90 45 08
        E 16 b0 0b 11
        E 32 b0 0b 19
        E 32 b0 0b 22
        E 32 b0 0b 2a
        E 16 b0 0b 08
        E 0 80 45 00
        E 0 90 49 08
        E 16 b0 0b 11
        E 32 b0 0b 19
        E 32 b0 0b 22
        E 32 b0 0b 2a
        E 16 b0 0b 08
        E 0 80 49 00
        E 0 90 47 08
        E 16 b0 0b 11
        E 32 b0 0b 19
        E 32 b0 0b 22
        E 32 b0 0b 2a
        E 16 80 47 00
        E 128 b0 0b 08
        E 0 90 40 08
        E 16 b0 0b 11
        E 32 b0 0b 19
        E 32 b0 0b 22
        E 32 b0 0b 2a
        E 16 80 40 00
        E 128 b0 0b 08
        E 0 90 47 08
        E 16 b0 0b 11
        E 32 b0 0b 19
        E 32 b0 0b 22
        E 32 b0 0b 2a
        E 16 80 47 00
        E 128 b0 0b 08
        E 0 90 45 08
        E 16 b0 0b 11
        E 32 b0 0b 19
        E 32 b0 0b 22
        E 32 b0 0b 2a
        E 16 80 45 00
        E 1024 b0 0b 08
        E 0 90 3b 08
        E 16 b0 0b 11
        E 32 b0 0b 19
        E 16 80 3b 00
        E 192 b0 0b 08
        E 0 90 40 08
        E 16 b0 0b 11
        E 32 b0 0b 19
        E 16 80 40 00
        E 192 b0 0b 08
        E 0 90 47 08
        E 16 b0 0b 11
        E 32 b0 0b 19
        E 16 80 47 00
        E 192 b0 0b 08
        E 0 90 28 08
        E 16 b0 0b 11
        E 32 b0 0b 19
        E 32 b0 0b 22
        E 32 b0 0b 2a
        E 32 b0 0b 22
        E 112 80 28 00
        E 256 b0 0b 08
        E 0 90 34 08
        E 16 b0 0b 11
        E 32 b0 0b 19
        E 32 b0 0b 22
        E 32 b0 0b 2a
        E 32 b0 0b 22
        E 112 80 34 00
        E 256 b0 0b 08
        E 0 90 34 08
        E 16 b0 0b 11
        E 32 b0 0b 19
        E 32 b0 0b 22
        E 32 b0 0b 2a
        E 32 b0 0b 22
        E 112 80 34 00
        E 256 b0 0b 08
        E 0 90 36 08
        E 16 b0 0b 11
        E 32 b0 0b 19
        E 32 b0 0b 22
        E 32 b0 0b 2a
        E 32 b0 0b 22
        E 112 80 36 00
        E 256 b0 0b 08
        E 0 90 38 08
        E 16 b0 0b 11
        E 32 b0 0b 19
        E 32 b0 0b 22
        E 32 b0 0b 2a
        E 32 b0 0b 22
        E 112 80 38 00
        E 256 b0 0b 08
        E 0 90 39 08
        E 16 b0 0b 11
        E 32 b0 0b 19
        E 32 b0 0b 22
        E 32 b0 0b 2a
        E 32 b0 0b 22
        E 112 80 39 00
        E 256 b0 0b 08
        E 0 90 39 08
        E 16 b0 0b 11
        E 32 b0 0b 19
        E 32 b0 0b 22
        E 32 b0 0b 2a
        E 32 b0 0b 22
        E 112 80 39 00
        E 256 b0 0b 08
        E 0 90 32 08
        E 16 b0 0b 11
        E 32 b0 0b 19
        E 32 b0 0b 22
        E 32 b0 0b 2a
        E 32 b0 0b 22
        E 112 80 32 00
        E 256 b0 0b 08
        E 0 90 32 08
        E 16 b0 0b 11
        E 32 b0 0b 19
        E 32 b0 0b 22
        E 32 b0 0b 2a
        E 32 b0 0b 22
        E 112 80 32 00
        E 256 b0 0b 08
        E 0 90 34 08
        E 16 b0 0b 11
        E 32 b0 0b 19
        E 32 b0 0b 22
        E 32 b0 0b 2a
        E 32 b0 0b 22
        E 112 80 34 00
        E 256 b0 0b 08
        E 0 90 34 08
        E 16 b0 0b 11
        E 32 b0 0b 19
        E 32 b0 0b 22
        E 32 b0 0b 2a
        E 32 b0 0b 22
        E 64 80 34 00
        E 0 b0 7b 00
        E 0 ff 2f 00
      >
    >
  >
  <TRACK {138EEC90-52ED-4536-868B-DE4A590466D7}
    NAME "NES - Pulse 2 [ch1]"
    PEAKCOL 10092441
    BEAT -1
    AUTOMODE 0
    PANLAWFLAGS 3
    VOLPAN 1 0 -1 -1 1
    MUTESOLO 0 0 0
    IPHASE 0
    PLAYOFFS 0 1
    ISBUS 0 0
    BUSCOMP 0 0 0 0 0
    SHOWINMIX 1 0.6667 0.5 1 0.5 0 0 0
    FIXEDLANES 9 0 0 0 0
    SEL 0
    REC 0 5088 1 0 0 0 0 0
    VU 2
    TRACKHEIGHT 0 0 0 0 0 0 0
    INQ 0 0 0 0.5 100 0 0 100
    NCHAN 2
    FX 1
    TRACKID {138EEC90-52ED-4536-868B-DE4A590466D7}
    PERF 0
    MIDIOUT -1
    MAINSEND 1 0
    <FXCHAIN
      WNDRECT 24 52 700 560
      SHOW 0
      LASTSEL 0
      DOCKED 0
      BYPASS 0 0 0
      <JS "ReapNES Studio/ReapNES_Console.jsfx" ""
        2 15 1 10 80 10 100 2 1 15 1 5 60 10 80 1 1 0 50 0 0 15 1 0 100 0 0 0.500000 0.500000 0.400000 0.300000 0.800000 1 1 0 0 0 0 - - - - - - - - - - - - - - - - - - - - - - - - - -
      >
      FLOATPOS 0 0 0 0
      FXID {C1C6E8C5-38CA-49AC-8AE1-3F6809EE9979}
      WAK 0 0
    >
    <ITEM
      POSITION 0
      LENGTH 74.65008
      LOOP 0
      ALLTAKES 0
      FADEIN 0 0 0 0 0 0 0
      FADEOUT 0 0 0 0 0 0 0
      MUTE 0 0
      SEL 0
      IGUID {35ACA5DF-6746-4AC9-95CE-32B21C15B5CB}
      <SOURCE MIDI
        HASDATA 1 480 QN
        CCINTERP 32
        E 0 c1 51
        E 0 b1 0c 40
        E 0 b1 0b 22
        E 0 91 51 22
        E 16 b1 0b 2a
        E 16 b1 0b 33
        E 16 b1 0b 3b
        E 16 b1 0b 44
        E 16 b1 0b 3b
        E 16 b1 0b 33
        E 16 b1 0b 2a
        E 16 b1 0b 22
        E 0 81 51 00
        E 0 91 4c 22
        E 16 b1 0b 2a
        E 16 b1 0b 33
        E 16 b1 0b 3b
        E 16 b1 0b 44
        E 16 b1 0b 3b
        E 16 b1 0b 33
        E 16 b1 0b 2a
        E 16 81 4c 00
        E 128 b1 0b 22
        E 0 91 49 22
        E 16 b1 0b 2a
        E 16 b1 0b 33
        E 16 b1 0b 3b
        E 16 b1 0b 44
        E 16 b1 0b 3b
        E 16 b1 0b 33
        E 16 b1 0b 2a
        E 16 81 49 00
        E 128 b1 0b 22
        E 0 91 4c 22
        E 16 b1 0b 2a
        E 16 b1 0b 33
        E 16 b1 0b 3b
        E 16 b1 0b 44
        E 16 b1 0b 3b
        E 16 b1 0b 33
        E 16 b1 0b 2a
        E 16 81 4c 00
        E 128 b1 0b 22
        E 0 91 49 22
        E 16 b1 0b 2a
        E 16 b1 0b 33
        E 16 b1 0b 3b
        E 16 b1 0b 44
        E 16 b1 0b 3b
        E 16 b1 0b 33
        E 16 b1 0b 2a
        E 16 b1 0b 22
        E 0 81 49 00
        E 0 91 51 22
        E 16 b1 0b 2a
        E 16 b1 0b 33
        E 16 b1 0b 3b
        E 16 b1 0b 44
        E 16 b1 0b 3b
        E 16 b1 0b 33
        E 16 b1 0b 2a
        E 16 b1 0b 22
        E 0 81 51 00
        E 0 91 4c 22
        E 16 b1 0b 2a
        E 16 b1 0b 33
        E 16 b1 0b 3b
        E 16 b1 0b 44
        E 16 b1 0b 3b
        E 16 b1 0b 33
        E 16 b1 0b 2a
        E 16 81 4c 00
        E 128 b1 0b 22
        E 0 91 49 22
        E 16 b1 0b 2a
        E 16 b1 0b 33
        E 16 b1 0b 3b
        E 16 b1 0b 44
        E 16 b1 0b 3b
        E 16 b1 0b 33
        E 16 b1 0b 2a
        E 16 81 49 00
        E 128 b1 0b 22
        E 0 91 4c 22
        E 16 b1 0b 2a
        E 16 b1 0b 33
        E 16 b1 0b 3b
        E 16 b1 0b 44
        E 16 b1 0b 3b
        E 16 b1 0b 33
        E 16 b1 0b 2a
        E 16 81 4c 00
        E 128 b1 0b 22
        E 0 91 49 22
        E 16 b1 0b 2a
        E 16 b1 0b 33
        E 16 b1 0b 3b
        E 16 b1 0b 44
        E 16 b1 0b 3b
        E 16 b1 0b 33
        E 16 b1 0b 2a
        E 16 b1 0b 22
        E 0 81 49 00
        E 0 91 38 22
        E 16 b1 0b 2a
        E 16 b1 0b 33
        E 16 b1 0b 3b
        E 16 b1 0b 44
        E 16 b1 0b 3b
        E 16 b1 0b 33
        E 16 b1 0b 2a
        E 16 b1 0b 22
        E 0 81 38 00
        E 0 91 39 22
        E 16 b1 0b 2a
        E 16 b1 0b 33
        E 16 b1 0b 3b
        E 16 b1 0b 44
        E 16 b1 0b 3b
        E 16 b1 0b 33
        E 16 b1 0b 2a
        E 16 b1 0b 22
        E 0 81 39 00
        E 0 91 3a 22
        E 16 b1 0b 2a
        E 16 b1 0b 33
        E 16 b1 0b 3b
        E 16 b1 0b 44
        E 16 b1 0b 3b
        E 16 b1 0b 33
        E 16 b1 0b 2a
        E 16 b1 0b 22
        E 0 81 3a 00
        E 0 91 3b 22
        E 16 b1 0b 2a
        E 16 b1 0b 33
        E 16 b1 0b 3b
        E 16 b1 0b 44
        E 16 b1 0b 3b
        E 16 b1 0b 33
        E 16 b1 0b 2a
        E 16 b1 0b 22
        E 0 81 3b 00
        E 0 91 3d 22
        E 16 b1 0b 2a
        E 16 b1 0b 33
        E 16 b1 0b 3b
        E 16 b1 0b 44
        E 16 b1 0b 3b
        E 16 b1 0b 33
        E 16 b1 0b 2a
        E 16 b1 0b 22
        E 0 81 3d 00
        E 0 91 3e 22
        E 16 b1 0b 2a
        E 16 b1 0b 33
        E 16 b1 0b 3b
        E 16 b1 0b 44
        E 16 b1 0b 3b
        E 16 b1 0b 33
        E 16 b1 0b 2a
        E 16 b1 0b 22
        E 0 81 3e 00
        E 0 91 3f 22
        E 16 b1 0b 2a
        E 16 b1 0b 33
        E 16 b1 0b 3b
        E 16 b1 0b 44
        E 16 b1 0b 3b
        E 16 b1 0b 33
        E 16 b1 0b 2a
        E 16 b1 0b 22
        E 0 81 3f 00
        E 0 91 40 22
        E 16 b1 0b 2a
        E 16 b1 0b 33
        E 16 b1 0b 3b
        E 16 b1 0b 44
        E 16 b1 0b 3b
        E 16 b1 0b 33
        E 16 b1 0b 2a
        E 16 b1 0b 22
        E 0 81 40 00
        E 0 91 44 22
        E 16 b1 0b 2a
        E 16 b1 0b 33
        E 16 b1 0b 3b
        E 16 b1 0b 22
        E 0 81 44 00
        E 0 91 45 22
        E 16 b1 0b 2a
        E 16 b1 0b 33
        E 16 b1 0b 3b
        E 16 b1 0b 22
        E 0 81 45 00
        E 0 91 46 22
        E 16 b1 0b 2a
        E 16 b1 0b 33
        E 16 b1 0b 3b
        E 16 b1 0b 22
        E 0 81 46 00
        E 0 91 47 22
        E 16 b1 0b 2a
        E 16 b1 0b 33
        E 16 b1 0b 3b
        E 16 b1 0b 22
        E 0 81 47 00
        E 0 91 48 22
        E 16 b1 0b 2a
        E 16 b1 0b 33
        E 16 b1 0b 3b
        E 16 b1 0b 22
        E 0 81 48 00
        E 0 91 49 22
        E 16 b1 0b 2a
        E 16 b1 0b 33
        E 16 b1 0b 3b
        E 16 b1 0b 22
        E 0 81 49 00
        E 0 91 4a 22
        E 16 b1 0b 2a
        E 16 b1 0b 33
        E 16 b1 0b 3b
        E 16 b1 0b 22
        E 0 81 4a 00
        E 0 91 4b 22
        E 16 b1 0b 2a
        E 16 b1 0b 33
        E 16 b1 0b 3b
        E 16 b1 0b 22
        E 0 81 4b 00
        E 0 91 4c 22
        E 16 b1 0b 2a
        E 16 b1 0b 33
        E 16 b1 0b 3b
        E 16 81 4c 00
        E 192 b1 0b 22
        E 0 91 38 22
        E 16 b1 0b 2a
        E 16 b1 0b 33
        E 16 b1 0b 3b
        E 16 b1 0b 44
        E 16 b1 0b 3b
        E 16 b1 0b 33
        E 16 b1 0b 2a
        E 16 b1 0b 22
        E 128 81 38 00
        E 0 91 3d 22
        E 16 b1 0b 2a
        E 16 b1 0b 33
        E 16 b1 0b 3b
        E 16 b1 0b 44
        E 16 b1 0b 3b
        E 16 b1 0b 33
        E 16 b1 0b 2a
        E 16 b1 0b 22
        E 0 81 3d 00
        E 0 91 3e 22
        E 16 b1 0b 2a
        E 16 b1 0b 33
        E 16 b1 0b 3b
        E 16 b1 0b 44
        E 16 b1 0b 3b
        E 16 b1 0b 33
        E 16 b1 0b 2a
        E 16 81 3e 00
        E 128 b1 0b 22
        E 0 91 40 22
        E 16 b1 0b 2a
        E 16 b1 0b 33
        E 16 b1 0b 3b
        E 16 b1 0b 44
        E 16 b1 0b 3b
        E 16 b1 0b 33
        E 16 b1 0b 2a
        E 16 81 40 00
        E 128 b1 0b 22
        E 0 91 47 22
        E 16 b1 0b 2a
        E 16 b1 0b 33
        E 16 b1 0b 3b
        E 16 b1 0b 22
        E 0 81 47 00
        E 0 91 40 22
        E 16 b1 0b 2a
        E 16 b1 0b 33
        E 16 b1 0b 3b
        E 16 b1 0b 22
        E 0 81 40 00
        E 0 91 47 22
        E 16 b1 0b 2a
        E 16 b1 0b 33
        E 16 b1 0b 3b
        E 16 b1 0b 22
        E 0 81 47 00
        E 0 91 40 22
        E 16 b1 0b 2a
        E 16 b1 0b 33
        E 16 b1 0b 3b
        E 16 b1 0b 22
        E 0 81 40 00
        E 0 91 47 22
        E 16 b1 0b 2a
        E 16 b1 0b 33
        E 16 b1 0b 3b
        E 16 b1 0b 22
        E 0 81 47 00
        E 0 91 40 22
        E 16 b1 0b 2a
        E 16 b1 0b 33
        E 16 b1 0b 3b
        E 16 b1 0b 22
        E 0 81 40 00
        E 0 91 45 22
        E 16 b1 0b 2a
        E 16 b1 0b 33
        E 16 b1 0b 3b
        E 16 b1 0b 22
        E 0 81 45 00
        E 0 91 3e 22
        E 16 b1 0b 2a
        E 16 b1 0b 33
        E 16 b1 0b 3b
        E 16 b1 0b 22
        E 0 81 3e 00
        E 0 91 45 22
        E 16 b1 0b 2a
        E 16 b1 0b 33
        E 16 b1 0b 3b
        E 16 b1 0b 22
        E 0 81 45 00
        E 0 91 3e 22
        E 16 b1 0b 2a
        E 16 b1 0b 33
        E 16 b1 0b 3b
        E 16 b1 0b 22
        E 0 81 3e 00
        E 0 91 45 22
        E 16 b1 0b 2a
        E 16 b1 0b 33
        E 16 b1 0b 3b
        E 16 b1 0b 22
        E 0 81 45 00
        E 0 91 3e 22
        E 16 b1 0b 2a
        E 16 b1 0b 33
        E 16 b1 0b 3b
        E 16 b1 0b 22
        E 0 81 3e 00
        E 0 91 45 22
        E 16 b1 0b 2a
        E 16 b1 0b 33
        E 16 b1 0b 3b
        E 16 b1 0b 22
        E 0 81 45 00
        E 0 91 3e 22
        E 16 b1 0b 2a
        E 16 b1 0b 33
        E 16 b1 0b 3b
        E 16 81 3e 00
        E 512 b1 0b 22
        E 0 91 39 22
        E 16 b1 0b 2a
        E 16 b1 0b 33
        E 16 b1 0b 3b
        E 16 b1 0b 22
        E 0 81 39 00
        E 0 91 32 22
        E 16 b1 0b 2a
        E 16 b1 0b 33
        E 16 b1 0b 3b
        E 16 b1 0b 22
        E 0 81 32 00
        E 0 91 39 22
        E 16 b1 0b 2a
        E 16 b1 0b 33
        E 16 b1 0b 3b
        E 16 b1 0b 22
        E 0 81 39 00
        E 0 91 32 22
        E 16 b1 0b 2a
        E 16 b1 0b 33
        E 16 b1 0b 3b
        E 16 b1 0b 22
        E 0 81 32 00
        E 0 91 42 22
        E 16 b1 0b 2a
        E 16 b1 0b 33
        E 16 b1 0b 3b
        E 16 b1 0b 44
        E 16 b1 0b 3b
        E 16 b1 0b 33
        E 16 b1 0b 2a
        E 16 b1 0b 22
        E 128 81 42 00
        E 0 91 40 22
        E 16 b1 0b 2a
        E 16 b1 0b 33
        E 16 b1 0b 3b
        E 16 b1 0b 44
        E 16 b1 0b 3b
        E 16 b1 0b 33
        E 16 b1 0b 2a
        E 16 b1 0b 22
        E 128 81 40 00
        E 0 91 3d 22
        E 16 b1 0b 2a
        E 16 b1 0b 33
        E 16 b1 0b 3b
        E 16 b1 0b 22
        E 0 81 3d 00
        E 0 91 39 22
        E 16 b1 0b 2a
        E 16 b1 0b 33
        E 16 b1 0b 3b
        E 16 b1 0b 22
        E 0 81 39 00
        E 0 91 3d 22
        E 16 b1 0b 2a
        E 16 b1 0b 33
        E 16 b1 0b 3b
        E 16 b1 0b 22
        E 0 81 3d 00
        E 0 91 39 22
        E 16 b1 0b 2a
        E 16 b1 0b 33
        E 16 b1 0b 3b
        E 16 b1 0b 22
        E 0 81 39 00
        E 0 91 3b 22
        E 16 b1 0b 2a
        E 16 b1 0b 33
        E 16 b1 0b 3b
        E 16 b1 0b 22
        E 0 81 3b 00
        E 0 91 37 22
        E 16 b1 0b 2a
        E 16 b1 0b 33
        E 16 b1 0b 3b
        E 16 b1 0b 22
        E 0 81 37 00
        E 0 91 3b 22
        E 16 b1 0b 2a
        E 16 b1 0b 33
        E 16 b1 0b 3b
        E 16 b1 0b 22
        E 0 81 3b 00
        E 0 91 37 22
        E 16 b1 0b 2a
        E 16 b1 0b 33
        E 16 b1 0b 3b
        E 16 b1 0b 22
        E 0 81 37 00
        E 0 91 3b 22
        E 16 b1 0b 2a
        E 16 b1 0b 33
        E 16 b1 0b 3b
        E 16 b1 0b 22
        E 0 81 3b 00
        E 0 91 37 22
        E 16 b1 0b 2a
        E 16 b1 0b 33
        E 16 b1 0b 3b
        E 16 b1 0b 22
        E 0 81 37 00
        E 0 91 3b 22
        E 16 b1 0b 2a
        E 16 b1 0b 33
        E 16 b1 0b 3b
        E 16 b1 0b 22
        E 0 81 3b 00
        E 0 91 37 22
        E 16 b1 0b 2a
        E 16 b1 0b 33
        E 16 b1 0b 3b
        E 16 81 37 00
        E 512 b1 0b 22
        E 0 91 3d 22
        E 16 b1 0b 2a
        E 16 b1 0b 33
        E 16 b1 0b 3b
        E 16 b1 0b 44
        E 16 b1 0b 3b
        E 16 b1 0b 33
        E 16 b1 0b 2a
        E 16 b1 0b 22
        E 0 81 3d 00
        E 0 91 3e 22
        E 16 b1 0b 2a
        E 16 b1 0b 33
        E 16 b1 0b 3b
        E 16 b1 0b 44
        E 16 b1 0b 3b
        E 16 b1 0b 33
        E 16 b1 0b 2a
        E 16 81 3e 00
        E 128 b1 0b 22
        E 0 91 40 22
        E 16 b1 0b 2a
        E 16 b1 0b 33
        E 16 b1 0b 3b
        E 16 b1 0b 44
        E 16 b1 0b 3b
        E 16 b1 0b 33
        E 16 b1 0b 2a
        E 16 81 40 00
        E 128 b1 0b 22
        E 0 91 47 22
        E 16 b1 0b 2a
        E 16 b1 0b 33
        E 16 b1 0b 3b
        E 16 b1 0b 22
        E 0 81 47 00
        E 0 91 40 22
        E 16 b1 0b 2a
        E 16 b1 0b 33
        E 16 b1 0b 3b
        E 16 b1 0b 22
        E 0 81 40 00
        E 0 91 47 22
        E 16 b1 0b 2a
        E 16 b1 0b 33
        E 16 b1 0b 3b
        E 16 b1 0b 22
        E 0 81 47 00
        E 0 91 40 22
        E 16 b1 0b 2a
        E 16 b1 0b 33
        E 16 b1 0b 3b
        E 16 b1 0b 22
        E 0 81 40 00
        E 0 91 47 22
        E 16 b1 0b 2a
        E 16 b1 0b 33
        E 16 b1 0b 3b
        E 16 b1 0b 22
        E 0 81 47 00
        E 0 91 40 22
        E 16 b1 0b 2a
        E 16 b1 0b 33
        E 16 b1 0b 3b
        E 16 b1 0b 22
        E 0 81 40 00
        E 0 91 45 22
        E 16 b1 0b 2a
        E 16 b1 0b 33
        E 16 b1 0b 3b
        E 16 b1 0b 22
        E 0 81 45 00
        E 0 91 3e 22
        E 16 b1 0b 2a
        E 16 b1 0b 33
        E 16 b1 0b 3b
        E 16 b1 0b 22
        E 0 81 3e 00
        E 0 91 45 22
        E 16 b1 0b 2a
        E 16 b1 0b 33
        E 16 b1 0b 3b
        E 16 b1 0b 22
        E 0 81 45 00
        E 0 91 3e 22
        E 16 b1 0b 2a
        E 16 b1 0b 33
        E 16 b1 0b 3b
        E 16 b1 0b 22
        E 0 81 3e 00
        E 0 91 45 22
        E 16 b1 0b 2a
        E 16 b1 0b 33
        E 16 b1 0b 3b
        E 16 b1 0b 22
        E 0 81 45 00
        E 0 91 3e 22
        E 16 b1 0b 2a
        E 16 b1 0b 33
        E 16 b1 0b 3b
        E 16 b1 0b 22
        E 0 81 3e 00
        E 0 91 45 22
        E 16 b1 0b 2a
        E 16 b1 0b 33
        E 16 b1 0b 3b
        E 16 b1 0b 22
        E 0 81 45 00
        E 0 91 3e 22
        E 16 b1 0b 2a
        E 16 b1 0b 33
        E 16 b1 0b 3b
        E 16 81 3e 00
        E 512 b1 0b 22
        E 0 91 39 22
        E 16 b1 0b 2a
        E 16 b1 0b 33
        E 16 b1 0b 3b
        E 16 b1 0b 22
        E 0 81 39 00
        E 0 91 32 22
        E 16 b1 0b 2a
        E 16 b1 0b 33
        E 16 b1 0b 3b
        E 16 b1 0b 22
        E 0 81 32 00
        E 0 91 39 22
        E 16 b1 0b 2a
        E 16 b1 0b 33
        E 16 b1 0b 3b
        E 16 b1 0b 22
        E 0 81 39 00
        E 0 91 32 22
        E 16 b1 0b 2a
        E 16 b1 0b 33
        E 16 b1 0b 3b
        E 16 b1 0b 22
        E 0 81 32 00
        E 0 91 42 22
        E 16 b1 0b 2a
        E 16 b1 0b 33
        E 16 b1 0b 3b
        E 16 b1 0b 44
        E 16 b1 0b 3b
        E 16 b1 0b 33
        E 16 b1 0b 2a
        E 16 b1 0b 22
        E 128 81 42 00
        E 0 91 40 22
        E 16 b1 0b 2a
        E 16 b1 0b 33
        E 16 b1 0b 3b
        E 16 b1 0b 44
        E 16 b1 0b 3b
        E 16 b1 0b 33
        E 16 b1 0b 2a
        E 16 b1 0b 22
        E 128 81 40 00
        E 0 91 3d 22
        E 16 b1 0b 2a
        E 16 b1 0b 33
        E 16 b1 0b 3b
        E 16 b1 0b 22
        E 0 81 3d 00
        E 0 91 39 22
        E 16 b1 0b 2a
        E 16 b1 0b 33
        E 16 b1 0b 3b
        E 16 b1 0b 22
        E 0 81 39 00
        E 0 91 3d 22
        E 16 b1 0b 2a
        E 16 b1 0b 33
        E 16 b1 0b 3b
        E 16 b1 0b 22
        E 0 81 3d 00
        E 0 91 39 22
        E 16 b1 0b 2a
        E 16 b1 0b 33
        E 16 b1 0b 3b
        E 16 b1 0b 22
        E 0 81 39 00
        E 0 91 3b 22
        E 16 b1 0b 2a
        E 16 b1 0b 33
        E 16 b1 0b 3b
        E 16 b1 0b 22
        E 0 81 3b 00
        E 0 91 37 22
        E 16 b1 0b 2a
        E 16 b1 0b 33
        E 16 b1 0b 3b
        E 16 b1 0b 22
        E 0 81 37 00
        E 0 91 3b 22
        E 16 b1 0b 2a
        E 16 b1 0b 33
        E 16 b1 0b 3b
        E 16 b1 0b 22
        E 0 81 3b 00
        E 0 91 37 22
        E 16 b1 0b 2a
        E 16 b1 0b 33
        E 16 b1 0b 3b
        E 16 b1 0b 22
        E 0 81 37 00
        E 0 91 3b 22
        E 16 b1 0b 2a
        E 16 b1 0b 33
        E 16 b1 0b 3b
        E 16 b1 0b 22
        E 0 81 3b 00
        E 0 91 37 22
        E 16 b1 0b 2a
        E 16 b1 0b 33
        E 16 b1 0b 3b
        E 16 b1 0b 22
        E 0 81 37 00
        E 0 91 3b 22
        E 16 b1 0b 2a
        E 16 b1 0b 33
        E 16 b1 0b 3b
        E 16 b1 0b 22
        E 0 81 3b 00
        E 0 91 37 22
        E 16 b1 0b 2a
        E 16 b1 0b 33
        E 16 b1 0b 3b
        E 16 81 37 00
        E 512 b1 0b 22
        E 0 91 42 22
        E 16 b1 0b 2a
        E 16 b1 0b 33
        E 16 b1 0b 3b
        E 16 b1 0b 44
        E 16 b1 0b 3b
        E 16 b1 0b 33
        E 16 b1 0b 2a
        E 16 b1 0b 22
        E 16 b1 0b 2a
        E 16 b1 0b 33
        E 16 b1 0b 3b
        E 16 b1 0b 44
        E 16 b1 0b 3b
        E 16 b1 0b 33
        E 16 b1 0b 2a
        E 16 b1 0b 22
        E 0 81 42 00
        E 0 91 40 22
        E 16 b1 0b 2a
        E 16 b1 0b 33
        E 16 b1 0b 3b
        E 16 b1 0b 44
        E 16 b1 0b 3b
        E 16 b1 0b 33
        E 16 b1 0b 2a
        E 16 b1 0b 22
        E 0 81 40 00
        E 0 91 42 22
        E 16 b1 0b 2a
        E 16 b1 0b 33
        E 16 b1 0b 3b
        E 16 b1 0b 44
        E 16 b1 0b 3b
        E 16 b1 0b 33
        E 16 b1 0b 2a
        E 16 81 42 00
        E 128 b1 0b 22
        E 0 91 44 22
        E 16 b1 0b 2a
        E 16 b1 0b 33
        E 16 b1 0b 3b
        E 16 b1 0b 44
        E 16 b1 0b 3b
        E 16 b1 0b 33
        E 16 b1 0b 2a
        E 16 81 44 00
        E 256 b1 0b 22
        E 0 91 45 22
        E 16 b1 0b 2a
        E 16 b1 0b 33
        E 16 b1 0b 3b
        E 16 b1 0b 44
        E 16 b1 0b 3b
        E 16 b1 0b 33
        E 16 b1 0b 2a
        E 16 81 45 00
        E 384 b1 0b 22
        E 0 91 40 22
        E 16 b1 0b 2a
        E 16 b1 0b 33
        E 16 b1 0b 3b
        E 16 b1 0b 44
        E 16 b1 0b 3b
        E 16 b1 0b 33
        E 16 b1 0b 2a
        E 16 81 40 00
        E 384 b1 0b 22
        E 0 91 42 22
        E 16 b1 0b 2a
        E 16 b1 0b 33
        E 16 b1 0b 3b
        E 16 b1 0b 22
        E 0 81 42 00
        E 0 91 32 22
        E 16 b1 0b 2a
        E 16 b1 0b 33
        E 16 b1 0b 3b
        E 16 b1 0b 22
        E 0 81 32 00
        E 0 91 42 22
        E 16 b1 0b 2a
        E 16 b1 0b 33
        E 16 b1 0b 3b
        E 16 b1 0b 22
        E 0 81 42 00
        E 0 91 32 22
        E 16 b1 0b 2a
        E 16 b1 0b 33
        E 16 b1 0b 3b
        E 16 b1 0b 22
        E 0 81 32 00
        E 0 91 42 22
        E 16 b1 0b 2a
        E 16 b1 0b 33
        E 16 b1 0b 3b
        E 16 b1 0b 22
        E 0 81 42 00
        E 0 91 32 22
        E 16 b1 0b 2a
        E 16 b1 0b 33
        E 16 b1 0b 3b
        E 16 b1 0b 22
        E 0 81 32 00
        E 0 91 45 22
        E 16 b1 0b 2a
        E 16 b1 0b 33
        E 16 b1 0b 3b
        E 16 b1 0b 22
        E 0 81 45 00
        E 0 91 42 22
        E 16 b1 0b 2a
        E 16 b1 0b 33
        E 16 b1 0b 3b
        E 16 b1 0b 22
        E 0 81 42 00
        E 0 91 45 22
        E 16 b1 0b 2a
        E 16 b1 0b 33
        E 16 b1 0b 3b
        E 16 b1 0b 22
        E 0 81 45 00
        E 0 91 42 22
        E 16 b1 0b 2a
        E 16 b1 0b 33
        E 16 b1 0b 3b
        E 16 b1 0b 22
        E 0 81 42 00
        E 0 91 45 22
        E 16 b1 0b 2a
        E 16 b1 0b 33
        E 16 b1 0b 3b
        E 16 b1 0b 22
        E 0 81 45 00
        E 0 91 42 22
        E 16 b1 0b 2a
        E 16 b1 0b 33
        E 16 b1 0b 3b
        E 16 b1 0b 22
        E 0 81 42 00
        E 0 91 4a 22
        E 16 b1 0b 2a
        E 16 b1 0b 33
        E 16 b1 0b 3b
        E 16 b1 0b 22
        E 0 81 4a 00
        E 0 91 45 22
        E 16 b1 0b 2a
        E 16 b1 0b 33
        E 16 b1 0b 3b
        E 16 b1 0b 22
        E 0 81 45 00
        E 0 91 4a 22
        E 16 b1 0b 2a
        E 16 b1 0b 33
        E 16 b1 0b 3b
        E 16 b1 0b 22
        E 0 81 4a 00
        E 0 91 45 22
        E 16 b1 0b 2a
        E 16 b1 0b 33
        E 16 b1 0b 3b
        E 16 b1 0b 22
        E 0 81 45 00
        E 0 91 49 22
        E 16 b1 0b 2a
        E 16 b1 0b 33
        E 16 b1 0b 3b
        E 16 b1 0b 22
        E 0 81 49 00
        E 0 91 45 22
        E 16 b1 0b 2a
        E 16 b1 0b 33
        E 16 b1 0b 3b
        E 16 b1 0b 22
        E 0 81 45 00
        E 0 91 49 22
        E 16 b1 0b 2a
        E 16 b1 0b 33
        E 16 b1 0b 3b
        E 16 b1 0b 22
        E 0 81 49 00
        E 0 91 45 22
        E 16 b1 0b 2a
        E 16 b1 0b 33
        E 16 b1 0b 3b
        E 16 b1 0b 22
        E 0 81 45 00
        E 0 91 49 22
        E 16 b1 0b 2a
        E 16 b1 0b 33
        E 16 b1 0b 3b
        E 16 b1 0b 22
        E 0 81 49 00
        E 0 91 45 22
        E 16 b1 0b 2a
        E 16 b1 0b 33
        E 16 b1 0b 3b
        E 16 b1 0b 22
        E 0 81 45 00
        E 0 91 49 22
        E 16 b1 0b 2a
        E 16 b1 0b 33
        E 16 b1 0b 3b
        E 16 b1 0b 22
        E 0 81 49 00
        E 0 91 45 22
        E 16 b1 0b 2a
        E 16 b1 0b 33
        E 16 b1 0b 3b
        E 16 b1 0b 22
        E 0 81 45 00
        E 0 91 40 22
        E 16 b1 0b 2a
        E 16 b1 0b 33
        E 16 b1 0b 3b
        E 16 b1 0b 22
        E 0 81 40 00
        E 0 91 3d 22
        E 16 b1 0b 2a
        E 16 b1 0b 33
        E 16 b1 0b 3b
        E 16 b1 0b 22
        E 0 81 3d 00
        E 0 91 40 22
        E 16 b1 0b 2a
        E 16 b1 0b 33
        E 16 b1 0b 3b
        E 16 b1 0b 22
        E 0 81 40 00
        E 0 91 3d 22
        E 16 b1 0b 2a
        E 16 b1 0b 33
        E 16 b1 0b 3b
        E 16 b1 0b 22
        E 0 81 3d 00
        E 0 91 40 22
        E 16 b1 0b 2a
        E 16 b1 0b 33
        E 16 b1 0b 3b
        E 16 b1 0b 22
        E 0 81 40 00
        E 0 91 3d 22
        E 16 b1 0b 2a
        E 16 b1 0b 33
        E 16 b1 0b 3b
        E 16 b1 0b 22
        E 0 81 3d 00
        E 0 91 40 22
        E 16 b1 0b 2a
        E 16 b1 0b 33
        E 16 b1 0b 3b
        E 16 b1 0b 22
        E 0 81 40 00
        E 0 91 3d 22
        E 16 b1 0b 2a
        E 16 b1 0b 33
        E 16 b1 0b 3b
        E 16 b1 0b 22
        E 0 81 3d 00
        E 0 91 42 22
        E 16 b1 0b 2a
        E 16 b1 0b 33
        E 16 b1 0b 3b
        E 16 b1 0b 44
        E 16 b1 0b 3b
        E 16 b1 0b 33
        E 16 b1 0b 2a
        E 16 b1 0b 22
        E 16 b1 0b 2a
        E 16 b1 0b 33
        E 16 b1 0b 3b
        E 16 b1 0b 44
        E 16 b1 0b 3b
        E 16 b1 0b 33
        E 16 b1 0b 2a
        E 16 b1 0b 22
        E 0 81 42 00
        E 0 91 40 22
        E 16 b1 0b 2a
        E 16 b1 0b 33
        E 16 b1 0b 3b
        E 16 b1 0b 44
        E 16 b1 0b 3b
        E 16 b1 0b 33
        E 16 b1 0b 2a
        E 16 b1 0b 22
        E 0 81 40 00
        E 0 91 42 22
        E 16 b1 0b 2a
        E 16 b1 0b 33
        E 16 b1 0b 3b
        E 16 b1 0b 44
        E 16 b1 0b 3b
        E 16 b1 0b 33
        E 16 b1 0b 2a
        E 16 81 42 00
        E 128 b1 0b 22
        E 0 91 44 22
        E 16 b1 0b 2a
        E 16 b1 0b 33
        E 16 b1 0b 3b
        E 16 b1 0b 44
        E 16 b1 0b 3b
        E 16 b1 0b 33
        E 16 b1 0b 2a
        E 16 81 44 00
        E 256 b1 0b 22
        E 0 91 45 22
        E 16 b1 0b 2a
        E 16 b1 0b 33
        E 16 b1 0b 3b
        E 16 b1 0b 44
        E 16 b1 0b 3b
        E 16 b1 0b 33
        E 16 b1 0b 2a
        E 16 81 45 00
        E 384 b1 0b 22
        E 0 91 49 22
        E 16 b1 0b 2a
        E 16 b1 0b 33
        E 16 b1 0b 3b
        E 16 b1 0b 44
        E 16 b1 0b 3b
        E 16 b1 0b 33
        E 16 b1 0b 2a
        E 16 b1 0b 22
        E 384 81 49 00
        E 0 91 45 22
        E 16 b1 0b 2a
        E 16 b1 0b 33
        E 16 b1 0b 3b
        E 16 b1 0b 44
        E 16 b1 0b 3b
        E 16 b1 0b 33
        E 16 b1 0b 2a
        E 16 b1 0b 22
        E 640 81 45 00
        E 256 91 40 22
        E 16 b1 0b 2a
        E 16 b1 0b 33
        E 16 b1 0b 3b
        E 16 b1 0b 44
        E 16 b1 0b 3b
        E 16 b1 0b 33
        E 16 b1 0b 2a
        E 16 b1 0b 22
        E 896 81 40 00
        E 0 91 45 22
        E 16 b1 0b 2a
        E 16 b1 0b 33
        E 16 b1 0b 3b
        E 16 b1 0b 44
        E 16 b1 0b 3b
        E 16 b1 0b 33
        E 16 b1 0b 2a
        E 16 b1 0b 22
        E 16 b1 0b 2a
        E 16 b1 0b 33
        E 16 b1 0b 3b
        E 16 b1 0b 44
        E 16 b1 0b 3b
        E 16 b1 0b 33
        E 16 b1 0b 2a
        E 16 b1 0b 22
        E 16 b1 0b 2a
        E 16 b1 0b 33
        E 16 b1 0b 3b
        E 16 b1 0b 44
        E 16 b1 0b 3b
        E 16 b1 0b 33
        E 16 b1 0b 2a
        E 16 b1 0b 22
        E 16 b1 0b 2a
        E 16 b1 0b 33
        E 16 b1 0b 3b
        E 16 b1 0b 44
        E 16 b1 0b 3b
        E 16 b1 0b 33
        E 16 b1 0b 2a
        E 16 81 45 00
        E 128 b1 0b 22
        E 0 91 45 22
        E 16 b1 0b 2a
        E 16 b1 0b 33
        E 16 b1 0b 3b
        E 16 b1 0b 44
        E 16 b1 0b 3b
        E 16 b1 0b 33
        E 16 b1 0b 2a
        E 16 81 45 00
        E 128 b1 0b 22
        E 0 91 45 22
        E 16 b1 0b 2a
        E 16 b1 0b 33
        E 16 b1 0b 3b
        E 16 b1 0b 44
        E 16 b1 0b 3b
        E 16 b1 0b 33
        E 16 b1 0b 2a
        E 16 b1 0b 22
        E 16 b1 0b 2a
        E 16 b1 0b 33
        E 16 b1 0b 3b
        E 16 b1 0b 44
        E 16 b1 0b 3b
        E 16 b1 0b 33
        E 16 b1 0b 2a
        E 16 81 45 00
        E 912 b1 0b 22
        E 0 91 51 22
        E 16 b1 0b 2a
        E 16 b1 0b 33
        E 16 b1 0b 3b
        E 16 b1 0b 44
        E 16 b1 0b 3b
        E 16 b1 0b 33
        E 16 b1 0b 2a
        E 16 b1 0b 22
        E 0 81 51 00
        E 0 91 4c 22
        E 16 b1 0b 2a
        E 16 b1 0b 33
        E 16 b1 0b 3b
        E 16 b1 0b 44
        E 16 b1 0b 3b
        E 16 b1 0b 33
        E 16 b1 0b 2a
        E 16 81 4c 00
        E 128 b1 0b 22
        E 0 91 49 22
        E 16 b1 0b 2a
        E 16 b1 0b 33
        E 16 b1 0b 3b
        E 16 b1 0b 44
        E 16 b1 0b 3b
        E 16 b1 0b 33
        E 16 b1 0b 2a
        E 16 81 49 00
        E 128 b1 0b 22
        E 0 91 4c 22
        E 16 b1 0b 2a
        E 16 b1 0b 33
        E 16 b1 0b 3b
        E 16 b1 0b 44
        E 16 b1 0b 3b
        E 16 b1 0b 33
        E 16 b1 0b 2a
        E 16 81 4c 00
        E 128 b1 0b 22
        E 0 91 49 22
        E 16 b1 0b 2a
        E 16 b1 0b 33
        E 16 b1 0b 3b
        E 16 b1 0b 44
        E 16 b1 0b 3b
        E 16 b1 0b 33
        E 16 b1 0b 2a
        E 16 b1 0b 22
        E 0 81 49 00
        E 0 91 51 22
        E 16 b1 0b 2a
        E 16 b1 0b 33
        E 16 b1 0b 3b
        E 16 b1 0b 44
        E 16 b1 0b 3b
        E 16 b1 0b 33
        E 16 b1 0b 2a
        E 16 b1 0b 22
        E 0 81 51 00
        E 0 91 4c 22
        E 16 b1 0b 2a
        E 16 b1 0b 33
        E 16 b1 0b 3b
        E 16 b1 0b 44
        E 16 b1 0b 3b
        E 16 b1 0b 33
        E 16 b1 0b 2a
        E 16 81 4c 00
        E 128 b1 0b 22
        E 0 91 49 22
        E 16 b1 0b 2a
        E 16 b1 0b 33
        E 16 b1 0b 3b
        E 16 b1 0b 44
        E 16 b1 0b 3b
        E 16 b1 0b 33
        E 16 b1 0b 2a
        E 16 81 49 00
        E 128 b1 0b 22
        E 0 91 4c 22
        E 16 b1 0b 2a
        E 16 b1 0b 33
        E 16 b1 0b 3b
        E 16 b1 0b 44
        E 16 b1 0b 3b
        E 16 b1 0b 33
        E 16 b1 0b 2a
        E 16 81 4c 00
        E 128 b1 0b 22
        E 0 91 49 22
        E 16 b1 0b 2a
        E 16 b1 0b 33
        E 16 b1 0b 3b
        E 16 b1 0b 44
        E 16 b1 0b 3b
        E 16 b1 0b 33
        E 16 b1 0b 2a
        E 16 b1 0b 22
        E 0 81 49 00
        E 0 91 38 22
        E 16 b1 0b 2a
        E 16 b1 0b 33
        E 16 b1 0b 3b
        E 16 b1 0b 44
        E 16 b1 0b 3b
        E 16 b1 0b 33
        E 16 b1 0b 2a
        E 16 b1 0b 22
        E 0 81 38 00
        E 0 91 39 22
        E 16 b1 0b 2a
        E 16 b1 0b 33
        E 16 b1 0b 3b
        E 16 b1 0b 44
        E 16 b1 0b 3b
        E 16 b1 0b 33
        E 16 b1 0b 2a
        E 16 b1 0b 22
        E 0 81 39 00
        E 0 91 3a 22
        E 16 b1 0b 2a
        E 16 b1 0b 33
        E 16 b1 0b 3b
        E 16 b1 0b 44
        E 16 b1 0b 3b
        E 16 b1 0b 33
        E 16 b1 0b 2a
        E 16 b1 0b 22
        E 0 81 3a 00
        E 0 91 3b 22
        E 16 b1 0b 2a
        E 16 b1 0b 33
        E 16 b1 0b 3b
        E 16 b1 0b 44
        E 16 b1 0b 3b
        E 16 b1 0b 33
        E 16 b1 0b 2a
        E 16 b1 0b 22
        E 0 81 3b 00
        E 0 91 3d 22
        E 16 b1 0b 2a
        E 16 b1 0b 33
        E 16 b1 0b 3b
        E 16 b1 0b 44
        E 16 b1 0b 3b
        E 16 b1 0b 33
        E 16 b1 0b 2a
        E 16 b1 0b 22
        E 0 81 3d 00
        E 0 91 3e 22
        E 16 b1 0b 2a
        E 16 b1 0b 33
        E 16 b1 0b 3b
        E 16 b1 0b 44
        E 16 b1 0b 3b
        E 16 b1 0b 33
        E 16 b1 0b 2a
        E 16 b1 0b 22
        E 0 81 3e 00
        E 0 91 3f 22
        E 16 b1 0b 2a
        E 16 b1 0b 33
        E 16 b1 0b 3b
        E 16 b1 0b 44
        E 16 b1 0b 3b
        E 16 b1 0b 33
        E 16 b1 0b 2a
        E 16 b1 0b 22
        E 0 81 3f 00
        E 0 91 40 22
        E 16 b1 0b 2a
        E 16 b1 0b 33
        E 16 b1 0b 3b
        E 16 b1 0b 44
        E 16 b1 0b 3b
        E 16 b1 0b 33
        E 16 b1 0b 2a
        E 16 b1 0b 22
        E 0 81 40 00
        E 0 91 44 22
        E 16 b1 0b 2a
        E 16 b1 0b 33
        E 16 b1 0b 3b
        E 16 b1 0b 22
        E 0 81 44 00
        E 0 91 45 22
        E 16 b1 0b 2a
        E 16 b1 0b 33
        E 16 b1 0b 3b
        E 16 b1 0b 22
        E 0 81 45 00
        E 0 91 46 22
        E 16 b1 0b 2a
        E 16 b1 0b 33
        E 16 b1 0b 3b
        E 16 b1 0b 22
        E 0 81 46 00
        E 0 91 47 22
        E 16 b1 0b 2a
        E 16 b1 0b 33
        E 16 b1 0b 3b
        E 16 b1 0b 22
        E 0 81 47 00
        E 0 91 48 22
        E 16 b1 0b 2a
        E 16 b1 0b 33
        E 16 b1 0b 3b
        E 16 b1 0b 22
        E 0 81 48 00
        E 0 91 49 22
        E 16 b1 0b 2a
        E 16 b1 0b 33
        E 16 b1 0b 3b
        E 16 b1 0b 22
        E 0 81 49 00
        E 0 91 4a 22
        E 16 b1 0b 2a
        E 16 b1 0b 33
        E 16 b1 0b 3b
        E 16 b1 0b 22
        E 0 81 4a 00
        E 0 91 4b 22
        E 16 b1 0b 2a
        E 16 b1 0b 33
        E 16 b1 0b 3b
        E 16 b1 0b 22
        E 0 81 4b 00
        E 0 91 4c 22
        E 16 b1 0b 2a
        E 16 b1 0b 33
        E 16 b1 0b 3b
        E 16 81 4c 00
        E 192 b1 0b 22
        E 0 91 38 22
        E 16 b1 0b 2a
        E 16 b1 0b 33
        E 16 b1 0b 3b
        E 16 b1 0b 44
        E 16 b1 0b 3b
        E 16 b1 0b 33
        E 16 b1 0b 2a
        E 16 b1 0b 22
        E 128 81 38 00
        E 0 91 3d 22
        E 16 b1 0b 2a
        E 16 b1 0b 33
        E 16 b1 0b 3b
        E 16 b1 0b 44
        E 16 b1 0b 3b
        E 16 b1 0b 33
        E 16 b1 0b 2a
        E 16 b1 0b 22
        E 0 81 3d 00
        E 0 91 3e 22
        E 16 b1 0b 2a
        E 16 b1 0b 33
        E 16 b1 0b 3b
        E 16 b1 0b 44
        E 16 b1 0b 3b
        E 16 b1 0b 33
        E 16 b1 0b 2a
        E 16 81 3e 00
        E 128 b1 0b 22
        E 0 91 40 22
        E 16 b1 0b 2a
        E 16 b1 0b 33
        E 16 b1 0b 3b
        E 16 b1 0b 44
        E 16 b1 0b 3b
        E 16 b1 0b 33
        E 16 b1 0b 2a
        E 16 81 40 00
        E 128 b1 0b 22
        E 0 91 47 22
        E 16 b1 0b 2a
        E 16 b1 0b 33
        E 16 b1 0b 3b
        E 16 b1 0b 22
        E 0 81 47 00
        E 0 91 40 22
        E 16 b1 0b 2a
        E 16 b1 0b 33
        E 16 b1 0b 3b
        E 16 b1 0b 22
        E 0 81 40 00
        E 0 91 47 22
        E 16 b1 0b 2a
        E 16 b1 0b 33
        E 16 b1 0b 3b
        E 16 b1 0b 22
        E 0 81 47 00
        E 0 91 40 22
        E 16 b1 0b 2a
        E 16 b1 0b 33
        E 16 b1 0b 3b
        E 16 b1 0b 22
        E 0 81 40 00
        E 0 91 47 22
        E 16 b1 0b 2a
        E 16 b1 0b 33
        E 16 b1 0b 3b
        E 16 b1 0b 22
        E 0 81 47 00
        E 0 91 40 22
        E 16 b1 0b 2a
        E 16 b1 0b 33
        E 16 b1 0b 3b
        E 16 b1 0b 22
        E 0 81 40 00
        E 0 91 45 22
        E 16 b1 0b 2a
        E 16 b1 0b 33
        E 16 b1 0b 3b
        E 16 b1 0b 22
        E 0 81 45 00
        E 0 91 3e 22
        E 16 b1 0b 2a
        E 16 b1 0b 33
        E 16 b1 0b 3b
        E 16 b1 0b 22
        E 0 81 3e 00
        E 0 91 45 22
        E 16 b1 0b 2a
        E 16 b1 0b 33
        E 16 b1 0b 3b
        E 16 b1 0b 22
        E 0 81 45 00
        E 0 91 3e 22
        E 16 b1 0b 2a
        E 16 b1 0b 33
        E 16 b1 0b 3b
        E 16 b1 0b 22
        E 0 81 3e 00
        E 0 91 45 22
        E 16 b1 0b 2a
        E 16 b1 0b 33
        E 16 b1 0b 3b
        E 16 b1 0b 22
        E 0 81 45 00
        E 0 91 3e 22
        E 16 b1 0b 2a
        E 16 b1 0b 33
        E 16 b1 0b 3b
        E 16 b1 0b 22
        E 0 81 3e 00
        E 0 91 45 22
        E 16 b1 0b 2a
        E 16 b1 0b 33
        E 16 b1 0b 3b
        E 16 b1 0b 22
        E 0 81 45 00
        E 0 91 3e 22
        E 16 b1 0b 2a
        E 16 b1 0b 33
        E 16 b1 0b 3b
        E 16 81 3e 00
        E 512 b1 0b 22
        E 0 91 39 22
        E 16 b1 0b 2a
        E 16 b1 0b 33
        E 16 b1 0b 3b
        E 16 b1 0b 22
        E 0 81 39 00
        E 0 91 32 22
        E 16 b1 0b 2a
        E 16 b1 0b 33
        E 16 b1 0b 3b
        E 16 b1 0b 22
        E 0 81 32 00
        E 0 91 39 22
        E 16 b1 0b 2a
        E 16 b1 0b 33
        E 16 b1 0b 3b
        E 16 b1 0b 22
        E 0 81 39 00
        E 0 91 32 22
        E 16 b1 0b 2a
        E 16 b1 0b 33
        E 16 b1 0b 3b
        E 16 b1 0b 22
        E 0 81 32 00
        E 0 91 42 22
        E 16 b1 0b 2a
        E 16 b1 0b 33
        E 16 b1 0b 3b
        E 16 b1 0b 44
        E 16 b1 0b 3b
        E 16 b1 0b 33
        E 16 b1 0b 2a
        E 16 b1 0b 22
        E 128 81 42 00
        E 0 91 40 22
        E 16 b1 0b 2a
        E 16 b1 0b 33
        E 16 b1 0b 3b
        E 16 b1 0b 44
        E 16 b1 0b 3b
        E 16 b1 0b 33
        E 16 b1 0b 2a
        E 16 b1 0b 22
        E 128 81 40 00
        E 0 91 3d 22
        E 16 b1 0b 2a
        E 16 b1 0b 33
        E 16 b1 0b 3b
        E 16 b1 0b 22
        E 0 81 3d 00
        E 0 91 39 22
        E 16 b1 0b 2a
        E 16 b1 0b 33
        E 16 b1 0b 3b
        E 16 b1 0b 22
        E 0 81 39 00
        E 0 91 3d 22
        E 16 b1 0b 2a
        E 16 b1 0b 33
        E 16 b1 0b 3b
        E 16 b1 0b 22
        E 0 81 3d 00
        E 0 91 39 22
        E 16 b1 0b 2a
        E 16 b1 0b 33
        E 16 b1 0b 3b
        E 16 b1 0b 22
        E 0 81 39 00
        E 0 91 3b 22
        E 16 b1 0b 2a
        E 16 b1 0b 33
        E 16 b1 0b 3b
        E 16 b1 0b 22
        E 0 81 3b 00
        E 0 91 37 22
        E 16 b1 0b 2a
        E 16 b1 0b 33
        E 16 b1 0b 3b
        E 16 b1 0b 22
        E 0 81 37 00
        E 0 91 3b 22
        E 16 b1 0b 2a
        E 16 b1 0b 33
        E 16 b1 0b 3b
        E 16 b1 0b 22
        E 0 81 3b 00
        E 0 91 37 22
        E 16 b1 0b 2a
        E 16 b1 0b 33
        E 16 b1 0b 3b
        E 16 b1 0b 22
        E 0 81 37 00
        E 0 91 3b 22
        E 16 b1 0b 2a
        E 16 b1 0b 33
        E 16 b1 0b 3b
        E 16 b1 0b 22
        E 0 81 3b 00
        E 0 91 37 22
        E 16 b1 0b 2a
        E 16 b1 0b 33
        E 16 b1 0b 3b
        E 16 b1 0b 22
        E 0 81 37 00
        E 0 91 3b 22
        E 16 b1 0b 2a
        E 16 b1 0b 33
        E 16 b1 0b 3b
        E 16 b1 0b 22
        E 0 81 3b 00
        E 0 91 37 22
        E 16 b1 0b 2a
        E 16 b1 0b 33
        E 16 b1 0b 3b
        E 16 81 37 00
        E 512 b1 0b 22
        E 0 91 3d 22
        E 16 b1 0b 2a
        E 16 b1 0b 33
        E 16 b1 0b 3b
        E 16 b1 0b 44
        E 16 b1 0b 3b
        E 16 b1 0b 33
        E 16 b1 0b 2a
        E 16 b1 0b 22
        E 0 81 3d 00
        E 0 91 3e 22
        E 16 b1 0b 2a
        E 16 b1 0b 33
        E 16 b1 0b 3b
        E 16 b1 0b 44
        E 16 b1 0b 3b
        E 16 b1 0b 33
        E 16 b1 0b 2a
        E 16 81 3e 00
        E 128 b1 0b 22
        E 0 91 40 22
        E 16 b1 0b 2a
        E 16 b1 0b 33
        E 16 b1 0b 3b
        E 16 b1 0b 44
        E 16 b1 0b 3b
        E 16 b1 0b 33
        E 16 b1 0b 2a
        E 16 81 40 00
        E 128 b1 0b 22
        E 0 91 47 22
        E 16 b1 0b 2a
        E 16 b1 0b 33
        E 16 b1 0b 3b
        E 16 b1 0b 22
        E 0 81 47 00
        E 0 91 40 22
        E 16 b1 0b 2a
        E 16 b1 0b 33
        E 16 b1 0b 3b
        E 16 b1 0b 22
        E 0 81 40 00
        E 0 91 47 22
        E 16 b1 0b 2a
        E 16 b1 0b 33
        E 16 b1 0b 3b
        E 16 b1 0b 22
        E 0 81 47 00
        E 0 91 40 22
        E 16 b1 0b 2a
        E 16 b1 0b 33
        E 16 b1 0b 3b
        E 16 b1 0b 22
        E 0 81 40 00
        E 0 91 47 22
        E 16 b1 0b 2a
        E 16 b1 0b 33
        E 16 b1 0b 3b
        E 16 b1 0b 22
        E 0 81 47 00
        E 0 91 40 22
        E 16 b1 0b 2a
        E 16 b1 0b 33
        E 16 b1 0b 3b
        E 16 b1 0b 22
        E 0 81 40 00
        E 0 91 45 22
        E 16 b1 0b 2a
        E 16 b1 0b 33
        E 16 b1 0b 3b
        E 16 b1 0b 22
        E 0 81 45 00
        E 0 91 3e 22
        E 16 b1 0b 2a
        E 16 b1 0b 33
        E 16 b1 0b 3b
        E 16 b1 0b 22
        E 0 81 3e 00
        E 0 91 45 22
        E 16 b1 0b 2a
        E 16 b1 0b 33
        E 16 b1 0b 3b
        E 16 b1 0b 22
        E 0 81 45 00
        E 0 91 3e 22
        E 16 b1 0b 2a
        E 16 b1 0b 33
        E 16 b1 0b 3b
        E 16 b1 0b 22
        E 0 81 3e 00
        E 0 91 45 22
        E 16 b1 0b 2a
        E 16 b1 0b 33
        E 16 b1 0b 3b
        E 16 b1 0b 22
        E 0 81 45 00
        E 0 91 3e 22
        E 16 b1 0b 2a
        E 16 b1 0b 33
        E 16 b1 0b 3b
        E 16 b1 0b 22
        E 0 81 3e 00
        E 0 91 45 22
        E 16 b1 0b 2a
        E 16 b1 0b 33
        E 16 b1 0b 3b
        E 16 b1 0b 22
        E 0 81 45 00
        E 0 91 3e 22
        E 16 b1 0b 2a
        E 16 b1 0b 33
        E 16 b1 0b 3b
        E 16 81 3e 00
        E 512 b1 0b 22
        E 0 91 39 22
        E 16 b1 0b 2a
        E 16 b1 0b 33
        E 16 b1 0b 3b
        E 16 b1 0b 22
        E 0 81 39 00
        E 0 91 32 22
        E 16 b1 0b 2a
        E 16 b1 0b 33
        E 16 b1 0b 3b
        E 16 b1 0b 22
        E 0 81 32 00
        E 0 91 39 22
        E 16 b1 0b 2a
        E 16 b1 0b 33
        E 16 b1 0b 3b
        E 16 b1 0b 22
        E 0 81 39 00
        E 0 91 32 22
        E 16 b1 0b 2a
        E 16 b1 0b 33
        E 16 b1 0b 3b
        E 16 b1 0b 22
        E 0 81 32 00
        E 0 91 42 22
        E 16 b1 0b 2a
        E 16 b1 0b 33
        E 16 b1 0b 3b
        E 16 b1 0b 44
        E 16 b1 0b 3b
        E 16 b1 0b 33
        E 16 b1 0b 2a
        E 16 b1 0b 22
        E 128 81 42 00
        E 0 91 40 22
        E 16 b1 0b 2a
        E 16 b1 0b 33
        E 16 b1 0b 3b
        E 16 b1 0b 44
        E 16 b1 0b 3b
        E 16 b1 0b 33
        E 16 b1 0b 2a
        E 16 b1 0b 22
        E 128 81 40 00
        E 0 91 3d 22
        E 16 b1 0b 2a
        E 16 b1 0b 33
        E 16 b1 0b 3b
        E 16 b1 0b 22
        E 0 81 3d 00
        E 0 91 39 22
        E 16 b1 0b 2a
        E 16 b1 0b 33
        E 16 b1 0b 3b
        E 16 b1 0b 22
        E 0 81 39 00
        E 0 91 3d 22
        E 16 b1 0b 2a
        E 16 b1 0b 33
        E 16 b1 0b 3b
        E 16 b1 0b 22
        E 0 81 3d 00
        E 0 91 39 22
        E 16 b1 0b 2a
        E 16 b1 0b 33
        E 16 b1 0b 3b
        E 16 b1 0b 22
        E 0 81 39 00
        E 0 91 3b 22
        E 16 b1 0b 2a
        E 16 b1 0b 33
        E 16 b1 0b 3b
        E 16 b1 0b 22
        E 0 81 3b 00
        E 0 91 37 22
        E 16 b1 0b 2a
        E 16 b1 0b 33
        E 16 b1 0b 3b
        E 16 b1 0b 22
        E 0 81 37 00
        E 0 91 3b 22
        E 16 b1 0b 2a
        E 16 b1 0b 33
        E 16 b1 0b 3b
        E 16 b1 0b 22
        E 0 81 3b 00
        E 0 91 37 22
        E 16 b1 0b 2a
        E 16 b1 0b 33
        E 16 b1 0b 3b
        E 16 b1 0b 22
        E 0 81 37 00
        E 0 91 3b 22
        E 16 b1 0b 2a
        E 16 b1 0b 33
        E 16 b1 0b 3b
        E 16 b1 0b 22
        E 0 81 3b 00
        E 0 91 37 22
        E 16 b1 0b 2a
        E 16 b1 0b 33
        E 16 b1 0b 3b
        E 16 b1 0b 22
        E 0 81 37 00
        E 0 91 3b 22
        E 16 b1 0b 2a
        E 16 b1 0b 33
        E 16 b1 0b 3b
        E 16 b1 0b 22
        E 0 81 3b 00
        E 0 91 37 22
        E 16 b1 0b 2a
        E 16 b1 0b 33
        E 16 b1 0b 3b
        E 16 81 37 00
        E 512 b1 0b 22
        E 0 91 42 22
        E 16 b1 0b 2a
        E 16 b1 0b 33
        E 16 b1 0b 3b
        E 16 b1 0b 44
        E 16 b1 0b 3b
        E 16 b1 0b 33
        E 16 b1 0b 2a
        E 16 b1 0b 22
        E 16 b1 0b 2a
        E 16 b1 0b 33
        E 16 b1 0b 3b
        E 16 b1 0b 44
        E 16 b1 0b 3b
        E 16 b1 0b 33
        E 16 b1 0b 2a
        E 16 b1 0b 22
        E 0 81 42 00
        E 0 91 40 22
        E 16 b1 0b 2a
        E 16 b1 0b 33
        E 16 b1 0b 3b
        E 16 b1 0b 44
        E 16 b1 0b 3b
        E 16 b1 0b 33
        E 16 b1 0b 2a
        E 16 b1 0b 22
        E 0 81 40 00
        E 0 91 42 22
        E 16 b1 0b 2a
        E 16 b1 0b 33
        E 16 b1 0b 3b
        E 16 b1 0b 44
        E 16 b1 0b 3b
        E 16 b1 0b 33
        E 16 b1 0b 2a
        E 16 81 42 00
        E 128 b1 0b 22
        E 0 91 44 22
        E 16 b1 0b 2a
        E 16 b1 0b 33
        E 16 b1 0b 3b
        E 16 b1 0b 44
        E 16 b1 0b 3b
        E 16 b1 0b 33
        E 16 b1 0b 2a
        E 16 81 44 00
        E 256 b1 0b 22
        E 0 91 45 22
        E 16 b1 0b 2a
        E 16 b1 0b 33
        E 16 b1 0b 3b
        E 16 b1 0b 44
        E 16 b1 0b 3b
        E 16 b1 0b 33
        E 16 b1 0b 2a
        E 16 81 45 00
        E 384 b1 0b 22
        E 0 91 40 22
        E 16 b1 0b 2a
        E 16 b1 0b 33
        E 16 b1 0b 3b
        E 16 b1 0b 44
        E 16 b1 0b 3b
        E 16 b1 0b 33
        E 16 b1 0b 2a
        E 16 81 40 00
        E 384 b1 0b 22
        E 0 91 42 22
        E 16 b1 0b 2a
        E 16 b1 0b 33
        E 16 b1 0b 3b
        E 16 b1 0b 22
        E 0 81 42 00
        E 0 91 32 22
        E 16 b1 0b 2a
        E 16 b1 0b 33
        E 16 b1 0b 3b
        E 16 b1 0b 22
        E 0 81 32 00
        E 0 91 42 22
        E 16 b1 0b 2a
        E 16 b1 0b 33
        E 16 b1 0b 3b
        E 16 b1 0b 22
        E 0 81 42 00
        E 0 91 32 22
        E 16 b1 0b 2a
        E 16 b1 0b 33
        E 16 b1 0b 3b
        E 16 b1 0b 22
        E 0 81 32 00
        E 0 91 42 22
        E 16 b1 0b 2a
        E 16 b1 0b 33
        E 16 b1 0b 3b
        E 16 b1 0b 22
        E 0 81 42 00
        E 0 91 32 22
        E 16 b1 0b 2a
        E 16 b1 0b 33
        E 16 b1 0b 3b
        E 16 b1 0b 22
        E 0 81 32 00
        E 0 91 45 22
        E 16 b1 0b 2a
        E 16 b1 0b 33
        E 16 b1 0b 3b
        E 16 b1 0b 22
        E 0 81 45 00
        E 0 91 42 22
        E 16 b1 0b 2a
        E 16 b1 0b 33
        E 16 b1 0b 3b
        E 16 b1 0b 22
        E 0 81 42 00
        E 0 91 45 22
        E 16 b1 0b 2a
        E 16 b1 0b 33
        E 16 b1 0b 3b
        E 16 b1 0b 22
        E 0 81 45 00
        E 0 91 42 22
        E 16 b1 0b 2a
        E 16 b1 0b 33
        E 16 b1 0b 3b
        E 16 b1 0b 22
        E 0 81 42 00
        E 0 91 45 22
        E 16 b1 0b 2a
        E 16 b1 0b 33
        E 16 b1 0b 3b
        E 16 b1 0b 22
        E 0 81 45 00
        E 0 91 42 22
        E 16 b1 0b 2a
        E 16 b1 0b 33
        E 16 b1 0b 3b
        E 16 b1 0b 22
        E 0 81 42 00
        E 0 91 4a 22
        E 16 b1 0b 2a
        E 16 b1 0b 33
        E 16 b1 0b 3b
        E 16 b1 0b 22
        E 0 81 4a 00
        E 0 91 45 22
        E 16 b1 0b 2a
        E 16 b1 0b 33
        E 16 b1 0b 3b
        E 16 b1 0b 22
        E 0 81 45 00
        E 0 91 4a 22
        E 16 b1 0b 2a
        E 16 b1 0b 33
        E 16 b1 0b 3b
        E 16 b1 0b 22
        E 0 81 4a 00
        E 0 91 45 22
        E 16 b1 0b 2a
        E 16 b1 0b 33
        E 16 b1 0b 3b
        E 16 b1 0b 22
        E 0 81 45 00
        E 0 91 49 22
        E 16 b1 0b 2a
        E 16 b1 0b 33
        E 16 b1 0b 3b
        E 16 b1 0b 22
        E 0 81 49 00
        E 0 91 45 22
        E 16 b1 0b 2a
        E 16 b1 0b 33
        E 16 b1 0b 3b
        E 16 b1 0b 22
        E 0 81 45 00
        E 0 91 49 22
        E 16 b1 0b 2a
        E 16 b1 0b 33
        E 16 b1 0b 3b
        E 16 b1 0b 22
        E 0 81 49 00
        E 0 91 45 22
        E 16 b1 0b 2a
        E 16 b1 0b 33
        E 16 b1 0b 3b
        E 16 b1 0b 22
        E 0 81 45 00
        E 0 91 49 22
        E 16 b1 0b 2a
        E 16 b1 0b 33
        E 16 b1 0b 3b
        E 16 b1 0b 22
        E 0 81 49 00
        E 0 91 45 22
        E 16 b1 0b 2a
        E 16 b1 0b 33
        E 16 b1 0b 3b
        E 16 b1 0b 22
        E 0 81 45 00
        E 0 91 49 22
        E 16 b1 0b 2a
        E 16 b1 0b 33
        E 16 b1 0b 3b
        E 16 b1 0b 22
        E 0 81 49 00
        E 0 91 45 22
        E 16 b1 0b 2a
        E 16 b1 0b 33
        E 16 b1 0b 3b
        E 16 b1 0b 22
        E 0 81 45 00
        E 0 91 40 22
        E 16 b1 0b 2a
        E 16 b1 0b 33
        E 16 b1 0b 3b
        E 16 b1 0b 22
        E 0 81 40 00
        E 0 91 3d 22
        E 16 b1 0b 2a
        E 16 b1 0b 33
        E 16 b1 0b 3b
        E 16 b1 0b 22
        E 0 81 3d 00
        E 0 91 40 22
        E 16 b1 0b 2a
        E 16 b1 0b 33
        E 16 b1 0b 3b
        E 16 b1 0b 22
        E 0 81 40 00
        E 0 91 3d 22
        E 16 b1 0b 2a
        E 16 b1 0b 33
        E 16 b1 0b 3b
        E 16 b1 0b 22
        E 0 81 3d 00
        E 0 91 40 22
        E 16 b1 0b 2a
        E 16 b1 0b 33
        E 16 b1 0b 3b
        E 16 b1 0b 22
        E 0 81 40 00
        E 0 91 3d 22
        E 16 b1 0b 2a
        E 16 b1 0b 33
        E 16 b1 0b 3b
        E 16 b1 0b 22
        E 0 81 3d 00
        E 0 91 40 22
        E 16 b1 0b 2a
        E 16 b1 0b 33
        E 16 b1 0b 3b
        E 16 b1 0b 22
        E 0 81 40 00
        E 0 91 3d 22
        E 16 b1 0b 2a
        E 16 b1 0b 33
        E 16 b1 0b 3b
        E 16 b1 0b 22
        E 0 81 3d 00
        E 0 91 42 22
        E 16 b1 0b 2a
        E 16 b1 0b 33
        E 16 b1 0b 3b
        E 16 b1 0b 44
        E 16 b1 0b 3b
        E 16 b1 0b 33
        E 16 b1 0b 2a
        E 16 b1 0b 22
        E 16 b1 0b 2a
        E 16 b1 0b 33
        E 16 b1 0b 3b
        E 16 b1 0b 44
        E 16 b1 0b 3b
        E 16 b1 0b 33
        E 16 b1 0b 2a
        E 16 b1 0b 22
        E 0 81 42 00
        E 0 91 40 22
        E 16 b1 0b 2a
        E 16 b1 0b 33
        E 16 b1 0b 3b
        E 16 b1 0b 44
        E 16 b1 0b 3b
        E 16 b1 0b 33
        E 16 b1 0b 2a
        E 16 b1 0b 22
        E 0 81 40 00
        E 0 91 42 22
        E 16 b1 0b 2a
        E 16 b1 0b 33
        E 16 b1 0b 3b
        E 16 b1 0b 44
        E 16 b1 0b 3b
        E 16 b1 0b 33
        E 16 b1 0b 2a
        E 16 81 42 00
        E 128 b1 0b 22
        E 0 91 44 22
        E 16 b1 0b 2a
        E 16 b1 0b 33
        E 16 b1 0b 3b
        E 16 b1 0b 44
        E 16 b1 0b 3b
        E 16 b1 0b 33
        E 16 b1 0b 2a
        E 16 81 44 00
        E 256 b1 0b 22
        E 0 91 45 22
        E 16 b1 0b 2a
        E 16 b1 0b 33
        E 16 b1 0b 3b
        E 16 b1 0b 44
        E 16 b1 0b 3b
        E 16 b1 0b 33
        E 16 b1 0b 2a
        E 16 81 45 00
        E 384 b1 0b 22
        E 0 91 49 22
        E 16 b1 0b 2a
        E 16 b1 0b 33
        E 16 b1 0b 3b
        E 16 b1 0b 44
        E 16 b1 0b 3b
        E 16 b1 0b 33
        E 16 b1 0b 2a
        E 16 b1 0b 22
        E 384 81 49 00
        E 0 91 45 22
        E 16 b1 0b 2a
        E 16 b1 0b 33
        E 16 b1 0b 3b
        E 16 b1 0b 44
        E 16 b1 0b 3b
        E 16 b1 0b 33
        E 16 b1 0b 2a
        E 16 b1 0b 22
        E 640 81 45 00
        E 256 91 40 22
        E 16 b1 0b 2a
        E 16 b1 0b 33
        E 16 b1 0b 3b
        E 16 b1 0b 44
        E 16 b1 0b 3b
        E 16 b1 0b 33
        E 16 b1 0b 2a
        E 16 b1 0b 22
        E 896 81 40 00
        E 0 91 45 22
        E 16 b1 0b 2a
        E 16 b1 0b 33
        E 16 b1 0b 3b
        E 16 b1 0b 44
        E 16 b1 0b 3b
        E 16 b1 0b 33
        E 16 b1 0b 2a
        E 16 b1 0b 22
        E 16 b1 0b 2a
        E 16 b1 0b 33
        E 16 b1 0b 3b
        E 16 b1 0b 44
        E 16 b1 0b 3b
        E 16 b1 0b 33
        E 16 b1 0b 2a
        E 16 b1 0b 22
        E 16 b1 0b 2a
        E 16 b1 0b 33
        E 16 b1 0b 3b
        E 16 b1 0b 44
        E 16 b1 0b 3b
        E 16 b1 0b 33
        E 16 b1 0b 2a
        E 16 b1 0b 22
        E 16 b1 0b 2a
        E 16 b1 0b 33
        E 16 b1 0b 3b
        E 16 b1 0b 44
        E 16 b1 0b 3b
        E 16 b1 0b 33
        E 16 b1 0b 2a
        E 16 81 45 00
        E 128 b1 0b 22
        E 0 91 45 22
        E 16 b1 0b 2a
        E 16 b1 0b 33
        E 16 b1 0b 3b
        E 16 b1 0b 44
        E 16 b1 0b 3b
        E 16 b1 0b 33
        E 16 b1 0b 2a
        E 16 81 45 00
        E 128 b1 0b 22
        E 0 91 45 22
        E 16 b1 0b 2a
        E 16 b1 0b 33
        E 16 b1 0b 3b
        E 16 b1 0b 44
        E 16 b1 0b 3b
        E 16 b1 0b 33
        E 16 b1 0b 2a
        E 16 b1 0b 22
        E 16 b1 0b 2a
        E 16 b1 0b 33
        E 16 b1 0b 3b
        E 16 b1 0b 44
        E 16 b1 0b 3b
        E 16 b1 0b 33
        E 16 b1 0b 2a
        E 16 81 45 00
        E 912 b1 0b 22
        E 0 91 51 22
        E 16 b1 0b 2a
        E 16 b1 0b 33
        E 16 b1 0b 3b
        E 16 b1 0b 44
        E 16 b1 0b 3b
        E 16 b1 0b 33
        E 16 b1 0b 2a
        E 16 b1 0b 22
        E 0 81 51 00
        E 0 91 4c 22
        E 16 b1 0b 2a
        E 16 b1 0b 33
        E 16 b1 0b 3b
        E 16 b1 0b 44
        E 16 b1 0b 3b
        E 16 b1 0b 33
        E 16 b1 0b 2a
        E 16 81 4c 00
        E 128 b1 0b 22
        E 0 91 49 22
        E 16 b1 0b 2a
        E 16 b1 0b 33
        E 16 b1 0b 3b
        E 16 b1 0b 44
        E 16 b1 0b 3b
        E 16 b1 0b 33
        E 16 b1 0b 2a
        E 16 81 49 00
        E 128 b1 0b 22
        E 0 91 4c 22
        E 16 b1 0b 2a
        E 16 b1 0b 33
        E 16 b1 0b 3b
        E 16 b1 0b 44
        E 16 b1 0b 3b
        E 16 b1 0b 33
        E 16 b1 0b 2a
        E 16 81 4c 00
        E 128 b1 0b 22
        E 0 91 49 22
        E 16 b1 0b 2a
        E 16 b1 0b 33
        E 16 b1 0b 3b
        E 16 b1 0b 44
        E 16 b1 0b 3b
        E 16 b1 0b 33
        E 16 b1 0b 2a
        E 16 b1 0b 22
        E 0 81 49 00
        E 0 91 51 22
        E 16 b1 0b 2a
        E 16 b1 0b 33
        E 16 b1 0b 3b
        E 16 b1 0b 44
        E 16 b1 0b 3b
        E 16 b1 0b 33
        E 16 b1 0b 2a
        E 16 b1 0b 22
        E 0 81 51 00
        E 0 91 4c 22
        E 16 b1 0b 2a
        E 16 b1 0b 33
        E 16 b1 0b 3b
        E 16 b1 0b 44
        E 16 b1 0b 3b
        E 16 b1 0b 33
        E 16 b1 0b 2a
        E 16 81 4c 00
        E 128 b1 0b 22
        E 0 91 49 22
        E 16 b1 0b 2a
        E 16 b1 0b 33
        E 16 b1 0b 3b
        E 16 b1 0b 44
        E 16 b1 0b 3b
        E 16 b1 0b 33
        E 16 b1 0b 2a
        E 16 81 49 00
        E 128 b1 0b 22
        E 0 91 4c 22
        E 16 b1 0b 2a
        E 16 b1 0b 33
        E 16 b1 0b 3b
        E 16 b1 0b 44
        E 16 b1 0b 3b
        E 16 b1 0b 33
        E 16 b1 0b 2a
        E 16 81 4c 00
        E 128 b1 0b 22
        E 0 91 49 22
        E 16 b1 0b 2a
        E 16 b1 0b 33
        E 16 b1 0b 3b
        E 16 b1 0b 44
        E 16 b1 0b 3b
        E 16 b1 0b 33
        E 16 b1 0b 2a
        E 16 b1 0b 22
        E 0 81 49 00
        E 0 91 38 22
        E 16 b1 0b 2a
        E 16 b1 0b 33
        E 16 b1 0b 3b
        E 16 b1 0b 44
        E 16 b1 0b 3b
        E 16 b1 0b 33
        E 16 b1 0b 2a
        E 16 b1 0b 22
        E 0 81 38 00
        E 0 91 39 22
        E 16 b1 0b 2a
        E 16 b1 0b 33
        E 16 b1 0b 3b
        E 16 b1 0b 44
        E 16 b1 0b 3b
        E 16 b1 0b 33
        E 16 b1 0b 2a
        E 16 b1 0b 22
        E 0 81 39 00
        E 0 91 3a 22
        E 16 b1 0b 2a
        E 16 b1 0b 33
        E 16 b1 0b 3b
        E 16 b1 0b 44
        E 16 b1 0b 3b
        E 16 b1 0b 33
        E 16 b1 0b 2a
        E 16 b1 0b 22
        E 0 81 3a 00
        E 0 91 3b 22
        E 16 b1 0b 2a
        E 16 b1 0b 33
        E 16 b1 0b 3b
        E 16 b1 0b 44
        E 16 b1 0b 3b
        E 16 b1 0b 33
        E 16 b1 0b 2a
        E 16 b1 0b 22
        E 0 81 3b 00
        E 0 91 3d 22
        E 16 b1 0b 2a
        E 16 b1 0b 33
        E 16 b1 0b 3b
        E 16 b1 0b 44
        E 16 b1 0b 3b
        E 16 b1 0b 33
        E 16 b1 0b 2a
        E 16 b1 0b 22
        E 0 81 3d 00
        E 0 91 3e 22
        E 16 b1 0b 2a
        E 16 b1 0b 33
        E 16 b1 0b 3b
        E 16 b1 0b 44
        E 16 b1 0b 3b
        E 16 b1 0b 33
        E 16 b1 0b 2a
        E 16 b1 0b 22
        E 0 81 3e 00
        E 0 91 3f 22
        E 16 b1 0b 2a
        E 16 b1 0b 33
        E 16 b1 0b 3b
        E 16 b1 0b 44
        E 16 b1 0b 3b
        E 16 b1 0b 33
        E 16 b1 0b 2a
        E 16 b1 0b 22
        E 0 81 3f 00
        E 0 91 40 22
        E 16 b1 0b 2a
        E 16 b1 0b 33
        E 16 b1 0b 3b
        E 16 b1 0b 44
        E 16 b1 0b 3b
        E 16 b1 0b 33
        E 16 b1 0b 2a
        E 16 b1 0b 22
        E 0 81 40 00
        E 0 91 44 22
        E 16 b1 0b 2a
        E 16 b1 0b 33
        E 16 b1 0b 3b
        E 16 b1 0b 22
        E 0 81 44 00
        E 0 91 45 22
        E 16 b1 0b 2a
        E 16 b1 0b 33
        E 16 b1 0b 3b
        E 16 b1 0b 22
        E 0 81 45 00
        E 0 91 46 22
        E 16 b1 0b 2a
        E 16 b1 0b 33
        E 16 b1 0b 3b
        E 16 b1 0b 22
        E 0 81 46 00
        E 0 91 47 22
        E 16 b1 0b 2a
        E 16 b1 0b 33
        E 16 b1 0b 3b
        E 16 b1 0b 22
        E 0 81 47 00
        E 0 91 48 22
        E 16 b1 0b 2a
        E 16 b1 0b 33
        E 16 b1 0b 3b
        E 16 b1 0b 22
        E 0 81 48 00
        E 0 91 49 22
        E 16 b1 0b 2a
        E 16 b1 0b 33
        E 16 b1 0b 3b
        E 16 b1 0b 22
        E 0 81 49 00
        E 0 91 4a 22
        E 16 b1 0b 2a
        E 16 b1 0b 33
        E 16 b1 0b 3b
        E 16 b1 0b 22
        E 0 81 4a 00
        E 0 91 4b 22
        E 16 b1 0b 2a
        E 16 b1 0b 33
        E 16 b1 0b 3b
        E 16 b1 0b 22
        E 0 81 4b 00
        E 0 91 4c 22
        E 16 b1 0b 2a
        E 16 b1 0b 33
        E 16 b1 0b 3b
        E 16 81 4c 00
        E 192 b1 0b 22
        E 0 91 38 22
        E 16 b1 0b 2a
        E 16 b1 0b 33
        E 16 b1 0b 3b
        E 16 b1 0b 44
        E 16 b1 0b 3b
        E 16 b1 0b 33
        E 16 b1 0b 2a
        E 16 b1 0b 22
        E 128 81 38 00
        E 0 91 3d 22
        E 16 b1 0b 2a
        E 16 b1 0b 33
        E 16 b1 0b 3b
        E 16 b1 0b 44
        E 16 b1 0b 3b
        E 16 b1 0b 33
        E 16 b1 0b 2a
        E 16 b1 0b 22
        E 0 81 3d 00
        E 0 91 3e 22
        E 16 b1 0b 2a
        E 16 b1 0b 33
        E 16 b1 0b 3b
        E 16 b1 0b 44
        E 16 b1 0b 3b
        E 16 b1 0b 33
        E 16 b1 0b 2a
        E 16 81 3e 00
        E 128 b1 0b 22
        E 0 91 40 22
        E 16 b1 0b 2a
        E 16 b1 0b 33
        E 16 b1 0b 3b
        E 16 b1 0b 44
        E 16 b1 0b 3b
        E 16 b1 0b 33
        E 16 b1 0b 2a
        E 16 81 40 00
        E 128 b1 0b 22
        E 0 91 47 22
        E 16 b1 0b 2a
        E 16 b1 0b 33
        E 16 b1 0b 3b
        E 16 b1 0b 22
        E 0 81 47 00
        E 0 91 40 22
        E 16 b1 0b 2a
        E 16 b1 0b 33
        E 16 b1 0b 3b
        E 16 b1 0b 22
        E 0 81 40 00
        E 0 91 47 22
        E 16 b1 0b 2a
        E 16 b1 0b 33
        E 16 b1 0b 3b
        E 16 b1 0b 22
        E 0 81 47 00
        E 0 91 40 22
        E 16 b1 0b 2a
        E 16 b1 0b 33
        E 16 b1 0b 3b
        E 16 b1 0b 22
        E 0 81 40 00
        E 0 91 47 22
        E 16 b1 0b 2a
        E 16 b1 0b 33
        E 16 b1 0b 3b
        E 16 b1 0b 22
        E 0 81 47 00
        E 0 91 40 22
        E 16 b1 0b 2a
        E 16 b1 0b 33
        E 16 b1 0b 3b
        E 16 b1 0b 22
        E 0 81 40 00
        E 0 91 45 22
        E 16 b1 0b 2a
        E 16 b1 0b 33
        E 16 b1 0b 3b
        E 16 b1 0b 22
        E 0 81 45 00
        E 0 91 3e 22
        E 16 b1 0b 2a
        E 16 b1 0b 33
        E 16 b1 0b 3b
        E 16 b1 0b 22
        E 0 81 3e 00
        E 0 91 45 22
        E 16 b1 0b 2a
        E 16 b1 0b 33
        E 16 b1 0b 3b
        E 16 b1 0b 22
        E 0 81 45 00
        E 0 91 3e 22
        E 16 b1 0b 2a
        E 16 b1 0b 33
        E 16 b1 0b 3b
        E 16 b1 0b 22
        E 0 81 3e 00
        E 0 91 45 22
        E 16 b1 0b 2a
        E 16 b1 0b 33
        E 16 b1 0b 3b
        E 16 b1 0b 22
        E 0 81 45 00
        E 0 91 3e 22
        E 16 b1 0b 2a
        E 16 b1 0b 33
        E 16 b1 0b 3b
        E 16 b1 0b 22
        E 0 81 3e 00
        E 0 91 45 22
        E 16 b1 0b 2a
        E 16 b1 0b 33
        E 16 b1 0b 3b
        E 16 b1 0b 22
        E 0 81 45 00
        E 0 91 3e 22
        E 16 b1 0b 2a
        E 16 b1 0b 33
        E 16 b1 0b 3b
        E 16 81 3e 00
        E 512 b1 0b 22
        E 0 91 39 22
        E 16 b1 0b 2a
        E 16 b1 0b 33
        E 16 b1 0b 3b
        E 16 b1 0b 22
        E 0 81 39 00
        E 0 91 32 22
        E 16 b1 0b 2a
        E 16 b1 0b 33
        E 16 b1 0b 3b
        E 16 b1 0b 22
        E 0 81 32 00
        E 0 91 39 22
        E 16 b1 0b 2a
        E 16 b1 0b 33
        E 16 b1 0b 3b
        E 16 b1 0b 22
        E 0 81 39 00
        E 0 91 32 22
        E 16 b1 0b 2a
        E 16 b1 0b 33
        E 16 b1 0b 3b
        E 16 b1 0b 22
        E 0 81 32 00
        E 0 91 42 22
        E 16 b1 0b 2a
        E 16 b1 0b 33
        E 16 b1 0b 3b
        E 16 b1 0b 44
        E 16 b1 0b 3b
        E 16 b1 0b 33
        E 16 b1 0b 2a
        E 16 b1 0b 22
        E 128 81 42 00
        E 0 91 40 22
        E 16 b1 0b 2a
        E 16 b1 0b 33
        E 16 b1 0b 3b
        E 16 b1 0b 44
        E 16 b1 0b 3b
        E 16 b1 0b 33
        E 16 b1 0b 2a
        E 16 b1 0b 22
        E 128 81 40 00
        E 0 91 3d 22
        E 16 b1 0b 2a
        E 16 b1 0b 33
        E 16 b1 0b 3b
        E 16 b1 0b 22
        E 0 81 3d 00
        E 0 91 39 22
        E 16 b1 0b 2a
        E 16 b1 0b 33
        E 16 b1 0b 3b
        E 16 b1 0b 22
        E 0 81 39 00
        E 0 91 3d 22
        E 16 b1 0b 2a
        E 16 b1 0b 33
        E 16 b1 0b 3b
        E 16 b1 0b 22
        E 0 81 3d 00
        E 0 91 39 22
        E 16 b1 0b 2a
        E 16 b1 0b 33
        E 16 b1 0b 3b
        E 16 b1 0b 22
        E 0 81 39 00
        E 0 91 3b 22
        E 16 b1 0b 2a
        E 16 b1 0b 33
        E 16 b1 0b 3b
        E 16 b1 0b 22
        E 0 81 3b 00
        E 0 91 37 22
        E 16 b1 0b 2a
        E 16 b1 0b 33
        E 16 b1 0b 3b
        E 16 b1 0b 22
        E 0 81 37 00
        E 0 91 3b 22
        E 16 b1 0b 2a
        E 16 b1 0b 33
        E 16 b1 0b 3b
        E 16 b1 0b 22
        E 0 81 3b 00
        E 0 91 37 22
        E 16 b1 0b 2a
        E 16 b1 0b 33
        E 16 b1 0b 3b
        E 16 b1 0b 22
        E 0 81 37 00
        E 0 91 3b 22
        E 16 b1 0b 2a
        E 16 b1 0b 33
        E 16 b1 0b 3b
        E 16 b1 0b 22
        E 0 81 3b 00
        E 0 91 37 22
        E 16 b1 0b 2a
        E 16 b1 0b 33
        E 16 b1 0b 3b
        E 16 b1 0b 22
        E 0 81 37 00
        E 0 91 3b 22
        E 16 b1 0b 2a
        E 16 b1 0b 33
        E 16 b1 0b 3b
        E 16 b1 0b 22
        E 0 81 3b 00
        E 0 91 37 22
        E 16 b1 0b 2a
        E 16 b1 0b 33
        E 16 b1 0b 3b
        E 16 81 37 00
        E 512 b1 0b 22
        E 0 91 3d 22
        E 16 b1 0b 2a
        E 16 b1 0b 33
        E 16 b1 0b 3b
        E 16 b1 0b 44
        E 16 b1 0b 3b
        E 16 b1 0b 33
        E 16 b1 0b 2a
        E 16 b1 0b 22
        E 0 81 3d 00
        E 0 91 3e 22
        E 16 b1 0b 2a
        E 16 b1 0b 33
        E 16 b1 0b 3b
        E 16 b1 0b 44
        E 16 b1 0b 3b
        E 16 b1 0b 33
        E 16 b1 0b 2a
        E 16 81 3e 00
        E 128 b1 0b 22
        E 0 91 40 22
        E 16 b1 0b 2a
        E 16 b1 0b 33
        E 16 b1 0b 3b
        E 16 b1 0b 44
        E 16 b1 0b 3b
        E 16 b1 0b 33
        E 16 b1 0b 2a
        E 16 81 40 00
        E 128 b1 0b 22
        E 0 91 47 22
        E 16 b1 0b 2a
        E 16 b1 0b 33
        E 16 b1 0b 3b
        E 16 b1 0b 22
        E 0 81 47 00
        E 0 91 40 22
        E 16 b1 0b 2a
        E 16 b1 0b 33
        E 16 b1 0b 3b
        E 16 b1 0b 22
        E 0 81 40 00
        E 0 91 47 22
        E 16 b1 0b 2a
        E 16 b1 0b 33
        E 16 b1 0b 3b
        E 16 b1 0b 22
        E 0 81 47 00
        E 0 91 40 22
        E 16 b1 0b 2a
        E 16 b1 0b 33
        E 16 b1 0b 3b
        E 16 b1 0b 22
        E 0 81 40 00
        E 0 91 47 22
        E 16 b1 0b 2a
        E 16 b1 0b 33
        E 16 b1 0b 3b
        E 16 b1 0b 22
        E 0 81 47 00
        E 0 91 40 22
        E 16 b1 0b 2a
        E 16 b1 0b 33
        E 16 b1 0b 3b
        E 16 b1 0b 22
        E 0 81 40 00
        E 0 91 45 22
        E 16 b1 0b 2a
        E 16 b1 0b 33
        E 16 b1 0b 3b
        E 16 b1 0b 22
        E 0 81 45 00
        E 0 91 3e 22
        E 16 b1 0b 2a
        E 16 b1 0b 33
        E 16 b1 0b 3b
        E 16 b1 0b 22
        E 0 81 3e 00
        E 0 91 45 22
        E 16 b1 0b 2a
        E 16 b1 0b 33
        E 16 b1 0b 3b
        E 16 b1 0b 22
        E 0 81 45 00
        E 0 91 3e 22
        E 16 b1 0b 2a
        E 16 b1 0b 33
        E 16 b1 0b 3b
        E 16 b1 0b 22
        E 0 81 3e 00
        E 0 91 45 22
        E 16 b1 0b 2a
        E 16 b1 0b 33
        E 16 b1 0b 3b
        E 16 b1 0b 22
        E 0 81 45 00
        E 0 91 3e 22
        E 16 b1 0b 2a
        E 16 b1 0b 33
        E 16 b1 0b 3b
        E 16 b1 0b 22
        E 0 81 3e 00
        E 0 91 45 22
        E 16 b1 0b 2a
        E 16 b1 0b 33
        E 16 b1 0b 3b
        E 16 b1 0b 22
        E 0 81 45 00
        E 0 91 3e 22
        E 16 b1 0b 2a
        E 16 b1 0b 33
        E 16 b1 0b 3b
        E 16 81 3e 00
        E 512 b1 0b 22
        E 0 91 39 22
        E 16 b1 0b 2a
        E 16 b1 0b 33
        E 16 b1 0b 3b
        E 16 b1 0b 22
        E 0 81 39 00
        E 0 91 32 22
        E 16 b1 0b 2a
        E 16 b1 0b 33
        E 16 b1 0b 3b
        E 16 b1 0b 22
        E 0 81 32 00
        E 0 91 39 22
        E 16 b1 0b 2a
        E 16 b1 0b 33
        E 16 b1 0b 3b
        E 16 b1 0b 22
        E 0 81 39 00
        E 0 91 32 22
        E 16 b1 0b 2a
        E 16 b1 0b 33
        E 16 b1 0b 3b
        E 16 b1 0b 22
        E 0 81 32 00
        E 0 91 42 22
        E 16 b1 0b 2a
        E 16 b1 0b 33
        E 16 b1 0b 3b
        E 16 b1 0b 44
        E 16 b1 0b 3b
        E 16 b1 0b 33
        E 16 b1 0b 2a
        E 16 b1 0b 22
        E 128 81 42 00
        E 0 91 40 22
        E 16 b1 0b 2a
        E 16 b1 0b 33
        E 16 b1 0b 3b
        E 16 b1 0b 44
        E 16 b1 0b 3b
        E 16 b1 0b 33
        E 16 b1 0b 2a
        E 16 b1 0b 22
        E 128 81 40 00
        E 0 91 3d 22
        E 16 b1 0b 2a
        E 16 b1 0b 33
        E 16 b1 0b 3b
        E 16 b1 0b 22
        E 0 81 3d 00
        E 0 91 39 22
        E 16 b1 0b 2a
        E 16 b1 0b 33
        E 16 b1 0b 3b
        E 16 b1 0b 22
        E 0 81 39 00
        E 0 91 3d 22
        E 16 b1 0b 2a
        E 16 b1 0b 33
        E 16 b1 0b 3b
        E 16 b1 0b 22
        E 0 81 3d 00
        E 0 91 39 22
        E 16 b1 0b 2a
        E 16 b1 0b 33
        E 16 b1 0b 3b
        E 16 b1 0b 22
        E 0 81 39 00
        E 0 91 3b 22
        E 16 b1 0b 2a
        E 16 b1 0b 33
        E 16 b1 0b 3b
        E 16 b1 0b 22
        E 0 81 3b 00
        E 0 91 37 22
        E 16 b1 0b 2a
        E 16 b1 0b 33
        E 16 b1 0b 3b
        E 16 b1 0b 22
        E 0 81 37 00
        E 0 91 3b 22
        E 16 b1 0b 2a
        E 16 b1 0b 33
        E 16 b1 0b 3b
        E 16 b1 0b 22
        E 0 81 3b 00
        E 0 91 37 22
        E 16 b1 0b 2a
        E 16 b1 0b 33
        E 16 b1 0b 3b
        E 16 b1 0b 22
        E 0 81 37 00
        E 0 91 3b 22
        E 16 b1 0b 2a
        E 16 b1 0b 33
        E 16 b1 0b 3b
        E 16 b1 0b 22
        E 0 81 3b 00
        E 0 91 37 22
        E 16 b1 0b 2a
        E 16 b1 0b 33
        E 16 b1 0b 3b
        E 16 b1 0b 22
        E 0 81 37 00
        E 0 91 3b 22
        E 16 b1 0b 2a
        E 16 b1 0b 33
        E 16 b1 0b 3b
        E 16 b1 0b 22
        E 0 81 3b 00
        E 0 91 37 22
        E 16 b1 0b 2a
        E 16 b1 0b 33
        E 16 b1 0b 3b
        E 16 81 37 00
        E 512 b1 0b 22
        E 0 91 42 22
        E 16 b1 0b 2a
        E 16 b1 0b 33
        E 16 b1 0b 3b
        E 16 b1 0b 44
        E 16 b1 0b 3b
        E 16 b1 0b 33
        E 16 b1 0b 2a
        E 16 b1 0b 22
        E 16 b1 0b 2a
        E 16 b1 0b 33
        E 16 b1 0b 3b
        E 16 b1 0b 44
        E 16 b1 0b 3b
        E 16 b1 0b 33
        E 16 b1 0b 2a
        E 16 b1 0b 22
        E 0 81 42 00
        E 0 91 40 22
        E 16 b1 0b 2a
        E 16 b1 0b 33
        E 16 b1 0b 3b
        E 16 b1 0b 44
        E 16 b1 0b 3b
        E 16 b1 0b 33
        E 16 b1 0b 2a
        E 16 b1 0b 22
        E 0 81 40 00
        E 0 91 42 22
        E 16 b1 0b 2a
        E 16 b1 0b 33
        E 16 b1 0b 3b
        E 16 b1 0b 44
        E 16 b1 0b 3b
        E 16 b1 0b 33
        E 16 b1 0b 2a
        E 16 81 42 00
        E 128 b1 0b 22
        E 0 91 44 22
        E 16 b1 0b 2a
        E 16 b1 0b 33
        E 16 b1 0b 3b
        E 16 b1 0b 44
        E 16 b1 0b 3b
        E 16 b1 0b 33
        E 16 b1 0b 2a
        E 16 81 44 00
        E 256 b1 0b 22
        E 0 91 45 22
        E 16 b1 0b 2a
        E 16 b1 0b 33
        E 16 b1 0b 3b
        E 16 b1 0b 44
        E 16 b1 0b 3b
        E 16 b1 0b 33
        E 16 b1 0b 2a
        E 16 81 45 00
        E 384 b1 0b 22
        E 0 91 40 22
        E 16 b1 0b 2a
        E 16 b1 0b 33
        E 16 b1 0b 3b
        E 16 b1 0b 44
        E 16 b1 0b 3b
        E 16 b1 0b 33
        E 16 b1 0b 2a
        E 16 81 40 00
        E 384 b1 0b 22
        E 0 91 42 22
        E 16 b1 0b 2a
        E 16 b1 0b 33
        E 16 b1 0b 3b
        E 16 b1 0b 22
        E 0 81 42 00
        E 0 91 32 22
        E 16 b1 0b 2a
        E 16 b1 0b 33
        E 16 b1 0b 3b
        E 16 b1 0b 22
        E 0 81 32 00
        E 0 91 42 22
        E 16 b1 0b 2a
        E 16 b1 0b 33
        E 16 b1 0b 3b
        E 16 b1 0b 22
        E 0 81 42 00
        E 0 91 32 22
        E 16 b1 0b 2a
        E 16 b1 0b 33
        E 16 b1 0b 3b
        E 16 b1 0b 22
        E 0 81 32 00
        E 0 91 42 22
        E 16 b1 0b 2a
        E 16 b1 0b 33
        E 16 b1 0b 3b
        E 16 b1 0b 22
        E 0 81 42 00
        E 0 91 32 22
        E 16 b1 0b 2a
        E 16 b1 0b 33
        E 16 b1 0b 3b
        E 16 b1 0b 22
        E 0 81 32 00
        E 0 91 45 22
        E 16 b1 0b 2a
        E 16 b1 0b 33
        E 16 b1 0b 3b
        E 16 b1 0b 22
        E 0 81 45 00
        E 0 91 42 22
        E 16 b1 0b 2a
        E 16 b1 0b 33
        E 16 b1 0b 3b
        E 16 b1 0b 22
        E 0 81 42 00
        E 0 91 45 22
        E 16 b1 0b 2a
        E 16 b1 0b 33
        E 16 b1 0b 3b
        E 16 b1 0b 22
        E 0 81 45 00
        E 0 91 42 22
        E 16 b1 0b 2a
        E 16 b1 0b 33
        E 16 b1 0b 3b
        E 16 b1 0b 22
        E 0 81 42 00
        E 0 91 45 22
        E 16 b1 0b 2a
        E 16 b1 0b 33
        E 16 b1 0b 3b
        E 16 b1 0b 22
        E 0 81 45 00
        E 0 91 42 22
        E 16 b1 0b 2a
        E 16 b1 0b 33
        E 16 b1 0b 3b
        E 16 b1 0b 22
        E 0 81 42 00
        E 0 91 4a 22
        E 16 b1 0b 2a
        E 16 b1 0b 33
        E 16 b1 0b 3b
        E 16 b1 0b 22
        E 0 81 4a 00
        E 0 91 45 22
        E 16 b1 0b 2a
        E 16 b1 0b 33
        E 16 b1 0b 3b
        E 16 b1 0b 22
        E 0 81 45 00
        E 0 91 4a 22
        E 16 b1 0b 2a
        E 16 b1 0b 33
        E 16 b1 0b 3b
        E 16 b1 0b 22
        E 0 81 4a 00
        E 0 91 45 22
        E 16 b1 0b 2a
        E 16 b1 0b 33
        E 16 b1 0b 3b
        E 16 b1 0b 22
        E 0 81 45 00
        E 0 91 49 22
        E 16 b1 0b 2a
        E 16 b1 0b 33
        E 16 b1 0b 3b
        E 16 b1 0b 22
        E 0 81 49 00
        E 0 91 45 22
        E 16 b1 0b 2a
        E 16 b1 0b 33
        E 16 b1 0b 3b
        E 16 b1 0b 22
        E 0 81 45 00
        E 0 91 49 22
        E 16 b1 0b 2a
        E 16 b1 0b 33
        E 16 b1 0b 3b
        E 16 b1 0b 22
        E 0 81 49 00
        E 0 91 45 22
        E 16 b1 0b 2a
        E 16 b1 0b 33
        E 16 b1 0b 3b
        E 16 b1 0b 22
        E 0 81 45 00
        E 0 91 49 22
        E 16 b1 0b 2a
        E 16 b1 0b 33
        E 16 b1 0b 3b
        E 16 b1 0b 22
        E 0 81 49 00
        E 0 91 45 22
        E 16 b1 0b 2a
        E 16 b1 0b 33
        E 16 b1 0b 3b
        E 16 b1 0b 22
        E 0 81 45 00
        E 0 91 49 22
        E 16 b1 0b 2a
        E 16 b1 0b 33
        E 16 b1 0b 3b
        E 16 b1 0b 22
        E 0 81 49 00
        E 0 91 45 22
        E 16 b1 0b 2a
        E 16 b1 0b 33
        E 16 b1 0b 3b
        E 16 b1 0b 22
        E 0 81 45 00
        E 0 91 40 22
        E 16 b1 0b 2a
        E 16 b1 0b 33
        E 16 b1 0b 3b
        E 16 b1 0b 22
        E 0 81 40 00
        E 0 91 3d 22
        E 16 b1 0b 2a
        E 16 b1 0b 33
        E 16 b1 0b 3b
        E 16 b1 0b 22
        E 0 81 3d 00
        E 0 91 40 22
        E 16 b1 0b 2a
        E 16 b1 0b 33
        E 16 b1 0b 3b
        E 16 b1 0b 22
        E 0 81 40 00
        E 0 91 3d 22
        E 16 b1 0b 2a
        E 16 b1 0b 33
        E 16 b1 0b 3b
        E 16 b1 0b 22
        E 0 81 3d 00
        E 0 91 40 22
        E 16 b1 0b 2a
        E 16 b1 0b 33
        E 16 b1 0b 3b
        E 16 b1 0b 22
        E 0 81 40 00
        E 0 91 3d 22
        E 16 b1 0b 2a
        E 16 b1 0b 33
        E 16 b1 0b 3b
        E 16 b1 0b 22
        E 0 81 3d 00
        E 0 91 40 22
        E 16 b1 0b 2a
        E 16 b1 0b 33
        E 16 b1 0b 3b
        E 16 b1 0b 22
        E 0 81 40 00
        E 0 91 3d 22
        E 16 b1 0b 2a
        E 16 b1 0b 33
        E 16 b1 0b 3b
        E 16 b1 0b 22
        E 0 81 3d 00
        E 0 91 42 22
        E 16 b1 0b 2a
        E 16 b1 0b 33
        E 16 b1 0b 3b
        E 16 b1 0b 44
        E 16 b1 0b 3b
        E 16 b1 0b 33
        E 16 b1 0b 2a
        E 16 b1 0b 22
        E 16 b1 0b 2a
        E 16 b1 0b 33
        E 16 b1 0b 3b
        E 16 b1 0b 44
        E 16 b1 0b 3b
        E 16 b1 0b 33
        E 16 b1 0b 2a
        E 16 b1 0b 22
        E 0 81 42 00
        E 0 91 40 22
        E 16 b1 0b 2a
        E 16 b1 0b 33
        E 16 b1 0b 3b
        E 16 b1 0b 44
        E 16 b1 0b 3b
        E 16 b1 0b 33
        E 16 b1 0b 2a
        E 16 b1 0b 22
        E 0 81 40 00
        E 0 91 42 22
        E 16 b1 0b 2a
        E 16 b1 0b 33
        E 16 b1 0b 3b
        E 16 b1 0b 44
        E 16 b1 0b 3b
        E 16 b1 0b 33
        E 16 b1 0b 2a
        E 16 81 42 00
        E 128 b1 0b 22
        E 0 91 44 22
        E 16 b1 0b 2a
        E 16 b1 0b 33
        E 16 b1 0b 3b
        E 16 b1 0b 44
        E 16 b1 0b 3b
        E 16 b1 0b 33
        E 16 b1 0b 2a
        E 16 81 44 00
        E 256 b1 0b 22
        E 0 91 45 22
        E 16 b1 0b 2a
        E 16 b1 0b 33
        E 16 b1 0b 3b
        E 16 b1 0b 44
        E 16 b1 0b 3b
        E 16 b1 0b 33
        E 16 b1 0b 2a
        E 16 81 45 00
        E 384 b1 0b 22
        E 0 91 49 22
        E 16 b1 0b 2a
        E 16 b1 0b 33
        E 16 b1 0b 3b
        E 16 b1 0b 44
        E 16 b1 0b 3b
        E 16 b1 0b 33
        E 16 b1 0b 2a
        E 16 b1 0b 22
        E 384 81 49 00
        E 0 91 45 22
        E 16 b1 0b 2a
        E 16 b1 0b 33
        E 16 b1 0b 3b
        E 16 b1 0b 44
        E 16 b1 0b 3b
        E 16 b1 0b 33
        E 16 b1 0b 2a
        E 16 b1 0b 22
        E 640 81 45 00
        E 256 91 40 22
        E 16 b1 0b 2a
        E 16 b1 0b 33
        E 16 b1 0b 3b
        E 16 b1 0b 44
        E 16 b1 0b 3b
        E 16 b1 0b 33
        E 16 b1 0b 2a
        E 16 b1 0b 22
        E 896 81 40 00
        E 0 91 45 22
        E 16 b1 0b 2a
        E 16 b1 0b 33
        E 16 b1 0b 3b
        E 16 b1 0b 44
        E 16 b1 0b 3b
        E 16 b1 0b 33
        E 16 b1 0b 2a
        E 16 b1 0b 22
        E 16 b1 0b 2a
        E 16 b1 0b 33
        E 16 b1 0b 3b
        E 16 b1 0b 44
        E 16 b1 0b 3b
        E 16 b1 0b 33
        E 16 b1 0b 2a
        E 16 b1 0b 22
        E 16 b1 0b 2a
        E 16 b1 0b 33
        E 16 b1 0b 3b
        E 16 b1 0b 44
        E 16 b1 0b 3b
        E 16 b1 0b 33
        E 16 b1 0b 2a
        E 16 b1 0b 22
        E 16 b1 0b 2a
        E 16 b1 0b 33
        E 16 b1 0b 3b
        E 16 b1 0b 44
        E 16 b1 0b 3b
        E 16 b1 0b 33
        E 16 b1 0b 2a
        E 16 81 45 00
        E 128 b1 0b 22
        E 0 91 45 22
        E 16 b1 0b 2a
        E 16 b1 0b 33
        E 16 b1 0b 3b
        E 16 b1 0b 44
        E 16 b1 0b 3b
        E 16 b1 0b 33
        E 16 b1 0b 2a
        E 16 81 45 00
        E 128 b1 0b 22
        E 0 91 45 22
        E 16 b1 0b 2a
        E 16 b1 0b 33
        E 16 b1 0b 3b
        E 16 b1 0b 44
        E 16 b1 0b 3b
        E 16 b1 0b 33
        E 16 b1 0b 2a
        E 16 b1 0b 22
        E 16 b1 0b 2a
        E 16 b1 0b 33
        E 16 b1 0b 3b
        E 16 b1 0b 44
        E 16 b1 0b 3b
        E 16 b1 0b 33
        E 16 b1 0b 2a
        E 16 81 45 00
        E 912 b1 0b 22
        E 0 91 51 22
        E 16 b1 0b 2a
        E 16 b1 0b 33
        E 16 b1 0b 3b
        E 16 b1 0b 44
        E 16 b1 0b 3b
        E 16 b1 0b 33
        E 16 b1 0b 2a
        E 16 b1 0b 22
        E 0 81 51 00
        E 0 91 4c 22
        E 16 b1 0b 2a
        E 16 b1 0b 33
        E 16 b1 0b 3b
        E 16 b1 0b 44
        E 16 b1 0b 3b
        E 16 b1 0b 33
        E 16 b1 0b 2a
        E 16 81 4c 00
        E 128 b1 0b 22
        E 0 91 49 22
        E 16 b1 0b 2a
        E 16 b1 0b 33
        E 16 b1 0b 3b
        E 16 b1 0b 44
        E 16 b1 0b 3b
        E 16 b1 0b 33
        E 16 b1 0b 2a
        E 16 81 49 00
        E 128 b1 0b 22
        E 0 91 4c 22
        E 16 b1 0b 2a
        E 16 b1 0b 33
        E 16 b1 0b 3b
        E 16 b1 0b 44
        E 16 b1 0b 3b
        E 16 b1 0b 33
        E 16 b1 0b 2a
        E 16 81 4c 00
        E 128 b1 0b 22
        E 0 91 49 22
        E 16 b1 0b 2a
        E 16 b1 0b 33
        E 16 b1 0b 3b
        E 16 b1 0b 44
        E 16 b1 0b 3b
        E 16 b1 0b 33
        E 16 b1 0b 2a
        E 16 b1 0b 22
        E 0 81 49 00
        E 0 91 51 22
        E 16 b1 0b 2a
        E 16 b1 0b 33
        E 16 b1 0b 3b
        E 16 b1 0b 44
        E 16 b1 0b 3b
        E 16 b1 0b 33
        E 16 b1 0b 2a
        E 16 b1 0b 22
        E 0 81 51 00
        E 0 91 4c 22
        E 16 b1 0b 2a
        E 16 b1 0b 33
        E 16 b1 0b 3b
        E 16 b1 0b 44
        E 16 b1 0b 3b
        E 16 b1 0b 33
        E 16 b1 0b 2a
        E 16 81 4c 00
        E 128 b1 0b 22
        E 0 91 49 22
        E 16 b1 0b 2a
        E 16 b1 0b 33
        E 16 b1 0b 3b
        E 16 b1 0b 44
        E 16 b1 0b 3b
        E 16 b1 0b 33
        E 16 b1 0b 2a
        E 16 81 49 00
        E 128 b1 0b 22
        E 0 91 4c 22
        E 16 b1 0b 2a
        E 16 b1 0b 33
        E 16 b1 0b 3b
        E 16 b1 0b 44
        E 16 b1 0b 3b
        E 16 b1 0b 33
        E 16 b1 0b 2a
        E 16 81 4c 00
        E 128 b1 0b 22
        E 0 91 49 22
        E 16 b1 0b 2a
        E 16 b1 0b 33
        E 16 b1 0b 3b
        E 16 b1 0b 44
        E 16 b1 0b 3b
        E 16 b1 0b 33
        E 16 b1 0b 2a
        E 16 b1 0b 22
        E 0 81 49 00
        E 0 91 38 22
        E 16 b1 0b 2a
        E 16 b1 0b 33
        E 16 b1 0b 3b
        E 16 b1 0b 44
        E 16 b1 0b 3b
        E 16 b1 0b 33
        E 16 b1 0b 2a
        E 16 b1 0b 22
        E 0 81 38 00
        E 0 91 39 22
        E 16 b1 0b 2a
        E 16 b1 0b 33
        E 16 b1 0b 3b
        E 16 b1 0b 44
        E 16 b1 0b 3b
        E 16 b1 0b 33
        E 16 b1 0b 2a
        E 16 b1 0b 22
        E 0 81 39 00
        E 0 91 3a 22
        E 16 b1 0b 2a
        E 16 b1 0b 33
        E 16 b1 0b 3b
        E 16 b1 0b 44
        E 16 b1 0b 3b
        E 16 b1 0b 33
        E 16 b1 0b 2a
        E 16 b1 0b 22
        E 0 81 3a 00
        E 0 91 3b 22
        E 16 b1 0b 2a
        E 16 b1 0b 33
        E 16 b1 0b 3b
        E 16 b1 0b 44
        E 16 b1 0b 3b
        E 16 b1 0b 33
        E 16 b1 0b 2a
        E 16 b1 0b 22
        E 0 81 3b 00
        E 0 91 3d 22
        E 16 b1 0b 2a
        E 16 b1 0b 33
        E 16 b1 0b 3b
        E 16 b1 0b 44
        E 16 b1 0b 3b
        E 16 b1 0b 33
        E 16 b1 0b 2a
        E 16 b1 0b 22
        E 0 81 3d 00
        E 0 91 3e 22
        E 16 b1 0b 2a
        E 16 b1 0b 33
        E 16 b1 0b 3b
        E 16 b1 0b 44
        E 16 b1 0b 3b
        E 16 b1 0b 33
        E 16 b1 0b 2a
        E 16 b1 0b 22
        E 0 81 3e 00
        E 0 91 3f 22
        E 16 b1 0b 2a
        E 16 b1 0b 33
        E 16 b1 0b 3b
        E 16 b1 0b 44
        E 16 b1 0b 3b
        E 16 b1 0b 33
        E 16 b1 0b 2a
        E 16 b1 0b 22
        E 0 81 3f 00
        E 0 91 40 22
        E 16 b1 0b 2a
        E 16 b1 0b 33
        E 16 b1 0b 3b
        E 16 b1 0b 44
        E 16 b1 0b 3b
        E 16 b1 0b 33
        E 16 b1 0b 2a
        E 16 b1 0b 22
        E 0 81 40 00
        E 0 91 44 22
        E 16 b1 0b 2a
        E 16 b1 0b 33
        E 16 b1 0b 3b
        E 16 b1 0b 22
        E 0 81 44 00
        E 0 91 45 22
        E 16 b1 0b 2a
        E 16 b1 0b 33
        E 16 b1 0b 3b
        E 16 b1 0b 22
        E 0 81 45 00
        E 0 91 46 22
        E 16 b1 0b 2a
        E 16 b1 0b 33
        E 16 b1 0b 3b
        E 16 b1 0b 22
        E 0 81 46 00
        E 0 91 47 22
        E 16 b1 0b 2a
        E 16 b1 0b 33
        E 16 b1 0b 3b
        E 16 b1 0b 22
        E 0 81 47 00
        E 0 91 48 22
        E 16 b1 0b 2a
        E 16 b1 0b 33
        E 16 b1 0b 3b
        E 16 b1 0b 22
        E 0 81 48 00
        E 0 91 49 22
        E 16 b1 0b 2a
        E 16 b1 0b 33
        E 16 b1 0b 3b
        E 16 b1 0b 22
        E 0 81 49 00
        E 0 91 4a 22
        E 16 b1 0b 2a
        E 16 b1 0b 33
        E 16 b1 0b 3b
        E 16 b1 0b 22
        E 0 81 4a 00
        E 0 91 4b 22
        E 16 b1 0b 2a
        E 16 b1 0b 33
        E 16 b1 0b 3b
        E 16 b1 0b 22
        E 0 81 4b 00
        E 0 91 4c 22
        E 16 b1 0b 2a
        E 16 b1 0b 33
        E 16 b1 0b 3b
        E 16 81 4c 00
        E 192 b1 0b 22
        E 0 91 38 22
        E 16 b1 0b 2a
        E 16 b1 0b 33
        E 16 b1 0b 3b
        E 16 b1 0b 44
        E 16 b1 0b 3b
        E 16 b1 0b 33
        E 16 b1 0b 2a
        E 16 b1 0b 22
        E 128 81 38 00
        E 0 91 3d 22
        E 16 b1 0b 2a
        E 16 b1 0b 33
        E 16 b1 0b 3b
        E 16 b1 0b 44
        E 16 b1 0b 3b
        E 16 b1 0b 33
        E 16 b1 0b 2a
        E 16 b1 0b 22
        E 0 81 3d 00
        E 0 91 3e 22
        E 16 b1 0b 2a
        E 16 b1 0b 33
        E 16 b1 0b 3b
        E 16 b1 0b 44
        E 16 b1 0b 3b
        E 16 b1 0b 33
        E 16 b1 0b 2a
        E 16 81 3e 00
        E 128 b1 0b 22
        E 0 91 40 22
        E 16 b1 0b 2a
        E 16 b1 0b 33
        E 16 b1 0b 3b
        E 16 b1 0b 44
        E 16 b1 0b 3b
        E 16 b1 0b 33
        E 16 b1 0b 2a
        E 16 81 40 00
        E 128 b1 0b 22
        E 0 91 47 22
        E 16 b1 0b 2a
        E 16 b1 0b 33
        E 16 b1 0b 3b
        E 16 b1 0b 22
        E 0 81 47 00
        E 0 91 40 22
        E 16 b1 0b 2a
        E 16 b1 0b 33
        E 16 b1 0b 3b
        E 16 b1 0b 22
        E 0 81 40 00
        E 0 91 47 22
        E 16 b1 0b 2a
        E 16 b1 0b 33
        E 16 b1 0b 3b
        E 16 b1 0b 22
        E 0 81 47 00
        E 0 91 40 22
        E 16 b1 0b 2a
        E 16 b1 0b 33
        E 16 b1 0b 3b
        E 16 b1 0b 22
        E 0 81 40 00
        E 0 91 47 22
        E 16 b1 0b 2a
        E 16 b1 0b 33
        E 16 b1 0b 3b
        E 16 b1 0b 22
        E 0 81 47 00
        E 0 91 40 22
        E 16 b1 0b 2a
        E 16 b1 0b 33
        E 16 b1 0b 3b
        E 16 b1 0b 22
        E 0 81 40 00
        E 0 91 45 22
        E 16 b1 0b 2a
        E 16 b1 0b 33
        E 16 b1 0b 3b
        E 16 b1 0b 22
        E 0 81 45 00
        E 0 91 3e 22
        E 16 b1 0b 2a
        E 16 b1 0b 33
        E 16 b1 0b 3b
        E 16 b1 0b 22
        E 0 81 3e 00
        E 0 91 45 22
        E 16 b1 0b 2a
        E 16 b1 0b 33
        E 16 b1 0b 3b
        E 16 b1 0b 22
        E 0 81 45 00
        E 0 91 3e 22
        E 16 b1 0b 2a
        E 16 b1 0b 33
        E 16 b1 0b 3b
        E 16 b1 0b 22
        E 0 81 3e 00
        E 0 91 45 22
        E 16 b1 0b 2a
        E 16 b1 0b 33
        E 16 b1 0b 3b
        E 16 b1 0b 22
        E 0 81 45 00
        E 0 91 3e 22
        E 16 b1 0b 2a
        E 16 b1 0b 33
        E 16 b1 0b 3b
        E 16 b1 0b 22
        E 0 81 3e 00
        E 0 91 45 22
        E 16 b1 0b 2a
        E 16 b1 0b 33
        E 16 b1 0b 3b
        E 16 b1 0b 22
        E 0 81 45 00
        E 0 91 3e 22
        E 16 b1 0b 2a
        E 16 b1 0b 33
        E 16 b1 0b 3b
        E 16 81 3e 00
        E 512 b1 0b 22
        E 0 91 39 22
        E 16 b1 0b 2a
        E 16 b1 0b 33
        E 16 b1 0b 3b
        E 16 b1 0b 22
        E 0 81 39 00
        E 0 91 32 22
        E 16 b1 0b 2a
        E 16 b1 0b 33
        E 16 b1 0b 3b
        E 16 b1 0b 22
        E 0 81 32 00
        E 0 91 39 22
        E 16 b1 0b 2a
        E 16 b1 0b 33
        E 16 b1 0b 3b
        E 16 b1 0b 22
        E 0 81 39 00
        E 0 91 32 22
        E 16 b1 0b 2a
        E 16 b1 0b 33
        E 16 b1 0b 3b
        E 16 b1 0b 22
        E 0 81 32 00
        E 0 91 42 22
        E 16 b1 0b 2a
        E 16 b1 0b 33
        E 16 b1 0b 3b
        E 16 b1 0b 44
        E 16 b1 0b 3b
        E 16 b1 0b 33
        E 16 b1 0b 2a
        E 16 b1 0b 22
        E 128 81 42 00
        E 0 91 40 22
        E 16 b1 0b 2a
        E 16 b1 0b 33
        E 16 b1 0b 3b
        E 16 b1 0b 44
        E 16 b1 0b 3b
        E 16 b1 0b 33
        E 16 b1 0b 2a
        E 16 b1 0b 22
        E 128 81 40 00
        E 0 91 3d 22
        E 16 b1 0b 2a
        E 16 b1 0b 33
        E 16 b1 0b 3b
        E 16 b1 0b 22
        E 0 81 3d 00
        E 0 91 39 22
        E 16 b1 0b 2a
        E 16 b1 0b 33
        E 16 b1 0b 3b
        E 16 b1 0b 22
        E 0 81 39 00
        E 0 91 3d 22
        E 16 b1 0b 2a
        E 16 b1 0b 33
        E 16 b1 0b 3b
        E 16 b1 0b 22
        E 0 81 3d 00
        E 0 91 39 22
        E 16 b1 0b 2a
        E 16 b1 0b 33
        E 16 b1 0b 3b
        E 16 b1 0b 22
        E 0 81 39 00
        E 0 91 3b 22
        E 16 b1 0b 2a
        E 16 b1 0b 33
        E 16 b1 0b 3b
        E 16 b1 0b 22
        E 0 81 3b 00
        E 0 91 37 22
        E 16 b1 0b 2a
        E 16 b1 0b 33
        E 16 b1 0b 3b
        E 16 b1 0b 22
        E 0 81 37 00
        E 0 91 3b 22
        E 16 b1 0b 2a
        E 16 b1 0b 33
        E 16 b1 0b 3b
        E 16 b1 0b 22
        E 0 81 3b 00
        E 0 91 37 22
        E 16 b1 0b 2a
        E 16 b1 0b 33
        E 16 b1 0b 3b
        E 16 b1 0b 22
        E 0 81 37 00
        E 0 91 3b 22
        E 16 b1 0b 2a
        E 16 b1 0b 33
        E 16 b1 0b 3b
        E 16 b1 0b 22
        E 0 81 3b 00
        E 0 91 37 22
        E 16 b1 0b 2a
        E 16 b1 0b 33
        E 16 b1 0b 3b
        E 16 b1 0b 22
        E 0 81 37 00
        E 0 91 3b 22
        E 16 b1 0b 2a
        E 16 b1 0b 33
        E 16 b1 0b 3b
        E 16 b1 0b 22
        E 0 81 3b 00
        E 0 91 37 22
        E 16 b1 0b 2a
        E 16 b1 0b 33
        E 16 b1 0b 3b
        E 16 81 37 00
        E 512 b1 0b 22
        E 0 91 3d 22
        E 16 b1 0b 2a
        E 16 b1 0b 33
        E 16 b1 0b 3b
        E 16 b1 0b 44
        E 16 b1 0b 3b
        E 16 b1 0b 33
        E 16 b1 0b 2a
        E 16 b1 0b 22
        E 0 81 3d 00
        E 0 91 3e 22
        E 16 b1 0b 2a
        E 16 b1 0b 33
        E 16 b1 0b 3b
        E 16 b1 0b 44
        E 16 b1 0b 3b
        E 16 b1 0b 33
        E 16 b1 0b 2a
        E 16 81 3e 00
        E 128 b1 0b 22
        E 0 91 40 22
        E 16 b1 0b 2a
        E 16 b1 0b 33
        E 16 b1 0b 3b
        E 16 b1 0b 44
        E 16 b1 0b 3b
        E 16 b1 0b 33
        E 16 b1 0b 2a
        E 16 81 40 00
        E 128 b1 0b 22
        E 0 91 47 22
        E 16 b1 0b 2a
        E 16 b1 0b 33
        E 16 b1 0b 3b
        E 16 b1 0b 22
        E 0 81 47 00
        E 0 91 40 22
        E 16 b1 0b 2a
        E 16 b1 0b 33
        E 16 b1 0b 3b
        E 16 b1 0b 22
        E 0 81 40 00
        E 0 91 47 22
        E 16 b1 0b 2a
        E 16 b1 0b 33
        E 16 b1 0b 3b
        E 16 b1 0b 22
        E 0 81 47 00
        E 0 91 40 22
        E 16 b1 0b 2a
        E 16 b1 0b 33
        E 16 b1 0b 3b
        E 16 b1 0b 22
        E 0 81 40 00
        E 0 91 47 22
        E 16 b1 0b 2a
        E 16 b1 0b 33
        E 16 b1 0b 3b
        E 16 b1 0b 22
        E 0 81 47 00
        E 0 91 40 22
        E 16 81 40 00
        E 0 b1 7b 00
        E 0 ff 2f 00
      >
    >
  >
  <TRACK {03885C48-6B25-457D-912F-78ED731047CD}
    NAME "NES - Triangle [ch2]"
    PEAKCOL 16744192
    BEAT -1
    AUTOMODE 0
    PANLAWFLAGS 3
    VOLPAN 1 0 -1 -1 1
    MUTESOLO 0 0 0
    IPHASE 0
    PLAYOFFS 0 1
    ISBUS 0 0
    BUSCOMP 0 0 0 0 0
    SHOWINMIX 1 0.6667 0.5 1 0.5 0 0 0
    FIXEDLANES 9 0 0 0 0
    SEL 0
    REC 0 5088 1 0 0 0 0 0
    VU 2
    TRACKHEIGHT 0 0 0 0 0 0 0
    INQ 0 0 0 0.5 100 0 0 100
    NCHAN 2
    FX 1
    TRACKID {03885C48-6B25-457D-912F-78ED731047CD}
    PERF 0
    MIDIOUT -1
    MAINSEND 1 0
    <FXCHAIN
      WNDRECT 24 52 700 560
      SHOW 0
      LASTSEL 0
      DOCKED 0
      BYPASS 0 0 0
      <JS "ReapNES Studio/ReapNES_Console.jsfx" ""
        2 15 1 10 80 10 100 2 1 15 1 5 60 10 80 1 1 0 50 0 0 15 1 0 100 0 0 0.500000 0.500000 0.400000 0.300000 0.800000 2 1 0 0 0 0 - - - - - - - - - - - - - - - - - - - - - - - - - -
      >
      FLOATPOS 0 0 0 0
      FXID {F0D1C6BA-84C7-4C5C-A9A0-8AD73A1CAC06}
      WAK 0 0
    >
    <ITEM
      POSITION 0
      LENGTH 74.65008
      LOOP 0
      ALLTAKES 0
      FADEIN 0 0 0 0 0 0 0
      FADEOUT 0 0 0 0 0 0 0
      MUTE 0 0
      SEL 0
      IGUID {DB068EEC-77BE-4AA1-AFE4-694DA6E610A9}
      <SOURCE MIDI
        HASDATA 1 480 QN
        CCINTERP 32
        E 0 c2 26
        E 0 b2 0b 7f
        E 0 92 21 7f
        E 1024 82 21 00
        E 0 b2 0b 7f
        E 0 92 1f 7f
        E 1024 82 1f 00
        E 0 b2 0b 7f
        E 0 92 40 7f
        E 128 82 40 00
        E 0 b2 0b 7f
        E 0 92 42 7f
        E 128 82 42 00
        E 0 b2 0b 7f
        E 0 92 43 7f
        E 128 82 43 00
        E 0 b2 0b 7f
        E 0 92 44 7f
        E 128 82 44 00
        E 0 b2 0b 7f
        E 0 92 45 7f
        E 128 82 45 00
        E 0 b2 0b 7f
        E 0 92 47 7f
        E 128 82 47 00
        E 0 b2 0b 7f
        E 0 92 48 7f
        E 128 82 48 00
        E 0 b2 0b 7f
        E 0 92 49 7f
        E 128 82 49 00
        E 0 b2 0b 7f
        E 0 92 40 7f
        E 64 82 40 00
        E 0 b2 0b 7f
        E 0 92 42 7f
        E 64 82 42 00
        E 0 b2 0b 7f
        E 0 92 43 7f
        E 64 82 43 00
        E 0 b2 0b 7f
        E 0 92 40 7f
        E 64 82 40 00
        E 0 b2 0b 7f
        E 0 92 45 7f
        E 64 82 45 00
        E 0 b2 0b 7f
        E 0 92 46 7f
        E 64 82 46 00
        E 0 b2 0b 7f
        E 0 92 47 7f
        E 64 82 47 00
        E 0 b2 0b 7f
        E 0 92 48 7f
        E 64 82 48 00
        E 0 b2 0b 7f
        E 0 92 4c 7f
        E 64 82 4c 00
        E 192 b2 0b 7f
        E 0 92 1c 7f
        E 256 82 1c 00
        E 0 b2 0b 7f
        E 0 92 21 7f
        E 256 82 21 00
        E 0 b2 0b 7f
        E 0 92 3d 7f
        E 256 82 3d 00
        E 0 b2 0b 7f
        E 0 92 19 7f
        E 256 82 19 00
        E 0 b2 0b 7f
        E 0 92 39 7f
        E 256 82 39 00
        E 0 b2 0b 7f
        E 0 92 17 7f
        E 256 82 17 00
        E 0 b2 0b 7f
        E 0 92 3e 7f
        E 256 82 3e 00
        E 0 b2 0b 7f
        E 0 92 1c 7f
        E 256 82 1c 00
        E 0 b2 0b 7f
        E 0 92 3e 7f
        E 256 82 3e 00
        E 0 b2 0b 7f
        E 0 92 1a 7f
        E 256 82 1a 00
        E 0 b2 0b 7f
        E 0 92 3e 7f
        E 256 82 3e 00
        E 0 b2 0b 7f
        E 0 92 19 7f
        E 256 82 19 00
        E 0 b2 0b 7f
        E 0 92 40 7f
        E 256 82 40 00
        E 0 b2 0b 7f
        E 0 92 1f 7f
        E 256 82 1f 00
        E 0 b2 0b 7f
        E 0 92 3b 7f
        E 256 82 3b 00
        E 0 b2 0b 7f
        E 0 92 1c 7f
        E 256 82 1c 00
        E 0 b2 0b 7f
        E 0 92 38 7f
        E 256 82 38 00
        E 0 b2 0b 7f
        E 0 92 21 7f
        E 256 82 21 00
        E 0 b2 0b 7f
        E 0 92 3d 7f
        E 256 82 3d 00
        E 0 b2 0b 7f
        E 0 92 19 7f
        E 256 82 19 00
        E 0 b2 0b 7f
        E 0 92 39 7f
        E 256 82 39 00
        E 0 b2 0b 7f
        E 0 92 17 7f
        E 256 82 17 00
        E 0 b2 0b 7f
        E 0 92 3e 7f
        E 256 82 3e 00
        E 0 b2 0b 7f
        E 0 92 1c 7f
        E 256 82 1c 00
        E 0 b2 0b 7f
        E 0 92 3e 7f
        E 256 82 3e 00
        E 0 b2 0b 7f
        E 0 92 1a 7f
        E 256 82 1a 00
        E 0 b2 0b 7f
        E 0 92 3e 7f
        E 256 82 3e 00
        E 0 b2 0b 7f
        E 0 92 19 7f
        E 256 82 19 00
        E 0 b2 0b 7f
        E 0 92 40 7f
        E 256 82 40 00
        E 0 b2 0b 7f
        E 0 92 1f 7f
        E 256 82 1f 00
        E 0 b2 0b 7f
        E 0 92 3b 7f
        E 256 82 3b 00
        E 0 b2 0b 7f
        E 0 92 1c 7f
        E 256 82 1c 00
        E 0 b2 0b 7f
        E 0 92 38 7f
        E 256 82 38 00
        E 0 b2 0b 7f
        E 0 92 1a 7f
        E 256 82 1a 00
        E 0 b2 0b 7f
        E 0 92 19 7f
        E 128 82 19 00
        E 0 b2 0b 7f
        E 0 92 1a 7f
        E 128 82 1a 00
        E 128 b2 0b 7f
        E 0 92 1c 7f
        E 128 82 1c 00
        E 256 b2 0b 7f
        E 0 92 1e 7f
        E 128 82 1e 00
        E 384 b2 0b 7f
        E 0 92 19 7f
        E 128 82 19 00
        E 384 b2 0b 7f
        E 0 92 1a 7f
        E 256 82 1a 00
        E 0 b2 0b 7f
        E 0 92 39 7f
        E 256 82 39 00
        E 0 b2 0b 7f
        E 0 92 1a 7f
        E 256 82 1a 00
        E 0 b2 0b 7f
        E 0 92 39 7f
        E 256 82 39 00
        E 0 b2 0b 7f
        E 0 92 21 7f
        E 256 82 21 00
        E 0 b2 0b 7f
        E 0 92 34 7f
        E 256 82 34 00
        E 0 b2 0b 7f
        E 0 92 21 7f
        E 256 82 21 00
        E 0 b2 0b 7f
        E 0 92 34 7f
        E 256 82 34 00
        E 0 b2 0b 7f
        E 0 92 1a 7f
        E 256 82 1a 00
        E 0 b2 0b 7f
        E 0 92 19 7f
        E 128 82 19 00
        E 0 b2 0b 7f
        E 0 92 1a 7f
        E 128 82 1a 00
        E 128 b2 0b 7f
        E 0 92 1c 7f
        E 128 82 1c 00
        E 256 b2 0b 7f
        E 0 92 1e 7f
        E 128 82 1e 00
        E 384 b2 0b 7f
        E 0 92 1f 7f
        E 512 82 1f 00
        E 0 b2 0b 7f
        E 0 92 1a 7f
        E 256 82 1a 00
        E 0 b2 0b 7f
        E 0 92 26 7f
        E 256 82 26 00
        E 0 b2 0b 7f
        E 0 92 1a 7f
        E 256 82 1a 00
        E 0 b2 0b 7f
        E 0 92 26 7f
        E 256 82 26 00
        E 0 b2 0b 7f
        E 0 92 19 7f
        E 256 82 19 00
        E 0 b2 0b 7f
        E 0 92 25 7f
        E 256 82 25 00
        E 0 b2 0b 7f
        E 0 92 19 7f
        E 256 82 19 00
        E 0 b2 0b 7f
        E 0 92 25 7f
        E 256 82 25 00
        E 0 b2 0b 7f
        E 0 92 1c 7f
        E 512 82 1c 00
        E 128 b2 0b 7f
        E 0 92 1c 7f
        E 128 82 1c 00
        E 128 b2 0b 7f
        E 0 92 1c 7f
        E 256 82 1c 00
        E 912 b2 0b 7f
        E 0 92 21 7f
        E 1024 82 21 00
        E 0 b2 0b 7f
        E 0 92 1f 7f
        E 1024 82 1f 00
        E 0 b2 0b 7f
        E 0 92 40 7f
        E 128 82 40 00
        E 0 b2 0b 7f
        E 0 92 42 7f
        E 128 82 42 00
        E 0 b2 0b 7f
        E 0 92 43 7f
        E 128 82 43 00
        E 0 b2 0b 7f
        E 0 92 44 7f
        E 128 82 44 00
        E 0 b2 0b 7f
        E 0 92 45 7f
        E 128 82 45 00
        E 0 b2 0b 7f
        E 0 92 47 7f
        E 128 82 47 00
        E 0 b2 0b 7f
        E 0 92 48 7f
        E 128 82 48 00
        E 0 b2 0b 7f
        E 0 92 49 7f
        E 128 82 49 00
        E 0 b2 0b 7f
        E 0 92 40 7f
        E 64 82 40 00
        E 0 b2 0b 7f
        E 0 92 42 7f
        E 64 82 42 00
        E 0 b2 0b 7f
        E 0 92 43 7f
        E 64 82 43 00
        E 0 b2 0b 7f
        E 0 92 40 7f
        E 64 82 40 00
        E 0 b2 0b 7f
        E 0 92 45 7f
        E 64 82 45 00
        E 0 b2 0b 7f
        E 0 92 46 7f
        E 64 82 46 00
        E 0 b2 0b 7f
        E 0 92 47 7f
        E 64 82 47 00
        E 0 b2 0b 7f
        E 0 92 48 7f
        E 64 82 48 00
        E 0 b2 0b 7f
        E 0 92 4c 7f
        E 64 82 4c 00
        E 192 b2 0b 7f
        E 0 92 1c 7f
        E 256 82 1c 00
        E 0 b2 0b 7f
        E 0 92 21 7f
        E 256 82 21 00
        E 0 b2 0b 7f
        E 0 92 3d 7f
        E 256 82 3d 00
        E 0 b2 0b 7f
        E 0 92 19 7f
        E 256 82 19 00
        E 0 b2 0b 7f
        E 0 92 39 7f
        E 256 82 39 00
        E 0 b2 0b 7f
        E 0 92 17 7f
        E 256 82 17 00
        E 0 b2 0b 7f
        E 0 92 3e 7f
        E 256 82 3e 00
        E 0 b2 0b 7f
        E 0 92 1c 7f
        E 256 82 1c 00
        E 0 b2 0b 7f
        E 0 92 3e 7f
        E 256 82 3e 00
        E 0 b2 0b 7f
        E 0 92 1a 7f
        E 256 82 1a 00
        E 0 b2 0b 7f
        E 0 92 3e 7f
        E 256 82 3e 00
        E 0 b2 0b 7f
        E 0 92 19 7f
        E 256 82 19 00
        E 0 b2 0b 7f
        E 0 92 40 7f
        E 256 82 40 00
        E 0 b2 0b 7f
        E 0 92 1f 7f
        E 256 82 1f 00
        E 0 b2 0b 7f
        E 0 92 3b 7f
        E 256 82 3b 00
        E 0 b2 0b 7f
        E 0 92 1c 7f
        E 256 82 1c 00
        E 0 b2 0b 7f
        E 0 92 38 7f
        E 256 82 38 00
        E 0 b2 0b 7f
        E 0 92 21 7f
        E 256 82 21 00
        E 0 b2 0b 7f
        E 0 92 3d 7f
        E 256 82 3d 00
        E 0 b2 0b 7f
        E 0 92 19 7f
        E 256 82 19 00
        E 0 b2 0b 7f
        E 0 92 39 7f
        E 256 82 39 00
        E 0 b2 0b 7f
        E 0 92 17 7f
        E 256 82 17 00
        E 0 b2 0b 7f
        E 0 92 3e 7f
        E 256 82 3e 00
        E 0 b2 0b 7f
        E 0 92 1c 7f
        E 256 82 1c 00
        E 0 b2 0b 7f
        E 0 92 3e 7f
        E 256 82 3e 00
        E 0 b2 0b 7f
        E 0 92 1a 7f
        E 256 82 1a 00
        E 0 b2 0b 7f
        E 0 92 3e 7f
        E 256 82 3e 00
        E 0 b2 0b 7f
        E 0 92 19 7f
        E 256 82 19 00
        E 0 b2 0b 7f
        E 0 92 40 7f
        E 256 82 40 00
        E 0 b2 0b 7f
        E 0 92 1f 7f
        E 256 82 1f 00
        E 0 b2 0b 7f
        E 0 92 3b 7f
        E 256 82 3b 00
        E 0 b2 0b 7f
        E 0 92 1c 7f
        E 256 82 1c 00
        E 0 b2 0b 7f
        E 0 92 38 7f
        E 256 82 38 00
        E 0 b2 0b 7f
        E 0 92 1a 7f
        E 256 82 1a 00
        E 0 b2 0b 7f
        E 0 92 19 7f
        E 128 82 19 00
        E 0 b2 0b 7f
        E 0 92 1a 7f
        E 128 82 1a 00
        E 128 b2 0b 7f
        E 0 92 1c 7f
        E 128 82 1c 00
        E 256 b2 0b 7f
        E 0 92 1e 7f
        E 128 82 1e 00
        E 384 b2 0b 7f
        E 0 92 19 7f
        E 128 82 19 00
        E 384 b2 0b 7f
        E 0 92 1a 7f
        E 256 82 1a 00
        E 0 b2 0b 7f
        E 0 92 39 7f
        E 256 82 39 00
        E 0 b2 0b 7f
        E 0 92 1a 7f
        E 256 82 1a 00
        E 0 b2 0b 7f
        E 0 92 39 7f
        E 256 82 39 00
        E 0 b2 0b 7f
        E 0 92 21 7f
        E 256 82 21 00
        E 0 b2 0b 7f
        E 0 92 34 7f
        E 256 82 34 00
        E 0 b2 0b 7f
        E 0 92 21 7f
        E 256 82 21 00
        E 0 b2 0b 7f
        E 0 92 34 7f
        E 256 82 34 00
        E 0 b2 0b 7f
        E 0 92 1a 7f
        E 256 82 1a 00
        E 0 b2 0b 7f
        E 0 92 19 7f
        E 128 82 19 00
        E 0 b2 0b 7f
        E 0 92 1a 7f
        E 128 82 1a 00
        E 128 b2 0b 7f
        E 0 92 1c 7f
        E 128 82 1c 00
        E 256 b2 0b 7f
        E 0 92 1e 7f
        E 128 82 1e 00
        E 384 b2 0b 7f
        E 0 92 1f 7f
        E 512 82 1f 00
        E 0 b2 0b 7f
        E 0 92 1a 7f
        E 256 82 1a 00
        E 0 b2 0b 7f
        E 0 92 26 7f
        E 256 82 26 00
        E 0 b2 0b 7f
        E 0 92 1a 7f
        E 256 82 1a 00
        E 0 b2 0b 7f
        E 0 92 26 7f
        E 256 82 26 00
        E 0 b2 0b 7f
        E 0 92 19 7f
        E 256 82 19 00
        E 0 b2 0b 7f
        E 0 92 25 7f
        E 256 82 25 00
        E 0 b2 0b 7f
        E 0 92 19 7f
        E 256 82 19 00
        E 0 b2 0b 7f
        E 0 92 25 7f
        E 256 82 25 00
        E 0 b2 0b 7f
        E 0 92 1c 7f
        E 512 82 1c 00
        E 128 b2 0b 7f
        E 0 92 1c 7f
        E 128 82 1c 00
        E 128 b2 0b 7f
        E 0 92 1c 7f
        E 256 82 1c 00
        E 912 b2 0b 7f
        E 0 92 21 7f
        E 1024 82 21 00
        E 0 b2 0b 7f
        E 0 92 1f 7f
        E 1024 82 1f 00
        E 0 b2 0b 7f
        E 0 92 40 7f
        E 128 82 40 00
        E 0 b2 0b 7f
        E 0 92 42 7f
        E 128 82 42 00
        E 0 b2 0b 7f
        E 0 92 43 7f
        E 128 82 43 00
        E 0 b2 0b 7f
        E 0 92 44 7f
        E 128 82 44 00
        E 0 b2 0b 7f
        E 0 92 45 7f
        E 128 82 45 00
        E 0 b2 0b 7f
        E 0 92 47 7f
        E 128 82 47 00
        E 0 b2 0b 7f
        E 0 92 48 7f
        E 128 82 48 00
        E 0 b2 0b 7f
        E 0 92 49 7f
        E 128 82 49 00
        E 0 b2 0b 7f
        E 0 92 40 7f
        E 64 82 40 00
        E 0 b2 0b 7f
        E 0 92 42 7f
        E 64 82 42 00
        E 0 b2 0b 7f
        E 0 92 43 7f
        E 64 82 43 00
        E 0 b2 0b 7f
        E 0 92 40 7f
        E 64 82 40 00
        E 0 b2 0b 7f
        E 0 92 45 7f
        E 64 82 45 00
        E 0 b2 0b 7f
        E 0 92 46 7f
        E 64 82 46 00
        E 0 b2 0b 7f
        E 0 92 47 7f
        E 64 82 47 00
        E 0 b2 0b 7f
        E 0 92 48 7f
        E 64 82 48 00
        E 0 b2 0b 7f
        E 0 92 4c 7f
        E 64 82 4c 00
        E 192 b2 0b 7f
        E 0 92 1c 7f
        E 256 82 1c 00
        E 0 b2 0b 7f
        E 0 92 21 7f
        E 256 82 21 00
        E 0 b2 0b 7f
        E 0 92 3d 7f
        E 256 82 3d 00
        E 0 b2 0b 7f
        E 0 92 19 7f
        E 256 82 19 00
        E 0 b2 0b 7f
        E 0 92 39 7f
        E 256 82 39 00
        E 0 b2 0b 7f
        E 0 92 17 7f
        E 256 82 17 00
        E 0 b2 0b 7f
        E 0 92 3e 7f
        E 256 82 3e 00
        E 0 b2 0b 7f
        E 0 92 1c 7f
        E 256 82 1c 00
        E 0 b2 0b 7f
        E 0 92 3e 7f
        E 256 82 3e 00
        E 0 b2 0b 7f
        E 0 92 1a 7f
        E 256 82 1a 00
        E 0 b2 0b 7f
        E 0 92 3e 7f
        E 256 82 3e 00
        E 0 b2 0b 7f
        E 0 92 19 7f
        E 256 82 19 00
        E 0 b2 0b 7f
        E 0 92 40 7f
        E 256 82 40 00
        E 0 b2 0b 7f
        E 0 92 1f 7f
        E 256 82 1f 00
        E 0 b2 0b 7f
        E 0 92 3b 7f
        E 256 82 3b 00
        E 0 b2 0b 7f
        E 0 92 1c 7f
        E 256 82 1c 00
        E 0 b2 0b 7f
        E 0 92 38 7f
        E 256 82 38 00
        E 0 b2 0b 7f
        E 0 92 21 7f
        E 256 82 21 00
        E 0 b2 0b 7f
        E 0 92 3d 7f
        E 256 82 3d 00
        E 0 b2 0b 7f
        E 0 92 19 7f
        E 256 82 19 00
        E 0 b2 0b 7f
        E 0 92 39 7f
        E 256 82 39 00
        E 0 b2 0b 7f
        E 0 92 17 7f
        E 256 82 17 00
        E 0 b2 0b 7f
        E 0 92 3e 7f
        E 256 82 3e 00
        E 0 b2 0b 7f
        E 0 92 1c 7f
        E 256 82 1c 00
        E 0 b2 0b 7f
        E 0 92 3e 7f
        E 256 82 3e 00
        E 0 b2 0b 7f
        E 0 92 1a 7f
        E 256 82 1a 00
        E 0 b2 0b 7f
        E 0 92 3e 7f
        E 256 82 3e 00
        E 0 b2 0b 7f
        E 0 92 19 7f
        E 256 82 19 00
        E 0 b2 0b 7f
        E 0 92 40 7f
        E 256 82 40 00
        E 0 b2 0b 7f
        E 0 92 1f 7f
        E 256 82 1f 00
        E 0 b2 0b 7f
        E 0 92 3b 7f
        E 256 82 3b 00
        E 0 b2 0b 7f
        E 0 92 1c 7f
        E 256 82 1c 00
        E 0 b2 0b 7f
        E 0 92 38 7f
        E 256 82 38 00
        E 0 b2 0b 7f
        E 0 92 1a 7f
        E 256 82 1a 00
        E 0 b2 0b 7f
        E 0 92 19 7f
        E 128 82 19 00
        E 0 b2 0b 7f
        E 0 92 1a 7f
        E 128 82 1a 00
        E 128 b2 0b 7f
        E 0 92 1c 7f
        E 128 82 1c 00
        E 256 b2 0b 7f
        E 0 92 1e 7f
        E 128 82 1e 00
        E 384 b2 0b 7f
        E 0 92 19 7f
        E 128 82 19 00
        E 384 b2 0b 7f
        E 0 92 1a 7f
        E 256 82 1a 00
        E 0 b2 0b 7f
        E 0 92 39 7f
        E 256 82 39 00
        E 0 b2 0b 7f
        E 0 92 1a 7f
        E 256 82 1a 00
        E 0 b2 0b 7f
        E 0 92 39 7f
        E 256 82 39 00
        E 0 b2 0b 7f
        E 0 92 21 7f
        E 256 82 21 00
        E 0 b2 0b 7f
        E 0 92 34 7f
        E 256 82 34 00
        E 0 b2 0b 7f
        E 0 92 21 7f
        E 256 82 21 00
        E 0 b2 0b 7f
        E 0 92 34 7f
        E 256 82 34 00
        E 0 b2 0b 7f
        E 0 92 1a 7f
        E 256 82 1a 00
        E 0 b2 0b 7f
        E 0 92 19 7f
        E 128 82 19 00
        E 0 b2 0b 7f
        E 0 92 1a 7f
        E 128 82 1a 00
        E 128 b2 0b 7f
        E 0 92 1c 7f
        E 128 82 1c 00
        E 256 b2 0b 7f
        E 0 92 1e 7f
        E 128 82 1e 00
        E 384 b2 0b 7f
        E 0 92 1f 7f
        E 512 82 1f 00
        E 0 b2 0b 7f
        E 0 92 1a 7f
        E 256 82 1a 00
        E 0 b2 0b 7f
        E 0 92 26 7f
        E 256 82 26 00
        E 0 b2 0b 7f
        E 0 92 1a 7f
        E 256 82 1a 00
        E 0 b2 0b 7f
        E 0 92 26 7f
        E 256 82 26 00
        E 0 b2 0b 7f
        E 0 92 19 7f
        E 256 82 19 00
        E 0 b2 0b 7f
        E 0 92 25 7f
        E 256 82 25 00
        E 0 b2 0b 7f
        E 0 92 19 7f
        E 256 82 19 00
        E 0 b2 0b 7f
        E 0 92 25 7f
        E 256 82 25 00
        E 0 b2 0b 7f
        E 0 92 1c 7f
        E 512 82 1c 00
        E 128 b2 0b 7f
        E 0 92 1c 7f
        E 128 82 1c 00
        E 128 b2 0b 7f
        E 0 92 1c 7f
        E 256 82 1c 00
        E 912 b2 0b 7f
        E 0 92 21 7f
        E 1024 82 21 00
        E 0 b2 0b 7f
        E 0 92 1f 7f
        E 1024 82 1f 00
        E 0 b2 0b 7f
        E 0 92 40 7f
        E 128 82 40 00
        E 0 b2 0b 7f
        E 0 92 42 7f
        E 128 82 42 00
        E 0 b2 0b 7f
        E 0 92 43 7f
        E 128 82 43 00
        E 0 b2 0b 7f
        E 0 92 44 7f
        E 128 82 44 00
        E 0 b2 0b 7f
        E 0 92 45 7f
        E 128 82 45 00
        E 0 b2 0b 7f
        E 0 92 47 7f
        E 128 82 47 00
        E 0 b2 0b 7f
        E 0 92 48 7f
        E 128 82 48 00
        E 0 b2 0b 7f
        E 0 92 49 7f
        E 128 82 49 00
        E 0 b2 0b 7f
        E 0 92 40 7f
        E 64 82 40 00
        E 0 b2 0b 7f
        E 0 92 42 7f
        E 64 82 42 00
        E 0 b2 0b 7f
        E 0 92 43 7f
        E 64 82 43 00
        E 0 b2 0b 7f
        E 0 92 40 7f
        E 64 82 40 00
        E 0 b2 0b 7f
        E 0 92 45 7f
        E 64 82 45 00
        E 0 b2 0b 7f
        E 0 92 46 7f
        E 64 82 46 00
        E 0 b2 0b 7f
        E 0 92 47 7f
        E 64 82 47 00
        E 0 b2 0b 7f
        E 0 92 48 7f
        E 64 82 48 00
        E 0 b2 0b 7f
        E 0 92 4c 7f
        E 64 82 4c 00
        E 192 b2 0b 7f
        E 0 92 1c 7f
        E 256 82 1c 00
        E 0 b2 0b 7f
        E 0 92 21 7f
        E 256 82 21 00
        E 0 b2 0b 7f
        E 0 92 3d 7f
        E 256 82 3d 00
        E 0 b2 0b 7f
        E 0 92 19 7f
        E 256 82 19 00
        E 0 b2 0b 7f
        E 0 92 39 7f
        E 256 82 39 00
        E 0 b2 0b 7f
        E 0 92 17 7f
        E 256 82 17 00
        E 0 b2 0b 7f
        E 0 92 3e 7f
        E 256 82 3e 00
        E 0 b2 0b 7f
        E 0 92 1c 7f
        E 256 82 1c 00
        E 0 b2 0b 7f
        E 0 92 3e 7f
        E 256 82 3e 00
        E 0 b2 0b 7f
        E 0 92 1a 7f
        E 256 82 1a 00
        E 0 b2 0b 7f
        E 0 92 3e 7f
        E 256 82 3e 00
        E 0 b2 0b 7f
        E 0 92 19 7f
        E 256 82 19 00
        E 0 b2 0b 7f
        E 0 92 40 7f
        E 256 82 40 00
        E 0 b2 0b 7f
        E 0 92 1f 7f
        E 256 82 1f 00
        E 0 b2 0b 7f
        E 0 92 3b 7f
        E 256 82 3b 00
        E 0 b2 0b 7f
        E 0 92 1c 7f
        E 256 82 1c 00
        E 0 b2 0b 7f
        E 0 92 38 7f
        E 256 82 38 00
        E 0 b2 0b 7f
        E 0 92 21 7f
        E 256 82 21 00
        E 0 b2 0b 7f
        E 0 92 3d 7f
        E 256 82 3d 00
        E 0 b2 0b 7f
        E 0 92 19 7f
        E 256 82 19 00
        E 0 b2 0b 7f
        E 0 92 39 7f
        E 208 82 39 00
        E 0 b2 7b 00
        E 0 ff 2f 00
      >
    >
  >
  <TRACK {70BD81F2-4310-4479-8AC7-FD8D088F7876}
    NAME "NES - Noise / Drums [ch3]"
    PEAKCOL 11184810
    BEAT -1
    AUTOMODE 0
    PANLAWFLAGS 3
    VOLPAN 1 0 -1 -1 1
    MUTESOLO 0 0 0
    IPHASE 0
    PLAYOFFS 0 1
    ISBUS 0 0
    BUSCOMP 0 0 0 0 0
    SHOWINMIX 1 0.6667 0.5 1 0.5 0 0 0
    FIXEDLANES 9 0 0 0 0
    SEL 0
    REC 0 5088 1 0 0 0 0 0
    VU 2
    TRACKHEIGHT 0 0 0 0 0 0 0
    INQ 0 0 0 0.5 100 0 0 100
    NCHAN 2
    FX 1
    TRACKID {70BD81F2-4310-4479-8AC7-FD8D088F7876}
    PERF 0
    MIDIOUT -1
    MAINSEND 1 0
    <FXCHAIN
      WNDRECT 24 52 700 560
      SHOW 0
      LASTSEL 0
      DOCKED 0
      BYPASS 0 0 0
      <JS "ReapNES Studio/ReapNES_Console.jsfx" ""
        2 15 1 10 80 10 100 2 1 15 1 5 60 10 80 1 1 0 50 0 0 15 1 0 100 0 0 0.500000 0.500000 0.400000 0.300000 0.800000 3 1 0 0 0 0 - - - - - - - - - - - - - - - - - - - - - - - - - -
      >
      FLOATPOS 0 0 0 0
      FXID {4B72F4FA-C2C9-43A0-90DB-7D18E314568A}
      WAK 0 0
    >
    <ITEM
      POSITION 0
      LENGTH 74.65008
      LOOP 0
      ALLTAKES 0
      FADEIN 0 0 0 0 0 0 0
      FADEOUT 0 0 0 0 0 0 0
      MUTE 0 0
      SEL 0
      IGUID {ACDA67B8-3730-4191-8487-52071DF187B7}
      <SOURCE MIDI
        HASDATA 1 480 QN
        CCINTERP 32
        E 256 93 2a 33
        E 256 83 2a 00
        E 256 93 2a 33
        E 256 83 2a 00
        E 256 93 2a 33
        E 256 83 2a 00
        E 256 93 2a 33
        E 256 83 2a 00
        E 256 93 2a 33
        E 256 83 2a 00
        E 256 93 2a 33
        E 256 83 2a 00
        E 256 93 2a 33
        E 256 83 2a 00
        E 256 93 2a 33
        E 256 83 2a 00
        E 256 93 2a 33
        E 256 83 2a 00
        E 256 93 2a 33
        E 256 83 2a 00
        E 256 93 2a 33
        E 256 83 2a 00
        E 256 93 2a 33
        E 256 83 2a 00
        E 256 93 2a 33
        E 256 83 2a 00
        E 256 93 2a 33
        E 256 83 2a 00
        E 256 93 2a 33
        E 256 83 2a 00
        E 256 93 2a 33
        E 256 83 2a 00
        E 256 93 2a 33
        E 256 83 2a 00
        E 256 93 2a 33
        E 256 83 2a 00
        E 256 93 2a 33
        E 256 83 2a 00
        E 256 93 2a 33
        E 256 83 2a 00
        E 256 93 2a 33
        E 256 83 2a 00
        E 256 93 2a 33
        E 256 83 2a 00
        E 256 93 2a 33
        E 256 83 2a 00
        E 256 93 2a 33
        E 256 83 2a 00
        E 256 93 2a 33
        E 256 83 2a 00
        E 256 93 2a 33
        E 256 83 2a 00
        E 256 93 2a 33
        E 256 83 2a 00
        E 256 93 2a 33
        E 256 83 2a 00
        E 256 93 2a 33
        E 256 83 2a 00
        E 256 93 2a 33
        E 256 83 2a 00
        E 256 93 2a 33
        E 256 83 2a 00
        E 256 93 2a 33
        E 256 83 2a 00
        E 256 93 2a 33
        E 256 83 2a 00
        E 256 93 2a 33
        E 256 83 2a 00
        E 256 93 2a 33
        E 256 83 2a 00
        E 256 93 2a 33
        E 256 83 2a 00
        E 256 93 2a 33
        E 256 83 2a 00
        E 256 93 2a 33
        E 256 83 2a 00
        E 256 93 2a 33
        E 256 83 2a 00
        E 256 93 2a 33
        E 256 83 2a 00
        E 256 93 2a 33
        E 256 83 2a 00
        E 256 93 2a 33
        E 256 83 2a 00
        E 256 93 2a 33
        E 256 83 2a 00
        E 256 93 2a 33
        E 272 83 2a 00
        E 256 93 2a 33
        E 256 83 2a 00
        E 256 93 2a 33
        E 256 83 2a 00
        E 256 93 2a 33
        E 256 83 2a 00
        E 256 93 2a 33
        E 256 83 2a 00
        E 256 93 2a 33
        E 256 83 2a 00
        E 256 93 2a 33
        E 256 83 2a 00
        E 256 93 2a 33
        E 256 83 2a 00
        E 256 93 2a 33
        E 256 83 2a 00
        E 256 93 2a 33
        E 256 83 2a 00
        E 256 93 2a 33
        E 256 83 2a 00
        E 256 93 2a 33
        E 256 83 2a 00
        E 256 93 2a 33
        E 256 83 2a 00
        E 256 93 2a 33
        E 256 83 2a 00
        E 256 93 2a 33
        E 256 83 2a 00
        E 256 93 2a 33
        E 256 83 2a 00
        E 256 93 2a 33
        E 256 83 2a 00
        E 256 93 2a 33
        E 256 83 2a 00
        E 256 93 2a 33
        E 256 83 2a 00
        E 256 93 2a 33
        E 256 83 2a 00
        E 256 93 2a 33
        E 256 83 2a 00
        E 256 93 2a 33
        E 256 83 2a 00
        E 256 93 2a 33
        E 256 83 2a 00
        E 256 93 2a 33
        E 256 83 2a 00
        E 256 93 2a 33
        E 256 83 2a 00
        E 256 93 2a 33
        E 256 83 2a 00
        E 256 93 2a 33
        E 256 83 2a 00
        E 256 93 2a 33
        E 256 83 2a 00
        E 256 93 2a 33
        E 256 83 2a 00
        E 256 93 2a 33
        E 256 83 2a 00
        E 256 93 2a 33
        E 256 83 2a 00
        E 256 93 2a 33
        E 256 83 2a 00
        E 256 93 2a 33
        E 256 83 2a 00
        E 256 93 2a 33
        E 256 83 2a 00
        E 256 93 2a 33
        E 256 83 2a 00
        E 256 93 2a 33
        E 256 83 2a 00
        E 256 93 2a 33
        E 256 83 2a 00
        E 256 93 2a 33
        E 256 83 2a 00
        E 256 93 2a 33
        E 256 83 2a 00
        E 256 93 2a 33
        E 256 83 2a 00
        E 256 93 2a 33
        E 256 83 2a 00
        E 256 93 2a 33
        E 256 83 2a 00
        E 256 93 2a 33
        E 256 83 2a 00
        E 256 93 2a 33
        E 256 83 2a 00
        E 256 93 2a 33
        E 272 83 2a 00
        E 256 93 2a 33
        E 256 83 2a 00
        E 256 93 2a 33
        E 256 83 2a 00
        E 256 93 2a 33
        E 256 83 2a 00
        E 256 93 2a 33
        E 256 83 2a 00
        E 256 93 2a 33
        E 256 83 2a 00
        E 256 93 2a 33
        E 256 83 2a 00
        E 256 93 2a 33
        E 256 83 2a 00
        E 256 93 2a 33
        E 256 83 2a 00
        E 256 93 2a 33
        E 256 83 2a 00
        E 256 93 2a 33
        E 256 83 2a 00
        E 256 93 2a 33
        E 256 83 2a 00
        E 256 93 2a 33
        E 256 83 2a 00
        E 256 93 2a 33
        E 256 83 2a 00
        E 256 93 2a 33
        E 256 83 2a 00
        E 256 93 2a 33
        E 256 83 2a 00
        E 256 93 2a 33
        E 256 83 2a 00
        E 256 93 2a 33
        E 256 83 2a 00
        E 256 93 2a 33
        E 256 83 2a 00
        E 256 93 2a 33
        E 256 83 2a 00
        E 256 93 2a 33
        E 256 83 2a 00
        E 256 93 2a 33
        E 256 83 2a 00
        E 256 93 2a 33
        E 256 83 2a 00
        E 256 93 2a 33
        E 256 83 2a 00
        E 256 93 2a 33
        E 256 83 2a 00
        E 256 93 2a 33
        E 256 83 2a 00
        E 256 93 2a 33
        E 256 83 2a 00
        E 256 93 2a 33
        E 256 83 2a 00
        E 256 93 2a 33
        E 256 83 2a 00
        E 256 93 2a 33
        E 256 83 2a 00
        E 256 93 2a 33
        E 256 83 2a 00
        E 256 93 2a 33
        E 256 83 2a 00
        E 256 93 2a 33
        E 256 83 2a 00
        E 256 93 2a 33
        E 256 83 2a 00
        E 256 93 2a 33
        E 256 83 2a 00
        E 256 93 2a 33
        E 256 83 2a 00
        E 256 93 2a 33
        E 256 83 2a 00
        E 256 93 2a 33
        E 256 83 2a 00
        E 256 93 2a 33
        E 256 83 2a 00
        E 256 93 2a 33
        E 256 83 2a 00
        E 256 93 2a 33
        E 256 83 2a 00
        E 256 93 2a 33
        E 256 83 2a 00
        E 256 93 2a 33
        E 256 83 2a 00
        E 256 93 2a 33
        E 256 83 2a 00
        E 256 93 2a 33
        E 272 83 2a 00
        E 256 93 2a 33
        E 256 83 2a 00
        E 256 93 2a 33
        E 256 83 2a 00
        E 256 93 2a 33
        E 256 83 2a 00
        E 256 93 2a 33
        E 256 83 2a 00
        E 256 93 2a 33
        E 256 83 2a 00
        E 256 93 2a 33
        E 256 83 2a 00
        E 256 93 2a 33
        E 256 83 2a 00
        E 256 93 2a 33
        E 256 83 2a 00
        E 256 93 2a 33
        E 256 83 2a 00
        E 256 93 2a 33
        E 256 83 2a 00
        E 256 93 2a 33
        E 256 83 2a 00
        E 256 93 2a 33
        E 256 83 2a 00
        E 256 93 2a 33
        E 256 83 2a 00
        E 256 93 2a 33
        E 256 83 2a 00
        E 256 93 2a 33
        E 256 83 2a 00
        E 256 93 2a 33
        E 256 83 2a 00
        E 256 93 2a 33
        E 256 83 2a 00
        E 256 93 2a 33
        E 208 83 2a 00
        E 0 b3 7b 00
        E 0 ff 2f 00
      >
    >
  >
>