<REAPER_PROJECT 0.1 "7.27/win64" 1707000000
  <NOTES 0 2
    |ReapNES Studio Project
    |MIDI Import - Kid_Icarus_config00_rom_v1
  >
  RIPPLE 0
  GROUPOVERRIDE 0 0 0
  AUTOXFADE 129
  ENVATTACH 3
  POOLEDENVATTACH 0
  MIXERUIFLAGS 11 48
  ENVFADESZ10 40
  PEAKGAIN 1
  FEEDBACK 0
  PANLAW 1
  PROJOFFS 0 0 0
  MAXPROJLEN 0 0
  GRID 3199 8 1 8 1 0 0 0
  TIMEMODE 1 5 -1 30 0 0 -1
  VIDEO_CONFIG 0 0 65792
  PANMODE 3
  PANLAWFLAGS 3
  CURSOR 0
  ZOOM 100 0 0
  VZOOMEX 6 0
  USE_REC_CFG 0
  RECMODE 1
  SMPTESYNC 0 30 100 40 1000 300 0 0 1 0 0
  LOOP 0
  LOOPGRAN 0 4
  RECORD_PATH "Media" ""
  <RECORD_CFG
    ZXZhdxgAAQ==
  >
  <APPLYFX_CFG
  >
  RENDER_FILE ""
  RENDER_PATTERN ""
  RENDER_FMT 0 2 0
  RENDER_1X 0
  RENDER_RANGE 1 0 0 18 1000
  RENDER_RESAMPLE 3 0 1
  RENDER_ADDTOPROJ 0
  RENDER_STEMS 0
  RENDER_DITHER 0
  TIMELOCKMODE 1
  TEMPOENVLOCKMODE 1
  ITEMMIX 1
  DEFPITCHMODE 589824 0
  TAKELANE 1
  SAMPLERATE 44100 0 0
  <RENDER_CFG
    ZXZhdxgAAQ==
  >
  LOCK 1
  <METRONOME 6 2
    VOL 0.25 0.125
    BEATLEN 4
    FREQ 1760 880 1
    SAMPLES "" ""
    SPLIGNORE 0 0
    SPLDEF 2 660 "" 0
    SPLDEF 3 440 "" 0
    PATTERN 0 169
    PATTERNSTR ABBB
    MULT 1
  >
  GLOBAL_AUTO -1
  TEMPO 128.59999614200012 4 4
  PLAYRATE 1 0 0.25 4
  SELECTION 0 0
  SELECTION2 0 0
  MASTERAUTOMODE 0
  MASTERTRACKHEIGHT 0 0
  MASTERPEAKCOL 16576
  MASTERMUTESOLO 0
  MASTERTRACKVIEW 0 0.6667 0.5 0.5 0 0 0 0 0 0 0 0 0 0
  MASTERHWOUT 0 0 1 0 0 0 0 -1
  MASTER_NCH 2 2
  MASTER_VOLUME 1 0 -1 -1 1
  MASTER_PANMODE 3
  MASTER_PANLAWFLAGS 3
  MASTER_FX 1
  MASTER_SEL 0
  <MASTERPLAYSPEEDENV
    EGUID {5962F625-D102-438C-A7CB-1FF1EBFBAF95}
    ACT 0 -1
    VIS 0 1 1
    LANEHEIGHT 0 0
    ARM 0
    DEFSHAPE 0 -1 -1
  >
  <TEMPOENVEX
    EGUID {68C055E0-E6D4-4247-8333-8F7B5FB193B6}
    ACT 1 -1
    VIS 1 0 1
    LANEHEIGHT 0 0
    ARM 0
    DEFSHAPE 1 -1 -1
  >
  <PROJBAY
  >
  <TRACK {07AAF260-F118-46B7-B6F7-16A2FEB62BD1}
    NAME "NES - Pulse 1 [ch0]"
    PEAKCOL 16576606
    BEAT -1
    AUTOMODE 0
    PANLAWFLAGS 3
    VOLPAN 1 0 -1 -1 1
    MUTESOLO 0 0 0
    IPHASE 0
    PLAYOFFS 0 1
    ISBUS 0 0
    BUSCOMP 0 0 0 0 0
    SHOWINMIX 1 0.6667 0.5 1 0.5 0 0 0
    FIXEDLANES 9 0 0 0 0
    SEL 1
    REC 1 5088 1 0 0 0 0 0
    VU 2
    TRACKHEIGHT 0 0 0 0 0 0 0
    INQ 0 0 0 0.5 100 0 0 100
    NCHAN 2
    FX 1
    TRACKID {07AAF260-F118-46B7-B6F7-16A2FEB62BD1}
    PERF 0
    MIDIOUT -1
    MAINSEND 1 0
    <FXCHAIN
      WNDRECT 24 52 700 560
      SHOW 0
      LASTSEL 0
      DOCKED 0
      BYPASS 0 0 0
      <JS "ReapNES Studio/ReapNES_Console.jsfx" ""
        2 15 1 10 80 10 100 2 1 15 1 5 60 10 80 1 1 0 50 0 0 15 1 0 100 0 0 0.500000 0.500000 0.400000 0.300000 0.800000 0 1 0 0 0 0 - - - - - - - - - - - - - - - - - - - - - - - - - -
      >
      FLOATPOS 0 0 0 0
      FXID {1F254D91-5B6A-4485-9442-6F054FAC33E0}
      WAK 0 0
    >
    <ITEM
      POSITION 0
      LENGTH 74.65008
      LOOP 0
      ALLTAKES 0
      FADEIN 0 0 0 0 0 0 0
      FADEOUT 0 0 0 0 0 0 0
      MUTE 0 0
      SEL 0
      IGUID {0B2A83F0-B922-4526-B3FF-3A2321A188A0}
      <SOURCE MIDI
        HASDATA 1 480 QN
        CCINTERP 32
        E 0 c0 50
        E 0 b0 0c 10
        E 0 b0 0b 08
        E 0 90 3f 08
        E 16 b0 0b 11
        E 32 b0 0b 19
        E 32 b0 0b 22
        E 32 b0 0b 2a
        E 16 80 3f 00
        E 128 b0 0b 08
        E 0 90 3f 08
        E 16 b0 0b 11
        E 32 b0 0b 19
        E 32 b0 0b 22
        E 32 b0 0b 2a
        E 16 b0 0b 08
        E 0 80 3f 00
        E 0 90 44 08
        E 16 b0 0b 11
        E 32 b0 0b 19
        E 32 b0 0b 22
        E 32 b0 0b 2a
        E 16 80 44 00
        E 128 b0 0b 08
        E 0 90 3f 08
        E 16 b0 0b 11
        E 32 b0 0b 19
        E 32 b0 0b 22
        E 32 b0 0b 2a
        E 16 b0 0b 08
        E 0 80 3f 00
        E 0 90 44 08
        E 16 b0 0b 11
        E 32 b0 0b 19
        E 32 b0 0b 22
        E 32 b0 0b 2a
        E 16 80 44 00
        E 128 b0 0b 08
        E 0 90 48 08
        E 16 b0 0b 11
        E 32 b0 0b 19
        E 32 b0 0b 22
        E 32 b0 0b 2a
        E 16 b0 0b 08
        E 0 80 48 00
        E 0 90 44 08
        E 16 b0 0b 11
        E 32 b0 0b 19
        E 32 b0 0b 22
        E 32 b0 0b 2a
        E 32 80 44 00
        E 240 b0 0b 08
        E 0 90 44 08
        E 16 b0 0b 11
        E 32 b0 0b 19
        E 32 b0 0b 22
        E 32 b0 0b 2a
        E 16 80 44 00
        E 128 b0 0b 08
        E 0 90 44 08
        E 16 b0 0b 11
        E 32 b0 0b 19
        E 32 b0 0b 22
        E 32 b0 0b 2a
        E 16 b0 0b 08
        E 0 80 44 00
        E 0 90 48 08
        E 16 b0 0b 11
        E 32 b0 0b 19
        E 32 b0 0b 22
        E 32 b0 0b 2a
        E 16 80 48 00
        E 128 b0 0b 08
        E 0 90 44 08
        E 16 b0 0b 11
        E 32 b0 0b 19
        E 32 b0 0b 22
        E 32 b0 0b 2a
        E 16 b0 0b 08
        E 0 80 44 00
        E 0 90 4b 08
        E 16 b0 0b 11
        E 32 b0 0b 19
        E 32 b0 0b 22
        E 32 b0 0b 2a
        E 16 80 4b 00
        E 256 b0 0b 08
        E 0 90 4b 08
        E 16 b0 0b 11
        E 32 b0 0b 19
        E 32 b0 0b 22
        E 32 b0 0b 2a
        E 16 80 4b 00
        E 4352 b0 0b 08
        E 0 90 40 08
        E 16 b0 0b 11
        E 32 b0 0b 19
        E 32 b0 0b 22
        E 32 b0 0b 2a
        E 16 80 40 00
        E 128 b0 0b 08
        E 0 90 40 08
        E 16 b0 0b 11
        E 32 b0 0b 19
        E 32 b0 0b 22
        E 32 b0 0b 2a
        E 16 b0 0b 08
        E 0 80 40 00
        E 0 90 45 08
        E 16 b0 0b 11
        E 32 b0 0b 19
        E 32 b0 0b 22
        E 32 b0 0b 2a
        E 16 80 45 00
        E 128 b0 0b 08
        E 0 90 40 08
        E 16 b0 0b 11
        E 32 b0 0b 19
        E 32 b0 0b 22
        E 32 b0 0b 2a
        E 16 b0 0b 08
        E 0 80 40 00
        E 0 90 45 08
        E 16 b0 0b 11
        E 32 b0 0b 19
        E 32 b0 0b 22
        E 32 b0 0b 2a
        E 16 80 45 00
        E 128 b0 0b 08
        E 0 90 49 08
        E 16 b0 0b 11
        E 32 b0 0b 19
        E 32 b0 0b 22
        E 32 b0 0b 2a
        E 16 b0 0b 08
        E 0 80 49 00
        E 0 90 45 08
        E 16 b0 0b 11
        E 32 b0 0b 19
        E 32 b0 0b 22
        E 32 b0 0b 2a
        E 32 80 45 00
        E 240 b0 0b 08
        E 0 90 45 08
        E 16 b0 0b 11
        E 32 b0 0b 19
        E 32 b0 0b 22
        E 32 b0 0b 2a
        E 16 80 45 00
        E 128 b0 0b 08
        E 0 90 45 08
        E 16 b0 0b 11
        E 32 b0 0b 19
        E 32 b0 0b 22
        E 32 b0 0b 2a
        E 16 b0 0b 08
        E 0 80 45 00
        E 0 90 49 08
        E 16 b0 0b 11
        E 32 b0 0b 19
        E 32 b0 0b 22
        E 32 b0 0b 2a
        E 16 80 49 00
        E 128 b0 0b 08
        E 0 90 45 08
        E 16 b0 0b 11
        E 32 b0 0b 19
        E 32 b0 0b 22
        E 32 b0 0b 2a
        E 16 b0 0b 08
        E 0 80 45 00
        E 0 90 4c 08
        E 16 b0 0b 11
        E 32 b0 0b 19
        E 32 b0 0b 22
        E 32 b0 0b 2a
        E 16 80 4c 00
        E 256 b0 0b 08
        E 0 90 4c 08
        E 16 b0 0b 11
        E 32 b0 0b 19
        E 32 b0 0b 22
        E 32 b0 0b 2a
        E 16 80 4c 00
        E 640 b0 0b 08
        E 0 90 39 08
        E 16 b0 0b 11
        E 32 b0 0b 19
        E 32 b0 0b 22
        E 32 b0 0b 2a
        E 32 80 39 00
        E 240 b0 0b 08
        E 0 90 45 08
        E 16 b0 0b 11
        E 32 b0 0b 19
        E 32 b0 0b 22
        E 32 b0 0b 2a
        E 16 80 45 00
        E 128 b0 0b 08
        E 0 90 45 08
        E 16 b0 0b 11
        E 32 b0 0b 19
        E 32 b0 0b 22
        E 32 b0 0b 2a
        E 16 80 45 00
        E 192 b0 0b 08
        E 0 90 45 08
        E 16 b0 0b 11
        E 32 b0 0b 19
        E 32 b0 0b 22
        E 16 b0 0b 08
        E 16 b0 0b 11
        E 32 b0 0b 19
        E 32 b0 0b 22
        E 16 b0 0b 08
        E 16 b0 0b 11
        E 32 b0 0b 19
        E 32 b0 0b 22
        E 32 b0 0b 2a
        E 16 80 45 00
        E 128 b0 0b 08
        E 0 90 45 08
        E 16 b0 0b 11
        E 32 b0 0b 19
        E 32 b0 0b 22
        E 32 b0 0b 2a
        E 16 b0 0b 08
        E 0 80 45 00
        E 0 90 39 08
        E 16 b0 0b 11
        E 32 b0 0b 19
        E 32 b0 0b 22
        E 32 b0 0b 2a
        E 32 80 39 00
        E 240 b0 0b 08
        E 0 90 45 08
        E 16 b0 0b 11
        E 32 b0 0b 19
        E 32 b0 0b 22
        E 32 b0 0b 2a
        E 16 80 45 00
        E 128 b0 0b 08
        E 0 90 45 08
        E 16 b0 0b 11
        E 32 b0 0b 19
        E 32 b0 0b 22
        E 32 b0 0b 2a
        E 16 80 45 00
        E 192 b0 0b 08
        E 0 90 45 08
        E 16 b0 0b 11
        E 32 b0 0b 19
        E 32 b0 0b 22
        E 16 b0 0b 08
        E 16 b0 0b 11
        E 32 b0 0b 19
        E 32 b0 0b 22
        E 16 b0 0b 08
        E 16 b0 0b 11
        E 32 b0 0b 19
        E 32 b0 0b 22
        E 32 b0 0b 2a
        E 16 80 45 00
        E 128 b0 0b 08
        E 0 90 45 08
        E 16 b0 0b 11
        E 32 b0 0b 19
        E 32 b0 0b 22
        E 32 b0 0b 2a
        E 32 b0 0b 08
        E 16 b0 0b 11
        E 32 b0 0b 19
        E 32 b0 0b 22
        E 32 b0 0b 2a
        E 32 80 45 00
        E 4320 b0 0b 08
        E 0 90 18 08
        E 16 b0 0b 11
        E 32 b0 0b 19
        E 32 b0 0b 22
        E 32 b0 0b 2a
        E 32 80 18 00
        E 240 b0 0b 08
        E 0 90 18 08
        E 16 b0 0b 11
        E 32 b0 0b 19
        E 32 b0 0b 22
        E 32 b0 0b 2a
        E 32 80 18 00
        E 240 b0 0b 08
        E 0 90 18 08
        E 16 b0 0b 11
        E 32 b0 0b 19
        E 32 b0 0b 22
        E 32 b0 0b 2a
        E 32 80 18 00
        E 240 b0 0b 08
        E 0 90 18 08
        E 16 b0 0b 11
        E 32 b0 0b 19
        E 32 b0 0b 22
        E 32 b0 0b 2a
        E 32 80 18 00
        E 240 b0 0b 08
        E 0 90 18 08
        E 16 b0 0b 11
        E 32 b0 0b 19
        E 32 b0 0b 22
        E 32 b0 0b 2a
        E 32 80 18 00
        E 240 b0 0b 08
        E 0 90 18 08
        E 16 b0 0b 11
        E 32 b0 0b 19
        E 32 b0 0b 22
        E 32 b0 0b 2a
        E 32 80 18 00
        E 240 b0 0b 08
        E 0 90 18 08
        E 16 b0 0b 11
        E 32 b0 0b 19
        E 32 b0 0b 22
        E 32 b0 0b 2a
        E 32 80 18 00
        E 240 b0 0b 08
        E 0 90 18 08
        E 16 b0 0b 11
        E 32 b0 0b 19
        E 32 b0 0b 22
        E 32 b0 0b 2a
        E 32 80 18 00
        E 240 b0 0b 08
        E 0 90 18 08
        E 16 b0 0b 11
        E 32 b0 0b 19
        E 32 b0 0b 22
        E 32 b0 0b 2a
        E 32 80 18 00
        E 240 b0 0b 08
        E 0 90 18 08
        E 16 b0 0b 11
        E 32 b0 0b 19
        E 32 b0 0b 22
        E 32 b0 0b 2a
        E 32 80 18 00
        E 240 b0 0b 08
        E 0 90 18 08
        E 16 b0 0b 11
        E 32 b0 0b 19
        E 32 b0 0b 22
        E 32 b0 0b 2a
        E 32 80 18 00
        E 240 b0 0b 08
        E 0 90 18 08
        E 16 b0 0b 11
        E 32 b0 0b 19
        E 32 b0 0b 22
        E 32 b0 0b 2a
        E 32 80 18 00
        E 240 b0 0b 08
        E 0 90 18 08
        E 16 b0 0b 11
        E 32 b0 0b 19
        E 32 b0 0b 22
        E 32 b0 0b 2a
        E 32 80 18 00
        E 240 b0 0b 08
        E 0 90 18 08
        E 16 b0 0b 11
        E 32 b0 0b 19
        E 32 b0 0b 22
        E 32 b0 0b 2a
        E 32 80 18 00
        E 240 b0 0b 08
        E 0 90 18 08
        E 16 b0 0b 11
        E 32 b0 0b 19
        E 32 b0 0b 22
        E 32 b0 0b 2a
        E 32 80 18 00
        E 240 b0 0b 08
        E 0 90 18 08
        E 16 b0 0b 11
        E 32 b0 0b 19
        E 32 b0 0b 22
        E 32 b0 0b 2a
        E 32 80 18 00
        E 240 b0 0b 08
        E 0 90 39 08
        E 16 b0 0b 11
        E 32 b0 0b 19
        E 32 b0 0b 22
        E 16 b0 0b 08
        E 0 80 39 00
        E 0 90 3a 08
        E 16 b0 0b 11
        E 32 b0 0b 19
        E 32 b0 0b 22
        E 16 b0 0b 08
        E 0 80 3a 00
        E 0 90 39 08
        E 16 b0 0b 11
        E 32 b0 0b 19
        E 32 b0 0b 22
        E 16 b0 0b 08
        E 0 80 39 00
        E 0 90 3a 08
        E 16 b0 0b 11
        E 32 b0 0b 19
        E 32 b0 0b 22
        E 16 b0 0b 08
        E 0 80 3a 00
        E 0 90 3c 08
        E 16 b0 0b 11
        E 32 b0 0b 19
        E 32 b0 0b 22
        E 16 b0 0b 08
        E 0 80 3c 00
        E 0 90 3d 08
        E 16 b0 0b 11
        E 32 b0 0b 19
        E 32 b0 0b 22
        E 16 b0 0b 08
        E 0 80 3d 00
        E 0 90 3c 08
        E 16 b0 0b 11
        E 32 b0 0b 19
        E 32 b0 0b 22
        E 16 b0 0b 08
        E 0 80 3c 00
        E 0 90 3d 08
        E 16 b0 0b 11
        E 32 b0 0b 19
        E 32 b0 0b 22
        E 16 b0 0b 08
        E 0 80 3d 00
        E 0 90 39 08
        E 16 b0 0b 11
        E 32 b0 0b 19
        E 32 b0 0b 22
        E 16 b0 0b 08
        E 0 80 39 00
        E 0 90 3a 08
        E 16 b0 0b 11
        E 32 b0 0b 19
        E 32 b0 0b 22
        E 16 b0 0b 08
        E 0 80 3a 00
        E 0 90 39 08
        E 16 b0 0b 11
        E 32 b0 0b 19
        E 32 b0 0b 22
        E 16 b0 0b 08
        E 0 80 39 00
        E 0 90 3a 08
        E 16 b0 0b 11
        E 32 b0 0b 19
        E 32 b0 0b 22
        E 16 b0 0b 08
        E 0 80 3a 00
        E 0 90 3c 08
        E 16 b0 0b 11
        E 32 b0 0b 19
        E 32 b0 0b 22
        E 16 b0 0b 08
        E 0 80 3c 00
        E 0 90 3d 08
        E 16 b0 0b 11
        E 32 b0 0b 19
        E 32 b0 0b 22
        E 16 b0 0b 08
        E 0 80 3d 00
        E 0 90 3c 08
        E 16 b0 0b 11
        E 32 b0 0b 19
        E 32 b0 0b 22
        E 16 b0 0b 08
        E 0 80 3c 00
        E 0 90 3d 08
        E 16 b0 0b 11
        E 32 b0 0b 19
        E 32 b0 0b 22
        E 16 b0 0b 08
        E 0 80 3d 00
        E 0 90 39 08
        E 16 b0 0b 11
        E 32 b0 0b 19
        E 32 b0 0b 22
        E 16 b0 0b 08
        E 0 80 39 00
        E 0 90 3a 08
        E 16 b0 0b 11
        E 32 b0 0b 19
        E 32 b0 0b 22
        E 16 b0 0b 08
        E 0 80 3a 00
        E 0 90 39 08
        E 16 b0 0b 11
        E 32 b0 0b 19
        E 32 b0 0b 22
        E 16 b0 0b 08
        E 0 80 39 00
        E 0 90 3a 08
        E 16 b0 0b 11
        E 32 b0 0b 19
        E 32 b0 0b 22
        E 16 b0 0b 08
        E 0 80 3a 00
        E 0 90 3c 08
        E 16 b0 0b 11
        E 32 b0 0b 19
        E 32 b0 0b 22
        E 16 b0 0b 08
        E 0 80 3c 00
        E 0 90 3d 08
        E 16 b0 0b 11
        E 32 b0 0b 19
        E 48 b0 0b 08
        E 0 80 3d 00
        E 0 90 3c 08
        E 16 b0 0b 11
        E 32 b0 0b 19
        E 32 b0 0b 22
        E 16 b0 0b 08
        E 0 80 3c 00
        E 0 90 3d 08
        E 16 b0 0b 11
        E 32 b0 0b 19
        E 32 b0 0b 22
        E 16 b0 0b 08
        E 0 80 3d 00
        E 0 90 39 08
        E 16 b0 0b 11
        E 32 b0 0b 19
        E 32 b0 0b 22
        E 16 b0 0b 08
        E 0 80 39 00
        E 0 90 3a 08
        E 16 b0 0b 11
        E 32 b0 0b 19
        E 32 b0 0b 22
        E 16 b0 0b 08
        E 0 80 3a 00
        E 0 90 39 08
        E 16 b0 0b 11
        E 32 b0 0b 19
        E 32 b0 0b 22
        E 16 b0 0b 08
        E 0 80 39 00
        E 0 90 3a 08
        E 16 b0 0b 11
        E 32 b0 0b 19
        E 32 b0 0b 22
        E 16 b0 0b 08
        E 0 80 3a 00
        E 0 90 3c 08
        E 16 b0 0b 11
        E 32 b0 0b 19
        E 32 b0 0b 22
        E 16 b0 0b 08
        E 0 80 3c 00
        E 0 90 3d 08
        E 16 b0 0b 11
        E 32 b0 0b 19
        E 32 b0 0b 22
        E 16 b0 0b 08
        E 0 80 3d 00
        E 0 90 3c 08
        E 16 b0 0b 11
        E 32 b0 0b 19
        E 32 b0 0b 22
        E 16 b0 0b 08
        E 0 80 3c 00
        E 0 90 3d 08
        E 16 b0 0b 11
        E 32 b0 0b 19
        E 32 b0 0b 22
        E 16 b0 0b 08
        E 0 80 3d 00
        E 0 90 39 08
        E 16 b0 0b 11
        E 32 b0 0b 19
        E 32 b0 0b 22
        E 16 b0 0b 08
        E 0 80 39 00
        E 0 90 3a 08
        E 16 b0 0b 11
        E 32 b0 0b 19
        E 32 b0 0b 22
        E 16 b0 0b 08
        E 0 80 3a 00
        E 0 90 39 08
        E 16 b0 0b 11
        E 32 b0 0b 19
        E 32 b0 0b 22
        E 16 b0 0b 08
        E 0 80 39 00
        E 0 90 3a 08
        E 16 b0 0b 11
        E 32 b0 0b 19
        E 32 b0 0b 22
        E 16 b0 0b 08
        E 0 80 3a 00
        E 0 90 3c 08
        E 16 b0 0b 11
        E 32 b0 0b 19
        E 32 b0 0b 22
        E 16 b0 0b 08
        E 0 80 3c 00
        E 0 90 3d 08
        E 16 b0 0b 11
        E 32 b0 0b 19
        E 32 b0 0b 22
        E 16 b0 0b 08
        E 0 80 3d 00
        E 0 90 3c 08
        E 16 b0 0b 11
        E 32 b0 0b 19
        E 32 b0 0b 22
        E 16 b0 0b 08
        E 0 80 3c 00
        E 0 90 3d 08
        E 16 b0 0b 11
        E 32 b0 0b 19
        E 32 b0 0b 22
        E 16 b0 0b 08
        E 0 80 3d 00
        E 0 90 39 08
        E 16 b0 0b 11
        E 32 b0 0b 19
        E 32 b0 0b 22
        E 16 b0 0b 08
        E 0 80 39 00
        E 0 90 3a 08
        E 16 b0 0b 11
        E 32 b0 0b 19
        E 32 b0 0b 22
        E 16 b0 0b 08
        E 0 80 3a 00
        E 0 90 39 08
        E 16 b0 0b 11
        E 32 b0 0b 19
        E 32 b0 0b 22
        E 16 b0 0b 08
        E 0 80 39 00
        E 0 90 3a 08
        E 16 b0 0b 11
        E 32 b0 0b 19
        E 32 b0 0b 22
        E 16 b0 0b 08
        E 0 80 3a 00
        E 0 90 3c 08
        E 16 b0 0b 11
        E 32 b0 0b 19
        E 32 b0 0b 22
        E 16 b0 0b 08
        E 0 80 3c 00
        E 0 90 3d 08
        E 16 b0 0b 11
        E 32 b0 0b 19
        E 32 b0 0b 22
        E 16 b0 0b 08
        E 0 80 3d 00
        E 0 90 3c 08
        E 16 b0 0b 11
        E 32 b0 0b 19
        E 32 b0 0b 22
        E 16 b0 0b 08
        E 0 80 3c 00
        E 0 90 3d 08
        E 16 b0 0b 11
        E 32 b0 0b 19
        E 32 b0 0b 22
        E 16 b0 0b 08
        E 0 80 3d 00
        E 0 90 39 08
        E 16 b0 0b 11
        E 32 b0 0b 19
        E 32 b0 0b 22
        E 16 b0 0b 08
        E 0 80 39 00
        E 0 90 3a 08
        E 16 b0 0b 11
        E 32 b0 0b 19
        E 32 b0 0b 22
        E 16 b0 0b 08
        E 0 80 3a 00
        E 0 90 39 08
        E 16 b0 0b 11
        E 32 b0 0b 19
        E 32 b0 0b 22
        E 16 b0 0b 08
        E 0 80 39 00
        E 0 90 3a 08
        E 16 b0 0b 11
        E 32 b0 0b 19
        E 32 b0 0b 22
        E 16 b0 0b 08
        E 0 80 3a 00
        E 0 90 3c 08
        E 16 b0 0b 11
        E 32 b0 0b 19
        E 32 b0 0b 22
        E 16 b0 0b 08
        E 0 80 3c 00
        E 0 90 3d 08
        E 16 b0 0b 11
        E 32 b0 0b 19
        E 48 b0 0b 08
        E 0 80 3d 00
        E 0 90 3c 08
        E 16 b0 0b 11
        E 32 b0 0b 19
        E 32 b0 0b 22
        E 16 b0 0b 08
        E 0 80 3c 00
        E 0 90 3d 08
        E 16 b0 0b 11
        E 32 b0 0b 19
        E 32 b0 0b 22
        E 16 b0 0b 08
        E 0 80 3d 00
        E 0 90 39 08
        E 16 b0 0b 11
        E 32 b0 0b 19
        E 32 b0 0b 22
        E 16 b0 0b 08
        E 0 80 39 00
        E 0 90 3a 08
        E 16 b0 0b 11
        E 32 b0 0b 19
        E 32 b0 0b 22
        E 16 b0 0b 08
        E 0 80 3a 00
        E 0 90 39 08
        E 16 b0 0b 11
        E 32 b0 0b 19
        E 32 b0 0b 22
        E 16 b0 0b 08
        E 0 80 39 00
        E 0 90 3a 08
        E 16 b0 0b 11
        E 32 b0 0b 19
        E 32 b0 0b 22
        E 16 b0 0b 08
        E 0 80 3a 00
        E 0 90 3c 08
        E 16 b0 0b 11
        E 32 b0 0b 19
        E 32 b0 0b 22
        E 16 b0 0b 08
        E 0 80 3c 00
        E 0 90 3d 08
        E 16 b0 0b 11
        E 32 b0 0b 19
        E 32 b0 0b 22
        E 16 b0 0b 08
        E 0 80 3d 00
        E 0 90 3c 08
        E 16 b0 0b 11
        E 32 b0 0b 19
        E 32 b0 0b 22
        E 16 b0 0b 08
        E 0 80 3c 00
        E 0 90 3d 08
        E 16 b0 0b 11
        E 32 b0 0b 19
        E 32 b0 0b 22
        E 16 b0 0b 08
        E 0 80 3d 00
        E 0 90 39 08
        E 16 b0 0b 11
        E 32 b0 0b 19
        E 32 b0 0b 22
        E 16 b0 0b 08
        E 0 80 39 00
        E 0 90 3a 08
        E 16 b0 0b 11
        E 32 b0 0b 19
        E 32 b0 0b 22
        E 16 b0 0b 08
        E 0 80 3a 00
        E 0 90 39 08
        E 16 b0 0b 11
        E 32 b0 0b 19
        E 32 b0 0b 22
        E 16 b0 0b 08
        E 0 80 39 00
        E 0 90 3a 08
        E 16 b0 0b 11
        E 32 b0 0b 19
        E 32 b0 0b 22
        E 16 b0 0b 08
        E 0 80 3a 00
        E 0 90 3c 08
        E 16 b0 0b 11
        E 32 b0 0b 19
        E 32 b0 0b 22
        E 16 b0 0b 08
        E 0 80 3c 00
        E 0 90 3d 08
        E 16 b0 0b 11
        E 32 b0 0b 19
        E 32 b0 0b 22
        E 16 b0 0b 08
        E 0 80 3d 00
        E 0 90 3c 08
        E 16 b0 0b 11
        E 32 b0 0b 19
        E 32 b0 0b 22
        E 16 b0 0b 08
        E 0 80 3c 00
        E 0 90 3d 08
        E 16 b0 0b 11
        E 32 b0 0b 19
        E 32 b0 0b 22
        E 16 b0 0b 08
        E 0 80 3d 00
        E 0 90 39 08
        E 16 b0 0b 11
        E 32 b0 0b 19
        E 32 b0 0b 22
        E 16 b0 0b 08
        E 0 80 39 00
        E 0 90 3a 08
        E 16 b0 0b 11
        E 32 b0 0b 19
        E 32 b0 0b 22
        E 16 b0 0b 08
        E 0 80 3a 00
        E 0 90 39 08
        E 16 b0 0b 11
        E 32 b0 0b 19
        E 32 b0 0b 22
        E 16 b0 0b 08
        E 0 80 39 00
        E 0 90 3a 08
        E 16 b0 0b 11
        E 32 b0 0b 19
        E 32 b0 0b 22
        E 16 b0 0b 08
        E 0 80 3a 00
        E 0 90 3c 08
        E 16 b0 0b 11
        E 32 b0 0b 19
        E 32 b0 0b 22
        E 16 b0 0b 08
        E 0 80 3c 00
        E 0 90 3d 08
        E 16 b0 0b 11
        E 32 b0 0b 19
        E 32 b0 0b 22
        E 16 b0 0b 08
        E 0 80 3d 00
        E 0 90 3c 08
        E 16 b0 0b 11
        E 32 b0 0b 19
        E 32 b0 0b 22
        E 16 b0 0b 08
        E 0 80 3c 00
        E 0 90 3d 08
        E 16 b0 0b 11
        E 32 b0 0b 19
        E 32 b0 0b 22
        E 16 b0 0b 08
        E 0 80 3d 00
        E 0 90 39 08
        E 16 b0 0b 11
        E 32 b0 0b 19
        E 32 b0 0b 22
        E 16 b0 0b 08
        E 0 80 39 00
        E 0 90 3a 08
        E 16 b0 0b 11
        E 32 b0 0b 19
        E 32 b0 0b 22
        E 16 b0 0b 08
        E 0 80 3a 00
        E 0 90 39 08
        E 16 b0 0b 11
        E 32 b0 0b 19
        E 32 b0 0b 22
        E 16 b0 0b 08
        E 0 80 39 00
        E 0 90 3a 08
        E 16 b0 0b 11
        E 32 b0 0b 19
        E 32 b0 0b 22
        E 16 b0 0b 08
        E 0 80 3a 00
        E 0 90 3c 08
        E 16 b0 0b 11
        E 32 b0 0b 19
        E 32 b0 0b 22
        E 16 b0 0b 08
        E 0 80 3c 00
        E 0 90 3d 08
        E 16 b0 0b 11
        E 32 b0 0b 19
        E 32 b0 0b 22
        E 16 b0 0b 08
        E 0 80 3d 00
        E 0 90 3c 08
        E 16 b0 0b 11
        E 32 b0 0b 19
        E 32 b0 0b 22
        E 16 b0 0b 08
        E 0 80 3c 00
        E 0 90 3d 08
        E 16 b0 0b 11
        E 32 b0 0b 19
        E 32 b0 0b 22
        E 16 b0 0b 08
        E 0 80 3d 00
        E 0 90 39 08
        E 16 b0 0b 11
        E 32 b0 0b 19
        E 32 b0 0b 22
        E 16 b0 0b 08
        E 0 80 39 00
        E 0 90 3a 08
        E 16 b0 0b 11
        E 32 b0 0b 19
        E 32 b0 0b 22
        E 16 b0 0b 08
        E 0 80 3a 00
        E 0 90 39 08
        E 16 b0 0b 11
        E 32 b0 0b 19
        E 32 b0 0b 22
        E 16 b0 0b 08
        E 0 80 39 00
        E 0 90 3a 08
        E 16 b0 0b 11
        E 32 b0 0b 19
        E 32 b0 0b 22
        E 16 b0 0b 08
        E 0 80 3a 00
        E 0 90 3c 08
        E 16 b0 0b 11
        E 32 b0 0b 19
        E 32 b0 0b 22
        E 16 b0 0b 08
        E 0 80 3c 00
        E 0 90 3d 08
        E 16 b0 0b 11
        E 32 b0 0b 19
        E 32 b0 0b 22
        E 16 b0 0b 08
        E 0 80 3d 00
        E 0 90 3c 08
        E 16 b0 0b 11
        E 32 b0 0b 19
        E 32 b0 0b 22
        E 16 b0 0b 08
        E 0 80 3c 00
        E 0 90 3d 08
        E 16 b0 0b 11
        E 32 b0 0b 19
        E 32 b0 0b 22
        E 16 b0 0b 08
        E 0 80 3d 00
        E 0 90 39 08
        E 16 b0 0b 11
        E 32 b0 0b 19
        E 32 b0 0b 22
        E 16 b0 0b 08
        E 0 80 39 00
        E 0 90 3a 08
        E 16 b0 0b 11
        E 32 b0 0b 19
        E 32 b0 0b 22
        E 16 b0 0b 08
        E 0 80 3a 00
        E 0 90 39 08
        E 16 b0 0b 11
        E 32 b0 0b 19
        E 32 b0 0b 22
        E 16 b0 0b 08
        E 0 80 39 00
        E 0 90 3a 08
        E 16 b0 0b 11
        E 32 b0 0b 19
        E 32 b0 0b 22
        E 16 b0 0b 08
        E 0 80 3a 00
        E 0 90 3c 08
        E 16 b0 0b 11
        E 32 b0 0b 19
        E 32 b0 0b 22
        E 16 b0 0b 08
        E 0 80 3c 00
        E 0 90 3d 08
        E 16 b0 0b 11
        E 32 b0 0b 19
        E 32 b0 0b 22
        E 16 b0 0b 08
        E 0 80 3d 00
        E 0 90 3c 08
        E 16 b0 0b 11
        E 32 b0 0b 19
        E 32 b0 0b 22
        E 16 b0 0b 08
        E 0 80 3c 00
        E 0 90 3d 08
        E 16 b0 0b 11
        E 32 b0 0b 19
        E 32 b0 0b 22
        E 16 b0 0b 08
        E 0 80 3d 00
        E 0 90 39 08
        E 16 b0 0b 11
        E 32 b0 0b 19
        E 32 b0 0b 22
        E 16 b0 0b 08
        E 0 80 39 00
        E 0 90 3a 08
        E 16 b0 0b 11
        E 32 b0 0b 19
        E 32 b0 0b 22
        E 16 b0 0b 08
        E 0 80 3a 00
        E 0 90 39 08
        E 16 b0 0b 11
        E 32 b0 0b 19
        E 32 b0 0b 22
        E 16 b0 0b 08
        E 0 80 39 00
        E 0 90 3a 08
        E 16 b0 0b 11
        E 32 b0 0b 19
        E 32 b0 0b 22
        E 16 b0 0b 08
        E 0 80 3a 00
        E 0 90 3c 08
        E 16 b0 0b 11
        E 32 b0 0b 19
        E 32 b0 0b 22
        E 16 b0 0b 08
        E 0 80 3c 00
        E 0 90 3d 08
        E 16 b0 0b 11
        E 32 b0 0b 19
        E 32 b0 0b 22
        E 16 b0 0b 08
        E 0 80 3d 00
        E 0 90 3c 08
        E 16 b0 0b 11
        E 32 b0 0b 19
        E 32 b0 0b 22
        E 16 b0 0b 08
        E 0 80 3c 00
        E 0 90 3d 08
        E 16 b0 0b 11
        E 32 b0 0b 19
        E 32 b0 0b 22
        E 16 b0 0b 08
        E 0 80 3d 00
        E 0 90 39 08
        E 16 b0 0b 11
        E 32 b0 0b 19
        E 32 b0 0b 22
        E 16 b0 0b 08
        E 0 80 39 00
        E 0 90 3a 08
        E 16 b0 0b 11
        E 32 b0 0b 19
        E 32 b0 0b 22
        E 16 b0 0b 08
        E 0 80 3a 00
        E 0 90 39 08
        E 16 b0 0b 11
        E 32 b0 0b 19
        E 32 b0 0b 22
        E 16 b0 0b 08
        E 0 80 39 00
        E 0 90 3a 08
        E 16 b0 0b 11
        E 32 b0 0b 19
        E 32 b0 0b 22
        E 16 b0 0b 08
        E 0 80 3a 00
        E 0 90 3c 08
        E 16 b0 0b 11
        E 32 b0 0b 19
        E 32 b0 0b 22
        E 16 b0 0b 08
        E 0 80 3c 00
        E 0 90 3d 08
        E 16 b0 0b 11
        E 32 b0 0b 19
        E 32 b0 0b 22
        E 16 b0 0b 08
        E 0 80 3d 00
        E 0 90 3c 08
        E 16 b0 0b 11
        E 32 b0 0b 19
        E 32 b0 0b 22
        E 16 b0 0b 08
        E 0 80 3c 00
        E 0 90 3d 08
        E 16 b0 0b 11
        E 32 b0 0b 19
        E 32 b0 0b 22
        E 16 b0 0b 08
        E 0 80 3d 00
        E 0 90 39 08
        E 16 b0 0b 11
        E 32 b0 0b 19
        E 32 b0 0b 22
        E 16 b0 0b 08
        E 0 80 39 00
        E 0 90 3a 08
        E 16 b0 0b 11
        E 32 b0 0b 19
        E 32 b0 0b 22
        E 16 b0 0b 08
        E 0 80 3a 00
        E 0 90 39 08
        E 16 b0 0b 11
        E 32 b0 0b 19
        E 32 b0 0b 22
        E 16 b0 0b 08
        E 0 80 39 00
        E 0 90 3a 08
        E 16 b0 0b 11
        E 32 b0 0b 19
        E 32 b0 0b 22
        E 16 b0 0b 08
        E 0 80 3a 00
        E 0 90 3c 08
        E 16 b0 0b 11
        E 32 b0 0b 19
        E 32 b0 0b 22
        E 16 b0 0b 08
        E 0 80 3c 00
        E 0 90 3d 08
        E 16 b0 0b 11
        E 32 b0 0b 19
        E 32 b0 0b 22
        E 16 b0 0b 08
        E 0 80 3d 00
        E 0 90 3c 08
        E 16 b0 0b 11
        E 32 b0 0b 19
        E 32 b0 0b 22
        E 16 b0 0b 08
        E 0 80 3c 00
        E 0 90 3d 08
        E 16 b0 0b 11
        E 32 b0 0b 19
        E 32 b0 0b 22
        E 32 b0 0b 08
        E 16 b0 0b 11
        E 32 b0 0b 19
        E 32 b0 0b 22
        E 32 b0 0b 2a
        E 32 80 3d 00
        E 3984 b0 0b 08
        E 0 90 28 08
        E 16 b0 0b 11
        E 32 b0 0b 19
        E 32 b0 0b 22
        E 32 b0 0b 2a
        E 32 80 28 00
        E 1008 b0 0b 08
        E 0 90 26 08
        E 16 b0 0b 11
        E 32 b0 0b 19
        E 32 b0 0b 22
        E 32 b0 0b 2a
        E 32 80 26 00
        E 48 b0 0b 08
        E 0 90 28 08
        E 16 b0 0b 11
        E 32 b0 0b 19
        E 32 b0 0b 22
        E 32 b0 0b 2a
        E 32 80 28 00
        E 48 b0 0b 08
        E 0 90 29 08
        E 16 b0 0b 11
        E 32 b0 0b 19
        E 32 b0 0b 22
        E 32 b0 0b 2a
        E 32 80 29 00
        E 624 b0 0b 08
        E 0 90 2b 08
        E 16 b0 0b 11
        E 32 b0 0b 19
        E 32 b0 0b 22
        E 32 b0 0b 2a
        E 32 80 2b 00
        E 240 b0 0b 08
        E 0 90 29 08
        E 16 b0 0b 11
        E 32 b0 0b 19
        E 32 b0 0b 22
        E 32 b0 0b 2a
        E 32 80 29 00
        E 240 b0 0b 08
        E 0 90 28 08
        E 16 b0 0b 11
        E 32 b0 0b 19
        E 32 b0 0b 22
        E 32 b0 0b 2a
        E 32 80 28 00
        E 1392 b0 0b 08
        E 0 90 23 08
        E 16 b0 0b 11
        E 32 b0 0b 19
        E 32 b0 0b 22
        E 32 b0 0b 2a
        E 32 80 23 00
        E 624 b0 0b 08
        E 0 90 24 08
        E 16 b0 0b 11
        E 32 b0 0b 19
        E 32 b0 0b 22
        E 32 b0 0b 2a
        E 32 80 24 00
        E 240 b0 0b 08
        E 0 90 20 08
        E 16 b0 0b 11
        E 32 b0 0b 19
        E 32 b0 0b 22
        E 32 b0 0b 2a
        E 32 80 20 00
        E 240 b0 0b 08
        E 0 90 21 08
        E 16 b0 0b 11
        E 32 b0 0b 19
        E 32 b0 0b 22
        E 32 b0 0b 2a
        E 32 80 21 00
        E 1392 b0 0b 08
        E 0 90 27 08
        E 16 b0 0b 11
        E 32 b0 0b 19
        E 32 b0 0b 22
        E 32 b0 0b 2a
        E 32 80 27 00
        E 1392 b0 0b 08
        E 0 90 28 08
        E 16 b0 0b 11
        E 32 b0 0b 19
        E 32 b0 0b 22
        E 32 b0 0b 2a
        E 32 80 28 00
        E 1008 b0 0b 08
        E 0 90 26 08
        E 16 b0 0b 11
        E 32 b0 0b 19
        E 32 b0 0b 22
        E 32 b0 0b 2a
        E 32 80 26 00
        E 48 b0 0b 08
        E 0 90 28 08
        E 16 b0 0b 11
        E 32 b0 0b 19
        E 32 b0 0b 22
        E 32 b0 0b 2a
        E 32 80 28 00
        E 48 b0 0b 08
        E 0 90 29 08
        E 16 b0 0b 11
        E 32 b0 0b 19
        E 32 b0 0b 22
        E 32 b0 0b 2a
        E 32 80 29 00
        E 624 b0 0b 08
        E 0 90 2b 08
        E 16 b0 0b 11
        E 32 b0 0b 19
        E 32 b0 0b 22
        E 32 b0 0b 2a
        E 32 80 2b 00
        E 240 b0 0b 08
        E 0 90 29 08
        E 16 b0 0b 11
        E 32 b0 0b 19
        E 32 b0 0b 22
        E 32 b0 0b 2a
        E 32 80 29 00
        E 240 b0 0b 08
        E 0 90 28 08
        E 16 b0 0b 11
        E 32 b0 0b 19
        E 32 b0 0b 22
        E 32 b0 0b 2a
        E 32 80 28 00
        E 1392 b0 0b 08
        E 0 90 23 08
        E 16 b0 0b 11
        E 32 b0 0b 19
        E 32 b0 0b 22
        E 32 b0 0b 2a
        E 32 80 23 00
        E 624 b0 0b 08
        E 0 90 24 08
        E 16 b0 0b 11
        E 32 b0 0b 19
        E 32 b0 0b 22
        E 32 b0 0b 2a
        E 32 80 24 00
        E 240 b0 0b 08
        E 0 90 20 08
        E 16 b0 0b 11
        E 32 b0 0b 19
        E 32 b0 0b 22
        E 32 b0 0b 2a
        E 32 80 20 00
        E 240 b0 0b 08
        E 0 90 21 08
        E 16 b0 0b 11
        E 32 b0 0b 19
        E 32 b0 0b 22
        E 32 b0 0b 2a
        E 32 80 21 00
        E 1392 b0 0b 08
        E 0 90 27 08
        E 16 b0 0b 11
        E 32 b0 0b 19
        E 32 b0 0b 22
        E 32 b0 0b 2a
        E 32 80 27 00
        E 1392 b0 0b 08
        E 0 90 2d 08
        E 16 b0 0b 11
        E 32 b0 0b 19
        E 32 b0 0b 22
        E 32 b0 0b 2a
        E 32 80 2d 00
        E 1008 b0 0b 08
        E 0 90 2b 08
        E 16 b0 0b 11
        E 32 b0 0b 19
        E 32 b0 0b 22
        E 32 b0 0b 2a
        E 32 80 2b 00
        E 48 b0 0b 08
        E 0 90 2d 08
        E 16 b0 0b 11
        E 32 b0 0b 19
        E 32 b0 0b 22
        E 32 b0 0b 2a
        E 32 80 2d 00
        E 48 b0 0b 08
        E 0 90 2e 08
        E 16 b0 0b 11
        E 32 b0 0b 19
        E 32 b0 0b 22
        E 32 b0 0b 2a
        E 32 80 2e 00
        E 624 b0 0b 08
        E 0 90 30 08
        E 16 b0 0b 11
        E 32 b0 0b 19
        E 32 b0 0b 22
        E 32 b0 0b 2a
        E 32 80 30 00
        E 240 b0 0b 08
        E 0 90 2e 08
        E 16 b0 0b 11
        E 32 b0 0b 19
        E 32 b0 0b 22
        E 32 b0 0b 2a
        E 32 80 2e 00
        E 240 b0 0b 08
        E 0 90 2d 08
        E 16 b0 0b 11
        E 32 b0 0b 19
        E 32 b0 0b 22
        E 32 b0 0b 2a
        E 32 80 2d 00
        E 1392 b0 0b 08
        E 0 90 28 08
        E 16 b0 0b 11
        E 32 b0 0b 19
        E 32 b0 0b 22
        E 32 b0 0b 2a
        E 32 80 28 00
        E 624 b0 0b 08
        E 0 90 29 08
        E 16 b0 0b 11
        E 32 b0 0b 19
        E 32 b0 0b 22
        E 32 b0 0b 2a
        E 32 80 29 00
        E 240 b0 0b 08
        E 0 90 25 08
        E 16 b0 0b 11
        E 32 b0 0b 19
        E 32 b0 0b 22
        E 32 b0 0b 2a
        E 32 80 25 00
        E 240 b0 0b 08
        E 0 90 26 08
        E 16 b0 0b 11
        E 32 b0 0b 19
        E 32 b0 0b 22
        E 32 b0 0b 2a
        E 32 80 26 00
        E 1392 b0 0b 08
        E 0 90 2c 08
        E 16 b0 0b 11
        E 32 b0 0b 19
        E 32 b0 0b 22
        E 32 b0 0b 2a
        E 32 80 2c 00
        E 1392 b0 0b 08
        E 0 90 2d 08
        E 16 b0 0b 11
        E 32 b0 0b 19
        E 32 b0 0b 22
        E 32 b0 0b 2a
        E 32 80 2d 00
        E 1008 b0 0b 08
        E 0 90 2b 08
        E 16 b0 0b 11
        E 32 b0 0b 19
        E 32 b0 0b 22
        E 32 b0 0b 2a
        E 32 80 2b 00
        E 48 b0 0b 08
        E 0 90 2d 08
        E 32 b0 0b 11
        E 32 b0 0b 19
        E 32 b0 0b 22
        E 32 b0 0b 2a
        E 32 80 2d 00
        E 32 b0 0b 08
        E 0 90 2e 08
        E 16 b0 0b 11
        E 32 b0 0b 19
        E 32 b0 0b 22
        E 32 b0 0b 2a
        E 32 80 2e 00
        E 624 b0 0b 08
        E 0 90 30 08
        E 16 b0 0b 11
        E 32 b0 0b 19
        E 32 b0 0b 22
        E 32 b0 0b 2a
        E 32 80 30 00
        E 240 b0 0b 08
        E 0 90 2e 08
        E 16 b0 0b 11
        E 32 b0 0b 19
        E 32 b0 0b 22
        E 32 b0 0b 2a
        E 32 80 2e 00
        E 240 b0 0b 08
        E 0 90 2d 08
        E 16 b0 0b 11
        E 32 b0 0b 19
        E 32 b0 0b 22
        E 32 b0 0b 2a
        E 32 80 2d 00
        E 1392 b0 0b 08
        E 0 90 28 08
        E 16 b0 0b 11
        E 32 b0 0b 19
        E 32 b0 0b 22
        E 32 b0 0b 2a
        E 32 80 28 00
        E 624 b0 0b 08
        E 0 90 29 08
        E 16 b0 0b 11
        E 32 b0 0b 19
        E 32 b0 0b 22
        E 32 b0 0b 2a
        E 32 80 29 00
        E 240 b0 0b 08
        E 0 90 25 08
        E 16 b0 0b 11
        E 32 b0 0b 19
        E 32 b0 0b 22
        E 32 b0 0b 2a
        E 32 80 25 00
        E 240 b0 0b 08
        E 0 90 26 08
        E 16 b0 0b 11
        E 32 b0 0b 19
        E 32 b0 0b 22
        E 32 b0 0b 2a
        E 32 80 26 00
        E 1392 b0 0b 08
        E 0 90 2c 08
        E 16 b0 0b 11
        E 32 b0 0b 19
        E 32 b0 0b 22
        E 32 b0 0b 2a
        E 32 80 2c 00
        E 576 b0 7b 00
        E 0 ff 2f 00
      >
    >
  >
  <TRACK {0E2A66B4-53BD-4592-9567-95A1F9D58964}
    NAME "NES - Pulse 2 [ch1]"
    PEAKCOL 10092441
    BEAT -1
    AUTOMODE 0
    PANLAWFLAGS 3
    VOLPAN 1 0 -1 -1 1
    MUTESOLO 0 0 0
    IPHASE 0
    PLAYOFFS 0 1
    ISBUS 0 0
    BUSCOMP 0 0 0 0 0
    SHOWINMIX 1 0.6667 0.5 1 0.5 0 0 0
    FIXEDLANES 9 0 0 0 0
    SEL 0
    REC 0 5088 1 0 0 0 0 0
    VU 2
    TRACKHEIGHT 0 0 0 0 0 0 0
    INQ 0 0 0 0.5 100 0 0 100
    NCHAN 2
    FX 1
    TRACKID {0E2A66B4-53BD-4592-9567-95A1F9D58964}
    PERF 0
    MIDIOUT -1
    MAINSEND 1 0
    <FXCHAIN
      WNDRECT 24 52 700 560
      SHOW 0
      LASTSEL 0
      DOCKED 0
      BYPASS 0 0 0
      <JS "ReapNES Studio/ReapNES_Console.jsfx" ""
        2 15 1 10 80 10 100 2 1 15 1 5 60 10 80 1 1 0 50 0 0 15 1 0 100 0 0 0.500000 0.500000 0.400000 0.300000 0.800000 1 1 0 0 0 0 - - - - - - - - - - - - - - - - - - - - - - - - - -
      >
      FLOATPOS 0 0 0 0
      FXID {3B2BC31B-070F-40AE-8D24-44423E9E3FD5}
      WAK 0 0
    >
    <ITEM
      POSITION 0
      LENGTH 74.65008
      LOOP 0
      ALLTAKES 0
      FADEIN 0 0 0 0 0 0 0
      FADEOUT 0 0 0 0 0 0 0
      MUTE 0 0
      SEL 0
      IGUID {54AC20CE-3221-460E-BA90-219D8AE6D259}
      <SOURCE MIDI
        HASDATA 1 480 QN
        CCINTERP 32
        E 0 c1 51
        E 0 b1 0c 10
        E 0 b1 0b 08
        E 0 91 40 08
        E 16 b1 0b 11
        E 32 b1 0b 19
        E 32 b1 0b 22
        E 32 b1 0b 2a
        E 16 81 40 00
        E 128 b1 0b 08
        E 0 91 40 08
        E 16 b1 0b 11
        E 32 b1 0b 19
        E 32 b1 0b 22
        E 32 b1 0b 2a
        E 16 b1 0b 08
        E 0 81 40 00
        E 0 91 45 08
        E 16 b1 0b 11
        E 32 b1 0b 19
        E 32 b1 0b 22
        E 32 b1 0b 2a
        E 16 81 45 00
        E 128 b1 0b 08
        E 0 91 40 08
        E 16 b1 0b 11
        E 32 b1 0b 19
        E 32 b1 0b 22
        E 32 b1 0b 2a
        E 16 b1 0b 08
        E 0 81 40 00
        E 0 91 45 08
        E 16 b1 0b 11
        E 32 b1 0b 19
        E 32 b1 0b 22
        E 32 b1 0b 2a
        E 16 81 45 00
        E 128 b1 0b 08
        E 0 91 49 08
        E 16 b1 0b 11
        E 32 b1 0b 19
        E 32 b1 0b 22
        E 32 b1 0b 2a
        E 16 b1 0b 08
        E 0 81 49 00
        E 0 91 45 08
        E 16 b1 0b 11
        E 32 b1 0b 19
        E 32 b1 0b 22
        E 32 b1 0b 2a
        E 32 81 45 00
        E 240 b1 0b 08
        E 0 91 45 08
        E 16 b1 0b 11
        E 32 b1 0b 19
        E 32 b1 0b 22
        E 32 b1 0b 2a
        E 16 81 45 00
        E 128 b1 0b 08
        E 0 91 45 08
        E 16 b1 0b 11
        E 32 b1 0b 19
        E 32 b1 0b 22
        E 32 b1 0b 2a
        E 16 b1 0b 08
        E 0 81 45 00
        E 0 91 49 08
        E 16 b1 0b 11
        E 32 b1 0b 19
        E 32 b1 0b 22
        E 32 b1 0b 2a
        E 16 81 49 00
        E 128 b1 0b 08
        E 0 91 45 08
        E 16 b1 0b 11
        E 32 b1 0b 19
        E 32 b1 0b 22
        E 32 b1 0b 2a
        E 16 b1 0b 08
        E 0 81 45 00
        E 0 91 4c 08
        E 16 b1 0b 11
        E 32 b1 0b 19
        E 32 b1 0b 22
        E 32 b1 0b 2a
        E 16 81 4c 00
        E 256 b1 0b 08
        E 0 91 4c 08
        E 16 b1 0b 11
        E 32 b1 0b 19
        E 32 b1 0b 22
        E 32 b1 0b 2a
        E 16 81 4c 00
        E 672 b1 0b 08
        E 0 91 39 08
        E 16 b1 0b 11
        E 32 b1 0b 19
        E 32 b1 0b 22
        E 32 b1 0b 2a
        E 32 81 39 00
        E 224 b1 0b 08
        E 0 91 45 08
        E 16 b1 0b 11
        E 32 b1 0b 19
        E 32 b1 0b 22
        E 32 b1 0b 2a
        E 16 81 45 00
        E 128 b1 0b 08
        E 0 91 45 08
        E 16 b1 0b 11
        E 32 b1 0b 19
        E 32 b1 0b 22
        E 32 b1 0b 2a
        E 16 81 45 00
        E 192 b1 0b 08
        E 0 91 45 08
        E 16 b1 0b 11
        E 32 b1 0b 19
        E 32 b1 0b 22
        E 16 b1 0b 08
        E 16 b1 0b 11
        E 32 b1 0b 19
        E 32 b1 0b 22
        E 16 b1 0b 08
        E 16 b1 0b 11
        E 32 b1 0b 19
        E 32 b1 0b 22
        E 32 b1 0b 2a
        E 16 81 45 00
        E 128 b1 0b 08
        E 0 91 45 08
        E 16 b1 0b 11
        E 32 b1 0b 19
        E 32 b1 0b 22
        E 32 b1 0b 2a
        E 16 b1 0b 08
        E 0 81 45 00
        E 0 91 39 08
        E 16 b1 0b 11
        E 32 b1 0b 19
        E 32 b1 0b 22
        E 32 b1 0b 2a
        E 32 81 39 00
        E 240 b1 0b 08
        E 0 91 45 08
        E 16 b1 0b 11
        E 32 b1 0b 19
        E 32 b1 0b 22
        E 32 b1 0b 2a
        E 16 81 45 00
        E 128 b1 0b 08
        E 0 91 45 08
        E 16 b1 0b 11
        E 32 b1 0b 19
        E 32 b1 0b 22
        E 32 b1 0b 2a
        E 16 81 45 00
        E 192 b1 0b 08
        E 0 91 45 08
        E 16 b1 0b 11
        E 32 b1 0b 19
        E 32 b1 0b 22
        E 16 b1 0b 08
        E 16 b1 0b 11
        E 32 b1 0b 19
        E 32 b1 0b 22
        E 16 b1 0b 08
        E 16 b1 0b 11
        E 32 b1 0b 19
        E 32 b1 0b 22
        E 32 b1 0b 2a
        E 16 81 45 00
        E 128 b1 0b 08
        E 0 91 45 08
        E 16 b1 0b 11
        E 32 b1 0b 19
        E 32 b1 0b 22
        E 32 b1 0b 2a
        E 32 b1 0b 08
        E 16 b1 0b 11
        E 32 b1 0b 19
        E 32 b1 0b 22
        E 32 b1 0b 2a
        E 32 81 45 00
        E 4320 b1 0b 08
        E 0 91 18 08
        E 16 b1 0b 11
        E 32 b1 0b 19
        E 32 b1 0b 22
        E 32 b1 0b 2a
        E 32 81 18 00
        E 240 b1 0b 08
        E 0 91 18 08
        E 16 b1 0b 11
        E 32 b1 0b 19
        E 32 b1 0b 22
        E 32 b1 0b 2a
        E 32 81 18 00
        E 240 b1 0b 08
        E 0 91 18 08
        E 16 b1 0b 11
        E 32 b1 0b 19
        E 32 b1 0b 22
        E 32 b1 0b 2a
        E 32 81 18 00
        E 240 b1 0b 08
        E 0 91 18 08
        E 16 b1 0b 11
        E 32 b1 0b 19
        E 32 b1 0b 22
        E 32 b1 0b 2a
        E 32 81 18 00
        E 240 b1 0b 08
        E 0 91 18 08
        E 16 b1 0b 11
        E 32 b1 0b 19
        E 32 b1 0b 22
        E 32 b1 0b 2a
        E 32 81 18 00
        E 240 b1 0b 08
        E 0 91 18 08
        E 16 b1 0b 11
        E 32 b1 0b 19
        E 32 b1 0b 22
        E 32 b1 0b 2a
        E 32 81 18 00
        E 240 b1 0b 08
        E 0 91 18 08
        E 16 b1 0b 11
        E 32 b1 0b 19
        E 32 b1 0b 22
        E 32 b1 0b 2a
        E 32 81 18 00
        E 256 b1 0b 08
        E 0 91 18 08
        E 16 b1 0b 11
        E 32 b1 0b 19
        E 32 b1 0b 22
        E 32 b1 0b 2a
        E 32 81 18 00
        E 240 b1 0b 08
        E 0 91 18 08
        E 16 b1 0b 11
        E 32 b1 0b 19
        E 32 b1 0b 22
        E 32 b1 0b 2a
        E 32 81 18 00
        E 240 b1 0b 08
        E 0 91 18 08
        E 16 b1 0b 11
        E 32 b1 0b 19
        E 32 b1 0b 22
        E 32 b1 0b 2a
        E 32 81 18 00
        E 240 b1 0b 08
        E 0 91 18 08
        E 16 b1 0b 11
        E 32 b1 0b 19
        E 32 b1 0b 22
        E 32 b1 0b 2a
        E 32 81 18 00
        E 240 b1 0b 08
        E 0 91 18 08
        E 16 b1 0b 11
        E 32 b1 0b 19
        E 32 b1 0b 22
        E 32 b1 0b 2a
        E 32 81 18 00
        E 240 b1 0b 08
        E 0 91 18 08
        E 16 b1 0b 11
        E 32 b1 0b 19
        E 32 b1 0b 22
        E 32 b1 0b 2a
        E 32 81 18 00
        E 240 b1 0b 08
        E 0 91 18 08
        E 16 b1 0b 11
        E 32 b1 0b 19
        E 32 b1 0b 22
        E 32 b1 0b 2a
        E 32 81 18 00
        E 240 b1 0b 08
        E 0 91 18 08
        E 16 b1 0b 11
        E 32 b1 0b 19
        E 32 b1 0b 22
        E 32 b1 0b 2a
        E 32 81 18 00
        E 240 b1 0b 08
        E 0 91 18 08
        E 16 b1 0b 11
        E 32 b1 0b 19
        E 32 b1 0b 22
        E 32 b1 0b 2a
        E 32 81 18 00
        E 240 b1 0b 08
        E 0 91 39 08
        E 16 b1 0b 11
        E 32 b1 0b 19
        E 32 b1 0b 22
        E 16 b1 0b 08
        E 0 81 39 00
        E 0 91 3a 08
        E 16 b1 0b 11
        E 32 b1 0b 19
        E 32 b1 0b 22
        E 16 b1 0b 08
        E 0 81 3a 00
        E 0 91 39 08
        E 16 b1 0b 11
        E 32 b1 0b 19
        E 32 b1 0b 22
        E 16 b1 0b 08
        E 0 81 39 00
        E 0 91 3a 08
        E 16 b1 0b 11
        E 32 b1 0b 19
        E 32 b1 0b 22
        E 16 b1 0b 08
        E 0 81 3a 00
        E 0 91 3c 08
        E 16 b1 0b 11
        E 32 b1 0b 19
        E 32 b1 0b 22
        E 16 b1 0b 08
        E 0 81 3c 00
        E 0 91 3d 08
        E 16 b1 0b 11
        E 32 b1 0b 19
        E 32 b1 0b 22
        E 16 b1 0b 08
        E 0 81 3d 00
        E 0 91 3c 08
        E 16 b1 0b 11
        E 32 b1 0b 19
        E 32 b1 0b 22
        E 16 b1 0b 08
        E 0 81 3c 00
        E 0 91 3d 08
        E 16 b1 0b 11
        E 32 b1 0b 19
        E 32 b1 0b 22
        E 16 b1 0b 08
        E 0 81 3d 00
        E 0 91 39 08
        E 16 b1 0b 11
        E 32 b1 0b 19
        E 32 b1 0b 22
        E 16 b1 0b 08
        E 0 81 39 00
        E 0 91 3a 08
        E 16 b1 0b 11
        E 32 b1 0b 19
        E 32 b1 0b 22
        E 16 b1 0b 08
        E 0 81 3a 00
        E 0 91 39 08
        E 16 b1 0b 11
        E 32 b1 0b 19
        E 32 b1 0b 22
        E 16 b1 0b 08
        E 0 81 39 00
        E 0 91 3a 08
        E 16 b1 0b 11
        E 32 b1 0b 19
        E 32 b1 0b 22
        E 16 b1 0b 08
        E 0 81 3a 00
        E 0 91 3c 08
        E 16 b1 0b 11
        E 32 b1 0b 19
        E 32 b1 0b 22
        E 16 b1 0b 08
        E 0 81 3c 00
        E 0 91 3d 08
        E 16 b1 0b 11
        E 32 b1 0b 19
        E 32 b1 0b 22
        E 16 b1 0b 08
        E 0 81 3d 00
        E 0 91 3c 08
        E 16 b1 0b 11
        E 32 b1 0b 19
        E 32 b1 0b 22
        E 16 b1 0b 08
        E 0 81 3c 00
        E 0 91 3d 08
        E 16 b1 0b 11
        E 32 b1 0b 19
        E 32 b1 0b 22
        E 16 b1 0b 08
        E 0 81 3d 00
        E 0 91 39 08
        E 16 b1 0b 11
        E 32 b1 0b 19
        E 32 b1 0b 22
        E 16 b1 0b 08
        E 0 81 39 00
        E 0 91 3a 08
        E 16 b1 0b 11
        E 32 b1 0b 19
        E 48 b1 0b 08
        E 0 81 3a 00
        E 0 91 39 08
        E 16 b1 0b 11
        E 32 b1 0b 19
        E 32 b1 0b 22
        E 16 b1 0b 08
        E 0 81 39 00
        E 0 91 3a 08
        E 16 b1 0b 11
        E 32 b1 0b 19
        E 32 b1 0b 22
        E 16 b1 0b 08
        E 0 81 3a 00
        E 0 91 3c 08
        E 16 b1 0b 11
        E 32 b1 0b 19
        E 32 b1 0b 22
        E 16 b1 0b 08
        E 0 81 3c 00
        E 0 91 3d 08
        E 16 b1 0b 11
        E 32 b1 0b 19
        E 32 b1 0b 22
        E 16 b1 0b 08
        E 0 81 3d 00
        E 0 91 3c 08
        E 16 b1 0b 11
        E 32 b1 0b 19
        E 32 b1 0b 22
        E 16 b1 0b 08
        E 0 81 3c 00
        E 0 91 3d 08
        E 16 b1 0b 11
        E 32 b1 0b 19
        E 32 b1 0b 22
        E 16 b1 0b 08
        E 0 81 3d 00
        E 0 91 39 08
        E 16 b1 0b 11
        E 32 b1 0b 19
        E 32 b1 0b 22
        E 16 b1 0b 08
        E 0 81 39 00
        E 0 91 3a 08
        E 16 b1 0b 11
        E 32 b1 0b 19
        E 32 b1 0b 22
        E 16 b1 0b 08
        E 0 81 3a 00
        E 0 91 39 08
        E 16 b1 0b 11
        E 32 b1 0b 19
        E 32 b1 0b 22
        E 16 b1 0b 08
        E 0 81 39 00
        E 0 91 3a 08
        E 16 b1 0b 11
        E 32 b1 0b 19
        E 32 b1 0b 22
        E 16 b1 0b 08
        E 0 81 3a 00
        E 0 91 3c 08
        E 16 b1 0b 11
        E 32 b1 0b 19
        E 32 b1 0b 22
        E 16 b1 0b 08
        E 0 81 3c 00
        E 0 91 3d 08
        E 16 b1 0b 11
        E 32 b1 0b 19
        E 32 b1 0b 22
        E 16 b1 0b 08
        E 0 81 3d 00
        E 0 91 3c 08
        E 16 b1 0b 11
        E 32 b1 0b 19
        E 32 b1 0b 22
        E 16 b1 0b 08
        E 0 81 3c 00
        E 0 91 3d 08
        E 16 b1 0b 11
        E 32 b1 0b 19
        E 32 b1 0b 22
        E 16 b1 0b 08
        E 0 81 3d 00
        E 0 91 39 08
        E 16 b1 0b 11
        E 32 b1 0b 19
        E 32 b1 0b 22
        E 16 b1 0b 08
        E 0 81 39 00
        E 0 91 3a 08
        E 16 b1 0b 11
        E 32 b1 0b 19
        E 32 b1 0b 22
        E 16 b1 0b 08
        E 0 81 3a 00
        E 0 91 39 08
        E 16 b1 0b 11
        E 32 b1 0b 19
        E 32 b1 0b 22
        E 16 b1 0b 08
        E 0 81 39 00
        E 0 91 3a 08
        E 16 b1 0b 11
        E 32 b1 0b 19
        E 32 b1 0b 22
        E 16 b1 0b 08
        E 0 81 3a 00
        E 0 91 3c 08
        E 16 b1 0b 11
        E 32 b1 0b 19
        E 32 b1 0b 22
        E 16 b1 0b 08
        E 0 81 3c 00
        E 0 91 3d 08
        E 16 b1 0b 11
        E 32 b1 0b 19
        E 32 b1 0b 22
        E 16 b1 0b 08
        E 0 81 3d 00
        E 0 91 3c 08
        E 16 b1 0b 11
        E 32 b1 0b 19
        E 32 b1 0b 22
        E 16 b1 0b 08
        E 0 81 3c 00
        E 0 91 3d 08
        E 16 b1 0b 11
        E 32 b1 0b 19
        E 32 b1 0b 22
        E 16 b1 0b 08
        E 0 81 3d 00
        E 0 91 39 08
        E 16 b1 0b 11
        E 32 b1 0b 19
        E 32 b1 0b 22
        E 16 b1 0b 08
        E 0 81 39 00
        E 0 91 3a 08
        E 16 b1 0b 11
        E 32 b1 0b 19
        E 32 b1 0b 22
        E 16 b1 0b 08
        E 0 81 3a 00
        E 0 91 39 08
        E 16 b1 0b 11
        E 32 b1 0b 19
        E 32 b1 0b 22
        E 16 b1 0b 08
        E 0 81 39 00
        E 0 91 3a 08
        E 16 b1 0b 11
        E 32 b1 0b 19
        E 32 b1 0b 22
        E 16 b1 0b 08
        E 0 81 3a 00
        E 0 91 3c 08
        E 16 b1 0b 11
        E 32 b1 0b 19
        E 32 b1 0b 22
        E 16 b1 0b 08
        E 0 81 3c 00
        E 0 91 3d 08
        E 16 b1 0b 11
        E 32 b1 0b 19
        E 32 b1 0b 22
        E 16 b1 0b 08
        E 0 81 3d 00
        E 0 91 3c 08
        E 16 b1 0b 11
        E 32 b1 0b 19
        E 32 b1 0b 22
        E 16 b1 0b 08
        E 0 81 3c 00
        E 0 91 3d 08
        E 16 b1 0b 11
        E 32 b1 0b 19
        E 32 b1 0b 22
        E 16 b1 0b 08
        E 0 81 3d 00
        E 0 91 39 08
        E 16 b1 0b 11
        E 32 b1 0b 19
        E 32 b1 0b 22
        E 16 b1 0b 08
        E 0 81 39 00
        E 0 91 3a 08
        E 16 b1 0b 11
        E 32 b1 0b 19
        E 32 b1 0b 22
        E 16 b1 0b 08
        E 0 81 3a 00
        E 0 91 39 08
        E 16 b1 0b 11
        E 32 b1 0b 19
        E 32 b1 0b 22
        E 16 b1 0b 08
        E 0 81 39 00
        E 0 91 3a 08
        E 16 b1 0b 11
        E 32 b1 0b 19
        E 32 b1 0b 22
        E 16 b1 0b 08
        E 0 81 3a 00
        E 0 91 3c 08
        E 16 b1 0b 11
        E 32 b1 0b 19
        E 32 b1 0b 22
        E 16 b1 0b 08
        E 0 81 3c 00
        E 0 91 3d 08
        E 16 b1 0b 11
        E 32 b1 0b 19
        E 32 b1 0b 22
        E 16 b1 0b 08
        E 0 81 3d 00
        E 0 91 3c 08
        E 16 b1 0b 11
        E 32 b1 0b 19
        E 32 b1 0b 22
        E 16 b1 0b 08
        E 0 81 3c 00
        E 0 91 3d 08
        E 16 b1 0b 11
        E 32 b1 0b 19
        E 32 b1 0b 22
        E 16 b1 0b 08
        E 0 81 3d 00
        E 0 91 39 08
        E 16 b1 0b 11
        E 32 b1 0b 19
        E 32 b1 0b 22
        E 16 b1 0b 08
        E 0 81 39 00
        E 0 91 3a 08
        E 16 b1 0b 11
        E 32 b1 0b 19
        E 32 b1 0b 22
        E 16 b1 0b 08
        E 0 81 3a 00
        E 0 91 39 08
        E 16 b1 0b 11
        E 32 b1 0b 19
        E 32 b1 0b 22
        E 16 b1 0b 08
        E 0 81 39 00
        E 0 91 3a 08
        E 16 b1 0b 11
        E 32 b1 0b 19
        E 32 b1 0b 22
        E 16 b1 0b 08
        E 0 81 3a 00
        E 0 91 3c 08
        E 16 b1 0b 11
        E 32 b1 0b 19
        E 32 b1 0b 22
        E 16 b1 0b 08
        E 0 81 3c 00
        E 0 91 3d 08
        E 16 b1 0b 11
        E 32 b1 0b 19
        E 32 b1 0b 22
        E 16 b1 0b 08
        E 0 81 3d 00
        E 0 91 3c 08
        E 16 b1 0b 11
        E 32 b1 0b 19
        E 32 b1 0b 22
        E 16 b1 0b 08
        E 0 81 3c 00
        E 0 91 3d 08
        E 16 b1 0b 11
        E 32 b1 0b 19
        E 32 b1 0b 22
        E 16 b1 0b 08
        E 0 81 3d 00
        E 0 91 39 08
        E 16 b1 0b 11
        E 32 b1 0b 19
        E 32 b1 0b 22
        E 16 b1 0b 08
        E 0 81 39 00
        E 0 91 3a 08
        E 16 b1 0b 11
        E 32 b1 0b 19
        E 32 b1 0b 22
        E 16 b1 0b 08
        E 0 81 3a 00
        E 0 91 39 08
        E 16 b1 0b 11
        E 32 b1 0b 19
        E 32 b1 0b 22
        E 16 b1 0b 08
        E 0 81 39 00
        E 0 91 3a 08
        E 16 b1 0b 11
        E 32 b1 0b 19
        E 32 b1 0b 22
        E 16 b1 0b 08
        E 0 81 3a 00
        E 0 91 3c 08
        E 16 b1 0b 11
        E 32 b1 0b 19
        E 32 b1 0b 22
        E 16 b1 0b 08
        E 0 81 3c 00
        E 0 91 3d 08
        E 16 b1 0b 11
        E 32 b1 0b 19
        E 32 b1 0b 22
        E 16 b1 0b 08
        E 0 81 3d 00
        E 0 91 3c 08
        E 16 b1 0b 11
        E 32 b1 0b 19
        E 32 b1 0b 22
        E 16 b1 0b 08
        E 0 81 3c 00
        E 0 91 3d 08
        E 16 b1 0b 11
        E 32 b1 0b 19
        E 32 b1 0b 22
        E 16 b1 0b 08
        E 0 81 3d 00
        E 0 91 39 08
        E 16 b1 0b 11
        E 32 b1 0b 19
        E 32 b1 0b 22
        E 16 b1 0b 08
        E 0 81 39 00
        E 0 91 3a 08
        E 16 b1 0b 11
        E 32 b1 0b 19
        E 32 b1 0b 22
        E 16 b1 0b 08
        E 0 81 3a 00
        E 0 91 39 08
        E 16 b1 0b 11
        E 32 b1 0b 19
        E 32 b1 0b 22
        E 16 b1 0b 08
        E 0 81 39 00
        E 0 91 3a 08
        E 16 b1 0b 11
        E 32 b1 0b 19
        E 32 b1 0b 22
        E 16 b1 0b 08
        E 0 81 3a 00
        E 0 91 3c 08
        E 16 b1 0b 11
        E 32 b1 0b 19
        E 32 b1 0b 22
        E 16 b1 0b 08
        E 0 81 3c 00
        E 0 91 3d 08
        E 16 b1 0b 11
        E 32 b1 0b 19
        E 32 b1 0b 22
        E 16 b1 0b 08
        E 0 81 3d 00
        E 0 91 3c 08
        E 16 b1 0b 11
        E 32 b1 0b 19
        E 32 b1 0b 22
        E 16 b1 0b 08
        E 0 81 3c 00
        E 0 91 3d 08
        E 16 b1 0b 11
        E 32 b1 0b 19
        E 32 b1 0b 22
        E 16 b1 0b 08
        E 0 81 3d 00
        E 0 91 39 08
        E 16 b1 0b 11
        E 32 b1 0b 19
        E 32 b1 0b 22
        E 16 b1 0b 08
        E 0 81 39 00
        E 0 91 3a 08
        E 16 b1 0b 11
        E 32 b1 0b 19
        E 32 b1 0b 22
        E 16 b1 0b 08
        E 0 81 3a 00
        E 0 91 39 08
        E 16 b1 0b 11
        E 32 b1 0b 19
        E 32 b1 0b 22
        E 16 b1 0b 08
        E 0 81 39 00
        E 0 91 3a 08
        E 16 b1 0b 11
        E 32 b1 0b 19
        E 32 b1 0b 22
        E 16 b1 0b 08
        E 0 81 3a 00
        E 0 91 3c 08
        E 16 b1 0b 11
        E 32 b1 0b 19
        E 32 b1 0b 22
        E 16 b1 0b 08
        E 0 81 3c 00
        E 0 91 3d 08
        E 16 b1 0b 11
        E 32 b1 0b 19
        E 32 b1 0b 22
        E 16 b1 0b 08
        E 0 81 3d 00
        E 0 91 3c 08
        E 16 b1 0b 11
        E 32 b1 0b 19
        E 32 b1 0b 22
        E 16 b1 0b 08
        E 0 81 3c 00
        E 0 91 3d 08
        E 16 b1 0b 11
        E 32 b1 0b 19
        E 32 b1 0b 22
        E 16 b1 0b 08
        E 0 81 3d 00
        E 0 91 39 08
        E 16 b1 0b 11
        E 32 b1 0b 19
        E 32 b1 0b 22
        E 16 b1 0b 08
        E 0 81 39 00
        E 0 91 3a 08
        E 16 b1 0b 11
        E 32 b1 0b 19
        E 32 b1 0b 22
        E 16 b1 0b 08
        E 0 81 3a 00
        E 0 91 39 08
        E 16 b1 0b 11
        E 32 b1 0b 19
        E 32 b1 0b 22
        E 16 b1 0b 08
        E 0 81 39 00
        E 0 91 3a 08
        E 16 b1 0b 11
        E 32 b1 0b 19
        E 32 b1 0b 22
        E 16 b1 0b 08
        E 0 81 3a 00
        E 0 91 3c 08
        E 16 b1 0b 11
        E 32 b1 0b 19
        E 32 b1 0b 22
        E 16 b1 0b 08
        E 0 81 3c 00
        E 0 91 3d 08
        E 16 b1 0b 11
        E 32 b1 0b 19
        E 32 b1 0b 22
        E 16 b1 0b 08
        E 0 81 3d 00
        E 0 91 3c 08
        E 16 b1 0b 11
        E 32 b1 0b 19
        E 32 b1 0b 22
        E 16 b1 0b 08
        E 0 81 3c 00
        E 0 91 3d 08
        E 16 b1 0b 11
        E 32 b1 0b 19
        E 32 b1 0b 22
        E 16 b1 0b 08
        E 0 81 3d 00
        E 0 91 39 08
        E 32 b1 0b 11
        E 32 b1 0b 19
        E 32 b1 0b 08
        E 0 81 39 00
        E 0 91 3a 08
        E 16 b1 0b 11
        E 32 b1 0b 19
        E 32 b1 0b 22
        E 16 b1 0b 08
        E 0 81 3a 00
        E 0 91 39 08
        E 16 b1 0b 11
        E 32 b1 0b 19
        E 32 b1 0b 22
        E 16 b1 0b 08
        E 0 81 39 00
        E 0 91 3a 08
        E 16 b1 0b 11
        E 32 b1 0b 19
        E 32 b1 0b 22
        E 16 b1 0b 08
        E 0 81 3a 00
        E 0 91 3c 08
        E 16 b1 0b 11
        E 32 b1 0b 19
        E 32 b1 0b 22
        E 16 b1 0b 08
        E 0 81 3c 00
        E 0 91 3d 08
        E 16 b1 0b 11
        E 32 b1 0b 19
        E 32 b1 0b 22
        E 16 b1 0b 08
        E 0 81 3d 00
        E 0 91 3c 08
        E 16 b1 0b 11
        E 32 b1 0b 19
        E 32 b1 0b 22
        E 16 b1 0b 08
        E 0 81 3c 00
        E 0 91 3d 08
        E 16 b1 0b 11
        E 32 b1 0b 19
        E 32 b1 0b 22
        E 16 b1 0b 08
        E 0 81 3d 00
        E 0 91 39 08
        E 16 b1 0b 11
        E 32 b1 0b 19
        E 32 b1 0b 22
        E 16 b1 0b 08
        E 0 81 39 00
        E 0 91 3a 08
        E 16 b1 0b 11
        E 32 b1 0b 19
        E 32 b1 0b 22
        E 16 b1 0b 08
        E 0 81 3a 00
        E 0 91 39 08
        E 16 b1 0b 11
        E 32 b1 0b 19
        E 32 b1 0b 22
        E 16 b1 0b 08
        E 0 81 39 00
        E 0 91 3a 08
        E 16 b1 0b 11
        E 32 b1 0b 19
        E 32 b1 0b 22
        E 16 b1 0b 08
        E 0 81 3a 00
        E 0 91 3c 08
        E 16 b1 0b 11
        E 32 b1 0b 19
        E 32 b1 0b 22
        E 16 b1 0b 08
        E 0 81 3c 00
        E 0 91 3d 08
        E 16 b1 0b 11
        E 32 b1 0b 19
        E 32 b1 0b 22
        E 16 b1 0b 08
        E 0 81 3d 00
        E 0 91 3c 08
        E 16 b1 0b 11
        E 32 b1 0b 19
        E 32 b1 0b 22
        E 16 b1 0b 08
        E 0 81 3c 00
        E 0 91 3d 08
        E 16 b1 0b 11
        E 32 b1 0b 19
        E 32 b1 0b 22
        E 16 b1 0b 08
        E 0 81 3d 00
        E 0 91 39 08
        E 16 b1 0b 11
        E 32 b1 0b 19
        E 32 b1 0b 22
        E 16 b1 0b 08
        E 0 81 39 00
        E 0 91 3a 08
        E 16 b1 0b 11
        E 32 b1 0b 19
        E 32 b1 0b 22
        E 16 b1 0b 08
        E 0 81 3a 00
        E 0 91 39 08
        E 16 b1 0b 11
        E 32 b1 0b 19
        E 32 b1 0b 22
        E 16 b1 0b 08
        E 0 81 39 00
        E 0 91 3a 08
        E 16 b1 0b 11
        E 32 b1 0b 19
        E 32 b1 0b 22
        E 16 b1 0b 08
        E 0 81 3a 00
        E 0 91 3c 08
        E 16 b1 0b 11
        E 32 b1 0b 19
        E 32 b1 0b 22
        E 16 b1 0b 08
        E 0 81 3c 00
        E 0 91 3d 08
        E 16 b1 0b 11
        E 32 b1 0b 19
        E 32 b1 0b 22
        E 16 b1 0b 08
        E 0 81 3d 00
        E 0 91 3c 08
        E 16 b1 0b 11
        E 32 b1 0b 19
        E 32 b1 0b 22
        E 16 b1 0b 08
        E 0 81 3c 00
        E 0 91 3d 08
        E 16 b1 0b 11
        E 32 b1 0b 19
        E 32 b1 0b 22
        E 16 b1 0b 08
        E 0 81 3d 00
        E 0 91 39 08
        E 16 b1 0b 11
        E 32 b1 0b 19
        E 32 b1 0b 22
        E 16 b1 0b 08
        E 0 81 39 00
        E 0 91 3a 08
        E 16 b1 0b 11
        E 32 b1 0b 19
        E 32 b1 0b 22
        E 16 b1 0b 08
        E 0 81 3a 00
        E 0 91 39 08
        E 16 b1 0b 11
        E 32 b1 0b 19
        E 32 b1 0b 22
        E 16 b1 0b 08
        E 0 81 39 00
        E 0 91 3a 08
        E 16 b1 0b 11
        E 32 b1 0b 19
        E 32 b1 0b 22
        E 16 b1 0b 08
        E 0 81 3a 00
        E 0 91 3c 08
        E 16 b1 0b 11
        E 32 b1 0b 19
        E 32 b1 0b 22
        E 16 b1 0b 08
        E 0 81 3c 00
        E 0 91 3d 08
        E 16 b1 0b 11
        E 32 b1 0b 19
        E 32 b1 0b 22
        E 16 b1 0b 08
        E 0 81 3d 00
        E 0 91 3c 08
        E 16 b1 0b 11
        E 32 b1 0b 19
        E 32 b1 0b 22
        E 16 b1 0b 08
        E 0 81 3c 00
        E 0 91 3d 08
        E 16 b1 0b 11
        E 32 b1 0b 19
        E 32 b1 0b 22
        E 32 b1 0b 08
        E 16 b1 0b 11
        E 32 b1 0b 19
        E 32 b1 0b 22
        E 32 b1 0b 2a
        E 32 81 3d 00
        E 3984 b1 0b 08
        E 0 91 28 08
        E 16 b1 0b 11
        E 32 b1 0b 19
        E 32 b1 0b 22
        E 32 b1 0b 2a
        E 32 81 28 00
        E 1008 b1 0b 08
        E 0 91 26 08
        E 16 b1 0b 11
        E 32 b1 0b 19
        E 32 b1 0b 22
        E 32 b1 0b 2a
        E 32 81 26 00
        E 48 b1 0b 08
        E 0 91 28 08
        E 16 b1 0b 11
        E 32 b1 0b 19
        E 32 b1 0b 22
        E 32 b1 0b 2a
        E 32 81 28 00
        E 48 b1 0b 08
        E 0 91 29 08
        E 16 b1 0b 11
        E 32 b1 0b 19
        E 32 b1 0b 22
        E 32 b1 0b 2a
        E 32 81 29 00
        E 624 b1 0b 08
        E 0 91 2b 08
        E 16 b1 0b 11
        E 32 b1 0b 19
        E 32 b1 0b 22
        E 32 b1 0b 2a
        E 32 81 2b 00
        E 240 b1 0b 08
        E 0 91 29 08
        E 16 b1 0b 11
        E 32 b1 0b 19
        E 32 b1 0b 22
        E 32 b1 0b 2a
        E 32 81 29 00
        E 256 b1 0b 08
        E 0 91 28 08
        E 16 b1 0b 11
        E 32 b1 0b 19
        E 32 b1 0b 22
        E 32 b1 0b 2a
        E 32 81 28 00
        E 1392 b1 0b 08
        E 0 91 23 08
        E 16 b1 0b 11
        E 32 b1 0b 19
        E 32 b1 0b 22
        E 32 b1 0b 2a
        E 32 81 23 00
        E 624 b1 0b 08
        E 0 91 24 08
        E 16 b1 0b 11
        E 32 b1 0b 19
        E 32 b1 0b 22
        E 32 b1 0b 2a
        E 32 81 24 00
        E 240 b1 0b 08
        E 0 91 20 08
        E 16 b1 0b 11
        E 32 b1 0b 19
        E 32 b1 0b 22
        E 32 b1 0b 2a
        E 32 81 20 00
        E 240 b1 0b 08
        E 0 91 21 08
        E 16 b1 0b 11
        E 32 b1 0b 19
        E 32 b1 0b 22
        E 32 b1 0b 2a
        E 32 81 21 00
        E 1392 b1 0b 08
        E 0 91 27 08
        E 16 b1 0b 11
        E 32 b1 0b 19
        E 32 b1 0b 22
        E 32 b1 0b 2a
        E 32 81 27 00
        E 1392 b1 0b 08
        E 0 91 28 08
        E 16 b1 0b 11
        E 32 b1 0b 19
        E 32 b1 0b 22
        E 32 b1 0b 2a
        E 32 81 28 00
        E 1008 b1 0b 08
        E 0 91 26 08
        E 16 b1 0b 11
        E 32 b1 0b 19
        E 32 b1 0b 22
        E 32 b1 0b 2a
        E 32 81 26 00
        E 48 b1 0b 08
        E 0 91 28 08
        E 16 b1 0b 11
        E 32 b1 0b 19
        E 32 b1 0b 22
        E 32 b1 0b 2a
        E 32 81 28 00
        E 48 b1 0b 08
        E 0 91 29 08
        E 16 b1 0b 11
        E 32 b1 0b 19
        E 32 b1 0b 22
        E 32 b1 0b 2a
        E 32 81 29 00
        E 624 b1 0b 08
        E 0 91 2b 08
        E 16 b1 0b 11
        E 32 b1 0b 19
        E 32 b1 0b 22
        E 32 b1 0b 2a
        E 32 81 2b 00
        E 240 b1 0b 08
        E 0 91 29 08
        E 16 b1 0b 11
        E 32 b1 0b 19
        E 32 b1 0b 22
        E 32 b1 0b 2a
        E 32 81 29 00
        E 240 b1 0b 08
        E 0 91 28 08
        E 16 b1 0b 11
        E 32 b1 0b 19
        E 32 b1 0b 22
        E 32 b1 0b 2a
        E 32 81 28 00
        E 1392 b1 0b 08
        E 0 91 23 08
        E 16 b1 0b 11
        E 32 b1 0b 19
        E 32 b1 0b 22
        E 32 b1 0b 2a
        E 32 81 23 00
        E 624 b1 0b 08
        E 0 91 24 08
        E 16 b1 0b 11
        E 32 b1 0b 19
        E 32 b1 0b 22
        E 32 b1 0b 2a
        E 32 81 24 00
        E 240 b1 0b 08
        E 0 91 20 08
        E 16 b1 0b 11
        E 32 b1 0b 19
        E 32 b1 0b 22
        E 32 b1 0b 2a
        E 32 81 20 00
        E 240 b1 0b 08
        E 0 91 21 08
        E 16 b1 0b 11
        E 32 b1 0b 19
        E 32 b1 0b 22
        E 32 b1 0b 2a
        E 32 81 21 00
        E 1392 b1 0b 08
        E 0 91 27 08
        E 16 b1 0b 11
        E 32 b1 0b 19
        E 32 b1 0b 22
        E 32 b1 0b 2a
        E 32 81 27 00
        E 1392 b1 0b 08
        E 0 91 2d 08
        E 16 b1 0b 11
        E 32 b1 0b 19
        E 32 b1 0b 22
        E 32 b1 0b 2a
        E 32 81 2d 00
        E 1008 b1 0b 08
        E 0 91 2b 08
        E 16 b1 0b 11
        E 32 b1 0b 19
        E 32 b1 0b 22
        E 32 b1 0b 2a
        E 32 81 2b 00
        E 48 b1 0b 08
        E 0 91 2d 08
        E 16 b1 0b 11
        E 32 b1 0b 19
        E 32 b1 0b 22
        E 32 b1 0b 2a
        E 32 81 2d 00
        E 48 b1 0b 08
        E 0 91 2e 08
        E 16 b1 0b 11
        E 32 b1 0b 19
        E 32 b1 0b 22
        E 32 b1 0b 2a
        E 32 81 2e 00
        E 624 b1 0b 08
        E 0 91 30 08
        E 16 b1 0b 11
        E 32 b1 0b 19
        E 32 b1 0b 22
        E 32 b1 0b 2a
        E 32 81 30 00
        E 240 b1 0b 08
        E 0 91 2e 08
        E 16 b1 0b 11
        E 32 b1 0b 19
        E 32 b1 0b 22
        E 32 b1 0b 2a
        E 32 81 2e 00
        E 240 b1 0b 08
        E 0 91 2d 08
        E 16 b1 0b 11
        E 32 b1 0b 19
        E 32 b1 0b 22
        E 32 b1 0b 2a
        E 32 81 2d 00
        E 1392 b1 0b 08
        E 0 91 28 08
        E 16 b1 0b 11
        E 32 b1 0b 19
        E 32 b1 0b 22
        E 32 b1 0b 2a
        E 32 81 28 00
        E 624 b1 0b 08
        E 0 91 29 08
        E 16 b1 0b 11
        E 32 b1 0b 19
        E 32 b1 0b 22
        E 32 b1 0b 2a
        E 32 81 29 00
        E 240 b1 0b 08
        E 0 91 25 08
        E 16 b1 0b 11
        E 32 b1 0b 19
        E 32 b1 0b 22
        E 32 b1 0b 2a
        E 32 81 25 00
        E 240 b1 0b 08
        E 0 91 26 08
        E 16 b1 0b 11
        E 32 b1 0b 19
        E 32 b1 0b 22
        E 32 b1 0b 2a
        E 32 81 26 00
        E 1392 b1 0b 08
        E 0 91 2c 08
        E 16 b1 0b 11
        E 32 b1 0b 19
        E 32 b1 0b 22
        E 32 b1 0b 2a
        E 32 81 2c 00
        E 1392 b1 0b 08
        E 0 91 2d 08
        E 16 b1 0b 11
        E 32 b1 0b 19
        E 32 b1 0b 22
        E 32 b1 0b 2a
        E 32 81 2d 00
        E 1008 b1 0b 08
        E 0 91 2b 08
        E 16 b1 0b 11
        E 32 b1 0b 19
        E 32 b1 0b 22
        E 32 b1 0b 2a
        E 32 81 2b 00
        E 48 b1 0b 08
        E 0 91 2d 08
        E 16 b1 0b 11
        E 32 b1 0b 19
        E 32 b1 0b 22
        E 32 b1 0b 2a
        E 32 81 2d 00
        E 48 b1 0b 08
        E 0 91 2e 08
        E 16 b1 0b 11
        E 32 b1 0b 19
        E 32 b1 0b 22
        E 32 b1 0b 2a
        E 32 81 2e 00
        E 624 b1 0b 08
        E 0 91 30 08
        E 16 b1 0b 11
        E 32 b1 0b 19
        E 32 b1 0b 22
        E 32 b1 0b 2a
        E 32 81 30 00
        E 240 b1 0b 08
        E 0 91 2e 08
        E 16 b1 0b 11
        E 32 b1 0b 19
        E 32 b1 0b 22
        E 32 b1 0b 2a
        E 32 81 2e 00
        E 240 b1 0b 08
        E 0 91 2d 08
        E 16 b1 0b 11
        E 32 b1 0b 19
        E 32 b1 0b 22
        E 32 b1 0b 2a
        E 32 81 2d 00
        E 1392 b1 0b 08
        E 0 91 28 08
        E 16 b1 0b 11
        E 32 b1 0b 19
        E 32 b1 0b 22
        E 32 b1 0b 2a
        E 32 81 28 00
        E 624 b1 0b 08
        E 0 91 29 08
        E 16 b1 0b 11
        E 32 b1 0b 19
        E 32 b1 0b 22
        E 32 b1 0b 2a
        E 32 81 29 00
        E 240 b1 0b 08
        E 0 91 25 08
        E 16 b1 0b 11
        E 32 b1 0b 19
        E 32 b1 0b 22
        E 32 b1 0b 2a
        E 32 81 25 00
        E 240 b1 0b 08
        E 0 91 26 08
        E 16 b1 0b 11
        E 32 b1 0b 19
        E 32 b1 0b 22
        E 32 b1 0b 2a
        E 32 81 26 00
        E 1392 b1 0b 08
        E 0 91 2c 08
        E 16 b1 0b 11
        E 32 b1 0b 19
        E 32 b1 0b 22
        E 32 b1 0b 2a
        E 32 81 2c 00
        E 1392 b1 0b 08
        E 0 91 42 08
        E 16 b1 0b 11
        E 32 b1 0b 19
        E 32 b1 0b 22
        E 32 b1 0b 2a
        E 16 b1 0b 08
        E 16 b1 0b 11
        E 32 b1 0b 19
        E 32 b1 0b 22
        E 32 b1 0b 2a
        E 16 b1 0b 08
        E 16 b1 0b 11
        E 32 b1 0b 19
        E 32 b1 0b 22
        E 32 b1 0b 2a
        E 16 b1 0b 08
        E 0 81 42 00
        E 0 91 46 08
        E 16 b1 0b 11
        E 32 b1 0b 19
        E 32 b1 0b 22
        E 32 b1 0b 2a
        E 16 81 46 00
        E 128 b1 0b 08
        E 0 91 3d 08
        E 16 b1 0b 11
        E 32 b1 0b 19
        E 32 b1 0b 22
        E 32 b1 0b 2a
        E 16 b1 0b 08
        E 0 81 3d 00
        E 0 91 3f 08
        E 16 b1 0b 11
        E 32 b1 0b 19
        E 32 b1 0b 22
        E 32 b1 0b 2a
        E 32 81 3f 00
        E 240 b1 0b 08
        E 0 91 3b 08
        E 16 b1 0b 11
        E 32 b1 0b 19
        E 32 b1 0b 22
        E 32 b1 0b 2a
        E 32 81 3b 00
        E 1024 b1 0b 08
        E 0 91 3b 08
        E 16 b1 0b 11
        E 32 b1 0b 19
        E 32 b1 0b 22
        E 32 b1 0b 2a
        E 32 81 3b 00
        E 3840 b1 7b 00
        E 0 ff 2f 00
      >
    >
  >
  <TRACK {5965FECF-65F5-4E86-904D-EF008E7B78D6}
    NAME "NES - Triangle [ch2]"
    PEAKCOL 16744192
    BEAT -1
    AUTOMODE 0
    PANLAWFLAGS 3
    VOLPAN 1 0 -1 -1 1
    MUTESOLO 0 0 0
    IPHASE 0
    PLAYOFFS 0 1
    ISBUS 0 0
    BUSCOMP 0 0 0 0 0
    SHOWINMIX 1 0.6667 0.5 1 0.5 0 0 0
    FIXEDLANES 9 0 0 0 0
    SEL 0
    REC 0 5088 1 0 0 0 0 0
    VU 2
    TRACKHEIGHT 0 0 0 0 0 0 0
    INQ 0 0 0 0.5 100 0 0 100
    NCHAN 2
    FX 1
    TRACKID {5965FECF-65F5-4E86-904D-EF008E7B78D6}
    PERF 0
    MIDIOUT -1
    MAINSEND 1 0
    <FXCHAIN
      WNDRECT 24 52 700 560
      SHOW 0
      LASTSEL 0
      DOCKED 0
      BYPASS 0 0 0
      <JS "ReapNES Studio/ReapNES_Console.jsfx" ""
        2 15 1 10 80 10 100 2 1 15 1 5 60 10 80 1 1 0 50 0 0 15 1 0 100 0 0 0.500000 0.500000 0.400000 0.300000 0.800000 2 1 0 0 0 0 - - - - - - - - - - - - - - - - - - - - - - - - - -
      >
      FLOATPOS 0 0 0 0
      FXID {DC985A7D-7099-4E6D-9E3A-BFCAF5AD3942}
      WAK 0 0
    >
    <ITEM
      POSITION 0
      LENGTH 74.65008
      LOOP 0
      ALLTAKES 0
      FADEIN 0 0 0 0 0 0 0
      FADEOUT 0 0 0 0 0 0 0
      MUTE 0 0
      SEL 0
      IGUID {BD987A3F-5EF6-48EA-9660-962B4A171DE6}
      <SOURCE MIDI
        HASDATA 1 480 QN
        CCINTERP 32
        E 0 c2 26
        E 384 b2 0b 7f
        E 0 92 2d 7f
        E 384 82 2d 00
        E 0 b2 0b 7f
        E 0 92 39 7f
        E 128 82 39 00
        E 128 b2 0b 7f
        E 0 92 39 7f
        E 128 82 39 00
        E 192 b2 0b 7f
        E 0 92 39 7f
        E 320 82 39 00
        E 128 b2 0b 7f
        E 0 92 39 7f
        E 128 82 39 00
        E 0 b2 0b 7f
        E 0 92 2d 7f
        E 384 82 2d 00
        E 0 b2 0b 7f
        E 0 92 39 7f
        E 128 82 39 00
        E 128 b2 0b 7f
        E 0 92 39 7f
        E 128 82 39 00
        E 192 b2 0b 7f
        E 0 92 39 7f
        E 336 82 39 00
        E 128 b2 0b 7f
        E 0 92 39 7f
        E 4240 82 39 00
        E 384 b2 0b 7f
        E 0 92 0c 7f
        E 6160 82 0c 00
        E 0 b2 0b 7f
        E 0 92 2d 7f
        E 96 82 2d 00
        E 0 b2 0b 7f
        E 0 92 2e 7f
        E 96 82 2e 00
        E 0 b2 0b 7f
        E 0 92 2d 7f
        E 96 82 2d 00
        E 0 b2 0b 7f
        E 0 92 2e 7f
        E 96 82 2e 00
        E 0 b2 0b 7f
        E 0 92 30 7f
        E 96 82 30 00
        E 0 b2 0b 7f
        E 0 92 31 7f
        E 96 82 31 00
        E 0 b2 0b 7f
        E 0 92 30 7f
        E 96 82 30 00
        E 0 b2 0b 7f
        E 0 92 31 7f
        E 96 82 31 00
        E 0 b2 0b 7f
        E 0 92 2d 7f
        E 96 82 2d 00
        E 0 b2 0b 7f
        E 0 92 2e 7f
        E 96 82 2e 00
        E 0 b2 0b 7f
        E 0 92 2d 7f
        E 96 82 2d 00
        E 0 b2 0b 7f
        E 0 92 2e 7f
        E 96 82 2e 00
        E 0 b2 0b 7f
        E 0 92 30 7f
        E 96 82 30 00
        E 0 b2 0b 7f
        E 0 92 31 7f
        E 96 82 31 00
        E 0 b2 0b 7f
        E 0 92 30 7f
        E 96 82 30 00
        E 0 b2 0b 7f
        E 0 92 31 7f
        E 96 82 31 00
        E 0 b2 0b 7f
        E 0 92 2d 7f
        E 96 82 2d 00
        E 0 b2 0b 7f
        E 0 92 2e 7f
        E 96 82 2e 00
        E 0 b2 0b 7f
        E 0 92 2d 7f
        E 96 82 2d 00
        E 0 b2 0b 7f
        E 0 92 2e 7f
        E 96 82 2e 00
        E 0 b2 0b 7f
        E 0 92 30 7f
        E 96 82 30 00
        E 0 b2 0b 7f
        E 0 92 31 7f
        E 96 82 31 00
        E 0 b2 0b 7f
        E 0 92 30 7f
        E 96 82 30 00
        E 0 b2 0b 7f
        E 0 92 31 7f
        E 96 82 31 00
        E 0 b2 0b 7f
        E 0 92 2d 7f
        E 96 82 2d 00
        E 0 b2 0b 7f
        E 0 92 2e 7f
        E 96 82 2e 00
        E 0 b2 0b 7f
        E 0 92 2d 7f
        E 96 82 2d 00
        E 0 b2 0b 7f
        E 0 92 2e 7f
        E 96 82 2e 00
        E 0 b2 0b 7f
        E 0 92 30 7f
        E 96 82 30 00
        E 0 b2 0b 7f
        E 0 92 31 7f
        E 96 82 31 00
        E 0 b2 0b 7f
        E 0 92 30 7f
        E 96 82 30 00
        E 0 b2 0b 7f
        E 0 92 31 7f
        E 96 82 31 00
        E 0 b2 0b 7f
        E 0 92 2d 7f
        E 96 82 2d 00
        E 0 b2 0b 7f
        E 0 92 2e 7f
        E 96 82 2e 00
        E 0 b2 0b 7f
        E 0 92 2d 7f
        E 96 82 2d 00
        E 0 b2 0b 7f
        E 0 92 2e 7f
        E 96 82 2e 00
        E 0 b2 0b 7f
        E 0 92 30 7f
        E 96 82 30 00
        E 0 b2 0b 7f
        E 0 92 31 7f
        E 96 82 31 00
        E 0 b2 0b 7f
        E 0 92 30 7f
        E 96 82 30 00
        E 0 b2 0b 7f
        E 0 92 31 7f
        E 96 82 31 00
        E 0 b2 0b 7f
        E 0 92 2d 7f
        E 96 82 2d 00
        E 0 b2 0b 7f
        E 0 92 2e 7f
        E 96 82 2e 00
        E 0 b2 0b 7f
        E 0 92 2d 7f
        E 96 82 2d 00
        E 0 b2 0b 7f
        E 0 92 2e 7f
        E 96 82 2e 00
        E 0 b2 0b 7f
        E 0 92 30 7f
        E 96 82 30 00
        E 0 b2 0b 7f
        E 0 92 31 7f
        E 96 82 31 00
        E 0 b2 0b 7f
        E 0 92 30 7f
        E 96 82 30 00
        E 0 b2 0b 7f
        E 0 92 31 7f
        E 96 82 31 00
        E 0 b2 0b 7f
        E 0 92 2d 7f
        E 96 82 2d 00
        E 0 b2 0b 7f
        E 0 92 2e 7f
        E 96 82 2e 00
        E 0 b2 0b 7f
        E 0 92 2d 7f
        E 96 82 2d 00
        E 0 b2 0b 7f
        E 0 92 2e 7f
        E 96 82 2e 00
        E 0 b2 0b 7f
        E 0 92 30 7f
        E 96 82 30 00
        E 0 b2 0b 7f
        E 0 92 31 7f
        E 96 82 31 00
        E 0 b2 0b 7f
        E 0 92 30 7f
        E 96 82 30 00
        E 0 b2 0b 7f
        E 0 92 31 7f
        E 96 82 31 00
        E 0 b2 0b 7f
        E 0 92 2d 7f
        E 96 82 2d 00
        E 0 b2 0b 7f
        E 0 92 2e 7f
        E 96 82 2e 00
        E 0 b2 0b 7f
        E 0 92 2d 7f
        E 96 82 2d 00
        E 0 b2 0b 7f
        E 0 92 2e 7f
        E 96 82 2e 00
        E 0 b2 0b 7f
        E 0 92 30 7f
        E 96 82 30 00
        E 0 b2 0b 7f
        E 0 92 31 7f
        E 96 82 31 00
        E 0 b2 0b 7f
        E 0 92 30 7f
        E 96 82 30 00
        E 0 b2 0b 7f
        E 0 92 31 7f
        E 96 82 31 00
        E 0 b2 0b 7f
        E 0 92 2d 7f
        E 96 82 2d 00
        E 0 b2 0b 7f
        E 0 92 2e 7f
        E 96 82 2e 00
        E 0 b2 0b 7f
        E 0 92 2d 7f
        E 96 82 2d 00
        E 0 b2 0b 7f
        E 0 92 2e 7f
        E 96 82 2e 00
        E 0 b2 0b 7f
        E 0 92 30 7f
        E 96 82 30 00
        E 0 b2 0b 7f
        E 0 92 31 7f
        E 96 82 31 00
        E 0 b2 0b 7f
        E 0 92 30 7f
        E 96 82 30 00
        E 0 b2 0b 7f
        E 0 92 31 7f
        E 96 82 31 00
        E 0 b2 0b 7f
        E 0 92 2d 7f
        E 96 82 2d 00
        E 0 b2 0b 7f
        E 0 92 2e 7f
        E 96 82 2e 00
        E 0 b2 0b 7f
        E 0 92 2d 7f
        E 96 82 2d 00
        E 0 b2 0b 7f
        E 0 92 2e 7f
        E 96 82 2e 00
        E 0 b2 0b 7f
        E 0 92 30 7f
        E 96 82 30 00
        E 0 b2 0b 7f
        E 0 92 31 7f
        E 96 82 31 00
        E 0 b2 0b 7f
        E 0 92 30 7f
        E 96 82 30 00
        E 0 b2 0b 7f
        E 0 92 31 7f
        E 96 82 31 00
        E 0 b2 0b 7f
        E 0 92 2d 7f
        E 96 82 2d 00
        E 0 b2 0b 7f
        E 0 92 2e 7f
        E 96 82 2e 00
        E 0 b2 0b 7f
        E 0 92 2d 7f
        E 96 82 2d 00
        E 0 b2 0b 7f
        E 0 92 2e 7f
        E 96 82 2e 00
        E 0 b2 0b 7f
        E 0 92 30 7f
        E 96 82 30 00
        E 0 b2 0b 7f
        E 0 92 31 7f
        E 96 82 31 00
        E 0 b2 0b 7f
        E 0 92 30 7f
        E 96 82 30 00
        E 0 b2 0b 7f
        E 0 92 31 7f
        E 96 82 31 00
        E 0 b2 0b 7f
        E 0 92 2d 7f
        E 96 82 2d 00
        E 0 b2 0b 7f
        E 0 92 2e 7f
        E 96 82 2e 00
        E 0 b2 0b 7f
        E 0 92 2d 7f
        E 96 82 2d 00
        E 0 b2 0b 7f
        E 0 92 2e 7f
        E 96 82 2e 00
        E 0 b2 0b 7f
        E 0 92 30 7f
        E 96 82 30 00
        E 0 b2 0b 7f
        E 0 92 31 7f
        E 96 82 31 00
        E 0 b2 0b 7f
        E 0 92 30 7f
        E 96 82 30 00
        E 0 b2 0b 7f
        E 0 92 31 7f
        E 96 82 31 00
        E 0 b2 0b 7f
        E 0 92 2d 7f
        E 96 82 2d 00
        E 0 b2 0b 7f
        E 0 92 2e 7f
        E 96 82 2e 00
        E 0 b2 0b 7f
        E 0 92 2d 7f
        E 96 82 2d 00
        E 0 b2 0b 7f
        E 0 92 2e 7f
        E 96 82 2e 00
        E 0 b2 0b 7f
        E 0 92 30 7f
        E 96 82 30 00
        E 0 b2 0b 7f
        E 0 92 31 7f
        E 96 82 31 00
        E 0 b2 0b 7f
        E 0 92 30 7f
        E 96 82 30 00
        E 0 b2 0b 7f
        E 0 92 31 7f
        E 96 82 31 00
        E 0 b2 0b 7f
        E 0 92 2d 7f
        E 96 82 2d 00
        E 0 b2 0b 7f
        E 0 92 2e 7f
        E 96 82 2e 00
        E 0 b2 0b 7f
        E 0 92 2d 7f
        E 96 82 2d 00
        E 0 b2 0b 7f
        E 0 92 2e 7f
        E 96 82 2e 00
        E 0 b2 0b 7f
        E 0 92 30 7f
        E 96 82 30 00
        E 0 b2 0b 7f
        E 0 92 31 7f
        E 96 82 31 00
        E 0 b2 0b 7f
        E 0 92 30 7f
        E 96 82 30 00
        E 0 b2 0b 7f
        E 0 92 31 7f
        E 96 82 31 00
        E 0 b2 0b 7f
        E 0 92 2d 7f
        E 96 82 2d 00
        E 0 b2 0b 7f
        E 0 92 2e 7f
        E 96 82 2e 00
        E 0 b2 0b 7f
        E 0 92 2d 7f
        E 96 82 2d 00
        E 0 b2 0b 7f
        E 0 92 2e 7f
        E 96 82 2e 00
        E 0 b2 0b 7f
        E 0 92 30 7f
        E 96 82 30 00
        E 0 b2 0b 7f
        E 0 92 31 7f
        E 96 82 31 00
        E 0 b2 0b 7f
        E 0 92 30 7f
        E 96 82 30 00
        E 0 b2 0b 7f
        E 0 92 31 7f
        E 96 82 31 00
        E 0 b2 0b 7f
        E 0 92 2d 7f
        E 96 82 2d 00
        E 0 b2 0b 7f
        E 0 92 2e 7f
        E 96 82 2e 00
        E 0 b2 0b 7f
        E 0 92 2d 7f
        E 96 82 2d 00
        E 0 b2 0b 7f
        E 0 92 2e 7f
        E 96 82 2e 00
        E 0 b2 0b 7f
        E 0 92 30 7f
        E 96 82 30 00
        E 0 b2 0b 7f
        E 0 92 31 7f
        E 96 82 31 00
        E 0 b2 0b 7f
        E 0 92 30 7f
        E 96 82 30 00
        E 0 b2 0b 7f
        E 0 92 31 7f
        E 4208 82 31 00
        E 48 b2 0b 7f
        E 0 92 1c 7f
        E 1152 82 1c 00
        E 0 b2 0b 7f
        E 0 92 1a 7f
        E 192 82 1a 00
        E 0 b2 0b 7f
        E 0 92 1c 7f
        E 192 82 1c 00
        E 0 b2 0b 7f
        E 0 92 1d 7f
        E 768 82 1d 00
        E 0 b2 0b 7f
        E 0 92 1f 7f
        E 384 82 1f 00
        E 0 b2 0b 7f
        E 0 92 1d 7f
        E 384 82 1d 00
        E 0 b2 0b 7f
        E 0 92 1c 7f
        E 1536 82 1c 00
        E 0 b2 0b 7f
        E 0 92 17 7f
        E 768 82 17 00
        E 0 b2 0b 7f
        E 0 92 18 7f
        E 384 82 18 00
        E 0 b2 0b 7f
        E 0 92 14 7f
        E 400 82 14 00
        E 0 b2 0b 7f
        E 0 92 15 7f
        E 1536 82 15 00
        E 0 b2 0b 7f
        E 0 92 1b 7f
        E 1536 82 1b 00
        E 0 b2 0b 7f
        E 0 92 1c 7f
        E 1152 82 1c 00
        E 0 b2 0b 7f
        E 0 92 1a 7f
        E 192 82 1a 00
        E 0 b2 0b 7f
        E 0 92 1c 7f
        E 192 82 1c 00
        E 0 b2 0b 7f
        E 0 92 1d 7f
        E 768 82 1d 00
        E 0 b2 0b 7f
        E 0 92 1f 7f
        E 384 82 1f 00
        E 0 b2 0b 7f
        E 0 92 1d 7f
        E 384 82 1d 00
        E 0 b2 0b 7f
        E 0 92 1c 7f
        E 1536 82 1c 00
        E 0 b2 0b 7f
        E 0 92 17 7f
        E 768 82 17 00
        E 0 b2 0b 7f
        E 0 92 18 7f
        E 384 82 18 00
        E 0 b2 0b 7f
        E 0 92 14 7f
        E 384 82 14 00
        E 0 b2 0b 7f
        E 0 92 15 7f
        E 1536 82 15 00
        E 0 b2 0b 7f
        E 0 92 1b 7f
        E 1536 82 1b 00
        E 0 b2 0b 7f
        E 0 92 21 7f
        E 1152 82 21 00
        E 0 b2 0b 7f
        E 0 92 1f 7f
        E 192 82 1f 00
        E 0 b2 0b 7f
        E 0 92 21 7f
        E 192 82 21 00
        E 0 b2 0b 7f
        E 0 92 22 7f
        E 768 82 22 00
        E 0 b2 0b 7f
        E 0 92 24 7f
        E 384 82 24 00
        E 0 b2 0b 7f
        E 0 92 22 7f
        E 384 82 22 00
        E 0 b2 0b 7f
        E 0 92 21 7f
        E 1536 82 21 00
        E 0 b2 0b 7f
        E 0 92 1c 7f
        E 768 82 1c 00
        E 0 b2 0b 7f
        E 0 92 1d 7f
        E 384 82 1d 00
        E 0 b2 0b 7f
        E 0 92 19 7f
        E 384 82 19 00
        E 0 b2 0b 7f
        E 0 92 1a 7f
        E 1536 82 1a 00
        E 0 b2 0b 7f
        E 0 92 20 7f
        E 1536 82 20 00
        E 0 b2 0b 7f
        E 0 92 21 7f
        E 1152 82 21 00
        E 0 b2 0b 7f
        E 0 92 1f 7f
        E 192 82 1f 00
        E 0 b2 0b 7f
        E 0 92 21 7f
        E 192 82 21 00
        E 0 b2 0b 7f
        E 0 92 22 7f
        E 768 82 22 00
        E 0 b2 0b 7f
        E 0 92 24 7f
        E 384 82 24 00
        E 0 b2 0b 7f
        E 0 92 22 7f
        E 384 82 22 00
        E 0 b2 0b 7f
        E 0 92 21 7f
        E 1536 82 21 00
        E 0 b2 0b 7f
        E 0 92 1c 7f
        E 768 82 1c 00
        E 0 b2 0b 7f
        E 0 92 1d 7f
        E 384 82 1d 00
        E 0 b2 0b 7f
        E 0 92 19 7f
        E 384 82 19 00
        E 0 b2 0b 7f
        E 0 92 1a 7f
        E 1536 82 1a 00
        E 0 b2 0b 7f
        E 0 92 20 7f
        E 1536 82 20 00
        E 0 b2 0b 7f
        E 0 92 36 7f
        E 384 82 36 00
        E 0 b2 0b 7f
        E 0 92 3a 7f
        E 128 82 3a 00
        E 128 b2 0b 7f
        E 0 92 31 7f
        E 128 82 31 00
        E 0 b2 0b 7f
        E 0 92 33 7f
        E 384 82 33 00
        E 0 b2 0b 7f
        E 0 92 2f 7f
        E 5264 82 2f 00
        E 0 b2 0b 7f
        E 0 92 1e 7f
        E 384 82 1e 00
        E 0 b2 0b 7f
        E 0 92 1c 7f
        E 384 82 1c 00
        E 0 b2 0b 7f
        E 0 92 17 7f
        E 384 82 17 00
        E 0 b2 0b 7f
        E 0 92 20 7f
        E 1536 82 20 00
        E 0 b2 0b 7f
        E 0 92 31 7f
        E 240 82 31 00
        E 0 b2 7b 00
        E 0 ff 2f 00
      >
    >
  >
  <TRACK {DE302A84-1382-4EB1-A8D8-ABE1602CE04F}
    NAME "NES - Noise / Drums [ch3]"
    PEAKCOL 11184810
    BEAT -1
    AUTOMODE 0
    PANLAWFLAGS 3
    VOLPAN 1 0 -1 -1 1
    MUTESOLO 0 0 0
    IPHASE 0
    PLAYOFFS 0 1
    ISBUS 0 0
    BUSCOMP 0 0 0 0 0
    SHOWINMIX 1 0.6667 0.5 1 0.5 0 0 0
    FIXEDLANES 9 0 0 0 0
    SEL 0
    REC 0 5088 1 0 0 0 0 0
    VU 2
    TRACKHEIGHT 0 0 0 0 0 0 0
    INQ 0 0 0 0.5 100 0 0 100
    NCHAN 2
    FX 1
    TRACKID {DE302A84-1382-4EB1-A8D8-ABE1602CE04F}
    PERF 0
    MIDIOUT -1
    MAINSEND 1 0
    <FXCHAIN
      WNDRECT 24 52 700 560
      SHOW 0
      LASTSEL 0
      DOCKED 0
      BYPASS 0 0 0
      <JS "ReapNES Studio/ReapNES_Console.jsfx" ""
        2 15 1 10 80 10 100 2 1 15 1 5 60 10 80 1 1 0 50 0 0 15 1 0 100 0 0 0.500000 0.500000 0.400000 0.300000 0.800000 3 1 0 0 0 0 - - - - - - - - - - - - - - - - - - - - - - - - - -
      >
      FLOATPOS 0 0 0 0
      FXID {BE440C02-C931-490D-9F81-0A8B2BAF765E}
      WAK 0 0
    >
    <ITEM
      POSITION 0
      LENGTH 74.65008
      LOOP 0
      ALLTAKES 0
      FADEIN 0 0 0 0 0 0 0
      FADEOUT 0 0 0 0 0 0 0
      MUTE 0 0
      SEL 0
      IGUID {FA55A8A9-ED4D-4011-A4F0-F2DD203AB0C9}
      <SOURCE MIDI
        HASDATA 1 480 QN
        CCINTERP 32
        E 0 93 2a 4c
        E 76800 83 2a 00
        E 0 b3 7b 00
        E 0 ff 2f 00
      >
    >
  >
>