<REAPER_PROJECT 0.1 "7.27/win64" 1707000000
  <NOTES 0 2
    |ReapNES Studio Project
    |MIDI Import - Kid_Icarus_config08_rom_v1
  >
  RIPPLE 0
  GROUPOVERRIDE 0 0 0
  AUTOXFADE 129
  ENVATTACH 3
  POOLEDENVATTACH 0
  MIXERUIFLAGS 11 48
  ENVFADESZ10 40
  PEAKGAIN 1
  FEEDBACK 0
  PANLAW 1
  PROJOFFS 0 0 0
  MAXPROJLEN 0 0
  GRID 3199 8 1 8 1 0 0 0
  TIMEMODE 1 5 -1 30 0 0 -1
  VIDEO_CONFIG 0 0 65792
  PANMODE 3
  PANLAWFLAGS 3
  CURSOR 0
  ZOOM 100 0 0
  VZOOMEX 6 0
  USE_REC_CFG 0
  RECMODE 1
  SMPTESYNC 0 30 100 40 1000 300 0 0 1 0 0
  LOOP 0
  LOOPGRAN 0 4
  RECORD_PATH "Media" ""
  <RECORD_CFG
    ZXZhdxgAAQ==
  >
  <APPLYFX_CFG
  >
  RENDER_FILE ""
  RENDER_PATTERN ""
  RENDER_FMT 0 2 0
  RENDER_1X 0
  RENDER_RANGE 1 0 0 18 1000
  RENDER_RESAMPLE 3 0 1
  RENDER_ADDTOPROJ 0
  RENDER_STEMS 0
  RENDER_DITHER 0
  TIMELOCKMODE 1
  TEMPOENVLOCKMODE 1
  ITEMMIX 1
  DEFPITCHMODE 589824 0
  TAKELANE 1
  SAMPLERATE 44100 0 0
  <RENDER_CFG
    ZXZhdxgAAQ==
  >
  LOCK 1
  <METRONOME 6 2
    VOL 0.25 0.125
    BEATLEN 4
    FREQ 1760 880 1
    SAMPLES "" ""
    SPLIGNORE 0 0
    SPLDEF 2 660 "" 0
    SPLDEF 3 440 "" 0
    PATTERN 0 169
    PATTERNSTR ABBB
    MULT 1
  >
  GLOBAL_AUTO -1
  TEMPO 128.59999614200012 4 4
  PLAYRATE 1 0 0.25 4
  SELECTION 0 0
  SELECTION2 0 0
  MASTERAUTOMODE 0
  MASTERTRACKHEIGHT 0 0
  MASTERPEAKCOL 16576
  MASTERMUTESOLO 0
  MASTERTRACKVIEW 0 0.6667 0.5 0.5 0 0 0 0 0 0 0 0 0 0
  MASTERHWOUT 0 0 1 0 0 0 0 -1
  MASTER_NCH 2 2
  MASTER_VOLUME 1 0 -1 -1 1
  MASTER_PANMODE 3
  MASTER_PANLAWFLAGS 3
  MASTER_FX 1
  MASTER_SEL 0
  <MASTERPLAYSPEEDENV
    EGUID {698201FA-3C21-48D0-AB8C-09135BE27253}
    ACT 0 -1
    VIS 0 1 1
    LANEHEIGHT 0 0
    ARM 0
    DEFSHAPE 0 -1 -1
  >
  <TEMPOENVEX
    EGUID {EDC8BFFA-4210-426E-ABA8-9A75C0438B18}
    ACT 1 -1
    VIS 1 0 1
    LANEHEIGHT 0 0
    ARM 0
    DEFSHAPE 1 -1 -1
  >
  <PROJBAY
  >
  <TRACK {8FCDC6BF-D656-4161-85A1-23F38F0B0E6B}
    NAME "NES - Pulse 1 [ch0]"
    PEAKCOL 16576606
    BEAT -1
    AUTOMODE 0
    PANLAWFLAGS 3
    VOLPAN 1 0 -1 -1 1
    MUTESOLO 0 0 0
    IPHASE 0
    PLAYOFFS 0 1
    ISBUS 0 0
    BUSCOMP 0 0 0 0 0
    SHOWINMIX 1 0.6667 0.5 1 0.5 0 0 0
    FIXEDLANES 9 0 0 0 0
    SEL 1
    REC 1 5088 1 0 0 0 0 0
    VU 2
    TRACKHEIGHT 0 0 0 0 0 0 0
    INQ 0 0 0 0.5 100 0 0 100
    NCHAN 2
    FX 1
    TRACKID {8FCDC6BF-D656-4161-85A1-23F38F0B0E6B}
    PERF 0
    MIDIOUT -1
    MAINSEND 1 0
    <FXCHAIN
      WNDRECT 24 52 700 560
      SHOW 0
      LASTSEL 0
      DOCKED 0
      BYPASS 0 0 0
      <JS "ReapNES Studio/ReapNES_Console.jsfx" ""
        2 15 1 10 80 10 100 2 1 15 1 5 60 10 80 1 1 0 50 0 0 15 1 0 100 0 0 0.500000 0.500000 0.400000 0.300000 0.800000 0 1 0 0 0 0 - - - - - - - - - - - - - - - - - - - - - - - - - -
      >
      FLOATPOS 0 0 0 0
      FXID {EE89AC66-A748-453E-AE00-6B3700FF29FE}
      WAK 0 0
    >
    <ITEM
      POSITION 0
      LENGTH 74.65008
      LOOP 0
      ALLTAKES 0
      FADEIN 0 0 0 0 0 0 0
      FADEOUT 0 0 0 0 0 0 0
      MUTE 0 0
      SEL 0
      IGUID {4214A915-68B5-4E1A-8809-40D2783BA5F4}
      <SOURCE MIDI
        HASDATA 1 480 QN
        CCINTERP 32
        E 0 c0 50
        E 0 b0 0c 10
        E 0 b0 0b 2a
        E 0 90 40 2a
        E 16 b0 0b 3b
        E 16 b0 0b 44
        E 16 b0 0b 3b
        E 16 b0 0b 33
        E 16 b0 0b 2a
        E 16 b0 0b 22
        E 16 80 40 00
        E 272 b0 0b 2a
        E 0 90 45 2a
        E 16 b0 0b 3b
        E 16 b0 0b 44
        E 16 b0 0b 3b
        E 16 b0 0b 33
        E 16 b0 0b 2a
        E 16 b0 0b 22
        E 16 80 45 00
        E 144 b0 0b 2a
        E 0 90 45 2a
        E 16 b0 0b 3b
        E 16 b0 0b 44
        E 16 b0 0b 3b
        E 16 b0 0b 33
        E 16 b0 0b 2a
        E 16 b0 0b 22
        E 16 80 45 00
        E 16 b0 0b 2a
        E 0 90 45 2a
        E 16 b0 0b 3b
        E 16 b0 0b 44
        E 16 b0 0b 3b
        E 16 b0 0b 33
        E 16 b0 0b 2a
        E 16 b0 0b 22
        E 16 80 45 00
        E 656 b0 0b 2a
        E 0 90 31 2a
        E 16 b0 0b 3b
        E 16 b0 0b 44
        E 16 b0 0b 3b
        E 16 b0 0b 33
        E 16 b0 0b 2a
        E 16 b0 0b 22
        E 16 80 31 00
        E 272 b0 0b 2a
        E 0 90 32 2a
        E 16 b0 0b 3b
        E 16 b0 0b 44
        E 16 b0 0b 3b
        E 16 b0 0b 33
        E 16 b0 0b 2a
        E 16 b0 0b 22
        E 16 80 32 00
        E 272 b0 0b 2a
        E 0 90 31 2a
        E 16 b0 0b 3b
        E 16 b0 0b 44
        E 16 b0 0b 3b
        E 16 b0 0b 33
        E 16 b0 0b 2a
        E 16 b0 0b 22
        E 16 80 31 00
        E 272 b0 0b 2a
        E 0 90 21 2a
        E 16 b0 0b 3b
        E 16 b0 0b 44
        E 16 b0 0b 3b
        E 16 b0 0b 33
        E 16 b0 0b 2a
        E 16 b0 0b 22
        E 16 80 21 00
        E 288 b0 0b 2a
        E 0 90 21 2a
        E 16 b0 0b 3b
        E 16 b0 0b 44
        E 16 b0 0b 3b
        E 16 b0 0b 33
        E 16 b0 0b 2a
        E 16 b0 0b 22
        E 16 80 21 00
        E 3968 b0 0b 2a
        E 0 90 3f 2a
        E 16 b0 0b 3b
        E 16 b0 0b 44
        E 16 b0 0b 3b
        E 16 b0 0b 33
        E 16 b0 0b 2a
        E 16 b0 0b 22
        E 16 80 3f 00
        E 272 b0 0b 2a
        E 0 90 44 2a
        E 16 b0 0b 3b
        E 16 b0 0b 44
        E 16 b0 0b 3b
        E 16 b0 0b 33
        E 16 b0 0b 2a
        E 16 b0 0b 22
        E 16 80 44 00
        E 144 b0 0b 2a
        E 0 90 44 2a
        E 16 b0 0b 3b
        E 16 b0 0b 44
        E 16 b0 0b 3b
        E 16 b0 0b 33
        E 16 b0 0b 2a
        E 16 b0 0b 22
        E 16 80 44 00
        E 16 b0 0b 2a
        E 0 90 44 2a
        E 16 b0 0b 3b
        E 16 b0 0b 44
        E 16 b0 0b 3b
        E 16 b0 0b 33
        E 16 b0 0b 2a
        E 16 b0 0b 22
        E 16 80 44 00
        E 656 b0 0b 2a
        E 0 90 2d 2a
        E 16 b0 0b 3b
        E 16 b0 0b 44
        E 16 b0 0b 3b
        E 16 b0 0b 33
        E 16 b0 0b 2a
        E 16 b0 0b 22
        E 16 80 2d 00
        E 272 b0 0b 2a
        E 0 90 2e 2a
        E 16 b0 0b 3b
        E 16 b0 0b 44
        E 16 b0 0b 3b
        E 16 b0 0b 33
        E 16 b0 0b 2a
        E 16 b0 0b 22
        E 16 80 2e 00
        E 272 b0 0b 2a
        E 0 90 2d 2a
        E 16 b0 0b 3b
        E 16 b0 0b 44
        E 16 b0 0b 3b
        E 16 b0 0b 33
        E 16 b0 0b 2a
        E 16 b0 0b 22
        E 16 80 2d 00
        E 272 b0 0b 2a
        E 0 90 28 2a
        E 16 b0 0b 3b
        E 16 b0 0b 44
        E 16 b0 0b 3b
        E 16 b0 0b 33
        E 16 b0 0b 2a
        E 16 b0 0b 22
        E 16 80 28 00
        E 272 b0 0b 2a
        E 0 90 39 2a
        E 16 b0 0b 3b
        E 16 b0 0b 44
        E 16 b0 0b 3b
        E 16 b0 0b 33
        E 16 b0 0b 2a
        E 16 b0 0b 22
        E 16 80 39 00
        E 80 b0 0b 2a
        E 0 90 45 2a
        E 16 b0 0b 3b
        E 16 b0 0b 44
        E 16 b0 0b 3b
        E 16 b0 0b 33
        E 16 b0 0b 2a
        E 32 b0 0b 3b
        E 16 b0 0b 44
        E 16 b0 0b 3b
        E 16 b0 0b 33
        E 16 b0 0b 2a
        E 32 b0 0b 3b
        E 16 b0 0b 44
        E 16 b0 0b 3b
        E 16 b0 0b 33
        E 16 b0 0b 2a
        E 16 b0 0b 22
        E 16 80 45 00
        E 144 b0 0b 2a
        E 0 90 45 2a
        E 16 b0 0b 3b
        E 16 b0 0b 44
        E 16 b0 0b 3b
        E 16 b0 0b 33
        E 16 b0 0b 2a
        E 16 b0 0b 22
        E 16 80 45 00
        E 16 b0 0b 2a
        E 0 90 39 2a
        E 16 b0 0b 3b
        E 16 b0 0b 44
        E 16 b0 0b 3b
        E 16 b0 0b 33
        E 16 b0 0b 2a
        E 16 b0 0b 22
        E 16 80 39 00
        E 80 b0 0b 2a
        E 0 90 45 2a
        E 16 b0 0b 3b
        E 16 b0 0b 44
        E 16 b0 0b 3b
        E 16 b0 0b 33
        E 16 b0 0b 2a
        E 32 b0 0b 3b
        E 16 b0 0b 44
        E 16 b0 0b 3b
        E 16 b0 0b 33
        E 16 b0 0b 2a
        E 32 b0 0b 3b
        E 16 b0 0b 44
        E 16 b0 0b 3b
        E 16 b0 0b 33
        E 16 b0 0b 2a
        E 16 b0 0b 22
        E 16 80 45 00
        E 144 b0 0b 2a
        E 0 90 45 2a
        E 16 b0 0b 3b
        E 16 b0 0b 44
        E 16 b0 0b 3b
        E 16 b0 0b 33
        E 16 b0 0b 2a
        E 16 b0 0b 22
        E 16 80 45 00
        E 16 b0 0b 2a
        E 0 90 28 2a
        E 16 b0 0b 3b
        E 16 b0 0b 44
        E 16 b0 0b 3b
        E 16 b0 0b 33
        E 16 b0 0b 2a
        E 16 b0 0b 22
        E 16 80 28 00
        E 272 b0 0b 2a
        E 0 90 2e 2a
        E 16 b0 0b 3b
        E 16 b0 0b 44
        E 16 b0 0b 3b
        E 16 b0 0b 33
        E 16 b0 0b 2a
        E 16 b0 0b 22
        E 16 80 2e 00
        E 272 b0 0b 2a
        E 0 90 2d 2a
        E 16 b0 0b 3b
        E 16 b0 0b 44
        E 16 b0 0b 3b
        E 16 b0 0b 33
        E 16 b0 0b 2a
        E 16 b0 0b 22
        E 16 80 2d 00
        E 272 b0 0b 2a
        E 0 90 21 2a
        E 16 b0 0b 3b
        E 16 b0 0b 44
        E 16 b0 0b 3b
        E 16 b0 0b 33
        E 16 b0 0b 2a
        E 16 b0 0b 22
        E 16 80 21 00
        E 3344 b0 0b 2a
        E 0 90 2c 2a
        E 16 b0 0b 3b
        E 16 b0 0b 44
        E 16 b0 0b 3b
        E 16 b0 0b 33
        E 16 b0 0b 2a
        E 16 b0 0b 22
        E 16 80 2c 00
        E 16 b0 0b 2a
        E 0 90 2c 2a
        E 16 b0 0b 3b
        E 16 b0 0b 44
        E 16 b0 0b 3b
        E 16 b0 0b 33
        E 16 b0 0b 2a
        E 16 b0 0b 22
        E 16 80 2c 00
        E 16 b0 0b 2a
        E 0 90 2c 2a
        E 16 b0 0b 3b
        E 16 b0 0b 44
        E 16 b0 0b 3b
        E 16 b0 0b 33
        E 16 b0 0b 2a
        E 16 b0 0b 22
        E 16 80 2c 00
        E 16 b0 0b 2a
        E 0 90 30 2a
        E 16 b0 0b 3b
        E 16 b0 0b 44
        E 16 b0 0b 3b
        E 16 b0 0b 33
        E 16 b0 0b 2a
        E 16 b0 0b 22
        E 16 80 30 00
        E 144 b0 0b 2a
        E 0 90 27 2a
        E 16 b0 0b 3b
        E 16 b0 0b 44
        E 16 b0 0b 3b
        E 16 b0 0b 33
        E 16 b0 0b 2a
        E 16 b0 0b 22
        E 16 80 27 00
        E 16 b0 0b 2a
        E 0 90 2c 2a
        E 16 b0 0b 3b
        E 16 b0 0b 44
        E 16 b0 0b 3b
        E 16 b0 0b 33
        E 16 b0 0b 2a
        E 16 b0 0b 22
        E 16 80 2c 00
        E 272 b0 0b 2a
        E 0 90 2c 2a
        E 16 b0 0b 3b
        E 16 b0 0b 44
        E 16 b0 0b 3b
        E 16 b0 0b 33
        E 16 b0 0b 2a
        E 16 b0 0b 22
        E 16 80 2c 00
        E 16 b0 0b 2a
        E 0 90 30 2a
        E 16 b0 0b 3b
        E 16 b0 0b 44
        E 16 b0 0b 3b
        E 16 b0 0b 33
        E 16 b0 0b 2a
        E 16 b0 0b 22
        E 16 80 30 00
        E 16 b0 0b 2a
        E 0 90 33 2a
        E 16 b0 0b 3b
        E 16 b0 0b 44
        E 16 b0 0b 3b
        E 16 b0 0b 33
        E 16 b0 0b 2a
        E 16 b0 0b 22
        E 16 80 33 00
        E 16 b0 0b 2a
        E 0 90 37 2a
        E 16 b0 0b 3b
        E 16 b0 0b 44
        E 16 b0 0b 3b
        E 16 b0 0b 33
        E 16 b0 0b 2a
        E 16 b0 0b 22
        E 16 80 37 00
        E 656 b0 0b 2a
        E 0 90 35 2a
        E 16 b0 0b 3b
        E 16 b0 0b 44
        E 16 b0 0b 3b
        E 16 b0 0b 33
        E 16 b0 0b 2a
        E 16 b0 0b 22
        E 16 80 35 00
        E 656 b0 0b 2a
        E 0 90 33 2a
        E 16 b0 0b 3b
        E 16 b0 0b 44
        E 16 b0 0b 3b
        E 16 b0 0b 33
        E 16 b0 0b 2a
        E 16 b0 0b 22
        E 16 80 33 00
        E 16 b0 0b 2a
        E 0 90 33 2a
        E 16 b0 0b 3b
        E 16 b0 0b 44
        E 16 b0 0b 3b
        E 16 b0 0b 33
        E 16 b0 0b 2a
        E 16 b0 0b 22
        E 16 80 33 00
        E 16 b0 0b 2a
        E 0 90 33 2a
        E 16 b0 0b 3b
        E 16 b0 0b 44
        E 16 b0 0b 3b
        E 16 b0 0b 33
        E 16 b0 0b 2a
        E 16 b0 0b 22
        E 16 80 33 00
        E 16 b0 0b 2a
        E 0 90 38 2a
        E 16 b0 0b 3b
        E 16 b0 0b 44
        E 16 b0 0b 3b
        E 16 b0 0b 33
        E 16 b0 0b 2a
        E 16 b0 0b 22
        E 16 80 38 00
        E 144 b0 0b 2a
        E 0 90 30 2a
        E 16 b0 0b 3b
        E 16 b0 0b 44
        E 16 b0 0b 3b
        E 16 b0 0b 33
        E 16 b0 0b 2a
        E 16 b0 0b 22
        E 16 80 30 00
        E 16 b0 0b 2a
        E 0 90 33 2a
        E 16 b0 0b 3b
        E 16 b0 0b 44
        E 16 b0 0b 3b
        E 16 b0 0b 33
        E 16 b0 0b 2a
        E 16 b0 0b 22
        E 16 80 33 00
        E 272 b0 0b 2a
        E 0 90 33 2a
        E 16 b0 0b 3b
        E 16 b0 0b 44
        E 16 b0 0b 3b
        E 16 b0 0b 33
        E 16 b0 0b 2a
        E 16 b0 0b 22
        E 16 80 33 00
        E 16 b0 0b 2a
        E 0 90 38 2a
        E 16 b0 0b 3b
        E 16 b0 0b 44
        E 16 b0 0b 3b
        E 16 b0 0b 33
        E 16 b0 0b 2a
        E 16 b0 0b 22
        E 16 80 38 00
        E 16 b0 0b 2a
        E 0 90 30 2a
        E 16 b0 0b 3b
        E 16 b0 0b 44
        E 16 b0 0b 3b
        E 16 b0 0b 33
        E 16 b0 0b 2a
        E 16 b0 0b 22
        E 16 80 30 00
        E 16 b0 0b 2a
        E 0 90 3a 2a
        E 16 b0 0b 3b
        E 16 b0 0b 44
        E 16 b0 0b 3b
        E 16 b0 0b 33
        E 16 b0 0b 2a
        E 16 b0 0b 22
        E 16 80 3a 00
        E 656 b0 0b 2a
        E 0 90 3d 2a
        E 16 b0 0b 3b
        E 16 b0 0b 44
        E 16 b0 0b 3b
        E 16 b0 0b 33
        E 16 b0 0b 2a
        E 16 b0 0b 22
        E 16 80 3d 00
        E 656 b0 0b 2a
        E 0 90 2c 2a
        E 16 b0 0b 3b
        E 16 b0 0b 44
        E 16 b0 0b 3b
        E 16 b0 0b 33
        E 16 b0 0b 2a
        E 16 b0 0b 22
        E 16 80 2c 00
        E 16 b0 0b 2a
        E 0 90 2c 2a
        E 16 b0 0b 3b
        E 16 b0 0b 44
        E 16 b0 0b 3b
        E 16 b0 0b 33
        E 16 b0 0b 2a
        E 16 b0 0b 22
        E 16 80 2c 00
        E 16 b0 0b 2a
        E 0 90 2c 2a
        E 16 b0 0b 3b
        E 16 b0 0b 44
        E 16 b0 0b 3b
        E 16 b0 0b 33
        E 16 b0 0b 2a
        E 16 b0 0b 22
        E 16 80 2c 00
        E 16 b0 0b 2a
        E 0 90 30 2a
        E 16 b0 0b 3b
        E 16 b0 0b 44
        E 16 b0 0b 3b
        E 16 b0 0b 33
        E 16 b0 0b 2a
        E 16 b0 0b 22
        E 16 80 30 00
        E 144 b0 0b 2a
        E 0 90 27 2a
        E 16 b0 0b 3b
        E 16 b0 0b 44
        E 16 b0 0b 3b
        E 16 b0 0b 33
        E 16 b0 0b 2a
        E 16 b0 0b 22
        E 16 80 27 00
        E 16 b0 0b 2a
        E 0 90 2c 2a
        E 16 b0 0b 3b
        E 16 b0 0b 44
        E 16 b0 0b 3b
        E 16 b0 0b 33
        E 16 b0 0b 2a
        E 16 b0 0b 22
        E 16 80 2c 00
        E 272 b0 0b 2a
        E 0 90 2c 2a
        E 16 b0 0b 3b
        E 16 b0 0b 44
        E 16 b0 0b 3b
        E 16 b0 0b 33
        E 16 b0 0b 2a
        E 16 b0 0b 22
        E 16 80 2c 00
        E 16 b0 0b 2a
        E 0 90 30 2a
        E 16 b0 0b 3b
        E 16 b0 0b 44
        E 16 b0 0b 3b
        E 16 b0 0b 33
        E 16 b0 0b 2a
        E 16 b0 0b 22
        E 16 80 30 00
        E 16 b0 0b 2a
        E 0 90 33 2a
        E 16 b0 0b 3b
        E 16 b0 0b 44
        E 16 b0 0b 3b
        E 16 b0 0b 33
        E 16 b0 0b 2a
        E 16 b0 0b 22
        E 16 80 33 00
        E 16 b0 0b 2a
        E 0 90 37 2a
        E 16 b0 0b 3b
        E 16 b0 0b 44
        E 16 b0 0b 3b
        E 16 b0 0b 33
        E 16 b0 0b 2a
        E 16 b0 0b 22
        E 16 80 37 00
        E 656 b0 0b 2a
        E 0 90 35 2a
        E 16 b0 0b 3b
        E 16 b0 0b 44
        E 16 b0 0b 3b
        E 16 b0 0b 33
        E 16 b0 0b 2a
        E 16 b0 0b 22
        E 16 80 35 00
        E 656 b0 0b 2a
        E 0 90 33 2a
        E 16 b0 0b 3b
        E 16 b0 0b 44
        E 16 b0 0b 3b
        E 16 b0 0b 33
        E 16 b0 0b 2a
        E 16 b0 0b 22
        E 16 80 33 00
        E 16 b0 0b 2a
        E 0 90 33 2a
        E 16 b0 0b 3b
        E 16 b0 0b 44
        E 16 b0 0b 3b
        E 16 b0 0b 33
        E 16 b0 0b 2a
        E 16 b0 0b 22
        E 16 80 33 00
        E 16 b0 0b 2a
        E 0 90 33 2a
        E 16 b0 0b 3b
        E 16 b0 0b 44
        E 16 b0 0b 3b
        E 16 b0 0b 33
        E 16 b0 0b 2a
        E 16 b0 0b 22
        E 16 80 33 00
        E 16 b0 0b 2a
        E 0 90 38 2a
        E 16 b0 0b 3b
        E 16 b0 0b 44
        E 16 b0 0b 3b
        E 16 b0 0b 33
        E 16 b0 0b 2a
        E 16 b0 0b 22
        E 16 80 38 00
        E 144 b0 0b 2a
        E 0 90 30 2a
        E 16 b0 0b 3b
        E 16 b0 0b 44
        E 16 b0 0b 3b
        E 16 b0 0b 33
        E 16 b0 0b 2a
        E 16 b0 0b 22
        E 16 80 30 00
        E 16 b0 0b 2a
        E 0 90 33 2a
        E 16 b0 0b 3b
        E 16 b0 0b 44
        E 16 b0 0b 3b
        E 16 b0 0b 33
        E 16 b0 0b 2a
        E 16 b0 0b 22
        E 16 80 33 00
        E 272 b0 0b 2a
        E 0 90 33 2a
        E 16 b0 0b 3b
        E 16 b0 0b 44
        E 16 b0 0b 3b
        E 16 b0 0b 33
        E 16 b0 0b 2a
        E 16 b0 0b 22
        E 16 80 33 00
        E 16 b0 0b 2a
        E 0 90 38 2a
        E 16 b0 0b 3b
        E 16 b0 0b 44
        E 16 b0 0b 3b
        E 16 b0 0b 33
        E 16 b0 0b 2a
        E 16 b0 0b 22
        E 16 80 38 00
        E 16 b0 0b 2a
        E 0 90 30 2a
        E 16 b0 0b 3b
        E 16 b0 0b 44
        E 16 b0 0b 3b
        E 16 b0 0b 33
        E 16 b0 0b 2a
        E 16 b0 0b 22
        E 16 80 30 00
        E 16 b0 0b 2a
        E 0 90 3a 2a
        E 16 b0 0b 3b
        E 16 b0 0b 44
        E 16 b0 0b 3b
        E 16 b0 0b 33
        E 16 b0 0b 2a
        E 16 b0 0b 22
        E 16 80 3a 00
        E 656 b0 0b 2a
        E 0 90 3d 2a
        E 16 b0 0b 3b
        E 16 b0 0b 44
        E 16 b0 0b 3b
        E 16 b0 0b 33
        E 16 b0 0b 2a
        E 16 b0 0b 22
        E 16 80 3d 00
        E 656 b0 0b 2a
        E 0 90 38 2a
        E 16 b0 0b 3b
        E 16 b0 0b 44
        E 16 b0 0b 3b
        E 16 b0 0b 33
        E 16 b0 0b 2a
        E 16 b0 0b 22
        E 16 80 38 00
        E 144 b0 0b 2a
        E 0 90 38 2a
        E 16 b0 0b 3b
        E 16 b0 0b 44
        E 16 b0 0b 3b
        E 16 b0 0b 33
        E 16 b0 0b 2a
        E 16 b0 0b 22
        E 16 80 38 00
        E 16 b0 0b 2a
        E 0 90 3a 2a
        E 16 b0 0b 3b
        E 16 b0 0b 44
        E 16 b0 0b 3b
        E 16 b0 0b 33
        E 16 b0 0b 2a
        E 16 b0 0b 22
        E 16 80 3a 00
        E 272 b0 0b 2a
        E 0 90 3c 2a
        E 16 b0 0b 3b
        E 16 b0 0b 44
        E 16 b0 0b 3b
        E 16 b0 0b 33
        E 16 b0 0b 2a
        E 16 b0 0b 22
        E 16 80 3c 00
        E 272 b0 0b 2a
        E 0 90 3d 2a
        E 16 b0 0b 3b
        E 16 b0 0b 44
        E 16 b0 0b 3b
        E 16 b0 0b 33
        E 16 b0 0b 2a
        E 16 b0 0b 22
        E 16 80 3d 00
        E 272 b0 0b 2a
        E 0 90 3f 2a
        E 16 b0 0b 3b
        E 16 b0 0b 44
        E 16 b0 0b 3b
        E 16 b0 0b 33
        E 16 b0 0b 2a
        E 16 b0 0b 22
        E 16 80 3f 00
        E 1040 b0 0b 2a
        E 0 90 3f 2a
        E 16 b0 0b 3b
        E 16 b0 0b 44
        E 16 b0 0b 3b
        E 16 b0 0b 33
        E 16 b0 0b 2a
        E 16 b0 0b 22
        E 16 80 3f 00
        E 16 b0 0b 2a
        E 0 90 3b 2a
        E 16 b0 0b 3b
        E 16 b0 0b 44
        E 16 b0 0b 3b
        E 16 b0 0b 33
        E 16 b0 0b 2a
        E 16 b0 0b 22
        E 16 80 3b 00
        E 16 b0 0b 2a
        E 0 90 3f 2a
        E 16 b0 0b 3b
        E 16 b0 0b 44
        E 16 b0 0b 3b
        E 16 b0 0b 33
        E 16 b0 0b 2a
        E 16 b0 0b 22
        E 16 80 3f 00
        E 16 b0 0b 2a
        E 0 90 3c 2a
        E 16 b0 0b 3b
        E 16 b0 0b 44
        E 16 b0 0b 3b
        E 16 b0 0b 33
        E 16 b0 0b 2a
        E 16 b0 0b 22
        E 16 80 3c 00
        E 1424 b0 0b 2a
        E 0 90 38 2a
        E 16 b0 0b 3b
        E 16 b0 0b 44
        E 16 b0 0b 3b
        E 16 b0 0b 33
        E 16 b0 0b 2a
        E 16 b0 0b 22
        E 16 80 38 00
        E 144 b0 0b 2a
        E 0 90 38 2a
        E 16 b0 0b 3b
        E 16 b0 0b 44
        E 16 b0 0b 3b
        E 16 b0 0b 33
        E 16 b0 0b 2a
        E 16 b0 0b 22
        E 16 80 38 00
        E 16 b0 0b 2a
        E 0 90 3a 2a
        E 16 b0 0b 3b
        E 16 b0 0b 44
        E 16 b0 0b 3b
        E 16 b0 0b 33
        E 16 b0 0b 2a
        E 16 b0 0b 22
        E 16 80 3a 00
        E 272 b0 0b 2a
        E 0 90 3c 2a
        E 16 b0 0b 3b
        E 16 b0 0b 44
        E 16 b0 0b 3b
        E 16 b0 0b 33
        E 16 b0 0b 2a
        E 16 b0 0b 22
        E 16 80 3c 00
        E 272 b0 0b 2a
        E 0 90 3d 2a
        E 16 b0 0b 3b
        E 16 b0 0b 44
        E 16 b0 0b 3b
        E 16 b0 0b 33
        E 16 b0 0b 2a
        E 16 b0 0b 22
        E 16 80 3d 00
        E 272 b0 0b 2a
        E 0 90 3f 2a
        E 16 b0 0b 3b
        E 16 b0 0b 44
        E 16 b0 0b 3b
        E 16 b0 0b 33
        E 16 b0 0b 2a
        E 16 b0 0b 22
        E 16 80 3f 00
        E 1040 b0 0b 2a
        E 0 90 3f 2a
        E 16 b0 0b 3b
        E 16 b0 0b 44
        E 16 b0 0b 3b
        E 16 b0 0b 33
        E 16 b0 0b 2a
        E 16 b0 0b 22
        E 16 80 3f 00
        E 16 b0 0b 2a
        E 0 90 3b 2a
        E 16 b0 0b 3b
        E 16 b0 0b 44
        E 16 b0 0b 3b
        E 16 b0 0b 33
        E 16 b0 0b 2a
        E 16 b0 0b 22
        E 16 80 3b 00
        E 16 b0 0b 2a
        E 0 90 3f 2a
        E 16 b0 0b 3b
        E 16 b0 0b 44
        E 16 b0 0b 3b
        E 16 b0 0b 33
        E 16 b0 0b 2a
        E 16 b0 0b 22
        E 16 80 3f 00
        E 16 b0 0b 2a
        E 0 90 3c 2a
        E 16 b0 0b 3b
        E 16 b0 0b 44
        E 16 b0 0b 3b
        E 16 b0 0b 33
        E 16 b0 0b 2a
        E 16 b0 0b 22
        E 16 80 3c 00
        E 1040 b0 0b 2a
        E 0 90 38 2a
        E 16 b0 0b 3b
        E 16 b0 0b 44
        E 16 b0 0b 3b
        E 16 b0 0b 33
        E 16 b0 0b 2a
        E 16 b0 0b 22
        E 16 80 38 00
        E 16 b0 0b 2a
        E 0 90 3c 2a
        E 16 b0 0b 3b
        E 16 b0 0b 44
        E 16 b0 0b 3b
        E 16 b0 0b 33
        E 16 b0 0b 2a
        E 16 b0 0b 22
        E 16 80 3c 00
        E 16 b0 0b 2a
        E 0 90 3d 2a
        E 16 b0 0b 3b
        E 16 b0 0b 44
        E 16 b0 0b 3b
        E 16 b0 0b 33
        E 16 b0 0b 2a
        E 16 b0 0b 22
        E 16 80 3d 00
        E 16 b0 0b 2a
        E 0 90 3f 2a
        E 16 b0 0b 3b
        E 16 b0 0b 44
        E 16 b0 0b 3b
        E 16 b0 0b 33
        E 16 b0 0b 2a
        E 16 b0 0b 22
        E 16 80 3f 00
        E 1040 b0 0b 2a
        E 0 90 3d 2a
        E 16 b0 0b 3b
        E 16 b0 0b 44
        E 16 b0 0b 3b
        E 16 b0 0b 33
        E 16 b0 0b 2a
        E 16 b0 0b 22
        E 16 80 3d 00
        E 176 b0 0b 2a
        E 0 90 3c 2a
        E 16 b0 0b 3b
        E 16 b0 0b 44
        E 16 b0 0b 3b
        E 16 b0 0b 33
        E 16 b0 0b 2a
        E 16 80 3c 00
        E 0 90 3d 2a
        E 16 b0 0b 3b
        E 16 b0 0b 44
        E 16 b0 0b 3b
        E 16 b0 0b 33
        E 16 b0 0b 2a
        E 16 b0 0b 22
        E 16 80 3d 00
        E 656 b0 0b 2a
        E 0 90 38 2a
        E 16 b0 0b 3b
        E 16 b0 0b 44
        E 16 b0 0b 3b
        E 16 b0 0b 33
        E 16 b0 0b 2a
        E 16 b0 0b 22
        E 16 80 38 00
        E 272 b0 0b 2a
        E 0 90 3a 2a
        E 16 b0 0b 3b
        E 16 b0 0b 44
        E 16 b0 0b 3b
        E 16 b0 0b 33
        E 16 b0 0b 2a
        E 16 b0 0b 22
        E 16 80 3a 00
        E 272 b0 0b 2a
        E 0 90 3c 2a
        E 16 b0 0b 3b
        E 16 b0 0b 44
        E 16 b0 0b 3b
        E 16 b0 0b 33
        E 16 b0 0b 2a
        E 16 b0 0b 22
        E 16 80 3c 00
        E 272 b0 0b 2a
        E 0 90 3d 2a
        E 16 b0 0b 3b
        E 16 b0 0b 44
        E 16 b0 0b 3b
        E 16 b0 0b 33
        E 16 b0 0b 2a
        E 16 b0 0b 22
        E 16 80 3d 00
        E 176 b0 0b 2a
        E 0 90 3c 2a
        E 16 b0 0b 3b
        E 16 b0 0b 44
        E 16 b0 0b 3b
        E 16 b0 0b 33
        E 16 b0 0b 2a
        E 16 80 3c 00
        E 0 90 3a 2a
        E 16 b0 0b 3b
        E 16 b0 0b 44
        E 16 b0 0b 3b
        E 16 b0 0b 33
        E 16 b0 0b 2a
        E 16 b0 0b 22
        E 16 80 3a 00
        E 272 b0 0b 2a
        E 0 90 38 2a
        E 16 b0 0b 3b
        E 16 b0 0b 44
        E 16 b0 0b 3b
        E 16 b0 0b 33
        E 16 b0 0b 2a
        E 16 b0 0b 22
        E 16 80 38 00
        E 272 b0 0b 2a
        E 0 90 38 2a
        E 16 b0 0b 3b
        E 16 b0 0b 44
        E 16 b0 0b 3b
        E 16 b0 0b 33
        E 16 b0 0b 2a
        E 16 b0 0b 22
        E 16 80 38 00
        E 272 b0 0b 2a
        E 0 90 37 2a
        E 16 b0 0b 3b
        E 16 b0 0b 44
        E 16 b0 0b 3b
        E 16 b0 0b 33
        E 16 b0 0b 2a
        E 16 b0 0b 22
        E 16 80 37 00
        E 272 b0 0b 2a
        E 0 90 35 2a
        E 16 b0 0b 3b
        E 16 b0 0b 44
        E 16 b0 0b 3b
        E 16 b0 0b 33
        E 16 b0 0b 2a
        E 16 b0 0b 22
        E 16 80 35 00
        E 272 b0 0b 2a
        E 0 90 37 2a
        E 16 b0 0b 3b
        E 16 b0 0b 44
        E 16 b0 0b 3b
        E 16 b0 0b 33
        E 16 b0 0b 2a
        E 16 b0 0b 22
        E 16 80 37 00
        E 272 b0 0b 2a
        E 0 90 38 2a
        E 16 b0 0b 3b
        E 16 b0 0b 44
        E 16 b0 0b 3b
        E 16 b0 0b 33
        E 16 b0 0b 2a
        E 16 b0 0b 22
        E 16 80 38 00
        E 16 b0 0b 2a
        E 0 90 33 2a
        E 16 b0 0b 3b
        E 16 b0 0b 44
        E 16 b0 0b 3b
        E 16 b0 0b 33
        E 16 b0 0b 2a
        E 16 b0 0b 22
        E 16 80 33 00
        E 16 b0 0b 2a
        E 0 90 38 2a
        E 16 b0 0b 3b
        E 16 b0 0b 44
        E 16 b0 0b 3b
        E 16 b0 0b 33
        E 16 b0 0b 2a
        E 16 b0 0b 22
        E 16 80 38 00
        E 16 b0 0b 2a
        E 0 90 3c 2a
        E 16 b0 0b 3b
        E 16 b0 0b 44
        E 16 b0 0b 3b
        E 16 b0 0b 33
        E 16 b0 0b 2a
        E 16 b0 0b 22
        E 16 80 3c 00
        E 16 b0 0b 2a
        E 0 90 38 2a
        E 16 b0 0b 3b
        E 16 b0 0b 44
        E 16 b0 0b 3b
        E 16 b0 0b 33
        E 16 b0 0b 2a
        E 16 b0 0b 22
        E 16 80 38 00
        E 16 b0 0b 2a
        E 0 90 3c 2a
        E 16 b0 0b 3b
        E 16 b0 0b 44
        E 16 b0 0b 3b
        E 16 b0 0b 33
        E 16 b0 0b 2a
        E 16 b0 0b 22
        E 16 80 3c 00
        E 16 b0 0b 2a
        E 0 90 3f 2a
        E 16 b0 0b 3b
        E 16 b0 0b 44
        E 16 b0 0b 3b
        E 16 b0 0b 33
        E 16 b0 0b 2a
        E 16 b0 0b 22
        E 16 80 3f 00
        E 272 b0 0b 2a
        E 0 90 3c 2a
        E 16 b0 0b 3b
        E 16 b0 0b 44
        E 16 b0 0b 3b
        E 16 b0 0b 33
        E 16 b0 0b 2a
        E 16 b0 0b 22
        E 16 80 3c 00
        E 144 b0 0b 2a
        E 0 90 38 2a
        E 16 b0 0b 3b
        E 16 b0 0b 44
        E 16 b0 0b 3b
        E 16 b0 0b 33
        E 16 b0 0b 2a
        E 16 b0 0b 22
        E 16 80 38 00
        E 16 b0 0b 2a
        E 0 90 3d 2a
        E 16 b0 0b 3b
        E 16 b0 0b 44
        E 16 b0 0b 3b
        E 16 b0 0b 33
        E 16 b0 0b 2a
        E 16 b0 0b 22
        E 16 80 3d 00
        E 272 b0 0b 2a
        E 0 90 3c 2a
        E 16 b0 0b 3b
        E 16 b0 0b 44
        E 16 b0 0b 3b
        E 16 b0 0b 33
        E 16 b0 0b 2a
        E 16 b0 0b 22
        E 16 80 3c 00
        E 176 b0 0b 2a
        E 0 90 3a 2a
        E 16 b0 0b 3b
        E 16 b0 0b 44
        E 16 b0 0b 3b
        E 16 b0 0b 33
        E 16 b0 0b 2a
        E 16 80 3a 00
        E 0 90 38 2a
        E 16 b0 0b 3b
        E 16 b0 0b 44
        E 16 b0 0b 3b
        E 16 b0 0b 33
        E 16 b0 0b 2a
        E 16 b0 0b 22
        E 16 80 38 00
        E 272 b0 0b 2a
        E 0 90 3a 2a
        E 16 b0 0b 3b
        E 16 b0 0b 44
        E 16 b0 0b 3b
        E 16 b0 0b 33
        E 16 b0 0b 2a
        E 16 b0 0b 22
        E 16 80 3a 00
        E 272 b0 0b 2a
        E 0 90 38 2a
        E 16 b0 0b 3b
        E 16 b0 0b 44
        E 16 b0 0b 3b
        E 16 b0 0b 33
        E 16 b0 0b 2a
        E 16 b0 0b 22
        E 16 80 38 00
        E 1424 b0 0b 2a
        E 0 90 38 2a
        E 16 b0 0b 3b
        E 16 b0 0b 44
        E 16 b0 0b 3b
        E 16 b0 0b 33
        E 16 b0 0b 2a
        E 16 b0 0b 22
        E 16 80 38 00
        E 1424 b0 0b 2a
        E 0 90 38 2a
        E 16 b0 0b 3b
        E 16 b0 0b 44
        E 16 b0 0b 3b
        E 16 b0 0b 33
        E 16 b0 0b 2a
        E 16 b0 0b 22
        E 16 80 38 00
        E 1424 b0 0b 2a
        E 0 90 31 2a
        E 16 b0 0b 3b
        E 16 b0 0b 44
        E 16 b0 0b 3b
        E 16 b0 0b 33
        E 16 b0 0b 2a
        E 16 b0 0b 22
        E 16 80 31 00
        E 656 b0 0b 2a
        E 0 90 33 2a
        E 16 b0 0b 3b
        E 16 b0 0b 44
        E 16 b0 0b 3b
        E 16 b0 0b 33
        E 16 b0 0b 2a
        E 16 b0 0b 22
        E 16 80 33 00
        E 16 b0 0b 2a
        E 0 90 31 2a
        E 16 b0 0b 3b
        E 16 b0 0b 44
        E 16 b0 0b 3b
        E 16 b0 0b 33
        E 16 b0 0b 2a
        E 16 b0 0b 22
        E 16 80 31 00
        E 16 b0 0b 2a
        E 0 90 33 2a
        E 16 b0 0b 3b
        E 16 b0 0b 44
        E 16 b0 0b 3b
        E 16 b0 0b 33
        E 16 b0 0b 2a
        E 16 b0 0b 22
        E 16 80 33 00
        E 16 b0 0b 2a
        E 0 90 35 2a
        E 16 b0 0b 3b
        E 16 b0 0b 44
        E 16 b0 0b 3b
        E 16 b0 0b 33
        E 16 b0 0b 2a
        E 16 b0 0b 22
        E 16 80 35 00
        E 3344 b0 0b 2a
        E 0 90 27 2a
        E 16 b0 0b 3b
        E 16 b0 0b 44
        E 16 b0 0b 3b
        E 16 b0 0b 33
        E 16 b0 0b 2a
        E 16 b0 0b 22
        E 16 80 27 00
        E 16 b0 0b 2a
        E 0 90 27 2a
        E 16 b0 0b 3b
        E 16 b0 0b 44
        E 16 b0 0b 3b
        E 16 b0 0b 33
        E 16 b0 0b 2a
        E 16 b0 0b 22
        E 16 80 27 00
        E 16 b0 0b 2a
        E 0 90 27 2a
        E 16 b0 0b 3b
        E 16 b0 0b 44
        E 16 b0 0b 3b
        E 16 b0 0b 33
        E 16 b0 0b 2a
        E 16 b0 0b 22
        E 16 80 27 00
        E 16 b0 0b 2a
        E 0 90 2c 2a
        E 16 b0 0b 3b
        E 16 b0 0b 44
        E 16 b0 0b 3b
        E 16 b0 0b 33
        E 16 b0 0b 2a
        E 16 b0 0b 22
        E 16 80 2c 00
        E 144 b0 0b 2a
        E 0 90 24 2a
        E 16 b0 0b 3b
        E 16 b0 0b 44
        E 16 b0 0b 3b
        E 16 b0 0b 33
        E 16 b0 0b 2a
        E 16 b0 0b 22
        E 16 80 24 00
        E 16 b0 0b 2a
        E 0 90 27 2a
        E 16 b0 0b 3b
        E 16 b0 0b 44
        E 16 b0 0b 3b
        E 16 b0 0b 33
        E 16 b0 0b 2a
        E 16 b0 0b 22
        E 16 80 27 00
        E 272 b0 0b 2a
        E 0 90 27 2a
        E 16 b0 0b 3b
        E 16 b0 0b 44
        E 16 b0 0b 3b
        E 16 b0 0b 33
        E 16 b0 0b 2a
        E 16 b0 0b 22
        E 16 80 27 00
        E 16 b0 0b 2a
        E 0 90 2c 2a
        E 16 b0 0b 3b
        E 16 b0 0b 44
        E 16 b0 0b 3b
        E 16 b0 0b 33
        E 16 b0 0b 2a
        E 16 b0 0b 22
        E 16 80 2c 00
        E 16 b0 0b 2a
        E 0 90 30 2a
        E 16 b0 0b 3b
        E 16 b0 0b 44
        E 16 b0 0b 3b
        E 16 b0 0b 33
        E 16 b0 0b 2a
        E 16 b0 0b 22
        E 16 80 30 00
        E 16 b0 0b 2a
        E 0 90 32 2a
        E 16 b0 0b 3b
        E 16 b0 0b 44
        E 16 b0 0b 3b
        E 16 b0 0b 33
        E 16 b0 0b 2a
        E 16 b0 0b 22
        E 16 80 32 00
        E 272 b0 0b 2a
        E 0 90 2f 2a
        E 16 b0 0b 3b
        E 16 b0 0b 44
        E 16 b0 0b 3b
        E 16 b0 0b 33
        E 16 b0 0b 2a
        E 16 b0 0b 22
        E 16 80 2f 00
        E 272 b0 0b 2a
        E 0 90 32 2a
        E 16 b0 0b 3b
        E 16 b0 0b 44
        E 16 b0 0b 3b
        E 16 b0 0b 33
        E 16 b0 0b 2a
        E 16 b0 0b 22
        E 16 80 32 00
        E 272 b0 0b 2a
        E 0 90 2f 2a
        E 16 b0 0b 3b
        E 16 b0 0b 44
        E 16 b0 0b 3b
        E 16 b0 0b 33
        E 16 b0 0b 2a
        E 16 b0 0b 22
        E 16 80 2f 00
        E 272 b0 0b 2a
        E 0 90 30 2a
        E 16 b0 0b 3b
        E 16 b0 0b 44
        E 16 b0 0b 3b
        E 16 b0 0b 33
        E 16 b0 0b 2a
        E 16 b0 0b 22
        E 16 80 30 00
        E 16 b0 0b 2a
        E 0 90 30 2a
        E 16 b0 0b 3b
        E 16 b0 0b 44
        E 16 b0 0b 3b
        E 16 b0 0b 33
        E 16 b0 0b 2a
        E 16 b0 0b 22
        E 16 80 30 00
        E 16 b0 0b 2a
        E 0 90 30 2a
        E 16 b0 0b 3b
        E 16 b0 0b 44
        E 16 b0 0b 3b
        E 16 b0 0b 33
        E 16 b0 0b 2a
        E 16 b0 0b 22
        E 16 80 30 00
        E 16 b0 0b 2a
        E 0 90 33 2a
        E 16 b0 0b 3b
        E 16 b0 0b 44
        E 16 b0 0b 3b
        E 16 b0 0b 33
        E 16 b0 0b 2a
        E 16 b0 0b 22
        E 16 80 33 00
        E 144 b0 0b 2a
        E 0 90 2c 2a
        E 16 b0 0b 3b
        E 16 b0 0b 44
        E 16 b0 0b 3b
        E 16 b0 0b 33
        E 16 b0 0b 2a
        E 16 b0 0b 22
        E 16 80 2c 00
        E 16 b0 0b 2a
        E 0 90 30 2a
        E 16 b0 0b 3b
        E 16 b0 0b 44
        E 16 b0 0b 3b
        E 16 b0 0b 33
        E 16 b0 0b 2a
        E 16 b0 0b 22
        E 16 80 30 00
        E 272 b0 0b 2a
        E 0 90 30 2a
        E 16 b0 0b 3b
        E 16 b0 0b 44
        E 16 b0 0b 3b
        E 16 b0 0b 33
        E 16 b0 0b 2a
        E 16 b0 0b 22
        E 16 80 30 00
        E 16 b0 0b 2a
        E 0 90 33 2a
        E 16 b0 0b 3b
        E 16 b0 0b 44
        E 16 b0 0b 3b
        E 16 b0 0b 33
        E 16 b0 0b 2a
        E 16 b0 0b 22
        E 16 80 33 00
        E 16 b0 0b 2a
        E 0 90 38 2a
        E 16 b0 0b 3b
        E 16 b0 0b 44
        E 16 b0 0b 3b
        E 16 b0 0b 33
        E 16 b0 0b 2a
        E 16 b0 0b 22
        E 16 80 38 00
        E 16 b0 0b 2a
        E 0 90 36 2a
        E 16 b0 0b 3b
        E 16 b0 0b 44
        E 16 b0 0b 3b
        E 16 b0 0b 33
        E 16 b0 0b 2a
        E 16 b0 0b 22
        E 16 80 36 00
        E 272 b0 0b 2a
        E 0 90 2a 2a
        E 16 b0 0b 3b
        E 16 b0 0b 44
        E 16 b0 0b 3b
        E 16 b0 0b 33
        E 16 b0 0b 2a
        E 16 b0 0b 22
        E 16 80 2a 00
        E 16 b0 0b 2a
        E 0 90 2e 2a
        E 16 b0 0b 3b
        E 16 b0 0b 44
        E 16 b0 0b 3b
        E 16 b0 0b 33
        E 16 b0 0b 2a
        E 16 b0 0b 22
        E 16 80 2e 00
        E 16 b0 0b 2a
        E 0 90 31 2a
        E 16 b0 0b 3b
        E 16 b0 0b 44
        E 16 b0 0b 3b
        E 16 b0 0b 33
        E 16 b0 0b 2a
        E 16 b0 0b 22
        E 16 80 31 00
        E 16 b0 0b 2a
        E 0 90 35 2a
        E 16 b0 0b 3b
        E 16 b0 0b 44
        E 16 b0 0b 3b
        E 16 b0 0b 33
        E 16 b0 0b 2a
        E 16 b0 0b 22
        E 16 80 35 00
        E 16 b0 0b 2a
        E 0 90 31 2a
        E 16 b0 0b 3b
        E 16 b0 0b 44
        E 16 b0 0b 3b
        E 16 b0 0b 33
        E 16 b0 0b 2a
        E 16 b0 0b 22
        E 16 80 31 00
        E 16 b0 0b 2a
        E 0 90 2c 2a
        E 16 b0 0b 3b
        E 16 b0 0b 44
        E 16 b0 0b 3b
        E 16 b0 0b 33
        E 16 b0 0b 2a
        E 16 b0 0b 22
        E 16 80 2c 00
        E 16 b0 0b 2a
        E 0 90 29 2a
        E 16 b0 0b 3b
        E 16 b0 0b 44
        E 16 b0 0b 3b
        E 16 b0 0b 33
        E 16 b0 0b 2a
        E 16 b0 0b 22
        E 16 80 29 00
        E 16 b0 0b 2a
        E 0 90 2c 2a
        E 16 b0 0b 3b
        E 16 b0 0b 44
        E 16 b0 0b 3b
        E 16 b0 0b 33
        E 16 b0 0b 2a
        E 16 b0 0b 22
        E 16 80 2c 00
        E 16 b0 0b 2a
        E 0 90 31 2a
        E 16 b0 0b 3b
        E 16 b0 0b 44
        E 16 b0 0b 3b
        E 16 b0 0b 33
        E 16 b0 0b 2a
        E 16 b0 0b 22
        E 16 80 31 00
        E 16 b0 0b 2a
        E 0 90 27 2a
        E 16 b0 0b 3b
        E 16 b0 0b 44
        E 16 b0 0b 3b
        E 16 b0 0b 33
        E 16 b0 0b 2a
        E 16 b0 0b 22
        E 16 80 27 00
        E 16 b0 0b 2a
        E 0 90 27 2a
        E 16 b0 0b 3b
        E 16 b0 0b 44
        E 16 b0 0b 3b
        E 16 b0 0b 33
        E 16 b0 0b 2a
        E 16 b0 0b 22
        E 16 80 27 00
        E 16 b0 0b 2a
        E 0 90 27 2a
        E 16 b0 0b 3b
        E 16 b0 0b 44
        E 16 b0 0b 3b
        E 16 b0 0b 33
        E 16 b0 0b 2a
        E 16 b0 0b 22
        E 16 80 27 00
        E 16 b0 0b 2a
        E 0 90 2c 2a
        E 16 b0 0b 3b
        E 16 b0 0b 44
        E 16 b0 0b 3b
        E 16 b0 0b 33
        E 16 b0 0b 2a
        E 16 b0 0b 22
        E 16 80 2c 00
        E 144 b0 0b 2a
        E 0 90 24 2a
        E 16 b0 0b 3b
        E 16 b0 0b 44
        E 16 b0 0b 3b
        E 16 b0 0b 33
        E 16 b0 0b 2a
        E 16 b0 0b 22
        E 16 80 24 00
        E 16 b0 0b 2a
        E 0 90 27 2a
        E 16 b0 0b 3b
        E 16 b0 0b 44
        E 16 b0 0b 3b
        E 16 b0 0b 33
        E 16 b0 0b 2a
        E 16 b0 0b 22
        E 16 80 27 00
        E 272 b0 0b 2a
        E 0 90 27 2a
        E 16 b0 0b 3b
        E 16 b0 0b 44
        E 16 b0 0b 3b
        E 16 b0 0b 33
        E 16 b0 0b 2a
        E 16 b0 0b 22
        E 16 80 27 00
        E 16 b0 0b 2a
        E 0 90 2c 2a
        E 16 b0 0b 3b
        E 16 b0 0b 44
        E 16 b0 0b 3b
        E 16 b0 0b 33
        E 16 b0 0b 2a
        E 16 b0 0b 22
        E 16 80 2c 00
        E 16 b0 0b 2a
        E 0 90 30 2a
        E 16 b0 0b 3b
        E 16 b0 0b 44
        E 16 b0 0b 3b
        E 16 b0 0b 33
        E 16 b0 0b 2a
        E 16 b0 0b 22
        E 16 80 30 00
        E 16 b0 0b 2a
        E 0 90 32 2a
        E 16 b0 0b 3b
        E 16 b0 0b 44
        E 16 b0 0b 3b
        E 16 b0 0b 33
        E 16 b0 0b 2a
        E 16 b0 0b 22
        E 16 80 32 00
        E 272 b0 0b 2a
        E 0 90 2f 2a
        E 16 b0 0b 3b
        E 16 b0 0b 44
        E 16 b0 0b 3b
        E 16 b0 0b 33
        E 16 b0 0b 2a
        E 16 b0 0b 22
        E 16 80 2f 00
        E 272 b0 0b 2a
        E 0 90 32 2a
        E 16 b0 0b 3b
        E 16 b0 0b 44
        E 16 b0 0b 3b
        E 16 b0 0b 33
        E 16 b0 0b 2a
        E 16 b0 0b 22
        E 16 80 32 00
        E 272 b0 0b 2a
        E 0 90 2f 2a
        E 16 b0 0b 3b
        E 16 b0 0b 44
        E 16 b0 0b 3b
        E 16 b0 0b 33
        E 16 b0 0b 2a
        E 16 b0 0b 22
        E 16 80 2f 00
        E 272 b0 0b 2a
        E 0 90 30 2a
        E 16 b0 0b 3b
        E 16 b0 0b 44
        E 16 b0 0b 3b
        E 16 b0 0b 33
        E 16 b0 0b 2a
        E 16 b0 0b 22
        E 16 80 30 00
        E 16 b0 0b 2a
        E 0 90 30 2a
        E 16 b0 0b 3b
        E 16 b0 0b 44
        E 16 b0 0b 3b
        E 16 b0 0b 33
        E 16 b0 0b 2a
        E 16 b0 0b 22
        E 16 80 30 00
        E 16 b0 0b 2a
        E 0 90 30 2a
        E 16 b0 0b 3b
        E 16 b0 0b 44
        E 16 b0 0b 3b
        E 16 b0 0b 33
        E 16 b0 0b 2a
        E 16 b0 0b 22
        E 16 80 30 00
        E 16 b0 0b 2a
        E 0 90 33 2a
        E 16 b0 0b 3b
        E 16 b0 0b 44
        E 16 b0 0b 3b
        E 16 b0 0b 33
        E 16 b0 0b 2a
        E 16 b0 0b 22
        E 16 80 33 00
        E 144 b0 0b 2a
        E 0 90 2c 2a
        E 16 b0 0b 3b
        E 16 b0 0b 44
        E 16 b0 0b 3b
        E 16 b0 0b 33
        E 16 b0 0b 2a
        E 16 b0 0b 22
        E 16 80 2c 00
        E 16 b0 0b 2a
        E 0 90 30 2a
        E 16 b0 0b 3b
        E 16 b0 0b 44
        E 16 b0 0b 3b
        E 16 b0 0b 33
        E 16 b0 0b 2a
        E 16 b0 0b 22
        E 16 80 30 00
        E 272 b0 0b 2a
        E 0 90 30 2a
        E 16 b0 0b 3b
        E 16 b0 0b 44
        E 16 b0 0b 3b
        E 16 b0 0b 33
        E 16 b0 0b 2a
        E 16 b0 0b 22
        E 16 80 30 00
        E 16 b0 0b 2a
        E 0 90 33 2a
        E 16 b0 0b 3b
        E 16 b0 0b 44
        E 16 b0 0b 3b
        E 16 b0 0b 33
        E 16 b0 0b 2a
        E 16 b0 0b 22
        E 16 80 33 00
        E 16 b0 0b 2a
        E 0 90 38 2a
        E 16 b0 0b 3b
        E 16 b0 0b 44
        E 16 b0 0b 3b
        E 16 b0 0b 33
        E 16 b0 0b 2a
        E 16 b0 0b 22
        E 16 80 38 00
        E 16 b0 0b 2a
        E 0 90 36 2a
        E 16 b0 0b 3b
        E 16 b0 0b 44
        E 16 b0 0b 3b
        E 16 b0 0b 33
        E 16 b0 0b 2a
        E 16 b0 0b 22
        E 16 80 36 00
        E 272 b0 0b 2a
        E 0 90 2a 2a
        E 16 b0 0b 3b
        E 16 b0 0b 44
        E 16 b0 0b 3b
        E 16 b0 0b 33
        E 16 b0 0b 2a
        E 16 b0 0b 22
        E 16 80 2a 00
        E 16 b0 0b 2a
        E 0 90 2e 2a
        E 16 b0 0b 3b
        E 16 b0 0b 44
        E 16 b0 0b 3b
        E 16 b0 0b 33
        E 16 b0 0b 2a
        E 16 b0 0b 22
        E 16 80 2e 00
        E 16 b0 0b 2a
        E 0 90 31 2a
        E 16 b0 0b 3b
        E 16 b0 0b 44
        E 16 b0 0b 3b
        E 16 b0 0b 33
        E 16 b0 0b 2a
        E 16 b0 0b 22
        E 16 80 31 00
        E 16 b0 0b 2a
        E 0 90 35 2a
        E 16 b0 0b 3b
        E 16 b0 0b 44
        E 16 b0 0b 3b
        E 16 b0 0b 33
        E 16 b0 0b 2a
        E 16 b0 0b 22
        E 16 80 35 00
        E 16 b0 0b 2a
        E 0 90 31 2a
        E 16 b0 0b 3b
        E 16 b0 0b 44
        E 16 b0 0b 3b
        E 16 b0 0b 33
        E 16 b0 0b 2a
        E 16 b0 0b 22
        E 16 80 31 00
        E 16 b0 0b 2a
        E 0 90 2c 2a
        E 16 b0 0b 3b
        E 16 b0 0b 44
        E 16 b0 0b 3b
        E 16 b0 0b 33
        E 16 b0 0b 2a
        E 16 b0 0b 22
        E 16 80 2c 00
        E 16 b0 0b 2a
        E 0 90 29 2a
        E 16 b0 0b 3b
        E 16 b0 0b 44
        E 16 b0 0b 3b
        E 16 b0 0b 33
        E 16 b0 0b 2a
        E 16 b0 0b 22
        E 16 80 29 00
        E 16 b0 0b 2a
        E 0 90 2c 2a
        E 16 b0 0b 3b
        E 16 b0 0b 44
        E 16 b0 0b 3b
        E 16 b0 0b 33
        E 16 b0 0b 2a
        E 16 b0 0b 22
        E 16 80 2c 00
        E 16 b0 0b 2a
        E 0 90 31 2a
        E 16 b0 0b 3b
        E 16 b0 0b 44
        E 16 b0 0b 3b
        E 16 b0 0b 33
        E 16 b0 0b 2a
        E 16 b0 0b 22
        E 16 80 31 00
        E 1552 b0 0b 2a
        E 0 90 38 2a
        E 16 b0 0b 3b
        E 16 b0 0b 44
        E 16 b0 0b 3b
        E 16 b0 0b 33
        E 16 b0 0b 2a
        E 16 b0 0b 22
        E 16 80 38 00
        E 272 b0 0b 2a
        E 0 90 2f 2a
        E 16 b0 0b 3b
        E 16 b0 0b 44
        E 16 b0 0b 3b
        E 16 b0 0b 33
        E 16 b0 0b 2a
        E 16 b0 0b 22
        E 16 80 2f 00
        E 176 b0 0b 2a
        E 0 90 38 2a
        E 16 b0 0b 3b
        E 16 b0 0b 44
        E 16 b0 0b 3b
        E 16 b0 0b 33
        E 16 b0 0b 2a
        E 16 80 38 00
        E 0 90 3a 2a
        E 16 b0 0b 3b
        E 16 b0 0b 44
        E 16 b0 0b 3b
        E 16 b0 0b 33
        E 16 b0 0b 2a
        E 16 b0 0b 22
        E 16 80 3a 00
        E 16 b0 0b 2a
        E 0 90 36 2a
        E 16 b0 0b 3b
        E 16 b0 0b 44
        E 16 b0 0b 3b
        E 16 b0 0b 33
        E 16 b0 0b 2a
        E 16 b0 0b 22
        E 16 80 36 00
        E 16 b0 0b 2a
        E 0 90 3a 2a
        E 16 b0 0b 3b
        E 16 b0 0b 44
        E 16 b0 0b 3b
        E 16 b0 0b 33
        E 16 b0 0b 2a
        E 16 b0 0b 22
        E 16 80 3a 00
        E 16 b0 0b 2a
        E 0 90 3b 2a
        E 16 b0 0b 3b
        E 16 b0 0b 44
        E 16 b0 0b 3b
        E 16 b0 0b 33
        E 16 b0 0b 2a
        E 16 b0 0b 22
        E 16 80 3b 00
        E 16 b0 0b 2a
        E 0 90 38 2a
        E 16 b0 0b 3b
        E 16 b0 0b 44
        E 16 b0 0b 3b
        E 16 b0 0b 33
        E 16 b0 0b 2a
        E 16 b0 0b 22
        E 16 80 38 00
        E 16 b0 0b 2a
        E 0 90 3b 2a
        E 16 b0 0b 3b
        E 16 b0 0b 44
        E 16 b0 0b 3b
        E 16 b0 0b 33
        E 16 b0 0b 2a
        E 16 b0 0b 22
        E 16 80 3b 00
        E 16 b0 0b 2a
        E 0 90 33 2a
        E 16 b0 0b 3b
        E 16 b0 0b 44
        E 16 b0 0b 3b
        E 16 b0 0b 33
        E 16 b0 0b 2a
        E 16 b0 0b 22
        E 16 80 33 00
        E 16 b0 0b 2a
        E 0 90 33 2a
        E 16 b0 0b 3b
        E 16 b0 0b 44
        E 16 b0 0b 3b
        E 16 b0 0b 33
        E 16 b0 0b 2a
        E 16 b0 0b 22
        E 16 80 33 00
        E 16 b0 0b 2a
        E 0 90 35 2a
        E 16 b0 0b 3b
        E 16 b0 0b 44
        E 16 b0 0b 3b
        E 16 b0 0b 33
        E 16 b0 0b 2a
        E 16 b0 0b 22
        E 16 80 35 00
        E 16 b0 0b 2a
        E 0 90 37 2a
        E 16 b0 0b 3b
        E 16 b0 0b 44
        E 16 b0 0b 3b
        E 16 b0 0b 33
        E 16 b0 0b 2a
        E 16 b0 0b 22
        E 16 80 37 00
        E 176 b0 0b 2a
        E 0 90 35 2a
        E 16 b0 0b 3b
        E 16 b0 0b 44
        E 16 b0 0b 3b
        E 16 b0 0b 33
        E 16 b0 0b 2a
        E 16 80 35 00
        E 0 90 33 2a
        E 16 b0 0b 3b
        E 16 b0 0b 44
        E 16 b0 0b 3b
        E 16 b0 0b 33
        E 16 b0 0b 2a
        E 16 b0 0b 22
        E 16 80 33 00
        E 656 b0 0b 2a
        E 0 90 2d 2a
        E 16 b0 0b 3b
        E 16 b0 0b 44
        E 16 b0 0b 3b
        E 16 b0 0b 33
        E 16 b0 0b 2a
        E 16 b0 0b 22
        E 16 80 2d 00
        E 1040 b0 0b 2a
        E 0 90 2a 2a
        E 16 b0 0b 3b
        E 16 b0 0b 44
        E 16 b0 0b 3b
        E 16 b0 0b 33
        E 16 b0 0b 2a
        E 16 b0 0b 22
        E 16 80 2a 00
        E 272 b0 0b 2a
        E 0 90 2b 2a
        E 16 b0 0b 3b
        E 16 b0 0b 44
        E 16 b0 0b 3b
        E 16 b0 0b 33
        E 16 b0 0b 2a
        E 16 b0 0b 22
        E 16 80 2b 00
        E 1424 b0 0b 2a
        E 0 90 2e 2a
        E 16 b0 0b 3b
        E 16 b0 0b 44
        E 16 b0 0b 3b
        E 16 b0 0b 33
        E 16 b0 0b 2a
        E 16 b0 0b 22
        E 16 80 2e 00
        E 400 b0 7b 00
        E 0 ff 2f 00
      >
    >
  >
  <TRACK {A5517DE4-849C-4995-8BB4-983AFF5A41C1}
    NAME "NES - Pulse 2 [ch1]"
    PEAKCOL 10092441
    BEAT -1
    AUTOMODE 0
    PANLAWFLAGS 3
    VOLPAN 1 0 -1 -1 1
    MUTESOLO 0 0 0
    IPHASE 0
    PLAYOFFS 0 1
    ISBUS 0 0
    BUSCOMP 0 0 0 0 0
    SHOWINMIX 1 0.6667 0.5 1 0.5 0 0 0
    FIXEDLANES 9 0 0 0 0
    SEL 0
    REC 0 5088 1 0 0 0 0 0
    VU 2
    TRACKHEIGHT 0 0 0 0 0 0 0
    INQ 0 0 0 0.5 100 0 0 100
    NCHAN 2
    FX 1
    TRACKID {A5517DE4-849C-4995-8BB4-983AFF5A41C1}
    PERF 0
    MIDIOUT -1
    MAINSEND 1 0
    <FXCHAIN
      WNDRECT 24 52 700 560
      SHOW 0
      LASTSEL 0
      DOCKED 0
      BYPASS 0 0 0
      <JS "ReapNES Studio/ReapNES_Console.jsfx" ""
        2 15 1 10 80 10 100 2 1 15 1 5 60 10 80 1 1 0 50 0 0 15 1 0 100 0 0 0.500000 0.500000 0.400000 0.300000 0.800000 1 1 0 0 0 0 - - - - - - - - - - - - - - - - - - - - - - - - - -
      >
      FLOATPOS 0 0 0 0
      FXID {13C69352-D537-418A-A4EC-902B575364CB}
      WAK 0 0
    >
    <ITEM
      POSITION 0
      LENGTH 74.65008
      LOOP 0
      ALLTAKES 0
      FADEIN 0 0 0 0 0 0 0
      FADEOUT 0 0 0 0 0 0 0
      MUTE 0 0
      SEL 0
      IGUID {0F6C08BC-1364-450E-957E-D5737C7C348B}
      <SOURCE MIDI
        HASDATA 1 480 QN
        CCINTERP 32
        E 0 c1 51
        E 0 b1 0c 10
        E 0 b1 0b 2a
        E 0 91 3f 2a
        E 16 b1 0b 3b
        E 16 b1 0b 44
        E 16 b1 0b 3b
        E 16 b1 0b 33
        E 16 b1 0b 2a
        E 16 b1 0b 22
        E 16 81 3f 00
        E 272 b1 0b 2a
        E 0 91 44 2a
        E 16 b1 0b 3b
        E 16 b1 0b 44
        E 16 b1 0b 3b
        E 16 b1 0b 33
        E 16 b1 0b 2a
        E 16 b1 0b 22
        E 16 81 44 00
        E 144 b1 0b 2a
        E 0 91 44 2a
        E 16 b1 0b 3b
        E 16 b1 0b 44
        E 16 b1 0b 3b
        E 16 b1 0b 33
        E 16 b1 0b 2a
        E 16 b1 0b 22
        E 16 81 44 00
        E 16 b1 0b 2a
        E 0 91 44 2a
        E 16 b1 0b 3b
        E 16 b1 0b 44
        E 16 b1 0b 3b
        E 16 b1 0b 33
        E 16 b1 0b 2a
        E 16 b1 0b 22
        E 16 81 44 00
        E 656 b1 0b 2a
        E 0 91 2d 2a
        E 16 b1 0b 3b
        E 16 b1 0b 44
        E 16 b1 0b 3b
        E 16 b1 0b 33
        E 16 b1 0b 2a
        E 16 b1 0b 22
        E 16 81 2d 00
        E 272 b1 0b 2a
        E 0 91 2e 2a
        E 16 b1 0b 3b
        E 16 b1 0b 44
        E 16 b1 0b 3b
        E 16 b1 0b 33
        E 16 b1 0b 2a
        E 16 b1 0b 22
        E 16 81 2e 00
        E 272 b1 0b 2a
        E 0 91 2d 2a
        E 16 b1 0b 3b
        E 16 b1 0b 44
        E 16 b1 0b 3b
        E 16 b1 0b 33
        E 16 b1 0b 2a
        E 16 b1 0b 22
        E 16 81 2d 00
        E 272 b1 0b 2a
        E 0 91 28 2a
        E 16 b1 0b 3b
        E 16 b1 0b 44
        E 16 b1 0b 3b
        E 16 b1 0b 33
        E 16 b1 0b 2a
        E 16 b1 0b 22
        E 16 81 28 00
        E 288 b1 0b 2a
        E 0 91 39 2a
        E 16 b1 0b 3b
        E 16 b1 0b 44
        E 16 b1 0b 3b
        E 16 b1 0b 33
        E 16 b1 0b 2a
        E 16 b1 0b 22
        E 16 81 39 00
        E 80 b1 0b 2a
        E 0 91 45 2a
        E 16 b1 0b 3b
        E 16 b1 0b 44
        E 16 b1 0b 3b
        E 16 b1 0b 33
        E 16 b1 0b 2a
        E 32 b1 0b 3b
        E 16 b1 0b 44
        E 16 b1 0b 3b
        E 16 b1 0b 33
        E 16 b1 0b 2a
        E 32 b1 0b 3b
        E 16 b1 0b 44
        E 16 b1 0b 3b
        E 16 b1 0b 33
        E 16 b1 0b 2a
        E 16 b1 0b 22
        E 16 81 45 00
        E 144 b1 0b 2a
        E 0 91 45 2a
        E 16 b1 0b 3b
        E 16 b1 0b 44
        E 16 b1 0b 3b
        E 16 b1 0b 33
        E 16 b1 0b 2a
        E 16 b1 0b 22
        E 16 81 45 00
        E 16 b1 0b 2a
        E 0 91 39 2a
        E 16 b1 0b 3b
        E 16 b1 0b 44
        E 16 b1 0b 3b
        E 16 b1 0b 33
        E 16 b1 0b 2a
        E 16 b1 0b 22
        E 16 81 39 00
        E 80 b1 0b 2a
        E 0 91 45 2a
        E 16 b1 0b 3b
        E 16 b1 0b 44
        E 16 b1 0b 3b
        E 16 b1 0b 33
        E 16 b1 0b 2a
        E 32 b1 0b 3b
        E 16 b1 0b 44
        E 16 b1 0b 3b
        E 16 b1 0b 33
        E 16 b1 0b 2a
        E 32 b1 0b 3b
        E 16 b1 0b 44
        E 16 b1 0b 3b
        E 16 b1 0b 33
        E 16 b1 0b 2a
        E 16 b1 0b 22
        E 16 81 45 00
        E 144 b1 0b 2a
        E 0 91 45 2a
        E 16 b1 0b 3b
        E 16 b1 0b 44
        E 16 b1 0b 3b
        E 16 b1 0b 33
        E 16 b1 0b 2a
        E 16 b1 0b 22
        E 16 81 45 00
        E 16 b1 0b 2a
        E 0 91 28 2a
        E 16 b1 0b 3b
        E 16 b1 0b 44
        E 16 b1 0b 3b
        E 16 b1 0b 33
        E 16 b1 0b 2a
        E 16 b1 0b 22
        E 16 81 28 00
        E 272 b1 0b 2a
        E 0 91 2e 2a
        E 16 b1 0b 3b
        E 16 b1 0b 44
        E 16 b1 0b 3b
        E 16 b1 0b 33
        E 16 b1 0b 2a
        E 16 b1 0b 22
        E 16 81 2e 00
        E 272 b1 0b 2a
        E 0 91 2d 2a
        E 16 b1 0b 3b
        E 16 b1 0b 44
        E 16 b1 0b 3b
        E 16 b1 0b 33
        E 16 b1 0b 2a
        E 16 b1 0b 22
        E 16 81 2d 00
        E 272 b1 0b 2a
        E 0 91 21 2a
        E 16 b1 0b 3b
        E 16 b1 0b 44
        E 16 b1 0b 3b
        E 16 b1 0b 33
        E 16 b1 0b 2a
        E 16 b1 0b 22
        E 16 81 21 00
        E 3344 b1 0b 2a
        E 0 91 2c 2a
        E 16 b1 0b 3b
        E 16 b1 0b 44
        E 16 b1 0b 3b
        E 16 b1 0b 33
        E 16 b1 0b 2a
        E 16 b1 0b 22
        E 16 81 2c 00
        E 16 b1 0b 2a
        E 0 91 2c 2a
        E 16 b1 0b 3b
        E 16 b1 0b 44
        E 16 b1 0b 3b
        E 16 b1 0b 33
        E 16 b1 0b 2a
        E 16 b1 0b 22
        E 16 81 2c 00
        E 16 b1 0b 2a
        E 0 91 2c 2a
        E 16 b1 0b 3b
        E 16 b1 0b 44
        E 16 b1 0b 3b
        E 16 b1 0b 33
        E 16 b1 0b 2a
        E 16 b1 0b 22
        E 16 81 2c 00
        E 16 b1 0b 2a
        E 0 91 30 2a
        E 16 b1 0b 3b
        E 16 b1 0b 44
        E 16 b1 0b 3b
        E 16 b1 0b 33
        E 16 b1 0b 2a
        E 16 b1 0b 22
        E 16 81 30 00
        E 144 b1 0b 2a
        E 0 91 27 2a
        E 16 b1 0b 3b
        E 16 b1 0b 44
        E 16 b1 0b 3b
        E 16 b1 0b 33
        E 16 b1 0b 2a
        E 16 b1 0b 22
        E 16 81 27 00
        E 16 b1 0b 2a
        E 0 91 2c 2a
        E 16 b1 0b 3b
        E 16 b1 0b 44
        E 16 b1 0b 3b
        E 16 b1 0b 33
        E 16 b1 0b 2a
        E 16 b1 0b 22
        E 16 81 2c 00
        E 272 b1 0b 2a
        E 0 91 2c 2a
        E 16 b1 0b 3b
        E 16 b1 0b 44
        E 16 b1 0b 3b
        E 16 b1 0b 33
        E 16 b1 0b 2a
        E 16 b1 0b 22
        E 16 81 2c 00
        E 16 b1 0b 2a
        E 0 91 30 2a
        E 16 b1 0b 3b
        E 16 b1 0b 44
        E 16 b1 0b 3b
        E 16 b1 0b 33
        E 16 b1 0b 2a
        E 16 b1 0b 22
        E 16 81 30 00
        E 16 b1 0b 2a
        E 0 91 33 2a
        E 16 b1 0b 3b
        E 16 b1 0b 44
        E 16 b1 0b 3b
        E 16 b1 0b 33
        E 16 b1 0b 2a
        E 16 b1 0b 22
        E 16 81 33 00
        E 16 b1 0b 2a
        E 0 91 37 2a
        E 16 b1 0b 3b
        E 16 b1 0b 44
        E 16 b1 0b 3b
        E 16 b1 0b 33
        E 16 b1 0b 2a
        E 16 b1 0b 22
        E 16 81 37 00
        E 656 b1 0b 2a
        E 0 91 35 2a
        E 16 b1 0b 3b
        E 16 b1 0b 44
        E 16 b1 0b 3b
        E 16 b1 0b 33
        E 16 b1 0b 2a
        E 16 b1 0b 22
        E 16 81 35 00
        E 656 b1 0b 2a
        E 0 91 33 2a
        E 16 b1 0b 3b
        E 16 b1 0b 44
        E 16 b1 0b 3b
        E 16 b1 0b 33
        E 16 b1 0b 2a
        E 16 b1 0b 22
        E 16 81 33 00
        E 16 b1 0b 2a
        E 0 91 33 2a
        E 16 b1 0b 3b
        E 16 b1 0b 44
        E 16 b1 0b 3b
        E 16 b1 0b 33
        E 16 b1 0b 2a
        E 16 b1 0b 22
        E 16 81 33 00
        E 16 b1 0b 2a
        E 0 91 33 2a
        E 16 b1 0b 3b
        E 16 b1 0b 44
        E 16 b1 0b 3b
        E 16 b1 0b 33
        E 16 b1 0b 2a
        E 16 b1 0b 22
        E 16 81 33 00
        E 16 b1 0b 2a
        E 0 91 38 2a
        E 16 b1 0b 3b
        E 16 b1 0b 44
        E 16 b1 0b 3b
        E 16 b1 0b 33
        E 16 b1 0b 2a
        E 16 b1 0b 22
        E 16 81 38 00
        E 144 b1 0b 2a
        E 0 91 30 2a
        E 16 b1 0b 3b
        E 16 b1 0b 44
        E 16 b1 0b 3b
        E 16 b1 0b 33
        E 16 b1 0b 2a
        E 16 b1 0b 22
        E 16 81 30 00
        E 16 b1 0b 2a
        E 0 91 33 2a
        E 16 b1 0b 3b
        E 16 b1 0b 44
        E 16 b1 0b 3b
        E 16 b1 0b 33
        E 16 b1 0b 2a
        E 16 b1 0b 22
        E 16 81 33 00
        E 272 b1 0b 2a
        E 0 91 33 2a
        E 16 b1 0b 3b
        E 16 b1 0b 44
        E 16 b1 0b 3b
        E 16 b1 0b 33
        E 16 b1 0b 2a
        E 16 b1 0b 22
        E 16 81 33 00
        E 16 b1 0b 2a
        E 0 91 38 2a
        E 16 b1 0b 3b
        E 16 b1 0b 44
        E 16 b1 0b 3b
        E 16 b1 0b 33
        E 16 b1 0b 2a
        E 16 b1 0b 22
        E 16 81 38 00
        E 16 b1 0b 2a
        E 0 91 30 2a
        E 16 b1 0b 3b
        E 16 b1 0b 44
        E 16 b1 0b 3b
        E 16 b1 0b 33
        E 16 b1 0b 2a
        E 16 b1 0b 22
        E 16 81 30 00
        E 16 b1 0b 2a
        E 0 91 3a 2a
        E 16 b1 0b 3b
        E 16 b1 0b 44
        E 16 b1 0b 3b
        E 16 b1 0b 33
        E 16 b1 0b 2a
        E 16 b1 0b 22
        E 16 81 3a 00
        E 656 b1 0b 2a
        E 0 91 3d 2a
        E 16 b1 0b 3b
        E 16 b1 0b 44
        E 16 b1 0b 3b
        E 16 b1 0b 33
        E 16 b1 0b 2a
        E 16 b1 0b 22
        E 16 81 3d 00
        E 656 b1 0b 2a
        E 0 91 2c 2a
        E 16 b1 0b 3b
        E 16 b1 0b 44
        E 16 b1 0b 3b
        E 16 b1 0b 33
        E 16 b1 0b 2a
        E 16 b1 0b 22
        E 16 81 2c 00
        E 16 b1 0b 2a
        E 0 91 2c 2a
        E 16 b1 0b 3b
        E 16 b1 0b 44
        E 16 b1 0b 3b
        E 16 b1 0b 33
        E 16 b1 0b 2a
        E 16 b1 0b 22
        E 16 81 2c 00
        E 16 b1 0b 2a
        E 0 91 2c 2a
        E 16 b1 0b 3b
        E 16 b1 0b 44
        E 16 b1 0b 3b
        E 16 b1 0b 33
        E 16 b1 0b 2a
        E 16 b1 0b 22
        E 16 81 2c 00
        E 16 b1 0b 2a
        E 0 91 30 2a
        E 16 b1 0b 3b
        E 16 b1 0b 44
        E 16 b1 0b 3b
        E 16 b1 0b 33
        E 16 b1 0b 2a
        E 16 b1 0b 22
        E 16 81 30 00
        E 144 b1 0b 2a
        E 0 91 27 2a
        E 16 b1 0b 3b
        E 16 b1 0b 44
        E 16 b1 0b 3b
        E 16 b1 0b 33
        E 16 b1 0b 2a
        E 16 b1 0b 22
        E 16 81 27 00
        E 16 b1 0b 2a
        E 0 91 2c 2a
        E 16 b1 0b 3b
        E 16 b1 0b 44
        E 16 b1 0b 3b
        E 16 b1 0b 33
        E 16 b1 0b 2a
        E 16 b1 0b 22
        E 16 81 2c 00
        E 272 b1 0b 2a
        E 0 91 2c 2a
        E 16 b1 0b 3b
        E 16 b1 0b 44
        E 16 b1 0b 3b
        E 16 b1 0b 33
        E 16 b1 0b 2a
        E 16 b1 0b 22
        E 16 81 2c 00
        E 16 b1 0b 2a
        E 0 91 30 2a
        E 16 b1 0b 3b
        E 16 b1 0b 44
        E 16 b1 0b 3b
        E 16 b1 0b 33
        E 16 b1 0b 2a
        E 16 b1 0b 22
        E 16 81 30 00
        E 16 b1 0b 2a
        E 0 91 33 2a
        E 16 b1 0b 3b
        E 16 b1 0b 44
        E 16 b1 0b 3b
        E 16 b1 0b 33
        E 16 b1 0b 2a
        E 16 b1 0b 22
        E 16 81 33 00
        E 16 b1 0b 2a
        E 0 91 37 2a
        E 16 b1 0b 3b
        E 16 b1 0b 44
        E 16 b1 0b 3b
        E 16 b1 0b 33
        E 16 b1 0b 2a
        E 16 b1 0b 22
        E 16 81 37 00
        E 656 b1 0b 2a
        E 0 91 35 2a
        E 16 b1 0b 3b
        E 16 b1 0b 44
        E 16 b1 0b 3b
        E 16 b1 0b 33
        E 16 b1 0b 2a
        E 16 b1 0b 22
        E 16 81 35 00
        E 656 b1 0b 2a
        E 0 91 33 2a
        E 16 b1 0b 3b
        E 16 b1 0b 44
        E 16 b1 0b 3b
        E 16 b1 0b 33
        E 16 b1 0b 2a
        E 16 b1 0b 22
        E 16 81 33 00
        E 16 b1 0b 2a
        E 0 91 33 2a
        E 16 b1 0b 3b
        E 16 b1 0b 44
        E 16 b1 0b 3b
        E 16 b1 0b 33
        E 16 b1 0b 2a
        E 16 b1 0b 22
        E 16 81 33 00
        E 16 b1 0b 2a
        E 0 91 33 2a
        E 16 b1 0b 3b
        E 16 b1 0b 44
        E 16 b1 0b 3b
        E 16 b1 0b 33
        E 16 b1 0b 2a
        E 16 b1 0b 22
        E 16 81 33 00
        E 16 b1 0b 2a
        E 0 91 38 2a
        E 16 b1 0b 3b
        E 16 b1 0b 44
        E 16 b1 0b 3b
        E 16 b1 0b 33
        E 16 b1 0b 2a
        E 16 b1 0b 22
        E 16 81 38 00
        E 144 b1 0b 2a
        E 0 91 30 2a
        E 16 b1 0b 3b
        E 16 b1 0b 44
        E 16 b1 0b 3b
        E 16 b1 0b 33
        E 16 b1 0b 2a
        E 16 b1 0b 22
        E 16 81 30 00
        E 16 b1 0b 2a
        E 0 91 33 2a
        E 16 b1 0b 3b
        E 16 b1 0b 44
        E 16 b1 0b 3b
        E 16 b1 0b 33
        E 16 b1 0b 2a
        E 16 b1 0b 22
        E 16 81 33 00
        E 272 b1 0b 2a
        E 0 91 33 2a
        E 16 b1 0b 3b
        E 16 b1 0b 44
        E 16 b1 0b 3b
        E 16 b1 0b 33
        E 16 b1 0b 2a
        E 16 b1 0b 22
        E 16 81 33 00
        E 16 b1 0b 2a
        E 0 91 38 2a
        E 16 b1 0b 3b
        E 16 b1 0b 44
        E 16 b1 0b 3b
        E 16 b1 0b 33
        E 16 b1 0b 2a
        E 16 b1 0b 22
        E 16 81 38 00
        E 16 b1 0b 2a
        E 0 91 30 2a
        E 16 b1 0b 3b
        E 16 b1 0b 44
        E 16 b1 0b 3b
        E 16 b1 0b 33
        E 16 b1 0b 2a
        E 16 b1 0b 22
        E 16 81 30 00
        E 16 b1 0b 2a
        E 0 91 3a 2a
        E 16 b1 0b 3b
        E 16 b1 0b 44
        E 16 b1 0b 3b
        E 16 b1 0b 33
        E 16 b1 0b 2a
        E 16 b1 0b 22
        E 16 81 3a 00
        E 656 b1 0b 2a
        E 0 91 3d 2a
        E 16 b1 0b 3b
        E 16 b1 0b 44
        E 16 b1 0b 3b
        E 16 b1 0b 33
        E 16 b1 0b 2a
        E 16 b1 0b 22
        E 16 81 3d 00
        E 656 b1 0b 2a
        E 0 91 38 2a
        E 16 b1 0b 3b
        E 16 b1 0b 44
        E 16 b1 0b 3b
        E 16 b1 0b 33
        E 16 b1 0b 2a
        E 16 b1 0b 22
        E 16 81 38 00
        E 144 b1 0b 2a
        E 0 91 38 2a
        E 16 b1 0b 3b
        E 16 b1 0b 44
        E 16 b1 0b 3b
        E 16 b1 0b 33
        E 16 b1 0b 2a
        E 16 b1 0b 22
        E 16 81 38 00
        E 16 b1 0b 2a
        E 0 91 3a 2a
        E 16 b1 0b 3b
        E 16 b1 0b 44
        E 16 b1 0b 3b
        E 16 b1 0b 33
        E 16 b1 0b 2a
        E 16 b1 0b 22
        E 16 81 3a 00
        E 272 b1 0b 2a
        E 0 91 3c 2a
        E 16 b1 0b 3b
        E 16 b1 0b 44
        E 16 b1 0b 3b
        E 16 b1 0b 33
        E 16 b1 0b 2a
        E 16 b1 0b 22
        E 16 81 3c 00
        E 272 b1 0b 2a
        E 0 91 3d 2a
        E 16 b1 0b 3b
        E 16 b1 0b 44
        E 16 b1 0b 3b
        E 16 b1 0b 33
        E 16 b1 0b 2a
        E 16 b1 0b 22
        E 16 81 3d 00
        E 272 b1 0b 2a
        E 0 91 3f 2a
        E 16 b1 0b 3b
        E 16 b1 0b 44
        E 16 b1 0b 3b
        E 16 b1 0b 33
        E 16 b1 0b 2a
        E 16 b1 0b 22
        E 16 81 3f 00
        E 1040 b1 0b 2a
        E 0 91 3f 2a
        E 16 b1 0b 3b
        E 16 b1 0b 44
        E 16 b1 0b 3b
        E 16 b1 0b 33
        E 16 b1 0b 2a
        E 16 b1 0b 22
        E 16 81 3f 00
        E 16 b1 0b 2a
        E 0 91 3b 2a
        E 16 b1 0b 3b
        E 16 b1 0b 44
        E 16 b1 0b 3b
        E 16 b1 0b 33
        E 16 b1 0b 2a
        E 16 b1 0b 22
        E 16 81 3b 00
        E 16 b1 0b 2a
        E 0 91 3f 2a
        E 16 b1 0b 3b
        E 16 b1 0b 44
        E 16 b1 0b 3b
        E 16 b1 0b 33
        E 16 b1 0b 2a
        E 16 b1 0b 22
        E 16 81 3f 00
        E 16 b1 0b 2a
        E 0 91 3c 2a
        E 16 b1 0b 3b
        E 16 b1 0b 44
        E 16 b1 0b 3b
        E 16 b1 0b 33
        E 16 b1 0b 2a
        E 16 b1 0b 22
        E 16 81 3c 00
        E 1424 b1 0b 2a
        E 0 91 38 2a
        E 16 b1 0b 3b
        E 16 b1 0b 44
        E 16 b1 0b 3b
        E 16 b1 0b 33
        E 16 b1 0b 2a
        E 16 b1 0b 22
        E 16 81 38 00
        E 144 b1 0b 2a
        E 0 91 38 2a
        E 16 b1 0b 3b
        E 16 b1 0b 44
        E 16 b1 0b 3b
        E 16 b1 0b 33
        E 16 b1 0b 2a
        E 16 b1 0b 22
        E 16 81 38 00
        E 16 b1 0b 2a
        E 0 91 3a 2a
        E 16 b1 0b 3b
        E 16 b1 0b 44
        E 16 b1 0b 3b
        E 16 b1 0b 33
        E 16 b1 0b 2a
        E 16 b1 0b 22
        E 16 81 3a 00
        E 272 b1 0b 2a
        E 0 91 3c 2a
        E 16 b1 0b 3b
        E 16 b1 0b 44
        E 16 b1 0b 3b
        E 16 b1 0b 33
        E 16 b1 0b 2a
        E 16 b1 0b 22
        E 16 81 3c 00
        E 272 b1 0b 2a
        E 0 91 3d 2a
        E 16 b1 0b 3b
        E 16 b1 0b 44
        E 16 b1 0b 3b
        E 16 b1 0b 33
        E 16 b1 0b 2a
        E 16 b1 0b 22
        E 16 81 3d 00
        E 272 b1 0b 2a
        E 0 91 3f 2a
        E 16 b1 0b 3b
        E 16 b1 0b 44
        E 16 b1 0b 3b
        E 16 b1 0b 33
        E 16 b1 0b 2a
        E 16 b1 0b 22
        E 16 81 3f 00
        E 1040 b1 0b 2a
        E 0 91 3f 2a
        E 16 b1 0b 3b
        E 16 b1 0b 44
        E 16 b1 0b 3b
        E 16 b1 0b 33
        E 16 b1 0b 2a
        E 16 b1 0b 22
        E 16 81 3f 00
        E 16 b1 0b 2a
        E 0 91 3b 2a
        E 16 b1 0b 3b
        E 16 b1 0b 44
        E 16 b1 0b 3b
        E 16 b1 0b 33
        E 16 b1 0b 2a
        E 16 b1 0b 22
        E 16 81 3b 00
        E 16 b1 0b 2a
        E 0 91 3f 2a
        E 16 b1 0b 3b
        E 16 b1 0b 44
        E 16 b1 0b 3b
        E 16 b1 0b 33
        E 16 b1 0b 2a
        E 16 b1 0b 22
        E 16 81 3f 00
        E 16 b1 0b 2a
        E 0 91 3c 2a
        E 16 b1 0b 3b
        E 16 b1 0b 44
        E 16 b1 0b 3b
        E 16 b1 0b 33
        E 16 b1 0b 2a
        E 16 b1 0b 22
        E 16 81 3c 00
        E 1040 b1 0b 2a
        E 0 91 38 2a
        E 16 b1 0b 3b
        E 16 b1 0b 44
        E 16 b1 0b 3b
        E 16 b1 0b 33
        E 16 b1 0b 2a
        E 16 b1 0b 22
        E 16 81 38 00
        E 16 b1 0b 2a
        E 0 91 3c 2a
        E 16 b1 0b 3b
        E 16 b1 0b 44
        E 16 b1 0b 3b
        E 16 b1 0b 33
        E 16 b1 0b 2a
        E 16 b1 0b 22
        E 16 81 3c 00
        E 16 b1 0b 2a
        E 0 91 3d 2a
        E 16 b1 0b 3b
        E 16 b1 0b 44
        E 16 b1 0b 3b
        E 16 b1 0b 33
        E 16 b1 0b 2a
        E 16 b1 0b 22
        E 16 81 3d 00
        E 16 b1 0b 2a
        E 0 91 3f 2a
        E 16 b1 0b 3b
        E 16 b1 0b 44
        E 16 b1 0b 3b
        E 16 b1 0b 33
        E 16 b1 0b 2a
        E 16 b1 0b 22
        E 16 81 3f 00
        E 1040 b1 0b 2a
        E 0 91 3d 2a
        E 16 b1 0b 3b
        E 16 b1 0b 44
        E 16 b1 0b 3b
        E 16 b1 0b 33
        E 16 b1 0b 2a
        E 16 b1 0b 22
        E 16 81 3d 00
        E 176 b1 0b 2a
        E 0 91 3c 2a
        E 16 b1 0b 3b
        E 16 b1 0b 44
        E 16 b1 0b 3b
        E 16 b1 0b 33
        E 16 b1 0b 2a
        E 16 81 3c 00
        E 0 91 3d 2a
        E 16 b1 0b 3b
        E 16 b1 0b 44
        E 16 b1 0b 3b
        E 16 b1 0b 33
        E 16 b1 0b 2a
        E 16 b1 0b 22
        E 16 81 3d 00
        E 656 b1 0b 2a
        E 0 91 38 2a
        E 16 b1 0b 3b
        E 16 b1 0b 44
        E 16 b1 0b 3b
        E 16 b1 0b 33
        E 16 b1 0b 2a
        E 16 b1 0b 22
        E 16 81 38 00
        E 272 b1 0b 2a
        E 0 91 3a 2a
        E 16 b1 0b 3b
        E 16 b1 0b 44
        E 16 b1 0b 3b
        E 16 b1 0b 33
        E 16 b1 0b 2a
        E 16 b1 0b 22
        E 16 81 3a 00
        E 272 b1 0b 2a
        E 0 91 3c 2a
        E 16 b1 0b 3b
        E 16 b1 0b 44
        E 16 b1 0b 3b
        E 16 b1 0b 33
        E 16 b1 0b 2a
        E 16 b1 0b 22
        E 16 81 3c 00
        E 272 b1 0b 2a
        E 0 91 3d 2a
        E 16 b1 0b 3b
        E 16 b1 0b 44
        E 16 b1 0b 3b
        E 16 b1 0b 33
        E 16 b1 0b 2a
        E 16 b1 0b 22
        E 16 81 3d 00
        E 176 b1 0b 2a
        E 0 91 3c 2a
        E 16 b1 0b 3b
        E 16 b1 0b 44
        E 16 b1 0b 3b
        E 16 b1 0b 33
        E 16 b1 0b 2a
        E 16 81 3c 00
        E 0 91 3a 2a
        E 16 b1 0b 3b
        E 16 b1 0b 44
        E 16 b1 0b 3b
        E 16 b1 0b 33
        E 16 b1 0b 2a
        E 16 b1 0b 22
        E 16 81 3a 00
        E 272 b1 0b 2a
        E 0 91 38 2a
        E 16 b1 0b 3b
        E 16 b1 0b 44
        E 16 b1 0b 3b
        E 16 b1 0b 33
        E 16 b1 0b 2a
        E 16 b1 0b 22
        E 16 81 38 00
        E 272 b1 0b 2a
        E 0 91 38 2a
        E 16 b1 0b 3b
        E 16 b1 0b 44
        E 16 b1 0b 3b
        E 16 b1 0b 33
        E 16 b1 0b 2a
        E 16 b1 0b 22
        E 16 81 38 00
        E 272 b1 0b 2a
        E 0 91 37 2a
        E 16 b1 0b 3b
        E 16 b1 0b 44
        E 16 b1 0b 3b
        E 16 b1 0b 33
        E 16 b1 0b 2a
        E 16 b1 0b 22
        E 16 81 37 00
        E 272 b1 0b 2a
        E 0 91 35 2a
        E 16 b1 0b 3b
        E 16 b1 0b 44
        E 16 b1 0b 3b
        E 16 b1 0b 33
        E 16 b1 0b 2a
        E 16 b1 0b 22
        E 16 81 35 00
        E 272 b1 0b 2a
        E 0 91 37 2a
        E 16 b1 0b 3b
        E 16 b1 0b 44
        E 16 b1 0b 3b
        E 16 b1 0b 33
        E 16 b1 0b 2a
        E 16 b1 0b 22
        E 16 81 37 00
        E 272 b1 0b 2a
        E 0 91 38 2a
        E 16 b1 0b 3b
        E 16 b1 0b 44
        E 16 b1 0b 3b
        E 16 b1 0b 33
        E 16 b1 0b 2a
        E 16 b1 0b 22
        E 16 81 38 00
        E 16 b1 0b 2a
        E 0 91 33 2a
        E 16 b1 0b 3b
        E 16 b1 0b 44
        E 16 b1 0b 3b
        E 16 b1 0b 33
        E 16 b1 0b 2a
        E 16 b1 0b 22
        E 16 81 33 00
        E 16 b1 0b 2a
        E 0 91 38 2a
        E 16 b1 0b 3b
        E 16 b1 0b 44
        E 16 b1 0b 3b
        E 16 b1 0b 33
        E 16 b1 0b 2a
        E 16 b1 0b 22
        E 16 81 38 00
        E 16 b1 0b 2a
        E 0 91 3c 2a
        E 16 b1 0b 3b
        E 16 b1 0b 44
        E 16 b1 0b 3b
        E 16 b1 0b 33
        E 16 b1 0b 2a
        E 16 b1 0b 22
        E 16 81 3c 00
        E 16 b1 0b 2a
        E 0 91 38 2a
        E 16 b1 0b 3b
        E 16 b1 0b 44
        E 16 b1 0b 3b
        E 16 b1 0b 33
        E 16 b1 0b 2a
        E 16 b1 0b 22
        E 16 81 38 00
        E 16 b1 0b 2a
        E 0 91 3c 2a
        E 16 b1 0b 3b
        E 16 b1 0b 44
        E 16 b1 0b 3b
        E 16 b1 0b 33
        E 16 b1 0b 2a
        E 16 b1 0b 22
        E 16 81 3c 00
        E 16 b1 0b 2a
        E 0 91 3f 2a
        E 16 b1 0b 3b
        E 16 b1 0b 44
        E 16 b1 0b 3b
        E 16 b1 0b 33
        E 16 b1 0b 2a
        E 16 b1 0b 22
        E 16 81 3f 00
        E 272 b1 0b 2a
        E 0 91 3c 2a
        E 16 b1 0b 3b
        E 16 b1 0b 44
        E 16 b1 0b 3b
        E 16 b1 0b 33
        E 16 b1 0b 2a
        E 16 b1 0b 22
        E 16 81 3c 00
        E 144 b1 0b 2a
        E 0 91 38 2a
        E 16 b1 0b 3b
        E 16 b1 0b 44
        E 16 b1 0b 3b
        E 16 b1 0b 33
        E 16 b1 0b 2a
        E 16 b1 0b 22
        E 16 81 38 00
        E 16 b1 0b 2a
        E 0 91 3d 2a
        E 16 b1 0b 3b
        E 16 b1 0b 44
        E 16 b1 0b 3b
        E 16 b1 0b 33
        E 16 b1 0b 2a
        E 16 b1 0b 22
        E 16 81 3d 00
        E 272 b1 0b 2a
        E 0 91 3c 2a
        E 16 b1 0b 3b
        E 16 b1 0b 44
        E 16 b1 0b 3b
        E 16 b1 0b 33
        E 16 b1 0b 2a
        E 16 b1 0b 22
        E 16 81 3c 00
        E 176 b1 0b 2a
        E 0 91 3a 2a
        E 16 b1 0b 3b
        E 16 b1 0b 44
        E 16 b1 0b 3b
        E 16 b1 0b 33
        E 16 b1 0b 2a
        E 16 81 3a 00
        E 0 91 38 2a
        E 16 b1 0b 3b
        E 16 b1 0b 44
        E 16 b1 0b 3b
        E 16 b1 0b 33
        E 16 b1 0b 2a
        E 16 b1 0b 22
        E 16 81 38 00
        E 272 b1 0b 2a
        E 0 91 3a 2a
        E 16 b1 0b 3b
        E 16 b1 0b 44
        E 16 b1 0b 3b
        E 16 b1 0b 33
        E 16 b1 0b 2a
        E 16 b1 0b 22
        E 16 81 3a 00
        E 272 b1 0b 2a
        E 0 91 38 2a
        E 16 b1 0b 3b
        E 16 b1 0b 44
        E 16 b1 0b 3b
        E 16 b1 0b 33
        E 16 b1 0b 2a
        E 16 b1 0b 22
        E 16 81 38 00
        E 1424 b1 0b 2a
        E 0 91 38 2a
        E 16 b1 0b 3b
        E 16 b1 0b 44
        E 16 b1 0b 3b
        E 16 b1 0b 33
        E 16 b1 0b 2a
        E 16 b1 0b 22
        E 16 81 38 00
        E 1424 b1 0b 2a
        E 0 91 38 2a
        E 16 b1 0b 3b
        E 16 b1 0b 44
        E 16 b1 0b 3b
        E 16 b1 0b 33
        E 16 b1 0b 2a
        E 16 b1 0b 22
        E 16 81 38 00
        E 1424 b1 0b 2a
        E 0 91 31 2a
        E 16 b1 0b 3b
        E 16 b1 0b 44
        E 16 b1 0b 3b
        E 16 b1 0b 33
        E 16 b1 0b 2a
        E 16 b1 0b 22
        E 16 81 31 00
        E 656 b1 0b 2a
        E 0 91 33 2a
        E 16 b1 0b 3b
        E 16 b1 0b 44
        E 16 b1 0b 3b
        E 16 b1 0b 33
        E 16 b1 0b 2a
        E 16 b1 0b 22
        E 16 81 33 00
        E 16 b1 0b 2a
        E 0 91 31 2a
        E 16 b1 0b 3b
        E 16 b1 0b 44
        E 16 b1 0b 3b
        E 16 b1 0b 33
        E 16 b1 0b 2a
        E 16 b1 0b 22
        E 16 81 31 00
        E 16 b1 0b 2a
        E 0 91 33 2a
        E 16 b1 0b 3b
        E 16 b1 0b 44
        E 16 b1 0b 3b
        E 16 b1 0b 33
        E 16 b1 0b 2a
        E 16 b1 0b 22
        E 16 81 33 00
        E 16 b1 0b 2a
        E 0 91 35 2a
        E 16 b1 0b 3b
        E 16 b1 0b 44
        E 16 b1 0b 3b
        E 16 b1 0b 33
        E 16 b1 0b 2a
        E 16 b1 0b 22
        E 16 81 35 00
        E 3344 b1 0b 2a
        E 0 91 27 2a
        E 16 b1 0b 3b
        E 16 b1 0b 44
        E 16 b1 0b 3b
        E 16 b1 0b 33
        E 16 b1 0b 2a
        E 16 b1 0b 22
        E 16 81 27 00
        E 16 b1 0b 2a
        E 0 91 27 2a
        E 16 b1 0b 3b
        E 16 b1 0b 44
        E 16 b1 0b 3b
        E 16 b1 0b 33
        E 16 b1 0b 2a
        E 16 b1 0b 22
        E 16 81 27 00
        E 16 b1 0b 2a
        E 0 91 27 2a
        E 16 b1 0b 3b
        E 16 b1 0b 44
        E 16 b1 0b 3b
        E 16 b1 0b 33
        E 16 b1 0b 2a
        E 16 b1 0b 22
        E 16 81 27 00
        E 16 b1 0b 2a
        E 0 91 2c 2a
        E 16 b1 0b 3b
        E 16 b1 0b 44
        E 16 b1 0b 3b
        E 16 b1 0b 33
        E 16 b1 0b 2a
        E 16 b1 0b 22
        E 16 81 2c 00
        E 144 b1 0b 2a
        E 0 91 24 2a
        E 16 b1 0b 3b
        E 16 b1 0b 44
        E 16 b1 0b 3b
        E 16 b1 0b 33
        E 16 b1 0b 2a
        E 16 b1 0b 22
        E 16 81 24 00
        E 16 b1 0b 2a
        E 0 91 27 2a
        E 16 b1 0b 3b
        E 16 b1 0b 44
        E 16 b1 0b 3b
        E 16 b1 0b 33
        E 16 b1 0b 2a
        E 16 b1 0b 22
        E 16 81 27 00
        E 272 b1 0b 2a
        E 0 91 27 2a
        E 16 b1 0b 3b
        E 16 b1 0b 44
        E 16 b1 0b 3b
        E 16 b1 0b 33
        E 16 b1 0b 2a
        E 16 b1 0b 22
        E 16 81 27 00
        E 16 b1 0b 2a
        E 0 91 2c 2a
        E 16 b1 0b 3b
        E 16 b1 0b 44
        E 16 b1 0b 3b
        E 16 b1 0b 33
        E 16 b1 0b 2a
        E 16 b1 0b 22
        E 16 81 2c 00
        E 16 b1 0b 2a
        E 0 91 30 2a
        E 16 b1 0b 3b
        E 16 b1 0b 44
        E 16 b1 0b 3b
        E 16 b1 0b 33
        E 16 b1 0b 2a
        E 16 b1 0b 22
        E 16 81 30 00
        E 16 b1 0b 2a
        E 0 91 32 2a
        E 16 b1 0b 3b
        E 16 b1 0b 44
        E 16 b1 0b 3b
        E 16 b1 0b 33
        E 16 b1 0b 2a
        E 16 b1 0b 22
        E 16 81 32 00
        E 272 b1 0b 2a
        E 0 91 2f 2a
        E 16 b1 0b 3b
        E 16 b1 0b 44
        E 16 b1 0b 3b
        E 16 b1 0b 33
        E 16 b1 0b 2a
        E 16 b1 0b 22
        E 16 81 2f 00
        E 272 b1 0b 2a
        E 0 91 32 2a
        E 16 b1 0b 3b
        E 16 b1 0b 44
        E 16 b1 0b 3b
        E 16 b1 0b 33
        E 16 b1 0b 2a
        E 16 b1 0b 22
        E 16 81 32 00
        E 272 b1 0b 2a
        E 0 91 2f 2a
        E 16 b1 0b 3b
        E 16 b1 0b 44
        E 16 b1 0b 3b
        E 16 b1 0b 33
        E 16 b1 0b 2a
        E 16 b1 0b 22
        E 16 81 2f 00
        E 272 b1 0b 2a
        E 0 91 30 2a
        E 16 b1 0b 3b
        E 16 b1 0b 44
        E 16 b1 0b 3b
        E 16 b1 0b 33
        E 16 b1 0b 2a
        E 16 b1 0b 22
        E 16 81 30 00
        E 16 b1 0b 2a
        E 0 91 30 2a
        E 16 b1 0b 3b
        E 16 b1 0b 44
        E 16 b1 0b 3b
        E 16 b1 0b 33
        E 16 b1 0b 2a
        E 16 b1 0b 22
        E 16 81 30 00
        E 16 b1 0b 2a
        E 0 91 30 2a
        E 16 b1 0b 3b
        E 16 b1 0b 44
        E 16 b1 0b 3b
        E 16 b1 0b 33
        E 16 b1 0b 2a
        E 16 b1 0b 22
        E 16 81 30 00
        E 16 b1 0b 2a
        E 0 91 33 2a
        E 16 b1 0b 3b
        E 16 b1 0b 44
        E 16 b1 0b 3b
        E 16 b1 0b 33
        E 16 b1 0b 2a
        E 16 b1 0b 22
        E 16 81 33 00
        E 144 b1 0b 2a
        E 0 91 2c 2a
        E 16 b1 0b 3b
        E 16 b1 0b 44
        E 16 b1 0b 3b
        E 16 b1 0b 33
        E 16 b1 0b 2a
        E 16 b1 0b 22
        E 16 81 2c 00
        E 16 b1 0b 2a
        E 0 91 30 2a
        E 16 b1 0b 3b
        E 16 b1 0b 44
        E 16 b1 0b 3b
        E 16 b1 0b 33
        E 16 b1 0b 2a
        E 16 b1 0b 22
        E 16 81 30 00
        E 272 b1 0b 2a
        E 0 91 30 2a
        E 16 b1 0b 3b
        E 16 b1 0b 44
        E 16 b1 0b 3b
        E 16 b1 0b 33
        E 16 b1 0b 2a
        E 16 b1 0b 22
        E 16 81 30 00
        E 16 b1 0b 2a
        E 0 91 33 2a
        E 16 b1 0b 3b
        E 16 b1 0b 44
        E 16 b1 0b 3b
        E 16 b1 0b 33
        E 16 b1 0b 2a
        E 16 b1 0b 22
        E 16 81 33 00
        E 16 b1 0b 2a
        E 0 91 38 2a
        E 16 b1 0b 3b
        E 16 b1 0b 44
        E 16 b1 0b 3b
        E 16 b1 0b 33
        E 16 b1 0b 2a
        E 16 b1 0b 22
        E 16 81 38 00
        E 16 b1 0b 2a
        E 0 91 36 2a
        E 16 b1 0b 3b
        E 16 b1 0b 44
        E 16 b1 0b 3b
        E 16 b1 0b 33
        E 16 b1 0b 2a
        E 16 b1 0b 22
        E 16 81 36 00
        E 272 b1 0b 2a
        E 0 91 2a 2a
        E 16 b1 0b 3b
        E 16 b1 0b 44
        E 16 b1 0b 3b
        E 16 b1 0b 33
        E 16 b1 0b 2a
        E 16 b1 0b 22
        E 16 81 2a 00
        E 16 b1 0b 2a
        E 0 91 2e 2a
        E 16 b1 0b 3b
        E 16 b1 0b 44
        E 16 b1 0b 3b
        E 16 b1 0b 33
        E 16 b1 0b 2a
        E 16 b1 0b 22
        E 16 81 2e 00
        E 16 b1 0b 2a
        E 0 91 31 2a
        E 16 b1 0b 3b
        E 16 b1 0b 44
        E 16 b1 0b 3b
        E 16 b1 0b 33
        E 16 b1 0b 2a
        E 16 b1 0b 22
        E 16 81 31 00
        E 16 b1 0b 2a
        E 0 91 35 2a
        E 16 b1 0b 3b
        E 16 b1 0b 44
        E 16 b1 0b 3b
        E 16 b1 0b 33
        E 16 b1 0b 2a
        E 16 b1 0b 22
        E 16 81 35 00
        E 16 b1 0b 2a
        E 0 91 31 2a
        E 16 b1 0b 3b
        E 16 b1 0b 44
        E 16 b1 0b 3b
        E 16 b1 0b 33
        E 16 b1 0b 2a
        E 16 b1 0b 22
        E 16 81 31 00
        E 16 b1 0b 2a
        E 0 91 2c 2a
        E 16 b1 0b 3b
        E 16 b1 0b 44
        E 16 b1 0b 3b
        E 16 b1 0b 33
        E 16 b1 0b 2a
        E 16 b1 0b 22
        E 16 81 2c 00
        E 16 b1 0b 2a
        E 0 91 29 2a
        E 16 b1 0b 3b
        E 16 b1 0b 44
        E 16 b1 0b 3b
        E 16 b1 0b 33
        E 16 b1 0b 2a
        E 16 b1 0b 22
        E 16 81 29 00
        E 16 b1 0b 2a
        E 0 91 2c 2a
        E 16 b1 0b 3b
        E 16 b1 0b 44
        E 16 b1 0b 3b
        E 16 b1 0b 33
        E 16 b1 0b 2a
        E 16 b1 0b 22
        E 16 81 2c 00
        E 16 b1 0b 2a
        E 0 91 31 2a
        E 16 b1 0b 3b
        E 16 b1 0b 44
        E 16 b1 0b 3b
        E 16 b1 0b 33
        E 16 b1 0b 2a
        E 16 b1 0b 22
        E 16 81 31 00
        E 16 b1 0b 2a
        E 0 91 27 2a
        E 16 b1 0b 3b
        E 16 b1 0b 44
        E 16 b1 0b 3b
        E 16 b1 0b 33
        E 16 b1 0b 2a
        E 16 b1 0b 22
        E 16 81 27 00
        E 16 b1 0b 2a
        E 0 91 27 2a
        E 16 b1 0b 3b
        E 16 b1 0b 44
        E 16 b1 0b 3b
        E 16 b1 0b 33
        E 16 b1 0b 2a
        E 16 b1 0b 22
        E 16 81 27 00
        E 16 b1 0b 2a
        E 0 91 27 2a
        E 16 b1 0b 3b
        E 16 b1 0b 44
        E 16 b1 0b 3b
        E 16 b1 0b 33
        E 16 b1 0b 2a
        E 16 b1 0b 22
        E 16 81 27 00
        E 16 b1 0b 2a
        E 0 91 2c 2a
        E 16 b1 0b 3b
        E 16 b1 0b 44
        E 16 b1 0b 3b
        E 16 b1 0b 33
        E 16 b1 0b 2a
        E 16 b1 0b 22
        E 16 81 2c 00
        E 144 b1 0b 2a
        E 0 91 24 2a
        E 16 b1 0b 3b
        E 16 b1 0b 44
        E 16 b1 0b 3b
        E 16 b1 0b 33
        E 16 b1 0b 2a
        E 16 b1 0b 22
        E 16 81 24 00
        E 16 b1 0b 2a
        E 0 91 27 2a
        E 16 b1 0b 3b
        E 16 b1 0b 44
        E 16 b1 0b 3b
        E 16 b1 0b 33
        E 16 b1 0b 2a
        E 16 b1 0b 22
        E 16 81 27 00
        E 272 b1 0b 2a
        E 0 91 27 2a
        E 16 b1 0b 3b
        E 16 b1 0b 44
        E 16 b1 0b 3b
        E 16 b1 0b 33
        E 16 b1 0b 2a
        E 16 b1 0b 22
        E 16 81 27 00
        E 16 b1 0b 2a
        E 0 91 2c 2a
        E 16 b1 0b 3b
        E 16 b1 0b 44
        E 16 b1 0b 3b
        E 16 b1 0b 33
        E 16 b1 0b 2a
        E 16 b1 0b 22
        E 16 81 2c 00
        E 16 b1 0b 2a
        E 0 91 30 2a
        E 16 b1 0b 3b
        E 16 b1 0b 44
        E 16 b1 0b 3b
        E 16 b1 0b 33
        E 16 b1 0b 2a
        E 16 b1 0b 22
        E 16 81 30 00
        E 16 b1 0b 2a
        E 0 91 32 2a
        E 16 b1 0b 3b
        E 16 b1 0b 44
        E 16 b1 0b 3b
        E 16 b1 0b 33
        E 16 b1 0b 2a
        E 16 b1 0b 22
        E 16 81 32 00
        E 272 b1 0b 2a
        E 0 91 2f 2a
        E 16 b1 0b 3b
        E 16 b1 0b 44
        E 16 b1 0b 3b
        E 16 b1 0b 33
        E 16 b1 0b 2a
        E 16 b1 0b 22
        E 16 81 2f 00
        E 272 b1 0b 2a
        E 0 91 32 2a
        E 16 b1 0b 3b
        E 16 b1 0b 44
        E 16 b1 0b 3b
        E 16 b1 0b 33
        E 16 b1 0b 2a
        E 16 b1 0b 22
        E 16 81 32 00
        E 272 b1 0b 2a
        E 0 91 2f 2a
        E 16 b1 0b 3b
        E 16 b1 0b 44
        E 16 b1 0b 3b
        E 16 b1 0b 33
        E 16 b1 0b 2a
        E 16 b1 0b 22
        E 16 81 2f 00
        E 272 b1 0b 2a
        E 0 91 30 2a
        E 16 b1 0b 3b
        E 16 b1 0b 44
        E 16 b1 0b 3b
        E 16 b1 0b 33
        E 16 b1 0b 2a
        E 16 b1 0b 22
        E 16 81 30 00
        E 16 b1 0b 2a
        E 0 91 30 2a
        E 16 b1 0b 3b
        E 16 b1 0b 44
        E 16 b1 0b 3b
        E 16 b1 0b 33
        E 16 b1 0b 2a
        E 16 b1 0b 22
        E 16 81 30 00
        E 16 b1 0b 2a
        E 0 91 30 2a
        E 16 b1 0b 3b
        E 16 b1 0b 44
        E 16 b1 0b 3b
        E 16 b1 0b 33
        E 16 b1 0b 2a
        E 16 b1 0b 22
        E 16 81 30 00
        E 16 b1 0b 2a
        E 0 91 33 2a
        E 16 b1 0b 3b
        E 16 b1 0b 44
        E 16 b1 0b 3b
        E 16 b1 0b 33
        E 16 b1 0b 2a
        E 16 b1 0b 22
        E 16 81 33 00
        E 144 b1 0b 2a
        E 0 91 2c 2a
        E 16 b1 0b 3b
        E 16 b1 0b 44
        E 16 b1 0b 3b
        E 16 b1 0b 33
        E 16 b1 0b 2a
        E 16 b1 0b 22
        E 16 81 2c 00
        E 16 b1 0b 2a
        E 0 91 30 2a
        E 16 b1 0b 3b
        E 16 b1 0b 44
        E 16 b1 0b 3b
        E 16 b1 0b 33
        E 16 b1 0b 2a
        E 16 b1 0b 22
        E 16 81 30 00
        E 272 b1 0b 2a
        E 0 91 30 2a
        E 16 b1 0b 3b
        E 16 b1 0b 44
        E 16 b1 0b 3b
        E 16 b1 0b 33
        E 16 b1 0b 2a
        E 16 b1 0b 22
        E 16 81 30 00
        E 16 b1 0b 2a
        E 0 91 33 2a
        E 16 b1 0b 3b
        E 16 b1 0b 44
        E 16 b1 0b 3b
        E 16 b1 0b 33
        E 16 b1 0b 2a
        E 16 b1 0b 22
        E 16 81 33 00
        E 16 b1 0b 2a
        E 0 91 38 2a
        E 16 b1 0b 3b
        E 16 b1 0b 44
        E 16 b1 0b 3b
        E 16 b1 0b 33
        E 16 b1 0b 2a
        E 16 b1 0b 22
        E 16 81 38 00
        E 16 b1 0b 2a
        E 0 91 36 2a
        E 16 b1 0b 3b
        E 16 b1 0b 44
        E 16 b1 0b 3b
        E 16 b1 0b 33
        E 16 b1 0b 2a
        E 16 b1 0b 22
        E 16 81 36 00
        E 272 b1 0b 2a
        E 0 91 2a 2a
        E 16 b1 0b 3b
        E 16 b1 0b 44
        E 16 b1 0b 3b
        E 16 b1 0b 33
        E 16 b1 0b 2a
        E 16 b1 0b 22
        E 16 81 2a 00
        E 16 b1 0b 2a
        E 0 91 2e 2a
        E 16 b1 0b 3b
        E 16 b1 0b 44
        E 16 b1 0b 3b
        E 16 b1 0b 33
        E 16 b1 0b 2a
        E 16 b1 0b 22
        E 16 81 2e 00
        E 16 b1 0b 2a
        E 0 91 31 2a
        E 16 b1 0b 3b
        E 16 b1 0b 44
        E 16 b1 0b 3b
        E 16 b1 0b 33
        E 16 b1 0b 2a
        E 16 b1 0b 22
        E 16 81 31 00
        E 16 b1 0b 2a
        E 0 91 35 2a
        E 16 b1 0b 3b
        E 16 b1 0b 44
        E 16 b1 0b 3b
        E 16 b1 0b 33
        E 16 b1 0b 2a
        E 16 b1 0b 22
        E 16 81 35 00
        E 16 b1 0b 2a
        E 0 91 31 2a
        E 16 b1 0b 3b
        E 16 b1 0b 44
        E 16 b1 0b 3b
        E 16 b1 0b 33
        E 16 b1 0b 2a
        E 16 b1 0b 22
        E 16 81 31 00
        E 16 b1 0b 2a
        E 0 91 2c 2a
        E 16 b1 0b 3b
        E 16 b1 0b 44
        E 16 b1 0b 3b
        E 16 b1 0b 33
        E 16 b1 0b 2a
        E 16 b1 0b 22
        E 16 81 2c 00
        E 16 b1 0b 2a
        E 0 91 29 2a
        E 16 b1 0b 3b
        E 16 b1 0b 44
        E 16 b1 0b 3b
        E 16 b1 0b 33
        E 16 b1 0b 2a
        E 16 b1 0b 22
        E 16 81 29 00
        E 16 b1 0b 2a
        E 0 91 2c 2a
        E 16 b1 0b 3b
        E 16 b1 0b 44
        E 16 b1 0b 3b
        E 16 b1 0b 33
        E 16 b1 0b 2a
        E 16 b1 0b 22
        E 16 81 2c 00
        E 16 b1 0b 2a
        E 0 91 31 2a
        E 16 b1 0b 3b
        E 16 b1 0b 44
        E 16 b1 0b 3b
        E 16 b1 0b 33
        E 16 b1 0b 2a
        E 16 b1 0b 22
        E 16 81 31 00
        E 1552 b1 0b 2a
        E 0 91 38 2a
        E 16 b1 0b 3b
        E 16 b1 0b 44
        E 16 b1 0b 3b
        E 16 b1 0b 33
        E 16 b1 0b 2a
        E 16 b1 0b 22
        E 16 81 38 00
        E 272 b1 0b 2a
        E 0 91 2f 2a
        E 16 b1 0b 3b
        E 16 b1 0b 44
        E 16 b1 0b 3b
        E 16 b1 0b 33
        E 16 b1 0b 2a
        E 16 b1 0b 22
        E 16 81 2f 00
        E 176 b1 0b 2a
        E 0 91 38 2a
        E 16 b1 0b 3b
        E 16 b1 0b 44
        E 16 b1 0b 3b
        E 16 b1 0b 33
        E 16 b1 0b 2a
        E 16 81 38 00
        E 0 91 3a 2a
        E 16 b1 0b 3b
        E 16 b1 0b 44
        E 16 b1 0b 3b
        E 16 b1 0b 33
        E 16 b1 0b 2a
        E 16 b1 0b 22
        E 16 81 3a 00
        E 16 b1 0b 2a
        E 0 91 36 2a
        E 16 b1 0b 3b
        E 16 b1 0b 44
        E 16 b1 0b 3b
        E 16 b1 0b 33
        E 16 b1 0b 2a
        E 16 b1 0b 22
        E 16 81 36 00
        E 16 b1 0b 2a
        E 0 91 3a 2a
        E 16 b1 0b 3b
        E 16 b1 0b 44
        E 16 b1 0b 3b
        E 16 b1 0b 33
        E 16 b1 0b 2a
        E 16 b1 0b 22
        E 16 81 3a 00
        E 16 b1 0b 2a
        E 0 91 3b 2a
        E 16 b1 0b 3b
        E 16 b1 0b 44
        E 16 b1 0b 3b
        E 16 b1 0b 33
        E 16 b1 0b 2a
        E 16 b1 0b 22
        E 16 81 3b 00
        E 16 b1 0b 2a
        E 0 91 38 2a
        E 16 b1 0b 3b
        E 16 b1 0b 44
        E 16 b1 0b 3b
        E 16 b1 0b 33
        E 16 b1 0b 2a
        E 16 b1 0b 22
        E 16 81 38 00
        E 16 b1 0b 2a
        E 0 91 3b 2a
        E 16 b1 0b 3b
        E 16 b1 0b 44
        E 16 b1 0b 3b
        E 16 b1 0b 33
        E 16 b1 0b 2a
        E 16 b1 0b 22
        E 16 81 3b 00
        E 16 b1 0b 2a
        E 0 91 33 2a
        E 16 b1 0b 3b
        E 16 b1 0b 44
        E 16 b1 0b 3b
        E 16 b1 0b 33
        E 16 b1 0b 2a
        E 16 b1 0b 22
        E 16 81 33 00
        E 16 b1 0b 2a
        E 0 91 33 2a
        E 16 b1 0b 3b
        E 16 b1 0b 44
        E 16 b1 0b 3b
        E 16 b1 0b 33
        E 16 b1 0b 2a
        E 16 b1 0b 22
        E 16 81 33 00
        E 16 b1 0b 2a
        E 0 91 35 2a
        E 16 b1 0b 3b
        E 16 b1 0b 44
        E 16 b1 0b 3b
        E 16 b1 0b 33
        E 16 b1 0b 2a
        E 16 b1 0b 22
        E 16 81 35 00
        E 16 b1 0b 2a
        E 0 91 37 2a
        E 16 b1 0b 3b
        E 16 b1 0b 44
        E 16 b1 0b 3b
        E 16 b1 0b 33
        E 16 b1 0b 2a
        E 16 b1 0b 22
        E 16 81 37 00
        E 176 b1 0b 2a
        E 0 91 35 2a
        E 16 b1 0b 3b
        E 16 b1 0b 44
        E 16 b1 0b 3b
        E 16 b1 0b 33
        E 16 b1 0b 2a
        E 16 81 35 00
        E 0 91 33 2a
        E 16 b1 0b 3b
        E 16 b1 0b 44
        E 16 b1 0b 3b
        E 16 b1 0b 33
        E 16 b1 0b 2a
        E 16 b1 0b 22
        E 16 81 33 00
        E 2192 b1 0b 2a
        E 0 91 38 2a
        E 16 b1 0b 3b
        E 16 b1 0b 44
        E 16 b1 0b 3b
        E 16 b1 0b 33
        E 16 b1 0b 2a
        E 16 b1 0b 22
        E 16 81 38 00
        E 272 b1 0b 2a
        E 0 91 2f 2a
        E 16 b1 0b 3b
        E 16 b1 0b 44
        E 16 b1 0b 3b
        E 16 b1 0b 33
        E 16 b1 0b 2a
        E 16 b1 0b 22
        E 16 81 2f 00
        E 176 b1 0b 2a
        E 0 91 38 2a
        E 16 b1 0b 3b
        E 16 b1 0b 44
        E 16 b1 0b 3b
        E 16 b1 0b 33
        E 16 b1 0b 2a
        E 16 81 38 00
        E 0 91 3a 2a
        E 16 b1 0b 3b
        E 16 b1 0b 44
        E 16 b1 0b 3b
        E 16 b1 0b 33
        E 16 b1 0b 2a
        E 16 b1 0b 22
        E 16 81 3a 00
        E 16 b1 0b 2a
        E 0 91 36 2a
        E 16 b1 0b 3b
        E 16 b1 0b 44
        E 16 b1 0b 3b
        E 16 b1 0b 33
        E 16 b1 0b 2a
        E 16 b1 0b 22
        E 16 81 36 00
        E 16 b1 0b 2a
        E 0 91 3a 2a
        E 16 b1 0b 3b
        E 16 b1 0b 44
        E 16 b1 0b 3b
        E 16 b1 0b 33
        E 16 b1 0b 2a
        E 16 b1 0b 22
        E 16 81 3a 00
        E 16 b1 0b 2a
        E 0 91 3b 2a
        E 16 b1 0b 3b
        E 16 b1 0b 44
        E 16 b1 0b 3b
        E 16 b1 0b 33
        E 16 b1 0b 2a
        E 16 b1 0b 22
        E 16 81 3b 00
        E 16 b1 0b 2a
        E 0 91 38 2a
        E 16 b1 0b 3b
        E 16 b1 0b 44
        E 16 b1 0b 3b
        E 16 b1 0b 33
        E 16 b1 0b 2a
        E 16 b1 0b 22
        E 16 81 38 00
        E 16 b1 0b 2a
        E 0 91 3b 2a
        E 16 b1 0b 3b
        E 16 b1 0b 44
        E 16 b1 0b 3b
        E 16 b1 0b 33
        E 16 b1 0b 2a
        E 16 b1 0b 22
        E 16 81 3b 00
        E 16 b1 0b 2a
        E 0 91 33 2a
        E 16 b1 0b 3b
        E 16 b1 0b 44
        E 16 b1 0b 3b
        E 16 b1 0b 33
        E 16 b1 0b 2a
        E 16 b1 0b 22
        E 16 81 33 00
        E 16 b1 0b 2a
        E 0 91 33 2a
        E 16 b1 0b 3b
        E 16 b1 0b 44
        E 16 b1 0b 3b
        E 16 b1 0b 33
        E 16 b1 0b 2a
        E 16 b1 0b 22
        E 16 81 33 00
        E 16 b1 0b 2a
        E 0 91 35 2a
        E 16 b1 0b 3b
        E 16 b1 0b 44
        E 16 b1 0b 3b
        E 16 b1 0b 33
        E 16 b1 0b 2a
        E 16 b1 0b 22
        E 16 81 35 00
        E 16 b1 0b 2a
        E 0 91 37 2a
        E 16 b1 0b 3b
        E 16 b1 0b 44
        E 16 b1 0b 3b
        E 16 b1 0b 33
        E 16 b1 0b 2a
        E 16 b1 0b 22
        E 16 81 37 00
        E 176 b1 0b 2a
        E 0 91 35 2a
        E 16 b1 0b 3b
        E 16 b1 0b 44
        E 16 b1 0b 3b
        E 16 b1 0b 33
        E 16 b1 0b 2a
        E 16 81 35 00
        E 0 91 33 2a
        E 16 b1 0b 3b
        E 16 b1 0b 44
        E 16 b1 0b 3b
        E 16 b1 0b 33
        E 16 b1 0b 2a
        E 16 b1 0b 22
        E 16 81 33 00
        E 656 b1 0b 2a
        E 0 91 3a 2a
        E 16 b1 0b 3b
        E 16 b1 0b 44
        E 16 b1 0b 3b
        E 16 b1 0b 33
        E 16 b1 0b 2a
        E 16 b1 0b 22
        E 16 81 3a 00
        E 656 b1 0b 2a
        E 0 91 3c 2a
        E 16 b1 0b 3b
        E 16 b1 0b 44
        E 16 b1 0b 3b
        E 16 b1 0b 33
        E 16 b1 0b 2a
        E 16 b1 0b 22
        E 16 81 3c 00
        E 272 b1 0b 2a
        E 0 91 3a 2a
        E 16 b1 0b 3b
        E 16 b1 0b 44
        E 16 b1 0b 3b
        E 16 b1 0b 33
        E 16 b1 0b 2a
        E 16 b1 0b 22
        E 16 81 3a 00
        E 272 b1 0b 2a
        E 0 91 38 2a
        E 16 b1 0b 3b
        E 16 b1 0b 44
        E 16 b1 0b 3b
        E 16 b1 0b 33
        E 16 b1 0b 2a
        E 16 b1 0b 22
        E 16 81 38 00
        E 656 b1 0b 2a
        E 0 91 31 2a
        E 16 b1 0b 3b
        E 16 b1 0b 44
        E 16 b1 0b 3b
        E 16 b1 0b 33
        E 16 b1 0b 2a
        E 16 b1 0b 22
        E 16 81 31 00
        E 656 b1 0b 2a
        E 0 91 38 2a
        E 16 b1 0b 3b
        E 16 b1 0b 44
        E 16 b1 0b 3b
        E 16 b1 0b 33
        E 16 b1 0b 2a
        E 16 b1 0b 22
        E 16 81 38 00
        E 272 b1 0b 2a
        E 0 91 3a 2a
        E 16 b1 0b 3b
        E 16 b1 0b 44
        E 16 b1 0b 3b
        E 16 b1 0b 33
        E 16 b1 0b 2a
        E 16 b1 0b 22
        E 16 81 3a 00
        E 176 b1 0b 2a
        E 0 91 38 2a
        E 16 b1 0b 3b
        E 16 b1 0b 44
        E 16 b1 0b 3b
        E 16 b1 0b 33
        E 16 b1 0b 2a
        E 16 81 38 00
        E 0 91 35 2a
        E 16 b1 0b 3b
        E 16 b1 0b 44
        E 16 b1 0b 3b
        E 16 b1 0b 33
        E 16 b1 0b 2a
        E 16 b1 0b 22
        E 16 81 35 00
        E 272 b1 0b 2a
        E 0 91 35 2a
        E 16 b1 0b 3b
        E 16 b1 0b 44
        E 16 b1 0b 3b
        E 16 b1 0b 33
        E 16 b1 0b 2a
        E 16 b1 0b 22
        E 16 81 35 00
        E 272 b1 0b 2a
        E 0 91 35 2a
        E 16 b1 0b 3b
        E 16 b1 0b 44
        E 16 b1 0b 3b
        E 16 b1 0b 33
        E 16 b1 0b 2a
        E 16 b1 0b 22
        E 16 81 35 00
        E 272 b1 0b 2a
        E 0 91 33 2a
        E 16 b1 0b 3b
        E 16 b1 0b 44
        E 16 b1 0b 3b
        E 16 b1 0b 33
        E 16 b1 0b 2a
        E 16 b1 0b 22
        E 16 81 33 00
        E 272 b1 0b 2a
        E 0 91 31 2a
        E 16 b1 0b 3b
        E 16 b1 0b 44
        E 16 b1 0b 3b
        E 16 b1 0b 33
        E 16 b1 0b 2a
        E 16 b1 0b 22
        E 16 81 31 00
        E 272 b1 0b 2a
        E 0 91 33 2a
        E 16 b1 0b 3b
        E 16 b1 0b 44
        E 16 b1 0b 3b
        E 16 b1 0b 33
        E 16 b1 0b 2a
        E 16 b1 0b 22
        E 16 81 33 00
        E 256 b1 7b 00
        E 0 ff 2f 00
      >
    >
  >
  <TRACK {27A35B7F-CA02-42E0-BA9E-02C6DAF117FF}
    NAME "NES - Triangle [ch2]"
    PEAKCOL 16744192
    BEAT -1
    AUTOMODE 0
    PANLAWFLAGS 3
    VOLPAN 1 0 -1 -1 1
    MUTESOLO 0 0 0
    IPHASE 0
    PLAYOFFS 0 1
    ISBUS 0 0
    BUSCOMP 0 0 0 0 0
    SHOWINMIX 1 0.6667 0.5 1 0.5 0 0 0
    FIXEDLANES 9 0 0 0 0
    SEL 0
    REC 0 5088 1 0 0 0 0 0
    VU 2
    TRACKHEIGHT 0 0 0 0 0 0 0
    INQ 0 0 0 0.5 100 0 0 100
    NCHAN 2
    FX 1
    TRACKID {27A35B7F-CA02-42E0-BA9E-02C6DAF117FF}
    PERF 0
    MIDIOUT -1
    MAINSEND 1 0
    <FXCHAIN
      WNDRECT 24 52 700 560
      SHOW 0
      LASTSEL 0
      DOCKED 0
      BYPASS 0 0 0
      <JS "ReapNES Studio/ReapNES_Console.jsfx" ""
        2 15 1 10 80 10 100 2 1 15 1 5 60 10 80 1 1 0 50 0 0 15 1 0 100 0 0 0.500000 0.500000 0.400000 0.300000 0.800000 2 1 0 0 0 0 - - - - - - - - - - - - - - - - - - - - - - - - - -
      >
      FLOATPOS 0 0 0 0
      FXID {29D3FE9D-564A-42F1-AA8F-0937B6936295}
      WAK 0 0
    >
    <ITEM
      POSITION 0
      LENGTH 74.65008
      LOOP 0
      ALLTAKES 0
      FADEIN 0 0 0 0 0 0 0
      FADEOUT 0 0 0 0 0 0 0
      MUTE 0 0
      SEL 0
      IGUID {D7B3A881-929A-4829-B84B-7A18D8AA5117}
      <SOURCE MIDI
        HASDATA 1 480 QN
        CCINTERP 32
        E 0 c2 26
        E 0 b2 0b 7f
        E 0 92 2d 7f
        E 192 82 2d 00
        E 0 b2 0b 7f
        E 0 92 39 7f
        E 320 82 39 00
        E 128 b2 0b 7f
        E 0 92 39 7f
        E 128 82 39 00
        E 0 b2 0b 7f
        E 0 92 2d 7f
        E 192 82 2d 00
        E 0 b2 0b 7f
        E 0 92 39 7f
        E 320 82 39 00
        E 128 b2 0b 7f
        E 0 92 39 7f
        E 128 82 39 00
        E 0 b2 0b 7f
        E 0 92 1c 7f
        E 384 82 1c 00
        E 0 b2 0b 7f
        E 0 92 22 7f
        E 384 82 22 00
        E 0 b2 0b 7f
        E 0 92 21 7f
        E 192 82 21 00
        E 192 b2 0b 7f
        E 0 92 15 7f
        E 384 82 15 00
        E 3088 b2 0b 7f
        E 0 92 20 7f
        E 384 82 20 00
        E 0 b2 0b 7f
        E 0 92 24 7f
        E 128 82 24 00
        E 128 b2 0b 7f
        E 0 92 1b 7f
        E 128 82 1b 00
        E 0 b2 0b 7f
        E 0 92 20 7f
        E 512 82 20 00
        E 0 b2 0b 7f
        E 0 92 24 7f
        E 128 82 24 00
        E 0 b2 0b 7f
        E 0 92 27 7f
        E 128 82 27 00
        E 0 b2 0b 7f
        E 0 92 2b 7f
        E 768 82 2b 00
        E 0 b2 0b 7f
        E 0 92 29 7f
        E 768 82 29 00
        E 0 b2 0b 7f
        E 0 92 27 7f
        E 384 82 27 00
        E 0 b2 0b 7f
        E 0 92 2c 7f
        E 128 82 2c 00
        E 128 b2 0b 7f
        E 0 92 24 7f
        E 128 82 24 00
        E 0 b2 0b 7f
        E 0 92 27 7f
        E 512 82 27 00
        E 0 b2 0b 7f
        E 0 92 2c 7f
        E 128 82 2c 00
        E 0 b2 0b 7f
        E 0 92 24 7f
        E 128 82 24 00
        E 0 b2 0b 7f
        E 0 92 2e 7f
        E 768 82 2e 00
        E 0 b2 0b 7f
        E 0 92 31 7f
        E 768 82 31 00
        E 0 b2 0b 7f
        E 0 92 20 7f
        E 384 82 20 00
        E 0 b2 0b 7f
        E 0 92 24 7f
        E 128 82 24 00
        E 128 b2 0b 7f
        E 0 92 1b 7f
        E 128 82 1b 00
        E 0 b2 0b 7f
        E 0 92 20 7f
        E 512 82 20 00
        E 0 b2 0b 7f
        E 0 92 24 7f
        E 128 82 24 00
        E 0 b2 0b 7f
        E 0 92 27 7f
        E 128 82 27 00
        E 0 b2 0b 7f
        E 0 92 2b 7f
        E 768 82 2b 00
        E 0 b2 0b 7f
        E 0 92 29 7f
        E 768 82 29 00
        E 0 b2 0b 7f
        E 0 92 27 7f
        E 384 82 27 00
        E 0 b2 0b 7f
        E 0 92 2c 7f
        E 128 82 2c 00
        E 128 b2 0b 7f
        E 0 92 24 7f
        E 128 82 24 00
        E 0 b2 0b 7f
        E 0 92 27 7f
        E 512 82 27 00
        E 0 b2 0b 7f
        E 0 92 2c 7f
        E 128 82 2c 00
        E 0 b2 0b 7f
        E 0 92 24 7f
        E 128 82 24 00
        E 0 b2 0b 7f
        E 0 92 2e 7f
        E 768 82 2e 00
        E 0 b2 0b 7f
        E 0 92 31 7f
        E 768 82 31 00
        E 0 b2 0b 7f
        E 0 92 2c 7f
        E 128 82 2c 00
        E 128 b2 0b 7f
        E 0 92 2c 7f
        E 128 82 2c 00
        E 0 b2 0b 7f
        E 0 92 2e 7f
        E 384 82 2e 00
        E 0 b2 0b 7f
        E 0 92 30 7f
        E 384 82 30 00
        E 0 b2 0b 7f
        E 0 92 31 7f
        E 384 82 31 00
        E 0 b2 0b 7f
        E 0 92 33 7f
        E 1280 82 33 00
        E 0 b2 0b 7f
        E 0 92 2f 7f
        E 128 82 2f 00
        E 0 b2 0b 7f
        E 0 92 33 7f
        E 128 82 33 00
        E 0 b2 0b 7f
        E 0 92 30 7f
        E 1152 82 30 00
        E 384 b2 0b 7f
        E 0 92 2c 7f
        E 128 82 2c 00
        E 128 b2 0b 7f
        E 0 92 2c 7f
        E 128 82 2c 00
        E 0 b2 0b 7f
        E 0 92 2e 7f
        E 384 82 2e 00
        E 0 b2 0b 7f
        E 0 92 30 7f
        E 384 82 30 00
        E 0 b2 0b 7f
        E 0 92 31 7f
        E 384 82 31 00
        E 0 b2 0b 7f
        E 0 92 33 7f
        E 1280 82 33 00
        E 0 b2 0b 7f
        E 0 92 2f 7f
        E 128 82 2f 00
        E 0 b2 0b 7f
        E 0 92 33 7f
        E 128 82 33 00
        E 0 b2 0b 7f
        E 0 92 30 7f
        E 1152 82 30 00
        E 0 b2 0b 7f
        E 0 92 2c 7f
        E 128 82 2c 00
        E 0 b2 0b 7f
        E 0 92 30 7f
        E 128 82 30 00
        E 0 b2 0b 7f
        E 0 92 31 7f
        E 128 82 31 00
        E 0 b2 0b 7f
        E 0 92 33 7f
        E 1152 82 33 00
        E 0 b2 0b 7f
        E 0 92 31 7f
        E 288 82 31 00
        E 0 b2 0b 7f
        E 0 92 30 7f
        E 96 82 30 00
        E 0 b2 0b 7f
        E 0 92 31 7f
        E 768 82 31 00
        E 0 b2 0b 7f
        E 0 92 2c 7f
        E 384 82 2c 00
        E 0 b2 0b 7f
        E 0 92 2e 7f
        E 384 82 2e 00
        E 0 b2 0b 7f
        E 0 92 30 7f
        E 384 82 30 00
        E 0 b2 0b 7f
        E 0 92 31 7f
        E 288 82 31 00
        E 0 b2 0b 7f
        E 0 92 30 7f
        E 96 82 30 00
        E 0 b2 0b 7f
        E 0 92 2e 7f
        E 384 82 2e 00
        E 0 b2 0b 7f
        E 0 92 2c 7f
        E 768 82 2c 00
        E 0 b2 0b 7f
        E 0 92 2b 7f
        E 384 82 2b 00
        E 0 b2 0b 7f
        E 0 92 29 7f
        E 384 82 29 00
        E 0 b2 0b 7f
        E 0 92 2b 7f
        E 384 82 2b 00
        E 0 b2 0b 7f
        E 0 92 2c 7f
        E 128 82 2c 00
        E 0 b2 0b 7f
        E 0 92 27 7f
        E 128 82 27 00
        E 0 b2 0b 7f
        E 0 92 2c 7f
        E 128 82 2c 00
        E 0 b2 0b 7f
        E 0 92 30 7f
        E 128 82 30 00
        E 0 b2 0b 7f
        E 0 92 2c 7f
        E 128 82 2c 00
        E 0 b2 0b 7f
        E 0 92 30 7f
        E 128 82 30 00
        E 0 b2 0b 7f
        E 0 92 33 7f
        E 128 82 33 00
        E 256 b2 0b 7f
        E 0 92 30 7f
        E 128 82 30 00
        E 128 b2 0b 7f
        E 0 92 2c 7f
        E 128 82 2c 00
        E 0 b2 0b 7f
        E 0 92 31 7f
        E 384 82 31 00
        E 0 b2 0b 7f
        E 0 92 30 7f
        E 288 82 30 00
        E 0 b2 0b 7f
        E 0 92 2e 7f
        E 96 82 2e 00
        E 0 b2 0b 7f
        E 0 92 2c 7f
        E 384 82 2c 00
        E 0 b2 0b 7f
        E 0 92 2e 7f
        E 384 82 2e 00
        E 0 b2 0b 7f
        E 0 92 2c 7f
        E 4608 82 2c 00
        E 0 b2 0b 7f
        E 0 92 25 7f
        E 768 82 25 00
        E 0 b2 0b 7f
        E 0 92 27 7f
        E 128 82 27 00
        E 0 b2 0b 7f
        E 0 92 25 7f
        E 128 82 25 00
        E 0 b2 0b 7f
        E 0 92 27 7f
        E 128 82 27 00
        E 0 b2 0b 7f
        E 0 92 29 7f
        E 384 82 29 00
        E 3072 b2 0b 7f
        E 0 92 1b 7f
        E 384 82 1b 00
        E 0 b2 0b 7f
        E 0 92 20 7f
        E 128 82 20 00
        E 128 b2 0b 7f
        E 0 92 18 7f
        E 128 82 18 00
        E 0 b2 0b 7f
        E 0 92 1b 7f
        E 512 82 1b 00
        E 0 b2 0b 7f
        E 0 92 20 7f
        E 128 82 20 00
        E 0 b2 0b 7f
        E 0 92 24 7f
        E 128 82 24 00
        E 0 b2 0b 7f
        E 0 92 26 7f
        E 384 82 26 00
        E 0 b2 0b 7f
        E 0 92 23 7f
        E 384 82 23 00
        E 0 b2 0b 7f
        E 0 92 26 7f
        E 384 82 26 00
        E 0 b2 0b 7f
        E 0 92 23 7f
        E 384 82 23 00
        E 0 b2 0b 7f
        E 0 92 24 7f
        E 384 82 24 00
        E 0 b2 0b 7f
        E 0 92 27 7f
        E 128 82 27 00
        E 128 b2 0b 7f
        E 0 92 20 7f
        E 128 82 20 00
        E 0 b2 0b 7f
        E 0 92 24 7f
        E 512 82 24 00
        E 0 b2 0b 7f
        E 0 92 27 7f
        E 128 82 27 00
        E 0 b2 0b 7f
        E 0 92 2c 7f
        E 128 82 2c 00
        E 0 b2 0b 7f
        E 0 92 2a 7f
        E 384 82 2a 00
        E 0 b2 0b 7f
        E 0 92 1e 7f
        E 128 82 1e 00
        E 0 b2 0b 7f
        E 0 92 22 7f
        E 128 82 22 00
        E 0 b2 0b 7f
        E 0 92 25 7f
        E 128 82 25 00
        E 0 b2 0b 7f
        E 0 92 29 7f
        E 128 82 29 00
        E 0 b2 0b 7f
        E 0 92 25 7f
        E 128 82 25 00
        E 0 b2 0b 7f
        E 0 92 20 7f
        E 128 82 20 00
        E 0 b2 0b 7f
        E 0 92 1d 7f
        E 128 82 1d 00
        E 0 b2 0b 7f
        E 0 92 20 7f
        E 128 82 20 00
        E 0 b2 0b 7f
        E 0 92 25 7f
        E 128 82 25 00
        E 0 b2 0b 7f
        E 0 92 1b 7f
        E 384 82 1b 00
        E 0 b2 0b 7f
        E 0 92 20 7f
        E 128 82 20 00
        E 128 b2 0b 7f
        E 0 92 18 7f
        E 128 82 18 00
        E 0 b2 0b 7f
        E 0 92 1b 7f
        E 512 82 1b 00
        E 0 b2 0b 7f
        E 0 92 20 7f
        E 128 82 20 00
        E 0 b2 0b 7f
        E 0 92 24 7f
        E 128 82 24 00
        E 0 b2 0b 7f
        E 0 92 26 7f
        E 384 82 26 00
        E 0 b2 0b 7f
        E 0 92 23 7f
        E 384 82 23 00
        E 0 b2 0b 7f
        E 0 92 26 7f
        E 384 82 26 00
        E 0 b2 0b 7f
        E 0 92 23 7f
        E 384 82 23 00
        E 0 b2 0b 7f
        E 0 92 24 7f
        E 384 82 24 00
        E 0 b2 0b 7f
        E 0 92 27 7f
        E 128 82 27 00
        E 128 b2 0b 7f
        E 0 92 20 7f
        E 128 82 20 00
        E 0 b2 0b 7f
        E 0 92 24 7f
        E 512 82 24 00
        E 0 b2 0b 7f
        E 0 92 27 7f
        E 128 82 27 00
        E 0 b2 0b 7f
        E 0 92 2c 7f
        E 128 82 2c 00
        E 0 b2 0b 7f
        E 0 92 2a 7f
        E 384 82 2a 00
        E 0 b2 0b 7f
        E 0 92 1e 7f
        E 128 82 1e 00
        E 0 b2 0b 7f
        E 0 92 22 7f
        E 128 82 22 00
        E 0 b2 0b 7f
        E 0 92 25 7f
        E 128 82 25 00
        E 0 b2 0b 7f
        E 0 92 29 7f
        E 128 82 29 00
        E 0 b2 0b 7f
        E 0 92 25 7f
        E 128 82 25 00
        E 0 b2 0b 7f
        E 0 92 20 7f
        E 128 82 20 00
        E 0 b2 0b 7f
        E 0 92 1d 7f
        E 128 82 1d 00
        E 0 b2 0b 7f
        E 0 92 20 7f
        E 128 82 20 00
        E 0 b2 0b 7f
        E 0 92 25 7f
        E 128 82 25 00
        E 1536 b2 0b 7f
        E 0 92 2c 7f
        E 384 82 2c 00
        E 0 b2 0b 7f
        E 0 92 23 7f
        E 288 82 23 00
        E 0 b2 0b 7f
        E 0 92 2c 7f
        E 96 82 2c 00
        E 0 b2 0b 7f
        E 0 92 2e 7f
        E 128 82 2e 00
        E 0 b2 0b 7f
        E 0 92 2a 7f
        E 128 82 2a 00
        E 0 b2 0b 7f
        E 0 92 2e 7f
        E 128 82 2e 00
        E 0 b2 0b 7f
        E 0 92 2f 7f
        E 128 82 2f 00
        E 0 b2 0b 7f
        E 0 92 2c 7f
        E 128 82 2c 00
        E 0 b2 0b 7f
        E 0 92 2f 7f
        E 128 82 2f 00
        E 0 b2 0b 7f
        E 0 92 27 7f
        E 256 82 27 00
        E 0 b2 0b 7f
        E 0 92 29 7f
        E 128 82 29 00
        E 0 b2 0b 7f
        E 0 92 2b 7f
        E 288 82 2b 00
        E 0 b2 0b 7f
        E 0 92 29 7f
        E 96 82 29 00
        E 0 b2 0b 7f
        E 0 92 27 7f
        E 384 82 27 00
        E 1920 b2 0b 7f
        E 0 92 2c 7f
        E 384 82 2c 00
        E 0 b2 0b 7f
        E 0 92 23 7f
        E 288 82 23 00
        E 0 b2 0b 7f
        E 0 92 2c 7f
        E 96 82 2c 00
        E 0 b2 0b 7f
        E 0 92 2e 7f
        E 128 82 2e 00
        E 0 b2 0b 7f
        E 0 92 2a 7f
        E 128 82 2a 00
        E 0 b2 0b 7f
        E 0 92 2e 7f
        E 128 82 2e 00
        E 0 b2 0b 7f
        E 0 92 2f 7f
        E 128 82 2f 00
        E 0 b2 0b 7f
        E 0 92 2c 7f
        E 128 82 2c 00
        E 0 b2 0b 7f
        E 0 92 2f 7f
        E 128 82 2f 00
        E 0 b2 0b 7f
        E 0 92 27 7f
        E 256 82 27 00
        E 0 b2 0b 7f
        E 0 92 29 7f
        E 128 82 29 00
        E 0 b2 0b 7f
        E 0 92 2b 7f
        E 288 82 2b 00
        E 0 b2 0b 7f
        E 0 92 29 7f
        E 96 82 29 00
        E 0 b2 0b 7f
        E 0 92 27 7f
        E 384 82 27 00
        E 384 b2 0b 7f
        E 0 92 2e 7f
        E 768 82 2e 00
        E 0 b2 0b 7f
        E 0 92 30 7f
        E 384 82 30 00
        E 0 b2 0b 7f
        E 0 92 2e 7f
        E 384 82 2e 00
        E 0 b2 0b 7f
        E 0 92 2c 7f
        E 768 82 2c 00
        E 0 b2 0b 7f
        E 0 92 25 7f
        E 768 82 25 00
        E 0 b2 0b 7f
        E 0 92 2c 7f
        E 384 82 2c 00
        E 0 b2 0b 7f
        E 0 92 2e 7f
        E 288 82 2e 00
        E 0 b2 0b 7f
        E 0 92 2c 7f
        E 96 82 2c 00
        E 0 b2 0b 7f
        E 0 92 29 7f
        E 1152 82 29 00
        E 0 b2 0b 7f
        E 0 92 27 7f
        E 384 82 27 00
        E 0 b2 0b 7f
        E 0 92 25 7f
        E 384 82 25 00
        E 0 b2 0b 7f
        E 0 92 27 7f
        E 1152 82 27 00
        E 0 b2 0b 7f
        E 0 92 2e 7f
        E 768 82 2e 00
        E 0 b2 0b 7f
        E 0 92 2c 7f
        E 384 82 2c 00
        E 0 b2 0b 7f
        E 0 92 27 7f
        E 128 82 27 00
        E 128 b2 0b 7f
        E 0 92 25 7f
        E 128 82 25 00
        E 0 b2 0b 7f
        E 0 92 24 7f
        E 384 82 24 00
        E 0 b2 0b 7f
        E 0 92 25 7f
        E 368 82 25 00
        E 0 b2 7b 00
        E 0 ff 2f 00
      >
    >
  >
  <TRACK {54126780-28D5-4BA4-8CC9-34A031FF998A}
    NAME "NES - Noise / Drums [ch3]"
    PEAKCOL 11184810
    BEAT -1
    AUTOMODE 0
    PANLAWFLAGS 3
    VOLPAN 1 0 -1 -1 1
    MUTESOLO 0 0 0
    IPHASE 0
    PLAYOFFS 0 1
    ISBUS 0 0
    BUSCOMP 0 0 0 0 0
    SHOWINMIX 1 0.6667 0.5 1 0.5 0 0 0
    FIXEDLANES 9 0 0 0 0
    SEL 0
    REC 0 5088 1 0 0 0 0 0
    VU 2
    TRACKHEIGHT 0 0 0 0 0 0 0
    INQ 0 0 0 0.5 100 0 0 100
    NCHAN 2
    FX 1
    TRACKID {54126780-28D5-4BA4-8CC9-34A031FF998A}
    PERF 0
    MIDIOUT -1
    MAINSEND 1 0
    <FXCHAIN
      WNDRECT 24 52 700 560
      SHOW 0
      LASTSEL 0
      DOCKED 0
      BYPASS 0 0 0
      <JS "ReapNES Studio/ReapNES_Console.jsfx" ""
        2 15 1 10 80 10 100 2 1 15 1 5 60 10 80 1 1 0 50 0 0 15 1 0 100 0 0 0.500000 0.500000 0.400000 0.300000 0.800000 3 1 0 0 0 0 - - - - - - - - - - - - - - - - - - - - - - - - - -
      >
      FLOATPOS 0 0 0 0
      FXID {375A5654-876C-4BFE-B47E-A41BD8F312BC}
      WAK 0 0
    >
    <ITEM
      POSITION 0
      LENGTH 74.65008
      LOOP 0
      ALLTAKES 0
      FADEIN 0 0 0 0 0 0 0
      FADEOUT 0 0 0 0 0 0 0
      MUTE 0 0
      SEL 0
      IGUID {37A71127-BA07-48D3-898D-064B38CF493C}
      <SOURCE MIDI
        HASDATA 1 480 QN
        CCINTERP 32
        E 0 93 2a 4c
        E 76800 83 2a 00
        E 0 b3 7b 00
        E 0 ff 2f 00
      >
    >
  >
>