<REAPER_PROJECT 0.1 "7.27/win64" 1707000000
  <NOTES 0 2
    |ReapNES Studio Project
    |MIDI Import - Kid_Icarus_song_bank2_rom_v1
  >
  RIPPLE 0
  GROUPOVERRIDE 0 0 0
  AUTOXFADE 129
  ENVATTACH 3
  POOLEDENVATTACH 0
  MIXERUIFLAGS 11 48
  ENVFADESZ10 40
  PEAKGAIN 1
  FEEDBACK 0
  PANLAW 1
  PROJOFFS 0 0 0
  MAXPROJLEN 0 0
  GRID 3199 8 1 8 1 0 0 0
  TIMEMODE 1 5 -1 30 0 0 -1
  VIDEO_CONFIG 0 0 65792
  PANMODE 3
  PANLAWFLAGS 3
  CURSOR 0
  ZOOM 100 0 0
  VZOOMEX 6 0
  USE_REC_CFG 0
  RECMODE 1
  SMPTESYNC 0 30 100 40 1000 300 0 0 1 0 0
  LOOP 0
  LOOPGRAN 0 4
  RECORD_PATH "Media" ""
  <RECORD_CFG
    ZXZhdxgAAQ==
  >
  <APPLYFX_CFG
  >
  RENDER_FILE ""
  RENDER_PATTERN ""
  RENDER_FMT 0 2 0
  RENDER_1X 0
  RENDER_RANGE 1 0 0 18 1000
  RENDER_RESAMPLE 3 0 1
  RENDER_ADDTOPROJ 0
  RENDER_STEMS 0
  RENDER_DITHER 0
  TIMELOCKMODE 1
  TEMPOENVLOCKMODE 1
  ITEMMIX 1
  DEFPITCHMODE 589824 0
  TAKELANE 1
  SAMPLERATE 44100 0 0
  <RENDER_CFG
    ZXZhdxgAAQ==
  >
  LOCK 1
  <METRONOME 6 2
    VOL 0.25 0.125
    BEATLEN 4
    FREQ 1760 880 1
    SAMPLES "" ""
    SPLIGNORE 0 0
    SPLDEF 2 660 "" 0
    SPLDEF 3 440 "" 0
    PATTERN 0 169
    PATTERNSTR ABBB
    MULT 1
  >
  GLOBAL_AUTO -1
  TEMPO 128.59999614200012 4 4
  PLAYRATE 1 0 0.25 4
  SELECTION 0 0
  SELECTION2 0 0
  MASTERAUTOMODE 0
  MASTERTRACKHEIGHT 0 0
  MASTERPEAKCOL 16576
  MASTERMUTESOLO 0
  MASTERTRACKVIEW 0 0.6667 0.5 0.5 0 0 0 0 0 0 0 0 0 0
  MASTERHWOUT 0 0 1 0 0 0 0 -1
  MASTER_NCH 2 2
  MASTER_VOLUME 1 0 -1 -1 1
  MASTER_PANMODE 3
  MASTER_PANLAWFLAGS 3
  MASTER_FX 1
  MASTER_SEL 0
  <MASTERPLAYSPEEDENV
    EGUID {BD481FCC-432A-438F-8E40-9D91C08174A0}
    ACT 0 -1
    VIS 0 1 1
    LANEHEIGHT 0 0
    ARM 0
    DEFSHAPE 0 -1 -1
  >
  <TEMPOENVEX
    EGUID {E6CCCB39-F596-42C6-A622-CA0BAABE3FCD}
    ACT 1 -1
    VIS 1 0 1
    LANEHEIGHT 0 0
    ARM 0
    DEFSHAPE 1 -1 -1
  >
  <PROJBAY
  >
  <TRACK {E2E6C2B6-DF41-4778-93EA-68A5AD5D5EE7}
    NAME "NES - Pulse 1 [ch0]"
    PEAKCOL 16576606
    BEAT -1
    AUTOMODE 0
    PANLAWFLAGS 3
    VOLPAN 1 0 -1 -1 1
    MUTESOLO 0 0 0
    IPHASE 0
    PLAYOFFS 0 1
    ISBUS 0 0
    BUSCOMP 0 0 0 0 0
    SHOWINMIX 1 0.6667 0.5 1 0.5 0 0 0
    FIXEDLANES 9 0 0 0 0
    SEL 1
    REC 1 5088 1 0 0 0 0 0
    VU 2
    TRACKHEIGHT 0 0 0 0 0 0 0
    INQ 0 0 0 0.5 100 0 0 100
    NCHAN 2
    FX 1
    TRACKID {E2E6C2B6-DF41-4778-93EA-68A5AD5D5EE7}
    PERF 0
    MIDIOUT -1
    MAINSEND 1 0
    <FXCHAIN
      WNDRECT 24 52 700 560
      SHOW 0
      LASTSEL 0
      DOCKED 0
      BYPASS 0 0 0
      <JS "ReapNES Studio/ReapNES_Console.jsfx" ""
        2 15 1 10 80 10 100 2 1 15 1 5 60 10 80 1 1 0 50 0 0 15 1 0 100 0 0 0.500000 0.500000 0.400000 0.300000 0.800000 0 1 0 0 0 0 - - - - - - - - - - - - - - - - - - - - - - - - - -
      >
      FLOATPOS 0 0 0 0
      FXID {94B70DDF-A631-44A4-93C6-CF3F2728C63C}
      WAK 0 0
    >
    <ITEM
      POSITION 0
      LENGTH 71.6640768
      LOOP 0
      ALLTAKES 0
      FADEIN 0 0 0 0 0 0 0
      FADEOUT 0 0 0 0 0 0 0
      MUTE 0 0
      SEL 0
      IGUID {58C7EE70-5D46-4632-9834-18EF063AC0A2}
      <SOURCE MIDI
        HASDATA 1 480 QN
        CCINTERP 32
        E 0 c0 50
        E 0 b0 0c 40
        E 0 b0 0b 08
        E 0 90 27 08
        E 16 b0 0b 11
        E 32 b0 0b 19
        E 32 b0 0b 22
        E 32 b0 0b 2a
        E 16 b0 0b 08
        E 16 b0 0b 11
        E 32 b0 0b 19
        E 32 b0 0b 22
        E 32 b0 0b 2a
        E 16 b0 0b 08
        E 16 b0 0b 11
        E 32 b0 0b 19
        E 32 b0 0b 22
        E 32 b0 0b 2a
        E 16 b0 0b 08
        E 0 80 27 00
        E 0 90 2c 08
        E 16 b0 0b 11
        E 32 b0 0b 19
        E 32 b0 0b 22
        E 32 b0 0b 2a
        E 16 80 2c 00
        E 128 b0 0b 08
        E 0 90 24 08
        E 16 b0 0b 11
        E 32 b0 0b 19
        E 32 b0 0b 22
        E 32 b0 0b 2a
        E 16 b0 0b 08
        E 0 80 24 00
        E 0 90 27 08
        E 16 b0 0b 11
        E 32 b0 0b 19
        E 32 b0 0b 22
        E 32 b0 0b 2a
        E 32 b0 0b 22
        E 240 b0 0b 08
        E 16 b0 0b 11
        E 32 b0 0b 19
        E 32 b0 0b 22
        E 32 b0 0b 2a
        E 16 b0 0b 08
        E 0 80 27 00
        E 0 90 2c 08
        E 16 b0 0b 11
        E 32 b0 0b 19
        E 32 b0 0b 22
        E 32 b0 0b 2a
        E 16 b0 0b 08
        E 0 80 2c 00
        E 0 90 30 08
        E 16 b0 0b 11
        E 32 b0 0b 19
        E 32 b0 0b 22
        E 32 b0 0b 2a
        E 16 b0 0b 08
        E 0 80 30 00
        E 0 90 32 08
        E 16 b0 0b 11
        E 32 b0 0b 19
        E 32 b0 0b 22
        E 32 b0 0b 2a
        E 32 b0 0b 22
        E 240 b0 0b 08
        E 0 80 32 00
        E 0 90 2f 08
        E 16 b0 0b 11
        E 32 b0 0b 19
        E 32 b0 0b 22
        E 32 b0 0b 2a
        E 32 b0 0b 22
        E 240 b0 0b 08
        E 0 80 2f 00
        E 0 90 32 08
        E 16 b0 0b 11
        E 32 b0 0b 19
        E 32 b0 0b 22
        E 32 b0 0b 2a
        E 32 b0 0b 22
        E 240 b0 0b 08
        E 0 80 32 00
        E 0 90 2f 08
        E 16 b0 0b 11
        E 32 b0 0b 19
        E 32 b0 0b 22
        E 32 b0 0b 2a
        E 32 b0 0b 22
        E 240 b0 0b 08
        E 0 80 2f 00
        E 0 90 30 08
        E 16 b0 0b 11
        E 32 b0 0b 19
        E 32 b0 0b 22
        E 32 b0 0b 2a
        E 16 b0 0b 08
        E 16 b0 0b 11
        E 32 b0 0b 19
        E 32 b0 0b 22
        E 32 b0 0b 2a
        E 16 b0 0b 08
        E 16 b0 0b 11
        E 32 b0 0b 19
        E 32 b0 0b 22
        E 32 b0 0b 2a
        E 16 b0 0b 08
        E 0 80 30 00
        E 0 90 33 08
        E 16 b0 0b 11
        E 32 b0 0b 19
        E 32 b0 0b 22
        E 32 b0 0b 2a
        E 16 80 33 00
        E 128 b0 0b 08
        E 0 90 2c 08
        E 16 b0 0b 11
        E 32 b0 0b 19
        E 32 b0 0b 22
        E 32 b0 0b 2a
        E 16 b0 0b 08
        E 0 80 2c 00
        E 0 90 30 08
        E 16 b0 0b 11
        E 32 b0 0b 19
        E 32 b0 0b 22
        E 32 b0 0b 2a
        E 32 b0 0b 22
        E 240 b0 0b 08
        E 16 b0 0b 11
        E 32 b0 0b 19
        E 32 b0 0b 22
        E 32 b0 0b 2a
        E 16 b0 0b 08
        E 0 80 30 00
        E 0 90 33 08
        E 16 b0 0b 11
        E 32 b0 0b 19
        E 32 b0 0b 22
        E 32 b0 0b 2a
        E 16 b0 0b 08
        E 0 80 33 00
        E 0 90 38 08
        E 16 b0 0b 11
        E 32 b0 0b 19
        E 32 b0 0b 22
        E 32 b0 0b 2a
        E 16 b0 0b 08
        E 0 80 38 00
        E 0 90 36 08
        E 16 b0 0b 11
        E 32 b0 0b 19
        E 32 b0 0b 22
        E 32 b0 0b 2a
        E 32 b0 0b 22
        E 240 b0 0b 08
        E 0 80 36 00
        E 0 90 2a 08
        E 16 b0 0b 11
        E 32 b0 0b 19
        E 32 b0 0b 22
        E 32 b0 0b 2a
        E 16 b0 0b 08
        E 0 80 2a 00
        E 0 90 2e 08
        E 16 b0 0b 11
        E 32 b0 0b 19
        E 32 b0 0b 22
        E 32 b0 0b 2a
        E 16 b0 0b 08
        E 0 80 2e 00
        E 0 90 31 08
        E 16 b0 0b 11
        E 32 b0 0b 19
        E 32 b0 0b 22
        E 32 b0 0b 2a
        E 16 b0 0b 08
        E 0 80 31 00
        E 0 90 35 08
        E 16 b0 0b 11
        E 32 b0 0b 19
        E 32 b0 0b 22
        E 32 b0 0b 2a
        E 16 b0 0b 08
        E 0 80 35 00
        E 0 90 31 08
        E 16 b0 0b 11
        E 32 b0 0b 19
        E 32 b0 0b 22
        E 32 b0 0b 2a
        E 16 b0 0b 08
        E 0 80 31 00
        E 0 90 2c 08
        E 16 b0 0b 11
        E 32 b0 0b 19
        E 32 b0 0b 22
        E 32 b0 0b 2a
        E 16 b0 0b 08
        E 0 80 2c 00
        E 0 90 29 08
        E 16 b0 0b 11
        E 32 b0 0b 19
        E 32 b0 0b 22
        E 32 b0 0b 2a
        E 16 b0 0b 08
        E 0 80 29 00
        E 0 90 2c 08
        E 16 b0 0b 11
        E 32 b0 0b 19
        E 32 b0 0b 22
        E 32 b0 0b 2a
        E 16 b0 0b 08
        E 0 80 2c 00
        E 0 90 31 08
        E 16 b0 0b 11
        E 32 b0 0b 19
        E 32 b0 0b 22
        E 32 b0 0b 2a
        E 16 b0 0b 08
        E 0 80 31 00
        E 0 90 27 08
        E 16 b0 0b 11
        E 32 b0 0b 19
        E 32 b0 0b 22
        E 32 b0 0b 2a
        E 16 b0 0b 08
        E 16 b0 0b 11
        E 32 b0 0b 19
        E 32 b0 0b 22
        E 32 b0 0b 2a
        E 16 b0 0b 08
        E 16 b0 0b 11
        E 32 b0 0b 19
        E 32 b0 0b 22
        E 32 b0 0b 2a
        E 16 b0 0b 08
        E 0 80 27 00
        E 0 90 2c 08
        E 16 b0 0b 11
        E 32 b0 0b 19
        E 32 b0 0b 22
        E 32 b0 0b 2a
        E 16 80 2c 00
        E 128 b0 0b 08
        E 0 90 24 08
        E 16 b0 0b 11
        E 32 b0 0b 19
        E 32 b0 0b 22
        E 32 b0 0b 2a
        E 16 b0 0b 08
        E 0 80 24 00
        E 0 90 27 08
        E 16 b0 0b 11
        E 32 b0 0b 19
        E 32 b0 0b 22
        E 32 b0 0b 2a
        E 32 b0 0b 22
        E 240 b0 0b 08
        E 16 b0 0b 11
        E 32 b0 0b 19
        E 32 b0 0b 22
        E 32 b0 0b 2a
        E 16 b0 0b 08
        E 0 80 27 00
        E 0 90 2c 08
        E 16 b0 0b 11
        E 32 b0 0b 19
        E 32 b0 0b 22
        E 32 b0 0b 2a
        E 16 b0 0b 08
        E 0 80 2c 00
        E 0 90 30 08
        E 16 b0 0b 11
        E 32 b0 0b 19
        E 32 b0 0b 22
        E 32 b0 0b 2a
        E 16 b0 0b 08
        E 0 80 30 00
        E 0 90 32 08
        E 16 b0 0b 11
        E 32 b0 0b 19
        E 32 b0 0b 22
        E 32 b0 0b 2a
        E 32 b0 0b 22
        E 240 b0 0b 08
        E 0 80 32 00
        E 0 90 2f 08
        E 16 b0 0b 11
        E 32 b0 0b 19
        E 32 b0 0b 22
        E 32 b0 0b 2a
        E 32 b0 0b 22
        E 240 b0 0b 08
        E 0 80 2f 00
        E 0 90 32 08
        E 16 b0 0b 11
        E 32 b0 0b 19
        E 32 b0 0b 22
        E 32 b0 0b 2a
        E 32 b0 0b 22
        E 240 b0 0b 08
        E 0 80 32 00
        E 0 90 2f 08
        E 16 b0 0b 11
        E 32 b0 0b 19
        E 32 b0 0b 22
        E 32 b0 0b 2a
        E 32 b0 0b 22
        E 240 b0 0b 08
        E 0 80 2f 00
        E 0 90 30 08
        E 16 b0 0b 11
        E 32 b0 0b 19
        E 32 b0 0b 22
        E 32 b0 0b 2a
        E 16 b0 0b 08
        E 16 b0 0b 11
        E 32 b0 0b 19
        E 32 b0 0b 22
        E 32 b0 0b 2a
        E 16 b0 0b 08
        E 16 b0 0b 11
        E 32 b0 0b 19
        E 32 b0 0b 22
        E 32 b0 0b 2a
        E 16 b0 0b 08
        E 0 80 30 00
        E 0 90 33 08
        E 16 b0 0b 11
        E 32 b0 0b 19
        E 32 b0 0b 22
        E 32 b0 0b 2a
        E 16 80 33 00
        E 128 b0 0b 08
        E 0 90 2c 08
        E 16 b0 0b 11
        E 32 b0 0b 19
        E 32 b0 0b 22
        E 32 b0 0b 2a
        E 16 b0 0b 08
        E 0 80 2c 00
        E 0 90 30 08
        E 16 b0 0b 11
        E 32 b0 0b 19
        E 32 b0 0b 22
        E 32 b0 0b 2a
        E 32 b0 0b 22
        E 240 b0 0b 08
        E 16 b0 0b 11
        E 32 b0 0b 19
        E 32 b0 0b 22
        E 32 b0 0b 2a
        E 16 b0 0b 08
        E 0 80 30 00
        E 0 90 33 08
        E 16 b0 0b 11
        E 32 b0 0b 19
        E 32 b0 0b 22
        E 32 b0 0b 2a
        E 16 b0 0b 08
        E 0 80 33 00
        E 0 90 38 08
        E 16 b0 0b 11
        E 32 b0 0b 19
        E 32 b0 0b 22
        E 32 b0 0b 2a
        E 16 b0 0b 08
        E 0 80 38 00
        E 0 90 36 08
        E 16 b0 0b 11
        E 32 b0 0b 19
        E 32 b0 0b 22
        E 32 b0 0b 2a
        E 32 b0 0b 22
        E 240 b0 0b 08
        E 0 80 36 00
        E 0 90 2a 08
        E 16 b0 0b 11
        E 32 b0 0b 19
        E 32 b0 0b 22
        E 32 b0 0b 2a
        E 16 b0 0b 08
        E 0 80 2a 00
        E 0 90 2e 08
        E 16 b0 0b 11
        E 32 b0 0b 19
        E 32 b0 0b 22
        E 32 b0 0b 2a
        E 16 b0 0b 08
        E 0 80 2e 00
        E 0 90 31 08
        E 16 b0 0b 11
        E 32 b0 0b 19
        E 32 b0 0b 22
        E 32 b0 0b 2a
        E 16 b0 0b 08
        E 0 80 31 00
        E 0 90 35 08
        E 16 b0 0b 11
        E 32 b0 0b 19
        E 32 b0 0b 22
        E 32 b0 0b 2a
        E 16 b0 0b 08
        E 0 80 35 00
        E 0 90 31 08
        E 16 b0 0b 11
        E 32 b0 0b 19
        E 32 b0 0b 22
        E 32 b0 0b 2a
        E 16 b0 0b 08
        E 0 80 31 00
        E 0 90 2c 08
        E 16 b0 0b 11
        E 32 b0 0b 19
        E 32 b0 0b 22
        E 32 b0 0b 2a
        E 16 b0 0b 08
        E 0 80 2c 00
        E 0 90 29 08
        E 16 b0 0b 11
        E 32 b0 0b 19
        E 32 b0 0b 22
        E 32 b0 0b 2a
        E 16 b0 0b 08
        E 0 80 29 00
        E 0 90 2c 08
        E 16 b0 0b 11
        E 32 b0 0b 19
        E 32 b0 0b 22
        E 32 b0 0b 2a
        E 16 b0 0b 08
        E 0 80 2c 00
        E 0 90 31 08
        E 16 b0 0b 11
        E 32 b0 0b 19
        E 32 b0 0b 22
        E 32 b0 0b 2a
        E 16 80 31 00
        E 1536 b0 0b 08
        E 0 90 38 08
        E 16 b0 0b 11
        E 32 b0 0b 19
        E 32 b0 0b 22
        E 32 b0 0b 2a
        E 32 b0 0b 22
        E 240 b0 0b 08
        E 0 80 38 00
        E 0 90 2f 08
        E 16 b0 0b 11
        E 32 b0 0b 19
        E 32 b0 0b 22
        E 32 b0 0b 2a
        E 32 b0 0b 22
        E 144 b0 0b 08
        E 0 80 2f 00
        E 0 90 38 08
        E 16 b0 0b 11
        E 32 b0 0b 19
        E 32 b0 0b 22
        E 16 b0 0b 08
        E 0 80 38 00
        E 0 90 3a 08
        E 16 b0 0b 11
        E 32 b0 0b 19
        E 32 b0 0b 22
        E 32 b0 0b 2a
        E 16 b0 0b 08
        E 0 80 3a 00
        E 0 90 36 08
        E 16 b0 0b 11
        E 32 b0 0b 19
        E 32 b0 0b 22
        E 32 b0 0b 2a
        E 16 b0 0b 08
        E 0 80 36 00
        E 0 90 3a 08
        E 16 b0 0b 11
        E 32 b0 0b 19
        E 32 b0 0b 22
        E 32 b0 0b 2a
        E 16 b0 0b 08
        E 0 80 3a 00
        E 0 90 3b 08
        E 16 b0 0b 11
        E 32 b0 0b 19
        E 32 b0 0b 22
        E 32 b0 0b 2a
        E 16 b0 0b 08
        E 0 80 3b 00
        E 0 90 38 08
        E 16 b0 0b 11
        E 32 b0 0b 19
        E 32 b0 0b 22
        E 32 b0 0b 2a
        E 16 b0 0b 08
        E 0 80 38 00
        E 0 90 3b 08
        E 16 b0 0b 11
        E 32 b0 0b 19
        E 32 b0 0b 22
        E 32 b0 0b 2a
        E 16 b0 0b 08
        E 0 80 3b 00
        E 0 90 33 08
        E 16 b0 0b 11
        E 32 b0 0b 19
        E 32 b0 0b 22
        E 32 b0 0b 2a
        E 16 b0 0b 08
        E 16 b0 0b 11
        E 32 b0 0b 19
        E 32 b0 0b 22
        E 32 b0 0b 2a
        E 16 b0 0b 08
        E 0 80 33 00
        E 0 90 35 08
        E 16 b0 0b 11
        E 32 b0 0b 19
        E 32 b0 0b 22
        E 32 b0 0b 2a
        E 16 b0 0b 08
        E 0 80 35 00
        E 0 90 37 08
        E 16 b0 0b 11
        E 32 b0 0b 19
        E 32 b0 0b 22
        E 32 b0 0b 2a
        E 32 b0 0b 22
        E 144 b0 0b 08
        E 0 80 37 00
        E 0 90 35 08
        E 16 b0 0b 11
        E 32 b0 0b 19
        E 32 b0 0b 22
        E 16 b0 0b 08
        E 0 80 35 00
        E 0 90 33 08
        E 16 b0 0b 11
        E 32 b0 0b 19
        E 32 b0 0b 22
        E 32 b0 0b 2a
        E 32 b0 0b 22
        E 240 80 33 00
        E 1920 b0 0b 08
        E 0 90 38 08
        E 16 b0 0b 11
        E 32 b0 0b 19
        E 32 b0 0b 22
        E 32 b0 0b 2a
        E 32 b0 0b 22
        E 240 b0 0b 08
        E 0 80 38 00
        E 0 90 2f 08
        E 16 b0 0b 11
        E 32 b0 0b 19
        E 32 b0 0b 22
        E 32 b0 0b 2a
        E 32 b0 0b 22
        E 144 b0 0b 08
        E 0 80 2f 00
        E 0 90 38 08
        E 16 b0 0b 11
        E 32 b0 0b 19
        E 32 b0 0b 22
        E 16 b0 0b 08
        E 0 80 38 00
        E 0 90 3a 08
        E 16 b0 0b 11
        E 32 b0 0b 19
        E 32 b0 0b 22
        E 32 b0 0b 2a
        E 16 b0 0b 08
        E 0 80 3a 00
        E 0 90 36 08
        E 16 b0 0b 11
        E 32 b0 0b 19
        E 32 b0 0b 22
        E 32 b0 0b 2a
        E 16 b0 0b 08
        E 0 80 36 00
        E 0 90 3a 08
        E 16 b0 0b 11
        E 32 b0 0b 19
        E 32 b0 0b 22
        E 32 b0 0b 2a
        E 16 b0 0b 08
        E 0 80 3a 00
        E 0 90 3b 08
        E 16 b0 0b 11
        E 32 b0 0b 19
        E 32 b0 0b 22
        E 32 b0 0b 2a
        E 16 b0 0b 08
        E 0 80 3b 00
        E 0 90 38 08
        E 16 b0 0b 11
        E 32 b0 0b 19
        E 32 b0 0b 22
        E 32 b0 0b 2a
        E 16 b0 0b 08
        E 0 80 38 00
        E 0 90 3b 08
        E 16 b0 0b 11
        E 32 b0 0b 19
        E 32 b0 0b 22
        E 32 b0 0b 2a
        E 16 b0 0b 08
        E 0 80 3b 00
        E 0 90 33 08
        E 16 b0 0b 11
        E 32 b0 0b 19
        E 32 b0 0b 22
        E 32 b0 0b 2a
        E 16 b0 0b 08
        E 16 b0 0b 11
        E 32 b0 0b 19
        E 32 b0 0b 22
        E 32 b0 0b 2a
        E 16 b0 0b 08
        E 0 80 33 00
        E 0 90 35 08
        E 16 b0 0b 11
        E 32 b0 0b 19
        E 32 b0 0b 22
        E 32 b0 0b 2a
        E 16 b0 0b 08
        E 0 80 35 00
        E 0 90 37 08
        E 16 b0 0b 11
        E 32 b0 0b 19
        E 32 b0 0b 22
        E 32 b0 0b 2a
        E 32 b0 0b 22
        E 144 b0 0b 08
        E 0 80 37 00
        E 0 90 35 08
        E 16 b0 0b 11
        E 32 b0 0b 19
        E 32 b0 0b 22
        E 16 b0 0b 08
        E 0 80 35 00
        E 0 90 33 08
        E 16 b0 0b 11
        E 32 b0 0b 19
        E 32 b0 0b 22
        E 32 b0 0b 2a
        E 32 b0 0b 22
        E 240 80 33 00
        E 384 b0 0b 08
        E 0 90 3a 08
        E 16 b0 0b 11
        E 32 b0 0b 19
        E 32 b0 0b 22
        E 32 b0 0b 2a
        E 32 b0 0b 22
        E 624 b0 0b 08
        E 0 80 3a 00
        E 0 90 3c 08
        E 16 b0 0b 11
        E 32 b0 0b 19
        E 32 b0 0b 22
        E 32 b0 0b 2a
        E 32 b0 0b 22
        E 240 b0 0b 08
        E 0 80 3c 00
        E 0 90 3a 08
        E 16 b0 0b 11
        E 32 b0 0b 19
        E 32 b0 0b 22
        E 32 b0 0b 2a
        E 32 b0 0b 22
        E 240 b0 0b 08
        E 0 80 3a 00
        E 0 90 38 08
        E 16 b0 0b 11
        E 32 b0 0b 19
        E 32 b0 0b 22
        E 32 b0 0b 2a
        E 32 b0 0b 22
        E 624 b0 0b 08
        E 0 80 38 00
        E 0 90 31 08
        E 16 b0 0b 11
        E 32 b0 0b 19
        E 32 b0 0b 22
        E 32 b0 0b 2a
        E 32 b0 0b 22
        E 624 b0 0b 08
        E 0 80 31 00
        E 0 90 38 08
        E 16 b0 0b 11
        E 32 b0 0b 19
        E 32 b0 0b 22
        E 32 b0 0b 2a
        E 32 b0 0b 22
        E 240 b0 0b 08
        E 0 80 38 00
        E 0 90 3a 08
        E 16 b0 0b 11
        E 32 b0 0b 19
        E 32 b0 0b 22
        E 32 b0 0b 2a
        E 32 b0 0b 22
        E 144 b0 0b 08
        E 0 80 3a 00
        E 0 90 38 08
        E 16 b0 0b 11
        E 32 b0 0b 19
        E 32 b0 0b 22
        E 16 b0 0b 08
        E 0 80 38 00
        E 0 90 35 08
        E 16 b0 0b 11
        E 32 b0 0b 19
        E 32 b0 0b 22
        E 32 b0 0b 2a
        E 32 b0 0b 22
        E 240 b0 0b 08
        E 16 b0 0b 11
        E 32 b0 0b 19
        E 32 b0 0b 22
        E 32 b0 0b 2a
        E 32 b0 0b 22
        E 240 b0 0b 08
        E 16 b0 0b 11
        E 32 b0 0b 19
        E 32 b0 0b 22
        E 32 b0 0b 2a
        E 32 b0 0b 22
        E 240 b0 0b 08
        E 0 80 35 00
        E 0 90 33 08
        E 16 b0 0b 11
        E 32 b0 0b 19
        E 32 b0 0b 22
        E 32 b0 0b 2a
        E 32 b0 0b 22
        E 240 b0 0b 08
        E 0 80 33 00
        E 0 90 31 08
        E 16 b0 0b 11
        E 32 b0 0b 19
        E 32 b0 0b 22
        E 32 b0 0b 2a
        E 32 b0 0b 22
        E 240 b0 0b 08
        E 0 80 31 00
        E 0 90 33 08
        E 16 b0 0b 11
        E 32 b0 0b 19
        E 32 b0 0b 22
        E 32 b0 0b 2a
        E 32 b0 0b 22
        E 240 b0 0b 08
        E 16 b0 0b 11
        E 32 b0 0b 19
        E 32 b0 0b 22
        E 32 b0 0b 2a
        E 32 b0 0b 22
        E 624 b0 0b 08
        E 0 80 33 00
        E 0 90 3a 08
        E 16 b0 0b 11
        E 32 b0 0b 19
        E 32 b0 0b 22
        E 32 b0 0b 2a
        E 32 b0 0b 22
        E 624 b0 0b 08
        E 0 80 3a 00
        E 0 90 38 08
        E 16 b0 0b 11
        E 32 b0 0b 19
        E 32 b0 0b 22
        E 32 b0 0b 2a
        E 32 b0 0b 22
        E 240 b0 0b 08
        E 0 80 38 00
        E 0 90 33 08
        E 16 b0 0b 11
        E 32 b0 0b 19
        E 32 b0 0b 22
        E 32 b0 0b 2a
        E 16 80 33 00
        E 128 b0 0b 08
        E 0 90 31 08
        E 16 b0 0b 11
        E 32 b0 0b 19
        E 32 b0 0b 22
        E 32 b0 0b 2a
        E 16 b0 0b 08
        E 0 80 31 00
        E 0 90 30 08
        E 16 b0 0b 11
        E 32 b0 0b 19
        E 32 b0 0b 22
        E 32 b0 0b 2a
        E 32 b0 0b 22
        E 240 b0 0b 08
        E 0 80 30 00
        E 0 90 31 08
        E 16 b0 0b 11
        E 32 b0 0b 19
        E 32 b0 0b 22
        E 32 b0 0b 2a
        E 32 b0 0b 22
        E 240 b0 0b 08
        E 0 80 31 00
        E 0 90 29 08
        E 16 b0 0b 11
        E 32 b0 0b 19
        E 32 b0 0b 22
        E 32 b0 0b 2a
        E 16 b0 0b 08
        E 0 80 29 00
        E 0 90 2c 08
        E 16 b0 0b 11
        E 32 b0 0b 19
        E 32 b0 0b 22
        E 32 b0 0b 2a
        E 16 b0 0b 08
        E 0 80 2c 00
        E 0 90 31 08
        E 16 b0 0b 11
        E 32 b0 0b 19
        E 32 b0 0b 22
        E 32 b0 0b 2a
        E 16 b0 0b 08
        E 0 80 31 00
        E 0 90 33 08
        E 16 b0 0b 11
        E 32 b0 0b 19
        E 32 b0 0b 22
        E 32 b0 0b 2a
        E 16 b0 0b 08
        E 0 80 33 00
        E 0 90 31 08
        E 16 b0 0b 11
        E 32 b0 0b 19
        E 32 b0 0b 22
        E 32 b0 0b 2a
        E 16 b0 0b 08
        E 0 80 31 00
        E 0 90 33 08
        E 16 b0 0b 11
        E 32 b0 0b 19
        E 32 b0 0b 22
        E 32 b0 0b 2a
        E 16 b0 0b 08
        E 0 80 33 00
        E 0 90 35 08
        E 16 b0 0b 11
        E 32 b0 0b 19
        E 32 b0 0b 22
        E 32 b0 0b 2a
        E 32 b0 0b 22
        E 624 b0 0b 08
        E 0 80 35 00
        E 0 90 27 08
        E 16 b0 0b 11
        E 32 b0 0b 19
        E 32 b0 0b 22
        E 32 b0 0b 2a
        E 16 b0 0b 08
        E 0 80 27 00
        E 0 90 2c 08
        E 16 b0 0b 11
        E 32 b0 0b 19
        E 32 b0 0b 22
        E 32 b0 0b 2a
        E 16 b0 0b 08
        E 0 80 2c 00
        E 0 90 2e 08
        E 16 b0 0b 11
        E 32 b0 0b 19
        E 32 b0 0b 22
        E 32 b0 0b 2a
        E 16 b0 0b 08
        E 0 80 2e 00
        E 0 90 33 08
        E 16 b0 0b 11
        E 32 b0 0b 19
        E 32 b0 0b 22
        E 32 b0 0b 2a
        E 16 b0 0b 08
        E 0 80 33 00
        E 0 90 38 08
        E 16 b0 0b 11
        E 32 b0 0b 19
        E 32 b0 0b 22
        E 32 b0 0b 2a
        E 16 b0 0b 08
        E 0 80 38 00
        E 0 90 3d 08
        E 16 b0 0b 11
        E 32 b0 0b 19
        E 32 b0 0b 22
        E 32 b0 0b 2a
        E 16 b0 0b 08
        E 0 80 3d 00
        E 0 90 3c 08
        E 16 b0 0b 11
        E 32 b0 0b 19
        E 32 b0 0b 22
        E 32 b0 0b 2a
        E 32 b0 0b 22
        E 624 b0 0b 08
        E 0 80 3c 00
        E 0 90 31 08
        E 16 b0 0b 11
        E 32 b0 0b 19
        E 32 b0 0b 22
        E 32 b0 0b 2a
        E 32 b0 0b 22
        E 240 b0 0b 08
        E 0 80 31 00
        E 0 90 30 08
        E 16 b0 0b 11
        E 32 b0 0b 19
        E 32 b0 0b 22
        E 32 b0 0b 2a
        E 16 b0 0b 08
        E 0 80 30 00
        E 0 90 31 08
        E 16 b0 0b 11
        E 32 b0 0b 19
        E 32 b0 0b 22
        E 32 b0 0b 2a
        E 16 b0 0b 08
        E 0 80 31 00
        E 0 90 33 08
        E 16 b0 0b 11
        E 32 b0 0b 19
        E 32 b0 0b 22
        E 32 b0 0b 2a
        E 16 b0 0b 08
        E 0 80 33 00
        E 0 90 35 08
        E 16 b0 0b 11
        E 32 b0 0b 19
        E 32 b0 0b 22
        E 32 b0 0b 2a
        E 32 b0 0b 22
        E 240 b0 0b 08
        E 0 80 35 00
        E 0 90 37 08
        E 16 b0 0b 11
        E 32 b0 0b 19
        E 32 b0 0b 22
        E 32 b0 0b 2a
        E 32 b0 0b 22
        E 240 b0 0b 08
        E 0 80 37 00
        E 0 90 38 08
        E 16 b0 0b 11
        E 32 b0 0b 19
        E 32 b0 0b 22
        E 32 b0 0b 2a
        E 32 b0 0b 22
        E 240 b0 0b 08
        E 0 80 38 00
        E 0 90 3a 08
        E 16 b0 0b 11
        E 32 b0 0b 19
        E 32 b0 0b 22
        E 32 b0 0b 2a
        E 16 b0 0b 08
        E 0 80 3a 00
        E 0 90 38 08
        E 16 b0 0b 11
        E 32 b0 0b 19
        E 32 b0 0b 22
        E 32 b0 0b 2a
        E 16 b0 0b 08
        E 0 80 38 00
        E 0 90 3a 08
        E 16 b0 0b 11
        E 32 b0 0b 19
        E 32 b0 0b 22
        E 32 b0 0b 2a
        E 16 b0 0b 08
        E 0 80 3a 00
        E 0 90 3c 08
        E 16 b0 0b 11
        E 32 b0 0b 19
        E 32 b0 0b 22
        E 32 b0 0b 2a
        E 16 b0 0b 08
        E 0 80 3c 00
        E 0 90 3a 08
        E 16 b0 0b 11
        E 32 b0 0b 19
        E 32 b0 0b 22
        E 32 b0 0b 2a
        E 16 b0 0b 08
        E 0 80 3a 00
        E 0 90 3c 08
        E 16 b0 0b 11
        E 32 b0 0b 19
        E 32 b0 0b 22
        E 32 b0 0b 2a
        E 16 b0 0b 08
        E 0 80 3c 00
        E 0 90 3d 08
        E 16 b0 0b 11
        E 32 b0 0b 19
        E 32 b0 0b 22
        E 32 b0 0b 2a
        E 32 b0 0b 22
        E 256 80 3d 00
        E 3072 b0 0b 08
        E 0 90 27 08
        E 16 b0 0b 11
        E 32 b0 0b 19
        E 32 b0 0b 22
        E 32 b0 0b 2a
        E 16 b0 0b 08
        E 16 b0 0b 11
        E 32 b0 0b 19
        E 32 b0 0b 22
        E 32 b0 0b 2a
        E 16 b0 0b 08
        E 16 b0 0b 11
        E 32 b0 0b 19
        E 32 b0 0b 22
        E 32 b0 0b 2a
        E 16 b0 0b 08
        E 0 80 27 00
        E 0 90 2c 08
        E 16 b0 0b 11
        E 32 b0 0b 19
        E 32 b0 0b 22
        E 32 b0 0b 2a
        E 16 80 2c 00
        E 128 b0 0b 08
        E 0 90 24 08
        E 16 b0 0b 11
        E 32 b0 0b 19
        E 32 b0 0b 22
        E 32 b0 0b 2a
        E 16 b0 0b 08
        E 0 80 24 00
        E 0 90 27 08
        E 16 b0 0b 11
        E 32 b0 0b 19
        E 32 b0 0b 22
        E 32 b0 0b 2a
        E 32 b0 0b 22
        E 240 b0 0b 08
        E 16 b0 0b 11
        E 32 b0 0b 19
        E 32 b0 0b 22
        E 32 b0 0b 2a
        E 16 b0 0b 08
        E 0 80 27 00
        E 0 90 2c 08
        E 16 b0 0b 11
        E 32 b0 0b 19
        E 32 b0 0b 22
        E 32 b0 0b 2a
        E 16 b0 0b 08
        E 0 80 2c 00
        E 0 90 30 08
        E 16 b0 0b 11
        E 32 b0 0b 19
        E 32 b0 0b 22
        E 32 b0 0b 2a
        E 16 b0 0b 08
        E 0 80 30 00
        E 0 90 32 08
        E 16 b0 0b 11
        E 32 b0 0b 19
        E 32 b0 0b 22
        E 32 b0 0b 2a
        E 32 b0 0b 22
        E 240 b0 0b 08
        E 0 80 32 00
        E 0 90 2f 08
        E 16 b0 0b 11
        E 32 b0 0b 19
        E 32 b0 0b 22
        E 32 b0 0b 2a
        E 32 b0 0b 22
        E 240 b0 0b 08
        E 0 80 2f 00
        E 0 90 32 08
        E 16 b0 0b 11
        E 32 b0 0b 19
        E 32 b0 0b 22
        E 32 b0 0b 2a
        E 32 b0 0b 22
        E 240 b0 0b 08
        E 0 80 32 00
        E 0 90 2f 08
        E 16 b0 0b 11
        E 32 b0 0b 19
        E 32 b0 0b 22
        E 32 b0 0b 2a
        E 32 b0 0b 22
        E 240 b0 0b 08
        E 0 80 2f 00
        E 0 90 30 08
        E 16 b0 0b 11
        E 32 b0 0b 19
        E 32 b0 0b 22
        E 32 b0 0b 2a
        E 16 b0 0b 08
        E 16 b0 0b 11
        E 32 b0 0b 19
        E 32 b0 0b 22
        E 32 b0 0b 2a
        E 16 b0 0b 08
        E 16 b0 0b 11
        E 32 b0 0b 19
        E 32 b0 0b 22
        E 32 b0 0b 2a
        E 16 b0 0b 08
        E 0 80 30 00
        E 0 90 33 08
        E 16 b0 0b 11
        E 32 b0 0b 19
        E 32 b0 0b 22
        E 32 b0 0b 2a
        E 16 80 33 00
        E 128 b0 0b 08
        E 0 90 2c 08
        E 16 b0 0b 11
        E 32 b0 0b 19
        E 32 b0 0b 22
        E 32 b0 0b 2a
        E 16 b0 0b 08
        E 0 80 2c 00
        E 0 90 30 08
        E 16 b0 0b 11
        E 32 b0 0b 19
        E 32 b0 0b 22
        E 32 b0 0b 2a
        E 32 b0 0b 22
        E 240 b0 0b 08
        E 16 b0 0b 11
        E 32 b0 0b 19
        E 32 b0 0b 22
        E 32 b0 0b 2a
        E 16 b0 0b 08
        E 0 80 30 00
        E 0 90 33 08
        E 16 b0 0b 11
        E 32 b0 0b 19
        E 32 b0 0b 22
        E 32 b0 0b 2a
        E 16 b0 0b 08
        E 0 80 33 00
        E 0 90 38 08
        E 16 b0 0b 11
        E 32 b0 0b 19
        E 32 b0 0b 22
        E 32 b0 0b 2a
        E 16 b0 0b 08
        E 0 80 38 00
        E 0 90 36 08
        E 16 b0 0b 11
        E 32 b0 0b 19
        E 32 b0 0b 22
        E 32 b0 0b 2a
        E 32 b0 0b 22
        E 240 b0 0b 08
        E 0 80 36 00
        E 0 90 2a 08
        E 16 b0 0b 11
        E 32 b0 0b 19
        E 32 b0 0b 22
        E 32 b0 0b 2a
        E 16 b0 0b 08
        E 0 80 2a 00
        E 0 90 2e 08
        E 16 b0 0b 11
        E 32 b0 0b 19
        E 32 b0 0b 22
        E 32 b0 0b 2a
        E 16 b0 0b 08
        E 0 80 2e 00
        E 0 90 31 08
        E 16 b0 0b 11
        E 32 b0 0b 19
        E 32 b0 0b 22
        E 32 b0 0b 2a
        E 16 b0 0b 08
        E 0 80 31 00
        E 0 90 35 08
        E 16 b0 0b 11
        E 32 b0 0b 19
        E 32 b0 0b 22
        E 32 b0 0b 2a
        E 16 b0 0b 08
        E 0 80 35 00
        E 0 90 31 08
        E 16 b0 0b 11
        E 32 b0 0b 19
        E 32 b0 0b 22
        E 32 b0 0b 2a
        E 16 b0 0b 08
        E 0 80 31 00
        E 0 90 2c 08
        E 16 b0 0b 11
        E 32 b0 0b 19
        E 32 b0 0b 22
        E 32 b0 0b 2a
        E 16 b0 0b 08
        E 0 80 2c 00
        E 0 90 29 08
        E 16 b0 0b 11
        E 32 b0 0b 19
        E 32 b0 0b 22
        E 32 b0 0b 2a
        E 16 b0 0b 08
        E 0 80 29 00
        E 0 90 2c 08
        E 16 b0 0b 11
        E 32 b0 0b 19
        E 32 b0 0b 22
        E 32 b0 0b 2a
        E 16 b0 0b 08
        E 0 80 2c 00
        E 0 90 31 08
        E 16 b0 0b 11
        E 32 b0 0b 19
        E 32 b0 0b 22
        E 32 b0 0b 2a
        E 16 b0 0b 08
        E 0 80 31 00
        E 0 90 27 08
        E 16 b0 0b 11
        E 32 b0 0b 19
        E 32 b0 0b 22
        E 32 b0 0b 2a
        E 16 b0 0b 08
        E 16 b0 0b 11
        E 32 b0 0b 19
        E 32 b0 0b 22
        E 32 b0 0b 2a
        E 16 b0 0b 08
        E 16 b0 0b 11
        E 32 b0 0b 19
        E 32 b0 0b 22
        E 32 b0 0b 2a
        E 16 b0 0b 08
        E 0 80 27 00
        E 0 90 2c 08
        E 16 b0 0b 11
        E 32 b0 0b 19
        E 32 b0 0b 22
        E 32 b0 0b 2a
        E 16 80 2c 00
        E 128 b0 0b 08
        E 0 90 24 08
        E 16 b0 0b 11
        E 32 b0 0b 19
        E 32 b0 0b 22
        E 32 b0 0b 2a
        E 16 b0 0b 08
        E 0 80 24 00
        E 0 90 27 08
        E 16 b0 0b 11
        E 32 b0 0b 19
        E 32 b0 0b 22
        E 32 b0 0b 2a
        E 32 b0 0b 22
        E 240 b0 0b 08
        E 16 b0 0b 11
        E 32 b0 0b 19
        E 32 b0 0b 22
        E 32 b0 0b 2a
        E 16 b0 0b 08
        E 0 80 27 00
        E 0 90 2c 08
        E 16 b0 0b 11
        E 32 b0 0b 19
        E 32 b0 0b 22
        E 32 b0 0b 2a
        E 16 b0 0b 08
        E 0 80 2c 00
        E 0 90 30 08
        E 16 b0 0b 11
        E 32 b0 0b 19
        E 32 b0 0b 22
        E 32 b0 0b 2a
        E 16 b0 0b 08
        E 0 80 30 00
        E 0 90 32 08
        E 16 b0 0b 11
        E 32 b0 0b 19
        E 32 b0 0b 22
        E 32 b0 0b 2a
        E 32 b0 0b 22
        E 240 b0 0b 08
        E 0 80 32 00
        E 0 90 2f 08
        E 16 b0 0b 11
        E 32 b0 0b 19
        E 32 b0 0b 22
        E 32 b0 0b 2a
        E 32 b0 0b 22
        E 240 b0 0b 08
        E 0 80 2f 00
        E 0 90 32 08
        E 16 b0 0b 11
        E 32 b0 0b 19
        E 32 b0 0b 22
        E 32 b0 0b 2a
        E 32 b0 0b 22
        E 240 b0 0b 08
        E 0 80 32 00
        E 0 90 2f 08
        E 16 b0 0b 11
        E 32 b0 0b 19
        E 32 b0 0b 22
        E 32 b0 0b 2a
        E 32 b0 0b 22
        E 240 b0 0b 08
        E 0 80 2f 00
        E 0 90 30 08
        E 16 b0 0b 11
        E 32 b0 0b 19
        E 32 b0 0b 22
        E 32 b0 0b 2a
        E 16 b0 0b 08
        E 16 b0 0b 11
        E 32 b0 0b 19
        E 32 b0 0b 22
        E 32 b0 0b 2a
        E 16 b0 0b 08
        E 16 b0 0b 11
        E 32 b0 0b 19
        E 32 b0 0b 22
        E 32 b0 0b 2a
        E 16 b0 0b 08
        E 0 80 30 00
        E 0 90 33 08
        E 16 b0 0b 11
        E 32 b0 0b 19
        E 32 b0 0b 22
        E 32 b0 0b 2a
        E 16 80 33 00
        E 128 b0 0b 08
        E 0 90 2c 08
        E 16 b0 0b 11
        E 32 b0 0b 19
        E 32 b0 0b 22
        E 32 b0 0b 2a
        E 16 b0 0b 08
        E 0 80 2c 00
        E 0 90 30 08
        E 16 b0 0b 11
        E 32 b0 0b 19
        E 32 b0 0b 22
        E 32 b0 0b 2a
        E 32 b0 0b 22
        E 240 b0 0b 08
        E 16 b0 0b 11
        E 32 b0 0b 19
        E 32 b0 0b 22
        E 32 b0 0b 2a
        E 16 b0 0b 08
        E 0 80 30 00
        E 0 90 33 08
        E 16 b0 0b 11
        E 32 b0 0b 19
        E 32 b0 0b 22
        E 32 b0 0b 2a
        E 16 b0 0b 08
        E 0 80 33 00
        E 0 90 38 08
        E 16 b0 0b 11
        E 32 b0 0b 19
        E 32 b0 0b 22
        E 32 b0 0b 2a
        E 16 b0 0b 08
        E 0 80 38 00
        E 0 90 36 08
        E 16 b0 0b 11
        E 32 b0 0b 19
        E 32 b0 0b 22
        E 32 b0 0b 2a
        E 32 b0 0b 22
        E 240 b0 0b 08
        E 0 80 36 00
        E 0 90 2a 08
        E 16 b0 0b 11
        E 32 b0 0b 19
        E 32 b0 0b 22
        E 32 b0 0b 2a
        E 16 b0 0b 08
        E 0 80 2a 00
        E 0 90 2e 08
        E 16 b0 0b 11
        E 32 b0 0b 19
        E 32 b0 0b 22
        E 32 b0 0b 2a
        E 16 b0 0b 08
        E 0 80 2e 00
        E 0 90 31 08
        E 16 b0 0b 11
        E 32 b0 0b 19
        E 32 b0 0b 22
        E 32 b0 0b 2a
        E 16 b0 0b 08
        E 0 80 31 00
        E 0 90 35 08
        E 16 b0 0b 11
        E 32 b0 0b 19
        E 32 b0 0b 22
        E 32 b0 0b 2a
        E 16 b0 0b 08
        E 0 80 35 00
        E 0 90 31 08
        E 16 b0 0b 11
        E 32 b0 0b 19
        E 32 b0 0b 22
        E 32 b0 0b 2a
        E 16 b0 0b 08
        E 0 80 31 00
        E 0 90 2c 08
        E 16 b0 0b 11
        E 32 b0 0b 19
        E 32 b0 0b 22
        E 32 b0 0b 2a
        E 16 b0 0b 08
        E 0 80 2c 00
        E 0 90 29 08
        E 16 b0 0b 11
        E 32 b0 0b 19
        E 32 b0 0b 22
        E 32 b0 0b 2a
        E 16 b0 0b 08
        E 0 80 29 00
        E 0 90 2c 08
        E 16 b0 0b 11
        E 32 b0 0b 19
        E 32 b0 0b 22
        E 32 b0 0b 2a
        E 16 b0 0b 08
        E 0 80 2c 00
        E 0 90 31 08
        E 16 b0 0b 11
        E 32 b0 0b 19
        E 32 b0 0b 22
        E 32 b0 0b 2a
        E 16 80 31 00
        E 1536 b0 0b 08
        E 0 90 38 08
        E 16 b0 0b 11
        E 32 b0 0b 19
        E 32 b0 0b 22
        E 32 b0 0b 2a
        E 32 b0 0b 22
        E 240 b0 0b 08
        E 0 80 38 00
        E 0 90 2f 08
        E 16 b0 0b 11
        E 32 b0 0b 19
        E 32 b0 0b 22
        E 32 b0 0b 2a
        E 32 b0 0b 22
        E 144 b0 0b 08
        E 0 80 2f 00
        E 0 90 38 08
        E 16 b0 0b 11
        E 32 b0 0b 19
        E 32 b0 0b 22
        E 16 b0 0b 08
        E 0 80 38 00
        E 0 90 3a 08
        E 16 b0 0b 11
        E 32 b0 0b 19
        E 32 b0 0b 22
        E 32 b0 0b 2a
        E 16 b0 0b 08
        E 0 80 3a 00
        E 0 90 36 08
        E 16 b0 0b 11
        E 32 b0 0b 19
        E 32 b0 0b 22
        E 32 b0 0b 2a
        E 16 b0 0b 08
        E 0 80 36 00
        E 0 90 3a 08
        E 16 b0 0b 11
        E 32 b0 0b 19
        E 32 b0 0b 22
        E 32 b0 0b 2a
        E 16 b0 0b 08
        E 0 80 3a 00
        E 0 90 3b 08
        E 16 b0 0b 11
        E 32 b0 0b 19
        E 32 b0 0b 22
        E 32 b0 0b 2a
        E 16 b0 0b 08
        E 0 80 3b 00
        E 0 90 38 08
        E 16 b0 0b 11
        E 32 b0 0b 19
        E 32 b0 0b 22
        E 32 b0 0b 2a
        E 16 b0 0b 08
        E 0 80 38 00
        E 0 90 3b 08
        E 16 b0 0b 11
        E 32 b0 0b 19
        E 32 b0 0b 22
        E 32 b0 0b 2a
        E 16 b0 0b 08
        E 0 80 3b 00
        E 0 90 33 08
        E 16 b0 0b 11
        E 32 b0 0b 19
        E 32 b0 0b 22
        E 32 b0 0b 2a
        E 16 b0 0b 08
        E 16 b0 0b 11
        E 32 b0 0b 19
        E 32 b0 0b 22
        E 32 b0 0b 2a
        E 16 b0 0b 08
        E 0 80 33 00
        E 0 90 35 08
        E 16 b0 0b 11
        E 32 b0 0b 19
        E 32 b0 0b 22
        E 32 b0 0b 2a
        E 16 b0 0b 08
        E 0 80 35 00
        E 0 90 37 08
        E 16 b0 0b 11
        E 32 b0 0b 19
        E 32 b0 0b 22
        E 32 b0 0b 2a
        E 32 b0 0b 22
        E 144 b0 0b 08
        E 0 80 37 00
        E 0 90 35 08
        E 16 b0 0b 11
        E 32 b0 0b 19
        E 32 b0 0b 22
        E 16 b0 0b 08
        E 0 80 35 00
        E 0 90 33 08
        E 16 b0 0b 11
        E 32 b0 0b 19
        E 32 b0 0b 22
        E 32 b0 0b 2a
        E 32 b0 0b 22
        E 240 80 33 00
        E 1920 b0 0b 08
        E 0 90 38 08
        E 16 b0 0b 11
        E 32 b0 0b 19
        E 32 b0 0b 22
        E 32 b0 0b 2a
        E 32 b0 0b 22
        E 240 b0 0b 08
        E 0 80 38 00
        E 0 90 2f 08
        E 16 b0 0b 11
        E 32 b0 0b 19
        E 32 b0 0b 22
        E 32 b0 0b 2a
        E 32 b0 0b 22
        E 144 b0 0b 08
        E 0 80 2f 00
        E 0 90 38 08
        E 16 b0 0b 11
        E 32 b0 0b 19
        E 32 b0 0b 22
        E 16 b0 0b 08
        E 0 80 38 00
        E 0 90 3a 08
        E 16 b0 0b 11
        E 32 b0 0b 19
        E 32 b0 0b 22
        E 32 b0 0b 2a
        E 16 b0 0b 08
        E 0 80 3a 00
        E 0 90 36 08
        E 16 b0 0b 11
        E 32 b0 0b 19
        E 32 b0 0b 22
        E 32 b0 0b 2a
        E 16 b0 0b 08
        E 0 80 36 00
        E 0 90 3a 08
        E 16 b0 0b 11
        E 32 b0 0b 19
        E 32 b0 0b 22
        E 32 b0 0b 2a
        E 16 b0 0b 08
        E 0 80 3a 00
        E 0 90 3b 08
        E 16 b0 0b 11
        E 32 b0 0b 19
        E 32 b0 0b 22
        E 32 b0 0b 2a
        E 16 b0 0b 08
        E 0 80 3b 00
        E 0 90 38 08
        E 16 b0 0b 11
        E 32 b0 0b 19
        E 32 b0 0b 22
        E 32 b0 0b 2a
        E 16 b0 0b 08
        E 0 80 38 00
        E 0 90 3b 08
        E 16 b0 0b 11
        E 32 b0 0b 19
        E 32 b0 0b 22
        E 32 b0 0b 2a
        E 16 b0 0b 08
        E 0 80 3b 00
        E 0 90 33 08
        E 16 b0 0b 11
        E 32 b0 0b 19
        E 32 b0 0b 22
        E 32 b0 0b 2a
        E 16 b0 0b 08
        E 16 b0 0b 11
        E 32 b0 0b 19
        E 32 b0 0b 22
        E 32 b0 0b 2a
        E 16 b0 0b 08
        E 0 80 33 00
        E 0 90 35 08
        E 16 b0 0b 11
        E 32 b0 0b 19
        E 32 b0 0b 22
        E 32 b0 0b 2a
        E 16 b0 0b 08
        E 0 80 35 00
        E 0 90 37 08
        E 16 b0 0b 11
        E 32 b0 0b 19
        E 32 b0 0b 22
        E 32 b0 0b 2a
        E 32 b0 0b 22
        E 144 b0 0b 08
        E 0 80 37 00
        E 0 90 35 08
        E 16 b0 0b 11
        E 32 b0 0b 19
        E 32 b0 0b 22
        E 16 b0 0b 08
        E 0 80 35 00
        E 0 90 33 08
        E 16 b0 0b 11
        E 32 b0 0b 19
        E 32 b0 0b 22
        E 32 b0 0b 2a
        E 32 b0 0b 22
        E 240 80 33 00
        E 384 b0 0b 08
        E 0 90 3a 08
        E 16 b0 0b 11
        E 32 b0 0b 19
        E 32 b0 0b 22
        E 32 b0 0b 2a
        E 32 b0 0b 22
        E 624 b0 0b 08
        E 0 80 3a 00
        E 0 90 3c 08
        E 16 b0 0b 11
        E 32 b0 0b 19
        E 32 b0 0b 22
        E 32 b0 0b 2a
        E 32 b0 0b 22
        E 240 b0 0b 08
        E 0 80 3c 00
        E 0 90 3a 08
        E 16 b0 0b 11
        E 32 b0 0b 19
        E 32 b0 0b 22
        E 32 b0 0b 2a
        E 32 b0 0b 22
        E 240 b0 0b 08
        E 0 80 3a 00
        E 0 90 38 08
        E 16 b0 0b 11
        E 32 b0 0b 19
        E 32 b0 0b 22
        E 32 b0 0b 2a
        E 32 b0 0b 22
        E 624 b0 0b 08
        E 0 80 38 00
        E 0 90 31 08
        E 16 b0 0b 11
        E 32 b0 0b 19
        E 32 b0 0b 22
        E 32 b0 0b 2a
        E 32 b0 0b 22
        E 624 b0 0b 08
        E 0 80 31 00
        E 0 90 38 08
        E 16 b0 0b 11
        E 32 b0 0b 19
        E 32 b0 0b 22
        E 32 b0 0b 2a
        E 32 b0 0b 22
        E 240 b0 0b 08
        E 0 80 38 00
        E 0 90 3a 08
        E 16 b0 0b 11
        E 32 b0 0b 19
        E 32 b0 0b 22
        E 32 b0 0b 2a
        E 32 b0 0b 22
        E 144 b0 0b 08
        E 0 80 3a 00
        E 0 90 38 08
        E 16 b0 0b 11
        E 32 b0 0b 19
        E 32 b0 0b 22
        E 16 b0 0b 08
        E 0 80 38 00
        E 0 90 35 08
        E 16 b0 0b 11
        E 32 b0 0b 19
        E 32 b0 0b 22
        E 32 b0 0b 2a
        E 32 b0 0b 22
        E 240 b0 0b 08
        E 16 b0 0b 11
        E 32 b0 0b 19
        E 32 b0 0b 22
        E 32 b0 0b 2a
        E 32 b0 0b 22
        E 240 b0 0b 08
        E 16 b0 0b 11
        E 32 b0 0b 19
        E 32 b0 0b 22
        E 32 b0 0b 2a
        E 32 b0 0b 22
        E 240 b0 0b 08
        E 0 80 35 00
        E 0 90 33 08
        E 16 b0 0b 11
        E 32 b0 0b 19
        E 32 b0 0b 22
        E 32 b0 0b 2a
        E 32 b0 0b 22
        E 240 b0 0b 08
        E 0 80 33 00
        E 0 90 31 08
        E 16 b0 0b 11
        E 32 b0 0b 19
        E 32 b0 0b 22
        E 32 b0 0b 2a
        E 32 b0 0b 22
        E 240 b0 0b 08
        E 0 80 31 00
        E 0 90 33 08
        E 16 b0 0b 11
        E 32 b0 0b 19
        E 32 b0 0b 22
        E 32 b0 0b 2a
        E 32 b0 0b 22
        E 240 b0 0b 08
        E 16 b0 0b 11
        E 32 b0 0b 19
        E 32 b0 0b 22
        E 32 b0 0b 2a
        E 32 b0 0b 22
        E 624 b0 0b 08
        E 0 80 33 00
        E 0 90 3a 08
        E 16 b0 0b 11
        E 32 b0 0b 19
        E 32 b0 0b 22
        E 32 b0 0b 2a
        E 32 b0 0b 22
        E 624 b0 0b 08
        E 0 80 3a 00
        E 0 90 38 08
        E 16 b0 0b 11
        E 32 b0 0b 19
        E 32 b0 0b 22
        E 32 b0 0b 2a
        E 32 b0 0b 22
        E 240 b0 0b 08
        E 0 80 38 00
        E 0 90 33 08
        E 16 b0 0b 11
        E 32 b0 0b 19
        E 32 b0 0b 22
        E 32 b0 0b 2a
        E 16 80 33 00
        E 128 b0 0b 08
        E 0 90 31 08
        E 16 b0 0b 11
        E 32 b0 0b 19
        E 32 b0 0b 22
        E 32 b0 0b 2a
        E 16 b0 0b 08
        E 0 80 31 00
        E 0 90 30 08
        E 16 b0 0b 11
        E 32 b0 0b 19
        E 32 b0 0b 22
        E 32 b0 0b 2a
        E 32 b0 0b 22
        E 240 b0 0b 08
        E 0 80 30 00
        E 0 90 31 08
        E 16 b0 0b 11
        E 32 b0 0b 19
        E 32 b0 0b 22
        E 32 b0 0b 2a
        E 32 b0 0b 22
        E 240 b0 0b 08
        E 0 80 31 00
        E 0 90 29 08
        E 16 b0 0b 11
        E 32 b0 0b 19
        E 32 b0 0b 22
        E 32 b0 0b 2a
        E 16 b0 0b 08
        E 0 80 29 00
        E 0 90 2c 08
        E 16 b0 0b 11
        E 32 b0 0b 19
        E 32 b0 0b 22
        E 32 b0 0b 2a
        E 16 b0 0b 08
        E 0 80 2c 00
        E 0 90 31 08
        E 16 b0 0b 11
        E 32 b0 0b 19
        E 32 b0 0b 22
        E 32 b0 0b 2a
        E 16 b0 0b 08
        E 0 80 31 00
        E 0 90 33 08
        E 16 b0 0b 11
        E 32 b0 0b 19
        E 32 b0 0b 22
        E 32 b0 0b 2a
        E 16 b0 0b 08
        E 0 80 33 00
        E 0 90 31 08
        E 16 b0 0b 11
        E 32 b0 0b 19
        E 32 b0 0b 22
        E 32 b0 0b 2a
        E 16 b0 0b 08
        E 0 80 31 00
        E 0 90 33 08
        E 16 b0 0b 11
        E 32 b0 0b 19
        E 32 b0 0b 22
        E 32 b0 0b 2a
        E 16 b0 0b 08
        E 0 80 33 00
        E 0 90 35 08
        E 16 b0 0b 11
        E 32 b0 0b 19
        E 32 b0 0b 22
        E 32 b0 0b 2a
        E 32 b0 0b 22
        E 624 b0 0b 08
        E 0 80 35 00
        E 0 90 27 08
        E 16 b0 0b 11
        E 32 b0 0b 19
        E 32 b0 0b 22
        E 32 b0 0b 2a
        E 16 b0 0b 08
        E 0 80 27 00
        E 0 90 2c 08
        E 16 b0 0b 11
        E 32 b0 0b 19
        E 32 b0 0b 22
        E 32 b0 0b 2a
        E 16 b0 0b 08
        E 0 80 2c 00
        E 0 90 2e 08
        E 16 b0 0b 11
        E 32 b0 0b 19
        E 32 b0 0b 22
        E 32 b0 0b 2a
        E 16 b0 0b 08
        E 0 80 2e 00
        E 0 90 33 08
        E 16 b0 0b 11
        E 32 b0 0b 19
        E 32 b0 0b 22
        E 32 b0 0b 2a
        E 16 b0 0b 08
        E 0 80 33 00
        E 0 90 38 08
        E 16 b0 0b 11
        E 32 b0 0b 19
        E 32 b0 0b 22
        E 32 b0 0b 2a
        E 16 b0 0b 08
        E 0 80 38 00
        E 0 90 3d 08
        E 16 b0 0b 11
        E 32 b0 0b 19
        E 32 b0 0b 22
        E 32 b0 0b 2a
        E 16 b0 0b 08
        E 0 80 3d 00
        E 0 90 3c 08
        E 16 b0 0b 11
        E 32 b0 0b 19
        E 32 b0 0b 22
        E 32 b0 0b 2a
        E 32 b0 0b 22
        E 608 80 3c 00
        E 0 b0 7b 00
        E 0 ff 2f 00
      >
    >
  >
  <TRACK {51120207-A61E-4F54-986C-CF309829BD9D}
    NAME "NES - Pulse 2 [ch1]"
    PEAKCOL 10092441
    BEAT -1
    AUTOMODE 0
    PANLAWFLAGS 3
    VOLPAN 1 0 -1 -1 1
    MUTESOLO 0 0 0
    IPHASE 0
    PLAYOFFS 0 1
    ISBUS 0 0
    BUSCOMP 0 0 0 0 0
    SHOWINMIX 1 0.6667 0.5 1 0.5 0 0 0
    FIXEDLANES 9 0 0 0 0
    SEL 0
    REC 0 5088 1 0 0 0 0 0
    VU 2
    TRACKHEIGHT 0 0 0 0 0 0 0
    INQ 0 0 0 0.5 100 0 0 100
    NCHAN 2
    FX 1
    TRACKID {51120207-A61E-4F54-986C-CF309829BD9D}
    PERF 0
    MIDIOUT -1
    MAINSEND 1 0
    <FXCHAIN
      WNDRECT 24 52 700 560
      SHOW 0
      LASTSEL 0
      DOCKED 0
      BYPASS 0 0 0
      <JS "ReapNES Studio/ReapNES_Console.jsfx" ""
        2 15 1 10 80 10 100 2 1 15 1 5 60 10 80 1 1 0 50 0 0 15 1 0 100 0 0 0.500000 0.500000 0.400000 0.300000 0.800000 1 1 0 0 0 0 - - - - - - - - - - - - - - - - - - - - - - - - - -
      >
      FLOATPOS 0 0 0 0
      FXID {7D40C83F-7600-418F-9579-E2CF7A9B875C}
      WAK 0 0
    >
    <ITEM
      POSITION 0
      LENGTH 71.6640768
      LOOP 0
      ALLTAKES 0
      FADEIN 0 0 0 0 0 0 0
      FADEOUT 0 0 0 0 0 0 0
      MUTE 0 0
      SEL 0
      IGUID {CAA3257A-4FD6-4941-BDEF-4ED0B7FF8078}
      <SOURCE MIDI
        HASDATA 1 480 QN
        CCINTERP 32
        E 0 c1 51
        E 0 b1 0c 40
        E 0 b1 0b 22
        E 0 91 2c 22
        E 16 b1 0b 2a
        E 16 b1 0b 33
        E 16 b1 0b 3b
        E 16 b1 0b 44
        E 16 b1 0b 3b
        E 16 b1 0b 33
        E 16 b1 0b 2a
        E 16 b1 0b 22
        E 16 b1 0b 2a
        E 16 b1 0b 33
        E 16 b1 0b 3b
        E 16 b1 0b 44
        E 16 b1 0b 3b
        E 16 b1 0b 33
        E 16 b1 0b 2a
        E 16 b1 0b 22
        E 16 b1 0b 2a
        E 16 b1 0b 33
        E 16 b1 0b 3b
        E 16 b1 0b 44
        E 16 b1 0b 3b
        E 16 b1 0b 33
        E 16 b1 0b 2a
        E 16 b1 0b 22
        E 0 81 2c 00
        E 0 91 30 22
        E 16 b1 0b 2a
        E 16 b1 0b 33
        E 16 b1 0b 3b
        E 16 b1 0b 44
        E 16 b1 0b 3b
        E 16 b1 0b 33
        E 16 b1 0b 2a
        E 16 81 30 00
        E 128 b1 0b 22
        E 0 91 27 22
        E 16 b1 0b 2a
        E 16 b1 0b 33
        E 16 b1 0b 3b
        E 16 b1 0b 44
        E 16 b1 0b 3b
        E 16 b1 0b 33
        E 16 b1 0b 2a
        E 16 b1 0b 22
        E 0 81 27 00
        E 0 91 2c 22
        E 16 b1 0b 2a
        E 16 b1 0b 33
        E 16 b1 0b 3b
        E 16 b1 0b 44
        E 16 b1 0b 3b
        E 16 b1 0b 33
        E 16 b1 0b 2a
        E 16 b1 0b 22
        E 272 b1 0b 2a
        E 16 b1 0b 33
        E 16 b1 0b 3b
        E 16 b1 0b 44
        E 16 b1 0b 3b
        E 16 b1 0b 33
        E 16 b1 0b 2a
        E 16 b1 0b 22
        E 0 81 2c 00
        E 0 91 30 22
        E 16 b1 0b 2a
        E 16 b1 0b 33
        E 16 b1 0b 3b
        E 16 b1 0b 44
        E 16 b1 0b 3b
        E 16 b1 0b 33
        E 16 b1 0b 2a
        E 16 b1 0b 22
        E 0 81 30 00
        E 0 91 33 22
        E 16 b1 0b 2a
        E 16 b1 0b 33
        E 16 b1 0b 3b
        E 16 b1 0b 44
        E 16 b1 0b 3b
        E 16 b1 0b 33
        E 16 b1 0b 2a
        E 16 b1 0b 22
        E 0 81 33 00
        E 0 91 37 22
        E 16 b1 0b 2a
        E 16 b1 0b 33
        E 16 b1 0b 3b
        E 16 b1 0b 44
        E 16 b1 0b 3b
        E 16 b1 0b 33
        E 16 b1 0b 2a
        E 16 b1 0b 22
        E 640 81 37 00
        E 0 91 35 22
        E 16 b1 0b 2a
        E 16 b1 0b 33
        E 16 b1 0b 3b
        E 16 b1 0b 44
        E 16 b1 0b 3b
        E 16 b1 0b 33
        E 16 b1 0b 2a
        E 16 b1 0b 22
        E 640 81 35 00
        E 0 91 33 22
        E 16 b1 0b 2a
        E 16 b1 0b 33
        E 16 b1 0b 3b
        E 16 b1 0b 44
        E 16 b1 0b 3b
        E 16 b1 0b 33
        E 16 b1 0b 2a
        E 16 b1 0b 22
        E 16 b1 0b 2a
        E 16 b1 0b 33
        E 16 b1 0b 3b
        E 16 b1 0b 44
        E 16 b1 0b 3b
        E 16 b1 0b 33
        E 16 b1 0b 2a
        E 16 b1 0b 22
        E 16 b1 0b 2a
        E 16 b1 0b 33
        E 16 b1 0b 3b
        E 16 b1 0b 44
        E 16 b1 0b 3b
        E 16 b1 0b 33
        E 16 b1 0b 2a
        E 16 b1 0b 22
        E 0 81 33 00
        E 0 91 38 22
        E 16 b1 0b 2a
        E 16 b1 0b 33
        E 16 b1 0b 3b
        E 16 b1 0b 44
        E 16 b1 0b 3b
        E 16 b1 0b 33
        E 16 b1 0b 2a
        E 16 81 38 00
        E 128 b1 0b 22
        E 0 91 30 22
        E 16 b1 0b 2a
        E 16 b1 0b 33
        E 16 b1 0b 3b
        E 16 b1 0b 44
        E 16 b1 0b 3b
        E 16 b1 0b 33
        E 16 b1 0b 2a
        E 16 b1 0b 22
        E 0 81 30 00
        E 0 91 33 22
        E 16 b1 0b 2a
        E 16 b1 0b 33
        E 16 b1 0b 3b
        E 16 b1 0b 44
        E 16 b1 0b 3b
        E 16 b1 0b 33
        E 16 b1 0b 2a
        E 16 b1 0b 22
        E 272 b1 0b 2a
        E 16 b1 0b 33
        E 16 b1 0b 3b
        E 16 b1 0b 44
        E 16 b1 0b 3b
        E 16 b1 0b 33
        E 16 b1 0b 2a
        E 16 b1 0b 22
        E 0 81 33 00
        E 0 91 38 22
        E 16 b1 0b 2a
        E 16 b1 0b 33
        E 16 b1 0b 3b
        E 16 b1 0b 44
        E 16 b1 0b 3b
        E 16 b1 0b 33
        E 16 b1 0b 2a
        E 16 b1 0b 22
        E 0 81 38 00
        E 0 91 30 22
        E 16 b1 0b 2a
        E 16 b1 0b 33
        E 16 b1 0b 3b
        E 16 b1 0b 44
        E 16 b1 0b 3b
        E 16 b1 0b 33
        E 16 b1 0b 2a
        E 16 b1 0b 22
        E 0 81 30 00
        E 0 91 3a 22
        E 16 b1 0b 2a
        E 16 b1 0b 33
        E 16 b1 0b 3b
        E 16 b1 0b 44
        E 16 b1 0b 3b
        E 16 b1 0b 33
        E 16 b1 0b 2a
        E 16 b1 0b 22
        E 640 81 3a 00
        E 0 91 3d 22
        E 16 b1 0b 2a
        E 16 b1 0b 33
        E 16 b1 0b 3b
        E 16 b1 0b 44
        E 16 b1 0b 3b
        E 16 b1 0b 33
        E 16 b1 0b 2a
        E 16 b1 0b 22
        E 640 81 3d 00
        E 0 91 2c 22
        E 16 b1 0b 2a
        E 16 b1 0b 33
        E 16 b1 0b 3b
        E 16 b1 0b 44
        E 16 b1 0b 3b
        E 16 b1 0b 33
        E 16 b1 0b 2a
        E 16 b1 0b 22
        E 16 b1 0b 2a
        E 16 b1 0b 33
        E 16 b1 0b 3b
        E 16 b1 0b 44
        E 16 b1 0b 3b
        E 16 b1 0b 33
        E 16 b1 0b 2a
        E 16 b1 0b 22
        E 16 b1 0b 2a
        E 16 b1 0b 33
        E 16 b1 0b 3b
        E 16 b1 0b 44
        E 16 b1 0b 3b
        E 16 b1 0b 33
        E 16 b1 0b 2a
        E 16 b1 0b 22
        E 0 81 2c 00
        E 0 91 30 22
        E 16 b1 0b 2a
        E 16 b1 0b 33
        E 16 b1 0b 3b
        E 16 b1 0b 44
        E 16 b1 0b 3b
        E 16 b1 0b 33
        E 16 b1 0b 2a
        E 16 81 30 00
        E 128 b1 0b 22
        E 0 91 27 22
        E 16 b1 0b 2a
        E 16 b1 0b 33
        E 16 b1 0b 3b
        E 16 b1 0b 44
        E 16 b1 0b 3b
        E 16 b1 0b 33
        E 16 b1 0b 2a
        E 16 b1 0b 22
        E 0 81 27 00
        E 0 91 2c 22
        E 16 b1 0b 2a
        E 16 b1 0b 33
        E 16 b1 0b 3b
        E 16 b1 0b 44
        E 16 b1 0b 3b
        E 16 b1 0b 33
        E 16 b1 0b 2a
        E 16 b1 0b 22
        E 272 b1 0b 2a
        E 16 b1 0b 33
        E 16 b1 0b 3b
        E 16 b1 0b 44
        E 16 b1 0b 3b
        E 16 b1 0b 33
        E 16 b1 0b 2a
        E 16 b1 0b 22
        E 0 81 2c 00
        E 0 91 30 22
        E 16 b1 0b 2a
        E 16 b1 0b 33
        E 16 b1 0b 3b
        E 16 b1 0b 44
        E 16 b1 0b 3b
        E 16 b1 0b 33
        E 16 b1 0b 2a
        E 16 b1 0b 22
        E 0 81 30 00
        E 0 91 33 22
        E 16 b1 0b 2a
        E 16 b1 0b 33
        E 16 b1 0b 3b
        E 16 b1 0b 44
        E 16 b1 0b 3b
        E 16 b1 0b 33
        E 16 b1 0b 2a
        E 16 b1 0b 22
        E 0 81 33 00
        E 0 91 37 22
        E 16 b1 0b 2a
        E 16 b1 0b 33
        E 16 b1 0b 3b
        E 16 b1 0b 44
        E 16 b1 0b 3b
        E 16 b1 0b 33
        E 16 b1 0b 2a
        E 16 b1 0b 22
        E 640 81 37 00
        E 0 91 35 22
        E 16 b1 0b 2a
        E 16 b1 0b 33
        E 16 b1 0b 3b
        E 16 b1 0b 44
        E 16 b1 0b 3b
        E 16 b1 0b 33
        E 16 b1 0b 2a
        E 16 b1 0b 22
        E 640 81 35 00
        E 0 91 33 22
        E 16 b1 0b 2a
        E 16 b1 0b 33
        E 16 b1 0b 3b
        E 16 b1 0b 44
        E 16 b1 0b 3b
        E 16 b1 0b 33
        E 16 b1 0b 2a
        E 16 b1 0b 22
        E 16 b1 0b 2a
        E 16 b1 0b 33
        E 16 b1 0b 3b
        E 16 b1 0b 44
        E 16 b1 0b 3b
        E 16 b1 0b 33
        E 16 b1 0b 2a
        E 16 b1 0b 22
        E 16 b1 0b 2a
        E 16 b1 0b 33
        E 16 b1 0b 3b
        E 16 b1 0b 44
        E 16 b1 0b 3b
        E 16 b1 0b 33
        E 16 b1 0b 2a
        E 16 b1 0b 22
        E 0 81 33 00
        E 0 91 38 22
        E 16 b1 0b 2a
        E 16 b1 0b 33
        E 16 b1 0b 3b
        E 16 b1 0b 44
        E 16 b1 0b 3b
        E 16 b1 0b 33
        E 16 b1 0b 2a
        E 16 81 38 00
        E 128 b1 0b 22
        E 0 91 30 22
        E 16 b1 0b 2a
        E 16 b1 0b 33
        E 16 b1 0b 3b
        E 16 b1 0b 44
        E 16 b1 0b 3b
        E 16 b1 0b 33
        E 16 b1 0b 2a
        E 16 b1 0b 22
        E 0 81 30 00
        E 0 91 33 22
        E 16 b1 0b 2a
        E 16 b1 0b 33
        E 16 b1 0b 3b
        E 16 b1 0b 44
        E 16 b1 0b 3b
        E 16 b1 0b 33
        E 16 b1 0b 2a
        E 16 b1 0b 22
        E 272 b1 0b 2a
        E 16 b1 0b 33
        E 16 b1 0b 3b
        E 16 b1 0b 44
        E 16 b1 0b 3b
        E 16 b1 0b 33
        E 16 b1 0b 2a
        E 16 b1 0b 22
        E 0 81 33 00
        E 0 91 38 22
        E 16 b1 0b 2a
        E 16 b1 0b 33
        E 16 b1 0b 3b
        E 16 b1 0b 44
        E 16 b1 0b 3b
        E 16 b1 0b 33
        E 16 b1 0b 2a
        E 16 b1 0b 22
        E 0 81 38 00
        E 0 91 30 22
        E 16 b1 0b 2a
        E 16 b1 0b 33
        E 16 b1 0b 3b
        E 16 b1 0b 44
        E 16 b1 0b 3b
        E 16 b1 0b 33
        E 16 b1 0b 2a
        E 16 b1 0b 22
        E 0 81 30 00
        E 0 91 3a 22
        E 16 b1 0b 2a
        E 16 b1 0b 33
        E 16 b1 0b 3b
        E 16 b1 0b 44
        E 16 b1 0b 3b
        E 16 b1 0b 33
        E 16 b1 0b 2a
        E 16 b1 0b 22
        E 640 81 3a 00
        E 0 91 3d 22
        E 16 b1 0b 2a
        E 16 b1 0b 33
        E 16 b1 0b 3b
        E 16 b1 0b 44
        E 16 b1 0b 3b
        E 16 b1 0b 33
        E 16 b1 0b 2a
        E 16 b1 0b 22
        E 640 81 3d 00
        E 0 91 38 22
        E 16 b1 0b 2a
        E 16 b1 0b 33
        E 16 b1 0b 3b
        E 16 b1 0b 44
        E 16 b1 0b 3b
        E 16 b1 0b 33
        E 16 b1 0b 2a
        E 16 81 38 00
        E 128 b1 0b 22
        E 0 91 38 22
        E 16 b1 0b 2a
        E 16 b1 0b 33
        E 16 b1 0b 3b
        E 16 b1 0b 44
        E 16 b1 0b 3b
        E 16 b1 0b 33
        E 16 b1 0b 2a
        E 16 b1 0b 22
        E 0 81 38 00
        E 0 91 3a 22
        E 16 b1 0b 2a
        E 16 b1 0b 33
        E 16 b1 0b 3b
        E 16 b1 0b 44
        E 16 b1 0b 3b
        E 16 b1 0b 33
        E 16 b1 0b 2a
        E 16 b1 0b 22
        E 256 81 3a 00
        E 0 91 3c 22
        E 16 b1 0b 2a
        E 16 b1 0b 33
        E 16 b1 0b 3b
        E 16 b1 0b 44
        E 16 b1 0b 3b
        E 16 b1 0b 33
        E 16 b1 0b 2a
        E 16 b1 0b 22
        E 256 81 3c 00
        E 0 91 3d 22
        E 16 b1 0b 2a
        E 16 b1 0b 33
        E 16 b1 0b 3b
        E 16 b1 0b 44
        E 16 b1 0b 3b
        E 16 b1 0b 33
        E 16 b1 0b 2a
        E 16 b1 0b 22
        E 256 81 3d 00
        E 0 91 3f 22
        E 16 b1 0b 2a
        E 16 b1 0b 33
        E 16 b1 0b 3b
        E 16 b1 0b 44
        E 16 b1 0b 3b
        E 16 b1 0b 33
        E 16 b1 0b 2a
        E 16 b1 0b 22
        E 1040 b1 0b 2a
        E 16 b1 0b 33
        E 16 b1 0b 3b
        E 16 b1 0b 44
        E 16 b1 0b 3b
        E 16 b1 0b 33
        E 16 b1 0b 2a
        E 16 b1 0b 22
        E 0 81 3f 00
        E 0 91 3b 22
        E 16 b1 0b 2a
        E 16 b1 0b 33
        E 16 b1 0b 3b
        E 16 b1 0b 44
        E 16 b1 0b 3b
        E 16 b1 0b 33
        E 16 b1 0b 2a
        E 16 b1 0b 22
        E 0 81 3b 00
        E 0 91 3f 22
        E 16 b1 0b 2a
        E 16 b1 0b 33
        E 16 b1 0b 3b
        E 16 b1 0b 44
        E 16 b1 0b 3b
        E 16 b1 0b 33
        E 16 b1 0b 2a
        E 16 b1 0b 22
        E 0 81 3f 00
        E 0 91 3c 22
        E 16 b1 0b 2a
        E 16 b1 0b 33
        E 16 b1 0b 3b
        E 16 b1 0b 44
        E 16 b1 0b 3b
        E 16 b1 0b 33
        E 16 b1 0b 2a
        E 16 b1 0b 22
        E 1024 81 3c 00
        E 384 91 38 22
        E 16 b1 0b 2a
        E 16 b1 0b 33
        E 16 b1 0b 3b
        E 16 b1 0b 44
        E 16 b1 0b 3b
        E 16 b1 0b 33
        E 16 b1 0b 2a
        E 16 81 38 00
        E 128 b1 0b 22
        E 0 91 38 22
        E 16 b1 0b 2a
        E 16 b1 0b 33
        E 16 b1 0b 3b
        E 16 b1 0b 44
        E 16 b1 0b 3b
        E 16 b1 0b 33
        E 16 b1 0b 2a
        E 16 b1 0b 22
        E 0 81 38 00
        E 0 91 3a 22
        E 16 b1 0b 2a
        E 16 b1 0b 33
        E 16 b1 0b 3b
        E 16 b1 0b 44
        E 16 b1 0b 3b
        E 16 b1 0b 33
        E 16 b1 0b 2a
        E 16 b1 0b 22
        E 256 81 3a 00
        E 0 91 3c 22
        E 16 b1 0b 2a
        E 16 b1 0b 33
        E 16 b1 0b 3b
        E 16 b1 0b 44
        E 16 b1 0b 3b
        E 16 b1 0b 33
        E 16 b1 0b 2a
        E 16 b1 0b 22
        E 256 81 3c 00
        E 0 91 3d 22
        E 16 b1 0b 2a
        E 16 b1 0b 33
        E 16 b1 0b 3b
        E 16 b1 0b 44
        E 16 b1 0b 3b
        E 16 b1 0b 33
        E 16 b1 0b 2a
        E 16 b1 0b 22
        E 256 81 3d 00
        E 0 91 3f 22
        E 16 b1 0b 2a
        E 16 b1 0b 33
        E 16 b1 0b 3b
        E 16 b1 0b 44
        E 16 b1 0b 3b
        E 16 b1 0b 33
        E 16 b1 0b 2a
        E 16 b1 0b 22
        E 1040 b1 0b 2a
        E 16 b1 0b 33
        E 16 b1 0b 3b
        E 16 b1 0b 44
        E 16 b1 0b 3b
        E 16 b1 0b 33
        E 16 b1 0b 2a
        E 16 b1 0b 22
        E 0 81 3f 00
        E 0 91 3b 22
        E 16 b1 0b 2a
        E 16 b1 0b 33
        E 16 b1 0b 3b
        E 16 b1 0b 44
        E 16 b1 0b 3b
        E 16 b1 0b 33
        E 16 b1 0b 2a
        E 16 b1 0b 22
        E 0 81 3b 00
        E 0 91 3f 22
        E 16 b1 0b 2a
        E 16 b1 0b 33
        E 16 b1 0b 3b
        E 16 b1 0b 44
        E 16 b1 0b 3b
        E 16 b1 0b 33
        E 16 b1 0b 2a
        E 16 b1 0b 22
        E 0 81 3f 00
        E 0 91 3c 22
        E 16 b1 0b 2a
        E 16 b1 0b 33
        E 16 b1 0b 3b
        E 16 b1 0b 44
        E 16 b1 0b 3b
        E 16 b1 0b 33
        E 16 b1 0b 2a
        E 16 b1 0b 22
        E 1024 81 3c 00
        E 0 91 38 22
        E 16 b1 0b 2a
        E 16 b1 0b 33
        E 16 b1 0b 3b
        E 16 b1 0b 44
        E 16 b1 0b 3b
        E 16 b1 0b 33
        E 16 b1 0b 2a
        E 16 b1 0b 22
        E 0 81 38 00
        E 0 91 3c 22
        E 16 b1 0b 2a
        E 16 b1 0b 33
        E 16 b1 0b 3b
        E 16 b1 0b 44
        E 16 b1 0b 3b
        E 16 b1 0b 33
        E 16 b1 0b 2a
        E 16 b1 0b 22
        E 0 81 3c 00
        E 0 91 3d 22
        E 16 b1 0b 2a
        E 16 b1 0b 33
        E 16 b1 0b 3b
        E 16 b1 0b 44
        E 16 b1 0b 3b
        E 16 b1 0b 33
        E 16 b1 0b 2a
        E 16 b1 0b 22
        E 0 81 3d 00
        E 0 91 3f 22
        E 16 b1 0b 2a
        E 16 b1 0b 33
        E 16 b1 0b 3b
        E 16 b1 0b 44
        E 16 b1 0b 3b
        E 16 b1 0b 33
        E 16 b1 0b 2a
        E 16 b1 0b 22
        E 1024 81 3f 00
        E 0 91 3d 22
        E 16 b1 0b 2a
        E 16 b1 0b 33
        E 16 b1 0b 3b
        E 16 b1 0b 44
        E 16 b1 0b 3b
        E 16 b1 0b 33
        E 16 b1 0b 2a
        E 16 b1 0b 22
        E 160 81 3d 00
        E 0 91 3c 22
        E 16 b1 0b 2a
        E 16 b1 0b 33
        E 16 b1 0b 3b
        E 16 b1 0b 44
        E 16 b1 0b 3b
        E 16 b1 0b 22
        E 0 81 3c 00
        E 0 91 3d 22
        E 16 b1 0b 2a
        E 16 b1 0b 33
        E 16 b1 0b 3b
        E 16 b1 0b 44
        E 16 b1 0b 3b
        E 16 b1 0b 33
        E 16 b1 0b 2a
        E 16 b1 0b 22
        E 640 81 3d 00
        E 0 91 38 22
        E 16 b1 0b 2a
        E 16 b1 0b 33
        E 16 b1 0b 3b
        E 16 b1 0b 44
        E 16 b1 0b 3b
        E 16 b1 0b 33
        E 16 b1 0b 2a
        E 16 b1 0b 22
        E 256 81 38 00
        E 0 91 3a 22
        E 16 b1 0b 2a
        E 16 b1 0b 33
        E 16 b1 0b 3b
        E 16 b1 0b 44
        E 16 b1 0b 3b
        E 16 b1 0b 33
        E 16 b1 0b 2a
        E 16 b1 0b 22
        E 256 81 3a 00
        E 0 91 3c 22
        E 16 b1 0b 2a
        E 16 b1 0b 33
        E 16 b1 0b 3b
        E 16 b1 0b 44
        E 16 b1 0b 3b
        E 16 b1 0b 33
        E 16 b1 0b 2a
        E 16 b1 0b 22
        E 256 81 3c 00
        E 0 91 3d 22
        E 16 b1 0b 2a
        E 16 b1 0b 33
        E 16 b1 0b 3b
        E 16 b1 0b 44
        E 16 b1 0b 3b
        E 16 b1 0b 33
        E 16 b1 0b 2a
        E 16 b1 0b 22
        E 160 81 3d 00
        E 0 91 3c 22
        E 16 b1 0b 2a
        E 16 b1 0b 33
        E 16 b1 0b 3b
        E 16 b1 0b 44
        E 16 b1 0b 3b
        E 16 b1 0b 22
        E 0 81 3c 00
        E 0 91 3a 22
        E 16 b1 0b 2a
        E 16 b1 0b 33
        E 16 b1 0b 3b
        E 16 b1 0b 44
        E 16 b1 0b 3b
        E 16 b1 0b 33
        E 16 b1 0b 2a
        E 16 b1 0b 22
        E 256 81 3a 00
        E 0 91 38 22
        E 16 b1 0b 2a
        E 16 b1 0b 33
        E 16 b1 0b 3b
        E 16 b1 0b 44
        E 16 b1 0b 3b
        E 16 b1 0b 33
        E 16 b1 0b 2a
        E 16 b1 0b 22
        E 272 b1 0b 2a
        E 16 b1 0b 33
        E 16 b1 0b 3b
        E 16 b1 0b 44
        E 16 b1 0b 3b
        E 16 b1 0b 33
        E 16 b1 0b 2a
        E 16 b1 0b 22
        E 256 81 38 00
        E 0 91 37 22
        E 16 b1 0b 2a
        E 16 b1 0b 33
        E 16 b1 0b 3b
        E 16 b1 0b 44
        E 16 b1 0b 3b
        E 16 b1 0b 33
        E 16 b1 0b 2a
        E 16 b1 0b 22
        E 256 81 37 00
        E 0 91 35 22
        E 16 b1 0b 2a
        E 16 b1 0b 33
        E 16 b1 0b 3b
        E 16 b1 0b 44
        E 16 b1 0b 3b
        E 16 b1 0b 33
        E 16 b1 0b 2a
        E 16 b1 0b 22
        E 256 81 35 00
        E 0 91 37 22
        E 16 b1 0b 2a
        E 16 b1 0b 33
        E 16 b1 0b 3b
        E 16 b1 0b 44
        E 16 b1 0b 3b
        E 16 b1 0b 33
        E 16 b1 0b 2a
        E 16 b1 0b 22
        E 256 81 37 00
        E 0 91 38 22
        E 16 b1 0b 2a
        E 16 b1 0b 33
        E 16 b1 0b 3b
        E 16 b1 0b 44
        E 16 b1 0b 3b
        E 16 b1 0b 33
        E 16 b1 0b 2a
        E 16 b1 0b 22
        E 0 81 38 00
        E 0 91 33 22
        E 16 b1 0b 2a
        E 16 b1 0b 33
        E 16 b1 0b 3b
        E 16 b1 0b 44
        E 16 b1 0b 3b
        E 16 b1 0b 33
        E 16 b1 0b 2a
        E 16 b1 0b 22
        E 0 81 33 00
        E 0 91 38 22
        E 16 b1 0b 2a
        E 16 b1 0b 33
        E 16 b1 0b 3b
        E 16 b1 0b 44
        E 16 b1 0b 3b
        E 16 b1 0b 33
        E 16 b1 0b 2a
        E 16 b1 0b 22
        E 0 81 38 00
        E 0 91 3c 22
        E 16 b1 0b 2a
        E 16 b1 0b 33
        E 16 b1 0b 3b
        E 16 b1 0b 44
        E 16 b1 0b 3b
        E 16 b1 0b 33
        E 16 b1 0b 2a
        E 16 b1 0b 22
        E 0 81 3c 00
        E 0 91 38 22
        E 16 b1 0b 2a
        E 16 b1 0b 33
        E 16 b1 0b 3b
        E 16 b1 0b 44
        E 16 b1 0b 3b
        E 16 b1 0b 33
        E 16 b1 0b 2a
        E 16 b1 0b 22
        E 0 81 38 00
        E 0 91 3c 22
        E 16 b1 0b 2a
        E 16 b1 0b 33
        E 16 b1 0b 3b
        E 16 b1 0b 44
        E 16 b1 0b 3b
        E 16 b1 0b 33
        E 16 b1 0b 2a
        E 16 b1 0b 22
        E 0 81 3c 00
        E 0 91 3f 22
        E 16 b1 0b 2a
        E 16 b1 0b 33
        E 16 b1 0b 3b
        E 16 b1 0b 44
        E 16 b1 0b 3b
        E 16 b1 0b 33
        E 16 b1 0b 2a
        E 16 81 3f 00
        E 256 b1 0b 22
        E 0 91 3c 22
        E 16 b1 0b 2a
        E 16 b1 0b 33
        E 16 b1 0b 3b
        E 16 b1 0b 44
        E 16 b1 0b 3b
        E 16 b1 0b 33
        E 16 b1 0b 2a
        E 16 81 3c 00
        E 128 b1 0b 22
        E 0 91 38 22
        E 16 b1 0b 2a
        E 16 b1 0b 33
        E 16 b1 0b 3b
        E 16 b1 0b 44
        E 16 b1 0b 3b
        E 16 b1 0b 33
        E 16 b1 0b 2a
        E 16 b1 0b 22
        E 0 81 38 00
        E 0 91 3d 22
        E 16 b1 0b 2a
        E 16 b1 0b 33
        E 16 b1 0b 3b
        E 16 b1 0b 44
        E 16 b1 0b 3b
        E 16 b1 0b 33
        E 16 b1 0b 2a
        E 16 b1 0b 22
        E 256 81 3d 00
        E 0 91 3c 22
        E 16 b1 0b 2a
        E 16 b1 0b 33
        E 16 b1 0b 3b
        E 16 b1 0b 44
        E 16 b1 0b 3b
        E 16 b1 0b 33
        E 16 b1 0b 2a
        E 16 b1 0b 22
        E 160 81 3c 00
        E 0 91 3a 22
        E 16 b1 0b 2a
        E 16 b1 0b 33
        E 16 b1 0b 3b
        E 16 b1 0b 44
        E 16 b1 0b 3b
        E 16 b1 0b 22
        E 0 81 3a 00
        E 0 91 38 22
        E 16 b1 0b 2a
        E 16 b1 0b 33
        E 16 b1 0b 3b
        E 16 b1 0b 44
        E 16 b1 0b 3b
        E 16 b1 0b 33
        E 16 b1 0b 2a
        E 16 b1 0b 22
        E 256 81 38 00
        E 0 91 3a 22
        E 16 b1 0b 2a
        E 16 b1 0b 33
        E 16 b1 0b 3b
        E 16 b1 0b 44
        E 16 b1 0b 3b
        E 16 b1 0b 33
        E 16 b1 0b 2a
        E 16 b1 0b 22
        E 256 81 3a 00
        E 0 91 38 22
        E 16 b1 0b 2a
        E 16 b1 0b 33
        E 16 b1 0b 3b
        E 16 b1 0b 44
        E 16 b1 0b 3b
        E 16 b1 0b 33
        E 16 b1 0b 2a
        E 16 b1 0b 22
        E 1424 b1 0b 2a
        E 16 b1 0b 33
        E 16 b1 0b 3b
        E 16 b1 0b 44
        E 16 b1 0b 3b
        E 16 b1 0b 33
        E 16 b1 0b 2a
        E 16 b1 0b 22
        E 1424 b1 0b 2a
        E 16 b1 0b 33
        E 16 b1 0b 3b
        E 16 b1 0b 44
        E 16 b1 0b 3b
        E 16 b1 0b 33
        E 16 b1 0b 2a
        E 16 b1 0b 22
        E 1408 81 38 00
        E 0 91 31 22
        E 16 b1 0b 2a
        E 16 b1 0b 33
        E 16 b1 0b 3b
        E 16 b1 0b 44
        E 16 b1 0b 3b
        E 16 b1 0b 33
        E 16 b1 0b 2a
        E 16 b1 0b 22
        E 640 81 31 00
        E 0 91 33 22
        E 16 b1 0b 2a
        E 16 b1 0b 33
        E 16 b1 0b 3b
        E 16 b1 0b 44
        E 16 b1 0b 3b
        E 16 b1 0b 33
        E 16 b1 0b 2a
        E 16 b1 0b 22
        E 0 81 33 00
        E 0 91 31 22
        E 16 b1 0b 2a
        E 16 b1 0b 33
        E 16 b1 0b 3b
        E 16 b1 0b 44
        E 16 b1 0b 3b
        E 16 b1 0b 33
        E 16 b1 0b 2a
        E 16 b1 0b 22
        E 0 81 31 00
        E 0 91 33 22
        E 16 b1 0b 2a
        E 16 b1 0b 33
        E 16 b1 0b 3b
        E 16 b1 0b 44
        E 16 b1 0b 3b
        E 16 b1 0b 33
        E 16 b1 0b 2a
        E 16 b1 0b 22
        E 0 81 33 00
        E 0 91 35 22
        E 16 b1 0b 2a
        E 16 b1 0b 33
        E 16 b1 0b 3b
        E 16 b1 0b 44
        E 16 b1 0b 3b
        E 16 b1 0b 33
        E 16 b1 0b 2a
        E 16 b1 0b 22
        E 272 81 35 00
        E 3072 91 2c 22
        E 16 b1 0b 2a
        E 16 b1 0b 33
        E 16 b1 0b 3b
        E 16 b1 0b 44
        E 16 b1 0b 3b
        E 16 b1 0b 33
        E 16 b1 0b 2a
        E 16 b1 0b 22
        E 16 b1 0b 2a
        E 16 b1 0b 33
        E 16 b1 0b 3b
        E 16 b1 0b 44
        E 16 b1 0b 3b
        E 16 b1 0b 33
        E 16 b1 0b 2a
        E 16 b1 0b 22
        E 16 b1 0b 2a
        E 16 b1 0b 33
        E 16 b1 0b 3b
        E 16 b1 0b 44
        E 16 b1 0b 3b
        E 16 b1 0b 33
        E 16 b1 0b 2a
        E 16 b1 0b 22
        E 0 81 2c 00
        E 0 91 30 22
        E 16 b1 0b 2a
        E 16 b1 0b 33
        E 16 b1 0b 3b
        E 16 b1 0b 44
        E 16 b1 0b 3b
        E 16 b1 0b 33
        E 16 b1 0b 2a
        E 16 81 30 00
        E 128 b1 0b 22
        E 0 91 27 22
        E 16 b1 0b 2a
        E 16 b1 0b 33
        E 16 b1 0b 3b
        E 16 b1 0b 44
        E 16 b1 0b 3b
        E 16 b1 0b 33
        E 16 b1 0b 2a
        E 16 b1 0b 22
        E 0 81 27 00
        E 0 91 2c 22
        E 16 b1 0b 2a
        E 16 b1 0b 33
        E 16 b1 0b 3b
        E 16 b1 0b 44
        E 16 b1 0b 3b
        E 16 b1 0b 33
        E 16 b1 0b 2a
        E 16 b1 0b 22
        E 272 b1 0b 2a
        E 16 b1 0b 33
        E 16 b1 0b 3b
        E 16 b1 0b 44
        E 16 b1 0b 3b
        E 16 b1 0b 33
        E 16 b1 0b 2a
        E 16 b1 0b 22
        E 0 81 2c 00
        E 0 91 30 22
        E 16 b1 0b 2a
        E 16 b1 0b 33
        E 16 b1 0b 3b
        E 16 b1 0b 44
        E 16 b1 0b 3b
        E 16 b1 0b 33
        E 16 b1 0b 2a
        E 16 b1 0b 22
        E 0 81 30 00
        E 0 91 33 22
        E 16 b1 0b 2a
        E 16 b1 0b 33
        E 16 b1 0b 3b
        E 16 b1 0b 44
        E 16 b1 0b 3b
        E 16 b1 0b 33
        E 16 b1 0b 2a
        E 16 b1 0b 22
        E 0 81 33 00
        E 0 91 37 22
        E 16 b1 0b 2a
        E 16 b1 0b 33
        E 16 b1 0b 3b
        E 16 b1 0b 44
        E 16 b1 0b 3b
        E 16 b1 0b 33
        E 16 b1 0b 2a
        E 16 b1 0b 22
        E 640 81 37 00
        E 0 91 35 22
        E 16 b1 0b 2a
        E 16 b1 0b 33
        E 16 b1 0b 3b
        E 16 b1 0b 44
        E 16 b1 0b 3b
        E 16 b1 0b 33
        E 16 b1 0b 2a
        E 16 b1 0b 22
        E 640 81 35 00
        E 0 91 33 22
        E 16 b1 0b 2a
        E 16 b1 0b 33
        E 16 b1 0b 3b
        E 16 b1 0b 44
        E 16 b1 0b 3b
        E 16 b1 0b 33
        E 16 b1 0b 2a
        E 16 b1 0b 22
        E 16 b1 0b 2a
        E 16 b1 0b 33
        E 16 b1 0b 3b
        E 16 b1 0b 44
        E 16 b1 0b 3b
        E 16 b1 0b 33
        E 16 b1 0b 2a
        E 16 b1 0b 22
        E 16 b1 0b 2a
        E 16 b1 0b 33
        E 16 b1 0b 3b
        E 16 b1 0b 44
        E 16 b1 0b 3b
        E 16 b1 0b 33
        E 16 b1 0b 2a
        E 16 b1 0b 22
        E 0 81 33 00
        E 0 91 38 22
        E 16 b1 0b 2a
        E 16 b1 0b 33
        E 16 b1 0b 3b
        E 16 b1 0b 44
        E 16 b1 0b 3b
        E 16 b1 0b 33
        E 16 b1 0b 2a
        E 16 81 38 00
        E 128 b1 0b 22
        E 0 91 30 22
        E 16 b1 0b 2a
        E 16 b1 0b 33
        E 16 b1 0b 3b
        E 16 b1 0b 44
        E 16 b1 0b 3b
        E 16 b1 0b 33
        E 16 b1 0b 2a
        E 16 b1 0b 22
        E 0 81 30 00
        E 0 91 33 22
        E 16 b1 0b 2a
        E 16 b1 0b 33
        E 16 b1 0b 3b
        E 16 b1 0b 44
        E 16 b1 0b 3b
        E 16 b1 0b 33
        E 16 b1 0b 2a
        E 16 b1 0b 22
        E 272 b1 0b 2a
        E 16 b1 0b 33
        E 16 b1 0b 3b
        E 16 b1 0b 44
        E 16 b1 0b 3b
        E 16 b1 0b 33
        E 16 b1 0b 2a
        E 16 b1 0b 22
        E 0 81 33 00
        E 0 91 38 22
        E 16 b1 0b 2a
        E 16 b1 0b 33
        E 16 b1 0b 3b
        E 16 b1 0b 44
        E 16 b1 0b 3b
        E 16 b1 0b 33
        E 16 b1 0b 2a
        E 16 b1 0b 22
        E 0 81 38 00
        E 0 91 30 22
        E 16 b1 0b 2a
        E 16 b1 0b 33
        E 16 b1 0b 3b
        E 16 b1 0b 44
        E 16 b1 0b 3b
        E 16 b1 0b 33
        E 16 b1 0b 2a
        E 16 b1 0b 22
        E 0 81 30 00
        E 0 91 3a 22
        E 16 b1 0b 2a
        E 16 b1 0b 33
        E 16 b1 0b 3b
        E 16 b1 0b 44
        E 16 b1 0b 3b
        E 16 b1 0b 33
        E 16 b1 0b 2a
        E 16 b1 0b 22
        E 640 81 3a 00
        E 0 91 3d 22
        E 16 b1 0b 2a
        E 16 b1 0b 33
        E 16 b1 0b 3b
        E 16 b1 0b 44
        E 16 b1 0b 3b
        E 16 b1 0b 33
        E 16 b1 0b 2a
        E 16 b1 0b 22
        E 640 81 3d 00
        E 0 91 2c 22
        E 16 b1 0b 2a
        E 16 b1 0b 33
        E 16 b1 0b 3b
        E 16 b1 0b 44
        E 16 b1 0b 3b
        E 16 b1 0b 33
        E 16 b1 0b 2a
        E 16 b1 0b 22
        E 16 b1 0b 2a
        E 16 b1 0b 33
        E 16 b1 0b 3b
        E 16 b1 0b 44
        E 16 b1 0b 3b
        E 16 b1 0b 33
        E 16 b1 0b 2a
        E 16 b1 0b 22
        E 16 b1 0b 2a
        E 16 b1 0b 33
        E 16 b1 0b 3b
        E 16 b1 0b 44
        E 16 b1 0b 3b
        E 16 b1 0b 33
        E 16 b1 0b 2a
        E 16 b1 0b 22
        E 0 81 2c 00
        E 0 91 30 22
        E 16 b1 0b 2a
        E 16 b1 0b 33
        E 16 b1 0b 3b
        E 16 b1 0b 44
        E 16 b1 0b 3b
        E 16 b1 0b 33
        E 16 b1 0b 2a
        E 16 81 30 00
        E 128 b1 0b 22
        E 0 91 27 22
        E 16 b1 0b 2a
        E 16 b1 0b 33
        E 16 b1 0b 3b
        E 16 b1 0b 44
        E 16 b1 0b 3b
        E 16 b1 0b 33
        E 16 b1 0b 2a
        E 16 b1 0b 22
        E 0 81 27 00
        E 0 91 2c 22
        E 16 b1 0b 2a
        E 16 b1 0b 33
        E 16 b1 0b 3b
        E 16 b1 0b 44
        E 16 b1 0b 3b
        E 16 b1 0b 33
        E 16 b1 0b 2a
        E 16 b1 0b 22
        E 272 b1 0b 2a
        E 16 b1 0b 33
        E 16 b1 0b 3b
        E 16 b1 0b 44
        E 16 b1 0b 3b
        E 16 b1 0b 33
        E 16 b1 0b 2a
        E 16 b1 0b 22
        E 0 81 2c 00
        E 0 91 30 22
        E 16 b1 0b 2a
        E 16 b1 0b 33
        E 16 b1 0b 3b
        E 16 b1 0b 44
        E 16 b1 0b 3b
        E 16 b1 0b 33
        E 16 b1 0b 2a
        E 16 b1 0b 22
        E 0 81 30 00
        E 0 91 33 22
        E 16 b1 0b 2a
        E 16 b1 0b 33
        E 16 b1 0b 3b
        E 16 b1 0b 44
        E 16 b1 0b 3b
        E 16 b1 0b 33
        E 16 b1 0b 2a
        E 16 b1 0b 22
        E 0 81 33 00
        E 0 91 37 22
        E 16 b1 0b 2a
        E 16 b1 0b 33
        E 16 b1 0b 3b
        E 16 b1 0b 44
        E 16 b1 0b 3b
        E 16 b1 0b 33
        E 16 b1 0b 2a
        E 16 b1 0b 22
        E 640 81 37 00
        E 0 91 35 22
        E 16 b1 0b 2a
        E 16 b1 0b 33
        E 16 b1 0b 3b
        E 16 b1 0b 44
        E 16 b1 0b 3b
        E 16 b1 0b 33
        E 16 b1 0b 2a
        E 16 b1 0b 22
        E 640 81 35 00
        E 0 91 33 22
        E 16 b1 0b 2a
        E 16 b1 0b 33
        E 16 b1 0b 3b
        E 16 b1 0b 44
        E 16 b1 0b 3b
        E 16 b1 0b 33
        E 16 b1 0b 2a
        E 16 b1 0b 22
        E 16 b1 0b 2a
        E 16 b1 0b 33
        E 16 b1 0b 3b
        E 16 b1 0b 44
        E 16 b1 0b 3b
        E 16 b1 0b 33
        E 16 b1 0b 2a
        E 16 b1 0b 22
        E 16 b1 0b 2a
        E 16 b1 0b 33
        E 16 b1 0b 3b
        E 16 b1 0b 44
        E 16 b1 0b 3b
        E 16 b1 0b 33
        E 16 b1 0b 2a
        E 16 b1 0b 22
        E 0 81 33 00
        E 0 91 38 22
        E 16 b1 0b 2a
        E 16 b1 0b 33
        E 16 b1 0b 3b
        E 16 b1 0b 44
        E 16 b1 0b 3b
        E 16 b1 0b 33
        E 16 b1 0b 2a
        E 16 81 38 00
        E 128 b1 0b 22
        E 0 91 30 22
        E 16 b1 0b 2a
        E 16 b1 0b 33
        E 16 b1 0b 3b
        E 16 b1 0b 44
        E 16 b1 0b 3b
        E 16 b1 0b 33
        E 16 b1 0b 2a
        E 16 b1 0b 22
        E 0 81 30 00
        E 0 91 33 22
        E 16 b1 0b 2a
        E 16 b1 0b 33
        E 16 b1 0b 3b
        E 16 b1 0b 44
        E 16 b1 0b 3b
        E 16 b1 0b 33
        E 16 b1 0b 2a
        E 16 b1 0b 22
        E 272 b1 0b 2a
        E 16 b1 0b 33
        E 16 b1 0b 3b
        E 16 b1 0b 44
        E 16 b1 0b 3b
        E 16 b1 0b 33
        E 16 b1 0b 2a
        E 16 b1 0b 22
        E 0 81 33 00
        E 0 91 38 22
        E 16 b1 0b 2a
        E 16 b1 0b 33
        E 16 b1 0b 3b
        E 16 b1 0b 44
        E 16 b1 0b 3b
        E 16 b1 0b 33
        E 16 b1 0b 2a
        E 16 b1 0b 22
        E 0 81 38 00
        E 0 91 30 22
        E 16 b1 0b 2a
        E 16 b1 0b 33
        E 16 b1 0b 3b
        E 16 b1 0b 44
        E 16 b1 0b 3b
        E 16 b1 0b 33
        E 16 b1 0b 2a
        E 16 b1 0b 22
        E 0 81 30 00
        E 0 91 3a 22
        E 16 b1 0b 2a
        E 16 b1 0b 33
        E 16 b1 0b 3b
        E 16 b1 0b 44
        E 16 b1 0b 3b
        E 16 b1 0b 33
        E 16 b1 0b 2a
        E 16 b1 0b 22
        E 640 81 3a 00
        E 0 91 3d 22
        E 16 b1 0b 2a
        E 16 b1 0b 33
        E 16 b1 0b 3b
        E 16 b1 0b 44
        E 16 b1 0b 3b
        E 16 b1 0b 33
        E 16 b1 0b 2a
        E 16 b1 0b 22
        E 640 81 3d 00
        E 0 91 38 22
        E 16 b1 0b 2a
        E 16 b1 0b 33
        E 16 b1 0b 3b
        E 16 b1 0b 44
        E 16 b1 0b 3b
        E 16 b1 0b 33
        E 16 b1 0b 2a
        E 16 81 38 00
        E 128 b1 0b 22
        E 0 91 38 22
        E 16 b1 0b 2a
        E 16 b1 0b 33
        E 16 b1 0b 3b
        E 16 b1 0b 44
        E 16 b1 0b 3b
        E 16 b1 0b 33
        E 16 b1 0b 2a
        E 16 b1 0b 22
        E 0 81 38 00
        E 0 91 3a 22
        E 16 b1 0b 2a
        E 16 b1 0b 33
        E 16 b1 0b 3b
        E 16 b1 0b 44
        E 16 b1 0b 3b
        E 16 b1 0b 33
        E 16 b1 0b 2a
        E 16 b1 0b 22
        E 256 81 3a 00
        E 0 91 3c 22
        E 16 b1 0b 2a
        E 16 b1 0b 33
        E 16 b1 0b 3b
        E 16 b1 0b 44
        E 16 b1 0b 3b
        E 16 b1 0b 33
        E 16 b1 0b 2a
        E 16 b1 0b 22
        E 256 81 3c 00
        E 0 91 3d 22
        E 16 b1 0b 2a
        E 16 b1 0b 33
        E 16 b1 0b 3b
        E 16 b1 0b 44
        E 16 b1 0b 3b
        E 16 b1 0b 33
        E 16 b1 0b 2a
        E 16 b1 0b 22
        E 256 81 3d 00
        E 0 91 3f 22
        E 16 b1 0b 2a
        E 16 b1 0b 33
        E 16 b1 0b 3b
        E 16 b1 0b 44
        E 16 b1 0b 3b
        E 16 b1 0b 33
        E 16 b1 0b 2a
        E 16 b1 0b 22
        E 1040 b1 0b 2a
        E 16 b1 0b 33
        E 16 b1 0b 3b
        E 16 b1 0b 44
        E 16 b1 0b 3b
        E 16 b1 0b 33
        E 16 b1 0b 2a
        E 16 b1 0b 22
        E 0 81 3f 00
        E 0 91 3b 22
        E 16 b1 0b 2a
        E 16 b1 0b 33
        E 16 b1 0b 3b
        E 16 b1 0b 44
        E 16 b1 0b 3b
        E 16 b1 0b 33
        E 16 b1 0b 2a
        E 16 b1 0b 22
        E 0 81 3b 00
        E 0 91 3f 22
        E 16 b1 0b 2a
        E 16 b1 0b 33
        E 16 b1 0b 3b
        E 16 b1 0b 44
        E 16 b1 0b 3b
        E 16 b1 0b 33
        E 16 b1 0b 2a
        E 16 b1 0b 22
        E 0 81 3f 00
        E 0 91 3c 22
        E 16 b1 0b 2a
        E 16 b1 0b 33
        E 16 b1 0b 3b
        E 16 b1 0b 44
        E 16 b1 0b 3b
        E 16 b1 0b 33
        E 16 b1 0b 2a
        E 16 b1 0b 22
        E 1024 81 3c 00
        E 384 91 38 22
        E 16 b1 0b 2a
        E 16 b1 0b 33
        E 16 b1 0b 3b
        E 16 b1 0b 44
        E 16 b1 0b 3b
        E 16 b1 0b 33
        E 16 b1 0b 2a
        E 16 81 38 00
        E 128 b1 0b 22
        E 0 91 38 22
        E 16 b1 0b 2a
        E 16 b1 0b 33
        E 16 b1 0b 3b
        E 16 b1 0b 44
        E 16 b1 0b 3b
        E 16 b1 0b 33
        E 16 b1 0b 2a
        E 16 b1 0b 22
        E 0 81 38 00
        E 0 91 3a 22
        E 16 b1 0b 2a
        E 16 b1 0b 33
        E 16 b1 0b 3b
        E 16 b1 0b 44
        E 16 b1 0b 3b
        E 16 b1 0b 33
        E 16 b1 0b 2a
        E 16 b1 0b 22
        E 256 81 3a 00
        E 0 91 3c 22
        E 16 b1 0b 2a
        E 16 b1 0b 33
        E 16 b1 0b 3b
        E 16 b1 0b 44
        E 16 b1 0b 3b
        E 16 b1 0b 33
        E 16 b1 0b 2a
        E 16 b1 0b 22
        E 256 81 3c 00
        E 0 91 3d 22
        E 16 b1 0b 2a
        E 16 b1 0b 33
        E 16 b1 0b 3b
        E 16 b1 0b 44
        E 16 b1 0b 3b
        E 16 b1 0b 33
        E 16 b1 0b 2a
        E 16 b1 0b 22
        E 256 81 3d 00
        E 0 91 3f 22
        E 16 b1 0b 2a
        E 16 b1 0b 33
        E 16 b1 0b 3b
        E 16 b1 0b 44
        E 16 b1 0b 3b
        E 16 b1 0b 33
        E 16 b1 0b 2a
        E 16 b1 0b 22
        E 1040 b1 0b 2a
        E 16 b1 0b 33
        E 16 b1 0b 3b
        E 16 b1 0b 44
        E 16 b1 0b 3b
        E 16 b1 0b 33
        E 16 b1 0b 2a
        E 16 b1 0b 22
        E 0 81 3f 00
        E 0 91 3b 22
        E 16 b1 0b 2a
        E 16 b1 0b 33
        E 16 b1 0b 3b
        E 16 b1 0b 44
        E 16 b1 0b 3b
        E 16 b1 0b 33
        E 16 b1 0b 2a
        E 16 b1 0b 22
        E 0 81 3b 00
        E 0 91 3f 22
        E 16 b1 0b 2a
        E 16 b1 0b 33
        E 16 b1 0b 3b
        E 16 b1 0b 44
        E 16 b1 0b 3b
        E 16 b1 0b 33
        E 16 b1 0b 2a
        E 16 b1 0b 22
        E 0 81 3f 00
        E 0 91 3c 22
        E 16 b1 0b 2a
        E 16 b1 0b 33
        E 16 b1 0b 3b
        E 16 b1 0b 44
        E 16 b1 0b 3b
        E 16 b1 0b 33
        E 16 b1 0b 2a
        E 16 b1 0b 22
        E 1024 81 3c 00
        E 0 91 38 22
        E 16 b1 0b 2a
        E 16 b1 0b 33
        E 16 b1 0b 3b
        E 16 b1 0b 44
        E 16 b1 0b 3b
        E 16 b1 0b 33
        E 16 b1 0b 2a
        E 16 b1 0b 22
        E 0 81 38 00
        E 0 91 3c 22
        E 16 b1 0b 2a
        E 16 b1 0b 33
        E 16 b1 0b 3b
        E 16 b1 0b 44
        E 16 b1 0b 3b
        E 16 b1 0b 33
        E 16 b1 0b 2a
        E 16 b1 0b 22
        E 0 81 3c 00
        E 0 91 3d 22
        E 16 b1 0b 2a
        E 16 b1 0b 33
        E 16 b1 0b 3b
        E 16 b1 0b 44
        E 16 b1 0b 3b
        E 16 b1 0b 33
        E 16 b1 0b 2a
        E 16 b1 0b 22
        E 0 81 3d 00
        E 0 91 3f 22
        E 16 b1 0b 2a
        E 16 b1 0b 33
        E 16 b1 0b 3b
        E 16 b1 0b 44
        E 16 b1 0b 3b
        E 16 b1 0b 33
        E 16 b1 0b 2a
        E 16 b1 0b 22
        E 1024 81 3f 00
        E 0 91 3d 22
        E 16 b1 0b 2a
        E 16 b1 0b 33
        E 16 b1 0b 3b
        E 16 b1 0b 44
        E 16 b1 0b 3b
        E 16 b1 0b 33
        E 16 b1 0b 2a
        E 16 b1 0b 22
        E 160 81 3d 00
        E 0 91 3c 22
        E 16 b1 0b 2a
        E 16 b1 0b 33
        E 16 b1 0b 3b
        E 16 b1 0b 44
        E 16 b1 0b 3b
        E 16 b1 0b 22
        E 0 81 3c 00
        E 0 91 3d 22
        E 16 b1 0b 2a
        E 16 b1 0b 33
        E 16 b1 0b 3b
        E 16 b1 0b 44
        E 16 b1 0b 3b
        E 16 b1 0b 33
        E 16 b1 0b 2a
        E 16 b1 0b 22
        E 640 81 3d 00
        E 0 91 38 22
        E 16 b1 0b 2a
        E 16 b1 0b 33
        E 16 b1 0b 3b
        E 16 b1 0b 44
        E 16 b1 0b 3b
        E 16 b1 0b 33
        E 16 b1 0b 2a
        E 16 b1 0b 22
        E 256 81 38 00
        E 0 91 3a 22
        E 16 b1 0b 2a
        E 16 b1 0b 33
        E 16 b1 0b 3b
        E 16 b1 0b 44
        E 16 b1 0b 3b
        E 16 b1 0b 33
        E 16 b1 0b 2a
        E 16 b1 0b 22
        E 256 81 3a 00
        E 0 91 3c 22
        E 16 b1 0b 2a
        E 16 b1 0b 33
        E 16 b1 0b 3b
        E 16 b1 0b 44
        E 16 b1 0b 3b
        E 16 b1 0b 33
        E 16 b1 0b 2a
        E 16 b1 0b 22
        E 256 81 3c 00
        E 0 91 3d 22
        E 16 b1 0b 2a
        E 16 b1 0b 33
        E 16 b1 0b 3b
        E 16 b1 0b 44
        E 16 b1 0b 3b
        E 16 b1 0b 33
        E 16 b1 0b 2a
        E 16 b1 0b 22
        E 160 81 3d 00
        E 0 91 3c 22
        E 16 b1 0b 2a
        E 16 b1 0b 33
        E 16 b1 0b 3b
        E 16 b1 0b 44
        E 16 b1 0b 3b
        E 16 b1 0b 22
        E 0 81 3c 00
        E 0 91 3a 22
        E 16 b1 0b 2a
        E 16 b1 0b 33
        E 16 b1 0b 3b
        E 16 b1 0b 44
        E 16 b1 0b 3b
        E 16 b1 0b 33
        E 16 b1 0b 2a
        E 16 b1 0b 22
        E 256 81 3a 00
        E 0 91 38 22
        E 16 b1 0b 2a
        E 16 b1 0b 33
        E 16 b1 0b 3b
        E 16 b1 0b 44
        E 16 b1 0b 3b
        E 16 b1 0b 33
        E 16 b1 0b 2a
        E 16 b1 0b 22
        E 272 b1 0b 2a
        E 16 b1 0b 33
        E 16 b1 0b 3b
        E 16 b1 0b 44
        E 16 b1 0b 3b
        E 16 b1 0b 33
        E 16 b1 0b 2a
        E 16 b1 0b 22
        E 256 81 38 00
        E 0 91 37 22
        E 16 b1 0b 2a
        E 16 b1 0b 33
        E 16 b1 0b 3b
        E 16 b1 0b 44
        E 16 b1 0b 3b
        E 16 b1 0b 33
        E 16 b1 0b 2a
        E 16 b1 0b 22
        E 256 81 37 00
        E 0 91 35 22
        E 16 b1 0b 2a
        E 16 b1 0b 33
        E 16 b1 0b 3b
        E 16 b1 0b 44
        E 16 b1 0b 3b
        E 16 b1 0b 33
        E 16 b1 0b 2a
        E 16 b1 0b 22
        E 256 81 35 00
        E 0 91 37 22
        E 16 b1 0b 2a
        E 16 b1 0b 33
        E 16 b1 0b 3b
        E 16 b1 0b 44
        E 16 b1 0b 3b
        E 16 b1 0b 33
        E 16 b1 0b 2a
        E 16 b1 0b 22
        E 256 81 37 00
        E 0 91 38 22
        E 16 b1 0b 2a
        E 16 b1 0b 33
        E 16 b1 0b 3b
        E 16 b1 0b 44
        E 16 b1 0b 3b
        E 16 b1 0b 33
        E 16 b1 0b 2a
        E 16 b1 0b 22
        E 0 81 38 00
        E 0 91 33 22
        E 16 b1 0b 2a
        E 16 b1 0b 33
        E 16 b1 0b 3b
        E 16 b1 0b 44
        E 16 b1 0b 3b
        E 16 b1 0b 33
        E 16 b1 0b 2a
        E 16 b1 0b 22
        E 0 81 33 00
        E 0 91 38 22
        E 16 b1 0b 2a
        E 16 b1 0b 33
        E 16 b1 0b 3b
        E 16 b1 0b 44
        E 16 b1 0b 3b
        E 16 b1 0b 33
        E 16 b1 0b 2a
        E 16 b1 0b 22
        E 0 81 38 00
        E 0 91 3c 22
        E 16 b1 0b 2a
        E 16 b1 0b 33
        E 16 b1 0b 3b
        E 16 b1 0b 44
        E 16 b1 0b 3b
        E 16 b1 0b 33
        E 16 b1 0b 2a
        E 16 b1 0b 22
        E 0 81 3c 00
        E 0 91 38 22
        E 16 b1 0b 2a
        E 16 b1 0b 33
        E 16 b1 0b 3b
        E 16 b1 0b 44
        E 16 b1 0b 3b
        E 16 b1 0b 33
        E 16 b1 0b 2a
        E 16 b1 0b 22
        E 0 81 38 00
        E 0 91 3c 22
        E 16 b1 0b 2a
        E 16 b1 0b 33
        E 16 b1 0b 3b
        E 16 b1 0b 44
        E 16 b1 0b 3b
        E 16 b1 0b 33
        E 16 b1 0b 2a
        E 16 b1 0b 22
        E 0 81 3c 00
        E 0 91 3f 22
        E 16 b1 0b 2a
        E 16 b1 0b 33
        E 16 b1 0b 3b
        E 16 b1 0b 44
        E 16 b1 0b 3b
        E 16 b1 0b 33
        E 16 b1 0b 2a
        E 16 81 3f 00
        E 256 b1 0b 22
        E 0 91 3c 22
        E 16 b1 0b 2a
        E 16 b1 0b 33
        E 16 b1 0b 3b
        E 16 b1 0b 44
        E 16 b1 0b 3b
        E 16 b1 0b 33
        E 16 b1 0b 2a
        E 16 81 3c 00
        E 128 b1 0b 22
        E 0 91 38 22
        E 16 b1 0b 2a
        E 16 b1 0b 33
        E 16 b1 0b 3b
        E 16 b1 0b 44
        E 16 b1 0b 3b
        E 16 b1 0b 33
        E 16 b1 0b 2a
        E 16 b1 0b 22
        E 0 81 38 00
        E 0 91 3d 22
        E 16 b1 0b 2a
        E 16 b1 0b 33
        E 16 b1 0b 3b
        E 16 b1 0b 44
        E 16 b1 0b 3b
        E 16 b1 0b 33
        E 16 b1 0b 2a
        E 16 b1 0b 22
        E 256 81 3d 00
        E 0 91 3c 22
        E 16 b1 0b 2a
        E 16 b1 0b 33
        E 16 b1 0b 3b
        E 16 b1 0b 44
        E 16 b1 0b 3b
        E 16 b1 0b 33
        E 16 b1 0b 2a
        E 16 b1 0b 22
        E 160 81 3c 00
        E 0 91 3a 22
        E 16 b1 0b 2a
        E 16 b1 0b 33
        E 16 b1 0b 3b
        E 16 b1 0b 44
        E 16 b1 0b 3b
        E 16 b1 0b 22
        E 0 81 3a 00
        E 0 91 38 22
        E 16 b1 0b 2a
        E 16 b1 0b 33
        E 16 b1 0b 3b
        E 16 b1 0b 44
        E 16 b1 0b 3b
        E 16 b1 0b 33
        E 16 b1 0b 2a
        E 16 b1 0b 22
        E 256 81 38 00
        E 0 91 3a 22
        E 16 b1 0b 2a
        E 16 b1 0b 33
        E 16 b1 0b 3b
        E 16 b1 0b 44
        E 16 b1 0b 3b
        E 16 b1 0b 33
        E 16 b1 0b 2a
        E 16 b1 0b 22
        E 256 81 3a 00
        E 0 91 38 22
        E 16 b1 0b 2a
        E 16 b1 0b 33
        E 16 b1 0b 3b
        E 16 b1 0b 44
        E 16 b1 0b 3b
        E 16 b1 0b 33
        E 16 b1 0b 2a
        E 16 b1 0b 22
        E 1424 b1 0b 2a
        E 16 b1 0b 33
        E 16 b1 0b 3b
        E 16 b1 0b 44
        E 16 b1 0b 3b
        E 16 b1 0b 33
        E 16 b1 0b 2a
        E 16 b1 0b 22
        E 1392 81 38 00
        E 0 b1 7b 00
        E 0 ff 2f 00
      >
    >
  >
  <TRACK {3C310169-B02D-4B1C-AC7A-66F3790C7D9B}
    NAME "NES - Triangle [ch2]"
    PEAKCOL 16744192
    BEAT -1
    AUTOMODE 0
    PANLAWFLAGS 3
    VOLPAN 1 0 -1 -1 1
    MUTESOLO 0 0 0
    IPHASE 0
    PLAYOFFS 0 1
    ISBUS 0 0
    BUSCOMP 0 0 0 0 0
    SHOWINMIX 1 0.6667 0.5 1 0.5 0 0 0
    FIXEDLANES 9 0 0 0 0
    SEL 0
    REC 0 5088 1 0 0 0 0 0
    VU 2
    TRACKHEIGHT 0 0 0 0 0 0 0
    INQ 0 0 0 0.5 100 0 0 100
    NCHAN 2
    FX 1
    TRACKID {3C310169-B02D-4B1C-AC7A-66F3790C7D9B}
    PERF 0
    MIDIOUT -1
    MAINSEND 1 0
    <FXCHAIN
      WNDRECT 24 52 700 560
      SHOW 0
      LASTSEL 0
      DOCKED 0
      BYPASS 0 0 0
      <JS "ReapNES Studio/ReapNES_Console.jsfx" ""
        2 15 1 10 80 10 100 2 1 15 1 5 60 10 80 1 1 0 50 0 0 15 1 0 100 0 0 0.500000 0.500000 0.400000 0.300000 0.800000 2 1 0 0 0 0 - - - - - - - - - - - - - - - - - - - - - - - - - -
      >
      FLOATPOS 0 0 0 0
      FXID {D32F7E6B-4BDE-495B-90C0-4211BE347B50}
      WAK 0 0
    >
    <ITEM
      POSITION 0
      LENGTH 71.6640768
      LOOP 0
      ALLTAKES 0
      FADEIN 0 0 0 0 0 0 0
      FADEOUT 0 0 0 0 0 0 0
      MUTE 0 0
      SEL 0
      IGUID {852B0E00-8D10-46DD-B3FF-152B06BACCED}
      <SOURCE MIDI
        HASDATA 1 480 QN
        CCINTERP 32
        E 0 c2 26
        E 0 b2 0b 7f
        E 0 92 20 7f
        E 12288 82 20 00
        E 0 b2 0b 7f
        E 0 92 2c 7f
        E 128 82 2c 00
        E 128 b2 0b 7f
        E 0 92 2c 7f
        E 128 82 2c 00
        E 0 b2 0b 7f
        E 0 92 2b 7f
        E 384 82 2b 00
        E 0 b2 0b 7f
        E 0 92 2a 7f
        E 384 82 2a 00
        E 0 b2 0b 7f
        E 0 92 29 7f
        E 384 82 29 00
        E 0 b2 0b 7f
        E 0 92 1c 7f
        E 1536 82 1c 00
        E 0 b2 0b 7f
        E 0 92 20 7f
        E 1152 82 20 00
        E 384 b2 0b 7f
        E 0 92 2c 7f
        E 128 82 2c 00
        E 128 b2 0b 7f
        E 0 92 2c 7f
        E 128 82 2c 00
        E 0 b2 0b 7f
        E 0 92 2b 7f
        E 384 82 2b 00
        E 0 b2 0b 7f
        E 0 92 2a 7f
        E 384 82 2a 00
        E 0 b2 0b 7f
        E 0 92 29 7f
        E 384 82 29 00
        E 0 b2 0b 7f
        E 0 92 1c 7f
        E 1536 82 1c 00
        E 0 b2 0b 7f
        E 0 92 20 7f
        E 1152 82 20 00
        E 384 b2 0b 7f
        E 0 92 1e 7f
        E 512 82 1e 00
        E 128 b2 0b 7f
        E 0 92 1e 7f
        E 640 82 1e 00
        E 128 b2 0b 7f
        E 0 92 1e 7f
        E 128 82 1e 00
        E 0 b2 0b 7f
        E 0 92 1d 7f
        E 512 82 1d 00
        E 128 b2 0b 7f
        E 0 92 1d 7f
        E 640 82 1d 00
        E 128 b2 0b 7f
        E 0 92 1d 7f
        E 128 82 1d 00
        E 0 b2 0b 7f
        E 0 92 1b 7f
        E 128 82 1b 00
        E 128 b2 0b 7f
        E 0 92 1b 7f
        E 256 82 1b 00
        E 128 b2 0b 7f
        E 0 92 1b 7f
        E 128 82 1b 00
        E 0 b2 0b 7f
        E 0 92 1a 7f
        E 128 82 1a 00
        E 128 b2 0b 7f
        E 0 92 1a 7f
        E 256 82 1a 00
        E 128 b2 0b 7f
        E 0 92 1a 7f
        E 128 82 1a 00
        E 0 b2 0b 7f
        E 0 92 19 7f
        E 128 82 19 00
        E 128 b2 0b 7f
        E 0 92 19 7f
        E 256 82 19 00
        E 128 b2 0b 7f
        E 0 92 19 7f
        E 128 82 19 00
        E 0 b2 0b 7f
        E 0 92 1b 7f
        E 768 82 1b 00
        E 0 b2 0b 7f
        E 0 92 20 7f
        E 768 82 20 00
        E 0 b2 0b 7f
        E 0 92 1e 7f
        E 768 82 1e 00
        E 0 b2 0b 7f
        E 0 92 1d 7f
        E 768 82 1d 00
        E 0 b2 0b 7f
        E 0 92 1b 7f
        E 768 82 1b 00
        E 0 b2 0b 7f
        E 0 92 25 7f
        E 1536 82 25 00
        E 0 b2 0b 7f
        E 0 92 24 7f
        E 1536 82 24 00
        E 0 b2 0b 7f
        E 0 92 22 7f
        E 384 82 22 00
        E 0 b2 0b 7f
        E 0 92 24 7f
        E 384 82 24 00
        E 0 b2 0b 7f
        E 0 92 25 7f
        E 384 82 25 00
        E 0 b2 0b 7f
        E 0 92 26 7f
        E 384 82 26 00
        E 0 b2 0b 7f
        E 0 92 1b 7f
        E 1552 82 1b 00
        E 0 b2 0b 7f
        E 0 92 20 7f
        E 15360 82 20 00
        E 0 b2 0b 7f
        E 0 92 2c 7f
        E 128 82 2c 00
        E 128 b2 0b 7f
        E 0 92 2c 7f
        E 128 82 2c 00
        E 0 b2 0b 7f
        E 0 92 2b 7f
        E 384 82 2b 00
        E 0 b2 0b 7f
        E 0 92 2a 7f
        E 384 82 2a 00
        E 0 b2 0b 7f
        E 0 92 29 7f
        E 384 82 29 00
        E 0 b2 0b 7f
        E 0 92 1c 7f
        E 1536 82 1c 00
        E 0 b2 0b 7f
        E 0 92 20 7f
        E 1152 82 20 00
        E 384 b2 0b 7f
        E 0 92 2c 7f
        E 128 82 2c 00
        E 128 b2 0b 7f
        E 0 92 2c 7f
        E 128 82 2c 00
        E 0 b2 0b 7f
        E 0 92 2b 7f
        E 384 82 2b 00
        E 0 b2 0b 7f
        E 0 92 2a 7f
        E 384 82 2a 00
        E 0 b2 0b 7f
        E 0 92 29 7f
        E 384 82 29 00
        E 0 b2 0b 7f
        E 0 92 1c 7f
        E 1536 82 1c 00
        E 0 b2 0b 7f
        E 0 92 20 7f
        E 1152 82 20 00
        E 384 b2 0b 7f
        E 0 92 1e 7f
        E 512 82 1e 00
        E 128 b2 0b 7f
        E 0 92 1e 7f
        E 640 82 1e 00
        E 128 b2 0b 7f
        E 0 92 1e 7f
        E 128 82 1e 00
        E 0 b2 0b 7f
        E 0 92 1d 7f
        E 512 82 1d 00
        E 128 b2 0b 7f
        E 0 92 1d 7f
        E 640 82 1d 00
        E 128 b2 0b 7f
        E 0 92 1d 7f
        E 128 82 1d 00
        E 0 b2 0b 7f
        E 0 92 1b 7f
        E 128 82 1b 00
        E 128 b2 0b 7f
        E 0 92 1b 7f
        E 256 82 1b 00
        E 128 b2 0b 7f
        E 0 92 1b 7f
        E 128 82 1b 00
        E 0 b2 0b 7f
        E 0 92 1a 7f
        E 128 82 1a 00
        E 128 b2 0b 7f
        E 0 92 1a 7f
        E 256 82 1a 00
        E 128 b2 0b 7f
        E 0 92 1a 7f
        E 128 82 1a 00
        E 0 b2 0b 7f
        E 0 92 19 7f
        E 128 82 19 00
        E 128 b2 0b 7f
        E 0 92 19 7f
        E 256 82 19 00
        E 128 b2 0b 7f
        E 0 92 19 7f
        E 128 82 19 00
        E 0 b2 0b 7f
        E 0 92 1b 7f
        E 768 82 1b 00
        E 0 b2 0b 7f
        E 0 92 20 7f
        E 768 82 20 00
        E 0 b2 0b 7f
        E 0 92 1e 7f
        E 768 82 1e 00
        E 0 b2 0b 7f
        E 0 92 1d 7f
        E 768 82 1d 00
        E 0 b2 0b 7f
        E 0 92 1b 7f
        E 768 82 1b 00
        E 0 b2 0b 7f
        E 0 92 25 7f
        E 1536 82 25 00
        E 0 b2 0b 7f
        E 0 92 24 7f
        E 1520 82 24 00
        E 0 b2 7b 00
        E 0 ff 2f 00
      >
    >
  >
  <TRACK {9E62E195-030F-41B6-9F62-0B9B3A3EE525}
    NAME "NES - Noise / Drums [ch3]"
    PEAKCOL 11184810
    BEAT -1
    AUTOMODE 0
    PANLAWFLAGS 3
    VOLPAN 1 0 -1 -1 1
    MUTESOLO 0 0 0
    IPHASE 0
    PLAYOFFS 0 1
    ISBUS 0 0
    BUSCOMP 0 0 0 0 0
    SHOWINMIX 1 0.6667 0.5 1 0.5 0 0 0
    FIXEDLANES 9 0 0 0 0
    SEL 0
    REC 0 5088 1 0 0 0 0 0
    VU 2
    TRACKHEIGHT 0 0 0 0 0 0 0
    INQ 0 0 0 0.5 100 0 0 100
    NCHAN 2
    FX 1
    TRACKID {9E62E195-030F-41B6-9F62-0B9B3A3EE525}
    PERF 0
    MIDIOUT -1
    MAINSEND 1 0
    <FXCHAIN
      WNDRECT 24 52 700 560
      SHOW 0
      LASTSEL 0
      DOCKED 0
      BYPASS 0 0 0
      <JS "ReapNES Studio/ReapNES_Console.jsfx" ""
        2 15 1 10 80 10 100 2 1 15 1 5 60 10 80 1 1 0 50 0 0 15 1 0 100 0 0 0.500000 0.500000 0.400000 0.300000 0.800000 3 1 0 0 0 0 - - - - - - - - - - - - - - - - - - - - - - - - - -
      >
      FLOATPOS 0 0 0 0
      FXID {8CC4F120-222D-40E3-86DC-B0DA4E11434C}
      WAK 0 0
    >
    <ITEM
      POSITION 0
      LENGTH 71.6640768
      LOOP 0
      ALLTAKES 0
      FADEIN 0 0 0 0 0 0 0
      FADEOUT 0 0 0 0 0 0 0
      MUTE 0 0
      SEL 0
      IGUID {B7BF4CFB-0790-4844-BA84-30EF2A98D179}
      <SOURCE MIDI
        HASDATA 1 480 QN
        CCINTERP 32
        E 0 93 2a 33
        E 21632 83 2a 00
        E 128 93 2a 33
        E 128 83 2a 00
        E 0 93 2a 11
        E 384 83 2a 00
        E 0 93 2a 33
        E 128 83 2a 00
        E 128 93 2a 33
        E 128 83 2a 00
        E 0 93 2a 11
        E 384 83 2a 00
        E 0 93 2a 33
        E 128 83 2a 00
        E 128 93 2a 33
        E 128 83 2a 00
        E 0 93 2a 11
        E 384 83 2a 00
        E 0 93 2a 33
        E 128 83 2a 00
        E 128 93 2a 33
        E 128 83 2a 00
        E 0 93 2a 11
        E 384 83 2a 00
        E 0 93 2a 33
        E 128 83 2a 00
        E 128 93 2a 33
        E 128 83 2a 00
        E 0 93 2a 11
        E 384 83 2a 00
        E 0 93 2a 33
        E 128 83 2a 00
        E 128 93 2a 33
        E 128 83 2a 00
        E 0 93 2a 11
        E 384 83 2a 00
        E 0 93 2a 33
        E 128 83 2a 00
        E 128 93 2a 33
        E 128 83 2a 00
        E 0 93 2a 11
        E 384 83 2a 00
        E 0 93 2a 33
        E 128 83 2a 00
        E 128 93 2a 33
        E 128 83 2a 00
        E 0 93 2a 11
        E 384 83 2a 00
        E 0 93 2a 33
        E 768 83 2a 00
        E 0 93 2a 11
        E 384 83 2a 00
        E 0 93 2a 33
        E 1152 83 2a 00
        E 0 93 2a 11
        E 384 83 2a 00
        E 0 93 2a 33
        E 1152 83 2a 00
        E 0 93 2a 11
        E 384 83 2a 00
        E 0 93 2a 33
        E 1152 83 2a 00
        E 0 93 2a 11
        E 384 83 2a 00
        E 0 93 2a 33
        E 1152 83 2a 00
        E 0 93 2a 11
        E 384 83 2a 00
        E 0 93 2a 33
        E 1152 83 2a 00
        E 0 93 2a 11
        E 384 83 2a 00
        E 0 93 2a 33
        E 25104 83 2a 00
        E 128 93 2a 33
        E 128 83 2a 00
        E 0 93 2a 11
        E 384 83 2a 00
        E 0 93 2a 33
        E 128 83 2a 00
        E 128 93 2a 33
        E 128 83 2a 00
        E 0 93 2a 11
        E 384 83 2a 00
        E 0 93 2a 33
        E 128 83 2a 00
        E 128 93 2a 33
        E 128 83 2a 00
        E 0 93 2a 11
        E 384 83 2a 00
        E 0 93 2a 33
        E 128 83 2a 00
        E 128 93 2a 33
        E 128 83 2a 00
        E 0 93 2a 11
        E 384 83 2a 00
        E 0 93 2a 33
        E 128 83 2a 00
        E 128 93 2a 33
        E 128 83 2a 00
        E 0 93 2a 11
        E 384 83 2a 00
        E 0 93 2a 33
        E 128 83 2a 00
        E 128 93 2a 33
        E 128 83 2a 00
        E 0 93 2a 11
        E 384 83 2a 00
        E 0 93 2a 33
        E 128 83 2a 00
        E 128 93 2a 33
        E 128 83 2a 00
        E 0 93 2a 11
        E 384 83 2a 00
        E 0 93 2a 33
        E 128 83 2a 00
        E 128 93 2a 33
        E 128 83 2a 00
        E 0 93 2a 11
        E 384 83 2a 00
        E 0 93 2a 33
        E 768 83 2a 00
        E 0 93 2a 11
        E 384 83 2a 00
        E 0 93 2a 33
        E 1152 83 2a 00
        E 0 93 2a 11
        E 384 83 2a 00
        E 0 93 2a 33
        E 1152 83 2a 00
        E 0 93 2a 11
        E 384 83 2a 00
        E 0 93 2a 33
        E 1152 83 2a 00
        E 0 93 2a 11
        E 384 83 2a 00
        E 0 93 2a 33
        E 368 83 2a 00
        E 0 b3 7b 00
        E 0 ff 2f 00
      >
    >
  >
>