<REAPER_PROJECT 0.1 "7.27/win64" 1707000000
  <NOTES 0 2
    |ReapNES Studio Project
    |MIDI Import - Kid_Icarus_config05_rom_v1
  >
  RIPPLE 0
  GROUPOVERRIDE 0 0 0
  AUTOXFADE 129
  ENVATTACH 3
  POOLEDENVATTACH 0
  MIXERUIFLAGS 11 48
  ENVFADESZ10 40
  PEAKGAIN 1
  FEEDBACK 0
  PANLAW 1
  PROJOFFS 0 0 0
  MAXPROJLEN 0 0
  GRID 3199 8 1 8 1 0 0 0
  TIMEMODE 1 5 -1 30 0 0 -1
  VIDEO_CONFIG 0 0 65792
  PANMODE 3
  PANLAWFLAGS 3
  CURSOR 0
  ZOOM 100 0 0
  VZOOMEX 6 0
  USE_REC_CFG 0
  RECMODE 1
  SMPTESYNC 0 30 100 40 1000 300 0 0 1 0 0
  LOOP 0
  LOOPGRAN 0 4
  RECORD_PATH "Media" ""
  <RECORD_CFG
    ZXZhdxgAAQ==
  >
  <APPLYFX_CFG
  >
  RENDER_FILE ""
  RENDER_PATTERN ""
  RENDER_FMT 0 2 0
  RENDER_1X 0
  RENDER_RANGE 1 0 0 18 1000
  RENDER_RESAMPLE 3 0 1
  RENDER_ADDTOPROJ 0
  RENDER_STEMS 0
  RENDER_DITHER 0
  TIMELOCKMODE 1
  TEMPOENVLOCKMODE 1
  ITEMMIX 1
  DEFPITCHMODE 589824 0
  TAKELANE 1
  SAMPLERATE 44100 0 0
  <RENDER_CFG
    ZXZhdxgAAQ==
  >
  LOCK 1
  <METRONOME 6 2
    VOL 0.25 0.125
    BEATLEN 4
    FREQ 1760 880 1
    SAMPLES "" ""
    SPLIGNORE 0 0
    SPLDEF 2 660 "" 0
    SPLDEF 3 440 "" 0
    PATTERN 0 169
    PATTERNSTR ABBB
    MULT 1
  >
  GLOBAL_AUTO -1
  TEMPO 128.59999614200012 4 4
  PLAYRATE 1 0 0.25 4
  SELECTION 0 0
  SELECTION2 0 0
  MASTERAUTOMODE 0
  MASTERTRACKHEIGHT 0 0
  MASTERPEAKCOL 16576
  MASTERMUTESOLO 0
  MASTERTRACKVIEW 0 0.6667 0.5 0.5 0 0 0 0 0 0 0 0 0 0
  MASTERHWOUT 0 0 1 0 0 0 0 -1
  MASTER_NCH 2 2
  MASTER_VOLUME 1 0 -1 -1 1
  MASTER_PANMODE 3
  MASTER_PANLAWFLAGS 3
  MASTER_FX 1
  MASTER_SEL 0
  <MASTERPLAYSPEEDENV
    EGUID {15E03AB8-65CF-4007-85EC-9AFC02E399D2}
    ACT 0 -1
    VIS 0 1 1
    LANEHEIGHT 0 0
    ARM 0
    DEFSHAPE 0 -1 -1
  >
  <TEMPOENVEX
    EGUID {5B87CB9D-B7FD-467F-8565-B43A5EBC5B4A}
    ACT 1 -1
    VIS 1 0 1
    LANEHEIGHT 0 0
    ARM 0
    DEFSHAPE 1 -1 -1
  >
  <PROJBAY
  >
  <TRACK {58A47304-8F72-4A1A-8BDF-B428B53E7E97}
    NAME "NES - Pulse 1 [ch0]"
    PEAKCOL 16576606
    BEAT -1
    AUTOMODE 0
    PANLAWFLAGS 3
    VOLPAN 1 0 -1 -1 1
    MUTESOLO 0 0 0
    IPHASE 0
    PLAYOFFS 0 1
    ISBUS 0 0
    BUSCOMP 0 0 0 0 0
    SHOWINMIX 1 0.6667 0.5 1 0.5 0 0 0
    FIXEDLANES 9 0 0 0 0
    SEL 1
    REC 1 5088 1 0 0 0 0 0
    VU 2
    TRACKHEIGHT 0 0 0 0 0 0 0
    INQ 0 0 0 0.5 100 0 0 100
    NCHAN 2
    FX 1
    TRACKID {58A47304-8F72-4A1A-8BDF-B428B53E7E97}
    PERF 0
    MIDIOUT -1
    MAINSEND 1 0
    <FXCHAIN
      WNDRECT 24 52 700 560
      SHOW 0
      LASTSEL 0
      DOCKED 0
      BYPASS 0 0 0
      <JS "ReapNES Studio/ReapNES_Console.jsfx" ""
        2 15 1 10 80 10 100 2 1 15 1 5 60 10 80 1 1 0 50 0 0 15 1 0 100 0 0 0.500000 0.500000 0.400000 0.300000 0.800000 0 1 0 0 0 0 - - - - - - - - - - - - - - - - - - - - - - - - - -
      >
      FLOATPOS 0 0 0 0
      FXID {95A10B46-C4AE-4B85-B725-37D05394A07F}
      WAK 0 0
    >
    <ITEM
      POSITION 0
      LENGTH 74.65008
      LOOP 0
      ALLTAKES 0
      FADEIN 0 0 0 0 0 0 0
      FADEOUT 0 0 0 0 0 0 0
      MUTE 0 0
      SEL 0
      IGUID {C48B2FF7-7C91-446C-9C49-E1E16A3B149C}
      <SOURCE MIDI
        HASDATA 1 480 QN
        CCINTERP 32
        E 0 c0 50
        E 0 b0 0c 10
        E 0 b0 0b 08
        E 0 90 49 08
        E 16 b0 0b 11
        E 32 b0 0b 19
        E 32 b0 0b 22
        E 32 b0 0b 2a
        E 16 b0 0b 08
        E 0 80 49 00
        E 0 90 47 08
        E 16 b0 0b 11
        E 32 b0 0b 19
        E 32 b0 0b 22
        E 32 b0 0b 2a
        E 16 80 47 00
        E 128 b0 0b 08
        E 0 90 40 08
        E 16 b0 0b 11
        E 32 b0 0b 19
        E 32 b0 0b 22
        E 32 b0 0b 2a
        E 16 80 40 00
        E 128 b0 0b 08
        E 0 90 47 08
        E 16 b0 0b 11
        E 32 b0 0b 19
        E 32 b0 0b 22
        E 32 b0 0b 2a
        E 16 80 47 00
        E 128 b0 0b 08
        E 0 90 45 08
        E 16 b0 0b 11
        E 32 b0 0b 19
        E 32 b0 0b 22
        E 32 b0 0b 2a
        E 16 b0 0b 08
        E 0 80 45 00
        E 0 90 49 08
        E 16 b0 0b 11
        E 32 b0 0b 19
        E 32 b0 0b 22
        E 32 b0 0b 2a
        E 16 b0 0b 08
        E 0 80 49 00
        E 0 90 47 08
        E 16 b0 0b 11
        E 32 b0 0b 19
        E 32 b0 0b 22
        E 32 b0 0b 2a
        E 16 80 47 00
        E 128 b0 0b 08
        E 0 90 40 08
        E 16 b0 0b 11
        E 32 b0 0b 19
        E 32 b0 0b 22
        E 32 b0 0b 2a
        E 16 80 40 00
        E 128 b0 0b 08
        E 0 90 47 08
        E 16 b0 0b 11
        E 32 b0 0b 19
        E 32 b0 0b 22
        E 32 b0 0b 2a
        E 16 80 47 00
        E 128 b0 0b 08
        E 0 90 45 08
        E 16 b0 0b 11
        E 32 b0 0b 19
        E 32 b0 0b 22
        E 32 b0 0b 2a
        E 16 80 45 00
        E 1024 b0 0b 08
        E 0 90 3b 08
        E 16 b0 0b 11
        E 32 b0 0b 19
        E 16 80 3b 00
        E 192 b0 0b 08
        E 0 90 40 08
        E 16 b0 0b 11
        E 32 b0 0b 19
        E 16 80 40 00
        E 192 b0 0b 08
        E 0 90 47 08
        E 16 b0 0b 11
        E 32 b0 0b 19
        E 16 80 47 00
        E 192 b0 0b 08
        E 0 90 28 08
        E 16 b0 0b 11
        E 32 b0 0b 19
        E 32 b0 0b 22
        E 32 b0 0b 2a
        E 32 80 28 00
        E 368 b0 0b 08
        E 0 90 34 08
        E 16 b0 0b 11
        E 32 b0 0b 19
        E 32 b0 0b 22
        E 32 b0 0b 2a
        E 32 80 34 00
        E 368 b0 0b 08
        E 0 90 34 08
        E 16 b0 0b 11
        E 32 b0 0b 19
        E 32 b0 0b 22
        E 32 b0 0b 2a
        E 32 80 34 00
        E 368 b0 0b 08
        E 0 90 36 08
        E 16 b0 0b 11
        E 32 b0 0b 19
        E 32 b0 0b 22
        E 32 b0 0b 2a
        E 32 80 36 00
        E 368 b0 0b 08
        E 0 90 38 08
        E 16 b0 0b 11
        E 32 b0 0b 19
        E 32 b0 0b 22
        E 32 b0 0b 2a
        E 32 80 38 00
        E 368 b0 0b 08
        E 0 90 39 08
        E 16 b0 0b 11
        E 32 b0 0b 19
        E 32 b0 0b 22
        E 32 b0 0b 2a
        E 32 80 39 00
        E 368 b0 0b 08
        E 0 90 39 08
        E 16 b0 0b 11
        E 32 b0 0b 19
        E 32 b0 0b 22
        E 32 b0 0b 2a
        E 32 80 39 00
        E 368 b0 0b 08
        E 0 90 32 08
        E 16 b0 0b 11
        E 32 b0 0b 19
        E 32 b0 0b 22
        E 32 b0 0b 2a
        E 32 80 32 00
        E 368 b0 0b 08
        E 0 90 32 08
        E 16 b0 0b 11
        E 32 b0 0b 19
        E 32 b0 0b 22
        E 32 b0 0b 2a
        E 32 80 32 00
        E 368 b0 0b 08
        E 0 90 34 08
        E 16 b0 0b 11
        E 32 b0 0b 19
        E 32 b0 0b 22
        E 32 b0 0b 2a
        E 32 80 34 00
        E 368 b0 0b 08
        E 0 90 34 08
        E 16 b0 0b 11
        E 32 b0 0b 19
        E 32 b0 0b 22
        E 32 b0 0b 2a
        E 32 80 34 00
        E 368 b0 0b 08
        E 0 90 36 08
        E 16 b0 0b 11
        E 32 b0 0b 19
        E 32 b0 0b 22
        E 32 b0 0b 2a
        E 32 80 36 00
        E 368 b0 0b 08
        E 0 90 38 08
        E 16 b0 0b 11
        E 32 b0 0b 19
        E 32 b0 0b 22
        E 32 b0 0b 2a
        E 32 80 38 00
        E 368 b0 0b 08
        E 0 90 39 08
        E 16 b0 0b 11
        E 32 b0 0b 19
        E 32 b0 0b 22
        E 32 b0 0b 2a
        E 32 80 39 00
        E 368 b0 0b 08
        E 0 90 39 08
        E 16 b0 0b 11
        E 32 b0 0b 19
        E 32 b0 0b 22
        E 32 b0 0b 2a
        E 32 80 39 00
        E 368 b0 0b 08
        E 0 90 32 08
        E 16 b0 0b 11
        E 32 b0 0b 19
        E 32 b0 0b 22
        E 32 b0 0b 2a
        E 32 80 32 00
        E 368 b0 0b 08
        E 0 90 32 08
        E 16 b0 0b 11
        E 32 b0 0b 19
        E 32 b0 0b 22
        E 32 b0 0b 2a
        E 32 80 32 00
        E 112 b0 0b 08
        E 0 90 39 08
        E 16 b0 0b 11
        E 32 b0 0b 19
        E 32 b0 0b 22
        E 32 b0 0b 2a
        E 16 b0 0b 08
        E 16 b0 0b 11
        E 32 b0 0b 19
        E 32 b0 0b 22
        E 32 b0 0b 2a
        E 16 b0 0b 08
        E 16 b0 0b 11
        E 32 b0 0b 19
        E 32 b0 0b 22
        E 32 b0 0b 2a
        E 16 b0 0b 08
        E 16 b0 0b 11
        E 32 b0 0b 19
        E 32 b0 0b 22
        E 32 b0 0b 2a
        E 16 80 39 00
        E 128 b0 0b 08
        E 0 90 3b 08
        E 16 b0 0b 11
        E 32 b0 0b 19
        E 32 b0 0b 22
        E 32 b0 0b 2a
        E 16 80 3b 00
        E 256 b0 0b 08
        E 0 90 3d 08
        E 16 b0 0b 11
        E 32 b0 0b 19
        E 32 b0 0b 22
        E 32 b0 0b 2a
        E 16 80 3d 00
        E 384 b0 0b 08
        E 0 90 39 08
        E 16 b0 0b 11
        E 32 b0 0b 19
        E 32 b0 0b 22
        E 32 b0 0b 2a
        E 16 80 39 00
        E 640 b0 0b 08
        E 0 90 42 08
        E 16 b0 0b 11
        E 32 b0 0b 19
        E 32 b0 0b 22
        E 32 b0 0b 2a
        E 32 80 42 00
        E 368 b0 0b 08
        E 0 90 42 08
        E 16 b0 0b 11
        E 32 b0 0b 19
        E 32 b0 0b 22
        E 32 b0 0b 2a
        E 32 80 42 00
        E 368 b0 0b 08
        E 0 90 3d 08
        E 16 b0 0b 11
        E 32 b0 0b 19
        E 32 b0 0b 22
        E 32 b0 0b 2a
        E 32 80 3d 00
        E 368 b0 0b 08
        E 0 90 3d 08
        E 16 b0 0b 11
        E 32 b0 0b 19
        E 32 b0 0b 22
        E 32 b0 0b 2a
        E 32 80 3d 00
        E 112 b0 0b 08
        E 0 90 39 08
        E 16 b0 0b 11
        E 32 b0 0b 19
        E 32 b0 0b 22
        E 32 b0 0b 2a
        E 16 b0 0b 08
        E 16 b0 0b 11
        E 32 b0 0b 19
        E 32 b0 0b 22
        E 32 b0 0b 2a
        E 16 b0 0b 08
        E 16 b0 0b 11
        E 32 b0 0b 19
        E 32 b0 0b 22
        E 32 b0 0b 2a
        E 16 b0 0b 08
        E 16 b0 0b 11
        E 32 b0 0b 19
        E 32 b0 0b 22
        E 32 b0 0b 2a
        E 16 80 39 00
        E 128 b0 0b 08
        E 0 90 3b 08
        E 16 b0 0b 11
        E 32 b0 0b 19
        E 32 b0 0b 22
        E 32 b0 0b 2a
        E 16 80 3b 00
        E 256 b0 0b 08
        E 0 90 3d 08
        E 16 b0 0b 11
        E 32 b0 0b 19
        E 32 b0 0b 22
        E 32 b0 0b 2a
        E 16 80 3d 00
        E 384 b0 0b 08
        E 0 90 45 08
        E 16 b0 0b 11
        E 32 b0 0b 19
        E 32 b0 0b 22
        E 32 b0 0b 2a
        E 16 b0 0b 08
        E 0 80 45 00
        E 0 90 40 08
        E 16 b0 0b 11
        E 32 b0 0b 19
        E 32 b0 0b 22
        E 32 b0 0b 2a
        E 16 b0 0b 08
        E 0 80 40 00
        E 0 90 3d 08
        E 16 b0 0b 11
        E 32 b0 0b 19
        E 32 b0 0b 22
        E 32 b0 0b 2a
        E 16 b0 0b 08
        E 0 80 3d 00
        E 0 90 39 08
        E 16 b0 0b 11
        E 32 b0 0b 19
        E 32 b0 0b 22
        E 32 b0 0b 2a
        E 16 b0 0b 08
        E 0 80 39 00
        E 0 90 34 08
        E 16 b0 0b 11
        E 32 b0 0b 19
        E 32 b0 0b 22
        E 32 b0 0b 2a
        E 16 b0 0b 08
        E 0 80 34 00
        E 0 90 36 08
        E 16 b0 0b 11
        E 32 b0 0b 19
        E 32 b0 0b 22
        E 32 b0 0b 2a
        E 16 b0 0b 08
        E 0 80 36 00
        E 0 90 34 08
        E 16 b0 0b 11
        E 32 b0 0b 19
        E 32 b0 0b 22
        E 32 b0 0b 2a
        E 16 b0 0b 08
        E 0 80 34 00
        E 0 90 36 08
        E 16 b0 0b 11
        E 32 b0 0b 19
        E 32 b0 0b 22
        E 32 b0 0b 2a
        E 16 b0 0b 08
        E 0 80 36 00
        E 0 90 34 08
        E 16 b0 0b 11
        E 32 b0 0b 19
        E 32 b0 0b 22
        E 32 b0 0b 2a
        E 16 b0 0b 08
        E 0 80 34 00
        E 0 90 36 08
        E 16 b0 0b 11
        E 32 b0 0b 19
        E 32 b0 0b 22
        E 32 b0 0b 2a
        E 16 b0 0b 08
        E 0 80 36 00
        E 0 90 34 08
        E 16 b0 0b 11
        E 32 b0 0b 19
        E 32 b0 0b 22
        E 32 b0 0b 2a
        E 16 b0 0b 08
        E 0 80 34 00
        E 0 90 36 08
        E 16 b0 0b 11
        E 32 b0 0b 19
        E 32 b0 0b 22
        E 32 b0 0b 2a
        E 16 b0 0b 08
        E 0 80 36 00
        E 0 90 39 08
        E 16 b0 0b 11
        E 32 b0 0b 19
        E 32 b0 0b 22
        E 32 b0 0b 2a
        E 16 b0 0b 08
        E 0 80 39 00
        E 0 90 3b 08
        E 16 b0 0b 11
        E 32 b0 0b 19
        E 32 b0 0b 22
        E 32 b0 0b 2a
        E 16 b0 0b 08
        E 0 80 3b 00
        E 0 90 39 08
        E 16 b0 0b 11
        E 32 b0 0b 19
        E 32 b0 0b 22
        E 32 b0 0b 2a
        E 16 b0 0b 08
        E 0 80 39 00
        E 0 90 3b 08
        E 16 b0 0b 11
        E 32 b0 0b 19
        E 32 b0 0b 22
        E 32 b0 0b 2a
        E 16 b0 0b 08
        E 0 80 3b 00
        E 0 90 39 08
        E 16 b0 0b 11
        E 32 b0 0b 19
        E 32 b0 0b 22
        E 32 b0 0b 2a
        E 16 b0 0b 08
        E 0 80 39 00
        E 0 90 3b 08
        E 16 b0 0b 11
        E 32 b0 0b 19
        E 32 b0 0b 22
        E 32 b0 0b 2a
        E 16 b0 0b 08
        E 0 80 3b 00
        E 0 90 39 08
        E 16 b0 0b 11
        E 32 b0 0b 19
        E 32 b0 0b 22
        E 32 b0 0b 2a
        E 16 b0 0b 08
        E 0 80 39 00
        E 0 90 3b 08
        E 16 b0 0b 11
        E 32 b0 0b 19
        E 32 b0 0b 22
        E 32 b0 0b 2a
        E 16 b0 0b 08
        E 0 80 3b 00
        E 0 90 42 08
        E 16 b0 0b 11
        E 32 b0 0b 19
        E 32 b0 0b 22
        E 32 b0 0b 2a
        E 16 b0 0b 08
        E 16 b0 0b 11
        E 32 b0 0b 19
        E 32 b0 0b 22
        E 32 b0 0b 2a
        E 16 b0 0b 08
        E 16 b0 0b 11
        E 32 b0 0b 19
        E 32 b0 0b 22
        E 32 b0 0b 2a
        E 16 b0 0b 08
        E 16 b0 0b 11
        E 32 b0 0b 19
        E 32 b0 0b 22
        E 32 b0 0b 2a
        E 16 80 42 00
        E 128 b0 0b 08
        E 0 90 42 08
        E 16 b0 0b 11
        E 32 b0 0b 19
        E 32 b0 0b 22
        E 32 b0 0b 2a
        E 16 80 42 00
        E 128 b0 0b 08
        E 0 90 42 08
        E 16 b0 0b 11
        E 32 b0 0b 19
        E 32 b0 0b 22
        E 32 b0 0b 2a
        E 16 b0 0b 08
        E 16 b0 0b 11
        E 32 b0 0b 19
        E 32 b0 0b 22
        E 32 b0 0b 2a
        E 16 80 42 00
        E 912 b0 0b 08
        E 0 90 2d 08
        E 16 b0 0b 11
        E 32 b0 0b 19
        E 32 b0 0b 22
        E 32 b0 0b 2a
        E 32 80 2d 00
        E 864 b0 0b 08
        E 0 90 2b 08
        E 16 b0 0b 11
        E 32 b0 0b 19
        E 32 b0 0b 22
        E 32 b0 0b 2a
        E 32 80 2b 00
        E 880 b0 0b 08
        E 0 90 4c 08
        E 16 b0 0b 11
        E 32 b0 0b 19
        E 32 b0 0b 22
        E 32 b0 0b 2a
        E 16 b0 0b 08
        E 0 80 4c 00
        E 0 90 4e 08
        E 16 b0 0b 11
        E 32 b0 0b 19
        E 32 b0 0b 22
        E 32 b0 0b 2a
        E 16 b0 0b 08
        E 0 80 4e 00
        E 0 90 4f 08
        E 16 b0 0b 11
        E 32 b0 0b 19
        E 32 b0 0b 22
        E 32 b0 0b 2a
        E 16 b0 0b 08
        E 0 80 4f 00
        E 0 90 50 08
        E 16 b0 0b 11
        E 32 b0 0b 19
        E 32 b0 0b 22
        E 32 b0 0b 2a
        E 16 b0 0b 08
        E 0 80 50 00
        E 0 90 51 08
        E 16 b0 0b 11
        E 32 b0 0b 19
        E 32 b0 0b 22
        E 32 b0 0b 2a
        E 16 b0 0b 08
        E 0 80 51 00
        E 0 90 53 08
        E 16 b0 0b 11
        E 32 b0 0b 19
        E 32 b0 0b 22
        E 32 b0 0b 2a
        E 16 b0 0b 08
        E 0 80 53 00
        E 0 90 54 08
        E 16 b0 0b 11
        E 32 b0 0b 19
        E 32 b0 0b 22
        E 32 b0 0b 2a
        E 16 b0 0b 08
        E 0 80 54 00
        E 0 90 55 08
        E 16 b0 0b 11
        E 32 b0 0b 19
        E 32 b0 0b 22
        E 32 b0 0b 2a
        E 16 b0 0b 08
        E 0 80 55 00
        E 0 90 4c 08
        E 16 b0 0b 11
        E 32 b0 0b 19
        E 16 b0 0b 08
        E 0 80 4c 00
        E 0 90 4e 08
        E 16 b0 0b 11
        E 32 b0 0b 19
        E 16 b0 0b 08
        E 0 80 4e 00
        E 0 90 4f 08
        E 16 b0 0b 11
        E 32 b0 0b 19
        E 16 b0 0b 08
        E 0 80 4f 00
        E 0 90 4c 08
        E 16 b0 0b 11
        E 32 b0 0b 19
        E 16 b0 0b 08
        E 0 80 4c 00
        E 0 90 51 08
        E 16 b0 0b 11
        E 32 b0 0b 19
        E 16 b0 0b 08
        E 0 80 51 00
        E 0 90 52 08
        E 16 b0 0b 11
        E 32 b0 0b 19
        E 16 b0 0b 08
        E 0 80 52 00
        E 0 90 53 08
        E 16 b0 0b 11
        E 32 b0 0b 19
        E 16 b0 0b 08
        E 0 80 53 00
        E 0 90 54 08
        E 16 b0 0b 11
        E 32 b0 0b 19
        E 16 b0 0b 08
        E 0 80 54 00
        E 0 90 58 08
        E 16 b0 0b 11
        E 32 b0 0b 19
        E 16 80 58 00
        E 192 b0 0b 08
        E 0 90 28 08
        E 16 b0 0b 11
        E 32 b0 0b 19
        E 32 b0 0b 22
        E 32 b0 0b 2a
        E 32 80 28 00
        E 112 b0 0b 08
        E 0 90 2d 08
        E 16 b0 0b 11
        E 32 b0 0b 19
        E 32 b0 0b 22
        E 32 b0 0b 2a
        E 32 80 2d 00
        E 112 b0 0b 08
        E 0 90 49 08
        E 16 b0 0b 11
        E 32 b0 0b 19
        E 32 b0 0b 22
        E 32 b0 0b 2a
        E 32 80 49 00
        E 112 b0 0b 08
        E 0 90 25 08
        E 16 b0 0b 11
        E 32 b0 0b 19
        E 32 b0 0b 22
        E 32 b0 0b 2a
        E 32 80 25 00
        E 112 b0 0b 08
        E 0 90 45 08
        E 16 b0 0b 11
        E 32 b0 0b 19
        E 32 b0 0b 22
        E 32 b0 0b 2a
        E 32 80 45 00
        E 112 b0 0b 08
        E 0 90 23 08
        E 16 b0 0b 11
        E 32 b0 0b 19
        E 32 b0 0b 22
        E 32 b0 0b 2a
        E 32 80 23 00
        E 112 b0 0b 08
        E 0 90 4a 08
        E 16 b0 0b 11
        E 32 b0 0b 19
        E 32 b0 0b 22
        E 32 b0 0b 2a
        E 32 80 4a 00
        E 112 b0 0b 08
        E 0 90 28 08
        E 16 b0 0b 11
        E 32 b0 0b 19
        E 32 b0 0b 22
        E 32 b0 0b 2a
        E 32 80 28 00
        E 112 b0 0b 08
        E 0 90 4a 08
        E 16 b0 0b 11
        E 32 b0 0b 19
        E 32 b0 0b 22
        E 32 b0 0b 2a
        E 32 80 4a 00
        E 112 b0 0b 08
        E 0 90 26 08
        E 16 b0 0b 11
        E 32 b0 0b 19
        E 32 b0 0b 22
        E 32 b0 0b 2a
        E 32 80 26 00
        E 112 b0 0b 08
        E 0 90 4a 08
        E 16 b0 0b 11
        E 32 b0 0b 19
        E 32 b0 0b 22
        E 32 b0 0b 2a
        E 32 80 4a 00
        E 112 b0 0b 08
        E 0 90 25 08
        E 16 b0 0b 11
        E 32 b0 0b 19
        E 32 b0 0b 22
        E 32 b0 0b 2a
        E 32 80 25 00
        E 112 b0 0b 08
        E 0 90 4c 08
        E 16 b0 0b 11
        E 32 b0 0b 19
        E 32 b0 0b 22
        E 32 b0 0b 2a
        E 32 80 4c 00
        E 112 b0 0b 08
        E 0 90 2b 08
        E 16 b0 0b 11
        E 32 b0 0b 19
        E 32 b0 0b 22
        E 32 b0 0b 2a
        E 32 80 2b 00
        E 112 b0 0b 08
        E 0 90 47 08
        E 16 b0 0b 11
        E 32 b0 0b 19
        E 32 b0 0b 22
        E 32 b0 0b 2a
        E 32 80 47 00
        E 112 b0 0b 08
        E 0 90 28 08
        E 16 b0 0b 11
        E 32 b0 0b 19
        E 32 b0 0b 22
        E 32 b0 0b 2a
        E 32 80 28 00
        E 112 b0 0b 08
        E 0 90 44 08
        E 16 b0 0b 11
        E 32 b0 0b 19
        E 32 b0 0b 22
        E 32 b0 0b 2a
        E 32 80 44 00
        E 112 b0 0b 08
        E 0 90 2d 08
        E 16 b0 0b 11
        E 32 b0 0b 19
        E 32 b0 0b 22
        E 32 b0 0b 2a
        E 32 80 2d 00
        E 112 b0 0b 08
        E 0 90 49 08
        E 16 b0 0b 11
        E 32 b0 0b 19
        E 32 b0 0b 22
        E 32 b0 0b 2a
        E 32 80 49 00
        E 112 b0 0b 08
        E 0 90 25 08
        E 16 b0 0b 11
        E 32 b0 0b 19
        E 32 b0 0b 22
        E 32 b0 0b 2a
        E 32 80 25 00
        E 112 b0 0b 08
        E 0 90 45 08
        E 16 b0 0b 11
        E 32 b0 0b 19
        E 32 b0 0b 22
        E 32 b0 0b 2a
        E 32 80 45 00
        E 112 b0 0b 08
        E 0 90 23 08
        E 16 b0 0b 11
        E 32 b0 0b 19
        E 32 b0 0b 22
        E 32 b0 0b 2a
        E 32 80 23 00
        E 112 b0 0b 08
        E 0 90 4a 08
        E 16 b0 0b 11
        E 32 b0 0b 19
        E 32 b0 0b 22
        E 32 b0 0b 2a
        E 32 80 4a 00
        E 112 b0 0b 08
        E 0 90 28 08
        E 16 b0 0b 11
        E 32 b0 0b 19
        E 32 b0 0b 22
        E 32 b0 0b 2a
        E 32 80 28 00
        E 112 b0 0b 08
        E 0 90 4a 08
        E 16 b0 0b 11
        E 32 b0 0b 19
        E 32 b0 0b 22
        E 32 b0 0b 2a
        E 32 80 4a 00
        E 112 b0 0b 08
        E 0 90 26 08
        E 16 b0 0b 11
        E 32 b0 0b 19
        E 32 b0 0b 22
        E 32 b0 0b 2a
        E 32 80 26 00
        E 112 b0 0b 08
        E 0 90 4a 08
        E 16 b0 0b 11
        E 32 b0 0b 19
        E 32 b0 0b 22
        E 32 b0 0b 2a
        E 32 80 4a 00
        E 112 b0 0b 08
        E 0 90 25 08
        E 16 b0 0b 11
        E 32 b0 0b 19
        E 32 b0 0b 22
        E 32 b0 0b 2a
        E 32 80 25 00
        E 112 b0 0b 08
        E 0 90 4c 08
        E 16 b0 0b 11
        E 32 b0 0b 19
        E 32 b0 0b 22
        E 32 b0 0b 2a
        E 32 80 4c 00
        E 112 b0 0b 08
        E 0 90 2b 08
        E 16 b0 0b 11
        E 32 b0 0b 19
        E 32 b0 0b 22
        E 32 b0 0b 2a
        E 32 80 2b 00
        E 112 b0 0b 08
        E 0 90 47 08
        E 16 b0 0b 11
        E 32 b0 0b 19
        E 32 b0 0b 22
        E 32 b0 0b 2a
        E 32 80 47 00
        E 112 b0 0b 08
        E 0 90 28 08
        E 16 b0 0b 11
        E 32 b0 0b 19
        E 32 b0 0b 22
        E 32 b0 0b 2a
        E 32 80 28 00
        E 112 b0 0b 08
        E 0 90 44 08
        E 16 b0 0b 11
        E 32 b0 0b 19
        E 32 b0 0b 22
        E 32 b0 0b 2a
        E 32 80 44 00
        E 112 b0 0b 08
        E 0 90 26 08
        E 16 b0 0b 11
        E 32 b0 0b 19
        E 32 b0 0b 22
        E 32 b0 0b 2a
        E 16 b0 0b 08
        E 16 b0 0b 11
        E 32 b0 0b 19
        E 32 b0 0b 22
        E 32 b0 0b 2a
        E 16 b0 0b 08
        E 0 80 26 00
        E 0 90 25 08
        E 16 b0 0b 11
        E 32 b0 0b 19
        E 32 b0 0b 22
        E 32 b0 0b 2a
        E 16 b0 0b 08
        E 0 80 25 00
        E 0 90 26 08
        E 16 b0 0b 11
        E 32 b0 0b 19
        E 32 b0 0b 22
        E 32 b0 0b 2a
        E 16 80 26 00
        E 128 b0 0b 08
        E 0 90 28 08
        E 16 b0 0b 11
        E 32 b0 0b 19
        E 32 b0 0b 22
        E 32 b0 0b 2a
        E 16 80 28 00
        E 256 b0 0b 08
        E 0 90 2a 08
        E 16 b0 0b 11
        E 32 b0 0b 19
        E 32 b0 0b 22
        E 32 b0 0b 2a
        E 16 80 2a 00
        E 384 b0 0b 08
        E 0 90 25 08
        E 16 b0 0b 11
        E 32 b0 0b 19
        E 32 b0 0b 22
        E 32 b0 0b 2a
        E 16 80 25 00
        E 384 b0 0b 08
        E 0 90 26 08
        E 16 b0 0b 11
        E 32 b0 0b 19
        E 32 b0 0b 22
        E 32 b0 0b 2a
        E 32 80 26 00
        E 112 b0 0b 08
        E 0 90 45 08
        E 16 b0 0b 11
        E 32 b0 0b 19
        E 32 b0 0b 22
        E 32 b0 0b 2a
        E 32 80 45 00
        E 112 b0 0b 08
        E 0 90 26 08
        E 16 b0 0b 11
        E 32 b0 0b 19
        E 32 b0 0b 22
        E 32 b0 0b 2a
        E 32 80 26 00
        E 112 b0 0b 08
        E 0 90 45 08
        E 16 b0 0b 11
        E 32 b0 0b 19
        E 32 b0 0b 22
        E 32 b0 0b 2a
        E 32 80 45 00
        E 112 b0 0b 08
        E 0 90 2d 08
        E 16 b0 0b 11
        E 32 b0 0b 19
        E 32 b0 0b 22
        E 32 b0 0b 2a
        E 32 80 2d 00
        E 112 b0 0b 08
        E 0 90 40 08
        E 16 b0 0b 11
        E 32 b0 0b 19
        E 32 b0 0b 22
        E 32 b0 0b 2a
        E 32 80 40 00
        E 112 b0 0b 08
        E 0 90 2d 08
        E 16 b0 0b 11
        E 32 b0 0b 19
        E 32 b0 0b 22
        E 32 b0 0b 2a
        E 32 80 2d 00
        E 112 b0 0b 08
        E 0 90 40 08
        E 16 b0 0b 11
        E 32 b0 0b 19
        E 32 b0 0b 22
        E 32 b0 0b 2a
        E 32 80 40 00
        E 112 b0 0b 08
        E 0 90 26 08
        E 16 b0 0b 11
        E 32 b0 0b 19
        E 32 b0 0b 22
        E 32 b0 0b 2a
        E 16 b0 0b 08
        E 16 b0 0b 11
        E 32 b0 0b 19
        E 32 b0 0b 22
        E 32 b0 0b 2a
        E 16 b0 0b 08
        E 0 80 26 00
        E 0 90 25 08
        E 16 b0 0b 11
        E 32 b0 0b 19
        E 32 b0 0b 22
        E 32 b0 0b 2a
        E 16 b0 0b 08
        E 0 80 25 00
        E 0 90 26 08
        E 16 b0 0b 11
        E 32 b0 0b 19
        E 32 b0 0b 22
        E 32 b0 0b 2a
        E 16 80 26 00
        E 128 b0 0b 08
        E 0 90 28 08
        E 16 b0 0b 11
        E 32 b0 0b 19
        E 32 b0 0b 22
        E 32 b0 0b 2a
        E 16 80 28 00
        E 256 b0 0b 08
        E 0 90 2a 08
        E 16 b0 0b 11
        E 32 b0 0b 19
        E 32 b0 0b 22
        E 32 b0 0b 2a
        E 16 80 2a 00
        E 384 b0 0b 08
        E 0 90 2b 08
        E 16 b0 0b 11
        E 32 b0 0b 19
        E 32 b0 0b 22
        E 32 b0 0b 2a
        E 16 b0 0b 08
        E 16 b0 0b 11
        E 32 b0 0b 19
        E 32 b0 0b 22
        E 32 b0 0b 2a
        E 16 b0 0b 08
        E 16 b0 0b 11
        E 32 b0 0b 19
        E 32 b0 0b 22
        E 32 b0 0b 2a
        E 16 b0 0b 08
        E 16 b0 0b 11
        E 32 b0 0b 19
        E 32 b0 0b 22
        E 32 b0 0b 2a
        E 16 b0 0b 08
        E 0 80 2b 00
        E 0 90 26 08
        E 16 b0 0b 11
        E 32 b0 0b 19
        E 32 b0 0b 22
        E 32 b0 0b 2a
        E 32 80 26 00
        E 112 b0 0b 08
        E 0 90 32 08
        E 16 b0 0b 11
        E 32 b0 0b 19
        E 32 b0 0b 22
        E 32 b0 0b 2a
        E 16 b0 0b 08
        E 16 b0 0b 11
        E 32 b0 0b 19
        E 32 b0 0b 22
        E 32 b0 0b 2a
        E 16 b0 0b 08
        E 0 80 32 00
        E 0 90 26 08
        E 16 b0 0b 11
        E 32 b0 0b 19
        E 32 b0 0b 22
        E 32 b0 0b 2a
        E 32 80 26 00
        E 112 b0 0b 08
        E 0 90 32 08
        E 16 b0 0b 11
        E 32 b0 0b 19
        E 32 b0 0b 22
        E 32 b0 0b 2a
        E 16 b0 0b 08
        E 16 b0 0b 11
        E 32 b0 0b 19
        E 32 b0 0b 22
        E 32 b0 0b 2a
        E 16 b0 0b 08
        E 0 80 32 00
        E 0 90 25 08
        E 16 b0 0b 11
        E 32 b0 0b 19
        E 32 b0 0b 22
        E 32 b0 0b 2a
        E 32 80 25 00
        E 112 b0 0b 08
        E 0 90 31 08
        E 16 b0 0b 11
        E 32 b0 0b 19
        E 32 b0 0b 22
        E 32 b0 0b 2a
        E 16 b0 0b 08
        E 16 b0 0b 11
        E 32 b0 0b 19
        E 32 b0 0b 22
        E 32 b0 0b 2a
        E 16 b0 0b 08
        E 0 80 31 00
        E 0 90 25 08
        E 16 b0 0b 11
        E 32 b0 0b 19
        E 32 b0 0b 22
        E 32 b0 0b 2a
        E 32 80 25 00
        E 112 b0 0b 08
        E 0 90 31 08
        E 16 b0 0b 11
        E 32 b0 0b 19
        E 32 b0 0b 22
        E 32 b0 0b 2a
        E 16 b0 0b 08
        E 16 b0 0b 11
        E 32 b0 0b 19
        E 32 b0 0b 22
        E 32 b0 0b 2a
        E 16 b0 0b 08
        E 0 80 31 00
        E 0 90 28 08
        E 16 b0 0b 11
        E 32 b0 0b 19
        E 32 b0 0b 22
        E 32 b0 0b 2a
        E 16 b0 0b 08
        E 16 b0 0b 11
        E 32 b0 0b 19
        E 32 b0 0b 22
        E 32 b0 0b 2a
        E 16 b0 0b 08
        E 16 b0 0b 11
        E 32 b0 0b 19
        E 32 b0 0b 22
        E 32 b0 0b 2a
        E 16 b0 0b 08
        E 16 b0 0b 11
        E 32 b0 0b 19
        E 32 b0 0b 22
        E 32 b0 0b 2a
        E 16 80 28 00
        E 128 b0 0b 08
        E 0 90 28 08
        E 16 b0 0b 11
        E 32 b0 0b 19
        E 32 b0 0b 22
        E 32 b0 0b 2a
        E 16 80 28 00
        E 128 b0 0b 08
        E 0 90 28 08
        E 16 b0 0b 11
        E 32 b0 0b 19
        E 32 b0 0b 22
        E 32 b0 0b 2a
        E 16 b0 0b 08
        E 16 b0 0b 11
        E 32 b0 0b 19
        E 32 b0 0b 22
        E 32 b0 0b 2a
        E 16 80 28 00
        E 1152 b0 0b 08
        E 0 90 18 08
        E 16 b0 0b 11
        E 32 b0 0b 19
        E 32 b0 0b 22
        E 32 b0 0b 2a
        E 16 b0 0b 08
        E 16 b0 0b 11
        E 32 b0 0b 19
        E 32 b0 0b 22
        E 32 b0 0b 2a
        E 16 80 18 00
        E 256 b0 0b 08
        E 0 90 18 08
        E 16 b0 0b 11
        E 32 b0 0b 19
        E 32 b0 0b 22
        E 32 b0 0b 2a
        E 16 b0 0b 08
        E 16 b0 0b 11
        E 32 b0 0b 19
        E 32 b0 0b 22
        E 32 b0 0b 2a
        E 16 80 18 00
        E 256 b0 0b 08
        E 0 90 18 08
        E 16 b0 0b 11
        E 32 b0 0b 19
        E 32 b0 0b 22
        E 32 b0 0b 2a
        E 16 b0 0b 08
        E 16 b0 0b 11
        E 32 b0 0b 19
        E 32 b0 0b 22
        E 32 b0 0b 2a
        E 16 80 18 00
        E 256 b0 0b 08
        E 0 90 18 08
        E 16 b0 0b 11
        E 32 b0 0b 19
        E 32 b0 0b 22
        E 32 b0 0b 2a
        E 16 b0 0b 08
        E 16 b0 0b 11
        E 32 b0 0b 19
        E 32 b0 0b 22
        E 32 b0 0b 2a
        E 16 80 18 00
        E 256 b0 0b 08
        E 0 90 18 08
        E 16 b0 0b 11
        E 32 b0 0b 19
        E 32 b0 0b 22
        E 32 b0 0b 2a
        E 16 b0 0b 08
        E 16 b0 0b 11
        E 32 b0 0b 19
        E 32 b0 0b 22
        E 32 b0 0b 2a
        E 16 80 18 00
        E 256 b0 0b 08
        E 0 90 18 08
        E 16 b0 0b 11
        E 32 b0 0b 19
        E 32 b0 0b 22
        E 32 b0 0b 2a
        E 16 b0 0b 08
        E 16 b0 0b 11
        E 32 b0 0b 19
        E 32 b0 0b 22
        E 32 b0 0b 2a
        E 16 80 18 00
        E 256 b0 0b 08
        E 0 90 18 08
        E 16 b0 0b 11
        E 32 b0 0b 19
        E 32 b0 0b 22
        E 32 b0 0b 2a
        E 16 b0 0b 08
        E 16 b0 0b 11
        E 32 b0 0b 19
        E 32 b0 0b 22
        E 32 b0 0b 2a
        E 16 80 18 00
        E 256 b0 0b 08
        E 0 90 18 08
        E 16 b0 0b 11
        E 32 b0 0b 19
        E 32 b0 0b 22
        E 32 b0 0b 2a
        E 16 b0 0b 08
        E 16 b0 0b 11
        E 32 b0 0b 19
        E 32 b0 0b 22
        E 32 b0 0b 2a
        E 16 80 18 00
        E 256 b0 0b 08
        E 0 90 18 08
        E 16 b0 0b 11
        E 32 b0 0b 19
        E 32 b0 0b 22
        E 32 b0 0b 2a
        E 16 b0 0b 08
        E 16 b0 0b 11
        E 32 b0 0b 19
        E 32 b0 0b 22
        E 32 b0 0b 2a
        E 16 80 18 00
        E 256 b0 0b 08
        E 0 90 18 08
        E 16 b0 0b 11
        E 32 b0 0b 19
        E 32 b0 0b 22
        E 32 b0 0b 2a
        E 16 b0 0b 08
        E 16 b0 0b 11
        E 32 b0 0b 19
        E 32 b0 0b 22
        E 32 b0 0b 2a
        E 16 80 18 00
        E 256 b0 0b 08
        E 0 90 18 08
        E 16 b0 0b 11
        E 32 b0 0b 19
        E 32 b0 0b 22
        E 32 b0 0b 2a
        E 16 b0 0b 08
        E 16 b0 0b 11
        E 32 b0 0b 19
        E 32 b0 0b 22
        E 32 b0 0b 2a
        E 16 80 18 00
        E 256 b0 0b 08
        E 0 90 18 08
        E 16 b0 0b 11
        E 32 b0 0b 19
        E 32 b0 0b 22
        E 32 b0 0b 2a
        E 16 b0 0b 08
        E 16 b0 0b 11
        E 32 b0 0b 19
        E 32 b0 0b 22
        E 32 b0 0b 2a
        E 16 80 18 00
        E 256 b0 0b 08
        E 0 90 18 08
        E 16 b0 0b 11
        E 32 b0 0b 19
        E 32 b0 0b 22
        E 32 b0 0b 2a
        E 16 b0 0b 08
        E 16 b0 0b 11
        E 32 b0 0b 19
        E 32 b0 0b 22
        E 32 b0 0b 2a
        E 16 80 18 00
        E 256 b0 0b 08
        E 0 90 18 08
        E 16 b0 0b 11
        E 32 b0 0b 19
        E 32 b0 0b 22
        E 32 b0 0b 2a
        E 16 b0 0b 08
        E 16 b0 0b 11
        E 32 b0 0b 19
        E 32 b0 0b 22
        E 32 b0 0b 2a
        E 16 80 18 00
        E 256 b0 0b 08
        E 0 90 18 08
        E 16 b0 0b 11
        E 32 b0 0b 19
        E 32 b0 0b 22
        E 32 b0 0b 2a
        E 16 b0 0b 08
        E 16 b0 0b 11
        E 32 b0 0b 19
        E 32 b0 0b 22
        E 32 b0 0b 2a
        E 16 80 18 00
        E 256 b0 0b 08
        E 0 90 18 08
        E 16 b0 0b 11
        E 32 b0 0b 19
        E 32 b0 0b 22
        E 32 b0 0b 2a
        E 16 b0 0b 08
        E 16 b0 0b 11
        E 32 b0 0b 19
        E 32 b0 0b 22
        E 32 b0 0b 2a
        E 16 80 18 00
        E 256 b0 0b 08
        E 0 90 18 08
        E 16 b0 0b 11
        E 32 b0 0b 19
        E 32 b0 0b 22
        E 32 b0 0b 2a
        E 16 b0 0b 08
        E 16 b0 0b 11
        E 32 b0 0b 19
        E 32 b0 0b 22
        E 32 b0 0b 2a
        E 16 80 18 00
        E 256 b0 0b 08
        E 0 90 18 08
        E 16 b0 0b 11
        E 32 b0 0b 19
        E 32 b0 0b 22
        E 32 b0 0b 2a
        E 16 b0 0b 08
        E 16 b0 0b 11
        E 32 b0 0b 19
        E 32 b0 0b 22
        E 32 b0 0b 2a
        E 16 80 18 00
        E 256 b0 0b 08
        E 0 90 18 08
        E 16 b0 0b 11
        E 32 b0 0b 19
        E 32 b0 0b 22
        E 32 b0 0b 2a
        E 16 b0 0b 08
        E 16 b0 0b 11
        E 32 b0 0b 19
        E 32 b0 0b 22
        E 32 b0 0b 2a
        E 16 80 18 00
        E 256 b0 0b 08
        E 0 90 18 08
        E 16 b0 0b 11
        E 32 b0 0b 19
        E 32 b0 0b 22
        E 32 b0 0b 2a
        E 16 b0 0b 08
        E 16 b0 0b 11
        E 32 b0 0b 19
        E 32 b0 0b 22
        E 32 b0 0b 2a
        E 16 80 18 00
        E 256 b0 0b 08
        E 0 90 18 08
        E 16 b0 0b 11
        E 32 b0 0b 19
        E 32 b0 0b 22
        E 32 b0 0b 2a
        E 16 b0 0b 08
        E 16 b0 0b 11
        E 32 b0 0b 19
        E 32 b0 0b 22
        E 32 b0 0b 2a
        E 16 80 18 00
        E 256 b0 0b 08
        E 0 90 18 08
        E 16 b0 0b 11
        E 32 b0 0b 19
        E 32 b0 0b 22
        E 32 b0 0b 2a
        E 16 b0 0b 08
        E 16 b0 0b 11
        E 32 b0 0b 19
        E 32 b0 0b 22
        E 32 b0 0b 2a
        E 16 80 18 00
        E 256 b0 0b 08
        E 0 90 18 08
        E 16 b0 0b 11
        E 32 b0 0b 19
        E 32 b0 0b 22
        E 32 b0 0b 2a
        E 16 b0 0b 08
        E 16 b0 0b 11
        E 32 b0 0b 19
        E 32 b0 0b 22
        E 32 b0 0b 2a
        E 16 80 18 00
        E 256 b0 0b 08
        E 0 90 18 08
        E 16 b0 0b 11
        E 32 b0 0b 19
        E 32 b0 0b 22
        E 32 b0 0b 2a
        E 16 b0 0b 08
        E 16 b0 0b 11
        E 32 b0 0b 19
        E 32 b0 0b 22
        E 32 b0 0b 2a
        E 16 80 18 00
        E 256 b0 0b 08
        E 0 90 18 08
        E 16 b0 0b 11
        E 32 b0 0b 19
        E 32 b0 0b 22
        E 32 b0 0b 2a
        E 16 b0 0b 08
        E 16 b0 0b 11
        E 32 b0 0b 19
        E 32 b0 0b 22
        E 32 b0 0b 2a
        E 16 80 18 00
        E 256 b0 0b 08
        E 0 90 18 08
        E 16 b0 0b 11
        E 32 b0 0b 19
        E 32 b0 0b 22
        E 32 b0 0b 2a
        E 16 b0 0b 08
        E 16 b0 0b 11
        E 32 b0 0b 19
        E 32 b0 0b 22
        E 32 b0 0b 2a
        E 16 80 18 00
        E 256 b0 0b 08
        E 0 90 18 08
        E 16 b0 0b 11
        E 32 b0 0b 19
        E 32 b0 0b 22
        E 32 b0 0b 2a
        E 16 b0 0b 08
        E 16 b0 0b 11
        E 32 b0 0b 19
        E 32 b0 0b 22
        E 32 b0 0b 2a
        E 16 80 18 00
        E 256 b0 0b 08
        E 0 90 18 08
        E 16 b0 0b 11
        E 32 b0 0b 19
        E 32 b0 0b 22
        E 32 b0 0b 2a
        E 16 b0 0b 08
        E 16 b0 0b 11
        E 32 b0 0b 19
        E 32 b0 0b 22
        E 32 b0 0b 2a
        E 16 80 18 00
        E 256 b0 0b 08
        E 0 90 18 08
        E 16 b0 0b 11
        E 32 b0 0b 19
        E 32 b0 0b 22
        E 32 b0 0b 2a
        E 16 b0 0b 08
        E 16 b0 0b 11
        E 32 b0 0b 19
        E 32 b0 0b 22
        E 32 b0 0b 2a
        E 16 80 18 00
        E 256 b0 0b 08
        E 0 90 18 08
        E 16 b0 0b 11
        E 32 b0 0b 19
        E 32 b0 0b 22
        E 32 b0 0b 2a
        E 16 b0 0b 08
        E 16 b0 0b 11
        E 32 b0 0b 19
        E 32 b0 0b 22
        E 32 b0 0b 2a
        E 16 80 18 00
        E 256 b0 0b 08
        E 0 90 18 08
        E 16 b0 0b 11
        E 32 b0 0b 19
        E 32 b0 0b 22
        E 32 b0 0b 2a
        E 16 b0 0b 08
        E 16 b0 0b 11
        E 32 b0 0b 19
        E 32 b0 0b 22
        E 32 b0 0b 2a
        E 16 80 18 00
        E 256 b0 0b 08
        E 0 90 18 08
        E 16 b0 0b 11
        E 32 b0 0b 19
        E 32 b0 0b 22
        E 32 b0 0b 2a
        E 16 b0 0b 08
        E 16 b0 0b 11
        E 32 b0 0b 19
        E 32 b0 0b 22
        E 32 b0 0b 2a
        E 16 80 18 00
        E 256 b0 0b 08
        E 0 90 18 08
        E 16 b0 0b 11
        E 32 b0 0b 19
        E 32 b0 0b 22
        E 32 b0 0b 2a
        E 16 b0 0b 08
        E 16 b0 0b 11
        E 32 b0 0b 19
        E 32 b0 0b 22
        E 32 b0 0b 2a
        E 16 80 18 00
        E 256 b0 0b 08
        E 0 90 18 08
        E 16 b0 0b 11
        E 32 b0 0b 19
        E 32 b0 0b 22
        E 32 b0 0b 2a
        E 16 b0 0b 08
        E 16 b0 0b 11
        E 32 b0 0b 19
        E 32 b0 0b 22
        E 32 b0 0b 2a
        E 16 80 18 00
        E 256 b0 0b 08
        E 0 90 18 08
        E 16 b0 0b 11
        E 32 b0 0b 19
        E 32 b0 0b 22
        E 32 b0 0b 2a
        E 16 b0 0b 08
        E 16 b0 0b 11
        E 32 b0 0b 19
        E 32 b0 0b 22
        E 32 b0 0b 2a
        E 16 80 18 00
        E 256 b0 0b 08
        E 0 90 18 08
        E 16 b0 0b 11
        E 32 b0 0b 19
        E 32 b0 0b 22
        E 32 b0 0b 2a
        E 16 b0 0b 08
        E 16 b0 0b 11
        E 32 b0 0b 19
        E 32 b0 0b 22
        E 32 b0 0b 2a
        E 16 80 18 00
        E 256 b0 0b 08
        E 0 90 18 08
        E 16 b0 0b 11
        E 32 b0 0b 19
        E 32 b0 0b 22
        E 32 b0 0b 2a
        E 16 b0 0b 08
        E 16 b0 0b 11
        E 32 b0 0b 19
        E 32 b0 0b 22
        E 32 b0 0b 2a
        E 16 80 18 00
        E 256 b0 0b 08
        E 0 90 18 08
        E 16 b0 0b 11
        E 32 b0 0b 19
        E 32 b0 0b 22
        E 32 b0 0b 2a
        E 16 b0 0b 08
        E 16 b0 0b 11
        E 32 b0 0b 19
        E 32 b0 0b 22
        E 32 b0 0b 2a
        E 16 80 18 00
        E 256 b0 0b 08
        E 0 90 18 08
        E 16 b0 0b 11
        E 32 b0 0b 19
        E 32 b0 0b 22
        E 32 b0 0b 2a
        E 16 b0 0b 08
        E 16 b0 0b 11
        E 32 b0 0b 19
        E 32 b0 0b 22
        E 32 b0 0b 2a
        E 16 80 18 00
        E 256 b0 0b 08
        E 0 90 18 08
        E 16 b0 0b 11
        E 32 b0 0b 19
        E 32 b0 0b 22
        E 32 b0 0b 2a
        E 16 b0 0b 08
        E 16 b0 0b 11
        E 32 b0 0b 19
        E 32 b0 0b 22
        E 32 b0 0b 2a
        E 16 80 18 00
        E 256 b0 0b 08
        E 0 90 18 08
        E 16 b0 0b 11
        E 32 b0 0b 19
        E 32 b0 0b 22
        E 32 b0 0b 2a
        E 16 b0 0b 08
        E 16 b0 0b 11
        E 32 b0 0b 19
        E 32 b0 0b 22
        E 32 b0 0b 2a
        E 16 80 18 00
        E 256 b0 0b 08
        E 0 90 18 08
        E 16 b0 0b 11
        E 32 b0 0b 19
        E 32 b0 0b 22
        E 32 b0 0b 2a
        E 16 b0 0b 08
        E 16 b0 0b 11
        E 32 b0 0b 19
        E 32 b0 0b 22
        E 32 b0 0b 2a
        E 16 80 18 00
        E 256 b0 0b 08
        E 0 90 18 08
        E 16 b0 0b 11
        E 32 b0 0b 19
        E 32 b0 0b 22
        E 32 b0 0b 2a
        E 16 b0 0b 08
        E 16 b0 0b 11
        E 32 b0 0b 19
        E 32 b0 0b 22
        E 32 b0 0b 2a
        E 16 80 18 00
        E 256 b0 0b 08
        E 0 90 18 08
        E 16 b0 0b 11
        E 32 b0 0b 19
        E 32 b0 0b 22
        E 32 b0 0b 2a
        E 16 b0 0b 08
        E 16 b0 0b 11
        E 32 b0 0b 19
        E 32 b0 0b 22
        E 32 b0 0b 2a
        E 16 80 18 00
        E 256 b0 0b 08
        E 0 90 18 08
        E 16 b0 0b 11
        E 32 b0 0b 19
        E 32 b0 0b 22
        E 32 b0 0b 2a
        E 16 b0 0b 08
        E 16 b0 0b 11
        E 32 b0 0b 19
        E 32 b0 0b 22
        E 32 b0 0b 2a
        E 16 80 18 00
        E 256 b0 0b 08
        E 0 90 18 08
        E 16 b0 0b 11
        E 32 b0 0b 19
        E 32 b0 0b 22
        E 32 b0 0b 2a
        E 16 b0 0b 08
        E 16 b0 0b 11
        E 32 b0 0b 19
        E 32 b0 0b 22
        E 32 b0 0b 2a
        E 16 80 18 00
        E 256 b0 0b 08
        E 0 90 18 08
        E 16 b0 0b 11
        E 32 b0 0b 19
        E 32 b0 0b 22
        E 32 b0 0b 2a
        E 16 b0 0b 08
        E 16 b0 0b 11
        E 32 b0 0b 19
        E 32 b0 0b 22
        E 32 b0 0b 2a
        E 16 80 18 00
        E 256 b0 0b 08
        E 0 90 18 08
        E 16 b0 0b 11
        E 32 b0 0b 19
        E 32 b0 0b 22
        E 32 b0 0b 2a
        E 16 b0 0b 08
        E 16 b0 0b 11
        E 32 b0 0b 19
        E 32 b0 0b 22
        E 32 b0 0b 2a
        E 16 80 18 00
        E 4272 b0 0b 08
        E 0 90 34 08
        E 16 b0 0b 11
        E 32 b0 0b 19
        E 32 b0 0b 22
        E 32 b0 0b 2a
        E 16 b0 0b 08
        E 0 80 34 00
        E 0 90 35 08
        E 16 b0 0b 11
        E 32 b0 0b 19
        E 32 b0 0b 22
        E 32 b0 0b 2a
        E 16 b0 0b 08
        E 0 80 35 00
        E 0 90 34 08
        E 16 b0 0b 11
        E 32 b0 0b 19
        E 32 b0 0b 22
        E 32 b0 0b 2a
        E 16 b0 0b 08
        E 0 80 34 00
        E 0 90 35 08
        E 16 b0 0b 11
        E 32 b0 0b 19
        E 32 b0 0b 22
        E 32 b0 0b 2a
        E 16 b0 0b 08
        E 0 80 35 00
        E 0 90 34 08
        E 16 b0 0b 11
        E 32 b0 0b 19
        E 32 b0 0b 22
        E 32 b0 0b 2a
        E 16 b0 0b 08
        E 0 80 34 00
        E 0 90 35 08
        E 16 b0 0b 11
        E 32 b0 0b 19
        E 32 b0 0b 22
        E 32 b0 0b 2a
        E 16 b0 0b 08
        E 0 80 35 00
        E 0 90 34 08
        E 16 b0 0b 11
        E 32 b0 0b 19
        E 32 b0 0b 22
        E 32 b0 0b 2a
        E 16 b0 0b 08
        E 0 80 34 00
        E 0 90 35 08
        E 16 b0 0b 11
        E 32 b0 0b 19
        E 32 b0 0b 22
        E 32 b0 0b 2a
        E 16 b0 0b 08
        E 0 80 35 00
        E 0 90 34 08
        E 16 b0 0b 11
        E 32 b0 0b 19
        E 32 b0 0b 22
        E 32 b0 0b 2a
        E 16 b0 0b 08
        E 0 80 34 00
        E 0 90 35 08
        E 16 b0 0b 11
        E 32 b0 0b 19
        E 32 b0 0b 22
        E 32 b0 0b 2a
        E 16 b0 0b 08
        E 0 80 35 00
        E 0 90 34 08
        E 16 b0 0b 11
        E 32 b0 0b 19
        E 32 b0 0b 22
        E 32 b0 0b 2a
        E 16 b0 0b 08
        E 0 80 34 00
        E 0 90 35 08
        E 16 b0 0b 11
        E 32 b0 0b 19
        E 32 b0 0b 22
        E 32 b0 0b 2a
        E 16 b0 0b 08
        E 0 80 35 00
        E 0 90 34 08
        E 16 b0 0b 11
        E 32 b0 0b 19
        E 32 b0 0b 22
        E 32 b0 0b 2a
        E 16 b0 0b 08
        E 0 80 34 00
        E 0 90 35 08
        E 16 b0 0b 11
        E 32 b0 0b 19
        E 32 b0 0b 22
        E 32 b0 0b 2a
        E 16 b0 0b 08
        E 0 80 35 00
        E 0 90 34 08
        E 16 b0 0b 11
        E 32 b0 0b 19
        E 32 b0 0b 22
        E 32 b0 0b 2a
        E 16 b0 0b 08
        E 0 80 34 00
        E 0 90 35 08
        E 16 b0 0b 11
        E 32 b0 0b 19
        E 32 b0 0b 22
        E 32 b0 0b 2a
        E 16 b0 0b 08
        E 0 80 35 00
        E 0 90 34 08
        E 16 b0 0b 11
        E 32 b0 0b 19
        E 32 b0 0b 22
        E 32 b0 0b 2a
        E 16 b0 0b 08
        E 0 80 34 00
        E 0 90 35 08
        E 16 b0 0b 11
        E 32 b0 0b 19
        E 32 b0 0b 22
        E 32 b0 0b 2a
        E 16 b0 0b 08
        E 0 80 35 00
        E 0 90 34 08
        E 16 b0 0b 11
        E 32 b0 0b 19
        E 32 b0 0b 22
        E 32 b0 0b 2a
        E 16 b0 0b 08
        E 0 80 34 00
        E 0 90 35 08
        E 16 b0 0b 11
        E 32 b0 0b 19
        E 32 b0 0b 22
        E 32 b0 0b 2a
        E 16 b0 0b 08
        E 0 80 35 00
        E 0 90 34 08
        E 16 b0 0b 11
        E 32 b0 0b 19
        E 32 b0 0b 22
        E 32 b0 0b 2a
        E 16 b0 0b 08
        E 0 80 34 00
        E 0 90 35 08
        E 16 b0 0b 11
        E 32 b0 0b 19
        E 32 b0 0b 22
        E 32 b0 0b 2a
        E 16 b0 0b 08
        E 0 80 35 00
        E 0 90 34 08
        E 16 b0 0b 11
        E 32 b0 0b 19
        E 32 80 34 00
        E 0 b0 7b 00
        E 0 ff 2f 00
      >
    >
  >
  <TRACK {4454064A-F81B-4F8F-9E55-5BCBDF4294DB}
    NAME "NES - Pulse 2 [ch1]"
    PEAKCOL 10092441
    BEAT -1
    AUTOMODE 0
    PANLAWFLAGS 3
    VOLPAN 1 0 -1 -1 1
    MUTESOLO 0 0 0
    IPHASE 0
    PLAYOFFS 0 1
    ISBUS 0 0
    BUSCOMP 0 0 0 0 0
    SHOWINMIX 1 0.6667 0.5 1 0.5 0 0 0
    FIXEDLANES 9 0 0 0 0
    SEL 0
    REC 0 5088 1 0 0 0 0 0
    VU 2
    TRACKHEIGHT 0 0 0 0 0 0 0
    INQ 0 0 0 0.5 100 0 0 100
    NCHAN 2
    FX 1
    TRACKID {4454064A-F81B-4F8F-9E55-5BCBDF4294DB}
    PERF 0
    MIDIOUT -1
    MAINSEND 1 0
    <FXCHAIN
      WNDRECT 24 52 700 560
      SHOW 0
      LASTSEL 0
      DOCKED 0
      BYPASS 0 0 0
      <JS "ReapNES Studio/ReapNES_Console.jsfx" ""
        2 15 1 10 80 10 100 2 1 15 1 5 60 10 80 1 1 0 50 0 0 15 1 0 100 0 0 0.500000 0.500000 0.400000 0.300000 0.800000 1 1 0 0 0 0 - - - - - - - - - - - - - - - - - - - - - - - - - -
      >
      FLOATPOS 0 0 0 0
      FXID {F32E5088-AD39-4AF4-9BC1-43D36A985BCA}
      WAK 0 0
    >
    <ITEM
      POSITION 0
      LENGTH 74.65008
      LOOP 0
      ALLTAKES 0
      FADEIN 0 0 0 0 0 0 0
      FADEOUT 0 0 0 0 0 0 0
      MUTE 0 0
      SEL 0
      IGUID {B9338C7D-DC32-4EB0-8A59-1B6DF4CA4687}
      <SOURCE MIDI
        HASDATA 1 480 QN
        CCINTERP 32
        E 0 c1 51
        E 0 b1 0c 10
        E 0 b1 0b 22
        E 0 91 51 22
        E 16 b1 0b 2a
        E 16 b1 0b 33
        E 16 b1 0b 3b
        E 16 b1 0b 44
        E 16 b1 0b 3b
        E 16 b1 0b 33
        E 16 b1 0b 2a
        E 16 b1 0b 22
        E 0 81 51 00
        E 0 91 4c 22
        E 16 b1 0b 2a
        E 16 b1 0b 33
        E 16 b1 0b 3b
        E 16 b1 0b 44
        E 16 b1 0b 3b
        E 16 b1 0b 33
        E 16 b1 0b 2a
        E 16 81 4c 00
        E 128 b1 0b 22
        E 0 91 49 22
        E 16 b1 0b 2a
        E 16 b1 0b 33
        E 16 b1 0b 3b
        E 16 b1 0b 44
        E 16 b1 0b 3b
        E 16 b1 0b 33
        E 16 b1 0b 2a
        E 16 81 49 00
        E 128 b1 0b 22
        E 0 91 4c 22
        E 16 b1 0b 2a
        E 16 b1 0b 33
        E 16 b1 0b 3b
        E 16 b1 0b 44
        E 16 b1 0b 3b
        E 16 b1 0b 33
        E 16 b1 0b 2a
        E 16 81 4c 00
        E 128 b1 0b 22
        E 0 91 49 22
        E 16 b1 0b 2a
        E 16 b1 0b 33
        E 16 b1 0b 3b
        E 16 b1 0b 44
        E 16 b1 0b 3b
        E 16 b1 0b 33
        E 16 b1 0b 2a
        E 16 b1 0b 22
        E 0 81 49 00
        E 0 91 51 22
        E 16 b1 0b 2a
        E 16 b1 0b 33
        E 16 b1 0b 3b
        E 16 b1 0b 44
        E 16 b1 0b 3b
        E 16 b1 0b 33
        E 16 b1 0b 2a
        E 16 b1 0b 22
        E 0 81 51 00
        E 0 91 4c 22
        E 16 b1 0b 2a
        E 16 b1 0b 33
        E 16 b1 0b 3b
        E 16 b1 0b 44
        E 16 b1 0b 3b
        E 16 b1 0b 33
        E 16 b1 0b 2a
        E 16 81 4c 00
        E 128 b1 0b 22
        E 0 91 49 22
        E 16 b1 0b 2a
        E 16 b1 0b 33
        E 16 b1 0b 3b
        E 16 b1 0b 44
        E 16 b1 0b 3b
        E 16 b1 0b 33
        E 16 b1 0b 2a
        E 16 81 49 00
        E 128 b1 0b 22
        E 0 91 4c 22
        E 16 b1 0b 2a
        E 16 b1 0b 33
        E 16 b1 0b 3b
        E 16 b1 0b 44
        E 16 b1 0b 3b
        E 16 b1 0b 33
        E 16 b1 0b 2a
        E 16 81 4c 00
        E 128 b1 0b 22
        E 0 91 49 22
        E 16 b1 0b 2a
        E 16 b1 0b 33
        E 16 b1 0b 3b
        E 16 b1 0b 44
        E 16 b1 0b 3b
        E 16 b1 0b 33
        E 16 b1 0b 2a
        E 16 b1 0b 22
        E 0 81 49 00
        E 0 91 38 22
        E 16 b1 0b 2a
        E 16 b1 0b 33
        E 16 b1 0b 3b
        E 16 b1 0b 44
        E 16 b1 0b 3b
        E 16 b1 0b 33
        E 16 b1 0b 2a
        E 16 b1 0b 22
        E 0 81 38 00
        E 0 91 39 22
        E 16 b1 0b 2a
        E 16 b1 0b 33
        E 16 b1 0b 3b
        E 16 b1 0b 44
        E 16 b1 0b 3b
        E 16 b1 0b 33
        E 16 b1 0b 2a
        E 16 b1 0b 22
        E 0 81 39 00
        E 0 91 3a 22
        E 16 b1 0b 2a
        E 16 b1 0b 33
        E 16 b1 0b 3b
        E 16 b1 0b 44
        E 16 b1 0b 3b
        E 16 b1 0b 33
        E 16 b1 0b 2a
        E 16 b1 0b 22
        E 0 81 3a 00
        E 0 91 3b 22
        E 16 b1 0b 2a
        E 16 b1 0b 33
        E 16 b1 0b 3b
        E 16 b1 0b 44
        E 16 b1 0b 3b
        E 16 b1 0b 33
        E 16 b1 0b 2a
        E 16 b1 0b 22
        E 0 81 3b 00
        E 0 91 3d 22
        E 16 b1 0b 2a
        E 16 b1 0b 33
        E 16 b1 0b 3b
        E 16 b1 0b 44
        E 16 b1 0b 3b
        E 16 b1 0b 33
        E 16 b1 0b 2a
        E 16 b1 0b 22
        E 0 81 3d 00
        E 0 91 3e 22
        E 16 b1 0b 2a
        E 16 b1 0b 33
        E 16 b1 0b 3b
        E 16 b1 0b 44
        E 16 b1 0b 3b
        E 16 b1 0b 33
        E 16 b1 0b 2a
        E 16 b1 0b 22
        E 0 81 3e 00
        E 0 91 3f 22
        E 16 b1 0b 2a
        E 16 b1 0b 33
        E 16 b1 0b 3b
        E 16 b1 0b 44
        E 16 b1 0b 3b
        E 16 b1 0b 33
        E 16 b1 0b 2a
        E 16 b1 0b 22
        E 0 81 3f 00
        E 0 91 40 22
        E 16 b1 0b 2a
        E 16 b1 0b 33
        E 16 b1 0b 3b
        E 16 b1 0b 44
        E 16 b1 0b 3b
        E 16 b1 0b 33
        E 16 b1 0b 2a
        E 16 b1 0b 22
        E 0 81 40 00
        E 0 91 44 22
        E 16 b1 0b 2a
        E 16 b1 0b 33
        E 16 b1 0b 3b
        E 16 b1 0b 22
        E 0 81 44 00
        E 0 91 45 22
        E 16 b1 0b 2a
        E 16 b1 0b 33
        E 16 b1 0b 3b
        E 16 b1 0b 22
        E 0 81 45 00
        E 0 91 46 22
        E 16 b1 0b 2a
        E 16 b1 0b 33
        E 16 b1 0b 3b
        E 16 b1 0b 22
        E 0 81 46 00
        E 0 91 47 22
        E 16 b1 0b 2a
        E 16 b1 0b 33
        E 16 b1 0b 3b
        E 16 b1 0b 22
        E 0 81 47 00
        E 0 91 48 22
        E 16 b1 0b 2a
        E 16 b1 0b 33
        E 16 b1 0b 3b
        E 16 b1 0b 22
        E 0 81 48 00
        E 0 91 49 22
        E 16 b1 0b 2a
        E 16 b1 0b 33
        E 16 b1 0b 3b
        E 16 b1 0b 22
        E 0 81 49 00
        E 0 91 4a 22
        E 16 b1 0b 2a
        E 16 b1 0b 33
        E 16 b1 0b 3b
        E 16 b1 0b 22
        E 0 81 4a 00
        E 0 91 4b 22
        E 16 b1 0b 2a
        E 16 b1 0b 33
        E 16 b1 0b 3b
        E 16 b1 0b 22
        E 0 81 4b 00
        E 0 91 4c 22
        E 16 b1 0b 2a
        E 16 b1 0b 33
        E 16 b1 0b 3b
        E 16 81 4c 00
        E 192 b1 0b 22
        E 0 91 38 22
        E 16 b1 0b 2a
        E 16 b1 0b 33
        E 16 b1 0b 3b
        E 16 b1 0b 44
        E 16 b1 0b 3b
        E 16 b1 0b 33
        E 16 b1 0b 2a
        E 16 81 38 00
        E 128 b1 0b 22
        E 0 91 3d 22
        E 16 b1 0b 2a
        E 16 b1 0b 33
        E 16 b1 0b 3b
        E 16 b1 0b 44
        E 16 b1 0b 3b
        E 16 b1 0b 33
        E 16 b1 0b 2a
        E 16 b1 0b 22
        E 0 81 3d 00
        E 0 91 3e 22
        E 16 b1 0b 2a
        E 16 b1 0b 33
        E 16 b1 0b 3b
        E 16 b1 0b 44
        E 16 b1 0b 3b
        E 16 b1 0b 33
        E 16 b1 0b 2a
        E 16 81 3e 00
        E 128 b1 0b 22
        E 0 91 40 22
        E 16 b1 0b 2a
        E 16 b1 0b 33
        E 16 b1 0b 3b
        E 16 b1 0b 44
        E 16 b1 0b 3b
        E 16 b1 0b 33
        E 16 b1 0b 2a
        E 16 81 40 00
        E 128 b1 0b 22
        E 0 91 47 22
        E 16 b1 0b 2a
        E 16 b1 0b 33
        E 16 b1 0b 3b
        E 16 b1 0b 22
        E 0 81 47 00
        E 0 91 40 22
        E 16 b1 0b 2a
        E 16 b1 0b 33
        E 16 b1 0b 3b
        E 16 b1 0b 22
        E 0 81 40 00
        E 0 91 47 22
        E 16 b1 0b 2a
        E 16 b1 0b 33
        E 16 b1 0b 3b
        E 16 b1 0b 22
        E 0 81 47 00
        E 0 91 40 22
        E 16 b1 0b 2a
        E 16 b1 0b 33
        E 16 b1 0b 3b
        E 16 b1 0b 22
        E 0 81 40 00
        E 0 91 47 22
        E 16 b1 0b 2a
        E 16 b1 0b 33
        E 16 b1 0b 3b
        E 16 b1 0b 22
        E 0 81 47 00
        E 0 91 40 22
        E 16 b1 0b 2a
        E 16 b1 0b 33
        E 16 b1 0b 3b
        E 16 b1 0b 22
        E 0 81 40 00
        E 0 91 45 22
        E 16 b1 0b 2a
        E 16 b1 0b 33
        E 16 b1 0b 3b
        E 16 b1 0b 22
        E 0 81 45 00
        E 0 91 3e 22
        E 16 b1 0b 2a
        E 16 b1 0b 33
        E 16 b1 0b 3b
        E 16 b1 0b 22
        E 0 81 3e 00
        E 0 91 45 22
        E 16 b1 0b 2a
        E 16 b1 0b 33
        E 16 b1 0b 3b
        E 16 b1 0b 22
        E 0 81 45 00
        E 0 91 3e 22
        E 16 b1 0b 2a
        E 16 b1 0b 33
        E 16 b1 0b 3b
        E 16 b1 0b 22
        E 0 81 3e 00
        E 0 91 45 22
        E 16 b1 0b 2a
        E 16 b1 0b 33
        E 16 b1 0b 3b
        E 16 b1 0b 22
        E 0 81 45 00
        E 0 91 3e 22
        E 16 b1 0b 2a
        E 16 b1 0b 33
        E 16 b1 0b 3b
        E 16 b1 0b 22
        E 0 81 3e 00
        E 0 91 45 22
        E 16 b1 0b 2a
        E 16 b1 0b 33
        E 16 b1 0b 3b
        E 16 b1 0b 22
        E 0 81 45 00
        E 0 91 3e 22
        E 16 b1 0b 2a
        E 16 b1 0b 33
        E 16 b1 0b 3b
        E 16 81 3e 00
        E 512 b1 0b 22
        E 0 91 39 22
        E 16 b1 0b 2a
        E 16 b1 0b 33
        E 16 b1 0b 3b
        E 16 b1 0b 22
        E 0 81 39 00
        E 0 91 32 22
        E 16 b1 0b 2a
        E 16 b1 0b 33
        E 16 b1 0b 3b
        E 16 b1 0b 22
        E 0 81 32 00
        E 0 91 39 22
        E 16 b1 0b 2a
        E 16 b1 0b 33
        E 16 b1 0b 3b
        E 16 b1 0b 22
        E 0 81 39 00
        E 0 91 32 22
        E 16 b1 0b 2a
        E 16 b1 0b 33
        E 16 b1 0b 3b
        E 16 b1 0b 22
        E 0 81 32 00
        E 0 91 42 22
        E 16 b1 0b 2a
        E 16 b1 0b 33
        E 16 b1 0b 3b
        E 16 b1 0b 44
        E 16 b1 0b 3b
        E 16 b1 0b 33
        E 16 b1 0b 2a
        E 16 81 42 00
        E 128 b1 0b 22
        E 0 91 40 22
        E 16 b1 0b 2a
        E 16 b1 0b 33
        E 16 b1 0b 3b
        E 16 b1 0b 44
        E 16 b1 0b 3b
        E 16 b1 0b 33
        E 16 b1 0b 2a
        E 16 81 40 00
        E 128 b1 0b 22
        E 0 91 3d 22
        E 16 b1 0b 2a
        E 16 b1 0b 33
        E 16 b1 0b 3b
        E 16 b1 0b 22
        E 0 81 3d 00
        E 0 91 39 22
        E 16 b1 0b 2a
        E 16 b1 0b 33
        E 16 b1 0b 3b
        E 16 b1 0b 22
        E 0 81 39 00
        E 0 91 3d 22
        E 16 b1 0b 2a
        E 16 b1 0b 33
        E 16 b1 0b 3b
        E 16 b1 0b 22
        E 0 81 3d 00
        E 0 91 39 22
        E 16 b1 0b 2a
        E 16 b1 0b 33
        E 16 b1 0b 3b
        E 16 b1 0b 22
        E 0 81 39 00
        E 0 91 3b 22
        E 16 b1 0b 2a
        E 16 b1 0b 33
        E 16 b1 0b 3b
        E 16 b1 0b 22
        E 0 81 3b 00
        E 0 91 37 22
        E 16 b1 0b 2a
        E 16 b1 0b 33
        E 16 b1 0b 3b
        E 16 b1 0b 22
        E 0 81 37 00
        E 0 91 3b 22
        E 16 b1 0b 2a
        E 16 b1 0b 33
        E 16 b1 0b 3b
        E 16 b1 0b 22
        E 0 81 3b 00
        E 0 91 37 22
        E 16 b1 0b 2a
        E 16 b1 0b 33
        E 16 b1 0b 3b
        E 16 b1 0b 22
        E 0 81 37 00
        E 0 91 3b 22
        E 16 b1 0b 2a
        E 16 b1 0b 33
        E 16 b1 0b 3b
        E 16 b1 0b 22
        E 0 81 3b 00
        E 0 91 37 22
        E 16 b1 0b 2a
        E 16 b1 0b 33
        E 16 b1 0b 3b
        E 16 b1 0b 22
        E 0 81 37 00
        E 0 91 3b 22
        E 16 b1 0b 2a
        E 16 b1 0b 33
        E 16 b1 0b 3b
        E 16 b1 0b 22
        E 0 81 3b 00
        E 0 91 37 22
        E 16 b1 0b 2a
        E 16 b1 0b 33
        E 16 b1 0b 3b
        E 16 81 37 00
        E 512 b1 0b 22
        E 0 91 3d 22
        E 16 b1 0b 2a
        E 16 b1 0b 33
        E 16 b1 0b 3b
        E 16 b1 0b 44
        E 16 b1 0b 3b
        E 16 b1 0b 33
        E 16 b1 0b 2a
        E 16 b1 0b 22
        E 0 81 3d 00
        E 0 91 3e 22
        E 16 b1 0b 2a
        E 16 b1 0b 33
        E 16 b1 0b 3b
        E 16 b1 0b 44
        E 16 b1 0b 3b
        E 16 b1 0b 33
        E 16 b1 0b 2a
        E 16 81 3e 00
        E 128 b1 0b 22
        E 0 91 40 22
        E 16 b1 0b 2a
        E 16 b1 0b 33
        E 16 b1 0b 3b
        E 16 b1 0b 44
        E 16 b1 0b 3b
        E 16 b1 0b 33
        E 16 b1 0b 2a
        E 16 81 40 00
        E 128 b1 0b 22
        E 0 91 47 22
        E 16 b1 0b 2a
        E 16 b1 0b 33
        E 16 b1 0b 3b
        E 16 b1 0b 22
        E 0 81 47 00
        E 0 91 40 22
        E 16 b1 0b 2a
        E 16 b1 0b 33
        E 16 b1 0b 3b
        E 16 b1 0b 22
        E 0 81 40 00
        E 0 91 47 22
        E 16 b1 0b 2a
        E 16 b1 0b 33
        E 16 b1 0b 3b
        E 16 b1 0b 22
        E 0 81 47 00
        E 0 91 40 22
        E 16 b1 0b 2a
        E 16 b1 0b 33
        E 16 b1 0b 3b
        E 16 b1 0b 22
        E 0 81 40 00
        E 0 91 47 22
        E 16 b1 0b 2a
        E 16 b1 0b 33
        E 16 b1 0b 3b
        E 16 b1 0b 22
        E 0 81 47 00
        E 0 91 40 22
        E 16 b1 0b 2a
        E 16 b1 0b 33
        E 16 b1 0b 3b
        E 16 b1 0b 22
        E 0 81 40 00
        E 0 91 45 22
        E 16 b1 0b 2a
        E 16 b1 0b 33
        E 16 b1 0b 3b
        E 16 b1 0b 22
        E 0 81 45 00
        E 0 91 3e 22
        E 16 b1 0b 2a
        E 16 b1 0b 33
        E 16 b1 0b 3b
        E 16 b1 0b 22
        E 0 81 3e 00
        E 0 91 45 22
        E 16 b1 0b 2a
        E 16 b1 0b 33
        E 16 b1 0b 3b
        E 16 b1 0b 22
        E 0 81 45 00
        E 0 91 3e 22
        E 16 b1 0b 2a
        E 16 b1 0b 33
        E 16 b1 0b 3b
        E 16 b1 0b 22
        E 0 81 3e 00
        E 0 91 45 22
        E 16 b1 0b 2a
        E 16 b1 0b 33
        E 16 b1 0b 3b
        E 16 b1 0b 22
        E 0 81 45 00
        E 0 91 3e 22
        E 16 b1 0b 2a
        E 16 b1 0b 33
        E 16 b1 0b 3b
        E 16 b1 0b 22
        E 0 81 3e 00
        E 0 91 45 22
        E 16 b1 0b 2a
        E 16 b1 0b 33
        E 16 b1 0b 3b
        E 16 b1 0b 22
        E 0 81 45 00
        E 0 91 3e 22
        E 16 b1 0b 2a
        E 16 b1 0b 33
        E 16 b1 0b 3b
        E 16 81 3e 00
        E 512 b1 0b 22
        E 0 91 39 22
        E 16 b1 0b 2a
        E 16 b1 0b 33
        E 16 b1 0b 3b
        E 16 b1 0b 22
        E 0 81 39 00
        E 0 91 32 22
        E 16 b1 0b 2a
        E 16 b1 0b 33
        E 16 b1 0b 3b
        E 16 b1 0b 22
        E 0 81 32 00
        E 0 91 39 22
        E 16 b1 0b 2a
        E 16 b1 0b 33
        E 16 b1 0b 3b
        E 16 b1 0b 22
        E 0 81 39 00
        E 0 91 32 22
        E 16 b1 0b 2a
        E 16 b1 0b 33
        E 16 b1 0b 3b
        E 16 b1 0b 22
        E 0 81 32 00
        E 0 91 42 22
        E 16 b1 0b 2a
        E 16 b1 0b 33
        E 16 b1 0b 3b
        E 16 b1 0b 44
        E 16 b1 0b 3b
        E 16 b1 0b 33
        E 16 b1 0b 2a
        E 16 81 42 00
        E 128 b1 0b 22
        E 0 91 40 22
        E 16 b1 0b 2a
        E 16 b1 0b 33
        E 16 b1 0b 3b
        E 16 b1 0b 44
        E 16 b1 0b 3b
        E 16 b1 0b 33
        E 16 b1 0b 2a
        E 16 81 40 00
        E 128 b1 0b 22
        E 0 91 3d 22
        E 16 b1 0b 2a
        E 16 b1 0b 33
        E 16 b1 0b 3b
        E 16 b1 0b 22
        E 0 81 3d 00
        E 0 91 39 22
        E 16 b1 0b 2a
        E 16 b1 0b 33
        E 16 b1 0b 3b
        E 16 b1 0b 22
        E 0 81 39 00
        E 0 91 3d 22
        E 16 b1 0b 2a
        E 16 b1 0b 33
        E 16 b1 0b 3b
        E 16 b1 0b 22
        E 0 81 3d 00
        E 0 91 39 22
        E 16 b1 0b 2a
        E 16 b1 0b 33
        E 16 b1 0b 3b
        E 16 b1 0b 22
        E 0 81 39 00
        E 0 91 3b 22
        E 16 b1 0b 2a
        E 16 b1 0b 33
        E 16 b1 0b 3b
        E 16 b1 0b 22
        E 0 81 3b 00
        E 0 91 37 22
        E 16 b1 0b 2a
        E 16 b1 0b 33
        E 16 b1 0b 3b
        E 16 b1 0b 22
        E 0 81 37 00
        E 0 91 3b 22
        E 16 b1 0b 2a
        E 16 b1 0b 33
        E 16 b1 0b 3b
        E 16 b1 0b 22
        E 0 81 3b 00
        E 0 91 37 22
        E 16 b1 0b 2a
        E 16 b1 0b 33
        E 16 b1 0b 3b
        E 16 b1 0b 22
        E 0 81 37 00
        E 0 91 3b 22
        E 16 b1 0b 2a
        E 16 b1 0b 33
        E 16 b1 0b 3b
        E 16 b1 0b 22
        E 0 81 3b 00
        E 0 91 37 22
        E 16 b1 0b 2a
        E 16 b1 0b 33
        E 16 b1 0b 3b
        E 16 b1 0b 22
        E 0 81 37 00
        E 0 91 3b 22
        E 16 b1 0b 2a
        E 16 b1 0b 33
        E 16 b1 0b 3b
        E 16 b1 0b 22
        E 0 81 3b 00
        E 0 91 37 22
        E 16 b1 0b 2a
        E 16 b1 0b 33
        E 16 b1 0b 3b
        E 16 81 37 00
        E 512 b1 0b 22
        E 0 91 42 22
        E 16 b1 0b 2a
        E 16 b1 0b 33
        E 16 b1 0b 3b
        E 16 b1 0b 44
        E 16 b1 0b 3b
        E 16 b1 0b 33
        E 16 b1 0b 2a
        E 16 b1 0b 22
        E 16 b1 0b 2a
        E 16 b1 0b 33
        E 16 b1 0b 3b
        E 16 b1 0b 44
        E 16 b1 0b 3b
        E 16 b1 0b 33
        E 16 b1 0b 2a
        E 16 b1 0b 22
        E 0 81 42 00
        E 0 91 40 22
        E 16 b1 0b 2a
        E 16 b1 0b 33
        E 16 b1 0b 3b
        E 16 b1 0b 44
        E 16 b1 0b 3b
        E 16 b1 0b 33
        E 16 b1 0b 2a
        E 16 b1 0b 22
        E 0 81 40 00
        E 0 91 42 22
        E 16 b1 0b 2a
        E 16 b1 0b 33
        E 16 b1 0b 3b
        E 16 b1 0b 44
        E 16 b1 0b 3b
        E 16 b1 0b 33
        E 16 b1 0b 2a
        E 16 81 42 00
        E 128 b1 0b 22
        E 0 91 44 22
        E 16 b1 0b 2a
        E 16 b1 0b 33
        E 16 b1 0b 3b
        E 16 b1 0b 44
        E 16 b1 0b 3b
        E 16 b1 0b 33
        E 16 b1 0b 2a
        E 16 81 44 00
        E 256 b1 0b 22
        E 0 91 45 22
        E 16 b1 0b 2a
        E 16 b1 0b 33
        E 16 b1 0b 3b
        E 16 b1 0b 44
        E 16 b1 0b 3b
        E 16 b1 0b 33
        E 16 b1 0b 2a
        E 16 81 45 00
        E 384 b1 0b 22
        E 0 91 40 22
        E 16 b1 0b 2a
        E 16 b1 0b 33
        E 16 b1 0b 3b
        E 16 b1 0b 44
        E 16 b1 0b 3b
        E 16 b1 0b 33
        E 16 b1 0b 2a
        E 16 81 40 00
        E 384 b1 0b 22
        E 0 91 42 22
        E 16 b1 0b 2a
        E 16 b1 0b 33
        E 16 b1 0b 3b
        E 16 b1 0b 22
        E 0 81 42 00
        E 0 91 32 22
        E 16 b1 0b 2a
        E 16 b1 0b 33
        E 16 b1 0b 3b
        E 16 b1 0b 22
        E 0 81 32 00
        E 0 91 42 22
        E 16 b1 0b 2a
        E 16 b1 0b 33
        E 16 b1 0b 3b
        E 16 b1 0b 22
        E 0 81 42 00
        E 0 91 32 22
        E 16 b1 0b 2a
        E 16 b1 0b 33
        E 16 b1 0b 3b
        E 16 b1 0b 22
        E 0 81 32 00
        E 0 91 42 22
        E 16 b1 0b 2a
        E 16 b1 0b 33
        E 16 b1 0b 3b
        E 16 b1 0b 22
        E 0 81 42 00
        E 0 91 32 22
        E 16 b1 0b 2a
        E 16 b1 0b 33
        E 16 b1 0b 3b
        E 16 b1 0b 22
        E 0 81 32 00
        E 0 91 45 22
        E 16 b1 0b 2a
        E 16 b1 0b 33
        E 16 b1 0b 3b
        E 16 b1 0b 22
        E 0 81 45 00
        E 0 91 42 22
        E 16 b1 0b 2a
        E 16 b1 0b 33
        E 16 b1 0b 3b
        E 16 b1 0b 22
        E 0 81 42 00
        E 0 91 45 22
        E 16 b1 0b 2a
        E 16 b1 0b 33
        E 16 b1 0b 3b
        E 16 b1 0b 22
        E 0 81 45 00
        E 0 91 42 22
        E 16 b1 0b 2a
        E 16 b1 0b 33
        E 16 b1 0b 3b
        E 16 b1 0b 22
        E 0 81 42 00
        E 0 91 45 22
        E 16 b1 0b 2a
        E 16 b1 0b 33
        E 16 b1 0b 3b
        E 16 b1 0b 22
        E 0 81 45 00
        E 0 91 42 22
        E 16 b1 0b 2a
        E 16 b1 0b 33
        E 16 b1 0b 3b
        E 16 b1 0b 22
        E 0 81 42 00
        E 0 91 4a 22
        E 16 b1 0b 2a
        E 16 b1 0b 33
        E 16 b1 0b 3b
        E 16 b1 0b 22
        E 0 81 4a 00
        E 0 91 45 22
        E 16 b1 0b 2a
        E 16 b1 0b 33
        E 16 b1 0b 3b
        E 16 b1 0b 22
        E 0 81 45 00
        E 0 91 4a 22
        E 16 b1 0b 2a
        E 16 b1 0b 33
        E 16 b1 0b 3b
        E 16 b1 0b 22
        E 0 81 4a 00
        E 0 91 45 22
        E 16 b1 0b 2a
        E 16 b1 0b 33
        E 16 b1 0b 3b
        E 16 b1 0b 22
        E 0 81 45 00
        E 0 91 49 22
        E 16 b1 0b 2a
        E 16 b1 0b 33
        E 16 b1 0b 3b
        E 16 b1 0b 22
        E 0 81 49 00
        E 0 91 45 22
        E 16 b1 0b 2a
        E 16 b1 0b 33
        E 16 b1 0b 3b
        E 16 b1 0b 22
        E 0 81 45 00
        E 0 91 49 22
        E 16 b1 0b 2a
        E 16 b1 0b 33
        E 16 b1 0b 3b
        E 16 b1 0b 22
        E 0 81 49 00
        E 0 91 45 22
        E 16 b1 0b 2a
        E 16 b1 0b 33
        E 16 b1 0b 3b
        E 16 b1 0b 22
        E 0 81 45 00
        E 0 91 49 22
        E 16 b1 0b 2a
        E 16 b1 0b 33
        E 16 b1 0b 3b
        E 16 b1 0b 22
        E 0 81 49 00
        E 0 91 45 22
        E 16 b1 0b 2a
        E 16 b1 0b 33
        E 16 b1 0b 3b
        E 16 b1 0b 22
        E 0 81 45 00
        E 0 91 49 22
        E 16 b1 0b 2a
        E 16 b1 0b 33
        E 16 b1 0b 3b
        E 16 b1 0b 22
        E 0 81 49 00
        E 0 91 45 22
        E 16 b1 0b 2a
        E 16 b1 0b 33
        E 16 b1 0b 3b
        E 16 b1 0b 22
        E 0 81 45 00
        E 0 91 40 22
        E 16 b1 0b 2a
        E 16 b1 0b 33
        E 16 b1 0b 3b
        E 16 b1 0b 22
        E 0 81 40 00
        E 0 91 3d 22
        E 16 b1 0b 2a
        E 16 b1 0b 33
        E 16 b1 0b 3b
        E 16 b1 0b 22
        E 0 81 3d 00
        E 0 91 40 22
        E 16 b1 0b 2a
        E 16 b1 0b 33
        E 16 b1 0b 3b
        E 16 b1 0b 22
        E 0 81 40 00
        E 0 91 3d 22
        E 16 b1 0b 2a
        E 16 b1 0b 33
        E 16 b1 0b 3b
        E 16 b1 0b 22
        E 0 81 3d 00
        E 0 91 40 22
        E 16 b1 0b 2a
        E 16 b1 0b 33
        E 16 b1 0b 3b
        E 16 b1 0b 22
        E 0 81 40 00
        E 0 91 3d 22
        E 16 b1 0b 2a
        E 16 b1 0b 33
        E 16 b1 0b 3b
        E 16 b1 0b 22
        E 0 81 3d 00
        E 0 91 40 22
        E 16 b1 0b 2a
        E 16 b1 0b 33
        E 16 b1 0b 3b
        E 16 b1 0b 22
        E 0 81 40 00
        E 0 91 3d 22
        E 16 b1 0b 2a
        E 16 b1 0b 33
        E 16 b1 0b 3b
        E 16 b1 0b 22
        E 0 81 3d 00
        E 0 91 42 22
        E 16 b1 0b 2a
        E 16 b1 0b 33
        E 16 b1 0b 3b
        E 16 b1 0b 44
        E 16 b1 0b 3b
        E 16 b1 0b 33
        E 16 b1 0b 2a
        E 16 b1 0b 22
        E 16 b1 0b 2a
        E 16 b1 0b 33
        E 16 b1 0b 3b
        E 16 b1 0b 44
        E 16 b1 0b 3b
        E 16 b1 0b 33
        E 16 b1 0b 2a
        E 16 b1 0b 22
        E 0 81 42 00
        E 0 91 40 22
        E 16 b1 0b 2a
        E 16 b1 0b 33
        E 16 b1 0b 3b
        E 16 b1 0b 44
        E 16 b1 0b 3b
        E 16 b1 0b 33
        E 16 b1 0b 2a
        E 16 b1 0b 22
        E 0 81 40 00
        E 0 91 42 22
        E 16 b1 0b 2a
        E 16 b1 0b 33
        E 16 b1 0b 3b
        E 16 b1 0b 44
        E 16 b1 0b 3b
        E 16 b1 0b 33
        E 16 b1 0b 2a
        E 16 81 42 00
        E 128 b1 0b 22
        E 0 91 44 22
        E 16 b1 0b 2a
        E 16 b1 0b 33
        E 16 b1 0b 3b
        E 16 b1 0b 44
        E 16 b1 0b 3b
        E 16 b1 0b 33
        E 16 b1 0b 2a
        E 16 81 44 00
        E 256 b1 0b 22
        E 0 91 45 22
        E 16 b1 0b 2a
        E 16 b1 0b 33
        E 16 b1 0b 3b
        E 16 b1 0b 44
        E 16 b1 0b 3b
        E 16 b1 0b 33
        E 16 b1 0b 2a
        E 16 81 45 00
        E 384 b1 0b 22
        E 0 91 49 22
        E 16 b1 0b 2a
        E 16 b1 0b 33
        E 16 b1 0b 3b
        E 16 b1 0b 44
        E 16 b1 0b 3b
        E 16 b1 0b 33
        E 16 b1 0b 2a
        E 16 81 49 00
        E 384 b1 0b 22
        E 0 91 45 22
        E 16 b1 0b 2a
        E 16 b1 0b 33
        E 16 b1 0b 3b
        E 16 b1 0b 44
        E 16 b1 0b 3b
        E 16 b1 0b 33
        E 16 b1 0b 2a
        E 16 81 45 00
        E 896 b1 0b 22
        E 0 91 40 22
        E 16 b1 0b 2a
        E 16 b1 0b 33
        E 16 b1 0b 3b
        E 16 b1 0b 44
        E 16 b1 0b 3b
        E 16 b1 0b 33
        E 16 b1 0b 2a
        E 16 81 40 00
        E 896 b1 0b 22
        E 0 91 45 22
        E 16 b1 0b 2a
        E 16 b1 0b 33
        E 16 b1 0b 3b
        E 16 b1 0b 44
        E 16 b1 0b 3b
        E 16 b1 0b 33
        E 16 b1 0b 2a
        E 16 b1 0b 22
        E 16 b1 0b 2a
        E 16 b1 0b 33
        E 16 b1 0b 3b
        E 16 b1 0b 44
        E 16 b1 0b 3b
        E 16 b1 0b 33
        E 16 b1 0b 2a
        E 16 b1 0b 22
        E 16 b1 0b 2a
        E 16 b1 0b 33
        E 16 b1 0b 3b
        E 16 b1 0b 44
        E 16 b1 0b 3b
        E 16 b1 0b 33
        E 16 b1 0b 2a
        E 16 b1 0b 22
        E 16 b1 0b 2a
        E 16 b1 0b 33
        E 16 b1 0b 3b
        E 16 b1 0b 44
        E 16 b1 0b 3b
        E 16 b1 0b 33
        E 16 b1 0b 2a
        E 16 81 45 00
        E 128 b1 0b 22
        E 0 91 45 22
        E 16 b1 0b 2a
        E 16 b1 0b 33
        E 16 b1 0b 3b
        E 16 b1 0b 44
        E 16 b1 0b 3b
        E 16 b1 0b 33
        E 16 b1 0b 2a
        E 16 81 45 00
        E 128 b1 0b 22
        E 0 91 45 22
        E 16 b1 0b 2a
        E 16 b1 0b 33
        E 16 b1 0b 3b
        E 16 b1 0b 44
        E 16 b1 0b 3b
        E 16 b1 0b 33
        E 16 b1 0b 2a
        E 16 b1 0b 22
        E 16 b1 0b 2a
        E 16 b1 0b 33
        E 16 b1 0b 3b
        E 16 b1 0b 44
        E 16 b1 0b 3b
        E 16 b1 0b 33
        E 16 b1 0b 2a
        E 16 81 45 00
        E 4992 b1 0b 22
        E 0 91 49 22
        E 16 b1 0b 2a
        E 16 b1 0b 33
        E 16 b1 0b 3b
        E 16 b1 0b 44
        E 16 b1 0b 3b
        E 16 b1 0b 33
        E 16 b1 0b 2a
        E 16 b1 0b 22
        E 0 81 49 00
        E 0 91 47 22
        E 16 b1 0b 2a
        E 16 b1 0b 33
        E 16 b1 0b 3b
        E 16 b1 0b 44
        E 16 b1 0b 3b
        E 16 b1 0b 33
        E 16 b1 0b 2a
        E 16 81 47 00
        E 128 b1 0b 22
        E 0 91 40 22
        E 16 b1 0b 2a
        E 16 b1 0b 33
        E 16 b1 0b 3b
        E 16 b1 0b 44
        E 16 b1 0b 3b
        E 16 b1 0b 33
        E 16 b1 0b 2a
        E 16 81 40 00
        E 128 b1 0b 22
        E 0 91 47 22
        E 16 b1 0b 2a
        E 16 b1 0b 33
        E 16 b1 0b 3b
        E 16 b1 0b 44
        E 16 b1 0b 3b
        E 16 b1 0b 33
        E 16 b1 0b 2a
        E 16 81 47 00
        E 128 b1 0b 22
        E 0 91 45 22
        E 16 b1 0b 2a
        E 16 b1 0b 33
        E 16 b1 0b 3b
        E 16 b1 0b 44
        E 16 b1 0b 3b
        E 16 b1 0b 33
        E 16 b1 0b 2a
        E 16 b1 0b 22
        E 0 81 45 00
        E 0 91 49 22
        E 16 b1 0b 2a
        E 16 b1 0b 33
        E 16 b1 0b 3b
        E 16 b1 0b 44
        E 16 b1 0b 3b
        E 16 b1 0b 33
        E 16 b1 0b 2a
        E 16 b1 0b 22
        E 0 81 49 00
        E 0 91 47 22
        E 16 b1 0b 2a
        E 16 b1 0b 33
        E 16 b1 0b 3b
        E 16 b1 0b 44
        E 16 b1 0b 3b
        E 16 b1 0b 33
        E 16 b1 0b 2a
        E 16 81 47 00
        E 128 b1 0b 22
        E 0 91 40 22
        E 16 b1 0b 2a
        E 16 b1 0b 33
        E 16 b1 0b 3b
        E 16 b1 0b 44
        E 16 b1 0b 3b
        E 16 b1 0b 33
        E 16 b1 0b 2a
        E 16 81 40 00
        E 128 b1 0b 22
        E 0 91 47 22
        E 16 b1 0b 2a
        E 16 b1 0b 33
        E 16 b1 0b 3b
        E 16 b1 0b 44
        E 16 b1 0b 3b
        E 16 b1 0b 33
        E 16 b1 0b 2a
        E 16 81 47 00
        E 128 b1 0b 22
        E 0 91 45 22
        E 16 b1 0b 2a
        E 16 b1 0b 33
        E 16 b1 0b 3b
        E 16 b1 0b 44
        E 16 b1 0b 3b
        E 16 b1 0b 33
        E 16 b1 0b 2a
        E 16 81 45 00
        E 1024 b1 0b 22
        E 0 91 3b 22
        E 16 b1 0b 2a
        E 16 b1 0b 33
        E 16 b1 0b 3b
        E 16 81 3b 00
        E 192 b1 0b 22
        E 0 91 40 22
        E 16 b1 0b 2a
        E 16 b1 0b 33
        E 16 b1 0b 3b
        E 16 81 40 00
        E 192 b1 0b 22
        E 0 91 47 22
        E 16 b1 0b 2a
        E 16 b1 0b 33
        E 16 b1 0b 3b
        E 16 81 47 00
        E 192 b1 0b 22
        E 0 91 28 22
        E 16 b1 0b 2a
        E 16 b1 0b 33
        E 16 b1 0b 3b
        E 16 b1 0b 44
        E 16 b1 0b 3b
        E 16 b1 0b 33
        E 16 b1 0b 2a
        E 16 81 28 00
        E 384 b1 0b 22
        E 0 91 34 22
        E 16 b1 0b 2a
        E 16 b1 0b 33
        E 16 b1 0b 3b
        E 16 b1 0b 44
        E 16 b1 0b 3b
        E 16 b1 0b 33
        E 16 b1 0b 2a
        E 16 81 34 00
        E 384 b1 0b 22
        E 0 91 34 22
        E 16 b1 0b 2a
        E 16 b1 0b 33
        E 16 b1 0b 3b
        E 16 b1 0b 44
        E 16 b1 0b 3b
        E 16 b1 0b 33
        E 16 b1 0b 2a
        E 16 81 34 00
        E 384 b1 0b 22
        E 0 91 36 22
        E 16 b1 0b 2a
        E 16 b1 0b 33
        E 16 b1 0b 3b
        E 16 b1 0b 44
        E 16 b1 0b 3b
        E 16 b1 0b 33
        E 16 b1 0b 2a
        E 16 81 36 00
        E 384 b1 0b 22
        E 0 91 38 22
        E 16 b1 0b 2a
        E 16 b1 0b 33
        E 16 b1 0b 3b
        E 16 b1 0b 44
        E 16 b1 0b 3b
        E 16 b1 0b 33
        E 16 b1 0b 2a
        E 16 81 38 00
        E 384 b1 0b 22
        E 0 91 39 22
        E 16 b1 0b 2a
        E 16 b1 0b 33
        E 16 b1 0b 3b
        E 16 b1 0b 44
        E 16 b1 0b 3b
        E 16 b1 0b 33
        E 16 b1 0b 2a
        E 16 81 39 00
        E 384 b1 0b 22
        E 0 91 39 22
        E 16 b1 0b 2a
        E 16 b1 0b 33
        E 16 b1 0b 3b
        E 16 b1 0b 44
        E 16 b1 0b 3b
        E 16 b1 0b 33
        E 16 b1 0b 2a
        E 16 81 39 00
        E 384 b1 0b 22
        E 0 91 32 22
        E 16 b1 0b 2a
        E 16 b1 0b 33
        E 16 b1 0b 3b
        E 16 b1 0b 44
        E 16 b1 0b 3b
        E 16 b1 0b 33
        E 16 b1 0b 2a
        E 16 81 32 00
        E 384 b1 0b 22
        E 0 91 32 22
        E 16 b1 0b 2a
        E 16 b1 0b 33
        E 16 b1 0b 3b
        E 16 b1 0b 44
        E 16 b1 0b 3b
        E 16 b1 0b 33
        E 16 b1 0b 2a
        E 16 81 32 00
        E 384 b1 0b 22
        E 0 91 34 22
        E 16 b1 0b 2a
        E 16 b1 0b 33
        E 16 b1 0b 3b
        E 16 b1 0b 44
        E 16 b1 0b 3b
        E 16 b1 0b 33
        E 16 b1 0b 2a
        E 16 81 34 00
        E 384 b1 0b 22
        E 0 91 34 22
        E 16 b1 0b 2a
        E 16 b1 0b 33
        E 16 b1 0b 3b
        E 16 b1 0b 44
        E 16 b1 0b 3b
        E 16 b1 0b 33
        E 16 b1 0b 2a
        E 16 81 34 00
        E 384 b1 0b 22
        E 0 91 36 22
        E 16 b1 0b 2a
        E 16 b1 0b 33
        E 16 b1 0b 3b
        E 16 b1 0b 44
        E 16 b1 0b 3b
        E 16 b1 0b 33
        E 16 b1 0b 2a
        E 16 81 36 00
        E 384 b1 0b 22
        E 0 91 38 22
        E 16 b1 0b 2a
        E 16 b1 0b 33
        E 16 b1 0b 3b
        E 16 b1 0b 44
        E 16 b1 0b 3b
        E 16 b1 0b 33
        E 16 b1 0b 2a
        E 16 81 38 00
        E 384 b1 0b 22
        E 0 91 39 22
        E 16 b1 0b 2a
        E 16 b1 0b 33
        E 16 b1 0b 3b
        E 16 b1 0b 44
        E 16 b1 0b 3b
        E 16 b1 0b 33
        E 16 b1 0b 2a
        E 16 81 39 00
        E 384 b1 0b 22
        E 0 91 39 22
        E 16 b1 0b 2a
        E 16 b1 0b 33
        E 16 b1 0b 3b
        E 16 b1 0b 44
        E 16 b1 0b 3b
        E 16 b1 0b 33
        E 16 b1 0b 2a
        E 16 81 39 00
        E 384 b1 0b 22
        E 0 91 32 22
        E 16 b1 0b 2a
        E 16 b1 0b 33
        E 16 b1 0b 3b
        E 16 b1 0b 44
        E 16 b1 0b 3b
        E 16 b1 0b 33
        E 16 b1 0b 2a
        E 16 81 32 00
        E 384 b1 0b 22
        E 0 91 32 22
        E 16 b1 0b 2a
        E 16 b1 0b 33
        E 16 b1 0b 3b
        E 16 b1 0b 44
        E 16 b1 0b 3b
        E 16 b1 0b 33
        E 16 b1 0b 2a
        E 16 81 32 00
        E 128 b1 0b 22
        E 0 91 39 22
        E 16 b1 0b 2a
        E 16 b1 0b 33
        E 16 b1 0b 3b
        E 16 b1 0b 44
        E 16 b1 0b 3b
        E 16 b1 0b 33
        E 16 b1 0b 2a
        E 16 b1 0b 22
        E 16 b1 0b 2a
        E 16 b1 0b 33
        E 16 b1 0b 3b
        E 16 b1 0b 44
        E 16 b1 0b 3b
        E 16 b1 0b 33
        E 16 b1 0b 2a
        E 16 b1 0b 22
        E 16 b1 0b 2a
        E 16 b1 0b 33
        E 16 b1 0b 3b
        E 16 b1 0b 44
        E 16 b1 0b 3b
        E 16 b1 0b 33
        E 16 b1 0b 2a
        E 16 b1 0b 22
        E 16 b1 0b 2a
        E 16 b1 0b 33
        E 16 b1 0b 3b
        E 16 b1 0b 44
        E 16 b1 0b 3b
        E 16 b1 0b 33
        E 16 b1 0b 2a
        E 16 81 39 00
        E 128 b1 0b 22
        E 0 91 3b 22
        E 16 b1 0b 2a
        E 16 b1 0b 33
        E 16 b1 0b 3b
        E 16 b1 0b 44
        E 16 b1 0b 3b
        E 16 b1 0b 33
        E 16 b1 0b 2a
        E 16 81 3b 00
        E 256 b1 0b 22
        E 0 91 3d 22
        E 16 b1 0b 2a
        E 16 b1 0b 33
        E 16 b1 0b 3b
        E 16 b1 0b 44
        E 16 b1 0b 3b
        E 16 b1 0b 33
        E 16 b1 0b 2a
        E 16 81 3d 00
        E 384 b1 0b 22
        E 0 91 39 22
        E 16 b1 0b 2a
        E 16 b1 0b 33
        E 16 b1 0b 3b
        E 16 b1 0b 44
        E 16 b1 0b 3b
        E 16 b1 0b 33
        E 16 b1 0b 2a
        E 16 81 39 00
        E 640 b1 0b 22
        E 0 91 42 22
        E 16 b1 0b 2a
        E 16 b1 0b 33
        E 16 b1 0b 3b
        E 16 b1 0b 44
        E 16 b1 0b 3b
        E 16 b1 0b 33
        E 16 b1 0b 2a
        E 16 81 42 00
        E 384 b1 0b 22
        E 0 91 42 22
        E 16 b1 0b 2a
        E 16 b1 0b 33
        E 16 b1 0b 3b
        E 16 b1 0b 44
        E 16 b1 0b 3b
        E 16 b1 0b 33
        E 16 b1 0b 2a
        E 16 81 42 00
        E 384 b1 0b 22
        E 0 91 3d 22
        E 16 b1 0b 2a
        E 16 b1 0b 33
        E 16 b1 0b 3b
        E 16 b1 0b 44
        E 16 b1 0b 3b
        E 16 b1 0b 33
        E 16 b1 0b 2a
        E 16 81 3d 00
        E 384 b1 0b 22
        E 0 91 3d 22
        E 16 b1 0b 2a
        E 16 b1 0b 33
        E 16 b1 0b 3b
        E 16 b1 0b 44
        E 16 b1 0b 3b
        E 16 b1 0b 33
        E 16 b1 0b 2a
        E 16 81 3d 00
        E 128 b1 0b 22
        E 0 91 39 22
        E 16 b1 0b 2a
        E 16 b1 0b 33
        E 16 b1 0b 3b
        E 16 b1 0b 44
        E 16 b1 0b 3b
        E 16 b1 0b 33
        E 16 b1 0b 2a
        E 16 b1 0b 22
        E 16 b1 0b 2a
        E 16 b1 0b 33
        E 16 b1 0b 3b
        E 16 b1 0b 44
        E 16 b1 0b 3b
        E 16 b1 0b 33
        E 16 b1 0b 2a
        E 16 b1 0b 22
        E 16 b1 0b 2a
        E 16 b1 0b 33
        E 16 b1 0b 3b
        E 16 b1 0b 44
        E 16 b1 0b 3b
        E 16 b1 0b 33
        E 16 b1 0b 2a
        E 16 b1 0b 22
        E 16 b1 0b 2a
        E 16 b1 0b 33
        E 16 b1 0b 3b
        E 16 b1 0b 44
        E 16 b1 0b 3b
        E 16 b1 0b 33
        E 16 b1 0b 2a
        E 16 81 39 00
        E 128 b1 0b 22
        E 0 91 3b 22
        E 16 b1 0b 2a
        E 16 b1 0b 33
        E 16 b1 0b 3b
        E 16 b1 0b 44
        E 16 b1 0b 3b
        E 16 b1 0b 33
        E 16 b1 0b 2a
        E 16 81 3b 00
        E 256 b1 0b 22
        E 0 91 3d 22
        E 16 b1 0b 2a
        E 16 b1 0b 33
        E 16 b1 0b 3b
        E 16 b1 0b 44
        E 16 b1 0b 3b
        E 16 b1 0b 33
        E 16 b1 0b 2a
        E 16 81 3d 00
        E 384 b1 0b 22
        E 0 91 45 22
        E 16 b1 0b 2a
        E 16 b1 0b 33
        E 16 b1 0b 3b
        E 16 b1 0b 44
        E 16 b1 0b 3b
        E 16 b1 0b 33
        E 16 b1 0b 2a
        E 16 b1 0b 22
        E 0 81 45 00
        E 0 91 40 22
        E 16 b1 0b 2a
        E 16 b1 0b 33
        E 16 b1 0b 3b
        E 16 b1 0b 44
        E 16 b1 0b 3b
        E 16 b1 0b 33
        E 16 b1 0b 2a
        E 16 b1 0b 22
        E 0 81 40 00
        E 0 91 3d 22
        E 16 b1 0b 2a
        E 16 b1 0b 33
        E 16 b1 0b 3b
        E 16 b1 0b 44
        E 16 b1 0b 3b
        E 16 b1 0b 33
        E 16 b1 0b 2a
        E 16 b1 0b 22
        E 0 81 3d 00
        E 0 91 39 22
        E 16 b1 0b 2a
        E 16 b1 0b 33
        E 16 b1 0b 3b
        E 16 b1 0b 44
        E 16 b1 0b 3b
        E 16 b1 0b 33
        E 16 b1 0b 2a
        E 16 b1 0b 22
        E 0 81 39 00
        E 0 91 34 22
        E 16 b1 0b 2a
        E 16 b1 0b 33
        E 16 b1 0b 3b
        E 16 b1 0b 44
        E 16 b1 0b 3b
        E 16 b1 0b 33
        E 16 b1 0b 2a
        E 16 b1 0b 22
        E 0 81 34 00
        E 0 91 36 22
        E 16 b1 0b 2a
        E 16 b1 0b 33
        E 16 b1 0b 3b
        E 16 b1 0b 44
        E 16 b1 0b 3b
        E 16 b1 0b 33
        E 16 b1 0b 2a
        E 16 b1 0b 22
        E 0 81 36 00
        E 0 91 34 22
        E 16 b1 0b 2a
        E 16 b1 0b 33
        E 16 b1 0b 3b
        E 16 b1 0b 44
        E 16 b1 0b 3b
        E 16 b1 0b 33
        E 16 b1 0b 2a
        E 16 b1 0b 22
        E 0 81 34 00
        E 0 91 36 22
        E 16 b1 0b 2a
        E 16 b1 0b 33
        E 16 b1 0b 3b
        E 16 b1 0b 44
        E 16 b1 0b 3b
        E 16 b1 0b 33
        E 16 b1 0b 2a
        E 16 b1 0b 22
        E 0 81 36 00
        E 0 91 34 22
        E 16 b1 0b 2a
        E 16 b1 0b 33
        E 16 b1 0b 3b
        E 16 b1 0b 44
        E 16 b1 0b 3b
        E 16 b1 0b 33
        E 16 b1 0b 2a
        E 16 b1 0b 22
        E 0 81 34 00
        E 0 91 36 22
        E 16 b1 0b 2a
        E 16 b1 0b 33
        E 16 b1 0b 3b
        E 16 b1 0b 44
        E 16 b1 0b 3b
        E 16 b1 0b 33
        E 16 b1 0b 2a
        E 16 b1 0b 22
        E 0 81 36 00
        E 0 91 34 22
        E 16 b1 0b 2a
        E 16 b1 0b 33
        E 16 b1 0b 3b
        E 16 b1 0b 44
        E 16 b1 0b 3b
        E 16 b1 0b 33
        E 16 b1 0b 2a
        E 16 b1 0b 22
        E 0 81 34 00
        E 0 91 36 22
        E 16 b1 0b 2a
        E 16 b1 0b 33
        E 16 b1 0b 3b
        E 16 b1 0b 44
        E 16 b1 0b 3b
        E 16 b1 0b 33
        E 16 b1 0b 2a
        E 16 b1 0b 22
        E 0 81 36 00
        E 0 91 39 22
        E 16 b1 0b 2a
        E 16 b1 0b 33
        E 16 b1 0b 3b
        E 16 b1 0b 44
        E 16 b1 0b 3b
        E 16 b1 0b 33
        E 16 b1 0b 2a
        E 16 b1 0b 22
        E 0 81 39 00
        E 0 91 3b 22
        E 16 b1 0b 2a
        E 16 b1 0b 33
        E 16 b1 0b 3b
        E 16 b1 0b 44
        E 16 b1 0b 3b
        E 16 b1 0b 33
        E 16 b1 0b 2a
        E 16 b1 0b 22
        E 0 81 3b 00
        E 0 91 39 22
        E 16 b1 0b 2a
        E 16 b1 0b 33
        E 16 b1 0b 3b
        E 16 b1 0b 44
        E 16 b1 0b 3b
        E 16 b1 0b 33
        E 16 b1 0b 2a
        E 16 b1 0b 22
        E 0 81 39 00
        E 0 91 3b 22
        E 16 b1 0b 2a
        E 16 b1 0b 33
        E 16 b1 0b 3b
        E 16 b1 0b 44
        E 16 b1 0b 3b
        E 16 b1 0b 33
        E 16 b1 0b 2a
        E 16 b1 0b 22
        E 0 81 3b 00
        E 0 91 39 22
        E 16 b1 0b 2a
        E 16 b1 0b 33
        E 16 b1 0b 3b
        E 16 b1 0b 44
        E 16 b1 0b 3b
        E 16 b1 0b 33
        E 16 b1 0b 2a
        E 16 b1 0b 22
        E 0 81 39 00
        E 0 91 3b 22
        E 16 b1 0b 2a
        E 16 b1 0b 33
        E 16 b1 0b 3b
        E 16 b1 0b 44
        E 16 b1 0b 3b
        E 16 b1 0b 33
        E 16 b1 0b 2a
        E 16 b1 0b 22
        E 0 81 3b 00
        E 0 91 39 22
        E 16 b1 0b 2a
        E 16 b1 0b 33
        E 16 b1 0b 3b
        E 16 b1 0b 44
        E 16 b1 0b 3b
        E 16 b1 0b 33
        E 16 b1 0b 2a
        E 16 b1 0b 22
        E 0 81 39 00
        E 0 91 3b 22
        E 16 b1 0b 2a
        E 16 b1 0b 33
        E 16 b1 0b 3b
        E 16 b1 0b 44
        E 16 b1 0b 3b
        E 16 b1 0b 33
        E 16 b1 0b 2a
        E 16 b1 0b 22
        E 0 81 3b 00
        E 0 91 42 22
        E 16 b1 0b 2a
        E 16 b1 0b 33
        E 16 b1 0b 3b
        E 16 b1 0b 44
        E 16 b1 0b 3b
        E 16 b1 0b 33
        E 16 b1 0b 2a
        E 16 b1 0b 22
        E 16 b1 0b 2a
        E 16 b1 0b 33
        E 16 b1 0b 3b
        E 16 b1 0b 44
        E 16 b1 0b 3b
        E 16 b1 0b 33
        E 16 b1 0b 2a
        E 16 b1 0b 22
        E 16 b1 0b 2a
        E 16 b1 0b 33
        E 16 b1 0b 3b
        E 16 b1 0b 44
        E 16 b1 0b 3b
        E 16 b1 0b 33
        E 16 b1 0b 2a
        E 16 b1 0b 22
        E 16 b1 0b 2a
        E 16 b1 0b 33
        E 16 b1 0b 3b
        E 16 b1 0b 44
        E 16 b1 0b 3b
        E 16 b1 0b 33
        E 16 b1 0b 2a
        E 16 81 42 00
        E 128 b1 0b 22
        E 0 91 42 22
        E 16 b1 0b 2a
        E 16 b1 0b 33
        E 16 b1 0b 3b
        E 16 b1 0b 44
        E 16 b1 0b 3b
        E 16 b1 0b 33
        E 16 b1 0b 2a
        E 16 81 42 00
        E 128 b1 0b 22
        E 0 91 42 22
        E 16 b1 0b 2a
        E 16 b1 0b 33
        E 16 b1 0b 3b
        E 16 b1 0b 44
        E 16 b1 0b 3b
        E 16 b1 0b 33
        E 16 b1 0b 2a
        E 16 b1 0b 22
        E 16 b1 0b 2a
        E 16 b1 0b 33
        E 16 b1 0b 3b
        E 16 b1 0b 44
        E 16 b1 0b 3b
        E 16 b1 0b 33
        E 16 b1 0b 2a
        E 16 81 42 00
        E 896 b1 0b 22
        E 0 91 2d 22
        E 16 b1 0b 2a
        E 16 b1 0b 33
        E 16 b1 0b 3b
        E 16 b1 0b 44
        E 16 b1 0b 3b
        E 16 b1 0b 33
        E 16 b1 0b 2a
        E 16 81 2d 00
        E 896 b1 0b 22
        E 0 91 2b 22
        E 16 b1 0b 2a
        E 16 b1 0b 33
        E 16 b1 0b 3b
        E 16 b1 0b 44
        E 16 b1 0b 3b
        E 16 b1 0b 33
        E 16 b1 0b 2a
        E 16 81 2b 00
        E 896 b1 0b 22
        E 0 91 4c 22
        E 16 b1 0b 2a
        E 16 b1 0b 33
        E 16 b1 0b 3b
        E 16 b1 0b 44
        E 16 b1 0b 3b
        E 16 b1 0b 33
        E 16 b1 0b 2a
        E 16 b1 0b 22
        E 0 81 4c 00
        E 0 91 4e 22
        E 16 b1 0b 2a
        E 16 b1 0b 33
        E 16 b1 0b 3b
        E 16 b1 0b 44
        E 16 b1 0b 3b
        E 16 b1 0b 33
        E 16 b1 0b 2a
        E 16 b1 0b 22
        E 0 81 4e 00
        E 0 91 4f 22
        E 16 b1 0b 2a
        E 16 b1 0b 33
        E 16 b1 0b 3b
        E 16 b1 0b 44
        E 16 b1 0b 3b
        E 16 b1 0b 33
        E 16 b1 0b 2a
        E 16 b1 0b 22
        E 0 81 4f 00
        E 0 91 50 22
        E 16 b1 0b 2a
        E 16 b1 0b 33
        E 16 b1 0b 3b
        E 16 b1 0b 44
        E 16 b1 0b 3b
        E 16 b1 0b 33
        E 16 b1 0b 2a
        E 16 b1 0b 22
        E 0 81 50 00
        E 0 91 51 22
        E 16 b1 0b 2a
        E 16 b1 0b 33
        E 16 b1 0b 3b
        E 16 b1 0b 44
        E 16 b1 0b 3b
        E 16 b1 0b 33
        E 16 b1 0b 2a
        E 16 b1 0b 22
        E 0 81 51 00
        E 0 91 53 22
        E 16 b1 0b 2a
        E 16 b1 0b 33
        E 16 b1 0b 3b
        E 16 b1 0b 44
        E 16 b1 0b 3b
        E 16 b1 0b 33
        E 16 b1 0b 2a
        E 16 b1 0b 22
        E 0 81 53 00
        E 0 91 54 22
        E 16 b1 0b 2a
        E 16 b1 0b 33
        E 16 b1 0b 3b
        E 16 b1 0b 44
        E 16 b1 0b 3b
        E 16 b1 0b 33
        E 16 b1 0b 2a
        E 16 b1 0b 22
        E 0 81 54 00
        E 0 91 55 22
        E 16 b1 0b 2a
        E 16 b1 0b 33
        E 16 b1 0b 3b
        E 16 b1 0b 44
        E 16 b1 0b 3b
        E 16 b1 0b 33
        E 16 b1 0b 2a
        E 16 b1 0b 22
        E 0 81 55 00
        E 0 91 4c 22
        E 16 b1 0b 2a
        E 16 b1 0b 33
        E 16 b1 0b 3b
        E 16 b1 0b 22
        E 0 81 4c 00
        E 0 91 4e 22
        E 16 b1 0b 2a
        E 16 b1 0b 33
        E 16 b1 0b 3b
        E 16 b1 0b 22
        E 0 81 4e 00
        E 0 91 4f 22
        E 16 b1 0b 2a
        E 16 b1 0b 33
        E 16 b1 0b 3b
        E 16 b1 0b 22
        E 0 81 4f 00
        E 0 91 4c 22
        E 16 b1 0b 2a
        E 16 b1 0b 33
        E 16 b1 0b 3b
        E 16 b1 0b 22
        E 0 81 4c 00
        E 0 91 51 22
        E 16 b1 0b 2a
        E 16 b1 0b 33
        E 16 b1 0b 3b
        E 16 b1 0b 22
        E 0 81 51 00
        E 0 91 52 22
        E 16 b1 0b 2a
        E 16 b1 0b 33
        E 16 b1 0b 3b
        E 16 b1 0b 22
        E 0 81 52 00
        E 0 91 53 22
        E 16 b1 0b 2a
        E 16 b1 0b 33
        E 16 b1 0b 3b
        E 16 b1 0b 22
        E 0 81 53 00
        E 0 91 54 22
        E 16 b1 0b 2a
        E 16 b1 0b 33
        E 16 b1 0b 3b
        E 16 b1 0b 22
        E 0 81 54 00
        E 0 91 58 22
        E 16 b1 0b 2a
        E 16 b1 0b 33
        E 16 b1 0b 3b
        E 16 81 58 00
        E 192 b1 0b 22
        E 0 91 28 22
        E 16 b1 0b 2a
        E 16 b1 0b 33
        E 16 b1 0b 3b
        E 16 b1 0b 44
        E 16 b1 0b 3b
        E 16 b1 0b 33
        E 16 b1 0b 2a
        E 16 81 28 00
        E 128 b1 0b 22
        E 0 91 2d 22
        E 16 b1 0b 2a
        E 16 b1 0b 33
        E 16 b1 0b 3b
        E 16 b1 0b 44
        E 16 b1 0b 3b
        E 16 b1 0b 33
        E 16 b1 0b 2a
        E 16 81 2d 00
        E 128 b1 0b 22
        E 0 91 49 22
        E 16 b1 0b 2a
        E 16 b1 0b 33
        E 16 b1 0b 3b
        E 16 b1 0b 44
        E 16 b1 0b 3b
        E 16 b1 0b 33
        E 16 b1 0b 2a
        E 16 81 49 00
        E 128 b1 0b 22
        E 0 91 25 22
        E 16 b1 0b 2a
        E 16 b1 0b 33
        E 16 b1 0b 3b
        E 16 b1 0b 44
        E 16 b1 0b 3b
        E 16 b1 0b 33
        E 16 b1 0b 2a
        E 16 81 25 00
        E 128 b1 0b 22
        E 0 91 45 22
        E 16 b1 0b 2a
        E 16 b1 0b 33
        E 16 b1 0b 3b
        E 16 b1 0b 44
        E 16 b1 0b 3b
        E 16 b1 0b 33
        E 16 b1 0b 2a
        E 16 81 45 00
        E 128 b1 0b 22
        E 0 91 23 22
        E 16 b1 0b 2a
        E 16 b1 0b 33
        E 16 b1 0b 3b
        E 16 b1 0b 44
        E 16 b1 0b 3b
        E 16 b1 0b 33
        E 16 b1 0b 2a
        E 16 81 23 00
        E 128 b1 0b 22
        E 0 91 4a 22
        E 16 b1 0b 2a
        E 16 b1 0b 33
        E 16 b1 0b 3b
        E 16 b1 0b 44
        E 16 b1 0b 3b
        E 16 b1 0b 33
        E 16 b1 0b 2a
        E 16 81 4a 00
        E 128 b1 0b 22
        E 0 91 28 22
        E 16 b1 0b 2a
        E 16 b1 0b 33
        E 16 b1 0b 3b
        E 16 b1 0b 44
        E 16 b1 0b 3b
        E 16 b1 0b 33
        E 16 b1 0b 2a
        E 16 81 28 00
        E 128 b1 0b 22
        E 0 91 4a 22
        E 16 b1 0b 2a
        E 16 b1 0b 33
        E 16 b1 0b 3b
        E 16 b1 0b 44
        E 16 b1 0b 3b
        E 16 b1 0b 33
        E 16 b1 0b 2a
        E 16 81 4a 00
        E 128 b1 0b 22
        E 0 91 26 22
        E 16 b1 0b 2a
        E 16 b1 0b 33
        E 16 b1 0b 3b
        E 16 b1 0b 44
        E 16 b1 0b 3b
        E 16 b1 0b 33
        E 16 b1 0b 2a
        E 16 81 26 00
        E 128 b1 0b 22
        E 0 91 4a 22
        E 16 b1 0b 2a
        E 16 b1 0b 33
        E 16 b1 0b 3b
        E 16 b1 0b 44
        E 16 b1 0b 3b
        E 16 b1 0b 33
        E 16 b1 0b 2a
        E 16 81 4a 00
        E 128 b1 0b 22
        E 0 91 25 22
        E 16 b1 0b 2a
        E 16 b1 0b 33
        E 16 b1 0b 3b
        E 16 b1 0b 44
        E 16 b1 0b 3b
        E 16 b1 0b 33
        E 16 b1 0b 2a
        E 16 81 25 00
        E 128 b1 0b 22
        E 0 91 4c 22
        E 16 b1 0b 2a
        E 16 b1 0b 33
        E 16 b1 0b 3b
        E 16 b1 0b 44
        E 16 b1 0b 3b
        E 16 b1 0b 33
        E 16 b1 0b 2a
        E 16 81 4c 00
        E 128 b1 0b 22
        E 0 91 2b 22
        E 16 b1 0b 2a
        E 16 b1 0b 33
        E 16 b1 0b 3b
        E 16 b1 0b 44
        E 16 b1 0b 3b
        E 16 b1 0b 33
        E 16 b1 0b 2a
        E 16 81 2b 00
        E 128 b1 0b 22
        E 0 91 47 22
        E 16 b1 0b 2a
        E 16 b1 0b 33
        E 16 b1 0b 3b
        E 16 b1 0b 44
        E 16 b1 0b 3b
        E 16 b1 0b 33
        E 16 b1 0b 2a
        E 16 81 47 00
        E 128 b1 0b 22
        E 0 91 28 22
        E 16 b1 0b 2a
        E 16 b1 0b 33
        E 16 b1 0b 3b
        E 16 b1 0b 44
        E 16 b1 0b 3b
        E 16 b1 0b 33
        E 16 b1 0b 2a
        E 16 81 28 00
        E 128 b1 0b 22
        E 0 91 44 22
        E 16 b1 0b 2a
        E 16 b1 0b 33
        E 16 b1 0b 3b
        E 16 b1 0b 44
        E 16 b1 0b 3b
        E 16 b1 0b 33
        E 16 b1 0b 2a
        E 16 81 44 00
        E 128 b1 0b 22
        E 0 91 2d 22
        E 16 b1 0b 2a
        E 16 b1 0b 33
        E 16 b1 0b 3b
        E 16 b1 0b 44
        E 16 b1 0b 3b
        E 16 b1 0b 33
        E 16 b1 0b 2a
        E 16 81 2d 00
        E 128 b1 0b 22
        E 0 91 49 22
        E 16 b1 0b 2a
        E 16 b1 0b 33
        E 16 b1 0b 3b
        E 16 b1 0b 44
        E 16 b1 0b 3b
        E 16 b1 0b 33
        E 16 b1 0b 2a
        E 16 81 49 00
        E 128 b1 0b 22
        E 0 91 25 22
        E 16 b1 0b 2a
        E 16 b1 0b 33
        E 16 b1 0b 3b
        E 16 b1 0b 44
        E 16 b1 0b 3b
        E 16 b1 0b 33
        E 16 b1 0b 2a
        E 16 81 25 00
        E 128 b1 0b 22
        E 0 91 45 22
        E 16 b1 0b 2a
        E 16 b1 0b 33
        E 16 b1 0b 3b
        E 16 b1 0b 44
        E 16 b1 0b 3b
        E 16 b1 0b 33
        E 16 b1 0b 2a
        E 16 81 45 00
        E 128 b1 0b 22
        E 0 91 23 22
        E 16 b1 0b 2a
        E 16 b1 0b 33
        E 16 b1 0b 3b
        E 16 b1 0b 44
        E 16 b1 0b 3b
        E 16 b1 0b 33
        E 16 b1 0b 2a
        E 16 81 23 00
        E 128 b1 0b 22
        E 0 91 4a 22
        E 16 b1 0b 2a
        E 16 b1 0b 33
        E 16 b1 0b 3b
        E 16 b1 0b 44
        E 16 b1 0b 3b
        E 16 b1 0b 33
        E 16 b1 0b 2a
        E 16 81 4a 00
        E 128 b1 0b 22
        E 0 91 28 22
        E 16 b1 0b 2a
        E 16 b1 0b 33
        E 16 b1 0b 3b
        E 16 b1 0b 44
        E 16 b1 0b 3b
        E 16 b1 0b 33
        E 16 b1 0b 2a
        E 16 81 28 00
        E 128 b1 0b 22
        E 0 91 4a 22
        E 16 b1 0b 2a
        E 16 b1 0b 33
        E 16 b1 0b 3b
        E 16 b1 0b 44
        E 16 b1 0b 3b
        E 16 b1 0b 33
        E 16 b1 0b 2a
        E 16 81 4a 00
        E 128 b1 0b 22
        E 0 91 26 22
        E 16 b1 0b 2a
        E 16 b1 0b 33
        E 16 b1 0b 3b
        E 16 b1 0b 44
        E 16 b1 0b 3b
        E 16 b1 0b 33
        E 16 b1 0b 2a
        E 16 81 26 00
        E 128 b1 0b 22
        E 0 91 4a 22
        E 16 b1 0b 2a
        E 16 b1 0b 33
        E 16 b1 0b 3b
        E 16 b1 0b 44
        E 16 b1 0b 3b
        E 16 b1 0b 33
        E 16 b1 0b 2a
        E 16 81 4a 00
        E 128 b1 0b 22
        E 0 91 25 22
        E 16 b1 0b 2a
        E 16 b1 0b 33
        E 16 b1 0b 3b
        E 16 b1 0b 44
        E 16 b1 0b 3b
        E 16 b1 0b 33
        E 16 b1 0b 2a
        E 16 81 25 00
        E 128 b1 0b 22
        E 0 91 4c 22
        E 16 b1 0b 2a
        E 16 b1 0b 33
        E 16 b1 0b 3b
        E 16 b1 0b 44
        E 16 b1 0b 3b
        E 16 b1 0b 33
        E 16 b1 0b 2a
        E 16 81 4c 00
        E 128 b1 0b 22
        E 0 91 2b 22
        E 16 b1 0b 2a
        E 16 b1 0b 33
        E 16 b1 0b 3b
        E 16 b1 0b 44
        E 16 b1 0b 3b
        E 16 b1 0b 33
        E 16 b1 0b 2a
        E 16 81 2b 00
        E 128 b1 0b 22
        E 0 91 47 22
        E 16 b1 0b 2a
        E 16 b1 0b 33
        E 16 b1 0b 3b
        E 16 b1 0b 44
        E 16 b1 0b 3b
        E 16 b1 0b 33
        E 16 b1 0b 2a
        E 16 81 47 00
        E 128 b1 0b 22
        E 0 91 28 22
        E 16 b1 0b 2a
        E 16 b1 0b 33
        E 16 b1 0b 3b
        E 16 b1 0b 44
        E 16 b1 0b 3b
        E 16 b1 0b 33
        E 16 b1 0b 2a
        E 16 81 28 00
        E 128 b1 0b 22
        E 0 91 44 22
        E 16 b1 0b 2a
        E 16 b1 0b 33
        E 16 b1 0b 3b
        E 16 b1 0b 44
        E 16 b1 0b 3b
        E 16 b1 0b 33
        E 16 b1 0b 2a
        E 16 81 44 00
        E 128 b1 0b 22
        E 0 91 26 22
        E 16 b1 0b 2a
        E 16 b1 0b 33
        E 16 b1 0b 3b
        E 16 b1 0b 44
        E 16 b1 0b 3b
        E 16 b1 0b 33
        E 16 b1 0b 2a
        E 16 b1 0b 22
        E 16 b1 0b 2a
        E 16 b1 0b 33
        E 16 b1 0b 3b
        E 16 b1 0b 44
        E 16 b1 0b 3b
        E 16 b1 0b 33
        E 16 b1 0b 2a
        E 16 b1 0b 22
        E 0 81 26 00
        E 0 91 25 22
        E 16 b1 0b 2a
        E 16 b1 0b 33
        E 16 b1 0b 3b
        E 16 b1 0b 44
        E 16 b1 0b 3b
        E 16 b1 0b 33
        E 16 b1 0b 2a
        E 16 b1 0b 22
        E 0 81 25 00
        E 0 91 26 22
        E 16 b1 0b 2a
        E 16 b1 0b 33
        E 16 b1 0b 3b
        E 16 b1 0b 44
        E 16 b1 0b 3b
        E 16 b1 0b 33
        E 16 b1 0b 2a
        E 16 81 26 00
        E 128 b1 0b 22
        E 0 91 28 22
        E 16 b1 0b 2a
        E 16 b1 0b 33
        E 16 b1 0b 3b
        E 16 b1 0b 44
        E 16 b1 0b 3b
        E 16 b1 0b 33
        E 16 b1 0b 2a
        E 16 81 28 00
        E 256 b1 0b 22
        E 0 91 2a 22
        E 16 b1 0b 2a
        E 16 b1 0b 33
        E 16 b1 0b 3b
        E 16 b1 0b 44
        E 16 b1 0b 3b
        E 16 b1 0b 33
        E 16 b1 0b 2a
        E 16 81 2a 00
        E 384 b1 0b 22
        E 0 91 25 22
        E 16 b1 0b 2a
        E 16 b1 0b 33
        E 16 b1 0b 3b
        E 16 b1 0b 44
        E 16 b1 0b 3b
        E 16 b1 0b 33
        E 16 b1 0b 2a
        E 16 81 25 00
        E 384 b1 0b 22
        E 0 91 26 22
        E 16 b1 0b 2a
        E 16 b1 0b 33
        E 16 b1 0b 3b
        E 16 b1 0b 44
        E 16 b1 0b 3b
        E 16 b1 0b 33
        E 16 b1 0b 2a
        E 16 81 26 00
        E 128 b1 0b 22
        E 0 91 45 22
        E 16 b1 0b 2a
        E 16 b1 0b 33
        E 16 b1 0b 3b
        E 16 b1 0b 44
        E 16 b1 0b 3b
        E 16 b1 0b 33
        E 16 b1 0b 2a
        E 16 81 45 00
        E 128 b1 0b 22
        E 0 91 26 22
        E 16 b1 0b 2a
        E 16 b1 0b 33
        E 16 b1 0b 3b
        E 16 b1 0b 44
        E 16 b1 0b 3b
        E 16 b1 0b 33
        E 16 b1 0b 2a
        E 16 81 26 00
        E 128 b1 0b 22
        E 0 91 45 22
        E 16 b1 0b 2a
        E 16 b1 0b 33
        E 16 b1 0b 3b
        E 16 b1 0b 44
        E 16 b1 0b 3b
        E 16 b1 0b 33
        E 16 b1 0b 2a
        E 16 81 45 00
        E 128 b1 0b 22
        E 0 91 2d 22
        E 16 b1 0b 2a
        E 16 b1 0b 33
        E 16 b1 0b 3b
        E 16 b1 0b 44
        E 16 b1 0b 3b
        E 16 b1 0b 33
        E 16 b1 0b 2a
        E 16 81 2d 00
        E 128 b1 0b 22
        E 0 91 40 22
        E 16 b1 0b 2a
        E 16 b1 0b 33
        E 16 b1 0b 3b
        E 16 b1 0b 44
        E 16 b1 0b 3b
        E 16 b1 0b 33
        E 16 b1 0b 2a
        E 16 81 40 00
        E 128 b1 0b 22
        E 0 91 2d 22
        E 16 b1 0b 2a
        E 16 b1 0b 33
        E 16 b1 0b 3b
        E 16 b1 0b 44
        E 16 b1 0b 3b
        E 16 b1 0b 33
        E 16 b1 0b 2a
        E 16 81 2d 00
        E 128 b1 0b 22
        E 0 91 40 22
        E 16 b1 0b 2a
        E 16 b1 0b 33
        E 16 b1 0b 3b
        E 16 b1 0b 44
        E 16 b1 0b 3b
        E 16 b1 0b 33
        E 16 b1 0b 2a
        E 16 81 40 00
        E 128 b1 0b 22
        E 0 91 26 22
        E 16 b1 0b 2a
        E 16 b1 0b 33
        E 16 b1 0b 3b
        E 16 b1 0b 44
        E 16 b1 0b 3b
        E 16 b1 0b 33
        E 16 b1 0b 2a
        E 16 b1 0b 22
        E 16 b1 0b 2a
        E 16 b1 0b 33
        E 16 b1 0b 3b
        E 16 b1 0b 44
        E 16 b1 0b 3b
        E 16 b1 0b 33
        E 16 b1 0b 2a
        E 16 b1 0b 22
        E 0 81 26 00
        E 0 91 25 22
        E 16 b1 0b 2a
        E 16 b1 0b 33
        E 16 b1 0b 3b
        E 16 b1 0b 44
        E 16 b1 0b 3b
        E 16 b1 0b 33
        E 16 b1 0b 2a
        E 16 b1 0b 22
        E 0 81 25 00
        E 0 91 26 22
        E 16 b1 0b 2a
        E 16 b1 0b 33
        E 16 b1 0b 3b
        E 16 b1 0b 44
        E 16 b1 0b 3b
        E 16 b1 0b 33
        E 16 b1 0b 2a
        E 16 81 26 00
        E 128 b1 0b 22
        E 0 91 28 22
        E 16 b1 0b 2a
        E 16 b1 0b 33
        E 16 b1 0b 3b
        E 16 b1 0b 44
        E 16 b1 0b 3b
        E 16 b1 0b 33
        E 16 b1 0b 2a
        E 16 81 28 00
        E 256 b1 0b 22
        E 0 91 2a 22
        E 16 b1 0b 2a
        E 16 b1 0b 33
        E 16 b1 0b 3b
        E 16 b1 0b 44
        E 16 b1 0b 3b
        E 16 b1 0b 33
        E 16 b1 0b 2a
        E 16 81 2a 00
        E 384 b1 0b 22
        E 0 91 2b 22
        E 16 b1 0b 2a
        E 16 b1 0b 33
        E 16 b1 0b 3b
        E 16 b1 0b 44
        E 16 b1 0b 3b
        E 16 b1 0b 33
        E 16 b1 0b 2a
        E 16 b1 0b 22
        E 16 b1 0b 2a
        E 16 b1 0b 33
        E 16 b1 0b 3b
        E 16 b1 0b 44
        E 16 b1 0b 3b
        E 16 b1 0b 33
        E 16 b1 0b 2a
        E 16 b1 0b 22
        E 16 b1 0b 2a
        E 16 b1 0b 33
        E 16 b1 0b 3b
        E 16 b1 0b 44
        E 16 b1 0b 3b
        E 16 b1 0b 33
        E 16 b1 0b 2a
        E 16 b1 0b 22
        E 16 b1 0b 2a
        E 16 b1 0b 33
        E 16 b1 0b 3b
        E 16 b1 0b 44
        E 16 b1 0b 3b
        E 16 b1 0b 33
        E 16 b1 0b 2a
        E 16 b1 0b 22
        E 0 81 2b 00
        E 0 91 26 22
        E 16 b1 0b 2a
        E 16 b1 0b 33
        E 16 b1 0b 3b
        E 16 b1 0b 44
        E 16 b1 0b 3b
        E 16 b1 0b 33
        E 16 b1 0b 2a
        E 16 81 26 00
        E 128 b1 0b 22
        E 0 91 32 22
        E 16 b1 0b 2a
        E 16 b1 0b 33
        E 16 b1 0b 3b
        E 16 b1 0b 44
        E 16 b1 0b 3b
        E 16 b1 0b 33
        E 16 b1 0b 2a
        E 16 b1 0b 22
        E 16 b1 0b 2a
        E 16 b1 0b 33
        E 16 b1 0b 3b
        E 16 b1 0b 44
        E 16 b1 0b 3b
        E 16 b1 0b 33
        E 16 b1 0b 2a
        E 16 b1 0b 22
        E 0 81 32 00
        E 0 91 26 22
        E 16 b1 0b 2a
        E 16 b1 0b 33
        E 16 b1 0b 3b
        E 16 b1 0b 44
        E 16 b1 0b 3b
        E 16 b1 0b 33
        E 16 b1 0b 2a
        E 16 81 26 00
        E 128 b1 0b 22
        E 0 91 32 22
        E 16 b1 0b 2a
        E 16 b1 0b 33
        E 16 b1 0b 3b
        E 16 b1 0b 44
        E 16 b1 0b 3b
        E 16 b1 0b 33
        E 16 b1 0b 2a
        E 16 b1 0b 22
        E 16 b1 0b 2a
        E 16 b1 0b 33
        E 16 b1 0b 3b
        E 16 b1 0b 44
        E 16 b1 0b 3b
        E 16 b1 0b 33
        E 16 b1 0b 2a
        E 16 b1 0b 22
        E 0 81 32 00
        E 0 91 25 22
        E 16 b1 0b 2a
        E 16 b1 0b 33
        E 16 b1 0b 3b
        E 16 b1 0b 44
        E 16 b1 0b 3b
        E 16 b1 0b 33
        E 16 b1 0b 2a
        E 16 81 25 00
        E 128 b1 0b 22
        E 0 91 31 22
        E 16 b1 0b 2a
        E 16 b1 0b 33
        E 16 b1 0b 3b
        E 16 b1 0b 44
        E 16 b1 0b 3b
        E 16 b1 0b 33
        E 16 b1 0b 2a
        E 16 b1 0b 22
        E 16 b1 0b 2a
        E 16 b1 0b 33
        E 16 b1 0b 3b
        E 16 b1 0b 44
        E 16 b1 0b 3b
        E 16 b1 0b 33
        E 16 b1 0b 2a
        E 16 b1 0b 22
        E 0 81 31 00
        E 0 91 25 22
        E 16 b1 0b 2a
        E 16 b1 0b 33
        E 16 b1 0b 3b
        E 16 b1 0b 44
        E 16 b1 0b 3b
        E 16 b1 0b 33
        E 16 b1 0b 2a
        E 16 81 25 00
        E 128 b1 0b 22
        E 0 91 31 22
        E 16 b1 0b 2a
        E 16 b1 0b 33
        E 16 b1 0b 3b
        E 16 b1 0b 44
        E 16 b1 0b 3b
        E 16 b1 0b 33
        E 16 b1 0b 2a
        E 16 b1 0b 22
        E 16 b1 0b 2a
        E 16 b1 0b 33
        E 16 b1 0b 3b
        E 16 b1 0b 44
        E 16 b1 0b 3b
        E 16 b1 0b 33
        E 16 b1 0b 2a
        E 16 b1 0b 22
        E 0 81 31 00
        E 0 91 28 22
        E 16 b1 0b 2a
        E 16 b1 0b 33
        E 16 b1 0b 3b
        E 16 b1 0b 44
        E 16 b1 0b 3b
        E 16 b1 0b 33
        E 16 b1 0b 2a
        E 16 b1 0b 22
        E 16 b1 0b 2a
        E 16 b1 0b 33
        E 16 b1 0b 3b
        E 16 b1 0b 44
        E 16 b1 0b 3b
        E 16 b1 0b 33
        E 16 b1 0b 2a
        E 16 b1 0b 22
        E 16 b1 0b 2a
        E 16 b1 0b 33
        E 16 b1 0b 3b
        E 16 b1 0b 44
        E 16 b1 0b 3b
        E 16 b1 0b 33
        E 16 b1 0b 2a
        E 16 b1 0b 22
        E 16 b1 0b 2a
        E 16 b1 0b 33
        E 16 b1 0b 3b
        E 16 b1 0b 44
        E 16 b1 0b 3b
        E 16 b1 0b 33
        E 16 b1 0b 2a
        E 16 81 28 00
        E 128 b1 0b 22
        E 0 91 28 22
        E 16 b1 0b 2a
        E 16 b1 0b 33
        E 16 b1 0b 3b
        E 16 b1 0b 44
        E 16 b1 0b 3b
        E 16 b1 0b 33
        E 16 b1 0b 2a
        E 16 81 28 00
        E 128 b1 0b 22
        E 0 91 28 22
        E 16 b1 0b 2a
        E 16 b1 0b 33
        E 16 b1 0b 3b
        E 16 b1 0b 44
        E 16 b1 0b 3b
        E 16 b1 0b 33
        E 16 b1 0b 2a
        E 16 b1 0b 22
        E 16 b1 0b 2a
        E 16 b1 0b 33
        E 16 b1 0b 3b
        E 16 b1 0b 44
        E 16 b1 0b 3b
        E 16 b1 0b 33
        E 16 b1 0b 2a
        E 16 81 28 00
        E 1152 b1 0b 22
        E 0 91 18 22
        E 16 b1 0b 2a
        E 16 b1 0b 33
        E 16 b1 0b 3b
        E 16 b1 0b 44
        E 16 b1 0b 3b
        E 16 b1 0b 33
        E 16 b1 0b 2a
        E 16 b1 0b 22
        E 16 b1 0b 2a
        E 16 b1 0b 33
        E 16 b1 0b 3b
        E 16 b1 0b 44
        E 16 b1 0b 3b
        E 16 b1 0b 33
        E 16 b1 0b 2a
        E 16 81 18 00
        E 256 b1 0b 22
        E 0 91 18 22
        E 16 b1 0b 2a
        E 16 b1 0b 33
        E 16 b1 0b 3b
        E 16 b1 0b 44
        E 16 b1 0b 3b
        E 16 b1 0b 33
        E 16 b1 0b 2a
        E 16 b1 0b 22
        E 16 b1 0b 2a
        E 16 b1 0b 33
        E 16 b1 0b 3b
        E 16 b1 0b 44
        E 16 b1 0b 3b
        E 16 b1 0b 33
        E 16 b1 0b 2a
        E 16 81 18 00
        E 256 b1 0b 22
        E 0 91 18 22
        E 16 b1 0b 2a
        E 16 b1 0b 33
        E 16 b1 0b 3b
        E 16 b1 0b 44
        E 16 b1 0b 3b
        E 16 b1 0b 33
        E 16 b1 0b 2a
        E 16 b1 0b 22
        E 16 b1 0b 2a
        E 16 b1 0b 33
        E 16 b1 0b 3b
        E 16 b1 0b 44
        E 16 b1 0b 3b
        E 16 b1 0b 33
        E 16 b1 0b 2a
        E 16 81 18 00
        E 256 b1 0b 22
        E 0 91 18 22
        E 16 b1 0b 2a
        E 16 b1 0b 33
        E 16 b1 0b 3b
        E 16 b1 0b 44
        E 16 b1 0b 3b
        E 16 b1 0b 33
        E 16 b1 0b 2a
        E 16 b1 0b 22
        E 16 b1 0b 2a
        E 16 b1 0b 33
        E 16 b1 0b 3b
        E 16 b1 0b 44
        E 16 b1 0b 3b
        E 16 b1 0b 33
        E 16 b1 0b 2a
        E 16 81 18 00
        E 256 b1 0b 22
        E 0 91 18 22
        E 16 b1 0b 2a
        E 16 b1 0b 33
        E 16 b1 0b 3b
        E 16 b1 0b 44
        E 16 b1 0b 3b
        E 16 b1 0b 33
        E 16 b1 0b 2a
        E 16 b1 0b 22
        E 16 b1 0b 2a
        E 16 b1 0b 33
        E 16 b1 0b 3b
        E 16 b1 0b 44
        E 16 b1 0b 3b
        E 16 b1 0b 33
        E 16 b1 0b 2a
        E 16 81 18 00
        E 256 b1 0b 22
        E 0 91 18 22
        E 16 b1 0b 2a
        E 16 b1 0b 33
        E 16 b1 0b 3b
        E 16 b1 0b 44
        E 16 b1 0b 3b
        E 16 b1 0b 33
        E 16 b1 0b 2a
        E 16 b1 0b 22
        E 16 b1 0b 2a
        E 16 b1 0b 33
        E 16 b1 0b 3b
        E 16 b1 0b 44
        E 16 b1 0b 3b
        E 16 b1 0b 33
        E 16 b1 0b 2a
        E 16 81 18 00
        E 256 b1 0b 22
        E 0 91 18 22
        E 16 b1 0b 2a
        E 16 b1 0b 33
        E 16 b1 0b 3b
        E 16 b1 0b 44
        E 16 b1 0b 3b
        E 16 b1 0b 33
        E 16 b1 0b 2a
        E 16 b1 0b 22
        E 16 b1 0b 2a
        E 16 b1 0b 33
        E 16 b1 0b 3b
        E 16 b1 0b 44
        E 16 b1 0b 3b
        E 16 b1 0b 33
        E 16 b1 0b 2a
        E 16 81 18 00
        E 256 b1 0b 22
        E 0 91 18 22
        E 16 b1 0b 2a
        E 16 b1 0b 33
        E 16 b1 0b 3b
        E 16 b1 0b 44
        E 16 b1 0b 3b
        E 16 b1 0b 33
        E 16 b1 0b 2a
        E 16 b1 0b 22
        E 16 b1 0b 2a
        E 16 b1 0b 33
        E 16 b1 0b 3b
        E 16 b1 0b 44
        E 16 b1 0b 3b
        E 16 b1 0b 33
        E 16 b1 0b 2a
        E 16 81 18 00
        E 256 b1 0b 22
        E 0 91 18 22
        E 16 b1 0b 2a
        E 16 b1 0b 33
        E 16 b1 0b 3b
        E 16 b1 0b 44
        E 16 b1 0b 3b
        E 16 b1 0b 33
        E 16 b1 0b 2a
        E 16 b1 0b 22
        E 16 b1 0b 2a
        E 16 b1 0b 33
        E 16 b1 0b 3b
        E 16 b1 0b 44
        E 16 b1 0b 3b
        E 16 b1 0b 33
        E 16 b1 0b 2a
        E 16 81 18 00
        E 256 b1 0b 22
        E 0 91 18 22
        E 16 b1 0b 2a
        E 16 b1 0b 33
        E 16 b1 0b 3b
        E 16 b1 0b 44
        E 16 b1 0b 3b
        E 16 b1 0b 33
        E 16 b1 0b 2a
        E 16 b1 0b 22
        E 16 b1 0b 2a
        E 16 b1 0b 33
        E 16 b1 0b 3b
        E 16 b1 0b 44
        E 16 b1 0b 3b
        E 16 b1 0b 33
        E 16 b1 0b 2a
        E 16 81 18 00
        E 0 b1 7b 00
        E 0 ff 2f 00
      >
    >
  >
  <TRACK {C5B556E2-A4B2-49DB-98F2-43FC58AC8A2F}
    NAME "NES - Triangle [ch2]"
    PEAKCOL 16744192
    BEAT -1
    AUTOMODE 0
    PANLAWFLAGS 3
    VOLPAN 1 0 -1 -1 1
    MUTESOLO 0 0 0
    IPHASE 0
    PLAYOFFS 0 1
    ISBUS 0 0
    BUSCOMP 0 0 0 0 0
    SHOWINMIX 1 0.6667 0.5 1 0.5 0 0 0
    FIXEDLANES 9 0 0 0 0
    SEL 0
    REC 0 5088 1 0 0 0 0 0
    VU 2
    TRACKHEIGHT 0 0 0 0 0 0 0
    INQ 0 0 0 0.5 100 0 0 100
    NCHAN 2
    FX 1
    TRACKID {C5B556E2-A4B2-49DB-98F2-43FC58AC8A2F}
    PERF 0
    MIDIOUT -1
    MAINSEND 1 0
    <FXCHAIN
      WNDRECT 24 52 700 560
      SHOW 0
      LASTSEL 0
      DOCKED 0
      BYPASS 0 0 0
      <JS "ReapNES Studio/ReapNES_Console.jsfx" ""
        2 15 1 10 80 10 100 2 1 15 1 5 60 10 80 1 1 0 50 0 0 15 1 0 100 0 0 0.500000 0.500000 0.400000 0.300000 0.800000 2 1 0 0 0 0 - - - - - - - - - - - - - - - - - - - - - - - - - -
      >
      FLOATPOS 0 0 0 0
      FXID {409ED806-A086-4A6F-A5E3-AFFBD2F25396}
      WAK 0 0
    >
    <ITEM
      POSITION 0
      LENGTH 74.65008
      LOOP 0
      ALLTAKES 0
      FADEIN 0 0 0 0 0 0 0
      FADEOUT 0 0 0 0 0 0 0
      MUTE 0 0
      SEL 0
      IGUID {603E416C-5A14-4614-A94E-A3A689CA3281}
      <SOURCE MIDI
        HASDATA 1 480 QN
        CCINTERP 32
        E 0 c2 26
        E 0 b2 0b 7f
        E 0 92 21 7f
        E 1024 82 21 00
        E 0 b2 0b 7f
        E 0 92 1f 7f
        E 1024 82 1f 00
        E 0 b2 0b 7f
        E 0 92 40 7f
        E 128 82 40 00
        E 0 b2 0b 7f
        E 0 92 42 7f
        E 128 82 42 00
        E 0 b2 0b 7f
        E 0 92 43 7f
        E 128 82 43 00
        E 0 b2 0b 7f
        E 0 92 44 7f
        E 128 82 44 00
        E 0 b2 0b 7f
        E 0 92 45 7f
        E 128 82 45 00
        E 0 b2 0b 7f
        E 0 92 47 7f
        E 128 82 47 00
        E 0 b2 0b 7f
        E 0 92 48 7f
        E 128 82 48 00
        E 0 b2 0b 7f
        E 0 92 49 7f
        E 128 82 49 00
        E 0 b2 0b 7f
        E 0 92 40 7f
        E 64 82 40 00
        E 0 b2 0b 7f
        E 0 92 42 7f
        E 64 82 42 00
        E 0 b2 0b 7f
        E 0 92 43 7f
        E 64 82 43 00
        E 0 b2 0b 7f
        E 0 92 40 7f
        E 64 82 40 00
        E 0 b2 0b 7f
        E 0 92 45 7f
        E 64 82 45 00
        E 0 b2 0b 7f
        E 0 92 46 7f
        E 64 82 46 00
        E 0 b2 0b 7f
        E 0 92 47 7f
        E 64 82 47 00
        E 0 b2 0b 7f
        E 0 92 48 7f
        E 64 82 48 00
        E 0 b2 0b 7f
        E 0 92 4c 7f
        E 64 82 4c 00
        E 192 b2 0b 7f
        E 0 92 1c 7f
        E 256 82 1c 00
        E 0 b2 0b 7f
        E 0 92 21 7f
        E 256 82 21 00
        E 0 b2 0b 7f
        E 0 92 3d 7f
        E 256 82 3d 00
        E 0 b2 0b 7f
        E 0 92 19 7f
        E 256 82 19 00
        E 0 b2 0b 7f
        E 0 92 39 7f
        E 256 82 39 00
        E 0 b2 0b 7f
        E 0 92 17 7f
        E 256 82 17 00
        E 0 b2 0b 7f
        E 0 92 3e 7f
        E 256 82 3e 00
        E 0 b2 0b 7f
        E 0 92 1c 7f
        E 256 82 1c 00
        E 0 b2 0b 7f
        E 0 92 3e 7f
        E 256 82 3e 00
        E 0 b2 0b 7f
        E 0 92 1a 7f
        E 256 82 1a 00
        E 0 b2 0b 7f
        E 0 92 3e 7f
        E 256 82 3e 00
        E 0 b2 0b 7f
        E 0 92 19 7f
        E 256 82 19 00
        E 0 b2 0b 7f
        E 0 92 40 7f
        E 256 82 40 00
        E 0 b2 0b 7f
        E 0 92 1f 7f
        E 256 82 1f 00
        E 0 b2 0b 7f
        E 0 92 3b 7f
        E 256 82 3b 00
        E 0 b2 0b 7f
        E 0 92 1c 7f
        E 256 82 1c 00
        E 0 b2 0b 7f
        E 0 92 38 7f
        E 256 82 38 00
        E 0 b2 0b 7f
        E 0 92 21 7f
        E 256 82 21 00
        E 0 b2 0b 7f
        E 0 92 3d 7f
        E 256 82 3d 00
        E 0 b2 0b 7f
        E 0 92 19 7f
        E 256 82 19 00
        E 0 b2 0b 7f
        E 0 92 39 7f
        E 256 82 39 00
        E 0 b2 0b 7f
        E 0 92 17 7f
        E 256 82 17 00
        E 0 b2 0b 7f
        E 0 92 3e 7f
        E 256 82 3e 00
        E 0 b2 0b 7f
        E 0 92 1c 7f
        E 256 82 1c 00
        E 0 b2 0b 7f
        E 0 92 3e 7f
        E 256 82 3e 00
        E 0 b2 0b 7f
        E 0 92 1a 7f
        E 256 82 1a 00
        E 0 b2 0b 7f
        E 0 92 3e 7f
        E 256 82 3e 00
        E 0 b2 0b 7f
        E 0 92 19 7f
        E 256 82 19 00
        E 0 b2 0b 7f
        E 0 92 40 7f
        E 256 82 40 00
        E 0 b2 0b 7f
        E 0 92 1f 7f
        E 256 82 1f 00
        E 0 b2 0b 7f
        E 0 92 3b 7f
        E 256 82 3b 00
        E 0 b2 0b 7f
        E 0 92 1c 7f
        E 256 82 1c 00
        E 0 b2 0b 7f
        E 0 92 38 7f
        E 256 82 38 00
        E 0 b2 0b 7f
        E 0 92 1a 7f
        E 256 82 1a 00
        E 0 b2 0b 7f
        E 0 92 19 7f
        E 128 82 19 00
        E 0 b2 0b 7f
        E 0 92 1a 7f
        E 128 82 1a 00
        E 128 b2 0b 7f
        E 0 92 1c 7f
        E 128 82 1c 00
        E 256 b2 0b 7f
        E 0 92 1e 7f
        E 128 82 1e 00
        E 384 b2 0b 7f
        E 0 92 19 7f
        E 128 82 19 00
        E 384 b2 0b 7f
        E 0 92 1a 7f
        E 256 82 1a 00
        E 0 b2 0b 7f
        E 0 92 39 7f
        E 256 82 39 00
        E 0 b2 0b 7f
        E 0 92 1a 7f
        E 256 82 1a 00
        E 0 b2 0b 7f
        E 0 92 39 7f
        E 256 82 39 00
        E 0 b2 0b 7f
        E 0 92 21 7f
        E 256 82 21 00
        E 0 b2 0b 7f
        E 0 92 34 7f
        E 256 82 34 00
        E 0 b2 0b 7f
        E 0 92 21 7f
        E 256 82 21 00
        E 0 b2 0b 7f
        E 0 92 34 7f
        E 256 82 34 00
        E 0 b2 0b 7f
        E 0 92 1a 7f
        E 256 82 1a 00
        E 0 b2 0b 7f
        E 0 92 19 7f
        E 128 82 19 00
        E 0 b2 0b 7f
        E 0 92 1a 7f
        E 128 82 1a 00
        E 128 b2 0b 7f
        E 0 92 1c 7f
        E 128 82 1c 00
        E 256 b2 0b 7f
        E 0 92 1e 7f
        E 128 82 1e 00
        E 384 b2 0b 7f
        E 0 92 1f 7f
        E 512 82 1f 00
        E 0 b2 0b 7f
        E 0 92 1a 7f
        E 256 82 1a 00
        E 0 b2 0b 7f
        E 0 92 26 7f
        E 256 82 26 00
        E 0 b2 0b 7f
        E 0 92 1a 7f
        E 256 82 1a 00
        E 0 b2 0b 7f
        E 0 92 26 7f
        E 256 82 26 00
        E 0 b2 0b 7f
        E 0 92 19 7f
        E 256 82 19 00
        E 0 b2 0b 7f
        E 0 92 25 7f
        E 256 82 25 00
        E 0 b2 0b 7f
        E 0 92 19 7f
        E 256 82 19 00
        E 0 b2 0b 7f
        E 0 92 25 7f
        E 256 82 25 00
        E 0 b2 0b 7f
        E 0 92 1c 7f
        E 512 82 1c 00
        E 128 b2 0b 7f
        E 0 92 1c 7f
        E 128 82 1c 00
        E 128 b2 0b 7f
        E 0 92 1c 7f
        E 256 82 1c 00
        E 1168 b2 0b 7f
        E 0 92 0c 7f
        E 256 82 0c 00
        E 256 b2 0b 7f
        E 0 92 0c 7f
        E 256 82 0c 00
        E 256 b2 0b 7f
        E 0 92 0c 7f
        E 256 82 0c 00
        E 256 b2 0b 7f
        E 0 92 0c 7f
        E 256 82 0c 00
        E 256 b2 0b 7f
        E 0 92 0c 7f
        E 256 82 0c 00
        E 256 b2 0b 7f
        E 0 92 0c 7f
        E 256 82 0c 00
        E 256 b2 0b 7f
        E 0 92 0c 7f
        E 256 82 0c 00
        E 256 b2 0b 7f
        E 0 92 0c 7f
        E 256 82 0c 00
        E 256 b2 0b 7f
        E 0 92 0c 7f
        E 256 82 0c 00
        E 256 b2 0b 7f
        E 0 92 0c 7f
        E 256 82 0c 00
        E 256 b2 0b 7f
        E 0 92 0c 7f
        E 256 82 0c 00
        E 256 b2 0b 7f
        E 0 92 0c 7f
        E 256 82 0c 00
        E 256 b2 0b 7f
        E 0 92 0c 7f
        E 256 82 0c 00
        E 256 b2 0b 7f
        E 0 92 0c 7f
        E 256 82 0c 00
        E 256 b2 0b 7f
        E 0 92 0c 7f
        E 256 82 0c 00
        E 256 b2 0b 7f
        E 0 92 0c 7f
        E 256 82 0c 00
        E 256 b2 0b 7f
        E 0 92 0c 7f
        E 256 82 0c 00
        E 256 b2 0b 7f
        E 0 92 0c 7f
        E 256 82 0c 00
        E 256 b2 0b 7f
        E 0 92 0c 7f
        E 256 82 0c 00
        E 256 b2 0b 7f
        E 0 92 0c 7f
        E 256 82 0c 00
        E 256 b2 0b 7f
        E 0 92 0c 7f
        E 256 82 0c 00
        E 256 b2 0b 7f
        E 0 92 0c 7f
        E 256 82 0c 00
        E 256 b2 0b 7f
        E 0 92 0c 7f
        E 256 82 0c 00
        E 256 b2 0b 7f
        E 0 92 0c 7f
        E 256 82 0c 00
        E 256 b2 0b 7f
        E 0 92 0c 7f
        E 256 82 0c 00
        E 256 b2 0b 7f
        E 0 92 0c 7f
        E 256 82 0c 00
        E 256 b2 0b 7f
        E 0 92 0c 7f
        E 256 82 0c 00
        E 256 b2 0b 7f
        E 0 92 0c 7f
        E 256 82 0c 00
        E 256 b2 0b 7f
        E 0 92 0c 7f
        E 256 82 0c 00
        E 256 b2 0b 7f
        E 0 92 0c 7f
        E 256 82 0c 00
        E 256 b2 0b 7f
        E 0 92 0c 7f
        E 256 82 0c 00
        E 256 b2 0b 7f
        E 0 92 0c 7f
        E 256 82 0c 00
        E 256 b2 0b 7f
        E 0 92 0c 7f
        E 256 82 0c 00
        E 256 b2 0b 7f
        E 0 92 0c 7f
        E 256 82 0c 00
        E 256 b2 0b 7f
        E 0 92 0c 7f
        E 256 82 0c 00
        E 256 b2 0b 7f
        E 0 92 0c 7f
        E 256 82 0c 00
        E 256 b2 0b 7f
        E 0 92 0c 7f
        E 256 82 0c 00
        E 256 b2 0b 7f
        E 0 92 0c 7f
        E 256 82 0c 00
        E 256 b2 0b 7f
        E 0 92 0c 7f
        E 256 82 0c 00
        E 256 b2 0b 7f
        E 0 92 0c 7f
        E 256 82 0c 00
        E 256 b2 0b 7f
        E 0 92 0c 7f
        E 256 82 0c 00
        E 256 b2 0b 7f
        E 0 92 0c 7f
        E 256 82 0c 00
        E 256 b2 0b 7f
        E 0 92 0c 7f
        E 256 82 0c 00
        E 256 b2 0b 7f
        E 0 92 0c 7f
        E 256 82 0c 00
        E 256 b2 0b 7f
        E 0 92 0c 7f
        E 256 82 0c 00
        E 256 b2 0b 7f
        E 0 92 0c 7f
        E 256 82 0c 00
        E 256 b2 0b 7f
        E 0 92 0c 7f
        E 256 82 0c 00
        E 256 b2 0b 7f
        E 0 92 0c 7f
        E 256 82 0c 00
        E 4272 b2 0b 7f
        E 0 92 28 7f
        E 128 82 28 00
        E 0 b2 0b 7f
        E 0 92 29 7f
        E 128 82 29 00
        E 0 b2 0b 7f
        E 0 92 28 7f
        E 128 82 28 00
        E 0 b2 0b 7f
        E 0 92 29 7f
        E 128 82 29 00
        E 0 b2 0b 7f
        E 0 92 28 7f
        E 128 82 28 00
        E 0 b2 0b 7f
        E 0 92 29 7f
        E 128 82 29 00
        E 0 b2 0b 7f
        E 0 92 28 7f
        E 128 82 28 00
        E 0 b2 0b 7f
        E 0 92 29 7f
        E 128 82 29 00
        E 0 b2 0b 7f
        E 0 92 28 7f
        E 128 82 28 00
        E 0 b2 0b 7f
        E 0 92 29 7f
        E 128 82 29 00
        E 0 b2 0b 7f
        E 0 92 28 7f
        E 128 82 28 00
        E 0 b2 0b 7f
        E 0 92 29 7f
        E 128 82 29 00
        E 0 b2 0b 7f
        E 0 92 28 7f
        E 128 82 28 00
        E 0 b2 0b 7f
        E 0 92 29 7f
        E 128 82 29 00
        E 0 b2 0b 7f
        E 0 92 28 7f
        E 128 82 28 00
        E 0 b2 0b 7f
        E 0 92 29 7f
        E 128 82 29 00
        E 0 b2 0b 7f
        E 0 92 2c 7f
        E 128 82 2c 00
        E 0 b2 0b 7f
        E 0 92 29 7f
        E 128 82 29 00
        E 0 b2 0b 7f
        E 0 92 2c 7f
        E 128 82 2c 00
        E 0 b2 0b 7f
        E 0 92 29 7f
        E 128 82 29 00
        E 0 b2 0b 7f
        E 0 92 2c 7f
        E 128 82 2c 00
        E 0 b2 0b 7f
        E 0 92 29 7f
        E 128 82 29 00
        E 0 b2 0b 7f
        E 0 92 2c 7f
        E 128 82 2c 00
        E 0 b2 0b 7f
        E 0 92 29 7f
        E 128 82 29 00
        E 0 b2 0b 7f
        E 0 92 2c 7f
        E 128 82 2c 00
        E 0 b2 0b 7f
        E 0 92 29 7f
        E 128 82 29 00
        E 0 b2 0b 7f
        E 0 92 2c 7f
        E 128 82 2c 00
        E 0 b2 0b 7f
        E 0 92 29 7f
        E 128 82 29 00
        E 0 b2 0b 7f
        E 0 92 2c 7f
        E 128 82 2c 00
        E 0 b2 0b 7f
        E 0 92 29 7f
        E 128 82 29 00
        E 0 b2 0b 7f
        E 0 92 2c 7f
        E 128 82 2c 00
        E 0 b2 0b 7f
        E 0 92 29 7f
        E 128 82 29 00
        E 0 b2 0b 7f
        E 0 92 28 7f
        E 1024 82 28 00
        E 3072 b2 0b 7f
        E 0 92 28 7f
        E 128 82 28 00
        E 0 b2 0b 7f
        E 0 92 29 7f
        E 128 82 29 00
        E 0 b2 0b 7f
        E 0 92 28 7f
        E 128 82 28 00
        E 0 b2 0b 7f
        E 0 92 29 7f
        E 128 82 29 00
        E 0 b2 0b 7f
        E 0 92 28 7f
        E 128 82 28 00
        E 0 b2 0b 7f
        E 0 92 29 7f
        E 128 82 29 00
        E 0 b2 0b 7f
        E 0 92 28 7f
        E 128 82 28 00
        E 0 b2 0b 7f
        E 0 92 29 7f
        E 128 82 29 00
        E 0 b2 0b 7f
        E 0 92 28 7f
        E 128 82 28 00
        E 0 b2 0b 7f
        E 0 92 29 7f
        E 128 82 29 00
        E 0 b2 0b 7f
        E 0 92 28 7f
        E 128 82 28 00
        E 0 b2 0b 7f
        E 0 92 29 7f
        E 128 82 29 00
        E 0 b2 0b 7f
        E 0 92 28 7f
        E 128 82 28 00
        E 0 b2 0b 7f
        E 0 92 29 7f
        E 128 82 29 00
        E 0 b2 0b 7f
        E 0 92 28 7f
        E 128 82 28 00
        E 0 b2 0b 7f
        E 0 92 29 7f
        E 128 82 29 00
        E 0 b2 0b 7f
        E 0 92 2c 7f
        E 128 82 2c 00
        E 0 b2 0b 7f
        E 0 92 29 7f
        E 128 82 29 00
        E 0 b2 0b 7f
        E 0 92 2c 7f
        E 128 82 2c 00
        E 0 b2 0b 7f
        E 0 92 29 7f
        E 128 82 29 00
        E 0 b2 0b 7f
        E 0 92 2c 7f
        E 128 82 2c 00
        E 0 b2 0b 7f
        E 0 92 29 7f
        E 128 82 29 00
        E 0 b2 0b 7f
        E 0 92 2c 7f
        E 128 82 2c 00
        E 0 b2 0b 7f
        E 0 92 29 7f
        E 128 82 29 00
        E 0 b2 0b 7f
        E 0 92 2c 7f
        E 128 82 2c 00
        E 0 b2 0b 7f
        E 0 92 29 7f
        E 128 82 29 00
        E 0 b2 0b 7f
        E 0 92 2c 7f
        E 128 82 2c 00
        E 0 b2 0b 7f
        E 0 92 29 7f
        E 128 82 29 00
        E 0 b2 0b 7f
        E 0 92 2c 7f
        E 128 82 2c 00
        E 0 b2 0b 7f
        E 0 92 29 7f
        E 128 82 29 00
        E 0 b2 0b 7f
        E 0 92 2c 7f
        E 128 82 2c 00
        E 0 b2 0b 7f
        E 0 92 29 7f
        E 128 82 29 00
        E 0 b2 0b 7f
        E 0 92 28 7f
        E 1024 82 28 00
        E 3072 b2 0b 7f
        E 0 92 22 7f
        E 768 82 22 00
        E 0 b2 0b 7f
        E 0 92 25 7f
        E 64 82 25 00
        E 0 b2 0b 7f
        E 0 92 26 7f
        E 64 82 26 00
        E 0 b2 0b 7f
        E 0 92 27 7f
        E 64 82 27 00
        E 0 b2 0b 7f
        E 0 92 28 7f
        E 64 82 28 00
        E 0 b2 0b 7f
        E 0 92 29 7f
        E 512 82 29 00
        E 0 b2 0b 7f
        E 0 92 26 7f
        E 448 82 26 00
        E 0 b2 0b 7f
        E 0 92 27 7f
        E 64 82 27 00
        E 0 b2 0b 7f
        E 0 92 28 7f
        E 1024 82 28 00
        E 3072 b2 0b 7f
        E 0 92 22 7f
        E 768 82 22 00
        E 0 b2 0b 7f
        E 0 92 25 7f
        E 64 82 25 00
        E 0 b2 0b 7f
        E 0 92 26 7f
        E 64 82 26 00
        E 0 b2 0b 7f
        E 0 92 27 7f
        E 64 82 27 00
        E 0 b2 0b 7f
        E 0 92 28 7f
        E 64 82 28 00
        E 0 b2 0b 7f
        E 0 92 29 7f
        E 512 82 29 00
        E 0 b2 0b 7f
        E 0 92 26 7f
        E 448 82 26 00
        E 0 b2 0b 7f
        E 0 92 27 7f
        E 64 82 27 00
        E 0 b2 0b 7f
        E 0 92 28 7f
        E 832 82 28 00
        E 0 b2 7b 00
        E 0 ff 2f 00
      >
    >
  >
  <TRACK {E46DE64F-B0BB-403E-A7ED-CC2328C81661}
    NAME "NES - Noise / Drums [ch3]"
    PEAKCOL 11184810
    BEAT -1
    AUTOMODE 0
    PANLAWFLAGS 3
    VOLPAN 1 0 -1 -1 1
    MUTESOLO 0 0 0
    IPHASE 0
    PLAYOFFS 0 1
    ISBUS 0 0
    BUSCOMP 0 0 0 0 0
    SHOWINMIX 1 0.6667 0.5 1 0.5 0 0 0
    FIXEDLANES 9 0 0 0 0
    SEL 0
    REC 0 5088 1 0 0 0 0 0
    VU 2
    TRACKHEIGHT 0 0 0 0 0 0 0
    INQ 0 0 0 0.5 100 0 0 100
    NCHAN 2
    FX 1
    TRACKID {E46DE64F-B0BB-403E-A7ED-CC2328C81661}
    PERF 0
    MIDIOUT -1
    MAINSEND 1 0
    <FXCHAIN
      WNDRECT 24 52 700 560
      SHOW 0
      LASTSEL 0
      DOCKED 0
      BYPASS 0 0 0
      <JS "ReapNES Studio/ReapNES_Console.jsfx" ""
        2 15 1 10 80 10 100 2 1 15 1 5 60 10 80 1 1 0 50 0 0 15 1 0 100 0 0 0.500000 0.500000 0.400000 0.300000 0.800000 3 1 0 0 0 0 - - - - - - - - - - - - - - - - - - - - - - - - - -
      >
      FLOATPOS 0 0 0 0
      FXID {F323C6E2-4405-4A89-B4DB-1ACAB3DF919F}
      WAK 0 0
    >
    <ITEM
      POSITION 0
      LENGTH 74.65008
      LOOP 0
      ALLTAKES 0
      FADEIN 0 0 0 0 0 0 0
      FADEOUT 0 0 0 0 0 0 0
      MUTE 0 0
      SEL 0
      IGUID {B72B69AC-7B72-4FF8-913B-ECA011700B0B}
      <SOURCE MIDI
        HASDATA 1 480 QN
        CCINTERP 32
        E 0 93 2a 4c
        E 76800 83 2a 00
        E 0 b3 7b 00
        E 0 ff 2f 00
      >
    >
  >
>