<REAPER_PROJECT 0.1 "7.27/win64" 1707000000
  <NOTES 0 2
    |ReapNES Studio Project
    |MIDI Import - Kid_Icarus_config03_rom_v1
  >
  RIPPLE 0
  GROUPOVERRIDE 0 0 0
  AUTOXFADE 129
  ENVATTACH 3
  POOLEDENVATTACH 0
  MIXERUIFLAGS 11 48
  ENVFADESZ10 40
  PEAKGAIN 1
  FEEDBACK 0
  PANLAW 1
  PROJOFFS 0 0 0
  MAXPROJLEN 0 0
  GRID 3199 8 1 8 1 0 0 0
  TIMEMODE 1 5 -1 30 0 0 -1
  VIDEO_CONFIG 0 0 65792
  PANMODE 3
  PANLAWFLAGS 3
  CURSOR 0
  ZOOM 100 0 0
  VZOOMEX 6 0
  USE_REC_CFG 0
  RECMODE 1
  SMPTESYNC 0 30 100 40 1000 300 0 0 1 0 0
  LOOP 0
  LOOPGRAN 0 4
  RECORD_PATH "Media" ""
  <RECORD_CFG
    ZXZhdxgAAQ==
  >
  <APPLYFX_CFG
  >
  RENDER_FILE ""
  RENDER_PATTERN ""
  RENDER_FMT 0 2 0
  RENDER_1X 0
  RENDER_RANGE 1 0 0 18 1000
  RENDER_RESAMPLE 3 0 1
  RENDER_ADDTOPROJ 0
  RENDER_STEMS 0
  RENDER_DITHER 0
  TIMELOCKMODE 1
  TEMPOENVLOCKMODE 1
  ITEMMIX 1
  DEFPITCHMODE 589824 0
  TAKELANE 1
  SAMPLERATE 44100 0 0
  <RENDER_CFG
    ZXZhdxgAAQ==
  >
  LOCK 1
  <METRONOME 6 2
    VOL 0.25 0.125
    BEATLEN 4
    FREQ 1760 880 1
    SAMPLES "" ""
    SPLIGNORE 0 0
    SPLDEF 2 660 "" 0
    SPLDEF 3 440 "" 0
    PATTERN 0 169
    PATTERNSTR ABBB
    MULT 1
  >
  GLOBAL_AUTO -1
  TEMPO 128.59999614200012 4 4
  PLAYRATE 1 0 0.25 4
  SELECTION 0 0
  SELECTION2 0 0
  MASTERAUTOMODE 0
  MASTERTRACKHEIGHT 0 0
  MASTERPEAKCOL 16576
  MASTERMUTESOLO 0
  MASTERTRACKVIEW 0 0.6667 0.5 0.5 0 0 0 0 0 0 0 0 0 0
  MASTERHWOUT 0 0 1 0 0 0 0 -1
  MASTER_NCH 2 2
  MASTER_VOLUME 1 0 -1 -1 1
  MASTER_PANMODE 3
  MASTER_PANLAWFLAGS 3
  MASTER_FX 1
  MASTER_SEL 0
  <MASTERPLAYSPEEDENV
    EGUID {2997FDFA-5ABD-45E7-88E7-4A34BA036151}
    ACT 0 -1
    VIS 0 1 1
    LANEHEIGHT 0 0
    ARM 0
    DEFSHAPE 0 -1 -1
  >
  <TEMPOENVEX
    EGUID {B5FCB1B9-2D21-4574-9172-EA168B057523}
    ACT 1 -1
    VIS 1 0 1
    LANEHEIGHT 0 0
    ARM 0
    DEFSHAPE 1 -1 -1
  >
  <PROJBAY
  >
  <TRACK {CF78917B-59ED-4676-AC09-CB439A23DEBF}
    NAME "NES - Pulse 1"
    PEAKCOL 16576606
    BEAT -1
    AUTOMODE 0
    PANLAWFLAGS 3
    VOLPAN 1 0 -1 -1 1
    MUTESOLO 0 0 0
    IPHASE 0
    PLAYOFFS 0 1
    ISBUS 0 0
    BUSCOMP 0 0 0 0 0
    SHOWINMIX 1 0.6667 0.5 1 0.5 0 0 0
    FIXEDLANES 9 0 0 0 0
    SEL 1
    REC 1 5088 1 0 0 0 0 0
    VU 2
    TRACKHEIGHT 0 0 0 0 0 0 0
    INQ 0 0 0 0.5 100 0 0 100
    NCHAN 2
    FX 1
    TRACKID {CF78917B-59ED-4676-AC09-CB439A23DEBF}
    PERF 0
    MIDIOUT -1
    MAINSEND 1 0
    <FXCHAIN
      WNDRECT 24 52 700 560
      SHOW 0
      LASTSEL 0
      DOCKED 0
      BYPASS 0 0 0
      <JS "ReapNES Studio/ReapNES_Console.jsfx" ""
        2 15 1 10 80 10 100 2 1 15 1 5 60 10 80 1 1 0 50 0 0 15 1 0 100 0 0 0.500000 0.500000 0.400000 0.300000 0.800000 0 1 0 0 0 0 - - - - - - - - - - - - - - - - - - - - - - - - - -
      >
      FLOATPOS 0 0 0 0
      FXID {229B17CD-CA67-4905-B2F0-9BF15230DF1F}
      WAK 0 0
    >
  >
  <TRACK {FB8B20CF-D688-469A-9A73-EEFBCF5E9EE8}
    NAME "NES - Pulse 2"
    PEAKCOL 10092441
    BEAT -1
    AUTOMODE 0
    PANLAWFLAGS 3
    VOLPAN 1 0 -1 -1 1
    MUTESOLO 0 0 0
    IPHASE 0
    PLAYOFFS 0 1
    ISBUS 0 0
    BUSCOMP 0 0 0 0 0
    SHOWINMIX 1 0.6667 0.5 1 0.5 0 0 0
    FIXEDLANES 9 0 0 0 0
    SEL 0
    REC 0 5088 1 0 0 0 0 0
    VU 2
    TRACKHEIGHT 0 0 0 0 0 0 0
    INQ 0 0 0 0.5 100 0 0 100
    NCHAN 2
    FX 1
    TRACKID {FB8B20CF-D688-469A-9A73-EEFBCF5E9EE8}
    PERF 0
    MIDIOUT -1
    MAINSEND 1 0
    <FXCHAIN
      WNDRECT 24 52 700 560
      SHOW 0
      LASTSEL 0
      DOCKED 0
      BYPASS 0 0 0
      <JS "ReapNES Studio/ReapNES_Console.jsfx" ""
        2 15 1 10 80 10 100 2 1 15 1 5 60 10 80 1 1 0 50 0 0 15 1 0 100 0 0 0.500000 0.500000 0.400000 0.300000 0.800000 1 1 0 0 0 0 - - - - - - - - - - - - - - - - - - - - - - - - - -
      >
      FLOATPOS 0 0 0 0
      FXID {8C5308D7-995E-41F3-B750-DFD0B2CA6C4C}
      WAK 0 0
    >
  >
  <TRACK {70797E6A-85F6-4E01-A741-223539B8C763}
    NAME "NES - Triangle [ch2]"
    PEAKCOL 16744192
    BEAT -1
    AUTOMODE 0
    PANLAWFLAGS 3
    VOLPAN 1 0 -1 -1 1
    MUTESOLO 0 0 0
    IPHASE 0
    PLAYOFFS 0 1
    ISBUS 0 0
    BUSCOMP 0 0 0 0 0
    SHOWINMIX 1 0.6667 0.5 1 0.5 0 0 0
    FIXEDLANES 9 0 0 0 0
    SEL 0
    REC 0 5088 1 0 0 0 0 0
    VU 2
    TRACKHEIGHT 0 0 0 0 0 0 0
    INQ 0 0 0 0.5 100 0 0 100
    NCHAN 2
    FX 1
    TRACKID {70797E6A-85F6-4E01-A741-223539B8C763}
    PERF 0
    MIDIOUT -1
    MAINSEND 1 0
    <FXCHAIN
      WNDRECT 24 52 700 560
      SHOW 0
      LASTSEL 0
      DOCKED 0
      BYPASS 0 0 0
      <JS "ReapNES Studio/ReapNES_Console.jsfx" ""
        2 15 1 10 80 10 100 2 1 15 1 5 60 10 80 1 1 0 50 0 0 15 1 0 100 0 0 0.500000 0.500000 0.400000 0.300000 0.800000 2 1 0 0 0 0 - - - - - - - - - - - - - - - - - - - - - - - - - -
      >
      FLOATPOS 0 0 0 0
      FXID {18F10CFD-8F7A-41D6-8D8E-034ABCB013E6}
      WAK 0 0
    >
    <ITEM
      POSITION 0
      LENGTH 74.65008
      LOOP 0
      ALLTAKES 0
      FADEIN 0 0 0 0 0 0 0
      FADEOUT 0 0 0 0 0 0 0
      MUTE 0 0
      SEL 0
      IGUID {6620DE4B-C76D-4903-80DE-526C693F7D5D}
      <SOURCE MIDI
        HASDATA 1 480 QN
        CCINTERP 32
        E 0 c2 26
        E 0 b2 0b 7f
        E 0 92 1c 7f
        E 768 82 1c 00
        E 0 b2 0b 7f
        E 0 92 1f 7f
        E 768 82 1f 00
        E 0 b2 0b 7f
        E 0 92 1e 7f
        E 768 82 1e 00
        E 0 b2 0b 7f
        E 0 92 1d 7f
        E 768 82 1d 00
        E 0 b2 0b 7f
        E 0 92 1c 7f
        E 384 82 1c 00
        E 0 b2 0b 7f
        E 0 92 22 7f
        E 384 82 22 00
        E 0 b2 0b 7f
        E 0 92 27 7f
        E 384 82 27 00
        E 0 b2 0b 7f
        E 0 92 2d 7f
        E 384 82 2d 00
        E 0 b2 0b 7f
        E 0 92 1b 7f
        E 384 82 1b 00
        E 0 b2 0b 7f
        E 0 92 21 7f
        E 384 82 21 00
        E 0 b2 0b 7f
        E 0 92 26 7f
        E 384 82 26 00
        E 0 b2 0b 7f
        E 0 92 2c 7f
        E 384 82 2c 00
        E 0 b2 0b 7f
        E 0 92 21 7f
        E 768 82 21 00
        E 0 b2 0b 7f
        E 0 92 27 7f
        E 768 82 27 00
        E 0 b2 0b 7f
        E 0 92 26 7f
        E 768 82 26 00
        E 0 b2 0b 7f
        E 0 92 20 7f
        E 768 82 20 00
        E 0 b2 0b 7f
        E 0 92 1f 7f
        E 768 82 1f 00
        E 0 b2 0b 7f
        E 0 92 25 7f
        E 768 82 25 00
        E 0 b2 0b 7f
        E 0 92 24 7f
        E 768 82 24 00
        E 0 b2 0b 7f
        E 0 92 1e 7f
        E 4864 82 1e 00
        E 0 b2 0b 7f
        E 0 92 0c 7f
        E 384 82 0c 00
        E 0 b2 0b 7f
        E 0 92 0e 7f
        E 384 82 0e 00
        E 0 b2 0b 7f
        E 0 92 0c 7f
        E 384 82 0c 00
        E 0 b2 0b 7f
        E 0 92 0e 7f
        E 384 82 0e 00
        E 0 b2 0b 7f
        E 0 92 0c 7f
        E 384 82 0c 00
        E 0 b2 0b 7f
        E 0 92 0e 7f
        E 384 82 0e 00
        E 0 b2 0b 7f
        E 0 92 0c 7f
        E 384 82 0c 00
        E 0 b2 0b 7f
        E 0 92 0e 7f
        E 384 82 0e 00
        E 0 b2 0b 7f
        E 0 92 0c 7f
        E 384 82 0c 00
        E 0 b2 0b 7f
        E 0 92 0e 7f
        E 384 82 0e 00
        E 0 b2 0b 7f
        E 0 92 0c 7f
        E 384 82 0c 00
        E 0 b2 0b 7f
        E 0 92 0e 7f
        E 384 82 0e 00
        E 0 b2 0b 7f
        E 0 92 0c 7f
        E 384 82 0c 00
        E 0 b2 0b 7f
        E 0 92 0e 7f
        E 384 82 0e 00
        E 0 b2 0b 7f
        E 0 92 0c 7f
        E 384 82 0c 00
        E 0 b2 0b 7f
        E 0 92 0e 7f
        E 384 82 0e 00
        E 0 b2 0b 7f
        E 0 92 0c 7f
        E 384 82 0c 00
        E 0 b2 0b 7f
        E 0 92 0e 7f
        E 384 82 0e 00
        E 0 b2 0b 7f
        E 0 92 0c 7f
        E 384 82 0c 00
        E 0 b2 0b 7f
        E 0 92 0e 7f
        E 384 82 0e 00
        E 0 b2 0b 7f
        E 0 92 0c 7f
        E 384 82 0c 00
        E 0 b2 0b 7f
        E 0 92 0e 7f
        E 384 82 0e 00
        E 0 b2 0b 7f
        E 0 92 0c 7f
        E 384 82 0c 00
        E 0 b2 0b 7f
        E 0 92 0e 7f
        E 384 82 0e 00
        E 0 b2 0b 7f
        E 0 92 0c 7f
        E 384 82 0c 00
        E 0 b2 0b 7f
        E 0 92 0e 7f
        E 384 82 0e 00
        E 0 b2 0b 7f
        E 0 92 0c 7f
        E 384 82 0c 00
        E 0 b2 0b 7f
        E 0 92 0e 7f
        E 384 82 0e 00
        E 0 b2 0b 7f
        E 0 92 0c 7f
        E 384 82 0c 00
        E 0 b2 0b 7f
        E 0 92 0e 7f
        E 384 82 0e 00
        E 0 b2 0b 7f
        E 0 92 0c 7f
        E 384 82 0c 00
        E 0 b2 0b 7f
        E 0 92 0e 7f
        E 384 82 0e 00
        E 0 b2 0b 7f
        E 0 92 0c 7f
        E 384 82 0c 00
        E 0 b2 0b 7f
        E 0 92 0e 7f
        E 384 82 0e 00
        E 0 b2 0b 7f
        E 0 92 0c 7f
        E 384 82 0c 00
        E 0 b2 0b 7f
        E 0 92 0e 7f
        E 384 82 0e 00
        E 0 b2 0b 7f
        E 0 92 0c 7f
        E 384 82 0c 00
        E 0 b2 0b 7f
        E 0 92 0e 7f
        E 384 82 0e 00
        E 0 b2 0b 7f
        E 0 92 0c 7f
        E 384 82 0c 00
        E 0 b2 0b 7f
        E 0 92 0e 7f
        E 384 82 0e 00
        E 0 b2 0b 7f
        E 0 92 0c 7f
        E 384 82 0c 00
        E 0 b2 0b 7f
        E 0 92 0e 7f
        E 384 82 0e 00
        E 0 b2 0b 7f
        E 0 92 0c 7f
        E 384 82 0c 00
        E 0 b2 0b 7f
        E 0 92 0e 7f
        E 384 82 0e 00
        E 0 b2 0b 7f
        E 0 92 0c 7f
        E 384 82 0c 00
        E 0 b2 0b 7f
        E 0 92 0e 7f
        E 384 82 0e 00
        E 0 b2 0b 7f
        E 0 92 0c 7f
        E 384 82 0c 00
        E 0 b2 0b 7f
        E 0 92 0e 7f
        E 384 82 0e 00
        E 0 b2 0b 7f
        E 0 92 0c 7f
        E 384 82 0c 00
        E 0 b2 0b 7f
        E 0 92 0e 7f
        E 384 82 0e 00
        E 0 b2 0b 7f
        E 0 92 0c 7f
        E 384 82 0c 00
        E 0 b2 0b 7f
        E 0 92 0e 7f
        E 384 82 0e 00
        E 0 b2 0b 7f
        E 0 92 0c 7f
        E 384 82 0c 00
        E 0 b2 0b 7f
        E 0 92 0e 7f
        E 384 82 0e 00
        E 0 b2 0b 7f
        E 0 92 0c 7f
        E 384 82 0c 00
        E 0 b2 0b 7f
        E 0 92 0e 7f
        E 384 82 0e 00
        E 0 b2 0b 7f
        E 0 92 0c 7f
        E 384 82 0c 00
        E 0 b2 0b 7f
        E 0 92 0e 7f
        E 384 82 0e 00
        E 0 b2 0b 7f
        E 0 92 0c 7f
        E 384 82 0c 00
        E 0 b2 0b 7f
        E 0 92 0e 7f
        E 384 82 0e 00
        E 0 b2 0b 7f
        E 0 92 0c 7f
        E 384 82 0c 00
        E 0 b2 0b 7f
        E 0 92 0e 7f
        E 384 82 0e 00
        E 0 b2 0b 7f
        E 0 92 0c 7f
        E 384 82 0c 00
        E 0 b2 0b 7f
        E 0 92 0e 7f
        E 384 82 0e 00
        E 0 b2 0b 7f
        E 0 92 0c 7f
        E 384 82 0c 00
        E 0 b2 0b 7f
        E 0 92 0e 7f
        E 384 82 0e 00
        E 0 b2 0b 7f
        E 0 92 0c 7f
        E 384 82 0c 00
        E 0 b2 0b 7f
        E 0 92 0e 7f
        E 384 82 0e 00
        E 0 b2 0b 7f
        E 0 92 0c 7f
        E 384 82 0c 00
        E 0 b2 0b 7f
        E 0 92 0e 7f
        E 384 82 0e 00
        E 0 b2 0b 7f
        E 0 92 0c 7f
        E 384 82 0c 00
        E 0 b2 0b 7f
        E 0 92 0e 7f
        E 384 82 0e 00
        E 0 b2 0b 7f
        E 0 92 0c 7f
        E 384 82 0c 00
        E 0 b2 0b 7f
        E 0 92 0e 7f
        E 384 82 0e 00
        E 0 b2 0b 7f
        E 0 92 0c 7f
        E 384 82 0c 00
        E 0 b2 0b 7f
        E 0 92 0e 7f
        E 384 82 0e 00
        E 0 b2 0b 7f
        E 0 92 0c 7f
        E 384 82 0c 00
        E 0 b2 0b 7f
        E 0 92 0e 7f
        E 384 82 0e 00
        E 0 b2 0b 7f
        E 0 92 0c 7f
        E 384 82 0c 00
        E 0 b2 0b 7f
        E 0 92 0e 7f
        E 384 82 0e 00
        E 0 b2 0b 7f
        E 0 92 0c 7f
        E 384 82 0c 00
        E 0 b2 0b 7f
        E 0 92 0e 7f
        E 384 82 0e 00
        E 0 b2 0b 7f
        E 0 92 0c 7f
        E 384 82 0c 00
        E 0 b2 0b 7f
        E 0 92 0e 7f
        E 384 82 0e 00
        E 0 b2 0b 7f
        E 0 92 0c 7f
        E 384 82 0c 00
        E 0 b2 0b 7f
        E 0 92 0e 7f
        E 384 82 0e 00
        E 0 b2 0b 7f
        E 0 92 0c 7f
        E 384 82 0c 00
        E 0 b2 0b 7f
        E 0 92 0e 7f
        E 384 82 0e 00
        E 0 b2 0b 7f
        E 0 92 0c 7f
        E 384 82 0c 00
        E 0 b2 0b 7f
        E 0 92 0e 7f
        E 384 82 0e 00
        E 0 b2 0b 7f
        E 0 92 0c 7f
        E 384 82 0c 00
        E 0 b2 0b 7f
        E 0 92 0e 7f
        E 384 82 0e 00
        E 0 b2 0b 7f
        E 0 92 0c 7f
        E 384 82 0c 00
        E 0 b2 0b 7f
        E 0 92 0e 7f
        E 384 82 0e 00
        E 0 b2 0b 7f
        E 0 92 0c 7f
        E 384 82 0c 00
        E 0 b2 0b 7f
        E 0 92 0e 7f
        E 384 82 0e 00
        E 0 b2 0b 7f
        E 0 92 48 7f
        E 128 82 48 00
        E 0 b2 0b 7f
        E 0 92 43 7f
        E 128 82 43 00
        E 0 b2 0b 7f
        E 0 92 48 7f
        E 128 82 48 00
        E 0 b2 0b 7f
        E 0 92 4c 7f
        E 128 82 4c 00
        E 0 b2 0b 7f
        E 0 92 48 7f
        E 128 82 48 00
        E 0 b2 0b 7f
        E 0 92 4c 7f
        E 128 82 4c 00
        E 0 b2 0b 7f
        E 0 92 4f 7f
        E 128 82 4f 00
        E 256 b2 0b 7f
        E 0 92 4c 7f
        E 128 82 4c 00
        E 128 b2 0b 7f
        E 0 92 48 7f
        E 128 82 48 00
        E 0 b2 0b 7f
        E 0 92 4d 7f
        E 128 82 4d 00
        E 256 b2 0b 7f
        E 0 92 4c 7f
        E 128 82 4c 00
        E 128 b2 0b 7f
        E 0 92 48 7f
        E 128 82 48 00
        E 0 b2 0b 7f
        E 0 92 45 7f
        E 384 82 45 00
        E 0 b2 0b 7f
        E 0 92 47 7f
        E 384 82 47 00
        E 0 b2 0b 7f
        E 0 92 48 7f
        E 128 82 48 00
        E 0 b2 0b 7f
        E 0 92 43 7f
        E 128 82 43 00
        E 0 b2 0b 7f
        E 0 92 48 7f
        E 128 82 48 00
        E 0 b2 0b 7f
        E 0 92 4c 7f
        E 128 82 4c 00
        E 0 b2 0b 7f
        E 0 92 48 7f
        E 128 82 48 00
        E 0 b2 0b 7f
        E 0 92 4c 7f
        E 128 82 4c 00
        E 0 b2 0b 7f
        E 0 92 4f 7f
        E 128 82 4f 00
        E 256 b2 0b 7f
        E 0 92 4f 7f
        E 128 82 4f 00
        E 128 b2 0b 7f
        E 0 92 48 7f
        E 128 82 48 00
        E 0 b2 0b 7f
        E 0 92 45 7f
        E 384 82 45 00
        E 0 b2 0b 7f
        E 0 92 47 7f
        E 384 82 47 00
        E 0 b2 0b 7f
        E 0 92 48 7f
        E 384 82 48 00
        E 0 b2 0b 7f
        E 0 92 4a 7f
        E 384 82 4a 00
        E 0 b2 0b 7f
        E 0 92 43 7f
        E 6144 82 43 00
        E 0 b2 0b 7f
        E 0 92 18 7f
        E 384 82 18 00
        E 1152 b2 0b 7f
        E 0 92 2b 7f
        E 512 82 2b 00
        E 128 b2 0b 7f
        E 0 92 2b 7f
        E 128 82 2b 00
        E 0 b2 0b 7f
        E 0 92 29 7f
        E 384 82 29 00
        E 0 b2 0b 7f
        E 0 92 2d 7f
        E 384 82 2d 00
        E 0 b2 0b 7f
        E 0 92 18 7f
        E 384 82 18 00
        E 1152 b2 0b 7f
        E 0 92 29 7f
        E 384 82 29 00
        E 0 b2 0b 7f
        E 0 92 2b 7f
        E 384 82 2b 00
        E 0 b2 0b 7f
        E 0 92 2c 7f
        E 768 82 2c 00
        E 0 b2 0b 7f
        E 0 92 30 7f
        E 4608 82 30 00
        E 512 b2 7b 00
        E 0 ff 2f 00
      >
    >
  >
  <TRACK {BAC1172E-0D25-4588-A699-89FAE465350A}
    NAME "NES - Noise / Drums [ch3]"
    PEAKCOL 11184810
    BEAT -1
    AUTOMODE 0
    PANLAWFLAGS 3
    VOLPAN 1 0 -1 -1 1
    MUTESOLO 0 0 0
    IPHASE 0
    PLAYOFFS 0 1
    ISBUS 0 0
    BUSCOMP 0 0 0 0 0
    SHOWINMIX 1 0.6667 0.5 1 0.5 0 0 0
    FIXEDLANES 9 0 0 0 0
    SEL 0
    REC 0 5088 1 0 0 0 0 0
    VU 2
    TRACKHEIGHT 0 0 0 0 0 0 0
    INQ 0 0 0 0.5 100 0 0 100
    NCHAN 2
    FX 1
    TRACKID {BAC1172E-0D25-4588-A699-89FAE465350A}
    PERF 0
    MIDIOUT -1
    MAINSEND 1 0
    <FXCHAIN
      WNDRECT 24 52 700 560
      SHOW 0
      LASTSEL 0
      DOCKED 0
      BYPASS 0 0 0
      <JS "ReapNES Studio/ReapNES_Console.jsfx" ""
        2 15 1 10 80 10 100 2 1 15 1 5 60 10 80 1 1 0 50 0 0 15 1 0 100 0 0 0.500000 0.500000 0.400000 0.300000 0.800000 3 1 0 0 0 0 - - - - - - - - - - - - - - - - - - - - - - - - - -
      >
      FLOATPOS 0 0 0 0
      FXID {F9B29CCD-3CCF-4AA5-92C4-B1D14E2CDD73}
      WAK 0 0
    >
    <ITEM
      POSITION 0
      LENGTH 74.65008
      LOOP 0
      ALLTAKES 0
      FADEIN 0 0 0 0 0 0 0
      FADEOUT 0 0 0 0 0 0 0
      MUTE 0 0
      SEL 0
      IGUID {9494751F-7C28-4C6A-B26B-C04A7484FEB9}
      <SOURCE MIDI
        HASDATA 1 480 QN
        CCINTERP 32
        E 0 93 2a 4c
        E 76800 83 2a 00
        E 0 b3 7b 00
        E 0 ff 2f 00
      >
    >
  >
>