<REAPER_PROJECT 0.1 "7.27/win64" 1707000000
  <NOTES 0 2
    |ReapNES Studio Project
    |MIDI Import - Kid_Icarus_config10_rom_v1
  >
  RIPPLE 0
  GROUPOVERRIDE 0 0 0
  AUTOXFADE 129
  ENVATTACH 3
  POOLEDENVATTACH 0
  MIXERUIFLAGS 11 48
  ENVFADESZ10 40
  PEAKGAIN 1
  FEEDBACK 0
  PANLAW 1
  PROJOFFS 0 0 0
  MAXPROJLEN 0 0
  GRID 3199 8 1 8 1 0 0 0
  TIMEMODE 1 5 -1 30 0 0 -1
  VIDEO_CONFIG 0 0 65792
  PANMODE 3
  PANLAWFLAGS 3
  CURSOR 0
  ZOOM 100 0 0
  VZOOMEX 6 0
  USE_REC_CFG 0
  RECMODE 1
  SMPTESYNC 0 30 100 40 1000 300 0 0 1 0 0
  LOOP 0
  LOOPGRAN 0 4
  RECORD_PATH "Media" ""
  <RECORD_CFG
    ZXZhdxgAAQ==
  >
  <APPLYFX_CFG
  >
  RENDER_FILE ""
  RENDER_PATTERN ""
  RENDER_FMT 0 2 0
  RENDER_1X 0
  RENDER_RANGE 1 0 0 18 1000
  RENDER_RESAMPLE 3 0 1
  RENDER_ADDTOPROJ 0
  RENDER_STEMS 0
  RENDER_DITHER 0
  TIMELOCKMODE 1
  TEMPOENVLOCKMODE 1
  ITEMMIX 1
  DEFPITCHMODE 589824 0
  TAKELANE 1
  SAMPLERATE 44100 0 0
  <RENDER_CFG
    ZXZhdxgAAQ==
  >
  LOCK 1
  <METRONOME 6 2
    VOL 0.25 0.125
    BEATLEN 4
    FREQ 1760 880 1
    SAMPLES "" ""
    SPLIGNORE 0 0
    SPLDEF 2 660 "" 0
    SPLDEF 3 440 "" 0
    PATTERN 0 169
    PATTERNSTR ABBB
    MULT 1
  >
  GLOBAL_AUTO -1
  TEMPO 128.59999614200012 4 4
  PLAYRATE 1 0 0.25 4
  SELECTION 0 0
  SELECTION2 0 0
  MASTERAUTOMODE 0
  MASTERTRACKHEIGHT 0 0
  MASTERPEAKCOL 16576
  MASTERMUTESOLO 0
  MASTERTRACKVIEW 0 0.6667 0.5 0.5 0 0 0 0 0 0 0 0 0 0
  MASTERHWOUT 0 0 1 0 0 0 0 -1
  MASTER_NCH 2 2
  MASTER_VOLUME 1 0 -1 -1 1
  MASTER_PANMODE 3
  MASTER_PANLAWFLAGS 3
  MASTER_FX 1
  MASTER_SEL 0
  <MASTERPLAYSPEEDENV
    EGUID {22110EE6-74A7-44B3-B1D0-17CF4ADF6BE9}
    ACT 0 -1
    VIS 0 1 1
    LANEHEIGHT 0 0
    ARM 0
    DEFSHAPE 0 -1 -1
  >
  <TEMPOENVEX
    EGUID {3D4506EC-B47E-4270-8BA2-E70FBB0396EE}
    ACT 1 -1
    VIS 1 0 1
    LANEHEIGHT 0 0
    ARM 0
    DEFSHAPE 1 -1 -1
  >
  <PROJBAY
  >
  <TRACK {6BA54C41-4C20-4249-B865-5037E9FB5E18}
    NAME "NES - Pulse 1 [ch0]"
    PEAKCOL 16576606
    BEAT -1
    AUTOMODE 0
    PANLAWFLAGS 3
    VOLPAN 1 0 -1 -1 1
    MUTESOLO 0 0 0
    IPHASE 0
    PLAYOFFS 0 1
    ISBUS 0 0
    BUSCOMP 0 0 0 0 0
    SHOWINMIX 1 0.6667 0.5 1 0.5 0 0 0
    FIXEDLANES 9 0 0 0 0
    SEL 1
    REC 1 5088 1 0 0 0 0 0
    VU 2
    TRACKHEIGHT 0 0 0 0 0 0 0
    INQ 0 0 0 0.5 100 0 0 100
    NCHAN 2
    FX 1
    TRACKID {6BA54C41-4C20-4249-B865-5037E9FB5E18}
    PERF 0
    MIDIOUT -1
    MAINSEND 1 0
    <FXCHAIN
      WNDRECT 24 52 700 560
      SHOW 0
      LASTSEL 0
      DOCKED 0
      BYPASS 0 0 0
      <JS "ReapNES Studio/ReapNES_Console.jsfx" ""
        2 15 1 10 80 10 100 2 1 15 1 5 60 10 80 1 1 0 50 0 0 15 1 0 100 0 0 0.500000 0.500000 0.400000 0.300000 0.800000 0 1 0 0 0 0 - - - - - - - - - - - - - - - - - - - - - - - - - -
      >
      FLOATPOS 0 0 0 0
      FXID {B9706DF6-0AE3-4F87-BC1F-7440A9A919D9}
      WAK 0 0
    >
    <ITEM
      POSITION 0
      LENGTH 74.65008
      LOOP 0
      ALLTAKES 0
      FADEIN 0 0 0 0 0 0 0
      FADEOUT 0 0 0 0 0 0 0
      MUTE 0 0
      SEL 0
      IGUID {9662692F-8348-42B7-9978-E99985F96452}
      <SOURCE MIDI
        HASDATA 1 480 QN
        CCINTERP 32
        E 0 c0 50
        E 0 b0 0c 10
        E 0 b0 0b 2a
        E 0 90 4f 2a
        E 16 b0 0b 3b
        E 16 b0 0b 44
        E 16 b0 0b 3b
        E 16 b0 0b 33
        E 16 b0 0b 2a
        E 16 b0 0b 22
        E 16 80 4f 00
        E 80 b0 0b 2a
        E 0 90 51 2a
        E 16 b0 0b 3b
        E 16 b0 0b 44
        E 16 b0 0b 3b
        E 16 b0 0b 33
        E 16 b0 0b 2a
        E 16 b0 0b 22
        E 16 80 51 00
        E 80 b0 0b 2a
        E 0 90 4f 2a
        E 16 b0 0b 3b
        E 16 b0 0b 44
        E 16 b0 0b 3b
        E 16 b0 0b 33
        E 16 b0 0b 2a
        E 16 b0 0b 22
        E 16 80 4f 00
        E 80 b0 0b 2a
        E 0 90 51 2a
        E 16 b0 0b 3b
        E 16 b0 0b 44
        E 16 b0 0b 3b
        E 16 b0 0b 33
        E 16 b0 0b 2a
        E 16 b0 0b 22
        E 16 80 51 00
        E 80 b0 0b 2a
        E 0 90 4f 2a
        E 16 b0 0b 3b
        E 16 b0 0b 44
        E 16 b0 0b 3b
        E 16 b0 0b 33
        E 16 b0 0b 2a
        E 16 b0 0b 22
        E 16 80 4f 00
        E 80 b0 0b 2a
        E 0 90 51 2a
        E 16 b0 0b 3b
        E 16 b0 0b 44
        E 16 b0 0b 3b
        E 16 b0 0b 33
        E 16 b0 0b 2a
        E 16 b0 0b 22
        E 16 80 51 00
        E 80 b0 0b 2a
        E 0 90 4f 2a
        E 16 b0 0b 3b
        E 16 b0 0b 44
        E 16 b0 0b 3b
        E 16 b0 0b 33
        E 16 b0 0b 2a
        E 16 b0 0b 22
        E 16 80 4f 00
        E 80 b0 0b 2a
        E 0 90 51 2a
        E 16 b0 0b 3b
        E 16 b0 0b 44
        E 16 b0 0b 3b
        E 16 b0 0b 33
        E 16 b0 0b 2a
        E 16 b0 0b 22
        E 16 80 51 00
        E 80 b0 0b 2a
        E 0 90 4f 2a
        E 16 b0 0b 3b
        E 16 b0 0b 44
        E 16 b0 0b 3b
        E 16 b0 0b 33
        E 16 b0 0b 2a
        E 16 b0 0b 22
        E 16 80 4f 00
        E 80 b0 0b 2a
        E 0 90 51 2a
        E 16 b0 0b 3b
        E 16 b0 0b 44
        E 16 b0 0b 3b
        E 16 b0 0b 33
        E 16 b0 0b 2a
        E 16 b0 0b 22
        E 16 80 51 00
        E 80 b0 0b 2a
        E 0 90 4f 2a
        E 16 b0 0b 3b
        E 16 b0 0b 44
        E 16 b0 0b 3b
        E 16 b0 0b 33
        E 16 b0 0b 2a
        E 16 b0 0b 22
        E 16 80 4f 00
        E 80 b0 0b 2a
        E 0 90 51 2a
        E 16 b0 0b 3b
        E 16 b0 0b 44
        E 16 b0 0b 3b
        E 16 b0 0b 33
        E 16 b0 0b 2a
        E 16 b0 0b 22
        E 16 80 51 00
        E 80 b0 0b 2a
        E 0 90 4f 2a
        E 16 b0 0b 3b
        E 16 b0 0b 44
        E 16 b0 0b 3b
        E 16 b0 0b 33
        E 16 b0 0b 2a
        E 16 b0 0b 22
        E 16 80 4f 00
        E 80 b0 0b 2a
        E 0 90 51 2a
        E 16 b0 0b 3b
        E 16 b0 0b 44
        E 16 b0 0b 3b
        E 16 b0 0b 33
        E 16 b0 0b 2a
        E 16 b0 0b 22
        E 16 80 51 00
        E 80 b0 0b 2a
        E 0 90 4f 2a
        E 16 b0 0b 3b
        E 16 b0 0b 44
        E 16 b0 0b 3b
        E 16 b0 0b 33
        E 16 b0 0b 2a
        E 16 b0 0b 22
        E 16 80 4f 00
        E 80 b0 0b 2a
        E 0 90 51 2a
        E 16 b0 0b 3b
        E 16 b0 0b 44
        E 16 b0 0b 3b
        E 16 b0 0b 33
        E 16 b0 0b 2a
        E 16 b0 0b 22
        E 16 80 51 00
        E 80 b0 0b 2a
        E 0 90 4f 2a
        E 16 b0 0b 3b
        E 16 b0 0b 44
        E 16 b0 0b 3b
        E 16 b0 0b 33
        E 16 b0 0b 2a
        E 16 b0 0b 22
        E 16 80 4f 00
        E 80 b0 0b 2a
        E 0 90 51 2a
        E 16 b0 0b 3b
        E 16 b0 0b 44
        E 16 b0 0b 3b
        E 16 b0 0b 33
        E 16 b0 0b 2a
        E 16 b0 0b 22
        E 16 80 51 00
        E 80 b0 0b 2a
        E 0 90 4f 2a
        E 16 b0 0b 3b
        E 16 b0 0b 44
        E 16 b0 0b 3b
        E 16 b0 0b 33
        E 16 b0 0b 2a
        E 16 b0 0b 22
        E 16 80 4f 00
        E 80 b0 0b 2a
        E 0 90 51 2a
        E 16 b0 0b 3b
        E 16 b0 0b 44
        E 16 b0 0b 3b
        E 16 b0 0b 33
        E 16 b0 0b 2a
        E 16 b0 0b 22
        E 16 80 51 00
        E 80 b0 0b 2a
        E 0 90 4f 2a
        E 16 b0 0b 3b
        E 16 b0 0b 44
        E 16 b0 0b 3b
        E 16 b0 0b 33
        E 16 b0 0b 2a
        E 16 b0 0b 22
        E 16 80 4f 00
        E 80 b0 0b 2a
        E 0 90 51 2a
        E 16 b0 0b 3b
        E 16 b0 0b 44
        E 16 b0 0b 3b
        E 16 b0 0b 33
        E 16 b0 0b 2a
        E 16 b0 0b 22
        E 16 80 51 00
        E 80 b0 0b 2a
        E 0 90 4f 2a
        E 16 b0 0b 3b
        E 16 b0 0b 44
        E 16 b0 0b 3b
        E 16 b0 0b 33
        E 16 b0 0b 2a
        E 16 b0 0b 22
        E 16 80 4f 00
        E 80 b0 0b 2a
        E 0 90 51 2a
        E 16 b0 0b 3b
        E 16 b0 0b 44
        E 16 b0 0b 3b
        E 16 b0 0b 33
        E 16 b0 0b 2a
        E 16 b0 0b 22
        E 16 80 51 00
        E 80 b0 0b 2a
        E 0 90 4f 2a
        E 16 b0 0b 3b
        E 16 b0 0b 44
        E 16 b0 0b 3b
        E 16 b0 0b 33
        E 16 b0 0b 2a
        E 16 b0 0b 22
        E 16 80 4f 00
        E 16 b0 0b 2a
        E 0 90 4f 2a
        E 16 b0 0b 3b
        E 16 b0 0b 44
        E 16 b0 0b 3b
        E 16 b0 0b 33
        E 16 b0 0b 2a
        E 16 b0 0b 22
        E 16 80 4f 00
        E 16 b0 0b 2a
        E 0 90 4f 2a
        E 16 b0 0b 3b
        E 16 b0 0b 44
        E 16 b0 0b 3b
        E 16 b0 0b 33
        E 16 b0 0b 2a
        E 16 b0 0b 22
        E 16 80 4f 00
        E 16 b0 0b 2a
        E 0 90 4f 2a
        E 16 b0 0b 3b
        E 16 b0 0b 44
        E 16 b0 0b 3b
        E 16 b0 0b 33
        E 16 b0 0b 2a
        E 16 b0 0b 22
        E 16 80 4f 00
        E 16 b0 0b 2a
        E 0 90 4f 2a
        E 16 b0 0b 3b
        E 16 b0 0b 44
        E 16 b0 0b 3b
        E 16 b0 0b 33
        E 16 b0 0b 2a
        E 16 b0 0b 22
        E 16 80 4f 00
        E 16 b0 0b 2a
        E 0 90 4f 2a
        E 16 b0 0b 3b
        E 16 b0 0b 44
        E 16 b0 0b 3b
        E 16 b0 0b 33
        E 16 b0 0b 2a
        E 16 b0 0b 22
        E 16 80 4f 00
        E 16 b0 0b 2a
        E 0 90 4f 2a
        E 16 b0 0b 3b
        E 16 b0 0b 44
        E 16 b0 0b 3b
        E 16 b0 0b 33
        E 16 b0 0b 2a
        E 16 b0 0b 22
        E 16 80 4f 00
        E 16 b0 0b 2a
        E 0 90 4f 2a
        E 16 b0 0b 3b
        E 16 b0 0b 44
        E 16 b0 0b 3b
        E 16 b0 0b 33
        E 16 b0 0b 2a
        E 16 b0 0b 22
        E 16 80 4f 00
        E 16 b0 0b 2a
        E 0 90 4f 2a
        E 16 b0 0b 3b
        E 16 b0 0b 44
        E 16 b0 0b 3b
        E 16 b0 0b 33
        E 16 b0 0b 2a
        E 16 b0 0b 22
        E 16 80 4f 00
        E 16 b0 0b 2a
        E 0 90 4f 2a
        E 16 b0 0b 3b
        E 16 b0 0b 44
        E 16 b0 0b 3b
        E 16 b0 0b 33
        E 16 b0 0b 2a
        E 16 b0 0b 22
        E 16 80 4f 00
        E 16 b0 0b 2a
        E 0 90 4f 2a
        E 16 b0 0b 3b
        E 16 b0 0b 44
        E 16 b0 0b 3b
        E 16 b0 0b 33
        E 16 b0 0b 2a
        E 16 b0 0b 22
        E 16 80 4f 00
        E 16 b0 0b 2a
        E 0 90 4f 2a
        E 16 b0 0b 3b
        E 16 b0 0b 44
        E 16 b0 0b 3b
        E 16 b0 0b 33
        E 16 b0 0b 2a
        E 16 b0 0b 22
        E 16 80 4f 00
        E 400 b0 0b 2a
        E 0 90 46 2a
        E 16 b0 0b 3b
        E 16 b0 0b 44
        E 16 b0 0b 3b
        E 16 b0 0b 33
        E 16 b0 0b 2a
        E 16 b0 0b 22
        E 16 80 46 00
        E 16 b0 0b 2a
        E 0 90 46 2a
        E 16 b0 0b 3b
        E 16 b0 0b 44
        E 16 b0 0b 3b
        E 16 b0 0b 33
        E 16 b0 0b 2a
        E 16 b0 0b 22
        E 16 80 46 00
        E 16 b0 0b 2a
        E 0 90 46 2a
        E 16 b0 0b 3b
        E 16 b0 0b 44
        E 16 b0 0b 3b
        E 16 b0 0b 33
        E 16 b0 0b 2a
        E 16 b0 0b 22
        E 16 80 46 00
        E 16 b0 0b 2a
        E 0 90 45 2a
        E 16 b0 0b 3b
        E 16 b0 0b 44
        E 16 b0 0b 3b
        E 16 b0 0b 33
        E 16 b0 0b 2a
        E 16 b0 0b 22
        E 16 80 45 00
        E 16 b0 0b 2a
        E 0 90 45 2a
        E 16 b0 0b 3b
        E 16 b0 0b 44
        E 16 b0 0b 3b
        E 16 b0 0b 33
        E 16 b0 0b 2a
        E 16 b0 0b 22
        E 16 80 45 00
        E 16 b0 0b 2a
        E 0 90 45 2a
        E 16 b0 0b 3b
        E 16 b0 0b 44
        E 16 b0 0b 3b
        E 16 b0 0b 33
        E 16 b0 0b 2a
        E 16 b0 0b 22
        E 16 80 45 00
        E 16 b0 0b 2a
        E 0 90 44 2a
        E 16 b0 0b 3b
        E 16 b0 0b 44
        E 16 b0 0b 3b
        E 16 b0 0b 33
        E 16 b0 0b 2a
        E 16 b0 0b 22
        E 16 80 44 00
        E 16 b0 0b 2a
        E 0 90 44 2a
        E 16 b0 0b 3b
        E 16 b0 0b 44
        E 16 b0 0b 3b
        E 16 b0 0b 33
        E 16 b0 0b 2a
        E 16 b0 0b 22
        E 16 80 44 00
        E 16 b0 0b 2a
        E 0 90 44 2a
        E 16 b0 0b 3b
        E 16 b0 0b 44
        E 16 b0 0b 3b
        E 16 b0 0b 33
        E 16 b0 0b 2a
        E 16 b0 0b 22
        E 16 80 44 00
        E 16 b0 0b 2a
        E 0 90 4f 2a
        E 16 b0 0b 3b
        E 16 b0 0b 44
        E 16 b0 0b 3b
        E 16 b0 0b 33
        E 16 b0 0b 2a
        E 16 b0 0b 22
        E 16 80 4f 00
        E 16 b0 0b 2a
        E 0 90 4f 2a
        E 16 b0 0b 3b
        E 16 b0 0b 44
        E 16 b0 0b 3b
        E 16 b0 0b 33
        E 16 b0 0b 2a
        E 16 b0 0b 22
        E 16 80 4f 00
        E 16 b0 0b 2a
        E 0 90 4f 2a
        E 16 b0 0b 3b
        E 16 b0 0b 44
        E 16 b0 0b 3b
        E 16 b0 0b 33
        E 16 b0 0b 2a
        E 16 b0 0b 22
        E 16 80 4f 00
        E 16 b0 0b 2a
        E 0 90 4f 2a
        E 16 b0 0b 3b
        E 16 b0 0b 44
        E 16 b0 0b 3b
        E 16 b0 0b 33
        E 16 b0 0b 2a
        E 16 b0 0b 22
        E 16 80 4f 00
        E 16 b0 0b 2a
        E 0 90 4f 2a
        E 16 b0 0b 3b
        E 16 b0 0b 44
        E 16 b0 0b 3b
        E 16 b0 0b 33
        E 16 b0 0b 2a
        E 16 b0 0b 22
        E 16 80 4f 00
        E 16 b0 0b 2a
        E 0 90 4f 2a
        E 16 b0 0b 3b
        E 16 b0 0b 44
        E 16 b0 0b 3b
        E 16 b0 0b 33
        E 16 b0 0b 2a
        E 16 b0 0b 22
        E 16 80 4f 00
        E 16 b0 0b 2a
        E 0 90 4f 2a
        E 16 b0 0b 3b
        E 16 b0 0b 44
        E 16 b0 0b 3b
        E 16 b0 0b 33
        E 16 b0 0b 2a
        E 16 b0 0b 22
        E 16 80 4f 00
        E 16 b0 0b 2a
        E 0 90 4f 2a
        E 16 b0 0b 3b
        E 16 b0 0b 44
        E 16 b0 0b 3b
        E 16 b0 0b 33
        E 16 b0 0b 2a
        E 16 b0 0b 22
        E 16 80 4f 00
        E 16 b0 0b 2a
        E 0 90 4f 2a
        E 16 b0 0b 3b
        E 16 b0 0b 44
        E 16 b0 0b 3b
        E 16 b0 0b 33
        E 16 b0 0b 2a
        E 16 b0 0b 22
        E 16 80 4f 00
        E 16 b0 0b 2a
        E 0 90 4f 2a
        E 16 b0 0b 3b
        E 16 b0 0b 44
        E 16 b0 0b 3b
        E 16 b0 0b 33
        E 16 b0 0b 2a
        E 16 b0 0b 22
        E 16 80 4f 00
        E 16 b0 0b 2a
        E 0 90 4f 2a
        E 16 b0 0b 3b
        E 16 b0 0b 44
        E 16 b0 0b 3b
        E 16 b0 0b 33
        E 16 b0 0b 2a
        E 16 b0 0b 22
        E 16 80 4f 00
        E 16 b0 0b 2a
        E 0 90 4f 2a
        E 16 b0 0b 3b
        E 16 b0 0b 44
        E 16 b0 0b 3b
        E 16 b0 0b 33
        E 16 b0 0b 2a
        E 16 b0 0b 22
        E 16 80 4f 00
        E 400 b0 0b 2a
        E 0 90 46 2a
        E 16 b0 0b 3b
        E 16 b0 0b 44
        E 16 b0 0b 3b
        E 16 b0 0b 33
        E 16 b0 0b 2a
        E 16 b0 0b 22
        E 16 80 46 00
        E 16 b0 0b 2a
        E 0 90 46 2a
        E 16 b0 0b 3b
        E 16 b0 0b 44
        E 16 b0 0b 3b
        E 16 b0 0b 33
        E 16 b0 0b 2a
        E 16 b0 0b 22
        E 16 80 46 00
        E 16 b0 0b 2a
        E 0 90 46 2a
        E 16 b0 0b 3b
        E 16 b0 0b 44
        E 16 b0 0b 3b
        E 16 b0 0b 33
        E 16 b0 0b 2a
        E 16 b0 0b 22
        E 16 80 46 00
        E 16 b0 0b 2a
        E 0 90 45 2a
        E 16 b0 0b 3b
        E 16 b0 0b 44
        E 16 b0 0b 3b
        E 16 b0 0b 33
        E 16 b0 0b 2a
        E 16 b0 0b 22
        E 16 80 45 00
        E 16 b0 0b 2a
        E 0 90 45 2a
        E 16 b0 0b 3b
        E 16 b0 0b 44
        E 16 b0 0b 3b
        E 16 b0 0b 33
        E 16 b0 0b 2a
        E 16 b0 0b 22
        E 16 80 45 00
        E 16 b0 0b 2a
        E 0 90 45 2a
        E 16 b0 0b 3b
        E 16 b0 0b 44
        E 16 b0 0b 3b
        E 16 b0 0b 33
        E 16 b0 0b 2a
        E 16 b0 0b 22
        E 16 80 45 00
        E 16 b0 0b 2a
        E 0 90 44 2a
        E 16 b0 0b 3b
        E 16 b0 0b 44
        E 16 b0 0b 3b
        E 16 b0 0b 33
        E 16 b0 0b 2a
        E 16 b0 0b 22
        E 16 80 44 00
        E 16 b0 0b 2a
        E 0 90 44 2a
        E 16 b0 0b 3b
        E 16 b0 0b 44
        E 16 b0 0b 3b
        E 16 b0 0b 33
        E 16 b0 0b 2a
        E 16 b0 0b 22
        E 16 80 44 00
        E 16 b0 0b 2a
        E 0 90 44 2a
        E 16 b0 0b 3b
        E 16 b0 0b 44
        E 16 b0 0b 3b
        E 16 b0 0b 33
        E 16 b0 0b 2a
        E 16 b0 0b 22
        E 16 80 44 00
        E 16 b0 0b 2a
        E 0 90 40 2a
        E 16 b0 0b 3b
        E 16 b0 0b 44
        E 16 b0 0b 3b
        E 16 b0 0b 33
        E 16 b0 0b 2a
        E 16 b0 0b 22
        E 16 80 40 00
        E 16 b0 0b 2a
        E 0 90 40 2a
        E 16 b0 0b 3b
        E 16 b0 0b 44
        E 16 b0 0b 3b
        E 16 b0 0b 33
        E 16 b0 0b 2a
        E 16 b0 0b 22
        E 16 80 40 00
        E 16 b0 0b 2a
        E 0 90 40 2a
        E 16 b0 0b 3b
        E 16 b0 0b 44
        E 16 b0 0b 3b
        E 16 b0 0b 33
        E 16 b0 0b 2a
        E 16 b0 0b 22
        E 16 80 40 00
        E 16 b0 0b 2a
        E 0 90 3c 2a
        E 16 b0 0b 3b
        E 16 b0 0b 44
        E 16 b0 0b 3b
        E 16 b0 0b 33
        E 16 b0 0b 2a
        E 16 b0 0b 22
        E 16 80 3c 00
        E 16 b0 0b 2a
        E 0 90 3c 2a
        E 16 b0 0b 3b
        E 16 b0 0b 44
        E 16 b0 0b 3b
        E 16 b0 0b 33
        E 16 b0 0b 2a
        E 16 b0 0b 22
        E 16 80 3c 00
        E 16 b0 0b 2a
        E 0 90 3c 2a
        E 16 b0 0b 3b
        E 16 b0 0b 44
        E 16 b0 0b 3b
        E 16 b0 0b 33
        E 16 b0 0b 2a
        E 16 b0 0b 22
        E 16 80 3c 00
        E 16 b0 0b 2a
        E 0 90 3e 2a
        E 16 b0 0b 3b
        E 16 b0 0b 44
        E 16 b0 0b 3b
        E 16 b0 0b 33
        E 16 b0 0b 2a
        E 16 b0 0b 22
        E 16 80 3e 00
        E 16 b0 0b 2a
        E 0 90 3e 2a
        E 16 b0 0b 3b
        E 16 b0 0b 44
        E 16 b0 0b 3b
        E 16 b0 0b 33
        E 16 b0 0b 2a
        E 16 b0 0b 22
        E 16 80 3e 00
        E 16 b0 0b 2a
        E 0 90 3e 2a
        E 16 b0 0b 3b
        E 16 b0 0b 44
        E 16 b0 0b 3b
        E 16 b0 0b 33
        E 16 b0 0b 2a
        E 16 b0 0b 22
        E 16 80 3e 00
        E 16 b0 0b 2a
        E 0 90 41 2a
        E 16 b0 0b 3b
        E 16 b0 0b 44
        E 16 b0 0b 3b
        E 16 b0 0b 33
        E 16 b0 0b 2a
        E 16 b0 0b 22
        E 16 80 41 00
        E 16 b0 0b 2a
        E 0 90 41 2a
        E 16 b0 0b 3b
        E 16 b0 0b 44
        E 16 b0 0b 3b
        E 16 b0 0b 33
        E 16 b0 0b 2a
        E 16 b0 0b 22
        E 16 80 41 00
        E 16 b0 0b 2a
        E 0 90 41 2a
        E 16 b0 0b 3b
        E 16 b0 0b 44
        E 16 b0 0b 3b
        E 16 b0 0b 33
        E 16 b0 0b 2a
        E 16 b0 0b 22
        E 16 80 41 00
        E 16 b0 0b 2a
        E 0 90 40 2a
        E 16 b0 0b 3b
        E 16 b0 0b 44
        E 16 b0 0b 3b
        E 16 b0 0b 33
        E 16 b0 0b 2a
        E 16 b0 0b 22
        E 16 80 40 00
        E 16 b0 0b 2a
        E 0 90 40 2a
        E 16 b0 0b 3b
        E 16 b0 0b 44
        E 16 b0 0b 3b
        E 16 b0 0b 33
        E 16 b0 0b 2a
        E 16 b0 0b 22
        E 16 80 40 00
        E 16 b0 0b 2a
        E 0 90 40 2a
        E 16 b0 0b 3b
        E 16 b0 0b 44
        E 16 b0 0b 3b
        E 16 b0 0b 33
        E 16 b0 0b 2a
        E 16 b0 0b 22
        E 16 80 40 00
        E 16 b0 0b 2a
        E 0 90 3c 2a
        E 16 b0 0b 3b
        E 16 b0 0b 44
        E 16 b0 0b 3b
        E 16 b0 0b 33
        E 16 b0 0b 2a
        E 16 b0 0b 22
        E 16 80 3c 00
        E 16 b0 0b 2a
        E 0 90 3c 2a
        E 16 b0 0b 3b
        E 16 b0 0b 44
        E 16 b0 0b 3b
        E 16 b0 0b 33
        E 16 b0 0b 2a
        E 16 b0 0b 22
        E 16 80 3c 00
        E 16 b0 0b 2a
        E 0 90 3c 2a
        E 16 b0 0b 3b
        E 16 b0 0b 44
        E 16 b0 0b 3b
        E 16 b0 0b 33
        E 16 b0 0b 2a
        E 16 b0 0b 22
        E 16 80 3c 00
        E 16 b0 0b 2a
        E 0 90 3e 2a
        E 16 b0 0b 3b
        E 16 b0 0b 44
        E 16 b0 0b 3b
        E 16 b0 0b 33
        E 16 b0 0b 2a
        E 16 b0 0b 22
        E 16 80 3e 00
        E 16 b0 0b 2a
        E 0 90 3e 2a
        E 16 b0 0b 3b
        E 16 b0 0b 44
        E 16 b0 0b 3b
        E 16 b0 0b 33
        E 16 b0 0b 2a
        E 16 b0 0b 22
        E 16 80 3e 00
        E 16 b0 0b 2a
        E 0 90 3e 2a
        E 16 b0 0b 3b
        E 16 b0 0b 44
        E 16 b0 0b 3b
        E 16 b0 0b 33
        E 16 b0 0b 2a
        E 16 b0 0b 22
        E 16 80 3e 00
        E 16 b0 0b 2a
        E 0 90 41 2a
        E 16 b0 0b 3b
        E 16 b0 0b 44
        E 16 b0 0b 3b
        E 16 b0 0b 33
        E 16 b0 0b 2a
        E 16 b0 0b 22
        E 16 80 41 00
        E 16 b0 0b 2a
        E 0 90 41 2a
        E 16 b0 0b 3b
        E 16 b0 0b 44
        E 16 b0 0b 3b
        E 16 b0 0b 33
        E 16 b0 0b 2a
        E 16 b0 0b 22
        E 16 80 41 00
        E 16 b0 0b 2a
        E 0 90 41 2a
        E 16 b0 0b 3b
        E 16 b0 0b 44
        E 16 b0 0b 3b
        E 16 b0 0b 33
        E 16 b0 0b 2a
        E 16 b0 0b 22
        E 16 80 41 00
        E 16 b0 0b 2a
        E 0 90 40 2a
        E 16 b0 0b 3b
        E 16 b0 0b 44
        E 16 b0 0b 3b
        E 16 b0 0b 33
        E 16 b0 0b 2a
        E 16 b0 0b 22
        E 16 80 40 00
        E 16 b0 0b 2a
        E 0 90 40 2a
        E 16 b0 0b 3b
        E 16 b0 0b 44
        E 16 b0 0b 3b
        E 16 b0 0b 33
        E 16 b0 0b 2a
        E 16 b0 0b 22
        E 16 80 40 00
        E 16 b0 0b 2a
        E 0 90 40 2a
        E 16 b0 0b 3b
        E 16 b0 0b 44
        E 16 b0 0b 3b
        E 16 b0 0b 33
        E 16 b0 0b 2a
        E 16 b0 0b 22
        E 16 80 40 00
        E 16 b0 0b 2a
        E 0 90 3c 2a
        E 16 b0 0b 3b
        E 16 b0 0b 44
        E 16 b0 0b 3b
        E 16 b0 0b 33
        E 16 b0 0b 2a
        E 16 b0 0b 22
        E 16 80 3c 00
        E 16 b0 0b 2a
        E 0 90 3c 2a
        E 16 b0 0b 3b
        E 16 b0 0b 44
        E 16 b0 0b 3b
        E 16 b0 0b 33
        E 16 b0 0b 2a
        E 16 b0 0b 22
        E 16 80 3c 00
        E 16 b0 0b 2a
        E 0 90 3c 2a
        E 16 b0 0b 3b
        E 16 b0 0b 44
        E 16 b0 0b 3b
        E 16 b0 0b 33
        E 16 b0 0b 2a
        E 16 b0 0b 22
        E 16 80 3c 00
        E 16 b0 0b 2a
        E 0 90 3e 2a
        E 16 b0 0b 3b
        E 16 b0 0b 44
        E 16 b0 0b 3b
        E 16 b0 0b 33
        E 16 b0 0b 2a
        E 16 b0 0b 22
        E 16 80 3e 00
        E 16 b0 0b 2a
        E 0 90 3e 2a
        E 16 b0 0b 3b
        E 16 b0 0b 44
        E 16 b0 0b 3b
        E 16 b0 0b 33
        E 16 b0 0b 2a
        E 16 b0 0b 22
        E 16 80 3e 00
        E 16 b0 0b 2a
        E 0 90 3e 2a
        E 16 b0 0b 3b
        E 16 b0 0b 44
        E 16 b0 0b 3b
        E 16 b0 0b 33
        E 16 b0 0b 2a
        E 16 b0 0b 22
        E 16 80 3e 00
        E 16 b0 0b 2a
        E 0 90 41 2a
        E 16 b0 0b 3b
        E 16 b0 0b 44
        E 16 b0 0b 3b
        E 16 b0 0b 33
        E 16 b0 0b 2a
        E 16 b0 0b 22
        E 16 80 41 00
        E 16 b0 0b 2a
        E 0 90 41 2a
        E 16 b0 0b 3b
        E 16 b0 0b 44
        E 16 b0 0b 3b
        E 16 b0 0b 33
        E 16 b0 0b 2a
        E 16 b0 0b 22
        E 16 80 41 00
        E 16 b0 0b 2a
        E 0 90 41 2a
        E 16 b0 0b 3b
        E 16 b0 0b 44
        E 16 b0 0b 3b
        E 16 b0 0b 33
        E 16 b0 0b 2a
        E 16 b0 0b 22
        E 16 80 41 00
        E 16 b0 0b 2a
        E 0 90 40 2a
        E 16 b0 0b 3b
        E 16 b0 0b 44
        E 16 b0 0b 3b
        E 16 b0 0b 33
        E 16 b0 0b 2a
        E 16 b0 0b 22
        E 16 80 40 00
        E 16 b0 0b 2a
        E 0 90 40 2a
        E 16 b0 0b 3b
        E 16 b0 0b 44
        E 16 b0 0b 3b
        E 16 b0 0b 33
        E 16 b0 0b 2a
        E 16 b0 0b 22
        E 16 80 40 00
        E 16 b0 0b 2a
        E 0 90 40 2a
        E 16 b0 0b 3b
        E 16 b0 0b 44
        E 16 b0 0b 3b
        E 16 b0 0b 33
        E 16 b0 0b 2a
        E 16 b0 0b 22
        E 16 80 40 00
        E 16 b0 0b 2a
        E 0 90 3c 2a
        E 16 b0 0b 3b
        E 16 b0 0b 44
        E 16 b0 0b 3b
        E 16 b0 0b 33
        E 16 b0 0b 2a
        E 16 b0 0b 22
        E 16 80 3c 00
        E 16 b0 0b 2a
        E 0 90 3c 2a
        E 16 b0 0b 3b
        E 16 b0 0b 44
        E 16 b0 0b 3b
        E 16 b0 0b 33
        E 16 b0 0b 2a
        E 16 b0 0b 22
        E 16 80 3c 00
        E 16 b0 0b 2a
        E 0 90 3c 2a
        E 16 b0 0b 3b
        E 16 b0 0b 44
        E 16 b0 0b 3b
        E 16 b0 0b 33
        E 16 b0 0b 2a
        E 16 b0 0b 22
        E 16 80 3c 00
        E 16 b0 0b 2a
        E 0 90 3e 2a
        E 16 b0 0b 3b
        E 16 b0 0b 44
        E 16 b0 0b 3b
        E 16 b0 0b 33
        E 16 b0 0b 2a
        E 16 b0 0b 22
        E 16 80 3e 00
        E 16 b0 0b 2a
        E 0 90 3e 2a
        E 16 b0 0b 3b
        E 16 b0 0b 44
        E 16 b0 0b 3b
        E 16 b0 0b 33
        E 16 b0 0b 2a
        E 16 b0 0b 22
        E 16 80 3e 00
        E 16 b0 0b 2a
        E 0 90 3e 2a
        E 16 b0 0b 3b
        E 16 b0 0b 44
        E 16 b0 0b 3b
        E 16 b0 0b 33
        E 16 b0 0b 2a
        E 16 b0 0b 22
        E 16 80 3e 00
        E 16 b0 0b 2a
        E 0 90 41 2a
        E 16 b0 0b 3b
        E 16 b0 0b 44
        E 16 b0 0b 3b
        E 16 b0 0b 33
        E 16 b0 0b 2a
        E 16 b0 0b 22
        E 16 80 41 00
        E 16 b0 0b 2a
        E 0 90 41 2a
        E 16 b0 0b 3b
        E 16 b0 0b 44
        E 16 b0 0b 3b
        E 16 b0 0b 33
        E 16 b0 0b 2a
        E 16 b0 0b 22
        E 16 80 41 00
        E 16 b0 0b 2a
        E 0 90 41 2a
        E 16 b0 0b 3b
        E 16 b0 0b 44
        E 16 b0 0b 3b
        E 16 b0 0b 33
        E 16 b0 0b 2a
        E 16 b0 0b 22
        E 16 80 41 00
        E 16 b0 0b 2a
        E 0 90 40 2a
        E 16 b0 0b 3b
        E 16 b0 0b 44
        E 16 b0 0b 3b
        E 16 b0 0b 33
        E 16 b0 0b 2a
        E 16 b0 0b 22
        E 16 80 40 00
        E 16 b0 0b 2a
        E 0 90 41 2a
        E 16 b0 0b 3b
        E 16 b0 0b 44
        E 16 b0 0b 3b
        E 16 b0 0b 33
        E 16 b0 0b 2a
        E 16 b0 0b 22
        E 16 80 41 00
        E 16 b0 0b 2a
        E 0 90 40 2a
        E 16 b0 0b 3b
        E 16 b0 0b 44
        E 16 b0 0b 3b
        E 16 b0 0b 33
        E 16 b0 0b 2a
        E 16 b0 0b 22
        E 16 80 40 00
        E 16 b0 0b 2a
        E 0 90 41 2a
        E 16 b0 0b 3b
        E 16 b0 0b 44
        E 16 b0 0b 3b
        E 16 b0 0b 33
        E 16 b0 0b 2a
        E 16 b0 0b 22
        E 16 80 41 00
        E 16 b0 0b 2a
        E 0 90 40 2a
        E 16 b0 0b 3b
        E 16 b0 0b 44
        E 16 b0 0b 3b
        E 16 b0 0b 33
        E 16 b0 0b 2a
        E 16 b0 0b 22
        E 16 80 40 00
        E 16 b0 0b 2a
        E 0 90 41 2a
        E 16 b0 0b 3b
        E 16 b0 0b 44
        E 16 b0 0b 3b
        E 16 b0 0b 33
        E 16 b0 0b 2a
        E 16 b0 0b 22
        E 16 80 41 00
        E 16 b0 0b 2a
        E 0 90 40 2a
        E 16 b0 0b 3b
        E 16 b0 0b 44
        E 16 b0 0b 3b
        E 16 b0 0b 33
        E 16 b0 0b 2a
        E 16 b0 0b 22
        E 16 80 40 00
        E 16 b0 0b 2a
        E 0 90 41 2a
        E 16 b0 0b 3b
        E 16 b0 0b 44
        E 16 b0 0b 3b
        E 16 b0 0b 33
        E 16 b0 0b 2a
        E 16 b0 0b 22
        E 16 80 41 00
        E 16 b0 0b 2a
        E 0 90 40 2a
        E 16 b0 0b 3b
        E 16 b0 0b 44
        E 16 b0 0b 3b
        E 16 b0 0b 33
        E 16 b0 0b 2a
        E 16 b0 0b 22
        E 16 80 40 00
        E 16 b0 0b 2a
        E 0 90 41 2a
        E 16 b0 0b 3b
        E 16 b0 0b 44
        E 16 b0 0b 3b
        E 16 b0 0b 33
        E 16 b0 0b 2a
        E 16 b0 0b 22
        E 16 80 41 00
        E 16 b0 0b 2a
        E 0 90 40 2a
        E 16 b0 0b 3b
        E 16 b0 0b 44
        E 16 b0 0b 3b
        E 16 b0 0b 33
        E 16 b0 0b 2a
        E 16 b0 0b 22
        E 16 80 40 00
        E 16 b0 0b 2a
        E 0 90 41 2a
        E 16 b0 0b 3b
        E 16 b0 0b 44
        E 16 b0 0b 3b
        E 16 b0 0b 33
        E 16 b0 0b 2a
        E 16 b0 0b 22
        E 16 80 41 00
        E 16 b0 0b 2a
        E 0 90 40 2a
        E 16 b0 0b 3b
        E 16 b0 0b 44
        E 16 b0 0b 3b
        E 16 b0 0b 33
        E 16 b0 0b 2a
        E 16 b0 0b 22
        E 16 80 40 00
        E 16 b0 0b 2a
        E 0 90 41 2a
        E 16 b0 0b 3b
        E 16 b0 0b 44
        E 16 b0 0b 3b
        E 16 b0 0b 33
        E 16 b0 0b 2a
        E 16 b0 0b 22
        E 16 80 41 00
        E 16 b0 0b 2a
        E 0 90 40 2a
        E 16 b0 0b 3b
        E 16 b0 0b 44
        E 16 b0 0b 3b
        E 16 b0 0b 33
        E 16 b0 0b 2a
        E 16 b0 0b 22
        E 16 80 40 00
        E 16 b0 0b 2a
        E 0 90 41 2a
        E 16 b0 0b 3b
        E 16 b0 0b 44
        E 16 b0 0b 3b
        E 16 b0 0b 33
        E 16 b0 0b 2a
        E 16 b0 0b 22
        E 16 80 41 00
        E 16 b0 0b 2a
        E 0 90 40 2a
        E 16 b0 0b 3b
        E 16 b0 0b 44
        E 16 b0 0b 3b
        E 16 b0 0b 33
        E 16 b0 0b 2a
        E 16 b0 0b 22
        E 16 80 40 00
        E 16 b0 0b 2a
        E 0 90 41 2a
        E 16 b0 0b 3b
        E 16 b0 0b 44
        E 16 b0 0b 3b
        E 16 b0 0b 33
        E 16 b0 0b 2a
        E 16 b0 0b 22
        E 16 80 41 00
        E 16 b0 0b 2a
        E 0 90 40 2a
        E 16 b0 0b 3b
        E 16 b0 0b 44
        E 16 b0 0b 3b
        E 16 b0 0b 33
        E 16 b0 0b 2a
        E 16 b0 0b 22
        E 16 80 40 00
        E 16 b0 0b 2a
        E 0 90 41 2a
        E 16 b0 0b 3b
        E 16 b0 0b 44
        E 16 b0 0b 3b
        E 16 b0 0b 33
        E 16 b0 0b 2a
        E 16 b0 0b 22
        E 16 80 41 00
        E 16 b0 0b 2a
        E 0 90 40 2a
        E 16 b0 0b 3b
        E 16 b0 0b 44
        E 16 b0 0b 3b
        E 16 b0 0b 33
        E 16 b0 0b 2a
        E 16 b0 0b 22
        E 16 80 40 00
        E 16 b0 0b 2a
        E 0 90 41 2a
        E 16 b0 0b 3b
        E 16 b0 0b 44
        E 16 b0 0b 3b
        E 16 b0 0b 33
        E 16 b0 0b 2a
        E 16 b0 0b 22
        E 16 80 41 00
        E 16 b0 0b 2a
        E 0 90 40 2a
        E 16 b0 0b 3b
        E 16 b0 0b 44
        E 16 b0 0b 3b
        E 16 b0 0b 33
        E 16 b0 0b 2a
        E 16 b0 0b 22
        E 16 80 40 00
        E 16 b0 0b 2a
        E 0 90 41 2a
        E 16 b0 0b 3b
        E 16 b0 0b 44
        E 16 b0 0b 3b
        E 16 b0 0b 33
        E 16 b0 0b 2a
        E 16 b0 0b 22
        E 16 80 41 00
        E 16 b0 0b 2a
        E 0 90 40 2a
        E 16 b0 0b 3b
        E 16 b0 0b 44
        E 16 b0 0b 3b
        E 16 b0 0b 33
        E 16 b0 0b 2a
        E 16 b0 0b 22
        E 16 80 40 00
        E 2960 b0 0b 2a
        E 0 90 34 2a
        E 16 b0 0b 3b
        E 16 b0 0b 44
        E 16 b0 0b 3b
        E 16 b0 0b 33
        E 16 b0 0b 2a
        E 16 b0 0b 22
        E 16 80 34 00
        E 1424 b0 0b 2a
        E 0 90 33 2a
        E 16 b0 0b 3b
        E 16 b0 0b 44
        E 16 b0 0b 3b
        E 16 b0 0b 33
        E 16 b0 0b 2a
        E 16 b0 0b 22
        E 16 80 33 00
        E 1424 b0 0b 2a
        E 0 90 34 2a
        E 16 b0 0b 3b
        E 16 b0 0b 44
        E 16 b0 0b 3b
        E 16 b0 0b 33
        E 16 b0 0b 2a
        E 16 b0 0b 22
        E 16 80 34 00
        E 1424 b0 0b 2a
        E 0 90 35 2a
        E 16 b0 0b 3b
        E 16 b0 0b 44
        E 16 b0 0b 3b
        E 16 b0 0b 33
        E 16 b0 0b 2a
        E 16 b0 0b 22
        E 16 80 35 00
        E 1040 b0 0b 2a
        E 0 90 32 2a
        E 16 b0 0b 3b
        E 16 b0 0b 44
        E 16 b0 0b 3b
        E 16 b0 0b 33
        E 16 b0 0b 2a
        E 16 b0 0b 22
        E 16 80 32 00
        E 16 b0 0b 2a
        E 0 90 35 2a
        E 16 b0 0b 3b
        E 16 b0 0b 44
        E 16 b0 0b 3b
        E 16 b0 0b 33
        E 16 b0 0b 2a
        E 16 b0 0b 22
        E 16 80 35 00
        E 16 b0 0b 2a
        E 0 90 3a 2a
        E 16 b0 0b 3b
        E 16 b0 0b 44
        E 16 b0 0b 3b
        E 16 b0 0b 33
        E 16 b0 0b 2a
        E 16 b0 0b 22
        E 16 80 3a 00
        E 16 b0 0b 2a
        E 0 90 33 2a
        E 16 b0 0b 3b
        E 16 b0 0b 44
        E 16 b0 0b 3b
        E 16 b0 0b 33
        E 16 b0 0b 2a
        E 16 b0 0b 22
        E 16 80 33 00
        E 1040 b0 0b 2a
        E 0 90 33 2a
        E 16 b0 0b 3b
        E 16 b0 0b 44
        E 16 b0 0b 3b
        E 16 b0 0b 33
        E 16 b0 0b 2a
        E 16 b0 0b 22
        E 16 80 33 00
        E 16 b0 0b 2a
        E 0 90 38 2a
        E 16 b0 0b 3b
        E 16 b0 0b 44
        E 16 b0 0b 3b
        E 16 b0 0b 33
        E 16 b0 0b 2a
        E 16 b0 0b 22
        E 16 80 38 00
        E 16 b0 0b 2a
        E 0 90 3c 2a
        E 16 b0 0b 3b
        E 16 b0 0b 44
        E 16 b0 0b 3b
        E 16 b0 0b 33
        E 16 b0 0b 2a
        E 16 b0 0b 22
        E 16 80 3c 00
        E 16 b0 0b 2a
        E 0 90 3a 2a
        E 16 b0 0b 3b
        E 16 b0 0b 44
        E 16 b0 0b 3b
        E 16 b0 0b 33
        E 16 b0 0b 2a
        E 16 b0 0b 22
        E 16 80 3a 00
        E 656 b0 0b 2a
        E 0 90 35 2a
        E 16 b0 0b 3b
        E 16 b0 0b 44
        E 16 b0 0b 3b
        E 16 b0 0b 33
        E 16 b0 0b 2a
        E 16 b0 0b 22
        E 16 80 35 00
        E 656 b0 0b 2a
        E 0 90 33 2a
        E 16 b0 0b 3b
        E 16 b0 0b 44
        E 16 b0 0b 3b
        E 16 b0 0b 33
        E 16 b0 0b 2a
        E 16 b0 0b 22
        E 16 80 33 00
        E 656 b0 0b 2a
        E 0 90 36 2a
        E 16 b0 0b 3b
        E 16 b0 0b 44
        E 16 b0 0b 3b
        E 16 b0 0b 33
        E 16 b0 0b 2a
        E 16 b0 0b 22
        E 16 80 36 00
        E 656 b0 0b 2a
        E 0 90 39 2a
        E 16 b0 0b 3b
        E 16 b0 0b 44
        E 16 b0 0b 3b
        E 16 b0 0b 33
        E 16 b0 0b 2a
        E 16 b0 0b 22
        E 16 80 39 00
        E 1040 b0 0b 2a
        E 0 90 2d 2a
        E 16 b0 0b 3b
        E 16 b0 0b 44
        E 16 b0 0b 3b
        E 16 b0 0b 33
        E 16 b0 0b 2a
        E 16 b0 0b 22
        E 16 80 2d 00
        E 16 b0 0b 2a
        E 0 90 30 2a
        E 16 b0 0b 3b
        E 16 b0 0b 44
        E 16 b0 0b 3b
        E 16 b0 0b 33
        E 16 b0 0b 2a
        E 16 b0 0b 22
        E 16 80 30 00
        E 16 b0 0b 2a
        E 0 90 35 2a
        E 16 b0 0b 3b
        E 16 b0 0b 44
        E 16 b0 0b 3b
        E 16 b0 0b 33
        E 16 b0 0b 2a
        E 16 b0 0b 22
        E 16 80 35 00
        E 16 b0 0b 2a
        E 0 90 2e 2a
        E 16 b0 0b 3b
        E 16 b0 0b 44
        E 16 b0 0b 3b
        E 16 b0 0b 33
        E 16 b0 0b 2a
        E 16 b0 0b 22
        E 16 80 2e 00
        E 1040 b0 0b 2a
        E 0 90 2e 2a
        E 16 b0 0b 3b
        E 16 b0 0b 44
        E 16 b0 0b 3b
        E 16 b0 0b 33
        E 16 b0 0b 2a
        E 16 b0 0b 22
        E 16 80 2e 00
        E 144 b0 0b 2a
        E 0 90 2e 2a
        E 16 b0 0b 3b
        E 16 b0 0b 44
        E 16 b0 0b 3b
        E 16 b0 0b 33
        E 16 b0 0b 2a
        E 16 b0 0b 22
        E 16 80 2e 00
        E 16 b0 0b 2a
        E 0 90 2d 2a
        E 16 b0 0b 3b
        E 16 b0 0b 44
        E 16 b0 0b 3b
        E 16 b0 0b 33
        E 16 b0 0b 2a
        E 16 b0 0b 22
        E 16 80 2d 00
        E 1424 b0 0b 2a
        E 0 90 2e 2a
        E 16 b0 0b 3b
        E 16 b0 0b 44
        E 16 b0 0b 3b
        E 16 b0 0b 33
        E 16 b0 0b 2a
        E 16 b0 0b 22
        E 16 80 2e 00
        E 1040 b0 0b 2a
        E 0 90 2e 2a
        E 16 b0 0b 3b
        E 16 b0 0b 44
        E 16 b0 0b 3b
        E 16 b0 0b 33
        E 16 b0 0b 2a
        E 16 b0 0b 22
        E 16 80 2e 00
        E 144 b0 0b 2a
        E 0 90 2e 2a
        E 16 b0 0b 3b
        E 16 b0 0b 44
        E 16 b0 0b 3b
        E 16 b0 0b 33
        E 16 b0 0b 2a
        E 16 b0 0b 22
        E 16 80 2e 00
        E 16 b0 0b 2a
        E 0 90 2d 2a
        E 16 b0 0b 3b
        E 16 b0 0b 44
        E 16 b0 0b 3b
        E 16 b0 0b 33
        E 16 b0 0b 2a
        E 16 b0 0b 22
        E 16 80 2d 00
        E 1424 b0 0b 2a
        E 0 90 2e 2a
        E 16 b0 0b 3b
        E 16 b0 0b 44
        E 16 b0 0b 3b
        E 16 b0 0b 33
        E 16 b0 0b 2a
        E 16 b0 0b 22
        E 16 80 2e 00
        E 656 b0 0b 2a
        E 0 90 2d 2a
        E 16 b0 0b 3b
        E 16 b0 0b 44
        E 16 b0 0b 3b
        E 16 b0 0b 33
        E 16 b0 0b 2a
        E 16 b0 0b 22
        E 16 80 2d 00
        E 272 b0 0b 2a
        E 0 90 29 2a
        E 16 b0 0b 3b
        E 16 b0 0b 44
        E 16 b0 0b 3b
        E 16 b0 0b 33
        E 16 b0 0b 2a
        E 16 b0 0b 22
        E 16 80 29 00
        E 16 b0 0b 2a
        E 0 90 2d 2a
        E 16 b0 0b 3b
        E 16 b0 0b 44
        E 16 b0 0b 3b
        E 16 b0 0b 33
        E 16 b0 0b 2a
        E 16 b0 0b 22
        E 16 80 2d 00
        E 16 b0 0b 2a
        E 0 90 30 2a
        E 16 b0 0b 3b
        E 16 b0 0b 44
        E 16 b0 0b 3b
        E 16 b0 0b 33
        E 16 b0 0b 2a
        E 16 b0 0b 22
        E 16 80 30 00
        E 16 b0 0b 2a
        E 0 90 2e 2a
        E 16 b0 0b 3b
        E 16 b0 0b 44
        E 16 b0 0b 3b
        E 16 b0 0b 33
        E 16 b0 0b 2a
        E 16 b0 0b 22
        E 16 80 2e 00
        E 656 b0 0b 2a
        E 0 90 2d 2a
        E 16 b0 0b 3b
        E 16 b0 0b 44
        E 16 b0 0b 3b
        E 16 b0 0b 33
        E 16 b0 0b 2a
        E 16 b0 0b 22
        E 16 80 2d 00
        E 272 b0 0b 2a
        E 0 90 29 2a
        E 16 b0 0b 3b
        E 16 b0 0b 44
        E 16 b0 0b 3b
        E 16 b0 0b 33
        E 16 b0 0b 2a
        E 16 b0 0b 22
        E 16 80 29 00
        E 16 b0 0b 2a
        E 0 90 2d 2a
        E 16 b0 0b 3b
        E 16 b0 0b 44
        E 16 b0 0b 3b
        E 16 b0 0b 33
        E 16 b0 0b 2a
        E 16 b0 0b 22
        E 16 80 2d 00
        E 16 b0 0b 2a
        E 0 90 30 2a
        E 16 b0 0b 3b
        E 16 b0 0b 44
        E 16 b0 0b 3b
        E 16 b0 0b 33
        E 16 b0 0b 2a
        E 16 b0 0b 22
        E 16 80 30 00
        E 16 b0 0b 2a
        E 0 90 2e 2a
        E 16 b0 0b 3b
        E 16 b0 0b 44
        E 16 b0 0b 3b
        E 16 b0 0b 33
        E 16 b0 0b 2a
        E 16 b0 0b 22
        E 16 80 2e 00
        E 16 b0 0b 2a
        E 0 90 2d 2a
        E 16 b0 0b 3b
        E 16 b0 0b 44
        E 16 b0 0b 3b
        E 16 b0 0b 33
        E 16 b0 0b 2a
        E 16 b0 0b 22
        E 16 80 2d 00
        E 16 b0 0b 2a
        E 0 90 2e 2a
        E 16 b0 0b 3b
        E 16 b0 0b 44
        E 16 b0 0b 3b
        E 16 b0 0b 33
        E 16 b0 0b 2a
        E 16 b0 0b 22
        E 16 80 2e 00
        E 16 b0 0b 2a
        E 0 90 2d 2a
        E 16 b0 0b 3b
        E 16 b0 0b 44
        E 16 b0 0b 3b
        E 16 b0 0b 33
        E 16 b0 0b 2a
        E 16 b0 0b 22
        E 16 80 2d 00
        E 16 b0 0b 2a
        E 0 90 2e 2a
        E 16 b0 0b 3b
        E 16 b0 0b 44
        E 16 b0 0b 3b
        E 16 b0 0b 33
        E 16 b0 0b 2a
        E 16 b0 0b 22
        E 16 80 2e 00
        E 16 b0 0b 2a
        E 0 90 2d 2a
        E 16 b0 0b 3b
        E 16 b0 0b 44
        E 16 b0 0b 3b
        E 16 b0 0b 33
        E 16 b0 0b 2a
        E 16 b0 0b 22
        E 16 80 2d 00
        E 16 b0 0b 2a
        E 0 90 2e 2a
        E 16 b0 0b 3b
        E 16 b0 0b 44
        E 16 b0 0b 3b
        E 16 b0 0b 33
        E 16 b0 0b 2a
        E 16 b0 0b 22
        E 16 80 2e 00
        E 16 b0 0b 2a
        E 0 90 2d 2a
        E 16 b0 0b 3b
        E 16 b0 0b 44
        E 16 b0 0b 3b
        E 16 b0 0b 33
        E 16 b0 0b 2a
        E 16 b0 0b 22
        E 16 80 2d 00
        E 16 b0 0b 2a
        E 0 90 2e 2a
        E 16 b0 0b 3b
        E 16 b0 0b 44
        E 16 b0 0b 3b
        E 16 b0 0b 33
        E 16 b0 0b 2a
        E 16 b0 0b 22
        E 16 80 2e 00
        E 16 b0 0b 2a
        E 0 90 2d 2a
        E 16 b0 0b 3b
        E 16 b0 0b 44
        E 16 b0 0b 3b
        E 16 b0 0b 33
        E 16 b0 0b 2a
        E 16 b0 0b 22
        E 16 80 2d 00
        E 16 b0 0b 2a
        E 0 90 2e 2a
        E 16 b0 0b 3b
        E 16 b0 0b 44
        E 16 b0 0b 3b
        E 16 b0 0b 33
        E 16 b0 0b 2a
        E 16 b0 0b 22
        E 16 80 2e 00
        E 16 b0 0b 2a
        E 0 90 2d 2a
        E 16 b0 0b 3b
        E 16 b0 0b 44
        E 16 b0 0b 3b
        E 16 b0 0b 33
        E 16 b0 0b 2a
        E 16 b0 0b 22
        E 16 80 2d 00
        E 16 b0 0b 2a
        E 0 90 2e 2a
        E 16 b0 0b 3b
        E 16 b0 0b 44
        E 16 b0 0b 3b
        E 16 b0 0b 33
        E 16 b0 0b 2a
        E 16 b0 0b 22
        E 16 80 2e 00
        E 16 b0 0b 2a
        E 0 90 2d 2a
        E 16 b0 0b 3b
        E 16 b0 0b 44
        E 16 b0 0b 3b
        E 16 b0 0b 33
        E 16 b0 0b 2a
        E 16 b0 0b 22
        E 16 80 2d 00
        E 16 b0 0b 2a
        E 0 90 2e 2a
        E 16 b0 0b 3b
        E 16 b0 0b 44
        E 16 b0 0b 3b
        E 16 b0 0b 33
        E 16 b0 0b 2a
        E 16 b0 0b 22
        E 16 80 2e 00
        E 16 b0 0b 2a
        E 0 90 2d 2a
        E 16 b0 0b 3b
        E 16 b0 0b 44
        E 16 b0 0b 3b
        E 16 b0 0b 33
        E 16 b0 0b 2a
        E 16 b0 0b 22
        E 16 80 2d 00
        E 16 b0 0b 2a
        E 0 90 2e 2a
        E 16 b0 0b 3b
        E 16 b0 0b 44
        E 16 b0 0b 3b
        E 16 b0 0b 33
        E 16 b0 0b 2a
        E 16 b0 0b 22
        E 16 80 2e 00
        E 16 b0 0b 2a
        E 0 90 2d 2a
        E 16 b0 0b 3b
        E 16 b0 0b 44
        E 16 b0 0b 3b
        E 16 b0 0b 33
        E 16 b0 0b 2a
        E 16 b0 0b 22
        E 16 80 2d 00
        E 16 b0 0b 2a
        E 0 90 2e 2a
        E 16 b0 0b 3b
        E 16 b0 0b 44
        E 16 b0 0b 3b
        E 16 b0 0b 33
        E 16 b0 0b 2a
        E 16 b0 0b 22
        E 16 80 2e 00
        E 16 b0 0b 2a
        E 0 90 2d 2a
        E 16 b0 0b 3b
        E 16 b0 0b 44
        E 16 b0 0b 3b
        E 16 b0 0b 33
        E 16 b0 0b 2a
        E 16 b0 0b 22
        E 16 80 2d 00
        E 16 b0 0b 2a
        E 0 90 2e 2a
        E 16 b0 0b 3b
        E 16 b0 0b 44
        E 16 b0 0b 3b
        E 16 b0 0b 33
        E 16 b0 0b 2a
        E 16 b0 0b 22
        E 16 80 2e 00
        E 16 b0 0b 2a
        E 0 90 2d 2a
        E 16 b0 0b 3b
        E 16 b0 0b 44
        E 16 b0 0b 3b
        E 16 b0 0b 33
        E 16 b0 0b 2a
        E 16 b0 0b 22
        E 16 80 2d 00
        E 16 b0 0b 2a
        E 0 90 2e 2a
        E 16 b0 0b 3b
        E 16 b0 0b 44
        E 16 b0 0b 3b
        E 16 b0 0b 33
        E 16 b0 0b 2a
        E 16 b0 0b 22
        E 16 80 2e 00
        E 16 b0 0b 2a
        E 0 90 2d 2a
        E 16 b0 0b 3b
        E 16 b0 0b 44
        E 16 b0 0b 3b
        E 16 b0 0b 33
        E 16 b0 0b 2a
        E 16 b0 0b 22
        E 16 80 2d 00
        E 16 b0 0b 2a
        E 0 90 37 2a
        E 16 b0 0b 3b
        E 16 b0 0b 44
        E 16 b0 0b 3b
        E 16 b0 0b 33
        E 16 b0 0b 2a
        E 16 b0 0b 22
        E 16 80 37 00
        E 144 b0 0b 2a
        E 0 90 37 2a
        E 16 b0 0b 3b
        E 16 b0 0b 44
        E 16 b0 0b 3b
        E 16 b0 0b 33
        E 16 b0 0b 2a
        E 16 b0 0b 22
        E 16 80 37 00
        E 16 b0 0b 2a
        E 0 90 37 2a
        E 16 b0 0b 3b
        E 16 b0 0b 44
        E 16 b0 0b 3b
        E 16 b0 0b 33
        E 16 b0 0b 2a
        E 16 b0 0b 22
        E 16 80 37 00
        E 272 b0 0b 2a
        E 0 90 37 2a
        E 16 b0 0b 3b
        E 16 b0 0b 44
        E 16 b0 0b 3b
        E 16 b0 0b 33
        E 16 b0 0b 2a
        E 16 b0 0b 22
        E 16 80 37 00
        E 272 b0 0b 2a
        E 0 90 37 2a
        E 16 b0 0b 3b
        E 16 b0 0b 44
        E 16 b0 0b 3b
        E 16 b0 0b 33
        E 16 b0 0b 2a
        E 16 b0 0b 22
        E 16 80 37 00
        E 272 b0 0b 2a
        E 0 90 37 2a
        E 16 b0 0b 3b
        E 16 b0 0b 44
        E 16 b0 0b 3b
        E 16 b0 0b 33
        E 16 b0 0b 2a
        E 16 b0 0b 22
        E 16 80 37 00
        E 656 b0 0b 2a
        E 0 90 43 2a
        E 16 b0 0b 3b
        E 16 b0 0b 44
        E 16 b0 0b 3b
        E 16 b0 0b 33
        E 16 b0 0b 2a
        E 16 b0 0b 22
        E 16 80 43 00
        E 272 b0 0b 2a
        E 0 90 43 2a
        E 16 b0 0b 3b
        E 16 b0 0b 44
        E 16 b0 0b 3b
        E 16 b0 0b 33
        E 16 b0 0b 2a
        E 16 b0 0b 22
        E 16 80 43 00
        E 176 b0 0b 2a
        E 0 90 45 2a
        E 16 b0 0b 3b
        E 16 b0 0b 44
        E 16 b0 0b 3b
        E 16 b0 0b 33
        E 16 b0 0b 2a
        E 16 80 45 00
        E 0 90 3e 2a
        E 16 b0 0b 3b
        E 16 b0 0b 44
        E 16 b0 0b 3b
        E 16 b0 0b 33
        E 16 b0 0b 2a
        E 16 b0 0b 22
        E 16 80 3e 00
        E 1424 b0 0b 2a
        E 0 90 39 2a
        E 16 b0 0b 3b
        E 16 b0 0b 44
        E 16 b0 0b 3b
        E 16 b0 0b 33
        E 16 b0 0b 2a
        E 16 b0 0b 22
        E 16 80 39 00
        E 272 b0 0b 2a
        E 0 90 3b 2a
        E 16 b0 0b 3b
        E 16 b0 0b 44
        E 16 b0 0b 3b
        E 16 b0 0b 33
        E 16 b0 0b 2a
        E 16 b0 0b 22
        E 16 80 3b 00
        E 272 b0 0b 2a
        E 0 90 3c 2a
        E 16 b0 0b 3b
        E 16 b0 0b 44
        E 16 b0 0b 3b
        E 16 b0 0b 33
        E 16 b0 0b 2a
        E 16 b0 0b 22
        E 16 80 3c 00
        E 272 b0 0b 2a
        E 0 90 38 2a
        E 16 b0 0b 3b
        E 16 b0 0b 44
        E 16 b0 0b 3b
        E 16 b0 0b 33
        E 16 b0 0b 2a
        E 16 b0 0b 22
        E 16 80 38 00
        E 272 b0 0b 2a
        E 0 90 37 2a
        E 16 b0 0b 3b
        E 16 b0 0b 44
        E 16 b0 0b 3b
        E 16 b0 0b 33
        E 16 b0 0b 2a
        E 16 b0 0b 22
        E 16 80 37 00
        E 144 b0 0b 2a
        E 0 90 37 2a
        E 16 b0 0b 3b
        E 16 b0 0b 44
        E 16 b0 0b 3b
        E 16 b0 0b 33
        E 16 b0 0b 2a
        E 16 b0 0b 22
        E 16 80 37 00
        E 16 b0 0b 2a
        E 0 90 37 2a
        E 16 b0 0b 3b
        E 16 b0 0b 44
        E 16 b0 0b 3b
        E 16 b0 0b 33
        E 16 b0 0b 2a
        E 16 b0 0b 22
        E 16 80 37 00
        E 272 b0 0b 2a
        E 0 90 37 2a
        E 16 b0 0b 3b
        E 16 b0 0b 44
        E 16 b0 0b 3b
        E 16 b0 0b 33
        E 16 b0 0b 2a
        E 16 b0 0b 22
        E 16 80 37 00
        E 272 b0 0b 2a
        E 0 90 37 2a
        E 16 b0 0b 3b
        E 16 b0 0b 44
        E 16 b0 0b 3b
        E 16 b0 0b 33
        E 16 b0 0b 2a
        E 16 b0 0b 22
        E 16 80 37 00
        E 272 b0 0b 2a
        E 0 90 37 2a
        E 16 b0 0b 3b
        E 16 b0 0b 44
        E 16 b0 0b 3b
        E 16 b0 0b 33
        E 16 b0 0b 2a
        E 16 b0 0b 22
        E 16 80 37 00
        E 656 b0 0b 2a
        E 0 90 43 2a
        E 16 b0 0b 3b
        E 16 b0 0b 44
        E 16 b0 0b 3b
        E 16 b0 0b 33
        E 16 b0 0b 2a
        E 16 b0 0b 22
        E 16 80 43 00
        E 272 b0 0b 2a
        E 0 90 43 2a
        E 16 b0 0b 3b
        E 16 b0 0b 44
        E 16 b0 0b 3b
        E 16 b0 0b 33
        E 16 b0 0b 2a
        E 16 b0 0b 22
        E 16 80 43 00
        E 176 b0 0b 2a
        E 0 90 45 2a
        E 16 b0 0b 3b
        E 16 b0 0b 44
        E 16 b0 0b 3b
        E 16 b0 0b 33
        E 16 b0 0b 2a
        E 16 80 45 00
        E 0 90 3e 2a
        E 16 b0 0b 3b
        E 16 b0 0b 44
        E 16 b0 0b 3b
        E 16 b0 0b 33
        E 16 b0 0b 2a
        E 16 b0 0b 22
        E 16 80 3e 00
        E 1424 b0 0b 2a
        E 0 90 39 2a
        E 16 b0 0b 3b
        E 16 b0 0b 44
        E 16 b0 0b 3b
        E 16 b0 0b 33
        E 16 b0 0b 2a
        E 16 b0 0b 22
        E 16 80 39 00
        E 272 b0 0b 2a
        E 0 90 3b 2a
        E 16 b0 0b 3b
        E 16 b0 0b 44
        E 16 b0 0b 3b
        E 16 b0 0b 33
        E 16 b0 0b 2a
        E 16 b0 0b 22
        E 16 80 3b 00
        E 272 b0 0b 2a
        E 0 90 3c 2a
        E 16 b0 0b 3b
        E 16 b0 0b 44
        E 16 b0 0b 3b
        E 16 b0 0b 33
        E 16 b0 0b 2a
        E 16 b0 0b 22
        E 16 80 3c 00
        E 272 b0 0b 2a
        E 0 90 38 2a
        E 16 b0 0b 3b
        E 16 b0 0b 44
        E 16 b0 0b 3b
        E 16 b0 0b 33
        E 16 b0 0b 2a
        E 16 b0 0b 22
        E 16 80 38 00
        E 272 b0 0b 2a
        E 0 90 30 2a
        E 16 b0 0b 3b
        E 16 b0 0b 44
        E 16 b0 0b 3b
        E 16 b0 0b 33
        E 16 b0 0b 2a
        E 16 b0 0b 22
        E 16 80 30 00
        E 1424 b0 0b 2a
        E 0 90 32 2a
        E 16 b0 0b 3b
        E 16 b0 0b 44
        E 16 b0 0b 3b
        E 16 b0 0b 33
        E 16 b0 0b 2a
        E 16 b0 0b 22
        E 16 80 32 00
        E 1424 b0 0b 2a
        E 0 90 34 2a
        E 16 b0 0b 3b
        E 16 b0 0b 44
        E 16 b0 0b 3b
        E 16 b0 0b 33
        E 16 b0 0b 2a
        E 16 b0 0b 22
        E 16 80 34 00
        E 1424 b0 0b 2a
        E 0 90 35 2a
        E 16 b0 0b 3b
        E 16 b0 0b 44
        E 16 b0 0b 3b
        E 16 b0 0b 33
        E 16 b0 0b 2a
        E 16 b0 0b 22
        E 16 80 35 00
        E 656 b0 0b 2a
        E 0 90 30 2a
        E 16 b0 0b 3b
        E 16 b0 0b 44
        E 16 b0 0b 3b
        E 16 b0 0b 33
        E 16 b0 0b 2a
        E 16 b0 0b 22
        E 16 80 30 00
        E 272 b0 0b 2a
        E 0 90 32 2a
        E 16 b0 0b 3b
        E 16 b0 0b 44
        E 16 b0 0b 3b
        E 16 b0 0b 33
        E 16 b0 0b 2a
        E 16 b0 0b 22
        E 16 80 32 00
        E 272 b0 0b 2a
        E 0 90 30 2a
        E 16 b0 0b 3b
        E 16 b0 0b 44
        E 16 b0 0b 3b
        E 16 b0 0b 33
        E 16 b0 0b 2a
        E 16 b0 0b 22
        E 16 80 30 00
        E 1424 b0 0b 2a
        E 0 90 32 2a
        E 16 b0 0b 3b
        E 16 b0 0b 44
        E 16 b0 0b 3b
        E 16 b0 0b 33
        E 16 b0 0b 2a
        E 16 b0 0b 22
        E 16 80 32 00
        E 1424 b0 0b 2a
        E 0 90 34 2a
        E 16 b0 0b 3b
        E 16 b0 0b 44
        E 16 b0 0b 3b
        E 16 b0 0b 33
        E 16 b0 0b 2a
        E 16 b0 0b 22
        E 16 80 34 00
        E 1424 b0 0b 2a
        E 0 90 35 2a
        E 16 b0 0b 3b
        E 16 b0 0b 44
        E 16 b0 0b 3b
        E 16 b0 0b 33
        E 16 b0 0b 2a
        E 16 b0 0b 22
        E 16 80 35 00
        E 656 b0 0b 2a
        E 0 90 30 2a
        E 16 b0 0b 3b
        E 16 b0 0b 44
        E 16 b0 0b 3b
        E 16 b0 0b 33
        E 16 b0 0b 2a
        E 16 b0 0b 22
        E 16 80 30 00
        E 272 b0 0b 2a
        E 0 90 32 2a
        E 16 b0 0b 3b
        E 16 b0 0b 44
        E 16 b0 0b 3b
        E 16 b0 0b 33
        E 16 b0 0b 2a
        E 16 b0 0b 22
        E 16 80 32 00
        E 272 b0 0b 2a
        E 0 90 34 2a
        E 16 b0 0b 3b
        E 16 b0 0b 44
        E 16 b0 0b 3b
        E 16 b0 0b 33
        E 16 b0 0b 2a
        E 16 b0 0b 22
        E 16 80 34 00
        E 656 b0 0b 2a
        E 0 90 37 2a
        E 16 b0 0b 3b
        E 16 b0 0b 44
        E 16 b0 0b 3b
        E 16 b0 0b 33
        E 16 b0 0b 2a
        E 16 b0 0b 22
        E 16 80 37 00
        E 272 b0 0b 2a
        E 0 90 3c 2a
        E 16 b0 0b 3b
        E 16 b0 0b 44
        E 16 b0 0b 3b
        E 16 b0 0b 33
        E 16 b0 0b 2a
        E 16 b0 0b 22
        E 16 80 3c 00
        E 272 b0 0b 2a
        E 0 90 39 2a
        E 16 b0 0b 3b
        E 16 b0 0b 44
        E 16 b0 0b 3b
        E 16 b0 0b 33
        E 16 b0 0b 2a
        E 16 b0 0b 22
        E 16 80 39 00
        E 656 b0 0b 2a
        E 0 90 3b 2a
        E 16 b0 0b 3b
        E 16 b0 0b 44
        E 16 b0 0b 3b
        E 16 b0 0b 33
        E 16 b0 0b 2a
        E 16 b0 0b 22
        E 16 80 3b 00
        E 272 b0 0b 2a
        E 0 90 39 2a
        E 16 b0 0b 3b
        E 16 b0 0b 44
        E 16 b0 0b 3b
        E 16 b0 0b 33
        E 16 b0 0b 2a
        E 16 b0 0b 22
        E 16 80 39 00
        E 272 b0 0b 2a
        E 0 90 34 2a
        E 16 b0 0b 3b
        E 16 b0 0b 44
        E 16 b0 0b 3b
        E 16 b0 0b 33
        E 16 b0 0b 2a
        E 16 b0 0b 22
        E 16 80 34 00
        E 656 b0 0b 2a
        E 0 90 37 2a
        E 16 b0 0b 3b
        E 16 b0 0b 44
        E 16 b0 0b 3b
        E 16 b0 0b 33
        E 16 b0 0b 2a
        E 16 b0 0b 22
        E 16 80 37 00
        E 272 b0 0b 2a
        E 0 90 3c 2a
        E 16 b0 0b 3b
        E 16 b0 0b 44
        E 16 b0 0b 3b
        E 16 b0 0b 33
        E 16 b0 0b 2a
        E 16 b0 0b 22
        E 16 80 3c 00
        E 272 b0 7b 00
        E 0 ff 2f 00
      >
    >
  >
  <TRACK {FBE2807F-E324-48BE-BEB0-AF72FE6135CD}
    NAME "NES - Pulse 2 [ch1]"
    PEAKCOL 10092441
    BEAT -1
    AUTOMODE 0
    PANLAWFLAGS 3
    VOLPAN 1 0 -1 -1 1
    MUTESOLO 0 0 0
    IPHASE 0
    PLAYOFFS 0 1
    ISBUS 0 0
    BUSCOMP 0 0 0 0 0
    SHOWINMIX 1 0.6667 0.5 1 0.5 0 0 0
    FIXEDLANES 9 0 0 0 0
    SEL 0
    REC 0 5088 1 0 0 0 0 0
    VU 2
    TRACKHEIGHT 0 0 0 0 0 0 0
    INQ 0 0 0 0.5 100 0 0 100
    NCHAN 2
    FX 1
    TRACKID {FBE2807F-E324-48BE-BEB0-AF72FE6135CD}
    PERF 0
    MIDIOUT -1
    MAINSEND 1 0
    <FXCHAIN
      WNDRECT 24 52 700 560
      SHOW 0
      LASTSEL 0
      DOCKED 0
      BYPASS 0 0 0
      <JS "ReapNES Studio/ReapNES_Console.jsfx" ""
        2 15 1 10 80 10 100 2 1 15 1 5 60 10 80 1 1 0 50 0 0 15 1 0 100 0 0 0.500000 0.500000 0.400000 0.300000 0.800000 1 1 0 0 0 0 - - - - - - - - - - - - - - - - - - - - - - - - - -
      >
      FLOATPOS 0 0 0 0
      FXID {AD2CD428-ED55-4D1B-B0F7-EFE3025592C5}
      WAK 0 0
    >
    <ITEM
      POSITION 0
      LENGTH 74.65008
      LOOP 0
      ALLTAKES 0
      FADEIN 0 0 0 0 0 0 0
      FADEOUT 0 0 0 0 0 0 0
      MUTE 0 0
      SEL 0
      IGUID {06BE56E5-FBD8-4CD7-B5CC-5669E8C178F0}
      <SOURCE MIDI
        HASDATA 1 480 QN
        CCINTERP 32
        E 0 c1 51
        E 0 b1 0c 10
        E 0 b1 0b 2a
        E 0 91 4c 2a
        E 16 b1 0b 3b
        E 16 b1 0b 44
        E 16 b1 0b 3b
        E 16 b1 0b 33
        E 16 b1 0b 2a
        E 16 b1 0b 22
        E 16 81 4c 00
        E 80 b1 0b 2a
        E 0 91 4d 2a
        E 16 b1 0b 3b
        E 16 b1 0b 44
        E 16 b1 0b 3b
        E 16 b1 0b 33
        E 16 b1 0b 2a
        E 16 b1 0b 22
        E 16 81 4d 00
        E 80 b1 0b 2a
        E 0 91 4c 2a
        E 16 b1 0b 3b
        E 16 b1 0b 44
        E 16 b1 0b 3b
        E 16 b1 0b 33
        E 16 b1 0b 2a
        E 16 b1 0b 22
        E 16 81 4c 00
        E 80 b1 0b 2a
        E 0 91 4d 2a
        E 16 b1 0b 3b
        E 16 b1 0b 44
        E 16 b1 0b 3b
        E 16 b1 0b 33
        E 16 b1 0b 2a
        E 16 b1 0b 22
        E 16 81 4d 00
        E 80 b1 0b 2a
        E 0 91 4c 2a
        E 16 b1 0b 3b
        E 16 b1 0b 44
        E 16 b1 0b 3b
        E 16 b1 0b 33
        E 16 b1 0b 2a
        E 16 b1 0b 22
        E 16 81 4c 00
        E 80 b1 0b 2a
        E 0 91 4d 2a
        E 16 b1 0b 3b
        E 16 b1 0b 44
        E 16 b1 0b 3b
        E 16 b1 0b 33
        E 16 b1 0b 2a
        E 16 b1 0b 22
        E 16 81 4d 00
        E 80 b1 0b 2a
        E 0 91 4c 2a
        E 16 b1 0b 3b
        E 16 b1 0b 44
        E 16 b1 0b 3b
        E 16 b1 0b 33
        E 16 b1 0b 2a
        E 16 b1 0b 22
        E 16 81 4c 00
        E 80 b1 0b 2a
        E 0 91 4d 2a
        E 16 b1 0b 3b
        E 16 b1 0b 44
        E 16 b1 0b 3b
        E 16 b1 0b 33
        E 16 b1 0b 2a
        E 16 b1 0b 22
        E 16 81 4d 00
        E 80 b1 0b 2a
        E 0 91 4c 2a
        E 16 b1 0b 3b
        E 16 b1 0b 44
        E 16 b1 0b 3b
        E 16 b1 0b 33
        E 16 b1 0b 2a
        E 16 b1 0b 22
        E 16 81 4c 00
        E 80 b1 0b 2a
        E 0 91 4d 2a
        E 16 b1 0b 3b
        E 16 b1 0b 44
        E 16 b1 0b 3b
        E 16 b1 0b 33
        E 16 b1 0b 2a
        E 16 b1 0b 22
        E 16 81 4d 00
        E 80 b1 0b 2a
        E 0 91 4c 2a
        E 16 b1 0b 3b
        E 16 b1 0b 44
        E 16 b1 0b 3b
        E 16 b1 0b 33
        E 16 b1 0b 2a
        E 16 b1 0b 22
        E 16 81 4c 00
        E 80 b1 0b 2a
        E 0 91 4d 2a
        E 16 b1 0b 3b
        E 16 b1 0b 44
        E 16 b1 0b 3b
        E 16 b1 0b 33
        E 16 b1 0b 2a
        E 16 b1 0b 22
        E 16 81 4d 00
        E 80 b1 0b 2a
        E 0 91 4c 2a
        E 16 b1 0b 3b
        E 16 b1 0b 44
        E 16 b1 0b 3b
        E 16 b1 0b 33
        E 16 b1 0b 2a
        E 16 b1 0b 22
        E 16 81 4c 00
        E 80 b1 0b 2a
        E 0 91 4d 2a
        E 16 b1 0b 3b
        E 16 b1 0b 44
        E 16 b1 0b 3b
        E 16 b1 0b 33
        E 16 b1 0b 2a
        E 16 b1 0b 22
        E 16 81 4d 00
        E 80 b1 0b 2a
        E 0 91 4c 2a
        E 16 b1 0b 3b
        E 16 b1 0b 44
        E 16 b1 0b 3b
        E 16 b1 0b 33
        E 16 b1 0b 2a
        E 16 b1 0b 22
        E 16 81 4c 00
        E 80 b1 0b 2a
        E 0 91 4d 2a
        E 16 b1 0b 3b
        E 16 b1 0b 44
        E 16 b1 0b 3b
        E 16 b1 0b 33
        E 16 b1 0b 2a
        E 16 b1 0b 22
        E 16 81 4d 00
        E 80 b1 0b 2a
        E 0 91 4c 2a
        E 16 b1 0b 3b
        E 16 b1 0b 44
        E 16 b1 0b 3b
        E 16 b1 0b 33
        E 16 b1 0b 2a
        E 16 b1 0b 22
        E 16 81 4c 00
        E 80 b1 0b 2a
        E 0 91 4d 2a
        E 16 b1 0b 3b
        E 16 b1 0b 44
        E 16 b1 0b 3b
        E 16 b1 0b 33
        E 16 b1 0b 2a
        E 16 b1 0b 22
        E 16 81 4d 00
        E 80 b1 0b 2a
        E 0 91 4c 2a
        E 16 b1 0b 3b
        E 16 b1 0b 44
        E 16 b1 0b 3b
        E 16 b1 0b 33
        E 16 b1 0b 2a
        E 16 b1 0b 22
        E 16 81 4c 00
        E 80 b1 0b 2a
        E 0 91 4d 2a
        E 16 b1 0b 3b
        E 16 b1 0b 44
        E 16 b1 0b 3b
        E 16 b1 0b 33
        E 16 b1 0b 2a
        E 16 b1 0b 22
        E 16 81 4d 00
        E 80 b1 0b 2a
        E 0 91 4c 2a
        E 16 b1 0b 3b
        E 16 b1 0b 44
        E 16 b1 0b 3b
        E 16 b1 0b 33
        E 16 b1 0b 2a
        E 16 b1 0b 22
        E 16 81 4c 00
        E 80 b1 0b 2a
        E 0 91 4d 2a
        E 16 b1 0b 3b
        E 16 b1 0b 44
        E 16 b1 0b 3b
        E 16 b1 0b 33
        E 16 b1 0b 2a
        E 16 b1 0b 22
        E 16 81 4d 00
        E 80 b1 0b 2a
        E 0 91 4c 2a
        E 16 b1 0b 3b
        E 16 b1 0b 44
        E 16 b1 0b 3b
        E 16 b1 0b 33
        E 16 b1 0b 2a
        E 16 b1 0b 22
        E 16 81 4c 00
        E 80 b1 0b 2a
        E 0 91 4d 2a
        E 16 b1 0b 3b
        E 16 b1 0b 44
        E 16 b1 0b 3b
        E 16 b1 0b 33
        E 16 b1 0b 2a
        E 16 b1 0b 22
        E 16 81 4d 00
        E 464 b1 0b 2a
        E 0 91 4d 2a
        E 16 b1 0b 3b
        E 16 b1 0b 44
        E 16 b1 0b 3b
        E 16 b1 0b 33
        E 16 b1 0b 2a
        E 16 b1 0b 22
        E 16 81 4d 00
        E 16 b1 0b 2a
        E 0 91 4d 2a
        E 16 b1 0b 3b
        E 16 b1 0b 44
        E 16 b1 0b 3b
        E 16 b1 0b 33
        E 16 b1 0b 2a
        E 16 b1 0b 22
        E 16 81 4d 00
        E 16 b1 0b 2a
        E 0 91 4d 2a
        E 16 b1 0b 3b
        E 16 b1 0b 44
        E 16 b1 0b 3b
        E 16 b1 0b 33
        E 16 b1 0b 2a
        E 16 b1 0b 22
        E 16 81 4d 00
        E 16 b1 0b 2a
        E 0 91 4c 2a
        E 16 b1 0b 3b
        E 16 b1 0b 44
        E 16 b1 0b 3b
        E 16 b1 0b 33
        E 16 b1 0b 2a
        E 16 b1 0b 22
        E 16 81 4c 00
        E 16 b1 0b 2a
        E 0 91 4c 2a
        E 16 b1 0b 3b
        E 16 b1 0b 44
        E 16 b1 0b 3b
        E 16 b1 0b 33
        E 16 b1 0b 2a
        E 16 b1 0b 22
        E 16 81 4c 00
        E 16 b1 0b 2a
        E 0 91 4c 2a
        E 16 b1 0b 3b
        E 16 b1 0b 44
        E 16 b1 0b 3b
        E 16 b1 0b 33
        E 16 b1 0b 2a
        E 16 b1 0b 22
        E 16 81 4c 00
        E 16 b1 0b 2a
        E 0 91 4a 2a
        E 16 b1 0b 3b
        E 16 b1 0b 44
        E 16 b1 0b 3b
        E 16 b1 0b 33
        E 16 b1 0b 2a
        E 16 b1 0b 22
        E 16 81 4a 00
        E 16 b1 0b 2a
        E 0 91 4a 2a
        E 16 b1 0b 3b
        E 16 b1 0b 44
        E 16 b1 0b 3b
        E 16 b1 0b 33
        E 16 b1 0b 2a
        E 16 b1 0b 22
        E 16 81 4a 00
        E 16 b1 0b 2a
        E 0 91 4a 2a
        E 16 b1 0b 3b
        E 16 b1 0b 44
        E 16 b1 0b 3b
        E 16 b1 0b 33
        E 16 b1 0b 2a
        E 16 b1 0b 22
        E 16 81 4a 00
        E 16 b1 0b 2a
        E 0 91 48 2a
        E 16 b1 0b 3b
        E 16 b1 0b 44
        E 16 b1 0b 3b
        E 16 b1 0b 33
        E 16 b1 0b 2a
        E 16 b1 0b 22
        E 16 81 48 00
        E 16 b1 0b 2a
        E 0 91 48 2a
        E 16 b1 0b 3b
        E 16 b1 0b 44
        E 16 b1 0b 3b
        E 16 b1 0b 33
        E 16 b1 0b 2a
        E 16 b1 0b 22
        E 16 81 48 00
        E 16 b1 0b 2a
        E 0 91 48 2a
        E 16 b1 0b 3b
        E 16 b1 0b 44
        E 16 b1 0b 3b
        E 16 b1 0b 33
        E 16 b1 0b 2a
        E 16 b1 0b 22
        E 16 81 48 00
        E 16 b1 0b 2a
        E 0 91 4a 2a
        E 16 b1 0b 3b
        E 16 b1 0b 44
        E 16 b1 0b 3b
        E 16 b1 0b 33
        E 16 b1 0b 2a
        E 16 b1 0b 22
        E 16 81 4a 00
        E 16 b1 0b 2a
        E 0 91 4a 2a
        E 16 b1 0b 3b
        E 16 b1 0b 44
        E 16 b1 0b 3b
        E 16 b1 0b 33
        E 16 b1 0b 2a
        E 16 b1 0b 22
        E 16 81 4a 00
        E 16 b1 0b 2a
        E 0 91 4a 2a
        E 16 b1 0b 3b
        E 16 b1 0b 44
        E 16 b1 0b 3b
        E 16 b1 0b 33
        E 16 b1 0b 2a
        E 16 b1 0b 22
        E 16 81 4a 00
        E 16 b1 0b 2a
        E 0 91 4c 2a
        E 16 b1 0b 3b
        E 16 b1 0b 44
        E 16 b1 0b 3b
        E 16 b1 0b 33
        E 16 b1 0b 2a
        E 16 b1 0b 22
        E 16 81 4c 00
        E 16 b1 0b 2a
        E 0 91 4c 2a
        E 16 b1 0b 3b
        E 16 b1 0b 44
        E 16 b1 0b 3b
        E 16 b1 0b 33
        E 16 b1 0b 2a
        E 16 b1 0b 22
        E 16 81 4c 00
        E 16 b1 0b 2a
        E 0 91 4c 2a
        E 16 b1 0b 3b
        E 16 b1 0b 44
        E 16 b1 0b 3b
        E 16 b1 0b 33
        E 16 b1 0b 2a
        E 16 b1 0b 22
        E 16 81 4c 00
        E 16 b1 0b 2a
        E 0 91 4d 2a
        E 16 b1 0b 3b
        E 16 b1 0b 44
        E 16 b1 0b 3b
        E 16 b1 0b 33
        E 16 b1 0b 2a
        E 16 b1 0b 22
        E 16 81 4d 00
        E 16 b1 0b 2a
        E 0 91 4d 2a
        E 16 b1 0b 3b
        E 16 b1 0b 44
        E 16 b1 0b 3b
        E 16 b1 0b 33
        E 16 b1 0b 2a
        E 16 b1 0b 22
        E 16 81 4d 00
        E 16 b1 0b 2a
        E 0 91 4d 2a
        E 16 b1 0b 3b
        E 16 b1 0b 44
        E 16 b1 0b 3b
        E 16 b1 0b 33
        E 16 b1 0b 2a
        E 16 b1 0b 22
        E 16 81 4d 00
        E 400 b1 0b 2a
        E 0 91 4d 2a
        E 16 b1 0b 3b
        E 16 b1 0b 44
        E 16 b1 0b 3b
        E 16 b1 0b 33
        E 16 b1 0b 2a
        E 16 b1 0b 22
        E 16 81 4d 00
        E 16 b1 0b 2a
        E 0 91 4d 2a
        E 16 b1 0b 3b
        E 16 b1 0b 44
        E 16 b1 0b 3b
        E 16 b1 0b 33
        E 16 b1 0b 2a
        E 16 b1 0b 22
        E 16 81 4d 00
        E 16 b1 0b 2a
        E 0 91 4d 2a
        E 16 b1 0b 3b
        E 16 b1 0b 44
        E 16 b1 0b 3b
        E 16 b1 0b 33
        E 16 b1 0b 2a
        E 16 b1 0b 22
        E 16 81 4d 00
        E 16 b1 0b 2a
        E 0 91 4c 2a
        E 16 b1 0b 3b
        E 16 b1 0b 44
        E 16 b1 0b 3b
        E 16 b1 0b 33
        E 16 b1 0b 2a
        E 16 b1 0b 22
        E 16 81 4c 00
        E 16 b1 0b 2a
        E 0 91 4c 2a
        E 16 b1 0b 3b
        E 16 b1 0b 44
        E 16 b1 0b 3b
        E 16 b1 0b 33
        E 16 b1 0b 2a
        E 16 b1 0b 22
        E 16 81 4c 00
        E 16 b1 0b 2a
        E 0 91 4c 2a
        E 16 b1 0b 3b
        E 16 b1 0b 44
        E 16 b1 0b 3b
        E 16 b1 0b 33
        E 16 b1 0b 2a
        E 16 b1 0b 22
        E 16 81 4c 00
        E 16 b1 0b 2a
        E 0 91 4a 2a
        E 16 b1 0b 3b
        E 16 b1 0b 44
        E 16 b1 0b 3b
        E 16 b1 0b 33
        E 16 b1 0b 2a
        E 16 b1 0b 22
        E 16 81 4a 00
        E 16 b1 0b 2a
        E 0 91 4a 2a
        E 16 b1 0b 3b
        E 16 b1 0b 44
        E 16 b1 0b 3b
        E 16 b1 0b 33
        E 16 b1 0b 2a
        E 16 b1 0b 22
        E 16 81 4a 00
        E 16 b1 0b 2a
        E 0 91 4a 2a
        E 16 b1 0b 3b
        E 16 b1 0b 44
        E 16 b1 0b 3b
        E 16 b1 0b 33
        E 16 b1 0b 2a
        E 16 b1 0b 22
        E 16 81 4a 00
        E 16 b1 0b 2a
        E 0 91 48 2a
        E 16 b1 0b 3b
        E 16 b1 0b 44
        E 16 b1 0b 3b
        E 16 b1 0b 33
        E 16 b1 0b 2a
        E 16 b1 0b 22
        E 16 81 48 00
        E 16 b1 0b 2a
        E 0 91 48 2a
        E 16 b1 0b 3b
        E 16 b1 0b 44
        E 16 b1 0b 3b
        E 16 b1 0b 33
        E 16 b1 0b 2a
        E 16 b1 0b 22
        E 16 81 48 00
        E 16 b1 0b 2a
        E 0 91 48 2a
        E 16 b1 0b 3b
        E 16 b1 0b 44
        E 16 b1 0b 3b
        E 16 b1 0b 33
        E 16 b1 0b 2a
        E 16 b1 0b 22
        E 16 81 48 00
        E 16 b1 0b 2a
        E 0 91 4a 2a
        E 16 b1 0b 3b
        E 16 b1 0b 44
        E 16 b1 0b 3b
        E 16 b1 0b 33
        E 16 b1 0b 2a
        E 16 b1 0b 22
        E 16 81 4a 00
        E 16 b1 0b 2a
        E 0 91 4a 2a
        E 16 b1 0b 3b
        E 16 b1 0b 44
        E 16 b1 0b 3b
        E 16 b1 0b 33
        E 16 b1 0b 2a
        E 16 b1 0b 22
        E 16 81 4a 00
        E 16 b1 0b 2a
        E 0 91 4a 2a
        E 16 b1 0b 3b
        E 16 b1 0b 44
        E 16 b1 0b 3b
        E 16 b1 0b 33
        E 16 b1 0b 2a
        E 16 b1 0b 22
        E 16 81 4a 00
        E 16 b1 0b 2a
        E 0 91 4c 2a
        E 16 b1 0b 3b
        E 16 b1 0b 44
        E 16 b1 0b 3b
        E 16 b1 0b 33
        E 16 b1 0b 2a
        E 16 b1 0b 22
        E 16 81 4c 00
        E 16 b1 0b 2a
        E 0 91 4c 2a
        E 16 b1 0b 3b
        E 16 b1 0b 44
        E 16 b1 0b 3b
        E 16 b1 0b 33
        E 16 b1 0b 2a
        E 16 b1 0b 22
        E 16 81 4c 00
        E 16 b1 0b 2a
        E 0 91 4c 2a
        E 16 b1 0b 3b
        E 16 b1 0b 44
        E 16 b1 0b 3b
        E 16 b1 0b 33
        E 16 b1 0b 2a
        E 16 b1 0b 22
        E 16 81 4c 00
        E 16 b1 0b 2a
        E 0 91 4d 2a
        E 16 b1 0b 3b
        E 16 b1 0b 44
        E 16 b1 0b 3b
        E 16 b1 0b 33
        E 16 b1 0b 2a
        E 16 b1 0b 22
        E 16 81 4d 00
        E 16 b1 0b 2a
        E 0 91 4d 2a
        E 16 b1 0b 3b
        E 16 b1 0b 44
        E 16 b1 0b 3b
        E 16 b1 0b 33
        E 16 b1 0b 2a
        E 16 b1 0b 22
        E 16 81 4d 00
        E 16 b1 0b 2a
        E 0 91 4d 2a
        E 16 b1 0b 3b
        E 16 b1 0b 44
        E 16 b1 0b 3b
        E 16 b1 0b 33
        E 16 b1 0b 2a
        E 16 b1 0b 22
        E 16 81 4d 00
        E 16 b1 0b 2a
        E 0 91 37 2a
        E 16 b1 0b 3b
        E 16 b1 0b 44
        E 16 b1 0b 3b
        E 16 b1 0b 33
        E 16 b1 0b 2a
        E 16 b1 0b 22
        E 16 81 37 00
        E 16 b1 0b 2a
        E 0 91 37 2a
        E 16 b1 0b 3b
        E 16 b1 0b 44
        E 16 b1 0b 3b
        E 16 b1 0b 33
        E 16 b1 0b 2a
        E 16 b1 0b 22
        E 16 81 37 00
        E 16 b1 0b 2a
        E 0 91 37 2a
        E 16 b1 0b 3b
        E 16 b1 0b 44
        E 16 b1 0b 3b
        E 16 b1 0b 33
        E 16 b1 0b 2a
        E 16 b1 0b 22
        E 16 81 37 00
        E 16 b1 0b 2a
        E 0 91 37 2a
        E 16 b1 0b 3b
        E 16 b1 0b 44
        E 16 b1 0b 3b
        E 16 b1 0b 33
        E 16 b1 0b 2a
        E 16 b1 0b 22
        E 16 81 37 00
        E 16 b1 0b 2a
        E 0 91 37 2a
        E 16 b1 0b 3b
        E 16 b1 0b 44
        E 16 b1 0b 3b
        E 16 b1 0b 33
        E 16 b1 0b 2a
        E 16 b1 0b 22
        E 16 81 37 00
        E 16 b1 0b 2a
        E 0 91 37 2a
        E 16 b1 0b 3b
        E 16 b1 0b 44
        E 16 b1 0b 3b
        E 16 b1 0b 33
        E 16 b1 0b 2a
        E 16 b1 0b 22
        E 16 81 37 00
        E 16 b1 0b 2a
        E 0 91 38 2a
        E 16 b1 0b 3b
        E 16 b1 0b 44
        E 16 b1 0b 3b
        E 16 b1 0b 33
        E 16 b1 0b 2a
        E 16 b1 0b 22
        E 16 81 38 00
        E 16 b1 0b 2a
        E 0 91 38 2a
        E 16 b1 0b 3b
        E 16 b1 0b 44
        E 16 b1 0b 3b
        E 16 b1 0b 33
        E 16 b1 0b 2a
        E 16 b1 0b 22
        E 16 81 38 00
        E 16 b1 0b 2a
        E 0 91 38 2a
        E 16 b1 0b 3b
        E 16 b1 0b 44
        E 16 b1 0b 3b
        E 16 b1 0b 33
        E 16 b1 0b 2a
        E 16 b1 0b 22
        E 16 81 38 00
        E 16 b1 0b 2a
        E 0 91 38 2a
        E 16 b1 0b 3b
        E 16 b1 0b 44
        E 16 b1 0b 3b
        E 16 b1 0b 33
        E 16 b1 0b 2a
        E 16 b1 0b 22
        E 16 81 38 00
        E 16 b1 0b 2a
        E 0 91 38 2a
        E 16 b1 0b 3b
        E 16 b1 0b 44
        E 16 b1 0b 3b
        E 16 b1 0b 33
        E 16 b1 0b 2a
        E 16 b1 0b 22
        E 16 81 38 00
        E 16 b1 0b 2a
        E 0 91 38 2a
        E 16 b1 0b 3b
        E 16 b1 0b 44
        E 16 b1 0b 3b
        E 16 b1 0b 33
        E 16 b1 0b 2a
        E 16 b1 0b 22
        E 16 81 38 00
        E 16 b1 0b 2a
        E 0 91 37 2a
        E 16 b1 0b 3b
        E 16 b1 0b 44
        E 16 b1 0b 3b
        E 16 b1 0b 33
        E 16 b1 0b 2a
        E 16 b1 0b 22
        E 16 81 37 00
        E 16 b1 0b 2a
        E 0 91 37 2a
        E 16 b1 0b 3b
        E 16 b1 0b 44
        E 16 b1 0b 3b
        E 16 b1 0b 33
        E 16 b1 0b 2a
        E 16 b1 0b 22
        E 16 81 37 00
        E 16 b1 0b 2a
        E 0 91 37 2a
        E 16 b1 0b 3b
        E 16 b1 0b 44
        E 16 b1 0b 3b
        E 16 b1 0b 33
        E 16 b1 0b 2a
        E 16 b1 0b 22
        E 16 81 37 00
        E 16 b1 0b 2a
        E 0 91 37 2a
        E 16 b1 0b 3b
        E 16 b1 0b 44
        E 16 b1 0b 3b
        E 16 b1 0b 33
        E 16 b1 0b 2a
        E 16 b1 0b 22
        E 16 81 37 00
        E 16 b1 0b 2a
        E 0 91 37 2a
        E 16 b1 0b 3b
        E 16 b1 0b 44
        E 16 b1 0b 3b
        E 16 b1 0b 33
        E 16 b1 0b 2a
        E 16 b1 0b 22
        E 16 81 37 00
        E 16 b1 0b 2a
        E 0 91 37 2a
        E 16 b1 0b 3b
        E 16 b1 0b 44
        E 16 b1 0b 3b
        E 16 b1 0b 33
        E 16 b1 0b 2a
        E 16 b1 0b 22
        E 16 81 37 00
        E 16 b1 0b 2a
        E 0 91 38 2a
        E 16 b1 0b 3b
        E 16 b1 0b 44
        E 16 b1 0b 3b
        E 16 b1 0b 33
        E 16 b1 0b 2a
        E 16 b1 0b 22
        E 16 81 38 00
        E 16 b1 0b 2a
        E 0 91 38 2a
        E 16 b1 0b 3b
        E 16 b1 0b 44
        E 16 b1 0b 3b
        E 16 b1 0b 33
        E 16 b1 0b 2a
        E 16 b1 0b 22
        E 16 81 38 00
        E 16 b1 0b 2a
        E 0 91 38 2a
        E 16 b1 0b 3b
        E 16 b1 0b 44
        E 16 b1 0b 3b
        E 16 b1 0b 33
        E 16 b1 0b 2a
        E 16 b1 0b 22
        E 16 81 38 00
        E 16 b1 0b 2a
        E 0 91 38 2a
        E 16 b1 0b 3b
        E 16 b1 0b 44
        E 16 b1 0b 3b
        E 16 b1 0b 33
        E 16 b1 0b 2a
        E 16 b1 0b 22
        E 16 81 38 00
        E 16 b1 0b 2a
        E 0 91 38 2a
        E 16 b1 0b 3b
        E 16 b1 0b 44
        E 16 b1 0b 3b
        E 16 b1 0b 33
        E 16 b1 0b 2a
        E 16 b1 0b 22
        E 16 81 38 00
        E 16 b1 0b 2a
        E 0 91 38 2a
        E 16 b1 0b 3b
        E 16 b1 0b 44
        E 16 b1 0b 3b
        E 16 b1 0b 33
        E 16 b1 0b 2a
        E 16 b1 0b 22
        E 16 81 38 00
        E 16 b1 0b 2a
        E 0 91 37 2a
        E 16 b1 0b 3b
        E 16 b1 0b 44
        E 16 b1 0b 3b
        E 16 b1 0b 33
        E 16 b1 0b 2a
        E 16 b1 0b 22
        E 16 81 37 00
        E 16 b1 0b 2a
        E 0 91 37 2a
        E 16 b1 0b 3b
        E 16 b1 0b 44
        E 16 b1 0b 3b
        E 16 b1 0b 33
        E 16 b1 0b 2a
        E 16 b1 0b 22
        E 16 81 37 00
        E 16 b1 0b 2a
        E 0 91 37 2a
        E 16 b1 0b 3b
        E 16 b1 0b 44
        E 16 b1 0b 3b
        E 16 b1 0b 33
        E 16 b1 0b 2a
        E 16 b1 0b 22
        E 16 81 37 00
        E 16 b1 0b 2a
        E 0 91 37 2a
        E 16 b1 0b 3b
        E 16 b1 0b 44
        E 16 b1 0b 3b
        E 16 b1 0b 33
        E 16 b1 0b 2a
        E 16 b1 0b 22
        E 16 81 37 00
        E 16 b1 0b 2a
        E 0 91 37 2a
        E 16 b1 0b 3b
        E 16 b1 0b 44
        E 16 b1 0b 3b
        E 16 b1 0b 33
        E 16 b1 0b 2a
        E 16 b1 0b 22
        E 16 81 37 00
        E 16 b1 0b 2a
        E 0 91 37 2a
        E 16 b1 0b 3b
        E 16 b1 0b 44
        E 16 b1 0b 3b
        E 16 b1 0b 33
        E 16 b1 0b 2a
        E 16 b1 0b 22
        E 16 81 37 00
        E 16 b1 0b 2a
        E 0 91 38 2a
        E 16 b1 0b 3b
        E 16 b1 0b 44
        E 16 b1 0b 3b
        E 16 b1 0b 33
        E 16 b1 0b 2a
        E 16 b1 0b 22
        E 16 81 38 00
        E 16 b1 0b 2a
        E 0 91 38 2a
        E 16 b1 0b 3b
        E 16 b1 0b 44
        E 16 b1 0b 3b
        E 16 b1 0b 33
        E 16 b1 0b 2a
        E 16 b1 0b 22
        E 16 81 38 00
        E 16 b1 0b 2a
        E 0 91 38 2a
        E 16 b1 0b 3b
        E 16 b1 0b 44
        E 16 b1 0b 3b
        E 16 b1 0b 33
        E 16 b1 0b 2a
        E 16 b1 0b 22
        E 16 81 38 00
        E 16 b1 0b 2a
        E 0 91 38 2a
        E 16 b1 0b 3b
        E 16 b1 0b 44
        E 16 b1 0b 3b
        E 16 b1 0b 33
        E 16 b1 0b 2a
        E 16 b1 0b 22
        E 16 81 38 00
        E 16 b1 0b 2a
        E 0 91 38 2a
        E 16 b1 0b 3b
        E 16 b1 0b 44
        E 16 b1 0b 3b
        E 16 b1 0b 33
        E 16 b1 0b 2a
        E 16 b1 0b 22
        E 16 81 38 00
        E 16 b1 0b 2a
        E 0 91 38 2a
        E 16 b1 0b 3b
        E 16 b1 0b 44
        E 16 b1 0b 3b
        E 16 b1 0b 33
        E 16 b1 0b 2a
        E 16 b1 0b 22
        E 16 81 38 00
        E 16 b1 0b 2a
        E 0 91 37 2a
        E 16 b1 0b 3b
        E 16 b1 0b 44
        E 16 b1 0b 3b
        E 16 b1 0b 33
        E 16 b1 0b 2a
        E 16 b1 0b 22
        E 16 81 37 00
        E 16 b1 0b 2a
        E 0 91 37 2a
        E 16 b1 0b 3b
        E 16 b1 0b 44
        E 16 b1 0b 3b
        E 16 b1 0b 33
        E 16 b1 0b 2a
        E 16 b1 0b 22
        E 16 81 37 00
        E 16 b1 0b 2a
        E 0 91 37 2a
        E 16 b1 0b 3b
        E 16 b1 0b 44
        E 16 b1 0b 3b
        E 16 b1 0b 33
        E 16 b1 0b 2a
        E 16 b1 0b 22
        E 16 81 37 00
        E 16 b1 0b 2a
        E 0 91 37 2a
        E 16 b1 0b 3b
        E 16 b1 0b 44
        E 16 b1 0b 3b
        E 16 b1 0b 33
        E 16 b1 0b 2a
        E 16 b1 0b 22
        E 16 81 37 00
        E 16 b1 0b 2a
        E 0 91 37 2a
        E 16 b1 0b 3b
        E 16 b1 0b 44
        E 16 b1 0b 3b
        E 16 b1 0b 33
        E 16 b1 0b 2a
        E 16 b1 0b 22
        E 16 81 37 00
        E 16 b1 0b 2a
        E 0 91 37 2a
        E 16 b1 0b 3b
        E 16 b1 0b 44
        E 16 b1 0b 3b
        E 16 b1 0b 33
        E 16 b1 0b 2a
        E 16 b1 0b 22
        E 16 81 37 00
        E 16 b1 0b 2a
        E 0 91 38 2a
        E 16 b1 0b 3b
        E 16 b1 0b 44
        E 16 b1 0b 3b
        E 16 b1 0b 33
        E 16 b1 0b 2a
        E 16 b1 0b 22
        E 16 81 38 00
        E 16 b1 0b 2a
        E 0 91 38 2a
        E 16 b1 0b 3b
        E 16 b1 0b 44
        E 16 b1 0b 3b
        E 16 b1 0b 33
        E 16 b1 0b 2a
        E 16 b1 0b 22
        E 16 81 38 00
        E 16 b1 0b 2a
        E 0 91 38 2a
        E 16 b1 0b 3b
        E 16 b1 0b 44
        E 16 b1 0b 3b
        E 16 b1 0b 33
        E 16 b1 0b 2a
        E 16 b1 0b 22
        E 16 81 38 00
        E 16 b1 0b 2a
        E 0 91 38 2a
        E 16 b1 0b 3b
        E 16 b1 0b 44
        E 16 b1 0b 3b
        E 16 b1 0b 33
        E 16 b1 0b 2a
        E 16 b1 0b 22
        E 16 81 38 00
        E 16 b1 0b 2a
        E 0 91 38 2a
        E 16 b1 0b 3b
        E 16 b1 0b 44
        E 16 b1 0b 3b
        E 16 b1 0b 33
        E 16 b1 0b 2a
        E 16 b1 0b 22
        E 16 81 38 00
        E 16 b1 0b 2a
        E 0 91 38 2a
        E 16 b1 0b 3b
        E 16 b1 0b 44
        E 16 b1 0b 3b
        E 16 b1 0b 33
        E 16 b1 0b 2a
        E 16 b1 0b 22
        E 16 81 38 00
        E 16 b1 0b 2a
        E 0 91 37 2a
        E 16 b1 0b 3b
        E 16 b1 0b 44
        E 16 b1 0b 3b
        E 16 b1 0b 33
        E 16 b1 0b 2a
        E 16 b1 0b 22
        E 16 81 37 00
        E 16 b1 0b 2a
        E 0 91 38 2a
        E 16 b1 0b 3b
        E 16 b1 0b 44
        E 16 b1 0b 3b
        E 16 b1 0b 33
        E 16 b1 0b 2a
        E 16 b1 0b 22
        E 16 81 38 00
        E 16 b1 0b 2a
        E 0 91 37 2a
        E 16 b1 0b 3b
        E 16 b1 0b 44
        E 16 b1 0b 3b
        E 16 b1 0b 33
        E 16 b1 0b 2a
        E 16 b1 0b 22
        E 16 81 37 00
        E 16 b1 0b 2a
        E 0 91 38 2a
        E 16 b1 0b 3b
        E 16 b1 0b 44
        E 16 b1 0b 3b
        E 16 b1 0b 33
        E 16 b1 0b 2a
        E 16 b1 0b 22
        E 16 81 38 00
        E 16 b1 0b 2a
        E 0 91 37 2a
        E 16 b1 0b 3b
        E 16 b1 0b 44
        E 16 b1 0b 3b
        E 16 b1 0b 33
        E 16 b1 0b 2a
        E 16 b1 0b 22
        E 16 81 37 00
        E 16 b1 0b 2a
        E 0 91 38 2a
        E 16 b1 0b 3b
        E 16 b1 0b 44
        E 16 b1 0b 3b
        E 16 b1 0b 33
        E 16 b1 0b 2a
        E 16 b1 0b 22
        E 16 81 38 00
        E 16 b1 0b 2a
        E 0 91 37 2a
        E 16 b1 0b 3b
        E 16 b1 0b 44
        E 16 b1 0b 3b
        E 16 b1 0b 33
        E 16 b1 0b 2a
        E 16 b1 0b 22
        E 16 81 37 00
        E 16 b1 0b 2a
        E 0 91 38 2a
        E 16 b1 0b 3b
        E 16 b1 0b 44
        E 16 b1 0b 3b
        E 16 b1 0b 33
        E 16 b1 0b 2a
        E 16 b1 0b 22
        E 16 81 38 00
        E 16 b1 0b 2a
        E 0 91 37 2a
        E 16 b1 0b 3b
        E 16 b1 0b 44
        E 16 b1 0b 3b
        E 16 b1 0b 33
        E 16 b1 0b 2a
        E 16 b1 0b 22
        E 16 81 37 00
        E 16 b1 0b 2a
        E 0 91 38 2a
        E 16 b1 0b 3b
        E 16 b1 0b 44
        E 16 b1 0b 3b
        E 16 b1 0b 33
        E 16 b1 0b 2a
        E 16 b1 0b 22
        E 16 81 38 00
        E 16 b1 0b 2a
        E 0 91 37 2a
        E 16 b1 0b 3b
        E 16 b1 0b 44
        E 16 b1 0b 3b
        E 16 b1 0b 33
        E 16 b1 0b 2a
        E 16 b1 0b 22
        E 16 81 37 00
        E 16 b1 0b 2a
        E 0 91 38 2a
        E 16 b1 0b 3b
        E 16 b1 0b 44
        E 16 b1 0b 3b
        E 16 b1 0b 33
        E 16 b1 0b 2a
        E 16 b1 0b 22
        E 16 81 38 00
        E 16 b1 0b 2a
        E 0 91 37 2a
        E 16 b1 0b 3b
        E 16 b1 0b 44
        E 16 b1 0b 3b
        E 16 b1 0b 33
        E 16 b1 0b 2a
        E 16 b1 0b 22
        E 16 81 37 00
        E 16 b1 0b 2a
        E 0 91 38 2a
        E 16 b1 0b 3b
        E 16 b1 0b 44
        E 16 b1 0b 3b
        E 16 b1 0b 33
        E 16 b1 0b 2a
        E 16 b1 0b 22
        E 16 81 38 00
        E 16 b1 0b 2a
        E 0 91 37 2a
        E 16 b1 0b 3b
        E 16 b1 0b 44
        E 16 b1 0b 3b
        E 16 b1 0b 33
        E 16 b1 0b 2a
        E 16 b1 0b 22
        E 16 81 37 00
        E 16 b1 0b 2a
        E 0 91 38 2a
        E 16 b1 0b 3b
        E 16 b1 0b 44
        E 16 b1 0b 3b
        E 16 b1 0b 33
        E 16 b1 0b 2a
        E 16 b1 0b 22
        E 16 81 38 00
        E 16 b1 0b 2a
        E 0 91 37 2a
        E 16 b1 0b 3b
        E 16 b1 0b 44
        E 16 b1 0b 3b
        E 16 b1 0b 33
        E 16 b1 0b 2a
        E 16 b1 0b 22
        E 16 81 37 00
        E 16 b1 0b 2a
        E 0 91 38 2a
        E 16 b1 0b 3b
        E 16 b1 0b 44
        E 16 b1 0b 3b
        E 16 b1 0b 33
        E 16 b1 0b 2a
        E 16 b1 0b 22
        E 16 81 38 00
        E 16 b1 0b 2a
        E 0 91 37 2a
        E 16 b1 0b 3b
        E 16 b1 0b 44
        E 16 b1 0b 3b
        E 16 b1 0b 33
        E 16 b1 0b 2a
        E 16 b1 0b 22
        E 16 81 37 00
        E 16 b1 0b 2a
        E 0 91 38 2a
        E 16 b1 0b 3b
        E 16 b1 0b 44
        E 16 b1 0b 3b
        E 16 b1 0b 33
        E 16 b1 0b 2a
        E 16 b1 0b 22
        E 16 81 38 00
        E 16 b1 0b 2a
        E 0 91 37 2a
        E 16 b1 0b 3b
        E 16 b1 0b 44
        E 16 b1 0b 3b
        E 16 b1 0b 33
        E 16 b1 0b 2a
        E 16 b1 0b 22
        E 16 81 37 00
        E 16 b1 0b 2a
        E 0 91 38 2a
        E 16 b1 0b 3b
        E 16 b1 0b 44
        E 16 b1 0b 3b
        E 16 b1 0b 33
        E 16 b1 0b 2a
        E 16 b1 0b 22
        E 16 81 38 00
        E 16 b1 0b 2a
        E 0 91 37 2a
        E 16 b1 0b 3b
        E 16 b1 0b 44
        E 16 b1 0b 3b
        E 16 b1 0b 33
        E 16 b1 0b 2a
        E 16 b1 0b 22
        E 16 81 37 00
        E 16 b1 0b 2a
        E 0 91 38 2a
        E 16 b1 0b 3b
        E 16 b1 0b 44
        E 16 b1 0b 3b
        E 16 b1 0b 33
        E 16 b1 0b 2a
        E 16 b1 0b 22
        E 16 81 38 00
        E 16 b1 0b 2a
        E 0 91 37 2a
        E 16 b1 0b 3b
        E 16 b1 0b 44
        E 16 b1 0b 3b
        E 16 b1 0b 33
        E 16 b1 0b 2a
        E 16 b1 0b 22
        E 16 81 37 00
        E 1424 b1 0b 2a
        E 0 91 2b 2a
        E 16 b1 0b 3b
        E 16 b1 0b 44
        E 16 b1 0b 3b
        E 16 b1 0b 33
        E 16 b1 0b 2a
        E 16 b1 0b 22
        E 16 81 2b 00
        E 1424 b1 0b 2a
        E 0 91 24 2a
        E 16 b1 0b 3b
        E 16 b1 0b 44
        E 16 b1 0b 3b
        E 16 b1 0b 33
        E 16 b1 0b 2a
        E 16 b1 0b 22
        E 16 81 24 00
        E 16 b1 0b 2a
        E 0 91 24 2a
        E 16 b1 0b 3b
        E 16 b1 0b 44
        E 16 b1 0b 3b
        E 16 b1 0b 33
        E 16 b1 0b 2a
        E 16 b1 0b 22
        E 16 81 24 00
        E 16 b1 0b 2a
        E 0 91 24 2a
        E 16 b1 0b 3b
        E 16 b1 0b 44
        E 16 b1 0b 3b
        E 16 b1 0b 33
        E 16 b1 0b 2a
        E 16 b1 0b 22
        E 16 81 24 00
        E 16 b1 0b 2a
        E 0 91 28 2a
        E 16 b1 0b 3b
        E 16 b1 0b 44
        E 16 b1 0b 3b
        E 16 b1 0b 33
        E 16 b1 0b 2a
        E 16 b1 0b 22
        E 16 81 28 00
        E 144 b1 0b 2a
        E 0 91 1f 2a
        E 16 b1 0b 3b
        E 16 b1 0b 44
        E 16 b1 0b 3b
        E 16 b1 0b 33
        E 16 b1 0b 2a
        E 16 b1 0b 22
        E 16 81 1f 00
        E 16 b1 0b 2a
        E 0 91 24 2a
        E 16 b1 0b 3b
        E 16 b1 0b 44
        E 16 b1 0b 3b
        E 16 b1 0b 33
        E 16 b1 0b 2a
        E 16 b1 0b 22
        E 16 81 24 00
        E 272 b1 0b 2a
        E 0 91 24 2a
        E 16 b1 0b 3b
        E 16 b1 0b 44
        E 16 b1 0b 3b
        E 16 b1 0b 33
        E 16 b1 0b 2a
        E 16 b1 0b 22
        E 16 81 24 00
        E 16 b1 0b 2a
        E 0 91 28 2a
        E 16 b1 0b 3b
        E 16 b1 0b 44
        E 16 b1 0b 3b
        E 16 b1 0b 33
        E 16 b1 0b 2a
        E 16 b1 0b 22
        E 16 81 28 00
        E 16 b1 0b 2a
        E 0 91 2b 2a
        E 16 b1 0b 3b
        E 16 b1 0b 44
        E 16 b1 0b 3b
        E 16 b1 0b 33
        E 16 b1 0b 2a
        E 16 b1 0b 22
        E 16 81 2b 00
        E 16 b1 0b 2a
        E 0 91 2a 2a
        E 16 b1 0b 3b
        E 16 b1 0b 44
        E 16 b1 0b 3b
        E 16 b1 0b 33
        E 16 b1 0b 2a
        E 16 b1 0b 22
        E 16 81 2a 00
        E 1424 b1 0b 2a
        E 0 91 28 2a
        E 16 b1 0b 3b
        E 16 b1 0b 44
        E 16 b1 0b 3b
        E 16 b1 0b 33
        E 16 b1 0b 2a
        E 16 b1 0b 22
        E 16 81 28 00
        E 16 b1 0b 2a
        E 0 91 28 2a
        E 16 b1 0b 3b
        E 16 b1 0b 44
        E 16 b1 0b 3b
        E 16 b1 0b 33
        E 16 b1 0b 2a
        E 16 b1 0b 22
        E 16 81 28 00
        E 16 b1 0b 2a
        E 0 91 28 2a
        E 16 b1 0b 3b
        E 16 b1 0b 44
        E 16 b1 0b 3b
        E 16 b1 0b 33
        E 16 b1 0b 2a
        E 16 b1 0b 22
        E 16 81 28 00
        E 16 b1 0b 2a
        E 0 91 2b 2a
        E 16 b1 0b 3b
        E 16 b1 0b 44
        E 16 b1 0b 3b
        E 16 b1 0b 33
        E 16 b1 0b 2a
        E 16 b1 0b 22
        E 16 81 2b 00
        E 144 b1 0b 2a
        E 0 91 24 2a
        E 16 b1 0b 3b
        E 16 b1 0b 44
        E 16 b1 0b 3b
        E 16 b1 0b 33
        E 16 b1 0b 2a
        E 16 b1 0b 22
        E 16 81 24 00
        E 16 b1 0b 2a
        E 0 91 28 2a
        E 16 b1 0b 3b
        E 16 b1 0b 44
        E 16 b1 0b 3b
        E 16 b1 0b 33
        E 16 b1 0b 2a
        E 16 b1 0b 22
        E 16 81 28 00
        E 272 b1 0b 2a
        E 0 91 28 2a
        E 16 b1 0b 3b
        E 16 b1 0b 44
        E 16 b1 0b 3b
        E 16 b1 0b 33
        E 16 b1 0b 2a
        E 16 b1 0b 22
        E 16 81 28 00
        E 16 b1 0b 2a
        E 0 91 2b 2a
        E 16 b1 0b 3b
        E 16 b1 0b 44
        E 16 b1 0b 3b
        E 16 b1 0b 33
        E 16 b1 0b 2a
        E 16 b1 0b 22
        E 16 81 2b 00
        E 16 b1 0b 2a
        E 0 91 30 2a
        E 16 b1 0b 3b
        E 16 b1 0b 44
        E 16 b1 0b 3b
        E 16 b1 0b 33
        E 16 b1 0b 2a
        E 16 b1 0b 22
        E 16 81 30 00
        E 16 b1 0b 2a
        E 0 91 2e 2a
        E 16 b1 0b 3b
        E 16 b1 0b 44
        E 16 b1 0b 3b
        E 16 b1 0b 33
        E 16 b1 0b 2a
        E 16 b1 0b 22
        E 16 81 2e 00
        E 1424 b1 0b 2a
        E 0 91 2c 2a
        E 16 b1 0b 3b
        E 16 b1 0b 44
        E 16 b1 0b 3b
        E 16 b1 0b 33
        E 16 b1 0b 2a
        E 16 b1 0b 22
        E 16 81 2c 00
        E 16 b1 0b 2a
        E 0 91 2c 2a
        E 16 b1 0b 3b
        E 16 b1 0b 44
        E 16 b1 0b 3b
        E 16 b1 0b 33
        E 16 b1 0b 2a
        E 16 b1 0b 22
        E 16 81 2c 00
        E 16 b1 0b 2a
        E 0 91 2c 2a
        E 16 b1 0b 3b
        E 16 b1 0b 44
        E 16 b1 0b 3b
        E 16 b1 0b 33
        E 16 b1 0b 2a
        E 16 b1 0b 22
        E 16 81 2c 00
        E 16 b1 0b 2a
        E 0 91 30 2a
        E 16 b1 0b 3b
        E 16 b1 0b 44
        E 16 b1 0b 3b
        E 16 b1 0b 33
        E 16 b1 0b 2a
        E 16 b1 0b 22
        E 16 81 30 00
        E 144 b1 0b 2a
        E 0 91 27 2a
        E 16 b1 0b 3b
        E 16 b1 0b 44
        E 16 b1 0b 3b
        E 16 b1 0b 33
        E 16 b1 0b 2a
        E 16 b1 0b 22
        E 16 81 27 00
        E 16 b1 0b 2a
        E 0 91 2c 2a
        E 16 b1 0b 3b
        E 16 b1 0b 44
        E 16 b1 0b 3b
        E 16 b1 0b 33
        E 16 b1 0b 2a
        E 16 b1 0b 22
        E 16 81 2c 00
        E 272 b1 0b 2a
        E 0 91 2c 2a
        E 16 b1 0b 3b
        E 16 b1 0b 44
        E 16 b1 0b 3b
        E 16 b1 0b 33
        E 16 b1 0b 2a
        E 16 b1 0b 22
        E 16 81 2c 00
        E 16 b1 0b 2a
        E 0 91 30 2a
        E 16 b1 0b 3b
        E 16 b1 0b 44
        E 16 b1 0b 3b
        E 16 b1 0b 33
        E 16 b1 0b 2a
        E 16 b1 0b 22
        E 16 81 30 00
        E 16 b1 0b 2a
        E 0 91 33 2a
        E 16 b1 0b 3b
        E 16 b1 0b 44
        E 16 b1 0b 3b
        E 16 b1 0b 33
        E 16 b1 0b 2a
        E 16 b1 0b 22
        E 16 81 33 00
        E 16 b1 0b 2a
        E 0 91 32 2a
        E 16 b1 0b 3b
        E 16 b1 0b 44
        E 16 b1 0b 3b
        E 16 b1 0b 33
        E 16 b1 0b 2a
        E 16 b1 0b 22
        E 16 81 32 00
        E 1424 b1 0b 2a
        E 0 91 2f 2a
        E 16 b1 0b 3b
        E 16 b1 0b 44
        E 16 b1 0b 3b
        E 16 b1 0b 33
        E 16 b1 0b 2a
        E 16 b1 0b 22
        E 16 81 2f 00
        E 16 b1 0b 2a
        E 0 91 2f 2a
        E 16 b1 0b 3b
        E 16 b1 0b 44
        E 16 b1 0b 3b
        E 16 b1 0b 33
        E 16 b1 0b 2a
        E 16 b1 0b 22
        E 16 81 2f 00
        E 16 b1 0b 2a
        E 0 91 2f 2a
        E 16 b1 0b 3b
        E 16 b1 0b 44
        E 16 b1 0b 3b
        E 16 b1 0b 33
        E 16 b1 0b 2a
        E 16 b1 0b 22
        E 16 81 2f 00
        E 16 b1 0b 2a
        E 0 91 33 2a
        E 16 b1 0b 3b
        E 16 b1 0b 44
        E 16 b1 0b 3b
        E 16 b1 0b 33
        E 16 b1 0b 2a
        E 16 b1 0b 22
        E 16 81 33 00
        E 144 b1 0b 2a
        E 0 91 2a 2a
        E 16 b1 0b 3b
        E 16 b1 0b 44
        E 16 b1 0b 3b
        E 16 b1 0b 33
        E 16 b1 0b 2a
        E 16 b1 0b 22
        E 16 81 2a 00
        E 16 b1 0b 2a
        E 0 91 2f 2a
        E 16 b1 0b 3b
        E 16 b1 0b 44
        E 16 b1 0b 3b
        E 16 b1 0b 33
        E 16 b1 0b 2a
        E 16 b1 0b 22
        E 16 81 2f 00
        E 272 b1 0b 2a
        E 0 91 2f 2a
        E 16 b1 0b 3b
        E 16 b1 0b 44
        E 16 b1 0b 3b
        E 16 b1 0b 33
        E 16 b1 0b 2a
        E 16 b1 0b 22
        E 16 81 2f 00
        E 16 b1 0b 2a
        E 0 91 33 2a
        E 16 b1 0b 3b
        E 16 b1 0b 44
        E 16 b1 0b 3b
        E 16 b1 0b 33
        E 16 b1 0b 2a
        E 16 b1 0b 22
        E 16 81 33 00
        E 16 b1 0b 2a
        E 0 91 36 2a
        E 16 b1 0b 3b
        E 16 b1 0b 44
        E 16 b1 0b 3b
        E 16 b1 0b 33
        E 16 b1 0b 2a
        E 16 b1 0b 22
        E 16 81 36 00
        E 16 b1 0b 2a
        E 0 91 35 2a
        E 16 b1 0b 3b
        E 16 b1 0b 44
        E 16 b1 0b 3b
        E 16 b1 0b 33
        E 16 b1 0b 2a
        E 16 b1 0b 22
        E 16 81 35 00
        E 1424 b1 0b 2a
        E 0 91 36 2a
        E 16 b1 0b 3b
        E 16 b1 0b 44
        E 16 b1 0b 3b
        E 16 b1 0b 33
        E 16 b1 0b 2a
        E 16 b1 0b 22
        E 16 81 36 00
        E 1040 b1 0b 2a
        E 0 91 36 2a
        E 16 b1 0b 3b
        E 16 b1 0b 44
        E 16 b1 0b 3b
        E 16 b1 0b 33
        E 16 b1 0b 2a
        E 16 b1 0b 22
        E 16 81 36 00
        E 144 b1 0b 2a
        E 0 91 36 2a
        E 16 b1 0b 3b
        E 16 b1 0b 44
        E 16 b1 0b 3b
        E 16 b1 0b 33
        E 16 b1 0b 2a
        E 16 b1 0b 22
        E 16 81 36 00
        E 16 b1 0b 2a
        E 0 91 35 2a
        E 16 b1 0b 3b
        E 16 b1 0b 44
        E 16 b1 0b 3b
        E 16 b1 0b 33
        E 16 b1 0b 2a
        E 16 b1 0b 22
        E 16 81 35 00
        E 1424 b1 0b 2a
        E 0 91 36 2a
        E 16 b1 0b 3b
        E 16 b1 0b 44
        E 16 b1 0b 3b
        E 16 b1 0b 33
        E 16 b1 0b 2a
        E 16 b1 0b 22
        E 16 81 36 00
        E 1040 b1 0b 2a
        E 0 91 36 2a
        E 16 b1 0b 3b
        E 16 b1 0b 44
        E 16 b1 0b 3b
        E 16 b1 0b 33
        E 16 b1 0b 2a
        E 16 b1 0b 22
        E 16 81 36 00
        E 144 b1 0b 2a
        E 0 91 36 2a
        E 16 b1 0b 3b
        E 16 b1 0b 44
        E 16 b1 0b 3b
        E 16 b1 0b 33
        E 16 b1 0b 2a
        E 16 b1 0b 22
        E 16 81 36 00
        E 16 b1 0b 2a
        E 0 91 35 2a
        E 16 b1 0b 3b
        E 16 b1 0b 44
        E 16 b1 0b 3b
        E 16 b1 0b 33
        E 16 b1 0b 2a
        E 16 b1 0b 22
        E 16 81 35 00
        E 1424 b1 0b 2a
        E 0 91 36 2a
        E 16 b1 0b 3b
        E 16 b1 0b 44
        E 16 b1 0b 3b
        E 16 b1 0b 33
        E 16 b1 0b 2a
        E 16 b1 0b 22
        E 16 81 36 00
        E 656 b1 0b 2a
        E 0 91 35 2a
        E 16 b1 0b 3b
        E 16 b1 0b 44
        E 16 b1 0b 3b
        E 16 b1 0b 33
        E 16 b1 0b 2a
        E 16 b1 0b 22
        E 16 81 35 00
        E 272 b1 0b 2a
        E 0 91 2d 2a
        E 16 b1 0b 3b
        E 16 b1 0b 44
        E 16 b1 0b 3b
        E 16 b1 0b 33
        E 16 b1 0b 2a
        E 16 b1 0b 22
        E 16 81 2d 00
        E 16 b1 0b 2a
        E 0 91 30 2a
        E 16 b1 0b 3b
        E 16 b1 0b 44
        E 16 b1 0b 3b
        E 16 b1 0b 33
        E 16 b1 0b 2a
        E 16 b1 0b 22
        E 16 81 30 00
        E 16 b1 0b 2a
        E 0 91 35 2a
        E 16 b1 0b 3b
        E 16 b1 0b 44
        E 16 b1 0b 3b
        E 16 b1 0b 33
        E 16 b1 0b 2a
        E 16 b1 0b 22
        E 16 81 35 00
        E 16 b1 0b 2a
        E 0 91 36 2a
        E 16 b1 0b 3b
        E 16 b1 0b 44
        E 16 b1 0b 3b
        E 16 b1 0b 33
        E 16 b1 0b 2a
        E 16 b1 0b 22
        E 16 81 36 00
        E 656 b1 0b 2a
        E 0 91 35 2a
        E 16 b1 0b 3b
        E 16 b1 0b 44
        E 16 b1 0b 3b
        E 16 b1 0b 33
        E 16 b1 0b 2a
        E 16 b1 0b 22
        E 16 81 35 00
        E 272 b1 0b 2a
        E 0 91 2d 2a
        E 16 b1 0b 3b
        E 16 b1 0b 44
        E 16 b1 0b 3b
        E 16 b1 0b 33
        E 16 b1 0b 2a
        E 16 b1 0b 22
        E 16 81 2d 00
        E 16 b1 0b 2a
        E 0 91 30 2a
        E 16 b1 0b 3b
        E 16 b1 0b 44
        E 16 b1 0b 3b
        E 16 b1 0b 33
        E 16 b1 0b 2a
        E 16 b1 0b 22
        E 16 81 30 00
        E 16 b1 0b 2a
        E 0 91 35 2a
        E 16 b1 0b 3b
        E 16 b1 0b 44
        E 16 b1 0b 3b
        E 16 b1 0b 33
        E 16 b1 0b 2a
        E 16 b1 0b 22
        E 16 81 35 00
        E 16 b1 0b 2a
        E 0 91 36 2a
        E 16 b1 0b 3b
        E 16 b1 0b 44
        E 16 b1 0b 3b
        E 16 b1 0b 33
        E 16 b1 0b 2a
        E 16 b1 0b 22
        E 16 81 36 00
        E 16 b1 0b 2a
        E 0 91 35 2a
        E 16 b1 0b 3b
        E 16 b1 0b 44
        E 16 b1 0b 3b
        E 16 b1 0b 33
        E 16 b1 0b 2a
        E 16 b1 0b 22
        E 16 81 35 00
        E 16 b1 0b 2a
        E 0 91 36 2a
        E 16 b1 0b 3b
        E 16 b1 0b 44
        E 16 b1 0b 3b
        E 16 b1 0b 33
        E 16 b1 0b 2a
        E 16 b1 0b 22
        E 16 81 36 00
        E 16 b1 0b 2a
        E 0 91 35 2a
        E 16 b1 0b 3b
        E 16 b1 0b 44
        E 16 b1 0b 3b
        E 16 b1 0b 33
        E 16 b1 0b 2a
        E 16 b1 0b 22
        E 16 81 35 00
        E 16 b1 0b 2a
        E 0 91 36 2a
        E 16 b1 0b 3b
        E 16 b1 0b 44
        E 16 b1 0b 3b
        E 16 b1 0b 33
        E 16 b1 0b 2a
        E 16 b1 0b 22
        E 16 81 36 00
        E 16 b1 0b 2a
        E 0 91 35 2a
        E 16 b1 0b 3b
        E 16 b1 0b 44
        E 16 b1 0b 3b
        E 16 b1 0b 33
        E 16 b1 0b 2a
        E 16 b1 0b 22
        E 16 81 35 00
        E 16 b1 0b 2a
        E 0 91 36 2a
        E 16 b1 0b 3b
        E 16 b1 0b 44
        E 16 b1 0b 3b
        E 16 b1 0b 33
        E 16 b1 0b 2a
        E 16 b1 0b 22
        E 16 81 36 00
        E 16 b1 0b 2a
        E 0 91 35 2a
        E 16 b1 0b 3b
        E 16 b1 0b 44
        E 16 b1 0b 3b
        E 16 b1 0b 33
        E 16 b1 0b 2a
        E 16 b1 0b 22
        E 16 81 35 00
        E 16 b1 0b 2a
        E 0 91 36 2a
        E 16 b1 0b 3b
        E 16 b1 0b 44
        E 16 b1 0b 3b
        E 16 b1 0b 33
        E 16 b1 0b 2a
        E 16 b1 0b 22
        E 16 81 36 00
        E 16 b1 0b 2a
        E 0 91 35 2a
        E 16 b1 0b 3b
        E 16 b1 0b 44
        E 16 b1 0b 3b
        E 16 b1 0b 33
        E 16 b1 0b 2a
        E 16 b1 0b 22
        E 16 81 35 00
        E 16 b1 0b 2a
        E 0 91 36 2a
        E 16 b1 0b 3b
        E 16 b1 0b 44
        E 16 b1 0b 3b
        E 16 b1 0b 33
        E 16 b1 0b 2a
        E 16 b1 0b 22
        E 16 81 36 00
        E 16 b1 0b 2a
        E 0 91 35 2a
        E 16 b1 0b 3b
        E 16 b1 0b 44
        E 16 b1 0b 3b
        E 16 b1 0b 33
        E 16 b1 0b 2a
        E 16 b1 0b 22
        E 16 81 35 00
        E 16 b1 0b 2a
        E 0 91 36 2a
        E 16 b1 0b 3b
        E 16 b1 0b 44
        E 16 b1 0b 3b
        E 16 b1 0b 33
        E 16 b1 0b 2a
        E 16 b1 0b 22
        E 16 81 36 00
        E 16 b1 0b 2a
        E 0 91 35 2a
        E 16 b1 0b 3b
        E 16 b1 0b 44
        E 16 b1 0b 3b
        E 16 b1 0b 33
        E 16 b1 0b 2a
        E 16 b1 0b 22
        E 16 81 35 00
        E 16 b1 0b 2a
        E 0 91 36 2a
        E 16 b1 0b 3b
        E 16 b1 0b 44
        E 16 b1 0b 3b
        E 16 b1 0b 33
        E 16 b1 0b 2a
        E 16 b1 0b 22
        E 16 81 36 00
        E 16 b1 0b 2a
        E 0 91 35 2a
        E 16 b1 0b 3b
        E 16 b1 0b 44
        E 16 b1 0b 3b
        E 16 b1 0b 33
        E 16 b1 0b 2a
        E 16 b1 0b 22
        E 16 81 35 00
        E 16 b1 0b 2a
        E 0 91 36 2a
        E 16 b1 0b 3b
        E 16 b1 0b 44
        E 16 b1 0b 3b
        E 16 b1 0b 33
        E 16 b1 0b 2a
        E 16 b1 0b 22
        E 16 81 36 00
        E 16 b1 0b 2a
        E 0 91 35 2a
        E 16 b1 0b 3b
        E 16 b1 0b 44
        E 16 b1 0b 3b
        E 16 b1 0b 33
        E 16 b1 0b 2a
        E 16 b1 0b 22
        E 16 81 35 00
        E 16 b1 0b 2a
        E 0 91 36 2a
        E 16 b1 0b 3b
        E 16 b1 0b 44
        E 16 b1 0b 3b
        E 16 b1 0b 33
        E 16 b1 0b 2a
        E 16 b1 0b 22
        E 16 81 36 00
        E 16 b1 0b 2a
        E 0 91 35 2a
        E 16 b1 0b 3b
        E 16 b1 0b 44
        E 16 b1 0b 3b
        E 16 b1 0b 33
        E 16 b1 0b 2a
        E 16 b1 0b 22
        E 16 81 35 00
        E 16 b1 0b 2a
        E 0 91 36 2a
        E 16 b1 0b 3b
        E 16 b1 0b 44
        E 16 b1 0b 3b
        E 16 b1 0b 33
        E 16 b1 0b 2a
        E 16 b1 0b 22
        E 16 81 36 00
        E 16 b1 0b 2a
        E 0 91 35 2a
        E 16 b1 0b 3b
        E 16 b1 0b 44
        E 16 b1 0b 3b
        E 16 b1 0b 33
        E 16 b1 0b 2a
        E 16 b1 0b 22
        E 16 81 35 00
        E 16 b1 0b 2a
        E 0 91 36 2a
        E 16 b1 0b 3b
        E 16 b1 0b 44
        E 16 b1 0b 3b
        E 16 b1 0b 33
        E 16 b1 0b 2a
        E 16 b1 0b 22
        E 16 81 36 00
        E 16 b1 0b 2a
        E 0 91 35 2a
        E 16 b1 0b 3b
        E 16 b1 0b 44
        E 16 b1 0b 3b
        E 16 b1 0b 33
        E 16 b1 0b 2a
        E 16 b1 0b 22
        E 16 81 35 00
        E 16 b1 0b 2a
        E 0 91 3c 2a
        E 16 b1 0b 3b
        E 16 b1 0b 44
        E 16 b1 0b 3b
        E 16 b1 0b 33
        E 16 b1 0b 2a
        E 16 b1 0b 22
        E 16 81 3c 00
        E 144 b1 0b 2a
        E 0 91 3c 2a
        E 16 b1 0b 3b
        E 16 b1 0b 44
        E 16 b1 0b 3b
        E 16 b1 0b 33
        E 16 b1 0b 2a
        E 16 b1 0b 22
        E 16 81 3c 00
        E 16 b1 0b 2a
        E 0 91 3e 2a
        E 16 b1 0b 3b
        E 16 b1 0b 44
        E 16 b1 0b 3b
        E 16 b1 0b 33
        E 16 b1 0b 2a
        E 16 b1 0b 22
        E 16 81 3e 00
        E 272 b1 0b 2a
        E 0 91 40 2a
        E 16 b1 0b 3b
        E 16 b1 0b 44
        E 16 b1 0b 3b
        E 16 b1 0b 33
        E 16 b1 0b 2a
        E 16 b1 0b 22
        E 16 81 40 00
        E 272 b1 0b 2a
        E 0 91 41 2a
        E 16 b1 0b 3b
        E 16 b1 0b 44
        E 16 b1 0b 3b
        E 16 b1 0b 33
        E 16 b1 0b 2a
        E 16 b1 0b 22
        E 16 81 41 00
        E 272 b1 0b 2a
        E 0 91 43 2a
        E 16 b1 0b 3b
        E 16 b1 0b 44
        E 16 b1 0b 3b
        E 16 b1 0b 33
        E 16 b1 0b 2a
        E 16 b1 0b 22
        E 16 81 43 00
        E 656 b1 0b 2a
        E 0 91 48 2a
        E 16 b1 0b 3b
        E 16 b1 0b 44
        E 16 b1 0b 3b
        E 16 b1 0b 33
        E 16 b1 0b 2a
        E 16 b1 0b 22
        E 16 81 48 00
        E 272 b1 0b 2a
        E 0 91 47 2a
        E 16 b1 0b 3b
        E 16 b1 0b 44
        E 16 b1 0b 3b
        E 16 b1 0b 33
        E 16 b1 0b 2a
        E 16 b1 0b 22
        E 16 81 47 00
        E 176 b1 0b 2a
        E 0 91 48 2a
        E 16 b1 0b 3b
        E 16 b1 0b 44
        E 16 b1 0b 3b
        E 16 b1 0b 33
        E 16 b1 0b 2a
        E 16 81 48 00
        E 0 91 43 2a
        E 16 b1 0b 3b
        E 16 b1 0b 44
        E 16 b1 0b 3b
        E 16 b1 0b 33
        E 16 b1 0b 2a
        E 16 b1 0b 22
        E 16 81 43 00
        E 944 b1 0b 2a
        E 0 91 41 2a
        E 16 b1 0b 3b
        E 16 b1 0b 44
        E 16 b1 0b 3b
        E 16 b1 0b 33
        E 16 b1 0b 2a
        E 16 81 41 00
        E 0 91 40 2a
        E 16 b1 0b 3b
        E 16 b1 0b 44
        E 16 b1 0b 3b
        E 16 b1 0b 33
        E 16 b1 0b 2a
        E 16 b1 0b 22
        E 16 81 40 00
        E 176 b1 0b 2a
        E 0 91 3c 2a
        E 16 b1 0b 3b
        E 16 b1 0b 44
        E 16 b1 0b 3b
        E 16 b1 0b 33
        E 16 b1 0b 2a
        E 32 b1 0b 3b
        E 16 b1 0b 44
        E 16 b1 0b 3b
        E 16 b1 0b 33
        E 16 b1 0b 2a
        E 16 b1 0b 22
        E 16 81 3c 00
        E 656 b1 0b 2a
        E 0 91 3e 2a
        E 16 b1 0b 3b
        E 16 b1 0b 44
        E 16 b1 0b 3b
        E 16 b1 0b 33
        E 16 b1 0b 2a
        E 16 b1 0b 22
        E 16 81 3e 00
        E 656 b1 0b 2a
        E 0 91 3c 2a
        E 16 b1 0b 3b
        E 16 b1 0b 44
        E 16 b1 0b 3b
        E 16 b1 0b 33
        E 16 b1 0b 2a
        E 16 b1 0b 22
        E 16 81 3c 00
        E 144 b1 0b 2a
        E 0 91 3c 2a
        E 16 b1 0b 3b
        E 16 b1 0b 44
        E 16 b1 0b 3b
        E 16 b1 0b 33
        E 16 b1 0b 2a
        E 16 b1 0b 22
        E 16 81 3c 00
        E 16 b1 0b 2a
        E 0 91 3e 2a
        E 16 b1 0b 3b
        E 16 b1 0b 44
        E 16 b1 0b 3b
        E 16 b1 0b 33
        E 16 b1 0b 2a
        E 16 b1 0b 22
        E 16 81 3e 00
        E 272 b1 0b 2a
        E 0 91 40 2a
        E 16 b1 0b 3b
        E 16 b1 0b 44
        E 16 b1 0b 3b
        E 16 b1 0b 33
        E 16 b1 0b 2a
        E 16 b1 0b 22
        E 16 81 40 00
        E 272 b1 0b 2a
        E 0 91 41 2a
        E 16 b1 0b 3b
        E 16 b1 0b 44
        E 16 b1 0b 3b
        E 16 b1 0b 33
        E 16 b1 0b 2a
        E 16 b1 0b 22
        E 16 81 41 00
        E 272 b1 0b 2a
        E 0 91 43 2a
        E 16 b1 0b 3b
        E 16 b1 0b 44
        E 16 b1 0b 3b
        E 16 b1 0b 33
        E 16 b1 0b 2a
        E 16 b1 0b 22
        E 16 81 43 00
        E 656 b1 0b 2a
        E 0 91 48 2a
        E 16 b1 0b 3b
        E 16 b1 0b 44
        E 16 b1 0b 3b
        E 16 b1 0b 33
        E 16 b1 0b 2a
        E 16 b1 0b 22
        E 16 81 48 00
        E 272 b1 0b 2a
        E 0 91 47 2a
        E 16 b1 0b 3b
        E 16 b1 0b 44
        E 16 b1 0b 3b
        E 16 b1 0b 33
        E 16 b1 0b 2a
        E 16 b1 0b 22
        E 16 81 47 00
        E 176 b1 0b 2a
        E 0 91 48 2a
        E 16 b1 0b 3b
        E 16 b1 0b 44
        E 16 b1 0b 3b
        E 16 b1 0b 33
        E 16 b1 0b 2a
        E 16 81 48 00
        E 0 91 43 2a
        E 16 b1 0b 3b
        E 16 b1 0b 44
        E 16 b1 0b 3b
        E 16 b1 0b 33
        E 16 b1 0b 2a
        E 16 b1 0b 22
        E 16 81 43 00
        E 944 b1 0b 2a
        E 0 91 41 2a
        E 16 b1 0b 3b
        E 16 b1 0b 44
        E 16 b1 0b 3b
        E 16 b1 0b 33
        E 16 b1 0b 2a
        E 16 81 41 00
        E 0 91 40 2a
        E 16 b1 0b 3b
        E 16 b1 0b 44
        E 16 b1 0b 3b
        E 16 b1 0b 33
        E 16 b1 0b 2a
        E 16 b1 0b 22
        E 16 81 40 00
        E 176 b1 0b 2a
        E 0 91 3c 2a
        E 16 b1 0b 3b
        E 16 b1 0b 44
        E 16 b1 0b 3b
        E 16 b1 0b 33
        E 16 b1 0b 2a
        E 32 b1 0b 3b
        E 16 b1 0b 44
        E 16 b1 0b 3b
        E 16 b1 0b 33
        E 16 b1 0b 2a
        E 16 b1 0b 22
        E 16 81 3c 00
        E 656 b1 0b 2a
        E 0 91 3e 2a
        E 16 b1 0b 3b
        E 16 b1 0b 44
        E 16 b1 0b 3b
        E 16 b1 0b 33
        E 16 b1 0b 2a
        E 16 b1 0b 22
        E 16 81 3e 00
        E 656 b1 0b 2a
        E 0 91 37 2a
        E 16 b1 0b 3b
        E 16 b1 0b 44
        E 16 b1 0b 3b
        E 16 b1 0b 33
        E 16 b1 0b 2a
        E 16 b1 0b 22
        E 16 81 37 00
        E 1040 b1 0b 2a
        E 0 91 3c 2a
        E 16 b1 0b 3b
        E 16 b1 0b 44
        E 16 b1 0b 3b
        E 16 b1 0b 33
        E 16 b1 0b 2a
        E 16 b1 0b 22
        E 16 81 3c 00
        E 176 b1 0b 2a
        E 0 91 37 2a
        E 16 b1 0b 3b
        E 16 b1 0b 44
        E 16 b1 0b 3b
        E 16 b1 0b 33
        E 16 b1 0b 2a
        E 16 81 37 00
        E 0 91 39 2a
        E 16 b1 0b 3b
        E 16 b1 0b 44
        E 16 b1 0b 3b
        E 16 b1 0b 33
        E 16 b1 0b 2a
        E 16 b1 0b 22
        E 16 81 39 00
        E 1424 b1 0b 2a
        E 0 91 3c 2a
        E 16 b1 0b 3b
        E 16 b1 0b 44
        E 16 b1 0b 3b
        E 16 b1 0b 33
        E 16 b1 0b 2a
        E 16 b1 0b 22
        E 16 81 3c 00
        E 1040 b1 0b 2a
        E 0 91 37 2a
        E 16 b1 0b 3b
        E 16 b1 0b 44
        E 16 b1 0b 3b
        E 16 b1 0b 33
        E 16 b1 0b 2a
        E 16 b1 0b 22
        E 16 81 37 00
        E 176 b1 0b 2a
        E 0 91 3c 2a
        E 16 b1 0b 3b
        E 16 b1 0b 44
        E 16 b1 0b 3b
        E 16 b1 0b 33
        E 16 b1 0b 2a
        E 32 b1 0b 3b
        E 16 b1 0b 44
        E 16 b1 0b 3b
        E 16 b1 0b 33
        E 16 b1 0b 2a
        E 16 b1 0b 22
        E 16 81 3c 00
        E 656 b1 0b 2a
        E 0 91 35 2a
        E 16 b1 0b 3b
        E 16 b1 0b 44
        E 16 b1 0b 3b
        E 16 b1 0b 33
        E 16 b1 0b 2a
        E 16 b1 0b 22
        E 16 81 35 00
        E 272 b1 0b 2a
        E 0 91 35 2a
        E 16 b1 0b 3b
        E 16 b1 0b 44
        E 16 b1 0b 3b
        E 16 b1 0b 33
        E 16 b1 0b 2a
        E 16 b1 0b 22
        E 16 81 35 00
        E 272 b1 0b 2a
        E 0 91 37 2a
        E 16 b1 0b 3b
        E 16 b1 0b 44
        E 16 b1 0b 3b
        E 16 b1 0b 33
        E 16 b1 0b 2a
        E 16 b1 0b 22
        E 16 81 37 00
        E 1040 b1 0b 2a
        E 0 91 3c 2a
        E 16 b1 0b 3b
        E 16 b1 0b 44
        E 16 b1 0b 3b
        E 16 b1 0b 33
        E 16 b1 0b 2a
        E 16 b1 0b 22
        E 16 81 3c 00
        E 176 b1 0b 2a
        E 0 91 37 2a
        E 16 b1 0b 3b
        E 16 b1 0b 44
        E 16 b1 0b 3b
        E 16 b1 0b 33
        E 16 b1 0b 2a
        E 16 81 37 00
        E 0 91 39 2a
        E 16 b1 0b 3b
        E 16 b1 0b 44
        E 16 b1 0b 3b
        E 16 b1 0b 33
        E 16 b1 0b 2a
        E 16 b1 0b 22
        E 16 81 39 00
        E 1424 b1 0b 2a
        E 0 91 3c 2a
        E 16 b1 0b 3b
        E 16 b1 0b 44
        E 16 b1 0b 3b
        E 16 b1 0b 33
        E 16 b1 0b 2a
        E 16 b1 0b 22
        E 16 81 3c 00
        E 1040 b1 0b 2a
        E 0 91 37 2a
        E 16 b1 0b 3b
        E 16 b1 0b 44
        E 16 b1 0b 3b
        E 16 b1 0b 33
        E 16 b1 0b 2a
        E 16 b1 0b 22
        E 16 81 37 00
        E 176 b1 0b 2a
        E 0 91 3c 2a
        E 16 b1 0b 3b
        E 16 b1 0b 44
        E 16 b1 0b 3b
        E 16 b1 0b 33
        E 16 b1 0b 2a
        E 32 b1 0b 3b
        E 16 b1 0b 44
        E 16 b1 0b 3b
        E 16 b1 0b 33
        E 16 b1 0b 2a
        E 16 b1 0b 22
        E 16 81 3c 00
        E 656 b1 0b 2a
        E 0 91 35 2a
        E 16 b1 0b 3b
        E 16 b1 0b 44
        E 16 b1 0b 3b
        E 16 b1 0b 33
        E 16 b1 0b 2a
        E 16 b1 0b 22
        E 16 81 35 00
        E 272 b1 0b 2a
        E 0 91 35 2a
        E 16 b1 0b 3b
        E 16 b1 0b 44
        E 16 b1 0b 3b
        E 16 b1 0b 33
        E 16 b1 0b 2a
        E 16 b1 0b 22
        E 16 81 35 00
        E 272 b1 0b 2a
        E 0 91 2b 2a
        E 16 b1 0b 3b
        E 16 b1 0b 44
        E 16 b1 0b 3b
        E 16 b1 0b 33
        E 16 b1 0b 2a
        E 16 b1 0b 22
        E 16 81 2b 00
        E 16 b1 0b 2a
        E 0 91 2b 2a
        E 16 b1 0b 3b
        E 16 b1 0b 44
        E 16 b1 0b 3b
        E 16 b1 0b 33
        E 16 b1 0b 2a
        E 16 b1 0b 22
        E 16 81 2b 00
        E 16 b1 0b 2a
        E 0 91 2b 2a
        E 16 b1 0b 3b
        E 16 b1 0b 44
        E 16 b1 0b 3b
        E 16 b1 0b 33
        E 16 b1 0b 2a
        E 16 b1 0b 22
        E 16 81 2b 00
        E 16 b1 0b 2a
        E 0 91 30 2a
        E 16 b1 0b 3b
        E 16 b1 0b 44
        E 16 b1 0b 3b
        E 16 b1 0b 33
        E 16 b1 0b 2a
        E 16 b1 0b 22
        E 16 81 30 00
        E 144 b1 0b 2a
        E 0 91 28 2a
        E 16 b1 0b 3b
        E 16 b1 0b 44
        E 16 b1 0b 3b
        E 16 b1 0b 33
        E 16 b1 0b 2a
        E 16 b1 0b 22
        E 16 81 28 00
        E 16 b1 0b 2a
        E 0 91 2b 2a
        E 16 b1 0b 3b
        E 16 b1 0b 44
        E 16 b1 0b 3b
        E 16 b1 0b 33
        E 16 b1 0b 2a
        E 16 b1 0b 22
        E 16 81 2b 00
        E 272 b1 0b 2a
        E 0 91 2b 2a
        E 16 b1 0b 3b
        E 16 b1 0b 44
        E 16 b1 0b 3b
        E 16 b1 0b 33
        E 16 b1 0b 2a
        E 16 b1 0b 22
        E 16 81 2b 00
        E 16 b1 0b 2a
        E 0 91 30 2a
        E 16 b1 0b 3b
        E 16 b1 0b 44
        E 16 b1 0b 3b
        E 16 b1 0b 33
        E 16 b1 0b 2a
        E 16 b1 0b 22
        E 16 81 30 00
        E 16 b1 0b 2a
        E 0 91 34 2a
        E 16 b1 0b 3b
        E 16 b1 0b 44
        E 16 b1 0b 3b
        E 16 b1 0b 33
        E 16 b1 0b 2a
        E 16 b1 0b 22
        E 16 81 34 00
        E 16 b1 0b 2a
        E 0 91 32 2a
        E 16 b1 0b 3b
        E 16 b1 0b 44
        E 16 b1 0b 3b
        E 16 b1 0b 33
        E 16 b1 0b 2a
        E 16 b1 0b 22
        E 16 81 32 00
        E 1424 b1 0b 2a
        E 0 91 30 2a
        E 16 b1 0b 3b
        E 16 b1 0b 44
        E 16 b1 0b 3b
        E 16 b1 0b 33
        E 16 b1 0b 2a
        E 16 b1 0b 22
        E 16 81 30 00
        E 16 b1 0b 2a
        E 0 91 30 2a
        E 16 b1 0b 3b
        E 16 b1 0b 44
        E 16 b1 0b 3b
        E 16 b1 0b 33
        E 16 b1 0b 2a
        E 16 b1 0b 22
        E 16 81 30 00
        E 16 b1 0b 2a
        E 0 91 30 2a
        E 16 b1 0b 3b
        E 16 b1 0b 44
        E 16 b1 0b 3b
        E 16 b1 0b 33
        E 16 b1 0b 2a
        E 16 b1 0b 22
        E 16 81 30 00
        E 16 b1 0b 2a
        E 0 91 34 2a
        E 16 b1 0b 3b
        E 16 b1 0b 44
        E 16 b1 0b 3b
        E 16 b1 0b 33
        E 16 b1 0b 2a
        E 16 b1 0b 22
        E 16 81 34 00
        E 144 b1 0b 2a
        E 0 91 2b 2a
        E 16 b1 0b 3b
        E 16 b1 0b 44
        E 16 b1 0b 3b
        E 16 b1 0b 33
        E 16 b1 0b 2a
        E 16 b1 0b 22
        E 16 81 2b 00
        E 16 b1 0b 2a
        E 0 91 30 2a
        E 16 b1 0b 3b
        E 16 b1 0b 44
        E 16 b1 0b 3b
        E 16 b1 0b 33
        E 16 b1 0b 2a
        E 16 b1 0b 22
        E 16 81 30 00
        E 272 b1 0b 2a
        E 0 91 30 2a
        E 16 b1 0b 3b
        E 16 b1 0b 44
        E 16 b1 0b 3b
        E 16 b1 0b 33
        E 16 b1 0b 2a
        E 16 b1 0b 22
        E 16 81 30 00
        E 16 b1 0b 2a
        E 0 91 34 2a
        E 16 b1 0b 3b
        E 16 b1 0b 44
        E 16 b1 0b 3b
        E 16 b1 0b 33
        E 16 b1 0b 2a
        E 16 b1 0b 22
        E 16 81 34 00
        E 16 b1 0b 2a
        E 0 91 37 2a
        E 16 b1 0b 3b
        E 16 b1 0b 44
        E 16 b1 0b 3b
        E 16 b1 0b 33
        E 16 b1 0b 2a
        E 16 b1 0b 22
        E 16 81 37 00
        E 16 b1 7b 00
        E 0 ff 2f 00
      >
    >
  >
  <TRACK {BC157966-C27D-4551-BEA3-4BAA0933F4FB}
    NAME "NES - Triangle [ch2]"
    PEAKCOL 16744192
    BEAT -1
    AUTOMODE 0
    PANLAWFLAGS 3
    VOLPAN 1 0 -1 -1 1
    MUTESOLO 0 0 0
    IPHASE 0
    PLAYOFFS 0 1
    ISBUS 0 0
    BUSCOMP 0 0 0 0 0
    SHOWINMIX 1 0.6667 0.5 1 0.5 0 0 0
    FIXEDLANES 9 0 0 0 0
    SEL 0
    REC 0 5088 1 0 0 0 0 0
    VU 2
    TRACKHEIGHT 0 0 0 0 0 0 0
    INQ 0 0 0 0.5 100 0 0 100
    NCHAN 2
    FX 1
    TRACKID {BC157966-C27D-4551-BEA3-4BAA0933F4FB}
    PERF 0
    MIDIOUT -1
    MAINSEND 1 0
    <FXCHAIN
      WNDRECT 24 52 700 560
      SHOW 0
      LASTSEL 0
      DOCKED 0
      BYPASS 0 0 0
      <JS "ReapNES Studio/ReapNES_Console.jsfx" ""
        2 15 1 10 80 10 100 2 1 15 1 5 60 10 80 1 1 0 50 0 0 15 1 0 100 0 0 0.500000 0.500000 0.400000 0.300000 0.800000 2 1 0 0 0 0 - - - - - - - - - - - - - - - - - - - - - - - - - -
      >
      FLOATPOS 0 0 0 0
      FXID {92AE52C0-84E5-4178-829D-1D3E4917519C}
      WAK 0 0
    >
    <ITEM
      POSITION 0
      LENGTH 74.65008
      LOOP 0
      ALLTAKES 0
      FADEIN 0 0 0 0 0 0 0
      FADEOUT 0 0 0 0 0 0 0
      MUTE 0 0
      SEL 0
      IGUID {4163F28E-18B3-4B40-8DD2-7FBD07A97D88}
      <SOURCE MIDI
        HASDATA 1 480 QN
        CCINTERP 32
        E 0 c2 26
        E 10752 b2 0b 7f
        E 0 92 2b 7f
        E 384 82 2b 00
        E 0 b2 0b 7f
        E 0 92 24 7f
        E 384 82 24 00
        E 0 b2 0b 7f
        E 0 92 26 7f
        E 384 82 26 00
        E 0 b2 0b 7f
        E 0 92 28 7f
        E 288 82 28 00
        E 0 b2 0b 7f
        E 0 92 29 7f
        E 96 82 29 00
        E 0 b2 0b 7f
        E 0 92 2b 7f
        E 384 82 2b 00
        E 0 b2 0b 7f
        E 0 92 30 7f
        E 384 82 30 00
        E 0 b2 0b 7f
        E 0 92 32 7f
        E 384 82 32 00
        E 0 b2 0b 7f
        E 0 92 34 7f
        E 288 82 34 00
        E 0 b2 0b 7f
        E 0 92 35 7f
        E 96 82 35 00
        E 0 b2 0b 7f
        E 0 92 37 7f
        E 384 82 37 00
        E 0 b2 0b 7f
        E 0 92 3c 7f
        E 384 82 3c 00
        E 0 b2 0b 7f
        E 0 92 3e 7f
        E 384 82 3e 00
        E 0 b2 0b 7f
        E 0 92 40 7f
        E 288 82 40 00
        E 0 b2 0b 7f
        E 0 92 41 7f
        E 96 82 41 00
        E 0 b2 0b 7f
        E 0 92 37 7f
        E 384 82 37 00
        E 0 b2 0b 7f
        E 0 92 3c 7f
        E 384 82 3c 00
        E 0 b2 0b 7f
        E 0 92 3e 7f
        E 384 82 3e 00
        E 0 b2 0b 7f
        E 0 92 40 7f
        E 288 82 40 00
        E 0 b2 0b 7f
        E 0 92 41 7f
        E 96 82 41 00
        E 0 b2 0b 7f
        E 0 92 43 7f
        E 1536 82 43 00
        E 0 b2 0b 7f
        E 0 92 18 7f
        E 4992 82 18 00
        E 0 b2 0b 7f
        E 0 92 24 7f
        E 128 82 24 00
        E 128 b2 0b 7f
        E 0 92 18 7f
        E 96 82 18 00
        E 32 b2 0b 7f
        E 0 92 18 7f
        E 384 82 18 00
        E 0 b2 0b 7f
        E 0 92 24 7f
        E 128 82 24 00
        E 128 b2 0b 7f
        E 0 92 18 7f
        E 96 82 18 00
        E 32 b2 0b 7f
        E 0 92 18 7f
        E 384 82 18 00
        E 0 b2 0b 7f
        E 0 92 24 7f
        E 128 82 24 00
        E 128 b2 0b 7f
        E 0 92 18 7f
        E 96 82 18 00
        E 32 b2 0b 7f
        E 0 92 18 7f
        E 384 82 18 00
        E 0 b2 0b 7f
        E 0 92 24 7f
        E 128 82 24 00
        E 128 b2 0b 7f
        E 0 92 18 7f
        E 96 82 18 00
        E 32 b2 0b 7f
        E 0 92 18 7f
        E 384 82 18 00
        E 0 b2 0b 7f
        E 0 92 24 7f
        E 128 82 24 00
        E 128 b2 0b 7f
        E 0 92 18 7f
        E 96 82 18 00
        E 32 b2 0b 7f
        E 0 92 18 7f
        E 384 82 18 00
        E 0 b2 0b 7f
        E 0 92 24 7f
        E 128 82 24 00
        E 128 b2 0b 7f
        E 0 92 18 7f
        E 96 82 18 00
        E 32 b2 0b 7f
        E 0 92 18 7f
        E 384 82 18 00
        E 0 b2 0b 7f
        E 0 92 24 7f
        E 128 82 24 00
        E 128 b2 0b 7f
        E 0 92 18 7f
        E 96 82 18 00
        E 32 b2 0b 7f
        E 0 92 18 7f
        E 384 82 18 00
        E 0 b2 0b 7f
        E 0 92 24 7f
        E 128 82 24 00
        E 128 b2 0b 7f
        E 0 92 18 7f
        E 96 82 18 00
        E 32 b2 0b 7f
        E 0 92 18 7f
        E 384 82 18 00
        E 0 b2 0b 7f
        E 0 92 24 7f
        E 128 82 24 00
        E 128 b2 0b 7f
        E 0 92 18 7f
        E 96 82 18 00
        E 32 b2 0b 7f
        E 0 92 18 7f
        E 384 82 18 00
        E 0 b2 0b 7f
        E 0 92 24 7f
        E 128 82 24 00
        E 128 b2 0b 7f
        E 0 92 18 7f
        E 96 82 18 00
        E 32 b2 0b 7f
        E 0 92 18 7f
        E 384 82 18 00
        E 0 b2 0b 7f
        E 0 92 24 7f
        E 128 82 24 00
        E 128 b2 0b 7f
        E 0 92 18 7f
        E 96 82 18 00
        E 32 b2 0b 7f
        E 0 92 18 7f
        E 384 82 18 00
        E 0 b2 0b 7f
        E 0 92 24 7f
        E 128 82 24 00
        E 128 b2 0b 7f
        E 0 92 18 7f
        E 96 82 18 00
        E 32 b2 0b 7f
        E 0 92 18 7f
        E 384 82 18 00
        E 0 b2 0b 7f
        E 0 92 24 7f
        E 128 82 24 00
        E 128 b2 0b 7f
        E 0 92 18 7f
        E 96 82 18 00
        E 32 b2 0b 7f
        E 0 92 18 7f
        E 384 82 18 00
        E 0 b2 0b 7f
        E 0 92 24 7f
        E 128 82 24 00
        E 128 b2 0b 7f
        E 0 92 18 7f
        E 96 82 18 00
        E 32 b2 0b 7f
        E 0 92 18 7f
        E 384 82 18 00
        E 0 b2 0b 7f
        E 0 92 24 7f
        E 128 82 24 00
        E 128 b2 0b 7f
        E 0 92 18 7f
        E 96 82 18 00
        E 32 b2 0b 7f
        E 0 92 18 7f
        E 384 82 18 00
        E 0 b2 0b 7f
        E 0 92 24 7f
        E 128 82 24 00
        E 128 b2 0b 7f
        E 0 92 18 7f
        E 96 82 18 00
        E 32 b2 0b 7f
        E 0 92 18 7f
        E 384 82 18 00
        E 0 b2 0b 7f
        E 0 92 24 7f
        E 128 82 24 00
        E 128 b2 0b 7f
        E 0 92 18 7f
        E 96 82 18 00
        E 32 b2 0b 7f
        E 0 92 18 7f
        E 384 82 18 00
        E 0 b2 0b 7f
        E 0 92 24 7f
        E 128 82 24 00
        E 128 b2 0b 7f
        E 0 92 18 7f
        E 96 82 18 00
        E 32 b2 0b 7f
        E 0 92 18 7f
        E 384 82 18 00
        E 0 b2 0b 7f
        E 0 92 24 7f
        E 128 82 24 00
        E 128 b2 0b 7f
        E 0 92 18 7f
        E 96 82 18 00
        E 32 b2 0b 7f
        E 0 92 18 7f
        E 384 82 18 00
        E 0 b2 0b 7f
        E 0 92 24 7f
        E 128 82 24 00
        E 128 b2 0b 7f
        E 0 92 18 7f
        E 96 82 18 00
        E 32 b2 0b 7f
        E 0 92 18 7f
        E 384 82 18 00
        E 0 b2 0b 7f
        E 0 92 24 7f
        E 128 82 24 00
        E 128 b2 0b 7f
        E 0 92 18 7f
        E 96 82 18 00
        E 32 b2 0b 7f
        E 0 92 18 7f
        E 384 82 18 00
        E 0 b2 0b 7f
        E 0 92 24 7f
        E 128 82 24 00
        E 128 b2 0b 7f
        E 0 92 18 7f
        E 96 82 18 00
        E 32 b2 0b 7f
        E 0 92 18 7f
        E 384 82 18 00
        E 0 b2 0b 7f
        E 0 92 24 7f
        E 128 82 24 00
        E 128 b2 0b 7f
        E 0 92 18 7f
        E 96 82 18 00
        E 32 b2 0b 7f
        E 0 92 18 7f
        E 384 82 18 00
        E 0 b2 0b 7f
        E 0 92 24 7f
        E 128 82 24 00
        E 128 b2 0b 7f
        E 0 92 18 7f
        E 96 82 18 00
        E 32 b2 0b 7f
        E 0 92 18 7f
        E 384 82 18 00
        E 0 b2 0b 7f
        E 0 92 24 7f
        E 128 82 24 00
        E 128 b2 0b 7f
        E 0 92 18 7f
        E 96 82 18 00
        E 32 b2 0b 7f
        E 0 92 18 7f
        E 384 82 18 00
        E 0 b2 0b 7f
        E 0 92 24 7f
        E 128 82 24 00
        E 128 b2 0b 7f
        E 0 92 18 7f
        E 96 82 18 00
        E 32 b2 0b 7f
        E 0 92 18 7f
        E 384 82 18 00
        E 0 b2 0b 7f
        E 0 92 24 7f
        E 128 82 24 00
        E 128 b2 0b 7f
        E 0 92 18 7f
        E 96 82 18 00
        E 32 b2 0b 7f
        E 0 92 18 7f
        E 384 82 18 00
        E 0 b2 0b 7f
        E 0 92 24 7f
        E 128 82 24 00
        E 128 b2 0b 7f
        E 0 92 18 7f
        E 96 82 18 00
        E 32 b2 0b 7f
        E 0 92 18 7f
        E 384 82 18 00
        E 0 b2 0b 7f
        E 0 92 24 7f
        E 128 82 24 00
        E 128 b2 0b 7f
        E 0 92 18 7f
        E 96 82 18 00
        E 32 b2 0b 7f
        E 0 92 18 7f
        E 384 82 18 00
        E 0 b2 0b 7f
        E 0 92 24 7f
        E 128 82 24 00
        E 128 b2 0b 7f
        E 0 92 18 7f
        E 96 82 18 00
        E 32 b2 0b 7f
        E 0 92 18 7f
        E 384 82 18 00
        E 0 b2 0b 7f
        E 0 92 24 7f
        E 128 82 24 00
        E 128 b2 0b 7f
        E 0 92 18 7f
        E 96 82 18 00
        E 32 b2 0b 7f
        E 0 92 18 7f
        E 384 82 18 00
        E 0 b2 0b 7f
        E 0 92 24 7f
        E 128 82 24 00
        E 128 b2 0b 7f
        E 0 92 18 7f
        E 96 82 18 00
        E 32 b2 0b 7f
        E 0 92 24 7f
        E 384 82 24 00
        E 0 b2 0b 7f
        E 0 92 23 7f
        E 384 82 23 00
        E 0 b2 0b 7f
        E 0 92 21 7f
        E 384 82 21 00
        E 0 b2 0b 7f
        E 0 92 1f 7f
        E 384 82 1f 00
        E 0 b2 0b 7f
        E 0 92 1d 7f
        E 1536 82 1d 00
        E 0 b2 0b 7f
        E 0 92 1c 7f
        E 1536 82 1c 00
        E 0 b2 0b 7f
        E 0 92 1f 7f
        E 1536 82 1f 00
        E 0 b2 0b 7f
        E 0 92 24 7f
        E 384 82 24 00
        E 0 b2 0b 7f
        E 0 92 23 7f
        E 384 82 23 00
        E 0 b2 0b 7f
        E 0 92 21 7f
        E 384 82 21 00
        E 0 b2 0b 7f
        E 0 92 1f 7f
        E 384 82 1f 00
        E 0 b2 0b 7f
        E 0 92 1d 7f
        E 1536 82 1d 00
        E 0 b2 0b 7f
        E 0 92 1c 7f
        E 1536 82 1c 00
        E 0 b2 0b 7f
        E 0 92 1f 7f
        E 1536 82 1f 00
        E 0 b2 0b 7f
        E 0 92 28 7f
        E 192 82 28 00
        E 192 b2 0b 7f
        E 0 92 28 7f
        E 192 82 28 00
        E 192 b2 0b 7f
        E 0 92 28 7f
        E 192 82 28 00
        E 192 b2 0b 7f
        E 0 92 28 7f
        E 96 82 28 00
        E 32 b2 0b 7f
        E 0 92 28 7f
        E 96 82 28 00
        E 32 b2 0b 7f
        E 0 92 28 7f
        E 96 82 28 00
        E 32 b2 0b 7f
        E 0 92 29 7f
        E 192 82 29 00
        E 192 b2 0b 7f
        E 0 92 29 7f
        E 192 82 29 00
        E 192 b2 0b 7f
        E 0 92 29 7f
        E 192 82 29 00
        E 192 b2 0b 7f
        E 0 92 29 7f
        E 96 82 29 00
        E 32 b2 0b 7f
        E 0 92 29 7f
        E 96 82 29 00
        E 32 b2 0b 7f
        E 0 92 29 7f
        E 96 82 29 00
        E 32 b2 0b 7f
        E 0 92 2b 7f
        E 192 82 2b 00
        E 192 b2 0b 7f
        E 0 92 2b 7f
        E 192 82 2b 00
        E 192 b2 0b 7f
        E 0 92 2b 7f
        E 192 82 2b 00
        E 192 b2 0b 7f
        E 0 92 2b 7f
        E 96 82 2b 00
        E 32 b2 0b 7f
        E 0 92 2b 7f
        E 96 82 2b 00
        E 32 b2 0b 7f
        E 0 92 2b 7f
        E 96 82 2b 00
        E 32 b2 0b 7f
        E 0 92 2e 7f
        E 192 82 2e 00
        E 192 b2 0b 7f
        E 0 92 2e 7f
        E 128 82 2e 00
        E 0 b2 0b 7f
        E 0 92 22 7f
        E 128 82 22 00
        E 0 b2 0b 7f
        E 0 92 2e 7f
        E 128 82 2e 00
        E 0 b2 0b 7f
        E 0 92 2d 7f
        E 192 82 2d 00
        E 192 b2 0b 7f
        E 0 92 2c 7f
        E 192 82 2c 00
        E 192 b2 0b 7f
        E 0 92 28 7f
        E 192 82 28 00
        E 192 b2 0b 7f
        E 0 92 28 7f
        E 192 82 28 00
        E 192 b2 0b 7f
        E 0 92 28 7f
        E 192 82 28 00
        E 192 b2 0b 7f
        E 0 92 28 7f
        E 96 82 28 00
        E 32 b2 0b 7f
        E 0 92 28 7f
        E 96 82 28 00
        E 32 b2 0b 7f
        E 0 92 28 7f
        E 96 82 28 00
        E 32 b2 0b 7f
        E 0 92 29 7f
        E 192 82 29 00
        E 192 b2 0b 7f
        E 0 92 29 7f
        E 192 82 29 00
        E 192 b2 0b 7f
        E 0 92 29 7f
        E 192 82 29 00
        E 192 b2 0b 7f
        E 0 92 29 7f
        E 96 82 29 00
        E 32 b2 0b 7f
        E 0 92 29 7f
        E 96 82 29 00
        E 32 b2 0b 7f
        E 0 92 29 7f
        E 96 82 29 00
        E 32 b2 0b 7f
        E 0 92 2b 7f
        E 192 82 2b 00
        E 192 b2 0b 7f
        E 0 92 2b 7f
        E 192 82 2b 00
        E 192 b2 0b 7f
        E 0 92 2b 7f
        E 192 82 2b 00
        E 192 b2 0b 7f
        E 0 92 2b 7f
        E 96 82 2b 00
        E 32 b2 0b 7f
        E 0 92 2b 7f
        E 96 82 2b 00
        E 32 b2 0b 7f
        E 0 92 2b 7f
        E 96 82 2b 00
        E 32 b2 0b 7f
        E 0 92 2e 7f
        E 192 82 2e 00
        E 192 b2 0b 7f
        E 0 92 2e 7f
        E 128 82 2e 00
        E 0 b2 0b 7f
        E 0 92 22 7f
        E 128 82 22 00
        E 0 b2 0b 7f
        E 0 92 2e 7f
        E 128 82 2e 00
        E 0 b2 0b 7f
        E 0 92 2d 7f
        E 192 82 2d 00
        E 192 b2 0b 7f
        E 0 92 2c 7f
        E 192 82 2c 00
        E 192 b2 0b 7f
        E 0 92 1c 7f
        E 512 82 1c 00
        E 128 b2 0b 7f
        E 0 92 1c 7f
        E 96 82 1c 00
        E 32 b2 0b 7f
        E 0 92 1c 7f
        E 512 82 1c 00
        E 128 b2 0b 7f
        E 0 92 1c 7f
        E 96 82 1c 00
        E 32 b2 0b 7f
        E 0 92 1d 7f
        E 512 82 1d 00
        E 128 b2 0b 7f
        E 0 92 1d 7f
        E 96 82 1d 00
        E 32 b2 0b 7f
        E 0 92 1d 7f
        E 512 82 1d 00
        E 128 b2 0b 7f
        E 0 92 1d 7f
        E 96 82 1d 00
        E 32 b2 0b 7f
        E 0 92 1f 7f
        E 512 82 1f 00
        E 128 b2 0b 7f
        E 0 92 1f 7f
        E 96 82 1f 00
        E 32 b2 0b 7f
        E 0 92 1f 7f
        E 512 82 1f 00
        E 128 b2 0b 7f
        E 0 92 1f 7f
        E 96 82 1f 00
        E 32 b2 7b 00
        E 0 ff 2f 00
      >
    >
  >
  <TRACK {D72C86E1-86A1-49D7-B554-2D22826B5C76}
    NAME "NES - Noise / Drums [ch3]"
    PEAKCOL 11184810
    BEAT -1
    AUTOMODE 0
    PANLAWFLAGS 3
    VOLPAN 1 0 -1 -1 1
    MUTESOLO 0 0 0
    IPHASE 0
    PLAYOFFS 0 1
    ISBUS 0 0
    BUSCOMP 0 0 0 0 0
    SHOWINMIX 1 0.6667 0.5 1 0.5 0 0 0
    FIXEDLANES 9 0 0 0 0
    SEL 0
    REC 0 5088 1 0 0 0 0 0
    VU 2
    TRACKHEIGHT 0 0 0 0 0 0 0
    INQ 0 0 0 0.5 100 0 0 100
    NCHAN 2
    FX 1
    TRACKID {D72C86E1-86A1-49D7-B554-2D22826B5C76}
    PERF 0
    MIDIOUT -1
    MAINSEND 1 0
    <FXCHAIN
      WNDRECT 24 52 700 560
      SHOW 0
      LASTSEL 0
      DOCKED 0
      BYPASS 0 0 0
      <JS "ReapNES Studio/ReapNES_Console.jsfx" ""
        2 15 1 10 80 10 100 2 1 15 1 5 60 10 80 1 1 0 50 0 0 15 1 0 100 0 0 0.500000 0.500000 0.400000 0.300000 0.800000 3 1 0 0 0 0 - - - - - - - - - - - - - - - - - - - - - - - - - -
      >
      FLOATPOS 0 0 0 0
      FXID {CF31A9DF-8364-492A-9C87-7C7BF6B4E79D}
      WAK 0 0
    >
    <ITEM
      POSITION 0
      LENGTH 74.65008
      LOOP 0
      ALLTAKES 0
      FADEIN 0 0 0 0 0 0 0
      FADEOUT 0 0 0 0 0 0 0
      MUTE 0 0
      SEL 0
      IGUID {B7E89153-2387-4445-9154-F3FE9C6BC0FF}
      <SOURCE MIDI
        HASDATA 1 480 QN
        CCINTERP 32
        E 0 93 2a 4c
        E 76800 83 2a 00
        E 0 b3 7b 00
        E 0 ff 2f 00
      >
    >
  >
>