<REAPER_PROJECT 0.1 "7.27/win64" 1707000000
  <NOTES 0 2
    |ReapNES Studio Project
    |MIDI Import - Kid_Icarus_title_screen_rom_v1
  >
  RIPPLE 0
  GROUPOVERRIDE 0 0 0
  AUTOXFADE 129
  ENVATTACH 3
  POOLEDENVATTACH 0
  MIXERUIFLAGS 11 48
  ENVFADESZ10 40
  PEAKGAIN 1
  FEEDBACK 0
  PANLAW 1
  PROJOFFS 0 0 0
  MAXPROJLEN 0 0
  GRID 3199 8 1 8 1 0 0 0
  TIMEMODE 1 5 -1 30 0 0 -1
  VIDEO_CONFIG 0 0 65792
  PANMODE 3
  PANLAWFLAGS 3
  CURSOR 0
  ZOOM 100 0 0
  VZOOMEX 6 0
  USE_REC_CFG 0
  RECMODE 1
  SMPTESYNC 0 30 100 40 1000 300 0 0 1 0 0
  LOOP 0
  LOOPGRAN 0 4
  RECORD_PATH "Media" ""
  <RECORD_CFG
    ZXZhdxgAAQ==
  >
  <APPLYFX_CFG
  >
  RENDER_FILE ""
  RENDER_PATTERN ""
  RENDER_FMT 0 2 0
  RENDER_1X 0
  RENDER_RANGE 1 0 0 18 1000
  RENDER_RESAMPLE 3 0 1
  RENDER_ADDTOPROJ 0
  RENDER_STEMS 0
  RENDER_DITHER 0
  TIMELOCKMODE 1
  TEMPOENVLOCKMODE 1
  ITEMMIX 1
  DEFPITCHMODE 589824 0
  TAKELANE 1
  SAMPLERATE 44100 0 0
  <RENDER_CFG
    ZXZhdxgAAQ==
  >
  LOCK 1
  <METRONOME 6 2
    VOL 0.25 0.125
    BEATLEN 4
    FREQ 1760 880 1
    SAMPLES "" ""
    SPLIGNORE 0 0
    SPLDEF 2 660 "" 0
    SPLDEF 3 440 "" 0
    PATTERN 0 169
    PATTERNSTR ABBB
    MULT 1
  >
  GLOBAL_AUTO -1
  TEMPO 128.59999614200012 4 4
  PLAYRATE 1 0 0.25 4
  SELECTION 0 0
  SELECTION2 0 0
  MASTERAUTOMODE 0
  MASTERTRACKHEIGHT 0 0
  MASTERPEAKCOL 16576
  MASTERMUTESOLO 0
  MASTERTRACKVIEW 0 0.6667 0.5 0.5 0 0 0 0 0 0 0 0 0 0
  MASTERHWOUT 0 0 1 0 0 0 0 -1
  MASTER_NCH 2 2
  MASTER_VOLUME 1 0 -1 -1 1
  MASTER_PANMODE 3
  MASTER_PANLAWFLAGS 3
  MASTER_FX 1
  MASTER_SEL 0
  <MASTERPLAYSPEEDENV
    EGUID {7E6FAC60-E5C0-43E6-BA66-54893BADCE73}
    ACT 0 -1
    VIS 0 1 1
    LANEHEIGHT 0 0
    ARM 0
    DEFSHAPE 0 -1 -1
  >
  <TEMPOENVEX
    EGUID {7C63C102-1AB3-45C8-97AD-BDA33E1FE327}
    ACT 1 -1
    VIS 1 0 1
    LANEHEIGHT 0 0
    ARM 0
    DEFSHAPE 1 -1 -1
  >
  <PROJBAY
  >
  <TRACK {62C14A25-53EB-487E-ACAF-D84F8F0CD8F0}
    NAME "NES - Pulse 1 [ch0]"
    PEAKCOL 16576606
    BEAT -1
    AUTOMODE 0
    PANLAWFLAGS 3
    VOLPAN 1 0 -1 -1 1
    MUTESOLO 0 0 0
    IPHASE 0
    PLAYOFFS 0 1
    ISBUS 0 0
    BUSCOMP 0 0 0 0 0
    SHOWINMIX 1 0.6667 0.5 1 0.5 0 0 0
    FIXEDLANES 9 0 0 0 0
    SEL 1
    REC 1 5088 1 0 0 0 0 0
    VU 2
    TRACKHEIGHT 0 0 0 0 0 0 0
    INQ 0 0 0 0.5 100 0 0 100
    NCHAN 2
    FX 1
    TRACKID {62C14A25-53EB-487E-ACAF-D84F8F0CD8F0}
    PERF 0
    MIDIOUT -1
    MAINSEND 1 0
    <FXCHAIN
      WNDRECT 24 52 700 560
      SHOW 0
      LASTSEL 0
      DOCKED 0
      BYPASS 0 0 0
      <JS "ReapNES Studio/ReapNES_Console.jsfx" ""
        2 15 1 10 80 10 100 2 1 15 1 5 60 10 80 1 1 0 50 0 0 15 1 0 100 0 0 0.500000 0.500000 0.400000 0.300000 0.800000 0 1 0 0 0 0 - - - - - - - - - - - - - - - - - - - - - - - - - -
      >
      FLOATPOS 0 0 0 0
      FXID {8E86D79E-5C8F-498F-9525-88C718E0E59D}
      WAK 0 0
    >
    <ITEM
      POSITION 0
      LENGTH 70.54432560000001
      LOOP 0
      ALLTAKES 0
      FADEIN 0 0 0 0 0 0 0
      FADEOUT 0 0 0 0 0 0 0
      MUTE 0 0
      SEL 0
      IGUID {41ADE644-7A9B-4CAB-B8F4-985F81F73230}
      <SOURCE MIDI
        HASDATA 1 480 QN
        CCINTERP 32
        E 0 c0 50
        E 0 b0 0c 60
        E 0 b0 0b 2a
        E 0 90 54 2a
        E 16 b0 0b 33
        E 16 b0 0b 3b
        E 16 b0 0b 44
        E 16 b0 0b 3b
        E 16 b0 0b 33
        E 16 b0 0b 2a
        E 16 b0 0b 22
        E 0 80 54 00
        E 0 90 4f 22
        E 16 b0 0b 2a
        E 16 b0 0b 33
        E 16 b0 0b 3b
        E 16 b0 0b 44
        E 16 b0 0b 3b
        E 16 b0 0b 33
        E 16 b0 0b 2a
        E 16 b0 0b 22
        E 0 80 4f 00
        E 0 90 54 22
        E 16 b0 0b 2a
        E 16 b0 0b 33
        E 16 b0 0b 3b
        E 16 b0 0b 44
        E 16 b0 0b 3b
        E 16 b0 0b 33
        E 16 b0 0b 2a
        E 16 b0 0b 22
        E 0 80 54 00
        E 0 90 58 22
        E 16 b0 0b 2a
        E 16 b0 0b 33
        E 16 b0 0b 3b
        E 16 b0 0b 44
        E 16 b0 0b 3b
        E 16 b0 0b 33
        E 16 b0 0b 2a
        E 16 b0 0b 22
        E 0 80 58 00
        E 0 90 54 22
        E 16 b0 0b 2a
        E 16 b0 0b 33
        E 16 b0 0b 3b
        E 16 b0 0b 44
        E 16 b0 0b 3b
        E 16 b0 0b 33
        E 16 b0 0b 2a
        E 16 b0 0b 22
        E 0 80 54 00
        E 0 90 58 22
        E 16 b0 0b 2a
        E 16 b0 0b 33
        E 16 b0 0b 3b
        E 16 b0 0b 44
        E 16 b0 0b 3b
        E 16 b0 0b 33
        E 16 b0 0b 2a
        E 16 b0 0b 22
        E 0 80 58 00
        E 0 90 5b 22
        E 16 b0 0b 2a
        E 16 b0 0b 33
        E 16 b0 0b 3b
        E 16 b0 0b 44
        E 16 b0 0b 3b
        E 16 b0 0b 33
        E 16 b0 0b 2a
        E 16 80 5b 00
        E 256 b0 0b 22
        E 0 90 58 22
        E 16 b0 0b 2a
        E 16 b0 0b 33
        E 16 b0 0b 3b
        E 16 b0 0b 44
        E 16 b0 0b 3b
        E 16 b0 0b 33
        E 16 b0 0b 2a
        E 16 80 58 00
        E 128 b0 0b 22
        E 0 90 54 22
        E 16 b0 0b 2a
        E 16 b0 0b 33
        E 16 b0 0b 3b
        E 16 b0 0b 44
        E 16 b0 0b 3b
        E 16 b0 0b 33
        E 16 b0 0b 2a
        E 16 b0 0b 22
        E 0 80 54 00
        E 0 90 59 22
        E 16 b0 0b 2a
        E 16 b0 0b 33
        E 16 b0 0b 3b
        E 16 b0 0b 44
        E 16 b0 0b 3b
        E 16 b0 0b 33
        E 16 b0 0b 2a
        E 16 80 59 00
        E 256 b0 0b 22
        E 0 90 58 22
        E 16 b0 0b 2a
        E 16 b0 0b 33
        E 16 b0 0b 3b
        E 16 b0 0b 44
        E 16 b0 0b 3b
        E 16 b0 0b 33
        E 16 b0 0b 2a
        E 16 80 58 00
        E 128 b0 0b 22
        E 0 90 54 22
        E 16 b0 0b 2a
        E 16 b0 0b 33
        E 16 b0 0b 3b
        E 16 b0 0b 44
        E 16 b0 0b 3b
        E 16 b0 0b 33
        E 16 b0 0b 2a
        E 16 b0 0b 22
        E 0 80 54 00
        E 0 90 51 22
        E 16 b0 0b 2a
        E 16 b0 0b 33
        E 16 b0 0b 3b
        E 16 b0 0b 44
        E 16 b0 0b 3b
        E 16 b0 0b 33
        E 16 b0 0b 2a
        E 16 b0 0b 33
        E 256 b0 0b 22
        E 0 80 51 00
        E 0 90 53 22
        E 16 b0 0b 2a
        E 16 b0 0b 33
        E 16 b0 0b 3b
        E 16 b0 0b 44
        E 16 b0 0b 3b
        E 16 b0 0b 33
        E 16 b0 0b 2a
        E 16 b0 0b 33
        E 256 b0 0b 22
        E 0 80 53 00
        E 0 90 54 22
        E 16 b0 0b 2a
        E 16 b0 0b 33
        E 16 b0 0b 3b
        E 16 b0 0b 44
        E 16 b0 0b 3b
        E 16 b0 0b 33
        E 16 b0 0b 2a
        E 16 b0 0b 22
        E 0 80 54 00
        E 0 90 4f 22
        E 16 b0 0b 2a
        E 16 b0 0b 33
        E 16 b0 0b 3b
        E 16 b0 0b 44
        E 16 b0 0b 3b
        E 16 b0 0b 33
        E 16 b0 0b 2a
        E 16 b0 0b 22
        E 0 80 4f 00
        E 0 90 54 22
        E 16 b0 0b 2a
        E 16 b0 0b 33
        E 16 b0 0b 3b
        E 16 b0 0b 44
        E 16 b0 0b 3b
        E 16 b0 0b 33
        E 16 b0 0b 2a
        E 16 b0 0b 22
        E 0 80 54 00
        E 0 90 58 22
        E 16 b0 0b 2a
        E 16 b0 0b 33
        E 16 b0 0b 3b
        E 16 b0 0b 44
        E 16 b0 0b 3b
        E 16 b0 0b 33
        E 16 b0 0b 2a
        E 16 b0 0b 22
        E 0 80 58 00
        E 0 90 54 22
        E 16 b0 0b 2a
        E 16 b0 0b 33
        E 16 b0 0b 3b
        E 16 b0 0b 44
        E 16 b0 0b 3b
        E 16 b0 0b 33
        E 16 b0 0b 2a
        E 16 b0 0b 22
        E 0 80 54 00
        E 0 90 58 22
        E 16 b0 0b 2a
        E 16 b0 0b 33
        E 16 b0 0b 3b
        E 16 b0 0b 44
        E 16 b0 0b 3b
        E 16 b0 0b 33
        E 16 b0 0b 2a
        E 16 b0 0b 22
        E 0 80 58 00
        E 0 90 5b 22
        E 16 b0 0b 2a
        E 16 b0 0b 33
        E 16 b0 0b 3b
        E 16 b0 0b 44
        E 16 b0 0b 3b
        E 16 b0 0b 33
        E 16 b0 0b 2a
        E 16 80 5b 00
        E 256 b0 0b 22
        E 0 90 5b 22
        E 16 b0 0b 2a
        E 16 b0 0b 33
        E 16 b0 0b 3b
        E 16 b0 0b 44
        E 16 b0 0b 3b
        E 16 b0 0b 33
        E 16 b0 0b 2a
        E 16 80 5b 00
        E 128 b0 0b 22
        E 0 90 54 22
        E 16 b0 0b 2a
        E 16 b0 0b 33
        E 16 b0 0b 3b
        E 16 b0 0b 44
        E 16 b0 0b 3b
        E 16 b0 0b 33
        E 16 b0 0b 2a
        E 16 b0 0b 22
        E 0 80 54 00
        E 0 90 51 22
        E 16 b0 0b 2a
        E 16 b0 0b 33
        E 16 b0 0b 3b
        E 16 b0 0b 44
        E 16 b0 0b 3b
        E 16 b0 0b 33
        E 16 b0 0b 2a
        E 16 b0 0b 33
        E 256 b0 0b 22
        E 0 80 51 00
        E 0 90 53 22
        E 16 b0 0b 2a
        E 16 b0 0b 33
        E 16 b0 0b 3b
        E 16 b0 0b 44
        E 16 b0 0b 3b
        E 16 b0 0b 33
        E 16 b0 0b 2a
        E 16 b0 0b 33
        E 256 b0 0b 22
        E 0 80 53 00
        E 0 90 54 22
        E 16 b0 0b 2a
        E 16 b0 0b 33
        E 16 b0 0b 3b
        E 16 b0 0b 44
        E 16 b0 0b 3b
        E 16 b0 0b 33
        E 16 b0 0b 2a
        E 16 b0 0b 33
        E 256 b0 0b 22
        E 0 80 54 00
        E 0 90 56 22
        E 16 b0 0b 2a
        E 16 b0 0b 33
        E 16 b0 0b 3b
        E 16 b0 0b 44
        E 16 b0 0b 3b
        E 16 b0 0b 33
        E 16 b0 0b 2a
        E 16 b0 0b 33
        E 256 b0 0b 22
        E 0 80 56 00
        E 0 90 4f 22
        E 16 b0 0b 2a
        E 16 b0 0b 33
        E 16 b0 0b 3b
        E 16 b0 0b 44
        E 16 b0 0b 3b
        E 16 b0 0b 33
        E 16 b0 0b 2a
        E 16 b0 0b 22
        E 16 b0 0b 2a
        E 16 b0 0b 33
        E 16 b0 0b 3b
        E 16 b0 0b 44
        E 16 b0 0b 3b
        E 16 b0 0b 33
        E 16 b0 0b 2a
        E 16 b0 0b 22
        E 16 b0 0b 2a
        E 16 b0 0b 33
        E 16 b0 0b 3b
        E 16 b0 0b 44
        E 16 b0 0b 3b
        E 16 b0 0b 33
        E 16 b0 0b 2a
        E 16 b0 0b 22
        E 16 b0 0b 2a
        E 16 b0 0b 33
        E 16 b0 0b 3b
        E 16 b0 0b 44
        E 16 b0 0b 3b
        E 16 b0 0b 33
        E 16 b0 0b 2a
        E 16 b0 0b 22
        E 16 b0 0b 2a
        E 16 b0 0b 33
        E 16 b0 0b 3b
        E 16 b0 0b 44
        E 16 b0 0b 3b
        E 16 b0 0b 33
        E 16 b0 0b 2a
        E 16 b0 0b 22
        E 16 b0 0b 2a
        E 16 b0 0b 33
        E 16 b0 0b 3b
        E 16 b0 0b 44
        E 16 b0 0b 3b
        E 16 b0 0b 33
        E 16 b0 0b 2a
        E 16 b0 0b 22
        E 16 b0 0b 2a
        E 16 b0 0b 33
        E 16 b0 0b 3b
        E 16 b0 0b 44
        E 16 b0 0b 3b
        E 16 b0 0b 33
        E 16 b0 0b 2a
        E 16 b0 0b 22
        E 16 b0 0b 2a
        E 16 b0 0b 33
        E 16 b0 0b 3b
        E 16 b0 0b 44
        E 16 b0 0b 3b
        E 16 b0 0b 33
        E 16 b0 0b 2a
        E 16 b0 0b 22
        E 16 b0 0b 2a
        E 16 b0 0b 33
        E 16 b0 0b 3b
        E 16 b0 0b 44
        E 16 b0 0b 3b
        E 16 b0 0b 33
        E 16 b0 0b 2a
        E 16 b0 0b 22
        E 16 b0 0b 2a
        E 16 b0 0b 33
        E 16 b0 0b 3b
        E 16 b0 0b 44
        E 16 b0 0b 3b
        E 16 b0 0b 33
        E 16 b0 0b 2a
        E 16 b0 0b 22
        E 16 b0 0b 2a
        E 16 b0 0b 33
        E 16 b0 0b 3b
        E 16 b0 0b 44
        E 16 b0 0b 3b
        E 16 b0 0b 33
        E 16 b0 0b 2a
        E 16 b0 0b 22
        E 16 b0 0b 2a
        E 16 b0 0b 33
        E 16 b0 0b 3b
        E 16 b0 0b 44
        E 16 b0 0b 3b
        E 16 b0 0b 33
        E 16 b0 0b 2a
        E 16 b0 0b 22
        E 16 b0 0b 2a
        E 16 b0 0b 33
        E 16 b0 0b 3b
        E 16 b0 0b 44
        E 16 b0 0b 3b
        E 16 b0 0b 33
        E 16 b0 0b 2a
        E 16 b0 0b 22
        E 16 b0 0b 2a
        E 16 b0 0b 33
        E 16 b0 0b 3b
        E 16 b0 0b 44
        E 16 b0 0b 3b
        E 16 b0 0b 33
        E 16 b0 0b 2a
        E 16 b0 0b 22
        E 16 b0 0b 2a
        E 16 b0 0b 33
        E 16 b0 0b 3b
        E 16 b0 0b 44
        E 16 b0 0b 3b
        E 16 b0 0b 33
        E 16 b0 0b 2a
        E 16 b0 0b 22
        E 16 b0 0b 2a
        E 16 b0 0b 33
        E 16 b0 0b 3b
        E 16 b0 0b 44
        E 16 b0 0b 3b
        E 16 b0 0b 33
        E 16 b0 0b 2a
        E 16 b0 0b 22
        E 16 b0 0b 2a
        E 16 b0 0b 33
        E 16 b0 0b 3b
        E 16 b0 0b 44
        E 16 b0 0b 3b
        E 16 b0 0b 33
        E 16 b0 0b 2a
        E 16 b0 0b 22
        E 16 b0 0b 2a
        E 16 b0 0b 33
        E 16 b0 0b 3b
        E 16 b0 0b 44
        E 16 b0 0b 3b
        E 16 b0 0b 33
        E 16 b0 0b 2a
        E 16 b0 0b 22
        E 16 b0 0b 2a
        E 16 b0 0b 33
        E 16 b0 0b 3b
        E 16 b0 0b 44
        E 16 b0 0b 3b
        E 16 b0 0b 33
        E 16 b0 0b 2a
        E 16 b0 0b 22
        E 16 b0 0b 2a
        E 16 b0 0b 33
        E 16 b0 0b 3b
        E 16 b0 0b 44
        E 16 b0 0b 3b
        E 16 b0 0b 33
        E 16 b0 0b 2a
        E 16 b0 0b 22
        E 16 b0 0b 2a
        E 16 b0 0b 33
        E 16 b0 0b 3b
        E 16 b0 0b 44
        E 16 b0 0b 3b
        E 16 b0 0b 33
        E 16 b0 0b 2a
        E 16 b0 0b 22
        E 16 b0 0b 2a
        E 16 b0 0b 33
        E 16 b0 0b 3b
        E 16 b0 0b 44
        E 16 b0 0b 3b
        E 16 b0 0b 33
        E 16 b0 0b 2a
        E 16 b0 0b 22
        E 16 b0 0b 2a
        E 16 b0 0b 33
        E 16 b0 0b 3b
        E 16 b0 0b 44
        E 16 b0 0b 3b
        E 16 b0 0b 33
        E 16 b0 0b 2a
        E 16 b0 0b 22
        E 16 b0 0b 2a
        E 16 b0 0b 33
        E 16 b0 0b 3b
        E 16 b0 0b 44
        E 16 b0 0b 3b
        E 16 b0 0b 33
        E 16 b0 0b 2a
        E 16 b0 0b 22
        E 16 b0 0b 2a
        E 16 b0 0b 33
        E 16 b0 0b 3b
        E 16 b0 0b 44
        E 16 b0 0b 3b
        E 16 b0 0b 33
        E 16 b0 0b 2a
        E 16 b0 0b 22
        E 16 b0 0b 2a
        E 16 b0 0b 33
        E 16 b0 0b 3b
        E 16 b0 0b 44
        E 16 b0 0b 3b
        E 16 b0 0b 33
        E 16 b0 0b 2a
        E 16 b0 0b 22
        E 16 b0 0b 2a
        E 16 b0 0b 33
        E 16 b0 0b 3b
        E 16 b0 0b 44
        E 16 b0 0b 3b
        E 16 b0 0b 33
        E 16 b0 0b 2a
        E 16 b0 0b 22
        E 16 b0 0b 2a
        E 16 b0 0b 33
        E 16 b0 0b 3b
        E 16 b0 0b 44
        E 16 b0 0b 3b
        E 16 b0 0b 33
        E 16 b0 0b 2a
        E 16 b0 0b 22
        E 16 b0 0b 2a
        E 16 b0 0b 33
        E 16 b0 0b 3b
        E 16 b0 0b 44
        E 16 b0 0b 3b
        E 16 b0 0b 33
        E 16 b0 0b 2a
        E 16 b0 0b 22
        E 16 b0 0b 2a
        E 16 b0 0b 33
        E 16 b0 0b 3b
        E 16 b0 0b 44
        E 16 b0 0b 3b
        E 16 b0 0b 33
        E 16 b0 0b 2a
        E 16 b0 0b 22
        E 16 b0 0b 2a
        E 16 b0 0b 33
        E 16 b0 0b 3b
        E 16 b0 0b 44
        E 16 b0 0b 3b
        E 16 b0 0b 33
        E 16 b0 0b 2a
        E 16 b0 0b 22
        E 16 b0 0b 2a
        E 16 b0 0b 33
        E 16 b0 0b 3b
        E 16 b0 0b 44
        E 16 b0 0b 3b
        E 16 b0 0b 33
        E 16 b0 0b 2a
        E 16 b0 0b 22
        E 16 b0 0b 2a
        E 16 b0 0b 33
        E 16 b0 0b 3b
        E 16 b0 0b 44
        E 16 b0 0b 3b
        E 16 b0 0b 33
        E 16 b0 0b 2a
        E 16 b0 0b 22
        E 16 b0 0b 2a
        E 16 b0 0b 33
        E 16 b0 0b 3b
        E 16 b0 0b 44
        E 16 b0 0b 3b
        E 16 b0 0b 33
        E 16 b0 0b 2a
        E 16 b0 0b 22
        E 16 b0 0b 2a
        E 16 b0 0b 33
        E 16 b0 0b 3b
        E 16 b0 0b 44
        E 16 b0 0b 3b
        E 16 b0 0b 33
        E 16 b0 0b 2a
        E 16 b0 0b 22
        E 16 b0 0b 2a
        E 16 b0 0b 33
        E 16 b0 0b 3b
        E 16 b0 0b 44
        E 16 b0 0b 3b
        E 16 b0 0b 33
        E 16 b0 0b 2a
        E 16 b0 0b 22
        E 16 b0 0b 2a
        E 16 b0 0b 33
        E 16 b0 0b 3b
        E 16 b0 0b 44
        E 16 b0 0b 3b
        E 16 b0 0b 33
        E 16 b0 0b 2a
        E 16 b0 0b 22
        E 16 b0 0b 2a
        E 16 b0 0b 33
        E 16 b0 0b 3b
        E 16 b0 0b 44
        E 16 b0 0b 3b
        E 16 b0 0b 33
        E 16 b0 0b 2a
        E 16 b0 0b 22
        E 16 b0 0b 2a
        E 16 b0 0b 33
        E 16 b0 0b 3b
        E 16 b0 0b 44
        E 16 b0 0b 3b
        E 16 b0 0b 33
        E 16 b0 0b 2a
        E 16 b0 0b 22
        E 16 b0 0b 2a
        E 16 b0 0b 33
        E 16 b0 0b 3b
        E 16 b0 0b 44
        E 16 b0 0b 3b
        E 16 b0 0b 33
        E 16 b0 0b 2a
        E 16 b0 0b 22
        E 16 b0 0b 2a
        E 16 b0 0b 33
        E 16 b0 0b 3b
        E 16 b0 0b 44
        E 16 b0 0b 3b
        E 16 b0 0b 33
        E 16 b0 0b 2a
        E 16 b0 0b 22
        E 16 b0 0b 2a
        E 16 b0 0b 33
        E 16 b0 0b 3b
        E 16 b0 0b 44
        E 16 b0 0b 3b
        E 16 b0 0b 33
        E 16 b0 0b 2a
        E 16 b0 0b 22
        E 16 b0 0b 2a
        E 16 b0 0b 33
        E 16 b0 0b 3b
        E 16 b0 0b 44
        E 16 b0 0b 3b
        E 16 b0 0b 33
        E 16 b0 0b 2a
        E 16 b0 0b 22
        E 16 b0 0b 2a
        E 16 b0 0b 33
        E 16 b0 0b 3b
        E 16 b0 0b 44
        E 16 b0 0b 3b
        E 16 b0 0b 33
        E 16 b0 0b 2a
        E 16 b0 0b 22
        E 16 b0 0b 2a
        E 16 b0 0b 33
        E 16 b0 0b 3b
        E 16 b0 0b 44
        E 16 b0 0b 3b
        E 16 b0 0b 33
        E 16 b0 0b 2a
        E 16 b0 0b 22
        E 16 b0 0b 2a
        E 16 b0 0b 33
        E 16 b0 0b 3b
        E 16 b0 0b 44
        E 16 b0 0b 3b
        E 16 b0 0b 33
        E 16 b0 0b 2a
        E 16 b0 0b 22
        E 16 b0 0b 2a
        E 16 b0 0b 33
        E 16 b0 0b 3b
        E 16 b0 0b 44
        E 16 b0 0b 3b
        E 16 b0 0b 33
        E 16 b0 0b 2a
        E 16 b0 0b 22
        E 16 b0 0b 2a
        E 16 b0 0b 33
        E 16 b0 0b 3b
        E 16 b0 0b 44
        E 16 b0 0b 3b
        E 16 b0 0b 33
        E 16 b0 0b 2a
        E 16 b0 0b 22
        E 0 80 4f 00
        E 0 90 24 22
        E 16 b0 0b 2a
        E 16 b0 0b 33
        E 16 b0 0b 3b
        E 16 b0 0b 44
        E 16 b0 0b 3b
        E 16 b0 0b 33
        E 16 b0 0b 2a
        E 16 b0 0b 33
        E 256 80 24 00
        E 1152 b0 0b 22
        E 0 90 37 22
        E 16 b0 0b 2a
        E 16 b0 0b 33
        E 16 b0 0b 3b
        E 16 b0 0b 44
        E 16 b0 0b 3b
        E 16 b0 0b 33
        E 16 b0 0b 2a
        E 16 b0 0b 33
        E 256 b0 0b 22
        E 16 b0 0b 2a
        E 16 b0 0b 33
        E 16 b0 0b 3b
        E 16 b0 0b 44
        E 16 b0 0b 3b
        E 16 b0 0b 33
        E 16 b0 0b 2a
        E 16 80 37 00
        E 128 b0 0b 22
        E 0 90 37 22
        E 16 b0 0b 2a
        E 16 b0 0b 33
        E 16 b0 0b 3b
        E 16 b0 0b 44
        E 16 b0 0b 3b
        E 16 b0 0b 33
        E 16 b0 0b 2a
        E 16 b0 0b 22
        E 0 80 37 00
        E 0 90 35 22
        E 16 b0 0b 2a
        E 16 b0 0b 33
        E 16 b0 0b 3b
        E 16 b0 0b 44
        E 16 b0 0b 3b
        E 16 b0 0b 33
        E 16 b0 0b 2a
        E 16 b0 0b 33
        E 256 b0 0b 22
        E 0 80 35 00
        E 0 90 39 22
        E 16 b0 0b 2a
        E 16 b0 0b 33
        E 16 b0 0b 3b
        E 16 b0 0b 44
        E 16 b0 0b 3b
        E 16 b0 0b 33
        E 16 b0 0b 2a
        E 16 b0 0b 33
        E 256 b0 0b 22
        E 0 80 39 00
        E 0 90 24 22
        E 16 b0 0b 2a
        E 16 b0 0b 33
        E 16 b0 0b 3b
        E 16 b0 0b 44
        E 16 b0 0b 3b
        E 16 b0 0b 33
        E 16 b0 0b 2a
        E 16 b0 0b 33
        E 256 80 24 00
        E 1152 b0 0b 22
        E 0 90 35 22
        E 16 b0 0b 2a
        E 16 b0 0b 33
        E 16 b0 0b 3b
        E 16 b0 0b 44
        E 16 b0 0b 3b
        E 16 b0 0b 33
        E 16 b0 0b 2a
        E 16 b0 0b 33
        E 256 b0 0b 22
        E 0 80 35 00
        E 0 90 37 22
        E 16 b0 0b 2a
        E 16 b0 0b 33
        E 16 b0 0b 3b
        E 16 b0 0b 44
        E 16 b0 0b 3b
        E 16 b0 0b 33
        E 16 b0 0b 2a
        E 16 b0 0b 33
        E 256 b0 0b 22
        E 0 80 37 00
        E 0 90 38 22
        E 16 b0 0b 2a
        E 16 b0 0b 33
        E 16 b0 0b 3b
        E 16 b0 0b 44
        E 16 b0 0b 3b
        E 16 b0 0b 33
        E 16 b0 0b 2a
        E 16 b0 0b 33
        E 256 b0 0b 22
        E 16 b0 0b 2a
        E 16 b0 0b 33
        E 16 b0 0b 3b
        E 16 b0 0b 44
        E 16 b0 0b 3b
        E 16 b0 0b 33
        E 16 b0 0b 2a
        E 16 b0 0b 33
        E 256 b0 0b 22
        E 0 80 38 00
        E 0 90 3c 22
        E 16 b0 0b 2a
        E 16 b0 0b 33
        E 16 b0 0b 3b
        E 16 b0 0b 44
        E 16 b0 0b 3b
        E 16 b0 0b 33
        E 16 b0 0b 2a
        E 16 b0 0b 33
        E 640 b0 0b 22
        E 16 b0 0b 2a
        E 16 b0 0b 33
        E 16 b0 0b 3b
        E 16 b0 0b 44
        E 16 b0 0b 3b
        E 16 b0 0b 33
        E 16 b0 0b 2a
        E 16 b0 0b 33
        E 640 b0 0b 22
        E 16 b0 0b 2a
        E 16 b0 0b 33
        E 16 b0 0b 3b
        E 16 b0 0b 44
        E 16 b0 0b 3b
        E 16 b0 0b 33
        E 16 b0 0b 2a
        E 16 b0 0b 33
        E 640 b0 0b 22
        E 16 b0 0b 2a
        E 16 b0 0b 33
        E 16 b0 0b 3b
        E 16 b0 0b 44
        E 16 b0 0b 3b
        E 16 b0 0b 33
        E 16 b0 0b 2a
        E 16 b0 0b 33
        E 640 b0 0b 22
        E 16 b0 0b 2a
        E 16 b0 0b 33
        E 16 b0 0b 3b
        E 16 b0 0b 44
        E 16 b0 0b 3b
        E 16 b0 0b 33
        E 16 b0 0b 2a
        E 16 b0 0b 33
        E 1408 80 3c 00
        E 1536 b0 0b 22
        E 0 90 43 22
        E 16 b0 0b 2a
        E 16 b0 0b 33
        E 16 b0 0b 3b
        E 16 b0 0b 44
        E 16 b0 0b 3b
        E 16 b0 0b 33
        E 16 b0 0b 2a
        E 16 b0 0b 22
        E 0 80 43 00
        E 0 90 37 22
        E 16 b0 0b 2a
        E 16 b0 0b 33
        E 16 b0 0b 3b
        E 16 b0 0b 44
        E 16 b0 0b 3b
        E 16 b0 0b 33
        E 16 b0 0b 2a
        E 16 b0 0b 22
        E 0 80 37 00
        E 0 90 3b 22
        E 16 b0 0b 2a
        E 16 b0 0b 33
        E 16 b0 0b 3b
        E 16 b0 0b 44
        E 16 b0 0b 3b
        E 16 b0 0b 33
        E 16 b0 0b 2a
        E 16 b0 0b 22
        E 0 80 3b 00
        E 0 90 3e 22
        E 16 b0 0b 2a
        E 16 b0 0b 33
        E 16 b0 0b 3b
        E 16 b0 0b 44
        E 16 b0 0b 3b
        E 16 b0 0b 33
        E 16 b0 0b 2a
        E 16 b0 0b 22
        E 0 80 3e 00
        E 0 90 3b 22
        E 16 b0 0b 2a
        E 16 b0 0b 33
        E 16 b0 0b 3b
        E 16 b0 0b 44
        E 16 b0 0b 3b
        E 16 b0 0b 33
        E 16 b0 0b 2a
        E 16 b0 0b 22
        E 0 80 3b 00
        E 0 90 3e 22
        E 16 b0 0b 2a
        E 16 b0 0b 33
        E 16 b0 0b 3b
        E 16 b0 0b 44
        E 16 b0 0b 3b
        E 16 b0 0b 33
        E 16 b0 0b 2a
        E 16 b0 0b 22
        E 0 80 3e 00
        E 0 90 43 22
        E 16 b0 0b 2a
        E 16 b0 0b 33
        E 16 b0 0b 3b
        E 16 b0 0b 44
        E 16 b0 0b 3b
        E 16 b0 0b 33
        E 16 b0 0b 2a
        E 16 b0 0b 33
        E 256 b0 0b 22
        E 0 80 43 00
        E 0 90 3e 22
        E 16 b0 0b 2a
        E 16 b0 0b 33
        E 16 b0 0b 3b
        E 16 b0 0b 44
        E 16 b0 0b 3b
        E 16 b0 0b 33
        E 16 b0 0b 2a
        E 16 b0 0b 33
        E 256 b0 0b 22
        E 0 80 3e 00
        E 0 90 43 22
        E 16 b0 0b 2a
        E 16 b0 0b 33
        E 16 b0 0b 3b
        E 16 b0 0b 44
        E 16 b0 0b 3b
        E 16 b0 0b 33
        E 16 b0 0b 2a
        E 16 b0 0b 22
        E 16 b0 0b 2a
        E 16 b0 0b 33
        E 16 b0 0b 3b
        E 16 b0 0b 44
        E 16 b0 0b 3b
        E 16 b0 0b 33
        E 16 b0 0b 2a
        E 16 80 43 00
        E 128 b0 0b 22
        E 0 90 3e 22
        E 16 b0 0b 2a
        E 16 b0 0b 33
        E 16 b0 0b 3b
        E 16 b0 0b 44
        E 16 b0 0b 3b
        E 16 b0 0b 33
        E 16 b0 0b 2a
        E 16 80 3e 00
        E 128 b0 0b 22
        E 0 90 3b 22
        E 16 b0 0b 2a
        E 16 b0 0b 33
        E 16 b0 0b 3b
        E 16 b0 0b 44
        E 16 b0 0b 3b
        E 16 b0 0b 33
        E 16 b0 0b 2a
        E 16 b0 0b 22
        E 0 80 3b 00
        E 0 90 3e 22
        E 16 b0 0b 2a
        E 16 b0 0b 33
        E 16 b0 0b 3b
        E 16 b0 0b 44
        E 16 b0 0b 3b
        E 16 b0 0b 33
        E 16 b0 0b 2a
        E 16 b0 0b 33
        E 256 b0 0b 22
        E 0 80 3e 00
        E 0 90 3b 22
        E 16 b0 0b 2a
        E 16 b0 0b 33
        E 16 b0 0b 3b
        E 16 b0 0b 44
        E 16 b0 0b 3b
        E 16 b0 0b 33
        E 16 b0 0b 2a
        E 16 b0 0b 33
        E 256 b0 0b 22
        E 0 80 3b 00
        E 0 90 41 22
        E 16 b0 0b 2a
        E 16 b0 0b 33
        E 16 b0 0b 3b
        E 16 b0 0b 44
        E 16 b0 0b 3b
        E 16 b0 0b 33
        E 16 b0 0b 2a
        E 16 b0 0b 22
        E 0 80 41 00
        E 0 90 35 22
        E 16 b0 0b 2a
        E 16 b0 0b 33
        E 16 b0 0b 3b
        E 16 b0 0b 44
        E 16 b0 0b 3b
        E 16 b0 0b 33
        E 16 b0 0b 2a
        E 16 b0 0b 22
        E 0 80 35 00
        E 0 90 39 22
        E 16 b0 0b 2a
        E 16 b0 0b 33
        E 16 b0 0b 3b
        E 16 b0 0b 44
        E 16 b0 0b 3b
        E 16 b0 0b 33
        E 16 b0 0b 2a
        E 16 b0 0b 22
        E 0 80 39 00
        E 0 90 3c 22
        E 16 b0 0b 2a
        E 16 b0 0b 33
        E 16 b0 0b 3b
        E 16 b0 0b 44
        E 16 b0 0b 3b
        E 16 b0 0b 33
        E 16 b0 0b 2a
        E 16 b0 0b 22
        E 0 80 3c 00
        E 0 90 39 22
        E 16 b0 0b 2a
        E 16 b0 0b 33
        E 16 b0 0b 3b
        E 16 b0 0b 44
        E 16 b0 0b 3b
        E 16 b0 0b 33
        E 16 b0 0b 2a
        E 16 b0 0b 22
        E 0 80 39 00
        E 0 90 3c 22
        E 16 b0 0b 2a
        E 16 b0 0b 33
        E 16 b0 0b 3b
        E 16 b0 0b 44
        E 16 b0 0b 3b
        E 16 b0 0b 33
        E 16 b0 0b 2a
        E 16 b0 0b 22
        E 0 80 3c 00
        E 0 90 41 22
        E 16 b0 0b 2a
        E 16 b0 0b 33
        E 16 b0 0b 3b
        E 16 b0 0b 44
        E 16 b0 0b 3b
        E 16 b0 0b 33
        E 16 b0 0b 2a
        E 16 b0 0b 33
        E 256 b0 0b 22
        E 0 80 41 00
        E 0 90 3c 22
        E 16 b0 0b 2a
        E 16 b0 0b 33
        E 16 b0 0b 3b
        E 16 b0 0b 44
        E 16 b0 0b 3b
        E 16 b0 0b 33
        E 16 b0 0b 2a
        E 16 b0 0b 33
        E 256 b0 0b 22
        E 0 80 3c 00
        E 0 90 39 22
        E 16 b0 0b 2a
        E 16 b0 0b 33
        E 16 b0 0b 3b
        E 16 b0 0b 44
        E 16 b0 0b 3b
        E 16 b0 0b 33
        E 16 b0 0b 2a
        E 16 b0 0b 33
        E 256 b0 0b 22
        E 0 80 39 00
        E 0 90 3b 22
        E 16 b0 0b 2a
        E 16 b0 0b 33
        E 16 b0 0b 3b
        E 16 b0 0b 44
        E 16 b0 0b 3b
        E 16 b0 0b 33
        E 16 b0 0b 2a
        E 16 80 3b 00
        E 128 b0 0b 22
        E 0 90 3c 22
        E 16 b0 0b 2a
        E 16 b0 0b 33
        E 16 b0 0b 3b
        E 16 b0 0b 44
        E 16 b0 0b 3b
        E 16 b0 0b 33
        E 16 b0 0b 2a
        E 16 b0 0b 22
        E 0 80 3c 00
        E 0 90 41 22
        E 16 b0 0b 2a
        E 16 b0 0b 33
        E 16 b0 0b 3b
        E 16 b0 0b 44
        E 16 b0 0b 3b
        E 16 b0 0b 33
        E 16 b0 0b 2a
        E 16 b0 0b 33
        E 256 b0 0b 22
        E 0 80 41 00
        E 0 90 3c 22
        E 16 b0 0b 2a
        E 16 b0 0b 33
        E 16 b0 0b 3b
        E 16 b0 0b 44
        E 16 b0 0b 3b
        E 16 b0 0b 33
        E 16 b0 0b 2a
        E 16 b0 0b 33
        E 256 b0 0b 22
        E 0 80 3c 00
        E 0 90 43 22
        E 16 b0 0b 2a
        E 16 b0 0b 33
        E 16 b0 0b 3b
        E 16 b0 0b 44
        E 16 b0 0b 3b
        E 16 b0 0b 33
        E 16 b0 0b 2a
        E 16 b0 0b 22
        E 0 80 43 00
        E 0 90 37 22
        E 16 b0 0b 2a
        E 16 b0 0b 33
        E 16 b0 0b 3b
        E 16 b0 0b 44
        E 16 b0 0b 3b
        E 16 b0 0b 33
        E 16 b0 0b 2a
        E 16 b0 0b 22
        E 0 80 37 00
        E 0 90 3b 22
        E 16 b0 0b 2a
        E 16 b0 0b 33
        E 16 b0 0b 3b
        E 16 b0 0b 44
        E 16 b0 0b 3b
        E 16 b0 0b 33
        E 16 b0 0b 2a
        E 16 b0 0b 22
        E 0 80 3b 00
        E 0 90 3e 22
        E 16 b0 0b 2a
        E 16 b0 0b 33
        E 16 b0 0b 3b
        E 16 b0 0b 44
        E 16 b0 0b 3b
        E 16 b0 0b 33
        E 16 b0 0b 2a
        E 16 b0 0b 22
        E 0 80 3e 00
        E 0 90 3b 22
        E 16 b0 0b 2a
        E 16 b0 0b 33
        E 16 b0 0b 3b
        E 16 b0 0b 44
        E 16 b0 0b 3b
        E 16 b0 0b 33
        E 16 b0 0b 2a
        E 16 b0 0b 22
        E 0 80 3b 00
        E 0 90 3e 22
        E 16 b0 0b 2a
        E 16 b0 0b 33
        E 16 b0 0b 3b
        E 16 b0 0b 44
        E 16 b0 0b 3b
        E 16 b0 0b 33
        E 16 b0 0b 2a
        E 16 b0 0b 22
        E 0 80 3e 00
        E 0 90 43 22
        E 16 b0 0b 2a
        E 16 b0 0b 33
        E 16 b0 0b 3b
        E 16 b0 0b 44
        E 16 b0 0b 3b
        E 16 b0 0b 33
        E 16 b0 0b 2a
        E 16 b0 0b 33
        E 256 b0 0b 22
        E 0 80 43 00
        E 0 90 3e 22
        E 16 b0 0b 2a
        E 16 b0 0b 33
        E 16 b0 0b 3b
        E 16 b0 0b 44
        E 16 b0 0b 3b
        E 16 b0 0b 33
        E 16 b0 0b 2a
        E 16 b0 0b 33
        E 256 b0 0b 22
        E 0 80 3e 00
        E 0 90 43 22
        E 16 b0 0b 2a
        E 16 b0 0b 33
        E 16 b0 0b 3b
        E 16 b0 0b 44
        E 16 b0 0b 3b
        E 16 b0 0b 33
        E 16 b0 0b 2a
        E 16 b0 0b 22
        E 16 b0 0b 2a
        E 16 b0 0b 33
        E 16 b0 0b 3b
        E 16 b0 0b 44
        E 16 b0 0b 3b
        E 16 b0 0b 33
        E 16 b0 0b 2a
        E 16 80 43 00
        E 128 b0 0b 22
        E 0 90 3e 22
        E 16 b0 0b 2a
        E 16 b0 0b 33
        E 16 b0 0b 3b
        E 16 b0 0b 44
        E 16 b0 0b 3b
        E 16 b0 0b 33
        E 16 b0 0b 2a
        E 16 80 3e 00
        E 128 b0 0b 22
        E 0 90 3b 22
        E 16 b0 0b 2a
        E 16 b0 0b 33
        E 16 b0 0b 3b
        E 16 b0 0b 44
        E 16 b0 0b 3b
        E 16 b0 0b 33
        E 16 b0 0b 2a
        E 16 b0 0b 22
        E 0 80 3b 00
        E 0 90 3e 22
        E 16 b0 0b 2a
        E 16 b0 0b 33
        E 16 b0 0b 3b
        E 16 b0 0b 44
        E 16 b0 0b 3b
        E 16 b0 0b 33
        E 16 b0 0b 2a
        E 16 b0 0b 33
        E 256 b0 0b 22
        E 0 80 3e 00
        E 0 90 3b 22
        E 16 b0 0b 2a
        E 16 b0 0b 33
        E 16 b0 0b 3b
        E 16 b0 0b 44
        E 16 b0 0b 3b
        E 16 b0 0b 33
        E 16 b0 0b 2a
        E 16 b0 0b 33
        E 256 b0 0b 22
        E 0 80 3b 00
        E 0 90 41 22
        E 16 b0 0b 2a
        E 16 b0 0b 33
        E 16 b0 0b 3b
        E 16 b0 0b 44
        E 16 b0 0b 3b
        E 16 b0 0b 33
        E 16 b0 0b 2a
        E 16 b0 0b 22
        E 0 80 41 00
        E 0 90 35 22
        E 16 b0 0b 2a
        E 16 b0 0b 33
        E 16 b0 0b 3b
        E 16 b0 0b 44
        E 16 b0 0b 3b
        E 16 b0 0b 33
        E 16 b0 0b 2a
        E 16 b0 0b 22
        E 0 80 35 00
        E 0 90 39 22
        E 16 b0 0b 2a
        E 16 b0 0b 33
        E 16 b0 0b 3b
        E 16 b0 0b 44
        E 16 b0 0b 3b
        E 16 b0 0b 33
        E 16 b0 0b 2a
        E 16 b0 0b 22
        E 0 80 39 00
        E 0 90 3c 22
        E 16 b0 0b 2a
        E 16 b0 0b 33
        E 16 b0 0b 3b
        E 16 b0 0b 44
        E 16 b0 0b 3b
        E 16 b0 0b 33
        E 16 b0 0b 2a
        E 16 b0 0b 22
        E 0 80 3c 00
        E 0 90 39 22
        E 16 b0 0b 2a
        E 16 b0 0b 33
        E 16 b0 0b 3b
        E 16 b0 0b 44
        E 16 b0 0b 3b
        E 16 b0 0b 33
        E 16 b0 0b 2a
        E 16 b0 0b 22
        E 0 80 39 00
        E 0 90 3c 22
        E 16 b0 0b 2a
        E 16 b0 0b 33
        E 16 b0 0b 3b
        E 16 b0 0b 44
        E 16 b0 0b 3b
        E 16 b0 0b 33
        E 16 b0 0b 2a
        E 16 b0 0b 22
        E 0 80 3c 00
        E 0 90 41 22
        E 16 b0 0b 2a
        E 16 b0 0b 33
        E 16 b0 0b 3b
        E 16 b0 0b 44
        E 16 b0 0b 3b
        E 16 b0 0b 33
        E 16 b0 0b 2a
        E 16 b0 0b 33
        E 256 b0 0b 22
        E 0 80 41 00
        E 0 90 3c 22
        E 16 b0 0b 2a
        E 16 b0 0b 33
        E 16 b0 0b 3b
        E 16 b0 0b 44
        E 16 b0 0b 3b
        E 16 b0 0b 33
        E 16 b0 0b 2a
        E 16 b0 0b 33
        E 256 b0 0b 22
        E 0 80 3c 00
        E 0 90 39 22
        E 16 b0 0b 2a
        E 16 b0 0b 33
        E 16 b0 0b 3b
        E 16 b0 0b 44
        E 16 b0 0b 3b
        E 16 b0 0b 33
        E 16 b0 0b 2a
        E 16 b0 0b 33
        E 256 b0 0b 22
        E 0 80 39 00
        E 0 90 3b 22
        E 16 b0 0b 2a
        E 16 b0 0b 33
        E 16 b0 0b 3b
        E 16 b0 0b 44
        E 16 b0 0b 3b
        E 16 b0 0b 33
        E 16 b0 0b 2a
        E 16 80 3b 00
        E 128 b0 0b 22
        E 0 90 3c 22
        E 16 b0 0b 2a
        E 16 b0 0b 33
        E 16 b0 0b 3b
        E 16 b0 0b 44
        E 16 b0 0b 3b
        E 16 b0 0b 33
        E 16 b0 0b 2a
        E 16 b0 0b 22
        E 0 80 3c 00
        E 0 90 41 22
        E 16 b0 0b 2a
        E 16 b0 0b 33
        E 16 b0 0b 3b
        E 16 b0 0b 44
        E 16 b0 0b 3b
        E 16 b0 0b 33
        E 16 b0 0b 2a
        E 16 b0 0b 33
        E 256 b0 0b 22
        E 0 80 41 00
        E 0 90 3c 22
        E 16 b0 0b 2a
        E 16 b0 0b 33
        E 16 b0 0b 3b
        E 16 b0 0b 44
        E 16 b0 0b 3b
        E 16 b0 0b 33
        E 16 b0 0b 2a
        E 16 b0 0b 33
        E 256 b0 0b 22
        E 0 80 3c 00
        E 0 90 51 22
        E 16 b0 0b 2a
        E 16 b0 0b 33
        E 16 b0 0b 3b
        E 16 b0 0b 44
        E 16 b0 0b 3b
        E 16 b0 0b 33
        E 16 b0 0b 2a
        E 16 b0 0b 22
        E 0 80 51 00
        E 0 90 4a 22
        E 16 b0 0b 2a
        E 16 b0 0b 33
        E 16 b0 0b 3b
        E 16 b0 0b 44
        E 16 b0 0b 3b
        E 16 b0 0b 33
        E 16 b0 0b 2a
        E 16 b0 0b 22
        E 0 80 4a 00
        E 0 90 4d 22
        E 16 b0 0b 2a
        E 16 b0 0b 33
        E 16 b0 0b 3b
        E 16 b0 0b 44
        E 16 b0 0b 3b
        E 16 b0 0b 33
        E 16 b0 0b 2a
        E 16 b0 0b 22
        E 0 80 4d 00
        E 0 90 48 22
        E 16 b0 0b 2a
        E 16 b0 0b 33
        E 16 b0 0b 3b
        E 16 b0 0b 44
        E 16 b0 0b 3b
        E 16 b0 0b 33
        E 16 b0 0b 2a
        E 16 b0 0b 22
        E 0 80 48 00
        E 0 90 4a 22
        E 16 b0 0b 2a
        E 16 b0 0b 33
        E 16 b0 0b 3b
        E 16 b0 0b 44
        E 16 b0 0b 3b
        E 16 b0 0b 33
        E 16 b0 0b 2a
        E 16 b0 0b 22
        E 0 80 4a 00
        E 0 90 45 22
        E 16 b0 0b 2a
        E 16 b0 0b 33
        E 16 b0 0b 3b
        E 16 b0 0b 44
        E 16 b0 0b 3b
        E 16 b0 0b 33
        E 16 b0 0b 2a
        E 16 b0 0b 22
        E 0 80 45 00
        E 0 90 3c 22
        E 16 b0 0b 2a
        E 16 b0 0b 33
        E 16 b0 0b 3b
        E 16 b0 0b 44
        E 16 b0 0b 3b
        E 16 b0 0b 33
        E 16 b0 0b 2a
        E 16 b0 0b 22
        E 0 80 3c 00
        E 0 90 41 22
        E 16 b0 0b 2a
        E 16 b0 0b 33
        E 16 b0 0b 3b
        E 16 b0 0b 44
        E 16 b0 0b 3b
        E 16 b0 0b 33
        E 16 b0 0b 2a
        E 16 b0 0b 22
        E 0 80 41 00
        E 0 90 45 22
        E 16 b0 0b 2a
        E 16 b0 0b 33
        E 16 b0 0b 3b
        E 16 b0 0b 44
        E 16 b0 0b 3b
        E 16 b0 0b 33
        E 16 b0 0b 2a
        E 16 b0 0b 22
        E 0 80 45 00
        E 0 90 3e 22
        E 16 b0 0b 2a
        E 16 b0 0b 33
        E 16 b0 0b 3b
        E 16 b0 0b 44
        E 16 b0 0b 3b
        E 16 b0 0b 33
        E 16 b0 0b 2a
        E 16 b0 0b 22
        E 0 80 3e 00
        E 0 90 41 22
        E 16 b0 0b 2a
        E 16 b0 0b 33
        E 16 b0 0b 3b
        E 16 b0 0b 44
        E 16 b0 0b 3b
        E 16 b0 0b 33
        E 16 b0 0b 2a
        E 16 b0 0b 22
        E 0 80 41 00
        E 0 90 3c 22
        E 16 b0 0b 2a
        E 16 b0 0b 33
        E 16 b0 0b 3b
        E 16 b0 0b 44
        E 16 b0 0b 3b
        E 16 b0 0b 33
        E 16 b0 0b 2a
        E 16 b0 0b 22
        E 0 80 3c 00
        E 0 90 51 22
        E 16 b0 0b 2a
        E 16 b0 0b 33
        E 16 b0 0b 3b
        E 16 b0 0b 44
        E 16 b0 0b 3b
        E 16 b0 0b 33
        E 16 b0 0b 2a
        E 16 b0 0b 22
        E 0 80 51 00
        E 0 90 4a 22
        E 16 b0 0b 2a
        E 16 b0 0b 33
        E 16 b0 0b 3b
        E 16 b0 0b 44
        E 16 b0 0b 3b
        E 16 b0 0b 33
        E 16 b0 0b 2a
        E 16 b0 0b 22
        E 0 80 4a 00
        E 0 90 4d 22
        E 16 b0 0b 2a
        E 16 b0 0b 33
        E 16 b0 0b 3b
        E 16 b0 0b 44
        E 16 b0 0b 3b
        E 16 b0 0b 33
        E 16 b0 0b 2a
        E 16 b0 0b 22
        E 0 80 4d 00
        E 0 90 48 22
        E 16 b0 0b 2a
        E 16 b0 0b 33
        E 16 b0 0b 3b
        E 16 b0 0b 44
        E 16 b0 0b 3b
        E 16 b0 0b 33
        E 16 b0 0b 2a
        E 16 b0 0b 22
        E 0 80 48 00
        E 0 90 4a 22
        E 16 b0 0b 2a
        E 16 b0 0b 33
        E 16 b0 0b 3b
        E 16 b0 0b 44
        E 16 b0 0b 3b
        E 16 b0 0b 33
        E 16 b0 0b 2a
        E 16 b0 0b 22
        E 0 80 4a 00
        E 0 90 45 22
        E 16 b0 0b 2a
        E 16 b0 0b 33
        E 16 b0 0b 3b
        E 16 b0 0b 44
        E 16 b0 0b 3b
        E 16 b0 0b 33
        E 16 b0 0b 2a
        E 16 b0 0b 22
        E 0 80 45 00
        E 0 90 3c 22
        E 16 b0 0b 2a
        E 16 b0 0b 33
        E 16 b0 0b 3b
        E 16 b0 0b 44
        E 16 b0 0b 3b
        E 16 b0 0b 33
        E 16 b0 0b 2a
        E 16 b0 0b 22
        E 0 80 3c 00
        E 0 90 41 22
        E 16 b0 0b 2a
        E 16 b0 0b 33
        E 16 b0 0b 3b
        E 16 b0 0b 44
        E 16 b0 0b 3b
        E 16 b0 0b 33
        E 16 b0 0b 2a
        E 16 b0 0b 22
        E 0 80 41 00
        E 0 90 45 22
        E 16 b0 0b 2a
        E 16 b0 0b 33
        E 16 b0 0b 3b
        E 16 b0 0b 44
        E 16 b0 0b 3b
        E 16 b0 0b 33
        E 16 b0 0b 2a
        E 16 b0 0b 22
        E 0 80 45 00
        E 0 90 3e 22
        E 16 b0 0b 2a
        E 16 b0 0b 33
        E 16 b0 0b 3b
        E 16 b0 0b 44
        E 16 b0 0b 3b
        E 16 b0 0b 33
        E 16 b0 0b 2a
        E 16 b0 0b 22
        E 0 80 3e 00
        E 0 90 41 22
        E 16 b0 0b 2a
        E 16 b0 0b 33
        E 16 b0 0b 3b
        E 16 b0 0b 44
        E 16 b0 0b 3b
        E 16 b0 0b 33
        E 16 b0 0b 2a
        E 16 b0 0b 22
        E 0 80 41 00
        E 0 90 3c 22
        E 16 b0 0b 2a
        E 16 b0 0b 33
        E 16 b0 0b 3b
        E 16 b0 0b 44
        E 16 b0 0b 3b
        E 16 b0 0b 33
        E 16 b0 0b 2a
        E 16 b0 0b 22
        E 0 80 3c 00
        E 0 90 4d 22
        E 16 b0 0b 2a
        E 16 b0 0b 33
        E 16 b0 0b 3b
        E 16 b0 0b 44
        E 16 b0 0b 3b
        E 16 b0 0b 33
        E 16 b0 0b 2a
        E 16 b0 0b 22
        E 0 80 4d 00
        E 0 90 46 22
        E 16 b0 0b 2a
        E 16 b0 0b 33
        E 16 b0 0b 3b
        E 16 b0 0b 44
        E 16 b0 0b 3b
        E 16 b0 0b 33
        E 16 b0 0b 2a
        E 16 b0 0b 22
        E 0 80 46 00
        E 0 90 49 22
        E 16 b0 0b 2a
        E 16 b0 0b 33
        E 16 b0 0b 3b
        E 16 b0 0b 44
        E 16 b0 0b 3b
        E 16 b0 0b 33
        E 16 b0 0b 2a
        E 16 b0 0b 22
        E 0 80 49 00
        E 0 90 43 22
        E 16 b0 0b 2a
        E 16 b0 0b 33
        E 16 b0 0b 3b
        E 16 b0 0b 44
        E 16 b0 0b 3b
        E 16 b0 0b 33
        E 16 b0 0b 2a
        E 16 b0 0b 22
        E 0 80 43 00
        E 0 90 46 22
        E 16 b0 0b 2a
        E 16 b0 0b 33
        E 16 b0 0b 3b
        E 16 b0 0b 44
        E 16 b0 0b 3b
        E 16 b0 0b 33
        E 16 b0 0b 2a
        E 16 b0 0b 22
        E 0 80 46 00
        E 0 90 41 22
        E 16 b0 0b 2a
        E 16 b0 0b 33
        E 16 b0 0b 3b
        E 16 b0 0b 44
        E 16 b0 0b 3b
        E 16 b0 0b 33
        E 16 b0 0b 2a
        E 16 b0 0b 22
        E 0 80 41 00
        E 0 90 43 22
        E 16 b0 0b 2a
        E 16 b0 0b 33
        E 16 b0 0b 3b
        E 16 b0 0b 44
        E 16 b0 0b 3b
        E 16 b0 0b 33
        E 16 b0 0b 2a
        E 16 b0 0b 22
        E 0 80 43 00
        E 0 90 3d 22
        E 16 b0 0b 2a
        E 16 b0 0b 33
        E 16 b0 0b 3b
        E 16 b0 0b 44
        E 16 b0 0b 3b
        E 16 b0 0b 33
        E 16 b0 0b 2a
        E 16 b0 0b 22
        E 0 80 3d 00
        E 0 90 41 22
        E 16 b0 0b 2a
        E 16 b0 0b 33
        E 16 b0 0b 3b
        E 16 b0 0b 44
        E 16 b0 0b 3b
        E 16 b0 0b 33
        E 16 b0 0b 2a
        E 16 b0 0b 22
        E 0 80 41 00
        E 0 90 3a 22
        E 16 b0 0b 2a
        E 16 b0 0b 33
        E 16 b0 0b 3b
        E 16 b0 0b 44
        E 16 b0 0b 3b
        E 16 b0 0b 33
        E 16 b0 0b 2a
        E 16 b0 0b 22
        E 0 80 3a 00
        E 0 90 3d 22
        E 16 b0 0b 2a
        E 16 b0 0b 33
        E 16 b0 0b 3b
        E 16 b0 0b 44
        E 16 b0 0b 3b
        E 16 b0 0b 33
        E 16 b0 0b 2a
        E 16 b0 0b 22
        E 0 80 3d 00
        E 0 90 37 22
        E 16 b0 0b 2a
        E 16 b0 0b 33
        E 16 b0 0b 3b
        E 16 b0 0b 44
        E 16 b0 0b 3b
        E 16 b0 0b 33
        E 16 b0 0b 2a
        E 16 b0 0b 22
        E 0 80 37 00
        E 0 90 4d 22
        E 16 b0 0b 2a
        E 16 b0 0b 33
        E 16 b0 0b 3b
        E 16 b0 0b 44
        E 16 b0 0b 3b
        E 16 b0 0b 33
        E 16 b0 0b 2a
        E 16 b0 0b 22
        E 0 80 4d 00
        E 0 90 46 22
        E 16 b0 0b 2a
        E 16 b0 0b 33
        E 16 b0 0b 3b
        E 16 b0 0b 44
        E 16 b0 0b 3b
        E 16 b0 0b 33
        E 16 b0 0b 2a
        E 16 b0 0b 22
        E 0 80 46 00
        E 0 90 49 22
        E 16 b0 0b 2a
        E 16 b0 0b 33
        E 16 b0 0b 3b
        E 16 b0 0b 44
        E 16 b0 0b 3b
        E 16 b0 0b 33
        E 16 b0 0b 2a
        E 16 b0 0b 22
        E 0 80 49 00
        E 0 90 43 22
        E 16 b0 0b 2a
        E 16 b0 0b 33
        E 16 b0 0b 3b
        E 16 b0 0b 44
        E 16 b0 0b 3b
        E 16 b0 0b 33
        E 16 b0 0b 2a
        E 16 b0 0b 22
        E 0 80 43 00
        E 0 90 46 22
        E 16 b0 0b 2a
        E 16 b0 0b 33
        E 16 b0 0b 3b
        E 16 b0 0b 44
        E 16 b0 0b 3b
        E 16 b0 0b 33
        E 16 b0 0b 2a
        E 16 b0 0b 22
        E 0 80 46 00
        E 0 90 41 22
        E 16 b0 0b 2a
        E 16 b0 0b 33
        E 16 b0 0b 3b
        E 16 b0 0b 44
        E 16 b0 0b 3b
        E 16 b0 0b 33
        E 16 b0 0b 2a
        E 16 b0 0b 22
        E 0 80 41 00
        E 0 90 43 22
        E 16 b0 0b 2a
        E 16 b0 0b 33
        E 16 b0 0b 3b
        E 16 b0 0b 44
        E 16 b0 0b 3b
        E 16 b0 0b 33
        E 16 b0 0b 2a
        E 16 b0 0b 22
        E 0 80 43 00
        E 0 90 3d 22
        E 16 b0 0b 2a
        E 16 b0 0b 33
        E 16 b0 0b 3b
        E 16 b0 0b 44
        E 16 b0 0b 3b
        E 16 b0 0b 33
        E 16 b0 0b 2a
        E 16 b0 0b 22
        E 0 80 3d 00
        E 0 90 41 22
        E 16 b0 0b 2a
        E 16 b0 0b 33
        E 16 b0 0b 3b
        E 16 b0 0b 44
        E 16 b0 0b 3b
        E 16 b0 0b 33
        E 16 b0 0b 2a
        E 16 b0 0b 22
        E 0 80 41 00
        E 0 90 3a 22
        E 16 b0 0b 2a
        E 16 b0 0b 33
        E 16 b0 0b 3b
        E 16 b0 0b 44
        E 16 b0 0b 3b
        E 16 b0 0b 33
        E 16 b0 0b 2a
        E 16 b0 0b 22
        E 0 80 3a 00
        E 0 90 3d 22
        E 16 b0 0b 2a
        E 16 b0 0b 33
        E 16 b0 0b 3b
        E 16 b0 0b 44
        E 16 b0 0b 3b
        E 16 b0 0b 33
        E 16 b0 0b 2a
        E 16 b0 0b 22
        E 0 80 3d 00
        E 0 90 37 22
        E 16 b0 0b 2a
        E 16 b0 0b 33
        E 16 b0 0b 3b
        E 16 b0 0b 44
        E 16 b0 0b 3b
        E 16 b0 0b 33
        E 16 b0 0b 2a
        E 16 b0 0b 22
        E 0 80 37 00
        E 0 90 34 22
        E 16 b0 0b 2a
        E 16 b0 0b 33
        E 16 b0 0b 3b
        E 16 b0 0b 44
        E 16 b0 0b 3b
        E 16 b0 0b 33
        E 16 b0 0b 2a
        E 16 b0 0b 22
        E 16 b0 0b 2a
        E 16 b0 0b 33
        E 16 b0 0b 3b
        E 16 b0 0b 44
        E 16 b0 0b 3b
        E 16 b0 0b 33
        E 16 b0 0b 2a
        E 16 b0 0b 22
        E 16 b0 0b 2a
        E 16 b0 0b 33
        E 16 b0 0b 3b
        E 16 b0 0b 44
        E 16 b0 0b 3b
        E 16 b0 0b 33
        E 16 b0 0b 2a
        E 16 b0 0b 22
        E 0 80 34 00
        E 0 90 37 22
        E 16 b0 0b 2a
        E 16 b0 0b 33
        E 16 b0 0b 3b
        E 16 b0 0b 44
        E 16 b0 0b 3b
        E 16 b0 0b 33
        E 16 b0 0b 2a
        E 16 80 37 00
        E 128 b0 0b 22
        E 0 90 30 22
        E 16 b0 0b 2a
        E 16 b0 0b 33
        E 16 b0 0b 3b
        E 16 b0 0b 44
        E 16 b0 0b 3b
        E 16 b0 0b 33
        E 16 b0 0b 2a
        E 16 b0 0b 22
        E 0 80 30 00
        E 0 90 34 22
        E 16 b0 0b 2a
        E 16 b0 0b 33
        E 16 b0 0b 3b
        E 16 b0 0b 44
        E 16 b0 0b 3b
        E 16 b0 0b 33
        E 16 b0 0b 2a
        E 16 b0 0b 33
        E 256 80 34 00
        E 384 b0 0b 22
        E 0 90 34 22
        E 16 b0 0b 2a
        E 16 b0 0b 33
        E 16 b0 0b 3b
        E 16 b0 0b 44
        E 16 b0 0b 3b
        E 16 b0 0b 33
        E 16 b0 0b 2a
        E 16 b0 0b 22
        E 16 b0 0b 2a
        E 16 b0 0b 33
        E 16 b0 0b 3b
        E 16 b0 0b 44
        E 16 b0 0b 3b
        E 16 b0 0b 33
        E 16 b0 0b 2a
        E 16 b0 0b 22
        E 16 b0 0b 2a
        E 16 b0 0b 33
        E 16 b0 0b 3b
        E 16 b0 0b 44
        E 16 b0 0b 3b
        E 16 b0 0b 33
        E 16 b0 0b 2a
        E 16 b0 0b 22
        E 0 80 34 00
        E 0 90 37 22
        E 16 b0 0b 2a
        E 16 b0 0b 33
        E 16 b0 0b 3b
        E 16 b0 0b 44
        E 16 b0 0b 3b
        E 16 b0 0b 33
        E 16 b0 0b 2a
        E 16 80 37 00
        E 128 b0 0b 22
        E 0 90 30 22
        E 16 b0 0b 2a
        E 16 b0 0b 33
        E 16 b0 0b 3b
        E 16 b0 0b 44
        E 16 b0 0b 3b
        E 16 b0 0b 33
        E 16 b0 0b 2a
        E 16 b0 0b 22
        E 0 80 30 00
        E 0 90 34 22
        E 16 b0 0b 2a
        E 16 b0 0b 33
        E 16 b0 0b 3b
        E 16 b0 0b 44
        E 16 b0 0b 3b
        E 16 b0 0b 33
        E 16 b0 0b 2a
        E 16 b0 0b 33
        E 256 80 34 00
        E 384 b0 0b 22
        E 0 90 36 22
        E 16 b0 0b 2a
        E 16 b0 0b 33
        E 16 b0 0b 3b
        E 16 b0 0b 44
        E 16 b0 0b 3b
        E 16 b0 0b 33
        E 16 b0 0b 2a
        E 16 b0 0b 22
        E 16 b0 0b 2a
        E 16 b0 0b 33
        E 16 b0 0b 3b
        E 16 b0 0b 44
        E 16 b0 0b 3b
        E 16 b0 0b 33
        E 16 b0 0b 2a
        E 16 b0 0b 22
        E 16 b0 0b 2a
        E 16 b0 0b 33
        E 16 b0 0b 3b
        E 16 b0 0b 44
        E 16 b0 0b 3b
        E 16 b0 0b 33
        E 16 b0 0b 2a
        E 16 b0 0b 22
        E 0 80 36 00
        E 0 90 39 22
        E 16 b0 0b 2a
        E 16 b0 0b 33
        E 16 b0 0b 3b
        E 16 b0 0b 44
        E 16 b0 0b 3b
        E 16 b0 0b 33
        E 16 b0 0b 2a
        E 16 80 39 00
        E 128 b0 0b 22
        E 0 90 30 22
        E 16 b0 0b 2a
        E 16 b0 0b 33
        E 16 b0 0b 3b
        E 16 b0 0b 44
        E 16 b0 0b 3b
        E 16 b0 0b 33
        E 16 b0 0b 2a
        E 16 b0 0b 22
        E 0 80 30 00
        E 0 90 36 22
        E 16 b0 0b 2a
        E 16 b0 0b 33
        E 16 b0 0b 3b
        E 16 b0 0b 44
        E 16 b0 0b 3b
        E 16 b0 0b 33
        E 16 b0 0b 2a
        E 16 b0 0b 33
        E 256 80 36 00
        E 384 b0 0b 22
        E 0 90 36 22
        E 16 b0 0b 2a
        E 16 b0 0b 33
        E 16 b0 0b 3b
        E 16 b0 0b 44
        E 16 b0 0b 3b
        E 16 b0 0b 33
        E 16 b0 0b 2a
        E 16 b0 0b 33
        E 256 b0 0b 22
        E 0 80 36 00
        E 0 90 35 22
        E 16 b0 0b 2a
        E 16 b0 0b 33
        E 16 b0 0b 3b
        E 16 b0 0b 44
        E 16 b0 0b 3b
        E 16 b0 0b 33
        E 16 b0 0b 2a
        E 16 b0 0b 33
        E 256 b0 0b 22
        E 0 80 35 00
        E 0 90 34 22
        E 16 b0 0b 2a
        E 16 b0 0b 33
        E 16 b0 0b 3b
        E 16 b0 0b 44
        E 16 b0 0b 3b
        E 16 b0 0b 33
        E 16 b0 0b 2a
        E 16 b0 0b 33
        E 256 b0 0b 22
        E 0 80 34 00
        E 0 90 33 22
        E 16 b0 0b 2a
        E 16 b0 0b 33
        E 16 b0 0b 3b
        E 16 b0 0b 44
        E 16 b0 0b 3b
        E 16 b0 0b 33
        E 16 b0 0b 2a
        E 16 b0 0b 33
        E 256 b0 0b 22
        E 0 80 33 00
        E 0 90 3a 22
        E 16 b0 0b 2a
        E 16 b0 0b 33
        E 16 b0 0b 3b
        E 16 b0 0b 44
        E 16 b0 0b 3b
        E 16 b0 0b 33
        E 16 b0 0b 2a
        E 16 b0 0b 33
        E 256 b0 0b 22
        E 0 80 3a 00
        E 0 90 39 22
        E 16 b0 0b 2a
        E 16 b0 0b 33
        E 16 b0 0b 3b
        E 16 b0 0b 44
        E 16 b0 0b 3b
        E 16 b0 0b 33
        E 16 b0 0b 2a
        E 16 80 39 00
        E 128 b0 0b 22
        E 0 90 37 22
        E 16 b0 0b 2a
        E 16 b0 0b 33
        E 16 b0 0b 3b
        E 16 b0 0b 44
        E 16 b0 0b 3b
        E 16 b0 0b 33
        E 16 b0 0b 2a
        E 16 b0 0b 22
        E 0 80 37 00
        E 0 90 39 22
        E 16 b0 0b 2a
        E 16 b0 0b 33
        E 16 b0 0b 3b
        E 16 b0 0b 44
        E 16 b0 0b 3b
        E 16 b0 0b 33
        E 16 b0 0b 2a
        E 16 b0 0b 33
        E 256 b0 0b 22
        E 0 80 39 00
        E 0 90 37 22
        E 16 b0 0b 2a
        E 16 b0 0b 33
        E 16 b0 0b 3b
        E 16 b0 0b 44
        E 16 b0 0b 3b
        E 16 b0 0b 33
        E 16 b0 0b 2a
        E 16 b0 0b 33
        E 256 b0 0b 22
        E 0 80 37 00
        E 0 90 3a 22
        E 16 b0 0b 2a
        E 16 b0 0b 33
        E 16 b0 0b 3b
        E 16 b0 0b 44
        E 16 b0 0b 3b
        E 16 b0 0b 33
        E 16 b0 0b 2a
        E 16 b0 0b 33
        E 256 b0 0b 22
        E 0 80 3a 00
        E 0 90 3c 22
        E 16 b0 0b 2a
        E 16 b0 0b 33
        E 16 b0 0b 3b
        E 16 b0 0b 44
        E 16 b0 0b 3b
        E 16 b0 0b 33
        E 16 b0 0b 2a
        E 16 b0 0b 33
        E 256 b0 0b 22
        E 0 80 3c 00
        E 0 90 3e 22
        E 16 b0 0b 2a
        E 16 b0 0b 33
        E 16 b0 0b 3b
        E 16 b0 0b 44
        E 16 b0 0b 3b
        E 16 b0 0b 33
        E 16 b0 0b 2a
        E 16 b0 0b 33
        E 256 b0 0b 22
        E 0 80 3e 00
        E 0 90 40 22
        E 16 b0 0b 2a
        E 16 b0 0b 33
        E 16 b0 0b 3b
        E 16 b0 0b 44
        E 16 b0 0b 3b
        E 16 b0 0b 33
        E 16 b0 0b 2a
        E 16 b0 0b 33
        E 256 b0 0b 22
        E 0 80 40 00
        E 0 90 3e 22
        E 16 b0 0b 2a
        E 16 b0 0b 33
        E 16 b0 0b 3b
        E 16 b0 0b 44
        E 16 b0 0b 3b
        E 16 b0 0b 33
        E 16 b0 0b 2a
        E 16 b0 0b 33
        E 256 b0 0b 22
        E 0 80 3e 00
        E 0 90 3c 22
        E 16 b0 0b 2a
        E 16 b0 0b 33
        E 16 b0 0b 3b
        E 16 b0 0b 44
        E 16 b0 0b 3b
        E 16 b0 0b 33
        E 16 b0 0b 2a
        E 16 80 3c 00
        E 128 b0 0b 22
        E 0 90 3a 22
        E 16 b0 0b 2a
        E 16 b0 0b 33
        E 16 b0 0b 3b
        E 16 b0 0b 44
        E 16 b0 0b 3b
        E 16 b0 0b 33
        E 16 b0 0b 2a
        E 16 b0 0b 22
        E 0 80 3a 00
        E 0 90 3c 22
        E 16 b0 0b 2a
        E 16 b0 0b 33
        E 16 b0 0b 3b
        E 16 b0 0b 44
        E 16 b0 0b 3b
        E 16 b0 0b 33
        E 16 b0 0b 2a
        E 16 b0 0b 33
        E 256 b0 0b 22
        E 0 80 3c 00
        E 0 90 3a 22
        E 16 b0 0b 2a
        E 16 b0 0b 33
        E 16 b0 0b 3b
        E 16 b0 0b 44
        E 16 b0 0b 3b
        E 16 b0 0b 33
        E 16 b0 0b 2a
        E 16 80 3a 00
        E 128 b0 0b 22
        E 0 90 39 22
        E 16 b0 0b 2a
        E 16 b0 0b 33
        E 16 b0 0b 3b
        E 16 b0 0b 44
        E 16 b0 0b 3b
        E 16 b0 0b 33
        E 16 b0 0b 2a
        E 16 b0 0b 22
        E 0 80 39 00
        E 0 90 3a 22
        E 16 b0 0b 2a
        E 16 b0 0b 33
        E 16 b0 0b 3b
        E 16 b0 0b 44
        E 16 b0 0b 3b
        E 16 b0 0b 33
        E 16 b0 0b 2a
        E 16 b0 0b 33
        E 256 b0 0b 22
        E 0 80 3a 00
        E 0 90 39 22
        E 16 b0 0b 2a
        E 16 b0 0b 33
        E 16 b0 0b 3b
        E 16 b0 0b 44
        E 16 b0 0b 3b
        E 16 b0 0b 33
        E 16 b0 0b 2a
        E 16 b0 0b 33
        E 256 b0 0b 22
        E 0 80 39 00
        E 0 90 3a 22
        E 16 b0 0b 2a
        E 16 b0 0b 33
        E 16 b0 0b 3b
        E 16 b0 0b 44
        E 16 b0 0b 3b
        E 16 b0 0b 33
        E 16 b0 0b 2a
        E 16 b0 0b 22
        E 0 80 3a 00
        E 0 90 3b 22
        E 16 b0 0b 2a
        E 16 b0 0b 33
        E 16 b0 0b 3b
        E 16 b0 0b 44
        E 16 b0 0b 3b
        E 16 b0 0b 33
        E 16 b0 0b 2a
        E 16 b0 0b 22
        E 0 80 3b 00
        E 0 90 3c 22
        E 16 b0 0b 2a
        E 16 b0 0b 33
        E 16 b0 0b 3b
        E 16 b0 0b 44
        E 16 b0 0b 3b
        E 16 b0 0b 33
        E 16 b0 0b 2a
        E 16 b0 0b 22
        E 0 80 3c 00
        E 0 90 3d 22
        E 16 b0 0b 2a
        E 16 b0 0b 33
        E 16 b0 0b 3b
        E 16 b0 0b 44
        E 16 b0 0b 3b
        E 16 b0 0b 33
        E 16 b0 0b 2a
        E 16 b0 0b 33
        E 256 b0 0b 22
        E 0 80 3d 00
        E 0 90 51 22
        E 16 b0 0b 2a
        E 16 b0 0b 33
        E 16 b0 0b 3b
        E 16 b0 0b 44
        E 16 b0 0b 3b
        E 16 b0 0b 33
        E 16 b0 0b 2a
        E 16 b0 0b 22
        E 0 80 51 00
        E 0 90 45 22
        E 16 b0 0b 2a
        E 16 b0 0b 33
        E 16 b0 0b 3b
        E 16 b0 0b 44
        E 16 b0 0b 3b
        E 16 b0 0b 33
        E 16 b0 0b 2a
        E 16 b0 0b 22
        E 0 80 45 00
        E 0 90 4d 22
        E 16 b0 0b 2a
        E 16 b0 0b 33
        E 16 b0 0b 3b
        E 16 b0 0b 44
        E 16 b0 0b 3b
        E 16 b0 0b 33
        E 16 b0 0b 2a
        E 16 b0 0b 22
        E 0 80 4d 00
        E 0 90 45 22
        E 16 b0 0b 2a
        E 16 b0 0b 33
        E 16 b0 0b 3b
        E 16 b0 0b 44
        E 16 b0 0b 3b
        E 16 b0 0b 33
        E 16 b0 0b 2a
        E 16 b0 0b 22
        E 0 80 45 00
        E 0 90 48 22
        E 16 b0 0b 2a
        E 16 b0 0b 33
        E 16 b0 0b 3b
        E 16 b0 0b 44
        E 16 b0 0b 3b
        E 16 b0 0b 33
        E 16 b0 0b 2a
        E 16 b0 0b 22
        E 0 80 48 00
        E 0 90 45 22
        E 16 b0 0b 2a
        E 16 b0 0b 33
        E 16 b0 0b 3b
        E 16 b0 0b 44
        E 16 b0 0b 3b
        E 16 b0 0b 33
        E 16 b0 0b 2a
        E 16 b0 0b 22
        E 16 b0 0b 2a
        E 16 b0 0b 33
        E 16 b0 0b 3b
        E 16 b0 0b 44
        E 16 b0 0b 3b
        E 16 b0 0b 33
        E 16 b0 0b 2a
        E 16 b0 0b 22
        E 0 80 45 00
        E 0 90 39 22
        E 16 b0 0b 2a
        E 16 b0 0b 33
        E 16 b0 0b 3b
        E 16 b0 0b 44
        E 16 b0 0b 3b
        E 16 b0 0b 33
        E 16 b0 0b 2a
        E 16 b0 0b 22
        E 0 80 39 00
        E 0 90 41 22
        E 16 b0 0b 2a
        E 16 b0 0b 33
        E 16 b0 0b 3b
        E 16 b0 0b 44
        E 16 b0 0b 3b
        E 16 b0 0b 33
        E 16 b0 0b 2a
        E 16 b0 0b 22
        E 0 80 41 00
        E 0 90 39 22
        E 16 b0 0b 2a
        E 16 b0 0b 33
        E 16 b0 0b 3b
        E 16 b0 0b 44
        E 16 b0 0b 3b
        E 16 b0 0b 33
        E 16 b0 0b 2a
        E 16 b0 0b 22
        E 0 80 39 00
        E 0 90 3c 22
        E 16 b0 0b 2a
        E 16 b0 0b 33
        E 16 b0 0b 3b
        E 16 b0 0b 44
        E 16 b0 0b 3b
        E 16 b0 0b 33
        E 16 b0 0b 2a
        E 16 b0 0b 22
        E 0 80 3c 00
        E 0 90 39 22
        E 16 b0 0b 2a
        E 16 b0 0b 33
        E 16 b0 0b 3b
        E 16 b0 0b 44
        E 16 b0 0b 3b
        E 16 b0 0b 33
        E 16 b0 0b 2a
        E 16 b0 0b 22
        E 0 80 39 00
        E 0 90 4c 22
        E 16 b0 0b 2a
        E 16 b0 0b 33
        E 16 b0 0b 3b
        E 16 b0 0b 44
        E 16 b0 0b 3b
        E 16 b0 0b 33
        E 16 b0 0b 2a
        E 16 b0 0b 22
        E 0 80 4c 00
        E 0 90 46 22
        E 16 b0 0b 2a
        E 16 b0 0b 33
        E 16 b0 0b 3b
        E 16 b0 0b 44
        E 16 b0 0b 3b
        E 16 b0 0b 33
        E 16 b0 0b 2a
        E 16 b0 0b 22
        E 0 80 46 00
        E 0 90 49 22
        E 16 b0 0b 2a
        E 16 b0 0b 33
        E 16 b0 0b 3b
        E 16 b0 0b 44
        E 16 b0 0b 3b
        E 16 b0 0b 33
        E 16 b0 0b 2a
        E 16 b0 0b 22
        E 0 80 49 00
        E 0 90 46 22
        E 16 b0 0b 2a
        E 16 b0 0b 33
        E 16 b0 0b 3b
        E 16 b0 0b 44
        E 16 b0 0b 3b
        E 16 b0 0b 33
        E 16 b0 0b 2a
        E 16 b0 0b 22
        E 0 80 46 00
        E 0 90 49 22
        E 16 b0 0b 2a
        E 16 b0 0b 33
        E 16 b0 0b 3b
        E 16 b0 0b 44
        E 16 b0 0b 3b
        E 16 b0 0b 33
        E 16 b0 0b 2a
        E 16 b0 0b 22
        E 0 80 49 00
        E 0 90 4f 22
        E 16 b0 0b 2a
        E 16 b0 0b 33
        E 16 b0 0b 3b
        E 16 b0 0b 44
        E 16 b0 0b 3b
        E 16 b0 0b 33
        E 16 b0 0b 2a
        E 16 b0 0b 22
        E 0 80 4f 00
        E 0 90 40 22
        E 16 b0 0b 2a
        E 16 b0 0b 33
        E 16 b0 0b 3b
        E 16 b0 0b 44
        E 16 b0 0b 3b
        E 16 b0 0b 33
        E 16 b0 0b 2a
        E 16 b0 0b 22
        E 0 80 40 00
        E 0 90 3a 22
        E 16 b0 0b 2a
        E 16 b0 0b 33
        E 16 b0 0b 3b
        E 16 b0 0b 44
        E 16 b0 0b 3b
        E 16 b0 0b 33
        E 16 b0 0b 2a
        E 16 b0 0b 22
        E 0 80 3a 00
        E 0 90 3d 22
        E 16 b0 0b 2a
        E 16 b0 0b 33
        E 16 b0 0b 3b
        E 16 b0 0b 44
        E 16 b0 0b 3b
        E 16 b0 0b 33
        E 16 b0 0b 2a
        E 16 b0 0b 22
        E 0 80 3d 00
        E 0 90 3a 22
        E 16 b0 0b 2a
        E 16 b0 0b 33
        E 16 b0 0b 3b
        E 16 b0 0b 44
        E 16 b0 0b 3b
        E 16 b0 0b 33
        E 16 b0 0b 2a
        E 16 b0 0b 22
        E 0 80 3a 00
        E 0 90 3d 22
        E 16 b0 0b 2a
        E 16 b0 0b 33
        E 16 b0 0b 3b
        E 16 b0 0b 44
        E 16 b0 0b 3b
        E 16 b0 0b 33
        E 16 b0 0b 2a
        E 16 b0 0b 22
        E 0 80 3d 00
        E 0 90 43 22
        E 16 b0 0b 2a
        E 16 b0 0b 33
        E 16 b0 0b 3b
        E 16 b0 0b 44
        E 16 b0 0b 3b
        E 16 b0 0b 33
        E 16 b0 0b 2a
        E 16 b0 0b 22
        E 0 80 43 00
        E 0 90 51 22
        E 16 b0 0b 2a
        E 16 b0 0b 33
        E 16 b0 0b 3b
        E 16 b0 0b 44
        E 16 b0 0b 3b
        E 16 b0 0b 33
        E 16 b0 0b 2a
        E 16 b0 0b 22
        E 0 80 51 00
        E 0 90 45 22
        E 16 b0 0b 2a
        E 16 b0 0b 33
        E 16 b0 0b 3b
        E 16 b0 0b 44
        E 16 b0 0b 3b
        E 16 b0 0b 33
        E 16 b0 0b 2a
        E 16 b0 0b 22
        E 0 80 45 00
        E 0 90 4d 22
        E 16 b0 0b 2a
        E 16 b0 0b 33
        E 16 b0 0b 3b
        E 16 b0 0b 44
        E 16 b0 0b 3b
        E 16 b0 0b 33
        E 16 b0 0b 2a
        E 16 b0 0b 22
        E 0 80 4d 00
        E 0 90 45 22
        E 16 b0 0b 2a
        E 16 b0 0b 33
        E 16 b0 0b 3b
        E 16 b0 0b 44
        E 16 b0 0b 3b
        E 16 b0 0b 33
        E 16 b0 0b 2a
        E 16 b0 0b 22
        E 0 80 45 00
        E 0 90 48 22
        E 16 b0 0b 2a
        E 16 b0 0b 33
        E 16 b0 0b 3b
        E 16 b0 0b 44
        E 16 b0 0b 3b
        E 16 b0 0b 33
        E 16 b0 0b 2a
        E 16 b0 0b 22
        E 0 80 48 00
        E 0 90 45 22
        E 16 b0 0b 2a
        E 16 b0 0b 33
        E 16 b0 0b 3b
        E 16 b0 0b 44
        E 16 b0 0b 3b
        E 16 b0 0b 33
        E 16 b0 0b 2a
        E 16 b0 0b 22
        E 16 b0 0b 2a
        E 16 b0 0b 33
        E 16 b0 0b 3b
        E 16 b0 0b 44
        E 16 b0 0b 3b
        E 16 b0 0b 33
        E 16 b0 0b 2a
        E 16 b0 0b 22
        E 0 80 45 00
        E 0 90 39 22
        E 16 b0 0b 2a
        E 16 b0 0b 33
        E 16 b0 0b 3b
        E 16 b0 0b 44
        E 16 b0 0b 3b
        E 16 b0 0b 33
        E 16 b0 0b 2a
        E 16 b0 0b 22
        E 0 80 39 00
        E 0 90 41 22
        E 16 b0 0b 2a
        E 16 b0 0b 33
        E 16 b0 0b 3b
        E 16 b0 0b 44
        E 16 b0 0b 3b
        E 16 b0 0b 33
        E 16 b0 0b 2a
        E 16 b0 0b 22
        E 0 80 41 00
        E 0 90 39 22
        E 16 b0 0b 2a
        E 16 b0 0b 33
        E 16 b0 0b 3b
        E 16 b0 0b 44
        E 16 b0 0b 3b
        E 16 b0 0b 33
        E 16 b0 0b 2a
        E 16 b0 0b 22
        E 0 80 39 00
        E 0 90 3c 22
        E 16 b0 0b 2a
        E 16 b0 0b 33
        E 16 b0 0b 3b
        E 16 b0 0b 44
        E 16 b0 0b 3b
        E 16 b0 0b 33
        E 16 b0 0b 2a
        E 16 b0 0b 22
        E 0 80 3c 00
        E 0 90 39 22
        E 16 b0 0b 2a
        E 16 b0 0b 33
        E 16 b0 0b 3b
        E 16 b0 0b 44
        E 16 b0 0b 3b
        E 16 b0 0b 33
        E 16 b0 0b 2a
        E 16 b0 0b 22
        E 0 80 39 00
        E 0 90 4c 22
        E 16 b0 0b 2a
        E 16 b0 0b 33
        E 16 b0 0b 3b
        E 16 b0 0b 44
        E 16 b0 0b 3b
        E 16 b0 0b 33
        E 16 b0 0b 2a
        E 16 b0 0b 22
        E 0 80 4c 00
        E 0 90 46 22
        E 16 b0 0b 2a
        E 16 b0 0b 33
        E 16 b0 0b 3b
        E 16 b0 0b 44
        E 16 b0 0b 3b
        E 16 b0 0b 33
        E 16 b0 0b 2a
        E 16 b0 0b 22
        E 0 80 46 00
        E 0 90 49 22
        E 16 b0 0b 2a
        E 16 b0 0b 33
        E 16 b0 0b 3b
        E 16 b0 0b 44
        E 16 b0 0b 3b
        E 16 b0 0b 33
        E 16 b0 0b 2a
        E 16 b0 0b 22
        E 0 80 49 00
        E 0 90 46 22
        E 16 b0 0b 2a
        E 16 b0 0b 33
        E 16 b0 0b 3b
        E 16 b0 0b 44
        E 16 b0 0b 3b
        E 16 b0 0b 33
        E 16 b0 0b 2a
        E 16 b0 0b 22
        E 0 80 46 00
        E 0 90 49 22
        E 16 b0 0b 2a
        E 16 b0 0b 33
        E 16 b0 0b 3b
        E 16 b0 0b 44
        E 16 b0 0b 3b
        E 16 b0 0b 33
        E 16 b0 0b 2a
        E 16 b0 0b 22
        E 0 80 49 00
        E 0 90 4f 22
        E 16 b0 0b 2a
        E 16 b0 0b 33
        E 16 b0 0b 3b
        E 16 b0 0b 44
        E 16 b0 0b 3b
        E 16 b0 0b 33
        E 16 b0 0b 2a
        E 16 b0 0b 22
        E 0 80 4f 00
        E 0 90 40 22
        E 16 b0 0b 2a
        E 16 b0 0b 33
        E 16 b0 0b 3b
        E 16 b0 0b 44
        E 16 b0 0b 3b
        E 16 b0 0b 33
        E 16 b0 0b 2a
        E 16 b0 0b 22
        E 0 80 40 00
        E 0 90 3a 22
        E 16 b0 0b 2a
        E 16 b0 0b 33
        E 16 b0 0b 3b
        E 16 b0 0b 44
        E 16 b0 0b 3b
        E 16 b0 0b 33
        E 16 b0 0b 2a
        E 16 b0 0b 22
        E 0 80 3a 00
        E 0 90 3d 22
        E 16 b0 0b 2a
        E 16 b0 0b 33
        E 16 b0 0b 3b
        E 16 b0 0b 44
        E 16 b0 0b 3b
        E 16 b0 0b 33
        E 16 b0 0b 2a
        E 16 b0 0b 22
        E 0 80 3d 00
        E 0 90 3a 22
        E 16 b0 0b 2a
        E 16 b0 0b 33
        E 16 b0 0b 3b
        E 16 b0 0b 44
        E 16 b0 0b 3b
        E 16 b0 0b 33
        E 16 b0 0b 2a
        E 16 b0 0b 22
        E 0 80 3a 00
        E 0 90 3d 22
        E 16 b0 0b 2a
        E 16 b0 0b 33
        E 16 b0 0b 3b
        E 16 b0 0b 44
        E 16 b0 0b 3b
        E 16 b0 0b 33
        E 16 b0 0b 2a
        E 16 b0 0b 22
        E 0 80 3d 00
        E 0 90 43 22
        E 16 b0 0b 2a
        E 16 b0 0b 33
        E 16 b0 0b 3b
        E 16 b0 0b 44
        E 16 b0 0b 3b
        E 16 b0 0b 33
        E 16 b0 0b 2a
        E 16 b0 0b 22
        E 0 80 43 00
        E 0 90 51 22
        E 16 b0 0b 2a
        E 16 b0 0b 33
        E 16 b0 0b 3b
        E 16 b0 0b 44
        E 16 b0 0b 3b
        E 16 b0 0b 33
        E 16 b0 0b 2a
        E 16 b0 0b 22
        E 0 80 51 00
        E 0 90 45 22
        E 16 b0 0b 2a
        E 16 b0 0b 33
        E 16 b0 0b 3b
        E 16 b0 0b 44
        E 16 b0 0b 3b
        E 16 b0 0b 33
        E 16 b0 0b 2a
        E 16 b0 0b 22
        E 0 80 45 00
        E 0 90 4d 22
        E 16 b0 0b 2a
        E 16 b0 0b 33
        E 16 b0 0b 3b
        E 16 b0 0b 44
        E 16 b0 0b 3b
        E 16 b0 0b 33
        E 16 b0 0b 2a
        E 16 b0 0b 22
        E 0 80 4d 00
        E 0 90 45 22
        E 16 b0 0b 2a
        E 16 b0 0b 33
        E 16 b0 0b 3b
        E 16 b0 0b 44
        E 16 b0 0b 3b
        E 16 b0 0b 33
        E 16 b0 0b 2a
        E 16 b0 0b 22
        E 0 80 45 00
        E 0 90 48 22
        E 16 b0 0b 2a
        E 16 b0 0b 33
        E 16 b0 0b 3b
        E 16 b0 0b 44
        E 16 b0 0b 3b
        E 16 b0 0b 33
        E 16 b0 0b 2a
        E 16 b0 0b 22
        E 0 80 48 00
        E 0 90 45 22
        E 16 b0 0b 2a
        E 16 b0 0b 33
        E 16 b0 0b 3b
        E 16 b0 0b 44
        E 16 b0 0b 3b
        E 16 b0 0b 33
        E 16 b0 0b 2a
        E 16 b0 0b 22
        E 16 b0 0b 2a
        E 16 b0 0b 33
        E 16 b0 0b 3b
        E 16 b0 0b 44
        E 16 b0 0b 3b
        E 16 b0 0b 33
        E 16 b0 0b 2a
        E 16 b0 0b 22
        E 0 80 45 00
        E 0 90 39 22
        E 16 b0 0b 2a
        E 16 b0 0b 33
        E 16 b0 0b 3b
        E 16 b0 0b 44
        E 16 b0 0b 3b
        E 16 b0 0b 33
        E 16 b0 0b 2a
        E 16 b0 0b 22
        E 0 80 39 00
        E 0 90 41 22
        E 16 b0 0b 2a
        E 16 b0 0b 33
        E 16 b0 0b 3b
        E 16 b0 0b 44
        E 16 b0 0b 3b
        E 16 b0 0b 33
        E 16 b0 0b 2a
        E 16 b0 0b 22
        E 0 80 41 00
        E 0 90 39 22
        E 16 b0 0b 2a
        E 16 b0 0b 33
        E 16 b0 0b 3b
        E 16 b0 0b 44
        E 16 b0 0b 3b
        E 16 b0 0b 33
        E 16 b0 0b 2a
        E 16 b0 0b 22
        E 0 80 39 00
        E 0 90 3c 22
        E 16 b0 0b 2a
        E 16 b0 0b 33
        E 16 b0 0b 3b
        E 16 b0 0b 44
        E 16 b0 0b 3b
        E 16 b0 0b 33
        E 16 b0 0b 2a
        E 16 b0 0b 22
        E 0 80 3c 00
        E 0 90 39 22
        E 16 b0 0b 2a
        E 16 b0 0b 33
        E 16 b0 0b 3b
        E 16 b0 0b 44
        E 16 b0 0b 3b
        E 16 b0 0b 33
        E 16 b0 0b 2a
        E 16 b0 0b 22
        E 0 80 39 00
        E 0 90 4c 22
        E 16 b0 0b 2a
        E 16 b0 0b 33
        E 16 b0 0b 3b
        E 16 b0 0b 44
        E 16 b0 0b 3b
        E 16 b0 0b 33
        E 16 b0 0b 2a
        E 16 b0 0b 22
        E 0 80 4c 00
        E 0 90 46 22
        E 16 b0 0b 2a
        E 16 b0 0b 33
        E 16 b0 0b 3b
        E 16 b0 0b 44
        E 16 b0 0b 3b
        E 16 b0 0b 33
        E 16 b0 0b 2a
        E 16 b0 0b 22
        E 0 80 46 00
        E 0 90 49 22
        E 16 b0 0b 2a
        E 16 b0 0b 33
        E 16 b0 0b 3b
        E 16 b0 0b 44
        E 16 b0 0b 3b
        E 16 b0 0b 33
        E 16 b0 0b 2a
        E 16 b0 0b 22
        E 0 80 49 00
        E 0 90 46 22
        E 16 b0 0b 2a
        E 16 b0 0b 33
        E 16 b0 0b 3b
        E 16 b0 0b 44
        E 16 b0 0b 3b
        E 16 b0 0b 33
        E 16 b0 0b 2a
        E 16 b0 0b 22
        E 0 80 46 00
        E 0 90 49 22
        E 16 b0 0b 2a
        E 16 b0 0b 33
        E 16 b0 0b 3b
        E 16 b0 0b 44
        E 16 b0 0b 3b
        E 16 b0 0b 33
        E 16 b0 0b 2a
        E 16 b0 0b 22
        E 0 80 49 00
        E 0 90 4f 22
        E 16 b0 0b 2a
        E 16 b0 0b 33
        E 16 b0 0b 3b
        E 16 b0 0b 44
        E 16 b0 0b 3b
        E 16 b0 0b 33
        E 16 b0 0b 2a
        E 16 b0 0b 22
        E 0 80 4f 00
        E 0 90 40 22
        E 16 b0 0b 2a
        E 16 b0 0b 33
        E 16 b0 0b 3b
        E 16 b0 0b 44
        E 16 b0 0b 3b
        E 16 b0 0b 33
        E 16 b0 0b 2a
        E 16 b0 0b 22
        E 0 80 40 00
        E 0 90 3a 22
        E 16 b0 0b 2a
        E 16 b0 0b 33
        E 16 b0 0b 3b
        E 16 b0 0b 44
        E 16 b0 0b 3b
        E 16 b0 0b 33
        E 16 b0 0b 2a
        E 16 b0 0b 22
        E 0 80 3a 00
        E 0 90 3d 22
        E 16 b0 0b 2a
        E 16 b0 0b 33
        E 16 b0 0b 3b
        E 16 b0 0b 44
        E 16 b0 0b 3b
        E 16 b0 0b 33
        E 16 b0 0b 2a
        E 16 b0 0b 22
        E 0 80 3d 00
        E 0 90 3a 22
        E 16 b0 0b 2a
        E 16 b0 0b 33
        E 16 b0 0b 3b
        E 16 b0 0b 44
        E 16 b0 0b 3b
        E 16 b0 0b 33
        E 16 b0 0b 2a
        E 16 b0 0b 22
        E 0 80 3a 00
        E 0 90 3d 22
        E 16 b0 0b 2a
        E 16 b0 0b 33
        E 16 b0 0b 3b
        E 16 b0 0b 44
        E 16 b0 0b 3b
        E 16 b0 0b 33
        E 16 b0 0b 2a
        E 16 b0 0b 22
        E 0 80 3d 00
        E 0 90 43 22
        E 16 b0 0b 2a
        E 16 b0 0b 33
        E 16 b0 0b 3b
        E 16 b0 0b 44
        E 16 b0 0b 3b
        E 16 b0 0b 33
        E 16 b0 0b 2a
        E 16 b0 0b 22
        E 0 80 43 00
        E 0 90 51 22
        E 16 b0 0b 2a
        E 16 b0 0b 33
        E 16 b0 0b 3b
        E 16 b0 0b 44
        E 16 b0 0b 3b
        E 16 b0 0b 33
        E 16 b0 0b 2a
        E 16 b0 0b 22
        E 0 80 51 00
        E 0 90 45 22
        E 16 b0 0b 2a
        E 16 b0 0b 33
        E 16 b0 0b 3b
        E 16 b0 0b 44
        E 16 b0 0b 3b
        E 16 b0 0b 33
        E 16 b0 0b 2a
        E 16 b0 0b 22
        E 0 80 45 00
        E 0 90 4d 22
        E 16 b0 0b 2a
        E 16 b0 0b 33
        E 16 b0 0b 3b
        E 16 b0 0b 44
        E 16 b0 0b 3b
        E 16 b0 0b 33
        E 16 b0 0b 2a
        E 16 b0 0b 22
        E 0 80 4d 00
        E 0 90 45 22
        E 16 b0 0b 2a
        E 16 b0 0b 33
        E 16 b0 0b 3b
        E 16 b0 0b 44
        E 16 b0 0b 3b
        E 16 b0 0b 33
        E 16 b0 0b 2a
        E 16 b0 0b 22
        E 0 80 45 00
        E 0 90 48 22
        E 16 b0 0b 2a
        E 16 b0 0b 33
        E 16 b0 0b 3b
        E 16 b0 0b 44
        E 16 b0 0b 3b
        E 16 b0 0b 33
        E 16 b0 0b 2a
        E 16 b0 0b 22
        E 0 80 48 00
        E 0 90 45 22
        E 16 b0 0b 2a
        E 16 b0 0b 33
        E 16 b0 0b 3b
        E 16 b0 0b 44
        E 16 b0 0b 3b
        E 16 b0 0b 33
        E 16 b0 0b 2a
        E 16 b0 0b 22
        E 16 b0 0b 2a
        E 16 b0 0b 33
        E 16 b0 0b 3b
        E 16 b0 0b 44
        E 16 b0 0b 3b
        E 16 b0 0b 33
        E 16 b0 0b 2a
        E 16 b0 0b 22
        E 0 80 45 00
        E 0 90 39 22
        E 16 b0 0b 2a
        E 16 b0 0b 33
        E 16 b0 0b 3b
        E 16 b0 0b 44
        E 16 b0 0b 3b
        E 16 b0 0b 33
        E 16 b0 0b 2a
        E 16 b0 0b 22
        E 0 80 39 00
        E 0 90 41 22
        E 16 b0 0b 2a
        E 16 b0 0b 33
        E 16 b0 0b 3b
        E 16 b0 0b 44
        E 16 b0 0b 3b
        E 16 b0 0b 33
        E 16 b0 0b 2a
        E 16 b0 0b 22
        E 0 80 41 00
        E 0 90 39 22
        E 16 b0 0b 2a
        E 16 b0 0b 33
        E 16 b0 0b 3b
        E 16 b0 0b 44
        E 16 b0 0b 3b
        E 16 b0 0b 33
        E 16 b0 0b 2a
        E 16 b0 0b 22
        E 0 80 39 00
        E 0 90 3c 22
        E 16 b0 0b 2a
        E 16 b0 0b 33
        E 16 b0 0b 3b
        E 16 b0 0b 44
        E 16 b0 0b 3b
        E 16 b0 0b 33
        E 16 b0 0b 2a
        E 16 b0 0b 22
        E 0 80 3c 00
        E 0 90 39 22
        E 16 b0 0b 2a
        E 16 b0 0b 33
        E 16 b0 0b 3b
        E 16 b0 0b 44
        E 16 b0 0b 3b
        E 16 b0 0b 33
        E 16 b0 0b 2a
        E 16 b0 0b 22
        E 0 80 39 00
        E 0 90 4c 22
        E 16 b0 0b 2a
        E 16 b0 0b 33
        E 16 b0 0b 3b
        E 16 b0 0b 44
        E 16 b0 0b 3b
        E 16 b0 0b 33
        E 16 b0 0b 2a
        E 16 b0 0b 22
        E 0 80 4c 00
        E 0 90 46 22
        E 16 b0 0b 2a
        E 16 b0 0b 33
        E 16 b0 0b 3b
        E 16 b0 0b 44
        E 16 b0 0b 3b
        E 16 b0 0b 33
        E 16 b0 0b 2a
        E 16 b0 0b 22
        E 0 80 46 00
        E 0 90 49 22
        E 16 b0 0b 2a
        E 16 b0 0b 33
        E 16 b0 0b 3b
        E 16 b0 0b 44
        E 16 b0 0b 3b
        E 16 b0 0b 33
        E 16 b0 0b 2a
        E 16 b0 0b 22
        E 0 80 49 00
        E 0 90 46 22
        E 16 b0 0b 2a
        E 16 b0 0b 33
        E 16 b0 0b 3b
        E 16 b0 0b 44
        E 16 b0 0b 3b
        E 16 b0 0b 33
        E 16 b0 0b 2a
        E 16 b0 0b 22
        E 0 80 46 00
        E 0 90 49 22
        E 16 b0 0b 2a
        E 16 b0 0b 33
        E 16 b0 0b 3b
        E 16 b0 0b 44
        E 16 b0 0b 3b
        E 16 b0 0b 33
        E 16 b0 0b 2a
        E 16 b0 0b 22
        E 0 80 49 00
        E 0 90 4f 22
        E 16 b0 0b 2a
        E 16 b0 0b 33
        E 16 b0 0b 3b
        E 16 b0 0b 44
        E 16 b0 0b 3b
        E 16 b0 0b 33
        E 16 b0 0b 2a
        E 16 b0 0b 22
        E 0 80 4f 00
        E 0 90 40 22
        E 16 b0 0b 2a
        E 16 b0 0b 33
        E 16 b0 0b 3b
        E 16 b0 0b 44
        E 16 b0 0b 3b
        E 16 b0 0b 33
        E 16 b0 0b 2a
        E 16 b0 0b 22
        E 0 80 40 00
        E 0 90 3a 22
        E 16 b0 0b 2a
        E 16 b0 0b 33
        E 16 b0 0b 3b
        E 16 b0 0b 44
        E 16 b0 0b 3b
        E 16 b0 0b 33
        E 16 b0 0b 2a
        E 16 b0 0b 22
        E 0 80 3a 00
        E 0 90 3d 22
        E 16 b0 0b 2a
        E 16 b0 0b 33
        E 16 b0 0b 3b
        E 16 b0 0b 44
        E 16 b0 0b 3b
        E 16 b0 0b 33
        E 16 b0 0b 2a
        E 16 b0 0b 22
        E 0 80 3d 00
        E 0 90 3a 22
        E 16 b0 0b 2a
        E 16 b0 0b 33
        E 16 b0 0b 3b
        E 16 b0 0b 44
        E 16 b0 0b 3b
        E 16 b0 0b 33
        E 16 b0 0b 2a
        E 16 b0 0b 22
        E 0 80 3a 00
        E 0 90 3d 22
        E 16 b0 0b 2a
        E 16 b0 0b 33
        E 16 b0 0b 3b
        E 16 b0 0b 44
        E 16 b0 0b 3b
        E 16 b0 0b 33
        E 16 b0 0b 2a
        E 16 b0 0b 22
        E 0 80 3d 00
        E 0 90 43 22
        E 16 b0 0b 2a
        E 16 b0 0b 33
        E 16 b0 0b 3b
        E 16 b0 0b 44
        E 16 b0 0b 3b
        E 16 b0 0b 33
        E 16 b0 0b 2a
        E 16 b0 0b 22
        E 0 80 43 00
        E 0 90 30 22
        E 16 b0 0b 2a
        E 16 b0 0b 33
        E 16 b0 0b 3b
        E 16 b0 0b 44
        E 16 b0 0b 3b
        E 16 b0 0b 33
        E 16 b0 0b 2a
        E 16 b0 0b 22
        E 0 80 30 00
        E 0 90 35 22
        E 16 b0 0b 2a
        E 16 b0 0b 33
        E 16 b0 0b 3b
        E 16 b0 0b 44
        E 16 b0 0b 3b
        E 16 b0 0b 33
        E 16 b0 0b 2a
        E 16 b0 0b 22
        E 0 80 35 00
        E 0 90 39 22
        E 16 b0 0b 2a
        E 16 b0 0b 33
        E 16 b0 0b 3b
        E 16 b0 0b 44
        E 16 b0 0b 3b
        E 16 b0 0b 33
        E 16 b0 0b 2a
        E 16 b0 0b 22
        E 0 80 39 00
        E 0 90 41 22
        E 16 b0 0b 2a
        E 16 b0 0b 33
        E 16 b0 0b 3b
        E 16 b0 0b 44
        E 16 b0 0b 3b
        E 16 b0 0b 33
        E 16 b0 0b 2a
        E 16 b0 0b 22
        E 0 80 41 00
        E 0 90 3c 22
        E 16 b0 0b 2a
        E 16 b0 0b 33
        E 16 b0 0b 3b
        E 16 b0 0b 44
        E 16 b0 0b 3b
        E 16 b0 0b 33
        E 16 b0 0b 2a
        E 16 b0 0b 22
        E 0 80 3c 00
        E 0 90 39 22
        E 16 b0 0b 2a
        E 16 b0 0b 33
        E 16 b0 0b 3b
        E 16 b0 0b 44
        E 16 b0 0b 3b
        E 16 b0 0b 33
        E 16 b0 0b 2a
        E 16 b0 0b 22
        E 0 80 39 00
        E 0 90 30 22
        E 16 b0 0b 2a
        E 16 b0 0b 33
        E 16 b0 0b 3b
        E 16 b0 0b 44
        E 16 b0 0b 3b
        E 16 b0 0b 33
        E 16 b0 0b 2a
        E 16 b0 0b 22
        E 0 80 30 00
        E 0 90 35 22
        E 16 b0 0b 2a
        E 16 b0 0b 33
        E 16 b0 0b 3b
        E 16 b0 0b 44
        E 16 b0 0b 3b
        E 16 b0 0b 33
        E 16 b0 0b 2a
        E 16 b0 0b 22
        E 0 80 35 00
        E 0 90 39 22
        E 16 b0 0b 2a
        E 16 b0 0b 33
        E 16 b0 0b 3b
        E 16 b0 0b 44
        E 16 b0 0b 3b
        E 16 b0 0b 33
        E 16 b0 0b 2a
        E 16 b0 0b 22
        E 0 80 39 00
        E 0 90 41 22
        E 16 b0 0b 2a
        E 16 b0 0b 33
        E 16 b0 0b 3b
        E 16 b0 0b 44
        E 16 b0 0b 3b
        E 16 b0 0b 33
        E 16 b0 0b 2a
        E 16 b0 0b 22
        E 0 80 41 00
        E 0 90 3c 22
        E 16 b0 0b 2a
        E 16 b0 0b 33
        E 16 b0 0b 3b
        E 16 b0 0b 44
        E 16 b0 0b 3b
        E 16 b0 0b 33
        E 16 b0 0b 2a
        E 16 b0 0b 22
        E 0 80 3c 00
        E 0 90 39 22
        E 16 b0 0b 2a
        E 16 b0 0b 33
        E 16 b0 0b 3b
        E 16 b0 0b 44
        E 16 b0 0b 3b
        E 16 b0 0b 33
        E 16 b0 0b 2a
        E 16 b0 0b 22
        E 0 80 39 00
        E 0 90 33 22
        E 16 b0 0b 2a
        E 16 b0 0b 33
        E 16 b0 0b 3b
        E 16 b0 0b 44
        E 16 b0 0b 3b
        E 16 b0 0b 33
        E 16 b0 0b 2a
        E 16 b0 0b 22
        E 0 80 33 00
        E 0 90 37 22
        E 16 b0 0b 2a
        E 16 b0 0b 33
        E 16 b0 0b 3b
        E 16 b0 0b 44
        E 16 b0 0b 3b
        E 16 b0 0b 33
        E 16 b0 0b 2a
        E 16 b0 0b 22
        E 0 80 37 00
        E 0 90 3a 22
        E 16 b0 0b 2a
        E 16 b0 0b 33
        E 16 b0 0b 3b
        E 16 b0 0b 44
        E 16 b0 0b 3b
        E 16 b0 0b 33
        E 16 b0 0b 2a
        E 16 b0 0b 22
        E 0 80 3a 00
        E 0 90 3c 22
        E 16 b0 0b 2a
        E 16 b0 0b 33
        E 16 b0 0b 3b
        E 16 b0 0b 44
        E 16 b0 0b 3b
        E 16 b0 0b 33
        E 16 b0 0b 2a
        E 16 b0 0b 22
        E 0 80 3c 00
        E 0 90 3a 22
        E 16 b0 0b 2a
        E 16 b0 0b 33
        E 16 b0 0b 3b
        E 16 b0 0b 44
        E 16 b0 0b 3b
        E 16 b0 0b 33
        E 16 b0 0b 2a
        E 16 b0 0b 22
        E 0 80 3a 00
        E 0 90 38 22
        E 16 b0 0b 2a
        E 16 b0 0b 33
        E 16 b0 0b 3b
        E 16 b0 0b 44
        E 16 b0 0b 3b
        E 16 b0 0b 33
        E 16 b0 0b 2a
        E 16 b0 0b 22
        E 0 80 38 00
        E 0 90 33 22
        E 16 b0 0b 2a
        E 16 b0 0b 33
        E 16 b0 0b 3b
        E 16 b0 0b 44
        E 16 b0 0b 3b
        E 16 b0 0b 33
        E 16 b0 0b 2a
        E 16 b0 0b 22
        E 0 80 33 00
        E 0 90 37 22
        E 16 b0 0b 2a
        E 16 b0 0b 33
        E 16 b0 0b 3b
        E 16 b0 0b 44
        E 16 b0 0b 3b
        E 16 b0 0b 33
        E 16 b0 0b 2a
        E 16 b0 0b 22
        E 0 80 37 00
        E 0 90 3a 22
        E 16 b0 0b 2a
        E 16 b0 0b 33
        E 16 b0 0b 3b
        E 16 b0 0b 44
        E 16 b0 0b 3b
        E 16 b0 0b 33
        E 16 b0 0b 2a
        E 16 b0 0b 22
        E 0 80 3a 00
        E 0 90 3c 22
        E 16 b0 0b 2a
        E 16 b0 0b 33
        E 16 b0 0b 3b
        E 16 b0 0b 44
        E 16 b0 0b 3b
        E 16 b0 0b 33
        E 16 b0 0b 2a
        E 16 b0 0b 22
        E 0 80 3c 00
        E 0 90 3a 22
        E 16 b0 0b 2a
        E 16 b0 0b 33
        E 16 b0 0b 3b
        E 16 b0 0b 44
        E 16 b0 0b 3b
        E 16 b0 0b 33
        E 16 b0 0b 2a
        E 16 b0 0b 22
        E 0 80 3a 00
        E 0 90 38 22
        E 16 b0 0b 2a
        E 16 b0 0b 33
        E 16 b0 0b 3b
        E 16 b0 0b 44
        E 16 b0 0b 3b
        E 16 b0 0b 33
        E 16 b0 0b 2a
        E 16 b0 0b 22
        E 0 80 38 00
        E 0 90 35 22
        E 16 b0 0b 2a
        E 16 b0 0b 33
        E 16 b0 0b 3b
        E 16 b0 0b 44
        E 16 b0 0b 3b
        E 16 b0 0b 33
        E 16 b0 0b 2a
        E 16 b0 0b 22
        E 0 80 35 00
        E 0 90 3a 22
        E 16 b0 0b 2a
        E 16 b0 0b 33
        E 16 b0 0b 3b
        E 16 b0 0b 44
        E 16 b0 0b 3b
        E 16 b0 0b 33
        E 16 b0 0b 2a
        E 16 b0 0b 22
        E 0 80 3a 00
        E 0 90 3c 22
        E 16 b0 0b 2a
        E 16 b0 0b 33
        E 16 b0 0b 3b
        E 16 b0 0b 44
        E 16 b0 0b 3b
        E 16 b0 0b 33
        E 16 b0 0b 2a
        E 16 b0 0b 22
        E 0 80 3c 00
        E 0 90 3e 22
        E 16 b0 0b 2a
        E 16 b0 0b 33
        E 16 b0 0b 3b
        E 16 b0 0b 44
        E 16 b0 0b 3b
        E 16 b0 0b 33
        E 16 b0 0b 2a
        E 16 b0 0b 22
        E 0 80 3e 00
        E 0 90 3c 22
        E 16 b0 0b 2a
        E 16 b0 0b 33
        E 16 b0 0b 3b
        E 16 b0 0b 44
        E 16 b0 0b 3b
        E 16 b0 0b 33
        E 16 b0 0b 2a
        E 16 b0 0b 22
        E 0 80 3c 00
        E 0 90 3a 22
        E 16 b0 0b 2a
        E 16 b0 0b 33
        E 16 b0 0b 3b
        E 16 b0 0b 44
        E 16 b0 0b 3b
        E 16 b0 0b 33
        E 16 b0 0b 2a
        E 16 b0 0b 22
        E 0 80 3a 00
        E 0 90 35 22
        E 16 b0 0b 2a
        E 16 b0 0b 33
        E 16 b0 0b 3b
        E 16 b0 0b 44
        E 16 b0 0b 3b
        E 16 b0 0b 33
        E 16 b0 0b 2a
        E 16 b0 0b 22
        E 0 80 35 00
        E 0 90 3a 22
        E 16 b0 0b 2a
        E 16 b0 0b 33
        E 16 b0 0b 3b
        E 16 b0 0b 44
        E 16 b0 0b 3b
        E 16 b0 0b 33
        E 16 b0 0b 2a
        E 16 b0 0b 22
        E 0 80 3a 00
        E 0 90 3c 22
        E 16 b0 0b 2a
        E 16 b0 0b 33
        E 16 b0 0b 3b
        E 16 b0 0b 44
        E 16 b0 0b 3b
        E 16 b0 0b 33
        E 16 b0 0b 2a
        E 16 b0 0b 22
        E 0 80 3c 00
        E 0 90 3e 22
        E 16 b0 0b 2a
        E 16 b0 0b 33
        E 16 b0 0b 3b
        E 16 b0 0b 44
        E 16 b0 0b 3b
        E 16 b0 0b 33
        E 16 b0 0b 2a
        E 16 b0 0b 22
        E 0 80 3e 00
        E 0 90 3c 22
        E 16 b0 0b 2a
        E 16 b0 0b 33
        E 16 b0 0b 3b
        E 16 b0 0b 44
        E 16 b0 0b 3b
        E 16 b0 0b 33
        E 16 b0 0b 2a
        E 16 b0 0b 22
        E 0 80 3c 00
        E 0 90 3a 22
        E 16 b0 0b 2a
        E 16 b0 0b 33
        E 16 b0 0b 3b
        E 16 b0 0b 44
        E 16 b0 0b 3b
        E 16 b0 0b 33
        E 16 b0 0b 2a
        E 16 b0 0b 22
        E 0 80 3a 00
        E 0 90 2d 22
        E 16 b0 0b 2a
        E 16 b0 0b 33
        E 16 b0 0b 3b
        E 16 b0 0b 44
        E 16 b0 0b 3b
        E 16 b0 0b 33
        E 16 b0 0b 2a
        E 16 b0 0b 33
        E 256 80 2d 00
        E 16 b0 7b 00
        E 0 ff 2f 00
      >
    >
  >
  <TRACK {C5F29F12-9BD3-4845-A979-D210CBF64602}
    NAME "NES - Pulse 2 [ch1]"
    PEAKCOL 10092441
    BEAT -1
    AUTOMODE 0
    PANLAWFLAGS 3
    VOLPAN 1 0 -1 -1 1
    MUTESOLO 0 0 0
    IPHASE 0
    PLAYOFFS 0 1
    ISBUS 0 0
    BUSCOMP 0 0 0 0 0
    SHOWINMIX 1 0.6667 0.5 1 0.5 0 0 0
    FIXEDLANES 9 0 0 0 0
    SEL 0
    REC 0 5088 1 0 0 0 0 0
    VU 2
    TRACKHEIGHT 0 0 0 0 0 0 0
    INQ 0 0 0 0.5 100 0 0 100
    NCHAN 2
    FX 1
    TRACKID {C5F29F12-9BD3-4845-A979-D210CBF64602}
    PERF 0
    MIDIOUT -1
    MAINSEND 1 0
    <FXCHAIN
      WNDRECT 24 52 700 560
      SHOW 0
      LASTSEL 0
      DOCKED 0
      BYPASS 0 0 0
      <JS "ReapNES Studio/ReapNES_Console.jsfx" ""
        2 15 1 10 80 10 100 2 1 15 1 5 60 10 80 1 1 0 50 0 0 15 1 0 100 0 0 0.500000 0.500000 0.400000 0.300000 0.800000 1 1 0 0 0 0 - - - - - - - - - - - - - - - - - - - - - - - - - -
      >
      FLOATPOS 0 0 0 0
      FXID {67AD57C6-E6F8-4976-9298-254B2260635B}
      WAK 0 0
    >
    <ITEM
      POSITION 0
      LENGTH 70.54432560000001
      LOOP 0
      ALLTAKES 0
      FADEIN 0 0 0 0 0 0 0
      FADEOUT 0 0 0 0 0 0 0
      MUTE 0 0
      SEL 0
      IGUID {78370691-B41A-446E-8F4C-26707D4E7AA4}
      <SOURCE MIDI
        HASDATA 1 480 QN
        CCINTERP 32
        E 0 c1 51
        E 3088 b1 0c 60
        E 0 b1 0b 22
        E 0 91 4c 22
        E 16 b1 0b 2a
        E 16 b1 0b 33
        E 16 b1 0b 3b
        E 16 b1 0b 44
        E 16 b1 0b 3b
        E 16 b1 0b 33
        E 16 b1 0b 2a
        E 16 b1 0b 22
        E 0 81 4c 00
        E 0 91 48 22
        E 16 b1 0b 2a
        E 16 b1 0b 33
        E 16 b1 0b 3b
        E 16 b1 0b 44
        E 16 b1 0b 3b
        E 16 b1 0b 33
        E 16 b1 0b 2a
        E 16 b1 0b 22
        E 0 81 48 00
        E 0 91 4c 22
        E 16 b1 0b 2a
        E 16 b1 0b 33
        E 16 b1 0b 3b
        E 16 b1 0b 44
        E 16 b1 0b 3b
        E 16 b1 0b 33
        E 16 b1 0b 2a
        E 16 b1 0b 22
        E 0 81 4c 00
        E 0 91 4f 22
        E 16 b1 0b 2a
        E 16 b1 0b 33
        E 16 b1 0b 3b
        E 16 b1 0b 44
        E 16 b1 0b 3b
        E 16 b1 0b 33
        E 16 b1 0b 2a
        E 16 b1 0b 22
        E 0 81 4f 00
        E 0 91 4c 22
        E 16 b1 0b 2a
        E 16 b1 0b 33
        E 16 b1 0b 3b
        E 16 b1 0b 44
        E 16 b1 0b 3b
        E 16 b1 0b 33
        E 16 b1 0b 2a
        E 16 b1 0b 22
        E 0 81 4c 00
        E 0 91 4f 22
        E 16 b1 0b 2a
        E 16 b1 0b 33
        E 16 b1 0b 3b
        E 16 b1 0b 44
        E 16 b1 0b 3b
        E 16 b1 0b 33
        E 16 b1 0b 2a
        E 16 b1 0b 22
        E 0 81 4f 00
        E 0 91 54 22
        E 16 b1 0b 2a
        E 16 b1 0b 33
        E 16 b1 0b 3b
        E 16 b1 0b 44
        E 16 b1 0b 3b
        E 16 b1 0b 33
        E 16 b1 0b 2a
        E 16 81 54 00
        E 256 b1 0b 22
        E 0 91 4f 22
        E 16 b1 0b 2a
        E 16 b1 0b 33
        E 16 b1 0b 3b
        E 16 b1 0b 44
        E 16 b1 0b 3b
        E 16 b1 0b 33
        E 16 b1 0b 2a
        E 16 81 4f 00
        E 128 b1 0b 22
        E 0 91 4c 22
        E 16 b1 0b 2a
        E 16 b1 0b 33
        E 16 b1 0b 3b
        E 16 b1 0b 44
        E 16 b1 0b 3b
        E 16 b1 0b 33
        E 16 b1 0b 2a
        E 16 b1 0b 22
        E 0 81 4c 00
        E 0 91 4d 22
        E 16 b1 0b 2a
        E 16 b1 0b 33
        E 16 b1 0b 3b
        E 16 b1 0b 44
        E 16 b1 0b 3b
        E 16 b1 0b 33
        E 16 b1 0b 2a
        E 16 b1 0b 22
        E 0 81 4d 00
        E 0 91 48 22
        E 16 b1 0b 2a
        E 16 b1 0b 33
        E 16 b1 0b 3b
        E 16 b1 0b 44
        E 16 b1 0b 3b
        E 16 b1 0b 33
        E 16 b1 0b 2a
        E 16 b1 0b 22
        E 0 81 48 00
        E 0 91 4d 22
        E 16 b1 0b 2a
        E 16 b1 0b 33
        E 16 b1 0b 3b
        E 16 b1 0b 44
        E 16 b1 0b 3b
        E 16 b1 0b 33
        E 16 b1 0b 2a
        E 16 b1 0b 22
        E 0 81 4d 00
        E 0 91 4f 22
        E 16 b1 0b 2a
        E 16 b1 0b 33
        E 16 b1 0b 3b
        E 16 b1 0b 44
        E 16 b1 0b 3b
        E 16 b1 0b 33
        E 16 b1 0b 2a
        E 16 b1 0b 22
        E 0 81 4f 00
        E 0 91 4d 22
        E 16 b1 0b 2a
        E 16 b1 0b 33
        E 16 b1 0b 3b
        E 16 b1 0b 44
        E 16 b1 0b 3b
        E 16 b1 0b 33
        E 16 b1 0b 2a
        E 16 b1 0b 22
        E 0 81 4d 00
        E 0 91 4f 22
        E 16 b1 0b 2a
        E 16 b1 0b 33
        E 16 b1 0b 3b
        E 16 b1 0b 44
        E 16 b1 0b 3b
        E 16 b1 0b 33
        E 16 b1 0b 2a
        E 16 b1 0b 22
        E 0 81 4f 00
        E 0 91 50 22
        E 16 b1 0b 2a
        E 16 b1 0b 33
        E 16 b1 0b 3b
        E 16 b1 0b 44
        E 16 b1 0b 3b
        E 16 b1 0b 33
        E 16 b1 0b 2a
        E 16 b1 0b 22
        E 0 81 50 00
        E 0 91 4d 22
        E 16 b1 0b 2a
        E 16 b1 0b 33
        E 16 b1 0b 3b
        E 16 b1 0b 44
        E 16 b1 0b 3b
        E 16 b1 0b 33
        E 16 b1 0b 2a
        E 16 b1 0b 22
        E 0 81 4d 00
        E 0 91 50 22
        E 16 b1 0b 2a
        E 16 b1 0b 33
        E 16 b1 0b 3b
        E 16 b1 0b 44
        E 16 b1 0b 3b
        E 16 b1 0b 33
        E 16 b1 0b 2a
        E 16 b1 0b 22
        E 16 b1 0b 2a
        E 16 b1 0b 33
        E 16 b1 0b 3b
        E 16 b1 0b 44
        E 16 b1 0b 3b
        E 16 b1 0b 33
        E 16 b1 0b 2a
        E 16 b1 0b 22
        E 0 81 50 00
        E 0 91 4d 22
        E 16 b1 0b 2a
        E 16 b1 0b 33
        E 16 b1 0b 3b
        E 16 b1 0b 44
        E 16 b1 0b 3b
        E 16 b1 0b 33
        E 16 b1 0b 2a
        E 16 b1 0b 22
        E 0 81 4d 00
        E 0 91 50 22
        E 16 b1 0b 2a
        E 16 b1 0b 33
        E 16 b1 0b 3b
        E 16 b1 0b 44
        E 16 b1 0b 3b
        E 16 b1 0b 33
        E 16 b1 0b 2a
        E 16 b1 0b 22
        E 0 81 50 00
        E 0 91 4d 22
        E 16 b1 0b 2a
        E 16 b1 0b 33
        E 16 b1 0b 3b
        E 16 b1 0b 44
        E 16 b1 0b 3b
        E 16 b1 0b 33
        E 16 b1 0b 2a
        E 16 b1 0b 22
        E 16 b1 0b 2a
        E 16 b1 0b 33
        E 16 b1 0b 3b
        E 16 b1 0b 44
        E 16 b1 0b 3b
        E 16 b1 0b 33
        E 16 b1 0b 2a
        E 16 b1 0b 22
        E 16 b1 0b 2a
        E 16 b1 0b 33
        E 16 b1 0b 3b
        E 16 b1 0b 44
        E 16 b1 0b 3b
        E 16 b1 0b 33
        E 16 b1 0b 2a
        E 16 b1 0b 22
        E 0 81 4d 00
        E 0 91 4c 22
        E 16 b1 0b 2a
        E 16 b1 0b 33
        E 16 b1 0b 3b
        E 16 b1 0b 44
        E 16 b1 0b 3b
        E 16 b1 0b 33
        E 16 b1 0b 2a
        E 16 b1 0b 22
        E 16 b1 0b 2a
        E 16 b1 0b 33
        E 16 b1 0b 3b
        E 16 b1 0b 44
        E 16 b1 0b 3b
        E 16 b1 0b 33
        E 16 b1 0b 2a
        E 16 b1 0b 22
        E 16 b1 0b 2a
        E 16 b1 0b 33
        E 16 b1 0b 3b
        E 16 b1 0b 44
        E 16 b1 0b 3b
        E 16 b1 0b 33
        E 16 b1 0b 2a
        E 16 b1 0b 22
        E 0 81 4c 00
        E 0 91 4a 22
        E 16 b1 0b 2a
        E 16 b1 0b 33
        E 16 b1 0b 3b
        E 16 b1 0b 44
        E 16 b1 0b 3b
        E 16 b1 0b 33
        E 16 b1 0b 2a
        E 16 b1 0b 22
        E 16 b1 0b 2a
        E 16 b1 0b 33
        E 16 b1 0b 3b
        E 16 b1 0b 44
        E 16 b1 0b 3b
        E 16 b1 0b 33
        E 16 b1 0b 2a
        E 16 b1 0b 22
        E 16 b1 0b 2a
        E 16 b1 0b 33
        E 16 b1 0b 3b
        E 16 b1 0b 44
        E 16 b1 0b 3b
        E 16 b1 0b 33
        E 16 b1 0b 2a
        E 16 b1 0b 22
        E 0 81 4a 00
        E 0 91 4c 22
        E 16 b1 0b 2a
        E 16 b1 0b 33
        E 16 b1 0b 3b
        E 16 b1 0b 44
        E 16 b1 0b 3b
        E 16 b1 0b 33
        E 16 b1 0b 2a
        E 16 b1 0b 22
        E 16 b1 0b 2a
        E 16 b1 0b 33
        E 16 b1 0b 3b
        E 16 b1 0b 44
        E 16 b1 0b 3b
        E 16 b1 0b 33
        E 16 b1 0b 2a
        E 16 b1 0b 22
        E 16 b1 0b 2a
        E 16 b1 0b 33
        E 16 b1 0b 3b
        E 16 b1 0b 44
        E 16 b1 0b 3b
        E 16 b1 0b 33
        E 16 b1 0b 2a
        E 16 b1 0b 22
        E 0 81 4c 00
        E 0 91 4d 22
        E 16 b1 0b 2a
        E 16 b1 0b 33
        E 16 b1 0b 3b
        E 16 b1 0b 44
        E 16 b1 0b 3b
        E 16 b1 0b 33
        E 16 b1 0b 2a
        E 16 b1 0b 22
        E 16 b1 0b 2a
        E 16 b1 0b 33
        E 16 b1 0b 3b
        E 16 b1 0b 44
        E 16 b1 0b 3b
        E 16 b1 0b 33
        E 16 b1 0b 2a
        E 16 b1 0b 22
        E 16 b1 0b 2a
        E 16 b1 0b 33
        E 16 b1 0b 3b
        E 16 b1 0b 44
        E 16 b1 0b 3b
        E 16 b1 0b 33
        E 16 b1 0b 2a
        E 16 b1 0b 22
        E 0 81 4d 00
        E 0 91 4c 22
        E 16 b1 0b 2a
        E 16 b1 0b 33
        E 16 b1 0b 3b
        E 16 b1 0b 44
        E 16 b1 0b 3b
        E 16 b1 0b 33
        E 16 b1 0b 2a
        E 16 b1 0b 22
        E 16 b1 0b 2a
        E 16 b1 0b 33
        E 16 b1 0b 3b
        E 16 b1 0b 44
        E 16 b1 0b 3b
        E 16 b1 0b 33
        E 16 b1 0b 2a
        E 16 b1 0b 22
        E 16 b1 0b 2a
        E 16 b1 0b 33
        E 16 b1 0b 3b
        E 16 b1 0b 44
        E 16 b1 0b 3b
        E 16 b1 0b 33
        E 16 b1 0b 2a
        E 16 b1 0b 22
        E 0 81 4c 00
        E 0 91 4a 22
        E 16 b1 0b 2a
        E 16 b1 0b 33
        E 16 b1 0b 3b
        E 16 b1 0b 44
        E 16 b1 0b 3b
        E 16 b1 0b 33
        E 16 b1 0b 2a
        E 16 b1 0b 22
        E 16 b1 0b 2a
        E 16 b1 0b 33
        E 16 b1 0b 3b
        E 16 b1 0b 44
        E 16 b1 0b 3b
        E 16 b1 0b 33
        E 16 b1 0b 2a
        E 16 b1 0b 22
        E 16 b1 0b 2a
        E 16 b1 0b 33
        E 16 b1 0b 3b
        E 16 b1 0b 44
        E 16 b1 0b 3b
        E 16 b1 0b 33
        E 16 b1 0b 2a
        E 16 b1 0b 22
        E 0 81 4a 00
        E 0 91 4c 22
        E 16 b1 0b 2a
        E 16 b1 0b 33
        E 16 b1 0b 3b
        E 16 b1 0b 44
        E 16 b1 0b 3b
        E 16 b1 0b 33
        E 16 b1 0b 2a
        E 16 b1 0b 22
        E 16 b1 0b 2a
        E 16 b1 0b 33
        E 16 b1 0b 3b
        E 16 b1 0b 44
        E 16 b1 0b 3b
        E 16 b1 0b 33
        E 16 b1 0b 2a
        E 16 b1 0b 22
        E 16 b1 0b 2a
        E 16 b1 0b 33
        E 16 b1 0b 3b
        E 16 b1 0b 44
        E 16 b1 0b 3b
        E 16 b1 0b 33
        E 16 b1 0b 2a
        E 16 b1 0b 22
        E 0 81 4c 00
        E 0 91 4d 22
        E 16 b1 0b 2a
        E 16 b1 0b 33
        E 16 b1 0b 3b
        E 16 b1 0b 44
        E 16 b1 0b 3b
        E 16 b1 0b 33
        E 16 b1 0b 2a
        E 16 b1 0b 22
        E 16 b1 0b 2a
        E 16 b1 0b 33
        E 16 b1 0b 3b
        E 16 b1 0b 44
        E 16 b1 0b 3b
        E 16 b1 0b 33
        E 16 b1 0b 2a
        E 16 b1 0b 22
        E 16 b1 0b 2a
        E 16 b1 0b 33
        E 16 b1 0b 3b
        E 16 b1 0b 44
        E 16 b1 0b 3b
        E 16 b1 0b 33
        E 16 b1 0b 2a
        E 16 b1 0b 22
        E 0 81 4d 00
        E 0 91 4c 22
        E 16 b1 0b 2a
        E 16 b1 0b 33
        E 16 b1 0b 3b
        E 16 b1 0b 44
        E 16 b1 0b 3b
        E 16 b1 0b 33
        E 16 b1 0b 2a
        E 16 b1 0b 22
        E 16 b1 0b 2a
        E 16 b1 0b 33
        E 16 b1 0b 3b
        E 16 b1 0b 44
        E 16 b1 0b 3b
        E 16 b1 0b 33
        E 16 b1 0b 2a
        E 16 b1 0b 22
        E 16 b1 0b 2a
        E 16 b1 0b 33
        E 16 b1 0b 3b
        E 16 b1 0b 44
        E 16 b1 0b 3b
        E 16 b1 0b 33
        E 16 b1 0b 2a
        E 16 b1 0b 22
        E 0 81 4c 00
        E 0 91 4a 22
        E 16 b1 0b 2a
        E 16 b1 0b 33
        E 16 b1 0b 3b
        E 16 b1 0b 44
        E 16 b1 0b 3b
        E 16 b1 0b 33
        E 16 b1 0b 2a
        E 16 b1 0b 22
        E 16 b1 0b 2a
        E 16 b1 0b 33
        E 16 b1 0b 3b
        E 16 b1 0b 44
        E 16 b1 0b 3b
        E 16 b1 0b 33
        E 16 b1 0b 2a
        E 16 b1 0b 22
        E 16 b1 0b 2a
        E 16 b1 0b 33
        E 16 b1 0b 3b
        E 16 b1 0b 44
        E 16 b1 0b 3b
        E 16 b1 0b 33
        E 16 b1 0b 2a
        E 16 b1 0b 22
        E 0 81 4a 00
        E 0 91 4c 22
        E 16 b1 0b 2a
        E 16 b1 0b 33
        E 16 b1 0b 3b
        E 16 b1 0b 44
        E 16 b1 0b 3b
        E 16 b1 0b 33
        E 16 b1 0b 2a
        E 16 b1 0b 22
        E 16 b1 0b 2a
        E 16 b1 0b 33
        E 16 b1 0b 3b
        E 16 b1 0b 44
        E 16 b1 0b 3b
        E 16 b1 0b 33
        E 16 b1 0b 2a
        E 16 b1 0b 22
        E 16 b1 0b 2a
        E 16 b1 0b 33
        E 16 b1 0b 3b
        E 16 b1 0b 44
        E 16 b1 0b 3b
        E 16 b1 0b 33
        E 16 b1 0b 2a
        E 16 b1 0b 22
        E 0 81 4c 00
        E 0 91 4d 22
        E 16 b1 0b 2a
        E 16 b1 0b 33
        E 16 b1 0b 3b
        E 16 b1 0b 44
        E 16 b1 0b 3b
        E 16 b1 0b 33
        E 16 b1 0b 2a
        E 16 b1 0b 22
        E 16 b1 0b 2a
        E 16 b1 0b 33
        E 16 b1 0b 3b
        E 16 b1 0b 44
        E 16 b1 0b 3b
        E 16 b1 0b 33
        E 16 b1 0b 2a
        E 16 b1 0b 22
        E 16 b1 0b 2a
        E 16 b1 0b 33
        E 16 b1 0b 3b
        E 16 b1 0b 44
        E 16 b1 0b 3b
        E 16 b1 0b 33
        E 16 b1 0b 2a
        E 16 b1 0b 22
        E 0 81 4d 00
        E 0 91 4c 22
        E 16 b1 0b 2a
        E 16 b1 0b 33
        E 16 b1 0b 3b
        E 16 b1 0b 44
        E 16 b1 0b 3b
        E 16 b1 0b 33
        E 16 b1 0b 2a
        E 16 b1 0b 22
        E 16 b1 0b 2a
        E 16 b1 0b 33
        E 16 b1 0b 3b
        E 16 b1 0b 44
        E 16 b1 0b 3b
        E 16 b1 0b 33
        E 16 b1 0b 2a
        E 16 b1 0b 22
        E 16 b1 0b 2a
        E 16 b1 0b 33
        E 16 b1 0b 3b
        E 16 b1 0b 44
        E 16 b1 0b 3b
        E 16 b1 0b 33
        E 16 b1 0b 2a
        E 16 b1 0b 22
        E 0 81 4c 00
        E 0 91 4a 22
        E 16 b1 0b 2a
        E 16 b1 0b 33
        E 16 b1 0b 3b
        E 16 b1 0b 44
        E 16 b1 0b 3b
        E 16 b1 0b 33
        E 16 b1 0b 2a
        E 16 b1 0b 22
        E 16 b1 0b 2a
        E 16 b1 0b 33
        E 16 b1 0b 3b
        E 16 b1 0b 44
        E 16 b1 0b 3b
        E 16 b1 0b 33
        E 16 b1 0b 2a
        E 16 b1 0b 22
        E 16 b1 0b 2a
        E 16 b1 0b 33
        E 16 b1 0b 3b
        E 16 b1 0b 44
        E 16 b1 0b 3b
        E 16 b1 0b 33
        E 16 b1 0b 2a
        E 16 b1 0b 22
        E 0 81 4a 00
        E 0 91 4c 22
        E 16 b1 0b 2a
        E 16 b1 0b 33
        E 16 b1 0b 3b
        E 16 b1 0b 44
        E 16 b1 0b 3b
        E 16 b1 0b 33
        E 16 b1 0b 2a
        E 16 b1 0b 22
        E 16 b1 0b 2a
        E 16 b1 0b 33
        E 16 b1 0b 3b
        E 16 b1 0b 44
        E 16 b1 0b 3b
        E 16 b1 0b 33
        E 16 b1 0b 2a
        E 16 b1 0b 22
        E 16 b1 0b 2a
        E 16 b1 0b 33
        E 16 b1 0b 3b
        E 16 b1 0b 44
        E 16 b1 0b 3b
        E 16 b1 0b 33
        E 16 b1 0b 2a
        E 16 b1 0b 22
        E 0 81 4c 00
        E 0 91 3c 22
        E 16 b1 0b 2a
        E 16 b1 0b 33
        E 16 b1 0b 3b
        E 16 b1 0b 44
        E 16 b1 0b 3b
        E 16 b1 0b 33
        E 16 b1 0b 2a
        E 16 b1 0b 22
        E 0 81 3c 00
        E 0 91 37 22
        E 16 b1 0b 2a
        E 16 b1 0b 33
        E 16 b1 0b 3b
        E 16 b1 0b 44
        E 16 b1 0b 3b
        E 16 b1 0b 33
        E 16 b1 0b 2a
        E 16 b1 0b 22
        E 0 81 37 00
        E 0 91 3c 22
        E 16 b1 0b 2a
        E 16 b1 0b 33
        E 16 b1 0b 3b
        E 16 b1 0b 44
        E 16 b1 0b 3b
        E 16 b1 0b 33
        E 16 b1 0b 2a
        E 16 b1 0b 22
        E 0 81 3c 00
        E 0 91 40 22
        E 16 b1 0b 2a
        E 16 b1 0b 33
        E 16 b1 0b 3b
        E 16 b1 0b 44
        E 16 b1 0b 3b
        E 16 b1 0b 33
        E 16 b1 0b 2a
        E 16 b1 0b 22
        E 0 81 40 00
        E 0 91 3c 22
        E 16 b1 0b 2a
        E 16 b1 0b 33
        E 16 b1 0b 3b
        E 16 b1 0b 44
        E 16 b1 0b 3b
        E 16 b1 0b 33
        E 16 b1 0b 2a
        E 16 b1 0b 22
        E 0 81 3c 00
        E 0 91 40 22
        E 16 b1 0b 2a
        E 16 b1 0b 33
        E 16 b1 0b 3b
        E 16 b1 0b 44
        E 16 b1 0b 3b
        E 16 b1 0b 33
        E 16 b1 0b 2a
        E 16 b1 0b 22
        E 0 81 40 00
        E 0 91 43 22
        E 16 b1 0b 2a
        E 16 b1 0b 33
        E 16 b1 0b 3b
        E 16 b1 0b 44
        E 16 b1 0b 3b
        E 16 b1 0b 33
        E 16 b1 0b 2a
        E 16 81 43 00
        E 256 b1 0b 22
        E 0 91 40 22
        E 16 b1 0b 2a
        E 16 b1 0b 33
        E 16 b1 0b 3b
        E 16 b1 0b 44
        E 16 b1 0b 3b
        E 16 b1 0b 33
        E 16 b1 0b 2a
        E 16 81 40 00
        E 128 b1 0b 22
        E 0 91 3c 22
        E 16 b1 0b 2a
        E 16 b1 0b 33
        E 16 b1 0b 3b
        E 16 b1 0b 44
        E 16 b1 0b 3b
        E 16 b1 0b 33
        E 16 b1 0b 2a
        E 16 b1 0b 22
        E 0 81 3c 00
        E 0 91 41 22
        E 16 b1 0b 2a
        E 16 b1 0b 33
        E 16 b1 0b 3b
        E 16 b1 0b 44
        E 16 b1 0b 3b
        E 16 b1 0b 33
        E 16 b1 0b 2a
        E 16 b1 0b 44
        E 256 b1 0b 22
        E 0 81 41 00
        E 0 91 40 22
        E 16 b1 0b 2a
        E 16 b1 0b 33
        E 16 b1 0b 3b
        E 16 b1 0b 44
        E 16 b1 0b 3b
        E 16 b1 0b 33
        E 16 b1 0b 2a
        E 16 81 40 00
        E 128 b1 0b 22
        E 0 91 3e 22
        E 16 b1 0b 2a
        E 16 b1 0b 33
        E 16 b1 0b 3b
        E 16 b1 0b 44
        E 16 b1 0b 3b
        E 16 b1 0b 33
        E 16 b1 0b 2a
        E 16 b1 0b 22
        E 0 81 3e 00
        E 0 91 3c 22
        E 16 b1 0b 2a
        E 16 b1 0b 33
        E 16 b1 0b 3b
        E 16 b1 0b 44
        E 16 b1 0b 3b
        E 16 b1 0b 33
        E 16 b1 0b 2a
        E 16 b1 0b 44
        E 256 b1 0b 22
        E 0 81 3c 00
        E 0 91 3e 22
        E 16 b1 0b 2a
        E 16 b1 0b 33
        E 16 b1 0b 3b
        E 16 b1 0b 44
        E 16 b1 0b 3b
        E 16 b1 0b 33
        E 16 b1 0b 2a
        E 16 b1 0b 44
        E 256 b1 0b 22
        E 0 81 3e 00
        E 0 91 37 22
        E 16 b1 0b 2a
        E 16 b1 0b 33
        E 16 b1 0b 3b
        E 16 b1 0b 44
        E 16 b1 0b 3b
        E 16 b1 0b 33
        E 16 b1 0b 2a
        E 16 b1 0b 22
        E 0 81 37 00
        E 0 91 32 22
        E 16 b1 0b 2a
        E 16 b1 0b 33
        E 16 b1 0b 3b
        E 16 b1 0b 44
        E 16 b1 0b 3b
        E 16 b1 0b 33
        E 16 b1 0b 2a
        E 16 b1 0b 22
        E 0 81 32 00
        E 0 91 43 22
        E 16 b1 0b 2a
        E 16 b1 0b 33
        E 16 b1 0b 3b
        E 16 b1 0b 44
        E 16 b1 0b 3b
        E 16 b1 0b 33
        E 16 b1 0b 2a
        E 16 b1 0b 22
        E 0 81 43 00
        E 0 91 3b 22
        E 16 b1 0b 2a
        E 16 b1 0b 33
        E 16 b1 0b 3b
        E 16 b1 0b 44
        E 16 b1 0b 3b
        E 16 b1 0b 33
        E 16 b1 0b 2a
        E 16 b1 0b 22
        E 0 81 3b 00
        E 0 91 37 22
        E 16 b1 0b 2a
        E 16 b1 0b 33
        E 16 b1 0b 3b
        E 16 b1 0b 44
        E 16 b1 0b 3b
        E 16 b1 0b 33
        E 16 b1 0b 2a
        E 16 b1 0b 22
        E 0 81 37 00
        E 0 91 3b 22
        E 16 b1 0b 2a
        E 16 b1 0b 33
        E 16 b1 0b 3b
        E 16 b1 0b 44
        E 16 b1 0b 3b
        E 16 b1 0b 33
        E 16 b1 0b 2a
        E 16 b1 0b 22
        E 0 81 3b 00
        E 0 91 3e 22
        E 16 b1 0b 2a
        E 16 b1 0b 33
        E 16 b1 0b 3b
        E 16 b1 0b 44
        E 16 b1 0b 3b
        E 16 b1 0b 33
        E 16 b1 0b 2a
        E 16 81 3e 00
        E 256 b1 0b 22
        E 0 91 3b 22
        E 16 b1 0b 2a
        E 16 b1 0b 33
        E 16 b1 0b 3b
        E 16 b1 0b 44
        E 16 b1 0b 3b
        E 16 b1 0b 33
        E 16 b1 0b 2a
        E 16 81 3b 00
        E 128 b1 0b 22
        E 0 91 37 22
        E 16 b1 0b 2a
        E 16 b1 0b 33
        E 16 b1 0b 3b
        E 16 b1 0b 44
        E 16 b1 0b 3b
        E 16 b1 0b 33
        E 16 b1 0b 2a
        E 16 b1 0b 22
        E 0 81 37 00
        E 0 91 39 22
        E 16 b1 0b 2a
        E 16 b1 0b 33
        E 16 b1 0b 3b
        E 16 b1 0b 44
        E 16 b1 0b 3b
        E 16 b1 0b 33
        E 16 b1 0b 2a
        E 16 b1 0b 44
        E 256 b1 0b 22
        E 0 81 39 00
        E 0 91 3b 22
        E 16 b1 0b 2a
        E 16 b1 0b 33
        E 16 b1 0b 3b
        E 16 b1 0b 44
        E 16 b1 0b 3b
        E 16 b1 0b 33
        E 16 b1 0b 2a
        E 16 b1 0b 44
        E 256 b1 0b 22
        E 0 81 3b 00
        E 0 91 3e 22
        E 16 b1 0b 2a
        E 16 b1 0b 33
        E 16 b1 0b 3b
        E 16 b1 0b 44
        E 16 b1 0b 3b
        E 16 b1 0b 33
        E 16 b1 0b 2a
        E 16 b1 0b 44
        E 256 b1 0b 22
        E 0 81 3e 00
        E 0 91 40 22
        E 16 b1 0b 2a
        E 16 b1 0b 33
        E 16 b1 0b 3b
        E 16 b1 0b 44
        E 16 b1 0b 3b
        E 16 b1 0b 33
        E 16 b1 0b 2a
        E 16 b1 0b 44
        E 256 b1 0b 22
        E 0 81 40 00
        E 0 91 30 22
        E 16 b1 0b 2a
        E 16 b1 0b 33
        E 16 b1 0b 3b
        E 16 b1 0b 44
        E 16 b1 0b 3b
        E 16 b1 0b 33
        E 16 b1 0b 2a
        E 16 b1 0b 22
        E 0 81 30 00
        E 0 91 34 22
        E 16 b1 0b 2a
        E 16 b1 0b 33
        E 16 b1 0b 3b
        E 16 b1 0b 44
        E 16 b1 0b 3b
        E 16 b1 0b 33
        E 16 b1 0b 2a
        E 16 b1 0b 22
        E 0 81 34 00
        E 0 91 37 22
        E 16 b1 0b 2a
        E 16 b1 0b 33
        E 16 b1 0b 3b
        E 16 b1 0b 44
        E 16 b1 0b 3b
        E 16 b1 0b 33
        E 16 b1 0b 2a
        E 16 b1 0b 22
        E 0 81 37 00
        E 0 91 30 22
        E 16 b1 0b 2a
        E 16 b1 0b 33
        E 16 b1 0b 3b
        E 16 b1 0b 44
        E 16 b1 0b 3b
        E 16 b1 0b 33
        E 16 b1 0b 2a
        E 16 b1 0b 22
        E 0 81 30 00
        E 0 91 37 22
        E 16 b1 0b 2a
        E 16 b1 0b 33
        E 16 b1 0b 3b
        E 16 b1 0b 44
        E 16 b1 0b 3b
        E 16 b1 0b 33
        E 16 b1 0b 2a
        E 16 b1 0b 22
        E 0 81 37 00
        E 0 91 34 22
        E 16 b1 0b 2a
        E 16 b1 0b 33
        E 16 b1 0b 3b
        E 16 b1 0b 44
        E 16 b1 0b 3b
        E 16 b1 0b 33
        E 16 b1 0b 2a
        E 16 b1 0b 22
        E 0 81 34 00
        E 0 91 33 22
        E 16 b1 0b 2a
        E 16 b1 0b 33
        E 16 b1 0b 3b
        E 16 b1 0b 44
        E 16 b1 0b 3b
        E 16 b1 0b 33
        E 16 b1 0b 2a
        E 16 b1 0b 22
        E 0 81 33 00
        E 0 91 37 22
        E 16 b1 0b 2a
        E 16 b1 0b 33
        E 16 b1 0b 3b
        E 16 b1 0b 44
        E 16 b1 0b 3b
        E 16 b1 0b 33
        E 16 b1 0b 2a
        E 16 b1 0b 22
        E 0 81 37 00
        E 0 91 3a 22
        E 16 b1 0b 2a
        E 16 b1 0b 33
        E 16 b1 0b 3b
        E 16 b1 0b 44
        E 16 b1 0b 3b
        E 16 b1 0b 33
        E 16 b1 0b 2a
        E 16 b1 0b 22
        E 0 81 3a 00
        E 0 91 30 22
        E 16 b1 0b 2a
        E 16 b1 0b 33
        E 16 b1 0b 3b
        E 16 b1 0b 44
        E 16 b1 0b 3b
        E 16 b1 0b 33
        E 16 b1 0b 2a
        E 16 b1 0b 22
        E 0 81 30 00
        E 0 91 3a 22
        E 16 b1 0b 2a
        E 16 b1 0b 33
        E 16 b1 0b 3b
        E 16 b1 0b 44
        E 16 b1 0b 3b
        E 16 b1 0b 33
        E 16 b1 0b 2a
        E 16 b1 0b 22
        E 0 81 3a 00
        E 0 91 37 22
        E 16 b1 0b 2a
        E 16 b1 0b 33
        E 16 b1 0b 3b
        E 16 b1 0b 44
        E 16 b1 0b 3b
        E 16 b1 0b 33
        E 16 b1 0b 2a
        E 16 b1 0b 22
        E 0 81 37 00
        E 0 91 35 22
        E 16 b1 0b 2a
        E 16 b1 0b 33
        E 16 b1 0b 3b
        E 16 b1 0b 44
        E 16 b1 0b 3b
        E 16 b1 0b 33
        E 16 b1 0b 2a
        E 16 b1 0b 22
        E 0 81 35 00
        E 0 91 39 22
        E 16 b1 0b 2a
        E 16 b1 0b 33
        E 16 b1 0b 3b
        E 16 b1 0b 44
        E 16 b1 0b 3b
        E 16 b1 0b 33
        E 16 b1 0b 2a
        E 16 b1 0b 22
        E 0 81 39 00
        E 0 91 30 22
        E 16 b1 0b 2a
        E 16 b1 0b 33
        E 16 b1 0b 3b
        E 16 b1 0b 44
        E 16 b1 0b 3b
        E 16 b1 0b 33
        E 16 b1 0b 2a
        E 16 b1 0b 22
        E 0 81 30 00
        E 0 91 39 22
        E 16 b1 0b 2a
        E 16 b1 0b 33
        E 16 b1 0b 3b
        E 16 b1 0b 44
        E 16 b1 0b 3b
        E 16 b1 0b 33
        E 16 b1 0b 2a
        E 16 b1 0b 22
        E 0 81 39 00
        E 0 91 35 22
        E 16 b1 0b 2a
        E 16 b1 0b 33
        E 16 b1 0b 3b
        E 16 b1 0b 44
        E 16 b1 0b 3b
        E 16 b1 0b 33
        E 16 b1 0b 2a
        E 16 b1 0b 22
        E 0 81 35 00
        E 0 91 32 22
        E 16 b1 0b 2a
        E 16 b1 0b 33
        E 16 b1 0b 3b
        E 16 b1 0b 44
        E 16 b1 0b 3b
        E 16 b1 0b 33
        E 16 b1 0b 2a
        E 16 b1 0b 22
        E 0 81 32 00
        E 0 91 31 22
        E 16 b1 0b 2a
        E 16 b1 0b 33
        E 16 b1 0b 3b
        E 16 b1 0b 44
        E 16 b1 0b 3b
        E 16 b1 0b 33
        E 16 b1 0b 2a
        E 16 b1 0b 22
        E 0 81 31 00
        E 0 91 35 22
        E 16 b1 0b 2a
        E 16 b1 0b 33
        E 16 b1 0b 3b
        E 16 b1 0b 44
        E 16 b1 0b 3b
        E 16 b1 0b 33
        E 16 b1 0b 2a
        E 16 b1 0b 22
        E 0 81 35 00
        E 0 91 37 22
        E 16 b1 0b 2a
        E 16 b1 0b 33
        E 16 b1 0b 3b
        E 16 b1 0b 44
        E 16 b1 0b 3b
        E 16 b1 0b 33
        E 16 b1 0b 2a
        E 16 b1 0b 22
        E 0 81 37 00
        E 0 91 38 22
        E 16 b1 0b 2a
        E 16 b1 0b 33
        E 16 b1 0b 3b
        E 16 b1 0b 44
        E 16 b1 0b 3b
        E 16 b1 0b 33
        E 16 b1 0b 2a
        E 16 b1 0b 22
        E 0 81 38 00
        E 0 91 37 22
        E 16 b1 0b 2a
        E 16 b1 0b 33
        E 16 b1 0b 3b
        E 16 b1 0b 44
        E 16 b1 0b 3b
        E 16 b1 0b 33
        E 16 b1 0b 2a
        E 16 b1 0b 22
        E 0 81 37 00
        E 0 91 35 22
        E 16 b1 0b 2a
        E 16 b1 0b 33
        E 16 b1 0b 3b
        E 16 b1 0b 44
        E 16 b1 0b 3b
        E 16 b1 0b 33
        E 16 b1 0b 2a
        E 16 b1 0b 22
        E 0 81 35 00
        E 0 91 34 22
        E 16 b1 0b 2a
        E 16 b1 0b 33
        E 16 b1 0b 3b
        E 16 b1 0b 44
        E 16 b1 0b 3b
        E 16 b1 0b 33
        E 16 b1 0b 2a
        E 16 b1 0b 44
        E 1408 b1 0b 22
        E 0 81 34 00
        E 0 91 18 22
        E 16 b1 0b 2a
        E 16 b1 0b 33
        E 16 b1 0b 3b
        E 16 b1 0b 44
        E 16 b1 0b 3b
        E 16 b1 0b 33
        E 16 b1 0b 2a
        E 16 b1 0b 44
        E 1408 b1 0b 22
        E 0 81 18 00
        E 0 91 2f 22
        E 16 b1 0b 2a
        E 16 b1 0b 33
        E 16 b1 0b 3b
        E 16 b1 0b 44
        E 16 b1 0b 3b
        E 16 b1 0b 33
        E 16 b1 0b 2a
        E 16 b1 0b 44
        E 1408 b1 0b 22
        E 0 81 2f 00
        E 0 91 26 22
        E 16 b1 0b 2a
        E 16 b1 0b 33
        E 16 b1 0b 3b
        E 16 b1 0b 44
        E 16 b1 0b 3b
        E 16 b1 0b 33
        E 16 b1 0b 2a
        E 16 b1 0b 44
        E 256 b1 0b 22
        E 0 81 26 00
        E 0 91 2b 22
        E 16 b1 0b 2a
        E 16 b1 0b 33
        E 16 b1 0b 3b
        E 16 b1 0b 44
        E 16 b1 0b 3b
        E 16 b1 0b 33
        E 16 b1 0b 2a
        E 16 b1 0b 44
        E 256 b1 0b 22
        E 0 81 2b 00
        E 0 91 2f 22
        E 16 b1 0b 2a
        E 16 b1 0b 33
        E 16 b1 0b 3b
        E 16 b1 0b 44
        E 16 b1 0b 3b
        E 16 b1 0b 33
        E 16 b1 0b 2a
        E 16 b1 0b 44
        E 256 b1 0b 22
        E 0 81 2f 00
        E 0 91 30 22
        E 16 b1 0b 2a
        E 16 b1 0b 33
        E 16 b1 0b 3b
        E 16 b1 0b 44
        E 16 b1 0b 3b
        E 16 b1 0b 33
        E 16 b1 0b 2a
        E 16 b1 0b 44
        E 256 b1 0b 22
        E 0 81 30 00
        E 0 91 2d 22
        E 16 b1 0b 2a
        E 16 b1 0b 33
        E 16 b1 0b 3b
        E 16 b1 0b 44
        E 16 b1 0b 3b
        E 16 b1 0b 33
        E 16 b1 0b 2a
        E 16 b1 0b 44
        E 1408 b1 0b 22
        E 0 81 2d 00
        E 0 91 35 22
        E 16 b1 0b 2a
        E 16 b1 0b 33
        E 16 b1 0b 3b
        E 16 b1 0b 44
        E 16 b1 0b 3b
        E 16 b1 0b 33
        E 16 b1 0b 2a
        E 16 b1 0b 44
        E 256 b1 0b 22
        E 0 81 35 00
        E 0 91 37 22
        E 16 b1 0b 2a
        E 16 b1 0b 33
        E 16 b1 0b 3b
        E 16 b1 0b 44
        E 16 b1 0b 3b
        E 16 b1 0b 33
        E 16 b1 0b 2a
        E 16 81 37 00
        E 128 b1 0b 22
        E 0 91 39 22
        E 16 b1 0b 2a
        E 16 b1 0b 33
        E 16 b1 0b 3b
        E 16 b1 0b 44
        E 16 b1 0b 3b
        E 16 b1 0b 33
        E 16 b1 0b 2a
        E 16 b1 0b 22
        E 0 81 39 00
        E 0 91 3c 22
        E 16 b1 0b 2a
        E 16 b1 0b 33
        E 16 b1 0b 3b
        E 16 b1 0b 44
        E 16 b1 0b 3b
        E 16 b1 0b 33
        E 16 b1 0b 2a
        E 16 b1 0b 44
        E 256 b1 0b 22
        E 0 81 3c 00
        E 0 91 39 22
        E 16 b1 0b 2a
        E 16 b1 0b 33
        E 16 b1 0b 3b
        E 16 b1 0b 44
        E 16 b1 0b 3b
        E 16 b1 0b 33
        E 16 b1 0b 2a
        E 16 b1 0b 44
        E 256 b1 0b 22
        E 0 81 39 00
        E 0 91 2f 22
        E 16 b1 0b 2a
        E 16 b1 0b 33
        E 16 b1 0b 3b
        E 16 b1 0b 44
        E 16 b1 0b 3b
        E 16 b1 0b 33
        E 16 b1 0b 2a
        E 16 b1 0b 44
        E 1408 b1 0b 22
        E 0 81 2f 00
        E 0 91 26 22
        E 16 b1 0b 2a
        E 16 b1 0b 33
        E 16 b1 0b 3b
        E 16 b1 0b 44
        E 16 b1 0b 3b
        E 16 b1 0b 33
        E 16 b1 0b 2a
        E 16 b1 0b 44
        E 256 b1 0b 22
        E 0 81 26 00
        E 0 91 2b 22
        E 16 b1 0b 2a
        E 16 b1 0b 33
        E 16 b1 0b 3b
        E 16 b1 0b 44
        E 16 b1 0b 3b
        E 16 b1 0b 33
        E 16 b1 0b 2a
        E 16 b1 0b 44
        E 256 b1 0b 22
        E 0 81 2b 00
        E 0 91 2f 22
        E 16 b1 0b 2a
        E 16 b1 0b 33
        E 16 b1 0b 3b
        E 16 b1 0b 44
        E 16 b1 0b 3b
        E 16 b1 0b 33
        E 16 b1 0b 2a
        E 16 b1 0b 44
        E 256 b1 0b 22
        E 0 81 2f 00
        E 0 91 30 22
        E 16 b1 0b 2a
        E 16 b1 0b 33
        E 16 b1 0b 3b
        E 16 b1 0b 44
        E 16 b1 0b 3b
        E 16 b1 0b 33
        E 16 b1 0b 2a
        E 16 b1 0b 44
        E 256 b1 0b 22
        E 0 81 30 00
        E 0 91 2d 22
        E 16 b1 0b 2a
        E 16 b1 0b 33
        E 16 b1 0b 3b
        E 16 b1 0b 44
        E 16 b1 0b 3b
        E 16 b1 0b 33
        E 16 b1 0b 2a
        E 16 b1 0b 44
        E 1408 b1 0b 22
        E 0 81 2d 00
        E 0 91 35 22
        E 16 b1 0b 2a
        E 16 b1 0b 33
        E 16 b1 0b 3b
        E 16 b1 0b 44
        E 16 b1 0b 3b
        E 16 b1 0b 33
        E 16 b1 0b 2a
        E 16 b1 0b 44
        E 256 b1 0b 22
        E 0 81 35 00
        E 0 91 37 22
        E 16 b1 0b 2a
        E 16 b1 0b 33
        E 16 b1 0b 3b
        E 16 b1 0b 44
        E 16 b1 0b 3b
        E 16 b1 0b 33
        E 16 b1 0b 2a
        E 16 81 37 00
        E 128 b1 0b 22
        E 0 91 39 22
        E 16 b1 0b 2a
        E 16 b1 0b 33
        E 16 b1 0b 3b
        E 16 b1 0b 44
        E 16 b1 0b 3b
        E 16 b1 0b 33
        E 16 b1 0b 2a
        E 16 b1 0b 22
        E 0 81 39 00
        E 0 91 3c 22
        E 16 b1 0b 2a
        E 16 b1 0b 33
        E 16 b1 0b 3b
        E 16 b1 0b 44
        E 16 b1 0b 3b
        E 16 b1 0b 33
        E 16 b1 0b 2a
        E 16 b1 0b 44
        E 256 b1 0b 22
        E 0 81 3c 00
        E 0 91 39 22
        E 16 b1 0b 2a
        E 16 b1 0b 33
        E 16 b1 0b 3b
        E 16 b1 0b 44
        E 16 b1 0b 3b
        E 16 b1 0b 33
        E 16 b1 0b 2a
        E 16 b1 0b 44
        E 256 b1 0b 22
        E 0 81 39 00
        E 0 91 2d 22
        E 16 b1 0b 2a
        E 16 b1 0b 33
        E 16 b1 0b 3b
        E 16 b1 0b 44
        E 16 b1 0b 3b
        E 16 b1 0b 33
        E 16 b1 0b 2a
        E 16 b1 0b 44
        E 1408 81 2d 00
        E 768 b1 0b 22
        E 0 91 2d 22
        E 16 b1 0b 2a
        E 16 b1 0b 33
        E 16 b1 0b 3b
        E 16 b1 0b 44
        E 16 b1 0b 3b
        E 16 b1 0b 33
        E 16 b1 0b 2a
        E 16 b1 0b 44
        E 256 b1 0b 22
        E 0 81 2d 00
        E 0 91 2e 22
        E 16 b1 0b 2a
        E 16 b1 0b 33
        E 16 b1 0b 3b
        E 16 b1 0b 44
        E 16 b1 0b 3b
        E 16 b1 0b 33
        E 16 b1 0b 2a
        E 16 b1 0b 44
        E 256 b1 0b 22
        E 0 81 2e 00
        E 0 91 2b 22
        E 16 b1 0b 2a
        E 16 b1 0b 33
        E 16 b1 0b 3b
        E 16 b1 0b 44
        E 16 b1 0b 3b
        E 16 b1 0b 33
        E 16 b1 0b 2a
        E 16 b1 0b 44
        E 1408 81 2b 00
        E 768 b1 0b 22
        E 0 91 29 22
        E 16 b1 0b 2a
        E 16 b1 0b 33
        E 16 b1 0b 3b
        E 16 b1 0b 44
        E 16 b1 0b 3b
        E 16 b1 0b 33
        E 16 b1 0b 2a
        E 16 b1 0b 44
        E 256 b1 0b 22
        E 0 81 29 00
        E 0 91 25 22
        E 16 b1 0b 2a
        E 16 b1 0b 33
        E 16 b1 0b 3b
        E 16 b1 0b 44
        E 16 b1 0b 3b
        E 16 b1 0b 33
        E 16 b1 0b 2a
        E 16 b1 0b 44
        E 256 b1 0b 22
        E 0 81 25 00
        E 0 91 30 22
        E 16 b1 0b 2a
        E 16 b1 0b 33
        E 16 b1 0b 3b
        E 16 b1 0b 44
        E 16 b1 0b 3b
        E 16 b1 0b 33
        E 16 b1 0b 2a
        E 16 b1 0b 44
        E 1408 81 30 00
        E 768 b1 0b 22
        E 0 91 2d 22
        E 16 b1 0b 2a
        E 16 b1 0b 33
        E 16 b1 0b 3b
        E 16 b1 0b 44
        E 16 b1 0b 3b
        E 16 b1 0b 33
        E 16 b1 0b 2a
        E 16 b1 0b 44
        E 256 b1 0b 22
        E 0 81 2d 00
        E 0 91 34 22
        E 16 b1 0b 2a
        E 16 b1 0b 33
        E 16 b1 0b 3b
        E 16 b1 0b 44
        E 16 b1 0b 3b
        E 16 b1 0b 33
        E 16 b1 0b 2a
        E 16 b1 0b 44
        E 256 b1 0b 22
        E 0 81 34 00
        E 0 91 32 22
        E 16 b1 0b 2a
        E 16 b1 0b 33
        E 16 b1 0b 3b
        E 16 b1 0b 44
        E 16 b1 0b 3b
        E 16 b1 0b 33
        E 16 b1 0b 2a
        E 16 b1 0b 44
        E 1408 81 32 00
        E 768 b1 0b 22
        E 0 91 2b 22
        E 16 b1 0b 2a
        E 16 b1 0b 33
        E 16 b1 0b 3b
        E 16 b1 0b 44
        E 16 b1 0b 3b
        E 16 b1 0b 33
        E 16 b1 0b 2a
        E 16 b1 0b 44
        E 640 b1 0b 22
        E 0 81 2b 00
        E 0 91 29 22
        E 16 b1 0b 2a
        E 16 b1 0b 33
        E 16 b1 0b 3b
        E 16 b1 0b 44
        E 16 b1 0b 3b
        E 16 b1 0b 33
        E 16 b1 0b 2a
        E 16 b1 0b 44
        E 1408 b1 0b 22
        E 0 81 29 00
        E 0 91 26 22
        E 16 b1 0b 2a
        E 16 b1 0b 33
        E 16 b1 0b 3b
        E 16 b1 0b 44
        E 16 b1 0b 3b
        E 16 b1 0b 33
        E 16 b1 0b 2a
        E 16 b1 0b 44
        E 256 b1 0b 22
        E 0 81 26 00
        E 0 91 28 22
        E 16 b1 0b 2a
        E 16 b1 0b 33
        E 16 b1 0b 3b
        E 16 b1 0b 44
        E 16 b1 0b 3b
        E 16 b1 0b 33
        E 16 b1 0b 2a
        E 16 b1 0b 44
        E 256 b1 0b 22
        E 0 81 28 00
        E 0 91 29 22
        E 16 b1 0b 2a
        E 16 b1 0b 33
        E 16 b1 0b 3b
        E 16 b1 0b 44
        E 16 b1 0b 3b
        E 16 b1 0b 33
        E 16 b1 0b 2a
        E 16 b1 0b 44
        E 256 b1 0b 22
        E 0 81 29 00
        E 0 91 2b 22
        E 16 b1 0b 2a
        E 16 b1 0b 33
        E 16 b1 0b 3b
        E 16 b1 0b 44
        E 16 b1 0b 3b
        E 16 b1 0b 33
        E 16 b1 0b 2a
        E 16 b1 0b 44
        E 256 b1 0b 22
        E 0 81 2b 00
        E 0 91 29 22
        E 16 b1 0b 2a
        E 16 b1 0b 33
        E 16 b1 0b 3b
        E 16 b1 0b 44
        E 16 b1 0b 3b
        E 16 b1 0b 33
        E 16 b1 0b 2a
        E 16 b1 0b 44
        E 1408 b1 0b 22
        E 16 b1 0b 2a
        E 16 b1 0b 33
        E 16 b1 0b 3b
        E 16 b1 0b 44
        E 16 b1 0b 3b
        E 16 b1 0b 33
        E 16 b1 0b 2a
        E 16 b1 0b 44
        E 640 b1 0b 22
        E 0 81 29 00
        E 0 91 2b 22
        E 16 b1 0b 2a
        E 16 b1 0b 33
        E 16 b1 0b 3b
        E 16 b1 0b 44
        E 16 b1 0b 3b
        E 16 b1 0b 33
        E 16 b1 0b 2a
        E 16 b1 0b 44
        E 640 b1 0b 22
        E 0 81 2b 00
        E 0 91 29 22
        E 16 b1 0b 2a
        E 16 b1 0b 33
        E 16 b1 0b 3b
        E 16 b1 0b 44
        E 16 b1 0b 3b
        E 16 b1 0b 33
        E 16 b1 0b 2a
        E 16 b1 0b 44
        E 640 b1 0b 22
        E 0 81 29 00
        E 0 91 21 22
        E 16 b1 0b 2a
        E 16 b1 0b 33
        E 16 b1 0b 3b
        E 16 b1 0b 44
        E 16 b1 0b 3b
        E 16 b1 0b 33
        E 16 b1 0b 2a
        E 16 b1 0b 44
        E 256 b1 0b 22
        E 0 81 21 00
        E 0 91 24 22
        E 16 b1 0b 2a
        E 16 b1 0b 33
        E 16 b1 0b 3b
        E 16 b1 0b 44
        E 16 b1 0b 3b
        E 16 b1 0b 33
        E 16 b1 0b 2a
        E 16 b1 0b 44
        E 256 b1 0b 22
        E 0 81 24 00
        E 0 91 25 22
        E 16 b1 0b 2a
        E 16 b1 0b 33
        E 16 b1 0b 3b
        E 16 b1 0b 44
        E 16 b1 0b 3b
        E 16 b1 0b 33
        E 16 b1 0b 2a
        E 16 b1 0b 44
        E 640 b1 0b 22
        E 0 81 25 00
        E 0 91 28 22
        E 16 b1 0b 2a
        E 16 b1 0b 33
        E 16 b1 0b 3b
        E 16 b1 0b 44
        E 16 b1 0b 3b
        E 16 b1 0b 33
        E 16 b1 0b 2a
        E 16 b1 0b 44
        E 256 b1 0b 22
        E 0 81 28 00
        E 0 91 2b 22
        E 16 b1 0b 2a
        E 16 b1 0b 33
        E 16 b1 0b 3b
        E 16 b1 0b 44
        E 16 b1 0b 3b
        E 16 b1 0b 33
        E 16 b1 0b 2a
        E 16 b1 0b 44
        E 256 b1 0b 22
        E 0 81 2b 00
        E 0 91 29 22
        E 16 b1 0b 2a
        E 16 b1 0b 33
        E 16 b1 0b 3b
        E 16 b1 0b 44
        E 16 b1 0b 3b
        E 16 b1 0b 33
        E 16 b1 0b 2a
        E 16 b1 0b 44
        E 640 b1 0b 22
        E 0 81 29 00
        E 0 91 21 22
        E 16 b1 0b 2a
        E 16 b1 0b 33
        E 16 b1 0b 3b
        E 16 b1 0b 44
        E 16 b1 0b 3b
        E 16 b1 0b 33
        E 16 b1 0b 2a
        E 16 b1 0b 44
        E 256 b1 0b 22
        E 0 81 21 00
        E 0 91 24 22
        E 16 b1 0b 2a
        E 16 b1 0b 33
        E 16 b1 0b 3b
        E 16 b1 0b 44
        E 16 b1 0b 3b
        E 16 b1 0b 33
        E 16 b1 0b 2a
        E 16 b1 0b 44
        E 256 b1 0b 22
        E 0 81 24 00
        E 0 91 25 22
        E 16 b1 0b 2a
        E 16 b1 0b 33
        E 16 b1 0b 3b
        E 16 b1 0b 44
        E 16 b1 0b 3b
        E 16 b1 0b 33
        E 16 b1 0b 2a
        E 16 b1 0b 44
        E 640 b1 0b 22
        E 0 81 25 00
        E 0 91 28 22
        E 16 b1 0b 2a
        E 16 b1 0b 33
        E 16 b1 0b 3b
        E 16 b1 0b 44
        E 16 b1 0b 3b
        E 16 b1 0b 33
        E 16 b1 0b 2a
        E 16 b1 0b 44
        E 256 b1 0b 22
        E 0 81 28 00
        E 0 91 2b 22
        E 16 b1 0b 2a
        E 16 b1 0b 33
        E 16 b1 0b 3b
        E 16 b1 0b 44
        E 16 b1 0b 3b
        E 16 b1 0b 33
        E 16 b1 0b 2a
        E 16 b1 0b 44
        E 256 b1 0b 22
        E 0 81 2b 00
        E 0 91 2d 22
        E 16 b1 0b 2a
        E 16 b1 0b 33
        E 16 b1 0b 3b
        E 16 b1 0b 44
        E 16 b1 0b 3b
        E 16 b1 0b 33
        E 16 b1 0b 2a
        E 16 b1 0b 44
        E 640 b1 0b 22
        E 0 81 2d 00
        E 0 91 29 22
        E 16 b1 0b 2a
        E 16 b1 0b 33
        E 16 b1 0b 3b
        E 16 b1 0b 44
        E 16 b1 0b 3b
        E 16 b1 0b 33
        E 16 b1 0b 2a
        E 16 b1 0b 44
        E 256 b1 0b 22
        E 0 81 29 00
        E 0 91 2d 22
        E 16 b1 0b 2a
        E 16 b1 0b 33
        E 16 b1 0b 3b
        E 16 b1 0b 44
        E 16 b1 0b 3b
        E 16 b1 0b 33
        E 16 b1 0b 2a
        E 16 b1 0b 44
        E 256 b1 0b 22
        E 0 81 2d 00
        E 0 91 2b 22
        E 16 b1 0b 2a
        E 16 b1 0b 33
        E 16 b1 0b 3b
        E 16 b1 0b 44
        E 16 b1 0b 3b
        E 16 b1 0b 33
        E 16 b1 0b 2a
        E 16 b1 0b 44
        E 256 b1 0b 22
        E 0 81 2b 00
        E 0 91 2d 22
        E 16 b1 0b 2a
        E 16 b1 0b 33
        E 16 b1 0b 3b
        E 16 b1 0b 44
        E 16 b1 0b 3b
        E 16 b1 0b 33
        E 16 b1 0b 2a
        E 16 b1 0b 44
        E 256 b1 0b 22
        E 0 81 2d 00
        E 0 91 2e 22
        E 16 b1 0b 2a
        E 16 b1 0b 33
        E 16 b1 0b 3b
        E 16 b1 0b 44
        E 16 b1 0b 3b
        E 16 b1 0b 33
        E 16 b1 0b 2a
        E 16 b1 0b 44
        E 256 b1 0b 22
        E 0 81 2e 00
        E 0 91 2b 22
        E 16 b1 0b 2a
        E 16 b1 0b 33
        E 16 b1 0b 3b
        E 16 b1 0b 44
        E 16 b1 0b 3b
        E 16 b1 0b 33
        E 16 b1 0b 2a
        E 16 b1 0b 44
        E 256 b1 0b 22
        E 0 81 2b 00
        E 0 91 2d 22
        E 16 b1 0b 2a
        E 16 b1 0b 33
        E 16 b1 0b 3b
        E 16 b1 0b 44
        E 16 b1 0b 3b
        E 16 b1 0b 33
        E 16 b1 0b 2a
        E 16 b1 0b 44
        E 640 b1 0b 22
        E 0 81 2d 00
        E 0 91 29 22
        E 16 b1 0b 2a
        E 16 b1 0b 33
        E 16 b1 0b 3b
        E 16 b1 0b 44
        E 16 b1 0b 3b
        E 16 b1 0b 33
        E 16 b1 0b 2a
        E 16 b1 0b 44
        E 256 b1 0b 22
        E 0 81 29 00
        E 0 91 2d 22
        E 16 b1 0b 2a
        E 16 b1 0b 33
        E 16 b1 0b 3b
        E 16 b1 0b 44
        E 16 b1 0b 3b
        E 16 b1 0b 33
        E 16 b1 0b 2a
        E 16 b1 0b 44
        E 256 b1 0b 22
        E 0 81 2d 00
        E 0 91 2b 22
        E 16 b1 0b 2a
        E 16 b1 0b 33
        E 16 b1 0b 3b
        E 16 b1 0b 44
        E 16 b1 0b 3b
        E 16 b1 0b 33
        E 16 b1 0b 2a
        E 16 b1 0b 44
        E 256 b1 0b 22
        E 0 81 2b 00
        E 0 91 31 22
        E 16 b1 0b 2a
        E 16 b1 0b 33
        E 16 b1 0b 3b
        E 16 b1 0b 44
        E 16 b1 0b 3b
        E 16 b1 0b 33
        E 16 b1 0b 2a
        E 16 b1 0b 44
        E 256 b1 0b 22
        E 0 81 31 00
        E 0 91 34 22
        E 16 b1 0b 2a
        E 16 b1 0b 33
        E 16 b1 0b 3b
        E 16 b1 0b 44
        E 16 b1 0b 3b
        E 16 b1 0b 33
        E 16 b1 0b 2a
        E 16 b1 0b 44
        E 256 b1 0b 22
        E 0 81 34 00
        E 0 91 37 22
        E 16 b1 0b 2a
        E 16 b1 0b 33
        E 16 b1 0b 3b
        E 16 b1 0b 44
        E 16 b1 0b 3b
        E 16 b1 0b 33
        E 16 b1 0b 2a
        E 16 b1 0b 44
        E 256 b1 0b 22
        E 0 81 37 00
        E 0 91 35 22
        E 16 b1 0b 2a
        E 16 b1 0b 33
        E 16 b1 0b 3b
        E 16 b1 0b 44
        E 16 b1 0b 3b
        E 16 b1 0b 33
        E 16 b1 0b 2a
        E 16 b1 0b 44
        E 1408 b1 0b 22
        E 16 b1 0b 2a
        E 16 b1 0b 33
        E 16 b1 0b 3b
        E 16 b1 0b 44
        E 16 b1 0b 3b
        E 16 b1 0b 33
        E 16 b1 0b 2a
        E 16 b1 0b 44
        E 1408 b1 0b 22
        E 16 b1 0b 2a
        E 16 b1 0b 33
        E 16 b1 0b 3b
        E 16 b1 0b 44
        E 16 b1 0b 3b
        E 16 b1 0b 33
        E 16 b1 0b 2a
        E 16 b1 0b 44
        E 1408 b1 0b 22
        E 0 81 35 00
        E 0 91 1d 22
        E 16 b1 0b 2a
        E 16 b1 0b 33
        E 16 b1 0b 3b
        E 16 b1 0b 44
        E 16 b1 0b 3b
        E 16 b1 0b 33
        E 16 b1 0b 2a
        E 16 b1 0b 44
        E 224 81 1d 00
        E 16 b1 7b 00
        E 0 ff 2f 00
      >
    >
  >
  <TRACK {392AF6E2-2223-49E0-8EE7-78DB1C91091A}
    NAME "NES - Triangle [ch2]"
    PEAKCOL 16744192
    BEAT -1
    AUTOMODE 0
    PANLAWFLAGS 3
    VOLPAN 1 0 -1 -1 1
    MUTESOLO 0 0 0
    IPHASE 0
    PLAYOFFS 0 1
    ISBUS 0 0
    BUSCOMP 0 0 0 0 0
    SHOWINMIX 1 0.6667 0.5 1 0.5 0 0 0
    FIXEDLANES 9 0 0 0 0
    SEL 0
    REC 0 5088 1 0 0 0 0 0
    VU 2
    TRACKHEIGHT 0 0 0 0 0 0 0
    INQ 0 0 0 0.5 100 0 0 100
    NCHAN 2
    FX 1
    TRACKID {392AF6E2-2223-49E0-8EE7-78DB1C91091A}
    PERF 0
    MIDIOUT -1
    MAINSEND 1 0
    <FXCHAIN
      WNDRECT 24 52 700 560
      SHOW 0
      LASTSEL 0
      DOCKED 0
      BYPASS 0 0 0
      <JS "ReapNES Studio/ReapNES_Console.jsfx" ""
        2 15 1 10 80 10 100 2 1 15 1 5 60 10 80 1 1 0 50 0 0 15 1 0 100 0 0 0.500000 0.500000 0.400000 0.300000 0.800000 2 1 0 0 0 0 - - - - - - - - - - - - - - - - - - - - - - - - - -
      >
      FLOATPOS 0 0 0 0
      FXID {32BFD79E-06FC-4E49-9EC5-7B2E7F7269E5}
      WAK 0 0
    >
    <ITEM
      POSITION 0
      LENGTH 70.54432560000001
      LOOP 0
      ALLTAKES 0
      FADEIN 0 0 0 0 0 0 0
      FADEOUT 0 0 0 0 0 0 0
      MUTE 0 0
      SEL 0
      IGUID {0E42FA9F-8532-40DB-9859-AB0D0EEBA0A1}
      <SOURCE MIDI
        HASDATA 1 480 QN
        CCINTERP 32
        E 0 c2 26
        E 6128 b2 0b 7f
        E 0 92 48 7f
        E 1536 82 48 00
        E 0 b2 0b 7f
        E 0 92 46 7f
        E 1536 82 46 00
        E 0 b2 0b 7f
        E 0 92 45 7f
        E 1536 82 45 00
        E 0 b2 0b 7f
        E 0 92 44 7f
        E 1536 82 44 00
        E 0 b2 0b 7f
        E 0 92 18 7f
        E 384 82 18 00
        E 1152 b2 0b 7f
        E 0 92 1d 7f
        E 384 82 1d 00
        E 0 b2 0b 7f
        E 0 92 1c 7f
        E 384 82 1c 00
        E 0 b2 0b 7f
        E 0 92 1a 7f
        E 384 82 1a 00
        E 0 b2 0b 7f
        E 0 92 1f 7f
        E 384 82 1f 00
        E 0 b2 0b 7f
        E 0 92 18 7f
        E 384 82 18 00
        E 1152 b2 0b 7f
        E 0 92 29 7f
        E 128 82 29 00
        E 128 b2 0b 7f
        E 0 92 29 7f
        E 128 82 29 00
        E 0 b2 0b 7f
        E 0 92 1d 7f
        E 384 82 1d 00
        E 0 b2 0b 7f
        E 0 92 2c 7f
        E 128 82 2c 00
        E 0 b2 0b 7f
        E 0 92 29 7f
        E 128 82 29 00
        E 0 b2 0b 7f
        E 0 92 24 7f
        E 128 82 24 00
        E 0 b2 0b 7f
        E 0 92 20 7f
        E 384 82 20 00
        E 0 b2 0b 7f
        E 0 92 18 7f
        E 384 82 18 00
        E 256 b2 0b 7f
        E 0 92 18 7f
        E 128 82 18 00
        E 0 b2 0b 7f
        E 0 92 1b 7f
        E 384 82 1b 00
        E 256 b2 0b 7f
        E 0 92 1b 7f
        E 128 82 1b 00
        E 0 b2 0b 7f
        E 0 92 1a 7f
        E 384 82 1a 00
        E 256 b2 0b 7f
        E 0 92 1a 7f
        E 128 82 1a 00
        E 0 b2 0b 7f
        E 0 92 19 7f
        E 384 82 19 00
        E 256 b2 0b 7f
        E 0 92 19 7f
        E 128 82 19 00
        E 0 b2 0b 7f
        E 0 92 18 7f
        E 512 82 18 00
        E 128 b2 0b 7f
        E 0 92 18 7f
        E 96 82 18 00
        E 32 b2 0b 7f
        E 0 92 18 7f
        E 512 82 18 00
        E 128 b2 0b 7f
        E 0 92 18 7f
        E 96 82 18 00
        E 32 b2 0b 7f
        E 0 92 18 7f
        E 512 82 18 00
        E 128 b2 0b 7f
        E 0 92 18 7f
        E 96 82 18 00
        E 32 b2 0b 7f
        E 0 92 18 7f
        E 512 82 18 00
        E 128 b2 0b 7f
        E 0 92 18 7f
        E 96 82 18 00
        E 32 b2 0b 7f
        E 0 92 18 7f
        E 512 82 18 00
        E 128 b2 0b 7f
        E 0 92 18 7f
        E 96 82 18 00
        E 32 b2 0b 7f
        E 0 92 18 7f
        E 512 82 18 00
        E 128 b2 0b 7f
        E 0 92 18 7f
        E 96 82 18 00
        E 32 b2 0b 7f
        E 0 92 18 7f
        E 512 82 18 00
        E 128 b2 0b 7f
        E 0 92 18 7f
        E 96 82 18 00
        E 32 b2 0b 7f
        E 0 92 18 7f
        E 512 82 18 00
        E 128 b2 0b 7f
        E 0 92 18 7f
        E 96 82 18 00
        E 32 b2 0b 7f
        E 0 92 18 7f
        E 512 82 18 00
        E 128 b2 0b 7f
        E 0 92 18 7f
        E 96 82 18 00
        E 32 b2 0b 7f
        E 0 92 18 7f
        E 512 82 18 00
        E 128 b2 0b 7f
        E 0 92 18 7f
        E 96 82 18 00
        E 32 b2 0b 7f
        E 0 92 18 7f
        E 512 82 18 00
        E 128 b2 0b 7f
        E 0 92 18 7f
        E 96 82 18 00
        E 32 b2 0b 7f
        E 0 92 18 7f
        E 512 82 18 00
        E 128 b2 0b 7f
        E 0 92 18 7f
        E 96 82 18 00
        E 32 b2 0b 7f
        E 0 92 18 7f
        E 512 82 18 00
        E 128 b2 0b 7f
        E 0 92 18 7f
        E 96 82 18 00
        E 32 b2 0b 7f
        E 0 92 18 7f
        E 512 82 18 00
        E 128 b2 0b 7f
        E 0 92 18 7f
        E 96 82 18 00
        E 32 b2 0b 7f
        E 0 92 18 7f
        E 512 82 18 00
        E 128 b2 0b 7f
        E 0 92 18 7f
        E 96 82 18 00
        E 32 b2 0b 7f
        E 0 92 18 7f
        E 512 82 18 00
        E 128 b2 0b 7f
        E 0 92 18 7f
        E 96 82 18 00
        E 32 b2 0b 7f
        E 0 92 18 7f
        E 512 82 18 00
        E 128 b2 0b 7f
        E 0 92 18 7f
        E 96 82 18 00
        E 32 b2 0b 7f
        E 0 92 18 7f
        E 512 82 18 00
        E 128 b2 0b 7f
        E 0 92 18 7f
        E 96 82 18 00
        E 32 b2 0b 7f
        E 0 92 18 7f
        E 512 82 18 00
        E 128 b2 0b 7f
        E 0 92 18 7f
        E 96 82 18 00
        E 32 b2 0b 7f
        E 0 92 18 7f
        E 512 82 18 00
        E 128 b2 0b 7f
        E 0 92 18 7f
        E 96 82 18 00
        E 32 b2 0b 7f
        E 0 92 16 7f
        E 512 82 16 00
        E 128 b2 0b 7f
        E 0 92 16 7f
        E 96 82 16 00
        E 32 b2 0b 7f
        E 0 92 16 7f
        E 512 82 16 00
        E 128 b2 0b 7f
        E 0 92 16 7f
        E 96 82 16 00
        E 32 b2 0b 7f
        E 0 92 16 7f
        E 512 82 16 00
        E 128 b2 0b 7f
        E 0 92 16 7f
        E 96 82 16 00
        E 32 b2 0b 7f
        E 0 92 16 7f
        E 512 82 16 00
        E 128 b2 0b 7f
        E 0 92 16 7f
        E 96 82 16 00
        E 32 b2 0b 7f
        E 0 92 16 7f
        E 512 82 16 00
        E 128 b2 0b 7f
        E 0 92 16 7f
        E 96 82 16 00
        E 32 b2 0b 7f
        E 0 92 16 7f
        E 512 82 16 00
        E 128 b2 0b 7f
        E 0 92 16 7f
        E 96 82 16 00
        E 32 b2 0b 7f
        E 0 92 16 7f
        E 512 82 16 00
        E 128 b2 0b 7f
        E 0 92 16 7f
        E 96 82 16 00
        E 32 b2 0b 7f
        E 0 92 16 7f
        E 512 82 16 00
        E 128 b2 0b 7f
        E 0 92 16 7f
        E 96 82 16 00
        E 32 b2 0b 7f
        E 0 92 21 7f
        E 512 82 21 00
        E 128 b2 0b 7f
        E 0 92 21 7f
        E 96 82 21 00
        E 32 b2 0b 7f
        E 0 92 21 7f
        E 512 82 21 00
        E 128 b2 0b 7f
        E 0 92 21 7f
        E 96 82 21 00
        E 32 b2 0b 7f
        E 0 92 21 7f
        E 512 82 21 00
        E 128 b2 0b 7f
        E 0 92 21 7f
        E 96 82 21 00
        E 32 b2 0b 7f
        E 0 92 21 7f
        E 512 82 21 00
        E 128 b2 0b 7f
        E 0 92 21 7f
        E 96 82 21 00
        E 32 b2 0b 7f
        E 0 92 1a 7f
        E 512 82 1a 00
        E 128 b2 0b 7f
        E 0 92 1a 7f
        E 96 82 1a 00
        E 32 b2 0b 7f
        E 0 92 1a 7f
        E 512 82 1a 00
        E 128 b2 0b 7f
        E 0 92 1a 7f
        E 96 82 1a 00
        E 32 b2 0b 7f
        E 0 92 1a 7f
        E 512 82 1a 00
        E 128 b2 0b 7f
        E 0 92 1a 7f
        E 96 82 1a 00
        E 32 b2 0b 7f
        E 0 92 1a 7f
        E 512 82 1a 00
        E 128 b2 0b 7f
        E 0 92 1a 7f
        E 96 82 1a 00
        E 32 b2 0b 7f
        E 0 92 1f 7f
        E 512 82 1f 00
        E 128 b2 0b 7f
        E 0 92 1f 7f
        E 96 82 1f 00
        E 32 b2 0b 7f
        E 0 92 1f 7f
        E 512 82 1f 00
        E 128 b2 0b 7f
        E 0 92 1f 7f
        E 96 82 1f 00
        E 32 b2 0b 7f
        E 0 92 1f 7f
        E 512 82 1f 00
        E 128 b2 0b 7f
        E 0 92 1f 7f
        E 96 82 1f 00
        E 32 b2 0b 7f
        E 0 92 1f 7f
        E 512 82 1f 00
        E 128 b2 0b 7f
        E 0 92 1f 7f
        E 96 82 1f 00
        E 32 b2 0b 7f
        E 0 92 18 7f
        E 512 82 18 00
        E 128 b2 0b 7f
        E 0 92 18 7f
        E 96 82 18 00
        E 32 b2 0b 7f
        E 0 92 18 7f
        E 512 82 18 00
        E 128 b2 0b 7f
        E 0 92 18 7f
        E 96 82 18 00
        E 32 b2 0b 7f
        E 0 92 18 7f
        E 512 82 18 00
        E 128 b2 0b 7f
        E 0 92 18 7f
        E 96 82 18 00
        E 32 b2 0b 7f
        E 0 92 18 7f
        E 512 82 18 00
        E 128 b2 0b 7f
        E 0 92 18 7f
        E 96 82 18 00
        E 32 b2 0b 7f
        E 0 92 1d 7f
        E 384 82 1d 00
        E 0 b2 0b 7f
        E 0 92 29 7f
        E 128 82 29 00
        E 128 b2 0b 7f
        E 0 92 24 7f
        E 128 82 24 00
        E 0 b2 0b 7f
        E 0 92 1d 7f
        E 384 82 1d 00
        E 0 b2 0b 7f
        E 0 92 29 7f
        E 128 82 29 00
        E 128 b2 0b 7f
        E 0 92 24 7f
        E 128 82 24 00
        E 0 b2 0b 7f
        E 0 92 1d 7f
        E 384 82 1d 00
        E 0 b2 0b 7f
        E 0 92 29 7f
        E 128 82 29 00
        E 128 b2 0b 7f
        E 0 92 24 7f
        E 128 82 24 00
        E 0 b2 0b 7f
        E 0 92 1d 7f
        E 384 82 1d 00
        E 0 b2 0b 7f
        E 0 92 29 7f
        E 128 82 29 00
        E 128 b2 0b 7f
        E 0 92 24 7f
        E 128 82 24 00
        E 0 b2 0b 7f
        E 0 92 1d 7f
        E 384 82 1d 00
        E 0 b2 0b 7f
        E 0 92 29 7f
        E 128 82 29 00
        E 128 b2 0b 7f
        E 0 92 24 7f
        E 128 82 24 00
        E 0 b2 0b 7f
        E 0 92 1d 7f
        E 384 82 1d 00
        E 0 b2 0b 7f
        E 0 92 29 7f
        E 128 82 29 00
        E 128 b2 0b 7f
        E 0 92 24 7f
        E 128 82 24 00
        E 0 b2 0b 7f
        E 0 92 1d 7f
        E 384 82 1d 00
        E 0 b2 0b 7f
        E 0 92 29 7f
        E 128 82 29 00
        E 128 b2 0b 7f
        E 0 92 24 7f
        E 128 82 24 00
        E 0 b2 0b 7f
        E 0 92 1d 7f
        E 384 82 1d 00
        E 0 b2 0b 7f
        E 0 92 29 7f
        E 128 82 29 00
        E 128 b2 0b 7f
        E 0 92 24 7f
        E 128 82 24 00
        E 0 b2 0b 7f
        E 0 92 1d 7f
        E 384 82 1d 00
        E 0 b2 0b 7f
        E 0 92 29 7f
        E 128 82 29 00
        E 128 b2 0b 7f
        E 0 92 24 7f
        E 128 82 24 00
        E 0 b2 0b 7f
        E 0 92 1d 7f
        E 384 82 1d 00
        E 0 b2 0b 7f
        E 0 92 29 7f
        E 128 82 29 00
        E 128 b2 0b 7f
        E 0 92 24 7f
        E 128 82 24 00
        E 0 b2 0b 7f
        E 0 92 1d 7f
        E 384 82 1d 00
        E 0 b2 0b 7f
        E 0 92 29 7f
        E 128 82 29 00
        E 128 b2 0b 7f
        E 0 92 24 7f
        E 128 82 24 00
        E 0 b2 0b 7f
        E 0 92 1d 7f
        E 384 82 1d 00
        E 0 b2 0b 7f
        E 0 92 29 7f
        E 128 82 29 00
        E 128 b2 0b 7f
        E 0 92 24 7f
        E 128 82 24 00
        E 0 b2 0b 7f
        E 0 92 1d 7f
        E 384 82 1d 00
        E 0 b2 0b 7f
        E 0 92 29 7f
        E 128 82 29 00
        E 128 b2 0b 7f
        E 0 92 24 7f
        E 128 82 24 00
        E 0 b2 0b 7f
        E 0 92 1d 7f
        E 384 82 1d 00
        E 0 b2 0b 7f
        E 0 92 29 7f
        E 128 82 29 00
        E 128 b2 0b 7f
        E 0 92 24 7f
        E 128 82 24 00
        E 0 b2 0b 7f
        E 0 92 1d 7f
        E 384 82 1d 00
        E 0 b2 0b 7f
        E 0 92 29 7f
        E 128 82 29 00
        E 128 b2 0b 7f
        E 0 92 24 7f
        E 128 82 24 00
        E 0 b2 0b 7f
        E 0 92 1d 7f
        E 384 82 1d 00
        E 0 b2 0b 7f
        E 0 92 29 7f
        E 128 82 29 00
        E 128 b2 0b 7f
        E 0 92 24 7f
        E 128 82 24 00
        E 0 b2 0b 7f
        E 0 92 1d 7f
        E 384 82 1d 00
        E 0 b2 0b 7f
        E 0 92 29 7f
        E 128 82 29 00
        E 128 b2 0b 7f
        E 0 92 1d 7f
        E 96 82 1d 00
        E 32 b2 0b 7f
        E 0 92 1d 7f
        E 384 82 1d 00
        E 0 b2 0b 7f
        E 0 92 29 7f
        E 128 82 29 00
        E 128 b2 0b 7f
        E 0 92 1d 7f
        E 96 82 1d 00
        E 32 b2 0b 7f
        E 0 92 1d 7f
        E 384 82 1d 00
        E 0 b2 0b 7f
        E 0 92 29 7f
        E 128 82 29 00
        E 128 b2 0b 7f
        E 0 92 1d 7f
        E 96 82 1d 00
        E 32 b2 0b 7f
        E 0 92 1d 7f
        E 384 82 1d 00
        E 0 b2 0b 7f
        E 0 92 29 7f
        E 128 82 29 00
        E 128 b2 0b 7f
        E 0 92 1d 7f
        E 96 82 1d 00
        E 32 b2 0b 7f
        E 0 92 1d 7f
        E 384 82 1d 00
        E 0 b2 0b 7f
        E 0 92 29 7f
        E 128 82 29 00
        E 128 b2 0b 7f
        E 0 92 1d 7f
        E 96 82 1d 00
        E 32 b2 0b 7f
        E 0 92 1d 7f
        E 384 82 1d 00
        E 0 b2 0b 7f
        E 0 92 29 7f
        E 128 82 29 00
        E 128 b2 0b 7f
        E 0 92 1d 7f
        E 96 82 1d 00
        E 32 b2 0b 7f
        E 0 92 1d 7f
        E 384 82 1d 00
        E 16 b2 7b 00
        E 0 ff 2f 00
      >
    >
  >
  <TRACK {8745B940-83C0-490B-8519-33BBA7FD3007}
    NAME "NES - Noise / Drums [ch3]"
    PEAKCOL 11184810
    BEAT -1
    AUTOMODE 0
    PANLAWFLAGS 3
    VOLPAN 1 0 -1 -1 1
    MUTESOLO 0 0 0
    IPHASE 0
    PLAYOFFS 0 1
    ISBUS 0 0
    BUSCOMP 0 0 0 0 0
    SHOWINMIX 1 0.6667 0.5 1 0.5 0 0 0
    FIXEDLANES 9 0 0 0 0
    SEL 0
    REC 0 5088 1 0 0 0 0 0
    VU 2
    TRACKHEIGHT 0 0 0 0 0 0 0
    INQ 0 0 0 0.5 100 0 0 100
    NCHAN 2
    FX 1
    TRACKID {8745B940-83C0-490B-8519-33BBA7FD3007}
    PERF 0
    MIDIOUT -1
    MAINSEND 1 0
    <FXCHAIN
      WNDRECT 24 52 700 560
      SHOW 0
      LASTSEL 0
      DOCKED 0
      BYPASS 0 0 0
      <JS "ReapNES Studio/ReapNES_Console.jsfx" ""
        2 15 1 10 80 10 100 2 1 15 1 5 60 10 80 1 1 0 50 0 0 15 1 0 100 0 0 0.500000 0.500000 0.400000 0.300000 0.800000 3 1 0 0 0 0 - - - - - - - - - - - - - - - - - - - - - - - - - -
      >
      FLOATPOS 0 0 0 0
      FXID {FE518A84-8C1E-470C-BDCE-3DF34DC07CBD}
      WAK 0 0
    >
    <ITEM
      POSITION 0
      LENGTH 70.54432560000001
      LOOP 0
      ALLTAKES 0
      FADEIN 0 0 0 0 0 0 0
      FADEOUT 0 0 0 0 0 0 0
      MUTE 0 0
      SEL 0
      IGUID {B356ED80-3380-4C9D-A886-5DCBAE6117C0}
      <SOURCE MIDI
        HASDATA 1 480 QN
        CCINTERP 32
        E 0 93 2a 33
        E 368 83 2a 00
        E 256 93 2a 33
        E 1280 83 2a 00
        E 256 93 2a 33
        E 1280 83 2a 00
        E 256 93 2a 33
        E 1280 83 2a 00
        E 256 93 2a 33
        E 1280 83 2a 00
        E 256 93 2a 33
        E 1280 83 2a 00
        E 256 93 2a 33
        E 1280 83 2a 00
        E 256 93 2a 33
        E 1280 83 2a 00
        E 256 93 2a 33
        E 1280 83 2a 00
        E 256 93 2a 33
        E 1280 83 2a 00
        E 256 93 2a 33
        E 58112 83 2a 00
        E 16 b3 7b 00
        E 0 ff 2f 00
      >
    >
  >
>