<REAPER_PROJECT 0.1 "7.27/win64" 1707000000
  <NOTES 0 2
    |ReapNES Studio Project
    |MIDI Import - Mega_Man_4_title_rom_v1
  >
  RIPPLE 0
  GROUPOVERRIDE 0 0 0
  AUTOXFADE 129
  ENVATTACH 3
  POOLEDENVATTACH 0
  MIXERUIFLAGS 11 48
  ENVFADESZ10 40
  PEAKGAIN 1
  FEEDBACK 0
  PANLAW 1
  PROJOFFS 0 0 0
  MAXPROJLEN 0 0
  GRID 3199 8 1 8 1 0 0 0
  TIMEMODE 1 5 -1 30 0 0 -1
  VIDEO_CONFIG 0 0 65792
  PANMODE 3
  PANLAWFLAGS 3
  CURSOR 0
  ZOOM 100 0 0
  VZOOMEX 6 0
  USE_REC_CFG 0
  RECMODE 1
  SMPTESYNC 0 30 100 40 1000 300 0 0 1 0 0
  LOOP 0
  LOOPGRAN 0 4
  RECORD_PATH "Media" ""
  <RECORD_CFG
    ZXZhdxgAAQ==
  >
  <APPLYFX_CFG
  >
  RENDER_FILE ""
  RENDER_PATTERN ""
  RENDER_FMT 0 2 0
  RENDER_1X 0
  RENDER_RANGE 1 0 0 18 1000
  RENDER_RESAMPLE 3 0 1
  RENDER_ADDTOPROJ 0
  RENDER_STEMS 0
  RENDER_DITHER 0
  TIMELOCKMODE 1
  TEMPOENVLOCKMODE 1
  ITEMMIX 1
  DEFPITCHMODE 589824 0
  TAKELANE 1
  SAMPLERATE 44100 0 0
  <RENDER_CFG
    ZXZhdxgAAQ==
  >
  LOCK 1
  <METRONOME 6 2
    VOL 0.25 0.125
    BEATLEN 4
    FREQ 1760 880 1
    SAMPLES "" ""
    SPLIGNORE 0 0
    SPLDEF 2 660 "" 0
    SPLDEF 3 440 "" 0
    PATTERN 0 169
    PATTERNSTR ABBB
    MULT 1
  >
  GLOBAL_AUTO -1
  TEMPO 128.59999614200012 4 4
  PLAYRATE 1 0 0.25 4
  SELECTION 0 0
  SELECTION2 0 0
  MASTERAUTOMODE 0
  MASTERTRACKHEIGHT 0 0
  MASTERPEAKCOL 16576
  MASTERMUTESOLO 0
  MASTERTRACKVIEW 0 0.6667 0.5 0.5 0 0 0 0 0 0 0 0 0 0
  MASTERHWOUT 0 0 1 0 0 0 0 -1
  MASTER_NCH 2 2
  MASTER_VOLUME 1 0 -1 -1 1
  MASTER_PANMODE 3
  MASTER_PANLAWFLAGS 3
  MASTER_FX 1
  MASTER_SEL 0
  <MASTERPLAYSPEEDENV
    EGUID {876D2EA6-CDE3-4E4F-96B7-E210D2CF5C03}
    ACT 0 -1
    VIS 0 1 1
    LANEHEIGHT 0 0
    ARM 0
    DEFSHAPE 0 -1 -1
  >
  <TEMPOENVEX
    EGUID {03895EAC-C634-4322-AE03-5E49EDDCDF30}
    ACT 1 -1
    VIS 1 0 1
    LANEHEIGHT 0 0
    ARM 0
    DEFSHAPE 1 -1 -1
  >
  <PROJBAY
  >
  <TRACK {F15D7D03-E4E0-4125-B6EF-380045490A3B}
    NAME "NES - Pulse 1 [ch0]"
    PEAKCOL 16576606
    BEAT -1
    AUTOMODE 0
    PANLAWFLAGS 3
    VOLPAN 1 0 -1 -1 1
    MUTESOLO 0 0 0
    IPHASE 0
    PLAYOFFS 0 1
    ISBUS 0 0
    BUSCOMP 0 0 0 0 0
    SHOWINMIX 1 0.6667 0.5 1 0.5 0 0 0
    FIXEDLANES 9 0 0 0 0
    SEL 1
    REC 1 5088 1 0 0 0 0 0
    VU 2
    TRACKHEIGHT 0 0 0 0 0 0 0
    INQ 0 0 0 0.5 100 0 0 100
    NCHAN 2
    FX 1
    TRACKID {F15D7D03-E4E0-4125-B6EF-380045490A3B}
    PERF 0
    MIDIOUT -1
    MAINSEND 1 0
    <FXCHAIN
      WNDRECT 24 52 700 560
      SHOW 0
      LASTSEL 0
      DOCKED 0
      BYPASS 0 0 0
      <JS "ReapNES Studio/ReapNES_Console.jsfx" ""
        3 15 1 0 300 12 50 3 1 15 1 5 60 10 80 1 1 0 50 0 0 15 1 0 100 0 0 0.500000 0.500000 0.400000 0.300000 0.800000 0 1 0 0 0 0 - - - - - - - - - - - - - - - - - - - - - - - - - -
      >
      FLOATPOS 0 0 0 0
      FXID {99F095A1-1FD7-476B-B738-3E2EBB266065}
      WAK 0 0
    >
    <ITEM
      POSITION 0
      LENGTH 67.1539678
      LOOP 0
      ALLTAKES 0
      FADEIN 0 0 0 0 0 0 0
      FADEOUT 0 0 0 0 0 0 0
      MUTE 0 0
      SEL 0
      IGUID {D36508EA-69E5-4933-9BA7-F8D6835EE915}
      <SOURCE MIDI
        HASDATA 1 480 QN
        CCINTERP 32
        E 0 c0 50
        E 0 b0 0c 20
        E 0 b0 0b 66
        E 0 90 44 66
        E 16 b0 0b 44
        E 432 b0 0b 3b
        E 16 b0 0b 33
        E 32 b0 0b 2a
        E 32 b0 0b 22
        E 32 b0 0b 19
        E 16 b0 0b 11
        E 16 b0 0b 66
        E 0 80 44 00
        E 0 90 42 66
        E 16 b0 0b 44
        E 192 b0 0b 3b
        E 16 b0 0b 33
        E 32 b0 0b 2a
        E 32 b0 0b 66
        E 0 80 42 00
        E 0 90 44 66
        E 16 b0 0b 44
        E 192 b0 0b 3b
        E 16 b0 0b 33
        E 32 b0 0b 2a
        E 32 b0 0b 66
        E 0 80 44 00
        E 0 90 42 66
        E 16 b0 0b 44
        E 192 b0 0b 3b
        E 16 b0 0b 33
        E 32 b0 0b 2a
        E 32 b0 0b 66
        E 0 80 42 00
        E 0 90 47 66
        E 16 b0 0b 44
        E 416 b0 0b 3b
        E 16 b0 0b 33
        E 32 b0 0b 2a
        E 32 b0 0b 22
        E 32 b0 0b 19
        E 16 b0 0b 11
        E 16 b0 0b 66
        E 0 80 47 00
        E 0 90 3b 66
        E 16 b0 0b 44
        E 192 b0 0b 3b
        E 16 b0 0b 33
        E 32 b0 0b 2a
        E 32 b0 0b 66
        E 0 80 3b 00
        E 0 90 40 66
        E 16 b0 0b 44
        E 416 b0 0b 3b
        E 16 b0 0b 33
        E 32 b0 0b 2a
        E 32 b0 0b 22
        E 32 b0 0b 19
        E 16 b0 0b 11
        E 16 b0 0b 66
        E 0 80 40 00
        E 0 90 42 66
        E 16 b0 0b 44
        E 192 b0 0b 3b
        E 16 b0 0b 33
        E 32 b0 0b 2a
        E 32 b0 0b 66
        E 0 80 42 00
        E 0 90 40 66
        E 16 b0 0b 44
        E 192 b0 0b 3b
        E 16 b0 0b 33
        E 32 b0 0b 2a
        E 32 b0 0b 66
        E 0 80 40 00
        E 0 90 3f 66
        E 16 b0 0b 44
        E 416 b0 0b 3b
        E 16 b0 0b 33
        E 32 b0 0b 2a
        E 32 b0 0b 22
        E 32 b0 0b 19
        E 16 b0 0b 11
        E 16 b0 0b 66
        E 0 80 3f 00
        E 0 90 38 66
        E 16 b0 0b 44
        E 432 b0 0b 3b
        E 16 b0 0b 33
        E 32 b0 0b 2a
        E 32 b0 0b 22
        E 32 b0 0b 19
        E 16 b0 0b 66
        E 0 80 38 00
        E 0 90 3d 66
        E 16 b0 0b 44
        E 432 b0 0b 3b
        E 16 b0 0b 33
        E 32 b0 0b 2a
        E 32 b0 0b 22
        E 32 b0 0b 19
        E 16 b0 0b 66
        E 0 80 3d 00
        E 0 90 3f 66
        E 16 b0 0b 44
        E 192 b0 0b 3b
        E 16 b0 0b 33
        E 32 b0 0b 2a
        E 32 b0 0b 66
        E 0 80 3f 00
        E 0 90 40 66
        E 16 b0 0b 44
        E 192 b0 0b 3b
        E 16 b0 0b 33
        E 32 b0 0b 2a
        E 32 b0 0b 66
        E 0 80 40 00
        E 0 90 3b 66
        E 16 b0 0b 44
        E 192 b0 0b 3b
        E 16 b0 0b 33
        E 32 b0 0b 2a
        E 32 b0 0b 66
        E 0 80 3b 00
        E 0 90 40 66
        E 16 b0 0b 44
        E 432 b0 0b 3b
        E 16 b0 0b 33
        E 32 b0 0b 2a
        E 32 b0 0b 22
        E 32 b0 0b 19
        E 16 b0 0b 66
        E 0 80 40 00
        E 0 90 34 66
        E 16 b0 0b 44
        E 192 b0 0b 3b
        E 16 b0 0b 33
        E 32 b0 0b 2a
        E 32 b0 0b 66
        E 0 80 34 00
        E 0 90 40 66
        E 16 b0 0b 44
        E 656 b0 0b 3b
        E 16 b0 0b 33
        E 32 b0 0b 2a
        E 32 b0 0b 22
        E 32 b0 0b 19
        E 16 b0 0b 11
        E 32 b0 0b 08
        E 32 b0 0b 66
        E 0 80 40 00
        E 0 90 3f 66
        E 16 b0 0b 44
        E 96 b0 0b 3b
        E 16 b0 0b 33
        E 16 b0 0b 66
        E 0 80 3f 00
        E 0 90 40 66
        E 16 b0 0b 44
        E 96 b0 0b 3b
        E 16 b0 0b 33
        E 16 b0 0b 66
        E 0 80 40 00
        E 0 90 42 66
        E 16 b0 0b 44
        E 208 b0 0b 3b
        E 16 b0 0b 33
        E 32 b0 0b 2a
        E 16 b0 0b 66
        E 0 80 42 00
        E 0 90 3f 66
        E 16 b0 0b 44
        E 208 b0 0b 3b
        E 16 b0 0b 33
        E 32 b0 0b 2a
        E 16 b0 0b 66
        E 0 80 3f 00
        E 0 90 40 66
        E 16 b0 0b 44
        E 208 b0 0b 3b
        E 16 b0 0b 33
        E 32 b0 0b 2a
        E 16 b0 0b 66
        E 0 80 40 00
        E 0 90 42 66
        E 16 b0 0b 44
        E 208 b0 0b 3b
        E 16 b0 0b 33
        E 32 b0 0b 2a
        E 16 b0 0b 66
        E 0 80 42 00
        E 0 90 44 66
        E 16 b0 0b 44
        E 432 b0 0b 3b
        E 16 b0 0b 33
        E 32 b0 0b 2a
        E 32 b0 0b 22
        E 32 b0 0b 19
        E 16 b0 0b 66
        E 0 80 44 00
        E 0 90 42 66
        E 16 b0 0b 44
        E 208 b0 0b 3b
        E 16 b0 0b 33
        E 32 b0 0b 2a
        E 16 b0 0b 66
        E 0 80 42 00
        E 0 90 44 66
        E 16 b0 0b 44
        E 208 b0 0b 3b
        E 16 b0 0b 33
        E 32 b0 0b 2a
        E 16 b0 0b 66
        E 0 80 44 00
        E 0 90 42 66
        E 16 b0 0b 44
        E 656 b0 0b 3b
        E 16 b0 0b 33
        E 32 b0 0b 2a
        E 32 b0 0b 22
        E 32 b0 0b 19
        E 16 b0 0b 11
        E 32 b0 0b 08
        E 32 b0 0b 66
        E 0 80 42 00
        E 0 90 44 66
        E 16 b0 0b 44
        E 208 b0 0b 3b
        E 16 b0 0b 33
        E 32 b0 0b 2a
        E 16 b0 0b 66
        E 0 80 44 00
        E 0 90 42 66
        E 16 b0 0b 44
        E 656 b0 0b 3b
        E 16 b0 0b 33
        E 32 b0 0b 2a
        E 32 b0 0b 22
        E 32 b0 0b 19
        E 16 b0 0b 11
        E 32 b0 0b 08
        E 32 b0 0b 66
        E 0 80 42 00
        E 0 90 40 66
        E 16 b0 0b 44
        E 208 b0 0b 3b
        E 16 b0 0b 33
        E 32 b0 0b 2a
        E 32 b0 0b 22
        E 32 b0 0b 19
        E 16 b0 0b 11
        E 32 b0 0b 08
        E 32 80 40 00
        E 16 b0 0b 66
        E 0 90 3f 66
        E 16 b0 0b 44
        E 96 b0 0b 3b
        E 16 b0 0b 33
        E 16 b0 0b 66
        E 0 80 3f 00
        E 0 90 40 66
        E 16 b0 0b 44
        E 208 b0 0b 3b
        E 16 b0 0b 33
        E 32 b0 0b 2a
        E 16 b0 0b 66
        E 0 80 40 00
        E 0 90 44 66
        E 16 b0 0b 44
        E 432 b0 0b 3b
        E 16 b0 0b 33
        E 32 b0 0b 2a
        E 32 b0 0b 22
        E 32 b0 0b 19
        E 16 b0 0b 66
        E 0 80 44 00
        E 0 90 45 66
        E 16 b0 0b 44
        E 432 b0 0b 3b
        E 16 b0 0b 33
        E 32 b0 0b 2a
        E 32 b0 0b 22
        E 32 b0 0b 19
        E 16 b0 0b 66
        E 0 80 45 00
        E 0 90 44 66
        E 16 b0 0b 44
        E 208 b0 0b 3b
        E 16 b0 0b 33
        E 32 b0 0b 2a
        E 16 b0 0b 66
        E 0 80 44 00
        E 0 90 45 66
        E 16 b0 0b 44
        E 208 b0 0b 3b
        E 16 b0 0b 33
        E 32 b0 0b 2a
        E 16 b0 0b 66
        E 0 80 45 00
        E 0 90 41 66
        E 16 b0 0b 44
        E 432 b0 0b 3b
        E 16 b0 0b 33
        E 32 b0 0b 2a
        E 32 b0 0b 22
        E 32 b0 0b 19
        E 16 b0 0b 66
        E 0 80 41 00
        E 0 90 44 66
        E 16 b0 0b 44
        E 208 b0 0b 3b
        E 16 b0 0b 33
        E 32 b0 0b 2a
        E 16 b0 0b 66
        E 0 80 44 00
        E 0 90 42 66
        E 16 b0 0b 44
        E 496 b0 0b 3b
        E 16 b0 0b 33
        E 32 b0 0b 2a
        E 32 b0 0b 66
        E 0 80 42 00
        E 0 90 40 66
        E 16 b0 0b 44
        E 352 b0 0b 3b
        E 16 b0 0b 33
        E 32 b0 0b 2a
        E 32 b0 0b 22
        E 32 b0 0b 66
        E 0 80 40 00
        E 0 90 3f 66
        E 16 b0 0b 44
        E 736 b0 0b 3b
        E 16 b0 0b 33
        E 32 b0 0b 66
        E 0 80 3f 00
        E 0 90 3b 66
        E 16 b0 0b 44
        E 880 b0 0b 3b
        E 16 b0 0b 33
        E 32 b0 0b 2a
        E 32 b0 0b 22
        E 32 b0 0b 19
        E 16 b0 0b 11
        E 32 b0 0b 08
        E 32 80 3b 00
        E 64 b0 0b 66
        E 0 90 43 66
        E 16 b0 0b 44
        E 512 b0 0b 3b
        E 16 b0 0b 33
        E 32 b0 0b 2a
        E 32 b0 0b 22
        E 32 b0 0b 19
        E 16 b0 0b 11
        E 32 b0 0b 66
        E 0 80 43 00
        E 0 90 42 66
        E 16 b0 0b 44
        E 368 b0 0b 3b
        E 16 b0 0b 33
        E 32 b0 0b 2a
        E 32 b0 0b 22
        E 32 b0 0b 66
        E 0 80 42 00
        E 0 90 43 66
        E 16 b0 0b 44
        E 112 b0 0b 3b
        E 16 b0 0b 33
        E 32 b0 0b 66
        E 0 80 43 00
        E 0 90 45 66
        E 16 b0 0b 44
        E 224 b0 0b 3b
        E 16 b0 0b 33
        E 32 b0 0b 2a
        E 32 b0 0b 22
        E 16 b0 0b 66
        E 0 80 45 00
        E 0 90 43 66
        E 16 b0 0b 44
        E 224 b0 0b 3b
        E 16 b0 0b 33
        E 32 b0 0b 2a
        E 32 b0 0b 22
        E 16 b0 0b 66
        E 0 80 43 00
        E 0 90 42 66
        E 16 b0 0b 44
        E 240 b0 0b 3b
        E 16 b0 0b 33
        E 32 b0 0b 2a
        E 32 b0 0b 66
        E 0 80 42 00
        E 0 90 43 66
        E 16 b0 0b 44
        E 240 b0 0b 3b
        E 16 b0 0b 33
        E 32 b0 0b 2a
        E 32 b0 0b 66
        E 16 b0 0b 44
        E 768 b0 0b 3b
        E 16 b0 0b 33
        E 32 b0 0b 2a
        E 32 b0 0b 22
        E 32 b0 0b 19
        E 16 b0 0b 11
        E 32 b0 0b 08
        E 32 80 43 00
        E 32 b0 0b 66
        E 0 90 40 66
        E 16 b0 0b 44
        E 768 b0 0b 3b
        E 16 b0 0b 33
        E 32 b0 0b 2a
        E 32 b0 0b 22
        E 32 b0 0b 19
        E 16 b0 0b 11
        E 32 b0 0b 08
        E 32 80 40 00
        E 32 b0 0b 66
        E 0 90 42 66
        E 16 b0 0b 44
        E 512 b0 0b 3b
        E 16 b0 0b 33
        E 32 b0 0b 2a
        E 32 b0 0b 22
        E 32 b0 0b 19
        E 16 b0 0b 11
        E 32 b0 0b 08
        E 32 80 42 00
        E 288 b0 0b 66
        E 0 90 43 66
        E 16 b0 0b 44
        E 240 b0 0b 3b
        E 16 b0 0b 33
        E 32 b0 0b 2a
        E 32 b0 0b 66
        E 0 80 43 00
        E 0 90 42 66
        E 16 b0 0b 44
        E 384 b0 0b 3b
        E 16 b0 0b 33
        E 32 b0 0b 2a
        E 32 b0 0b 22
        E 32 b0 0b 66
        E 0 80 42 00
        E 0 90 43 66
        E 16 b0 0b 44
        E 112 b0 0b 3b
        E 16 b0 0b 33
        E 16 b0 0b 66
        E 0 80 43 00
        E 0 90 45 66
        E 16 b0 0b 44
        E 240 b0 0b 3b
        E 16 b0 0b 33
        E 32 b0 0b 2a
        E 32 b0 0b 66
        E 0 80 45 00
        E 0 90 43 66
        E 16 b0 0b 44
        E 240 b0 0b 3b
        E 16 b0 0b 33
        E 32 b0 0b 2a
        E 32 b0 0b 66
        E 0 80 43 00
        E 0 90 45 66
        E 16 b0 0b 44
        E 240 b0 0b 3b
        E 16 b0 0b 33
        E 32 b0 0b 2a
        E 32 b0 0b 66
        E 0 80 45 00
        E 0 90 47 66
        E 16 b0 0b 44
        E 240 b0 0b 3b
        E 16 b0 0b 33
        E 32 b0 0b 2a
        E 32 b0 0b 66
        E 16 b0 0b 44
        E 1120 b0 0b 3b
        E 16 b0 0b 33
        E 32 b0 0b 2a
        E 32 b0 0b 22
        E 32 b0 0b 19
        E 16 b0 0b 11
        E 16 b0 0b 66
        E 0 80 47 00
        E 0 90 44 66
        E 16 b0 0b 4c
        E 288 b0 0b 3b
        E 16 b0 0b 33
        E 16 b0 0b 2a
        E 16 b0 0b 22
        E 16 b0 0b 19
        E 16 b0 0b 66
        E 0 80 44 00
        E 0 90 45 66
        E 16 b0 0b 4c
        E 304 b0 0b 3b
        E 16 b0 0b 33
        E 16 b0 0b 2a
        E 16 b0 0b 22
        E 16 b0 0b 19
        E 16 b0 0b 66
        E 0 80 45 00
        E 0 90 47 66
        E 16 b0 0b 4c
        E 288 b0 0b 3b
        E 16 b0 0b 33
        E 16 b0 0b 2a
        E 16 b0 0b 22
        E 16 b0 0b 19
        E 16 b0 0b 08
        E 16 b0 0b 66
        E 0 80 47 00
        E 0 90 48 66
        E 16 b0 0b 4c
        E 624 b0 0b 3b
        E 16 b0 0b 33
        E 16 b0 0b 2a
        E 16 b0 0b 22
        E 16 b0 0b 19
        E 16 b0 0b 08
        E 16 80 48 00
        E 96 b0 0b 66
        E 0 90 47 66
        E 16 b0 0b 4c
        E 48 b0 0b 3b
        E 16 b0 0b 66
        E 0 80 47 00
        E 0 90 48 66
        E 16 b0 0b 4c
        E 48 b0 0b 3b
        E 16 b0 0b 33
        E 16 b0 0b 66
        E 0 80 48 00
        E 0 90 47 66
        E 16 b0 0b 4c
        E 48 b0 0b 3b
        E 16 b0 0b 33
        E 16 b0 0b 66
        E 0 80 47 00
        E 0 90 45 66
        E 16 b0 0b 4c
        E 176 b0 0b 3b
        E 16 b0 0b 33
        E 16 b0 0b 2a
        E 16 b0 0b 22
        E 16 b0 0b 19
        E 16 b0 0b 66
        E 0 80 45 00
        E 0 90 43 66
        E 16 b0 0b 4c
        E 80 b0 0b 3b
        E 16 b0 0b 33
        E 16 b0 0b 66
        E 0 80 43 00
        E 0 90 42 66
        E 16 b0 0b 4c
        E 400 b0 0b 3b
        E 16 b0 0b 33
        E 16 b0 0b 2a
        E 16 b0 0b 22
        E 16 b0 0b 19
        E 16 b0 0b 08
        E 16 80 42 00
        E 176 b0 0b 66
        E 0 90 47 66
        E 16 b0 0b 4c
        E 608 b0 0b 3b
        E 16 b0 0b 33
        E 16 b0 0b 2a
        E 16 b0 0b 22
        E 16 b0 0b 19
        E 16 b0 0b 08
        E 16 80 47 00
        E 96 b0 0b 66
        E 0 90 44 66
        E 16 b0 0b 4c
        E 16 b0 0b 3b
        E 16 b0 0b 66
        E 0 80 44 00
        E 0 90 45 66
        E 16 b0 0b 4c
        E 128 b0 0b 3b
        E 16 b0 0b 33
        E 16 b0 0b 2a
        E 16 b0 0b 66
        E 0 80 45 00
        E 0 90 43 66
        E 16 b0 0b 4c
        E 192 b0 0b 3b
        E 16 b0 0b 33
        E 16 b0 0b 2a
        E 16 b0 0b 22
        E 16 b0 0b 66
        E 0 80 43 00
        E 0 90 42 66
        E 16 b0 0b 4c
        E 96 b0 0b 3b
        E 16 b0 0b 33
        E 16 b0 0b 66
        E 0 80 42 00
        E 0 90 40 66
        E 16 b0 0b 4c
        E 192 b0 0b 3b
        E 16 b0 0b 33
        E 16 b0 0b 2a
        E 16 b0 0b 22
        E 16 b0 0b 19
        E 16 b0 0b 08
        E 16 80 40 00
        E 96 b0 0b 66
        E 0 90 40 66
        E 16 b0 0b 4c
        E 96 b0 0b 3b
        E 16 b0 0b 33
        E 16 b0 0b 66
        E 0 80 40 00
        E 0 90 42 66
        E 16 b0 0b 4c
        E 80 b0 0b 3b
        E 16 b0 0b 33
        E 16 b0 0b 66
        E 0 80 42 00
        E 0 90 43 66
        E 16 b0 0b 4c
        E 624 b0 0b 3b
        E 16 b0 0b 33
        E 16 b0 0b 2a
        E 16 b0 0b 22
        E 16 b0 0b 19
        E 16 b0 0b 08
        E 16 80 43 00
        E 80 b0 0b 66
        E 0 90 42 66
        E 16 b0 0b 4c
        E 96 b0 0b 3b
        E 16 b0 0b 33
        E 16 b0 0b 66
        E 0 80 42 00
        E 0 90 43 66
        E 16 b0 0b 4c
        E 80 b0 0b 3b
        E 16 b0 0b 33
        E 16 b0 0b 66
        E 0 80 43 00
        E 0 90 42 66
        E 16 b0 0b 4c
        E 192 b0 0b 3b
        E 16 b0 0b 33
        E 16 b0 0b 2a
        E 16 b0 0b 22
        E 16 b0 0b 66
        E 0 80 42 00
        E 0 90 43 66
        E 16 b0 0b 4c
        E 32 b0 0b 66
        E 0 80 43 00
        E 0 90 42 66
        E 16 b0 0b 4c
        E 16 b0 0b 3b
        E 16 b0 0b 66
        E 0 80 42 00
        E 0 90 43 66
        E 16 b0 0b 4c
        E 16 b0 0b 3b
        E 16 b0 0b 66
        E 0 80 43 00
        E 0 90 42 66
        E 16 b0 0b 4c
        E 16 b0 0b 3b
        E 16 b0 0b 66
        E 0 80 42 00
        E 0 90 43 66
        E 16 b0 0b 4c
        E 16 b0 0b 3b
        E 16 b0 0b 66
        E 0 80 43 00
        E 0 90 42 66
        E 16 b0 0b 4c
        E 16 b0 0b 3b
        E 16 b0 0b 66
        E 0 80 42 00
        E 0 90 43 66
        E 16 b0 0b 4c
        E 16 b0 0b 66
        E 0 80 43 00
        E 0 90 42 66
        E 16 b0 0b 4c
        E 16 b0 0b 3b
        E 16 b0 0b 66
        E 0 80 42 00
        E 0 90 43 66
        E 16 b0 0b 4c
        E 16 b0 0b 3b
        E 16 b0 0b 66
        E 0 80 43 00
        E 0 90 42 66
        E 16 b0 0b 4c
        E 16 b0 0b 3b
        E 16 b0 0b 66
        E 0 80 42 00
        E 0 90 43 66
        E 16 b0 0b 4c
        E 16 b0 0b 3b
        E 16 b0 0b 66
        E 0 80 43 00
        E 0 90 42 66
        E 16 b0 0b 4c
        E 16 b0 0b 3b
        E 16 b0 0b 66
        E 16 b0 0b 4c
        E 448 b0 0b 3b
        E 16 b0 0b 33
        E 16 b0 0b 2a
        E 16 b0 0b 22
        E 16 b0 0b 19
        E 16 b0 0b 66
        E 0 80 42 00
        E 0 90 40 66
        E 16 b0 0b 4c
        E 176 b0 0b 3b
        E 16 b0 0b 33
        E 16 b0 0b 2a
        E 16 b0 0b 22
        E 16 b0 0b 19
        E 16 b0 0b 66
        E 16 b0 0b 4c
        E 560 b0 0b 3b
        E 16 b0 0b 33
        E 16 b0 0b 66
        E 16 b0 0b 44
        E 832 b0 0b 3b
        E 32 b0 0b 33
        E 32 b0 0b 2a
        E 32 b0 0b 22
        E 48 b0 0b 19
        E 32 b0 0b 11
        E 32 b0 0b 08
        E 16 80 40 00
        E 30352 b0 0b 5d
        E 0 90 34 5d
        E 16 b0 0b 3b
        E 544 80 34 00
        E 0 b0 7b 00
        E 0 ff 2f 00
      >
    >
  >
  <TRACK {466292B5-833E-4E12-8984-1540FE28D294}
    NAME "NES - Pulse 2 [ch1]"
    PEAKCOL 10092441
    BEAT -1
    AUTOMODE 0
    PANLAWFLAGS 3
    VOLPAN 1 0 -1 -1 1
    MUTESOLO 0 0 0
    IPHASE 0
    PLAYOFFS 0 1
    ISBUS 0 0
    BUSCOMP 0 0 0 0 0
    SHOWINMIX 1 0.6667 0.5 1 0.5 0 0 0
    FIXEDLANES 9 0 0 0 0
    SEL 0
    REC 0 5088 1 0 0 0 0 0
    VU 2
    TRACKHEIGHT 0 0 0 0 0 0 0
    INQ 0 0 0 0.5 100 0 0 100
    NCHAN 2
    FX 1
    TRACKID {466292B5-833E-4E12-8984-1540FE28D294}
    PERF 0
    MIDIOUT -1
    MAINSEND 1 0
    <FXCHAIN
      WNDRECT 24 52 700 560
      SHOW 0
      LASTSEL 0
      DOCKED 0
      BYPASS 0 0 0
      <JS "ReapNES Studio/ReapNES_Console.jsfx" ""
        2 15 1 10 80 10 100 2 3 15 1 0 400 14 50 3 1 0 50 0 0 15 1 0 100 0 0 0.500000 0.500000 0.400000 0.300000 0.800000 1 1 0 0 0 0 - - - - - - - - - - - - - - - - - - - - - - - - - -
      >
      FLOATPOS 0 0 0 0
      FXID {CBF83CD9-2091-4443-B820-25FDAB2F93F6}
      WAK 0 0
    >
    <ITEM
      POSITION 0
      LENGTH 67.1539678
      LOOP 0
      ALLTAKES 0
      FADEIN 0 0 0 0 0 0 0
      FADEOUT 0 0 0 0 0 0 0
      MUTE 0 0
      SEL 0
      IGUID {EDF317FC-BDBB-413B-B572-0737B0BC0549}
      <SOURCE MIDI
        HASDATA 1 480 QN
        CCINTERP 32
        E 0 c1 51
        E 224 b1 0c 20
        E 0 b1 0b 4c
        E 0 91 44 4c
        E 16 b1 0b 2a
        E 496 b1 0b 22
        E 16 b1 0b 19
        E 32 b1 0b 11
        E 16 b1 0b 4c
        E 0 81 44 00
        E 0 91 42 4c
        E 16 b1 0b 2a
        E 240 b1 0b 22
        E 16 b1 0b 19
        E 16 b1 0b 4c
        E 0 81 42 00
        E 0 91 44 4c
        E 16 b1 0b 2a
        E 240 b1 0b 22
        E 16 b1 0b 19
        E 16 b1 0b 4c
        E 0 81 44 00
        E 0 91 42 4c
        E 16 b1 0b 2a
        E 240 b1 0b 22
        E 16 b1 0b 19
        E 16 b1 0b 4c
        E 0 81 42 00
        E 0 91 47 4c
        E 16 b1 0b 2a
        E 496 b1 0b 22
        E 16 b1 0b 19
        E 32 b1 0b 11
        E 16 b1 0b 4c
        E 0 81 47 00
        E 0 91 3b 4c
        E 16 b1 0b 2a
        E 240 b1 0b 22
        E 16 b1 0b 19
        E 16 b1 0b 4c
        E 0 81 3b 00
        E 0 91 40 4c
        E 16 b1 0b 2a
        E 496 b1 0b 22
        E 16 b1 0b 19
        E 32 b1 0b 11
        E 16 b1 0b 4c
        E 0 81 40 00
        E 0 91 42 4c
        E 16 b1 0b 2a
        E 240 b1 0b 22
        E 16 b1 0b 19
        E 16 b1 0b 4c
        E 0 81 42 00
        E 0 91 40 4c
        E 16 b1 0b 2a
        E 240 b1 0b 22
        E 16 b1 0b 19
        E 16 b1 0b 4c
        E 0 81 40 00
        E 0 91 3f 4c
        E 16 b1 0b 2a
        E 512 b1 0b 22
        E 16 b1 0b 19
        E 32 b1 0b 4c
        E 0 81 3f 00
        E 0 91 38 4c
        E 16 b1 0b 2a
        E 512 b1 0b 22
        E 16 b1 0b 19
        E 32 b1 0b 4c
        E 0 81 38 00
        E 0 91 3d 4c
        E 16 b1 0b 2a
        E 512 b1 0b 22
        E 16 b1 0b 19
        E 32 b1 0b 4c
        E 0 81 3d 00
        E 0 91 3f 4c
        E 16 b1 0b 2a
        E 240 b1 0b 22
        E 16 b1 0b 19
        E 16 b1 0b 4c
        E 0 81 3f 00
        E 0 91 40 4c
        E 16 b1 0b 2a
        E 240 b1 0b 22
        E 16 b1 0b 19
        E 16 b1 0b 4c
        E 0 81 40 00
        E 0 91 3b 4c
        E 16 b1 0b 2a
        E 240 b1 0b 22
        E 16 b1 0b 19
        E 16 b1 0b 4c
        E 0 81 3b 00
        E 0 91 40 4c
        E 16 b1 0b 2a
        E 512 b1 0b 22
        E 16 b1 0b 19
        E 32 b1 0b 4c
        E 0 81 40 00
        E 0 91 34 4c
        E 16 b1 0b 2a
        E 240 b1 0b 22
        E 16 b1 0b 19
        E 16 b1 0b 4c
        E 0 81 34 00
        E 0 91 40 4c
        E 16 b1 0b 2a
        E 752 b1 0b 22
        E 16 b1 0b 19
        E 32 b1 0b 11
        E 32 b1 0b 08
        E 16 b1 0b 4c
        E 0 81 40 00
        E 0 91 3f 4c
        E 16 b1 0b 2a
        E 112 b1 0b 22
        E 16 b1 0b 4c
        E 0 81 3f 00
        E 0 91 40 4c
        E 16 b1 0b 2a
        E 112 b1 0b 22
        E 16 b1 0b 19
        E 16 b1 0b 4c
        E 0 81 40 00
        E 0 91 42 4c
        E 16 b1 0b 2a
        E 32 b1 0b 22
        E 16 b1 0c 40
        E 0 b1 0b 5d
        E 0 81 42 00
        E 0 91 3b 5d
        E 16 b1 0b 44
        E 16 b1 0b 3b
        E 240 b1 0b 33
        E 16 b1 0b 5d
        E 0 81 3b 00
        E 0 91 3d 5d
        E 16 b1 0b 44
        E 16 b1 0b 3b
        E 240 b1 0b 33
        E 16 b1 0b 5d
        E 0 81 3d 00
        E 0 91 3f 5d
        E 16 b1 0b 44
        E 16 b1 0b 3b
        E 240 b1 0b 33
        E 16 b1 0b 5d
        E 0 81 3f 00
        E 0 91 3b 5d
        E 16 b1 0b 44
        E 16 b1 0b 3b
        E 768 b1 0b 33
        E 32 b1 0b 2a
        E 32 b1 0b 5d
        E 16 b1 0b 44
        E 16 b1 0b 3b
        E 240 b1 0b 33
        E 16 b1 0b 5d
        E 0 81 3b 00
        E 0 91 3c 5d
        E 16 b1 0b 44
        E 16 b1 0b 3b
        E 768 b1 0b 33
        E 32 b1 0b 2a
        E 32 b1 0b 5d
        E 16 b1 0b 44
        E 16 b1 0b 3b
        E 240 b1 0b 33
        E 16 b1 0b 5d
        E 0 81 3c 00
        E 0 91 3f 5d
        E 16 b1 0b 44
        E 16 b1 0b 3b
        E 512 b1 0b 33
        E 32 b1 0b 5d
        E 0 81 3f 00
        E 0 91 3d 5d
        E 16 b1 0b 44
        E 16 b1 0b 3b
        E 512 b1 0b 33
        E 32 b1 0b 5d
        E 0 81 3d 00
        E 0 91 3b 5d
        E 16 b1 0b 44
        E 16 b1 0b 3b
        E 512 b1 0b 33
        E 32 b1 0b 5d
        E 0 81 3b 00
        E 0 91 3e 5d
        E 16 b1 0b 44
        E 16 b1 0b 3b
        E 512 b1 0b 33
        E 32 b1 0b 5d
        E 0 81 3e 00
        E 0 91 3d 5d
        E 16 b1 0b 44
        E 16 b1 0b 3b
        E 784 b1 0b 33
        E 32 b1 0b 2a
        E 16 b1 0b 5d
        E 16 b1 0b 44
        E 16 b1 0b 3b
        E 240 b1 0b 33
        E 16 b1 0b 5d
        E 0 81 3d 00
        E 0 91 3b 5d
        E 16 b1 0b 44
        E 16 b1 0b 3b
        E 784 b1 0b 33
        E 32 b1 0b 2a
        E 16 b1 0b 5d
        E 0 81 3b 00
        E 0 91 3d 5d
        E 16 b1 0b 44
        E 16 b1 0b 3b
        E 240 b1 0b 33
        E 16 b1 0b 5d
        E 0 81 3d 00
        E 0 91 39 5d
        E 16 b1 0b 44
        E 16 b1 0b 3b
        E 240 b1 0b 33
        E 32 b1 0b 5d
        E 0 81 39 00
        E 0 91 49 5d
        E 16 b1 0b 44
        E 16 b1 0b 3b
        E 400 b1 0b 33
        E 32 b1 0b 2a
        E 16 b1 0b 5d
        E 0 81 49 00
        E 0 91 47 5d
        E 16 b1 0b 44
        E 16 b1 0b 3b
        E 400 b1 0b 33
        E 32 b1 0b 2a
        E 16 b1 0b 5d
        E 0 81 47 00
        E 0 91 36 5d
        E 16 b1 0b 44
        E 16 b1 0b 3b
        E 256 b1 0b 33
        E 32 b1 0b 5d
        E 0 81 36 00
        E 0 91 42 5d
        E 16 b1 0b 44
        E 16 b1 0b 3b
        E 688 b1 0b 33
        E 32 b1 0b 2a
        E 16 b1 0b 5d
        E 0 81 42 00
        E 0 91 36 5d
        E 16 b1 0b 44
        E 16 b1 0b 3b
        E 320 b1 0b 33
        E 32 b1 0c 60
        E 0 b1 0b 5d
        E 0 81 36 00
        E 0 91 2f 5d
        E 16 b1 0b 44
        E 16 b1 0b 3b
        E 608 b1 0b 33
        E 32 b1 0b 2a
        E 16 b1 0b 5d
        E 0 81 2f 00
        E 0 91 34 5d
        E 16 b1 0b 44
        E 16 b1 0b 3b
        E 592 b1 0b 33
        E 32 b1 0b 2a
        E 16 b1 0b 5d
        E 0 81 34 00
        E 0 91 36 5d
        E 16 b1 0b 44
        E 16 b1 0b 3b
        E 592 b1 0b 33
        E 32 b1 0b 2a
        E 16 b1 0b 5d
        E 0 81 36 00
        E 0 91 3b 5d
        E 16 b1 0b 44
        E 16 b1 0b 3b
        E 592 b1 0b 33
        E 32 b1 0b 2a
        E 16 b1 0b 5d
        E 16 b1 0b 44
        E 16 b1 0b 3b
        E 272 b1 0b 33
        E 32 b1 0b 5d
        E 0 81 3b 00
        E 0 91 39 5d
        E 16 b1 0b 44
        E 16 b1 0b 3b
        E 128 b1 0b 5d
        E 0 81 39 00
        E 0 91 37 5d
        E 16 b1 0b 44
        E 16 b1 0b 3b
        E 128 b1 0b 33
        E 16 b1 0b 5d
        E 0 81 37 00
        E 0 91 39 5d
        E 16 81 39 00
        E 16 b1 0b 7f
        E 0 91 18 7f
        E 48 81 18 00
        E 0 91 17 7f
        E 16 81 17 00
        E 0 91 18 7f
        E 16 b1 0b 3b
        E 0 81 18 00
        E 0 91 39 3b
        E 32 81 39 00
        E 16 b1 0b 7f
        E 0 91 19 7f
        E 128 81 19 00
        E 0 91 1a 7f
        E 192 81 1a 00
        E 0 91 19 7f
        E 128 b1 0b 77
        E 16 81 19 00
        E 0 91 1a 77
        E 48 b1 0b 7f
        E 0 81 1a 00
        E 0 91 18 7f
        E 48 81 18 00
        E 0 91 17 7f
        E 16 81 17 00
        E 0 91 18 7f
        E 16 b1 0b 3b
        E 0 81 18 00
        E 0 91 37 3b
        E 32 81 37 00
        E 16 b1 0b 7f
        E 0 91 19 7f
        E 128 81 19 00
        E 0 91 1a 7f
        E 192 81 1a 00
        E 0 91 19 7f
        E 128 b1 0b 77
        E 16 81 19 00
        E 0 91 1a 77
        E 48 b1 0b 7f
        E 0 81 1a 00
        E 0 91 18 7f
        E 48 81 18 00
        E 0 91 17 7f
        E 16 81 17 00
        E 0 91 18 7f
        E 16 b1 0b 3b
        E 0 81 18 00
        E 0 91 36 3b
        E 32 81 36 00
        E 16 b1 0b 7f
        E 0 91 19 7f
        E 128 81 19 00
        E 0 91 1a 7f
        E 64 81 1a 00
        E 0 91 18 7f
        E 48 81 18 00
        E 0 91 17 7f
        E 16 81 17 00
        E 0 91 18 7f
        E 16 b1 0b 3b
        E 0 81 18 00
        E 0 91 33 3b
        E 32 81 33 00
        E 16 b1 0b 7f
        E 0 91 19 7f
        E 128 81 19 00
        E 0 91 1a 7f
        E 64 81 1a 00
        E 0 91 18 7f
        E 48 81 18 00
        E 0 91 17 7f
        E 16 81 17 00
        E 0 91 18 7f
        E 16 b1 0b 44
        E 0 81 18 00
        E 0 91 2f 44
        E 16 b1 0b 3b
        E 16 81 2f 00
        E 16 b1 0b 7f
        E 0 91 19 7f
        E 128 81 19 00
        E 0 91 1a 7f
        E 64 81 1a 00
        E 0 91 18 7f
        E 48 81 18 00
        E 0 91 17 7f
        E 16 81 17 00
        E 0 91 18 7f
        E 16 b1 0b 3b
        E 0 81 18 00
        E 0 91 2f 3b
        E 32 81 2f 00
        E 16 b1 0b 7f
        E 0 91 19 7f
        E 128 81 19 00
        E 0 91 1a 7f
        E 192 81 1a 00
        E 0 91 19 7f
        E 128 b1 0b 77
        E 16 81 19 00
        E 0 91 1a 77
        E 32 b1 0b 6e
        E 48 b1 0b 66
        E 48 b1 0b 5d
        E 48 b1 0b 55
        E 64 b1 0b 4c
        E 48 b1 0b 44
        E 48 b1 0b 3b
        E 48 b1 0b 33
        E 48 b1 0b 2a
        E 64 b1 0b 22
        E 48 b1 0b 19
        E 48 b1 0b 11
        E 48 b1 0b 08
        E 48 81 1a 00
        E 224 b1 0b 3b
        E 0 91 36 3b
        E 224 b1 0b 33
        E 32 b1 0b 5d
        E 0 81 36 00
        E 0 91 3b 5d
        E 16 b1 0b 44
        E 16 b1 0b 3b
        E 608 b1 0b 33
        E 32 b1 0b 5d
        E 0 81 3b 00
        E 0 91 34 5d
        E 16 b1 0b 44
        E 16 b1 0b 3b
        E 720 81 34 00
        E 16 b1 0b 7f
        E 0 91 18 7f
        E 48 81 18 00
        E 0 91 17 7f
        E 16 81 17 00
        E 0 91 18 7f
        E 16 b1 0b 3b
        E 0 81 18 00
        E 0 91 34 3b
        E 32 81 34 00
        E 16 b1 0b 7f
        E 0 91 19 7f
        E 128 81 19 00
        E 0 91 1a 7f
        E 64 81 1a 00
        E 0 91 18 7f
        E 48 81 18 00
        E 0 91 17 7f
        E 16 81 17 00
        E 0 91 18 7f
        E 16 b1 0b 3b
        E 0 81 18 00
        E 0 91 34 3b
        E 32 81 34 00
        E 16 b1 0b 7f
        E 0 91 19 7f
        E 128 81 19 00
        E 0 91 1a 7f
        E 64 81 1a 00
        E 0 91 18 7f
        E 48 81 18 00
        E 0 91 17 7f
        E 16 81 17 00
        E 0 91 18 7f
        E 16 b1 0b 3b
        E 0 81 18 00
        E 0 91 40 3b
        E 32 81 40 00
        E 16 b1 0b 7f
        E 0 91 19 7f
        E 128 81 19 00
        E 0 91 1a 7f
        E 64 81 1a 00
        E 0 91 18 7f
        E 48 81 18 00
        E 0 91 17 7f
        E 16 81 17 00
        E 0 91 18 7f
        E 16 b1 0b 3b
        E 0 81 18 00
        E 0 91 42 3b
        E 32 81 42 00
        E 16 b1 0b 7f
        E 0 91 19 7f
        E 128 81 19 00
        E 0 91 1a 7f
        E 64 81 1a 00
        E 0 91 18 7f
        E 48 81 18 00
        E 0 91 17 7f
        E 16 81 17 00
        E 0 91 18 7f
        E 16 b1 0b 3b
        E 0 81 18 00
        E 0 91 44 3b
        E 32 81 44 00
        E 16 b1 0b 7f
        E 0 91 19 7f
        E 128 81 19 00
        E 0 91 1a 7f
        E 64 81 1a 00
        E 0 91 18 7f
        E 48 81 18 00
        E 0 91 17 7f
        E 16 81 17 00
        E 0 91 18 7f
        E 16 b1 0b 33
        E 0 81 18 00
        E 0 91 44 33
        E 16 b1 0b 5d
        E 0 81 44 00
        E 0 91 40 5d
        E 16 81 40 00
        E 16 b1 0b 7f
        E 0 91 19 7f
        E 128 81 19 00
        E 0 91 1a 7f
        E 64 81 1a 00
        E 0 91 18 7f
        E 48 81 18 00
        E 0 91 17 7f
        E 16 81 17 00
        E 0 91 18 7f
        E 16 b1 0b 3b
        E 0 81 18 00
        E 0 91 40 3b
        E 32 81 40 00
        E 16 b1 0b 7f
        E 0 91 19 7f
        E 128 81 19 00
        E 0 91 1a 7f
        E 64 81 1a 00
        E 0 91 18 7f
        E 48 81 18 00
        E 0 91 17 7f
        E 16 81 17 00
        E 0 91 18 7f
        E 16 b1 0b 3b
        E 0 81 18 00
        E 0 91 40 3b
        E 32 81 40 00
        E 16 b1 0b 7f
        E 0 91 19 7f
        E 128 81 19 00
        E 0 91 1a 7f
        E 64 81 1a 00
        E 0 91 18 7f
        E 48 81 18 00
        E 0 91 17 7f
        E 16 81 17 00
        E 0 91 18 7f
        E 16 b1 0b 3b
        E 0 81 18 00
        E 0 91 3e 3b
        E 32 81 3e 00
        E 16 b1 0b 7f
        E 0 91 19 7f
        E 128 81 19 00
        E 0 91 1a 7f
        E 64 81 1a 00
        E 0 91 18 7f
        E 48 81 18 00
        E 0 91 17 7f
        E 16 81 17 00
        E 0 91 18 7f
        E 16 b1 0b 3b
        E 0 81 18 00
        E 0 91 3c 3b
        E 32 81 3c 00
        E 16 b1 0b 7f
        E 0 91 19 7f
        E 128 81 19 00
        E 0 91 1a 7f
        E 64 81 1a 00
        E 0 91 18 7f
        E 48 81 18 00
        E 0 91 17 7f
        E 16 81 17 00
        E 0 91 18 7f
        E 16 b1 0b 3b
        E 0 81 18 00
        E 0 91 39 3b
        E 32 81 39 00
        E 16 b1 0b 7f
        E 0 91 19 7f
        E 128 81 19 00
        E 0 91 1a 7f
        E 64 81 1a 00
        E 0 91 18 7f
        E 48 81 18 00
        E 0 91 17 7f
        E 16 81 17 00
        E 0 91 18 7f
        E 16 b1 0b 3b
        E 0 81 18 00
        E 0 91 39 3b
        E 32 81 39 00
        E 16 b1 0b 7f
        E 0 91 19 7f
        E 128 81 19 00
        E 0 91 1a 7f
        E 192 81 1a 00
        E 0 91 19 7f
        E 128 b1 0b 77
        E 16 81 19 00
        E 0 91 1a 77
        E 32 b1 0b 6e
        E 48 b1 0b 66
        E 48 b1 0b 5d
        E 48 b1 0b 55
        E 64 b1 0b 4c
        E 48 b1 0b 44
        E 48 b1 0b 3b
        E 48 b1 0b 33
        E 48 b1 0b 2a
        E 64 b1 0b 22
        E 48 b1 0b 19
        E 48 b1 0b 11
        E 48 b1 0b 08
        E 48 81 1a 00
        E 224 b1 0b 3b
        E 0 91 39 3b
        E 192 b1 0b 33
        E 32 b1 0b 5d
        E 0 81 39 00
        E 0 91 37 5d
        E 16 b1 0b 44
        E 16 b1 0b 3b
        E 96 b1 0b 5d
        E 0 81 37 00
        E 0 91 34 5d
        E 16 b1 0b 44
        E 16 b1 0b 3b
        E 224 b1 0b 33
        E 16 b1 0b 5d
        E 16 b1 0b 44
        E 16 b1 0b 3b
        E 96 b1 0b 33
        E 16 b1 0b 5d
        E 0 81 34 00
        E 0 91 2f 5d
        E 16 b1 0b 44
        E 16 b1 0b 3b
        E 96 b1 0b 5d
        E 0 81 2f 00
        E 0 91 32 5d
        E 16 b1 0b 44
        E 16 b1 0b 3b
        E 96 b1 0b 33
        E 16 b1 0b 5d
        E 0 81 32 00
        E 0 91 34 5d
        E 16 b1 0b 44
        E 16 b1 0b 3b
        E 608 81 34 00
        E 16 b1 0b 7f
        E 0 91 18 7f
        E 48 81 18 00
        E 0 91 17 7f
        E 16 81 17 00
        E 0 91 18 7f
        E 16 b1 0b 3b
        E 0 81 18 00
        E 0 91 34 3b
        E 32 81 34 00
        E 16 b1 0b 7f
        E 0 91 19 7f
        E 128 81 19 00
        E 0 91 1a 7f
        E 64 81 1a 00
        E 0 91 18 7f
        E 48 81 18 00
        E 0 91 17 7f
        E 16 81 17 00
        E 0 91 18 7f
        E 16 b1 0b 2a
        E 0 81 18 00
        E 0 91 34 2a
        E 32 81 34 00
        E 16 b1 0b 7f
        E 0 91 19 7f
        E 128 81 19 00
        E 0 91 1a 7f
        E 64 81 1a 00
        E 0 91 18 7f
        E 48 81 18 00
        E 0 91 17 7f
        E 16 81 17 00
        E 0 91 18 7f
        E 16 b1 0b 3b
        E 0 81 18 00
        E 0 91 36 3b
        E 32 81 36 00
        E 16 b1 0b 7f
        E 0 91 19 7f
        E 128 81 19 00
        E 0 91 1a 7f
        E 64 81 1a 00
        E 0 91 18 7f
        E 48 81 18 00
        E 0 91 17 7f
        E 16 81 17 00
        E 0 91 18 7f
        E 16 b1 0b 3b
        E 0 81 18 00
        E 0 91 36 3b
        E 32 81 36 00
        E 16 b1 0b 7f
        E 0 91 19 7f
        E 128 81 19 00
        E 0 91 1a 7f
        E 64 81 1a 00
        E 0 91 18 7f
        E 48 81 18 00
        E 0 91 17 7f
        E 16 81 17 00
        E 0 91 18 7f
        E 16 b1 0b 3b
        E 0 81 18 00
        E 0 91 36 3b
        E 32 81 36 00
        E 16 b1 0b 7f
        E 0 91 19 7f
        E 128 81 19 00
        E 0 91 1a 7f
        E 64 81 1a 00
        E 0 91 18 7f
        E 48 81 18 00
        E 0 91 17 7f
        E 16 81 17 00
        E 0 91 18 7f
        E 16 b1 0b 3b
        E 0 81 18 00
        E 0 91 38 3b
        E 32 81 38 00
        E 16 b1 0b 7f
        E 0 91 19 7f
        E 128 81 19 00
        E 0 91 1a 7f
        E 64 81 1a 00
        E 0 91 18 7f
        E 48 81 18 00
        E 0 91 17 7f
        E 16 81 17 00
        E 0 91 18 7f
        E 16 b1 0b 3b
        E 0 81 18 00
        E 0 91 38 3b
        E 32 81 38 00
        E 16 b1 0b 7f
        E 0 91 19 7f
        E 128 81 19 00
        E 0 91 1a 7f
        E 64 81 1a 00
        E 0 91 18 7f
        E 48 81 18 00
        E 0 91 17 7f
        E 16 81 17 00
        E 0 91 18 7f
        E 16 b1 0b 3b
        E 0 81 18 00
        E 0 91 38 3b
        E 32 81 38 00
        E 16 b1 0b 7f
        E 0 91 19 7f
        E 128 81 19 00
        E 0 91 1a 7f
        E 64 81 1a 00
        E 0 91 18 7f
        E 48 81 18 00
        E 0 91 17 7f
        E 16 81 17 00
        E 0 91 18 7f
        E 16 b1 0b 3b
        E 0 81 18 00
        E 0 91 38 3b
        E 32 81 38 00
        E 16 b1 0b 7f
        E 0 91 19 7f
        E 128 81 19 00
        E 0 91 1a 7f
        E 64 81 1a 00
        E 0 91 18 7f
        E 48 81 18 00
        E 0 91 17 7f
        E 16 81 17 00
        E 0 91 18 7f
        E 16 b1 0b 3b
        E 0 81 18 00
        E 0 91 38 3b
        E 32 81 38 00
        E 16 b1 0b 7f
        E 0 91 19 7f
        E 128 81 19 00
        E 0 91 1a 7f
        E 64 81 1a 00
        E 0 91 18 7f
        E 48 81 18 00
        E 0 91 17 7f
        E 16 81 17 00
        E 0 91 18 7f
        E 16 b1 0b 3b
        E 0 81 18 00
        E 0 91 38 3b
        E 32 81 38 00
        E 16 b1 0b 7f
        E 0 91 19 7f
        E 128 81 19 00
        E 0 91 1a 7f
        E 64 81 1a 00
        E 0 91 18 7f
        E 48 81 18 00
        E 0 91 17 7f
        E 16 81 17 00
        E 0 91 18 7f
        E 16 b1 0b 2a
        E 0 81 18 00
        E 0 91 38 2a
        E 32 81 38 00
        E 16 b1 0b 7f
        E 0 91 19 7f
        E 128 81 19 00
        E 0 91 1a 7f
        E 192 81 1a 00
        E 0 91 19 7f
        E 128 b1 0b 77
        E 16 81 19 00
        E 0 91 1a 77
        E 32 b1 0b 6e
        E 48 b1 0b 66
        E 48 b1 0b 5d
        E 48 b1 0b 55
        E 64 b1 0b 4c
        E 48 b1 0b 44
        E 48 b1 0b 3b
        E 48 b1 0b 33
        E 48 b1 0b 2a
        E 64 b1 0b 22
        E 48 b1 0b 19
        E 48 b1 0b 11
        E 48 b1 0b 08
        E 48 81 1a 00
        E 29408 b1 0c 20
        E 0 b1 0b 4c
        E 0 91 34 4c
        E 16 b1 0b 2a
        E 416 81 34 00
        E 0 b1 7b 00
        E 0 ff 2f 00
      >
    >
  >
  <TRACK {259D98BD-EECE-4629-A2E7-27A5BC682EC1}
    NAME "NES - Triangle [ch2]"
    PEAKCOL 16744192
    BEAT -1
    AUTOMODE 0
    PANLAWFLAGS 3
    VOLPAN 1 0 -1 -1 1
    MUTESOLO 0 0 0
    IPHASE 0
    PLAYOFFS 0 1
    ISBUS 0 0
    BUSCOMP 0 0 0 0 0
    SHOWINMIX 1 0.6667 0.5 1 0.5 0 0 0
    FIXEDLANES 9 0 0 0 0
    SEL 0
    REC 0 5088 1 0 0 0 0 0
    VU 2
    TRACKHEIGHT 0 0 0 0 0 0 0
    INQ 0 0 0 0.5 100 0 0 100
    NCHAN 2
    FX 1
    TRACKID {259D98BD-EECE-4629-A2E7-27A5BC682EC1}
    PERF 0
    MIDIOUT -1
    MAINSEND 1 0
    <FXCHAIN
      WNDRECT 24 52 700 560
      SHOW 0
      LASTSEL 0
      DOCKED 0
      BYPASS 0 0 0
      <JS "ReapNES Studio/ReapNES_Console.jsfx" ""
        2 15 1 10 80 10 100 2 1 15 1 5 60 10 80 1 1 0 30 0 0 15 1 0 100 0 0 0.500000 0.500000 0.400000 0.300000 0.800000 2 1 0 0 0 0 - - - - - - - - - - - - - - - - - - - - - - - - - -
      >
      FLOATPOS 0 0 0 0
      FXID {03EDFF7D-05AC-4855-90F4-D32407E68072}
      WAK 0 0
    >
    <ITEM
      POSITION 0
      LENGTH 67.1539678
      LOOP 0
      ALLTAKES 0
      FADEIN 0 0 0 0 0 0 0
      FADEOUT 0 0 0 0 0 0 0
      MUTE 0 0
      SEL 0
      IGUID {C7DF946B-C13F-42DB-B595-C7ADE76F90E5}
      <SOURCE MIDI
        HASDATA 1 480 QN
        CCINTERP 32
        E 0 c2 26
        E 0 b2 0b 7f
        E 0 92 28 7f
        E 256 82 28 00
        E 48 b2 0b 7f
        E 0 92 2c 7f
        E 240 82 2c 00
        E 48 b2 0b 7f
        E 0 92 2f 7f
        E 240 82 2f 00
        E 48 b2 0b 7f
        E 0 92 34 7f
        E 240 82 34 00
        E 48 b2 0b 7f
        E 0 92 27 7f
        E 240 82 27 00
        E 48 b2 0b 7f
        E 0 92 2c 7f
        E 240 82 2c 00
        E 48 b2 0b 7f
        E 0 92 2f 7f
        E 240 82 2f 00
        E 48 b2 0b 7f
        E 0 92 33 7f
        E 240 82 33 00
        E 48 b2 0b 7f
        E 0 92 25 7f
        E 240 82 25 00
        E 48 b2 0b 7f
        E 0 92 28 7f
        E 240 82 28 00
        E 48 b2 0b 7f
        E 0 92 2c 7f
        E 240 82 2c 00
        E 48 b2 0b 7f
        E 0 92 31 7f
        E 240 82 31 00
        E 48 b2 0b 7f
        E 0 92 23 7f
        E 240 82 23 00
        E 48 b2 0b 7f
        E 0 92 27 7f
        E 240 82 27 00
        E 48 b2 0b 7f
        E 0 92 2c 7f
        E 256 82 2c 00
        E 32 b2 0b 7f
        E 0 92 2f 7f
        E 256 82 2f 00
        E 32 b2 0b 7f
        E 0 92 21 7f
        E 256 82 21 00
        E 32 b2 0b 7f
        E 0 92 25 7f
        E 256 82 25 00
        E 32 b2 0b 7f
        E 0 92 28 7f
        E 256 82 28 00
        E 32 b2 0b 7f
        E 0 92 2d 7f
        E 256 82 2d 00
        E 32 b2 0b 7f
        E 0 92 28 7f
        E 256 82 28 00
        E 32 b2 0b 7f
        E 0 92 2c 7f
        E 256 82 2c 00
        E 32 b2 0b 7f
        E 0 92 2f 7f
        E 256 82 2f 00
        E 32 b2 0b 7f
        E 0 92 2c 7f
        E 256 82 2c 00
        E 32 b2 0b 7f
        E 0 92 2a 7f
        E 256 82 2a 00
        E 32 b2 0b 7f
        E 0 92 2e 7f
        E 256 82 2e 00
        E 32 b2 0b 7f
        E 0 92 31 7f
        E 256 82 31 00
        E 32 b2 0b 7f
        E 0 92 2e 7f
        E 256 82 2e 00
        E 32 b2 0b 7f
        E 0 92 2f 7f
        E 256 82 2f 00
        E 32 b2 0b 7f
        E 0 92 2a 7f
        E 256 82 2a 00
        E 32 b2 0b 7f
        E 0 92 28 7f
        E 256 82 28 00
        E 32 b2 0b 7f
        E 0 92 27 7f
        E 256 82 27 00
        E 32 b2 0b 7f
        E 0 92 28 7f
        E 256 82 28 00
        E 32 b2 0b 7f
        E 0 92 2c 7f
        E 256 82 2c 00
        E 32 b2 0b 7f
        E 0 92 2f 7f
        E 256 82 2f 00
        E 32 b2 0b 7f
        E 0 92 34 7f
        E 256 82 34 00
        E 32 b2 0b 7f
        E 0 92 27 7f
        E 256 82 27 00
        E 32 b2 0b 7f
        E 0 92 2c 7f
        E 256 82 2c 00
        E 32 b2 0b 7f
        E 0 92 2f 7f
        E 256 82 2f 00
        E 32 b2 0b 7f
        E 0 92 33 7f
        E 256 82 33 00
        E 32 b2 0b 7f
        E 0 92 25 7f
        E 256 82 25 00
        E 32 b2 0b 7f
        E 0 92 28 7f
        E 256 82 28 00
        E 32 b2 0b 7f
        E 0 92 2c 7f
        E 256 82 2c 00
        E 32 b2 0b 7f
        E 0 92 31 7f
        E 256 82 31 00
        E 32 b2 0b 7f
        E 0 92 23 7f
        E 256 82 23 00
        E 32 b2 0b 7f
        E 0 92 28 7f
        E 256 82 28 00
        E 32 b2 0b 7f
        E 0 92 2c 7f
        E 256 82 2c 00
        E 32 b2 0b 7f
        E 0 92 2f 7f
        E 256 82 2f 00
        E 32 b2 0b 7f
        E 0 92 21 7f
        E 256 82 21 00
        E 32 b2 0b 7f
        E 0 92 25 7f
        E 256 82 25 00
        E 32 b2 0b 7f
        E 0 92 28 7f
        E 256 82 28 00
        E 32 b2 0b 7f
        E 0 92 2d 7f
        E 256 82 2d 00
        E 32 b2 0b 7f
        E 0 92 25 7f
        E 256 82 25 00
        E 32 b2 0b 7f
        E 0 92 29 7f
        E 256 82 29 00
        E 32 b2 0b 7f
        E 0 92 2c 7f
        E 256 82 2c 00
        E 32 b2 0b 7f
        E 0 92 2f 7f
        E 256 82 2f 00
        E 32 b2 0b 7f
        E 0 92 1e 7f
        E 256 82 1e 00
        E 48 b2 0b 7f
        E 0 92 22 7f
        E 272 82 22 00
        E 48 b2 0b 7f
        E 0 92 25 7f
        E 272 82 25 00
        E 48 b2 0b 7f
        E 0 92 2a 7f
        E 272 82 2a 00
        E 48 b2 0b 7f
        E 0 92 23 7f
        E 272 82 23 00
        E 48 b2 0b 7f
        E 0 92 2a 7f
        E 336 82 2a 00
        E 48 b2 0b 7f
        E 0 92 27 7f
        E 336 82 27 00
        E 48 b2 0b 7f
        E 0 92 2a 7f
        E 336 82 2a 00
        E 48 b2 0b 7f
        E 0 92 2f 7f
        E 304 82 2f 00
        E 48 b2 0b 7f
        E 0 92 34 7f
        E 288 82 34 00
        E 48 b2 0b 7f
        E 0 92 37 7f
        E 288 82 37 00
        E 48 b2 0b 7f
        E 0 92 3b 7f
        E 288 82 3b 00
        E 48 b2 0b 7f
        E 0 92 2d 7f
        E 288 82 2d 00
        E 48 b2 0b 7f
        E 0 92 32 7f
        E 288 82 32 00
        E 48 b2 0b 7f
        E 0 92 36 7f
        E 288 82 36 00
        E 48 b2 0b 7f
        E 0 92 39 7f
        E 288 82 39 00
        E 48 b2 0b 7f
        E 0 92 2b 7f
        E 288 82 2b 00
        E 48 b2 0b 7f
        E 0 92 30 7f
        E 288 82 30 00
        E 48 b2 0b 7f
        E 0 92 34 7f
        E 288 82 34 00
        E 48 b2 0b 7f
        E 0 92 37 7f
        E 288 82 37 00
        E 48 b2 0b 7f
        E 0 92 2d 7f
        E 288 82 2d 00
        E 48 b2 0b 7f
        E 0 92 32 7f
        E 288 82 32 00
        E 48 b2 0b 7f
        E 0 92 36 7f
        E 288 82 36 00
        E 48 b2 0b 7f
        E 0 92 39 7f
        E 304 82 39 00
        E 32 b2 0b 7f
        E 0 92 2f 7f
        E 304 82 2f 00
        E 32 b2 0b 7f
        E 0 92 34 7f
        E 304 82 34 00
        E 32 b2 0b 7f
        E 0 92 37 7f
        E 304 82 37 00
        E 32 b2 0b 7f
        E 0 92 3b 7f
        E 304 82 3b 00
        E 32 b2 0b 7f
        E 0 92 2d 7f
        E 304 82 2d 00
        E 32 b2 0b 7f
        E 0 92 32 7f
        E 304 82 32 00
        E 32 b2 0b 7f
        E 0 92 36 7f
        E 304 82 36 00
        E 32 b2 0b 7f
        E 0 92 39 7f
        E 304 82 39 00
        E 32 b2 0b 7f
        E 0 92 2b 7f
        E 304 82 2b 00
        E 48 b2 0b 7f
        E 0 92 30 7f
        E 288 82 30 00
        E 48 b2 0b 7f
        E 0 92 34 7f
        E 256 82 34 00
        E 32 b2 0b 7f
        E 0 92 37 7f
        E 256 82 37 00
        E 48 b2 0b 7f
        E 0 92 28 7f
        E 256 82 28 00
        E 32 b2 0b 7f
        E 0 92 2f 7f
        E 256 82 2f 00
        E 48 b2 0b 7f
        E 0 92 34 7f
        E 256 82 34 00
        E 32 b2 0b 7f
        E 0 92 38 7f
        E 256 82 38 00
        E 48 b2 0b 7f
        E 0 92 2d 7f
        E 240 82 2d 00
        E 48 b2 0b 7f
        E 0 92 30 7f
        E 224 82 30 00
        E 48 b2 0b 7f
        E 0 92 34 7f
        E 224 82 34 00
        E 48 b2 0b 7f
        E 0 92 39 7f
        E 224 82 39 00
        E 48 b2 0b 7f
        E 0 92 2d 7f
        E 224 82 2d 00
        E 48 b2 0b 7f
        E 0 92 32 7f
        E 224 82 32 00
        E 48 b2 0b 7f
        E 0 92 36 7f
        E 240 82 36 00
        E 32 b2 0b 7f
        E 0 92 39 7f
        E 240 82 39 00
        E 32 b2 0b 7f
        E 0 92 2d 7f
        E 240 82 2d 00
        E 32 b2 0b 7f
        E 0 92 33 7f
        E 240 82 33 00
        E 32 b2 0b 7f
        E 0 92 36 7f
        E 240 82 36 00
        E 32 b2 0b 7f
        E 0 92 33 7f
        E 240 82 33 00
        E 32 b2 0b 7f
        E 0 92 28 7f
        E 240 82 28 00
        E 32 b2 0b 7f
        E 0 92 2f 7f
        E 240 82 2f 00
        E 32 b2 0b 7f
        E 0 92 37 7f
        E 240 82 37 00
        E 32 b2 0b 7f
        E 0 92 3b 7f
        E 240 82 3b 00
        E 32 b2 0b 7f
        E 0 92 30 7f
        E 240 82 30 00
        E 32 b2 0b 7f
        E 0 92 34 7f
        E 240 82 34 00
        E 32 b2 0b 7f
        E 0 92 37 7f
        E 240 82 37 00
        E 32 b2 0b 7f
        E 0 92 3b 7f
        E 240 82 3b 00
        E 32 b2 0b 7f
        E 0 92 32 7f
        E 240 82 32 00
        E 32 b2 0b 7f
        E 0 92 36 7f
        E 240 82 36 00
        E 32 b2 0b 7f
        E 0 92 39 7f
        E 240 82 39 00
        E 32 b2 0b 7f
        E 0 92 3e 7f
        E 240 82 3e 00
        E 32 b2 0b 7f
        E 0 92 34 7f
        E 240 82 34 00
        E 32 b2 0b 7f
        E 0 92 38 7f
        E 240 82 38 00
        E 32 b2 0b 7f
        E 0 92 3b 7f
        E 240 82 3b 00
        E 32 b2 0b 7f
        E 0 92 3f 7f
        E 240 82 3f 00
        E 32 b2 0b 7f
        E 0 92 40 7f
        E 976 82 40 00
        E 30496 b2 0b 7f
        E 0 92 28 7f
        E 64 82 28 00
        E 112 b2 0b 7f
        E 0 92 28 7f
        E 64 82 28 00
        E 16 b2 0b 7f
        E 0 92 28 7f
        E 64 82 28 00
        E 32 b2 0b 7f
        E 0 92 36 7f
        E 144 82 36 00
        E 16 b2 0b 7f
        E 0 92 28 7f
        E 48 82 28 00
        E 0 b2 7b 00
        E 0 ff 2f 00
      >
    >
  >
  <TRACK {35A0762B-35DF-427D-A34F-7F4860EB52A9}
    NAME "NES - Noise / Drums [ch3]"
    PEAKCOL 11184810
    BEAT -1
    AUTOMODE 0
    PANLAWFLAGS 3
    VOLPAN 1 0 -1 -1 1
    MUTESOLO 0 0 0
    IPHASE 0
    PLAYOFFS 0 1
    ISBUS 0 0
    BUSCOMP 0 0 0 0 0
    SHOWINMIX 1 0.6667 0.5 1 0.5 0 0 0
    FIXEDLANES 9 0 0 0 0
    SEL 0
    REC 0 5088 1 0 0 0 0 0
    VU 2
    TRACKHEIGHT 0 0 0 0 0 0 0
    INQ 0 0 0 0.5 100 0 0 100
    NCHAN 2
    FX 1
    TRACKID {35A0762B-35DF-427D-A34F-7F4860EB52A9}
    PERF 0
    MIDIOUT -1
    MAINSEND 1 0
    <FXCHAIN
      WNDRECT 24 52 700 560
      SHOW 0
      LASTSEL 0
      DOCKED 0
      BYPASS 0 0 0
      <JS "ReapNES Studio/ReapNES_Console.jsfx" ""
        2 15 1 10 80 10 100 2 1 15 1 5 60 10 80 1 1 0 50 0 0 15 1 0 80 0 0 0.500000 0.500000 0.400000 0.300000 0.800000 3 1 0 0 0 0 - - - - - - - - - - - - - - - - - - - - - - - - - -
      >
      FLOATPOS 0 0 0 0
      FXID {141E3D64-C0B5-4690-981E-EE37C73ACABA}
      WAK 0 0
    >
    <ITEM
      POSITION 0
      LENGTH 67.1539678
      LOOP 0
      ALLTAKES 0
      FADEIN 0 0 0 0 0 0 0
      FADEOUT 0 0 0 0 0 0 0
      MUTE 0 0
      SEL 0
      IGUID {91FB592B-FAE1-4052-B113-05BFAFB4CBCF}
      <SOURCE MIDI
        HASDATA 1 480 QN
        CCINTERP 32
        E 22288 93 2a 5d
        E 80 83 2a 00
        E 48 93 2a 7f
        E 96 83 2a 00
        E 0 93 2a 7f
        E 80 83 2a 00
        E 0 93 2a 7f
        E 80 83 2a 00
        E 0 93 2a 7f
        E 96 83 2a 00
        E 0 93 2a 7f
        E 80 83 2a 00
        E 0 93 2a 7f
        E 80 83 2a 00
        E 0 93 2a 5d
        E 80 83 2a 00
        E 48 93 2a 7f
        E 96 83 2a 00
        E 0 93 2a 7f
        E 80 83 2a 00
        E 0 93 2a 7f
        E 80 83 2a 00
        E 0 93 2a 7f
        E 96 83 2a 00
        E 0 93 2a 7f
        E 80 83 2a 00
        E 0 93 2a 7f
        E 80 83 2a 00
        E 0 93 2a 5d
        E 80 83 2a 00
        E 48 93 2a 7f
        E 96 83 2a 00
        E 0 93 2a 7f
        E 96 83 2a 00
        E 0 93 2a 5d
        E 80 83 2a 00
        E 48 93 2a 7f
        E 96 83 2a 00
        E 0 93 2a 7f
        E 96 83 2a 00
        E 0 93 2a 5d
        E 80 83 2a 00
        E 48 93 2a 7f
        E 96 83 2a 00
        E 0 93 2a 7f
        E 96 83 2a 00
        E 0 93 2a 5d
        E 80 83 2a 00
        E 48 93 2a 7f
        E 96 83 2a 00
        E 0 93 2a 7f
        E 80 83 2a 00
        E 0 93 2a 7f
        E 80 83 2a 00
        E 0 93 2a 7f
        E 96 83 2a 00
        E 0 93 2a 7f
        E 80 83 2a 00
        E 0 93 2a 7f
        E 80 83 2a 00
        E 0 93 2a 6e
        E 80 83 2a 00
        E 0 93 2a 5d
        E 96 83 2a 00
        E 0 93 2a 55
        E 80 83 2a 00
        E 0 93 2a 44
        E 80 83 2a 00
        E 0 93 2a 33
        E 96 83 2a 00
        E 0 93 2a 2a
        E 80 83 2a 00
        E 0 93 2a 19
        E 80 83 2a 00
        E 0 93 2a 08
        E 48 83 2a 00
        E 1920 93 2a 5d
        E 80 83 2a 00
        E 48 93 2a 7f
        E 96 83 2a 00
        E 0 93 2a 7f
        E 96 83 2a 00
        E 0 93 2a 5d
        E 80 83 2a 00
        E 48 93 2a 7f
        E 96 83 2a 00
        E 0 93 2a 7f
        E 96 83 2a 00
        E 0 93 2a 5d
        E 80 83 2a 00
        E 48 93 2a 7f
        E 96 83 2a 00
        E 0 93 2a 7f
        E 96 83 2a 00
        E 0 93 2a 5d
        E 80 83 2a 00
        E 48 93 2a 7f
        E 96 83 2a 00
        E 0 93 2a 7f
        E 96 83 2a 00
        E 0 93 2a 5d
        E 80 83 2a 00
        E 48 93 2a 7f
        E 96 83 2a 00
        E 0 93 2a 7f
        E 96 83 2a 00
        E 0 93 2a 5d
        E 80 83 2a 00
        E 48 93 2a 7f
        E 96 83 2a 00
        E 0 93 2a 7f
        E 96 83 2a 00
        E 0 93 2a 5d
        E 80 83 2a 00
        E 48 93 2a 7f
        E 96 83 2a 00
        E 0 93 2a 7f
        E 96 83 2a 00
        E 0 93 2a 5d
        E 80 83 2a 00
        E 48 93 2a 7f
        E 96 83 2a 00
        E 0 93 2a 7f
        E 96 83 2a 00
        E 0 93 2a 5d
        E 80 83 2a 00
        E 48 93 2a 7f
        E 96 83 2a 00
        E 0 93 2a 7f
        E 96 83 2a 00
        E 0 93 2a 5d
        E 80 83 2a 00
        E 48 93 2a 7f
        E 96 83 2a 00
        E 0 93 2a 7f
        E 96 83 2a 00
        E 0 93 2a 5d
        E 80 83 2a 00
        E 48 93 2a 7f
        E 96 83 2a 00
        E 0 93 2a 7f
        E 96 83 2a 00
        E 0 93 2a 5d
        E 80 83 2a 00
        E 48 93 2a 7f
        E 96 83 2a 00
        E 0 93 2a 7f
        E 80 83 2a 00
        E 0 93 2a 7f
        E 80 83 2a 00
        E 0 93 2a 7f
        E 96 83 2a 00
        E 0 93 2a 7f
        E 80 83 2a 00
        E 0 93 2a 7f
        E 80 83 2a 00
        E 0 93 2a 6e
        E 80 83 2a 00
        E 0 93 2a 5d
        E 96 83 2a 00
        E 0 93 2a 55
        E 80 83 2a 00
        E 0 93 2a 44
        E 80 83 2a 00
        E 0 93 2a 33
        E 96 83 2a 00
        E 0 93 2a 2a
        E 80 83 2a 00
        E 0 93 2a 19
        E 80 83 2a 00
        E 0 93 2a 08
        E 48 83 2a 00
        E 1920 93 2a 5d
        E 80 83 2a 00
        E 48 93 2a 7f
        E 96 83 2a 00
        E 0 93 2a 7f
        E 96 83 2a 00
        E 0 93 2a 5d
        E 80 83 2a 00
        E 48 93 2a 7f
        E 96 83 2a 00
        E 0 93 2a 7f
        E 96 83 2a 00
        E 0 93 2a 5d
        E 80 83 2a 00
        E 48 93 2a 7f
        E 96 83 2a 00
        E 0 93 2a 7f
        E 96 83 2a 00
        E 0 93 2a 5d
        E 80 83 2a 00
        E 48 93 2a 7f
        E 96 83 2a 00
        E 0 93 2a 7f
        E 96 83 2a 00
        E 0 93 2a 5d
        E 80 83 2a 00
        E 48 93 2a 7f
        E 96 83 2a 00
        E 0 93 2a 7f
        E 96 83 2a 00
        E 0 93 2a 5d
        E 80 83 2a 00
        E 48 93 2a 7f
        E 96 83 2a 00
        E 0 93 2a 7f
        E 96 83 2a 00
        E 0 93 2a 5d
        E 80 83 2a 00
        E 48 93 2a 7f
        E 96 83 2a 00
        E 0 93 2a 7f
        E 96 83 2a 00
        E 0 93 2a 5d
        E 80 83 2a 00
        E 48 93 2a 7f
        E 96 83 2a 00
        E 0 93 2a 7f
        E 96 83 2a 00
        E 0 93 2a 5d
        E 80 83 2a 00
        E 48 93 2a 7f
        E 96 83 2a 00
        E 0 93 2a 7f
        E 96 83 2a 00
        E 0 93 2a 5d
        E 80 83 2a 00
        E 48 93 2a 7f
        E 96 83 2a 00
        E 0 93 2a 7f
        E 96 83 2a 00
        E 0 93 2a 5d
        E 80 83 2a 00
        E 48 93 2a 7f
        E 96 83 2a 00
        E 0 93 2a 7f
        E 96 83 2a 00
        E 0 93 2a 5d
        E 80 83 2a 00
        E 48 93 2a 7f
        E 96 83 2a 00
        E 0 93 2a 7f
        E 80 83 2a 00
        E 0 93 2a 7f
        E 80 83 2a 00
        E 0 93 2a 7f
        E 96 83 2a 00
        E 0 93 2a 7f
        E 80 83 2a 00
        E 0 93 2a 7f
        E 80 83 2a 00
        E 0 93 2a 6e
        E 80 83 2a 00
        E 0 93 2a 5d
        E 96 83 2a 00
        E 0 93 2a 55
        E 80 83 2a 00
        E 0 93 2a 44
        E 80 83 2a 00
        E 0 93 2a 33
        E 96 83 2a 00
        E 0 93 2a 2a
        E 80 83 2a 00
        E 0 93 2a 19
        E 80 83 2a 00
        E 0 93 2a 08
        E 48 83 2a 00
        E 29280 93 2a 44
        E 144 83 2a 00
        E 32 93 2a 44
        E 176 83 2a 00
        E 0 93 2a 44
        E 160 83 2a 00
        E 0 93 2a 44
        E 48 83 2a 00
        E 0 b3 7b 00
        E 0 ff 2f 00
      >
    >
  >
>