<REAPER_PROJECT 0.1 "7.27/win64" 1707000000
  <NOTES 0 2
    |ReapNES Studio Project
    |MIDI Import - Double_Dragon_title_rom_v1
  >
  RIPPLE 0
  GROUPOVERRIDE 0 0 0
  AUTOXFADE 129
  ENVATTACH 3
  POOLEDENVATTACH 0
  MIXERUIFLAGS 11 48
  ENVFADESZ10 40
  PEAKGAIN 1
  FEEDBACK 0
  PANLAW 1
  PROJOFFS 0 0 0
  MAXPROJLEN 0 0
  GRID 3199 8 1 8 1 0 0 0
  TIMEMODE 1 5 -1 30 0 0 -1
  VIDEO_CONFIG 0 0 65792
  PANMODE 3
  PANLAWFLAGS 3
  CURSOR 0
  ZOOM 100 0 0
  VZOOMEX 6 0
  USE_REC_CFG 0
  RECMODE 1
  SMPTESYNC 0 30 100 40 1000 300 0 0 1 0 0
  LOOP 0
  LOOPGRAN 0 4
  RECORD_PATH "Media" ""
  <RECORD_CFG
    ZXZhdxgAAQ==
  >
  <APPLYFX_CFG
  >
  RENDER_FILE ""
  RENDER_PATTERN ""
  RENDER_FMT 0 2 0
  RENDER_1X 0
  RENDER_RANGE 1 0 0 18 1000
  RENDER_RESAMPLE 3 0 1
  RENDER_ADDTOPROJ 0
  RENDER_STEMS 0
  RENDER_DITHER 0
  TIMELOCKMODE 1
  TEMPOENVLOCKMODE 1
  ITEMMIX 1
  DEFPITCHMODE 589824 0
  TAKELANE 1
  SAMPLERATE 44100 0 0
  <RENDER_CFG
    ZXZhdxgAAQ==
  >
  LOCK 1
  <METRONOME 6 2
    VOL 0.25 0.125
    BEATLEN 4
    FREQ 1760 880 1
    SAMPLES "" ""
    SPLIGNORE 0 0
    SPLDEF 2 660 "" 0
    SPLDEF 3 440 "" 0
    PATTERN 0 169
    PATTERNSTR ABBB
    MULT 1
  >
  GLOBAL_AUTO -1
  TEMPO 128.59999614200012 4 4
  PLAYRATE 1 0 0.25 4
  SELECTION 0 0
  SELECTION2 0 0
  MASTERAUTOMODE 0
  MASTERTRACKHEIGHT 0 0
  MASTERPEAKCOL 16576
  MASTERMUTESOLO 0
  MASTERTRACKVIEW 0 0.6667 0.5 0.5 0 0 0 0 0 0 0 0 0 0
  MASTERHWOUT 0 0 1 0 0 0 0 -1
  MASTER_NCH 2 2
  MASTER_VOLUME 1 0 -1 -1 1
  MASTER_PANMODE 3
  MASTER_PANLAWFLAGS 3
  MASTER_FX 1
  MASTER_SEL 0
  <MASTERPLAYSPEEDENV
    EGUID {48A652CD-2CBD-46AA-B9AF-E5801B795820}
    ACT 0 -1
    VIS 0 1 1
    LANEHEIGHT 0 0
    ARM 0
    DEFSHAPE 0 -1 -1
  >
  <TEMPOENVEX
    EGUID {2EDC49E7-5916-49B8-A84F-E5A73996398F}
    ACT 1 -1
    VIS 1 0 1
    LANEHEIGHT 0 0
    ARM 0
    DEFSHAPE 1 -1 -1
  >
  <PROJBAY
  >
  <TRACK {0F8ED485-8186-4EF8-AC72-B2A1E1D6F61E}
    NAME "NES - Pulse 1 [ch0]"
    PEAKCOL 16576606
    BEAT -1
    AUTOMODE 0
    PANLAWFLAGS 3
    VOLPAN 1 0 -1 -1 1
    MUTESOLO 0 0 0
    IPHASE 0
    PLAYOFFS 0 1
    ISBUS 0 0
    BUSCOMP 0 0 0 0 0
    SHOWINMIX 1 0.6667 0.5 1 0.5 0 0 0
    FIXEDLANES 9 0 0 0 0
    SEL 1
    REC 1 5088 1 0 0 0 0 0
    VU 2
    TRACKHEIGHT 0 0 0 0 0 0 0
    INQ 0 0 0 0.5 100 0 0 100
    NCHAN 2
    FX 1
    TRACKID {0F8ED485-8186-4EF8-AC72-B2A1E1D6F61E}
    PERF 0
    MIDIOUT -1
    MAINSEND 1 0
    <FXCHAIN
      WNDRECT 24 52 700 560
      SHOW 0
      LASTSEL 0
      DOCKED 0
      BYPASS 0 0 0
      <JS "ReapNES Studio/ReapNES_Console.jsfx" ""
        2 15 1 10 80 10 100 2 1 15 1 5 60 10 80 1 1 0 50 0 0 15 1 0 100 0 0 0.500000 0.500000 0.400000 0.300000 0.800000 0 1 0 0 0 0 - - - - - - - - - - - - - - - - - - - - - - - - - -
      >
      FLOATPOS 0 0 0 0
      FXID {3BF23EFA-52EA-49E7-B0A8-CCB8AE05768D}
      WAK 0 0
    >
    <ITEM
      POSITION 0
      LENGTH 74.55676740000001
      LOOP 0
      ALLTAKES 0
      FADEIN 0 0 0 0 0 0 0
      FADEOUT 0 0 0 0 0 0 0
      MUTE 0 0
      SEL 0
      IGUID {CB4A5B09-AB61-4734-82CE-E3283DBA1F28}
      <SOURCE MIDI
        HASDATA 1 480 QN
        CCINTERP 32
        E 0 c0 50
        E 0 b0 0c 60
        E 0 b0 0b 6e
        E 0 90 34 6e
        E 48 b0 0b 55
        E 16 b0 0b 44
        E 160 b0 0b 4c
        E 64 80 34 00
        E 32 b0 0b 6e
        E 0 90 3c 6e
        E 48 b0 0b 55
        E 16 b0 0b 44
        E 160 b0 0b 4c
        E 160 b0 0b 55
        E 64 80 3c 00
        E 32 b0 0b 6e
        E 0 90 3a 6e
        E 48 b0 0b 55
        E 16 b0 0b 44
        E 160 b0 0b 4c
        E 64 80 3a 00
        E 16 b0 0b 6e
        E 0 90 41 6e
        E 48 b0 0b 55
        E 16 b0 0b 44
        E 80 80 41 00
        E 16 b0 0b 6e
        E 0 90 37 6e
        E 48 b0 0b 55
        E 16 b0 0b 44
        E 160 b0 0b 4c
        E 80 80 37 00
        E 16 b0 0b 6e
        E 0 90 40 6e
        E 48 b0 0b 55
        E 16 b0 0b 44
        E 160 b0 0b 4c
        E 160 b0 0b 55
        E 64 80 40 00
        E 32 b0 0b 6e
        E 0 90 35 6e
        E 48 b0 0b 55
        E 16 b0 0b 44
        E 160 b0 0b 4c
        E 64 80 35 00
        E 32 b0 0b 6e
        E 0 90 3e 6e
        E 48 b0 0b 55
        E 16 b0 0b 44
        E 64 80 3e 00
        E 32 b0 0b 6e
        E 0 90 34 6e
        E 48 b0 0b 55
        E 16 b0 0b 44
        E 160 b0 0b 4c
        E 64 80 34 00
        E 16 b0 0b 6e
        E 0 90 3c 6e
        E 48 b0 0b 55
        E 16 b0 0b 44
        E 160 b0 0b 4c
        E 160 b0 0b 55
        E 80 80 3c 00
        E 16 b0 0b 6e
        E 0 90 3a 6e
        E 48 b0 0b 55
        E 16 b0 0b 44
        E 160 b0 0b 4c
        E 64 80 3a 00
        E 32 b0 0b 6e
        E 0 90 41 6e
        E 48 b0 0b 55
        E 16 b0 0b 44
        E 64 80 41 00
        E 32 b0 0b 6e
        E 0 90 37 6e
        E 48 b0 0b 55
        E 16 b0 0b 44
        E 160 b0 0b 4c
        E 64 80 37 00
        E 32 b0 0b 6e
        E 0 90 40 6e
        E 48 b0 0b 55
        E 16 b0 0b 44
        E 160 b0 0b 4c
        E 64 80 40 00
        E 32 b0 0b 6e
        E 0 90 48 6e
        E 48 b0 0b 55
        E 16 b0 0b 44
        E 64 80 48 00
        E 16 b0 0b 6e
        E 0 90 35 6e
        E 48 b0 0b 55
        E 16 b0 0b 44
        E 160 b0 0b 4c
        E 80 80 35 00
        E 16 b0 0b 6e
        E 0 90 3e 6e
        E 48 b0 0b 55
        E 16 b0 0b 44
        E 80 80 3e 00
        E 16 b0 0b 6e
        E 0 90 34 6e
        E 48 b0 0b 55
        E 16 b0 0b 44
        E 160 b0 0b 4c
        E 64 80 34 00
        E 32 b0 0b 6e
        E 0 90 3c 6e
        E 48 b0 0b 55
        E 16 b0 0b 44
        E 160 b0 0b 4c
        E 160 b0 0b 55
        E 64 80 3c 00
        E 32 b0 0b 6e
        E 0 90 3a 6e
        E 48 b0 0b 55
        E 16 b0 0b 44
        E 160 b0 0b 4c
        E 64 80 3a 00
        E 32 b0 0b 6e
        E 0 90 41 6e
        E 48 b0 0b 55
        E 16 b0 0b 44
        E 64 80 41 00
        E 16 b0 0b 6e
        E 0 90 37 6e
        E 48 b0 0b 55
        E 16 b0 0b 44
        E 160 b0 0b 4c
        E 80 80 37 00
        E 16 b0 0b 6e
        E 0 90 40 6e
        E 48 b0 0b 55
        E 16 b0 0b 44
        E 160 b0 0b 4c
        E 64 80 40 00
        E 32 b0 0b 6e
        E 0 90 48 6e
        E 48 b0 0b 55
        E 16 b0 0b 44
        E 64 80 48 00
        E 32 b0 0b 6e
        E 0 90 2e 6e
        E 48 b0 0b 55
        E 16 b0 0b 44
        E 128 80 2e 00
        E 16 b0 0b 6e
        E 0 90 35 6e
        E 48 b0 0b 55
        E 16 b0 0b 44
        E 128 80 35 00
        E 16 b0 0b 6e
        E 0 90 3c 6e
        E 48 b0 0b 55
        E 16 b0 0b 44
        E 128 80 3c 00
        E 32 b0 0b 6e
        E 0 90 2e 6e
        E 48 b0 0b 55
        E 16 b0 0b 44
        E 112 80 2e 00
        E 32 b0 0b 6e
        E 0 90 32 6e
        E 48 b0 0b 55
        E 16 b0 0b 44
        E 112 80 32 00
        E 32 b0 0b 6e
        E 0 90 3a 6e
        E 48 b0 0b 55
        E 16 b0 0b 44
        E 16 80 3a 00
        E 128 b0 0b 6e
        E 0 90 34 6e
        E 48 b0 0b 55
        E 16 b0 0b 44
        E 128 80 34 00
        E 32 b0 0b 6e
        E 0 90 3d 6e
        E 48 b0 0b 55
        E 16 b0 0b 44
        E 112 80 3d 00
        E 32 b0 0b 6e
        E 0 90 3d 6e
        E 48 b0 0b 55
        E 16 b0 0b 44
        E 112 80 3d 00
        E 352 b0 0b 6e
        E 0 90 39 6e
        E 48 b0 0b 5d
        E 16 b0 0b 44
        E 32 80 39 00
        E 64 b0 0b 6e
        E 0 90 3c 6e
        E 48 b0 0b 5d
        E 16 b0 0b 44
        E 32 80 3c 00
        E 64 b0 0b 6e
        E 0 90 3e 6e
        E 48 b0 0b 5d
        E 16 b0 0b 44
        E 96 b0 0b 4c
        E 144 b0 0b 55
        E 144 b0 0b 5d
        E 16 80 3e 00
        E 320 b0 0b 6e
        E 0 90 41 6e
        E 48 b0 0b 5d
        E 16 b0 0b 44
        E 48 80 41 00
        E 48 b0 0b 6e
        E 0 90 40 6e
        E 48 b0 0b 5d
        E 16 b0 0b 44
        E 96 b0 0b 4c
        E 32 80 40 00
        E 48 b0 0b 6e
        E 0 90 3e 6e
        E 48 80 3e 00
        E 32 90 40 6e
        E 48 b0 0b 5d
        E 16 b0 0b 44
        E 96 b0 0b 4c
        E 144 b0 0b 55
        E 144 b0 0b 5d
        E 32 80 40 00
        E 304 b0 0b 6e
        E 0 90 43 6e
        E 48 b0 0b 5d
        E 16 b0 0b 44
        E 48 80 43 00
        E 48 b0 0b 6e
        E 0 90 41 6e
        E 48 b0 0b 5d
        E 16 b0 0b 44
        E 96 b0 0b 4c
        E 32 80 41 00
        E 48 b0 0b 6e
        E 0 90 40 6e
        E 48 80 40 00
        E 32 90 41 6e
        E 48 b0 0b 5d
        E 16 b0 0b 44
        E 96 b0 0b 4c
        E 144 b0 0b 55
        E 144 b0 0b 5d
        E 32 80 41 00
        E 320 b0 0b 6e
        E 0 90 45 6e
        E 48 b0 0b 5d
        E 16 b0 0b 44
        E 32 80 45 00
        E 64 b0 0b 6e
        E 0 90 43 6e
        E 48 b0 0b 5d
        E 16 b0 0b 44
        E 32 80 43 00
        E 64 b0 0b 6e
        E 0 90 41 6e
        E 48 b0 0b 5d
        E 16 b0 0b 44
        E 32 80 41 00
        E 48 b0 0b 6e
        E 0 90 43 6e
        E 48 b0 0b 5d
        E 16 b0 0b 44
        E 96 b0 0b 4c
        E 80 80 43 00
        E 80 b0 0b 6e
        E 0 90 3e 6e
        E 48 b0 0b 5d
        E 16 b0 0b 44
        E 48 80 3e 00
        E 48 b0 0b 6e
        E 0 90 43 6e
        E 48 b0 0b 5d
        E 16 b0 0b 44
        E 96 b0 0b 4c
        E 144 b0 0b 55
        E 96 80 43 00
        E 80 b0 0b 6e
        E 0 90 43 6e
        E 48 b0 0b 5d
        E 16 b0 0b 44
        E 32 80 43 00
        E 64 b0 0b 6e
        E 0 90 45 6e
        E 48 b0 0b 5d
        E 16 b0 0b 44
        E 32 80 45 00
        E 64 b0 0b 6e
        E 0 90 46 6e
        E 48 b0 0b 5d
        E 16 b0 0b 44
        E 96 b0 0b 4c
        E 144 b0 0b 55
        E 144 b0 0b 5d
        E 16 80 46 00
        E 320 b0 0b 6e
        E 0 90 41 6e
        E 48 b0 0b 5d
        E 16 b0 0b 44
        E 48 80 41 00
        E 48 b0 0b 6e
        E 0 90 41 6e
        E 48 b0 0b 5d
        E 16 b0 0b 44
        E 48 80 41 00
        E 48 b0 0b 6e
        E 0 90 46 6e
        E 48 b0 0b 5d
        E 16 b0 0b 44
        E 48 80 46 00
        E 48 b0 0b 6e
        E 0 90 45 6e
        E 48 b0 0b 5d
        E 16 b0 0b 44
        E 96 b0 0b 4c
        E 144 b0 0b 55
        E 144 b0 0b 5d
        E 32 80 45 00
        E 320 b0 0b 6e
        E 0 90 41 6e
        E 48 b0 0b 5d
        E 16 b0 0b 44
        E 32 80 41 00
        E 48 b0 0b 6e
        E 0 90 41 6e
        E 48 b0 0b 5d
        E 16 b0 0b 44
        E 48 80 41 00
        E 48 b0 0b 6e
        E 0 90 45 6e
        E 48 b0 0b 5d
        E 16 b0 0b 44
        E 48 80 45 00
        E 48 b0 0b 6e
        E 0 90 43 6e
        E 48 b0 0b 5d
        E 16 b0 0b 44
        E 96 b0 0b 4c
        E 144 b0 0b 55
        E 144 b0 0b 5d
        E 160 b0 0b 66
        E 144 b0 0b 6e
        E 992 80 43 00
        E 480 90 39 6e
        E 48 b0 0b 5d
        E 16 b0 0b 44
        E 48 80 39 00
        E 48 b0 0b 6e
        E 0 90 3c 6e
        E 48 b0 0b 5d
        E 16 b0 0b 44
        E 48 80 3c 00
        E 48 b0 0b 6e
        E 0 90 3e 6e
        E 48 b0 0b 5d
        E 16 b0 0b 44
        E 96 b0 0b 4c
        E 144 b0 0b 55
        E 144 b0 0b 5d
        E 32 80 3e 00
        E 304 b0 0b 6e
        E 0 90 41 6e
        E 48 b0 0b 5d
        E 16 b0 0b 44
        E 48 80 41 00
        E 48 b0 0b 6e
        E 0 90 40 6e
        E 48 b0 0b 5d
        E 16 b0 0b 44
        E 96 b0 0b 4c
        E 32 80 40 00
        E 48 b0 0b 6e
        E 0 90 3e 6e
        E 48 80 3e 00
        E 32 90 40 6e
        E 48 b0 0b 5d
        E 16 b0 0b 44
        E 96 b0 0b 4c
        E 144 b0 0b 55
        E 144 b0 0b 5d
        E 32 80 40 00
        E 320 b0 0b 6e
        E 0 90 43 6e
        E 48 b0 0b 5d
        E 16 b0 0b 44
        E 32 80 43 00
        E 64 b0 0b 6e
        E 0 90 41 6e
        E 48 b0 0b 5d
        E 16 b0 0b 44
        E 96 b0 0b 4c
        E 16 80 41 00
        E 48 b0 0b 6e
        E 0 90 40 6e
        E 48 b0 0b 5d
        E 16 80 40 00
        E 16 b0 0b 6e
        E 0 90 41 6e
        E 48 b0 0b 5d
        E 16 b0 0b 44
        E 96 b0 0b 4c
        E 144 b0 0b 55
        E 144 b0 0b 5d
        E 32 80 41 00
        E 320 b0 0b 6e
        E 0 90 45 6e
        E 48 b0 0b 5d
        E 16 b0 0b 44
        E 48 80 45 00
        E 48 b0 0b 6e
        E 0 90 43 6e
        E 48 b0 0b 5d
        E 16 b0 0b 44
        E 32 80 43 00
        E 64 b0 0b 6e
        E 0 90 41 6e
        E 48 b0 0b 5d
        E 16 b0 0b 44
        E 32 80 41 00
        E 64 b0 0b 6e
        E 0 90 43 6e
        E 48 b0 0b 5d
        E 16 b0 0b 44
        E 96 b0 0b 4c
        E 80 80 43 00
        E 64 b0 0b 6e
        E 0 90 3e 6e
        E 48 b0 0b 5d
        E 16 b0 0b 44
        E 48 80 3e 00
        E 48 b0 0b 6e
        E 0 90 43 6e
        E 48 b0 0b 5d
        E 16 b0 0b 44
        E 96 b0 0b 4c
        E 144 b0 0b 55
        E 96 80 43 00
        E 80 b0 0b 6e
        E 0 90 43 6e
        E 48 b0 0b 5d
        E 16 b0 0b 44
        E 48 80 43 00
        E 48 b0 0b 6e
        E 0 90 45 6e
        E 48 b0 0b 5d
        E 16 b0 0b 44
        E 48 80 45 00
        E 48 b0 0b 6e
        E 0 90 46 6e
        E 48 b0 0b 5d
        E 16 b0 0b 44
        E 96 b0 0b 4c
        E 144 b0 0b 55
        E 144 b0 0b 5d
        E 32 80 46 00
        E 304 b0 0b 6e
        E 0 90 41 6e
        E 48 b0 0b 5d
        E 16 b0 0b 44
        E 48 80 41 00
        E 48 b0 0b 6e
        E 0 90 41 6e
        E 48 b0 0b 5d
        E 16 b0 0b 44
        E 48 80 41 00
        E 48 b0 0b 6e
        E 0 90 46 6e
        E 48 b0 0b 5d
        E 16 b0 0b 44
        E 48 80 46 00
        E 48 b0 0b 6e
        E 0 90 45 6e
        E 48 b0 0b 5d
        E 16 b0 0b 44
        E 96 b0 0b 4c
        E 144 b0 0b 55
        E 144 b0 0b 5d
        E 32 80 45 00
        E 320 b0 0b 6e
        E 0 90 41 6e
        E 48 b0 0b 5d
        E 16 b0 0b 44
        E 32 80 41 00
        E 64 b0 0b 6e
        E 0 90 41 6e
        E 48 b0 0b 5d
        E 16 b0 0b 44
        E 32 80 41 00
        E 64 b0 0b 6e
        E 0 90 45 6e
        E 48 b0 0b 5d
        E 16 b0 0b 44
        E 32 80 45 00
        E 48 b0 0b 6e
        E 0 90 43 6e
        E 48 b0 0b 5d
        E 16 b0 0b 44
        E 96 b0 0b 4c
        E 144 b0 0b 55
        E 144 b0 0b 5d
        E 32 80 43 00
        E 320 b0 0b 6e
        E 0 90 43 6e
        E 48 b0 0b 5d
        E 16 b0 0b 44
        E 48 80 43 00
        E 48 b0 0b 6e
        E 0 90 46 6e
        E 48 b0 0b 5d
        E 16 b0 0b 44
        E 48 80 46 00
        E 48 b0 0b 6e
        E 0 90 48 6e
        E 48 b0 0b 5d
        E 16 b0 0b 44
        E 96 b0 0b 4c
        E 144 b0 0b 55
        E 144 b0 0b 5d
        E 160 b0 0b 66
        E 144 b0 0b 6e
        E 384 80 48 00
        E 288 b0 0b 5d
        E 0 90 3e 5d
        E 448 80 3e 00
        E 32 90 40 5d
        E 448 80 40 00
        E 16 90 43 5d
        E 144 80 43 00
        E 16 90 41 5d
        E 1088 80 41 00
        E 352 90 3e 5d
        E 448 80 3e 00
        E 16 90 40 5d
        E 448 80 40 00
        E 32 90 3c 5d
        E 128 80 3c 00
        E 32 90 41 5d
        E 768 80 41 00
        E 656 90 3e 5d
        E 448 80 3e 00
        E 32 90 40 5d
        E 448 80 40 00
        E 32 90 43 5d
        E 128 80 43 00
        E 32 90 41 5d
        E 752 80 41 00
        E 192 90 3e 5d
        E 128 80 3e 00
        E 32 90 41 5d
        E 128 80 41 00
        E 32 90 43 5d
        E 2672 80 43 00
        E 16 b0 0b 6e
        E 0 90 35 6e
        E 48 b0 0b 55
        E 16 b0 0b 44
        E 160 b0 0b 4c
        E 64 80 35 00
        E 32 b0 0b 6e
        E 0 90 3e 6e
        E 48 b0 0b 55
        E 16 b0 0b 44
        E 64 80 3e 00
        E 32 b0 0b 6e
        E 0 90 34 6e
        E 48 b0 0b 55
        E 16 b0 0b 44
        E 160 b0 0b 4c
        E 64 80 34 00
        E 32 b0 0b 6e
        E 0 90 3c 6e
        E 48 b0 0b 55
        E 16 b0 0b 44
        E 160 b0 0b 4c
        E 160 b0 0b 55
        E 64 80 3c 00
        E 32 b0 0b 6e
        E 0 90 3a 6e
        E 48 b0 0b 55
        E 16 b0 0b 44
        E 160 b0 0b 4c
        E 64 80 3a 00
        E 16 b0 0b 6e
        E 0 90 41 6e
        E 48 b0 0b 55
        E 16 b0 0b 44
        E 80 80 41 00
        E 16 b0 0b 6e
        E 0 90 37 6e
        E 48 b0 0b 55
        E 16 b0 0b 44
        E 160 b0 0b 4c
        E 64 80 37 00
        E 32 b0 0b 6e
        E 0 90 40 6e
        E 48 b0 0b 55
        E 16 b0 0b 44
        E 160 b0 0b 4c
        E 160 b0 0b 55
        E 64 80 40 00
        E 32 b0 0b 6e
        E 0 90 35 6e
        E 48 b0 0b 55
        E 16 b0 0b 44
        E 160 b0 0b 4c
        E 64 80 35 00
        E 32 b0 0b 6e
        E 0 90 3e 6e
        E 48 b0 0b 55
        E 16 b0 0b 44
        E 64 80 3e 00
        E 32 b0 0b 6e
        E 0 90 34 6e
        E 48 b0 0b 55
        E 16 b0 0b 44
        E 160 b0 0b 4c
        E 64 80 34 00
        E 16 b0 0b 6e
        E 0 90 3c 6e
        E 48 b0 0b 55
        E 16 b0 0b 44
        E 160 b0 0b 4c
        E 160 b0 0b 55
        E 64 80 3c 00
        E 32 b0 0b 6e
        E 0 90 3a 6e
        E 48 b0 0b 55
        E 16 b0 0b 44
        E 160 b0 0b 4c
        E 64 80 3a 00
        E 32 b0 0b 6e
        E 0 90 41 6e
        E 48 b0 0b 55
        E 16 b0 0b 44
        E 64 80 41 00
        E 32 b0 0b 6e
        E 0 90 37 6e
        E 48 b0 0b 55
        E 16 b0 0b 44
        E 160 b0 0b 4c
        E 64 80 37 00
        E 32 b0 0b 6e
        E 0 90 40 6e
        E 48 b0 0b 55
        E 16 b0 0b 44
        E 160 b0 0b 4c
        E 64 80 40 00
        E 16 b0 0b 6e
        E 0 90 48 6e
        E 48 b0 0b 55
        E 16 b0 0b 44
        E 80 80 48 00
        E 16 b0 0b 6e
        E 0 90 35 6e
        E 48 b0 0b 55
        E 16 b0 0b 44
        E 160 b0 0b 4c
        E 80 80 35 00
        E 16 b0 0b 6e
        E 0 90 3e 6e
        E 48 b0 0b 55
        E 16 b0 0b 44
        E 64 80 3e 00
        E 32 b0 0b 6e
        E 0 90 34 6e
        E 48 b0 0b 55
        E 16 b0 0b 44
        E 160 b0 0b 4c
        E 64 80 34 00
        E 32 b0 0b 6e
        E 0 90 3c 6e
        E 48 b0 0b 55
        E 16 b0 0b 44
        E 160 b0 0b 4c
        E 160 b0 0b 55
        E 64 80 3c 00
        E 32 b0 0b 6e
        E 0 90 3a 6e
        E 48 b0 0b 55
        E 16 b0 0b 44
        E 160 b0 0b 4c
        E 64 80 3a 00
        E 16 b0 0b 6e
        E 0 90 41 6e
        E 48 b0 0b 55
        E 16 b0 0b 44
        E 80 80 41 00
        E 16 b0 0b 6e
        E 0 90 37 6e
        E 48 b0 0b 55
        E 16 b0 0b 44
        E 160 b0 0b 4c
        E 80 80 37 00
        E 16 b0 0b 6e
        E 0 90 40 6e
        E 48 b0 0b 55
        E 16 b0 0b 44
        E 160 b0 0b 4c
        E 64 80 40 00
        E 32 b0 0b 6e
        E 0 90 48 6e
        E 48 b0 0b 55
        E 16 b0 0b 44
        E 64 80 48 00
        E 32 b0 0b 6e
        E 0 90 2e 6e
        E 48 b0 0b 55
        E 16 b0 0b 44
        E 112 80 2e 00
        E 32 b0 0b 6e
        E 0 90 35 6e
        E 48 b0 0b 55
        E 16 b0 0b 44
        E 128 80 35 00
        E 16 b0 0b 6e
        E 0 90 3c 6e
        E 48 b0 0b 55
        E 16 b0 0b 44
        E 128 80 3c 00
        E 32 b0 0b 6e
        E 0 90 2e 6e
        E 48 b0 0b 55
        E 16 b0 0b 44
        E 112 80 2e 00
        E 32 b0 0b 6e
        E 0 90 32 6e
        E 48 b0 0b 55
        E 16 b0 0b 44
        E 112 80 32 00
        E 32 b0 0b 6e
        E 0 90 3a 6e
        E 48 b0 0b 55
        E 16 b0 0b 44
        E 16 80 3a 00
        E 128 b0 0b 6e
        E 0 90 34 6e
        E 48 b0 0b 55
        E 16 b0 0b 44
        E 128 80 34 00
        E 16 b0 0b 6e
        E 0 90 3d 6e
        E 48 b0 0b 55
        E 16 b0 0b 44
        E 128 80 3d 00
        E 32 b0 0b 6e
        E 0 90 3d 6e
        E 48 b0 0b 55
        E 16 b0 0b 44
        E 112 80 3d 00
        E 352 b0 0b 6e
        E 0 90 39 6e
        E 48 b0 0b 5d
        E 16 b0 0b 44
        E 32 80 39 00
        E 64 b0 0b 6e
        E 0 90 3c 6e
        E 48 b0 0b 5d
        E 16 b0 0b 44
        E 32 80 3c 00
        E 48 b0 0b 6e
        E 0 90 3e 6e
        E 48 b0 0b 5d
        E 16 b0 0b 44
        E 96 b0 0b 4c
        E 144 b0 0b 55
        E 144 b0 0b 5d
        E 32 80 3e 00
        E 320 b0 0b 6e
        E 0 90 41 6e
        E 48 b0 0b 5d
        E 16 b0 0b 44
        E 48 80 41 00
        E 48 b0 0b 6e
        E 0 90 40 6e
        E 48 b0 0b 5d
        E 16 b0 0b 44
        E 96 b0 0b 4c
        E 16 80 40 00
        E 64 b0 0b 6e
        E 0 90 3e 6e
        E 48 80 3e 00
        E 32 90 40 6e
        E 48 b0 0b 5d
        E 16 b0 0b 44
        E 96 b0 0b 4c
        E 144 b0 0b 55
        E 144 b0 0b 5d
        E 16 80 40 00
        E 320 b0 0b 6e
        E 0 90 43 6e
        E 48 b0 0b 5d
        E 16 b0 0b 44
        E 48 80 43 00
        E 48 b0 0b 6e
        E 0 90 41 6e
        E 48 b0 0b 5d
        E 16 b0 0b 44
        E 96 b0 0b 4c
        E 32 80 41 00
        E 48 b0 0b 6e
        E 0 90 40 6e
        E 48 80 40 00
        E 32 90 41 6e
        E 48 b0 0b 5d
        E 16 b0 0b 44
        E 96 b0 0b 4c
        E 144 b0 0b 55
        E 144 b0 0b 5d
        E 32 80 41 00
        E 320 b0 0b 6e
        E 0 90 45 6e
        E 48 b0 0b 5d
        E 16 b0 0b 44
        E 32 80 45 00
        E 48 b0 0b 6e
        E 0 90 43 6e
        E 48 b0 0b 5d
        E 16 b0 0b 44
        E 48 80 43 00
        E 48 b0 0b 6e
        E 0 90 41 6e
        E 48 b0 0b 5d
        E 16 b0 0b 44
        E 48 80 41 00
        E 48 b0 0b 6e
        E 0 90 43 6e
        E 48 b0 0b 5d
        E 16 b0 0b 44
        E 96 b0 0b 4c
        E 80 80 43 00
        E 80 b0 0b 6e
        E 0 90 3e 6e
        E 48 b0 0b 5d
        E 16 b0 0b 44
        E 48 80 3e 00
        E 48 b0 0b 6e
        E 0 90 43 6e
        E 48 b0 0b 5d
        E 16 b0 0b 44
        E 96 b0 0b 4c
        E 144 b0 0b 55
        E 96 80 43 00
        E 80 b0 0b 6e
        E 0 90 43 6e
        E 48 b0 0b 5d
        E 16 b0 0b 44
        E 32 80 43 00
        E 64 b0 0b 6e
        E 0 90 45 6e
        E 48 b0 0b 5d
        E 16 b0 0b 44
        E 32 80 45 00
        E 64 b0 0b 6e
        E 0 90 46 6e
        E 48 b0 0b 5d
        E 16 b0 0b 44
        E 96 b0 0b 4c
        E 144 b0 0b 55
        E 144 b0 0b 5d
        E 16 80 46 00
        E 320 b0 0b 6e
        E 0 90 41 6e
        E 48 b0 0b 5d
        E 16 b0 0b 44
        E 48 80 41 00
        E 48 b0 0b 6e
        E 0 90 41 6e
        E 48 b0 0b 5d
        E 16 b0 0b 44
        E 48 80 41 00
        E 48 b0 0b 6e
        E 0 90 46 6e
        E 48 b0 0b 5d
        E 16 b0 0b 44
        E 48 80 46 00
        E 48 b0 0b 6e
        E 0 90 45 6e
        E 48 b0 0b 5d
        E 16 b0 0b 44
        E 96 b0 0b 4c
        E 144 b0 0b 55
        E 144 b0 0b 5d
        E 32 80 45 00
        E 304 b0 0b 6e
        E 0 90 41 6e
        E 48 b0 0b 5d
        E 16 b0 0b 44
        E 48 80 41 00
        E 48 b0 0b 6e
        E 0 90 41 6e
        E 48 b0 0b 5d
        E 16 b0 0b 44
        E 48 80 41 00
        E 48 b0 0b 6e
        E 0 90 45 6e
        E 48 b0 0b 5d
        E 16 b0 0b 44
        E 48 80 45 00
        E 48 b0 0b 6e
        E 0 90 43 6e
        E 48 b0 0b 5d
        E 16 b0 0b 44
        E 96 b0 0b 4c
        E 144 b0 0b 55
        E 144 b0 0b 5d
        E 160 b0 0b 66
        E 144 b0 0b 6e
        E 992 80 43 00
        E 480 90 39 6e
        E 48 b0 0b 5d
        E 16 b0 0b 44
        E 32 80 39 00
        E 64 b0 0b 6e
        E 0 90 3c 6e
        E 48 b0 0b 5d
        E 16 b0 0b 44
        E 32 80 3c 00
        E 64 b0 0b 6e
        E 0 90 3e 6e
        E 48 b0 0b 5d
        E 16 b0 0b 44
        E 96 b0 0b 4c
        E 144 b0 0b 55
        E 144 b0 0b 5d
        E 16 80 3e 00
        E 320 b0 0b 6e
        E 0 90 41 6e
        E 48 b0 0b 5d
        E 16 b0 0b 44
        E 48 80 41 00
        E 48 b0 0b 6e
        E 0 90 40 6e
        E 48 b0 0b 5d
        E 16 b0 0b 44
        E 96 b0 0b 4c
        E 32 80 40 00
        E 48 b0 0b 6e
        E 0 90 3e 6e
        E 48 80 3e 00
        E 32 90 40 6e
        E 48 b0 0b 5d
        E 16 b0 0b 44
        E 96 b0 0b 4c
        E 144 b0 0b 55
        E 144 b0 0b 5d
        E 32 80 40 00
        E 320 b0 0b 6e
        E 0 90 43 6e
        E 48 b0 0b 5d
        E 16 b0 0b 44
        E 32 80 43 00
        E 48 b0 0b 6e
        E 0 90 41 6e
        E 48 b0 0b 5d
        E 16 b0 0b 44
        E 96 b0 0b 4c
        E 32 80 41 00
        E 48 b0 0b 6e
        E 0 90 40 6e
        E 48 b0 0b 5d
        E 16 80 40 00
        E 16 b0 0b 6e
        E 0 90 41 6e
        E 48 b0 0b 5d
        E 16 b0 0b 44
        E 96 b0 0b 4c
        E 144 b0 0b 55
        E 144 b0 0b 5d
        E 32 80 41 00
        E 320 b0 0b 6e
        E 0 90 45 6e
        E 48 b0 0b 5d
        E 16 b0 0b 44
        E 32 80 45 00
        E 64 b0 0b 6e
        E 0 90 43 6e
        E 48 b0 0b 5d
        E 16 b0 0b 44
        E 32 80 43 00
        E 64 b0 0b 6e
        E 0 90 41 6e
        E 48 b0 0b 5d
        E 16 b0 0b 44
        E 32 80 41 00
        E 64 b0 0b 6e
        E 0 90 43 6e
        E 48 b0 0b 5d
        E 16 b0 0b 44
        E 96 b0 0b 4c
        E 64 80 43 00
        E 80 b0 0b 6e
        E 0 90 3e 6e
        E 48 b0 0b 5d
        E 16 b0 0b 44
        E 48 80 3e 00
        E 48 b0 0b 6e
        E 0 90 43 6e
        E 48 b0 0b 5d
        E 16 b0 0b 44
        E 96 b0 0b 4c
        E 144 b0 0b 55
        E 96 80 43 00
        E 80 b0 0b 6e
        E 0 90 43 6e
        E 48 b0 0b 5d
        E 16 b0 0b 44
        E 48 80 43 00
        E 48 b0 0b 6e
        E 0 90 45 6e
        E 48 b0 0b 5d
        E 16 b0 0b 44
        E 32 80 45 00
        E 64 b0 0b 6e
        E 0 90 46 6e
        E 48 b0 0b 5d
        E 16 b0 0b 44
        E 96 b0 0b 4c
        E 144 b0 0b 55
        E 144 b0 0b 5d
        E 32 80 46 00
        E 304 b0 0b 6e
        E 0 90 41 6e
        E 48 b0 0b 5d
        E 16 b0 0b 44
        E 48 80 41 00
        E 48 b0 0b 6e
        E 0 90 41 6e
        E 48 b0 0b 5d
        E 16 b0 0b 44
        E 48 80 41 00
        E 48 b0 0b 6e
        E 0 90 46 6e
        E 48 b0 0b 5d
        E 16 b0 0b 44
        E 48 80 46 00
        E 48 b0 0b 6e
        E 0 90 45 6e
        E 48 b0 0b 5d
        E 16 b0 0b 44
        E 96 b0 0b 4c
        E 144 b0 0b 55
        E 144 b0 0b 5d
        E 32 80 45 00
        E 320 b0 0b 6e
        E 0 90 41 6e
        E 48 b0 0b 5d
        E 16 b0 0b 44
        E 32 80 41 00
        E 64 b0 0b 6e
        E 0 90 41 6e
        E 48 b0 0b 5d
        E 16 b0 0b 44
        E 32 80 41 00
        E 48 b0 0b 6e
        E 0 90 45 6e
        E 48 b0 0b 5d
        E 16 b0 0b 44
        E 48 80 45 00
        E 48 b0 0b 6e
        E 0 90 43 6e
        E 48 b0 0b 5d
        E 16 b0 0b 44
        E 96 b0 0b 4c
        E 144 b0 0b 55
        E 144 b0 0b 5d
        E 32 80 43 00
        E 320 b0 0b 6e
        E 0 90 43 6e
        E 48 b0 0b 5d
        E 16 b0 0b 44
        E 48 80 43 00
        E 48 b0 0b 6e
        E 0 90 46 6e
        E 48 b0 0b 5d
        E 16 b0 0b 44
        E 32 80 46 00
        E 64 b0 0b 6e
        E 0 90 48 6e
        E 48 b0 0b 5d
        E 16 b0 0b 44
        E 96 b0 0b 4c
        E 144 b0 0b 55
        E 144 b0 0b 5d
        E 160 b0 0b 66
        E 144 b0 0b 6e
        E 384 80 48 00
        E 288 b0 0b 5d
        E 0 90 3e 5d
        E 448 80 3e 00
        E 32 90 40 5d
        E 448 80 40 00
        E 16 90 43 5d
        E 144 80 43 00
        E 16 90 41 5d
        E 1088 80 41 00
        E 336 90 3e 5d
        E 464 80 3e 00
        E 16 90 40 5d
        E 448 80 40 00
        E 32 90 3c 5d
        E 128 80 3c 00
        E 32 90 41 5d
        E 768 80 41 00
        E 656 90 3e 5d
        E 448 80 3e 00
        E 32 90 40 5d
        E 448 80 40 00
        E 16 90 43 5d
        E 128 80 43 00
        E 0 b0 7b 00
        E 0 ff 2f 00
      >
    >
  >
  <TRACK {923B83DC-1321-4EF9-80C0-B9F4461DE6F4}
    NAME "NES - Pulse 2 [ch1]"
    PEAKCOL 10092441
    BEAT -1
    AUTOMODE 0
    PANLAWFLAGS 3
    VOLPAN 1 0 -1 -1 1
    MUTESOLO 0 0 0
    IPHASE 0
    PLAYOFFS 0 1
    ISBUS 0 0
    BUSCOMP 0 0 0 0 0
    SHOWINMIX 1 0.6667 0.5 1 0.5 0 0 0
    FIXEDLANES 9 0 0 0 0
    SEL 0
    REC 0 5088 1 0 0 0 0 0
    VU 2
    TRACKHEIGHT 0 0 0 0 0 0 0
    INQ 0 0 0 0.5 100 0 0 100
    NCHAN 2
    FX 1
    TRACKID {923B83DC-1321-4EF9-80C0-B9F4461DE6F4}
    PERF 0
    MIDIOUT -1
    MAINSEND 1 0
    <FXCHAIN
      WNDRECT 24 52 700 560
      SHOW 0
      LASTSEL 0
      DOCKED 0
      BYPASS 0 0 0
      <JS "ReapNES Studio/ReapNES_Console.jsfx" ""
        2 15 1 10 80 10 100 2 1 15 1 5 60 10 80 1 1 0 50 0 0 15 1 0 100 0 0 0.500000 0.500000 0.400000 0.300000 0.800000 1 1 0 0 0 0 - - - - - - - - - - - - - - - - - - - - - - - - - -
      >
      FLOATPOS 0 0 0 0
      FXID {1F6A79CF-2342-494A-8780-7D2C70FECB68}
      WAK 0 0
    >
    <ITEM
      POSITION 0
      LENGTH 74.55676740000001
      LOOP 0
      ALLTAKES 0
      FADEIN 0 0 0 0 0 0 0
      FADEOUT 0 0 0 0 0 0 0
      MUTE 0 0
      SEL 0
      IGUID {60931AF5-01EC-46A5-A688-CAC35E8E0588}
      <SOURCE MIDI
        HASDATA 1 480 QN
        CCINTERP 32
        E 0 c1 51
        E 0 b1 0c 60
        E 0 b1 0b 6e
        E 0 91 37 6e
        E 48 b1 0b 55
        E 16 b1 0b 44
        E 160 b1 0b 4c
        E 160 b1 0b 55
        E 64 81 37 00
        E 32 b1 0b 6e
        E 0 91 40 6e
        E 48 b1 0b 55
        E 16 b1 0b 44
        E 160 b1 0b 4c
        E 64 81 40 00
        E 32 b1 0b 6e
        E 0 91 35 6e
        E 48 b1 0b 55
        E 16 b1 0b 44
        E 64 81 35 00
        E 32 b1 0b 6e
        E 0 91 3e 6e
        E 48 b1 0b 55
        E 16 b1 0b 44
        E 160 b1 0b 4c
        E 64 81 3e 00
        E 16 b1 0b 6e
        E 0 91 3c 6e
        E 48 b1 0b 55
        E 16 b1 0b 44
        E 160 b1 0b 4c
        E 160 b1 0b 55
        E 64 81 3c 00
        E 32 b1 0b 6e
        E 0 91 43 6e
        E 48 b1 0b 55
        E 16 b1 0b 44
        E 160 b1 0b 4c
        E 64 81 43 00
        E 32 b1 0b 6e
        E 0 91 32 6e
        E 48 b1 0b 55
        E 16 b1 0b 44
        E 64 81 32 00
        E 32 b1 0b 6e
        E 0 91 3a 6e
        E 48 b1 0b 55
        E 16 b1 0b 44
        E 160 b1 0b 4c
        E 64 81 3a 00
        E 32 b1 0b 6e
        E 0 91 37 6e
        E 48 b1 0b 55
        E 16 b1 0b 44
        E 160 b1 0b 4c
        E 160 b1 0b 55
        E 64 81 37 00
        E 16 b1 0b 6e
        E 0 91 40 6e
        E 48 b1 0b 55
        E 16 b1 0b 44
        E 160 b1 0b 4c
        E 80 81 40 00
        E 16 b1 0b 6e
        E 0 91 35 6e
        E 48 b1 0b 55
        E 16 b1 0b 44
        E 64 81 35 00
        E 32 b1 0b 6e
        E 0 91 3e 6e
        E 48 b1 0b 55
        E 16 b1 0b 44
        E 160 b1 0b 4c
        E 64 81 3e 00
        E 32 b1 0b 6e
        E 0 91 3c 6e
        E 48 b1 0b 55
        E 16 b1 0b 44
        E 160 b1 0b 4c
        E 160 b1 0b 55
        E 64 81 3c 00
        E 32 b1 0b 6e
        E 0 91 43 6e
        E 48 b1 0b 55
        E 16 b1 0b 44
        E 160 b1 0b 4c
        E 64 81 43 00
        E 16 b1 0b 6e
        E 0 91 32 6e
        E 48 b1 0b 55
        E 16 b1 0b 44
        E 80 81 32 00
        E 16 b1 0b 6e
        E 0 91 3a 6e
        E 48 b1 0b 55
        E 16 b1 0b 44
        E 160 b1 0b 4c
        E 80 81 3a 00
        E 16 b1 0b 6e
        E 0 91 37 6e
        E 48 b1 0b 55
        E 16 b1 0b 44
        E 160 b1 0b 4c
        E 160 b1 0b 55
        E 64 81 37 00
        E 32 b1 0b 6e
        E 0 91 40 6e
        E 48 b1 0b 55
        E 16 b1 0b 44
        E 160 b1 0b 4c
        E 64 81 40 00
        E 32 b1 0b 6e
        E 0 91 35 6e
        E 48 b1 0b 55
        E 16 b1 0b 44
        E 64 81 35 00
        E 32 b1 0b 6e
        E 0 91 3e 6e
        E 48 b1 0b 55
        E 16 b1 0b 44
        E 160 b1 0b 4c
        E 64 81 3e 00
        E 16 b1 0b 6e
        E 0 91 3c 6e
        E 48 b1 0b 55
        E 16 b1 0b 44
        E 160 b1 0b 4c
        E 160 b1 0b 55
        E 80 81 3c 00
        E 16 b1 0b 6e
        E 0 91 43 6e
        E 48 b1 0b 55
        E 16 b1 0b 44
        E 160 b1 0b 4c
        E 64 81 43 00
        E 144 b1 0b 55
        E 0 91 32 55
        E 48 b1 0b 44
        E 16 b1 0b 33
        E 112 81 32 00
        E 32 b1 0b 55
        E 0 91 3a 55
        E 48 b1 0b 44
        E 16 b1 0b 33
        E 112 81 3a 00
        E 32 b1 0b 55
        E 0 91 3a 55
        E 48 b1 0b 44
        E 16 b1 0b 33
        E 128 81 3a 00
        E 16 b1 0b 55
        E 0 91 24 55
        E 48 b1 0b 44
        E 16 b1 0b 33
        E 128 81 24 00
        E 16 b1 0b 55
        E 0 91 35 55
        E 48 b1 0b 44
        E 16 b1 0b 33
        E 128 81 35 00
        E 32 b1 0b 55
        E 0 91 31 55
        E 48 b1 0b 44
        E 16 b1 0b 33
        E 112 81 31 00
        E 32 b1 0b 55
        E 0 91 39 55
        E 48 b1 0b 44
        E 16 b1 0b 33
        E 112 81 39 00
        E 32 b1 0b 55
        E 0 91 40 55
        E 48 b1 0b 44
        E 16 b1 0b 33
        E 128 81 40 00
        E 16 b1 0b 55
        E 0 91 39 55
        E 48 b1 0b 44
        E 16 b1 0b 33
        E 16 81 39 00
        E 352 b1 0b 7f
        E 0 91 41 7f
        E 16 b1 0b 77
        E 16 b1 0b 66
        E 16 81 41 00
        E 32 b1 0b 7f
        E 0 91 41 7f
        E 16 b1 0b 77
        E 16 b1 0b 66
        E 16 81 41 00
        E 32 b1 0b 7f
        E 0 91 37 7f
        E 16 b1 0b 77
        E 16 b1 0b 66
        E 16 b1 0b 5d
        E 16 b1 0b 4c
        E 16 b1 0b 3b
        E 48 81 37 00
        E 176 91 3e 3b
        E 48 b1 0b 33
        E 16 b1 0b 22
        E 112 b1 0b 2a
        E 272 b1 0b 33
        E 160 81 3e 00
        E 192 b1 0b 3b
        E 0 91 41 3b
        E 48 b1 0b 33
        E 16 b1 0b 22
        E 64 81 41 00
        E 32 b1 0b 3b
        E 0 91 40 3b
        E 48 b1 0b 33
        E 16 b1 0b 22
        E 112 b1 0b 2a
        E 32 81 40 00
        E 32 b1 0b 3b
        E 0 91 3e 3b
        E 48 81 3e 00
        E 32 91 40 3b
        E 48 b1 0b 33
        E 16 b1 0b 22
        E 112 b1 0b 2a
        E 272 b1 0b 33
        E 160 81 40 00
        E 176 b1 0b 3b
        E 0 91 43 3b
        E 48 b1 0b 33
        E 16 b1 0b 22
        E 80 81 43 00
        E 16 b1 0b 3b
        E 0 91 41 3b
        E 48 b1 0b 33
        E 16 b1 0b 22
        E 112 b1 0b 2a
        E 32 81 41 00
        E 32 b1 0b 3b
        E 0 91 40 3b
        E 48 81 40 00
        E 32 91 41 3b
        E 48 b1 0b 33
        E 16 b1 0b 22
        E 112 b1 0b 2a
        E 272 b1 0b 33
        E 160 81 41 00
        E 192 b1 0b 3b
        E 0 91 45 3b
        E 48 b1 0b 33
        E 16 b1 0b 22
        E 64 81 45 00
        E 32 b1 0b 3b
        E 0 91 43 3b
        E 48 b1 0b 33
        E 16 b1 0b 22
        E 64 81 43 00
        E 16 b1 0b 3b
        E 0 91 41 3b
        E 48 b1 0b 33
        E 16 b1 0b 22
        E 80 81 41 00
        E 16 b1 0b 3b
        E 0 91 43 3b
        E 48 b1 0b 33
        E 16 b1 0b 22
        E 112 b1 0b 2a
        E 112 81 43 00
        E 32 b1 0b 3b
        E 0 91 3e 3b
        E 48 b1 0b 33
        E 16 b1 0b 22
        E 64 81 3e 00
        E 32 b1 0b 3b
        E 0 91 43 3b
        E 48 b1 0b 33
        E 16 b1 0b 22
        E 112 b1 0b 2a
        E 272 81 43 00
        E 32 b1 0b 3b
        E 0 91 43 3b
        E 48 b1 0b 33
        E 16 b1 0b 22
        E 64 81 43 00
        E 32 b1 0b 3b
        E 0 91 45 3b
        E 48 b1 0b 33
        E 16 b1 0b 22
        E 64 81 45 00
        E 32 b1 0b 3b
        E 0 91 46 3b
        E 48 b1 0b 33
        E 16 b1 0b 22
        E 112 b1 0b 2a
        E 272 b1 0b 33
        E 160 81 46 00
        E 176 b1 0b 3b
        E 0 91 41 3b
        E 48 b1 0b 33
        E 16 b1 0b 22
        E 64 81 41 00
        E 32 b1 0b 3b
        E 0 91 41 3b
        E 48 b1 0b 33
        E 16 b1 0b 22
        E 64 81 41 00
        E 32 b1 0b 3b
        E 0 91 46 3b
        E 48 b1 0b 33
        E 16 b1 0b 22
        E 64 81 46 00
        E 32 b1 0b 3b
        E 0 91 45 3b
        E 48 b1 0b 33
        E 16 b1 0b 22
        E 112 b1 0b 2a
        E 272 b1 0b 33
        E 160 81 45 00
        E 176 b1 0b 3b
        E 0 91 41 3b
        E 48 b1 0b 33
        E 16 b1 0b 22
        E 80 81 41 00
        E 16 b1 0b 3b
        E 0 91 41 3b
        E 48 b1 0b 33
        E 16 b1 0b 22
        E 80 81 41 00
        E 16 b1 0b 66
        E 0 91 35 66
        E 48 b1 0b 55
        E 16 81 35 00
        E 16 b1 0b 66
        E 0 91 37 66
        E 48 b1 0b 55
        E 16 81 37 00
        E 16 b1 0b 66
        E 0 91 39 66
        E 48 81 39 00
        E 32 91 3a 66
        E 48 81 3a 00
        E 32 91 37 66
        E 48 81 37 00
        E 32 91 39 66
        E 48 81 39 00
        E 32 91 3a 66
        E 48 81 3a 00
        E 32 91 3c 66
        E 48 81 3c 00
        E 32 91 39 66
        E 48 81 39 00
        E 32 91 3a 66
        E 48 81 3a 00
        E 32 91 3c 66
        E 48 81 3c 00
        E 32 91 3e 66
        E 48 81 3e 00
        E 32 91 3a 66
        E 48 81 3a 00
        E 32 91 3c 66
        E 48 81 3c 00
        E 32 91 3e 66
        E 48 81 3e 00
        E 32 91 40 66
        E 48 81 40 00
        E 32 91 2b 66
        E 48 81 2b 00
        E 16 91 29 66
        E 48 b1 0b 55
        E 16 81 29 00
        E 16 b1 0b 66
        E 0 91 2b 66
        E 48 b1 0b 55
        E 16 b1 0b 3b
        E 64 b1 0b 44
        E 16 81 2b 00
        E 16 b1 0b 66
        E 0 91 2e 66
        E 48 b1 0b 55
        E 16 b1 0b 3b
        E 64 b1 0b 44
        E 16 81 2e 00
        E 16 b1 0b 66
        E 0 91 2b 66
        E 48 b1 0b 55
        E 16 b1 0b 3b
        E 64 b1 0b 44
        E 16 81 2b 00
        E 336 b1 0b 7f
        E 0 91 41 7f
        E 16 b1 0b 77
        E 16 b1 0b 66
        E 16 81 41 00
        E 32 b1 0b 7f
        E 0 91 41 7f
        E 16 b1 0b 77
        E 16 b1 0b 66
        E 16 81 41 00
        E 32 b1 0b 7f
        E 0 91 37 7f
        E 16 b1 0b 77
        E 16 b1 0b 66
        E 16 b1 0b 5d
        E 16 b1 0b 4c
        E 16 b1 0b 3b
        E 48 81 37 00
        E 192 91 3e 3b
        E 48 b1 0b 33
        E 16 b1 0b 22
        E 112 b1 0b 2a
        E 272 b1 0b 33
        E 160 81 3e 00
        E 176 b1 0b 3b
        E 0 91 41 3b
        E 48 b1 0b 33
        E 16 b1 0b 22
        E 80 81 41 00
        E 16 b1 0b 3b
        E 0 91 40 3b
        E 48 b1 0b 33
        E 16 b1 0b 22
        E 112 b1 0b 2a
        E 32 81 40 00
        E 32 b1 0b 3b
        E 0 91 3e 3b
        E 48 81 3e 00
        E 32 91 40 3b
        E 48 b1 0b 33
        E 16 b1 0b 22
        E 112 b1 0b 2a
        E 272 b1 0b 33
        E 160 81 40 00
        E 192 b1 0b 3b
        E 0 91 43 3b
        E 48 b1 0b 33
        E 16 b1 0b 22
        E 64 81 43 00
        E 16 b1 0b 3b
        E 0 91 41 3b
        E 48 b1 0b 33
        E 16 b1 0b 22
        E 112 b1 0b 2a
        E 48 81 41 00
        E 16 b1 0b 3b
        E 0 91 40 3b
        E 48 b1 0b 33
        E 16 81 40 00
        E 16 b1 0b 3b
        E 0 91 41 3b
        E 48 b1 0b 33
        E 16 b1 0b 22
        E 112 b1 0b 2a
        E 272 b1 0b 33
        E 160 81 41 00
        E 192 b1 0b 3b
        E 0 91 45 3b
        E 48 b1 0b 33
        E 16 b1 0b 22
        E 64 81 45 00
        E 32 b1 0b 3b
        E 0 91 43 3b
        E 48 b1 0b 33
        E 16 b1 0b 22
        E 64 81 43 00
        E 32 b1 0b 3b
        E 0 91 41 3b
        E 48 b1 0b 33
        E 16 b1 0b 22
        E 64 81 41 00
        E 32 b1 0b 3b
        E 0 91 43 3b
        E 48 b1 0b 33
        E 16 b1 0b 22
        E 112 b1 0b 2a
        E 112 81 43 00
        E 16 b1 0b 3b
        E 0 91 3e 3b
        E 48 b1 0b 33
        E 16 b1 0b 22
        E 80 81 3e 00
        E 16 b1 0b 3b
        E 0 91 43 3b
        E 48 b1 0b 33
        E 16 b1 0b 22
        E 112 b1 0b 2a
        E 272 81 43 00
        E 32 b1 0b 3b
        E 0 91 43 3b
        E 48 b1 0b 33
        E 16 b1 0b 22
        E 64 81 43 00
        E 32 b1 0b 3b
        E 0 91 45 3b
        E 48 b1 0b 33
        E 16 b1 0b 22
        E 64 81 45 00
        E 32 b1 0b 3b
        E 0 91 46 3b
        E 48 b1 0b 33
        E 16 b1 0b 22
        E 112 b1 0b 2a
        E 272 b1 0b 33
        E 160 81 46 00
        E 176 b1 0b 3b
        E 0 91 41 3b
        E 48 b1 0b 33
        E 16 b1 0b 22
        E 80 81 41 00
        E 16 b1 0b 3b
        E 0 91 41 3b
        E 48 b1 0b 33
        E 16 b1 0b 22
        E 80 81 41 00
        E 16 b1 0b 3b
        E 0 91 46 3b
        E 48 b1 0b 33
        E 16 b1 0b 22
        E 64 81 46 00
        E 32 b1 0b 3b
        E 0 91 45 3b
        E 48 b1 0b 33
        E 16 b1 0b 22
        E 112 b1 0b 2a
        E 272 b1 0b 33
        E 160 81 45 00
        E 192 b1 0b 3b
        E 0 91 41 3b
        E 48 b1 0b 33
        E 16 b1 0b 22
        E 64 81 41 00
        E 32 b1 0b 3b
        E 0 91 41 3b
        E 48 b1 0b 33
        E 16 b1 0b 22
        E 64 81 41 00
        E 16 b1 0b 66
        E 0 91 32 66
        E 48 b1 0b 55
        E 16 81 32 00
        E 16 b1 0b 66
        E 0 91 33 66
        E 48 b1 0b 55
        E 16 81 33 00
        E 16 b1 0b 66
        E 0 91 37 66
        E 48 b1 0b 55
        E 16 81 37 00
        E 16 b1 0b 66
        E 0 91 3a 66
        E 48 b1 0b 55
        E 16 81 3a 00
        E 16 b1 0b 66
        E 0 91 33 66
        E 48 b1 0b 55
        E 16 81 33 00
        E 16 b1 0b 66
        E 0 91 37 66
        E 48 b1 0b 55
        E 16 81 37 00
        E 16 b1 0b 66
        E 0 91 3a 66
        E 48 b1 0b 55
        E 16 81 3a 00
        E 16 b1 0b 66
        E 0 91 3e 66
        E 48 81 3e 00
        E 32 91 37 66
        E 48 81 37 00
        E 32 91 3a 66
        E 48 81 3a 00
        E 32 91 3e 66
        E 48 b1 0b 55
        E 16 b1 0b 3b
        E 64 81 3e 00
        E 32 b1 0b 66
        E 0 91 3e 66
        E 48 b1 0b 55
        E 16 b1 0b 3b
        E 64 81 3e 00
        E 32 b1 0b 66
        E 0 91 41 66
        E 48 b1 0b 55
        E 16 b1 0b 3b
        E 64 b1 0b 44
        E 160 b1 0b 4c
        E 160 b1 0b 55
        E 176 b1 0b 5d
        E 144 81 41 00
        E 16 b1 0b 7f
        E 0 91 2f 7f
        E 16 b1 0b 77
        E 16 b1 0b 66
        E 16 b1 0b 5d
        E 16 b1 0b 4c
        E 16 b1 0b 3b
        E 112 b1 0b 33
        E 112 81 2f 00
        E 16 b1 0b 7f
        E 0 91 40 7f
        E 16 b1 0b 77
        E 16 b1 0b 66
        E 16 b1 0b 5d
        E 16 81 40 00
        E 16 b1 0b 7f
        E 0 91 39 7f
        E 16 b1 0b 77
        E 16 b1 0b 66
        E 16 81 39 00
        E 32 b1 0b 7f
        E 0 91 32 7f
        E 16 b1 0b 77
        E 16 b1 0b 66
        E 16 b1 0b 5d
        E 16 b1 0b 4c
        E 16 b1 0b 3b
        E 48 81 32 00
        E 32 b1 0c 40
        E 0 b1 0b 55
        E 0 91 37 55
        E 128 81 37 00
        E 32 91 3a 55
        E 128 81 3a 00
        E 32 91 3e 55
        E 128 81 3e 00
        E 32 91 39 55
        E 128 81 39 00
        E 32 91 3c 55
        E 128 81 3c 00
        E 32 91 40 55
        E 128 81 40 00
        E 16 91 3c 55
        E 144 81 3c 00
        E 16 91 3a 55
        E 304 81 3a 00
        E 16 91 3e 55
        E 128 81 3e 00
        E 32 91 39 55
        E 128 81 39 00
        E 32 91 3c 55
        E 128 81 3c 00
        E 32 91 37 55
        E 128 81 37 00
        E 32 91 3a 55
        E 128 81 3a 00
        E 32 91 35 55
        E 128 81 35 00
        E 32 91 37 55
        E 128 81 37 00
        E 32 91 37 55
        E 128 81 37 00
        E 16 91 3a 55
        E 144 81 3a 00
        E 16 91 3e 55
        E 144 81 3e 00
        E 16 91 39 55
        E 144 81 39 00
        E 16 91 3c 55
        E 128 81 3c 00
        E 32 91 40 55
        E 128 81 40 00
        E 32 91 3c 55
        E 128 81 3c 00
        E 32 91 3e 55
        E 288 81 3e 00
        E 32 91 45 55
        E 128 81 45 00
        E 32 91 41 55
        E 128 81 41 00
        E 32 91 43 55
        E 128 81 43 00
        E 16 91 40 55
        E 144 81 40 00
        E 16 91 41 55
        E 144 81 41 00
        E 16 91 40 55
        E 144 81 40 00
        E 16 91 3c 55
        E 128 81 3c 00
        E 32 91 37 55
        E 128 81 37 00
        E 32 91 3a 55
        E 128 81 3a 00
        E 32 91 3e 55
        E 128 81 3e 00
        E 32 91 39 55
        E 128 81 39 00
        E 32 91 3c 55
        E 128 81 3c 00
        E 32 91 40 55
        E 128 81 40 00
        E 32 91 3c 55
        E 128 81 3c 00
        E 32 91 3e 55
        E 288 81 3e 00
        E 16 91 3a 55
        E 144 81 3a 00
        E 16 91 3c 55
        E 128 81 3c 00
        E 32 91 39 55
        E 128 81 39 00
        E 32 91 3a 55
        E 128 81 3a 00
        E 32 91 3a 55
        E 128 81 3a 00
        E 32 91 3e 55
        E 128 81 3e 00
        E 32 91 40 55
        E 288 81 40 00
        E 32 91 43 55
        E 48 81 43 00
        E 32 91 3e 55
        E 48 81 3e 00
        E 32 91 40 55
        E 48 81 40 00
        E 16 91 43 55
        E 64 81 43 00
        E 16 91 41 55
        E 64 81 41 00
        E 16 91 3c 55
        E 64 81 3c 00
        E 16 91 3e 55
        E 64 81 3e 00
        E 16 91 41 55
        E 64 81 41 00
        E 16 91 40 55
        E 64 81 40 00
        E 16 91 3a 55
        E 48 81 3a 00
        E 32 91 3c 55
        E 48 81 3c 00
        E 32 91 40 55
        E 48 81 40 00
        E 32 91 3e 55
        E 48 81 3e 00
        E 32 91 37 55
        E 128 81 37 00
        E 32 91 39 55
        E 48 81 39 00
        E 32 91 3a 55
        E 48 81 3a 00
        E 32 91 39 55
        E 48 81 39 00
        E 32 91 3a 55
        E 48 81 3a 00
        E 32 91 3c 55
        E 48 81 3c 00
        E 32 91 3a 55
        E 48 81 3a 00
        E 32 91 3c 55
        E 48 81 3c 00
        E 32 91 3e 55
        E 48 81 3e 00
        E 32 91 3c 55
        E 48 81 3c 00
        E 32 91 3e 55
        E 48 81 3e 00
        E 16 91 40 55
        E 64 81 40 00
        E 16 91 3e 55
        E 64 81 3e 00
        E 16 91 40 55
        E 64 81 40 00
        E 16 91 41 55
        E 64 81 41 00
        E 16 91 43 55
        E 64 81 43 00
        E 16 b1 0c 60
        E 0 b1 0b 6e
        E 0 91 32 6e
        E 48 b1 0b 55
        E 16 b1 0b 44
        E 80 81 32 00
        E 16 b1 0b 6e
        E 0 91 3a 6e
        E 48 b1 0b 55
        E 16 b1 0b 44
        E 160 b1 0b 4c
        E 64 81 3a 00
        E 32 b1 0b 6e
        E 0 91 37 6e
        E 48 b1 0b 55
        E 16 b1 0b 44
        E 160 b1 0b 4c
        E 160 b1 0b 55
        E 64 81 37 00
        E 32 b1 0b 6e
        E 0 91 40 6e
        E 48 b1 0b 55
        E 16 b1 0b 44
        E 160 b1 0b 4c
        E 64 81 40 00
        E 32 b1 0b 6e
        E 0 91 35 6e
        E 48 b1 0b 55
        E 16 b1 0b 44
        E 64 81 35 00
        E 16 b1 0b 6e
        E 0 91 3e 6e
        E 48 b1 0b 55
        E 16 b1 0b 44
        E 160 b1 0b 4c
        E 80 81 3e 00
        E 16 b1 0b 6e
        E 0 91 3c 6e
        E 48 b1 0b 55
        E 16 b1 0b 44
        E 160 b1 0b 4c
        E 160 b1 0b 55
        E 64 81 3c 00
        E 32 b1 0b 6e
        E 0 91 43 6e
        E 48 b1 0b 55
        E 16 b1 0b 44
        E 160 b1 0b 4c
        E 64 81 43 00
        E 32 b1 0b 6e
        E 0 91 32 6e
        E 48 b1 0b 55
        E 16 b1 0b 44
        E 64 81 32 00
        E 32 b1 0b 6e
        E 0 91 3a 6e
        E 48 b1 0b 55
        E 16 b1 0b 44
        E 160 b1 0b 4c
        E 64 81 3a 00
        E 32 b1 0b 6e
        E 0 91 37 6e
        E 48 b1 0b 55
        E 16 b1 0b 44
        E 160 b1 0b 4c
        E 160 b1 0b 55
        E 64 81 37 00
        E 16 b1 0b 6e
        E 0 91 40 6e
        E 48 b1 0b 55
        E 16 b1 0b 44
        E 160 b1 0b 4c
        E 64 81 40 00
        E 32 b1 0b 6e
        E 0 91 35 6e
        E 48 b1 0b 55
        E 16 b1 0b 44
        E 64 81 35 00
        E 32 b1 0b 6e
        E 0 91 3e 6e
        E 48 b1 0b 55
        E 16 b1 0b 44
        E 160 b1 0b 4c
        E 64 81 3e 00
        E 32 b1 0b 6e
        E 0 91 3c 6e
        E 48 b1 0b 55
        E 16 b1 0b 44
        E 160 b1 0b 4c
        E 160 b1 0b 55
        E 64 81 3c 00
        E 32 b1 0b 6e
        E 0 91 43 6e
        E 48 b1 0b 55
        E 16 b1 0b 44
        E 160 b1 0b 4c
        E 64 81 43 00
        E 16 b1 0b 6e
        E 0 91 32 6e
        E 48 b1 0b 55
        E 16 b1 0b 44
        E 80 81 32 00
        E 16 b1 0b 6e
        E 0 91 3a 6e
        E 48 b1 0b 55
        E 16 b1 0b 44
        E 160 b1 0b 4c
        E 64 81 3a 00
        E 32 b1 0b 6e
        E 0 91 37 6e
        E 48 b1 0b 55
        E 16 b1 0b 44
        E 160 b1 0b 4c
        E 160 b1 0b 55
        E 64 81 37 00
        E 32 b1 0b 6e
        E 0 91 40 6e
        E 48 b1 0b 55
        E 16 b1 0b 44
        E 160 b1 0b 4c
        E 64 81 40 00
        E 32 b1 0b 6e
        E 0 91 35 6e
        E 48 b1 0b 55
        E 16 b1 0b 44
        E 64 81 35 00
        E 32 b1 0b 6e
        E 0 91 3e 6e
        E 48 b1 0b 55
        E 16 b1 0b 44
        E 160 b1 0b 4c
        E 64 81 3e 00
        E 16 b1 0b 6e
        E 0 91 3c 6e
        E 48 b1 0b 55
        E 16 b1 0b 44
        E 160 b1 0b 4c
        E 160 b1 0b 55
        E 64 81 3c 00
        E 32 b1 0b 6e
        E 0 91 43 6e
        E 48 b1 0b 55
        E 16 b1 0b 44
        E 160 b1 0b 4c
        E 64 81 43 00
        E 144 b1 0b 55
        E 0 91 32 55
        E 48 b1 0b 44
        E 16 b1 0b 33
        E 112 81 32 00
        E 32 b1 0b 55
        E 0 91 3a 55
        E 48 b1 0b 44
        E 16 b1 0b 33
        E 112 81 3a 00
        E 32 b1 0b 55
        E 0 91 3a 55
        E 48 b1 0b 44
        E 16 b1 0b 33
        E 128 81 3a 00
        E 16 b1 0b 55
        E 0 91 24 55
        E 48 b1 0b 44
        E 16 b1 0b 33
        E 128 81 24 00
        E 16 b1 0b 55
        E 0 91 35 55
        E 48 b1 0b 44
        E 16 b1 0b 33
        E 128 81 35 00
        E 32 b1 0b 55
        E 0 91 31 55
        E 48 b1 0b 44
        E 16 b1 0b 33
        E 112 81 31 00
        E 32 b1 0b 55
        E 0 91 39 55
        E 48 b1 0b 44
        E 16 b1 0b 33
        E 112 81 39 00
        E 32 b1 0b 55
        E 0 91 40 55
        E 48 b1 0b 44
        E 16 b1 0b 33
        E 128 81 40 00
        E 16 b1 0b 55
        E 0 91 39 55
        E 48 b1 0b 44
        E 16 b1 0b 33
        E 16 81 39 00
        E 352 b1 0b 7f
        E 0 91 41 7f
        E 16 b1 0b 77
        E 16 b1 0b 66
        E 16 81 41 00
        E 32 b1 0b 7f
        E 0 91 41 7f
        E 16 b1 0b 77
        E 16 b1 0b 66
        E 16 81 41 00
        E 32 b1 0b 7f
        E 0 91 37 7f
        E 16 b1 0b 77
        E 16 b1 0b 66
        E 16 b1 0b 5d
        E 16 b1 0b 4c
        E 16 b1 0b 3b
        E 48 81 37 00
        E 176 91 3e 3b
        E 48 b1 0b 33
        E 16 b1 0b 22
        E 112 b1 0b 2a
        E 272 b1 0b 33
        E 160 81 3e 00
        E 192 b1 0b 3b
        E 0 91 41 3b
        E 48 b1 0b 33
        E 16 b1 0b 22
        E 64 81 41 00
        E 32 b1 0b 3b
        E 0 91 40 3b
        E 48 b1 0b 33
        E 16 b1 0b 22
        E 112 b1 0b 2a
        E 32 81 40 00
        E 32 b1 0b 3b
        E 0 91 3e 3b
        E 48 81 3e 00
        E 32 91 40 3b
        E 48 b1 0b 33
        E 16 b1 0b 22
        E 112 b1 0b 2a
        E 272 b1 0b 33
        E 160 81 40 00
        E 176 b1 0b 3b
        E 0 91 43 3b
        E 48 b1 0b 33
        E 16 b1 0b 22
        E 64 81 43 00
        E 32 b1 0b 3b
        E 0 91 41 3b
        E 48 b1 0b 33
        E 16 b1 0b 22
        E 112 b1 0b 2a
        E 32 81 41 00
        E 32 b1 0b 3b
        E 0 91 40 3b
        E 48 81 40 00
        E 32 91 41 3b
        E 48 b1 0b 33
        E 16 b1 0b 22
        E 112 b1 0b 2a
        E 272 b1 0b 33
        E 160 81 41 00
        E 176 b1 0b 3b
        E 0 91 45 3b
        E 48 b1 0b 33
        E 16 b1 0b 22
        E 80 81 45 00
        E 16 b1 0b 3b
        E 0 91 43 3b
        E 48 b1 0b 33
        E 16 b1 0b 22
        E 80 81 43 00
        E 16 b1 0b 3b
        E 0 91 41 3b
        E 48 b1 0b 33
        E 16 b1 0b 22
        E 80 81 41 00
        E 16 b1 0b 3b
        E 0 91 43 3b
        E 48 b1 0b 33
        E 16 b1 0b 22
        E 112 b1 0b 2a
        E 112 81 43 00
        E 32 b1 0b 3b
        E 0 91 3e 3b
        E 48 b1 0b 33
        E 16 b1 0b 22
        E 64 81 3e 00
        E 32 b1 0b 3b
        E 0 91 43 3b
        E 48 b1 0b 33
        E 16 b1 0b 22
        E 112 b1 0b 2a
        E 272 81 43 00
        E 32 b1 0b 3b
        E 0 91 43 3b
        E 48 b1 0b 33
        E 16 b1 0b 22
        E 64 81 43 00
        E 32 b1 0b 3b
        E 0 91 45 3b
        E 48 b1 0b 33
        E 16 b1 0b 22
        E 64 81 45 00
        E 16 b1 0b 3b
        E 0 91 46 3b
        E 48 b1 0b 33
        E 16 b1 0b 22
        E 112 b1 0b 2a
        E 272 b1 0b 33
        E 160 81 46 00
        E 192 b1 0b 3b
        E 0 91 41 3b
        E 48 b1 0b 33
        E 16 b1 0b 22
        E 64 81 41 00
        E 32 b1 0b 3b
        E 0 91 41 3b
        E 48 b1 0b 33
        E 16 b1 0b 22
        E 64 81 41 00
        E 32 b1 0b 3b
        E 0 91 46 3b
        E 48 b1 0b 33
        E 16 b1 0b 22
        E 64 81 46 00
        E 32 b1 0b 3b
        E 0 91 45 3b
        E 48 b1 0b 33
        E 16 b1 0b 22
        E 112 b1 0b 2a
        E 272 b1 0b 33
        E 160 81 45 00
        E 176 b1 0b 3b
        E 0 91 41 3b
        E 48 b1 0b 33
        E 16 b1 0b 22
        E 80 81 41 00
        E 16 b1 0b 3b
        E 0 91 41 3b
        E 48 b1 0b 33
        E 16 b1 0b 22
        E 64 81 41 00
        E 32 b1 0b 66
        E 0 91 35 66
        E 48 81 35 00
        E 32 91 37 66
        E 48 81 37 00
        E 32 91 39 66
        E 48 81 39 00
        E 32 91 3a 66
        E 48 81 3a 00
        E 32 91 37 66
        E 48 81 37 00
        E 32 91 39 66
        E 48 81 39 00
        E 32 91 3a 66
        E 48 81 3a 00
        E 32 91 3c 66
        E 48 81 3c 00
        E 32 91 39 66
        E 48 81 39 00
        E 32 91 3a 66
        E 48 81 3a 00
        E 32 91 3c 66
        E 48 81 3c 00
        E 32 91 3e 66
        E 48 81 3e 00
        E 32 91 3a 66
        E 48 81 3a 00
        E 32 91 3c 66
        E 48 81 3c 00
        E 16 91 3e 66
        E 48 b1 0b 55
        E 16 81 3e 00
        E 16 b1 0b 66
        E 0 91 40 66
        E 48 b1 0b 55
        E 16 81 40 00
        E 16 b1 0b 66
        E 0 91 2b 66
        E 48 b1 0b 55
        E 16 81 2b 00
        E 16 b1 0b 66
        E 0 91 29 66
        E 48 b1 0b 55
        E 16 81 29 00
        E 16 b1 0b 66
        E 0 91 2b 66
        E 48 b1 0b 55
        E 16 b1 0b 3b
        E 64 b1 0b 44
        E 16 81 2b 00
        E 16 b1 0b 66
        E 0 91 2e 66
        E 48 b1 0b 55
        E 16 b1 0b 3b
        E 64 81 2e 00
        E 32 b1 0b 66
        E 0 91 2b 66
        E 48 b1 0b 55
        E 16 b1 0b 3b
        E 64 81 2b 00
        E 352 b1 0b 7f
        E 0 91 41 7f
        E 16 b1 0b 77
        E 16 b1 0b 66
        E 16 81 41 00
        E 32 b1 0b 7f
        E 0 91 41 7f
        E 16 b1 0b 77
        E 16 b1 0b 66
        E 16 81 41 00
        E 32 b1 0b 7f
        E 0 91 37 7f
        E 16 b1 0b 77
        E 16 b1 0b 66
        E 16 b1 0b 5d
        E 16 b1 0b 4c
        E 16 b1 0b 3b
        E 48 81 37 00
        E 192 91 3e 3b
        E 48 b1 0b 33
        E 16 b1 0b 22
        E 112 b1 0b 2a
        E 272 b1 0b 33
        E 160 81 3e 00
        E 176 b1 0b 3b
        E 0 91 41 3b
        E 48 b1 0b 33
        E 16 b1 0b 22
        E 64 81 41 00
        E 32 b1 0b 3b
        E 0 91 40 3b
        E 48 b1 0b 33
        E 16 b1 0b 22
        E 112 b1 0b 2a
        E 32 81 40 00
        E 32 b1 0b 3b
        E 0 91 3e 3b
        E 48 81 3e 00
        E 32 91 40 3b
        E 48 b1 0b 33
        E 16 b1 0b 22
        E 112 b1 0b 2a
        E 272 b1 0b 33
        E 160 81 40 00
        E 176 b1 0b 3b
        E 0 91 43 3b
        E 48 b1 0b 33
        E 16 b1 0b 22
        E 80 81 43 00
        E 16 b1 0b 3b
        E 0 91 41 3b
        E 48 b1 0b 33
        E 16 b1 0b 22
        E 112 b1 0b 2a
        E 48 81 41 00
        E 16 b1 0b 3b
        E 0 91 40 3b
        E 48 81 40 00
        E 32 91 41 3b
        E 48 b1 0b 33
        E 16 b1 0b 22
        E 112 b1 0b 2a
        E 272 b1 0b 33
        E 160 81 41 00
        E 192 b1 0b 3b
        E 0 91 45 3b
        E 48 b1 0b 33
        E 16 b1 0b 22
        E 64 81 45 00
        E 32 b1 0b 3b
        E 0 91 43 3b
        E 48 b1 0b 33
        E 16 b1 0b 22
        E 64 81 43 00
        E 32 b1 0b 3b
        E 0 91 41 3b
        E 48 b1 0b 33
        E 16 b1 0b 22
        E 64 81 41 00
        E 16 b1 0b 3b
        E 0 91 43 3b
        E 48 b1 0b 33
        E 16 b1 0b 22
        E 112 b1 0b 2a
        E 128 81 43 00
        E 16 b1 0b 3b
        E 0 91 3e 3b
        E 48 b1 0b 33
        E 16 b1 0b 22
        E 80 81 3e 00
        E 16 b1 0b 3b
        E 0 91 43 3b
        E 48 b1 0b 33
        E 16 b1 0b 22
        E 112 b1 0b 2a
        E 272 81 43 00
        E 32 b1 0b 3b
        E 0 91 43 3b
        E 48 b1 0b 33
        E 16 b1 0b 22
        E 64 81 43 00
        E 32 b1 0b 3b
        E 0 91 45 3b
        E 48 b1 0b 33
        E 16 b1 0b 22
        E 64 81 45 00
        E 32 b1 0b 3b
        E 0 91 46 3b
        E 48 b1 0b 33
        E 16 b1 0b 22
        E 112 b1 0b 2a
        E 272 b1 0b 33
        E 160 81 46 00
        E 176 b1 0b 3b
        E 0 91 41 3b
        E 48 b1 0b 33
        E 16 b1 0b 22
        E 80 81 41 00
        E 16 b1 0b 3b
        E 0 91 41 3b
        E 48 b1 0b 33
        E 16 b1 0b 22
        E 64 81 41 00
        E 32 b1 0b 3b
        E 0 91 46 3b
        E 48 b1 0b 33
        E 16 b1 0b 22
        E 64 81 46 00
        E 32 b1 0b 3b
        E 0 91 45 3b
        E 48 b1 0b 33
        E 16 b1 0b 22
        E 112 b1 0b 2a
        E 272 b1 0b 33
        E 160 81 45 00
        E 192 b1 0b 3b
        E 0 91 41 3b
        E 48 b1 0b 33
        E 16 b1 0b 22
        E 64 81 41 00
        E 16 b1 0b 3b
        E 0 91 41 3b
        E 48 b1 0b 33
        E 16 b1 0b 22
        E 80 81 41 00
        E 16 b1 0b 66
        E 0 91 32 66
        E 48 b1 0b 55
        E 16 81 32 00
        E 16 b1 0b 66
        E 0 91 33 66
        E 48 b1 0b 55
        E 16 81 33 00
        E 16 b1 0b 66
        E 0 91 37 66
        E 48 b1 0b 55
        E 16 81 37 00
        E 16 b1 0b 66
        E 0 91 3a 66
        E 48 b1 0b 55
        E 16 81 3a 00
        E 16 b1 0b 66
        E 0 91 33 66
        E 48 81 33 00
        E 32 91 37 66
        E 48 81 37 00
        E 32 91 3a 66
        E 48 81 3a 00
        E 32 91 3e 66
        E 48 81 3e 00
        E 32 91 37 66
        E 48 81 37 00
        E 32 91 3a 66
        E 48 81 3a 00
        E 32 91 3e 66
        E 48 b1 0b 55
        E 16 b1 0b 3b
        E 64 81 3e 00
        E 32 b1 0b 66
        E 0 91 3e 66
        E 48 b1 0b 55
        E 16 b1 0b 3b
        E 64 81 3e 00
        E 32 b1 0b 66
        E 0 91 41 66
        E 48 b1 0b 55
        E 16 b1 0b 3b
        E 64 b1 0b 44
        E 160 b1 0b 4c
        E 160 b1 0b 55
        E 176 b1 0b 5d
        E 144 81 41 00
        E 16 b1 0b 7f
        E 0 91 2f 7f
        E 16 b1 0b 77
        E 16 b1 0b 66
        E 16 b1 0b 5d
        E 16 b1 0b 4c
        E 16 b1 0b 3b
        E 112 b1 0b 33
        E 96 81 2f 00
        E 32 b1 0b 7f
        E 0 91 40 7f
        E 16 b1 0b 77
        E 16 b1 0b 66
        E 16 81 40 00
        E 32 b1 0b 7f
        E 0 91 39 7f
        E 16 b1 0b 77
        E 16 b1 0b 66
        E 16 81 39 00
        E 32 b1 0b 7f
        E 0 91 32 7f
        E 16 b1 0b 77
        E 16 b1 0b 66
        E 16 b1 0b 5d
        E 16 b1 0b 4c
        E 16 b1 0b 3b
        E 48 81 32 00
        E 32 b1 0c 40
        E 0 b1 0b 55
        E 0 91 37 55
        E 128 81 37 00
        E 32 91 3a 55
        E 128 81 3a 00
        E 32 91 3e 55
        E 128 81 3e 00
        E 32 91 39 55
        E 128 81 39 00
        E 32 91 3c 55
        E 128 81 3c 00
        E 16 91 40 55
        E 144 81 40 00
        E 16 91 3c 55
        E 144 81 3c 00
        E 16 91 3a 55
        E 288 81 3a 00
        E 32 91 3e 55
        E 128 81 3e 00
        E 32 91 39 55
        E 128 81 39 00
        E 32 91 3c 55
        E 128 81 3c 00
        E 32 91 37 55
        E 128 81 37 00
        E 32 91 3a 55
        E 128 81 3a 00
        E 32 91 35 55
        E 128 81 35 00
        E 32 91 37 55
        E 128 81 37 00
        E 16 91 37 55
        E 144 81 37 00
        E 16 91 3a 55
        E 144 81 3a 00
        E 16 91 3e 55
        E 144 81 3e 00
        E 16 91 39 55
        E 128 81 39 00
        E 32 91 3c 55
        E 128 81 3c 00
        E 32 91 40 55
        E 128 81 40 00
        E 32 91 3c 55
        E 128 81 3c 00
        E 32 91 3e 55
        E 288 81 3e 00
        E 32 91 45 55
        E 128 81 45 00
        E 32 91 41 55
        E 128 81 41 00
        E 16 91 43 55
        E 144 81 43 00
        E 16 91 40 55
        E 144 81 40 00
        E 16 91 41 55
        E 144 81 41 00
        E 16 91 40 55
        E 128 81 40 00
        E 32 91 3c 55
        E 128 81 3c 00
        E 32 91 37 55
        E 128 81 37 00
        E 32 91 3a 55
        E 128 81 3a 00
        E 32 91 3e 55
        E 128 81 3e 00
        E 32 91 39 55
        E 128 81 39 00
        E 32 91 3c 55
        E 128 81 3c 00
        E 32 91 40 55
        E 128 81 40 00
        E 16 91 3c 55
        E 128 81 3c 00
        E 0 b1 7b 00
        E 0 ff 2f 00
      >
    >
  >
  <TRACK {E43836CF-2E9C-4C1F-8F1C-47AD8C4EA8C6}
    NAME "NES - Triangle [ch2]"
    PEAKCOL 16744192
    BEAT -1
    AUTOMODE 0
    PANLAWFLAGS 3
    VOLPAN 1 0 -1 -1 1
    MUTESOLO 0 0 0
    IPHASE 0
    PLAYOFFS 0 1
    ISBUS 0 0
    BUSCOMP 0 0 0 0 0
    SHOWINMIX 1 0.6667 0.5 1 0.5 0 0 0
    FIXEDLANES 9 0 0 0 0
    SEL 0
    REC 0 5088 1 0 0 0 0 0
    VU 2
    TRACKHEIGHT 0 0 0 0 0 0 0
    INQ 0 0 0 0.5 100 0 0 100
    NCHAN 2
    FX 1
    TRACKID {E43836CF-2E9C-4C1F-8F1C-47AD8C4EA8C6}
    PERF 0
    MIDIOUT -1
    MAINSEND 1 0
    <FXCHAIN
      WNDRECT 24 52 700 560
      SHOW 0
      LASTSEL 0
      DOCKED 0
      BYPASS 0 0 0
      <JS "ReapNES Studio/ReapNES_Console.jsfx" ""
        2 15 1 10 80 10 100 2 1 15 1 5 60 10 80 1 1 0 50 0 0 15 1 0 100 0 0 0.500000 0.500000 0.400000 0.300000 0.800000 2 1 0 0 0 0 - - - - - - - - - - - - - - - - - - - - - - - - - -
      >
      FLOATPOS 0 0 0 0
      FXID {2251CC1D-0BEB-480C-8753-F1A30184A2CF}
      WAK 0 0
    >
    <ITEM
      POSITION 0
      LENGTH 74.55676740000001
      LOOP 0
      ALLTAKES 0
      FADEIN 0 0 0 0 0 0 0
      FADEOUT 0 0 0 0 0 0 0
      MUTE 0 0
      SEL 0
      IGUID {5CAC64A0-0AFB-443D-8105-0E6FB1A5507C}
      <SOURCE MIDI
        HASDATA 1 480 QN
        CCINTERP 32
        E 0 c2 26
        E 0 b2 0b 7f
        E 0 92 2b 7f
        E 128 82 2b 00
        E 32 b2 0b 7f
        E 0 92 2b 7f
        E 128 82 2b 00
        E 32 b2 0b 7f
        E 0 92 2b 7f
        E 128 82 2b 00
        E 32 b2 0b 7f
        E 0 92 2b 7f
        E 128 82 2b 00
        E 32 b2 0b 7f
        E 0 92 2b 7f
        E 128 82 2b 00
        E 32 b2 0b 7f
        E 0 92 2b 7f
        E 128 82 2b 00
        E 32 b2 0b 7f
        E 0 92 2b 7f
        E 128 82 2b 00
        E 16 b2 0b 7f
        E 0 92 2b 7f
        E 144 82 2b 00
        E 16 b2 0b 7f
        E 0 92 2b 7f
        E 144 82 2b 00
        E 16 b2 0b 7f
        E 0 92 2b 7f
        E 144 82 2b 00
        E 16 b2 0b 7f
        E 0 92 2b 7f
        E 128 82 2b 00
        E 32 b2 0b 7f
        E 0 92 2b 7f
        E 128 82 2b 00
        E 32 b2 0b 7f
        E 0 92 2b 7f
        E 128 82 2b 00
        E 32 b2 0b 7f
        E 0 92 2b 7f
        E 128 82 2b 00
        E 32 b2 0b 7f
        E 0 92 2b 7f
        E 128 82 2b 00
        E 32 b2 0b 7f
        E 0 92 2b 7f
        E 128 82 2b 00
        E 32 b2 0b 7f
        E 0 92 2b 7f
        E 128 82 2b 00
        E 32 b2 0b 7f
        E 0 92 2b 7f
        E 128 82 2b 00
        E 16 b2 0b 7f
        E 0 92 2b 7f
        E 144 82 2b 00
        E 16 b2 0b 7f
        E 0 92 2b 7f
        E 144 82 2b 00
        E 16 b2 0b 7f
        E 0 92 2b 7f
        E 144 82 2b 00
        E 16 b2 0b 7f
        E 0 92 2b 7f
        E 128 82 2b 00
        E 32 b2 0b 7f
        E 0 92 2b 7f
        E 128 82 2b 00
        E 32 b2 0b 7f
        E 0 92 2b 7f
        E 128 82 2b 00
        E 32 b2 0b 7f
        E 0 92 2b 7f
        E 128 82 2b 00
        E 32 b2 0b 7f
        E 0 92 2b 7f
        E 128 82 2b 00
        E 32 b2 0b 7f
        E 0 92 2b 7f
        E 128 82 2b 00
        E 32 b2 0b 7f
        E 0 92 2b 7f
        E 128 82 2b 00
        E 32 b2 0b 7f
        E 0 92 2b 7f
        E 128 82 2b 00
        E 16 b2 0b 7f
        E 0 92 2b 7f
        E 144 82 2b 00
        E 16 b2 0b 7f
        E 0 92 2b 7f
        E 144 82 2b 00
        E 16 b2 0b 7f
        E 0 92 2b 7f
        E 144 82 2b 00
        E 16 b2 0b 7f
        E 0 92 2b 7f
        E 128 82 2b 00
        E 32 b2 0b 7f
        E 0 92 2b 7f
        E 128 82 2b 00
        E 32 b2 0b 7f
        E 0 92 2b 7f
        E 128 82 2b 00
        E 32 b2 0b 7f
        E 0 92 2b 7f
        E 128 82 2b 00
        E 32 b2 0b 7f
        E 0 92 2b 7f
        E 128 82 2b 00
        E 32 b2 0b 7f
        E 0 92 2b 7f
        E 128 82 2b 00
        E 32 b2 0b 7f
        E 0 92 2b 7f
        E 128 82 2b 00
        E 32 b2 0b 7f
        E 0 92 2b 7f
        E 128 82 2b 00
        E 16 b2 0b 7f
        E 0 92 2b 7f
        E 144 82 2b 00
        E 16 b2 0b 7f
        E 0 92 2b 7f
        E 144 82 2b 00
        E 16 b2 0b 7f
        E 0 92 2b 7f
        E 144 82 2b 00
        E 16 b2 0b 7f
        E 0 92 2b 7f
        E 128 82 2b 00
        E 32 b2 0b 7f
        E 0 92 2b 7f
        E 128 82 2b 00
        E 32 b2 0b 7f
        E 0 92 24 7f
        E 128 82 24 00
        E 32 b2 0b 7f
        E 0 92 24 7f
        E 128 82 24 00
        E 32 b2 0b 7f
        E 0 92 24 7f
        E 128 82 24 00
        E 32 b2 0b 7f
        E 0 92 24 7f
        E 128 82 24 00
        E 32 b2 0b 7f
        E 0 92 24 7f
        E 128 82 24 00
        E 32 b2 0b 7f
        E 0 92 24 7f
        E 128 82 24 00
        E 16 b2 0b 7f
        E 0 92 24 7f
        E 144 82 24 00
        E 16 b2 0b 7f
        E 0 92 25 7f
        E 304 82 25 00
        E 16 b2 0b 7f
        E 0 92 25 7f
        E 128 82 25 00
        E 32 b2 0b 7f
        E 0 92 25 7f
        E 128 82 25 00
        E 32 b2 0b 7f
        E 0 92 25 7f
        E 128 82 25 00
        E 672 b2 0b 7f
        E 0 92 26 7f
        E 128 82 26 00
        E 16 b2 0b 7f
        E 0 92 26 7f
        E 144 82 26 00
        E 16 b2 0b 7f
        E 0 92 26 7f
        E 144 82 26 00
        E 16 b2 0b 7f
        E 0 92 26 7f
        E 144 82 26 00
        E 16 b2 0b 7f
        E 0 92 26 7f
        E 128 82 26 00
        E 32 b2 0b 7f
        E 0 92 26 7f
        E 128 82 26 00
        E 32 b2 0b 7f
        E 0 92 26 7f
        E 128 82 26 00
        E 32 b2 0b 7f
        E 0 92 26 7f
        E 128 82 26 00
        E 32 b2 0b 7f
        E 0 92 24 7f
        E 128 82 24 00
        E 32 b2 0b 7f
        E 0 92 24 7f
        E 128 82 24 00
        E 32 b2 0b 7f
        E 0 92 24 7f
        E 128 82 24 00
        E 32 b2 0b 7f
        E 0 92 24 7f
        E 128 82 24 00
        E 32 b2 0b 7f
        E 0 92 24 7f
        E 128 82 24 00
        E 16 b2 0b 7f
        E 0 92 24 7f
        E 144 82 24 00
        E 16 b2 0b 7f
        E 0 92 24 7f
        E 144 82 24 00
        E 16 b2 0b 7f
        E 0 92 24 7f
        E 128 82 24 00
        E 32 b2 0b 7f
        E 0 92 29 7f
        E 128 82 29 00
        E 32 b2 0b 7f
        E 0 92 29 7f
        E 128 82 29 00
        E 32 b2 0b 7f
        E 0 92 29 7f
        E 128 82 29 00
        E 32 b2 0b 7f
        E 0 92 29 7f
        E 128 82 29 00
        E 32 b2 0b 7f
        E 0 92 29 7f
        E 128 82 29 00
        E 32 b2 0b 7f
        E 0 92 29 7f
        E 128 82 29 00
        E 32 b2 0b 7f
        E 0 92 29 7f
        E 128 82 29 00
        E 32 b2 0b 7f
        E 0 92 29 7f
        E 128 82 29 00
        E 16 b2 0b 7f
        E 0 92 2b 7f
        E 144 82 2b 00
        E 16 b2 0b 7f
        E 0 92 2b 7f
        E 144 82 2b 00
        E 16 b2 0b 7f
        E 0 92 2b 7f
        E 128 82 2b 00
        E 32 b2 0b 7f
        E 0 92 2b 7f
        E 128 82 2b 00
        E 32 b2 0b 7f
        E 0 92 2b 7f
        E 128 82 2b 00
        E 32 b2 0b 7f
        E 0 92 2b 7f
        E 128 82 2b 00
        E 32 b2 0b 7f
        E 0 92 2b 7f
        E 128 82 2b 00
        E 32 b2 0b 7f
        E 0 92 2b 7f
        E 128 82 2b 00
        E 32 b2 0b 7f
        E 0 92 22 7f
        E 128 82 22 00
        E 32 b2 0b 7f
        E 0 92 22 7f
        E 128 82 22 00
        E 32 b2 0b 7f
        E 0 92 22 7f
        E 128 82 22 00
        E 16 b2 0b 7f
        E 0 92 22 7f
        E 144 82 22 00
        E 16 b2 0b 7f
        E 0 92 22 7f
        E 144 82 22 00
        E 16 b2 0b 7f
        E 0 92 22 7f
        E 144 82 22 00
        E 16 b2 0b 7f
        E 0 92 22 7f
        E 128 82 22 00
        E 32 b2 0b 7f
        E 0 92 22 7f
        E 128 82 22 00
        E 32 b2 0b 7f
        E 0 92 2d 7f
        E 128 82 2d 00
        E 32 b2 0b 7f
        E 0 92 2d 7f
        E 128 82 2d 00
        E 32 b2 0b 7f
        E 0 92 2d 7f
        E 128 82 2d 00
        E 32 b2 0b 7f
        E 0 92 2d 7f
        E 128 82 2d 00
        E 32 b2 0b 7f
        E 0 92 2d 7f
        E 128 82 2d 00
        E 32 b2 0b 7f
        E 0 92 2d 7f
        E 128 82 2d 00
        E 16 b2 0b 7f
        E 0 92 2d 7f
        E 144 82 2d 00
        E 16 b2 0b 7f
        E 0 92 2d 7f
        E 144 82 2d 00
        E 16 b2 0b 7f
        E 0 92 2b 7f
        E 144 82 2b 00
        E 16 b2 0b 7f
        E 0 92 2b 7f
        E 128 82 2b 00
        E 32 b2 0b 7f
        E 0 92 2b 7f
        E 128 82 2b 00
        E 32 b2 0b 7f
        E 0 92 2b 7f
        E 128 82 2b 00
        E 32 b2 0b 7f
        E 0 92 2b 7f
        E 128 82 2b 00
        E 32 b2 0b 7f
        E 0 92 2b 7f
        E 128 82 2b 00
        E 32 b2 0b 7f
        E 0 92 2b 7f
        E 128 82 2b 00
        E 32 b2 0b 7f
        E 0 92 2b 7f
        E 128 82 2b 00
        E 32 b2 0b 7f
        E 0 92 2b 7f
        E 48 82 2b 00
        E 16 b2 0b 7f
        E 0 92 29 7f
        E 64 82 29 00
        E 16 b2 0b 7f
        E 0 92 2b 7f
        E 144 82 2b 00
        E 16 b2 0b 7f
        E 0 92 2e 7f
        E 144 82 2e 00
        E 16 b2 0b 7f
        E 0 92 2b 7f
        E 144 82 2b 00
        E 656 b2 0b 7f
        E 0 92 26 7f
        E 128 82 26 00
        E 32 b2 0b 7f
        E 0 92 26 7f
        E 128 82 26 00
        E 32 b2 0b 7f
        E 0 92 26 7f
        E 128 82 26 00
        E 32 b2 0b 7f
        E 0 92 26 7f
        E 128 82 26 00
        E 16 b2 0b 7f
        E 0 92 26 7f
        E 144 82 26 00
        E 16 b2 0b 7f
        E 0 92 26 7f
        E 144 82 26 00
        E 16 b2 0b 7f
        E 0 92 26 7f
        E 144 82 26 00
        E 16 b2 0b 7f
        E 0 92 26 7f
        E 128 82 26 00
        E 32 b2 0b 7f
        E 0 92 24 7f
        E 128 82 24 00
        E 32 b2 0b 7f
        E 0 92 24 7f
        E 128 82 24 00
        E 32 b2 0b 7f
        E 0 92 24 7f
        E 128 82 24 00
        E 32 b2 0b 7f
        E 0 92 24 7f
        E 128 82 24 00
        E 32 b2 0b 7f
        E 0 92 24 7f
        E 128 82 24 00
        E 32 b2 0b 7f
        E 0 92 24 7f
        E 128 82 24 00
        E 32 b2 0b 7f
        E 0 92 24 7f
        E 128 82 24 00
        E 16 b2 0b 7f
        E 0 92 24 7f
        E 144 82 24 00
        E 16 b2 0b 7f
        E 0 92 29 7f
        E 144 82 29 00
        E 16 b2 0b 7f
        E 0 92 29 7f
        E 144 82 29 00
        E 16 b2 0b 7f
        E 0 92 29 7f
        E 128 82 29 00
        E 32 b2 0b 7f
        E 0 92 29 7f
        E 128 82 29 00
        E 32 b2 0b 7f
        E 0 92 29 7f
        E 128 82 29 00
        E 32 b2 0b 7f
        E 0 92 29 7f
        E 128 82 29 00
        E 32 b2 0b 7f
        E 0 92 29 7f
        E 128 82 29 00
        E 32 b2 0b 7f
        E 0 92 29 7f
        E 128 82 29 00
        E 32 b2 0b 7f
        E 0 92 2b 7f
        E 128 82 2b 00
        E 32 b2 0b 7f
        E 0 92 2b 7f
        E 128 82 2b 00
        E 16 b2 0b 7f
        E 0 92 2b 7f
        E 144 82 2b 00
        E 16 b2 0b 7f
        E 0 92 2b 7f
        E 144 82 2b 00
        E 16 b2 0b 7f
        E 0 92 2b 7f
        E 144 82 2b 00
        E 16 b2 0b 7f
        E 0 92 2b 7f
        E 128 82 2b 00
        E 32 b2 0b 7f
        E 0 92 2b 7f
        E 128 82 2b 00
        E 32 b2 0b 7f
        E 0 92 2b 7f
        E 128 82 2b 00
        E 32 b2 0b 7f
        E 0 92 22 7f
        E 128 82 22 00
        E 32 b2 0b 7f
        E 0 92 22 7f
        E 128 82 22 00
        E 32 b2 0b 7f
        E 0 92 22 7f
        E 128 82 22 00
        E 32 b2 0b 7f
        E 0 92 22 7f
        E 128 82 22 00
        E 32 b2 0b 7f
        E 0 92 22 7f
        E 128 82 22 00
        E 16 b2 0b 7f
        E 0 92 22 7f
        E 144 82 22 00
        E 16 b2 0b 7f
        E 0 92 22 7f
        E 144 82 22 00
        E 16 b2 0b 7f
        E 0 92 22 7f
        E 144 82 22 00
        E 16 b2 0b 7f
        E 0 92 2d 7f
        E 128 82 2d 00
        E 32 b2 0b 7f
        E 0 92 2d 7f
        E 128 82 2d 00
        E 32 b2 0b 7f
        E 0 92 2d 7f
        E 128 82 2d 00
        E 32 b2 0b 7f
        E 0 92 2d 7f
        E 128 82 2d 00
        E 32 b2 0b 7f
        E 0 92 2d 7f
        E 128 82 2d 00
        E 32 b2 0b 7f
        E 0 92 2d 7f
        E 128 82 2d 00
        E 32 b2 0b 7f
        E 0 92 2d 7f
        E 128 82 2d 00
        E 32 b2 0b 7f
        E 0 92 2d 7f
        E 128 82 2d 00
        E 16 b2 0b 7f
        E 0 92 27 7f
        E 144 82 27 00
        E 16 b2 0b 7f
        E 0 92 27 7f
        E 144 82 27 00
        E 16 b2 0b 7f
        E 0 92 27 7f
        E 144 82 27 00
        E 16 b2 0b 7f
        E 0 92 27 7f
        E 128 82 27 00
        E 32 b2 0b 7f
        E 0 92 27 7f
        E 128 82 27 00
        E 32 b2 0b 7f
        E 0 92 27 7f
        E 128 82 27 00
        E 32 b2 0b 7f
        E 0 92 26 7f
        E 128 82 26 00
        E 32 b2 0b 7f
        E 0 92 24 7f
        E 288 82 24 00
        E 32 b2 0b 7f
        E 0 92 24 7f
        E 128 82 24 00
        E 32 b2 0b 7f
        E 0 92 24 7f
        E 128 82 24 00
        E 16 b2 0b 7f
        E 0 92 24 7f
        E 144 82 24 00
        E 16 b2 0b 7f
        E 0 92 24 7f
        E 144 82 24 00
        E 16 b2 0b 7f
        E 0 92 24 7f
        E 144 82 24 00
        E 16 b2 0b 7f
        E 0 92 24 7f
        E 128 82 24 00
        E 32 b2 0b 7f
        E 0 92 24 7f
        E 128 82 24 00
        E 32 b2 0b 7f
        E 0 92 2b 7f
        E 416 82 2b 00
        E 64 b2 0b 7f
        E 0 92 2d 7f
        E 576 82 2d 00
        E 48 b2 0b 7f
        E 0 92 2e 7f
        E 304 82 2e 00
        E 16 b2 0b 7f
        E 0 92 26 7f
        E 128 82 26 00
        E 32 b2 0b 7f
        E 0 92 24 7f
        E 128 82 24 00
        E 32 b2 0b 7f
        E 0 92 22 7f
        E 128 82 22 00
        E 32 b2 0b 7f
        E 0 92 1d 7f
        E 48 82 1d 00
        E 32 b2 0b 7f
        E 0 92 1f 7f
        E 48 82 1f 00
        E 32 b2 0b 7f
        E 0 92 24 7f
        E 128 82 24 00
        E 32 b2 0b 7f
        E 0 92 22 7f
        E 128 82 22 00
        E 32 b2 0b 7f
        E 0 92 21 7f
        E 128 82 21 00
        E 32 b2 0b 7f
        E 0 92 1f 7f
        E 416 82 1f 00
        E 48 b2 0b 7f
        E 0 92 21 7f
        E 592 82 21 00
        E 48 b2 0b 7f
        E 0 92 26 7f
        E 288 82 26 00
        E 32 b2 0b 7f
        E 0 92 1d 7f
        E 288 82 1d 00
        E 32 b2 0b 7f
        E 0 92 29 7f
        E 80 82 29 00
        E 64 b2 0b 7f
        E 0 92 1f 7f
        E 144 82 1f 00
        E 16 b2 0b 7f
        E 0 92 2b 7f
        E 80 82 2b 00
        E 80 b2 0b 7f
        E 0 92 21 7f
        E 144 82 21 00
        E 16 b2 0b 7f
        E 0 92 2d 7f
        E 80 82 2d 00
        E 80 b2 0b 7f
        E 0 92 1f 7f
        E 432 82 1f 00
        E 48 b2 0b 7f
        E 0 92 21 7f
        E 576 82 21 00
        E 64 b2 0b 7f
        E 0 92 22 7f
        E 288 82 22 00
        E 16 b2 0b 7f
        E 0 92 2e 7f
        E 80 82 2e 00
        E 80 b2 0b 7f
        E 0 92 21 7f
        E 128 82 21 00
        E 32 b2 0b 7f
        E 0 92 2d 7f
        E 80 82 2d 00
        E 80 b2 0b 7f
        E 0 92 1d 7f
        E 128 82 1d 00
        E 32 b2 0b 7f
        E 0 92 1f 7f
        E 128 82 1f 00
        E 32 b2 0b 7f
        E 0 92 22 7f
        E 128 82 22 00
        E 32 b2 0b 7f
        E 0 92 24 7f
        E 288 82 24 00
        E 32 b2 0b 7f
        E 0 92 24 7f
        E 128 82 24 00
        E 32 b2 0b 7f
        E 0 92 24 7f
        E 128 82 24 00
        E 16 b2 0b 7f
        E 0 92 24 7f
        E 144 82 24 00
        E 16 b2 0b 7f
        E 0 92 24 7f
        E 144 82 24 00
        E 16 b2 0b 7f
        E 0 92 24 7f
        E 128 82 24 00
        E 32 b2 0b 7f
        E 0 92 24 7f
        E 128 82 24 00
        E 32 b2 0b 7f
        E 0 92 24 7f
        E 128 82 24 00
        E 32 b2 0b 7f
        E 0 92 24 7f
        E 128 82 24 00
        E 32 b2 0b 7f
        E 0 92 24 7f
        E 128 82 24 00
        E 32 b2 0b 7f
        E 0 92 24 7f
        E 128 82 24 00
        E 32 b2 0b 7f
        E 0 92 24 7f
        E 128 82 24 00
        E 32 b2 0b 7f
        E 0 92 24 7f
        E 128 82 24 00
        E 32 b2 0b 7f
        E 0 92 24 7f
        E 128 82 24 00
        E 16 b2 0b 7f
        E 0 92 24 7f
        E 144 82 24 00
        E 16 b2 0b 7f
        E 0 92 24 7f
        E 144 82 24 00
        E 16 b2 0b 7f
        E 0 92 2b 7f
        E 144 82 2b 00
        E 16 b2 0b 7f
        E 0 92 2b 7f
        E 128 82 2b 00
        E 32 b2 0b 7f
        E 0 92 2b 7f
        E 128 82 2b 00
        E 32 b2 0b 7f
        E 0 92 2b 7f
        E 128 82 2b 00
        E 32 b2 0b 7f
        E 0 92 2b 7f
        E 128 82 2b 00
        E 32 b2 0b 7f
        E 0 92 2b 7f
        E 128 82 2b 00
        E 32 b2 0b 7f
        E 0 92 2b 7f
        E 128 82 2b 00
        E 32 b2 0b 7f
        E 0 92 2b 7f
        E 128 82 2b 00
        E 32 b2 0b 7f
        E 0 92 2b 7f
        E 128 82 2b 00
        E 16 b2 0b 7f
        E 0 92 2b 7f
        E 144 82 2b 00
        E 16 b2 0b 7f
        E 0 92 2b 7f
        E 144 82 2b 00
        E 16 b2 0b 7f
        E 0 92 2b 7f
        E 144 82 2b 00
        E 16 b2 0b 7f
        E 0 92 2b 7f
        E 128 82 2b 00
        E 32 b2 0b 7f
        E 0 92 2b 7f
        E 128 82 2b 00
        E 32 b2 0b 7f
        E 0 92 2b 7f
        E 128 82 2b 00
        E 32 b2 0b 7f
        E 0 92 2b 7f
        E 128 82 2b 00
        E 32 b2 0b 7f
        E 0 92 2b 7f
        E 128 82 2b 00
        E 32 b2 0b 7f
        E 0 92 2b 7f
        E 128 82 2b 00
        E 32 b2 0b 7f
        E 0 92 2b 7f
        E 128 82 2b 00
        E 32 b2 0b 7f
        E 0 92 2b 7f
        E 128 82 2b 00
        E 16 b2 0b 7f
        E 0 92 2b 7f
        E 144 82 2b 00
        E 16 b2 0b 7f
        E 0 92 2b 7f
        E 144 82 2b 00
        E 16 b2 0b 7f
        E 0 92 2b 7f
        E 144 82 2b 00
        E 16 b2 0b 7f
        E 0 92 2b 7f
        E 128 82 2b 00
        E 32 b2 0b 7f
        E 0 92 2b 7f
        E 128 82 2b 00
        E 32 b2 0b 7f
        E 0 92 2b 7f
        E 128 82 2b 00
        E 32 b2 0b 7f
        E 0 92 2b 7f
        E 128 82 2b 00
        E 32 b2 0b 7f
        E 0 92 2b 7f
        E 128 82 2b 00
        E 32 b2 0b 7f
        E 0 92 2b 7f
        E 128 82 2b 00
        E 32 b2 0b 7f
        E 0 92 2b 7f
        E 128 82 2b 00
        E 32 b2 0b 7f
        E 0 92 2b 7f
        E 128 82 2b 00
        E 16 b2 0b 7f
        E 0 92 2b 7f
        E 144 82 2b 00
        E 16 b2 0b 7f
        E 0 92 2b 7f
        E 144 82 2b 00
        E 16 b2 0b 7f
        E 0 92 2b 7f
        E 144 82 2b 00
        E 16 b2 0b 7f
        E 0 92 2b 7f
        E 128 82 2b 00
        E 32 b2 0b 7f
        E 0 92 2b 7f
        E 128 82 2b 00
        E 32 b2 0b 7f
        E 0 92 2b 7f
        E 128 82 2b 00
        E 32 b2 0b 7f
        E 0 92 2b 7f
        E 128 82 2b 00
        E 32 b2 0b 7f
        E 0 92 2b 7f
        E 128 82 2b 00
        E 32 b2 0b 7f
        E 0 92 2b 7f
        E 128 82 2b 00
        E 32 b2 0b 7f
        E 0 92 2b 7f
        E 128 82 2b 00
        E 32 b2 0b 7f
        E 0 92 2b 7f
        E 128 82 2b 00
        E 16 b2 0b 7f
        E 0 92 2b 7f
        E 144 82 2b 00
        E 16 b2 0b 7f
        E 0 92 2b 7f
        E 144 82 2b 00
        E 16 b2 0b 7f
        E 0 92 2b 7f
        E 144 82 2b 00
        E 16 b2 0b 7f
        E 0 92 2b 7f
        E 128 82 2b 00
        E 32 b2 0b 7f
        E 0 92 2b 7f
        E 128 82 2b 00
        E 32 b2 0b 7f
        E 0 92 2b 7f
        E 128 82 2b 00
        E 32 b2 0b 7f
        E 0 92 24 7f
        E 128 82 24 00
        E 32 b2 0b 7f
        E 0 92 24 7f
        E 128 82 24 00
        E 32 b2 0b 7f
        E 0 92 24 7f
        E 128 82 24 00
        E 32 b2 0b 7f
        E 0 92 24 7f
        E 128 82 24 00
        E 32 b2 0b 7f
        E 0 92 24 7f
        E 128 82 24 00
        E 16 b2 0b 7f
        E 0 92 24 7f
        E 144 82 24 00
        E 16 b2 0b 7f
        E 0 92 24 7f
        E 144 82 24 00
        E 16 b2 0b 7f
        E 0 92 25 7f
        E 288 82 25 00
        E 32 b2 0b 7f
        E 0 92 25 7f
        E 128 82 25 00
        E 32 b2 0b 7f
        E 0 92 25 7f
        E 128 82 25 00
        E 32 b2 0b 7f
        E 0 92 25 7f
        E 128 82 25 00
        E 656 b2 0b 7f
        E 0 92 26 7f
        E 144 82 26 00
        E 16 b2 0b 7f
        E 0 92 26 7f
        E 144 82 26 00
        E 16 b2 0b 7f
        E 0 92 26 7f
        E 144 82 26 00
        E 16 b2 0b 7f
        E 0 92 26 7f
        E 128 82 26 00
        E 32 b2 0b 7f
        E 0 92 26 7f
        E 128 82 26 00
        E 32 b2 0b 7f
        E 0 92 26 7f
        E 128 82 26 00
        E 32 b2 0b 7f
        E 0 92 26 7f
        E 128 82 26 00
        E 32 b2 0b 7f
        E 0 92 26 7f
        E 128 82 26 00
        E 32 b2 0b 7f
        E 0 92 24 7f
        E 128 82 24 00
        E 32 b2 0b 7f
        E 0 92 24 7f
        E 128 82 24 00
        E 32 b2 0b 7f
        E 0 92 24 7f
        E 128 82 24 00
        E 16 b2 0b 7f
        E 0 92 24 7f
        E 144 82 24 00
        E 16 b2 0b 7f
        E 0 92 24 7f
        E 144 82 24 00
        E 16 b2 0b 7f
        E 0 92 24 7f
        E 144 82 24 00
        E 16 b2 0b 7f
        E 0 92 24 7f
        E 128 82 24 00
        E 32 b2 0b 7f
        E 0 92 24 7f
        E 128 82 24 00
        E 32 b2 0b 7f
        E 0 92 29 7f
        E 128 82 29 00
        E 32 b2 0b 7f
        E 0 92 29 7f
        E 128 82 29 00
        E 32 b2 0b 7f
        E 0 92 29 7f
        E 128 82 29 00
        E 32 b2 0b 7f
        E 0 92 29 7f
        E 128 82 29 00
        E 32 b2 0b 7f
        E 0 92 29 7f
        E 128 82 29 00
        E 32 b2 0b 7f
        E 0 92 29 7f
        E 128 82 29 00
        E 16 b2 0b 7f
        E 0 92 29 7f
        E 144 82 29 00
        E 16 b2 0b 7f
        E 0 92 29 7f
        E 144 82 29 00
        E 16 b2 0b 7f
        E 0 92 2b 7f
        E 144 82 2b 00
        E 16 b2 0b 7f
        E 0 92 2b 7f
        E 128 82 2b 00
        E 32 b2 0b 7f
        E 0 92 2b 7f
        E 128 82 2b 00
        E 32 b2 0b 7f
        E 0 92 2b 7f
        E 128 82 2b 00
        E 32 b2 0b 7f
        E 0 92 2b 7f
        E 128 82 2b 00
        E 32 b2 0b 7f
        E 0 92 2b 7f
        E 128 82 2b 00
        E 32 b2 0b 7f
        E 0 92 2b 7f
        E 128 82 2b 00
        E 32 b2 0b 7f
        E 0 92 2b 7f
        E 128 82 2b 00
        E 32 b2 0b 7f
        E 0 92 22 7f
        E 128 82 22 00
        E 16 b2 0b 7f
        E 0 92 22 7f
        E 144 82 22 00
        E 16 b2 0b 7f
        E 0 92 22 7f
        E 144 82 22 00
        E 16 b2 0b 7f
        E 0 92 22 7f
        E 144 82 22 00
        E 16 b2 0b 7f
        E 0 92 22 7f
        E 128 82 22 00
        E 32 b2 0b 7f
        E 0 92 22 7f
        E 128 82 22 00
        E 32 b2 0b 7f
        E 0 92 22 7f
        E 128 82 22 00
        E 32 b2 0b 7f
        E 0 92 22 7f
        E 128 82 22 00
        E 32 b2 0b 7f
        E 0 92 2d 7f
        E 128 82 2d 00
        E 32 b2 0b 7f
        E 0 92 2d 7f
        E 128 82 2d 00
        E 32 b2 0b 7f
        E 0 92 2d 7f
        E 128 82 2d 00
        E 32 b2 0b 7f
        E 0 92 2d 7f
        E 128 82 2d 00
        E 16 b2 0b 7f
        E 0 92 2d 7f
        E 144 82 2d 00
        E 16 b2 0b 7f
        E 0 92 2d 7f
        E 144 82 2d 00
        E 16 b2 0b 7f
        E 0 92 2d 7f
        E 144 82 2d 00
        E 16 b2 0b 7f
        E 0 92 2d 7f
        E 128 82 2d 00
        E 32 b2 0b 7f
        E 0 92 2b 7f
        E 128 82 2b 00
        E 32 b2 0b 7f
        E 0 92 2b 7f
        E 128 82 2b 00
        E 32 b2 0b 7f
        E 0 92 2b 7f
        E 128 82 2b 00
        E 32 b2 0b 7f
        E 0 92 2b 7f
        E 128 82 2b 00
        E 32 b2 0b 7f
        E 0 92 2b 7f
        E 128 82 2b 00
        E 32 b2 0b 7f
        E 0 92 2b 7f
        E 128 82 2b 00
        E 32 b2 0b 7f
        E 0 92 2b 7f
        E 128 82 2b 00
        E 16 b2 0b 7f
        E 0 92 2b 7f
        E 144 82 2b 00
        E 16 b2 0b 7f
        E 0 92 2b 7f
        E 64 82 2b 00
        E 16 b2 0b 7f
        E 0 92 29 7f
        E 64 82 29 00
        E 16 b2 0b 7f
        E 0 92 2b 7f
        E 144 82 2b 00
        E 16 b2 0b 7f
        E 0 92 2e 7f
        E 128 82 2e 00
        E 32 b2 0b 7f
        E 0 92 2b 7f
        E 128 82 2b 00
        E 672 b2 0b 7f
        E 0 92 26 7f
        E 128 82 26 00
        E 32 b2 0b 7f
        E 0 92 26 7f
        E 128 82 26 00
        E 32 b2 0b 7f
        E 0 92 26 7f
        E 128 82 26 00
        E 16 b2 0b 7f
        E 0 92 26 7f
        E 144 82 26 00
        E 16 b2 0b 7f
        E 0 92 26 7f
        E 144 82 26 00
        E 16 b2 0b 7f
        E 0 92 26 7f
        E 128 82 26 00
        E 32 b2 0b 7f
        E 0 92 26 7f
        E 128 82 26 00
        E 32 b2 0b 7f
        E 0 92 26 7f
        E 128 82 26 00
        E 32 b2 0b 7f
        E 0 92 24 7f
        E 128 82 24 00
        E 32 b2 0b 7f
        E 0 92 24 7f
        E 128 82 24 00
        E 32 b2 0b 7f
        E 0 92 24 7f
        E 128 82 24 00
        E 32 b2 0b 7f
        E 0 92 24 7f
        E 128 82 24 00
        E 32 b2 0b 7f
        E 0 92 24 7f
        E 128 82 24 00
        E 32 b2 0b 7f
        E 0 92 24 7f
        E 128 82 24 00
        E 16 b2 0b 7f
        E 0 92 24 7f
        E 144 82 24 00
        E 16 b2 0b 7f
        E 0 92 24 7f
        E 144 82 24 00
        E 16 b2 0b 7f
        E 0 92 29 7f
        E 128 82 29 00
        E 32 b2 0b 7f
        E 0 92 29 7f
        E 128 82 29 00
        E 32 b2 0b 7f
        E 0 92 29 7f
        E 128 82 29 00
        E 32 b2 0b 7f
        E 0 92 29 7f
        E 128 82 29 00
        E 32 b2 0b 7f
        E 0 92 29 7f
        E 128 82 29 00
        E 32 b2 0b 7f
        E 0 92 29 7f
        E 128 82 29 00
        E 32 b2 0b 7f
        E 0 92 29 7f
        E 128 82 29 00
        E 32 b2 0b 7f
        E 0 92 29 7f
        E 128 82 29 00
        E 32 b2 0b 7f
        E 0 92 2b 7f
        E 128 82 2b 00
        E 16 b2 0b 7f
        E 0 92 2b 7f
        E 144 82 2b 00
        E 16 b2 0b 7f
        E 0 92 2b 7f
        E 144 82 2b 00
        E 16 b2 0b 7f
        E 0 92 2b 7f
        E 144 82 2b 00
        E 16 b2 0b 7f
        E 0 92 2b 7f
        E 128 82 2b 00
        E 32 b2 0b 7f
        E 0 92 2b 7f
        E 128 82 2b 00
        E 32 b2 0b 7f
        E 0 92 2b 7f
        E 128 82 2b 00
        E 32 b2 0b 7f
        E 0 92 2b 7f
        E 128 82 2b 00
        E 32 b2 0b 7f
        E 0 92 22 7f
        E 128 82 22 00
        E 32 b2 0b 7f
        E 0 92 22 7f
        E 128 82 22 00
        E 32 b2 0b 7f
        E 0 92 22 7f
        E 128 82 22 00
        E 32 b2 0b 7f
        E 0 92 22 7f
        E 128 82 22 00
        E 16 b2 0b 7f
        E 0 92 22 7f
        E 144 82 22 00
        E 16 b2 0b 7f
        E 0 92 22 7f
        E 144 82 22 00
        E 16 b2 0b 7f
        E 0 92 22 7f
        E 144 82 22 00
        E 16 b2 0b 7f
        E 0 92 22 7f
        E 128 82 22 00
        E 32 b2 0b 7f
        E 0 92 2d 7f
        E 128 82 2d 00
        E 32 b2 0b 7f
        E 0 92 2d 7f
        E 128 82 2d 00
        E 32 b2 0b 7f
        E 0 92 2d 7f
        E 128 82 2d 00
        E 32 b2 0b 7f
        E 0 92 2d 7f
        E 128 82 2d 00
        E 32 b2 0b 7f
        E 0 92 2d 7f
        E 128 82 2d 00
        E 32 b2 0b 7f
        E 0 92 2d 7f
        E 128 82 2d 00
        E 32 b2 0b 7f
        E 0 92 2d 7f
        E 128 82 2d 00
        E 16 b2 0b 7f
        E 0 92 2d 7f
        E 144 82 2d 00
        E 16 b2 0b 7f
        E 0 92 27 7f
        E 144 82 27 00
        E 16 b2 0b 7f
        E 0 92 27 7f
        E 144 82 27 00
        E 16 b2 0b 7f
        E 0 92 27 7f
        E 128 82 27 00
        E 32 b2 0b 7f
        E 0 92 27 7f
        E 128 82 27 00
        E 32 b2 0b 7f
        E 0 92 27 7f
        E 128 82 27 00
        E 32 b2 0b 7f
        E 0 92 27 7f
        E 128 82 27 00
        E 32 b2 0b 7f
        E 0 92 26 7f
        E 128 82 26 00
        E 32 b2 0b 7f
        E 0 92 24 7f
        E 288 82 24 00
        E 32 b2 0b 7f
        E 0 92 24 7f
        E 128 82 24 00
        E 16 b2 0b 7f
        E 0 92 24 7f
        E 144 82 24 00
        E 16 b2 0b 7f
        E 0 92 24 7f
        E 144 82 24 00
        E 16 b2 0b 7f
        E 0 92 24 7f
        E 144 82 24 00
        E 16 b2 0b 7f
        E 0 92 24 7f
        E 128 82 24 00
        E 32 b2 0b 7f
        E 0 92 24 7f
        E 128 82 24 00
        E 32 b2 0b 7f
        E 0 92 24 7f
        E 128 82 24 00
        E 32 b2 0b 7f
        E 0 92 2b 7f
        E 416 82 2b 00
        E 64 b2 0b 7f
        E 0 92 2d 7f
        E 576 82 2d 00
        E 48 b2 0b 7f
        E 0 92 2e 7f
        E 288 82 2e 00
        E 32 b2 0b 7f
        E 0 92 26 7f
        E 128 82 26 00
        E 32 b2 0b 7f
        E 0 92 24 7f
        E 128 82 24 00
        E 32 b2 0b 7f
        E 0 92 22 7f
        E 128 82 22 00
        E 32 b2 0b 7f
        E 0 92 1d 7f
        E 48 82 1d 00
        E 32 b2 0b 7f
        E 0 92 1f 7f
        E 48 82 1f 00
        E 32 b2 0b 7f
        E 0 92 24 7f
        E 128 82 24 00
        E 32 b2 0b 7f
        E 0 92 22 7f
        E 128 82 22 00
        E 32 b2 0b 7f
        E 0 92 21 7f
        E 128 82 21 00
        E 16 b2 0b 7f
        E 0 92 1f 7f
        E 432 82 1f 00
        E 48 b2 0b 7f
        E 0 92 21 7f
        E 592 82 21 00
        E 48 b2 0b 7f
        E 0 92 26 7f
        E 288 82 26 00
        E 32 b2 0b 7f
        E 0 92 1d 7f
        E 288 82 1d 00
        E 16 b2 0b 7f
        E 0 92 29 7f
        E 80 82 29 00
        E 80 b2 0b 7f
        E 0 92 1f 7f
        E 144 82 1f 00
        E 16 b2 0b 7f
        E 0 92 2b 7f
        E 80 82 2b 00
        E 80 b2 0b 7f
        E 0 92 21 7f
        E 128 82 21 00
        E 32 b2 0b 7f
        E 0 92 2d 7f
        E 80 82 2d 00
        E 80 b2 0b 7f
        E 0 92 1f 7f
        E 416 82 1f 00
        E 64 b2 0b 7f
        E 0 92 21 7f
        E 576 82 21 00
        E 16 b2 7b 00
        E 0 ff 2f 00
      >
    >
  >
  <TRACK {13484AB6-AC87-49B5-85D2-1F66E9A8B79F}
    NAME "NES - Noise / Drums [ch3]"
    PEAKCOL 11184810
    BEAT -1
    AUTOMODE 0
    PANLAWFLAGS 3
    VOLPAN 1 0 -1 -1 1
    MUTESOLO 0 0 0
    IPHASE 0
    PLAYOFFS 0 1
    ISBUS 0 0
    BUSCOMP 0 0 0 0 0
    SHOWINMIX 1 0.6667 0.5 1 0.5 0 0 0
    FIXEDLANES 9 0 0 0 0
    SEL 0
    REC 0 5088 1 0 0 0 0 0
    VU 2
    TRACKHEIGHT 0 0 0 0 0 0 0
    INQ 0 0 0 0.5 100 0 0 100
    NCHAN 2
    FX 1
    TRACKID {13484AB6-AC87-49B5-85D2-1F66E9A8B79F}
    PERF 0
    MIDIOUT -1
    MAINSEND 1 0
    <FXCHAIN
      WNDRECT 24 52 700 560
      SHOW 0
      LASTSEL 0
      DOCKED 0
      BYPASS 0 0 0
      <JS "ReapNES Studio/ReapNES_Console.jsfx" ""
        2 15 1 10 80 10 100 2 1 15 1 5 60 10 80 1 1 0 50 0 0 15 1 0 100 0 0 0.500000 0.500000 0.400000 0.300000 0.800000 3 1 0 0 0 0 - - - - - - - - - - - - - - - - - - - - - - - - - -
      >
      FLOATPOS 0 0 0 0
      FXID {16B362F0-141D-421A-A799-0BCA1D1A46B9}
      WAK 0 0
    >
    <ITEM
      POSITION 0
      LENGTH 74.55676740000001
      LOOP 0
      ALLTAKES 0
      FADEIN 0 0 0 0 0 0 0
      FADEOUT 0 0 0 0 0 0 0
      MUTE 0 0
      SEL 0
      IGUID {42CC7BA1-C956-4EAF-8B1F-963800B535DA}
      <SOURCE MIDI
        HASDATA 1 480 QN
        CCINTERP 32
        E 0 93 2a 22
        E 128 83 2a 00
        E 32 93 2a 5d
        E 64 83 2a 00
        E 256 93 2a 77
        E 288 83 2a 00
        E 32 93 2a 5d
        E 64 83 2a 00
        E 240 93 2a 77
        E 304 83 2a 00
        E 16 93 2a 5d
        E 64 83 2a 00
        E 96 93 2a 5d
        E 64 83 2a 00
        E 96 93 2a 77
        E 288 83 2a 00
        E 32 93 2a 5d
        E 64 83 2a 00
        E 256 93 2a 77
        E 288 83 2a 00
        E 32 93 2a 5d
        E 64 83 2a 00
        E 240 93 2a 77
        E 304 83 2a 00
        E 16 93 2a 5d
        E 64 83 2a 00
        E 256 93 2a 77
        E 288 83 2a 00
        E 32 93 2a 5d
        E 64 83 2a 00
        E 96 93 2a 5d
        E 64 83 2a 00
        E 96 93 2a 77
        E 288 83 2a 00
        E 16 93 2a 5d
        E 64 83 2a 00
        E 256 93 2a 77
        E 288 83 2a 00
        E 32 93 2a 5d
        E 64 83 2a 00
        E 256 93 2a 77
        E 288 83 2a 00
        E 32 93 2a 5d
        E 64 83 2a 00
        E 256 93 2a 77
        E 288 83 2a 00
        E 16 93 2a 5d
        E 64 83 2a 00
        E 96 93 2a 5d
        E 64 83 2a 00
        E 96 93 2a 77
        E 288 83 2a 00
        E 32 93 2a 5d
        E 64 83 2a 00
        E 256 93 2a 77
        E 288 83 2a 00
        E 32 93 2a 5d
        E 64 83 2a 00
        E 240 93 2a 77
        E 304 83 2a 00
        E 16 93 2a 77
        E 144 83 2a 00
        E 16 93 2a 77
        E 128 83 2a 00
        E 32 93 2a 77
        E 128 83 2a 00
        E 32 93 2a 77
        E 128 83 2a 00
        E 352 93 2a 77
        E 48 83 2a 00
        E 32 93 2a 77
        E 48 83 2a 00
        E 112 93 2a 77
        E 48 83 2a 00
        E 32 93 2a 5d
        E 64 83 2a 00
        E 240 93 2a 77
        E 304 83 2a 00
        E 16 93 2a 5d
        E 64 83 2a 00
        E 256 93 2a 77
        E 288 83 2a 00
        E 32 93 2a 5d
        E 64 83 2a 00
        E 256 93 2a 77
        E 288 83 2a 00
        E 32 93 2a 5d
        E 64 83 2a 00
        E 80 93 2a 5d
        E 64 83 2a 00
        E 96 93 2a 77
        E 288 83 2a 00
        E 32 93 2a 5d
        E 64 83 2a 00
        E 256 93 2a 77
        E 288 83 2a 00
        E 32 93 2a 5d
        E 64 83 2a 00
        E 256 93 2a 77
        E 288 83 2a 00
        E 16 93 2a 5d
        E 64 83 2a 00
        E 256 93 2a 77
        E 288 83 2a 00
        E 32 93 2a 5d
        E 64 83 2a 00
        E 96 93 2a 5d
        E 64 83 2a 00
        E 96 93 2a 77
        E 288 83 2a 00
        E 32 93 2a 5d
        E 64 83 2a 00
        E 256 93 2a 77
        E 288 83 2a 00
        E 16 93 2a 5d
        E 64 83 2a 00
        E 256 93 2a 77
        E 288 83 2a 00
        E 32 93 2a 5d
        E 64 83 2a 00
        E 256 93 2a 77
        E 288 83 2a 00
        E 32 93 2a 5d
        E 64 83 2a 00
        E 96 93 2a 5d
        E 64 83 2a 00
        E 80 93 2a 77
        E 304 83 2a 00
        E 16 93 2a 5d
        E 64 83 2a 00
        E 256 93 2a 77
        E 288 83 2a 00
        E 32 93 2a 5d
        E 64 83 2a 00
        E 256 93 2a 77
        E 288 83 2a 00
        E 32 93 2a 77
        E 48 83 2a 00
        E 16 93 2a 77
        E 64 83 2a 00
        E 16 93 2a 77
        E 128 83 2a 00
        E 32 93 2a 77
        E 128 83 2a 00
        E 32 93 2a 77
        E 128 83 2a 00
        E 352 93 2a 77
        E 48 83 2a 00
        E 32 93 2a 77
        E 48 83 2a 00
        E 112 93 2a 77
        E 48 83 2a 00
        E 32 93 2a 5d
        E 64 83 2a 00
        E 256 93 2a 77
        E 288 83 2a 00
        E 16 93 2a 5d
        E 64 83 2a 00
        E 256 93 2a 77
        E 288 83 2a 00
        E 32 93 2a 5d
        E 64 83 2a 00
        E 256 93 2a 77
        E 288 83 2a 00
        E 32 93 2a 5d
        E 64 83 2a 00
        E 96 93 2a 5d
        E 64 83 2a 00
        E 96 93 2a 77
        E 288 83 2a 00
        E 16 93 2a 5d
        E 64 83 2a 00
        E 256 93 2a 77
        E 288 83 2a 00
        E 32 93 2a 5d
        E 64 83 2a 00
        E 256 93 2a 77
        E 288 83 2a 00
        E 32 93 2a 5d
        E 64 83 2a 00
        E 240 93 2a 77
        E 304 83 2a 00
        E 16 93 2a 5d
        E 64 83 2a 00
        E 96 93 2a 5d
        E 64 83 2a 00
        E 96 93 2a 77
        E 288 83 2a 00
        E 32 93 2a 5d
        E 64 83 2a 00
        E 256 93 2a 77
        E 288 83 2a 00
        E 32 93 2a 5d
        E 64 83 2a 00
        E 240 93 2a 77
        E 304 83 2a 00
        E 16 93 2a 5d
        E 64 83 2a 00
        E 256 93 2a 77
        E 288 83 2a 00
        E 32 93 2a 5d
        E 64 83 2a 00
        E 96 93 2a 5d
        E 64 83 2a 00
        E 96 93 2a 77
        E 288 83 2a 00
        E 16 93 2a 5d
        E 64 83 2a 00
        E 256 93 2a 77
        E 288 83 2a 00
        E 32 93 2a 77
        E 128 83 2a 00
        E 32 93 2a 77
        E 128 83 2a 00
        E 32 93 2a 77
        E 128 83 2a 00
        E 32 93 2a 77
        E 128 83 2a 00
        E 192 93 2a 77
        E 128 83 2a 00
        E 32 93 2a 77
        E 288 83 2a 00
        E 16 93 2a 77
        E 304 83 2a 00
        E 16 93 2a 77
        E 64 83 2a 00
        E 16 93 2a 77
        E 48 83 2a 00
        E 32 93 2a 77
        E 48 83 2a 00
        E 32 93 2a 77
        E 48 83 2a 00
        E 32 93 2a 5d
        E 64 83 2a 00
        E 256 93 2a 77
        E 128 83 2a 00
        E 32 93 2a 5d
        E 64 83 2a 00
        E 400 93 2a 77
        E 144 83 2a 00
        E 16 93 2a 5d
        E 64 83 2a 00
        E 256 93 2a 5d
        E 64 83 2a 00
        E 96 93 2a 77
        E 288 83 2a 00
        E 32 93 2a 5d
        E 64 83 2a 00
        E 256 93 2a 77
        E 128 83 2a 00
        E 32 93 2a 77
        E 128 83 2a 00
        E 32 93 2a 5d
        E 64 83 2a 00
        E 240 93 2a 77
        E 144 83 2a 00
        E 16 93 2a 5d
        E 64 83 2a 00
        E 416 93 2a 77
        E 128 83 2a 00
        E 32 93 2a 5d
        E 64 83 2a 00
        E 256 93 2a 5d
        E 64 83 2a 00
        E 96 93 2a 77
        E 288 83 2a 00
        E 16 93 2a 5d
        E 64 83 2a 00
        E 256 93 2a 77
        E 144 83 2a 00
        E 16 93 2a 77
        E 128 83 2a 00
        E 32 93 2a 5d
        E 64 83 2a 00
        E 256 93 2a 77
        E 128 83 2a 00
        E 32 93 2a 5d
        E 64 83 2a 00
        E 416 93 2a 77
        E 128 83 2a 00
        E 32 93 2a 5d
        E 64 83 2a 00
        E 240 93 2a 5d
        E 64 83 2a 00
        E 96 93 2a 77
        E 288 83 2a 00
        E 32 93 2a 5d
        E 64 83 2a 00
        E 256 93 2a 77
        E 128 83 2a 00
        E 32 93 2a 77
        E 128 83 2a 00
        E 192 93 2a 5d
        E 64 83 2a 00
        E 96 93 2a 77
        E 288 83 2a 00
        E 16 93 2a 5d
        E 64 83 2a 00
        E 256 93 2a 77
        E 128 83 2a 00
        E 32 93 2a 77
        E 128 83 2a 00
        E 32 93 2a 77
        E 128 83 2a 00
        E 32 93 2a 77
        E 128 83 2a 00
        E 32 93 2a 77
        E 128 83 2a 00
        E 32 93 2a 77
        E 128 83 2a 00
        E 32 93 2a 77
        E 128 83 2a 00
        E 32 93 2a 77
        E 128 83 2a 00
        E 16 93 2a 77
        E 64 83 2a 00
        E 16 93 2a 77
        E 64 83 2a 00
        E 16 93 2a 77
        E 64 83 2a 00
        E 16 93 2a 77
        E 64 83 2a 00
        E 16 93 2a 5d
        E 64 83 2a 00
        E 256 93 2a 77
        E 288 83 2a 00
        E 32 93 2a 5d
        E 64 83 2a 00
        E 256 93 2a 77
        E 288 83 2a 00
        E 32 93 2a 5d
        E 64 83 2a 00
        E 240 93 2a 77
        E 304 83 2a 00
        E 16 93 2a 5d
        E 64 83 2a 00
        E 96 93 2a 5d
        E 64 83 2a 00
        E 96 93 2a 77
        E 288 83 2a 00
        E 32 93 2a 5d
        E 64 83 2a 00
        E 256 93 2a 77
        E 288 83 2a 00
        E 16 93 2a 5d
        E 64 83 2a 00
        E 256 93 2a 77
        E 288 83 2a 00
        E 32 93 2a 5d
        E 64 83 2a 00
        E 256 93 2a 77
        E 288 83 2a 00
        E 32 93 2a 5d
        E 64 83 2a 00
        E 96 93 2a 5d
        E 64 83 2a 00
        E 96 93 2a 77
        E 288 83 2a 00
        E 16 93 2a 5d
        E 64 83 2a 00
        E 256 93 2a 77
        E 288 83 2a 00
        E 32 93 2a 5d
        E 64 83 2a 00
        E 256 93 2a 77
        E 288 83 2a 00
        E 32 93 2a 5d
        E 64 83 2a 00
        E 240 93 2a 77
        E 304 83 2a 00
        E 16 93 2a 5d
        E 64 83 2a 00
        E 96 93 2a 5d
        E 64 83 2a 00
        E 96 93 2a 77
        E 288 83 2a 00
        E 32 93 2a 5d
        E 64 83 2a 00
        E 256 93 2a 77
        E 288 83 2a 00
        E 32 93 2a 5d
        E 64 83 2a 00
        E 240 93 2a 77
        E 304 83 2a 00
        E 16 93 2a 77
        E 128 83 2a 00
        E 32 93 2a 77
        E 128 83 2a 00
        E 32 93 2a 77
        E 128 83 2a 00
        E 32 93 2a 77
        E 128 83 2a 00
        E 352 93 2a 77
        E 48 83 2a 00
        E 32 93 2a 77
        E 48 83 2a 00
        E 112 93 2a 77
        E 48 83 2a 00
        E 16 93 2a 5d
        E 64 83 2a 00
        E 256 93 2a 77
        E 288 83 2a 00
        E 32 93 2a 5d
        E 64 83 2a 00
        E 256 93 2a 77
        E 288 83 2a 00
        E 32 93 2a 5d
        E 64 83 2a 00
        E 256 93 2a 77
        E 288 83 2a 00
        E 16 93 2a 5d
        E 64 83 2a 00
        E 96 93 2a 5d
        E 64 83 2a 00
        E 96 93 2a 77
        E 288 83 2a 00
        E 32 93 2a 5d
        E 64 83 2a 00
        E 256 93 2a 77
        E 288 83 2a 00
        E 32 93 2a 5d
        E 64 83 2a 00
        E 240 93 2a 77
        E 304 83 2a 00
        E 16 93 2a 5d
        E 64 83 2a 00
        E 256 93 2a 77
        E 288 83 2a 00
        E 32 93 2a 5d
        E 64 83 2a 00
        E 96 93 2a 5d
        E 64 83 2a 00
        E 96 93 2a 77
        E 288 83 2a 00
        E 32 93 2a 5d
        E 64 83 2a 00
        E 240 93 2a 77
        E 304 83 2a 00
        E 16 93 2a 5d
        E 64 83 2a 00
        E 256 93 2a 77
        E 288 83 2a 00
        E 32 93 2a 5d
        E 64 83 2a 00
        E 256 93 2a 77
        E 288 83 2a 00
        E 16 93 2a 5d
        E 64 83 2a 00
        E 96 93 2a 5d
        E 64 83 2a 00
        E 96 93 2a 77
        E 288 83 2a 00
        E 32 93 2a 5d
        E 64 83 2a 00
        E 256 93 2a 77
        E 288 83 2a 00
        E 32 93 2a 5d
        E 64 83 2a 00
        E 256 93 2a 77
        E 288 83 2a 00
        E 16 93 2a 77
        E 64 83 2a 00
        E 16 93 2a 77
        E 64 83 2a 00
        E 16 93 2a 77
        E 128 83 2a 00
        E 32 93 2a 77
        E 128 83 2a 00
        E 32 93 2a 77
        E 128 83 2a 00
        E 352 93 2a 77
        E 48 83 2a 00
        E 32 93 2a 77
        E 48 83 2a 00
        E 112 93 2a 77
        E 48 83 2a 00
        E 32 93 2a 5d
        E 64 83 2a 00
        E 256 93 2a 77
        E 288 83 2a 00
        E 16 93 2a 5d
        E 64 83 2a 00
        E 256 93 2a 77
        E 288 83 2a 00
        E 32 93 2a 5d
        E 64 83 2a 00
        E 256 93 2a 77
        E 288 83 2a 00
        E 32 93 2a 5d
        E 64 83 2a 00
        E 96 93 2a 5d
        E 64 83 2a 00
        E 80 93 2a 77
        E 304 83 2a 00
        E 16 93 2a 5d
        E 64 83 2a 00
        E 256 93 2a 77
        E 288 83 2a 00
        E 32 93 2a 5d
        E 64 83 2a 00
        E 256 93 2a 77
        E 288 83 2a 00
        E 32 93 2a 5d
        E 64 83 2a 00
        E 240 93 2a 77
        E 304 83 2a 00
        E 16 93 2a 5d
        E 64 83 2a 00
        E 96 93 2a 5d
        E 64 83 2a 00
        E 96 93 2a 77
        E 288 83 2a 00
        E 32 93 2a 5d
        E 64 83 2a 00
        E 256 93 2a 77
        E 288 83 2a 00
        E 16 93 2a 5d
        E 64 83 2a 00
        E 256 93 2a 77
        E 288 83 2a 00
        E 32 93 2a 5d
        E 64 83 2a 00
        E 256 93 2a 77
        E 288 83 2a 00
        E 32 93 2a 5d
        E 64 83 2a 00
        E 96 93 2a 5d
        E 64 83 2a 00
        E 96 93 2a 77
        E 288 83 2a 00
        E 16 93 2a 5d
        E 64 83 2a 00
        E 256 93 2a 77
        E 288 83 2a 00
        E 32 93 2a 77
        E 128 83 2a 00
        E 32 93 2a 77
        E 128 83 2a 00
        E 32 93 2a 77
        E 128 83 2a 00
        E 32 93 2a 77
        E 128 83 2a 00
        E 192 93 2a 77
        E 128 83 2a 00
        E 16 93 2a 77
        E 304 83 2a 00
        E 16 93 2a 77
        E 288 83 2a 00
        E 32 93 2a 77
        E 48 83 2a 00
        E 32 93 2a 77
        E 48 83 2a 00
        E 32 93 2a 77
        E 48 83 2a 00
        E 32 93 2a 77
        E 48 83 2a 00
        E 32 93 2a 5d
        E 64 83 2a 00
        E 256 93 2a 77
        E 128 83 2a 00
        E 32 93 2a 5d
        E 64 83 2a 00
        E 400 93 2a 77
        E 144 83 2a 00
        E 16 93 2a 5d
        E 64 83 2a 00
        E 256 93 2a 5d
        E 64 83 2a 00
        E 96 93 2a 77
        E 288 83 2a 00
        E 32 93 2a 5d
        E 64 83 2a 00
        E 256 93 2a 77
        E 128 83 2a 00
        E 32 93 2a 77
        E 128 83 2a 00
        E 16 93 2a 5d
        E 64 83 2a 00
        E 256 93 2a 77
        E 144 83 2a 00
        E 16 93 2a 5d
        E 64 83 2a 00
        E 416 93 2a 77
        E 128 83 2a 00
        E 32 93 2a 5d
        E 64 83 2a 00
        E 256 93 2a 5d
        E 64 83 2a 00
        E 96 93 2a 77
        E 288 83 2a 00
        E 16 93 2a 5d
        E 64 83 2a 00
        E 256 93 2a 77
        E 128 83 2a 00
        E 32 93 2a 77
        E 128 83 2a 00
        E 32 93 2a 5d
        E 64 83 2a 00
        E 256 93 2a 77
        E 128 83 2a 00
        E 32 93 2a 5d
        E 64 83 2a 00
        E 400 93 2a 77
        E 128 83 2a 00
        E 0 b3 7b 00
        E 0 ff 2f 00
      >
    >
  >
>