<REAPER_PROJECT 0.1 "7.27/win64" 1707000000
  <NOTES 0 2
    |ReapNES Studio Project
    |MIDI Import - Best_of_the_Best__Championship_Karate_title_rom_v1
  >
  RIPPLE 0
  GROUPOVERRIDE 0 0 0
  AUTOXFADE 129
  ENVATTACH 3
  POOLEDENVATTACH 0
  MIXERUIFLAGS 11 48
  ENVFADESZ10 40
  PEAKGAIN 1
  FEEDBACK 0
  PANLAW 1
  PROJOFFS 0 0 0
  MAXPROJLEN 0 0
  GRID 3199 8 1 8 1 0 0 0
  TIMEMODE 1 5 -1 30 0 0 -1
  VIDEO_CONFIG 0 0 65792
  PANMODE 3
  PANLAWFLAGS 3
  CURSOR 0
  ZOOM 100 0 0
  VZOOMEX 6 0
  USE_REC_CFG 0
  RECMODE 1
  SMPTESYNC 0 30 100 40 1000 300 0 0 1 0 0
  LOOP 0
  LOOPGRAN 0 4
  RECORD_PATH "Media" ""
  <RECORD_CFG
    ZXZhdxgAAQ==
  >
  <APPLYFX_CFG
  >
  RENDER_FILE ""
  RENDER_PATTERN ""
  RENDER_FMT 0 2 0
  RENDER_1X 0
  RENDER_RANGE 1 0 0 18 1000
  RENDER_RESAMPLE 3 0 1
  RENDER_ADDTOPROJ 0
  RENDER_STEMS 0
  RENDER_DITHER 0
  TIMELOCKMODE 1
  TEMPOENVLOCKMODE 1
  ITEMMIX 1
  DEFPITCHMODE 589824 0
  TAKELANE 1
  SAMPLERATE 44100 0 0
  <RENDER_CFG
    ZXZhdxgAAQ==
  >
  LOCK 1
  <METRONOME 6 2
    VOL 0.25 0.125
    BEATLEN 4
    FREQ 1760 880 1
    SAMPLES "" ""
    SPLIGNORE 0 0
    SPLDEF 2 660 "" 0
    SPLDEF 3 440 "" 0
    PATTERN 0 169
    PATTERNSTR ABBB
    MULT 1
  >
  GLOBAL_AUTO -1
  TEMPO 128.59999614200012 4 4
  PLAYRATE 1 0 0.25 4
  SELECTION 0 0
  SELECTION2 0 0
  MASTERAUTOMODE 0
  MASTERTRACKHEIGHT 0 0
  MASTERPEAKCOL 16576
  MASTERMUTESOLO 0
  MASTERTRACKVIEW 0 0.6667 0.5 0.5 0 0 0 0 0 0 0 0 0 0
  MASTERHWOUT 0 0 1 0 0 0 0 -1
  MASTER_NCH 2 2
  MASTER_VOLUME 1 0 -1 -1 1
  MASTER_PANMODE 3
  MASTER_PANLAWFLAGS 3
  MASTER_FX 1
  MASTER_SEL 0
  <MASTERPLAYSPEEDENV
    EGUID {C1986BCE-F257-457A-9328-603667DE39B1}
    ACT 0 -1
    VIS 0 1 1
    LANEHEIGHT 0 0
    ARM 0
    DEFSHAPE 0 -1 -1
  >
  <TEMPOENVEX
    EGUID {EE38B836-5906-4DAF-965D-7C84AA4036BA}
    ACT 1 -1
    VIS 1 0 1
    LANEHEIGHT 0 0
    ARM 0
    DEFSHAPE 1 -1 -1
  >
  <PROJBAY
  >
  <TRACK {DA303ED2-7067-474C-A777-FD19E6149324}
    NAME "NES - Pulse 1 [ch0]"
    PEAKCOL 16576606
    BEAT -1
    AUTOMODE 0
    PANLAWFLAGS 3
    VOLPAN 1 0 -1 -1 1
    MUTESOLO 0 0 0
    IPHASE 0
    PLAYOFFS 0 1
    ISBUS 0 0
    BUSCOMP 0 0 0 0 0
    SHOWINMIX 1 0.6667 0.5 1 0.5 0 0 0
    FIXEDLANES 9 0 0 0 0
    SEL 1
    REC 1 5088 1 0 0 0 0 0
    VU 2
    TRACKHEIGHT 0 0 0 0 0 0 0
    INQ 0 0 0 0.5 100 0 0 100
    NCHAN 2
    FX 1
    TRACKID {DA303ED2-7067-474C-A777-FD19E6149324}
    PERF 0
    MIDIOUT -1
    MAINSEND 1 0
    <FXCHAIN
      WNDRECT 24 52 700 560
      SHOW 0
      LASTSEL 0
      DOCKED 0
      BYPASS 0 0 0
      <JS "ReapNES Studio/ReapNES_Console.jsfx" ""
        2 15 1 10 80 10 100 2 1 15 1 5 60 10 80 1 1 0 50 0 0 15 1 0 100 0 0 0.500000 0.500000 0.400000 0.300000 0.800000 0 1 0 0 0 0 - - - - - - - - - - - - - - - - - - - - - - - - - -
      >
      FLOATPOS 0 0 0 0
      FXID {23FDB8C1-BE9C-488A-8A2F-74399D725E8C}
      WAK 0 0
    >
    <ITEM
      POSITION 0
      LENGTH 8.8491449
      LOOP 0
      ALLTAKES 0
      FADEIN 0 0 0 0 0 0 0
      FADEOUT 0 0 0 0 0 0 0
      MUTE 0 0
      SEL 0
      IGUID {51950078-AF2F-48BC-8BC2-680CCAB6AB01}
      <SOURCE MIDI
        HASDATA 1 480 QN
        CCINTERP 32
        E 0 c0 50
        E 0 b0 0c 40
        E 0 b0 0b 3b
        E 0 90 38 3b
        E 32 b0 0b 11
        E 32 b0 0b 33
        E 32 b0 0b 11
        E 48 b0 0b 2a
        E 32 b0 0b 11
        E 48 b0 0b 22
        E 32 b0 0b 11
        E 32 b0 0b 19
        E 48 b0 0b 11
        E 112 b0 0b 08
        E 32 b0 0b 11
        E 48 80 38 00
        E 48 b0 0b 3b
        E 0 90 41 3b
        E 32 b0 0b 11
        E 32 b0 0b 33
        E 32 b0 0b 3b
        E 0 80 41 00
        E 0 90 3f 3b
        E 48 b0 0b 11
        E 32 b0 0b 33
        E 16 b0 0b 3b
        E 0 80 3f 00
        E 0 90 3d 3b
        E 32 b0 0b 11
        E 32 b0 0b 33
        E 32 b0 0b 11
        E 48 b0 0b 2a
        E 32 b0 0b 11
        E 16 b0 0b 3b
        E 0 80 3d 00
        E 0 90 3c 3b
        E 32 b0 0b 11
        E 32 b0 0b 33
        E 32 b0 0b 11
        E 48 b0 0b 2a
        E 32 b0 0b 11
        E 16 b0 0b 3b
        E 0 80 3c 00
        E 0 90 3d 3b
        E 32 b0 0b 11
        E 32 b0 0b 33
        E 32 b0 0b 11
        E 48 b0 0b 2a
        E 32 b0 0b 11
        E 48 b0 0b 22
        E 32 b0 0b 11
        E 32 b0 0b 19
        E 48 b0 0b 11
        E 48 b0 0b 3b
        E 0 80 3d 00
        E 0 90 3c 3b
        E 32 b0 0b 11
        E 32 b0 0b 33
        E 32 b0 0b 11
        E 48 b0 0b 2a
        E 32 b0 0b 11
        E 16 b0 0b 3b
        E 0 80 3c 00
        E 0 90 3d 3b
        E 32 b0 0b 11
        E 32 b0 0b 33
        E 32 b0 0b 11
        E 48 b0 0b 2a
        E 32 b0 0b 11
        E 16 b0 0b 3b
        E 32 b0 0b 11
        E 32 b0 0b 33
        E 32 b0 0b 11
        E 48 b0 0b 2a
        E 32 b0 0b 11
        E 48 b0 0b 22
        E 32 b0 0b 11
        E 32 b0 0b 19
        E 48 b0 0b 11
        E 112 b0 0b 08
        E 32 b0 0b 11
        E 48 80 3d 00
        E 48 b0 0b 3b
        E 0 90 3a 3b
        E 32 b0 0b 11
        E 32 b0 0b 33
        E 32 b0 0b 11
        E 48 b0 0b 2a
        E 32 b0 0b 11
        E 48 b0 0b 22
        E 32 b0 0b 11
        E 32 b0 0b 19
        E 48 b0 0b 11
        E 112 b0 0b 08
        E 32 b0 0b 11
        E 48 80 3a 00
        E 48 b0 0b 3b
        E 0 90 38 3b
        E 32 b0 0b 11
        E 32 b0 0b 33
        E 32 b0 0b 11
        E 48 b0 0b 2a
        E 32 b0 0b 11
        E 48 b0 0b 22
        E 32 b0 0b 11
        E 32 b0 0b 19
        E 48 b0 0b 11
        E 112 b0 0b 08
        E 32 b0 0b 11
        E 48 80 38 00
        E 48 b0 0b 3b
        E 0 90 41 3b
        E 32 b0 0b 11
        E 32 b0 0b 33
        E 32 b0 0b 3b
        E 0 80 41 00
        E 0 90 42 3b
        E 48 b0 0b 11
        E 32 b0 0b 33
        E 16 b0 0b 3b
        E 0 80 42 00
        E 0 90 44 3b
        E 32 b0 0b 11
        E 32 b0 0b 33
        E 32 b0 0b 3b
        E 0 80 44 00
        E 0 90 42 3b
        E 48 b0 0b 11
        E 32 b0 0b 33
        E 16 b0 0b 3b
        E 0 80 42 00
        E 0 90 41 3b
        E 32 b0 0b 11
        E 32 b0 0b 33
        E 32 b0 0b 3b
        E 0 80 41 00
        E 0 90 3d 3b
        E 48 b0 0b 11
        E 32 b0 0b 33
        E 16 b0 0b 3b
        E 0 80 3d 00
        E 0 90 42 3b
        E 32 b0 0b 11
        E 32 b0 0b 33
        E 32 b0 0b 3b
        E 0 80 42 00
        E 0 90 41 3b
        E 48 b0 0b 11
        E 32 b0 0b 33
        E 16 b0 0b 3b
        E 0 80 41 00
        E 0 90 3f 3b
        E 32 b0 0b 11
        E 32 b0 0b 33
        E 32 b0 0b 3b
        E 0 80 3f 00
        E 0 90 3d 3b
        E 48 b0 0b 11
        E 32 b0 0b 33
        E 16 b0 0b 3b
        E 0 80 3d 00
        E 0 90 41 3b
        E 32 b0 0b 11
        E 32 b0 0b 33
        E 32 b0 0b 3b
        E 0 80 41 00
        E 0 90 3f 3b
        E 48 b0 0b 11
        E 32 b0 0b 33
        E 16 b0 0b 3b
        E 0 80 3f 00
        E 0 90 3d 3b
        E 32 b0 0b 11
        E 32 b0 0b 33
        E 32 b0 0b 3b
        E 0 80 3d 00
        E 0 90 3c 3b
        E 48 b0 0b 11
        E 32 b0 0b 33
        E 16 b0 0b 3b
        E 0 80 3c 00
        E 0 90 3d 3b
        E 32 b0 0b 11
        E 32 b0 0b 33
        E 32 b0 0b 11
        E 48 b0 0b 2a
        E 32 b0 0b 11
        E 48 b0 0b 22
        E 32 b0 0b 11
        E 32 b0 0b 19
        E 48 b0 0b 11
        E 112 b0 0b 08
        E 32 b0 0b 11
        E 48 80 3d 00
        E 48 b0 0b 3b
        E 0 90 3a 3b
        E 32 b0 0b 11
        E 32 b0 0b 33
        E 32 b0 0b 11
        E 48 b0 0b 2a
        E 32 b0 0b 11
        E 48 b0 0b 22
        E 32 b0 0b 11
        E 32 b0 0b 19
        E 48 b0 0b 11
        E 112 b0 0b 08
        E 32 b0 0b 11
        E 48 80 3a 00
        E 48 b0 0b 3b
        E 0 90 38 3b
        E 32 b0 0b 11
        E 32 b0 0b 33
        E 32 b0 0b 11
        E 48 b0 0b 2a
        E 32 b0 0b 11
        E 48 b0 0b 22
        E 32 b0 0b 11
        E 32 b0 0b 19
        E 48 b0 0b 11
        E 112 b0 0b 08
        E 32 b0 0b 11
        E 48 80 38 00
        E 48 b0 0b 3b
        E 0 90 41 3b
        E 32 b0 0b 11
        E 32 b0 0b 33
        E 32 b0 0b 3b
        E 0 80 41 00
        E 0 90 3f 3b
        E 48 b0 0b 11
        E 32 b0 0b 33
        E 16 b0 0b 3b
        E 0 80 3f 00
        E 0 90 3d 3b
        E 32 b0 0b 11
        E 32 b0 0b 33
        E 32 b0 0b 11
        E 48 b0 0b 2a
        E 32 b0 0b 11
        E 16 b0 0b 3b
        E 0 80 3d 00
        E 0 90 3c 3b
        E 32 b0 0b 11
        E 32 b0 0b 33
        E 32 b0 0b 11
        E 48 b0 0b 2a
        E 32 b0 0b 11
        E 16 b0 0b 3b
        E 0 80 3c 00
        E 0 90 3d 3b
        E 32 b0 0b 11
        E 32 b0 0b 33
        E 32 b0 0b 11
        E 48 b0 0b 2a
        E 32 b0 0b 11
        E 16 b0 0b 3b
        E 0 80 3d 00
        E 0 90 3f 3b
        E 32 b0 0b 11
        E 32 b0 0b 33
        E 32 b0 0b 11
        E 48 b0 0b 2a
        E 32 b0 0b 11
        E 16 b0 0b 3b
        E 0 80 3f 00
        E 0 90 3c 3b
        E 32 b0 0b 11
        E 32 b0 0b 33
        E 32 b0 0b 3b
        E 0 80 3c 00
        E 0 90 3d 3b
        E 48 b0 0b 11
        E 32 b0 0b 33
        E 16 b0 0b 3b
        E 0 80 3d 00
        E 0 90 3c 3b
        E 32 b0 0b 11
        E 32 b0 0b 33
        E 32 b0 0b 3b
        E 0 80 3c 00
        E 0 90 3d 3b
        E 48 b0 0b 11
        E 32 b0 0b 33
        E 16 b0 0b 3b
        E 32 b0 0b 11
        E 32 b0 0b 33
        E 32 b0 0b 11
        E 48 b0 0b 2a
        E 32 b0 0b 11
        E 48 b0 0b 22
        E 32 b0 0b 11
        E 32 b0 0b 19
        E 48 b0 0b 11
        E 112 b0 0b 08
        E 32 b0 0b 11
        E 48 80 3d 00
        E 48 b0 0b 3b
        E 0 90 3a 3b
        E 32 b0 0b 11
        E 32 b0 0b 33
        E 32 b0 0b 11
        E 48 b0 0b 2a
        E 32 b0 0b 11
        E 48 b0 0b 22
        E 32 b0 0b 11
        E 32 b0 0b 19
        E 48 b0 0b 11
        E 112 b0 0b 08
        E 16 80 3a 00
        E 0 b0 7b 00
        E 0 ff 2f 00
      >
    >
  >
  <TRACK {BA6439CC-93B3-40C2-91BB-F9625E51D614}
    NAME "NES - Pulse 2 [ch1]"
    PEAKCOL 10092441
    BEAT -1
    AUTOMODE 0
    PANLAWFLAGS 3
    VOLPAN 1 0 -1 -1 1
    MUTESOLO 0 0 0
    IPHASE 0
    PLAYOFFS 0 1
    ISBUS 0 0
    BUSCOMP 0 0 0 0 0
    SHOWINMIX 1 0.6667 0.5 1 0.5 0 0 0
    FIXEDLANES 9 0 0 0 0
    SEL 0
    REC 0 5088 1 0 0 0 0 0
    VU 2
    TRACKHEIGHT 0 0 0 0 0 0 0
    INQ 0 0 0 0.5 100 0 0 100
    NCHAN 2
    FX 1
    TRACKID {BA6439CC-93B3-40C2-91BB-F9625E51D614}
    PERF 0
    MIDIOUT -1
    MAINSEND 1 0
    <FXCHAIN
      WNDRECT 24 52 700 560
      SHOW 0
      LASTSEL 0
      DOCKED 0
      BYPASS 0 0 0
      <JS "ReapNES Studio/ReapNES_Console.jsfx" ""
        2 15 1 10 80 10 100 2 1 15 1 5 60 10 80 1 1 0 50 0 0 15 1 0 100 0 0 0.500000 0.500000 0.400000 0.300000 0.800000 1 1 0 0 0 0 - - - - - - - - - - - - - - - - - - - - - - - - - -
      >
      FLOATPOS 0 0 0 0
      FXID {41D395E6-883F-4D5D-9F86-E640CCCFB732}
      WAK 0 0
    >
    <ITEM
      POSITION 0
      LENGTH 8.8491449
      LOOP 0
      ALLTAKES 0
      FADEIN 0 0 0 0 0 0 0
      FADEOUT 0 0 0 0 0 0 0
      MUTE 0 0
      SEL 0
      IGUID {34A595AD-992E-42BF-97D4-39BEA6EA23AA}
      <SOURCE MIDI
        HASDATA 1 480 QN
        CCINTERP 32
        E 0 c1 51
        E 0 b1 0c 10
        E 0 b1 0b 3b
        E 0 91 36 3b
        E 32 b1 0b 33
        E 32 b1 0b 2a
        E 32 b1 0b 22
        E 48 b1 0b 19
        E 32 b1 0b 11
        E 48 b1 0b 08
        E 32 81 36 00
        E 1280 b1 0b 3b
        E 0 91 38 3b
        E 32 b1 0b 33
        E 32 b1 0b 2a
        E 32 b1 0b 22
        E 48 b1 0b 19
        E 32 b1 0b 11
        E 16 b1 0b 3b
        E 0 81 38 00
        E 0 91 35 3b
        E 32 b1 0b 33
        E 32 b1 0b 2a
        E 32 b1 0b 22
        E 48 b1 0b 19
        E 32 b1 0b 11
        E 16 b1 0b 3b
        E 0 81 35 00
        E 0 91 38 3b
        E 32 b1 0b 33
        E 32 b1 0b 2a
        E 32 b1 0b 22
        E 48 b1 0b 19
        E 32 b1 0b 11
        E 48 b1 0b 08
        E 32 81 38 00
        E 320 b1 0b 3b
        E 0 91 36 3b
        E 32 b1 0b 33
        E 32 b1 0b 2a
        E 32 b1 0b 22
        E 48 b1 0b 19
        E 32 b1 0b 11
        E 48 b1 0b 08
        E 32 81 36 00
        E 320 b1 0b 3b
        E 0 91 36 3b
        E 32 b1 0b 33
        E 32 b1 0b 2a
        E 32 b1 0b 22
        E 48 b1 0b 19
        E 32 b1 0b 11
        E 48 b1 0b 08
        E 32 81 36 00
        E 1664 b1 0b 3b
        E 0 91 38 3b
        E 32 b1 0b 33
        E 32 b1 0b 2a
        E 32 b1 0b 22
        E 48 b1 0b 19
        E 32 b1 0b 11
        E 48 b1 0b 08
        E 32 81 38 00
        E 320 b1 0b 3b
        E 0 91 36 3b
        E 32 b1 0b 33
        E 32 b1 0b 2a
        E 32 b1 0b 22
        E 48 b1 0b 19
        E 32 b1 0b 11
        E 48 b1 0b 08
        E 32 81 36 00
        E 320 b1 0b 3b
        E 0 91 36 3b
        E 32 b1 0b 33
        E 32 b1 0b 2a
        E 32 b1 0b 22
        E 48 b1 0b 19
        E 32 b1 0b 11
        E 48 b1 0b 08
        E 32 81 36 00
        E 1280 b1 0b 3b
        E 0 91 38 3b
        E 32 b1 0b 33
        E 32 b1 0b 2a
        E 32 b1 0b 3b
        E 48 b1 0b 33
        E 32 b1 0b 2a
        E 16 b1 0b 3b
        E 32 b1 0b 33
        E 32 b1 0b 2a
        E 32 b1 0b 3b
        E 48 b1 0b 33
        E 32 b1 0b 2a
        E 16 b1 0b 3b
        E 32 b1 0b 33
        E 32 b1 0b 2a
        E 32 b1 0b 22
        E 48 b1 0b 19
        E 32 b1 0b 11
        E 48 b1 0b 08
        E 32 81 38 00
        E 320 b1 0b 3b
        E 0 91 36 3b
        E 32 b1 0b 33
        E 32 b1 0b 2a
        E 32 b1 0b 22
        E 48 b1 0b 19
        E 32 b1 0b 11
        E 48 b1 0b 08
        E 32 81 36 00
        E 208 b1 7b 00
        E 0 ff 2f 00
      >
    >
  >
  <TRACK {DCF03441-ACB6-45D3-BEDC-05D10D5B6967}
    NAME "NES - Triangle"
    PEAKCOL 16744192
    BEAT -1
    AUTOMODE 0
    PANLAWFLAGS 3
    VOLPAN 1 0 -1 -1 1
    MUTESOLO 0 0 0
    IPHASE 0
    PLAYOFFS 0 1
    ISBUS 0 0
    BUSCOMP 0 0 0 0 0
    SHOWINMIX 1 0.6667 0.5 1 0.5 0 0 0
    FIXEDLANES 9 0 0 0 0
    SEL 0
    REC 0 5088 1 0 0 0 0 0
    VU 2
    TRACKHEIGHT 0 0 0 0 0 0 0
    INQ 0 0 0 0.5 100 0 0 100
    NCHAN 2
    FX 1
    TRACKID {DCF03441-ACB6-45D3-BEDC-05D10D5B6967}
    PERF 0
    MIDIOUT -1
    MAINSEND 1 0
    <FXCHAIN
      WNDRECT 24 52 700 560
      SHOW 0
      LASTSEL 0
      DOCKED 0
      BYPASS 0 0 0
      <JS "ReapNES Studio/ReapNES_Console.jsfx" ""
        2 15 1 10 80 10 100 2 1 15 1 5 60 10 80 1 1 0 50 0 0 15 1 0 100 0 0 0.500000 0.500000 0.400000 0.300000 0.800000 2 1 0 0 0 0 - - - - - - - - - - - - - - - - - - - - - - - - - -
      >
      FLOATPOS 0 0 0 0
      FXID {B38DB0B6-998A-4FA8-B919-A64D25B0865F}
      WAK 0 0
    >
  >
  <TRACK {044A0E7A-94BD-4D01-9E18-2C950C018C01}
    NAME "NES - Noise / Drums [ch3]"
    PEAKCOL 11184810
    BEAT -1
    AUTOMODE 0
    PANLAWFLAGS 3
    VOLPAN 1 0 -1 -1 1
    MUTESOLO 0 0 0
    IPHASE 0
    PLAYOFFS 0 1
    ISBUS 0 0
    BUSCOMP 0 0 0 0 0
    SHOWINMIX 1 0.6667 0.5 1 0.5 0 0 0
    FIXEDLANES 9 0 0 0 0
    SEL 0
    REC 0 5088 1 0 0 0 0 0
    VU 2
    TRACKHEIGHT 0 0 0 0 0 0 0
    INQ 0 0 0 0.5 100 0 0 100
    NCHAN 2
    FX 1
    TRACKID {044A0E7A-94BD-4D01-9E18-2C950C018C01}
    PERF 0
    MIDIOUT -1
    MAINSEND 1 0
    <FXCHAIN
      WNDRECT 24 52 700 560
      SHOW 0
      LASTSEL 0
      DOCKED 0
      BYPASS 0 0 0
      <JS "ReapNES Studio/ReapNES_Console.jsfx" ""
        2 15 1 10 80 10 100 2 1 15 1 5 60 10 80 1 1 0 50 0 0 15 1 0 100 0 0 0.500000 0.500000 0.400000 0.300000 0.800000 3 1 0 0 0 0 - - - - - - - - - - - - - - - - - - - - - - - - - -
      >
      FLOATPOS 0 0 0 0
      FXID {C7831346-312C-41E8-A473-DF2EB5A14C3F}
      WAK 0 0
    >
    <ITEM
      POSITION 0
      LENGTH 8.8491449
      LOOP 0
      ALLTAKES 0
      FADEIN 0 0 0 0 0 0 0
      FADEOUT 0 0 0 0 0 0 0
      MUTE 0 0
      SEL 0
      IGUID {4D421FCD-6646-49E1-9978-921AE822B965}
      <SOURCE MIDI
        HASDATA 1 480 QN
        CCINTERP 32
        E 0 93 2a 3b
        E 176 83 2a 00
        E 208 93 2a 3b
        E 176 83 2a 00
        E 16 93 2a 3b
        E 368 83 2a 00
        E 208 93 2a 3b
        E 176 83 2a 00
        E 208 93 2a 3b
        E 176 83 2a 00
        E 208 93 2a 3b
        E 176 83 2a 00
        E 208 93 2a 3b
        E 176 83 2a 00
        E 208 93 2a 3b
        E 176 83 2a 00
        E 208 93 2a 3b
        E 176 83 2a 00
        E 208 93 2a 3b
        E 176 83 2a 00
        E 208 93 2a 3b
        E 176 83 2a 00
        E 208 93 2a 3b
        E 176 83 2a 00
        E 208 93 2a 3b
        E 176 83 2a 00
        E 16 93 2a 3b
        E 176 83 2a 00
        E 16 93 2a 3b
        E 176 83 2a 00
        E 208 93 2a 3b
        E 176 83 2a 00
        E 208 93 2a 3b
        E 176 83 2a 00
        E 208 93 2a 3b
        E 176 83 2a 00
        E 208 93 2a 3b
        E 176 83 2a 00
        E 16 93 2a 3b
        E 176 83 2a 00
        E 16 93 2a 3b
        E 176 83 2a 00
        E 16 93 2a 3b
        E 176 83 2a 00
        E 16 93 2a 3b
        E 176 83 2a 00
        E 208 93 2a 3b
        E 176 83 2a 00
        E 16 93 2a 3b
        E 176 83 2a 00
        E 16 93 2a 3b
        E 176 83 2a 00
        E 208 93 2a 3b
        E 176 83 2a 00
        E 16 93 2a 3b
        E 176 83 2a 00
        E 208 93 2a 3b
        E 80 83 2a 00
        E 0 b3 7b 00
        E 0 ff 2f 00
      >
    >
  >
>