<REAPER_PROJECT 0.1 "7.27/win64" 1707000000
  <NOTES 0 2
    |ReapNES Studio Project
    |MIDI Import - Cliffhanger_title_rom_v1
  >
  RIPPLE 0
  GROUPOVERRIDE 0 0 0
  AUTOXFADE 129
  ENVATTACH 3
  POOLEDENVATTACH 0
  MIXERUIFLAGS 11 48
  ENVFADESZ10 40
  PEAKGAIN 1
  FEEDBACK 0
  PANLAW 1
  PROJOFFS 0 0 0
  MAXPROJLEN 0 0
  GRID 3199 8 1 8 1 0 0 0
  TIMEMODE 1 5 -1 30 0 0 -1
  VIDEO_CONFIG 0 0 65792
  PANMODE 3
  PANLAWFLAGS 3
  CURSOR 0
  ZOOM 100 0 0
  VZOOMEX 6 0
  USE_REC_CFG 0
  RECMODE 1
  SMPTESYNC 0 30 100 40 1000 300 0 0 1 0 0
  LOOP 0
  LOOPGRAN 0 4
  RECORD_PATH "Media" ""
  <RECORD_CFG
    ZXZhdxgAAQ==
  >
  <APPLYFX_CFG
  >
  RENDER_FILE ""
  RENDER_PATTERN ""
  RENDER_FMT 0 2 0
  RENDER_1X 0
  RENDER_RANGE 1 0 0 18 1000
  RENDER_RESAMPLE 3 0 1
  RENDER_ADDTOPROJ 0
  RENDER_STEMS 0
  RENDER_DITHER 0
  TIMELOCKMODE 1
  TEMPOENVLOCKMODE 1
  ITEMMIX 1
  DEFPITCHMODE 589824 0
  TAKELANE 1
  SAMPLERATE 44100 0 0
  <RENDER_CFG
    ZXZhdxgAAQ==
  >
  LOCK 1
  <METRONOME 6 2
    VOL 0.25 0.125
    BEATLEN 4
    FREQ 1760 880 1
    SAMPLES "" ""
    SPLIGNORE 0 0
    SPLDEF 2 660 "" 0
    SPLDEF 3 440 "" 0
    PATTERN 0 169
    PATTERNSTR ABBB
    MULT 1
  >
  GLOBAL_AUTO -1
  TEMPO 128.59999614200012 4 4
  PLAYRATE 1 0 0.25 4
  SELECTION 0 0
  SELECTION2 0 0
  MASTERAUTOMODE 0
  MASTERTRACKHEIGHT 0 0
  MASTERPEAKCOL 16576
  MASTERMUTESOLO 0
  MASTERTRACKVIEW 0 0.6667 0.5 0.5 0 0 0 0 0 0 0 0 0 0
  MASTERHWOUT 0 0 1 0 0 0 0 -1
  MASTER_NCH 2 2
  MASTER_VOLUME 1 0 -1 -1 1
  MASTER_PANMODE 3
  MASTER_PANLAWFLAGS 3
  MASTER_FX 1
  MASTER_SEL 0
  <MASTERPLAYSPEEDENV
    EGUID {E038F648-CF11-4D0E-9F75-806B28EFA994}
    ACT 0 -1
    VIS 0 1 1
    LANEHEIGHT 0 0
    ARM 0
    DEFSHAPE 0 -1 -1
  >
  <TEMPOENVEX
    EGUID {9388838F-DBD4-4E97-A646-085EDF842BA4}
    ACT 1 -1
    VIS 1 0 1
    LANEHEIGHT 0 0
    ARM 0
    DEFSHAPE 1 -1 -1
  >
  <PROJBAY
  >
  <TRACK {6A6025DA-8ACD-4162-8BC0-7D380167AAC9}
    NAME "NES - Pulse 1 [ch0]"
    PEAKCOL 16576606
    BEAT -1
    AUTOMODE 0
    PANLAWFLAGS 3
    VOLPAN 1 0 -1 -1 1
    MUTESOLO 0 0 0
    IPHASE 0
    PLAYOFFS 0 1
    ISBUS 0 0
    BUSCOMP 0 0 0 0 0
    SHOWINMIX 1 0.6667 0.5 1 0.5 0 0 0
    FIXEDLANES 9 0 0 0 0
    SEL 1
    REC 1 5088 1 0 0 0 0 0
    VU 2
    TRACKHEIGHT 0 0 0 0 0 0 0
    INQ 0 0 0 0.5 100 0 0 100
    NCHAN 2
    FX 1
    TRACKID {6A6025DA-8ACD-4162-8BC0-7D380167AAC9}
    PERF 0
    MIDIOUT -1
    MAINSEND 1 0
    <FXCHAIN
      WNDRECT 24 52 700 560
      SHOW 0
      LASTSEL 0
      DOCKED 0
      BYPASS 0 0 0
      <JS "ReapNES Studio/ReapNES_Console.jsfx" ""
        2 15 1 10 80 10 100 2 1 15 1 5 60 10 80 1 1 0 50 0 0 15 1 0 100 0 0 0.500000 0.500000 0.400000 0.300000 0.800000 0 1 0 0 0 0 - - - - - - - - - - - - - - - - - - - - - - - - - -
      >
      FLOATPOS 0 0 0 0
      FXID {655036D0-ABD2-4591-A480-63C9C27EBA14}
      WAK 0 0
    >
    <ITEM
      POSITION 0
      LENGTH 6.391913100000001
      LOOP 0
      ALLTAKES 0
      FADEIN 0 0 0 0 0 0 0
      FADEOUT 0 0 0 0 0 0 0
      MUTE 0 0
      SEL 0
      IGUID {CCE3561A-4C63-44A8-8CDA-0F58E458DA1C}
      <SOURCE MIDI
        HASDATA 1 480 QN
        CCINTERP 32
        E 0 c0 50
        E 32 b0 0c 60
        E 0 b0 0b 22
        E 0 90 3d 22
        E 32 80 3d 00
        E 0 90 49 22
        E 48 80 49 00
        E 0 90 3d 22
        E 32 80 3d 00
        E 0 90 49 22
        E 48 80 49 00
        E 0 90 3d 22
        E 48 80 3d 00
        E 0 90 49 22
        E 48 80 49 00
        E 0 90 3d 22
        E 32 80 3d 00
        E 0 90 49 22
        E 32 80 49 00
        E 0 90 3d 22
        E 48 80 3d 00
        E 0 90 49 22
        E 32 80 49 00
        E 0 90 3d 22
        E 64 80 3d 00
        E 0 90 49 22
        E 32 80 49 00
        E 0 90 3d 22
        E 48 80 3d 00
        E 0 90 49 22
        E 32 b0 0b 2a
        E 0 80 49 00
        E 0 90 3d 2a
        E 16 b0 0b 22
        E 16 80 3d 00
        E 0 90 3b 22
        E 48 80 3b 00
        E 0 90 47 22
        E 32 80 47 00
        E 0 90 3b 22
        E 48 80 3b 00
        E 0 90 47 22
        E 32 80 47 00
        E 0 90 3b 22
        E 64 80 3b 00
        E 0 90 47 22
        E 32 80 47 00
        E 0 90 3b 22
        E 32 80 3b 00
        E 0 90 47 22
        E 48 80 47 00
        E 0 90 3b 22
        E 32 80 3b 00
        E 0 90 47 22
        E 32 80 47 00
        E 0 90 3b 22
        E 32 b0 0b 2a
        E 0 80 3b 00
        E 0 90 47 2a
        E 16 b0 0b 22
        E 16 80 47 00
        E 0 90 3d 22
        E 32 80 3d 00
        E 0 90 49 22
        E 48 80 49 00
        E 0 90 3d 22
        E 32 b0 0b 2a
        E 0 80 3d 00
        E 0 90 33 2a
        E 16 b0 0b 22
        E 32 80 33 00
        E 0 90 4c 22
        E 32 80 4c 00
        E 0 90 30 22
        E 32 80 30 00
        E 0 90 4c 22
        E 48 80 4c 00
        E 0 90 30 22
        E 32 80 30 00
        E 0 90 4c 22
        E 64 80 4c 00
        E 0 90 30 22
        E 32 80 30 00
        E 0 90 4c 22
        E 48 80 4c 00
        E 0 90 30 22
        E 32 80 30 00
        E 0 90 4c 22
        E 32 80 4c 00
        E 0 90 30 22
        E 48 80 30 00
        E 0 90 4c 22
        E 48 80 4c 00
        E 0 90 30 22
        E 48 80 30 00
        E 0 90 4c 22
        E 32 80 4c 00
        E 0 90 30 22
        E 48 b0 0b 2a
        E 0 80 30 00
        E 0 90 4c 2a
        E 16 b0 0b 22
        E 16 80 4c 00
        E 0 90 39 22
        E 32 80 39 00
        E 0 90 45 22
        E 48 80 45 00
        E 0 90 39 22
        E 32 80 39 00
        E 0 90 45 22
        E 32 80 45 00
        E 0 90 39 22
        E 64 80 39 00
        E 0 90 45 22
        E 32 80 45 00
        E 0 90 39 22
        E 32 b0 0b 2a
        E 0 80 39 00
        E 0 90 45 2a
        E 16 b0 0b 22
        E 16 80 45 00
        E 0 90 3d 22
        E 32 80 3d 00
        E 0 90 49 22
        E 48 80 49 00
        E 0 90 3d 22
        E 32 80 3d 00
        E 0 90 49 22
        E 48 80 49 00
        E 0 90 3d 22
        E 48 80 3d 00
        E 0 90 49 22
        E 48 80 49 00
        E 0 90 3d 22
        E 16 b0 0b 2a
        E 0 80 3d 00
        E 0 90 49 2a
        E 16 b0 0b 22
        E 16 80 49 00
        E 0 90 42 22
        E 48 80 42 00
        E 0 90 4e 22
        E 32 80 4e 00
        E 0 90 42 22
        E 32 80 42 00
        E 0 90 4e 22
        E 48 80 4e 00
        E 0 90 42 22
        E 48 80 42 00
        E 0 90 4e 22
        E 48 80 4e 00
        E 0 90 42 22
        E 16 b0 0b 2a
        E 0 80 42 00
        E 0 90 4e 2a
        E 16 b0 0b 22
        E 16 80 4e 00
        E 0 90 40 22
        E 48 80 40 00
        E 0 90 4c 22
        E 32 80 4c 00
        E 0 90 40 22
        E 48 80 40 00
        E 0 90 4c 22
        E 32 80 4c 00
        E 0 90 40 22
        E 64 80 40 00
        E 0 90 4c 22
        E 32 80 4c 00
        E 0 90 40 22
        E 16 b0 0b 2a
        E 0 80 40 00
        E 0 90 4c 2a
        E 16 b0 0b 22
        E 16 80 4c 00
        E 0 90 3b 22
        E 48 80 3b 00
        E 0 90 47 22
        E 32 80 47 00
        E 0 90 3b 22
        E 48 80 3b 00
        E 0 90 47 22
        E 32 80 47 00
        E 0 90 3b 22
        E 64 80 3b 00
        E 0 90 47 22
        E 32 80 47 00
        E 0 90 3b 22
        E 16 b0 0b 2a
        E 0 80 3b 00
        E 0 90 47 2a
        E 16 b0 0b 22
        E 32 80 47 00
        E 0 90 3d 22
        E 32 80 3d 00
        E 0 90 49 22
        E 32 80 49 00
        E 0 90 3d 22
        E 48 80 3d 00
        E 0 90 49 22
        E 32 80 49 00
        E 0 90 3d 22
        E 64 80 3d 00
        E 0 90 49 22
        E 32 80 49 00
        E 0 90 3d 22
        E 16 b0 0b 2a
        E 0 80 3d 00
        E 0 90 49 2a
        E 32 b0 0b 22
        E 16 80 49 00
        E 0 90 3e 22
        E 32 80 3e 00
        E 0 90 4a 22
        E 48 80 4a 00
        E 0 90 3e 22
        E 32 80 3e 00
        E 0 90 4a 22
        E 32 80 4a 00
        E 0 90 3e 22
        E 64 80 3e 00
        E 0 90 4a 22
        E 32 80 4a 00
        E 0 90 3e 22
        E 48 80 3e 00
        E 0 90 4a 22
        E 32 80 4a 00
        E 0 90 3e 22
        E 32 80 3e 00
        E 0 90 4a 22
        E 48 80 4a 00
        E 0 90 3e 22
        E 48 80 3e 00
        E 0 90 4a 22
        E 48 80 4a 00
        E 0 90 3e 22
        E 32 80 3e 00
        E 0 90 4a 22
        E 48 80 4a 00
        E 0 90 3e 22
        E 32 80 3e 00
        E 0 90 4a 22
        E 32 80 4a 00
        E 0 90 3e 22
        E 80 80 3e 00
        E 288 90 4a 22
        E 32 80 4a 00
        E 0 90 56 22
        E 48 80 56 00
        E 0 90 4a 22
        E 32 80 4a 00
        E 0 90 56 22
        E 48 80 56 00
        E 0 90 4a 22
        E 48 80 4a 00
        E 0 90 56 22
        E 48 80 56 00
        E 0 90 4a 22
        E 32 80 4a 00
        E 0 90 56 22
        E 32 80 56 00
        E 0 90 4a 22
        E 48 80 4a 00
        E 0 90 56 22
        E 32 80 56 00
        E 0 90 4a 22
        E 64 80 4a 00
        E 0 90 56 22
        E 32 80 56 00
        E 0 90 4a 22
        E 48 80 4a 00
        E 0 90 56 22
        E 32 b0 0b 2a
        E 0 80 56 00
        E 0 90 4a 2a
        E 16 b0 0b 22
        E 16 80 4a 00
        E 0 90 3e 22
        E 48 80 3e 00
        E 0 90 4a 22
        E 32 80 4a 00
        E 0 90 3e 22
        E 48 80 3e 00
        E 0 90 4a 22
        E 32 80 4a 00
        E 0 90 3e 22
        E 80 b0 0b 19
        E 0 80 3e 00
        E 0 90 4a 19
        E 16 80 4a 00
        E 0 90 3b 19
        E 16 80 3b 00
        E 0 90 3e 19
        E 16 80 3e 00
        E 0 90 41 19
        E 16 80 41 00
        E 0 90 3b 19
        E 32 80 3b 00
        E 0 90 3e 19
        E 32 80 3e 00
        E 0 90 41 19
        E 16 80 41 00
        E 0 90 3b 19
        E 16 80 3b 00
        E 0 90 3e 19
        E 32 b0 0b 22
        E 0 80 3e 00
        E 0 90 41 22
        E 16 80 41 00
        E 0 90 3b 22
        E 16 80 3b 00
        E 0 90 3e 22
        E 32 80 3e 00
        E 0 90 41 22
        E 32 80 41 00
        E 0 90 3b 22
        E 16 80 3b 00
        E 0 90 3e 22
        E 16 80 3e 00
        E 0 90 41 22
        E 16 80 41 00
        E 0 90 3b 22
        E 16 80 3b 00
        E 0 90 3e 22
        E 32 b0 0b 2a
        E 16 80 3e 00
        E 0 90 41 2a
        E 16 80 41 00
        E 0 90 3b 2a
        E 16 80 3b 00
        E 0 90 3e 2a
        E 16 80 3e 00
        E 0 90 41 2a
        E 32 80 41 00
        E 0 90 3b 2a
        E 16 80 3b 00
        E 0 90 3e 2a
        E 32 80 3e 00
        E 0 90 41 2a
        E 16 80 41 00
        E 0 90 3b 2a
        E 32 80 3b 00
        E 0 90 3e 2a
        E 16 80 3e 00
        E 0 90 41 2a
        E 16 80 41 00
        E 0 90 3b 2a
        E 16 80 3b 00
        E 0 90 3e 2a
        E 48 80 3e 00
        E 0 90 41 2a
        E 16 80 41 00
        E 0 90 3b 2a
        E 16 80 3b 00
        E 0 90 3e 2a
        E 16 80 3e 00
        E 0 90 41 2a
        E 16 80 41 00
        E 0 90 3b 2a
        E 32 b0 0b 22
        E 0 80 3b 00
        E 0 90 3e 22
        E 32 80 3e 00
        E 0 90 41 22
        E 16 80 41 00
        E 0 90 3b 22
        E 16 80 3b 00
        E 0 90 3e 22
        E 32 80 3e 00
        E 0 90 41 22
        E 16 80 41 00
        E 0 90 3b 22
        E 16 80 3b 00
        E 0 90 3e 22
        E 32 80 3e 00
        E 0 90 41 22
        E 32 80 41 00
        E 0 90 3b 22
        E 16 80 3b 00
        E 0 90 3e 22
        E 16 80 3e 00
        E 0 90 41 22
        E 16 80 41 00
        E 0 b0 7b 00
        E 0 ff 2f 00
      >
    >
  >
  <TRACK {0D8DD393-E495-4D35-9F2C-9EC038F6CE0E}
    NAME "NES - Pulse 2 [ch1]"
    PEAKCOL 10092441
    BEAT -1
    AUTOMODE 0
    PANLAWFLAGS 3
    VOLPAN 1 0 -1 -1 1
    MUTESOLO 0 0 0
    IPHASE 0
    PLAYOFFS 0 1
    ISBUS 0 0
    BUSCOMP 0 0 0 0 0
    SHOWINMIX 1 0.6667 0.5 1 0.5 0 0 0
    FIXEDLANES 9 0 0 0 0
    SEL 0
    REC 0 5088 1 0 0 0 0 0
    VU 2
    TRACKHEIGHT 0 0 0 0 0 0 0
    INQ 0 0 0 0.5 100 0 0 100
    NCHAN 2
    FX 1
    TRACKID {0D8DD393-E495-4D35-9F2C-9EC038F6CE0E}
    PERF 0
    MIDIOUT -1
    MAINSEND 1 0
    <FXCHAIN
      WNDRECT 24 52 700 560
      SHOW 0
      LASTSEL 0
      DOCKED 0
      BYPASS 0 0 0
      <JS "ReapNES Studio/ReapNES_Console.jsfx" ""
        2 15 1 10 80 10 100 2 1 15 1 5 60 10 80 1 1 0 50 0 0 15 1 0 100 0 0 0.500000 0.500000 0.400000 0.300000 0.800000 1 1 0 0 0 0 - - - - - - - - - - - - - - - - - - - - - - - - - -
      >
      FLOATPOS 0 0 0 0
      FXID {38C98652-FD12-4E39-BA43-9A69728D3367}
      WAK 0 0
    >
    <ITEM
      POSITION 0
      LENGTH 6.391913100000001
      LOOP 0
      ALLTAKES 0
      FADEIN 0 0 0 0 0 0 0
      FADEOUT 0 0 0 0 0 0 0
      MUTE 0 0
      SEL 0
      IGUID {ADC5409C-65D2-4B76-BCE9-923EC2B2E706}
      <SOURCE MIDI
        HASDATA 1 480 QN
        CCINTERP 32
        E 0 c1 51
        E 0 b1 0c 60
        E 0 b1 0b 2a
        E 0 91 39 2a
        E 16 b1 0b 22
        E 48 81 39 00
        E 0 91 2d 22
        E 48 81 2d 00
        E 0 91 39 22
        E 32 81 39 00
        E 0 91 2d 22
        E 48 81 2d 00
        E 0 91 39 22
        E 48 81 39 00
        E 0 91 2d 22
        E 48 81 2d 00
        E 0 91 39 22
        E 32 81 39 00
        E 0 91 2d 22
        E 32 81 2d 00
        E 0 91 39 22
        E 48 81 39 00
        E 0 91 2d 22
        E 32 81 2d 00
        E 0 91 39 22
        E 64 81 39 00
        E 0 91 2d 22
        E 32 81 2d 00
        E 0 91 39 22
        E 48 81 39 00
        E 0 91 2d 22
        E 32 81 2d 00
        E 0 91 39 22
        E 32 81 39 00
        E 0 91 2d 22
        E 48 81 2d 00
        E 0 91 39 22
        E 48 81 39 00
        E 0 91 2d 22
        E 48 81 2d 00
        E 0 91 39 22
        E 32 81 39 00
        E 0 91 2d 22
        E 48 81 2d 00
        E 0 91 39 22
        E 32 81 39 00
        E 0 91 2d 22
        E 32 81 2d 00
        E 0 91 39 22
        E 64 81 39 00
        E 0 91 2d 22
        E 32 81 2d 00
        E 0 91 39 22
        E 48 81 39 00
        E 0 91 2d 22
        E 32 81 2d 00
        E 0 91 39 22
        E 32 81 39 00
        E 0 91 2d 22
        E 48 81 2d 00
        E 0 91 39 22
        E 48 81 39 00
        E 0 91 2d 22
        E 32 b1 0b 19
        E 16 81 2d 00
        E 0 91 39 19
        E 32 81 39 00
        E 0 91 2d 19
        E 48 81 2d 00
        E 0 91 39 19
        E 32 81 39 00
        E 0 91 2d 19
        E 32 81 2d 00
        E 0 91 39 19
        E 64 81 39 00
        E 0 91 2d 19
        E 32 81 2d 00
        E 0 91 39 19
        E 48 81 39 00
        E 0 91 2d 19
        E 32 81 2d 00
        E 0 91 39 19
        E 48 81 39 00
        E 0 91 2d 19
        E 32 81 2d 00
        E 0 91 39 19
        E 64 81 39 00
        E 0 91 2d 19
        E 32 81 2d 00
        E 0 91 39 19
        E 32 81 39 00
        E 0 91 2d 19
        E 48 81 2d 00
        E 0 91 39 19
        E 32 81 39 00
        E 0 91 2d 19
        E 48 81 2d 00
        E 0 91 39 19
        E 48 81 39 00
        E 0 91 2d 19
        E 32 81 2d 00
        E 0 91 39 19
        E 48 81 39 00
        E 0 91 2d 19
        E 32 81 2d 00
        E 0 91 39 19
        E 16 b1 0b 11
        E 32 81 39 00
        E 0 91 2d 11
        E 32 81 2d 00
        E 0 91 39 11
        E 64 81 39 00
        E 0 91 2d 11
        E 32 81 2d 00
        E 0 91 39 11
        E 32 81 39 00
        E 0 91 2d 11
        E 48 81 2d 00
        E 0 91 39 11
        E 32 81 39 00
        E 0 91 2d 11
        E 48 81 2d 00
        E 0 91 39 11
        E 16 b1 0b 2a
        E 0 81 39 00
        E 0 91 26 2a
        E 16 b1 0b 22
        E 16 81 26 00
        E 0 91 37 22
        E 48 81 37 00
        E 0 91 2c 22
        E 32 81 2c 00
        E 0 91 37 22
        E 32 81 37 00
        E 0 91 2c 22
        E 48 81 2c 00
        E 0 91 37 22
        E 48 81 37 00
        E 0 91 2c 22
        E 48 81 2c 00
        E 0 91 37 22
        E 32 81 37 00
        E 0 91 2c 22
        E 48 81 2c 00
        E 0 91 37 22
        E 32 81 37 00
        E 0 91 2c 22
        E 32 81 2c 00
        E 0 91 37 22
        E 64 81 37 00
        E 0 91 2c 22
        E 32 81 2c 00
        E 0 91 37 22
        E 48 81 37 00
        E 0 91 2c 22
        E 32 81 2c 00
        E 0 91 37 22
        E 32 81 37 00
        E 0 91 2c 22
        E 48 81 2c 00
        E 0 91 37 22
        E 48 81 37 00
        E 0 91 2c 22
        E 48 81 2c 00
        E 0 91 37 22
        E 32 81 37 00
        E 0 91 2c 22
        E 48 81 2c 00
        E 0 91 37 22
        E 32 81 37 00
        E 0 91 2c 22
        E 32 81 2c 00
        E 0 91 37 22
        E 64 81 37 00
        E 0 91 2c 22
        E 32 81 2c 00
        E 0 91 37 22
        E 48 81 37 00
        E 0 91 2c 22
        E 32 81 2c 00
        E 0 91 37 22
        E 48 81 37 00
        E 0 91 2c 22
        E 32 81 2c 00
        E 0 91 37 22
        E 32 b1 0b 2a
        E 0 81 37 00
        E 0 91 2c 2a
        E 32 b1 0b 22
        E 16 81 2c 00
        E 0 91 34 22
        E 32 81 34 00
        E 0 91 2b 22
        E 48 81 2b 00
        E 0 91 34 22
        E 32 81 34 00
        E 0 91 2b 22
        E 32 81 2b 00
        E 0 91 34 22
        E 64 81 34 00
        E 0 91 2b 22
        E 32 81 2b 00
        E 0 91 34 22
        E 48 81 34 00
        E 0 91 2b 22
        E 32 81 2b 00
        E 0 91 34 22
        E 32 81 34 00
        E 0 91 2b 22
        E 48 81 2b 00
        E 0 91 34 22
        E 48 81 34 00
        E 0 91 2b 22
        E 48 81 2b 00
        E 0 91 34 22
        E 32 81 34 00
        E 0 91 2b 22
        E 48 81 2b 00
        E 0 91 34 22
        E 32 81 34 00
        E 0 91 2b 22
        E 32 81 2b 00
        E 0 91 34 22
        E 80 81 34 00
        E 288 91 41 22
        E 32 81 41 00
        E 0 91 44 22
        E 48 81 44 00
        E 0 91 47 22
        E 32 81 47 00
        E 0 91 41 22
        E 48 81 41 00
        E 0 91 44 22
        E 48 81 44 00
        E 0 91 47 22
        E 48 81 47 00
        E 0 91 41 22
        E 32 81 41 00
        E 0 91 44 22
        E 32 81 44 00
        E 0 91 47 22
        E 48 81 47 00
        E 0 91 41 22
        E 32 81 41 00
        E 0 91 44 22
        E 64 81 44 00
        E 0 91 47 22
        E 32 81 47 00
        E 0 91 41 22
        E 48 81 41 00
        E 0 91 44 22
        E 32 81 44 00
        E 0 91 47 22
        E 32 81 47 00
        E 0 91 41 22
        E 48 81 41 00
        E 0 91 44 22
        E 48 81 44 00
        E 0 91 47 22
        E 48 81 47 00
        E 0 91 41 22
        E 32 81 41 00
        E 0 91 44 22
        E 64 b1 0b 2a
        E 0 81 44 00
        E 0 91 33 2a
        E 16 b1 0b 22
        E 16 81 33 00
        E 0 91 3d 22
        E 32 81 3d 00
        E 0 91 2e 22
        E 48 81 2e 00
        E 0 91 3d 22
        E 32 81 3d 00
        E 0 91 2e 22
        E 48 81 2e 00
        E 0 91 3d 22
        E 48 81 3d 00
        E 0 91 2e 22
        E 48 81 2e 00
        E 0 91 3d 22
        E 32 81 3d 00
        E 0 91 2e 22
        E 32 81 2e 00
        E 0 91 3d 22
        E 48 81 3d 00
        E 0 91 2e 22
        E 32 81 2e 00
        E 0 91 3d 22
        E 16 b1 0b 2a
        E 0 81 3d 00
        E 0 91 2e 2a
        E 32 b1 0b 22
        E 16 81 2e 00
        E 0 91 40 22
        E 32 81 40 00
        E 0 91 2e 22
        E 48 81 2e 00
        E 0 91 40 22
        E 32 b1 0b 2a
        E 0 81 40 00
        E 0 91 2e 2a
        E 16 b1 0b 22
        E 16 81 2e 00
        E 0 91 3d 22
        E 48 81 3d 00
        E 0 91 2e 22
        E 32 81 2e 00
        E 0 91 3d 22
        E 48 81 3d 00
        E 0 91 2e 22
        E 32 81 2e 00
        E 0 91 3d 22
        E 64 81 3d 00
        E 0 91 2e 22
        E 32 81 2e 00
        E 0 91 3d 22
        E 32 81 3d 00
        E 0 91 2e 22
        E 48 81 2e 00
        E 0 91 3d 22
        E 32 81 3d 00
        E 0 b1 7b 00
        E 0 ff 2f 00
      >
    >
  >
  <TRACK {38BF136B-DAA0-4FC4-BBD1-04AF49E28B47}
    NAME "NES - Triangle [ch2]"
    PEAKCOL 16744192
    BEAT -1
    AUTOMODE 0
    PANLAWFLAGS 3
    VOLPAN 1 0 -1 -1 1
    MUTESOLO 0 0 0
    IPHASE 0
    PLAYOFFS 0 1
    ISBUS 0 0
    BUSCOMP 0 0 0 0 0
    SHOWINMIX 1 0.6667 0.5 1 0.5 0 0 0
    FIXEDLANES 9 0 0 0 0
    SEL 0
    REC 0 5088 1 0 0 0 0 0
    VU 2
    TRACKHEIGHT 0 0 0 0 0 0 0
    INQ 0 0 0 0.5 100 0 0 100
    NCHAN 2
    FX 1
    TRACKID {38BF136B-DAA0-4FC4-BBD1-04AF49E28B47}
    PERF 0
    MIDIOUT -1
    MAINSEND 1 0
    <FXCHAIN
      WNDRECT 24 52 700 560
      SHOW 0
      LASTSEL 0
      DOCKED 0
      BYPASS 0 0 0
      <JS "ReapNES Studio/ReapNES_Console.jsfx" ""
        2 15 1 10 80 10 100 2 1 15 1 5 60 10 80 1 1 0 50 0 0 15 1 0 100 0 0 0.500000 0.500000 0.400000 0.300000 0.800000 2 1 0 0 0 0 - - - - - - - - - - - - - - - - - - - - - - - - - -
      >
      FLOATPOS 0 0 0 0
      FXID {656EFF96-85A9-446C-BC4E-297FD69BF6BD}
      WAK 0 0
    >
    <ITEM
      POSITION 0
      LENGTH 6.391913100000001
      LOOP 0
      ALLTAKES 0
      FADEIN 0 0 0 0 0 0 0
      FADEOUT 0 0 0 0 0 0 0
      MUTE 0 0
      SEL 0
      IGUID {FB78B3CC-21AC-4119-93DF-992B995D46C4}
      <SOURCE MIDI
        HASDATA 1 480 QN
        CCINTERP 32
        E 0 c2 26
        E 624 b2 0b 7f
        E 0 92 2d 7f
        E 608 82 2d 00
        E 0 b2 0b 7f
        E 0 92 21 7f
        E 1840 82 21 00
        E 0 b2 0b 7f
        E 0 92 1a 7f
        E 1232 82 1a 00
        E 0 b2 0b 7f
        E 0 92 20 7f
        E 160 82 20 00
        E 1120 b2 0b 7f
        E 0 92 2d 7f
        E 464 82 2d 00
        E 0 b2 0b 7f
        E 0 92 23 7f
        E 144 82 23 00
        E 0 b2 0b 7f
        E 0 92 24 7f
        E 384 82 24 00
        E 0 b2 7b 00
        E 0 ff 2f 00
      >
    >
  >
  <TRACK {8C908B4B-29E5-4E06-8D2B-0A6B1858CAE4}
    NAME "NES - Noise / Drums [ch3]"
    PEAKCOL 11184810
    BEAT -1
    AUTOMODE 0
    PANLAWFLAGS 3
    VOLPAN 1 0 -1 -1 1
    MUTESOLO 0 0 0
    IPHASE 0
    PLAYOFFS 0 1
    ISBUS 0 0
    BUSCOMP 0 0 0 0 0
    SHOWINMIX 1 0.6667 0.5 1 0.5 0 0 0
    FIXEDLANES 9 0 0 0 0
    SEL 0
    REC 0 5088 1 0 0 0 0 0
    VU 2
    TRACKHEIGHT 0 0 0 0 0 0 0
    INQ 0 0 0 0.5 100 0 0 100
    NCHAN 2
    FX 1
    TRACKID {8C908B4B-29E5-4E06-8D2B-0A6B1858CAE4}
    PERF 0
    MIDIOUT -1
    MAINSEND 1 0
    <FXCHAIN
      WNDRECT 24 52 700 560
      SHOW 0
      LASTSEL 0
      DOCKED 0
      BYPASS 0 0 0
      <JS "ReapNES Studio/ReapNES_Console.jsfx" ""
        2 15 1 10 80 10 100 2 1 15 1 5 60 10 80 1 1 0 50 0 0 15 1 0 100 0 0 0.500000 0.500000 0.400000 0.300000 0.800000 3 1 0 0 0 0 - - - - - - - - - - - - - - - - - - - - - - - - - -
      >
      FLOATPOS 0 0 0 0
      FXID {D9F424CF-98A7-427F-B15B-5F15B1BF86DE}
      WAK 0 0
    >
    <ITEM
      POSITION 0
      LENGTH 6.391913100000001
      LOOP 0
      ALLTAKES 0
      FADEIN 0 0 0 0 0 0 0
      FADEOUT 0 0 0 0 0 0 0
      MUTE 0 0
      SEL 0
      IGUID {96BBF5FD-C0BC-4EC1-8B53-EAC993BF1095}
      <SOURCE MIDI
        HASDATA 1 480 QN
        CCINTERP 32
        E 16 93 2a 22
        E 32 83 2a 00
        E 0 93 2a 22
        E 48 83 2a 00
        E 0 93 2a 19
        E 32 83 2a 00
        E 0 93 2a 19
        E 32 83 2a 00
        E 0 93 2a 19
        E 464 83 2a 00
        E 336 93 2a 08
        E 448 83 2a 00
        E 1056 93 2a 22
        E 32 83 2a 00
        E 0 93 2a 22
        E 48 83 2a 00
        E 0 93 2a 19
        E 32 83 2a 00
        E 0 93 2a 19
        E 48 83 2a 00
        E 0 93 2a 19
        E 448 83 2a 00
        E 336 93 2a 08
        E 288 83 2a 00
        E 0 93 2a 22
        E 32 83 2a 00
        E 0 93 2a 22
        E 32 83 2a 00
        E 0 93 2a 19
        E 48 83 2a 00
        E 0 93 2a 19
        E 32 83 2a 00
        E 0 93 2a 19
        E 464 83 2a 00
        E 2272 b3 7b 00
        E 0 ff 2f 00
      >
    >
  >
>