<REAPER_PROJECT 0.1 "7.27/win64" 1707000000
  <NOTES 0 2
    |ReapNES Studio Project
    |MIDI Import - Mega_Man_3_title_rom_v1
  >
  RIPPLE 0
  GROUPOVERRIDE 0 0 0
  AUTOXFADE 129
  ENVATTACH 3
  POOLEDENVATTACH 0
  MIXERUIFLAGS 11 48
  ENVFADESZ10 40
  PEAKGAIN 1
  FEEDBACK 0
  PANLAW 1
  PROJOFFS 0 0 0
  MAXPROJLEN 0 0
  GRID 3199 8 1 8 1 0 0 0
  TIMEMODE 1 5 -1 30 0 0 -1
  VIDEO_CONFIG 0 0 65792
  PANMODE 3
  PANLAWFLAGS 3
  CURSOR 0
  ZOOM 100 0 0
  VZOOMEX 6 0
  USE_REC_CFG 0
  RECMODE 1
  SMPTESYNC 0 30 100 40 1000 300 0 0 1 0 0
  LOOP 0
  LOOPGRAN 0 4
  RECORD_PATH "Media" ""
  <RECORD_CFG
    ZXZhdxgAAQ==
  >
  <APPLYFX_CFG
  >
  RENDER_FILE ""
  RENDER_PATTERN ""
  RENDER_FMT 0 2 0
  RENDER_1X 0
  RENDER_RANGE 1 0 0 18 1000
  RENDER_RESAMPLE 3 0 1
  RENDER_ADDTOPROJ 0
  RENDER_STEMS 0
  RENDER_DITHER 0
  TIMELOCKMODE 1
  TEMPOENVLOCKMODE 1
  ITEMMIX 1
  DEFPITCHMODE 589824 0
  TAKELANE 1
  SAMPLERATE 44100 0 0
  <RENDER_CFG
    ZXZhdxgAAQ==
  >
  LOCK 1
  <METRONOME 6 2
    VOL 0.25 0.125
    BEATLEN 4
    FREQ 1760 880 1
    SAMPLES "" ""
    SPLIGNORE 0 0
    SPLDEF 2 660 "" 0
    SPLDEF 3 440 "" 0
    PATTERN 0 169
    PATTERNSTR ABBB
    MULT 1
  >
  GLOBAL_AUTO -1
  TEMPO 128.59999614200012 4 4
  PLAYRATE 1 0 0.25 4
  SELECTION 0 0
  SELECTION2 0 0
  MASTERAUTOMODE 0
  MASTERTRACKHEIGHT 0 0
  MASTERPEAKCOL 16576
  MASTERMUTESOLO 0
  MASTERTRACKVIEW 0 0.6667 0.5 0.5 0 0 0 0 0 0 0 0 0 0
  MASTERHWOUT 0 0 1 0 0 0 0 -1
  MASTER_NCH 2 2
  MASTER_VOLUME 1 0 -1 -1 1
  MASTER_PANMODE 3
  MASTER_PANLAWFLAGS 3
  MASTER_FX 1
  MASTER_SEL 0
  <MASTERPLAYSPEEDENV
    EGUID {AE32033F-35B0-40D6-8C49-9FC0B1A27E7A}
    ACT 0 -1
    VIS 0 1 1
    LANEHEIGHT 0 0
    ARM 0
    DEFSHAPE 0 -1 -1
  >
  <TEMPOENVEX
    EGUID {7DBAF8E4-0E6A-46C4-A701-4679FE6EFB40}
    ACT 1 -1
    VIS 1 0 1
    LANEHEIGHT 0 0
    ARM 0
    DEFSHAPE 1 -1 -1
  >
  <PROJBAY
  >
  <TRACK {4BC99892-8B79-4ABD-9E16-6ABE9254F735}
    NAME "NES - Pulse 1 [ch0]"
    PEAKCOL 16576606
    BEAT -1
    AUTOMODE 0
    PANLAWFLAGS 3
    VOLPAN 1 0 -1 -1 1
    MUTESOLO 0 0 0
    IPHASE 0
    PLAYOFFS 0 1
    ISBUS 0 0
    BUSCOMP 0 0 0 0 0
    SHOWINMIX 1 0.6667 0.5 1 0.5 0 0 0
    FIXEDLANES 9 0 0 0 0
    SEL 1
    REC 1 5088 1 0 0 0 0 0
    VU 2
    TRACKHEIGHT 0 0 0 0 0 0 0
    INQ 0 0 0 0.5 100 0 0 100
    NCHAN 2
    FX 1
    TRACKID {4BC99892-8B79-4ABD-9E16-6ABE9254F735}
    PERF 0
    MIDIOUT -1
    MAINSEND 1 0
    <FXCHAIN
      WNDRECT 24 52 700 560
      SHOW 0
      LASTSEL 0
      DOCKED 0
      BYPASS 0 0 0
      <JS "ReapNES Studio/ReapNES_Console.jsfx" ""
        3 15 1 0 300 12 50 3 1 15 1 5 60 10 80 1 1 0 50 0 0 15 1 0 100 0 0 0.500000 0.500000 0.400000 0.300000 0.800000 0 1 0 0 0 0 - - - - - - - - - - - - - - - - - - - - - - - - - -
      >
      FLOATPOS 0 0 0 0
      FXID {3F628971-FD12-4ADB-A6F1-A54627949CBC}
      WAK 0 0
    >
    <ITEM
      POSITION 0
      LENGTH 74.55676740000001
      LOOP 0
      ALLTAKES 0
      FADEIN 0 0 0 0 0 0 0
      FADEOUT 0 0 0 0 0 0 0
      MUTE 0 0
      SEL 0
      IGUID {04C5C780-EF65-4AE1-8270-BF29CA785DE4}
      <SOURCE MIDI
        HASDATA 1 480 QN
        CCINTERP 32
        E 0 c0 50
        E 0 b0 0c 20
        E 0 b0 0b 6e
        E 0 90 39 6e
        E 16 b0 0b 55
        E 16 b0 0b 44
        E 96 b0 0b 3b
        E 48 b0 0b 6e
        E 0 80 39 00
        E 0 90 3b 6e
        E 16 b0 0b 55
        E 16 b0 0b 44
        E 112 b0 0b 3b
        E 48 b0 0b 6e
        E 16 b0 0b 66
        E 16 b0 0b 6e
        E 0 80 3b 00
        E 0 90 3d 6e
        E 16 b0 0b 55
        E 16 b0 0b 44
        E 240 b0 0b 3b
        E 128 b0 0b 33
        E 128 b0 0b 2a
        E 128 b0 0b 22
        E 128 b0 0b 19
        E 128 b0 0b 11
        E 128 b0 0b 6e
        E 0 80 3d 00
        E 0 90 40 6e
        E 16 b0 0b 55
        E 16 b0 0b 44
        E 240 b0 0b 3b
        E 96 b0 0b 6e
        E 0 80 40 00
        E 0 90 3f 6e
        E 16 b0 0b 55
        E 16 b0 0b 44
        E 224 b0 0b 3b
        E 128 b0 0b 33
        E 128 b0 0b 2a
        E 128 b0 0b 22
        E 128 b0 0b 19
        E 128 b0 0b 6e
        E 0 80 3f 00
        E 0 90 3d 6e
        E 16 b0 0b 55
        E 16 b0 0b 44
        E 80 b0 0b 3b
        E 64 b0 0b 6e
        E 0 80 3d 00
        E 0 90 3b 6e
        E 16 b0 0b 55
        E 16 b0 0b 44
        E 96 b0 0b 3b
        E 48 b0 0b 6e
        E 0 80 3b 00
        E 0 90 3e 6e
        E 16 b0 0b 55
        E 16 b0 0b 44
        E 224 b0 0b 3b
        E 128 b0 0b 33
        E 128 b0 0b 2a
        E 128 b0 0b 22
        E 128 b0 0b 19
        E 128 b0 0b 11
        E 128 b0 0b 08
        E 128 80 3e 00
        E 112 b0 0b 6e
        E 0 90 3d 6e
        E 16 b0 0b 55
        E 16 b0 0b 44
        E 96 b0 0b 3b
        E 48 b0 0b 6e
        E 0 80 3d 00
        E 0 90 3b 6e
        E 16 b0 0b 55
        E 16 b0 0b 44
        E 96 b0 0b 3b
        E 64 b0 0b 6e
        E 16 b0 0b 66
        E 16 b0 0b 6e
        E 0 80 3b 00
        E 0 90 3d 6e
        E 16 b0 0b 55
        E 16 b0 0b 44
        E 64 b0 0b 3b
        E 48 b0 0b 6e
        E 0 80 3d 00
        E 0 90 39 6e
        E 16 b0 0b 55
        E 16 b0 0b 44
        E 80 b0 0b 3b
        E 64 b0 0b 6e
        E 0 80 39 00
        E 0 90 36 6e
        E 16 b0 0b 55
        E 16 b0 0b 44
        E 96 b0 0b 3b
        E 128 b0 0b 33
        E 112 b0 0b 6e
        E 0 80 36 00
        E 0 90 34 6e
        E 16 b0 0b 55
        E 16 b0 0b 44
        E 80 b0 0b 3b
        E 64 b0 0b 6e
        E 0 80 34 00
        E 0 90 36 6e
        E 16 b0 0b 55
        E 16 b0 0b 44
        E 80 b0 0b 3b
        E 128 b0 0b 33
        E 112 b0 0b 6e
        E 0 80 36 00
        E 0 90 39 6e
        E 16 b0 0b 55
        E 16 b0 0b 44
        E 96 b0 0b 3b
        E 128 b0 0b 33
        E 112 b0 0b 6e
        E 0 80 39 00
        E 0 90 36 6e
        E 16 b0 0b 55
        E 16 b0 0b 44
        E 80 b0 0b 3b
        E 128 b0 0b 33
        E 112 b0 0b 6e
        E 0 80 36 00
        E 0 90 39 6e
        E 16 b0 0b 55
        E 16 b0 0b 44
        E 96 b0 0b 3b
        E 128 b0 0b 33
        E 112 b0 0b 6e
        E 0 80 39 00
        E 0 90 3b 6e
        E 16 b0 0b 55
        E 16 b0 0b 44
        E 80 b0 0b 3b
        E 128 b0 0b 33
        E 112 b0 0b 6e
        E 16 b0 0b 55
        E 16 b0 0b 4c
        E 16 b0 0b 6e
        E 0 80 3b 00
        E 0 90 3c 6e
        E 16 b0 0b 55
        E 16 b0 0b 44
        E 64 b0 0b 3b
        E 48 b0 0b 6e
        E 0 80 3c 00
        E 0 90 3b 6e
        E 16 b0 0b 55
        E 16 b0 0b 44
        E 80 b0 0b 3b
        E 64 b0 0b 6e
        E 0 80 3b 00
        E 0 90 39 6e
        E 16 b0 0b 55
        E 16 b0 0b 44
        E 80 b0 0b 3b
        E 64 b0 0b 6e
        E 0 80 39 00
        E 0 90 36 6e
        E 16 b0 0b 55
        E 16 b0 0b 44
        E 96 b0 0b 3b
        E 48 b0 0b 6e
        E 0 80 36 00
        E 0 90 39 6e
        E 16 b0 0b 55
        E 16 b0 0b 44
        E 224 b0 0b 3b
        E 128 b0 0b 33
        E 128 b0 0b 2a
        E 128 b0 0b 22
        E 80 b0 0b 6e
        E 0 80 39 00
        E 0 90 47 6e
        E 16 b0 0b 55
        E 16 b0 0b 4c
        E 16 b0 0b 6e
        E 0 80 47 00
        E 0 90 48 6e
        E 16 b0 0b 55
        E 16 b0 0b 44
        E 64 b0 0b 3b
        E 48 b0 0b 6e
        E 0 80 48 00
        E 0 90 47 6e
        E 16 b0 0b 55
        E 16 b0 0b 44
        E 80 b0 0b 3b
        E 64 b0 0b 6e
        E 0 80 47 00
        E 0 90 45 6e
        E 16 b0 0b 55
        E 16 b0 0b 44
        E 80 b0 0b 3b
        E 64 b0 0b 6e
        E 0 80 45 00
        E 0 90 42 6e
        E 16 b0 0b 55
        E 16 b0 0b 44
        E 96 b0 0b 3b
        E 48 b0 0b 6e
        E 0 80 42 00
        E 0 90 45 6e
        E 16 b0 0b 55
        E 16 b0 0b 44
        E 96 b0 0b 3b
        E 64 b0 0b 6e
        E 112 b0 0b 55
        E 16 b0 0b 44
        E 16 b0 0b 2a
        E 16 b0 0b 19
        E 16 b0 0b 6e
        E 0 80 45 00
        E 0 90 47 6e
        E 384 b0 0b 55
        E 16 b0 0b 44
        E 16 b0 0b 2a
        E 16 b0 0b 19
        E 16 80 47 00
        E 272 b0 0b 6e
        E 0 90 36 6e
        E 16 b0 0b 55
        E 16 b0 0b 44
        E 80 b0 0b 3b
        E 64 b0 0b 6e
        E 0 80 36 00
        E 0 90 38 6e
        E 16 b0 0b 55
        E 16 b0 0b 44
        E 96 b0 0b 3b
        E 48 b0 0b 6e
        E 0 80 38 00
        E 0 90 39 6e
        E 16 b0 0b 55
        E 16 b0 0b 44
        E 96 b0 0b 3b
        E 64 b0 0b 6e
        E 0 80 39 00
        E 0 90 3b 6e
        E 16 b0 0b 55
        E 16 b0 0b 44
        E 80 b0 0b 3b
        E 64 b0 0b 6e
        E 0 80 3b 00
        E 0 90 3d 6e
        E 16 b0 0b 55
        E 16 b0 0b 44
        E 80 b0 0b 3b
        E 64 b0 0b 6e
        E 0 80 3d 00
        E 0 90 40 6e
        E 16 b0 0b 55
        E 16 b0 0b 44
        E 96 b0 0b 3b
        E 48 b0 0b 6e
        E 0 80 40 00
        E 0 90 42 6e
        E 16 b0 0b 55
        E 16 b0 0b 44
        E 96 b0 0b 3b
        E 128 b0 0b 33
        E 112 b0 0b 6e
        E 0 80 42 00
        E 0 90 3d 6e
        E 16 b0 0b 55
        E 16 b0 0b 44
        E 80 b0 0b 3b
        E 128 b0 0b 33
        E 112 b0 0b 6e
        E 0 80 3d 00
        E 0 90 40 6e
        E 16 b0 0b 55
        E 16 b0 0b 44
        E 96 b0 0b 3b
        E 128 b0 0b 33
        E 112 b0 0b 6e
        E 0 80 40 00
        E 0 90 42 6e
        E 16 b0 0b 55
        E 16 b0 0b 44
        E 80 b0 0b 3b
        E 128 b0 0b 33
        E 112 b0 0b 6e
        E 0 80 42 00
        E 0 90 46 6e
        E 16 b0 0b 55
        E 16 b0 0b 4c
        E 16 b0 0b 6e
        E 0 80 46 00
        E 0 90 47 6e
        E 16 b0 0b 55
        E 16 b0 0b 44
        E 160 b0 0b 3b
        E 128 b0 0b 33
        E 128 b0 0b 2a
        E 48 b0 0b 6e
        E 0 80 47 00
        E 0 90 45 6e
        E 16 b0 0b 55
        E 16 b0 0b 44
        E 96 b0 0b 3b
        E 128 b0 0b 33
        E 112 b0 0b 6e
        E 0 80 45 00
        E 0 90 42 6e
        E 16 b0 0b 55
        E 16 b0 0b 44
        E 80 b0 0b 3b
        E 64 b0 0b 6e
        E 0 80 42 00
        E 0 90 40 6e
        E 16 b0 0b 55
        E 16 b0 0b 44
        E 80 b0 0b 3b
        E 128 b0 0b 33
        E 112 b0 0b 6e
        E 0 80 40 00
        E 0 90 41 6e
        E 16 b0 0b 55
        E 16 b0 0b 4c
        E 16 b0 0b 6e
        E 0 80 41 00
        E 0 90 42 6e
        E 16 b0 0b 55
        E 16 b0 0b 44
        E 64 b0 0b 3b
        E 128 b0 0b 33
        E 96 b0 0b 6e
        E 0 80 42 00
        E 0 90 41 6e
        E 16 b0 0b 55
        E 16 b0 0b 44
        E 80 b0 0b 3b
        E 64 b0 0b 6e
        E 0 80 41 00
        E 0 90 3d 6e
        E 16 b0 0b 55
        E 16 b0 0b 44
        E 224 b0 0b 3b
        E 128 b0 0b 33
        E 128 b0 0b 2a
        E 128 b0 0b 22
        E 80 b0 0b 6e
        E 0 80 3d 00
        E 0 90 41 6e
        E 16 b0 0b 55
        E 16 b0 0b 44
        E 96 b0 0b 3b
        E 64 b0 0b 6e
        E 0 80 41 00
        E 0 90 42 6e
        E 16 b0 0b 55
        E 16 b0 0b 44
        E 96 b0 0b 3b
        E 128 b0 0b 33
        E 96 b0 0b 6e
        E 0 80 42 00
        E 0 90 48 6e
        E 16 b0 0b 55
        E 16 b0 0b 4c
        E 16 b0 0b 6e
        E 0 80 48 00
        E 0 90 49 6e
        E 16 b0 0b 55
        E 16 b0 0b 44
        E 48 b0 0b 3b
        E 48 b0 0b 6e
        E 0 80 49 00
        E 0 90 45 6e
        E 16 b0 0b 55
        E 16 b0 0b 44
        E 96 b0 0b 3b
        E 64 b0 0b 6e
        E 0 80 45 00
        E 0 90 42 6e
        E 16 b0 0b 55
        E 16 b0 0b 44
        E 96 b0 0b 3b
        E 48 b0 0b 6e
        E 0 80 42 00
        E 0 90 3d 6e
        E 16 b0 0b 55
        E 16 b0 0b 44
        E 80 b0 0b 3b
        E 64 b0 0b 6e
        E 0 80 3d 00
        E 0 90 36 6e
        E 16 b0 0b 55
        E 16 b0 0b 44
        E 96 b0 0b 3b
        E 48 b0 0b 6e
        E 0 80 36 00
        E 0 90 38 6e
        E 16 b0 0b 55
        E 16 b0 0b 44
        E 96 b0 0b 3b
        E 64 b0 0b 6e
        E 0 80 38 00
        E 0 90 39 6e
        E 16 b0 0b 55
        E 16 b0 0b 44
        E 96 b0 0b 3b
        E 48 b0 0b 6e
        E 0 80 39 00
        E 0 90 3b 6e
        E 16 b0 0b 55
        E 16 b0 0b 44
        E 176 b0 0b 3b
        E 64 b0 0b 6e
        E 0 80 3b 00
        E 0 90 3d 6e
        E 16 b0 0b 55
        E 16 b0 0b 44
        E 112 b0 0b 3b
        E 128 b0 0b 6e
        E 0 80 3d 00
        E 0 90 40 6e
        E 16 b0 0b 55
        E 16 b0 0b 44
        E 80 b0 0b 3b
        E 64 b0 0b 6e
        E 0 80 40 00
        E 0 90 42 6e
        E 16 b0 0b 55
        E 16 b0 0b 44
        E 112 b0 0b 3b
        E 128 b0 0b 6e
        E 0 80 42 00
        E 0 90 45 6e
        E 16 b0 0b 55
        E 16 b0 0b 44
        E 112 b0 0b 3b
        E 128 b0 0b 6e
        E 0 80 45 00
        E 0 90 47 6e
        E 16 b0 0b 55
        E 16 b0 0b 44
        E 80 b0 0b 3b
        E 64 b0 0b 6e
        E 16 b0 0b 66
        E 48 b0 0b 6e
        E 0 80 47 00
        E 0 90 49 6e
        E 16 b0 0b 55
        E 16 b0 0b 44
        E 64 b0 0b 3b
        E 80 b0 0b 6e
        E 0 80 49 00
        E 0 90 47 6e
        E 16 b0 0b 55
        E 16 b0 0b 44
        E 64 b0 0b 3b
        E 128 b0 0b 33
        E 16 b0 0b 6e
        E 0 80 47 00
        E 0 90 45 6e
        E 16 b0 0b 55
        E 16 b0 0b 44
        E 64 b0 0b 3b
        E 128 b0 0b 33
        E 16 b0 0b 6e
        E 0 80 45 00
        E 0 90 42 6e
        E 16 b0 0b 55
        E 16 b0 0b 44
        E 64 b0 0b 3b
        E 128 b0 0b 33
        E 16 b0 0b 6e
        E 0 80 42 00
        E 0 90 45 6e
        E 16 b0 0b 55
        E 16 b0 0b 44
        E 64 b0 0b 3b
        E 128 b0 0b 33
        E 16 b0 0b 6e
        E 0 80 45 00
        E 0 90 44 6e
        E 16 b0 0b 55
        E 16 b0 0b 44
        E 64 b0 0b 3b
        E 128 b0 0b 33
        E 16 b0 0b 6e
        E 0 80 44 00
        E 0 90 3d 6e
        E 16 b0 0b 55
        E 16 b0 0b 44
        E 64 b0 0b 3b
        E 128 b0 0b 33
        E 16 b0 0b 6e
        E 0 80 3d 00
        E 0 90 41 6e
        E 16 b0 0b 55
        E 16 b0 0b 44
        E 64 b0 0b 3b
        E 128 b0 0b 33
        E 16 b0 0b 6e
        E 0 80 41 00
        E 0 90 44 6e
        E 16 b0 0b 55
        E 16 b0 0b 44
        E 64 b0 0b 3b
        E 128 b0 0b 33
        E 16 b0 0b 6e
        E 0 80 44 00
        E 0 90 47 6e
        E 16 b0 0b 55
        E 16 b0 0b 44
        E 64 b0 0b 3b
        E 128 b0 0b 33
        E 16 b0 0b 6e
        E 0 80 47 00
        E 0 90 49 6e
        E 16 b0 0b 55
        E 16 b0 0b 44
        E 64 b0 0b 3b
        E 128 b0 0b 33
        E 16 b0 0b 6e
        E 0 80 49 00
        E 0 90 4d 6e
        E 16 b0 0b 55
        E 16 b0 0b 44
        E 64 b0 0b 3b
        E 128 b0 0b 33
        E 16 b0 0b 6e
        E 0 80 4d 00
        E 0 90 3d 6e
        E 16 b0 0b 66
        E 32 b0 0b 5d
        E 16 b0 0b 55
        E 16 b0 0b 44
        E 16 b0 0b 6e
        E 16 b0 0b 66
        E 32 b0 0b 5d
        E 16 b0 0b 55
        E 16 b0 0b 44
        E 16 b0 0b 6e
        E 0 80 3d 00
        E 0 90 3b 6e
        E 16 b0 0b 66
        E 32 b0 0b 5d
        E 16 b0 0b 55
        E 16 b0 0b 44
        E 16 b0 0b 6e
        E 0 80 3b 00
        E 0 90 3d 6e
        E 16 b0 0b 66
        E 32 b0 0b 5d
        E 16 b0 0b 55
        E 16 b0 0b 44
        E 16 b0 0b 3b
        E 16 b0 0b 2a
        E 16 b0 0b 22
        E 16 b0 0b 19
        E 16 b0 0b 08
        E 16 b0 0b 6e
        E 0 80 3d 00
        E 0 90 3b 6e
        E 16 b0 0b 66
        E 32 b0 0b 5d
        E 16 b0 0b 55
        E 16 b0 0b 44
        E 16 b0 0b 3b
        E 16 b0 0b 2a
        E 16 b0 0b 22
        E 16 b0 0b 19
        E 16 b0 0b 08
        E 16 80 3b 00
        E 16 b0 0b 6e
        E 0 90 3d 6e
        E 16 b0 0b 66
        E 32 b0 0b 5d
        E 16 b0 0b 55
        E 16 b0 0b 44
        E 16 b0 0b 3b
        E 16 b0 0b 2a
        E 16 b0 0b 22
        E 16 b0 0b 19
        E 16 b0 0b 08
        E 16 b0 0b 6e
        E 0 80 3d 00
        E 0 90 3b 6e
        E 16 b0 0b 66
        E 32 b0 0b 5d
        E 16 b0 0b 55
        E 16 b0 0b 44
        E 16 b0 0b 3b
        E 16 b0 0b 2a
        E 16 b0 0b 22
        E 16 b0 0b 19
        E 16 b0 0b 08
        E 16 80 3b 00
        E 16 b0 0b 6e
        E 0 90 3d 6e
        E 16 b0 0b 66
        E 32 b0 0b 5d
        E 16 b0 0b 55
        E 16 b0 0b 44
        E 16 b0 0b 6e
        E 16 b0 0b 66
        E 16 b0 0b 5d
        E 16 b0 0b 55
        E 16 b0 0b 44
        E 16 b0 0b 3b
        E 16 b0 0b 33
        E 16 b0 0b 22
        E 16 b0 0b 19
        E 16 b0 0b 08
        E 16 80 3d 00
        E 16 b0 0b 6e
        E 0 90 3b 6e
        E 16 b0 0b 66
        E 16 b0 0b 5d
        E 16 b0 0b 55
        E 16 b0 0b 44
        E 16 b0 0b 3b
        E 16 b0 0b 33
        E 16 b0 0b 22
        E 16 b0 0b 19
        E 16 b0 0b 08
        E 16 80 3b 00
        E 32 b0 0b 6e
        E 0 90 3d 6e
        E 16 b0 0b 66
        E 32 b0 0b 5d
        E 16 b0 0b 55
        E 16 b0 0b 44
        E 16 b0 0b 6e
        E 16 b0 0b 66
        E 32 b0 0b 5d
        E 16 b0 0b 55
        E 16 b0 0b 44
        E 16 b0 0b 6e
        E 0 80 3d 00
        E 0 90 3b 6e
        E 16 b0 0b 66
        E 16 b0 0b 5d
        E 16 b0 0b 55
        E 16 b0 0b 44
        E 16 b0 0b 6e
        E 0 80 3b 00
        E 0 90 3d 6e
        E 16 b0 0b 66
        E 32 b0 0b 5d
        E 16 b0 0b 55
        E 16 b0 0b 44
        E 16 b0 0b 3b
        E 16 b0 0b 2a
        E 16 b0 0b 22
        E 16 b0 0b 19
        E 16 b0 0b 08
        E 16 80 3d 00
        E 16 b0 0b 6e
        E 0 90 3b 6e
        E 16 b0 0b 66
        E 32 b0 0b 5d
        E 16 b0 0b 55
        E 16 b0 0b 44
        E 16 b0 0b 3b
        E 16 b0 0b 2a
        E 16 b0 0b 22
        E 16 b0 0b 19
        E 16 b0 0b 08
        E 16 b0 0b 6e
        E 0 80 3b 00
        E 0 90 3d 6e
        E 16 b0 0b 66
        E 32 b0 0b 5d
        E 16 b0 0b 55
        E 16 b0 0b 44
        E 16 b0 0b 3b
        E 16 b0 0b 2a
        E 16 b0 0b 22
        E 16 b0 0b 19
        E 16 b0 0b 08
        E 16 80 3d 00
        E 16 b0 0b 6e
        E 0 90 3b 6e
        E 16 b0 0b 66
        E 32 b0 0b 5d
        E 16 b0 0b 55
        E 16 b0 0b 44
        E 16 b0 0b 3b
        E 16 b0 0b 2a
        E 16 b0 0b 22
        E 16 b0 0b 19
        E 16 b0 0b 08
        E 16 b0 0b 6e
        E 0 80 3b 00
        E 0 90 3d 6e
        E 16 b0 0b 66
        E 32 b0 0b 5d
        E 16 b0 0b 55
        E 16 b0 0b 44
        E 16 b0 0b 6e
        E 16 b0 0b 66
        E 16 b0 0b 5d
        E 16 b0 0b 55
        E 16 b0 0b 44
        E 16 b0 0b 3b
        E 16 b0 0b 33
        E 16 b0 0b 22
        E 16 b0 0b 19
        E 16 b0 0b 08
        E 16 80 3d 00
        E 32 b0 0b 6e
        E 0 90 3b 6e
        E 16 b0 0b 66
        E 16 b0 0b 5d
        E 16 b0 0b 55
        E 16 b0 0b 44
        E 16 b0 0b 3b
        E 16 b0 0b 33
        E 16 b0 0b 22
        E 16 b0 0b 19
        E 16 b0 0b 08
        E 16 80 3b 00
        E 16 b0 0b 6e
        E 0 90 39 6e
        E 16 b0 0b 66
        E 16 b0 0b 5d
        E 16 b0 0b 55
        E 16 b0 0b 44
        E 16 b0 0b 3b
        E 16 b0 0b 6e
        E 0 80 39 00
        E 0 90 36 6e
        E 16 b0 0b 66
        E 32 b0 0b 5d
        E 16 b0 0b 55
        E 16 b0 0b 44
        E 16 b0 0b 6e
        E 0 80 36 00
        E 0 90 38 6e
        E 16 b0 0b 66
        E 16 b0 0b 5d
        E 16 b0 0b 55
        E 16 b0 0b 44
        E 16 b0 0b 6e
        E 0 80 38 00
        E 0 90 39 6e
        E 16 b0 0b 66
        E 32 b0 0b 5d
        E 16 b0 0b 55
        E 16 b0 0b 44
        E 16 b0 0b 6e
        E 0 80 39 00
        E 0 90 3b 6e
        E 16 b0 0b 66
        E 16 b0 0b 5d
        E 16 b0 0b 55
        E 16 b0 0b 44
        E 16 b0 0b 3b
        E 16 b0 0b 6e
        E 0 80 3b 00
        E 0 90 38 6e
        E 16 b0 0b 66
        E 32 b0 0b 5d
        E 16 b0 0b 55
        E 16 b0 0b 44
        E 16 b0 0b 6e
        E 0 80 38 00
        E 0 90 39 6e
        E 16 b0 0b 66
        E 16 b0 0b 5d
        E 16 b0 0b 55
        E 16 b0 0b 44
        E 16 b0 0b 6e
        E 0 80 39 00
        E 0 90 3b 6e
        E 16 b0 0b 66
        E 32 b0 0b 5d
        E 16 b0 0b 55
        E 16 b0 0b 44
        E 16 b0 0b 6e
        E 0 80 3b 00
        E 0 90 3d 6e
        E 16 b0 0b 66
        E 16 b0 0b 5d
        E 16 b0 0b 55
        E 16 b0 0b 44
        E 16 b0 0b 3b
        E 16 b0 0b 6e
        E 0 80 3d 00
        E 0 90 39 6e
        E 16 b0 0b 66
        E 32 b0 0b 5d
        E 16 b0 0b 55
        E 16 b0 0b 44
        E 16 b0 0b 6e
        E 0 80 39 00
        E 0 90 3b 6e
        E 16 b0 0b 66
        E 16 b0 0b 5d
        E 16 b0 0b 55
        E 16 b0 0b 44
        E 16 b0 0b 6e
        E 0 80 3b 00
        E 0 90 3d 6e
        E 16 b0 0b 66
        E 32 b0 0b 5d
        E 16 b0 0b 55
        E 16 b0 0b 44
        E 16 b0 0b 6e
        E 0 80 3d 00
        E 0 90 40 6e
        E 16 b0 0b 66
        E 16 b0 0b 5d
        E 16 b0 0b 55
        E 16 b0 0b 44
        E 16 b0 0b 3b
        E 16 b0 0b 6e
        E 0 80 40 00
        E 0 90 3e 6e
        E 16 b0 0b 66
        E 32 b0 0b 5d
        E 16 b0 0b 55
        E 16 b0 0b 44
        E 16 b0 0b 6e
        E 0 80 3e 00
        E 0 90 3d 6e
        E 16 b0 0b 66
        E 16 b0 0b 5d
        E 16 b0 0b 55
        E 16 b0 0b 44
        E 16 b0 0b 6e
        E 0 80 3d 00
        E 0 90 3b 6e
        E 16 b0 0b 66
        E 32 b0 0b 5d
        E 16 b0 0b 55
        E 16 b0 0b 44
        E 16 b0 0b 6e
        E 0 80 3b 00
        E 0 90 44 6e
        E 16 b0 0b 66
        E 32 b0 0b 5d
        E 16 b0 0b 55
        E 16 b0 0b 44
        E 16 b0 0b 6e
        E 0 80 44 00
        E 0 90 42 6e
        E 16 b0 0b 66
        E 32 b0 0b 5d
        E 16 b0 0b 55
        E 16 b0 0b 44
        E 16 b0 0b 6e
        E 0 80 42 00
        E 0 90 3d 6e
        E 16 b0 0b 66
        E 16 b0 0b 5d
        E 16 b0 0b 55
        E 16 b0 0b 44
        E 16 b0 0b 6e
        E 0 80 3d 00
        E 0 90 44 6e
        E 16 b0 0b 66
        E 32 b0 0b 5d
        E 16 b0 0b 55
        E 16 b0 0b 44
        E 16 b0 0b 6e
        E 0 80 44 00
        E 0 90 42 6e
        E 16 b0 0b 66
        E 32 b0 0b 5d
        E 16 b0 0b 55
        E 16 b0 0b 44
        E 16 b0 0b 6e
        E 0 80 42 00
        E 0 90 3d 6e
        E 16 b0 0b 66
        E 32 b0 0b 5d
        E 16 b0 0b 55
        E 16 b0 0b 44
        E 16 b0 0b 6e
        E 0 80 3d 00
        E 0 90 44 6e
        E 16 b0 0b 66
        E 32 b0 0b 5d
        E 16 b0 0b 55
        E 16 b0 0b 6e
        E 0 80 44 00
        E 0 90 42 6e
        E 16 b0 0b 66
        E 32 b0 0b 5d
        E 16 b0 0b 55
        E 16 b0 0b 44
        E 16 b0 0b 6e
        E 0 80 42 00
        E 0 90 3d 6e
        E 16 b0 0b 66
        E 32 b0 0b 5d
        E 16 b0 0b 55
        E 16 b0 0b 44
        E 16 b0 0b 6e
        E 0 80 3d 00
        E 0 90 44 6e
        E 16 b0 0b 66
        E 32 b0 0b 5d
        E 16 b0 0b 55
        E 16 b0 0b 44
        E 16 b0 0b 6e
        E 0 80 44 00
        E 0 90 42 6e
        E 16 b0 0b 66
        E 32 b0 0b 5d
        E 16 b0 0b 55
        E 16 b0 0b 6e
        E 0 80 42 00
        E 0 90 3d 6e
        E 16 b0 0b 66
        E 32 b0 0b 5d
        E 16 b0 0b 55
        E 16 b0 0b 44
        E 16 b0 0b 6e
        E 0 80 3d 00
        E 0 90 44 6e
        E 16 b0 0b 66
        E 32 b0 0b 5d
        E 16 b0 0b 55
        E 16 b0 0b 44
        E 16 b0 0b 6e
        E 0 80 44 00
        E 0 90 42 6e
        E 16 b0 0b 66
        E 32 b0 0b 5d
        E 16 b0 0b 55
        E 16 b0 0b 44
        E 16 b0 0b 6e
        E 0 80 42 00
        E 0 90 41 6e
        E 16 b0 0b 66
        E 32 b0 0b 5d
        E 16 b0 0b 55
        E 16 b0 0b 6e
        E 0 80 41 00
        E 0 90 3d 6e
        E 16 b0 0b 66
        E 32 b0 0b 5d
        E 16 b0 0b 55
        E 16 b0 0b 44
        E 16 b0 0b 6e
        E 0 80 3d 00
        E 0 90 36 6e
        E 16 b0 0b 4c
        E 80 b0 0b 44
        E 32 b0 0b 3b
        E 48 b0 0b 33
        E 16 b0 0b 6e
        E 0 80 36 00
        E 0 90 3b 6e
        E 16 b0 0b 4c
        E 64 b0 0b 44
        E 32 b0 0b 3b
        E 48 b0 0b 33
        E 16 b0 0b 6e
        E 0 80 3b 00
        E 0 90 3d 6e
        E 16 b0 0b 4c
        E 64 b0 0b 44
        E 32 b0 0b 3b
        E 48 b0 0b 33
        E 16 b0 0b 6e
        E 0 80 3d 00
        E 0 90 36 6e
        E 16 b0 0b 4c
        E 64 b0 0b 44
        E 32 b0 0b 3b
        E 48 b0 0b 33
        E 16 b0 0b 6e
        E 0 80 36 00
        E 0 90 40 6e
        E 16 b0 0b 4c
        E 64 b0 0b 44
        E 32 b0 0b 3b
        E 48 b0 0b 33
        E 16 b0 0b 6e
        E 0 80 40 00
        E 0 90 36 6e
        E 16 b0 0b 4c
        E 64 b0 0b 44
        E 32 b0 0b 3b
        E 48 b0 0b 33
        E 16 b0 0b 6e
        E 0 80 36 00
        E 0 90 3f 6e
        E 16 b0 0b 4c
        E 64 b0 0b 44
        E 32 b0 0b 3b
        E 48 b0 0b 33
        E 16 b0 0b 6e
        E 0 80 3f 00
        E 0 90 36 6e
        E 16 b0 0b 4c
        E 64 b0 0b 44
        E 32 b0 0b 3b
        E 48 b0 0b 33
        E 16 b0 0b 6e
        E 0 80 36 00
        E 0 90 3b 6e
        E 16 b0 0b 4c
        E 64 b0 0b 44
        E 32 b0 0b 3b
        E 48 b0 0b 33
        E 16 b0 0b 6e
        E 0 80 3b 00
        E 0 90 40 6e
        E 16 b0 0b 4c
        E 64 b0 0b 44
        E 32 b0 0b 3b
        E 48 b0 0b 33
        E 16 b0 0b 6e
        E 0 80 40 00
        E 0 90 36 6e
        E 16 b0 0b 4c
        E 64 b0 0b 44
        E 32 b0 0b 3b
        E 48 b0 0b 33
        E 16 b0 0b 6e
        E 0 80 36 00
        E 0 90 3f 6e
        E 16 b0 0b 4c
        E 64 b0 0b 44
        E 32 b0 0b 3b
        E 48 b0 0b 33
        E 16 b0 0b 6e
        E 0 80 3f 00
        E 0 90 36 6e
        E 16 b0 0b 4c
        E 64 b0 0b 44
        E 32 b0 0b 3b
        E 48 b0 0b 33
        E 16 b0 0b 6e
        E 0 80 36 00
        E 0 90 3d 6e
        E 16 b0 0b 4c
        E 64 b0 0b 44
        E 32 b0 0b 3b
        E 48 b0 0b 33
        E 16 b0 0b 6e
        E 0 80 3d 00
        E 0 90 36 6e
        E 16 b0 0b 4c
        E 64 b0 0b 44
        E 32 b0 0b 3b
        E 48 b0 0b 33
        E 16 b0 0b 6e
        E 0 80 36 00
        E 0 90 3b 6e
        E 16 b0 0b 4c
        E 64 b0 0b 44
        E 32 b0 0b 3b
        E 48 b0 0b 33
        E 16 b0 0b 6e
        E 0 80 3b 00
        E 0 90 36 6e
        E 16 b0 0b 4c
        E 64 b0 0b 44
        E 32 b0 0b 3b
        E 48 b0 0b 33
        E 16 b0 0b 6e
        E 0 80 36 00
        E 0 90 3b 6e
        E 16 b0 0b 4c
        E 64 b0 0b 44
        E 32 b0 0b 3b
        E 48 b0 0b 33
        E 16 b0 0b 6e
        E 0 80 3b 00
        E 0 90 3d 6e
        E 16 b0 0b 4c
        E 64 b0 0b 44
        E 32 b0 0b 3b
        E 48 b0 0b 33
        E 16 b0 0b 6e
        E 0 80 3d 00
        E 0 90 36 6e
        E 16 b0 0b 4c
        E 64 b0 0b 44
        E 32 b0 0b 3b
        E 48 b0 0b 33
        E 16 b0 0b 6e
        E 0 80 36 00
        E 0 90 40 6e
        E 16 b0 0b 4c
        E 64 b0 0b 44
        E 32 b0 0b 3b
        E 48 b0 0b 33
        E 16 b0 0b 6e
        E 0 80 40 00
        E 0 90 36 6e
        E 16 b0 0b 4c
        E 64 b0 0b 44
        E 32 b0 0b 3b
        E 48 b0 0b 33
        E 16 b0 0b 6e
        E 0 80 36 00
        E 0 90 3f 6e
        E 16 b0 0b 4c
        E 64 b0 0b 44
        E 32 b0 0b 3b
        E 48 b0 0b 33
        E 16 b0 0b 6e
        E 0 80 3f 00
        E 0 90 36 6e
        E 16 b0 0b 4c
        E 64 b0 0b 44
        E 32 b0 0b 3b
        E 48 b0 0b 33
        E 16 b0 0b 6e
        E 0 80 36 00
        E 0 90 3b 6e
        E 16 b0 0b 4c
        E 64 b0 0b 44
        E 32 b0 0b 3b
        E 48 b0 0b 33
        E 16 b0 0b 6e
        E 0 80 3b 00
        E 0 90 40 6e
        E 16 b0 0b 4c
        E 64 b0 0b 44
        E 32 b0 0b 3b
        E 48 b0 0b 33
        E 16 b0 0b 6e
        E 0 80 40 00
        E 0 90 36 6e
        E 16 b0 0b 4c
        E 64 b0 0b 44
        E 32 b0 0b 3b
        E 48 b0 0b 33
        E 16 b0 0b 6e
        E 0 80 36 00
        E 0 90 3f 6e
        E 16 b0 0b 4c
        E 64 b0 0b 44
        E 32 b0 0b 3b
        E 48 b0 0b 33
        E 16 b0 0b 6e
        E 0 80 3f 00
        E 0 90 36 6e
        E 16 b0 0b 4c
        E 64 b0 0b 44
        E 32 b0 0b 3b
        E 48 b0 0b 33
        E 16 b0 0b 6e
        E 0 80 36 00
        E 0 90 3d 6e
        E 16 b0 0b 4c
        E 64 b0 0b 44
        E 32 b0 0b 3b
        E 48 b0 0b 33
        E 16 b0 0b 6e
        E 0 80 3d 00
        E 0 90 40 6e
        E 16 b0 0b 4c
        E 64 b0 0b 44
        E 32 b0 0b 3b
        E 48 b0 0b 33
        E 16 b0 0b 6e
        E 0 80 40 00
        E 0 90 44 6e
        E 16 b0 0b 4c
        E 336 b0 0b 44
        E 32 b0 0b 3b
        E 48 b0 0b 33
        E 48 b0 0b 2a
        E 32 b0 0b 22
        E 16 b0 0b 6e
        E 0 80 44 00
        E 0 90 42 6e
        E 16 b0 0b 4c
        E 64 b0 0b 44
        E 32 b0 0b 3b
        E 48 b0 0b 33
        E 16 b0 0b 6e
        E 0 80 42 00
        E 0 90 40 6e
        E 16 b0 0b 4c
        E 64 b0 0b 44
        E 32 b0 0b 3b
        E 48 b0 0b 33
        E 48 b0 0b 2a
        E 32 b0 0b 22
        E 48 b0 0b 19
        E 48 b0 0b 11
        E 16 b0 0b 6e
        E 0 80 40 00
        E 0 90 3d 6e
        E 16 b0 0b 4c
        E 80 b0 0b 44
        E 32 b0 0b 3b
        E 48 b0 0b 6e
        E 0 80 3d 00
        E 0 90 40 6e
        E 16 b0 0b 4c
        E 80 b0 0b 44
        E 32 b0 0b 3b
        E 48 b0 0b 6e
        E 0 80 40 00
        E 0 90 44 6e
        E 16 b0 0b 4c
        E 336 b0 0b 44
        E 32 b0 0b 3b
        E 48 b0 0b 33
        E 48 b0 0b 2a
        E 32 b0 0b 22
        E 32 b0 0b 6e
        E 0 80 44 00
        E 0 90 42 6e
        E 16 b0 0b 4c
        E 64 b0 0b 44
        E 32 b0 0b 3b
        E 48 b0 0b 33
        E 16 b0 0b 6e
        E 0 80 42 00
        E 0 90 40 6e
        E 16 b0 0b 4c
        E 64 b0 0b 44
        E 32 b0 0b 3b
        E 48 b0 0b 33
        E 48 b0 0b 2a
        E 32 b0 0b 22
        E 48 b0 0b 19
        E 48 b0 0b 11
        E 16 b0 0b 6e
        E 0 80 40 00
        E 0 90 3f 6e
        E 16 b0 0b 4c
        E 64 b0 0b 44
        E 32 b0 0b 3b
        E 48 b0 0b 33
        E 48 b0 0b 2a
        E 32 b0 0b 22
        E 48 b0 0b 19
        E 48 b0 0b 11
        E 16 b0 0b 6e
        E 0 80 3f 00
        E 0 90 40 6e
        E 16 b0 0b 4c
        E 240 b0 0b 44
        E 32 b0 0b 3b
        E 48 b0 0b 33
        E 16 b0 0b 6e
        E 0 80 40 00
        E 0 90 3f 6e
        E 16 b0 0b 4c
        E 64 b0 0b 44
        E 32 b0 0b 3b
        E 48 b0 0b 33
        E 16 b0 0b 6e
        E 0 80 3f 00
        E 0 90 3d 6e
        E 16 b0 0b 4c
        E 64 b0 0b 44
        E 32 b0 0b 3b
        E 48 b0 0b 33
        E 48 b0 0b 2a
        E 32 b0 0b 22
        E 48 b0 0b 19
        E 48 b0 0b 11
        E 16 b0 0b 6e
        E 16 b0 0b 4c
        E 64 b0 0b 44
        E 32 b0 0b 3b
        E 48 b0 0b 33
        E 48 b0 0b 2a
        E 32 b0 0b 22
        E 48 b0 0b 19
        E 48 b0 0b 11
        E 16 b0 0b 6e
        E 0 80 3d 00
        E 0 90 3b 6e
        E 16 b0 0b 4c
        E 64 b0 0b 44
        E 32 b0 0b 3b
        E 48 b0 0b 33
        E 48 b0 0b 2a
        E 32 b0 0b 22
        E 48 b0 0b 19
        E 48 b0 0b 11
        E 16 b0 0b 6e
        E 16 b0 0b 4c
        E 64 b0 0b 44
        E 32 b0 0b 3b
        E 48 b0 0b 33
        E 16 b0 0b 6e
        E 0 80 3b 00
        E 0 90 3d 6e
        E 16 b0 0b 4c
        E 64 b0 0b 44
        E 32 b0 0b 3b
        E 48 b0 0b 33
        E 48 b0 0b 2a
        E 32 b0 0b 22
        E 48 b0 0b 19
        E 48 b0 0b 11
        E 16 b0 0b 6e
        E 16 b0 0b 4c
        E 768 b0 0b 44
        E 32 b0 0b 3b
        E 48 b0 0b 33
        E 16 b0 0b 6e
        E 16 b0 0b 4c
        E 64 b0 0b 44
        E 32 b0 0b 3b
        E 48 b0 0b 33
        E 16 b0 0b 6e
        E 0 80 3d 00
        E 0 90 40 6e
        E 16 b0 0b 4c
        E 64 b0 0b 44
        E 32 b0 0b 3b
        E 48 b0 0b 33
        E 16 b0 0b 6e
        E 0 80 40 00
        E 0 90 42 6e
        E 16 b0 0b 4c
        E 64 b0 0b 44
        E 32 b0 0b 3b
        E 48 b0 0b 33
        E 16 b0 0b 6e
        E 0 80 42 00
        E 0 90 3d 6e
        E 16 b0 0b 4c
        E 64 b0 0b 44
        E 32 b0 0b 3b
        E 48 b0 0b 33
        E 16 b0 0b 6e
        E 0 80 3d 00
        E 0 90 47 6e
        E 16 b0 0b 4c
        E 64 b0 0b 44
        E 32 b0 0b 3b
        E 48 b0 0b 33
        E 16 b0 0b 6e
        E 0 80 47 00
        E 0 90 3d 6e
        E 16 b0 0b 4c
        E 64 b0 0b 44
        E 32 b0 0b 3b
        E 48 b0 0b 33
        E 16 b0 0b 6e
        E 0 80 3d 00
        E 0 90 45 6e
        E 16 b0 0b 4c
        E 64 b0 0b 44
        E 32 b0 0b 3b
        E 48 b0 0b 33
        E 16 b0 0b 6e
        E 0 80 45 00
        E 0 90 3d 6e
        E 16 b0 0b 4c
        E 64 b0 0b 44
        E 32 b0 0b 3b
        E 48 b0 0b 33
        E 16 b0 0b 6e
        E 0 80 3d 00
        E 0 90 44 6e
        E 16 b0 0b 4c
        E 64 b0 0b 44
        E 32 b0 0b 3b
        E 48 b0 0b 33
        E 16 b0 0b 6e
        E 0 80 44 00
        E 0 90 3d 6e
        E 16 b0 0b 4c
        E 64 b0 0b 44
        E 32 b0 0b 3b
        E 48 b0 0b 33
        E 16 b0 0b 6e
        E 0 80 3d 00
        E 0 90 42 6e
        E 16 b0 0b 4c
        E 64 b0 0b 44
        E 32 b0 0b 3b
        E 48 b0 0b 33
        E 16 b0 0b 6e
        E 0 80 42 00
        E 0 90 3d 6e
        E 16 b0 0b 4c
        E 64 b0 0b 44
        E 32 b0 0b 3b
        E 48 b0 0b 33
        E 16 b0 0b 6e
        E 0 80 3d 00
        E 0 90 40 6e
        E 16 b0 0b 4c
        E 64 b0 0b 44
        E 32 b0 0b 3b
        E 48 b0 0b 33
        E 16 b0 0b 6e
        E 0 80 40 00
        E 0 90 42 6e
        E 16 b0 0b 4c
        E 64 b0 0b 44
        E 32 b0 0b 3b
        E 48 b0 0b 33
        E 48 b0 0b 2a
        E 32 b0 0b 22
        E 48 b0 0b 19
        E 48 b0 0b 11
        E 16 b0 0b 6e
        E 0 80 42 00
        E 0 90 44 6e
        E 16 b0 0b 4c
        E 240 b0 0b 44
        E 32 b0 0b 3b
        E 48 b0 0b 33
        E 16 b0 0b 6e
        E 0 80 44 00
        E 0 90 40 6e
        E 16 b0 0b 4c
        E 64 b0 0b 44
        E 32 b0 0b 3b
        E 48 b0 0b 33
        E 16 b0 0b 6e
        E 0 80 40 00
        E 0 90 3d 6e
        E 16 b0 0b 4c
        E 64 b0 0b 44
        E 32 b0 0b 3b
        E 48 b0 0b 33
        E 16 b0 0b 6e
        E 0 80 3d 00
        E 0 90 3b 6e
        E 16 b0 0b 4c
        E 64 b0 0b 44
        E 32 b0 0b 3b
        E 48 b0 0b 33
        E 16 b0 0b 6e
        E 0 80 3b 00
        E 0 90 3d 6e
        E 16 b0 0b 4c
        E 64 b0 0b 44
        E 32 b0 0b 3b
        E 48 b0 0b 33
        E 16 b0 0b 6e
        E 0 80 3d 00
        E 0 90 40 6e
        E 16 b0 0b 4c
        E 64 b0 0b 44
        E 32 b0 0b 3b
        E 48 b0 0b 33
        E 48 b0 0b 2a
        E 32 b0 0b 22
        E 48 b0 0b 19
        E 48 b0 0b 11
        E 16 b0 0b 6e
        E 0 80 40 00
        E 0 90 44 6e
        E 16 b0 0b 4c
        E 64 b0 0b 44
        E 32 b0 0b 3b
        E 48 b0 0b 33
        E 16 b0 0b 6e
        E 0 80 44 00
        E 0 90 40 6e
        E 16 b0 0b 4c
        E 64 b0 0b 44
        E 32 b0 0b 3b
        E 48 b0 0b 33
        E 16 b0 0b 6e
        E 0 80 40 00
        E 0 90 3d 6e
        E 16 b0 0b 4c
        E 64 b0 0b 44
        E 32 b0 0b 3b
        E 48 b0 0b 33
        E 16 b0 0b 6e
        E 0 80 3d 00
        E 0 90 3b 6e
        E 16 b0 0b 4c
        E 64 b0 0b 44
        E 32 b0 0b 3b
        E 48 b0 0b 33
        E 16 b0 0b 6e
        E 0 80 3b 00
        E 0 90 3d 6e
        E 16 b0 0b 4c
        E 64 b0 0b 44
        E 32 b0 0b 3b
        E 48 b0 0b 33
        E 48 b0 0b 2a
        E 32 b0 0b 22
        E 48 b0 0b 19
        E 48 b0 0b 11
        E 16 b0 0b 6e
        E 16 b0 0b 4c
        E 64 b0 0b 44
        E 32 b0 0b 3b
        E 48 b0 0b 33
        E 48 b0 0b 2a
        E 32 b0 0b 22
        E 48 b0 0b 19
        E 48 b0 0b 11
        E 16 b0 0b 6e
        E 16 b0 0b 4c
        E 240 b0 0b 44
        E 32 b0 0b 3b
        E 48 b0 0b 33
        E 16 b0 0b 6e
        E 0 80 3d 00
        E 0 90 40 6e
        E 16 b0 0b 4c
        E 64 b0 0b 44
        E 32 b0 0b 3b
        E 48 b0 0b 33
        E 16 b0 0b 6e
        E 0 80 40 00
        E 0 90 42 6e
        E 16 b0 0b 4c
        E 64 b0 0b 44
        E 32 b0 0b 3b
        E 48 b0 0b 33
        E 16 b0 0b 6e
        E 0 80 42 00
        E 0 90 3d 6e
        E 16 b0 0b 4c
        E 64 b0 0b 44
        E 32 b0 0b 3b
        E 48 b0 0b 33
        E 16 b0 0b 6e
        E 0 80 3d 00
        E 0 90 47 6e
        E 16 b0 0b 4c
        E 64 b0 0b 44
        E 32 b0 0b 3b
        E 48 b0 0b 33
        E 16 b0 0b 6e
        E 0 80 47 00
        E 0 90 3d 6e
        E 16 b0 0b 4c
        E 64 b0 0b 44
        E 32 b0 0b 3b
        E 48 b0 0b 33
        E 16 b0 0b 6e
        E 0 80 3d 00
        E 0 90 45 6e
        E 16 b0 0b 4c
        E 64 b0 0b 44
        E 32 b0 0b 3b
        E 48 b0 0b 33
        E 16 b0 0b 6e
        E 0 80 45 00
        E 0 90 3d 6e
        E 16 b0 0b 4c
        E 64 b0 0b 44
        E 32 b0 0b 3b
        E 48 b0 0b 33
        E 16 b0 0b 6e
        E 0 80 3d 00
        E 0 90 44 6e
        E 16 b0 0b 4c
        E 64 b0 0b 44
        E 32 b0 0b 3b
        E 48 b0 0b 33
        E 16 b0 0b 6e
        E 0 80 44 00
        E 0 90 3d 6e
        E 16 b0 0b 4c
        E 64 b0 0b 44
        E 32 b0 0b 3b
        E 48 b0 0b 33
        E 16 b0 0b 6e
        E 0 80 3d 00
        E 0 90 42 6e
        E 16 b0 0b 4c
        E 64 b0 0b 44
        E 32 b0 0b 3b
        E 48 b0 0b 33
        E 16 b0 0b 6e
        E 0 80 42 00
        E 0 90 3d 6e
        E 16 b0 0b 4c
        E 64 b0 0b 44
        E 32 b0 0b 3b
        E 48 b0 0b 33
        E 16 b0 0b 6e
        E 0 80 3d 00
        E 0 90 40 6e
        E 16 b0 0b 4c
        E 64 b0 0b 44
        E 32 b0 0b 3b
        E 48 b0 0b 33
        E 16 b0 0b 6e
        E 0 80 40 00
        E 0 90 42 6e
        E 16 b0 0b 4c
        E 320 b0 0b 44
        E 32 b0 0b 3b
        E 48 b0 0b 33
        E 48 b0 0b 2a
        E 32 b0 0b 22
        E 32 b0 0b 6e
        E 0 80 42 00
        E 0 90 44 6e
        E 16 b0 0b 4c
        E 64 b0 0b 44
        E 32 b0 0b 3b
        E 48 b0 0b 33
        E 16 b0 0b 6e
        E 16 b0 0b 4c
        E 64 b0 0b 44
        E 32 b0 0b 3b
        E 48 b0 0b 33
        E 16 b0 0b 6e
        E 0 80 44 00
        E 0 90 42 6e
        E 16 b0 0b 4c
        E 64 b0 0b 44
        E 32 b0 0b 3b
        E 48 b0 0b 33
        E 16 b0 0b 6e
        E 0 80 42 00
        E 0 90 44 6e
        E 16 b0 0b 4c
        E 64 b0 0b 44
        E 32 b0 0b 3b
        E 48 b0 0b 33
        E 48 b0 0b 2a
        E 32 b0 0b 22
        E 48 b0 0b 19
        E 48 b0 0b 11
        E 16 b0 0b 6e
        E 16 b0 0b 4c
        E 64 b0 0b 44
        E 32 b0 0b 3b
        E 48 b0 0b 33
        E 16 b0 0b 6e
        E 0 80 44 00
        E 0 90 42 6e
        E 16 b0 0b 4c
        E 64 b0 0b 44
        E 32 b0 0b 3b
        E 48 b0 0b 33
        E 16 b0 0b 6e
        E 0 80 42 00
        E 0 90 44 6e
        E 16 b0 0b 4c
        E 64 b0 0b 44
        E 32 b0 0b 3b
        E 48 b0 0b 33
        E 16 b0 0b 6e
        E 0 80 44 00
        E 0 90 49 6e
        E 16 b0 0b 4c
        E 64 b0 0b 44
        E 32 b0 0b 3b
        E 48 b0 0b 33
        E 16 b0 0b 6e
        E 16 b0 0b 4c
        E 64 b0 0b 44
        E 32 b0 0b 3b
        E 48 b0 0b 33
        E 16 b0 0b 6e
        E 0 80 49 00
        E 0 90 47 6e
        E 16 b0 0b 4c
        E 64 b0 0b 44
        E 32 b0 0b 3b
        E 48 b0 0b 33
        E 16 b0 0b 6e
        E 0 80 47 00
        E 0 90 49 6e
        E 16 b0 0b 4c
        E 64 b0 0b 44
        E 32 b0 0b 3b
        E 48 b0 0b 33
        E 48 b0 0b 2a
        E 32 b0 0b 22
        E 48 b0 0b 19
        E 48 b0 0b 11
        E 16 b0 0b 6e
        E 0 80 49 00
        E 0 90 47 6e
        E 16 b0 0b 4c
        E 64 b0 0b 44
        E 32 b0 0b 3b
        E 48 b0 0b 33
        E 16 b0 0b 6e
        E 0 80 47 00
        E 0 90 49 6e
        E 16 b0 0b 4c
        E 64 b0 0b 44
        E 32 b0 0b 3b
        E 48 b0 0b 33
        E 48 b0 0b 2a
        E 32 b0 0b 22
        E 48 b0 0b 19
        E 48 b0 0b 11
        E 16 b0 0b 6e
        E 0 80 49 00
        E 0 90 36 6e
        E 16 b0 0b 4c
        E 80 b0 0b 44
        E 32 b0 0b 3b
        E 48 b0 0b 33
        E 16 b0 0b 6e
        E 0 80 36 00
        E 0 90 3b 6e
        E 16 b0 0b 4c
        E 64 b0 0b 44
        E 32 b0 0b 3b
        E 48 b0 0b 33
        E 16 b0 0b 6e
        E 0 80 3b 00
        E 0 90 3d 6e
        E 16 b0 0b 4c
        E 64 b0 0b 44
        E 32 b0 0b 3b
        E 48 b0 0b 33
        E 16 b0 0b 6e
        E 0 80 3d 00
        E 0 90 36 6e
        E 16 b0 0b 4c
        E 64 b0 0b 44
        E 32 b0 0b 3b
        E 48 b0 0b 33
        E 16 b0 0b 6e
        E 0 80 36 00
        E 0 90 40 6e
        E 16 b0 0b 4c
        E 64 b0 0b 44
        E 32 b0 0b 3b
        E 48 b0 0b 33
        E 16 b0 0b 6e
        E 0 80 40 00
        E 0 90 36 6e
        E 16 b0 0b 4c
        E 64 b0 0b 44
        E 32 b0 0b 3b
        E 48 b0 0b 33
        E 16 b0 0b 6e
        E 0 80 36 00
        E 0 90 3f 6e
        E 16 b0 0b 4c
        E 64 b0 0b 44
        E 32 b0 0b 3b
        E 48 b0 0b 33
        E 16 b0 0b 6e
        E 0 80 3f 00
        E 0 90 36 6e
        E 16 b0 0b 4c
        E 64 b0 0b 44
        E 32 b0 0b 3b
        E 48 b0 0b 33
        E 16 b0 0b 6e
        E 0 80 36 00
        E 0 90 3b 6e
        E 16 b0 0b 4c
        E 64 b0 0b 44
        E 32 b0 0b 3b
        E 48 b0 0b 33
        E 16 b0 0b 6e
        E 0 80 3b 00
        E 0 90 40 6e
        E 16 b0 0b 4c
        E 64 b0 0b 44
        E 32 b0 0b 3b
        E 48 b0 0b 33
        E 16 b0 0b 6e
        E 0 80 40 00
        E 0 90 36 6e
        E 16 b0 0b 4c
        E 64 b0 0b 44
        E 32 b0 0b 3b
        E 48 b0 0b 33
        E 16 b0 0b 6e
        E 0 80 36 00
        E 0 90 3f 6e
        E 16 b0 0b 4c
        E 64 b0 0b 44
        E 32 b0 0b 3b
        E 48 b0 0b 33
        E 16 b0 0b 6e
        E 0 80 3f 00
        E 0 90 36 6e
        E 16 b0 0b 4c
        E 64 b0 0b 44
        E 32 b0 0b 3b
        E 48 b0 0b 33
        E 16 b0 0b 6e
        E 0 80 36 00
        E 0 90 3d 6e
        E 16 b0 0b 4c
        E 64 b0 0b 44
        E 32 b0 0b 3b
        E 48 b0 0b 33
        E 16 b0 0b 6e
        E 0 80 3d 00
        E 0 90 36 6e
        E 16 b0 0b 4c
        E 64 b0 0b 44
        E 32 b0 0b 3b
        E 48 b0 0b 33
        E 16 b0 0b 6e
        E 0 80 36 00
        E 0 90 3b 6e
        E 16 b0 0b 4c
        E 64 b0 0b 44
        E 32 b0 0b 3b
        E 48 b0 0b 33
        E 16 b0 0b 6e
        E 0 80 3b 00
        E 0 90 36 6e
        E 16 b0 0b 4c
        E 64 b0 0b 44
        E 32 b0 0b 3b
        E 48 b0 0b 33
        E 16 b0 0b 6e
        E 0 80 36 00
        E 0 90 3b 6e
        E 16 b0 0b 4c
        E 64 b0 0b 44
        E 32 b0 0b 3b
        E 48 b0 0b 33
        E 16 b0 0b 6e
        E 0 80 3b 00
        E 0 90 3d 6e
        E 16 b0 0b 4c
        E 64 b0 0b 44
        E 32 b0 0b 3b
        E 48 b0 0b 33
        E 16 b0 0b 6e
        E 0 80 3d 00
        E 0 90 36 6e
        E 16 b0 0b 4c
        E 64 b0 0b 44
        E 32 b0 0b 3b
        E 48 b0 0b 33
        E 16 b0 0b 6e
        E 0 80 36 00
        E 0 90 40 6e
        E 16 b0 0b 4c
        E 64 b0 0b 44
        E 32 b0 0b 3b
        E 48 b0 0b 33
        E 16 b0 0b 6e
        E 0 80 40 00
        E 0 90 36 6e
        E 16 b0 0b 4c
        E 64 b0 0b 44
        E 32 b0 0b 3b
        E 48 b0 0b 33
        E 16 b0 0b 6e
        E 0 80 36 00
        E 0 90 3f 6e
        E 16 b0 0b 4c
        E 64 b0 0b 44
        E 32 b0 0b 3b
        E 48 b0 0b 33
        E 16 b0 0b 6e
        E 0 80 3f 00
        E 0 90 36 6e
        E 16 b0 0b 4c
        E 64 b0 0b 44
        E 32 b0 0b 3b
        E 48 b0 0b 33
        E 16 b0 0b 6e
        E 0 80 36 00
        E 0 90 3b 6e
        E 16 b0 0b 4c
        E 64 b0 0b 44
        E 32 b0 0b 3b
        E 48 b0 0b 33
        E 16 b0 0b 6e
        E 0 80 3b 00
        E 0 90 40 6e
        E 16 b0 0b 4c
        E 64 b0 0b 44
        E 32 b0 0b 3b
        E 48 b0 0b 33
        E 16 b0 0b 6e
        E 0 80 40 00
        E 0 90 36 6e
        E 16 b0 0b 4c
        E 64 b0 0b 44
        E 32 b0 0b 3b
        E 48 b0 0b 33
        E 16 b0 0b 6e
        E 0 80 36 00
        E 0 90 3f 6e
        E 16 b0 0b 4c
        E 64 b0 0b 44
        E 32 b0 0b 3b
        E 48 b0 0b 33
        E 16 b0 0b 6e
        E 0 80 3f 00
        E 0 90 36 6e
        E 16 b0 0b 4c
        E 64 b0 0b 44
        E 32 b0 0b 3b
        E 48 b0 0b 33
        E 16 b0 0b 6e
        E 0 80 36 00
        E 0 90 3d 6e
        E 16 b0 0b 4c
        E 64 b0 0b 44
        E 32 b0 0b 3b
        E 48 b0 0b 33
        E 16 b0 0b 6e
        E 0 80 3d 00
        E 0 90 40 6e
        E 16 b0 0b 4c
        E 64 b0 0b 44
        E 32 b0 0b 3b
        E 48 b0 0b 33
        E 16 b0 0b 6e
        E 0 80 40 00
        E 0 90 44 6e
        E 16 b0 0b 4c
        E 336 b0 0b 44
        E 32 b0 0b 3b
        E 48 b0 0b 33
        E 48 b0 0b 2a
        E 32 b0 0b 22
        E 16 b0 0b 6e
        E 0 80 44 00
        E 0 90 42 6e
        E 16 b0 0b 4c
        E 64 b0 0b 44
        E 32 b0 0b 3b
        E 48 b0 0b 33
        E 16 b0 0b 6e
        E 0 80 42 00
        E 0 90 40 6e
        E 16 b0 0b 4c
        E 64 b0 0b 44
        E 32 b0 0b 3b
        E 48 b0 0b 33
        E 48 b0 0b 2a
        E 32 b0 0b 22
        E 48 b0 0b 19
        E 48 b0 0b 11
        E 16 b0 0b 6e
        E 0 80 40 00
        E 0 90 3d 6e
        E 16 b0 0b 4c
        E 80 b0 0b 44
        E 32 b0 0b 3b
        E 48 b0 0b 6e
        E 0 80 3d 00
        E 0 90 40 6e
        E 16 b0 0b 4c
        E 80 b0 0b 44
        E 32 b0 0b 3b
        E 48 b0 0b 6e
        E 0 80 40 00
        E 0 90 44 6e
        E 16 b0 0b 4c
        E 336 b0 0b 44
        E 32 b0 0b 3b
        E 48 b0 0b 33
        E 48 b0 0b 2a
        E 32 b0 0b 22
        E 32 b0 0b 6e
        E 0 80 44 00
        E 0 90 42 6e
        E 16 b0 0b 4c
        E 64 b0 0b 44
        E 32 b0 0b 3b
        E 48 b0 0b 33
        E 16 b0 0b 6e
        E 0 80 42 00
        E 0 90 40 6e
        E 16 b0 0b 4c
        E 64 b0 0b 44
        E 32 b0 0b 3b
        E 48 b0 0b 33
        E 48 b0 0b 2a
        E 32 b0 0b 22
        E 48 b0 0b 19
        E 48 b0 0b 11
        E 16 b0 0b 6e
        E 0 80 40 00
        E 0 90 3f 6e
        E 16 b0 0b 4c
        E 64 b0 0b 44
        E 32 b0 0b 3b
        E 48 b0 0b 33
        E 48 b0 0b 2a
        E 32 b0 0b 22
        E 48 b0 0b 19
        E 48 b0 0b 11
        E 16 b0 0b 6e
        E 0 80 3f 00
        E 0 90 40 6e
        E 16 b0 0b 4c
        E 240 b0 0b 44
        E 32 b0 0b 3b
        E 48 b0 0b 33
        E 16 b0 0b 6e
        E 0 80 40 00
        E 0 90 3f 6e
        E 16 b0 0b 4c
        E 64 b0 0b 44
        E 32 b0 0b 3b
        E 48 b0 0b 33
        E 16 b0 0b 6e
        E 0 80 3f 00
        E 0 90 3d 6e
        E 16 b0 0b 4c
        E 64 b0 0b 44
        E 32 b0 0b 3b
        E 48 b0 0b 33
        E 48 b0 0b 2a
        E 32 b0 0b 22
        E 48 b0 0b 19
        E 48 b0 0b 11
        E 16 b0 0b 6e
        E 16 b0 0b 4c
        E 64 b0 0b 44
        E 32 b0 0b 3b
        E 48 b0 0b 33
        E 48 b0 0b 2a
        E 32 b0 0b 22
        E 48 b0 0b 19
        E 48 b0 0b 11
        E 16 b0 0b 6e
        E 0 80 3d 00
        E 0 90 3b 6e
        E 16 b0 0b 4c
        E 64 b0 0b 44
        E 32 b0 0b 3b
        E 48 b0 0b 33
        E 48 b0 0b 2a
        E 32 b0 0b 22
        E 48 b0 0b 19
        E 48 b0 0b 11
        E 16 b0 0b 6e
        E 16 b0 0b 4c
        E 64 b0 0b 44
        E 32 b0 0b 3b
        E 48 b0 0b 33
        E 16 b0 0b 6e
        E 0 80 3b 00
        E 0 90 3d 6e
        E 16 b0 0b 4c
        E 64 b0 0b 44
        E 32 b0 0b 3b
        E 48 b0 0b 33
        E 48 b0 0b 2a
        E 32 b0 0b 22
        E 48 b0 0b 19
        E 48 b0 0b 11
        E 16 b0 0b 6e
        E 16 b0 0b 4c
        E 768 b0 0b 44
        E 32 b0 0b 3b
        E 48 b0 0b 33
        E 16 b0 0b 6e
        E 16 b0 0b 4c
        E 64 b0 0b 44
        E 32 b0 0b 3b
        E 48 b0 0b 33
        E 16 b0 0b 6e
        E 0 80 3d 00
        E 0 90 40 6e
        E 16 b0 0b 4c
        E 64 b0 0b 44
        E 32 b0 0b 3b
        E 48 b0 0b 33
        E 16 b0 0b 6e
        E 0 80 40 00
        E 0 90 42 6e
        E 16 b0 0b 4c
        E 64 b0 0b 44
        E 32 b0 0b 3b
        E 48 b0 0b 33
        E 16 b0 0b 6e
        E 0 80 42 00
        E 0 90 3d 6e
        E 16 b0 0b 4c
        E 64 b0 0b 44
        E 32 b0 0b 3b
        E 48 b0 0b 33
        E 16 b0 0b 6e
        E 0 80 3d 00
        E 0 90 47 6e
        E 16 b0 0b 4c
        E 64 b0 0b 44
        E 32 b0 0b 3b
        E 48 b0 0b 33
        E 16 b0 0b 6e
        E 0 80 47 00
        E 0 90 3d 6e
        E 16 b0 0b 4c
        E 64 b0 0b 44
        E 32 b0 0b 3b
        E 48 b0 0b 33
        E 16 b0 0b 6e
        E 0 80 3d 00
        E 0 90 45 6e
        E 16 b0 0b 4c
        E 64 b0 0b 44
        E 32 b0 0b 3b
        E 48 b0 0b 33
        E 16 b0 0b 6e
        E 0 80 45 00
        E 0 90 3d 6e
        E 16 b0 0b 4c
        E 64 b0 0b 44
        E 32 b0 0b 3b
        E 48 b0 0b 33
        E 16 b0 0b 6e
        E 0 80 3d 00
        E 0 90 44 6e
        E 16 b0 0b 4c
        E 64 b0 0b 44
        E 32 b0 0b 3b
        E 48 b0 0b 33
        E 16 b0 0b 6e
        E 0 80 44 00
        E 0 90 3d 6e
        E 16 b0 0b 4c
        E 64 b0 0b 44
        E 32 b0 0b 3b
        E 48 b0 0b 33
        E 16 b0 0b 6e
        E 0 80 3d 00
        E 0 90 42 6e
        E 16 b0 0b 4c
        E 64 b0 0b 44
        E 32 b0 0b 3b
        E 48 b0 0b 33
        E 16 b0 0b 6e
        E 0 80 42 00
        E 0 90 3d 6e
        E 16 b0 0b 4c
        E 64 b0 0b 44
        E 32 b0 0b 3b
        E 48 b0 0b 33
        E 16 b0 0b 6e
        E 0 80 3d 00
        E 0 90 40 6e
        E 16 b0 0b 4c
        E 64 b0 0b 44
        E 32 b0 0b 3b
        E 48 b0 0b 33
        E 16 b0 0b 6e
        E 0 80 40 00
        E 0 90 42 6e
        E 16 b0 0b 4c
        E 64 b0 0b 44
        E 32 b0 0b 3b
        E 48 b0 0b 33
        E 48 b0 0b 2a
        E 32 b0 0b 22
        E 48 b0 0b 19
        E 48 b0 0b 11
        E 16 b0 0b 6e
        E 0 80 42 00
        E 0 90 44 6e
        E 16 b0 0b 4c
        E 240 b0 0b 44
        E 32 b0 0b 3b
        E 48 b0 0b 33
        E 16 b0 0b 6e
        E 0 80 44 00
        E 0 90 40 6e
        E 16 b0 0b 4c
        E 64 b0 0b 44
        E 32 b0 0b 3b
        E 48 b0 0b 33
        E 16 b0 0b 6e
        E 0 80 40 00
        E 0 90 3d 6e
        E 16 b0 0b 4c
        E 64 b0 0b 44
        E 32 b0 0b 3b
        E 48 b0 0b 33
        E 16 b0 0b 6e
        E 0 80 3d 00
        E 0 90 3b 6e
        E 16 b0 0b 4c
        E 64 b0 0b 44
        E 32 b0 0b 3b
        E 48 b0 0b 33
        E 16 b0 0b 6e
        E 0 80 3b 00
        E 0 90 3d 6e
        E 16 b0 0b 4c
        E 64 b0 0b 44
        E 32 b0 0b 3b
        E 48 b0 0b 33
        E 16 b0 0b 6e
        E 0 80 3d 00
        E 0 90 40 6e
        E 16 b0 0b 4c
        E 64 b0 0b 44
        E 32 b0 0b 3b
        E 48 b0 0b 33
        E 48 b0 0b 2a
        E 32 b0 0b 22
        E 48 b0 0b 19
        E 48 b0 0b 11
        E 16 b0 0b 6e
        E 0 80 40 00
        E 0 90 44 6e
        E 16 b0 0b 4c
        E 64 b0 0b 44
        E 32 b0 0b 3b
        E 48 b0 0b 33
        E 16 b0 0b 6e
        E 0 80 44 00
        E 0 90 40 6e
        E 16 b0 0b 4c
        E 64 b0 0b 44
        E 32 b0 0b 3b
        E 48 b0 0b 33
        E 16 b0 0b 6e
        E 0 80 40 00
        E 0 90 3d 6e
        E 16 b0 0b 4c
        E 64 b0 0b 44
        E 32 b0 0b 3b
        E 48 b0 0b 33
        E 16 b0 0b 6e
        E 0 80 3d 00
        E 0 90 3b 6e
        E 16 b0 0b 4c
        E 64 b0 0b 44
        E 32 b0 0b 3b
        E 48 b0 0b 33
        E 16 b0 0b 6e
        E 0 80 3b 00
        E 0 90 3d 6e
        E 16 b0 0b 4c
        E 64 b0 0b 44
        E 32 b0 0b 3b
        E 48 b0 0b 33
        E 48 b0 0b 2a
        E 32 b0 0b 22
        E 48 b0 0b 19
        E 48 b0 0b 11
        E 16 b0 0b 6e
        E 16 b0 0b 4c
        E 64 b0 0b 44
        E 32 b0 0b 3b
        E 48 b0 0b 33
        E 48 b0 0b 2a
        E 32 b0 0b 22
        E 48 b0 0b 19
        E 48 b0 0b 11
        E 16 b0 0b 6e
        E 16 b0 0b 4c
        E 240 b0 0b 44
        E 32 b0 0b 3b
        E 48 b0 0b 33
        E 16 b0 0b 6e
        E 0 80 3d 00
        E 0 90 40 6e
        E 16 b0 0b 4c
        E 64 b0 0b 44
        E 32 b0 0b 3b
        E 48 b0 0b 33
        E 16 b0 0b 6e
        E 0 80 40 00
        E 0 90 42 6e
        E 16 b0 0b 4c
        E 64 b0 0b 44
        E 32 b0 0b 3b
        E 48 b0 0b 33
        E 16 b0 0b 6e
        E 0 80 42 00
        E 0 90 3d 6e
        E 16 b0 0b 4c
        E 64 b0 0b 44
        E 32 b0 0b 3b
        E 48 b0 0b 33
        E 16 b0 0b 6e
        E 0 80 3d 00
        E 0 90 47 6e
        E 16 b0 0b 4c
        E 64 b0 0b 44
        E 32 b0 0b 3b
        E 48 b0 0b 33
        E 16 b0 0b 6e
        E 0 80 47 00
        E 0 90 3d 6e
        E 16 b0 0b 4c
        E 64 b0 0b 44
        E 32 b0 0b 3b
        E 48 b0 0b 33
        E 16 b0 0b 6e
        E 0 80 3d 00
        E 0 90 45 6e
        E 16 b0 0b 4c
        E 64 b0 0b 44
        E 32 b0 0b 3b
        E 48 b0 0b 33
        E 16 b0 0b 6e
        E 0 80 45 00
        E 0 90 3d 6e
        E 16 b0 0b 4c
        E 64 b0 0b 44
        E 32 b0 0b 3b
        E 48 b0 0b 33
        E 16 b0 0b 6e
        E 0 80 3d 00
        E 0 90 44 6e
        E 16 b0 0b 4c
        E 64 b0 0b 44
        E 32 b0 0b 3b
        E 48 b0 0b 33
        E 16 b0 0b 6e
        E 0 80 44 00
        E 0 90 3d 6e
        E 16 b0 0b 4c
        E 64 b0 0b 44
        E 32 b0 0b 3b
        E 48 b0 0b 33
        E 16 b0 0b 6e
        E 0 80 3d 00
        E 0 90 42 6e
        E 16 b0 0b 4c
        E 64 b0 0b 44
        E 32 b0 0b 3b
        E 48 b0 0b 33
        E 16 b0 0b 6e
        E 0 80 42 00
        E 0 90 3d 6e
        E 16 b0 0b 4c
        E 64 b0 0b 44
        E 32 b0 0b 3b
        E 48 b0 0b 33
        E 16 b0 0b 6e
        E 0 80 3d 00
        E 0 90 40 6e
        E 16 b0 0b 4c
        E 64 b0 0b 44
        E 32 b0 0b 3b
        E 48 b0 0b 33
        E 16 b0 0b 6e
        E 0 80 40 00
        E 0 90 42 6e
        E 16 b0 0b 4c
        E 320 b0 0b 44
        E 32 b0 0b 3b
        E 48 b0 0b 33
        E 48 b0 0b 2a
        E 32 b0 0b 22
        E 32 b0 0b 6e
        E 0 80 42 00
        E 0 90 44 6e
        E 16 b0 0b 4c
        E 64 b0 0b 44
        E 32 b0 0b 3b
        E 48 b0 0b 33
        E 16 b0 0b 6e
        E 16 b0 0b 4c
        E 64 b0 0b 44
        E 32 b0 0b 3b
        E 48 b0 0b 33
        E 16 b0 0b 6e
        E 0 80 44 00
        E 0 90 42 6e
        E 16 b0 0b 4c
        E 64 b0 0b 44
        E 32 b0 0b 3b
        E 48 b0 0b 33
        E 16 b0 0b 6e
        E 0 80 42 00
        E 0 90 44 6e
        E 16 b0 0b 4c
        E 64 b0 0b 44
        E 32 b0 0b 3b
        E 48 b0 0b 33
        E 48 b0 0b 2a
        E 32 b0 0b 22
        E 48 b0 0b 19
        E 48 b0 0b 11
        E 16 b0 0b 6e
        E 16 b0 0b 4c
        E 64 b0 0b 44
        E 32 b0 0b 3b
        E 48 b0 0b 33
        E 16 b0 0b 6e
        E 0 80 44 00
        E 0 90 42 6e
        E 16 b0 0b 4c
        E 64 b0 0b 44
        E 32 b0 0b 3b
        E 48 b0 0b 33
        E 16 b0 0b 6e
        E 0 80 42 00
        E 0 90 44 6e
        E 16 b0 0b 4c
        E 64 b0 0b 44
        E 32 b0 0b 3b
        E 48 b0 0b 33
        E 16 b0 0b 6e
        E 0 80 44 00
        E 0 90 49 6e
        E 16 b0 0b 4c
        E 64 b0 0b 44
        E 32 b0 0b 3b
        E 48 b0 0b 33
        E 16 b0 0b 6e
        E 16 b0 0b 4c
        E 64 b0 0b 44
        E 32 b0 0b 3b
        E 48 b0 0b 33
        E 16 b0 0b 6e
        E 0 80 49 00
        E 0 90 47 6e
        E 16 b0 0b 4c
        E 64 b0 0b 44
        E 32 b0 0b 3b
        E 48 b0 0b 33
        E 16 b0 0b 6e
        E 0 80 47 00
        E 0 90 49 6e
        E 16 b0 0b 4c
        E 64 b0 0b 44
        E 32 b0 0b 3b
        E 48 b0 0b 33
        E 48 b0 0b 2a
        E 32 b0 0b 22
        E 48 b0 0b 19
        E 48 b0 0b 11
        E 16 b0 0b 6e
        E 0 80 49 00
        E 0 90 47 6e
        E 16 b0 0b 4c
        E 64 b0 0b 44
        E 32 b0 0b 3b
        E 48 b0 0b 33
        E 16 b0 0b 6e
        E 0 80 47 00
        E 0 90 49 6e
        E 16 b0 0b 4c
        E 64 b0 0b 44
        E 32 b0 0b 3b
        E 48 b0 0b 33
        E 48 b0 0b 2a
        E 32 b0 0b 22
        E 48 b0 0b 19
        E 48 b0 0b 11
        E 16 b0 0b 6e
        E 0 80 49 00
        E 0 90 36 6e
        E 16 b0 0b 4c
        E 80 b0 0b 44
        E 32 b0 0b 3b
        E 48 b0 0b 33
        E 16 b0 0b 6e
        E 0 80 36 00
        E 0 90 3b 6e
        E 16 b0 0b 4c
        E 64 b0 0b 44
        E 32 b0 0b 3b
        E 48 b0 0b 33
        E 16 b0 0b 6e
        E 0 80 3b 00
        E 0 90 3d 6e
        E 16 b0 0b 4c
        E 64 b0 0b 44
        E 32 b0 0b 3b
        E 48 b0 0b 33
        E 16 b0 0b 6e
        E 0 80 3d 00
        E 0 90 36 6e
        E 16 b0 0b 4c
        E 64 b0 0b 44
        E 32 b0 0b 3b
        E 48 b0 0b 33
        E 16 b0 0b 6e
        E 0 80 36 00
        E 0 90 40 6e
        E 16 b0 0b 4c
        E 64 b0 0b 44
        E 32 b0 0b 3b
        E 48 b0 0b 33
        E 16 b0 0b 6e
        E 0 80 40 00
        E 0 90 36 6e
        E 16 b0 0b 4c
        E 64 b0 0b 44
        E 32 b0 0b 3b
        E 48 b0 0b 33
        E 16 b0 0b 6e
        E 0 80 36 00
        E 0 90 3f 6e
        E 16 b0 0b 4c
        E 64 b0 0b 44
        E 32 b0 0b 3b
        E 48 b0 0b 33
        E 16 b0 0b 6e
        E 0 80 3f 00
        E 0 90 36 6e
        E 16 b0 0b 4c
        E 64 b0 0b 44
        E 32 b0 0b 3b
        E 48 b0 0b 33
        E 16 b0 0b 6e
        E 0 80 36 00
        E 0 90 3b 6e
        E 16 b0 0b 4c
        E 64 b0 0b 44
        E 32 b0 0b 3b
        E 48 b0 0b 33
        E 16 b0 0b 6e
        E 0 80 3b 00
        E 0 90 40 6e
        E 16 b0 0b 4c
        E 64 b0 0b 44
        E 32 b0 0b 3b
        E 48 b0 0b 33
        E 16 b0 0b 6e
        E 0 80 40 00
        E 0 90 36 6e
        E 16 b0 0b 4c
        E 64 b0 0b 44
        E 32 b0 0b 3b
        E 48 b0 0b 33
        E 16 b0 0b 6e
        E 0 80 36 00
        E 0 90 3f 6e
        E 16 b0 0b 4c
        E 64 b0 0b 44
        E 32 b0 0b 3b
        E 48 b0 0b 33
        E 16 b0 0b 6e
        E 0 80 3f 00
        E 0 90 36 6e
        E 16 b0 0b 4c
        E 64 b0 0b 44
        E 32 b0 0b 3b
        E 48 b0 0b 33
        E 16 b0 0b 6e
        E 0 80 36 00
        E 0 90 3d 6e
        E 16 b0 0b 4c
        E 64 b0 0b 44
        E 32 b0 0b 3b
        E 48 b0 0b 33
        E 16 b0 0b 6e
        E 0 80 3d 00
        E 0 90 36 6e
        E 16 b0 0b 4c
        E 64 b0 0b 44
        E 32 b0 0b 3b
        E 48 b0 0b 33
        E 16 b0 0b 6e
        E 0 80 36 00
        E 0 90 3b 6e
        E 16 b0 0b 4c
        E 64 b0 0b 44
        E 32 b0 0b 3b
        E 48 b0 0b 33
        E 16 b0 0b 6e
        E 0 80 3b 00
        E 0 90 36 6e
        E 16 b0 0b 4c
        E 64 b0 0b 44
        E 32 b0 0b 3b
        E 48 b0 0b 33
        E 16 b0 0b 6e
        E 0 80 36 00
        E 0 90 3b 6e
        E 16 b0 0b 4c
        E 64 b0 0b 44
        E 32 b0 0b 3b
        E 48 b0 0b 33
        E 16 b0 0b 6e
        E 0 80 3b 00
        E 0 90 3d 6e
        E 16 b0 0b 4c
        E 64 b0 0b 44
        E 32 b0 0b 3b
        E 48 b0 0b 33
        E 16 b0 0b 6e
        E 0 80 3d 00
        E 0 90 36 6e
        E 16 b0 0b 4c
        E 64 b0 0b 44
        E 32 b0 0b 3b
        E 48 b0 0b 33
        E 16 b0 0b 6e
        E 0 80 36 00
        E 0 90 40 6e
        E 16 b0 0b 4c
        E 64 b0 0b 44
        E 32 b0 0b 3b
        E 48 b0 0b 33
        E 16 80 40 00
        E 0 b0 7b 00
        E 0 ff 2f 00
      >
    >
  >
  <TRACK {158317EE-D218-4972-9DA3-F24DF5B2F96B}
    NAME "NES - Pulse 2 [ch1]"
    PEAKCOL 10092441
    BEAT -1
    AUTOMODE 0
    PANLAWFLAGS 3
    VOLPAN 1 0 -1 -1 1
    MUTESOLO 0 0 0
    IPHASE 0
    PLAYOFFS 0 1
    ISBUS 0 0
    BUSCOMP 0 0 0 0 0
    SHOWINMIX 1 0.6667 0.5 1 0.5 0 0 0
    FIXEDLANES 9 0 0 0 0
    SEL 0
    REC 0 5088 1 0 0 0 0 0
    VU 2
    TRACKHEIGHT 0 0 0 0 0 0 0
    INQ 0 0 0 0.5 100 0 0 100
    NCHAN 2
    FX 1
    TRACKID {158317EE-D218-4972-9DA3-F24DF5B2F96B}
    PERF 0
    MIDIOUT -1
    MAINSEND 1 0
    <FXCHAIN
      WNDRECT 24 52 700 560
      SHOW 0
      LASTSEL 0
      DOCKED 0
      BYPASS 0 0 0
      <JS "ReapNES Studio/ReapNES_Console.jsfx" ""
        2 15 1 10 80 10 100 2 3 15 1 0 400 14 50 3 1 0 50 0 0 15 1 0 100 0 0 0.500000 0.500000 0.400000 0.300000 0.800000 1 1 0 0 0 0 - - - - - - - - - - - - - - - - - - - - - - - - - -
      >
      FLOATPOS 0 0 0 0
      FXID {5ABFDC5F-5CB0-4B9F-9324-642198120563}
      WAK 0 0
    >
    <ITEM
      POSITION 0
      LENGTH 74.55676740000001
      LOOP 0
      ALLTAKES 0
      FADEIN 0 0 0 0 0 0 0
      FADEOUT 0 0 0 0 0 0 0
      MUTE 0 0
      SEL 0
      IGUID {5764B36F-189A-45CD-B51B-634BFF1F889F}
      <SOURCE MIDI
        HASDATA 1 480 QN
        CCINTERP 32
        E 0 c1 51
        E 0 b1 0c 20
        E 0 b1 0b 55
        E 0 91 3d 55
        E 16 b1 0b 3b
        E 16 b1 0b 2a
        E 96 b1 0b 22
        E 48 b1 0b 55
        E 0 81 3d 00
        E 0 91 36 55
        E 16 b1 0b 3b
        E 16 b1 0b 2a
        E 112 b1 0b 22
        E 48 b1 0b 55
        E 0 81 36 00
        E 0 91 39 55
        E 16 b1 0b 4c
        E 16 b1 0b 55
        E 0 81 39 00
        E 0 91 38 55
        E 16 b1 0b 3b
        E 16 b1 0b 2a
        E 240 b1 0b 22
        E 128 b1 0b 19
        E 128 b1 0b 11
        E 128 b1 0b 08
        E 32 b1 0b 55
        E 0 81 38 00
        E 0 91 39 55
        E 16 b1 0b 3b
        E 16 b1 0b 2a
        E 144 b1 0b 22
        E 64 b1 0b 55
        E 0 81 39 00
        E 0 91 36 55
        E 16 b1 0b 3b
        E 16 b1 0b 2a
        E 144 b1 0b 22
        E 64 b1 0b 55
        E 0 81 36 00
        E 0 91 34 55
        E 16 b1 0b 3b
        E 16 b1 0b 2a
        E 144 b1 0b 22
        E 64 b1 0b 55
        E 0 81 34 00
        E 0 91 33 55
        E 16 b1 0b 3b
        E 16 b1 0b 2a
        E 512 b1 0b 22
        E 128 b1 0b 19
        E 48 b1 0b 55
        E 16 b1 0b 3b
        E 16 b1 0b 2a
        E 96 b1 0b 22
        E 48 b1 0b 55
        E 0 81 33 00
        E 0 91 34 55
        E 16 b1 0b 3b
        E 16 b1 0b 2a
        E 96 b1 0b 22
        E 48 b1 0b 55
        E 0 81 34 00
        E 0 91 36 55
        E 16 b1 0b 3b
        E 16 b1 0b 2a
        E 96 b1 0b 22
        E 48 b1 0b 55
        E 0 81 36 00
        E 0 91 39 55
        E 16 b1 0b 3b
        E 16 b1 0b 2a
        E 528 b1 0b 22
        E 128 b1 0b 19
        E 128 b1 0b 11
        E 96 b1 0b 55
        E 0 81 39 00
        E 0 91 38 55
        E 16 b1 0b 3b
        E 16 b1 0b 2a
        E 512 b1 0b 22
        E 128 b1 0b 19
        E 48 b1 0b 55
        E 0 81 38 00
        E 0 91 2a 55
        E 16 b1 0b 3b
        E 16 b1 0b 2a
        E 224 b1 0b 22
        E 96 b1 0b 55
        E 0 81 2a 00
        E 0 91 31 55
        E 16 b1 0b 3b
        E 16 b1 0b 2a
        E 240 b1 0b 22
        E 96 b1 0b 55
        E 0 81 31 00
        E 0 91 2d 55
        E 16 b1 0b 3b
        E 16 b1 0b 2a
        E 224 b1 0b 22
        E 96 b1 0b 55
        E 0 81 2d 00
        E 0 91 2f 55
        E 16 b1 0b 3b
        E 16 b1 0b 2a
        E 240 b1 0b 22
        E 96 b1 0b 55
        E 0 81 2f 00
        E 0 91 2a 55
        E 16 b1 0b 3b
        E 16 b1 0b 2a
        E 224 b1 0b 22
        E 96 b1 0b 55
        E 0 81 2a 00
        E 0 91 31 55
        E 16 b1 0b 3b
        E 16 b1 0b 2a
        E 240 b1 0b 22
        E 96 b1 0b 55
        E 0 81 31 00
        E 0 91 2d 55
        E 16 b1 0b 3b
        E 16 b1 0b 2a
        E 224 b1 0b 22
        E 96 b1 0b 55
        E 0 81 2d 00
        E 0 91 2f 55
        E 16 b1 0b 3b
        E 16 b1 0b 2a
        E 240 b1 0b 22
        E 96 b1 0b 55
        E 0 81 2f 00
        E 0 91 26 55
        E 16 b1 0b 3b
        E 16 b1 0b 2a
        E 1648 b1 0b 22
        E 128 b1 0b 19
        E 128 b1 0b 11
        E 128 b1 0b 08
        E 96 b1 0b 55
        E 0 81 26 00
        E 0 91 3e 55
        E 128 b1 0b 3b
        E 16 b1 0b 2a
        E 16 b1 0b 11
        E 16 b1 0b 55
        E 416 b1 0b 3b
        E 16 b1 0b 2a
        E 16 b1 0b 11
        E 16 81 3e 00
        E 112 91 36 11
        E 16 b1 0b 2a
        E 16 b1 0b 44
        E 16 b1 0b 3b
        E 256 b1 0b 33
        E 784 b1 0b 2a
        E 128 b1 0b 22
        E 128 b1 0b 19
        E 64 81 36 00
        E 32 b1 0b 11
        E 0 91 39 11
        E 16 b1 0b 2a
        E 16 b1 0b 44
        E 16 b1 0b 3b
        E 256 b1 0b 33
        E 784 b1 0b 2a
        E 128 b1 0b 22
        E 128 b1 0b 19
        E 64 81 39 00
        E 32 b1 0b 11
        E 0 91 3d 11
        E 16 b1 0b 2a
        E 16 b1 0b 44
        E 16 b1 0b 3b
        E 256 b1 0b 33
        E 784 b1 0b 2a
        E 128 b1 0b 22
        E 128 b1 0b 19
        E 64 81 3d 00
        E 32 b1 0b 11
        E 0 91 34 11
        E 16 b1 0b 2a
        E 16 b1 0b 44
        E 16 b1 0b 3b
        E 256 b1 0b 33
        E 224 b1 0b 2a
        E 128 b1 0b 22
        E 32 81 34 00
        E 32 b1 0b 11
        E 0 91 35 11
        E 16 b1 0b 2a
        E 16 b1 0b 44
        E 16 b1 0b 3b
        E 256 b1 0b 33
        E 224 b1 0b 2a
        E 128 b1 0b 22
        E 32 81 35 00
        E 32 b1 0b 11
        E 0 91 36 11
        E 16 b1 0b 2a
        E 16 b1 0b 44
        E 16 b1 0b 3b
        E 256 b1 0b 33
        E 784 b1 0b 2a
        E 128 b1 0b 22
        E 128 b1 0b 19
        E 64 81 36 00
        E 32 b1 0b 11
        E 0 91 39 11
        E 16 b1 0b 2a
        E 16 b1 0b 44
        E 16 b1 0b 3b
        E 256 b1 0b 33
        E 784 b1 0b 2a
        E 128 b1 0b 22
        E 128 b1 0b 19
        E 64 81 39 00
        E 32 b1 0b 11
        E 0 91 3d 11
        E 16 b1 0b 2a
        E 16 b1 0b 44
        E 16 b1 0b 3b
        E 256 b1 0b 33
        E 1904 b1 0b 2a
        E 128 b1 0b 22
        E 128 b1 0b 19
        E 128 b1 0b 11
        E 128 b1 0b 08
        E 128 b1 0c 40
        E 0 b1 0b 44
        E 0 81 3d 00
        E 0 91 36 44
        E 16 b1 0b 3b
        E 64 b1 0b 33
        E 16 b1 0b 44
        E 16 b1 0b 3b
        E 64 b1 0b 33
        E 16 b1 0b 44
        E 16 b1 0b 3b
        E 48 b1 0b 33
        E 16 b1 0b 22
        E 16 b1 0b 44
        E 16 b1 0b 3b
        E 48 b1 0b 33
        E 16 b1 0b 22
        E 16 b1 0b 19
        E 16 b1 0b 11
        E 16 81 36 00
        E 48 b1 0b 44
        E 0 91 36 44
        E 16 b1 0b 3b
        E 64 b1 0b 33
        E 16 b1 0b 22
        E 16 b1 0b 19
        E 16 b1 0b 11
        E 16 81 36 00
        E 48 b1 0b 44
        E 0 91 36 44
        E 16 b1 0b 3b
        E 48 b1 0b 33
        E 16 b1 0b 22
        E 16 b1 0b 19
        E 16 b1 0b 11
        E 16 81 36 00
        E 48 b1 0b 44
        E 0 91 36 44
        E 16 b1 0b 3b
        E 64 b1 0b 33
        E 16 b1 0b 22
        E 16 b1 0b 19
        E 16 b1 0b 11
        E 16 81 36 00
        E 48 b1 0b 44
        E 0 91 36 44
        E 16 b1 0b 3b
        E 48 b1 0b 33
        E 16 b1 0b 22
        E 16 b1 0b 44
        E 16 b1 0b 3b
        E 48 b1 0b 33
        E 16 b1 0b 22
        E 16 b1 0b 19
        E 16 b1 0b 11
        E 16 81 36 00
        E 48 b1 0b 44
        E 0 91 36 44
        E 16 b1 0b 3b
        E 48 b1 0b 33
        E 16 b1 0b 22
        E 16 b1 0b 19
        E 16 b1 0b 11
        E 16 81 36 00
        E 64 b1 0b 44
        E 0 91 36 44
        E 16 b1 0b 3b
        E 48 b1 0b 33
        E 16 b1 0b 22
        E 16 b1 0b 44
        E 16 b1 0b 3b
        E 48 b1 0b 33
        E 16 b1 0b 22
        E 16 b1 0b 44
        E 16 b1 0b 3b
        E 48 b1 0b 33
        E 16 b1 0b 44
        E 16 b1 0b 3b
        E 64 b1 0b 33
        E 16 b1 0b 22
        E 16 b1 0b 19
        E 16 b1 0b 11
        E 16 81 36 00
        E 48 b1 0b 44
        E 0 91 36 44
        E 16 b1 0b 3b
        E 48 b1 0b 33
        E 16 b1 0b 22
        E 16 b1 0b 19
        E 16 b1 0b 11
        E 16 81 36 00
        E 48 b1 0b 44
        E 0 91 36 44
        E 16 b1 0b 3b
        E 64 b1 0b 33
        E 16 b1 0b 22
        E 16 b1 0b 19
        E 16 b1 0b 11
        E 16 81 36 00
        E 48 b1 0b 44
        E 0 91 36 44
        E 16 b1 0b 3b
        E 48 b1 0b 33
        E 16 b1 0b 22
        E 16 b1 0b 19
        E 16 b1 0b 11
        E 16 81 36 00
        E 48 b1 0b 44
        E 0 91 36 44
        E 16 b1 0b 3b
        E 64 b1 0b 33
        E 16 b1 0b 44
        E 16 b1 0b 3b
        E 48 b1 0b 33
        E 16 b1 0b 22
        E 16 b1 0b 19
        E 16 b1 0b 11
        E 16 81 36 00
        E 64 b1 0b 44
        E 0 91 36 44
        E 16 b1 0b 3b
        E 48 b1 0b 33
        E 16 b1 0b 22
        E 16 b1 0b 19
        E 16 b1 0b 11
        E 16 81 36 00
        E 48 b1 0b 44
        E 0 91 36 44
        E 16 b1 0b 3b
        E 48 b1 0b 33
        E 16 b1 0b 22
        E 16 b1 0b 44
        E 0 81 36 00
        E 0 91 32 44
        E 16 b1 0b 3b
        E 48 b1 0b 33
        E 16 b1 0b 22
        E 16 b1 0b 44
        E 0 81 32 00
        E 0 91 34 44
        E 16 b1 0b 3b
        E 48 b1 0b 33
        E 16 b1 0b 44
        E 0 81 34 00
        E 0 91 36 44
        E 16 b1 0b 3b
        E 64 b1 0b 33
        E 16 b1 0b 44
        E 0 81 36 00
        E 0 91 38 44
        E 16 b1 0b 3b
        E 48 b1 0b 33
        E 16 b1 0b 22
        E 16 b1 0b 44
        E 0 81 38 00
        E 0 91 34 44
        E 16 b1 0b 3b
        E 48 b1 0b 33
        E 16 b1 0b 22
        E 16 b1 0b 44
        E 0 81 34 00
        E 0 91 36 44
        E 16 b1 0b 3b
        E 48 b1 0b 33
        E 16 b1 0b 44
        E 0 81 36 00
        E 0 91 38 44
        E 16 b1 0b 3b
        E 64 b1 0b 33
        E 16 b1 0b 44
        E 0 81 38 00
        E 0 91 39 44
        E 16 b1 0b 3b
        E 48 b1 0b 33
        E 16 b1 0b 22
        E 16 b1 0b 44
        E 0 81 39 00
        E 0 91 36 44
        E 16 b1 0b 3b
        E 48 b1 0b 33
        E 16 b1 0b 22
        E 16 b1 0b 44
        E 0 81 36 00
        E 0 91 38 44
        E 16 b1 0b 3b
        E 48 b1 0b 33
        E 16 b1 0b 44
        E 0 81 38 00
        E 0 91 39 44
        E 16 b1 0b 3b
        E 64 b1 0b 33
        E 16 b1 0b 44
        E 0 81 39 00
        E 0 91 3d 44
        E 16 b1 0b 3b
        E 48 b1 0b 33
        E 16 b1 0b 22
        E 16 b1 0b 44
        E 0 81 3d 00
        E 0 91 3b 44
        E 16 b1 0b 3b
        E 48 b1 0b 33
        E 16 b1 0b 22
        E 16 b1 0b 44
        E 0 81 3b 00
        E 0 91 39 44
        E 16 b1 0b 3b
        E 48 b1 0b 33
        E 16 b1 0b 44
        E 0 81 39 00
        E 0 91 38 44
        E 16 b1 0b 3b
        E 64 b1 0b 33
        E 16 81 38 00
        E 16 b1 0b 22
        E 0 91 31 22
        E 16 b1 0b 44
        E 16 b1 0b 66
        E 240 b1 0b 5d
        E 64 b1 0b 55
        E 16 81 31 00
        E 16 b1 0b 22
        E 0 91 35 22
        E 16 b1 0b 44
        E 16 b1 0b 66
        E 240 b1 0b 5d
        E 64 b1 0b 55
        E 16 81 35 00
        E 16 b1 0b 22
        E 0 91 38 22
        E 16 b1 0b 44
        E 16 b1 0b 66
        E 240 b1 0b 5d
        E 64 b1 0b 55
        E 16 81 38 00
        E 16 b1 0b 22
        E 0 91 3d 22
        E 16 b1 0b 44
        E 16 b1 0b 66
        E 240 b1 0b 5d
        E 64 b1 0b 55
        E 64 b1 0b 4c
        E 64 b1 0b 44
        E 32 b1 0c 20
        E 0 b1 0b 55
        E 0 81 3d 00
        E 0 91 36 55
        E 16 b1 0b 33
        E 112 b1 0b 2a
        E 32 b1 0b 22
        E 16 b1 0b 55
        E 0 81 36 00
        E 0 91 3b 55
        E 16 b1 0b 33
        E 112 b1 0b 2a
        E 32 b1 0b 22
        E 16 b1 0b 55
        E 0 81 3b 00
        E 0 91 3d 55
        E 16 b1 0b 33
        E 112 b1 0b 2a
        E 32 b1 0b 22
        E 16 b1 0b 55
        E 0 81 3d 00
        E 0 91 36 55
        E 16 b1 0b 33
        E 112 b1 0b 2a
        E 32 b1 0b 22
        E 16 b1 0b 55
        E 0 81 36 00
        E 0 91 40 55
        E 16 b1 0b 33
        E 112 b1 0b 2a
        E 32 b1 0b 22
        E 16 b1 0b 55
        E 0 81 40 00
        E 0 91 36 55
        E 16 b1 0b 33
        E 112 b1 0b 2a
        E 32 b1 0b 22
        E 16 b1 0b 55
        E 0 81 36 00
        E 0 91 3f 55
        E 16 b1 0b 33
        E 112 b1 0b 2a
        E 32 b1 0b 22
        E 16 b1 0b 55
        E 0 81 3f 00
        E 0 91 36 55
        E 16 b1 0b 33
        E 112 b1 0b 2a
        E 32 b1 0b 22
        E 16 b1 0b 55
        E 0 81 36 00
        E 0 91 3b 55
        E 16 b1 0b 33
        E 112 b1 0b 2a
        E 32 b1 0b 22
        E 16 b1 0b 55
        E 0 81 3b 00
        E 0 91 40 55
        E 16 b1 0b 33
        E 112 b1 0b 2a
        E 32 b1 0b 22
        E 16 b1 0b 55
        E 0 81 40 00
        E 0 91 36 55
        E 16 b1 0b 33
        E 112 b1 0b 2a
        E 32 b1 0b 22
        E 16 b1 0b 55
        E 0 81 36 00
        E 0 91 3f 55
        E 16 b1 0b 33
        E 112 b1 0b 2a
        E 32 b1 0b 22
        E 16 b1 0b 55
        E 0 81 3f 00
        E 0 91 36 55
        E 16 b1 0b 33
        E 112 b1 0b 2a
        E 32 b1 0b 22
        E 16 b1 0b 55
        E 0 81 36 00
        E 0 91 3d 55
        E 16 b1 0b 33
        E 112 b1 0b 2a
        E 32 b1 0b 22
        E 16 b1 0b 55
        E 0 81 3d 00
        E 0 91 36 55
        E 16 b1 0b 33
        E 112 b1 0b 2a
        E 32 b1 0b 22
        E 16 b1 0b 55
        E 0 81 36 00
        E 0 91 3b 55
        E 16 b1 0b 33
        E 128 b1 0b 2a
        E 32 b1 0b 55
        E 0 81 3b 00
        E 0 91 36 55
        E 16 b1 0b 33
        E 128 b1 0b 2a
        E 32 b1 0b 22
        E 16 b1 0b 55
        E 0 81 36 00
        E 0 91 3b 55
        E 16 b1 0b 33
        E 112 b1 0b 2a
        E 32 b1 0b 22
        E 16 b1 0b 55
        E 0 81 3b 00
        E 0 91 3d 55
        E 16 b1 0b 33
        E 112 b1 0b 2a
        E 32 b1 0b 22
        E 16 b1 0b 55
        E 0 81 3d 00
        E 0 91 36 55
        E 16 b1 0b 33
        E 112 b1 0b 2a
        E 32 b1 0b 22
        E 16 b1 0b 55
        E 0 81 36 00
        E 0 91 40 55
        E 16 b1 0b 33
        E 112 b1 0b 2a
        E 32 b1 0b 22
        E 16 b1 0b 55
        E 0 81 40 00
        E 0 91 36 55
        E 16 b1 0b 33
        E 112 b1 0b 2a
        E 32 b1 0b 22
        E 16 b1 0b 55
        E 0 81 36 00
        E 0 91 3f 55
        E 16 b1 0b 33
        E 112 b1 0b 2a
        E 32 b1 0b 22
        E 16 b1 0b 55
        E 0 81 3f 00
        E 0 91 36 55
        E 16 b1 0b 33
        E 112 b1 0b 2a
        E 32 b1 0b 22
        E 16 b1 0b 55
        E 0 81 36 00
        E 0 91 3b 55
        E 16 b1 0b 33
        E 112 b1 0b 2a
        E 32 b1 0b 22
        E 16 b1 0b 55
        E 0 81 3b 00
        E 0 91 40 55
        E 16 b1 0b 33
        E 112 b1 0b 2a
        E 32 b1 0b 22
        E 16 b1 0b 55
        E 0 81 40 00
        E 0 91 36 55
        E 16 b1 0b 33
        E 112 b1 0b 2a
        E 32 b1 0b 22
        E 16 b1 0b 55
        E 0 81 36 00
        E 0 91 3f 55
        E 16 b1 0b 33
        E 112 b1 0b 2a
        E 32 b1 0b 22
        E 16 b1 0b 55
        E 0 81 3f 00
        E 0 91 36 55
        E 16 b1 0b 33
        E 112 b1 0b 2a
        E 32 b1 0b 22
        E 16 b1 0b 55
        E 0 81 36 00
        E 0 91 3d 55
        E 16 b1 0b 33
        E 112 b1 0b 2a
        E 32 b1 0b 22
        E 16 b1 0b 55
        E 0 81 3d 00
        E 0 91 40 55
        E 16 b1 0b 33
        E 112 b1 0b 2a
        E 32 b1 0b 22
        E 48 b1 0c 40
        E 0 b1 0b 77
        E 0 81 40 00
        E 0 91 34 77
        E 16 b1 0b 4c
        E 16 b1 0b 33
        E 16 b1 0b 08
        E 16 b1 0b 11
        E 16 b1 0b 3b
        E 16 b1 0b 4c
        E 48 b1 0b 2a
        E 16 b1 0b 08
        E 16 b1 0b 77
        E 0 81 34 00
        E 0 91 2d 77
        E 16 b1 0b 4c
        E 16 b1 0b 33
        E 16 b1 0b 08
        E 16 b1 0b 11
        E 16 b1 0b 3b
        E 16 b1 0b 4c
        E 48 b1 0b 2a
        E 16 b1 0b 08
        E 16 b1 0b 77
        E 0 81 2d 00
        E 0 91 31 77
        E 16 b1 0b 4c
        E 16 b1 0b 33
        E 16 b1 0b 08
        E 16 b1 0b 11
        E 16 b1 0b 3b
        E 16 b1 0b 4c
        E 48 b1 0b 2a
        E 16 b1 0b 08
        E 16 b1 0b 77
        E 0 81 31 00
        E 0 91 2d 77
        E 16 b1 0b 4c
        E 16 b1 0b 33
        E 16 b1 0b 08
        E 16 b1 0b 11
        E 16 b1 0b 3b
        E 16 b1 0b 4c
        E 48 b1 0b 2a
        E 16 b1 0b 08
        E 16 b1 0b 77
        E 0 81 2d 00
        E 0 91 34 77
        E 16 b1 0b 4c
        E 16 b1 0b 33
        E 16 b1 0b 08
        E 16 b1 0b 11
        E 16 b1 0b 3b
        E 16 b1 0b 4c
        E 48 b1 0b 2a
        E 16 b1 0b 08
        E 16 b1 0b 77
        E 0 81 34 00
        E 0 91 2d 77
        E 16 b1 0b 4c
        E 16 b1 0b 33
        E 16 b1 0b 08
        E 16 b1 0b 11
        E 16 b1 0b 3b
        E 16 b1 0b 4c
        E 48 b1 0b 2a
        E 16 b1 0b 08
        E 16 b1 0b 77
        E 0 81 2d 00
        E 0 91 31 77
        E 16 b1 0b 4c
        E 16 b1 0b 33
        E 16 b1 0b 08
        E 16 b1 0b 11
        E 16 b1 0b 3b
        E 16 b1 0b 4c
        E 48 b1 0b 2a
        E 16 b1 0b 08
        E 16 b1 0b 77
        E 0 81 31 00
        E 0 91 2d 77
        E 16 b1 0b 4c
        E 16 b1 0b 33
        E 16 b1 0b 08
        E 16 b1 0b 11
        E 16 b1 0b 3b
        E 16 b1 0b 4c
        E 48 b1 0b 2a
        E 16 b1 0b 08
        E 16 b1 0b 77
        E 0 81 2d 00
        E 0 91 34 77
        E 16 b1 0b 4c
        E 16 b1 0b 33
        E 16 b1 0b 08
        E 16 b1 0b 11
        E 16 b1 0b 3b
        E 16 b1 0b 4c
        E 48 b1 0b 2a
        E 16 b1 0b 08
        E 16 b1 0b 19
        E 16 b1 0b 77
        E 0 81 34 00
        E 0 91 2d 77
        E 16 b1 0b 4c
        E 16 b1 0b 33
        E 16 b1 0b 08
        E 16 b1 0b 11
        E 16 b1 0b 3b
        E 16 b1 0b 4c
        E 32 b1 0b 44
        E 16 b1 0b 2a
        E 16 b1 0b 08
        E 16 b1 0b 77
        E 0 81 2d 00
        E 0 91 31 77
        E 16 b1 0b 4c
        E 16 b1 0b 33
        E 16 b1 0b 08
        E 16 b1 0b 11
        E 16 b1 0b 3b
        E 16 b1 0b 4c
        E 32 b1 0b 44
        E 16 b1 0b 2a
        E 16 b1 0b 08
        E 16 b1 0b 77
        E 0 81 31 00
        E 0 91 2d 77
        E 16 b1 0b 4c
        E 16 b1 0b 33
        E 16 b1 0b 08
        E 16 b1 0b 11
        E 16 b1 0b 3b
        E 16 b1 0b 4c
        E 32 b1 0b 44
        E 16 b1 0b 2a
        E 16 b1 0b 08
        E 16 b1 0b 77
        E 0 81 2d 00
        E 0 91 34 77
        E 16 b1 0b 4c
        E 16 b1 0b 33
        E 16 b1 0b 08
        E 16 b1 0b 11
        E 16 b1 0b 3b
        E 16 b1 0b 4c
        E 32 b1 0b 44
        E 16 b1 0b 2a
        E 16 b1 0b 08
        E 16 b1 0b 77
        E 0 81 34 00
        E 0 91 2d 77
        E 16 b1 0b 4c
        E 16 b1 0b 33
        E 16 b1 0b 08
        E 16 b1 0b 11
        E 16 b1 0b 3b
        E 16 b1 0b 4c
        E 32 b1 0b 44
        E 16 b1 0b 2a
        E 16 b1 0b 08
        E 16 b1 0b 77
        E 0 81 2d 00
        E 0 91 31 77
        E 16 b1 0b 4c
        E 16 b1 0b 33
        E 16 b1 0b 08
        E 16 b1 0b 11
        E 16 b1 0b 3b
        E 16 b1 0b 4c
        E 32 b1 0b 44
        E 16 b1 0b 2a
        E 16 b1 0b 08
        E 16 b1 0b 77
        E 0 81 31 00
        E 0 91 2d 77
        E 16 b1 0b 4c
        E 16 b1 0b 33
        E 16 b1 0b 08
        E 16 b1 0b 11
        E 16 b1 0b 3b
        E 16 b1 0b 4c
        E 32 b1 0b 44
        E 16 b1 0b 2a
        E 16 b1 0b 08
        E 16 b1 0b 77
        E 0 81 2d 00
        E 0 91 36 77
        E 16 b1 0b 4c
        E 16 b1 0b 33
        E 16 b1 0b 08
        E 16 b1 0b 11
        E 16 b1 0b 3b
        E 16 b1 0b 4c
        E 32 b1 0b 44
        E 16 b1 0b 2a
        E 16 b1 0b 08
        E 16 b1 0b 77
        E 0 81 36 00
        E 0 91 31 77
        E 16 b1 0b 4c
        E 16 b1 0b 33
        E 16 b1 0b 08
        E 16 b1 0b 11
        E 16 b1 0b 3b
        E 16 b1 0b 4c
        E 32 b1 0b 44
        E 16 b1 0b 2a
        E 16 b1 0b 08
        E 16 b1 0b 77
        E 0 81 31 00
        E 0 91 34 77
        E 16 b1 0b 4c
        E 16 b1 0b 33
        E 16 b1 0b 08
        E 16 b1 0b 11
        E 16 b1 0b 3b
        E 16 b1 0b 4c
        E 32 b1 0b 44
        E 16 b1 0b 2a
        E 16 b1 0b 08
        E 16 b1 0b 77
        E 0 81 34 00
        E 0 91 31 77
        E 16 b1 0b 4c
        E 16 b1 0b 33
        E 16 b1 0b 08
        E 16 b1 0b 11
        E 16 b1 0b 3b
        E 16 b1 0b 4c
        E 32 b1 0b 44
        E 16 b1 0b 2a
        E 16 b1 0b 08
        E 16 b1 0b 77
        E 0 81 31 00
        E 0 91 36 77
        E 16 b1 0b 4c
        E 16 b1 0b 33
        E 16 b1 0b 08
        E 16 b1 0b 11
        E 16 b1 0b 3b
        E 16 b1 0b 4c
        E 32 b1 0b 44
        E 16 b1 0b 2a
        E 16 b1 0b 08
        E 16 b1 0b 77
        E 0 81 36 00
        E 0 91 31 77
        E 16 b1 0b 4c
        E 16 b1 0b 33
        E 16 b1 0b 08
        E 16 b1 0b 11
        E 16 b1 0b 3b
        E 16 b1 0b 4c
        E 32 b1 0b 44
        E 16 b1 0b 2a
        E 16 b1 0b 08
        E 16 b1 0b 77
        E 0 81 31 00
        E 0 91 34 77
        E 16 b1 0b 4c
        E 16 b1 0b 33
        E 16 b1 0b 08
        E 16 b1 0b 11
        E 16 b1 0b 3b
        E 16 b1 0b 4c
        E 32 b1 0b 44
        E 16 b1 0b 2a
        E 16 b1 0b 08
        E 16 b1 0b 77
        E 0 81 34 00
        E 0 91 31 77
        E 16 b1 0b 4c
        E 16 b1 0b 33
        E 16 b1 0b 08
        E 16 b1 0b 11
        E 16 b1 0b 3b
        E 16 b1 0b 4c
        E 32 b1 0b 44
        E 16 b1 0b 2a
        E 16 b1 0b 08
        E 16 b1 0b 77
        E 0 81 31 00
        E 0 91 36 77
        E 16 b1 0b 4c
        E 16 b1 0b 33
        E 16 b1 0b 08
        E 16 b1 0b 11
        E 16 b1 0b 3b
        E 16 b1 0b 4c
        E 32 b1 0b 44
        E 16 b1 0b 2a
        E 16 b1 0b 08
        E 16 b1 0b 77
        E 0 81 36 00
        E 0 91 31 77
        E 16 b1 0b 4c
        E 16 b1 0b 33
        E 16 b1 0b 08
        E 16 b1 0b 11
        E 16 b1 0b 3b
        E 16 b1 0b 4c
        E 32 b1 0b 44
        E 16 b1 0b 2a
        E 16 b1 0b 08
        E 16 b1 0b 77
        E 0 81 31 00
        E 0 91 38 77
        E 16 b1 0b 4c
        E 16 b1 0b 33
        E 16 b1 0b 08
        E 16 b1 0b 11
        E 16 b1 0b 3b
        E 16 b1 0b 4c
        E 32 b1 0b 44
        E 16 b1 0b 2a
        E 16 b1 0b 08
        E 16 b1 0b 77
        E 0 81 38 00
        E 0 91 31 77
        E 16 b1 0b 4c
        E 16 b1 0b 33
        E 16 b1 0b 08
        E 16 b1 0b 11
        E 16 b1 0b 3b
        E 16 b1 0b 4c
        E 32 b1 0b 44
        E 16 b1 0b 2a
        E 16 b1 0b 08
        E 16 b1 0b 77
        E 0 81 31 00
        E 0 91 36 77
        E 16 b1 0b 4c
        E 16 b1 0b 33
        E 16 b1 0b 08
        E 16 b1 0b 11
        E 16 b1 0b 3b
        E 16 b1 0b 4c
        E 32 b1 0b 44
        E 16 b1 0b 2a
        E 16 b1 0b 08
        E 16 b1 0b 77
        E 0 81 36 00
        E 0 91 31 77
        E 16 b1 0b 4c
        E 16 b1 0b 33
        E 16 b1 0b 08
        E 16 b1 0b 11
        E 16 b1 0b 3b
        E 16 b1 0b 4c
        E 32 b1 0b 44
        E 16 b1 0b 2a
        E 16 b1 0b 08
        E 16 b1 0b 77
        E 0 81 31 00
        E 0 91 34 77
        E 16 b1 0b 4c
        E 16 b1 0b 33
        E 16 b1 0b 08
        E 16 b1 0b 11
        E 16 b1 0b 3b
        E 16 b1 0b 4c
        E 32 b1 0b 44
        E 16 b1 0b 2a
        E 16 b1 0b 08
        E 16 b1 0b 77
        E 0 81 34 00
        E 0 91 31 77
        E 16 b1 0b 4c
        E 16 b1 0b 33
        E 16 b1 0b 08
        E 16 b1 0b 11
        E 16 b1 0b 3b
        E 16 b1 0b 4c
        E 32 b1 0b 44
        E 16 b1 0b 2a
        E 16 b1 0b 08
        E 16 81 31 00
        E 16 91 3d 08
        E 16 b1 0b 22
        E 16 b1 0b 3b
        E 16 b1 0b 55
        E 16 b1 0b 4c
        E 256 b1 0b 44
        E 912 b1 0b 3b
        E 64 b1 0b 33
        E 64 b1 0b 2a
        E 32 81 3d 00
        E 16 b1 0b 08
        E 0 91 3b 08
        E 16 b1 0b 22
        E 16 b1 0b 3b
        E 16 b1 0b 55
        E 16 b1 0b 4c
        E 256 b1 0b 44
        E 912 b1 0b 3b
        E 64 b1 0b 33
        E 64 b1 0b 2a
        E 32 81 3b 00
        E 16 b1 0b 08
        E 0 91 40 08
        E 16 b1 0b 22
        E 16 b1 0b 3b
        E 16 b1 0b 55
        E 16 b1 0b 4c
        E 256 b1 0b 44
        E 912 b1 0b 3b
        E 64 b1 0b 33
        E 64 b1 0b 2a
        E 32 81 40 00
        E 16 b1 0b 08
        E 0 91 3f 08
        E 16 b1 0b 22
        E 16 b1 0b 3b
        E 16 b1 0b 55
        E 16 b1 0b 4c
        E 256 b1 0b 44
        E 224 b1 0b 3b
        E 128 b1 0b 33
        E 16 81 3f 00
        E 16 b1 0b 08
        E 0 91 3b 08
        E 16 b1 0b 22
        E 16 b1 0b 3b
        E 16 b1 0b 55
        E 16 b1 0b 4c
        E 256 b1 0b 44
        E 224 b1 0b 3b
        E 128 b1 0b 33
        E 16 81 3b 00
        E 16 b1 0b 08
        E 0 91 38 08
        E 16 b1 0b 22
        E 16 b1 0b 3b
        E 16 b1 0b 55
        E 16 b1 0b 4c
        E 256 b1 0b 44
        E 928 b1 0b 3b
        E 64 b1 0b 33
        E 64 b1 0b 2a
        E 16 81 38 00
        E 16 b1 0b 08
        E 0 91 36 08
        E 16 b1 0b 22
        E 16 b1 0b 3b
        E 16 b1 0b 55
        E 16 b1 0b 4c
        E 256 b1 0b 44
        E 928 b1 0b 3b
        E 64 b1 0b 33
        E 64 b1 0b 2a
        E 16 81 36 00
        E 16 b1 0b 08
        E 0 91 31 08
        E 16 b1 0b 22
        E 16 b1 0b 3b
        E 16 b1 0b 55
        E 16 b1 0b 4c
        E 256 b1 0b 44
        E 2176 b1 0b 3b
        E 64 b1 0b 33
        E 64 b1 0b 2a
        E 64 b1 0b 22
        E 64 b1 0b 19
        E 64 b1 0b 11
        E 64 b1 0b 08
        E 64 b1 0c 20
        E 0 b1 0b 55
        E 0 81 31 00
        E 0 91 36 55
        E 16 b1 0b 33
        E 112 b1 0b 2a
        E 32 b1 0b 22
        E 16 b1 0b 55
        E 0 81 36 00
        E 0 91 3b 55
        E 16 b1 0b 33
        E 112 b1 0b 2a
        E 32 b1 0b 22
        E 16 b1 0b 55
        E 0 81 3b 00
        E 0 91 3d 55
        E 16 b1 0b 33
        E 112 b1 0b 2a
        E 32 b1 0b 22
        E 16 b1 0b 55
        E 0 81 3d 00
        E 0 91 36 55
        E 16 b1 0b 33
        E 112 b1 0b 2a
        E 32 b1 0b 22
        E 16 b1 0b 55
        E 0 81 36 00
        E 0 91 40 55
        E 16 b1 0b 33
        E 112 b1 0b 2a
        E 32 b1 0b 22
        E 16 b1 0b 55
        E 0 81 40 00
        E 0 91 36 55
        E 16 b1 0b 33
        E 112 b1 0b 2a
        E 32 b1 0b 22
        E 16 b1 0b 55
        E 0 81 36 00
        E 0 91 3f 55
        E 16 b1 0b 33
        E 112 b1 0b 2a
        E 32 b1 0b 22
        E 16 b1 0b 55
        E 0 81 3f 00
        E 0 91 36 55
        E 16 b1 0b 33
        E 112 b1 0b 2a
        E 32 b1 0b 22
        E 16 b1 0b 55
        E 0 81 36 00
        E 0 91 3b 55
        E 16 b1 0b 33
        E 112 b1 0b 2a
        E 32 b1 0b 22
        E 16 b1 0b 55
        E 0 81 3b 00
        E 0 91 40 55
        E 16 b1 0b 33
        E 112 b1 0b 2a
        E 32 b1 0b 22
        E 16 b1 0b 55
        E 0 81 40 00
        E 0 91 36 55
        E 16 b1 0b 33
        E 112 b1 0b 2a
        E 32 b1 0b 22
        E 16 b1 0b 55
        E 0 81 36 00
        E 0 91 3f 55
        E 16 b1 0b 33
        E 112 b1 0b 2a
        E 32 b1 0b 22
        E 16 b1 0b 55
        E 0 81 3f 00
        E 0 91 36 55
        E 16 b1 0b 33
        E 112 b1 0b 2a
        E 32 b1 0b 22
        E 16 b1 0b 55
        E 0 81 36 00
        E 0 91 3d 55
        E 16 b1 0b 33
        E 112 b1 0b 2a
        E 32 b1 0b 22
        E 16 b1 0b 55
        E 0 81 3d 00
        E 0 91 36 55
        E 16 b1 0b 33
        E 112 b1 0b 2a
        E 32 b1 0b 22
        E 16 b1 0b 55
        E 0 81 36 00
        E 0 91 3b 55
        E 16 b1 0b 33
        E 128 b1 0b 2a
        E 32 b1 0b 55
        E 0 81 3b 00
        E 0 91 36 55
        E 16 b1 0b 33
        E 128 b1 0b 2a
        E 32 b1 0b 22
        E 16 b1 0b 55
        E 0 81 36 00
        E 0 91 3b 55
        E 16 b1 0b 33
        E 112 b1 0b 2a
        E 32 b1 0b 22
        E 16 b1 0b 55
        E 0 81 3b 00
        E 0 91 3d 55
        E 16 b1 0b 33
        E 112 b1 0b 2a
        E 32 b1 0b 22
        E 16 b1 0b 55
        E 0 81 3d 00
        E 0 91 36 55
        E 16 b1 0b 33
        E 112 b1 0b 2a
        E 32 b1 0b 22
        E 16 b1 0b 55
        E 0 81 36 00
        E 0 91 40 55
        E 16 b1 0b 33
        E 112 b1 0b 2a
        E 32 b1 0b 22
        E 16 b1 0b 55
        E 0 81 40 00
        E 0 91 36 55
        E 16 b1 0b 33
        E 112 b1 0b 2a
        E 32 b1 0b 22
        E 16 b1 0b 55
        E 0 81 36 00
        E 0 91 3f 55
        E 16 b1 0b 33
        E 112 b1 0b 2a
        E 32 b1 0b 22
        E 16 b1 0b 55
        E 0 81 3f 00
        E 0 91 36 55
        E 16 b1 0b 33
        E 112 b1 0b 2a
        E 32 b1 0b 22
        E 16 b1 0b 55
        E 0 81 36 00
        E 0 91 3b 55
        E 16 b1 0b 33
        E 112 b1 0b 2a
        E 32 b1 0b 22
        E 16 b1 0b 55
        E 0 81 3b 00
        E 0 91 40 55
        E 16 b1 0b 33
        E 112 b1 0b 2a
        E 32 b1 0b 22
        E 16 b1 0b 55
        E 0 81 40 00
        E 0 91 36 55
        E 16 b1 0b 33
        E 112 b1 0b 2a
        E 32 b1 0b 22
        E 16 b1 0b 55
        E 0 81 36 00
        E 0 91 3f 55
        E 16 b1 0b 33
        E 112 b1 0b 2a
        E 32 b1 0b 22
        E 16 b1 0b 55
        E 0 81 3f 00
        E 0 91 36 55
        E 16 b1 0b 33
        E 112 b1 0b 2a
        E 32 b1 0b 22
        E 16 b1 0b 55
        E 0 81 36 00
        E 0 91 3d 55
        E 16 b1 0b 33
        E 112 b1 0b 2a
        E 32 b1 0b 22
        E 16 b1 0b 55
        E 0 81 3d 00
        E 0 91 40 55
        E 16 b1 0b 33
        E 112 b1 0b 2a
        E 32 b1 0b 22
        E 48 b1 0c 40
        E 0 b1 0b 77
        E 0 81 40 00
        E 0 91 34 77
        E 16 b1 0b 4c
        E 16 b1 0b 33
        E 16 b1 0b 08
        E 16 b1 0b 11
        E 16 b1 0b 3b
        E 16 b1 0b 4c
        E 48 b1 0b 2a
        E 16 b1 0b 08
        E 16 b1 0b 77
        E 0 81 34 00
        E 0 91 2d 77
        E 16 b1 0b 4c
        E 16 b1 0b 33
        E 16 b1 0b 08
        E 16 b1 0b 11
        E 16 b1 0b 3b
        E 16 b1 0b 4c
        E 48 b1 0b 2a
        E 16 b1 0b 08
        E 16 b1 0b 77
        E 0 81 2d 00
        E 0 91 31 77
        E 16 b1 0b 4c
        E 16 b1 0b 33
        E 16 b1 0b 08
        E 16 b1 0b 11
        E 16 b1 0b 3b
        E 16 b1 0b 4c
        E 48 b1 0b 2a
        E 16 b1 0b 08
        E 16 b1 0b 77
        E 0 81 31 00
        E 0 91 2d 77
        E 16 b1 0b 4c
        E 16 b1 0b 33
        E 16 b1 0b 08
        E 16 b1 0b 11
        E 16 b1 0b 3b
        E 16 b1 0b 4c
        E 48 b1 0b 2a
        E 16 b1 0b 08
        E 16 b1 0b 77
        E 0 81 2d 00
        E 0 91 34 77
        E 16 b1 0b 4c
        E 16 b1 0b 33
        E 16 b1 0b 08
        E 16 b1 0b 11
        E 16 b1 0b 3b
        E 16 b1 0b 4c
        E 48 b1 0b 2a
        E 16 b1 0b 08
        E 16 b1 0b 77
        E 0 81 34 00
        E 0 91 2d 77
        E 16 b1 0b 4c
        E 16 b1 0b 33
        E 16 b1 0b 08
        E 16 b1 0b 11
        E 16 b1 0b 3b
        E 16 b1 0b 4c
        E 48 b1 0b 2a
        E 16 b1 0b 08
        E 16 b1 0b 77
        E 0 81 2d 00
        E 0 91 31 77
        E 16 b1 0b 4c
        E 16 b1 0b 33
        E 16 b1 0b 08
        E 16 b1 0b 11
        E 16 b1 0b 3b
        E 16 b1 0b 4c
        E 48 b1 0b 2a
        E 16 b1 0b 08
        E 16 b1 0b 77
        E 0 81 31 00
        E 0 91 2d 77
        E 16 b1 0b 4c
        E 16 b1 0b 33
        E 16 b1 0b 08
        E 16 b1 0b 11
        E 16 b1 0b 3b
        E 16 b1 0b 4c
        E 48 b1 0b 2a
        E 16 b1 0b 08
        E 16 b1 0b 77
        E 0 81 2d 00
        E 0 91 34 77
        E 16 b1 0b 4c
        E 16 b1 0b 33
        E 16 b1 0b 08
        E 16 b1 0b 11
        E 16 b1 0b 3b
        E 16 b1 0b 4c
        E 48 b1 0b 2a
        E 16 b1 0b 08
        E 16 b1 0b 19
        E 16 b1 0b 77
        E 0 81 34 00
        E 0 91 2d 77
        E 16 b1 0b 4c
        E 16 b1 0b 33
        E 16 b1 0b 08
        E 16 b1 0b 11
        E 16 b1 0b 3b
        E 16 b1 0b 4c
        E 32 b1 0b 44
        E 16 b1 0b 2a
        E 16 b1 0b 08
        E 16 b1 0b 77
        E 0 81 2d 00
        E 0 91 31 77
        E 16 b1 0b 4c
        E 16 b1 0b 33
        E 16 b1 0b 08
        E 16 b1 0b 11
        E 16 b1 0b 3b
        E 16 b1 0b 4c
        E 32 b1 0b 44
        E 16 b1 0b 2a
        E 16 b1 0b 08
        E 16 b1 0b 77
        E 0 81 31 00
        E 0 91 2d 77
        E 16 b1 0b 4c
        E 16 b1 0b 33
        E 16 b1 0b 08
        E 16 b1 0b 11
        E 16 b1 0b 3b
        E 16 b1 0b 4c
        E 32 b1 0b 44
        E 16 b1 0b 2a
        E 16 b1 0b 08
        E 16 b1 0b 77
        E 0 81 2d 00
        E 0 91 34 77
        E 16 b1 0b 4c
        E 16 b1 0b 33
        E 16 b1 0b 08
        E 16 b1 0b 11
        E 16 b1 0b 3b
        E 16 b1 0b 4c
        E 32 b1 0b 44
        E 16 b1 0b 2a
        E 16 b1 0b 08
        E 16 b1 0b 77
        E 0 81 34 00
        E 0 91 2d 77
        E 16 b1 0b 4c
        E 16 b1 0b 33
        E 16 b1 0b 08
        E 16 b1 0b 11
        E 16 b1 0b 3b
        E 16 b1 0b 4c
        E 32 b1 0b 44
        E 16 b1 0b 2a
        E 16 b1 0b 08
        E 16 b1 0b 77
        E 0 81 2d 00
        E 0 91 31 77
        E 16 b1 0b 4c
        E 16 b1 0b 33
        E 16 b1 0b 08
        E 16 b1 0b 11
        E 16 b1 0b 3b
        E 16 b1 0b 4c
        E 32 b1 0b 44
        E 16 b1 0b 2a
        E 16 b1 0b 08
        E 16 b1 0b 77
        E 0 81 31 00
        E 0 91 2d 77
        E 16 b1 0b 4c
        E 16 b1 0b 33
        E 16 b1 0b 08
        E 16 b1 0b 11
        E 16 b1 0b 3b
        E 16 b1 0b 4c
        E 32 b1 0b 44
        E 16 b1 0b 2a
        E 16 b1 0b 08
        E 16 b1 0b 77
        E 0 81 2d 00
        E 0 91 36 77
        E 16 b1 0b 4c
        E 16 b1 0b 33
        E 16 b1 0b 08
        E 16 b1 0b 11
        E 16 b1 0b 3b
        E 16 b1 0b 4c
        E 32 b1 0b 44
        E 16 b1 0b 2a
        E 16 b1 0b 08
        E 16 b1 0b 77
        E 0 81 36 00
        E 0 91 31 77
        E 16 b1 0b 4c
        E 16 b1 0b 33
        E 16 b1 0b 08
        E 16 b1 0b 11
        E 16 b1 0b 3b
        E 16 b1 0b 4c
        E 32 b1 0b 44
        E 16 b1 0b 2a
        E 16 b1 0b 08
        E 16 b1 0b 77
        E 0 81 31 00
        E 0 91 34 77
        E 16 b1 0b 4c
        E 16 b1 0b 33
        E 16 b1 0b 08
        E 16 b1 0b 11
        E 16 b1 0b 3b
        E 16 b1 0b 4c
        E 32 b1 0b 44
        E 16 b1 0b 2a
        E 16 b1 0b 08
        E 16 b1 0b 77
        E 0 81 34 00
        E 0 91 31 77
        E 16 b1 0b 4c
        E 16 b1 0b 33
        E 16 b1 0b 08
        E 16 b1 0b 11
        E 16 b1 0b 3b
        E 16 b1 0b 4c
        E 32 b1 0b 44
        E 16 b1 0b 2a
        E 16 b1 0b 08
        E 16 b1 0b 77
        E 0 81 31 00
        E 0 91 36 77
        E 16 b1 0b 4c
        E 16 b1 0b 33
        E 16 b1 0b 08
        E 16 b1 0b 11
        E 16 b1 0b 3b
        E 16 b1 0b 4c
        E 32 b1 0b 44
        E 16 b1 0b 2a
        E 16 b1 0b 08
        E 16 b1 0b 77
        E 0 81 36 00
        E 0 91 31 77
        E 16 b1 0b 4c
        E 16 b1 0b 33
        E 16 b1 0b 08
        E 16 b1 0b 11
        E 16 b1 0b 3b
        E 16 b1 0b 4c
        E 32 b1 0b 44
        E 16 b1 0b 2a
        E 16 b1 0b 08
        E 16 b1 0b 77
        E 0 81 31 00
        E 0 91 34 77
        E 16 b1 0b 4c
        E 16 b1 0b 33
        E 16 b1 0b 08
        E 16 b1 0b 11
        E 16 b1 0b 3b
        E 16 b1 0b 4c
        E 32 b1 0b 44
        E 16 b1 0b 2a
        E 16 b1 0b 08
        E 16 b1 0b 77
        E 0 81 34 00
        E 0 91 31 77
        E 16 b1 0b 4c
        E 16 b1 0b 33
        E 16 b1 0b 08
        E 16 b1 0b 11
        E 16 b1 0b 3b
        E 16 b1 0b 4c
        E 32 b1 0b 44
        E 16 b1 0b 2a
        E 16 b1 0b 08
        E 16 b1 0b 77
        E 0 81 31 00
        E 0 91 36 77
        E 16 b1 0b 4c
        E 16 b1 0b 33
        E 16 b1 0b 08
        E 16 b1 0b 11
        E 16 b1 0b 3b
        E 16 b1 0b 4c
        E 32 b1 0b 44
        E 16 b1 0b 2a
        E 16 b1 0b 08
        E 16 b1 0b 77
        E 0 81 36 00
        E 0 91 31 77
        E 16 b1 0b 4c
        E 16 b1 0b 33
        E 16 b1 0b 08
        E 16 b1 0b 11
        E 16 b1 0b 3b
        E 16 b1 0b 4c
        E 32 b1 0b 44
        E 16 b1 0b 2a
        E 16 b1 0b 08
        E 16 b1 0b 77
        E 0 81 31 00
        E 0 91 38 77
        E 16 b1 0b 4c
        E 16 b1 0b 33
        E 16 b1 0b 08
        E 16 b1 0b 11
        E 16 b1 0b 3b
        E 16 b1 0b 4c
        E 32 b1 0b 44
        E 16 b1 0b 2a
        E 16 b1 0b 08
        E 16 b1 0b 77
        E 0 81 38 00
        E 0 91 31 77
        E 16 b1 0b 4c
        E 16 b1 0b 33
        E 16 b1 0b 08
        E 16 b1 0b 11
        E 16 b1 0b 3b
        E 16 b1 0b 4c
        E 32 b1 0b 44
        E 16 b1 0b 2a
        E 16 b1 0b 08
        E 16 b1 0b 77
        E 0 81 31 00
        E 0 91 36 77
        E 16 b1 0b 4c
        E 16 b1 0b 33
        E 16 b1 0b 08
        E 16 b1 0b 11
        E 16 b1 0b 3b
        E 16 b1 0b 4c
        E 32 b1 0b 44
        E 16 b1 0b 2a
        E 16 b1 0b 08
        E 16 b1 0b 77
        E 0 81 36 00
        E 0 91 31 77
        E 16 b1 0b 4c
        E 16 b1 0b 33
        E 16 b1 0b 08
        E 16 b1 0b 11
        E 16 b1 0b 3b
        E 16 b1 0b 4c
        E 32 b1 0b 44
        E 16 b1 0b 2a
        E 16 b1 0b 08
        E 16 b1 0b 77
        E 0 81 31 00
        E 0 91 34 77
        E 16 b1 0b 4c
        E 16 b1 0b 33
        E 16 b1 0b 08
        E 16 b1 0b 11
        E 16 b1 0b 3b
        E 16 b1 0b 4c
        E 32 b1 0b 44
        E 16 b1 0b 2a
        E 16 b1 0b 08
        E 16 b1 0b 77
        E 0 81 34 00
        E 0 91 31 77
        E 16 b1 0b 4c
        E 16 b1 0b 33
        E 16 b1 0b 08
        E 16 b1 0b 11
        E 16 b1 0b 3b
        E 16 b1 0b 4c
        E 32 b1 0b 44
        E 16 b1 0b 2a
        E 16 b1 0b 08
        E 16 81 31 00
        E 16 91 3d 08
        E 16 b1 0b 22
        E 16 b1 0b 3b
        E 16 b1 0b 55
        E 16 b1 0b 4c
        E 256 b1 0b 44
        E 912 b1 0b 3b
        E 64 b1 0b 33
        E 64 b1 0b 2a
        E 32 81 3d 00
        E 16 b1 0b 08
        E 0 91 3b 08
        E 16 b1 0b 22
        E 16 b1 0b 3b
        E 16 b1 0b 55
        E 16 b1 0b 4c
        E 256 b1 0b 44
        E 912 b1 0b 3b
        E 64 b1 0b 33
        E 64 b1 0b 2a
        E 32 81 3b 00
        E 16 b1 0b 08
        E 0 91 40 08
        E 16 b1 0b 22
        E 16 b1 0b 3b
        E 16 b1 0b 55
        E 16 b1 0b 4c
        E 256 b1 0b 44
        E 912 b1 0b 3b
        E 64 b1 0b 33
        E 64 b1 0b 2a
        E 32 81 40 00
        E 16 b1 0b 08
        E 0 91 3f 08
        E 16 b1 0b 22
        E 16 b1 0b 3b
        E 16 b1 0b 55
        E 16 b1 0b 4c
        E 256 b1 0b 44
        E 224 b1 0b 3b
        E 128 b1 0b 33
        E 16 81 3f 00
        E 16 b1 0b 08
        E 0 91 3b 08
        E 16 b1 0b 22
        E 16 b1 0b 3b
        E 16 b1 0b 55
        E 16 b1 0b 4c
        E 256 b1 0b 44
        E 224 b1 0b 3b
        E 128 b1 0b 33
        E 16 81 3b 00
        E 16 b1 0b 08
        E 0 91 38 08
        E 16 b1 0b 22
        E 16 b1 0b 3b
        E 16 b1 0b 55
        E 16 b1 0b 4c
        E 256 b1 0b 44
        E 928 b1 0b 3b
        E 64 b1 0b 33
        E 64 b1 0b 2a
        E 16 81 38 00
        E 16 b1 0b 08
        E 0 91 36 08
        E 16 b1 0b 22
        E 16 b1 0b 3b
        E 16 b1 0b 55
        E 16 b1 0b 4c
        E 256 b1 0b 44
        E 928 b1 0b 3b
        E 64 b1 0b 33
        E 64 b1 0b 2a
        E 16 81 36 00
        E 16 b1 0b 08
        E 0 91 31 08
        E 16 b1 0b 22
        E 16 b1 0b 3b
        E 16 b1 0b 55
        E 16 b1 0b 4c
        E 256 b1 0b 44
        E 2176 b1 0b 3b
        E 64 b1 0b 33
        E 64 b1 0b 2a
        E 64 b1 0b 22
        E 64 b1 0b 19
        E 64 b1 0b 11
        E 64 b1 0b 08
        E 64 b1 0c 20
        E 0 b1 0b 55
        E 0 81 31 00
        E 0 91 36 55
        E 16 b1 0b 33
        E 112 b1 0b 2a
        E 32 b1 0b 22
        E 16 b1 0b 55
        E 0 81 36 00
        E 0 91 3b 55
        E 16 b1 0b 33
        E 112 b1 0b 2a
        E 32 b1 0b 22
        E 16 b1 0b 55
        E 0 81 3b 00
        E 0 91 3d 55
        E 16 b1 0b 33
        E 112 b1 0b 2a
        E 32 b1 0b 22
        E 16 b1 0b 55
        E 0 81 3d 00
        E 0 91 36 55
        E 16 b1 0b 33
        E 112 b1 0b 2a
        E 32 b1 0b 22
        E 16 b1 0b 55
        E 0 81 36 00
        E 0 91 40 55
        E 16 b1 0b 33
        E 112 b1 0b 2a
        E 32 b1 0b 22
        E 16 b1 0b 55
        E 0 81 40 00
        E 0 91 36 55
        E 16 b1 0b 33
        E 112 b1 0b 2a
        E 32 b1 0b 22
        E 16 b1 0b 55
        E 0 81 36 00
        E 0 91 3f 55
        E 16 b1 0b 33
        E 112 b1 0b 2a
        E 32 b1 0b 22
        E 16 b1 0b 55
        E 0 81 3f 00
        E 0 91 36 55
        E 16 b1 0b 33
        E 112 b1 0b 2a
        E 32 b1 0b 22
        E 16 b1 0b 55
        E 0 81 36 00
        E 0 91 3b 55
        E 16 b1 0b 33
        E 112 b1 0b 2a
        E 32 b1 0b 22
        E 16 b1 0b 55
        E 0 81 3b 00
        E 0 91 40 55
        E 16 b1 0b 33
        E 112 b1 0b 2a
        E 32 b1 0b 22
        E 16 b1 0b 55
        E 0 81 40 00
        E 0 91 36 55
        E 16 b1 0b 33
        E 112 b1 0b 2a
        E 32 b1 0b 22
        E 16 b1 0b 55
        E 0 81 36 00
        E 0 91 3f 55
        E 16 b1 0b 33
        E 112 b1 0b 2a
        E 32 b1 0b 22
        E 16 b1 0b 55
        E 0 81 3f 00
        E 0 91 36 55
        E 16 b1 0b 33
        E 112 b1 0b 2a
        E 32 b1 0b 22
        E 16 b1 0b 55
        E 0 81 36 00
        E 0 91 3d 55
        E 16 b1 0b 33
        E 112 b1 0b 2a
        E 32 b1 0b 22
        E 16 b1 0b 55
        E 0 81 3d 00
        E 0 91 36 55
        E 16 b1 0b 33
        E 112 b1 0b 2a
        E 32 b1 0b 22
        E 16 b1 0b 55
        E 0 81 36 00
        E 0 91 3b 55
        E 16 b1 0b 33
        E 128 b1 0b 2a
        E 32 b1 0b 55
        E 0 81 3b 00
        E 0 91 36 55
        E 16 b1 0b 33
        E 128 b1 0b 2a
        E 32 b1 0b 22
        E 16 b1 0b 55
        E 0 81 36 00
        E 0 91 3b 55
        E 16 b1 0b 33
        E 112 b1 0b 2a
        E 32 b1 0b 22
        E 16 b1 0b 55
        E 0 81 3b 00
        E 0 91 3d 55
        E 16 b1 0b 33
        E 112 b1 0b 2a
        E 32 b1 0b 22
        E 16 b1 0b 55
        E 0 81 3d 00
        E 0 91 36 55
        E 16 b1 0b 33
        E 112 b1 0b 2a
        E 32 b1 0b 22
        E 16 b1 0b 55
        E 0 81 36 00
        E 0 91 40 55
        E 16 b1 0b 33
        E 16 81 40 00
        E 0 b1 7b 00
        E 0 ff 2f 00
      >
    >
  >
  <TRACK {49545E28-5213-4F37-976E-AEC18FFE3597}
    NAME "NES - Triangle [ch2]"
    PEAKCOL 16744192
    BEAT -1
    AUTOMODE 0
    PANLAWFLAGS 3
    VOLPAN 1 0 -1 -1 1
    MUTESOLO 0 0 0
    IPHASE 0
    PLAYOFFS 0 1
    ISBUS 0 0
    BUSCOMP 0 0 0 0 0
    SHOWINMIX 1 0.6667 0.5 1 0.5 0 0 0
    FIXEDLANES 9 0 0 0 0
    SEL 0
    REC 0 5088 1 0 0 0 0 0
    VU 2
    TRACKHEIGHT 0 0 0 0 0 0 0
    INQ 0 0 0 0.5 100 0 0 100
    NCHAN 2
    FX 1
    TRACKID {49545E28-5213-4F37-976E-AEC18FFE3597}
    PERF 0
    MIDIOUT -1
    MAINSEND 1 0
    <FXCHAIN
      WNDRECT 24 52 700 560
      SHOW 0
      LASTSEL 0
      DOCKED 0
      BYPASS 0 0 0
      <JS "ReapNES Studio/ReapNES_Console.jsfx" ""
        2 15 1 10 80 10 100 2 1 15 1 5 60 10 80 1 1 0 30 0 0 15 1 0 100 0 0 0.500000 0.500000 0.400000 0.300000 0.800000 2 1 0 0 0 0 - - - - - - - - - - - - - - - - - - - - - - - - - -
      >
      FLOATPOS 0 0 0 0
      FXID {D8D6833B-0293-4D54-B7A5-47915C8593E3}
      WAK 0 0
    >
    <ITEM
      POSITION 0
      LENGTH 74.55676740000001
      LOOP 0
      ALLTAKES 0
      FADEIN 0 0 0 0 0 0 0
      FADEOUT 0 0 0 0 0 0 0
      MUTE 0 0
      SEL 0
      IGUID {55BEAC0F-D201-4075-A88C-67A2F1C91A4A}
      <SOURCE MIDI
        HASDATA 1 480 QN
        CCINTERP 32
        E 0 c2 26
        E 368 b2 0b 7f
        E 0 92 28 7f
        E 1056 82 28 00
        E 16 b2 0b 7f
        E 0 92 28 7f
        E 160 82 28 00
        E 16 b2 0b 7f
        E 0 92 2a 7f
        E 176 82 2a 00
        E 16 b2 0b 7f
        E 0 92 23 7f
        E 880 82 23 00
        E 16 b2 0b 7f
        E 0 92 25 7f
        E 160 82 25 00
        E 192 b2 0b 7f
        E 0 92 26 7f
        E 1424 82 26 00
        E 16 b2 0b 7f
        E 0 92 29 7f
        E 176 82 29 00
        E 16 b2 0b 7f
        E 0 92 2a 7f
        E 1424 82 2a 00
        E 16 b2 0b 7f
        E 0 92 28 7f
        E 1424 82 28 00
        E 16 b2 0b 7f
        E 0 92 26 7f
        E 2144 82 26 00
        E 16 b2 0b 7f
        E 0 92 26 7f
        E 160 82 26 00
        E 16 b2 0b 7f
        E 0 92 28 7f
        E 528 82 28 00
        E 16 b2 0b 7f
        E 0 92 2a 7f
        E 1424 82 2a 00
        E 16 b2 0b 7f
        E 0 92 28 7f
        E 1056 82 28 00
        E 16 b2 0b 7f
        E 0 92 28 7f
        E 176 82 28 00
        E 0 b2 0b 7f
        E 0 92 2a 7f
        E 176 82 2a 00
        E 16 b2 0b 7f
        E 0 92 23 7f
        E 1056 82 23 00
        E 192 b2 0b 7f
        E 0 92 24 7f
        E 176 82 24 00
        E 16 b2 0b 7f
        E 0 92 25 7f
        E 1424 82 25 00
        E 16 b2 0b 7f
        E 0 92 2a 7f
        E 1056 82 2a 00
        E 16 b2 0b 7f
        E 0 92 2a 7f
        E 176 82 2a 00
        E 16 b2 0b 7f
        E 0 92 29 7f
        E 160 82 29 00
        E 16 b2 0b 7f
        E 0 92 28 7f
        E 1056 82 28 00
        E 16 b2 0b 7f
        E 0 92 28 7f
        E 176 82 28 00
        E 16 b2 0b 7f
        E 0 92 27 7f
        E 160 82 27 00
        E 16 b2 0b 7f
        E 0 92 26 7f
        E 1424 82 26 00
        E 16 b2 0b 7f
        E 0 92 31 7f
        E 1424 82 31 00
        E 16 b2 0b 7f
        E 0 92 26 7f
        E 80 82 26 00
        E 16 b2 0b 7f
        E 0 92 26 7f
        E 80 82 26 00
        E 16 b2 0b 7f
        E 0 92 26 7f
        E 64 82 26 00
        E 32 b2 0b 7f
        E 0 92 26 7f
        E 64 82 26 00
        E 112 b2 0b 7f
        E 0 92 26 7f
        E 80 82 26 00
        E 112 b2 0b 7f
        E 0 92 26 7f
        E 64 82 26 00
        E 112 b2 0b 7f
        E 0 92 26 7f
        E 80 82 26 00
        E 112 b2 0b 7f
        E 0 92 26 7f
        E 64 82 26 00
        E 32 b2 0b 7f
        E 0 92 26 7f
        E 64 82 26 00
        E 112 b2 0b 7f
        E 0 92 26 7f
        E 64 82 26 00
        E 128 b2 0b 7f
        E 0 92 28 7f
        E 64 82 28 00
        E 32 b2 0b 7f
        E 0 92 28 7f
        E 64 82 28 00
        E 32 b2 0b 7f
        E 0 92 28 7f
        E 64 82 28 00
        E 16 b2 0b 7f
        E 0 92 28 7f
        E 80 82 28 00
        E 112 b2 0b 7f
        E 0 92 28 7f
        E 64 82 28 00
        E 112 b2 0b 7f
        E 0 92 28 7f
        E 80 82 28 00
        E 112 b2 0b 7f
        E 0 92 28 7f
        E 64 82 28 00
        E 112 b2 0b 7f
        E 0 92 28 7f
        E 80 82 28 00
        E 16 b2 0b 7f
        E 0 92 28 7f
        E 64 82 28 00
        E 128 b2 0b 7f
        E 0 92 28 7f
        E 64 82 28 00
        E 112 b2 0b 7f
        E 0 92 2a 7f
        E 288 82 2a 00
        E 80 b2 0b 7f
        E 0 92 2c 7f
        E 288 82 2c 00
        E 80 b2 0b 7f
        E 0 92 2d 7f
        E 288 82 2d 00
        E 80 b2 0b 7f
        E 0 92 2f 7f
        E 288 82 2f 00
        E 80 b2 0b 7f
        E 0 92 38 7f
        E 160 82 38 00
        E 112 b2 0b 7f
        E 0 92 38 7f
        E 160 82 38 00
        E 128 b2 0b 7f
        E 0 92 38 7f
        E 160 82 38 00
        E 112 b2 0b 7f
        E 0 92 38 7f
        E 160 82 38 00
        E 112 b2 0b 7f
        E 0 92 3a 7f
        E 80 82 3a 00
        E 16 b2 0b 7f
        E 0 92 3a 7f
        E 80 82 3a 00
        E 16 b2 0b 7f
        E 0 92 3a 7f
        E 160 82 3a 00
        E 16 b2 0b 7f
        E 0 92 2a 7f
        E 80 82 2a 00
        E 112 b2 0b 7f
        E 0 92 2a 7f
        E 64 82 2a 00
        E 16 b2 0b 7f
        E 0 92 2a 7f
        E 64 82 2a 00
        E 32 b2 0b 7f
        E 0 92 36 7f
        E 160 82 36 00
        E 16 b2 0b 7f
        E 0 92 2a 7f
        E 64 82 2a 00
        E 16 b2 0b 7f
        E 0 92 2a 7f
        E 64 82 2a 00
        E 32 b2 0b 7f
        E 0 92 2a 7f
        E 64 82 2a 00
        E 112 b2 0b 7f
        E 0 92 2a 7f
        E 64 82 2a 00
        E 16 b2 0b 7f
        E 0 92 2a 7f
        E 64 82 2a 00
        E 32 b2 0b 7f
        E 0 92 36 7f
        E 160 82 36 00
        E 16 b2 0b 7f
        E 0 92 2a 7f
        E 64 82 2a 00
        E 16 b2 0b 7f
        E 0 92 2a 7f
        E 64 82 2a 00
        E 32 b2 0b 7f
        E 0 92 2a 7f
        E 64 82 2a 00
        E 112 b2 0b 7f
        E 0 92 2a 7f
        E 64 82 2a 00
        E 16 b2 0b 7f
        E 0 92 2a 7f
        E 80 82 2a 00
        E 16 b2 0b 7f
        E 0 92 36 7f
        E 160 82 36 00
        E 16 b2 0b 7f
        E 0 92 2a 7f
        E 64 82 2a 00
        E 16 b2 0b 7f
        E 0 92 2a 7f
        E 80 82 2a 00
        E 16 b2 0b 7f
        E 0 92 2a 7f
        E 64 82 2a 00
        E 112 b2 0b 7f
        E 0 92 2a 7f
        E 64 82 2a 00
        E 16 b2 0b 7f
        E 0 92 2a 7f
        E 80 82 2a 00
        E 16 b2 0b 7f
        E 0 92 36 7f
        E 160 82 36 00
        E 16 b2 0b 7f
        E 0 92 2a 7f
        E 64 82 2a 00
        E 16 b2 0b 7f
        E 0 92 2a 7f
        E 80 82 2a 00
        E 16 b2 0b 7f
        E 0 92 2a 7f
        E 64 82 2a 00
        E 112 b2 0b 7f
        E 0 92 2a 7f
        E 64 82 2a 00
        E 32 b2 0b 7f
        E 0 92 2a 7f
        E 64 82 2a 00
        E 16 b2 0b 7f
        E 0 92 36 7f
        E 160 82 36 00
        E 16 b2 0b 7f
        E 0 92 2a 7f
        E 64 82 2a 00
        E 32 b2 0b 7f
        E 0 92 2a 7f
        E 64 82 2a 00
        E 16 b2 0b 7f
        E 0 92 2a 7f
        E 64 82 2a 00
        E 112 b2 0b 7f
        E 0 92 2a 7f
        E 64 82 2a 00
        E 32 b2 0b 7f
        E 0 92 2a 7f
        E 64 82 2a 00
        E 16 b2 0b 7f
        E 0 92 36 7f
        E 160 82 36 00
        E 16 b2 0b 7f
        E 0 92 2a 7f
        E 64 82 2a 00
        E 32 b2 0b 7f
        E 0 92 2a 7f
        E 64 82 2a 00
        E 16 b2 0b 7f
        E 0 92 2a 7f
        E 64 82 2a 00
        E 112 b2 0b 7f
        E 0 92 2a 7f
        E 64 82 2a 00
        E 32 b2 0b 7f
        E 0 92 2a 7f
        E 64 82 2a 00
        E 16 b2 0b 7f
        E 0 92 36 7f
        E 160 82 36 00
        E 16 b2 0b 7f
        E 0 92 2a 7f
        E 64 82 2a 00
        E 32 b2 0b 7f
        E 0 92 2a 7f
        E 64 82 2a 00
        E 16 b2 0b 7f
        E 0 92 2a 7f
        E 64 82 2a 00
        E 112 b2 0b 7f
        E 0 92 2a 7f
        E 80 82 2a 00
        E 16 b2 0b 7f
        E 0 92 2a 7f
        E 64 82 2a 00
        E 16 b2 0b 7f
        E 0 92 36 7f
        E 160 82 36 00
        E 16 b2 0b 7f
        E 0 92 2a 7f
        E 80 82 2a 00
        E 16 b2 0b 7f
        E 0 92 2a 7f
        E 64 82 2a 00
        E 16 b2 0b 7f
        E 0 92 2d 7f
        E 80 82 2d 00
        E 96 b2 0b 7f
        E 0 92 2d 7f
        E 80 82 2d 00
        E 16 b2 0b 7f
        E 0 92 2d 7f
        E 64 82 2d 00
        E 16 b2 0b 7f
        E 0 92 36 7f
        E 176 82 36 00
        E 0 b2 0b 7f
        E 0 92 2d 7f
        E 80 82 2d 00
        E 16 b2 0b 7f
        E 0 92 2d 7f
        E 64 82 2d 00
        E 16 b2 0b 7f
        E 0 92 2d 7f
        E 80 82 2d 00
        E 96 b2 0b 7f
        E 0 92 2d 7f
        E 80 82 2d 00
        E 16 b2 0b 7f
        E 0 92 2d 7f
        E 64 82 2d 00
        E 16 b2 0b 7f
        E 0 92 36 7f
        E 176 82 36 00
        E 0 b2 0b 7f
        E 0 92 2d 7f
        E 80 82 2d 00
        E 16 b2 0b 7f
        E 0 92 2d 7f
        E 64 82 2d 00
        E 16 b2 0b 7f
        E 0 92 2f 7f
        E 80 82 2f 00
        E 112 b2 0b 7f
        E 0 92 2f 7f
        E 64 82 2f 00
        E 16 b2 0b 7f
        E 0 92 2f 7f
        E 64 82 2f 00
        E 32 b2 0b 7f
        E 0 92 36 7f
        E 160 82 36 00
        E 16 b2 0b 7f
        E 0 92 2f 7f
        E 64 82 2f 00
        E 16 b2 0b 7f
        E 0 92 2f 7f
        E 64 82 2f 00
        E 32 b2 0b 7f
        E 0 92 2f 7f
        E 64 82 2f 00
        E 112 b2 0b 7f
        E 0 92 2f 7f
        E 64 82 2f 00
        E 16 b2 0b 7f
        E 0 92 2f 7f
        E 64 82 2f 00
        E 32 b2 0b 7f
        E 0 92 36 7f
        E 160 82 36 00
        E 16 b2 0b 7f
        E 0 92 2f 7f
        E 64 82 2f 00
        E 16 b2 0b 7f
        E 0 92 2f 7f
        E 64 82 2f 00
        E 32 b2 0b 7f
        E 0 92 25 7f
        E 64 82 25 00
        E 112 b2 0b 7f
        E 0 92 25 7f
        E 64 82 25 00
        E 16 b2 0b 7f
        E 0 92 25 7f
        E 64 82 25 00
        E 32 b2 0b 7f
        E 0 92 36 7f
        E 160 82 36 00
        E 16 b2 0b 7f
        E 0 92 25 7f
        E 64 82 25 00
        E 16 b2 0b 7f
        E 0 92 25 7f
        E 64 82 25 00
        E 32 b2 0b 7f
        E 0 92 25 7f
        E 64 82 25 00
        E 112 b2 0b 7f
        E 0 92 25 7f
        E 64 82 25 00
        E 16 b2 0b 7f
        E 0 92 25 7f
        E 64 82 25 00
        E 32 b2 0b 7f
        E 0 92 36 7f
        E 160 82 36 00
        E 16 b2 0b 7f
        E 0 92 25 7f
        E 64 82 25 00
        E 16 b2 0b 7f
        E 0 92 25 7f
        E 64 82 25 00
        E 32 b2 0b 7f
        E 0 92 25 7f
        E 64 82 25 00
        E 112 b2 0b 7f
        E 0 92 25 7f
        E 64 82 25 00
        E 16 b2 0b 7f
        E 0 92 25 7f
        E 64 82 25 00
        E 32 b2 0b 7f
        E 0 92 36 7f
        E 160 82 36 00
        E 16 b2 0b 7f
        E 0 92 25 7f
        E 64 82 25 00
        E 16 b2 0b 7f
        E 0 92 25 7f
        E 64 82 25 00
        E 32 b2 0b 7f
        E 0 92 3a 7f
        E 64 82 3a 00
        E 16 b2 0b 7f
        E 0 92 3a 7f
        E 80 82 3a 00
        E 16 b2 0b 7f
        E 0 92 35 7f
        E 128 82 35 00
        E 0 b2 0b 7f
        E 0 92 2c 7f
        E 16 82 2c 00
        E 32 b2 0b 7f
        E 0 92 3a 7f
        E 64 82 3a 00
        E 16 b2 0b 7f
        E 0 92 3a 7f
        E 80 82 3a 00
        E 16 b2 0b 7f
        E 0 92 35 7f
        E 128 82 35 00
        E 0 b2 0b 7f
        E 0 92 2c 7f
        E 16 82 2c 00
        E 32 b2 0b 7f
        E 0 92 2d 7f
        E 64 82 2d 00
        E 112 b2 0b 7f
        E 0 92 2d 7f
        E 64 82 2d 00
        E 16 b2 0b 7f
        E 0 92 2d 7f
        E 64 82 2d 00
        E 32 b2 0b 7f
        E 0 92 36 7f
        E 160 82 36 00
        E 16 b2 0b 7f
        E 0 92 2d 7f
        E 64 82 2d 00
        E 16 b2 0b 7f
        E 0 92 2d 7f
        E 64 82 2d 00
        E 32 b2 0b 7f
        E 0 92 2d 7f
        E 64 82 2d 00
        E 112 b2 0b 7f
        E 0 92 2d 7f
        E 64 82 2d 00
        E 16 b2 0b 7f
        E 0 92 2d 7f
        E 64 82 2d 00
        E 32 b2 0b 7f
        E 0 92 36 7f
        E 160 82 36 00
        E 16 b2 0b 7f
        E 0 92 2d 7f
        E 64 82 2d 00
        E 16 b2 0b 7f
        E 0 92 2d 7f
        E 64 82 2d 00
        E 32 b2 0b 7f
        E 0 92 2f 7f
        E 64 82 2f 00
        E 112 b2 0b 7f
        E 0 92 2f 7f
        E 64 82 2f 00
        E 16 b2 0b 7f
        E 0 92 2f 7f
        E 64 82 2f 00
        E 32 b2 0b 7f
        E 0 92 36 7f
        E 160 82 36 00
        E 16 b2 0b 7f
        E 0 92 2f 7f
        E 64 82 2f 00
        E 16 b2 0b 7f
        E 0 92 2f 7f
        E 80 82 2f 00
        E 16 b2 0b 7f
        E 0 92 2f 7f
        E 64 82 2f 00
        E 112 b2 0b 7f
        E 0 92 2f 7f
        E 64 82 2f 00
        E 16 b2 0b 7f
        E 0 92 2f 7f
        E 80 82 2f 00
        E 16 b2 0b 7f
        E 0 92 36 7f
        E 160 82 36 00
        E 16 b2 0b 7f
        E 0 92 2f 7f
        E 64 82 2f 00
        E 16 b2 0b 7f
        E 0 92 2f 7f
        E 80 82 2f 00
        E 16 b2 0b 7f
        E 0 92 31 7f
        E 64 82 31 00
        E 112 b2 0b 7f
        E 0 92 31 7f
        E 64 82 31 00
        E 16 b2 0b 7f
        E 0 92 31 7f
        E 80 82 31 00
        E 16 b2 0b 7f
        E 0 92 36 7f
        E 160 82 36 00
        E 16 b2 0b 7f
        E 0 92 31 7f
        E 64 82 31 00
        E 16 b2 0b 7f
        E 0 92 31 7f
        E 80 82 31 00
        E 16 b2 0b 7f
        E 0 92 31 7f
        E 64 82 31 00
        E 112 b2 0b 7f
        E 0 92 31 7f
        E 64 82 31 00
        E 16 b2 0b 7f
        E 0 92 31 7f
        E 80 82 31 00
        E 16 b2 0b 7f
        E 0 92 36 7f
        E 160 82 36 00
        E 16 b2 0b 7f
        E 0 92 31 7f
        E 64 82 31 00
        E 32 b2 0b 7f
        E 0 92 31 7f
        E 64 82 31 00
        E 16 b2 0b 7f
        E 0 92 31 7f
        E 64 82 31 00
        E 112 b2 0b 7f
        E 0 92 31 7f
        E 64 82 31 00
        E 32 b2 0b 7f
        E 0 92 31 7f
        E 64 82 31 00
        E 16 b2 0b 7f
        E 0 92 36 7f
        E 160 82 36 00
        E 16 b2 0b 7f
        E 0 92 31 7f
        E 64 82 31 00
        E 32 b2 0b 7f
        E 0 92 31 7f
        E 64 82 31 00
        E 16 b2 0b 7f
        E 0 92 2f 7f
        E 64 82 2f 00
        E 112 b2 0b 7f
        E 0 92 2f 7f
        E 64 82 2f 00
        E 32 b2 0b 7f
        E 0 92 2f 7f
        E 64 82 2f 00
        E 16 b2 0b 7f
        E 0 92 36 7f
        E 160 82 36 00
        E 16 b2 0b 7f
        E 0 92 2f 7f
        E 64 82 2f 00
        E 32 b2 0b 7f
        E 0 92 2f 7f
        E 64 82 2f 00
        E 16 b2 0b 7f
        E 0 92 2d 7f
        E 64 82 2d 00
        E 112 b2 0b 7f
        E 0 92 2d 7f
        E 64 82 2d 00
        E 32 b2 0b 7f
        E 0 92 2d 7f
        E 64 82 2d 00
        E 16 b2 0b 7f
        E 0 92 36 7f
        E 160 82 36 00
        E 16 b2 0b 7f
        E 0 92 2d 7f
        E 80 82 2d 00
        E 16 b2 0b 7f
        E 0 92 2d 7f
        E 160 82 2d 00
        E 96 b2 0b 7f
        E 0 92 2d 7f
        E 80 82 2d 00
        E 16 b2 0b 7f
        E 0 92 2d 7f
        E 80 82 2d 00
        E 0 b2 0b 7f
        E 0 92 36 7f
        E 160 82 36 00
        E 16 b2 0b 7f
        E 0 92 2d 7f
        E 80 82 2d 00
        E 16 b2 0b 7f
        E 0 92 2d 7f
        E 80 82 2d 00
        E 0 b2 0b 7f
        E 0 92 2f 7f
        E 80 82 2f 00
        E 96 b2 0b 7f
        E 0 92 2f 7f
        E 80 82 2f 00
        E 16 b2 0b 7f
        E 0 92 2f 7f
        E 80 82 2f 00
        E 0 b2 0b 7f
        E 0 92 36 7f
        E 160 82 36 00
        E 16 b2 0b 7f
        E 0 92 2f 7f
        E 64 82 2f 00
        E 32 b2 0b 7f
        E 0 92 2f 7f
        E 64 82 2f 00
        E 16 b2 0b 7f
        E 0 92 2f 7f
        E 64 82 2f 00
        E 112 b2 0b 7f
        E 0 92 2f 7f
        E 64 82 2f 00
        E 32 b2 0b 7f
        E 0 92 2f 7f
        E 64 82 2f 00
        E 16 b2 0b 7f
        E 0 92 36 7f
        E 160 82 36 00
        E 16 b2 0b 7f
        E 0 92 2f 7f
        E 64 82 2f 00
        E 32 b2 0b 7f
        E 0 92 2f 7f
        E 64 82 2f 00
        E 16 b2 0b 7f
        E 0 92 25 7f
        E 64 82 25 00
        E 112 b2 0b 7f
        E 0 92 25 7f
        E 64 82 25 00
        E 32 b2 0b 7f
        E 0 92 25 7f
        E 64 82 25 00
        E 16 b2 0b 7f
        E 0 92 36 7f
        E 160 82 36 00
        E 16 b2 0b 7f
        E 0 92 25 7f
        E 64 82 25 00
        E 32 b2 0b 7f
        E 0 92 25 7f
        E 64 82 25 00
        E 16 b2 0b 7f
        E 0 92 25 7f
        E 64 82 25 00
        E 112 b2 0b 7f
        E 0 92 25 7f
        E 64 82 25 00
        E 32 b2 0b 7f
        E 0 92 25 7f
        E 64 82 25 00
        E 16 b2 0b 7f
        E 0 92 36 7f
        E 160 82 36 00
        E 16 b2 0b 7f
        E 0 92 25 7f
        E 64 82 25 00
        E 32 b2 0b 7f
        E 0 92 25 7f
        E 64 82 25 00
        E 16 b2 0b 7f
        E 0 92 25 7f
        E 64 82 25 00
        E 112 b2 0b 7f
        E 0 92 25 7f
        E 64 82 25 00
        E 32 b2 0b 7f
        E 0 92 25 7f
        E 64 82 25 00
        E 16 b2 0b 7f
        E 0 92 36 7f
        E 160 82 36 00
        E 16 b2 0b 7f
        E 0 92 25 7f
        E 80 82 25 00
        E 16 b2 0b 7f
        E 0 92 25 7f
        E 64 82 25 00
        E 112 b2 0b 7f
        E 0 92 3a 7f
        E 160 82 3a 00
        E 96 b2 0b 7f
        E 0 92 3a 7f
        E 256 82 3a 00
        E 16 b2 0b 7f
        E 0 92 3a 7f
        E 80 82 3a 00
        E 0 b2 0b 7f
        E 0 92 2a 7f
        E 80 82 2a 00
        E 112 b2 0b 7f
        E 0 92 2a 7f
        E 64 82 2a 00
        E 16 b2 0b 7f
        E 0 92 2a 7f
        E 64 82 2a 00
        E 32 b2 0b 7f
        E 0 92 36 7f
        E 160 82 36 00
        E 16 b2 0b 7f
        E 0 92 2a 7f
        E 64 82 2a 00
        E 16 b2 0b 7f
        E 0 92 2a 7f
        E 64 82 2a 00
        E 32 b2 0b 7f
        E 0 92 2a 7f
        E 64 82 2a 00
        E 112 b2 0b 7f
        E 0 92 2a 7f
        E 64 82 2a 00
        E 16 b2 0b 7f
        E 0 92 2a 7f
        E 64 82 2a 00
        E 32 b2 0b 7f
        E 0 92 36 7f
        E 160 82 36 00
        E 16 b2 0b 7f
        E 0 92 2a 7f
        E 64 82 2a 00
        E 16 b2 0b 7f
        E 0 92 2a 7f
        E 64 82 2a 00
        E 32 b2 0b 7f
        E 0 92 2a 7f
        E 64 82 2a 00
        E 112 b2 0b 7f
        E 0 92 2a 7f
        E 64 82 2a 00
        E 16 b2 0b 7f
        E 0 92 2a 7f
        E 80 82 2a 00
        E 16 b2 0b 7f
        E 0 92 36 7f
        E 160 82 36 00
        E 16 b2 0b 7f
        E 0 92 2a 7f
        E 64 82 2a 00
        E 16 b2 0b 7f
        E 0 92 2a 7f
        E 80 82 2a 00
        E 16 b2 0b 7f
        E 0 92 2a 7f
        E 64 82 2a 00
        E 112 b2 0b 7f
        E 0 92 2a 7f
        E 64 82 2a 00
        E 16 b2 0b 7f
        E 0 92 2a 7f
        E 80 82 2a 00
        E 16 b2 0b 7f
        E 0 92 36 7f
        E 160 82 36 00
        E 16 b2 0b 7f
        E 0 92 2a 7f
        E 64 82 2a 00
        E 16 b2 0b 7f
        E 0 92 2a 7f
        E 80 82 2a 00
        E 16 b2 0b 7f
        E 0 92 2a 7f
        E 64 82 2a 00
        E 112 b2 0b 7f
        E 0 92 2a 7f
        E 64 82 2a 00
        E 32 b2 0b 7f
        E 0 92 2a 7f
        E 64 82 2a 00
        E 16 b2 0b 7f
        E 0 92 36 7f
        E 160 82 36 00
        E 16 b2 0b 7f
        E 0 92 2a 7f
        E 64 82 2a 00
        E 32 b2 0b 7f
        E 0 92 2a 7f
        E 64 82 2a 00
        E 16 b2 0b 7f
        E 0 92 2a 7f
        E 64 82 2a 00
        E 112 b2 0b 7f
        E 0 92 2a 7f
        E 64 82 2a 00
        E 32 b2 0b 7f
        E 0 92 2a 7f
        E 64 82 2a 00
        E 16 b2 0b 7f
        E 0 92 36 7f
        E 160 82 36 00
        E 16 b2 0b 7f
        E 0 92 2a 7f
        E 64 82 2a 00
        E 32 b2 0b 7f
        E 0 92 2a 7f
        E 64 82 2a 00
        E 16 b2 0b 7f
        E 0 92 2a 7f
        E 64 82 2a 00
        E 112 b2 0b 7f
        E 0 92 2a 7f
        E 64 82 2a 00
        E 32 b2 0b 7f
        E 0 92 2a 7f
        E 64 82 2a 00
        E 16 b2 0b 7f
        E 0 92 36 7f
        E 160 82 36 00
        E 16 b2 0b 7f
        E 0 92 2a 7f
        E 64 82 2a 00
        E 32 b2 0b 7f
        E 0 92 2a 7f
        E 64 82 2a 00
        E 16 b2 0b 7f
        E 0 92 2a 7f
        E 64 82 2a 00
        E 112 b2 0b 7f
        E 0 92 2a 7f
        E 80 82 2a 00
        E 16 b2 0b 7f
        E 0 92 2a 7f
        E 64 82 2a 00
        E 16 b2 0b 7f
        E 0 92 36 7f
        E 160 82 36 00
        E 16 b2 0b 7f
        E 0 92 2a 7f
        E 80 82 2a 00
        E 16 b2 0b 7f
        E 0 92 2a 7f
        E 64 82 2a 00
        E 16 b2 0b 7f
        E 0 92 2d 7f
        E 80 82 2d 00
        E 96 b2 0b 7f
        E 0 92 2d 7f
        E 80 82 2d 00
        E 16 b2 0b 7f
        E 0 92 2d 7f
        E 64 82 2d 00
        E 16 b2 0b 7f
        E 0 92 36 7f
        E 176 82 36 00
        E 0 b2 0b 7f
        E 0 92 2d 7f
        E 80 82 2d 00
        E 16 b2 0b 7f
        E 0 92 2d 7f
        E 64 82 2d 00
        E 16 b2 0b 7f
        E 0 92 2d 7f
        E 80 82 2d 00
        E 96 b2 0b 7f
        E 0 92 2d 7f
        E 80 82 2d 00
        E 16 b2 0b 7f
        E 0 92 2d 7f
        E 64 82 2d 00
        E 16 b2 0b 7f
        E 0 92 36 7f
        E 176 82 36 00
        E 0 b2 0b 7f
        E 0 92 2d 7f
        E 80 82 2d 00
        E 16 b2 0b 7f
        E 0 92 2d 7f
        E 64 82 2d 00
        E 16 b2 0b 7f
        E 0 92 2f 7f
        E 80 82 2f 00
        E 112 b2 0b 7f
        E 0 92 2f 7f
        E 64 82 2f 00
        E 16 b2 0b 7f
        E 0 92 2f 7f
        E 64 82 2f 00
        E 32 b2 0b 7f
        E 0 92 36 7f
        E 160 82 36 00
        E 16 b2 0b 7f
        E 0 92 2f 7f
        E 64 82 2f 00
        E 16 b2 0b 7f
        E 0 92 2f 7f
        E 64 82 2f 00
        E 32 b2 0b 7f
        E 0 92 2f 7f
        E 64 82 2f 00
        E 112 b2 0b 7f
        E 0 92 2f 7f
        E 64 82 2f 00
        E 16 b2 0b 7f
        E 0 92 2f 7f
        E 64 82 2f 00
        E 32 b2 0b 7f
        E 0 92 36 7f
        E 160 82 36 00
        E 16 b2 0b 7f
        E 0 92 2f 7f
        E 64 82 2f 00
        E 16 b2 0b 7f
        E 0 92 2f 7f
        E 64 82 2f 00
        E 32 b2 0b 7f
        E 0 92 25 7f
        E 64 82 25 00
        E 112 b2 0b 7f
        E 0 92 25 7f
        E 64 82 25 00
        E 16 b2 0b 7f
        E 0 92 25 7f
        E 64 82 25 00
        E 32 b2 0b 7f
        E 0 92 36 7f
        E 160 82 36 00
        E 16 b2 0b 7f
        E 0 92 25 7f
        E 64 82 25 00
        E 16 b2 0b 7f
        E 0 92 25 7f
        E 64 82 25 00
        E 32 b2 0b 7f
        E 0 92 25 7f
        E 64 82 25 00
        E 112 b2 0b 7f
        E 0 92 25 7f
        E 64 82 25 00
        E 16 b2 0b 7f
        E 0 92 25 7f
        E 64 82 25 00
        E 32 b2 0b 7f
        E 0 92 36 7f
        E 160 82 36 00
        E 16 b2 0b 7f
        E 0 92 25 7f
        E 64 82 25 00
        E 16 b2 0b 7f
        E 0 92 25 7f
        E 64 82 25 00
        E 32 b2 0b 7f
        E 0 92 25 7f
        E 64 82 25 00
        E 112 b2 0b 7f
        E 0 92 25 7f
        E 64 82 25 00
        E 16 b2 0b 7f
        E 0 92 25 7f
        E 64 82 25 00
        E 32 b2 0b 7f
        E 0 92 36 7f
        E 160 82 36 00
        E 16 b2 0b 7f
        E 0 92 25 7f
        E 64 82 25 00
        E 16 b2 0b 7f
        E 0 92 25 7f
        E 64 82 25 00
        E 32 b2 0b 7f
        E 0 92 3a 7f
        E 64 82 3a 00
        E 16 b2 0b 7f
        E 0 92 3a 7f
        E 80 82 3a 00
        E 16 b2 0b 7f
        E 0 92 35 7f
        E 128 82 35 00
        E 0 b2 0b 7f
        E 0 92 2c 7f
        E 16 82 2c 00
        E 32 b2 0b 7f
        E 0 92 3a 7f
        E 64 82 3a 00
        E 16 b2 0b 7f
        E 0 92 3a 7f
        E 80 82 3a 00
        E 16 b2 0b 7f
        E 0 92 35 7f
        E 128 82 35 00
        E 0 b2 0b 7f
        E 0 92 2c 7f
        E 16 82 2c 00
        E 32 b2 0b 7f
        E 0 92 2d 7f
        E 64 82 2d 00
        E 112 b2 0b 7f
        E 0 92 2d 7f
        E 64 82 2d 00
        E 16 b2 0b 7f
        E 0 92 2d 7f
        E 64 82 2d 00
        E 32 b2 0b 7f
        E 0 92 36 7f
        E 160 82 36 00
        E 16 b2 0b 7f
        E 0 92 2d 7f
        E 64 82 2d 00
        E 16 b2 0b 7f
        E 0 92 2d 7f
        E 64 82 2d 00
        E 32 b2 0b 7f
        E 0 92 2d 7f
        E 64 82 2d 00
        E 112 b2 0b 7f
        E 0 92 2d 7f
        E 64 82 2d 00
        E 16 b2 0b 7f
        E 0 92 2d 7f
        E 64 82 2d 00
        E 32 b2 0b 7f
        E 0 92 36 7f
        E 160 82 36 00
        E 16 b2 0b 7f
        E 0 92 2d 7f
        E 64 82 2d 00
        E 16 b2 0b 7f
        E 0 92 2d 7f
        E 64 82 2d 00
        E 32 b2 0b 7f
        E 0 92 2f 7f
        E 64 82 2f 00
        E 112 b2 0b 7f
        E 0 92 2f 7f
        E 64 82 2f 00
        E 16 b2 0b 7f
        E 0 92 2f 7f
        E 64 82 2f 00
        E 32 b2 0b 7f
        E 0 92 36 7f
        E 160 82 36 00
        E 16 b2 0b 7f
        E 0 92 2f 7f
        E 64 82 2f 00
        E 16 b2 0b 7f
        E 0 92 2f 7f
        E 80 82 2f 00
        E 16 b2 0b 7f
        E 0 92 2f 7f
        E 64 82 2f 00
        E 112 b2 0b 7f
        E 0 92 2f 7f
        E 64 82 2f 00
        E 16 b2 0b 7f
        E 0 92 2f 7f
        E 80 82 2f 00
        E 16 b2 0b 7f
        E 0 92 36 7f
        E 160 82 36 00
        E 16 b2 0b 7f
        E 0 92 2f 7f
        E 64 82 2f 00
        E 16 b2 0b 7f
        E 0 92 2f 7f
        E 80 82 2f 00
        E 16 b2 0b 7f
        E 0 92 31 7f
        E 64 82 31 00
        E 112 b2 0b 7f
        E 0 92 31 7f
        E 64 82 31 00
        E 16 b2 0b 7f
        E 0 92 31 7f
        E 80 82 31 00
        E 16 b2 0b 7f
        E 0 92 36 7f
        E 160 82 36 00
        E 16 b2 0b 7f
        E 0 92 31 7f
        E 64 82 31 00
        E 16 b2 0b 7f
        E 0 92 31 7f
        E 80 82 31 00
        E 16 b2 0b 7f
        E 0 92 31 7f
        E 64 82 31 00
        E 112 b2 0b 7f
        E 0 92 31 7f
        E 64 82 31 00
        E 16 b2 0b 7f
        E 0 92 31 7f
        E 80 82 31 00
        E 16 b2 0b 7f
        E 0 92 36 7f
        E 160 82 36 00
        E 16 b2 0b 7f
        E 0 92 31 7f
        E 64 82 31 00
        E 32 b2 0b 7f
        E 0 92 31 7f
        E 64 82 31 00
        E 16 b2 0b 7f
        E 0 92 31 7f
        E 64 82 31 00
        E 112 b2 0b 7f
        E 0 92 31 7f
        E 64 82 31 00
        E 32 b2 0b 7f
        E 0 92 31 7f
        E 64 82 31 00
        E 16 b2 0b 7f
        E 0 92 36 7f
        E 160 82 36 00
        E 16 b2 0b 7f
        E 0 92 31 7f
        E 64 82 31 00
        E 32 b2 0b 7f
        E 0 92 31 7f
        E 64 82 31 00
        E 16 b2 0b 7f
        E 0 92 2f 7f
        E 64 82 2f 00
        E 112 b2 0b 7f
        E 0 92 2f 7f
        E 64 82 2f 00
        E 32 b2 0b 7f
        E 0 92 2f 7f
        E 64 82 2f 00
        E 16 b2 0b 7f
        E 0 92 36 7f
        E 160 82 36 00
        E 16 b2 0b 7f
        E 0 92 2f 7f
        E 64 82 2f 00
        E 32 b2 0b 7f
        E 0 92 2f 7f
        E 64 82 2f 00
        E 16 b2 0b 7f
        E 0 92 2d 7f
        E 64 82 2d 00
        E 112 b2 0b 7f
        E 0 92 2d 7f
        E 64 82 2d 00
        E 32 b2 0b 7f
        E 0 92 2d 7f
        E 64 82 2d 00
        E 16 b2 0b 7f
        E 0 92 36 7f
        E 160 82 36 00
        E 16 b2 0b 7f
        E 0 92 2d 7f
        E 80 82 2d 00
        E 16 b2 0b 7f
        E 0 92 2d 7f
        E 160 82 2d 00
        E 96 b2 0b 7f
        E 0 92 2d 7f
        E 80 82 2d 00
        E 16 b2 0b 7f
        E 0 92 2d 7f
        E 80 82 2d 00
        E 0 b2 0b 7f
        E 0 92 36 7f
        E 160 82 36 00
        E 16 b2 0b 7f
        E 0 92 2d 7f
        E 80 82 2d 00
        E 16 b2 0b 7f
        E 0 92 2d 7f
        E 80 82 2d 00
        E 0 b2 0b 7f
        E 0 92 2f 7f
        E 80 82 2f 00
        E 96 b2 0b 7f
        E 0 92 2f 7f
        E 80 82 2f 00
        E 16 b2 0b 7f
        E 0 92 2f 7f
        E 80 82 2f 00
        E 0 b2 0b 7f
        E 0 92 36 7f
        E 160 82 36 00
        E 16 b2 0b 7f
        E 0 92 2f 7f
        E 64 82 2f 00
        E 32 b2 0b 7f
        E 0 92 2f 7f
        E 64 82 2f 00
        E 16 b2 0b 7f
        E 0 92 2f 7f
        E 64 82 2f 00
        E 112 b2 0b 7f
        E 0 92 2f 7f
        E 64 82 2f 00
        E 32 b2 0b 7f
        E 0 92 2f 7f
        E 64 82 2f 00
        E 16 b2 0b 7f
        E 0 92 36 7f
        E 160 82 36 00
        E 16 b2 0b 7f
        E 0 92 2f 7f
        E 64 82 2f 00
        E 32 b2 0b 7f
        E 0 92 2f 7f
        E 64 82 2f 00
        E 16 b2 0b 7f
        E 0 92 25 7f
        E 64 82 25 00
        E 112 b2 0b 7f
        E 0 92 25 7f
        E 64 82 25 00
        E 32 b2 0b 7f
        E 0 92 25 7f
        E 64 82 25 00
        E 16 b2 0b 7f
        E 0 92 36 7f
        E 160 82 36 00
        E 16 b2 0b 7f
        E 0 92 25 7f
        E 64 82 25 00
        E 32 b2 0b 7f
        E 0 92 25 7f
        E 64 82 25 00
        E 16 b2 0b 7f
        E 0 92 25 7f
        E 64 82 25 00
        E 112 b2 0b 7f
        E 0 92 25 7f
        E 64 82 25 00
        E 32 b2 0b 7f
        E 0 92 25 7f
        E 64 82 25 00
        E 16 b2 0b 7f
        E 0 92 36 7f
        E 160 82 36 00
        E 16 b2 0b 7f
        E 0 92 25 7f
        E 64 82 25 00
        E 32 b2 0b 7f
        E 0 92 25 7f
        E 64 82 25 00
        E 16 b2 0b 7f
        E 0 92 25 7f
        E 64 82 25 00
        E 112 b2 0b 7f
        E 0 92 25 7f
        E 64 82 25 00
        E 32 b2 0b 7f
        E 0 92 25 7f
        E 64 82 25 00
        E 16 b2 0b 7f
        E 0 92 36 7f
        E 160 82 36 00
        E 16 b2 0b 7f
        E 0 92 25 7f
        E 80 82 25 00
        E 16 b2 0b 7f
        E 0 92 25 7f
        E 64 82 25 00
        E 112 b2 0b 7f
        E 0 92 3a 7f
        E 160 82 3a 00
        E 96 b2 0b 7f
        E 0 92 3a 7f
        E 256 82 3a 00
        E 16 b2 0b 7f
        E 0 92 3a 7f
        E 80 82 3a 00
        E 0 b2 0b 7f
        E 0 92 2a 7f
        E 80 82 2a 00
        E 112 b2 0b 7f
        E 0 92 2a 7f
        E 64 82 2a 00
        E 16 b2 0b 7f
        E 0 92 2a 7f
        E 64 82 2a 00
        E 32 b2 0b 7f
        E 0 92 36 7f
        E 160 82 36 00
        E 16 b2 0b 7f
        E 0 92 2a 7f
        E 64 82 2a 00
        E 16 b2 0b 7f
        E 0 92 2a 7f
        E 64 82 2a 00
        E 32 b2 0b 7f
        E 0 92 2a 7f
        E 64 82 2a 00
        E 112 b2 0b 7f
        E 0 92 2a 7f
        E 64 82 2a 00
        E 16 b2 0b 7f
        E 0 92 2a 7f
        E 64 82 2a 00
        E 32 b2 0b 7f
        E 0 92 36 7f
        E 160 82 36 00
        E 16 b2 0b 7f
        E 0 92 2a 7f
        E 64 82 2a 00
        E 16 b2 0b 7f
        E 0 92 2a 7f
        E 64 82 2a 00
        E 32 b2 0b 7f
        E 0 92 2a 7f
        E 64 82 2a 00
        E 112 b2 0b 7f
        E 0 92 2a 7f
        E 64 82 2a 00
        E 16 b2 0b 7f
        E 0 92 2a 7f
        E 80 82 2a 00
        E 16 b2 0b 7f
        E 0 92 36 7f
        E 160 82 36 00
        E 16 b2 0b 7f
        E 0 92 2a 7f
        E 64 82 2a 00
        E 16 b2 0b 7f
        E 0 92 2a 7f
        E 80 82 2a 00
        E 16 b2 0b 7f
        E 0 92 2a 7f
        E 64 82 2a 00
        E 112 b2 0b 7f
        E 0 92 2a 7f
        E 64 82 2a 00
        E 16 b2 0b 7f
        E 0 92 2a 7f
        E 80 82 2a 00
        E 16 b2 0b 7f
        E 0 92 36 7f
        E 160 82 36 00
        E 16 b2 0b 7f
        E 0 92 2a 7f
        E 64 82 2a 00
        E 16 b2 0b 7f
        E 0 92 2a 7f
        E 80 82 2a 00
        E 16 b2 0b 7f
        E 0 92 2a 7f
        E 64 82 2a 00
        E 112 b2 0b 7f
        E 0 92 2a 7f
        E 64 82 2a 00
        E 32 b2 0b 7f
        E 0 92 2a 7f
        E 64 82 2a 00
        E 16 b2 0b 7f
        E 0 92 36 7f
        E 160 82 36 00
        E 16 b2 0b 7f
        E 0 92 2a 7f
        E 64 82 2a 00
        E 32 b2 0b 7f
        E 0 92 2a 7f
        E 64 82 2a 00
        E 16 b2 0b 7f
        E 0 92 2a 7f
        E 64 82 2a 00
        E 112 b2 7b 00
        E 0 ff 2f 00
      >
    >
  >
  <TRACK {FB5F4234-B8C4-4404-9F4A-36D6D0D675A0}
    NAME "NES - Noise / Drums [ch3]"
    PEAKCOL 11184810
    BEAT -1
    AUTOMODE 0
    PANLAWFLAGS 3
    VOLPAN 1 0 -1 -1 1
    MUTESOLO 0 0 0
    IPHASE 0
    PLAYOFFS 0 1
    ISBUS 0 0
    BUSCOMP 0 0 0 0 0
    SHOWINMIX 1 0.6667 0.5 1 0.5 0 0 0
    FIXEDLANES 9 0 0 0 0
    SEL 0
    REC 0 5088 1 0 0 0 0 0
    VU 2
    TRACKHEIGHT 0 0 0 0 0 0 0
    INQ 0 0 0 0.5 100 0 0 100
    NCHAN 2
    FX 1
    TRACKID {FB5F4234-B8C4-4404-9F4A-36D6D0D675A0}
    PERF 0
    MIDIOUT -1
    MAINSEND 1 0
    <FXCHAIN
      WNDRECT 24 52 700 560
      SHOW 0
      LASTSEL 0
      DOCKED 0
      BYPASS 0 0 0
      <JS "ReapNES Studio/ReapNES_Console.jsfx" ""
        2 15 1 10 80 10 100 2 1 15 1 5 60 10 80 1 1 0 50 0 0 15 1 0 80 0 0 0.500000 0.500000 0.400000 0.300000 0.800000 3 1 0 0 0 0 - - - - - - - - - - - - - - - - - - - - - - - - - -
      >
      FLOATPOS 0 0 0 0
      FXID {517FA82D-2470-4A31-981B-A4C2560B0479}
      WAK 0 0
    >
    <ITEM
      POSITION 0
      LENGTH 74.55676740000001
      LOOP 0
      ALLTAKES 0
      FADEIN 0 0 0 0 0 0 0
      FADEOUT 0 0 0 0 0 0 0
      MUTE 0 0
      SEL 0
      IGUID {1555093A-1F34-4F75-8861-35AB85485BC3}
      <SOURCE MIDI
        HASDATA 1 480 QN
        CCINTERP 32
        E 21968 93 2a 66
        E 80 83 2a 00
        E 16 93 2a 66
        E 80 83 2a 00
        E 16 93 2a 66
        E 80 83 2a 00
        E 16 93 2a 66
        E 80 83 2a 00
        E 96 93 2a 66
        E 80 83 2a 00
        E 112 93 2a 66
        E 80 83 2a 00
        E 96 93 2a 66
        E 80 83 2a 00
        E 112 93 2a 66
        E 80 83 2a 00
        E 16 93 2a 66
        E 80 83 2a 00
        E 96 93 2a 66
        E 80 83 2a 00
        E 112 93 2a 66
        E 80 83 2a 00
        E 16 93 2a 66
        E 80 83 2a 00
        E 16 93 2a 66
        E 160 83 2a 00
        E 112 93 2a 66
        E 80 83 2a 00
        E 96 93 2a 66
        E 80 83 2a 00
        E 112 93 2a 66
        E 80 83 2a 00
        E 96 93 2a 66
        E 80 83 2a 00
        E 16 93 2a 66
        E 80 83 2a 00
        E 112 93 2a 66
        E 80 83 2a 00
        E 96 93 2a 66
        E 80 83 2a 00
        E 0 93 2a 11
        E 128 83 2a 00
        E 0 93 2a 11
        E 80 83 2a 00
        E 80 93 2a 66
        E 80 83 2a 00
        E 0 93 2a 11
        E 128 83 2a 00
        E 0 93 2a 11
        E 80 83 2a 00
        E 80 93 2a 66
        E 80 83 2a 00
        E 0 93 2a 11
        E 128 83 2a 00
        E 0 93 2a 11
        E 80 83 2a 00
        E 80 93 2a 66
        E 80 83 2a 00
        E 0 93 2a 11
        E 128 83 2a 00
        E 0 93 2a 11
        E 80 83 2a 00
        E 80 93 2a 66
        E 80 83 2a 00
        E 16 93 2a 66
        E 80 83 2a 00
        E 16 93 2a 66
        E 80 83 2a 00
        E 0 93 2a 66
        E 80 83 2a 00
        E 16 93 2a 66
        E 80 83 2a 00
        E 16 93 2a 66
        E 80 83 2a 00
        E 16 93 2a 66
        E 80 83 2a 00
        E 0 93 2a 66
        E 80 83 2a 00
        E 16 93 2a 66
        E 80 83 2a 00
        E 16 93 2a 66
        E 80 83 2a 00
        E 16 93 2a 66
        E 80 83 2a 00
        E 0 93 2a 66
        E 80 83 2a 00
        E 16 93 2a 66
        E 80 83 2a 00
        E 16 93 2a 66
        E 80 83 2a 00
        E 16 93 2a 66
        E 80 83 2a 00
        E 0 93 2a 66
        E 80 83 2a 00
        E 16 93 2a 66
        E 80 83 2a 00
        E 112 93 2a 66
        E 160 83 2a 00
        E 16 93 2a 66
        E 80 83 2a 00
        E 96 93 2a 66
        E 160 83 2a 00
        E 16 93 2a 66
        E 80 83 2a 00
        E 96 93 2a 66
        E 160 83 2a 00
        E 16 93 2a 66
        E 80 83 2a 00
        E 96 93 2a 66
        E 160 83 2a 00
        E 16 93 2a 66
        E 80 83 2a 00
        E 96 93 2a 66
        E 160 83 2a 00
        E 16 93 2a 66
        E 80 83 2a 00
        E 96 93 2a 66
        E 160 83 2a 00
        E 16 93 2a 66
        E 80 83 2a 00
        E 96 93 2a 66
        E 160 83 2a 00
        E 16 93 2a 66
        E 80 83 2a 00
        E 96 93 2a 66
        E 160 83 2a 00
        E 16 93 2a 66
        E 80 83 2a 00
        E 96 93 2a 66
        E 80 83 2a 00
        E 16 93 2a 66
        E 80 83 2a 00
        E 0 93 2a 66
        E 80 83 2a 00
        E 96 93 2a 66
        E 80 83 2a 00
        E 16 93 2a 66
        E 80 83 2a 00
        E 0 93 2a 66
        E 80 83 2a 00
        E 96 93 2a 66
        E 80 83 2a 00
        E 16 93 2a 66
        E 80 83 2a 00
        E 0 93 2a 66
        E 80 83 2a 00
        E 96 93 2a 66
        E 80 83 2a 00
        E 16 93 2a 66
        E 80 83 2a 00
        E 0 93 2a 66
        E 80 83 2a 00
        E 96 93 2a 66
        E 80 83 2a 00
        E 16 93 2a 66
        E 80 83 2a 00
        E 0 93 2a 66
        E 80 83 2a 00
        E 96 93 2a 66
        E 80 83 2a 00
        E 16 93 2a 66
        E 80 83 2a 00
        E 0 93 2a 66
        E 80 83 2a 00
        E 96 93 2a 66
        E 80 83 2a 00
        E 16 93 2a 66
        E 80 83 2a 00
        E 0 93 2a 66
        E 80 83 2a 00
        E 96 93 2a 66
        E 80 83 2a 00
        E 16 93 2a 66
        E 80 83 2a 00
        E 0 93 2a 66
        E 80 83 2a 00
        E 96 93 2a 66
        E 80 83 2a 00
        E 16 93 2a 66
        E 80 83 2a 00
        E 0 93 2a 66
        E 80 83 2a 00
        E 96 93 2a 66
        E 80 83 2a 00
        E 16 93 2a 66
        E 80 83 2a 00
        E 0 93 2a 66
        E 80 83 2a 00
        E 96 93 2a 66
        E 80 83 2a 00
        E 16 93 2a 66
        E 80 83 2a 00
        E 0 93 2a 66
        E 80 83 2a 00
        E 96 93 2a 66
        E 80 83 2a 00
        E 16 93 2a 66
        E 80 83 2a 00
        E 0 93 2a 66
        E 80 83 2a 00
        E 112 93 2a 66
        E 160 83 2a 00
        E 16 93 2a 66
        E 80 83 2a 00
        E 96 93 2a 66
        E 160 83 2a 00
        E 16 93 2a 66
        E 80 83 2a 00
        E 96 93 2a 66
        E 160 83 2a 00
        E 16 93 2a 66
        E 80 83 2a 00
        E 96 93 2a 66
        E 160 83 2a 00
        E 16 93 2a 66
        E 80 83 2a 00
        E 96 93 2a 66
        E 160 83 2a 00
        E 16 93 2a 66
        E 80 83 2a 00
        E 96 93 2a 66
        E 160 83 2a 00
        E 16 93 2a 66
        E 80 83 2a 00
        E 96 93 2a 66
        E 160 83 2a 00
        E 16 93 2a 66
        E 80 83 2a 00
        E 96 93 2a 66
        E 160 83 2a 00
        E 16 93 2a 66
        E 80 83 2a 00
        E 96 93 2a 66
        E 160 83 2a 00
        E 16 93 2a 66
        E 80 83 2a 00
        E 96 93 2a 66
        E 160 83 2a 00
        E 16 93 2a 66
        E 80 83 2a 00
        E 96 93 2a 66
        E 160 83 2a 00
        E 16 93 2a 66
        E 80 83 2a 00
        E 96 93 2a 66
        E 160 83 2a 00
        E 16 93 2a 66
        E 80 83 2a 00
        E 96 93 2a 66
        E 160 83 2a 00
        E 16 93 2a 66
        E 80 83 2a 00
        E 96 93 2a 66
        E 160 83 2a 00
        E 16 93 2a 66
        E 80 83 2a 00
        E 96 93 2a 66
        E 160 83 2a 00
        E 16 93 2a 66
        E 80 83 2a 00
        E 96 93 2a 66
        E 160 83 2a 00
        E 16 93 2a 66
        E 80 83 2a 00
        E 96 93 2a 66
        E 160 83 2a 00
        E 16 93 2a 66
        E 80 83 2a 00
        E 96 93 2a 66
        E 160 83 2a 00
        E 16 93 2a 66
        E 80 83 2a 00
        E 96 93 2a 66
        E 160 83 2a 00
        E 16 93 2a 66
        E 80 83 2a 00
        E 96 93 2a 66
        E 160 83 2a 00
        E 16 93 2a 66
        E 80 83 2a 00
        E 96 93 2a 66
        E 160 83 2a 00
        E 16 93 2a 66
        E 80 83 2a 00
        E 96 93 2a 66
        E 160 83 2a 00
        E 16 93 2a 66
        E 80 83 2a 00
        E 96 93 2a 66
        E 160 83 2a 00
        E 16 93 2a 66
        E 80 83 2a 00
        E 96 93 2a 66
        E 80 83 2a 00
        E 16 93 2a 66
        E 80 83 2a 00
        E 0 93 2a 66
        E 80 83 2a 00
        E 96 93 2a 66
        E 80 83 2a 00
        E 16 93 2a 66
        E 80 83 2a 00
        E 0 93 2a 66
        E 80 83 2a 00
        E 96 93 2a 66
        E 80 83 2a 00
        E 16 93 2a 66
        E 80 83 2a 00
        E 0 93 2a 66
        E 80 83 2a 00
        E 96 93 2a 66
        E 80 83 2a 00
        E 16 93 2a 66
        E 80 83 2a 00
        E 0 93 2a 66
        E 80 83 2a 00
        E 96 93 2a 66
        E 80 83 2a 00
        E 16 93 2a 66
        E 80 83 2a 00
        E 0 93 2a 66
        E 80 83 2a 00
        E 96 93 2a 66
        E 80 83 2a 00
        E 16 93 2a 66
        E 80 83 2a 00
        E 0 93 2a 66
        E 80 83 2a 00
        E 96 93 2a 66
        E 80 83 2a 00
        E 16 93 2a 66
        E 80 83 2a 00
        E 0 93 2a 66
        E 80 83 2a 00
        E 96 93 2a 66
        E 80 83 2a 00
        E 16 93 2a 66
        E 80 83 2a 00
        E 0 93 2a 66
        E 80 83 2a 00
        E 96 93 2a 66
        E 80 83 2a 00
        E 16 93 2a 66
        E 80 83 2a 00
        E 0 93 2a 66
        E 80 83 2a 00
        E 96 93 2a 66
        E 80 83 2a 00
        E 16 93 2a 66
        E 80 83 2a 00
        E 0 93 2a 66
        E 80 83 2a 00
        E 96 93 2a 66
        E 80 83 2a 00
        E 16 93 2a 66
        E 80 83 2a 00
        E 0 93 2a 66
        E 80 83 2a 00
        E 96 93 2a 66
        E 80 83 2a 00
        E 16 93 2a 66
        E 80 83 2a 00
        E 0 93 2a 66
        E 80 83 2a 00
        E 96 93 2a 66
        E 80 83 2a 00
        E 16 93 2a 66
        E 80 83 2a 00
        E 0 93 2a 66
        E 80 83 2a 00
        E 96 93 2a 66
        E 80 83 2a 00
        E 16 93 2a 66
        E 80 83 2a 00
        E 0 93 2a 66
        E 80 83 2a 00
        E 96 93 2a 66
        E 80 83 2a 00
        E 16 93 2a 66
        E 80 83 2a 00
        E 0 93 2a 66
        E 80 83 2a 00
        E 96 93 2a 66
        E 80 83 2a 00
        E 16 93 2a 66
        E 80 83 2a 00
        E 0 93 2a 66
        E 80 83 2a 00
        E 96 93 2a 66
        E 80 83 2a 00
        E 16 93 2a 66
        E 80 83 2a 00
        E 0 93 2a 66
        E 80 83 2a 00
        E 96 93 2a 66
        E 80 83 2a 00
        E 16 93 2a 66
        E 80 83 2a 00
        E 0 93 2a 66
        E 80 83 2a 00
        E 96 93 2a 66
        E 80 83 2a 00
        E 16 93 2a 66
        E 80 83 2a 00
        E 0 93 2a 66
        E 80 83 2a 00
        E 16 93 2a 66
        E 80 83 2a 00
        E 0 93 2a 66
        E 80 83 2a 00
        E 16 93 2a 66
        E 80 83 2a 00
        E 0 93 2a 66
        E 80 83 2a 00
        E 16 93 2a 66
        E 80 83 2a 00
        E 0 93 2a 66
        E 80 83 2a 00
        E 16 93 2a 66
        E 80 83 2a 00
        E 0 93 2a 66
        E 80 83 2a 00
        E 112 93 2a 66
        E 160 83 2a 00
        E 16 93 2a 66
        E 80 83 2a 00
        E 96 93 2a 66
        E 160 83 2a 00
        E 16 93 2a 66
        E 80 83 2a 00
        E 96 93 2a 66
        E 160 83 2a 00
        E 16 93 2a 66
        E 80 83 2a 00
        E 96 93 2a 66
        E 160 83 2a 00
        E 16 93 2a 66
        E 80 83 2a 00
        E 96 93 2a 66
        E 160 83 2a 00
        E 16 93 2a 66
        E 80 83 2a 00
        E 96 93 2a 66
        E 160 83 2a 00
        E 16 93 2a 66
        E 80 83 2a 00
        E 96 93 2a 66
        E 160 83 2a 00
        E 16 93 2a 66
        E 80 83 2a 00
        E 96 93 2a 66
        E 160 83 2a 00
        E 16 93 2a 66
        E 80 83 2a 00
        E 96 93 2a 66
        E 80 83 2a 00
        E 16 93 2a 66
        E 80 83 2a 00
        E 0 93 2a 66
        E 80 83 2a 00
        E 96 93 2a 66
        E 80 83 2a 00
        E 16 93 2a 66
        E 80 83 2a 00
        E 0 93 2a 66
        E 80 83 2a 00
        E 96 93 2a 66
        E 80 83 2a 00
        E 16 93 2a 66
        E 80 83 2a 00
        E 0 93 2a 66
        E 80 83 2a 00
        E 96 93 2a 66
        E 80 83 2a 00
        E 16 93 2a 66
        E 80 83 2a 00
        E 0 93 2a 66
        E 80 83 2a 00
        E 96 93 2a 66
        E 80 83 2a 00
        E 16 93 2a 66
        E 80 83 2a 00
        E 0 93 2a 66
        E 80 83 2a 00
        E 96 93 2a 66
        E 80 83 2a 00
        E 16 93 2a 66
        E 80 83 2a 00
        E 0 93 2a 66
        E 80 83 2a 00
        E 96 93 2a 66
        E 80 83 2a 00
        E 16 93 2a 66
        E 80 83 2a 00
        E 0 93 2a 66
        E 80 83 2a 00
        E 96 93 2a 66
        E 80 83 2a 00
        E 16 93 2a 66
        E 80 83 2a 00
        E 0 93 2a 66
        E 80 83 2a 00
        E 96 93 2a 66
        E 80 83 2a 00
        E 16 93 2a 66
        E 80 83 2a 00
        E 0 93 2a 66
        E 80 83 2a 00
        E 96 93 2a 66
        E 80 83 2a 00
        E 16 93 2a 66
        E 80 83 2a 00
        E 0 93 2a 66
        E 80 83 2a 00
        E 96 93 2a 66
        E 80 83 2a 00
        E 16 93 2a 66
        E 80 83 2a 00
        E 0 93 2a 66
        E 80 83 2a 00
        E 96 93 2a 66
        E 80 83 2a 00
        E 16 93 2a 66
        E 80 83 2a 00
        E 0 93 2a 66
        E 80 83 2a 00
        E 112 93 2a 66
        E 160 83 2a 00
        E 16 93 2a 66
        E 80 83 2a 00
        E 96 93 2a 66
        E 160 83 2a 00
        E 16 93 2a 66
        E 80 83 2a 00
        E 96 93 2a 66
        E 160 83 2a 00
        E 16 93 2a 66
        E 80 83 2a 00
        E 96 93 2a 66
        E 160 83 2a 00
        E 16 93 2a 66
        E 80 83 2a 00
        E 96 93 2a 66
        E 160 83 2a 00
        E 16 93 2a 66
        E 80 83 2a 00
        E 96 93 2a 66
        E 160 83 2a 00
        E 16 93 2a 66
        E 80 83 2a 00
        E 96 93 2a 66
        E 160 83 2a 00
        E 16 93 2a 66
        E 80 83 2a 00
        E 96 93 2a 66
        E 160 83 2a 00
        E 16 93 2a 66
        E 80 83 2a 00
        E 96 93 2a 66
        E 160 83 2a 00
        E 16 93 2a 66
        E 80 83 2a 00
        E 96 93 2a 66
        E 160 83 2a 00
        E 16 93 2a 66
        E 80 83 2a 00
        E 96 93 2a 66
        E 160 83 2a 00
        E 16 93 2a 66
        E 80 83 2a 00
        E 96 93 2a 66
        E 160 83 2a 00
        E 16 93 2a 66
        E 80 83 2a 00
        E 96 93 2a 66
        E 160 83 2a 00
        E 16 93 2a 66
        E 80 83 2a 00
        E 96 93 2a 66
        E 160 83 2a 00
        E 16 93 2a 66
        E 80 83 2a 00
        E 96 93 2a 66
        E 160 83 2a 00
        E 16 93 2a 66
        E 80 83 2a 00
        E 96 93 2a 66
        E 160 83 2a 00
        E 16 93 2a 66
        E 80 83 2a 00
        E 96 93 2a 66
        E 160 83 2a 00
        E 16 93 2a 66
        E 80 83 2a 00
        E 96 93 2a 66
        E 160 83 2a 00
        E 16 93 2a 66
        E 80 83 2a 00
        E 96 93 2a 66
        E 160 83 2a 00
        E 16 93 2a 66
        E 80 83 2a 00
        E 96 93 2a 66
        E 160 83 2a 00
        E 16 93 2a 66
        E 80 83 2a 00
        E 96 93 2a 66
        E 160 83 2a 00
        E 16 93 2a 66
        E 80 83 2a 00
        E 96 93 2a 66
        E 160 83 2a 00
        E 16 93 2a 66
        E 80 83 2a 00
        E 96 93 2a 66
        E 160 83 2a 00
        E 16 93 2a 66
        E 80 83 2a 00
        E 96 93 2a 66
        E 80 83 2a 00
        E 16 93 2a 66
        E 80 83 2a 00
        E 0 93 2a 66
        E 80 83 2a 00
        E 96 93 2a 66
        E 80 83 2a 00
        E 16 93 2a 66
        E 80 83 2a 00
        E 0 93 2a 66
        E 80 83 2a 00
        E 96 93 2a 66
        E 80 83 2a 00
        E 16 93 2a 66
        E 80 83 2a 00
        E 0 93 2a 66
        E 80 83 2a 00
        E 96 93 2a 66
        E 80 83 2a 00
        E 16 93 2a 66
        E 80 83 2a 00
        E 0 93 2a 66
        E 80 83 2a 00
        E 96 93 2a 66
        E 80 83 2a 00
        E 16 93 2a 66
        E 80 83 2a 00
        E 0 93 2a 66
        E 80 83 2a 00
        E 96 93 2a 66
        E 80 83 2a 00
        E 16 93 2a 66
        E 80 83 2a 00
        E 0 93 2a 66
        E 80 83 2a 00
        E 96 93 2a 66
        E 80 83 2a 00
        E 16 93 2a 66
        E 80 83 2a 00
        E 0 93 2a 66
        E 80 83 2a 00
        E 96 93 2a 66
        E 80 83 2a 00
        E 16 93 2a 66
        E 80 83 2a 00
        E 0 93 2a 66
        E 80 83 2a 00
        E 96 93 2a 66
        E 80 83 2a 00
        E 16 93 2a 66
        E 80 83 2a 00
        E 0 93 2a 66
        E 80 83 2a 00
        E 96 93 2a 66
        E 80 83 2a 00
        E 16 93 2a 66
        E 80 83 2a 00
        E 0 93 2a 66
        E 80 83 2a 00
        E 96 93 2a 66
        E 80 83 2a 00
        E 16 93 2a 66
        E 80 83 2a 00
        E 0 93 2a 66
        E 80 83 2a 00
        E 96 93 2a 66
        E 80 83 2a 00
        E 16 93 2a 66
        E 80 83 2a 00
        E 0 93 2a 66
        E 80 83 2a 00
        E 96 93 2a 66
        E 80 83 2a 00
        E 16 93 2a 66
        E 80 83 2a 00
        E 0 93 2a 66
        E 80 83 2a 00
        E 96 93 2a 66
        E 80 83 2a 00
        E 16 93 2a 66
        E 80 83 2a 00
        E 0 93 2a 66
        E 80 83 2a 00
        E 96 93 2a 66
        E 80 83 2a 00
        E 16 93 2a 66
        E 80 83 2a 00
        E 0 93 2a 66
        E 80 83 2a 00
        E 96 93 2a 66
        E 80 83 2a 00
        E 16 93 2a 66
        E 80 83 2a 00
        E 0 93 2a 66
        E 80 83 2a 00
        E 96 93 2a 66
        E 80 83 2a 00
        E 16 93 2a 66
        E 80 83 2a 00
        E 0 93 2a 66
        E 80 83 2a 00
        E 96 93 2a 66
        E 80 83 2a 00
        E 16 93 2a 66
        E 80 83 2a 00
        E 0 93 2a 66
        E 80 83 2a 00
        E 96 93 2a 66
        E 80 83 2a 00
        E 16 93 2a 66
        E 80 83 2a 00
        E 0 93 2a 66
        E 80 83 2a 00
        E 16 93 2a 66
        E 80 83 2a 00
        E 0 93 2a 66
        E 80 83 2a 00
        E 16 93 2a 66
        E 80 83 2a 00
        E 0 93 2a 66
        E 80 83 2a 00
        E 16 93 2a 66
        E 80 83 2a 00
        E 0 93 2a 66
        E 80 83 2a 00
        E 16 93 2a 66
        E 80 83 2a 00
        E 0 93 2a 66
        E 80 83 2a 00
        E 112 93 2a 66
        E 160 83 2a 00
        E 16 93 2a 66
        E 80 83 2a 00
        E 96 93 2a 66
        E 160 83 2a 00
        E 16 93 2a 66
        E 80 83 2a 00
        E 96 93 2a 66
        E 160 83 2a 00
        E 16 93 2a 66
        E 80 83 2a 00
        E 96 93 2a 66
        E 160 83 2a 00
        E 16 93 2a 66
        E 80 83 2a 00
        E 96 93 2a 66
        E 160 83 2a 00
        E 16 93 2a 66
        E 80 83 2a 00
        E 96 93 2a 66
        E 160 83 2a 00
        E 16 93 2a 66
        E 80 83 2a 00
        E 96 93 2a 66
        E 160 83 2a 00
        E 16 93 2a 66
        E 80 83 2a 00
        E 96 93 2a 66
        E 160 83 2a 00
        E 16 93 2a 66
        E 80 83 2a 00
        E 96 93 2a 66
        E 80 83 2a 00
        E 16 93 2a 66
        E 80 83 2a 00
        E 0 93 2a 66
        E 80 83 2a 00
        E 96 93 2a 66
        E 80 83 2a 00
        E 16 93 2a 66
        E 80 83 2a 00
        E 0 93 2a 66
        E 80 83 2a 00
        E 96 b3 7b 00
        E 0 ff 2f 00
      >
    >
  >
>