<REAPER_PROJECT 0.1 "7.27/win64" 1707000000
  <NOTES 0 2
    |ReapNES Studio Project
    |MIDI Import - Bases_Loaded_4_title_rom_v1
  >
  RIPPLE 0
  GROUPOVERRIDE 0 0 0
  AUTOXFADE 129
  ENVATTACH 3
  POOLEDENVATTACH 0
  MIXERUIFLAGS 11 48
  ENVFADESZ10 40
  PEAKGAIN 1
  FEEDBACK 0
  PANLAW 1
  PROJOFFS 0 0 0
  MAXPROJLEN 0 0
  GRID 3199 8 1 8 1 0 0 0
  TIMEMODE 1 5 -1 30 0 0 -1
  VIDEO_CONFIG 0 0 65792
  PANMODE 3
  PANLAWFLAGS 3
  CURSOR 0
  ZOOM 100 0 0
  VZOOMEX 6 0
  USE_REC_CFG 0
  RECMODE 1
  SMPTESYNC 0 30 100 40 1000 300 0 0 1 0 0
  LOOP 0
  LOOPGRAN 0 4
  RECORD_PATH "Media" ""
  <RECORD_CFG
    ZXZhdxgAAQ==
  >
  <APPLYFX_CFG
  >
  RENDER_FILE ""
  RENDER_PATTERN ""
  RENDER_FMT 0 2 0
  RENDER_1X 0
  RENDER_RANGE 1 0 0 18 1000
  RENDER_RESAMPLE 3 0 1
  RENDER_ADDTOPROJ 0
  RENDER_STEMS 0
  RENDER_DITHER 0
  TIMELOCKMODE 1
  TEMPOENVLOCKMODE 1
  ITEMMIX 1
  DEFPITCHMODE 589824 0
  TAKELANE 1
  SAMPLERATE 44100 0 0
  <RENDER_CFG
    ZXZhdxgAAQ==
  >
  LOCK 1
  <METRONOME 6 2
    VOL 0.25 0.125
    BEATLEN 4
    FREQ 1760 880 1
    SAMPLES "" ""
    SPLIGNORE 0 0
    SPLDEF 2 660 "" 0
    SPLDEF 3 440 "" 0
    PATTERN 0 169
    PATTERNSTR ABBB
    MULT 1
  >
  GLOBAL_AUTO -1
  TEMPO 128.59999614200012 4 4
  PLAYRATE 1 0 0.25 4
  SELECTION 0 0
  SELECTION2 0 0
  MASTERAUTOMODE 0
  MASTERTRACKHEIGHT 0 0
  MASTERPEAKCOL 16576
  MASTERMUTESOLO 0
  MASTERTRACKVIEW 0 0.6667 0.5 0.5 0 0 0 0 0 0 0 0 0 0
  MASTERHWOUT 0 0 1 0 0 0 0 -1
  MASTER_NCH 2 2
  MASTER_VOLUME 1 0 -1 -1 1
  MASTER_PANMODE 3
  MASTER_PANLAWFLAGS 3
  MASTER_FX 1
  MASTER_SEL 0
  <MASTERPLAYSPEEDENV
    EGUID {7B24A8A6-EEC3-4E0E-B87B-A4F802F68BC1}
    ACT 0 -1
    VIS 0 1 1
    LANEHEIGHT 0 0
    ARM 0
    DEFSHAPE 0 -1 -1
  >
  <TEMPOENVEX
    EGUID {023D1E8B-E891-4A16-B2A9-CE6C0D85B852}
    ACT 1 -1
    VIS 1 0 1
    LANEHEIGHT 0 0
    ARM 0
    DEFSHAPE 1 -1 -1
  >
  <PROJBAY
  >
  <TRACK {11ADDAD9-29F5-4A9D-A1E3-0EB33521D802}
    NAME "NES - Pulse 1 [ch0]"
    PEAKCOL 16576606
    BEAT -1
    AUTOMODE 0
    PANLAWFLAGS 3
    VOLPAN 1 0 -1 -1 1
    MUTESOLO 0 0 0
    IPHASE 0
    PLAYOFFS 0 1
    ISBUS 0 0
    BUSCOMP 0 0 0 0 0
    SHOWINMIX 1 0.6667 0.5 1 0.5 0 0 0
    FIXEDLANES 9 0 0 0 0
    SEL 1
    REC 1 5088 1 0 0 0 0 0
    VU 2
    TRACKHEIGHT 0 0 0 0 0 0 0
    INQ 0 0 0 0.5 100 0 0 100
    NCHAN 2
    FX 1
    TRACKID {11ADDAD9-29F5-4A9D-A1E3-0EB33521D802}
    PERF 0
    MIDIOUT -1
    MAINSEND 1 0
    <FXCHAIN
      WNDRECT 24 52 700 560
      SHOW 0
      LASTSEL 0
      DOCKED 0
      BYPASS 0 0 0
      <JS "ReapNES Studio/ReapNES_Console.jsfx" ""
        2 15 1 10 80 10 100 2 1 15 1 5 60 10 80 1 1 0 50 0 0 15 1 0 100 0 0 0.500000 0.500000 0.400000 0.300000 0.800000 0 1 0 0 0 0 - - - - - - - - - - - - - - - - - - - - - - - - - -
      >
      FLOATPOS 0 0 0 0
      FXID {DD57E32E-306E-439A-8861-6F25012D8A3A}
      WAK 0 0
    >
    <ITEM
      POSITION 0
      LENGTH 9.269051600000001
      LOOP 0
      ALLTAKES 0
      FADEIN 0 0 0 0 0 0 0
      FADEOUT 0 0 0 0 0 0 0
      MUTE 0 0
      SEL 0
      IGUID {695D0F53-564A-48FC-A931-501BD3583239}
      <SOURCE MIDI
        HASDATA 1 480 QN
        CCINTERP 32
        E 0 c0 50
        E 0 b0 0c 20
        E 0 b0 0b 77
        E 0 90 6b 77
        E 32 b0 0b 6e
        E 32 b0 0b 66
        E 32 b0 0b 5d
        E 32 b0 0b 55
        E 32 b0 0b 4c
        E 32 b0 0b 44
        E 32 b0 0b 3b
        E 64 b0 0b 33
        E 32 b0 0b 2a
        E 32 b0 0b 22
        E 32 b0 0b 19
        E 32 b0 0b 11
        E 32 b0 0b 08
        E 32 b0 0b 7f
        E 0 80 6b 00
        E 0 90 2b 7f
        E 48 b0 0b 55
        E 16 b0 0b 44
        E 16 b0 0b 7f
        E 48 b0 0b 55
        E 16 b0 0b 44
        E 16 b0 0b 3b
        E 32 b0 0b 33
        E 48 b0 0b 2a
        E 32 b0 0b 22
        E 16 b0 0b 7f
        E 0 80 2b 00
        E 0 90 2f 7f
        E 48 b0 0b 55
        E 16 b0 0b 44
        E 16 b0 0b 7f
        E 48 b0 0b 55
        E 16 b0 0b 44
        E 16 b0 0b 3b
        E 32 b0 0b 33
        E 48 b0 0b 2a
        E 32 b0 0b 22
        E 16 b0 0b 7f
        E 0 80 2f 00
        E 0 90 32 7f
        E 48 b0 0b 55
        E 16 b0 0b 44
        E 16 b0 0b 7f
        E 48 b0 0b 55
        E 16 b0 0b 44
        E 16 b0 0b 3b
        E 32 b0 0b 7f
        E 0 80 32 00
        E 0 90 37 7f
        E 48 b0 0b 55
        E 16 b0 0b 44
        E 16 b0 0b 7f
        E 48 b0 0b 55
        E 16 b0 0b 44
        E 16 b0 0b 3b
        E 32 b0 0b 7f
        E 48 b0 0b 55
        E 16 b0 0b 44
        E 16 b0 0b 7f
        E 48 b0 0b 55
        E 16 b0 0b 44
        E 16 b0 0b 3b
        E 32 b0 0b 7f
        E 0 80 37 00
        E 0 90 36 7f
        E 48 b0 0b 55
        E 16 b0 0b 44
        E 16 b0 0b 7f
        E 16 80 36 00
        E 0 90 35 7f
        E 48 b0 0b 55
        E 16 b0 0b 44
        E 16 b0 0b 7f
        E 48 b0 0b 55
        E 16 b0 0b 44
        E 16 b0 0b 3b
        E 32 b0 0b 33
        E 48 b0 0b 2a
        E 32 b0 0b 22
        E 16 b0 0b 7f
        E 0 80 35 00
        E 0 90 34 7f
        E 48 b0 0b 55
        E 16 b0 0b 44
        E 16 b0 0b 7f
        E 48 b0 0b 55
        E 16 b0 0b 44
        E 16 b0 0b 3b
        E 32 b0 0b 33
        E 48 b0 0b 2a
        E 32 b0 0b 22
        E 16 b0 0b 7f
        E 0 80 34 00
        E 0 90 30 7f
        E 48 b0 0b 55
        E 16 b0 0b 44
        E 16 b0 0b 7f
        E 48 b0 0b 55
        E 16 b0 0b 44
        E 16 b0 0b 3b
        E 32 b0 0b 33
        E 48 b0 0b 2a
        E 32 b0 0b 22
        E 16 b0 0b 7f
        E 0 80 30 00
        E 0 90 37 7f
        E 48 b0 0b 55
        E 16 b0 0b 44
        E 16 b0 0b 7f
        E 48 b0 0b 55
        E 16 b0 0b 44
        E 16 b0 0b 3b
        E 32 b0 0b 33
        E 48 b0 0b 2a
        E 32 b0 0b 22
        E 16 b0 0b 11
        E 96 b0 0b 7f
        E 0 80 37 00
        E 0 90 3b 7f
        E 32 80 3b 00
        E 0 90 3c 7f
        E 48 b0 0b 55
        E 16 b0 0b 44
        E 16 b0 0b 7f
        E 48 b0 0b 55
        E 16 b0 0b 44
        E 16 b0 0b 3b
        E 32 b0 0b 33
        E 48 b0 0b 2a
        E 16 b0 0b 7f
        E 0 80 3c 00
        E 0 90 3b 7f
        E 48 b0 0b 55
        E 16 b0 0b 44
        E 16 b0 0b 7f
        E 48 b0 0b 55
        E 16 b0 0b 44
        E 16 b0 0b 3b
        E 32 b0 0b 33
        E 48 b0 0b 2a
        E 32 b0 0b 22
        E 16 b0 0b 7f
        E 0 80 3b 00
        E 0 90 39 7f
        E 48 b0 0b 55
        E 16 b0 0b 44
        E 16 b0 0b 7f
        E 48 b0 0b 55
        E 16 b0 0b 44
        E 16 b0 0b 3b
        E 32 b0 0b 33
        E 48 b0 0b 2a
        E 32 b0 0b 22
        E 16 b0 0b 11
        E 672 b0 0b 7f
        E 48 b0 0b 55
        E 16 b0 0b 44
        E 16 b0 0b 7f
        E 48 b0 0b 55
        E 16 b0 0b 44
        E 16 b0 0b 3b
        E 32 b0 0b 7f
        E 0 80 39 00
        E 0 90 38 7f
        E 48 b0 0b 55
        E 16 b0 0b 44
        E 16 b0 0b 7f
        E 16 80 38 00
        E 0 90 37 7f
        E 48 b0 0b 55
        E 16 b0 0b 44
        E 16 b0 0b 7f
        E 48 b0 0b 55
        E 16 b0 0b 44
        E 16 b0 0b 3b
        E 32 b0 0b 33
        E 48 b0 0b 2a
        E 32 b0 0b 22
        E 16 b0 0b 7f
        E 0 80 37 00
        E 0 90 36 7f
        E 48 b0 0b 55
        E 16 b0 0b 44
        E 16 b0 0b 7f
        E 48 b0 0b 55
        E 16 b0 0b 44
        E 16 b0 0b 3b
        E 32 b0 0b 33
        E 48 b0 0b 2a
        E 32 b0 0b 22
        E 16 b0 0b 7f
        E 0 80 36 00
        E 0 90 32 7f
        E 48 b0 0b 55
        E 16 b0 0b 44
        E 16 b0 0b 7f
        E 48 b0 0b 55
        E 16 b0 0b 44
        E 16 b0 0b 3b
        E 32 b0 0b 33
        E 48 b0 0b 2a
        E 32 b0 0b 22
        E 16 b0 0b 7f
        E 0 80 32 00
        E 0 90 39 7f
        E 48 b0 0b 55
        E 16 b0 0b 44
        E 16 b0 0b 7f
        E 48 b0 0b 55
        E 16 b0 0b 44
        E 16 b0 0b 3b
        E 32 b0 0b 33
        E 48 b0 0b 2a
        E 32 b0 0b 22
        E 16 b0 0b 11
        E 96 b0 0b 7f
        E 0 80 39 00
        E 0 90 3e 7f
        E 48 b0 0b 55
        E 16 b0 0b 44
        E 16 b0 0b 7f
        E 48 b0 0b 55
        E 16 b0 0b 44
        E 16 b0 0b 3b
        E 32 b0 0b 33
        E 48 b0 0b 2a
        E 32 b0 0b 22
        E 16 b0 0b 11
        E 96 b0 0b 7f
        E 0 80 3e 00
        E 0 90 39 7f
        E 48 b0 0b 55
        E 16 b0 0b 44
        E 16 b0 0b 7f
        E 16 80 39 00
        E 0 90 3a 7f
        E 48 b0 0b 55
        E 16 b0 0b 44
        E 16 b0 0b 7f
        E 16 80 3a 00
        E 0 90 3b 7f
        E 48 b0 0b 55
        E 16 b0 0b 44
        E 16 b0 0b 7f
        E 48 b0 0b 55
        E 16 b0 0b 44
        E 16 b0 0b 3b
        E 32 b0 0b 33
        E 48 b0 0b 2a
        E 32 b0 0b 22
        E 16 b0 0b 11
        E 1056 b0 0b 7f
        E 48 b0 0b 55
        E 16 b0 0b 44
        E 16 b0 0b 7f
        E 48 b0 0b 55
        E 16 b0 0b 44
        E 16 b0 0b 3b
        E 32 b0 0b 7f
        E 0 80 3b 00
        E 0 90 40 7f
        E 48 b0 0b 55
        E 16 b0 0b 44
        E 16 b0 0b 7f
        E 48 b0 0b 55
        E 16 b0 0b 44
        E 16 b0 0b 3b
        E 32 b0 0b 33
        E 48 b0 0b 2a
        E 16 b0 0b 7f
        E 0 80 40 00
        E 0 90 3b 7f
        E 48 b0 0b 55
        E 16 b0 0b 44
        E 16 b0 0b 7f
        E 48 b0 0b 55
        E 16 b0 0b 44
        E 16 b0 0b 3b
        E 32 b0 0b 33
        E 48 b0 0b 2a
        E 16 b0 0b 7f
        E 0 80 3b 00
        E 0 90 40 7f
        E 48 b0 0b 55
        E 16 b0 0b 44
        E 16 b0 0b 7f
        E 48 b0 0b 55
        E 16 b0 0b 44
        E 16 b0 0b 3b
        E 32 b0 0b 33
        E 48 b0 0b 2a
        E 16 b0 0b 7f
        E 0 80 40 00
        E 0 90 3b 7f
        E 48 b0 0b 55
        E 16 b0 0b 44
        E 16 b0 0b 7f
        E 48 b0 0b 55
        E 16 b0 0b 44
        E 16 b0 0b 3b
        E 32 b0 0b 33
        E 48 b0 0b 2a
        E 16 b0 0b 7f
        E 0 80 3b 00
        E 0 90 40 7f
        E 48 b0 0b 55
        E 16 b0 0b 44
        E 16 b0 0b 7f
        E 48 b0 0b 55
        E 16 b0 0b 44
        E 16 b0 0b 3b
        E 32 b0 0b 33
        E 48 b0 0b 2a
        E 16 b0 0b 7f
        E 0 80 40 00
        E 0 90 45 7f
        E 48 b0 0b 55
        E 16 b0 0b 44
        E 16 b0 0b 7f
        E 16 80 45 00
        E 0 b0 7b 00
        E 0 ff 2f 00
      >
    >
  >
  <TRACK {54F804CB-0B2F-4159-8013-F2B010C36042}
    NAME "NES - Pulse 2 [ch1]"
    PEAKCOL 10092441
    BEAT -1
    AUTOMODE 0
    PANLAWFLAGS 3
    VOLPAN 1 0 -1 -1 1
    MUTESOLO 0 0 0
    IPHASE 0
    PLAYOFFS 0 1
    ISBUS 0 0
    BUSCOMP 0 0 0 0 0
    SHOWINMIX 1 0.6667 0.5 1 0.5 0 0 0
    FIXEDLANES 9 0 0 0 0
    SEL 0
    REC 0 5088 1 0 0 0 0 0
    VU 2
    TRACKHEIGHT 0 0 0 0 0 0 0
    INQ 0 0 0 0.5 100 0 0 100
    NCHAN 2
    FX 1
    TRACKID {54F804CB-0B2F-4159-8013-F2B010C36042}
    PERF 0
    MIDIOUT -1
    MAINSEND 1 0
    <FXCHAIN
      WNDRECT 24 52 700 560
      SHOW 0
      LASTSEL 0
      DOCKED 0
      BYPASS 0 0 0
      <JS "ReapNES Studio/ReapNES_Console.jsfx" ""
        2 15 1 10 80 10 100 2 1 15 1 5 60 10 80 1 1 0 50 0 0 15 1 0 100 0 0 0.500000 0.500000 0.400000 0.300000 0.800000 1 1 0 0 0 0 - - - - - - - - - - - - - - - - - - - - - - - - - -
      >
      FLOATPOS 0 0 0 0
      FXID {EB70F4BC-E48D-4563-B73D-A55626240B6E}
      WAK 0 0
    >
    <ITEM
      POSITION 0
      LENGTH 9.269051600000001
      LOOP 0
      ALLTAKES 0
      FADEIN 0 0 0 0 0 0 0
      FADEOUT 0 0 0 0 0 0 0
      MUTE 0 0
      SEL 0
      IGUID {F0CFE8B8-1244-47AD-A593-2C933A9129A8}
      <SOURCE MIDI
        HASDATA 1 480 QN
        CCINTERP 32
        E 0 c1 51
        E 0 b1 0c 40
        E 0 b1 0b 77
        E 0 91 73 77
        E 32 b1 0b 6e
        E 32 b1 0b 66
        E 32 b1 0b 5d
        E 32 b1 0b 55
        E 32 b1 0b 4c
        E 32 b1 0b 44
        E 32 b1 0b 3b
        E 64 b1 0b 33
        E 32 b1 0b 2a
        E 32 b1 0b 22
        E 32 b1 0b 19
        E 32 b1 0b 11
        E 32 b1 0b 08
        E 32 b1 0b 7f
        E 0 81 73 00
        E 0 91 37 7f
        E 32 b1 0b 6e
        E 32 b1 0b 5d
        E 32 b1 0b 4c
        E 32 b1 0b 3b
        E 32 b1 0b 2a
        E 32 b1 0b 19
        E 32 b1 0b 08
        E 32 b1 0b 77
        E 32 b1 0b 7f
        E 0 81 37 00
        E 0 91 3b 7f
        E 32 b1 0b 6e
        E 32 b1 0b 5d
        E 32 b1 0b 4c
        E 32 b1 0b 3b
        E 32 b1 0b 2a
        E 32 b1 0b 19
        E 32 b1 0b 08
        E 32 b1 0b 77
        E 32 b1 0b 7f
        E 0 81 3b 00
        E 0 91 3e 7f
        E 32 b1 0b 6e
        E 32 b1 0b 5d
        E 32 b1 0b 4c
        E 32 b1 0b 3b
        E 32 b1 0b 2a
        E 32 b1 0b 7f
        E 0 81 3e 00
        E 0 91 43 7f
        E 32 b1 0b 6e
        E 32 b1 0b 5d
        E 48 b1 0b 4c
        E 16 b1 0b 3b
        E 32 b1 0b 2a
        E 48 b1 0b 19
        E 16 b1 0b 08
        E 32 b1 0b 77
        E 32 b1 0b 66
        E 32 b1 0b 55
        E 32 b1 0b 44
        E 32 b1 0b 33
        E 32 b1 0b 22
        E 32 b1 0b 11
        E 32 81 43 00
        E 288 b1 0c 20
        E 0 b1 0b 77
        E 0 91 34 77
        E 64 b1 0b 4c
        E 16 b1 0b 3b
        E 32 b1 0b 77
        E 48 b1 0b 4c
        E 32 b1 0b 3b
        E 80 b1 0b 33
        E 48 b1 0b 2a
        E 48 b1 0b 22
        E 32 b1 0b 11
        E 560 b1 0b 77
        E 0 81 34 00
        E 0 91 37 77
        E 64 b1 0b 4c
        E 16 b1 0b 3b
        E 32 b1 0b 77
        E 48 b1 0b 4c
        E 32 b1 0b 3b
        E 80 b1 0b 33
        E 48 b1 0b 2a
        E 48 b1 0b 22
        E 16 b1 0b 77
        E 0 81 37 00
        E 0 91 35 77
        E 64 b1 0b 4c
        E 16 b1 0b 3b
        E 32 b1 0b 77
        E 48 b1 0b 4c
        E 32 b1 0b 77
        E 0 81 35 00
        E 0 91 3c 77
        E 64 b1 0b 4c
        E 16 b1 0b 3b
        E 32 b1 0b 77
        E 48 b1 0b 4c
        E 32 b1 0b 3b
        E 80 b1 0b 33
        E 48 b1 0b 2a
        E 48 b1 0b 22
        E 32 b1 0b 11
        E 1136 b1 0b 77
        E 0 81 3c 00
        E 0 91 36 77
        E 64 b1 0b 4c
        E 16 b1 0b 3b
        E 32 b1 0b 77
        E 48 b1 0b 4c
        E 32 b1 0b 3b
        E 80 b1 0b 33
        E 48 b1 0b 2a
        E 48 b1 0b 22
        E 32 b1 0b 11
        E 560 b1 0b 77
        E 0 81 36 00
        E 0 91 39 77
        E 64 b1 0b 4c
        E 16 b1 0b 3b
        E 32 b1 0b 77
        E 48 b1 0b 4c
        E 32 b1 0b 3b
        E 80 b1 0b 33
        E 48 b1 0b 2a
        E 48 b1 0b 22
        E 16 b1 0b 77
        E 0 81 39 00
        E 0 91 37 77
        E 64 b1 0b 4c
        E 16 b1 0b 3b
        E 32 b1 0b 77
        E 48 b1 0b 4c
        E 32 b1 0b 77
        E 0 81 37 00
        E 0 91 3e 77
        E 64 b1 0b 4c
        E 16 b1 0b 3b
        E 32 b1 0b 77
        E 48 b1 0b 4c
        E 32 b1 0b 3b
        E 80 b1 0b 33
        E 48 b1 0b 2a
        E 48 b1 0b 22
        E 32 b1 0b 11
        E 1136 b1 0b 77
        E 0 81 3e 00
        E 0 91 38 77
        E 64 b1 0b 4c
        E 16 b1 0b 3b
        E 32 b1 0b 77
        E 48 b1 0b 4c
        E 32 b1 0b 3b
        E 80 b1 0b 33
        E 48 b1 0b 2a
        E 48 b1 0b 22
        E 32 b1 0b 11
        E 560 b1 0b 77
        E 0 81 38 00
        E 0 91 3b 77
        E 64 b1 0b 4c
        E 16 b1 0b 3b
        E 32 b1 0b 77
        E 48 b1 0b 4c
        E 32 b1 0b 3b
        E 80 b1 0b 33
        E 48 b1 0b 2a
        E 48 b1 0b 22
        E 16 b1 0b 77
        E 0 81 3b 00
        E 0 91 3e 77
        E 32 81 3e 00
        E 0 b1 7b 00
        E 0 ff 2f 00
      >
    >
  >
  <TRACK {1350F56B-0E18-4B1E-A336-DBE8661291E6}
    NAME "NES - Triangle [ch2]"
    PEAKCOL 16744192
    BEAT -1
    AUTOMODE 0
    PANLAWFLAGS 3
    VOLPAN 1 0 -1 -1 1
    MUTESOLO 0 0 0
    IPHASE 0
    PLAYOFFS 0 1
    ISBUS 0 0
    BUSCOMP 0 0 0 0 0
    SHOWINMIX 1 0.6667 0.5 1 0.5 0 0 0
    FIXEDLANES 9 0 0 0 0
    SEL 0
    REC 0 5088 1 0 0 0 0 0
    VU 2
    TRACKHEIGHT 0 0 0 0 0 0 0
    INQ 0 0 0 0.5 100 0 0 100
    NCHAN 2
    FX 1
    TRACKID {1350F56B-0E18-4B1E-A336-DBE8661291E6}
    PERF 0
    MIDIOUT -1
    MAINSEND 1 0
    <FXCHAIN
      WNDRECT 24 52 700 560
      SHOW 0
      LASTSEL 0
      DOCKED 0
      BYPASS 0 0 0
      <JS "ReapNES Studio/ReapNES_Console.jsfx" ""
        2 15 1 10 80 10 100 2 1 15 1 5 60 10 80 1 1 0 50 0 0 15 1 0 100 0 0 0.500000 0.500000 0.400000 0.300000 0.800000 2 1 0 0 0 0 - - - - - - - - - - - - - - - - - - - - - - - - - -
      >
      FLOATPOS 0 0 0 0
      FXID {E785C4D5-2365-464A-8C78-2AF2BE372412}
      WAK 0 0
    >
    <ITEM
      POSITION 0
      LENGTH 9.269051600000001
      LOOP 0
      ALLTAKES 0
      FADEIN 0 0 0 0 0 0 0
      FADEOUT 0 0 0 0 0 0 0
      MUTE 0 0
      SEL 0
      IGUID {0C0EF0F4-FB35-4792-B6E4-AA96BBBE170B}
      <SOURCE MIDI
        HASDATA 1 480 QN
        CCINTERP 32
        E 0 c2 26
        E 480 b2 0b 7f
        E 0 92 1f 7f
        E 288 82 1f 00
        E 0 b2 0b 7f
        E 0 92 23 7f
        E 288 82 23 00
        E 0 b2 0b 7f
        E 0 92 26 7f
        E 192 82 26 00
        E 0 b2 0b 7f
        E 0 92 2b 7f
        E 384 82 2b 00
        E 0 b2 0b 7f
        E 0 92 1d 7f
        E 16 82 1d 00
        E 0 b2 0b 7f
        E 0 92 1e 7f
        E 16 82 1e 00
        E 0 b2 0b 7f
        E 0 92 1f 7f
        E 352 82 1f 00
        E 0 b2 0b 7f
        E 0 92 23 7f
        E 16 82 23 00
        E 0 b2 0b 7f
        E 0 92 24 7f
        E 560 82 24 00
        E 0 b2 0b 7f
        E 0 92 2a 7f
        E 16 82 2a 00
        E 0 b2 0b 7f
        E 0 92 2b 7f
        E 368 82 2b 00
        E 0 b2 0b 7f
        E 0 92 30 7f
        E 384 82 30 00
        E 0 b2 0b 7f
        E 0 92 2b 7f
        E 192 82 2b 00
        E 0 b2 0b 7f
        E 0 92 29 7f
        E 576 82 29 00
        E 0 b2 0b 7f
        E 0 92 24 7f
        E 384 82 24 00
        E 0 b2 0b 7f
        E 0 92 21 7f
        E 192 82 21 00
        E 0 b2 0b 7f
        E 0 92 29 7f
        E 384 82 29 00
        E 0 b2 0b 7f
        E 0 92 25 7f
        E 16 82 25 00
        E 0 b2 0b 7f
        E 0 92 26 7f
        E 560 82 26 00
        E 0 b2 0b 7f
        E 0 92 2d 7f
        E 384 82 2d 00
        E 0 b2 0b 7f
        E 0 92 32 7f
        E 384 82 32 00
        E 0 b2 0b 7f
        E 0 92 26 7f
        E 192 82 26 00
        E 0 b2 0b 7f
        E 0 92 2b 7f
        E 576 82 2b 00
        E 0 b2 0b 7f
        E 0 92 26 7f
        E 384 82 26 00
        E 0 b2 0b 7f
        E 0 92 23 7f
        E 192 82 23 00
        E 0 b2 0b 7f
        E 0 92 26 7f
        E 384 82 26 00
        E 0 b2 0b 7f
        E 0 92 27 7f
        E 16 82 27 00
        E 0 b2 0b 7f
        E 0 92 28 7f
        E 560 82 28 00
        E 0 b2 0b 7f
        E 0 92 2e 7f
        E 16 82 2e 00
        E 0 b2 0b 7f
        E 0 92 2f 7f
        E 368 82 2f 00
        E 0 b2 0b 7f
        E 0 92 34 7f
        E 384 82 34 00
        E 0 b2 0b 7f
        E 0 92 2f 7f
        E 32 82 2f 00
        E 0 b2 7b 00
        E 0 ff 2f 00
      >
    >
  >
  <TRACK {201E7098-C81D-44E2-B517-3F8C1A39F30B}
    NAME "NES - Noise / Drums [ch3]"
    PEAKCOL 11184810
    BEAT -1
    AUTOMODE 0
    PANLAWFLAGS 3
    VOLPAN 1 0 -1 -1 1
    MUTESOLO 0 0 0
    IPHASE 0
    PLAYOFFS 0 1
    ISBUS 0 0
    BUSCOMP 0 0 0 0 0
    SHOWINMIX 1 0.6667 0.5 1 0.5 0 0 0
    FIXEDLANES 9 0 0 0 0
    SEL 0
    REC 0 5088 1 0 0 0 0 0
    VU 2
    TRACKHEIGHT 0 0 0 0 0 0 0
    INQ 0 0 0 0.5 100 0 0 100
    NCHAN 2
    FX 1
    TRACKID {201E7098-C81D-44E2-B517-3F8C1A39F30B}
    PERF 0
    MIDIOUT -1
    MAINSEND 1 0
    <FXCHAIN
      WNDRECT 24 52 700 560
      SHOW 0
      LASTSEL 0
      DOCKED 0
      BYPASS 0 0 0
      <JS "ReapNES Studio/ReapNES_Console.jsfx" ""
        2 15 1 10 80 10 100 2 1 15 1 5 60 10 80 1 1 0 50 0 0 15 1 0 100 0 0 0.500000 0.500000 0.400000 0.300000 0.800000 3 1 0 0 0 0 - - - - - - - - - - - - - - - - - - - - - - - - - -
      >
      FLOATPOS 0 0 0 0
      FXID {6FD94FC9-C33C-4316-95E0-BF0E9B035DEF}
      WAK 0 0
    >
    <ITEM
      POSITION 0
      LENGTH 9.269051600000001
      LOOP 0
      ALLTAKES 0
      FADEIN 0 0 0 0 0 0 0
      FADEOUT 0 0 0 0 0 0 0
      MUTE 0 0
      SEL 0
      IGUID {A06AE7B2-7BB2-486A-A81B-5C5090069B52}
      <SOURCE MIDI
        HASDATA 1 480 QN
        CCINTERP 32
        E 480 93 2a 7f
        E 128 83 2a 00
        E 160 93 2a 7f
        E 128 83 2a 00
        E 160 93 2a 7f
        E 128 83 2a 00
        E 64 93 2a 7f
        E 128 83 2a 00
        E 64 93 2a 7f
        E 128 83 2a 00
        E 64 93 2a 7f
        E 48 83 2a 00
        E 48 93 2a 7f
        E 48 83 2a 00
        E 48 93 2a 7f
        E 192 83 2a 00
        E 0 93 2a 7f
        E 80 83 2a 00
        E 112 93 2a 66
        E 192 83 2a 00
        E 0 93 2a 7f
        E 80 83 2a 00
        E 112 93 2a 66
        E 192 83 2a 00
        E 0 93 2a 7f
        E 80 83 2a 00
        E 112 93 2a 7f
        E 80 83 2a 00
        E 112 93 2a 7f
        E 80 83 2a 00
        E 112 93 2a 7f
        E 192 83 2a 00
        E 0 93 2a 7f
        E 80 83 2a 00
        E 112 93 2a 66
        E 192 83 2a 00
        E 0 93 2a 7f
        E 80 83 2a 00
        E 112 93 2a 66
        E 192 83 2a 00
        E 0 93 2a 7f
        E 80 83 2a 00
        E 112 93 2a 7f
        E 80 83 2a 00
        E 112 93 2a 7f
        E 80 83 2a 00
        E 112 93 2a 7f
        E 192 83 2a 00
        E 0 93 2a 7f
        E 80 83 2a 00
        E 112 93 2a 66
        E 192 83 2a 00
        E 0 93 2a 7f
        E 80 83 2a 00
        E 112 93 2a 66
        E 192 83 2a 00
        E 0 93 2a 7f
        E 80 83 2a 00
        E 112 93 2a 7f
        E 80 83 2a 00
        E 112 93 2a 7f
        E 80 83 2a 00
        E 112 93 2a 7f
        E 192 83 2a 00
        E 0 93 2a 7f
        E 80 83 2a 00
        E 112 93 2a 66
        E 192 83 2a 00
        E 0 93 2a 7f
        E 80 83 2a 00
        E 112 93 2a 66
        E 192 83 2a 00
        E 0 93 2a 7f
        E 80 83 2a 00
        E 112 93 2a 7f
        E 80 83 2a 00
        E 112 93 2a 7f
        E 80 83 2a 00
        E 112 93 2a 7f
        E 192 83 2a 00
        E 0 93 2a 7f
        E 80 83 2a 00
        E 112 93 2a 66
        E 192 83 2a 00
        E 0 93 2a 7f
        E 80 83 2a 00
        E 112 93 2a 66
        E 192 83 2a 00
        E 0 93 2a 7f
        E 80 83 2a 00
        E 112 93 2a 7f
        E 80 83 2a 00
        E 112 93 2a 7f
        E 80 83 2a 00
        E 112 93 2a 7f
        E 32 83 2a 00
        E 0 b3 7b 00
        E 0 ff 2f 00
      >
    >
  >
>