<REAPER_PROJECT 0.1 "7.27/win64" 1707000000
  <NOTES 0 2
    |ReapNES Studio Project
    |MIDI Import - Adventures_of_Rad_Gravity_The_title_rom_v1
  >
  RIPPLE 0
  GROUPOVERRIDE 0 0 0
  AUTOXFADE 129
  ENVATTACH 3
  POOLEDENVATTACH 0
  MIXERUIFLAGS 11 48
  ENVFADESZ10 40
  PEAKGAIN 1
  FEEDBACK 0
  PANLAW 1
  PROJOFFS 0 0 0
  MAXPROJLEN 0 0
  GRID 3199 8 1 8 1 0 0 0
  TIMEMODE 1 5 -1 30 0 0 -1
  VIDEO_CONFIG 0 0 65792
  PANMODE 3
  PANLAWFLAGS 3
  CURSOR 0
  ZOOM 100 0 0
  VZOOMEX 6 0
  USE_REC_CFG 0
  RECMODE 1
  SMPTESYNC 0 30 100 40 1000 300 0 0 1 0 0
  LOOP 0
  LOOPGRAN 0 4
  RECORD_PATH "Media" ""
  <RECORD_CFG
    ZXZhdxgAAQ==
  >
  <APPLYFX_CFG
  >
  RENDER_FILE ""
  RENDER_PATTERN ""
  RENDER_FMT 0 2 0
  RENDER_1X 0
  RENDER_RANGE 1 0 0 18 1000
  RENDER_RESAMPLE 3 0 1
  RENDER_ADDTOPROJ 0
  RENDER_STEMS 0
  RENDER_DITHER 0
  TIMELOCKMODE 1
  TEMPOENVLOCKMODE 1
  ITEMMIX 1
  DEFPITCHMODE 589824 0
  TAKELANE 1
  SAMPLERATE 44100 0 0
  <RENDER_CFG
    ZXZhdxgAAQ==
  >
  LOCK 1
  <METRONOME 6 2
    VOL 0.25 0.125
    BEATLEN 4
    FREQ 1760 880 1
    SAMPLES "" ""
    SPLIGNORE 0 0
    SPLDEF 2 660 "" 0
    SPLDEF 3 440 "" 0
    PATTERN 0 169
    PATTERNSTR ABBB
    MULT 1
  >
  GLOBAL_AUTO -1
  TEMPO 128.59999614200012 4 4
  PLAYRATE 1 0 0.25 4
  SELECTION 0 0
  SELECTION2 0 0
  MASTERAUTOMODE 0
  MASTERTRACKHEIGHT 0 0
  MASTERPEAKCOL 16576
  MASTERMUTESOLO 0
  MASTERTRACKVIEW 0 0.6667 0.5 0.5 0 0 0 0 0 0 0 0 0 0
  MASTERHWOUT 0 0 1 0 0 0 0 -1
  MASTER_NCH 2 2
  MASTER_VOLUME 1 0 -1 -1 1
  MASTER_PANMODE 3
  MASTER_PANLAWFLAGS 3
  MASTER_FX 1
  MASTER_SEL 0
  <MASTERPLAYSPEEDENV
    EGUID {5F1D3010-ADC5-41F8-9A17-0671BB4CCCE5}
    ACT 0 -1
    VIS 0 1 1
    LANEHEIGHT 0 0
    ARM 0
    DEFSHAPE 0 -1 -1
  >
  <TEMPOENVEX
    EGUID {F68F8D8F-34AE-4D9D-AC80-272B09FE959E}
    ACT 1 -1
    VIS 1 0 1
    LANEHEIGHT 0 0
    ARM 0
    DEFSHAPE 1 -1 -1
  >
  <PROJBAY
  >
  <TRACK {07935632-9CDB-49F0-8246-34C8187C1F60}
    NAME "NES - Pulse 1 [ch0]"
    PEAKCOL 16576606
    BEAT -1
    AUTOMODE 0
    PANLAWFLAGS 3
    VOLPAN 1 0 -1 -1 1
    MUTESOLO 0 0 0
    IPHASE 0
    PLAYOFFS 0 1
    ISBUS 0 0
    BUSCOMP 0 0 0 0 0
    SHOWINMIX 1 0.6667 0.5 1 0.5 0 0 0
    FIXEDLANES 9 0 0 0 0
    SEL 1
    REC 1 5088 1 0 0 0 0 0
    VU 2
    TRACKHEIGHT 0 0 0 0 0 0 0
    INQ 0 0 0 0.5 100 0 0 100
    NCHAN 2
    FX 1
    TRACKID {07935632-9CDB-49F0-8246-34C8187C1F60}
    PERF 0
    MIDIOUT -1
    MAINSEND 1 0
    <FXCHAIN
      WNDRECT 24 52 700 560
      SHOW 0
      LASTSEL 0
      DOCKED 0
      BYPASS 0 0 0
      <JS "ReapNES Studio/ReapNES_Console.jsfx" ""
        2 15 1 10 80 10 100 2 1 15 1 5 60 10 80 1 1 0 50 0 0 15 1 0 100 0 0 0.500000 0.500000 0.400000 0.300000 0.800000 0 1 0 0 0 0 - - - - - - - - - - - - - - - - - - - - - - - - - -
      >
      FLOATPOS 0 0 0 0
      FXID {9A16BB43-026C-45D3-9665-DCFC79FDD47A}
      WAK 0 0
    >
    <ITEM
      POSITION 0
      LENGTH 9.2846037
      LOOP 0
      ALLTAKES 0
      FADEIN 0 0 0 0 0 0 0
      FADEOUT 0 0 0 0 0 0 0
      MUTE 0 0
      SEL 0
      IGUID {27299D9E-0241-479C-8043-330172595499}
      <SOURCE MIDI
        HASDATA 1 480 QN
        CCINTERP 32
        E 0 c0 50
        E 0 b0 0c 10
        E 0 b0 0b 6e
        E 0 90 43 6e
        E 32 b0 0b 66
        E 16 b0 0b 55
        E 16 b0 0b 4c
        E 16 b0 0b 6e
        E 0 80 43 00
        E 0 90 3f 6e
        E 32 b0 0b 66
        E 16 b0 0b 55
        E 16 b0 0b 4c
        E 16 b0 0b 6e
        E 0 80 3f 00
        E 0 90 40 6e
        E 32 b0 0b 66
        E 16 b0 0b 55
        E 16 b0 0b 4c
        E 16 b0 0b 6e
        E 0 80 40 00
        E 0 90 3d 6e
        E 48 b0 0b 66
        E 16 b0 0b 55
        E 16 b0 0b 6e
        E 0 80 3d 00
        E 0 90 3e 6e
        E 48 b0 0b 66
        E 16 b0 0b 55
        E 16 b0 0b 6e
        E 0 80 3e 00
        E 0 90 3a 6e
        E 48 b0 0b 66
        E 16 b0 0b 55
        E 16 b0 0b 6e
        E 0 80 3a 00
        E 0 90 3b 6e
        E 48 b0 0b 66
        E 16 b0 0b 55
        E 16 b0 0b 4c
        E 16 b0 0b 6e
        E 0 80 3b 00
        E 0 90 3c 6e
        E 32 b0 0b 66
        E 16 b0 0b 55
        E 16 b0 0b 4c
        E 16 b0 0b 6e
        E 0 80 3c 00
        E 0 90 47 6e
        E 32 b0 0b 66
        E 16 b0 0b 55
        E 16 b0 0b 4c
        E 16 b0 0b 6e
        E 0 80 47 00
        E 0 90 41 6e
        E 32 b0 0b 66
        E 16 b0 0b 55
        E 16 b0 0b 4c
        E 16 b0 0b 6e
        E 0 80 41 00
        E 0 90 42 6e
        E 32 b0 0b 66
        E 16 b0 0b 55
        E 16 b0 0b 4c
        E 16 b0 0b 6e
        E 0 80 42 00
        E 0 90 3f 6e
        E 32 b0 0b 66
        E 16 b0 0b 55
        E 16 b0 0b 4c
        E 16 b0 0b 6e
        E 0 80 3f 00
        E 0 90 40 6e
        E 32 b0 0b 66
        E 16 b0 0b 55
        E 16 b0 0b 4c
        E 16 b0 0b 6e
        E 0 80 40 00
        E 0 90 3d 6e
        E 32 b0 0b 66
        E 16 b0 0b 55
        E 16 b0 0b 4c
        E 16 b0 0b 6e
        E 0 80 3d 00
        E 0 90 3e 6e
        E 32 b0 0b 66
        E 16 b0 0b 55
        E 16 b0 0b 4c
        E 16 b0 0b 6e
        E 48 b0 0b 66
        E 16 b0 0b 55
        E 16 b0 0b 6e
        E 0 80 3e 00
        E 0 90 48 6e
        E 48 b0 0b 66
        E 16 b0 0b 55
        E 16 b0 0b 6e
        E 0 80 48 00
        E 0 90 44 6e
        E 48 b0 0b 66
        E 16 b0 0b 55
        E 16 b0 0b 6e
        E 0 80 44 00
        E 0 90 45 6e
        E 48 b0 0b 66
        E 16 b0 0b 55
        E 16 b0 0b 4c
        E 16 b0 0b 6e
        E 0 80 45 00
        E 0 90 41 6e
        E 32 b0 0b 66
        E 16 b0 0b 55
        E 16 b0 0b 4c
        E 16 b0 0b 6e
        E 0 80 41 00
        E 0 90 42 6e
        E 32 b0 0b 66
        E 16 b0 0b 55
        E 16 b0 0b 4c
        E 16 b0 0b 6e
        E 0 80 42 00
        E 0 90 3f 6e
        E 32 b0 0b 66
        E 16 b0 0b 55
        E 16 b0 0b 4c
        E 16 b0 0b 6e
        E 0 80 3f 00
        E 0 90 40 6e
        E 32 b0 0b 66
        E 16 b0 0b 55
        E 16 b0 0b 4c
        E 16 b0 0b 6e
        E 0 80 40 00
        E 0 90 42 6e
        E 32 b0 0b 66
        E 16 b0 0b 55
        E 16 b0 0b 4c
        E 16 b0 0b 6e
        E 0 80 42 00
        E 0 90 43 6e
        E 32 b0 0b 66
        E 16 b0 0b 55
        E 16 b0 0b 4c
        E 16 b0 0b 6e
        E 0 80 43 00
        E 0 90 3d 6e
        E 32 b0 0b 66
        E 16 b0 0b 55
        E 16 b0 0b 4c
        E 16 b0 0b 6e
        E 0 80 3d 00
        E 0 90 49 6e
        E 48 b0 0b 66
        E 16 b0 0b 55
        E 16 b0 0b 6e
        E 0 80 49 00
        E 0 90 45 6e
        E 48 b0 0b 66
        E 16 b0 0b 55
        E 16 b0 0b 6e
        E 0 80 45 00
        E 0 90 46 6e
        E 48 b0 0b 66
        E 16 b0 0b 55
        E 16 b0 0b 6e
        E 0 80 46 00
        E 0 90 43 6e
        E 48 b0 0b 66
        E 16 b0 0b 55
        E 16 b0 0b 6e
        E 0 80 43 00
        E 0 90 44 6e
        E 48 b0 0b 66
        E 16 b0 0b 55
        E 16 b0 0b 4c
        E 16 b0 0b 6e
        E 0 80 44 00
        E 0 90 40 6e
        E 32 b0 0b 66
        E 16 b0 0b 55
        E 16 b0 0b 4c
        E 16 b0 0b 6e
        E 0 80 40 00
        E 0 90 41 6e
        E 32 b0 0b 66
        E 16 b0 0b 55
        E 16 b0 0b 4c
        E 16 b0 0b 6e
        E 0 80 41 00
        E 0 90 42 6e
        E 32 b0 0b 66
        E 16 b0 0b 55
        E 16 b0 0b 4c
        E 16 b0 0b 6e
        E 0 80 42 00
        E 0 90 4d 6e
        E 32 b0 0b 66
        E 16 b0 0b 55
        E 16 b0 0b 4c
        E 16 b0 0b 6e
        E 0 80 4d 00
        E 0 90 47 6e
        E 32 b0 0b 66
        E 16 b0 0b 55
        E 16 b0 0b 4c
        E 16 b0 0b 6e
        E 0 80 47 00
        E 0 90 48 6e
        E 32 b0 0b 66
        E 16 b0 0b 55
        E 16 b0 0b 4c
        E 16 b0 0b 6e
        E 0 80 48 00
        E 0 90 45 6e
        E 32 b0 0b 66
        E 16 b0 0b 55
        E 16 b0 0b 4c
        E 16 b0 0b 6e
        E 0 80 45 00
        E 0 90 46 6e
        E 48 b0 0b 66
        E 16 b0 0b 55
        E 16 b0 0b 6e
        E 0 80 46 00
        E 0 90 43 6e
        E 48 b0 0b 66
        E 16 b0 0b 55
        E 16 b0 0b 6e
        E 0 80 43 00
        E 0 90 44 6e
        E 48 b0 0b 66
        E 16 b0 0b 55
        E 16 b0 0b 6e
        E 48 b0 0b 66
        E 16 b0 0b 55
        E 16 b0 0b 6e
        E 0 80 44 00
        E 0 90 4e 6e
        E 48 b0 0b 66
        E 16 b0 0b 55
        E 16 b0 0b 4c
        E 16 b0 0b 6e
        E 0 80 4e 00
        E 0 90 4a 6e
        E 32 b0 0b 66
        E 16 b0 0b 55
        E 16 b0 0b 4c
        E 16 b0 0b 6e
        E 0 80 4a 00
        E 0 90 4b 6e
        E 32 b0 0b 66
        E 16 b0 0b 55
        E 16 b0 0b 4c
        E 16 b0 0b 6e
        E 0 80 4b 00
        E 0 90 47 6e
        E 32 b0 0b 66
        E 16 b0 0b 55
        E 16 b0 0b 4c
        E 16 b0 0b 6e
        E 0 80 47 00
        E 0 90 48 6e
        E 32 b0 0b 66
        E 16 b0 0b 55
        E 16 b0 0b 4c
        E 16 b0 0b 6e
        E 0 80 48 00
        E 0 90 45 6e
        E 32 b0 0b 66
        E 16 b0 0b 55
        E 16 b0 0b 4c
        E 16 b0 0b 6e
        E 0 80 45 00
        E 0 90 46 6e
        E 32 b0 0b 66
        E 16 b0 0b 55
        E 16 b0 0b 4c
        E 16 b0 0b 6e
        E 0 80 46 00
        E 0 90 48 6e
        E 32 b0 0b 66
        E 16 b0 0b 55
        E 16 b0 0b 4c
        E 16 b0 0b 6e
        E 0 80 48 00
        E 0 90 49 6e
        E 48 b0 0b 66
        E 16 b0 0b 55
        E 16 b0 0b 6e
        E 0 80 49 00
        E 0 90 3d 6e
        E 368 b0 0b 66
        E 16 b0 0b 55
        E 16 b0 0b 4c
        E 16 b0 0b 3b
        E 16 b0 0b 33
        E 16 b0 0b 22
        E 16 b0 0b 19
        E 16 b0 0b 08
        E 16 b0 0b 6e
        E 0 80 3d 00
        E 0 90 42 6e
        E 240 b0 0b 66
        E 16 b0 0b 55
        E 16 b0 0b 4c
        E 16 b0 0b 3b
        E 16 b0 0b 33
        E 16 b0 0b 6e
        E 0 80 42 00
        E 0 90 49 6e
        E 128 b0 0b 66
        E 16 b0 0b 55
        E 16 b0 0b 6e
        E 0 80 49 00
        E 0 90 4b 6e
        E 128 b0 0b 66
        E 16 b0 0b 55
        E 16 b0 0b 6e
        E 0 80 4b 00
        E 0 90 48 6e
        E 496 b0 0b 66
        E 16 b0 0b 55
        E 16 b0 0b 4c
        E 16 b0 0b 3b
        E 16 b0 0b 33
        E 16 b0 0b 22
        E 16 b0 0b 19
        E 16 b0 0b 08
        E 16 80 48 00
        E 32 b0 0b 6e
        E 0 90 42 6e
        E 128 b0 0b 66
        E 16 b0 0b 55
        E 16 b0 0b 6e
        E 0 80 42 00
        E 0 90 46 6e
        E 128 b0 0b 66
        E 16 b0 0b 55
        E 16 b0 0b 6e
        E 0 80 46 00
        E 0 90 4c 6e
        E 128 b0 0b 66
        E 16 b0 0b 55
        E 16 b0 0b 4c
        E 16 b0 0b 6e
        E 0 80 4c 00
        E 0 90 49 6e
        E 112 b0 0b 66
        E 16 b0 0b 55
        E 16 b0 0b 4c
        E 16 b0 0b 6e
        E 0 80 49 00
        E 0 90 46 6e
        E 128 b0 0b 66
        E 16 b0 0b 55
        E 16 b0 0b 6e
        E 0 80 46 00
        E 0 90 42 6e
        E 128 b0 0b 66
        E 16 b0 0b 55
        E 16 b0 0b 6e
        E 0 80 42 00
        E 0 90 40 6e
        E 1552 b0 0b 66
        E 16 b0 0b 55
        E 16 b0 0b 4c
        E 16 b0 0b 3b
        E 16 b0 0b 33
        E 16 b0 0b 22
        E 16 b0 0b 19
        E 16 b0 0b 08
        E 16 80 40 00
        E 768 b0 0b 6e
        E 0 90 3d 6e
        E 192 80 3d 00
        E 0 b0 7b 00
        E 0 ff 2f 00
      >
    >
  >
  <TRACK {EF143220-9DAE-4CB3-9249-FC2BA81F471B}
    NAME "NES - Pulse 2 [ch1]"
    PEAKCOL 10092441
    BEAT -1
    AUTOMODE 0
    PANLAWFLAGS 3
    VOLPAN 1 0 -1 -1 1
    MUTESOLO 0 0 0
    IPHASE 0
    PLAYOFFS 0 1
    ISBUS 0 0
    BUSCOMP 0 0 0 0 0
    SHOWINMIX 1 0.6667 0.5 1 0.5 0 0 0
    FIXEDLANES 9 0 0 0 0
    SEL 0
    REC 0 5088 1 0 0 0 0 0
    VU 2
    TRACKHEIGHT 0 0 0 0 0 0 0
    INQ 0 0 0 0.5 100 0 0 100
    NCHAN 2
    FX 1
    TRACKID {EF143220-9DAE-4CB3-9249-FC2BA81F471B}
    PERF 0
    MIDIOUT -1
    MAINSEND 1 0
    <FXCHAIN
      WNDRECT 24 52 700 560
      SHOW 0
      LASTSEL 0
      DOCKED 0
      BYPASS 0 0 0
      <JS "ReapNES Studio/ReapNES_Console.jsfx" ""
        2 15 1 10 80 10 100 2 1 15 1 5 60 10 80 1 1 0 50 0 0 15 1 0 100 0 0 0.500000 0.500000 0.400000 0.300000 0.800000 1 1 0 0 0 0 - - - - - - - - - - - - - - - - - - - - - - - - - -
      >
      FLOATPOS 0 0 0 0
      FXID {727F93F1-5321-467C-ABD3-C17CBC0FD23F}
      WAK 0 0
    >
    <ITEM
      POSITION 0
      LENGTH 9.2846037
      LOOP 0
      ALLTAKES 0
      FADEIN 0 0 0 0 0 0 0
      FADEOUT 0 0 0 0 0 0 0
      MUTE 0 0
      SEL 0
      IGUID {87D672E2-31E5-4AD2-9211-3852090D8DF3}
      <SOURCE MIDI
        HASDATA 1 480 QN
        CCINTERP 32
        E 0 c1 51
        E 240 b1 0c 10
        E 0 b1 0b 6e
        E 0 91 1f 6e
        E 48 b1 0c 20
        E 48 b1 0c 40
        E 400 b1 0c 10
        E 0 81 1f 00
        E 0 91 1d 6e
        E 48 b1 0c 20
        E 48 b1 0c 40
        E 64 b1 0b 66
        E 16 b1 0b 5d
        E 16 b1 0b 55
        E 16 b1 0b 44
        E 16 b1 0b 3b
        E 16 b1 0b 33
        E 16 b1 0b 2a
        E 16 b1 0b 19
        E 16 b1 0b 11
        E 16 b1 0b 08
        E 16 b1 0c 10
        E 0 b1 0b 6e
        E 0 81 1d 00
        E 0 91 16 6e
        E 48 b1 0c 20
        E 48 b1 0c 40
        E 64 b1 0c 10
        E 0 81 16 00
        E 0 91 17 6e
        E 48 b1 0c 20
        E 48 b1 0c 40
        E 64 b1 0b 66
        E 16 b1 0b 5d
        E 16 b1 0b 55
        E 16 b1 0b 44
        E 16 b1 0b 3b
        E 16 b1 0b 33
        E 16 b1 0b 2a
        E 16 b1 0b 19
        E 16 b1 0b 11
        E 16 b1 0b 08
        E 16 81 17 00
        E 16 b1 0c 10
        E 0 b1 0b 6e
        E 0 91 1f 6e
        E 48 b1 0c 20
        E 48 b1 0c 40
        E 384 b1 0c 10
        E 0 81 1f 00
        E 0 91 1d 6e
        E 48 b1 0c 20
        E 32 b1 0b 66
        E 16 b1 0b 5d
        E 16 b1 0b 55
        E 16 b1 0b 44
        E 16 b1 0b 3b
        E 16 b1 0b 33
        E 16 b1 0b 2a
        E 16 b1 0b 19
        E 16 b1 0b 11
        E 16 b1 0b 08
        E 16 81 1d 00
        E 80 b1 0c 10
        E 0 b1 0b 6e
        E 0 91 19 6e
        E 48 b1 0c 20
        E 48 b1 0c 40
        E 80 b1 0c 10
        E 0 81 19 00
        E 0 91 1a 6e
        E 48 b1 0c 20
        E 32 b1 0b 66
        E 16 b1 0b 5d
        E 16 b1 0b 55
        E 16 b1 0b 44
        E 16 b1 0b 3b
        E 16 b1 0b 33
        E 16 b1 0b 2a
        E 16 b1 0b 19
        E 16 b1 0b 11
        E 16 b1 0b 08
        E 16 81 1a 00
        E 80 b1 0c 10
        E 0 b1 0b 6e
        E 0 91 1f 6e
        E 48 b1 0c 20
        E 48 b1 0c 40
        E 384 b1 0c 10
        E 0 81 1f 00
        E 0 91 1d 6e
        E 48 b1 0c 20
        E 48 b1 0c 40
        E 80 b1 0b 66
        E 16 b1 0b 5d
        E 16 b1 0b 55
        E 16 b1 0b 44
        E 16 b1 0b 3b
        E 16 b1 0b 33
        E 16 b1 0b 2a
        E 16 b1 0b 19
        E 16 b1 0b 11
        E 16 b1 0b 08
        E 16 b1 0c 10
        E 0 b1 0b 6e
        E 0 81 1d 00
        E 0 91 16 6e
        E 48 b1 0c 20
        E 48 b1 0c 40
        E 64 b1 0c 10
        E 0 81 16 00
        E 0 91 17 6e
        E 48 b1 0c 20
        E 32 b1 0b 66
        E 16 b1 0b 5d
        E 16 b1 0b 55
        E 16 b1 0b 44
        E 16 b1 0b 3b
        E 16 b1 0b 33
        E 16 b1 0b 2a
        E 16 b1 0b 19
        E 16 b1 0b 11
        E 16 b1 0b 08
        E 16 81 17 00
        E 80 b1 0c 10
        E 0 b1 0b 6e
        E 0 91 1f 6e
        E 48 b1 0c 20
        E 48 b1 0c 40
        E 400 b1 0c 10
        E 0 81 1f 00
        E 0 91 1d 6e
        E 48 b1 0c 20
        E 32 b1 0b 66
        E 16 b1 0b 5d
        E 16 b1 0b 55
        E 16 b1 0b 44
        E 16 b1 0b 3b
        E 16 b1 0b 33
        E 16 b1 0b 2a
        E 16 b1 0b 19
        E 16 b1 0b 11
        E 16 b1 0b 08
        E 16 81 1d 00
        E 80 b1 0c 10
        E 0 b1 0b 6e
        E 0 91 19 6e
        E 48 b1 0c 20
        E 48 b1 0c 40
        E 64 b1 0c 10
        E 0 81 19 00
        E 0 91 1a 6e
        E 48 b1 0c 20
        E 32 b1 0b 66
        E 16 b1 0b 5d
        E 16 b1 0b 55
        E 16 b1 0b 44
        E 16 b1 0b 3b
        E 16 b1 0b 33
        E 16 b1 0b 2a
        E 16 b1 0b 19
        E 16 b1 0b 11
        E 16 b1 0b 08
        E 16 81 1a 00
        E 96 b1 0c 10
        E 0 b1 0b 6e
        E 0 91 1f 6e
        E 48 b1 0c 20
        E 48 b1 0c 40
        E 304 b1 0b 66
        E 16 b1 0b 5d
        E 16 b1 0b 55
        E 16 b1 0b 44
        E 16 b1 0b 3b
        E 16 b1 0c 10
        E 0 b1 0b 6e
        E 0 81 1f 00
        E 0 91 1d 6e
        E 48 b1 0c 20
        E 32 b1 0b 66
        E 16 b1 0b 5d
        E 16 b1 0b 55
        E 16 b1 0b 44
        E 16 b1 0b 3b
        E 16 b1 0b 33
        E 16 b1 0b 2a
        E 16 b1 0b 19
        E 16 b1 0b 11
        E 16 b1 0b 08
        E 16 81 1d 00
        E 80 b1 0c 10
        E 0 b1 0b 6e
        E 0 91 19 6e
        E 48 b1 0c 20
        E 48 b1 0c 40
        E 80 b1 0c 10
        E 0 81 19 00
        E 0 91 1a 6e
        E 48 b1 0c 20
        E 32 b1 0b 66
        E 16 b1 0b 5d
        E 16 b1 0b 55
        E 16 b1 0b 44
        E 16 b1 0b 3b
        E 16 b1 0b 33
        E 16 b1 0b 2a
        E 16 b1 0b 19
        E 16 b1 0b 11
        E 16 b1 0b 08
        E 16 81 1a 00
        E 80 b1 0c 10
        E 0 b1 0b 6e
        E 0 91 1f 6e
        E 48 b1 0c 20
        E 48 b1 0c 40
        E 304 b1 0b 66
        E 16 b1 0b 5d
        E 16 b1 0b 55
        E 16 b1 0b 44
        E 16 b1 0b 3b
        E 16 b1 0c 10
        E 0 b1 0b 6e
        E 0 81 1f 00
        E 0 91 1d 6e
        E 48 b1 0c 20
        E 48 b1 0b 66
        E 16 b1 0b 5d
        E 16 b1 0b 55
        E 16 b1 0b 44
        E 16 b1 0b 3b
        E 16 b1 0b 33
        E 16 b1 0b 2a
        E 16 b1 0b 19
        E 16 b1 0b 11
        E 16 b1 0b 08
        E 16 81 1d 00
        E 80 b1 0c 10
        E 0 b1 0b 6e
        E 0 91 19 6e
        E 48 b1 0c 20
        E 48 b1 0c 40
        E 64 b1 0c 10
        E 0 81 19 00
        E 0 91 1a 6e
        E 48 b1 0c 20
        E 32 b1 0b 66
        E 16 b1 0b 5d
        E 16 b1 0b 55
        E 16 b1 0b 44
        E 16 b1 0b 3b
        E 16 b1 0b 33
        E 16 b1 0b 2a
        E 16 b1 0b 19
        E 16 b1 0b 11
        E 16 b1 0b 08
        E 16 81 1a 00
        E 80 b1 0c 10
        E 0 b1 0b 6e
        E 0 91 1f 6e
        E 48 b1 0c 20
        E 48 b1 0c 40
        E 320 b1 0b 66
        E 16 b1 0b 5d
        E 16 b1 0b 55
        E 16 b1 0b 44
        E 16 b1 0b 3b
        E 16 b1 0c 10
        E 0 b1 0b 6e
        E 0 81 1f 00
        E 0 91 1d 6e
        E 48 b1 0c 20
        E 32 b1 0b 66
        E 16 b1 0b 5d
        E 16 b1 0b 55
        E 16 b1 0b 44
        E 16 b1 0b 3b
        E 16 b1 0b 33
        E 16 b1 0b 2a
        E 16 b1 0b 19
        E 16 b1 0b 11
        E 16 b1 0b 08
        E 16 81 1d 00
        E 80 b1 0c 10
        E 0 b1 0b 6e
        E 0 91 19 6e
        E 48 b1 0c 20
        E 48 b1 0c 40
        E 64 b1 0c 10
        E 0 81 19 00
        E 0 91 1a 6e
        E 48 b1 0c 20
        E 32 b1 0b 66
        E 16 b1 0b 5d
        E 16 b1 0b 55
        E 16 b1 0b 44
        E 16 b1 0b 3b
        E 16 b1 0b 33
        E 16 b1 0b 2a
        E 16 b1 0b 19
        E 16 b1 0b 11
        E 16 b1 0b 08
        E 16 81 1a 00
        E 96 b1 0c 10
        E 0 b1 0b 6e
        E 0 91 1f 6e
        E 48 b1 0c 20
        E 48 b1 0c 40
        E 96 81 1f 00
        E 0 b1 7b 00
        E 0 ff 2f 00
      >
    >
  >
  <TRACK {282A00A4-3008-43DF-8E5F-1937FCF67CA2}
    NAME "NES - Triangle [ch2]"
    PEAKCOL 16744192
    BEAT -1
    AUTOMODE 0
    PANLAWFLAGS 3
    VOLPAN 1 0 -1 -1 1
    MUTESOLO 0 0 0
    IPHASE 0
    PLAYOFFS 0 1
    ISBUS 0 0
    BUSCOMP 0 0 0 0 0
    SHOWINMIX 1 0.6667 0.5 1 0.5 0 0 0
    FIXEDLANES 9 0 0 0 0
    SEL 0
    REC 0 5088 1 0 0 0 0 0
    VU 2
    TRACKHEIGHT 0 0 0 0 0 0 0
    INQ 0 0 0 0.5 100 0 0 100
    NCHAN 2
    FX 1
    TRACKID {282A00A4-3008-43DF-8E5F-1937FCF67CA2}
    PERF 0
    MIDIOUT -1
    MAINSEND 1 0
    <FXCHAIN
      WNDRECT 24 52 700 560
      SHOW 0
      LASTSEL 0
      DOCKED 0
      BYPASS 0 0 0
      <JS "ReapNES Studio/ReapNES_Console.jsfx" ""
        2 15 1 10 80 10 100 2 1 15 1 5 60 10 80 1 1 0 50 0 0 15 1 0 100 0 0 0.500000 0.500000 0.400000 0.300000 0.800000 2 1 0 0 0 0 - - - - - - - - - - - - - - - - - - - - - - - - - -
      >
      FLOATPOS 0 0 0 0
      FXID {4FED9507-5E7D-4933-A2B8-08D3986A3CFB}
      WAK 0 0
    >
    <ITEM
      POSITION 0
      LENGTH 9.2846037
      LOOP 0
      ALLTAKES 0
      FADEIN 0 0 0 0 0 0 0
      FADEOUT 0 0 0 0 0 0 0
      MUTE 0 0
      SEL 0
      IGUID {15D995F9-84B3-40D4-9ECC-1F8FBFB8F706}
      <SOURCE MIDI
        HASDATA 1 480 QN
        CCINTERP 32
        E 0 c2 26
        E 240 b2 0b 7f
        E 0 92 30 7f
        E 496 82 30 00
        E 0 b2 0b 7f
        E 0 92 2e 7f
        E 320 82 2e 00
        E 0 b2 0b 7f
        E 0 92 27 7f
        E 160 82 27 00
        E 0 b2 0b 7f
        E 0 92 28 7f
        E 320 82 28 00
        E 16 b2 0b 7f
        E 0 92 30 7f
        E 480 82 30 00
        E 0 b2 0b 7f
        E 0 92 2e 7f
        E 240 82 2e 00
        E 80 b2 0b 7f
        E 0 92 2a 7f
        E 176 82 2a 00
        E 0 b2 0b 7f
        E 0 92 2b 7f
        E 240 82 2b 00
        E 80 b2 0b 7f
        E 0 92 30 7f
        E 480 82 30 00
        E 0 b2 0b 7f
        E 0 92 2e 7f
        E 336 82 2e 00
        E 0 b2 0b 7f
        E 0 92 27 7f
        E 160 82 27 00
        E 0 b2 0b 7f
        E 0 92 28 7f
        E 240 82 28 00
        E 1056 b2 0b 7f
        E 0 92 40 7f
        E 1296 82 40 00
        E 816 b2 0b 7f
        E 0 92 44 7f
        E 96 82 44 00
        E 0 b2 0b 7f
        E 0 92 46 7f
        E 80 82 46 00
        E 0 b2 0b 7f
        E 0 92 42 7f
        E 80 82 42 00
        E 0 b2 0b 7f
        E 0 92 3f 7f
        E 80 82 3f 00
        E 0 b2 0b 7f
        E 0 92 40 7f
        E 80 82 40 00
        E 0 b2 0b 7f
        E 0 92 3f 7f
        E 80 82 3f 00
        E 0 b2 0b 7f
        E 0 92 3d 7f
        E 80 82 3d 00
        E 0 b2 0b 7f
        E 0 92 3b 7f
        E 80 82 3b 00
        E 0 b2 0b 7f
        E 0 92 37 7f
        E 80 82 37 00
        E 0 b2 0b 7f
        E 0 92 36 7f
        E 80 82 36 00
        E 0 b2 0b 7f
        E 0 92 37 7f
        E 80 82 37 00
        E 0 b2 0b 7f
        E 0 92 48 7f
        E 80 82 48 00
        E 0 b2 0b 7f
        E 0 92 39 7f
        E 976 82 39 00
        E 368 b2 7b 00
        E 0 ff 2f 00
      >
    >
  >
  <TRACK {86980FD8-F0C8-4048-91C6-8325690322E1}
    NAME "NES - Noise / Drums [ch3]"
    PEAKCOL 11184810
    BEAT -1
    AUTOMODE 0
    PANLAWFLAGS 3
    VOLPAN 1 0 -1 -1 1
    MUTESOLO 0 0 0
    IPHASE 0
    PLAYOFFS 0 1
    ISBUS 0 0
    BUSCOMP 0 0 0 0 0
    SHOWINMIX 1 0.6667 0.5 1 0.5 0 0 0
    FIXEDLANES 9 0 0 0 0
    SEL 0
    REC 0 5088 1 0 0 0 0 0
    VU 2
    TRACKHEIGHT 0 0 0 0 0 0 0
    INQ 0 0 0 0.5 100 0 0 100
    NCHAN 2
    FX 1
    TRACKID {86980FD8-F0C8-4048-91C6-8325690322E1}
    PERF 0
    MIDIOUT -1
    MAINSEND 1 0
    <FXCHAIN
      WNDRECT 24 52 700 560
      SHOW 0
      LASTSEL 0
      DOCKED 0
      BYPASS 0 0 0
      <JS "ReapNES Studio/ReapNES_Console.jsfx" ""
        2 15 1 10 80 10 100 2 1 15 1 5 60 10 80 1 1 0 50 0 0 15 1 0 100 0 0 0.500000 0.500000 0.400000 0.300000 0.800000 3 1 0 0 0 0 - - - - - - - - - - - - - - - - - - - - - - - - - -
      >
      FLOATPOS 0 0 0 0
      FXID {D19773E7-26A6-4FF2-A3C0-FE8E46EDD59A}
      WAK 0 0
    >
    <ITEM
      POSITION 0
      LENGTH 9.2846037
      LOOP 0
      ALLTAKES 0
      FADEIN 0 0 0 0 0 0 0
      FADEOUT 0 0 0 0 0 0 0
      MUTE 0 0
      SEL 0
      IGUID {66D9D5F3-4E65-4FF7-BF89-5D9F36B866C7}
      <SOURCE MIDI
        HASDATA 1 480 QN
        CCINTERP 32
        E 80 93 2a 5d
        E 224 83 2a 00
        E 96 93 2a 5d
        E 224 83 2a 00
        E 112 93 2a 5d
        E 160 83 2a 00
        E 0 93 2a 5d
        E 224 83 2a 00
        E 256 93 2a 5d
        E 224 83 2a 00
        E 112 93 2a 5d
        E 224 83 2a 00
        E 96 93 2a 5d
        E 160 83 2a 00
        E 0 93 2a 5d
        E 224 83 2a 00
        E 272 93 2a 5d
        E 224 83 2a 00
        E 96 93 2a 5d
        E 224 83 2a 00
        E 96 93 2a 5d
        E 176 83 2a 00
        E 0 93 2a 5d
        E 224 83 2a 00
        E 256 93 2a 5d
        E 224 83 2a 00
        E 96 93 2a 5d
        E 224 83 2a 00
        E 112 93 2a 5d
        E 160 83 2a 00
        E 0 93 2a 5d
        E 224 83 2a 00
        E 256 93 2a 5d
        E 224 83 2a 00
        E 112 93 2a 5d
        E 224 83 2a 00
        E 96 93 2a 5d
        E 160 83 2a 00
        E 0 93 2a 5d
        E 224 83 2a 00
        E 272 93 2a 5d
        E 224 83 2a 00
        E 96 93 2a 5d
        E 224 83 2a 00
        E 96 93 2a 5d
        E 176 83 2a 00
        E 0 93 2a 5d
        E 224 83 2a 00
        E 256 93 2a 5d
        E 224 83 2a 00
        E 96 93 2a 5d
        E 224 83 2a 00
        E 112 93 2a 5d
        E 160 83 2a 00
        E 0 93 2a 5d
        E 384 83 2a 00
        E 112 93 2a 5d
        E 224 83 2a 00
        E 96 93 2a 5d
        E 32 83 2a 00
        E 0 b3 7b 00
        E 0 ff 2f 00
      >
    >
  >
>