<REAPER_PROJECT 0.1 "7.27/win64" 1707000000
  <NOTES 0 2
    |ReapNES Studio Project
    |MIDI Import - Super_Mario_Bros._01_Overworld_mesen_v1
  >
  RIPPLE 0
  GROUPOVERRIDE 0 0 0
  AUTOXFADE 129
  ENVATTACH 3
  POOLEDENVATTACH 0
  MIXERUIFLAGS 11 48
  ENVFADESZ10 40
  PEAKGAIN 1
  FEEDBACK 0
  PANLAW 1
  PROJOFFS 0 0 0
  MAXPROJLEN 0 0
  GRID 3199 8 1 8 1 0 0 0
  TIMEMODE 1 5 -1 30 0 0 -1
  VIDEO_CONFIG 0 0 65792
  PANMODE 3
  PANLAWFLAGS 3
  CURSOR 0
  ZOOM 100 0 0
  VZOOMEX 6 0
  USE_REC_CFG 0
  RECMODE 1
  SMPTESYNC 0 30 100 40 1000 300 0 0 1 0 0
  LOOP 0
  LOOPGRAN 0 4
  RECORD_PATH "Media" ""
  <RECORD_CFG
    ZXZhdxgAAQ==
  >
  <APPLYFX_CFG
  >
  RENDER_FILE ""
  RENDER_PATTERN ""
  RENDER_FMT 0 2 0
  RENDER_1X 0
  RENDER_RANGE 1 0 0 18 1000
  RENDER_RESAMPLE 3 0 1
  RENDER_ADDTOPROJ 0
  RENDER_STEMS 0
  RENDER_DITHER 0
  TIMELOCKMODE 1
  TEMPOENVLOCKMODE 1
  ITEMMIX 1
  DEFPITCHMODE 589824 0
  TAKELANE 1
  SAMPLERATE 44100 0 0
  <RENDER_CFG
    ZXZhdxgAAQ==
  >
  LOCK 1
  <METRONOME 6 2
    VOL 0.25 0.125
    BEATLEN 4
    FREQ 1760 880 1
    SAMPLES "" ""
    SPLIGNORE 0 0
    SPLDEF 2 660 "" 0
    SPLDEF 3 440 "" 0
    PATTERN 0 169
    PATTERNSTR ABBB
    MULT 1
  >
  GLOBAL_AUTO -1
  TEMPO 128.59999614200012 4 4
  PLAYRATE 1 0 0.25 4
  SELECTION 0 0
  SELECTION2 0 0
  MASTERAUTOMODE 0
  MASTERTRACKHEIGHT 0 0
  MASTERPEAKCOL 16576
  MASTERMUTESOLO 0
  MASTERTRACKVIEW 0 0.6667 0.5 0.5 0 0 0 0 0 0 0 0 0 0
  MASTERHWOUT 0 0 1 0 0 0 0 -1
  MASTER_NCH 2 2
  MASTER_VOLUME 1 0 -1 -1 1
  MASTER_PANMODE 3
  MASTER_PANLAWFLAGS 3
  MASTER_FX 1
  MASTER_SEL 0
  <MASTERPLAYSPEEDENV
    EGUID {40AFCB3C-B045-45B6-8FFB-96F6750CBC1D}
    ACT 0 -1
    VIS 0 1 1
    LANEHEIGHT 0 0
    ARM 0
    DEFSHAPE 0 -1 -1
  >
  <TEMPOENVEX
    EGUID {52B17F87-A766-41D5-AFEF-E01A86A40415}
    ACT 1 -1
    VIS 1 0 1
    LANEHEIGHT 0 0
    ARM 0
    DEFSHAPE 1 -1 -1
  >
  <PROJBAY
  >
  <TRACK {66EB94AD-AE68-4A38-84FF-32199081D240}
    NAME "NES - Pulse 1 [ch0]"
    PEAKCOL 16576606
    BEAT -1
    AUTOMODE 0
    PANLAWFLAGS 3
    VOLPAN 1 0 -1 -1 1
    MUTESOLO 0 0 0
    IPHASE 0
    PLAYOFFS 0 1
    ISBUS 0 0
    BUSCOMP 0 0 0 0 0
    SHOWINMIX 1 0.6667 0.5 1 0.5 0 0 0
    FIXEDLANES 9 0 0 0 0
    SEL 1
    REC 0 5088 1 0 0 0 0 0
    VU 2
    TRACKHEIGHT 0 0 0 0 0 0 0
    INQ 0 0 0 0.5 100 0 0 100
    NCHAN 2
    FX 1
    TRACKID {66EB94AD-AE68-4A38-84FF-32199081D240}
    PERF 0
    MIDIOUT -1
    MAINSEND 1 0
    <FXCHAIN
      WNDRECT 24 52 700 560
      SHOW 0
      LASTSEL 0
      DOCKED 0
      BYPASS 0 0 0
      <JS "ReapNES Studio/ReapNES_Console.jsfx" ""
        2 15 1 10 80 10 100 2 1 15 1 5 60 10 80 1 1 0 50 0 0 15 1 0 100 0 0 0.500000 0.500000 0.400000 0.300000 0.800000 0 1 0 0 0 0 - - - - - - - - - - - - - - - - - - - - - - - - - -
      >
      FLOATPOS 0 0 0 0
      FXID {262A4080-391F-44B6-B8FC-007022A80127}
      WAK 0 0
    >
    <ITEM
      POSITION 0
      LENGTH 151.52411030000002
      LOOP 0
      ALLTAKES 0
      FADEIN 0 0 0 0 0 0 0
      FADEOUT 0 0 0 0 0 0 0
      MUTE 0 0
      SEL 0
      IGUID {77EE39C3-C2F7-45E1-9451-4BBC2523DB0B}
      <SOURCE MIDI
        HASDATA 1 480 QN
        CCINTERP 32
        E 0 c0 50
        E 0 b0 0c 10
        E 0 b0 0b 2a
        E 0 90 34 2a
        E 32 b0 0b 22
        E 64 b0 0b 11
        E 0 80 34 00
        E 0 90 39 11
        E 48 b0 0b 08
        E 16 b0 0b 2a
        E 0 80 39 00
        E 0 90 37 2a
        E 96 b0 0b 22
        E 16 b0 0b 11
        E 0 80 37 00
        E 0 90 34 11
        E 64 b0 0b 33
        E 0 80 34 00
        E 0 90 2d 33
        E 96 b0 0b 2a
        E 112 b0 0b 22
        E 80 80 2d 00
        E 64 b0 0b 33
        E 0 90 2d 33
        E 80 b0 0b 2a
        E 112 b0 0b 22
        E 112 b0 0b 19
        E 48 80 2d 00
        E 192 b0 0b 33
        E 0 90 2d 33
        E 96 b0 0b 2a
        E 128 b0 0b 22
        E 112 b0 0b 19
        E 16 80 2d 00
        E 176 b0 0b 33
        E 0 90 2b 33
        E 32 b0 0b 2a
        E 112 b0 0b 22
        E 112 b0 0b 19
        E 32 80 2b 00
        E 64 b0 0b 33
        E 0 90 2b 33
        E 16 b0 0b 2a
        E 112 b0 0b 22
        E 112 b0 0b 19
        E 112 80 2b 00
        E 192 b0 0b 33
        E 0 90 2b 33
        E 48 b0 0b 2a
        E 112 b0 0b 22
        E 112 b0 0b 19
        E 80 80 2b 00
        E 176 b0 0b 33
        E 0 90 2a 33
        E 80 b0 0b 2a
        E 112 b0 0b 22
        E 96 80 2a 00
        E 64 b0 0b 33
        E 0 90 2a 33
        E 80 b0 0b 2a
        E 112 b0 0b 22
        E 112 b0 0b 19
        E 64 80 2a 00
        E 176 b0 0b 33
        E 0 90 2a 33
        E 96 b0 0b 2a
        E 112 b0 0b 22
        E 128 b0 0b 19
        E 32 80 2a 00
        E 176 b0 0b 33
        E 0 90 2d 33
        E 32 b0 0b 2a
        E 112 b0 0b 22
        E 112 b0 0b 19
        E 32 80 2d 00
        E 64 b0 0b 33
        E 0 90 2d 33
        E 16 b0 0b 2a
        E 112 b0 0b 22
        E 112 b0 0b 19
        E 112 b0 0b 11
        E 16 80 2d 00
        E 176 b0 0b 33
        E 0 90 2f 33
        E 48 b0 0b 2a
        E 112 b0 0b 22
        E 112 b0 0b 19
        E 80 b0 0b 22
        E 0 80 2f 00
        E 0 90 37 22
        E 208 b0 0b 19
        E 160 b0 0b 11
        E 64 80 37 00
        E 0 90 36 11
        E 512 80 36 00
        E 0 90 35 11
        E 272 b0 0c 40
        E 0 b0 0b 5d
        E 0 80 35 00
        E 0 90 2a 5d
        E 32 80 2a 00
        E 0 90 2b 5d
        E 48 80 2b 00
        E 0 90 2c 5d
        E 32 80 2c 00
        E 0 90 2d 5d
        E 16 80 2d 00
        E 0 90 2e 5d
        E 48 80 2e 00
        E 0 90 2f 5d
        E 32 80 2f 00
        E 0 90 30 5d
        E 48 b0 0b 44
        E 0 80 30 00
        E 0 90 31 44
        E 48 80 31 00
        E 0 90 32 44
        E 32 80 32 00
        E 0 90 33 44
        E 48 80 33 00
        E 0 90 34 44
        E 32 80 34 00
        E 0 90 35 44
        E 32 80 35 00
        E 0 90 36 44
        E 32 80 36 00
        E 0 90 37 44
        E 32 80 37 00
        E 0 90 2e 44
        E 48 80 2e 00
        E 0 90 2f 44
        E 32 80 2f 00
        E 0 90 30 44
        E 16 80 30 00
        E 0 90 31 44
        E 48 80 31 00
        E 0 90 32 44
        E 32 80 32 00
        E 0 90 33 44
        E 48 80 33 00
        E 0 90 34 44
        E 32 b0 0c 10
        E 0 b0 0b 11
        E 32 b0 0c 40
        E 0 b0 0b 5d
        E 0 80 34 00
        E 0 90 2a 5d
        E 16 80 2a 00
        E 0 90 2b 5d
        E 48 80 2b 00
        E 0 90 2c 5d
        E 32 80 2c 00
        E 0 90 2d 5d
        E 32 80 2d 00
        E 0 90 2e 5d
        E 32 80 2e 00
        E 0 90 2f 5d
        E 48 80 2f 00
        E 0 90 30 5d
        E 32 80 30 00
        E 0 90 31 5d
        E 16 b0 0b 44
        E 32 80 31 00
        E 0 90 32 44
        E 32 80 32 00
        E 0 90 33 44
        E 48 80 33 00
        E 0 90 34 44
        E 32 80 34 00
        E 0 90 35 44
        E 16 80 35 00
        E 0 90 36 44
        E 48 80 36 00
        E 0 90 37 44
        E 32 80 37 00
        E 0 90 38 44
        E 16 80 38 00
        E 0 90 2e 44
        E 48 80 2e 00
        E 0 90 2f 44
        E 32 80 2f 00
        E 0 90 30 44
        E 16 80 30 00
        E 0 90 31 44
        E 48 80 31 00
        E 0 90 32 44
        E 32 80 32 00
        E 0 90 33 44
        E 48 80 33 00
        E 0 90 34 44
        E 32 b0 0c 10
        E 0 b0 0b 11
        E 0 80 34 00
        E 0 90 32 11
        E 32 b0 0c 40
        E 0 b0 0b 5d
        E 0 80 32 00
        E 0 90 2a 5d
        E 16 80 2a 00
        E 0 90 2b 5d
        E 48 80 2b 00
        E 0 90 2c 5d
        E 48 80 2c 00
        E 0 90 2d 5d
        E 16 80 2d 00
        E 0 90 2e 5d
        E 32 80 2e 00
        E 0 90 2f 5d
        E 48 80 2f 00
        E 0 90 30 5d
        E 32 80 30 00
        E 0 90 31 5d
        E 16 b0 0b 44
        E 32 80 31 00
        E 0 90 32 44
        E 32 80 32 00
        E 0 90 33 44
        E 48 80 33 00
        E 0 90 34 44
        E 32 80 34 00
        E 0 90 35 44
        E 32 80 35 00
        E 0 90 36 44
        E 32 80 36 00
        E 0 90 37 44
        E 48 80 37 00
        E 0 90 2e 44
        E 48 80 2e 00
        E 0 90 2f 44
        E 32 80 2f 00
        E 0 90 30 44
        E 32 80 30 00
        E 0 90 31 44
        E 32 80 31 00
        E 0 90 32 44
        E 48 80 32 00
        E 0 90 33 44
        E 32 80 33 00
        E 0 90 34 44
        E 32 b0 0c 20
        E 0 b0 0b 2a
        E 0 80 34 00
        E 0 90 2a 2a
        E 32 b0 0c 40
        E 0 b0 0b 5d
        E 32 80 2a 00
        E 0 90 2b 5d
        E 32 80 2b 00
        E 0 90 2c 5d
        E 48 80 2c 00
        E 0 90 2d 5d
        E 16 80 2d 00
        E 0 90 2e 5d
        E 32 80 2e 00
        E 0 90 2f 5d
        E 48 80 2f 00
        E 0 90 30 5d
        E 32 80 30 00
        E 0 90 31 5d
        E 16 b0 0b 44
        E 32 80 31 00
        E 0 90 32 44
        E 32 80 32 00
        E 0 90 33 44
        E 48 80 33 00
        E 0 90 34 44
        E 32 80 34 00
        E 0 90 35 44
        E 32 80 35 00
        E 0 90 36 44
        E 32 80 36 00
        E 0 90 37 44
        E 48 80 37 00
        E 0 90 2e 44
        E 48 80 2e 00
        E 0 90 2f 44
        E 32 80 2f 00
        E 0 90 30 44
        E 32 80 30 00
        E 0 90 31 44
        E 32 80 31 00
        E 0 90 32 44
        E 16 b0 0b 7f
        E 0 80 32 00
        E 0 90 2b 7f
        E 16 80 2b 00
        E 0 90 29 7f
        E 16 80 29 00
        E 0 90 25 7f
        E 16 80 25 00
        E 0 90 21 7f
        E 16 80 21 00
        E 0 90 1f 7f
        E 16 80 1f 00
        E 0 90 1b 7f
        E 16 80 1b 00
        E 0 90 19 7f
        E 16 80 19 00
        E 0 90 16 7f
        E 64 b0 0b 66
        E 0 80 16 00
        E 0 90 2d 66
        E 16 80 2d 00
        E 0 90 29 66
        E 16 80 29 00
        E 0 90 25 66
        E 16 80 25 00
        E 0 90 23 66
        E 16 80 23 00
        E 0 90 1f 66
        E 16 80 1f 00
        E 0 90 1d 66
        E 16 80 1d 00
        E 0 90 19 66
        E 16 80 19 00
        E 0 90 17 66
        E 64 b0 0b 44
        E 0 80 17 00
        E 0 90 2d 44
        E 16 80 2d 00
        E 0 90 29 44
        E 16 80 29 00
        E 0 90 27 44
        E 16 80 27 00
        E 0 90 23 44
        E 16 80 23 00
        E 0 90 21 44
        E 16 80 21 00
        E 0 90 1d 44
        E 16 80 1d 00
        E 0 90 19 44
        E 16 80 19 00
        E 0 90 16 44
        E 64 b0 0b 22
        E 0 80 16 00
        E 0 90 2b 22
        E 16 80 2b 00
        E 0 90 29 22
        E 16 80 29 00
        E 0 90 25 22
        E 16 80 25 00
        E 0 90 23 22
        E 16 80 23 00
        E 0 90 1f 22
        E 16 80 1f 00
        E 0 90 1b 22
        E 16 80 1b 00
        E 0 90 19 22
        E 16 80 19 00
        E 0 90 17 22
        E 64 b0 0c 10
        E 0 80 17 00
        E 0 90 39 22
        E 16 b0 0b 33
        E 48 b0 0b 2a
        E 112 b0 0b 22
        E 16 b0 0b 33
        E 96 b0 0b 2a
        E 80 b0 0b 33
        E 0 80 39 00
        E 0 90 37 33
        E 32 b0 0b 2a
        E 112 b0 0b 22
        E 112 b0 0b 19
        E 112 b0 0b 11
        E 128 b0 0b 08
        E 32 b0 0c 20
        E 0 b0 0b 3b
        E 0 80 37 00
        E 0 90 2d 3b
        E 80 b0 0b 33
        E 112 b0 0b 2a
        E 96 80 2d 00
        E 80 b0 0b 3b
        E 0 90 2a 3b
        E 48 b0 0b 33
        E 112 b0 0b 2a
        E 112 b0 0b 22
        E 16 80 2a 00
        E 64 b0 0b 3b
        E 0 90 2b 3b
        E 32 b0 0b 33
        E 112 b0 0b 2a
        E 128 b0 0b 22
        E 16 80 2b 00
        E 240 b0 0c 10
        E 0 b0 0b 33
        E 0 90 21 33
        E 16 b0 0b 2a
        E 64 b0 0b 22
        E 48 b0 0b 19
        E 64 b0 0b 11
        E 64 b0 0b 08
        E 64 80 21 00
        E 48 b0 0b 33
        E 0 90 21 33
        E 16 b0 0b 2a
        E 48 b0 0b 22
        E 64 b0 0b 19
        E 48 b0 0b 11
        E 16 b0 0b 33
        E 0 80 21 00
        E 0 90 23 33
        E 48 b0 0b 2a
        E 48 b0 0b 22
        E 64 b0 0b 19
        E 16 b0 0b 33
        E 48 b0 0b 2a
        E 48 b0 0b 22
        E 64 b0 0b 19
        E 16 b0 0b 33
        E 0 80 23 00
        E 0 90 24 33
        E 32 b0 0b 2a
        E 64 b0 0b 22
        E 48 b0 0b 19
        E 32 b0 0b 33
        E 0 80 24 00
        E 0 90 26 33
        E 32 b0 0b 2a
        E 48 b0 0b 22
        E 64 b0 0b 19
        E 32 b0 0b 33
        E 0 80 26 00
        E 0 90 28 33
        E 32 b0 0b 2a
        E 48 b0 0b 22
        E 64 b0 0b 19
        E 32 b0 0b 22
        E 0 80 28 00
        E 0 90 43 22
        E 176 b0 0c 20
        E 0 b0 0b 3b
        E 0 80 43 00
        E 0 90 28 3b
        E 64 b0 0b 33
        E 128 b0 0b 2a
        E 96 80 28 00
        E 80 b0 0b 3b
        E 0 90 2a 3b
        E 48 b0 0b 33
        E 112 b0 0b 2a
        E 112 b0 0b 22
        E 16 80 2a 00
        E 64 b0 0b 3b
        E 0 90 2b 3b
        E 32 b0 0b 33
        E 112 b0 0b 2a
        E 112 b0 0b 22
        E 32 80 2b 00
        E 240 b0 0c 10
        E 0 b0 0b 33
        E 0 90 37 33
        E 80 b0 0b 2a
        E 0 80 37 00
        E 0 90 38 2a
        E 112 b0 0b 22
        E 48 80 38 00
        E 0 90 39 22
        E 64 b0 0b 19
        E 64 b0 0b 33
        E 48 b0 0b 2a
        E 112 b0 0b 22
        E 16 b0 0b 33
        E 96 b0 0b 2a
        E 80 b0 0b 33
        E 32 b0 0b 2a
        E 112 b0 0b 22
        E 32 b0 0b 33
        E 96 b0 0b 2a
        E 80 b0 0b 33
        E 0 80 39 00
        E 0 90 37 33
        E 32 b0 0b 2a
        E 112 b0 0b 22
        E 112 b0 0b 19
        E 112 b0 0b 11
        E 112 b0 0b 08
        E 48 b0 0c 20
        E 0 b0 0b 3b
        E 0 80 37 00
        E 0 90 2d 3b
        E 64 b0 0b 33
        E 112 b0 0b 2a
        E 112 b0 0b 22
        E 16 80 2d 00
        E 64 b0 0b 3b
        E 0 90 2a 3b
        E 48 b0 0b 33
        E 112 b0 0b 2a
        E 112 b0 0b 22
        E 16 80 2a 00
        E 64 b0 0b 3b
        E 0 90 2b 3b
        E 32 b0 0b 33
        E 112 b0 0b 2a
        E 112 b0 0b 22
        E 32 80 2b 00
        E 240 b0 0c 10
        E 0 b0 0b 33
        E 0 90 21 33
        E 16 b0 0b 2a
        E 48 b0 0b 22
        E 64 b0 0b 19
        E 64 b0 0b 11
        E 48 b0 0b 08
        E 64 80 21 00
        E 64 b0 0b 33
        E 0 90 21 33
        E 48 b0 0b 2a
        E 48 b0 0b 22
        E 64 b0 0b 19
        E 16 b0 0b 33
        E 0 80 21 00
        E 0 90 23 33
        E 32 b0 0b 2a
        E 64 b0 0b 22
        E 64 b0 0b 19
        E 16 b0 0b 33
        E 32 b0 0b 2a
        E 64 b0 0b 22
        E 48 b0 0b 19
        E 32 b0 0b 33
        E 0 80 23 00
        E 0 90 24 33
        E 32 b0 0b 2a
        E 48 b0 0b 22
        E 64 b0 0b 19
        E 32 b0 0b 33
        E 0 80 24 00
        E 0 90 26 33
        E 16 b0 0b 2a
        E 64 b0 0b 22
        E 64 b0 0b 19
        E 32 b0 0b 33
        E 0 80 26 00
        E 0 90 28 33
        E 16 b0 0b 2a
        E 64 b0 0b 22
        E 48 b0 0b 19
        E 48 b0 0b 22
        E 0 80 28 00
        E 0 90 43 22
        E 176 b0 0b 19
        E 16 b0 0b 33
        E 0 80 43 00
        E 0 90 2d 33
        E 112 b0 0b 2a
        E 112 b0 0b 22
        E 64 80 2d 00
        E 64 b0 0b 33
        E 0 90 2d 33
        E 96 b0 0b 2a
        E 112 b0 0b 22
        E 112 b0 0b 19
        E 32 80 2d 00
        E 176 b0 0b 33
        E 0 90 2d 33
        E 16 b0 0b 2a
        E 112 b0 0b 22
        E 128 b0 0b 19
        E 96 80 2d 00
        E 192 b0 0b 33
        E 0 90 2b 33
        E 48 b0 0b 2a
        E 112 b0 0b 22
        E 112 b0 0b 19
        E 16 80 2b 00
        E 64 b0 0b 33
        E 0 90 2b 33
        E 32 b0 0b 2a
        E 112 b0 0b 22
        E 112 b0 0b 19
        E 96 80 2b 00
        E 176 b0 0b 33
        E 0 90 2b 33
        E 80 b0 0b 2a
        E 112 b0 0b 22
        E 112 b0 0b 19
        E 48 80 2b 00
        E 192 b0 0b 33
        E 0 90 2a 33
        E 96 b0 0b 2a
        E 112 b0 0b 22
        E 80 80 2a 00
        E 64 b0 0b 33
        E 0 90 2a 33
        E 96 b0 0b 2a
        E 112 b0 0b 22
        E 112 b0 0b 19
        E 32 80 2a 00
        E 176 b0 0b 33
        E 0 90 2a 33
        E 16 b0 0b 2a
        E 112 b0 0b 22
        E 112 b0 0b 19
        E 112 b0 0b 11
        E 16 80 2a 00
        E 176 b0 0b 33
        E 0 90 2d 33
        E 48 b0 0b 2a
        E 112 b0 0b 22
        E 112 b0 0b 19
        E 80 b0 0b 2a
        E 0 80 2d 00
        E 0 90 3c 2a
        E 32 b0 0b 22
        E 80 b0 0b 11
        E 0 80 3c 00
        E 0 90 2d 11
        E 64 b0 0b 2a
        E 0 80 2d 00
        E 0 90 3b 2a
        E 32 b0 0b 22
        E 80 b0 0b 11
        E 0 80 3b 00
        E 0 90 3c 11
        E 32 b0 0b 08
        E 32 b0 0b 2a
        E 0 80 3c 00
        E 0 90 37 2a
        E 80 b0 0b 22
        E 32 b0 0b 11
        E 0 80 37 00
        E 0 90 3b 11
        E 64 b0 0b 2a
        E 0 80 3b 00
        E 0 90 39 2a
        E 16 b0 0b 22
        E 96 b0 0b 11
        E 0 80 39 00
        E 0 90 37 11
        E 16 b0 0b 08
        E 48 b0 0b 2a
        E 0 80 37 00
        E 0 90 34 2a
        E 64 b0 0b 22
        E 48 b0 0b 11
        E 0 80 34 00
        E 0 90 39 11
        E 64 b0 0b 08
        E 16 b0 0b 2a
        E 0 80 39 00
        E 0 90 37 2a
        E 96 b0 0b 22
        E 16 b0 0b 11
        E 0 80 37 00
        E 0 90 34 11
        E 64 b0 0b 33
        E 0 80 34 00
        E 0 90 2d 33
        E 96 b0 0b 2a
        E 112 b0 0b 22
        E 80 80 2d 00
        E 64 b0 0b 33
        E 0 90 2d 33
        E 80 b0 0b 2a
        E 128 b0 0b 22
        E 112 b0 0b 19
        E 32 80 2d 00
        E 176 b0 0b 33
        E 0 90 2d 33
        E 16 b0 0b 2a
        E 112 b0 0b 22
        E 112 b0 0b 19
        E 112 b0 0b 11
        E 16 80 2d 00
        E 176 b0 0b 33
        E 0 90 2b 33
        E 32 b0 0b 2a
        E 128 b0 0b 22
        E 112 b0 0b 19
        E 16 80 2b 00
        E 64 b0 0b 33
        E 0 90 2b 33
        E 32 b0 0b 2a
        E 112 b0 0b 22
        E 112 b0 0b 19
        E 96 80 2b 00
        E 176 b0 0b 33
        E 0 90 2b 33
        E 64 b0 0b 2a
        E 112 b0 0b 22
        E 128 b0 0b 19
        E 64 80 2b 00
        E 176 b0 0b 33
        E 0 90 2a 33
        E 96 b0 0b 2a
        E 112 b0 0b 22
        E 80 80 2a 00
        E 64 b0 0b 33
        E 0 90 2a 33
        E 80 b0 0b 2a
        E 112 b0 0b 22
        E 112 b0 0b 19
        E 48 80 2a 00
        E 176 b0 0b 33
        E 0 90 2a 33
        E 16 b0 0b 2a
        E 112 b0 0b 22
        E 112 b0 0b 19
        E 112 b0 0b 11
        E 16 80 2a 00
        E 176 b0 0b 33
        E 0 90 2d 33
        E 32 b0 0b 2a
        E 112 b0 0b 22
        E 112 b0 0b 19
        E 128 b0 0b 11
        E 112 b0 0b 08
        E 112 80 2d 00
        E 96 b0 0b 33
        E 0 90 2d 33
        E 64 b0 0b 2a
        E 128 b0 0b 22
        E 32 b0 0b 33
        E 80 b0 0b 2a
        E 112 b0 0b 22
        E 64 b0 0b 33
        E 0 80 2d 00
        E 0 90 2e 33
        E 48 b0 0b 2a
        E 112 b0 0b 22
        E 80 b0 0b 33
        E 0 80 2e 00
        E 0 90 2f 33
        E 96 b0 0b 2a
        E 112 b0 0b 22
        E 80 80 2f 00
        E 64 b0 0b 33
        E 0 90 2f 33
        E 80 b0 0b 2a
        E 112 b0 0b 22
        E 112 b0 0b 19
        E 48 80 2f 00
        E 192 b0 0b 33
        E 0 90 2f 33
        E 112 b0 0b 2a
        E 112 b0 0b 22
        E 112 b0 0b 19
        E 16 80 2f 00
        E 176 b0 0b 33
        E 0 90 2d 33
        E 32 b0 0b 2a
        E 112 b0 0b 22
        E 112 b0 0b 19
        E 32 80 2d 00
        E 64 b0 0b 33
        E 0 90 2d 33
        E 16 b0 0b 2a
        E 112 b0 0b 22
        E 128 b0 0b 19
        E 96 80 2d 00
        E 192 b0 0b 33
        E 0 90 2d 33
        E 48 b0 0b 2a
        E 112 b0 0b 22
        E 112 b0 0b 19
        E 80 80 2d 00
        E 176 b0 0b 33
        E 0 90 2c 33
        E 80 b0 0b 2a
        E 128 b0 0b 22
        E 80 80 2c 00
        E 64 b0 0b 33
        E 0 90 2c 33
        E 80 b0 0b 2a
        E 112 b0 0b 22
        E 112 b0 0b 19
        E 48 80 2c 00
        E 192 b0 0b 33
        E 0 90 2c 33
        E 96 b0 0b 2a
        E 112 b0 0b 22
        E 128 b0 0b 19
        E 16 80 2c 00
        E 176 b0 0b 33
        E 0 90 2f 33
        E 32 b0 0b 2a
        E 112 b0 0b 22
        E 112 b0 0b 19
        E 96 b0 0b 2a
        E 0 80 2f 00
        E 0 90 3e 2a
        E 16 b0 0b 22
        E 32 b0 0b 11
        E 0 80 3e 00
        E 0 90 2f 11
        E 48 b0 0b 2a
        E 0 80 2f 00
        E 0 90 3d 2a
        E 48 b0 0b 11
        E 0 80 3d 00
        E 0 90 3e 11
        E 32 b0 0b 2a
        E 0 80 3e 00
        E 0 90 39 2a
        E 16 b0 0b 22
        E 32 b0 0b 11
        E 0 80 39 00
        E 0 90 3d 11
        E 48 b0 0b 2a
        E 0 80 3d 00
        E 0 90 3b 2a
        E 32 b0 0b 22
        E 16 b0 0b 11
        E 0 80 3b 00
        E 0 90 39 11
        E 48 b0 0b 2a
        E 0 80 39 00
        E 0 90 36 2a
        E 32 b0 0b 11
        E 0 80 36 00
        E 0 90 3b 11
        E 16 b0 0b 08
        E 32 b0 0b 2a
        E 0 80 3b 00
        E 0 90 39 2a
        E 48 b0 0b 11
        E 0 80 39 00
        E 0 90 36 11
        E 32 b0 0b 08
        E 16 b0 0b 2a
        E 0 80 36 00
        E 0 90 3e 2a
        E 32 b0 0b 11
        E 0 80 3e 00
        E 0 90 39 11
        E 48 b0 0b 2a
        E 0 80 39 00
        E 0 90 3d 2a
        E 16 b0 0b 22
        E 32 b0 0b 11
        E 0 80 3d 00
        E 0 90 3e 11
        E 48 b0 0b 2a
        E 0 80 3e 00
        E 0 90 39 2a
        E 32 b0 0b 22
        E 16 b0 0b 11
        E 0 80 39 00
        E 0 90 3d 11
        E 32 b0 0b 2a
        E 0 80 3d 00
        E 0 90 3b 2a
        E 48 b0 0b 11
        E 0 80 3b 00
        E 0 90 39 11
        E 16 b0 0b 08
        E 32 b0 0b 2a
        E 0 80 39 00
        E 0 90 36 2a
        E 48 b0 0b 11
        E 0 80 36 00
        E 0 90 3b 11
        E 32 b0 0b 2a
        E 0 80 3b 00
        E 0 90 39 2a
        E 16 b0 0b 22
        E 32 b0 0b 11
        E 0 80 39 00
        E 0 90 36 11
        E 48 b0 0b 33
        E 0 80 36 00
        E 0 90 2f 33
        E 80 b0 0b 2a
        E 112 b0 0b 22
        E 96 80 2f 00
        E 64 b0 0b 33
        E 0 90 2f 33
        E 80 b0 0b 2a
        E 112 b0 0b 22
        E 112 b0 0b 19
        E 64 80 2f 00
        E 176 b0 0b 33
        E 0 90 2f 33
        E 96 b0 0b 2a
        E 112 b0 0b 22
        E 112 b0 0b 19
        E 32 80 2f 00
        E 176 b0 0b 33
        E 0 90 2d 33
        E 32 b0 0b 2a
        E 112 b0 0b 22
        E 112 b0 0b 19
        E 32 80 2d 00
        E 64 b0 0b 33
        E 0 90 2d 33
        E 16 b0 0b 2a
        E 112 b0 0b 22
        E 112 b0 0b 19
        E 112 b0 0b 11
        E 16 80 2d 00
        E 176 b0 0b 33
        E 0 90 2d 33
        E 32 b0 0b 2a
        E 128 b0 0b 22
        E 112 b0 0b 19
        E 80 80 2d 00
        E 176 b0 0b 33
        E 0 90 2c 33
        E 80 b0 0b 2a
        E 112 b0 0b 22
        E 96 80 2c 00
        E 80 b0 0b 33
        E 0 90 2c 33
        E 64 b0 0b 2a
        E 112 b0 0b 22
        E 128 b0 0b 19
        E 64 80 2c 00
        E 176 b0 0b 33
        E 0 90 2c 33
        E 96 b0 0b 2a
        E 112 b0 0b 22
        E 112 b0 0b 19
        E 32 80 2c 00
        E 176 b0 0b 33
        E 0 90 2f 33
        E 16 b0 0b 2a
        E 112 b0 0b 22
        E 128 b0 0b 19
        E 32 80 2f 00
        E 64 b0 0b 33
        E 0 90 2f 33
        E 16 b0 0b 2a
        E 112 b0 0b 22
        E 112 b0 0b 19
        E 112 b0 0b 11
        E 16 80 2f 00
        E 176 b0 0b 33
        E 0 90 31 33
        E 32 b0 0b 2a
        E 112 b0 0b 22
        E 112 b0 0b 19
        E 96 b0 0b 22
        E 0 80 31 00
        E 0 90 39 22
        E 192 b0 0b 19
        E 176 b0 0b 11
        E 0 80 39 00
        E 0 90 38 11
        E 448 80 38 00
        E 0 90 37 11
        E 464 80 37 00
        E 0 90 36 11
        E 512 80 36 00
        E 0 90 35 11
        E 512 80 35 00
        E 0 90 34 11
        E 560 80 34 00
        E 0 90 33 11
        E 624 80 33 00
        E 0 90 32 11
        E 640 80 32 00
        E 0 90 31 11
        E 640 80 31 00
        E 0 90 30 11
        E 736 80 30 00
        E 0 90 2f 11
        E 32 80 2f 00
        E 15104 b0 0b 22
        E 0 90 3d 22
        E 16 80 3d 00
        E 0 90 3e 22
        E 32 80 3e 00
        E 0 90 3f 22
        E 48 80 3f 00
        E 0 90 34 22
        E 192 b0 0b 19
        E 176 b0 0b 11
        E 0 80 34 00
        E 0 90 33 11
        E 560 80 33 00
        E 0 90 32 11
        E 64 80 32 00
        E 32 b0 0c 40
        E 0 b0 0b 6e
        E 0 90 2d 6e
        E 32 80 2d 00
        E 0 90 29 6e
        E 16 80 29 00
        E 0 90 25 6e
        E 32 80 25 00
        E 0 90 21 6e
        E 32 80 21 00
        E 0 90 1d 6e
        E 32 80 1d 00
        E 0 90 1a 6e
        E 32 80 1a 00
        E 0 90 16 6e
        E 48 b0 0b 55
        E 0 80 16 00
        E 0 90 2d 55
        E 32 80 2d 00
        E 0 90 29 55
        E 32 80 29 00
        E 0 90 25 55
        E 32 80 25 00
        E 0 90 21 55
        E 32 80 21 00
        E 0 90 1d 55
        E 16 80 1d 00
        E 0 90 1a 55
        E 32 80 1a 00
        E 0 90 16 55
        E 48 b0 0b 33
        E 0 80 16 00
        E 0 90 2d 33
        E 32 80 2d 00
        E 0 90 29 33
        E 32 80 29 00
        E 0 90 25 33
        E 16 80 25 00
        E 0 90 21 33
        E 32 80 21 00
        E 0 90 1d 33
        E 32 80 1d 00
        E 0 90 1a 33
        E 32 80 1a 00
        E 0 90 16 33
        E 48 b0 0b 22
        E 0 80 16 00
        E 0 90 2d 22
        E 16 80 2d 00
        E 0 90 29 22
        E 32 80 29 00
        E 0 90 25 22
        E 32 80 25 00
        E 0 90 21 22
        E 32 80 21 00
        E 0 90 1d 22
        E 32 80 1d 00
        E 0 90 1a 22
        E 32 80 1a 00
        E 0 90 16 22
        E 48 b0 0b 11
        E 0 80 16 00
        E 0 90 2d 11
        E 32 80 2d 00
        E 0 90 29 11
        E 32 80 29 00
        E 0 90 25 11
        E 32 80 25 00
        E 0 90 21 11
        E 16 80 21 00
        E 0 90 1d 11
        E 32 80 1d 00
        E 0 90 1a 11
        E 32 80 1a 00
        E 0 90 16 11
        E 48 80 16 00
        E 2976 b0 0b 08
        E 0 90 21 08
        E 32 b0 0b 11
        E 32 b0 0b 19
        E 32 b0 0b 22
        E 32 b0 0b 2a
        E 32 b0 0b 33
        E 32 b0 0b 3b
        E 32 b0 0b 44
        E 32 b0 0b 4c
        E 32 b0 0b 55
        E 32 b0 0b 5d
        E 32 b0 0b 66
        E 32 b0 0b 6e
        E 32 b0 0b 77
        E 32 b0 0b 7f
        E 32 80 21 00
        E 64 b0 0b 44
        E 0 90 48 44
        E 32 80 48 00
        E 6736 b0 0b 5d
        E 0 90 1b 5d
        E 16 80 1b 00
        E 0 90 1c 5d
        E 32 80 1c 00
        E 0 90 1d 5d
        E 32 80 1d 00
        E 0 90 1e 5d
        E 32 b0 0b 3b
        E 0 80 1e 00
        E 0 90 1d 3b
        E 16 80 1d 00
        E 0 90 1e 3b
        E 48 80 1e 00
        E 0 90 1f 3b
        E 32 80 1f 00
        E 0 90 20 3b
        E 16 b0 0b 7f
        E 0 80 20 00
        E 0 90 1d 7f
        E 16 80 1d 00
        E 0 90 1e 7f
        E 48 80 1e 00
        E 0 90 1f 7f
        E 32 80 1f 00
        E 0 90 20 7f
        E 16 80 20 00
        E 0 90 1d 7f
        E 16 80 1d 00
        E 0 90 1e 7f
        E 48 80 1e 00
        E 0 90 1f 7f
        E 16 80 1f 00
        E 0 90 20 7f
        E 32 80 20 00
        E 0 90 1d 7f
        E 16 80 1d 00
        E 0 90 1e 7f
        E 32 80 1e 00
        E 0 90 1f 7f
        E 32 80 1f 00
        E 0 90 20 7f
        E 32 80 20 00
        E 0 90 1d 7f
        E 16 80 1d 00
        E 0 90 1e 7f
        E 48 80 1e 00
        E 0 90 1f 7f
        E 32 80 1f 00
        E 0 90 20 7f
        E 16 80 20 00
        E 0 90 1d 7f
        E 16 80 1d 00
        E 0 90 1e 7f
        E 48 80 1e 00
        E 0 90 1f 7f
        E 32 80 1f 00
        E 0 90 20 7f
        E 16 80 20 00
        E 0 90 1d 7f
        E 16 80 1d 00
        E 0 90 1e 7f
        E 48 80 1e 00
        E 0 90 1f 7f
        E 32 80 1f 00
        E 0 90 20 7f
        E 16 80 20 00
        E 0 90 1d 7f
        E 16 80 1d 00
        E 0 90 1e 7f
        E 48 80 1e 00
        E 0 90 1f 7f
        E 16 80 1f 00
        E 0 90 20 7f
        E 32 80 20 00
        E 0 90 1d 7f
        E 16 80 1d 00
        E 0 90 1e 7f
        E 32 80 1e 00
        E 0 90 1f 7f
        E 32 80 1f 00
        E 0 90 20 7f
        E 32 80 20 00
        E 0 90 1d 7f
        E 16 80 1d 00
        E 0 90 1e 7f
        E 48 80 1e 00
        E 0 90 1f 7f
        E 32 80 1f 00
        E 0 90 20 7f
        E 16 80 20 00
        E 0 90 1d 7f
        E 16 80 1d 00
        E 0 90 1e 7f
        E 48 80 1e 00
        E 0 90 1f 7f
        E 32 80 1f 00
        E 0 90 20 7f
        E 16 80 20 00
        E 0 90 1d 7f
        E 16 80 1d 00
        E 0 90 1e 7f
        E 48 80 1e 00
        E 0 90 1f 7f
        E 32 80 1f 00
        E 0 90 20 7f
        E 16 80 20 00
        E 0 90 1d 7f
        E 16 80 1d 00
        E 0 90 1e 7f
        E 48 80 1e 00
        E 0 90 1f 7f
        E 32 80 1f 00
        E 0 90 20 7f
        E 16 80 20 00
        E 0 90 1d 7f
        E 16 80 1d 00
        E 0 90 1e 7f
        E 48 80 1e 00
        E 0 90 1f 7f
        E 32 80 1f 00
        E 0 90 20 7f
        E 16 80 20 00
        E 0 90 1d 7f
        E 32 80 1d 00
        E 0 90 1e 7f
        E 32 80 1e 00
        E 0 90 1f 7f
        E 32 80 1f 00
        E 0 90 20 7f
        E 16 80 20 00
        E 0 90 1d 7f
        E 32 80 1d 00
        E 0 90 1e 7f
        E 32 80 1e 00
        E 0 90 1f 7f
        E 32 80 1f 00
        E 0 90 20 7f
        E 16 80 20 00
        E 0 90 1d 7f
        E 16 80 1d 00
        E 0 90 1e 7f
        E 48 80 1e 00
        E 0 90 1f 7f
        E 32 80 1f 00
        E 0 90 20 7f
        E 16 80 20 00
        E 0 90 1d 7f
        E 16 80 1d 00
        E 0 90 1e 7f
        E 48 80 1e 00
        E 0 90 1f 7f
        E 32 80 1f 00
        E 0 90 20 7f
        E 16 80 20 00
        E 0 90 1d 7f
        E 16 80 1d 00
        E 0 90 1e 7f
        E 48 80 1e 00
        E 0 90 1f 7f
        E 32 80 1f 00
        E 0 90 20 7f
        E 16 80 20 00
        E 0 90 1d 7f
        E 32 80 1d 00
        E 0 90 1e 7f
        E 32 80 1e 00
        E 0 90 1f 7f
        E 32 80 1f 00
        E 0 90 20 7f
        E 16 80 20 00
        E 3312 b0 0b 66
        E 0 90 3d 66
        E 16 80 3d 00
        E 0 90 3b 66
        E 16 80 3b 00
        E 0 90 37 66
        E 16 80 37 00
        E 0 90 35 66
        E 16 80 35 00
        E 0 90 31 66
        E 16 80 31 00
        E 0 90 2d 66
        E 16 80 2d 00
        E 0 90 2b 66
        E 16 80 2b 00
        E 0 90 27 66
        E 16 80 27 00
        E 0 90 25 66
        E 16 80 25 00
        E 112 90 41 66
        E 16 80 41 00
        E 0 90 3d 66
        E 16 80 3d 00
        E 0 90 3b 66
        E 16 80 3b 00
        E 0 90 37 66
        E 16 80 37 00
        E 0 90 33 66
        E 16 80 33 00
        E 0 90 31 66
        E 16 80 31 00
        E 0 90 2d 66
        E 16 80 2d 00
        E 0 90 2b 66
        E 16 80 2b 00
        E 0 90 27 66
        E 16 80 27 00
        E 1536 b0 0c 10
        E 0 b0 0b 22
        E 0 90 34 22
        E 16 b0 0b 19
        E 32 b0 0b 11
        E 32 b0 0b 08
        E 32 80 34 00
        E 32 b0 0b 19
        E 0 90 34 19
        E 16 b0 0b 11
        E 32 b0 0b 08
        E 32 80 34 00
        E 48 b0 0b 11
        E 0 90 34 11
        E 48 b0 0b 08
        E 64 80 34 00
        E 16 90 34 08
        E 64 80 34 00
        E 80 b0 0b 22
        E 0 90 34 22
        E 16 b0 0b 19
        E 32 b0 0b 11
        E 32 b0 0b 08
        E 32 80 34 00
        E 16 b0 0b 19
        E 0 90 34 19
        E 16 b0 0b 11
        E 32 b0 0b 08
        E 32 80 34 00
        E 64 b0 0b 11
        E 0 90 34 11
        E 48 b0 0b 08
        E 64 80 34 00
        E 16 90 34 08
        E 80 80 34 00
        E 48 b0 0b 22
        E 0 90 34 22
        E 16 b0 0b 19
        E 32 b0 0b 11
        E 16 b0 0b 08
        E 32 80 34 00
        E 48 b0 0b 19
        E 0 90 34 19
        E 16 b0 0b 11
        E 32 b0 0b 08
        E 32 80 34 00
        E 48 b0 0b 11
        E 0 90 34 11
        E 48 b0 0b 08
        E 64 80 34 00
        E 32 90 34 08
        E 80 80 34 00
        E 48 b0 0b 22
        E 0 90 34 22
        E 16 b0 0b 19
        E 32 b0 0b 11
        E 32 b0 0b 08
        E 32 80 34 00
        E 16 b0 0b 19
        E 0 90 34 19
        E 16 b0 0b 11
        E 32 b0 0b 08
        E 32 80 34 00
        E 64 b0 0b 11
        E 0 90 34 11
        E 48 b0 0b 08
        E 64 80 34 00
        E 16 90 34 08
        E 80 80 34 00
        E 48 b0 0b 22
        E 0 90 34 22
        E 16 b0 0b 19
        E 16 b0 0b 11
        E 32 b0 0b 08
        E 32 80 34 00
        E 48 b0 0b 19
        E 0 90 34 19
        E 16 b0 0b 11
        E 32 b0 0b 08
        E 32 80 34 00
        E 48 b0 0b 11
        E 0 90 34 11
        E 48 b0 0b 08
        E 48 80 34 00
        E 48 90 34 08
        E 80 80 34 00
        E 48 b0 0b 22
        E 0 90 34 22
        E 16 b0 0b 19
        E 32 b0 0b 11
        E 32 b0 0b 08
        E 32 80 34 00
        E 16 b0 0b 19
        E 0 90 34 19
        E 16 b0 0b 11
        E 16 b0 0b 08
        E 32 80 34 00
        E 80 b0 0b 11
        E 0 90 34 11
        E 48 b0 0b 08
        E 64 80 34 00
        E 16 90 34 08
        E 80 80 34 00
        E 64 b0 0b 22
        E 0 90 34 22
        E 16 b0 0b 19
        E 32 b0 0b 11
        E 32 b0 0b 08
        E 32 80 34 00
        E 16 b0 0b 19
        E 0 90 34 19
        E 16 b0 0b 11
        E 32 b0 0b 08
        E 32 80 34 00
        E 48 b0 0b 11
        E 0 90 34 11
        E 32 b0 0b 08
        E 64 80 34 00
        E 48 90 34 08
        E 80 80 34 00
        E 48 b0 0b 22
        E 0 90 34 22
        E 16 b0 0b 19
        E 32 b0 0b 11
        E 32 b0 0b 08
        E 32 80 34 00
        E 32 b0 0b 19
        E 0 90 34 19
        E 16 b0 0b 11
        E 32 b0 0b 08
        E 32 80 34 00
        E 48 b0 0b 11
        E 0 90 34 11
        E 48 b0 0b 08
        E 64 80 34 00
        E 16 90 34 08
        E 64 80 34 00
        E 80 b0 0c 40
        E 0 b0 0b 3b
        E 0 90 28 3b
        E 16 b0 0b 33
        E 32 b0 0b 2a
        E 32 b0 0b 22
        E 32 b0 0b 19
        E 16 b0 0b 22
        E 16 b0 0b 19
        E 32 b0 0b 11
        E 32 b0 0b 08
        E 32 80 28 00
        E 32 b0 0b 11
        E 0 90 28 11
        E 48 b0 0b 08
        E 64 80 28 00
        E 16 90 28 08
        E 80 80 28 00
        E 48 b0 0b 3b
        E 0 90 28 3b
        E 16 b0 0b 33
        E 32 b0 0b 2a
        E 16 b0 0b 22
        E 32 b0 0b 19
        E 32 b0 0b 11
        E 16 b0 0b 3b
        E 0 80 28 00
        E 0 90 26 3b
        E 16 b0 0b 33
        E 32 b0 0b 2a
        E 32 b0 0b 22
        E 32 b0 0b 19
        E 16 b0 0b 22
        E 16 b0 0b 19
        E 32 b0 0b 11
        E 32 b0 0b 08
        E 32 80 26 00
        E 32 b0 0b 11
        E 0 90 26 11
        E 48 b0 0b 08
        E 64 80 26 00
        E 16 b0 0b 5d
        E 0 90 28 5d
        E 16 b0 0b 55
        E 32 b0 0b 4c
        E 32 b0 0b 44
        E 32 b0 0b 3b
        E 32 b0 0b 33
        E 32 b0 0b 2a
        E 16 b0 0b 22
        E 32 b0 0b 19
        E 32 b0 0b 11
        E 16 80 28 00
        E 0 90 33 11
        E 144 b0 0b 19
        E 144 b0 0b 22
        E 64 80 33 00
        E 0 90 34 22
        E 96 b0 0b 2a
        E 160 b0 0b 33
        E 144 b0 0b 3b
        E 48 b0 0c 60
        E 0 b0 0b 33
        E 0 80 34 00
        E 0 90 2d 33
        E 128 80 2d 00
        E 0 90 37 33
        E 16 b0 0b 2a
        E 16 b0 0b 22
        E 32 b0 0b 19
        E 32 b0 0b 11
        E 32 b0 0b 08
        E 16 b0 0b 33
        E 16 b0 0b 2a
        E 32 b0 0b 22
        E 32 b0 0b 19
        E 32 b0 0b 11
        E 16 b0 0b 33
        E 0 80 37 00
        E 0 90 2d 33
        E 16 b0 0b 2a
        E 32 b0 0b 22
        E 32 b0 0b 19
        E 16 b0 0b 11
        E 32 b0 0b 08
        E 16 b0 0b 33
        E 0 80 2d 00
        E 0 90 34 33
        E 16 b0 0b 2a
        E 32 b0 0b 22
        E 32 b0 0b 19
        E 32 b0 0b 11
        E 16 b0 0b 33
        E 0 80 34 00
        E 0 90 2d 33
        E 16 b0 0b 2a
        E 32 b0 0b 22
        E 32 b0 0b 19
        E 32 b0 0b 11
        E 16 b0 0b 33
        E 0 80 2d 00
        E 0 90 34 33
        E 16 b0 0b 2a
        E 16 b0 0b 22
        E 32 b0 0b 19
        E 32 b0 0b 11
        E 32 b0 0b 08
        E 16 b0 0b 33
        E 16 b0 0b 2a
        E 32 b0 0b 22
        E 32 b0 0b 19
        E 32 b0 0b 11
        E 16 b0 0b 33
        E 0 80 34 00
        E 0 90 2d 33
        E 16 b0 0b 2a
        E 32 b0 0b 22
        E 32 b0 0b 19
        E 16 b0 0b 11
        E 32 b0 0b 08
        E 16 b0 0b 33
        E 0 80 2d 00
        E 0 90 37 33
        E 16 b0 0b 2a
        E 32 b0 0b 22
        E 32 b0 0b 19
        E 32 b0 0b 11
        E 16 b0 0b 33
        E 16 b0 0b 2a
        E 32 b0 0b 22
        E 32 b0 0b 19
        E 32 b0 0b 11
        E 16 b0 0b 33
        E 0 80 37 00
        E 0 90 2d 33
        E 16 b0 0b 2a
        E 32 b0 0b 22
        E 16 b0 0b 19
        E 32 b0 0b 11
        E 32 b0 0b 08
        E 16 b0 0b 33
        E 0 80 2d 00
        E 0 90 34 33
        E 16 b0 0b 2a
        E 32 b0 0b 22
        E 32 b0 0b 19
        E 32 b0 0b 11
        E 16 b0 0b 33
        E 0 80 34 00
        E 0 90 2d 33
        E 16 b0 0b 2a
        E 32 b0 0b 22
        E 32 b0 0b 19
        E 32 b0 0b 11
        E 16 b0 0b 08
        E 16 b0 0b 33
        E 0 80 2d 00
        E 0 90 34 33
        E 16 b0 0b 2a
        E 32 b0 0b 22
        E 32 b0 0b 19
        E 32 b0 0b 11
        E 16 b0 0b 33
        E 16 b0 0b 2a
        E 32 b0 0b 22
        E 32 b0 0b 19
        E 32 b0 0b 11
        E 16 b0 0c 20
        E 0 b0 0b 3b
        E 0 80 34 00
        E 0 90 23 3b
        E 16 b0 0b 33
        E 32 b0 0b 2a
        E 16 b0 0b 22
        E 32 b0 0b 19
        E 32 b0 0b 11
        E 32 b0 0b 08
        E 32 80 23 00
        E 80 b0 0b 3b
        E 0 90 23 3b
        E 16 b0 0b 33
        E 32 b0 0b 2a
        E 32 b0 0b 22
        E 32 b0 0b 19
        E 16 b0 0b 11
        E 32 b0 0b 08
        E 32 80 23 00
        E 80 b0 0b 3b
        E 0 90 23 3b
        E 16 b0 0b 33
        E 32 b0 0b 2a
        E 32 b0 0b 22
        E 32 b0 0b 19
        E 16 b0 0b 3b
        E 0 80 23 00
        E 0 90 21 3b
        E 48 b0 0b 33
        E 48 b0 0b 2a
        E 64 b0 0b 22
        E 64 b0 0b 19
        E 48 b0 0b 3b
        E 0 80 21 00
        E 0 90 23 3b
        E 16 b0 0b 33
        E 32 b0 0b 2a
        E 32 b0 0b 22
        E 32 b0 0b 19
        E 16 b0 0b 11
        E 32 b0 0b 08
        E 32 80 23 00
        E 80 b0 0b 3b
        E 0 90 23 3b
        E 16 b0 0b 33
        E 32 b0 0b 2a
        E 32 b0 0b 22
        E 32 b0 0b 19
        E 16 b0 0b 3b
        E 16 b0 0b 33
        E 32 b0 0b 2a
        E 32 b0 0b 22
        E 16 b0 0b 19
        E 32 b0 0b 11
        E 32 b0 0b 08
        E 32 80 23 00
        E 80 b0 0b 3b
        E 0 90 23 3b
        E 16 b0 0b 33
        E 32 b0 0b 2a
        E 32 b0 0b 22
        E 32 b0 0b 19
        E 16 b0 0b 3b
        E 0 80 23 00
        E 0 90 26 3b
        E 32 b0 0b 33
        E 64 b0 0b 2a
        E 64 b0 0b 22
        E 64 b0 0b 19
        E 64 b0 0b 11
        E 64 b0 0b 08
        E 48 80 26 00
        E 16 b0 0b 3b
        E 0 90 23 3b
        E 16 b0 0b 33
        E 32 b0 0b 2a
        E 32 b0 0b 22
        E 32 b0 0b 19
        E 32 b0 0b 11
        E 32 b0 0b 08
        E 32 80 23 00
        E 48 b0 0b 3b
        E 0 90 23 3b
        E 16 b0 0b 33
        E 16 b0 0b 2a
        E 32 b0 0b 22
        E 32 b0 0b 19
        E 32 b0 0b 11
        E 32 b0 0b 08
        E 32 80 23 00
        E 80 b0 0b 3b
        E 0 90 23 3b
        E 16 b0 0b 33
        E 32 b0 0b 2a
        E 32 b0 0b 22
        E 16 b0 0b 19
        E 32 b0 0b 11
        E 16 b0 0b 3b
        E 0 80 23 00
        E 0 90 21 3b
        E 48 b0 0b 33
        E 64 b0 0b 2a
        E 64 b0 0b 22
        E 64 b0 0b 19
        E 16 b0 0b 3b
        E 0 80 21 00
        E 0 90 23 3b
        E 16 b0 0b 33
        E 16 b0 0b 2a
        E 32 b0 0b 22
        E 32 b0 0b 19
        E 32 b0 0b 11
        E 32 b0 0b 08
        E 32 80 23 00
        E 80 b0 0b 3b
        E 0 90 23 3b
        E 16 b0 0b 33
        E 32 b0 0b 2a
        E 32 b0 0b 22
        E 32 b0 0b 19
        E 16 b0 0b 11
        E 16 b0 0b 3b
        E 16 b0 0b 33
        E 32 b0 0b 2a
        E 32 b0 0b 22
        E 32 b0 0b 19
        E 32 b0 0b 11
        E 32 b0 0b 08
        E 32 80 23 00
        E 48 b0 0b 3b
        E 0 90 23 3b
        E 16 b0 0b 33
        E 32 b0 0b 2a
        E 16 b0 0b 22
        E 32 b0 0b 19
        E 32 b0 0b 11
        E 16 b0 0b 3b
        E 0 80 23 00
        E 0 90 26 3b
        E 48 b0 0b 33
        E 64 b0 0b 2a
        E 64 b0 0b 22
        E 64 b0 0b 19
        E 48 b0 0b 11
        E 64 b0 0b 08
        E 48 b0 0c 60
        E 0 b0 0b 33
        E 0 80 26 00
        E 0 90 2d 33
        E 16 b0 0b 2a
        E 64 b0 0b 22
        E 48 b0 0b 33
        E 0 80 2d 00
        E 0 90 37 33
        E 16 b0 0b 2a
        E 32 b0 0b 22
        E 16 b0 0b 19
        E 32 b0 0b 11
        E 32 b0 0b 08
        E 16 b0 0b 33
        E 16 b0 0b 2a
        E 32 b0 0b 22
        E 32 b0 0b 19
        E 32 b0 0b 11
        E 16 b0 0b 33
        E 0 80 37 00
        E 0 90 2d 33
        E 16 b0 0b 2a
        E 32 b0 0b 22
        E 32 b0 0b 19
        E 32 b0 0b 11
        E 16 b0 0b 08
        E 16 b0 0b 33
        E 0 80 2d 00
        E 0 90 34 33
        E 16 b0 0b 2a
        E 32 b0 0b 22
        E 32 b0 0b 19
        E 32 b0 0b 11
        E 16 b0 0b 33
        E 0 80 34 00
        E 0 90 2d 33
        E 16 b0 0b 2a
        E 32 b0 0b 22
        E 32 b0 0b 19
        E 32 b0 0b 11
        E 16 b0 0b 33
        E 0 80 2d 00
        E 0 90 34 33
        E 16 b0 0b 2a
        E 32 b0 0b 22
        E 16 b0 0b 19
        E 32 b0 0b 11
        E 32 b0 0b 08
        E 16 b0 0b 33
        E 16 b0 0b 2a
        E 32 b0 0b 22
        E 32 b0 0b 19
        E 32 b0 0b 11
        E 16 b0 0b 33
        E 0 80 34 00
        E 0 90 2d 33
        E 16 b0 0b 2a
        E 32 b0 0b 22
        E 32 b0 0b 19
        E 32 b0 0b 11
        E 16 b0 0b 33
        E 0 80 2d 00
        E 0 90 37 33
        E 16 b0 0b 2a
        E 16 b0 0b 22
        E 32 b0 0b 19
        E 32 b0 0b 11
        E 32 b0 0b 08
        E 16 b0 0b 33
        E 16 b0 0b 2a
        E 32 b0 0b 22
        E 32 b0 0b 19
        E 32 b0 0b 11
        E 16 b0 0b 33
        E 0 80 37 00
        E 0 90 2d 33
        E 16 b0 0b 2a
        E 32 b0 0b 22
        E 32 b0 0b 19
        E 16 b0 0b 11
        E 32 b0 0b 08
        E 16 b0 0b 33
        E 0 80 2d 00
        E 0 90 34 33
        E 16 b0 0b 2a
        E 32 b0 0b 22
        E 32 b0 0b 19
        E 32 b0 0b 11
        E 16 b0 0b 33
        E 0 80 34 00
        E 0 90 2d 33
        E 16 b0 0b 2a
        E 32 b0 0b 22
        E 32 b0 0b 19
        E 32 b0 0b 11
        E 16 b0 0b 33
        E 0 80 2d 00
        E 0 90 34 33
        E 16 b0 0b 2a
        E 16 b0 0b 22
        E 32 b0 0b 19
        E 32 b0 0b 11
        E 32 b0 0b 08
        E 16 b0 0b 33
        E 16 b0 0b 2a
        E 32 b0 0b 22
        E 32 b0 0b 19
        E 32 b0 0b 11
        E 16 b0 0c 10
        E 0 b0 0b 3b
        E 0 80 34 00
        E 0 90 2f 3b
        E 16 b0 0b 33
        E 32 b0 0b 2a
        E 32 b0 0b 22
        E 16 b0 0b 19
        E 32 b0 0b 11
        E 16 b0 0b 22
        E 128 b0 0b 3b
        E 0 80 2f 00
        E 0 90 36 3b
        E 144 b0 0b 33
        E 16 b0 0b 2a
        E 32 b0 0b 22
        E 32 b0 0b 19
        E 32 b0 0b 11
        E 16 b0 0b 22
        E 128 b0 0b 3b
        E 0 80 36 00
        E 0 90 37 3b
        E 16 b0 0b 33
        E 32 b0 0b 2a
        E 32 b0 0b 22
        E 16 b0 0b 19
        E 32 b0 0b 11
        E 16 b0 0b 22
        E 16 b0 0b 19
        E 32 b0 0b 11
        E 32 b0 0b 08
        E 32 80 37 00
        E 16 b0 0b 3b
        E 0 90 39 3b
        E 16 b0 0b 33
        E 32 b0 0b 2a
        E 32 b0 0b 22
        E 32 b0 0b 19
        E 16 b0 0b 22
        E 16 b0 0b 19
        E 32 b0 0b 11
        E 16 b0 0b 08
        E 32 80 39 00
        E 48 b0 0b 11
        E 0 90 39 11
        E 128 b0 0b 3b
        E 272 b0 0b 22
        E 128 b0 0b 3b
        E 144 b0 0b 22
        E 128 b0 0b 11
        E 144 80 39 00
        E 12880 b0 0b 22
        E 0 90 34 22
        E 16 b0 0b 19
        E 32 b0 0b 11
        E 16 b0 0b 08
        E 32 80 34 00
        E 48 b0 0b 19
        E 0 90 34 19
        E 16 b0 0b 11
        E 32 b0 0b 08
        E 32 80 34 00
        E 48 b0 0b 11
        E 0 90 34 11
        E 48 b0 0b 08
        E 64 80 34 00
        E 16 90 34 08
        E 64 80 34 00
        E 80 b0 0b 22
        E 0 90 34 22
        E 16 b0 0b 19
        E 32 b0 0b 11
        E 32 b0 0b 08
        E 32 80 34 00
        E 16 b0 0b 19
        E 0 90 34 19
        E 16 b0 0b 11
        E 32 b0 0b 08
        E 32 80 34 00
        E 64 b0 0b 11
        E 0 90 34 11
        E 48 b0 0b 08
        E 64 80 34 00
        E 16 90 34 08
        E 80 80 34 00
        E 48 b0 0b 22
        E 0 90 34 22
        E 16 b0 0b 19
        E 16 b0 0b 11
        E 32 b0 0b 08
        E 32 80 34 00
        E 48 b0 0b 19
        E 0 90 34 19
        E 16 b0 0b 11
        E 32 b0 0b 08
        E 32 80 34 00
        E 48 b0 0b 11
        E 0 90 34 11
        E 48 b0 0b 08
        E 48 80 34 00
        E 48 90 34 08
        E 80 80 34 00
        E 48 b0 0b 22
        E 0 90 34 22
        E 16 b0 0b 19
        E 32 b0 0b 11
        E 32 b0 0b 08
        E 32 80 34 00
        E 16 b0 0b 19
        E 0 90 34 19
        E 16 b0 0b 11
        E 16 b0 0b 08
        E 32 80 34 00
        E 80 b0 0b 11
        E 0 90 34 11
        E 48 b0 0b 08
        E 64 80 34 00
        E 16 90 34 08
        E 80 80 34 00
        E 64 b0 0b 22
        E 0 90 34 22
        E 16 b0 0b 19
        E 32 b0 0b 11
        E 32 b0 0b 08
        E 32 80 34 00
        E 16 b0 0b 19
        E 0 90 34 19
        E 16 b0 0b 11
        E 32 b0 0b 08
        E 32 80 34 00
        E 48 b0 0b 11
        E 0 90 34 11
        E 48 b0 0b 08
        E 48 80 34 00
        E 48 90 34 08
        E 80 80 34 00
        E 48 b0 0b 22
        E 0 90 34 22
        E 16 b0 0b 19
        E 32 b0 0b 11
        E 32 b0 0b 08
        E 32 80 34 00
        E 32 b0 0b 19
        E 0 90 34 19
        E 16 b0 0b 11
        E 32 b0 0b 08
        E 32 80 34 00
        E 48 b0 0b 11
        E 0 90 34 11
        E 48 b0 0b 08
        E 64 80 34 00
        E 16 90 34 08
        E 64 80 34 00
        E 80 b0 0b 22
        E 0 90 34 22
        E 16 b0 0b 19
        E 32 b0 0b 11
        E 32 b0 0b 08
        E 32 80 34 00
        E 16 b0 0b 19
        E 0 90 34 19
        E 16 b0 0b 11
        E 32 b0 0b 08
        E 32 80 34 00
        E 64 b0 0b 11
        E 0 90 34 11
        E 48 b0 0b 08
        E 64 80 34 00
        E 16 90 34 08
        E 80 80 34 00
        E 48 b0 0b 22
        E 0 90 34 22
        E 16 b0 0b 19
        E 32 b0 0b 11
        E 16 b0 0b 08
        E 32 80 34 00
        E 48 b0 0b 19
        E 0 90 34 19
        E 16 b0 0b 11
        E 32 b0 0b 08
        E 32 80 34 00
        E 48 b0 0b 11
        E 0 90 34 11
        E 48 b0 0b 08
        E 64 80 34 00
        E 32 90 34 08
        E 80 80 34 00
        E 48 b0 0b 22
        E 0 90 3b 22
        E 16 b0 0b 19
        E 32 b0 0b 11
        E 32 b0 0b 08
        E 32 80 3b 00
        E 16 b0 0b 19
        E 0 90 3b 19
        E 16 b0 0b 11
        E 32 b0 0b 08
        E 32 80 3b 00
        E 64 b0 0b 11
        E 0 90 3b 11
        E 48 b0 0b 08
        E 64 80 3b 00
        E 16 90 3b 08
        E 80 80 3b 00
        E 48 b0 0b 22
        E 0 90 3b 22
        E 16 b0 0b 19
        E 16 b0 0b 11
        E 32 b0 0b 08
        E 32 80 3b 00
        E 48 b0 0b 19
        E 0 90 3b 19
        E 16 b0 0b 11
        E 32 b0 0b 08
        E 32 80 3b 00
        E 48 b0 0b 11
        E 0 90 3b 11
        E 48 b0 0b 08
        E 48 80 3b 00
        E 48 90 3b 08
        E 80 80 3b 00
        E 48 b0 0b 22
        E 0 90 3b 22
        E 16 b0 0b 19
        E 32 b0 0b 11
        E 32 b0 0b 08
        E 32 80 3b 00
        E 16 b0 0b 19
        E 0 90 3b 19
        E 16 b0 0b 11
        E 16 b0 0b 08
        E 32 80 3b 00
        E 80 b0 0b 11
        E 0 90 3b 11
        E 48 b0 0b 08
        E 64 80 3b 00
        E 16 90 3b 08
        E 80 80 3b 00
        E 64 b0 0b 22
        E 0 90 3b 22
        E 16 b0 0b 19
        E 32 b0 0b 11
        E 32 b0 0b 08
        E 32 80 3b 00
        E 16 b0 0b 19
        E 0 90 3b 19
        E 16 b0 0b 11
        E 32 b0 0b 08
        E 32 80 3b 00
        E 48 b0 0b 11
        E 0 90 3b 11
        E 32 b0 0b 08
        E 64 80 3b 00
        E 48 90 3b 08
        E 80 80 3b 00
        E 48 b0 0b 22
        E 0 90 3b 22
        E 16 b0 0b 19
        E 32 b0 0b 11
        E 32 b0 0b 08
        E 32 80 3b 00
        E 32 b0 0b 19
        E 0 90 3b 19
        E 16 b0 0b 11
        E 32 b0 0b 08
        E 32 80 3b 00
        E 48 b0 0b 11
        E 0 90 3b 11
        E 48 b0 0b 08
        E 64 80 3b 00
        E 16 90 3b 08
        E 64 80 3b 00
        E 80 b0 0b 22
        E 0 90 3b 22
        E 16 b0 0b 19
        E 32 b0 0b 11
        E 32 b0 0b 08
        E 32 80 3b 00
        E 16 b0 0b 19
        E 0 90 3b 19
        E 16 b0 0b 11
        E 32 b0 0b 08
        E 32 80 3b 00
        E 64 b0 0b 11
        E 0 90 3b 11
        E 48 b0 0b 08
        E 64 80 3b 00
        E 16 90 3b 08
        E 80 80 3b 00
        E 48 b0 0b 22
        E 0 90 3b 22
        E 16 b0 0b 19
        E 32 b0 0b 11
        E 16 b0 0b 08
        E 32 80 3b 00
        E 48 b0 0b 19
        E 0 90 3b 19
        E 16 b0 0b 11
        E 32 b0 0b 08
        E 32 80 3b 00
        E 48 b0 0b 11
        E 0 90 3b 11
        E 48 b0 0b 08
        E 64 80 3b 00
        E 32 90 3b 08
        E 80 80 3b 00
        E 48 b0 0b 22
        E 0 90 3b 22
        E 16 b0 0b 19
        E 32 b0 0b 11
        E 32 b0 0b 08
        E 32 80 3b 00
        E 16 b0 0b 19
        E 0 90 3b 19
        E 16 b0 0b 11
        E 32 b0 0b 08
        E 16 80 3b 00
        E 80 b0 0b 11
        E 0 90 3b 11
        E 48 b0 0b 08
        E 64 80 3b 00
        E 16 90 3b 08
        E 80 80 3b 00
        E 48 b0 0c 40
        E 0 b0 0b 33
        E 0 90 3b 33
        E 64 b0 0b 2a
        E 80 b0 0b 33
        E 0 80 3b 00
        E 0 90 43 33
        E 16 b0 0b 2a
        E 48 b0 0b 19
        E 0 80 43 00
        E 0 90 3b 19
        E 64 b0 0b 33
        E 0 80 3b 00
        E 0 90 42 33
        E 48 b0 0b 2a
        E 16 b0 0b 19
        E 0 80 42 00
        E 0 90 43 19
        E 64 b0 0b 11
        E 16 b0 0b 33
        E 0 80 43 00
        E 0 90 3e 33
        E 64 b0 0b 19
        E 0 80 3e 00
        E 0 90 42 19
        E 16 b0 0b 11
        E 48 b0 0b 33
        E 0 80 42 00
        E 0 90 39 33
        E 48 b0 0b 2a
        E 16 b0 0b 19
        E 0 80 39 00
        E 0 90 3e 19
        E 64 b0 0b 33
        E 16 b0 0b 2a
        E 64 b0 0b 19
        E 0 80 3e 00
        E 0 90 39 19
        E 16 b0 0b 11
        E 48 b0 0b 33
        E 0 80 39 00
        E 0 90 3b 33
        E 48 b0 0b 2a
        E 16 b0 0b 19
        E 0 80 3b 00
        E 0 90 3e 19
        E 64 b0 0b 33
        E 0 80 3e 00
        E 0 90 40 33
        E 16 b0 0b 2a
        E 48 b0 0b 19
        E 0 80 40 00
        E 0 90 3b 19
        E 32 b0 0b 11
        E 48 b0 0b 33
        E 0 80 3b 00
        E 0 90 40 33
        E 48 b0 0b 2a
        E 16 b0 0b 19
        E 64 b0 0b 11
        E 64 b0 0b 08
        E 64 b0 0b 33
        E 0 80 40 00
        E 0 90 3e 33
        E 80 b0 0b 19
        E 0 80 3e 00
        E 0 90 40 19
        E 16 b0 0b 11
        E 48 b0 0b 33
        E 0 80 40 00
        E 0 90 3b 33
        E 48 b0 0b 2a
        E 16 b0 0b 19
        E 0 80 3b 00
        E 0 90 3e 19
        E 64 b0 0b 33
        E 0 80 3e 00
        E 0 90 39 33
        E 16 b0 0b 2a
        E 48 b0 0b 19
        E 0 80 39 00
        E 0 90 3b 19
        E 32 b0 0b 11
        E 48 b0 0b 33
        E 48 b0 0b 2a
        E 16 b0 0b 19
        E 0 80 3b 00
        E 0 90 39 19
        E 64 b0 0b 33
        E 0 80 39 00
        E 0 90 3e 33
        E 16 b0 0b 2a
        E 48 b0 0b 19
        E 0 80 3e 00
        E 0 90 3b 19
        E 48 b0 0b 11
        E 16 b0 0b 33
        E 0 80 3b 00
        E 0 90 40 33
        E 64 b0 0b 2a
        E 16 b0 0b 19
        E 0 80 40 00
        E 0 90 3e 19
        E 64 b0 0b 33
        E 0 80 3e 00
        E 0 90 3b 33
        E 16 b0 0b 2a
        E 96 b0 0b 22
        E 16 b0 0b 33
        E 0 80 3b 00
        E 0 90 43 33
        E 64 b0 0b 19
        E 0 80 43 00
        E 0 90 3b 19
        E 80 b0 0b 33
        E 0 80 3b 00
        E 0 90 42 33
        E 16 b0 0b 2a
        E 48 b0 0b 19
        E 0 80 42 00
        E 0 90 43 19
        E 48 b0 0b 11
        E 16 b0 0b 33
        E 0 80 43 00
        E 0 90 3e 33
        E 64 b0 0b 19
        E 0 80 3e 00
        E 0 90 42 19
        E 16 b0 0b 11
        E 48 b0 0b 33
        E 0 80 42 00
        E 0 90 39 33
        E 48 b0 0b 2a
        E 32 b0 0b 19
        E 0 80 39 00
        E 0 90 3e 19
        E 48 b0 0b 11
        E 16 b0 0b 33
        E 64 b0 0b 19
        E 0 80 3e 00
        E 0 90 39 19
        E 16 b0 0b 11
        E 48 b0 0b 33
        E 0 80 39 00
        E 0 90 3b 33
        E 48 b0 0b 2a
        E 16 b0 0b 19
        E 0 80 3b 00
        E 0 90 3e 19
        E 64 b0 0b 11
        E 16 b0 0b 33
        E 0 80 3e 00
        E 0 90 40 33
        E 64 b0 0b 19
        E 0 80 40 00
        E 0 90 3b 19
        E 16 b0 0b 11
        E 48 b0 0b 33
        E 0 80 3b 00
        E 0 90 40 33
        E 48 b0 0b 2a
        E 16 b0 0b 19
        E 64 b0 0b 11
        E 80 b0 0b 08
        E 64 b0 0b 33
        E 0 80 40 00
        E 0 90 3e 33
        E 64 b0 0b 19
        E 0 80 3e 00
        E 0 90 40 19
        E 16 b0 0b 11
        E 48 b0 0b 33
        E 0 80 40 00
        E 0 90 3b 33
        E 48 b0 0b 2a
        E 16 b0 0b 19
        E 0 80 3b 00
        E 0 90 3e 19
        E 64 b0 0b 11
        E 16 b0 0b 33
        E 0 80 3e 00
        E 0 90 39 33
        E 64 b0 0b 19
        E 0 80 39 00
        E 0 90 3b 19
        E 16 b0 0b 11
        E 48 b0 0b 33
        E 48 b0 0b 2a
        E 16 b0 0b 19
        E 0 80 3b 00
        E 0 90 39 19
        E 64 b0 0b 33
        E 0 80 39 00
        E 0 90 3e 33
        E 16 b0 0b 2a
        E 48 b0 0b 19
        E 0 80 3e 00
        E 0 90 3b 19
        E 32 b0 0b 11
        E 48 b0 0b 33
        E 0 80 3b 00
        E 0 90 40 33
        E 48 b0 0b 2a
        E 16 b0 0b 19
        E 0 80 40 00
        E 0 90 3e 19
        E 64 b0 0b 33
        E 0 80 3e 00
        E 0 90 3b 33
        E 16 b0 0b 2a
        E 96 b0 0b 22
        E 16 b0 0b 33
        E 0 80 3b 00
        E 0 90 43 33
        E 64 b0 0b 2a
        E 16 b0 0b 19
        E 0 80 43 00
        E 0 90 3b 19
        E 64 b0 0b 33
        E 0 80 3b 00
        E 0 90 42 33
        E 64 b0 0b 19
        E 0 80 42 00
        E 0 90 43 19
        E 16 b0 0b 11
        E 48 b0 0b 33
        E 0 80 43 00
        E 0 90 3e 33
        E 48 b0 0b 2a
        E 16 b0 0b 19
        E 0 80 3e 00
        E 0 90 42 19
        E 64 b0 0b 11
        E 16 b0 0b 33
        E 0 80 42 00
        E 0 90 39 33
        E 64 b0 0b 19
        E 0 80 39 00
        E 0 90 3e 19
        E 16 b0 0b 11
        E 48 b0 0b 33
        E 48 b0 0b 2a
        E 16 b0 0b 19
        E 0 80 3e 00
        E 0 90 39 19
        E 64 b0 0b 33
        E 0 80 39 00
        E 0 90 3b 33
        E 16 b0 0b 2a
        E 64 b0 0b 19
        E 0 80 3b 00
        E 0 90 3e 19
        E 16 b0 0b 11
        E 48 b0 0b 33
        E 0 80 3e 00
        E 0 90 40 33
        E 48 b0 0b 2a
        E 16 b0 0b 19
        E 0 80 40 00
        E 0 90 3b 19
        E 64 b0 0b 33
        E 0 80 3b 00
        E 0 90 40 33
        E 16 b0 0b 2a
        E 48 b0 0b 19
        E 32 b0 0b 11
        E 112 b0 0b 08
        E 64 b0 0b 33
        E 0 80 40 00
        E 0 90 3e 33
        E 64 b0 0b 19
        E 0 80 3e 00
        E 0 90 40 19
        E 48 b0 0b 11
        E 16 b0 0b 33
        E 0 80 40 00
        E 0 90 3b 33
        E 64 b0 0b 2a
        E 16 b0 0b 19
        E 0 80 3b 00
        E 0 90 3e 19
        E 64 b0 0b 33
        E 0 80 3e 00
        E 0 90 39 33
        E 16 b0 0b 2a
        E 48 b0 0b 19
        E 0 80 39 00
        E 0 90 3b 19
        E 48 b0 0b 11
        E 16 b0 0b 33
        E 64 b0 0b 19
        E 0 80 3b 00
        E 0 90 39 19
        E 16 b0 0b 11
        E 64 b0 0b 33
        E 0 80 39 00
        E 0 90 3e 33
        E 16 b0 0b 2a
        E 48 b0 0b 19
        E 0 80 3e 00
        E 0 90 3b 19
        E 48 b0 0b 11
        E 16 b0 0b 33
        E 0 80 3b 00
        E 0 90 40 33
        E 64 b0 0b 19
        E 0 80 40 00
        E 0 90 3e 19
        E 16 b0 0b 11
        E 48 b0 0b 33
        E 0 80 3e 00
        E 0 90 3b 33
        E 48 b0 0b 2a
        E 80 b0 0b 22
        E 16 b0 0b 33
        E 0 80 3b 00
        E 0 90 43 33
        E 64 b0 0b 19
        E 0 80 43 00
        E 0 90 3b 19
        E 64 b0 0b 33
        E 0 80 3b 00
        E 0 90 42 33
        E 16 b0 0b 2a
        E 48 b0 0b 19
        E 0 80 42 00
        E 0 90 43 19
        E 48 b0 0b 11
        E 32 b0 0b 33
        E 0 80 43 00
        E 0 90 3e 33
        E 48 b0 0b 2a
        E 16 b0 0b 19
        E 0 80 3e 00
        E 0 90 42 19
        E 64 b0 0b 33
        E 0 80 42 00
        E 0 90 39 33
        E 16 b0 0b 2a
        E 48 b0 0b 19
        E 0 80 39 00
        E 0 90 3e 19
        E 48 b0 0b 11
        E 16 b0 0b 33
        E 64 b0 0b 2a
        E 16 b0 0b 19
        E 0 80 3e 00
        E 0 90 39 19
        E 64 b0 0b 33
        E 0 80 39 00
        E 0 90 3b 33
        E 16 b0 0b 2a
        E 48 b0 0b 19
        E 0 80 3b 00
        E 0 90 3e 19
        E 48 b0 0b 11
        E 16 b0 0b 33
        E 0 80 3e 00
        E 0 90 40 33
        E 64 b0 0b 19
        E 0 80 40 00
        E 0 90 3b 19
        E 16 b0 0b 11
        E 64 b0 0b 33
        E 0 80 3b 00
        E 0 90 40 33
        E 16 b0 0b 2a
        E 48 b0 0b 19
        E 48 b0 0b 11
        E 80 b0 0b 08
        E 64 b0 0b 33
        E 0 80 40 00
        E 0 90 3e 33
        E 80 b0 0b 19
        E 0 80 3e 00
        E 0 90 40 19
        E 64 b0 0b 33
        E 0 80 40 00
        E 0 90 3b 33
        E 16 b0 0b 2a
        E 48 b0 0b 19
        E 0 80 3b 00
        E 0 90 3e 19
        E 48 b0 0b 11
        E 16 b0 0b 33
        E 0 80 3e 00
        E 0 90 39 33
        E 64 b0 0b 19
        E 0 80 39 00
        E 0 90 3b 19
        E 16 b0 0b 11
        E 48 b0 0b 33
        E 32 b0 0b 2a
        E 48 b0 0b 19
        E 0 80 3b 00
        E 0 90 39 19
        E 48 b0 0b 11
        E 16 b0 0b 33
        E 0 80 39 00
        E 0 90 3e 33
        E 64 b0 0b 19
        E 0 80 3e 00
        E 0 90 3b 19
        E 16 b0 0b 11
        E 48 b0 0b 33
        E 0 80 3b 00
        E 0 90 40 33
        E 48 b0 0b 2a
        E 16 b0 0b 19
        E 0 80 40 00
        E 0 90 3e 19
        E 64 b0 0b 11
        E 16 b0 0b 4c
        E 0 80 3e 00
        E 0 90 26 4c
        E 16 b0 0b 44
        E 32 b0 0b 3b
        E 32 b0 0b 33
        E 32 b0 0b 2a
        E 16 b0 0b 4c
        E 0 80 26 00
        E 0 90 28 4c
        E 16 b0 0b 44
        E 32 b0 0b 3b
        E 32 b0 0b 33
        E 32 b0 0b 2a
        E 16 b0 0c 10
        E 0 b0 0b 3b
        E 0 80 28 00
        E 0 90 36 3b
        E 16 b0 0b 33
        E 16 b0 0b 2a
        E 32 b0 0b 22
        E 32 b0 0b 19
        E 32 b0 0b 11
        E 16 b0 0b 3b
        E 0 80 36 00
        E 0 90 37 3b
        E 16 b0 0b 33
        E 32 b0 0b 2a
        E 32 b0 0b 22
        E 32 b0 0b 19
        E 16 b0 0b 22
        E 144 b0 0b 3b
        E 16 b0 0b 33
        E 32 b0 0b 2a
        E 32 b0 0b 22
        E 32 b0 0b 19
        E 16 b0 0b 22
        E 16 b0 0b 19
        E 32 b0 0b 11
        E 32 b0 0b 08
        E 32 80 37 00
        E 16 b0 0b 3b
        E 0 90 37 3b
        E 16 b0 0b 33
        E 16 b0 0b 2a
        E 32 b0 0b 22
        E 32 b0 0b 19
        E 32 b0 0b 11
        E 16 b0 0b 22
        E 16 b0 0b 19
        E 32 b0 0b 11
        E 32 b0 0b 08
        E 32 80 37 00
        E 16 b0 0b 11
        E 0 90 37 11
        E 144 b0 0b 3b
        E 256 b0 0b 22
        E 16 b0 0b 19
        E 32 b0 0b 11
        E 16 b0 0b 08
        E 32 80 37 00
        E 48 b0 0b 3b
        E 0 90 37 3b
        E 16 b0 0b 33
        E 32 b0 0b 2a
        E 32 b0 0b 22
        E 32 b0 0b 19
        E 16 b0 0b 22
        E 16 b0 0b 19
        E 32 b0 0b 11
        E 32 b0 0b 08
        E 32 80 37 00
        E 32 b0 0c 40
        E 0 b0 0b 4c
        E 0 90 28 4c
        E 16 b0 0b 44
        E 32 b0 0b 3b
        E 32 b0 0b 33
        E 32 b0 0b 2a
        E 16 b0 0b 4c
        E 0 80 28 00
        E 0 90 26 4c
        E 16 b0 0b 44
        E 32 b0 0b 3b
        E 32 b0 0b 33
        E 32 b0 0b 2a
        E 16 b0 0b 4c
        E 0 80 26 00
        E 0 90 28 4c
        E 16 b0 0b 44
        E 32 b0 0b 3b
        E 16 b0 0b 33
        E 32 b0 0b 2a
        E 32 b0 0b 22
        E 16 b0 0c 10
        E 0 b0 0b 3b
        E 0 80 28 00
        E 0 90 36 3b
        E 16 b0 0b 33
        E 32 b0 0b 2a
        E 32 b0 0b 22
        E 32 b0 0b 19
        E 16 b0 0b 3b
        E 0 80 36 00
        E 0 90 37 3b
        E 16 b0 0b 33
        E 32 b0 0b 2a
        E 32 b0 0b 22
        E 32 b0 0b 19
        E 16 b0 0b 11
        E 16 b0 0b 22
        E 128 b0 0b 3b
        E 16 b0 0b 33
        E 32 b0 0b 2a
        E 32 b0 0b 22
        E 32 b0 0b 19
        E 16 b0 0b 22
        E 16 b0 0b 19
        E 32 b0 0b 11
        E 16 b0 0b 08
        E 32 80 37 00
        E 48 b0 0b 3b
        E 0 90 37 3b
        E 16 b0 0b 33
        E 32 b0 0b 2a
        E 32 b0 0b 22
        E 32 b0 0b 19
        E 16 b0 0b 22
        E 16 b0 0b 19
        E 32 b0 0b 11
        E 32 b0 0b 08
        E 32 80 37 00
        E 32 b0 0b 11
        E 0 90 37 11
        E 128 b0 0b 3b
        E 272 b0 0b 22
        E 16 b0 0b 19
        E 32 b0 0b 11
        E 32 b0 0b 08
        E 32 80 37 00
        E 16 b0 0b 3b
        E 0 90 37 3b
        E 16 b0 0b 33
        E 32 b0 0b 2a
        E 32 b0 0b 22
        E 32 b0 0b 19
        E 16 b0 0b 22
        E 16 b0 0b 19
        E 16 b0 0b 11
        E 32 b0 0b 08
        E 32 80 37 00
        E 48 b0 0c 40
        E 0 b0 0b 4c
        E 0 90 28 4c
        E 16 b0 0b 44
        E 32 b0 0b 3b
        E 32 b0 0b 33
        E 32 b0 0b 2a
        E 16 b0 0b 4c
        E 0 80 28 00
        E 0 90 26 4c
        E 16 b0 0b 44
        E 32 b0 0b 3b
        E 32 b0 0b 33
        E 16 b0 0b 2a
        E 32 b0 0b 22
        E 16 b0 0b 4c
        E 0 80 26 00
        E 0 90 28 4c
        E 16 b0 0b 44
        E 32 b0 0b 3b
        E 32 b0 0b 33
        E 32 b0 0b 2a
        E 16 b0 0c 10
        E 0 b0 0b 3b
        E 0 80 28 00
        E 0 90 36 3b
        E 16 b0 0b 33
        E 32 b0 0b 2a
        E 32 b0 0b 22
        E 32 b0 0b 19
        E 16 b0 0b 3b
        E 0 80 36 00
        E 0 90 37 3b
        E 16 b0 0b 33
        E 16 b0 0b 2a
        E 32 b0 0b 22
        E 32 b0 0b 19
        E 32 b0 0b 11
        E 16 b0 0b 22
        E 128 b0 0b 3b
        E 16 b0 0b 33
        E 32 b0 0b 2a
        E 32 b0 0b 22
        E 16 b0 0b 19
        E 32 b0 0b 11
        E 16 b0 0b 22
        E 16 b0 0b 19
        E 32 b0 0b 11
        E 32 b0 0b 08
        E 32 80 37 00
        E 16 b0 0b 3b
        E 0 90 37 3b
        E 16 b0 0b 33
        E 32 b0 0b 2a
        E 32 b0 0b 22
        E 32 b0 0b 19
        E 16 b0 0b 22
        E 16 b0 0b 19
        E 16 b0 0b 11
        E 32 b0 0b 08
        E 32 80 37 00
        E 48 b0 0b 11
        E 0 90 37 11
        E 128 b0 0b 3b
        E 272 b0 0b 22
        E 16 b0 0b 19
        E 32 b0 0b 11
        E 32 b0 0b 08
        E 32 80 37 00
        E 16 b0 0b 3b
        E 0 90 37 3b
        E 16 b0 0b 33
        E 32 b0 0b 2a
        E 16 b0 0b 22
        E 32 b0 0b 19
        E 32 b0 0b 11
        E 16 b0 0b 22
        E 16 b0 0b 19
        E 32 b0 0b 11
        E 32 b0 0b 08
        E 32 80 37 00
        E 16 b0 0c 40
        E 0 b0 0b 4c
        E 0 90 28 4c
        E 16 b0 0b 44
        E 32 b0 0b 3b
        E 32 b0 0b 33
        E 32 b0 0b 2a
        E 16 b0 0b 22
        E 16 b0 0b 4c
        E 0 80 28 00
        E 0 90 26 4c
        E 16 b0 0b 44
        E 32 b0 0b 3b
        E 32 b0 0b 33
        E 32 b0 0b 2a
        E 16 b0 0b 4c
        E 0 80 26 00
        E 0 90 28 4c
        E 16 b0 0b 44
        E 32 b0 0b 3b
        E 32 b0 0b 33
        E 32 b0 0b 2a
        E 16 b0 0c 10
        E 0 b0 0b 3b
        E 0 80 28 00
        E 0 90 36 3b
        E 16 b0 0b 33
        E 32 b0 0b 2a
        E 16 b0 0b 22
        E 32 b0 0b 19
        E 32 b0 0b 11
        E 16 b0 0b 3b
        E 0 80 36 00
        E 0 90 37 3b
        E 16 b0 0b 33
        E 32 b0 0b 2a
        E 32 b0 0b 22
        E 32 b0 0b 19
        E 16 b0 0b 22
        E 144 b0 0b 3b
        E 16 b0 0b 33
        E 32 b0 0b 2a
        E 32 b0 0b 22
        E 32 b0 0b 19
        E 16 b0 0b 22
        E 16 b0 0b 19
        E 32 b0 0b 11
        E 32 b0 0b 08
        E 32 80 37 00
        E 16 b0 0b 3b
        E 0 90 37 3b
        E 16 b0 0b 33
        E 32 b0 0b 2a
        E 16 b0 0b 22
        E 32 b0 0b 19
        E 32 b0 0b 11
        E 16 b0 0b 22
        E 16 b0 0b 19
        E 32 b0 0b 11
        E 32 b0 0b 08
        E 32 80 37 00
        E 16 b0 0b 11
        E 0 90 37 11
        E 128 b0 0b 3b
        E 272 b0 0b 22
        E 16 b0 0b 19
        E 32 b0 0b 11
        E 32 b0 0b 08
        E 16 80 37 00
        E 48 b0 0b 3b
        E 0 90 37 3b
        E 16 b0 0b 33
        E 32 b0 0b 2a
        E 32 b0 0b 22
        E 32 b0 0b 19
        E 16 b0 0b 22
        E 16 b0 0b 19
        E 32 b0 0b 11
        E 32 b0 0b 08
        E 32 80 37 00
        E 16 b0 0c 40
        E 0 b0 0b 4c
        E 0 90 28 4c
        E 16 b0 0b 44
        E 16 b0 0b 3b
        E 32 b0 0b 33
        E 32 b0 0b 2a
        E 32 b0 0b 22
        E 16 b0 0b 33
        E 0 80 28 00
        E 0 90 21 33
        E 16 b0 0b 2a
        E 32 b0 0b 22
        E 32 b0 0b 19
        E 32 b0 0b 11
        E 16 b0 0b 33
        E 0 80 21 00
        E 0 90 24 33
        E 16 b0 0b 2a
        E 32 b0 0b 22
        E 16 b0 0b 19
        E 0 80 24 00
        E 0 90 21 19
        E 80 b0 0b 33
        E 0 80 21 00
        E 0 90 28 33
        E 16 b0 0b 2a
        E 32 b0 0b 22
        E 16 b0 0b 19
        E 0 80 28 00
        E 0 90 24 19
        E 16 b0 0b 11
        E 32 b0 0b 08
        E 16 b0 0b 33
        E 0 80 24 00
        E 0 90 2b 33
        E 16 b0 0b 2a
        E 32 b0 0b 22
        E 16 b0 0b 19
        E 0 80 2b 00
        E 0 90 28 19
        E 16 b0 0b 11
        E 32 b0 0b 08
        E 16 b0 0b 33
        E 16 b0 0b 2a
        E 16 b0 0b 22
        E 32 b0 0b 19
        E 16 80 28 00
        E 0 90 2b 19
        E 16 b0 0b 11
        E 32 b0 0b 08
        E 16 b0 0b 33
        E 0 80 2b 00
        E 0 90 24 33
        E 16 b0 0b 2a
        E 32 b0 0b 22
        E 16 b0 0b 19
        E 0 80 24 00
        E 0 90 28 19
        E 16 b0 0b 11
        E 32 b0 0b 08
        E 16 b0 0b 33
        E 16 b0 0b 2a
        E 32 b0 0b 22
        E 16 b0 0b 19
        E 0 80 28 00
        E 0 90 24 19
        E 16 b0 0b 11
        E 16 b0 0b 08
        E 32 80 24 00
        E 16 b0 0b 33
        E 0 90 2b 33
        E 16 b0 0b 2a
        E 32 b0 0b 22
        E 16 b0 0b 19
        E 0 80 2b 00
        E 0 90 28 19
        E 16 b0 0b 11
        E 32 b0 0b 08
        E 16 b0 0b 33
        E 0 80 28 00
        E 0 90 2d 33
        E 16 b0 0b 2a
        E 32 b0 0b 22
        E 16 b0 0b 19
        E 0 80 2d 00
        E 0 90 2b 19
        E 16 b0 0b 11
        E 32 b0 0b 08
        E 16 b0 0b 33
        E 0 80 2b 00
        E 0 90 30 33
        E 16 b0 0b 2a
        E 32 b0 0b 22
        E 16 b0 0b 19
        E 16 80 30 00
        E 0 90 2d 19
        E 16 b0 0b 11
        E 32 b0 0b 08
        E 16 b0 0b 33
        E 0 80 2d 00
        E 0 90 34 33
        E 16 b0 0b 2a
        E 32 b0 0b 22
        E 16 b0 0b 19
        E 0 80 34 00
        E 0 90 30 19
        E 16 b0 0b 11
        E 32 b0 0b 08
        E 16 b0 0b 33
        E 0 80 30 00
        E 0 90 37 33
        E 16 b0 0b 2a
        E 32 b0 0b 22
        E 16 b0 0b 19
        E 0 80 37 00
        E 0 90 34 19
        E 16 b0 0b 11
        E 32 b0 0b 08
        E 16 80 34 00
        E 16 b0 0b 33
        E 0 90 39 33
        E 16 b0 0b 2a
        E 32 b0 0b 22
        E 16 b0 0b 19
        E 0 80 39 00
        E 0 90 37 19
        E 16 b0 0b 11
        E 32 b0 0b 08
        E 16 b0 0b 33
        E 0 80 37 00
        E 0 90 3c 33
        E 16 b0 0b 2a
        E 32 b0 0b 22
        E 16 b0 0b 19
        E 0 80 3c 00
        E 0 90 39 19
        E 16 b0 0b 11
        E 32 b0 0b 08
        E 16 b0 0b 33
        E 0 80 39 00
        E 0 90 40 33
        E 16 b0 0b 2a
        E 32 b0 0b 22
        E 16 b0 0b 19
        E 16 80 40 00
        E 0 90 3c 19
        E 16 b0 0b 11
        E 32 b0 0b 08
        E 16 b0 0b 33
        E 0 80 3c 00
        E 0 90 43 33
        E 16 b0 0b 2a
        E 32 b0 0b 22
        E 16 b0 0b 19
        E 0 80 43 00
        E 0 90 40 19
        E 16 b0 0b 11
        E 32 b0 0b 08
        E 16 b0 0b 33
        E 0 80 40 00
        E 0 90 23 33
        E 16 b0 0b 2a
        E 32 b0 0b 22
        E 16 b0 0b 19
        E 0 80 23 00
        E 0 90 43 19
        E 16 b0 0b 11
        E 32 b0 0b 08
        E 16 80 43 00
        E 16 b0 0b 33
        E 0 90 27 33
        E 16 b0 0b 2a
        E 32 b0 0b 22
        E 16 b0 0b 19
        E 0 80 27 00
        E 0 90 23 19
        E 16 b0 0b 11
        E 32 b0 0b 08
        E 16 b0 0b 33
        E 0 80 23 00
        E 0 90 2a 33
        E 16 b0 0b 2a
        E 32 b0 0b 22
        E 16 b0 0b 19
        E 0 80 2a 00
        E 0 90 27 19
        E 16 b0 0b 11
        E 32 b0 0b 08
        E 16 b0 0b 33
        E 0 80 27 00
        E 0 90 2d 33
        E 16 b0 0b 2a
        E 32 b0 0b 22
        E 16 b0 0b 19
        E 16 80 2d 00
        E 0 90 2a 19
        E 16 b0 0b 11
        E 32 b0 0b 08
        E 16 b0 0b 33
        E 16 b0 0b 2a
        E 32 b0 0b 22
        E 16 b0 0b 19
        E 0 80 2a 00
        E 0 90 2d 19
        E 16 b0 0b 11
        E 32 b0 0b 08
        E 16 b0 0b 33
        E 0 80 2d 00
        E 0 90 27 33
        E 16 b0 0b 2a
        E 32 b0 0b 22
        E 16 b0 0b 19
        E 0 80 27 00
        E 0 90 2a 19
        E 16 b0 0b 11
        E 32 b0 0b 08
        E 16 80 2a 00
        E 16 b0 0b 33
        E 0 90 2a 33
        E 16 b0 0b 2a
        E 32 b0 0b 22
        E 16 b0 0b 19
        E 0 80 2a 00
        E 0 90 27 19
        E 16 b0 0b 11
        E 32 b0 0b 08
        E 16 b0 0b 33
        E 0 80 27 00
        E 0 90 2d 33
        E 16 b0 0b 2a
        E 32 b0 0b 22
        E 16 b0 0b 19
        E 0 80 2d 00
        E 0 90 2a 19
        E 16 b0 0b 11
        E 32 b0 0b 08
        E 16 b0 0b 33
        E 0 80 2a 00
        E 0 90 2f 33
        E 16 b0 0b 2a
        E 32 b0 0b 22
        E 16 b0 0b 19
        E 0 80 2f 00
        E 0 90 1d 19
        E 16 b0 0b 11
        E 16 b0 0b 08
        E 32 80 1d 00
        E 16 b0 0b 33
        E 0 90 33 33
        E 16 b0 0b 2a
        E 32 b0 0b 22
        E 16 b0 0b 19
        E 0 80 33 00
        E 0 90 2f 19
        E 16 b0 0b 11
        E 32 b0 0b 08
        E 16 b0 0b 33
        E 0 80 2f 00
        E 0 90 36 33
        E 16 b0 0b 2a
        E 32 b0 0b 22
        E 16 b0 0b 19
        E 0 80 36 00
        E 0 90 33 19
        E 16 b0 0b 11
        E 32 b0 0b 08
        E 16 b0 0b 33
        E 0 80 33 00
        E 0 90 39 33
        E 16 b0 0b 2a
        E 16 b0 0b 22
        E 32 b0 0b 19
        E 16 80 39 00
        E 0 90 36 19
        E 16 b0 0b 11
        E 32 b0 0b 08
        E 16 b0 0b 33
        E 0 80 36 00
        E 0 90 3b 33
        E 16 b0 0b 2a
        E 32 b0 0b 22
        E 16 b0 0b 19
        E 0 80 3b 00
        E 0 90 39 19
        E 16 b0 0b 11
        E 32 b0 0b 08
        E 16 b0 0b 33
        E 0 80 39 00
        E 0 90 3f 33
        E 16 b0 0b 2a
        E 32 b0 0b 22
        E 16 b0 0b 19
        E 0 80 3f 00
        E 0 90 3b 19
        E 16 b0 0b 11
        E 16 b0 0b 08
        E 32 80 3b 00
        E 16 b0 0b 33
        E 0 90 42 33
        E 16 b0 0b 2a
        E 32 b0 0b 22
        E 16 b0 0b 19
        E 0 80 42 00
        E 0 90 3f 19
        E 16 b0 0b 11
        E 32 b0 0b 08
        E 16 b0 0b 33
        E 0 80 3f 00
        E 0 90 45 33
        E 16 b0 0b 2a
        E 32 b0 0b 22
        E 16 b0 0b 19
        E 0 80 45 00
        E 0 90 42 19
        E 64 80 42 00
        E 4304 b0 0c 10
        E 0 b0 0b 22
        E 0 90 34 22
        E 16 b0 0b 19
        E 32 b0 0b 11
        E 32 b0 0b 08
        E 32 80 34 00
        E 16 b0 0b 19
        E 0 90 34 19
        E 16 b0 0b 11
        E 16 b0 0b 08
        E 32 80 34 00
        E 80 b0 0b 11
        E 0 90 34 11
        E 48 b0 0b 08
        E 64 80 34 00
        E 16 90 34 08
        E 80 80 34 00
        E 64 b0 0b 22
        E 0 90 34 22
        E 16 b0 0b 19
        E 32 b0 0b 11
        E 32 b0 0b 08
        E 32 80 34 00
        E 16 b0 0b 19
        E 0 90 34 19
        E 16 b0 0b 11
        E 32 b0 0b 08
        E 32 80 34 00
        E 48 b0 0b 11
        E 0 90 34 11
        E 48 b0 0b 08
        E 48 80 34 00
        E 48 90 34 08
        E 80 80 34 00
        E 48 b0 0b 22
        E 0 90 34 22
        E 16 b0 0b 19
        E 32 b0 0b 11
        E 32 b0 0b 08
        E 32 80 34 00
        E 32 b0 0b 19
        E 0 90 34 19
        E 16 b0 0b 11
        E 32 b0 0b 08
        E 32 80 34 00
        E 48 b0 0b 11
        E 0 90 34 11
        E 48 b0 0b 08
        E 64 80 34 00
        E 16 90 34 08
        E 64 80 34 00
        E 80 b0 0b 22
        E 0 90 34 22
        E 16 b0 0b 19
        E 32 b0 0b 11
        E 32 b0 0b 08
        E 32 80 34 00
        E 16 b0 0b 19
        E 0 90 34 19
        E 16 b0 0b 11
        E 32 b0 0b 08
        E 32 80 34 00
        E 64 b0 0b 11
        E 0 90 34 11
        E 48 b0 0b 08
        E 64 80 34 00
        E 16 90 34 08
        E 80 80 34 00
        E 48 b0 0b 22
        E 0 90 34 22
        E 16 b0 0b 19
        E 32 b0 0b 11
        E 16 b0 0b 08
        E 32 80 34 00
        E 48 b0 0b 19
        E 0 90 34 19
        E 16 b0 0b 11
        E 32 b0 0b 08
        E 32 80 34 00
        E 48 b0 0b 11
        E 0 90 34 11
        E 48 b0 0b 08
        E 64 80 34 00
        E 32 90 34 08
        E 80 80 34 00
        E 48 b0 0b 22
        E 0 90 34 22
        E 16 b0 0b 19
        E 32 b0 0b 11
        E 32 b0 0b 08
        E 32 80 34 00
        E 16 b0 0b 19
        E 0 90 34 19
        E 16 b0 0b 11
        E 32 b0 0b 08
        E 32 80 34 00
        E 64 b0 0b 11
        E 0 90 34 11
        E 48 b0 0b 08
        E 64 80 34 00
        E 16 90 34 08
        E 80 80 34 00
        E 48 b0 0b 22
        E 0 90 34 22
        E 16 b0 0b 19
        E 16 b0 0b 11
        E 32 b0 0b 08
        E 32 80 34 00
        E 48 b0 0b 19
        E 0 90 34 19
        E 16 b0 0b 11
        E 32 b0 0b 08
        E 32 80 34 00
        E 48 b0 0b 11
        E 0 90 34 11
        E 48 b0 0b 08
        E 48 80 34 00
        E 48 90 34 08
        E 80 80 34 00
        E 48 b0 0b 22
        E 0 90 34 22
        E 16 b0 0b 19
        E 32 b0 0b 11
        E 32 b0 0b 08
        E 32 80 34 00
        E 16 b0 0b 19
        E 0 90 34 19
        E 16 b0 0b 11
        E 16 b0 0b 08
        E 32 80 34 00
        E 80 b0 0b 11
        E 0 90 34 11
        E 48 b0 0b 08
        E 64 80 34 00
        E 16 90 34 08
        E 80 80 34 00
        E 64 b0 0c 40
        E 0 b0 0b 3b
        E 0 90 28 3b
        E 16 b0 0b 33
        E 32 b0 0b 2a
        E 32 b0 0b 22
        E 32 b0 0b 19
        E 16 b0 0b 22
        E 16 b0 0b 19
        E 32 b0 0b 11
        E 32 b0 0b 08
        E 32 80 28 00
        E 16 b0 0b 11
        E 0 90 28 11
        E 32 b0 0b 08
        E 64 80 28 00
        E 48 90 28 08
        E 80 80 28 00
        E 48 b0 0b 3b
        E 0 90 28 3b
        E 16 b0 0b 33
        E 32 b0 0b 2a
        E 32 b0 0b 22
        E 32 b0 0b 19
        E 16 b0 0b 11
        E 16 b0 0b 3b
        E 0 80 28 00
        E 0 90 26 3b
        E 16 b0 0b 33
        E 32 b0 0b 2a
        E 32 b0 0b 22
        E 32 b0 0b 19
        E 16 b0 0b 22
        E 16 b0 0b 19
        E 32 b0 0b 11
        E 32 b0 0b 08
        E 32 80 26 00
        E 16 b0 0b 11
        E 0 90 26 11
        E 48 b0 0b 08
        E 48 80 26 00
        E 48 b0 0b 5d
        E 0 90 28 5d
        E 16 b0 0b 55
        E 32 b0 0b 4c
        E 32 b0 0b 44
        E 32 b0 0b 3b
        E 32 b0 0b 33
        E 32 b0 0b 2a
        E 32 b0 0b 22
        E 32 b0 0b 19
        E 16 b0 0b 11
        E 16 80 28 00
        E 0 90 33 11
        E 144 b0 0b 19
        E 160 b0 0b 22
        E 48 80 33 00
        E 0 90 34 22
        E 96 b0 0b 2a
        E 160 b0 0b 33
        E 144 b0 0b 3b
        E 48 b0 0c 60
        E 0 b0 0b 33
        E 0 80 34 00
        E 0 90 2d 33
        E 128 80 2d 00
        E 0 90 37 33
        E 16 b0 0b 2a
        E 32 b0 0b 22
        E 16 b0 0b 19
        E 32 b0 0b 11
        E 32 b0 0b 08
        E 16 b0 0b 33
        E 16 b0 0b 2a
        E 32 b0 0b 22
        E 32 b0 0b 19
        E 32 b0 0b 11
        E 16 b0 0b 33
        E 0 80 37 00
        E 0 90 2d 33
        E 16 b0 0b 2a
        E 32 b0 0b 22
        E 32 b0 0b 19
        E 32 b0 0b 11
        E 16 b0 0b 33
        E 0 80 2d 00
        E 0 90 34 33
        E 16 b0 0b 2a
        E 16 b0 0b 22
        E 32 b0 0b 19
        E 32 b0 0b 11
        E 32 b0 0b 08
        E 16 b0 0b 33
        E 0 80 34 00
        E 0 90 2d 33
        E 16 b0 0b 2a
        E 32 b0 0b 22
        E 32 b0 0b 19
        E 32 b0 0b 11
        E 16 b0 0b 33
        E 0 80 2d 00
        E 0 90 34 33
        E 16 b0 0b 2a
        E 32 b0 0b 22
        E 32 b0 0b 19
        E 16 b0 0b 11
        E 32 b0 0b 08
        E 16 b0 0b 33
        E 16 b0 0b 2a
        E 32 b0 0b 22
        E 32 b0 0b 19
        E 32 b0 0b 11
        E 16 b0 0b 33
        E 0 80 34 00
        E 0 90 2d 33
        E 16 b0 0b 2a
        E 32 b0 0b 22
        E 32 b0 0b 19
        E 32 b0 0b 11
        E 16 b0 0b 33
        E 0 80 2d 00
        E 0 90 37 33
        E 16 b0 0b 2a
        E 16 b0 0b 22
        E 16 80 37 00
        E 0 ff 2f 00
      >
    >
  >
  <TRACK {EBD20D2D-F668-490A-A980-E1434F428EE8}
    NAME "NES - Pulse 2 [ch1]"
    PEAKCOL 10092441
    BEAT -1
    AUTOMODE 0
    PANLAWFLAGS 3
    VOLPAN 1 0 -1 -1 1
    MUTESOLO 0 0 0
    IPHASE 0
    PLAYOFFS 0 1
    ISBUS 0 0
    BUSCOMP 0 0 0 0 0
    SHOWINMIX 1 0.6667 0.5 1 0.5 0 0 0
    FIXEDLANES 9 0 0 0 0
    SEL 0
    REC 0 5088 1 0 0 0 0 0
    VU 2
    TRACKHEIGHT 0 0 0 0 0 0 0
    INQ 0 0 0 0.5 100 0 0 100
    NCHAN 2
    FX 1
    TRACKID {EBD20D2D-F668-490A-A980-E1434F428EE8}
    PERF 0
    MIDIOUT -1
    MAINSEND 1 0
    <FXCHAIN
      WNDRECT 24 52 700 560
      SHOW 0
      LASTSEL 0
      DOCKED 0
      BYPASS 0 0 0
      <JS "ReapNES Studio/ReapNES_Console.jsfx" ""
        2 15 1 10 80 10 100 2 1 15 1 5 60 10 80 1 1 0 50 0 0 15 1 0 100 0 0 0.500000 0.500000 0.400000 0.300000 0.800000 1 1 0 0 0 0 - - - - - - - - - - - - - - - - - - - - - - - - - -
      >
      FLOATPOS 0 0 0 0
      FXID {D183E4E5-35D1-4F7A-AD7E-03A7C8031CAE}
      WAK 0 0
    >
    <ITEM
      POSITION 0
      LENGTH 151.52411030000002
      LOOP 0
      ALLTAKES 0
      FADEIN 0 0 0 0 0 0 0
      FADEOUT 0 0 0 0 0 0 0
      MUTE 0 0
      SEL 0
      IGUID {0FEF7B71-7E37-4535-8A22-621E8EC737A2}
      <SOURCE MIDI
        HASDATA 1 480 QN
        CCINTERP 32
        E 0 c1 51
        E 0 b1 0c 10
        E 0 b1 0b 2a
        E 0 91 40 2a
        E 80 b1 0b 22
        E 32 b1 0b 11
        E 0 81 40 00
        E 0 91 45 11
        E 64 b1 0b 2a
        E 0 81 45 00
        E 0 91 43 2a
        E 16 b1 0b 22
        E 96 b1 0b 11
        E 0 81 43 00
        E 0 91 40 11
        E 16 b1 0b 08
        E 48 b1 0b 33
        E 0 81 40 00
        E 0 91 28 33
        E 80 b1 0b 2a
        E 112 b1 0b 22
        E 96 81 28 00
        E 80 b1 0b 33
        E 0 91 28 33
        E 48 b1 0b 2a
        E 112 b1 0b 22
        E 112 b1 0b 19
        E 80 81 28 00
        E 176 b1 0b 33
        E 0 91 28 33
        E 80 b1 0b 2a
        E 128 b1 0b 22
        E 112 b1 0b 19
        E 32 81 28 00
        E 176 b1 0b 33
        E 0 91 26 33
        E 16 b1 0b 2a
        E 112 b1 0b 22
        E 112 b1 0b 19
        E 48 81 26 00
        E 80 b1 0b 33
        E 0 91 26 33
        E 96 b1 0b 2a
        E 112 b1 0b 22
        E 128 b1 0b 19
        E 16 81 26 00
        E 176 b1 0b 33
        E 0 91 26 33
        E 32 b1 0b 2a
        E 112 b1 0b 22
        E 112 b1 0b 19
        E 96 81 26 00
        E 176 b1 0b 33
        E 0 91 26 33
        E 64 b1 0b 2a
        E 112 b1 0b 22
        E 112 81 26 00
        E 80 b1 0b 33
        E 0 91 26 33
        E 48 b1 0b 2a
        E 112 b1 0b 22
        E 112 b1 0b 19
        E 80 81 26 00
        E 176 b1 0b 33
        E 0 91 26 33
        E 80 b1 0b 2a
        E 112 b1 0b 22
        E 128 b1 0b 19
        E 48 81 26 00
        E 176 b1 0b 33
        E 0 91 28 33
        E 16 b1 0b 2a
        E 112 b1 0b 22
        E 112 b1 0b 19
        E 64 81 28 00
        E 64 b1 0b 33
        E 0 91 28 33
        E 96 b1 0b 2a
        E 112 b1 0b 22
        E 112 b1 0b 19
        E 32 81 28 00
        E 176 b1 0b 33
        E 0 91 2a 33
        E 32 b1 0b 2a
        E 112 b1 0b 22
        E 112 b1 0b 19
        E 96 b1 0b 22
        E 0 81 2a 00
        E 0 91 34 22
        E 192 b1 0b 19
        E 160 b1 0b 11
        E 112 81 34 00
        E 0 91 33 11
        E 576 81 33 00
        E 0 91 32 11
        E 640 81 32 00
        E 0 91 31 11
        E 688 81 31 00
        E 0 91 30 11
        E 496 b1 0b 22
        E 0 81 30 00
        E 0 91 3e 22
        E 176 b1 0b 19
        E 16 b1 0c 20
        E 0 b1 0b 3b
        E 0 81 3e 00
        E 0 91 23 3b
        E 96 b1 0b 33
        E 128 b1 0b 2a
        E 64 81 23 00
        E 64 b1 0b 3b
        E 0 91 25 3b
        E 96 b1 0b 33
        E 112 b1 0b 2a
        E 80 81 25 00
        E 64 b1 0b 3b
        E 0 91 26 3b
        E 80 b1 0b 33
        E 112 b1 0b 2a
        E 96 81 26 00
        E 496 b1 0c 10
        E 0 b1 0b 19
        E 0 91 37 19
        E 96 81 37 00
        E 0 91 38 19
        E 176 b1 0b 11
        E 0 81 38 00
        E 0 91 39 11
        E 80 b1 0b 19
        E 192 b1 0b 11
        E 160 b1 0b 19
        E 128 b1 0b 11
        E 48 b1 0b 19
        E 192 81 39 00
        E 0 91 37 19
        E 48 b1 0b 11
        E 240 b1 0c 20
        E 0 b1 0b 3b
        E 0 81 37 00
        E 0 91 28 3b
        E 96 b1 0b 33
        E 112 b1 0b 2a
        E 80 81 28 00
        E 64 b1 0b 3b
        E 0 91 25 3b
        E 96 b1 0b 33
        E 112 b1 0b 2a
        E 80 81 25 00
        E 64 b1 0b 3b
        E 0 91 26 3b
        E 80 b1 0b 33
        E 112 b1 0b 2a
        E 96 81 26 00
        E 400 b1 0c 10
        E 0 b1 0b 19
        E 0 91 21 19
        E 16 b1 0b 11
        E 64 b1 0b 08
        E 64 81 21 00
        E 240 b1 0b 19
        E 0 91 21 19
        E 48 b1 0b 11
        E 48 b1 0b 08
        E 64 81 21 00
        E 16 b1 0b 19
        E 0 91 23 19
        E 48 b1 0b 11
        E 48 b1 0b 08
        E 64 81 23 00
        E 16 b1 0b 19
        E 0 91 23 19
        E 32 b1 0b 11
        E 64 b1 0b 08
        E 48 81 23 00
        E 32 b1 0b 19
        E 0 91 24 19
        E 32 b1 0b 11
        E 48 b1 0b 08
        E 64 81 24 00
        E 32 b1 0b 19
        E 0 91 26 19
        E 32 b1 0b 11
        E 48 b1 0b 08
        E 64 81 26 00
        E 32 b1 0b 19
        E 0 91 28 19
        E 16 b1 0b 11
        E 16 b1 0b 22
        E 0 81 28 00
        E 0 91 3e 22
        E 176 b1 0c 20
        E 0 b1 0b 3b
        E 0 81 3e 00
        E 0 91 23 3b
        E 96 b1 0b 33
        E 112 b1 0b 2a
        E 80 81 23 00
        E 64 b1 0b 3b
        E 0 91 25 3b
        E 80 b1 0b 33
        E 112 b1 0b 2a
        E 96 81 25 00
        E 64 b1 0b 3b
        E 0 91 26 3b
        E 80 b1 0b 33
        E 112 b1 0b 2a
        E 96 81 26 00
        E 496 b1 0c 10
        E 0 b1 0b 19
        E 0 91 37 19
        E 80 81 37 00
        E 0 91 38 19
        E 176 b1 0b 11
        E 0 81 38 00
        E 0 91 39 11
        E 96 b1 0b 19
        E 192 b1 0b 11
        E 160 b1 0b 19
        E 128 b1 0b 11
        E 64 b1 0b 19
        E 176 81 39 00
        E 0 91 37 19
        E 32 b1 0b 11
        E 256 b1 0c 20
        E 0 b1 0b 3b
        E 0 81 37 00
        E 0 91 28 3b
        E 96 b1 0b 33
        E 112 b1 0b 2a
        E 80 81 28 00
        E 64 b1 0b 3b
        E 0 91 25 3b
        E 80 b1 0b 33
        E 112 b1 0b 2a
        E 96 81 25 00
        E 64 b1 0b 3b
        E 0 91 26 3b
        E 64 b1 0b 33
        E 128 b1 0b 2a
        E 96 81 26 00
        E 400 b1 0c 10
        E 0 b1 0b 19
        E 0 91 21 19
        E 16 b1 0b 11
        E 48 b1 0b 08
        E 64 81 21 00
        E 240 b1 0b 19
        E 0 91 21 19
        E 32 b1 0b 11
        E 64 b1 0b 08
        E 64 81 21 00
        E 16 b1 0b 19
        E 0 91 23 19
        E 32 b1 0b 11
        E 64 b1 0b 08
        E 48 81 23 00
        E 32 b1 0b 19
        E 0 91 23 19
        E 32 b1 0b 11
        E 48 b1 0b 08
        E 64 81 23 00
        E 32 b1 0b 19
        E 0 91 24 19
        E 16 b1 0b 11
        E 64 b1 0b 08
        E 64 81 24 00
        E 32 b1 0b 19
        E 0 91 26 19
        E 16 b1 0b 11
        E 64 b1 0b 08
        E 48 81 26 00
        E 48 b1 0b 19
        E 0 91 28 19
        E 16 b1 0b 11
        E 16 b1 0b 22
        E 0 81 28 00
        E 0 91 3e 22
        E 176 b1 0b 33
        E 0 81 3e 00
        E 0 91 28 33
        E 96 b1 0b 2a
        E 112 b1 0b 22
        E 80 81 28 00
        E 64 b1 0b 33
        E 0 91 28 33
        E 80 b1 0b 2a
        E 112 b1 0b 22
        E 112 b1 0b 19
        E 48 81 28 00
        E 192 b1 0b 33
        E 0 91 28 33
        E 96 b1 0b 2a
        E 128 b1 0b 22
        E 112 b1 0b 19
        E 16 81 28 00
        E 176 b1 0b 33
        E 0 91 26 33
        E 32 b1 0b 2a
        E 112 b1 0b 22
        E 112 b1 0b 19
        E 32 81 26 00
        E 64 b1 0b 33
        E 0 91 26 33
        E 16 b1 0b 2a
        E 112 b1 0b 22
        E 112 b1 0b 19
        E 112 81 26 00
        E 192 b1 0b 33
        E 0 91 26 33
        E 48 b1 0b 2a
        E 112 b1 0b 22
        E 112 b1 0b 19
        E 80 81 26 00
        E 176 b1 0b 33
        E 0 91 26 33
        E 80 b1 0b 2a
        E 112 b1 0b 22
        E 96 81 26 00
        E 64 b1 0b 33
        E 0 91 26 33
        E 80 b1 0b 2a
        E 112 b1 0b 22
        E 112 b1 0b 19
        E 64 81 26 00
        E 176 b1 0b 33
        E 0 91 26 33
        E 96 b1 0b 2a
        E 112 b1 0b 22
        E 112 b1 0b 19
        E 32 81 26 00
        E 176 b1 0b 33
        E 0 91 28 33
        E 32 b1 0b 2a
        E 112 b1 0b 22
        E 112 b1 0b 19
        E 96 b1 0b 2a
        E 0 81 28 00
        E 0 91 48 2a
        E 16 b1 0b 22
        E 96 b1 0b 11
        E 0 81 48 00
        E 0 91 39 11
        E 64 b1 0b 2a
        E 0 81 39 00
        E 0 91 47 2a
        E 16 b1 0b 22
        E 96 b1 0b 11
        E 0 81 47 00
        E 0 91 48 11
        E 16 b1 0b 08
        E 64 b1 0b 2a
        E 0 81 48 00
        E 0 91 43 2a
        E 48 b1 0b 22
        E 64 b1 0b 11
        E 0 81 43 00
        E 0 91 47 11
        E 48 b1 0b 08
        E 16 b1 0b 2a
        E 0 81 47 00
        E 0 91 45 2a
        E 96 b1 0b 22
        E 16 b1 0b 11
        E 0 81 45 00
        E 0 91 43 11
        E 64 b1 0b 2a
        E 0 81 43 00
        E 0 91 40 2a
        E 32 b1 0b 22
        E 80 b1 0b 11
        E 0 81 40 00
        E 0 91 45 11
        E 32 b1 0b 08
        E 32 b1 0b 2a
        E 0 81 45 00
        E 0 91 43 2a
        E 80 b1 0b 22
        E 32 b1 0b 11
        E 0 81 43 00
        E 0 91 40 11
        E 64 b1 0b 33
        E 0 81 40 00
        E 0 91 28 33
        E 80 b1 0b 2a
        E 112 b1 0b 22
        E 96 81 28 00
        E 64 b1 0b 33
        E 0 91 28 33
        E 64 b1 0b 2a
        E 128 b1 0b 22
        E 112 b1 0b 19
        E 64 81 28 00
        E 176 b1 0b 33
        E 0 91 28 33
        E 96 b1 0b 2a
        E 112 b1 0b 22
        E 112 b1 0b 19
        E 32 81 28 00
        E 176 b1 0b 33
        E 0 91 26 33
        E 16 b1 0b 2a
        E 128 b1 0b 22
        E 112 b1 0b 19
        E 32 81 26 00
        E 64 b1 0b 33
        E 0 91 26 33
        E 16 b1 0b 2a
        E 112 b1 0b 22
        E 112 b1 0b 19
        E 112 b1 0b 11
        E 16 81 26 00
        E 176 b1 0b 33
        E 0 91 26 33
        E 32 b1 0b 2a
        E 112 b1 0b 22
        E 128 b1 0b 19
        E 80 81 26 00
        E 176 b1 0b 33
        E 0 91 26 33
        E 80 b1 0b 2a
        E 112 b1 0b 22
        E 96 81 26 00
        E 64 b1 0b 33
        E 0 91 26 33
        E 64 b1 0b 2a
        E 112 b1 0b 22
        E 112 b1 0b 19
        E 80 81 26 00
        E 176 b1 0b 33
        E 0 91 26 33
        E 96 b1 0b 2a
        E 112 b1 0b 22
        E 112 b1 0b 19
        E 32 81 26 00
        E 176 b1 0b 33
        E 0 91 28 33
        E 16 b1 0b 2a
        E 112 b1 0b 22
        E 112 b1 0b 19
        E 128 b1 0b 11
        E 112 b1 0b 08
        E 112 81 28 00
        E 128 b1 0b 33
        E 0 91 28 33
        E 96 b1 0b 2a
        E 112 b1 0b 22
        E 16 b1 0b 33
        E 96 b1 0b 2a
        E 112 b1 0b 22
        E 32 b1 0b 33
        E 0 81 28 00
        E 0 91 29 33
        E 80 b1 0b 2a
        E 128 b1 0b 22
        E 32 b1 0b 33
        E 0 81 29 00
        E 0 91 2a 33
        E 80 b1 0b 2a
        E 112 b1 0b 22
        E 96 81 2a 00
        E 80 b1 0b 33
        E 0 91 2a 33
        E 48 b1 0b 2a
        E 112 b1 0b 22
        E 112 b1 0b 19
        E 80 81 2a 00
        E 176 b1 0b 33
        E 0 91 2a 33
        E 96 b1 0b 2a
        E 112 b1 0b 22
        E 112 b1 0b 19
        E 32 81 2a 00
        E 176 b1 0b 33
        E 0 91 28 33
        E 16 b1 0b 2a
        E 112 b1 0b 22
        E 112 b1 0b 19
        E 48 81 28 00
        E 80 b1 0b 33
        E 0 91 28 33
        E 96 b1 0b 2a
        E 128 b1 0b 22
        E 112 b1 0b 19
        E 16 81 28 00
        E 176 b1 0b 33
        E 0 91 28 33
        E 32 b1 0b 2a
        E 112 b1 0b 22
        E 112 b1 0b 19
        E 96 81 28 00
        E 176 b1 0b 33
        E 0 91 28 33
        E 64 b1 0b 2a
        E 128 b1 0b 22
        E 96 81 28 00
        E 80 b1 0b 33
        E 0 91 28 33
        E 48 b1 0b 2a
        E 112 b1 0b 22
        E 112 b1 0b 19
        E 80 81 28 00
        E 176 b1 0b 33
        E 0 91 28 33
        E 80 b1 0b 2a
        E 112 b1 0b 22
        E 128 b1 0b 19
        E 32 81 28 00
        E 176 b1 0b 33
        E 0 91 2a 33
        E 16 b1 0b 2a
        E 112 b1 0b 22
        E 112 b1 0b 19
        E 112 b1 0b 11
        E 16 b1 0b 2a
        E 0 81 2a 00
        E 0 91 4a 2a
        E 32 b1 0b 11
        E 0 81 4a 00
        E 0 91 3b 11
        E 48 b1 0b 2a
        E 0 81 3b 00
        E 0 91 49 2a
        E 48 b1 0b 11
        E 0 81 49 00
        E 0 91 4a 11
        E 32 b1 0b 08
        E 16 b1 0b 2a
        E 0 81 4a 00
        E 0 91 45 2a
        E 48 b1 0b 11
        E 0 81 45 00
        E 0 91 49 11
        E 32 b1 0b 2a
        E 0 81 49 00
        E 0 91 47 2a
        E 16 b1 0b 22
        E 32 b1 0b 11
        E 0 81 47 00
        E 0 91 45 11
        E 48 b1 0b 2a
        E 0 81 45 00
        E 0 91 42 2a
        E 32 b1 0b 22
        E 16 b1 0b 11
        E 0 81 42 00
        E 0 91 47 11
        E 32 b1 0b 2a
        E 0 81 47 00
        E 0 91 45 2a
        E 48 b1 0b 11
        E 0 81 45 00
        E 0 91 42 11
        E 16 b1 0b 08
        E 32 b1 0b 2a
        E 0 81 42 00
        E 0 91 4a 2a
        E 48 b1 0b 11
        E 0 81 4a 00
        E 0 91 45 11
        E 32 b1 0b 08
        E 16 b1 0b 2a
        E 0 81 45 00
        E 0 91 49 2a
        E 32 b1 0b 11
        E 0 81 49 00
        E 0 91 4a 11
        E 48 b1 0b 2a
        E 0 81 4a 00
        E 0 91 45 2a
        E 16 b1 0b 22
        E 32 b1 0b 11
        E 0 81 45 00
        E 0 91 49 11
        E 48 b1 0b 2a
        E 0 81 49 00
        E 0 91 47 2a
        E 32 b1 0b 22
        E 16 b1 0b 11
        E 0 81 47 00
        E 0 91 45 11
        E 32 b1 0b 2a
        E 0 81 45 00
        E 0 91 42 2a
        E 48 b1 0b 11
        E 0 81 42 00
        E 0 91 47 11
        E 32 b1 0b 08
        E 16 b1 0b 2a
        E 0 81 47 00
        E 0 91 45 2a
        E 48 b1 0b 11
        E 0 81 45 00
        E 0 91 42 11
        E 32 b1 0b 33
        E 0 81 42 00
        E 0 91 2a 33
        E 64 b1 0b 2a
        E 112 b1 0b 22
        E 112 b1 0b 19
        E 16 81 2a 00
        E 64 b1 0b 33
        E 0 91 2a 33
        E 48 b1 0b 2a
        E 112 b1 0b 22
        E 112 b1 0b 19
        E 80 81 2a 00
        E 176 b1 0b 33
        E 0 91 2a 33
        E 80 b1 0b 2a
        E 112 b1 0b 22
        E 112 b1 0b 19
        E 48 81 2a 00
        E 176 b1 0b 33
        E 0 91 28 33
        E 16 b1 0b 2a
        E 112 b1 0b 22
        E 112 b1 0b 19
        E 64 81 28 00
        E 64 b1 0b 33
        E 0 91 28 33
        E 96 b1 0b 2a
        E 112 b1 0b 22
        E 112 b1 0b 19
        E 32 81 28 00
        E 176 b1 0b 33
        E 0 91 28 33
        E 16 b1 0b 2a
        E 128 b1 0b 22
        E 112 b1 0b 19
        E 96 81 28 00
        E 192 b1 0b 33
        E 0 91 28 33
        E 48 b1 0b 2a
        E 112 b1 0b 22
        E 112 b1 0b 19
        E 16 81 28 00
        E 80 b1 0b 33
        E 0 91 28 33
        E 32 b1 0b 2a
        E 112 b1 0b 22
        E 128 b1 0b 19
        E 80 81 28 00
        E 176 b1 0b 33
        E 0 91 28 33
        E 80 b1 0b 2a
        E 112 b1 0b 22
        E 112 b1 0b 19
        E 48 81 28 00
        E 192 b1 0b 33
        E 0 91 2a 33
        E 96 b1 0b 2a
        E 128 b1 0b 22
        E 64 81 2a 00
        E 64 b1 0b 33
        E 0 91 2a 33
        E 96 b1 0b 2a
        E 112 b1 0b 22
        E 112 b1 0b 19
        E 32 81 2a 00
        E 176 b1 0b 33
        E 0 91 2c 33
        E 16 b1 0b 2a
        E 112 b1 0b 22
        E 112 b1 0b 19
        E 112 b1 0b 22
        E 0 81 2c 00
        E 0 91 36 22
        E 176 b1 0b 19
        E 176 b1 0b 11
        E 48 81 36 00
        E 0 91 35 11
        E 512 81 35 00
        E 0 91 34 11
        E 576 81 34 00
        E 0 91 33 11
        E 624 81 33 00
        E 0 91 32 11
        E 624 81 32 00
        E 0 91 31 11
        E 624 81 31 00
        E 0 91 30 11
        E 752 81 30 00
        E 0 91 2f 11
        E 752 81 2f 00
        E 0 91 2e 11
        E 688 81 2e 00
        E 15072 b1 0b 22
        E 0 91 38 22
        E 32 81 38 00
        E 0 91 39 22
        E 48 81 39 00
        E 0 91 3a 22
        E 48 81 3a 00
        E 0 91 2f 22
        E 208 b1 0b 19
        E 176 b1 0b 11
        E 64 81 2f 00
        E 0 91 2e 11
        E 512 81 2e 00
        E 4128 b1 0c 40
        E 0 b1 0b 08
        E 0 91 21 08
        E 32 b1 0b 11
        E 32 b1 0b 19
        E 32 b1 0b 22
        E 32 b1 0b 2a
        E 32 b1 0b 33
        E 32 b1 0b 3b
        E 32 b1 0b 44
        E 32 b1 0b 4c
        E 32 b1 0b 55
        E 32 b1 0b 5d
        E 32 b1 0b 66
        E 32 b1 0b 6e
        E 32 b1 0b 77
        E 32 b1 0b 7f
        E 32 81 21 00
        E 64 b1 0b 44
        E 0 91 48 44
        E 32 81 48 00
        E 10080 b1 0c 20
        E 0 b1 0b 33
        E 0 91 1c 33
        E 80 b1 0b 2a
        E 32 b1 0b 22
        E 32 b1 0b 19
        E 32 b1 0b 11
        E 32 b1 0b 08
        E 32 81 1c 00
        E 16 b1 0b 33
        E 0 91 1c 33
        E 16 b1 0b 2a
        E 16 b1 0b 22
        E 32 b1 0b 19
        E 32 b1 0b 11
        E 32 b1 0b 08
        E 32 81 1c 00
        E 112 b1 0b 33
        E 0 91 1c 33
        E 16 b1 0b 2a
        E 32 b1 0b 22
        E 32 b1 0b 19
        E 16 b1 0b 11
        E 32 b1 0b 08
        E 16 b1 0b 33
        E 0 81 1c 00
        E 0 91 1a 33
        E 48 b1 0b 2a
        E 64 b1 0b 22
        E 64 b1 0b 19
        E 64 b1 0b 11
        E 16 b1 0b 33
        E 0 81 1a 00
        E 0 91 1c 33
        E 16 b1 0b 2a
        E 16 b1 0b 22
        E 32 b1 0b 19
        E 32 b1 0b 11
        E 32 b1 0b 08
        E 32 81 1c 00
        E 112 b1 0b 33
        E 0 91 1c 33
        E 16 b1 0b 2a
        E 32 b1 0b 22
        E 32 b1 0b 19
        E 16 b1 0b 11
        E 32 b1 0b 08
        E 16 b1 0b 33
        E 16 b1 0b 2a
        E 32 b1 0b 22
        E 32 b1 0b 19
        E 32 b1 0b 11
        E 32 b1 0b 08
        E 32 81 1c 00
        E 80 b1 0b 33
        E 0 91 1c 33
        E 16 b1 0b 2a
        E 16 b1 0b 22
        E 32 b1 0b 19
        E 32 b1 0b 11
        E 32 b1 0b 08
        E 16 b1 0b 33
        E 0 81 1c 00
        E 0 91 1f 33
        E 48 b1 0b 2a
        E 64 b1 0b 22
        E 64 b1 0b 19
        E 64 b1 0b 11
        E 48 b1 0b 08
        E 64 81 1f 00
        E 48 b1 0b 33
        E 0 91 1c 33
        E 16 b1 0b 2a
        E 32 b1 0b 22
        E 32 b1 0b 19
        E 32 b1 0b 11
        E 32 b1 0b 08
        E 32 81 1c 00
        E 96 b1 0b 33
        E 0 91 1c 33
        E 16 b1 0b 2a
        E 32 b1 0b 22
        E 32 b1 0b 19
        E 32 b1 0b 11
        E 32 b1 0b 08
        E 32 81 1c 00
        E 96 b1 0b 33
        E 0 91 1c 33
        E 16 b1 0b 2a
        E 32 b1 0b 22
        E 32 b1 0b 19
        E 32 b1 0b 11
        E 16 b1 0b 33
        E 0 81 1c 00
        E 0 91 1a 33
        E 48 b1 0b 2a
        E 64 b1 0b 22
        E 64 b1 0b 19
        E 48 b1 0b 11
        E 48 b1 0b 33
        E 0 81 1a 00
        E 0 91 1c 33
        E 16 b1 0b 2a
        E 32 b1 0b 22
        E 32 b1 0b 19
        E 32 b1 0b 11
        E 32 b1 0b 08
        E 32 81 1c 00
        E 96 b1 0b 33
        E 0 91 1c 33
        E 16 b1 0b 2a
        E 32 b1 0b 22
        E 32 b1 0b 19
        E 32 b1 0b 11
        E 16 b1 0b 33
        E 16 b1 0b 2a
        E 32 b1 0b 22
        E 32 b1 0b 19
        E 32 b1 0b 11
        E 32 b1 0b 08
        E 32 81 1c 00
        E 96 b1 0b 33
        E 0 91 1c 33
        E 16 b1 0b 2a
        E 32 b1 0b 22
        E 32 b1 0b 19
        E 32 b1 0b 11
        E 16 b1 0b 33
        E 0 81 1c 00
        E 0 91 1f 33
        E 48 b1 0b 2a
        E 64 b1 0b 22
        E 48 b1 0b 19
        E 64 b1 0b 11
        E 64 b1 0b 08
        E 64 81 1f 00
        E 48 b1 0b 33
        E 0 91 1c 33
        E 16 b1 0b 2a
        E 32 b1 0b 22
        E 32 b1 0b 19
        E 16 b1 0b 11
        E 32 b1 0b 08
        E 32 81 1c 00
        E 112 b1 0b 33
        E 0 91 1c 33
        E 16 b1 0b 2a
        E 32 b1 0b 22
        E 32 b1 0b 19
        E 32 b1 0b 11
        E 32 b1 0b 08
        E 16 81 1c 00
        E 112 b1 0b 33
        E 0 91 1c 33
        E 16 b1 0b 2a
        E 32 b1 0b 22
        E 32 b1 0b 19
        E 32 b1 0b 11
        E 16 b1 0b 33
        E 0 81 1c 00
        E 0 91 1a 33
        E 48 b1 0b 2a
        E 48 b1 0b 22
        E 64 b1 0b 19
        E 64 b1 0b 11
        E 48 b1 0b 33
        E 0 81 1a 00
        E 0 91 1c 33
        E 16 b1 0b 2a
        E 32 b1 0b 22
        E 32 b1 0b 19
        E 32 b1 0b 11
        E 32 b1 0b 08
        E 16 81 1c 00
        E 112 b1 0b 33
        E 0 91 1c 33
        E 16 b1 0b 2a
        E 32 b1 0b 22
        E 32 b1 0b 19
        E 32 b1 0b 11
        E 16 b1 0b 33
        E 16 b1 0b 2a
        E 32 b1 0b 22
        E 32 b1 0b 19
        E 16 b1 0b 11
        E 32 b1 0b 08
        E 32 81 1c 00
        E 112 b1 0b 33
        E 0 91 1c 33
        E 16 b1 0b 2a
        E 32 b1 0b 22
        E 32 b1 0b 19
        E 32 b1 0b 11
        E 16 b1 0b 33
        E 0 81 1c 00
        E 0 91 1f 33
        E 48 b1 0b 2a
        E 48 b1 0b 22
        E 64 b1 0b 19
        E 64 b1 0b 11
        E 64 b1 0b 08
        E 64 81 1f 00
        E 64 b1 0b 33
        E 0 91 1c 33
        E 16 b1 0b 2a
        E 32 b1 0b 22
        E 32 b1 0b 19
        E 32 b1 0b 11
        E 32 b1 0b 08
        E 32 81 1c 00
        E 80 b1 0b 33
        E 0 91 1c 33
        E 16 b1 0b 2a
        E 32 b1 0b 22
        E 16 b1 0b 19
        E 32 b1 0b 11
        E 32 b1 0b 08
        E 32 81 1c 00
        E 112 b1 0b 33
        E 0 91 1c 33
        E 16 b1 0b 2a
        E 32 b1 0b 22
        E 32 b1 0b 19
        E 32 b1 0b 11
        E 16 b1 0b 08
        E 16 b1 0b 33
        E 0 81 1c 00
        E 0 91 1a 33
        E 48 b1 0b 2a
        E 64 b1 0b 22
        E 64 b1 0b 19
        E 64 b1 0b 11
        E 16 b1 0b 33
        E 0 81 1a 00
        E 0 91 1c 33
        E 16 b1 0b 2a
        E 32 b1 0b 22
        E 16 b1 0b 19
        E 32 b1 0b 11
        E 32 b1 0b 08
        E 32 81 1c 00
        E 112 b1 0b 33
        E 0 91 1c 33
        E 16 b1 0b 2a
        E 32 b1 0b 22
        E 32 b1 0b 19
        E 32 b1 0b 11
        E 16 b1 0b 08
        E 16 b1 0b 33
        E 16 b1 0b 2a
        E 32 b1 0b 22
        E 32 b1 0b 19
        E 32 b1 0b 11
        E 32 b1 0b 08
        E 32 81 1c 00
        E 80 b1 0b 33
        E 0 91 1c 33
        E 16 b1 0b 2a
        E 32 b1 0b 22
        E 32 b1 0b 19
        E 16 b1 0b 11
        E 32 b1 0b 08
        E 16 b1 0b 33
        E 0 81 1c 00
        E 0 91 1f 33
        E 48 b1 0b 2a
        E 64 b1 0b 22
        E 64 b1 0b 19
        E 64 b1 0b 11
        E 48 b1 0b 08
        E 64 81 1f 00
        E 48 b1 0c 40
        E 0 b1 0b 3b
        E 0 91 23 3b
        E 16 b1 0b 33
        E 32 b1 0b 2a
        E 32 b1 0b 22
        E 32 b1 0b 19
        E 16 b1 0b 22
        E 16 b1 0b 19
        E 32 b1 0b 11
        E 32 b1 0b 08
        E 16 81 23 00
        E 48 b1 0b 11
        E 0 91 23 11
        E 48 b1 0b 08
        E 64 81 23 00
        E 16 91 23 08
        E 80 81 23 00
        E 48 b1 0b 3b
        E 0 91 23 3b
        E 16 b1 0b 33
        E 16 b1 0b 2a
        E 32 b1 0b 22
        E 32 b1 0b 19
        E 32 b1 0b 11
        E 16 b1 0b 3b
        E 0 81 23 00
        E 0 91 21 3b
        E 16 b1 0b 33
        E 32 b1 0b 2a
        E 32 b1 0b 22
        E 32 b1 0b 19
        E 16 b1 0b 22
        E 16 b1 0b 19
        E 32 b1 0b 11
        E 32 b1 0b 08
        E 16 81 21 00
        E 48 b1 0b 11
        E 0 91 21 11
        E 48 b1 0b 08
        E 64 81 21 00
        E 16 b1 0b 5d
        E 0 91 23 5d
        E 16 b1 0b 55
        E 32 b1 0b 4c
        E 32 b1 0b 44
        E 32 b1 0b 3b
        E 32 b1 0b 33
        E 16 b1 0b 2a
        E 32 b1 0b 22
        E 32 b1 0b 19
        E 32 b1 0b 11
        E 16 81 23 00
        E 0 91 2d 11
        E 144 b1 0b 19
        E 144 b1 0b 22
        E 160 b1 0b 2a
        E 32 81 2d 00
        E 0 91 2e 2a
        E 112 b1 0b 33
        E 160 b1 0b 3b
        E 48 b1 0c 60
        E 0 b1 0b 33
        E 0 81 2e 00
        E 0 91 21 33
        E 128 b1 0b 3b
        E 16 b1 0b 33
        E 0 81 21 00
        E 0 91 34 33
        E 16 b1 0b 2a
        E 32 b1 0b 22
        E 32 b1 0b 19
        E 32 b1 0b 11
        E 16 b1 0b 33
        E 16 b1 0b 2a
        E 32 b1 0b 22
        E 32 b1 0b 19
        E 32 b1 0b 11
        E 16 b1 0b 33
        E 0 81 34 00
        E 0 91 21 33
        E 16 b1 0b 2a
        E 32 b1 0b 22
        E 16 b1 0b 19
        E 32 b1 0b 11
        E 32 b1 0b 08
        E 16 b1 0b 33
        E 0 81 21 00
        E 0 91 30 33
        E 16 b1 0b 2a
        E 32 b1 0b 22
        E 32 b1 0b 19
        E 32 b1 0b 11
        E 16 b1 0b 33
        E 0 81 30 00
        E 0 91 21 33
        E 16 b1 0b 2a
        E 32 b1 0b 22
        E 32 b1 0b 19
        E 32 b1 0b 11
        E 16 b1 0b 08
        E 16 b1 0b 33
        E 0 81 21 00
        E 0 91 30 33
        E 16 b1 0b 2a
        E 32 b1 0b 22
        E 32 b1 0b 19
        E 32 b1 0b 11
        E 16 b1 0b 33
        E 16 b1 0b 2a
        E 32 b1 0b 22
        E 32 b1 0b 19
        E 32 b1 0b 11
        E 16 b1 0b 33
        E 0 81 30 00
        E 0 91 21 33
        E 16 b1 0b 2a
        E 32 b1 0b 22
        E 16 b1 0b 19
        E 32 b1 0b 11
        E 32 b1 0b 08
        E 16 b1 0b 33
        E 0 81 21 00
        E 0 91 34 33
        E 16 b1 0b 2a
        E 32 b1 0b 22
        E 32 b1 0b 19
        E 32 b1 0b 11
        E 16 b1 0b 33
        E 16 b1 0b 2a
        E 32 b1 0b 22
        E 32 b1 0b 19
        E 32 b1 0b 11
        E 16 b1 0b 33
        E 0 81 34 00
        E 0 91 21 33
        E 16 b1 0b 2a
        E 16 b1 0b 22
        E 32 b1 0b 19
        E 32 b1 0b 11
        E 32 b1 0b 08
        E 16 b1 0b 33
        E 0 81 21 00
        E 0 91 30 33
        E 16 b1 0b 2a
        E 32 b1 0b 22
        E 32 b1 0b 19
        E 32 b1 0b 11
        E 16 b1 0b 33
        E 0 81 30 00
        E 0 91 21 33
        E 16 b1 0b 2a
        E 32 b1 0b 22
        E 32 b1 0b 19
        E 16 b1 0b 11
        E 32 b1 0b 08
        E 16 b1 0b 33
        E 0 81 21 00
        E 0 91 30 33
        E 16 b1 0b 2a
        E 32 b1 0b 22
        E 32 b1 0b 19
        E 32 b1 0b 11
        E 16 b1 0b 33
        E 16 b1 0b 2a
        E 32 b1 0b 22
        E 32 b1 0b 19
        E 32 b1 0b 11
        E 16 b1 0c 20
        E 0 b1 0b 3b
        E 0 81 30 00
        E 0 91 1c 3b
        E 16 b1 0b 33
        E 16 b1 0b 2a
        E 32 b1 0b 22
        E 32 b1 0b 19
        E 32 b1 0b 11
        E 32 b1 0b 08
        E 32 81 1c 00
        E 80 b1 0b 3b
        E 0 91 1c 3b
        E 16 b1 0b 33
        E 32 b1 0b 2a
        E 32 b1 0b 22
        E 16 b1 0b 19
        E 32 b1 0b 11
        E 32 b1 0b 08
        E 32 81 1c 00
        E 80 b1 0b 3b
        E 0 91 1c 3b
        E 16 b1 0b 33
        E 32 b1 0b 2a
        E 32 b1 0b 22
        E 32 b1 0b 19
        E 16 b1 0b 3b
        E 0 81 1c 00
        E 0 91 1a 3b
        E 32 b1 0b 33
        E 64 b1 0b 2a
        E 64 b1 0b 22
        E 64 b1 0b 19
        E 48 b1 0b 3b
        E 0 81 1a 00
        E 0 91 1c 3b
        E 16 b1 0b 33
        E 32 b1 0b 2a
        E 32 b1 0b 22
        E 16 b1 0b 19
        E 32 b1 0b 11
        E 32 b1 0b 08
        E 32 81 1c 00
        E 80 b1 0b 3b
        E 0 91 1c 3b
        E 16 b1 0b 33
        E 32 b1 0b 2a
        E 32 b1 0b 22
        E 32 b1 0b 19
        E 16 b1 0b 3b
        E 16 b1 0b 33
        E 32 b1 0b 2a
        E 16 b1 0b 22
        E 32 b1 0b 19
        E 32 b1 0b 11
        E 32 b1 0b 08
        E 32 81 1c 00
        E 80 b1 0b 3b
        E 0 91 1c 3b
        E 16 b1 0b 33
        E 32 b1 0b 2a
        E 32 b1 0b 22
        E 32 b1 0b 19
        E 16 b1 0b 11
        E 16 b1 0b 3b
        E 0 81 1c 00
        E 0 91 1f 3b
        E 48 b1 0b 33
        E 64 b1 0b 2a
        E 64 b1 0b 22
        E 64 b1 0b 19
        E 64 b1 0b 11
        E 48 b1 0b 08
        E 48 b1 0b 3b
        E 0 81 1f 00
        E 0 91 1c 3b
        E 16 b1 0b 33
        E 32 b1 0b 2a
        E 32 b1 0b 22
        E 32 b1 0b 19
        E 32 b1 0b 11
        E 32 b1 0b 08
        E 32 81 1c 00
        E 64 b1 0b 3b
        E 0 91 1c 3b
        E 16 b1 0b 33
        E 32 b1 0b 2a
        E 32 b1 0b 22
        E 32 b1 0b 19
        E 32 b1 0b 11
        E 32 b1 0b 08
        E 32 81 1c 00
        E 48 b1 0b 3b
        E 0 91 1c 3b
        E 16 b1 0b 33
        E 32 b1 0b 2a
        E 16 b1 0b 22
        E 32 b1 0b 19
        E 32 b1 0b 11
        E 16 b1 0b 3b
        E 0 81 1c 00
        E 0 91 1a 3b
        E 48 b1 0b 33
        E 64 b1 0b 2a
        E 64 b1 0b 22
        E 64 b1 0b 19
        E 32 b1 0b 3b
        E 0 81 1a 00
        E 0 91 1c 3b
        E 16 b1 0b 33
        E 32 b1 0b 2a
        E 32 b1 0b 22
        E 32 b1 0b 19
        E 32 b1 0b 11
        E 32 b1 0b 08
        E 32 81 1c 00
        E 48 b1 0b 3b
        E 0 91 1c 3b
        E 16 b1 0b 33
        E 32 b1 0b 2a
        E 32 b1 0b 22
        E 16 b1 0b 19
        E 32 b1 0b 11
        E 16 b1 0b 3b
        E 16 b1 0b 33
        E 32 b1 0b 2a
        E 32 b1 0b 22
        E 32 b1 0b 19
        E 32 b1 0b 11
        E 32 b1 0b 08
        E 32 81 1c 00
        E 48 b1 0b 3b
        E 0 91 1c 3b
        E 16 b1 0b 33
        E 16 b1 0b 2a
        E 32 b1 0b 22
        E 32 b1 0b 19
        E 32 b1 0b 11
        E 16 b1 0b 3b
        E 0 81 1c 00
        E 0 91 1f 3b
        E 48 b1 0b 33
        E 64 b1 0b 2a
        E 64 b1 0b 22
        E 48 b1 0b 19
        E 64 b1 0b 11
        E 64 b1 0b 08
        E 48 b1 0c 60
        E 0 b1 0b 33
        E 0 81 1f 00
        E 0 91 21 33
        E 16 b1 0b 2a
        E 64 b1 0b 22
        E 48 b1 0b 33
        E 0 81 21 00
        E 0 91 34 33
        E 16 b1 0b 2a
        E 16 b1 0b 22
        E 32 b1 0b 19
        E 32 b1 0b 11
        E 32 b1 0b 08
        E 16 b1 0b 33
        E 16 b1 0b 2a
        E 32 b1 0b 22
        E 32 b1 0b 19
        E 32 b1 0b 11
        E 16 b1 0b 33
        E 0 81 34 00
        E 0 91 21 33
        E 16 b1 0b 2a
        E 32 b1 0b 22
        E 32 b1 0b 19
        E 16 b1 0b 11
        E 32 b1 0b 08
        E 16 b1 0b 33
        E 0 81 21 00
        E 0 91 30 33
        E 16 b1 0b 2a
        E 32 b1 0b 22
        E 32 b1 0b 19
        E 32 b1 0b 11
        E 16 b1 0b 33
        E 0 81 30 00
        E 0 91 21 33
        E 16 b1 0b 2a
        E 32 b1 0b 22
        E 32 b1 0b 19
        E 32 b1 0b 11
        E 16 b1 0b 33
        E 0 81 21 00
        E 0 91 30 33
        E 16 b1 0b 2a
        E 16 b1 0b 22
        E 32 b1 0b 19
        E 32 b1 0b 11
        E 32 b1 0b 08
        E 16 b1 0b 33
        E 16 b1 0b 2a
        E 32 b1 0b 22
        E 32 b1 0b 19
        E 32 b1 0b 11
        E 16 b1 0b 33
        E 0 81 30 00
        E 0 91 21 33
        E 16 b1 0b 2a
        E 32 b1 0b 22
        E 32 b1 0b 19
        E 32 b1 0b 11
        E 16 b1 0b 08
        E 16 b1 0b 33
        E 0 81 21 00
        E 0 91 34 33
        E 16 b1 0b 2a
        E 32 b1 0b 22
        E 32 b1 0b 19
        E 32 b1 0b 11
        E 16 b1 0b 33
        E 16 b1 0b 2a
        E 32 b1 0b 22
        E 32 b1 0b 19
        E 32 b1 0b 11
        E 16 b1 0b 33
        E 0 81 34 00
        E 0 91 21 33
        E 16 b1 0b 2a
        E 32 b1 0b 22
        E 16 b1 0b 19
        E 32 b1 0b 11
        E 32 b1 0b 08
        E 16 b1 0b 33
        E 0 81 21 00
        E 0 91 30 33
        E 16 b1 0b 2a
        E 32 b1 0b 22
        E 32 b1 0b 19
        E 32 b1 0b 11
        E 16 b1 0b 33
        E 0 81 30 00
        E 0 91 21 33
        E 16 b1 0b 2a
        E 32 b1 0b 22
        E 32 b1 0b 19
        E 32 b1 0b 11
        E 16 b1 0b 08
        E 16 b1 0b 33
        E 0 81 21 00
        E 0 91 30 33
        E 16 b1 0b 2a
        E 32 b1 0b 22
        E 32 b1 0b 19
        E 32 b1 0b 11
        E 16 b1 0b 33
        E 16 b1 0b 2a
        E 32 b1 0b 22
        E 32 b1 0b 19
        E 32 b1 0b 11
        E 16 b1 0c 10
        E 0 b1 0b 3b
        E 0 81 30 00
        E 0 91 23 3b
        E 16 b1 0b 33
        E 32 b1 0b 2a
        E 16 b1 0b 22
        E 32 b1 0b 19
        E 32 b1 0b 11
        E 16 b1 0b 22
        E 128 b1 0b 3b
        E 0 81 23 00
        E 0 91 33 3b
        E 160 b1 0b 33
        E 32 b1 0b 2a
        E 32 b1 0b 22
        E 32 b1 0b 19
        E 16 b1 0b 22
        E 128 b1 0b 3b
        E 0 81 33 00
        E 0 91 36 3b
        E 16 b1 0b 33
        E 32 b1 0b 2a
        E 16 b1 0b 22
        E 32 b1 0b 19
        E 32 b1 0b 11
        E 16 b1 0b 22
        E 16 b1 0b 19
        E 32 b1 0b 11
        E 32 b1 0b 08
        E 32 81 36 00
        E 16 b1 0b 3b
        E 0 91 36 3b
        E 16 b1 0b 33
        E 32 b1 0b 2a
        E 32 b1 0b 22
        E 32 b1 0b 19
        E 16 b1 0b 22
        E 16 b1 0b 19
        E 16 b1 0b 11
        E 32 b1 0b 08
        E 32 81 36 00
        E 48 b1 0b 11
        E 0 91 36 11
        E 128 b1 0b 3b
        E 272 b1 0b 22
        E 128 b1 0b 3b
        E 144 b1 0b 22
        E 128 b1 0b 11
        E 144 b1 0c 20
        E 0 b1 0b 33
        E 0 81 36 00
        E 0 91 1c 33
        E 16 b1 0b 2a
        E 32 b1 0b 22
        E 32 b1 0b 19
        E 32 b1 0b 11
        E 32 b1 0b 08
        E 32 81 1c 00
        E 80 b1 0b 33
        E 0 91 1c 33
        E 16 b1 0b 2a
        E 16 b1 0b 22
        E 32 b1 0b 19
        E 32 b1 0b 11
        E 32 b1 0b 08
        E 32 81 1c 00
        E 112 b1 0b 33
        E 0 91 1c 33
        E 16 b1 0b 2a
        E 32 b1 0b 22
        E 32 b1 0b 19
        E 16 b1 0b 11
        E 32 b1 0b 08
        E 16 b1 0b 33
        E 0 81 1c 00
        E 0 91 1a 33
        E 48 b1 0b 2a
        E 64 b1 0b 22
        E 64 b1 0b 19
        E 64 b1 0b 11
        E 16 b1 0b 33
        E 0 81 1a 00
        E 0 91 1c 33
        E 16 b1 0b 2a
        E 32 b1 0b 22
        E 16 b1 0b 19
        E 32 b1 0b 11
        E 32 b1 0b 08
        E 32 81 1c 00
        E 112 b1 0b 33
        E 0 91 1c 33
        E 16 b1 0b 2a
        E 32 b1 0b 22
        E 32 b1 0b 19
        E 32 b1 0b 11
        E 16 b1 0b 08
        E 16 b1 0b 33
        E 16 b1 0b 2a
        E 32 b1 0b 22
        E 32 b1 0b 19
        E 32 b1 0b 11
        E 32 b1 0b 08
        E 32 81 1c 00
        E 80 b1 0b 33
        E 0 91 1c 33
        E 16 b1 0b 2a
        E 32 b1 0b 22
        E 16 b1 0b 19
        E 32 b1 0b 11
        E 32 b1 0b 08
        E 16 b1 0b 33
        E 0 81 1c 00
        E 0 91 1f 33
        E 48 b1 0b 2a
        E 64 b1 0b 22
        E 64 b1 0b 19
        E 64 b1 0b 11
        E 48 b1 0b 08
        E 64 81 1f 00
        E 48 b1 0b 33
        E 0 91 1c 33
        E 16 b1 0b 2a
        E 32 b1 0b 22
        E 32 b1 0b 19
        E 32 b1 0b 11
        E 32 b1 0b 08
        E 32 81 1c 00
        E 96 b1 0b 33
        E 0 91 1c 33
        E 16 b1 0b 2a
        E 32 b1 0b 22
        E 32 b1 0b 19
        E 32 b1 0b 11
        E 32 b1 0b 08
        E 32 81 1c 00
        E 96 b1 0b 33
        E 0 91 1c 33
        E 16 b1 0b 2a
        E 32 b1 0b 22
        E 32 b1 0b 19
        E 32 b1 0b 11
        E 16 b1 0b 33
        E 0 81 1c 00
        E 0 91 1a 33
        E 48 b1 0b 2a
        E 64 b1 0b 22
        E 64 b1 0b 19
        E 48 b1 0b 11
        E 48 b1 0b 33
        E 0 81 1a 00
        E 0 91 1c 33
        E 16 b1 0b 2a
        E 32 b1 0b 22
        E 32 b1 0b 19
        E 32 b1 0b 11
        E 32 b1 0b 08
        E 32 81 1c 00
        E 80 b1 0b 33
        E 0 91 1c 33
        E 16 b1 0b 2a
        E 16 b1 0b 22
        E 32 b1 0b 19
        E 32 b1 0b 11
        E 32 b1 0b 08
        E 16 b1 0b 33
        E 16 b1 0b 2a
        E 32 b1 0b 22
        E 32 b1 0b 19
        E 32 b1 0b 11
        E 32 b1 0b 08
        E 32 81 1c 00
        E 96 b1 0b 33
        E 0 91 1c 33
        E 16 b1 0b 2a
        E 32 b1 0b 22
        E 32 b1 0b 19
        E 32 b1 0b 11
        E 16 b1 0b 33
        E 0 81 1c 00
        E 0 91 1f 33
        E 48 b1 0b 2a
        E 64 b1 0b 22
        E 48 b1 0b 19
        E 64 b1 0b 11
        E 64 b1 0b 08
        E 64 81 1f 00
        E 48 b1 0b 33
        E 0 91 1c 33
        E 16 b1 0b 2a
        E 32 b1 0b 22
        E 32 b1 0b 19
        E 16 b1 0b 11
        E 32 b1 0b 08
        E 32 81 1c 00
        E 112 b1 0b 33
        E 0 91 1c 33
        E 16 b1 0b 2a
        E 32 b1 0b 22
        E 32 b1 0b 19
        E 32 b1 0b 11
        E 32 b1 0b 08
        E 16 81 1c 00
        E 112 b1 0b 33
        E 0 91 1c 33
        E 16 b1 0b 2a
        E 32 b1 0b 22
        E 32 b1 0b 19
        E 32 b1 0b 11
        E 16 b1 0b 33
        E 0 81 1c 00
        E 0 91 1a 33
        E 48 b1 0b 2a
        E 64 b1 0b 22
        E 48 b1 0b 19
        E 64 b1 0b 11
        E 48 b1 0b 33
        E 0 81 1a 00
        E 0 91 1c 33
        E 16 b1 0b 2a
        E 32 b1 0b 22
        E 32 b1 0b 19
        E 32 b1 0b 11
        E 32 b1 0b 08
        E 32 81 1c 00
        E 96 b1 0b 33
        E 0 91 1c 33
        E 16 b1 0b 2a
        E 32 b1 0b 22
        E 32 b1 0b 19
        E 32 b1 0b 11
        E 16 b1 0b 33
        E 16 b1 0b 2a
        E 32 b1 0b 22
        E 32 b1 0b 19
        E 32 b1 0b 11
        E 16 b1 0b 08
        E 32 81 1c 00
        E 112 b1 0b 33
        E 0 91 1c 33
        E 16 b1 0b 2a
        E 32 b1 0b 22
        E 32 b1 0b 19
        E 32 b1 0b 11
        E 16 b1 0b 33
        E 0 81 1c 00
        E 0 91 1f 33
        E 48 b1 0b 2a
        E 48 b1 0b 22
        E 64 b1 0b 19
        E 64 b1 0b 11
        E 64 b1 0b 08
        E 64 81 1f 00
        E 64 b1 0b 33
        E 0 91 1c 33
        E 16 b1 0b 2a
        E 32 b1 0b 22
        E 32 b1 0b 19
        E 32 b1 0b 11
        E 32 b1 0b 08
        E 32 81 1c 00
        E 80 b1 0b 33
        E 0 91 1c 33
        E 16 b1 0b 2a
        E 32 b1 0b 22
        E 16 b1 0b 19
        E 32 b1 0b 11
        E 32 b1 0b 08
        E 32 81 1c 00
        E 112 b1 0b 33
        E 0 91 1c 33
        E 16 b1 0b 2a
        E 32 b1 0b 22
        E 32 b1 0b 19
        E 32 b1 0b 11
        E 16 b1 0b 33
        E 0 81 1c 00
        E 0 91 1a 33
        E 32 b1 0b 2a
        E 64 b1 0b 22
        E 64 b1 0b 19
        E 64 b1 0b 11
        E 48 b1 0b 33
        E 0 81 1a 00
        E 0 91 1c 33
        E 16 b1 0b 2a
        E 32 b1 0b 22
        E 32 b1 0b 19
        E 16 b1 0b 11
        E 32 b1 0b 08
        E 32 81 1c 00
        E 112 b1 0b 33
        E 0 91 1c 33
        E 16 b1 0b 2a
        E 32 b1 0b 22
        E 32 b1 0b 19
        E 32 b1 0b 11
        E 16 b1 0b 33
        E 16 b1 0b 2a
        E 16 b1 0b 22
        E 32 b1 0b 19
        E 32 b1 0b 11
        E 32 b1 0b 08
        E 32 81 1c 00
        E 112 b1 0b 33
        E 0 91 1c 33
        E 16 b1 0b 2a
        E 32 b1 0b 22
        E 32 b1 0b 19
        E 16 b1 0b 11
        E 32 b1 0b 08
        E 16 b1 0b 33
        E 0 81 1c 00
        E 0 91 1f 33
        E 48 b1 0b 2a
        E 64 b1 0b 22
        E 64 b1 0b 19
        E 64 b1 0b 11
        E 48 b1 0b 08
        E 64 81 1f 00
        E 48 b1 0b 33
        E 0 91 1c 33
        E 16 b1 0b 2a
        E 32 b1 0b 22
        E 32 b1 0b 19
        E 32 b1 0b 11
        E 32 b1 0b 08
        E 32 81 1c 00
        E 96 b1 0b 33
        E 0 91 1c 33
        E 16 b1 0b 2a
        E 32 b1 0b 22
        E 32 b1 0b 19
        E 32 b1 0b 11
        E 32 b1 0b 08
        E 32 81 1c 00
        E 80 b1 0b 33
        E 0 91 1c 33
        E 16 b1 0b 2a
        E 32 b1 0b 22
        E 16 b1 0b 19
        E 32 b1 0b 11
        E 32 b1 0b 08
        E 16 b1 0b 33
        E 0 81 1c 00
        E 0 91 1a 33
        E 48 b1 0b 2a
        E 64 b1 0b 22
        E 64 b1 0b 19
        E 64 b1 0b 11
        E 32 b1 0b 33
        E 0 81 1a 00
        E 0 91 1c 33
        E 16 b1 0b 2a
        E 32 b1 0b 22
        E 32 b1 0b 19
        E 32 b1 0b 11
        E 32 b1 0b 08
        E 32 81 1c 00
        E 80 b1 0b 33
        E 0 91 1c 33
        E 16 b1 0b 2a
        E 32 b1 0b 22
        E 16 b1 0b 19
        E 32 b1 0b 11
        E 32 b1 0b 08
        E 16 b1 0b 33
        E 16 b1 0b 2a
        E 32 b1 0b 22
        E 32 b1 0b 19
        E 32 b1 0b 11
        E 32 b1 0b 08
        E 32 81 1c 00
        E 96 b1 0b 33
        E 0 91 1c 33
        E 16 b1 0b 2a
        E 32 b1 0b 22
        E 32 b1 0b 19
        E 32 b1 0b 11
        E 16 b1 0b 33
        E 0 81 1c 00
        E 0 91 1f 33
        E 48 b1 0b 2a
        E 64 b1 0b 22
        E 64 b1 0b 19
        E 48 b1 0b 11
        E 64 b1 0b 08
        E 64 81 1f 00
        E 48 b1 0b 33
        E 0 91 1c 33
        E 16 b1 0b 2a
        E 32 b1 0b 22
        E 32 b1 0b 19
        E 32 b1 0b 11
        E 16 b1 0b 08
        E 32 81 1c 00
        E 112 b1 0b 33
        E 0 91 1c 33
        E 16 b1 0b 2a
        E 32 b1 0b 22
        E 32 b1 0b 19
        E 32 b1 0b 11
        E 32 b1 0b 08
        E 32 81 1c 00
        E 96 b1 0b 33
        E 0 91 1c 33
        E 16 b1 0b 2a
        E 32 b1 0b 22
        E 32 b1 0b 19
        E 32 b1 0b 11
        E 16 b1 0b 33
        E 0 81 1c 00
        E 0 91 1a 33
        E 48 b1 0b 2a
        E 64 b1 0b 22
        E 48 b1 0b 19
        E 64 b1 0b 11
        E 48 b1 0b 33
        E 0 81 1a 00
        E 0 91 1c 33
        E 16 b1 0b 2a
        E 32 b1 0b 22
        E 32 b1 0b 19
        E 32 b1 0b 11
        E 32 b1 0b 08
        E 32 81 1c 00
        E 96 b1 0b 33
        E 0 91 1c 33
        E 16 b1 0b 2a
        E 32 b1 0b 22
        E 32 b1 0b 19
        E 32 b1 0b 11
        E 16 b1 0b 33
        E 16 b1 0b 2a
        E 32 b1 0b 22
        E 32 b1 0b 19
        E 32 b1 0b 11
        E 32 b1 0b 08
        E 16 81 1c 00
        E 112 b1 0b 33
        E 0 91 1c 33
        E 16 b1 0b 2a
        E 32 b1 0b 22
        E 32 b1 0b 19
        E 32 b1 0b 11
        E 16 b1 0b 33
        E 0 81 1c 00
        E 0 91 1f 33
        E 48 b1 0b 2a
        E 48 b1 0b 22
        E 64 b1 0b 19
        E 64 b1 0b 11
        E 64 b1 0b 08
        E 64 81 1f 00
        E 48 b1 0b 33
        E 0 91 1c 33
        E 16 b1 0b 2a
        E 16 b1 0b 22
        E 32 b1 0b 19
        E 32 b1 0b 11
        E 32 b1 0b 08
        E 32 81 1c 00
        E 112 b1 0b 33
        E 0 91 1c 33
        E 16 b1 0b 2a
        E 32 b1 0b 22
        E 32 b1 0b 19
        E 32 b1 0b 11
        E 16 b1 0b 08
        E 32 81 1c 00
        E 112 b1 0b 33
        E 0 91 1c 33
        E 16 b1 0b 2a
        E 32 b1 0b 22
        E 32 b1 0b 19
        E 32 b1 0b 11
        E 16 b1 0b 33
        E 0 81 1c 00
        E 0 91 1a 33
        E 48 b1 0b 2a
        E 48 b1 0b 22
        E 64 b1 0b 19
        E 64 b1 0b 11
        E 48 b1 0b 33
        E 0 81 1a 00
        E 0 91 1c 33
        E 16 b1 0b 2a
        E 32 b1 0b 22
        E 32 b1 0b 19
        E 32 b1 0b 11
        E 16 b1 0b 08
        E 32 81 1c 00
        E 112 b1 0b 33
        E 0 91 1c 33
        E 16 b1 0b 2a
        E 32 b1 0b 22
        E 32 b1 0b 19
        E 32 b1 0b 11
        E 16 b1 0b 33
        E 16 b1 0b 2a
        E 32 b1 0b 22
        E 16 b1 0b 19
        E 32 b1 0b 11
        E 32 b1 0b 08
        E 32 81 1c 00
        E 112 b1 0b 33
        E 0 91 1c 33
        E 16 b1 0b 2a
        E 32 b1 0b 22
        E 32 b1 0b 19
        E 32 b1 0b 11
        E 16 b1 0b 08
        E 16 b1 0b 33
        E 0 81 1c 00
        E 0 91 1f 33
        E 48 b1 0b 2a
        E 64 b1 0b 22
        E 64 b1 0b 19
        E 64 b1 0b 11
        E 64 b1 0b 08
        E 48 81 1f 00
        E 48 b1 0b 33
        E 0 91 1c 33
        E 16 b1 0b 2a
        E 32 b1 0b 22
        E 32 b1 0b 19
        E 32 b1 0b 11
        E 32 b1 0b 08
        E 32 81 1c 00
        E 80 b1 0b 33
        E 0 91 1c 33
        E 16 b1 0b 2a
        E 16 b1 0b 22
        E 32 b1 0b 19
        E 32 b1 0b 11
        E 32 b1 0b 08
        E 32 81 1c 00
        E 112 b1 0b 33
        E 0 91 1c 33
        E 16 b1 0b 2a
        E 32 b1 0b 22
        E 32 b1 0b 19
        E 16 b1 0b 11
        E 32 b1 0b 08
        E 16 b1 0b 33
        E 0 81 1c 00
        E 0 91 1a 33
        E 48 b1 0b 2a
        E 64 b1 0b 22
        E 64 b1 0b 19
        E 64 b1 0b 11
        E 16 b1 0b 33
        E 0 81 1a 00
        E 0 91 1c 33
        E 16 b1 0b 2a
        E 16 b1 0b 22
        E 32 b1 0b 19
        E 32 b1 0b 11
        E 32 b1 0b 08
        E 32 81 1c 00
        E 112 b1 0b 33
        E 0 91 1c 33
        E 16 b1 0b 2a
        E 32 b1 0b 22
        E 32 b1 0b 19
        E 16 b1 0b 11
        E 32 b1 0b 08
        E 16 b1 0b 33
        E 16 b1 0b 2a
        E 32 b1 0b 22
        E 32 b1 0b 19
        E 32 b1 0b 11
        E 32 b1 0b 08
        E 32 81 1c 00
        E 80 b1 0b 33
        E 0 91 1c 33
        E 16 b1 0b 2a
        E 16 b1 0b 22
        E 32 b1 0b 19
        E 32 b1 0b 11
        E 32 b1 0b 08
        E 16 b1 0b 33
        E 0 81 1c 00
        E 0 91 1f 33
        E 48 b1 0b 2a
        E 64 b1 0b 22
        E 64 b1 0b 19
        E 48 b1 0b 11
        E 64 b1 0b 08
        E 64 81 1f 00
        E 48 b1 0b 33
        E 0 91 23 33
        E 16 b1 0b 2a
        E 32 b1 0b 22
        E 32 b1 0b 19
        E 32 b1 0b 11
        E 32 b1 0b 08
        E 32 81 23 00
        E 96 b1 0b 33
        E 0 91 23 33
        E 16 b1 0b 2a
        E 32 b1 0b 22
        E 32 b1 0b 19
        E 32 b1 0b 11
        E 32 b1 0b 08
        E 32 81 23 00
        E 96 b1 0b 33
        E 0 91 23 33
        E 16 b1 0b 2a
        E 32 b1 0b 22
        E 32 b1 0b 19
        E 32 b1 0b 11
        E 16 b1 0b 33
        E 0 81 23 00
        E 0 91 21 33
        E 48 b1 0b 2a
        E 64 b1 0b 22
        E 64 b1 0b 19
        E 48 b1 0b 11
        E 48 b1 0b 33
        E 0 81 21 00
        E 0 91 23 33
        E 16 b1 0b 2a
        E 32 b1 0b 22
        E 32 b1 0b 19
        E 32 b1 0b 11
        E 32 b1 0b 08
        E 32 81 23 00
        E 96 b1 0b 33
        E 0 91 23 33
        E 16 b1 0b 2a
        E 32 b1 0b 22
        E 32 b1 0b 19
        E 32 b1 0b 11
        E 16 b1 0b 33
        E 16 b1 0b 2a
        E 32 b1 0b 22
        E 32 b1 0b 19
        E 32 b1 0b 11
        E 32 b1 0b 08
        E 32 81 23 00
        E 96 b1 0b 33
        E 0 91 23 33
        E 16 b1 0b 2a
        E 32 b1 0b 22
        E 32 b1 0b 19
        E 32 b1 0b 11
        E 16 b1 0b 33
        E 0 81 23 00
        E 0 91 26 33
        E 48 b1 0b 2a
        E 64 b1 0b 22
        E 48 b1 0b 19
        E 64 b1 0b 11
        E 64 b1 0b 08
        E 64 81 26 00
        E 48 b1 0b 33
        E 0 91 23 33
        E 16 b1 0b 2a
        E 32 b1 0b 22
        E 32 b1 0b 19
        E 16 b1 0b 11
        E 32 b1 0b 08
        E 32 81 23 00
        E 112 b1 0b 33
        E 0 91 23 33
        E 16 b1 0b 2a
        E 32 b1 0b 22
        E 32 b1 0b 19
        E 32 b1 0b 11
        E 32 b1 0b 08
        E 16 81 23 00
        E 112 b1 0b 33
        E 0 91 23 33
        E 16 b1 0b 2a
        E 32 b1 0b 22
        E 32 b1 0b 19
        E 32 b1 0b 11
        E 16 b1 0b 33
        E 0 81 23 00
        E 0 91 21 33
        E 48 b1 0b 2a
        E 48 b1 0b 22
        E 64 b1 0b 19
        E 64 b1 0b 11
        E 48 b1 0b 33
        E 0 81 21 00
        E 0 91 23 33
        E 16 b1 0b 2a
        E 32 b1 0b 22
        E 32 b1 0b 19
        E 32 b1 0b 11
        E 32 b1 0b 08
        E 16 81 23 00
        E 112 b1 0b 33
        E 0 91 23 33
        E 16 b1 0b 2a
        E 32 b1 0b 22
        E 32 b1 0b 19
        E 32 b1 0b 11
        E 16 b1 0b 33
        E 16 b1 0b 2a
        E 32 b1 0b 22
        E 32 b1 0b 19
        E 16 b1 0b 11
        E 32 b1 0b 08
        E 32 81 23 00
        E 112 b1 0b 33
        E 0 91 23 33
        E 16 b1 0b 2a
        E 32 b1 0b 22
        E 32 b1 0b 19
        E 32 b1 0b 11
        E 16 b1 0b 33
        E 0 81 23 00
        E 0 91 26 33
        E 32 b1 0b 2a
        E 64 b1 0b 22
        E 64 b1 0b 19
        E 64 b1 0b 11
        E 64 b1 0b 08
        E 64 81 26 00
        E 64 b1 0b 33
        E 0 91 1c 33
        E 16 b1 0b 2a
        E 32 b1 0b 22
        E 32 b1 0b 19
        E 32 b1 0b 11
        E 32 b1 0b 08
        E 32 81 1c 00
        E 80 b1 0b 33
        E 0 91 1c 33
        E 16 b1 0b 2a
        E 32 b1 0b 22
        E 16 b1 0b 19
        E 32 b1 0b 11
        E 32 b1 0b 08
        E 32 81 1c 00
        E 112 b1 0b 33
        E 0 91 1c 33
        E 16 b1 0b 2a
        E 32 b1 0b 22
        E 32 b1 0b 19
        E 32 b1 0b 11
        E 16 b1 0b 08
        E 16 b1 0b 33
        E 0 81 1c 00
        E 0 91 1a 33
        E 48 b1 0b 2a
        E 64 b1 0b 22
        E 64 b1 0b 19
        E 64 b1 0b 11
        E 16 b1 0b 33
        E 0 81 1a 00
        E 0 91 1c 33
        E 16 b1 0b 2a
        E 32 b1 0b 22
        E 16 b1 0b 19
        E 32 b1 0b 11
        E 32 b1 0b 08
        E 32 81 1c 00
        E 112 b1 0b 33
        E 0 91 1c 33
        E 16 b1 0b 2a
        E 32 b1 0b 22
        E 32 b1 0b 19
        E 32 b1 0b 11
        E 16 b1 0b 08
        E 16 b1 0b 33
        E 16 b1 0b 2a
        E 32 b1 0b 22
        E 32 b1 0b 19
        E 32 b1 0b 11
        E 32 b1 0b 08
        E 32 81 1c 00
        E 80 b1 0b 33
        E 0 91 1c 33
        E 16 b1 0b 2a
        E 32 b1 0b 22
        E 16 b1 0b 19
        E 32 b1 0b 11
        E 32 b1 0b 08
        E 16 b1 0b 33
        E 0 81 1c 00
        E 0 91 1f 33
        E 48 b1 0b 2a
        E 64 b1 0b 22
        E 64 b1 0b 19
        E 64 b1 0b 11
        E 48 b1 0b 08
        E 64 81 1f 00
        E 48 b1 0b 33
        E 0 91 1c 33
        E 16 b1 0b 2a
        E 32 b1 0b 22
        E 32 b1 0b 19
        E 32 b1 0b 11
        E 32 b1 0b 08
        E 32 81 1c 00
        E 96 b1 0b 33
        E 0 91 1c 33
        E 16 b1 0b 2a
        E 32 b1 0b 22
        E 32 b1 0b 19
        E 32 b1 0b 11
        E 32 b1 0b 08
        E 32 81 1c 00
        E 80 b1 0b 33
        E 0 91 1c 33
        E 16 b1 0b 2a
        E 16 b1 0b 22
        E 32 b1 0b 19
        E 32 b1 0b 11
        E 32 b1 0b 08
        E 16 b1 0b 33
        E 0 81 1c 00
        E 0 91 1a 33
        E 48 b1 0b 2a
        E 64 b1 0b 22
        E 64 b1 0b 19
        E 48 b1 0b 11
        E 48 b1 0b 33
        E 0 81 1a 00
        E 0 91 1c 33
        E 16 b1 0b 2a
        E 32 b1 0b 22
        E 32 b1 0b 19
        E 32 b1 0b 11
        E 32 b1 0b 08
        E 32 81 1c 00
        E 80 b1 0b 33
        E 0 91 1c 33
        E 16 b1 0b 2a
        E 16 b1 0b 22
        E 32 b1 0b 19
        E 32 b1 0b 11
        E 32 b1 0b 08
        E 16 b1 0b 33
        E 16 b1 0b 2a
        E 32 b1 0b 22
        E 32 b1 0b 19
        E 32 b1 0b 11
        E 32 b1 0b 08
        E 32 81 1c 00
        E 96 b1 0b 33
        E 0 91 1c 33
        E 16 b1 0b 2a
        E 32 b1 0b 22
        E 32 b1 0b 19
        E 32 b1 0b 11
        E 16 b1 0b 33
        E 0 81 1c 00
        E 0 91 1f 33
        E 48 b1 0b 2a
        E 64 b1 0b 22
        E 64 b1 0b 19
        E 48 b1 0b 11
        E 64 b1 0b 08
        E 64 81 1f 00
        E 48 b1 0b 2a
        E 0 91 1f 2a
        E 224 b1 0b 22
        E 192 b1 0b 19
        E 1728 b1 0b 2a
        E 0 81 1f 00
        E 0 91 23 2a
        E 224 b1 0b 22
        E 176 b1 0b 19
        E 1760 b1 0c 40
        E 0 b1 0b 4c
        E 0 81 23 00
        E 0 91 1a 4c
        E 16 b1 0b 44
        E 32 b1 0b 3b
        E 32 b1 0b 33
        E 32 b1 0b 2a
        E 16 b1 0b 4c
        E 0 81 1a 00
        E 0 91 1c 4c
        E 16 b1 0b 44
        E 32 b1 0b 3b
        E 32 b1 0b 33
        E 32 b1 0b 2a
        E 16 b1 0b 22
        E 16 b1 0c 10
        E 0 b1 0b 3b
        E 0 81 1c 00
        E 0 91 33 3b
        E 16 b1 0b 33
        E 32 b1 0b 2a
        E 32 b1 0b 22
        E 32 b1 0b 19
        E 16 b1 0b 3b
        E 0 81 33 00
        E 0 91 34 3b
        E 16 b1 0b 33
        E 32 b1 0b 2a
        E 32 b1 0b 22
        E 32 b1 0b 19
        E 16 b1 0b 22
        E 144 b1 0b 3b
        E 16 b1 0b 33
        E 32 b1 0b 2a
        E 32 b1 0b 22
        E 32 b1 0b 19
        E 16 b1 0b 22
        E 16 b1 0b 19
        E 32 b1 0b 11
        E 32 b1 0b 08
        E 32 81 34 00
        E 32 b1 0b 3b
        E 0 91 34 3b
        E 16 b1 0b 33
        E 32 b1 0b 2a
        E 32 b1 0b 22
        E 32 b1 0b 19
        E 16 b1 0b 22
        E 16 b1 0b 19
        E 32 b1 0b 11
        E 32 b1 0b 08
        E 32 81 34 00
        E 16 b1 0b 11
        E 0 91 34 11
        E 144 b1 0b 3b
        E 256 b1 0b 22
        E 144 b1 0b 3b
        E 128 b1 0b 22
        E 144 b1 0c 40
        E 0 b1 0b 4c
        E 0 81 34 00
        E 0 91 1c 4c
        E 16 b1 0b 44
        E 32 b1 0b 3b
        E 32 b1 0b 33
        E 32 b1 0b 2a
        E 16 b1 0b 4c
        E 0 81 1c 00
        E 0 91 1a 4c
        E 16 b1 0b 44
        E 32 b1 0b 3b
        E 32 b1 0b 33
        E 32 b1 0b 2a
        E 16 b1 0b 4c
        E 0 81 1a 00
        E 0 91 1c 4c
        E 16 b1 0b 44
        E 16 b1 0b 3b
        E 32 b1 0b 33
        E 32 b1 0b 2a
        E 32 b1 0b 22
        E 16 b1 0c 10
        E 0 b1 0b 3b
        E 0 81 1c 00
        E 0 91 33 3b
        E 16 b1 0b 33
        E 32 b1 0b 2a
        E 32 b1 0b 22
        E 32 b1 0b 19
        E 16 b1 0b 3b
        E 0 81 33 00
        E 0 91 34 3b
        E 16 b1 0b 33
        E 32 b1 0b 2a
        E 32 b1 0b 22
        E 16 b1 0b 19
        E 32 b1 0b 11
        E 16 b1 0b 22
        E 128 b1 0b 3b
        E 16 b1 0b 33
        E 32 b1 0b 2a
        E 32 b1 0b 22
        E 32 b1 0b 19
        E 16 b1 0b 22
        E 16 b1 0b 19
        E 16 b1 0b 11
        E 32 b1 0b 08
        E 32 81 34 00
        E 48 b1 0b 3b
        E 0 91 34 3b
        E 16 b1 0b 33
        E 32 b1 0b 2a
        E 32 b1 0b 22
        E 32 b1 0b 19
        E 16 b1 0b 22
        E 16 b1 0b 19
        E 32 b1 0b 11
        E 32 b1 0b 08
        E 16 81 34 00
        E 48 b1 0b 11
        E 0 91 34 11
        E 128 b1 0b 3b
        E 272 b1 0b 22
        E 128 b1 0b 3b
        E 144 b1 0b 22
        E 128 b1 0c 40
        E 0 b1 0b 4c
        E 0 81 34 00
        E 0 91 1c 4c
        E 16 b1 0b 44
        E 32 b1 0b 3b
        E 32 b1 0b 33
        E 32 b1 0b 2a
        E 16 b1 0b 4c
        E 0 81 1c 00
        E 0 91 1a 4c
        E 16 b1 0b 44
        E 32 b1 0b 3b
        E 16 b1 0b 33
        E 32 b1 0b 2a
        E 32 b1 0b 22
        E 16 b1 0b 4c
        E 0 81 1a 00
        E 0 91 1c 4c
        E 16 b1 0b 44
        E 32 b1 0b 3b
        E 32 b1 0b 33
        E 32 b1 0b 2a
        E 16 b1 0c 10
        E 0 b1 0b 3b
        E 0 81 1c 00
        E 0 91 33 3b
        E 16 b1 0b 33
        E 32 b1 0b 2a
        E 32 b1 0b 22
        E 32 b1 0b 19
        E 16 b1 0b 11
        E 16 b1 0b 3b
        E 0 81 33 00
        E 0 91 34 3b
        E 16 b1 0b 33
        E 32 b1 0b 2a
        E 32 b1 0b 22
        E 32 b1 0b 19
        E 16 b1 0b 22
        E 128 b1 0b 3b
        E 16 b1 0b 33
        E 32 b1 0b 2a
        E 16 b1 0b 22
        E 32 b1 0b 19
        E 32 b1 0b 11
        E 16 b1 0b 22
        E 16 b1 0b 19
        E 32 b1 0b 11
        E 32 b1 0b 08
        E 32 81 34 00
        E 16 b1 0b 3b
        E 0 91 34 3b
        E 16 b1 0b 33
        E 32 b1 0b 2a
        E 32 b1 0b 22
        E 32 b1 0b 19
        E 16 b1 0b 11
        E 16 b1 0b 22
        E 16 b1 0b 19
        E 32 b1 0b 11
        E 32 b1 0b 08
        E 32 81 34 00
        E 16 b1 0b 11
        E 0 91 34 11
        E 128 b1 0b 3b
        E 272 b1 0b 22
        E 128 b1 0b 3b
        E 144 b1 0b 22
        E 128 b1 0c 40
        E 0 b1 0b 4c
        E 0 81 34 00
        E 0 91 1c 4c
        E 16 b1 0b 44
        E 32 b1 0b 3b
        E 32 b1 0b 33
        E 16 b1 0b 2a
        E 32 b1 0b 22
        E 16 b1 0b 4c
        E 0 81 1c 00
        E 0 91 1a 4c
        E 16 b1 0b 44
        E 32 b1 0b 3b
        E 32 b1 0b 33
        E 32 b1 0b 2a
        E 16 b1 0b 4c
        E 0 81 1a 00
        E 0 91 1c 4c
        E 16 b1 0b 44
        E 32 b1 0b 3b
        E 32 b1 0b 33
        E 32 b1 0b 2a
        E 16 b1 0c 10
        E 0 b1 0b 3b
        E 0 81 1c 00
        E 0 91 33 3b
        E 16 b1 0b 33
        E 16 b1 0b 2a
        E 32 b1 0b 22
        E 32 b1 0b 19
        E 32 b1 0b 11
        E 16 b1 0b 3b
        E 0 81 33 00
        E 0 91 34 3b
        E 16 b1 0b 33
        E 32 b1 0b 2a
        E 32 b1 0b 22
        E 32 b1 0b 19
        E 16 b1 0b 22
        E 144 b1 0b 3b
        E 16 b1 0b 33
        E 32 b1 0b 2a
        E 32 b1 0b 22
        E 32 b1 0b 19
        E 16 b1 0b 22
        E 16 b1 0b 19
        E 32 b1 0b 11
        E 32 b1 0b 08
        E 32 81 34 00
        E 16 b1 0b 3b
        E 0 91 34 3b
        E 16 b1 0b 33
        E 16 b1 0b 2a
        E 32 b1 0b 22
        E 32 b1 0b 19
        E 32 b1 0b 11
        E 16 b1 0b 22
        E 16 b1 0b 19
        E 32 b1 0b 11
        E 32 b1 0b 08
        E 32 81 34 00
        E 16 b1 0b 11
        E 0 91 34 11
        E 144 b1 0b 3b
        E 256 b1 0b 22
        E 144 b1 0b 3b
        E 128 b1 0b 22
        E 144 b1 0c 40
        E 0 b1 0b 4c
        E 0 81 34 00
        E 0 91 1c 4c
        E 16 b1 0b 44
        E 32 b1 0b 3b
        E 32 b1 0b 33
        E 32 b1 0b 2a
        E 16 b1 0b 33
        E 0 81 1c 00
        E 0 91 2d 33
        E 16 b1 0b 2a
        E 32 b1 0b 22
        E 32 b1 0b 19
        E 32 b1 0b 11
        E 16 b1 0b 33
        E 0 81 2d 00
        E 0 91 30 33
        E 16 b1 0b 2a
        E 32 b1 0b 22
        E 16 b1 0b 19
        E 16 81 30 00
        E 0 91 2d 19
        E 64 b1 0b 33
        E 0 81 2d 00
        E 0 91 34 33
        E 16 b1 0b 2a
        E 32 b1 0b 22
        E 16 b1 0b 19
        E 0 81 34 00
        E 0 91 30 19
        E 16 b1 0b 11
        E 32 b1 0b 08
        E 16 b1 0b 33
        E 0 81 30 00
        E 0 91 37 33
        E 16 b1 0b 2a
        E 32 b1 0b 22
        E 16 b1 0b 19
        E 0 81 37 00
        E 0 91 34 19
        E 16 b1 0b 11
        E 32 b1 0b 08
        E 16 81 34 00
        E 16 b1 0b 33
        E 0 91 34 33
        E 16 b1 0b 2a
        E 32 b1 0b 22
        E 16 b1 0b 19
        E 0 81 34 00
        E 0 91 37 19
        E 16 b1 0b 11
        E 32 b1 0b 08
        E 16 b1 0b 33
        E 0 81 37 00
        E 0 91 30 33
        E 16 b1 0b 2a
        E 32 b1 0b 22
        E 16 b1 0b 19
        E 0 81 30 00
        E 0 91 34 19
        E 16 b1 0b 11
        E 32 b1 0b 08
        E 16 b1 0b 33
        E 16 b1 0b 2a
        E 32 b1 0b 22
        E 16 b1 0b 19
        E 16 81 34 00
        E 0 91 30 19
        E 16 b1 0b 11
        E 32 b1 0b 08
        E 16 b1 0b 33
        E 0 81 30 00
        E 0 91 37 33
        E 16 b1 0b 2a
        E 32 b1 0b 22
        E 16 b1 0b 19
        E 0 81 37 00
        E 0 91 34 19
        E 16 b1 0b 11
        E 32 b1 0b 08
        E 16 b1 0b 33
        E 0 81 34 00
        E 0 91 39 33
        E 16 b1 0b 2a
        E 32 b1 0b 22
        E 16 b1 0b 19
        E 0 81 39 00
        E 0 91 37 19
        E 16 b1 0b 11
        E 32 b1 0b 08
        E 16 b1 0b 33
        E 0 81 37 00
        E 0 91 3c 33
        E 16 b1 0b 2a
        E 16 b1 0b 22
        E 32 b1 0b 19
        E 16 81 3c 00
        E 0 91 39 19
        E 16 b1 0b 11
        E 32 b1 0b 08
        E 16 b1 0b 33
        E 0 81 39 00
        E 0 91 40 33
        E 16 b1 0b 2a
        E 32 b1 0b 22
        E 16 b1 0b 19
        E 0 81 40 00
        E 0 91 3c 19
        E 16 b1 0b 11
        E 32 b1 0b 08
        E 16 b1 0b 33
        E 0 81 3c 00
        E 0 91 43 33
        E 16 b1 0b 2a
        E 32 b1 0b 22
        E 16 b1 0b 19
        E 0 81 43 00
        E 0 91 40 19
        E 16 b1 0b 11
        E 16 b1 0b 08
        E 32 81 40 00
        E 16 b1 0b 33
        E 0 91 45 33
        E 16 b1 0b 2a
        E 32 b1 0b 22
        E 16 b1 0b 19
        E 0 81 45 00
        E 0 91 43 19
        E 16 b1 0b 11
        E 32 b1 0b 08
        E 16 b1 0b 33
        E 0 81 43 00
        E 0 91 48 33
        E 16 b1 0b 2a
        E 32 b1 0b 22
        E 16 b1 0b 19
        E 0 81 48 00
        E 0 91 45 19
        E 16 b1 0b 11
        E 32 b1 0b 08
        E 16 b1 0b 33
        E 0 81 45 00
        E 0 91 4c 33
        E 16 b1 0b 2a
        E 16 b1 0b 22
        E 32 b1 0b 19
        E 16 81 4c 00
        E 0 91 48 19
        E 16 b1 0b 11
        E 32 b1 0b 08
        E 16 b1 0b 33
        E 0 81 48 00
        E 0 91 4f 33
        E 16 b1 0b 2a
        E 32 b1 0b 22
        E 16 b1 0b 19
        E 0 81 4f 00
        E 0 91 4c 19
        E 16 b1 0b 11
        E 32 b1 0b 08
        E 16 b1 0b 33
        E 0 81 4c 00
        E 0 91 2f 33
        E 16 b1 0b 2a
        E 32 b1 0b 22
        E 16 b1 0b 19
        E 0 81 2f 00
        E 0 91 4f 19
        E 16 b1 0b 11
        E 0 81 4f 00
        E 0 91 50 11
        E 16 b1 0b 08
        E 0 81 50 00
        E 0 91 4f 08
        E 32 81 4f 00
        E 16 b1 0b 33
        E 0 91 33 33
        E 16 b1 0b 2a
        E 32 b1 0b 22
        E 16 b1 0b 19
        E 0 81 33 00
        E 0 91 2f 19
        E 16 b1 0b 11
        E 32 b1 0b 08
        E 16 b1 0b 33
        E 0 81 2f 00
        E 0 91 36 33
        E 16 b1 0b 2a
        E 32 b1 0b 22
        E 16 b1 0b 19
        E 0 81 36 00
        E 0 91 33 19
        E 16 b1 0b 11
        E 32 b1 0b 08
        E 16 b1 0b 33
        E 0 81 33 00
        E 0 91 39 33
        E 16 b1 0b 2a
        E 16 b1 0b 22
        E 32 b1 0b 19
        E 16 81 39 00
        E 0 91 36 19
        E 16 b1 0b 11
        E 32 b1 0b 08
        E 16 b1 0b 33
        E 16 b1 0b 2a
        E 32 b1 0b 22
        E 16 b1 0b 19
        E 0 81 36 00
        E 0 91 39 19
        E 16 b1 0b 11
        E 32 b1 0b 08
        E 16 b1 0b 33
        E 0 81 39 00
        E 0 91 33 33
        E 16 b1 0b 2a
        E 32 b1 0b 22
        E 16 b1 0b 19
        E 0 81 33 00
        E 0 91 36 19
        E 16 b1 0b 11
        E 16 b1 0b 08
        E 32 81 36 00
        E 16 b1 0b 33
        E 0 91 36 33
        E 16 b1 0b 2a
        E 32 b1 0b 22
        E 16 b1 0b 19
        E 0 81 36 00
        E 0 91 33 19
        E 16 b1 0b 11
        E 32 b1 0b 08
        E 16 b1 0b 33
        E 0 81 33 00
        E 0 91 39 33
        E 16 b1 0b 2a
        E 32 b1 0b 22
        E 16 b1 0b 19
        E 0 81 39 00
        E 0 91 36 19
        E 16 b1 0b 11
        E 32 b1 0b 08
        E 16 b1 0b 33
        E 0 81 36 00
        E 0 91 3b 33
        E 16 b1 0b 2a
        E 32 b1 0b 22
        E 16 b1 0b 19
        E 16 81 3b 00
        E 0 91 29 19
        E 16 b1 0b 11
        E 32 b1 0b 08
        E 16 b1 0b 33
        E 0 81 29 00
        E 0 91 3f 33
        E 16 b1 0b 2a
        E 32 b1 0b 22
        E 16 b1 0b 19
        E 0 81 3f 00
        E 0 91 3b 19
        E 16 b1 0b 11
        E 32 b1 0b 08
        E 16 b1 0b 33
        E 0 81 3b 00
        E 0 91 42 33
        E 16 b1 0b 2a
        E 32 b1 0b 22
        E 16 b1 0b 19
        E 0 81 42 00
        E 0 91 3f 19
        E 16 b1 0b 11
        E 32 b1 0b 08
        E 16 81 3f 00
        E 16 b1 0b 33
        E 0 91 45 33
        E 16 b1 0b 2a
        E 32 b1 0b 22
        E 16 b1 0b 19
        E 0 81 45 00
        E 0 91 42 19
        E 16 b1 0b 11
        E 32 b1 0b 08
        E 16 b1 0b 33
        E 0 81 42 00
        E 0 91 47 33
        E 16 b1 0b 2a
        E 32 b1 0b 22
        E 16 b1 0b 19
        E 0 81 47 00
        E 0 91 45 19
        E 16 b1 0b 11
        E 32 b1 0b 08
        E 16 b1 0b 33
        E 0 81 45 00
        E 0 91 4b 33
        E 16 b1 0b 2a
        E 32 b1 0b 22
        E 16 b1 0b 19
        E 16 81 4b 00
        E 0 91 47 19
        E 16 b1 0b 11
        E 32 b1 0b 08
        E 16 b1 0b 33
        E 0 81 47 00
        E 0 91 4e 33
        E 16 b1 0b 2a
        E 0 81 4e 00
        E 0 91 4d 2a
        E 32 b1 0b 22
        E 0 81 4d 00
        E 0 91 4e 22
        E 16 b1 0b 19
        E 0 81 4e 00
        E 0 91 4b 19
        E 16 b1 0b 11
        E 32 b1 0b 08
        E 16 b1 0b 33
        E 0 81 4b 00
        E 0 91 51 33
        E 16 b1 0b 2a
        E 0 81 51 00
        E 0 91 50 2a
        E 32 b1 0b 22
        E 0 81 50 00
        E 0 91 51 22
        E 16 b1 0b 19
        E 0 81 51 00
        E 0 91 4e 19
        E 64 81 4e 00
        E 0 91 4d 19
        E 16 b1 0c 20
        E 0 b1 0b 33
        E 0 81 4d 00
        E 0 91 1c 33
        E 16 b1 0b 2a
        E 16 b1 0b 33
        E 16 b1 0b 2a
        E 16 b1 0b 33
        E 16 b1 0b 2a
        E 32 b1 0b 22
        E 32 b1 0b 19
        E 32 b1 0b 11
        E 32 b1 0b 08
        E 32 81 1c 00
        E 16 b1 0b 33
        E 0 91 1c 33
        E 16 b1 0b 2a
        E 32 b1 0b 22
        E 16 b1 0b 19
        E 32 b1 0b 11
        E 32 b1 0b 08
        E 32 81 1c 00
        E 112 b1 0b 33
        E 0 91 1c 33
        E 16 b1 0b 2a
        E 32 b1 0b 22
        E 32 b1 0b 19
        E 32 b1 0b 11
        E 16 b1 0b 08
        E 16 b1 0b 33
        E 0 81 1c 00
        E 0 91 1a 33
        E 48 b1 0b 2a
        E 64 b1 0b 22
        E 64 b1 0b 19
        E 64 b1 0b 11
        E 16 b1 0b 33
        E 0 81 1a 00
        E 0 91 1c 33
        E 16 b1 0b 2a
        E 32 b1 0b 22
        E 32 b1 0b 19
        E 16 b1 0b 11
        E 32 b1 0b 08
        E 32 81 1c 00
        E 112 b1 0b 33
        E 0 91 1c 33
        E 16 b1 0b 2a
        E 32 b1 0b 22
        E 32 b1 0b 19
        E 32 b1 0b 11
        E 16 b1 0b 33
        E 16 b1 0b 2a
        E 16 b1 0b 22
        E 32 b1 0b 19
        E 32 b1 0b 11
        E 32 b1 0b 08
        E 32 81 1c 00
        E 112 b1 0b 33
        E 0 91 1c 33
        E 16 b1 0b 2a
        E 32 b1 0b 22
        E 32 b1 0b 19
        E 16 b1 0b 11
        E 32 b1 0b 08
        E 16 b1 0b 33
        E 0 81 1c 00
        E 0 91 1f 33
        E 48 b1 0b 2a
        E 64 b1 0b 22
        E 64 b1 0b 19
        E 64 b1 0b 11
        E 48 b1 0b 08
        E 64 81 1f 00
        E 48 b1 0b 33
        E 0 91 1c 33
        E 16 b1 0b 2a
        E 32 b1 0b 22
        E 32 b1 0b 19
        E 32 b1 0b 11
        E 32 b1 0b 08
        E 32 81 1c 00
        E 96 b1 0b 33
        E 0 91 1c 33
        E 16 b1 0b 2a
        E 32 b1 0b 22
        E 32 b1 0b 19
        E 32 b1 0b 11
        E 32 b1 0b 08
        E 32 81 1c 00
        E 80 b1 0b 33
        E 0 91 1c 33
        E 16 b1 0b 2a
        E 16 b1 0b 22
        E 32 b1 0b 19
        E 32 b1 0b 11
        E 32 b1 0b 08
        E 16 b1 0b 33
        E 0 81 1c 00
        E 0 91 1a 33
        E 48 b1 0b 2a
        E 64 b1 0b 22
        E 64 b1 0b 19
        E 64 b1 0b 11
        E 32 b1 0b 33
        E 0 81 1a 00
        E 0 91 1c 33
        E 16 b1 0b 2a
        E 32 b1 0b 22
        E 32 b1 0b 19
        E 32 b1 0b 11
        E 32 b1 0b 08
        E 32 81 1c 00
        E 80 b1 0b 33
        E 0 91 1c 33
        E 16 b1 0b 2a
        E 32 b1 0b 22
        E 16 b1 0b 19
        E 32 b1 0b 11
        E 32 b1 0b 08
        E 16 b1 0b 33
        E 16 b1 0b 2a
        E 32 b1 0b 22
        E 32 b1 0b 19
        E 32 b1 0b 11
        E 32 b1 0b 08
        E 32 81 1c 00
        E 96 b1 0b 33
        E 0 91 1c 33
        E 16 b1 0b 2a
        E 32 b1 0b 22
        E 32 b1 0b 19
        E 32 b1 0b 11
        E 16 b1 0b 33
        E 0 81 1c 00
        E 0 91 1f 33
        E 48 b1 0b 2a
        E 64 b1 0b 22
        E 64 b1 0b 19
        E 48 b1 0b 11
        E 64 b1 0b 08
        E 64 81 1f 00
        E 48 b1 0b 33
        E 0 91 1c 33
        E 16 b1 0b 2a
        E 32 b1 0b 22
        E 32 b1 0b 19
        E 32 b1 0b 11
        E 16 b1 0b 08
        E 32 81 1c 00
        E 112 b1 0b 33
        E 0 91 1c 33
        E 16 b1 0b 2a
        E 32 b1 0b 22
        E 32 b1 0b 19
        E 32 b1 0b 11
        E 32 b1 0b 08
        E 32 81 1c 00
        E 96 b1 0b 33
        E 0 91 1c 33
        E 16 b1 0b 2a
        E 32 b1 0b 22
        E 32 b1 0b 19
        E 32 b1 0b 11
        E 16 b1 0b 33
        E 0 81 1c 00
        E 0 91 1a 33
        E 48 b1 0b 2a
        E 64 b1 0b 22
        E 48 b1 0b 19
        E 64 b1 0b 11
        E 48 b1 0b 33
        E 0 81 1a 00
        E 0 91 1c 33
        E 16 b1 0b 2a
        E 32 b1 0b 22
        E 32 b1 0b 19
        E 32 b1 0b 11
        E 32 b1 0b 08
        E 32 81 1c 00
        E 96 b1 0b 33
        E 0 91 1c 33
        E 16 b1 0b 2a
        E 32 b1 0b 22
        E 32 b1 0b 19
        E 32 b1 0b 11
        E 16 b1 0b 33
        E 16 b1 0b 2a
        E 32 b1 0b 22
        E 32 b1 0b 19
        E 32 b1 0b 11
        E 32 b1 0b 08
        E 16 81 1c 00
        E 112 b1 0b 33
        E 0 91 1c 33
        E 16 b1 0b 2a
        E 32 b1 0b 22
        E 32 b1 0b 19
        E 32 b1 0b 11
        E 16 b1 0b 33
        E 0 81 1c 00
        E 0 91 1f 33
        E 48 b1 0b 2a
        E 48 b1 0b 22
        E 64 b1 0b 19
        E 64 b1 0b 11
        E 64 b1 0b 08
        E 64 81 1f 00
        E 48 b1 0b 33
        E 0 91 1c 33
        E 16 b1 0b 2a
        E 16 b1 0b 22
        E 32 b1 0b 19
        E 32 b1 0b 11
        E 32 b1 0b 08
        E 32 81 1c 00
        E 112 b1 0b 33
        E 0 91 1c 33
        E 16 b1 0b 2a
        E 32 b1 0b 22
        E 32 b1 0b 19
        E 16 b1 0b 11
        E 32 b1 0b 08
        E 32 81 1c 00
        E 112 b1 0b 33
        E 0 91 1c 33
        E 16 b1 0b 2a
        E 32 b1 0b 22
        E 32 b1 0b 19
        E 32 b1 0b 11
        E 16 b1 0b 33
        E 0 81 1c 00
        E 0 91 1a 33
        E 48 b1 0b 2a
        E 48 b1 0b 22
        E 64 b1 0b 19
        E 64 b1 0b 11
        E 48 b1 0b 33
        E 0 81 1a 00
        E 0 91 1c 33
        E 16 b1 0b 2a
        E 32 b1 0b 22
        E 32 b1 0b 19
        E 32 b1 0b 11
        E 16 b1 0b 08
        E 32 81 1c 00
        E 112 b1 0b 33
        E 0 91 1c 33
        E 16 b1 0b 2a
        E 32 b1 0b 22
        E 32 b1 0b 19
        E 32 b1 0b 11
        E 16 b1 0b 33
        E 16 b1 0b 2a
        E 32 b1 0b 22
        E 16 b1 0b 19
        E 32 b1 0b 11
        E 32 b1 0b 08
        E 32 81 1c 00
        E 112 b1 0b 33
        E 0 91 1c 33
        E 16 b1 0b 2a
        E 32 b1 0b 22
        E 32 b1 0b 19
        E 32 b1 0b 11
        E 16 b1 0b 08
        E 16 b1 0b 33
        E 0 81 1c 00
        E 0 91 1f 33
        E 48 b1 0b 2a
        E 64 b1 0b 22
        E 64 b1 0b 19
        E 64 b1 0b 11
        E 64 b1 0b 08
        E 48 81 1f 00
        E 48 b1 0c 40
        E 0 b1 0b 3b
        E 0 91 23 3b
        E 16 b1 0b 33
        E 32 b1 0b 2a
        E 32 b1 0b 22
        E 32 b1 0b 19
        E 16 b1 0b 22
        E 16 b1 0b 19
        E 32 b1 0b 11
        E 32 b1 0b 08
        E 32 81 23 00
        E 32 b1 0b 11
        E 0 91 23 11
        E 48 b1 0b 08
        E 64 81 23 00
        E 16 91 23 08
        E 80 81 23 00
        E 48 b1 0b 3b
        E 0 91 23 3b
        E 16 b1 0b 33
        E 32 b1 0b 2a
        E 32 b1 0b 22
        E 16 b1 0b 19
        E 32 b1 0b 11
        E 16 b1 0b 3b
        E 0 81 23 00
        E 0 91 21 3b
        E 16 b1 0b 33
        E 32 b1 0b 2a
        E 32 b1 0b 22
        E 32 b1 0b 19
        E 16 b1 0b 22
        E 16 b1 0b 19
        E 32 b1 0b 11
        E 32 b1 0b 08
        E 32 81 21 00
        E 16 b1 0b 11
        E 0 91 21 11
        E 32 b1 0b 08
        E 64 81 21 00
        E 48 b1 0b 5d
        E 0 91 23 5d
        E 16 b1 0b 55
        E 32 b1 0b 4c
        E 32 b1 0b 44
        E 32 b1 0b 3b
        E 32 b1 0b 33
        E 32 b1 0b 2a
        E 32 b1 0b 22
        E 16 b1 0b 19
        E 32 b1 0b 11
        E 16 81 23 00
        E 0 91 2d 11
        E 144 b1 0b 19
        E 144 b1 0b 22
        E 160 b1 0b 2a
        E 32 81 2d 00
        E 0 91 2e 2a
        E 128 b1 0b 33
        E 144 b1 0b 3b
        E 48 b1 0c 60
        E 0 b1 0b 33
        E 0 81 2e 00
        E 0 91 21 33
        E 128 81 21 00
        E 0 91 34 33
        E 16 b1 0b 2a
        E 16 b1 0b 22
        E 32 b1 0b 19
        E 32 b1 0b 11
        E 32 b1 0b 08
        E 16 b1 0b 33
        E 16 b1 0b 2a
        E 32 b1 0b 22
        E 32 b1 0b 19
        E 32 b1 0b 11
        E 16 b1 0b 33
        E 0 81 34 00
        E 0 91 21 33
        E 16 b1 0b 2a
        E 32 b1 0b 22
        E 32 b1 0b 19
        E 32 b1 0b 11
        E 16 b1 0b 08
        E 16 b1 0b 33
        E 0 81 21 00
        E 0 91 30 33
        E 16 b1 0b 2a
        E 32 b1 0b 22
        E 32 b1 0b 19
        E 32 b1 0b 11
        E 16 b1 0b 33
        E 0 81 30 00
        E 0 91 21 33
        E 16 b1 0b 2a
        E 32 b1 0b 22
        E 32 b1 0b 19
        E 32 b1 0b 11
        E 16 b1 0b 33
        E 0 81 21 00
        E 0 91 30 33
        E 16 b1 0b 2a
        E 32 b1 0b 22
        E 16 b1 0b 19
        E 32 b1 0b 11
        E 32 b1 0b 08
        E 16 b1 0b 33
        E 16 b1 0b 2a
        E 32 b1 0b 22
        E 32 b1 0b 19
        E 32 b1 0b 11
        E 16 b1 0b 33
        E 0 81 30 00
        E 0 91 21 33
        E 16 b1 0b 2a
        E 32 b1 0b 22
        E 32 b1 0b 19
        E 32 b1 0b 11
        E 16 b1 0b 08
        E 16 81 21 00
        E 0 ff 2f 00
      >
    >
  >
  <TRACK {5666608B-B86B-4DA2-A5AD-F710277A6DB6}
    NAME "NES - Triangle [ch2]"
    PEAKCOL 16744192
    BEAT -1
    AUTOMODE 0
    PANLAWFLAGS 3
    VOLPAN 1 0 -1 -1 1
    MUTESOLO 0 0 0
    IPHASE 0
    PLAYOFFS 0 1
    ISBUS 0 0
    BUSCOMP 0 0 0 0 0
    SHOWINMIX 1 0.6667 0.5 1 0.5 0 0 0
    FIXEDLANES 9 0 0 0 0
    SEL 0
    REC 0 5088 1 0 0 0 0 0
    VU 2
    TRACKHEIGHT 0 0 0 0 0 0 0
    INQ 0 0 0 0.5 100 0 0 100
    NCHAN 2
    FX 1
    TRACKID {5666608B-B86B-4DA2-A5AD-F710277A6DB6}
    PERF 0
    MIDIOUT -1
    MAINSEND 1 0
    <FXCHAIN
      WNDRECT 24 52 700 560
      SHOW 0
      LASTSEL 0
      DOCKED 0
      BYPASS 0 0 0
      <JS "ReapNES Studio/ReapNES_Console.jsfx" ""
        2 15 1 10 80 10 100 2 1 15 1 5 60 10 80 1 1 0 50 0 0 15 1 0 100 0 0 0.500000 0.500000 0.400000 0.300000 0.800000 2 1 0 0 0 0 - - - - - - - - - - - - - - - - - - - - - - - - - -
      >
      FLOATPOS 0 0 0 0
      FXID {377A9B30-4C04-4F30-96DC-CF89073C77AE}
      WAK 0 0
    >
    <ITEM
      POSITION 0
      LENGTH 151.52411030000002
      LOOP 0
      ALLTAKES 0
      FADEIN 0 0 0 0 0 0 0
      FADEOUT 0 0 0 0 0 0 0
      MUTE 0 0
      SEL 0
      IGUID {852ACBF9-9797-4B9F-9D16-E16674C639B7}
      <SOURCE MIDI
        HASDATA 1 480 QN
        CCINTERP 32
        E 0 c2 26
        E 0 b2 0b 7f
        E 0 92 26 7f
        E 128 82 26 00
        E 32 b2 0b 7f
        E 0 92 28 7f
        E 144 82 28 00
        E 32 b2 0b 7f
        E 0 92 2d 7f
        E 144 82 2d 00
        E 32 b2 0b 7f
        E 0 92 2d 7f
        E 144 82 2d 00
        E 32 b2 0b 7f
        E 0 92 2d 7f
        E 160 82 2d 00
        E 16 b2 0b 7f
        E 0 92 2d 7f
        E 160 82 2d 00
        E 16 b2 0b 7f
        E 0 92 2d 7f
        E 160 82 2d 00
        E 32 b2 0b 7f
        E 0 92 2d 7f
        E 160 82 2d 00
        E 16 b2 0b 7f
        E 0 92 2d 7f
        E 160 82 2d 00
        E 16 b2 0b 7f
        E 0 92 2d 7f
        E 160 82 2d 00
        E 16 b2 0b 7f
        E 0 92 2d 7f
        E 160 82 2d 00
        E 16 b2 0b 7f
        E 0 92 2d 7f
        E 144 82 2d 00
        E 32 b2 0b 7f
        E 0 92 2d 7f
        E 160 82 2d 00
        E 16 b2 0b 7f
        E 0 92 2d 7f
        E 160 82 2d 00
        E 16 b2 0b 7f
        E 0 92 2d 7f
        E 160 82 2d 00
        E 32 b2 0b 7f
        E 0 92 2d 7f
        E 144 82 2d 00
        E 32 b2 0b 7f
        E 0 92 2d 7f
        E 144 82 2d 00
        E 32 b2 0b 7f
        E 0 92 2d 7f
        E 144 82 2d 00
        E 32 b2 0b 7f
        E 0 92 2d 7f
        E 144 82 2d 00
        E 32 b2 0b 7f
        E 0 92 2d 7f
        E 144 82 2d 00
        E 32 b2 0b 7f
        E 0 92 2d 7f
        E 160 82 2d 00
        E 16 b2 0b 7f
        E 0 92 2d 7f
        E 160 82 2d 00
        E 32 b2 0b 7f
        E 0 92 2d 7f
        E 160 82 2d 00
        E 16 b2 0b 7f
        E 0 92 2d 7f
        E 144 82 2d 00
        E 32 b2 0b 7f
        E 0 92 2d 7f
        E 160 82 2d 00
        E 32 b2 0b 7f
        E 0 92 2d 7f
        E 144 82 2d 00
        E 32 b2 0b 7f
        E 0 92 2d 7f
        E 144 82 2d 00
        E 32 b2 0b 7f
        E 0 92 2d 7f
        E 144 82 2d 00
        E 32 b2 0b 7f
        E 0 92 2d 7f
        E 144 82 2d 00
        E 32 b2 0b 7f
        E 0 92 2d 7f
        E 144 82 2d 00
        E 48 b2 0b 7f
        E 0 92 2d 7f
        E 144 82 2d 00
        E 32 b2 0b 7f
        E 0 92 2d 7f
        E 144 82 2d 00
        E 32 b2 0b 7f
        E 0 92 2d 7f
        E 144 82 2d 00
        E 32 b2 0b 7f
        E 0 92 30 7f
        E 144 82 30 00
        E 32 b2 0b 7f
        E 0 92 30 7f
        E 160 82 30 00
        E 16 b2 0b 7f
        E 0 92 30 7f
        E 144 82 30 00
        E 32 b2 0b 7f
        E 0 92 30 7f
        E 160 82 30 00
        E 16 b2 0b 7f
        E 0 92 30 7f
        E 144 82 30 00
        E 48 b2 0b 7f
        E 0 92 30 7f
        E 144 82 30 00
        E 32 b2 0b 7f
        E 0 92 30 7f
        E 144 82 30 00
        E 48 b2 0b 7f
        E 0 92 30 7f
        E 160 82 30 00
        E 32 b2 0b 7f
        E 0 92 30 7f
        E 144 82 30 00
        E 16 b2 0b 7f
        E 0 92 30 7f
        E 160 82 30 00
        E 16 b2 0b 7f
        E 0 92 30 7f
        E 160 82 30 00
        E 16 b2 0b 7f
        E 0 92 30 7f
        E 160 82 30 00
        E 32 b2 0b 7f
        E 0 92 30 7f
        E 160 82 30 00
        E 16 b2 0b 7f
        E 0 92 30 7f
        E 160 82 30 00
        E 16 b2 0b 7f
        E 0 92 30 7f
        E 160 82 30 00
        E 16 b2 0b 7f
        E 0 92 30 7f
        E 160 82 30 00
        E 16 b2 0b 7f
        E 0 92 30 7f
        E 160 82 30 00
        E 16 b2 0b 7f
        E 0 92 28 7f
        E 160 82 28 00
        E 16 b2 0b 7f
        E 0 92 28 7f
        E 160 82 28 00
        E 16 b2 0b 7f
        E 0 92 2a 7f
        E 160 82 2a 00
        E 48 b2 0b 7f
        E 0 92 2a 7f
        E 144 82 2a 00
        E 16 b2 0b 7f
        E 0 92 2b 7f
        E 160 82 2b 00
        E 16 b2 0b 7f
        E 0 92 2b 7f
        E 160 82 2b 00
        E 16 b2 0b 7f
        E 0 92 2d 7f
        E 160 82 2d 00
        E 16 b2 0b 7f
        E 0 92 28 7f
        E 288 82 28 00
        E 64 b2 0b 7f
        E 0 92 28 7f
        E 160 82 28 00
        E 16 b2 0b 7f
        E 0 92 2a 7f
        E 160 82 2a 00
        E 32 b2 0b 7f
        E 0 92 2a 7f
        E 160 82 2a 00
        E 32 b2 0b 7f
        E 0 92 2b 7f
        E 144 82 2b 00
        E 16 b2 0b 7f
        E 0 92 2b 7f
        E 160 82 2b 00
        E 16 b2 0b 7f
        E 0 92 2f 7f
        E 160 82 2f 00
        E 16 b2 0b 7f
        E 0 92 2b 7f
        E 160 82 2b 00
        E 32 b2 0b 7f
        E 0 92 2d 7f
        E 144 82 2d 00
        E 16 b2 0b 7f
        E 0 92 2d 7f
        E 160 82 2d 00
        E 32 b2 0b 7f
        E 0 92 2a 7f
        E 160 82 2a 00
        E 16 b2 0b 7f
        E 0 92 2a 7f
        E 160 82 2a 00
        E 32 b2 0b 7f
        E 0 92 2b 7f
        E 144 82 2b 00
        E 16 b2 0b 7f
        E 0 92 26 7f
        E 160 82 26 00
        E 16 b2 0b 7f
        E 0 92 28 7f
        E 160 82 28 00
        E 16 b2 0b 7f
        E 0 92 2d 7f
        E 288 82 2d 00
        E 80 b2 0b 7f
        E 0 92 2d 7f
        E 144 82 2d 00
        E 48 b2 0b 7f
        E 0 92 2f 7f
        E 144 82 2f 00
        E 32 b2 0b 7f
        E 0 92 2f 7f
        E 144 82 2f 00
        E 32 b2 0b 7f
        E 0 92 30 7f
        E 160 82 30 00
        E 16 b2 0b 7f
        E 0 92 32 7f
        E 144 82 32 00
        E 32 b2 0b 7f
        E 0 92 34 7f
        E 160 82 34 00
        E 16 b2 0b 7f
        E 0 92 2b 7f
        E 160 82 2b 00
        E 16 b2 0b 7f
        E 0 92 28 7f
        E 160 82 28 00
        E 16 b2 0b 7f
        E 0 92 28 7f
        E 160 82 28 00
        E 32 b2 0b 7f
        E 0 92 2a 7f
        E 160 82 2a 00
        E 32 b2 0b 7f
        E 0 92 2a 7f
        E 144 82 2a 00
        E 32 b2 0b 7f
        E 0 92 2b 7f
        E 144 82 2b 00
        E 16 b2 0b 7f
        E 0 92 2b 7f
        E 160 82 2b 00
        E 32 b2 0b 7f
        E 0 92 2d 7f
        E 144 82 2d 00
        E 16 b2 0b 7f
        E 0 92 28 7f
        E 288 82 28 00
        E 80 b2 0b 7f
        E 0 92 28 7f
        E 160 82 28 00
        E 16 b2 0b 7f
        E 0 92 2a 7f
        E 160 82 2a 00
        E 16 b2 0b 7f
        E 0 92 2a 7f
        E 160 82 2a 00
        E 32 b2 0b 7f
        E 0 92 2b 7f
        E 144 82 2b 00
        E 32 b2 0b 7f
        E 0 92 2b 7f
        E 144 82 2b 00
        E 32 b2 0b 7f
        E 0 92 2f 7f
        E 144 82 2f 00
        E 32 b2 0b 7f
        E 0 92 2b 7f
        E 144 82 2b 00
        E 32 b2 0b 7f
        E 0 92 2d 7f
        E 144 82 2d 00
        E 48 b2 0b 7f
        E 0 92 2d 7f
        E 144 82 2d 00
        E 32 b2 0b 7f
        E 0 92 2a 7f
        E 144 82 2a 00
        E 32 b2 0b 7f
        E 0 92 2a 7f
        E 144 82 2a 00
        E 32 b2 0b 7f
        E 0 92 2b 7f
        E 144 82 2b 00
        E 32 b2 0b 7f
        E 0 92 26 7f
        E 144 82 26 00
        E 32 b2 0b 7f
        E 0 92 28 7f
        E 144 82 28 00
        E 16 b2 0b 7f
        E 0 92 2d 7f
        E 288 82 2d 00
        E 80 b2 0b 7f
        E 0 92 2d 7f
        E 160 82 2d 00
        E 16 b2 0b 7f
        E 0 92 2f 7f
        E 160 82 2f 00
        E 32 b2 0b 7f
        E 0 92 2f 7f
        E 144 82 2f 00
        E 32 b2 0b 7f
        E 0 92 30 7f
        E 144 82 30 00
        E 32 b2 0b 7f
        E 0 92 32 7f
        E 144 82 32 00
        E 32 b2 0b 7f
        E 0 92 34 7f
        E 144 82 34 00
        E 32 b2 0b 7f
        E 0 92 2b 7f
        E 144 82 2b 00
        E 32 b2 0b 7f
        E 0 92 2d 7f
        E 160 82 2d 00
        E 32 b2 0b 7f
        E 0 92 2d 7f
        E 144 82 2d 00
        E 16 b2 0b 7f
        E 0 92 2d 7f
        E 160 82 2d 00
        E 16 b2 0b 7f
        E 0 92 2d 7f
        E 160 82 2d 00
        E 16 b2 0b 7f
        E 0 92 2d 7f
        E 160 82 2d 00
        E 16 b2 0b 7f
        E 0 92 2d 7f
        E 160 82 2d 00
        E 16 b2 0b 7f
        E 0 92 2d 7f
        E 160 82 2d 00
        E 16 b2 0b 7f
        E 0 92 2d 7f
        E 160 82 2d 00
        E 32 b2 0b 7f
        E 0 92 2d 7f
        E 160 82 2d 00
        E 16 b2 0b 7f
        E 0 92 2d 7f
        E 160 82 2d 00
        E 16 b2 0b 7f
        E 0 92 2d 7f
        E 160 82 2d 00
        E 16 b2 0b 7f
        E 0 92 2d 7f
        E 160 82 2d 00
        E 16 b2 0b 7f
        E 0 92 2d 7f
        E 160 82 2d 00
        E 16 b2 0b 7f
        E 0 92 2d 7f
        E 160 82 2d 00
        E 32 b2 0b 7f
        E 0 92 2d 7f
        E 144 82 2d 00
        E 16 b2 0b 7f
        E 0 92 2d 7f
        E 160 82 2d 00
        E 32 b2 0b 7f
        E 0 92 2d 7f
        E 160 82 2d 00
        E 16 b2 0b 7f
        E 0 92 2d 7f
        E 160 82 2d 00
        E 16 b2 0b 7f
        E 0 92 2d 7f
        E 160 82 2d 00
        E 16 b2 0b 7f
        E 0 92 2d 7f
        E 144 82 2d 00
        E 32 b2 0b 7f
        E 0 92 2d 7f
        E 144 82 2d 00
        E 32 b2 0b 7f
        E 0 92 2d 7f
        E 144 82 2d 00
        E 32 b2 0b 7f
        E 0 92 2d 7f
        E 144 82 2d 00
        E 48 b2 0b 7f
        E 0 92 2d 7f
        E 288 82 2d 00
        E 64 b2 0b 7f
        E 0 92 2d 7f
        E 160 82 2d 00
        E 16 b2 0b 7f
        E 0 92 2a 7f
        E 160 82 2a 00
        E 16 b2 0b 7f
        E 0 92 2a 7f
        E 160 82 2a 00
        E 16 b2 0b 7f
        E 0 92 2b 7f
        E 144 82 2b 00
        E 32 b2 0b 7f
        E 0 92 2b 7f
        E 160 82 2b 00
        E 16 b2 0b 7f
        E 0 92 26 7f
        E 160 82 26 00
        E 32 b2 0b 7f
        E 0 92 28 7f
        E 144 82 28 00
        E 32 b2 0b 7f
        E 0 92 2d 7f
        E 144 82 2d 00
        E 32 b2 0b 7f
        E 0 92 2d 7f
        E 144 82 2d 00
        E 32 b2 0b 7f
        E 0 92 2d 7f
        E 144 82 2d 00
        E 32 b2 0b 7f
        E 0 92 2d 7f
        E 144 82 2d 00
        E 32 b2 0b 7f
        E 0 92 2d 7f
        E 144 82 2d 00
        E 32 b2 0b 7f
        E 0 92 2d 7f
        E 144 82 2d 00
        E 32 b2 0b 7f
        E 0 92 2d 7f
        E 144 82 2d 00
        E 48 b2 0b 7f
        E 0 92 2d 7f
        E 160 82 2d 00
        E 16 b2 0b 7f
        E 0 92 2d 7f
        E 144 82 2d 00
        E 32 b2 0b 7f
        E 0 92 2d 7f
        E 160 82 2d 00
        E 16 b2 0b 7f
        E 0 92 2d 7f
        E 160 82 2d 00
        E 16 b2 0b 7f
        E 0 92 2d 7f
        E 160 82 2d 00
        E 16 b2 0b 7f
        E 0 92 2d 7f
        E 160 82 2d 00
        E 16 b2 0b 7f
        E 0 92 2d 7f
        E 144 82 2d 00
        E 48 b2 0b 7f
        E 0 92 2d 7f
        E 144 82 2d 00
        E 32 b2 0b 7f
        E 0 92 2d 7f
        E 144 82 2d 00
        E 32 b2 0b 7f
        E 0 92 2d 7f
        E 144 82 2d 00
        E 32 b2 0b 7f
        E 0 92 2d 7f
        E 144 82 2d 00
        E 32 b2 0b 7f
        E 0 92 2d 7f
        E 144 82 2d 00
        E 32 b2 0b 7f
        E 0 92 2d 7f
        E 144 82 2d 00
        E 32 b2 0b 7f
        E 0 92 2d 7f
        E 144 82 2d 00
        E 32 b2 0b 7f
        E 0 92 2d 7f
        E 144 82 2d 00
        E 48 b2 0b 7f
        E 0 92 2d 7f
        E 160 82 2d 00
        E 16 b2 0b 7f
        E 0 92 2d 7f
        E 160 82 2d 00
        E 16 b2 0b 7f
        E 0 92 2d 7f
        E 160 82 2d 00
        E 16 b2 0b 7f
        E 0 92 2d 7f
        E 144 82 2d 00
        E 32 b2 0b 7f
        E 0 92 2d 7f
        E 160 82 2d 00
        E 16 b2 0b 7f
        E 0 92 2d 7f
        E 160 82 2d 00
        E 16 b2 0b 7f
        E 0 92 2d 7f
        E 144 82 2d 00
        E 80 b2 0b 7f
        E 0 92 2d 7f
        E 144 82 2d 00
        E 112 b2 0b 7f
        E 0 92 2e 7f
        E 144 82 2e 00
        E 96 b2 0b 7f
        E 0 92 2f 7f
        E 144 82 2f 00
        E 32 b2 0b 7f
        E 0 92 2f 7f
        E 144 82 2f 00
        E 32 b2 0b 7f
        E 0 92 2f 7f
        E 144 82 2f 00
        E 32 b2 0b 7f
        E 0 92 2f 7f
        E 144 82 2f 00
        E 32 b2 0b 7f
        E 0 92 2f 7f
        E 160 82 2f 00
        E 32 b2 0b 7f
        E 0 92 2f 7f
        E 144 82 2f 00
        E 32 b2 0b 7f
        E 0 92 2f 7f
        E 160 82 2f 00
        E 16 b2 0b 7f
        E 0 92 2f 7f
        E 160 82 2f 00
        E 16 b2 0b 7f
        E 0 92 2f 7f
        E 160 82 2f 00
        E 16 b2 0b 7f
        E 0 92 2f 7f
        E 160 82 2f 00
        E 16 b2 0b 7f
        E 0 92 2f 7f
        E 144 82 2f 00
        E 32 b2 0b 7f
        E 0 92 2f 7f
        E 144 82 2f 00
        E 32 b2 0b 7f
        E 0 92 2f 7f
        E 144 82 2f 00
        E 48 b2 0b 7f
        E 0 92 2f 7f
        E 144 82 2f 00
        E 32 b2 0b 7f
        E 0 92 2f 7f
        E 144 82 2f 00
        E 32 b2 0b 7f
        E 0 92 2f 7f
        E 144 82 2f 00
        E 32 b2 0b 7f
        E 0 92 2f 7f
        E 144 82 2f 00
        E 32 b2 0b 7f
        E 0 92 2f 7f
        E 144 82 2f 00
        E 32 b2 0b 7f
        E 0 92 2f 7f
        E 144 82 2f 00
        E 32 b2 0b 7f
        E 0 92 2f 7f
        E 160 82 2f 00
        E 16 b2 0b 7f
        E 0 92 2f 7f
        E 160 82 2f 00
        E 32 b2 0b 7f
        E 0 92 2f 7f
        E 160 82 2f 00
        E 16 b2 0b 7f
        E 0 92 2f 7f
        E 144 82 2f 00
        E 32 b2 0b 7f
        E 0 92 2f 7f
        E 288 82 2f 00
        E 64 b2 0b 7f
        E 0 92 2f 7f
        E 160 82 2f 00
        E 16 b2 0b 7f
        E 0 92 2c 7f
        E 160 82 2c 00
        E 16 b2 0b 7f
        E 0 92 2c 7f
        E 144 82 2c 00
        E 48 b2 0b 7f
        E 0 92 2d 7f
        E 144 82 2d 00
        E 32 b2 0b 7f
        E 0 92 2d 7f
        E 144 82 2d 00
        E 32 b2 0b 7f
        E 0 92 28 7f
        E 144 82 28 00
        E 32 b2 0b 7f
        E 0 92 2a 7f
        E 144 82 2a 00
        E 32 b2 0b 7f
        E 0 92 2f 7f
        E 144 82 2f 00
        E 32 b2 0b 7f
        E 0 92 2f 7f
        E 144 82 2f 00
        E 32 b2 0b 7f
        E 0 92 2f 7f
        E 160 82 2f 00
        E 16 b2 0b 7f
        E 0 92 2f 7f
        E 144 82 2f 00
        E 48 b2 0b 7f
        E 0 92 2f 7f
        E 160 82 2f 00
        E 16 b2 0b 7f
        E 0 92 2f 7f
        E 160 82 2f 00
        E 16 b2 0b 7f
        E 0 92 2f 7f
        E 160 82 2f 00
        E 16 b2 0b 7f
        E 0 92 2f 7f
        E 144 82 2f 00
        E 32 b2 0b 7f
        E 0 92 2f 7f
        E 160 82 2f 00
        E 16 b2 0b 7f
        E 0 92 2f 7f
        E 144 82 2f 00
        E 32 b2 0b 7f
        E 0 92 2f 7f
        E 144 82 2f 00
        E 32 b2 0b 7f
        E 0 92 2f 7f
        E 144 82 2f 00
        E 48 b2 0b 7f
        E 0 92 2f 7f
        E 144 82 2f 00
        E 32 b2 0b 7f
        E 0 92 2f 7f
        E 144 82 2f 00
        E 32 b2 0b 7f
        E 0 92 2f 7f
        E 144 82 2f 00
        E 32 b2 0b 7f
        E 0 92 2f 7f
        E 144 82 2f 00
        E 32 b2 0b 7f
        E 0 92 2f 7f
        E 144 82 2f 00
        E 32 b2 0b 7f
        E 0 92 2f 7f
        E 160 82 2f 00
        E 32 b2 0b 7f
        E 0 92 2f 7f
        E 160 82 2f 00
        E 32 b2 0b 7f
        E 0 92 2f 7f
        E 160 82 2f 00
        E 16 b2 0b 7f
        E 0 92 2f 7f
        E 160 82 2f 00
        E 16 b2 0b 7f
        E 0 92 2f 7f
        E 160 82 2f 00
        E 16 b2 0b 7f
        E 0 92 2f 7f
        E 160 82 2f 00
        E 16 b2 0b 7f
        E 0 92 2f 7f
        E 144 82 2f 00
        E 32 b2 0b 7f
        E 0 92 2f 7f
        E 160 82 2f 00
        E 16 b2 0b 7f
        E 0 92 2f 7f
        E 160 82 2f 00
        E 16 b2 0b 7f
        E 0 92 2f 7f
        E 144 82 2f 00
        E 48 b2 0b 7f
        E 0 92 2f 7f
        E 144 82 2f 00
        E 32 b2 0b 7f
        E 0 92 2f 7f
        E 144 82 2f 00
        E 32 b2 0b 7f
        E 0 92 2f 7f
        E 144 82 2f 00
        E 32 b2 0b 7f
        E 0 92 2f 7f
        E 160 82 2f 00
        E 16 b2 0b 7f
        E 0 92 32 7f
        E 160 82 32 00
        E 16 b2 0b 7f
        E 0 92 32 7f
        E 160 82 32 00
        E 16 b2 0b 7f
        E 0 92 32 7f
        E 160 82 32 00
        E 32 b2 0b 7f
        E 0 92 32 7f
        E 144 82 32 00
        E 32 b2 0b 7f
        E 0 92 32 7f
        E 160 82 32 00
        E 16 b2 0b 7f
        E 0 92 32 7f
        E 160 82 32 00
        E 16 b2 0b 7f
        E 0 92 32 7f
        E 160 82 32 00
        E 32 b2 0b 7f
        E 0 92 32 7f
        E 144 82 32 00
        E 16 b2 0b 7f
        E 0 92 32 7f
        E 160 82 32 00
        E 16 b2 0b 7f
        E 0 92 32 7f
        E 160 82 32 00
        E 16 b2 0b 7f
        E 0 92 32 7f
        E 160 82 32 00
        E 48 b2 0b 7f
        E 0 92 32 7f
        E 144 82 32 00
        E 16 b2 0b 7f
        E 0 92 32 7f
        E 160 82 32 00
        E 16 b2 0b 7f
        E 0 92 32 7f
        E 160 82 32 00
        E 16 b2 0b 7f
        E 0 92 32 7f
        E 160 82 32 00
        E 16 b2 0b 7f
        E 0 92 32 7f
        E 160 82 32 00
        E 16 b2 0b 7f
        E 0 92 32 7f
        E 160 82 32 00
        E 16 b2 0b 7f
        E 0 92 32 7f
        E 160 82 32 00
        E 16 b2 0b 7f
        E 0 92 32 7f
        E 160 82 32 00
        E 48 b2 0b 7f
        E 0 92 32 7f
        E 144 82 32 00
        E 16 b2 0b 7f
        E 0 92 32 7f
        E 160 82 32 00
        E 16 b2 0b 7f
        E 0 92 32 7f
        E 160 82 32 00
        E 16 b2 0b 7f
        E 0 92 32 7f
        E 160 82 32 00
        E 16 b2 0b 7f
        E 0 92 32 7f
        E 160 82 32 00
        E 32 b2 0b 7f
        E 0 92 32 7f
        E 144 82 32 00
        E 16 b2 0b 7f
        E 0 92 32 7f
        E 160 82 32 00
        E 16 b2 0b 7f
        E 0 92 32 7f
        E 160 82 32 00
        E 48 b2 0b 7f
        E 0 92 32 7f
        E 144 82 32 00
        E 32 b2 0b 7f
        E 0 92 32 7f
        E 144 82 32 00
        E 32 b2 0b 7f
        E 0 92 32 7f
        E 144 82 32 00
        E 32 b2 0b 7f
        E 0 92 32 7f
        E 160 82 32 00
        E 16 b2 0b 7f
        E 0 92 32 7f
        E 160 82 32 00
        E 16 b2 0b 7f
        E 0 92 32 7f
        E 160 82 32 00
        E 14768 b2 0b 7f
        E 0 92 34 7f
        E 16 82 34 00
        E 0 b2 0b 7f
        E 0 92 35 7f
        E 32 82 35 00
        E 0 b2 0b 7f
        E 0 92 36 7f
        E 48 82 36 00
        E 0 b2 0b 7f
        E 0 92 28 7f
        E 144 82 28 00
        E 32 b2 0b 7f
        E 0 92 28 7f
        E 144 82 28 00
        E 32 b2 0b 7f
        E 0 92 28 7f
        E 144 82 28 00
        E 48 b2 0b 7f
        E 0 92 28 7f
        E 144 82 28 00
        E 32 b2 0b 7f
        E 0 92 28 7f
        E 160 82 28 00
        E 16 b2 0b 7f
        E 0 92 28 7f
        E 96 82 28 00
        E 0 b2 0b 7f
        E 0 92 68 7f
        E 80 82 68 00
        E 3824 b2 0b 7f
        E 0 92 68 7f
        E 80 82 68 00
        E 2688 b2 0b 7f
        E 0 92 68 7f
        E 80 82 68 00
        E 16592 b2 0b 7f
        E 0 92 28 7f
        E 144 82 28 00
        E 384 b2 0b 7f
        E 0 92 28 7f
        E 144 82 28 00
        E 0 b2 0b 7f
        E 0 92 26 7f
        E 336 82 26 00
        E 64 b2 0b 7f
        E 0 92 28 7f
        E 144 82 28 00
        E 928 b2 0b 7f
        E 0 92 2d 7f
        E 128 82 2d 00
        E 0 b2 0b 7f
        E 0 92 3c 7f
        E 272 82 3c 00
        E 0 b2 0b 7f
        E 0 92 2d 7f
        E 144 82 2d 00
        E 0 b2 0b 7f
        E 0 92 39 7f
        E 128 82 39 00
        E 0 b2 0b 7f
        E 0 92 2d 7f
        E 128 82 2d 00
        E 0 b2 0b 7f
        E 0 92 39 7f
        E 272 82 39 00
        E 0 b2 0b 7f
        E 0 92 2d 7f
        E 144 82 2d 00
        E 0 b2 0b 7f
        E 0 92 3c 7f
        E 256 82 3c 00
        E 0 b2 0b 7f
        E 0 92 2d 7f
        E 144 82 2d 00
        E 0 b2 0b 7f
        E 0 92 39 7f
        E 128 82 39 00
        E 0 b2 0b 7f
        E 0 92 2d 7f
        E 144 82 2d 00
        E 0 b2 0b 7f
        E 0 92 39 7f
        E 256 82 39 00
        E 4304 b2 0b 7f
        E 0 92 2d 7f
        E 128 82 2d 00
        E 0 b2 0b 7f
        E 0 92 3c 7f
        E 272 82 3c 00
        E 0 b2 0b 7f
        E 0 92 2d 7f
        E 144 82 2d 00
        E 0 b2 0b 7f
        E 0 92 39 7f
        E 128 82 39 00
        E 0 b2 0b 7f
        E 0 92 2d 7f
        E 128 82 2d 00
        E 0 b2 0b 7f
        E 0 92 39 7f
        E 272 82 39 00
        E 0 b2 0b 7f
        E 0 92 2d 7f
        E 128 82 2d 00
        E 0 b2 0b 7f
        E 0 92 3c 7f
        E 272 82 3c 00
        E 0 b2 0b 7f
        E 0 92 2d 7f
        E 144 82 2d 00
        E 0 b2 0b 7f
        E 0 92 39 7f
        E 128 82 39 00
        E 0 b2 0b 7f
        E 0 92 2d 7f
        E 128 82 2d 00
        E 0 b2 0b 7f
        E 0 92 39 7f
        E 272 82 39 00
        E 0 b2 0b 7f
        E 0 92 2f 7f
        E 160 82 2f 00
        E 112 b2 0b 7f
        E 0 92 3b 7f
        E 288 82 3b 00
        E 112 b2 0b 7f
        E 0 92 3f 7f
        E 144 82 3f 00
        E 128 b2 0b 7f
        E 0 92 3f 7f
        E 160 82 3f 00
        E 240 b2 0b 7f
        E 0 92 3f 7f
        E 304 82 3f 00
        E 96 b2 0b 7f
        E 0 92 3f 7f
        E 160 82 3f 00
        E 8912 b2 0b 7f
        E 0 92 34 7f
        E 144 82 34 00
        E 0 b2 0b 7f
        E 0 92 33 7f
        E 48 82 33 00
        E 0 b2 0b 7f
        E 0 92 32 7f
        E 64 82 32 00
        E 0 b2 0b 7f
        E 0 92 31 7f
        E 64 82 31 00
        E 0 b2 0b 7f
        E 0 92 30 7f
        E 96 82 30 00
        E 0 b2 0b 7f
        E 0 92 2f 7f
        E 112 82 2f 00
        E 80 b2 0b 7f
        E 0 92 32 7f
        E 160 82 32 00
        E 96 b2 0b 7f
        E 0 92 34 7f
        E 160 82 34 00
        E 112 b2 0b 7f
        E 0 92 28 7f
        E 304 82 28 00
        E 96 b2 0b 7f
        E 0 92 28 7f
        E 144 82 28 00
        E 0 b2 0b 7f
        E 0 92 2b 7f
        E 128 82 2b 00
        E 0 b2 0b 7f
        E 0 92 2d 7f
        E 144 82 2d 00
        E 0 b2 0b 7f
        E 0 92 2f 7f
        E 128 82 2f 00
        E 64 b2 0b 7f
        E 0 92 34 7f
        E 160 82 34 00
        E 0 b2 0b 7f
        E 0 92 33 7f
        E 32 82 33 00
        E 0 b2 0b 7f
        E 0 92 32 7f
        E 64 82 32 00
        E 0 b2 0b 7f
        E 0 92 31 7f
        E 96 82 31 00
        E 0 b2 0b 7f
        E 0 92 30 7f
        E 64 82 30 00
        E 0 b2 0b 7f
        E 0 92 2f 7f
        E 128 82 2f 00
        E 64 b2 0b 7f
        E 0 92 32 7f
        E 160 82 32 00
        E 112 b2 0b 7f
        E 0 92 34 7f
        E 160 82 34 00
        E 112 b2 0b 7f
        E 0 92 28 7f
        E 288 82 28 00
        E 112 b2 0b 7f
        E 0 92 28 7f
        E 128 82 28 00
        E 0 b2 0b 7f
        E 0 92 2b 7f
        E 144 82 2b 00
        E 0 b2 0b 7f
        E 0 92 2d 7f
        E 128 82 2d 00
        E 0 b2 0b 7f
        E 0 92 2f 7f
        E 128 82 2f 00
        E 80 b2 0b 7f
        E 0 92 34 7f
        E 176 82 34 00
        E 0 b2 0b 7f
        E 0 92 33 7f
        E 32 82 33 00
        E 0 b2 0b 7f
        E 0 92 32 7f
        E 64 82 32 00
        E 0 b2 0b 7f
        E 0 92 31 7f
        E 80 82 31 00
        E 0 b2 0b 7f
        E 0 92 30 7f
        E 64 82 30 00
        E 0 b2 0b 7f
        E 0 92 2f 7f
        E 112 82 2f 00
        E 64 b2 0b 7f
        E 0 92 32 7f
        E 144 82 32 00
        E 128 b2 0b 7f
        E 0 92 34 7f
        E 160 82 34 00
        E 112 b2 0b 7f
        E 0 92 28 7f
        E 288 82 28 00
        E 112 b2 0b 7f
        E 0 92 28 7f
        E 128 82 28 00
        E 0 b2 0b 7f
        E 0 92 2b 7f
        E 144 82 2b 00
        E 0 b2 0b 7f
        E 0 92 2d 7f
        E 128 82 2d 00
        E 0 b2 0b 7f
        E 0 92 2f 7f
        E 144 82 2f 00
        E 64 b2 0b 7f
        E 0 92 34 7f
        E 176 82 34 00
        E 0 b2 0b 7f
        E 0 92 33 7f
        E 32 82 33 00
        E 0 b2 0b 7f
        E 0 92 32 7f
        E 48 82 32 00
        E 0 b2 0b 7f
        E 0 92 31 7f
        E 96 82 31 00
        E 0 b2 0b 7f
        E 0 92 30 7f
        E 64 82 30 00
        E 0 b2 0b 7f
        E 0 92 2f 7f
        E 112 82 2f 00
        E 80 b2 0b 7f
        E 0 92 32 7f
        E 160 82 32 00
        E 96 b2 0b 7f
        E 0 92 34 7f
        E 144 82 34 00
        E 128 b2 0b 7f
        E 0 92 28 7f
        E 304 82 28 00
        E 96 b2 0b 7f
        E 0 92 28 7f
        E 144 82 28 00
        E 0 b2 0b 7f
        E 0 92 2b 7f
        E 128 82 2b 00
        E 0 b2 0b 7f
        E 0 92 2d 7f
        E 144 82 2d 00
        E 0 b2 0b 7f
        E 0 92 2f 7f
        E 128 82 2f 00
        E 64 b2 0b 7f
        E 0 92 2f 7f
        E 160 82 2f 00
        E 0 b2 0b 7f
        E 0 92 2e 7f
        E 64 82 2e 00
        E 0 b2 0b 7f
        E 0 92 2d 7f
        E 96 82 2d 00
        E 0 b2 0b 7f
        E 0 92 2c 7f
        E 96 82 2c 00
        E 0 b2 0b 7f
        E 0 92 2b 7f
        E 128 82 2b 00
        E 64 b2 0b 7f
        E 0 92 2d 7f
        E 160 82 2d 00
        E 112 b2 0b 7f
        E 0 92 2f 7f
        E 160 82 2f 00
        E 96 b2 0b 7f
        E 0 92 23 7f
        E 288 82 23 00
        E 128 b2 0b 7f
        E 0 92 23 7f
        E 128 82 23 00
        E 0 b2 0b 7f
        E 0 92 26 7f
        E 128 82 26 00
        E 0 b2 0b 7f
        E 0 92 28 7f
        E 144 82 28 00
        E 0 b2 0b 7f
        E 0 92 2a 7f
        E 128 82 2a 00
        E 64 b2 0b 7f
        E 0 92 2f 7f
        E 160 82 2f 00
        E 0 b2 0b 7f
        E 0 92 2e 7f
        E 64 82 2e 00
        E 0 b2 0b 7f
        E 0 92 2d 7f
        E 96 82 2d 00
        E 0 b2 0b 7f
        E 0 92 2c 7f
        E 80 82 2c 00
        E 0 b2 0b 7f
        E 0 92 2b 7f
        E 144 82 2b 00
        E 64 b2 0b 7f
        E 0 92 2d 7f
        E 160 82 2d 00
        E 112 b2 0b 7f
        E 0 92 2f 7f
        E 160 82 2f 00
        E 112 b2 0b 7f
        E 0 92 23 7f
        E 288 82 23 00
        E 112 b2 0b 7f
        E 0 92 23 7f
        E 128 82 23 00
        E 0 b2 0b 7f
        E 0 92 26 7f
        E 144 82 26 00
        E 0 b2 0b 7f
        E 0 92 28 7f
        E 128 82 28 00
        E 0 b2 0b 7f
        E 0 92 2a 7f
        E 128 82 2a 00
        E 80 b2 0b 7f
        E 0 92 34 7f
        E 144 82 34 00
        E 0 b2 0b 7f
        E 0 92 33 7f
        E 64 82 33 00
        E 0 b2 0b 7f
        E 0 92 32 7f
        E 64 82 32 00
        E 0 b2 0b 7f
        E 0 92 31 7f
        E 48 82 31 00
        E 0 b2 0b 7f
        E 0 92 30 7f
        E 96 82 30 00
        E 0 b2 0b 7f
        E 0 92 2f 7f
        E 112 82 2f 00
        E 64 b2 0b 7f
        E 0 92 32 7f
        E 160 82 32 00
        E 112 b2 0b 7f
        E 0 92 34 7f
        E 160 82 34 00
        E 112 b2 0b 7f
        E 0 92 28 7f
        E 288 82 28 00
        E 112 b2 0b 7f
        E 0 92 28 7f
        E 144 82 28 00
        E 0 b2 0b 7f
        E 0 92 2b 7f
        E 128 82 2b 00
        E 0 b2 0b 7f
        E 0 92 2d 7f
        E 128 82 2d 00
        E 0 b2 0b 7f
        E 0 92 2f 7f
        E 144 82 2f 00
        E 64 b2 0b 7f
        E 0 92 34 7f
        E 144 82 34 00
        E 0 b2 0b 7f
        E 0 92 33 7f
        E 48 82 33 00
        E 0 b2 0b 7f
        E 0 92 32 7f
        E 64 82 32 00
        E 0 b2 0b 7f
        E 0 92 31 7f
        E 64 82 31 00
        E 0 b2 0b 7f
        E 0 92 30 7f
        E 96 82 30 00
        E 0 b2 0b 7f
        E 0 92 2f 7f
        E 128 82 2f 00
        E 64 b2 0b 7f
        E 0 92 32 7f
        E 144 82 32 00
        E 128 b2 0b 7f
        E 0 92 34 7f
        E 160 82 34 00
        E 96 b2 0b 7f
        E 0 92 28 7f
        E 304 82 28 00
        E 112 b2 0b 7f
        E 0 92 28 7f
        E 128 82 28 00
        E 0 b2 0b 7f
        E 0 92 2b 7f
        E 128 82 2b 00
        E 0 b2 0b 7f
        E 0 92 2d 7f
        E 144 82 2d 00
        E 0 b2 0b 7f
        E 0 92 2f 7f
        E 128 82 2f 00
        E 0 b2 0b 7f
        E 0 92 24 7f
        E 2144 82 24 00
        E 0 b2 0b 7f
        E 0 92 2a 7f
        E 2160 82 2a 00
        E 0 b2 0b 7f
        E 0 92 26 7f
        E 128 82 26 00
        E 0 b2 0b 7f
        E 0 92 28 7f
        E 128 82 28 00
        E 0 b2 0b 7f
        E 0 92 3d 7f
        E 144 82 3d 00
        E 0 b2 0b 7f
        E 0 92 3e 7f
        E 144 82 3e 00
        E 128 b2 0b 7f
        E 0 92 3e 7f
        E 160 82 3e 00
        E 96 b2 0b 7f
        E 0 92 3e 7f
        E 160 82 3e 00
        E 256 b2 0b 7f
        E 0 92 3e 7f
        E 288 82 3e 00
        E 112 b2 0b 7f
        E 0 92 3e 7f
        E 144 82 3e 00
        E 128 b2 0b 7f
        E 0 92 28 7f
        E 128 82 28 00
        E 0 b2 0b 7f
        E 0 92 26 7f
        E 128 82 26 00
        E 0 b2 0b 7f
        E 0 92 28 7f
        E 144 82 28 00
        E 0 b2 0b 7f
        E 0 92 3d 7f
        E 128 82 3d 00
        E 0 b2 0b 7f
        E 0 92 3e 7f
        E 144 82 3e 00
        E 128 b2 0b 7f
        E 0 92 3e 7f
        E 160 82 3e 00
        E 112 b2 0b 7f
        E 0 92 3e 7f
        E 160 82 3e 00
        E 240 b2 0b 7f
        E 0 92 3e 7f
        E 288 82 3e 00
        E 112 b2 0b 7f
        E 0 92 3e 7f
        E 160 82 3e 00
        E 112 b2 0b 7f
        E 0 92 28 7f
        E 128 82 28 00
        E 0 b2 0b 7f
        E 0 92 26 7f
        E 144 82 26 00
        E 0 b2 0b 7f
        E 0 92 28 7f
        E 128 82 28 00
        E 0 b2 0b 7f
        E 0 92 3d 7f
        E 128 82 3d 00
        E 0 b2 0b 7f
        E 0 92 3e 7f
        E 144 82 3e 00
        E 128 b2 0b 7f
        E 0 92 3e 7f
        E 160 82 3e 00
        E 112 b2 0b 7f
        E 0 92 3e 7f
        E 160 82 3e 00
        E 240 b2 0b 7f
        E 0 92 3e 7f
        E 304 82 3e 00
        E 96 b2 0b 7f
        E 0 92 3e 7f
        E 160 82 3e 00
        E 112 b2 0b 7f
        E 0 92 28 7f
        E 144 82 28 00
        E 0 b2 0b 7f
        E 0 92 26 7f
        E 128 82 26 00
        E 0 b2 0b 7f
        E 0 92 28 7f
        E 128 82 28 00
        E 0 b2 0b 7f
        E 0 92 3d 7f
        E 144 82 3d 00
        E 0 b2 0b 7f
        E 0 92 3e 7f
        E 144 82 3e 00
        E 128 b2 0b 7f
        E 0 92 3e 7f
        E 144 82 3e 00
        E 112 b2 0b 7f
        E 0 92 3e 7f
        E 144 82 3e 00
        E 256 b2 0b 7f
        E 0 92 3e 7f
        E 304 82 3e 00
        E 112 b2 0b 7f
        E 0 92 3e 7f
        E 144 82 3e 00
        E 112 b2 0b 7f
        E 0 92 28 7f
        E 144 82 28 00
        E 0 b2 0b 7f
        E 0 92 2d 7f
        E 144 82 2d 00
        E 128 b2 0b 7f
        E 0 92 2d 7f
        E 160 82 2d 00
        E 96 b2 0b 7f
        E 0 92 2d 7f
        E 160 82 2d 00
        E 112 b2 0b 7f
        E 0 92 2d 7f
        E 144 82 2d 00
        E 128 b2 0b 7f
        E 0 92 2d 7f
        E 144 82 2d 00
        E 128 b2 0b 7f
        E 0 92 2d 7f
        E 144 82 2d 00
        E 128 b2 0b 7f
        E 0 92 2d 7f
        E 160 82 2d 00
        E 96 b2 0b 7f
        E 0 92 2d 7f
        E 160 82 2d 00
        E 112 b2 0b 7f
        E 0 92 2f 7f
        E 144 82 2f 00
        E 128 b2 0b 7f
        E 0 92 2f 7f
        E 160 82 2f 00
        E 112 b2 0b 7f
        E 0 92 2f 7f
        E 160 82 2f 00
        E 112 b2 0b 7f
        E 0 92 2f 7f
        E 160 82 2f 00
        E 96 b2 0b 7f
        E 0 92 2f 7f
        E 160 82 2f 00
        E 112 b2 0b 7f
        E 0 92 2f 7f
        E 160 82 2f 00
        E 112 b2 0b 7f
        E 0 92 2f 7f
        E 144 82 2f 00
        E 128 b2 0b 7f
        E 0 92 2f 7f
        E 144 82 2f 00
        E 8720 b2 0b 7f
        E 0 92 28 7f
        E 160 82 28 00
        E 368 b2 0b 7f
        E 0 92 28 7f
        E 144 82 28 00
        E 0 b2 0b 7f
        E 0 92 26 7f
        E 336 82 26 00
        E 64 b2 0b 7f
        E 0 92 28 7f
        E 160 82 28 00
        E 912 b2 0b 7f
        E 0 92 2d 7f
        E 128 82 2d 00
        E 0 b2 0b 7f
        E 0 92 3c 7f
        E 272 82 3c 00
        E 0 b2 0b 7f
        E 0 92 2d 7f
        E 128 82 2d 00
        E 0 b2 0b 7f
        E 0 92 39 7f
        E 144 82 39 00
        E 0 b2 0b 7f
        E 0 92 2d 7f
        E 128 82 2d 00
        E 0 b2 0b 7f
        E 0 92 39 7f
        E 272 82 39 00
        E 0 b2 0b 7f
        E 0 92 2d 7f
        E 128 82 2d 00
        E 0 b2 0b 7f
        E 0 92 3c 7f
        E 48 82 3c 00
        E 0 ff 2f 00
      >
    >
  >
  <TRACK {0077E784-4D93-4D1D-B99F-3DA114D67F99}
    NAME "NES - Noise / Drums [ch3]"
    PEAKCOL 11184810
    BEAT -1
    AUTOMODE 0
    PANLAWFLAGS 3
    VOLPAN 1 0 -1 -1 1
    MUTESOLO 0 0 0
    IPHASE 0
    PLAYOFFS 0 1
    ISBUS 0 0
    BUSCOMP 0 0 0 0 0
    SHOWINMIX 1 0.6667 0.5 1 0.5 0 0 0
    FIXEDLANES 9 0 0 0 0
    SEL 0
    REC 0 5088 1 0 0 0 0 0
    VU 2
    TRACKHEIGHT 0 0 0 0 0 0 0
    INQ 0 0 0 0.5 100 0 0 100
    NCHAN 2
    FX 1
    TRACKID {0077E784-4D93-4D1D-B99F-3DA114D67F99}
    PERF 0
    MIDIOUT -1
    MAINSEND 1 0
    <FXCHAIN
      WNDRECT 24 52 700 560
      SHOW 0
      LASTSEL 0
      DOCKED 0
      BYPASS 0 0 0
      <JS "ReapNES Studio/ReapNES_Console.jsfx" ""
        2 15 1 10 80 10 100 2 1 15 1 5 60 10 80 1 1 0 50 0 0 15 1 0 100 0 0 0.500000 0.500000 0.400000 0.300000 0.800000 3 1 0 0 0 0 - - - - - - - - - - - - - - - - - - - - - - - - - -
      >
      FLOATPOS 0 0 0 0
      FXID {B2B20BF9-2153-4717-B982-9B43D38F5287}
      WAK 0 0
    >
    <ITEM
      POSITION 0
      LENGTH 151.52411030000002
      LOOP 0
      ALLTAKES 0
      FADEIN 0 0 0 0 0 0 0
      FADEOUT 0 0 0 0 0 0 0
      MUTE 0 0
      SEL 0
      IGUID {2ED6C1CD-91CE-4107-8811-F5D7E02EE6E4}
      <SOURCE MIDI
        HASDATA 1 480 QN
        CCINTERP 32
        E 0 93 26 3b
        E 176 83 26 00
        E 0 93 2a 3b
        E 176 83 2a 00
        E 0 93 24 5d
        E 96 83 24 00
        E 0 93 2a 3b
        E 272 83 2a 00
        E 0 93 26 3b
        E 176 83 26 00
        E 0 93 2a 3b
        E 176 83 2a 00
        E 0 93 24 5d
        E 176 83 24 00
        E 0 93 2a 3b
        E 176 83 2a 00
        E 0 93 26 3b
        E 176 83 26 00
        E 0 93 2a 3b
        E 176 83 2a 00
        E 0 93 24 5d
        E 96 83 24 00
        E 0 93 2a 3b
        E 272 83 2a 00
        E 0 93 26 3b
        E 176 83 26 00
        E 0 93 2a 3b
        E 176 83 2a 00
        E 0 93 24 5d
        E 176 83 24 00
        E 0 93 2a 3b
        E 176 83 2a 00
        E 0 93 26 3b
        E 176 83 26 00
        E 0 93 2a 3b
        E 176 83 2a 00
        E 0 93 24 5d
        E 96 83 24 00
        E 0 93 2a 3b
        E 272 83 2a 00
        E 0 93 26 3b
        E 176 83 26 00
        E 0 93 2a 3b
        E 176 83 2a 00
        E 0 93 24 5d
        E 176 83 24 00
        E 0 93 2a 3b
        E 176 83 2a 00
        E 0 93 26 3b
        E 208 83 26 00
        E 0 93 24 08
        E 3536 83 24 00
        E 0 93 26 3b
        E 32 83 26 00
        E 0 93 2a 2a
        E 80 83 2a 00
        E 0 93 26 2a
        E 816 83 26 00
        E 0 93 24 5d
        E 80 83 24 00
        E 0 93 2a 3b
        E 272 83 2a 00
        E 0 93 26 3b
        E 176 83 26 00
        E 0 93 2a 3b
        E 176 83 2a 00
        E 0 93 24 5d
        E 176 83 24 00
        E 0 93 2a 3b
        E 176 83 2a 00
        E 0 93 26 3b
        E 160 83 26 00
        E 0 93 24 7f
        E 704 83 24 00
        E 0 93 26 3b
        E 32 83 26 00
        E 0 93 2a 3b
        E 176 83 2a 00
        E 0 93 24 5d
        E 176 83 24 00
        E 0 93 2a 3b
        E 176 83 2a 00
        E 0 93 26 3b
        E 192 83 26 00
        E 0 93 2a 3b
        E 176 83 2a 00
        E 0 93 24 5d
        E 80 83 24 00
        E 0 93 2a 3b
        E 272 83 2a 00
        E 0 93 26 3b
        E 176 83 26 00
        E 0 93 2a 3b
        E 176 83 2a 00
        E 0 93 24 5d
        E 176 83 24 00
        E 0 93 2a 3b
        E 176 83 2a 00
        E 0 93 26 3b
        E 192 83 26 00
        E 0 93 2a 3b
        E 176 83 2a 00
        E 0 93 24 5d
        E 80 83 24 00
        E 0 93 2a 2a
        E 80 83 2a 00
        E 0 93 24 08
        E 240 83 24 00
        E 0 93 24 08
        E 80 83 24 00
        E 0 93 2d 08
        E 80 83 2d 00
        E 0 93 2d 08
        E 1600 83 2d 00
        E 0 93 2d 44
        E 80 83 2d 00
        E 0 93 24 55
        E 240 83 24 00
        E 0 93 24 7f
        E 3200 83 24 00
        E 0 93 2a 3b
        E 32 83 2a 00
        E 0 93 26 3b
        E 1424 83 26 00
        E 0 93 24 5d
        E 80 83 24 00
        E 0 93 2a 3b
        E 272 83 2a 00
        E 0 93 26 3b
        E 176 83 26 00
        E 0 93 2a 3b
        E 176 83 2a 00
        E 0 93 24 5d
        E 192 83 24 00
        E 0 93 2a 3b
        E 176 83 2a 00
        E 0 93 26 3b
        E 176 83 26 00
        E 0 93 2a 3b
        E 176 83 2a 00
        E 0 93 24 5d
        E 96 83 24 00
        E 0 93 2a 3b
        E 256 83 2a 00
        E 0 93 26 3b
        E 176 83 26 00
        E 0 93 2a 3b
        E 176 83 2a 00
        E 0 93 24 5d
        E 192 83 24 00
        E 0 93 2a 3b
        E 176 83 2a 00
        E 0 93 26 3b
        E 176 83 26 00
        E 0 93 2a 3b
        E 176 83 2a 00
        E 0 93 24 5d
        E 96 83 24 00
        E 0 93 2a 3b
        E 256 83 2a 00
        E 0 93 26 3b
        E 176 83 26 00
        E 0 93 2a 3b
        E 192 83 2a 00
        E 0 93 24 5d
        E 176 83 24 00
        E 0 93 2a 3b
        E 176 83 2a 00
        E 0 93 26 3b
        E 176 83 26 00
        E 0 93 2a 3b
        E 176 83 2a 00
        E 0 93 24 5d
        E 96 83 24 00
        E 0 93 2a 3b
        E 256 83 2a 00
        E 0 93 26 3b
        E 176 83 26 00
        E 0 93 2a 3b
        E 192 83 2a 00
        E 0 93 24 5d
        E 176 83 24 00
        E 0 93 2a 3b
        E 176 83 2a 00
        E 0 93 26 3b
        E 176 83 26 00
        E 0 93 2a 3b
        E 176 83 2a 00
        E 0 93 24 5d
        E 96 83 24 00
        E 0 93 2a 3b
        E 256 83 2a 00
        E 0 93 26 3b
        E 176 83 26 00
        E 0 93 2a 3b
        E 192 83 2a 00
        E 0 93 24 5d
        E 176 83 24 00
        E 0 93 2a 3b
        E 176 83 2a 00
        E 0 93 26 3b
        E 176 83 26 00
        E 0 93 2a 3b
        E 176 83 2a 00
        E 0 93 24 5d
        E 96 83 24 00
        E 0 93 2a 3b
        E 256 83 2a 00
        E 0 93 26 3b
        E 192 83 26 00
        E 0 93 2a 3b
        E 176 83 2a 00
        E 0 93 24 5d
        E 176 83 24 00
        E 0 93 2a 3b
        E 176 83 2a 00
        E 0 93 26 3b
        E 176 83 26 00
        E 0 93 2a 3b
        E 176 83 2a 00
        E 0 93 24 5d
        E 96 83 24 00
        E 0 93 2a 3b
        E 256 83 2a 00
        E 0 93 26 3b
        E 192 83 26 00
        E 0 93 2a 3b
        E 176 83 2a 00
        E 0 93 24 5d
        E 176 83 24 00
        E 0 93 2a 3b
        E 176 83 2a 00
        E 0 93 26 3b
        E 176 83 26 00
        E 0 93 2a 3b
        E 176 83 2a 00
        E 0 93 24 5d
        E 96 83 24 00
        E 0 93 2a 3b
        E 256 83 2a 00
        E 0 93 26 3b
        E 192 83 26 00
        E 0 93 2a 3b
        E 176 83 2a 00
        E 0 93 26 2a
        E 704 83 26 00
        E 0 93 24 5d
        E 96 83 24 00
        E 0 93 2a 3b
        E 272 83 2a 00
        E 0 93 26 3b
        E 176 83 26 00
        E 0 93 2a 3b
        E 176 83 2a 00
        E 0 93 24 5d
        E 176 83 24 00
        E 0 93 2a 3b
        E 176 83 2a 00
        E 0 93 26 3b
        E 176 83 26 00
        E 0 93 2a 3b
        E 176 83 2a 00
        E 0 93 24 5d
        E 96 83 24 00
        E 0 93 2a 3b
        E 272 83 2a 00
        E 0 93 26 3b
        E 176 83 26 00
        E 0 93 2a 3b
        E 176 83 2a 00
        E 0 93 24 5d
        E 176 83 24 00
        E 0 93 2a 3b
        E 176 83 2a 00
        E 0 93 26 3b
        E 176 83 26 00
        E 0 93 2a 3b
        E 176 83 2a 00
        E 0 93 24 5d
        E 96 83 24 00
        E 0 93 2a 3b
        E 272 83 2a 00
        E 0 93 26 3b
        E 176 83 26 00
        E 0 93 2a 3b
        E 176 83 2a 00
        E 0 93 24 5d
        E 176 83 24 00
        E 0 93 2a 3b
        E 176 83 2a 00
        E 0 93 26 3b
        E 176 83 26 00
        E 0 93 2a 3b
        E 176 83 2a 00
        E 0 93 24 5d
        E 96 83 24 00
        E 0 93 2a 3b
        E 272 83 2a 00
        E 0 93 26 3b
        E 176 83 26 00
        E 0 93 2a 3b
        E 176 83 2a 00
        E 0 93 24 5d
        E 176 83 24 00
        E 0 93 2a 3b
        E 176 83 2a 00
        E 0 93 26 3b
        E 176 83 26 00
        E 0 93 2a 3b
        E 176 83 2a 00
        E 0 93 24 5d
        E 96 83 24 00
        E 0 93 2a 3b
        E 272 83 2a 00
        E 0 93 26 3b
        E 176 83 26 00
        E 0 93 2a 3b
        E 176 83 2a 00
        E 0 93 24 5d
        E 176 83 24 00
        E 0 93 2a 3b
        E 176 83 2a 00
        E 0 93 26 3b
        E 176 83 26 00
        E 0 93 2a 3b
        E 176 83 2a 00
        E 0 93 24 5d
        E 96 83 24 00
        E 0 93 2a 3b
        E 272 83 2a 00
        E 0 93 26 3b
        E 176 83 26 00
        E 0 93 2a 3b
        E 176 83 2a 00
        E 0 93 24 5d
        E 176 83 24 00
        E 0 93 2a 3b
        E 176 83 2a 00
        E 0 93 26 3b
        E 176 83 26 00
        E 0 93 2a 3b
        E 192 83 2a 00
        E 0 93 24 5d
        E 80 83 24 00
        E 0 93 2a 3b
        E 288 83 2a 00
        E 0 93 26 3b
        E 112 83 26 00
        E 0 93 26 11
        E 240 83 26 00
        E 0 93 24 5d
        E 32 83 24 00
        E 0 93 26 66
        E 32 83 26 00
        E 0 93 24 5d
        E 32 83 24 00
        E 0 93 26 66
        E 32 83 26 00
        E 0 93 24 5d
        E 32 83 24 00
        E 0 93 26 66
        E 32 83 26 00
        E 0 93 2a 3b
        E 32 83 2a 00
        E 0 93 26 66
        E 32 83 26 00
        E 0 93 2a 3b
        E 32 83 2a 00
        E 0 93 26 66
        E 32 83 26 00
        E 0 93 2a 3b
        E 32 83 2a 00
        E 0 93 26 66
        E 32 83 26 00
        E 0 93 26 3b
        E 32 83 26 00
        E 0 93 26 66
        E 32 83 26 00
        E 0 93 26 3b
        E 32 83 26 00
        E 0 93 26 66
        E 32 83 26 00
        E 0 93 26 3b
        E 32 83 26 00
        E 0 93 26 66
        E 32 83 26 00
        E 0 93 2a 3b
        E 32 83 2a 00
        E 0 93 26 66
        E 32 83 26 00
        E 0 93 2a 3b
        E 32 83 2a 00
        E 0 93 26 66
        E 32 83 26 00
        E 0 93 2a 3b
        E 32 83 2a 00
        E 0 93 26 66
        E 32 83 26 00
        E 0 93 24 5d
        E 32 83 24 00
        E 0 93 26 66
        E 32 83 26 00
        E 0 93 2a 3b
        E 96 83 2a 00
        E 0 93 26 66
        E 32 83 26 00
        E 0 93 2a 33
        E 96 83 2a 00
        E 0 93 26 66
        E 32 83 26 00
        E 0 93 26 3b
        E 32 83 26 00
        E 0 93 26 66
        E 32 83 26 00
        E 0 93 2a 3b
        E 32 83 2a 00
        E 0 93 26 66
        E 32 83 26 00
        E 0 93 2a 2a
        E 32 83 2a 00
        E 0 93 26 66
        E 32 83 26 00
        E 0 93 26 33
        E 32 83 26 00
        E 0 93 26 66
        E 32 83 26 00
        E 0 93 26 2a
        E 32 83 26 00
        E 0 93 26 66
        E 32 83 26 00
        E 0 93 26 22
        E 32 83 26 00
        E 0 93 26 66
        E 32 83 26 00
        E 0 93 24 5d
        E 32 83 24 00
        E 0 93 26 66
        E 32 83 26 00
        E 0 93 24 5d
        E 32 83 24 00
        E 0 93 26 66
        E 32 83 26 00
        E 0 93 2a 3b
        E 32 83 2a 00
        E 0 93 26 66
        E 32 83 26 00
        E 0 93 2a 3b
        E 112 83 2a 00
        E 0 93 26 3b
        E 48 83 26 00
        E 0 93 26 66
        E 32 83 26 00
        E 0 93 26 3b
        E 32 83 26 00
        E 0 93 26 66
        E 32 83 26 00
        E 0 93 26 3b
        E 32 83 26 00
        E 0 93 2a 3b
        E 128 83 2a 00
        E 0 93 26 66
        E 32 83 26 00
        E 0 93 2a 3b
        E 32 83 2a 00
        E 0 93 24 5d
        E 80 83 24 00
        E 0 93 2a 3b
        E 272 83 2a 00
        E 0 93 26 3b
        E 176 83 26 00
        E 0 93 2a 3b
        E 176 83 2a 00
        E 0 93 24 5d
        E 176 83 24 00
        E 0 93 2a 3b
        E 176 83 2a 00
        E 0 93 26 3b
        E 192 83 26 00
        E 0 93 2a 3b
        E 176 83 2a 00
        E 0 93 24 5d
        E 80 83 24 00
        E 0 93 2a 3b
        E 272 83 2a 00
        E 0 93 26 3b
        E 176 83 26 00
        E 0 93 2a 3b
        E 176 83 2a 00
        E 0 93 24 5d
        E 176 83 24 00
        E 0 93 2a 3b
        E 176 83 2a 00
        E 0 93 26 3b
        E 192 83 26 00
        E 0 93 2a 3b
        E 176 83 2a 00
        E 0 93 24 5d
        E 80 83 24 00
        E 0 93 2a 3b
        E 272 83 2a 00
        E 0 93 26 3b
        E 176 83 26 00
        E 0 93 2a 3b
        E 176 83 2a 00
        E 0 93 24 5d
        E 176 83 24 00
        E 0 93 2a 3b
        E 176 83 2a 00
        E 0 93 26 3b
        E 192 83 26 00
        E 0 93 2a 3b
        E 176 83 2a 00
        E 0 93 24 5d
        E 80 83 24 00
        E 0 93 2a 2a
        E 288 83 2a 00
        E 0 93 26 3b
        E 176 83 26 00
        E 0 93 2a 2a
        E 96 83 2a 00
        E 0 93 26 2a
        E 800 83 26 00
        E 0 93 24 5d
        E 80 83 24 00
        E 0 93 2a 3b
        E 272 83 2a 00
        E 0 93 26 3b
        E 176 83 26 00
        E 0 93 2a 3b
        E 176 83 2a 00
        E 0 93 24 5d
        E 176 83 24 00
        E 0 93 2a 3b
        E 192 83 2a 00
        E 0 93 26 3b
        E 176 83 26 00
        E 0 93 2a 3b
        E 176 83 2a 00
        E 0 93 24 5d
        E 80 83 24 00
        E 0 93 2a 3b
        E 272 83 2a 00
        E 0 93 26 3b
        E 176 83 26 00
        E 0 93 2a 3b
        E 176 83 2a 00
        E 0 93 24 5d
        E 176 83 24 00
        E 0 93 2a 3b
        E 192 83 2a 00
        E 0 93 26 3b
        E 176 83 26 00
        E 0 93 2a 3b
        E 176 83 2a 00
        E 0 93 24 5d
        E 80 83 24 00
        E 0 93 2a 3b
        E 272 83 2a 00
        E 0 93 26 3b
        E 176 83 26 00
        E 0 93 2a 3b
        E 176 83 2a 00
        E 0 93 24 5d
        E 192 83 24 00
        E 0 93 2a 3b
        E 176 83 2a 00
        E 0 93 26 3b
        E 176 83 26 00
        E 0 93 2a 3b
        E 176 83 2a 00
        E 0 93 24 5d
        E 80 83 24 00
        E 0 93 2a 2a
        E 272 83 2a 00
        E 0 93 26 3b
        E 176 83 26 00
        E 0 93 2a 2a
        E 96 83 2a 00
        E 0 93 26 2a
        E 800 83 26 00
        E 0 93 24 5d
        E 96 83 24 00
        E 0 93 2a 3b
        E 256 83 2a 00
        E 0 93 26 3b
        E 176 83 26 00
        E 0 93 2a 3b
        E 176 83 2a 00
        E 0 93 24 5d
        E 192 83 24 00
        E 0 93 2a 3b
        E 176 83 2a 00
        E 0 93 26 3b
        E 176 83 26 00
        E 0 93 2a 3b
        E 176 83 2a 00
        E 0 93 24 5d
        E 96 83 24 00
        E 0 93 2a 3b
        E 256 83 2a 00
        E 0 93 26 3b
        E 176 83 26 00
        E 0 93 2a 3b
        E 192 83 2a 00
        E 0 93 24 5d
        E 176 83 24 00
        E 0 93 2a 3b
        E 176 83 2a 00
        E 0 93 26 3b
        E 176 83 26 00
        E 0 93 2a 3b
        E 176 83 2a 00
        E 0 93 24 5d
        E 96 83 24 00
        E 0 93 2a 3b
        E 256 83 2a 00
        E 0 93 26 3b
        E 176 83 26 00
        E 0 93 2a 3b
        E 192 83 2a 00
        E 0 93 24 5d
        E 176 83 24 00
        E 0 93 2a 3b
        E 176 83 2a 00
        E 0 93 26 3b
        E 176 83 26 00
        E 0 93 2a 3b
        E 176 83 2a 00
        E 0 93 24 5d
        E 96 83 24 00
        E 0 93 2a 2a
        E 256 83 2a 00
        E 0 93 26 3b
        E 176 83 26 00
        E 0 93 2a 2a
        E 48 83 2a 00
        E 4176 93 2a 2a
        E 32 83 2a 00
        E 0 93 2a 2a
        E 48 83 2a 00
        E 0 93 2a 2a
        E 48 83 2a 00
        E 0 93 24 5d
        E 80 83 24 00
        E 0 93 2a 3b
        E 272 83 2a 00
        E 0 93 26 3b
        E 176 83 26 00
        E 0 93 2a 3b
        E 176 83 2a 00
        E 0 93 24 5d
        E 176 83 24 00
        E 0 93 2a 3b
        E 80 83 2a 00
        E 6816 93 24 08
        E 7920 83 24 00
        E 4400 93 2d 7f
        E 32 83 2d 00
        E 0 93 2a 2a
        E 32 83 2a 00
        E 0 93 26 7f
        E 32 83 26 00
        E 416 93 2d 7f
        E 32 83 2d 00
        E 0 93 2a 2a
        E 32 83 2a 00
        E 0 93 26 7f
        E 32 83 26 00
        E 288 93 2d 7f
        E 32 83 2d 00
        E 0 93 2a 2a
        E 32 83 2a 00
        E 0 93 26 7f
        E 32 83 26 00
        E 288 93 2d 7f
        E 32 83 2d 00
        E 0 93 2a 2a
        E 32 83 2a 00
        E 0 93 26 7f
        E 32 83 26 00
        E 32 93 2d 7f
        E 32 83 2d 00
        E 0 93 2a 2a
        E 32 83 2a 00
        E 0 93 26 7f
        E 32 83 26 00
        E 160 93 2d 7f
        E 32 83 2d 00
        E 0 93 2a 2a
        E 32 83 2a 00
        E 0 93 26 7f
        E 32 83 26 00
        E 32 93 2d 7f
        E 32 83 2d 00
        E 0 93 2a 2a
        E 32 83 2a 00
        E 0 93 26 7f
        E 32 83 26 00
        E 160 93 2d 7f
        E 32 83 2d 00
        E 0 93 2a 2a
        E 32 83 2a 00
        E 0 93 26 7f
        E 32 83 26 00
        E 32 93 2d 7f
        E 32 83 2d 00
        E 0 93 2a 2a
        E 32 83 2a 00
        E 0 93 26 7f
        E 32 83 26 00
        E 416 93 2d 7f
        E 32 83 2d 00
        E 0 93 2a 2a
        E 32 83 2a 00
        E 0 93 26 7f
        E 32 83 26 00
        E 288 93 2d 7f
        E 32 83 2d 00
        E 0 93 2a 2a
        E 32 83 2a 00
        E 0 93 26 7f
        E 32 83 26 00
        E 864 93 2d 44
        E 16 83 2d 00
        E 0 93 26 55
        E 16 83 26 00
        E 0 93 26 66
        E 16 83 26 00
        E 160 93 2d 3b
        E 528 83 2d 00
        E 0 93 26 3b
        E 544 83 26 00
        E 0 93 26 5d
        E 1072 83 26 00
        E 0 93 2d 3b
        E 192 83 2d 00
        E 80 93 2a 3b
        E 192 83 2a 00
        E 80 93 26 3b
        E 208 83 26 00
        E 64 93 2a 3b
        E 208 83 2a 00
        E 48 93 2d 3b
        E 192 83 2d 00
        E 80 93 2a 3b
        E 192 83 2a 00
        E 80 93 26 3b
        E 208 83 26 00
        E 64 93 2a 3b
        E 208 83 2a 00
        E 48 93 2d 3b
        E 192 83 2d 00
        E 80 93 2a 3b
        E 192 83 2a 00
        E 80 93 26 3b
        E 192 83 26 00
        E 80 93 2a 3b
        E 208 83 2a 00
        E 64 93 2d 3b
        E 208 83 2d 00
        E 48 93 2a 3b
        E 192 83 2a 00
        E 80 93 26 3b
        E 192 83 26 00
        E 80 93 2a 3b
        E 192 83 2a 00
        E 80 93 2d 3b
        E 208 83 2d 00
        E 64 93 2a 3b
        E 208 83 2a 00
        E 48 93 26 3b
        E 192 83 26 00
        E 80 93 2a 3b
        E 192 83 2a 00
        E 80 93 2d 3b
        E 208 83 2d 00
        E 64 93 2a 3b
        E 208 83 2a 00
        E 48 93 26 3b
        E 192 83 26 00
        E 80 93 2a 3b
        E 192 83 2a 00
        E 80 93 2d 3b
        E 192 83 2d 00
        E 80 93 2a 3b
        E 208 83 2a 00
        E 64 93 26 3b
        E 208 83 26 00
        E 48 93 2a 3b
        E 192 83 2a 00
        E 80 93 2d 3b
        E 192 83 2d 00
        E 80 93 2a 3b
        E 192 83 2a 00
        E 80 93 26 3b
        E 208 83 26 00
        E 64 93 2a 3b
        E 208 83 2a 00
        E 48 93 2d 5d
        E 2160 83 2d 00
        E 0 93 2a 44
        E 25776 83 2a 00
        E 0 93 2d 3b
        E 192 83 2d 00
        E 80 93 2a 3b
        E 192 83 2a 00
        E 80 93 26 3b
        E 208 83 26 00
        E 64 93 2a 3b
        E 208 83 2a 00
        E 48 93 2d 3b
        E 192 83 2d 00
        E 80 93 2a 3b
        E 192 83 2a 00
        E 80 93 26 3b
        E 208 83 26 00
        E 64 93 2a 3b
        E 208 83 2a 00
        E 48 93 2d 3b
        E 192 83 2d 00
        E 80 93 2a 3b
        E 192 83 2a 00
        E 80 93 26 3b
        E 192 83 26 00
        E 80 93 2a 3b
        E 208 83 2a 00
        E 64 93 2d 3b
        E 208 83 2d 00
        E 48 93 2a 3b
        E 192 83 2a 00
        E 80 93 26 3b
        E 192 83 26 00
        E 80 93 2a 3b
        E 192 83 2a 00
        E 80 93 2d 3b
        E 208 83 2d 00
        E 64 93 2a 3b
        E 208 83 2a 00
        E 48 93 26 3b
        E 192 83 26 00
        E 80 93 2a 3b
        E 192 83 2a 00
        E 80 93 2d 3b
        E 192 83 2d 00
        E 80 93 2a 3b
        E 208 83 2a 00
        E 48 93 26 3b
        E 192 83 26 00
        E 80 93 2a 3b
        E 192 83 2a 00
        E 80 93 2d 3b
        E 192 83 2d 00
        E 80 93 2a 3b
        E 208 83 2a 00
        E 64 93 26 3b
        E 208 83 26 00
        E 48 93 2a 3b
        E 192 83 2a 00
        E 80 93 2d 3b
        E 192 83 2d 00
        E 80 93 2a 3b
        E 192 83 2a 00
        E 80 93 26 3b
        E 208 83 26 00
        E 64 93 2a 3b
        E 208 83 2a 00
        E 48 93 2d 3b
        E 192 83 2d 00
        E 80 93 2a 3b
        E 192 83 2a 00
        E 80 93 26 3b
        E 192 83 26 00
        E 80 93 2a 3b
        E 208 83 2a 00
        E 64 93 2d 3b
        E 208 83 2d 00
        E 48 93 2a 3b
        E 192 83 2a 00
        E 80 93 26 3b
        E 192 83 26 00
        E 80 93 2a 3b
        E 208 83 2a 00
        E 64 93 2d 3b
        E 208 83 2d 00
        E 48 93 2a 3b
        E 192 83 2a 00
        E 80 93 26 3b
        E 192 83 26 00
        E 80 93 2a 3b
        E 192 83 2a 00
        E 80 93 2d 3b
        E 208 83 2d 00
        E 64 93 2a 3b
        E 208 83 2a 00
        E 48 93 26 3b
        E 192 83 26 00
        E 80 93 2a 3b
        E 192 83 2a 00
        E 80 93 2a 44
        E 4304 83 2a 00
        E 16 93 2a 7f
        E 32 83 2a 00
        E 4256 93 2a 7f
        E 32 83 2a 00
        E 4256 93 2d 3b
        E 528 83 2d 00
        E 0 93 26 3b
        E 544 83 26 00
        E 0 93 26 5d
        E 1072 83 26 00
        E 0 93 2d 3b
        E 192 83 2d 00
        E 80 93 2a 3b
        E 208 83 2a 00
        E 64 93 26 3b
        E 208 83 26 00
        E 48 93 2a 3b
        E 192 83 2a 00
        E 80 93 2d 3b
        E 144 83 2d 00
        E 0 ff 2f 00
      >
    >
  >
>