<REAPER_PROJECT 0.1 "7.27/win64" 1707000000
  <NOTES 0 2
    |ReapNES Studio Project
    |MIDI Import - Super_Mario_Bros._01_Overworld_mesen_v1
  >
  RIPPLE 0
  GROUPOVERRIDE 0 0 0
  AUTOXFADE 129
  ENVATTACH 3
  POOLEDENVATTACH 0
  MIXERUIFLAGS 11 48
  ENVFADESZ10 40
  PEAKGAIN 1
  FEEDBACK 0
  PANLAW 1
  PROJOFFS 0 0 0
  MAXPROJLEN 0 0
  GRID 3199 8 1 8 1 0 0 0
  TIMEMODE 1 5 -1 30 0 0 -1
  VIDEO_CONFIG 0 0 65792
  PANMODE 3
  PANLAWFLAGS 3
  CURSOR 0
  ZOOM 100 0 0
  VZOOMEX 6 0
  USE_REC_CFG 0
  RECMODE 1
  SMPTESYNC 0 30 100 40 1000 300 0 0 1 0 0
  LOOP 0
  LOOPGRAN 0 4
  RECORD_PATH "Media" ""
  <RECORD_CFG
    ZXZhdxgAAQ==
  >
  <APPLYFX_CFG
  >
  RENDER_FILE ""
  RENDER_PATTERN ""
  RENDER_FMT 0 2 0
  RENDER_1X 0
  RENDER_RANGE 1 0 0 18 1000
  RENDER_RESAMPLE 3 0 1
  RENDER_ADDTOPROJ 0
  RENDER_STEMS 0
  RENDER_DITHER 0
  TIMELOCKMODE 1
  TEMPOENVLOCKMODE 1
  ITEMMIX 1
  DEFPITCHMODE 589824 0
  TAKELANE 1
  SAMPLERATE 44100 0 0
  <RENDER_CFG
    ZXZhdxgAAQ==
  >
  LOCK 1
  <METRONOME 6 2
    VOL 0.25 0.125
    BEATLEN 4
    FREQ 1760 880 1
    SAMPLES "" ""
    SPLIGNORE 0 0
    SPLDEF 2 660 "" 0
    SPLDEF 3 440 "" 0
    PATTERN 0 169
    PATTERNSTR ABBB
    MULT 1
  >
  GLOBAL_AUTO -1
  TEMPO 128.59999614200012 4 4
  PLAYRATE 1 0 0.25 4
  SELECTION 0 0
  SELECTION2 0 0
  MASTERAUTOMODE 0
  MASTERTRACKHEIGHT 0 0
  MASTERPEAKCOL 16576
  MASTERMUTESOLO 0
  MASTERTRACKVIEW 0 0.6667 0.5 0.5 0 0 0 0 0 0 0 0 0 0
  MASTERHWOUT 0 0 1 0 0 0 0 -1
  MASTER_NCH 2 2
  MASTER_VOLUME 1 0 -1 -1 1
  MASTER_PANMODE 3
  MASTER_PANLAWFLAGS 3
  MASTER_FX 1
  MASTER_SEL 0
  <MASTERPLAYSPEEDENV
    EGUID {90CC7564-469F-4AA9-9808-D154DAC8A754}
    ACT 0 -1
    VIS 0 1 1
    LANEHEIGHT 0 0
    ARM 0
    DEFSHAPE 0 -1 -1
  >
  <TEMPOENVEX
    EGUID {19909835-DF56-40BF-8629-6E8A35493E2A}
    ACT 1 -1
    VIS 1 0 1
    LANEHEIGHT 0 0
    ARM 0
    DEFSHAPE 1 -1 -1
  >
  <PROJBAY
  >
  <TRACK {F273DF1D-2939-4557-B043-4A4170F311EB}
    NAME "NES - Pulse 1 [ch0]"
    PEAKCOL 16576606
    BEAT -1
    AUTOMODE 0
    PANLAWFLAGS 3
    VOLPAN 1 0 -1 -1 1
    MUTESOLO 0 0 0
    IPHASE 0
    PLAYOFFS 0 1
    ISBUS 0 0
    BUSCOMP 0 0 0 0 0
    SHOWINMIX 1 0.6667 0.5 1 0.5 0 0 0
    FIXEDLANES 9 0 0 0 0
    SEL 1
    REC 0 5088 1 0 0 0 0 0
    VU 2
    TRACKHEIGHT 0 0 0 0 0 0 0
    INQ 0 0 0 0.5 100 0 0 100
    NCHAN 2
    FX 1
    TRACKID {F273DF1D-2939-4557-B043-4A4170F311EB}
    PERF 0
    MIDIOUT -1
    MAINSEND 1 0
    <FXCHAIN
      WNDRECT 24 52 700 560
      SHOW 0
      LASTSEL 0
      DOCKED 0
      BYPASS 0 0 0
      <JS "ReapNES Studio/ReapNES_Console.jsfx" ""
        2 15 1 10 80 10 100 2 1 15 1 5 60 10 80 1 1 0 50 0 0 15 1 0 100 0 0 0.500000 0.500000 0.400000 0.300000 0.800000 0 1 0 0 0 0 - - - - - - - - - - - - - - - - - - - - - - - - - -
      >
      FLOATPOS 0 0 0 0
      FXID {8DA82875-FCC6-4067-9CB1-C0355F39814D}
      WAK 0 0
    >
    <ITEM
      POSITION 0
      LENGTH 173.4992276
      LOOP 0
      ALLTAKES 0
      FADEIN 0 0 0 0 0 0 0
      FADEOUT 0 0 0 0 0 0 0
      MUTE 0 0
      SEL 0
      IGUID {3519ED2D-EBAE-42DF-9B0D-65C3CF8F4C32}
      <SOURCE MIDI
        HASDATA 1 480 QN
        CCINTERP 32
        E 0 c0 50
        E 0 b0 0c 10
        E 0 b0 0b 20
        E 0 90 3d 20
        E 16 80 3d 00
        E 0 90 3e 20
        E 32 80 3e 00
        E 0 90 3f 20
        E 48 80 3f 00
        E 0 90 34 20
        E 192 b0 0b 18
        E 176 b0 0b 10
        E 0 80 34 00
        E 0 90 33 10
        E 560 80 33 00
        E 0 90 32 10
        E 624 80 32 00
        E 0 90 31 10
        E 688 80 31 00
        E 0 90 30 10
        E 688 80 30 00
        E 0 90 2f 10
        E 736 80 2f 00
        E 0 90 2e 10
        E 800 80 2e 00
        E 0 90 2d 10
        E 704 b0 0b 20
        E 0 80 2d 00
        E 0 90 26 20
        E 176 80 26 00
        E 0 90 28 20
        E 80 b0 0b 18
        E 96 b0 0b 20
        E 0 80 28 00
        E 0 90 43 20
        E 128 b0 0b 18
        E 48 b0 0c 20
        E 0 b0 0b 38
        E 0 80 43 00
        E 0 90 28 38
        E 64 b0 0b 30
        E 112 b0 0b 28
        E 112 80 28 00
        E 80 b0 0b 38
        E 0 90 2a 38
        E 48 b0 0b 30
        E 112 b0 0b 28
        E 112 b0 0b 20
        E 16 80 2a 00
        E 64 b0 0b 38
        E 0 90 2b 38
        E 32 b0 0b 30
        E 112 b0 0b 28
        E 112 b0 0b 20
        E 32 80 2b 00
        E 240 b0 0c 10
        E 0 b0 0b 30
        E 0 90 37 30
        E 80 b0 0b 28
        E 0 80 37 00
        E 0 90 38 28
        E 112 b0 0b 20
        E 48 80 38 00
        E 0 90 39 20
        E 64 b0 0b 18
        E 64 b0 0b 30
        E 48 b0 0b 28
        E 112 b0 0b 20
        E 16 b0 0b 30
        E 96 b0 0b 28
        E 80 b0 0b 30
        E 32 b0 0b 28
        E 112 b0 0b 20
        E 32 b0 0b 30
        E 80 b0 0b 28
        E 96 b0 0b 30
        E 0 80 39 00
        E 0 90 37 30
        E 32 b0 0b 28
        E 112 b0 0b 20
        E 112 b0 0b 18
        E 112 b0 0b 10
        E 112 b0 0b 08
        E 48 b0 0c 20
        E 0 b0 0b 38
        E 0 80 37 00
        E 0 90 2d 38
        E 64 b0 0b 30
        E 112 b0 0b 28
        E 112 b0 0b 20
        E 16 80 2d 00
        E 64 b0 0b 38
        E 0 90 2a 38
        E 32 b0 0b 30
        E 128 b0 0b 28
        E 112 b0 0b 20
        E 16 80 2a 00
        E 64 b0 0b 38
        E 0 90 2b 38
        E 32 b0 0b 30
        E 112 b0 0b 28
        E 112 b0 0b 20
        E 32 80 2b 00
        E 240 b0 0c 10
        E 0 b0 0b 30
        E 0 90 21 30
        E 16 b0 0b 28
        E 48 b0 0b 20
        E 64 b0 0b 18
        E 48 b0 0b 10
        E 64 b0 0b 08
        E 64 80 21 00
        E 64 b0 0b 30
        E 0 90 21 30
        E 48 b0 0b 28
        E 48 b0 0b 20
        E 64 b0 0b 18
        E 16 b0 0b 30
        E 0 80 21 00
        E 0 90 23 30
        E 32 b0 0b 28
        E 64 b0 0b 20
        E 48 b0 0b 18
        E 32 b0 0b 30
        E 32 b0 0b 28
        E 64 b0 0b 20
        E 48 b0 0b 18
        E 32 b0 0b 30
        E 0 80 23 00
        E 0 90 24 30
        E 32 b0 0b 28
        E 48 b0 0b 20
        E 64 b0 0b 18
        E 32 b0 0b 30
        E 0 80 24 00
        E 0 90 26 30
        E 16 b0 0b 28
        E 64 b0 0b 20
        E 48 b0 0b 18
        E 48 b0 0b 30
        E 0 80 26 00
        E 0 90 28 30
        E 16 b0 0b 28
        E 64 b0 0b 20
        E 48 b0 0b 18
        E 48 b0 0b 20
        E 0 80 28 00
        E 0 90 43 20
        E 176 b0 0b 18
        E 16 b0 0c 20
        E 0 b0 0b 38
        E 0 80 43 00
        E 0 90 28 38
        E 96 b0 0b 30
        E 128 b0 0b 28
        E 64 80 28 00
        E 64 b0 0b 38
        E 0 90 2a 38
        E 96 b0 0b 30
        E 112 b0 0b 28
        E 80 80 2a 00
        E 64 b0 0b 38
        E 0 90 2b 38
        E 80 b0 0b 30
        E 112 b0 0b 28
        E 96 80 2b 00
        E 240 b0 0c 10
        E 0 b0 0b 30
        E 0 90 37 30
        E 64 b0 0b 28
        E 0 80 37 00
        E 0 90 38 28
        E 112 b0 0b 20
        E 64 80 38 00
        E 0 90 39 20
        E 48 b0 0b 18
        E 80 b0 0b 30
        E 32 b0 0b 28
        E 128 b0 0b 20
        E 16 b0 0b 30
        E 96 b0 0b 28
        E 80 b0 0b 30
        E 32 b0 0b 28
        E 112 b0 0b 20
        E 32 b0 0b 30
        E 80 b0 0b 28
        E 96 b0 0b 30
        E 0 80 39 00
        E 0 90 37 30
        E 16 b0 0b 28
        E 128 b0 0b 20
        E 128 b0 0b 18
        E 112 b0 0b 10
        E 128 b0 0b 08
        E 64 b0 0c 20
        E 0 b0 0b 38
        E 0 80 37 00
        E 0 90 2d 38
        E 96 b0 0b 30
        E 32 b0 0c 60
        E 0 b0 0b 68
        E 0 80 2d 00
        E 0 90 32 68
        E 16 80 32 00
        E 0 90 2e 68
        E 16 80 2e 00
        E 0 90 2a 68
        E 16 80 2a 00
        E 0 90 23 68
        E 16 b0 0b 20
        E 0 80 23 00
        E 0 90 52 20
        E 16 80 52 00
        E 0 90 4b 20
        E 16 80 4b 00
        E 0 90 43 20
        E 16 80 43 00
        E 0 90 3f 20
        E 16 b0 0c 20
        E 0 b0 0b 28
        E 0 80 3f 00
        E 0 90 2d 28
        E 32 80 2d 00
        E 64 b0 0b 38
        E 0 90 2a 38
        E 96 b0 0b 30
        E 112 b0 0b 28
        E 80 b0 0c 60
        E 0 b0 0b 68
        E 0 80 2a 00
        E 0 90 32 68
        E 16 80 32 00
        E 0 90 2e 68
        E 16 80 2e 00
        E 0 90 2a 68
        E 16 80 2a 00
        E 0 90 23 68
        E 16 b0 0b 20
        E 0 80 23 00
        E 0 90 4f 20
        E 16 80 4f 00
        E 0 90 4b 20
        E 16 80 4b 00
        E 0 90 43 20
        E 16 80 43 00
        E 0 90 3f 20
        E 16 b0 0c 20
        E 0 b0 0b 38
        E 0 80 3f 00
        E 0 90 2b 38
        E 16 b0 0b 30
        E 112 b0 0b 28
        E 96 80 2b 00
        E 160 b0 0c 60
        E 0 b0 0b 68
        E 0 90 32 68
        E 16 80 32 00
        E 0 90 2e 68
        E 16 80 2e 00
        E 0 90 2a 68
        E 16 80 2a 00
        E 0 90 23 68
        E 16 b0 0b 20
        E 0 80 23 00
        E 0 90 52 20
        E 16 80 52 00
        E 0 90 4b 20
        E 16 80 4b 00
        E 0 90 43 20
        E 16 80 43 00
        E 0 90 3f 20
        E 16 b0 0c 10
        E 0 b0 0b 30
        E 0 80 3f 00
        E 0 90 21 30
        E 16 b0 0b 28
        E 48 b0 0b 20
        E 64 b0 0b 18
        E 64 b0 0b 10
        E 48 b0 0b 08
        E 64 80 21 00
        E 16 b0 0b 30
        E 0 90 21 30
        E 32 b0 0b 28
        E 64 b0 0b 20
        E 48 b0 0b 18
        E 32 b0 0b 30
        E 0 80 21 00
        E 0 90 23 30
        E 32 b0 0b 28
        E 48 b0 0b 20
        E 64 b0 0b 18
        E 32 b0 0b 30
        E 32 b0 0b 28
        E 48 b0 0b 20
        E 64 b0 0b 18
        E 32 b0 0b 30
        E 0 80 23 00
        E 0 90 24 30
        E 16 b0 0b 28
        E 64 b0 0b 20
        E 48 b0 0b 18
        E 48 b0 0b 30
        E 0 80 24 00
        E 0 90 26 30
        E 16 b0 0b 28
        E 48 b0 0b 20
        E 64 b0 0b 18
        E 48 b0 0b 30
        E 0 80 26 00
        E 0 90 28 30
        E 16 b0 0b 28
        E 48 b0 0b 20
        E 64 b0 0b 18
        E 48 b0 0b 10
        E 16 b0 0b 20
        E 0 80 28 00
        E 0 90 43 20
        E 176 b0 0b 30
        E 0 80 43 00
        E 0 90 2d 30
        E 96 b0 0b 28
        E 112 b0 0b 20
        E 80 80 2d 00
        E 64 b0 0b 30
        E 0 90 2d 30
        E 80 b0 0b 28
        E 112 b0 0b 20
        E 128 b0 0b 18
        E 32 80 2d 00
        E 192 b0 0b 30
        E 0 90 2d 30
        E 16 b0 0b 28
        E 112 b0 0b 20
        E 112 b0 0b 18
        E 112 b0 0b 10
        E 16 80 2d 00
        E 176 b0 0b 30
        E 0 90 2b 30
        E 32 b0 0b 28
        E 112 b0 0b 20
        E 128 b0 0b 18
        E 16 80 2b 00
        E 64 b0 0b 30
        E 0 90 2b 30
        E 32 b0 0b 28
        E 112 b0 0b 20
        E 112 b0 0b 18
        E 96 80 2b 00
        E 176 b0 0b 30
        E 0 90 2b 30
        E 64 b0 0b 28
        E 112 b0 0b 20
        E 112 b0 0b 18
        E 80 80 2b 00
        E 176 b0 0b 30
        E 0 90 2a 30
        E 96 b0 0b 28
        E 112 b0 0b 20
        E 80 80 2a 00
        E 64 b0 0b 30
        E 0 90 2a 30
        E 80 b0 0b 28
        E 112 b0 0b 20
        E 112 b0 0b 18
        E 48 80 2a 00
        E 176 b0 0b 30
        E 0 90 2a 30
        E 16 b0 0b 28
        E 112 b0 0b 20
        E 112 b0 0b 18
        E 112 b0 0b 10
        E 16 80 2a 00
        E 176 b0 0b 30
        E 0 90 2d 30
        E 32 b0 0b 28
        E 112 b0 0b 20
        E 112 b0 0b 18
        E 96 b0 0b 28
        E 0 80 2d 00
        E 0 90 3c 28
        E 16 b0 0b 20
        E 96 b0 0b 10
        E 0 80 3c 00
        E 0 90 2d 10
        E 64 b0 0b 28
        E 0 80 2d 00
        E 0 90 3b 28
        E 16 b0 0b 20
        E 96 b0 0b 10
        E 0 80 3b 00
        E 0 90 3c 10
        E 16 b0 0b 08
        E 48 b0 0b 28
        E 0 80 3c 00
        E 0 90 37 28
        E 64 b0 0b 20
        E 48 b0 0b 10
        E 0 80 37 00
        E 0 90 3b 10
        E 64 b0 0b 08
        E 16 b0 0b 28
        E 0 80 3b 00
        E 0 90 39 28
        E 96 b0 0b 10
        E 0 80 39 00
        E 0 90 37 10
        E 16 b0 0b 08
        E 64 b0 0b 28
        E 0 80 37 00
        E 0 90 34 28
        E 48 b0 0b 20
        E 64 b0 0b 10
        E 0 80 34 00
        E 0 90 39 10
        E 48 b0 0b 08
        E 16 b0 0b 28
        E 0 80 39 00
        E 0 90 37 28
        E 96 b0 0b 20
        E 16 b0 0b 10
        E 0 80 37 00
        E 0 90 34 10
        E 64 b0 0b 30
        E 0 80 34 00
        E 0 90 2d 30
        E 96 b0 0b 28
        E 112 b0 0b 20
        E 80 80 2d 00
        E 64 b0 0b 30
        E 0 90 2d 30
        E 80 b0 0b 28
        E 112 b0 0b 20
        E 112 b0 0b 18
        E 48 80 2d 00
        E 192 b0 0b 30
        E 0 90 2d 30
        E 96 b0 0b 28
        E 128 b0 0b 20
        E 112 b0 0b 18
        E 16 80 2d 00
        E 176 b0 0b 30
        E 0 90 2b 30
        E 32 b0 0b 28
        E 112 b0 0b 20
        E 112 b0 0b 18
        E 32 80 2b 00
        E 64 b0 0b 30
        E 0 90 2b 30
        E 16 b0 0b 28
        E 112 b0 0b 20
        E 112 b0 0b 18
        E 112 80 2b 00
        E 192 b0 0b 30
        E 0 90 2b 30
        E 48 b0 0b 28
        E 112 b0 0b 20
        E 112 b0 0b 18
        E 80 80 2b 00
        E 176 b0 0b 30
        E 0 90 2a 30
        E 80 b0 0b 28
        E 112 b0 0b 20
        E 96 80 2a 00
        E 64 b0 0b 30
        E 0 90 2a 30
        E 80 b0 0b 28
        E 112 b0 0b 20
        E 112 b0 0b 18
        E 64 80 2a 00
        E 176 b0 0b 30
        E 0 90 2a 30
        E 96 b0 0b 28
        E 112 b0 0b 20
        E 128 b0 0b 18
        E 32 80 2a 00
        E 176 b0 0b 30
        E 0 90 2d 30
        E 32 b0 0b 28
        E 112 b0 0b 20
        E 112 b0 0b 18
        E 32 80 2d 00
        E 64 b0 0b 30
        E 0 90 2d 30
        E 16 b0 0b 28
        E 112 b0 0b 20
        E 112 b0 0b 18
        E 112 b0 0b 10
        E 16 80 2d 00
        E 176 b0 0b 30
        E 0 90 2f 30
        E 48 b0 0b 28
        E 112 b0 0b 20
        E 112 b0 0b 18
        E 80 b0 0b 20
        E 0 80 2f 00
        E 0 90 37 20
        E 208 b0 0b 18
        E 160 b0 0b 10
        E 64 80 37 00
        E 0 90 36 10
        E 512 80 36 00
        E 0 90 35 10
        E 272 b0 0c 40
        E 0 b0 0b 58
        E 0 80 35 00
        E 0 90 2a 58
        E 32 80 2a 00
        E 0 90 2b 58
        E 48 80 2b 00
        E 0 90 2c 58
        E 32 80 2c 00
        E 0 90 2d 58
        E 16 80 2d 00
        E 0 90 2e 58
        E 48 80 2e 00
        E 0 90 2f 58
        E 32 80 2f 00
        E 0 90 30 58
        E 48 b0 0b 40
        E 0 80 30 00
        E 0 90 31 40
        E 48 80 31 00
        E 0 90 32 40
        E 32 80 32 00
        E 0 90 33 40
        E 48 80 33 00
        E 0 90 34 40
        E 32 80 34 00
        E 0 90 35 40
        E 32 80 35 00
        E 0 90 36 40
        E 32 80 36 00
        E 0 90 37 40
        E 32 80 37 00
        E 0 90 2e 40
        E 48 80 2e 00
        E 0 90 2f 40
        E 32 80 2f 00
        E 0 90 30 40
        E 16 80 30 00
        E 0 90 31 40
        E 48 80 31 00
        E 0 90 32 40
        E 32 80 32 00
        E 0 90 33 40
        E 48 80 33 00
        E 0 90 34 40
        E 32 b0 0c 10
        E 0 b0 0b 10
        E 32 b0 0c 40
        E 0 b0 0b 58
        E 0 80 34 00
        E 0 90 2a 58
        E 16 80 2a 00
        E 0 90 2b 58
        E 48 80 2b 00
        E 0 90 2c 58
        E 32 80 2c 00
        E 0 90 2d 58
        E 32 80 2d 00
        E 0 90 2e 58
        E 32 80 2e 00
        E 0 90 2f 58
        E 48 80 2f 00
        E 0 90 30 58
        E 32 80 30 00
        E 0 90 31 58
        E 16 b0 0b 40
        E 32 80 31 00
        E 0 90 32 40
        E 32 80 32 00
        E 0 90 33 40
        E 48 80 33 00
        E 0 90 34 40
        E 32 80 34 00
        E 0 90 35 40
        E 16 80 35 00
        E 0 90 36 40
        E 48 80 36 00
        E 0 90 37 40
        E 32 80 37 00
        E 0 90 38 40
        E 16 80 38 00
        E 0 90 2e 40
        E 48 80 2e 00
        E 0 90 2f 40
        E 32 80 2f 00
        E 0 90 30 40
        E 16 80 30 00
        E 0 90 31 40
        E 48 80 31 00
        E 0 90 32 40
        E 32 80 32 00
        E 0 90 33 40
        E 48 80 33 00
        E 0 90 34 40
        E 32 b0 0c 10
        E 0 b0 0b 10
        E 0 80 34 00
        E 0 90 32 10
        E 32 b0 0c 40
        E 0 b0 0b 58
        E 0 80 32 00
        E 0 90 2a 58
        E 16 80 2a 00
        E 0 90 2b 58
        E 48 80 2b 00
        E 0 90 2c 58
        E 48 80 2c 00
        E 0 90 2d 58
        E 16 80 2d 00
        E 0 90 2e 58
        E 32 80 2e 00
        E 0 90 2f 58
        E 48 80 2f 00
        E 0 90 30 58
        E 32 80 30 00
        E 0 90 31 58
        E 16 b0 0b 40
        E 32 80 31 00
        E 0 90 32 40
        E 32 80 32 00
        E 0 90 33 40
        E 48 80 33 00
        E 0 90 34 40
        E 32 80 34 00
        E 0 90 35 40
        E 32 80 35 00
        E 0 90 36 40
        E 32 80 36 00
        E 0 90 37 40
        E 48 80 37 00
        E 0 90 2e 40
        E 48 80 2e 00
        E 0 90 2f 40
        E 32 80 2f 00
        E 0 90 30 40
        E 32 80 30 00
        E 0 90 31 40
        E 32 80 31 00
        E 0 90 32 40
        E 48 80 32 00
        E 0 90 33 40
        E 32 80 33 00
        E 0 90 34 40
        E 32 b0 0c 20
        E 0 b0 0b 28
        E 0 80 34 00
        E 0 90 2a 28
        E 32 b0 0c 40
        E 0 b0 0b 58
        E 32 80 2a 00
        E 0 90 2b 58
        E 32 80 2b 00
        E 0 90 2c 58
        E 48 80 2c 00
        E 0 90 2d 58
        E 16 80 2d 00
        E 0 90 2e 58
        E 32 80 2e 00
        E 0 90 2f 58
        E 48 80 2f 00
        E 0 90 30 58
        E 32 80 30 00
        E 0 90 31 58
        E 16 b0 0b 40
        E 32 80 31 00
        E 0 90 32 40
        E 32 80 32 00
        E 0 90 33 40
        E 48 80 33 00
        E 0 90 34 40
        E 32 80 34 00
        E 0 90 35 40
        E 32 80 35 00
        E 0 90 36 40
        E 32 80 36 00
        E 0 90 37 40
        E 48 80 37 00
        E 0 90 2e 40
        E 48 80 2e 00
        E 0 90 2f 40
        E 32 80 2f 00
        E 0 90 30 40
        E 32 80 30 00
        E 0 90 31 40
        E 32 80 31 00
        E 0 90 32 40
        E 16 b0 0b 78
        E 0 80 32 00
        E 0 90 2b 78
        E 16 80 2b 00
        E 0 90 29 78
        E 16 80 29 00
        E 0 90 25 78
        E 16 80 25 00
        E 0 90 21 78
        E 16 80 21 00
        E 0 90 1f 78
        E 16 80 1f 00
        E 0 90 1b 78
        E 16 80 1b 00
        E 0 90 19 78
        E 16 80 19 00
        E 0 90 16 78
        E 64 b0 0b 60
        E 0 80 16 00
        E 0 90 2d 60
        E 16 80 2d 00
        E 0 90 29 60
        E 16 80 29 00
        E 0 90 25 60
        E 16 80 25 00
        E 0 90 23 60
        E 16 80 23 00
        E 0 90 1f 60
        E 16 80 1f 00
        E 0 90 1d 60
        E 16 80 1d 00
        E 0 90 19 60
        E 16 80 19 00
        E 0 90 17 60
        E 64 b0 0b 40
        E 0 80 17 00
        E 0 90 2d 40
        E 16 80 2d 00
        E 0 90 29 40
        E 16 80 29 00
        E 0 90 27 40
        E 16 80 27 00
        E 0 90 23 40
        E 16 80 23 00
        E 0 90 21 40
        E 16 80 21 00
        E 0 90 1d 40
        E 16 80 1d 00
        E 0 90 19 40
        E 16 80 19 00
        E 0 90 16 40
        E 64 b0 0b 20
        E 0 80 16 00
        E 0 90 2b 20
        E 16 80 2b 00
        E 0 90 29 20
        E 16 80 29 00
        E 0 90 25 20
        E 16 80 25 00
        E 0 90 23 20
        E 16 80 23 00
        E 0 90 1f 20
        E 16 80 1f 00
        E 0 90 1b 20
        E 16 80 1b 00
        E 0 90 19 20
        E 16 80 19 00
        E 0 90 17 20
        E 64 b0 0c 10
        E 0 80 17 00
        E 0 90 39 20
        E 16 b0 0b 30
        E 48 b0 0b 28
        E 112 b0 0b 20
        E 16 b0 0b 30
        E 96 b0 0b 28
        E 80 b0 0b 30
        E 0 80 39 00
        E 0 90 37 30
        E 32 b0 0b 28
        E 112 b0 0b 20
        E 112 b0 0b 18
        E 112 b0 0b 10
        E 128 b0 0b 08
        E 32 b0 0c 20
        E 0 b0 0b 38
        E 0 80 37 00
        E 0 90 2d 38
        E 80 b0 0b 30
        E 112 b0 0b 28
        E 96 80 2d 00
        E 80 b0 0b 38
        E 0 90 2a 38
        E 48 b0 0b 30
        E 112 b0 0b 28
        E 112 b0 0b 20
        E 16 80 2a 00
        E 64 b0 0b 38
        E 0 90 2b 38
        E 32 b0 0b 30
        E 112 b0 0b 28
        E 128 b0 0b 20
        E 16 80 2b 00
        E 240 b0 0c 10
        E 0 b0 0b 30
        E 0 90 21 30
        E 16 b0 0b 28
        E 64 b0 0b 20
        E 48 b0 0b 18
        E 64 b0 0b 10
        E 64 b0 0b 08
        E 64 80 21 00
        E 48 b0 0b 30
        E 0 90 21 30
        E 16 b0 0b 28
        E 48 b0 0b 20
        E 64 b0 0b 18
        E 48 b0 0b 10
        E 16 b0 0b 30
        E 0 80 21 00
        E 0 90 23 30
        E 48 b0 0b 28
        E 48 b0 0b 20
        E 64 b0 0b 18
        E 16 b0 0b 30
        E 48 b0 0b 28
        E 48 b0 0b 20
        E 64 b0 0b 18
        E 16 b0 0b 30
        E 0 80 23 00
        E 0 90 24 30
        E 32 b0 0b 28
        E 64 b0 0b 20
        E 48 b0 0b 18
        E 32 b0 0b 30
        E 0 80 24 00
        E 0 90 26 30
        E 32 b0 0b 28
        E 48 b0 0b 20
        E 64 b0 0b 18
        E 32 b0 0b 30
        E 0 80 26 00
        E 0 90 28 30
        E 32 b0 0b 28
        E 48 b0 0b 20
        E 64 b0 0b 18
        E 32 b0 0b 20
        E 0 80 28 00
        E 0 90 43 20
        E 176 b0 0c 20
        E 0 b0 0b 38
        E 0 80 43 00
        E 0 90 28 38
        E 64 b0 0b 30
        E 128 b0 0b 28
        E 96 80 28 00
        E 80 b0 0b 38
        E 0 90 2a 38
        E 48 b0 0b 30
        E 112 b0 0b 28
        E 112 b0 0b 20
        E 16 80 2a 00
        E 64 b0 0b 38
        E 0 90 2b 38
        E 32 b0 0b 30
        E 112 b0 0b 28
        E 112 b0 0b 20
        E 32 80 2b 00
        E 240 b0 0c 10
        E 0 b0 0b 30
        E 0 90 37 30
        E 80 b0 0b 28
        E 0 80 37 00
        E 0 90 38 28
        E 112 b0 0b 20
        E 48 80 38 00
        E 0 90 39 20
        E 64 b0 0b 18
        E 64 b0 0b 30
        E 48 b0 0b 28
        E 112 b0 0b 20
        E 16 b0 0b 30
        E 96 b0 0b 28
        E 80 b0 0b 30
        E 32 b0 0b 28
        E 112 b0 0b 20
        E 32 b0 0b 30
        E 96 b0 0b 28
        E 80 b0 0b 30
        E 0 80 39 00
        E 0 90 37 30
        E 32 b0 0b 28
        E 112 b0 0b 20
        E 112 b0 0b 18
        E 112 b0 0b 10
        E 112 b0 0b 08
        E 48 b0 0c 20
        E 0 b0 0b 38
        E 0 80 37 00
        E 0 90 2d 38
        E 64 b0 0b 30
        E 112 b0 0b 28
        E 112 b0 0b 20
        E 16 80 2d 00
        E 64 b0 0b 38
        E 0 90 2a 38
        E 48 b0 0b 30
        E 112 b0 0b 28
        E 112 b0 0b 20
        E 16 80 2a 00
        E 64 b0 0b 38
        E 0 90 2b 38
        E 32 b0 0b 30
        E 112 b0 0b 28
        E 112 b0 0b 20
        E 32 80 2b 00
        E 240 b0 0c 10
        E 0 b0 0b 30
        E 0 90 21 30
        E 16 b0 0b 28
        E 48 b0 0b 20
        E 64 b0 0b 18
        E 64 b0 0b 10
        E 48 b0 0b 08
        E 64 80 21 00
        E 64 b0 0b 30
        E 0 90 21 30
        E 48 b0 0b 28
        E 48 b0 0b 20
        E 64 b0 0b 18
        E 16 b0 0b 30
        E 0 80 21 00
        E 0 90 23 30
        E 32 b0 0b 28
        E 64 b0 0b 20
        E 64 b0 0b 18
        E 16 b0 0b 30
        E 32 b0 0b 28
        E 64 b0 0b 20
        E 48 b0 0b 18
        E 32 b0 0b 30
        E 0 80 23 00
        E 0 90 24 30
        E 32 b0 0b 28
        E 48 b0 0b 20
        E 64 b0 0b 18
        E 32 b0 0b 30
        E 0 80 24 00
        E 0 90 26 30
        E 16 b0 0b 28
        E 64 b0 0b 20
        E 64 b0 0b 18
        E 32 b0 0b 30
        E 0 80 26 00
        E 0 90 28 30
        E 16 b0 0b 28
        E 64 b0 0b 20
        E 48 b0 0b 18
        E 48 b0 0b 20
        E 0 80 28 00
        E 0 90 43 20
        E 176 b0 0b 18
        E 16 b0 0b 30
        E 0 80 43 00
        E 0 90 2d 30
        E 112 b0 0b 28
        E 112 b0 0b 20
        E 64 80 2d 00
        E 64 b0 0b 30
        E 0 90 2d 30
        E 96 b0 0b 28
        E 112 b0 0b 20
        E 112 b0 0b 18
        E 32 80 2d 00
        E 176 b0 0b 30
        E 0 90 2d 30
        E 16 b0 0b 28
        E 112 b0 0b 20
        E 128 b0 0b 18
        E 96 80 2d 00
        E 192 b0 0b 30
        E 0 90 2b 30
        E 48 b0 0b 28
        E 112 b0 0b 20
        E 112 b0 0b 18
        E 16 80 2b 00
        E 64 b0 0b 30
        E 0 90 2b 30
        E 32 b0 0b 28
        E 112 b0 0b 20
        E 112 b0 0b 18
        E 96 80 2b 00
        E 176 b0 0b 30
        E 0 90 2b 30
        E 80 b0 0b 28
        E 112 b0 0b 20
        E 112 b0 0b 18
        E 48 80 2b 00
        E 192 b0 0b 30
        E 0 90 2a 30
        E 96 b0 0b 28
        E 112 b0 0b 20
        E 80 80 2a 00
        E 64 b0 0b 30
        E 0 90 2a 30
        E 96 b0 0b 28
        E 112 b0 0b 20
        E 112 b0 0b 18
        E 32 80 2a 00
        E 176 b0 0b 30
        E 0 90 2a 30
        E 16 b0 0b 28
        E 112 b0 0b 20
        E 112 b0 0b 18
        E 112 b0 0b 10
        E 16 80 2a 00
        E 176 b0 0b 30
        E 0 90 2d 30
        E 48 b0 0b 28
        E 112 b0 0b 20
        E 112 b0 0b 18
        E 80 b0 0b 28
        E 0 80 2d 00
        E 0 90 3c 28
        E 32 b0 0b 20
        E 80 b0 0b 10
        E 0 80 3c 00
        E 0 90 2d 10
        E 64 b0 0b 28
        E 0 80 2d 00
        E 0 90 3b 28
        E 32 b0 0b 20
        E 80 b0 0b 10
        E 0 80 3b 00
        E 0 90 3c 10
        E 32 b0 0b 08
        E 32 b0 0b 28
        E 0 80 3c 00
        E 0 90 37 28
        E 80 b0 0b 20
        E 32 b0 0b 10
        E 0 80 37 00
        E 0 90 3b 10
        E 64 b0 0b 28
        E 0 80 3b 00
        E 0 90 39 28
        E 16 b0 0b 20
        E 96 b0 0b 10
        E 0 80 39 00
        E 0 90 37 10
        E 16 b0 0b 08
        E 48 b0 0b 28
        E 0 80 37 00
        E 0 90 34 28
        E 64 b0 0b 20
        E 48 b0 0b 10
        E 0 80 34 00
        E 0 90 39 10
        E 64 b0 0b 08
        E 16 b0 0b 28
        E 0 80 39 00
        E 0 90 37 28
        E 96 b0 0b 20
        E 16 b0 0b 10
        E 0 80 37 00
        E 0 90 34 10
        E 64 b0 0b 30
        E 0 80 34 00
        E 0 90 2d 30
        E 96 b0 0b 28
        E 112 b0 0b 20
        E 80 80 2d 00
        E 64 b0 0b 30
        E 0 90 2d 30
        E 80 b0 0b 28
        E 128 b0 0b 20
        E 112 b0 0b 18
        E 32 80 2d 00
        E 176 b0 0b 30
        E 0 90 2d 30
        E 16 b0 0b 28
        E 112 b0 0b 20
        E 112 b0 0b 18
        E 112 b0 0b 10
        E 16 80 2d 00
        E 176 b0 0b 30
        E 0 90 2b 30
        E 32 b0 0b 28
        E 128 b0 0b 20
        E 112 b0 0b 18
        E 16 80 2b 00
        E 64 b0 0b 30
        E 0 90 2b 30
        E 32 b0 0b 28
        E 112 b0 0b 20
        E 112 b0 0b 18
        E 96 80 2b 00
        E 176 b0 0b 30
        E 0 90 2b 30
        E 64 b0 0b 28
        E 112 b0 0b 20
        E 128 b0 0b 18
        E 64 80 2b 00
        E 176 b0 0b 30
        E 0 90 2a 30
        E 96 b0 0b 28
        E 112 b0 0b 20
        E 80 80 2a 00
        E 64 b0 0b 30
        E 0 90 2a 30
        E 80 b0 0b 28
        E 112 b0 0b 20
        E 112 b0 0b 18
        E 48 80 2a 00
        E 176 b0 0b 30
        E 0 90 2a 30
        E 16 b0 0b 28
        E 112 b0 0b 20
        E 112 b0 0b 18
        E 112 b0 0b 10
        E 16 80 2a 00
        E 176 b0 0b 30
        E 0 90 2d 30
        E 32 b0 0b 28
        E 112 b0 0b 20
        E 112 b0 0b 18
        E 128 b0 0b 10
        E 112 b0 0b 08
        E 112 80 2d 00
        E 96 b0 0b 30
        E 0 90 2d 30
        E 64 b0 0b 28
        E 128 b0 0b 20
        E 32 b0 0b 30
        E 80 b0 0b 28
        E 112 b0 0b 20
        E 64 b0 0b 30
        E 0 80 2d 00
        E 0 90 2e 30
        E 48 b0 0b 28
        E 112 b0 0b 20
        E 80 b0 0b 30
        E 0 80 2e 00
        E 0 90 2f 30
        E 96 b0 0b 28
        E 112 b0 0b 20
        E 80 80 2f 00
        E 64 b0 0b 30
        E 0 90 2f 30
        E 80 b0 0b 28
        E 112 b0 0b 20
        E 112 b0 0b 18
        E 48 80 2f 00
        E 192 b0 0b 30
        E 0 90 2f 30
        E 112 b0 0b 28
        E 112 b0 0b 20
        E 112 b0 0b 18
        E 16 80 2f 00
        E 176 b0 0b 30
        E 0 90 2d 30
        E 32 b0 0b 28
        E 112 b0 0b 20
        E 112 b0 0b 18
        E 32 80 2d 00
        E 64 b0 0b 30
        E 0 90 2d 30
        E 16 b0 0b 28
        E 112 b0 0b 20
        E 128 b0 0b 18
        E 96 80 2d 00
        E 192 b0 0b 30
        E 0 90 2d 30
        E 48 b0 0b 28
        E 112 b0 0b 20
        E 112 b0 0b 18
        E 80 80 2d 00
        E 176 b0 0b 30
        E 0 90 2c 30
        E 80 b0 0b 28
        E 128 b0 0b 20
        E 80 80 2c 00
        E 64 b0 0b 30
        E 0 90 2c 30
        E 80 b0 0b 28
        E 112 b0 0b 20
        E 112 b0 0b 18
        E 48 80 2c 00
        E 192 b0 0b 30
        E 0 90 2c 30
        E 96 b0 0b 28
        E 112 b0 0b 20
        E 128 b0 0b 18
        E 16 80 2c 00
        E 176 b0 0b 30
        E 0 90 2f 30
        E 32 b0 0b 28
        E 112 b0 0b 20
        E 112 b0 0b 18
        E 96 b0 0b 28
        E 0 80 2f 00
        E 0 90 3e 28
        E 16 b0 0b 20
        E 32 b0 0b 10
        E 0 80 3e 00
        E 0 90 2f 10
        E 48 b0 0b 28
        E 0 80 2f 00
        E 0 90 3d 28
        E 48 b0 0b 10
        E 0 80 3d 00
        E 0 90 3e 10
        E 32 b0 0b 28
        E 0 80 3e 00
        E 0 90 39 28
        E 16 b0 0b 20
        E 32 b0 0b 10
        E 0 80 39 00
        E 0 90 3d 10
        E 48 b0 0b 28
        E 0 80 3d 00
        E 0 90 3b 28
        E 32 b0 0b 20
        E 16 b0 0b 10
        E 0 80 3b 00
        E 0 90 39 10
        E 48 b0 0b 28
        E 0 80 39 00
        E 0 90 36 28
        E 32 b0 0b 10
        E 0 80 36 00
        E 0 90 3b 10
        E 16 b0 0b 08
        E 32 b0 0b 28
        E 0 80 3b 00
        E 0 90 39 28
        E 48 b0 0b 10
        E 0 80 39 00
        E 0 90 36 10
        E 32 b0 0b 08
        E 16 b0 0b 28
        E 0 80 36 00
        E 0 90 3e 28
        E 32 b0 0b 10
        E 0 80 3e 00
        E 0 90 39 10
        E 48 b0 0b 28
        E 0 80 39 00
        E 0 90 3d 28
        E 16 b0 0b 20
        E 32 b0 0b 10
        E 0 80 3d 00
        E 0 90 3e 10
        E 48 b0 0b 28
        E 0 80 3e 00
        E 0 90 39 28
        E 32 b0 0b 20
        E 16 b0 0b 10
        E 0 80 39 00
        E 0 90 3d 10
        E 32 b0 0b 28
        E 0 80 3d 00
        E 0 90 3b 28
        E 48 b0 0b 10
        E 0 80 3b 00
        E 0 90 39 10
        E 16 b0 0b 08
        E 32 b0 0b 28
        E 0 80 39 00
        E 0 90 36 28
        E 48 b0 0b 10
        E 0 80 36 00
        E 0 90 3b 10
        E 32 b0 0b 28
        E 0 80 3b 00
        E 0 90 39 28
        E 16 b0 0b 20
        E 32 b0 0b 10
        E 0 80 39 00
        E 0 90 36 10
        E 48 b0 0b 30
        E 0 80 36 00
        E 0 90 2f 30
        E 80 b0 0b 28
        E 112 b0 0b 20
        E 96 80 2f 00
        E 64 b0 0b 30
        E 0 90 2f 30
        E 80 b0 0b 28
        E 112 b0 0b 20
        E 112 b0 0b 18
        E 64 80 2f 00
        E 176 b0 0b 30
        E 0 90 2f 30
        E 96 b0 0b 28
        E 112 b0 0b 20
        E 112 b0 0b 18
        E 32 80 2f 00
        E 176 b0 0b 30
        E 0 90 2d 30
        E 32 b0 0b 28
        E 112 b0 0b 20
        E 112 b0 0b 18
        E 32 80 2d 00
        E 64 b0 0b 30
        E 0 90 2d 30
        E 16 b0 0b 28
        E 112 b0 0b 20
        E 112 b0 0b 18
        E 112 b0 0b 10
        E 16 80 2d 00
        E 176 b0 0b 30
        E 0 90 2d 30
        E 32 b0 0b 28
        E 128 b0 0b 20
        E 112 b0 0b 18
        E 80 80 2d 00
        E 176 b0 0b 30
        E 0 90 2c 30
        E 80 b0 0b 28
        E 112 b0 0b 20
        E 96 80 2c 00
        E 80 b0 0b 30
        E 0 90 2c 30
        E 64 b0 0b 28
        E 112 b0 0b 20
        E 128 b0 0b 18
        E 64 80 2c 00
        E 176 b0 0b 30
        E 0 90 2c 30
        E 96 b0 0b 28
        E 112 b0 0b 20
        E 112 b0 0b 18
        E 32 80 2c 00
        E 176 b0 0b 30
        E 0 90 2f 30
        E 16 b0 0b 28
        E 112 b0 0b 20
        E 128 b0 0b 18
        E 32 80 2f 00
        E 64 b0 0b 30
        E 0 90 2f 30
        E 16 b0 0b 28
        E 112 b0 0b 20
        E 112 b0 0b 18
        E 112 b0 0b 10
        E 16 80 2f 00
        E 176 b0 0b 30
        E 0 90 31 30
        E 32 b0 0b 28
        E 112 b0 0b 20
        E 112 b0 0b 18
        E 96 b0 0b 20
        E 0 80 31 00
        E 0 90 39 20
        E 192 b0 0b 18
        E 176 b0 0b 10
        E 0 80 39 00
        E 0 90 38 10
        E 448 80 38 00
        E 0 90 37 10
        E 464 80 37 00
        E 0 90 36 10
        E 512 80 36 00
        E 0 90 35 10
        E 512 80 35 00
        E 0 90 34 10
        E 560 80 34 00
        E 0 90 33 10
        E 624 80 33 00
        E 0 90 32 10
        E 640 80 32 00
        E 0 90 31 10
        E 640 80 31 00
        E 0 90 30 10
        E 736 80 30 00
        E 0 90 2f 10
        E 32 80 2f 00
        E 15104 b0 0b 20
        E 0 90 3d 20
        E 16 80 3d 00
        E 0 90 3e 20
        E 32 80 3e 00
        E 0 90 3f 20
        E 48 80 3f 00
        E 0 90 34 20
        E 192 b0 0b 18
        E 176 b0 0b 10
        E 0 80 34 00
        E 0 90 33 10
        E 560 80 33 00
        E 0 90 32 10
        E 64 80 32 00
        E 32 b0 0c 40
        E 0 b0 0b 68
        E 0 90 2d 68
        E 32 80 2d 00
        E 0 90 29 68
        E 16 80 29 00
        E 0 90 25 68
        E 32 80 25 00
        E 0 90 21 68
        E 32 80 21 00
        E 0 90 1d 68
        E 32 80 1d 00
        E 0 90 1a 68
        E 32 80 1a 00
        E 0 90 16 68
        E 48 b0 0b 50
        E 0 80 16 00
        E 0 90 2d 50
        E 32 80 2d 00
        E 0 90 29 50
        E 32 80 29 00
        E 0 90 25 50
        E 32 80 25 00
        E 0 90 21 50
        E 32 80 21 00
        E 0 90 1d 50
        E 16 80 1d 00
        E 0 90 1a 50
        E 32 80 1a 00
        E 0 90 16 50
        E 48 b0 0b 30
        E 0 80 16 00
        E 0 90 2d 30
        E 32 80 2d 00
        E 0 90 29 30
        E 32 80 29 00
        E 0 90 25 30
        E 16 80 25 00
        E 0 90 21 30
        E 32 80 21 00
        E 0 90 1d 30
        E 32 80 1d 00
        E 0 90 1a 30
        E 32 80 1a 00
        E 0 90 16 30
        E 48 b0 0b 20
        E 0 80 16 00
        E 0 90 2d 20
        E 16 80 2d 00
        E 0 90 29 20
        E 32 80 29 00
        E 0 90 25 20
        E 32 80 25 00
        E 0 90 21 20
        E 32 80 21 00
        E 0 90 1d 20
        E 32 80 1d 00
        E 0 90 1a 20
        E 32 80 1a 00
        E 0 90 16 20
        E 48 b0 0b 10
        E 0 80 16 00
        E 0 90 2d 10
        E 32 80 2d 00
        E 0 90 29 10
        E 32 80 29 00
        E 0 90 25 10
        E 32 80 25 00
        E 0 90 21 10
        E 16 80 21 00
        E 0 90 1d 10
        E 32 80 1d 00
        E 0 90 1a 10
        E 32 80 1a 00
        E 0 90 16 10
        E 48 80 16 00
        E 2976 b0 0b 08
        E 0 90 21 08
        E 32 b0 0b 10
        E 32 b0 0b 18
        E 32 b0 0b 20
        E 32 b0 0b 28
        E 32 b0 0b 30
        E 32 b0 0b 38
        E 32 b0 0b 40
        E 32 b0 0b 48
        E 32 b0 0b 50
        E 32 b0 0b 58
        E 32 b0 0b 60
        E 32 b0 0b 68
        E 32 b0 0b 70
        E 32 b0 0b 78
        E 32 80 21 00
        E 64 b0 0b 40
        E 0 90 48 40
        E 32 80 48 00
        E 6736 b0 0b 58
        E 0 90 1b 58
        E 16 80 1b 00
        E 0 90 1c 58
        E 32 80 1c 00
        E 0 90 1d 58
        E 32 80 1d 00
        E 0 90 1e 58
        E 32 b0 0b 38
        E 0 80 1e 00
        E 0 90 1d 38
        E 16 80 1d 00
        E 0 90 1e 38
        E 48 80 1e 00
        E 0 90 1f 38
        E 32 80 1f 00
        E 0 90 20 38
        E 16 b0 0b 78
        E 0 80 20 00
        E 0 90 1d 78
        E 16 80 1d 00
        E 0 90 1e 78
        E 48 80 1e 00
        E 0 90 1f 78
        E 32 80 1f 00
        E 0 90 20 78
        E 16 80 20 00
        E 0 90 1d 78
        E 16 80 1d 00
        E 0 90 1e 78
        E 48 80 1e 00
        E 0 90 1f 78
        E 16 80 1f 00
        E 0 90 20 78
        E 32 80 20 00
        E 0 90 1d 78
        E 16 80 1d 00
        E 0 90 1e 78
        E 32 80 1e 00
        E 0 90 1f 78
        E 32 80 1f 00
        E 0 90 20 78
        E 32 80 20 00
        E 0 90 1d 78
        E 16 80 1d 00
        E 0 90 1e 78
        E 48 80 1e 00
        E 0 90 1f 78
        E 32 80 1f 00
        E 0 90 20 78
        E 16 80 20 00
        E 0 90 1d 78
        E 16 80 1d 00
        E 0 90 1e 78
        E 48 80 1e 00
        E 0 90 1f 78
        E 32 80 1f 00
        E 0 90 20 78
        E 16 80 20 00
        E 0 90 1d 78
        E 16 80 1d 00
        E 0 90 1e 78
        E 48 80 1e 00
        E 0 90 1f 78
        E 32 80 1f 00
        E 0 90 20 78
        E 16 80 20 00
        E 0 90 1d 78
        E 16 80 1d 00
        E 0 90 1e 78
        E 48 80 1e 00
        E 0 90 1f 78
        E 16 80 1f 00
        E 0 90 20 78
        E 32 80 20 00
        E 0 90 1d 78
        E 16 80 1d 00
        E 0 90 1e 78
        E 32 80 1e 00
        E 0 90 1f 78
        E 32 80 1f 00
        E 0 90 20 78
        E 32 80 20 00
        E 0 90 1d 78
        E 16 80 1d 00
        E 0 90 1e 78
        E 48 80 1e 00
        E 0 90 1f 78
        E 32 80 1f 00
        E 0 90 20 78
        E 16 80 20 00
        E 0 90 1d 78
        E 16 80 1d 00
        E 0 90 1e 78
        E 48 80 1e 00
        E 0 90 1f 78
        E 32 80 1f 00
        E 0 90 20 78
        E 16 80 20 00
        E 0 90 1d 78
        E 16 80 1d 00
        E 0 90 1e 78
        E 48 80 1e 00
        E 0 90 1f 78
        E 32 80 1f 00
        E 0 90 20 78
        E 16 80 20 00
        E 0 90 1d 78
        E 16 80 1d 00
        E 0 90 1e 78
        E 48 80 1e 00
        E 0 90 1f 78
        E 32 80 1f 00
        E 0 90 20 78
        E 16 80 20 00
        E 0 90 1d 78
        E 16 80 1d 00
        E 0 90 1e 78
        E 48 80 1e 00
        E 0 90 1f 78
        E 32 80 1f 00
        E 0 90 20 78
        E 16 80 20 00
        E 0 90 1d 78
        E 32 80 1d 00
        E 0 90 1e 78
        E 32 80 1e 00
        E 0 90 1f 78
        E 32 80 1f 00
        E 0 90 20 78
        E 16 80 20 00
        E 0 90 1d 78
        E 32 80 1d 00
        E 0 90 1e 78
        E 32 80 1e 00
        E 0 90 1f 78
        E 32 80 1f 00
        E 0 90 20 78
        E 16 80 20 00
        E 0 90 1d 78
        E 16 80 1d 00
        E 0 90 1e 78
        E 48 80 1e 00
        E 0 90 1f 78
        E 32 80 1f 00
        E 0 90 20 78
        E 16 80 20 00
        E 0 90 1d 78
        E 16 80 1d 00
        E 0 90 1e 78
        E 48 80 1e 00
        E 0 90 1f 78
        E 32 80 1f 00
        E 0 90 20 78
        E 16 80 20 00
        E 0 90 1d 78
        E 16 80 1d 00
        E 0 90 1e 78
        E 48 80 1e 00
        E 0 90 1f 78
        E 32 80 1f 00
        E 0 90 20 78
        E 16 80 20 00
        E 0 90 1d 78
        E 32 80 1d 00
        E 0 90 1e 78
        E 32 80 1e 00
        E 0 90 1f 78
        E 32 80 1f 00
        E 0 90 20 78
        E 16 80 20 00
        E 3312 b0 0b 60
        E 0 90 3d 60
        E 16 80 3d 00
        E 0 90 3b 60
        E 16 80 3b 00
        E 0 90 37 60
        E 16 80 37 00
        E 0 90 35 60
        E 16 80 35 00
        E 0 90 31 60
        E 16 80 31 00
        E 0 90 2d 60
        E 16 80 2d 00
        E 0 90 2b 60
        E 16 80 2b 00
        E 0 90 27 60
        E 16 80 27 00
        E 0 90 25 60
        E 16 80 25 00
        E 112 90 41 60
        E 16 80 41 00
        E 0 90 3d 60
        E 16 80 3d 00
        E 0 90 3b 60
        E 16 80 3b 00
        E 0 90 37 60
        E 16 80 37 00
        E 0 90 33 60
        E 16 80 33 00
        E 0 90 31 60
        E 16 80 31 00
        E 0 90 2d 60
        E 16 80 2d 00
        E 0 90 2b 60
        E 16 80 2b 00
        E 0 90 27 60
        E 16 80 27 00
        E 1536 b0 0c 10
        E 0 b0 0b 20
        E 0 90 34 20
        E 16 b0 0b 18
        E 32 b0 0b 10
        E 32 b0 0b 08
        E 32 80 34 00
        E 32 b0 0b 18
        E 0 90 34 18
        E 16 b0 0b 10
        E 32 b0 0b 08
        E 32 80 34 00
        E 48 b0 0b 10
        E 0 90 34 10
        E 48 b0 0b 08
        E 64 80 34 00
        E 16 90 34 08
        E 64 80 34 00
        E 80 b0 0b 20
        E 0 90 34 20
        E 16 b0 0b 18
        E 32 b0 0b 10
        E 32 b0 0b 08
        E 32 80 34 00
        E 16 b0 0b 18
        E 0 90 34 18
        E 16 b0 0b 10
        E 32 b0 0b 08
        E 32 80 34 00
        E 64 b0 0b 10
        E 0 90 34 10
        E 48 b0 0b 08
        E 64 80 34 00
        E 16 90 34 08
        E 80 80 34 00
        E 48 b0 0b 20
        E 0 90 34 20
        E 16 b0 0b 18
        E 32 b0 0b 10
        E 16 b0 0b 08
        E 32 80 34 00
        E 48 b0 0b 18
        E 0 90 34 18
        E 16 b0 0b 10
        E 32 b0 0b 08
        E 32 80 34 00
        E 48 b0 0b 10
        E 0 90 34 10
        E 48 b0 0b 08
        E 64 80 34 00
        E 32 90 34 08
        E 80 80 34 00
        E 48 b0 0b 20
        E 0 90 34 20
        E 16 b0 0b 18
        E 32 b0 0b 10
        E 32 b0 0b 08
        E 32 80 34 00
        E 16 b0 0b 18
        E 0 90 34 18
        E 16 b0 0b 10
        E 32 b0 0b 08
        E 32 80 34 00
        E 64 b0 0b 10
        E 0 90 34 10
        E 48 b0 0b 08
        E 64 80 34 00
        E 16 90 34 08
        E 80 80 34 00
        E 48 b0 0b 20
        E 0 90 34 20
        E 16 b0 0b 18
        E 16 b0 0b 10
        E 32 b0 0b 08
        E 32 80 34 00
        E 48 b0 0b 18
        E 0 90 34 18
        E 16 b0 0b 10
        E 32 b0 0b 08
        E 32 80 34 00
        E 48 b0 0b 10
        E 0 90 34 10
        E 48 b0 0b 08
        E 48 80 34 00
        E 48 90 34 08
        E 80 80 34 00
        E 48 b0 0b 20
        E 0 90 34 20
        E 16 b0 0b 18
        E 32 b0 0b 10
        E 32 b0 0b 08
        E 32 80 34 00
        E 16 b0 0b 18
        E 0 90 34 18
        E 16 b0 0b 10
        E 16 b0 0b 08
        E 32 80 34 00
        E 80 b0 0b 10
        E 0 90 34 10
        E 48 b0 0b 08
        E 64 80 34 00
        E 16 90 34 08
        E 80 80 34 00
        E 64 b0 0b 20
        E 0 90 34 20
        E 16 b0 0b 18
        E 32 b0 0b 10
        E 32 b0 0b 08
        E 32 80 34 00
        E 16 b0 0b 18
        E 0 90 34 18
        E 16 b0 0b 10
        E 32 b0 0b 08
        E 32 80 34 00
        E 48 b0 0b 10
        E 0 90 34 10
        E 32 b0 0b 08
        E 64 80 34 00
        E 48 90 34 08
        E 80 80 34 00
        E 48 b0 0b 20
        E 0 90 34 20
        E 16 b0 0b 18
        E 32 b0 0b 10
        E 32 b0 0b 08
        E 32 80 34 00
        E 32 b0 0b 18
        E 0 90 34 18
        E 16 b0 0b 10
        E 32 b0 0b 08
        E 32 80 34 00
        E 48 b0 0b 10
        E 0 90 34 10
        E 48 b0 0b 08
        E 64 80 34 00
        E 16 90 34 08
        E 64 80 34 00
        E 80 b0 0c 40
        E 0 b0 0b 38
        E 0 90 28 38
        E 16 b0 0b 30
        E 32 b0 0b 28
        E 32 b0 0b 20
        E 32 b0 0b 18
        E 16 b0 0b 20
        E 16 b0 0b 18
        E 32 b0 0b 10
        E 32 b0 0b 08
        E 32 80 28 00
        E 32 b0 0b 10
        E 0 90 28 10
        E 48 b0 0b 08
        E 64 80 28 00
        E 16 90 28 08
        E 80 80 28 00
        E 48 b0 0b 38
        E 0 90 28 38
        E 16 b0 0b 30
        E 32 b0 0b 28
        E 16 b0 0b 20
        E 32 b0 0b 18
        E 32 b0 0b 10
        E 16 b0 0b 38
        E 0 80 28 00
        E 0 90 26 38
        E 16 b0 0b 30
        E 32 b0 0b 28
        E 32 b0 0b 20
        E 32 b0 0b 18
        E 16 b0 0b 20
        E 16 b0 0b 18
        E 32 b0 0b 10
        E 32 b0 0b 08
        E 32 80 26 00
        E 32 b0 0b 10
        E 0 90 26 10
        E 48 b0 0b 08
        E 64 80 26 00
        E 16 b0 0b 58
        E 0 90 28 58
        E 16 b0 0b 50
        E 32 b0 0b 48
        E 32 b0 0b 40
        E 32 b0 0b 38
        E 32 b0 0b 30
        E 32 b0 0b 28
        E 16 b0 0b 20
        E 32 b0 0b 18
        E 32 b0 0b 10
        E 16 80 28 00
        E 0 90 33 10
        E 144 b0 0b 18
        E 144 b0 0b 20
        E 64 80 33 00
        E 0 90 34 20
        E 96 b0 0b 28
        E 160 b0 0b 30
        E 144 b0 0b 38
        E 48 b0 0c 60
        E 0 b0 0b 30
        E 0 80 34 00
        E 0 90 2d 30
        E 128 80 2d 00
        E 0 90 37 30
        E 16 b0 0b 28
        E 16 b0 0b 20
        E 32 b0 0b 18
        E 32 b0 0b 10
        E 32 b0 0b 08
        E 16 b0 0b 30
        E 16 b0 0b 28
        E 32 b0 0b 20
        E 32 b0 0b 18
        E 32 b0 0b 10
        E 16 b0 0b 30
        E 0 80 37 00
        E 0 90 2d 30
        E 16 b0 0b 28
        E 32 b0 0b 20
        E 32 b0 0b 18
        E 16 b0 0b 10
        E 32 b0 0b 08
        E 16 b0 0b 30
        E 0 80 2d 00
        E 0 90 34 30
        E 16 b0 0b 28
        E 32 b0 0b 20
        E 32 b0 0b 18
        E 32 b0 0b 10
        E 16 b0 0b 30
        E 0 80 34 00
        E 0 90 2d 30
        E 16 b0 0b 28
        E 32 b0 0b 20
        E 32 b0 0b 18
        E 32 b0 0b 10
        E 16 b0 0b 30
        E 0 80 2d 00
        E 0 90 34 30
        E 16 b0 0b 28
        E 16 b0 0b 20
        E 32 b0 0b 18
        E 32 b0 0b 10
        E 32 b0 0b 08
        E 16 b0 0b 30
        E 16 b0 0b 28
        E 32 b0 0b 20
        E 32 b0 0b 18
        E 32 b0 0b 10
        E 16 b0 0b 30
        E 0 80 34 00
        E 0 90 2d 30
        E 16 b0 0b 28
        E 32 b0 0b 20
        E 32 b0 0b 18
        E 16 b0 0b 10
        E 32 b0 0b 08
        E 16 b0 0b 30
        E 0 80 2d 00
        E 0 90 37 30
        E 16 b0 0b 28
        E 32 b0 0b 20
        E 32 b0 0b 18
        E 32 b0 0b 10
        E 16 b0 0b 30
        E 16 b0 0b 28
        E 32 b0 0b 20
        E 32 b0 0b 18
        E 32 b0 0b 10
        E 16 b0 0b 30
        E 0 80 37 00
        E 0 90 2d 30
        E 16 b0 0b 28
        E 32 b0 0b 20
        E 16 b0 0b 18
        E 32 b0 0b 10
        E 32 b0 0b 08
        E 16 b0 0b 30
        E 0 80 2d 00
        E 0 90 34 30
        E 16 b0 0b 28
        E 32 b0 0b 20
        E 32 b0 0b 18
        E 32 b0 0b 10
        E 16 b0 0b 30
        E 0 80 34 00
        E 0 90 2d 30
        E 16 b0 0b 28
        E 32 b0 0b 20
        E 32 b0 0b 18
        E 32 b0 0b 10
        E 16 b0 0b 08
        E 16 b0 0b 30
        E 0 80 2d 00
        E 0 90 34 30
        E 16 b0 0b 28
        E 32 b0 0b 20
        E 32 b0 0b 18
        E 32 b0 0b 10
        E 16 b0 0b 30
        E 16 b0 0b 28
        E 32 b0 0b 20
        E 32 b0 0b 18
        E 32 b0 0b 10
        E 16 b0 0c 20
        E 0 b0 0b 38
        E 0 80 34 00
        E 0 90 23 38
        E 16 b0 0b 30
        E 32 b0 0b 28
        E 16 b0 0b 20
        E 32 b0 0b 18
        E 32 b0 0b 10
        E 32 b0 0b 08
        E 32 80 23 00
        E 80 b0 0b 38
        E 0 90 23 38
        E 16 b0 0b 30
        E 32 b0 0b 28
        E 32 b0 0b 20
        E 32 b0 0b 18
        E 16 b0 0b 10
        E 32 b0 0b 08
        E 32 80 23 00
        E 80 b0 0b 38
        E 0 90 23 38
        E 16 b0 0b 30
        E 32 b0 0b 28
        E 32 b0 0b 20
        E 32 b0 0b 18
        E 16 b0 0b 38
        E 0 80 23 00
        E 0 90 21 38
        E 48 b0 0b 30
        E 48 b0 0b 28
        E 64 b0 0b 20
        E 64 b0 0b 18
        E 48 b0 0b 38
        E 0 80 21 00
        E 0 90 23 38
        E 16 b0 0b 30
        E 32 b0 0b 28
        E 32 b0 0b 20
        E 32 b0 0b 18
        E 16 b0 0b 10
        E 32 b0 0b 08
        E 32 80 23 00
        E 80 b0 0b 38
        E 0 90 23 38
        E 16 b0 0b 30
        E 32 b0 0b 28
        E 32 b0 0b 20
        E 32 b0 0b 18
        E 16 b0 0b 38
        E 16 b0 0b 30
        E 32 b0 0b 28
        E 32 b0 0b 20
        E 16 b0 0b 18
        E 32 b0 0b 10
        E 32 b0 0b 08
        E 32 80 23 00
        E 80 b0 0b 38
        E 0 90 23 38
        E 16 b0 0b 30
        E 32 b0 0b 28
        E 32 b0 0b 20
        E 32 b0 0b 18
        E 16 b0 0b 38
        E 0 80 23 00
        E 0 90 26 38
        E 32 b0 0b 30
        E 64 b0 0b 28
        E 64 b0 0b 20
        E 64 b0 0b 18
        E 64 b0 0b 10
        E 64 b0 0b 08
        E 48 80 26 00
        E 16 b0 0b 38
        E 0 90 23 38
        E 16 b0 0b 30
        E 32 b0 0b 28
        E 32 b0 0b 20
        E 32 b0 0b 18
        E 32 b0 0b 10
        E 32 b0 0b 08
        E 32 80 23 00
        E 48 b0 0b 38
        E 0 90 23 38
        E 16 b0 0b 30
        E 16 b0 0b 28
        E 32 b0 0b 20
        E 32 b0 0b 18
        E 32 b0 0b 10
        E 32 b0 0b 08
        E 32 80 23 00
        E 80 b0 0b 38
        E 0 90 23 38
        E 16 b0 0b 30
        E 32 b0 0b 28
        E 32 b0 0b 20
        E 16 b0 0b 18
        E 32 b0 0b 10
        E 16 b0 0b 38
        E 0 80 23 00
        E 0 90 21 38
        E 48 b0 0b 30
        E 64 b0 0b 28
        E 64 b0 0b 20
        E 64 b0 0b 18
        E 16 b0 0b 38
        E 0 80 21 00
        E 0 90 23 38
        E 16 b0 0b 30
        E 16 b0 0b 28
        E 32 b0 0b 20
        E 32 b0 0b 18
        E 32 b0 0b 10
        E 32 b0 0b 08
        E 32 80 23 00
        E 80 b0 0b 38
        E 0 90 23 38
        E 16 b0 0b 30
        E 32 b0 0b 28
        E 32 b0 0b 20
        E 32 b0 0b 18
        E 16 b0 0b 10
        E 16 b0 0b 38
        E 16 b0 0b 30
        E 32 b0 0b 28
        E 32 b0 0b 20
        E 32 b0 0b 18
        E 32 b0 0b 10
        E 32 b0 0b 08
        E 32 80 23 00
        E 48 b0 0b 38
        E 0 90 23 38
        E 16 b0 0b 30
        E 32 b0 0b 28
        E 16 b0 0b 20
        E 32 b0 0b 18
        E 32 b0 0b 10
        E 16 b0 0b 38
        E 0 80 23 00
        E 0 90 26 38
        E 48 b0 0b 30
        E 64 b0 0b 28
        E 64 b0 0b 20
        E 64 b0 0b 18
        E 48 b0 0b 10
        E 64 b0 0b 08
        E 48 b0 0c 60
        E 0 b0 0b 30
        E 0 80 26 00
        E 0 90 2d 30
        E 16 b0 0b 28
        E 64 b0 0b 20
        E 48 b0 0b 30
        E 0 80 2d 00
        E 0 90 37 30
        E 16 b0 0b 28
        E 32 b0 0b 20
        E 16 b0 0b 18
        E 32 b0 0b 10
        E 32 b0 0b 08
        E 16 b0 0b 30
        E 16 b0 0b 28
        E 32 b0 0b 20
        E 32 b0 0b 18
        E 32 b0 0b 10
        E 16 b0 0b 30
        E 0 80 37 00
        E 0 90 2d 30
        E 16 b0 0b 28
        E 32 b0 0b 20
        E 32 b0 0b 18
        E 32 b0 0b 10
        E 16 b0 0b 08
        E 16 b0 0b 30
        E 0 80 2d 00
        E 0 90 34 30
        E 16 b0 0b 28
        E 32 b0 0b 20
        E 32 b0 0b 18
        E 32 b0 0b 10
        E 16 b0 0b 30
        E 0 80 34 00
        E 0 90 2d 30
        E 16 b0 0b 28
        E 32 b0 0b 20
        E 32 b0 0b 18
        E 32 b0 0b 10
        E 16 b0 0b 30
        E 0 80 2d 00
        E 0 90 34 30
        E 16 b0 0b 28
        E 32 b0 0b 20
        E 16 b0 0b 18
        E 32 b0 0b 10
        E 32 b0 0b 08
        E 16 b0 0b 30
        E 16 b0 0b 28
        E 32 b0 0b 20
        E 32 b0 0b 18
        E 32 b0 0b 10
        E 16 b0 0b 30
        E 0 80 34 00
        E 0 90 2d 30
        E 16 b0 0b 28
        E 32 b0 0b 20
        E 32 b0 0b 18
        E 32 b0 0b 10
        E 16 b0 0b 30
        E 0 80 2d 00
        E 0 90 37 30
        E 16 b0 0b 28
        E 16 b0 0b 20
        E 32 b0 0b 18
        E 32 b0 0b 10
        E 32 b0 0b 08
        E 16 b0 0b 30
        E 16 b0 0b 28
        E 32 b0 0b 20
        E 32 b0 0b 18
        E 32 b0 0b 10
        E 16 b0 0b 30
        E 0 80 37 00
        E 0 90 2d 30
        E 16 b0 0b 28
        E 32 b0 0b 20
        E 32 b0 0b 18
        E 16 b0 0b 10
        E 32 b0 0b 08
        E 16 b0 0b 30
        E 0 80 2d 00
        E 0 90 34 30
        E 16 b0 0b 28
        E 32 b0 0b 20
        E 32 b0 0b 18
        E 32 b0 0b 10
        E 16 b0 0b 30
        E 0 80 34 00
        E 0 90 2d 30
        E 16 b0 0b 28
        E 32 b0 0b 20
        E 32 b0 0b 18
        E 32 b0 0b 10
        E 16 b0 0b 30
        E 0 80 2d 00
        E 0 90 34 30
        E 16 b0 0b 28
        E 16 b0 0b 20
        E 32 b0 0b 18
        E 32 b0 0b 10
        E 32 b0 0b 08
        E 16 b0 0b 30
        E 16 b0 0b 28
        E 32 b0 0b 20
        E 32 b0 0b 18
        E 32 b0 0b 10
        E 16 b0 0c 10
        E 0 b0 0b 38
        E 0 80 34 00
        E 0 90 2f 38
        E 16 b0 0b 30
        E 32 b0 0b 28
        E 32 b0 0b 20
        E 16 b0 0b 18
        E 32 b0 0b 10
        E 16 b0 0b 20
        E 128 b0 0b 38
        E 0 80 2f 00
        E 0 90 36 38
        E 144 b0 0b 30
        E 16 b0 0b 28
        E 32 b0 0b 20
        E 32 b0 0b 18
        E 32 b0 0b 10
        E 16 b0 0b 20
        E 128 b0 0b 38
        E 0 80 36 00
        E 0 90 37 38
        E 16 b0 0b 30
        E 32 b0 0b 28
        E 32 b0 0b 20
        E 16 b0 0b 18
        E 32 b0 0b 10
        E 16 b0 0b 20
        E 16 b0 0b 18
        E 32 b0 0b 10
        E 32 b0 0b 08
        E 32 80 37 00
        E 16 b0 0b 38
        E 0 90 39 38
        E 16 b0 0b 30
        E 32 b0 0b 28
        E 32 b0 0b 20
        E 32 b0 0b 18
        E 16 b0 0b 20
        E 16 b0 0b 18
        E 32 b0 0b 10
        E 16 b0 0b 08
        E 32 80 39 00
        E 48 b0 0b 10
        E 0 90 39 10
        E 128 b0 0b 38
        E 272 b0 0b 20
        E 128 b0 0b 38
        E 144 b0 0b 20
        E 128 b0 0b 10
        E 144 80 39 00
        E 12880 b0 0b 20
        E 0 90 34 20
        E 16 b0 0b 18
        E 32 b0 0b 10
        E 16 b0 0b 08
        E 32 80 34 00
        E 48 b0 0b 18
        E 0 90 34 18
        E 16 b0 0b 10
        E 32 b0 0b 08
        E 32 80 34 00
        E 48 b0 0b 10
        E 0 90 34 10
        E 48 b0 0b 08
        E 64 80 34 00
        E 16 90 34 08
        E 64 80 34 00
        E 80 b0 0b 20
        E 0 90 34 20
        E 16 b0 0b 18
        E 32 b0 0b 10
        E 32 b0 0b 08
        E 32 80 34 00
        E 16 b0 0b 18
        E 0 90 34 18
        E 16 b0 0b 10
        E 32 b0 0b 08
        E 32 80 34 00
        E 64 b0 0b 10
        E 0 90 34 10
        E 48 b0 0b 08
        E 64 80 34 00
        E 16 90 34 08
        E 80 80 34 00
        E 48 b0 0b 20
        E 0 90 34 20
        E 16 b0 0b 18
        E 16 b0 0b 10
        E 32 b0 0b 08
        E 32 80 34 00
        E 48 b0 0b 18
        E 0 90 34 18
        E 16 b0 0b 10
        E 32 b0 0b 08
        E 32 80 34 00
        E 48 b0 0b 10
        E 0 90 34 10
        E 48 b0 0b 08
        E 48 80 34 00
        E 48 90 34 08
        E 80 80 34 00
        E 48 b0 0b 20
        E 0 90 34 20
        E 16 b0 0b 18
        E 32 b0 0b 10
        E 32 b0 0b 08
        E 32 80 34 00
        E 16 b0 0b 18
        E 0 90 34 18
        E 16 b0 0b 10
        E 16 b0 0b 08
        E 32 80 34 00
        E 80 b0 0b 10
        E 0 90 34 10
        E 48 b0 0b 08
        E 64 80 34 00
        E 16 90 34 08
        E 80 80 34 00
        E 64 b0 0b 20
        E 0 90 34 20
        E 16 b0 0b 18
        E 32 b0 0b 10
        E 32 b0 0b 08
        E 32 80 34 00
        E 16 b0 0b 18
        E 0 90 34 18
        E 16 b0 0b 10
        E 32 b0 0b 08
        E 32 80 34 00
        E 48 b0 0b 10
        E 0 90 34 10
        E 48 b0 0b 08
        E 48 80 34 00
        E 48 90 34 08
        E 80 80 34 00
        E 48 b0 0b 20
        E 0 90 34 20
        E 16 b0 0b 18
        E 32 b0 0b 10
        E 32 b0 0b 08
        E 32 80 34 00
        E 32 b0 0b 18
        E 0 90 34 18
        E 16 b0 0b 10
        E 32 b0 0b 08
        E 32 80 34 00
        E 48 b0 0b 10
        E 0 90 34 10
        E 48 b0 0b 08
        E 64 80 34 00
        E 16 90 34 08
        E 64 80 34 00
        E 80 b0 0b 20
        E 0 90 34 20
        E 16 b0 0b 18
        E 32 b0 0b 10
        E 32 b0 0b 08
        E 32 80 34 00
        E 16 b0 0b 18
        E 0 90 34 18
        E 16 b0 0b 10
        E 32 b0 0b 08
        E 32 80 34 00
        E 64 b0 0b 10
        E 0 90 34 10
        E 48 b0 0b 08
        E 64 80 34 00
        E 16 90 34 08
        E 80 80 34 00
        E 48 b0 0b 20
        E 0 90 34 20
        E 16 b0 0b 18
        E 32 b0 0b 10
        E 16 b0 0b 08
        E 32 80 34 00
        E 48 b0 0b 18
        E 0 90 34 18
        E 16 b0 0b 10
        E 32 b0 0b 08
        E 32 80 34 00
        E 48 b0 0b 10
        E 0 90 34 10
        E 48 b0 0b 08
        E 64 80 34 00
        E 32 90 34 08
        E 80 80 34 00
        E 48 b0 0b 20
        E 0 90 3b 20
        E 16 b0 0b 18
        E 32 b0 0b 10
        E 32 b0 0b 08
        E 32 80 3b 00
        E 16 b0 0b 18
        E 0 90 3b 18
        E 16 b0 0b 10
        E 32 b0 0b 08
        E 32 80 3b 00
        E 64 b0 0b 10
        E 0 90 3b 10
        E 48 b0 0b 08
        E 64 80 3b 00
        E 16 90 3b 08
        E 80 80 3b 00
        E 48 b0 0b 20
        E 0 90 3b 20
        E 16 b0 0b 18
        E 16 b0 0b 10
        E 32 b0 0b 08
        E 32 80 3b 00
        E 48 b0 0b 18
        E 0 90 3b 18
        E 16 b0 0b 10
        E 32 b0 0b 08
        E 32 80 3b 00
        E 48 b0 0b 10
        E 0 90 3b 10
        E 48 b0 0b 08
        E 48 80 3b 00
        E 48 90 3b 08
        E 80 80 3b 00
        E 48 b0 0b 20
        E 0 90 3b 20
        E 16 b0 0b 18
        E 32 b0 0b 10
        E 32 b0 0b 08
        E 32 80 3b 00
        E 16 b0 0b 18
        E 0 90 3b 18
        E 16 b0 0b 10
        E 16 b0 0b 08
        E 32 80 3b 00
        E 80 b0 0b 10
        E 0 90 3b 10
        E 48 b0 0b 08
        E 64 80 3b 00
        E 16 90 3b 08
        E 80 80 3b 00
        E 64 b0 0b 20
        E 0 90 3b 20
        E 16 b0 0b 18
        E 32 b0 0b 10
        E 32 b0 0b 08
        E 32 80 3b 00
        E 16 b0 0b 18
        E 0 90 3b 18
        E 16 b0 0b 10
        E 32 b0 0b 08
        E 32 80 3b 00
        E 48 b0 0b 10
        E 0 90 3b 10
        E 32 b0 0b 08
        E 64 80 3b 00
        E 48 90 3b 08
        E 80 80 3b 00
        E 48 b0 0b 20
        E 0 90 3b 20
        E 16 b0 0b 18
        E 32 b0 0b 10
        E 32 b0 0b 08
        E 32 80 3b 00
        E 32 b0 0b 18
        E 0 90 3b 18
        E 16 b0 0b 10
        E 32 b0 0b 08
        E 32 80 3b 00
        E 48 b0 0b 10
        E 0 90 3b 10
        E 48 b0 0b 08
        E 64 80 3b 00
        E 16 90 3b 08
        E 64 80 3b 00
        E 80 b0 0b 20
        E 0 90 3b 20
        E 16 b0 0b 18
        E 32 b0 0b 10
        E 32 b0 0b 08
        E 32 80 3b 00
        E 16 b0 0b 18
        E 0 90 3b 18
        E 16 b0 0b 10
        E 32 b0 0b 08
        E 32 80 3b 00
        E 64 b0 0b 10
        E 0 90 3b 10
        E 48 b0 0b 08
        E 64 80 3b 00
        E 16 90 3b 08
        E 80 80 3b 00
        E 48 b0 0b 20
        E 0 90 3b 20
        E 16 b0 0b 18
        E 32 b0 0b 10
        E 16 b0 0b 08
        E 32 80 3b 00
        E 48 b0 0b 18
        E 0 90 3b 18
        E 16 b0 0b 10
        E 32 b0 0b 08
        E 32 80 3b 00
        E 48 b0 0b 10
        E 0 90 3b 10
        E 48 b0 0b 08
        E 64 80 3b 00
        E 32 90 3b 08
        E 80 80 3b 00
        E 48 b0 0b 20
        E 0 90 3b 20
        E 16 b0 0b 18
        E 32 b0 0b 10
        E 32 b0 0b 08
        E 32 80 3b 00
        E 16 b0 0b 18
        E 0 90 3b 18
        E 16 b0 0b 10
        E 32 b0 0b 08
        E 16 80 3b 00
        E 80 b0 0b 10
        E 0 90 3b 10
        E 48 b0 0b 08
        E 64 80 3b 00
        E 16 90 3b 08
        E 80 80 3b 00
        E 48 b0 0c 40
        E 0 b0 0b 30
        E 0 90 3b 30
        E 64 b0 0b 28
        E 80 b0 0b 30
        E 0 80 3b 00
        E 0 90 43 30
        E 16 b0 0b 28
        E 48 b0 0b 18
        E 0 80 43 00
        E 0 90 3b 18
        E 64 b0 0b 30
        E 0 80 3b 00
        E 0 90 42 30
        E 48 b0 0b 28
        E 16 b0 0b 18
        E 0 80 42 00
        E 0 90 43 18
        E 64 b0 0b 10
        E 16 b0 0b 30
        E 0 80 43 00
        E 0 90 3e 30
        E 64 b0 0b 18
        E 0 80 3e 00
        E 0 90 42 18
        E 16 b0 0b 10
        E 48 b0 0b 30
        E 0 80 42 00
        E 0 90 39 30
        E 48 b0 0b 28
        E 16 b0 0b 18
        E 0 80 39 00
        E 0 90 3e 18
        E 64 b0 0b 30
        E 16 b0 0b 28
        E 64 b0 0b 18
        E 0 80 3e 00
        E 0 90 39 18
        E 16 b0 0b 10
        E 48 b0 0b 30
        E 0 80 39 00
        E 0 90 3b 30
        E 48 b0 0b 28
        E 16 b0 0b 18
        E 0 80 3b 00
        E 0 90 3e 18
        E 64 b0 0b 30
        E 0 80 3e 00
        E 0 90 40 30
        E 16 b0 0b 28
        E 48 b0 0b 18
        E 0 80 40 00
        E 0 90 3b 18
        E 32 b0 0b 10
        E 48 b0 0b 30
        E 0 80 3b 00
        E 0 90 40 30
        E 48 b0 0b 28
        E 16 b0 0b 18
        E 64 b0 0b 10
        E 64 b0 0b 08
        E 64 b0 0b 30
        E 0 80 40 00
        E 0 90 3e 30
        E 80 b0 0b 18
        E 0 80 3e 00
        E 0 90 40 18
        E 16 b0 0b 10
        E 48 b0 0b 30
        E 0 80 40 00
        E 0 90 3b 30
        E 48 b0 0b 28
        E 16 b0 0b 18
        E 0 80 3b 00
        E 0 90 3e 18
        E 64 b0 0b 30
        E 0 80 3e 00
        E 0 90 39 30
        E 16 b0 0b 28
        E 48 b0 0b 18
        E 0 80 39 00
        E 0 90 3b 18
        E 32 b0 0b 10
        E 48 b0 0b 30
        E 48 b0 0b 28
        E 16 b0 0b 18
        E 0 80 3b 00
        E 0 90 39 18
        E 64 b0 0b 30
        E 0 80 39 00
        E 0 90 3e 30
        E 16 b0 0b 28
        E 48 b0 0b 18
        E 0 80 3e 00
        E 0 90 3b 18
        E 48 b0 0b 10
        E 16 b0 0b 30
        E 0 80 3b 00
        E 0 90 40 30
        E 64 b0 0b 28
        E 16 b0 0b 18
        E 0 80 40 00
        E 0 90 3e 18
        E 64 b0 0b 30
        E 0 80 3e 00
        E 0 90 3b 30
        E 16 b0 0b 28
        E 96 b0 0b 20
        E 16 b0 0b 30
        E 0 80 3b 00
        E 0 90 43 30
        E 64 b0 0b 18
        E 0 80 43 00
        E 0 90 3b 18
        E 80 b0 0b 30
        E 0 80 3b 00
        E 0 90 42 30
        E 16 b0 0b 28
        E 48 b0 0b 18
        E 0 80 42 00
        E 0 90 43 18
        E 48 b0 0b 10
        E 16 b0 0b 30
        E 0 80 43 00
        E 0 90 3e 30
        E 64 b0 0b 18
        E 0 80 3e 00
        E 0 90 42 18
        E 16 b0 0b 10
        E 48 b0 0b 30
        E 0 80 42 00
        E 0 90 39 30
        E 48 b0 0b 28
        E 32 b0 0b 18
        E 0 80 39 00
        E 0 90 3e 18
        E 48 b0 0b 10
        E 16 b0 0b 30
        E 64 b0 0b 18
        E 0 80 3e 00
        E 0 90 39 18
        E 16 b0 0b 10
        E 48 b0 0b 30
        E 0 80 39 00
        E 0 90 3b 30
        E 48 b0 0b 28
        E 16 b0 0b 18
        E 0 80 3b 00
        E 0 90 3e 18
        E 64 b0 0b 10
        E 16 b0 0b 30
        E 0 80 3e 00
        E 0 90 40 30
        E 64 b0 0b 18
        E 0 80 40 00
        E 0 90 3b 18
        E 16 b0 0b 10
        E 48 b0 0b 30
        E 0 80 3b 00
        E 0 90 40 30
        E 48 b0 0b 28
        E 16 b0 0b 18
        E 64 b0 0b 10
        E 80 b0 0b 08
        E 64 b0 0b 30
        E 0 80 40 00
        E 0 90 3e 30
        E 64 b0 0b 18
        E 0 80 3e 00
        E 0 90 40 18
        E 16 b0 0b 10
        E 48 b0 0b 30
        E 0 80 40 00
        E 0 90 3b 30
        E 48 b0 0b 28
        E 16 b0 0b 18
        E 0 80 3b 00
        E 0 90 3e 18
        E 64 b0 0b 10
        E 16 b0 0b 30
        E 0 80 3e 00
        E 0 90 39 30
        E 64 b0 0b 18
        E 0 80 39 00
        E 0 90 3b 18
        E 16 b0 0b 10
        E 48 b0 0b 30
        E 48 b0 0b 28
        E 16 b0 0b 18
        E 0 80 3b 00
        E 0 90 39 18
        E 64 b0 0b 30
        E 0 80 39 00
        E 0 90 3e 30
        E 16 b0 0b 28
        E 48 b0 0b 18
        E 0 80 3e 00
        E 0 90 3b 18
        E 32 b0 0b 10
        E 48 b0 0b 30
        E 0 80 3b 00
        E 0 90 40 30
        E 48 b0 0b 28
        E 16 b0 0b 18
        E 0 80 40 00
        E 0 90 3e 18
        E 64 b0 0b 30
        E 0 80 3e 00
        E 0 90 3b 30
        E 16 b0 0b 28
        E 96 b0 0b 20
        E 16 b0 0b 30
        E 0 80 3b 00
        E 0 90 43 30
        E 64 b0 0b 28
        E 16 b0 0b 18
        E 0 80 43 00
        E 0 90 3b 18
        E 64 b0 0b 30
        E 0 80 3b 00
        E 0 90 42 30
        E 64 b0 0b 18
        E 0 80 42 00
        E 0 90 43 18
        E 16 b0 0b 10
        E 48 b0 0b 30
        E 0 80 43 00
        E 0 90 3e 30
        E 48 b0 0b 28
        E 16 b0 0b 18
        E 0 80 3e 00
        E 0 90 42 18
        E 64 b0 0b 10
        E 16 b0 0b 30
        E 0 80 42 00
        E 0 90 39 30
        E 64 b0 0b 18
        E 0 80 39 00
        E 0 90 3e 18
        E 16 b0 0b 10
        E 48 b0 0b 30
        E 48 b0 0b 28
        E 16 b0 0b 18
        E 0 80 3e 00
        E 0 90 39 18
        E 64 b0 0b 30
        E 0 80 39 00
        E 0 90 3b 30
        E 16 b0 0b 28
        E 64 b0 0b 18
        E 0 80 3b 00
        E 0 90 3e 18
        E 16 b0 0b 10
        E 48 b0 0b 30
        E 0 80 3e 00
        E 0 90 40 30
        E 48 b0 0b 28
        E 16 b0 0b 18
        E 0 80 40 00
        E 0 90 3b 18
        E 64 b0 0b 30
        E 0 80 3b 00
        E 0 90 40 30
        E 16 b0 0b 28
        E 48 b0 0b 18
        E 32 b0 0b 10
        E 112 b0 0b 08
        E 64 b0 0b 30
        E 0 80 40 00
        E 0 90 3e 30
        E 64 b0 0b 18
        E 0 80 3e 00
        E 0 90 40 18
        E 48 b0 0b 10
        E 16 b0 0b 30
        E 0 80 40 00
        E 0 90 3b 30
        E 64 b0 0b 28
        E 16 b0 0b 18
        E 0 80 3b 00
        E 0 90 3e 18
        E 64 b0 0b 30
        E 0 80 3e 00
        E 0 90 39 30
        E 16 b0 0b 28
        E 48 b0 0b 18
        E 0 80 39 00
        E 0 90 3b 18
        E 48 b0 0b 10
        E 16 b0 0b 30
        E 64 b0 0b 18
        E 0 80 3b 00
        E 0 90 39 18
        E 16 b0 0b 10
        E 64 b0 0b 30
        E 0 80 39 00
        E 0 90 3e 30
        E 16 b0 0b 28
        E 48 b0 0b 18
        E 0 80 3e 00
        E 0 90 3b 18
        E 48 b0 0b 10
        E 16 b0 0b 30
        E 0 80 3b 00
        E 0 90 40 30
        E 64 b0 0b 18
        E 0 80 40 00
        E 0 90 3e 18
        E 16 b0 0b 10
        E 48 b0 0b 30
        E 0 80 3e 00
        E 0 90 3b 30
        E 48 b0 0b 28
        E 80 b0 0b 20
        E 16 b0 0b 30
        E 0 80 3b 00
        E 0 90 43 30
        E 64 b0 0b 18
        E 0 80 43 00
        E 0 90 3b 18
        E 64 b0 0b 30
        E 0 80 3b 00
        E 0 90 42 30
        E 16 b0 0b 28
        E 48 b0 0b 18
        E 0 80 42 00
        E 0 90 43 18
        E 48 b0 0b 10
        E 32 b0 0b 30
        E 0 80 43 00
        E 0 90 3e 30
        E 48 b0 0b 28
        E 16 b0 0b 18
        E 0 80 3e 00
        E 0 90 42 18
        E 64 b0 0b 30
        E 0 80 42 00
        E 0 90 39 30
        E 16 b0 0b 28
        E 48 b0 0b 18
        E 0 80 39 00
        E 0 90 3e 18
        E 48 b0 0b 10
        E 16 b0 0b 30
        E 64 b0 0b 28
        E 16 b0 0b 18
        E 0 80 3e 00
        E 0 90 39 18
        E 64 b0 0b 30
        E 0 80 39 00
        E 0 90 3b 30
        E 16 b0 0b 28
        E 48 b0 0b 18
        E 0 80 3b 00
        E 0 90 3e 18
        E 48 b0 0b 10
        E 16 b0 0b 30
        E 0 80 3e 00
        E 0 90 40 30
        E 64 b0 0b 18
        E 0 80 40 00
        E 0 90 3b 18
        E 16 b0 0b 10
        E 64 b0 0b 30
        E 0 80 3b 00
        E 0 90 40 30
        E 16 b0 0b 28
        E 48 b0 0b 18
        E 48 b0 0b 10
        E 80 b0 0b 08
        E 64 b0 0b 30
        E 0 80 40 00
        E 0 90 3e 30
        E 80 b0 0b 18
        E 0 80 3e 00
        E 0 90 40 18
        E 64 b0 0b 30
        E 0 80 40 00
        E 0 90 3b 30
        E 16 b0 0b 28
        E 48 b0 0b 18
        E 0 80 3b 00
        E 0 90 3e 18
        E 48 b0 0b 10
        E 16 b0 0b 30
        E 0 80 3e 00
        E 0 90 39 30
        E 64 b0 0b 18
        E 0 80 39 00
        E 0 90 3b 18
        E 16 b0 0b 10
        E 48 b0 0b 30
        E 32 b0 0b 28
        E 48 b0 0b 18
        E 0 80 3b 00
        E 0 90 39 18
        E 48 b0 0b 10
        E 16 b0 0b 30
        E 0 80 39 00
        E 0 90 3e 30
        E 64 b0 0b 18
        E 0 80 3e 00
        E 0 90 3b 18
        E 16 b0 0b 10
        E 48 b0 0b 30
        E 0 80 3b 00
        E 0 90 40 30
        E 48 b0 0b 28
        E 16 b0 0b 18
        E 0 80 40 00
        E 0 90 3e 18
        E 64 b0 0b 10
        E 16 b0 0b 48
        E 0 80 3e 00
        E 0 90 26 48
        E 16 b0 0b 40
        E 32 b0 0b 38
        E 32 b0 0b 30
        E 32 b0 0b 28
        E 16 b0 0b 48
        E 0 80 26 00
        E 0 90 28 48
        E 16 b0 0b 40
        E 32 b0 0b 38
        E 32 b0 0b 30
        E 32 b0 0b 28
        E 16 b0 0c 10
        E 0 b0 0b 38
        E 0 80 28 00
        E 0 90 36 38
        E 16 b0 0b 30
        E 16 b0 0b 28
        E 32 b0 0b 20
        E 32 b0 0b 18
        E 32 b0 0b 10
        E 16 b0 0b 38
        E 0 80 36 00
        E 0 90 37 38
        E 16 b0 0b 30
        E 32 b0 0b 28
        E 32 b0 0b 20
        E 32 b0 0b 18
        E 16 b0 0b 20
        E 144 b0 0b 38
        E 16 b0 0b 30
        E 32 b0 0b 28
        E 32 b0 0b 20
        E 32 b0 0b 18
        E 16 b0 0b 20
        E 16 b0 0b 18
        E 32 b0 0b 10
        E 32 b0 0b 08
        E 32 80 37 00
        E 16 b0 0b 38
        E 0 90 37 38
        E 16 b0 0b 30
        E 16 b0 0b 28
        E 32 b0 0b 20
        E 32 b0 0b 18
        E 32 b0 0b 10
        E 16 b0 0b 20
        E 16 b0 0b 18
        E 32 b0 0b 10
        E 32 b0 0b 08
        E 32 80 37 00
        E 16 b0 0b 10
        E 0 90 37 10
        E 144 b0 0b 38
        E 256 b0 0b 20
        E 16 b0 0b 18
        E 32 b0 0b 10
        E 16 b0 0b 08
        E 32 80 37 00
        E 48 b0 0b 38
        E 0 90 37 38
        E 16 b0 0b 30
        E 32 b0 0b 28
        E 32 b0 0b 20
        E 32 b0 0b 18
        E 16 b0 0b 20
        E 16 b0 0b 18
        E 32 b0 0b 10
        E 32 b0 0b 08
        E 32 80 37 00
        E 32 b0 0c 40
        E 0 b0 0b 48
        E 0 90 28 48
        E 16 b0 0b 40
        E 32 b0 0b 38
        E 32 b0 0b 30
        E 32 b0 0b 28
        E 16 b0 0b 48
        E 0 80 28 00
        E 0 90 26 48
        E 16 b0 0b 40
        E 32 b0 0b 38
        E 32 b0 0b 30
        E 32 b0 0b 28
        E 16 b0 0b 48
        E 0 80 26 00
        E 0 90 28 48
        E 16 b0 0b 40
        E 32 b0 0b 38
        E 16 b0 0b 30
        E 32 b0 0b 28
        E 32 b0 0b 20
        E 16 b0 0c 10
        E 0 b0 0b 38
        E 0 80 28 00
        E 0 90 36 38
        E 16 b0 0b 30
        E 32 b0 0b 28
        E 32 b0 0b 20
        E 32 b0 0b 18
        E 16 b0 0b 38
        E 0 80 36 00
        E 0 90 37 38
        E 16 b0 0b 30
        E 32 b0 0b 28
        E 32 b0 0b 20
        E 32 b0 0b 18
        E 16 b0 0b 10
        E 16 b0 0b 20
        E 128 b0 0b 38
        E 16 b0 0b 30
        E 32 b0 0b 28
        E 32 b0 0b 20
        E 32 b0 0b 18
        E 16 b0 0b 20
        E 16 b0 0b 18
        E 32 b0 0b 10
        E 16 b0 0b 08
        E 32 80 37 00
        E 48 b0 0b 38
        E 0 90 37 38
        E 16 b0 0b 30
        E 32 b0 0b 28
        E 32 b0 0b 20
        E 32 b0 0b 18
        E 16 b0 0b 20
        E 16 b0 0b 18
        E 32 b0 0b 10
        E 32 b0 0b 08
        E 32 80 37 00
        E 32 b0 0b 10
        E 0 90 37 10
        E 128 b0 0b 38
        E 272 b0 0b 20
        E 16 b0 0b 18
        E 32 b0 0b 10
        E 32 b0 0b 08
        E 32 80 37 00
        E 16 b0 0b 38
        E 0 90 37 38
        E 16 b0 0b 30
        E 32 b0 0b 28
        E 32 b0 0b 20
        E 32 b0 0b 18
        E 16 b0 0b 20
        E 16 b0 0b 18
        E 16 b0 0b 10
        E 32 b0 0b 08
        E 32 80 37 00
        E 48 b0 0c 40
        E 0 b0 0b 48
        E 0 90 28 48
        E 16 b0 0b 40
        E 32 b0 0b 38
        E 32 b0 0b 30
        E 32 b0 0b 28
        E 16 b0 0b 48
        E 0 80 28 00
        E 0 90 26 48
        E 16 b0 0b 40
        E 32 b0 0b 38
        E 32 b0 0b 30
        E 16 b0 0b 28
        E 32 b0 0b 20
        E 16 b0 0b 48
        E 0 80 26 00
        E 0 90 28 48
        E 16 b0 0b 40
        E 32 b0 0b 38
        E 32 b0 0b 30
        E 32 b0 0b 28
        E 16 b0 0c 10
        E 0 b0 0b 38
        E 0 80 28 00
        E 0 90 36 38
        E 16 b0 0b 30
        E 32 b0 0b 28
        E 32 b0 0b 20
        E 32 b0 0b 18
        E 16 b0 0b 38
        E 0 80 36 00
        E 0 90 37 38
        E 16 b0 0b 30
        E 16 b0 0b 28
        E 32 b0 0b 20
        E 32 b0 0b 18
        E 32 b0 0b 10
        E 16 b0 0b 20
        E 128 b0 0b 38
        E 16 b0 0b 30
        E 32 b0 0b 28
        E 32 b0 0b 20
        E 16 b0 0b 18
        E 32 b0 0b 10
        E 16 b0 0b 20
        E 16 b0 0b 18
        E 32 b0 0b 10
        E 32 b0 0b 08
        E 32 80 37 00
        E 16 b0 0b 38
        E 0 90 37 38
        E 16 b0 0b 30
        E 32 b0 0b 28
        E 32 b0 0b 20
        E 32 b0 0b 18
        E 16 b0 0b 20
        E 16 b0 0b 18
        E 16 b0 0b 10
        E 32 b0 0b 08
        E 32 80 37 00
        E 48 b0 0b 10
        E 0 90 37 10
        E 128 b0 0b 38
        E 272 b0 0b 20
        E 16 b0 0b 18
        E 32 b0 0b 10
        E 32 b0 0b 08
        E 32 80 37 00
        E 16 b0 0b 38
        E 0 90 37 38
        E 16 b0 0b 30
        E 32 b0 0b 28
        E 16 b0 0b 20
        E 32 b0 0b 18
        E 32 b0 0b 10
        E 16 b0 0b 20
        E 16 b0 0b 18
        E 32 b0 0b 10
        E 32 b0 0b 08
        E 32 80 37 00
        E 16 b0 0c 40
        E 0 b0 0b 48
        E 0 90 28 48
        E 16 b0 0b 40
        E 32 b0 0b 38
        E 32 b0 0b 30
        E 32 b0 0b 28
        E 16 b0 0b 20
        E 16 b0 0b 48
        E 0 80 28 00
        E 0 90 26 48
        E 16 b0 0b 40
        E 32 b0 0b 38
        E 32 b0 0b 30
        E 32 b0 0b 28
        E 16 b0 0b 48
        E 0 80 26 00
        E 0 90 28 48
        E 16 b0 0b 40
        E 32 b0 0b 38
        E 32 b0 0b 30
        E 32 b0 0b 28
        E 16 b0 0c 10
        E 0 b0 0b 38
        E 0 80 28 00
        E 0 90 36 38
        E 16 b0 0b 30
        E 32 b0 0b 28
        E 16 b0 0b 20
        E 32 b0 0b 18
        E 32 b0 0b 10
        E 16 b0 0b 38
        E 0 80 36 00
        E 0 90 37 38
        E 16 b0 0b 30
        E 32 b0 0b 28
        E 32 b0 0b 20
        E 32 b0 0b 18
        E 16 b0 0b 20
        E 144 b0 0b 38
        E 16 b0 0b 30
        E 32 b0 0b 28
        E 32 b0 0b 20
        E 32 b0 0b 18
        E 16 b0 0b 20
        E 16 b0 0b 18
        E 32 b0 0b 10
        E 32 b0 0b 08
        E 32 80 37 00
        E 16 b0 0b 38
        E 0 90 37 38
        E 16 b0 0b 30
        E 32 b0 0b 28
        E 16 b0 0b 20
        E 32 b0 0b 18
        E 32 b0 0b 10
        E 16 b0 0b 20
        E 16 b0 0b 18
        E 32 b0 0b 10
        E 32 b0 0b 08
        E 32 80 37 00
        E 16 b0 0b 10
        E 0 90 37 10
        E 128 b0 0b 38
        E 272 b0 0b 20
        E 16 b0 0b 18
        E 32 b0 0b 10
        E 32 b0 0b 08
        E 16 80 37 00
        E 48 b0 0b 38
        E 0 90 37 38
        E 16 b0 0b 30
        E 32 b0 0b 28
        E 32 b0 0b 20
        E 32 b0 0b 18
        E 16 b0 0b 20
        E 16 b0 0b 18
        E 32 b0 0b 10
        E 32 b0 0b 08
        E 32 80 37 00
        E 16 b0 0c 40
        E 0 b0 0b 48
        E 0 90 28 48
        E 16 b0 0b 40
        E 16 b0 0b 38
        E 32 b0 0b 30
        E 32 b0 0b 28
        E 32 b0 0b 20
        E 16 b0 0b 30
        E 0 80 28 00
        E 0 90 21 30
        E 16 b0 0b 28
        E 32 b0 0b 20
        E 32 b0 0b 18
        E 32 b0 0b 10
        E 16 b0 0b 30
        E 0 80 21 00
        E 0 90 24 30
        E 16 b0 0b 28
        E 32 b0 0b 20
        E 16 b0 0b 18
        E 0 80 24 00
        E 0 90 21 18
        E 80 b0 0b 30
        E 0 80 21 00
        E 0 90 28 30
        E 16 b0 0b 28
        E 32 b0 0b 20
        E 16 b0 0b 18
        E 0 80 28 00
        E 0 90 24 18
        E 16 b0 0b 10
        E 32 b0 0b 08
        E 16 b0 0b 30
        E 0 80 24 00
        E 0 90 2b 30
        E 16 b0 0b 28
        E 32 b0 0b 20
        E 16 b0 0b 18
        E 0 80 2b 00
        E 0 90 28 18
        E 16 b0 0b 10
        E 32 b0 0b 08
        E 16 b0 0b 30
        E 16 b0 0b 28
        E 16 b0 0b 20
        E 32 b0 0b 18
        E 16 80 28 00
        E 0 90 2b 18
        E 16 b0 0b 10
        E 32 b0 0b 08
        E 16 b0 0b 30
        E 0 80 2b 00
        E 0 90 24 30
        E 16 b0 0b 28
        E 32 b0 0b 20
        E 16 b0 0b 18
        E 0 80 24 00
        E 0 90 28 18
        E 16 b0 0b 10
        E 32 b0 0b 08
        E 16 b0 0b 30
        E 16 b0 0b 28
        E 32 b0 0b 20
        E 16 b0 0b 18
        E 0 80 28 00
        E 0 90 24 18
        E 16 b0 0b 10
        E 16 b0 0b 08
        E 32 80 24 00
        E 16 b0 0b 30
        E 0 90 2b 30
        E 16 b0 0b 28
        E 32 b0 0b 20
        E 16 b0 0b 18
        E 0 80 2b 00
        E 0 90 28 18
        E 16 b0 0b 10
        E 32 b0 0b 08
        E 16 b0 0b 30
        E 0 80 28 00
        E 0 90 2d 30
        E 16 b0 0b 28
        E 32 b0 0b 20
        E 16 b0 0b 18
        E 0 80 2d 00
        E 0 90 2b 18
        E 16 b0 0b 10
        E 32 b0 0b 08
        E 16 b0 0b 30
        E 0 80 2b 00
        E 0 90 30 30
        E 16 b0 0b 28
        E 32 b0 0b 20
        E 16 b0 0b 18
        E 16 80 30 00
        E 0 90 2d 18
        E 16 b0 0b 10
        E 32 b0 0b 08
        E 16 b0 0b 30
        E 0 80 2d 00
        E 0 90 34 30
        E 16 b0 0b 28
        E 32 b0 0b 20
        E 16 b0 0b 18
        E 0 80 34 00
        E 0 90 30 18
        E 16 b0 0b 10
        E 32 b0 0b 08
        E 16 b0 0b 30
        E 0 80 30 00
        E 0 90 37 30
        E 16 b0 0b 28
        E 32 b0 0b 20
        E 16 b0 0b 18
        E 0 80 37 00
        E 0 90 34 18
        E 16 b0 0b 10
        E 32 b0 0b 08
        E 16 80 34 00
        E 16 b0 0b 30
        E 0 90 39 30
        E 16 b0 0b 28
        E 32 b0 0b 20
        E 16 b0 0b 18
        E 0 80 39 00
        E 0 90 37 18
        E 16 b0 0b 10
        E 32 b0 0b 08
        E 16 b0 0b 30
        E 0 80 37 00
        E 0 90 3c 30
        E 16 b0 0b 28
        E 32 b0 0b 20
        E 16 b0 0b 18
        E 0 80 3c 00
        E 0 90 39 18
        E 16 b0 0b 10
        E 32 b0 0b 08
        E 16 b0 0b 30
        E 0 80 39 00
        E 0 90 40 30
        E 16 b0 0b 28
        E 32 b0 0b 20
        E 16 b0 0b 18
        E 16 80 40 00
        E 0 90 3c 18
        E 16 b0 0b 10
        E 32 b0 0b 08
        E 16 b0 0b 30
        E 0 80 3c 00
        E 0 90 43 30
        E 16 b0 0b 28
        E 32 b0 0b 20
        E 16 b0 0b 18
        E 0 80 43 00
        E 0 90 40 18
        E 16 b0 0b 10
        E 32 b0 0b 08
        E 16 b0 0b 30
        E 0 80 40 00
        E 0 90 23 30
        E 16 b0 0b 28
        E 32 b0 0b 20
        E 16 b0 0b 18
        E 0 80 23 00
        E 0 90 43 18
        E 16 b0 0b 10
        E 32 b0 0b 08
        E 16 80 43 00
        E 16 b0 0b 30
        E 0 90 27 30
        E 16 b0 0b 28
        E 32 b0 0b 20
        E 16 b0 0b 18
        E 0 80 27 00
        E 0 90 23 18
        E 16 b0 0b 10
        E 32 b0 0b 08
        E 16 b0 0b 30
        E 0 80 23 00
        E 0 90 2a 30
        E 16 b0 0b 28
        E 32 b0 0b 20
        E 16 b0 0b 18
        E 0 80 2a 00
        E 0 90 27 18
        E 16 b0 0b 10
        E 32 b0 0b 08
        E 16 b0 0b 30
        E 0 80 27 00
        E 0 90 2d 30
        E 16 b0 0b 28
        E 32 b0 0b 20
        E 16 b0 0b 18
        E 16 80 2d 00
        E 0 90 2a 18
        E 16 b0 0b 10
        E 32 b0 0b 08
        E 16 b0 0b 30
        E 16 b0 0b 28
        E 32 b0 0b 20
        E 16 b0 0b 18
        E 0 80 2a 00
        E 0 90 2d 18
        E 16 b0 0b 10
        E 32 b0 0b 08
        E 16 b0 0b 30
        E 0 80 2d 00
        E 0 90 27 30
        E 16 b0 0b 28
        E 32 b0 0b 20
        E 16 b0 0b 18
        E 0 80 27 00
        E 0 90 2a 18
        E 16 b0 0b 10
        E 32 b0 0b 08
        E 16 80 2a 00
        E 16 b0 0b 30
        E 0 90 2a 30
        E 16 b0 0b 28
        E 32 b0 0b 20
        E 16 b0 0b 18
        E 0 80 2a 00
        E 0 90 27 18
        E 16 b0 0b 10
        E 32 b0 0b 08
        E 16 b0 0b 30
        E 0 80 27 00
        E 0 90 2d 30
        E 16 b0 0b 28
        E 32 b0 0b 20
        E 16 b0 0b 18
        E 0 80 2d 00
        E 0 90 2a 18
        E 16 b0 0b 10
        E 32 b0 0b 08
        E 16 b0 0b 30
        E 0 80 2a 00
        E 0 90 2f 30
        E 16 b0 0b 28
        E 32 b0 0b 20
        E 16 b0 0b 18
        E 0 80 2f 00
        E 0 90 1d 18
        E 16 b0 0b 10
        E 16 b0 0b 08
        E 32 80 1d 00
        E 16 b0 0b 30
        E 0 90 33 30
        E 16 b0 0b 28
        E 32 b0 0b 20
        E 16 b0 0b 18
        E 0 80 33 00
        E 0 90 2f 18
        E 16 b0 0b 10
        E 32 b0 0b 08
        E 16 b0 0b 30
        E 0 80 2f 00
        E 0 90 36 30
        E 16 b0 0b 28
        E 32 b0 0b 20
        E 16 b0 0b 18
        E 0 80 36 00
        E 0 90 33 18
        E 16 b0 0b 10
        E 32 b0 0b 08
        E 16 b0 0b 30
        E 0 80 33 00
        E 0 90 39 30
        E 16 b0 0b 28
        E 16 b0 0b 20
        E 32 b0 0b 18
        E 16 80 39 00
        E 0 90 36 18
        E 16 b0 0b 10
        E 32 b0 0b 08
        E 16 b0 0b 30
        E 0 80 36 00
        E 0 90 3b 30
        E 16 b0 0b 28
        E 32 b0 0b 20
        E 16 b0 0b 18
        E 0 80 3b 00
        E 0 90 39 18
        E 16 b0 0b 10
        E 32 b0 0b 08
        E 16 b0 0b 30
        E 0 80 39 00
        E 0 90 3f 30
        E 16 b0 0b 28
        E 32 b0 0b 20
        E 16 b0 0b 18
        E 0 80 3f 00
        E 0 90 3b 18
        E 16 b0 0b 10
        E 16 b0 0b 08
        E 32 80 3b 00
        E 16 b0 0b 30
        E 0 90 42 30
        E 16 b0 0b 28
        E 32 b0 0b 20
        E 16 b0 0b 18
        E 0 80 42 00
        E 0 90 3f 18
        E 16 b0 0b 10
        E 32 b0 0b 08
        E 16 b0 0b 30
        E 0 80 3f 00
        E 0 90 45 30
        E 16 b0 0b 28
        E 32 b0 0b 20
        E 16 b0 0b 18
        E 0 80 45 00
        E 0 90 42 18
        E 64 80 42 00
        E 4304 b0 0c 10
        E 0 b0 0b 20
        E 0 90 34 20
        E 16 b0 0b 18
        E 32 b0 0b 10
        E 32 b0 0b 08
        E 32 80 34 00
        E 16 b0 0b 18
        E 0 90 34 18
        E 16 b0 0b 10
        E 16 b0 0b 08
        E 32 80 34 00
        E 80 b0 0b 10
        E 0 90 34 10
        E 48 b0 0b 08
        E 64 80 34 00
        E 16 90 34 08
        E 80 80 34 00
        E 64 b0 0b 20
        E 0 90 34 20
        E 16 b0 0b 18
        E 32 b0 0b 10
        E 32 b0 0b 08
        E 32 80 34 00
        E 16 b0 0b 18
        E 0 90 34 18
        E 16 b0 0b 10
        E 32 b0 0b 08
        E 32 80 34 00
        E 48 b0 0b 10
        E 0 90 34 10
        E 48 b0 0b 08
        E 48 80 34 00
        E 48 90 34 08
        E 80 80 34 00
        E 48 b0 0b 20
        E 0 90 34 20
        E 16 b0 0b 18
        E 32 b0 0b 10
        E 32 b0 0b 08
        E 32 80 34 00
        E 32 b0 0b 18
        E 0 90 34 18
        E 16 b0 0b 10
        E 32 b0 0b 08
        E 32 80 34 00
        E 48 b0 0b 10
        E 0 90 34 10
        E 48 b0 0b 08
        E 64 80 34 00
        E 16 90 34 08
        E 64 80 34 00
        E 80 b0 0b 20
        E 0 90 34 20
        E 16 b0 0b 18
        E 32 b0 0b 10
        E 32 b0 0b 08
        E 32 80 34 00
        E 16 b0 0b 18
        E 0 90 34 18
        E 16 b0 0b 10
        E 32 b0 0b 08
        E 32 80 34 00
        E 64 b0 0b 10
        E 0 90 34 10
        E 48 b0 0b 08
        E 64 80 34 00
        E 16 90 34 08
        E 80 80 34 00
        E 48 b0 0b 20
        E 0 90 34 20
        E 16 b0 0b 18
        E 32 b0 0b 10
        E 16 b0 0b 08
        E 32 80 34 00
        E 48 b0 0b 18
        E 0 90 34 18
        E 16 b0 0b 10
        E 32 b0 0b 08
        E 32 80 34 00
        E 48 b0 0b 10
        E 0 90 34 10
        E 48 b0 0b 08
        E 64 80 34 00
        E 32 90 34 08
        E 80 80 34 00
        E 48 b0 0b 20
        E 0 90 34 20
        E 16 b0 0b 18
        E 32 b0 0b 10
        E 32 b0 0b 08
        E 32 80 34 00
        E 16 b0 0b 18
        E 0 90 34 18
        E 16 b0 0b 10
        E 32 b0 0b 08
        E 32 80 34 00
        E 64 b0 0b 10
        E 0 90 34 10
        E 48 b0 0b 08
        E 64 80 34 00
        E 16 90 34 08
        E 80 80 34 00
        E 48 b0 0b 20
        E 0 90 34 20
        E 16 b0 0b 18
        E 16 b0 0b 10
        E 32 b0 0b 08
        E 32 80 34 00
        E 48 b0 0b 18
        E 0 90 34 18
        E 16 b0 0b 10
        E 32 b0 0b 08
        E 32 80 34 00
        E 48 b0 0b 10
        E 0 90 34 10
        E 48 b0 0b 08
        E 48 80 34 00
        E 48 90 34 08
        E 80 80 34 00
        E 48 b0 0b 20
        E 0 90 34 20
        E 16 b0 0b 18
        E 32 b0 0b 10
        E 32 b0 0b 08
        E 32 80 34 00
        E 16 b0 0b 18
        E 0 90 34 18
        E 16 b0 0b 10
        E 16 b0 0b 08
        E 32 80 34 00
        E 80 b0 0b 10
        E 0 90 34 10
        E 48 b0 0b 08
        E 64 80 34 00
        E 16 90 34 08
        E 80 80 34 00
        E 64 b0 0c 40
        E 0 b0 0b 38
        E 0 90 28 38
        E 16 b0 0b 30
        E 32 b0 0b 28
        E 32 b0 0b 20
        E 32 b0 0b 18
        E 16 b0 0b 20
        E 16 b0 0b 18
        E 32 b0 0b 10
        E 32 b0 0b 08
        E 32 80 28 00
        E 16 b0 0b 10
        E 0 90 28 10
        E 32 b0 0b 08
        E 64 80 28 00
        E 48 90 28 08
        E 80 80 28 00
        E 48 b0 0b 38
        E 0 90 28 38
        E 16 b0 0b 30
        E 32 b0 0b 28
        E 32 b0 0b 20
        E 32 b0 0b 18
        E 16 b0 0b 10
        E 16 b0 0b 38
        E 0 80 28 00
        E 0 90 26 38
        E 16 b0 0b 30
        E 32 b0 0b 28
        E 32 b0 0b 20
        E 32 b0 0b 18
        E 16 b0 0b 20
        E 16 b0 0b 18
        E 32 b0 0b 10
        E 32 b0 0b 08
        E 32 80 26 00
        E 16 b0 0b 10
        E 0 90 26 10
        E 48 b0 0b 08
        E 48 80 26 00
        E 48 b0 0b 58
        E 0 90 28 58
        E 16 b0 0b 50
        E 32 b0 0b 48
        E 32 b0 0b 40
        E 32 b0 0b 38
        E 32 b0 0b 30
        E 32 b0 0b 28
        E 32 b0 0b 20
        E 32 b0 0b 18
        E 16 b0 0b 10
        E 16 80 28 00
        E 0 90 33 10
        E 144 b0 0b 18
        E 160 b0 0b 20
        E 48 80 33 00
        E 0 90 34 20
        E 96 b0 0b 28
        E 160 b0 0b 30
        E 144 b0 0b 38
        E 48 b0 0c 60
        E 0 b0 0b 30
        E 0 80 34 00
        E 0 90 2d 30
        E 128 80 2d 00
        E 0 90 37 30
        E 16 b0 0b 28
        E 32 b0 0b 20
        E 16 b0 0b 18
        E 32 b0 0b 10
        E 32 b0 0b 08
        E 16 b0 0b 30
        E 16 b0 0b 28
        E 32 b0 0b 20
        E 32 b0 0b 18
        E 32 b0 0b 10
        E 16 b0 0b 30
        E 0 80 37 00
        E 0 90 2d 30
        E 16 b0 0b 28
        E 32 b0 0b 20
        E 32 b0 0b 18
        E 32 b0 0b 10
        E 16 b0 0b 30
        E 0 80 2d 00
        E 0 90 34 30
        E 16 b0 0b 28
        E 16 b0 0b 20
        E 32 b0 0b 18
        E 32 b0 0b 10
        E 32 b0 0b 08
        E 16 b0 0b 30
        E 0 80 34 00
        E 0 90 2d 30
        E 16 b0 0b 28
        E 32 b0 0b 20
        E 32 b0 0b 18
        E 32 b0 0b 10
        E 16 b0 0b 30
        E 0 80 2d 00
        E 0 90 34 30
        E 16 b0 0b 28
        E 32 b0 0b 20
        E 32 b0 0b 18
        E 16 b0 0b 10
        E 32 b0 0b 08
        E 16 b0 0b 30
        E 16 b0 0b 28
        E 32 b0 0b 20
        E 32 b0 0b 18
        E 32 b0 0b 10
        E 16 b0 0b 30
        E 0 80 34 00
        E 0 90 2d 30
        E 16 b0 0b 28
        E 32 b0 0b 20
        E 32 b0 0b 18
        E 32 b0 0b 10
        E 16 b0 0b 30
        E 0 80 2d 00
        E 0 90 37 30
        E 16 b0 0b 28
        E 16 b0 0b 20
        E 16 80 37 00
        E 0 ff 2f 00
      >
    >
  >
  <TRACK {3F69108D-78C7-4B4B-896B-AFFC0E1E75F3}
    NAME "NES - Pulse 2 [ch1]"
    PEAKCOL 10092441
    BEAT -1
    AUTOMODE 0
    PANLAWFLAGS 3
    VOLPAN 1 0 -1 -1 1
    MUTESOLO 0 0 0
    IPHASE 0
    PLAYOFFS 0 1
    ISBUS 0 0
    BUSCOMP 0 0 0 0 0
    SHOWINMIX 1 0.6667 0.5 1 0.5 0 0 0
    FIXEDLANES 9 0 0 0 0
    SEL 0
    REC 0 5088 1 0 0 0 0 0
    VU 2
    TRACKHEIGHT 0 0 0 0 0 0 0
    INQ 0 0 0 0.5 100 0 0 100
    NCHAN 2
    FX 1
    TRACKID {3F69108D-78C7-4B4B-896B-AFFC0E1E75F3}
    PERF 0
    MIDIOUT -1
    MAINSEND 1 0
    <FXCHAIN
      WNDRECT 24 52 700 560
      SHOW 0
      LASTSEL 0
      DOCKED 0
      BYPASS 0 0 0
      <JS "ReapNES Studio/ReapNES_Console.jsfx" ""
        2 15 1 10 80 10 100 2 1 15 1 5 60 10 80 1 1 0 50 0 0 15 1 0 100 0 0 0.500000 0.500000 0.400000 0.300000 0.800000 1 1 0 0 0 0 - - - - - - - - - - - - - - - - - - - - - - - - - -
      >
      FLOATPOS 0 0 0 0
      FXID {39A2CF70-073D-44B6-B95D-2FFAE8CF33A4}
      WAK 0 0
    >
    <ITEM
      POSITION 0
      LENGTH 173.4992276
      LOOP 0
      ALLTAKES 0
      FADEIN 0 0 0 0 0 0 0
      FADEOUT 0 0 0 0 0 0 0
      MUTE 0 0
      SEL 0
      IGUID {84AF4331-B2A8-49D5-AF72-1640BA15438D}
      <SOURCE MIDI
        HASDATA 1 480 QN
        CCINTERP 32
        E 0 c1 51
        E 0 b1 0c 10
        E 0 b1 0b 20
        E 0 91 38 20
        E 32 81 38 00
        E 0 91 39 20
        E 48 81 39 00
        E 0 91 3a 20
        E 48 81 3a 00
        E 0 91 2f 20
        E 208 b1 0b 18
        E 176 b1 0b 10
        E 64 81 2f 00
        E 0 91 2e 10
        E 784 81 2e 00
        E 0 91 2d 10
        E 864 81 2d 00
        E 0 91 2c 10
        E 848 81 2c 00
        E 0 91 2b 10
        E 976 81 2b 00
        E 0 91 2a 10
        E 960 81 2a 00
        E 0 91 29 10
        E 272 b1 0b 20
        E 0 81 29 00
        E 0 91 1a 20
        E 176 b1 0b 18
        E 16 b1 0b 20
        E 0 81 1a 00
        E 0 91 1c 20
        E 176 81 1c 00
        E 0 91 3e 20
        E 96 b1 0b 18
        E 80 b1 0c 20
        E 0 b1 0b 38
        E 0 81 3e 00
        E 0 91 23 38
        E 96 b1 0b 30
        E 112 b1 0b 28
        E 80 81 23 00
        E 64 b1 0b 38
        E 0 91 25 38
        E 80 b1 0b 30
        E 112 b1 0b 28
        E 96 81 25 00
        E 64 b1 0b 38
        E 0 91 26 38
        E 80 b1 0b 30
        E 112 b1 0b 28
        E 96 81 26 00
        E 496 b1 0c 10
        E 0 b1 0b 18
        E 0 91 37 18
        E 80 81 37 00
        E 0 91 38 18
        E 176 b1 0b 10
        E 0 81 38 00
        E 0 91 39 10
        E 96 b1 0b 18
        E 192 b1 0b 10
        E 176 b1 0b 18
        E 112 b1 0b 10
        E 64 b1 0b 18
        E 176 81 39 00
        E 0 91 37 18
        E 32 b1 0b 10
        E 256 b1 0c 20
        E 0 b1 0b 38
        E 0 81 37 00
        E 0 91 28 38
        E 96 b1 0b 30
        E 112 b1 0b 28
        E 80 81 28 00
        E 64 b1 0b 38
        E 0 91 25 38
        E 80 b1 0b 30
        E 112 b1 0b 28
        E 96 81 25 00
        E 64 b1 0b 38
        E 0 91 26 38
        E 64 b1 0b 30
        E 112 b1 0b 28
        E 112 81 26 00
        E 416 b1 0c 10
        E 0 b1 0b 18
        E 0 91 21 18
        E 48 b1 0b 10
        E 64 b1 0b 08
        E 48 81 21 00
        E 192 b1 0b 18
        E 0 91 21 18
        E 32 b1 0b 10
        E 64 b1 0b 08
        E 48 81 21 00
        E 32 b1 0b 18
        E 0 91 23 18
        E 32 b1 0b 10
        E 64 b1 0b 08
        E 48 81 23 00
        E 32 b1 0b 18
        E 0 91 23 18
        E 32 b1 0b 10
        E 48 b1 0b 08
        E 64 81 23 00
        E 32 b1 0b 18
        E 0 91 24 18
        E 16 b1 0b 10
        E 64 b1 0b 08
        E 48 81 24 00
        E 48 b1 0b 18
        E 0 91 26 18
        E 16 b1 0b 10
        E 64 b1 0b 08
        E 48 81 26 00
        E 48 b1 0b 18
        E 0 91 28 18
        E 16 b1 0b 10
        E 16 b1 0b 20
        E 0 81 28 00
        E 0 91 3e 20
        E 176 b1 0c 20
        E 0 b1 0b 38
        E 0 81 3e 00
        E 0 91 23 38
        E 80 b1 0b 30
        E 128 b1 0b 28
        E 80 81 23 00
        E 64 b1 0b 38
        E 0 91 25 38
        E 80 b1 0b 30
        E 112 b1 0b 28
        E 96 81 25 00
        E 64 b1 0b 38
        E 0 91 26 38
        E 64 b1 0b 30
        E 112 b1 0b 28
        E 112 b1 0b 20
        E 16 81 26 00
        E 480 b1 0c 10
        E 0 b1 0b 18
        E 0 91 37 18
        E 80 81 37 00
        E 0 91 38 18
        E 176 b1 0b 10
        E 0 81 38 00
        E 0 91 39 10
        E 96 b1 0b 18
        E 176 b1 0b 10
        E 16 b1 0b 18
        E 272 b1 0b 10
        E 96 b1 0b 18
        E 192 81 39 00
        E 0 91 37 18
        E 32 b1 0b 10
        E 256 b1 0c 20
        E 0 b1 0b 38
        E 0 81 37 00
        E 0 91 28 38
        E 80 b1 0b 30
        E 112 b1 0b 28
        E 96 81 28 00
        E 64 b1 0b 38
        E 0 91 25 38
        E 80 b1 0b 30
        E 112 b1 0b 28
        E 96 81 25 00
        E 80 b1 0b 38
        E 0 91 26 38
        E 48 b1 0b 30
        E 112 b1 0b 28
        E 112 b1 0b 20
        E 16 81 26 00
        E 400 b1 0c 10
        E 0 b1 0b 18
        E 0 91 21 18
        E 48 b1 0b 10
        E 48 b1 0b 08
        E 64 81 21 00
        E 192 b1 0b 18
        E 0 91 21 18
        E 32 b1 0b 10
        E 48 b1 0b 08
        E 64 81 21 00
        E 32 b1 0b 18
        E 0 91 23 18
        E 32 b1 0b 10
        E 48 b1 0b 08
        E 64 81 23 00
        E 32 b1 0b 18
        E 0 91 23 18
        E 16 b1 0b 10
        E 64 b1 0b 08
        E 48 81 23 00
        E 48 b1 0b 18
        E 0 91 24 18
        E 16 b1 0b 10
        E 48 b1 0b 08
        E 64 81 24 00
        E 48 b1 0b 18
        E 0 91 26 18
        E 16 b1 0b 10
        E 48 b1 0b 08
        E 64 81 26 00
        E 64 b1 0b 18
        E 0 91 28 18
        E 16 b1 0b 20
        E 0 81 28 00
        E 0 91 3e 20
        E 176 b1 0b 30
        E 0 81 3e 00
        E 0 91 28 30
        E 80 b1 0b 28
        E 112 b1 0b 20
        E 96 81 28 00
        E 64 b1 0b 30
        E 0 91 28 30
        E 64 b1 0b 28
        E 112 b1 0b 20
        E 128 b1 0b 18
        E 64 81 28 00
        E 192 b1 0b 30
        E 0 91 28 30
        E 96 b1 0b 28
        E 112 b1 0b 20
        E 112 b1 0b 18
        E 32 81 28 00
        E 176 b1 0b 30
        E 0 91 26 30
        E 16 b1 0b 28
        E 112 b1 0b 20
        E 128 b1 0b 18
        E 32 81 26 00
        E 64 b1 0b 30
        E 0 91 26 30
        E 16 b1 0b 28
        E 112 b1 0b 20
        E 112 b1 0b 18
        E 112 b1 0b 10
        E 16 81 26 00
        E 176 b1 0b 30
        E 0 91 26 30
        E 32 b1 0b 28
        E 112 b1 0b 20
        E 112 b1 0b 18
        E 96 81 26 00
        E 176 b1 0b 30
        E 0 91 26 30
        E 80 b1 0b 28
        E 112 b1 0b 20
        E 96 81 26 00
        E 64 b1 0b 30
        E 0 91 26 30
        E 64 b1 0b 28
        E 112 b1 0b 20
        E 112 b1 0b 18
        E 80 81 26 00
        E 176 b1 0b 30
        E 0 91 26 30
        E 96 b1 0b 28
        E 112 b1 0b 20
        E 112 b1 0b 18
        E 32 81 26 00
        E 176 b1 0b 30
        E 0 91 28 30
        E 16 b1 0b 28
        E 112 b1 0b 20
        E 112 b1 0b 18
        E 112 b1 0b 10
        E 16 b1 0b 28
        E 0 81 28 00
        E 0 91 48 28
        E 96 b1 0b 10
        E 0 81 48 00
        E 0 91 39 10
        E 80 b1 0b 28
        E 0 81 39 00
        E 0 91 47 28
        E 48 b1 0b 20
        E 64 b1 0b 10
        E 0 81 47 00
        E 0 91 48 10
        E 48 b1 0b 08
        E 16 b1 0b 28
        E 0 81 48 00
        E 0 91 43 28
        E 96 b1 0b 20
        E 16 b1 0b 10
        E 0 81 43 00
        E 0 91 47 10
        E 64 b1 0b 28
        E 0 81 47 00
        E 0 91 45 28
        E 32 b1 0b 20
        E 80 b1 0b 10
        E 0 81 45 00
        E 0 91 43 10
        E 32 b1 0b 08
        E 32 b1 0b 28
        E 0 81 43 00
        E 0 91 40 28
        E 80 b1 0b 20
        E 32 b1 0b 10
        E 0 81 40 00
        E 0 91 45 10
        E 64 b1 0b 28
        E 0 81 45 00
        E 0 91 43 28
        E 16 b1 0b 20
        E 96 b1 0b 10
        E 0 81 43 00
        E 0 91 40 10
        E 16 b1 0b 08
        E 48 b1 0b 30
        E 0 81 40 00
        E 0 91 28 30
        E 80 b1 0b 28
        E 112 b1 0b 20
        E 96 81 28 00
        E 80 b1 0b 30
        E 0 91 28 30
        E 48 b1 0b 28
        E 112 b1 0b 20
        E 112 b1 0b 18
        E 80 81 28 00
        E 176 b1 0b 30
        E 0 91 28 30
        E 80 b1 0b 28
        E 128 b1 0b 20
        E 112 b1 0b 18
        E 32 81 28 00
        E 176 b1 0b 30
        E 0 91 26 30
        E 16 b1 0b 28
        E 112 b1 0b 20
        E 112 b1 0b 18
        E 48 81 26 00
        E 80 b1 0b 30
        E 0 91 26 30
        E 96 b1 0b 28
        E 112 b1 0b 20
        E 128 b1 0b 18
        E 16 81 26 00
        E 176 b1 0b 30
        E 0 91 26 30
        E 32 b1 0b 28
        E 112 b1 0b 20
        E 112 b1 0b 18
        E 96 81 26 00
        E 176 b1 0b 30
        E 0 91 26 30
        E 64 b1 0b 28
        E 112 b1 0b 20
        E 112 81 26 00
        E 80 b1 0b 30
        E 0 91 26 30
        E 48 b1 0b 28
        E 112 b1 0b 20
        E 112 b1 0b 18
        E 80 81 26 00
        E 176 b1 0b 30
        E 0 91 26 30
        E 80 b1 0b 28
        E 112 b1 0b 20
        E 128 b1 0b 18
        E 48 81 26 00
        E 176 b1 0b 30
        E 0 91 28 30
        E 16 b1 0b 28
        E 112 b1 0b 20
        E 112 b1 0b 18
        E 64 81 28 00
        E 64 b1 0b 30
        E 0 91 28 30
        E 96 b1 0b 28
        E 112 b1 0b 20
        E 112 b1 0b 18
        E 32 81 28 00
        E 176 b1 0b 30
        E 0 91 2a 30
        E 32 b1 0b 28
        E 112 b1 0b 20
        E 112 b1 0b 18
        E 96 b1 0b 20
        E 0 81 2a 00
        E 0 91 34 20
        E 192 b1 0b 18
        E 160 b1 0b 10
        E 112 81 34 00
        E 0 91 33 10
        E 576 81 33 00
        E 0 91 32 10
        E 640 81 32 00
        E 0 91 31 10
        E 688 81 31 00
        E 0 91 30 10
        E 496 b1 0b 20
        E 0 81 30 00
        E 0 91 3e 20
        E 176 b1 0b 18
        E 16 b1 0c 20
        E 0 b1 0b 38
        E 0 81 3e 00
        E 0 91 23 38
        E 96 b1 0b 30
        E 128 b1 0b 28
        E 64 81 23 00
        E 64 b1 0b 38
        E 0 91 25 38
        E 96 b1 0b 30
        E 112 b1 0b 28
        E 80 81 25 00
        E 64 b1 0b 38
        E 0 91 26 38
        E 80 b1 0b 30
        E 112 b1 0b 28
        E 96 81 26 00
        E 496 b1 0c 10
        E 0 b1 0b 18
        E 0 91 37 18
        E 96 81 37 00
        E 0 91 38 18
        E 176 b1 0b 10
        E 0 81 38 00
        E 0 91 39 10
        E 80 b1 0b 18
        E 192 b1 0b 10
        E 160 b1 0b 18
        E 128 b1 0b 10
        E 48 b1 0b 18
        E 192 81 39 00
        E 0 91 37 18
        E 48 b1 0b 10
        E 240 b1 0c 20
        E 0 b1 0b 38
        E 0 81 37 00
        E 0 91 28 38
        E 96 b1 0b 30
        E 112 b1 0b 28
        E 80 81 28 00
        E 64 b1 0b 38
        E 0 91 25 38
        E 96 b1 0b 30
        E 112 b1 0b 28
        E 80 81 25 00
        E 64 b1 0b 38
        E 0 91 26 38
        E 80 b1 0b 30
        E 112 b1 0b 28
        E 96 81 26 00
        E 400 b1 0c 10
        E 0 b1 0b 18
        E 0 91 21 18
        E 16 b1 0b 10
        E 64 b1 0b 08
        E 64 81 21 00
        E 240 b1 0b 18
        E 0 91 21 18
        E 48 b1 0b 10
        E 48 b1 0b 08
        E 64 81 21 00
        E 16 b1 0b 18
        E 0 91 23 18
        E 48 b1 0b 10
        E 48 b1 0b 08
        E 64 81 23 00
        E 16 b1 0b 18
        E 0 91 23 18
        E 32 b1 0b 10
        E 64 b1 0b 08
        E 48 81 23 00
        E 32 b1 0b 18
        E 0 91 24 18
        E 32 b1 0b 10
        E 48 b1 0b 08
        E 64 81 24 00
        E 32 b1 0b 18
        E 0 91 26 18
        E 32 b1 0b 10
        E 48 b1 0b 08
        E 64 81 26 00
        E 32 b1 0b 18
        E 0 91 28 18
        E 16 b1 0b 10
        E 16 b1 0b 20
        E 0 81 28 00
        E 0 91 3e 20
        E 176 b1 0c 20
        E 0 b1 0b 38
        E 0 81 3e 00
        E 0 91 23 38
        E 96 b1 0b 30
        E 112 b1 0b 28
        E 80 81 23 00
        E 64 b1 0b 38
        E 0 91 25 38
        E 80 b1 0b 30
        E 112 b1 0b 28
        E 96 81 25 00
        E 64 b1 0b 38
        E 0 91 26 38
        E 80 b1 0b 30
        E 112 b1 0b 28
        E 96 81 26 00
        E 496 b1 0c 10
        E 0 b1 0b 18
        E 0 91 37 18
        E 80 81 37 00
        E 0 91 38 18
        E 176 b1 0b 10
        E 0 81 38 00
        E 0 91 39 10
        E 96 b1 0b 18
        E 192 b1 0b 10
        E 160 b1 0b 18
        E 128 b1 0b 10
        E 64 b1 0b 18
        E 176 81 39 00
        E 0 91 37 18
        E 32 b1 0b 10
        E 256 b1 0c 20
        E 0 b1 0b 38
        E 0 81 37 00
        E 0 91 28 38
        E 96 b1 0b 30
        E 112 b1 0b 28
        E 80 81 28 00
        E 64 b1 0b 38
        E 0 91 25 38
        E 80 b1 0b 30
        E 112 b1 0b 28
        E 96 81 25 00
        E 64 b1 0b 38
        E 0 91 26 38
        E 64 b1 0b 30
        E 128 b1 0b 28
        E 96 81 26 00
        E 400 b1 0c 10
        E 0 b1 0b 18
        E 0 91 21 18
        E 16 b1 0b 10
        E 48 b1 0b 08
        E 64 81 21 00
        E 240 b1 0b 18
        E 0 91 21 18
        E 32 b1 0b 10
        E 64 b1 0b 08
        E 64 81 21 00
        E 16 b1 0b 18
        E 0 91 23 18
        E 32 b1 0b 10
        E 64 b1 0b 08
        E 48 81 23 00
        E 32 b1 0b 18
        E 0 91 23 18
        E 32 b1 0b 10
        E 48 b1 0b 08
        E 64 81 23 00
        E 32 b1 0b 18
        E 0 91 24 18
        E 16 b1 0b 10
        E 64 b1 0b 08
        E 64 81 24 00
        E 32 b1 0b 18
        E 0 91 26 18
        E 16 b1 0b 10
        E 64 b1 0b 08
        E 48 81 26 00
        E 48 b1 0b 18
        E 0 91 28 18
        E 16 b1 0b 10
        E 16 b1 0b 20
        E 0 81 28 00
        E 0 91 3e 20
        E 176 b1 0b 30
        E 0 81 3e 00
        E 0 91 28 30
        E 96 b1 0b 28
        E 112 b1 0b 20
        E 80 81 28 00
        E 64 b1 0b 30
        E 0 91 28 30
        E 80 b1 0b 28
        E 112 b1 0b 20
        E 112 b1 0b 18
        E 48 81 28 00
        E 192 b1 0b 30
        E 0 91 28 30
        E 96 b1 0b 28
        E 128 b1 0b 20
        E 112 b1 0b 18
        E 16 81 28 00
        E 176 b1 0b 30
        E 0 91 26 30
        E 32 b1 0b 28
        E 112 b1 0b 20
        E 112 b1 0b 18
        E 32 81 26 00
        E 64 b1 0b 30
        E 0 91 26 30
        E 16 b1 0b 28
        E 112 b1 0b 20
        E 112 b1 0b 18
        E 112 81 26 00
        E 192 b1 0b 30
        E 0 91 26 30
        E 48 b1 0b 28
        E 112 b1 0b 20
        E 112 b1 0b 18
        E 80 81 26 00
        E 176 b1 0b 30
        E 0 91 26 30
        E 80 b1 0b 28
        E 112 b1 0b 20
        E 96 81 26 00
        E 64 b1 0b 30
        E 0 91 26 30
        E 80 b1 0b 28
        E 112 b1 0b 20
        E 112 b1 0b 18
        E 64 81 26 00
        E 176 b1 0b 30
        E 0 91 26 30
        E 96 b1 0b 28
        E 112 b1 0b 20
        E 112 b1 0b 18
        E 32 81 26 00
        E 176 b1 0b 30
        E 0 91 28 30
        E 32 b1 0b 28
        E 112 b1 0b 20
        E 112 b1 0b 18
        E 96 b1 0b 28
        E 0 81 28 00
        E 0 91 48 28
        E 16 b1 0b 20
        E 96 b1 0b 10
        E 0 81 48 00
        E 0 91 39 10
        E 64 b1 0b 28
        E 0 81 39 00
        E 0 91 47 28
        E 16 b1 0b 20
        E 96 b1 0b 10
        E 0 81 47 00
        E 0 91 48 10
        E 16 b1 0b 08
        E 64 b1 0b 28
        E 0 81 48 00
        E 0 91 43 28
        E 48 b1 0b 20
        E 64 b1 0b 10
        E 0 81 43 00
        E 0 91 47 10
        E 48 b1 0b 08
        E 16 b1 0b 28
        E 0 81 47 00
        E 0 91 45 28
        E 96 b1 0b 20
        E 16 b1 0b 10
        E 0 81 45 00
        E 0 91 43 10
        E 64 b1 0b 28
        E 0 81 43 00
        E 0 91 40 28
        E 32 b1 0b 20
        E 80 b1 0b 10
        E 0 81 40 00
        E 0 91 45 10
        E 32 b1 0b 08
        E 32 b1 0b 28
        E 0 81 45 00
        E 0 91 43 28
        E 80 b1 0b 20
        E 32 b1 0b 10
        E 0 81 43 00
        E 0 91 40 10
        E 64 b1 0b 30
        E 0 81 40 00
        E 0 91 28 30
        E 80 b1 0b 28
        E 112 b1 0b 20
        E 96 81 28 00
        E 64 b1 0b 30
        E 0 91 28 30
        E 64 b1 0b 28
        E 128 b1 0b 20
        E 112 b1 0b 18
        E 64 81 28 00
        E 176 b1 0b 30
        E 0 91 28 30
        E 96 b1 0b 28
        E 112 b1 0b 20
        E 112 b1 0b 18
        E 32 81 28 00
        E 176 b1 0b 30
        E 0 91 26 30
        E 16 b1 0b 28
        E 128 b1 0b 20
        E 112 b1 0b 18
        E 32 81 26 00
        E 64 b1 0b 30
        E 0 91 26 30
        E 16 b1 0b 28
        E 112 b1 0b 20
        E 112 b1 0b 18
        E 112 b1 0b 10
        E 16 81 26 00
        E 176 b1 0b 30
        E 0 91 26 30
        E 32 b1 0b 28
        E 112 b1 0b 20
        E 128 b1 0b 18
        E 80 81 26 00
        E 176 b1 0b 30
        E 0 91 26 30
        E 80 b1 0b 28
        E 112 b1 0b 20
        E 96 81 26 00
        E 64 b1 0b 30
        E 0 91 26 30
        E 64 b1 0b 28
        E 112 b1 0b 20
        E 112 b1 0b 18
        E 80 81 26 00
        E 176 b1 0b 30
        E 0 91 26 30
        E 96 b1 0b 28
        E 112 b1 0b 20
        E 112 b1 0b 18
        E 32 81 26 00
        E 176 b1 0b 30
        E 0 91 28 30
        E 16 b1 0b 28
        E 112 b1 0b 20
        E 112 b1 0b 18
        E 128 b1 0b 10
        E 112 b1 0b 08
        E 112 81 28 00
        E 128 b1 0b 30
        E 0 91 28 30
        E 96 b1 0b 28
        E 112 b1 0b 20
        E 16 b1 0b 30
        E 96 b1 0b 28
        E 112 b1 0b 20
        E 32 b1 0b 30
        E 0 81 28 00
        E 0 91 29 30
        E 80 b1 0b 28
        E 128 b1 0b 20
        E 32 b1 0b 30
        E 0 81 29 00
        E 0 91 2a 30
        E 80 b1 0b 28
        E 112 b1 0b 20
        E 96 81 2a 00
        E 80 b1 0b 30
        E 0 91 2a 30
        E 48 b1 0b 28
        E 112 b1 0b 20
        E 112 b1 0b 18
        E 80 81 2a 00
        E 176 b1 0b 30
        E 0 91 2a 30
        E 96 b1 0b 28
        E 112 b1 0b 20
        E 112 b1 0b 18
        E 32 81 2a 00
        E 176 b1 0b 30
        E 0 91 28 30
        E 16 b1 0b 28
        E 112 b1 0b 20
        E 112 b1 0b 18
        E 48 81 28 00
        E 80 b1 0b 30
        E 0 91 28 30
        E 96 b1 0b 28
        E 128 b1 0b 20
        E 112 b1 0b 18
        E 16 81 28 00
        E 176 b1 0b 30
        E 0 91 28 30
        E 32 b1 0b 28
        E 112 b1 0b 20
        E 112 b1 0b 18
        E 96 81 28 00
        E 176 b1 0b 30
        E 0 91 28 30
        E 64 b1 0b 28
        E 128 b1 0b 20
        E 96 81 28 00
        E 80 b1 0b 30
        E 0 91 28 30
        E 48 b1 0b 28
        E 112 b1 0b 20
        E 112 b1 0b 18
        E 80 81 28 00
        E 176 b1 0b 30
        E 0 91 28 30
        E 80 b1 0b 28
        E 112 b1 0b 20
        E 128 b1 0b 18
        E 32 81 28 00
        E 176 b1 0b 30
        E 0 91 2a 30
        E 16 b1 0b 28
        E 112 b1 0b 20
        E 112 b1 0b 18
        E 112 b1 0b 10
        E 16 b1 0b 28
        E 0 81 2a 00
        E 0 91 4a 28
        E 32 b1 0b 10
        E 0 81 4a 00
        E 0 91 3b 10
        E 48 b1 0b 28
        E 0 81 3b 00
        E 0 91 49 28
        E 48 b1 0b 10
        E 0 81 49 00
        E 0 91 4a 10
        E 32 b1 0b 08
        E 16 b1 0b 28
        E 0 81 4a 00
        E 0 91 45 28
        E 48 b1 0b 10
        E 0 81 45 00
        E 0 91 49 10
        E 32 b1 0b 28
        E 0 81 49 00
        E 0 91 47 28
        E 16 b1 0b 20
        E 32 b1 0b 10
        E 0 81 47 00
        E 0 91 45 10
        E 48 b1 0b 28
        E 0 81 45 00
        E 0 91 42 28
        E 32 b1 0b 20
        E 16 b1 0b 10
        E 0 81 42 00
        E 0 91 47 10
        E 32 b1 0b 28
        E 0 81 47 00
        E 0 91 45 28
        E 48 b1 0b 10
        E 0 81 45 00
        E 0 91 42 10
        E 16 b1 0b 08
        E 32 b1 0b 28
        E 0 81 42 00
        E 0 91 4a 28
        E 48 b1 0b 10
        E 0 81 4a 00
        E 0 91 45 10
        E 32 b1 0b 08
        E 16 b1 0b 28
        E 0 81 45 00
        E 0 91 49 28
        E 32 b1 0b 10
        E 0 81 49 00
        E 0 91 4a 10
        E 48 b1 0b 28
        E 0 81 4a 00
        E 0 91 45 28
        E 16 b1 0b 20
        E 32 b1 0b 10
        E 0 81 45 00
        E 0 91 49 10
        E 48 b1 0b 28
        E 0 81 49 00
        E 0 91 47 28
        E 32 b1 0b 20
        E 16 b1 0b 10
        E 0 81 47 00
        E 0 91 45 10
        E 32 b1 0b 28
        E 0 81 45 00
        E 0 91 42 28
        E 48 b1 0b 10
        E 0 81 42 00
        E 0 91 47 10
        E 32 b1 0b 08
        E 16 b1 0b 28
        E 0 81 47 00
        E 0 91 45 28
        E 48 b1 0b 10
        E 0 81 45 00
        E 0 91 42 10
        E 32 b1 0b 30
        E 0 81 42 00
        E 0 91 2a 30
        E 64 b1 0b 28
        E 112 b1 0b 20
        E 112 b1 0b 18
        E 16 81 2a 00
        E 64 b1 0b 30
        E 0 91 2a 30
        E 48 b1 0b 28
        E 112 b1 0b 20
        E 112 b1 0b 18
        E 80 81 2a 00
        E 176 b1 0b 30
        E 0 91 2a 30
        E 80 b1 0b 28
        E 112 b1 0b 20
        E 112 b1 0b 18
        E 48 81 2a 00
        E 176 b1 0b 30
        E 0 91 28 30
        E 16 b1 0b 28
        E 112 b1 0b 20
        E 112 b1 0b 18
        E 64 81 28 00
        E 64 b1 0b 30
        E 0 91 28 30
        E 96 b1 0b 28
        E 112 b1 0b 20
        E 112 b1 0b 18
        E 32 81 28 00
        E 176 b1 0b 30
        E 0 91 28 30
        E 16 b1 0b 28
        E 128 b1 0b 20
        E 112 b1 0b 18
        E 96 81 28 00
        E 192 b1 0b 30
        E 0 91 28 30
        E 48 b1 0b 28
        E 112 b1 0b 20
        E 112 b1 0b 18
        E 16 81 28 00
        E 80 b1 0b 30
        E 0 91 28 30
        E 32 b1 0b 28
        E 112 b1 0b 20
        E 128 b1 0b 18
        E 80 81 28 00
        E 176 b1 0b 30
        E 0 91 28 30
        E 80 b1 0b 28
        E 112 b1 0b 20
        E 112 b1 0b 18
        E 48 81 28 00
        E 192 b1 0b 30
        E 0 91 2a 30
        E 96 b1 0b 28
        E 128 b1 0b 20
        E 64 81 2a 00
        E 64 b1 0b 30
        E 0 91 2a 30
        E 96 b1 0b 28
        E 112 b1 0b 20
        E 112 b1 0b 18
        E 32 81 2a 00
        E 176 b1 0b 30
        E 0 91 2c 30
        E 16 b1 0b 28
        E 112 b1 0b 20
        E 112 b1 0b 18
        E 112 b1 0b 20
        E 0 81 2c 00
        E 0 91 36 20
        E 176 b1 0b 18
        E 176 b1 0b 10
        E 48 81 36 00
        E 0 91 35 10
        E 512 81 35 00
        E 0 91 34 10
        E 576 81 34 00
        E 0 91 33 10
        E 624 81 33 00
        E 0 91 32 10
        E 624 81 32 00
        E 0 91 31 10
        E 624 81 31 00
        E 0 91 30 10
        E 752 81 30 00
        E 0 91 2f 10
        E 752 81 2f 00
        E 0 91 2e 10
        E 688 81 2e 00
        E 15072 b1 0b 20
        E 0 91 38 20
        E 32 81 38 00
        E 0 91 39 20
        E 48 81 39 00
        E 0 91 3a 20
        E 48 81 3a 00
        E 0 91 2f 20
        E 208 b1 0b 18
        E 176 b1 0b 10
        E 64 81 2f 00
        E 0 91 2e 10
        E 512 81 2e 00
        E 4128 b1 0c 40
        E 0 b1 0b 08
        E 0 91 21 08
        E 32 b1 0b 10
        E 32 b1 0b 18
        E 32 b1 0b 20
        E 32 b1 0b 28
        E 32 b1 0b 30
        E 32 b1 0b 38
        E 32 b1 0b 40
        E 32 b1 0b 48
        E 32 b1 0b 50
        E 32 b1 0b 58
        E 32 b1 0b 60
        E 32 b1 0b 68
        E 32 b1 0b 70
        E 32 b1 0b 78
        E 32 81 21 00
        E 64 b1 0b 40
        E 0 91 48 40
        E 32 81 48 00
        E 10080 b1 0c 20
        E 0 b1 0b 30
        E 0 91 1c 30
        E 80 b1 0b 28
        E 32 b1 0b 20
        E 32 b1 0b 18
        E 32 b1 0b 10
        E 32 b1 0b 08
        E 32 81 1c 00
        E 16 b1 0b 30
        E 0 91 1c 30
        E 16 b1 0b 28
        E 16 b1 0b 20
        E 32 b1 0b 18
        E 32 b1 0b 10
        E 32 b1 0b 08
        E 32 81 1c 00
        E 112 b1 0b 30
        E 0 91 1c 30
        E 16 b1 0b 28
        E 32 b1 0b 20
        E 32 b1 0b 18
        E 16 b1 0b 10
        E 32 b1 0b 08
        E 16 b1 0b 30
        E 0 81 1c 00
        E 0 91 1a 30
        E 48 b1 0b 28
        E 64 b1 0b 20
        E 64 b1 0b 18
        E 64 b1 0b 10
        E 16 b1 0b 30
        E 0 81 1a 00
        E 0 91 1c 30
        E 16 b1 0b 28
        E 16 b1 0b 20
        E 32 b1 0b 18
        E 32 b1 0b 10
        E 32 b1 0b 08
        E 32 81 1c 00
        E 112 b1 0b 30
        E 0 91 1c 30
        E 16 b1 0b 28
        E 32 b1 0b 20
        E 32 b1 0b 18
        E 16 b1 0b 10
        E 32 b1 0b 08
        E 16 b1 0b 30
        E 16 b1 0b 28
        E 32 b1 0b 20
        E 32 b1 0b 18
        E 32 b1 0b 10
        E 32 b1 0b 08
        E 32 81 1c 00
        E 80 b1 0b 30
        E 0 91 1c 30
        E 16 b1 0b 28
        E 16 b1 0b 20
        E 32 b1 0b 18
        E 32 b1 0b 10
        E 32 b1 0b 08
        E 16 b1 0b 30
        E 0 81 1c 00
        E 0 91 1f 30
        E 48 b1 0b 28
        E 64 b1 0b 20
        E 64 b1 0b 18
        E 64 b1 0b 10
        E 48 b1 0b 08
        E 64 81 1f 00
        E 48 b1 0b 30
        E 0 91 1c 30
        E 16 b1 0b 28
        E 32 b1 0b 20
        E 32 b1 0b 18
        E 32 b1 0b 10
        E 32 b1 0b 08
        E 32 81 1c 00
        E 96 b1 0b 30
        E 0 91 1c 30
        E 16 b1 0b 28
        E 32 b1 0b 20
        E 32 b1 0b 18
        E 32 b1 0b 10
        E 32 b1 0b 08
        E 32 81 1c 00
        E 96 b1 0b 30
        E 0 91 1c 30
        E 16 b1 0b 28
        E 32 b1 0b 20
        E 32 b1 0b 18
        E 32 b1 0b 10
        E 16 b1 0b 30
        E 0 81 1c 00
        E 0 91 1a 30
        E 48 b1 0b 28
        E 64 b1 0b 20
        E 64 b1 0b 18
        E 48 b1 0b 10
        E 48 b1 0b 30
        E 0 81 1a 00
        E 0 91 1c 30
        E 16 b1 0b 28
        E 32 b1 0b 20
        E 32 b1 0b 18
        E 32 b1 0b 10
        E 32 b1 0b 08
        E 32 81 1c 00
        E 96 b1 0b 30
        E 0 91 1c 30
        E 16 b1 0b 28
        E 32 b1 0b 20
        E 32 b1 0b 18
        E 32 b1 0b 10
        E 16 b1 0b 30
        E 16 b1 0b 28
        E 32 b1 0b 20
        E 32 b1 0b 18
        E 32 b1 0b 10
        E 32 b1 0b 08
        E 32 81 1c 00
        E 96 b1 0b 30
        E 0 91 1c 30
        E 16 b1 0b 28
        E 32 b1 0b 20
        E 32 b1 0b 18
        E 32 b1 0b 10
        E 16 b1 0b 30
        E 0 81 1c 00
        E 0 91 1f 30
        E 48 b1 0b 28
        E 64 b1 0b 20
        E 48 b1 0b 18
        E 64 b1 0b 10
        E 64 b1 0b 08
        E 64 81 1f 00
        E 48 b1 0b 30
        E 0 91 1c 30
        E 16 b1 0b 28
        E 32 b1 0b 20
        E 32 b1 0b 18
        E 16 b1 0b 10
        E 32 b1 0b 08
        E 32 81 1c 00
        E 112 b1 0b 30
        E 0 91 1c 30
        E 16 b1 0b 28
        E 32 b1 0b 20
        E 32 b1 0b 18
        E 32 b1 0b 10
        E 32 b1 0b 08
        E 16 81 1c 00
        E 112 b1 0b 30
        E 0 91 1c 30
        E 16 b1 0b 28
        E 32 b1 0b 20
        E 32 b1 0b 18
        E 32 b1 0b 10
        E 16 b1 0b 30
        E 0 81 1c 00
        E 0 91 1a 30
        E 48 b1 0b 28
        E 48 b1 0b 20
        E 64 b1 0b 18
        E 64 b1 0b 10
        E 48 b1 0b 30
        E 0 81 1a 00
        E 0 91 1c 30
        E 16 b1 0b 28
        E 32 b1 0b 20
        E 32 b1 0b 18
        E 32 b1 0b 10
        E 32 b1 0b 08
        E 16 81 1c 00
        E 112 b1 0b 30
        E 0 91 1c 30
        E 16 b1 0b 28
        E 32 b1 0b 20
        E 32 b1 0b 18
        E 32 b1 0b 10
        E 16 b1 0b 30
        E 16 b1 0b 28
        E 32 b1 0b 20
        E 32 b1 0b 18
        E 16 b1 0b 10
        E 32 b1 0b 08
        E 32 81 1c 00
        E 112 b1 0b 30
        E 0 91 1c 30
        E 16 b1 0b 28
        E 32 b1 0b 20
        E 32 b1 0b 18
        E 32 b1 0b 10
        E 16 b1 0b 30
        E 0 81 1c 00
        E 0 91 1f 30
        E 48 b1 0b 28
        E 48 b1 0b 20
        E 64 b1 0b 18
        E 64 b1 0b 10
        E 64 b1 0b 08
        E 64 81 1f 00
        E 64 b1 0b 30
        E 0 91 1c 30
        E 16 b1 0b 28
        E 32 b1 0b 20
        E 32 b1 0b 18
        E 32 b1 0b 10
        E 32 b1 0b 08
        E 32 81 1c 00
        E 80 b1 0b 30
        E 0 91 1c 30
        E 16 b1 0b 28
        E 32 b1 0b 20
        E 16 b1 0b 18
        E 32 b1 0b 10
        E 32 b1 0b 08
        E 32 81 1c 00
        E 112 b1 0b 30
        E 0 91 1c 30
        E 16 b1 0b 28
        E 32 b1 0b 20
        E 32 b1 0b 18
        E 32 b1 0b 10
        E 16 b1 0b 08
        E 16 b1 0b 30
        E 0 81 1c 00
        E 0 91 1a 30
        E 48 b1 0b 28
        E 64 b1 0b 20
        E 64 b1 0b 18
        E 64 b1 0b 10
        E 16 b1 0b 30
        E 0 81 1a 00
        E 0 91 1c 30
        E 16 b1 0b 28
        E 32 b1 0b 20
        E 16 b1 0b 18
        E 32 b1 0b 10
        E 32 b1 0b 08
        E 32 81 1c 00
        E 112 b1 0b 30
        E 0 91 1c 30
        E 16 b1 0b 28
        E 32 b1 0b 20
        E 32 b1 0b 18
        E 32 b1 0b 10
        E 16 b1 0b 08
        E 16 b1 0b 30
        E 16 b1 0b 28
        E 32 b1 0b 20
        E 32 b1 0b 18
        E 32 b1 0b 10
        E 32 b1 0b 08
        E 32 81 1c 00
        E 80 b1 0b 30
        E 0 91 1c 30
        E 16 b1 0b 28
        E 32 b1 0b 20
        E 32 b1 0b 18
        E 16 b1 0b 10
        E 32 b1 0b 08
        E 16 b1 0b 30
        E 0 81 1c 00
        E 0 91 1f 30
        E 48 b1 0b 28
        E 64 b1 0b 20
        E 64 b1 0b 18
        E 64 b1 0b 10
        E 48 b1 0b 08
        E 64 81 1f 00
        E 48 b1 0c 40
        E 0 b1 0b 38
        E 0 91 23 38
        E 16 b1 0b 30
        E 32 b1 0b 28
        E 32 b1 0b 20
        E 32 b1 0b 18
        E 16 b1 0b 20
        E 16 b1 0b 18
        E 32 b1 0b 10
        E 32 b1 0b 08
        E 16 81 23 00
        E 48 b1 0b 10
        E 0 91 23 10
        E 48 b1 0b 08
        E 64 81 23 00
        E 16 91 23 08
        E 80 81 23 00
        E 48 b1 0b 38
        E 0 91 23 38
        E 16 b1 0b 30
        E 16 b1 0b 28
        E 32 b1 0b 20
        E 32 b1 0b 18
        E 32 b1 0b 10
        E 16 b1 0b 38
        E 0 81 23 00
        E 0 91 21 38
        E 16 b1 0b 30
        E 32 b1 0b 28
        E 32 b1 0b 20
        E 32 b1 0b 18
        E 16 b1 0b 20
        E 16 b1 0b 18
        E 32 b1 0b 10
        E 32 b1 0b 08
        E 16 81 21 00
        E 48 b1 0b 10
        E 0 91 21 10
        E 48 b1 0b 08
        E 64 81 21 00
        E 16 b1 0b 58
        E 0 91 23 58
        E 16 b1 0b 50
        E 32 b1 0b 48
        E 32 b1 0b 40
        E 32 b1 0b 38
        E 32 b1 0b 30
        E 16 b1 0b 28
        E 32 b1 0b 20
        E 32 b1 0b 18
        E 32 b1 0b 10
        E 16 81 23 00
        E 0 91 2d 10
        E 144 b1 0b 18
        E 144 b1 0b 20
        E 160 b1 0b 28
        E 32 81 2d 00
        E 0 91 2e 28
        E 112 b1 0b 30
        E 160 b1 0b 38
        E 48 b1 0c 60
        E 0 b1 0b 30
        E 0 81 2e 00
        E 0 91 21 30
        E 128 b1 0b 38
        E 16 b1 0b 30
        E 0 81 21 00
        E 0 91 34 30
        E 16 b1 0b 28
        E 32 b1 0b 20
        E 32 b1 0b 18
        E 32 b1 0b 10
        E 16 b1 0b 30
        E 16 b1 0b 28
        E 32 b1 0b 20
        E 32 b1 0b 18
        E 32 b1 0b 10
        E 16 b1 0b 30
        E 0 81 34 00
        E 0 91 21 30
        E 16 b1 0b 28
        E 32 b1 0b 20
        E 16 b1 0b 18
        E 32 b1 0b 10
        E 32 b1 0b 08
        E 16 b1 0b 30
        E 0 81 21 00
        E 0 91 30 30
        E 16 b1 0b 28
        E 32 b1 0b 20
        E 32 b1 0b 18
        E 32 b1 0b 10
        E 16 b1 0b 30
        E 0 81 30 00
        E 0 91 21 30
        E 16 b1 0b 28
        E 32 b1 0b 20
        E 32 b1 0b 18
        E 32 b1 0b 10
        E 16 b1 0b 08
        E 16 b1 0b 30
        E 0 81 21 00
        E 0 91 30 30
        E 16 b1 0b 28
        E 32 b1 0b 20
        E 32 b1 0b 18
        E 32 b1 0b 10
        E 16 b1 0b 30
        E 16 b1 0b 28
        E 32 b1 0b 20
        E 32 b1 0b 18
        E 32 b1 0b 10
        E 16 b1 0b 30
        E 0 81 30 00
        E 0 91 21 30
        E 16 b1 0b 28
        E 32 b1 0b 20
        E 16 b1 0b 18
        E 32 b1 0b 10
        E 32 b1 0b 08
        E 16 b1 0b 30
        E 0 81 21 00
        E 0 91 34 30
        E 16 b1 0b 28
        E 32 b1 0b 20
        E 32 b1 0b 18
        E 32 b1 0b 10
        E 16 b1 0b 30
        E 16 b1 0b 28
        E 32 b1 0b 20
        E 32 b1 0b 18
        E 32 b1 0b 10
        E 16 b1 0b 30
        E 0 81 34 00
        E 0 91 21 30
        E 16 b1 0b 28
        E 16 b1 0b 20
        E 32 b1 0b 18
        E 32 b1 0b 10
        E 32 b1 0b 08
        E 16 b1 0b 30
        E 0 81 21 00
        E 0 91 30 30
        E 16 b1 0b 28
        E 32 b1 0b 20
        E 32 b1 0b 18
        E 32 b1 0b 10
        E 16 b1 0b 30
        E 0 81 30 00
        E 0 91 21 30
        E 16 b1 0b 28
        E 32 b1 0b 20
        E 32 b1 0b 18
        E 16 b1 0b 10
        E 32 b1 0b 08
        E 16 b1 0b 30
        E 0 81 21 00
        E 0 91 30 30
        E 16 b1 0b 28
        E 32 b1 0b 20
        E 32 b1 0b 18
        E 32 b1 0b 10
        E 16 b1 0b 30
        E 16 b1 0b 28
        E 32 b1 0b 20
        E 32 b1 0b 18
        E 32 b1 0b 10
        E 16 b1 0c 20
        E 0 b1 0b 38
        E 0 81 30 00
        E 0 91 1c 38
        E 16 b1 0b 30
        E 16 b1 0b 28
        E 32 b1 0b 20
        E 32 b1 0b 18
        E 32 b1 0b 10
        E 32 b1 0b 08
        E 32 81 1c 00
        E 80 b1 0b 38
        E 0 91 1c 38
        E 16 b1 0b 30
        E 32 b1 0b 28
        E 32 b1 0b 20
        E 16 b1 0b 18
        E 32 b1 0b 10
        E 32 b1 0b 08
        E 32 81 1c 00
        E 80 b1 0b 38
        E 0 91 1c 38
        E 16 b1 0b 30
        E 32 b1 0b 28
        E 32 b1 0b 20
        E 32 b1 0b 18
        E 16 b1 0b 38
        E 0 81 1c 00
        E 0 91 1a 38
        E 32 b1 0b 30
        E 64 b1 0b 28
        E 64 b1 0b 20
        E 64 b1 0b 18
        E 48 b1 0b 38
        E 0 81 1a 00
        E 0 91 1c 38
        E 16 b1 0b 30
        E 32 b1 0b 28
        E 32 b1 0b 20
        E 16 b1 0b 18
        E 32 b1 0b 10
        E 32 b1 0b 08
        E 32 81 1c 00
        E 80 b1 0b 38
        E 0 91 1c 38
        E 16 b1 0b 30
        E 32 b1 0b 28
        E 32 b1 0b 20
        E 32 b1 0b 18
        E 16 b1 0b 38
        E 16 b1 0b 30
        E 32 b1 0b 28
        E 16 b1 0b 20
        E 32 b1 0b 18
        E 32 b1 0b 10
        E 32 b1 0b 08
        E 32 81 1c 00
        E 80 b1 0b 38
        E 0 91 1c 38
        E 16 b1 0b 30
        E 32 b1 0b 28
        E 32 b1 0b 20
        E 32 b1 0b 18
        E 16 b1 0b 10
        E 16 b1 0b 38
        E 0 81 1c 00
        E 0 91 1f 38
        E 48 b1 0b 30
        E 64 b1 0b 28
        E 64 b1 0b 20
        E 64 b1 0b 18
        E 64 b1 0b 10
        E 48 b1 0b 08
        E 48 b1 0b 38
        E 0 81 1f 00
        E 0 91 1c 38
        E 16 b1 0b 30
        E 32 b1 0b 28
        E 32 b1 0b 20
        E 32 b1 0b 18
        E 32 b1 0b 10
        E 32 b1 0b 08
        E 32 81 1c 00
        E 64 b1 0b 38
        E 0 91 1c 38
        E 16 b1 0b 30
        E 32 b1 0b 28
        E 32 b1 0b 20
        E 32 b1 0b 18
        E 32 b1 0b 10
        E 32 b1 0b 08
        E 32 81 1c 00
        E 48 b1 0b 38
        E 0 91 1c 38
        E 16 b1 0b 30
        E 32 b1 0b 28
        E 16 b1 0b 20
        E 32 b1 0b 18
        E 32 b1 0b 10
        E 16 b1 0b 38
        E 0 81 1c 00
        E 0 91 1a 38
        E 48 b1 0b 30
        E 64 b1 0b 28
        E 64 b1 0b 20
        E 64 b1 0b 18
        E 32 b1 0b 38
        E 0 81 1a 00
        E 0 91 1c 38
        E 16 b1 0b 30
        E 32 b1 0b 28
        E 32 b1 0b 20
        E 32 b1 0b 18
        E 32 b1 0b 10
        E 32 b1 0b 08
        E 32 81 1c 00
        E 48 b1 0b 38
        E 0 91 1c 38
        E 16 b1 0b 30
        E 32 b1 0b 28
        E 32 b1 0b 20
        E 16 b1 0b 18
        E 32 b1 0b 10
        E 16 b1 0b 38
        E 16 b1 0b 30
        E 32 b1 0b 28
        E 32 b1 0b 20
        E 32 b1 0b 18
        E 32 b1 0b 10
        E 32 b1 0b 08
        E 32 81 1c 00
        E 48 b1 0b 38
        E 0 91 1c 38
        E 16 b1 0b 30
        E 16 b1 0b 28
        E 32 b1 0b 20
        E 32 b1 0b 18
        E 32 b1 0b 10
        E 16 b1 0b 38
        E 0 81 1c 00
        E 0 91 1f 38
        E 48 b1 0b 30
        E 64 b1 0b 28
        E 64 b1 0b 20
        E 48 b1 0b 18
        E 64 b1 0b 10
        E 64 b1 0b 08
        E 48 b1 0c 60
        E 0 b1 0b 30
        E 0 81 1f 00
        E 0 91 21 30
        E 16 b1 0b 28
        E 64 b1 0b 20
        E 48 b1 0b 30
        E 0 81 21 00
        E 0 91 34 30
        E 16 b1 0b 28
        E 16 b1 0b 20
        E 32 b1 0b 18
        E 32 b1 0b 10
        E 32 b1 0b 08
        E 16 b1 0b 30
        E 16 b1 0b 28
        E 32 b1 0b 20
        E 32 b1 0b 18
        E 32 b1 0b 10
        E 16 b1 0b 30
        E 0 81 34 00
        E 0 91 21 30
        E 16 b1 0b 28
        E 32 b1 0b 20
        E 32 b1 0b 18
        E 16 b1 0b 10
        E 32 b1 0b 08
        E 16 b1 0b 30
        E 0 81 21 00
        E 0 91 30 30
        E 16 b1 0b 28
        E 32 b1 0b 20
        E 32 b1 0b 18
        E 32 b1 0b 10
        E 16 b1 0b 30
        E 0 81 30 00
        E 0 91 21 30
        E 16 b1 0b 28
        E 32 b1 0b 20
        E 32 b1 0b 18
        E 32 b1 0b 10
        E 16 b1 0b 30
        E 0 81 21 00
        E 0 91 30 30
        E 16 b1 0b 28
        E 16 b1 0b 20
        E 32 b1 0b 18
        E 32 b1 0b 10
        E 32 b1 0b 08
        E 16 b1 0b 30
        E 16 b1 0b 28
        E 32 b1 0b 20
        E 32 b1 0b 18
        E 32 b1 0b 10
        E 16 b1 0b 30
        E 0 81 30 00
        E 0 91 21 30
        E 16 b1 0b 28
        E 32 b1 0b 20
        E 32 b1 0b 18
        E 32 b1 0b 10
        E 16 b1 0b 08
        E 16 b1 0b 30
        E 0 81 21 00
        E 0 91 34 30
        E 16 b1 0b 28
        E 32 b1 0b 20
        E 32 b1 0b 18
        E 32 b1 0b 10
        E 16 b1 0b 30
        E 16 b1 0b 28
        E 32 b1 0b 20
        E 32 b1 0b 18
        E 32 b1 0b 10
        E 16 b1 0b 30
        E 0 81 34 00
        E 0 91 21 30
        E 16 b1 0b 28
        E 32 b1 0b 20
        E 16 b1 0b 18
        E 32 b1 0b 10
        E 32 b1 0b 08
        E 16 b1 0b 30
        E 0 81 21 00
        E 0 91 30 30
        E 16 b1 0b 28
        E 32 b1 0b 20
        E 32 b1 0b 18
        E 32 b1 0b 10
        E 16 b1 0b 30
        E 0 81 30 00
        E 0 91 21 30
        E 16 b1 0b 28
        E 32 b1 0b 20
        E 32 b1 0b 18
        E 32 b1 0b 10
        E 16 b1 0b 08
        E 16 b1 0b 30
        E 0 81 21 00
        E 0 91 30 30
        E 16 b1 0b 28
        E 32 b1 0b 20
        E 32 b1 0b 18
        E 32 b1 0b 10
        E 16 b1 0b 30
        E 16 b1 0b 28
        E 32 b1 0b 20
        E 32 b1 0b 18
        E 32 b1 0b 10
        E 16 b1 0c 10
        E 0 b1 0b 38
        E 0 81 30 00
        E 0 91 23 38
        E 16 b1 0b 30
        E 32 b1 0b 28
        E 16 b1 0b 20
        E 32 b1 0b 18
        E 32 b1 0b 10
        E 16 b1 0b 20
        E 128 b1 0b 38
        E 0 81 23 00
        E 0 91 33 38
        E 160 b1 0b 30
        E 32 b1 0b 28
        E 32 b1 0b 20
        E 32 b1 0b 18
        E 16 b1 0b 20
        E 128 b1 0b 38
        E 0 81 33 00
        E 0 91 36 38
        E 16 b1 0b 30
        E 32 b1 0b 28
        E 16 b1 0b 20
        E 32 b1 0b 18
        E 32 b1 0b 10
        E 16 b1 0b 20
        E 16 b1 0b 18
        E 32 b1 0b 10
        E 32 b1 0b 08
        E 32 81 36 00
        E 16 b1 0b 38
        E 0 91 36 38
        E 16 b1 0b 30
        E 32 b1 0b 28
        E 32 b1 0b 20
        E 32 b1 0b 18
        E 16 b1 0b 20
        E 16 b1 0b 18
        E 16 b1 0b 10
        E 32 b1 0b 08
        E 32 81 36 00
        E 48 b1 0b 10
        E 0 91 36 10
        E 128 b1 0b 38
        E 272 b1 0b 20
        E 128 b1 0b 38
        E 144 b1 0b 20
        E 128 b1 0b 10
        E 144 b1 0c 20
        E 0 b1 0b 30
        E 0 81 36 00
        E 0 91 1c 30
        E 16 b1 0b 28
        E 32 b1 0b 20
        E 32 b1 0b 18
        E 32 b1 0b 10
        E 32 b1 0b 08
        E 32 81 1c 00
        E 80 b1 0b 30
        E 0 91 1c 30
        E 16 b1 0b 28
        E 16 b1 0b 20
        E 32 b1 0b 18
        E 32 b1 0b 10
        E 32 b1 0b 08
        E 32 81 1c 00
        E 112 b1 0b 30
        E 0 91 1c 30
        E 16 b1 0b 28
        E 32 b1 0b 20
        E 32 b1 0b 18
        E 16 b1 0b 10
        E 32 b1 0b 08
        E 16 b1 0b 30
        E 0 81 1c 00
        E 0 91 1a 30
        E 48 b1 0b 28
        E 64 b1 0b 20
        E 64 b1 0b 18
        E 64 b1 0b 10
        E 16 b1 0b 30
        E 0 81 1a 00
        E 0 91 1c 30
        E 16 b1 0b 28
        E 32 b1 0b 20
        E 16 b1 0b 18
        E 32 b1 0b 10
        E 32 b1 0b 08
        E 32 81 1c 00
        E 112 b1 0b 30
        E 0 91 1c 30
        E 16 b1 0b 28
        E 32 b1 0b 20
        E 32 b1 0b 18
        E 32 b1 0b 10
        E 16 b1 0b 08
        E 16 b1 0b 30
        E 16 b1 0b 28
        E 32 b1 0b 20
        E 32 b1 0b 18
        E 32 b1 0b 10
        E 32 b1 0b 08
        E 32 81 1c 00
        E 80 b1 0b 30
        E 0 91 1c 30
        E 16 b1 0b 28
        E 32 b1 0b 20
        E 16 b1 0b 18
        E 32 b1 0b 10
        E 32 b1 0b 08
        E 16 b1 0b 30
        E 0 81 1c 00
        E 0 91 1f 30
        E 48 b1 0b 28
        E 64 b1 0b 20
        E 64 b1 0b 18
        E 64 b1 0b 10
        E 48 b1 0b 08
        E 64 81 1f 00
        E 48 b1 0b 30
        E 0 91 1c 30
        E 16 b1 0b 28
        E 32 b1 0b 20
        E 32 b1 0b 18
        E 32 b1 0b 10
        E 32 b1 0b 08
        E 32 81 1c 00
        E 96 b1 0b 30
        E 0 91 1c 30
        E 16 b1 0b 28
        E 32 b1 0b 20
        E 32 b1 0b 18
        E 32 b1 0b 10
        E 32 b1 0b 08
        E 32 81 1c 00
        E 96 b1 0b 30
        E 0 91 1c 30
        E 16 b1 0b 28
        E 32 b1 0b 20
        E 32 b1 0b 18
        E 32 b1 0b 10
        E 16 b1 0b 30
        E 0 81 1c 00
        E 0 91 1a 30
        E 48 b1 0b 28
        E 64 b1 0b 20
        E 64 b1 0b 18
        E 48 b1 0b 10
        E 48 b1 0b 30
        E 0 81 1a 00
        E 0 91 1c 30
        E 16 b1 0b 28
        E 32 b1 0b 20
        E 32 b1 0b 18
        E 32 b1 0b 10
        E 32 b1 0b 08
        E 32 81 1c 00
        E 80 b1 0b 30
        E 0 91 1c 30
        E 16 b1 0b 28
        E 16 b1 0b 20
        E 32 b1 0b 18
        E 32 b1 0b 10
        E 32 b1 0b 08
        E 16 b1 0b 30
        E 16 b1 0b 28
        E 32 b1 0b 20
        E 32 b1 0b 18
        E 32 b1 0b 10
        E 32 b1 0b 08
        E 32 81 1c 00
        E 96 b1 0b 30
        E 0 91 1c 30
        E 16 b1 0b 28
        E 32 b1 0b 20
        E 32 b1 0b 18
        E 32 b1 0b 10
        E 16 b1 0b 30
        E 0 81 1c 00
        E 0 91 1f 30
        E 48 b1 0b 28
        E 64 b1 0b 20
        E 48 b1 0b 18
        E 64 b1 0b 10
        E 64 b1 0b 08
        E 64 81 1f 00
        E 48 b1 0b 30
        E 0 91 1c 30
        E 16 b1 0b 28
        E 32 b1 0b 20
        E 32 b1 0b 18
        E 16 b1 0b 10
        E 32 b1 0b 08
        E 32 81 1c 00
        E 112 b1 0b 30
        E 0 91 1c 30
        E 16 b1 0b 28
        E 32 b1 0b 20
        E 32 b1 0b 18
        E 32 b1 0b 10
        E 32 b1 0b 08
        E 16 81 1c 00
        E 112 b1 0b 30
        E 0 91 1c 30
        E 16 b1 0b 28
        E 32 b1 0b 20
        E 32 b1 0b 18
        E 32 b1 0b 10
        E 16 b1 0b 30
        E 0 81 1c 00
        E 0 91 1a 30
        E 48 b1 0b 28
        E 64 b1 0b 20
        E 48 b1 0b 18
        E 64 b1 0b 10
        E 48 b1 0b 30
        E 0 81 1a 00
        E 0 91 1c 30
        E 16 b1 0b 28
        E 32 b1 0b 20
        E 32 b1 0b 18
        E 32 b1 0b 10
        E 32 b1 0b 08
        E 32 81 1c 00
        E 96 b1 0b 30
        E 0 91 1c 30
        E 16 b1 0b 28
        E 32 b1 0b 20
        E 32 b1 0b 18
        E 32 b1 0b 10
        E 16 b1 0b 30
        E 16 b1 0b 28
        E 32 b1 0b 20
        E 32 b1 0b 18
        E 32 b1 0b 10
        E 16 b1 0b 08
        E 32 81 1c 00
        E 112 b1 0b 30
        E 0 91 1c 30
        E 16 b1 0b 28
        E 32 b1 0b 20
        E 32 b1 0b 18
        E 32 b1 0b 10
        E 16 b1 0b 30
        E 0 81 1c 00
        E 0 91 1f 30
        E 48 b1 0b 28
        E 48 b1 0b 20
        E 64 b1 0b 18
        E 64 b1 0b 10
        E 64 b1 0b 08
        E 64 81 1f 00
        E 64 b1 0b 30
        E 0 91 1c 30
        E 16 b1 0b 28
        E 32 b1 0b 20
        E 32 b1 0b 18
        E 32 b1 0b 10
        E 32 b1 0b 08
        E 32 81 1c 00
        E 80 b1 0b 30
        E 0 91 1c 30
        E 16 b1 0b 28
        E 32 b1 0b 20
        E 16 b1 0b 18
        E 32 b1 0b 10
        E 32 b1 0b 08
        E 32 81 1c 00
        E 112 b1 0b 30
        E 0 91 1c 30
        E 16 b1 0b 28
        E 32 b1 0b 20
        E 32 b1 0b 18
        E 32 b1 0b 10
        E 16 b1 0b 30
        E 0 81 1c 00
        E 0 91 1a 30
        E 32 b1 0b 28
        E 64 b1 0b 20
        E 64 b1 0b 18
        E 64 b1 0b 10
        E 48 b1 0b 30
        E 0 81 1a 00
        E 0 91 1c 30
        E 16 b1 0b 28
        E 32 b1 0b 20
        E 32 b1 0b 18
        E 16 b1 0b 10
        E 32 b1 0b 08
        E 32 81 1c 00
        E 112 b1 0b 30
        E 0 91 1c 30
        E 16 b1 0b 28
        E 32 b1 0b 20
        E 32 b1 0b 18
        E 32 b1 0b 10
        E 16 b1 0b 30
        E 16 b1 0b 28
        E 16 b1 0b 20
        E 32 b1 0b 18
        E 32 b1 0b 10
        E 32 b1 0b 08
        E 32 81 1c 00
        E 112 b1 0b 30
        E 0 91 1c 30
        E 16 b1 0b 28
        E 32 b1 0b 20
        E 32 b1 0b 18
        E 16 b1 0b 10
        E 32 b1 0b 08
        E 16 b1 0b 30
        E 0 81 1c 00
        E 0 91 1f 30
        E 48 b1 0b 28
        E 64 b1 0b 20
        E 64 b1 0b 18
        E 64 b1 0b 10
        E 48 b1 0b 08
        E 64 81 1f 00
        E 48 b1 0b 30
        E 0 91 1c 30
        E 16 b1 0b 28
        E 32 b1 0b 20
        E 32 b1 0b 18
        E 32 b1 0b 10
        E 32 b1 0b 08
        E 32 81 1c 00
        E 96 b1 0b 30
        E 0 91 1c 30
        E 16 b1 0b 28
        E 32 b1 0b 20
        E 32 b1 0b 18
        E 32 b1 0b 10
        E 32 b1 0b 08
        E 32 81 1c 00
        E 80 b1 0b 30
        E 0 91 1c 30
        E 16 b1 0b 28
        E 32 b1 0b 20
        E 16 b1 0b 18
        E 32 b1 0b 10
        E 32 b1 0b 08
        E 16 b1 0b 30
        E 0 81 1c 00
        E 0 91 1a 30
        E 48 b1 0b 28
        E 64 b1 0b 20
        E 64 b1 0b 18
        E 64 b1 0b 10
        E 32 b1 0b 30
        E 0 81 1a 00
        E 0 91 1c 30
        E 16 b1 0b 28
        E 32 b1 0b 20
        E 32 b1 0b 18
        E 32 b1 0b 10
        E 32 b1 0b 08
        E 32 81 1c 00
        E 80 b1 0b 30
        E 0 91 1c 30
        E 16 b1 0b 28
        E 32 b1 0b 20
        E 16 b1 0b 18
        E 32 b1 0b 10
        E 32 b1 0b 08
        E 16 b1 0b 30
        E 16 b1 0b 28
        E 32 b1 0b 20
        E 32 b1 0b 18
        E 32 b1 0b 10
        E 32 b1 0b 08
        E 32 81 1c 00
        E 96 b1 0b 30
        E 0 91 1c 30
        E 16 b1 0b 28
        E 32 b1 0b 20
        E 32 b1 0b 18
        E 32 b1 0b 10
        E 16 b1 0b 30
        E 0 81 1c 00
        E 0 91 1f 30
        E 48 b1 0b 28
        E 64 b1 0b 20
        E 64 b1 0b 18
        E 48 b1 0b 10
        E 64 b1 0b 08
        E 64 81 1f 00
        E 48 b1 0b 30
        E 0 91 1c 30
        E 16 b1 0b 28
        E 32 b1 0b 20
        E 32 b1 0b 18
        E 32 b1 0b 10
        E 16 b1 0b 08
        E 32 81 1c 00
        E 112 b1 0b 30
        E 0 91 1c 30
        E 16 b1 0b 28
        E 32 b1 0b 20
        E 32 b1 0b 18
        E 32 b1 0b 10
        E 32 b1 0b 08
        E 32 81 1c 00
        E 96 b1 0b 30
        E 0 91 1c 30
        E 16 b1 0b 28
        E 32 b1 0b 20
        E 32 b1 0b 18
        E 32 b1 0b 10
        E 16 b1 0b 30
        E 0 81 1c 00
        E 0 91 1a 30
        E 48 b1 0b 28
        E 64 b1 0b 20
        E 48 b1 0b 18
        E 64 b1 0b 10
        E 48 b1 0b 30
        E 0 81 1a 00
        E 0 91 1c 30
        E 16 b1 0b 28
        E 32 b1 0b 20
        E 32 b1 0b 18
        E 32 b1 0b 10
        E 32 b1 0b 08
        E 32 81 1c 00
        E 96 b1 0b 30
        E 0 91 1c 30
        E 16 b1 0b 28
        E 32 b1 0b 20
        E 32 b1 0b 18
        E 32 b1 0b 10
        E 16 b1 0b 30
        E 16 b1 0b 28
        E 32 b1 0b 20
        E 32 b1 0b 18
        E 32 b1 0b 10
        E 32 b1 0b 08
        E 16 81 1c 00
        E 112 b1 0b 30
        E 0 91 1c 30
        E 16 b1 0b 28
        E 32 b1 0b 20
        E 32 b1 0b 18
        E 32 b1 0b 10
        E 16 b1 0b 30
        E 0 81 1c 00
        E 0 91 1f 30
        E 48 b1 0b 28
        E 48 b1 0b 20
        E 64 b1 0b 18
        E 64 b1 0b 10
        E 64 b1 0b 08
        E 64 81 1f 00
        E 48 b1 0b 30
        E 0 91 1c 30
        E 16 b1 0b 28
        E 16 b1 0b 20
        E 32 b1 0b 18
        E 32 b1 0b 10
        E 32 b1 0b 08
        E 32 81 1c 00
        E 112 b1 0b 30
        E 0 91 1c 30
        E 16 b1 0b 28
        E 32 b1 0b 20
        E 32 b1 0b 18
        E 32 b1 0b 10
        E 16 b1 0b 08
        E 32 81 1c 00
        E 112 b1 0b 30
        E 0 91 1c 30
        E 16 b1 0b 28
        E 32 b1 0b 20
        E 32 b1 0b 18
        E 32 b1 0b 10
        E 16 b1 0b 30
        E 0 81 1c 00
        E 0 91 1a 30
        E 48 b1 0b 28
        E 48 b1 0b 20
        E 64 b1 0b 18
        E 64 b1 0b 10
        E 48 b1 0b 30
        E 0 81 1a 00
        E 0 91 1c 30
        E 16 b1 0b 28
        E 32 b1 0b 20
        E 32 b1 0b 18
        E 32 b1 0b 10
        E 16 b1 0b 08
        E 32 81 1c 00
        E 112 b1 0b 30
        E 0 91 1c 30
        E 16 b1 0b 28
        E 32 b1 0b 20
        E 32 b1 0b 18
        E 32 b1 0b 10
        E 16 b1 0b 30
        E 16 b1 0b 28
        E 32 b1 0b 20
        E 16 b1 0b 18
        E 32 b1 0b 10
        E 32 b1 0b 08
        E 32 81 1c 00
        E 112 b1 0b 30
        E 0 91 1c 30
        E 16 b1 0b 28
        E 32 b1 0b 20
        E 32 b1 0b 18
        E 32 b1 0b 10
        E 16 b1 0b 08
        E 16 b1 0b 30
        E 0 81 1c 00
        E 0 91 1f 30
        E 48 b1 0b 28
        E 64 b1 0b 20
        E 64 b1 0b 18
        E 64 b1 0b 10
        E 64 b1 0b 08
        E 48 81 1f 00
        E 48 b1 0b 30
        E 0 91 1c 30
        E 16 b1 0b 28
        E 32 b1 0b 20
        E 32 b1 0b 18
        E 32 b1 0b 10
        E 32 b1 0b 08
        E 32 81 1c 00
        E 80 b1 0b 30
        E 0 91 1c 30
        E 16 b1 0b 28
        E 16 b1 0b 20
        E 32 b1 0b 18
        E 32 b1 0b 10
        E 32 b1 0b 08
        E 32 81 1c 00
        E 112 b1 0b 30
        E 0 91 1c 30
        E 16 b1 0b 28
        E 32 b1 0b 20
        E 32 b1 0b 18
        E 16 b1 0b 10
        E 32 b1 0b 08
        E 16 b1 0b 30
        E 0 81 1c 00
        E 0 91 1a 30
        E 48 b1 0b 28
        E 64 b1 0b 20
        E 64 b1 0b 18
        E 64 b1 0b 10
        E 16 b1 0b 30
        E 0 81 1a 00
        E 0 91 1c 30
        E 16 b1 0b 28
        E 16 b1 0b 20
        E 32 b1 0b 18
        E 32 b1 0b 10
        E 32 b1 0b 08
        E 32 81 1c 00
        E 112 b1 0b 30
        E 0 91 1c 30
        E 16 b1 0b 28
        E 32 b1 0b 20
        E 32 b1 0b 18
        E 16 b1 0b 10
        E 32 b1 0b 08
        E 16 b1 0b 30
        E 16 b1 0b 28
        E 32 b1 0b 20
        E 32 b1 0b 18
        E 32 b1 0b 10
        E 32 b1 0b 08
        E 32 81 1c 00
        E 80 b1 0b 30
        E 0 91 1c 30
        E 16 b1 0b 28
        E 16 b1 0b 20
        E 32 b1 0b 18
        E 32 b1 0b 10
        E 32 b1 0b 08
        E 16 b1 0b 30
        E 0 81 1c 00
        E 0 91 1f 30
        E 48 b1 0b 28
        E 64 b1 0b 20
        E 64 b1 0b 18
        E 48 b1 0b 10
        E 64 b1 0b 08
        E 64 81 1f 00
        E 48 b1 0b 30
        E 0 91 23 30
        E 16 b1 0b 28
        E 32 b1 0b 20
        E 32 b1 0b 18
        E 32 b1 0b 10
        E 32 b1 0b 08
        E 32 81 23 00
        E 96 b1 0b 30
        E 0 91 23 30
        E 16 b1 0b 28
        E 32 b1 0b 20
        E 32 b1 0b 18
        E 32 b1 0b 10
        E 32 b1 0b 08
        E 32 81 23 00
        E 96 b1 0b 30
        E 0 91 23 30
        E 16 b1 0b 28
        E 32 b1 0b 20
        E 32 b1 0b 18
        E 32 b1 0b 10
        E 16 b1 0b 30
        E 0 81 23 00
        E 0 91 21 30
        E 48 b1 0b 28
        E 64 b1 0b 20
        E 64 b1 0b 18
        E 48 b1 0b 10
        E 48 b1 0b 30
        E 0 81 21 00
        E 0 91 23 30
        E 16 b1 0b 28
        E 32 b1 0b 20
        E 32 b1 0b 18
        E 32 b1 0b 10
        E 32 b1 0b 08
        E 32 81 23 00
        E 96 b1 0b 30
        E 0 91 23 30
        E 16 b1 0b 28
        E 32 b1 0b 20
        E 32 b1 0b 18
        E 32 b1 0b 10
        E 16 b1 0b 30
        E 16 b1 0b 28
        E 32 b1 0b 20
        E 32 b1 0b 18
        E 32 b1 0b 10
        E 32 b1 0b 08
        E 32 81 23 00
        E 96 b1 0b 30
        E 0 91 23 30
        E 16 b1 0b 28
        E 32 b1 0b 20
        E 32 b1 0b 18
        E 32 b1 0b 10
        E 16 b1 0b 30
        E 0 81 23 00
        E 0 91 26 30
        E 48 b1 0b 28
        E 64 b1 0b 20
        E 48 b1 0b 18
        E 64 b1 0b 10
        E 64 b1 0b 08
        E 64 81 26 00
        E 48 b1 0b 30
        E 0 91 23 30
        E 16 b1 0b 28
        E 32 b1 0b 20
        E 32 b1 0b 18
        E 16 b1 0b 10
        E 32 b1 0b 08
        E 32 81 23 00
        E 112 b1 0b 30
        E 0 91 23 30
        E 16 b1 0b 28
        E 32 b1 0b 20
        E 32 b1 0b 18
        E 32 b1 0b 10
        E 32 b1 0b 08
        E 16 81 23 00
        E 112 b1 0b 30
        E 0 91 23 30
        E 16 b1 0b 28
        E 32 b1 0b 20
        E 32 b1 0b 18
        E 32 b1 0b 10
        E 16 b1 0b 30
        E 0 81 23 00
        E 0 91 21 30
        E 48 b1 0b 28
        E 48 b1 0b 20
        E 64 b1 0b 18
        E 64 b1 0b 10
        E 48 b1 0b 30
        E 0 81 21 00
        E 0 91 23 30
        E 16 b1 0b 28
        E 32 b1 0b 20
        E 32 b1 0b 18
        E 32 b1 0b 10
        E 32 b1 0b 08
        E 16 81 23 00
        E 112 b1 0b 30
        E 0 91 23 30
        E 16 b1 0b 28
        E 32 b1 0b 20
        E 32 b1 0b 18
        E 32 b1 0b 10
        E 16 b1 0b 30
        E 16 b1 0b 28
        E 32 b1 0b 20
        E 32 b1 0b 18
        E 16 b1 0b 10
        E 32 b1 0b 08
        E 32 81 23 00
        E 112 b1 0b 30
        E 0 91 23 30
        E 16 b1 0b 28
        E 32 b1 0b 20
        E 32 b1 0b 18
        E 32 b1 0b 10
        E 16 b1 0b 30
        E 0 81 23 00
        E 0 91 26 30
        E 32 b1 0b 28
        E 64 b1 0b 20
        E 64 b1 0b 18
        E 64 b1 0b 10
        E 64 b1 0b 08
        E 64 81 26 00
        E 64 b1 0b 30
        E 0 91 1c 30
        E 16 b1 0b 28
        E 32 b1 0b 20
        E 32 b1 0b 18
        E 32 b1 0b 10
        E 32 b1 0b 08
        E 32 81 1c 00
        E 80 b1 0b 30
        E 0 91 1c 30
        E 16 b1 0b 28
        E 32 b1 0b 20
        E 16 b1 0b 18
        E 32 b1 0b 10
        E 32 b1 0b 08
        E 32 81 1c 00
        E 112 b1 0b 30
        E 0 91 1c 30
        E 16 b1 0b 28
        E 32 b1 0b 20
        E 32 b1 0b 18
        E 32 b1 0b 10
        E 16 b1 0b 08
        E 16 b1 0b 30
        E 0 81 1c 00
        E 0 91 1a 30
        E 48 b1 0b 28
        E 64 b1 0b 20
        E 64 b1 0b 18
        E 64 b1 0b 10
        E 16 b1 0b 30
        E 0 81 1a 00
        E 0 91 1c 30
        E 16 b1 0b 28
        E 32 b1 0b 20
        E 16 b1 0b 18
        E 32 b1 0b 10
        E 32 b1 0b 08
        E 32 81 1c 00
        E 112 b1 0b 30
        E 0 91 1c 30
        E 16 b1 0b 28
        E 32 b1 0b 20
        E 32 b1 0b 18
        E 32 b1 0b 10
        E 16 b1 0b 08
        E 16 b1 0b 30
        E 16 b1 0b 28
        E 32 b1 0b 20
        E 32 b1 0b 18
        E 32 b1 0b 10
        E 32 b1 0b 08
        E 32 81 1c 00
        E 80 b1 0b 30
        E 0 91 1c 30
        E 16 b1 0b 28
        E 32 b1 0b 20
        E 16 b1 0b 18
        E 32 b1 0b 10
        E 32 b1 0b 08
        E 16 b1 0b 30
        E 0 81 1c 00
        E 0 91 1f 30
        E 48 b1 0b 28
        E 64 b1 0b 20
        E 64 b1 0b 18
        E 64 b1 0b 10
        E 48 b1 0b 08
        E 64 81 1f 00
        E 48 b1 0b 30
        E 0 91 1c 30
        E 16 b1 0b 28
        E 32 b1 0b 20
        E 32 b1 0b 18
        E 32 b1 0b 10
        E 32 b1 0b 08
        E 32 81 1c 00
        E 96 b1 0b 30
        E 0 91 1c 30
        E 16 b1 0b 28
        E 32 b1 0b 20
        E 32 b1 0b 18
        E 32 b1 0b 10
        E 32 b1 0b 08
        E 32 81 1c 00
        E 80 b1 0b 30
        E 0 91 1c 30
        E 16 b1 0b 28
        E 16 b1 0b 20
        E 32 b1 0b 18
        E 32 b1 0b 10
        E 32 b1 0b 08
        E 16 b1 0b 30
        E 0 81 1c 00
        E 0 91 1a 30
        E 48 b1 0b 28
        E 64 b1 0b 20
        E 64 b1 0b 18
        E 48 b1 0b 10
        E 48 b1 0b 30
        E 0 81 1a 00
        E 0 91 1c 30
        E 16 b1 0b 28
        E 32 b1 0b 20
        E 32 b1 0b 18
        E 32 b1 0b 10
        E 32 b1 0b 08
        E 32 81 1c 00
        E 80 b1 0b 30
        E 0 91 1c 30
        E 16 b1 0b 28
        E 16 b1 0b 20
        E 32 b1 0b 18
        E 32 b1 0b 10
        E 32 b1 0b 08
        E 16 b1 0b 30
        E 16 b1 0b 28
        E 32 b1 0b 20
        E 32 b1 0b 18
        E 32 b1 0b 10
        E 32 b1 0b 08
        E 32 81 1c 00
        E 96 b1 0b 30
        E 0 91 1c 30
        E 16 b1 0b 28
        E 32 b1 0b 20
        E 32 b1 0b 18
        E 32 b1 0b 10
        E 16 b1 0b 30
        E 0 81 1c 00
        E 0 91 1f 30
        E 48 b1 0b 28
        E 64 b1 0b 20
        E 64 b1 0b 18
        E 48 b1 0b 10
        E 64 b1 0b 08
        E 64 81 1f 00
        E 48 b1 0b 28
        E 0 91 1f 28
        E 224 b1 0b 20
        E 192 b1 0b 18
        E 1728 b1 0b 28
        E 0 81 1f 00
        E 0 91 23 28
        E 224 b1 0b 20
        E 176 b1 0b 18
        E 1760 b1 0c 40
        E 0 b1 0b 48
        E 0 81 23 00
        E 0 91 1a 48
        E 16 b1 0b 40
        E 32 b1 0b 38
        E 32 b1 0b 30
        E 32 b1 0b 28
        E 16 b1 0b 48
        E 0 81 1a 00
        E 0 91 1c 48
        E 16 b1 0b 40
        E 32 b1 0b 38
        E 32 b1 0b 30
        E 32 b1 0b 28
        E 16 b1 0b 20
        E 16 b1 0c 10
        E 0 b1 0b 38
        E 0 81 1c 00
        E 0 91 33 38
        E 16 b1 0b 30
        E 32 b1 0b 28
        E 32 b1 0b 20
        E 32 b1 0b 18
        E 16 b1 0b 38
        E 0 81 33 00
        E 0 91 34 38
        E 16 b1 0b 30
        E 32 b1 0b 28
        E 32 b1 0b 20
        E 32 b1 0b 18
        E 16 b1 0b 20
        E 144 b1 0b 38
        E 16 b1 0b 30
        E 32 b1 0b 28
        E 32 b1 0b 20
        E 32 b1 0b 18
        E 16 b1 0b 20
        E 16 b1 0b 18
        E 32 b1 0b 10
        E 32 b1 0b 08
        E 32 81 34 00
        E 32 b1 0b 38
        E 0 91 34 38
        E 16 b1 0b 30
        E 32 b1 0b 28
        E 32 b1 0b 20
        E 32 b1 0b 18
        E 16 b1 0b 20
        E 16 b1 0b 18
        E 32 b1 0b 10
        E 32 b1 0b 08
        E 32 81 34 00
        E 16 b1 0b 10
        E 0 91 34 10
        E 144 b1 0b 38
        E 256 b1 0b 20
        E 144 b1 0b 38
        E 128 b1 0b 20
        E 144 b1 0c 40
        E 0 b1 0b 48
        E 0 81 34 00
        E 0 91 1c 48
        E 16 b1 0b 40
        E 32 b1 0b 38
        E 32 b1 0b 30
        E 32 b1 0b 28
        E 16 b1 0b 48
        E 0 81 1c 00
        E 0 91 1a 48
        E 16 b1 0b 40
        E 32 b1 0b 38
        E 32 b1 0b 30
        E 32 b1 0b 28
        E 16 b1 0b 48
        E 0 81 1a 00
        E 0 91 1c 48
        E 16 b1 0b 40
        E 16 b1 0b 38
        E 32 b1 0b 30
        E 32 b1 0b 28
        E 32 b1 0b 20
        E 16 b1 0c 10
        E 0 b1 0b 38
        E 0 81 1c 00
        E 0 91 33 38
        E 16 b1 0b 30
        E 32 b1 0b 28
        E 32 b1 0b 20
        E 32 b1 0b 18
        E 16 b1 0b 38
        E 0 81 33 00
        E 0 91 34 38
        E 16 b1 0b 30
        E 32 b1 0b 28
        E 32 b1 0b 20
        E 16 b1 0b 18
        E 32 b1 0b 10
        E 16 b1 0b 20
        E 128 b1 0b 38
        E 16 b1 0b 30
        E 32 b1 0b 28
        E 32 b1 0b 20
        E 32 b1 0b 18
        E 16 b1 0b 20
        E 16 b1 0b 18
        E 16 b1 0b 10
        E 32 b1 0b 08
        E 32 81 34 00
        E 48 b1 0b 38
        E 0 91 34 38
        E 16 b1 0b 30
        E 32 b1 0b 28
        E 32 b1 0b 20
        E 32 b1 0b 18
        E 16 b1 0b 20
        E 16 b1 0b 18
        E 32 b1 0b 10
        E 32 b1 0b 08
        E 16 81 34 00
        E 48 b1 0b 10
        E 0 91 34 10
        E 128 b1 0b 38
        E 272 b1 0b 20
        E 128 b1 0b 38
        E 144 b1 0b 20
        E 128 b1 0c 40
        E 0 b1 0b 48
        E 0 81 34 00
        E 0 91 1c 48
        E 16 b1 0b 40
        E 32 b1 0b 38
        E 32 b1 0b 30
        E 32 b1 0b 28
        E 16 b1 0b 48
        E 0 81 1c 00
        E 0 91 1a 48
        E 16 b1 0b 40
        E 32 b1 0b 38
        E 16 b1 0b 30
        E 32 b1 0b 28
        E 32 b1 0b 20
        E 16 b1 0b 48
        E 0 81 1a 00
        E 0 91 1c 48
        E 16 b1 0b 40
        E 32 b1 0b 38
        E 32 b1 0b 30
        E 32 b1 0b 28
        E 16 b1 0c 10
        E 0 b1 0b 38
        E 0 81 1c 00
        E 0 91 33 38
        E 16 b1 0b 30
        E 32 b1 0b 28
        E 32 b1 0b 20
        E 32 b1 0b 18
        E 16 b1 0b 10
        E 16 b1 0b 38
        E 0 81 33 00
        E 0 91 34 38
        E 16 b1 0b 30
        E 32 b1 0b 28
        E 32 b1 0b 20
        E 32 b1 0b 18
        E 16 b1 0b 20
        E 128 b1 0b 38
        E 16 b1 0b 30
        E 32 b1 0b 28
        E 16 b1 0b 20
        E 32 b1 0b 18
        E 32 b1 0b 10
        E 16 b1 0b 20
        E 16 b1 0b 18
        E 32 b1 0b 10
        E 32 b1 0b 08
        E 32 81 34 00
        E 16 b1 0b 38
        E 0 91 34 38
        E 16 b1 0b 30
        E 32 b1 0b 28
        E 32 b1 0b 20
        E 32 b1 0b 18
        E 16 b1 0b 10
        E 16 b1 0b 20
        E 16 b1 0b 18
        E 32 b1 0b 10
        E 32 b1 0b 08
        E 32 81 34 00
        E 16 b1 0b 10
        E 0 91 34 10
        E 128 b1 0b 38
        E 272 b1 0b 20
        E 128 b1 0b 38
        E 144 b1 0b 20
        E 128 b1 0c 40
        E 0 b1 0b 48
        E 0 81 34 00
        E 0 91 1c 48
        E 16 b1 0b 40
        E 32 b1 0b 38
        E 32 b1 0b 30
        E 16 b1 0b 28
        E 32 b1 0b 20
        E 16 b1 0b 48
        E 0 81 1c 00
        E 0 91 1a 48
        E 16 b1 0b 40
        E 32 b1 0b 38
        E 32 b1 0b 30
        E 32 b1 0b 28
        E 16 b1 0b 48
        E 0 81 1a 00
        E 0 91 1c 48
        E 16 b1 0b 40
        E 32 b1 0b 38
        E 32 b1 0b 30
        E 32 b1 0b 28
        E 16 b1 0c 10
        E 0 b1 0b 38
        E 0 81 1c 00
        E 0 91 33 38
        E 16 b1 0b 30
        E 16 b1 0b 28
        E 32 b1 0b 20
        E 32 b1 0b 18
        E 32 b1 0b 10
        E 16 b1 0b 38
        E 0 81 33 00
        E 0 91 34 38
        E 16 b1 0b 30
        E 32 b1 0b 28
        E 32 b1 0b 20
        E 32 b1 0b 18
        E 16 b1 0b 20
        E 144 b1 0b 38
        E 16 b1 0b 30
        E 32 b1 0b 28
        E 32 b1 0b 20
        E 32 b1 0b 18
        E 16 b1 0b 20
        E 16 b1 0b 18
        E 32 b1 0b 10
        E 32 b1 0b 08
        E 32 81 34 00
        E 16 b1 0b 38
        E 0 91 34 38
        E 16 b1 0b 30
        E 16 b1 0b 28
        E 32 b1 0b 20
        E 32 b1 0b 18
        E 32 b1 0b 10
        E 16 b1 0b 20
        E 16 b1 0b 18
        E 32 b1 0b 10
        E 32 b1 0b 08
        E 32 81 34 00
        E 16 b1 0b 10
        E 0 91 34 10
        E 144 b1 0b 38
        E 256 b1 0b 20
        E 144 b1 0b 38
        E 128 b1 0b 20
        E 144 b1 0c 40
        E 0 b1 0b 48
        E 0 81 34 00
        E 0 91 1c 48
        E 16 b1 0b 40
        E 32 b1 0b 38
        E 32 b1 0b 30
        E 32 b1 0b 28
        E 16 b1 0b 30
        E 0 81 1c 00
        E 0 91 2d 30
        E 16 b1 0b 28
        E 32 b1 0b 20
        E 32 b1 0b 18
        E 32 b1 0b 10
        E 16 b1 0b 30
        E 0 81 2d 00
        E 0 91 30 30
        E 16 b1 0b 28
        E 32 b1 0b 20
        E 16 b1 0b 18
        E 16 81 30 00
        E 0 91 2d 18
        E 64 b1 0b 30
        E 0 81 2d 00
        E 0 91 34 30
        E 16 b1 0b 28
        E 32 b1 0b 20
        E 16 b1 0b 18
        E 0 81 34 00
        E 0 91 30 18
        E 16 b1 0b 10
        E 32 b1 0b 08
        E 16 b1 0b 30
        E 0 81 30 00
        E 0 91 37 30
        E 16 b1 0b 28
        E 32 b1 0b 20
        E 16 b1 0b 18
        E 0 81 37 00
        E 0 91 34 18
        E 16 b1 0b 10
        E 32 b1 0b 08
        E 16 81 34 00
        E 16 b1 0b 30
        E 0 91 34 30
        E 16 b1 0b 28
        E 32 b1 0b 20
        E 16 b1 0b 18
        E 0 81 34 00
        E 0 91 37 18
        E 16 b1 0b 10
        E 32 b1 0b 08
        E 16 b1 0b 30
        E 0 81 37 00
        E 0 91 30 30
        E 16 b1 0b 28
        E 32 b1 0b 20
        E 16 b1 0b 18
        E 0 81 30 00
        E 0 91 34 18
        E 16 b1 0b 10
        E 32 b1 0b 08
        E 16 b1 0b 30
        E 16 b1 0b 28
        E 32 b1 0b 20
        E 16 b1 0b 18
        E 16 81 34 00
        E 0 91 30 18
        E 16 b1 0b 10
        E 32 b1 0b 08
        E 16 b1 0b 30
        E 0 81 30 00
        E 0 91 37 30
        E 16 b1 0b 28
        E 32 b1 0b 20
        E 16 b1 0b 18
        E 0 81 37 00
        E 0 91 34 18
        E 16 b1 0b 10
        E 32 b1 0b 08
        E 16 b1 0b 30
        E 0 81 34 00
        E 0 91 39 30
        E 16 b1 0b 28
        E 32 b1 0b 20
        E 16 b1 0b 18
        E 0 81 39 00
        E 0 91 37 18
        E 16 b1 0b 10
        E 32 b1 0b 08
        E 16 b1 0b 30
        E 0 81 37 00
        E 0 91 3c 30
        E 16 b1 0b 28
        E 16 b1 0b 20
        E 32 b1 0b 18
        E 16 81 3c 00
        E 0 91 39 18
        E 16 b1 0b 10
        E 32 b1 0b 08
        E 16 b1 0b 30
        E 0 81 39 00
        E 0 91 40 30
        E 16 b1 0b 28
        E 32 b1 0b 20
        E 16 b1 0b 18
        E 0 81 40 00
        E 0 91 3c 18
        E 16 b1 0b 10
        E 32 b1 0b 08
        E 16 b1 0b 30
        E 0 81 3c 00
        E 0 91 43 30
        E 16 b1 0b 28
        E 32 b1 0b 20
        E 16 b1 0b 18
        E 0 81 43 00
        E 0 91 40 18
        E 16 b1 0b 10
        E 16 b1 0b 08
        E 32 81 40 00
        E 16 b1 0b 30
        E 0 91 45 30
        E 16 b1 0b 28
        E 32 b1 0b 20
        E 16 b1 0b 18
        E 0 81 45 00
        E 0 91 43 18
        E 16 b1 0b 10
        E 32 b1 0b 08
        E 16 b1 0b 30
        E 0 81 43 00
        E 0 91 48 30
        E 16 b1 0b 28
        E 32 b1 0b 20
        E 16 b1 0b 18
        E 0 81 48 00
        E 0 91 45 18
        E 16 b1 0b 10
        E 32 b1 0b 08
        E 16 b1 0b 30
        E 0 81 45 00
        E 0 91 4c 30
        E 16 b1 0b 28
        E 16 b1 0b 20
        E 32 b1 0b 18
        E 16 81 4c 00
        E 0 91 48 18
        E 16 b1 0b 10
        E 32 b1 0b 08
        E 16 b1 0b 30
        E 0 81 48 00
        E 0 91 4f 30
        E 16 b1 0b 28
        E 32 b1 0b 20
        E 16 b1 0b 18
        E 0 81 4f 00
        E 0 91 4c 18
        E 16 b1 0b 10
        E 32 b1 0b 08
        E 16 b1 0b 30
        E 0 81 4c 00
        E 0 91 2f 30
        E 16 b1 0b 28
        E 32 b1 0b 20
        E 16 b1 0b 18
        E 0 81 2f 00
        E 0 91 4f 18
        E 16 b1 0b 10
        E 0 81 4f 00
        E 0 91 50 10
        E 16 b1 0b 08
        E 0 81 50 00
        E 0 91 4f 08
        E 32 81 4f 00
        E 16 b1 0b 30
        E 0 91 33 30
        E 16 b1 0b 28
        E 32 b1 0b 20
        E 16 b1 0b 18
        E 0 81 33 00
        E 0 91 2f 18
        E 16 b1 0b 10
        E 32 b1 0b 08
        E 16 b1 0b 30
        E 0 81 2f 00
        E 0 91 36 30
        E 16 b1 0b 28
        E 32 b1 0b 20
        E 16 b1 0b 18
        E 0 81 36 00
        E 0 91 33 18
        E 16 b1 0b 10
        E 32 b1 0b 08
        E 16 b1 0b 30
        E 0 81 33 00
        E 0 91 39 30
        E 16 b1 0b 28
        E 16 b1 0b 20
        E 32 b1 0b 18
        E 16 81 39 00
        E 0 91 36 18
        E 16 b1 0b 10
        E 32 b1 0b 08
        E 16 b1 0b 30
        E 16 b1 0b 28
        E 32 b1 0b 20
        E 16 b1 0b 18
        E 0 81 36 00
        E 0 91 39 18
        E 16 b1 0b 10
        E 32 b1 0b 08
        E 16 b1 0b 30
        E 0 81 39 00
        E 0 91 33 30
        E 16 b1 0b 28
        E 32 b1 0b 20
        E 16 b1 0b 18
        E 0 81 33 00
        E 0 91 36 18
        E 16 b1 0b 10
        E 16 b1 0b 08
        E 32 81 36 00
        E 16 b1 0b 30
        E 0 91 36 30
        E 16 b1 0b 28
        E 32 b1 0b 20
        E 16 b1 0b 18
        E 0 81 36 00
        E 0 91 33 18
        E 16 b1 0b 10
        E 32 b1 0b 08
        E 16 b1 0b 30
        E 0 81 33 00
        E 0 91 39 30
        E 16 b1 0b 28
        E 32 b1 0b 20
        E 16 b1 0b 18
        E 0 81 39 00
        E 0 91 36 18
        E 16 b1 0b 10
        E 32 b1 0b 08
        E 16 b1 0b 30
        E 0 81 36 00
        E 0 91 3b 30
        E 16 b1 0b 28
        E 32 b1 0b 20
        E 16 b1 0b 18
        E 16 81 3b 00
        E 0 91 29 18
        E 16 b1 0b 10
        E 32 b1 0b 08
        E 16 b1 0b 30
        E 0 81 29 00
        E 0 91 3f 30
        E 16 b1 0b 28
        E 32 b1 0b 20
        E 16 b1 0b 18
        E 0 81 3f 00
        E 0 91 3b 18
        E 16 b1 0b 10
        E 32 b1 0b 08
        E 16 b1 0b 30
        E 0 81 3b 00
        E 0 91 42 30
        E 16 b1 0b 28
        E 32 b1 0b 20
        E 16 b1 0b 18
        E 0 81 42 00
        E 0 91 3f 18
        E 16 b1 0b 10
        E 32 b1 0b 08
        E 16 81 3f 00
        E 16 b1 0b 30
        E 0 91 45 30
        E 16 b1 0b 28
        E 32 b1 0b 20
        E 16 b1 0b 18
        E 0 81 45 00
        E 0 91 42 18
        E 16 b1 0b 10
        E 32 b1 0b 08
        E 16 b1 0b 30
        E 0 81 42 00
        E 0 91 47 30
        E 16 b1 0b 28
        E 32 b1 0b 20
        E 16 b1 0b 18
        E 0 81 47 00
        E 0 91 45 18
        E 16 b1 0b 10
        E 32 b1 0b 08
        E 16 b1 0b 30
        E 0 81 45 00
        E 0 91 4b 30
        E 16 b1 0b 28
        E 32 b1 0b 20
        E 16 b1 0b 18
        E 16 81 4b 00
        E 0 91 47 18
        E 16 b1 0b 10
        E 32 b1 0b 08
        E 16 b1 0b 30
        E 0 81 47 00
        E 0 91 4e 30
        E 16 b1 0b 28
        E 0 81 4e 00
        E 0 91 4d 28
        E 32 b1 0b 20
        E 0 81 4d 00
        E 0 91 4e 20
        E 16 b1 0b 18
        E 0 81 4e 00
        E 0 91 4b 18
        E 16 b1 0b 10
        E 32 b1 0b 08
        E 16 b1 0b 30
        E 0 81 4b 00
        E 0 91 51 30
        E 16 b1 0b 28
        E 0 81 51 00
        E 0 91 50 28
        E 32 b1 0b 20
        E 0 81 50 00
        E 0 91 51 20
        E 16 b1 0b 18
        E 0 81 51 00
        E 0 91 4e 18
        E 64 81 4e 00
        E 0 91 4d 18
        E 16 b1 0c 20
        E 0 b1 0b 30
        E 0 81 4d 00
        E 0 91 1c 30
        E 16 b1 0b 28
        E 16 b1 0b 30
        E 16 b1 0b 28
        E 16 b1 0b 30
        E 16 b1 0b 28
        E 32 b1 0b 20
        E 32 b1 0b 18
        E 32 b1 0b 10
        E 32 b1 0b 08
        E 32 81 1c 00
        E 16 b1 0b 30
        E 0 91 1c 30
        E 16 b1 0b 28
        E 32 b1 0b 20
        E 16 b1 0b 18
        E 32 b1 0b 10
        E 32 b1 0b 08
        E 32 81 1c 00
        E 112 b1 0b 30
        E 0 91 1c 30
        E 16 b1 0b 28
        E 32 b1 0b 20
        E 32 b1 0b 18
        E 32 b1 0b 10
        E 16 b1 0b 08
        E 16 b1 0b 30
        E 0 81 1c 00
        E 0 91 1a 30
        E 48 b1 0b 28
        E 64 b1 0b 20
        E 64 b1 0b 18
        E 64 b1 0b 10
        E 16 b1 0b 30
        E 0 81 1a 00
        E 0 91 1c 30
        E 16 b1 0b 28
        E 32 b1 0b 20
        E 32 b1 0b 18
        E 16 b1 0b 10
        E 32 b1 0b 08
        E 32 81 1c 00
        E 112 b1 0b 30
        E 0 91 1c 30
        E 16 b1 0b 28
        E 32 b1 0b 20
        E 32 b1 0b 18
        E 32 b1 0b 10
        E 16 b1 0b 30
        E 16 b1 0b 28
        E 16 b1 0b 20
        E 32 b1 0b 18
        E 32 b1 0b 10
        E 32 b1 0b 08
        E 32 81 1c 00
        E 112 b1 0b 30
        E 0 91 1c 30
        E 16 b1 0b 28
        E 32 b1 0b 20
        E 32 b1 0b 18
        E 16 b1 0b 10
        E 32 b1 0b 08
        E 16 b1 0b 30
        E 0 81 1c 00
        E 0 91 1f 30
        E 48 b1 0b 28
        E 64 b1 0b 20
        E 64 b1 0b 18
        E 64 b1 0b 10
        E 48 b1 0b 08
        E 64 81 1f 00
        E 48 b1 0b 30
        E 0 91 1c 30
        E 16 b1 0b 28
        E 32 b1 0b 20
        E 32 b1 0b 18
        E 32 b1 0b 10
        E 32 b1 0b 08
        E 32 81 1c 00
        E 96 b1 0b 30
        E 0 91 1c 30
        E 16 b1 0b 28
        E 32 b1 0b 20
        E 32 b1 0b 18
        E 32 b1 0b 10
        E 32 b1 0b 08
        E 32 81 1c 00
        E 80 b1 0b 30
        E 0 91 1c 30
        E 16 b1 0b 28
        E 16 b1 0b 20
        E 32 b1 0b 18
        E 32 b1 0b 10
        E 32 b1 0b 08
        E 16 b1 0b 30
        E 0 81 1c 00
        E 0 91 1a 30
        E 48 b1 0b 28
        E 64 b1 0b 20
        E 64 b1 0b 18
        E 64 b1 0b 10
        E 32 b1 0b 30
        E 0 81 1a 00
        E 0 91 1c 30
        E 16 b1 0b 28
        E 32 b1 0b 20
        E 32 b1 0b 18
        E 32 b1 0b 10
        E 32 b1 0b 08
        E 32 81 1c 00
        E 80 b1 0b 30
        E 0 91 1c 30
        E 16 b1 0b 28
        E 32 b1 0b 20
        E 16 b1 0b 18
        E 32 b1 0b 10
        E 32 b1 0b 08
        E 16 b1 0b 30
        E 16 b1 0b 28
        E 32 b1 0b 20
        E 32 b1 0b 18
        E 32 b1 0b 10
        E 32 b1 0b 08
        E 32 81 1c 00
        E 96 b1 0b 30
        E 0 91 1c 30
        E 16 b1 0b 28
        E 32 b1 0b 20
        E 32 b1 0b 18
        E 32 b1 0b 10
        E 16 b1 0b 30
        E 0 81 1c 00
        E 0 91 1f 30
        E 48 b1 0b 28
        E 64 b1 0b 20
        E 64 b1 0b 18
        E 48 b1 0b 10
        E 64 b1 0b 08
        E 64 81 1f 00
        E 48 b1 0b 30
        E 0 91 1c 30
        E 16 b1 0b 28
        E 32 b1 0b 20
        E 32 b1 0b 18
        E 32 b1 0b 10
        E 16 b1 0b 08
        E 32 81 1c 00
        E 112 b1 0b 30
        E 0 91 1c 30
        E 16 b1 0b 28
        E 32 b1 0b 20
        E 32 b1 0b 18
        E 32 b1 0b 10
        E 32 b1 0b 08
        E 32 81 1c 00
        E 96 b1 0b 30
        E 0 91 1c 30
        E 16 b1 0b 28
        E 32 b1 0b 20
        E 32 b1 0b 18
        E 32 b1 0b 10
        E 16 b1 0b 30
        E 0 81 1c 00
        E 0 91 1a 30
        E 48 b1 0b 28
        E 64 b1 0b 20
        E 48 b1 0b 18
        E 64 b1 0b 10
        E 48 b1 0b 30
        E 0 81 1a 00
        E 0 91 1c 30
        E 16 b1 0b 28
        E 32 b1 0b 20
        E 32 b1 0b 18
        E 32 b1 0b 10
        E 32 b1 0b 08
        E 32 81 1c 00
        E 96 b1 0b 30
        E 0 91 1c 30
        E 16 b1 0b 28
        E 32 b1 0b 20
        E 32 b1 0b 18
        E 32 b1 0b 10
        E 16 b1 0b 30
        E 16 b1 0b 28
        E 32 b1 0b 20
        E 32 b1 0b 18
        E 32 b1 0b 10
        E 32 b1 0b 08
        E 16 81 1c 00
        E 112 b1 0b 30
        E 0 91 1c 30
        E 16 b1 0b 28
        E 32 b1 0b 20
        E 32 b1 0b 18
        E 32 b1 0b 10
        E 16 b1 0b 30
        E 0 81 1c 00
        E 0 91 1f 30
        E 48 b1 0b 28
        E 48 b1 0b 20
        E 64 b1 0b 18
        E 64 b1 0b 10
        E 64 b1 0b 08
        E 64 81 1f 00
        E 48 b1 0b 30
        E 0 91 1c 30
        E 16 b1 0b 28
        E 16 b1 0b 20
        E 32 b1 0b 18
        E 32 b1 0b 10
        E 32 b1 0b 08
        E 32 81 1c 00
        E 112 b1 0b 30
        E 0 91 1c 30
        E 16 b1 0b 28
        E 32 b1 0b 20
        E 32 b1 0b 18
        E 16 b1 0b 10
        E 32 b1 0b 08
        E 32 81 1c 00
        E 112 b1 0b 30
        E 0 91 1c 30
        E 16 b1 0b 28
        E 32 b1 0b 20
        E 32 b1 0b 18
        E 32 b1 0b 10
        E 16 b1 0b 30
        E 0 81 1c 00
        E 0 91 1a 30
        E 48 b1 0b 28
        E 48 b1 0b 20
        E 64 b1 0b 18
        E 64 b1 0b 10
        E 48 b1 0b 30
        E 0 81 1a 00
        E 0 91 1c 30
        E 16 b1 0b 28
        E 32 b1 0b 20
        E 32 b1 0b 18
        E 32 b1 0b 10
        E 16 b1 0b 08
        E 32 81 1c 00
        E 112 b1 0b 30
        E 0 91 1c 30
        E 16 b1 0b 28
        E 32 b1 0b 20
        E 32 b1 0b 18
        E 32 b1 0b 10
        E 16 b1 0b 30
        E 16 b1 0b 28
        E 32 b1 0b 20
        E 16 b1 0b 18
        E 32 b1 0b 10
        E 32 b1 0b 08
        E 32 81 1c 00
        E 112 b1 0b 30
        E 0 91 1c 30
        E 16 b1 0b 28
        E 32 b1 0b 20
        E 32 b1 0b 18
        E 32 b1 0b 10
        E 16 b1 0b 08
        E 16 b1 0b 30
        E 0 81 1c 00
        E 0 91 1f 30
        E 48 b1 0b 28
        E 64 b1 0b 20
        E 64 b1 0b 18
        E 64 b1 0b 10
        E 64 b1 0b 08
        E 48 81 1f 00
        E 48 b1 0c 40
        E 0 b1 0b 38
        E 0 91 23 38
        E 16 b1 0b 30
        E 32 b1 0b 28
        E 32 b1 0b 20
        E 32 b1 0b 18
        E 16 b1 0b 20
        E 16 b1 0b 18
        E 32 b1 0b 10
        E 32 b1 0b 08
        E 32 81 23 00
        E 32 b1 0b 10
        E 0 91 23 10
        E 48 b1 0b 08
        E 64 81 23 00
        E 16 91 23 08
        E 80 81 23 00
        E 48 b1 0b 38
        E 0 91 23 38
        E 16 b1 0b 30
        E 32 b1 0b 28
        E 32 b1 0b 20
        E 16 b1 0b 18
        E 32 b1 0b 10
        E 16 b1 0b 38
        E 0 81 23 00
        E 0 91 21 38
        E 16 b1 0b 30
        E 32 b1 0b 28
        E 32 b1 0b 20
        E 32 b1 0b 18
        E 16 b1 0b 20
        E 16 b1 0b 18
        E 32 b1 0b 10
        E 32 b1 0b 08
        E 32 81 21 00
        E 16 b1 0b 10
        E 0 91 21 10
        E 32 b1 0b 08
        E 64 81 21 00
        E 48 b1 0b 58
        E 0 91 23 58
        E 16 b1 0b 50
        E 32 b1 0b 48
        E 32 b1 0b 40
        E 32 b1 0b 38
        E 32 b1 0b 30
        E 32 b1 0b 28
        E 32 b1 0b 20
        E 16 b1 0b 18
        E 32 b1 0b 10
        E 16 81 23 00
        E 0 91 2d 10
        E 144 b1 0b 18
        E 144 b1 0b 20
        E 160 b1 0b 28
        E 32 81 2d 00
        E 0 91 2e 28
        E 128 b1 0b 30
        E 144 b1 0b 38
        E 48 b1 0c 60
        E 0 b1 0b 30
        E 0 81 2e 00
        E 0 91 21 30
        E 128 81 21 00
        E 0 91 34 30
        E 16 b1 0b 28
        E 16 b1 0b 20
        E 32 b1 0b 18
        E 32 b1 0b 10
        E 32 b1 0b 08
        E 16 b1 0b 30
        E 16 b1 0b 28
        E 32 b1 0b 20
        E 32 b1 0b 18
        E 32 b1 0b 10
        E 16 b1 0b 30
        E 0 81 34 00
        E 0 91 21 30
        E 16 b1 0b 28
        E 32 b1 0b 20
        E 32 b1 0b 18
        E 32 b1 0b 10
        E 16 b1 0b 08
        E 16 b1 0b 30
        E 0 81 21 00
        E 0 91 30 30
        E 16 b1 0b 28
        E 32 b1 0b 20
        E 32 b1 0b 18
        E 32 b1 0b 10
        E 16 b1 0b 30
        E 0 81 30 00
        E 0 91 21 30
        E 16 b1 0b 28
        E 32 b1 0b 20
        E 32 b1 0b 18
        E 32 b1 0b 10
        E 16 b1 0b 30
        E 0 81 21 00
        E 0 91 30 30
        E 16 b1 0b 28
        E 32 b1 0b 20
        E 16 b1 0b 18
        E 32 b1 0b 10
        E 32 b1 0b 08
        E 16 b1 0b 30
        E 16 b1 0b 28
        E 32 b1 0b 20
        E 32 b1 0b 18
        E 32 b1 0b 10
        E 16 b1 0b 30
        E 0 81 30 00
        E 0 91 21 30
        E 16 b1 0b 28
        E 32 b1 0b 20
        E 32 b1 0b 18
        E 32 b1 0b 10
        E 16 b1 0b 08
        E 16 81 21 00
        E 0 ff 2f 00
      >
    >
  >
  <TRACK {103C3449-33D1-4271-84F8-B6B744FE54C9}
    NAME "NES - Triangle [ch2]"
    PEAKCOL 16744192
    BEAT -1
    AUTOMODE 0
    PANLAWFLAGS 3
    VOLPAN 1 0 -1 -1 1
    MUTESOLO 0 0 0
    IPHASE 0
    PLAYOFFS 0 1
    ISBUS 0 0
    BUSCOMP 0 0 0 0 0
    SHOWINMIX 1 0.6667 0.5 1 0.5 0 0 0
    FIXEDLANES 9 0 0 0 0
    SEL 0
    REC 0 5088 1 0 0 0 0 0
    VU 2
    TRACKHEIGHT 0 0 0 0 0 0 0
    INQ 0 0 0 0.5 100 0 0 100
    NCHAN 2
    FX 1
    TRACKID {103C3449-33D1-4271-84F8-B6B744FE54C9}
    PERF 0
    MIDIOUT -1
    MAINSEND 1 0
    <FXCHAIN
      WNDRECT 24 52 700 560
      SHOW 0
      LASTSEL 0
      DOCKED 0
      BYPASS 0 0 0
      <JS "ReapNES Studio/ReapNES_Console.jsfx" ""
        2 15 1 10 80 10 100 2 1 15 1 5 60 10 80 1 1 0 50 0 0 15 1 0 100 0 0 0.500000 0.500000 0.400000 0.300000 0.800000 2 1 0 0 0 0 - - - - - - - - - - - - - - - - - - - - - - - - - -
      >
      FLOATPOS 0 0 0 0
      FXID {4A14B063-AAFB-4F9A-BE53-5D2A1DBC93EF}
      WAK 0 0
    >
    <ITEM
      POSITION 0
      LENGTH 173.4992276
      LOOP 0
      ALLTAKES 0
      FADEIN 0 0 0 0 0 0 0
      FADEOUT 0 0 0 0 0 0 0
      MUTE 0 0
      SEL 0
      IGUID {5B780E08-83E2-4B00-A271-5B8B289F7CE7}
      <SOURCE MIDI
        HASDATA 1 480 QN
        CCINTERP 32
        E 0 c2 26
        E 0 b2 0b 7f
        E 0 92 34 7f
        E 16 82 34 00
        E 0 b2 0b 7f
        E 0 92 35 7f
        E 32 82 35 00
        E 0 b2 0b 7f
        E 0 92 36 7f
        E 48 82 36 00
        E 0 b2 0b 7f
        E 0 92 28 7f
        E 160 82 28 00
        E 16 b2 0b 7f
        E 0 92 28 7f
        E 144 82 28 00
        E 32 b2 0b 7f
        E 0 92 28 7f
        E 144 82 28 00
        E 48 b2 0b 7f
        E 0 92 28 7f
        E 144 82 28 00
        E 32 b2 0b 7f
        E 0 92 28 7f
        E 144 82 28 00
        E 32 b2 0b 7f
        E 0 92 28 7f
        E 144 82 28 00
        E 32 b2 0b 7f
        E 0 92 28 7f
        E 144 82 28 00
        E 32 b2 0b 7f
        E 0 92 28 7f
        E 144 82 28 00
        E 32 b2 0b 7f
        E 0 92 28 7f
        E 144 82 28 00
        E 32 b2 0b 7f
        E 0 92 28 7f
        E 144 82 28 00
        E 48 b2 0b 7f
        E 0 92 28 7f
        E 144 82 28 00
        E 32 b2 0b 7f
        E 0 92 28 7f
        E 144 82 28 00
        E 32 b2 0b 7f
        E 0 92 28 7f
        E 160 82 28 00
        E 16 b2 0b 7f
        E 0 92 28 7f
        E 160 82 28 00
        E 16 b2 0b 7f
        E 0 92 28 7f
        E 144 82 28 00
        E 32 b2 0b 7f
        E 0 92 28 7f
        E 144 82 28 00
        E 32 b2 0b 7f
        E 0 92 28 7f
        E 144 82 28 00
        E 32 b2 0b 7f
        E 0 92 28 7f
        E 144 82 28 00
        E 48 b2 0b 7f
        E 0 92 28 7f
        E 144 82 28 00
        E 32 b2 0b 7f
        E 0 92 28 7f
        E 144 82 28 00
        E 32 b2 0b 7f
        E 0 92 28 7f
        E 144 82 28 00
        E 32 b2 0b 7f
        E 0 92 28 7f
        E 144 82 28 00
        E 32 b2 0b 7f
        E 0 92 28 7f
        E 144 82 28 00
        E 32 b2 0b 7f
        E 0 92 28 7f
        E 144 82 28 00
        E 32 b2 0b 7f
        E 0 92 28 7f
        E 144 82 28 00
        E 32 b2 0b 7f
        E 0 92 28 7f
        E 144 82 28 00
        E 48 b2 0b 7f
        E 0 92 28 7f
        E 144 82 28 00
        E 32 b2 0b 7f
        E 0 92 28 7f
        E 160 82 28 00
        E 16 b2 0b 7f
        E 0 92 28 7f
        E 160 82 28 00
        E 16 b2 0b 7f
        E 0 92 28 7f
        E 160 82 28 00
        E 16 b2 0b 7f
        E 0 92 28 7f
        E 144 82 28 00
        E 32 b2 0b 7f
        E 0 92 28 7f
        E 144 82 28 00
        E 32 b2 0b 7f
        E 0 92 28 7f
        E 144 82 28 00
        E 48 b2 0b 7f
        E 0 92 28 7f
        E 144 82 28 00
        E 32 b2 0b 7f
        E 0 92 2a 7f
        E 144 82 2a 00
        E 32 b2 0b 7f
        E 0 92 2a 7f
        E 144 82 2a 00
        E 32 b2 0b 7f
        E 0 92 2b 7f
        E 144 82 2b 00
        E 32 b2 0b 7f
        E 0 92 2b 7f
        E 144 82 2b 00
        E 32 b2 0b 7f
        E 0 92 2d 7f
        E 144 82 2d 00
        E 32 b2 0b 7f
        E 0 92 28 7f
        E 288 82 28 00
        E 80 b2 0b 7f
        E 0 92 28 7f
        E 160 82 28 00
        E 16 b2 0b 7f
        E 0 92 2a 7f
        E 160 82 2a 00
        E 16 b2 0b 7f
        E 0 92 2a 7f
        E 144 82 2a 00
        E 32 b2 0b 7f
        E 0 92 2b 7f
        E 160 82 2b 00
        E 16 b2 0b 7f
        E 0 92 2b 7f
        E 144 82 2b 00
        E 32 b2 0b 7f
        E 0 92 2f 7f
        E 144 82 2f 00
        E 32 b2 0b 7f
        E 0 92 2b 7f
        E 144 82 2b 00
        E 32 b2 0b 7f
        E 0 92 2d 7f
        E 144 82 2d 00
        E 48 b2 0b 7f
        E 0 92 2d 7f
        E 144 82 2d 00
        E 32 b2 0b 7f
        E 0 92 2a 7f
        E 144 82 2a 00
        E 32 b2 0b 7f
        E 0 92 2a 7f
        E 144 82 2a 00
        E 32 b2 0b 7f
        E 0 92 2b 7f
        E 144 82 2b 00
        E 32 b2 0b 7f
        E 0 92 26 7f
        E 144 82 26 00
        E 32 b2 0b 7f
        E 0 92 28 7f
        E 144 82 28 00
        E 32 b2 0b 7f
        E 0 92 2d 7f
        E 288 82 2d 00
        E 80 b2 0b 7f
        E 0 92 2d 7f
        E 160 82 2d 00
        E 16 b2 0b 7f
        E 0 92 2f 7f
        E 160 82 2f 00
        E 16 b2 0b 7f
        E 0 92 2f 7f
        E 160 82 2f 00
        E 16 b2 0b 7f
        E 0 92 30 7f
        E 144 82 30 00
        E 32 b2 0b 7f
        E 0 92 32 7f
        E 144 82 32 00
        E 32 b2 0b 7f
        E 0 92 34 7f
        E 144 82 34 00
        E 32 b2 0b 7f
        E 0 92 2b 7f
        E 144 82 2b 00
        E 48 b2 0b 7f
        E 0 92 28 7f
        E 144 82 28 00
        E 32 b2 0b 7f
        E 0 92 28 7f
        E 144 82 28 00
        E 32 b2 0b 7f
        E 0 92 2a 7f
        E 144 82 2a 00
        E 32 b2 0b 7f
        E 0 92 2a 7f
        E 144 82 2a 00
        E 32 b2 0b 7f
        E 0 92 2b 7f
        E 144 82 2b 00
        E 32 b2 0b 7f
        E 0 92 2b 7f
        E 144 82 2b 00
        E 32 b2 0b 7f
        E 0 92 2d 7f
        E 144 82 2d 00
        E 32 b2 0b 7f
        E 0 92 28 7f
        E 304 82 28 00
        E 64 b2 0b 7f
        E 0 92 28 7f
        E 160 82 28 00
        E 16 b2 0b 7f
        E 0 92 2a 7f
        E 160 82 2a 00
        E 16 b2 0b 7f
        E 0 92 2a 7f
        E 160 82 2a 00
        E 16 b2 0b 7f
        E 0 92 2b 7f
        E 160 82 2b 00
        E 16 b2 0b 7f
        E 0 92 2b 7f
        E 144 82 2b 00
        E 80 b2 0b 7f
        E 0 92 2f 7f
        E 144 82 2f 00
        E 32 b2 0b 7f
        E 0 92 2b 7f
        E 160 82 2b 00
        E 16 b2 0b 7f
        E 0 92 2d 7f
        E 160 82 2d 00
        E 16 b2 0b 7f
        E 0 92 2d 7f
        E 160 82 2d 00
        E 32 b2 0b 7f
        E 0 92 2a 7f
        E 144 82 2a 00
        E 16 b2 0b 7f
        E 0 92 2a 7f
        E 160 82 2a 00
        E 16 b2 0b 7f
        E 0 92 2b 7f
        E 160 82 2b 00
        E 16 b2 0b 7f
        E 0 92 26 7f
        E 160 82 26 00
        E 16 b2 0b 7f
        E 0 92 28 7f
        E 160 82 28 00
        E 48 b2 0b 7f
        E 0 92 2d 7f
        E 272 82 2d 00
        E 64 b2 0b 7f
        E 0 92 2d 7f
        E 160 82 2d 00
        E 32 b2 0b 7f
        E 0 92 2f 7f
        E 144 82 2f 00
        E 32 b2 0b 7f
        E 0 92 2f 7f
        E 144 82 2f 00
        E 32 b2 0b 7f
        E 0 92 30 7f
        E 144 82 30 00
        E 32 b2 0b 7f
        E 0 92 32 7f
        E 144 82 32 00
        E 32 b2 0b 7f
        E 0 92 34 7f
        E 144 82 34 00
        E 48 b2 0b 7f
        E 0 92 2b 7f
        E 144 82 2b 00
        E 32 b2 0b 7f
        E 0 92 2d 7f
        E 144 82 2d 00
        E 16 b2 0b 7f
        E 0 92 2d 7f
        E 160 82 2d 00
        E 16 b2 0b 7f
        E 0 92 2d 7f
        E 160 82 2d 00
        E 32 b2 0b 7f
        E 0 92 2d 7f
        E 144 82 2d 00
        E 16 b2 0b 7f
        E 0 92 2d 7f
        E 160 82 2d 00
        E 32 b2 0b 7f
        E 0 92 2d 7f
        E 160 82 2d 00
        E 32 b2 0b 7f
        E 0 92 2d 7f
        E 160 82 2d 00
        E 16 b2 0b 7f
        E 0 92 2d 7f
        E 144 82 2d 00
        E 32 b2 0b 7f
        E 0 92 2d 7f
        E 160 82 2d 00
        E 16 b2 0b 7f
        E 0 92 2d 7f
        E 160 82 2d 00
        E 16 b2 0b 7f
        E 0 92 2d 7f
        E 144 82 2d 00
        E 32 b2 0b 7f
        E 0 92 2d 7f
        E 144 82 2d 00
        E 32 b2 0b 7f
        E 0 92 2d 7f
        E 144 82 2d 00
        E 32 b2 0b 7f
        E 0 92 2d 7f
        E 144 82 2d 00
        E 48 b2 0b 7f
        E 0 92 2d 7f
        E 144 82 2d 00
        E 32 b2 0b 7f
        E 0 92 2d 7f
        E 144 82 2d 00
        E 32 b2 0b 7f
        E 0 92 2d 7f
        E 144 82 2d 00
        E 32 b2 0b 7f
        E 0 92 2d 7f
        E 144 82 2d 00
        E 32 b2 0b 7f
        E 0 92 2d 7f
        E 144 82 2d 00
        E 32 b2 0b 7f
        E 0 92 2d 7f
        E 144 82 2d 00
        E 32 b2 0b 7f
        E 0 92 2d 7f
        E 144 82 2d 00
        E 32 b2 0b 7f
        E 0 92 2d 7f
        E 160 82 2d 00
        E 32 b2 0b 7f
        E 0 92 2d 7f
        E 160 82 2d 00
        E 16 b2 0b 7f
        E 0 92 2d 7f
        E 288 82 2d 00
        E 64 b2 0b 7f
        E 0 92 2d 7f
        E 144 82 2d 00
        E 32 b2 0b 7f
        E 0 92 2a 7f
        E 160 82 2a 00
        E 16 b2 0b 7f
        E 0 92 2a 7f
        E 144 82 2a 00
        E 32 b2 0b 7f
        E 0 92 2b 7f
        E 144 82 2b 00
        E 48 b2 0b 7f
        E 0 92 2b 7f
        E 160 82 2b 00
        E 16 b2 0b 7f
        E 0 92 26 7f
        E 144 82 26 00
        E 32 b2 0b 7f
        E 0 92 28 7f
        E 144 82 28 00
        E 32 b2 0b 7f
        E 0 92 2d 7f
        E 144 82 2d 00
        E 32 b2 0b 7f
        E 0 92 2d 7f
        E 144 82 2d 00
        E 32 b2 0b 7f
        E 0 92 2d 7f
        E 160 82 2d 00
        E 16 b2 0b 7f
        E 0 92 2d 7f
        E 160 82 2d 00
        E 16 b2 0b 7f
        E 0 92 2d 7f
        E 160 82 2d 00
        E 32 b2 0b 7f
        E 0 92 2d 7f
        E 160 82 2d 00
        E 16 b2 0b 7f
        E 0 92 2d 7f
        E 160 82 2d 00
        E 16 b2 0b 7f
        E 0 92 2d 7f
        E 160 82 2d 00
        E 16 b2 0b 7f
        E 0 92 2d 7f
        E 160 82 2d 00
        E 16 b2 0b 7f
        E 0 92 2d 7f
        E 144 82 2d 00
        E 32 b2 0b 7f
        E 0 92 2d 7f
        E 160 82 2d 00
        E 16 b2 0b 7f
        E 0 92 2d 7f
        E 160 82 2d 00
        E 16 b2 0b 7f
        E 0 92 2d 7f
        E 160 82 2d 00
        E 32 b2 0b 7f
        E 0 92 2d 7f
        E 144 82 2d 00
        E 32 b2 0b 7f
        E 0 92 2d 7f
        E 144 82 2d 00
        E 32 b2 0b 7f
        E 0 92 2d 7f
        E 144 82 2d 00
        E 32 b2 0b 7f
        E 0 92 2d 7f
        E 144 82 2d 00
        E 32 b2 0b 7f
        E 0 92 2d 7f
        E 144 82 2d 00
        E 32 b2 0b 7f
        E 0 92 2d 7f
        E 160 82 2d 00
        E 16 b2 0b 7f
        E 0 92 2d 7f
        E 160 82 2d 00
        E 32 b2 0b 7f
        E 0 92 2d 7f
        E 160 82 2d 00
        E 16 b2 0b 7f
        E 0 92 2d 7f
        E 144 82 2d 00
        E 32 b2 0b 7f
        E 0 92 2d 7f
        E 160 82 2d 00
        E 32 b2 0b 7f
        E 0 92 2d 7f
        E 144 82 2d 00
        E 32 b2 0b 7f
        E 0 92 2d 7f
        E 144 82 2d 00
        E 32 b2 0b 7f
        E 0 92 2d 7f
        E 144 82 2d 00
        E 32 b2 0b 7f
        E 0 92 2d 7f
        E 144 82 2d 00
        E 32 b2 0b 7f
        E 0 92 2d 7f
        E 144 82 2d 00
        E 48 b2 0b 7f
        E 0 92 2d 7f
        E 144 82 2d 00
        E 32 b2 0b 7f
        E 0 92 2d 7f
        E 144 82 2d 00
        E 32 b2 0b 7f
        E 0 92 2d 7f
        E 144 82 2d 00
        E 32 b2 0b 7f
        E 0 92 30 7f
        E 144 82 30 00
        E 32 b2 0b 7f
        E 0 92 30 7f
        E 160 82 30 00
        E 16 b2 0b 7f
        E 0 92 30 7f
        E 144 82 30 00
        E 32 b2 0b 7f
        E 0 92 30 7f
        E 160 82 30 00
        E 16 b2 0b 7f
        E 0 92 30 7f
        E 144 82 30 00
        E 48 b2 0b 7f
        E 0 92 30 7f
        E 144 82 30 00
        E 32 b2 0b 7f
        E 0 92 30 7f
        E 144 82 30 00
        E 48 b2 0b 7f
        E 0 92 30 7f
        E 160 82 30 00
        E 32 b2 0b 7f
        E 0 92 30 7f
        E 144 82 30 00
        E 16 b2 0b 7f
        E 0 92 30 7f
        E 160 82 30 00
        E 16 b2 0b 7f
        E 0 92 30 7f
        E 160 82 30 00
        E 16 b2 0b 7f
        E 0 92 30 7f
        E 160 82 30 00
        E 32 b2 0b 7f
        E 0 92 30 7f
        E 160 82 30 00
        E 16 b2 0b 7f
        E 0 92 30 7f
        E 160 82 30 00
        E 16 b2 0b 7f
        E 0 92 30 7f
        E 160 82 30 00
        E 16 b2 0b 7f
        E 0 92 30 7f
        E 160 82 30 00
        E 16 b2 0b 7f
        E 0 92 30 7f
        E 160 82 30 00
        E 16 b2 0b 7f
        E 0 92 28 7f
        E 160 82 28 00
        E 16 b2 0b 7f
        E 0 92 28 7f
        E 160 82 28 00
        E 16 b2 0b 7f
        E 0 92 2a 7f
        E 160 82 2a 00
        E 48 b2 0b 7f
        E 0 92 2a 7f
        E 144 82 2a 00
        E 16 b2 0b 7f
        E 0 92 2b 7f
        E 160 82 2b 00
        E 16 b2 0b 7f
        E 0 92 2b 7f
        E 160 82 2b 00
        E 16 b2 0b 7f
        E 0 92 2d 7f
        E 160 82 2d 00
        E 16 b2 0b 7f
        E 0 92 28 7f
        E 288 82 28 00
        E 64 b2 0b 7f
        E 0 92 28 7f
        E 160 82 28 00
        E 16 b2 0b 7f
        E 0 92 2a 7f
        E 160 82 2a 00
        E 32 b2 0b 7f
        E 0 92 2a 7f
        E 160 82 2a 00
        E 32 b2 0b 7f
        E 0 92 2b 7f
        E 144 82 2b 00
        E 16 b2 0b 7f
        E 0 92 2b 7f
        E 160 82 2b 00
        E 16 b2 0b 7f
        E 0 92 2f 7f
        E 160 82 2f 00
        E 16 b2 0b 7f
        E 0 92 2b 7f
        E 160 82 2b 00
        E 32 b2 0b 7f
        E 0 92 2d 7f
        E 144 82 2d 00
        E 16 b2 0b 7f
        E 0 92 2d 7f
        E 160 82 2d 00
        E 32 b2 0b 7f
        E 0 92 2a 7f
        E 160 82 2a 00
        E 16 b2 0b 7f
        E 0 92 2a 7f
        E 160 82 2a 00
        E 32 b2 0b 7f
        E 0 92 2b 7f
        E 144 82 2b 00
        E 16 b2 0b 7f
        E 0 92 26 7f
        E 160 82 26 00
        E 16 b2 0b 7f
        E 0 92 28 7f
        E 160 82 28 00
        E 16 b2 0b 7f
        E 0 92 2d 7f
        E 288 82 2d 00
        E 80 b2 0b 7f
        E 0 92 2d 7f
        E 144 82 2d 00
        E 48 b2 0b 7f
        E 0 92 2f 7f
        E 144 82 2f 00
        E 32 b2 0b 7f
        E 0 92 2f 7f
        E 144 82 2f 00
        E 32 b2 0b 7f
        E 0 92 30 7f
        E 160 82 30 00
        E 16 b2 0b 7f
        E 0 92 32 7f
        E 144 82 32 00
        E 32 b2 0b 7f
        E 0 92 34 7f
        E 160 82 34 00
        E 16 b2 0b 7f
        E 0 92 2b 7f
        E 160 82 2b 00
        E 16 b2 0b 7f
        E 0 92 28 7f
        E 160 82 28 00
        E 16 b2 0b 7f
        E 0 92 28 7f
        E 160 82 28 00
        E 32 b2 0b 7f
        E 0 92 2a 7f
        E 160 82 2a 00
        E 32 b2 0b 7f
        E 0 92 2a 7f
        E 144 82 2a 00
        E 32 b2 0b 7f
        E 0 92 2b 7f
        E 144 82 2b 00
        E 16 b2 0b 7f
        E 0 92 2b 7f
        E 160 82 2b 00
        E 32 b2 0b 7f
        E 0 92 2d 7f
        E 144 82 2d 00
        E 16 b2 0b 7f
        E 0 92 28 7f
        E 288 82 28 00
        E 80 b2 0b 7f
        E 0 92 28 7f
        E 160 82 28 00
        E 16 b2 0b 7f
        E 0 92 2a 7f
        E 160 82 2a 00
        E 16 b2 0b 7f
        E 0 92 2a 7f
        E 160 82 2a 00
        E 32 b2 0b 7f
        E 0 92 2b 7f
        E 144 82 2b 00
        E 32 b2 0b 7f
        E 0 92 2b 7f
        E 144 82 2b 00
        E 32 b2 0b 7f
        E 0 92 2f 7f
        E 144 82 2f 00
        E 32 b2 0b 7f
        E 0 92 2b 7f
        E 144 82 2b 00
        E 32 b2 0b 7f
        E 0 92 2d 7f
        E 144 82 2d 00
        E 48 b2 0b 7f
        E 0 92 2d 7f
        E 144 82 2d 00
        E 32 b2 0b 7f
        E 0 92 2a 7f
        E 144 82 2a 00
        E 32 b2 0b 7f
        E 0 92 2a 7f
        E 144 82 2a 00
        E 32 b2 0b 7f
        E 0 92 2b 7f
        E 144 82 2b 00
        E 32 b2 0b 7f
        E 0 92 26 7f
        E 144 82 26 00
        E 32 b2 0b 7f
        E 0 92 28 7f
        E 144 82 28 00
        E 16 b2 0b 7f
        E 0 92 2d 7f
        E 288 82 2d 00
        E 80 b2 0b 7f
        E 0 92 2d 7f
        E 160 82 2d 00
        E 16 b2 0b 7f
        E 0 92 2f 7f
        E 160 82 2f 00
        E 32 b2 0b 7f
        E 0 92 2f 7f
        E 144 82 2f 00
        E 32 b2 0b 7f
        E 0 92 30 7f
        E 144 82 30 00
        E 32 b2 0b 7f
        E 0 92 32 7f
        E 144 82 32 00
        E 32 b2 0b 7f
        E 0 92 34 7f
        E 144 82 34 00
        E 32 b2 0b 7f
        E 0 92 2b 7f
        E 144 82 2b 00
        E 32 b2 0b 7f
        E 0 92 2d 7f
        E 160 82 2d 00
        E 32 b2 0b 7f
        E 0 92 2d 7f
        E 144 82 2d 00
        E 16 b2 0b 7f
        E 0 92 2d 7f
        E 160 82 2d 00
        E 16 b2 0b 7f
        E 0 92 2d 7f
        E 160 82 2d 00
        E 16 b2 0b 7f
        E 0 92 2d 7f
        E 160 82 2d 00
        E 16 b2 0b 7f
        E 0 92 2d 7f
        E 160 82 2d 00
        E 16 b2 0b 7f
        E 0 92 2d 7f
        E 160 82 2d 00
        E 16 b2 0b 7f
        E 0 92 2d 7f
        E 160 82 2d 00
        E 32 b2 0b 7f
        E 0 92 2d 7f
        E 160 82 2d 00
        E 16 b2 0b 7f
        E 0 92 2d 7f
        E 160 82 2d 00
        E 16 b2 0b 7f
        E 0 92 2d 7f
        E 160 82 2d 00
        E 16 b2 0b 7f
        E 0 92 2d 7f
        E 160 82 2d 00
        E 16 b2 0b 7f
        E 0 92 2d 7f
        E 160 82 2d 00
        E 16 b2 0b 7f
        E 0 92 2d 7f
        E 160 82 2d 00
        E 32 b2 0b 7f
        E 0 92 2d 7f
        E 144 82 2d 00
        E 16 b2 0b 7f
        E 0 92 2d 7f
        E 160 82 2d 00
        E 32 b2 0b 7f
        E 0 92 2d 7f
        E 160 82 2d 00
        E 16 b2 0b 7f
        E 0 92 2d 7f
        E 160 82 2d 00
        E 16 b2 0b 7f
        E 0 92 2d 7f
        E 160 82 2d 00
        E 16 b2 0b 7f
        E 0 92 2d 7f
        E 144 82 2d 00
        E 32 b2 0b 7f
        E 0 92 2d 7f
        E 144 82 2d 00
        E 32 b2 0b 7f
        E 0 92 2d 7f
        E 144 82 2d 00
        E 32 b2 0b 7f
        E 0 92 2d 7f
        E 144 82 2d 00
        E 48 b2 0b 7f
        E 0 92 2d 7f
        E 288 82 2d 00
        E 64 b2 0b 7f
        E 0 92 2d 7f
        E 160 82 2d 00
        E 16 b2 0b 7f
        E 0 92 2a 7f
        E 160 82 2a 00
        E 16 b2 0b 7f
        E 0 92 2a 7f
        E 160 82 2a 00
        E 16 b2 0b 7f
        E 0 92 2b 7f
        E 144 82 2b 00
        E 32 b2 0b 7f
        E 0 92 2b 7f
        E 160 82 2b 00
        E 16 b2 0b 7f
        E 0 92 26 7f
        E 160 82 26 00
        E 32 b2 0b 7f
        E 0 92 28 7f
        E 144 82 28 00
        E 32 b2 0b 7f
        E 0 92 2d 7f
        E 144 82 2d 00
        E 32 b2 0b 7f
        E 0 92 2d 7f
        E 144 82 2d 00
        E 32 b2 0b 7f
        E 0 92 2d 7f
        E 144 82 2d 00
        E 32 b2 0b 7f
        E 0 92 2d 7f
        E 144 82 2d 00
        E 32 b2 0b 7f
        E 0 92 2d 7f
        E 144 82 2d 00
        E 32 b2 0b 7f
        E 0 92 2d 7f
        E 144 82 2d 00
        E 32 b2 0b 7f
        E 0 92 2d 7f
        E 144 82 2d 00
        E 48 b2 0b 7f
        E 0 92 2d 7f
        E 160 82 2d 00
        E 16 b2 0b 7f
        E 0 92 2d 7f
        E 144 82 2d 00
        E 32 b2 0b 7f
        E 0 92 2d 7f
        E 160 82 2d 00
        E 16 b2 0b 7f
        E 0 92 2d 7f
        E 160 82 2d 00
        E 16 b2 0b 7f
        E 0 92 2d 7f
        E 160 82 2d 00
        E 16 b2 0b 7f
        E 0 92 2d 7f
        E 160 82 2d 00
        E 16 b2 0b 7f
        E 0 92 2d 7f
        E 144 82 2d 00
        E 48 b2 0b 7f
        E 0 92 2d 7f
        E 144 82 2d 00
        E 32 b2 0b 7f
        E 0 92 2d 7f
        E 144 82 2d 00
        E 32 b2 0b 7f
        E 0 92 2d 7f
        E 144 82 2d 00
        E 32 b2 0b 7f
        E 0 92 2d 7f
        E 144 82 2d 00
        E 32 b2 0b 7f
        E 0 92 2d 7f
        E 144 82 2d 00
        E 32 b2 0b 7f
        E 0 92 2d 7f
        E 144 82 2d 00
        E 32 b2 0b 7f
        E 0 92 2d 7f
        E 144 82 2d 00
        E 32 b2 0b 7f
        E 0 92 2d 7f
        E 144 82 2d 00
        E 48 b2 0b 7f
        E 0 92 2d 7f
        E 160 82 2d 00
        E 16 b2 0b 7f
        E 0 92 2d 7f
        E 160 82 2d 00
        E 16 b2 0b 7f
        E 0 92 2d 7f
        E 160 82 2d 00
        E 16 b2 0b 7f
        E 0 92 2d 7f
        E 144 82 2d 00
        E 32 b2 0b 7f
        E 0 92 2d 7f
        E 160 82 2d 00
        E 16 b2 0b 7f
        E 0 92 2d 7f
        E 160 82 2d 00
        E 16 b2 0b 7f
        E 0 92 2d 7f
        E 144 82 2d 00
        E 80 b2 0b 7f
        E 0 92 2d 7f
        E 144 82 2d 00
        E 112 b2 0b 7f
        E 0 92 2e 7f
        E 144 82 2e 00
        E 96 b2 0b 7f
        E 0 92 2f 7f
        E 144 82 2f 00
        E 32 b2 0b 7f
        E 0 92 2f 7f
        E 144 82 2f 00
        E 32 b2 0b 7f
        E 0 92 2f 7f
        E 144 82 2f 00
        E 32 b2 0b 7f
        E 0 92 2f 7f
        E 144 82 2f 00
        E 32 b2 0b 7f
        E 0 92 2f 7f
        E 160 82 2f 00
        E 32 b2 0b 7f
        E 0 92 2f 7f
        E 144 82 2f 00
        E 32 b2 0b 7f
        E 0 92 2f 7f
        E 160 82 2f 00
        E 16 b2 0b 7f
        E 0 92 2f 7f
        E 160 82 2f 00
        E 16 b2 0b 7f
        E 0 92 2f 7f
        E 160 82 2f 00
        E 16 b2 0b 7f
        E 0 92 2f 7f
        E 160 82 2f 00
        E 16 b2 0b 7f
        E 0 92 2f 7f
        E 144 82 2f 00
        E 32 b2 0b 7f
        E 0 92 2f 7f
        E 144 82 2f 00
        E 32 b2 0b 7f
        E 0 92 2f 7f
        E 144 82 2f 00
        E 48 b2 0b 7f
        E 0 92 2f 7f
        E 144 82 2f 00
        E 32 b2 0b 7f
        E 0 92 2f 7f
        E 144 82 2f 00
        E 32 b2 0b 7f
        E 0 92 2f 7f
        E 144 82 2f 00
        E 32 b2 0b 7f
        E 0 92 2f 7f
        E 144 82 2f 00
        E 32 b2 0b 7f
        E 0 92 2f 7f
        E 144 82 2f 00
        E 32 b2 0b 7f
        E 0 92 2f 7f
        E 144 82 2f 00
        E 32 b2 0b 7f
        E 0 92 2f 7f
        E 160 82 2f 00
        E 16 b2 0b 7f
        E 0 92 2f 7f
        E 160 82 2f 00
        E 32 b2 0b 7f
        E 0 92 2f 7f
        E 160 82 2f 00
        E 16 b2 0b 7f
        E 0 92 2f 7f
        E 144 82 2f 00
        E 32 b2 0b 7f
        E 0 92 2f 7f
        E 288 82 2f 00
        E 64 b2 0b 7f
        E 0 92 2f 7f
        E 160 82 2f 00
        E 16 b2 0b 7f
        E 0 92 2c 7f
        E 160 82 2c 00
        E 16 b2 0b 7f
        E 0 92 2c 7f
        E 144 82 2c 00
        E 48 b2 0b 7f
        E 0 92 2d 7f
        E 144 82 2d 00
        E 32 b2 0b 7f
        E 0 92 2d 7f
        E 144 82 2d 00
        E 32 b2 0b 7f
        E 0 92 28 7f
        E 144 82 28 00
        E 32 b2 0b 7f
        E 0 92 2a 7f
        E 144 82 2a 00
        E 32 b2 0b 7f
        E 0 92 2f 7f
        E 144 82 2f 00
        E 32 b2 0b 7f
        E 0 92 2f 7f
        E 144 82 2f 00
        E 32 b2 0b 7f
        E 0 92 2f 7f
        E 160 82 2f 00
        E 16 b2 0b 7f
        E 0 92 2f 7f
        E 144 82 2f 00
        E 48 b2 0b 7f
        E 0 92 2f 7f
        E 160 82 2f 00
        E 16 b2 0b 7f
        E 0 92 2f 7f
        E 160 82 2f 00
        E 16 b2 0b 7f
        E 0 92 2f 7f
        E 160 82 2f 00
        E 16 b2 0b 7f
        E 0 92 2f 7f
        E 144 82 2f 00
        E 32 b2 0b 7f
        E 0 92 2f 7f
        E 160 82 2f 00
        E 16 b2 0b 7f
        E 0 92 2f 7f
        E 144 82 2f 00
        E 32 b2 0b 7f
        E 0 92 2f 7f
        E 144 82 2f 00
        E 32 b2 0b 7f
        E 0 92 2f 7f
        E 144 82 2f 00
        E 48 b2 0b 7f
        E 0 92 2f 7f
        E 144 82 2f 00
        E 32 b2 0b 7f
        E 0 92 2f 7f
        E 144 82 2f 00
        E 32 b2 0b 7f
        E 0 92 2f 7f
        E 144 82 2f 00
        E 32 b2 0b 7f
        E 0 92 2f 7f
        E 144 82 2f 00
        E 32 b2 0b 7f
        E 0 92 2f 7f
        E 144 82 2f 00
        E 32 b2 0b 7f
        E 0 92 2f 7f
        E 160 82 2f 00
        E 32 b2 0b 7f
        E 0 92 2f 7f
        E 160 82 2f 00
        E 32 b2 0b 7f
        E 0 92 2f 7f
        E 160 82 2f 00
        E 16 b2 0b 7f
        E 0 92 2f 7f
        E 160 82 2f 00
        E 16 b2 0b 7f
        E 0 92 2f 7f
        E 160 82 2f 00
        E 16 b2 0b 7f
        E 0 92 2f 7f
        E 160 82 2f 00
        E 16 b2 0b 7f
        E 0 92 2f 7f
        E 144 82 2f 00
        E 32 b2 0b 7f
        E 0 92 2f 7f
        E 160 82 2f 00
        E 16 b2 0b 7f
        E 0 92 2f 7f
        E 160 82 2f 00
        E 16 b2 0b 7f
        E 0 92 2f 7f
        E 144 82 2f 00
        E 48 b2 0b 7f
        E 0 92 2f 7f
        E 144 82 2f 00
        E 32 b2 0b 7f
        E 0 92 2f 7f
        E 144 82 2f 00
        E 32 b2 0b 7f
        E 0 92 2f 7f
        E 144 82 2f 00
        E 32 b2 0b 7f
        E 0 92 2f 7f
        E 160 82 2f 00
        E 16 b2 0b 7f
        E 0 92 32 7f
        E 160 82 32 00
        E 16 b2 0b 7f
        E 0 92 32 7f
        E 160 82 32 00
        E 16 b2 0b 7f
        E 0 92 32 7f
        E 160 82 32 00
        E 32 b2 0b 7f
        E 0 92 32 7f
        E 144 82 32 00
        E 32 b2 0b 7f
        E 0 92 32 7f
        E 160 82 32 00
        E 16 b2 0b 7f
        E 0 92 32 7f
        E 160 82 32 00
        E 16 b2 0b 7f
        E 0 92 32 7f
        E 160 82 32 00
        E 32 b2 0b 7f
        E 0 92 32 7f
        E 144 82 32 00
        E 16 b2 0b 7f
        E 0 92 32 7f
        E 160 82 32 00
        E 16 b2 0b 7f
        E 0 92 32 7f
        E 160 82 32 00
        E 16 b2 0b 7f
        E 0 92 32 7f
        E 160 82 32 00
        E 48 b2 0b 7f
        E 0 92 32 7f
        E 144 82 32 00
        E 16 b2 0b 7f
        E 0 92 32 7f
        E 160 82 32 00
        E 16 b2 0b 7f
        E 0 92 32 7f
        E 160 82 32 00
        E 16 b2 0b 7f
        E 0 92 32 7f
        E 160 82 32 00
        E 16 b2 0b 7f
        E 0 92 32 7f
        E 160 82 32 00
        E 16 b2 0b 7f
        E 0 92 32 7f
        E 160 82 32 00
        E 16 b2 0b 7f
        E 0 92 32 7f
        E 160 82 32 00
        E 16 b2 0b 7f
        E 0 92 32 7f
        E 160 82 32 00
        E 48 b2 0b 7f
        E 0 92 32 7f
        E 144 82 32 00
        E 16 b2 0b 7f
        E 0 92 32 7f
        E 160 82 32 00
        E 16 b2 0b 7f
        E 0 92 32 7f
        E 160 82 32 00
        E 16 b2 0b 7f
        E 0 92 32 7f
        E 160 82 32 00
        E 16 b2 0b 7f
        E 0 92 32 7f
        E 160 82 32 00
        E 32 b2 0b 7f
        E 0 92 32 7f
        E 144 82 32 00
        E 16 b2 0b 7f
        E 0 92 32 7f
        E 160 82 32 00
        E 16 b2 0b 7f
        E 0 92 32 7f
        E 160 82 32 00
        E 48 b2 0b 7f
        E 0 92 32 7f
        E 144 82 32 00
        E 32 b2 0b 7f
        E 0 92 32 7f
        E 144 82 32 00
        E 32 b2 0b 7f
        E 0 92 32 7f
        E 144 82 32 00
        E 32 b2 0b 7f
        E 0 92 32 7f
        E 160 82 32 00
        E 16 b2 0b 7f
        E 0 92 32 7f
        E 160 82 32 00
        E 16 b2 0b 7f
        E 0 92 32 7f
        E 160 82 32 00
        E 14768 b2 0b 7f
        E 0 92 34 7f
        E 16 82 34 00
        E 0 b2 0b 7f
        E 0 92 35 7f
        E 32 82 35 00
        E 0 b2 0b 7f
        E 0 92 36 7f
        E 48 82 36 00
        E 0 b2 0b 7f
        E 0 92 28 7f
        E 144 82 28 00
        E 32 b2 0b 7f
        E 0 92 28 7f
        E 144 82 28 00
        E 32 b2 0b 7f
        E 0 92 28 7f
        E 144 82 28 00
        E 48 b2 0b 7f
        E 0 92 28 7f
        E 144 82 28 00
        E 32 b2 0b 7f
        E 0 92 28 7f
        E 160 82 28 00
        E 16 b2 0b 7f
        E 0 92 28 7f
        E 96 82 28 00
        E 0 b2 0b 7f
        E 0 92 68 7f
        E 80 82 68 00
        E 3824 b2 0b 7f
        E 0 92 68 7f
        E 80 82 68 00
        E 2688 b2 0b 7f
        E 0 92 68 7f
        E 80 82 68 00
        E 16592 b2 0b 7f
        E 0 92 28 7f
        E 144 82 28 00
        E 384 b2 0b 7f
        E 0 92 28 7f
        E 144 82 28 00
        E 0 b2 0b 7f
        E 0 92 26 7f
        E 336 82 26 00
        E 64 b2 0b 7f
        E 0 92 28 7f
        E 144 82 28 00
        E 928 b2 0b 7f
        E 0 92 2d 7f
        E 128 82 2d 00
        E 0 b2 0b 7f
        E 0 92 3c 7f
        E 272 82 3c 00
        E 0 b2 0b 7f
        E 0 92 2d 7f
        E 144 82 2d 00
        E 0 b2 0b 7f
        E 0 92 39 7f
        E 128 82 39 00
        E 0 b2 0b 7f
        E 0 92 2d 7f
        E 128 82 2d 00
        E 0 b2 0b 7f
        E 0 92 39 7f
        E 272 82 39 00
        E 0 b2 0b 7f
        E 0 92 2d 7f
        E 144 82 2d 00
        E 0 b2 0b 7f
        E 0 92 3c 7f
        E 256 82 3c 00
        E 0 b2 0b 7f
        E 0 92 2d 7f
        E 144 82 2d 00
        E 0 b2 0b 7f
        E 0 92 39 7f
        E 128 82 39 00
        E 0 b2 0b 7f
        E 0 92 2d 7f
        E 144 82 2d 00
        E 0 b2 0b 7f
        E 0 92 39 7f
        E 256 82 39 00
        E 4304 b2 0b 7f
        E 0 92 2d 7f
        E 128 82 2d 00
        E 0 b2 0b 7f
        E 0 92 3c 7f
        E 272 82 3c 00
        E 0 b2 0b 7f
        E 0 92 2d 7f
        E 144 82 2d 00
        E 0 b2 0b 7f
        E 0 92 39 7f
        E 128 82 39 00
        E 0 b2 0b 7f
        E 0 92 2d 7f
        E 128 82 2d 00
        E 0 b2 0b 7f
        E 0 92 39 7f
        E 272 82 39 00
        E 0 b2 0b 7f
        E 0 92 2d 7f
        E 128 82 2d 00
        E 0 b2 0b 7f
        E 0 92 3c 7f
        E 272 82 3c 00
        E 0 b2 0b 7f
        E 0 92 2d 7f
        E 144 82 2d 00
        E 0 b2 0b 7f
        E 0 92 39 7f
        E 128 82 39 00
        E 0 b2 0b 7f
        E 0 92 2d 7f
        E 128 82 2d 00
        E 0 b2 0b 7f
        E 0 92 39 7f
        E 272 82 39 00
        E 0 b2 0b 7f
        E 0 92 2f 7f
        E 160 82 2f 00
        E 112 b2 0b 7f
        E 0 92 3b 7f
        E 288 82 3b 00
        E 112 b2 0b 7f
        E 0 92 3f 7f
        E 144 82 3f 00
        E 128 b2 0b 7f
        E 0 92 3f 7f
        E 160 82 3f 00
        E 240 b2 0b 7f
        E 0 92 3f 7f
        E 304 82 3f 00
        E 96 b2 0b 7f
        E 0 92 3f 7f
        E 160 82 3f 00
        E 8912 b2 0b 7f
        E 0 92 34 7f
        E 144 82 34 00
        E 0 b2 0b 7f
        E 0 92 33 7f
        E 48 82 33 00
        E 0 b2 0b 7f
        E 0 92 32 7f
        E 64 82 32 00
        E 0 b2 0b 7f
        E 0 92 31 7f
        E 64 82 31 00
        E 0 b2 0b 7f
        E 0 92 30 7f
        E 96 82 30 00
        E 0 b2 0b 7f
        E 0 92 2f 7f
        E 112 82 2f 00
        E 80 b2 0b 7f
        E 0 92 32 7f
        E 160 82 32 00
        E 96 b2 0b 7f
        E 0 92 34 7f
        E 160 82 34 00
        E 112 b2 0b 7f
        E 0 92 28 7f
        E 304 82 28 00
        E 96 b2 0b 7f
        E 0 92 28 7f
        E 144 82 28 00
        E 0 b2 0b 7f
        E 0 92 2b 7f
        E 128 82 2b 00
        E 0 b2 0b 7f
        E 0 92 2d 7f
        E 144 82 2d 00
        E 0 b2 0b 7f
        E 0 92 2f 7f
        E 128 82 2f 00
        E 64 b2 0b 7f
        E 0 92 34 7f
        E 160 82 34 00
        E 0 b2 0b 7f
        E 0 92 33 7f
        E 32 82 33 00
        E 0 b2 0b 7f
        E 0 92 32 7f
        E 64 82 32 00
        E 0 b2 0b 7f
        E 0 92 31 7f
        E 96 82 31 00
        E 0 b2 0b 7f
        E 0 92 30 7f
        E 64 82 30 00
        E 0 b2 0b 7f
        E 0 92 2f 7f
        E 128 82 2f 00
        E 64 b2 0b 7f
        E 0 92 32 7f
        E 160 82 32 00
        E 112 b2 0b 7f
        E 0 92 34 7f
        E 160 82 34 00
        E 112 b2 0b 7f
        E 0 92 28 7f
        E 288 82 28 00
        E 112 b2 0b 7f
        E 0 92 28 7f
        E 128 82 28 00
        E 0 b2 0b 7f
        E 0 92 2b 7f
        E 144 82 2b 00
        E 0 b2 0b 7f
        E 0 92 2d 7f
        E 128 82 2d 00
        E 0 b2 0b 7f
        E 0 92 2f 7f
        E 128 82 2f 00
        E 80 b2 0b 7f
        E 0 92 34 7f
        E 176 82 34 00
        E 0 b2 0b 7f
        E 0 92 33 7f
        E 32 82 33 00
        E 0 b2 0b 7f
        E 0 92 32 7f
        E 64 82 32 00
        E 0 b2 0b 7f
        E 0 92 31 7f
        E 80 82 31 00
        E 0 b2 0b 7f
        E 0 92 30 7f
        E 64 82 30 00
        E 0 b2 0b 7f
        E 0 92 2f 7f
        E 112 82 2f 00
        E 64 b2 0b 7f
        E 0 92 32 7f
        E 144 82 32 00
        E 128 b2 0b 7f
        E 0 92 34 7f
        E 160 82 34 00
        E 112 b2 0b 7f
        E 0 92 28 7f
        E 288 82 28 00
        E 112 b2 0b 7f
        E 0 92 28 7f
        E 128 82 28 00
        E 0 b2 0b 7f
        E 0 92 2b 7f
        E 144 82 2b 00
        E 0 b2 0b 7f
        E 0 92 2d 7f
        E 128 82 2d 00
        E 0 b2 0b 7f
        E 0 92 2f 7f
        E 144 82 2f 00
        E 64 b2 0b 7f
        E 0 92 34 7f
        E 176 82 34 00
        E 0 b2 0b 7f
        E 0 92 33 7f
        E 32 82 33 00
        E 0 b2 0b 7f
        E 0 92 32 7f
        E 48 82 32 00
        E 0 b2 0b 7f
        E 0 92 31 7f
        E 96 82 31 00
        E 0 b2 0b 7f
        E 0 92 30 7f
        E 64 82 30 00
        E 0 b2 0b 7f
        E 0 92 2f 7f
        E 112 82 2f 00
        E 80 b2 0b 7f
        E 0 92 32 7f
        E 160 82 32 00
        E 96 b2 0b 7f
        E 0 92 34 7f
        E 144 82 34 00
        E 128 b2 0b 7f
        E 0 92 28 7f
        E 304 82 28 00
        E 96 b2 0b 7f
        E 0 92 28 7f
        E 144 82 28 00
        E 0 b2 0b 7f
        E 0 92 2b 7f
        E 128 82 2b 00
        E 0 b2 0b 7f
        E 0 92 2d 7f
        E 144 82 2d 00
        E 0 b2 0b 7f
        E 0 92 2f 7f
        E 128 82 2f 00
        E 64 b2 0b 7f
        E 0 92 2f 7f
        E 160 82 2f 00
        E 0 b2 0b 7f
        E 0 92 2e 7f
        E 64 82 2e 00
        E 0 b2 0b 7f
        E 0 92 2d 7f
        E 96 82 2d 00
        E 0 b2 0b 7f
        E 0 92 2c 7f
        E 96 82 2c 00
        E 0 b2 0b 7f
        E 0 92 2b 7f
        E 128 82 2b 00
        E 64 b2 0b 7f
        E 0 92 2d 7f
        E 160 82 2d 00
        E 112 b2 0b 7f
        E 0 92 2f 7f
        E 160 82 2f 00
        E 96 b2 0b 7f
        E 0 92 23 7f
        E 288 82 23 00
        E 128 b2 0b 7f
        E 0 92 23 7f
        E 128 82 23 00
        E 0 b2 0b 7f
        E 0 92 26 7f
        E 128 82 26 00
        E 0 b2 0b 7f
        E 0 92 28 7f
        E 144 82 28 00
        E 0 b2 0b 7f
        E 0 92 2a 7f
        E 128 82 2a 00
        E 64 b2 0b 7f
        E 0 92 2f 7f
        E 160 82 2f 00
        E 0 b2 0b 7f
        E 0 92 2e 7f
        E 64 82 2e 00
        E 0 b2 0b 7f
        E 0 92 2d 7f
        E 96 82 2d 00
        E 0 b2 0b 7f
        E 0 92 2c 7f
        E 80 82 2c 00
        E 0 b2 0b 7f
        E 0 92 2b 7f
        E 144 82 2b 00
        E 64 b2 0b 7f
        E 0 92 2d 7f
        E 160 82 2d 00
        E 112 b2 0b 7f
        E 0 92 2f 7f
        E 160 82 2f 00
        E 112 b2 0b 7f
        E 0 92 23 7f
        E 288 82 23 00
        E 112 b2 0b 7f
        E 0 92 23 7f
        E 128 82 23 00
        E 0 b2 0b 7f
        E 0 92 26 7f
        E 144 82 26 00
        E 0 b2 0b 7f
        E 0 92 28 7f
        E 128 82 28 00
        E 0 b2 0b 7f
        E 0 92 2a 7f
        E 128 82 2a 00
        E 80 b2 0b 7f
        E 0 92 34 7f
        E 144 82 34 00
        E 0 b2 0b 7f
        E 0 92 33 7f
        E 64 82 33 00
        E 0 b2 0b 7f
        E 0 92 32 7f
        E 64 82 32 00
        E 0 b2 0b 7f
        E 0 92 31 7f
        E 48 82 31 00
        E 0 b2 0b 7f
        E 0 92 30 7f
        E 96 82 30 00
        E 0 b2 0b 7f
        E 0 92 2f 7f
        E 112 82 2f 00
        E 64 b2 0b 7f
        E 0 92 32 7f
        E 160 82 32 00
        E 112 b2 0b 7f
        E 0 92 34 7f
        E 160 82 34 00
        E 112 b2 0b 7f
        E 0 92 28 7f
        E 288 82 28 00
        E 112 b2 0b 7f
        E 0 92 28 7f
        E 144 82 28 00
        E 0 b2 0b 7f
        E 0 92 2b 7f
        E 128 82 2b 00
        E 0 b2 0b 7f
        E 0 92 2d 7f
        E 128 82 2d 00
        E 0 b2 0b 7f
        E 0 92 2f 7f
        E 144 82 2f 00
        E 64 b2 0b 7f
        E 0 92 34 7f
        E 144 82 34 00
        E 0 b2 0b 7f
        E 0 92 33 7f
        E 48 82 33 00
        E 0 b2 0b 7f
        E 0 92 32 7f
        E 64 82 32 00
        E 0 b2 0b 7f
        E 0 92 31 7f
        E 64 82 31 00
        E 0 b2 0b 7f
        E 0 92 30 7f
        E 96 82 30 00
        E 0 b2 0b 7f
        E 0 92 2f 7f
        E 128 82 2f 00
        E 64 b2 0b 7f
        E 0 92 32 7f
        E 144 82 32 00
        E 128 b2 0b 7f
        E 0 92 34 7f
        E 160 82 34 00
        E 96 b2 0b 7f
        E 0 92 28 7f
        E 304 82 28 00
        E 112 b2 0b 7f
        E 0 92 28 7f
        E 128 82 28 00
        E 0 b2 0b 7f
        E 0 92 2b 7f
        E 128 82 2b 00
        E 0 b2 0b 7f
        E 0 92 2d 7f
        E 144 82 2d 00
        E 0 b2 0b 7f
        E 0 92 2f 7f
        E 128 82 2f 00
        E 0 b2 0b 7f
        E 0 92 24 7f
        E 2144 82 24 00
        E 0 b2 0b 7f
        E 0 92 2a 7f
        E 2160 82 2a 00
        E 0 b2 0b 7f
        E 0 92 26 7f
        E 128 82 26 00
        E 0 b2 0b 7f
        E 0 92 28 7f
        E 128 82 28 00
        E 0 b2 0b 7f
        E 0 92 3d 7f
        E 144 82 3d 00
        E 0 b2 0b 7f
        E 0 92 3e 7f
        E 144 82 3e 00
        E 128 b2 0b 7f
        E 0 92 3e 7f
        E 160 82 3e 00
        E 96 b2 0b 7f
        E 0 92 3e 7f
        E 160 82 3e 00
        E 256 b2 0b 7f
        E 0 92 3e 7f
        E 288 82 3e 00
        E 112 b2 0b 7f
        E 0 92 3e 7f
        E 144 82 3e 00
        E 128 b2 0b 7f
        E 0 92 28 7f
        E 128 82 28 00
        E 0 b2 0b 7f
        E 0 92 26 7f
        E 128 82 26 00
        E 0 b2 0b 7f
        E 0 92 28 7f
        E 144 82 28 00
        E 0 b2 0b 7f
        E 0 92 3d 7f
        E 128 82 3d 00
        E 0 b2 0b 7f
        E 0 92 3e 7f
        E 144 82 3e 00
        E 128 b2 0b 7f
        E 0 92 3e 7f
        E 160 82 3e 00
        E 112 b2 0b 7f
        E 0 92 3e 7f
        E 160 82 3e 00
        E 240 b2 0b 7f
        E 0 92 3e 7f
        E 288 82 3e 00
        E 112 b2 0b 7f
        E 0 92 3e 7f
        E 160 82 3e 00
        E 112 b2 0b 7f
        E 0 92 28 7f
        E 128 82 28 00
        E 0 b2 0b 7f
        E 0 92 26 7f
        E 144 82 26 00
        E 0 b2 0b 7f
        E 0 92 28 7f
        E 128 82 28 00
        E 0 b2 0b 7f
        E 0 92 3d 7f
        E 128 82 3d 00
        E 0 b2 0b 7f
        E 0 92 3e 7f
        E 144 82 3e 00
        E 128 b2 0b 7f
        E 0 92 3e 7f
        E 160 82 3e 00
        E 112 b2 0b 7f
        E 0 92 3e 7f
        E 160 82 3e 00
        E 240 b2 0b 7f
        E 0 92 3e 7f
        E 304 82 3e 00
        E 96 b2 0b 7f
        E 0 92 3e 7f
        E 160 82 3e 00
        E 112 b2 0b 7f
        E 0 92 28 7f
        E 144 82 28 00
        E 0 b2 0b 7f
        E 0 92 26 7f
        E 128 82 26 00
        E 0 b2 0b 7f
        E 0 92 28 7f
        E 128 82 28 00
        E 0 b2 0b 7f
        E 0 92 3d 7f
        E 144 82 3d 00
        E 0 b2 0b 7f
        E 0 92 3e 7f
        E 144 82 3e 00
        E 128 b2 0b 7f
        E 0 92 3e 7f
        E 144 82 3e 00
        E 112 b2 0b 7f
        E 0 92 3e 7f
        E 144 82 3e 00
        E 256 b2 0b 7f
        E 0 92 3e 7f
        E 304 82 3e 00
        E 112 b2 0b 7f
        E 0 92 3e 7f
        E 144 82 3e 00
        E 112 b2 0b 7f
        E 0 92 28 7f
        E 144 82 28 00
        E 0 b2 0b 7f
        E 0 92 2d 7f
        E 144 82 2d 00
        E 128 b2 0b 7f
        E 0 92 2d 7f
        E 160 82 2d 00
        E 96 b2 0b 7f
        E 0 92 2d 7f
        E 160 82 2d 00
        E 112 b2 0b 7f
        E 0 92 2d 7f
        E 144 82 2d 00
        E 128 b2 0b 7f
        E 0 92 2d 7f
        E 144 82 2d 00
        E 128 b2 0b 7f
        E 0 92 2d 7f
        E 144 82 2d 00
        E 128 b2 0b 7f
        E 0 92 2d 7f
        E 160 82 2d 00
        E 96 b2 0b 7f
        E 0 92 2d 7f
        E 160 82 2d 00
        E 112 b2 0b 7f
        E 0 92 2f 7f
        E 144 82 2f 00
        E 128 b2 0b 7f
        E 0 92 2f 7f
        E 160 82 2f 00
        E 112 b2 0b 7f
        E 0 92 2f 7f
        E 160 82 2f 00
        E 112 b2 0b 7f
        E 0 92 2f 7f
        E 160 82 2f 00
        E 96 b2 0b 7f
        E 0 92 2f 7f
        E 160 82 2f 00
        E 112 b2 0b 7f
        E 0 92 2f 7f
        E 160 82 2f 00
        E 112 b2 0b 7f
        E 0 92 2f 7f
        E 144 82 2f 00
        E 128 b2 0b 7f
        E 0 92 2f 7f
        E 144 82 2f 00
        E 8720 b2 0b 7f
        E 0 92 28 7f
        E 160 82 28 00
        E 368 b2 0b 7f
        E 0 92 28 7f
        E 144 82 28 00
        E 0 b2 0b 7f
        E 0 92 26 7f
        E 336 82 26 00
        E 64 b2 0b 7f
        E 0 92 28 7f
        E 160 82 28 00
        E 912 b2 0b 7f
        E 0 92 2d 7f
        E 128 82 2d 00
        E 0 b2 0b 7f
        E 0 92 3c 7f
        E 272 82 3c 00
        E 0 b2 0b 7f
        E 0 92 2d 7f
        E 128 82 2d 00
        E 0 b2 0b 7f
        E 0 92 39 7f
        E 144 82 39 00
        E 0 b2 0b 7f
        E 0 92 2d 7f
        E 128 82 2d 00
        E 0 b2 0b 7f
        E 0 92 39 7f
        E 272 82 39 00
        E 0 b2 0b 7f
        E 0 92 2d 7f
        E 128 82 2d 00
        E 0 b2 0b 7f
        E 0 92 3c 7f
        E 48 82 3c 00
        E 0 ff 2f 00
      >
    >
  >
  <TRACK {39C12145-D76B-4FBF-B4B8-C193CD5FE171}
    NAME "NES - Noise / Drums [ch3]"
    PEAKCOL 11184810
    BEAT -1
    AUTOMODE 0
    PANLAWFLAGS 3
    VOLPAN 1 0 -1 -1 1
    MUTESOLO 0 0 0
    IPHASE 0
    PLAYOFFS 0 1
    ISBUS 0 0
    BUSCOMP 0 0 0 0 0
    SHOWINMIX 1 0.6667 0.5 1 0.5 0 0 0
    FIXEDLANES 9 0 0 0 0
    SEL 0
    REC 0 5088 1 0 0 0 0 0
    VU 2
    TRACKHEIGHT 0 0 0 0 0 0 0
    INQ 0 0 0 0.5 100 0 0 100
    NCHAN 2
    FX 1
    TRACKID {39C12145-D76B-4FBF-B4B8-C193CD5FE171}
    PERF 0
    MIDIOUT -1
    MAINSEND 1 0
    <FXCHAIN
      WNDRECT 24 52 700 560
      SHOW 0
      LASTSEL 0
      DOCKED 0
      BYPASS 0 0 0
      <JS "ReapNES Studio/ReapNES_Console.jsfx" ""
        2 15 1 10 80 10 100 2 1 15 1 5 60 10 80 1 1 0 50 0 0 15 1 0 100 0 0 0.500000 0.500000 0.400000 0.300000 0.800000 3 1 0 0 0 0 - - - - - - - - - - - - - - - - - - - - - - - - - -
      >
      FLOATPOS 0 0 0 0
      FXID {C68DCD71-D013-4610-9859-DE0A93CE575C}
      WAK 0 0
    >
    <ITEM
      POSITION 0
      LENGTH 173.4992276
      LOOP 0
      ALLTAKES 0
      FADEIN 0 0 0 0 0 0 0
      FADEOUT 0 0 0 0 0 0 0
      MUTE 0 0
      SEL 0
      IGUID {6F2437CD-AE38-43E7-AC59-3E16F8758578}
      <SOURCE MIDI
        HASDATA 1 480 QN
        CCINTERP 32
        E 0 93 2a 28
        E 82032 83 2a 00
        E 4176 93 2a 28
        E 1088 83 2a 00
        E 6816 93 24 08
        E 7920 83 24 00
        E 4400 93 24 78
        E 96 83 24 00
        E 416 93 24 78
        E 96 83 24 00
        E 288 93 24 78
        E 96 83 24 00
        E 288 93 24 78
        E 96 83 24 00
        E 32 93 24 78
        E 96 83 24 00
        E 160 93 24 78
        E 96 83 24 00
        E 32 93 24 78
        E 96 83 24 00
        E 160 93 24 78
        E 96 83 24 00
        E 32 93 24 78
        E 96 83 24 00
        E 416 93 24 78
        E 96 83 24 00
        E 288 93 24 78
        E 96 83 24 00
        E 864 93 24 40
        E 48 83 24 00
        E 160 93 24 38
        E 2336 83 24 00
        E 80 93 2a 38
        E 192 83 2a 00
        E 80 93 26 38
        E 208 83 26 00
        E 64 93 2a 38
        E 208 83 2a 00
        E 48 93 24 38
        E 192 83 24 00
        E 80 93 2a 38
        E 192 83 2a 00
        E 80 93 26 38
        E 208 83 26 00
        E 64 93 2a 38
        E 208 83 2a 00
        E 48 93 24 38
        E 192 83 24 00
        E 80 93 2a 38
        E 192 83 2a 00
        E 80 93 26 38
        E 192 83 26 00
        E 80 93 2a 38
        E 208 83 2a 00
        E 64 93 24 38
        E 208 83 24 00
        E 48 93 2a 38
        E 192 83 2a 00
        E 80 93 26 38
        E 192 83 26 00
        E 80 93 2a 38
        E 192 83 2a 00
        E 80 93 24 38
        E 208 83 24 00
        E 64 93 2a 38
        E 208 83 2a 00
        E 48 93 26 38
        E 192 83 26 00
        E 80 93 2a 38
        E 192 83 2a 00
        E 80 93 24 38
        E 208 83 24 00
        E 64 93 2a 38
        E 208 83 2a 00
        E 48 93 26 38
        E 192 83 26 00
        E 80 93 2a 38
        E 192 83 2a 00
        E 80 93 24 38
        E 192 83 24 00
        E 80 93 2a 38
        E 208 83 2a 00
        E 64 93 26 38
        E 208 83 26 00
        E 48 93 2a 38
        E 192 83 2a 00
        E 80 93 24 38
        E 192 83 24 00
        E 80 93 2a 38
        E 192 83 2a 00
        E 80 93 26 38
        E 208 83 26 00
        E 64 93 2a 38
        E 208 83 2a 00
        E 48 93 24 58
        E 28128 83 24 00
        E 80 93 2a 38
        E 192 83 2a 00
        E 80 93 26 38
        E 208 83 26 00
        E 64 93 2a 38
        E 208 83 2a 00
        E 48 93 24 38
        E 192 83 24 00
        E 80 93 2a 38
        E 192 83 2a 00
        E 80 93 26 38
        E 208 83 26 00
        E 64 93 2a 38
        E 208 83 2a 00
        E 48 93 24 38
        E 192 83 24 00
        E 80 93 2a 38
        E 192 83 2a 00
        E 80 93 26 38
        E 192 83 26 00
        E 80 93 2a 38
        E 208 83 2a 00
        E 64 93 24 38
        E 208 83 24 00
        E 48 93 2a 38
        E 192 83 2a 00
        E 80 93 26 38
        E 192 83 26 00
        E 80 93 2a 38
        E 192 83 2a 00
        E 80 93 24 38
        E 208 83 24 00
        E 64 93 2a 38
        E 208 83 2a 00
        E 48 93 26 38
        E 192 83 26 00
        E 80 93 2a 38
        E 192 83 2a 00
        E 80 93 24 38
        E 192 83 24 00
        E 80 93 2a 38
        E 208 83 2a 00
        E 48 93 26 38
        E 192 83 26 00
        E 80 93 2a 38
        E 192 83 2a 00
        E 80 93 24 38
        E 192 83 24 00
        E 80 93 2a 38
        E 208 83 2a 00
        E 64 93 26 38
        E 208 83 26 00
        E 48 93 2a 38
        E 192 83 2a 00
        E 80 93 24 38
        E 192 83 24 00
        E 80 93 2a 38
        E 192 83 2a 00
        E 80 93 26 38
        E 208 83 26 00
        E 64 93 2a 38
        E 208 83 2a 00
        E 48 93 24 38
        E 192 83 24 00
        E 80 93 2a 38
        E 192 83 2a 00
        E 80 93 26 38
        E 192 83 26 00
        E 80 93 2a 38
        E 208 83 2a 00
        E 64 93 24 38
        E 208 83 24 00
        E 48 93 2a 38
        E 192 83 2a 00
        E 80 93 26 38
        E 192 83 26 00
        E 80 93 2a 38
        E 208 83 2a 00
        E 64 93 24 38
        E 208 83 24 00
        E 48 93 2a 38
        E 192 83 2a 00
        E 80 93 26 38
        E 192 83 26 00
        E 80 93 2a 38
        E 192 83 2a 00
        E 80 93 24 38
        E 208 83 24 00
        E 64 93 2a 38
        E 208 83 2a 00
        E 48 93 26 38
        E 192 83 26 00
        E 80 93 2a 38
        E 192 83 2a 00
        E 80 93 2a 40
        E 4304 83 2a 00
        E 16 93 2a 78
        E 32 83 2a 00
        E 4256 93 2a 78
        E 32 83 2a 00
        E 4256 93 24 38
        E 2336 83 24 00
        E 80 93 2a 38
        E 208 83 2a 00
        E 64 93 26 38
        E 208 83 26 00
        E 48 93 2a 38
        E 192 83 2a 00
        E 80 93 24 38
        E 144 83 24 00
        E 0 ff 2f 00
      >
    >
  >
>