<REAPER_PROJECT 0.1 "7.27/win64" 1707000000
  <NOTES 0 2
    |ReapNES Studio Project
    |MIDI Import - F_15_Strike_Eagle_title_rom_v1
  >
  RIPPLE 0
  GROUPOVERRIDE 0 0 0
  AUTOXFADE 129
  ENVATTACH 3
  POOLEDENVATTACH 0
  MIXERUIFLAGS 11 48
  ENVFADESZ10 40
  PEAKGAIN 1
  FEEDBACK 0
  PANLAW 1
  PROJOFFS 0 0 0
  MAXPROJLEN 0 0
  GRID 3199 8 1 8 1 0 0 0
  TIMEMODE 1 5 -1 30 0 0 -1
  VIDEO_CONFIG 0 0 65792
  PANMODE 3
  PANLAWFLAGS 3
  CURSOR 0
  ZOOM 100 0 0
  VZOOMEX 6 0
  USE_REC_CFG 0
  RECMODE 1
  SMPTESYNC 0 30 100 40 1000 300 0 0 1 0 0
  LOOP 0
  LOOPGRAN 0 4
  RECORD_PATH "Media" ""
  <RECORD_CFG
    ZXZhdxgAAQ==
  >
  <APPLYFX_CFG
  >
  RENDER_FILE ""
  RENDER_PATTERN ""
  RENDER_FMT 0 2 0
  RENDER_1X 0
  RENDER_RANGE 1 0 0 18 1000
  RENDER_RESAMPLE 3 0 1
  RENDER_ADDTOPROJ 0
  RENDER_STEMS 0
  RENDER_DITHER 0
  TIMELOCKMODE 1
  TEMPOENVLOCKMODE 1
  ITEMMIX 1
  DEFPITCHMODE 589824 0
  TAKELANE 1
  SAMPLERATE 44100 0 0
  <RENDER_CFG
    ZXZhdxgAAQ==
  >
  LOCK 1
  <METRONOME 6 2
    VOL 0.25 0.125
    BEATLEN 4
    FREQ 1760 880 1
    SAMPLES "" ""
    SPLIGNORE 0 0
    SPLDEF 2 660 "" 0
    SPLDEF 3 440 "" 0
    PATTERN 0 169
    PATTERNSTR ABBB
    MULT 1
  >
  GLOBAL_AUTO -1
  TEMPO 128.59999614200012 4 4
  PLAYRATE 1 0 0.25 4
  SELECTION 0 0
  SELECTION2 0 0
  MASTERAUTOMODE 0
  MASTERTRACKHEIGHT 0 0
  MASTERPEAKCOL 16576
  MASTERMUTESOLO 0
  MASTERTRACKVIEW 0 0.6667 0.5 0.5 0 0 0 0 0 0 0 0 0 0
  MASTERHWOUT 0 0 1 0 0 0 0 -1
  MASTER_NCH 2 2
  MASTER_VOLUME 1 0 -1 -1 1
  MASTER_PANMODE 3
  MASTER_PANLAWFLAGS 3
  MASTER_FX 1
  MASTER_SEL 0
  <MASTERPLAYSPEEDENV
    EGUID {CF030F13-309E-43D5-9356-356239C8835A}
    ACT 0 -1
    VIS 0 1 1
    LANEHEIGHT 0 0
    ARM 0
    DEFSHAPE 0 -1 -1
  >
  <TEMPOENVEX
    EGUID {3A5C094D-8CC7-468F-9BC5-9D59D9B2CE32}
    ACT 1 -1
    VIS 1 0 1
    LANEHEIGHT 0 0
    ARM 0
    DEFSHAPE 1 -1 -1
  >
  <PROJBAY
  >
  <TRACK {1E223EC6-3ABE-4AB0-BA4D-A688AD0393AF}
    NAME "NES - Pulse 1 [ch0]"
    PEAKCOL 16576606
    BEAT -1
    AUTOMODE 0
    PANLAWFLAGS 3
    VOLPAN 1 0 -1 -1 1
    MUTESOLO 0 0 0
    IPHASE 0
    PLAYOFFS 0 1
    ISBUS 0 0
    BUSCOMP 0 0 0 0 0
    SHOWINMIX 1 0.6667 0.5 1 0.5 0 0 0
    FIXEDLANES 9 0 0 0 0
    SEL 1
    REC 1 5088 1 0 0 0 0 0
    VU 2
    TRACKHEIGHT 0 0 0 0 0 0 0
    INQ 0 0 0 0.5 100 0 0 100
    NCHAN 2
    FX 1
    TRACKID {1E223EC6-3ABE-4AB0-BA4D-A688AD0393AF}
    PERF 0
    MIDIOUT -1
    MAINSEND 1 0
    <FXCHAIN
      WNDRECT 24 52 700 560
      SHOW 0
      LASTSEL 0
      DOCKED 0
      BYPASS 0 0 0
      <JS "ReapNES Studio/ReapNES_Console.jsfx" ""
        2 15 1 10 80 10 100 2 1 15 1 5 60 10 80 1 1 0 50 0 0 15 1 0 100 0 0 0.500000 0.500000 0.400000 0.300000 0.800000 0 1 0 0 0 0 - - - - - - - - - - - - - - - - - - - - - - - - - -
      >
      FLOATPOS 0 0 0 0
      FXID {23444FF1-C26D-4CA2-AC4A-D2E526C2A7D2}
      WAK 0 0
    >
    <ITEM
      POSITION 0
      LENGTH 9.269051600000001
      LOOP 0
      ALLTAKES 0
      FADEIN 0 0 0 0 0 0 0
      FADEOUT 0 0 0 0 0 0 0
      MUTE 0 0
      SEL 0
      IGUID {08172EBD-4115-40CA-9BDF-9D6E1DF514A8}
      <SOURCE MIDI
        HASDATA 1 480 QN
        CCINTERP 32
        E 0 c0 50
        E 0 b0 0c 10
        E 0 b0 0b 55
        E 0 90 1d 55
        E 16 b0 0b 2a
        E 16 80 1d 00
        E 64 b0 0b 55
        E 0 90 26 55
        E 16 b0 0b 2a
        E 16 80 26 00
        E 64 b0 0b 55
        E 0 90 1a 55
        E 16 b0 0b 2a
        E 16 80 1a 00
        E 64 b0 0b 55
        E 0 90 1a 55
        E 16 b0 0b 2a
        E 16 80 1a 00
        E 64 b0 0b 55
        E 0 90 26 55
        E 16 b0 0b 2a
        E 16 80 26 00
        E 64 b0 0b 55
        E 0 90 26 55
        E 16 b0 0b 2a
        E 16 80 26 00
        E 64 b0 0b 55
        E 0 90 1f 55
        E 16 b0 0b 2a
        E 16 80 1f 00
        E 64 b0 0b 55
        E 0 90 26 55
        E 16 b0 0b 2a
        E 16 80 26 00
        E 64 b0 0b 55
        E 0 90 1b 55
        E 16 b0 0b 2a
        E 16 80 1b 00
        E 64 b0 0b 55
        E 0 90 2a 55
        E 16 b0 0b 2a
        E 16 80 2a 00
        E 64 b0 0b 55
        E 0 90 26 55
        E 16 b0 0b 2a
        E 16 80 26 00
        E 64 b0 0b 55
        E 0 90 1a 55
        E 16 b0 0b 2a
        E 16 80 1a 00
        E 64 b0 0b 55
        E 0 90 1a 55
        E 16 b0 0b 2a
        E 16 80 1a 00
        E 64 b0 0b 55
        E 0 90 26 55
        E 16 b0 0b 2a
        E 16 80 26 00
        E 64 b0 0b 55
        E 0 90 26 55
        E 16 b0 0b 2a
        E 16 80 26 00
        E 64 b0 0b 55
        E 0 90 26 55
        E 16 b0 0b 2a
        E 16 80 26 00
        E 64 b0 0b 55
        E 0 90 1a 55
        E 16 b0 0b 2a
        E 16 80 1a 00
        E 64 b0 0b 55
        E 0 90 26 55
        E 16 b0 0b 2a
        E 16 80 26 00
        E 64 b0 0b 55
        E 0 90 1a 55
        E 16 b0 0b 2a
        E 16 80 1a 00
        E 64 b0 0b 55
        E 0 90 1a 55
        E 16 b0 0b 2a
        E 16 80 1a 00
        E 64 b0 0b 55
        E 0 90 26 55
        E 16 b0 0b 2a
        E 16 80 26 00
        E 64 b0 0b 55
        E 0 90 26 55
        E 16 b0 0b 2a
        E 16 80 26 00
        E 64 b0 0b 55
        E 0 90 1f 55
        E 16 b0 0b 2a
        E 16 80 1f 00
        E 64 b0 0b 55
        E 0 90 26 55
        E 16 b0 0b 2a
        E 16 80 26 00
        E 64 b0 0b 55
        E 0 90 1b 55
        E 16 b0 0b 2a
        E 16 80 1b 00
        E 64 b0 0b 55
        E 0 90 2a 55
        E 16 b0 0b 2a
        E 16 80 2a 00
        E 64 b0 0b 55
        E 0 90 26 55
        E 16 b0 0b 2a
        E 16 80 26 00
        E 64 b0 0b 55
        E 0 90 1a 55
        E 16 b0 0b 2a
        E 16 80 1a 00
        E 64 b0 0b 55
        E 0 90 1a 55
        E 16 b0 0b 2a
        E 16 80 1a 00
        E 64 b0 0b 55
        E 0 90 26 55
        E 16 b0 0b 2a
        E 16 80 26 00
        E 64 b0 0b 55
        E 0 90 26 55
        E 16 b0 0b 2a
        E 16 80 26 00
        E 64 b0 0b 55
        E 0 90 26 55
        E 16 b0 0b 2a
        E 16 80 26 00
        E 64 b0 0b 55
        E 0 90 1a 55
        E 16 b0 0b 2a
        E 16 80 1a 00
        E 64 b0 0b 55
        E 0 90 26 55
        E 16 b0 0b 2a
        E 16 80 26 00
        E 64 b0 0b 55
        E 0 90 1a 55
        E 16 b0 0b 2a
        E 16 80 1a 00
        E 64 b0 0b 55
        E 0 90 1a 55
        E 16 b0 0b 2a
        E 16 80 1a 00
        E 64 b0 0b 55
        E 0 90 26 55
        E 16 b0 0b 2a
        E 16 80 26 00
        E 64 b0 0b 55
        E 0 90 26 55
        E 16 b0 0b 2a
        E 16 80 26 00
        E 64 b0 0b 55
        E 0 90 1f 55
        E 16 b0 0b 2a
        E 16 80 1f 00
        E 64 b0 0b 55
        E 0 90 26 55
        E 16 b0 0b 2a
        E 16 80 26 00
        E 64 b0 0b 55
        E 0 90 1b 55
        E 16 b0 0b 2a
        E 16 80 1b 00
        E 64 b0 0b 55
        E 0 90 2a 55
        E 16 b0 0b 2a
        E 16 80 2a 00
        E 64 b0 0b 55
        E 0 90 26 55
        E 16 b0 0b 2a
        E 16 80 26 00
        E 64 b0 0b 55
        E 0 90 1a 55
        E 16 b0 0b 2a
        E 16 80 1a 00
        E 64 b0 0b 55
        E 0 90 1a 55
        E 16 b0 0b 2a
        E 16 80 1a 00
        E 64 b0 0b 55
        E 0 90 26 55
        E 16 b0 0b 2a
        E 16 80 26 00
        E 64 b0 0b 55
        E 0 90 26 55
        E 16 b0 0b 2a
        E 16 80 26 00
        E 64 b0 0b 55
        E 0 90 26 55
        E 16 b0 0b 2a
        E 16 80 26 00
        E 64 b0 0b 55
        E 0 90 1a 55
        E 16 b0 0b 2a
        E 16 80 1a 00
        E 64 b0 0b 55
        E 0 90 26 55
        E 16 b0 0b 2a
        E 16 80 26 00
        E 64 b0 0b 55
        E 0 90 1a 55
        E 16 b0 0b 2a
        E 16 80 1a 00
        E 64 b0 0b 55
        E 0 90 1a 55
        E 16 b0 0b 2a
        E 16 80 1a 00
        E 64 b0 0b 55
        E 0 90 26 55
        E 16 b0 0b 2a
        E 16 80 26 00
        E 64 b0 0b 55
        E 0 90 26 55
        E 16 b0 0b 2a
        E 16 80 26 00
        E 64 b0 0b 55
        E 0 90 1f 55
        E 16 b0 0b 2a
        E 16 80 1f 00
        E 64 b0 0b 55
        E 0 90 26 55
        E 16 b0 0b 2a
        E 16 80 26 00
        E 64 b0 0b 55
        E 0 90 1b 55
        E 16 b0 0b 2a
        E 16 80 1b 00
        E 64 b0 0b 55
        E 0 90 2a 55
        E 16 b0 0b 2a
        E 16 80 2a 00
        E 64 b0 0b 55
        E 0 90 26 55
        E 16 b0 0b 2a
        E 16 80 26 00
        E 64 b0 0b 55
        E 0 90 1a 55
        E 16 b0 0b 2a
        E 16 80 1a 00
        E 64 b0 0b 55
        E 0 90 1a 55
        E 16 b0 0b 2a
        E 16 80 1a 00
        E 64 b0 0b 55
        E 0 90 26 55
        E 16 b0 0b 2a
        E 16 80 26 00
        E 64 b0 0b 55
        E 0 90 26 55
        E 16 b0 0b 2a
        E 16 80 26 00
        E 64 b0 0b 55
        E 0 90 26 55
        E 16 b0 0b 2a
        E 16 80 26 00
        E 64 b0 0b 55
        E 0 90 1a 55
        E 16 b0 0b 2a
        E 16 80 1a 00
        E 64 b0 0b 55
        E 0 90 26 55
        E 16 b0 0b 2a
        E 16 80 26 00
        E 64 b0 0b 55
        E 0 90 1a 55
        E 16 b0 0b 2a
        E 16 80 1a 00
        E 64 b0 0b 55
        E 0 90 1a 55
        E 16 b0 0b 2a
        E 16 80 1a 00
        E 64 b0 0b 55
        E 0 90 26 55
        E 16 b0 0b 2a
        E 16 80 26 00
        E 64 b0 0b 55
        E 0 90 26 55
        E 16 b0 0b 2a
        E 16 80 26 00
        E 64 b0 0b 55
        E 0 90 1f 55
        E 16 b0 0b 2a
        E 16 80 1f 00
        E 64 b0 0b 55
        E 0 90 26 55
        E 16 b0 0b 2a
        E 16 80 26 00
        E 64 b0 0b 55
        E 0 90 1b 55
        E 16 b0 0b 2a
        E 16 80 1b 00
        E 64 b0 0b 55
        E 0 90 2a 55
        E 16 b0 0b 2a
        E 16 80 2a 00
        E 64 b0 0b 55
        E 0 90 26 55
        E 16 b0 0b 2a
        E 16 80 26 00
        E 64 b0 0b 55
        E 0 90 1a 55
        E 16 b0 0b 2a
        E 16 80 1a 00
        E 64 b0 0b 55
        E 0 90 1a 55
        E 16 b0 0b 2a
        E 16 80 1a 00
        E 64 b0 0b 55
        E 0 90 26 55
        E 16 b0 0b 2a
        E 16 80 26 00
        E 64 b0 0b 55
        E 0 90 26 55
        E 16 b0 0b 2a
        E 16 80 26 00
        E 64 b0 0b 55
        E 0 90 26 55
        E 16 b0 0b 2a
        E 16 80 26 00
        E 64 b0 0b 55
        E 0 90 1a 55
        E 16 b0 0b 2a
        E 16 80 1a 00
        E 64 b0 0b 55
        E 0 90 26 55
        E 16 b0 0b 2a
        E 16 80 26 00
        E 64 b0 0b 55
        E 0 90 1a 55
        E 16 b0 0b 2a
        E 16 80 1a 00
        E 64 b0 0b 55
        E 0 90 1a 55
        E 16 b0 0b 2a
        E 16 80 1a 00
        E 64 b0 0b 55
        E 0 90 26 55
        E 16 b0 0b 2a
        E 16 80 26 00
        E 64 b0 0b 55
        E 0 90 26 55
        E 16 b0 0b 2a
        E 16 80 26 00
        E 64 b0 0b 55
        E 0 90 1f 55
        E 16 b0 0b 2a
        E 16 80 1f 00
        E 64 b0 0b 55
        E 0 90 26 55
        E 16 b0 0b 2a
        E 16 80 26 00
        E 64 b0 0b 55
        E 0 90 1b 55
        E 16 b0 0b 2a
        E 16 80 1b 00
        E 64 b0 0b 55
        E 0 90 34 55
        E 80 b0 0b 4c
        E 80 b0 0b 44
        E 32 b0 0b 55
        E 48 b0 0b 4c
        E 80 b0 0b 44
        E 80 b0 0b 3b
        E 80 b0 0b 33
        E 80 b0 0b 2a
        E 80 b0 0b 22
        E 80 b0 0b 19
        E 48 b0 0b 55
        E 32 b0 0b 4c
        E 80 b0 0b 44
        E 80 b0 0b 55
        E 32 80 34 00
        E 0 b0 7b 00
        E 0 ff 2f 00
      >
    >
  >
  <TRACK {DFBDE2FF-FA05-45C9-925E-8EE26A3691D5}
    NAME "NES - Pulse 2 [ch1]"
    PEAKCOL 10092441
    BEAT -1
    AUTOMODE 0
    PANLAWFLAGS 3
    VOLPAN 1 0 -1 -1 1
    MUTESOLO 0 0 0
    IPHASE 0
    PLAYOFFS 0 1
    ISBUS 0 0
    BUSCOMP 0 0 0 0 0
    SHOWINMIX 1 0.6667 0.5 1 0.5 0 0 0
    FIXEDLANES 9 0 0 0 0
    SEL 0
    REC 0 5088 1 0 0 0 0 0
    VU 2
    TRACKHEIGHT 0 0 0 0 0 0 0
    INQ 0 0 0 0.5 100 0 0 100
    NCHAN 2
    FX 1
    TRACKID {DFBDE2FF-FA05-45C9-925E-8EE26A3691D5}
    PERF 0
    MIDIOUT -1
    MAINSEND 1 0
    <FXCHAIN
      WNDRECT 24 52 700 560
      SHOW 0
      LASTSEL 0
      DOCKED 0
      BYPASS 0 0 0
      <JS "ReapNES Studio/ReapNES_Console.jsfx" ""
        2 15 1 10 80 10 100 2 1 15 1 5 60 10 80 1 1 0 50 0 0 15 1 0 100 0 0 0.500000 0.500000 0.400000 0.300000 0.800000 1 1 0 0 0 0 - - - - - - - - - - - - - - - - - - - - - - - - - -
      >
      FLOATPOS 0 0 0 0
      FXID {3CBBFE74-A794-45EE-A3AF-814F4D5223CA}
      WAK 0 0
    >
    <ITEM
      POSITION 0
      LENGTH 9.269051600000001
      LOOP 0
      ALLTAKES 0
      FADEIN 0 0 0 0 0 0 0
      FADEOUT 0 0 0 0 0 0 0
      MUTE 0 0
      SEL 0
      IGUID {646A3FE9-C807-4BCE-A253-54BDD33FBBC2}
      <SOURCE MIDI
        HASDATA 1 480 QN
        CCINTERP 32
        E 0 c1 51
        E 480 b1 0c 40
        E 0 b1 0b 5d
        E 0 91 21 5d
        E 80 b1 0b 55
        E 112 b1 0b 5d
        E 0 81 21 00
        E 0 91 1a 5d
        E 112 b1 0b 55
        E 80 b1 0c 10
        E 0 b1 0b 5d
        E 0 81 1a 00
        E 0 91 1c 5d
        E 32 b1 0b 55
        E 112 b1 0b 4c
        E 112 b1 0b 44
        E 112 b1 0b 3b
        E 112 b1 0b 33
        E 112 b1 0b 2a
        E 112 b1 0b 22
        E 112 b1 0b 19
        E 112 b1 0b 11
        E 112 b1 0b 08
        E 112 b1 0b 5d
        E 0 81 1c 00
        E 0 91 1d 5d
        E 112 b1 0b 55
        E 80 b1 0b 5d
        E 0 81 1d 00
        E 0 91 1a 5d
        E 32 b1 0b 55
        E 112 b1 0b 4c
        E 48 b1 0b 5d
        E 0 81 1a 00
        E 0 91 1c 5d
        E 64 b1 0b 55
        E 112 b1 0b 4c
        E 112 b1 0b 44
        E 112 b1 0b 3b
        E 112 b1 0b 33
        E 112 b1 0b 2a
        E 112 b1 0b 22
        E 112 b1 0b 19
        E 112 b1 0b 11
        E 112 b1 0b 08
        E 80 b1 0b 5d
        E 0 81 1c 00
        E 0 91 1d 5d
        E 32 b1 0b 55
        E 112 b1 0b 4c
        E 48 b1 0b 5d
        E 0 81 1d 00
        E 0 91 1a 5d
        E 64 b1 0b 55
        E 112 b1 0b 4c
        E 16 b1 0c 20
        E 0 b1 0b 5d
        E 0 81 1a 00
        E 0 91 34 5d
        E 96 b1 0b 55
        E 112 b1 0b 4c
        E 112 b1 0b 44
        E 64 b1 0b 5d
        E 0 81 34 00
        E 0 91 35 5d
        E 48 b1 0b 55
        E 112 b1 0b 4c
        E 112 b1 0b 44
        E 112 b1 0b 5d
        E 0 81 35 00
        E 0 91 34 5d
        E 112 b1 0b 55
        E 112 b1 0b 4c
        E 112 b1 0b 44
        E 48 b1 0b 5d
        E 0 81 34 00
        E 0 91 35 5d
        E 64 b1 0b 55
        E 112 b1 0b 4c
        E 112 b1 0b 44
        E 96 b1 0b 5d
        E 0 81 35 00
        E 0 91 32 5d
        E 16 b1 0b 55
        E 112 b1 0b 4c
        E 112 b1 0b 44
        E 112 b1 0b 3b
        E 32 b1 0b 5d
        E 0 81 32 00
        E 0 91 34 5d
        E 80 b1 0b 55
        E 112 b1 0b 4c
        E 112 b1 0b 44
        E 80 b1 0b 5d
        E 0 81 34 00
        E 0 91 30 5d
        E 32 b1 0b 55
        E 112 b1 0b 4c
        E 112 b1 0b 44
        E 112 b1 0b 3b
        E 112 b1 0b 33
        E 112 b1 0b 2a
        E 112 b1 0b 22
        E 64 b1 0b 7f
        E 0 81 30 00
        E 0 91 1b 7f
        E 48 b1 0b 77
        E 112 b1 0b 6e
        E 112 b1 0b 66
        E 112 b1 0b 5d
        E 112 b1 0b 55
        E 112 b1 0b 4c
        E 112 b1 0b 44
        E 112 b1 0b 3b
        E 112 b1 0b 33
        E 112 b1 0b 2a
        E 112 b1 0b 22
        E 112 b1 0b 19
        E 112 b1 0b 11
        E 112 b1 0b 08
        E 32 b1 0b 5d
        E 0 81 1b 00
        E 0 91 26 5d
        E 80 b1 0b 55
        E 112 b1 0b 5d
        E 0 81 26 00
        E 0 91 29 5d
        E 112 b1 0b 55
        E 112 b1 0b 4c
        E 112 b1 0b 44
        E 112 b1 0b 3b
        E 112 b1 0b 33
        E 16 b1 0b 5d
        E 0 81 29 00
        E 0 91 28 5d
        E 96 b1 0b 55
        E 96 b1 0b 5d
        E 0 81 28 00
        E 0 91 29 5d
        E 16 b1 0b 55
        E 16 81 29 00
        E 0 b1 7b 00
        E 0 ff 2f 00
      >
    >
  >
  <TRACK {CE85E57F-8E25-4535-B205-9E1E04041894}
    NAME "NES - Triangle [ch2]"
    PEAKCOL 16744192
    BEAT -1
    AUTOMODE 0
    PANLAWFLAGS 3
    VOLPAN 1 0 -1 -1 1
    MUTESOLO 0 0 0
    IPHASE 0
    PLAYOFFS 0 1
    ISBUS 0 0
    BUSCOMP 0 0 0 0 0
    SHOWINMIX 1 0.6667 0.5 1 0.5 0 0 0
    FIXEDLANES 9 0 0 0 0
    SEL 0
    REC 0 5088 1 0 0 0 0 0
    VU 2
    TRACKHEIGHT 0 0 0 0 0 0 0
    INQ 0 0 0 0.5 100 0 0 100
    NCHAN 2
    FX 1
    TRACKID {CE85E57F-8E25-4535-B205-9E1E04041894}
    PERF 0
    MIDIOUT -1
    MAINSEND 1 0
    <FXCHAIN
      WNDRECT 24 52 700 560
      SHOW 0
      LASTSEL 0
      DOCKED 0
      BYPASS 0 0 0
      <JS "ReapNES Studio/ReapNES_Console.jsfx" ""
        2 15 1 10 80 10 100 2 1 15 1 5 60 10 80 1 1 0 50 0 0 15 1 0 100 0 0 0.500000 0.500000 0.400000 0.300000 0.800000 2 1 0 0 0 0 - - - - - - - - - - - - - - - - - - - - - - - - - -
      >
      FLOATPOS 0 0 0 0
      FXID {4F578B7B-028C-4292-99B1-CD41005A5F87}
      WAK 0 0
    >
    <ITEM
      POSITION 0
      LENGTH 9.269051600000001
      LOOP 0
      ALLTAKES 0
      FADEIN 0 0 0 0 0 0 0
      FADEOUT 0 0 0 0 0 0 0
      MUTE 0 0
      SEL 0
      IGUID {6984F00A-0308-491C-8508-21669C65CEB3}
      <SOURCE MIDI
        HASDATA 1 480 QN
        CCINTERP 32
        E 0 c2 26
        E 480 b2 0b 7f
        E 0 92 2d 7f
        E 144 82 2d 00
        E 48 b2 0b 7f
        E 0 92 29 7f
        E 144 82 29 00
        E 48 b2 0b 7f
        E 0 92 28 7f
        E 1104 82 28 00
        E 48 b2 0b 7f
        E 0 92 26 7f
        E 144 82 26 00
        E 48 b2 0b 7f
        E 0 92 29 7f
        E 144 82 29 00
        E 48 b2 0b 7f
        E 0 92 28 7f
        E 1104 82 28 00
        E 48 b2 0b 7f
        E 0 92 26 7f
        E 144 82 26 00
        E 48 b2 0b 7f
        E 0 92 29 7f
        E 144 82 29 00
        E 48 b2 0b 7f
        E 0 92 28 7f
        E 336 82 28 00
        E 48 b2 0b 7f
        E 0 92 29 7f
        E 336 82 29 00
        E 48 b2 0b 7f
        E 0 92 28 7f
        E 336 82 28 00
        E 48 b2 0b 7f
        E 0 92 29 7f
        E 336 82 29 00
        E 48 b2 0b 7f
        E 0 92 26 7f
        E 336 82 26 00
        E 48 b2 0b 7f
        E 0 92 28 7f
        E 336 82 28 00
        E 48 b2 0b 7f
        E 0 92 24 7f
        E 720 82 24 00
        E 48 b2 0b 7f
        E 0 92 26 7f
        E 1488 82 26 00
        E 48 b2 0b 7f
        E 0 92 39 7f
        E 16 82 39 00
        E 80 b2 0b 7f
        E 0 92 23 7f
        E 16 82 23 00
        E 80 b2 0b 7f
        E 0 92 1d 7f
        E 16 82 1d 00
        E 80 b2 0b 7f
        E 0 92 1a 7f
        E 16 82 1a 00
        E 80 b2 0b 7f
        E 0 92 21 7f
        E 16 82 21 00
        E 80 b2 0b 7f
        E 0 92 26 7f
        E 16 82 26 00
        E 80 b2 0b 7f
        E 0 92 26 7f
        E 16 82 26 00
        E 80 b2 0b 7f
        E 0 92 1d 7f
        E 16 82 1d 00
        E 80 b2 0b 7f
        E 0 92 21 7f
        E 16 82 21 00
        E 80 b2 0b 7f
        E 0 92 1d 7f
        E 16 82 1d 00
        E 80 b2 0b 7f
        E 0 92 1a 7f
        E 16 82 1a 00
        E 16 b2 7b 00
        E 0 ff 2f 00
      >
    >
  >
  <TRACK {14E130BC-539A-469E-9C55-DBD7348F6310}
    NAME "NES - Noise / Drums [ch3]"
    PEAKCOL 11184810
    BEAT -1
    AUTOMODE 0
    PANLAWFLAGS 3
    VOLPAN 1 0 -1 -1 1
    MUTESOLO 0 0 0
    IPHASE 0
    PLAYOFFS 0 1
    ISBUS 0 0
    BUSCOMP 0 0 0 0 0
    SHOWINMIX 1 0.6667 0.5 1 0.5 0 0 0
    FIXEDLANES 9 0 0 0 0
    SEL 0
    REC 0 5088 1 0 0 0 0 0
    VU 2
    TRACKHEIGHT 0 0 0 0 0 0 0
    INQ 0 0 0 0.5 100 0 0 100
    NCHAN 2
    FX 1
    TRACKID {14E130BC-539A-469E-9C55-DBD7348F6310}
    PERF 0
    MIDIOUT -1
    MAINSEND 1 0
    <FXCHAIN
      WNDRECT 24 52 700 560
      SHOW 0
      LASTSEL 0
      DOCKED 0
      BYPASS 0 0 0
      <JS "ReapNES Studio/ReapNES_Console.jsfx" ""
        2 15 1 10 80 10 100 2 1 15 1 5 60 10 80 1 1 0 50 0 0 15 1 0 100 0 0 0.500000 0.500000 0.400000 0.300000 0.800000 3 1 0 0 0 0 - - - - - - - - - - - - - - - - - - - - - - - - - -
      >
      FLOATPOS 0 0 0 0
      FXID {A3FCDC62-0B8D-4197-A2A8-08287DF7FE8E}
      WAK 0 0
    >
    <ITEM
      POSITION 0
      LENGTH 9.269051600000001
      LOOP 0
      ALLTAKES 0
      FADEIN 0 0 0 0 0 0 0
      FADEOUT 0 0 0 0 0 0 0
      MUTE 0 0
      SEL 0
      IGUID {236C689A-841E-45CE-AB06-9F7D668B980D}
      <SOURCE MIDI
        HASDATA 1 480 QN
        CCINTERP 32
        E 0 93 2a 22
        E 96 83 2a 00
        E 0 93 2a 22
        E 96 83 2a 00
        E 0 93 2a 22
        E 192 83 2a 00
        E 0 93 2a 22
        E 96 83 2a 00
        E 0 93 2a 22
        E 96 83 2a 00
        E 0 93 2a 22
        E 96 83 2a 00
        E 0 93 2a 22
        E 96 83 2a 00
        E 0 93 2a 22
        E 96 83 2a 00
        E 0 93 2a 55
        E 192 83 2a 00
        E 0 93 2a 55
        E 192 83 2a 00
        E 0 93 2a 55
        E 288 83 2a 00
        E 0 93 2a 55
        E 96 83 2a 00
        E 0 93 2a 55
        E 96 83 2a 00
        E 0 93 2a 55
        E 192 83 2a 00
        E 0 93 2a 55
        E 96 83 2a 00
        E 0 93 2a 55
        E 96 83 2a 00
        E 0 93 2a 55
        E 96 83 2a 00
        E 0 93 2a 55
        E 96 83 2a 00
        E 0 93 2a 55
        E 96 83 2a 00
        E 0 93 2a 7f
        E 64 83 2a 00
        E 0 93 2a 7f
        E 64 83 2a 00
        E 0 93 2a 7f
        E 64 83 2a 00
        E 0 93 2a 7f
        E 64 83 2a 00
        E 0 93 2a 7f
        E 64 83 2a 00
        E 0 93 2a 7f
        E 64 83 2a 00
        E 0 93 2a 7f
        E 64 83 2a 00
        E 0 93 2a 7f
        E 64 83 2a 00
        E 0 93 2a 7f
        E 64 83 2a 00
        E 0 93 2a 7f
        E 64 83 2a 00
        E 0 93 2a 7f
        E 64 83 2a 00
        E 0 93 2a 7f
        E 64 83 2a 00
        E 0 93 2a 7f
        E 64 83 2a 00
        E 0 93 2a 7f
        E 64 83 2a 00
        E 0 93 2a 7f
        E 544 83 2a 00
        E 96 93 2a 22
        E 192 83 2a 00
        E 0 93 2a 22
        E 192 83 2a 00
        E 0 93 2a 22
        E 288 83 2a 00
        E 0 93 2a 22
        E 96 83 2a 00
        E 0 93 2a 22
        E 96 83 2a 00
        E 0 93 2a 22
        E 192 83 2a 00
        E 0 93 2a 22
        E 96 83 2a 00
        E 0 93 2a 22
        E 96 83 2a 00
        E 0 93 2a 22
        E 96 83 2a 00
        E 0 93 2a 22
        E 96 83 2a 00
        E 0 93 2a 22
        E 96 83 2a 00
        E 0 93 2a 55
        E 192 83 2a 00
        E 0 93 2a 55
        E 192 83 2a 00
        E 0 93 2a 55
        E 288 83 2a 00
        E 0 93 2a 55
        E 96 83 2a 00
        E 0 93 2a 55
        E 96 83 2a 00
        E 0 93 2a 55
        E 192 83 2a 00
        E 0 93 2a 55
        E 96 83 2a 00
        E 0 93 2a 55
        E 96 83 2a 00
        E 0 93 2a 55
        E 96 83 2a 00
        E 0 93 2a 55
        E 96 83 2a 00
        E 0 93 2a 55
        E 96 83 2a 00
        E 0 93 2a 7f
        E 64 83 2a 00
        E 0 93 2a 7f
        E 64 83 2a 00
        E 0 93 2a 7f
        E 64 83 2a 00
        E 0 93 2a 7f
        E 64 83 2a 00
        E 0 93 2a 7f
        E 64 83 2a 00
        E 0 93 2a 7f
        E 64 83 2a 00
        E 0 93 2a 7f
        E 64 83 2a 00
        E 0 93 2a 7f
        E 64 83 2a 00
        E 0 93 2a 7f
        E 64 83 2a 00
        E 0 93 2a 7f
        E 64 83 2a 00
        E 0 93 2a 7f
        E 64 83 2a 00
        E 0 93 2a 7f
        E 64 83 2a 00
        E 0 93 2a 7f
        E 64 83 2a 00
        E 0 93 2a 7f
        E 64 83 2a 00
        E 0 93 2a 7f
        E 544 83 2a 00
        E 96 93 2a 22
        E 192 83 2a 00
        E 0 93 2a 22
        E 192 83 2a 00
        E 0 93 2a 22
        E 288 83 2a 00
        E 0 93 2a 22
        E 96 83 2a 00
        E 0 93 2a 22
        E 96 83 2a 00
        E 0 93 2a 22
        E 128 83 2a 00
        E 0 b3 7b 00
        E 0 ff 2f 00
      >
    >
  >
>