<REAPER_PROJECT 0.1 "7.27/win64" 1707000000
  <NOTES 0 2
    |ReapNES Studio Project
    |MIDI Import - Cool_World_title_rom_v1
  >
  RIPPLE 0
  GROUPOVERRIDE 0 0 0
  AUTOXFADE 129
  ENVATTACH 3
  POOLEDENVATTACH 0
  MIXERUIFLAGS 11 48
  ENVFADESZ10 40
  PEAKGAIN 1
  FEEDBACK 0
  PANLAW 1
  PROJOFFS 0 0 0
  MAXPROJLEN 0 0
  GRID 3199 8 1 8 1 0 0 0
  TIMEMODE 1 5 -1 30 0 0 -1
  VIDEO_CONFIG 0 0 65792
  PANMODE 3
  PANLAWFLAGS 3
  CURSOR 0
  ZOOM 100 0 0
  VZOOMEX 6 0
  USE_REC_CFG 0
  RECMODE 1
  SMPTESYNC 0 30 100 40 1000 300 0 0 1 0 0
  LOOP 0
  LOOPGRAN 0 4
  RECORD_PATH "Media" ""
  <RECORD_CFG
    ZXZhdxgAAQ==
  >
  <APPLYFX_CFG
  >
  RENDER_FILE ""
  RENDER_PATTERN ""
  RENDER_FMT 0 2 0
  RENDER_1X 0
  RENDER_RANGE 1 0 0 18 1000
  RENDER_RESAMPLE 3 0 1
  RENDER_ADDTOPROJ 0
  RENDER_STEMS 0
  RENDER_DITHER 0
  TIMELOCKMODE 1
  TEMPOENVLOCKMODE 1
  ITEMMIX 1
  DEFPITCHMODE 589824 0
  TAKELANE 1
  SAMPLERATE 44100 0 0
  <RENDER_CFG
    ZXZhdxgAAQ==
  >
  LOCK 1
  <METRONOME 6 2
    VOL 0.25 0.125
    BEATLEN 4
    FREQ 1760 880 1
    SAMPLES "" ""
    SPLIGNORE 0 0
    SPLDEF 2 660 "" 0
    SPLDEF 3 440 "" 0
    PATTERN 0 169
    PATTERNSTR ABBB
    MULT 1
  >
  GLOBAL_AUTO -1
  TEMPO 128.59999614200012 4 4
  PLAYRATE 1 0 0.25 4
  SELECTION 0 0
  SELECTION2 0 0
  MASTERAUTOMODE 0
  MASTERTRACKHEIGHT 0 0
  MASTERPEAKCOL 16576
  MASTERMUTESOLO 0
  MASTERTRACKVIEW 0 0.6667 0.5 0.5 0 0 0 0 0 0 0 0 0 0
  MASTERHWOUT 0 0 1 0 0 0 0 -1
  MASTER_NCH 2 2
  MASTER_VOLUME 1 0 -1 -1 1
  MASTER_PANMODE 3
  MASTER_PANLAWFLAGS 3
  MASTER_FX 1
  MASTER_SEL 0
  <MASTERPLAYSPEEDENV
    EGUID {52769278-C719-4B29-AF4A-40ED09DEA4B2}
    ACT 0 -1
    VIS 0 1 1
    LANEHEIGHT 0 0
    ARM 0
    DEFSHAPE 0 -1 -1
  >
  <TEMPOENVEX
    EGUID {EA7F9CD4-8018-4EC2-BD93-5F7A53647713}
    ACT 1 -1
    VIS 1 0 1
    LANEHEIGHT 0 0
    ARM 0
    DEFSHAPE 1 -1 -1
  >
  <PROJBAY
  >
  <TRACK {05DC7146-432D-4FC3-BE40-05517A7A1151}
    NAME "NES - Pulse 1"
    PEAKCOL 16576606
    BEAT -1
    AUTOMODE 0
    PANLAWFLAGS 3
    VOLPAN 1 0 -1 -1 1
    MUTESOLO 0 0 0
    IPHASE 0
    PLAYOFFS 0 1
    ISBUS 0 0
    BUSCOMP 0 0 0 0 0
    SHOWINMIX 1 0.6667 0.5 1 0.5 0 0 0
    FIXEDLANES 9 0 0 0 0
    SEL 1
    REC 1 5088 1 0 0 0 0 0
    VU 2
    TRACKHEIGHT 0 0 0 0 0 0 0
    INQ 0 0 0 0.5 100 0 0 100
    NCHAN 2
    FX 1
    TRACKID {05DC7146-432D-4FC3-BE40-05517A7A1151}
    PERF 0
    MIDIOUT -1
    MAINSEND 1 0
    <FXCHAIN
      WNDRECT 24 52 700 560
      SHOW 0
      LASTSEL 0
      DOCKED 0
      BYPASS 0 0 0
      <JS "ReapNES Studio/ReapNES_Console.jsfx" ""
        2 15 1 10 80 10 100 2 1 15 1 5 60 10 80 1 1 0 50 0 0 15 1 0 100 0 0 0.500000 0.500000 0.400000 0.300000 0.800000 0 1 0 0 0 0 - - - - - - - - - - - - - - - - - - - - - - - - - -
      >
      FLOATPOS 0 0 0 0
      FXID {A725F1A5-A9E5-4B78-9FA1-D624BF2B3B9D}
      WAK 0 0
    >
  >
  <TRACK {5B05E04B-2330-40E9-ADD5-5A21288BA67C}
    NAME "NES - Pulse 2 [ch1]"
    PEAKCOL 10092441
    BEAT -1
    AUTOMODE 0
    PANLAWFLAGS 3
    VOLPAN 1 0 -1 -1 1
    MUTESOLO 0 0 0
    IPHASE 0
    PLAYOFFS 0 1
    ISBUS 0 0
    BUSCOMP 0 0 0 0 0
    SHOWINMIX 1 0.6667 0.5 1 0.5 0 0 0
    FIXEDLANES 9 0 0 0 0
    SEL 0
    REC 0 5088 1 0 0 0 0 0
    VU 2
    TRACKHEIGHT 0 0 0 0 0 0 0
    INQ 0 0 0 0.5 100 0 0 100
    NCHAN 2
    FX 1
    TRACKID {5B05E04B-2330-40E9-ADD5-5A21288BA67C}
    PERF 0
    MIDIOUT -1
    MAINSEND 1 0
    <FXCHAIN
      WNDRECT 24 52 700 560
      SHOW 0
      LASTSEL 0
      DOCKED 0
      BYPASS 0 0 0
      <JS "ReapNES Studio/ReapNES_Console.jsfx" ""
        2 15 1 10 80 10 100 2 1 15 1 5 60 10 80 1 1 0 50 0 0 15 1 0 100 0 0 0.500000 0.500000 0.400000 0.300000 0.800000 1 1 0 0 0 0 - - - - - - - - - - - - - - - - - - - - - - - - - -
      >
      FLOATPOS 0 0 0 0
      FXID {1B8E76B8-D89A-4406-BD1D-3D9423B377D4}
      WAK 0 0
    >
    <ITEM
      POSITION 0
      LENGTH 4.167962800000001
      LOOP 0
      ALLTAKES 0
      FADEIN 0 0 0 0 0 0 0
      FADEOUT 0 0 0 0 0 0 0
      MUTE 0 0
      SEL 0
      IGUID {8987B45C-0130-4FBC-950A-06559FFC1AF6}
      <SOURCE MIDI
        HASDATA 1 480 QN
        CCINTERP 32
        E 0 c1 51
        E 0 b1 0c 20
        E 0 b1 0b 55
        E 0 91 3b 55
        E 16 b1 0b 4c
        E 0 81 3b 00
        E 0 91 47 4c
        E 16 b1 0b 44
        E 0 81 47 00
        E 0 91 3b 44
        E 16 b1 0b 3b
        E 0 81 3b 00
        E 0 91 47 3b
        E 16 b1 0b 33
        E 0 81 47 00
        E 0 91 3b 33
        E 16 b1 0b 2a
        E 0 81 3b 00
        E 0 91 47 2a
        E 16 b1 0b 22
        E 0 81 47 00
        E 0 91 3b 22
        E 16 b1 0b 19
        E 0 81 3b 00
        E 0 91 47 19
        E 16 b1 0b 11
        E 0 81 47 00
        E 0 91 3b 11
        E 16 b1 0b 08
        E 0 81 3b 00
        E 0 91 47 08
        E 16 b1 0b 55
        E 0 81 47 00
        E 0 91 36 55
        E 16 b1 0b 4c
        E 0 81 36 00
        E 0 91 42 4c
        E 16 b1 0b 44
        E 0 81 42 00
        E 0 91 36 44
        E 16 b1 0b 3b
        E 0 81 36 00
        E 0 91 42 3b
        E 16 b1 0b 33
        E 0 81 42 00
        E 0 91 36 33
        E 16 b1 0b 2a
        E 0 81 36 00
        E 0 91 42 2a
        E 16 b1 0b 22
        E 0 81 42 00
        E 0 91 36 22
        E 16 b1 0b 19
        E 0 81 36 00
        E 0 91 42 19
        E 16 b1 0b 11
        E 0 81 42 00
        E 0 91 36 11
        E 16 b1 0b 08
        E 0 81 36 00
        E 0 91 42 08
        E 16 b1 0b 55
        E 0 81 42 00
        E 0 91 2f 55
        E 16 b1 0b 4c
        E 0 81 2f 00
        E 0 91 3b 4c
        E 16 b1 0b 44
        E 0 81 3b 00
        E 0 91 2f 44
        E 16 b1 0b 3b
        E 0 81 2f 00
        E 0 91 3b 3b
        E 16 b1 0b 33
        E 0 81 3b 00
        E 0 91 2f 33
        E 16 b1 0b 2a
        E 0 81 2f 00
        E 0 91 3b 2a
        E 16 b1 0b 22
        E 0 81 3b 00
        E 0 91 2f 22
        E 16 b1 0b 19
        E 0 81 2f 00
        E 0 91 3b 19
        E 16 b1 0b 11
        E 0 81 3b 00
        E 0 91 2f 11
        E 16 b1 0b 08
        E 0 81 2f 00
        E 0 91 3b 08
        E 16 b1 0b 55
        E 16 b1 0b 4c
        E 0 81 3b 00
        E 0 91 47 4c
        E 16 b1 0b 44
        E 0 81 47 00
        E 0 91 3b 44
        E 16 b1 0b 3b
        E 0 81 3b 00
        E 0 91 47 3b
        E 16 b1 0b 33
        E 0 81 47 00
        E 0 91 3b 33
        E 16 b1 0b 2a
        E 0 81 3b 00
        E 0 91 47 2a
        E 16 b1 0b 22
        E 0 81 47 00
        E 0 91 3b 22
        E 16 b1 0b 19
        E 0 81 3b 00
        E 0 91 47 19
        E 16 b1 0b 11
        E 0 81 47 00
        E 0 91 3b 11
        E 16 b1 0b 08
        E 0 81 3b 00
        E 0 91 47 08
        E 16 b1 0b 55
        E 0 81 47 00
        E 0 91 36 55
        E 16 b1 0b 4c
        E 0 81 36 00
        E 0 91 42 4c
        E 16 b1 0b 44
        E 0 81 42 00
        E 0 91 36 44
        E 16 b1 0b 3b
        E 0 81 36 00
        E 0 91 42 3b
        E 16 b1 0b 33
        E 0 81 42 00
        E 0 91 36 33
        E 16 b1 0b 2a
        E 0 81 36 00
        E 0 91 42 2a
        E 16 b1 0b 22
        E 0 81 42 00
        E 0 91 36 22
        E 16 b1 0b 19
        E 0 81 36 00
        E 0 91 42 19
        E 16 b1 0b 11
        E 0 81 42 00
        E 0 91 36 11
        E 16 b1 0b 08
        E 0 81 36 00
        E 0 91 42 08
        E 16 b1 0b 55
        E 0 81 42 00
        E 0 91 2f 55
        E 16 b1 0b 4c
        E 0 81 2f 00
        E 0 91 3b 4c
        E 16 b1 0b 44
        E 0 81 3b 00
        E 0 91 2f 44
        E 16 b1 0b 3b
        E 0 81 2f 00
        E 0 91 3b 3b
        E 16 b1 0b 33
        E 0 81 3b 00
        E 0 91 2f 33
        E 16 b1 0b 2a
        E 0 81 2f 00
        E 0 91 3b 2a
        E 16 b1 0b 22
        E 0 81 3b 00
        E 0 91 2f 22
        E 16 b1 0b 19
        E 0 81 2f 00
        E 0 91 3b 19
        E 16 b1 0b 11
        E 0 81 3b 00
        E 0 91 2f 11
        E 16 b1 0b 08
        E 0 81 2f 00
        E 0 91 3b 08
        E 16 b1 0b 55
        E 16 b1 0b 4c
        E 0 81 3b 00
        E 0 91 47 4c
        E 16 b1 0b 44
        E 0 81 47 00
        E 0 91 3b 44
        E 16 b1 0b 3b
        E 0 81 3b 00
        E 0 91 47 3b
        E 16 b1 0b 33
        E 0 81 47 00
        E 0 91 3b 33
        E 16 b1 0b 2a
        E 0 81 3b 00
        E 0 91 47 2a
        E 16 b1 0b 22
        E 0 81 47 00
        E 0 91 3b 22
        E 16 b1 0b 19
        E 0 81 3b 00
        E 0 91 47 19
        E 16 b1 0b 11
        E 0 81 47 00
        E 0 91 3b 11
        E 16 b1 0b 08
        E 0 81 3b 00
        E 0 91 47 08
        E 16 b1 0b 55
        E 0 81 47 00
        E 0 91 36 55
        E 16 b1 0b 4c
        E 0 81 36 00
        E 0 91 42 4c
        E 16 b1 0b 44
        E 0 81 42 00
        E 0 91 36 44
        E 16 b1 0b 3b
        E 0 81 36 00
        E 0 91 42 3b
        E 16 b1 0b 33
        E 0 81 42 00
        E 0 91 36 33
        E 16 b1 0b 2a
        E 0 81 36 00
        E 0 91 42 2a
        E 16 b1 0b 22
        E 0 81 42 00
        E 0 91 36 22
        E 16 b1 0b 19
        E 0 81 36 00
        E 0 91 42 19
        E 16 b1 0b 11
        E 0 81 42 00
        E 0 91 36 11
        E 16 b1 0b 08
        E 0 81 36 00
        E 0 91 42 08
        E 16 b1 0b 55
        E 0 81 42 00
        E 0 91 2f 55
        E 16 b1 0b 4c
        E 0 81 2f 00
        E 0 91 3b 4c
        E 16 b1 0b 44
        E 0 81 3b 00
        E 0 91 2f 44
        E 16 b1 0b 3b
        E 0 81 2f 00
        E 0 91 3b 3b
        E 16 b1 0b 33
        E 0 81 3b 00
        E 0 91 2f 33
        E 16 b1 0b 2a
        E 0 81 2f 00
        E 0 91 3b 2a
        E 16 b1 0b 22
        E 0 81 3b 00
        E 0 91 2f 22
        E 16 b1 0b 19
        E 0 81 2f 00
        E 0 91 3b 19
        E 16 b1 0b 11
        E 0 81 3b 00
        E 0 91 2f 11
        E 16 b1 0b 08
        E 0 81 2f 00
        E 0 91 3b 08
        E 16 b1 0b 55
        E 16 b1 0b 4c
        E 0 81 3b 00
        E 0 91 47 4c
        E 16 b1 0b 44
        E 0 81 47 00
        E 0 91 3b 44
        E 16 b1 0b 3b
        E 0 81 3b 00
        E 0 91 47 3b
        E 16 b1 0b 33
        E 0 81 47 00
        E 0 91 3b 33
        E 16 b1 0b 2a
        E 0 81 3b 00
        E 0 91 47 2a
        E 16 b1 0b 22
        E 0 81 47 00
        E 0 91 3b 22
        E 16 b1 0b 19
        E 0 81 3b 00
        E 0 91 47 19
        E 16 b1 0b 11
        E 0 81 47 00
        E 0 91 3b 11
        E 16 b1 0b 08
        E 0 81 3b 00
        E 0 91 47 08
        E 16 b1 0b 55
        E 0 81 47 00
        E 0 91 36 55
        E 16 b1 0b 4c
        E 0 81 36 00
        E 0 91 42 4c
        E 16 b1 0b 44
        E 0 81 42 00
        E 0 91 36 44
        E 16 b1 0b 3b
        E 0 81 36 00
        E 0 91 42 3b
        E 16 b1 0b 33
        E 0 81 42 00
        E 0 91 36 33
        E 16 b1 0b 2a
        E 0 81 36 00
        E 0 91 42 2a
        E 16 b1 0b 22
        E 0 81 42 00
        E 0 91 36 22
        E 16 b1 0b 19
        E 0 81 36 00
        E 0 91 42 19
        E 16 b1 0b 11
        E 0 81 42 00
        E 0 91 36 11
        E 16 b1 0b 08
        E 0 81 36 00
        E 0 91 42 08
        E 16 b1 0b 55
        E 0 81 42 00
        E 0 91 2f 55
        E 16 b1 0b 4c
        E 0 81 2f 00
        E 0 91 3b 4c
        E 16 b1 0b 44
        E 0 81 3b 00
        E 0 91 2f 44
        E 16 b1 0b 3b
        E 0 81 2f 00
        E 0 91 3b 3b
        E 16 b1 0b 33
        E 0 81 3b 00
        E 0 91 2f 33
        E 16 b1 0b 2a
        E 0 81 2f 00
        E 0 91 3b 2a
        E 16 b1 0b 22
        E 0 81 3b 00
        E 0 91 2f 22
        E 16 b1 0b 19
        E 0 81 2f 00
        E 0 91 3b 19
        E 16 b1 0b 11
        E 0 81 3b 00
        E 0 91 2f 11
        E 16 b1 0b 08
        E 0 81 2f 00
        E 0 91 3b 08
        E 16 b1 0b 55
        E 16 b1 0b 4c
        E 0 81 3b 00
        E 0 91 47 4c
        E 16 b1 0b 44
        E 0 81 47 00
        E 0 91 3b 44
        E 16 b1 0b 3b
        E 0 81 3b 00
        E 0 91 47 3b
        E 16 b1 0b 33
        E 0 81 47 00
        E 0 91 3b 33
        E 16 b1 0b 2a
        E 0 81 3b 00
        E 0 91 47 2a
        E 16 b1 0b 22
        E 0 81 47 00
        E 0 91 3b 22
        E 16 b1 0b 19
        E 0 81 3b 00
        E 0 91 47 19
        E 16 b1 0b 11
        E 0 81 47 00
        E 0 91 3b 11
        E 16 b1 0b 08
        E 0 81 3b 00
        E 0 91 47 08
        E 16 b1 0b 55
        E 0 81 47 00
        E 0 91 36 55
        E 16 b1 0b 4c
        E 0 81 36 00
        E 0 91 42 4c
        E 16 b1 0b 44
        E 0 81 42 00
        E 0 91 36 44
        E 16 b1 0b 3b
        E 0 81 36 00
        E 0 91 42 3b
        E 16 b1 0b 33
        E 0 81 42 00
        E 0 91 36 33
        E 16 b1 0b 2a
        E 0 81 36 00
        E 0 91 42 2a
        E 16 b1 0b 22
        E 0 81 42 00
        E 0 91 36 22
        E 16 b1 0b 19
        E 0 81 36 00
        E 0 91 42 19
        E 16 b1 0b 11
        E 0 81 42 00
        E 0 91 36 11
        E 16 b1 0b 08
        E 0 81 36 00
        E 0 91 42 08
        E 16 b1 0b 55
        E 0 81 42 00
        E 0 91 2f 55
        E 16 b1 0b 4c
        E 0 81 2f 00
        E 0 91 3b 4c
        E 16 b1 0b 44
        E 0 81 3b 00
        E 0 91 2f 44
        E 16 b1 0b 3b
        E 0 81 2f 00
        E 0 91 3b 3b
        E 16 b1 0b 33
        E 0 81 3b 00
        E 0 91 2f 33
        E 16 b1 0b 2a
        E 0 81 2f 00
        E 0 91 3b 2a
        E 16 b1 0b 22
        E 0 81 3b 00
        E 0 91 2f 22
        E 16 b1 0b 19
        E 0 81 2f 00
        E 0 91 3b 19
        E 16 b1 0b 11
        E 0 81 3b 00
        E 0 91 2f 11
        E 16 b1 0b 08
        E 0 81 2f 00
        E 0 91 3b 08
        E 16 b1 0b 55
        E 16 b1 0b 4c
        E 0 81 3b 00
        E 0 91 47 4c
        E 16 b1 0b 44
        E 0 81 47 00
        E 0 91 3b 44
        E 16 b1 0b 3b
        E 0 81 3b 00
        E 0 91 47 3b
        E 16 b1 0b 33
        E 0 81 47 00
        E 0 91 3b 33
        E 16 b1 0b 2a
        E 0 81 3b 00
        E 0 91 47 2a
        E 16 b1 0b 22
        E 0 81 47 00
        E 0 91 3b 22
        E 16 b1 0b 19
        E 0 81 3b 00
        E 0 91 47 19
        E 16 b1 0b 11
        E 0 81 47 00
        E 0 91 3b 11
        E 16 b1 0b 08
        E 0 81 3b 00
        E 0 91 47 08
        E 16 b1 0b 55
        E 0 81 47 00
        E 0 91 39 55
        E 16 b1 0b 4c
        E 0 81 39 00
        E 0 91 45 4c
        E 16 b1 0b 44
        E 0 81 45 00
        E 0 91 39 44
        E 16 b1 0b 3b
        E 0 81 39 00
        E 0 91 45 3b
        E 16 b1 0b 33
        E 0 81 45 00
        E 0 91 39 33
        E 16 b1 0b 2a
        E 0 81 39 00
        E 0 91 45 2a
        E 16 b1 0b 22
        E 0 81 45 00
        E 0 91 39 22
        E 16 b1 0b 19
        E 0 81 39 00
        E 0 91 45 19
        E 16 b1 0b 11
        E 0 81 45 00
        E 0 91 39 11
        E 16 b1 0b 08
        E 0 81 39 00
        E 0 91 45 08
        E 16 b1 0b 55
        E 0 81 45 00
        E 0 91 34 55
        E 16 b1 0b 4c
        E 0 81 34 00
        E 0 91 40 4c
        E 16 b1 0b 44
        E 0 81 40 00
        E 0 91 34 44
        E 16 b1 0b 3b
        E 0 81 34 00
        E 0 91 40 3b
        E 16 b1 0b 33
        E 0 81 40 00
        E 0 91 34 33
        E 16 b1 0b 2a
        E 0 81 34 00
        E 0 91 40 2a
        E 16 b1 0b 22
        E 0 81 40 00
        E 0 91 34 22
        E 16 b1 0b 19
        E 0 81 34 00
        E 0 91 40 19
        E 16 b1 0b 11
        E 0 81 40 00
        E 0 91 34 11
        E 16 b1 0b 08
        E 0 81 34 00
        E 0 91 40 08
        E 16 b1 0b 55
        E 0 81 40 00
        E 0 91 2d 55
        E 16 b1 0b 4c
        E 0 81 2d 00
        E 0 91 39 4c
        E 16 b1 0b 44
        E 0 81 39 00
        E 0 91 2d 44
        E 16 b1 0b 3b
        E 0 81 2d 00
        E 0 91 39 3b
        E 16 b1 0b 33
        E 0 81 39 00
        E 0 91 2d 33
        E 16 b1 0b 2a
        E 0 81 2d 00
        E 0 91 39 2a
        E 16 b1 0b 22
        E 0 81 39 00
        E 0 91 2d 22
        E 16 b1 0b 19
        E 0 81 2d 00
        E 0 91 39 19
        E 16 b1 0b 11
        E 0 81 39 00
        E 0 91 2d 11
        E 16 b1 0b 08
        E 0 81 2d 00
        E 0 91 39 08
        E 16 b1 0b 55
        E 16 b1 0b 4c
        E 0 81 39 00
        E 0 91 45 4c
        E 16 b1 0b 44
        E 0 81 45 00
        E 0 91 39 44
        E 16 b1 0b 3b
        E 0 81 39 00
        E 0 91 45 3b
        E 16 b1 0b 33
        E 0 81 45 00
        E 0 91 39 33
        E 16 b1 0b 2a
        E 0 81 39 00
        E 0 91 45 2a
        E 16 b1 0b 22
        E 0 81 45 00
        E 0 91 39 22
        E 16 b1 0b 19
        E 0 81 39 00
        E 0 91 45 19
        E 16 b1 0b 11
        E 0 81 45 00
        E 0 91 39 11
        E 16 b1 0b 08
        E 0 81 39 00
        E 0 91 45 08
        E 16 b1 0b 55
        E 0 81 45 00
        E 0 91 34 55
        E 16 b1 0b 4c
        E 0 81 34 00
        E 0 91 40 4c
        E 16 b1 0b 44
        E 0 81 40 00
        E 0 91 34 44
        E 16 b1 0b 3b
        E 0 81 34 00
        E 0 91 40 3b
        E 16 b1 0b 33
        E 0 81 40 00
        E 0 91 34 33
        E 16 b1 0b 2a
        E 0 81 34 00
        E 0 91 40 2a
        E 16 b1 0b 22
        E 0 81 40 00
        E 0 91 34 22
        E 16 b1 0b 19
        E 0 81 34 00
        E 0 91 40 19
        E 16 b1 0b 11
        E 0 81 40 00
        E 0 91 34 11
        E 16 b1 0b 08
        E 0 81 34 00
        E 0 91 40 08
        E 16 b1 0b 55
        E 0 81 40 00
        E 0 91 2d 55
        E 16 b1 0b 4c
        E 0 81 2d 00
        E 0 91 39 4c
        E 16 b1 0b 44
        E 0 81 39 00
        E 0 91 2d 44
        E 16 b1 0b 3b
        E 0 81 2d 00
        E 0 91 39 3b
        E 16 b1 0b 33
        E 0 81 39 00
        E 0 91 2d 33
        E 16 b1 0b 2a
        E 0 81 2d 00
        E 0 91 39 2a
        E 16 b1 0b 22
        E 0 81 39 00
        E 0 91 2d 22
        E 16 b1 0b 19
        E 0 81 2d 00
        E 0 91 39 19
        E 16 b1 0b 11
        E 0 81 39 00
        E 0 91 2d 11
        E 16 b1 0b 08
        E 0 81 2d 00
        E 0 91 39 08
        E 16 b1 0b 55
        E 16 b1 0b 4c
        E 0 81 39 00
        E 0 91 45 4c
        E 16 b1 0b 44
        E 0 81 45 00
        E 0 91 39 44
        E 16 b1 0b 3b
        E 0 81 39 00
        E 0 91 45 3b
        E 16 b1 0b 33
        E 0 81 45 00
        E 0 91 39 33
        E 16 b1 0b 2a
        E 0 81 39 00
        E 0 91 45 2a
        E 16 b1 0b 22
        E 0 81 45 00
        E 0 91 39 22
        E 16 b1 0b 19
        E 0 81 39 00
        E 0 91 45 19
        E 16 b1 0b 11
        E 0 81 45 00
        E 0 91 39 11
        E 16 b1 0b 08
        E 0 81 39 00
        E 0 91 45 08
        E 16 b1 0b 55
        E 0 81 45 00
        E 0 91 34 55
        E 16 b1 0b 4c
        E 0 81 34 00
        E 0 91 40 4c
        E 16 b1 0b 44
        E 0 81 40 00
        E 0 91 34 44
        E 16 b1 0b 3b
        E 0 81 34 00
        E 0 91 40 3b
        E 16 b1 0b 33
        E 0 81 40 00
        E 0 91 34 33
        E 16 b1 0b 2a
        E 0 81 34 00
        E 0 91 40 2a
        E 16 b1 0b 22
        E 0 81 40 00
        E 0 91 34 22
        E 16 b1 0b 19
        E 0 81 34 00
        E 0 91 40 19
        E 16 b1 0b 11
        E 0 81 40 00
        E 0 91 34 11
        E 16 b1 0b 08
        E 0 81 34 00
        E 0 91 40 08
        E 16 b1 0b 55
        E 0 81 40 00
        E 0 91 2d 55
        E 16 b1 0b 4c
        E 0 81 2d 00
        E 0 91 39 4c
        E 16 b1 0b 44
        E 0 81 39 00
        E 0 91 2d 44
        E 16 b1 0b 3b
        E 0 81 2d 00
        E 0 91 39 3b
        E 16 b1 0b 33
        E 0 81 39 00
        E 0 91 2d 33
        E 16 b1 0b 2a
        E 0 81 2d 00
        E 0 91 39 2a
        E 16 b1 0b 22
        E 0 81 39 00
        E 0 91 2d 22
        E 16 b1 0b 19
        E 0 81 2d 00
        E 0 91 39 19
        E 16 b1 0b 11
        E 0 81 39 00
        E 0 91 2d 11
        E 16 b1 0b 08
        E 0 81 2d 00
        E 0 91 39 08
        E 16 b1 0b 55
        E 16 b1 0b 4c
        E 0 81 39 00
        E 0 91 45 4c
        E 16 b1 0b 44
        E 0 81 45 00
        E 0 91 39 44
        E 16 b1 0b 3b
        E 0 81 39 00
        E 0 91 45 3b
        E 16 b1 0b 33
        E 0 81 45 00
        E 0 91 39 33
        E 16 b1 0b 2a
        E 0 81 39 00
        E 0 91 45 2a
        E 16 b1 0b 22
        E 0 81 45 00
        E 0 91 39 22
        E 16 b1 0b 19
        E 0 81 39 00
        E 0 91 45 19
        E 16 b1 0b 11
        E 0 81 45 00
        E 0 91 39 11
        E 16 b1 0b 08
        E 0 81 39 00
        E 0 91 45 08
        E 16 b1 0b 55
        E 0 81 45 00
        E 0 91 34 55
        E 16 b1 0b 4c
        E 0 81 34 00
        E 0 91 40 4c
        E 16 b1 0b 44
        E 0 81 40 00
        E 0 91 34 44
        E 16 b1 0b 3b
        E 0 81 34 00
        E 0 91 40 3b
        E 16 b1 0b 33
        E 0 81 40 00
        E 0 91 34 33
        E 16 b1 0b 2a
        E 0 81 34 00
        E 0 91 40 2a
        E 16 b1 0b 22
        E 0 81 40 00
        E 0 91 34 22
        E 16 b1 0b 19
        E 0 81 34 00
        E 0 91 40 19
        E 16 81 40 00
        E 0 b1 7b 00
        E 0 ff 2f 00
      >
    >
  >
  <TRACK {922DFD70-4BA4-47E7-B999-3501688E6E47}
    NAME "NES - Triangle"
    PEAKCOL 16744192
    BEAT -1
    AUTOMODE 0
    PANLAWFLAGS 3
    VOLPAN 1 0 -1 -1 1
    MUTESOLO 0 0 0
    IPHASE 0
    PLAYOFFS 0 1
    ISBUS 0 0
    BUSCOMP 0 0 0 0 0
    SHOWINMIX 1 0.6667 0.5 1 0.5 0 0 0
    FIXEDLANES 9 0 0 0 0
    SEL 0
    REC 0 5088 1 0 0 0 0 0
    VU 2
    TRACKHEIGHT 0 0 0 0 0 0 0
    INQ 0 0 0 0.5 100 0 0 100
    NCHAN 2
    FX 1
    TRACKID {922DFD70-4BA4-47E7-B999-3501688E6E47}
    PERF 0
    MIDIOUT -1
    MAINSEND 1 0
    <FXCHAIN
      WNDRECT 24 52 700 560
      SHOW 0
      LASTSEL 0
      DOCKED 0
      BYPASS 0 0 0
      <JS "ReapNES Studio/ReapNES_Console.jsfx" ""
        2 15 1 10 80 10 100 2 1 15 1 5 60 10 80 1 1 0 50 0 0 15 1 0 100 0 0 0.500000 0.500000 0.400000 0.300000 0.800000 2 1 0 0 0 0 - - - - - - - - - - - - - - - - - - - - - - - - - -
      >
      FLOATPOS 0 0 0 0
      FXID {6CC324AC-E98D-4A87-BCBD-3D96AB350730}
      WAK 0 0
    >
  >
  <TRACK {07466555-3B7C-4F25-A46C-E380194DA38E}
    NAME "NES - Noise / Drums [ch3]"
    PEAKCOL 11184810
    BEAT -1
    AUTOMODE 0
    PANLAWFLAGS 3
    VOLPAN 1 0 -1 -1 1
    MUTESOLO 0 0 0
    IPHASE 0
    PLAYOFFS 0 1
    ISBUS 0 0
    BUSCOMP 0 0 0 0 0
    SHOWINMIX 1 0.6667 0.5 1 0.5 0 0 0
    FIXEDLANES 9 0 0 0 0
    SEL 0
    REC 0 5088 1 0 0 0 0 0
    VU 2
    TRACKHEIGHT 0 0 0 0 0 0 0
    INQ 0 0 0 0.5 100 0 0 100
    NCHAN 2
    FX 1
    TRACKID {07466555-3B7C-4F25-A46C-E380194DA38E}
    PERF 0
    MIDIOUT -1
    MAINSEND 1 0
    <FXCHAIN
      WNDRECT 24 52 700 560
      SHOW 0
      LASTSEL 0
      DOCKED 0
      BYPASS 0 0 0
      <JS "ReapNES Studio/ReapNES_Console.jsfx" ""
        2 15 1 10 80 10 100 2 1 15 1 5 60 10 80 1 1 0 50 0 0 15 1 0 100 0 0 0.500000 0.500000 0.400000 0.300000 0.800000 3 1 0 0 0 0 - - - - - - - - - - - - - - - - - - - - - - - - - -
      >
      FLOATPOS 0 0 0 0
      FXID {C0D260BE-DCE2-4A58-89C1-49D3B96304FE}
      WAK 0 0
    >
    <ITEM
      POSITION 0
      LENGTH 4.167962800000001
      LOOP 0
      ALLTAKES 0
      FADEIN 0 0 0 0 0 0 0
      FADEOUT 0 0 0 0 0 0 0
      MUTE 0 0
      SEL 0
      IGUID {43C57AF0-F3A0-4550-8C39-AA6531E51AB7}
      <SOURCE MIDI
        HASDATA 1 480 QN
        CCINTERP 32
        E 0 93 2a 6e
        E 80 83 2a 00
        E 80 93 2a 6e
        E 80 83 2a 00
        E 80 93 2a 6e
        E 80 83 2a 00
        E 80 93 2a 6e
        E 80 83 2a 00
        E 80 93 2a 6e
        E 80 83 2a 00
        E 80 93 2a 6e
        E 80 83 2a 00
        E 80 93 2a 6e
        E 80 83 2a 00
        E 80 93 2a 6e
        E 80 83 2a 00
        E 80 93 2a 6e
        E 80 83 2a 00
        E 80 93 2a 6e
        E 80 83 2a 00
        E 80 93 2a 6e
        E 80 83 2a 00
        E 80 93 2a 6e
        E 80 83 2a 00
        E 80 93 2a 6e
        E 80 83 2a 00
        E 80 93 2a 6e
        E 80 83 2a 00
        E 80 93 2a 6e
        E 80 83 2a 00
        E 80 93 2a 6e
        E 80 83 2a 00
        E 80 93 2a 6e
        E 80 83 2a 00
        E 80 93 2a 6e
        E 80 83 2a 00
        E 80 93 2a 6e
        E 80 83 2a 00
        E 80 93 2a 6e
        E 80 83 2a 00
        E 80 93 2a 6e
        E 80 83 2a 00
        E 80 93 2a 6e
        E 80 83 2a 00
        E 80 93 2a 6e
        E 80 83 2a 00
        E 80 93 2a 6e
        E 80 83 2a 00
        E 80 93 2a 6e
        E 80 83 2a 00
        E 80 93 2a 6e
        E 80 83 2a 00
        E 80 93 2a 6e
        E 80 83 2a 00
        E 48 b3 7b 00
        E 0 ff 2f 00
      >
    >
  >
>