<REAPER_PROJECT 0.1 "7.27/win64" 1707000000
  <NOTES 0 2
    |ReapNES Studio Project
    |MIDI Import - Demon_Sword_title_rom_v1
  >
  RIPPLE 0
  GROUPOVERRIDE 0 0 0
  AUTOXFADE 129
  ENVATTACH 3
  POOLEDENVATTACH 0
  MIXERUIFLAGS 11 48
  ENVFADESZ10 40
  PEAKGAIN 1
  FEEDBACK 0
  PANLAW 1
  PROJOFFS 0 0 0
  MAXPROJLEN 0 0
  GRID 3199 8 1 8 1 0 0 0
  TIMEMODE 1 5 -1 30 0 0 -1
  VIDEO_CONFIG 0 0 65792
  PANMODE 3
  PANLAWFLAGS 3
  CURSOR 0
  ZOOM 100 0 0
  VZOOMEX 6 0
  USE_REC_CFG 0
  RECMODE 1
  SMPTESYNC 0 30 100 40 1000 300 0 0 1 0 0
  LOOP 0
  LOOPGRAN 0 4
  RECORD_PATH "Media" ""
  <RECORD_CFG
    ZXZhdxgAAQ==
  >
  <APPLYFX_CFG
  >
  RENDER_FILE ""
  RENDER_PATTERN ""
  RENDER_FMT 0 2 0
  RENDER_1X 0
  RENDER_RANGE 1 0 0 18 1000
  RENDER_RESAMPLE 3 0 1
  RENDER_ADDTOPROJ 0
  RENDER_STEMS 0
  RENDER_DITHER 0
  TIMELOCKMODE 1
  TEMPOENVLOCKMODE 1
  ITEMMIX 1
  DEFPITCHMODE 589824 0
  TAKELANE 1
  SAMPLERATE 44100 0 0
  <RENDER_CFG
    ZXZhdxgAAQ==
  >
  LOCK 1
  <METRONOME 6 2
    VOL 0.25 0.125
    BEATLEN 4
    FREQ 1760 880 1
    SAMPLES "" ""
    SPLIGNORE 0 0
    SPLDEF 2 660 "" 0
    SPLDEF 3 440 "" 0
    PATTERN 0 169
    PATTERNSTR ABBB
    MULT 1
  >
  GLOBAL_AUTO -1
  TEMPO 128.59999614200012 4 4
  PLAYRATE 1 0 0.25 4
  SELECTION 0 0
  SELECTION2 0 0
  MASTERAUTOMODE 0
  MASTERTRACKHEIGHT 0 0
  MASTERPEAKCOL 16576
  MASTERMUTESOLO 0
  MASTERTRACKVIEW 0 0.6667 0.5 0.5 0 0 0 0 0 0 0 0 0 0
  MASTERHWOUT 0 0 1 0 0 0 0 -1
  MASTER_NCH 2 2
  MASTER_VOLUME 1 0 -1 -1 1
  MASTER_PANMODE 3
  MASTER_PANLAWFLAGS 3
  MASTER_FX 1
  MASTER_SEL 0
  <MASTERPLAYSPEEDENV
    EGUID {73F903C4-96B4-4785-B32C-FD245A4CF574}
    ACT 0 -1
    VIS 0 1 1
    LANEHEIGHT 0 0
    ARM 0
    DEFSHAPE 0 -1 -1
  >
  <TEMPOENVEX
    EGUID {17F97B50-CC25-4187-B64F-390640591C63}
    ACT 1 -1
    VIS 1 0 1
    LANEHEIGHT 0 0
    ARM 0
    DEFSHAPE 1 -1 -1
  >
  <PROJBAY
  >
  <TRACK {E5BA5963-456D-400A-A3B3-8B845EFD1440}
    NAME "NES - Pulse 1 [ch0]"
    PEAKCOL 16576606
    BEAT -1
    AUTOMODE 0
    PANLAWFLAGS 3
    VOLPAN 1 0 -1 -1 1
    MUTESOLO 0 0 0
    IPHASE 0
    PLAYOFFS 0 1
    ISBUS 0 0
    BUSCOMP 0 0 0 0 0
    SHOWINMIX 1 0.6667 0.5 1 0.5 0 0 0
    FIXEDLANES 9 0 0 0 0
    SEL 1
    REC 1 5088 1 0 0 0 0 0
    VU 2
    TRACKHEIGHT 0 0 0 0 0 0 0
    INQ 0 0 0 0.5 100 0 0 100
    NCHAN 2
    FX 1
    TRACKID {E5BA5963-456D-400A-A3B3-8B845EFD1440}
    PERF 0
    MIDIOUT -1
    MAINSEND 1 0
    <FXCHAIN
      WNDRECT 24 52 700 560
      SHOW 0
      LASTSEL 0
      DOCKED 0
      BYPASS 0 0 0
      <JS "ReapNES Studio/ReapNES_Console.jsfx" ""
        2 15 1 10 80 10 100 2 1 15 1 5 60 10 80 1 1 0 50 0 0 15 1 0 100 0 0 0.500000 0.500000 0.400000 0.300000 0.800000 0 1 0 0 0 0 - - - - - - - - - - - - - - - - - - - - - - - - - -
      >
      FLOATPOS 0 0 0 0
      FXID {CF98864A-7B14-41A3-872A-777BC806C202}
      WAK 0 0
    >
    <ITEM
      POSITION 0
      LENGTH 6.0964232
      LOOP 0
      ALLTAKES 0
      FADEIN 0 0 0 0 0 0 0
      FADEOUT 0 0 0 0 0 0 0
      MUTE 0 0
      SEL 0
      IGUID {B6B74F2F-B73A-4BB1-921D-9320D0CA1690}
      <SOURCE MIDI
        HASDATA 1 480 QN
        CCINTERP 32
        E 0 c0 50
        E 5680 b0 0c 60
        E 0 b0 0b 08
        E 0 90 3b 08
        E 16 b0 0b 11
        E 32 b0 0b 19
        E 16 b0 0b 22
        E 16 b0 0b 2a
        E 16 b0 0b 33
        E 32 b0 0b 3b
        E 16 b0 0b 44
        E 16 b0 0b 4c
        E 16 b0 0b 55
        E 32 b0 0b 5d
        E 16 b0 0b 66
        E 368 80 3b 00
        E 0 b0 7b 00
        E 0 ff 2f 00
      >
    >
  >
  <TRACK {B005F827-843C-469D-95AC-11C59F7D4EC8}
    NAME "NES - Pulse 2 [ch1]"
    PEAKCOL 10092441
    BEAT -1
    AUTOMODE 0
    PANLAWFLAGS 3
    VOLPAN 1 0 -1 -1 1
    MUTESOLO 0 0 0
    IPHASE 0
    PLAYOFFS 0 1
    ISBUS 0 0
    BUSCOMP 0 0 0 0 0
    SHOWINMIX 1 0.6667 0.5 1 0.5 0 0 0
    FIXEDLANES 9 0 0 0 0
    SEL 0
    REC 0 5088 1 0 0 0 0 0
    VU 2
    TRACKHEIGHT 0 0 0 0 0 0 0
    INQ 0 0 0 0.5 100 0 0 100
    NCHAN 2
    FX 1
    TRACKID {B005F827-843C-469D-95AC-11C59F7D4EC8}
    PERF 0
    MIDIOUT -1
    MAINSEND 1 0
    <FXCHAIN
      WNDRECT 24 52 700 560
      SHOW 0
      LASTSEL 0
      DOCKED 0
      BYPASS 0 0 0
      <JS "ReapNES Studio/ReapNES_Console.jsfx" ""
        2 15 1 10 80 10 100 2 1 15 1 5 60 10 80 1 1 0 50 0 0 15 1 0 100 0 0 0.500000 0.500000 0.400000 0.300000 0.800000 1 1 0 0 0 0 - - - - - - - - - - - - - - - - - - - - - - - - - -
      >
      FLOATPOS 0 0 0 0
      FXID {278E5574-7885-414C-8B97-5D3DDFB5EA99}
      WAK 0 0
    >
    <ITEM
      POSITION 0
      LENGTH 6.0964232
      LOOP 0
      ALLTAKES 0
      FADEIN 0 0 0 0 0 0 0
      FADEOUT 0 0 0 0 0 0 0
      MUTE 0 0
      SEL 0
      IGUID {500D7B09-7619-4348-BA07-E98358A957FD}
      <SOURCE MIDI
        HASDATA 1 480 QN
        CCINTERP 32
        E 0 c1 51
        E 0 b1 0c 10
        E 0 b1 0b 08
        E 0 91 3b 08
        E 64 81 3b 00
        E 32 91 3e 08
        E 64 81 3e 00
        E 32 91 40 08
        E 64 81 40 00
        E 32 91 39 08
        E 64 81 39 00
        E 32 91 3b 08
        E 64 81 3b 00
        E 32 b1 0b 11
        E 0 91 3e 11
        E 16 b1 0b 08
        E 16 b1 0b 11
        E 16 b1 0b 08
        E 48 b1 0b 11
        E 0 81 3e 00
        E 0 91 40 11
        E 16 b1 0b 08
        E 16 b1 0b 11
        E 16 b1 0b 08
        E 48 b1 0b 11
        E 0 81 40 00
        E 0 91 39 11
        E 16 b1 0b 08
        E 16 b1 0b 11
        E 16 b1 0b 08
        E 48 b1 0b 11
        E 0 81 39 00
        E 0 91 3b 11
        E 16 b1 0b 08
        E 16 b1 0b 11
        E 16 b1 0b 08
        E 48 b1 0b 11
        E 0 81 3b 00
        E 0 91 3e 11
        E 16 b1 0b 08
        E 16 b1 0b 11
        E 16 b1 0b 08
        E 48 b1 0b 19
        E 0 81 3e 00
        E 0 91 40 19
        E 16 b1 0b 11
        E 16 b1 0b 19
        E 16 b1 0b 11
        E 16 b1 0b 08
        E 32 b1 0b 19
        E 0 81 40 00
        E 0 91 39 19
        E 16 b1 0b 11
        E 16 b1 0b 19
        E 16 b1 0b 11
        E 16 b1 0b 08
        E 32 b1 0b 19
        E 0 81 39 00
        E 0 91 3b 19
        E 16 b1 0b 11
        E 16 b1 0b 19
        E 16 b1 0b 11
        E 16 b1 0b 08
        E 32 b1 0b 19
        E 0 81 3b 00
        E 0 91 3e 19
        E 16 b1 0b 11
        E 16 b1 0b 19
        E 16 b1 0b 11
        E 16 b1 0b 08
        E 32 b1 0b 19
        E 0 81 3e 00
        E 0 91 40 19
        E 16 b1 0b 11
        E 16 b1 0b 19
        E 16 b1 0b 11
        E 16 b1 0b 08
        E 32 b1 0b 22
        E 0 81 40 00
        E 0 91 39 22
        E 16 b1 0b 19
        E 16 b1 0b 22
        E 16 b1 0b 19
        E 16 b1 0b 11
        E 32 b1 0b 22
        E 0 81 39 00
        E 0 91 3b 22
        E 16 b1 0b 19
        E 16 b1 0b 22
        E 16 b1 0b 19
        E 16 b1 0b 11
        E 32 b1 0b 22
        E 0 81 3b 00
        E 0 91 3e 22
        E 16 b1 0b 19
        E 16 b1 0b 22
        E 16 b1 0b 19
        E 16 b1 0b 11
        E 32 b1 0b 22
        E 0 81 3e 00
        E 0 91 40 22
        E 16 b1 0b 19
        E 16 b1 0b 22
        E 16 b1 0b 19
        E 16 b1 0b 11
        E 32 b1 0b 22
        E 0 81 40 00
        E 0 91 39 22
        E 16 b1 0b 19
        E 16 b1 0b 22
        E 16 b1 0b 19
        E 16 b1 0b 11
        E 32 b1 0b 2a
        E 0 81 39 00
        E 0 91 3b 2a
        E 16 b1 0b 19
        E 16 b1 0b 2a
        E 16 b1 0b 19
        E 16 b1 0b 11
        E 32 b1 0b 2a
        E 0 81 3b 00
        E 0 91 3e 2a
        E 16 b1 0b 19
        E 16 b1 0b 2a
        E 16 b1 0b 19
        E 16 b1 0b 11
        E 32 b1 0b 2a
        E 0 81 3e 00
        E 0 91 40 2a
        E 16 b1 0b 19
        E 16 b1 0b 2a
        E 16 b1 0b 19
        E 16 b1 0b 11
        E 32 b1 0b 2a
        E 0 81 40 00
        E 0 91 39 2a
        E 16 b1 0b 19
        E 16 b1 0b 2a
        E 16 b1 0b 19
        E 16 b1 0b 11
        E 32 b1 0b 2a
        E 0 81 39 00
        E 0 91 3b 2a
        E 16 b1 0b 19
        E 16 b1 0b 2a
        E 16 b1 0b 19
        E 16 b1 0b 11
        E 32 b1 0b 33
        E 0 81 3b 00
        E 0 91 3e 33
        E 16 b1 0b 22
        E 16 b1 0b 33
        E 16 b1 0b 22
        E 16 b1 0b 19
        E 16 b1 0b 11
        E 16 b1 0b 33
        E 0 81 3e 00
        E 0 91 40 33
        E 16 b1 0b 22
        E 16 b1 0b 33
        E 16 b1 0b 22
        E 16 b1 0b 19
        E 16 b1 0b 11
        E 16 b1 0b 33
        E 0 81 40 00
        E 0 91 39 33
        E 16 b1 0b 22
        E 16 b1 0b 33
        E 16 b1 0b 22
        E 16 b1 0b 19
        E 16 b1 0b 11
        E 16 b1 0b 33
        E 0 81 39 00
        E 0 91 3b 33
        E 16 b1 0b 22
        E 16 b1 0b 33
        E 16 b1 0b 22
        E 16 b1 0b 19
        E 16 b1 0b 11
        E 16 b1 0b 33
        E 0 81 3b 00
        E 0 91 3e 33
        E 16 b1 0b 22
        E 16 b1 0b 33
        E 16 b1 0b 22
        E 16 b1 0b 19
        E 16 b1 0b 11
        E 16 b1 0b 3b
        E 0 81 3e 00
        E 0 91 40 3b
        E 16 b1 0b 2a
        E 16 b1 0b 3b
        E 16 b1 0b 2a
        E 16 b1 0b 19
        E 32 b1 0b 3b
        E 0 81 40 00
        E 0 91 39 3b
        E 16 b1 0b 2a
        E 16 b1 0b 3b
        E 16 b1 0b 2a
        E 16 b1 0b 19
        E 32 b1 0b 3b
        E 0 81 39 00
        E 0 91 3b 3b
        E 16 b1 0b 2a
        E 16 b1 0b 3b
        E 16 b1 0b 2a
        E 16 b1 0b 19
        E 32 b1 0b 3b
        E 0 81 3b 00
        E 0 91 3e 3b
        E 16 b1 0b 2a
        E 16 b1 0b 3b
        E 16 b1 0b 2a
        E 16 b1 0b 19
        E 32 b1 0b 3b
        E 0 81 3e 00
        E 0 91 40 3b
        E 16 b1 0b 2a
        E 16 b1 0b 3b
        E 16 b1 0b 2a
        E 16 b1 0b 19
        E 32 b1 0b 44
        E 0 81 40 00
        E 0 91 39 44
        E 16 b1 0b 2a
        E 16 b1 0b 44
        E 16 b1 0b 2a
        E 16 b1 0b 22
        E 16 b1 0b 19
        E 16 b1 0b 44
        E 0 81 39 00
        E 0 91 3b 44
        E 16 b1 0b 2a
        E 16 b1 0b 44
        E 16 b1 0b 2a
        E 16 b1 0b 22
        E 16 b1 0b 19
        E 16 b1 0b 44
        E 0 81 3b 00
        E 0 91 3e 44
        E 16 b1 0b 2a
        E 16 b1 0b 44
        E 16 b1 0b 2a
        E 16 b1 0b 22
        E 16 b1 0b 19
        E 16 b1 0b 44
        E 0 81 3e 00
        E 0 91 40 44
        E 16 b1 0b 2a
        E 16 b1 0b 44
        E 16 b1 0b 2a
        E 16 b1 0b 22
        E 16 b1 0b 19
        E 16 b1 0b 44
        E 0 81 40 00
        E 0 91 39 44
        E 16 b1 0b 2a
        E 16 b1 0b 44
        E 16 b1 0b 2a
        E 16 b1 0b 22
        E 16 b1 0b 19
        E 16 b1 0b 4c
        E 0 81 39 00
        E 0 91 3b 4c
        E 16 b1 0b 33
        E 16 b1 0b 4c
        E 16 b1 0b 33
        E 16 b1 0b 22
        E 32 b1 0b 4c
        E 0 81 3b 00
        E 0 91 3e 4c
        E 16 b1 0b 33
        E 16 b1 0b 4c
        E 16 b1 0b 33
        E 16 b1 0b 22
        E 32 b1 0b 4c
        E 0 81 3e 00
        E 0 91 40 4c
        E 16 b1 0b 33
        E 16 b1 0b 4c
        E 16 b1 0b 33
        E 16 b1 0b 22
        E 32 b1 0b 4c
        E 0 81 40 00
        E 0 91 39 4c
        E 16 b1 0b 33
        E 16 b1 0b 4c
        E 16 b1 0b 33
        E 16 b1 0b 22
        E 32 b1 0b 4c
        E 0 81 39 00
        E 0 91 3b 4c
        E 16 b1 0b 33
        E 16 b1 0b 4c
        E 16 b1 0b 33
        E 16 b1 0b 22
        E 32 b1 0b 55
        E 0 81 3b 00
        E 0 91 3e 55
        E 16 b1 0b 3b
        E 16 b1 0b 55
        E 16 b1 0b 3b
        E 16 b1 0b 2a
        E 16 b1 0b 22
        E 16 b1 0b 55
        E 0 81 3e 00
        E 0 91 40 55
        E 16 b1 0b 3b
        E 16 b1 0b 55
        E 16 b1 0b 3b
        E 16 b1 0b 2a
        E 16 b1 0b 22
        E 16 b1 0b 55
        E 0 81 40 00
        E 0 91 39 55
        E 16 b1 0b 3b
        E 16 b1 0b 55
        E 16 b1 0b 3b
        E 16 b1 0b 2a
        E 16 b1 0b 22
        E 16 b1 0b 55
        E 0 81 39 00
        E 0 91 3b 55
        E 16 b1 0b 3b
        E 16 b1 0b 55
        E 16 b1 0b 3b
        E 16 b1 0b 2a
        E 16 b1 0b 22
        E 16 b1 0b 55
        E 0 81 3b 00
        E 0 91 3e 55
        E 16 b1 0b 3b
        E 16 b1 0b 55
        E 16 b1 0b 3b
        E 16 b1 0b 2a
        E 16 b1 0b 22
        E 16 b1 0b 5d
        E 0 81 3e 00
        E 0 91 40 5d
        E 16 b1 0b 3b
        E 16 b1 0b 5d
        E 16 b1 0b 3b
        E 16 b1 0b 2a
        E 16 b1 0b 22
        E 16 b1 0b 5d
        E 0 81 40 00
        E 0 91 39 5d
        E 16 b1 0b 3b
        E 16 b1 0b 5d
        E 16 b1 0b 3b
        E 16 b1 0b 2a
        E 16 b1 0b 22
        E 16 b1 0b 5d
        E 0 81 39 00
        E 0 91 3b 5d
        E 16 b1 0b 3b
        E 16 b1 0b 5d
        E 16 b1 0b 3b
        E 16 b1 0b 2a
        E 16 b1 0b 22
        E 16 b1 0b 5d
        E 0 81 3b 00
        E 0 91 3e 5d
        E 16 b1 0b 3b
        E 16 b1 0b 5d
        E 16 b1 0b 3b
        E 16 b1 0b 2a
        E 16 b1 0b 22
        E 16 b1 0b 5d
        E 0 81 3e 00
        E 0 91 40 5d
        E 16 b1 0b 3b
        E 16 b1 0b 5d
        E 16 b1 0b 3b
        E 16 b1 0b 2a
        E 16 b1 0b 22
        E 16 b1 0b 66
        E 0 81 40 00
        E 0 91 39 66
        E 16 b1 0b 44
        E 16 b1 0b 66
        E 16 b1 0b 44
        E 16 b1 0b 33
        E 16 b1 0b 2a
        E 16 b1 0b 66
        E 0 81 39 00
        E 0 91 3b 66
        E 16 b1 0b 44
        E 16 b1 0b 66
        E 16 b1 0b 44
        E 16 b1 0b 33
        E 16 b1 0b 2a
        E 16 b1 0b 66
        E 0 81 3b 00
        E 0 91 3e 66
        E 16 b1 0b 44
        E 16 b1 0b 66
        E 16 b1 0b 44
        E 16 b1 0b 33
        E 16 b1 0b 2a
        E 16 b1 0b 66
        E 0 81 3e 00
        E 0 91 40 66
        E 16 b1 0b 44
        E 16 b1 0b 66
        E 16 b1 0b 44
        E 16 b1 0b 33
        E 16 b1 0b 2a
        E 16 81 40 00
        E 16 b1 0b 11
        E 0 91 32 11
        E 16 b1 0b 19
        E 16 b1 0b 2a
        E 16 b1 0b 33
        E 16 b1 0b 44
        E 16 b1 0b 55
        E 16 b1 0b 66
        E 16 b1 0b 6e
        E 448 b1 0b 77
        E 32 81 32 00
        E 0 b1 7b 00
        E 0 ff 2f 00
      >
    >
  >
  <TRACK {9F56F2F8-B622-4F28-A425-FA78E253EC59}
    NAME "NES - Triangle [ch2]"
    PEAKCOL 16744192
    BEAT -1
    AUTOMODE 0
    PANLAWFLAGS 3
    VOLPAN 1 0 -1 -1 1
    MUTESOLO 0 0 0
    IPHASE 0
    PLAYOFFS 0 1
    ISBUS 0 0
    BUSCOMP 0 0 0 0 0
    SHOWINMIX 1 0.6667 0.5 1 0.5 0 0 0
    FIXEDLANES 9 0 0 0 0
    SEL 0
    REC 0 5088 1 0 0 0 0 0
    VU 2
    TRACKHEIGHT 0 0 0 0 0 0 0
    INQ 0 0 0 0.5 100 0 0 100
    NCHAN 2
    FX 1
    TRACKID {9F56F2F8-B622-4F28-A425-FA78E253EC59}
    PERF 0
    MIDIOUT -1
    MAINSEND 1 0
    <FXCHAIN
      WNDRECT 24 52 700 560
      SHOW 0
      LASTSEL 0
      DOCKED 0
      BYPASS 0 0 0
      <JS "ReapNES Studio/ReapNES_Console.jsfx" ""
        2 15 1 10 80 10 100 2 1 15 1 5 60 10 80 1 1 0 50 0 0 15 1 0 100 0 0 0.500000 0.500000 0.400000 0.300000 0.800000 2 1 0 0 0 0 - - - - - - - - - - - - - - - - - - - - - - - - - -
      >
      FLOATPOS 0 0 0 0
      FXID {3CAC4C68-A7DB-4F33-9B37-74F61BB57E8E}
      WAK 0 0
    >
    <ITEM
      POSITION 0
      LENGTH 6.0964232
      LOOP 0
      ALLTAKES 0
      FADEIN 0 0 0 0 0 0 0
      FADEOUT 0 0 0 0 0 0 0
      MUTE 0 0
      SEL 0
      IGUID {33FD369D-C217-4EF6-BA29-F7EB6E955213}
      <SOURCE MIDI
        HASDATA 1 480 QN
        CCINTERP 32
        E 0 c2 26
        E 0 b2 0b 7f
        E 0 92 28 7f
        E 1632 82 28 00
        E 0 b2 0b 7f
        E 0 92 2b 7f
        E 384 82 2b 00
        E 0 b2 0b 7f
        E 0 92 2d 7f
        E 384 82 2d 00
        E 0 b2 0b 7f
        E 0 92 2b 7f
        E 192 82 2b 00
        E 0 b2 0b 7f
        E 0 92 28 7f
        E 2112 82 28 00
        E 0 b2 0b 7f
        E 0 92 2b 7f
        E 384 82 2b 00
        E 0 b2 0b 7f
        E 0 92 2d 7f
        E 384 82 2d 00
        E 0 b2 0b 7f
        E 0 92 2b 7f
        E 192 82 2b 00
        E 0 b2 0b 7f
        E 0 92 28 7f
        E 608 82 28 00
        E 0 b2 7b 00
        E 0 ff 2f 00
      >
    >
  >
  <TRACK {D2501554-3E8A-4D0E-8B79-7DA8BEE04D55}
    NAME "NES - Noise / Drums [ch3]"
    PEAKCOL 11184810
    BEAT -1
    AUTOMODE 0
    PANLAWFLAGS 3
    VOLPAN 1 0 -1 -1 1
    MUTESOLO 0 0 0
    IPHASE 0
    PLAYOFFS 0 1
    ISBUS 0 0
    BUSCOMP 0 0 0 0 0
    SHOWINMIX 1 0.6667 0.5 1 0.5 0 0 0
    FIXEDLANES 9 0 0 0 0
    SEL 0
    REC 0 5088 1 0 0 0 0 0
    VU 2
    TRACKHEIGHT 0 0 0 0 0 0 0
    INQ 0 0 0 0.5 100 0 0 100
    NCHAN 2
    FX 1
    TRACKID {D2501554-3E8A-4D0E-8B79-7DA8BEE04D55}
    PERF 0
    MIDIOUT -1
    MAINSEND 1 0
    <FXCHAIN
      WNDRECT 24 52 700 560
      SHOW 0
      LASTSEL 0
      DOCKED 0
      BYPASS 0 0 0
      <JS "ReapNES Studio/ReapNES_Console.jsfx" ""
        2 15 1 10 80 10 100 2 1 15 1 5 60 10 80 1 1 0 50 0 0 15 1 0 100 0 0 0.500000 0.500000 0.400000 0.300000 0.800000 3 1 0 0 0 0 - - - - - - - - - - - - - - - - - - - - - - - - - -
      >
      FLOATPOS 0 0 0 0
      FXID {CA7724DB-66E4-4FBD-B86F-E542DD43361B}
      WAK 0 0
    >
    <ITEM
      POSITION 0
      LENGTH 6.0964232
      LOOP 0
      ALLTAKES 0
      FADEIN 0 0 0 0 0 0 0
      FADEOUT 0 0 0 0 0 0 0
      MUTE 0 0
      SEL 0
      IGUID {AD78CE8F-C439-4BC1-A520-48459B56260F}
      <SOURCE MIDI
        HASDATA 1 480 QN
        CCINTERP 32
        E 0 93 2a 11
        E 96 83 2a 00
        E 0 93 2a 7f
        E 96 83 2a 00
        E 0 93 2a 7f
        E 96 83 2a 00
        E 0 93 2a 7f
        E 192 83 2a 00
        E 0 93 2a 7f
        E 96 83 2a 00
        E 0 93 2a 7f
        E 96 83 2a 00
        E 0 93 2a 7f
        E 192 83 2a 00
        E 0 93 2a 7f
        E 96 83 2a 00
        E 0 93 2a 7f
        E 96 83 2a 00
        E 0 93 2a 7f
        E 192 83 2a 00
        E 0 93 2a 7f
        E 96 83 2a 00
        E 0 93 2a 7f
        E 96 83 2a 00
        E 0 93 2a 7f
        E 192 83 2a 00
        E 0 93 2a 7f
        E 96 83 2a 00
        E 0 93 2a 7f
        E 96 83 2a 00
        E 0 93 2a 7f
        E 192 83 2a 00
        E 0 93 2a 7f
        E 96 83 2a 00
        E 0 93 2a 7f
        E 96 83 2a 00
        E 0 93 2a 7f
        E 192 83 2a 00
        E 0 93 2a 7f
        E 96 83 2a 00
        E 0 93 2a 7f
        E 96 83 2a 00
        E 0 93 2a 7f
        E 192 83 2a 00
        E 0 93 2a 7f
        E 96 83 2a 00
        E 0 93 2a 7f
        E 96 83 2a 00
        E 0 93 2a 7f
        E 192 83 2a 00
        E 0 93 2a 7f
        E 96 83 2a 00
        E 0 93 2a 7f
        E 96 83 2a 00
        E 0 93 2a 7f
        E 192 83 2a 00
        E 0 93 2a 7f
        E 96 83 2a 00
        E 0 93 2a 7f
        E 96 83 2a 00
        E 0 93 2a 7f
        E 192 83 2a 00
        E 0 93 2a 7f
        E 96 83 2a 00
        E 0 93 2a 7f
        E 96 83 2a 00
        E 0 93 2a 7f
        E 192 83 2a 00
        E 0 93 2a 7f
        E 96 83 2a 00
        E 0 93 2a 7f
        E 96 83 2a 00
        E 0 93 2a 7f
        E 192 83 2a 00
        E 0 93 2a 7f
        E 96 83 2a 00
        E 0 93 2a 7f
        E 96 83 2a 00
        E 0 93 2a 7f
        E 192 83 2a 00
        E 0 93 2a 7f
        E 96 83 2a 00
        E 0 93 2a 7f
        E 96 83 2a 00
        E 0 93 2a 7f
        E 192 83 2a 00
        E 0 93 2a 7f
        E 96 83 2a 00
        E 0 93 2a 7f
        E 96 83 2a 00
        E 0 93 2a 7f
        E 192 83 2a 00
        E 0 93 2a 7f
        E 96 83 2a 00
        E 0 93 2a 7f
        E 96 83 2a 00
        E 0 93 2a 7f
        E 192 83 2a 00
        E 0 93 2a 7f
        E 32 83 2a 00
        E 0 b3 7b 00
        E 0 ff 2f 00
      >
    >
  >
>