<REAPER_PROJECT 0.1 "7.27/win64" 1707000000
  <NOTES 0 2
    |ReapNES Studio Project
    |MIDI Import - Adventures_of_Lolo_title_rom_v1
  >
  RIPPLE 0
  GROUPOVERRIDE 0 0 0
  AUTOXFADE 129
  ENVATTACH 3
  POOLEDENVATTACH 0
  MIXERUIFLAGS 11 48
  ENVFADESZ10 40
  PEAKGAIN 1
  FEEDBACK 0
  PANLAW 1
  PROJOFFS 0 0 0
  MAXPROJLEN 0 0
  GRID 3199 8 1 8 1 0 0 0
  TIMEMODE 1 5 -1 30 0 0 -1
  VIDEO_CONFIG 0 0 65792
  PANMODE 3
  PANLAWFLAGS 3
  CURSOR 0
  ZOOM 100 0 0
  VZOOMEX 6 0
  USE_REC_CFG 0
  RECMODE 1
  SMPTESYNC 0 30 100 40 1000 300 0 0 1 0 0
  LOOP 0
  LOOPGRAN 0 4
  RECORD_PATH "Media" ""
  <RECORD_CFG
    ZXZhdxgAAQ==
  >
  <APPLYFX_CFG
  >
  RENDER_FILE ""
  RENDER_PATTERN ""
  RENDER_FMT 0 2 0
  RENDER_1X 0
  RENDER_RANGE 1 0 0 18 1000
  RENDER_RESAMPLE 3 0 1
  RENDER_ADDTOPROJ 0
  RENDER_STEMS 0
  RENDER_DITHER 0
  TIMELOCKMODE 1
  TEMPOENVLOCKMODE 1
  ITEMMIX 1
  DEFPITCHMODE 589824 0
  TAKELANE 1
  SAMPLERATE 44100 0 0
  <RENDER_CFG
    ZXZhdxgAAQ==
  >
  LOCK 1
  <METRONOME 6 2
    VOL 0.25 0.125
    BEATLEN 4
    FREQ 1760 880 1
    SAMPLES "" ""
    SPLIGNORE 0 0
    SPLDEF 2 660 "" 0
    SPLDEF 3 440 "" 0
    PATTERN 0 169
    PATTERNSTR ABBB
    MULT 1
  >
  GLOBAL_AUTO -1
  TEMPO 128.59999614200012 4 4
  PLAYRATE 1 0 0.25 4
  SELECTION 0 0
  SELECTION2 0 0
  MASTERAUTOMODE 0
  MASTERTRACKHEIGHT 0 0
  MASTERPEAKCOL 16576
  MASTERMUTESOLO 0
  MASTERTRACKVIEW 0 0.6667 0.5 0.5 0 0 0 0 0 0 0 0 0 0
  MASTERHWOUT 0 0 1 0 0 0 0 -1
  MASTER_NCH 2 2
  MASTER_VOLUME 1 0 -1 -1 1
  MASTER_PANMODE 3
  MASTER_PANLAWFLAGS 3
  MASTER_FX 1
  MASTER_SEL 0
  <MASTERPLAYSPEEDENV
    EGUID {40021B75-97B3-4091-A279-774C795426B0}
    ACT 0 -1
    VIS 0 1 1
    LANEHEIGHT 0 0
    ARM 0
    DEFSHAPE 0 -1 -1
  >
  <TEMPOENVEX
    EGUID {E9E43A67-D758-4D20-9BEC-BCAEFBC3EA65}
    ACT 1 -1
    VIS 1 0 1
    LANEHEIGHT 0 0
    ARM 0
    DEFSHAPE 1 -1 -1
  >
  <PROJBAY
  >
  <TRACK {67252C0D-509A-4C91-9605-3167D9F96E38}
    NAME "NES - Pulse 1 [ch0]"
    PEAKCOL 16576606
    BEAT -1
    AUTOMODE 0
    PANLAWFLAGS 3
    VOLPAN 1 0 -1 -1 1
    MUTESOLO 0 0 0
    IPHASE 0
    PLAYOFFS 0 1
    ISBUS 0 0
    BUSCOMP 0 0 0 0 0
    SHOWINMIX 1 0.6667 0.5 1 0.5 0 0 0
    FIXEDLANES 9 0 0 0 0
    SEL 1
    REC 1 5088 1 0 0 0 0 0
    VU 2
    TRACKHEIGHT 0 0 0 0 0 0 0
    INQ 0 0 0 0.5 100 0 0 100
    NCHAN 2
    FX 1
    TRACKID {67252C0D-509A-4C91-9605-3167D9F96E38}
    PERF 0
    MIDIOUT -1
    MAINSEND 1 0
    <FXCHAIN
      WNDRECT 24 52 700 560
      SHOW 0
      LASTSEL 0
      DOCKED 0
      BYPASS 0 0 0
      <JS "ReapNES Studio/ReapNES_Console.jsfx" ""
        2 15 1 10 80 10 100 2 1 15 1 5 60 10 80 1 1 0 50 0 0 15 1 0 100 0 0 0.500000 0.500000 0.400000 0.300000 0.800000 0 1 0 0 0 0 - - - - - - - - - - - - - - - - - - - - - - - - - -
      >
      FLOATPOS 0 0 0 0
      FXID {F6682E1D-5EB2-456D-B2D9-95818789012E}
      WAK 0 0
    >
    <ITEM
      POSITION 0
      LENGTH 4.2768275000000004
      LOOP 0
      ALLTAKES 0
      FADEIN 0 0 0 0 0 0 0
      FADEOUT 0 0 0 0 0 0 0
      MUTE 0 0
      SEL 0
      IGUID {5D9A4105-860B-4582-B566-9211F3529E54}
      <SOURCE MIDI
        HASDATA 1 480 QN
        CCINTERP 32
        E 0 c0 50
        E 0 b0 0c 10
        E 0 b0 0b 7f
        E 0 90 39 7f
        E 16 80 39 00
        E 0 90 40 7f
        E 32 80 40 00
        E 0 90 32 7f
        E 16 80 32 00
        E 0 90 42 7f
        E 32 80 42 00
        E 0 90 32 7f
        E 16 80 32 00
        E 0 90 45 7f
        E 32 80 45 00
        E 0 90 32 7f
        E 16 80 32 00
        E 0 90 48 7f
        E 32 80 48 00
        E 0 90 33 7f
        E 16 80 33 00
        E 0 90 4c 7f
        E 32 80 4c 00
        E 0 90 33 7f
        E 16 80 33 00
        E 0 90 48 7f
        E 32 80 48 00
        E 0 90 33 7f
        E 16 80 33 00
        E 0 90 4c 7f
        E 32 80 4c 00
        E 0 90 33 7f
        E 16 80 33 00
        E 0 90 51 7f
        E 32 80 51 00
        E 0 90 33 7f
        E 16 80 33 00
        E 0 90 56 7f
        E 32 80 56 00
        E 0 90 33 7f
        E 16 80 33 00
        E 0 90 5e 7f
        E 32 80 5e 00
        E 0 90 34 7f
        E 16 80 34 00
        E 0 90 4c 7f
        E 32 80 4c 00
        E 0 90 33 7f
        E 16 80 33 00
        E 0 90 51 7f
        E 32 80 51 00
        E 0 90 33 7f
        E 16 80 33 00
        E 0 90 56 7f
        E 32 80 56 00
        E 0 90 33 7f
        E 16 80 33 00
        E 0 90 5e 7f
        E 32 80 5e 00
        E 0 90 34 7f
        E 16 80 34 00
        E 0 90 6b 7f
        E 32 80 6b 00
        E 0 90 34 7f
        E 16 80 34 00
        E 0 90 56 7f
        E 32 80 56 00
        E 0 90 33 7f
        E 16 80 33 00
        E 0 90 5e 7f
        E 32 80 5e 00
        E 0 90 34 7f
        E 16 80 34 00
        E 0 90 6b 7f
        E 32 80 6b 00
        E 0 90 4c 7f
        E 16 80 4c 00
        E 0 90 39 7f
        E 32 80 39 00
        E 0 90 4d 7f
        E 16 80 4d 00
        E 0 90 3a 7f
        E 32 80 3a 00
        E 0 90 34 7f
        E 16 80 34 00
        E 0 90 6b 7f
        E 32 80 6b 00
        E 0 90 4c 7f
        E 16 80 4c 00
        E 0 90 39 7f
        E 32 80 39 00
        E 0 90 4d 7f
        E 16 80 4d 00
        E 0 90 3a 7f
        E 32 80 3a 00
        E 0 90 4e 7f
        E 16 80 4e 00
        E 0 90 3b 7f
        E 32 80 3b 00
        E 0 90 4f 7f
        E 16 80 4f 00
        E 0 90 3c 7f
        E 32 b0 0b 08
        E 0 80 3c 00
        E 0 90 50 08
        E 16 80 50 00
        E 0 90 3a 08
        E 32 80 3a 00
        E 0 90 4e 08
        E 16 80 4e 00
        E 0 90 3b 08
        E 32 80 3b 00
        E 0 90 4f 08
        E 16 80 4f 00
        E 0 90 3c 08
        E 32 80 3c 00
        E 0 90 50 08
        E 16 80 50 00
        E 0 90 3a 08
        E 32 80 3a 00
        E 0 90 4e 08
        E 16 80 4e 00
        E 0 90 3b 08
        E 32 80 3b 00
        E 0 90 4f 08
        E 16 80 4f 00
        E 0 90 3c 08
        E 32 b0 0b 11
        E 0 80 3c 00
        E 0 90 50 11
        E 16 80 50 00
        E 0 90 3a 11
        E 32 80 3a 00
        E 0 90 4e 11
        E 16 80 4e 00
        E 0 90 3b 11
        E 32 80 3b 00
        E 0 90 4f 11
        E 16 80 4f 00
        E 0 90 3c 11
        E 32 80 3c 00
        E 0 90 50 11
        E 16 80 50 00
        E 0 90 3a 11
        E 32 80 3a 00
        E 0 90 4e 11
        E 16 80 4e 00
        E 0 90 3b 11
        E 32 80 3b 00
        E 0 90 4f 11
        E 16 80 4f 00
        E 0 90 3c 11
        E 32 b0 0b 19
        E 0 80 3c 00
        E 0 90 50 19
        E 16 80 50 00
        E 0 90 3a 19
        E 32 80 3a 00
        E 0 90 4e 19
        E 16 80 4e 00
        E 0 90 3b 19
        E 32 80 3b 00
        E 0 90 4f 19
        E 16 80 4f 00
        E 0 90 3c 19
        E 32 80 3c 00
        E 0 90 50 19
        E 16 80 50 00
        E 0 90 3a 19
        E 32 80 3a 00
        E 0 90 4e 19
        E 16 80 4e 00
        E 0 90 3b 19
        E 32 80 3b 00
        E 0 90 4f 19
        E 16 80 4f 00
        E 0 90 3c 19
        E 32 b0 0b 22
        E 0 80 3c 00
        E 0 90 50 22
        E 16 80 50 00
        E 0 90 3a 22
        E 32 80 3a 00
        E 0 90 4e 22
        E 16 80 4e 00
        E 0 90 3b 22
        E 32 80 3b 00
        E 0 90 4f 22
        E 16 80 4f 00
        E 0 90 3c 22
        E 32 80 3c 00
        E 0 90 50 22
        E 16 80 50 00
        E 0 90 3a 22
        E 32 80 3a 00
        E 0 90 4e 22
        E 16 80 4e 00
        E 0 90 3b 22
        E 32 80 3b 00
        E 0 90 4f 22
        E 16 80 4f 00
        E 0 90 3c 22
        E 32 b0 0b 2a
        E 0 80 3c 00
        E 0 90 50 2a
        E 16 80 50 00
        E 0 90 3a 2a
        E 32 80 3a 00
        E 0 90 4e 2a
        E 16 80 4e 00
        E 0 90 3b 2a
        E 32 80 3b 00
        E 0 90 4f 2a
        E 16 80 4f 00
        E 0 90 3c 2a
        E 32 80 3c 00
        E 0 90 50 2a
        E 16 80 50 00
        E 0 90 3a 2a
        E 32 80 3a 00
        E 0 90 4e 2a
        E 16 80 4e 00
        E 0 90 3b 2a
        E 32 80 3b 00
        E 0 90 4f 2a
        E 16 80 4f 00
        E 0 90 3c 2a
        E 32 b0 0b 22
        E 0 80 3c 00
        E 0 90 50 22
        E 16 80 50 00
        E 0 90 3a 22
        E 32 80 3a 00
        E 0 90 4e 22
        E 16 80 4e 00
        E 0 90 3b 22
        E 32 80 3b 00
        E 0 90 4f 22
        E 16 80 4f 00
        E 0 90 3c 22
        E 32 80 3c 00
        E 0 90 50 22
        E 16 80 50 00
        E 0 90 3a 22
        E 32 80 3a 00
        E 0 90 4e 22
        E 16 80 4e 00
        E 0 90 3b 22
        E 32 80 3b 00
        E 0 90 4f 22
        E 16 80 4f 00
        E 0 90 3c 22
        E 32 b0 0b 19
        E 0 80 3c 00
        E 0 90 50 19
        E 16 80 50 00
        E 0 90 3a 19
        E 32 80 3a 00
        E 0 90 4e 19
        E 16 80 4e 00
        E 0 90 3b 19
        E 32 80 3b 00
        E 0 90 4f 19
        E 16 80 4f 00
        E 0 90 3c 19
        E 32 80 3c 00
        E 0 90 50 19
        E 16 80 50 00
        E 0 90 3a 19
        E 32 80 3a 00
        E 0 90 4e 19
        E 16 80 4e 00
        E 0 90 3b 19
        E 32 80 3b 00
        E 0 90 4f 19
        E 16 80 4f 00
        E 0 90 3c 19
        E 32 b0 0b 11
        E 0 80 3c 00
        E 0 90 50 11
        E 16 80 50 00
        E 0 90 3a 11
        E 32 80 3a 00
        E 0 90 4e 11
        E 16 80 4e 00
        E 0 90 3b 11
        E 32 80 3b 00
        E 0 90 4f 11
        E 16 80 4f 00
        E 0 90 3c 11
        E 32 80 3c 00
        E 0 90 50 11
        E 16 80 50 00
        E 0 90 3a 11
        E 32 80 3a 00
        E 0 90 4e 11
        E 16 80 4e 00
        E 0 90 3b 11
        E 32 80 3b 00
        E 0 90 4f 11
        E 16 80 4f 00
        E 0 90 3c 11
        E 32 b0 0b 08
        E 0 80 3c 00
        E 0 90 50 08
        E 16 80 50 00
        E 0 90 3a 08
        E 32 80 3a 00
        E 0 90 4e 08
        E 16 80 4e 00
        E 0 90 3b 08
        E 32 80 3b 00
        E 0 90 4f 08
        E 16 80 4f 00
        E 0 90 3c 08
        E 32 80 3c 00
        E 0 90 50 08
        E 16 80 50 00
        E 0 90 3a 08
        E 32 80 3a 00
        E 0 90 4e 08
        E 16 80 4e 00
        E 0 90 3b 08
        E 32 80 3b 00
        E 0 90 4f 08
        E 16 80 4f 00
        E 0 90 3c 08
        E 32 80 3c 00
        E 0 90 50 08
        E 16 80 50 00
        E 0 90 3a 08
        E 32 80 3a 00
        E 0 90 4e 08
        E 16 80 4e 00
        E 0 90 3b 08
        E 32 80 3b 00
        E 0 90 4f 08
        E 16 80 4f 00
        E 0 90 3c 08
        E 32 80 3c 00
        E 0 90 50 08
        E 16 80 50 00
        E 0 90 3a 08
        E 32 80 3a 00
        E 0 90 4e 08
        E 16 80 4e 00
        E 0 90 3b 08
        E 32 80 3b 00
        E 0 90 4f 08
        E 16 80 4f 00
        E 0 90 3c 08
        E 32 b0 0b 11
        E 0 80 3c 00
        E 0 90 50 11
        E 16 80 50 00
        E 0 90 3a 11
        E 32 80 3a 00
        E 0 90 4e 11
        E 16 80 4e 00
        E 0 90 3b 11
        E 32 80 3b 00
        E 0 90 4f 11
        E 16 80 4f 00
        E 0 90 3c 11
        E 32 80 3c 00
        E 0 90 50 11
        E 16 80 50 00
        E 0 90 3a 11
        E 32 80 3a 00
        E 0 90 4e 11
        E 16 80 4e 00
        E 0 90 3b 11
        E 32 80 3b 00
        E 0 90 4f 11
        E 16 80 4f 00
        E 0 90 3c 11
        E 32 b0 0b 19
        E 0 80 3c 00
        E 0 90 50 19
        E 16 80 50 00
        E 0 90 3a 19
        E 16 80 3a 00
        E 0 b0 7b 00
        E 0 ff 2f 00
      >
    >
  >
  <TRACK {0FFEE76A-F98C-445D-9C36-5932383509A7}
    NAME "NES - Pulse 2 [ch1]"
    PEAKCOL 10092441
    BEAT -1
    AUTOMODE 0
    PANLAWFLAGS 3
    VOLPAN 1 0 -1 -1 1
    MUTESOLO 0 0 0
    IPHASE 0
    PLAYOFFS 0 1
    ISBUS 0 0
    BUSCOMP 0 0 0 0 0
    SHOWINMIX 1 0.6667 0.5 1 0.5 0 0 0
    FIXEDLANES 9 0 0 0 0
    SEL 0
    REC 0 5088 1 0 0 0 0 0
    VU 2
    TRACKHEIGHT 0 0 0 0 0 0 0
    INQ 0 0 0 0.5 100 0 0 100
    NCHAN 2
    FX 1
    TRACKID {0FFEE76A-F98C-445D-9C36-5932383509A7}
    PERF 0
    MIDIOUT -1
    MAINSEND 1 0
    <FXCHAIN
      WNDRECT 24 52 700 560
      SHOW 0
      LASTSEL 0
      DOCKED 0
      BYPASS 0 0 0
      <JS "ReapNES Studio/ReapNES_Console.jsfx" ""
        2 15 1 10 80 10 100 2 1 15 1 5 60 10 80 1 1 0 50 0 0 15 1 0 100 0 0 0.500000 0.500000 0.400000 0.300000 0.800000 1 1 0 0 0 0 - - - - - - - - - - - - - - - - - - - - - - - - - -
      >
      FLOATPOS 0 0 0 0
      FXID {493D4ED9-2D2A-42E1-81DF-9BF3ADC0042C}
      WAK 0 0
    >
    <ITEM
      POSITION 0
      LENGTH 4.2768275000000004
      LOOP 0
      ALLTAKES 0
      FADEIN 0 0 0 0 0 0 0
      FADEOUT 0 0 0 0 0 0 0
      MUTE 0 0
      SEL 0
      IGUID {2CFC26DA-364D-4663-A147-B2A143972F47}
      <SOURCE MIDI
        HASDATA 1 480 QN
        CCINTERP 32
        E 0 c1 51
        E 0 b1 0c 10
        E 0 b1 0b 7f
        E 0 91 2d 7f
        E 16 81 2d 00
        E 0 91 5f 7f
        E 32 81 5f 00
        E 0 91 30 7f
        E 16 81 30 00
        E 0 91 39 7f
        E 32 81 39 00
        E 0 91 30 7f
        E 16 81 30 00
        E 0 91 3b 7f
        E 32 81 3b 00
        E 0 91 31 7f
        E 16 81 31 00
        E 0 91 3d 7f
        E 32 81 3d 00
        E 0 91 31 7f
        E 16 81 31 00
        E 0 91 40 7f
        E 32 81 40 00
        E 0 91 32 7f
        E 16 81 32 00
        E 0 91 3d 7f
        E 32 81 3d 00
        E 0 91 31 7f
        E 16 81 31 00
        E 0 91 40 7f
        E 32 81 40 00
        E 0 91 32 7f
        E 16 81 32 00
        E 0 91 42 7f
        E 32 81 42 00
        E 0 91 32 7f
        E 16 81 32 00
        E 0 91 45 7f
        E 32 81 45 00
        E 0 91 32 7f
        E 16 81 32 00
        E 0 91 48 7f
        E 32 81 48 00
        E 0 91 33 7f
        E 16 81 33 00
        E 0 91 40 7f
        E 32 81 40 00
        E 0 91 32 7f
        E 16 81 32 00
        E 0 91 42 7f
        E 32 81 42 00
        E 0 91 32 7f
        E 16 81 32 00
        E 0 91 45 7f
        E 32 81 45 00
        E 0 91 32 7f
        E 16 81 32 00
        E 0 91 48 7f
        E 32 81 48 00
        E 0 91 33 7f
        E 16 81 33 00
        E 0 91 4c 7f
        E 32 81 4c 00
        E 0 91 33 7f
        E 16 81 33 00
        E 0 91 45 7f
        E 32 81 45 00
        E 0 91 32 7f
        E 16 81 32 00
        E 0 91 48 7f
        E 32 81 48 00
        E 0 91 33 7f
        E 16 81 33 00
        E 0 91 4c 7f
        E 32 81 4c 00
        E 0 91 33 7f
        E 16 81 33 00
        E 0 91 51 7f
        E 32 81 51 00
        E 0 91 33 7f
        E 16 81 33 00
        E 0 91 56 7f
        E 32 81 56 00
        E 0 91 33 7f
        E 16 81 33 00
        E 0 91 4c 7f
        E 32 81 4c 00
        E 0 91 33 7f
        E 16 81 33 00
        E 0 91 51 7f
        E 32 81 51 00
        E 0 91 33 7f
        E 16 81 33 00
        E 0 91 56 7f
        E 32 81 56 00
        E 0 91 33 7f
        E 16 81 33 00
        E 0 91 5e 7f
        E 32 81 5e 00
        E 0 91 34 7f
        E 16 81 34 00
        E 0 91 6b 7f
        E 32 b1 0b 08
        E 0 81 6b 00
        E 0 91 34 08
        E 16 81 34 00
        E 0 91 56 08
        E 32 81 56 00
        E 0 91 33 08
        E 16 81 33 00
        E 0 91 5e 08
        E 32 81 5e 00
        E 0 91 34 08
        E 16 81 34 00
        E 0 91 6b 08
        E 32 b1 0b 11
        E 0 81 6b 00
        E 0 91 34 11
        E 16 81 34 00
        E 0 91 56 11
        E 32 81 56 00
        E 0 91 33 11
        E 16 81 33 00
        E 0 91 5e 11
        E 32 81 5e 00
        E 0 91 34 11
        E 16 81 34 00
        E 0 91 6b 11
        E 32 81 6b 00
        E 0 91 34 11
        E 16 81 34 00
        E 0 91 56 11
        E 32 81 56 00
        E 0 91 33 11
        E 16 81 33 00
        E 0 91 5e 11
        E 32 81 5e 00
        E 0 91 34 11
        E 16 81 34 00
        E 0 91 6b 11
        E 32 b1 0b 19
        E 0 81 6b 00
        E 0 91 34 19
        E 16 81 34 00
        E 0 91 56 19
        E 32 81 56 00
        E 0 91 33 19
        E 16 81 33 00
        E 0 91 5e 19
        E 32 81 5e 00
        E 0 91 34 19
        E 16 81 34 00
        E 0 91 6b 19
        E 32 81 6b 00
        E 0 91 34 19
        E 16 81 34 00
        E 0 91 56 19
        E 32 81 56 00
        E 0 91 33 19
        E 16 81 33 00
        E 0 91 5e 19
        E 32 81 5e 00
        E 0 91 34 19
        E 16 81 34 00
        E 0 91 6b 19
        E 32 b1 0b 22
        E 0 81 6b 00
        E 0 91 34 22
        E 16 81 34 00
        E 0 91 56 22
        E 32 81 56 00
        E 0 91 33 22
        E 16 81 33 00
        E 0 91 5e 22
        E 32 81 5e 00
        E 0 91 34 22
        E 16 81 34 00
        E 0 91 6b 22
        E 32 81 6b 00
        E 0 91 34 22
        E 16 81 34 00
        E 0 91 56 22
        E 32 81 56 00
        E 0 91 33 22
        E 16 81 33 00
        E 0 91 5e 22
        E 32 81 5e 00
        E 0 91 34 22
        E 16 81 34 00
        E 0 91 6b 22
        E 32 b1 0b 2a
        E 0 81 6b 00
        E 0 91 34 2a
        E 16 81 34 00
        E 0 91 56 2a
        E 32 81 56 00
        E 0 91 33 2a
        E 16 81 33 00
        E 0 91 5e 2a
        E 32 81 5e 00
        E 0 91 34 2a
        E 16 81 34 00
        E 0 91 6b 2a
        E 32 81 6b 00
        E 0 91 34 2a
        E 16 81 34 00
        E 0 91 56 2a
        E 32 81 56 00
        E 0 91 33 2a
        E 16 81 33 00
        E 0 91 5e 2a
        E 32 81 5e 00
        E 0 91 34 2a
        E 16 81 34 00
        E 0 91 6b 2a
        E 32 b1 0b 22
        E 0 81 6b 00
        E 0 91 34 22
        E 16 81 34 00
        E 0 91 56 22
        E 32 81 56 00
        E 0 91 33 22
        E 16 81 33 00
        E 0 91 5e 22
        E 32 81 5e 00
        E 0 91 34 22
        E 16 81 34 00
        E 0 91 6b 22
        E 32 81 6b 00
        E 0 91 34 22
        E 16 81 34 00
        E 0 91 56 22
        E 32 81 56 00
        E 0 91 33 22
        E 16 81 33 00
        E 0 91 5e 22
        E 32 81 5e 00
        E 0 91 34 22
        E 16 81 34 00
        E 0 91 6b 22
        E 32 b1 0b 19
        E 0 81 6b 00
        E 0 91 34 19
        E 16 81 34 00
        E 0 91 56 19
        E 32 81 56 00
        E 0 91 33 19
        E 16 81 33 00
        E 0 91 5e 19
        E 32 81 5e 00
        E 0 91 34 19
        E 16 81 34 00
        E 0 91 6b 19
        E 32 81 6b 00
        E 0 91 34 19
        E 16 81 34 00
        E 0 91 56 19
        E 32 81 56 00
        E 0 91 33 19
        E 16 81 33 00
        E 0 91 5e 19
        E 32 81 5e 00
        E 0 91 34 19
        E 16 81 34 00
        E 0 91 6b 19
        E 32 b1 0b 11
        E 0 81 6b 00
        E 0 91 34 11
        E 16 81 34 00
        E 0 91 56 11
        E 32 81 56 00
        E 0 91 33 11
        E 16 81 33 00
        E 0 91 5e 11
        E 32 81 5e 00
        E 0 91 34 11
        E 16 81 34 00
        E 0 91 6b 11
        E 32 81 6b 00
        E 0 91 34 11
        E 16 81 34 00
        E 0 91 56 11
        E 32 81 56 00
        E 0 91 33 11
        E 16 81 33 00
        E 0 91 5e 11
        E 32 81 5e 00
        E 0 91 34 11
        E 16 81 34 00
        E 0 91 6b 11
        E 32 b1 0b 08
        E 0 81 6b 00
        E 0 91 34 08
        E 16 81 34 00
        E 0 91 56 08
        E 32 81 56 00
        E 0 91 33 08
        E 16 81 33 00
        E 0 91 5e 08
        E 32 81 5e 00
        E 0 91 34 08
        E 16 81 34 00
        E 0 91 6b 08
        E 32 81 6b 00
        E 0 91 34 08
        E 16 81 34 00
        E 0 91 56 08
        E 32 81 56 00
        E 0 91 33 08
        E 16 81 33 00
        E 0 91 5e 08
        E 32 81 5e 00
        E 0 91 34 08
        E 16 81 34 00
        E 0 91 6b 08
        E 32 81 6b 00
        E 144 91 34 08
        E 16 81 34 00
        E 0 91 56 08
        E 32 81 56 00
        E 0 91 33 08
        E 16 81 33 00
        E 0 91 5e 08
        E 32 81 5e 00
        E 0 91 34 08
        E 16 81 34 00
        E 0 91 6b 08
        E 32 b1 0b 11
        E 0 81 6b 00
        E 0 91 34 11
        E 16 81 34 00
        E 0 91 56 11
        E 32 81 56 00
        E 0 91 33 11
        E 16 81 33 00
        E 0 91 5e 11
        E 32 81 5e 00
        E 0 91 34 11
        E 16 81 34 00
        E 0 91 6b 11
        E 32 81 6b 00
        E 0 91 34 11
        E 16 81 34 00
        E 0 91 56 11
        E 32 81 56 00
        E 0 91 33 11
        E 16 81 33 00
        E 0 91 5e 11
        E 32 81 5e 00
        E 0 91 34 11
        E 16 81 34 00
        E 0 91 6b 11
        E 32 b1 0b 19
        E 0 81 6b 00
        E 0 91 34 19
        E 16 81 34 00
        E 0 91 56 19
        E 32 81 56 00
        E 0 91 33 19
        E 16 81 33 00
        E 0 91 5e 19
        E 32 81 5e 00
        E 0 91 34 19
        E 16 81 34 00
        E 0 91 6b 19
        E 32 81 6b 00
        E 0 91 34 19
        E 16 81 34 00
        E 0 91 56 19
        E 16 81 56 00
        E 0 b1 7b 00
        E 0 ff 2f 00
      >
    >
  >
  <TRACK {6AE5FA78-9192-4FF4-A0D3-6BF065FFB531}
    NAME "NES - Triangle [ch2]"
    PEAKCOL 16744192
    BEAT -1
    AUTOMODE 0
    PANLAWFLAGS 3
    VOLPAN 1 0 -1 -1 1
    MUTESOLO 0 0 0
    IPHASE 0
    PLAYOFFS 0 1
    ISBUS 0 0
    BUSCOMP 0 0 0 0 0
    SHOWINMIX 1 0.6667 0.5 1 0.5 0 0 0
    FIXEDLANES 9 0 0 0 0
    SEL 0
    REC 0 5088 1 0 0 0 0 0
    VU 2
    TRACKHEIGHT 0 0 0 0 0 0 0
    INQ 0 0 0 0.5 100 0 0 100
    NCHAN 2
    FX 1
    TRACKID {6AE5FA78-9192-4FF4-A0D3-6BF065FFB531}
    PERF 0
    MIDIOUT -1
    MAINSEND 1 0
    <FXCHAIN
      WNDRECT 24 52 700 560
      SHOW 0
      LASTSEL 0
      DOCKED 0
      BYPASS 0 0 0
      <JS "ReapNES Studio/ReapNES_Console.jsfx" ""
        2 15 1 10 80 10 100 2 1 15 1 5 60 10 80 1 1 0 50 0 0 15 1 0 100 0 0 0.500000 0.500000 0.400000 0.300000 0.800000 2 1 0 0 0 0 - - - - - - - - - - - - - - - - - - - - - - - - - -
      >
      FLOATPOS 0 0 0 0
      FXID {9C6717A1-C6E9-48E6-AA40-B59011E8D4EE}
      WAK 0 0
    >
    <ITEM
      POSITION 0
      LENGTH 4.2768275000000004
      LOOP 0
      ALLTAKES 0
      FADEIN 0 0 0 0 0 0 0
      FADEOUT 0 0 0 0 0 0 0
      MUTE 0 0
      SEL 0
      IGUID {425470D8-1966-4A6F-BFDF-221ED4515C57}
      <SOURCE MIDI
        HASDATA 1 480 QN
        CCINTERP 32
        E 0 c2 26
        E 0 b2 0b 7f
        E 0 92 34 7f
        E 16 82 34 00
        E 32 b2 0b 7f
        E 0 92 35 7f
        E 16 82 35 00
        E 32 b2 0b 7f
        E 0 92 36 7f
        E 16 82 36 00
        E 32 b2 0b 7f
        E 0 92 37 7f
        E 16 82 37 00
        E 32 b2 0b 7f
        E 0 92 38 7f
        E 16 82 38 00
        E 32 b2 0b 7f
        E 0 92 37 7f
        E 16 82 37 00
        E 32 b2 0b 7f
        E 0 92 38 7f
        E 16 82 38 00
        E 32 b2 0b 7f
        E 0 92 39 7f
        E 16 82 39 00
        E 32 b2 0b 7f
        E 0 92 3a 7f
        E 16 82 3a 00
        E 32 b2 0b 7f
        E 0 92 3b 7f
        E 16 82 3b 00
        E 32 b2 0b 7f
        E 0 92 39 7f
        E 16 82 39 00
        E 32 b2 0b 7f
        E 0 92 3a 7f
        E 16 82 3a 00
        E 32 b2 0b 7f
        E 0 92 3b 7f
        E 16 82 3b 00
        E 32 b2 0b 7f
        E 0 92 3c 7f
        E 16 82 3c 00
        E 32 b2 0b 7f
        E 0 92 3d 7f
        E 16 82 3d 00
        E 32 b2 0b 7f
        E 0 92 3a 7f
        E 16 82 3a 00
        E 32 b2 0b 7f
        E 0 92 3b 7f
        E 16 82 3b 00
        E 32 b2 0b 7f
        E 0 92 3c 7f
        E 16 82 3c 00
        E 32 b2 0b 7f
        E 0 92 3d 7f
        E 16 82 3d 00
        E 32 b2 0b 7f
        E 0 92 3e 7f
        E 16 82 3e 00
        E 32 b2 0b 7f
        E 0 92 3c 7f
        E 16 82 3c 00
        E 32 b2 0b 7f
        E 0 92 3d 7f
        E 16 82 3d 00
        E 32 b2 0b 7f
        E 0 92 3e 7f
        E 16 82 3e 00
        E 32 b2 0b 7f
        E 0 92 3f 7f
        E 16 82 3f 00
        E 32 b2 0b 7f
        E 0 92 40 7f
        E 16 82 40 00
        E 3232 b2 7b 00
        E 0 ff 2f 00
      >
    >
  >
  <TRACK {971E38E0-D704-4763-B59A-561ED67728B6}
    NAME "NES - Noise / Drums [ch3]"
    PEAKCOL 11184810
    BEAT -1
    AUTOMODE 0
    PANLAWFLAGS 3
    VOLPAN 1 0 -1 -1 1
    MUTESOLO 0 0 0
    IPHASE 0
    PLAYOFFS 0 1
    ISBUS 0 0
    BUSCOMP 0 0 0 0 0
    SHOWINMIX 1 0.6667 0.5 1 0.5 0 0 0
    FIXEDLANES 9 0 0 0 0
    SEL 0
    REC 0 5088 1 0 0 0 0 0
    VU 2
    TRACKHEIGHT 0 0 0 0 0 0 0
    INQ 0 0 0 0.5 100 0 0 100
    NCHAN 2
    FX 1
    TRACKID {971E38E0-D704-4763-B59A-561ED67728B6}
    PERF 0
    MIDIOUT -1
    MAINSEND 1 0
    <FXCHAIN
      WNDRECT 24 52 700 560
      SHOW 0
      LASTSEL 0
      DOCKED 0
      BYPASS 0 0 0
      <JS "ReapNES Studio/ReapNES_Console.jsfx" ""
        2 15 1 10 80 10 100 2 1 15 1 5 60 10 80 1 1 0 50 0 0 15 1 0 100 0 0 0.500000 0.500000 0.400000 0.300000 0.800000 3 1 0 0 0 0 - - - - - - - - - - - - - - - - - - - - - - - - - -
      >
      FLOATPOS 0 0 0 0
      FXID {53E5C7C8-00D9-40C8-BEE8-3603C2B41AE3}
      WAK 0 0
    >
    <ITEM
      POSITION 0
      LENGTH 4.2768275000000004
      LOOP 0
      ALLTAKES 0
      FADEIN 0 0 0 0 0 0 0
      FADEOUT 0 0 0 0 0 0 0
      MUTE 0 0
      SEL 0
      IGUID {CDF519D2-D2C9-4C26-85FF-DC79C6B8F5ED}
      <SOURCE MIDI
        HASDATA 1 480 QN
        CCINTERP 32
        E 0 93 2a 7f
        E 32 83 2a 00
        E 0 93 2a 7f
        E 16 83 2a 00
        E 0 93 2a 7f
        E 32 83 2a 00
        E 0 93 2a 7f
        E 16 83 2a 00
        E 0 93 2a 7f
        E 32 83 2a 00
        E 0 93 2a 7f
        E 16 83 2a 00
        E 0 93 2a 7f
        E 32 83 2a 00
        E 0 93 2a 7f
        E 16 83 2a 00
        E 0 93 2a 7f
        E 32 83 2a 00
        E 0 93 2a 7f
        E 16 83 2a 00
        E 0 93 2a 7f
        E 32 83 2a 00
        E 0 93 2a 7f
        E 16 83 2a 00
        E 0 93 2a 7f
        E 32 83 2a 00
        E 0 93 2a 7f
        E 16 83 2a 00
        E 0 93 2a 7f
        E 32 83 2a 00
        E 0 93 2a 7f
        E 16 83 2a 00
        E 0 93 2a 7f
        E 32 83 2a 00
        E 0 93 2a 7f
        E 16 83 2a 00
        E 0 93 2a 7f
        E 32 83 2a 00
        E 0 93 2a 7f
        E 16 83 2a 00
        E 0 93 2a 7f
        E 32 83 2a 00
        E 0 93 2a 7f
        E 16 83 2a 00
        E 0 93 2a 7f
        E 32 83 2a 00
        E 0 93 2a 7f
        E 16 83 2a 00
        E 0 93 2a 7f
        E 32 83 2a 00
        E 0 93 2a 7f
        E 16 83 2a 00
        E 0 93 2a 7f
        E 32 83 2a 00
        E 0 93 2a 7f
        E 16 83 2a 00
        E 0 93 2a 7f
        E 32 83 2a 00
        E 0 93 2a 7f
        E 16 83 2a 00
        E 0 93 2a 7f
        E 32 83 2a 00
        E 0 93 2a 7f
        E 16 83 2a 00
        E 0 93 2a 7f
        E 32 83 2a 00
        E 0 93 2a 7f
        E 16 83 2a 00
        E 0 93 2a 7f
        E 32 83 2a 00
        E 0 93 2a 7f
        E 16 83 2a 00
        E 0 93 2a 7f
        E 32 83 2a 00
        E 0 93 2a 7f
        E 16 83 2a 00
        E 0 93 2a 7f
        E 32 83 2a 00
        E 0 93 2a 7f
        E 16 83 2a 00
        E 0 93 2a 7f
        E 32 83 2a 00
        E 0 93 2a 7f
        E 16 83 2a 00
        E 0 93 2a 7f
        E 32 83 2a 00
        E 0 93 2a 7f
        E 16 83 2a 00
        E 0 93 2a 7f
        E 32 83 2a 00
        E 0 93 2a 7f
        E 16 83 2a 00
        E 0 93 2a 7f
        E 32 83 2a 00
        E 0 93 2a 7f
        E 16 83 2a 00
        E 0 93 2a 7f
        E 32 83 2a 00
        E 0 93 2a 7f
        E 16 83 2a 00
        E 3200 b3 7b 00
        E 0 ff 2f 00
      >
    >
  >
>