<REAPER_PROJECT 0.1 "7.27/win64" 1707000000
  <NOTES 0 2
    |ReapNES Studio Project
    |MIDI Import - Zelda_II_song_79_rom_v1
  >
  RIPPLE 0
  GROUPOVERRIDE 0 0 0
  AUTOXFADE 129
  ENVATTACH 3
  POOLEDENVATTACH 0
  MIXERUIFLAGS 11 48
  ENVFADESZ10 40
  PEAKGAIN 1
  FEEDBACK 0
  PANLAW 1
  PROJOFFS 0 0 0
  MAXPROJLEN 0 0
  GRID 3199 8 1 8 1 0 0 0
  TIMEMODE 1 5 -1 30 0 0 -1
  VIDEO_CONFIG 0 0 65792
  PANMODE 3
  PANLAWFLAGS 3
  CURSOR 0
  ZOOM 100 0 0
  VZOOMEX 6 0
  USE_REC_CFG 0
  RECMODE 1
  SMPTESYNC 0 30 100 40 1000 300 0 0 1 0 0
  LOOP 0
  LOOPGRAN 0 4
  RECORD_PATH "Media" ""
  <RECORD_CFG
    ZXZhdxgAAQ==
  >
  <APPLYFX_CFG
  >
  RENDER_FILE ""
  RENDER_PATTERN ""
  RENDER_FMT 0 2 0
  RENDER_1X 0
  RENDER_RANGE 1 0 0 18 1000
  RENDER_RESAMPLE 3 0 1
  RENDER_ADDTOPROJ 0
  RENDER_STEMS 0
  RENDER_DITHER 0
  TIMELOCKMODE 1
  TEMPOENVLOCKMODE 1
  ITEMMIX 1
  DEFPITCHMODE 589824 0
  TAKELANE 1
  SAMPLERATE 44100 0 0
  <RENDER_CFG
    ZXZhdxgAAQ==
  >
  LOCK 1
  <METRONOME 6 2
    VOL 0.25 0.125
    BEATLEN 4
    FREQ 1760 880 1
    SAMPLES "" ""
    SPLIGNORE 0 0
    SPLDEF 2 660 "" 0
    SPLDEF 3 440 "" 0
    PATTERN 0 169
    PATTERNSTR ABBB
    MULT 1
  >
  GLOBAL_AUTO -1
  TEMPO 128.59999614200012 4 4
  PLAYRATE 1 0 0.25 4
  SELECTION 0 0
  SELECTION2 0 0
  MASTERAUTOMODE 0
  MASTERTRACKHEIGHT 0 0
  MASTERPEAKCOL 16576
  MASTERMUTESOLO 0
  MASTERTRACKVIEW 0 0.6667 0.5 0.5 0 0 0 0 0 0 0 0 0 0
  MASTERHWOUT 0 0 1 0 0 0 0 -1
  MASTER_NCH 2 2
  MASTER_VOLUME 1 0 -1 -1 1
  MASTER_PANMODE 3
  MASTER_PANLAWFLAGS 3
  MASTER_FX 1
  MASTER_SEL 0
  <MASTERPLAYSPEEDENV
    EGUID {D7C150B8-D2F3-48A1-BCE7-0FF8D7200ED9}
    ACT 0 -1
    VIS 0 1 1
    LANEHEIGHT 0 0
    ARM 0
    DEFSHAPE 0 -1 -1
  >
  <TEMPOENVEX
    EGUID {24CECC1C-D769-4671-97B7-08AFF3C2B6CF}
    ACT 1 -1
    VIS 1 0 1
    LANEHEIGHT 0 0
    ARM 0
    DEFSHAPE 1 -1 -1
  >
  <PROJBAY
  >
  <TRACK {6B43DE64-630B-44A8-A707-E21A9444B460}
    NAME "NES - Pulse 1 [ch0]"
    PEAKCOL 16576606
    BEAT -1
    AUTOMODE 0
    PANLAWFLAGS 3
    VOLPAN 1 0 -1 -1 1
    MUTESOLO 0 0 0
    IPHASE 0
    PLAYOFFS 0 1
    ISBUS 0 0
    BUSCOMP 0 0 0 0 0
    SHOWINMIX 1 0.6667 0.5 1 0.5 0 0 0
    FIXEDLANES 9 0 0 0 0
    SEL 1
    REC 1 5088 1 0 0 0 0 0
    VU 2
    TRACKHEIGHT 0 0 0 0 0 0 0
    INQ 0 0 0 0.5 100 0 0 100
    NCHAN 2
    FX 1
    TRACKID {6B43DE64-630B-44A8-A707-E21A9444B460}
    PERF 0
    MIDIOUT -1
    MAINSEND 1 0
    <FXCHAIN
      WNDRECT 24 52 700 560
      SHOW 0
      LASTSEL 0
      DOCKED 0
      BYPASS 0 0 0
      <JS "ReapNES Studio/ReapNES_Console.jsfx" ""
        2 15 1 10 80 10 100 2 1 15 1 5 60 10 80 1 1 0 50 0 0 15 1 0 100 0 0 0.500000 0.500000 0.400000 0.300000 0.800000 0 1 0 0 0 0 - - - - - - - - - - - - - - - - - - - - - - - - - -
      >
      FLOATPOS 0 0 0 0
      FXID {B2A02C8C-1E06-4B9D-B820-E9CD93AB3590}
      WAK 0 0
    >
    <ITEM
      POSITION 0
      LENGTH 74.65008
      LOOP 0
      ALLTAKES 0
      FADEIN 0 0 0 0 0 0 0
      FADEOUT 0 0 0 0 0 0 0
      MUTE 0 0
      SEL 0
      IGUID {7BEA8202-9E3E-4E35-A427-E3BC0FCD406D}
      <SOURCE MIDI
        HASDATA 1 480 QN
        CCINTERP 32
        E 0 c0 50
        E 128 b0 0c 40
        E 0 b0 0b 22
        E 0 90 36 22
        E 16 b0 0b 19
        E 64 b0 0b 11
        E 64 b0 0b 08
        E 64 80 36 00
        E 48 b0 0b 22
        E 0 90 32 22
        E 48 b0 0b 19
        E 64 b0 0b 11
        E 64 b0 0b 08
        E 64 80 32 00
        E 272 b0 0b 2a
        E 0 90 3e 2a
        E 16 b0 0b 22
        E 64 b0 0b 19
        E 64 b0 0b 11
        E 64 b0 0b 08
        E 64 80 3e 00
        E 1008 b0 0b 2a
        E 0 90 43 2a
        E 48 b0 0b 22
        E 64 b0 0b 19
        E 64 b0 0b 11
        E 64 b0 0b 08
        E 64 80 43 00
        E 208 b0 0b 33
        E 0 90 41 33
        E 16 b0 0b 2a
        E 64 b0 0b 22
        E 64 b0 0b 19
        E 64 b0 0b 11
        E 48 b0 0b 33
        E 48 b0 0b 2a
        E 64 b0 0b 22
        E 64 b0 0b 19
        E 64 b0 0b 11
        E 64 b0 0b 08
        E 64 80 41 00
        E 1680 b0 0b 3b
        E 0 90 3f 3b
        E 16 b0 0b 33
        E 64 b0 0b 2a
        E 64 b0 0b 22
        E 64 b0 0b 19
        E 64 b0 0b 11
        E 64 b0 0b 08
        E 64 80 3f 00
        E 880 b0 0b 3b
        E 0 90 3a 3b
        E 48 b0 0b 33
        E 64 b0 0b 2a
        E 64 b0 0b 22
        E 64 b0 0b 19
        E 64 b0 0b 11
        E 64 b0 0b 08
        E 64 80 3a 00
        E 80 b0 0b 44
        E 0 90 3f 44
        E 16 b0 0b 3b
        E 64 b0 0b 33
        E 64 b0 0b 2a
        E 64 b0 0b 22
        E 48 b0 0b 44
        E 0 80 3f 00
        E 0 90 3e 44
        E 48 b0 0b 3b
        E 64 b0 0b 33
        E 64 b0 0b 2a
        E 64 b0 0b 22
        E 64 b0 0b 19
        E 64 b0 0b 11
        E 64 b0 0b 08
        E 64 80 3e 00
        E 272 b0 0b 4c
        E 0 90 39 4c
        E 16 b0 0b 44
        E 64 b0 0b 3b
        E 64 b0 0b 33
        E 64 b0 0b 2a
        E 64 b0 0b 22
        E 64 b0 0b 19
        E 64 b0 0b 11
        E 64 b0 0b 08
        E 64 80 39 00
        E 240 b0 0b 4c
        E 0 90 36 4c
        E 48 b0 0b 44
        E 64 b0 0b 3b
        E 64 b0 0b 33
        E 64 b0 0b 2a
        E 64 b0 0b 22
        E 64 b0 0b 19
        E 16 80 36 00
        E 128 b0 0b 55
        E 0 90 48 55
        E 16 b0 0b 4c
        E 64 b0 0b 44
        E 64 b0 0b 3b
        E 64 b0 0b 33
        E 48 b0 0b 55
        E 0 80 48 00
        E 0 90 47 55
        E 48 b0 0b 4c
        E 64 b0 0b 44
        E 64 b0 0b 3b
        E 64 b0 0b 33
        E 16 b0 0b 5d
        E 0 80 47 00
        E 0 90 43 5d
        E 16 b0 0b 55
        E 64 b0 0b 4c
        E 64 b0 0b 44
        E 64 b0 0b 3b
        E 48 b0 0b 5d
        E 0 80 43 00
        E 0 90 3e 5d
        E 48 b0 0b 55
        E 64 b0 0b 4c
        E 16 80 3e 00
        E 128 b0 0b 66
        E 0 90 48 66
        E 16 b0 0b 5d
        E 64 b0 0b 55
        E 64 b0 0b 4c
        E 64 b0 0b 44
        E 48 b0 0b 66
        E 0 80 48 00
        E 0 90 47 66
        E 48 b0 0b 5d
        E 64 b0 0b 55
        E 64 b0 0b 4c
        E 64 b0 0b 44
        E 16 b0 0b 6e
        E 0 80 47 00
        E 0 90 43 6e
        E 16 b0 0b 66
        E 64 b0 0b 5d
        E 64 b0 0b 55
        E 64 b0 0b 4c
        E 48 b0 0b 6e
        E 0 80 43 00
        E 0 90 3e 6e
        E 48 b0 0b 66
        E 64 b0 0b 5d
        E 16 80 3e 00
        E 128 b0 0b 77
        E 0 90 48 77
        E 16 b0 0b 6e
        E 64 b0 0b 66
        E 64 b0 0b 5d
        E 64 b0 0b 55
        E 48 b0 0b 77
        E 0 80 48 00
        E 0 90 47 77
        E 48 b0 0b 6e
        E 64 b0 0b 66
        E 64 b0 0b 5d
        E 64 b0 0b 55
        E 16 b0 0b 7f
        E 0 80 47 00
        E 0 90 43 7f
        E 16 b0 0b 77
        E 64 b0 0b 6e
        E 64 b0 0b 66
        E 64 b0 0b 5d
        E 48 b0 0b 7f
        E 0 80 43 00
        E 0 90 3e 7f
        E 48 b0 0b 77
        E 64 b0 0b 6e
        E 16 80 3e 00
        E 128 b0 0b 7f
        E 0 90 48 7f
        E 80 b0 0b 77
        E 64 b0 0b 6e
        E 64 b0 0b 66
        E 48 b0 0b 7f
        E 0 80 48 00
        E 0 90 47 7f
        E 112 b0 0b 77
        E 64 b0 0b 6e
        E 64 b0 0b 66
        E 16 b0 0b 7f
        E 0 80 47 00
        E 0 90 43 7f
        E 128 b0 0b 77
        E 64 b0 0b 6e
        E 64 b0 0b 7f
        E 0 80 43 00
        E 0 90 3e 7f
        E 128 80 3e 00
        E 128 90 48 7f
        E 128 b0 0b 77
        E 64 b0 0b 6e
        E 64 b0 0b 7f
        E 0 80 48 00
        E 0 90 47 7f
        E 128 b0 0b 77
        E 64 b0 0b 6e
        E 64 b0 0b 7f
        E 0 80 47 00
        E 0 90 43 7f
        E 128 b0 0b 77
        E 64 b0 0b 6e
        E 64 b0 0b 7f
        E 0 80 43 00
        E 0 90 3e 7f
        E 128 80 3e 00
        E 128 90 48 7f
        E 128 b0 0b 77
        E 64 b0 0b 6e
        E 64 b0 0b 7f
        E 0 80 48 00
        E 0 90 47 7f
        E 128 b0 0b 77
        E 64 b0 0b 6e
        E 64 b0 0b 7f
        E 0 80 47 00
        E 0 90 43 7f
        E 128 b0 0b 77
        E 64 b0 0b 6e
        E 64 b0 0b 7f
        E 0 80 43 00
        E 0 90 3e 7f
        E 128 b0 0b 66
        E 0 80 3e 00
        E 0 90 3b 66
        E 64 b0 0b 5d
        E 64 b0 0b 55
        E 128 b0 0b 4c
        E 128 b0 0b 44
        E 128 b0 0b 3b
        E 128 b0 0b 33
        E 128 b0 0b 2a
        E 128 b0 0b 22
        E 128 b0 0b 19
        E 128 b0 0b 11
        E 128 b0 0b 66
        E 0 80 3b 00
        E 0 90 37 66
        E 64 b0 0b 5d
        E 64 b0 0b 55
        E 128 b0 0b 4c
        E 128 b0 0b 44
        E 128 b0 0b 66
        E 0 80 37 00
        E 0 90 3b 66
        E 64 b0 0b 5d
        E 64 b0 0b 55
        E 128 b0 0b 66
        E 0 80 3b 00
        E 0 90 39 66
        E 64 b0 0b 5d
        E 64 b0 0b 55
        E 128 b0 0b 4c
        E 128 b0 0b 44
        E 128 b0 0b 3b
        E 128 b0 0b 33
        E 128 b0 0b 2a
        E 128 b0 0b 22
        E 128 b0 0b 19
        E 128 b0 0b 11
        E 128 b0 0b 08
        E 128 80 39 00
        E 640 b0 0b 66
        E 0 90 37 66
        E 64 b0 0b 5d
        E 64 b0 0b 55
        E 128 b0 0b 4c
        E 128 b0 0b 44
        E 128 b0 0b 3b
        E 128 b0 0b 33
        E 128 b0 0b 2a
        E 128 b0 0b 22
        E 128 b0 0b 19
        E 128 b0 0b 11
        E 128 b0 0b 66
        E 0 80 37 00
        E 0 90 33 66
        E 64 b0 0b 5d
        E 64 b0 0b 55
        E 128 b0 0b 4c
        E 128 b0 0b 44
        E 128 b0 0b 66
        E 0 80 33 00
        E 0 90 37 66
        E 64 b0 0b 5d
        E 64 b0 0b 55
        E 128 b0 0b 66
        E 0 80 37 00
        E 0 90 36 66
        E 64 b0 0b 5d
        E 64 b0 0b 55
        E 128 b0 0b 4c
        E 128 b0 0b 44
        E 128 b0 0b 3b
        E 128 b0 0b 33
        E 128 b0 0b 2a
        E 128 b0 0b 22
        E 128 b0 0b 19
        E 128 b0 0b 11
        E 128 b0 0b 08
        E 128 80 36 00
        E 640 b0 0b 66
        E 0 90 3b 66
        E 64 b0 0b 5d
        E 64 b0 0b 55
        E 128 b0 0b 4c
        E 128 b0 0b 44
        E 128 b0 0b 3b
        E 128 b0 0b 33
        E 128 b0 0b 2a
        E 128 b0 0b 22
        E 128 b0 0b 19
        E 128 b0 0b 11
        E 128 b0 0b 66
        E 64 b0 0b 5d
        E 64 b0 0b 55
        E 128 b0 0b 4c
        E 128 b0 0b 44
        E 128 b0 0b 66
        E 64 b0 0b 5d
        E 64 b0 0b 55
        E 128 b0 0b 66
        E 0 80 3b 00
        E 0 90 39 66
        E 64 b0 0b 5d
        E 64 b0 0b 55
        E 128 b0 0b 4c
        E 128 b0 0b 44
        E 128 b0 0b 3b
        E 128 b0 0b 33
        E 128 b0 0b 2a
        E 128 b0 0b 22
        E 128 b0 0b 19
        E 128 b0 0b 11
        E 128 b0 0b 08
        E 128 80 39 00
        E 640 b0 0b 66
        E 0 90 37 66
        E 64 b0 0b 5d
        E 64 b0 0b 55
        E 128 b0 0b 4c
        E 128 b0 0b 44
        E 128 b0 0b 3b
        E 128 b0 0b 33
        E 128 b0 0b 2a
        E 128 b0 0b 22
        E 128 b0 0b 19
        E 128 b0 0b 11
        E 128 b0 0b 66
        E 64 b0 0b 5d
        E 64 b0 0b 55
        E 128 b0 0b 4c
        E 128 b0 0b 44
        E 128 b0 0b 66
        E 64 b0 0b 5d
        E 64 b0 0b 55
        E 128 b0 0b 66
        E 0 80 37 00
        E 0 90 36 66
        E 64 b0 0b 5d
        E 64 b0 0b 55
        E 128 b0 0b 4c
        E 128 b0 0b 44
        E 128 b0 0b 3b
        E 128 b0 0b 33
        E 128 b0 0b 66
        E 64 b0 0b 5d
        E 64 b0 0b 55
        E 128 b0 0b 4c
        E 128 b0 0b 44
        E 128 b0 0b 3b
        E 128 b0 0b 33
        E 128 b0 0b 66
        E 0 80 36 00
        E 0 90 32 66
        E 64 b0 0b 5d
        E 64 b0 0b 55
        E 128 b0 0b 4c
        E 128 b0 0b 44
        E 128 b0 0b 66
        E 0 80 32 00
        E 0 90 43 66
        E 64 b0 0b 5d
        E 64 b0 0b 55
        E 128 b0 0b 4c
        E 128 b0 0b 44
        E 128 b0 0b 3b
        E 128 b0 0b 33
        E 128 b0 0b 66
        E 64 b0 0b 5d
        E 64 b0 0b 55
        E 128 b0 0b 4c
        E 128 b0 0b 44
        E 128 b0 0b 66
        E 64 b0 0b 5d
        E 64 b0 0b 55
        E 128 b0 0b 4c
        E 128 b0 0b 44
        E 128 b0 0b 3b
        E 128 b0 0b 33
        E 128 b0 0b 66
        E 0 80 43 00
        E 0 90 44 66
        E 64 b0 0b 5d
        E 64 b0 0b 55
        E 128 b0 0b 4c
        E 128 b0 0b 44
        E 128 b0 0b 3b
        E 128 b0 0b 33
        E 128 b0 0b 66
        E 64 b0 0b 5d
        E 64 b0 0b 55
        E 128 b0 0b 4c
        E 128 b0 0b 44
        E 128 b0 0b 66
        E 64 b0 0b 5d
        E 64 b0 0b 55
        E 128 b0 0b 4c
        E 128 b0 0b 44
        E 128 b0 0b 3b
        E 128 b0 0b 33
        E 128 b0 0b 66
        E 0 80 44 00
        E 0 90 45 66
        E 64 b0 0b 5d
        E 64 b0 0b 55
        E 128 b0 0b 4c
        E 128 b0 0b 44
        E 128 b0 0b 3b
        E 128 b0 0b 33
        E 128 b0 0b 66
        E 64 b0 0b 5d
        E 64 b0 0b 55
        E 128 b0 0b 4c
        E 128 b0 0b 44
        E 128 b0 0b 66
        E 64 b0 0b 5d
        E 64 b0 0b 55
        E 128 b0 0b 4c
        E 128 b0 0b 44
        E 128 b0 0b 3b
        E 128 b0 0b 33
        E 128 b0 0b 66
        E 0 80 45 00
        E 0 90 46 66
        E 64 b0 0b 5d
        E 64 b0 0b 55
        E 128 b0 0b 4c
        E 128 b0 0b 44
        E 128 b0 0b 3b
        E 128 b0 0b 33
        E 128 b0 0b 66
        E 0 80 46 00
        E 0 90 48 66
        E 64 b0 0b 5d
        E 64 b0 0b 55
        E 128 b0 0b 4c
        E 128 b0 0b 44
        E 128 b0 0b 3b
        E 128 b0 0b 33
        E 128 b0 0b 2a
        E 128 b0 0b 22
        E 128 b0 0b 19
        E 128 b0 0b 11
        E 128 80 48 00
        E 512 b0 0b 66
        E 0 90 34 66
        E 64 b0 0b 5d
        E 64 b0 0b 55
        E 128 b0 0b 4c
        E 128 b0 0b 44
        E 128 b0 0b 66
        E 0 80 34 00
        E 0 90 32 66
        E 64 b0 0b 5d
        E 64 b0 0b 55
        E 128 b0 0b 66
        E 0 80 32 00
        E 0 90 2f 66
        E 64 b0 0b 5d
        E 64 b0 0b 55
        E 128 b0 0b 4c
        E 128 b0 0b 44
        E 128 b0 0b 66
        E 64 b0 0b 5d
        E 64 b0 0b 55
        E 128 b0 0b 4c
        E 128 b0 0b 44
        E 128 b0 0b 66
        E 0 80 2f 00
        E 0 90 2b 66
        E 64 b0 0b 5d
        E 64 b0 0b 55
        E 128 b0 0b 4c
        E 128 b0 0b 44
        E 128 b0 0b 3b
        E 128 b0 0b 33
        E 128 b0 0b 66
        E 0 80 2b 00
        E 0 90 2d 66
        E 64 b0 0b 5d
        E 64 b0 0b 55
        E 128 b0 0b 4c
        E 128 b0 0b 44
        E 128 b0 0b 66
        E 0 80 2d 00
        E 0 90 2f 66
        E 64 b0 0b 5d
        E 64 b0 0b 55
        E 128 b0 0b 4c
        E 128 b0 0b 44
        E 128 b0 0b 66
        E 0 80 2f 00
        E 0 90 2d 66
        E 64 b0 0b 5d
        E 64 b0 0b 55
        E 128 b0 0b 4c
        E 128 b0 0b 44
        E 128 b0 0b 66
        E 64 b0 0b 5d
        E 64 b0 0b 55
        E 128 b0 0b 4c
        E 128 b0 0b 44
        E 128 b0 0b 66
        E 64 b0 0b 5d
        E 64 b0 0b 55
        E 128 b0 0b 4c
        E 128 b0 0b 44
        E 128 b0 0b 66
        E 0 80 2d 00
        E 0 90 29 66
        E 64 b0 0b 5d
        E 64 b0 0b 55
        E 128 b0 0b 4c
        E 128 b0 0b 44
        E 128 b0 0b 66
        E 0 80 29 00
        E 0 90 2f 66
        E 64 b0 0b 5d
        E 64 b0 0b 55
        E 128 b0 0b 66
        E 0 80 2f 00
        E 0 90 2d 66
        E 64 b0 0b 5d
        E 64 b0 0b 55
        E 128 b0 0b 4c
        E 128 b0 0b 44
        E 128 b0 0b 66
        E 0 80 2d 00
        E 0 90 2b 66
        E 64 b0 0b 5d
        E 64 b0 0b 55
        E 128 b0 0b 4c
        E 128 b0 0b 44
        E 128 b0 0b 3b
        E 128 b0 0b 33
        E 128 b0 0b 2a
        E 128 b0 0b 22
        E 128 b0 0b 19
        E 128 b0 0b 11
        E 128 b0 0b 08
        E 128 80 2b 00
        E 384 b0 0b 66
        E 0 90 34 66
        E 64 b0 0b 5d
        E 64 b0 0b 55
        E 128 b0 0b 4c
        E 128 b0 0b 44
        E 128 b0 0b 66
        E 0 80 34 00
        E 0 90 32 66
        E 64 b0 0b 5d
        E 64 b0 0b 55
        E 128 b0 0b 66
        E 0 80 32 00
        E 0 90 2f 66
        E 64 b0 0b 5d
        E 64 b0 0b 55
        E 128 b0 0b 4c
        E 128 b0 0b 44
        E 128 b0 0b 66
        E 64 b0 0b 5d
        E 64 b0 0b 55
        E 128 b0 0b 4c
        E 128 b0 0b 44
        E 128 b0 0b 66
        E 0 80 2f 00
        E 0 90 2b 66
        E 64 b0 0b 5d
        E 64 b0 0b 55
        E 128 b0 0b 4c
        E 128 b0 0b 44
        E 128 b0 0b 3b
        E 128 b0 0b 33
        E 128 b0 0b 66
        E 0 80 2b 00
        E 0 90 2d 66
        E 64 b0 0b 5d
        E 64 b0 0b 55
        E 128 b0 0b 4c
        E 128 b0 0b 44
        E 128 b0 0b 66
        E 0 80 2d 00
        E 0 90 2f 66
        E 64 b0 0b 5d
        E 64 b0 0b 55
        E 128 b0 0b 4c
        E 128 b0 0b 44
        E 128 b0 0b 66
        E 0 80 2f 00
        E 0 90 2d 66
        E 64 b0 0b 5d
        E 64 b0 0b 55
        E 128 b0 0b 4c
        E 128 b0 0b 44
        E 128 b0 0b 66
        E 64 b0 0b 5d
        E 64 b0 0b 55
        E 128 b0 0b 4c
        E 128 b0 0b 44
        E 128 b0 0b 66
        E 64 b0 0b 5d
        E 64 b0 0b 55
        E 128 b0 0b 4c
        E 128 b0 0b 44
        E 128 b0 0b 66
        E 0 80 2d 00
        E 0 90 29 66
        E 64 b0 0b 5d
        E 64 b0 0b 55
        E 128 b0 0b 4c
        E 128 b0 0b 44
        E 128 b0 0b 66
        E 0 80 29 00
        E 0 90 2f 66
        E 64 b0 0b 5d
        E 64 b0 0b 55
        E 128 b0 0b 66
        E 0 80 2f 00
        E 0 90 2d 66
        E 64 b0 0b 5d
        E 64 b0 0b 55
        E 128 b0 0b 4c
        E 128 b0 0b 44
        E 128 b0 0b 66
        E 0 80 2d 00
        E 0 90 2b 66
        E 64 b0 0b 5d
        E 64 b0 0b 55
        E 128 b0 0b 4c
        E 128 b0 0b 44
        E 128 b0 0b 3b
        E 128 b0 0b 33
        E 128 b0 0b 2a
        E 128 b0 0b 22
        E 128 b0 0b 19
        E 128 b0 0b 11
        E 128 b0 0b 66
        E 0 80 2b 00
        E 0 90 2e 66
        E 64 b0 0b 5d
        E 64 b0 0b 66
        E 0 80 2e 00
        E 0 90 2b 66
        E 64 b0 0b 5d
        E 64 b0 0b 66
        E 0 80 2b 00
        E 0 90 33 66
        E 64 b0 0b 5d
        E 64 b0 0b 66
        E 0 80 33 00
        E 0 90 2b 66
        E 64 b0 0b 5d
        E 64 b0 0b 66
        E 0 80 2b 00
        E 0 90 2e 66
        E 64 b0 0b 5d
        E 64 b0 0b 66
        E 0 80 2e 00
        E 0 90 2b 66
        E 64 b0 0b 5d
        E 64 b0 0b 66
        E 0 80 2b 00
        E 0 90 33 66
        E 64 b0 0b 5d
        E 64 b0 0b 66
        E 0 80 33 00
        E 0 90 2b 66
        E 64 b0 0b 5d
        E 64 b0 0b 66
        E 0 80 2b 00
        E 0 90 2e 66
        E 64 b0 0b 5d
        E 64 b0 0b 66
        E 0 80 2e 00
        E 0 90 2b 66
        E 64 b0 0b 5d
        E 64 b0 0b 66
        E 0 80 2b 00
        E 0 90 33 66
        E 64 b0 0b 5d
        E 64 b0 0b 66
        E 0 80 33 00
        E 0 90 2b 66
        E 64 b0 0b 5d
        E 64 b0 0b 66
        E 0 80 2b 00
        E 0 90 2e 66
        E 64 b0 0b 5d
        E 64 b0 0b 66
        E 0 80 2e 00
        E 0 90 2b 66
        E 64 b0 0b 5d
        E 64 b0 0b 66
        E 0 80 2b 00
        E 0 90 33 66
        E 64 b0 0b 5d
        E 64 b0 0b 66
        E 0 80 33 00
        E 0 90 2b 66
        E 64 b0 0b 5d
        E 64 b0 0b 66
        E 0 80 2b 00
        E 0 90 2d 66
        E 64 b0 0b 5d
        E 64 b0 0b 66
        E 0 80 2d 00
        E 0 90 2a 66
        E 64 b0 0b 5d
        E 64 b0 0b 66
        E 0 80 2a 00
        E 0 90 32 66
        E 64 b0 0b 5d
        E 64 b0 0b 66
        E 0 80 32 00
        E 0 90 2a 66
        E 64 b0 0b 5d
        E 64 b0 0b 66
        E 0 80 2a 00
        E 0 90 2d 66
        E 64 b0 0b 5d
        E 64 b0 0b 66
        E 0 80 2d 00
        E 0 90 2a 66
        E 64 b0 0b 5d
        E 64 b0 0b 66
        E 0 80 2a 00
        E 0 90 32 66
        E 64 b0 0b 5d
        E 64 b0 0b 66
        E 0 80 32 00
        E 0 90 2a 66
        E 64 b0 0b 5d
        E 64 b0 0b 66
        E 0 80 2a 00
        E 0 90 2d 66
        E 64 b0 0b 5d
        E 64 b0 0b 66
        E 0 80 2d 00
        E 0 90 2a 66
        E 64 b0 0b 5d
        E 64 b0 0b 66
        E 0 80 2a 00
        E 0 90 32 66
        E 64 b0 0b 5d
        E 64 b0 0b 66
        E 0 80 32 00
        E 0 90 2a 66
        E 64 b0 0b 5d
        E 64 b0 0b 66
        E 0 80 2a 00
        E 0 90 2d 66
        E 64 b0 0b 5d
        E 64 b0 0b 66
        E 0 80 2d 00
        E 0 90 2a 66
        E 64 b0 0b 5d
        E 64 b0 0b 66
        E 0 80 2a 00
        E 0 90 32 66
        E 64 b0 0b 5d
        E 64 b0 0b 66
        E 0 80 32 00
        E 0 90 2a 66
        E 64 b0 0b 5d
        E 64 b0 0b 66
        E 0 80 2a 00
        E 0 90 2e 66
        E 64 b0 0b 5d
        E 64 b0 0b 66
        E 0 80 2e 00
        E 0 90 2b 66
        E 64 b0 0b 5d
        E 64 b0 0b 66
        E 0 80 2b 00
        E 0 90 33 66
        E 64 b0 0b 5d
        E 64 b0 0b 66
        E 0 80 33 00
        E 0 90 2b 66
        E 64 b0 0b 5d
        E 64 b0 0b 66
        E 0 80 2b 00
        E 0 90 2e 66
        E 64 b0 0b 5d
        E 64 b0 0b 66
        E 0 80 2e 00
        E 0 90 2b 66
        E 64 b0 0b 5d
        E 64 b0 0b 66
        E 0 80 2b 00
        E 0 90 33 66
        E 64 b0 0b 5d
        E 64 b0 0b 66
        E 0 80 33 00
        E 0 90 2b 66
        E 64 b0 0b 5d
        E 64 b0 0b 66
        E 0 80 2b 00
        E 0 90 2e 66
        E 64 b0 0b 5d
        E 64 b0 0b 66
        E 0 80 2e 00
        E 0 90 2b 66
        E 64 b0 0b 5d
        E 64 b0 0b 66
        E 0 80 2b 00
        E 0 90 33 66
        E 64 b0 0b 5d
        E 64 b0 0b 66
        E 0 80 33 00
        E 0 90 2b 66
        E 64 b0 0b 5d
        E 64 b0 0b 66
        E 0 80 2b 00
        E 0 90 2e 66
        E 64 b0 0b 5d
        E 64 b0 0b 66
        E 0 80 2e 00
        E 0 90 2b 66
        E 64 b0 0b 5d
        E 64 b0 0b 66
        E 0 80 2b 00
        E 0 90 33 66
        E 64 b0 0b 5d
        E 64 b0 0b 66
        E 0 80 33 00
        E 0 90 2b 66
        E 64 b0 0b 5d
        E 64 b0 0b 66
        E 0 80 2b 00
        E 0 90 2d 66
        E 64 b0 0b 5d
        E 64 b0 0b 66
        E 0 80 2d 00
        E 0 90 2a 66
        E 64 b0 0b 5d
        E 64 b0 0b 66
        E 0 80 2a 00
        E 0 90 32 66
        E 64 b0 0b 5d
        E 64 b0 0b 66
        E 0 80 32 00
        E 0 90 2a 66
        E 64 b0 0b 5d
        E 64 b0 0b 66
        E 0 80 2a 00
        E 0 90 2d 66
        E 64 b0 0b 5d
        E 64 b0 0b 66
        E 0 80 2d 00
        E 0 90 2a 66
        E 64 b0 0b 5d
        E 64 b0 0b 66
        E 0 80 2a 00
        E 0 90 32 66
        E 64 b0 0b 5d
        E 64 b0 0b 66
        E 0 80 32 00
        E 0 90 2a 66
        E 64 b0 0b 5d
        E 64 b0 0b 66
        E 0 80 2a 00
        E 0 90 2d 66
        E 64 b0 0b 5d
        E 64 b0 0b 66
        E 0 80 2d 00
        E 0 90 2a 66
        E 64 b0 0b 5d
        E 64 b0 0b 66
        E 0 80 2a 00
        E 0 90 32 66
        E 64 b0 0b 5d
        E 64 b0 0b 66
        E 0 80 32 00
        E 0 90 2a 66
        E 64 b0 0b 5d
        E 64 b0 0b 66
        E 0 80 2a 00
        E 0 90 2d 66
        E 64 b0 0b 5d
        E 64 b0 0b 66
        E 0 80 2d 00
        E 0 90 2a 66
        E 64 b0 0b 5d
        E 64 b0 0b 66
        E 0 80 2a 00
        E 0 90 32 66
        E 64 b0 0b 5d
        E 64 b0 0b 66
        E 0 80 32 00
        E 0 90 2a 66
        E 64 b0 0b 5d
        E 64 b0 0b 66
        E 0 80 2a 00
        E 0 90 2e 66
        E 64 b0 0b 5d
        E 64 b0 0b 66
        E 0 80 2e 00
        E 0 90 2b 66
        E 64 b0 0b 5d
        E 64 b0 0b 66
        E 0 80 2b 00
        E 0 90 33 66
        E 64 b0 0b 5d
        E 64 b0 0b 66
        E 0 80 33 00
        E 0 90 2b 66
        E 64 b0 0b 5d
        E 64 b0 0b 66
        E 0 80 2b 00
        E 0 90 2e 66
        E 64 b0 0b 5d
        E 64 b0 0b 66
        E 0 80 2e 00
        E 0 90 2b 66
        E 64 b0 0b 5d
        E 64 b0 0b 66
        E 0 80 2b 00
        E 0 90 33 66
        E 64 b0 0b 5d
        E 64 b0 0b 66
        E 0 80 33 00
        E 0 90 2b 66
        E 64 b0 0b 5d
        E 64 b0 0b 66
        E 0 80 2b 00
        E 0 90 2e 66
        E 64 b0 0b 5d
        E 64 b0 0b 66
        E 0 80 2e 00
        E 0 90 2b 66
        E 64 b0 0b 5d
        E 64 b0 0b 66
        E 0 80 2b 00
        E 0 90 33 66
        E 64 b0 0b 5d
        E 64 b0 0b 66
        E 0 80 33 00
        E 0 90 2b 66
        E 64 b0 0b 5d
        E 64 b0 0b 66
        E 0 80 2b 00
        E 0 90 2e 66
        E 64 b0 0b 5d
        E 64 b0 0b 66
        E 0 80 2e 00
        E 0 90 2b 66
        E 64 b0 0b 5d
        E 64 b0 0b 66
        E 0 80 2b 00
        E 0 90 33 66
        E 64 b0 0b 5d
        E 64 b0 0b 66
        E 0 80 33 00
        E 0 90 2b 66
        E 64 b0 0b 5d
        E 64 b0 0b 66
        E 0 80 2b 00
        E 0 90 2d 66
        E 64 b0 0b 5d
        E 64 b0 0b 66
        E 0 80 2d 00
        E 0 90 2a 66
        E 64 b0 0b 5d
        E 64 b0 0b 66
        E 0 80 2a 00
        E 0 90 32 66
        E 64 b0 0b 5d
        E 64 b0 0b 66
        E 0 80 32 00
        E 0 90 2a 66
        E 64 b0 0b 5d
        E 64 b0 0b 66
        E 0 80 2a 00
        E 0 90 2d 66
        E 64 b0 0b 5d
        E 64 b0 0b 66
        E 0 80 2d 00
        E 0 90 2a 66
        E 64 b0 0b 5d
        E 64 b0 0b 66
        E 0 80 2a 00
        E 0 90 32 66
        E 64 b0 0b 5d
        E 64 b0 0b 66
        E 0 80 32 00
        E 0 90 2a 66
        E 64 b0 0b 5d
        E 64 b0 0b 66
        E 0 80 2a 00
        E 0 90 2d 66
        E 64 b0 0b 5d
        E 64 b0 0b 66
        E 0 80 2d 00
        E 0 90 2a 66
        E 64 b0 0b 5d
        E 64 b0 0b 66
        E 0 80 2a 00
        E 0 90 32 66
        E 64 b0 0b 5d
        E 64 b0 0b 66
        E 0 80 32 00
        E 0 90 2a 66
        E 64 b0 0b 5d
        E 64 b0 0b 66
        E 0 80 2a 00
        E 0 90 2d 66
        E 64 b0 0b 5d
        E 64 b0 0b 66
        E 0 80 2d 00
        E 0 90 2a 66
        E 64 b0 0b 5d
        E 64 b0 0b 66
        E 0 80 2a 00
        E 0 90 32 66
        E 64 b0 0b 5d
        E 64 b0 0b 66
        E 0 80 32 00
        E 0 90 2a 66
        E 64 b0 0b 5d
        E 64 b0 0b 66
        E 0 80 2a 00
        E 0 90 2e 66
        E 64 b0 0b 5d
        E 64 b0 0b 66
        E 0 80 2e 00
        E 0 90 2b 66
        E 64 b0 0b 5d
        E 64 b0 0b 66
        E 0 80 2b 00
        E 0 90 33 66
        E 64 b0 0b 5d
        E 64 b0 0b 66
        E 0 80 33 00
        E 0 90 2b 66
        E 64 b0 0b 5d
        E 64 b0 0b 66
        E 0 80 2b 00
        E 0 90 2e 66
        E 64 b0 0b 5d
        E 64 b0 0b 66
        E 0 80 2e 00
        E 0 90 2b 66
        E 64 b0 0b 5d
        E 64 b0 0b 66
        E 0 80 2b 00
        E 0 90 33 66
        E 64 b0 0b 5d
        E 64 b0 0b 66
        E 0 80 33 00
        E 0 90 2b 66
        E 64 b0 0b 5d
        E 64 b0 0b 66
        E 0 80 2b 00
        E 0 90 2e 66
        E 64 b0 0b 5d
        E 64 b0 0b 66
        E 0 80 2e 00
        E 0 90 2b 66
        E 64 b0 0b 5d
        E 64 b0 0b 66
        E 0 80 2b 00
        E 0 90 33 66
        E 64 b0 0b 5d
        E 64 b0 0b 66
        E 0 80 33 00
        E 0 90 2b 66
        E 64 b0 0b 5d
        E 64 b0 0b 66
        E 0 80 2b 00
        E 0 90 2e 66
        E 64 b0 0b 5d
        E 64 b0 0b 66
        E 0 80 2e 00
        E 0 90 2b 66
        E 64 b0 0b 5d
        E 64 b0 0b 66
        E 0 80 2b 00
        E 0 90 33 66
        E 64 b0 0b 5d
        E 64 b0 0b 66
        E 0 80 33 00
        E 0 90 2b 66
        E 64 b0 0b 5d
        E 64 b0 0b 66
        E 0 80 2b 00
        E 0 90 2d 66
        E 64 b0 0b 5d
        E 64 b0 0b 66
        E 0 80 2d 00
        E 0 90 2a 66
        E 64 b0 0b 5d
        E 64 b0 0b 66
        E 0 80 2a 00
        E 0 90 32 66
        E 64 b0 0b 5d
        E 64 b0 0b 66
        E 0 80 32 00
        E 0 90 2a 66
        E 64 b0 0b 5d
        E 64 b0 0b 66
        E 0 80 2a 00
        E 0 90 2d 66
        E 64 b0 0b 5d
        E 64 b0 0b 66
        E 0 80 2d 00
        E 0 90 2a 66
        E 64 b0 0b 5d
        E 64 b0 0b 66
        E 0 80 2a 00
        E 0 90 32 66
        E 64 b0 0b 5d
        E 64 b0 0b 66
        E 0 80 32 00
        E 0 90 2a 66
        E 64 b0 0b 5d
        E 64 b0 0b 66
        E 0 80 2a 00
        E 0 90 2d 66
        E 64 b0 0b 5d
        E 64 b0 0b 66
        E 0 80 2d 00
        E 0 90 2a 66
        E 64 b0 0b 5d
        E 64 b0 0b 66
        E 0 80 2a 00
        E 0 90 32 66
        E 64 b0 0b 5d
        E 64 b0 0b 66
        E 0 80 32 00
        E 0 90 2a 66
        E 64 b0 0b 5d
        E 64 b0 0b 66
        E 0 80 2a 00
        E 0 90 2d 66
        E 64 b0 0b 5d
        E 64 b0 0b 66
        E 0 80 2d 00
        E 0 90 2a 66
        E 64 b0 0b 5d
        E 64 b0 0b 66
        E 0 80 2a 00
        E 0 90 32 66
        E 64 b0 0b 5d
        E 64 b0 0b 66
        E 0 80 32 00
        E 0 90 2a 66
        E 64 b0 0b 5d
        E 64 b0 0b 66
        E 0 80 2a 00
        E 0 90 3b 66
        E 64 b0 0b 5d
        E 64 b0 0b 55
        E 128 b0 0b 4c
        E 128 b0 0b 44
        E 128 b0 0b 3b
        E 128 b0 0b 33
        E 128 b0 0b 2a
        E 128 b0 0b 22
        E 128 b0 0b 19
        E 128 b0 0b 11
        E 128 b0 0b 66
        E 0 80 3b 00
        E 0 90 37 66
        E 64 b0 0b 5d
        E 64 b0 0b 55
        E 128 b0 0b 4c
        E 128 b0 0b 44
        E 128 b0 0b 66
        E 0 80 37 00
        E 0 90 3b 66
        E 64 b0 0b 5d
        E 64 b0 0b 55
        E 128 b0 0b 66
        E 0 80 3b 00
        E 0 90 39 66
        E 64 b0 0b 5d
        E 64 b0 0b 55
        E 128 b0 0b 4c
        E 128 b0 0b 44
        E 128 b0 0b 3b
        E 128 b0 0b 33
        E 128 b0 0b 2a
        E 128 b0 0b 22
        E 128 b0 0b 19
        E 128 b0 0b 11
        E 128 b0 0b 08
        E 128 80 39 00
        E 640 b0 0b 66
        E 0 90 37 66
        E 64 b0 0b 5d
        E 64 b0 0b 55
        E 128 80 37 00
        E 0 b0 7b 00
        E 0 ff 2f 00
      >
    >
  >
  <TRACK {5A864F91-6B41-4F43-98F8-B2AA3957FCEE}
    NAME "NES - Pulse 2 [ch1]"
    PEAKCOL 10092441
    BEAT -1
    AUTOMODE 0
    PANLAWFLAGS 3
    VOLPAN 1 0 -1 -1 1
    MUTESOLO 0 0 0
    IPHASE 0
    PLAYOFFS 0 1
    ISBUS 0 0
    BUSCOMP 0 0 0 0 0
    SHOWINMIX 1 0.6667 0.5 1 0.5 0 0 0
    FIXEDLANES 9 0 0 0 0
    SEL 0
    REC 0 5088 1 0 0 0 0 0
    VU 2
    TRACKHEIGHT 0 0 0 0 0 0 0
    INQ 0 0 0 0.5 100 0 0 100
    NCHAN 2
    FX 1
    TRACKID {5A864F91-6B41-4F43-98F8-B2AA3957FCEE}
    PERF 0
    MIDIOUT -1
    MAINSEND 1 0
    <FXCHAIN
      WNDRECT 24 52 700 560
      SHOW 0
      LASTSEL 0
      DOCKED 0
      BYPASS 0 0 0
      <JS "ReapNES Studio/ReapNES_Console.jsfx" ""
        2 15 1 10 80 10 100 2 1 15 1 5 60 10 80 1 1 0 50 0 0 15 1 0 100 0 0 0.500000 0.500000 0.400000 0.300000 0.800000 1 1 0 0 0 0 - - - - - - - - - - - - - - - - - - - - - - - - - -
      >
      FLOATPOS 0 0 0 0
      FXID {8E3C81BA-24F8-4F0C-95CD-3146ECD41FDC}
      WAK 0 0
    >
    <ITEM
      POSITION 0
      LENGTH 74.65008
      LOOP 0
      ALLTAKES 0
      FADEIN 0 0 0 0 0 0 0
      FADEOUT 0 0 0 0 0 0 0
      MUTE 0 0
      SEL 0
      IGUID {D3B7139C-ED7F-4E88-B83B-FD1F13D881E3}
      <SOURCE MIDI
        HASDATA 1 480 QN
        CCINTERP 32
        E 0 c1 51
        E 0 b1 0c 40
        E 0 b1 0b 22
        E 0 91 36 22
        E 16 b1 0b 19
        E 64 b1 0b 11
        E 64 b1 0b 08
        E 64 81 36 00
        E 48 b1 0b 22
        E 0 91 32 22
        E 48 b1 0b 19
        E 64 b1 0b 11
        E 64 b1 0b 08
        E 64 81 32 00
        E 272 b1 0b 2a
        E 0 91 3e 2a
        E 16 b1 0b 22
        E 64 b1 0b 19
        E 64 b1 0b 11
        E 64 b1 0b 08
        E 64 81 3e 00
        E 1008 b1 0b 2a
        E 0 91 43 2a
        E 48 b1 0b 22
        E 64 b1 0b 19
        E 64 b1 0b 11
        E 64 b1 0b 08
        E 64 81 43 00
        E 208 b1 0b 33
        E 0 91 41 33
        E 16 b1 0b 2a
        E 64 b1 0b 22
        E 64 b1 0b 19
        E 64 b1 0b 11
        E 48 b1 0b 33
        E 48 b1 0b 2a
        E 64 b1 0b 22
        E 64 b1 0b 19
        E 64 b1 0b 11
        E 64 b1 0b 08
        E 64 81 41 00
        E 1680 b1 0b 3b
        E 0 91 3f 3b
        E 16 b1 0b 33
        E 64 b1 0b 2a
        E 64 b1 0b 22
        E 64 b1 0b 19
        E 64 b1 0b 11
        E 64 b1 0b 08
        E 64 81 3f 00
        E 880 b1 0b 3b
        E 0 91 3a 3b
        E 48 b1 0b 33
        E 64 b1 0b 2a
        E 64 b1 0b 22
        E 64 b1 0b 19
        E 64 b1 0b 11
        E 64 b1 0b 08
        E 64 81 3a 00
        E 80 b1 0b 44
        E 0 91 3f 44
        E 16 b1 0b 3b
        E 64 b1 0b 33
        E 64 b1 0b 2a
        E 64 b1 0b 22
        E 48 b1 0b 44
        E 0 81 3f 00
        E 0 91 3e 44
        E 48 b1 0b 3b
        E 64 b1 0b 33
        E 64 b1 0b 2a
        E 64 b1 0b 22
        E 64 b1 0b 19
        E 64 b1 0b 11
        E 64 b1 0b 08
        E 64 81 3e 00
        E 272 b1 0b 4c
        E 0 91 39 4c
        E 16 b1 0b 44
        E 64 b1 0b 3b
        E 64 b1 0b 33
        E 64 b1 0b 2a
        E 64 b1 0b 22
        E 64 b1 0b 19
        E 64 b1 0b 11
        E 64 b1 0b 08
        E 64 81 39 00
        E 240 b1 0b 4c
        E 0 91 36 4c
        E 48 b1 0b 44
        E 64 b1 0b 3b
        E 64 b1 0b 33
        E 64 b1 0b 2a
        E 64 b1 0b 22
        E 64 b1 0b 19
        E 64 b1 0b 11
        E 64 b1 0b 08
        E 16 b1 0b 55
        E 0 81 36 00
        E 0 91 48 55
        E 16 b1 0b 4c
        E 64 b1 0b 44
        E 64 b1 0b 3b
        E 64 b1 0b 33
        E 48 b1 0b 55
        E 0 81 48 00
        E 0 91 47 55
        E 48 b1 0b 4c
        E 64 b1 0b 44
        E 64 b1 0b 3b
        E 64 b1 0b 33
        E 16 b1 0b 5d
        E 0 81 47 00
        E 0 91 43 5d
        E 16 b1 0b 55
        E 64 b1 0b 4c
        E 64 b1 0b 44
        E 64 b1 0b 3b
        E 48 b1 0b 5d
        E 0 81 43 00
        E 0 91 3e 5d
        E 48 b1 0b 55
        E 64 b1 0b 4c
        E 64 b1 0b 44
        E 64 b1 0b 3b
        E 16 b1 0b 66
        E 0 81 3e 00
        E 0 91 48 66
        E 16 b1 0b 5d
        E 64 b1 0b 55
        E 64 b1 0b 4c
        E 64 b1 0b 44
        E 48 b1 0b 66
        E 0 81 48 00
        E 0 91 47 66
        E 48 b1 0b 5d
        E 64 b1 0b 55
        E 64 b1 0b 4c
        E 64 b1 0b 44
        E 16 b1 0b 6e
        E 0 81 47 00
        E 0 91 43 6e
        E 16 b1 0b 66
        E 64 b1 0b 5d
        E 64 b1 0b 55
        E 64 b1 0b 4c
        E 48 b1 0b 6e
        E 0 81 43 00
        E 0 91 3e 6e
        E 48 b1 0b 66
        E 64 b1 0b 5d
        E 64 b1 0b 55
        E 64 b1 0b 4c
        E 16 b1 0b 77
        E 0 81 3e 00
        E 0 91 48 77
        E 16 b1 0b 6e
        E 64 b1 0b 66
        E 64 b1 0b 5d
        E 64 b1 0b 55
        E 48 b1 0b 77
        E 0 81 48 00
        E 0 91 47 77
        E 48 b1 0b 6e
        E 64 b1 0b 66
        E 64 b1 0b 5d
        E 64 b1 0b 55
        E 16 b1 0b 7f
        E 0 81 47 00
        E 0 91 43 7f
        E 16 b1 0b 77
        E 64 b1 0b 6e
        E 64 b1 0b 66
        E 64 b1 0b 5d
        E 48 b1 0b 7f
        E 0 81 43 00
        E 0 91 3e 7f
        E 48 b1 0b 77
        E 64 b1 0b 6e
        E 64 b1 0b 66
        E 64 b1 0b 5d
        E 16 b1 0b 7f
        E 0 81 3e 00
        E 0 91 48 7f
        E 80 b1 0b 77
        E 64 b1 0b 6e
        E 64 b1 0b 66
        E 48 b1 0b 7f
        E 0 81 48 00
        E 0 91 47 7f
        E 112 b1 0b 77
        E 64 b1 0b 6e
        E 64 b1 0b 66
        E 16 b1 0c 10
        E 0 b1 0b 5d
        E 0 81 47 00
        E 0 91 43 5d
        E 16 b1 0c 40
        E 0 b1 0b 7f
        E 128 b1 0b 77
        E 64 b1 0b 6e
        E 48 b1 0b 7f
        E 0 81 43 00
        E 0 91 3e 7f
        E 128 b1 0b 77
        E 64 b1 0b 6e
        E 64 b1 0b 7f
        E 0 81 3e 00
        E 0 91 48 7f
        E 128 b1 0b 77
        E 64 b1 0b 6e
        E 64 b1 0b 7f
        E 0 81 48 00
        E 0 91 47 7f
        E 128 b1 0b 77
        E 64 b1 0b 6e
        E 64 b1 0b 7f
        E 0 81 47 00
        E 0 91 43 7f
        E 128 b1 0b 77
        E 64 b1 0b 6e
        E 64 b1 0b 7f
        E 0 81 43 00
        E 0 91 3e 7f
        E 128 b1 0b 77
        E 64 b1 0b 6e
        E 64 b1 0b 7f
        E 0 81 3e 00
        E 0 91 48 7f
        E 128 b1 0b 77
        E 64 b1 0b 6e
        E 64 b1 0b 7f
        E 0 81 48 00
        E 0 91 47 7f
        E 128 b1 0b 77
        E 64 b1 0b 6e
        E 64 b1 0b 7f
        E 0 81 47 00
        E 0 91 43 7f
        E 128 b1 0b 77
        E 64 b1 0b 6e
        E 64 b1 0b 7f
        E 0 81 43 00
        E 0 91 3e 7f
        E 128 b1 0b 77
        E 64 b1 0b 6e
        E 64 b1 0b 66
        E 64 b1 0b 5d
        E 64 b1 0b 55
        E 128 b1 0b 4c
        E 128 b1 0b 44
        E 128 b1 0b 3b
        E 128 b1 0b 33
        E 128 b1 0b 2a
        E 128 b1 0b 22
        E 128 b1 0b 19
        E 128 b1 0b 11
        E 128 b1 0b 66
        E 0 81 3e 00
        E 0 91 3b 66
        E 64 b1 0b 5d
        E 64 b1 0b 55
        E 128 b1 0b 4c
        E 128 b1 0b 44
        E 128 b1 0b 66
        E 0 81 3b 00
        E 0 91 3e 66
        E 64 b1 0b 5d
        E 64 b1 0b 55
        E 128 b1 0b 66
        E 0 81 3e 00
        E 0 91 3c 66
        E 64 b1 0b 5d
        E 64 b1 0b 55
        E 128 b1 0b 4c
        E 128 b1 0b 44
        E 128 b1 0b 3b
        E 128 b1 0b 33
        E 128 b1 0b 2a
        E 128 b1 0b 22
        E 128 b1 0b 19
        E 128 b1 0b 11
        E 128 b1 0b 08
        E 128 81 3c 00
        E 640 b1 0b 66
        E 0 91 3a 66
        E 64 b1 0b 5d
        E 64 b1 0b 55
        E 128 b1 0b 4c
        E 128 b1 0b 44
        E 128 b1 0b 3b
        E 128 b1 0b 33
        E 128 b1 0b 2a
        E 128 b1 0b 22
        E 128 b1 0b 19
        E 128 b1 0b 11
        E 128 b1 0b 66
        E 0 81 3a 00
        E 0 91 37 66
        E 64 b1 0b 5d
        E 64 b1 0b 55
        E 128 b1 0b 4c
        E 128 b1 0b 44
        E 128 b1 0b 66
        E 0 81 37 00
        E 0 91 3a 66
        E 64 b1 0b 5d
        E 64 b1 0b 55
        E 128 b1 0b 66
        E 0 81 3a 00
        E 0 91 39 66
        E 64 b1 0b 5d
        E 64 b1 0b 55
        E 128 b1 0b 4c
        E 128 b1 0b 44
        E 128 b1 0b 3b
        E 128 b1 0b 33
        E 128 b1 0b 2a
        E 128 b1 0b 22
        E 128 b1 0b 19
        E 128 b1 0b 11
        E 128 b1 0b 08
        E 128 81 39 00
        E 640 b1 0b 66
        E 0 91 3e 66
        E 64 b1 0b 5d
        E 64 b1 0b 55
        E 128 b1 0b 4c
        E 128 b1 0b 44
        E 128 b1 0b 3b
        E 128 b1 0b 33
        E 128 b1 0b 2a
        E 128 b1 0b 22
        E 128 b1 0b 19
        E 128 b1 0b 11
        E 128 b1 0b 66
        E 0 81 3e 00
        E 0 91 43 66
        E 64 b1 0b 5d
        E 64 b1 0b 55
        E 128 b1 0b 4c
        E 128 b1 0b 44
        E 128 b1 0b 66
        E 0 81 43 00
        E 0 91 41 66
        E 64 b1 0b 5d
        E 64 b1 0b 55
        E 128 b1 0b 66
        E 64 b1 0b 5d
        E 64 b1 0b 55
        E 128 b1 0b 4c
        E 128 b1 0b 44
        E 128 b1 0b 3b
        E 128 b1 0b 33
        E 128 b1 0b 2a
        E 128 b1 0b 22
        E 128 b1 0b 19
        E 128 b1 0b 11
        E 128 b1 0b 08
        E 128 81 41 00
        E 640 b1 0b 66
        E 0 91 3f 66
        E 64 b1 0b 5d
        E 64 b1 0b 55
        E 128 b1 0b 4c
        E 128 b1 0b 44
        E 128 b1 0b 3b
        E 128 b1 0b 33
        E 128 b1 0b 2a
        E 128 b1 0b 22
        E 128 b1 0b 19
        E 128 b1 0b 11
        E 128 b1 0b 66
        E 0 81 3f 00
        E 0 91 3a 66
        E 64 b1 0b 5d
        E 64 b1 0b 55
        E 128 b1 0b 4c
        E 128 b1 0b 44
        E 128 b1 0b 66
        E 0 81 3a 00
        E 0 91 3f 66
        E 64 b1 0b 5d
        E 64 b1 0b 55
        E 128 b1 0b 66
        E 0 81 3f 00
        E 0 91 3e 66
        E 64 b1 0b 5d
        E 64 b1 0b 55
        E 128 b1 0b 4c
        E 128 b1 0b 44
        E 128 b1 0b 3b
        E 128 b1 0b 33
        E 128 b1 0b 66
        E 0 81 3e 00
        E 0 91 39 66
        E 64 b1 0b 5d
        E 64 b1 0b 55
        E 128 b1 0b 4c
        E 128 b1 0b 44
        E 128 b1 0b 3b
        E 128 b1 0b 33
        E 128 b1 0b 66
        E 0 81 39 00
        E 0 91 36 66
        E 64 b1 0b 5d
        E 64 b1 0b 55
        E 128 b1 0b 4c
        E 128 b1 0b 44
        E 128 b1 0b 66
        E 0 81 36 00
        E 0 91 4a 66
        E 64 b1 0b 5d
        E 64 b1 0b 55
        E 128 b1 0b 4c
        E 128 b1 0b 44
        E 128 b1 0b 3b
        E 128 b1 0b 33
        E 128 b1 0b 66
        E 64 b1 0b 5d
        E 64 b1 0b 55
        E 128 b1 0b 4c
        E 128 b1 0b 44
        E 128 b1 0b 66
        E 64 b1 0b 5d
        E 64 b1 0b 55
        E 128 b1 0b 4c
        E 128 b1 0b 44
        E 128 b1 0b 3b
        E 128 b1 0b 33
        E 128 b1 0b 66
        E 0 81 4a 00
        E 0 91 4b 66
        E 64 b1 0b 5d
        E 64 b1 0b 55
        E 128 b1 0b 4c
        E 128 b1 0b 44
        E 128 b1 0b 3b
        E 128 b1 0b 33
        E 128 b1 0b 66
        E 64 b1 0b 5d
        E 64 b1 0b 55
        E 128 b1 0b 4c
        E 128 b1 0b 44
        E 128 b1 0b 66
        E 64 b1 0b 5d
        E 64 b1 0b 55
        E 128 b1 0b 4c
        E 128 b1 0b 44
        E 128 b1 0b 3b
        E 128 b1 0b 33
        E 128 b1 0b 66
        E 0 81 4b 00
        E 0 91 4c 66
        E 64 b1 0b 5d
        E 64 b1 0b 55
        E 128 b1 0b 4c
        E 128 b1 0b 44
        E 128 b1 0b 3b
        E 128 b1 0b 33
        E 128 b1 0b 66
        E 64 b1 0b 5d
        E 64 b1 0b 55
        E 128 b1 0b 4c
        E 128 b1 0b 44
        E 128 b1 0b 66
        E 64 b1 0b 5d
        E 64 b1 0b 55
        E 128 b1 0b 4c
        E 128 b1 0b 44
        E 128 b1 0b 3b
        E 128 b1 0b 33
        E 128 b1 0b 66
        E 0 81 4c 00
        E 0 91 4d 66
        E 64 b1 0b 5d
        E 64 b1 0b 55
        E 128 b1 0b 4c
        E 128 b1 0b 44
        E 128 b1 0b 3b
        E 128 b1 0b 33
        E 128 b1 0b 66
        E 0 81 4d 00
        E 0 91 4e 66
        E 64 b1 0b 5d
        E 64 b1 0b 55
        E 128 b1 0b 4c
        E 128 b1 0b 44
        E 128 b1 0b 3b
        E 128 b1 0b 33
        E 128 b1 0b 2a
        E 128 b1 0b 22
        E 128 b1 0b 19
        E 128 b1 0b 11
        E 128 81 4e 00
        E 512 b1 0b 66
        E 0 91 3c 66
        E 64 b1 0b 5d
        E 64 b1 0b 55
        E 128 b1 0b 4c
        E 128 b1 0b 44
        E 128 b1 0b 66
        E 0 81 3c 00
        E 0 91 3b 66
        E 64 b1 0b 5d
        E 64 b1 0b 55
        E 128 b1 0b 66
        E 0 81 3b 00
        E 0 91 37 66
        E 64 b1 0b 5d
        E 64 b1 0b 55
        E 128 b1 0b 4c
        E 128 b1 0b 44
        E 128 b1 0b 66
        E 0 81 37 00
        E 0 91 32 66
        E 64 b1 0b 5d
        E 64 b1 0b 55
        E 128 b1 0b 4c
        E 128 b1 0b 44
        E 128 b1 0b 66
        E 0 81 32 00
        E 0 91 2f 66
        E 64 b1 0b 5d
        E 64 b1 0b 55
        E 128 b1 0b 4c
        E 128 b1 0b 44
        E 128 b1 0b 3b
        E 128 b1 0b 33
        E 128 b1 0b 66
        E 0 81 2f 00
        E 0 91 30 66
        E 64 b1 0b 5d
        E 64 b1 0b 55
        E 128 b1 0b 4c
        E 128 b1 0b 44
        E 128 b1 0b 66
        E 0 81 30 00
        E 0 91 32 66
        E 64 b1 0b 5d
        E 64 b1 0b 55
        E 128 b1 0b 4c
        E 128 b1 0b 44
        E 128 b1 0b 66
        E 0 81 32 00
        E 0 91 35 66
        E 64 b1 0b 5d
        E 64 b1 0b 55
        E 128 b1 0b 4c
        E 128 b1 0b 44
        E 128 b1 0b 66
        E 0 81 35 00
        E 0 91 34 66
        E 64 b1 0b 5d
        E 64 b1 0b 55
        E 128 b1 0b 4c
        E 128 b1 0b 44
        E 128 b1 0b 66
        E 0 81 34 00
        E 0 91 32 66
        E 64 b1 0b 5d
        E 64 b1 0b 55
        E 128 b1 0b 4c
        E 128 b1 0b 44
        E 128 b1 0b 66
        E 0 81 32 00
        E 0 91 30 66
        E 64 b1 0b 5d
        E 64 b1 0b 55
        E 128 b1 0b 4c
        E 128 b1 0b 44
        E 128 b1 0b 66
        E 0 81 30 00
        E 0 91 32 66
        E 64 b1 0b 5d
        E 64 b1 0b 55
        E 128 b1 0b 66
        E 0 81 32 00
        E 0 91 30 66
        E 64 b1 0b 5d
        E 64 b1 0b 55
        E 128 b1 0b 4c
        E 128 b1 0b 44
        E 128 b1 0b 66
        E 0 81 30 00
        E 0 91 2f 66
        E 64 b1 0b 5d
        E 64 b1 0b 55
        E 128 b1 0b 4c
        E 128 b1 0b 44
        E 128 b1 0b 3b
        E 128 b1 0b 33
        E 128 b1 0b 2a
        E 128 b1 0b 22
        E 128 b1 0b 19
        E 128 b1 0b 11
        E 128 b1 0b 08
        E 128 81 2f 00
        E 384 b1 0b 66
        E 0 91 3c 66
        E 64 b1 0b 5d
        E 64 b1 0b 55
        E 128 b1 0b 4c
        E 128 b1 0b 44
        E 128 b1 0b 66
        E 0 81 3c 00
        E 0 91 3b 66
        E 64 b1 0b 5d
        E 64 b1 0b 55
        E 128 b1 0b 66
        E 0 81 3b 00
        E 0 91 37 66
        E 64 b1 0b 5d
        E 64 b1 0b 55
        E 128 b1 0b 4c
        E 128 b1 0b 44
        E 128 b1 0b 66
        E 0 81 37 00
        E 0 91 32 66
        E 64 b1 0b 5d
        E 64 b1 0b 55
        E 128 b1 0b 4c
        E 128 b1 0b 44
        E 128 b1 0b 66
        E 0 81 32 00
        E 0 91 2f 66
        E 64 b1 0b 5d
        E 64 b1 0b 55
        E 128 b1 0b 4c
        E 128 b1 0b 44
        E 128 b1 0b 3b
        E 128 b1 0b 33
        E 128 b1 0b 66
        E 0 81 2f 00
        E 0 91 30 66
        E 64 b1 0b 5d
        E 64 b1 0b 55
        E 128 b1 0b 4c
        E 128 b1 0b 44
        E 128 b1 0b 66
        E 0 81 30 00
        E 0 91 32 66
        E 64 b1 0b 5d
        E 64 b1 0b 55
        E 128 b1 0b 4c
        E 128 b1 0b 44
        E 128 b1 0b 66
        E 0 81 32 00
        E 0 91 35 66
        E 64 b1 0b 5d
        E 64 b1 0b 55
        E 128 b1 0b 4c
        E 128 b1 0b 44
        E 128 b1 0b 66
        E 0 81 35 00
        E 0 91 34 66
        E 64 b1 0b 5d
        E 64 b1 0b 55
        E 128 b1 0b 4c
        E 128 b1 0b 44
        E 128 b1 0b 66
        E 0 81 34 00
        E 0 91 32 66
        E 64 b1 0b 5d
        E 64 b1 0b 55
        E 128 b1 0b 4c
        E 128 b1 0b 44
        E 128 b1 0b 66
        E 0 81 32 00
        E 0 91 30 66
        E 64 b1 0b 5d
        E 64 b1 0b 55
        E 128 b1 0b 4c
        E 128 b1 0b 44
        E 128 b1 0b 66
        E 0 81 30 00
        E 0 91 32 66
        E 64 b1 0b 5d
        E 64 b1 0b 55
        E 128 b1 0b 66
        E 0 81 32 00
        E 0 91 30 66
        E 64 b1 0b 5d
        E 64 b1 0b 55
        E 128 b1 0b 4c
        E 128 b1 0b 44
        E 128 b1 0b 66
        E 0 81 30 00
        E 0 91 2f 66
        E 64 b1 0b 5d
        E 64 b1 0b 55
        E 128 b1 0b 4c
        E 128 b1 0b 44
        E 128 b1 0b 3b
        E 128 b1 0b 33
        E 128 b1 0b 2a
        E 128 b1 0b 22
        E 128 b1 0b 19
        E 128 b1 0b 11
        E 128 81 2f 00
        E 512 b1 0b 66
        E 0 91 33 66
        E 64 b1 0b 5d
        E 64 b1 0b 55
        E 128 b1 0b 66
        E 0 81 33 00
        E 0 91 35 66
        E 64 b1 0b 5d
        E 64 b1 0b 55
        E 128 b1 0b 66
        E 0 81 35 00
        E 0 91 37 66
        E 64 b1 0b 5d
        E 64 b1 0b 55
        E 128 b1 0b 66
        E 0 81 37 00
        E 0 91 3a 66
        E 64 b1 0b 5d
        E 64 b1 0b 55
        E 128 b1 0b 4c
        E 128 b1 0b 44
        E 128 b1 0b 66
        E 0 81 3a 00
        E 0 91 39 66
        E 64 b1 0b 5d
        E 64 b1 0b 55
        E 128 b1 0b 4c
        E 128 b1 0b 44
        E 128 b1 0b 66
        E 0 81 39 00
        E 0 91 36 66
        E 64 b1 0b 5d
        E 64 b1 0b 55
        E 128 b1 0b 4c
        E 128 b1 0b 44
        E 128 b1 0b 66
        E 0 81 36 00
        E 0 91 3e 66
        E 64 b1 0b 5d
        E 64 b1 0b 55
        E 128 b1 0b 4c
        E 128 b1 0b 44
        E 128 b1 0b 66
        E 0 81 3e 00
        E 0 91 36 66
        E 64 b1 0b 5d
        E 64 b1 0b 55
        E 128 b1 0b 66
        E 0 81 36 00
        E 0 91 39 66
        E 64 b1 0b 5d
        E 64 b1 0b 55
        E 128 b1 0b 4c
        E 128 b1 0b 44
        E 128 b1 0b 3b
        E 128 b1 0b 33
        E 128 b1 0b 2a
        E 128 b1 0b 22
        E 128 b1 0b 66
        E 0 81 39 00
        E 0 91 33 66
        E 64 b1 0b 5d
        E 64 b1 0b 55
        E 128 b1 0b 66
        E 0 81 33 00
        E 0 91 35 66
        E 64 b1 0b 5d
        E 64 b1 0b 55
        E 128 b1 0b 66
        E 0 81 35 00
        E 0 91 37 66
        E 64 b1 0b 5d
        E 64 b1 0b 55
        E 128 b1 0b 66
        E 0 81 37 00
        E 0 91 3a 66
        E 64 b1 0b 5d
        E 64 b1 0b 55
        E 128 b1 0b 4c
        E 128 b1 0b 44
        E 128 b1 0b 66
        E 0 81 3a 00
        E 0 91 3c 66
        E 64 b1 0b 5d
        E 64 b1 0b 55
        E 128 b1 0b 4c
        E 128 b1 0b 44
        E 128 b1 0b 66
        E 0 81 3c 00
        E 0 91 3a 66
        E 64 b1 0b 5d
        E 64 b1 0b 55
        E 128 b1 0b 4c
        E 128 b1 0b 44
        E 128 b1 0b 66
        E 0 81 3a 00
        E 0 91 39 66
        E 64 b1 0b 5d
        E 64 b1 0b 55
        E 128 b1 0b 4c
        E 128 b1 0b 44
        E 128 b1 0b 3b
        E 128 b1 0b 33
        E 128 b1 0b 2a
        E 128 b1 0b 22
        E 128 b1 0b 19
        E 128 b1 0b 11
        E 128 b1 0b 08
        E 128 81 39 00
        E 384 b1 0b 66
        E 0 91 33 66
        E 64 b1 0b 5d
        E 64 b1 0b 55
        E 128 b1 0b 66
        E 0 81 33 00
        E 0 91 35 66
        E 64 b1 0b 5d
        E 64 b1 0b 55
        E 128 b1 0b 66
        E 0 81 35 00
        E 0 91 37 66
        E 64 b1 0b 5d
        E 64 b1 0b 55
        E 128 b1 0b 66
        E 0 81 37 00
        E 0 91 3a 66
        E 64 b1 0b 5d
        E 64 b1 0b 55
        E 128 b1 0b 4c
        E 128 b1 0b 44
        E 128 b1 0b 66
        E 0 81 3a 00
        E 0 91 39 66
        E 64 b1 0b 5d
        E 64 b1 0b 55
        E 128 b1 0b 4c
        E 128 b1 0b 44
        E 128 b1 0b 66
        E 0 81 39 00
        E 0 91 36 66
        E 64 b1 0b 5d
        E 64 b1 0b 55
        E 128 b1 0b 4c
        E 128 b1 0b 44
        E 128 b1 0b 66
        E 0 81 36 00
        E 0 91 3e 66
        E 64 b1 0b 5d
        E 64 b1 0b 55
        E 128 b1 0b 4c
        E 128 b1 0b 44
        E 128 b1 0b 66
        E 0 81 3e 00
        E 0 91 36 66
        E 64 b1 0b 5d
        E 64 b1 0b 55
        E 128 b1 0b 66
        E 0 81 36 00
        E 0 91 39 66
        E 64 b1 0b 5d
        E 64 b1 0b 55
        E 128 b1 0b 4c
        E 128 b1 0b 44
        E 128 b1 0b 66
        E 0 81 39 00
        E 0 91 3c 66
        E 64 b1 0b 5d
        E 64 b1 0b 55
        E 128 b1 0b 4c
        E 128 b1 0b 44
        E 128 b1 0b 3b
        E 128 b1 0b 33
        E 128 b1 0b 66
        E 0 81 3c 00
        E 0 91 3a 66
        E 64 b1 0b 5d
        E 64 b1 0b 55
        E 128 b1 0b 4c
        E 128 b1 0b 44
        E 128 b1 0b 66
        E 0 81 3a 00
        E 0 91 3c 66
        E 64 b1 0b 5d
        E 64 b1 0b 55
        E 128 b1 0b 4c
        E 128 b1 0b 44
        E 128 b1 0b 3b
        E 128 b1 0b 33
        E 128 b1 0b 66
        E 0 81 3c 00
        E 0 91 3e 66
        E 64 b1 0b 5d
        E 64 b1 0b 55
        E 128 b1 0b 4c
        E 128 b1 0b 44
        E 128 b1 0b 3b
        E 128 b1 0b 33
        E 128 b1 0b 2a
        E 128 b1 0b 22
        E 128 b1 0b 19
        E 128 b1 0b 11
        E 128 b1 0b 08
        E 128 81 3e 00
        E 640 b1 0b 66
        E 0 91 3e 66
        E 64 b1 0b 5d
        E 64 b1 0b 55
        E 128 b1 0b 4c
        E 128 b1 0b 44
        E 128 b1 0b 3b
        E 128 b1 0b 33
        E 128 b1 0b 2a
        E 128 b1 0b 22
        E 128 b1 0b 19
        E 128 b1 0b 11
        E 128 b1 0b 66
        E 0 81 3e 00
        E 0 91 3b 66
        E 64 b1 0b 5d
        E 64 b1 0b 55
        E 128 b1 0b 4c
        E 128 b1 0b 44
        E 128 b1 0b 66
        E 0 81 3b 00
        E 0 91 3e 66
        E 64 b1 0b 5d
        E 64 b1 0b 55
        E 128 b1 0b 66
        E 0 81 3e 00
        E 0 91 3c 66
        E 64 b1 0b 5d
        E 64 b1 0b 55
        E 128 b1 0b 4c
        E 128 b1 0b 44
        E 128 b1 0b 3b
        E 128 b1 0b 33
        E 128 b1 0b 2a
        E 128 b1 0b 22
        E 128 b1 0b 19
        E 128 b1 0b 11
        E 128 b1 0b 08
        E 128 81 3c 00
        E 640 b1 0b 66
        E 0 91 3a 66
        E 64 b1 0b 5d
        E 64 b1 0b 55
        E 128 81 3a 00
        E 0 b1 7b 00
        E 0 ff 2f 00
      >
    >
  >
  <TRACK {B14E7D60-A1CB-404F-9358-056BDA203BA1}
    NAME "NES - Triangle [ch2]"
    PEAKCOL 16744192
    BEAT -1
    AUTOMODE 0
    PANLAWFLAGS 3
    VOLPAN 1 0 -1 -1 1
    MUTESOLO 0 0 0
    IPHASE 0
    PLAYOFFS 0 1
    ISBUS 0 0
    BUSCOMP 0 0 0 0 0
    SHOWINMIX 1 0.6667 0.5 1 0.5 0 0 0
    FIXEDLANES 9 0 0 0 0
    SEL 0
    REC 0 5088 1 0 0 0 0 0
    VU 2
    TRACKHEIGHT 0 0 0 0 0 0 0
    INQ 0 0 0 0.5 100 0 0 100
    NCHAN 2
    FX 1
    TRACKID {B14E7D60-A1CB-404F-9358-056BDA203BA1}
    PERF 0
    MIDIOUT -1
    MAINSEND 1 0
    <FXCHAIN
      WNDRECT 24 52 700 560
      SHOW 0
      LASTSEL 0
      DOCKED 0
      BYPASS 0 0 0
      <JS "ReapNES Studio/ReapNES_Console.jsfx" ""
        2 15 1 10 80 10 100 2 1 15 1 5 60 10 80 1 1 0 50 0 0 15 1 0 100 0 0 0.500000 0.500000 0.400000 0.300000 0.800000 2 1 0 0 0 0 - - - - - - - - - - - - - - - - - - - - - - - - - -
      >
      FLOATPOS 0 0 0 0
      FXID {A6DA4268-1D22-4486-8508-791D46CED3EC}
      WAK 0 0
    >
    <ITEM
      POSITION 0
      LENGTH 74.65008
      LOOP 0
      ALLTAKES 0
      FADEIN 0 0 0 0 0 0 0
      FADEOUT 0 0 0 0 0 0 0
      MUTE 0 0
      SEL 0
      IGUID {B9A35186-F44A-44FA-921C-7738833D7AA3}
      <SOURCE MIDI
        HASDATA 1 480 QN
        CCINTERP 32
        E 0 c2 26
        E 15104 b2 0b 7f
        E 0 92 2b 7f
        E 1216 82 2b 00
        E 64 b2 0b 7f
        E 0 92 26 7f
        E 448 82 26 00
        E 64 b2 0b 7f
        E 0 92 2b 7f
        E 192 82 2b 00
        E 64 b2 0b 7f
        E 0 92 29 7f
        E 1472 82 29 00
        E 64 b2 0b 7f
        E 0 92 26 7f
        E 448 82 26 00
        E 64 b2 0b 7f
        E 0 92 27 7f
        E 704 82 27 00
        E 64 b2 0b 7f
        E 0 92 2b 7f
        E 704 82 2b 00
        E 64 b2 0b 7f
        E 0 92 2e 7f
        E 448 82 2e 00
        E 64 b2 0b 7f
        E 0 92 2d 7f
        E 704 82 2d 00
        E 64 b2 0b 7f
        E 0 92 2a 7f
        E 704 82 2a 00
        E 64 b2 0b 7f
        E 0 92 26 7f
        E 448 82 26 00
        E 64 b2 0b 7f
        E 0 92 2b 7f
        E 1216 82 2b 00
        E 64 b2 0b 7f
        E 0 92 26 7f
        E 448 82 26 00
        E 64 b2 0b 7f
        E 0 92 2b 7f
        E 192 82 2b 00
        E 64 b2 0b 7f
        E 0 92 29 7f
        E 1472 82 29 00
        E 64 b2 0b 7f
        E 0 92 26 7f
        E 448 82 26 00
        E 64 b2 0b 7f
        E 0 92 27 7f
        E 704 82 27 00
        E 64 b2 0b 7f
        E 0 92 2b 7f
        E 704 82 2b 00
        E 64 b2 0b 7f
        E 0 92 2e 7f
        E 448 82 2e 00
        E 64 b2 0b 7f
        E 0 92 2d 7f
        E 704 82 2d 00
        E 64 b2 0b 7f
        E 0 92 2a 7f
        E 704 82 2a 00
        E 64 b2 0b 7f
        E 0 92 26 7f
        E 448 82 26 00
        E 64 b2 0b 7f
        E 0 92 2b 7f
        E 192 82 2b 00
        E 576 b2 0b 7f
        E 0 92 2b 7f
        E 448 82 2b 00
        E 64 b2 0b 7f
        E 0 92 2b 7f
        E 448 82 2b 00
        E 64 b2 0b 7f
        E 0 92 2b 7f
        E 192 82 2b 00
        E 64 b2 0b 7f
        E 0 92 2b 7f
        E 192 82 2b 00
        E 576 b2 0b 7f
        E 0 92 2b 7f
        E 448 82 2b 00
        E 64 b2 0b 7f
        E 0 92 2b 7f
        E 448 82 2b 00
        E 64 b2 0b 7f
        E 0 92 2b 7f
        E 192 82 2b 00
        E 64 b2 0b 7f
        E 0 92 2b 7f
        E 192 82 2b 00
        E 576 b2 0b 7f
        E 0 92 2b 7f
        E 448 82 2b 00
        E 64 b2 0b 7f
        E 0 92 2b 7f
        E 448 82 2b 00
        E 64 b2 0b 7f
        E 0 92 2b 7f
        E 192 82 2b 00
        E 64 b2 0b 7f
        E 0 92 2b 7f
        E 192 82 2b 00
        E 576 b2 0b 7f
        E 0 92 26 7f
        E 448 82 26 00
        E 64 b2 0b 7f
        E 0 92 26 7f
        E 192 82 26 00
        E 64 b2 0b 7f
        E 0 92 2a 7f
        E 192 82 2a 00
        E 64 b2 0b 7f
        E 0 92 2d 7f
        E 192 82 2d 00
        E 64 b2 0b 7f
        E 0 92 2b 7f
        E 448 82 2b 00
        E 64 b2 0b 7f
        E 0 92 2b 7f
        E 192 82 2b 00
        E 64 b2 0b 7f
        E 0 92 2b 7f
        E 448 82 2b 00
        E 64 b2 0b 7f
        E 0 92 26 7f
        E 448 82 26 00
        E 64 b2 0b 7f
        E 0 92 2b 7f
        E 192 82 2b 00
        E 64 b2 0b 7f
        E 0 92 2b 7f
        E 448 82 2b 00
        E 64 b2 0b 7f
        E 0 92 26 7f
        E 192 82 26 00
        E 64 b2 0b 7f
        E 0 92 29 7f
        E 448 82 29 00
        E 64 b2 0b 7f
        E 0 92 28 7f
        E 448 82 28 00
        E 64 b2 0b 7f
        E 0 92 26 7f
        E 192 82 26 00
        E 64 b2 0b 7f
        E 0 92 29 7f
        E 448 82 29 00
        E 64 b2 0b 7f
        E 0 92 29 7f
        E 192 82 29 00
        E 64 b2 0b 7f
        E 0 92 29 7f
        E 448 82 29 00
        E 64 b2 0b 7f
        E 0 92 2d 7f
        E 448 82 2d 00
        E 64 b2 0b 7f
        E 0 92 30 7f
        E 192 82 30 00
        E 64 b2 0b 7f
        E 0 92 2b 7f
        E 448 82 2b 00
        E 64 b2 0b 7f
        E 0 92 26 7f
        E 192 82 26 00
        E 64 b2 0b 7f
        E 0 92 2b 7f
        E 448 82 2b 00
        E 64 b2 0b 7f
        E 0 92 26 7f
        E 192 82 26 00
        E 64 b2 0b 7f
        E 0 92 2b 7f
        E 192 82 2b 00
        E 64 b2 0b 7f
        E 0 92 26 7f
        E 192 82 26 00
        E 64 b2 0b 7f
        E 0 92 2b 7f
        E 448 82 2b 00
        E 64 b2 0b 7f
        E 0 92 2b 7f
        E 192 82 2b 00
        E 64 b2 0b 7f
        E 0 92 2b 7f
        E 448 82 2b 00
        E 64 b2 0b 7f
        E 0 92 26 7f
        E 448 82 26 00
        E 64 b2 0b 7f
        E 0 92 2b 7f
        E 192 82 2b 00
        E 64 b2 0b 7f
        E 0 92 2b 7f
        E 448 82 2b 00
        E 64 b2 0b 7f
        E 0 92 26 7f
        E 192 82 26 00
        E 64 b2 0b 7f
        E 0 92 29 7f
        E 448 82 29 00
        E 64 b2 0b 7f
        E 0 92 28 7f
        E 448 82 28 00
        E 64 b2 0b 7f
        E 0 92 26 7f
        E 192 82 26 00
        E 64 b2 0b 7f
        E 0 92 29 7f
        E 448 82 29 00
        E 64 b2 0b 7f
        E 0 92 29 7f
        E 192 82 29 00
        E 64 b2 0b 7f
        E 0 92 29 7f
        E 448 82 29 00
        E 64 b2 0b 7f
        E 0 92 2d 7f
        E 448 82 2d 00
        E 64 b2 0b 7f
        E 0 92 30 7f
        E 192 82 30 00
        E 64 b2 0b 7f
        E 0 92 2b 7f
        E 448 82 2b 00
        E 64 b2 0b 7f
        E 0 92 26 7f
        E 192 82 26 00
        E 64 b2 0b 7f
        E 0 92 2b 7f
        E 448 82 2b 00
        E 64 b2 0b 7f
        E 0 92 26 7f
        E 192 82 26 00
        E 64 b2 0b 7f
        E 0 92 2b 7f
        E 192 82 2b 00
        E 64 b2 0b 7f
        E 0 92 26 7f
        E 192 82 26 00
        E 64 b2 0b 7f
        E 0 92 27 7f
        E 192 82 27 00
        E 64 b2 0b 7f
        E 0 92 27 7f
        E 192 82 27 00
        E 64 b2 0b 7f
        E 0 92 27 7f
        E 192 82 27 00
        E 64 b2 0b 7f
        E 0 92 27 7f
        E 192 82 27 00
        E 64 b2 0b 7f
        E 0 92 2b 7f
        E 192 82 2b 00
        E 64 b2 0b 7f
        E 0 92 2b 7f
        E 192 82 2b 00
        E 64 b2 0b 7f
        E 0 92 2e 7f
        E 192 82 2e 00
        E 64 b2 0b 7f
        E 0 92 2e 7f
        E 192 82 2e 00
        E 64 b2 0b 7f
        E 0 92 26 7f
        E 192 82 26 00
        E 64 b2 0b 7f
        E 0 92 26 7f
        E 192 82 26 00
        E 64 b2 0b 7f
        E 0 92 2a 7f
        E 192 82 2a 00
        E 64 b2 0b 7f
        E 0 92 2a 7f
        E 192 82 2a 00
        E 64 b2 0b 7f
        E 0 92 2d 7f
        E 192 82 2d 00
        E 64 b2 0b 7f
        E 0 92 2d 7f
        E 192 82 2d 00
        E 64 b2 0b 7f
        E 0 92 2a 7f
        E 192 82 2a 00
        E 64 b2 0b 7f
        E 0 92 2a 7f
        E 192 82 2a 00
        E 64 b2 0b 7f
        E 0 92 27 7f
        E 192 82 27 00
        E 64 b2 0b 7f
        E 0 92 27 7f
        E 192 82 27 00
        E 64 b2 0b 7f
        E 0 92 27 7f
        E 192 82 27 00
        E 64 b2 0b 7f
        E 0 92 27 7f
        E 192 82 27 00
        E 64 b2 0b 7f
        E 0 92 2b 7f
        E 192 82 2b 00
        E 64 b2 0b 7f
        E 0 92 2b 7f
        E 192 82 2b 00
        E 64 b2 0b 7f
        E 0 92 2e 7f
        E 192 82 2e 00
        E 64 b2 0b 7f
        E 0 92 2e 7f
        E 192 82 2e 00
        E 64 b2 0b 7f
        E 0 92 26 7f
        E 192 82 26 00
        E 64 b2 0b 7f
        E 0 92 26 7f
        E 192 82 26 00
        E 64 b2 0b 7f
        E 0 92 2a 7f
        E 192 82 2a 00
        E 64 b2 0b 7f
        E 0 92 2a 7f
        E 192 82 2a 00
        E 64 b2 0b 7f
        E 0 92 2d 7f
        E 192 82 2d 00
        E 64 b2 0b 7f
        E 0 92 2d 7f
        E 192 82 2d 00
        E 64 b2 0b 7f
        E 0 92 2a 7f
        E 192 82 2a 00
        E 64 b2 0b 7f
        E 0 92 2a 7f
        E 192 82 2a 00
        E 64 b2 0b 7f
        E 0 92 27 7f
        E 192 82 27 00
        E 64 b2 0b 7f
        E 0 92 27 7f
        E 192 82 27 00
        E 64 b2 0b 7f
        E 0 92 27 7f
        E 192 82 27 00
        E 64 b2 0b 7f
        E 0 92 27 7f
        E 192 82 27 00
        E 64 b2 0b 7f
        E 0 92 2b 7f
        E 192 82 2b 00
        E 64 b2 0b 7f
        E 0 92 2b 7f
        E 192 82 2b 00
        E 64 b2 0b 7f
        E 0 92 2e 7f
        E 192 82 2e 00
        E 64 b2 0b 7f
        E 0 92 2e 7f
        E 192 82 2e 00
        E 64 b2 0b 7f
        E 0 92 26 7f
        E 192 82 26 00
        E 64 b2 0b 7f
        E 0 92 26 7f
        E 192 82 26 00
        E 64 b2 0b 7f
        E 0 92 2a 7f
        E 192 82 2a 00
        E 64 b2 0b 7f
        E 0 92 2a 7f
        E 192 82 2a 00
        E 64 b2 0b 7f
        E 0 92 2d 7f
        E 192 82 2d 00
        E 64 b2 0b 7f
        E 0 92 2d 7f
        E 192 82 2d 00
        E 64 b2 0b 7f
        E 0 92 2a 7f
        E 192 82 2a 00
        E 64 b2 0b 7f
        E 0 92 2a 7f
        E 192 82 2a 00
        E 64 b2 0b 7f
        E 0 92 27 7f
        E 192 82 27 00
        E 64 b2 0b 7f
        E 0 92 27 7f
        E 192 82 27 00
        E 64 b2 0b 7f
        E 0 92 27 7f
        E 192 82 27 00
        E 64 b2 0b 7f
        E 0 92 27 7f
        E 192 82 27 00
        E 64 b2 0b 7f
        E 0 92 2b 7f
        E 192 82 2b 00
        E 64 b2 0b 7f
        E 0 92 2b 7f
        E 192 82 2b 00
        E 64 b2 0b 7f
        E 0 92 2e 7f
        E 192 82 2e 00
        E 64 b2 0b 7f
        E 0 92 2e 7f
        E 192 82 2e 00
        E 64 b2 0b 7f
        E 0 92 26 7f
        E 192 82 26 00
        E 64 b2 0b 7f
        E 0 92 26 7f
        E 192 82 26 00
        E 64 b2 0b 7f
        E 0 92 2a 7f
        E 192 82 2a 00
        E 64 b2 0b 7f
        E 0 92 2a 7f
        E 192 82 2a 00
        E 64 b2 0b 7f
        E 0 92 2d 7f
        E 192 82 2d 00
        E 64 b2 0b 7f
        E 0 92 2d 7f
        E 192 82 2d 00
        E 64 b2 0b 7f
        E 0 92 2a 7f
        E 192 82 2a 00
        E 64 b2 0b 7f
        E 0 92 2a 7f
        E 192 82 2a 00
        E 64 b2 0b 7f
        E 0 92 2b 7f
        E 1216 82 2b 00
        E 64 b2 0b 7f
        E 0 92 26 7f
        E 448 82 26 00
        E 64 b2 0b 7f
        E 0 92 2b 7f
        E 192 82 2b 00
        E 64 b2 0b 7f
        E 0 92 29 7f
        E 1472 82 29 00
        E 64 b2 0b 7f
        E 0 92 26 7f
        E 448 82 26 00
        E 64 b2 0b 7f
        E 0 92 27 7f
        E 256 82 27 00
        E 0 b2 7b 00
        E 0 ff 2f 00
      >
    >
  >
  <TRACK {55F1FFC6-19B0-4D71-8F27-92788E89B51F}
    NAME "NES - Noise / Drums [ch3]"
    PEAKCOL 11184810
    BEAT -1
    AUTOMODE 0
    PANLAWFLAGS 3
    VOLPAN 1 0 -1 -1 1
    MUTESOLO 0 0 0
    IPHASE 0
    PLAYOFFS 0 1
    ISBUS 0 0
    BUSCOMP 0 0 0 0 0
    SHOWINMIX 1 0.6667 0.5 1 0.5 0 0 0
    FIXEDLANES 9 0 0 0 0
    SEL 0
    REC 0 5088 1 0 0 0 0 0
    VU 2
    TRACKHEIGHT 0 0 0 0 0 0 0
    INQ 0 0 0 0.5 100 0 0 100
    NCHAN 2
    FX 1
    TRACKID {55F1FFC6-19B0-4D71-8F27-92788E89B51F}
    PERF 0
    MIDIOUT -1
    MAINSEND 1 0
    <FXCHAIN
      WNDRECT 24 52 700 560
      SHOW 0
      LASTSEL 0
      DOCKED 0
      BYPASS 0 0 0
      <JS "ReapNES Studio/ReapNES_Console.jsfx" ""
        2 15 1 10 80 10 100 2 1 15 1 5 60 10 80 1 1 0 50 0 0 15 1 0 100 0 0 0.500000 0.500000 0.400000 0.300000 0.800000 3 1 0 0 0 0 - - - - - - - - - - - - - - - - - - - - - - - - - -
      >
      FLOATPOS 0 0 0 0
      FXID {CA5B7FA2-3F52-4669-A748-2E6B7AF351D0}
      WAK 0 0
    >
    <ITEM
      POSITION 0
      LENGTH 74.65008
      LOOP 0
      ALLTAKES 0
      FADEIN 0 0 0 0 0 0 0
      FADEOUT 0 0 0 0 0 0 0
      MUTE 0 0
      SEL 0
      IGUID {43F55DF6-C1DA-470F-A602-AA0C739C0900}
      <SOURCE MIDI
        HASDATA 1 480 QN
        CCINTERP 32
        E 31488 93 2a 44
        E 7424 83 2a 00
        E 0 93 2a 5d
        E 768 83 2a 00
        E 0 93 2a 44
        E 16384 83 2a 00
        E 0 93 2a 5d
        E 16384 83 2a 00
        E 4352 b3 7b 00
        E 0 ff 2f 00
      >
    >
  >
>