<REAPER_PROJECT 0.1 "7.27/win64" 1707000000
  <NOTES 0 2
    |ReapNES Studio Project
    |MIDI Import - Digger_T_Rock__The_Legend_of_the_Lost_City_title_rom_v1
  >
  RIPPLE 0
  GROUPOVERRIDE 0 0 0
  AUTOXFADE 129
  ENVATTACH 3
  POOLEDENVATTACH 0
  MIXERUIFLAGS 11 48
  ENVFADESZ10 40
  PEAKGAIN 1
  FEEDBACK 0
  PANLAW 1
  PROJOFFS 0 0 0
  MAXPROJLEN 0 0
  GRID 3199 8 1 8 1 0 0 0
  TIMEMODE 1 5 -1 30 0 0 -1
  VIDEO_CONFIG 0 0 65792
  PANMODE 3
  PANLAWFLAGS 3
  CURSOR 0
  ZOOM 100 0 0
  VZOOMEX 6 0
  USE_REC_CFG 0
  RECMODE 1
  SMPTESYNC 0 30 100 40 1000 300 0 0 1 0 0
  LOOP 0
  LOOPGRAN 0 4
  RECORD_PATH "Media" ""
  <RECORD_CFG
    ZXZhdxgAAQ==
  >
  <APPLYFX_CFG
  >
  RENDER_FILE ""
  RENDER_PATTERN ""
  RENDER_FMT 0 2 0
  RENDER_1X 0
  RENDER_RANGE 1 0 0 18 1000
  RENDER_RESAMPLE 3 0 1
  RENDER_ADDTOPROJ 0
  RENDER_STEMS 0
  RENDER_DITHER 0
  TIMELOCKMODE 1
  TEMPOENVLOCKMODE 1
  ITEMMIX 1
  DEFPITCHMODE 589824 0
  TAKELANE 1
  SAMPLERATE 44100 0 0
  <RENDER_CFG
    ZXZhdxgAAQ==
  >
  LOCK 1
  <METRONOME 6 2
    VOL 0.25 0.125
    BEATLEN 4
    FREQ 1760 880 1
    SAMPLES "" ""
    SPLIGNORE 0 0
    SPLDEF 2 660 "" 0
    SPLDEF 3 440 "" 0
    PATTERN 0 169
    PATTERNSTR ABBB
    MULT 1
  >
  GLOBAL_AUTO -1
  TEMPO 128.59999614200012 4 4
  PLAYRATE 1 0 0.25 4
  SELECTION 0 0
  SELECTION2 0 0
  MASTERAUTOMODE 0
  MASTERTRACKHEIGHT 0 0
  MASTERPEAKCOL 16576
  MASTERMUTESOLO 0
  MASTERTRACKVIEW 0 0.6667 0.5 0.5 0 0 0 0 0 0 0 0 0 0
  MASTERHWOUT 0 0 1 0 0 0 0 -1
  MASTER_NCH 2 2
  MASTER_VOLUME 1 0 -1 -1 1
  MASTER_PANMODE 3
  MASTER_PANLAWFLAGS 3
  MASTER_FX 1
  MASTER_SEL 0
  <MASTERPLAYSPEEDENV
    EGUID {DFBED456-F4A6-4A13-8E64-DC6689D059D5}
    ACT 0 -1
    VIS 0 1 1
    LANEHEIGHT 0 0
    ARM 0
    DEFSHAPE 0 -1 -1
  >
  <TEMPOENVEX
    EGUID {02B3EFAC-A8E5-4301-8E68-32949EF8BB2F}
    ACT 1 -1
    VIS 1 0 1
    LANEHEIGHT 0 0
    ARM 0
    DEFSHAPE 1 -1 -1
  >
  <PROJBAY
  >
  <TRACK {B90A84FF-ABDC-460D-9405-DACE0438323D}
    NAME "NES - Pulse 1 [ch0]"
    PEAKCOL 16576606
    BEAT -1
    AUTOMODE 0
    PANLAWFLAGS 3
    VOLPAN 1 0 -1 -1 1
    MUTESOLO 0 0 0
    IPHASE 0
    PLAYOFFS 0 1
    ISBUS 0 0
    BUSCOMP 0 0 0 0 0
    SHOWINMIX 1 0.6667 0.5 1 0.5 0 0 0
    FIXEDLANES 9 0 0 0 0
    SEL 1
    REC 1 5088 1 0 0 0 0 0
    VU 2
    TRACKHEIGHT 0 0 0 0 0 0 0
    INQ 0 0 0 0.5 100 0 0 100
    NCHAN 2
    FX 1
    TRACKID {B90A84FF-ABDC-460D-9405-DACE0438323D}
    PERF 0
    MIDIOUT -1
    MAINSEND 1 0
    <FXCHAIN
      WNDRECT 24 52 700 560
      SHOW 0
      LASTSEL 0
      DOCKED 0
      BYPASS 0 0 0
      <JS "ReapNES Studio/ReapNES_Console.jsfx" ""
        2 15 1 10 80 10 100 2 1 15 1 5 60 10 80 1 1 0 50 0 0 15 1 0 100 0 0 0.500000 0.500000 0.400000 0.300000 0.800000 0 1 0 0 0 0 - - - - - - - - - - - - - - - - - - - - - - - - - -
      >
      FLOATPOS 0 0 0 0
      FXID {31D53CDC-9704-4AD0-B2D7-4496B7214D09}
      WAK 0 0
    >
    <ITEM
      POSITION 0
      LENGTH 9.3001558
      LOOP 0
      ALLTAKES 0
      FADEIN 0 0 0 0 0 0 0
      FADEOUT 0 0 0 0 0 0 0
      MUTE 0 0
      SEL 0
      IGUID {7E87DB22-0DA7-43AE-B1E3-2B001DBFD55B}
      <SOURCE MIDI
        HASDATA 1 480 QN
        CCINTERP 32
        E 0 c0 50
        E 144 b0 0c 10
        E 0 b0 0b 19
        E 0 90 29 19
        E 16 b0 0b 11
        E 16 b0 0b 08
        E 32 80 29 00
        E 112 b0 0b 19
        E 0 90 1d 19
        E 16 b0 0b 11
        E 16 b0 0b 08
        E 32 80 1d 00
        E 304 b0 0b 19
        E 0 90 1d 19
        E 16 b0 0b 11
        E 16 b0 0b 08
        E 32 80 1d 00
        E 304 b0 0b 19
        E 0 90 1d 19
        E 16 b0 0b 11
        E 16 b0 0b 08
        E 32 80 1d 00
        E 112 b0 0b 19
        E 0 90 27 19
        E 16 b0 0b 11
        E 16 b0 0b 08
        E 32 80 27 00
        E 128 b0 0b 19
        E 0 90 1b 19
        E 16 b0 0b 11
        E 32 b0 0b 08
        E 16 80 1b 00
        E 112 b0 0b 19
        E 0 90 29 19
        E 16 b0 0b 11
        E 16 b0 0b 08
        E 32 80 29 00
        E 112 b0 0b 19
        E 0 90 1d 19
        E 16 b0 0b 11
        E 16 b0 0b 08
        E 32 80 1d 00
        E 304 b0 0b 19
        E 0 90 1d 19
        E 16 b0 0b 11
        E 16 b0 0b 08
        E 32 80 1d 00
        E 304 b0 0b 19
        E 0 90 1d 19
        E 16 b0 0b 11
        E 16 b0 0b 08
        E 32 80 1d 00
        E 112 b0 0b 19
        E 0 90 25 19
        E 16 b0 0b 11
        E 16 b0 0b 08
        E 32 80 25 00
        E 128 b0 0b 19
        E 0 90 1b 19
        E 16 b0 0b 11
        E 16 80 1b 00
        E 144 b0 0b 19
        E 0 90 29 19
        E 16 b0 0b 11
        E 16 b0 0b 08
        E 32 80 29 00
        E 112 b0 0b 19
        E 0 90 1d 19
        E 16 b0 0b 11
        E 16 b0 0b 08
        E 32 80 1d 00
        E 304 b0 0b 19
        E 0 90 1d 19
        E 16 b0 0b 11
        E 16 b0 0b 08
        E 32 80 1d 00
        E 304 b0 0b 19
        E 0 90 1d 19
        E 16 b0 0b 11
        E 16 b0 0b 08
        E 32 80 1d 00
        E 112 b0 0b 19
        E 0 90 27 19
        E 16 b0 0b 11
        E 16 b0 0b 08
        E 32 80 27 00
        E 128 b0 0b 19
        E 0 90 1b 19
        E 16 b0 0b 11
        E 32 b0 0b 08
        E 16 80 1b 00
        E 112 b0 0b 19
        E 0 90 29 19
        E 16 b0 0b 11
        E 16 b0 0b 08
        E 32 80 29 00
        E 112 b0 0b 19
        E 0 90 1d 19
        E 16 b0 0b 11
        E 16 b0 0b 08
        E 32 80 1d 00
        E 256 b0 0b 19
        E 0 90 1d 19
        E 16 b0 0b 11
        E 16 b0 0b 08
        E 32 80 1d 00
        E 304 b0 0b 19
        E 0 90 1d 19
        E 16 b0 0b 11
        E 16 b0 0b 08
        E 32 80 1d 00
        E 112 b0 0b 19
        E 0 90 25 19
        E 16 b0 0b 11
        E 16 b0 0b 08
        E 32 80 25 00
        E 128 b0 0b 19
        E 0 90 1b 19
        E 16 b0 0b 11
        E 16 b0 0c 40
        E 0 b0 0b 3b
        E 0 80 1b 00
        E 0 90 44 3b
        E 64 b0 0b 33
        E 48 b0 0b 2a
        E 48 b0 0b 22
        E 48 b0 0b 19
        E 48 b0 0b 11
        E 48 b0 0b 08
        E 432 b0 0b 3b
        E 0 80 44 00
        E 0 90 3c 3b
        E 64 b0 0b 33
        E 48 b0 0b 2a
        E 48 b0 0b 22
        E 48 b0 0b 19
        E 48 b0 0b 11
        E 48 b0 0b 08
        E 64 b0 0b 3b
        E 0 80 3c 00
        E 0 90 41 3b
        E 64 b0 0b 33
        E 48 b0 0b 2a
        E 48 b0 0b 22
        E 16 b0 0b 3b
        E 0 80 41 00
        E 0 90 3f 3b
        E 64 b0 0b 33
        E 48 b0 0b 2a
        E 48 b0 0b 22
        E 48 b0 0b 19
        E 48 b0 0b 11
        E 48 b0 0b 08
        E 608 b0 0b 3b
        E 0 80 3f 00
        E 0 90 3a 3b
        E 64 b0 0b 33
        E 48 b0 0b 2a
        E 48 b0 0b 22
        E 48 b0 0b 19
        E 48 b0 0b 11
        E 48 b0 0b 08
        E 64 b0 0b 3b
        E 0 80 3a 00
        E 0 90 3f 3b
        E 64 b0 0b 33
        E 48 b0 0b 2a
        E 48 b0 0b 22
        E 16 b0 0b 3b
        E 0 80 3f 00
        E 0 90 3c 3b
        E 64 b0 0b 33
        E 48 b0 0b 2a
        E 48 b0 0b 22
        E 48 b0 0b 19
        E 48 b0 0b 11
        E 48 b0 0b 08
        E 608 b0 0b 3b
        E 0 80 3c 00
        E 0 90 3a 3b
        E 64 b0 0b 33
        E 48 b0 0b 2a
        E 32 80 3a 00
        E 0 b0 7b 00
        E 0 ff 2f 00
      >
    >
  >
  <TRACK {ADE0F204-3A1B-4AC6-954E-81FAE755F47A}
    NAME "NES - Pulse 2 [ch1]"
    PEAKCOL 10092441
    BEAT -1
    AUTOMODE 0
    PANLAWFLAGS 3
    VOLPAN 1 0 -1 -1 1
    MUTESOLO 0 0 0
    IPHASE 0
    PLAYOFFS 0 1
    ISBUS 0 0
    BUSCOMP 0 0 0 0 0
    SHOWINMIX 1 0.6667 0.5 1 0.5 0 0 0
    FIXEDLANES 9 0 0 0 0
    SEL 0
    REC 0 5088 1 0 0 0 0 0
    VU 2
    TRACKHEIGHT 0 0 0 0 0 0 0
    INQ 0 0 0 0.5 100 0 0 100
    NCHAN 2
    FX 1
    TRACKID {ADE0F204-3A1B-4AC6-954E-81FAE755F47A}
    PERF 0
    MIDIOUT -1
    MAINSEND 1 0
    <FXCHAIN
      WNDRECT 24 52 700 560
      SHOW 0
      LASTSEL 0
      DOCKED 0
      BYPASS 0 0 0
      <JS "ReapNES Studio/ReapNES_Console.jsfx" ""
        2 15 1 10 80 10 100 2 1 15 1 5 60 10 80 1 1 0 50 0 0 15 1 0 100 0 0 0.500000 0.500000 0.400000 0.300000 0.800000 1 1 0 0 0 0 - - - - - - - - - - - - - - - - - - - - - - - - - -
      >
      FLOATPOS 0 0 0 0
      FXID {0E594A54-9DFF-474C-9DBB-9EDC22F58FC3}
      WAK 0 0
    >
    <ITEM
      POSITION 0
      LENGTH 9.3001558
      LOOP 0
      ALLTAKES 0
      FADEIN 0 0 0 0 0 0 0
      FADEOUT 0 0 0 0 0 0 0
      MUTE 0 0
      SEL 0
      IGUID {B313C046-43B0-4E00-93B8-46F92D54F1F5}
      <SOURCE MIDI
        HASDATA 1 480 QN
        CCINTERP 32
        E 0 c1 51
        E 0 b1 0c 10
        E 0 b1 0b 3b
        E 0 91 29 3b
        E 16 b1 0b 33
        E 16 b1 0b 2a
        E 32 b1 0b 22
        E 16 b1 0b 19
        E 32 b1 0b 11
        E 16 b1 0b 08
        E 32 81 29 00
        E 32 b1 0b 3b
        E 0 91 1d 3b
        E 16 b1 0b 33
        E 16 b1 0b 2a
        E 32 b1 0b 22
        E 32 b1 0b 19
        E 16 b1 0b 11
        E 32 b1 0b 08
        E 16 81 1d 00
        E 192 b1 0b 3b
        E 0 91 1d 3b
        E 16 b1 0b 33
        E 16 b1 0b 2a
        E 32 b1 0b 22
        E 16 b1 0b 19
        E 32 b1 0b 11
        E 16 b1 0b 08
        E 32 81 1d 00
        E 208 b1 0b 3b
        E 0 91 1d 3b
        E 16 b1 0b 33
        E 16 b1 0b 2a
        E 32 b1 0b 22
        E 16 b1 0b 19
        E 32 b1 0b 11
        E 16 b1 0b 08
        E 32 81 1d 00
        E 32 b1 0b 3b
        E 0 91 27 3b
        E 16 b1 0b 33
        E 32 b1 0b 2a
        E 16 b1 0b 22
        E 32 b1 0b 19
        E 16 b1 0b 11
        E 32 b1 0b 08
        E 16 81 27 00
        E 16 b1 0b 3b
        E 0 91 1b 3b
        E 16 b1 0b 33
        E 16 b1 0b 2a
        E 32 b1 0b 22
        E 16 b1 0b 19
        E 32 b1 0b 11
        E 16 b1 0b 08
        E 32 81 1b 00
        E 16 b1 0b 3b
        E 0 91 29 3b
        E 16 b1 0b 33
        E 16 b1 0b 2a
        E 32 b1 0b 22
        E 16 b1 0b 19
        E 32 b1 0b 11
        E 16 b1 0b 08
        E 32 81 29 00
        E 32 b1 0b 3b
        E 0 91 1d 3b
        E 16 b1 0b 33
        E 16 b1 0b 2a
        E 32 b1 0b 22
        E 32 b1 0b 19
        E 16 b1 0b 11
        E 32 b1 0b 08
        E 16 81 1d 00
        E 192 b1 0b 3b
        E 0 91 1d 3b
        E 16 b1 0b 33
        E 16 b1 0b 2a
        E 32 b1 0b 22
        E 16 b1 0b 19
        E 32 b1 0b 11
        E 16 b1 0b 08
        E 32 81 1d 00
        E 208 b1 0b 3b
        E 0 91 1d 3b
        E 16 b1 0b 33
        E 16 b1 0b 2a
        E 32 b1 0b 22
        E 16 b1 0b 19
        E 32 b1 0b 11
        E 16 b1 0b 08
        E 32 81 1d 00
        E 32 b1 0b 3b
        E 0 91 25 3b
        E 16 b1 0b 33
        E 32 b1 0b 2a
        E 16 b1 0b 22
        E 32 b1 0b 19
        E 16 b1 0b 11
        E 32 b1 0b 08
        E 16 81 25 00
        E 16 b1 0b 3b
        E 0 91 1b 3b
        E 16 b1 0b 33
        E 16 b1 0b 2a
        E 32 b1 0b 22
        E 16 b1 0b 19
        E 32 b1 0b 11
        E 16 b1 0b 08
        E 32 81 1b 00
        E 16 b1 0b 3b
        E 0 91 29 3b
        E 16 b1 0b 33
        E 16 b1 0b 2a
        E 32 b1 0b 22
        E 16 b1 0b 19
        E 32 b1 0b 11
        E 16 b1 0b 08
        E 32 81 29 00
        E 32 b1 0b 3b
        E 0 91 1d 3b
        E 16 b1 0b 33
        E 16 b1 0b 2a
        E 32 b1 0b 22
        E 32 b1 0b 19
        E 16 b1 0b 11
        E 32 b1 0b 08
        E 16 81 1d 00
        E 208 b1 0b 3b
        E 0 91 1d 3b
        E 16 b1 0b 33
        E 32 b1 0b 2a
        E 16 b1 0b 22
        E 32 b1 0b 19
        E 16 b1 0b 11
        E 32 b1 0b 08
        E 16 81 1d 00
        E 192 b1 0b 3b
        E 0 91 1d 3b
        E 16 b1 0b 33
        E 16 b1 0b 2a
        E 32 b1 0b 22
        E 16 b1 0b 19
        E 32 b1 0b 11
        E 16 b1 0b 08
        E 32 81 1d 00
        E 32 b1 0b 3b
        E 0 91 27 3b
        E 16 b1 0b 33
        E 32 b1 0b 2a
        E 16 b1 0b 22
        E 32 b1 0b 19
        E 16 b1 0b 11
        E 32 b1 0b 08
        E 16 81 27 00
        E 16 b1 0b 3b
        E 0 91 1b 3b
        E 16 b1 0b 33
        E 16 b1 0b 2a
        E 32 b1 0b 22
        E 16 b1 0b 19
        E 32 b1 0b 11
        E 16 b1 0b 08
        E 32 81 1b 00
        E 16 b1 0b 3b
        E 0 91 29 3b
        E 16 b1 0b 33
        E 16 b1 0b 2a
        E 32 b1 0b 22
        E 16 b1 0b 19
        E 32 b1 0b 11
        E 16 b1 0b 08
        E 32 81 29 00
        E 32 b1 0b 3b
        E 0 91 1d 3b
        E 16 b1 0b 33
        E 16 b1 0b 2a
        E 32 b1 0b 22
        E 32 b1 0b 19
        E 16 b1 0b 11
        E 32 b1 0b 08
        E 16 81 1d 00
        E 208 b1 0b 3b
        E 0 91 1d 3b
        E 16 b1 0b 22
        E 32 b1 0b 19
        E 16 b1 0b 11
        E 32 b1 0b 08
        E 16 81 1d 00
        E 192 b1 0b 3b
        E 0 91 1d 3b
        E 16 b1 0b 33
        E 16 b1 0b 2a
        E 32 b1 0b 22
        E 16 b1 0b 19
        E 32 b1 0b 11
        E 16 b1 0b 08
        E 32 81 1d 00
        E 32 b1 0b 3b
        E 0 91 25 3b
        E 16 b1 0b 33
        E 16 b1 0b 2a
        E 32 b1 0b 22
        E 32 b1 0b 19
        E 16 b1 0b 11
        E 32 b1 0b 08
        E 16 81 25 00
        E 16 b1 0b 3b
        E 0 91 1b 3b
        E 16 b1 0b 33
        E 16 b1 0b 2a
        E 32 b1 0b 22
        E 16 b1 0b 19
        E 32 b1 0b 11
        E 16 b1 0b 08
        E 32 81 1b 00
        E 16 b1 0b 3b
        E 0 91 29 3b
        E 16 b1 0b 33
        E 16 b1 0b 2a
        E 32 b1 0b 22
        E 16 b1 0b 19
        E 32 b1 0b 11
        E 16 b1 0b 08
        E 32 81 29 00
        E 32 b1 0b 3b
        E 0 91 1d 3b
        E 16 b1 0b 33
        E 16 b1 0b 2a
        E 32 b1 0b 22
        E 32 b1 0b 19
        E 16 b1 0b 11
        E 32 b1 0b 08
        E 16 81 1d 00
        E 208 b1 0b 3b
        E 0 91 1d 3b
        E 16 b1 0b 33
        E 32 b1 0b 2a
        E 16 b1 0b 22
        E 32 b1 0b 19
        E 16 b1 0b 11
        E 32 b1 0b 08
        E 16 81 1d 00
        E 192 b1 0b 3b
        E 0 91 1d 3b
        E 16 b1 0b 33
        E 16 b1 0b 2a
        E 32 b1 0b 22
        E 16 b1 0b 19
        E 32 b1 0b 11
        E 16 b1 0b 08
        E 32 81 1d 00
        E 32 b1 0b 3b
        E 0 91 27 3b
        E 16 b1 0b 33
        E 16 b1 0b 2a
        E 32 b1 0b 22
        E 32 b1 0b 19
        E 16 b1 0b 11
        E 32 b1 0b 08
        E 16 81 27 00
        E 16 b1 0b 3b
        E 0 91 1b 3b
        E 16 b1 0b 33
        E 16 b1 0b 2a
        E 32 b1 0b 22
        E 16 b1 0b 19
        E 32 b1 0b 11
        E 16 b1 0b 08
        E 32 81 1b 00
        E 16 b1 0b 3b
        E 0 91 29 3b
        E 16 b1 0b 33
        E 16 b1 0b 2a
        E 32 b1 0b 22
        E 16 b1 0b 19
        E 32 b1 0b 11
        E 16 b1 0b 08
        E 32 81 29 00
        E 32 b1 0b 3b
        E 0 91 1d 3b
        E 16 b1 0b 33
        E 16 b1 0b 2a
        E 32 b1 0b 22
        E 16 b1 0b 19
        E 32 b1 0b 11
        E 32 b1 0b 08
        E 16 81 1d 00
        E 208 b1 0b 3b
        E 0 91 1d 3b
        E 16 b1 0b 33
        E 32 b1 0b 2a
        E 16 b1 0b 22
        E 32 b1 0b 19
        E 16 b1 0b 11
        E 32 b1 0b 08
        E 16 81 1d 00
        E 192 b1 0b 3b
        E 0 91 1d 3b
        E 16 b1 0b 33
        E 16 b1 0b 2a
        E 32 b1 0b 22
        E 16 b1 0b 19
        E 32 b1 0b 11
        E 16 b1 0b 08
        E 32 81 1d 00
        E 32 b1 0b 3b
        E 0 91 25 3b
        E 16 b1 0b 33
        E 16 b1 0b 2a
        E 32 b1 0b 22
        E 32 b1 0b 19
        E 16 b1 0b 11
        E 32 b1 0b 08
        E 16 81 25 00
        E 16 b1 0b 3b
        E 0 91 1b 3b
        E 16 b1 0b 33
        E 16 b1 0b 2a
        E 32 b1 0b 22
        E 16 b1 0b 19
        E 32 b1 0b 11
        E 16 b1 0b 08
        E 32 81 1b 00
        E 16 b1 0b 3b
        E 0 91 29 3b
        E 16 b1 0b 33
        E 16 b1 0b 2a
        E 32 b1 0b 22
        E 16 b1 0b 19
        E 32 b1 0b 11
        E 16 b1 0b 08
        E 32 81 29 00
        E 32 b1 0b 3b
        E 0 91 1d 3b
        E 16 b1 0b 33
        E 16 b1 0b 2a
        E 32 b1 0b 22
        E 16 b1 0b 19
        E 32 b1 0b 11
        E 32 b1 0b 08
        E 16 81 1d 00
        E 208 b1 0b 3b
        E 0 91 1d 3b
        E 16 b1 0b 33
        E 32 b1 0b 2a
        E 16 b1 0b 22
        E 32 b1 0b 19
        E 16 b1 0b 11
        E 32 b1 0b 08
        E 16 81 1d 00
        E 160 b1 7b 00
        E 0 ff 2f 00
      >
    >
  >
  <TRACK {660DF4D2-6E34-4280-887A-A3CC8441CDEE}
    NAME "NES - Triangle [ch2]"
    PEAKCOL 16744192
    BEAT -1
    AUTOMODE 0
    PANLAWFLAGS 3
    VOLPAN 1 0 -1 -1 1
    MUTESOLO 0 0 0
    IPHASE 0
    PLAYOFFS 0 1
    ISBUS 0 0
    BUSCOMP 0 0 0 0 0
    SHOWINMIX 1 0.6667 0.5 1 0.5 0 0 0
    FIXEDLANES 9 0 0 0 0
    SEL 0
    REC 0 5088 1 0 0 0 0 0
    VU 2
    TRACKHEIGHT 0 0 0 0 0 0 0
    INQ 0 0 0 0.5 100 0 0 100
    NCHAN 2
    FX 1
    TRACKID {660DF4D2-6E34-4280-887A-A3CC8441CDEE}
    PERF 0
    MIDIOUT -1
    MAINSEND 1 0
    <FXCHAIN
      WNDRECT 24 52 700 560
      SHOW 0
      LASTSEL 0
      DOCKED 0
      BYPASS 0 0 0
      <JS "ReapNES Studio/ReapNES_Console.jsfx" ""
        2 15 1 10 80 10 100 2 1 15 1 5 60 10 80 1 1 0 50 0 0 15 1 0 100 0 0 0.500000 0.500000 0.400000 0.300000 0.800000 2 1 0 0 0 0 - - - - - - - - - - - - - - - - - - - - - - - - - -
      >
      FLOATPOS 0 0 0 0
      FXID {98B0C56C-CCA1-49B2-B23D-19A6EB2319A7}
      WAK 0 0
    >
    <ITEM
      POSITION 0
      LENGTH 9.3001558
      LOOP 0
      ALLTAKES 0
      FADEIN 0 0 0 0 0 0 0
      FADEOUT 0 0 0 0 0 0 0
      MUTE 0 0
      SEL 0
      IGUID {2A126235-6705-4DB2-8738-5F2A41AF0CBF}
      <SOURCE MIDI
        HASDATA 1 480 QN
        CCINTERP 32
        E 0 c2 26
        E 0 b2 0b 7f
        E 0 92 29 7f
        E 192 82 29 00
        E 0 b2 0b 7f
        E 0 92 1d 7f
        E 912 82 1d 00
        E 0 b2 0b 7f
        E 0 92 27 7f
        E 176 82 27 00
        E 0 b2 0b 7f
        E 0 92 1b 7f
        E 176 82 1b 00
        E 0 b2 0b 7f
        E 0 92 29 7f
        E 192 82 29 00
        E 0 b2 0b 7f
        E 0 92 1d 7f
        E 912 82 1d 00
        E 0 b2 0b 7f
        E 0 92 25 7f
        E 176 82 25 00
        E 0 b2 0b 7f
        E 0 92 1b 7f
        E 176 82 1b 00
        E 0 b2 0b 7f
        E 0 92 29 7f
        E 192 82 29 00
        E 0 b2 0b 7f
        E 0 92 1d 7f
        E 912 82 1d 00
        E 0 b2 0b 7f
        E 0 92 27 7f
        E 176 82 27 00
        E 0 b2 0b 7f
        E 0 92 1b 7f
        E 176 82 1b 00
        E 0 b2 0b 7f
        E 0 92 29 7f
        E 192 82 29 00
        E 0 b2 0b 7f
        E 0 92 1d 7f
        E 864 82 1d 00
        E 0 b2 0b 7f
        E 0 92 25 7f
        E 176 82 25 00
        E 0 b2 0b 7f
        E 0 92 1b 7f
        E 176 82 1b 00
        E 0 b2 0b 7f
        E 0 92 29 7f
        E 192 82 29 00
        E 0 b2 0b 7f
        E 0 92 1d 7f
        E 912 82 1d 00
        E 0 b2 0b 7f
        E 0 92 27 7f
        E 176 82 27 00
        E 0 b2 0b 7f
        E 0 92 1b 7f
        E 176 82 1b 00
        E 0 b2 0b 7f
        E 0 92 29 7f
        E 192 82 29 00
        E 0 b2 0b 7f
        E 0 92 1d 7f
        E 912 82 1d 00
        E 0 b2 0b 7f
        E 0 92 25 7f
        E 176 82 25 00
        E 0 b2 0b 7f
        E 0 92 1b 7f
        E 176 82 1b 00
        E 0 b2 0b 7f
        E 0 92 29 7f
        E 192 82 29 00
        E 0 b2 0b 7f
        E 0 92 1d 7f
        E 688 82 1d 00
        E 0 b2 7b 00
        E 0 ff 2f 00
      >
    >
  >
  <TRACK {29DC8E27-305D-49EB-9C5C-F7ED019FBE34}
    NAME "NES - Noise / Drums [ch3]"
    PEAKCOL 11184810
    BEAT -1
    AUTOMODE 0
    PANLAWFLAGS 3
    VOLPAN 1 0 -1 -1 1
    MUTESOLO 0 0 0
    IPHASE 0
    PLAYOFFS 0 1
    ISBUS 0 0
    BUSCOMP 0 0 0 0 0
    SHOWINMIX 1 0.6667 0.5 1 0.5 0 0 0
    FIXEDLANES 9 0 0 0 0
    SEL 0
    REC 0 5088 1 0 0 0 0 0
    VU 2
    TRACKHEIGHT 0 0 0 0 0 0 0
    INQ 0 0 0 0.5 100 0 0 100
    NCHAN 2
    FX 1
    TRACKID {29DC8E27-305D-49EB-9C5C-F7ED019FBE34}
    PERF 0
    MIDIOUT -1
    MAINSEND 1 0
    <FXCHAIN
      WNDRECT 24 52 700 560
      SHOW 0
      LASTSEL 0
      DOCKED 0
      BYPASS 0 0 0
      <JS "ReapNES Studio/ReapNES_Console.jsfx" ""
        2 15 1 10 80 10 100 2 1 15 1 5 60 10 80 1 1 0 50 0 0 15 1 0 100 0 0 0.500000 0.500000 0.400000 0.300000 0.800000 3 1 0 0 0 0 - - - - - - - - - - - - - - - - - - - - - - - - - -
      >
      FLOATPOS 0 0 0 0
      FXID {3AB09F03-688C-4F26-859B-2D5E5B599BC6}
      WAK 0 0
    >
    <ITEM
      POSITION 0
      LENGTH 9.3001558
      LOOP 0
      ALLTAKES 0
      FADEIN 0 0 0 0 0 0 0
      FADEOUT 0 0 0 0 0 0 0
      MUTE 0 0
      SEL 0
      IGUID {FE9E413D-3A12-4628-B563-1C29B270027D}
      <SOURCE MIDI
        HASDATA 1 480 QN
        CCINTERP 32
        E 0 93 2a 4c
        E 192 83 2a 00
        E 0 93 2a 22
        E 176 83 2a 00
        E 0 93 2a 22
        E 176 83 2a 00
        E 0 93 2a 22
        E 192 83 2a 00
        E 0 93 2a 3b
        E 176 83 2a 00
        E 0 93 2a 22
        E 192 83 2a 00
        E 0 93 2a 22
        E 80 83 2a 00
        E 0 93 2a 22
        E 272 83 2a 00
        E 0 93 2a 4c
        E 192 83 2a 00
        E 0 93 2a 22
        E 176 83 2a 00
        E 0 93 2a 22
        E 176 83 2a 00
        E 0 93 2a 22
        E 192 83 2a 00
        E 0 93 2a 3b
        E 176 83 2a 00
        E 0 93 2a 22
        E 192 83 2a 00
        E 0 93 2a 22
        E 80 83 2a 00
        E 0 93 2a 22
        E 272 83 2a 00
        E 0 93 2a 4c
        E 192 83 2a 00
        E 0 93 2a 22
        E 176 83 2a 00
        E 0 93 2a 22
        E 192 83 2a 00
        E 0 93 2a 22
        E 176 83 2a 00
        E 0 93 2a 3b
        E 176 83 2a 00
        E 0 93 2a 22
        E 192 83 2a 00
        E 0 93 2a 22
        E 80 83 2a 00
        E 0 93 2a 22
        E 272 83 2a 00
        E 0 93 2a 4c
        E 192 83 2a 00
        E 0 93 2a 22
        E 176 83 2a 00
        E 0 93 2a 22
        E 192 83 2a 00
        E 0 93 2a 22
        E 128 83 2a 00
        E 0 93 2a 3b
        E 176 83 2a 00
        E 0 93 2a 22
        E 192 83 2a 00
        E 0 93 2a 22
        E 80 83 2a 00
        E 0 93 2a 22
        E 272 83 2a 00
        E 0 93 2a 4c
        E 192 83 2a 00
        E 0 93 2a 22
        E 176 83 2a 00
        E 0 93 2a 22
        E 192 83 2a 00
        E 0 93 2a 22
        E 176 83 2a 00
        E 0 93 2a 3b
        E 176 83 2a 00
        E 0 93 2a 22
        E 192 83 2a 00
        E 0 93 2a 22
        E 80 83 2a 00
        E 0 93 2a 22
        E 272 83 2a 00
        E 0 93 2a 4c
        E 192 83 2a 00
        E 0 93 2a 22
        E 176 83 2a 00
        E 0 93 2a 22
        E 192 83 2a 00
        E 0 93 2a 22
        E 176 83 2a 00
        E 0 93 2a 3b
        E 176 83 2a 00
        E 0 93 2a 22
        E 192 83 2a 00
        E 0 93 2a 22
        E 80 83 2a 00
        E 0 93 2a 22
        E 272 83 2a 00
        E 0 93 2a 4c
        E 192 83 2a 00
        E 0 93 2a 22
        E 176 83 2a 00
        E 0 93 2a 22
        E 192 83 2a 00
        E 0 93 2a 22
        E 176 83 2a 00
        E 0 93 2a 3b
        E 144 83 2a 00
        E 0 b3 7b 00
        E 0 ff 2f 00
      >
    >
  >
>