<REAPER_PROJECT 0.1 "7.27/win64" 1707000000
  <NOTES 0 2
    |ReapNES Studio Project
    |MIDI Import - Battletoads_18_Song_18_v1
  >
  RIPPLE 0
  GROUPOVERRIDE 0 0 0
  AUTOXFADE 129
  ENVATTACH 3
  POOLEDENVATTACH 0
  MIXERUIFLAGS 11 48
  ENVFADESZ10 40
  PEAKGAIN 1
  FEEDBACK 0
  PANLAW 1
  PROJOFFS 0 0 0
  MAXPROJLEN 0 0
  GRID 3199 8 1 8 1 0 0 0
  TIMEMODE 1 5 -1 30 0 0 -1
  VIDEO_CONFIG 0 0 65792
  PANMODE 3
  PANLAWFLAGS 3
  CURSOR 0
  ZOOM 100 0 0
  VZOOMEX 6 0
  USE_REC_CFG 0
  RECMODE 1
  SMPTESYNC 0 30 100 40 1000 300 0 0 1 0 0
  LOOP 0
  LOOPGRAN 0 4
  RECORD_PATH "Media" ""
  <RECORD_CFG
    ZXZhdxgAAQ==
  >
  <APPLYFX_CFG
  >
  RENDER_FILE ""
  RENDER_PATTERN ""
  RENDER_FMT 0 2 0
  RENDER_1X 0
  RENDER_RANGE 1 0 0 18 1000
  RENDER_RESAMPLE 3 0 1
  RENDER_ADDTOPROJ 0
  RENDER_STEMS 0
  RENDER_DITHER 0
  TIMELOCKMODE 1
  TEMPOENVLOCKMODE 1
  ITEMMIX 1
  DEFPITCHMODE 589824 0
  TAKELANE 1
  SAMPLERATE 44100 0 0
  <RENDER_CFG
    ZXZhdxgAAQ==
  >
  LOCK 1
  <METRONOME 6 2
    VOL 0.25 0.125
    BEATLEN 4
    FREQ 1760 880 1
    SAMPLES "" ""
    SPLIGNORE 0 0
    SPLDEF 2 660 "" 0
    SPLDEF 3 440 "" 0
    PATTERN 0 169
    PATTERNSTR ABBB
    MULT 1
  >
  GLOBAL_AUTO -1
  TEMPO 128.59999614200012 4 4
  PLAYRATE 1 0 0.25 4
  SELECTION 0 0
  SELECTION2 0 0
  MASTERAUTOMODE 0
  MASTERTRACKHEIGHT 0 0
  MASTERPEAKCOL 16576
  MASTERMUTESOLO 0
  MASTERTRACKVIEW 0 0.6667 0.5 0.5 0 0 0 0 0 0 0 0 0 0
  MASTERHWOUT 0 0 1 0 0 0 0 -1
  MASTER_NCH 2 2
  MASTER_VOLUME 1 0 -1 -1 1
  MASTER_PANMODE 3
  MASTER_PANLAWFLAGS 3
  MASTER_FX 1
  MASTER_SEL 0
  <MASTERPLAYSPEEDENV
    EGUID {0A7B9311-6049-49B4-A3AE-DCA5F9B9FB83}
    ACT 0 -1
    VIS 0 1 1
    LANEHEIGHT 0 0
    ARM 0
    DEFSHAPE 0 -1 -1
  >
  <TEMPOENVEX
    EGUID {361CF4F2-3522-464D-9EA6-A75BACD15132}
    ACT 1 -1
    VIS 1 0 1
    LANEHEIGHT 0 0
    ARM 0
    DEFSHAPE 1 -1 -1
  >
  <PROJBAY
  >
  <TRACK {0CE0DDB1-AF7E-414A-9BB5-B39937DFB1ED}
    NAME "NES - Pulse 1 [ch0]"
    PEAKCOL 16576606
    BEAT -1
    AUTOMODE 0
    PANLAWFLAGS 3
    VOLPAN 1 0 -1 -1 1
    MUTESOLO 0 0 0
    IPHASE 0
    PLAYOFFS 0 1
    ISBUS 0 0
    BUSCOMP 0 0 0 0 0
    SHOWINMIX 1 0.6667 0.5 1 0.5 0 0 0
    FIXEDLANES 9 0 0 0 0
    SEL 1
    REC 0 5088 1 0 0 0 0 0
    VU 2
    TRACKHEIGHT 0 0 0 0 0 0 0
    INQ 0 0 0 0.5 100 0 0 100
    NCHAN 2
    FX 1
    TRACKID {0CE0DDB1-AF7E-414A-9BB5-B39937DFB1ED}
    PERF 0
    MIDIOUT -1
    MAINSEND 1 0
    <FXCHAIN
      WNDRECT 24 52 700 560
      SHOW 0
      LASTSEL 0
      DOCKED 0
      BYPASS 0 0 0
      <JS "ReapNES Studio/ReapNES_Console.jsfx" ""
        2 15 1 10 80 10 100 2 1 15 1 5 60 10 80 1 1 0 50 0 0 15 1 0 100 0 0 0.500000 0.500000 0.400000 0.300000 0.800000 0 1 0 0 0 0 - - - - - - - - - - - - - - - - - - - - - - - - - -
      >
      FLOATPOS 0 0 0 0
      FXID {C856E1E3-D4AE-4563-AF14-21876BAB76B4}
      WAK 0 0
    >
    <ITEM
      POSITION 0
      LENGTH 83.98134
      LOOP 0
      ALLTAKES 0
      FADEIN 0 0 0 0 0 0 0
      FADEOUT 0 0 0 0 0 0 0
      MUTE 0 0
      SEL 0
      IGUID {2FB51F60-5B76-4835-9EF0-1418AB0755BB}
      <SOURCE MIDI
        HASDATA 1 480 QN
        CCINTERP 32
        E 0 c0 50
        E 448 b0 0c 40
        E 0 b0 0b 10
        E 0 90 3f 10
        E 64 b0 0b 08
        E 32 80 3f 00
        E 928 b0 0b 10
        E 0 90 3d 10
        E 64 b0 0b 08
        E 32 80 3d 00
        E 528 b0 0b 18
        E 0 90 3f 18
        E 80 b0 0b 10
        E 32 b0 0b 08
        E 48 80 3f 00
        E 864 b0 0b 18
        E 0 90 3d 18
        E 80 b0 0b 10
        E 32 b0 0b 08
        E 48 80 3d 00
        E 448 b0 0b 28
        E 0 90 3f 28
        E 64 b0 0b 20
        E 48 b0 0b 18
        E 32 b0 0b 10
        E 48 b0 0b 08
        E 48 80 3f 00
        E 784 b0 0b 28
        E 0 90 3d 28
        E 64 b0 0b 20
        E 48 b0 0b 18
        E 32 b0 0b 10
        E 48 b0 0b 08
        E 16 80 3d 00
        E 400 b0 0b 38
        E 0 90 3f 38
        E 48 b0 0b 30
        E 48 b0 0b 28
        E 48 b0 0b 20
        E 32 b0 0b 18
        E 48 b0 0b 10
        E 48 b0 0b 08
        E 32 80 3f 00
        E 720 b0 0b 38
        E 0 90 3d 38
        E 48 b0 0b 30
        E 48 b0 0b 28
        E 48 b0 0b 20
        E 32 b0 0b 18
        E 32 b0 0b 38
        E 0 80 3d 00
        E 0 90 3f 38
        E 96 b0 0b 30
        E 16 b0 0b 38
        E 0 80 3f 00
        E 0 90 41 38
        E 96 80 41 00
        E 0 90 42 38
        E 64 b0 0b 30
        E 32 b0 0b 38
        E 0 80 42 00
        E 0 90 41 38
        E 96 b0 0b 30
        E 16 b0 0b 38
        E 0 80 41 00
        E 0 90 42 38
        E 96 80 42 00
        E 0 90 41 38
        E 64 b0 0b 30
        E 48 b0 0b 38
        E 0 80 41 00
        E 0 90 3f 38
        E 80 b0 0b 30
        E 16 b0 0b 38
        E 0 80 3f 00
        E 0 90 41 38
        E 96 80 41 00
        E 0 90 42 38
        E 48 b0 0b 30
        E 64 b0 0b 38
        E 0 80 42 00
        E 0 90 41 38
        E 64 b0 0b 30
        E 32 b0 0b 38
        E 0 80 41 00
        E 0 90 42 38
        E 96 b0 0b 30
        E 16 b0 0b 38
        E 0 80 42 00
        E 0 90 41 38
        E 96 80 41 00
        E 0 90 42 38
        E 64 b0 0b 30
        E 32 b0 0b 38
        E 0 80 42 00
        E 0 90 41 38
        E 96 b0 0b 30
        E 16 b0 0b 38
        E 0 80 41 00
        E 0 90 3f 38
        E 96 80 3f 00
        E 0 90 41 38
        E 48 80 41 00
        E 64 90 3f 38
        E 96 80 3f 00
        E 0 90 41 38
        E 64 b0 0b 30
        E 32 b0 0b 38
        E 0 80 41 00
        E 0 90 42 38
        E 96 b0 0b 30
        E 16 b0 0b 38
        E 0 80 42 00
        E 0 90 41 38
        E 96 80 41 00
        E 0 90 42 38
        E 64 b0 0b 30
        E 48 b0 0b 38
        E 0 80 42 00
        E 0 90 41 38
        E 80 b0 0b 30
        E 16 b0 0b 38
        E 0 80 41 00
        E 0 90 3f 38
        E 96 80 3f 00
        E 0 90 41 38
        E 48 b0 0b 30
        E 64 b0 0b 38
        E 0 80 41 00
        E 0 90 42 38
        E 64 b0 0b 30
        E 32 b0 0b 38
        E 0 80 42 00
        E 0 90 41 38
        E 96 b0 0b 30
        E 16 b0 0b 38
        E 0 80 41 00
        E 0 90 42 38
        E 96 80 42 00
        E 0 90 41 38
        E 64 b0 0b 30
        E 32 b0 0b 38
        E 0 80 41 00
        E 0 90 42 38
        E 96 b0 0b 30
        E 16 b0 0b 38
        E 0 80 42 00
        E 0 90 41 38
        E 96 80 41 00
        E 0 90 3f 38
        E 64 b0 0b 30
        E 48 b0 0b 38
        E 0 80 3f 00
        E 0 90 41 38
        E 48 80 41 00
        E 48 90 3f 38
        E 64 b0 0b 30
        E 32 b0 0b 38
        E 0 80 3f 00
        E 0 90 41 38
        E 96 b0 0b 30
        E 16 b0 0b 38
        E 0 80 41 00
        E 0 90 42 38
        E 96 80 42 00
        E 0 90 41 38
        E 64 b0 0b 30
        E 48 b0 0b 38
        E 0 80 41 00
        E 0 90 42 38
        E 80 b0 0b 30
        E 16 b0 0b 38
        E 0 80 42 00
        E 0 90 41 38
        E 96 80 41 00
        E 0 90 3f 38
        E 48 b0 0b 30
        E 64 b0 0b 38
        E 0 80 3f 00
        E 0 90 41 38
        E 64 b0 0b 30
        E 32 b0 0b 38
        E 0 80 41 00
        E 0 90 42 38
        E 96 b0 0b 30
        E 16 b0 0b 38
        E 0 80 42 00
        E 0 90 41 38
        E 96 80 41 00
        E 0 90 42 38
        E 64 b0 0b 30
        E 32 b0 0b 38
        E 0 80 42 00
        E 0 90 41 38
        E 96 b0 0b 30
        E 16 b0 0b 38
        E 0 80 41 00
        E 0 90 42 38
        E 96 80 42 00
        E 0 90 41 38
        E 64 b0 0b 30
        E 48 b0 0b 38
        E 0 80 41 00
        E 0 90 3f 38
        E 80 b0 0b 30
        E 16 b0 0b 38
        E 0 80 3f 00
        E 0 90 41 38
        E 48 80 41 00
        E 48 90 3f 38
        E 48 b0 0b 30
        E 48 b0 0b 28
        E 16 b0 0b 38
        E 64 b0 0b 30
        E 48 b0 0b 28
        E 48 b0 0b 20
        E 32 b0 0b 18
        E 16 b0 0b 38
        E 0 80 3f 00
        E 0 90 3d 38
        E 80 b0 0b 30
        E 16 b0 0b 38
        E 64 b0 0b 30
        E 48 b0 0b 28
        E 32 b0 0b 20
        E 48 b0 0b 18
        E 16 b0 0b 38
        E 0 80 3d 00
        E 0 90 3f 38
        E 64 b0 0b 30
        E 32 b0 0b 38
        E 64 b0 0b 30
        E 32 b0 0b 28
        E 48 b0 0b 20
        E 48 b0 0b 18
        E 16 b0 0b 38
        E 0 80 3f 00
        E 0 90 3d 38
        E 64 b0 0b 30
        E 32 b0 0b 38
        E 48 b0 0b 30
        E 48 b0 0b 28
        E 48 b0 0b 20
        E 32 b0 0b 18
        E 32 b0 0b 38
        E 0 80 3d 00
        E 0 90 3f 38
        E 64 b0 0b 30
        E 32 b0 0b 28
        E 48 b0 0b 20
        E 48 b0 0b 18
        E 16 b0 0b 38
        E 64 b0 0b 30
        E 48 b0 0b 28
        E 32 b0 0b 20
        E 48 b0 0b 18
        E 16 b0 0b 38
        E 96 80 3f 00
        E 0 90 41 38
        E 64 b0 0b 30
        E 48 b0 0b 38
        E 0 80 41 00
        E 0 90 42 38
        E 80 b0 0b 30
        E 16 b0 0b 38
        E 0 80 42 00
        E 0 90 41 38
        E 96 80 41 00
        E 0 90 42 38
        E 48 b0 0b 30
        E 64 b0 0b 38
        E 0 80 42 00
        E 0 90 41 38
        E 64 b0 0b 30
        E 32 b0 0b 38
        E 0 80 41 00
        E 0 90 3f 38
        E 96 b0 0b 30
        E 16 b0 0b 38
        E 0 80 3f 00
        E 0 90 41 38
        E 96 80 41 00
        E 0 90 42 38
        E 64 b0 0b 30
        E 32 b0 0b 38
        E 0 80 42 00
        E 0 90 41 38
        E 96 b0 0b 30
        E 16 b0 0b 38
        E 0 80 41 00
        E 0 90 42 38
        E 96 80 42 00
        E 0 90 41 38
        E 64 b0 0b 30
        E 48 b0 0b 38
        E 0 80 41 00
        E 0 90 42 38
        E 80 b0 0b 30
        E 16 b0 0b 38
        E 0 80 42 00
        E 0 90 41 38
        E 96 80 41 00
        E 0 90 3f 38
        E 48 b0 0b 30
        E 64 b0 0b 38
        E 0 80 3f 00
        E 0 90 41 38
        E 48 80 41 00
        E 48 90 3f 38
        E 64 b0 0b 30
        E 48 b0 0b 38
        E 0 80 3f 00
        E 0 90 41 38
        E 80 b0 0b 30
        E 16 b0 0b 38
        E 0 80 41 00
        E 0 90 42 38
        E 96 80 42 00
        E 0 90 41 38
        E 48 b0 0b 30
        E 64 b0 0b 38
        E 0 80 41 00
        E 0 90 42 38
        E 64 b0 0b 30
        E 32 b0 0b 38
        E 0 80 42 00
        E 0 90 41 38
        E 96 b0 0b 30
        E 16 b0 0b 38
        E 0 80 41 00
        E 0 90 3f 38
        E 96 80 3f 00
        E 0 90 41 38
        E 64 b0 0b 30
        E 32 b0 0b 38
        E 0 80 41 00
        E 0 90 42 38
        E 96 b0 0b 30
        E 16 b0 0b 38
        E 0 80 42 00
        E 0 90 41 38
        E 96 80 41 00
        E 0 90 42 38
        E 64 b0 0b 30
        E 48 b0 0b 38
        E 0 80 42 00
        E 0 90 41 38
        E 80 b0 0b 30
        E 16 b0 0b 38
        E 0 80 41 00
        E 0 90 42 38
        E 96 80 42 00
        E 0 90 41 38
        E 48 b0 0b 30
        E 64 b0 0b 38
        E 0 80 41 00
        E 0 90 3f 38
        E 64 b0 0b 30
        E 32 b0 0b 38
        E 0 80 3f 00
        E 0 90 41 38
        E 48 80 41 00
        E 64 90 3f 38
        E 80 b0 0b 30
        E 16 b0 0b 38
        E 0 80 3f 00
        E 0 90 41 38
        E 96 80 41 00
        E 0 90 42 38
        E 48 b0 0b 30
        E 64 b0 0b 38
        E 0 80 42 00
        E 0 90 41 38
        E 64 b0 0b 30
        E 32 b0 0b 38
        E 0 80 41 00
        E 0 90 42 38
        E 96 b0 0b 30
        E 16 b0 0b 38
        E 0 80 42 00
        E 0 90 41 38
        E 96 80 41 00
        E 0 90 3f 38
        E 64 b0 0b 30
        E 32 b0 0b 38
        E 0 80 3f 00
        E 0 90 41 38
        E 96 b0 0b 30
        E 16 b0 0b 38
        E 0 80 41 00
        E 0 90 42 38
        E 96 80 42 00
        E 0 90 41 38
        E 64 b0 0b 30
        E 48 b0 0b 38
        E 0 80 41 00
        E 0 90 42 38
        E 80 b0 0b 30
        E 16 b0 0b 38
        E 0 80 42 00
        E 0 90 41 38
        E 96 80 41 00
        E 0 90 42 38
        E 48 b0 0b 30
        E 64 b0 0b 38
        E 0 80 42 00
        E 0 90 41 38
        E 64 b0 0b 30
        E 32 b0 0b 38
        E 0 80 41 00
        E 0 90 3f 38
        E 96 b0 0b 30
        E 16 b0 0b 38
        E 0 80 3f 00
        E 0 90 41 38
        E 48 80 41 00
        E 48 90 3f 38
        E 64 b0 0b 30
        E 32 b0 0b 38
        E 48 b0 0b 30
        E 48 b0 0b 28
        E 48 b0 0b 20
        E 32 b0 0b 18
        E 32 b0 0b 38
        E 0 80 3f 00
        E 0 90 3d 38
        E 64 b0 0b 30
        E 32 b0 0b 28
        E 16 b0 0b 38
        E 80 b0 0b 30
        E 32 b0 0b 28
        E 48 b0 0b 20
        E 32 b0 0b 38
        E 0 80 3d 00
        E 0 90 3f 38
        E 48 b0 0b 30
        E 48 b0 0b 28
        E 16 b0 0b 38
        E 64 b0 0b 30
        E 48 b0 0b 28
        E 48 b0 0b 20
        E 32 b0 0b 18
        E 16 b0 0b 38
        E 0 80 3f 00
        E 0 90 3d 38
        E 80 b0 0b 30
        E 16 b0 0b 38
        E 64 b0 0b 30
        E 48 b0 0b 28
        E 32 b0 0b 20
        E 48 b0 0b 18
        E 16 b0 0b 38
        E 0 80 3d 00
        E 0 90 3f 38
        E 64 b0 0b 30
        E 48 b0 0b 28
        E 48 b0 0b 20
        E 32 b0 0b 18
        E 16 b0 0b 38
        E 80 b0 0b 30
        E 32 b0 0b 28
        E 48 b0 0b 20
        E 32 b0 0b 38
        E 0 80 3f 00
        E 0 90 4b 38
        E 48 b0 0b 30
        E 48 b0 0b 28
        E 16 b0 0b 38
        E 0 80 4b 00
        E 0 90 46 38
        E 64 b0 0b 30
        E 32 b0 0b 38
        E 0 80 46 00
        E 0 90 42 38
        E 64 b0 0b 30
        E 32 b0 0b 28
        E 16 b0 0b 38
        E 0 80 42 00
        E 0 90 49 38
        E 80 b0 0b 30
        E 16 b0 0b 38
        E 0 80 49 00
        E 0 90 44 38
        E 64 b0 0b 30
        E 32 b0 0b 38
        E 0 80 44 00
        E 0 90 41 38
        E 48 b0 0b 30
        E 48 b0 0b 28
        E 16 b0 0b 38
        E 0 80 41 00
        E 0 90 46 38
        E 64 b0 0b 30
        E 32 b0 0b 38
        E 0 80 46 00
        E 0 90 42 38
        E 64 b0 0b 30
        E 32 b0 0b 28
        E 16 b0 0b 38
        E 0 80 42 00
        E 0 90 3f 38
        E 80 b0 0b 30
        E 16 b0 0b 38
        E 0 80 3f 00
        E 0 90 44 38
        E 64 b0 0b 30
        E 32 b0 0b 38
        E 0 80 44 00
        E 0 90 41 38
        E 48 b0 0b 30
        E 48 b0 0b 28
        E 16 b0 0b 38
        E 0 80 41 00
        E 0 90 3c 38
        E 64 b0 0b 30
        E 32 b0 0b 38
        E 0 80 3c 00
        E 0 90 42 38
        E 64 b0 0b 30
        E 32 b0 0b 28
        E 16 b0 0b 38
        E 0 80 42 00
        E 0 90 3f 38
        E 80 b0 0b 30
        E 16 b0 0b 38
        E 0 80 3f 00
        E 0 90 3a 38
        E 64 b0 0b 30
        E 48 b0 0b 28
        E 32 b0 0b 20
        E 48 b0 0b 18
        E 16 b0 0b 38
        E 0 80 3a 00
        E 0 90 4b 38
        E 64 b0 0b 30
        E 32 b0 0b 38
        E 0 80 4b 00
        E 0 90 46 38
        E 64 b0 0b 30
        E 32 b0 0b 28
        E 16 b0 0b 38
        E 0 80 46 00
        E 0 90 42 38
        E 80 b0 0b 30
        E 16 b0 0b 38
        E 0 80 42 00
        E 0 90 49 38
        E 64 b0 0b 30
        E 32 b0 0b 38
        E 0 80 49 00
        E 0 90 44 38
        E 48 b0 0b 30
        E 48 b0 0b 28
        E 16 b0 0b 38
        E 0 80 44 00
        E 0 90 41 38
        E 64 b0 0b 30
        E 32 b0 0b 38
        E 0 80 41 00
        E 0 90 46 38
        E 64 b0 0b 30
        E 32 b0 0b 28
        E 16 b0 0b 38
        E 0 80 46 00
        E 0 90 42 38
        E 80 b0 0b 30
        E 16 b0 0b 38
        E 0 80 42 00
        E 0 90 3f 38
        E 64 b0 0b 30
        E 32 b0 0b 38
        E 0 80 3f 00
        E 0 90 44 38
        E 48 b0 0b 30
        E 48 b0 0b 28
        E 16 b0 0b 38
        E 0 80 44 00
        E 0 90 41 38
        E 64 b0 0b 30
        E 32 b0 0b 38
        E 0 80 41 00
        E 0 90 3c 38
        E 64 b0 0b 30
        E 32 b0 0b 28
        E 16 b0 0b 38
        E 0 80 3c 00
        E 0 90 42 38
        E 80 b0 0b 30
        E 16 b0 0b 38
        E 0 80 42 00
        E 0 90 3f 38
        E 64 b0 0b 30
        E 32 b0 0b 38
        E 0 80 3f 00
        E 0 90 3a 38
        E 48 b0 0b 30
        E 48 b0 0b 28
        E 48 b0 0b 20
        E 32 b0 0b 18
        E 32 b0 0b 38
        E 0 80 3a 00
        E 0 90 4b 38
        E 64 b0 0b 30
        E 32 b0 0b 28
        E 16 b0 0b 38
        E 0 80 4b 00
        E 0 90 46 38
        E 80 b0 0b 30
        E 16 b0 0b 38
        E 0 80 46 00
        E 0 90 42 38
        E 64 b0 0b 30
        E 32 b0 0b 38
        E 0 80 42 00
        E 0 90 49 38
        E 48 b0 0b 30
        E 48 b0 0b 28
        E 16 b0 0b 38
        E 0 80 49 00
        E 0 90 44 38
        E 64 b0 0b 30
        E 32 b0 0b 38
        E 0 80 44 00
        E 0 90 41 38
        E 64 b0 0b 30
        E 32 b0 0b 28
        E 16 b0 0b 38
        E 0 80 41 00
        E 0 90 46 38
        E 80 b0 0b 30
        E 16 b0 0b 38
        E 0 80 46 00
        E 0 90 42 38
        E 64 b0 0b 30
        E 32 b0 0b 38
        E 0 80 42 00
        E 0 90 3f 38
        E 48 b0 0b 30
        E 48 b0 0b 28
        E 16 b0 0b 38
        E 0 80 3f 00
        E 0 90 44 38
        E 64 b0 0b 30
        E 32 b0 0b 38
        E 0 80 44 00
        E 0 90 41 38
        E 64 b0 0b 30
        E 32 b0 0b 28
        E 16 b0 0b 38
        E 0 80 41 00
        E 0 90 3c 38
        E 80 b0 0b 30
        E 16 b0 0b 38
        E 0 80 3c 00
        E 0 90 42 38
        E 64 b0 0b 30
        E 32 b0 0b 38
        E 0 80 42 00
        E 0 90 3f 38
        E 48 b0 0b 30
        E 48 b0 0b 28
        E 16 b0 0b 38
        E 0 80 3f 00
        E 0 90 3a 38
        E 64 b0 0b 30
        E 48 b0 0b 28
        E 48 b0 0b 20
        E 32 b0 0b 18
        E 16 b0 0b 38
        E 0 80 3a 00
        E 0 90 3b 38
        E 80 b0 0b 30
        E 32 b0 0b 28
        E 48 b0 0b 20
        E 32 b0 0b 38
        E 48 b0 0b 30
        E 48 b0 0b 28
        E 16 b0 0b 38
        E 64 b0 0b 30
        E 48 b0 0b 28
        E 48 b0 0b 20
        E 32 b0 0b 18
        E 16 b0 0b 38
        E 80 b0 0b 30
        E 32 b0 0b 28
        E 48 b0 0b 20
        E 32 b0 0b 38
        E 48 b0 0b 30
        E 48 b0 0b 28
        E 16 b0 0b 38
        E 0 80 3b 00
        E 0 90 3d 38
        E 64 b0 0b 30
        E 48 b0 0b 28
        E 48 b0 0b 20
        E 32 b0 0b 18
        E 16 b0 0b 38
        E 80 b0 0b 30
        E 32 b0 0b 28
        E 48 b0 0b 20
        E 32 b0 0b 38
        E 48 b0 0b 30
        E 48 b0 0b 28
        E 48 b0 0b 20
        E 32 b0 0b 18
        E 48 b0 0b 10
        E 48 b0 0b 08
        E 32 80 3d 00
        E 112 b0 0b 38
        E 0 90 4b 38
        E 64 b0 0b 30
        E 32 b0 0b 38
        E 0 80 4b 00
        E 0 90 46 38
        E 48 b0 0b 30
        E 48 b0 0b 28
        E 16 b0 0b 38
        E 0 80 46 00
        E 0 90 42 38
        E 64 b0 0b 30
        E 32 b0 0b 38
        E 0 80 42 00
        E 0 90 49 38
        E 64 b0 0b 30
        E 32 b0 0b 28
        E 16 b0 0b 38
        E 0 80 49 00
        E 0 90 44 38
        E 80 b0 0b 30
        E 16 b0 0b 38
        E 0 80 44 00
        E 0 90 41 38
        E 64 b0 0b 30
        E 32 b0 0b 38
        E 0 80 41 00
        E 0 90 46 38
        E 48 b0 0b 30
        E 48 b0 0b 28
        E 16 b0 0b 38
        E 0 80 46 00
        E 0 90 42 38
        E 64 b0 0b 30
        E 32 b0 0b 38
        E 0 80 42 00
        E 0 90 3f 38
        E 64 b0 0b 30
        E 32 b0 0b 28
        E 16 b0 0b 38
        E 0 80 3f 00
        E 0 90 44 38
        E 80 b0 0b 30
        E 16 b0 0b 38
        E 0 80 44 00
        E 0 90 41 38
        E 64 b0 0b 30
        E 32 b0 0b 38
        E 0 80 41 00
        E 0 90 3c 38
        E 48 b0 0b 30
        E 48 b0 0b 28
        E 16 b0 0b 38
        E 0 80 3c 00
        E 0 90 42 38
        E 64 b0 0b 30
        E 32 b0 0b 38
        E 0 80 42 00
        E 0 90 3f 38
        E 64 b0 0b 30
        E 32 b0 0b 28
        E 16 b0 0b 38
        E 0 80 3f 00
        E 0 90 3a 38
        E 80 b0 0b 30
        E 32 b0 0b 28
        E 48 b0 0b 20
        E 32 b0 0b 38
        E 0 80 3a 00
        E 0 90 4b 38
        E 48 b0 0b 30
        E 48 b0 0b 28
        E 16 b0 0b 38
        E 0 80 4b 00
        E 0 90 46 38
        E 64 b0 0b 30
        E 32 b0 0b 38
        E 0 80 46 00
        E 0 90 42 38
        E 64 b0 0b 30
        E 32 b0 0b 28
        E 16 b0 0b 38
        E 0 80 42 00
        E 0 90 49 38
        E 80 b0 0b 30
        E 16 b0 0b 38
        E 0 80 49 00
        E 0 90 44 38
        E 64 b0 0b 30
        E 32 b0 0b 38
        E 0 80 44 00
        E 0 90 41 38
        E 48 b0 0b 30
        E 48 b0 0b 28
        E 16 b0 0b 38
        E 0 80 41 00
        E 0 90 46 38
        E 64 b0 0b 30
        E 32 b0 0b 38
        E 0 80 46 00
        E 0 90 42 38
        E 64 b0 0b 30
        E 32 b0 0b 28
        E 16 b0 0b 38
        E 0 80 42 00
        E 0 90 3f 38
        E 80 b0 0b 30
        E 16 b0 0b 38
        E 0 80 3f 00
        E 0 90 44 38
        E 64 b0 0b 30
        E 32 b0 0b 38
        E 0 80 44 00
        E 0 90 41 38
        E 48 b0 0b 30
        E 48 b0 0b 28
        E 16 b0 0b 38
        E 0 80 41 00
        E 0 90 3c 38
        E 64 b0 0b 30
        E 32 b0 0b 38
        E 0 80 3c 00
        E 0 90 42 38
        E 64 b0 0b 30
        E 32 b0 0b 28
        E 16 b0 0b 38
        E 0 80 42 00
        E 0 90 3f 38
        E 80 b0 0b 30
        E 16 b0 0b 38
        E 0 80 3f 00
        E 0 90 3a 38
        E 64 b0 0b 30
        E 48 b0 0b 28
        E 32 b0 0b 20
        E 48 b0 0b 18
        E 16 b0 0b 38
        E 0 80 3a 00
        E 0 90 4b 38
        E 64 b0 0b 30
        E 32 b0 0b 38
        E 0 80 4b 00
        E 0 90 46 38
        E 64 b0 0b 30
        E 32 b0 0b 28
        E 16 b0 0b 38
        E 0 80 46 00
        E 0 90 42 38
        E 80 b0 0b 30
        E 16 b0 0b 38
        E 0 80 42 00
        E 0 90 49 38
        E 64 b0 0b 30
        E 32 b0 0b 38
        E 0 80 49 00
        E 0 90 44 38
        E 48 b0 0b 30
        E 48 b0 0b 28
        E 16 b0 0b 38
        E 0 80 44 00
        E 0 90 41 38
        E 64 b0 0b 30
        E 32 b0 0b 38
        E 0 80 41 00
        E 0 90 46 38
        E 64 b0 0b 30
        E 32 b0 0b 28
        E 16 b0 0b 38
        E 0 80 46 00
        E 0 90 42 38
        E 80 b0 0b 30
        E 16 b0 0b 38
        E 0 80 42 00
        E 0 90 3f 38
        E 64 b0 0b 30
        E 32 b0 0b 38
        E 0 80 3f 00
        E 0 90 44 38
        E 48 b0 0b 30
        E 48 b0 0b 28
        E 16 b0 0b 38
        E 0 80 44 00
        E 0 90 41 38
        E 64 b0 0b 30
        E 32 b0 0b 38
        E 0 80 41 00
        E 0 90 3c 38
        E 64 b0 0b 30
        E 32 b0 0b 28
        E 16 b0 0b 38
        E 0 80 3c 00
        E 0 90 42 38
        E 80 b0 0b 30
        E 16 b0 0b 38
        E 0 80 42 00
        E 0 90 3f 38
        E 64 b0 0b 30
        E 32 b0 0b 38
        E 0 80 3f 00
        E 0 90 3a 38
        E 48 b0 0b 30
        E 48 b0 0b 28
        E 48 b0 0b 20
        E 32 b0 0b 18
        E 32 b0 0b 38
        E 0 80 3a 00
        E 0 90 3b 38
        E 64 b0 0b 30
        E 32 b0 0b 28
        E 48 b0 0b 20
        E 48 b0 0b 18
        E 16 b0 0b 38
        E 64 b0 0b 30
        E 32 b0 0b 38
        E 48 b0 0b 30
        E 48 b0 0b 28
        E 48 b0 0b 20
        E 32 b0 0b 18
        E 32 b0 0b 38
        E 64 b0 0b 30
        E 32 b0 0b 28
        E 48 b0 0b 20
        E 48 b0 0b 18
        E 16 b0 0b 38
        E 64 b0 0b 30
        E 32 b0 0b 38
        E 0 80 3b 00
        E 0 90 3d 38
        E 48 b0 0b 30
        E 48 b0 0b 28
        E 48 b0 0b 20
        E 32 b0 0b 18
        E 32 b0 0b 38
        E 64 b0 0b 30
        E 32 b0 0b 28
        E 48 b0 0b 20
        E 48 b0 0b 18
        E 16 b0 0b 38
        E 64 b0 0b 30
        E 48 b0 0b 28
        E 32 b0 0b 20
        E 48 b0 0b 18
        E 48 b0 0b 10
        E 32 b0 0b 08
        E 48 80 3d 00
        E 496 b0 0b 38
        E 0 90 3f 38
        E 64 b0 0b 30
        E 32 b0 0b 28
        E 48 b0 0b 20
        E 48 b0 0b 18
        E 32 b0 0b 10
        E 48 b0 0b 08
        E 32 80 3f 00
        E 720 b0 0b 38
        E 0 90 3d 38
        E 64 b0 0b 30
        E 32 b0 0b 28
        E 48 b0 0b 20
        E 48 b0 0b 18
        E 16 80 3d 00
        E 416 b0 0b 38
        E 0 90 3f 38
        E 80 b0 0b 30
        E 32 b0 0b 28
        E 48 b0 0b 20
        E 48 b0 0b 18
        E 32 b0 0b 10
        E 48 b0 0b 08
        E 16 80 3f 00
        E 720 b0 0b 38
        E 0 90 3d 38
        E 80 b0 0b 30
        E 32 b0 0b 28
        E 48 b0 0b 20
        E 32 80 3d 00
        E 416 b0 0b 38
        E 0 90 3f 38
        E 64 b0 0b 30
        E 48 b0 0b 28
        E 32 b0 0b 20
        E 48 b0 0b 18
        E 48 b0 0b 10
        E 32 b0 0b 08
        E 32 80 3f 00
        E 720 b0 0b 38
        E 0 90 3d 38
        E 64 b0 0b 30
        E 48 b0 0b 28
        E 32 b0 0b 20
        E 48 b0 0b 18
        E 16 80 3d 00
        E 400 b0 0b 38
        E 0 90 46 38
        E 48 b0 0b 30
        E 48 b0 0b 28
        E 48 b0 0b 20
        E 32 b0 0b 18
        E 32 b0 0b 38
        E 0 80 46 00
        E 0 90 41 38
        E 64 b0 0b 30
        E 32 b0 0b 28
        E 16 b0 0b 38
        E 0 80 41 00
        E 0 90 46 38
        E 80 b0 0b 30
        E 32 b0 0b 28
        E 48 b0 0b 20
        E 32 b0 0b 38
        E 0 80 46 00
        E 0 90 41 38
        E 48 b0 0b 30
        E 48 b0 0b 28
        E 16 b0 0b 38
        E 0 80 41 00
        E 0 90 46 38
        E 64 b0 0b 30
        E 48 b0 0b 28
        E 48 b0 0b 20
        E 32 b0 0b 18
        E 16 b0 0b 38
        E 80 b0 0b 30
        E 32 b0 0b 28
        E 48 b0 0b 20
        E 32 b0 0b 38
        E 0 80 46 00
        E 0 90 41 38
        E 48 b0 0b 30
        E 48 b0 0b 28
        E 48 b0 0b 20
        E 32 b0 0b 18
        E 32 80 41 00
        E 416 b0 0b 38
        E 0 90 3f 38
        E 64 b0 0b 30
        E 48 b0 0b 28
        E 48 b0 0b 20
        E 32 b0 0b 18
        E 48 b0 0b 10
        E 48 b0 0b 08
        E 16 80 3f 00
        E 720 b0 0b 38
        E 0 90 3d 38
        E 64 b0 0b 30
        E 48 b0 0b 28
        E 48 b0 0b 20
        E 32 b0 0b 18
        E 16 80 3d 00
        E 400 b0 0b 38
        E 0 90 3f 38
        E 64 b0 0b 30
        E 32 b0 0b 28
        E 48 b0 0b 20
        E 48 b0 0b 18
        E 32 b0 0b 10
        E 48 b0 0b 08
        E 32 80 3f 00
        E 720 b0 0b 38
        E 0 90 3d 38
        E 64 b0 0b 30
        E 32 b0 0b 28
        E 48 b0 0b 20
        E 48 b0 0b 18
        E 16 80 3d 00
        E 416 b0 0b 38
        E 0 90 3f 38
        E 80 b0 0b 30
        E 32 b0 0b 28
        E 48 b0 0b 20
        E 48 b0 0b 18
        E 32 b0 0b 10
        E 48 b0 0b 08
        E 16 80 3f 00
        E 720 b0 0b 38
        E 0 90 3d 38
        E 80 b0 0b 30
        E 32 b0 0b 28
        E 48 b0 0b 20
        E 32 80 3d 00
        E 416 b0 0b 38
        E 0 90 46 38
        E 64 b0 0b 30
        E 48 b0 0b 28
        E 32 b0 0b 20
        E 48 b0 0b 18
        E 16 b0 0b 38
        E 0 80 46 00
        E 0 90 41 38
        E 64 b0 0b 30
        E 32 b0 0b 38
        E 0 80 41 00
        E 0 90 46 38
        E 64 b0 0b 30
        E 32 b0 0b 28
        E 48 b0 0b 20
        E 48 b0 0b 18
        E 16 b0 0b 38
        E 0 80 46 00
        E 0 90 41 38
        E 64 b0 0b 30
        E 32 b0 0b 38
        E 0 80 41 00
        E 0 90 46 38
        E 48 b0 0b 30
        E 48 b0 0b 28
        E 48 b0 0b 20
        E 32 b0 0b 18
        E 32 b0 0b 38
        E 64 b0 0b 30
        E 32 b0 0b 28
        E 48 b0 0b 20
        E 48 b0 0b 18
        E 16 b0 0b 38
        E 0 80 46 00
        E 0 90 41 38
        E 64 b0 0b 30
        E 48 b0 0b 28
        E 32 b0 0b 20
        E 48 b0 0b 18
        E 16 b0 0b 38
        E 0 80 41 00
        E 0 90 3f 38
        E 96 80 3f 00
        E 0 90 41 38
        E 64 b0 0b 30
        E 48 b0 0b 38
        E 0 80 41 00
        E 0 90 42 38
        E 80 b0 0b 30
        E 16 b0 0b 38
        E 0 80 42 00
        E 0 90 41 38
        E 96 80 41 00
        E 0 90 42 38
        E 48 b0 0b 30
        E 64 b0 0b 38
        E 0 80 42 00
        E 0 90 41 38
        E 64 b0 0b 30
        E 32 b0 0b 38
        E 0 80 41 00
        E 0 90 3f 38
        E 96 b0 0b 30
        E 16 b0 0b 38
        E 0 80 3f 00
        E 0 90 41 38
        E 96 80 41 00
        E 0 90 42 38
        E 64 b0 0b 30
        E 32 b0 0b 38
        E 0 80 42 00
        E 0 90 41 38
        E 96 b0 0b 30
        E 16 b0 0b 38
        E 0 80 41 00
        E 0 90 42 38
        E 96 80 42 00
        E 0 90 41 38
        E 64 b0 0b 30
        E 48 b0 0b 38
        E 0 80 41 00
        E 0 90 42 38
        E 80 b0 0b 30
        E 16 b0 0b 38
        E 0 80 42 00
        E 0 90 41 38
        E 96 80 41 00
        E 0 90 3f 38
        E 48 b0 0b 30
        E 64 b0 0b 38
        E 0 80 3f 00
        E 0 90 41 38
        E 48 80 41 00
        E 48 90 3f 38
        E 64 b0 0b 30
        E 48 b0 0b 38
        E 0 80 3f 00
        E 0 90 41 38
        E 80 b0 0b 30
        E 16 b0 0b 38
        E 0 80 41 00
        E 0 90 42 38
        E 96 80 42 00
        E 0 90 41 38
        E 48 b0 0b 30
        E 64 b0 0b 38
        E 0 80 41 00
        E 0 90 42 38
        E 64 b0 0b 30
        E 32 b0 0b 38
        E 0 80 42 00
        E 0 90 41 38
        E 96 b0 0b 30
        E 16 b0 0b 38
        E 0 80 41 00
        E 0 90 3f 38
        E 96 80 3f 00
        E 0 90 41 38
        E 64 b0 0b 30
        E 32 b0 0b 38
        E 0 80 41 00
        E 0 90 42 38
        E 96 b0 0b 30
        E 16 b0 0b 38
        E 0 80 42 00
        E 0 90 41 38
        E 96 80 41 00
        E 0 90 42 38
        E 64 b0 0b 30
        E 48 b0 0b 38
        E 0 80 42 00
        E 0 90 41 38
        E 80 b0 0b 30
        E 16 b0 0b 38
        E 0 80 41 00
        E 0 90 42 38
        E 96 80 42 00
        E 0 90 41 38
        E 48 b0 0b 30
        E 64 b0 0b 38
        E 0 80 41 00
        E 0 90 3f 38
        E 64 b0 0b 30
        E 32 b0 0b 38
        E 0 80 3f 00
        E 0 90 41 38
        E 48 80 41 00
        E 64 90 3f 38
        E 80 b0 0b 30
        E 16 b0 0b 38
        E 0 80 3f 00
        E 0 90 41 38
        E 96 80 41 00
        E 0 90 42 38
        E 48 b0 0b 30
        E 64 b0 0b 38
        E 0 80 42 00
        E 0 90 41 38
        E 64 b0 0b 30
        E 32 b0 0b 38
        E 0 80 41 00
        E 0 90 42 38
        E 96 b0 0b 30
        E 16 b0 0b 38
        E 0 80 42 00
        E 0 90 41 38
        E 96 80 41 00
        E 0 90 3f 38
        E 64 b0 0b 30
        E 32 b0 0b 38
        E 0 80 3f 00
        E 0 90 41 38
        E 96 b0 0b 30
        E 16 b0 0b 38
        E 0 80 41 00
        E 0 90 42 38
        E 96 80 42 00
        E 0 90 41 38
        E 64 b0 0b 30
        E 48 b0 0b 38
        E 0 80 41 00
        E 0 90 42 38
        E 80 b0 0b 30
        E 16 b0 0b 38
        E 0 80 42 00
        E 0 90 41 38
        E 96 80 41 00
        E 0 90 42 38
        E 48 b0 0b 30
        E 64 b0 0b 38
        E 0 80 42 00
        E 0 90 41 38
        E 64 b0 0b 30
        E 32 b0 0b 38
        E 0 80 41 00
        E 0 90 3f 38
        E 96 b0 0b 30
        E 16 b0 0b 38
        E 0 80 3f 00
        E 0 90 41 38
        E 48 80 41 00
        E 48 90 3f 38
        E 64 b0 0b 30
        E 32 b0 0b 38
        E 48 b0 0b 30
        E 48 b0 0b 28
        E 48 b0 0b 20
        E 32 b0 0b 18
        E 32 b0 0b 38
        E 0 80 3f 00
        E 0 90 3d 38
        E 64 b0 0b 30
        E 32 b0 0b 28
        E 16 b0 0b 38
        E 80 b0 0b 30
        E 32 b0 0b 28
        E 48 b0 0b 20
        E 32 b0 0b 38
        E 0 80 3d 00
        E 0 90 3f 38
        E 48 b0 0b 30
        E 48 b0 0b 28
        E 16 b0 0b 38
        E 64 b0 0b 30
        E 48 b0 0b 28
        E 48 b0 0b 20
        E 32 b0 0b 18
        E 16 b0 0b 38
        E 0 80 3f 00
        E 0 90 3d 38
        E 80 b0 0b 30
        E 16 b0 0b 38
        E 64 b0 0b 30
        E 48 b0 0b 28
        E 32 b0 0b 20
        E 48 b0 0b 18
        E 16 b0 0b 38
        E 0 80 3d 00
        E 0 90 3f 38
        E 64 b0 0b 30
        E 48 b0 0b 28
        E 48 b0 0b 20
        E 32 b0 0b 18
        E 16 b0 0b 38
        E 80 b0 0b 30
        E 32 b0 0b 28
        E 48 b0 0b 20
        E 32 b0 0b 38
        E 96 b0 0b 30
        E 16 b0 0b 38
        E 0 80 3f 00
        E 0 90 41 38
        E 96 80 41 00
        E 0 90 42 38
        E 64 b0 0b 30
        E 48 b0 0b 38
        E 0 80 42 00
        E 0 90 41 38
        E 80 b0 0b 30
        E 16 b0 0b 38
        E 0 80 41 00
        E 0 90 42 38
        E 96 80 42 00
        E 0 90 41 38
        E 48 b0 0b 30
        E 64 b0 0b 38
        E 0 80 41 00
        E 0 90 3f 38
        E 64 b0 0b 30
        E 32 b0 0b 38
        E 0 80 3f 00
        E 0 90 41 38
        E 96 b0 0b 30
        E 16 b0 0b 38
        E 0 80 41 00
        E 0 90 42 38
        E 96 80 42 00
        E 0 90 41 38
        E 64 b0 0b 30
        E 32 b0 0b 38
        E 0 80 41 00
        E 0 90 42 38
        E 96 b0 0b 30
        E 16 b0 0b 38
        E 0 80 42 00
        E 0 90 41 38
        E 96 80 41 00
        E 0 90 42 38
        E 64 b0 0b 30
        E 48 b0 0b 38
        E 0 80 42 00
        E 0 90 41 38
        E 80 b0 0b 30
        E 16 b0 0b 38
        E 0 80 41 00
        E 0 90 3f 38
        E 96 80 3f 00
        E 0 90 41 38
        E 48 b0 0b 30
        E 16 80 41 00
        E 48 b0 0b 38
        E 0 90 3f 38
        E 96 80 3f 00
        E 0 90 41 38
        E 64 b0 0b 30
        E 48 b0 0b 38
        E 0 80 41 00
        E 0 90 42 38
        E 80 b0 0b 30
        E 16 b0 0b 38
        E 0 80 42 00
        E 0 90 41 38
        E 96 80 41 00
        E 0 90 42 38
        E 48 b0 0b 30
        E 64 b0 0b 38
        E 0 80 42 00
        E 0 90 41 38
        E 64 b0 0b 30
        E 32 b0 0b 38
        E 0 80 41 00
        E 0 90 3f 38
        E 96 b0 0b 30
        E 16 b0 0b 38
        E 0 80 3f 00
        E 0 90 41 38
        E 96 80 41 00
        E 0 90 42 38
        E 64 b0 0b 30
        E 32 b0 0b 38
        E 0 80 42 00
        E 0 90 41 38
        E 96 b0 0b 30
        E 16 b0 0b 38
        E 0 80 41 00
        E 0 90 42 38
        E 96 80 42 00
        E 0 90 41 38
        E 64 b0 0b 30
        E 48 b0 0b 38
        E 0 80 41 00
        E 0 90 42 38
        E 80 b0 0b 30
        E 16 b0 0b 38
        E 0 80 42 00
        E 0 90 41 38
        E 96 80 41 00
        E 0 90 3f 38
        E 48 b0 0b 30
        E 64 b0 0b 38
        E 0 80 3f 00
        E 0 90 41 38
        E 48 80 41 00
        E 48 90 3f 38
        E 64 b0 0b 30
        E 48 b0 0b 38
        E 0 80 3f 00
        E 0 90 41 38
        E 80 b0 0b 30
        E 16 b0 0b 38
        E 0 80 41 00
        E 0 90 42 38
        E 96 80 42 00
        E 0 90 41 38
        E 48 b0 0b 30
        E 64 b0 0b 38
        E 0 80 41 00
        E 0 90 42 38
        E 64 b0 0b 30
        E 32 b0 0b 38
        E 0 80 42 00
        E 0 90 41 38
        E 96 b0 0b 30
        E 16 b0 0b 38
        E 0 80 41 00
        E 0 90 3f 38
        E 96 80 3f 00
        E 0 90 41 38
        E 64 b0 0b 30
        E 32 b0 0b 38
        E 0 80 41 00
        E 0 90 42 38
        E 96 b0 0b 30
        E 16 b0 0b 38
        E 0 80 42 00
        E 0 90 41 38
        E 96 80 41 00
        E 0 90 42 38
        E 64 b0 0b 30
        E 48 b0 0b 38
        E 0 80 42 00
        E 0 90 41 38
        E 80 b0 0b 30
        E 16 b0 0b 38
        E 0 80 41 00
        E 0 90 42 38
        E 96 80 42 00
        E 0 90 41 38
        E 48 b0 0b 30
        E 64 b0 0b 38
        E 0 80 41 00
        E 0 90 3f 38
        E 64 b0 0b 30
        E 32 b0 0b 38
        E 0 80 3f 00
        E 0 90 41 38
        E 48 80 41 00
        E 64 90 3f 38
        E 80 b0 0b 30
        E 16 b0 0b 38
        E 64 b0 0b 30
        E 48 b0 0b 28
        E 32 b0 0b 20
        E 48 b0 0b 18
        E 16 b0 0b 38
        E 0 80 3f 00
        E 0 90 3d 38
        E 64 b0 0b 30
        E 32 b0 0b 38
        E 64 b0 0b 30
        E 32 b0 0b 28
        E 48 b0 0b 20
        E 48 b0 0b 18
        E 16 b0 0b 38
        E 0 80 3d 00
        E 0 90 3f 38
        E 64 b0 0b 30
        E 32 b0 0b 38
        E 48 b0 0b 30
        E 48 b0 0b 28
        E 48 b0 0b 20
        E 32 b0 0b 18
        E 32 b0 0b 38
        E 0 80 3f 00
        E 0 90 3d 38
        E 64 b0 0b 30
        E 32 b0 0b 28
        E 16 b0 0b 38
        E 80 b0 0b 30
        E 32 b0 0b 28
        E 48 b0 0b 20
        E 32 b0 0b 38
        E 0 80 3d 00
        E 0 90 3f 38
        E 48 b0 0b 30
        E 48 b0 0b 28
        E 48 b0 0b 20
        E 32 b0 0b 18
        E 32 b0 0b 38
        E 64 b0 0b 30
        E 32 b0 0b 28
        E 48 b0 0b 20
        E 48 b0 0b 18
        E 16 b0 0b 38
        E 0 80 3f 00
        E 0 90 4b 38
        E 64 b0 0b 30
        E 32 b0 0b 38
        E 0 80 4b 00
        E 0 90 46 38
        E 48 b0 0b 30
        E 48 b0 0b 28
        E 16 b0 0b 38
        E 0 80 46 00
        E 0 90 42 38
        E 64 b0 0b 30
        E 32 b0 0b 38
        E 0 80 42 00
        E 0 90 49 38
        E 64 b0 0b 30
        E 32 b0 0b 28
        E 16 b0 0b 38
        E 0 80 49 00
        E 0 90 44 38
        E 80 b0 0b 30
        E 16 b0 0b 38
        E 0 80 44 00
        E 0 90 41 38
        E 64 b0 0b 30
        E 32 b0 0b 38
        E 0 80 41 00
        E 0 90 46 38
        E 48 b0 0b 30
        E 48 b0 0b 28
        E 16 b0 0b 38
        E 0 80 46 00
        E 0 90 42 38
        E 64 b0 0b 30
        E 32 b0 0b 38
        E 0 80 42 00
        E 0 90 3f 38
        E 64 b0 0b 30
        E 32 b0 0b 28
        E 16 b0 0b 38
        E 0 80 3f 00
        E 0 90 44 38
        E 80 b0 0b 30
        E 16 b0 0b 38
        E 0 80 44 00
        E 0 90 41 38
        E 64 b0 0b 30
        E 32 b0 0b 38
        E 0 80 41 00
        E 0 90 3c 38
        E 48 b0 0b 30
        E 48 b0 0b 28
        E 16 b0 0b 38
        E 0 80 3c 00
        E 0 90 42 38
        E 64 b0 0b 30
        E 32 b0 0b 38
        E 0 80 42 00
        E 0 90 3f 38
        E 64 b0 0b 30
        E 32 b0 0b 28
        E 16 b0 0b 38
        E 0 80 3f 00
        E 0 90 3a 38
        E 80 b0 0b 30
        E 32 b0 0b 28
        E 48 b0 0b 20
        E 32 b0 0b 38
        E 0 80 3a 00
        E 0 90 4b 38
        E 48 b0 0b 30
        E 48 b0 0b 28
        E 16 b0 0b 38
        E 0 80 4b 00
        E 0 90 46 38
        E 64 b0 0b 30
        E 32 b0 0b 38
        E 0 80 46 00
        E 0 90 42 38
        E 64 b0 0b 30
        E 32 b0 0b 28
        E 16 b0 0b 38
        E 0 80 42 00
        E 0 90 49 38
        E 80 b0 0b 30
        E 16 b0 0b 38
        E 0 80 49 00
        E 0 90 44 38
        E 64 b0 0b 30
        E 32 b0 0b 38
        E 0 80 44 00
        E 0 90 41 38
        E 48 b0 0b 30
        E 48 b0 0b 28
        E 16 b0 0b 38
        E 0 80 41 00
        E 0 90 46 38
        E 64 b0 0b 30
        E 32 b0 0b 38
        E 0 80 46 00
        E 0 90 42 38
        E 64 b0 0b 30
        E 32 b0 0b 28
        E 16 b0 0b 38
        E 0 80 42 00
        E 0 90 3f 38
        E 80 b0 0b 30
        E 16 b0 0b 38
        E 0 80 3f 00
        E 0 90 44 38
        E 64 b0 0b 30
        E 32 b0 0b 38
        E 0 80 44 00
        E 0 90 41 38
        E 48 b0 0b 30
        E 48 b0 0b 28
        E 16 b0 0b 38
        E 0 80 41 00
        E 0 90 3c 38
        E 64 b0 0b 30
        E 32 b0 0b 38
        E 0 80 3c 00
        E 0 90 42 38
        E 64 b0 0b 30
        E 32 b0 0b 28
        E 16 b0 0b 38
        E 0 80 42 00
        E 0 90 3f 38
        E 80 b0 0b 30
        E 16 b0 0b 38
        E 0 80 3f 00
        E 0 90 3a 38
        E 64 b0 0b 30
        E 48 b0 0b 28
        E 32 b0 0b 20
        E 48 b0 0b 18
        E 16 b0 0b 38
        E 0 80 3a 00
        E 0 90 4b 38
        E 64 b0 0b 30
        E 32 b0 0b 38
        E 0 80 4b 00
        E 0 90 46 38
        E 64 b0 0b 30
        E 32 b0 0b 28
        E 16 b0 0b 38
        E 0 80 46 00
        E 0 90 42 38
        E 80 b0 0b 30
        E 16 b0 0b 38
        E 0 80 42 00
        E 0 90 49 38
        E 64 b0 0b 30
        E 32 b0 0b 38
        E 0 80 49 00
        E 0 90 44 38
        E 48 b0 0b 30
        E 48 b0 0b 28
        E 16 b0 0b 38
        E 0 80 44 00
        E 0 90 41 38
        E 64 b0 0b 30
        E 32 b0 0b 38
        E 0 80 41 00
        E 0 90 46 38
        E 64 b0 0b 30
        E 32 b0 0b 28
        E 16 b0 0b 38
        E 0 80 46 00
        E 0 90 42 38
        E 80 b0 0b 30
        E 16 b0 0b 38
        E 0 80 42 00
        E 0 90 3f 38
        E 64 b0 0b 30
        E 32 b0 0b 38
        E 0 80 3f 00
        E 0 90 44 38
        E 48 b0 0b 30
        E 48 b0 0b 28
        E 16 b0 0b 38
        E 0 80 44 00
        E 0 90 41 38
        E 64 b0 0b 30
        E 32 b0 0b 38
        E 0 80 41 00
        E 0 90 3c 38
        E 64 b0 0b 30
        E 32 b0 0b 28
        E 16 b0 0b 38
        E 0 80 3c 00
        E 0 90 42 38
        E 80 b0 0b 30
        E 16 b0 0b 38
        E 0 80 42 00
        E 0 90 3f 38
        E 64 b0 0b 30
        E 32 b0 0b 38
        E 0 80 3f 00
        E 0 90 3a 38
        E 48 b0 0b 30
        E 48 b0 0b 28
        E 48 b0 0b 20
        E 32 b0 0b 18
        E 32 b0 0b 38
        E 0 80 3a 00
        E 0 90 3b 38
        E 64 b0 0b 30
        E 32 b0 0b 28
        E 48 b0 0b 20
        E 48 b0 0b 18
        E 16 b0 0b 38
        E 64 b0 0b 30
        E 32 b0 0b 38
        E 48 b0 0b 30
        E 48 b0 0b 28
        E 48 b0 0b 20
        E 32 b0 0b 18
        E 32 b0 0b 38
        E 64 b0 0b 30
        E 32 b0 0b 28
        E 48 b0 0b 20
        E 48 b0 0b 18
        E 16 b0 0b 38
        E 64 b0 0b 30
        E 32 b0 0b 38
        E 0 80 3b 00
        E 0 90 3d 38
        E 48 b0 0b 30
        E 48 b0 0b 28
        E 48 b0 0b 20
        E 32 b0 0b 18
        E 32 b0 0b 38
        E 64 b0 0b 30
        E 32 b0 0b 28
        E 48 b0 0b 20
        E 48 b0 0b 18
        E 16 b0 0b 38
        E 64 b0 0b 30
        E 48 b0 0b 28
        E 32 b0 0b 20
        E 48 b0 0b 18
        E 48 b0 0b 10
        E 32 b0 0b 08
        E 48 80 3d 00
        E 96 b0 0b 38
        E 0 90 4b 38
        E 80 b0 0b 30
        E 16 b0 0b 38
        E 0 80 4b 00
        E 0 90 46 38
        E 64 b0 0b 30
        E 32 b0 0b 38
        E 0 80 46 00
        E 0 90 42 38
        E 48 b0 0b 30
        E 48 b0 0b 28
        E 16 b0 0b 38
        E 0 80 42 00
        E 0 90 49 38
        E 64 b0 0b 30
        E 32 b0 0b 38
        E 0 80 49 00
        E 0 90 44 38
        E 64 b0 0b 30
        E 32 b0 0b 28
        E 16 b0 0b 38
        E 0 80 44 00
        E 0 90 41 38
        E 80 b0 0b 30
        E 16 b0 0b 38
        E 0 80 41 00
        E 0 90 46 38
        E 64 b0 0b 30
        E 32 b0 0b 38
        E 0 80 46 00
        E 0 90 42 38
        E 48 b0 0b 30
        E 48 b0 0b 28
        E 16 b0 0b 38
        E 0 80 42 00
        E 0 90 3f 38
        E 64 b0 0b 30
        E 32 b0 0b 38
        E 0 80 3f 00
        E 0 90 44 38
        E 64 b0 0b 30
        E 32 b0 0b 28
        E 16 b0 0b 38
        E 0 80 44 00
        E 0 90 41 38
        E 80 b0 0b 30
        E 16 b0 0b 38
        E 0 80 41 00
        E 0 90 3c 38
        E 64 b0 0b 30
        E 32 b0 0b 38
        E 0 80 3c 00
        E 0 90 42 38
        E 48 b0 0b 30
        E 48 b0 0b 28
        E 16 b0 0b 38
        E 0 80 42 00
        E 0 90 3f 38
        E 64 b0 0b 30
        E 32 b0 0b 38
        E 0 80 3f 00
        E 0 90 3a 38
        E 64 b0 0b 30
        E 32 b0 0b 28
        E 48 b0 0b 20
        E 48 b0 0b 18
        E 16 b0 0b 38
        E 0 80 3a 00
        E 0 90 4b 38
        E 64 b0 0b 30
        E 32 b0 0b 38
        E 0 80 4b 00
        E 0 90 46 38
        E 48 b0 0b 30
        E 48 b0 0b 28
        E 16 b0 0b 38
        E 0 80 46 00
        E 0 90 42 38
        E 64 b0 0b 30
        E 32 b0 0b 38
        E 0 80 42 00
        E 0 90 49 38
        E 64 b0 0b 30
        E 32 b0 0b 28
        E 16 b0 0b 38
        E 0 80 49 00
        E 0 90 44 38
        E 80 b0 0b 30
        E 16 b0 0b 38
        E 0 80 44 00
        E 0 90 41 38
        E 64 b0 0b 30
        E 32 b0 0b 38
        E 0 80 41 00
        E 0 90 46 38
        E 48 b0 0b 30
        E 48 b0 0b 28
        E 16 b0 0b 38
        E 0 80 46 00
        E 0 90 42 38
        E 64 b0 0b 30
        E 32 b0 0b 38
        E 0 80 42 00
        E 0 90 3f 38
        E 64 b0 0b 30
        E 32 b0 0b 28
        E 16 b0 0b 38
        E 0 80 3f 00
        E 0 90 44 38
        E 80 b0 0b 30
        E 16 b0 0b 38
        E 0 80 44 00
        E 0 90 41 38
        E 64 b0 0b 30
        E 32 b0 0b 38
        E 0 80 41 00
        E 0 90 3c 38
        E 48 b0 0b 30
        E 48 b0 0b 28
        E 16 b0 0b 38
        E 0 80 3c 00
        E 0 90 42 38
        E 64 b0 0b 30
        E 32 b0 0b 38
        E 0 80 42 00
        E 0 90 3f 38
        E 64 b0 0b 30
        E 32 b0 0b 28
        E 16 b0 0b 38
        E 0 80 3f 00
        E 0 90 3a 38
        E 80 b0 0b 30
        E 32 b0 0b 28
        E 48 b0 0b 20
        E 32 b0 0b 38
        E 0 80 3a 00
        E 0 90 4b 38
        E 48 b0 0b 30
        E 48 b0 0b 28
        E 16 b0 0b 38
        E 0 80 4b 00
        E 0 90 46 38
        E 64 b0 0b 30
        E 32 b0 0b 38
        E 0 80 46 00
        E 0 90 42 38
        E 64 b0 0b 30
        E 32 b0 0b 28
        E 16 b0 0b 38
        E 0 80 42 00
        E 0 90 49 38
        E 80 b0 0b 30
        E 16 b0 0b 38
        E 0 80 49 00
        E 0 90 44 38
        E 64 b0 0b 30
        E 32 b0 0b 38
        E 0 80 44 00
        E 0 90 41 38
        E 48 b0 0b 30
        E 48 b0 0b 28
        E 16 b0 0b 38
        E 0 80 41 00
        E 0 90 46 38
        E 64 b0 0b 30
        E 32 b0 0b 38
        E 0 80 46 00
        E 0 90 42 38
        E 64 b0 0b 30
        E 32 b0 0b 28
        E 16 b0 0b 38
        E 0 80 42 00
        E 0 90 3f 38
        E 80 b0 0b 30
        E 16 b0 0b 38
        E 0 80 3f 00
        E 0 90 44 38
        E 64 b0 0b 30
        E 32 b0 0b 38
        E 0 80 44 00
        E 0 90 41 38
        E 48 b0 0b 30
        E 48 b0 0b 28
        E 16 b0 0b 38
        E 0 80 41 00
        E 0 90 3c 38
        E 64 b0 0b 30
        E 32 b0 0b 38
        E 0 80 3c 00
        E 0 90 42 38
        E 64 b0 0b 30
        E 32 b0 0b 28
        E 16 b0 0b 38
        E 0 80 42 00
        E 0 90 3f 38
        E 80 b0 0b 30
        E 16 b0 0b 38
        E 0 80 3f 00
        E 0 90 3a 38
        E 64 b0 0b 30
        E 48 b0 0b 28
        E 32 b0 0b 20
        E 48 b0 0b 18
        E 16 b0 0b 38
        E 0 80 3a 00
        E 0 90 3b 38
        E 64 b0 0b 30
        E 48 b0 0b 28
        E 48 b0 0b 20
        E 32 b0 0b 18
        E 16 b0 0b 38
        E 80 b0 0b 30
        E 16 b0 0b 38
        E 64 b0 0b 30
        E 48 b0 0b 28
        E 32 b0 0b 20
        E 48 b0 0b 18
        E 16 b0 0b 38
        E 64 b0 0b 30
        E 48 b0 0b 28
        E 48 b0 0b 20
        E 32 b0 0b 18
        E 16 b0 0b 38
        E 80 b0 0b 30
        E 16 b0 0b 38
        E 0 80 3b 00
        E 0 90 3d 38
        E 64 b0 0b 30
        E 48 b0 0b 28
        E 32 b0 0b 20
        E 48 b0 0b 18
        E 16 b0 0b 38
        E 64 b0 0b 30
        E 48 b0 0b 28
        E 48 b0 0b 20
        E 32 b0 0b 18
        E 16 b0 0b 38
        E 80 b0 0b 30
        E 32 b0 0b 28
        E 48 b0 0b 20
        E 48 b0 0b 18
        E 32 b0 0b 10
        E 48 b0 0b 08
        E 48 80 3d 00
        E 480 b0 0b 38
        E 0 90 3f 38
        E 64 b0 0b 30
        E 48 b0 0b 28
        E 48 b0 0b 20
        E 32 b0 0b 18
        E 48 b0 0b 10
        E 48 b0 0b 08
        E 16 80 3f 00
        E 720 b0 0b 38
        E 0 90 3d 38
        E 64 b0 0b 30
        E 48 b0 0b 28
        E 48 b0 0b 20
        E 32 b0 0b 18
        E 16 80 3d 00
        E 400 b0 0b 38
        E 0 90 3f 38
        E 64 b0 0b 30
        E 32 b0 0b 28
        E 48 b0 0b 20
        E 48 b0 0b 18
        E 32 b0 0b 10
        E 48 b0 0b 08
        E 32 80 3f 00
        E 720 b0 0b 38
        E 0 90 3d 38
        E 64 b0 0b 30
        E 32 b0 0b 28
        E 48 b0 0b 20
        E 48 b0 0b 18
        E 16 80 3d 00
        E 416 b0 0b 38
        E 0 90 3f 38
        E 80 b0 0b 30
        E 32 b0 0b 28
        E 48 b0 0b 20
        E 48 b0 0b 18
        E 32 b0 0b 10
        E 48 b0 0b 08
        E 16 80 3f 00
        E 720 b0 0b 38
        E 0 90 3d 38
        E 80 b0 0b 30
        E 32 b0 0b 28
        E 48 b0 0b 20
        E 32 80 3d 00
        E 416 b0 0b 38
        E 0 90 46 38
        E 64 b0 0b 30
        E 48 b0 0b 28
        E 32 b0 0b 20
        E 48 b0 0b 18
        E 16 b0 0b 38
        E 0 80 46 00
        E 0 90 41 38
        E 64 b0 0b 30
        E 32 b0 0b 38
        E 0 80 41 00
        E 0 90 46 38
        E 64 b0 0b 30
        E 32 b0 0b 28
        E 48 b0 0b 20
        E 48 b0 0b 18
        E 16 b0 0b 38
        E 0 80 46 00
        E 0 90 41 38
        E 64 b0 0b 30
        E 32 b0 0b 38
        E 0 80 41 00
        E 0 90 46 38
        E 48 b0 0b 30
        E 48 b0 0b 28
        E 48 b0 0b 20
        E 32 b0 0b 18
        E 32 b0 0b 38
        E 64 b0 0b 30
        E 32 b0 0b 28
        E 48 b0 0b 20
        E 48 b0 0b 18
        E 16 b0 0b 38
        E 0 80 46 00
        E 0 90 41 38
        E 64 b0 0b 30
        E 48 b0 0b 28
        E 32 b0 0b 20
        E 48 b0 0b 18
        E 16 80 41 00
        E 400 b0 0b 38
        E 0 90 3f 38
        E 48 b0 0b 30
        E 48 b0 0b 28
        E 48 b0 0b 20
        E 32 b0 0b 18
        E 48 b0 0b 10
        E 48 b0 0b 08
        E 32 80 3f 00
        E 720 b0 0b 38
        E 0 90 3d 38
        E 48 b0 0b 30
        E 48 b0 0b 28
        E 48 b0 0b 20
        E 32 b0 0b 18
        E 32 80 3d 00
        E 416 b0 0b 38
        E 0 90 3f 38
        E 64 b0 0b 30
        E 48 b0 0b 28
        E 48 b0 0b 20
        E 32 b0 0b 18
        E 48 b0 0b 10
        E 48 b0 0b 08
        E 16 80 3f 00
        E 720 b0 0b 38
        E 0 90 3d 38
        E 64 b0 0b 30
        E 48 b0 0b 28
        E 48 b0 0b 20
        E 32 b0 0b 18
        E 16 80 3d 00
        E 400 b0 0b 38
        E 0 90 3f 38
        E 64 b0 0b 30
        E 32 b0 0b 28
        E 48 b0 0b 20
        E 48 b0 0b 18
        E 32 b0 0b 10
        E 48 b0 0b 08
        E 32 80 3f 00
        E 720 b0 0b 38
        E 0 90 3d 38
        E 64 b0 0b 30
        E 32 b0 0b 28
        E 48 b0 0b 20
        E 48 b0 0b 18
        E 16 80 3d 00
        E 416 b0 0b 38
        E 0 90 46 38
        E 80 b0 0b 30
        E 32 b0 0b 28
        E 48 b0 0b 20
        E 32 b0 0b 38
        E 0 80 46 00
        E 0 90 41 38
        E 48 b0 0b 30
        E 48 b0 0b 28
        E 16 b0 0b 38
        E 0 80 41 00
        E 0 90 46 38
        E 64 b0 0b 30
        E 48 b0 0b 28
        E 48 b0 0b 20
        E 32 b0 0b 18
        E 16 b0 0b 38
        E 0 80 46 00
        E 0 90 41 38
        E 80 b0 0b 30
        E 16 b0 0b 38
        E 0 80 41 00
        E 0 90 46 38
        E 64 b0 0b 30
        E 48 b0 0b 28
        E 32 b0 0b 20
        E 48 b0 0b 18
        E 16 b0 0b 38
        E 64 b0 0b 30
        E 48 b0 0b 28
        E 48 b0 0b 20
        E 32 b0 0b 18
        E 16 b0 0b 38
        E 0 80 46 00
        E 0 90 41 38
        E 80 b0 0b 30
        E 32 b0 0b 28
        E 48 b0 0b 20
        E 32 b0 0b 38
        E 0 80 41 00
        E 0 90 3f 38
        E 96 b0 0b 30
        E 16 b0 0b 38
        E 0 80 3f 00
        E 0 90 41 38
        E 96 80 41 00
        E 0 90 42 38
        E 64 b0 0b 30
        E 48 b0 0b 38
        E 0 80 42 00
        E 0 90 41 38
        E 80 b0 0b 30
        E 16 b0 0b 38
        E 0 80 41 00
        E 0 90 42 38
        E 96 80 42 00
        E 0 90 41 38
        E 48 b0 0b 30
        E 64 b0 0b 38
        E 0 80 41 00
        E 0 90 3f 38
        E 64 b0 0b 30
        E 32 b0 0b 38
        E 0 80 3f 00
        E 0 90 41 38
        E 96 b0 0b 30
        E 16 b0 0b 38
        E 0 80 41 00
        E 0 90 42 38
        E 96 80 42 00
        E 0 90 41 38
        E 64 b0 0b 30
        E 32 b0 0b 38
        E 0 80 41 00
        E 0 90 42 38
        E 96 b0 0b 30
        E 16 b0 0b 38
        E 0 80 42 00
        E 0 90 41 38
        E 32 80 41 00
        E 0 ff 2f 00
      >
    >
  >
  <TRACK {AA49049B-EEF8-44D7-8C1B-8075F1533F76}
    NAME "NES - Pulse 2 [ch1]"
    PEAKCOL 10092441
    BEAT -1
    AUTOMODE 0
    PANLAWFLAGS 3
    VOLPAN 1 0 -1 -1 1
    MUTESOLO 0 0 0
    IPHASE 0
    PLAYOFFS 0 1
    ISBUS 0 0
    BUSCOMP 0 0 0 0 0
    SHOWINMIX 1 0.6667 0.5 1 0.5 0 0 0
    FIXEDLANES 9 0 0 0 0
    SEL 0
    REC 0 5088 1 0 0 0 0 0
    VU 2
    TRACKHEIGHT 0 0 0 0 0 0 0
    INQ 0 0 0 0.5 100 0 0 100
    NCHAN 2
    FX 1
    TRACKID {AA49049B-EEF8-44D7-8C1B-8075F1533F76}
    PERF 0
    MIDIOUT -1
    MAINSEND 1 0
    <FXCHAIN
      WNDRECT 24 52 700 560
      SHOW 0
      LASTSEL 0
      DOCKED 0
      BYPASS 0 0 0
      <JS "ReapNES Studio/ReapNES_Console.jsfx" ""
        2 15 1 10 80 10 100 2 1 15 1 5 60 10 80 1 1 0 50 0 0 15 1 0 100 0 0 0.500000 0.500000 0.400000 0.300000 0.800000 1 1 0 0 0 0 - - - - - - - - - - - - - - - - - - - - - - - - - -
      >
      FLOATPOS 0 0 0 0
      FXID {FBE0C31F-4243-4DE7-A2E3-D87F6A05C808}
      WAK 0 0
    >
    <ITEM
      POSITION 0
      LENGTH 83.98134
      LOOP 0
      ALLTAKES 0
      FADEIN 0 0 0 0 0 0 0
      FADEOUT 0 0 0 0 0 0 0
      MUTE 0 0
      SEL 0
      IGUID {724358FD-0DC7-439C-86E5-556C63683A60}
      <SOURCE MIDI
        HASDATA 1 480 QN
        CCINTERP 32
        E 0 c1 51
        E 16 b1 0c 40
        E 0 b1 0b 10
        E 0 91 27 10
        E 64 b1 0b 08
        E 48 81 27 00
        E 96 b1 0b 10
        E 0 91 27 10
        E 64 b1 0b 08
        E 48 81 27 00
        E 96 b1 0b 10
        E 0 91 46 10
        E 80 b1 0b 08
        E 32 81 46 00
        E 192 b1 0b 10
        E 0 91 2c 10
        E 64 b1 0b 08
        E 48 81 2c 00
        E 96 b1 0b 10
        E 0 91 2c 10
        E 80 b1 0b 08
        E 32 81 2c 00
        E 80 b1 0b 10
        E 0 91 2c 10
        E 48 b1 0b 08
        E 48 81 2c 00
        E 16 b1 0b 10
        E 0 91 2e 10
        E 64 b1 0b 08
        E 48 81 2e 00
        E 96 b1 0b 10
        E 0 91 44 10
        E 80 b1 0b 08
        E 32 81 44 00
        E 80 b1 0b 18
        E 0 91 27 18
        E 272 b1 0b 10
        E 32 b1 0b 08
        E 48 81 27 00
        E 64 b1 0b 18
        E 0 91 46 18
        E 64 b1 0b 10
        E 48 b1 0b 08
        E 32 81 46 00
        E 160 b1 0b 18
        E 0 91 2c 18
        E 64 b1 0b 10
        E 32 b1 0b 08
        E 48 81 2c 00
        E 64 b1 0b 18
        E 0 91 2c 18
        E 64 b1 0b 10
        E 48 b1 0b 08
        E 32 81 2c 00
        E 64 b1 0b 18
        E 0 91 2c 18
        E 64 b1 0b 10
        E 32 b1 0b 18
        E 0 81 2c 00
        E 0 91 2e 18
        E 64 b1 0b 10
        E 32 b1 0b 08
        E 48 81 2e 00
        E 64 b1 0b 18
        E 0 91 44 18
        E 64 b1 0b 10
        E 48 b1 0b 08
        E 32 81 44 00
        E 64 b1 0b 28
        E 0 91 27 28
        E 288 b1 0b 20
        E 32 b1 0b 18
        E 48 b1 0b 10
        E 32 b1 0b 28
        E 0 81 27 00
        E 0 91 46 28
        E 48 b1 0b 20
        E 48 b1 0b 18
        E 48 b1 0b 10
        E 32 b1 0b 08
        E 48 81 46 00
        E 96 b1 0b 28
        E 0 91 2c 28
        E 80 b1 0b 20
        E 32 b1 0b 18
        E 48 b1 0b 10
        E 32 b1 0b 28
        E 48 b1 0b 20
        E 48 b1 0b 18
        E 48 b1 0b 10
        E 32 b1 0b 08
        E 32 b1 0b 28
        E 64 b1 0b 20
        E 32 b1 0b 18
        E 16 b1 0b 28
        E 0 81 2c 00
        E 0 91 2e 28
        E 80 b1 0b 20
        E 32 b1 0b 18
        E 48 b1 0b 10
        E 32 b1 0b 28
        E 0 81 2e 00
        E 0 91 44 28
        E 48 b1 0b 20
        E 48 b1 0b 18
        E 48 b1 0b 10
        E 32 b1 0b 08
        E 32 b1 0b 38
        E 0 81 44 00
        E 0 91 27 38
        E 272 b1 0b 30
        E 48 b1 0b 28
        E 32 b1 0b 20
        E 48 b1 0b 18
        E 16 b1 0b 38
        E 0 81 27 00
        E 0 91 46 38
        E 64 b1 0b 30
        E 48 b1 0b 28
        E 48 b1 0b 20
        E 32 b1 0b 18
        E 48 b1 0b 10
        E 48 b1 0b 08
        E 16 b1 0b 38
        E 0 81 46 00
        E 0 91 2c 38
        E 64 b1 0b 30
        E 48 b1 0b 28
        E 32 b1 0b 20
        E 48 b1 0b 18
        E 16 b1 0b 38
        E 64 b1 0b 30
        E 48 b1 0b 28
        E 48 b1 0b 20
        E 32 b1 0b 18
        E 16 b1 0b 38
        E 80 b1 0b 30
        E 16 b1 0b 38
        E 0 81 2c 00
        E 0 91 2e 38
        E 64 b1 0b 30
        E 48 b1 0b 28
        E 32 b1 0b 20
        E 48 b1 0b 18
        E 16 b1 0b 38
        E 0 81 2e 00
        E 0 91 44 38
        E 64 b1 0b 30
        E 48 b1 0b 28
        E 48 b1 0b 20
        E 32 b1 0b 18
        E 16 81 44 00
        E 48 b1 0b 20
        E 0 91 3f 20
        E 96 81 3f 00
        E 0 91 41 20
        E 64 b1 0b 18
        E 48 b1 0b 20
        E 0 81 41 00
        E 0 91 42 20
        E 80 b1 0b 18
        E 16 b1 0b 20
        E 0 81 42 00
        E 0 91 41 20
        E 96 81 41 00
        E 0 91 42 20
        E 48 b1 0b 18
        E 64 b1 0b 20
        E 0 81 42 00
        E 0 91 41 20
        E 64 b1 0b 18
        E 32 b1 0b 20
        E 0 81 41 00
        E 0 91 3f 20
        E 96 b1 0b 18
        E 16 b1 0b 20
        E 0 81 3f 00
        E 0 91 41 20
        E 96 81 41 00
        E 0 91 42 20
        E 64 b1 0b 18
        E 32 b1 0b 20
        E 0 81 42 00
        E 0 91 41 20
        E 96 b1 0b 18
        E 16 b1 0b 20
        E 0 81 41 00
        E 0 91 42 20
        E 96 81 42 00
        E 0 91 41 20
        E 64 b1 0b 18
        E 48 b1 0b 20
        E 0 81 41 00
        E 0 91 42 20
        E 80 b1 0b 18
        E 16 b1 0b 20
        E 0 81 42 00
        E 0 91 41 20
        E 96 81 41 00
        E 0 91 3f 20
        E 48 b1 0b 18
        E 64 b1 0b 20
        E 0 81 3f 00
        E 0 91 41 20
        E 48 81 41 00
        E 48 91 3f 20
        E 64 b1 0b 18
        E 48 b1 0b 20
        E 0 81 3f 00
        E 0 91 41 20
        E 80 b1 0b 18
        E 16 b1 0b 20
        E 0 81 41 00
        E 0 91 42 20
        E 96 81 42 00
        E 0 91 41 20
        E 48 b1 0b 18
        E 64 b1 0b 20
        E 0 81 41 00
        E 0 91 42 20
        E 64 b1 0b 18
        E 32 b1 0b 20
        E 0 81 42 00
        E 0 91 41 20
        E 96 b1 0b 18
        E 16 b1 0b 20
        E 0 81 41 00
        E 0 91 3f 20
        E 96 81 3f 00
        E 0 91 41 20
        E 64 b1 0b 18
        E 32 b1 0b 20
        E 0 81 41 00
        E 0 91 42 20
        E 96 b1 0b 18
        E 16 b1 0b 20
        E 0 81 42 00
        E 0 91 41 20
        E 96 81 41 00
        E 0 91 42 20
        E 64 b1 0b 18
        E 48 b1 0b 20
        E 0 81 42 00
        E 0 91 41 20
        E 80 b1 0b 18
        E 16 b1 0b 20
        E 0 81 41 00
        E 0 91 42 20
        E 96 81 42 00
        E 0 91 41 20
        E 48 b1 0b 18
        E 64 b1 0b 20
        E 0 81 41 00
        E 0 91 3f 20
        E 64 b1 0b 18
        E 32 b1 0b 20
        E 0 81 3f 00
        E 0 91 41 20
        E 48 81 41 00
        E 64 91 3f 20
        E 80 b1 0b 18
        E 16 b1 0b 20
        E 0 81 3f 00
        E 0 91 41 20
        E 96 81 41 00
        E 0 91 42 20
        E 48 b1 0b 18
        E 64 b1 0b 20
        E 0 81 42 00
        E 0 91 41 20
        E 64 b1 0b 18
        E 32 b1 0b 20
        E 0 81 41 00
        E 0 91 42 20
        E 96 b1 0b 18
        E 16 b1 0b 20
        E 0 81 42 00
        E 0 91 41 20
        E 96 81 41 00
        E 0 91 3f 20
        E 64 b1 0b 18
        E 32 b1 0b 20
        E 0 81 3f 00
        E 0 91 41 20
        E 96 b1 0b 18
        E 16 b1 0b 20
        E 0 81 41 00
        E 0 91 42 20
        E 96 81 42 00
        E 0 91 41 20
        E 64 b1 0b 18
        E 48 b1 0b 20
        E 0 81 41 00
        E 0 91 42 20
        E 80 b1 0b 18
        E 16 b1 0b 20
        E 0 81 42 00
        E 0 91 41 20
        E 96 81 41 00
        E 0 91 42 20
        E 48 b1 0b 18
        E 64 b1 0b 20
        E 0 81 42 00
        E 0 91 41 20
        E 64 b1 0b 18
        E 32 b1 0b 20
        E 0 81 41 00
        E 0 91 3f 20
        E 96 b1 0b 18
        E 16 b1 0b 20
        E 0 81 3f 00
        E 0 91 41 20
        E 48 b1 0b 30
        E 0 81 41 00
        E 0 91 36 30
        E 64 b1 0b 28
        E 32 b1 0b 30
        E 64 b1 0b 28
        E 32 b1 0b 20
        E 48 b1 0b 18
        E 48 b1 0b 10
        E 16 b1 0b 30
        E 0 81 36 00
        E 0 91 35 30
        E 64 b1 0b 28
        E 32 b1 0b 30
        E 48 b1 0b 28
        E 48 b1 0b 20
        E 48 b1 0b 18
        E 32 b1 0b 10
        E 32 b1 0b 30
        E 0 81 35 00
        E 0 91 36 30
        E 64 b1 0b 28
        E 32 b1 0b 20
        E 16 b1 0b 30
        E 80 b1 0b 28
        E 32 b1 0b 20
        E 48 b1 0b 18
        E 32 b1 0b 30
        E 0 81 36 00
        E 0 91 35 30
        E 48 b1 0b 28
        E 48 b1 0b 20
        E 16 b1 0b 30
        E 64 b1 0b 28
        E 48 b1 0b 20
        E 48 b1 0b 18
        E 32 b1 0b 10
        E 16 b1 0b 30
        E 0 81 35 00
        E 0 91 36 30
        E 80 b1 0b 28
        E 32 b1 0b 20
        E 48 b1 0b 18
        E 32 b1 0b 30
        E 48 b1 0b 28
        E 48 b1 0b 20
        E 48 b1 0b 18
        E 32 b1 0b 10
        E 32 81 36 00
        E 48 b1 0b 20
        E 0 91 3f 20
        E 96 b1 0b 18
        E 16 b1 0b 20
        E 0 81 3f 00
        E 0 91 41 20
        E 96 81 41 00
        E 0 91 42 20
        E 64 b1 0b 18
        E 48 b1 0b 20
        E 0 81 42 00
        E 0 91 41 20
        E 80 b1 0b 18
        E 16 b1 0b 20
        E 0 81 41 00
        E 0 91 42 20
        E 96 81 42 00
        E 0 91 41 20
        E 48 b1 0b 18
        E 64 b1 0b 20
        E 0 81 41 00
        E 0 91 3f 20
        E 64 b1 0b 18
        E 32 b1 0b 20
        E 0 81 3f 00
        E 0 91 41 20
        E 96 b1 0b 18
        E 16 b1 0b 20
        E 0 81 41 00
        E 0 91 42 20
        E 96 81 42 00
        E 0 91 41 20
        E 64 b1 0b 18
        E 32 b1 0b 20
        E 0 81 41 00
        E 0 91 42 20
        E 96 b1 0b 18
        E 16 b1 0b 20
        E 0 81 42 00
        E 0 91 41 20
        E 96 81 41 00
        E 0 91 42 20
        E 64 b1 0b 18
        E 48 b1 0b 20
        E 0 81 42 00
        E 0 91 41 20
        E 80 b1 0b 18
        E 16 b1 0b 20
        E 0 81 41 00
        E 0 91 3f 20
        E 96 81 3f 00
        E 0 91 41 20
        E 48 b1 0b 18
        E 16 81 41 00
        E 48 b1 0b 20
        E 0 91 3f 20
        E 96 81 3f 00
        E 0 91 41 20
        E 64 b1 0b 18
        E 48 b1 0b 20
        E 0 81 41 00
        E 0 91 42 20
        E 80 b1 0b 18
        E 16 b1 0b 20
        E 0 81 42 00
        E 0 91 41 20
        E 96 81 41 00
        E 0 91 42 20
        E 48 b1 0b 18
        E 64 b1 0b 20
        E 0 81 42 00
        E 0 91 41 20
        E 64 b1 0b 18
        E 32 b1 0b 20
        E 0 81 41 00
        E 0 91 3f 20
        E 96 b1 0b 18
        E 16 b1 0b 20
        E 0 81 3f 00
        E 0 91 41 20
        E 96 81 41 00
        E 0 91 42 20
        E 64 b1 0b 18
        E 32 b1 0b 20
        E 0 81 42 00
        E 0 91 41 20
        E 96 b1 0b 18
        E 16 b1 0b 20
        E 0 81 41 00
        E 0 91 42 20
        E 96 81 42 00
        E 0 91 41 20
        E 64 b1 0b 18
        E 48 b1 0b 20
        E 0 81 41 00
        E 0 91 42 20
        E 80 b1 0b 18
        E 16 b1 0b 20
        E 0 81 42 00
        E 0 91 41 20
        E 96 81 41 00
        E 0 91 3f 20
        E 48 b1 0b 18
        E 64 b1 0b 20
        E 0 81 3f 00
        E 0 91 41 20
        E 48 81 41 00
        E 48 91 3f 20
        E 64 b1 0b 18
        E 48 b1 0b 20
        E 0 81 3f 00
        E 0 91 41 20
        E 80 b1 0b 18
        E 16 b1 0b 20
        E 0 81 41 00
        E 0 91 42 20
        E 96 81 42 00
        E 0 91 41 20
        E 48 b1 0b 18
        E 64 b1 0b 20
        E 0 81 41 00
        E 0 91 42 20
        E 64 b1 0b 18
        E 32 b1 0b 20
        E 0 81 42 00
        E 0 91 41 20
        E 96 b1 0b 18
        E 16 b1 0b 20
        E 0 81 41 00
        E 0 91 3f 20
        E 96 81 3f 00
        E 0 91 41 20
        E 64 b1 0b 18
        E 32 b1 0b 20
        E 0 81 41 00
        E 0 91 42 20
        E 96 b1 0b 18
        E 16 b1 0b 20
        E 0 81 42 00
        E 0 91 41 20
        E 96 81 41 00
        E 0 91 42 20
        E 64 b1 0b 18
        E 48 b1 0b 20
        E 0 81 42 00
        E 0 91 41 20
        E 80 b1 0b 18
        E 16 b1 0b 20
        E 0 81 41 00
        E 0 91 42 20
        E 96 81 42 00
        E 0 91 41 20
        E 48 b1 0b 18
        E 64 b1 0b 20
        E 0 81 41 00
        E 0 91 3f 20
        E 64 b1 0b 18
        E 32 b1 0b 20
        E 0 81 3f 00
        E 0 91 41 20
        E 48 b1 0b 30
        E 0 81 41 00
        E 0 91 36 30
        E 48 b1 0b 28
        E 48 b1 0b 20
        E 16 b1 0b 30
        E 64 b1 0b 28
        E 48 b1 0b 20
        E 48 b1 0b 18
        E 32 b1 0b 10
        E 16 b1 0b 30
        E 0 81 36 00
        E 0 91 35 30
        E 80 b1 0b 28
        E 16 b1 0b 30
        E 64 b1 0b 28
        E 48 b1 0b 20
        E 32 b1 0b 18
        E 48 b1 0b 10
        E 16 b1 0b 30
        E 0 81 35 00
        E 0 91 36 30
        E 64 b1 0b 28
        E 32 b1 0b 30
        E 64 b1 0b 28
        E 32 b1 0b 20
        E 48 b1 0b 18
        E 48 b1 0b 10
        E 16 b1 0b 30
        E 0 81 36 00
        E 0 91 35 30
        E 64 b1 0b 28
        E 32 b1 0b 30
        E 48 b1 0b 28
        E 48 b1 0b 20
        E 48 b1 0b 18
        E 32 b1 0b 10
        E 32 b1 0b 30
        E 0 81 35 00
        E 0 91 36 30
        E 64 b1 0b 28
        E 32 b1 0b 20
        E 48 b1 0b 18
        E 48 b1 0b 10
        E 16 b1 0b 30
        E 64 b1 0b 28
        E 48 b1 0b 20
        E 32 b1 0b 18
        E 48 b1 0b 10
        E 16 b1 0b 30
        E 0 81 36 00
        E 0 91 33 30
        E 64 b1 0b 28
        E 48 b1 0b 20
        E 48 b1 0b 18
        E 32 b1 0b 10
        E 48 b1 0b 08
        E 48 81 33 00
        E 16 b1 0b 30
        E 0 91 33 30
        E 64 b1 0b 28
        E 48 b1 0b 20
        E 32 b1 0b 18
        E 48 b1 0b 10
        E 48 b1 0b 08
        E 32 81 33 00
        E 32 b1 0b 30
        E 0 91 33 30
        E 64 b1 0b 28
        E 32 b1 0b 20
        E 48 b1 0b 18
        E 48 b1 0b 10
        E 32 b1 0b 08
        E 48 81 33 00
        E 32 b1 0b 30
        E 0 91 33 30
        E 48 b1 0b 28
        E 48 b1 0b 20
        E 48 b1 0b 18
        E 32 b1 0b 10
        E 48 b1 0b 08
        E 48 81 33 00
        E 48 b1 0b 30
        E 0 91 33 30
        E 80 b1 0b 28
        E 32 b1 0b 20
        E 48 b1 0b 18
        E 48 b1 0b 10
        E 32 b1 0b 08
        E 48 81 33 00
        E 112 b1 0b 30
        E 0 91 33 30
        E 64 b1 0b 28
        E 32 b1 0b 20
        E 48 b1 0b 18
        E 48 b1 0b 10
        E 32 b1 0b 08
        E 48 81 33 00
        E 32 b1 0b 30
        E 0 91 33 30
        E 48 b1 0b 28
        E 48 b1 0b 20
        E 48 b1 0b 18
        E 32 b1 0b 10
        E 48 b1 0b 08
        E 48 81 33 00
        E 48 b1 0b 30
        E 0 91 33 30
        E 80 b1 0b 28
        E 32 b1 0b 20
        E 48 b1 0b 18
        E 48 b1 0b 10
        E 32 b1 0b 08
        E 48 81 33 00
        E 16 b1 0b 30
        E 0 91 33 30
        E 64 b1 0b 28
        E 48 b1 0b 20
        E 48 b1 0b 18
        E 32 b1 0b 10
        E 48 b1 0b 08
        E 48 81 33 00
        E 16 b1 0b 30
        E 0 91 33 30
        E 64 b1 0b 28
        E 48 b1 0b 20
        E 32 b1 0b 18
        E 48 b1 0b 10
        E 48 b1 0b 08
        E 32 81 33 00
        E 144 b1 0b 30
        E 0 91 33 30
        E 80 b1 0b 28
        E 32 b1 0b 20
        E 48 b1 0b 18
        E 48 b1 0b 10
        E 32 b1 0b 08
        E 48 81 33 00
        E 16 b1 0b 30
        E 0 91 33 30
        E 64 b1 0b 28
        E 48 b1 0b 20
        E 48 b1 0b 18
        E 32 b1 0b 10
        E 48 b1 0b 08
        E 48 81 33 00
        E 16 b1 0b 30
        E 0 91 33 30
        E 64 b1 0b 28
        E 48 b1 0b 20
        E 32 b1 0b 18
        E 48 b1 0b 10
        E 48 b1 0b 08
        E 32 81 33 00
        E 32 b1 0b 30
        E 0 91 33 30
        E 64 b1 0b 28
        E 32 b1 0b 20
        E 48 b1 0b 18
        E 48 b1 0b 10
        E 32 b1 0b 08
        E 48 81 33 00
        E 32 b1 0b 30
        E 0 91 33 30
        E 48 b1 0b 28
        E 48 b1 0b 20
        E 48 b1 0b 18
        E 32 b1 0b 10
        E 48 b1 0b 08
        E 48 81 33 00
        E 144 b1 0b 30
        E 0 91 38 30
        E 64 b1 0b 28
        E 48 b1 0b 20
        E 32 b1 0b 18
        E 48 b1 0b 10
        E 16 b1 0b 30
        E 64 b1 0b 28
        E 32 b1 0b 30
        E 64 b1 0b 28
        E 32 b1 0b 20
        E 48 b1 0b 18
        E 48 b1 0b 10
        E 16 b1 0b 30
        E 64 b1 0b 28
        E 48 b1 0b 20
        E 32 b1 0b 18
        E 48 b1 0b 10
        E 16 b1 0b 30
        E 64 b1 0b 28
        E 32 b1 0b 30
        E 0 81 38 00
        E 0 91 3a 30
        E 64 b1 0b 28
        E 32 b1 0b 20
        E 48 b1 0b 18
        E 48 b1 0b 10
        E 16 b1 0b 30
        E 64 b1 0b 28
        E 48 b1 0b 20
        E 32 b1 0b 18
        E 48 b1 0b 10
        E 16 b1 0b 30
        E 64 b1 0b 28
        E 48 b1 0b 20
        E 48 b1 0b 18
        E 32 b1 0b 10
        E 48 b1 0b 08
        E 48 81 3a 00
        E 112 b1 0b 30
        E 0 91 33 30
        E 48 b1 0b 28
        E 48 b1 0b 20
        E 48 b1 0b 18
        E 32 b1 0b 10
        E 48 b1 0b 08
        E 48 81 33 00
        E 48 b1 0b 30
        E 0 91 33 30
        E 80 b1 0b 28
        E 32 b1 0b 20
        E 48 b1 0b 18
        E 48 b1 0b 10
        E 32 b1 0b 08
        E 48 81 33 00
        E 16 b1 0b 30
        E 0 91 33 30
        E 64 b1 0b 28
        E 48 b1 0b 20
        E 48 b1 0b 18
        E 32 b1 0b 10
        E 48 b1 0b 08
        E 48 81 33 00
        E 16 b1 0b 30
        E 0 91 33 30
        E 64 b1 0b 28
        E 48 b1 0b 20
        E 32 b1 0b 18
        E 48 b1 0b 10
        E 48 b1 0b 08
        E 32 81 33 00
        E 32 b1 0b 30
        E 0 91 33 30
        E 64 b1 0b 28
        E 32 b1 0b 20
        E 48 b1 0b 18
        E 48 b1 0b 10
        E 32 b1 0b 08
        E 48 81 33 00
        E 144 b1 0b 30
        E 0 91 33 30
        E 64 b1 0b 28
        E 48 b1 0b 20
        E 48 b1 0b 18
        E 32 b1 0b 10
        E 48 b1 0b 08
        E 48 81 33 00
        E 16 b1 0b 30
        E 0 91 33 30
        E 64 b1 0b 28
        E 48 b1 0b 20
        E 32 b1 0b 18
        E 48 b1 0b 10
        E 48 b1 0b 08
        E 32 81 33 00
        E 32 b1 0b 30
        E 0 91 33 30
        E 64 b1 0b 28
        E 32 b1 0b 20
        E 48 b1 0b 18
        E 48 b1 0b 10
        E 32 b1 0b 08
        E 48 81 33 00
        E 32 b1 0b 30
        E 0 91 33 30
        E 48 b1 0b 28
        E 48 b1 0b 20
        E 48 b1 0b 18
        E 32 b1 0b 10
        E 48 b1 0b 08
        E 48 81 33 00
        E 48 b1 0b 30
        E 0 91 33 30
        E 80 b1 0b 28
        E 32 b1 0b 20
        E 48 b1 0b 18
        E 48 b1 0b 10
        E 32 b1 0b 08
        E 48 81 33 00
        E 112 b1 0b 30
        E 0 91 33 30
        E 64 b1 0b 28
        E 32 b1 0b 20
        E 48 b1 0b 18
        E 48 b1 0b 10
        E 32 b1 0b 08
        E 48 81 33 00
        E 32 b1 0b 30
        E 0 91 33 30
        E 48 b1 0b 28
        E 48 b1 0b 20
        E 48 b1 0b 18
        E 32 b1 0b 10
        E 48 b1 0b 08
        E 48 81 33 00
        E 48 b1 0b 30
        E 0 91 33 30
        E 80 b1 0b 28
        E 32 b1 0b 20
        E 48 b1 0b 18
        E 48 b1 0b 10
        E 32 b1 0b 08
        E 48 81 33 00
        E 16 b1 0b 30
        E 0 91 33 30
        E 64 b1 0b 28
        E 48 b1 0b 20
        E 48 b1 0b 18
        E 32 b1 0b 10
        E 48 b1 0b 08
        E 48 81 33 00
        E 16 b1 0b 30
        E 0 91 33 30
        E 64 b1 0b 28
        E 48 b1 0b 20
        E 32 b1 0b 18
        E 48 b1 0b 10
        E 48 b1 0b 08
        E 32 81 33 00
        E 144 b1 0b 30
        E 0 91 38 30
        E 80 b1 0b 28
        E 32 b1 0b 20
        E 48 b1 0b 18
        E 32 b1 0b 30
        E 48 b1 0b 28
        E 48 b1 0b 20
        E 16 b1 0b 30
        E 64 b1 0b 28
        E 48 b1 0b 20
        E 48 b1 0b 18
        E 32 b1 0b 10
        E 16 b1 0b 30
        E 80 b1 0b 28
        E 32 b1 0b 20
        E 48 b1 0b 18
        E 32 b1 0b 30
        E 48 b1 0b 28
        E 48 b1 0b 20
        E 16 b1 0b 30
        E 0 81 38 00
        E 0 91 3a 30
        E 64 b1 0b 28
        E 48 b1 0b 20
        E 48 b1 0b 18
        E 32 b1 0b 10
        E 16 b1 0b 30
        E 80 b1 0b 28
        E 32 b1 0b 20
        E 48 b1 0b 18
        E 32 b1 0b 30
        E 48 b1 0b 28
        E 48 b1 0b 20
        E 48 b1 0b 18
        E 32 b1 0b 10
        E 48 b1 0b 08
        E 48 81 3a 00
        E 144 b1 0b 30
        E 0 91 27 30
        E 64 b1 0b 28
        E 48 b1 0b 20
        E 32 b1 0b 18
        E 48 b1 0b 10
        E 16 b1 0b 30
        E 64 b1 0b 28
        E 48 b1 0b 20
        E 48 b1 0b 18
        E 32 b1 0b 10
        E 16 b1 0b 30
        E 0 81 27 00
        E 0 91 46 30
        E 80 b1 0b 28
        E 32 b1 0b 20
        E 48 b1 0b 18
        E 48 b1 0b 10
        E 32 b1 0b 08
        E 48 81 46 00
        E 16 b1 0b 30
        E 0 91 2c 30
        E 64 b1 0b 28
        E 48 b1 0b 20
        E 48 b1 0b 18
        E 32 b1 0b 10
        E 16 b1 0b 30
        E 80 b1 0b 28
        E 32 b1 0b 20
        E 48 b1 0b 18
        E 32 b1 0b 30
        E 48 b1 0b 28
        E 48 b1 0b 20
        E 16 b1 0b 30
        E 0 81 2c 00
        E 0 91 2e 30
        E 64 b1 0b 28
        E 48 b1 0b 20
        E 48 b1 0b 18
        E 32 b1 0b 10
        E 16 b1 0b 30
        E 0 81 2e 00
        E 0 91 44 30
        E 80 b1 0b 28
        E 32 b1 0b 20
        E 48 b1 0b 18
        E 32 b1 0b 30
        E 0 81 44 00
        E 0 91 27 30
        E 48 b1 0b 28
        E 48 b1 0b 20
        E 48 b1 0b 18
        E 32 b1 0b 10
        E 32 b1 0b 30
        E 64 b1 0b 28
        E 32 b1 0b 20
        E 48 b1 0b 18
        E 48 b1 0b 10
        E 16 b1 0b 30
        E 0 81 27 00
        E 0 91 46 30
        E 64 b1 0b 28
        E 48 b1 0b 20
        E 32 b1 0b 18
        E 48 b1 0b 10
        E 48 b1 0b 08
        E 32 81 46 00
        E 32 b1 0b 30
        E 0 91 2c 30
        E 64 b1 0b 28
        E 32 b1 0b 20
        E 48 b1 0b 18
        E 48 b1 0b 10
        E 16 b1 0b 30
        E 64 b1 0b 28
        E 48 b1 0b 20
        E 32 b1 0b 18
        E 48 b1 0b 10
        E 16 b1 0b 30
        E 64 b1 0b 28
        E 32 b1 0b 30
        E 0 81 2c 00
        E 0 91 2e 30
        E 64 b1 0b 28
        E 32 b1 0b 20
        E 48 b1 0b 18
        E 48 b1 0b 10
        E 16 b1 0b 30
        E 0 81 2e 00
        E 0 91 44 30
        E 64 b1 0b 28
        E 48 b1 0b 20
        E 32 b1 0b 18
        E 48 b1 0b 10
        E 16 b1 0b 30
        E 0 81 44 00
        E 0 91 27 30
        E 64 b1 0b 28
        E 48 b1 0b 20
        E 48 b1 0b 18
        E 32 b1 0b 10
        E 16 b1 0b 30
        E 80 b1 0b 28
        E 32 b1 0b 20
        E 48 b1 0b 18
        E 32 b1 0b 30
        E 0 81 27 00
        E 0 91 46 30
        E 48 b1 0b 28
        E 48 b1 0b 20
        E 48 b1 0b 18
        E 32 b1 0b 10
        E 48 b1 0b 08
        E 48 81 46 00
        E 48 b1 0b 30
        E 0 91 2c 30
        E 80 b1 0b 28
        E 32 b1 0b 20
        E 48 b1 0b 18
        E 32 b1 0b 30
        E 48 b1 0b 28
        E 48 b1 0b 20
        E 48 b1 0b 18
        E 32 b1 0b 10
        E 32 b1 0b 30
        E 64 b1 0b 28
        E 32 b1 0b 20
        E 16 b1 0b 30
        E 0 81 2c 00
        E 0 91 2e 30
        E 80 b1 0b 28
        E 32 b1 0b 20
        E 48 b1 0b 18
        E 32 b1 0b 30
        E 0 81 2e 00
        E 0 91 44 30
        E 48 b1 0b 28
        E 48 b1 0b 20
        E 48 b1 0b 18
        E 32 b1 0b 10
        E 32 81 44 00
        E 416 b1 0b 30
        E 0 91 4e 30
        E 64 b1 0b 28
        E 48 b1 0b 20
        E 48 b1 0b 18
        E 32 b1 0b 10
        E 16 b1 0b 30
        E 0 81 4e 00
        E 0 91 4d 30
        E 80 b1 0b 28
        E 16 b1 0b 30
        E 0 81 4d 00
        E 0 91 4e 30
        E 64 b1 0b 28
        E 48 b1 0b 20
        E 32 b1 0b 18
        E 48 b1 0b 10
        E 16 b1 0b 30
        E 0 81 4e 00
        E 0 91 4d 30
        E 64 b1 0b 28
        E 32 b1 0b 30
        E 0 81 4d 00
        E 0 91 4e 30
        E 64 b1 0b 28
        E 32 b1 0b 20
        E 48 b1 0b 18
        E 48 b1 0b 10
        E 16 b1 0b 30
        E 64 b1 0b 28
        E 48 b1 0b 20
        E 32 b1 0b 18
        E 48 b1 0b 10
        E 16 b1 0b 30
        E 0 81 4e 00
        E 0 91 4d 30
        E 64 b1 0b 28
        E 48 b1 0b 20
        E 48 b1 0b 18
        E 32 b1 0b 10
        E 16 b1 0b 30
        E 0 81 4d 00
        E 0 91 27 30
        E 80 b1 0b 28
        E 32 b1 0b 20
        E 48 b1 0b 18
        E 32 b1 0b 30
        E 48 b1 0b 28
        E 48 b1 0b 20
        E 48 b1 0b 18
        E 32 b1 0b 10
        E 32 b1 0b 30
        E 0 81 27 00
        E 0 91 46 30
        E 64 b1 0b 28
        E 32 b1 0b 20
        E 48 b1 0b 18
        E 48 b1 0b 10
        E 32 b1 0b 08
        E 48 81 46 00
        E 32 b1 0b 30
        E 0 91 2c 30
        E 48 b1 0b 28
        E 48 b1 0b 20
        E 48 b1 0b 18
        E 32 b1 0b 10
        E 32 b1 0b 30
        E 64 b1 0b 28
        E 32 b1 0b 20
        E 48 b1 0b 18
        E 48 b1 0b 10
        E 16 b1 0b 30
        E 64 b1 0b 28
        E 32 b1 0b 30
        E 0 81 2c 00
        E 0 91 2e 30
        E 48 b1 0b 28
        E 48 b1 0b 20
        E 48 b1 0b 18
        E 32 b1 0b 10
        E 32 b1 0b 30
        E 0 81 2e 00
        E 0 91 44 30
        E 64 b1 0b 28
        E 32 b1 0b 20
        E 48 b1 0b 18
        E 48 b1 0b 10
        E 16 b1 0b 30
        E 0 81 44 00
        E 0 91 27 30
        E 64 b1 0b 28
        E 48 b1 0b 20
        E 32 b1 0b 18
        E 48 b1 0b 10
        E 16 b1 0b 30
        E 64 b1 0b 28
        E 48 b1 0b 20
        E 48 b1 0b 18
        E 32 b1 0b 10
        E 16 b1 0b 30
        E 0 81 27 00
        E 0 91 46 30
        E 80 b1 0b 28
        E 32 b1 0b 20
        E 48 b1 0b 18
        E 48 b1 0b 10
        E 32 b1 0b 08
        E 48 81 46 00
        E 16 b1 0b 30
        E 0 91 2c 30
        E 64 b1 0b 28
        E 48 b1 0b 20
        E 48 b1 0b 18
        E 32 b1 0b 10
        E 16 b1 0b 30
        E 80 b1 0b 28
        E 32 b1 0b 20
        E 48 b1 0b 18
        E 32 b1 0b 30
        E 48 b1 0b 28
        E 48 b1 0b 20
        E 16 b1 0b 30
        E 0 81 2c 00
        E 0 91 2e 30
        E 64 b1 0b 28
        E 48 b1 0b 20
        E 48 b1 0b 18
        E 32 b1 0b 10
        E 16 b1 0b 30
        E 0 81 2e 00
        E 0 91 44 30
        E 80 b1 0b 28
        E 32 b1 0b 20
        E 48 b1 0b 18
        E 32 b1 0b 30
        E 0 81 44 00
        E 0 91 27 30
        E 48 b1 0b 28
        E 48 b1 0b 20
        E 48 b1 0b 18
        E 32 b1 0b 10
        E 32 b1 0b 30
        E 64 b1 0b 28
        E 32 b1 0b 20
        E 48 b1 0b 18
        E 48 b1 0b 10
        E 16 b1 0b 30
        E 0 81 27 00
        E 0 91 46 30
        E 64 b1 0b 28
        E 48 b1 0b 20
        E 32 b1 0b 18
        E 48 b1 0b 10
        E 48 b1 0b 08
        E 32 81 46 00
        E 32 b1 0b 30
        E 0 91 2c 30
        E 64 b1 0b 28
        E 32 b1 0b 20
        E 48 b1 0b 18
        E 48 b1 0b 10
        E 16 b1 0b 30
        E 64 b1 0b 28
        E 48 b1 0b 20
        E 32 b1 0b 18
        E 48 b1 0b 10
        E 16 b1 0b 30
        E 64 b1 0b 28
        E 32 b1 0b 30
        E 0 81 2c 00
        E 0 91 2e 30
        E 64 b1 0b 28
        E 32 b1 0b 20
        E 48 b1 0b 18
        E 48 b1 0b 10
        E 16 b1 0b 30
        E 0 81 2e 00
        E 0 91 44 30
        E 64 b1 0b 28
        E 48 b1 0b 20
        E 32 b1 0b 18
        E 48 b1 0b 10
        E 16 81 44 00
        E 400 b1 0b 30
        E 0 91 4e 30
        E 48 b1 0b 28
        E 48 b1 0b 20
        E 48 b1 0b 18
        E 32 b1 0b 10
        E 32 b1 0b 30
        E 0 81 4e 00
        E 0 91 4d 30
        E 64 b1 0b 28
        E 32 b1 0b 20
        E 16 b1 0b 30
        E 0 81 4d 00
        E 0 91 4e 30
        E 80 b1 0b 28
        E 32 b1 0b 20
        E 48 b1 0b 18
        E 32 b1 0b 30
        E 0 81 4e 00
        E 0 91 4d 30
        E 48 b1 0b 28
        E 48 b1 0b 20
        E 16 b1 0b 30
        E 0 81 4d 00
        E 0 91 4e 30
        E 64 b1 0b 28
        E 48 b1 0b 20
        E 48 b1 0b 18
        E 32 b1 0b 10
        E 16 b1 0b 30
        E 80 b1 0b 28
        E 32 b1 0b 20
        E 48 b1 0b 18
        E 32 b1 0b 30
        E 0 81 4e 00
        E 0 91 4d 30
        E 48 b1 0b 28
        E 48 b1 0b 20
        E 48 b1 0b 18
        E 32 b1 0b 10
        E 32 81 4d 00
        E 48 b1 0b 20
        E 0 91 3f 20
        E 96 b1 0b 18
        E 16 b1 0b 20
        E 0 81 3f 00
        E 0 91 41 20
        E 96 81 41 00
        E 0 91 42 20
        E 64 b1 0b 18
        E 48 b1 0b 20
        E 0 81 42 00
        E 0 91 41 20
        E 80 b1 0b 18
        E 16 b1 0b 20
        E 0 81 41 00
        E 0 91 42 20
        E 96 81 42 00
        E 0 91 41 20
        E 48 b1 0b 18
        E 64 b1 0b 20
        E 0 81 41 00
        E 0 91 3f 20
        E 64 b1 0b 18
        E 32 b1 0b 20
        E 0 81 3f 00
        E 0 91 41 20
        E 96 b1 0b 18
        E 16 b1 0b 20
        E 0 81 41 00
        E 0 91 42 20
        E 96 81 42 00
        E 0 91 41 20
        E 64 b1 0b 18
        E 32 b1 0b 20
        E 0 81 41 00
        E 0 91 42 20
        E 96 b1 0b 18
        E 16 b1 0b 20
        E 0 81 42 00
        E 0 91 41 20
        E 96 81 41 00
        E 0 91 42 20
        E 64 b1 0b 18
        E 48 b1 0b 20
        E 0 81 42 00
        E 0 91 41 20
        E 80 b1 0b 18
        E 16 b1 0b 20
        E 0 81 41 00
        E 0 91 3f 20
        E 96 81 3f 00
        E 0 91 41 20
        E 48 b1 0b 18
        E 16 81 41 00
        E 48 b1 0b 20
        E 0 91 3f 20
        E 96 81 3f 00
        E 0 91 41 20
        E 64 b1 0b 18
        E 48 b1 0b 20
        E 0 81 41 00
        E 0 91 42 20
        E 80 b1 0b 18
        E 16 b1 0b 20
        E 0 81 42 00
        E 0 91 41 20
        E 96 81 41 00
        E 0 91 42 20
        E 48 b1 0b 18
        E 64 b1 0b 20
        E 0 81 42 00
        E 0 91 41 20
        E 64 b1 0b 18
        E 32 b1 0b 20
        E 0 81 41 00
        E 0 91 3f 20
        E 96 b1 0b 18
        E 16 b1 0b 20
        E 0 81 3f 00
        E 0 91 41 20
        E 96 81 41 00
        E 0 91 42 20
        E 64 b1 0b 18
        E 32 b1 0b 20
        E 0 81 42 00
        E 0 91 41 20
        E 96 b1 0b 18
        E 16 b1 0b 20
        E 0 81 41 00
        E 0 91 42 20
        E 96 81 42 00
        E 0 91 41 20
        E 64 b1 0b 18
        E 48 b1 0b 20
        E 0 81 41 00
        E 0 91 42 20
        E 80 b1 0b 18
        E 16 b1 0b 20
        E 0 81 42 00
        E 0 91 41 20
        E 96 81 41 00
        E 0 91 3f 20
        E 48 b1 0b 18
        E 64 b1 0b 20
        E 0 81 3f 00
        E 0 91 41 20
        E 48 81 41 00
        E 48 91 3f 20
        E 64 b1 0b 18
        E 48 b1 0b 20
        E 0 81 3f 00
        E 0 91 41 20
        E 80 b1 0b 18
        E 16 b1 0b 20
        E 0 81 41 00
        E 0 91 42 20
        E 96 81 42 00
        E 0 91 41 20
        E 48 b1 0b 18
        E 64 b1 0b 20
        E 0 81 41 00
        E 0 91 42 20
        E 64 b1 0b 18
        E 32 b1 0b 20
        E 0 81 42 00
        E 0 91 41 20
        E 96 b1 0b 18
        E 16 b1 0b 20
        E 0 81 41 00
        E 0 91 3f 20
        E 96 81 3f 00
        E 0 91 41 20
        E 64 b1 0b 18
        E 32 b1 0b 20
        E 0 81 41 00
        E 0 91 42 20
        E 96 b1 0b 18
        E 16 b1 0b 20
        E 0 81 42 00
        E 0 91 41 20
        E 96 81 41 00
        E 0 91 42 20
        E 64 b1 0b 18
        E 48 b1 0b 20
        E 0 81 42 00
        E 0 91 41 20
        E 80 b1 0b 18
        E 16 b1 0b 20
        E 0 81 41 00
        E 0 91 42 20
        E 96 81 42 00
        E 0 91 41 20
        E 48 b1 0b 18
        E 64 b1 0b 20
        E 0 81 41 00
        E 0 91 3f 20
        E 64 b1 0b 18
        E 32 b1 0b 20
        E 0 81 3f 00
        E 0 91 41 20
        E 48 b1 0b 30
        E 0 81 41 00
        E 0 91 36 30
        E 48 b1 0b 28
        E 48 b1 0b 20
        E 16 b1 0b 30
        E 64 b1 0b 28
        E 48 b1 0b 20
        E 48 b1 0b 18
        E 32 b1 0b 10
        E 16 b1 0b 30
        E 0 81 36 00
        E 0 91 35 30
        E 80 b1 0b 28
        E 16 b1 0b 30
        E 64 b1 0b 28
        E 48 b1 0b 20
        E 32 b1 0b 18
        E 48 b1 0b 10
        E 16 b1 0b 30
        E 0 81 35 00
        E 0 91 36 30
        E 64 b1 0b 28
        E 32 b1 0b 30
        E 64 b1 0b 28
        E 32 b1 0b 20
        E 48 b1 0b 18
        E 48 b1 0b 10
        E 16 b1 0b 30
        E 0 81 36 00
        E 0 91 35 30
        E 64 b1 0b 28
        E 32 b1 0b 30
        E 48 b1 0b 28
        E 48 b1 0b 20
        E 48 b1 0b 18
        E 32 b1 0b 10
        E 32 b1 0b 30
        E 0 81 35 00
        E 0 91 36 30
        E 64 b1 0b 28
        E 32 b1 0b 20
        E 48 b1 0b 18
        E 48 b1 0b 10
        E 16 b1 0b 30
        E 64 b1 0b 28
        E 48 b1 0b 20
        E 32 b1 0b 18
        E 48 b1 0b 10
        E 16 81 36 00
        E 48 b1 0b 20
        E 0 91 3f 20
        E 96 81 3f 00
        E 0 91 41 20
        E 48 b1 0b 18
        E 64 b1 0b 20
        E 0 81 41 00
        E 0 91 42 20
        E 64 b1 0b 18
        E 32 b1 0b 20
        E 0 81 42 00
        E 0 91 41 20
        E 96 b1 0b 18
        E 16 b1 0b 20
        E 0 81 41 00
        E 0 91 42 20
        E 96 81 42 00
        E 0 91 41 20
        E 64 b1 0b 18
        E 32 b1 0b 20
        E 0 81 41 00
        E 0 91 3f 20
        E 96 b1 0b 18
        E 16 b1 0b 20
        E 0 81 3f 00
        E 0 91 41 20
        E 96 81 41 00
        E 0 91 42 20
        E 64 b1 0b 18
        E 48 b1 0b 20
        E 0 81 42 00
        E 0 91 41 20
        E 80 b1 0b 18
        E 16 b1 0b 20
        E 0 81 41 00
        E 0 91 42 20
        E 96 81 42 00
        E 0 91 41 20
        E 48 b1 0b 18
        E 64 b1 0b 20
        E 0 81 41 00
        E 0 91 42 20
        E 64 b1 0b 18
        E 32 b1 0b 20
        E 0 81 42 00
        E 0 91 41 20
        E 96 b1 0b 18
        E 16 b1 0b 20
        E 0 81 41 00
        E 0 91 3f 20
        E 96 81 3f 00
        E 0 91 41 20
        E 48 81 41 00
        E 48 91 3f 20
        E 48 b1 0b 18
        E 64 b1 0b 20
        E 0 81 3f 00
        E 0 91 41 20
        E 64 b1 0b 18
        E 32 b1 0b 20
        E 0 81 41 00
        E 0 91 42 20
        E 96 b1 0b 18
        E 16 b1 0b 20
        E 0 81 42 00
        E 0 91 41 20
        E 96 81 41 00
        E 0 91 42 20
        E 64 b1 0b 18
        E 32 b1 0b 20
        E 0 81 42 00
        E 0 91 41 20
        E 96 b1 0b 18
        E 16 b1 0b 20
        E 0 81 41 00
        E 0 91 3f 20
        E 96 81 3f 00
        E 0 91 41 20
        E 64 b1 0b 18
        E 48 b1 0b 20
        E 0 81 41 00
        E 0 91 42 20
        E 80 b1 0b 18
        E 16 b1 0b 20
        E 0 81 42 00
        E 0 91 41 20
        E 96 81 41 00
        E 0 91 42 20
        E 48 b1 0b 18
        E 64 b1 0b 20
        E 0 81 42 00
        E 0 91 41 20
        E 64 b1 0b 18
        E 32 b1 0b 20
        E 0 81 41 00
        E 0 91 42 20
        E 96 b1 0b 18
        E 16 b1 0b 20
        E 0 81 42 00
        E 0 91 41 20
        E 96 81 41 00
        E 0 91 3f 20
        E 64 b1 0b 18
        E 32 b1 0b 20
        E 0 81 3f 00
        E 0 91 41 20
        E 64 81 41 00
        E 48 91 3f 20
        E 64 b1 0b 18
        E 32 b1 0b 20
        E 0 81 3f 00
        E 0 91 41 20
        E 96 b1 0b 18
        E 16 b1 0b 20
        E 0 81 41 00
        E 0 91 42 20
        E 96 81 42 00
        E 0 91 41 20
        E 64 b1 0b 18
        E 32 b1 0b 20
        E 0 81 41 00
        E 0 91 42 20
        E 96 b1 0b 18
        E 16 b1 0b 20
        E 0 81 42 00
        E 0 91 41 20
        E 96 81 41 00
        E 0 91 3f 20
        E 64 b1 0b 18
        E 48 b1 0b 20
        E 0 81 3f 00
        E 0 91 41 20
        E 80 b1 0b 18
        E 16 b1 0b 20
        E 0 81 41 00
        E 0 91 42 20
        E 96 81 42 00
        E 0 91 41 20
        E 48 b1 0b 18
        E 64 b1 0b 20
        E 0 81 41 00
        E 0 91 42 20
        E 64 b1 0b 18
        E 32 b1 0b 20
        E 0 81 42 00
        E 0 91 41 20
        E 96 b1 0b 18
        E 16 b1 0b 20
        E 0 81 41 00
        E 0 91 42 20
        E 96 81 42 00
        E 0 91 41 20
        E 64 b1 0b 18
        E 32 b1 0b 20
        E 0 81 41 00
        E 0 91 3f 20
        E 96 b1 0b 18
        E 16 b1 0b 20
        E 0 81 3f 00
        E 0 91 41 20
        E 48 b1 0b 30
        E 0 81 41 00
        E 0 91 36 30
        E 64 b1 0b 28
        E 32 b1 0b 30
        E 48 b1 0b 28
        E 48 b1 0b 20
        E 48 b1 0b 18
        E 32 b1 0b 10
        E 32 b1 0b 30
        E 0 81 36 00
        E 0 91 35 30
        E 64 b1 0b 28
        E 32 b1 0b 20
        E 16 b1 0b 30
        E 80 b1 0b 28
        E 32 b1 0b 20
        E 48 b1 0b 18
        E 32 b1 0b 30
        E 0 81 35 00
        E 0 91 36 30
        E 48 b1 0b 28
        E 48 b1 0b 20
        E 16 b1 0b 30
        E 64 b1 0b 28
        E 48 b1 0b 20
        E 48 b1 0b 18
        E 32 b1 0b 10
        E 16 b1 0b 30
        E 0 81 36 00
        E 0 91 35 30
        E 80 b1 0b 28
        E 16 b1 0b 30
        E 64 b1 0b 28
        E 48 b1 0b 20
        E 32 b1 0b 18
        E 48 b1 0b 10
        E 16 b1 0b 30
        E 0 81 35 00
        E 0 91 36 30
        E 64 b1 0b 28
        E 48 b1 0b 20
        E 48 b1 0b 18
        E 32 b1 0b 10
        E 16 b1 0b 30
        E 80 b1 0b 28
        E 32 b1 0b 20
        E 48 b1 0b 18
        E 32 b1 0b 30
        E 0 81 36 00
        E 0 91 33 30
        E 48 b1 0b 28
        E 48 b1 0b 20
        E 48 b1 0b 18
        E 32 b1 0b 10
        E 48 b1 0b 08
        E 48 81 33 00
        E 48 b1 0b 30
        E 0 91 33 30
        E 80 b1 0b 28
        E 32 b1 0b 20
        E 48 b1 0b 18
        E 48 b1 0b 10
        E 32 b1 0b 08
        E 48 81 33 00
        E 16 b1 0b 30
        E 0 91 33 30
        E 64 b1 0b 28
        E 48 b1 0b 20
        E 48 b1 0b 18
        E 32 b1 0b 10
        E 48 b1 0b 08
        E 48 81 33 00
        E 16 b1 0b 30
        E 0 91 33 30
        E 64 b1 0b 28
        E 48 b1 0b 20
        E 32 b1 0b 18
        E 48 b1 0b 10
        E 48 b1 0b 08
        E 32 81 33 00
        E 32 b1 0b 30
        E 0 91 33 30
        E 64 b1 0b 28
        E 32 b1 0b 20
        E 48 b1 0b 18
        E 48 b1 0b 10
        E 32 b1 0b 08
        E 48 81 33 00
        E 144 b1 0b 30
        E 0 91 33 30
        E 64 b1 0b 28
        E 48 b1 0b 20
        E 48 b1 0b 18
        E 32 b1 0b 10
        E 48 b1 0b 08
        E 48 81 33 00
        E 16 b1 0b 30
        E 0 91 33 30
        E 64 b1 0b 28
        E 48 b1 0b 20
        E 32 b1 0b 18
        E 48 b1 0b 10
        E 48 b1 0b 08
        E 32 81 33 00
        E 32 b1 0b 30
        E 0 91 33 30
        E 64 b1 0b 28
        E 32 b1 0b 20
        E 48 b1 0b 18
        E 48 b1 0b 10
        E 32 b1 0b 08
        E 48 81 33 00
        E 32 b1 0b 30
        E 0 91 33 30
        E 48 b1 0b 28
        E 48 b1 0b 20
        E 48 b1 0b 18
        E 32 b1 0b 10
        E 48 b1 0b 08
        E 48 81 33 00
        E 48 b1 0b 30
        E 0 91 33 30
        E 80 b1 0b 28
        E 32 b1 0b 20
        E 48 b1 0b 18
        E 48 b1 0b 10
        E 32 b1 0b 08
        E 48 81 33 00
        E 112 b1 0b 30
        E 0 91 33 30
        E 64 b1 0b 28
        E 32 b1 0b 20
        E 48 b1 0b 18
        E 48 b1 0b 10
        E 32 b1 0b 08
        E 48 81 33 00
        E 32 b1 0b 30
        E 0 91 33 30
        E 48 b1 0b 28
        E 48 b1 0b 20
        E 48 b1 0b 18
        E 32 b1 0b 10
        E 48 b1 0b 08
        E 48 81 33 00
        E 48 b1 0b 30
        E 0 91 33 30
        E 80 b1 0b 28
        E 32 b1 0b 20
        E 48 b1 0b 18
        E 48 b1 0b 10
        E 32 b1 0b 08
        E 48 81 33 00
        E 16 b1 0b 30
        E 0 91 33 30
        E 64 b1 0b 28
        E 48 b1 0b 20
        E 48 b1 0b 18
        E 32 b1 0b 10
        E 48 b1 0b 08
        E 48 81 33 00
        E 16 b1 0b 30
        E 0 91 33 30
        E 64 b1 0b 28
        E 48 b1 0b 20
        E 32 b1 0b 18
        E 48 b1 0b 10
        E 48 b1 0b 08
        E 32 81 33 00
        E 144 b1 0b 30
        E 0 91 38 30
        E 80 b1 0b 28
        E 32 b1 0b 20
        E 48 b1 0b 18
        E 32 b1 0b 30
        E 48 b1 0b 28
        E 48 b1 0b 20
        E 16 b1 0b 30
        E 64 b1 0b 28
        E 48 b1 0b 20
        E 48 b1 0b 18
        E 32 b1 0b 10
        E 16 b1 0b 30
        E 80 b1 0b 28
        E 32 b1 0b 20
        E 48 b1 0b 18
        E 32 b1 0b 30
        E 48 b1 0b 28
        E 48 b1 0b 20
        E 16 b1 0b 30
        E 0 81 38 00
        E 0 91 3a 30
        E 64 b1 0b 28
        E 48 b1 0b 20
        E 48 b1 0b 18
        E 32 b1 0b 10
        E 16 b1 0b 30
        E 80 b1 0b 28
        E 32 b1 0b 20
        E 48 b1 0b 18
        E 32 b1 0b 30
        E 48 b1 0b 28
        E 48 b1 0b 20
        E 48 b1 0b 18
        E 32 b1 0b 10
        E 48 b1 0b 08
        E 48 81 3a 00
        E 144 b1 0b 30
        E 0 91 33 30
        E 64 b1 0b 28
        E 48 b1 0b 20
        E 32 b1 0b 18
        E 48 b1 0b 10
        E 48 b1 0b 08
        E 32 81 33 00
        E 32 b1 0b 30
        E 0 91 33 30
        E 64 b1 0b 28
        E 32 b1 0b 20
        E 48 b1 0b 18
        E 48 b1 0b 10
        E 32 b1 0b 08
        E 48 81 33 00
        E 32 b1 0b 30
        E 0 91 33 30
        E 48 b1 0b 28
        E 48 b1 0b 20
        E 48 b1 0b 18
        E 32 b1 0b 10
        E 48 b1 0b 08
        E 48 81 33 00
        E 48 b1 0b 30
        E 0 91 33 30
        E 80 b1 0b 28
        E 32 b1 0b 20
        E 48 b1 0b 18
        E 48 b1 0b 10
        E 32 b1 0b 08
        E 48 81 33 00
        E 16 b1 0b 30
        E 0 91 33 30
        E 64 b1 0b 28
        E 48 b1 0b 20
        E 48 b1 0b 18
        E 32 b1 0b 10
        E 48 b1 0b 08
        E 48 81 33 00
        E 112 b1 0b 30
        E 0 91 33 30
        E 48 b1 0b 28
        E 48 b1 0b 20
        E 48 b1 0b 18
        E 32 b1 0b 10
        E 48 b1 0b 08
        E 48 81 33 00
        E 48 b1 0b 30
        E 0 91 33 30
        E 80 b1 0b 28
        E 32 b1 0b 20
        E 48 b1 0b 18
        E 48 b1 0b 10
        E 32 b1 0b 08
        E 48 81 33 00
        E 16 b1 0b 30
        E 0 91 33 30
        E 64 b1 0b 28
        E 48 b1 0b 20
        E 48 b1 0b 18
        E 32 b1 0b 10
        E 48 b1 0b 08
        E 48 81 33 00
        E 16 b1 0b 30
        E 0 91 33 30
        E 64 b1 0b 28
        E 48 b1 0b 20
        E 32 b1 0b 18
        E 48 b1 0b 10
        E 48 b1 0b 08
        E 32 81 33 00
        E 32 b1 0b 30
        E 0 91 33 30
        E 64 b1 0b 28
        E 32 b1 0b 20
        E 48 b1 0b 18
        E 48 b1 0b 10
        E 32 b1 0b 08
        E 48 81 33 00
        E 144 b1 0b 30
        E 0 91 33 30
        E 64 b1 0b 28
        E 48 b1 0b 20
        E 48 b1 0b 18
        E 32 b1 0b 10
        E 48 b1 0b 08
        E 48 81 33 00
        E 16 b1 0b 30
        E 0 91 33 30
        E 64 b1 0b 28
        E 48 b1 0b 20
        E 32 b1 0b 18
        E 48 b1 0b 10
        E 48 b1 0b 08
        E 32 81 33 00
        E 32 b1 0b 30
        E 0 91 33 30
        E 64 b1 0b 28
        E 32 b1 0b 20
        E 48 b1 0b 18
        E 48 b1 0b 10
        E 32 b1 0b 08
        E 48 81 33 00
        E 32 b1 0b 30
        E 0 91 33 30
        E 48 b1 0b 28
        E 48 b1 0b 20
        E 48 b1 0b 18
        E 32 b1 0b 10
        E 48 b1 0b 08
        E 48 81 33 00
        E 48 b1 0b 30
        E 0 91 33 30
        E 80 b1 0b 28
        E 32 b1 0b 20
        E 48 b1 0b 18
        E 48 b1 0b 10
        E 32 b1 0b 08
        E 48 81 33 00
        E 112 b1 0b 30
        E 0 91 38 30
        E 64 b1 0b 28
        E 32 b1 0b 20
        E 48 b1 0b 18
        E 48 b1 0b 10
        E 16 b1 0b 30
        E 64 b1 0b 28
        E 32 b1 0b 30
        E 48 b1 0b 28
        E 48 b1 0b 20
        E 48 b1 0b 18
        E 32 b1 0b 10
        E 32 b1 0b 30
        E 64 b1 0b 28
        E 32 b1 0b 20
        E 48 b1 0b 18
        E 48 b1 0b 10
        E 16 b1 0b 30
        E 64 b1 0b 28
        E 32 b1 0b 30
        E 0 81 38 00
        E 0 91 3a 30
        E 48 b1 0b 28
        E 48 b1 0b 20
        E 48 b1 0b 18
        E 32 b1 0b 10
        E 32 b1 0b 30
        E 64 b1 0b 28
        E 32 b1 0b 20
        E 48 b1 0b 18
        E 48 b1 0b 10
        E 16 b1 0b 30
        E 64 b1 0b 28
        E 48 b1 0b 20
        E 32 b1 0b 18
        E 48 b1 0b 10
        E 48 b1 0b 08
        E 32 81 3a 00
        E 144 b1 0b 30
        E 0 91 27 30
        E 80 b1 0b 28
        E 32 b1 0b 20
        E 48 b1 0b 18
        E 32 b1 0b 30
        E 48 b1 0b 28
        E 48 b1 0b 20
        E 48 b1 0b 18
        E 32 b1 0b 10
        E 32 b1 0b 30
        E 0 81 27 00
        E 0 91 46 30
        E 64 b1 0b 28
        E 32 b1 0b 20
        E 48 b1 0b 18
        E 48 b1 0b 10
        E 32 b1 0b 08
        E 48 81 46 00
        E 32 b1 0b 30
        E 0 91 2c 30
        E 48 b1 0b 28
        E 48 b1 0b 20
        E 48 b1 0b 18
        E 32 b1 0b 10
        E 32 b1 0b 30
        E 64 b1 0b 28
        E 32 b1 0b 20
        E 48 b1 0b 18
        E 48 b1 0b 10
        E 16 b1 0b 30
        E 64 b1 0b 28
        E 32 b1 0b 30
        E 0 81 2c 00
        E 0 91 2e 30
        E 48 b1 0b 28
        E 48 b1 0b 20
        E 48 b1 0b 18
        E 32 b1 0b 10
        E 32 b1 0b 30
        E 0 81 2e 00
        E 0 91 44 30
        E 64 b1 0b 28
        E 32 b1 0b 20
        E 48 b1 0b 18
        E 48 b1 0b 10
        E 16 b1 0b 30
        E 0 81 44 00
        E 0 91 27 30
        E 64 b1 0b 28
        E 48 b1 0b 20
        E 32 b1 0b 18
        E 48 b1 0b 10
        E 16 b1 0b 30
        E 64 b1 0b 28
        E 48 b1 0b 20
        E 48 b1 0b 18
        E 32 b1 0b 10
        E 16 b1 0b 30
        E 0 81 27 00
        E 0 91 46 30
        E 80 b1 0b 28
        E 32 b1 0b 20
        E 48 b1 0b 18
        E 48 b1 0b 10
        E 32 b1 0b 08
        E 48 81 46 00
        E 16 b1 0b 30
        E 0 91 2c 30
        E 64 b1 0b 28
        E 48 b1 0b 20
        E 48 b1 0b 18
        E 32 b1 0b 10
        E 16 b1 0b 30
        E 80 b1 0b 28
        E 32 b1 0b 20
        E 48 b1 0b 18
        E 32 b1 0b 30
        E 48 b1 0b 28
        E 48 b1 0b 20
        E 16 b1 0b 30
        E 0 81 2c 00
        E 0 91 2e 30
        E 64 b1 0b 28
        E 48 b1 0b 20
        E 48 b1 0b 18
        E 32 b1 0b 10
        E 16 b1 0b 30
        E 0 81 2e 00
        E 0 91 44 30
        E 80 b1 0b 28
        E 32 b1 0b 20
        E 48 b1 0b 18
        E 32 b1 0b 30
        E 0 81 44 00
        E 0 91 27 30
        E 48 b1 0b 28
        E 48 b1 0b 20
        E 48 b1 0b 18
        E 32 b1 0b 10
        E 32 b1 0b 30
        E 64 b1 0b 28
        E 32 b1 0b 20
        E 48 b1 0b 18
        E 48 b1 0b 10
        E 16 b1 0b 30
        E 0 81 27 00
        E 0 91 46 30
        E 64 b1 0b 28
        E 48 b1 0b 20
        E 32 b1 0b 18
        E 48 b1 0b 10
        E 48 b1 0b 08
        E 32 81 46 00
        E 32 b1 0b 30
        E 0 91 2c 30
        E 64 b1 0b 28
        E 32 b1 0b 20
        E 48 b1 0b 18
        E 48 b1 0b 10
        E 16 b1 0b 30
        E 64 b1 0b 28
        E 48 b1 0b 20
        E 32 b1 0b 18
        E 48 b1 0b 10
        E 16 b1 0b 30
        E 64 b1 0b 28
        E 32 b1 0b 30
        E 0 81 2c 00
        E 0 91 2e 30
        E 64 b1 0b 28
        E 32 b1 0b 20
        E 48 b1 0b 18
        E 48 b1 0b 10
        E 16 b1 0b 30
        E 0 81 2e 00
        E 0 91 44 30
        E 64 b1 0b 28
        E 48 b1 0b 20
        E 32 b1 0b 18
        E 48 b1 0b 10
        E 16 81 44 00
        E 400 b1 0b 30
        E 0 91 4e 30
        E 48 b1 0b 28
        E 48 b1 0b 20
        E 48 b1 0b 18
        E 32 b1 0b 10
        E 32 b1 0b 30
        E 0 81 4e 00
        E 0 91 4d 30
        E 64 b1 0b 28
        E 32 b1 0b 20
        E 16 b1 0b 30
        E 0 81 4d 00
        E 0 91 4e 30
        E 80 b1 0b 28
        E 32 b1 0b 20
        E 48 b1 0b 18
        E 32 b1 0b 30
        E 0 81 4e 00
        E 0 91 4d 30
        E 48 b1 0b 28
        E 48 b1 0b 20
        E 16 b1 0b 30
        E 0 81 4d 00
        E 0 91 4e 30
        E 64 b1 0b 28
        E 48 b1 0b 20
        E 48 b1 0b 18
        E 32 b1 0b 10
        E 16 b1 0b 30
        E 80 b1 0b 28
        E 32 b1 0b 20
        E 48 b1 0b 18
        E 32 b1 0b 30
        E 0 81 4e 00
        E 0 91 4d 30
        E 48 b1 0b 28
        E 48 b1 0b 20
        E 48 b1 0b 18
        E 32 b1 0b 10
        E 32 b1 0b 30
        E 0 81 4d 00
        E 0 91 27 30
        E 64 b1 0b 28
        E 32 b1 0b 20
        E 48 b1 0b 18
        E 48 b1 0b 10
        E 16 b1 0b 30
        E 64 b1 0b 28
        E 48 b1 0b 20
        E 32 b1 0b 18
        E 48 b1 0b 10
        E 16 b1 0b 30
        E 0 81 27 00
        E 0 91 46 30
        E 64 b1 0b 28
        E 48 b1 0b 20
        E 48 b1 0b 18
        E 32 b1 0b 10
        E 48 b1 0b 08
        E 48 81 46 00
        E 16 b1 0b 30
        E 0 91 2c 30
        E 64 b1 0b 28
        E 48 b1 0b 20
        E 32 b1 0b 18
        E 48 b1 0b 10
        E 16 b1 0b 30
        E 64 b1 0b 28
        E 48 b1 0b 20
        E 48 b1 0b 18
        E 32 b1 0b 10
        E 16 b1 0b 30
        E 80 b1 0b 28
        E 16 b1 0b 30
        E 0 81 2c 00
        E 0 91 2e 30
        E 64 b1 0b 28
        E 48 b1 0b 20
        E 32 b1 0b 18
        E 48 b1 0b 10
        E 16 b1 0b 30
        E 0 81 2e 00
        E 0 91 44 30
        E 64 b1 0b 28
        E 48 b1 0b 20
        E 48 b1 0b 18
        E 32 b1 0b 10
        E 16 b1 0b 30
        E 0 81 44 00
        E 0 91 27 30
        E 80 b1 0b 28
        E 32 b1 0b 20
        E 48 b1 0b 18
        E 32 b1 0b 30
        E 48 b1 0b 28
        E 48 b1 0b 20
        E 48 b1 0b 18
        E 32 b1 0b 10
        E 32 b1 0b 30
        E 0 81 27 00
        E 0 91 46 30
        E 64 b1 0b 28
        E 32 b1 0b 20
        E 48 b1 0b 18
        E 48 b1 0b 10
        E 32 b1 0b 08
        E 48 81 46 00
        E 32 b1 0b 30
        E 0 91 2c 30
        E 48 b1 0b 28
        E 48 b1 0b 20
        E 48 b1 0b 18
        E 32 b1 0b 10
        E 32 b1 0b 30
        E 64 b1 0b 28
        E 32 b1 0b 20
        E 48 b1 0b 18
        E 48 b1 0b 10
        E 16 b1 0b 30
        E 64 b1 0b 28
        E 32 b1 0b 30
        E 0 81 2c 00
        E 0 91 2e 30
        E 48 b1 0b 28
        E 48 b1 0b 20
        E 48 b1 0b 18
        E 32 b1 0b 10
        E 32 b1 0b 30
        E 0 81 2e 00
        E 0 91 44 30
        E 64 b1 0b 28
        E 32 b1 0b 20
        E 48 b1 0b 18
        E 48 b1 0b 10
        E 16 b1 0b 30
        E 0 81 44 00
        E 0 91 27 30
        E 64 b1 0b 28
        E 48 b1 0b 20
        E 32 b1 0b 18
        E 48 b1 0b 10
        E 16 b1 0b 30
        E 64 b1 0b 28
        E 48 b1 0b 20
        E 48 b1 0b 18
        E 32 b1 0b 10
        E 16 b1 0b 30
        E 0 81 27 00
        E 0 91 46 30
        E 80 b1 0b 28
        E 32 b1 0b 20
        E 48 b1 0b 18
        E 48 b1 0b 10
        E 32 b1 0b 08
        E 48 81 46 00
        E 16 b1 0b 30
        E 0 91 2c 30
        E 64 b1 0b 28
        E 48 b1 0b 20
        E 48 b1 0b 18
        E 32 b1 0b 10
        E 16 b1 0b 30
        E 80 b1 0b 28
        E 32 b1 0b 20
        E 48 b1 0b 18
        E 32 b1 0b 30
        E 48 b1 0b 28
        E 48 b1 0b 20
        E 16 b1 0b 30
        E 0 81 2c 00
        E 0 91 2e 30
        E 64 b1 0b 28
        E 48 b1 0b 20
        E 48 b1 0b 18
        E 32 b1 0b 10
        E 16 b1 0b 30
        E 0 81 2e 00
        E 0 91 44 30
        E 80 b1 0b 28
        E 32 b1 0b 20
        E 48 b1 0b 18
        E 32 81 44 00
        E 416 b1 0b 30
        E 0 91 4e 30
        E 64 b1 0b 28
        E 48 b1 0b 20
        E 32 b1 0b 18
        E 48 b1 0b 10
        E 16 b1 0b 30
        E 0 81 4e 00
        E 0 91 4d 30
        E 64 b1 0b 28
        E 32 b1 0b 30
        E 0 81 4d 00
        E 0 91 4e 30
        E 64 b1 0b 28
        E 32 b1 0b 20
        E 48 b1 0b 18
        E 48 b1 0b 10
        E 16 b1 0b 30
        E 0 81 4e 00
        E 0 91 4d 30
        E 64 b1 0b 28
        E 32 b1 0b 30
        E 0 81 4d 00
        E 0 91 4e 30
        E 48 b1 0b 28
        E 48 b1 0b 20
        E 48 b1 0b 18
        E 32 b1 0b 10
        E 32 b1 0b 30
        E 64 b1 0b 28
        E 32 b1 0b 20
        E 48 b1 0b 18
        E 48 b1 0b 10
        E 16 b1 0b 30
        E 0 81 4e 00
        E 0 91 4d 30
        E 64 b1 0b 28
        E 48 b1 0b 20
        E 32 b1 0b 18
        E 48 b1 0b 10
        E 16 81 4d 00
        E 48 b1 0b 20
        E 0 91 3f 20
        E 96 81 3f 00
        E 0 91 41 20
        E 48 b1 0b 18
        E 64 b1 0b 20
        E 0 81 41 00
        E 0 91 42 20
        E 64 b1 0b 18
        E 32 b1 0b 20
        E 0 81 42 00
        E 0 91 41 20
        E 96 b1 0b 18
        E 16 b1 0b 20
        E 0 81 41 00
        E 0 91 42 20
        E 96 81 42 00
        E 0 91 41 20
        E 64 b1 0b 18
        E 32 b1 0b 20
        E 0 81 41 00
        E 0 91 3f 20
        E 96 b1 0b 18
        E 16 b1 0b 20
        E 0 81 3f 00
        E 0 91 41 20
        E 96 81 41 00
        E 0 91 42 20
        E 64 b1 0b 18
        E 48 b1 0b 20
        E 0 81 42 00
        E 0 91 41 20
        E 80 b1 0b 18
        E 16 b1 0b 20
        E 0 81 41 00
        E 0 91 42 20
        E 96 81 42 00
        E 0 91 41 20
        E 16 81 41 00
        E 0 ff 2f 00
      >
    >
  >
  <TRACK {62D5725B-C759-4E32-9C4E-A9BD158C246D}
    NAME "NES - Triangle [ch2]"
    PEAKCOL 16744192
    BEAT -1
    AUTOMODE 0
    PANLAWFLAGS 3
    VOLPAN 1 0 -1 -1 1
    MUTESOLO 0 0 0
    IPHASE 0
    PLAYOFFS 0 1
    ISBUS 0 0
    BUSCOMP 0 0 0 0 0
    SHOWINMIX 1 0.6667 0.5 1 0.5 0 0 0
    FIXEDLANES 9 0 0 0 0
    SEL 0
    REC 0 5088 1 0 0 0 0 0
    VU 2
    TRACKHEIGHT 0 0 0 0 0 0 0
    INQ 0 0 0 0.5 100 0 0 100
    NCHAN 2
    FX 1
    TRACKID {62D5725B-C759-4E32-9C4E-A9BD158C246D}
    PERF 0
    MIDIOUT -1
    MAINSEND 1 0
    <FXCHAIN
      WNDRECT 24 52 700 560
      SHOW 0
      LASTSEL 0
      DOCKED 0
      BYPASS 0 0 0
      <JS "ReapNES Studio/ReapNES_Console.jsfx" ""
        2 15 1 10 80 10 100 2 1 15 1 5 60 10 80 1 1 0 50 0 0 15 1 0 100 0 0 0.500000 0.500000 0.400000 0.300000 0.800000 2 1 0 0 0 0 - - - - - - - - - - - - - - - - - - - - - - - - - -
      >
      FLOATPOS 0 0 0 0
      FXID {9389929F-8373-4EAD-BE48-D4860EF8D954}
      WAK 0 0
    >
    <ITEM
      POSITION 0
      LENGTH 83.98134
      LOOP 0
      ALLTAKES 0
      FADEIN 0 0 0 0 0 0 0
      FADEOUT 0 0 0 0 0 0 0
      MUTE 0 0
      SEL 0
      IGUID {A66CF3E7-F5A5-4023-9C2D-DF39546A419F}
      <SOURCE MIDI
        HASDATA 1 480 QN
        CCINTERP 32
        E 0 c2 26
        E 48 b2 0b 7f
        E 0 92 27 7f
        E 400 82 27 00
        E 0 b2 0b 7f
        E 0 92 35 7f
        E 304 82 35 00
        E 0 b2 0b 7f
        E 0 92 2c 7f
        E 512 82 2c 00
        E 0 b2 0b 7f
        E 0 92 2e 7f
        E 208 82 2e 00
        E 0 b2 0b 7f
        E 0 92 35 7f
        E 208 82 35 00
        E 0 b2 0b 7f
        E 0 92 27 7f
        E 416 82 27 00
        E 0 b2 0b 7f
        E 0 92 35 7f
        E 304 82 35 00
        E 0 b2 0b 7f
        E 0 92 2c 7f
        E 512 82 2c 00
        E 0 b2 0b 7f
        E 0 92 2e 7f
        E 208 82 2e 00
        E 0 b2 0b 7f
        E 0 92 35 7f
        E 192 82 35 00
        E 0 b2 0b 7f
        E 0 92 27 7f
        E 416 82 27 00
        E 0 b2 0b 7f
        E 0 92 35 7f
        E 304 82 35 00
        E 0 b2 0b 7f
        E 0 92 2c 7f
        E 512 82 2c 00
        E 0 b2 0b 7f
        E 0 92 2e 7f
        E 208 82 2e 00
        E 0 b2 0b 7f
        E 0 92 35 7f
        E 208 82 35 00
        E 0 b2 0b 7f
        E 0 92 27 7f
        E 400 82 27 00
        E 0 b2 0b 7f
        E 0 92 35 7f
        E 320 82 35 00
        E 0 b2 0b 7f
        E 0 92 2c 7f
        E 512 82 2c 00
        E 0 b2 0b 7f
        E 0 92 2e 7f
        E 192 82 2e 00
        E 0 b2 0b 7f
        E 0 92 35 7f
        E 208 82 35 00
        E 0 b2 0b 7f
        E 0 92 27 7f
        E 208 82 27 00
        E 0 b2 0b 7f
        E 0 92 2e 7f
        E 208 82 2e 00
        E 0 b2 0b 7f
        E 0 92 27 7f
        E 208 82 27 00
        E 0 b2 0b 7f
        E 0 92 2e 7f
        E 192 82 2e 00
        E 0 b2 0b 7f
        E 0 92 27 7f
        E 208 82 27 00
        E 0 b2 0b 7f
        E 0 92 2e 7f
        E 208 82 2e 00
        E 0 b2 0b 7f
        E 0 92 27 7f
        E 208 82 27 00
        E 0 b2 0b 7f
        E 0 92 2e 7f
        E 208 82 2e 00
        E 0 b2 0b 7f
        E 0 92 27 7f
        E 192 82 27 00
        E 0 b2 0b 7f
        E 0 92 2e 7f
        E 208 82 2e 00
        E 0 b2 0b 7f
        E 0 92 27 7f
        E 208 82 27 00
        E 0 b2 0b 7f
        E 0 92 2e 7f
        E 208 82 2e 00
        E 0 b2 0b 7f
        E 0 92 27 7f
        E 208 82 27 00
        E 0 b2 0b 7f
        E 0 92 2e 7f
        E 192 82 2e 00
        E 0 b2 0b 7f
        E 0 92 27 7f
        E 208 82 27 00
        E 0 b2 0b 7f
        E 0 92 2e 7f
        E 208 82 2e 00
        E 0 b2 0b 7f
        E 0 92 27 7f
        E 208 82 27 00
        E 0 b2 0b 7f
        E 0 92 2e 7f
        E 208 82 2e 00
        E 0 b2 0b 7f
        E 0 92 27 7f
        E 192 82 27 00
        E 0 b2 0b 7f
        E 0 92 2e 7f
        E 208 82 2e 00
        E 0 b2 0b 7f
        E 0 92 27 7f
        E 208 82 27 00
        E 0 b2 0b 7f
        E 0 92 2e 7f
        E 208 82 2e 00
        E 0 b2 0b 7f
        E 0 92 27 7f
        E 208 82 27 00
        E 0 b2 0b 7f
        E 0 92 2e 7f
        E 192 82 2e 00
        E 0 b2 0b 7f
        E 0 92 3a 7f
        E 320 82 3a 00
        E 0 b2 0b 7f
        E 0 92 38 7f
        E 304 82 38 00
        E 0 b2 0b 7f
        E 0 92 3a 7f
        E 304 82 3a 00
        E 0 b2 0b 7f
        E 0 92 38 7f
        E 304 82 38 00
        E 0 b2 0b 7f
        E 0 92 3a 7f
        E 416 82 3a 00
        E 0 b2 0b 7f
        E 0 92 27 7f
        E 208 82 27 00
        E 0 b2 0b 7f
        E 0 92 2e 7f
        E 192 82 2e 00
        E 0 b2 0b 7f
        E 0 92 27 7f
        E 208 82 27 00
        E 0 b2 0b 7f
        E 0 92 2e 7f
        E 208 82 2e 00
        E 0 b2 0b 7f
        E 0 92 27 7f
        E 208 82 27 00
        E 0 b2 0b 7f
        E 0 92 2e 7f
        E 208 82 2e 00
        E 0 b2 0b 7f
        E 0 92 27 7f
        E 192 82 27 00
        E 0 b2 0b 7f
        E 0 92 2e 7f
        E 208 82 2e 00
        E 0 b2 0b 7f
        E 0 92 27 7f
        E 208 82 27 00
        E 0 b2 0b 7f
        E 0 92 2e 7f
        E 208 82 2e 00
        E 0 b2 0b 7f
        E 0 92 27 7f
        E 208 82 27 00
        E 0 b2 0b 7f
        E 0 92 2e 7f
        E 192 82 2e 00
        E 0 b2 0b 7f
        E 0 92 27 7f
        E 208 82 27 00
        E 0 b2 0b 7f
        E 0 92 2e 7f
        E 208 82 2e 00
        E 0 b2 0b 7f
        E 0 92 27 7f
        E 208 82 27 00
        E 0 b2 0b 7f
        E 0 92 2e 7f
        E 208 82 2e 00
        E 0 b2 0b 7f
        E 0 92 27 7f
        E 192 82 27 00
        E 0 b2 0b 7f
        E 0 92 2e 7f
        E 208 82 2e 00
        E 0 b2 0b 7f
        E 0 92 27 7f
        E 208 82 27 00
        E 0 b2 0b 7f
        E 0 92 2e 7f
        E 208 82 2e 00
        E 0 b2 0b 7f
        E 0 92 27 7f
        E 208 82 27 00
        E 0 b2 0b 7f
        E 0 92 2e 7f
        E 192 82 2e 00
        E 0 b2 0b 7f
        E 0 92 27 7f
        E 208 82 27 00
        E 0 b2 0b 7f
        E 0 92 2e 7f
        E 208 82 2e 00
        E 0 b2 0b 7f
        E 0 92 3a 7f
        E 304 82 3a 00
        E 0 b2 0b 7f
        E 0 92 38 7f
        E 304 82 38 00
        E 0 b2 0b 7f
        E 0 92 3a 7f
        E 320 82 3a 00
        E 0 b2 0b 7f
        E 0 92 38 7f
        E 304 82 38 00
        E 0 b2 0b 7f
        E 0 92 3a 7f
        E 400 82 3a 00
        E 0 b2 0b 7f
        E 0 92 33 7f
        E 4928 82 33 00
        E 0 b2 0b 7f
        E 0 92 2c 7f
        E 816 82 2c 00
        E 0 b2 0b 7f
        E 0 92 2e 7f
        E 816 82 2e 00
        E 0 b2 0b 7f
        E 0 92 33 7f
        E 4912 82 33 00
        E 0 b2 0b 7f
        E 0 92 2c 7f
        E 816 82 2c 00
        E 0 b2 0b 7f
        E 0 92 2e 7f
        E 832 82 2e 00
        E 0 b2 0b 7f
        E 0 92 27 7f
        E 400 82 27 00
        E 0 b2 0b 7f
        E 0 92 35 7f
        E 304 82 35 00
        E 0 b2 0b 7f
        E 0 92 2c 7f
        E 512 82 2c 00
        E 0 b2 0b 7f
        E 0 92 2e 7f
        E 208 82 2e 00
        E 0 b2 0b 7f
        E 0 92 35 7f
        E 208 82 35 00
        E 0 b2 0b 7f
        E 0 92 27 7f
        E 416 82 27 00
        E 0 b2 0b 7f
        E 0 92 35 7f
        E 304 82 35 00
        E 0 b2 0b 7f
        E 0 92 2c 7f
        E 512 82 2c 00
        E 0 b2 0b 7f
        E 0 92 2e 7f
        E 208 82 2e 00
        E 0 b2 0b 7f
        E 0 92 35 7f
        E 192 82 35 00
        E 0 b2 0b 7f
        E 0 92 27 7f
        E 416 82 27 00
        E 0 b2 0b 7f
        E 0 92 35 7f
        E 304 82 35 00
        E 0 b2 0b 7f
        E 0 92 2c 7f
        E 512 82 2c 00
        E 0 b2 0b 7f
        E 0 92 2e 7f
        E 208 82 2e 00
        E 0 b2 0b 7f
        E 0 92 35 7f
        E 208 82 35 00
        E 0 b2 0b 7f
        E 0 92 27 7f
        E 2048 82 27 00
        E 0 b2 0b 7f
        E 0 92 35 7f
        E 304 82 35 00
        E 0 b2 0b 7f
        E 0 92 2c 7f
        E 512 82 2c 00
        E 0 b2 0b 7f
        E 0 92 2e 7f
        E 208 82 2e 00
        E 0 b2 0b 7f
        E 0 92 35 7f
        E 208 82 35 00
        E 0 b2 0b 7f
        E 0 92 27 7f
        E 400 82 27 00
        E 0 b2 0b 7f
        E 0 92 35 7f
        E 304 82 35 00
        E 0 b2 0b 7f
        E 0 92 2c 7f
        E 512 82 2c 00
        E 0 b2 0b 7f
        E 0 92 2e 7f
        E 208 82 2e 00
        E 0 b2 0b 7f
        E 0 92 35 7f
        E 208 82 35 00
        E 0 b2 0b 7f
        E 0 92 27 7f
        E 416 82 27 00
        E 0 b2 0b 7f
        E 0 92 35 7f
        E 304 82 35 00
        E 0 b2 0b 7f
        E 0 92 2c 7f
        E 512 82 2c 00
        E 0 b2 0b 7f
        E 0 92 2e 7f
        E 208 82 2e 00
        E 0 b2 0b 7f
        E 0 92 35 7f
        E 192 82 35 00
        E 0 b2 0b 7f
        E 0 92 27 7f
        E 1856 82 27 00
        E 0 b2 0b 7f
        E 0 92 2e 7f
        E 192 82 2e 00
        E 0 b2 0b 7f
        E 0 92 27 7f
        E 208 82 27 00
        E 0 b2 0b 7f
        E 0 92 2e 7f
        E 208 82 2e 00
        E 0 b2 0b 7f
        E 0 92 27 7f
        E 208 82 27 00
        E 0 b2 0b 7f
        E 0 92 2e 7f
        E 208 82 2e 00
        E 0 b2 0b 7f
        E 0 92 27 7f
        E 192 82 27 00
        E 0 b2 0b 7f
        E 0 92 2e 7f
        E 208 82 2e 00
        E 0 b2 0b 7f
        E 0 92 27 7f
        E 208 82 27 00
        E 0 b2 0b 7f
        E 0 92 2e 7f
        E 208 82 2e 00
        E 0 b2 0b 7f
        E 0 92 27 7f
        E 208 82 27 00
        E 0 b2 0b 7f
        E 0 92 2e 7f
        E 192 82 2e 00
        E 0 b2 0b 7f
        E 0 92 27 7f
        E 208 82 27 00
        E 0 b2 0b 7f
        E 0 92 2e 7f
        E 208 82 2e 00
        E 0 b2 0b 7f
        E 0 92 27 7f
        E 208 82 27 00
        E 0 b2 0b 7f
        E 0 92 2e 7f
        E 208 82 2e 00
        E 0 b2 0b 7f
        E 0 92 27 7f
        E 192 82 27 00
        E 0 b2 0b 7f
        E 0 92 2e 7f
        E 208 82 2e 00
        E 0 b2 0b 7f
        E 0 92 27 7f
        E 208 82 27 00
        E 0 b2 0b 7f
        E 0 92 2e 7f
        E 208 82 2e 00
        E 0 b2 0b 7f
        E 0 92 27 7f
        E 208 82 27 00
        E 0 b2 0b 7f
        E 0 92 2e 7f
        E 192 82 2e 00
        E 0 b2 0b 7f
        E 0 92 27 7f
        E 208 82 27 00
        E 0 b2 0b 7f
        E 0 92 2e 7f
        E 208 82 2e 00
        E 0 b2 0b 7f
        E 0 92 3a 7f
        E 304 82 3a 00
        E 0 b2 0b 7f
        E 0 92 38 7f
        E 304 82 38 00
        E 0 b2 0b 7f
        E 0 92 3a 7f
        E 320 82 3a 00
        E 0 b2 0b 7f
        E 0 92 38 7f
        E 304 82 38 00
        E 0 b2 0b 7f
        E 0 92 3a 7f
        E 400 82 3a 00
        E 0 b2 0b 7f
        E 0 92 27 7f
        E 208 82 27 00
        E 0 b2 0b 7f
        E 0 92 2e 7f
        E 208 82 2e 00
        E 0 b2 0b 7f
        E 0 92 27 7f
        E 208 82 27 00
        E 0 b2 0b 7f
        E 0 92 2e 7f
        E 208 82 2e 00
        E 0 b2 0b 7f
        E 0 92 27 7f
        E 192 82 27 00
        E 0 b2 0b 7f
        E 0 92 2e 7f
        E 208 82 2e 00
        E 0 b2 0b 7f
        E 0 92 27 7f
        E 208 82 27 00
        E 0 b2 0b 7f
        E 0 92 2e 7f
        E 208 82 2e 00
        E 0 b2 0b 7f
        E 0 92 27 7f
        E 208 82 27 00
        E 0 b2 0b 7f
        E 0 92 2e 7f
        E 192 82 2e 00
        E 0 b2 0b 7f
        E 0 92 27 7f
        E 208 82 27 00
        E 0 b2 0b 7f
        E 0 92 2e 7f
        E 208 82 2e 00
        E 0 b2 0b 7f
        E 0 92 27 7f
        E 208 82 27 00
        E 0 b2 0b 7f
        E 0 92 2e 7f
        E 208 82 2e 00
        E 0 b2 0b 7f
        E 0 92 27 7f
        E 192 82 27 00
        E 0 b2 0b 7f
        E 0 92 2e 7f
        E 208 82 2e 00
        E 0 b2 0b 7f
        E 0 92 27 7f
        E 208 82 27 00
        E 0 b2 0b 7f
        E 0 92 2e 7f
        E 208 82 2e 00
        E 0 b2 0b 7f
        E 0 92 27 7f
        E 208 82 27 00
        E 0 b2 0b 7f
        E 0 92 2e 7f
        E 192 82 2e 00
        E 0 b2 0b 7f
        E 0 92 27 7f
        E 208 82 27 00
        E 0 b2 0b 7f
        E 0 92 2e 7f
        E 208 82 2e 00
        E 0 b2 0b 7f
        E 0 92 27 7f
        E 208 82 27 00
        E 0 b2 0b 7f
        E 0 92 2e 7f
        E 208 82 2e 00
        E 0 b2 0b 7f
        E 0 92 3a 7f
        E 304 82 3a 00
        E 0 b2 0b 7f
        E 0 92 38 7f
        E 304 82 38 00
        E 0 b2 0b 7f
        E 0 92 3a 7f
        E 304 82 3a 00
        E 0 b2 0b 7f
        E 0 92 38 7f
        E 304 82 38 00
        E 0 b2 0b 7f
        E 0 92 3a 7f
        E 416 82 3a 00
        E 0 b2 0b 7f
        E 0 92 33 7f
        E 4912 82 33 00
        E 0 b2 0b 7f
        E 0 92 2c 7f
        E 816 82 2c 00
        E 0 b2 0b 7f
        E 0 92 2e 7f
        E 832 82 2e 00
        E 0 b2 0b 7f
        E 0 92 33 7f
        E 4912 82 33 00
        E 0 b2 0b 7f
        E 0 92 2c 7f
        E 816 82 2c 00
        E 0 b2 0b 7f
        E 0 92 2e 7f
        E 816 82 2e 00
        E 0 b2 0b 7f
        E 0 92 27 7f
        E 416 82 27 00
        E 0 b2 0b 7f
        E 0 92 35 7f
        E 304 82 35 00
        E 0 b2 0b 7f
        E 0 92 2c 7f
        E 512 82 2c 00
        E 0 b2 0b 7f
        E 0 92 2e 7f
        E 208 82 2e 00
        E 0 b2 0b 7f
        E 0 92 35 7f
        E 208 82 35 00
        E 0 b2 0b 7f
        E 0 92 27 7f
        E 400 82 27 00
        E 0 b2 0b 7f
        E 0 92 35 7f
        E 304 82 35 00
        E 0 b2 0b 7f
        E 0 92 2c 7f
        E 512 82 2c 00
        E 0 b2 0b 7f
        E 0 92 2e 7f
        E 208 82 2e 00
        E 0 b2 0b 7f
        E 0 92 35 7f
        E 208 82 35 00
        E 0 b2 0b 7f
        E 0 92 27 7f
        E 416 82 27 00
        E 0 b2 0b 7f
        E 0 92 35 7f
        E 304 82 35 00
        E 0 b2 0b 7f
        E 0 92 2c 7f
        E 512 82 2c 00
        E 0 b2 0b 7f
        E 0 92 2e 7f
        E 208 82 2e 00
        E 0 b2 0b 7f
        E 0 92 35 7f
        E 192 82 35 00
        E 0 b2 0b 7f
        E 0 92 27 7f
        E 2048 82 27 00
        E 0 b2 0b 7f
        E 0 92 35 7f
        E 320 82 35 00
        E 0 b2 0b 7f
        E 0 92 2c 7f
        E 512 82 2c 00
        E 0 b2 0b 7f
        E 0 92 2e 7f
        E 192 82 2e 00
        E 0 b2 0b 7f
        E 0 92 35 7f
        E 208 82 35 00
        E 0 b2 0b 7f
        E 0 92 27 7f
        E 416 82 27 00
        E 0 b2 0b 7f
        E 0 92 35 7f
        E 304 82 35 00
        E 0 b2 0b 7f
        E 0 92 2c 7f
        E 512 82 2c 00
        E 0 b2 0b 7f
        E 0 92 2e 7f
        E 208 82 2e 00
        E 0 b2 0b 7f
        E 0 92 35 7f
        E 208 82 35 00
        E 0 b2 0b 7f
        E 0 92 27 7f
        E 400 82 27 00
        E 0 b2 0b 7f
        E 0 92 35 7f
        E 304 82 35 00
        E 0 b2 0b 7f
        E 0 92 2c 7f
        E 512 82 2c 00
        E 0 b2 0b 7f
        E 0 92 2e 7f
        E 208 82 2e 00
        E 0 b2 0b 7f
        E 0 92 35 7f
        E 208 82 35 00
        E 0 b2 0b 7f
        E 0 92 27 7f
        E 1840 82 27 00
        E 0 b2 0b 7f
        E 0 92 2e 7f
        E 208 82 2e 00
        E 0 b2 0b 7f
        E 0 92 27 7f
        E 208 82 27 00
        E 0 b2 0b 7f
        E 0 92 2e 7f
        E 208 82 2e 00
        E 0 b2 0b 7f
        E 0 92 27 7f
        E 192 82 27 00
        E 0 b2 0b 7f
        E 0 92 2e 7f
        E 144 82 2e 00
        E 0 ff 2f 00
      >
    >
  >
  <TRACK {D100E45E-2055-4A6E-8456-E6541BA9D4C3}
    NAME "NES - Noise / Drums [ch3]"
    PEAKCOL 11184810
    BEAT -1
    AUTOMODE 0
    PANLAWFLAGS 3
    VOLPAN 1 0 -1 -1 1
    MUTESOLO 0 0 0
    IPHASE 0
    PLAYOFFS 0 1
    ISBUS 0 0
    BUSCOMP 0 0 0 0 0
    SHOWINMIX 1 0.6667 0.5 1 0.5 0 0 0
    FIXEDLANES 9 0 0 0 0
    SEL 0
    REC 0 5088 1 0 0 0 0 0
    VU 2
    TRACKHEIGHT 0 0 0 0 0 0 0
    INQ 0 0 0 0.5 100 0 0 100
    NCHAN 2
    FX 1
    TRACKID {D100E45E-2055-4A6E-8456-E6541BA9D4C3}
    PERF 0
    MIDIOUT -1
    MAINSEND 1 0
    <FXCHAIN
      WNDRECT 24 52 700 560
      SHOW 0
      LASTSEL 0
      DOCKED 0
      BYPASS 0 0 0
      <JS "ReapNES Studio/ReapNES_Console.jsfx" ""
        2 15 1 10 80 10 100 2 1 15 1 5 60 10 80 1 1 0 50 0 0 15 1 0 100 0 0 0.500000 0.500000 0.400000 0.300000 0.800000 3 1 0 0 0 0 - - - - - - - - - - - - - - - - - - - - - - - - - -
      >
      FLOATPOS 0 0 0 0
      FXID {400EEF2D-0A15-48EC-BF9A-FAC4E44F0538}
      WAK 0 0
    >
    <ITEM
      POSITION 0
      LENGTH 83.98134
      LOOP 0
      ALLTAKES 0
      FADEIN 0 0 0 0 0 0 0
      FADEOUT 0 0 0 0 0 0 0
      MUTE 0 0
      SEL 0
      IGUID {F714F293-A45A-4BD4-8C9B-1558B7743056}
      <SOURCE MIDI
        HASDATA 1 480 QN
        CCINTERP 32
        E 16 93 2a 50
        E 86384 83 2a 00
        E 0 ff 2f 00
      >
    >
  >
>