<REAPER_PROJECT 0.1 "7.27/win64" 1707000000
  <NOTES 0 2
    |ReapNES Studio Project
    |MIDI Import - Battletoads_12_Song_12_v1
  >
  RIPPLE 0
  GROUPOVERRIDE 0 0 0
  AUTOXFADE 129
  ENVATTACH 3
  POOLEDENVATTACH 0
  MIXERUIFLAGS 11 48
  ENVFADESZ10 40
  PEAKGAIN 1
  FEEDBACK 0
  PANLAW 1
  PROJOFFS 0 0 0
  MAXPROJLEN 0 0
  GRID 3199 8 1 8 1 0 0 0
  TIMEMODE 1 5 -1 30 0 0 -1
  VIDEO_CONFIG 0 0 65792
  PANMODE 3
  PANLAWFLAGS 3
  CURSOR 0
  ZOOM 100 0 0
  VZOOMEX 6 0
  USE_REC_CFG 0
  RECMODE 1
  SMPTESYNC 0 30 100 40 1000 300 0 0 1 0 0
  LOOP 0
  LOOPGRAN 0 4
  RECORD_PATH "Media" ""
  <RECORD_CFG
    ZXZhdxgAAQ==
  >
  <APPLYFX_CFG
  >
  RENDER_FILE ""
  RENDER_PATTERN ""
  RENDER_FMT 0 2 0
  RENDER_1X 0
  RENDER_RANGE 1 0 0 18 1000
  RENDER_RESAMPLE 3 0 1
  RENDER_ADDTOPROJ 0
  RENDER_STEMS 0
  RENDER_DITHER 0
  TIMELOCKMODE 1
  TEMPOENVLOCKMODE 1
  ITEMMIX 1
  DEFPITCHMODE 589824 0
  TAKELANE 1
  SAMPLERATE 44100 0 0
  <RENDER_CFG
    ZXZhdxgAAQ==
  >
  LOCK 1
  <METRONOME 6 2
    VOL 0.25 0.125
    BEATLEN 4
    FREQ 1760 880 1
    SAMPLES "" ""
    SPLIGNORE 0 0
    SPLDEF 2 660 "" 0
    SPLDEF 3 440 "" 0
    PATTERN 0 169
    PATTERNSTR ABBB
    MULT 1
  >
  GLOBAL_AUTO -1
  TEMPO 128.59999614200012 4 4
  PLAYRATE 1 0 0.25 4
  SELECTION 0 0
  SELECTION2 0 0
  MASTERAUTOMODE 0
  MASTERTRACKHEIGHT 0 0
  MASTERPEAKCOL 16576
  MASTERMUTESOLO 0
  MASTERTRACKVIEW 0 0.6667 0.5 0.5 0 0 0 0 0 0 0 0 0 0
  MASTERHWOUT 0 0 1 0 0 0 0 -1
  MASTER_NCH 2 2
  MASTER_VOLUME 1 0 -1 -1 1
  MASTER_PANMODE 3
  MASTER_PANLAWFLAGS 3
  MASTER_FX 1
  MASTER_SEL 0
  <MASTERPLAYSPEEDENV
    EGUID {0B761F8B-06E9-47BA-AEC4-477F58283F1C}
    ACT 0 -1
    VIS 0 1 1
    LANEHEIGHT 0 0
    ARM 0
    DEFSHAPE 0 -1 -1
  >
  <TEMPOENVEX
    EGUID {4EDF73FA-1F73-4770-A56D-55A7C0B843AA}
    ACT 1 -1
    VIS 1 0 1
    LANEHEIGHT 0 0
    ARM 0
    DEFSHAPE 1 -1 -1
  >
  <PROJBAY
  >
  <TRACK {6E8F8A9A-2BD9-4C19-8A38-177B31775DC9}
    NAME "NES - Pulse 1 [ch0]"
    PEAKCOL 16576606
    BEAT -1
    AUTOMODE 0
    PANLAWFLAGS 3
    VOLPAN 1 0 -1 -1 1
    MUTESOLO 0 0 0
    IPHASE 0
    PLAYOFFS 0 1
    ISBUS 0 0
    BUSCOMP 0 0 0 0 0
    SHOWINMIX 1 0.6667 0.5 1 0.5 0 0 0
    FIXEDLANES 9 0 0 0 0
    SEL 1
    REC 0 5088 1 0 0 0 0 0
    VU 2
    TRACKHEIGHT 0 0 0 0 0 0 0
    INQ 0 0 0 0.5 100 0 0 100
    NCHAN 2
    FX 1
    TRACKID {6E8F8A9A-2BD9-4C19-8A38-177B31775DC9}
    PERF 0
    MIDIOUT -1
    MAINSEND 1 0
    <FXCHAIN
      WNDRECT 24 52 700 560
      SHOW 0
      LASTSEL 0
      DOCKED 0
      BYPASS 0 0 0
      <JS "ReapNES Studio/ReapNES_Console.jsfx" ""
        2 15 1 10 80 10 100 2 1 15 1 5 60 10 80 1 1 0 50 0 0 15 1 0 100 0 0 0.500000 0.500000 0.400000 0.300000 0.800000 0 1 0 0 0 0 - - - - - - - - - - - - - - - - - - - - - - - - - -
      >
      FLOATPOS 0 0 0 0
      FXID {D4EDD6A9-273C-42E7-8EEA-85589DDD2AD5}
      WAK 0 0
    >
    <ITEM
      POSITION 0
      LENGTH 83.98134
      LOOP 0
      ALLTAKES 0
      FADEIN 0 0 0 0 0 0 0
      FADEOUT 0 0 0 0 0 0 0
      MUTE 0 0
      SEL 0
      IGUID {936CB715-C0DB-4C2B-95DA-EC0CA119F595}
      <SOURCE MIDI
        HASDATA 1 480 QN
        CCINTERP 32
        E 0 c0 50
        E 16 b0 0c 20
        E 0 b0 0b 28
        E 0 90 28 28
        E 16 b0 0b 20
        E 32 b0 0b 18
        E 32 b0 0b 10
        E 32 b0 0b 08
        E 16 b0 0b 28
        E 16 b0 0b 20
        E 32 b0 0b 18
        E 32 b0 0b 10
        E 32 b0 0b 28
        E 16 b0 0b 20
        E 32 b0 0b 18
        E 32 b0 0b 10
        E 32 b0 0b 08
        E 16 b0 0b 28
        E 16 b0 0b 20
        E 32 b0 0b 18
        E 32 b0 0b 10
        E 32 b0 0b 28
        E 16 b0 0b 20
        E 32 b0 0b 18
        E 32 b0 0b 10
        E 32 b0 0b 08
        E 16 b0 0b 28
        E 16 b0 0b 20
        E 32 b0 0b 18
        E 32 b0 0b 10
        E 32 b0 0b 08
        E 16 b0 0b 28
        E 32 b0 0b 20
        E 32 b0 0b 18
        E 32 b0 0b 10
        E 16 b0 0c 40
        E 0 b0 0b 38
        E 16 b0 0b 30
        E 32 b0 0b 28
        E 32 b0 0b 20
        E 32 b0 0b 18
        E 48 b0 0b 10
        E 32 b0 0b 08
        E 32 80 28 00
        E 16 b0 0b 38
        E 0 90 28 38
        E 16 b0 0b 30
        E 32 b0 0b 28
        E 32 b0 0b 20
        E 32 b0 0b 18
        E 16 b0 0b 38
        E 0 80 28 00
        E 0 90 26 38
        E 16 b0 0b 30
        E 48 b0 0b 28
        E 32 b0 0b 20
        E 16 b0 0b 38
        E 0 80 26 00
        E 0 90 23 38
        E 16 b0 0b 30
        E 32 b0 0b 28
        E 32 b0 0b 20
        E 32 b0 0b 18
        E 16 b0 0b 38
        E 0 80 23 00
        E 0 90 26 38
        E 16 b0 0b 30
        E 48 b0 0b 28
        E 32 b0 0b 20
        E 16 b0 0b 38
        E 0 80 26 00
        E 0 90 23 38
        E 16 b0 0b 30
        E 32 b0 0b 28
        E 32 b0 0b 20
        E 32 b0 0b 18
        E 16 b0 0b 38
        E 0 80 23 00
        E 0 90 21 38
        E 16 b0 0b 30
        E 32 b0 0b 28
        E 48 b0 0b 20
        E 16 b0 0c 20
        E 0 b0 0b 30
        E 0 80 21 00
        E 0 90 28 30
        E 48 b0 0b 28
        E 64 b0 0b 20
        E 64 b0 0b 18
        E 80 b0 0b 10
        E 16 80 28 00
        E 96 b0 0b 30
        E 0 90 2a 30
        E 16 b0 0b 28
        E 64 b0 0b 20
        E 80 b0 0b 18
        E 16 80 2a 00
        E 64 b0 0b 30
        E 0 90 2b 30
        E 48 b0 0b 28
        E 80 b0 0b 20
        E 64 b0 0b 18
        E 64 b0 0b 10
        E 16 80 2b 00
        E 96 b0 0c 40
        E 0 b0 0b 38
        E 0 90 28 38
        E 32 b0 0b 30
        E 32 b0 0b 28
        E 32 b0 0b 20
        E 32 b0 0b 18
        E 32 b0 0b 10
        E 32 b0 0b 08
        E 32 80 28 00
        E 16 b0 0b 38
        E 0 90 28 38
        E 32 b0 0b 30
        E 32 b0 0b 28
        E 32 b0 0b 20
        E 16 b0 0b 38
        E 0 80 28 00
        E 0 90 26 38
        E 16 b0 0b 30
        E 32 b0 0b 28
        E 32 b0 0b 20
        E 32 b0 0b 18
        E 16 b0 0b 38
        E 0 80 26 00
        E 0 90 23 38
        E 16 b0 0b 30
        E 48 b0 0b 28
        E 32 b0 0b 20
        E 16 b0 0b 38
        E 0 80 23 00
        E 0 90 26 38
        E 16 b0 0b 30
        E 32 b0 0b 28
        E 32 b0 0b 20
        E 32 b0 0b 18
        E 16 b0 0b 38
        E 0 80 26 00
        E 0 90 23 38
        E 16 b0 0b 30
        E 48 b0 0b 28
        E 32 b0 0b 20
        E 16 b0 0b 38
        E 0 80 23 00
        E 0 90 21 38
        E 16 b0 0b 30
        E 32 b0 0b 28
        E 32 b0 0b 20
        E 32 b0 0b 18
        E 16 b0 0c 20
        E 0 b0 0b 30
        E 0 80 21 00
        E 0 90 28 30
        E 48 b0 0b 28
        E 80 b0 0b 20
        E 64 b0 0b 18
        E 64 b0 0b 10
        E 16 80 28 00
        E 80 b0 0b 30
        E 0 90 2a 30
        E 48 b0 0b 28
        E 64 b0 0b 20
        E 64 b0 0b 18
        E 16 80 2a 00
        E 48 b0 0b 30
        E 0 90 2b 30
        E 16 b0 0b 28
        E 64 b0 0b 20
        E 64 b0 0b 18
        E 64 b0 0b 10
        E 64 80 2b 00
        E 96 b0 0c 40
        E 0 b0 0b 38
        E 0 90 28 38
        E 16 b0 0b 30
        E 32 b0 0b 28
        E 32 b0 0b 20
        E 32 b0 0b 18
        E 48 b0 0b 10
        E 32 b0 0b 08
        E 32 80 28 00
        E 16 b0 0b 38
        E 0 90 28 38
        E 16 b0 0b 30
        E 32 b0 0b 28
        E 32 b0 0b 20
        E 32 b0 0b 18
        E 16 b0 0b 38
        E 0 80 28 00
        E 0 90 26 38
        E 32 b0 0b 30
        E 32 b0 0b 28
        E 32 b0 0b 20
        E 16 b0 0b 38
        E 0 80 26 00
        E 0 90 23 38
        E 16 b0 0b 30
        E 32 b0 0b 28
        E 32 b0 0b 20
        E 32 b0 0b 18
        E 16 b0 0b 38
        E 0 80 23 00
        E 0 90 26 38
        E 16 b0 0b 30
        E 48 b0 0b 28
        E 32 b0 0b 20
        E 16 b0 0b 38
        E 0 80 26 00
        E 0 90 23 38
        E 16 b0 0b 30
        E 32 b0 0b 28
        E 32 b0 0b 20
        E 32 b0 0b 18
        E 16 b0 0b 38
        E 0 80 23 00
        E 0 90 21 38
        E 16 b0 0b 30
        E 48 b0 0b 28
        E 32 b0 0b 20
        E 16 b0 0c 20
        E 0 b0 0b 30
        E 0 80 21 00
        E 0 90 2d 30
        E 48 b0 0b 28
        E 64 b0 0b 20
        E 64 b0 0b 18
        E 80 b0 0b 10
        E 16 80 2d 00
        E 96 b0 0b 30
        E 0 90 2f 30
        E 16 b0 0b 28
        E 80 b0 0b 20
        E 64 b0 0b 18
        E 16 80 2f 00
        E 64 b0 0b 30
        E 0 90 30 30
        E 48 b0 0b 28
        E 80 b0 0b 20
        E 64 b0 0b 18
        E 64 b0 0b 10
        E 16 80 30 00
        E 80 b0 0c 40
        E 0 b0 0b 38
        E 0 90 2d 38
        E 16 b0 0b 30
        E 32 b0 0b 28
        E 32 b0 0b 20
        E 32 b0 0b 18
        E 32 b0 0b 10
        E 32 b0 0b 08
        E 32 80 2d 00
        E 48 b0 0b 38
        E 0 90 2d 38
        E 32 b0 0b 30
        E 32 b0 0b 28
        E 32 b0 0b 20
        E 16 b0 0b 38
        E 0 80 2d 00
        E 0 90 2b 38
        E 16 b0 0b 30
        E 32 b0 0b 28
        E 32 b0 0b 20
        E 32 b0 0b 18
        E 16 b0 0b 38
        E 0 80 2b 00
        E 0 90 28 38
        E 32 b0 0b 30
        E 32 b0 0b 28
        E 32 b0 0b 20
        E 16 b0 0b 38
        E 0 80 28 00
        E 0 90 2b 38
        E 16 b0 0b 30
        E 32 b0 0b 28
        E 32 b0 0b 20
        E 32 b0 0b 18
        E 16 b0 0b 38
        E 0 80 2b 00
        E 0 90 28 38
        E 16 b0 0b 30
        E 48 b0 0b 28
        E 32 b0 0b 20
        E 16 b0 0b 38
        E 0 80 28 00
        E 0 90 26 38
        E 16 b0 0b 30
        E 32 b0 0b 28
        E 32 b0 0b 20
        E 32 b0 0b 18
        E 16 b0 0c 20
        E 0 b0 0b 30
        E 0 80 26 00
        E 0 90 2d 30
        E 64 b0 0b 28
        E 64 b0 0b 20
        E 64 b0 0b 18
        E 64 b0 0b 10
        E 16 80 2d 00
        E 80 b0 0b 30
        E 0 90 2f 30
        E 48 b0 0b 28
        E 64 b0 0b 20
        E 64 b0 0b 18
        E 16 80 2f 00
        E 48 b0 0b 30
        E 0 90 30 30
        E 16 b0 0b 28
        E 64 b0 0b 20
        E 64 b0 0b 18
        E 64 b0 0b 10
        E 64 80 30 00
        E 96 b0 0c 40
        E 0 b0 0b 38
        E 0 90 2d 38
        E 16 b0 0b 30
        E 32 b0 0b 28
        E 32 b0 0b 20
        E 48 b0 0b 18
        E 32 b0 0b 10
        E 32 b0 0b 08
        E 32 80 2d 00
        E 16 b0 0b 38
        E 0 90 2d 38
        E 16 b0 0b 30
        E 32 b0 0b 28
        E 32 b0 0b 20
        E 32 b0 0b 18
        E 16 b0 0b 38
        E 0 80 2d 00
        E 0 90 2b 38
        E 32 b0 0b 30
        E 32 b0 0b 28
        E 32 b0 0b 20
        E 16 b0 0b 38
        E 0 80 2b 00
        E 0 90 28 38
        E 16 b0 0b 30
        E 32 b0 0b 28
        E 32 b0 0b 20
        E 32 b0 0b 18
        E 16 b0 0b 38
        E 0 80 28 00
        E 0 90 2b 38
        E 32 b0 0b 30
        E 32 b0 0b 28
        E 32 b0 0b 20
        E 16 b0 0b 38
        E 0 80 2b 00
        E 0 90 28 38
        E 16 b0 0b 30
        E 32 b0 0b 28
        E 32 b0 0b 20
        E 32 b0 0b 18
        E 16 b0 0b 38
        E 0 80 28 00
        E 0 90 26 38
        E 16 b0 0b 30
        E 48 b0 0b 28
        E 32 b0 0b 20
        E 16 b0 0c 20
        E 0 b0 0b 30
        E 0 80 26 00
        E 0 90 28 30
        E 48 b0 0b 28
        E 64 b0 0b 20
        E 80 b0 0b 18
        E 64 b0 0b 10
        E 16 80 28 00
        E 96 b0 0b 30
        E 0 90 2a 30
        E 16 b0 0b 28
        E 80 b0 0b 20
        E 64 b0 0b 18
        E 16 80 2a 00
        E 64 b0 0b 30
        E 0 90 2b 30
        E 48 b0 0b 28
        E 80 b0 0b 20
        E 64 b0 0b 18
        E 64 b0 0b 10
        E 16 80 2b 00
        E 80 b0 0c 40
        E 0 b0 0b 38
        E 0 90 28 38
        E 16 b0 0b 30
        E 32 b0 0b 28
        E 32 b0 0b 20
        E 32 b0 0b 18
        E 32 b0 0b 10
        E 32 b0 0b 08
        E 32 80 28 00
        E 32 b0 0b 38
        E 0 90 28 38
        E 16 b0 0b 30
        E 32 b0 0b 28
        E 32 b0 0b 20
        E 32 b0 0b 18
        E 16 b0 0b 38
        E 0 80 28 00
        E 0 90 26 38
        E 16 b0 0b 30
        E 32 b0 0b 28
        E 32 b0 0b 20
        E 32 b0 0b 18
        E 16 b0 0b 38
        E 0 80 26 00
        E 0 90 23 38
        E 32 b0 0b 30
        E 32 b0 0b 28
        E 32 b0 0b 20
        E 16 b0 0b 38
        E 0 80 23 00
        E 0 90 26 38
        E 16 b0 0b 30
        E 32 b0 0b 28
        E 32 b0 0b 20
        E 32 b0 0b 18
        E 16 b0 0b 38
        E 0 80 26 00
        E 0 90 23 38
        E 32 b0 0b 30
        E 32 b0 0b 28
        E 32 b0 0b 20
        E 16 b0 0b 38
        E 0 80 23 00
        E 0 90 21 38
        E 16 b0 0b 30
        E 32 b0 0b 28
        E 32 b0 0b 20
        E 32 b0 0b 18
        E 16 b0 0c 20
        E 0 b0 0b 30
        E 0 80 21 00
        E 0 90 28 30
        E 64 b0 0b 28
        E 64 b0 0b 20
        E 64 b0 0b 18
        E 64 b0 0b 10
        E 16 80 28 00
        E 80 b0 0b 30
        E 0 90 2a 30
        E 48 b0 0b 28
        E 64 b0 0b 20
        E 64 b0 0b 18
        E 16 80 2a 00
        E 48 b0 0b 30
        E 0 90 2b 30
        E 16 b0 0b 28
        E 64 b0 0b 20
        E 64 b0 0b 18
        E 80 b0 0b 10
        E 48 80 2b 00
        E 96 b0 0c 40
        E 0 b0 0b 38
        E 0 90 28 38
        E 16 b0 0b 30
        E 32 b0 0b 28
        E 32 b0 0b 20
        E 48 b0 0b 18
        E 32 b0 0b 10
        E 32 b0 0b 08
        E 32 80 28 00
        E 16 b0 0b 38
        E 0 90 28 38
        E 16 b0 0b 30
        E 32 b0 0b 28
        E 32 b0 0b 20
        E 32 b0 0b 38
        E 0 80 28 00
        E 0 90 26 38
        E 16 b0 0b 30
        E 32 b0 0b 28
        E 32 b0 0b 20
        E 32 b0 0b 18
        E 16 b0 0b 38
        E 0 80 26 00
        E 0 90 23 38
        E 16 b0 0b 30
        E 32 b0 0b 28
        E 32 b0 0b 20
        E 32 b0 0b 18
        E 16 b0 0b 38
        E 0 80 23 00
        E 0 90 26 38
        E 32 b0 0b 30
        E 32 b0 0b 28
        E 32 b0 0b 20
        E 16 b0 0b 38
        E 0 80 26 00
        E 0 90 23 38
        E 16 b0 0b 30
        E 32 b0 0b 28
        E 32 b0 0b 20
        E 32 b0 0b 18
        E 16 b0 0b 38
        E 0 80 23 00
        E 0 90 21 38
        E 32 b0 0b 30
        E 32 b0 0b 28
        E 32 b0 0b 20
        E 16 b0 0c 20
        E 0 b0 0b 30
        E 0 80 21 00
        E 0 90 2d 30
        E 48 b0 0b 28
        E 64 b0 0b 20
        E 80 b0 0b 18
        E 64 b0 0b 10
        E 16 80 2d 00
        E 96 b0 0b 30
        E 0 90 2f 30
        E 16 b0 0b 28
        E 80 b0 0b 20
        E 64 b0 0b 18
        E 16 80 2f 00
        E 64 b0 0b 30
        E 0 90 30 30
        E 48 b0 0b 28
        E 80 b0 0b 20
        E 64 b0 0b 18
        E 64 b0 0b 10
        E 16 80 30 00
        E 80 b0 0c 40
        E 0 b0 0b 38
        E 0 90 2d 38
        E 16 b0 0b 30
        E 32 b0 0b 28
        E 32 b0 0b 20
        E 32 b0 0b 18
        E 32 b0 0b 10
        E 32 b0 0b 08
        E 32 80 2d 00
        E 32 b0 0b 38
        E 0 90 2d 38
        E 16 b0 0b 30
        E 32 b0 0b 28
        E 32 b0 0b 20
        E 32 b0 0b 18
        E 16 b0 0b 38
        E 0 80 2d 00
        E 0 90 2b 38
        E 16 b0 0b 30
        E 32 b0 0b 28
        E 32 b0 0b 20
        E 32 b0 0b 38
        E 0 80 2b 00
        E 0 90 28 38
        E 16 b0 0b 30
        E 32 b0 0b 28
        E 32 b0 0b 20
        E 32 b0 0b 18
        E 16 b0 0b 38
        E 0 80 28 00
        E 0 90 2b 38
        E 16 b0 0b 30
        E 32 b0 0b 28
        E 32 b0 0b 20
        E 32 b0 0b 18
        E 16 b0 0b 38
        E 0 80 2b 00
        E 0 90 28 38
        E 32 b0 0b 30
        E 32 b0 0b 28
        E 32 b0 0b 20
        E 16 b0 0b 38
        E 0 80 28 00
        E 0 90 26 38
        E 16 b0 0b 30
        E 32 b0 0b 28
        E 32 b0 0b 20
        E 32 b0 0b 18
        E 16 b0 0c 20
        E 0 b0 0b 30
        E 0 80 26 00
        E 0 90 2d 30
        E 64 b0 0b 28
        E 64 b0 0b 20
        E 64 b0 0b 18
        E 64 b0 0b 10
        E 16 80 2d 00
        E 80 b0 0b 30
        E 0 90 2f 30
        E 48 b0 0b 28
        E 64 b0 0b 20
        E 64 80 2f 00
        E 64 b0 0b 30
        E 0 90 30 30
        E 16 b0 0b 28
        E 64 b0 0b 20
        E 64 b0 0b 18
        E 80 b0 0b 10
        E 48 80 30 00
        E 96 b0 0c 40
        E 0 b0 0b 38
        E 0 90 2d 38
        E 16 b0 0b 30
        E 32 b0 0b 28
        E 48 b0 0b 20
        E 32 b0 0b 18
        E 32 b0 0b 10
        E 32 b0 0b 08
        E 32 80 2d 00
        E 16 b0 0b 38
        E 0 90 2d 38
        E 16 b0 0b 30
        E 32 b0 0b 28
        E 32 b0 0b 20
        E 32 b0 0b 38
        E 0 80 2d 00
        E 0 90 2b 38
        E 16 b0 0b 30
        E 32 b0 0b 28
        E 32 b0 0b 20
        E 32 b0 0b 18
        E 16 b0 0b 38
        E 0 80 2b 00
        E 0 90 28 38
        E 16 b0 0b 30
        E 32 b0 0b 28
        E 32 b0 0b 20
        E 32 b0 0b 38
        E 0 80 28 00
        E 0 90 2b 38
        E 16 b0 0b 30
        E 32 b0 0b 28
        E 32 b0 0b 20
        E 32 b0 0b 18
        E 16 b0 0b 38
        E 0 80 2b 00
        E 0 90 28 38
        E 16 b0 0b 30
        E 32 b0 0b 28
        E 32 b0 0b 20
        E 32 b0 0b 18
        E 16 b0 0b 38
        E 0 80 28 00
        E 0 90 26 38
        E 32 b0 0b 30
        E 32 b0 0b 28
        E 32 b0 0b 20
        E 16 b0 0c 20
        E 0 b0 0b 30
        E 0 80 26 00
        E 0 90 28 30
        E 48 b0 0b 28
        E 64 b0 0b 20
        E 80 b0 0b 18
        E 64 b0 0b 10
        E 16 80 28 00
        E 96 b0 0b 30
        E 0 90 2a 30
        E 16 b0 0b 28
        E 80 b0 0b 20
        E 64 b0 0b 18
        E 16 80 2a 00
        E 64 b0 0b 30
        E 0 90 2b 30
        E 64 b0 0b 28
        E 64 b0 0b 20
        E 64 b0 0b 18
        E 64 b0 0b 10
        E 16 80 2b 00
        E 80 b0 0c 40
        E 0 b0 0b 38
        E 0 90 28 38
        E 16 b0 0b 30
        E 32 b0 0b 28
        E 32 b0 0b 20
        E 32 b0 0b 18
        E 32 b0 0b 10
        E 32 b0 0b 08
        E 48 80 28 00
        E 16 b0 0b 38
        E 0 90 28 38
        E 16 b0 0b 30
        E 32 b0 0b 28
        E 32 b0 0b 20
        E 32 b0 0b 18
        E 16 b0 0b 38
        E 0 80 28 00
        E 0 90 26 38
        E 16 b0 0b 30
        E 32 b0 0b 28
        E 32 b0 0b 20
        E 32 b0 0b 38
        E 0 80 26 00
        E 0 90 23 38
        E 16 b0 0b 30
        E 32 b0 0b 28
        E 32 b0 0b 20
        E 32 b0 0b 18
        E 16 b0 0b 38
        E 0 80 23 00
        E 0 90 26 38
        E 16 b0 0b 30
        E 32 b0 0b 28
        E 32 b0 0b 20
        E 32 b0 0b 38
        E 0 80 26 00
        E 0 90 23 38
        E 16 b0 0b 30
        E 32 b0 0b 28
        E 32 b0 0b 20
        E 32 b0 0b 18
        E 16 b0 0b 38
        E 0 80 23 00
        E 0 90 21 38
        E 16 b0 0b 30
        E 32 b0 0b 28
        E 32 b0 0b 20
        E 32 b0 0b 18
        E 16 b0 0c 20
        E 0 b0 0b 30
        E 0 80 21 00
        E 0 90 28 30
        E 64 b0 0b 28
        E 64 b0 0b 20
        E 64 b0 0b 18
        E 64 80 28 00
        E 96 b0 0b 30
        E 0 90 2a 30
        E 48 b0 0b 28
        E 64 b0 0b 20
        E 64 80 2a 00
        E 64 b0 0b 30
        E 0 90 2b 30
        E 16 b0 0b 28
        E 64 b0 0b 20
        E 64 b0 0b 18
        E 80 b0 0b 10
        E 48 80 2b 00
        E 96 b0 0c 40
        E 0 b0 0b 38
        E 0 90 28 38
        E 16 b0 0b 30
        E 32 b0 0b 28
        E 48 b0 0b 20
        E 32 b0 0b 18
        E 32 b0 0b 10
        E 32 b0 0b 08
        E 32 80 28 00
        E 16 b0 0b 38
        E 0 90 28 38
        E 16 b0 0b 30
        E 32 b0 0b 28
        E 48 b0 0b 20
        E 16 b0 0b 38
        E 0 80 28 00
        E 0 90 26 38
        E 16 b0 0b 30
        E 32 b0 0b 28
        E 32 b0 0b 20
        E 32 b0 0b 18
        E 16 b0 0b 38
        E 0 80 26 00
        E 0 90 23 38
        E 16 b0 0b 30
        E 32 b0 0b 28
        E 32 b0 0b 20
        E 32 b0 0b 38
        E 0 80 23 00
        E 0 90 26 38
        E 16 b0 0b 30
        E 32 b0 0b 28
        E 32 b0 0b 20
        E 32 b0 0b 18
        E 16 b0 0b 38
        E 0 80 26 00
        E 0 90 23 38
        E 16 b0 0b 30
        E 32 b0 0b 28
        E 32 b0 0b 20
        E 32 b0 0b 38
        E 0 80 23 00
        E 0 90 21 38
        E 16 b0 0b 30
        E 32 b0 0b 28
        E 32 b0 0b 20
        E 32 b0 0b 18
        E 16 b0 0c 20
        E 0 b0 0b 30
        E 0 80 21 00
        E 0 90 2d 30
        E 48 b0 0b 28
        E 64 b0 0b 20
        E 80 b0 0b 18
        E 64 b0 0b 10
        E 16 80 2d 00
        E 96 b0 0b 30
        E 0 90 2f 30
        E 32 b0 0b 28
        E 64 b0 0b 20
        E 64 b0 0b 18
        E 16 80 2f 00
        E 64 b0 0b 30
        E 0 90 30 30
        E 64 b0 0b 28
        E 64 b0 0b 20
        E 64 b0 0b 18
        E 64 b0 0b 10
        E 16 80 30 00
        E 80 b0 0c 40
        E 0 b0 0b 38
        E 0 90 2d 38
        E 16 b0 0b 30
        E 32 b0 0b 28
        E 32 b0 0b 20
        E 32 b0 0b 18
        E 32 b0 0b 10
        E 32 b0 0b 08
        E 48 80 2d 00
        E 16 b0 0b 38
        E 0 90 2d 38
        E 16 b0 0b 30
        E 32 b0 0b 28
        E 32 b0 0b 20
        E 32 b0 0b 18
        E 16 b0 0b 38
        E 0 80 2d 00
        E 0 90 2b 38
        E 16 b0 0b 30
        E 32 b0 0b 28
        E 48 b0 0b 20
        E 16 b0 0b 38
        E 0 80 2b 00
        E 0 90 28 38
        E 16 b0 0b 30
        E 32 b0 0b 28
        E 32 b0 0b 20
        E 32 b0 0b 18
        E 16 b0 0b 38
        E 0 80 28 00
        E 0 90 2b 38
        E 16 b0 0b 30
        E 32 b0 0b 28
        E 32 b0 0b 20
        E 32 b0 0b 38
        E 0 80 2b 00
        E 0 90 28 38
        E 16 b0 0b 30
        E 32 b0 0b 28
        E 32 b0 0b 20
        E 32 b0 0b 18
        E 16 b0 0b 38
        E 0 80 28 00
        E 0 90 26 38
        E 16 b0 0b 30
        E 32 b0 0b 28
        E 32 b0 0b 20
        E 32 b0 0c 20
        E 0 b0 0b 30
        E 0 80 26 00
        E 0 90 2d 30
        E 48 b0 0b 28
        E 64 b0 0b 20
        E 64 b0 0b 18
        E 64 b0 0b 10
        E 32 80 2d 00
        E 96 b0 0b 30
        E 0 90 2f 30
        E 16 b0 0b 28
        E 64 b0 0b 20
        E 80 b0 0b 18
        E 16 80 2f 00
        E 64 b0 0b 30
        E 0 90 30 30
        E 48 b0 0b 28
        E 64 b0 0b 20
        E 80 b0 0b 18
        E 64 b0 0b 10
        E 16 80 30 00
        E 96 b0 0c 40
        E 0 b0 0b 38
        E 0 90 2d 38
        E 16 b0 0b 30
        E 48 b0 0b 28
        E 32 b0 0b 20
        E 32 b0 0b 18
        E 32 b0 0b 10
        E 32 b0 0b 08
        E 32 80 2d 00
        E 16 b0 0b 38
        E 0 90 2d 38
        E 16 b0 0b 30
        E 32 b0 0b 28
        E 48 b0 0b 20
        E 16 b0 0b 38
        E 0 80 2d 00
        E 0 90 2b 38
        E 16 b0 0b 30
        E 32 b0 0b 28
        E 32 b0 0b 20
        E 32 b0 0b 18
        E 16 b0 0b 38
        E 0 80 2b 00
        E 0 90 28 38
        E 16 b0 0b 30
        E 32 b0 0b 28
        E 48 b0 0b 20
        E 16 b0 0b 38
        E 0 80 28 00
        E 0 90 2b 38
        E 16 b0 0b 30
        E 32 b0 0b 28
        E 32 b0 0b 20
        E 32 b0 0b 18
        E 16 b0 0b 38
        E 0 80 2b 00
        E 0 90 28 38
        E 16 b0 0b 30
        E 32 b0 0b 28
        E 32 b0 0b 20
        E 32 b0 0b 38
        E 0 80 28 00
        E 0 90 26 38
        E 16 b0 0b 30
        E 32 b0 0b 28
        E 32 b0 0b 20
        E 32 b0 0b 18
        E 16 b0 0c 20
        E 0 b0 0b 30
        E 0 80 26 00
        E 0 90 28 30
        E 48 b0 0b 28
        E 80 b0 0b 20
        E 64 b0 0b 18
        E 64 b0 0b 10
        E 16 80 28 00
        E 96 b0 0b 30
        E 0 90 2a 30
        E 32 b0 0b 28
        E 64 b0 0b 20
        E 64 b0 0b 18
        E 16 80 2a 00
        E 64 b0 0b 30
        E 0 90 2b 30
        E 64 b0 0b 28
        E 64 b0 0b 20
        E 64 b0 0b 18
        E 64 b0 0b 10
        E 16 80 2b 00
        E 80 b0 0c 40
        E 0 b0 0b 38
        E 0 90 28 38
        E 16 b0 0b 30
        E 32 b0 0b 28
        E 32 b0 0b 20
        E 32 b0 0b 18
        E 32 b0 0b 10
        E 48 b0 0b 08
        E 32 80 28 00
        E 16 b0 0b 38
        E 0 90 28 38
        E 16 b0 0b 30
        E 32 b0 0b 28
        E 32 b0 0b 20
        E 32 b0 0b 18
        E 16 b0 0b 38
        E 0 80 28 00
        E 0 90 26 38
        E 16 b0 0b 30
        E 32 b0 0b 28
        E 48 b0 0b 20
        E 16 b0 0b 38
        E 0 80 26 00
        E 0 90 23 38
        E 16 b0 0b 30
        E 32 b0 0b 28
        E 32 b0 0b 20
        E 32 b0 0b 18
        E 16 b0 0b 38
        E 0 80 23 00
        E 0 90 26 38
        E 16 b0 0b 30
        E 32 b0 0b 28
        E 48 b0 0b 20
        E 16 b0 0b 38
        E 0 80 26 00
        E 0 90 23 38
        E 16 b0 0b 30
        E 32 b0 0b 28
        E 32 b0 0b 20
        E 32 b0 0b 18
        E 16 b0 0b 38
        E 0 80 23 00
        E 0 90 21 38
        E 16 b0 0b 30
        E 32 b0 0b 28
        E 32 b0 0b 20
        E 32 b0 0c 20
        E 0 b0 0b 30
        E 0 80 21 00
        E 0 90 28 30
        E 48 b0 0b 28
        E 64 b0 0b 20
        E 64 b0 0b 18
        E 80 b0 0b 10
        E 16 80 28 00
        E 96 b0 0b 30
        E 0 90 2a 30
        E 16 b0 0b 28
        E 64 b0 0b 20
        E 80 b0 0b 18
        E 16 80 2a 00
        E 64 b0 0b 30
        E 0 90 2b 30
        E 48 b0 0b 28
        E 64 b0 0b 20
        E 80 b0 0b 18
        E 64 b0 0b 10
        E 16 80 2b 00
        E 96 b0 0c 40
        E 0 b0 0b 38
        E 0 90 28 38
        E 16 b0 0b 30
        E 48 b0 0b 28
        E 32 b0 0b 20
        E 32 b0 0b 18
        E 32 b0 0b 10
        E 32 b0 0b 08
        E 32 80 28 00
        E 16 b0 0b 38
        E 0 90 28 38
        E 16 b0 0b 30
        E 48 b0 0b 28
        E 32 b0 0b 20
        E 16 b0 0b 38
        E 0 80 28 00
        E 0 90 26 38
        E 16 b0 0b 30
        E 32 b0 0b 28
        E 32 b0 0b 20
        E 32 b0 0b 18
        E 16 b0 0b 38
        E 0 80 26 00
        E 0 90 23 38
        E 16 b0 0b 30
        E 32 b0 0b 28
        E 48 b0 0b 20
        E 16 b0 0b 38
        E 0 80 23 00
        E 0 90 26 38
        E 16 b0 0b 30
        E 32 b0 0b 28
        E 32 b0 0b 20
        E 32 b0 0b 18
        E 16 b0 0b 38
        E 0 80 26 00
        E 0 90 23 38
        E 16 b0 0b 30
        E 32 b0 0b 28
        E 48 b0 0b 20
        E 16 b0 0b 38
        E 0 80 23 00
        E 0 90 21 38
        E 16 b0 0b 30
        E 32 b0 0b 28
        E 32 b0 0b 20
        E 32 b0 0b 18
        E 16 b0 0c 20
        E 0 b0 0b 30
        E 0 80 21 00
        E 0 90 2d 30
        E 48 b0 0b 28
        E 80 b0 0b 20
        E 64 b0 0b 18
        E 64 b0 0b 10
        E 16 80 2d 00
        E 80 b0 0b 30
        E 0 90 2f 30
        E 48 b0 0b 28
        E 64 b0 0b 20
        E 64 b0 0b 18
        E 16 80 2f 00
        E 64 b0 0b 30
        E 0 90 30 30
        E 64 b0 0b 28
        E 64 b0 0b 20
        E 64 b0 0b 18
        E 64 80 30 00
        E 96 b0 0c 40
        E 0 b0 0b 38
        E 0 90 2d 38
        E 16 b0 0b 30
        E 32 b0 0b 28
        E 32 b0 0b 20
        E 32 b0 0b 18
        E 32 b0 0b 10
        E 48 b0 0b 08
        E 32 80 2d 00
        E 16 b0 0b 38
        E 0 90 2d 38
        E 16 b0 0b 30
        E 32 b0 0b 28
        E 32 b0 0b 20
        E 32 b0 0b 18
        E 16 b0 0b 38
        E 0 80 2d 00
        E 0 90 2b 38
        E 16 b0 0b 30
        E 48 b0 0b 28
        E 32 b0 0b 20
        E 16 b0 0b 38
        E 0 80 2b 00
        E 0 90 28 38
        E 16 b0 0b 30
        E 32 b0 0b 28
        E 32 b0 0b 20
        E 32 b0 0b 18
        E 16 b0 0b 38
        E 0 80 28 00
        E 0 90 2b 38
        E 16 b0 0b 30
        E 32 b0 0b 28
        E 48 b0 0b 20
        E 16 b0 0b 38
        E 0 80 2b 00
        E 0 90 28 38
        E 16 b0 0b 30
        E 32 b0 0b 28
        E 32 b0 0b 20
        E 32 b0 0b 18
        E 16 b0 0b 38
        E 0 80 28 00
        E 0 90 26 38
        E 16 b0 0b 30
        E 32 b0 0b 28
        E 48 b0 0b 20
        E 16 b0 0c 20
        E 0 b0 0b 30
        E 0 80 26 00
        E 0 90 2d 30
        E 48 b0 0b 28
        E 64 b0 0b 20
        E 64 b0 0b 18
        E 80 b0 0b 10
        E 16 80 2d 00
        E 96 b0 0b 30
        E 0 90 2f 30
        E 16 b0 0b 28
        E 64 b0 0b 20
        E 80 b0 0b 18
        E 16 80 2f 00
        E 64 b0 0b 30
        E 0 90 30 30
        E 48 b0 0b 28
        E 64 b0 0b 20
        E 80 b0 0b 18
        E 64 b0 0b 10
        E 16 80 30 00
        E 96 b0 0c 40
        E 0 b0 0b 38
        E 0 90 2d 38
        E 32 b0 0b 30
        E 32 b0 0b 28
        E 32 b0 0b 20
        E 32 b0 0b 18
        E 32 b0 0b 10
        E 32 b0 0b 08
        E 32 80 2d 00
        E 16 b0 0b 38
        E 0 90 2d 38
        E 16 b0 0b 30
        E 48 b0 0b 28
        E 32 b0 0b 20
        E 16 b0 0b 38
        E 0 80 2d 00
        E 0 90 2b 38
        E 16 b0 0b 30
        E 32 b0 0b 28
        E 32 b0 0b 20
        E 32 b0 0b 18
        E 16 b0 0b 38
        E 0 80 2b 00
        E 0 90 28 38
        E 16 b0 0b 30
        E 48 b0 0b 28
        E 32 b0 0b 20
        E 16 b0 0b 38
        E 0 80 28 00
        E 0 90 2b 38
        E 16 b0 0b 30
        E 32 b0 0b 28
        E 32 b0 0b 20
        E 32 b0 0b 18
        E 16 b0 0b 38
        E 0 80 2b 00
        E 0 90 28 38
        E 16 b0 0b 30
        E 32 b0 0b 28
        E 48 b0 0b 20
        E 16 b0 0b 38
        E 0 80 28 00
        E 0 90 26 38
        E 16 b0 0b 30
        E 32 b0 0b 28
        E 32 b0 0b 20
        E 32 b0 0b 18
        E 16 b0 0c 20
        E 0 b0 0b 30
        E 0 80 26 00
        E 0 90 28 30
        E 48 b0 0b 28
        E 80 b0 0b 20
        E 64 b0 0b 18
        E 64 b0 0b 10
        E 16 80 28 00
        E 80 b0 0b 30
        E 0 90 2a 30
        E 48 b0 0b 28
        E 64 b0 0b 20
        E 64 b0 0b 18
        E 16 80 2a 00
        E 48 b0 0b 30
        E 0 90 2b 30
        E 16 b0 0b 28
        E 64 b0 0b 20
        E 64 b0 0b 18
        E 64 b0 0b 10
        E 64 80 2b 00
        E 96 b0 0c 40
        E 0 b0 0b 38
        E 0 90 28 38
        E 16 b0 0b 30
        E 32 b0 0b 28
        E 32 b0 0b 20
        E 32 b0 0b 18
        E 48 b0 0b 10
        E 32 b0 0b 08
        E 32 80 28 00
        E 16 b0 0b 38
        E 0 90 28 38
        E 16 b0 0b 30
        E 32 b0 0b 28
        E 32 b0 0b 20
        E 32 b0 0b 18
        E 16 b0 0b 38
        E 0 80 28 00
        E 0 90 26 38
        E 16 b0 0b 30
        E 48 b0 0b 28
        E 32 b0 0b 20
        E 16 b0 0b 38
        E 0 80 26 00
        E 0 90 23 38
        E 16 b0 0b 30
        E 32 b0 0b 28
        E 32 b0 0b 20
        E 32 b0 0b 18
        E 16 b0 0b 38
        E 0 80 23 00
        E 0 90 26 38
        E 16 b0 0b 30
        E 48 b0 0b 28
        E 32 b0 0b 20
        E 16 b0 0b 38
        E 0 80 26 00
        E 0 90 23 38
        E 16 b0 0b 30
        E 32 b0 0b 28
        E 32 b0 0b 20
        E 32 b0 0b 18
        E 16 b0 0b 38
        E 0 80 23 00
        E 0 90 21 38
        E 16 b0 0b 30
        E 32 b0 0b 28
        E 48 b0 0b 20
        E 16 b0 0c 20
        E 0 b0 0b 30
        E 0 80 21 00
        E 0 90 28 30
        E 48 b0 0b 28
        E 64 b0 0b 20
        E 64 b0 0b 18
        E 80 b0 0b 10
        E 16 80 28 00
        E 96 b0 0b 30
        E 0 90 2a 30
        E 16 b0 0b 28
        E 64 b0 0b 20
        E 80 b0 0b 18
        E 16 80 2a 00
        E 64 b0 0b 30
        E 0 90 2b 30
        E 48 b0 0b 28
        E 80 b0 0b 20
        E 64 b0 0b 18
        E 64 b0 0b 10
        E 16 80 2b 00
        E 96 b0 0c 40
        E 0 b0 0b 38
        E 0 90 28 38
        E 32 b0 0b 30
        E 32 b0 0b 28
        E 32 b0 0b 20
        E 32 b0 0b 18
        E 32 b0 0b 10
        E 32 b0 0b 08
        E 32 80 28 00
        E 16 b0 0b 38
        E 0 90 28 38
        E 32 b0 0b 30
        E 32 b0 0b 28
        E 32 b0 0b 20
        E 16 b0 0b 38
        E 0 80 28 00
        E 0 90 26 38
        E 16 b0 0b 30
        E 32 b0 0b 28
        E 32 b0 0b 20
        E 32 b0 0b 18
        E 16 b0 0b 38
        E 0 80 26 00
        E 0 90 23 38
        E 16 b0 0b 30
        E 48 b0 0b 28
        E 32 b0 0b 20
        E 16 b0 0b 38
        E 0 80 23 00
        E 0 90 26 38
        E 16 b0 0b 30
        E 32 b0 0b 28
        E 32 b0 0b 20
        E 32 b0 0b 18
        E 16 b0 0b 38
        E 0 80 26 00
        E 0 90 23 38
        E 16 b0 0b 30
        E 48 b0 0b 28
        E 32 b0 0b 20
        E 16 b0 0b 38
        E 0 80 23 00
        E 0 90 21 38
        E 16 b0 0b 30
        E 32 b0 0b 28
        E 32 b0 0b 20
        E 32 b0 0b 18
        E 16 b0 0c 20
        E 0 b0 0b 30
        E 0 80 21 00
        E 0 90 2d 30
        E 48 b0 0b 28
        E 80 b0 0b 20
        E 64 b0 0b 18
        E 64 b0 0b 10
        E 16 80 2d 00
        E 80 b0 0b 30
        E 0 90 2f 30
        E 48 b0 0b 28
        E 64 b0 0b 20
        E 64 b0 0b 18
        E 16 80 2f 00
        E 48 b0 0b 30
        E 0 90 30 30
        E 16 b0 0b 28
        E 64 b0 0b 20
        E 64 b0 0b 18
        E 64 b0 0b 10
        E 64 80 30 00
        E 96 b0 0c 40
        E 0 b0 0b 38
        E 0 90 2d 38
        E 16 b0 0b 30
        E 32 b0 0b 28
        E 32 b0 0b 20
        E 32 b0 0b 18
        E 48 b0 0b 10
        E 32 b0 0b 08
        E 32 80 2d 00
        E 16 b0 0b 38
        E 0 90 2d 38
        E 16 b0 0b 30
        E 32 b0 0b 28
        E 32 b0 0b 20
        E 32 b0 0b 18
        E 16 b0 0b 38
        E 0 80 2d 00
        E 0 90 2b 38
        E 32 b0 0b 30
        E 32 b0 0b 28
        E 32 b0 0b 20
        E 16 b0 0b 38
        E 0 80 2b 00
        E 0 90 28 38
        E 16 b0 0b 30
        E 32 b0 0b 28
        E 32 b0 0b 20
        E 32 b0 0b 18
        E 16 b0 0b 38
        E 0 80 28 00
        E 0 90 2b 38
        E 16 b0 0b 30
        E 48 b0 0b 28
        E 32 b0 0b 20
        E 16 b0 0b 38
        E 0 80 2b 00
        E 0 90 28 38
        E 16 b0 0b 30
        E 32 b0 0b 28
        E 32 b0 0b 20
        E 32 b0 0b 18
        E 16 b0 0b 38
        E 0 80 28 00
        E 0 90 26 38
        E 16 b0 0b 30
        E 48 b0 0b 28
        E 32 b0 0b 20
        E 16 b0 0c 20
        E 0 b0 0b 30
        E 0 80 26 00
        E 0 90 2d 30
        E 48 b0 0b 28
        E 64 b0 0b 20
        E 64 b0 0b 18
        E 80 b0 0b 10
        E 16 80 2d 00
        E 96 b0 0b 30
        E 0 90 2f 30
        E 16 b0 0b 28
        E 80 b0 0b 20
        E 64 b0 0b 18
        E 16 80 2f 00
        E 64 b0 0b 30
        E 0 90 30 30
        E 48 b0 0b 28
        E 80 b0 0b 20
        E 64 b0 0b 18
        E 64 b0 0b 10
        E 16 80 30 00
        E 80 b0 0c 40
        E 0 b0 0b 38
        E 0 90 2d 38
        E 16 b0 0b 30
        E 32 b0 0b 28
        E 32 b0 0b 20
        E 32 b0 0b 18
        E 32 b0 0b 10
        E 32 b0 0b 08
        E 32 80 2d 00
        E 48 b0 0b 38
        E 0 90 2d 38
        E 32 b0 0b 30
        E 32 b0 0b 28
        E 32 b0 0b 20
        E 16 b0 0b 38
        E 0 80 2d 00
        E 0 90 2b 38
        E 16 b0 0b 30
        E 32 b0 0b 28
        E 32 b0 0b 20
        E 32 b0 0b 18
        E 16 b0 0b 38
        E 0 80 2b 00
        E 0 90 28 38
        E 32 b0 0b 30
        E 32 b0 0b 28
        E 32 b0 0b 20
        E 16 b0 0b 38
        E 0 80 28 00
        E 0 90 2b 38
        E 16 b0 0b 30
        E 32 b0 0b 28
        E 32 b0 0b 20
        E 32 b0 0b 18
        E 16 b0 0b 38
        E 0 80 2b 00
        E 0 90 28 38
        E 16 b0 0b 30
        E 48 b0 0b 28
        E 32 b0 0b 20
        E 16 b0 0b 38
        E 0 80 28 00
        E 0 90 26 38
        E 16 b0 0b 30
        E 32 b0 0b 28
        E 32 b0 0b 20
        E 32 b0 0b 18
        E 16 b0 0c 20
        E 0 b0 0b 30
        E 0 80 26 00
        E 0 90 28 30
        E 64 b0 0b 28
        E 64 b0 0b 20
        E 64 b0 0b 18
        E 64 b0 0b 10
        E 16 80 28 00
        E 80 b0 0b 30
        E 0 90 2a 30
        E 48 b0 0b 28
        E 64 b0 0b 20
        E 64 b0 0b 18
        E 16 80 2a 00
        E 48 b0 0b 30
        E 0 90 2b 30
        E 16 b0 0b 28
        E 64 b0 0b 20
        E 64 b0 0b 18
        E 64 b0 0b 10
        E 64 80 2b 00
        E 96 b0 0c 40
        E 0 b0 0b 38
        E 0 90 28 38
        E 16 b0 0b 30
        E 32 b0 0b 28
        E 32 b0 0b 20
        E 48 b0 0b 18
        E 32 b0 0b 10
        E 32 b0 0b 08
        E 32 80 28 00
        E 16 b0 0b 38
        E 0 90 28 38
        E 16 b0 0b 30
        E 32 b0 0b 28
        E 32 b0 0b 20
        E 32 b0 0b 18
        E 16 b0 0b 38
        E 0 80 28 00
        E 0 90 26 38
        E 32 b0 0b 30
        E 32 b0 0b 28
        E 32 b0 0b 20
        E 16 b0 0b 38
        E 0 80 26 00
        E 0 90 23 38
        E 16 b0 0b 30
        E 32 b0 0b 28
        E 32 b0 0b 20
        E 32 b0 0b 18
        E 16 b0 0b 38
        E 0 80 23 00
        E 0 90 26 38
        E 32 b0 0b 30
        E 32 b0 0b 28
        E 32 b0 0b 20
        E 16 b0 0b 38
        E 0 80 26 00
        E 0 90 23 38
        E 16 b0 0b 30
        E 32 b0 0b 28
        E 32 b0 0b 20
        E 32 b0 0b 18
        E 16 b0 0b 38
        E 0 80 23 00
        E 0 90 21 38
        E 16 b0 0b 30
        E 48 b0 0b 28
        E 32 b0 0b 20
        E 16 b0 0c 20
        E 0 b0 0b 30
        E 0 80 21 00
        E 0 90 28 30
        E 48 b0 0b 28
        E 64 b0 0b 20
        E 80 b0 0b 18
        E 64 b0 0b 10
        E 16 80 28 00
        E 96 b0 0b 30
        E 0 90 2a 30
        E 16 b0 0b 28
        E 80 b0 0b 20
        E 64 b0 0b 18
        E 16 80 2a 00
        E 64 b0 0b 30
        E 0 90 2b 30
        E 48 b0 0b 28
        E 80 b0 0b 20
        E 64 b0 0b 18
        E 64 b0 0b 10
        E 16 80 2b 00
        E 80 b0 0c 40
        E 0 b0 0b 38
        E 0 90 28 38
        E 16 b0 0b 30
        E 32 b0 0b 28
        E 32 b0 0b 20
        E 32 b0 0b 18
        E 32 b0 0b 10
        E 32 b0 0b 08
        E 32 80 28 00
        E 32 b0 0b 38
        E 0 90 28 38
        E 16 b0 0b 30
        E 32 b0 0b 28
        E 32 b0 0b 20
        E 32 b0 0b 18
        E 16 b0 0b 38
        E 0 80 28 00
        E 0 90 26 38
        E 16 b0 0b 30
        E 32 b0 0b 28
        E 32 b0 0b 20
        E 32 b0 0b 18
        E 16 b0 0b 38
        E 0 80 26 00
        E 0 90 23 38
        E 32 b0 0b 30
        E 32 b0 0b 28
        E 32 b0 0b 20
        E 16 b0 0b 38
        E 0 80 23 00
        E 0 90 26 38
        E 16 b0 0b 30
        E 32 b0 0b 28
        E 32 b0 0b 20
        E 32 b0 0b 18
        E 16 b0 0b 38
        E 0 80 26 00
        E 0 90 23 38
        E 32 b0 0b 30
        E 32 b0 0b 28
        E 32 b0 0b 20
        E 16 b0 0b 38
        E 0 80 23 00
        E 0 90 21 38
        E 16 b0 0b 30
        E 32 b0 0b 28
        E 32 b0 0b 20
        E 32 b0 0b 18
        E 16 b0 0c 20
        E 0 b0 0b 30
        E 0 80 21 00
        E 0 90 2d 30
        E 64 b0 0b 28
        E 64 b0 0b 20
        E 64 b0 0b 18
        E 64 b0 0b 10
        E 16 80 2d 00
        E 80 b0 0b 30
        E 0 90 2f 30
        E 48 b0 0b 28
        E 64 b0 0b 20
        E 64 b0 0b 18
        E 16 80 2f 00
        E 48 b0 0b 30
        E 0 90 30 30
        E 16 b0 0b 28
        E 64 b0 0b 20
        E 64 b0 0b 18
        E 80 b0 0b 10
        E 48 80 30 00
        E 96 b0 0c 40
        E 0 b0 0b 38
        E 0 90 2d 38
        E 16 b0 0b 30
        E 32 b0 0b 28
        E 32 b0 0b 20
        E 48 b0 0b 18
        E 32 b0 0b 10
        E 32 b0 0b 08
        E 32 80 2d 00
        E 16 b0 0b 38
        E 0 90 2d 38
        E 16 b0 0b 30
        E 32 b0 0b 28
        E 32 b0 0b 20
        E 32 b0 0b 38
        E 0 80 2d 00
        E 0 90 2b 38
        E 16 b0 0b 30
        E 32 b0 0b 28
        E 32 b0 0b 20
        E 32 b0 0b 18
        E 16 b0 0b 38
        E 0 80 2b 00
        E 0 90 28 38
        E 16 b0 0b 30
        E 32 b0 0b 28
        E 32 b0 0b 20
        E 32 b0 0b 18
        E 16 b0 0b 38
        E 0 80 28 00
        E 0 90 2b 38
        E 32 b0 0b 30
        E 32 b0 0b 28
        E 32 b0 0b 20
        E 16 b0 0b 38
        E 0 80 2b 00
        E 0 90 28 38
        E 16 b0 0b 30
        E 32 b0 0b 28
        E 32 b0 0b 20
        E 32 b0 0b 18
        E 16 b0 0b 38
        E 0 80 28 00
        E 0 90 26 38
        E 32 b0 0b 30
        E 32 b0 0b 28
        E 32 b0 0b 20
        E 16 b0 0c 20
        E 0 b0 0b 30
        E 0 80 26 00
        E 0 90 2d 30
        E 48 b0 0b 28
        E 64 b0 0b 20
        E 80 b0 0b 18
        E 64 b0 0b 10
        E 16 80 2d 00
        E 96 b0 0b 30
        E 0 90 2f 30
        E 16 b0 0b 28
        E 80 b0 0b 20
        E 64 b0 0b 18
        E 16 80 2f 00
        E 64 b0 0b 30
        E 0 90 30 30
        E 48 b0 0b 28
        E 80 b0 0b 20
        E 64 b0 0b 18
        E 64 b0 0b 10
        E 16 80 30 00
        E 80 b0 0c 40
        E 0 b0 0b 38
        E 0 90 2d 38
        E 16 b0 0b 30
        E 32 b0 0b 28
        E 32 b0 0b 20
        E 32 b0 0b 18
        E 32 b0 0b 10
        E 32 b0 0b 08
        E 32 80 2d 00
        E 32 b0 0b 38
        E 0 90 2d 38
        E 16 b0 0b 30
        E 32 b0 0b 28
        E 32 b0 0b 20
        E 32 b0 0b 18
        E 16 b0 0b 38
        E 0 80 2d 00
        E 0 90 2b 38
        E 16 b0 0b 30
        E 32 b0 0b 28
        E 32 b0 0b 20
        E 32 b0 0b 38
        E 0 80 2b 00
        E 0 90 28 38
        E 16 b0 0b 30
        E 32 b0 0b 28
        E 32 b0 0b 20
        E 32 b0 0b 18
        E 16 b0 0b 38
        E 0 80 28 00
        E 0 90 2b 38
        E 16 b0 0b 30
        E 32 b0 0b 28
        E 32 b0 0b 20
        E 32 b0 0b 18
        E 16 b0 0b 38
        E 0 80 2b 00
        E 0 90 28 38
        E 32 b0 0b 30
        E 32 b0 0b 28
        E 32 b0 0b 20
        E 16 b0 0b 38
        E 0 80 28 00
        E 0 90 26 38
        E 16 b0 0b 30
        E 32 b0 0b 28
        E 32 b0 0b 20
        E 32 b0 0b 18
        E 16 b0 0c 20
        E 0 b0 0b 30
        E 0 80 26 00
        E 0 90 28 30
        E 64 b0 0b 28
        E 64 b0 0b 20
        E 64 b0 0b 18
        E 64 b0 0b 10
        E 16 80 28 00
        E 80 b0 0b 30
        E 0 90 2a 30
        E 48 b0 0b 28
        E 64 b0 0b 20
        E 64 80 2a 00
        E 64 b0 0b 30
        E 0 90 2b 30
        E 16 b0 0b 28
        E 64 b0 0b 20
        E 64 b0 0b 18
        E 80 b0 0b 10
        E 48 80 2b 00
        E 96 b0 0c 40
        E 0 b0 0b 38
        E 0 90 28 38
        E 16 b0 0b 30
        E 32 b0 0b 28
        E 48 b0 0b 20
        E 32 b0 0b 18
        E 32 b0 0b 10
        E 32 b0 0b 08
        E 32 80 28 00
        E 16 b0 0b 38
        E 0 90 28 38
        E 16 b0 0b 30
        E 32 b0 0b 28
        E 32 b0 0b 20
        E 32 b0 0b 38
        E 0 80 28 00
        E 0 90 26 38
        E 16 b0 0b 30
        E 32 b0 0b 28
        E 32 b0 0b 20
        E 32 b0 0b 18
        E 16 b0 0b 38
        E 0 80 26 00
        E 0 90 23 38
        E 16 b0 0b 30
        E 32 b0 0b 28
        E 32 b0 0b 20
        E 32 b0 0b 38
        E 0 80 23 00
        E 0 90 26 38
        E 16 b0 0b 30
        E 32 b0 0b 28
        E 32 b0 0b 20
        E 32 b0 0b 18
        E 16 b0 0b 38
        E 0 80 26 00
        E 0 90 23 38
        E 16 b0 0b 30
        E 32 b0 0b 28
        E 32 b0 0b 20
        E 32 b0 0b 18
        E 16 b0 0b 38
        E 0 80 23 00
        E 0 90 21 38
        E 32 b0 0b 30
        E 32 b0 0b 28
        E 32 b0 0b 20
        E 16 b0 0c 20
        E 0 b0 0b 30
        E 0 80 21 00
        E 0 90 28 30
        E 48 b0 0b 28
        E 64 b0 0b 20
        E 80 b0 0b 18
        E 64 b0 0b 10
        E 16 80 28 00
        E 96 b0 0b 30
        E 0 90 2a 30
        E 16 b0 0b 28
        E 80 b0 0b 20
        E 64 b0 0b 18
        E 16 80 2a 00
        E 64 b0 0b 30
        E 0 90 2b 30
        E 64 b0 0b 28
        E 64 b0 0b 20
        E 64 b0 0b 18
        E 64 b0 0b 10
        E 16 80 2b 00
        E 80 b0 0c 40
        E 0 b0 0b 38
        E 0 90 28 38
        E 16 b0 0b 30
        E 32 b0 0b 28
        E 32 b0 0b 20
        E 32 b0 0b 18
        E 32 b0 0b 10
        E 32 b0 0b 08
        E 48 80 28 00
        E 16 b0 0b 38
        E 0 90 28 38
        E 16 b0 0b 30
        E 32 b0 0b 28
        E 32 b0 0b 20
        E 32 b0 0b 18
        E 16 b0 0b 38
        E 0 80 28 00
        E 0 90 26 38
        E 16 b0 0b 30
        E 32 b0 0b 28
        E 32 b0 0b 20
        E 32 b0 0b 38
        E 0 80 26 00
        E 0 90 23 38
        E 16 b0 0b 30
        E 32 b0 0b 28
        E 32 b0 0b 20
        E 32 b0 0b 18
        E 16 b0 0b 38
        E 0 80 23 00
        E 0 90 26 38
        E 16 b0 0b 30
        E 32 b0 0b 28
        E 32 b0 0b 20
        E 32 b0 0b 38
        E 0 80 26 00
        E 0 90 23 38
        E 16 b0 0b 30
        E 32 b0 0b 28
        E 32 b0 0b 20
        E 32 b0 0b 18
        E 16 b0 0b 38
        E 0 80 23 00
        E 0 90 21 38
        E 16 b0 0b 30
        E 32 b0 0b 28
        E 32 b0 0b 20
        E 32 b0 0b 18
        E 16 b0 0c 20
        E 0 b0 0b 30
        E 0 80 21 00
        E 0 90 2d 30
        E 64 b0 0b 28
        E 64 b0 0b 20
        E 64 b0 0b 18
        E 64 80 2d 00
        E 96 b0 0b 30
        E 0 90 2f 30
        E 48 b0 0b 28
        E 64 b0 0b 20
        E 64 80 2f 00
        E 64 b0 0b 30
        E 0 90 30 30
        E 16 b0 0b 28
        E 64 b0 0b 20
        E 64 b0 0b 18
        E 80 b0 0b 10
        E 48 80 30 00
        E 96 b0 0c 40
        E 0 b0 0b 38
        E 0 90 2d 38
        E 16 b0 0b 30
        E 32 b0 0b 28
        E 48 b0 0b 20
        E 32 b0 0b 18
        E 32 b0 0b 10
        E 32 b0 0b 08
        E 32 80 2d 00
        E 16 b0 0b 38
        E 0 90 2d 38
        E 16 b0 0b 30
        E 32 b0 0b 28
        E 48 b0 0b 20
        E 16 b0 0b 38
        E 0 80 2d 00
        E 0 90 2b 38
        E 16 b0 0b 30
        E 32 b0 0b 28
        E 32 b0 0b 20
        E 32 b0 0b 18
        E 16 b0 0b 38
        E 0 80 2b 00
        E 0 90 28 38
        E 16 b0 0b 30
        E 32 b0 0b 28
        E 32 b0 0b 20
        E 32 b0 0b 38
        E 0 80 28 00
        E 0 90 2b 38
        E 16 b0 0b 30
        E 32 b0 0b 28
        E 32 b0 0b 20
        E 32 b0 0b 18
        E 16 b0 0b 38
        E 0 80 2b 00
        E 0 90 28 38
        E 16 b0 0b 30
        E 32 b0 0b 28
        E 32 b0 0b 20
        E 32 b0 0b 38
        E 0 80 28 00
        E 0 90 26 38
        E 16 b0 0b 30
        E 32 b0 0b 28
        E 32 b0 0b 20
        E 32 b0 0b 18
        E 16 b0 0c 20
        E 0 b0 0b 30
        E 0 80 26 00
        E 0 90 2d 30
        E 48 b0 0b 28
        E 64 b0 0b 20
        E 80 b0 0b 18
        E 64 b0 0b 10
        E 16 80 2d 00
        E 96 b0 0b 30
        E 0 90 2f 30
        E 32 b0 0b 28
        E 64 b0 0b 20
        E 64 b0 0b 18
        E 16 80 2f 00
        E 64 b0 0b 30
        E 0 90 30 30
        E 64 b0 0b 28
        E 64 b0 0b 20
        E 64 b0 0b 18
        E 64 b0 0b 10
        E 16 80 30 00
        E 80 b0 0c 40
        E 0 b0 0b 38
        E 0 90 2d 38
        E 16 b0 0b 30
        E 32 b0 0b 28
        E 32 b0 0b 20
        E 32 b0 0b 18
        E 32 b0 0b 10
        E 32 b0 0b 08
        E 48 80 2d 00
        E 16 b0 0b 38
        E 0 90 2d 38
        E 16 b0 0b 30
        E 32 b0 0b 28
        E 32 b0 0b 20
        E 32 b0 0b 18
        E 16 b0 0b 38
        E 0 80 2d 00
        E 0 90 2b 38
        E 16 b0 0b 30
        E 32 b0 0b 28
        E 48 b0 0b 20
        E 16 b0 0b 38
        E 0 80 2b 00
        E 0 90 28 38
        E 16 b0 0b 30
        E 32 b0 0b 28
        E 32 b0 0b 20
        E 32 b0 0b 18
        E 16 b0 0b 38
        E 0 80 28 00
        E 0 90 2b 38
        E 16 b0 0b 30
        E 32 b0 0b 28
        E 32 b0 0b 20
        E 32 b0 0b 38
        E 0 80 2b 00
        E 0 90 28 38
        E 16 b0 0b 30
        E 32 b0 0b 28
        E 32 b0 0b 20
        E 32 b0 0b 18
        E 16 b0 0b 38
        E 0 80 28 00
        E 0 90 26 38
        E 16 b0 0b 30
        E 32 b0 0b 28
        E 32 b0 0b 20
        E 32 b0 0c 20
        E 0 b0 0b 30
        E 0 80 26 00
        E 0 90 28 30
        E 48 b0 0b 28
        E 64 b0 0b 20
        E 64 b0 0b 18
        E 64 b0 0b 10
        E 32 80 28 00
        E 96 b0 0b 30
        E 0 90 2a 30
        E 16 b0 0b 28
        E 64 b0 0b 20
        E 80 b0 0b 18
        E 16 80 2a 00
        E 64 b0 0b 30
        E 0 90 2b 30
        E 48 b0 0b 28
        E 64 b0 0b 20
        E 80 b0 0b 18
        E 64 b0 0b 10
        E 16 80 2b 00
        E 96 b0 0c 40
        E 0 b0 0b 38
        E 0 90 28 38
        E 16 b0 0b 30
        E 48 b0 0b 28
        E 32 b0 0b 20
        E 32 b0 0b 18
        E 32 b0 0b 10
        E 32 b0 0b 08
        E 32 80 28 00
        E 16 b0 0b 38
        E 0 90 28 38
        E 16 b0 0b 30
        E 32 b0 0b 28
        E 48 b0 0b 20
        E 16 b0 0b 38
        E 0 80 28 00
        E 0 90 26 38
        E 16 b0 0b 30
        E 32 b0 0b 28
        E 32 b0 0b 20
        E 32 b0 0b 18
        E 16 b0 0b 38
        E 0 80 26 00
        E 0 90 23 38
        E 16 b0 0b 30
        E 32 b0 0b 28
        E 48 b0 0b 20
        E 16 b0 0b 38
        E 0 80 23 00
        E 0 90 26 38
        E 16 b0 0b 30
        E 32 b0 0b 28
        E 32 b0 0b 20
        E 32 b0 0b 18
        E 16 b0 0b 38
        E 0 80 26 00
        E 0 90 23 38
        E 16 b0 0b 30
        E 32 b0 0b 28
        E 32 b0 0b 20
        E 32 b0 0b 38
        E 0 80 23 00
        E 0 90 21 38
        E 16 b0 0b 30
        E 32 b0 0b 28
        E 32 b0 0b 20
        E 32 b0 0b 18
        E 16 b0 0c 20
        E 0 b0 0b 30
        E 0 80 21 00
        E 0 90 28 30
        E 48 b0 0b 28
        E 80 b0 0b 20
        E 64 b0 0b 18
        E 64 b0 0b 10
        E 16 80 28 00
        E 96 b0 0b 30
        E 0 90 2a 30
        E 32 b0 0b 28
        E 64 b0 0b 20
        E 64 b0 0b 18
        E 16 80 2a 00
        E 64 b0 0b 30
        E 0 90 2b 30
        E 64 b0 0b 28
        E 64 b0 0b 20
        E 64 b0 0b 18
        E 64 b0 0b 10
        E 16 80 2b 00
        E 80 b0 0c 40
        E 0 b0 0b 38
        E 0 90 28 38
        E 16 b0 0b 30
        E 32 b0 0b 28
        E 32 b0 0b 20
        E 32 b0 0b 18
        E 32 b0 0b 10
        E 48 b0 0b 08
        E 32 80 28 00
        E 16 b0 0b 38
        E 0 90 28 38
        E 16 b0 0b 30
        E 32 b0 0b 28
        E 32 b0 0b 20
        E 32 b0 0b 18
        E 16 b0 0b 38
        E 0 80 28 00
        E 0 90 26 38
        E 16 b0 0b 30
        E 32 b0 0b 28
        E 48 b0 0b 20
        E 16 b0 0b 38
        E 0 80 26 00
        E 0 90 23 38
        E 16 b0 0b 30
        E 32 b0 0b 28
        E 32 b0 0b 20
        E 32 b0 0b 18
        E 16 b0 0b 38
        E 0 80 23 00
        E 0 90 26 38
        E 16 b0 0b 30
        E 32 b0 0b 28
        E 48 b0 0b 20
        E 16 b0 0b 38
        E 0 80 26 00
        E 0 90 23 38
        E 16 b0 0b 30
        E 32 b0 0b 28
        E 32 b0 0b 20
        E 32 b0 0b 18
        E 16 b0 0b 38
        E 0 80 23 00
        E 0 90 21 38
        E 16 b0 0b 30
        E 32 b0 0b 28
        E 32 b0 0b 20
        E 32 b0 0c 20
        E 0 b0 0b 30
        E 0 80 21 00
        E 0 90 2d 30
        E 48 b0 0b 28
        E 64 b0 0b 20
        E 64 b0 0b 18
        E 80 b0 0b 10
        E 16 80 2d 00
        E 96 b0 0b 30
        E 0 90 2f 30
        E 16 b0 0b 28
        E 64 b0 0b 20
        E 80 b0 0b 18
        E 16 80 2f 00
        E 64 b0 0b 30
        E 0 90 30 30
        E 48 b0 0b 28
        E 64 b0 0b 20
        E 80 b0 0b 18
        E 64 b0 0b 10
        E 16 80 30 00
        E 96 b0 0c 40
        E 0 b0 0b 38
        E 0 90 2d 38
        E 16 b0 0b 30
        E 48 b0 0b 28
        E 32 b0 0b 20
        E 32 b0 0b 18
        E 32 b0 0b 10
        E 32 b0 0b 08
        E 32 80 2d 00
        E 16 b0 0b 38
        E 0 90 2d 38
        E 16 b0 0b 30
        E 48 b0 0b 28
        E 32 b0 0b 20
        E 16 b0 0b 38
        E 0 80 2d 00
        E 0 90 2b 38
        E 16 b0 0b 30
        E 32 b0 0b 28
        E 32 b0 0b 20
        E 32 b0 0b 18
        E 16 b0 0b 38
        E 0 80 2b 00
        E 0 90 28 38
        E 16 b0 0b 30
        E 32 b0 0b 28
        E 48 b0 0b 20
        E 16 b0 0b 38
        E 0 80 28 00
        E 0 90 2b 38
        E 16 b0 0b 30
        E 32 b0 0b 28
        E 32 b0 0b 20
        E 32 b0 0b 18
        E 16 b0 0b 38
        E 0 80 2b 00
        E 0 90 28 38
        E 16 b0 0b 30
        E 32 b0 0b 28
        E 48 b0 0b 20
        E 16 b0 0b 38
        E 0 80 28 00
        E 0 90 26 38
        E 16 b0 0b 30
        E 32 b0 0b 28
        E 32 b0 0b 20
        E 32 b0 0b 18
        E 16 b0 0c 20
        E 0 b0 0b 30
        E 0 80 26 00
        E 0 90 2d 30
        E 48 b0 0b 28
        E 80 b0 0b 20
        E 64 b0 0b 18
        E 64 b0 0b 10
        E 16 80 2d 00
        E 80 b0 0b 30
        E 0 90 2f 30
        E 48 b0 0b 28
        E 64 b0 0b 20
        E 64 b0 0b 18
        E 16 80 2f 00
        E 64 b0 0b 30
        E 0 90 30 30
        E 64 b0 0b 28
        E 64 b0 0b 20
        E 64 b0 0b 18
        E 64 80 30 00
        E 96 b0 0c 40
        E 0 b0 0b 38
        E 0 90 2d 38
        E 16 b0 0b 30
        E 32 b0 0b 28
        E 32 b0 0b 20
        E 32 b0 0b 18
        E 32 b0 0b 10
        E 48 b0 0b 08
        E 32 80 2d 00
        E 16 b0 0b 38
        E 0 90 2d 38
        E 16 b0 0b 30
        E 32 b0 0b 28
        E 32 b0 0b 20
        E 32 b0 0b 18
        E 16 b0 0b 38
        E 0 80 2d 00
        E 0 90 2b 38
        E 16 b0 0b 30
        E 48 b0 0b 28
        E 32 b0 0b 20
        E 16 b0 0b 38
        E 0 80 2b 00
        E 0 90 28 38
        E 16 b0 0b 30
        E 32 b0 0b 28
        E 32 b0 0b 20
        E 32 b0 0b 18
        E 16 b0 0b 38
        E 0 80 28 00
        E 0 90 2b 38
        E 16 b0 0b 30
        E 32 b0 0b 28
        E 48 b0 0b 20
        E 16 b0 0b 38
        E 0 80 2b 00
        E 0 90 28 38
        E 16 b0 0b 30
        E 32 b0 0b 28
        E 32 b0 0b 20
        E 32 b0 0b 18
        E 16 b0 0b 38
        E 0 80 28 00
        E 0 90 26 38
        E 16 b0 0b 30
        E 32 b0 0b 28
        E 48 b0 0b 20
        E 16 b0 0c 20
        E 0 b0 0b 30
        E 0 80 26 00
        E 0 90 28 30
        E 48 b0 0b 28
        E 64 b0 0b 20
        E 64 b0 0b 18
        E 80 b0 0b 10
        E 16 80 28 00
        E 96 b0 0b 30
        E 0 90 2a 30
        E 16 b0 0b 28
        E 64 b0 0b 20
        E 80 b0 0b 18
        E 16 80 2a 00
        E 64 b0 0b 30
        E 0 90 2b 30
        E 48 b0 0b 28
        E 64 b0 0b 20
        E 80 b0 0b 18
        E 64 b0 0b 10
        E 16 80 2b 00
        E 96 b0 0c 40
        E 0 b0 0b 38
        E 0 90 28 38
        E 32 b0 0b 30
        E 32 b0 0b 28
        E 32 b0 0b 20
        E 32 b0 0b 18
        E 32 b0 0b 10
        E 32 b0 0b 08
        E 32 80 28 00
        E 16 b0 0b 38
        E 0 90 28 38
        E 16 b0 0b 30
        E 48 b0 0b 28
        E 32 b0 0b 20
        E 16 b0 0b 38
        E 0 80 28 00
        E 0 90 26 38
        E 16 b0 0b 30
        E 32 b0 0b 28
        E 32 b0 0b 20
        E 32 b0 0b 18
        E 16 b0 0b 38
        E 0 80 26 00
        E 0 90 23 38
        E 16 b0 0b 30
        E 48 b0 0b 28
        E 32 b0 0b 20
        E 16 b0 0b 38
        E 0 80 23 00
        E 0 90 26 38
        E 16 b0 0b 30
        E 32 b0 0b 28
        E 32 b0 0b 20
        E 32 b0 0b 18
        E 16 b0 0b 38
        E 0 80 26 00
        E 0 90 23 38
        E 16 b0 0b 30
        E 32 b0 0b 28
        E 48 b0 0b 20
        E 16 b0 0b 38
        E 0 80 23 00
        E 0 90 21 38
        E 16 b0 0b 30
        E 32 b0 0b 28
        E 32 b0 0b 20
        E 32 b0 0b 18
        E 16 b0 0c 20
        E 0 b0 0b 30
        E 0 80 21 00
        E 0 90 28 30
        E 48 b0 0b 28
        E 80 b0 0b 20
        E 64 b0 0b 18
        E 64 b0 0b 10
        E 16 80 28 00
        E 80 b0 0b 30
        E 0 90 2a 30
        E 48 b0 0b 28
        E 64 b0 0b 20
        E 64 b0 0b 18
        E 16 80 2a 00
        E 48 b0 0b 30
        E 0 90 2b 30
        E 16 b0 0b 28
        E 64 b0 0b 20
        E 64 b0 0b 18
        E 64 b0 0b 10
        E 64 80 2b 00
        E 96 b0 0c 40
        E 0 b0 0b 38
        E 0 90 28 38
        E 16 b0 0b 30
        E 32 b0 0b 28
        E 32 b0 0b 20
        E 32 b0 0b 18
        E 48 b0 0b 10
        E 32 b0 0b 08
        E 32 80 28 00
        E 16 b0 0b 38
        E 0 90 28 38
        E 16 b0 0b 30
        E 32 b0 0b 28
        E 32 b0 0b 20
        E 32 b0 0b 18
        E 16 b0 0b 38
        E 0 80 28 00
        E 0 90 26 38
        E 16 b0 0b 30
        E 48 b0 0b 28
        E 32 b0 0b 20
        E 16 b0 0b 38
        E 0 80 26 00
        E 0 90 23 38
        E 16 b0 0b 30
        E 32 b0 0b 28
        E 32 b0 0b 20
        E 32 b0 0b 18
        E 16 b0 0b 38
        E 0 80 23 00
        E 0 90 26 38
        E 16 b0 0b 30
        E 48 b0 0b 28
        E 32 b0 0b 20
        E 16 b0 0b 38
        E 0 80 26 00
        E 0 90 23 38
        E 16 b0 0b 30
        E 32 b0 0b 28
        E 32 b0 0b 20
        E 32 b0 0b 18
        E 16 b0 0b 38
        E 0 80 23 00
        E 0 90 21 38
        E 16 b0 0b 30
        E 32 b0 0b 28
        E 48 b0 0b 20
        E 16 b0 0c 20
        E 0 b0 0b 30
        E 0 80 21 00
        E 0 90 2d 30
        E 48 b0 0b 28
        E 64 b0 0b 20
        E 64 b0 0b 18
        E 80 b0 0b 10
        E 16 80 2d 00
        E 96 b0 0b 30
        E 0 90 2f 30
        E 16 b0 0b 28
        E 64 b0 0b 20
        E 80 b0 0b 18
        E 16 80 2f 00
        E 64 b0 0b 30
        E 0 90 30 30
        E 48 b0 0b 28
        E 80 b0 0b 20
        E 64 b0 0b 18
        E 64 b0 0b 10
        E 16 80 30 00
        E 96 b0 0c 40
        E 0 b0 0b 38
        E 0 90 2d 38
        E 32 b0 0b 30
        E 32 b0 0b 28
        E 32 b0 0b 20
        E 32 b0 0b 18
        E 32 b0 0b 10
        E 32 b0 0b 08
        E 32 80 2d 00
        E 16 b0 0b 38
        E 0 90 2d 38
        E 32 b0 0b 30
        E 32 b0 0b 28
        E 32 b0 0b 20
        E 16 b0 0b 38
        E 0 80 2d 00
        E 0 90 2b 38
        E 16 b0 0b 30
        E 32 b0 0b 28
        E 32 b0 0b 20
        E 32 b0 0b 18
        E 16 b0 0b 38
        E 0 80 2b 00
        E 0 90 28 38
        E 16 b0 0b 30
        E 48 b0 0b 28
        E 32 b0 0b 20
        E 16 b0 0b 38
        E 0 80 28 00
        E 0 90 2b 38
        E 16 b0 0b 30
        E 32 b0 0b 28
        E 32 b0 0b 20
        E 32 b0 0b 18
        E 16 b0 0b 38
        E 0 80 2b 00
        E 0 90 28 38
        E 16 b0 0b 30
        E 48 b0 0b 28
        E 32 b0 0b 20
        E 16 b0 0b 38
        E 0 80 28 00
        E 0 90 26 38
        E 16 b0 0b 30
        E 32 b0 0b 28
        E 32 b0 0b 20
        E 32 b0 0b 18
        E 16 b0 0c 20
        E 0 b0 0b 30
        E 0 80 26 00
        E 0 90 2d 30
        E 48 b0 0b 28
        E 80 b0 0b 20
        E 64 b0 0b 18
        E 64 b0 0b 10
        E 16 80 2d 00
        E 80 b0 0b 30
        E 0 90 2f 30
        E 48 b0 0b 28
        E 64 b0 0b 20
        E 64 b0 0b 18
        E 16 80 2f 00
        E 48 b0 0b 30
        E 0 90 30 30
        E 16 b0 0b 28
        E 64 b0 0b 20
        E 64 b0 0b 18
        E 64 b0 0b 10
        E 64 80 30 00
        E 96 b0 0c 40
        E 0 b0 0b 38
        E 0 90 2d 38
        E 16 b0 0b 30
        E 32 b0 0b 28
        E 32 b0 0b 20
        E 32 b0 0b 18
        E 48 b0 0b 10
        E 32 b0 0b 08
        E 32 80 2d 00
        E 16 b0 0b 38
        E 0 90 2d 38
        E 16 b0 0b 30
        E 32 b0 0b 28
        E 32 b0 0b 20
        E 32 b0 0b 18
        E 16 b0 0b 38
        E 0 80 2d 00
        E 0 90 2b 38
        E 32 b0 0b 30
        E 32 b0 0b 28
        E 32 b0 0b 20
        E 16 b0 0b 38
        E 0 80 2b 00
        E 0 90 28 38
        E 16 b0 0b 30
        E 32 b0 0b 28
        E 32 b0 0b 20
        E 32 b0 0b 18
        E 16 b0 0b 38
        E 0 80 28 00
        E 0 90 2b 38
        E 16 b0 0b 30
        E 48 b0 0b 28
        E 32 b0 0b 20
        E 16 b0 0b 38
        E 0 80 2b 00
        E 0 90 28 38
        E 16 b0 0b 30
        E 32 b0 0b 28
        E 32 b0 0b 20
        E 32 b0 0b 18
        E 16 b0 0b 38
        E 0 80 28 00
        E 0 90 26 38
        E 16 b0 0b 30
        E 48 b0 0b 28
        E 32 b0 0b 20
        E 16 b0 0c 20
        E 0 b0 0b 30
        E 0 80 26 00
        E 0 90 28 30
        E 48 b0 0b 28
        E 64 b0 0b 20
        E 64 b0 0b 18
        E 80 b0 0b 10
        E 16 80 28 00
        E 96 b0 0b 30
        E 0 90 2a 30
        E 16 b0 0b 28
        E 80 b0 0b 20
        E 64 b0 0b 18
        E 16 80 2a 00
        E 64 b0 0b 30
        E 0 90 2b 30
        E 48 b0 0b 28
        E 80 b0 0b 20
        E 64 b0 0b 18
        E 64 b0 0b 10
        E 16 80 2b 00
        E 80 b0 0c 40
        E 0 b0 0b 38
        E 0 90 28 38
        E 16 b0 0b 30
        E 32 b0 0b 28
        E 32 b0 0b 20
        E 32 b0 0b 18
        E 32 b0 0b 10
        E 32 b0 0b 08
        E 32 80 28 00
        E 48 b0 0b 38
        E 0 90 28 38
        E 32 b0 0b 30
        E 32 b0 0b 28
        E 32 b0 0b 20
        E 16 b0 0b 38
        E 0 80 28 00
        E 0 90 26 38
        E 16 b0 0b 30
        E 32 b0 0b 28
        E 32 b0 0b 20
        E 32 b0 0b 18
        E 16 b0 0b 38
        E 0 80 26 00
        E 0 90 23 38
        E 32 b0 0b 30
        E 32 b0 0b 28
        E 32 b0 0b 20
        E 16 b0 0b 38
        E 0 80 23 00
        E 0 90 26 38
        E 16 b0 0b 30
        E 32 b0 0b 28
        E 32 b0 0b 20
        E 32 b0 0b 18
        E 16 b0 0b 38
        E 0 80 26 00
        E 0 90 23 38
        E 16 b0 0b 30
        E 48 b0 0b 28
        E 32 b0 0b 20
        E 16 b0 0b 38
        E 0 80 23 00
        E 0 90 21 38
        E 16 b0 0b 30
        E 32 b0 0b 28
        E 32 b0 0b 20
        E 32 b0 0b 18
        E 16 b0 0c 20
        E 0 b0 0b 30
        E 0 80 21 00
        E 0 90 28 30
        E 64 b0 0b 28
        E 64 b0 0b 20
        E 64 b0 0b 18
        E 64 b0 0b 10
        E 16 80 28 00
        E 80 b0 0b 30
        E 0 90 2a 30
        E 48 b0 0b 28
        E 64 b0 0b 20
        E 64 b0 0b 18
        E 16 80 2a 00
        E 48 b0 0b 30
        E 0 90 2b 30
        E 16 b0 0b 28
        E 64 b0 0b 20
        E 64 b0 0b 18
        E 64 b0 0b 10
        E 64 80 2b 00
        E 96 b0 0c 40
        E 0 b0 0b 38
        E 0 90 28 38
        E 16 b0 0b 30
        E 32 b0 0b 28
        E 32 b0 0b 20
        E 48 b0 0b 18
        E 32 b0 0b 10
        E 32 b0 0b 08
        E 32 80 28 00
        E 16 b0 0b 38
        E 0 90 28 38
        E 16 b0 0b 30
        E 32 b0 0b 28
        E 32 b0 0b 20
        E 32 b0 0b 18
        E 16 b0 0b 38
        E 0 80 28 00
        E 0 90 26 38
        E 32 b0 0b 30
        E 32 b0 0b 28
        E 32 b0 0b 20
        E 16 b0 0b 38
        E 0 80 26 00
        E 0 90 23 38
        E 16 b0 0b 30
        E 32 b0 0b 28
        E 32 b0 0b 20
        E 32 b0 0b 18
        E 16 b0 0b 38
        E 0 80 23 00
        E 0 90 26 38
        E 32 b0 0b 30
        E 32 b0 0b 28
        E 32 b0 0b 20
        E 16 b0 0b 38
        E 0 80 26 00
        E 0 90 23 38
        E 16 b0 0b 30
        E 32 b0 0b 28
        E 32 b0 0b 20
        E 32 b0 0b 18
        E 16 b0 0b 38
        E 0 80 23 00
        E 0 90 21 38
        E 16 b0 0b 30
        E 48 b0 0b 28
        E 32 b0 0b 20
        E 16 b0 0c 20
        E 0 b0 0b 30
        E 0 80 21 00
        E 0 90 2d 30
        E 48 b0 0b 28
        E 64 b0 0b 20
        E 80 b0 0b 18
        E 64 b0 0b 10
        E 16 80 2d 00
        E 96 b0 0b 30
        E 0 90 2f 30
        E 16 b0 0b 28
        E 80 b0 0b 20
        E 64 b0 0b 18
        E 16 80 2f 00
        E 64 b0 0b 30
        E 0 90 30 30
        E 48 b0 0b 28
        E 80 b0 0b 20
        E 64 b0 0b 18
        E 64 b0 0b 10
        E 16 80 30 00
        E 80 b0 0c 40
        E 0 b0 0b 38
        E 0 90 2d 38
        E 16 b0 0b 30
        E 32 b0 0b 28
        E 32 b0 0b 20
        E 32 b0 0b 18
        E 32 b0 0b 10
        E 32 b0 0b 08
        E 32 80 2d 00
        E 32 b0 0b 38
        E 0 90 2d 38
        E 16 b0 0b 30
        E 32 b0 0b 28
        E 32 b0 0b 20
        E 32 b0 0b 18
        E 16 b0 0b 38
        E 0 80 2d 00
        E 0 90 2b 38
        E 16 b0 0b 30
        E 32 b0 0b 28
        E 32 b0 0b 20
        E 32 b0 0b 18
        E 16 b0 0b 38
        E 0 80 2b 00
        E 0 90 28 38
        E 32 b0 0b 30
        E 32 b0 0b 28
        E 32 b0 0b 20
        E 16 b0 0b 38
        E 0 80 28 00
        E 0 90 2b 38
        E 16 b0 0b 30
        E 32 b0 0b 28
        E 32 b0 0b 20
        E 32 b0 0b 18
        E 16 b0 0b 38
        E 0 80 2b 00
        E 0 90 28 38
        E 32 b0 0b 30
        E 32 b0 0b 28
        E 32 b0 0b 20
        E 16 b0 0b 38
        E 0 80 28 00
        E 0 90 26 38
        E 16 b0 0b 30
        E 32 b0 0b 28
        E 32 b0 0b 20
        E 32 b0 0b 18
        E 16 b0 0c 20
        E 0 b0 0b 30
        E 0 80 26 00
        E 0 90 2d 30
        E 64 b0 0b 28
        E 64 b0 0b 20
        E 64 b0 0b 18
        E 64 b0 0b 10
        E 16 80 2d 00
        E 80 b0 0b 30
        E 0 90 2f 30
        E 48 b0 0b 28
        E 64 b0 0b 20
        E 64 b0 0b 18
        E 16 80 2f 00
        E 48 b0 0b 30
        E 0 90 30 30
        E 16 b0 0b 28
        E 64 b0 0b 20
        E 64 b0 0b 18
        E 80 b0 0b 10
        E 48 80 30 00
        E 96 b0 0c 40
        E 0 b0 0b 38
        E 0 90 2d 38
        E 16 b0 0b 30
        E 32 b0 0b 28
        E 32 b0 0b 20
        E 48 b0 0b 18
        E 32 b0 0b 10
        E 32 b0 0b 08
        E 32 80 2d 00
        E 16 b0 0b 38
        E 0 90 2d 38
        E 16 b0 0b 30
        E 32 b0 0b 28
        E 32 b0 0b 20
        E 32 b0 0b 38
        E 0 80 2d 00
        E 0 90 2b 38
        E 16 b0 0b 30
        E 32 b0 0b 28
        E 32 b0 0b 20
        E 32 b0 0b 18
        E 16 b0 0b 38
        E 0 80 2b 00
        E 0 90 28 38
        E 16 b0 0b 30
        E 32 b0 0b 28
        E 32 b0 0b 20
        E 32 b0 0b 18
        E 16 b0 0b 38
        E 0 80 28 00
        E 0 90 2b 38
        E 32 b0 0b 30
        E 32 b0 0b 28
        E 32 b0 0b 20
        E 16 b0 0b 38
        E 0 80 2b 00
        E 0 90 28 38
        E 16 b0 0b 30
        E 32 b0 0b 28
        E 32 b0 0b 20
        E 32 b0 0b 18
        E 16 b0 0b 38
        E 0 80 28 00
        E 0 90 26 38
        E 32 b0 0b 30
        E 32 b0 0b 28
        E 32 b0 0b 20
        E 16 b0 0c 20
        E 0 b0 0b 30
        E 0 80 26 00
        E 0 90 28 30
        E 48 b0 0b 28
        E 64 b0 0b 20
        E 80 b0 0b 18
        E 64 b0 0b 10
        E 16 80 28 00
        E 96 b0 0b 30
        E 0 90 2a 30
        E 16 b0 0b 28
        E 80 b0 0b 20
        E 64 b0 0b 18
        E 16 80 2a 00
        E 64 b0 0b 30
        E 0 90 2b 30
        E 48 b0 0b 28
        E 80 b0 0b 20
        E 64 b0 0b 18
        E 64 b0 0b 10
        E 16 80 2b 00
        E 80 b0 0c 40
        E 0 b0 0b 38
        E 0 90 28 38
        E 16 b0 0b 30
        E 32 b0 0b 28
        E 32 b0 0b 20
        E 32 b0 0b 18
        E 32 b0 0b 10
        E 32 b0 0b 08
        E 32 80 28 00
        E 32 b0 0b 38
        E 0 90 28 38
        E 16 b0 0b 30
        E 32 b0 0b 28
        E 32 b0 0b 20
        E 32 b0 0b 18
        E 16 b0 0b 38
        E 0 80 28 00
        E 0 90 26 38
        E 16 b0 0b 30
        E 32 b0 0b 28
        E 32 b0 0b 20
        E 32 b0 0b 38
        E 0 80 26 00
        E 0 90 23 38
        E 16 b0 0b 30
        E 32 b0 0b 28
        E 32 b0 0b 20
        E 32 b0 0b 18
        E 16 b0 0b 38
        E 0 80 23 00
        E 0 90 26 38
        E 16 b0 0b 30
        E 32 b0 0b 28
        E 32 b0 0b 20
        E 32 b0 0b 18
        E 16 b0 0b 38
        E 0 80 26 00
        E 0 90 23 38
        E 32 b0 0b 30
        E 32 b0 0b 28
        E 32 b0 0b 20
        E 16 b0 0b 38
        E 0 80 23 00
        E 0 90 21 38
        E 16 b0 0b 30
        E 32 b0 0b 28
        E 32 b0 0b 20
        E 32 b0 0b 18
        E 16 b0 0c 20
        E 0 b0 0b 30
        E 0 80 21 00
        E 0 90 28 30
        E 64 b0 0b 28
        E 64 b0 0b 20
        E 64 b0 0b 18
        E 64 b0 0b 10
        E 16 80 28 00
        E 80 b0 0b 30
        E 0 90 2a 30
        E 48 b0 0b 28
        E 64 b0 0b 20
        E 64 80 2a 00
        E 64 b0 0b 30
        E 0 90 2b 30
        E 16 b0 0b 28
        E 64 b0 0b 20
        E 64 b0 0b 18
        E 80 b0 0b 10
        E 48 80 2b 00
        E 96 b0 0c 40
        E 0 b0 0b 38
        E 0 90 28 38
        E 16 b0 0b 30
        E 32 b0 0b 28
        E 48 b0 0b 20
        E 32 b0 0b 18
        E 32 b0 0b 10
        E 32 b0 0b 08
        E 32 80 28 00
        E 16 b0 0b 38
        E 0 90 28 38
        E 16 b0 0b 30
        E 32 b0 0b 28
        E 32 b0 0b 20
        E 32 b0 0b 38
        E 0 80 28 00
        E 0 90 26 38
        E 16 b0 0b 30
        E 32 b0 0b 28
        E 32 b0 0b 20
        E 32 b0 0b 18
        E 16 b0 0b 38
        E 0 80 26 00
        E 0 90 23 38
        E 16 b0 0b 30
        E 32 b0 0b 28
        E 32 b0 0b 20
        E 32 b0 0b 38
        E 0 80 23 00
        E 0 90 26 38
        E 16 b0 0b 30
        E 32 b0 0b 28
        E 32 b0 0b 20
        E 32 b0 0b 18
        E 16 b0 0b 38
        E 0 80 26 00
        E 0 90 23 38
        E 16 b0 0b 30
        E 32 b0 0b 28
        E 32 b0 0b 20
        E 32 b0 0b 18
        E 16 b0 0b 38
        E 0 80 23 00
        E 0 90 21 38
        E 32 b0 0b 30
        E 32 b0 0b 28
        E 32 b0 0b 20
        E 16 b0 0c 20
        E 0 b0 0b 30
        E 0 80 21 00
        E 0 90 2d 30
        E 48 b0 0b 28
        E 64 b0 0b 20
        E 80 b0 0b 18
        E 64 b0 0b 10
        E 16 80 2d 00
        E 96 b0 0b 30
        E 0 90 2f 30
        E 16 b0 0b 28
        E 80 b0 0b 20
        E 64 b0 0b 18
        E 16 80 2f 00
        E 64 b0 0b 30
        E 0 90 30 30
        E 64 b0 0b 28
        E 64 b0 0b 20
        E 64 b0 0b 18
        E 64 b0 0b 10
        E 16 80 30 00
        E 80 b0 0c 40
        E 0 b0 0b 38
        E 0 90 2d 38
        E 16 b0 0b 30
        E 32 b0 0b 28
        E 32 b0 0b 20
        E 32 b0 0b 18
        E 32 b0 0b 10
        E 32 b0 0b 08
        E 48 80 2d 00
        E 16 b0 0b 38
        E 0 90 2d 38
        E 16 b0 0b 30
        E 32 b0 0b 28
        E 32 b0 0b 20
        E 32 b0 0b 18
        E 16 b0 0b 38
        E 0 80 2d 00
        E 0 90 2b 38
        E 16 b0 0b 30
        E 32 b0 0b 28
        E 32 b0 0b 20
        E 32 b0 0b 38
        E 0 80 2b 00
        E 0 90 28 38
        E 16 b0 0b 30
        E 32 b0 0b 28
        E 32 b0 0b 20
        E 32 b0 0b 18
        E 16 b0 0b 38
        E 0 80 28 00
        E 0 90 2b 38
        E 16 b0 0b 30
        E 32 b0 0b 28
        E 32 b0 0b 20
        E 32 b0 0b 38
        E 0 80 2b 00
        E 0 90 28 38
        E 16 b0 0b 30
        E 32 b0 0b 28
        E 32 b0 0b 20
        E 32 b0 0b 18
        E 16 b0 0b 38
        E 0 80 28 00
        E 0 90 26 38
        E 16 b0 0b 30
        E 32 b0 0b 28
        E 32 b0 0b 20
        E 32 b0 0b 18
        E 16 b0 0c 20
        E 0 b0 0b 30
        E 0 80 26 00
        E 0 90 2d 30
        E 64 b0 0b 28
        E 64 b0 0b 20
        E 64 b0 0b 18
        E 64 80 2d 00
        E 96 b0 0b 30
        E 0 90 2f 30
        E 48 b0 0b 28
        E 64 b0 0b 20
        E 64 80 2f 00
        E 64 b0 0b 30
        E 0 90 30 30
        E 16 b0 0b 28
        E 64 b0 0b 20
        E 64 b0 0b 18
        E 80 b0 0b 10
        E 48 80 30 00
        E 96 b0 0c 40
        E 0 b0 0b 38
        E 0 90 2d 38
        E 16 b0 0b 30
        E 32 b0 0b 28
        E 48 b0 0b 20
        E 32 b0 0b 18
        E 32 b0 0b 10
        E 32 b0 0b 08
        E 32 80 2d 00
        E 16 b0 0b 38
        E 0 90 2d 38
        E 16 b0 0b 30
        E 32 b0 0b 28
        E 48 b0 0b 20
        E 16 b0 0b 38
        E 0 80 2d 00
        E 0 90 2b 38
        E 16 b0 0b 30
        E 32 b0 0b 28
        E 32 b0 0b 20
        E 32 b0 0b 18
        E 16 b0 0b 38
        E 0 80 2b 00
        E 0 90 28 38
        E 16 b0 0b 30
        E 32 b0 0b 28
        E 32 b0 0b 20
        E 32 b0 0b 38
        E 0 80 28 00
        E 0 90 2b 38
        E 16 b0 0b 30
        E 32 b0 0b 28
        E 32 b0 0b 20
        E 32 b0 0b 18
        E 16 80 2b 00
        E 0 ff 2f 00
      >
    >
  >
  <TRACK {71116E9F-E81E-4721-9E20-A7B2E109C242}
    NAME "NES - Pulse 2 [ch1]"
    PEAKCOL 10092441
    BEAT -1
    AUTOMODE 0
    PANLAWFLAGS 3
    VOLPAN 1 0 -1 -1 1
    MUTESOLO 0 0 0
    IPHASE 0
    PLAYOFFS 0 1
    ISBUS 0 0
    BUSCOMP 0 0 0 0 0
    SHOWINMIX 1 0.6667 0.5 1 0.5 0 0 0
    FIXEDLANES 9 0 0 0 0
    SEL 0
    REC 0 5088 1 0 0 0 0 0
    VU 2
    TRACKHEIGHT 0 0 0 0 0 0 0
    INQ 0 0 0 0.5 100 0 0 100
    NCHAN 2
    FX 1
    TRACKID {71116E9F-E81E-4721-9E20-A7B2E109C242}
    PERF 0
    MIDIOUT -1
    MAINSEND 1 0
    <FXCHAIN
      WNDRECT 24 52 700 560
      SHOW 0
      LASTSEL 0
      DOCKED 0
      BYPASS 0 0 0
      <JS "ReapNES Studio/ReapNES_Console.jsfx" ""
        2 15 1 10 80 10 100 2 1 15 1 5 60 10 80 1 1 0 50 0 0 15 1 0 100 0 0 0.500000 0.500000 0.400000 0.300000 0.800000 1 1 0 0 0 0 - - - - - - - - - - - - - - - - - - - - - - - - - -
      >
      FLOATPOS 0 0 0 0
      FXID {BE7EABEE-1DD5-488D-8DAA-69A63A10A9A6}
      WAK 0 0
    >
    <ITEM
      POSITION 0
      LENGTH 83.98134
      LOOP 0
      ALLTAKES 0
      FADEIN 0 0 0 0 0 0 0
      FADEOUT 0 0 0 0 0 0 0
      MUTE 0 0
      SEL 0
      IGUID {E2B6FB39-3329-490B-A5B9-00C56895FEE3}
      <SOURCE MIDI
        HASDATA 1 480 QN
        CCINTERP 32
        E 0 c1 51
        E 48 b1 0c 20
        E 0 b1 0b 28
        E 0 91 23 28
        E 16 b1 0b 20
        E 32 b1 0b 18
        E 32 b1 0b 10
        E 32 b1 0b 08
        E 16 b1 0b 28
        E 16 b1 0b 20
        E 32 b1 0b 18
        E 48 b1 0b 10
        E 16 b1 0b 28
        E 16 b1 0b 20
        E 32 b1 0b 18
        E 32 b1 0b 10
        E 32 b1 0b 08
        E 16 b1 0b 28
        E 16 b1 0b 20
        E 32 b1 0b 18
        E 48 b1 0b 10
        E 16 b1 0b 28
        E 16 b1 0b 20
        E 32 b1 0b 18
        E 32 b1 0b 10
        E 32 b1 0b 08
        E 16 b1 0b 28
        E 16 b1 0b 20
        E 32 b1 0b 18
        E 32 b1 0b 10
        E 32 b1 0b 28
        E 16 b1 0b 20
        E 32 b1 0b 18
        E 32 b1 0b 10
        E 32 b1 0b 08
        E 16 81 23 00
        E 144 b1 0c 40
        E 0 b1 0b 18
        E 0 91 28 18
        E 48 b1 0b 10
        E 64 b1 0b 08
        E 128 b1 0b 18
        E 80 b1 0b 10
        E 48 b1 0b 18
        E 0 81 28 00
        E 0 91 26 18
        E 48 b1 0b 10
        E 64 b1 0b 18
        E 0 81 26 00
        E 0 91 23 18
        E 48 b1 0b 10
        E 64 b1 0b 08
        E 16 b1 0b 18
        E 0 81 23 00
        E 0 91 26 18
        E 80 b1 0b 10
        E 48 b1 0b 18
        E 0 81 26 00
        E 0 91 23 18
        E 64 b1 0b 10
        E 16 b1 0c 20
        E 0 b1 0b 30
        E 48 b1 0b 28
        E 64 b1 0b 20
        E 80 b1 0b 18
        E 64 b1 0b 10
        E 16 81 23 00
        E 96 b1 0b 30
        E 0 91 25 30
        E 16 b1 0b 28
        E 80 b1 0b 20
        E 64 b1 0b 18
        E 16 81 25 00
        E 64 b1 0b 30
        E 0 91 26 30
        E 48 b1 0b 28
        E 80 b1 0b 20
        E 64 b1 0b 18
        E 64 b1 0b 10
        E 16 81 26 00
        E 240 b1 0c 40
        E 0 b1 0b 18
        E 0 91 28 18
        E 96 b1 0b 10
        E 64 b1 0b 08
        E 80 b1 0b 18
        E 80 b1 0b 10
        E 32 b1 0b 18
        E 0 81 28 00
        E 0 91 26 18
        E 80 b1 0b 10
        E 48 b1 0b 18
        E 0 81 26 00
        E 0 91 23 18
        E 48 b1 0b 10
        E 64 b1 0b 18
        E 0 81 23 00
        E 0 91 26 18
        E 48 b1 0b 10
        E 64 b1 0b 08
        E 16 b1 0b 18
        E 0 81 26 00
        E 0 91 23 18
        E 80 b1 0b 10
        E 16 b1 0c 20
        E 0 b1 0b 30
        E 64 b1 0b 28
        E 64 b1 0b 20
        E 64 b1 0b 18
        E 64 b1 0b 10
        E 16 81 23 00
        E 80 b1 0b 30
        E 0 91 25 30
        E 48 b1 0b 28
        E 64 b1 0b 20
        E 64 b1 0b 18
        E 16 81 25 00
        E 48 b1 0b 30
        E 0 91 26 30
        E 16 b1 0b 28
        E 64 b1 0b 20
        E 64 b1 0b 18
        E 80 b1 0b 10
        E 48 81 26 00
        E 240 b1 0c 40
        E 0 b1 0b 18
        E 0 91 28 18
        E 48 b1 0b 10
        E 64 b1 0b 08
        E 128 b1 0b 18
        E 80 b1 0b 10
        E 48 b1 0b 18
        E 0 81 28 00
        E 0 91 26 18
        E 48 b1 0b 10
        E 64 b1 0b 18
        E 0 81 26 00
        E 0 91 23 18
        E 48 b1 0b 10
        E 64 b1 0b 08
        E 16 b1 0b 18
        E 0 81 23 00
        E 0 91 26 18
        E 80 b1 0b 10
        E 32 b1 0b 18
        E 0 81 26 00
        E 0 91 23 18
        E 80 b1 0b 10
        E 16 b1 0c 20
        E 0 b1 0b 30
        E 0 81 23 00
        E 0 91 28 30
        E 48 b1 0b 28
        E 64 b1 0b 20
        E 80 b1 0b 18
        E 64 b1 0b 10
        E 16 81 28 00
        E 96 b1 0b 30
        E 0 91 2a 30
        E 16 b1 0b 28
        E 80 b1 0b 20
        E 64 b1 0b 18
        E 16 81 2a 00
        E 64 b1 0b 30
        E 0 91 2b 30
        E 48 b1 0b 28
        E 80 b1 0b 20
        E 64 b1 0b 18
        E 64 b1 0b 10
        E 16 81 2b 00
        E 240 b1 0c 40
        E 0 b1 0b 18
        E 0 91 2d 18
        E 96 b1 0b 10
        E 64 b1 0b 08
        E 80 b1 0b 18
        E 96 b1 0b 10
        E 16 b1 0b 18
        E 0 81 2d 00
        E 0 91 2b 18
        E 80 b1 0b 10
        E 48 b1 0b 18
        E 0 81 2b 00
        E 0 91 28 18
        E 48 b1 0b 10
        E 64 b1 0b 18
        E 0 81 28 00
        E 0 91 2b 18
        E 48 b1 0b 10
        E 64 b1 0b 08
        E 16 b1 0b 18
        E 0 81 2b 00
        E 0 91 28 18
        E 80 b1 0b 10
        E 16 b1 0c 20
        E 0 b1 0b 30
        E 64 b1 0b 28
        E 64 b1 0b 20
        E 64 b1 0b 18
        E 64 b1 0b 10
        E 16 81 28 00
        E 80 b1 0b 30
        E 0 91 2a 30
        E 48 b1 0b 28
        E 64 b1 0b 20
        E 64 81 2a 00
        E 64 b1 0b 30
        E 0 91 2b 30
        E 16 b1 0b 28
        E 64 b1 0b 20
        E 64 b1 0b 18
        E 80 b1 0b 10
        E 48 81 2b 00
        E 240 b1 0c 40
        E 0 b1 0b 18
        E 0 91 2d 18
        E 48 b1 0b 10
        E 64 b1 0b 08
        E 128 b1 0b 18
        E 80 b1 0b 10
        E 48 b1 0b 18
        E 0 81 2d 00
        E 0 91 2b 18
        E 48 b1 0b 10
        E 64 b1 0b 18
        E 0 81 2b 00
        E 0 91 28 18
        E 48 b1 0b 10
        E 64 b1 0b 08
        E 16 b1 0b 18
        E 0 81 28 00
        E 0 91 2b 18
        E 80 b1 0b 10
        E 32 b1 0b 18
        E 0 81 2b 00
        E 0 91 28 18
        E 80 b1 0b 10
        E 16 b1 0c 20
        E 0 b1 0b 30
        E 0 81 28 00
        E 0 91 23 30
        E 48 b1 0b 28
        E 64 b1 0b 20
        E 80 b1 0b 18
        E 64 b1 0b 10
        E 16 81 23 00
        E 96 b1 0b 30
        E 0 91 25 30
        E 16 b1 0b 28
        E 80 b1 0b 20
        E 64 b1 0b 18
        E 16 81 25 00
        E 64 b1 0b 30
        E 0 91 26 30
        E 64 b1 0b 28
        E 64 b1 0b 20
        E 64 b1 0b 18
        E 64 b1 0b 10
        E 16 81 26 00
        E 240 b1 0c 40
        E 0 b1 0b 18
        E 0 91 28 18
        E 96 b1 0b 10
        E 64 b1 0b 08
        E 80 b1 0b 18
        E 96 b1 0b 10
        E 16 b1 0b 18
        E 0 81 28 00
        E 0 91 26 18
        E 80 b1 0b 10
        E 48 b1 0b 18
        E 0 81 26 00
        E 0 91 23 18
        E 48 b1 0b 10
        E 64 b1 0b 18
        E 0 81 23 00
        E 0 91 26 18
        E 48 b1 0b 10
        E 64 b1 0b 08
        E 16 b1 0b 18
        E 0 81 26 00
        E 0 91 23 18
        E 80 b1 0b 10
        E 16 b1 0c 20
        E 0 b1 0b 30
        E 64 b1 0b 28
        E 64 b1 0b 20
        E 64 b1 0b 18
        E 64 81 23 00
        E 96 b1 0b 30
        E 0 91 25 30
        E 48 b1 0b 28
        E 64 b1 0b 20
        E 64 81 25 00
        E 64 b1 0b 30
        E 0 91 26 30
        E 16 b1 0b 28
        E 64 b1 0b 20
        E 64 b1 0b 18
        E 80 b1 0b 10
        E 48 81 26 00
        E 240 b1 0c 40
        E 0 b1 0b 18
        E 0 91 28 18
        E 48 b1 0b 10
        E 64 b1 0b 08
        E 128 b1 0b 18
        E 80 b1 0b 10
        E 48 b1 0b 18
        E 0 81 28 00
        E 0 91 26 18
        E 48 b1 0b 10
        E 64 b1 0b 18
        E 0 81 26 00
        E 0 91 23 18
        E 48 b1 0b 10
        E 64 b1 0b 08
        E 16 b1 0b 18
        E 0 81 23 00
        E 0 91 26 18
        E 96 b1 0b 10
        E 16 b1 0b 18
        E 0 81 26 00
        E 0 91 23 18
        E 80 b1 0b 10
        E 16 b1 0c 20
        E 0 b1 0b 30
        E 0 81 23 00
        E 0 91 28 30
        E 48 b1 0b 28
        E 64 b1 0b 20
        E 80 b1 0b 18
        E 64 b1 0b 10
        E 16 81 28 00
        E 96 b1 0b 30
        E 0 91 2a 30
        E 32 b1 0b 28
        E 64 b1 0b 20
        E 64 b1 0b 18
        E 16 81 2a 00
        E 64 b1 0b 30
        E 0 91 2b 30
        E 64 b1 0b 28
        E 64 b1 0b 20
        E 64 b1 0b 18
        E 64 b1 0b 10
        E 16 81 2b 00
        E 240 b1 0c 40
        E 0 b1 0b 18
        E 0 91 2d 18
        E 96 b1 0b 10
        E 64 b1 0b 08
        E 80 b1 0b 18
        E 96 b1 0b 10
        E 16 b1 0b 18
        E 0 81 2d 00
        E 0 91 2b 18
        E 80 b1 0b 10
        E 48 b1 0b 18
        E 0 81 2b 00
        E 0 91 28 18
        E 48 b1 0b 10
        E 64 b1 0b 18
        E 0 81 28 00
        E 0 91 2b 18
        E 48 b1 0b 10
        E 64 b1 0b 08
        E 16 b1 0b 18
        E 0 81 2b 00
        E 0 91 28 18
        E 80 b1 0c 20
        E 0 b1 0b 30
        E 48 b1 0b 28
        E 64 b1 0b 20
        E 64 b1 0b 18
        E 64 b1 0b 10
        E 32 81 28 00
        E 96 b1 0b 30
        E 0 91 2a 30
        E 16 b1 0b 28
        E 64 b1 0b 20
        E 80 b1 0b 18
        E 16 81 2a 00
        E 64 b1 0b 30
        E 0 91 2b 30
        E 48 b1 0b 28
        E 64 b1 0b 20
        E 80 b1 0b 18
        E 64 b1 0b 10
        E 16 81 2b 00
        E 240 b1 0c 40
        E 0 b1 0b 18
        E 0 91 2d 18
        E 48 b1 0b 10
        E 64 b1 0b 08
        E 128 b1 0b 18
        E 80 b1 0b 10
        E 48 b1 0b 18
        E 0 81 2d 00
        E 0 91 2b 18
        E 64 b1 0b 10
        E 48 b1 0b 18
        E 0 81 2b 00
        E 0 91 28 18
        E 48 b1 0b 10
        E 64 b1 0b 08
        E 16 b1 0b 18
        E 0 81 28 00
        E 0 91 2b 18
        E 96 b1 0b 10
        E 16 b1 0b 18
        E 0 81 2b 00
        E 0 91 28 18
        E 80 b1 0b 10
        E 16 b1 0c 20
        E 0 b1 0b 30
        E 0 81 28 00
        E 0 91 23 30
        E 48 b1 0b 28
        E 80 b1 0b 20
        E 64 b1 0b 18
        E 64 b1 0b 10
        E 16 81 23 00
        E 96 b1 0b 30
        E 0 91 25 30
        E 32 b1 0b 28
        E 64 b1 0b 20
        E 64 b1 0b 18
        E 16 81 25 00
        E 64 b1 0b 30
        E 0 91 26 30
        E 64 b1 0b 28
        E 64 b1 0b 20
        E 64 b1 0b 18
        E 64 b1 0b 10
        E 16 81 26 00
        E 240 b1 0c 40
        E 0 b1 0b 18
        E 0 91 28 18
        E 96 b1 0b 10
        E 64 b1 0b 08
        E 80 b1 0b 18
        E 96 b1 0b 10
        E 16 b1 0b 18
        E 0 81 28 00
        E 0 91 26 18
        E 80 b1 0b 10
        E 48 b1 0b 18
        E 0 81 26 00
        E 0 91 23 18
        E 64 b1 0b 10
        E 48 b1 0b 18
        E 0 81 23 00
        E 0 91 26 18
        E 48 b1 0b 10
        E 64 b1 0b 08
        E 16 b1 0b 18
        E 0 81 26 00
        E 0 91 23 18
        E 80 b1 0c 20
        E 0 b1 0b 30
        E 48 b1 0b 28
        E 64 b1 0b 20
        E 64 b1 0b 18
        E 80 b1 0b 10
        E 16 81 23 00
        E 96 b1 0b 30
        E 0 91 25 30
        E 16 b1 0b 28
        E 64 b1 0b 20
        E 80 b1 0b 18
        E 16 81 25 00
        E 64 b1 0b 30
        E 0 91 26 30
        E 48 b1 0b 28
        E 64 b1 0b 20
        E 80 b1 0b 18
        E 64 b1 0b 10
        E 16 81 26 00
        E 240 b1 0c 40
        E 0 b1 0b 18
        E 0 91 28 18
        E 48 b1 0b 10
        E 64 b1 0b 08
        E 128 b1 0b 18
        E 80 b1 0b 10
        E 48 b1 0b 18
        E 0 81 28 00
        E 0 91 26 18
        E 64 b1 0b 10
        E 48 b1 0b 18
        E 0 81 26 00
        E 0 91 23 18
        E 48 b1 0b 10
        E 64 b1 0b 08
        E 16 b1 0b 18
        E 0 81 23 00
        E 0 91 26 18
        E 96 b1 0b 10
        E 16 b1 0b 18
        E 0 81 26 00
        E 0 91 23 18
        E 80 b1 0b 10
        E 16 b1 0c 20
        E 0 b1 0b 30
        E 0 81 23 00
        E 0 91 28 30
        E 48 b1 0b 28
        E 80 b1 0b 20
        E 64 b1 0b 18
        E 64 b1 0b 10
        E 16 81 28 00
        E 80 b1 0b 30
        E 0 91 2a 30
        E 48 b1 0b 28
        E 64 b1 0b 20
        E 64 b1 0b 18
        E 16 81 2a 00
        E 64 b1 0b 30
        E 0 91 2b 30
        E 64 b1 0b 28
        E 64 b1 0b 20
        E 64 b1 0b 18
        E 64 81 2b 00
        E 256 b1 0c 40
        E 0 91 2d 18
        E 96 b1 0b 10
        E 64 b1 0b 08
        E 80 b1 0b 18
        E 96 b1 0b 10
        E 16 b1 0b 18
        E 0 81 2d 00
        E 0 91 2b 18
        E 80 b1 0b 10
        E 48 b1 0b 18
        E 0 81 2b 00
        E 0 91 28 18
        E 64 b1 0b 10
        E 48 b1 0b 18
        E 0 81 28 00
        E 0 91 2b 18
        E 48 b1 0b 10
        E 64 b1 0b 08
        E 16 b1 0b 18
        E 0 81 2b 00
        E 0 91 28 18
        E 80 b1 0c 20
        E 0 b1 0b 30
        E 48 b1 0b 28
        E 64 b1 0b 20
        E 64 b1 0b 18
        E 80 b1 0b 10
        E 16 81 28 00
        E 96 b1 0b 30
        E 0 91 2a 30
        E 16 b1 0b 28
        E 64 b1 0b 20
        E 80 b1 0b 18
        E 16 81 2a 00
        E 64 b1 0b 30
        E 0 91 2b 30
        E 48 b1 0b 28
        E 64 b1 0b 20
        E 80 b1 0b 18
        E 64 b1 0b 10
        E 16 81 2b 00
        E 240 b1 0c 40
        E 0 b1 0b 18
        E 0 91 2d 18
        E 48 b1 0b 10
        E 64 b1 0b 08
        E 128 b1 0b 18
        E 80 b1 0b 10
        E 48 b1 0b 18
        E 0 81 2d 00
        E 0 91 2b 18
        E 64 b1 0b 10
        E 48 b1 0b 18
        E 0 81 2b 00
        E 0 91 28 18
        E 48 b1 0b 10
        E 64 b1 0b 08
        E 16 b1 0b 18
        E 0 81 28 00
        E 0 91 2b 18
        E 96 b1 0b 10
        E 16 b1 0b 18
        E 0 81 2b 00
        E 0 91 28 18
        E 80 b1 0b 10
        E 16 b1 0c 20
        E 0 b1 0b 30
        E 0 81 28 00
        E 0 91 23 30
        E 48 b1 0b 28
        E 80 b1 0b 20
        E 64 b1 0b 18
        E 64 b1 0b 10
        E 16 81 23 00
        E 80 b1 0b 30
        E 0 91 25 30
        E 48 b1 0b 28
        E 64 b1 0b 20
        E 64 b1 0b 18
        E 16 81 25 00
        E 48 b1 0b 30
        E 0 91 26 30
        E 16 b1 0b 28
        E 64 b1 0b 20
        E 64 b1 0b 18
        E 64 b1 0b 10
        E 64 81 26 00
        E 240 b1 0c 40
        E 0 b1 0b 18
        E 0 91 28 18
        E 48 b1 0b 10
        E 64 b1 0b 08
        E 144 b1 0b 18
        E 96 b1 0b 10
        E 16 b1 0b 18
        E 0 81 28 00
        E 0 91 26 18
        E 80 b1 0b 10
        E 48 b1 0b 18
        E 0 81 26 00
        E 0 91 23 18
        E 64 b1 0b 10
        E 48 b1 0b 18
        E 0 81 23 00
        E 0 91 26 18
        E 48 b1 0b 10
        E 64 b1 0b 08
        E 16 b1 0b 18
        E 0 81 26 00
        E 0 91 23 18
        E 80 b1 0c 20
        E 0 b1 0b 30
        E 48 b1 0b 28
        E 64 b1 0b 20
        E 64 b1 0b 18
        E 80 b1 0b 10
        E 16 81 23 00
        E 96 b1 0b 30
        E 0 91 25 30
        E 16 b1 0b 28
        E 64 b1 0b 20
        E 80 b1 0b 18
        E 16 81 25 00
        E 64 b1 0b 30
        E 0 91 26 30
        E 48 b1 0b 28
        E 80 b1 0b 20
        E 64 b1 0b 18
        E 64 b1 0b 10
        E 16 81 26 00
        E 240 b1 0c 40
        E 0 b1 0b 18
        E 0 91 28 18
        E 48 b1 0b 10
        E 80 b1 0b 08
        E 112 b1 0b 18
        E 80 b1 0b 10
        E 48 b1 0b 18
        E 0 81 28 00
        E 0 91 26 18
        E 64 b1 0b 10
        E 48 b1 0b 18
        E 0 81 26 00
        E 0 91 23 18
        E 48 b1 0b 10
        E 64 b1 0b 08
        E 16 b1 0b 18
        E 0 81 23 00
        E 0 91 26 18
        E 96 b1 0b 10
        E 16 b1 0b 18
        E 0 81 26 00
        E 0 91 23 18
        E 80 b1 0b 10
        E 16 b1 0c 20
        E 0 b1 0b 30
        E 0 81 23 00
        E 0 91 28 30
        E 48 b1 0b 28
        E 80 b1 0b 20
        E 64 b1 0b 18
        E 64 b1 0b 10
        E 16 81 28 00
        E 80 b1 0b 30
        E 0 91 2a 30
        E 48 b1 0b 28
        E 64 b1 0b 20
        E 64 b1 0b 18
        E 16 81 2a 00
        E 48 b1 0b 30
        E 0 91 2b 30
        E 16 b1 0b 28
        E 64 b1 0b 20
        E 64 b1 0b 18
        E 64 b1 0b 10
        E 64 81 2b 00
        E 240 b1 0c 40
        E 0 b1 0b 18
        E 0 91 2d 18
        E 48 b1 0b 10
        E 64 b1 0b 08
        E 128 b1 0b 18
        E 80 b1 0b 10
        E 48 b1 0b 18
        E 0 81 2d 00
        E 0 91 2b 18
        E 48 b1 0b 10
        E 64 b1 0b 08
        E 16 b1 0b 18
        E 0 81 2b 00
        E 0 91 28 18
        E 96 b1 0b 10
        E 16 b1 0b 18
        E 0 81 28 00
        E 0 91 2b 18
        E 80 b1 0b 10
        E 48 b1 0b 18
        E 0 81 2b 00
        E 0 91 28 18
        E 64 b1 0b 10
        E 16 b1 0c 20
        E 0 b1 0b 30
        E 48 b1 0b 28
        E 64 b1 0b 20
        E 64 b1 0b 18
        E 80 b1 0b 10
        E 16 81 28 00
        E 96 b1 0b 30
        E 0 91 2a 30
        E 16 b1 0b 28
        E 80 b1 0b 20
        E 64 b1 0b 18
        E 16 81 2a 00
        E 64 b1 0b 30
        E 0 91 2b 30
        E 48 b1 0b 28
        E 80 b1 0b 20
        E 64 b1 0b 18
        E 64 b1 0b 10
        E 16 81 2b 00
        E 240 b1 0c 40
        E 0 b1 0b 18
        E 0 91 2d 18
        E 80 b1 0b 10
        E 80 b1 0b 08
        E 80 b1 0b 18
        E 80 b1 0b 10
        E 32 b1 0b 18
        E 0 81 2d 00
        E 0 91 2b 18
        E 80 b1 0b 10
        E 48 b1 0b 18
        E 0 81 2b 00
        E 0 91 28 18
        E 48 b1 0b 10
        E 64 b1 0b 08
        E 16 b1 0b 18
        E 0 81 28 00
        E 0 91 2b 18
        E 96 b1 0b 10
        E 16 b1 0b 18
        E 0 81 2b 00
        E 0 91 28 18
        E 80 b1 0b 10
        E 16 b1 0c 20
        E 0 b1 0b 30
        E 0 81 28 00
        E 0 91 23 30
        E 64 b1 0b 28
        E 64 b1 0b 20
        E 64 b1 0b 18
        E 64 b1 0b 10
        E 16 81 23 00
        E 80 b1 0b 30
        E 0 91 25 30
        E 48 b1 0b 28
        E 64 b1 0b 20
        E 64 b1 0b 18
        E 16 81 25 00
        E 48 b1 0b 30
        E 0 91 26 30
        E 16 b1 0b 28
        E 64 b1 0b 20
        E 64 b1 0b 18
        E 64 b1 0b 10
        E 64 81 26 00
        E 240 b1 0c 40
        E 0 b1 0b 18
        E 0 91 28 18
        E 48 b1 0b 10
        E 64 b1 0b 08
        E 128 b1 0b 18
        E 80 b1 0b 10
        E 48 b1 0b 18
        E 0 81 28 00
        E 0 91 26 18
        E 48 b1 0b 10
        E 64 b1 0b 18
        E 0 81 26 00
        E 0 91 23 18
        E 48 b1 0b 10
        E 64 b1 0b 08
        E 16 b1 0b 18
        E 0 81 23 00
        E 0 91 26 18
        E 80 b1 0b 10
        E 48 b1 0b 18
        E 0 81 26 00
        E 0 91 23 18
        E 64 b1 0b 10
        E 16 b1 0c 20
        E 0 b1 0b 30
        E 48 b1 0b 28
        E 64 b1 0b 20
        E 80 b1 0b 18
        E 64 b1 0b 10
        E 16 81 23 00
        E 96 b1 0b 30
        E 0 91 25 30
        E 16 b1 0b 28
        E 80 b1 0b 20
        E 64 b1 0b 18
        E 16 81 25 00
        E 64 b1 0b 30
        E 0 91 26 30
        E 48 b1 0b 28
        E 80 b1 0b 20
        E 64 b1 0b 18
        E 64 b1 0b 10
        E 16 81 26 00
        E 240 b1 0c 40
        E 0 b1 0b 18
        E 0 91 28 18
        E 96 b1 0b 10
        E 64 b1 0b 08
        E 80 b1 0b 18
        E 80 b1 0b 10
        E 32 b1 0b 18
        E 0 81 28 00
        E 0 91 26 18
        E 80 b1 0b 10
        E 48 b1 0b 18
        E 0 81 26 00
        E 0 91 23 18
        E 48 b1 0b 10
        E 64 b1 0b 18
        E 0 81 23 00
        E 0 91 26 18
        E 48 b1 0b 10
        E 64 b1 0b 08
        E 16 b1 0b 18
        E 0 81 26 00
        E 0 91 23 18
        E 80 b1 0b 10
        E 16 b1 0c 20
        E 0 b1 0b 30
        E 0 81 23 00
        E 0 91 28 30
        E 64 b1 0b 28
        E 64 b1 0b 20
        E 64 b1 0b 18
        E 64 b1 0b 10
        E 16 81 28 00
        E 80 b1 0b 30
        E 0 91 2a 30
        E 48 b1 0b 28
        E 64 b1 0b 20
        E 64 b1 0b 18
        E 16 81 2a 00
        E 48 b1 0b 30
        E 0 91 2b 30
        E 16 b1 0b 28
        E 64 b1 0b 20
        E 64 b1 0b 18
        E 80 b1 0b 10
        E 48 81 2b 00
        E 240 b1 0c 40
        E 0 b1 0b 18
        E 0 91 2d 18
        E 48 b1 0b 10
        E 64 b1 0b 08
        E 128 b1 0b 18
        E 80 b1 0b 10
        E 48 b1 0b 18
        E 0 81 2d 00
        E 0 91 2b 18
        E 48 b1 0b 10
        E 64 b1 0b 18
        E 0 81 2b 00
        E 0 91 28 18
        E 48 b1 0b 10
        E 64 b1 0b 08
        E 16 b1 0b 18
        E 0 81 28 00
        E 0 91 2b 18
        E 80 b1 0b 10
        E 32 b1 0b 18
        E 0 81 2b 00
        E 0 91 28 18
        E 80 b1 0b 10
        E 16 b1 0c 20
        E 0 b1 0b 30
        E 48 b1 0b 28
        E 64 b1 0b 20
        E 80 b1 0b 18
        E 64 b1 0b 10
        E 16 81 28 00
        E 96 b1 0b 30
        E 0 91 2a 30
        E 16 b1 0b 28
        E 80 b1 0b 20
        E 64 b1 0b 18
        E 16 81 2a 00
        E 64 b1 0b 30
        E 0 91 2b 30
        E 48 b1 0b 28
        E 80 b1 0b 20
        E 64 b1 0b 18
        E 64 b1 0b 10
        E 16 81 2b 00
        E 240 b1 0c 40
        E 0 b1 0b 18
        E 0 91 2d 18
        E 96 b1 0b 10
        E 64 b1 0b 08
        E 80 b1 0b 18
        E 96 b1 0b 10
        E 16 b1 0b 18
        E 0 81 2d 00
        E 0 91 2b 18
        E 80 b1 0b 10
        E 48 b1 0b 18
        E 0 81 2b 00
        E 0 91 28 18
        E 48 b1 0b 10
        E 64 b1 0b 18
        E 0 81 28 00
        E 0 91 2b 18
        E 48 b1 0b 10
        E 64 b1 0b 08
        E 16 b1 0b 18
        E 0 81 2b 00
        E 0 91 28 18
        E 80 b1 0b 10
        E 16 b1 0c 20
        E 0 b1 0b 30
        E 0 81 28 00
        E 0 91 23 30
        E 64 b1 0b 28
        E 64 b1 0b 20
        E 64 b1 0b 18
        E 64 b1 0b 10
        E 16 81 23 00
        E 80 b1 0b 30
        E 0 91 25 30
        E 48 b1 0b 28
        E 64 b1 0b 20
        E 64 81 25 00
        E 64 b1 0b 30
        E 0 91 26 30
        E 16 b1 0b 28
        E 64 b1 0b 20
        E 64 b1 0b 18
        E 80 b1 0b 10
        E 48 81 26 00
        E 240 b1 0c 40
        E 0 b1 0b 18
        E 0 91 28 18
        E 48 b1 0b 10
        E 64 b1 0b 08
        E 128 b1 0b 18
        E 80 b1 0b 10
        E 48 b1 0b 18
        E 0 81 28 00
        E 0 91 26 18
        E 48 b1 0b 10
        E 64 b1 0b 18
        E 0 81 26 00
        E 0 91 23 18
        E 48 b1 0b 10
        E 64 b1 0b 08
        E 16 b1 0b 18
        E 0 81 23 00
        E 0 91 26 18
        E 80 b1 0b 10
        E 32 b1 0b 18
        E 0 81 26 00
        E 0 91 23 18
        E 80 b1 0b 10
        E 16 b1 0c 20
        E 0 b1 0b 30
        E 48 b1 0b 28
        E 64 b1 0b 20
        E 80 b1 0b 18
        E 64 b1 0b 10
        E 16 81 23 00
        E 96 b1 0b 30
        E 0 91 25 30
        E 16 b1 0b 28
        E 80 b1 0b 20
        E 64 b1 0b 18
        E 16 81 25 00
        E 64 b1 0b 30
        E 0 91 26 30
        E 64 b1 0b 28
        E 64 b1 0b 20
        E 64 b1 0b 18
        E 64 b1 0b 10
        E 16 81 26 00
        E 240 b1 0c 40
        E 0 b1 0b 18
        E 0 91 28 18
        E 96 b1 0b 10
        E 64 b1 0b 08
        E 80 b1 0b 18
        E 96 b1 0b 10
        E 16 b1 0b 18
        E 0 81 28 00
        E 0 91 26 18
        E 80 b1 0b 10
        E 48 b1 0b 18
        E 0 81 26 00
        E 0 91 23 18
        E 48 b1 0b 10
        E 64 b1 0b 18
        E 0 81 23 00
        E 0 91 26 18
        E 48 b1 0b 10
        E 64 b1 0b 08
        E 16 b1 0b 18
        E 0 81 26 00
        E 0 91 23 18
        E 80 b1 0b 10
        E 16 b1 0c 20
        E 0 b1 0b 30
        E 0 81 23 00
        E 0 91 28 30
        E 64 b1 0b 28
        E 64 b1 0b 20
        E 64 b1 0b 18
        E 64 81 28 00
        E 96 b1 0b 30
        E 0 91 2a 30
        E 48 b1 0b 28
        E 64 b1 0b 20
        E 64 81 2a 00
        E 64 b1 0b 30
        E 0 91 2b 30
        E 16 b1 0b 28
        E 64 b1 0b 20
        E 64 b1 0b 18
        E 80 b1 0b 10
        E 48 81 2b 00
        E 240 b1 0c 40
        E 0 b1 0b 18
        E 0 91 2d 18
        E 48 b1 0b 10
        E 64 b1 0b 08
        E 128 b1 0b 18
        E 80 b1 0b 10
        E 48 b1 0b 18
        E 0 81 2d 00
        E 0 91 2b 18
        E 48 b1 0b 10
        E 64 b1 0b 18
        E 0 81 2b 00
        E 0 91 28 18
        E 48 b1 0b 10
        E 64 b1 0b 08
        E 16 b1 0b 18
        E 0 81 28 00
        E 0 91 2b 18
        E 96 b1 0b 10
        E 16 b1 0b 18
        E 0 81 2b 00
        E 0 91 28 18
        E 80 b1 0b 10
        E 16 b1 0c 20
        E 0 b1 0b 30
        E 48 b1 0b 28
        E 64 b1 0b 20
        E 80 b1 0b 18
        E 64 b1 0b 10
        E 16 81 28 00
        E 96 b1 0b 30
        E 0 91 2a 30
        E 32 b1 0b 28
        E 64 b1 0b 20
        E 64 b1 0b 18
        E 16 81 2a 00
        E 64 b1 0b 30
        E 0 91 2b 30
        E 64 b1 0b 28
        E 64 b1 0b 20
        E 64 b1 0b 18
        E 64 b1 0b 10
        E 16 81 2b 00
        E 240 b1 0c 40
        E 0 b1 0b 18
        E 0 91 2d 18
        E 96 b1 0b 10
        E 64 b1 0b 08
        E 80 b1 0b 18
        E 96 b1 0b 10
        E 16 b1 0b 18
        E 0 81 2d 00
        E 0 91 2b 18
        E 80 b1 0b 10
        E 48 b1 0b 18
        E 0 81 2b 00
        E 0 91 28 18
        E 48 b1 0b 10
        E 64 b1 0b 18
        E 0 81 28 00
        E 0 91 2b 18
        E 48 b1 0b 10
        E 64 b1 0b 08
        E 16 b1 0b 18
        E 0 81 2b 00
        E 0 91 28 18
        E 80 b1 0c 20
        E 0 b1 0b 30
        E 0 81 28 00
        E 0 91 23 30
        E 48 b1 0b 28
        E 64 b1 0b 20
        E 64 b1 0b 18
        E 64 b1 0b 10
        E 32 81 23 00
        E 96 b1 0b 30
        E 0 91 25 30
        E 16 b1 0b 28
        E 64 b1 0b 20
        E 80 b1 0b 18
        E 16 81 25 00
        E 64 b1 0b 30
        E 0 91 26 30
        E 48 b1 0b 28
        E 64 b1 0b 20
        E 80 b1 0b 18
        E 64 b1 0b 10
        E 16 81 26 00
        E 240 b1 0c 40
        E 0 b1 0b 18
        E 0 91 28 18
        E 48 b1 0b 10
        E 64 b1 0b 08
        E 128 b1 0b 18
        E 80 b1 0b 10
        E 48 b1 0b 18
        E 0 81 28 00
        E 0 91 26 18
        E 64 b1 0b 10
        E 48 b1 0b 18
        E 0 81 26 00
        E 0 91 23 18
        E 48 b1 0b 10
        E 64 b1 0b 08
        E 16 b1 0b 18
        E 0 81 23 00
        E 0 91 26 18
        E 96 b1 0b 10
        E 16 b1 0b 18
        E 0 81 26 00
        E 0 91 23 18
        E 80 b1 0b 10
        E 16 b1 0c 20
        E 0 b1 0b 30
        E 48 b1 0b 28
        E 80 b1 0b 20
        E 64 b1 0b 18
        E 64 b1 0b 10
        E 16 81 23 00
        E 96 b1 0b 30
        E 0 91 25 30
        E 32 b1 0b 28
        E 64 b1 0b 20
        E 64 b1 0b 18
        E 16 81 25 00
        E 64 b1 0b 30
        E 0 91 26 30
        E 64 b1 0b 28
        E 64 b1 0b 20
        E 64 b1 0b 18
        E 64 b1 0b 10
        E 16 81 26 00
        E 240 b1 0c 40
        E 0 b1 0b 18
        E 0 91 28 18
        E 96 b1 0b 10
        E 64 b1 0b 08
        E 80 b1 0b 18
        E 96 b1 0b 10
        E 16 b1 0b 18
        E 0 81 28 00
        E 0 91 26 18
        E 80 b1 0b 10
        E 48 b1 0b 18
        E 0 81 26 00
        E 0 91 23 18
        E 64 b1 0b 10
        E 48 b1 0b 18
        E 0 81 23 00
        E 0 91 26 18
        E 48 b1 0b 10
        E 64 b1 0b 08
        E 16 b1 0b 18
        E 0 81 26 00
        E 0 91 23 18
        E 80 b1 0c 20
        E 0 b1 0b 30
        E 0 81 23 00
        E 0 91 28 30
        E 48 b1 0b 28
        E 64 b1 0b 20
        E 64 b1 0b 18
        E 80 b1 0b 10
        E 16 81 28 00
        E 96 b1 0b 30
        E 0 91 2a 30
        E 16 b1 0b 28
        E 64 b1 0b 20
        E 80 b1 0b 18
        E 16 81 2a 00
        E 64 b1 0b 30
        E 0 91 2b 30
        E 48 b1 0b 28
        E 64 b1 0b 20
        E 80 b1 0b 18
        E 64 b1 0b 10
        E 16 81 2b 00
        E 240 b1 0c 40
        E 0 b1 0b 18
        E 0 91 2d 18
        E 48 b1 0b 10
        E 64 b1 0b 08
        E 128 b1 0b 18
        E 80 b1 0b 10
        E 48 b1 0b 18
        E 0 81 2d 00
        E 0 91 2b 18
        E 64 b1 0b 10
        E 48 b1 0b 18
        E 0 81 2b 00
        E 0 91 28 18
        E 48 b1 0b 10
        E 64 b1 0b 08
        E 16 b1 0b 18
        E 0 81 28 00
        E 0 91 2b 18
        E 96 b1 0b 10
        E 16 b1 0b 18
        E 0 81 2b 00
        E 0 91 28 18
        E 80 b1 0b 10
        E 16 b1 0c 20
        E 0 b1 0b 30
        E 48 b1 0b 28
        E 80 b1 0b 20
        E 64 b1 0b 18
        E 64 b1 0b 10
        E 16 81 28 00
        E 80 b1 0b 30
        E 0 91 2a 30
        E 48 b1 0b 28
        E 64 b1 0b 20
        E 64 b1 0b 18
        E 16 81 2a 00
        E 64 b1 0b 30
        E 0 91 2b 30
        E 64 b1 0b 28
        E 64 b1 0b 20
        E 64 b1 0b 18
        E 64 81 2b 00
        E 256 b1 0c 40
        E 0 91 2d 18
        E 96 b1 0b 10
        E 64 b1 0b 08
        E 80 b1 0b 18
        E 96 b1 0b 10
        E 16 b1 0b 18
        E 0 81 2d 00
        E 0 91 2b 18
        E 80 b1 0b 10
        E 48 b1 0b 18
        E 0 81 2b 00
        E 0 91 28 18
        E 64 b1 0b 10
        E 48 b1 0b 18
        E 0 81 28 00
        E 0 91 2b 18
        E 48 b1 0b 10
        E 64 b1 0b 08
        E 16 b1 0b 18
        E 0 81 2b 00
        E 0 91 28 18
        E 80 b1 0c 20
        E 0 b1 0b 30
        E 0 81 28 00
        E 0 91 23 30
        E 48 b1 0b 28
        E 64 b1 0b 20
        E 64 b1 0b 18
        E 80 b1 0b 10
        E 16 81 23 00
        E 96 b1 0b 30
        E 0 91 25 30
        E 16 b1 0b 28
        E 64 b1 0b 20
        E 80 b1 0b 18
        E 16 81 25 00
        E 64 b1 0b 30
        E 0 91 26 30
        E 48 b1 0b 28
        E 64 b1 0b 20
        E 80 b1 0b 18
        E 64 b1 0b 10
        E 16 81 26 00
        E 240 b1 0c 40
        E 0 b1 0b 18
        E 0 91 28 18
        E 48 b1 0b 10
        E 64 b1 0b 08
        E 128 b1 0b 18
        E 80 b1 0b 10
        E 48 b1 0b 18
        E 0 81 28 00
        E 0 91 26 18
        E 64 b1 0b 10
        E 48 b1 0b 18
        E 0 81 26 00
        E 0 91 23 18
        E 48 b1 0b 10
        E 64 b1 0b 08
        E 16 b1 0b 18
        E 0 81 23 00
        E 0 91 26 18
        E 96 b1 0b 10
        E 16 b1 0b 18
        E 0 81 26 00
        E 0 91 23 18
        E 80 b1 0b 10
        E 16 b1 0c 20
        E 0 b1 0b 30
        E 48 b1 0b 28
        E 80 b1 0b 20
        E 64 b1 0b 18
        E 64 b1 0b 10
        E 16 81 23 00
        E 80 b1 0b 30
        E 0 91 25 30
        E 48 b1 0b 28
        E 64 b1 0b 20
        E 64 b1 0b 18
        E 16 81 25 00
        E 48 b1 0b 30
        E 0 91 26 30
        E 16 b1 0b 28
        E 64 b1 0b 20
        E 64 b1 0b 18
        E 64 b1 0b 10
        E 64 81 26 00
        E 240 b1 0c 40
        E 0 b1 0b 18
        E 0 91 28 18
        E 48 b1 0b 10
        E 64 b1 0b 08
        E 144 b1 0b 18
        E 96 b1 0b 10
        E 16 b1 0b 18
        E 0 81 28 00
        E 0 91 26 18
        E 80 b1 0b 10
        E 48 b1 0b 18
        E 0 81 26 00
        E 0 91 23 18
        E 64 b1 0b 10
        E 48 b1 0b 18
        E 0 81 23 00
        E 0 91 26 18
        E 48 b1 0b 10
        E 64 b1 0b 08
        E 16 b1 0b 18
        E 0 81 26 00
        E 0 91 23 18
        E 80 b1 0c 20
        E 0 b1 0b 30
        E 0 81 23 00
        E 0 91 28 30
        E 48 b1 0b 28
        E 64 b1 0b 20
        E 64 b1 0b 18
        E 80 b1 0b 10
        E 16 81 28 00
        E 96 b1 0b 30
        E 0 91 2a 30
        E 16 b1 0b 28
        E 64 b1 0b 20
        E 80 b1 0b 18
        E 16 81 2a 00
        E 64 b1 0b 30
        E 0 91 2b 30
        E 48 b1 0b 28
        E 80 b1 0b 20
        E 64 b1 0b 18
        E 64 b1 0b 10
        E 16 81 2b 00
        E 240 b1 0c 40
        E 0 b1 0b 18
        E 0 91 2d 18
        E 48 b1 0b 10
        E 80 b1 0b 08
        E 112 b1 0b 18
        E 80 b1 0b 10
        E 48 b1 0b 18
        E 0 81 2d 00
        E 0 91 2b 18
        E 64 b1 0b 10
        E 48 b1 0b 18
        E 0 81 2b 00
        E 0 91 28 18
        E 48 b1 0b 10
        E 64 b1 0b 08
        E 16 b1 0b 18
        E 0 81 28 00
        E 0 91 2b 18
        E 96 b1 0b 10
        E 16 b1 0b 18
        E 0 81 2b 00
        E 0 91 28 18
        E 80 b1 0b 10
        E 16 b1 0c 20
        E 0 b1 0b 30
        E 48 b1 0b 28
        E 80 b1 0b 20
        E 64 b1 0b 18
        E 64 b1 0b 10
        E 16 81 28 00
        E 80 b1 0b 30
        E 0 91 2a 30
        E 48 b1 0b 28
        E 64 b1 0b 20
        E 64 b1 0b 18
        E 16 81 2a 00
        E 48 b1 0b 30
        E 0 91 2b 30
        E 16 b1 0b 28
        E 64 b1 0b 20
        E 64 b1 0b 18
        E 64 b1 0b 10
        E 64 81 2b 00
        E 240 b1 0c 40
        E 0 b1 0b 18
        E 0 91 2d 18
        E 48 b1 0b 10
        E 64 b1 0b 08
        E 128 b1 0b 18
        E 80 b1 0b 10
        E 48 b1 0b 18
        E 0 81 2d 00
        E 0 91 2b 18
        E 48 b1 0b 10
        E 64 b1 0b 08
        E 16 b1 0b 18
        E 0 81 2b 00
        E 0 91 28 18
        E 96 b1 0b 10
        E 16 b1 0b 18
        E 0 81 28 00
        E 0 91 2b 18
        E 80 b1 0b 10
        E 48 b1 0b 18
        E 0 81 2b 00
        E 0 91 28 18
        E 64 b1 0b 10
        E 16 b1 0c 20
        E 0 b1 0b 30
        E 0 81 28 00
        E 0 91 23 30
        E 48 b1 0b 28
        E 64 b1 0b 20
        E 64 b1 0b 18
        E 80 b1 0b 10
        E 16 81 23 00
        E 96 b1 0b 30
        E 0 91 25 30
        E 16 b1 0b 28
        E 80 b1 0b 20
        E 64 b1 0b 18
        E 16 81 25 00
        E 64 b1 0b 30
        E 0 91 26 30
        E 48 b1 0b 28
        E 80 b1 0b 20
        E 64 b1 0b 18
        E 64 b1 0b 10
        E 16 81 26 00
        E 240 b1 0c 40
        E 0 b1 0b 18
        E 0 91 28 18
        E 80 b1 0b 10
        E 80 b1 0b 08
        E 80 b1 0b 18
        E 80 b1 0b 10
        E 32 b1 0b 18
        E 0 81 28 00
        E 0 91 26 18
        E 80 b1 0b 10
        E 48 b1 0b 18
        E 0 81 26 00
        E 0 91 23 18
        E 48 b1 0b 10
        E 64 b1 0b 08
        E 16 b1 0b 18
        E 0 81 23 00
        E 0 91 26 18
        E 96 b1 0b 10
        E 16 b1 0b 18
        E 0 81 26 00
        E 0 91 23 18
        E 80 b1 0b 10
        E 16 b1 0c 20
        E 0 b1 0b 30
        E 64 b1 0b 28
        E 64 b1 0b 20
        E 64 b1 0b 18
        E 64 b1 0b 10
        E 16 81 23 00
        E 80 b1 0b 30
        E 0 91 25 30
        E 48 b1 0b 28
        E 64 b1 0b 20
        E 64 b1 0b 18
        E 16 81 25 00
        E 48 b1 0b 30
        E 0 91 26 30
        E 16 b1 0b 28
        E 64 b1 0b 20
        E 64 b1 0b 18
        E 64 b1 0b 10
        E 64 81 26 00
        E 240 b1 0c 40
        E 0 b1 0b 18
        E 0 91 28 18
        E 48 b1 0b 10
        E 64 b1 0b 08
        E 128 b1 0b 18
        E 80 b1 0b 10
        E 48 b1 0b 18
        E 0 81 28 00
        E 0 91 26 18
        E 48 b1 0b 10
        E 64 b1 0b 18
        E 0 81 26 00
        E 0 91 23 18
        E 48 b1 0b 10
        E 64 b1 0b 08
        E 16 b1 0b 18
        E 0 81 23 00
        E 0 91 26 18
        E 80 b1 0b 10
        E 48 b1 0b 18
        E 0 81 26 00
        E 0 91 23 18
        E 64 b1 0b 10
        E 16 b1 0c 20
        E 0 b1 0b 30
        E 0 81 23 00
        E 0 91 28 30
        E 48 b1 0b 28
        E 64 b1 0b 20
        E 80 b1 0b 18
        E 64 b1 0b 10
        E 16 81 28 00
        E 96 b1 0b 30
        E 0 91 2a 30
        E 16 b1 0b 28
        E 80 b1 0b 20
        E 64 b1 0b 18
        E 16 81 2a 00
        E 64 b1 0b 30
        E 0 91 2b 30
        E 48 b1 0b 28
        E 80 b1 0b 20
        E 64 b1 0b 18
        E 64 b1 0b 10
        E 16 81 2b 00
        E 240 b1 0c 40
        E 0 b1 0b 18
        E 0 91 2d 18
        E 96 b1 0b 10
        E 64 b1 0b 08
        E 80 b1 0b 18
        E 80 b1 0b 10
        E 32 b1 0b 18
        E 0 81 2d 00
        E 0 91 2b 18
        E 80 b1 0b 10
        E 48 b1 0b 18
        E 0 81 2b 00
        E 0 91 28 18
        E 48 b1 0b 10
        E 64 b1 0b 18
        E 0 81 28 00
        E 0 91 2b 18
        E 48 b1 0b 10
        E 64 b1 0b 08
        E 16 b1 0b 18
        E 0 81 2b 00
        E 0 91 28 18
        E 80 b1 0b 10
        E 16 b1 0c 20
        E 0 b1 0b 30
        E 64 b1 0b 28
        E 64 b1 0b 20
        E 64 b1 0b 18
        E 64 b1 0b 10
        E 16 81 28 00
        E 80 b1 0b 30
        E 0 91 2a 30
        E 48 b1 0b 28
        E 64 b1 0b 20
        E 64 b1 0b 18
        E 16 81 2a 00
        E 48 b1 0b 30
        E 0 91 2b 30
        E 16 b1 0b 28
        E 64 b1 0b 20
        E 64 b1 0b 18
        E 80 b1 0b 10
        E 48 81 2b 00
        E 240 b1 0c 40
        E 0 b1 0b 18
        E 0 91 2d 18
        E 48 b1 0b 10
        E 64 b1 0b 08
        E 128 b1 0b 18
        E 80 b1 0b 10
        E 48 b1 0b 18
        E 0 81 2d 00
        E 0 91 2b 18
        E 48 b1 0b 10
        E 64 b1 0b 18
        E 0 81 2b 00
        E 0 91 28 18
        E 48 b1 0b 10
        E 64 b1 0b 08
        E 16 b1 0b 18
        E 0 81 28 00
        E 0 91 2b 18
        E 80 b1 0b 10
        E 32 b1 0b 18
        E 0 81 2b 00
        E 0 91 28 18
        E 80 b1 0b 10
        E 16 b1 0c 20
        E 0 b1 0b 30
        E 0 81 28 00
        E 0 91 23 30
        E 48 b1 0b 28
        E 64 b1 0b 20
        E 80 b1 0b 18
        E 64 b1 0b 10
        E 16 81 23 00
        E 96 b1 0b 30
        E 0 91 25 30
        E 16 b1 0b 28
        E 80 b1 0b 20
        E 64 b1 0b 18
        E 16 81 25 00
        E 64 b1 0b 30
        E 0 91 26 30
        E 48 b1 0b 28
        E 80 b1 0b 20
        E 64 b1 0b 18
        E 64 b1 0b 10
        E 16 81 26 00
        E 240 b1 0c 40
        E 0 b1 0b 18
        E 0 91 28 18
        E 96 b1 0b 10
        E 64 b1 0b 08
        E 80 b1 0b 18
        E 96 b1 0b 10
        E 16 b1 0b 18
        E 0 81 28 00
        E 0 91 26 18
        E 80 b1 0b 10
        E 48 b1 0b 18
        E 0 81 26 00
        E 0 91 23 18
        E 48 b1 0b 10
        E 64 b1 0b 18
        E 0 81 23 00
        E 0 91 26 18
        E 48 b1 0b 10
        E 64 b1 0b 08
        E 16 b1 0b 18
        E 0 81 26 00
        E 0 91 23 18
        E 80 b1 0b 10
        E 16 b1 0c 20
        E 0 b1 0b 30
        E 64 b1 0b 28
        E 64 b1 0b 20
        E 64 b1 0b 18
        E 64 b1 0b 10
        E 16 81 23 00
        E 80 b1 0b 30
        E 0 91 25 30
        E 48 b1 0b 28
        E 64 b1 0b 20
        E 64 81 25 00
        E 64 b1 0b 30
        E 0 91 26 30
        E 16 b1 0b 28
        E 64 b1 0b 20
        E 64 b1 0b 18
        E 80 b1 0b 10
        E 48 81 26 00
        E 240 b1 0c 40
        E 0 b1 0b 18
        E 0 91 28 18
        E 48 b1 0b 10
        E 64 b1 0b 08
        E 128 b1 0b 18
        E 80 b1 0b 10
        E 48 b1 0b 18
        E 0 81 28 00
        E 0 91 26 18
        E 48 b1 0b 10
        E 64 b1 0b 18
        E 0 81 26 00
        E 0 91 23 18
        E 48 b1 0b 10
        E 64 b1 0b 08
        E 16 b1 0b 18
        E 0 81 23 00
        E 0 91 26 18
        E 80 b1 0b 10
        E 32 b1 0b 18
        E 0 81 26 00
        E 0 91 23 18
        E 80 b1 0b 10
        E 16 b1 0c 20
        E 0 b1 0b 30
        E 0 81 23 00
        E 0 91 28 30
        E 48 b1 0b 28
        E 64 b1 0b 20
        E 80 b1 0b 18
        E 64 b1 0b 10
        E 16 81 28 00
        E 96 b1 0b 30
        E 0 91 2a 30
        E 16 b1 0b 28
        E 80 b1 0b 20
        E 64 b1 0b 18
        E 16 81 2a 00
        E 64 b1 0b 30
        E 0 91 2b 30
        E 64 b1 0b 28
        E 64 b1 0b 20
        E 64 b1 0b 18
        E 64 b1 0b 10
        E 16 81 2b 00
        E 240 b1 0c 40
        E 0 b1 0b 18
        E 0 91 2d 18
        E 96 b1 0b 10
        E 64 b1 0b 08
        E 80 b1 0b 18
        E 96 b1 0b 10
        E 16 b1 0b 18
        E 0 81 2d 00
        E 0 91 2b 18
        E 80 b1 0b 10
        E 48 b1 0b 18
        E 0 81 2b 00
        E 0 91 28 18
        E 48 b1 0b 10
        E 64 b1 0b 18
        E 0 81 28 00
        E 0 91 2b 18
        E 48 b1 0b 10
        E 64 b1 0b 08
        E 16 b1 0b 18
        E 0 81 2b 00
        E 0 91 28 18
        E 80 b1 0b 10
        E 16 b1 0c 20
        E 0 b1 0b 30
        E 64 b1 0b 28
        E 64 b1 0b 20
        E 64 b1 0b 18
        E 64 81 28 00
        E 96 b1 0b 30
        E 0 91 2a 30
        E 48 b1 0b 28
        E 64 b1 0b 20
        E 64 81 2a 00
        E 64 b1 0b 30
        E 0 91 2b 30
        E 16 b1 0b 28
        E 64 b1 0b 20
        E 64 b1 0b 18
        E 80 b1 0b 10
        E 48 81 2b 00
        E 240 b1 0c 40
        E 0 b1 0b 18
        E 0 91 2d 18
        E 48 b1 0b 10
        E 64 b1 0b 08
        E 128 b1 0b 18
        E 80 b1 0b 10
        E 48 b1 0b 18
        E 0 81 2d 00
        E 0 91 2b 18
        E 48 b1 0b 10
        E 64 b1 0b 18
        E 0 81 2b 00
        E 0 91 28 18
        E 48 b1 0b 10
        E 64 b1 0b 08
        E 16 b1 0b 18
        E 0 81 28 00
        E 0 91 2b 18
        E 96 b1 0b 10
        E 16 b1 0b 18
        E 0 81 2b 00
        E 0 91 28 18
        E 80 b1 0b 10
        E 16 b1 0c 20
        E 0 b1 0b 30
        E 0 81 28 00
        E 0 91 23 30
        E 48 b1 0b 28
        E 64 b1 0b 20
        E 80 b1 0b 18
        E 64 b1 0b 10
        E 16 81 23 00
        E 96 b1 0b 30
        E 0 91 25 30
        E 32 b1 0b 28
        E 64 b1 0b 20
        E 64 b1 0b 18
        E 16 81 25 00
        E 64 b1 0b 30
        E 0 91 26 30
        E 64 b1 0b 28
        E 64 b1 0b 20
        E 64 b1 0b 18
        E 64 b1 0b 10
        E 16 81 26 00
        E 240 b1 0c 40
        E 0 b1 0b 18
        E 0 91 28 18
        E 96 b1 0b 10
        E 64 b1 0b 08
        E 80 b1 0b 18
        E 96 b1 0b 10
        E 16 b1 0b 18
        E 0 81 28 00
        E 0 91 26 18
        E 80 b1 0b 10
        E 48 b1 0b 18
        E 0 81 26 00
        E 0 91 23 18
        E 48 b1 0b 10
        E 64 b1 0b 18
        E 0 81 23 00
        E 0 91 26 18
        E 48 b1 0b 10
        E 64 b1 0b 08
        E 16 b1 0b 18
        E 0 81 26 00
        E 0 91 23 18
        E 80 b1 0c 20
        E 0 b1 0b 30
        E 48 b1 0b 28
        E 64 b1 0b 20
        E 64 b1 0b 18
        E 64 b1 0b 10
        E 32 81 23 00
        E 96 b1 0b 30
        E 0 91 25 30
        E 16 b1 0b 28
        E 64 b1 0b 20
        E 80 b1 0b 18
        E 16 81 25 00
        E 64 b1 0b 30
        E 0 91 26 30
        E 48 b1 0b 28
        E 64 b1 0b 20
        E 80 b1 0b 18
        E 64 b1 0b 10
        E 16 81 26 00
        E 240 b1 0c 40
        E 0 b1 0b 18
        E 0 91 28 18
        E 48 b1 0b 10
        E 64 b1 0b 08
        E 128 b1 0b 18
        E 80 b1 0b 10
        E 48 b1 0b 18
        E 0 81 28 00
        E 0 91 26 18
        E 64 b1 0b 10
        E 48 b1 0b 18
        E 0 81 26 00
        E 0 91 23 18
        E 48 b1 0b 10
        E 64 b1 0b 08
        E 16 b1 0b 18
        E 0 81 23 00
        E 0 91 26 18
        E 96 b1 0b 10
        E 16 b1 0b 18
        E 0 81 26 00
        E 0 91 23 18
        E 80 b1 0b 10
        E 16 b1 0c 20
        E 0 b1 0b 30
        E 0 81 23 00
        E 0 91 28 30
        E 48 b1 0b 28
        E 80 b1 0b 20
        E 64 b1 0b 18
        E 64 b1 0b 10
        E 16 81 28 00
        E 96 b1 0b 30
        E 0 91 2a 30
        E 32 b1 0b 28
        E 64 b1 0b 20
        E 64 b1 0b 18
        E 16 81 2a 00
        E 64 b1 0b 30
        E 0 91 2b 30
        E 64 b1 0b 28
        E 64 b1 0b 20
        E 64 b1 0b 18
        E 64 b1 0b 10
        E 16 81 2b 00
        E 240 b1 0c 40
        E 0 b1 0b 18
        E 0 91 2d 18
        E 96 b1 0b 10
        E 64 b1 0b 08
        E 80 b1 0b 18
        E 96 b1 0b 10
        E 16 b1 0b 18
        E 0 81 2d 00
        E 0 91 2b 18
        E 80 b1 0b 10
        E 48 b1 0b 18
        E 0 81 2b 00
        E 0 91 28 18
        E 64 b1 0b 10
        E 48 b1 0b 18
        E 0 81 28 00
        E 0 91 2b 18
        E 48 b1 0b 10
        E 64 b1 0b 08
        E 16 b1 0b 18
        E 0 81 2b 00
        E 0 91 28 18
        E 80 b1 0c 20
        E 0 b1 0b 30
        E 48 b1 0b 28
        E 64 b1 0b 20
        E 64 b1 0b 18
        E 80 b1 0b 10
        E 16 81 28 00
        E 96 b1 0b 30
        E 0 91 2a 30
        E 16 b1 0b 28
        E 64 b1 0b 20
        E 80 b1 0b 18
        E 16 81 2a 00
        E 64 b1 0b 30
        E 0 91 2b 30
        E 48 b1 0b 28
        E 64 b1 0b 20
        E 80 b1 0b 18
        E 64 b1 0b 10
        E 16 81 2b 00
        E 240 b1 0c 40
        E 0 b1 0b 18
        E 0 91 2d 18
        E 48 b1 0b 10
        E 64 b1 0b 08
        E 128 b1 0b 18
        E 80 b1 0b 10
        E 48 b1 0b 18
        E 0 81 2d 00
        E 0 91 2b 18
        E 64 b1 0b 10
        E 48 b1 0b 18
        E 0 81 2b 00
        E 0 91 28 18
        E 48 b1 0b 10
        E 16 81 28 00
        E 0 ff 2f 00
      >
    >
  >
  <TRACK {2B3395BF-E244-427D-BA12-1F285D48AB3E}
    NAME "NES - Triangle [ch2]"
    PEAKCOL 16744192
    BEAT -1
    AUTOMODE 0
    PANLAWFLAGS 3
    VOLPAN 1 0 -1 -1 1
    MUTESOLO 0 0 0
    IPHASE 0
    PLAYOFFS 0 1
    ISBUS 0 0
    BUSCOMP 0 0 0 0 0
    SHOWINMIX 1 0.6667 0.5 1 0.5 0 0 0
    FIXEDLANES 9 0 0 0 0
    SEL 0
    REC 0 5088 1 0 0 0 0 0
    VU 2
    TRACKHEIGHT 0 0 0 0 0 0 0
    INQ 0 0 0 0.5 100 0 0 100
    NCHAN 2
    FX 1
    TRACKID {2B3395BF-E244-427D-BA12-1F285D48AB3E}
    PERF 0
    MIDIOUT -1
    MAINSEND 1 0
    <FXCHAIN
      WNDRECT 24 52 700 560
      SHOW 0
      LASTSEL 0
      DOCKED 0
      BYPASS 0 0 0
      <JS "ReapNES Studio/ReapNES_Console.jsfx" ""
        2 15 1 10 80 10 100 2 1 15 1 5 60 10 80 1 1 0 50 0 0 15 1 0 100 0 0 0.500000 0.500000 0.400000 0.300000 0.800000 2 1 0 0 0 0 - - - - - - - - - - - - - - - - - - - - - - - - - -
      >
      FLOATPOS 0 0 0 0
      FXID {9924C3FD-4B9E-4794-8402-D4F3BCB6F83D}
      WAK 0 0
    >
    <ITEM
      POSITION 0
      LENGTH 83.98134
      LOOP 0
      ALLTAKES 0
      FADEIN 0 0 0 0 0 0 0
      FADEOUT 0 0 0 0 0 0 0
      MUTE 0 0
      SEL 0
      IGUID {5C4843DF-8A75-44F3-8106-7C7B57391A89}
      <SOURCE MIDI
        HASDATA 1 480 QN
        CCINTERP 32
        E 0 c2 26
        E 16 b2 0b 7f
        E 0 92 28 7f
        E 5664 82 28 00
        E 0 b2 0b 7f
        E 0 92 2d 7f
        E 3856 82 2d 00
        E 0 b2 0b 7f
        E 0 92 28 7f
        E 3856 82 28 00
        E 0 b2 0b 7f
        E 0 92 2d 7f
        E 3856 82 2d 00
        E 0 b2 0b 7f
        E 0 92 28 7f
        E 3856 82 28 00
        E 0 b2 0b 7f
        E 0 92 2d 7f
        E 3856 82 2d 00
        E 0 b2 0b 7f
        E 0 92 28 7f
        E 3856 82 28 00
        E 0 b2 0b 7f
        E 0 92 2d 7f
        E 3856 82 2d 00
        E 0 b2 0b 7f
        E 0 92 28 7f
        E 3856 82 28 00
        E 0 b2 0b 7f
        E 0 92 2d 7f
        E 3856 82 2d 00
        E 0 b2 0b 7f
        E 0 92 28 7f
        E 3856 82 28 00
        E 0 b2 0b 7f
        E 0 92 2d 7f
        E 3856 82 2d 00
        E 0 b2 0b 7f
        E 0 92 28 7f
        E 3856 82 28 00
        E 0 b2 0b 7f
        E 0 92 2d 7f
        E 3840 82 2d 00
        E 0 b2 0b 7f
        E 0 92 28 7f
        E 3856 82 28 00
        E 0 b2 0b 7f
        E 0 92 2d 7f
        E 3856 82 2d 00
        E 0 b2 0b 7f
        E 0 92 28 7f
        E 3856 82 28 00
        E 0 b2 0b 7f
        E 0 92 2d 7f
        E 3856 82 2d 00
        E 0 b2 0b 7f
        E 0 92 28 7f
        E 3856 82 28 00
        E 0 b2 0b 7f
        E 0 92 2d 7f
        E 3856 82 2d 00
        E 0 b2 0b 7f
        E 0 92 28 7f
        E 3856 82 28 00
        E 0 b2 0b 7f
        E 0 92 2d 7f
        E 3616 82 2d 00
        E 0 ff 2f 00
      >
    >
  >
  <TRACK {4EBB0241-3E25-46CA-90EB-12A063F3B846}
    NAME "NES - Noise / Drums [ch3]"
    PEAKCOL 11184810
    BEAT -1
    AUTOMODE 0
    PANLAWFLAGS 3
    VOLPAN 1 0 -1 -1 1
    MUTESOLO 0 0 0
    IPHASE 0
    PLAYOFFS 0 1
    ISBUS 0 0
    BUSCOMP 0 0 0 0 0
    SHOWINMIX 1 0.6667 0.5 1 0.5 0 0 0
    FIXEDLANES 9 0 0 0 0
    SEL 0
    REC 0 5088 1 0 0 0 0 0
    VU 2
    TRACKHEIGHT 0 0 0 0 0 0 0
    INQ 0 0 0 0.5 100 0 0 100
    NCHAN 2
    FX 1
    TRACKID {4EBB0241-3E25-46CA-90EB-12A063F3B846}
    PERF 0
    MIDIOUT -1
    MAINSEND 1 0
    <FXCHAIN
      WNDRECT 24 52 700 560
      SHOW 0
      LASTSEL 0
      DOCKED 0
      BYPASS 0 0 0
      <JS "ReapNES Studio/ReapNES_Console.jsfx" ""
        2 15 1 10 80 10 100 2 1 15 1 5 60 10 80 1 1 0 50 0 0 15 1 0 100 0 0 0.500000 0.500000 0.400000 0.300000 0.800000 3 1 0 0 0 0 - - - - - - - - - - - - - - - - - - - - - - - - - -
      >
      FLOATPOS 0 0 0 0
      FXID {4BEEDC3C-3F52-4134-9DFF-5A131624FF0B}
      WAK 0 0
    >
    <ITEM
      POSITION 0
      LENGTH 83.98134
      LOOP 0
      ALLTAKES 0
      FADEIN 0 0 0 0 0 0 0
      FADEOUT 0 0 0 0 0 0 0
      MUTE 0 0
      SEL 0
      IGUID {684D0321-98CC-474A-8AD2-C1BB1672A268}
      <SOURCE MIDI
        HASDATA 1 480 QN
        CCINTERP 32
        E 48 93 24 38
        E 86352 83 24 00
        E 0 ff 2f 00
      >
    >
  >
>