<REAPER_PROJECT 0.1 "7.27/win64" 1707000000
  <NOTES 0 2
    |ReapNES Studio Project
    |MIDI Import - Battletoads_07_Song_7_v1
  >
  RIPPLE 0
  GROUPOVERRIDE 0 0 0
  AUTOXFADE 129
  ENVATTACH 3
  POOLEDENVATTACH 0
  MIXERUIFLAGS 11 48
  ENVFADESZ10 40
  PEAKGAIN 1
  FEEDBACK 0
  PANLAW 1
  PROJOFFS 0 0 0
  MAXPROJLEN 0 0
  GRID 3199 8 1 8 1 0 0 0
  TIMEMODE 1 5 -1 30 0 0 -1
  VIDEO_CONFIG 0 0 65792
  PANMODE 3
  PANLAWFLAGS 3
  CURSOR 0
  ZOOM 100 0 0
  VZOOMEX 6 0
  USE_REC_CFG 0
  RECMODE 1
  SMPTESYNC 0 30 100 40 1000 300 0 0 1 0 0
  LOOP 0
  LOOPGRAN 0 4
  RECORD_PATH "Media" ""
  <RECORD_CFG
    ZXZhdxgAAQ==
  >
  <APPLYFX_CFG
  >
  RENDER_FILE ""
  RENDER_PATTERN ""
  RENDER_FMT 0 2 0
  RENDER_1X 0
  RENDER_RANGE 1 0 0 18 1000
  RENDER_RESAMPLE 3 0 1
  RENDER_ADDTOPROJ 0
  RENDER_STEMS 0
  RENDER_DITHER 0
  TIMELOCKMODE 1
  TEMPOENVLOCKMODE 1
  ITEMMIX 1
  DEFPITCHMODE 589824 0
  TAKELANE 1
  SAMPLERATE 44100 0 0
  <RENDER_CFG
    ZXZhdxgAAQ==
  >
  LOCK 1
  <METRONOME 6 2
    VOL 0.25 0.125
    BEATLEN 4
    FREQ 1760 880 1
    SAMPLES "" ""
    SPLIGNORE 0 0
    SPLDEF 2 660 "" 0
    SPLDEF 3 440 "" 0
    PATTERN 0 169
    PATTERNSTR ABBB
    MULT 1
  >
  GLOBAL_AUTO -1
  TEMPO 128.59999614200012 4 4
  PLAYRATE 1 0 0.25 4
  SELECTION 0 0
  SELECTION2 0 0
  MASTERAUTOMODE 0
  MASTERTRACKHEIGHT 0 0
  MASTERPEAKCOL 16576
  MASTERMUTESOLO 0
  MASTERTRACKVIEW 0 0.6667 0.5 0.5 0 0 0 0 0 0 0 0 0 0
  MASTERHWOUT 0 0 1 0 0 0 0 -1
  MASTER_NCH 2 2
  MASTER_VOLUME 1 0 -1 -1 1
  MASTER_PANMODE 3
  MASTER_PANLAWFLAGS 3
  MASTER_FX 1
  MASTER_SEL 0
  <MASTERPLAYSPEEDENV
    EGUID {EC3468F5-D7A5-452E-9789-25603F002FFE}
    ACT 0 -1
    VIS 0 1 1
    LANEHEIGHT 0 0
    ARM 0
    DEFSHAPE 0 -1 -1
  >
  <TEMPOENVEX
    EGUID {52877126-2DCC-401C-804A-117DA3F45304}
    ACT 1 -1
    VIS 1 0 1
    LANEHEIGHT 0 0
    ARM 0
    DEFSHAPE 1 -1 -1
  >
  <PROJBAY
  >
  <TRACK {D2C7FF22-4AA6-4BB5-8285-99AF705C38BB}
    NAME "NES - Pulse 1 [ch0]"
    PEAKCOL 16576606
    BEAT -1
    AUTOMODE 0
    PANLAWFLAGS 3
    VOLPAN 1 0 -1 -1 1
    MUTESOLO 0 0 0
    IPHASE 0
    PLAYOFFS 0 1
    ISBUS 0 0
    BUSCOMP 0 0 0 0 0
    SHOWINMIX 1 0.6667 0.5 1 0.5 0 0 0
    FIXEDLANES 9 0 0 0 0
    SEL 1
    REC 0 5088 1 0 0 0 0 0
    VU 2
    TRACKHEIGHT 0 0 0 0 0 0 0
    INQ 0 0 0 0.5 100 0 0 100
    NCHAN 2
    FX 1
    TRACKID {D2C7FF22-4AA6-4BB5-8285-99AF705C38BB}
    PERF 0
    MIDIOUT -1
    MAINSEND 1 0
    <FXCHAIN
      WNDRECT 24 52 700 560
      SHOW 0
      LASTSEL 0
      DOCKED 0
      BYPASS 0 0 0
      <JS "ReapNES Studio/ReapNES_Console.jsfx" ""
        2 15 1 10 80 10 100 2 1 15 1 5 60 10 80 1 1 0 50 0 0 15 1 0 100 0 0 0.500000 0.500000 0.400000 0.300000 0.800000 0 1 0 0 0 0 - - - - - - - - - - - - - - - - - - - - - - - - - -
      >
      FLOATPOS 0 0 0 0
      FXID {C724C2E9-22E2-4F02-BBCA-BC096F8D658C}
      WAK 0 0
    >
    <ITEM
      POSITION 0
      LENGTH 83.98134
      LOOP 0
      ALLTAKES 0
      FADEIN 0 0 0 0 0 0 0
      FADEOUT 0 0 0 0 0 0 0
      MUTE 0 0
      SEL 0
      IGUID {2F7329A7-5A1B-4287-8FD2-9BF11EADCF6B}
      <SOURCE MIDI
        HASDATA 1 480 QN
        CCINTERP 32
        E 0 c0 50
        E 48 b0 0c 40
        E 0 b0 0b 28
        E 0 90 2f 28
        E 48 80 2f 00
        E 0 90 2e 28
        E 64 80 2e 00
        E 0 90 2d 28
        E 48 80 2d 00
        E 0 90 2c 28
        E 48 80 2c 00
        E 0 90 2b 28
        E 64 80 2b 00
        E 0 90 2a 28
        E 112 80 2a 00
        E 0 90 2b 28
        E 80 b0 0b 20
        E 32 80 2b 00
        E 0 90 2c 20
        E 128 80 2c 00
        E 0 90 2d 20
        E 112 80 2d 00
        E 0 90 2e 20
        E 80 80 2e 00
        E 0 90 2f 20
        E 80 80 2f 00
        E 0 90 30 20
        E 48 b0 0b 18
        E 80 80 30 00
        E 0 90 31 18
        E 80 80 31 00
        E 0 90 32 18
        E 80 80 32 00
        E 0 90 33 18
        E 80 80 33 00
        E 0 90 34 18
        E 80 80 34 00
        E 0 90 35 18
        E 48 80 35 00
        E 0 90 36 18
        E 32 b0 0b 10
        E 48 80 36 00
        E 0 90 37 10
        E 32 80 37 00
        E 0 90 38 10
        E 80 80 38 00
        E 0 90 39 10
        E 48 80 39 00
        E 0 90 3a 10
        E 32 80 3a 00
        E 0 90 3b 10
        E 48 80 3b 00
        E 0 90 3c 10
        E 80 80 3c 00
        E 0 90 3d 10
        E 32 80 3d 00
        E 0 90 3e 10
        E 32 b0 0c 10
        E 0 b0 0b 28
        E 0 80 3e 00
        E 0 90 37 28
        E 64 80 37 00
        E 64 90 35 28
        E 64 b0 0b 10
        E 0 80 35 00
        E 0 90 37 10
        E 48 b0 0b 28
        E 0 80 37 00
        E 0 90 32 28
        E 64 b0 0b 10
        E 0 80 32 00
        E 0 90 35 10
        E 64 b0 0b 28
        E 0 80 35 00
        E 0 90 30 28
        E 48 b0 0b 10
        E 0 80 30 00
        E 0 90 32 10
        E 64 b0 0b 28
        E 48 b0 0b 20
        E 16 b0 0b 10
        E 0 80 32 00
        E 0 90 30 10
        E 64 b0 0b 28
        E 0 80 30 00
        E 0 90 35 28
        E 48 b0 0b 10
        E 0 80 35 00
        E 0 90 32 10
        E 64 b0 0b 28
        E 64 b0 0b 10
        E 0 80 32 00
        E 0 90 35 10
        E 48 b0 0b 28
        E 0 80 35 00
        E 0 90 30 28
        E 64 b0 0b 10
        E 0 80 30 00
        E 0 90 32 10
        E 48 b0 0b 08
        E 16 b0 0b 28
        E 0 80 32 00
        E 0 90 37 28
        E 64 80 37 00
        E 48 90 35 28
        E 64 b0 0b 10
        E 0 80 35 00
        E 0 90 37 10
        E 64 b0 0b 28
        E 0 80 37 00
        E 0 90 32 28
        E 48 b0 0b 10
        E 0 80 32 00
        E 0 90 35 10
        E 64 b0 0b 28
        E 0 80 35 00
        E 0 90 30 28
        E 64 b0 0b 10
        E 0 80 30 00
        E 0 90 32 10
        E 48 b0 0b 08
        E 16 b0 0b 28
        E 48 b0 0b 10
        E 0 80 32 00
        E 0 90 30 10
        E 64 b0 0b 28
        E 0 80 30 00
        E 0 90 35 28
        E 64 b0 0b 10
        E 0 80 35 00
        E 0 90 32 10
        E 48 b0 0b 28
        E 64 b0 0b 10
        E 0 80 32 00
        E 0 90 35 10
        E 64 b0 0b 28
        E 0 80 35 00
        E 0 90 30 28
        E 48 b0 0b 20
        E 16 b0 0b 10
        E 0 80 30 00
        E 0 90 32 10
        E 48 b0 0b 28
        E 0 80 32 00
        E 0 90 37 28
        E 64 80 37 00
        E 64 90 35 28
        E 48 b0 0b 10
        E 0 80 35 00
        E 0 90 37 10
        E 64 b0 0b 28
        E 0 80 37 00
        E 0 90 32 28
        E 64 b0 0b 10
        E 0 80 32 00
        E 0 90 35 10
        E 48 b0 0b 28
        E 0 80 35 00
        E 0 90 30 28
        E 64 b0 0b 10
        E 0 80 30 00
        E 0 90 32 10
        E 16 b0 0b 08
        E 48 b0 0b 28
        E 64 b0 0b 10
        E 0 80 32 00
        E 0 90 30 10
        E 48 b0 0b 28
        E 0 80 30 00
        E 0 90 35 28
        E 64 b0 0b 10
        E 0 80 35 00
        E 0 90 32 10
        E 64 b0 0b 28
        E 48 b0 0b 10
        E 0 80 32 00
        E 0 90 35 10
        E 64 b0 0b 28
        E 0 80 35 00
        E 0 90 30 28
        E 16 b0 0b 20
        E 48 b0 0b 10
        E 0 80 30 00
        E 0 90 32 10
        E 64 b0 0b 28
        E 0 80 32 00
        E 0 90 37 28
        E 48 80 37 00
        E 64 90 35 28
        E 64 b0 0b 10
        E 0 80 35 00
        E 0 90 37 10
        E 48 b0 0b 28
        E 0 80 37 00
        E 0 90 32 28
        E 64 b0 0b 10
        E 0 80 32 00
        E 0 90 35 10
        E 48 b0 0b 08
        E 16 b0 0b 28
        E 0 80 35 00
        E 0 90 30 28
        E 64 b0 0b 10
        E 0 80 30 00
        E 0 90 32 10
        E 48 b0 0b 28
        E 64 b0 0b 10
        E 0 80 32 00
        E 0 90 30 10
        E 64 b0 0b 28
        E 0 80 30 00
        E 0 90 35 28
        E 48 b0 0b 10
        E 0 80 35 00
        E 0 90 32 10
        E 64 b0 0b 28
        E 48 b0 0b 20
        E 16 b0 0b 10
        E 0 80 32 00
        E 0 90 35 10
        E 64 b0 0b 28
        E 0 80 35 00
        E 0 90 30 28
        E 48 b0 0b 10
        E 0 80 30 00
        E 0 90 32 10
        E 64 b0 0c 20
        E 0 b0 0b 30
        E 112 b0 0b 20
        E 128 b0 0b 10
        E 112 b0 0b 30
        E 128 b0 0b 20
        E 112 b0 0b 10
        E 112 b0 0b 30
        E 128 b0 0b 20
        E 112 b0 0b 10
        E 128 b0 0b 30
        E 112 b0 0b 20
        E 128 b0 0b 10
        E 112 b0 0b 30
        E 112 b0 0b 18
        E 128 b0 0b 30
        E 112 b0 0b 18
        E 128 b0 0b 30
        E 0 80 32 00
        E 0 90 3e 30
        E 112 b0 0b 20
        E 128 b0 0b 10
        E 112 b0 0b 30
        E 112 b0 0b 20
        E 128 b0 0b 10
        E 112 b0 0b 30
        E 128 b0 0b 20
        E 112 b0 0b 10
        E 112 b0 0b 30
        E 128 b0 0b 20
        E 112 b0 0b 10
        E 128 b0 0b 30
        E 112 b0 0b 18
        E 128 b0 0b 30
        E 112 b0 0b 18
        E 112 80 3e 00
        E 128 b0 0b 28
        E 0 90 32 28
        E 16 b0 0b 20
        E 32 b0 0b 18
        E 48 b0 0b 10
        E 32 b0 0b 08
        E 32 80 32 00
        E 192 b0 0b 28
        E 0 90 30 28
        E 16 b0 0b 20
        E 32 b0 0b 18
        E 32 b0 0b 10
        E 48 b0 0b 08
        E 32 80 30 00
        E 80 b0 0b 28
        E 0 90 30 28
        E 16 b0 0b 20
        E 32 b0 0b 18
        E 48 b0 0b 10
        E 32 b0 0b 08
        E 32 80 30 00
        E 192 b0 0b 28
        E 0 90 32 28
        E 16 b0 0b 20
        E 32 b0 0b 18
        E 32 b0 0b 10
        E 32 b0 0b 08
        E 48 80 32 00
        E 80 b0 0b 28
        E 0 90 30 28
        E 16 b0 0b 20
        E 32 b0 0b 18
        E 32 b0 0b 10
        E 48 b0 0b 08
        E 32 80 30 00
        E 192 b0 0b 28
        E 0 90 30 28
        E 16 b0 0b 20
        E 32 b0 0b 18
        E 32 b0 0b 10
        E 32 b0 0b 08
        E 32 80 30 00
        E 224 b0 0b 28
        E 0 90 32 28
        E 32 b0 0b 20
        E 32 b0 0b 18
        E 32 b0 0b 10
        E 32 b0 0b 08
        E 32 80 32 00
        E 192 b0 0b 28
        E 0 90 30 28
        E 16 b0 0b 20
        E 32 b0 0b 18
        E 48 b0 0b 10
        E 32 b0 0b 08
        E 32 80 30 00
        E 80 b0 0b 28
        E 0 90 30 28
        E 32 b0 0b 20
        E 32 b0 0b 18
        E 32 b0 0b 10
        E 32 b0 0b 08
        E 32 80 30 00
        E 192 b0 0b 28
        E 0 90 32 28
        E 16 b0 0b 20
        E 32 b0 0b 18
        E 48 b0 0b 10
        E 32 b0 0b 08
        E 32 80 32 00
        E 192 b0 0b 28
        E 0 90 34 28
        E 16 b0 0b 20
        E 32 b0 0b 18
        E 32 b0 0b 10
        E 32 b0 0b 08
        E 16 b0 0b 28
        E 0 80 34 00
        E 0 90 32 28
        E 32 b0 0b 20
        E 32 b0 0b 18
        E 32 b0 0b 10
        E 16 b0 0b 28
        E 0 80 32 00
        E 0 90 34 28
        E 16 b0 0b 20
        E 32 b0 0b 18
        E 32 b0 0b 10
        E 48 b0 0b 08
        E 32 80 34 00
        E 192 b0 0b 28
        E 0 90 32 28
        E 16 b0 0b 20
        E 32 b0 0b 18
        E 32 b0 0b 10
        E 32 b0 0b 08
        E 32 80 32 00
        E 224 b0 0b 28
        E 0 90 30 28
        E 32 b0 0b 20
        E 32 b0 0b 18
        E 32 b0 0b 10
        E 32 b0 0b 08
        E 32 80 30 00
        E 64 b0 0b 28
        E 0 90 30 28
        E 16 b0 0b 20
        E 32 b0 0b 18
        E 32 b0 0b 10
        E 32 b0 0b 08
        E 32 80 30 00
        E 224 b0 0b 28
        E 0 90 32 28
        E 32 b0 0b 20
        E 32 b0 0b 18
        E 32 b0 0b 10
        E 32 b0 0b 08
        E 32 80 32 00
        E 64 b0 0b 28
        E 0 90 30 28
        E 16 b0 0b 20
        E 32 b0 0b 18
        E 32 b0 0b 10
        E 32 b0 0b 08
        E 32 80 30 00
        E 224 b0 0b 28
        E 0 90 30 28
        E 16 b0 0b 20
        E 48 b0 0b 18
        E 32 b0 0b 10
        E 32 b0 0b 08
        E 32 80 30 00
        E 192 b0 0b 28
        E 0 90 32 28
        E 16 b0 0b 20
        E 32 b0 0b 18
        E 32 b0 0b 10
        E 48 b0 0b 08
        E 32 80 32 00
        E 192 b0 0b 28
        E 0 90 30 28
        E 16 b0 0b 20
        E 32 b0 0b 18
        E 32 b0 0b 10
        E 32 b0 0b 08
        E 16 b0 0b 28
        E 16 b0 0b 20
        E 48 b0 0b 18
        E 32 b0 0b 10
        E 16 b0 0b 28
        E 16 b0 0b 20
        E 32 b0 0b 18
        E 32 b0 0b 10
        E 32 b0 0b 08
        E 16 b0 0b 28
        E 0 80 30 00
        E 0 90 32 28
        E 32 b0 0b 20
        E 32 b0 0b 18
        E 32 b0 0b 10
        E 32 b0 0b 08
        E 32 80 32 00
        E 64 b0 0c 10
        E 0 b0 0b 30
        E 0 90 29 30
        E 16 b0 0b 28
        E 32 b0 0b 20
        E 16 b0 0b 30
        E 0 80 29 00
        E 0 90 2d 30
        E 16 b0 0b 28
        E 32 b0 0b 20
        E 16 b0 0b 30
        E 0 80 2d 00
        E 0 90 32 30
        E 16 b0 0b 28
        E 32 b0 0b 30
        E 0 80 32 00
        E 0 90 35 30
        E 16 b0 0b 28
        E 32 b0 0b 20
        E 16 b0 0b 30
        E 0 80 35 00
        E 0 90 39 30
        E 16 b0 0b 28
        E 32 b0 0b 20
        E 16 b0 0b 30
        E 0 80 39 00
        E 0 90 3e 30
        E 16 b0 0b 28
        E 32 b0 0b 20
        E 16 b0 0b 30
        E 0 80 3e 00
        E 0 90 41 30
        E 32 b0 0b 28
        E 16 b0 0b 30
        E 0 80 41 00
        E 0 90 3e 30
        E 16 b0 0b 28
        E 32 b0 0b 20
        E 16 b0 0b 30
        E 0 80 3e 00
        E 0 90 39 30
        E 16 b0 0b 28
        E 32 b0 0b 20
        E 16 b0 0b 30
        E 0 80 39 00
        E 0 90 35 30
        E 16 b0 0b 28
        E 32 b0 0b 30
        E 0 80 35 00
        E 0 90 32 30
        E 16 b0 0b 28
        E 32 b0 0b 20
        E 16 b0 0b 30
        E 0 80 32 00
        E 0 90 2d 30
        E 16 b0 0b 28
        E 32 b0 0b 20
        E 16 b0 0b 30
        E 0 80 2d 00
        E 0 90 29 30
        E 16 b0 0b 28
        E 32 b0 0b 20
        E 16 b0 0b 30
        E 0 80 29 00
        E 0 90 26 30
        E 32 b0 0b 28
        E 16 80 26 00
        E 128 b0 0c 20
        E 0 90 32 28
        E 16 b0 0b 20
        E 48 b0 0b 18
        E 32 b0 0b 10
        E 32 b0 0b 08
        E 32 80 32 00
        E 192 b0 0b 28
        E 0 90 30 28
        E 16 b0 0b 20
        E 32 b0 0b 18
        E 32 b0 0b 10
        E 48 b0 0b 08
        E 32 80 30 00
        E 80 b0 0b 28
        E 0 90 30 28
        E 16 b0 0b 20
        E 32 b0 0b 18
        E 48 b0 0b 10
        E 32 b0 0b 08
        E 32 80 30 00
        E 192 b0 0b 28
        E 0 90 32 28
        E 16 b0 0b 20
        E 32 b0 0b 18
        E 32 b0 0b 10
        E 48 b0 0b 08
        E 32 80 32 00
        E 80 b0 0b 28
        E 0 90 30 28
        E 16 b0 0b 20
        E 32 b0 0b 18
        E 48 b0 0b 10
        E 32 b0 0b 08
        E 32 80 30 00
        E 192 b0 0b 28
        E 0 90 30 28
        E 16 b0 0b 20
        E 32 b0 0b 18
        E 32 b0 0b 10
        E 32 b0 0b 08
        E 48 80 30 00
        E 192 b0 0b 28
        E 0 90 32 28
        E 16 b0 0b 20
        E 32 b0 0b 18
        E 32 b0 0b 10
        E 32 b0 0b 08
        E 32 80 32 00
        E 224 b0 0b 28
        E 0 90 30 28
        E 16 b0 0b 20
        E 48 b0 0b 18
        E 32 b0 0b 10
        E 32 b0 0b 08
        E 32 80 30 00
        E 80 b0 0b 28
        E 0 90 30 28
        E 32 b0 0b 20
        E 32 b0 0b 18
        E 32 b0 0b 10
        E 32 b0 0b 08
        E 32 80 30 00
        E 192 b0 0b 28
        E 0 90 32 28
        E 16 b0 0b 20
        E 32 b0 0b 18
        E 48 b0 0b 10
        E 32 b0 0b 08
        E 32 80 32 00
        E 192 b0 0b 28
        E 0 90 34 28
        E 16 b0 0b 20
        E 32 b0 0b 18
        E 32 b0 0b 10
        E 32 b0 0b 28
        E 0 80 34 00
        E 0 90 32 28
        E 16 b0 0b 20
        E 32 b0 0b 18
        E 32 b0 0b 10
        E 32 b0 0b 08
        E 16 b0 0b 28
        E 0 80 32 00
        E 0 90 34 28
        E 16 b0 0b 20
        E 32 b0 0b 18
        E 48 b0 0b 10
        E 32 b0 0b 08
        E 32 80 34 00
        E 192 b0 0b 28
        E 0 90 32 28
        E 16 b0 0b 20
        E 32 b0 0b 18
        E 32 b0 0b 10
        E 32 b0 0b 08
        E 48 80 32 00
        E 192 b0 0b 28
        E 0 90 30 28
        E 16 b0 0b 20
        E 32 b0 0b 18
        E 32 b0 0b 10
        E 32 b0 0b 08
        E 32 80 30 00
        E 96 b0 0b 28
        E 0 90 30 28
        E 16 b0 0b 20
        E 32 b0 0b 18
        E 32 b0 0b 10
        E 32 b0 0b 08
        E 32 80 30 00
        E 224 b0 0b 28
        E 0 90 32 28
        E 32 b0 0b 20
        E 32 b0 0b 18
        E 32 b0 0b 10
        E 32 b0 0b 08
        E 32 80 32 00
        E 64 b0 0b 28
        E 0 90 30 28
        E 16 b0 0b 20
        E 32 b0 0b 18
        E 32 b0 0b 10
        E 32 b0 0b 08
        E 32 80 30 00
        E 224 b0 0b 28
        E 0 90 30 28
        E 32 b0 0b 20
        E 32 b0 0b 18
        E 32 b0 0b 10
        E 32 b0 0b 08
        E 32 80 30 00
        E 192 b0 0b 28
        E 0 90 32 28
        E 16 b0 0b 20
        E 32 b0 0b 18
        E 48 b0 0b 10
        E 32 b0 0b 08
        E 32 80 32 00
        E 192 b0 0b 28
        E 0 90 30 28
        E 16 b0 0b 20
        E 32 b0 0b 18
        E 32 b0 0b 10
        E 32 b0 0b 08
        E 16 b0 0b 28
        E 32 b0 0b 20
        E 32 b0 0b 18
        E 32 b0 0b 10
        E 16 b0 0b 28
        E 16 b0 0b 20
        E 32 b0 0b 18
        E 32 b0 0b 10
        E 32 b0 0b 28
        E 0 80 30 00
        E 0 90 32 28
        E 16 b0 0b 20
        E 32 b0 0b 18
        E 32 b0 0b 10
        E 32 b0 0b 08
        E 32 80 32 00
        E 96 b0 0c 10
        E 0 b0 0b 30
        E 0 90 29 30
        E 16 b0 0b 28
        E 32 b0 0b 20
        E 16 b0 0b 30
        E 0 80 29 00
        E 0 90 2d 30
        E 16 b0 0b 28
        E 32 b0 0b 20
        E 16 b0 0b 30
        E 0 80 2d 00
        E 0 90 32 30
        E 16 b0 0b 28
        E 32 b0 0b 30
        E 0 80 32 00
        E 0 90 35 30
        E 16 b0 0b 28
        E 32 b0 0b 20
        E 16 b0 0b 30
        E 0 80 35 00
        E 0 90 39 30
        E 16 b0 0b 28
        E 32 b0 0b 20
        E 16 b0 0b 30
        E 0 80 39 00
        E 0 90 3e 30
        E 16 b0 0b 28
        E 32 b0 0b 20
        E 16 b0 0b 30
        E 0 80 3e 00
        E 0 90 41 30
        E 32 b0 0b 28
        E 16 b0 0b 30
        E 0 80 41 00
        E 0 90 3e 30
        E 16 b0 0b 28
        E 32 b0 0b 20
        E 16 b0 0b 30
        E 0 80 3e 00
        E 0 90 39 30
        E 16 b0 0b 28
        E 32 b0 0b 20
        E 16 b0 0b 30
        E 0 80 39 00
        E 0 90 35 30
        E 32 b0 0b 28
        E 16 b0 0b 30
        E 0 80 35 00
        E 0 90 32 30
        E 16 b0 0b 28
        E 32 b0 0b 20
        E 16 b0 0b 30
        E 0 80 32 00
        E 0 90 2d 30
        E 16 b0 0b 28
        E 32 b0 0b 20
        E 16 b0 0b 30
        E 0 80 2d 00
        E 0 90 29 30
        E 16 b0 0b 28
        E 32 b0 0b 30
        E 0 80 29 00
        E 0 90 26 30
        E 16 b0 0b 28
        E 32 b0 0b 20
        E 16 80 26 00
        E 128 b0 0b 30
        E 0 90 29 30
        E 32 b0 0b 28
        E 16 b0 0b 30
        E 0 80 29 00
        E 0 90 2d 30
        E 16 b0 0b 28
        E 32 b0 0b 20
        E 16 b0 0b 30
        E 0 80 2d 00
        E 0 90 32 30
        E 16 b0 0b 28
        E 32 b0 0b 20
        E 16 b0 0b 30
        E 0 80 32 00
        E 0 90 35 30
        E 16 b0 0b 28
        E 32 b0 0b 30
        E 0 80 35 00
        E 0 90 39 30
        E 16 b0 0b 28
        E 32 b0 0b 20
        E 16 b0 0b 30
        E 0 80 39 00
        E 0 90 3e 30
        E 16 b0 0b 28
        E 32 b0 0b 20
        E 16 b0 0b 30
        E 0 80 3e 00
        E 0 90 41 30
        E 16 b0 0b 28
        E 32 b0 0b 20
        E 16 b0 0b 30
        E 0 80 41 00
        E 0 90 3e 30
        E 32 b0 0b 28
        E 16 b0 0b 30
        E 0 80 3e 00
        E 0 90 39 30
        E 16 b0 0b 28
        E 32 b0 0b 20
        E 16 b0 0b 30
        E 0 80 39 00
        E 0 90 35 30
        E 16 b0 0b 28
        E 32 b0 0b 20
        E 16 b0 0b 30
        E 0 80 35 00
        E 0 90 32 30
        E 16 b0 0b 28
        E 32 b0 0b 30
        E 0 80 32 00
        E 0 90 2d 30
        E 16 b0 0b 28
        E 32 b0 0b 20
        E 16 b0 0b 30
        E 0 80 2d 00
        E 0 90 29 30
        E 16 b0 0b 28
        E 32 b0 0b 20
        E 16 b0 0b 30
        E 0 80 29 00
        E 0 90 26 30
        E 16 b0 0b 28
        E 32 b0 0b 20
        E 16 b0 0b 28
        E 0 80 26 00
        E 0 90 36 28
        E 32 b0 0b 20
        E 32 b0 0b 18
        E 32 b0 0b 10
        E 16 b0 0b 28
        E 16 b0 0b 20
        E 32 b0 0b 18
        E 32 b0 0b 10
        E 48 b0 0b 08
        E 32 80 36 00
        E 80 b0 0b 28
        E 0 90 37 28
        E 16 b0 0b 20
        E 32 b0 0b 18
        E 48 b0 0b 10
        E 32 b0 0b 08
        E 32 80 37 00
        E 192 b0 0b 28
        E 0 90 36 28
        E 16 b0 0b 20
        E 32 b0 0b 18
        E 32 b0 0b 10
        E 48 b0 0b 08
        E 32 80 36 00
        E 192 b0 0c 40
        E 0 b0 0b 28
        E 0 90 28 28
        E 16 b0 0b 20
        E 32 b0 0b 18
        E 16 80 28 00
        E 64 b0 0b 28
        E 0 90 2d 28
        E 16 b0 0b 20
        E 32 b0 0b 10
        E 0 80 2d 00
        E 0 90 28 10
        E 16 b0 0b 08
        E 32 80 28 00
        E 16 b0 0b 28
        E 0 90 31 28
        E 16 b0 0b 20
        E 32 b0 0b 18
        E 16 b0 0b 10
        E 0 80 31 00
        E 0 90 2d 10
        E 16 b0 0b 08
        E 32 80 2d 00
        E 16 b0 0b 28
        E 0 90 32 28
        E 32 b0 0b 20
        E 16 b0 0b 10
        E 0 80 32 00
        E 0 90 31 10
        E 16 b0 0b 08
        E 32 80 31 00
        E 16 b0 0b 28
        E 0 90 31 28
        E 16 b0 0b 20
        E 32 b0 0b 18
        E 16 b0 0b 10
        E 0 80 31 00
        E 0 90 32 10
        E 16 b0 0b 08
        E 32 b0 0b 28
        E 0 80 32 00
        E 0 90 2d 28
        E 16 b0 0b 20
        E 32 b0 0b 18
        E 16 b0 0b 10
        E 0 80 2d 00
        E 0 90 31 10
        E 16 b0 0b 08
        E 32 80 31 00
        E 16 b0 0b 28
        E 0 90 28 28
        E 16 b0 0b 20
        E 32 b0 0b 18
        E 16 b0 0b 10
        E 0 80 28 00
        E 0 90 2d 10
        E 32 b0 0b 08
        E 16 b0 0c 10
        E 0 b0 0b 28
        E 0 80 2d 00
        E 0 90 36 28
        E 16 b0 0b 20
        E 32 b0 0b 18
        E 32 b0 0b 10
        E 32 b0 0b 08
        E 16 b0 0b 28
        E 16 b0 0b 20
        E 48 b0 0b 18
        E 32 b0 0b 10
        E 32 b0 0b 08
        E 32 80 36 00
        E 192 b0 0b 28
        E 0 90 37 28
        E 16 b0 0b 20
        E 32 b0 0b 18
        E 32 b0 0b 10
        E 48 b0 0b 08
        E 32 80 37 00
        E 80 b0 0b 28
        E 0 90 39 28
        E 16 b0 0b 20
        E 32 b0 0b 18
        E 48 b0 0b 10
        E 32 b0 0b 08
        E 32 80 39 00
        E 80 b0 0b 28
        E 0 90 39 28
        E 32 b0 0b 20
        E 32 b0 0b 18
        E 32 b0 0b 10
        E 32 b0 0b 08
        E 32 80 39 00
        E 64 b0 0b 28
        E 0 90 37 28
        E 16 b0 0b 20
        E 32 b0 0b 18
        E 32 b0 0b 10
        E 32 b0 0b 08
        E 32 80 37 00
        E 96 b0 0b 28
        E 0 90 32 28
        E 16 b0 0b 20
        E 32 b0 0b 18
        E 32 b0 0b 10
        E 32 b0 0b 08
        E 32 80 32 00
        E 96 b0 0b 28
        E 0 90 34 28
        E 16 b0 0b 20
        E 32 b0 0b 18
        E 32 b0 0b 10
        E 32 b0 0b 08
        E 48 80 34 00
        E 80 b0 0b 28
        E 0 90 36 28
        E 16 b0 0b 20
        E 32 b0 0b 18
        E 32 b0 0b 10
        E 32 b0 0b 28
        E 16 b0 0b 20
        E 32 b0 0b 18
        E 32 b0 0b 10
        E 32 b0 0b 08
        E 32 80 36 00
        E 96 b0 0b 28
        E 0 90 37 28
        E 16 b0 0b 20
        E 32 b0 0b 18
        E 32 b0 0b 10
        E 32 b0 0b 08
        E 32 80 37 00
        E 224 b0 0b 28
        E 0 90 36 28
        E 32 b0 0b 20
        E 32 b0 0b 18
        E 32 b0 0b 10
        E 32 b0 0b 08
        E 32 80 36 00
        E 192 b0 0c 40
        E 0 b0 0b 28
        E 0 90 28 28
        E 16 b0 0b 20
        E 32 80 28 00
        E 64 b0 0b 28
        E 0 90 2d 28
        E 16 b0 0b 20
        E 32 b0 0b 18
        E 16 b0 0b 10
        E 0 80 2d 00
        E 0 90 28 10
        E 16 b0 0b 08
        E 32 80 28 00
        E 16 b0 0b 28
        E 0 90 31 28
        E 32 b0 0b 20
        E 16 b0 0b 10
        E 0 80 31 00
        E 0 90 2d 10
        E 16 b0 0b 08
        E 32 80 2d 00
        E 16 b0 0b 28
        E 0 90 32 28
        E 16 b0 0b 20
        E 32 b0 0b 18
        E 16 b0 0b 10
        E 0 80 32 00
        E 0 90 31 10
        E 16 b0 0b 08
        E 32 b0 0b 28
        E 16 b0 0b 20
        E 32 b0 0b 18
        E 16 b0 0b 10
        E 0 80 31 00
        E 0 90 32 10
        E 16 b0 0b 08
        E 32 80 32 00
        E 16 b0 0b 28
        E 0 90 2d 28
        E 16 b0 0b 20
        E 32 b0 0b 18
        E 16 b0 0b 10
        E 0 80 2d 00
        E 0 90 31 10
        E 32 b0 0b 08
        E 16 b0 0b 28
        E 0 80 31 00
        E 0 90 28 28
        E 16 b0 0b 20
        E 32 b0 0b 18
        E 16 b0 0b 10
        E 0 80 28 00
        E 0 90 2d 10
        E 16 b0 0b 08
        E 32 80 2d 00
        E 16 b0 0c 10
        E 0 b0 0b 28
        E 0 90 36 28
        E 16 b0 0b 20
        E 48 b0 0b 18
        E 32 b0 0b 10
        E 16 b0 0b 28
        E 16 b0 0b 20
        E 32 b0 0b 18
        E 32 b0 0b 10
        E 32 b0 0b 08
        E 48 80 36 00
        E 192 b0 0b 28
        E 0 90 37 28
        E 16 b0 0b 20
        E 32 b0 0b 18
        E 32 b0 0b 10
        E 32 b0 0b 08
        E 32 80 37 00
        E 96 b0 0b 28
        E 0 90 39 28
        E 16 b0 0b 20
        E 32 b0 0b 18
        E 32 b0 0b 10
        E 32 b0 0b 08
        E 32 80 39 00
        E 96 b0 0b 28
        E 0 90 34 28
        E 16 b0 0b 20
        E 32 b0 0b 18
        E 32 b0 0b 10
        E 32 b0 0b 08
        E 16 b0 0b 28
        E 32 b0 0b 20
        E 32 b0 0b 18
        E 32 b0 0b 10
        E 16 b0 0b 28
        E 16 b0 0b 20
        E 32 b0 0b 18
        E 48 b0 0b 10
        E 16 b0 0b 28
        E 0 80 34 00
        E 0 90 30 28
        E 16 b0 0b 20
        E 32 b0 0b 18
        E 32 b0 0b 10
        E 32 b0 0b 08
        E 32 80 30 00
        E 96 b0 0b 28
        E 0 90 30 28
        E 16 b0 0b 20
        E 32 b0 0b 18
        E 32 b0 0b 10
        E 32 b0 0b 08
        E 16 b0 0b 28
        E 32 b0 0b 20
        E 32 b0 0b 18
        E 32 b0 0b 10
        E 16 b0 0b 28
        E 16 b0 0b 20
        E 32 b0 0b 18
        E 32 b0 0b 10
        E 32 b0 0b 28
        E 0 80 30 00
        E 0 90 36 28
        E 16 b0 0b 20
        E 32 b0 0b 18
        E 32 b0 0b 10
        E 32 b0 0b 08
        E 16 b0 0b 28
        E 16 b0 0b 20
        E 32 b0 0b 18
        E 48 b0 0b 10
        E 32 b0 0b 08
        E 32 80 36 00
        E 80 b0 0b 28
        E 0 90 37 28
        E 16 b0 0b 20
        E 48 b0 0b 18
        E 32 b0 0b 10
        E 32 b0 0b 08
        E 32 80 37 00
        E 192 b0 0b 28
        E 0 90 36 28
        E 16 b0 0b 20
        E 32 b0 0b 18
        E 32 b0 0b 10
        E 48 b0 0b 08
        E 32 80 36 00
        E 192 b0 0c 40
        E 0 b0 0b 28
        E 0 90 28 28
        E 16 b0 0b 20
        E 32 b0 0b 18
        E 16 80 28 00
        E 64 b0 0b 28
        E 0 90 2d 28
        E 16 b0 0b 20
        E 32 b0 0b 10
        E 0 80 2d 00
        E 0 90 28 10
        E 16 b0 0b 08
        E 32 80 28 00
        E 16 b0 0b 28
        E 0 90 31 28
        E 16 b0 0b 20
        E 32 b0 0b 18
        E 16 b0 0b 10
        E 0 80 31 00
        E 0 90 2d 10
        E 16 b0 0b 08
        E 32 b0 0b 28
        E 0 80 2d 00
        E 0 90 32 28
        E 16 b0 0b 20
        E 32 b0 0b 18
        E 16 b0 0b 10
        E 0 80 32 00
        E 0 90 31 10
        E 16 b0 0b 08
        E 32 80 31 00
        E 16 b0 0b 28
        E 0 90 31 28
        E 16 b0 0b 20
        E 32 b0 0b 18
        E 16 b0 0b 10
        E 0 80 31 00
        E 0 90 32 10
        E 32 b0 0b 08
        E 16 b0 0b 28
        E 0 80 32 00
        E 0 90 2d 28
        E 16 b0 0b 20
        E 32 b0 0b 18
        E 16 b0 0b 10
        E 0 80 2d 00
        E 0 90 31 10
        E 16 b0 0b 08
        E 32 80 31 00
        E 16 b0 0b 28
        E 0 90 28 28
        E 16 b0 0b 20
        E 32 b0 0b 10
        E 0 80 28 00
        E 0 90 2d 10
        E 16 b0 0b 08
        E 32 80 2d 00
        E 16 b0 0c 10
        E 0 b0 0b 28
        E 0 90 36 28
        E 16 b0 0b 20
        E 32 b0 0b 18
        E 32 b0 0b 10
        E 32 b0 0b 08
        E 16 b0 0b 28
        E 32 b0 0b 20
        E 32 b0 0b 18
        E 32 b0 0b 10
        E 32 b0 0b 08
        E 32 80 36 00
        E 192 b0 0b 28
        E 0 90 37 28
        E 16 b0 0b 20
        E 32 b0 0b 18
        E 48 b0 0b 10
        E 32 b0 0b 08
        E 32 80 37 00
        E 80 b0 0b 28
        E 0 90 39 28
        E 16 b0 0b 20
        E 48 b0 0b 18
        E 32 b0 0b 10
        E 32 b0 0b 08
        E 32 80 39 00
        E 80 b0 0b 28
        E 0 90 39 28
        E 32 b0 0b 20
        E 32 b0 0b 18
        E 32 b0 0b 10
        E 32 b0 0b 08
        E 32 80 39 00
        E 64 b0 0b 28
        E 0 90 37 28
        E 16 b0 0b 20
        E 32 b0 0b 18
        E 32 b0 0b 10
        E 32 b0 0b 08
        E 32 80 37 00
        E 96 b0 0b 28
        E 0 90 32 28
        E 16 b0 0b 20
        E 32 b0 0b 18
        E 32 b0 0b 10
        E 32 b0 0b 08
        E 48 80 32 00
        E 80 b0 0b 28
        E 0 90 34 28
        E 16 b0 0b 20
        E 32 b0 0b 18
        E 32 b0 0b 10
        E 48 b0 0b 08
        E 32 80 34 00
        E 80 b0 0b 28
        E 0 90 36 28
        E 16 b0 0b 20
        E 32 b0 0b 18
        E 48 b0 0b 10
        E 16 b0 0b 28
        E 16 b0 0b 20
        E 32 b0 0b 18
        E 32 b0 0b 10
        E 32 b0 0b 08
        E 32 80 36 00
        E 96 b0 0b 28
        E 0 90 37 28
        E 16 b0 0b 20
        E 32 b0 0b 18
        E 32 b0 0b 10
        E 32 b0 0b 08
        E 48 80 37 00
        E 192 b0 0b 28
        E 0 90 36 28
        E 16 b0 0b 20
        E 32 b0 0b 18
        E 32 b0 0b 10
        E 32 b0 0b 08
        E 32 80 36 00
        E 224 b0 0c 40
        E 0 b0 0b 28
        E 0 90 28 28
        E 16 b0 0b 20
        E 32 80 28 00
        E 64 b0 0b 28
        E 0 90 2d 28
        E 16 b0 0b 20
        E 32 b0 0b 18
        E 16 b0 0b 10
        E 0 80 2d 00
        E 0 90 28 10
        E 16 b0 0b 08
        E 32 80 28 00
        E 16 b0 0b 28
        E 0 90 31 28
        E 32 b0 0b 20
        E 16 b0 0b 10
        E 0 80 31 00
        E 0 90 2d 10
        E 16 b0 0b 08
        E 32 80 2d 00
        E 16 b0 0b 28
        E 0 90 32 28
        E 16 b0 0b 20
        E 32 b0 0b 18
        E 16 b0 0b 10
        E 0 80 32 00
        E 0 90 31 10
        E 16 b0 0b 08
        E 32 b0 0b 28
        E 16 b0 0b 20
        E 32 b0 0b 18
        E 16 b0 0b 10
        E 0 80 31 00
        E 0 90 32 10
        E 16 b0 0b 08
        E 32 80 32 00
        E 16 b0 0b 28
        E 0 90 2d 28
        E 16 b0 0b 20
        E 32 b0 0b 10
        E 0 80 2d 00
        E 0 90 31 10
        E 16 b0 0b 08
        E 32 80 31 00
        E 16 b0 0b 28
        E 0 90 28 28
        E 16 b0 0b 20
        E 32 b0 0b 18
        E 16 b0 0b 10
        E 0 80 28 00
        E 0 90 2d 10
        E 16 b0 0b 08
        E 32 80 2d 00
        E 16 b0 0c 10
        E 0 b0 0b 28
        E 0 90 36 28
        E 32 b0 0b 20
        E 32 b0 0b 18
        E 32 b0 0b 10
        E 16 b0 0b 28
        E 16 b0 0b 20
        E 32 b0 0b 18
        E 32 b0 0b 10
        E 48 b0 0b 08
        E 32 80 36 00
        E 192 b0 0b 28
        E 0 90 37 28
        E 16 b0 0b 20
        E 32 b0 0b 18
        E 32 b0 0b 10
        E 32 b0 0b 08
        E 32 80 37 00
        E 96 b0 0b 28
        E 0 90 39 28
        E 16 b0 0b 20
        E 32 b0 0b 18
        E 32 b0 0b 10
        E 32 b0 0b 08
        E 48 80 39 00
        E 80 b0 0b 28
        E 0 90 34 28
        E 16 b0 0b 20
        E 32 b0 0b 18
        E 32 b0 0b 10
        E 32 b0 0b 28
        E 16 b0 0b 20
        E 32 b0 0b 18
        E 32 b0 0b 10
        E 32 b0 0b 08
        E 16 b0 0b 28
        E 16 b0 0b 20
        E 32 b0 0b 18
        E 48 b0 0b 10
        E 16 b0 0b 28
        E 0 80 34 00
        E 0 90 30 28
        E 16 b0 0b 20
        E 32 b0 0b 18
        E 32 b0 0b 10
        E 32 b0 0b 08
        E 32 80 30 00
        E 96 b0 0b 28
        E 0 90 30 28
        E 16 b0 0b 20
        E 32 b0 0b 18
        E 32 b0 0b 10
        E 32 b0 0b 08
        E 16 b0 0b 28
        E 32 b0 0b 20
        E 32 b0 0b 18
        E 32 b0 0b 10
        E 16 b0 0b 28
        E 16 b0 0b 20
        E 32 b0 0b 18
        E 48 b0 0b 10
        E 16 b0 0c 20
        E 0 b0 0b 30
        E 0 80 30 00
        E 0 90 32 30
        E 16 b0 0b 28
        E 32 b0 0b 20
        E 32 b0 0b 18
        E 32 b0 0b 10
        E 16 b0 0b 20
        E 112 b0 0b 10
        E 128 b0 0b 30
        E 112 b0 0b 20
        E 112 b0 0b 10
        E 128 b0 0b 30
        E 112 b0 0b 20
        E 128 b0 0b 10
        E 112 b0 0b 30
        E 128 b0 0b 20
        E 112 b0 0b 10
        E 112 b0 0b 30
        E 128 b0 0b 18
        E 112 b0 0b 30
        E 128 b0 0b 18
        E 112 b0 0b 30
        E 0 80 32 00
        E 0 90 3e 30
        E 16 b0 0b 28
        E 32 b0 0b 20
        E 32 b0 0b 18
        E 32 b0 0b 20
        E 128 b0 0b 10
        E 112 b0 0b 30
        E 128 b0 0b 20
        E 112 b0 0b 10
        E 128 b0 0b 30
        E 112 b0 0b 20
        E 112 b0 0b 10
        E 128 b0 0b 30
        E 112 b0 0b 20
        E 128 b0 0b 10
        E 112 b0 0b 30
        E 128 b0 0b 18
        E 112 b0 0b 30
        E 112 b0 0b 18
        E 128 80 3e 00
        E 112 b0 0b 28
        E 0 90 32 28
        E 16 b0 0b 20
        E 32 b0 0b 18
        E 32 b0 0b 10
        E 32 b0 0b 08
        E 48 80 32 00
        E 192 b0 0b 28
        E 0 90 30 28
        E 16 b0 0b 20
        E 32 b0 0b 18
        E 32 b0 0b 10
        E 32 b0 0b 08
        E 32 80 30 00
        E 96 b0 0b 28
        E 0 90 30 28
        E 16 b0 0b 20
        E 32 b0 0b 18
        E 32 b0 0b 10
        E 32 b0 0b 08
        E 32 80 30 00
        E 224 b0 0b 28
        E 0 90 32 28
        E 32 b0 0b 20
        E 32 b0 0b 18
        E 32 b0 0b 10
        E 32 b0 0b 08
        E 32 80 32 00
        E 64 b0 0b 28
        E 0 90 30 28
        E 16 b0 0b 20
        E 32 b0 0b 18
        E 32 b0 0b 10
        E 32 b0 0b 08
        E 32 80 30 00
        E 224 b0 0b 28
        E 0 90 30 28
        E 16 b0 0b 20
        E 48 b0 0b 18
        E 32 b0 0b 10
        E 32 b0 0b 08
        E 32 80 30 00
        E 192 b0 0b 28
        E 0 90 32 28
        E 16 b0 0b 20
        E 32 b0 0b 18
        E 32 b0 0b 10
        E 48 b0 0b 08
        E 32 80 32 00
        E 192 b0 0b 28
        E 0 90 30 28
        E 16 b0 0b 20
        E 32 b0 0b 18
        E 32 b0 0b 10
        E 32 b0 0b 08
        E 48 80 30 00
        E 80 b0 0b 28
        E 0 90 30 28
        E 16 b0 0b 20
        E 32 b0 0b 18
        E 32 b0 0b 10
        E 48 b0 0b 08
        E 32 80 30 00
        E 192 b0 0b 28
        E 0 90 32 28
        E 16 b0 0b 20
        E 32 b0 0b 18
        E 32 b0 0b 10
        E 32 b0 0b 08
        E 32 80 32 00
        E 224 b0 0b 28
        E 0 90 34 28
        E 32 b0 0b 20
        E 32 b0 0b 18
        E 32 b0 0b 10
        E 16 b0 0b 28
        E 0 80 34 00
        E 0 90 32 28
        E 16 b0 0b 20
        E 32 b0 0b 18
        E 32 b0 0b 10
        E 32 b0 0b 28
        E 0 80 32 00
        E 0 90 34 28
        E 16 b0 0b 20
        E 32 b0 0b 18
        E 32 b0 0b 10
        E 32 b0 0b 08
        E 32 80 34 00
        E 224 b0 0b 28
        E 0 90 32 28
        E 16 b0 0b 20
        E 48 b0 0b 18
        E 32 b0 0b 10
        E 32 b0 0b 08
        E 32 80 32 00
        E 192 b0 0b 28
        E 0 90 30 28
        E 16 b0 0b 20
        E 32 b0 0b 18
        E 48 b0 0b 10
        E 32 b0 0b 08
        E 32 80 30 00
        E 80 b0 0b 28
        E 0 90 30 28
        E 16 b0 0b 20
        E 48 b0 0b 18
        E 32 b0 0b 10
        E 32 b0 0b 08
        E 32 80 30 00
        E 192 b0 0b 28
        E 0 90 32 28
        E 16 b0 0b 20
        E 32 b0 0b 18
        E 32 b0 0b 10
        E 48 b0 0b 08
        E 32 80 32 00
        E 80 b0 0b 28
        E 0 90 30 28
        E 16 b0 0b 20
        E 32 b0 0b 18
        E 48 b0 0b 10
        E 32 b0 0b 08
        E 32 80 30 00
        E 192 b0 0b 28
        E 0 90 30 28
        E 16 b0 0b 20
        E 32 b0 0b 18
        E 32 b0 0b 10
        E 32 b0 0b 08
        E 48 80 30 00
        E 192 b0 0b 28
        E 0 90 32 28
        E 16 b0 0b 20
        E 32 b0 0b 18
        E 32 b0 0b 10
        E 32 b0 0b 08
        E 32 80 32 00
        E 224 b0 0b 28
        E 0 90 30 28
        E 16 b0 0b 20
        E 48 b0 0b 18
        E 32 b0 0b 10
        E 16 b0 0b 28
        E 16 b0 0b 20
        E 32 b0 0b 18
        E 32 b0 0b 10
        E 32 b0 0b 28
        E 16 b0 0b 20
        E 32 b0 0b 18
        E 32 b0 0b 10
        E 32 b0 0b 08
        E 16 b0 0b 28
        E 0 80 30 00
        E 0 90 32 28
        E 16 b0 0b 20
        E 32 b0 0b 18
        E 48 b0 0b 10
        E 32 b0 0b 08
        E 32 80 32 00
        E 80 b0 0c 10
        E 0 b0 0b 30
        E 0 90 29 30
        E 16 b0 0b 28
        E 32 b0 0b 30
        E 0 80 29 00
        E 0 90 2d 30
        E 16 b0 0b 28
        E 32 b0 0b 20
        E 16 b0 0b 30
        E 0 80 2d 00
        E 0 90 32 30
        E 16 b0 0b 28
        E 32 b0 0b 20
        E 16 b0 0b 30
        E 0 80 32 00
        E 0 90 35 30
        E 16 b0 0b 28
        E 32 b0 0b 20
        E 16 b0 0b 30
        E 0 80 35 00
        E 0 90 39 30
        E 32 b0 0b 28
        E 16 b0 0b 30
        E 0 80 39 00
        E 0 90 3e 30
        E 16 b0 0b 28
        E 32 b0 0b 20
        E 16 b0 0b 30
        E 0 80 3e 00
        E 0 90 41 30
        E 16 b0 0b 28
        E 32 b0 0b 20
        E 16 b0 0b 30
        E 0 80 41 00
        E 0 90 3e 30
        E 16 b0 0b 28
        E 32 b0 0b 30
        E 0 80 3e 00
        E 0 90 39 30
        E 16 b0 0b 28
        E 32 b0 0b 20
        E 16 b0 0b 30
        E 0 80 39 00
        E 0 90 35 30
        E 16 b0 0b 28
        E 32 b0 0b 20
        E 16 b0 0b 30
        E 0 80 35 00
        E 0 90 32 30
        E 16 b0 0b 28
        E 32 b0 0b 20
        E 16 b0 0b 30
        E 0 80 32 00
        E 0 90 2d 30
        E 32 b0 0b 28
        E 16 b0 0b 30
        E 0 80 2d 00
        E 0 90 29 30
        E 16 b0 0b 28
        E 32 b0 0b 20
        E 16 b0 0b 30
        E 0 80 29 00
        E 0 90 26 30
        E 16 b0 0b 28
        E 32 b0 0b 20
        E 16 80 26 00
        E 112 b0 0c 20
        E 0 b0 0b 28
        E 0 90 32 28
        E 16 b0 0b 20
        E 32 b0 0b 18
        E 32 b0 0b 10
        E 32 b0 0b 08
        E 48 80 32 00
        E 192 b0 0b 28
        E 0 90 30 28
        E 16 b0 0b 20
        E 32 b0 0b 18
        E 32 b0 0b 10
        E 32 b0 0b 08
        E 32 80 30 00
        E 96 b0 0b 28
        E 0 90 30 28
        E 16 b0 0b 20
        E 32 b0 0b 18
        E 32 b0 0b 10
        E 32 b0 0b 08
        E 48 80 30 00
        E 192 b0 0b 28
        E 0 90 32 28
        E 16 b0 0b 20
        E 32 b0 0b 18
        E 32 b0 0b 10
        E 32 b0 0b 08
        E 32 80 32 00
        E 96 b0 0b 28
        E 0 90 30 28
        E 16 b0 0b 20
        E 32 b0 0b 18
        E 32 b0 0b 10
        E 32 b0 0b 08
        E 32 80 30 00
        E 224 b0 0b 28
        E 0 90 30 28
        E 32 b0 0b 20
        E 32 b0 0b 18
        E 32 b0 0b 10
        E 32 b0 0b 08
        E 32 80 30 00
        E 192 b0 0b 28
        E 0 90 32 28
        E 16 b0 0b 20
        E 32 b0 0b 18
        E 48 b0 0b 10
        E 32 b0 0b 08
        E 32 80 32 00
        E 192 b0 0b 28
        E 0 90 30 28
        E 16 b0 0b 20
        E 32 b0 0b 18
        E 32 b0 0b 10
        E 32 b0 0b 08
        E 48 80 30 00
        E 80 b0 0b 28
        E 0 90 30 28
        E 16 b0 0b 20
        E 32 b0 0b 18
        E 32 b0 0b 10
        E 48 b0 0b 08
        E 32 80 30 00
        E 192 b0 0b 28
        E 0 90 32 28
        E 16 b0 0b 20
        E 32 b0 0b 18
        E 32 b0 0b 10
        E 32 b0 0b 08
        E 48 80 32 00
        E 192 b0 0b 28
        E 0 90 34 28
        E 16 b0 0b 20
        E 32 b0 0b 18
        E 32 b0 0b 10
        E 32 b0 0b 08
        E 16 b0 0b 28
        E 0 80 34 00
        E 0 90 32 28
        E 16 b0 0b 20
        E 32 b0 0b 18
        E 48 b0 0b 10
        E 16 b0 0b 28
        E 0 80 32 00
        E 0 90 34 28
        E 16 b0 0b 20
        E 32 b0 0b 18
        E 32 b0 0b 10
        E 32 b0 0b 08
        E 32 80 34 00
        E 224 b0 0b 28
        E 0 90 32 28
        E 32 b0 0b 20
        E 32 b0 0b 18
        E 32 b0 0b 10
        E 32 b0 0b 08
        E 32 80 32 00
        E 192 b0 0b 28
        E 0 90 30 28
        E 16 b0 0b 20
        E 32 b0 0b 18
        E 48 b0 0b 10
        E 32 b0 0b 08
        E 32 80 30 00
        E 80 b0 0b 28
        E 0 90 30 28
        E 16 b0 0b 20
        E 48 b0 0b 18
        E 32 b0 0b 10
        E 32 b0 0b 08
        E 32 80 30 00
        E 192 b0 0b 28
        E 0 90 32 28
        E 16 b0 0b 20
        E 32 b0 0b 18
        E 48 b0 0b 10
        E 32 b0 0b 08
        E 32 80 32 00
        E 80 b0 0b 28
        E 0 90 30 28
        E 16 b0 0b 20
        E 48 b0 0b 18
        E 32 b0 0b 10
        E 32 b0 0b 08
        E 32 80 30 00
        E 192 b0 0b 28
        E 0 90 30 28
        E 16 b0 0b 20
        E 32 b0 0b 18
        E 32 b0 0b 10
        E 48 b0 0b 08
        E 32 80 30 00
        E 192 b0 0b 28
        E 0 90 32 28
        E 16 b0 0b 20
        E 32 b0 0b 18
        E 32 b0 0b 10
        E 32 b0 0b 08
        E 32 80 32 00
        E 224 b0 0b 28
        E 0 90 30 28
        E 32 b0 0b 20
        E 32 b0 0b 18
        E 32 b0 0b 10
        E 16 b0 0b 28
        E 16 b0 0b 20
        E 32 b0 0b 18
        E 32 b0 0b 10
        E 32 b0 0b 28
        E 16 b0 0b 20
        E 32 b0 0b 18
        E 32 b0 0b 10
        E 32 b0 0b 08
        E 16 b0 0b 28
        E 0 80 30 00
        E 0 90 32 28
        E 16 b0 0b 20
        E 32 b0 0b 18
        E 48 b0 0b 10
        E 32 b0 0b 08
        E 32 80 32 00
        E 80 b0 0c 10
        E 0 b0 0b 30
        E 0 90 29 30
        E 16 b0 0b 28
        E 32 b0 0b 30
        E 0 80 29 00
        E 0 90 2d 30
        E 16 b0 0b 28
        E 32 b0 0b 20
        E 16 b0 0b 30
        E 0 80 2d 00
        E 0 90 32 30
        E 16 b0 0b 28
        E 32 b0 0b 20
        E 16 b0 0b 30
        E 0 80 32 00
        E 0 90 35 30
        E 16 b0 0b 28
        E 32 b0 0b 30
        E 0 80 35 00
        E 0 90 39 30
        E 16 b0 0b 28
        E 32 b0 0b 20
        E 16 b0 0b 30
        E 0 80 39 00
        E 0 90 3e 30
        E 16 b0 0b 28
        E 32 b0 0b 20
        E 16 b0 0b 30
        E 0 80 3e 00
        E 0 90 41 30
        E 16 b0 0b 28
        E 32 b0 0b 20
        E 16 b0 0b 30
        E 0 80 41 00
        E 0 90 3e 30
        E 32 b0 0b 28
        E 16 b0 0b 30
        E 0 80 3e 00
        E 0 90 39 30
        E 16 b0 0b 28
        E 32 b0 0b 20
        E 16 b0 0b 30
        E 0 80 39 00
        E 0 90 35 30
        E 16 b0 0b 28
        E 32 b0 0b 20
        E 16 b0 0b 30
        E 0 80 35 00
        E 0 90 32 30
        E 16 b0 0b 28
        E 32 b0 0b 30
        E 0 80 32 00
        E 0 90 2d 30
        E 16 b0 0b 28
        E 32 b0 0b 20
        E 16 b0 0b 30
        E 0 80 2d 00
        E 0 90 29 30
        E 16 b0 0b 28
        E 32 b0 0b 20
        E 16 b0 0b 30
        E 0 80 29 00
        E 0 90 26 30
        E 16 b0 0b 28
        E 32 b0 0b 20
        E 16 80 26 00
        E 112 b0 0b 30
        E 0 90 29 30
        E 16 b0 0b 28
        E 32 b0 0b 20
        E 16 b0 0b 30
        E 0 80 29 00
        E 0 90 2d 30
        E 16 b0 0b 28
        E 32 b0 0b 30
        E 0 80 2d 00
        E 0 90 32 30
        E 16 b0 0b 28
        E 32 b0 0b 20
        E 16 b0 0b 30
        E 0 80 32 00
        E 0 90 35 30
        E 16 b0 0b 28
        E 32 b0 0b 20
        E 16 b0 0b 30
        E 0 80 35 00
        E 0 90 39 30
        E 16 b0 0b 28
        E 32 b0 0b 20
        E 16 b0 0b 30
        E 0 80 39 00
        E 0 90 3e 30
        E 32 b0 0b 28
        E 16 b0 0b 30
        E 0 80 3e 00
        E 0 90 41 30
        E 16 b0 0b 28
        E 32 b0 0b 20
        E 16 b0 0b 30
        E 0 80 41 00
        E 0 90 3e 30
        E 16 b0 0b 28
        E 32 b0 0b 20
        E 16 b0 0b 30
        E 0 80 3e 00
        E 0 90 39 30
        E 16 b0 0b 28
        E 32 b0 0b 30
        E 0 80 39 00
        E 0 90 35 30
        E 16 b0 0b 28
        E 32 b0 0b 20
        E 16 b0 0b 30
        E 0 80 35 00
        E 0 90 32 30
        E 16 b0 0b 28
        E 32 b0 0b 20
        E 16 b0 0b 30
        E 0 80 32 00
        E 0 90 2d 30
        E 16 b0 0b 28
        E 32 b0 0b 20
        E 16 b0 0b 30
        E 0 80 2d 00
        E 0 90 29 30
        E 32 b0 0b 28
        E 16 b0 0b 30
        E 0 80 29 00
        E 0 90 26 30
        E 16 b0 0b 28
        E 32 b0 0b 20
        E 16 b0 0b 28
        E 0 80 26 00
        E 0 90 36 28
        E 16 b0 0b 20
        E 32 b0 0b 18
        E 32 b0 0b 10
        E 32 b0 0b 28
        E 16 b0 0b 20
        E 32 b0 0b 18
        E 32 b0 0b 10
        E 32 b0 0b 08
        E 32 80 36 00
        E 96 b0 0b 28
        E 0 90 37 28
        E 16 b0 0b 20
        E 32 b0 0b 18
        E 32 b0 0b 10
        E 32 b0 0b 08
        E 48 80 37 00
        E 192 b0 0b 28
        E 0 90 36 28
        E 16 b0 0b 20
        E 32 b0 0b 18
        E 32 b0 0b 10
        E 32 b0 0b 08
        E 32 80 36 00
        E 224 b0 0c 40
        E 0 b0 0b 28
        E 0 90 28 28
        E 16 b0 0b 20
        E 32 80 28 00
        E 64 b0 0b 28
        E 0 90 2d 28
        E 16 b0 0b 20
        E 32 b0 0b 18
        E 16 b0 0b 10
        E 0 80 2d 00
        E 0 90 28 10
        E 16 b0 0b 08
        E 32 80 28 00
        E 16 b0 0b 28
        E 0 90 31 28
        E 32 b0 0b 20
        E 16 b0 0b 10
        E 0 80 31 00
        E 0 90 2d 10
        E 16 b0 0b 08
        E 32 80 2d 00
        E 16 b0 0b 28
        E 0 90 32 28
        E 16 b0 0b 20
        E 32 b0 0b 18
        E 16 b0 0b 10
        E 0 80 32 00
        E 0 90 31 10
        E 16 b0 0b 08
        E 32 b0 0b 28
        E 16 b0 0b 20
        E 32 b0 0b 18
        E 16 b0 0b 10
        E 0 80 31 00
        E 0 90 32 10
        E 16 b0 0b 08
        E 32 80 32 00
        E 16 b0 0b 28
        E 0 90 2d 28
        E 16 b0 0b 20
        E 32 b0 0b 18
        E 16 b0 0b 10
        E 0 80 2d 00
        E 0 90 31 10
        E 32 b0 0b 08
        E 16 b0 0b 28
        E 0 80 31 00
        E 0 90 28 28
        E 16 b0 0b 20
        E 32 b0 0b 18
        E 16 b0 0b 10
        E 0 80 28 00
        E 0 90 2d 10
        E 16 b0 0b 08
        E 32 80 2d 00
        E 16 b0 0c 10
        E 0 b0 0b 28
        E 0 90 36 28
        E 16 b0 0b 20
        E 48 b0 0b 18
        E 32 b0 0b 10
        E 16 b0 0b 28
        E 16 b0 0b 20
        E 32 b0 0b 18
        E 32 b0 0b 10
        E 32 b0 0b 08
        E 48 80 36 00
        E 192 b0 0b 28
        E 0 90 37 28
        E 16 b0 0b 20
        E 32 b0 0b 18
        E 32 b0 0b 10
        E 32 b0 0b 08
        E 32 80 37 00
        E 96 b0 0b 28
        E 0 90 39 28
        E 16 b0 0b 20
        E 32 b0 0b 18
        E 32 b0 0b 10
        E 32 b0 0b 08
        E 48 80 39 00
        E 80 b0 0b 28
        E 0 90 39 28
        E 16 b0 0b 20
        E 32 b0 0b 18
        E 32 b0 0b 10
        E 48 b0 0b 08
        E 32 80 39 00
        E 80 b0 0b 28
        E 0 90 37 28
        E 16 b0 0b 20
        E 32 b0 0b 18
        E 48 b0 0b 10
        E 32 b0 0b 08
        E 32 80 37 00
        E 80 b0 0b 28
        E 0 90 32 28
        E 16 b0 0b 20
        E 48 b0 0b 18
        E 32 b0 0b 10
        E 32 b0 0b 08
        E 32 80 32 00
        E 80 b0 0b 28
        E 0 90 34 28
        E 32 b0 0b 20
        E 32 b0 0b 18
        E 32 b0 0b 10
        E 32 b0 0b 08
        E 32 80 34 00
        E 64 b0 0b 28
        E 0 90 36 28
        E 16 b0 0b 20
        E 32 b0 0b 18
        E 32 b0 0b 10
        E 32 b0 0b 08
        E 16 b0 0b 28
        E 16 b0 0b 20
        E 32 b0 0b 18
        E 48 b0 0b 10
        E 32 b0 0b 08
        E 32 80 36 00
        E 80 b0 0b 28
        E 0 90 37 28
        E 16 b0 0b 20
        E 48 b0 0b 18
        E 32 b0 0b 10
        E 32 b0 0b 08
        E 32 80 37 00
        E 192 b0 0b 28
        E 0 90 36 28
        E 16 b0 0b 20
        E 32 b0 0b 18
        E 48 b0 0b 10
        E 32 b0 0b 08
        E 32 80 36 00
        E 192 b0 0c 40
        E 0 b0 0b 28
        E 0 90 28 28
        E 16 b0 0b 20
        E 32 b0 0b 18
        E 16 80 28 00
        E 64 b0 0b 28
        E 0 90 2d 28
        E 32 b0 0b 20
        E 16 b0 0b 10
        E 0 80 2d 00
        E 0 90 28 10
        E 16 b0 0b 08
        E 32 80 28 00
        E 16 b0 0b 28
        E 0 90 31 28
        E 16 b0 0b 20
        E 32 b0 0b 18
        E 16 b0 0b 10
        E 0 80 31 00
        E 0 90 2d 10
        E 16 b0 0b 08
        E 32 b0 0b 28
        E 0 80 2d 00
        E 0 90 32 28
        E 16 b0 0b 20
        E 32 b0 0b 18
        E 16 b0 0b 10
        E 0 80 32 00
        E 0 90 31 10
        E 16 b0 0b 08
        E 32 80 31 00
        E 16 b0 0b 28
        E 0 90 31 28
        E 16 b0 0b 20
        E 32 b0 0b 18
        E 16 b0 0b 10
        E 0 80 31 00
        E 0 90 32 10
        E 32 b0 0b 08
        E 16 b0 0b 28
        E 0 80 32 00
        E 0 90 2d 28
        E 16 b0 0b 20
        E 32 b0 0b 18
        E 16 b0 0b 10
        E 0 80 2d 00
        E 0 90 31 10
        E 16 b0 0b 08
        E 32 80 31 00
        E 16 b0 0b 28
        E 0 90 28 28
        E 16 b0 0b 20
        E 32 b0 0b 10
        E 0 80 28 00
        E 0 90 2d 10
        E 16 b0 0b 08
        E 32 80 2d 00
        E 16 b0 0c 10
        E 0 b0 0b 28
        E 0 90 36 28
        E 16 b0 0b 20
        E 32 b0 0b 18
        E 32 b0 0b 10
        E 32 b0 0b 08
        E 16 b0 0b 28
        E 32 b0 0b 20
        E 32 b0 0b 18
        E 32 b0 0b 10
        E 32 b0 0b 08
        E 32 80 36 00
        E 192 b0 0b 28
        E 0 90 37 28
        E 16 b0 0b 20
        E 32 b0 0b 18
        E 48 b0 0b 10
        E 32 b0 0b 08
        E 32 80 37 00
        E 80 b0 0b 28
        E 0 90 39 28
        E 16 b0 0b 20
        E 48 b0 0b 18
        E 32 b0 0b 10
        E 32 b0 0b 08
        E 32 80 39 00
        E 64 b0 0b 28
        E 0 90 34 28
        E 16 b0 0b 20
        E 32 b0 0b 18
        E 32 b0 0b 10
        E 32 b0 0b 08
        E 16 b0 0b 28
        E 16 b0 0b 20
        E 32 b0 0b 18
        E 48 b0 0b 10
        E 16 b0 0b 28
        E 16 b0 0b 20
        E 32 b0 0b 18
        E 32 b0 0b 10
        E 32 b0 0b 08
        E 16 b0 0b 28
        E 0 80 34 00
        E 0 90 30 28
        E 16 b0 0b 20
        E 48 b0 0b 18
        E 32 b0 0b 10
        E 32 b0 0b 08
        E 32 80 30 00
        E 80 b0 0b 28
        E 0 90 30 28
        E 32 b0 0b 20
        E 32 b0 0b 18
        E 32 b0 0b 10
        E 16 b0 0b 28
        E 16 b0 0b 20
        E 32 b0 0b 18
        E 32 b0 0b 10
        E 32 b0 0b 28
        E 16 b0 0b 20
        E 32 b0 0b 18
        E 32 b0 0b 10
        E 32 b0 0b 08
        E 16 b0 0b 28
        E 0 80 30 00
        E 0 90 36 28
        E 16 b0 0b 20
        E 32 b0 0b 18
        E 48 b0 0b 10
        E 16 b0 0b 28
        E 16 b0 0b 20
        E 32 b0 0b 18
        E 32 b0 0b 10
        E 32 b0 0b 08
        E 32 80 36 00
        E 96 b0 0b 28
        E 0 90 37 28
        E 16 b0 0b 20
        E 32 b0 0b 18
        E 32 b0 0b 10
        E 32 b0 0b 08
        E 48 80 37 00
        E 192 b0 0b 28
        E 0 90 36 28
        E 16 b0 0b 20
        E 32 b0 0b 18
        E 32 b0 0b 10
        E 32 b0 0b 08
        E 32 80 36 00
        E 224 b0 0c 40
        E 0 b0 0b 28
        E 0 90 28 28
        E 32 b0 0b 20
        E 16 80 28 00
        E 64 b0 0b 28
        E 0 90 2d 28
        E 16 b0 0b 20
        E 32 b0 0b 18
        E 16 b0 0b 10
        E 0 80 2d 00
        E 0 90 28 10
        E 16 b0 0b 08
        E 32 b0 0b 28
        E 0 80 28 00
        E 0 90 31 28
        E 16 b0 0b 20
        E 32 b0 0b 18
        E 16 b0 0b 10
        E 0 80 31 00
        E 0 90 2d 10
        E 16 b0 0b 08
        E 32 80 2d 00
        E 16 b0 0b 28
        E 0 90 32 28
        E 16 b0 0b 20
        E 32 b0 0b 18
        E 16 b0 0b 10
        E 0 80 32 00
        E 0 90 31 10
        E 32 b0 0b 08
        E 16 b0 0b 28
        E 16 b0 0b 20
        E 32 b0 0b 18
        E 16 b0 0b 10
        E 0 80 31 00
        E 0 90 32 10
        E 16 b0 0b 08
        E 32 80 32 00
        E 16 b0 0b 28
        E 0 90 2d 28
        E 16 b0 0b 20
        E 32 b0 0b 10
        E 0 80 2d 00
        E 0 90 31 10
        E 16 b0 0b 08
        E 32 80 31 00
        E 16 b0 0b 28
        E 0 90 28 28
        E 16 b0 0b 20
        E 32 b0 0b 18
        E 16 b0 0b 10
        E 0 80 28 00
        E 0 90 2d 10
        E 16 b0 0b 08
        E 32 80 2d 00
        E 16 b0 0c 10
        E 0 b0 0b 28
        E 0 90 36 28
        E 32 b0 0b 20
        E 32 b0 0b 18
        E 32 b0 0b 10
        E 16 b0 0b 28
        E 16 b0 0b 20
        E 32 b0 0b 18
        E 32 b0 0b 10
        E 48 b0 0b 08
        E 32 80 36 00
        E 192 b0 0b 28
        E 0 90 37 28
        E 16 b0 0b 20
        E 32 b0 0b 18
        E 32 b0 0b 10
        E 32 b0 0b 08
        E 32 80 37 00
        E 96 b0 0b 28
        E 0 90 39 28
        E 16 b0 0b 20
        E 32 b0 0b 18
        E 32 b0 0b 10
        E 32 b0 0b 08
        E 48 80 39 00
        E 80 b0 0b 28
        E 0 90 39 28
        E 16 b0 0b 20
        E 32 b0 0b 18
        E 32 b0 0b 10
        E 48 b0 0b 08
        E 32 80 39 00
        E 80 b0 0b 28
        E 0 90 37 28
        E 16 b0 0b 20
        E 48 b0 0b 18
        E 32 b0 0b 10
        E 32 b0 0b 08
        E 32 80 37 00
        E 80 b0 0b 28
        E 0 90 32 28
        E 32 b0 0b 20
        E 32 b0 0b 18
        E 32 b0 0b 10
        E 32 b0 0b 08
        E 32 80 32 00
        E 64 b0 0b 28
        E 0 90 34 28
        E 16 b0 0b 20
        E 32 b0 0b 18
        E 32 b0 0b 10
        E 32 b0 0b 08
        E 32 80 34 00
        E 96 b0 0b 28
        E 0 90 36 28
        E 16 b0 0b 20
        E 32 b0 0b 18
        E 32 b0 0b 10
        E 32 b0 0b 08
        E 16 b0 0b 28
        E 16 b0 0b 20
        E 48 b0 0b 18
        E 32 b0 0b 10
        E 32 b0 0b 08
        E 32 80 36 00
        E 80 b0 0b 28
        E 0 90 37 28
        E 32 b0 0b 20
        E 32 b0 0b 18
        E 32 b0 0b 10
        E 32 b0 0b 08
        E 32 80 37 00
        E 192 b0 0b 28
        E 0 90 36 28
        E 16 b0 0b 20
        E 32 b0 0b 18
        E 48 b0 0b 10
        E 32 b0 0b 08
        E 32 80 36 00
        E 192 b0 0c 40
        E 0 b0 0b 28
        E 0 90 28 28
        E 16 b0 0b 20
        E 32 b0 0b 18
        E 16 80 28 00
        E 64 b0 0b 28
        E 0 90 2d 28
        E 32 b0 0b 20
        E 16 b0 0b 10
        E 0 80 2d 00
        E 0 90 28 10
        E 16 b0 0b 08
        E 32 80 28 00
        E 16 b0 0b 28
        E 0 90 31 28
        E 16 b0 0b 20
        E 32 b0 0b 18
        E 16 b0 0b 10
        E 0 80 31 00
        E 0 90 2d 10
        E 32 b0 0b 08
        E 16 b0 0b 28
        E 0 80 2d 00
        E 0 90 32 28
        E 16 b0 0b 20
        E 32 b0 0b 18
        E 16 b0 0b 10
        E 0 80 32 00
        E 0 90 31 10
        E 16 b0 0b 08
        E 32 80 31 00
        E 16 b0 0b 28
        E 0 90 31 28
        E 16 b0 0b 20
        E 32 b0 0b 10
        E 0 80 31 00
        E 0 90 32 10
        E 16 b0 0b 08
        E 32 80 32 00
        E 16 b0 0b 28
        E 0 90 2d 28
        E 16 b0 0b 20
        E 32 b0 0b 18
        E 16 b0 0b 10
        E 0 80 2d 00
        E 0 90 31 10
        E 16 b0 0b 08
        E 32 80 31 00
        E 16 b0 0b 28
        E 0 90 28 28
        E 32 b0 0b 20
        E 16 b0 0b 10
        E 0 80 28 00
        E 0 90 2d 10
        E 16 b0 0b 08
        E 32 80 2d 00
        E 16 b0 0c 10
        E 0 b0 0b 28
        E 0 90 36 28
        E 16 b0 0b 20
        E 32 b0 0b 18
        E 32 b0 0b 10
        E 32 b0 0b 28
        E 16 b0 0b 20
        E 32 b0 0b 18
        E 32 b0 0b 10
        E 32 b0 0b 08
        E 32 80 36 00
        E 224 b0 0b 28
        E 0 90 37 28
        E 16 b0 0b 20
        E 48 b0 0b 18
        E 32 b0 0b 10
        E 32 b0 0b 08
        E 32 80 37 00
        E 80 b0 0b 28
        E 0 90 39 28
        E 32 b0 0b 20
        E 32 b0 0b 18
        E 32 b0 0b 10
        E 32 b0 0b 08
        E 32 80 39 00
        E 64 b0 0b 28
        E 0 90 34 28
        E 16 b0 0b 20
        E 32 b0 0b 18
        E 32 b0 0b 10
        E 32 b0 0b 08
        E 16 b0 0b 28
        E 16 b0 0b 20
        E 32 b0 0b 18
        E 48 b0 0b 10
        E 16 b0 0b 28
        E 16 b0 0b 20
        E 32 b0 0b 18
        E 32 b0 0b 10
        E 32 b0 0b 08
        E 16 b0 0b 28
        E 0 80 34 00
        E 0 90 30 28
        E 16 b0 0b 20
        E 48 b0 0b 18
        E 32 b0 0b 10
        E 32 b0 0b 08
        E 32 80 30 00
        E 64 b0 0b 28
        E 0 90 30 28
        E 16 b0 0b 20
        E 32 b0 0b 18
        E 32 b0 0b 10
        E 32 b0 0b 08
        E 16 b0 0b 28
        E 16 b0 0b 20
        E 32 b0 0b 18
        E 48 b0 0b 10
        E 16 b0 0b 28
        E 16 b0 0b 20
        E 32 b0 0b 18
        E 32 b0 0b 10
        E 32 b0 0b 08
        E 16 b0 0c 20
        E 0 b0 0b 30
        E 0 80 30 00
        E 0 90 32 30
        E 16 b0 0b 28
        E 48 b0 0b 20
        E 32 b0 0b 18
        E 16 b0 0b 20
        E 128 b0 0b 10
        E 112 b0 0b 30
        E 112 b0 0b 20
        E 128 b0 0b 10
        E 112 b0 0b 30
        E 128 b0 0b 20
        E 112 b0 0b 10
        E 128 b0 0b 30
        E 112 b0 0b 20
        E 112 b0 0b 10
        E 128 b0 0b 30
        E 112 b0 0b 18
        E 128 b0 0b 30
        E 112 b0 0b 18
        E 112 b0 0b 30
        E 0 80 32 00
        E 0 90 3e 30
        E 16 b0 0b 28
        E 32 b0 0b 20
        E 32 b0 0b 18
        E 32 b0 0b 10
        E 16 b0 0b 20
        E 112 b0 0b 10
        E 128 b0 0b 30
        E 112 b0 0b 20
        E 128 b0 0b 10
        E 112 b0 0b 30
        E 112 b0 0b 20
        E 128 b0 0b 10
        E 112 b0 0b 30
        E 128 b0 0b 20
        E 112 b0 0b 10
        E 128 b0 0b 30
        E 112 b0 0b 18
        E 112 b0 0b 30
        E 128 b0 0b 18
        E 112 80 3e 00
        E 128 b0 0b 28
        E 0 90 32 28
        E 32 b0 0b 20
        E 32 b0 0b 18
        E 32 b0 0b 10
        E 32 b0 0b 08
        E 32 80 32 00
        E 192 b0 0b 28
        E 0 90 30 28
        E 16 b0 0b 20
        E 32 b0 0b 18
        E 48 b0 0b 10
        E 32 b0 0b 08
        E 32 80 30 00
        E 80 b0 0b 28
        E 0 90 30 28
        E 16 b0 0b 20
        E 48 b0 0b 18
        E 32 b0 0b 10
        E 32 b0 0b 08
        E 32 80 30 00
        E 192 b0 0b 28
        E 0 90 32 28
        E 16 b0 0b 20
        E 32 b0 0b 18
        E 32 b0 0b 10
        E 48 b0 0b 08
        E 32 80 32 00
        E 80 b0 0b 28
        E 0 90 30 28
        E 16 b0 0b 20
        E 32 b0 0b 18
        E 48 b0 0b 10
        E 32 b0 0b 08
        E 32 80 30 00
        E 192 b0 0b 28
        E 0 90 30 28
        E 16 b0 0b 20
        E 32 b0 0b 18
        E 32 b0 0b 10
        E 32 b0 0b 08
        E 48 80 30 00
        E 192 b0 0b 28
        E 0 90 32 28
        E 16 b0 0b 20
        E 32 b0 0b 18
        E 32 b0 0b 10
        E 32 b0 0b 08
        E 32 80 32 00
        E 224 b0 0b 28
        E 0 90 30 28
        E 32 b0 0b 20
        E 32 b0 0b 18
        E 32 b0 0b 10
        E 32 b0 0b 08
        E 32 80 30 00
        E 64 b0 0b 28
        E 0 90 30 28
        E 16 b0 0b 20
        E 32 b0 0b 18
        E 32 b0 0b 10
        E 32 b0 0b 08
        E 32 80 30 00
        E 224 b0 0b 28
        E 0 90 32 28
        E 16 b0 0b 20
        E 48 b0 0b 18
        E 32 b0 0b 10
        E 32 b0 0b 08
        E 32 80 32 00
        E 192 b0 0b 28
        E 0 90 34 28
        E 16 b0 0b 20
        E 32 b0 0b 18
        E 32 b0 0b 10
        E 32 b0 0b 28
        E 0 80 34 00
        E 0 90 32 28
        E 16 b0 0b 20
        E 32 b0 0b 18
        E 32 b0 0b 10
        E 32 b0 0b 08
        E 16 b0 0b 28
        E 0 80 32 00
        E 0 90 34 28
        E 16 b0 0b 20
        E 32 b0 0b 18
        E 48 b0 0b 10
        E 32 b0 0b 08
        E 32 80 34 00
        E 192 b0 0b 28
        E 0 90 32 28
        E 16 b0 0b 20
        E 32 b0 0b 18
        E 32 b0 0b 10
        E 48 b0 0b 08
        E 32 80 32 00
        E 192 b0 0b 28
        E 0 90 30 28
        E 16 b0 0b 20
        E 32 b0 0b 18
        E 32 b0 0b 10
        E 32 b0 0b 08
        E 32 80 30 00
        E 96 b0 0b 28
        E 0 90 30 28
        E 16 b0 0b 20
        E 32 b0 0b 18
        E 32 b0 0b 10
        E 32 b0 0b 08
        E 48 80 30 00
        E 192 b0 0b 28
        E 0 90 32 28
        E 16 b0 0b 20
        E 32 b0 0b 18
        E 32 b0 0b 10
        E 32 b0 0b 08
        E 32 80 32 00
        E 96 b0 0b 28
        E 0 90 30 28
        E 16 b0 0b 20
        E 32 b0 0b 18
        E 32 b0 0b 10
        E 32 b0 0b 08
        E 32 80 30 00
        E 224 b0 0b 28
        E 0 90 30 28
        E 32 b0 0b 20
        E 32 b0 0b 18
        E 32 b0 0b 10
        E 32 b0 0b 08
        E 32 80 30 00
        E 192 b0 0b 28
        E 0 90 32 28
        E 16 b0 0b 20
        E 32 b0 0b 18
        E 48 b0 0b 10
        E 32 b0 0b 08
        E 32 80 32 00
        E 192 b0 0b 28
        E 0 90 30 28
        E 16 b0 0b 20
        E 32 b0 0b 18
        E 32 b0 0b 10
        E 32 b0 0b 28
        E 16 b0 0b 20
        E 32 b0 0b 18
        E 32 b0 0b 10
        E 32 b0 0b 08
        E 16 b0 0b 28
        E 16 b0 0b 20
        E 32 b0 0b 18
        E 48 b0 0b 10
        E 16 b0 0b 28
        E 0 80 30 00
        E 0 90 32 28
        E 16 b0 0b 20
        E 32 b0 0b 18
        E 32 80 32 00
        E 0 ff 2f 00
      >
    >
  >
  <TRACK {70BA57E8-E855-42A0-845E-D23340F77811}
    NAME "NES - Pulse 2 [ch1]"
    PEAKCOL 10092441
    BEAT -1
    AUTOMODE 0
    PANLAWFLAGS 3
    VOLPAN 1 0 -1 -1 1
    MUTESOLO 0 0 0
    IPHASE 0
    PLAYOFFS 0 1
    ISBUS 0 0
    BUSCOMP 0 0 0 0 0
    SHOWINMIX 1 0.6667 0.5 1 0.5 0 0 0
    FIXEDLANES 9 0 0 0 0
    SEL 0
    REC 0 5088 1 0 0 0 0 0
    VU 2
    TRACKHEIGHT 0 0 0 0 0 0 0
    INQ 0 0 0 0.5 100 0 0 100
    NCHAN 2
    FX 1
    TRACKID {70BA57E8-E855-42A0-845E-D23340F77811}
    PERF 0
    MIDIOUT -1
    MAINSEND 1 0
    <FXCHAIN
      WNDRECT 24 52 700 560
      SHOW 0
      LASTSEL 0
      DOCKED 0
      BYPASS 0 0 0
      <JS "ReapNES Studio/ReapNES_Console.jsfx" ""
        2 15 1 10 80 10 100 2 1 15 1 5 60 10 80 1 1 0 50 0 0 15 1 0 100 0 0 0.500000 0.500000 0.400000 0.300000 0.800000 1 1 0 0 0 0 - - - - - - - - - - - - - - - - - - - - - - - - - -
      >
      FLOATPOS 0 0 0 0
      FXID {164631A1-F562-4058-9C0F-2D7E1E6F33A4}
      WAK 0 0
    >
    <ITEM
      POSITION 0
      LENGTH 83.98134
      LOOP 0
      ALLTAKES 0
      FADEIN 0 0 0 0 0 0 0
      FADEOUT 0 0 0 0 0 0 0
      MUTE 0 0
      SEL 0
      IGUID {AD2F90F7-4283-48D7-A768-D07E7FDDB373}
      <SOURCE MIDI
        HASDATA 1 480 QN
        CCINTERP 32
        E 0 c1 51
        E 16 b1 0c 40
        E 0 b1 0b 28
        E 0 91 29 28
        E 64 81 29 00
        E 0 91 28 28
        E 48 81 28 00
        E 0 91 27 28
        E 48 81 27 00
        E 0 91 26 28
        E 64 81 26 00
        E 0 91 25 28
        E 48 81 25 00
        E 0 91 24 28
        E 96 81 24 00
        E 0 91 25 28
        E 80 b1 0b 20
        E 80 81 25 00
        E 0 91 26 20
        E 160 81 26 00
        E 0 91 27 20
        E 160 81 27 00
        E 0 91 28 20
        E 80 b1 0b 18
        E 48 81 28 00
        E 0 91 29 18
        E 160 81 29 00
        E 0 91 2a 18
        E 128 81 2a 00
        E 0 91 2b 18
        E 112 81 2b 00
        E 0 91 2c 18
        E 48 b1 0b 10
        E 80 81 2c 00
        E 0 91 2d 10
        E 80 81 2d 00
        E 0 91 2e 10
        E 112 81 2e 00
        E 0 91 2f 10
        E 80 81 2f 00
        E 0 91 30 10
        E 80 81 30 00
        E 0 91 31 10
        E 16 b1 0c 10
        E 0 b1 0b 28
        E 0 81 31 00
        E 0 91 43 28
        E 48 81 43 00
        E 64 91 41 28
        E 64 b1 0b 10
        E 0 81 41 00
        E 0 91 43 10
        E 48 b1 0b 28
        E 0 81 43 00
        E 0 91 3e 28
        E 64 b1 0b 10
        E 0 81 3e 00
        E 0 91 41 10
        E 64 b1 0b 28
        E 0 81 41 00
        E 0 91 3c 28
        E 64 b1 0b 10
        E 0 81 3c 00
        E 0 91 3e 10
        E 48 b1 0b 28
        E 16 b1 0b 20
        E 48 b1 0b 10
        E 0 81 3e 00
        E 0 91 3c 10
        E 64 b1 0b 28
        E 0 81 3c 00
        E 0 91 41 28
        E 48 b1 0b 10
        E 0 81 41 00
        E 0 91 3e 10
        E 64 b1 0b 28
        E 64 b1 0b 10
        E 0 81 3e 00
        E 0 91 41 10
        E 64 b1 0b 28
        E 0 81 41 00
        E 0 91 3c 28
        E 48 b1 0b 10
        E 0 81 3c 00
        E 0 91 3e 10
        E 16 b1 0b 08
        E 48 b1 0b 28
        E 0 81 3e 00
        E 0 91 43 28
        E 64 81 43 00
        E 48 91 41 28
        E 64 b1 0b 10
        E 0 81 41 00
        E 0 91 43 10
        E 64 b1 0b 28
        E 0 81 43 00
        E 0 91 3e 28
        E 64 b1 0b 10
        E 0 81 3e 00
        E 0 91 41 10
        E 48 b1 0b 28
        E 0 81 41 00
        E 0 91 3c 28
        E 64 b1 0b 10
        E 0 81 3c 00
        E 0 91 3e 10
        E 16 b1 0b 08
        E 48 b1 0b 28
        E 48 b1 0b 10
        E 0 81 3e 00
        E 0 91 3c 10
        E 64 b1 0b 28
        E 0 81 3c 00
        E 0 91 41 28
        E 64 b1 0b 10
        E 0 81 41 00
        E 0 91 3e 10
        E 64 b1 0b 28
        E 48 b1 0b 10
        E 0 81 3e 00
        E 0 91 41 10
        E 64 b1 0b 28
        E 0 81 41 00
        E 0 91 3c 28
        E 16 b1 0b 20
        E 48 b1 0b 10
        E 0 81 3c 00
        E 0 91 3e 10
        E 48 b1 0b 28
        E 0 81 3e 00
        E 0 91 43 28
        E 64 81 43 00
        E 64 91 41 28
        E 48 b1 0b 10
        E 0 81 41 00
        E 0 91 43 10
        E 64 b1 0b 28
        E 0 81 43 00
        E 0 91 3e 28
        E 64 b1 0b 10
        E 0 81 3e 00
        E 0 91 41 10
        E 64 b1 0b 28
        E 0 81 41 00
        E 0 91 3c 28
        E 32 b1 0b 20
        E 16 b1 0b 10
        E 0 81 3c 00
        E 0 91 3e 10
        E 64 b1 0b 28
        E 64 b1 0b 10
        E 0 81 3e 00
        E 0 91 3c 10
        E 48 b1 0b 28
        E 0 81 3c 00
        E 0 91 41 28
        E 64 b1 0b 10
        E 0 81 41 00
        E 0 91 3e 10
        E 64 b1 0b 28
        E 64 b1 0b 10
        E 0 81 3e 00
        E 0 91 41 10
        E 32 b1 0b 08
        E 16 b1 0b 28
        E 0 81 41 00
        E 0 91 3c 28
        E 64 b1 0b 10
        E 0 81 3c 00
        E 0 91 3e 10
        E 64 b1 0b 28
        E 0 81 3e 00
        E 0 91 43 28
        E 48 81 43 00
        E 64 91 41 28
        E 64 b1 0b 10
        E 0 81 41 00
        E 0 91 43 10
        E 64 b1 0b 28
        E 0 81 43 00
        E 0 91 3e 28
        E 48 b1 0b 10
        E 0 81 3e 00
        E 0 91 41 10
        E 16 b1 0b 08
        E 48 b1 0b 28
        E 0 81 41 00
        E 0 91 3c 28
        E 64 b1 0b 10
        E 0 81 3c 00
        E 0 91 3e 10
        E 48 b1 0b 28
        E 64 b1 0b 10
        E 0 81 3e 00
        E 0 91 3c 10
        E 64 b1 0b 28
        E 0 81 3c 00
        E 0 91 41 28
        E 64 b1 0b 10
        E 0 81 41 00
        E 0 91 3e 10
        E 48 b1 0b 28
        E 16 b1 0b 20
        E 48 b1 0b 10
        E 0 81 3e 00
        E 0 91 41 10
        E 64 b1 0b 28
        E 0 81 41 00
        E 0 91 3c 28
        E 48 b1 0b 10
        E 0 81 3c 00
        E 0 91 3e 10
        E 64 b1 0c 20
        E 0 b1 0b 30
        E 0 81 3e 00
        E 0 91 2d 30
        E 128 b1 0b 20
        E 112 b1 0b 10
        E 112 b1 0b 30
        E 128 b1 0b 20
        E 112 b1 0b 10
        E 128 b1 0b 30
        E 112 b1 0b 20
        E 112 b1 0b 10
        E 128 b1 0b 30
        E 112 b1 0b 20
        E 128 b1 0b 10
        E 112 b1 0b 30
        E 128 b1 0b 18
        E 112 b1 0b 30
        E 112 b1 0b 18
        E 128 b1 0b 30
        E 0 81 2d 00
        E 0 91 39 30
        E 48 b1 0b 28
        E 64 b1 0b 20
        E 128 b1 0b 10
        E 112 b1 0b 30
        E 112 b1 0b 20
        E 128 b1 0b 10
        E 112 b1 0b 30
        E 128 b1 0b 20
        E 112 b1 0b 10
        E 128 b1 0b 30
        E 112 b1 0b 20
        E 112 b1 0b 10
        E 128 b1 0b 30
        E 112 b1 0b 18
        E 128 b1 0b 30
        E 112 b1 0b 18
        E 128 81 39 00
        E 112 b1 0b 28
        E 0 91 2d 28
        E 16 b1 0b 20
        E 32 b1 0b 18
        E 32 b1 0b 10
        E 48 b1 0b 08
        E 32 81 2d 00
        E 192 b1 0b 28
        E 0 91 2b 28
        E 16 b1 0b 20
        E 32 b1 0b 18
        E 32 b1 0b 10
        E 32 b1 0b 08
        E 48 81 2b 00
        E 80 b1 0b 28
        E 0 91 2b 28
        E 16 b1 0b 20
        E 32 b1 0b 18
        E 32 b1 0b 10
        E 48 b1 0b 08
        E 32 81 2b 00
        E 192 b1 0b 28
        E 0 91 2d 28
        E 16 b1 0b 20
        E 32 b1 0b 18
        E 32 b1 0b 10
        E 32 b1 0b 08
        E 32 81 2d 00
        E 96 b1 0b 28
        E 0 91 2b 28
        E 16 b1 0b 20
        E 32 b1 0b 18
        E 32 b1 0b 10
        E 32 b1 0b 08
        E 48 81 2b 00
        E 192 b1 0b 28
        E 0 91 2b 28
        E 16 b1 0b 20
        E 32 b1 0b 18
        E 32 b1 0b 10
        E 32 b1 0b 08
        E 32 81 2b 00
        E 224 b1 0b 28
        E 0 91 2d 28
        E 16 b1 0b 20
        E 48 b1 0b 18
        E 32 b1 0b 10
        E 32 b1 0b 08
        E 32 81 2d 00
        E 192 b1 0b 28
        E 0 91 2b 28
        E 16 b1 0b 20
        E 32 b1 0b 18
        E 32 b1 0b 10
        E 48 b1 0b 08
        E 32 81 2b 00
        E 80 b1 0b 28
        E 0 91 2b 28
        E 16 b1 0b 20
        E 48 b1 0b 18
        E 32 b1 0b 10
        E 32 b1 0b 08
        E 32 81 2b 00
        E 192 b1 0b 28
        E 0 91 2d 28
        E 16 b1 0b 20
        E 32 b1 0b 18
        E 32 b1 0b 10
        E 48 b1 0b 08
        E 32 81 2d 00
        E 192 b1 0b 28
        E 0 91 30 28
        E 16 b1 0b 20
        E 32 b1 0b 18
        E 32 b1 0b 10
        E 32 b1 0b 08
        E 16 b1 0b 28
        E 0 81 30 00
        E 0 91 2f 28
        E 16 b1 0b 20
        E 48 b1 0b 18
        E 32 b1 0b 10
        E 16 b1 0b 28
        E 0 81 2f 00
        E 0 91 30 28
        E 16 b1 0b 20
        E 32 b1 0b 18
        E 32 b1 0b 10
        E 32 b1 0b 08
        E 48 81 30 00
        E 192 b1 0b 28
        E 0 91 2d 28
        E 16 b1 0b 20
        E 32 b1 0b 18
        E 32 b1 0b 10
        E 32 b1 0b 08
        E 32 81 2d 00
        E 224 b1 0b 28
        E 0 91 2b 28
        E 16 b1 0b 20
        E 48 b1 0b 18
        E 32 b1 0b 10
        E 32 b1 0b 08
        E 32 81 2b 00
        E 80 b1 0b 28
        E 0 91 2b 28
        E 32 b1 0b 20
        E 32 b1 0b 18
        E 32 b1 0b 10
        E 32 b1 0b 08
        E 32 81 2b 00
        E 192 b1 0b 28
        E 0 91 2d 28
        E 16 b1 0b 20
        E 48 b1 0b 18
        E 32 b1 0b 10
        E 32 b1 0b 08
        E 32 81 2d 00
        E 80 b1 0b 28
        E 0 91 2b 28
        E 32 b1 0b 20
        E 32 b1 0b 18
        E 32 b1 0b 10
        E 32 b1 0b 08
        E 32 81 2b 00
        E 192 b1 0b 28
        E 0 91 2b 28
        E 16 b1 0b 20
        E 32 b1 0b 18
        E 48 b1 0b 10
        E 32 b1 0b 08
        E 32 81 2b 00
        E 192 b1 0b 28
        E 0 91 2d 28
        E 16 b1 0b 20
        E 32 b1 0b 18
        E 32 b1 0b 10
        E 32 b1 0b 08
        E 48 81 2d 00
        E 192 b1 0b 28
        E 0 91 2b 28
        E 16 b1 0b 20
        E 32 b1 0b 18
        E 32 b1 0b 10
        E 32 b1 0b 08
        E 16 b1 0b 28
        E 16 b1 0b 20
        E 32 b1 0b 18
        E 48 b1 0b 10
        E 16 b1 0b 28
        E 16 b1 0b 20
        E 32 b1 0b 18
        E 32 b1 0b 10
        E 32 b1 0b 08
        E 16 b1 0b 28
        E 0 81 2b 00
        E 0 91 2d 28
        E 16 b1 0b 20
        E 48 b1 0b 18
        E 32 b1 0b 10
        E 32 b1 0b 08
        E 32 81 2d 00
        E 160 b1 0c 10
        E 0 b1 0b 18
        E 0 91 29 18
        E 64 81 29 00
        E 0 91 2d 18
        E 48 81 2d 00
        E 0 91 32 18
        E 48 b1 0b 10
        E 16 b1 0b 18
        E 0 81 32 00
        E 0 91 35 18
        E 64 81 35 00
        E 0 91 39 18
        E 48 b1 0b 10
        E 16 b1 0b 18
        E 0 81 39 00
        E 0 91 3e 18
        E 48 81 3e 00
        E 0 91 41 18
        E 64 81 41 00
        E 0 91 3e 18
        E 48 b1 0b 10
        E 16 b1 0b 18
        E 0 81 3e 00
        E 0 91 39 18
        E 48 81 39 00
        E 0 91 35 18
        E 64 81 35 00
        E 0 91 32 18
        E 48 b1 0b 10
        E 16 b1 0b 18
        E 0 81 32 00
        E 0 91 2d 18
        E 64 81 2d 00
        E 0 91 29 18
        E 16 81 29 00
        E 128 b1 0c 20
        E 0 b1 0b 28
        E 0 91 2d 28
        E 16 b1 0b 20
        E 32 b1 0b 18
        E 48 b1 0b 10
        E 32 b1 0b 08
        E 32 81 2d 00
        E 192 b1 0b 28
        E 0 91 2b 28
        E 16 b1 0b 20
        E 32 b1 0b 18
        E 32 b1 0b 10
        E 32 b1 0b 08
        E 48 81 2b 00
        E 80 b1 0b 28
        E 0 91 2b 28
        E 16 b1 0b 20
        E 32 b1 0b 18
        E 32 b1 0b 10
        E 48 b1 0b 08
        E 32 81 2b 00
        E 192 b1 0b 28
        E 0 91 2d 28
        E 16 b1 0b 20
        E 32 b1 0b 18
        E 32 b1 0b 10
        E 32 b1 0b 08
        E 48 81 2d 00
        E 80 b1 0b 28
        E 0 91 2b 28
        E 16 b1 0b 20
        E 32 b1 0b 18
        E 32 b1 0b 10
        E 48 b1 0b 08
        E 32 81 2b 00
        E 192 b1 0b 28
        E 0 91 2b 28
        E 16 b1 0b 20
        E 32 b1 0b 18
        E 32 b1 0b 10
        E 32 b1 0b 08
        E 32 81 2b 00
        E 224 b1 0b 28
        E 0 91 2d 28
        E 32 b1 0b 20
        E 32 b1 0b 18
        E 32 b1 0b 10
        E 32 b1 0b 08
        E 32 81 2d 00
        E 192 b1 0b 28
        E 0 91 2b 28
        E 16 b1 0b 20
        E 32 b1 0b 18
        E 48 b1 0b 10
        E 32 b1 0b 08
        E 32 81 2b 00
        E 80 b1 0b 28
        E 0 91 2b 28
        E 16 b1 0b 20
        E 48 b1 0b 18
        E 32 b1 0b 10
        E 32 b1 0b 08
        E 32 81 2b 00
        E 192 b1 0b 28
        E 0 91 2d 28
        E 16 b1 0b 20
        E 32 b1 0b 18
        E 32 b1 0b 10
        E 48 b1 0b 08
        E 32 81 2d 00
        E 192 b1 0b 28
        E 0 91 30 28
        E 16 b1 0b 20
        E 32 b1 0b 18
        E 32 b1 0b 10
        E 32 b1 0b 08
        E 16 b1 0b 28
        E 0 81 30 00
        E 0 91 2f 28
        E 32 b1 0b 20
        E 32 b1 0b 18
        E 32 b1 0b 10
        E 16 b1 0b 28
        E 0 81 2f 00
        E 0 91 30 28
        E 16 b1 0b 20
        E 32 b1 0b 18
        E 32 b1 0b 10
        E 48 b1 0b 08
        E 32 81 30 00
        E 192 b1 0b 28
        E 0 91 2d 28
        E 16 b1 0b 20
        E 32 b1 0b 18
        E 32 b1 0b 10
        E 32 b1 0b 08
        E 32 81 2d 00
        E 224 b1 0b 28
        E 0 91 2b 28
        E 32 b1 0b 20
        E 32 b1 0b 18
        E 32 b1 0b 10
        E 32 b1 0b 08
        E 32 81 2b 00
        E 64 b1 0b 28
        E 0 91 2b 28
        E 16 b1 0b 20
        E 32 b1 0b 18
        E 32 b1 0b 10
        E 32 b1 0b 08
        E 32 81 2b 00
        E 224 b1 0b 28
        E 0 91 2d 28
        E 16 b1 0b 20
        E 48 b1 0b 18
        E 32 b1 0b 10
        E 32 b1 0b 08
        E 32 81 2d 00
        E 80 b1 0b 28
        E 0 91 2b 28
        E 32 b1 0b 20
        E 32 b1 0b 18
        E 32 b1 0b 10
        E 32 b1 0b 08
        E 32 81 2b 00
        E 192 b1 0b 28
        E 0 91 2b 28
        E 16 b1 0b 20
        E 48 b1 0b 18
        E 32 b1 0b 10
        E 32 b1 0b 08
        E 32 81 2b 00
        E 192 b1 0b 28
        E 0 91 2d 28
        E 16 b1 0b 20
        E 32 b1 0b 18
        E 32 b1 0b 10
        E 48 b1 0b 08
        E 32 81 2d 00
        E 192 b1 0b 28
        E 0 91 2b 28
        E 16 b1 0b 20
        E 32 b1 0b 18
        E 32 b1 0b 10
        E 32 b1 0b 08
        E 16 b1 0b 28
        E 16 b1 0b 20
        E 48 b1 0b 18
        E 32 b1 0b 10
        E 16 b1 0b 28
        E 16 b1 0b 20
        E 32 b1 0b 18
        E 32 b1 0b 10
        E 32 b1 0b 08
        E 16 b1 0b 28
        E 0 81 2b 00
        E 0 91 2d 28
        E 32 b1 0b 20
        E 32 b1 0b 18
        E 32 b1 0b 10
        E 32 b1 0b 08
        E 32 81 2d 00
        E 160 b1 0c 10
        E 0 b1 0b 18
        E 0 91 29 18
        E 64 81 29 00
        E 0 91 2d 18
        E 48 81 2d 00
        E 0 91 32 18
        E 48 b1 0b 10
        E 16 b1 0b 18
        E 0 81 32 00
        E 0 91 35 18
        E 64 81 35 00
        E 0 91 39 18
        E 48 b1 0b 10
        E 16 b1 0b 18
        E 0 81 39 00
        E 0 91 3e 18
        E 48 81 3e 00
        E 0 91 41 18
        E 64 81 41 00
        E 0 91 3e 18
        E 48 b1 0b 10
        E 16 b1 0b 18
        E 0 81 3e 00
        E 0 91 39 18
        E 48 81 39 00
        E 0 91 35 18
        E 64 81 35 00
        E 0 91 32 18
        E 48 b1 0b 10
        E 16 b1 0b 18
        E 0 81 32 00
        E 0 91 2d 18
        E 48 81 2d 00
        E 0 91 29 18
        E 32 81 29 00
        E 208 91 29 18
        E 64 81 29 00
        E 0 91 2d 18
        E 48 b1 0b 10
        E 16 b1 0b 18
        E 0 81 2d 00
        E 0 91 32 18
        E 48 81 32 00
        E 0 91 35 18
        E 64 81 35 00
        E 0 91 39 18
        E 48 b1 0b 10
        E 16 b1 0b 18
        E 0 81 39 00
        E 0 91 3e 18
        E 64 81 3e 00
        E 0 91 41 18
        E 48 81 41 00
        E 0 91 3e 18
        E 48 b1 0b 10
        E 16 b1 0b 18
        E 0 81 3e 00
        E 0 91 39 18
        E 64 81 39 00
        E 0 91 35 18
        E 48 81 35 00
        E 0 91 32 18
        E 48 b1 0b 10
        E 16 b1 0b 18
        E 0 81 32 00
        E 0 91 2d 18
        E 64 81 2d 00
        E 0 91 29 18
        E 32 b1 0b 28
        E 0 81 29 00
        E 0 91 32 28
        E 16 b1 0b 20
        E 48 b1 0b 18
        E 32 b1 0b 10
        E 16 b1 0b 28
        E 16 b1 0b 20
        E 32 b1 0b 18
        E 32 b1 0b 10
        E 32 b1 0b 08
        E 48 81 32 00
        E 80 b1 0b 28
        E 0 91 32 28
        E 16 b1 0b 20
        E 32 b1 0b 18
        E 32 b1 0b 10
        E 48 b1 0b 08
        E 32 81 32 00
        E 192 b1 0b 28
        E 0 91 32 28
        E 16 b1 0b 20
        E 32 b1 0b 18
        E 32 b1 0b 10
        E 32 b1 0b 08
        E 48 81 32 00
        E 192 b1 0c 40
        E 0 b1 0b 28
        E 0 91 34 28
        E 16 b1 0b 20
        E 32 b1 0b 18
        E 16 81 34 00
        E 64 b1 0b 28
        E 0 91 39 28
        E 16 b1 0b 20
        E 32 b1 0b 18
        E 16 b1 0b 10
        E 0 81 39 00
        E 0 91 34 10
        E 32 b1 0b 08
        E 16 b1 0b 28
        E 0 81 34 00
        E 0 91 3d 28
        E 16 b1 0b 20
        E 32 b1 0b 18
        E 16 b1 0b 10
        E 0 81 3d 00
        E 0 91 39 10
        E 16 b1 0b 08
        E 32 81 39 00
        E 16 b1 0b 28
        E 0 91 3e 28
        E 16 b1 0b 20
        E 32 b1 0b 10
        E 0 81 3e 00
        E 0 91 3d 10
        E 16 b1 0b 08
        E 32 81 3d 00
        E 16 b1 0b 28
        E 0 91 3d 28
        E 16 b1 0b 20
        E 32 b1 0b 18
        E 16 b1 0b 10
        E 0 81 3d 00
        E 0 91 3e 10
        E 16 b1 0b 08
        E 32 81 3e 00
        E 16 b1 0b 28
        E 0 91 39 28
        E 32 b1 0b 20
        E 16 b1 0b 10
        E 0 81 39 00
        E 0 91 3d 10
        E 16 b1 0b 08
        E 32 81 3d 00
        E 16 b1 0b 28
        E 0 91 34 28
        E 16 b1 0b 20
        E 32 b1 0b 18
        E 16 b1 0b 10
        E 0 81 34 00
        E 0 91 39 10
        E 16 b1 0b 08
        E 32 b1 0c 10
        E 0 b1 0b 28
        E 0 81 39 00
        E 0 91 32 28
        E 16 b1 0b 20
        E 32 b1 0b 18
        E 32 b1 0b 10
        E 32 b1 0b 08
        E 16 b1 0b 28
        E 16 b1 0b 20
        E 32 b1 0b 18
        E 48 b1 0b 10
        E 32 b1 0b 08
        E 32 81 32 00
        E 192 b1 0b 28
        E 0 91 32 28
        E 16 b1 0b 20
        E 32 b1 0b 18
        E 32 b1 0b 10
        E 32 b1 0b 08
        E 48 81 32 00
        E 80 b1 0b 28
        E 0 91 32 28
        E 16 b1 0b 20
        E 32 b1 0b 18
        E 32 b1 0b 10
        E 48 b1 0b 08
        E 32 81 32 00
        E 80 b1 0b 28
        E 0 91 34 28
        E 16 b1 0b 20
        E 48 b1 0b 18
        E 32 b1 0b 10
        E 32 b1 0b 08
        E 32 81 34 00
        E 80 b1 0b 28
        E 0 91 34 28
        E 32 b1 0b 20
        E 32 b1 0b 18
        E 32 b1 0b 10
        E 32 b1 0b 08
        E 32 81 34 00
        E 64 b1 0b 28
        E 0 91 2f 28
        E 16 b1 0b 20
        E 32 b1 0b 18
        E 32 b1 0b 10
        E 32 b1 0b 08
        E 32 81 2f 00
        E 96 b1 0b 28
        E 0 91 31 28
        E 16 b1 0b 20
        E 32 b1 0b 18
        E 32 b1 0b 10
        E 32 b1 0b 08
        E 32 81 31 00
        E 96 b1 0b 28
        E 0 91 32 28
        E 16 b1 0b 20
        E 32 b1 0b 18
        E 32 b1 0b 10
        E 32 b1 0b 08
        E 16 b1 0b 28
        E 32 b1 0b 20
        E 32 b1 0b 18
        E 32 b1 0b 10
        E 32 b1 0b 08
        E 32 81 32 00
        E 64 b1 0b 28
        E 0 91 32 28
        E 16 b1 0b 20
        E 32 b1 0b 18
        E 32 b1 0b 10
        E 32 b1 0b 08
        E 32 81 32 00
        E 224 b1 0b 28
        E 0 91 32 28
        E 16 b1 0b 20
        E 48 b1 0b 18
        E 32 b1 0b 10
        E 32 b1 0b 08
        E 32 81 32 00
        E 192 b1 0c 40
        E 0 b1 0b 28
        E 0 91 34 28
        E 16 b1 0b 20
        E 32 b1 0b 18
        E 16 81 34 00
        E 48 b1 0b 28
        E 0 91 39 28
        E 16 b1 0b 20
        E 32 b1 0b 18
        E 16 b1 0b 10
        E 0 81 39 00
        E 0 91 34 10
        E 16 b1 0b 08
        E 32 81 34 00
        E 16 b1 0b 28
        E 0 91 3d 28
        E 16 b1 0b 20
        E 32 b1 0b 10
        E 0 81 3d 00
        E 0 91 39 10
        E 16 b1 0b 08
        E 32 81 39 00
        E 16 b1 0b 28
        E 0 91 3e 28
        E 16 b1 0b 20
        E 32 b1 0b 18
        E 16 b1 0b 10
        E 0 81 3e 00
        E 0 91 3d 10
        E 16 b1 0b 08
        E 32 81 3d 00
        E 16 b1 0b 28
        E 0 91 3d 28
        E 32 b1 0b 20
        E 16 b1 0b 10
        E 0 81 3d 00
        E 0 91 3e 10
        E 16 b1 0b 08
        E 32 81 3e 00
        E 16 b1 0b 28
        E 0 91 39 28
        E 16 b1 0b 20
        E 32 b1 0b 18
        E 16 b1 0b 10
        E 0 81 39 00
        E 0 91 3d 10
        E 16 b1 0b 08
        E 32 b1 0b 28
        E 0 81 3d 00
        E 0 91 34 28
        E 16 b1 0b 20
        E 32 b1 0b 18
        E 16 b1 0b 10
        E 0 81 34 00
        E 0 91 39 10
        E 16 b1 0b 08
        E 32 81 39 00
        E 16 b1 0c 10
        E 0 b1 0b 28
        E 0 91 32 28
        E 16 b1 0b 20
        E 32 b1 0b 18
        E 48 b1 0b 10
        E 16 b1 0b 28
        E 16 b1 0b 20
        E 32 b1 0b 18
        E 32 b1 0b 10
        E 32 b1 0b 08
        E 32 81 32 00
        E 224 b1 0b 28
        E 0 91 32 28
        E 32 b1 0b 20
        E 32 b1 0b 18
        E 32 b1 0b 10
        E 32 b1 0b 08
        E 32 81 32 00
        E 64 b1 0b 28
        E 0 91 32 28
        E 16 b1 0b 20
        E 32 b1 0b 18
        E 32 b1 0b 10
        E 32 b1 0b 08
        E 32 81 32 00
        E 96 b1 0b 28
        E 0 91 30 28
        E 16 b1 0b 20
        E 32 b1 0b 18
        E 32 b1 0b 10
        E 32 b1 0b 08
        E 16 b1 0b 28
        E 16 b1 0b 20
        E 48 b1 0b 18
        E 32 b1 0b 10
        E 16 b1 0b 28
        E 0 81 30 00
        E 0 91 2f 28
        E 16 b1 0b 20
        E 32 b1 0b 18
        E 32 b1 0b 10
        E 32 b1 0b 28
        E 0 81 2f 00
        E 0 91 2b 28
        E 16 b1 0b 20
        E 32 b1 0b 18
        E 32 b1 0b 10
        E 32 b1 0b 08
        E 32 81 2b 00
        E 96 b1 0b 28
        E 0 91 2b 28
        E 16 b1 0b 20
        E 32 b1 0b 18
        E 32 b1 0b 10
        E 32 b1 0b 08
        E 16 b1 0b 28
        E 16 b1 0b 20
        E 48 b1 0b 18
        E 32 b1 0b 10
        E 16 b1 0b 28
        E 16 b1 0b 20
        E 32 b1 0b 18
        E 32 b1 0b 10
        E 32 b1 0b 08
        E 16 b1 0b 28
        E 0 81 2b 00
        E 0 91 32 28
        E 32 b1 0b 20
        E 32 b1 0b 18
        E 32 b1 0b 10
        E 16 b1 0b 28
        E 16 b1 0b 20
        E 32 b1 0b 18
        E 32 b1 0b 10
        E 48 b1 0b 08
        E 32 81 32 00
        E 80 b1 0b 28
        E 0 91 32 28
        E 16 b1 0b 20
        E 32 b1 0b 18
        E 48 b1 0b 10
        E 32 b1 0b 08
        E 32 81 32 00
        E 192 b1 0b 28
        E 0 91 32 28
        E 16 b1 0b 20
        E 32 b1 0b 18
        E 32 b1 0b 10
        E 32 b1 0b 08
        E 48 81 32 00
        E 192 b1 0c 40
        E 0 b1 0b 28
        E 0 91 34 28
        E 16 b1 0b 20
        E 32 b1 0b 18
        E 16 81 34 00
        E 64 b1 0b 28
        E 0 91 39 28
        E 16 b1 0b 20
        E 32 b1 0b 18
        E 16 b1 0b 10
        E 0 81 39 00
        E 0 91 34 10
        E 32 b1 0b 08
        E 16 b1 0b 28
        E 0 81 34 00
        E 0 91 3d 28
        E 16 b1 0b 20
        E 32 b1 0b 18
        E 16 b1 0b 10
        E 0 81 3d 00
        E 0 91 39 10
        E 16 b1 0b 08
        E 32 81 39 00
        E 16 b1 0b 28
        E 0 91 3e 28
        E 32 b1 0b 20
        E 16 b1 0b 10
        E 0 81 3e 00
        E 0 91 3d 10
        E 16 b1 0b 08
        E 32 81 3d 00
        E 16 b1 0b 28
        E 0 91 3d 28
        E 16 b1 0b 20
        E 32 b1 0b 18
        E 16 b1 0b 10
        E 0 81 3d 00
        E 0 91 3e 10
        E 16 b1 0b 08
        E 32 b1 0b 28
        E 0 81 3e 00
        E 0 91 39 28
        E 16 b1 0b 20
        E 32 b1 0b 18
        E 16 b1 0b 10
        E 0 81 39 00
        E 0 91 3d 10
        E 16 b1 0b 08
        E 32 81 3d 00
        E 16 b1 0b 28
        E 0 91 34 28
        E 16 b1 0b 20
        E 32 b1 0b 18
        E 16 b1 0b 10
        E 0 81 34 00
        E 0 91 39 10
        E 32 b1 0b 08
        E 16 b1 0c 10
        E 0 b1 0b 28
        E 0 81 39 00
        E 0 91 32 28
        E 16 b1 0b 20
        E 32 b1 0b 18
        E 32 b1 0b 10
        E 32 b1 0b 08
        E 16 b1 0b 28
        E 16 b1 0b 20
        E 48 b1 0b 18
        E 32 b1 0b 10
        E 32 b1 0b 08
        E 32 81 32 00
        E 192 b1 0b 28
        E 0 91 32 28
        E 16 b1 0b 20
        E 32 b1 0b 18
        E 32 b1 0b 10
        E 48 b1 0b 08
        E 32 81 32 00
        E 80 b1 0b 28
        E 0 91 32 28
        E 16 b1 0b 20
        E 32 b1 0b 18
        E 48 b1 0b 10
        E 32 b1 0b 08
        E 32 81 32 00
        E 80 b1 0b 28
        E 0 91 34 28
        E 16 b1 0b 20
        E 48 b1 0b 18
        E 32 b1 0b 10
        E 32 b1 0b 08
        E 32 81 34 00
        E 80 b1 0b 28
        E 0 91 34 28
        E 32 b1 0b 20
        E 32 b1 0b 18
        E 32 b1 0b 10
        E 32 b1 0b 08
        E 32 81 34 00
        E 64 b1 0b 28
        E 0 91 2f 28
        E 16 b1 0b 20
        E 32 b1 0b 18
        E 32 b1 0b 10
        E 32 b1 0b 08
        E 32 81 2f 00
        E 96 b1 0b 28
        E 0 91 31 28
        E 16 b1 0b 20
        E 32 b1 0b 18
        E 32 b1 0b 10
        E 32 b1 0b 08
        E 48 81 31 00
        E 80 b1 0b 28
        E 0 91 32 28
        E 16 b1 0b 20
        E 32 b1 0b 18
        E 32 b1 0b 10
        E 32 b1 0b 28
        E 16 b1 0b 20
        E 32 b1 0b 18
        E 32 b1 0b 10
        E 32 b1 0b 08
        E 32 81 32 00
        E 96 b1 0b 28
        E 0 91 32 28
        E 16 b1 0b 20
        E 32 b1 0b 18
        E 32 b1 0b 10
        E 32 b1 0b 08
        E 32 81 32 00
        E 224 b1 0b 28
        E 0 91 32 28
        E 32 b1 0b 20
        E 32 b1 0b 18
        E 32 b1 0b 10
        E 32 b1 0b 08
        E 32 81 32 00
        E 192 b1 0c 40
        E 0 b1 0b 28
        E 0 91 34 28
        E 16 b1 0b 20
        E 32 b1 0b 18
        E 16 81 34 00
        E 48 b1 0b 28
        E 0 91 39 28
        E 16 b1 0b 20
        E 32 b1 0b 18
        E 16 b1 0b 10
        E 0 81 39 00
        E 0 91 34 10
        E 16 b1 0b 08
        E 32 81 34 00
        E 16 b1 0b 28
        E 0 91 3d 28
        E 16 b1 0b 20
        E 32 b1 0b 10
        E 0 81 3d 00
        E 0 91 39 10
        E 16 b1 0b 08
        E 32 81 39 00
        E 16 b1 0b 28
        E 0 91 3e 28
        E 16 b1 0b 20
        E 32 b1 0b 18
        E 16 b1 0b 10
        E 0 81 3e 00
        E 0 91 3d 10
        E 16 b1 0b 08
        E 32 81 3d 00
        E 16 b1 0b 28
        E 0 91 3d 28
        E 32 b1 0b 20
        E 16 b1 0b 10
        E 0 81 3d 00
        E 0 91 3e 10
        E 16 b1 0b 08
        E 32 81 3e 00
        E 16 b1 0b 28
        E 0 91 39 28
        E 16 b1 0b 20
        E 32 b1 0b 18
        E 16 b1 0b 10
        E 0 81 39 00
        E 0 91 3d 10
        E 32 b1 0b 08
        E 16 b1 0b 28
        E 0 81 3d 00
        E 0 91 34 28
        E 16 b1 0b 20
        E 32 b1 0b 18
        E 16 b1 0b 10
        E 0 81 34 00
        E 0 91 39 10
        E 16 b1 0b 08
        E 32 81 39 00
        E 16 b1 0c 10
        E 0 b1 0b 28
        E 0 91 32 28
        E 16 b1 0b 20
        E 48 b1 0b 18
        E 32 b1 0b 10
        E 16 b1 0b 28
        E 16 b1 0b 20
        E 32 b1 0b 18
        E 32 b1 0b 10
        E 32 b1 0b 08
        E 48 81 32 00
        E 192 b1 0b 28
        E 0 91 32 28
        E 16 b1 0b 20
        E 32 b1 0b 18
        E 32 b1 0b 10
        E 32 b1 0b 08
        E 32 81 32 00
        E 96 b1 0b 28
        E 0 91 32 28
        E 16 b1 0b 20
        E 32 b1 0b 18
        E 32 b1 0b 10
        E 32 b1 0b 08
        E 32 81 32 00
        E 96 b1 0b 28
        E 0 91 30 28
        E 16 b1 0b 20
        E 32 b1 0b 18
        E 32 b1 0b 10
        E 32 b1 0b 08
        E 16 b1 0b 28
        E 32 b1 0b 20
        E 32 b1 0b 18
        E 32 b1 0b 10
        E 16 b1 0b 28
        E 0 81 30 00
        E 0 91 2f 28
        E 16 b1 0b 20
        E 32 b1 0b 18
        E 32 b1 0b 10
        E 32 b1 0b 28
        E 0 81 2f 00
        E 0 91 2b 28
        E 16 b1 0b 20
        E 32 b1 0b 18
        E 32 b1 0b 10
        E 32 b1 0b 08
        E 32 81 2b 00
        E 96 b1 0b 28
        E 0 91 2b 28
        E 16 b1 0b 20
        E 32 b1 0b 18
        E 32 b1 0b 10
        E 32 b1 0b 08
        E 16 b1 0b 28
        E 16 b1 0b 20
        E 48 b1 0b 18
        E 32 b1 0b 10
        E 16 b1 0b 28
        E 16 b1 0b 20
        E 32 b1 0b 18
        E 32 b1 0b 10
        E 32 b1 0c 20
        E 0 b1 0b 30
        E 0 81 2b 00
        E 0 91 2d 30
        E 16 b1 0b 28
        E 32 b1 0b 20
        E 32 b1 0b 18
        E 32 b1 0b 10
        E 16 b1 0b 20
        E 112 b1 0b 10
        E 128 b1 0b 30
        E 112 b1 0b 20
        E 128 b1 0b 10
        E 112 b1 0b 30
        E 112 b1 0b 20
        E 128 b1 0b 10
        E 112 b1 0b 30
        E 128 b1 0b 20
        E 112 b1 0b 10
        E 128 b1 0b 30
        E 112 b1 0b 18
        E 112 b1 0b 30
        E 128 b1 0b 18
        E 112 b1 0b 30
        E 0 81 2d 00
        E 0 91 39 30
        E 16 b1 0b 28
        E 32 b1 0b 20
        E 32 b1 0b 18
        E 32 b1 0b 10
        E 16 b1 0b 20
        E 112 b1 0b 10
        E 112 b1 0b 30
        E 128 b1 0b 20
        E 112 b1 0b 10
        E 128 b1 0b 30
        E 112 b1 0b 20
        E 128 b1 0b 10
        E 112 b1 0b 30
        E 112 b1 0b 20
        E 128 b1 0b 10
        E 112 b1 0b 30
        E 128 b1 0b 18
        E 112 b1 0b 30
        E 128 b1 0b 18
        E 112 81 39 00
        E 112 b1 0b 28
        E 0 91 2d 28
        E 16 b1 0b 20
        E 32 b1 0b 18
        E 32 b1 0b 10
        E 32 b1 0b 08
        E 32 81 2d 00
        E 224 b1 0b 28
        E 0 91 2b 28
        E 32 b1 0b 20
        E 32 b1 0b 18
        E 32 b1 0b 10
        E 32 b1 0b 08
        E 32 81 2b 00
        E 64 b1 0b 28
        E 0 91 2b 28
        E 16 b1 0b 20
        E 32 b1 0b 18
        E 32 b1 0b 10
        E 32 b1 0b 08
        E 32 81 2b 00
        E 224 b1 0b 28
        E 0 91 2d 28
        E 16 b1 0b 20
        E 48 b1 0b 18
        E 32 b1 0b 10
        E 32 b1 0b 08
        E 32 81 2d 00
        E 80 b1 0b 28
        E 0 91 2b 28
        E 32 b1 0b 20
        E 32 b1 0b 18
        E 32 b1 0b 10
        E 32 b1 0b 08
        E 32 81 2b 00
        E 192 b1 0b 28
        E 0 91 2b 28
        E 16 b1 0b 20
        E 32 b1 0b 18
        E 48 b1 0b 10
        E 32 b1 0b 08
        E 32 81 2b 00
        E 192 b1 0b 28
        E 0 91 2d 28
        E 16 b1 0b 20
        E 32 b1 0b 18
        E 32 b1 0b 10
        E 32 b1 0b 08
        E 48 81 2d 00
        E 192 b1 0b 28
        E 0 91 2b 28
        E 16 b1 0b 20
        E 32 b1 0b 18
        E 32 b1 0b 10
        E 32 b1 0b 08
        E 32 81 2b 00
        E 96 b1 0b 28
        E 0 91 2b 28
        E 16 b1 0b 20
        E 32 b1 0b 18
        E 32 b1 0b 10
        E 32 b1 0b 08
        E 48 81 2b 00
        E 192 b1 0b 28
        E 0 91 2d 28
        E 16 b1 0b 20
        E 32 b1 0b 18
        E 32 b1 0b 10
        E 32 b1 0b 08
        E 32 81 2d 00
        E 224 b1 0b 28
        E 0 91 30 28
        E 16 b1 0b 20
        E 48 b1 0b 18
        E 32 b1 0b 10
        E 16 b1 0b 28
        E 0 81 30 00
        E 0 91 2f 28
        E 16 b1 0b 20
        E 32 b1 0b 18
        E 32 b1 0b 10
        E 32 b1 0b 08
        E 16 b1 0b 28
        E 0 81 2f 00
        E 0 91 30 28
        E 32 b1 0b 20
        E 32 b1 0b 18
        E 32 b1 0b 10
        E 32 b1 0b 08
        E 32 81 30 00
        E 192 b1 0b 28
        E 0 91 2d 28
        E 16 b1 0b 20
        E 32 b1 0b 18
        E 48 b1 0b 10
        E 32 b1 0b 08
        E 32 81 2d 00
        E 192 b1 0b 28
        E 0 91 2b 28
        E 16 b1 0b 20
        E 32 b1 0b 18
        E 32 b1 0b 10
        E 48 b1 0b 08
        E 32 81 2b 00
        E 80 b1 0b 28
        E 0 91 2b 28
        E 16 b1 0b 20
        E 32 b1 0b 18
        E 48 b1 0b 10
        E 32 b1 0b 08
        E 32 81 2b 00
        E 192 b1 0b 28
        E 0 91 2d 28
        E 16 b1 0b 20
        E 32 b1 0b 18
        E 32 b1 0b 10
        E 32 b1 0b 08
        E 48 81 2d 00
        E 80 b1 0b 28
        E 0 91 2b 28
        E 16 b1 0b 20
        E 32 b1 0b 18
        E 32 b1 0b 10
        E 48 b1 0b 08
        E 32 81 2b 00
        E 192 b1 0b 28
        E 0 91 2b 28
        E 16 b1 0b 20
        E 32 b1 0b 18
        E 32 b1 0b 10
        E 32 b1 0b 08
        E 32 81 2b 00
        E 224 b1 0b 28
        E 0 91 2d 28
        E 32 b1 0b 20
        E 32 b1 0b 18
        E 32 b1 0b 10
        E 32 b1 0b 08
        E 32 81 2d 00
        E 192 b1 0b 28
        E 0 91 2b 28
        E 16 b1 0b 20
        E 32 b1 0b 18
        E 48 b1 0b 10
        E 16 b1 0b 28
        E 16 b1 0b 20
        E 32 b1 0b 18
        E 32 b1 0b 10
        E 32 b1 0b 08
        E 16 b1 0b 28
        E 32 b1 0b 20
        E 32 b1 0b 18
        E 32 b1 0b 10
        E 16 b1 0b 28
        E 0 81 2b 00
        E 0 91 2d 28
        E 16 b1 0b 20
        E 32 b1 0b 18
        E 32 b1 0b 10
        E 48 b1 0b 08
        E 32 81 2d 00
        E 160 b1 0c 10
        E 0 b1 0b 18
        E 0 91 29 18
        E 48 b1 0b 10
        E 16 b1 0b 18
        E 0 81 29 00
        E 0 91 2d 18
        E 64 81 2d 00
        E 0 91 32 18
        E 48 b1 0b 10
        E 16 b1 0b 18
        E 0 81 32 00
        E 0 91 35 18
        E 48 81 35 00
        E 0 91 39 18
        E 64 81 39 00
        E 0 91 3e 18
        E 48 b1 0b 10
        E 16 b1 0b 18
        E 0 81 3e 00
        E 0 91 41 18
        E 48 81 41 00
        E 0 91 3e 18
        E 64 81 3e 00
        E 0 91 39 18
        E 48 b1 0b 10
        E 16 b1 0b 18
        E 0 81 39 00
        E 0 91 35 18
        E 64 81 35 00
        E 0 91 32 18
        E 48 81 32 00
        E 0 91 2d 18
        E 48 b1 0b 10
        E 16 b1 0b 18
        E 0 81 2d 00
        E 0 91 29 18
        E 32 81 29 00
        E 112 b1 0c 20
        E 0 b1 0b 28
        E 0 91 2d 28
        E 16 b1 0b 20
        E 32 b1 0b 18
        E 32 b1 0b 10
        E 32 b1 0b 08
        E 32 81 2d 00
        E 224 b1 0b 28
        E 0 91 2b 28
        E 32 b1 0b 20
        E 32 b1 0b 18
        E 32 b1 0b 10
        E 32 b1 0b 08
        E 32 81 2b 00
        E 64 b1 0b 28
        E 0 91 2b 28
        E 16 b1 0b 20
        E 32 b1 0b 18
        E 32 b1 0b 10
        E 32 b1 0b 08
        E 32 81 2b 00
        E 224 b1 0b 28
        E 0 91 2d 28
        E 32 b1 0b 20
        E 32 b1 0b 18
        E 32 b1 0b 10
        E 32 b1 0b 08
        E 32 81 2d 00
        E 64 b1 0b 28
        E 0 91 2b 28
        E 16 b1 0b 20
        E 32 b1 0b 18
        E 32 b1 0b 10
        E 32 b1 0b 08
        E 32 81 2b 00
        E 224 b1 0b 28
        E 0 91 2b 28
        E 16 b1 0b 20
        E 48 b1 0b 18
        E 32 b1 0b 10
        E 32 b1 0b 08
        E 32 81 2b 00
        E 192 b1 0b 28
        E 0 91 2d 28
        E 16 b1 0b 20
        E 32 b1 0b 18
        E 32 b1 0b 10
        E 48 b1 0b 08
        E 32 81 2d 00
        E 192 b1 0b 28
        E 0 91 2b 28
        E 16 b1 0b 20
        E 32 b1 0b 18
        E 32 b1 0b 10
        E 32 b1 0b 08
        E 32 81 2b 00
        E 96 b1 0b 28
        E 0 91 2b 28
        E 16 b1 0b 20
        E 32 b1 0b 18
        E 32 b1 0b 10
        E 32 b1 0b 08
        E 48 81 2b 00
        E 192 b1 0b 28
        E 0 91 2d 28
        E 16 b1 0b 20
        E 32 b1 0b 18
        E 32 b1 0b 10
        E 32 b1 0b 08
        E 32 81 2d 00
        E 224 b1 0b 28
        E 0 91 30 28
        E 32 b1 0b 20
        E 32 b1 0b 18
        E 32 b1 0b 10
        E 16 b1 0b 28
        E 0 81 30 00
        E 0 91 2f 28
        E 16 b1 0b 20
        E 32 b1 0b 18
        E 32 b1 0b 10
        E 32 b1 0b 28
        E 0 81 2f 00
        E 0 91 30 28
        E 16 b1 0b 20
        E 32 b1 0b 18
        E 32 b1 0b 10
        E 32 b1 0b 08
        E 32 81 30 00
        E 224 b1 0b 28
        E 0 91 2d 28
        E 16 b1 0b 20
        E 48 b1 0b 18
        E 32 b1 0b 10
        E 32 b1 0b 08
        E 32 81 2d 00
        E 192 b1 0b 28
        E 0 91 2b 28
        E 16 b1 0b 20
        E 32 b1 0b 18
        E 32 b1 0b 10
        E 48 b1 0b 08
        E 32 81 2b 00
        E 80 b1 0b 28
        E 0 91 2b 28
        E 16 b1 0b 20
        E 32 b1 0b 18
        E 48 b1 0b 10
        E 32 b1 0b 08
        E 32 81 2b 00
        E 192 b1 0b 28
        E 0 91 2d 28
        E 16 b1 0b 20
        E 32 b1 0b 18
        E 32 b1 0b 10
        E 48 b1 0b 08
        E 32 81 2d 00
        E 80 b1 0b 28
        E 0 91 2b 28
        E 16 b1 0b 20
        E 32 b1 0b 18
        E 48 b1 0b 10
        E 32 b1 0b 08
        E 32 81 2b 00
        E 192 b1 0b 28
        E 0 91 2b 28
        E 16 b1 0b 20
        E 32 b1 0b 18
        E 32 b1 0b 10
        E 32 b1 0b 08
        E 48 81 2b 00
        E 192 b1 0b 28
        E 0 91 2d 28
        E 16 b1 0b 20
        E 32 b1 0b 18
        E 32 b1 0b 10
        E 32 b1 0b 08
        E 32 81 2d 00
        E 224 b1 0b 28
        E 0 91 2b 28
        E 16 b1 0b 20
        E 48 b1 0b 18
        E 32 b1 0b 10
        E 16 b1 0b 28
        E 16 b1 0b 20
        E 32 b1 0b 18
        E 32 b1 0b 10
        E 32 b1 0b 08
        E 16 b1 0b 28
        E 32 b1 0b 20
        E 32 b1 0b 18
        E 32 b1 0b 10
        E 16 b1 0b 28
        E 0 81 2b 00
        E 0 91 2d 28
        E 16 b1 0b 20
        E 32 b1 0b 18
        E 32 b1 0b 10
        E 48 b1 0b 08
        E 32 81 2d 00
        E 160 b1 0c 10
        E 0 b1 0b 18
        E 0 91 29 18
        E 48 b1 0b 10
        E 16 b1 0b 18
        E 0 81 29 00
        E 0 91 2d 18
        E 64 81 2d 00
        E 0 91 32 18
        E 48 81 32 00
        E 0 91 35 18
        E 48 b1 0b 10
        E 16 b1 0b 18
        E 0 81 35 00
        E 0 91 39 18
        E 64 81 39 00
        E 0 91 3e 18
        E 48 b1 0b 10
        E 16 b1 0b 18
        E 0 81 3e 00
        E 0 91 41 18
        E 48 81 41 00
        E 0 91 3e 18
        E 64 81 3e 00
        E 0 91 39 18
        E 48 b1 0b 10
        E 16 b1 0b 18
        E 0 81 39 00
        E 0 91 35 18
        E 48 81 35 00
        E 0 91 32 18
        E 64 81 32 00
        E 0 91 2d 18
        E 48 b1 0b 10
        E 16 b1 0b 18
        E 0 81 2d 00
        E 0 91 29 18
        E 32 81 29 00
        E 208 91 29 18
        E 48 81 29 00
        E 0 91 2d 18
        E 64 81 2d 00
        E 0 91 32 18
        E 48 b1 0b 10
        E 16 b1 0b 18
        E 0 81 32 00
        E 0 91 35 18
        E 64 81 35 00
        E 0 91 39 18
        E 48 81 39 00
        E 0 91 3e 18
        E 48 b1 0b 10
        E 16 b1 0b 18
        E 0 81 3e 00
        E 0 91 41 18
        E 64 81 41 00
        E 0 91 3e 18
        E 48 81 3e 00
        E 0 91 39 18
        E 48 b1 0b 10
        E 16 b1 0b 18
        E 0 81 39 00
        E 0 91 35 18
        E 64 81 35 00
        E 0 91 32 18
        E 48 b1 0b 10
        E 16 b1 0b 18
        E 0 81 32 00
        E 0 91 2d 18
        E 48 81 2d 00
        E 0 91 29 18
        E 32 b1 0b 28
        E 0 81 29 00
        E 0 91 32 28
        E 16 b1 0b 20
        E 32 b1 0b 18
        E 32 b1 0b 10
        E 32 b1 0b 08
        E 16 b1 0b 28
        E 32 b1 0b 20
        E 32 b1 0b 18
        E 32 b1 0b 10
        E 32 b1 0b 08
        E 32 81 32 00
        E 64 b1 0b 28
        E 0 91 32 28
        E 16 b1 0b 20
        E 32 b1 0b 18
        E 32 b1 0b 10
        E 32 b1 0b 08
        E 32 81 32 00
        E 224 b1 0b 28
        E 0 91 32 28
        E 32 b1 0b 20
        E 32 b1 0b 18
        E 32 b1 0b 10
        E 32 b1 0b 08
        E 32 81 32 00
        E 192 b1 0c 40
        E 0 b1 0b 28
        E 0 91 34 28
        E 16 b1 0b 20
        E 32 b1 0b 18
        E 16 81 34 00
        E 48 b1 0b 28
        E 0 91 39 28
        E 16 b1 0b 20
        E 32 b1 0b 18
        E 16 b1 0b 10
        E 0 81 39 00
        E 0 91 34 10
        E 16 b1 0b 08
        E 32 81 34 00
        E 16 b1 0b 28
        E 0 91 3d 28
        E 16 b1 0b 20
        E 32 b1 0b 10
        E 0 81 3d 00
        E 0 91 39 10
        E 16 b1 0b 08
        E 32 81 39 00
        E 16 b1 0b 28
        E 0 91 3e 28
        E 16 b1 0b 20
        E 32 b1 0b 18
        E 16 b1 0b 10
        E 0 81 3e 00
        E 0 91 3d 10
        E 16 b1 0b 08
        E 32 81 3d 00
        E 16 b1 0b 28
        E 0 91 3d 28
        E 32 b1 0b 20
        E 16 b1 0b 10
        E 0 81 3d 00
        E 0 91 3e 10
        E 16 b1 0b 08
        E 32 81 3e 00
        E 16 b1 0b 28
        E 0 91 39 28
        E 16 b1 0b 20
        E 32 b1 0b 18
        E 16 b1 0b 10
        E 0 81 39 00
        E 0 91 3d 10
        E 16 b1 0b 08
        E 32 b1 0b 28
        E 0 81 3d 00
        E 0 91 34 28
        E 16 b1 0b 20
        E 32 b1 0b 18
        E 16 b1 0b 10
        E 0 81 34 00
        E 0 91 39 10
        E 16 b1 0b 08
        E 32 81 39 00
        E 16 b1 0c 10
        E 0 b1 0b 28
        E 0 91 32 28
        E 16 b1 0b 20
        E 32 b1 0b 18
        E 48 b1 0b 10
        E 16 b1 0b 28
        E 16 b1 0b 20
        E 32 b1 0b 18
        E 32 b1 0b 10
        E 32 b1 0b 08
        E 32 81 32 00
        E 224 b1 0b 28
        E 0 91 32 28
        E 32 b1 0b 20
        E 32 b1 0b 18
        E 32 b1 0b 10
        E 32 b1 0b 08
        E 32 81 32 00
        E 64 b1 0b 28
        E 0 91 32 28
        E 16 b1 0b 20
        E 32 b1 0b 18
        E 32 b1 0b 10
        E 32 b1 0b 08
        E 32 81 32 00
        E 96 b1 0b 28
        E 0 91 34 28
        E 16 b1 0b 20
        E 32 b1 0b 18
        E 32 b1 0b 10
        E 32 b1 0b 08
        E 48 81 34 00
        E 80 b1 0b 28
        E 0 91 34 28
        E 16 b1 0b 20
        E 32 b1 0b 18
        E 32 b1 0b 10
        E 48 b1 0b 08
        E 32 81 34 00
        E 80 b1 0b 28
        E 0 91 2f 28
        E 16 b1 0b 20
        E 32 b1 0b 18
        E 48 b1 0b 10
        E 32 b1 0b 08
        E 32 81 2f 00
        E 80 b1 0b 28
        E 0 91 31 28
        E 16 b1 0b 20
        E 48 b1 0b 18
        E 32 b1 0b 10
        E 32 b1 0b 08
        E 32 81 31 00
        E 80 b1 0b 28
        E 0 91 32 28
        E 32 b1 0b 20
        E 32 b1 0b 18
        E 32 b1 0b 10
        E 16 b1 0b 28
        E 16 b1 0b 20
        E 32 b1 0b 18
        E 32 b1 0b 10
        E 48 b1 0b 08
        E 32 81 32 00
        E 80 b1 0b 28
        E 0 91 32 28
        E 16 b1 0b 20
        E 32 b1 0b 18
        E 48 b1 0b 10
        E 32 b1 0b 08
        E 32 81 32 00
        E 192 b1 0b 28
        E 0 91 32 28
        E 16 b1 0b 20
        E 32 b1 0b 18
        E 32 b1 0b 10
        E 48 b1 0b 08
        E 32 81 32 00
        E 192 b1 0c 40
        E 0 b1 0b 28
        E 0 91 34 28
        E 16 b1 0b 20
        E 32 b1 0b 18
        E 16 81 34 00
        E 64 b1 0b 28
        E 0 91 39 28
        E 16 b1 0b 20
        E 32 b1 0b 10
        E 0 81 39 00
        E 0 91 34 10
        E 16 b1 0b 08
        E 32 81 34 00
        E 16 b1 0b 28
        E 0 91 3d 28
        E 16 b1 0b 20
        E 32 b1 0b 18
        E 16 b1 0b 10
        E 0 81 3d 00
        E 0 91 39 10
        E 16 b1 0b 08
        E 32 81 39 00
        E 16 b1 0b 28
        E 0 91 3e 28
        E 32 b1 0b 20
        E 16 b1 0b 10
        E 0 81 3e 00
        E 0 91 3d 10
        E 16 b1 0b 08
        E 32 81 3d 00
        E 16 b1 0b 28
        E 0 91 3d 28
        E 16 b1 0b 20
        E 32 b1 0b 18
        E 16 b1 0b 10
        E 0 81 3d 00
        E 0 91 3e 10
        E 16 b1 0b 08
        E 32 b1 0b 28
        E 0 81 3e 00
        E 0 91 39 28
        E 16 b1 0b 20
        E 32 b1 0b 18
        E 16 b1 0b 10
        E 0 81 39 00
        E 0 91 3d 10
        E 16 b1 0b 08
        E 32 81 3d 00
        E 16 b1 0b 28
        E 0 91 34 28
        E 16 b1 0b 20
        E 32 b1 0b 18
        E 16 b1 0b 10
        E 0 81 34 00
        E 0 91 39 10
        E 32 b1 0b 08
        E 16 b1 0c 10
        E 0 b1 0b 28
        E 0 81 39 00
        E 0 91 32 28
        E 16 b1 0b 20
        E 32 b1 0b 18
        E 32 b1 0b 10
        E 32 b1 0b 08
        E 16 b1 0b 28
        E 16 b1 0b 20
        E 48 b1 0b 18
        E 32 b1 0b 10
        E 32 b1 0b 08
        E 32 81 32 00
        E 192 b1 0b 28
        E 0 91 32 28
        E 16 b1 0b 20
        E 32 b1 0b 18
        E 32 b1 0b 10
        E 48 b1 0b 08
        E 32 81 32 00
        E 80 b1 0b 28
        E 0 91 32 28
        E 16 b1 0b 20
        E 32 b1 0b 18
        E 48 b1 0b 10
        E 32 b1 0b 08
        E 32 81 32 00
        E 80 b1 0b 28
        E 0 91 30 28
        E 32 b1 0b 20
        E 32 b1 0b 18
        E 32 b1 0b 10
        E 16 b1 0b 28
        E 16 b1 0b 20
        E 32 b1 0b 18
        E 32 b1 0b 10
        E 32 b1 0b 28
        E 0 81 30 00
        E 0 91 2f 28
        E 16 b1 0b 20
        E 32 b1 0b 18
        E 32 b1 0b 10
        E 32 b1 0b 08
        E 16 b1 0b 28
        E 0 81 2f 00
        E 0 91 2b 28
        E 16 b1 0b 20
        E 32 b1 0b 18
        E 48 b1 0b 10
        E 32 b1 0b 08
        E 32 81 2b 00
        E 80 b1 0b 28
        E 0 91 2b 28
        E 16 b1 0b 20
        E 48 b1 0b 18
        E 32 b1 0b 10
        E 16 b1 0b 28
        E 16 b1 0b 20
        E 32 b1 0b 18
        E 32 b1 0b 10
        E 32 b1 0b 08
        E 16 b1 0b 28
        E 32 b1 0b 20
        E 32 b1 0b 18
        E 32 b1 0b 10
        E 16 b1 0b 28
        E 0 81 2b 00
        E 0 91 32 28
        E 16 b1 0b 20
        E 32 b1 0b 18
        E 32 b1 0b 10
        E 32 b1 0b 28
        E 16 b1 0b 20
        E 32 b1 0b 18
        E 32 b1 0b 10
        E 32 b1 0b 08
        E 32 81 32 00
        E 96 b1 0b 28
        E 0 91 32 28
        E 16 b1 0b 20
        E 32 b1 0b 18
        E 32 b1 0b 10
        E 32 b1 0b 08
        E 32 81 32 00
        E 224 b1 0b 28
        E 0 91 32 28
        E 32 b1 0b 20
        E 32 b1 0b 18
        E 32 b1 0b 10
        E 32 b1 0b 08
        E 32 81 32 00
        E 192 b1 0c 40
        E 0 b1 0b 28
        E 0 91 34 28
        E 16 b1 0b 20
        E 32 81 34 00
        E 64 b1 0b 28
        E 0 91 39 28
        E 16 b1 0b 20
        E 32 b1 0b 18
        E 16 b1 0b 10
        E 0 81 39 00
        E 0 91 34 10
        E 16 b1 0b 08
        E 32 81 34 00
        E 16 b1 0b 28
        E 0 91 3d 28
        E 32 b1 0b 20
        E 16 b1 0b 10
        E 0 81 3d 00
        E 0 91 39 10
        E 16 b1 0b 08
        E 32 81 39 00
        E 16 b1 0b 28
        E 0 91 3e 28
        E 16 b1 0b 20
        E 32 b1 0b 18
        E 16 b1 0b 10
        E 0 81 3e 00
        E 0 91 3d 10
        E 16 b1 0b 08
        E 32 b1 0b 28
        E 16 b1 0b 20
        E 32 b1 0b 18
        E 16 b1 0b 10
        E 0 81 3d 00
        E 0 91 3e 10
        E 16 b1 0b 08
        E 32 81 3e 00
        E 16 b1 0b 28
        E 0 91 39 28
        E 16 b1 0b 20
        E 32 b1 0b 18
        E 16 b1 0b 10
        E 0 81 39 00
        E 0 91 3d 10
        E 32 b1 0b 08
        E 16 b1 0b 28
        E 0 81 3d 00
        E 0 91 34 28
        E 16 b1 0b 20
        E 32 b1 0b 18
        E 16 b1 0b 10
        E 0 81 34 00
        E 0 91 39 10
        E 16 b1 0b 08
        E 32 81 39 00
        E 16 b1 0c 10
        E 0 b1 0b 28
        E 0 91 32 28
        E 16 b1 0b 20
        E 48 b1 0b 18
        E 32 b1 0b 10
        E 16 b1 0b 28
        E 16 b1 0b 20
        E 32 b1 0b 18
        E 32 b1 0b 10
        E 32 b1 0b 08
        E 48 81 32 00
        E 192 b1 0b 28
        E 0 91 32 28
        E 16 b1 0b 20
        E 32 b1 0b 18
        E 32 b1 0b 10
        E 32 b1 0b 08
        E 32 81 32 00
        E 96 b1 0b 28
        E 0 91 32 28
        E 16 b1 0b 20
        E 32 b1 0b 18
        E 32 b1 0b 10
        E 32 b1 0b 08
        E 32 81 32 00
        E 96 b1 0b 28
        E 0 91 34 28
        E 16 b1 0b 20
        E 32 b1 0b 18
        E 32 b1 0b 10
        E 32 b1 0b 08
        E 48 81 34 00
        E 80 b1 0b 28
        E 0 91 34 28
        E 16 b1 0b 20
        E 32 b1 0b 18
        E 48 b1 0b 10
        E 32 b1 0b 08
        E 32 81 34 00
        E 80 b1 0b 28
        E 0 91 2f 28
        E 16 b1 0b 20
        E 48 b1 0b 18
        E 32 b1 0b 10
        E 32 b1 0b 08
        E 32 81 2f 00
        E 80 b1 0b 28
        E 0 91 31 28
        E 32 b1 0b 20
        E 32 b1 0b 18
        E 32 b1 0b 10
        E 32 b1 0b 08
        E 32 81 31 00
        E 64 b1 0b 28
        E 0 91 32 28
        E 16 b1 0b 20
        E 32 b1 0b 18
        E 32 b1 0b 10
        E 32 b1 0b 08
        E 16 b1 0b 28
        E 16 b1 0b 20
        E 32 b1 0b 18
        E 48 b1 0b 10
        E 32 b1 0b 08
        E 32 81 32 00
        E 80 b1 0b 28
        E 0 91 32 28
        E 16 b1 0b 20
        E 48 b1 0b 18
        E 32 b1 0b 10
        E 32 b1 0b 08
        E 32 81 32 00
        E 192 b1 0b 28
        E 0 91 32 28
        E 16 b1 0b 20
        E 32 b1 0b 18
        E 32 b1 0b 10
        E 48 b1 0b 08
        E 32 81 32 00
        E 192 b1 0c 40
        E 0 b1 0b 28
        E 0 91 34 28
        E 16 b1 0b 20
        E 32 b1 0b 18
        E 16 81 34 00
        E 64 b1 0b 28
        E 0 91 39 28
        E 16 b1 0b 20
        E 32 b1 0b 10
        E 0 81 39 00
        E 0 91 34 10
        E 16 b1 0b 08
        E 32 81 34 00
        E 16 b1 0b 28
        E 0 91 3d 28
        E 16 b1 0b 20
        E 32 b1 0b 18
        E 16 b1 0b 10
        E 0 81 3d 00
        E 0 91 39 10
        E 16 b1 0b 08
        E 32 b1 0b 28
        E 0 81 39 00
        E 0 91 3e 28
        E 16 b1 0b 20
        E 32 b1 0b 18
        E 16 b1 0b 10
        E 0 81 3e 00
        E 0 91 3d 10
        E 16 b1 0b 08
        E 32 81 3d 00
        E 16 b1 0b 28
        E 0 91 3d 28
        E 16 b1 0b 20
        E 32 b1 0b 18
        E 16 b1 0b 10
        E 0 81 3d 00
        E 0 91 3e 10
        E 32 b1 0b 08
        E 16 b1 0b 28
        E 0 81 3e 00
        E 0 91 39 28
        E 16 b1 0b 20
        E 32 b1 0b 18
        E 16 b1 0b 10
        E 0 81 39 00
        E 0 91 3d 10
        E 16 b1 0b 08
        E 32 81 3d 00
        E 16 b1 0b 28
        E 0 91 34 28
        E 16 b1 0b 20
        E 32 b1 0b 10
        E 0 81 34 00
        E 0 91 39 10
        E 16 b1 0b 08
        E 32 81 39 00
        E 16 b1 0c 10
        E 0 b1 0b 28
        E 0 91 32 28
        E 16 b1 0b 20
        E 32 b1 0b 18
        E 32 b1 0b 10
        E 32 b1 0b 08
        E 16 b1 0b 28
        E 32 b1 0b 20
        E 32 b1 0b 18
        E 32 b1 0b 10
        E 32 b1 0b 08
        E 32 81 32 00
        E 192 b1 0b 28
        E 0 91 32 28
        E 16 b1 0b 20
        E 32 b1 0b 18
        E 48 b1 0b 10
        E 32 b1 0b 08
        E 32 81 32 00
        E 80 b1 0b 28
        E 0 91 32 28
        E 16 b1 0b 20
        E 48 b1 0b 18
        E 32 b1 0b 10
        E 32 b1 0b 08
        E 32 81 32 00
        E 80 b1 0b 28
        E 0 91 30 28
        E 32 b1 0b 20
        E 32 b1 0b 18
        E 32 b1 0b 10
        E 16 b1 0b 28
        E 16 b1 0b 20
        E 32 b1 0b 18
        E 32 b1 0b 10
        E 32 b1 0b 28
        E 0 81 30 00
        E 0 91 2f 28
        E 16 b1 0b 20
        E 32 b1 0b 18
        E 32 b1 0b 10
        E 32 b1 0b 08
        E 16 b1 0b 28
        E 0 81 2f 00
        E 0 91 2b 28
        E 16 b1 0b 20
        E 32 b1 0b 18
        E 48 b1 0b 10
        E 32 b1 0b 08
        E 32 81 2b 00
        E 80 b1 0b 28
        E 0 91 2b 28
        E 32 b1 0b 20
        E 32 b1 0b 18
        E 32 b1 0b 10
        E 16 b1 0b 28
        E 16 b1 0b 20
        E 32 b1 0b 18
        E 32 b1 0b 10
        E 32 b1 0b 28
        E 16 b1 0b 20
        E 32 b1 0b 18
        E 32 b1 0b 10
        E 32 b1 0b 08
        E 16 b1 0c 20
        E 0 b1 0b 30
        E 0 81 2b 00
        E 0 91 2d 30
        E 16 b1 0b 28
        E 32 b1 0b 20
        E 48 b1 0b 18
        E 16 b1 0b 20
        E 128 b1 0b 10
        E 112 b1 0b 30
        E 128 b1 0b 20
        E 112 b1 0b 10
        E 112 b1 0b 30
        E 128 b1 0b 20
        E 112 b1 0b 10
        E 128 b1 0b 30
        E 112 b1 0b 20
        E 128 b1 0b 10
        E 112 b1 0b 30
        E 112 b1 0b 18
        E 128 b1 0b 30
        E 112 b1 0b 18
        E 128 b1 0b 30
        E 0 81 2d 00
        E 0 91 39 30
        E 32 b1 0b 28
        E 32 b1 0b 20
        E 32 b1 0b 18
        E 16 b1 0b 20
        E 112 b1 0b 10
        E 128 b1 0b 30
        E 112 b1 0b 20
        E 128 b1 0b 10
        E 112 b1 0b 30
        E 128 b1 0b 20
        E 112 b1 0b 10
        E 112 b1 0b 30
        E 128 b1 0b 20
        E 112 b1 0b 10
        E 128 b1 0b 30
        E 112 b1 0b 18
        E 128 b1 0b 30
        E 112 b1 0b 18
        E 112 81 39 00
        E 128 b1 0b 28
        E 0 91 2d 28
        E 16 b1 0b 20
        E 48 b1 0b 18
        E 32 b1 0b 10
        E 32 b1 0b 08
        E 32 81 2d 00
        E 192 b1 0b 28
        E 0 91 2b 28
        E 16 b1 0b 20
        E 32 b1 0b 18
        E 32 b1 0b 10
        E 48 b1 0b 08
        E 32 81 2b 00
        E 80 b1 0b 28
        E 0 91 2b 28
        E 16 b1 0b 20
        E 32 b1 0b 18
        E 48 b1 0b 10
        E 32 b1 0b 08
        E 32 81 2b 00
        E 192 b1 0b 28
        E 0 91 2d 28
        E 16 b1 0b 20
        E 32 b1 0b 18
        E 32 b1 0b 10
        E 32 b1 0b 08
        E 48 81 2d 00
        E 80 b1 0b 28
        E 0 91 2b 28
        E 16 b1 0b 20
        E 32 b1 0b 18
        E 32 b1 0b 10
        E 48 b1 0b 08
        E 32 81 2b 00
        E 192 b1 0b 28
        E 0 91 2b 28
        E 16 b1 0b 20
        E 32 b1 0b 18
        E 32 b1 0b 10
        E 32 b1 0b 08
        E 32 81 2b 00
        E 208 b1 0b 28
        E 0 91 2d 28
        E 16 b1 0b 20
        E 32 b1 0b 18
        E 32 b1 0b 10
        E 32 b1 0b 08
        E 32 81 2d 00
        E 224 b1 0b 28
        E 0 91 2b 28
        E 16 b1 0b 20
        E 48 b1 0b 18
        E 32 b1 0b 10
        E 32 b1 0b 08
        E 32 81 2b 00
        E 80 b1 0b 28
        E 0 91 2b 28
        E 32 b1 0b 20
        E 32 b1 0b 18
        E 32 b1 0b 10
        E 32 b1 0b 08
        E 32 81 2b 00
        E 192 b1 0b 28
        E 0 91 2d 28
        E 16 b1 0b 20
        E 32 b1 0b 18
        E 48 b1 0b 10
        E 32 b1 0b 08
        E 32 81 2d 00
        E 192 b1 0b 28
        E 0 91 30 28
        E 16 b1 0b 20
        E 32 b1 0b 18
        E 32 b1 0b 10
        E 32 b1 0b 08
        E 16 b1 0b 28
        E 0 81 30 00
        E 0 91 2f 28
        E 32 b1 0b 20
        E 32 b1 0b 18
        E 32 b1 0b 10
        E 16 b1 0b 28
        E 0 81 2f 00
        E 0 91 30 28
        E 16 b1 0b 20
        E 32 b1 0b 18
        E 32 b1 0b 10
        E 48 b1 0b 08
        E 32 81 30 00
        E 192 b1 0b 28
        E 0 91 2d 28
        E 16 b1 0b 20
        E 32 b1 0b 18
        E 32 b1 0b 10
        E 32 b1 0b 08
        E 48 81 2d 00
        E 192 b1 0b 28
        E 0 91 2b 28
        E 16 b1 0b 20
        E 32 b1 0b 18
        E 32 b1 0b 10
        E 32 b1 0b 08
        E 32 81 2b 00
        E 96 b1 0b 28
        E 0 91 2b 28
        E 16 b1 0b 20
        E 32 b1 0b 18
        E 32 b1 0b 10
        E 32 b1 0b 08
        E 32 81 2b 00
        E 224 b1 0b 28
        E 0 91 2d 28
        E 32 b1 0b 20
        E 32 b1 0b 18
        E 32 b1 0b 10
        E 32 b1 0b 08
        E 32 81 2d 00
        E 64 b1 0b 28
        E 0 91 2b 28
        E 16 b1 0b 20
        E 32 b1 0b 18
        E 32 b1 0b 10
        E 32 b1 0b 08
        E 32 81 2b 00
        E 224 b1 0b 28
        E 0 91 2b 28
        E 16 b1 0b 20
        E 48 b1 0b 18
        E 32 b1 0b 10
        E 32 b1 0b 08
        E 32 81 2b 00
        E 192 b1 0b 28
        E 0 91 2d 28
        E 16 b1 0b 20
        E 32 b1 0b 18
        E 32 b1 0b 10
        E 48 b1 0b 08
        E 32 81 2d 00
        E 192 b1 0b 28
        E 0 91 2b 28
        E 16 b1 0b 20
        E 32 b1 0b 18
        E 32 b1 0b 10
        E 32 b1 0b 08
        E 16 b1 0b 28
        E 32 b1 0b 20
        E 32 b1 0b 18
        E 32 b1 0b 10
        E 16 b1 0b 28
        E 16 b1 0b 20
        E 32 b1 0b 18
        E 32 b1 0b 10
        E 32 b1 0b 28
        E 0 81 2b 00
        E 0 91 2d 28
        E 16 b1 0b 20
        E 32 b1 0b 18
        E 32 b1 0b 10
        E 32 81 2d 00
        E 0 ff 2f 00
      >
    >
  >
  <TRACK {5B501B13-65E2-476A-A732-6AD2F4AF0030}
    NAME "NES - Triangle [ch2]"
    PEAKCOL 16744192
    BEAT -1
    AUTOMODE 0
    PANLAWFLAGS 3
    VOLPAN 1 0 -1 -1 1
    MUTESOLO 0 0 0
    IPHASE 0
    PLAYOFFS 0 1
    ISBUS 0 0
    BUSCOMP 0 0 0 0 0
    SHOWINMIX 1 0.6667 0.5 1 0.5 0 0 0
    FIXEDLANES 9 0 0 0 0
    SEL 0
    REC 0 5088 1 0 0 0 0 0
    VU 2
    TRACKHEIGHT 0 0 0 0 0 0 0
    INQ 0 0 0 0.5 100 0 0 100
    NCHAN 2
    FX 1
    TRACKID {5B501B13-65E2-476A-A732-6AD2F4AF0030}
    PERF 0
    MIDIOUT -1
    MAINSEND 1 0
    <FXCHAIN
      WNDRECT 24 52 700 560
      SHOW 0
      LASTSEL 0
      DOCKED 0
      BYPASS 0 0 0
      <JS "ReapNES Studio/ReapNES_Console.jsfx" ""
        2 15 1 10 80 10 100 2 1 15 1 5 60 10 80 1 1 0 50 0 0 15 1 0 100 0 0 0.500000 0.500000 0.400000 0.300000 0.800000 2 1 0 0 0 0 - - - - - - - - - - - - - - - - - - - - - - - - - -
      >
      FLOATPOS 0 0 0 0
      FXID {E054540C-3D09-4120-AEFD-FF1F34E178B3}
      WAK 0 0
    >
    <ITEM
      POSITION 0
      LENGTH 83.98134
      LOOP 0
      ALLTAKES 0
      FADEIN 0 0 0 0 0 0 0
      FADEOUT 0 0 0 0 0 0 0
      MUTE 0 0
      SEL 0
      IGUID {D168940F-7FFC-4F46-BD64-00CD3D5B56DF}
      <SOURCE MIDI
        HASDATA 1 480 QN
        CCINTERP 32
        E 0 c2 26
        E 48 b2 0b 7f
        E 0 92 2b 7f
        E 48 82 2b 00
        E 0 b2 0b 7f
        E 0 92 2a 7f
        E 64 82 2a 00
        E 0 b2 0b 7f
        E 0 92 29 7f
        E 48 82 29 00
        E 0 b2 0b 7f
        E 0 92 28 7f
        E 48 82 28 00
        E 0 b2 0b 7f
        E 0 92 27 7f
        E 64 82 27 00
        E 0 b2 0b 7f
        E 0 92 26 7f
        E 64 82 26 00
        E 0 b2 0b 7f
        E 0 92 27 7f
        E 160 82 27 00
        E 0 b2 0b 7f
        E 0 92 28 7f
        E 160 82 28 00
        E 0 b2 0b 7f
        E 0 92 29 7f
        E 128 82 29 00
        E 0 b2 0b 7f
        E 0 92 2a 7f
        E 112 82 2a 00
        E 0 b2 0b 7f
        E 0 92 2b 7f
        E 128 82 2b 00
        E 0 b2 0b 7f
        E 0 92 2c 7f
        E 112 82 2c 00
        E 0 b2 0b 7f
        E 0 92 2d 7f
        E 128 82 2d 00
        E 0 b2 0b 7f
        E 0 92 2e 7f
        E 80 82 2e 00
        E 0 b2 0b 7f
        E 0 92 2f 7f
        E 128 82 2f 00
        E 0 b2 0b 7f
        E 0 92 30 7f
        E 80 82 30 00
        E 0 b2 0b 7f
        E 0 92 31 7f
        E 80 82 31 00
        E 0 b2 0b 7f
        E 0 92 32 7f
        E 80 82 32 00
        E 0 b2 0b 7f
        E 0 92 33 7f
        E 80 82 33 00
        E 0 b2 0b 7f
        E 0 92 34 7f
        E 64 82 34 00
        E 0 b2 0b 7f
        E 0 92 29 7f
        E 960 82 29 00
        E 0 b2 0b 7f
        E 0 92 24 7f
        E 944 82 24 00
        E 0 b2 0b 7f
        E 0 92 29 7f
        E 960 82 29 00
        E 0 b2 0b 7f
        E 0 92 24 7f
        E 944 82 24 00
        E 0 b2 0b 7f
        E 0 92 2e 7f
        E 3440 82 2e 00
        E 0 b2 0b 7f
        E 0 92 2d 7f
        E 128 82 2d 00
        E 0 b2 0b 7f
        E 0 92 2b 7f
        E 112 82 2b 00
        E 0 b2 0b 7f
        E 0 92 29 7f
        E 112 82 29 00
        E 0 b2 0b 7f
        E 0 92 26 7f
        E 480 82 26 00
        E 0 b2 0b 7f
        E 0 92 29 7f
        E 480 82 29 00
        E 0 b2 0b 7f
        E 0 92 2b 7f
        E 352 82 2b 00
        E 0 b2 0b 7f
        E 0 92 2d 7f
        E 592 82 2d 00
        E 0 b2 0b 7f
        E 0 92 26 7f
        E 480 82 26 00
        E 0 b2 0b 7f
        E 0 92 29 7f
        E 464 82 29 00
        E 0 b2 0b 7f
        E 0 92 2b 7f
        E 368 82 2b 00
        E 0 b2 0b 7f
        E 0 92 2d 7f
        E 592 82 2d 00
        E 0 b2 0b 7f
        E 0 92 26 7f
        E 480 82 26 00
        E 0 b2 0b 7f
        E 0 92 29 7f
        E 464 82 29 00
        E 0 b2 0b 7f
        E 0 92 2b 7f
        E 352 82 2b 00
        E 0 b2 0b 7f
        E 0 92 2d 7f
        E 608 82 2d 00
        E 0 b2 0b 7f
        E 0 92 26 7f
        E 464 82 26 00
        E 0 b2 0b 7f
        E 0 92 29 7f
        E 368 82 29 00
        E 0 b2 0b 7f
        E 0 92 2e 7f
        E 1056 82 2e 00
        E 0 b2 0b 7f
        E 0 92 26 7f
        E 480 82 26 00
        E 0 b2 0b 7f
        E 0 92 29 7f
        E 480 82 29 00
        E 0 b2 0b 7f
        E 0 92 2b 7f
        E 352 82 2b 00
        E 0 b2 0b 7f
        E 0 92 2d 7f
        E 592 82 2d 00
        E 0 b2 0b 7f
        E 0 92 26 7f
        E 480 82 26 00
        E 0 b2 0b 7f
        E 0 92 29 7f
        E 464 82 29 00
        E 0 b2 0b 7f
        E 0 92 2b 7f
        E 368 82 2b 00
        E 0 b2 0b 7f
        E 0 92 2d 7f
        E 592 82 2d 00
        E 0 b2 0b 7f
        E 0 92 26 7f
        E 464 82 26 00
        E 0 b2 0b 7f
        E 0 92 29 7f
        E 480 82 29 00
        E 0 b2 0b 7f
        E 0 92 2b 7f
        E 352 82 2b 00
        E 0 b2 0b 7f
        E 0 92 2d 7f
        E 592 82 2d 00
        E 0 b2 0b 7f
        E 0 92 26 7f
        E 480 82 26 00
        E 0 b2 0b 7f
        E 0 92 29 7f
        E 352 82 29 00
        E 0 b2 0b 7f
        E 0 92 2e 7f
        E 2032 82 2e 00
        E 0 b2 0b 7f
        E 0 92 32 7f
        E 944 82 32 00
        E 0 b2 0b 7f
        E 0 92 2d 7f
        E 944 82 2d 00
        E 0 b2 0b 7f
        E 0 92 2f 7f
        E 960 82 2f 00
        E 0 b2 0b 7f
        E 0 92 28 7f
        E 464 82 28 00
        E 0 b2 0b 7f
        E 0 92 2d 7f
        E 480 82 2d 00
        E 0 b2 0b 7f
        E 0 92 32 7f
        E 944 82 32 00
        E 0 b2 0b 7f
        E 0 92 2d 7f
        E 960 82 2d 00
        E 0 b2 0b 7f
        E 0 92 2f 7f
        E 944 82 2f 00
        E 0 b2 0b 7f
        E 0 92 29 7f
        E 720 82 29 00
        E 0 b2 0b 7f
        E 0 92 2b 7f
        E 224 82 2b 00
        E 0 b2 0b 7f
        E 0 92 32 7f
        E 960 82 32 00
        E 0 b2 0b 7f
        E 0 92 2d 7f
        E 944 82 2d 00
        E 0 b2 0b 7f
        E 0 92 2f 7f
        E 960 82 2f 00
        E 0 b2 0b 7f
        E 0 92 28 7f
        E 464 82 28 00
        E 0 b2 0b 7f
        E 0 92 2d 7f
        E 480 82 2d 00
        E 0 b2 0b 7f
        E 0 92 32 7f
        E 944 82 32 00
        E 0 b2 0b 7f
        E 0 92 2d 7f
        E 960 82 2d 00
        E 0 b2 0b 7f
        E 0 92 2f 7f
        E 944 82 2f 00
        E 0 b2 0b 7f
        E 0 92 29 7f
        E 720 82 29 00
        E 0 b2 0b 7f
        E 0 92 2b 7f
        E 224 82 2b 00
        E 0 b2 0b 7f
        E 0 92 2e 7f
        E 3456 82 2e 00
        E 0 b2 0b 7f
        E 0 92 2d 7f
        E 112 82 2d 00
        E 0 b2 0b 7f
        E 0 92 2b 7f
        E 112 82 2b 00
        E 0 b2 0b 7f
        E 0 92 29 7f
        E 128 82 29 00
        E 0 b2 0b 7f
        E 0 92 26 7f
        E 464 82 26 00
        E 0 b2 0b 7f
        E 0 92 29 7f
        E 480 82 29 00
        E 0 b2 0b 7f
        E 0 92 2b 7f
        E 352 82 2b 00
        E 0 b2 0b 7f
        E 0 92 2d 7f
        E 608 82 2d 00
        E 0 b2 0b 7f
        E 0 92 26 7f
        E 464 82 26 00
        E 0 b2 0b 7f
        E 0 92 29 7f
        E 480 82 29 00
        E 0 b2 0b 7f
        E 0 92 2b 7f
        E 352 82 2b 00
        E 0 b2 0b 7f
        E 0 92 2d 7f
        E 592 82 2d 00
        E 0 b2 0b 7f
        E 0 92 26 7f
        E 480 82 26 00
        E 0 b2 0b 7f
        E 0 92 29 7f
        E 480 82 29 00
        E 0 b2 0b 7f
        E 0 92 2b 7f
        E 352 82 2b 00
        E 0 b2 0b 7f
        E 0 92 2d 7f
        E 592 82 2d 00
        E 0 b2 0b 7f
        E 0 92 26 7f
        E 480 82 26 00
        E 0 b2 0b 7f
        E 0 92 29 7f
        E 352 82 29 00
        E 0 b2 0b 7f
        E 0 92 2e 7f
        E 1072 82 2e 00
        E 0 b2 0b 7f
        E 0 92 26 7f
        E 464 82 26 00
        E 0 b2 0b 7f
        E 0 92 29 7f
        E 480 82 29 00
        E 0 b2 0b 7f
        E 0 92 2b 7f
        E 352 82 2b 00
        E 0 b2 0b 7f
        E 0 92 2d 7f
        E 592 82 2d 00
        E 0 b2 0b 7f
        E 0 92 26 7f
        E 480 82 26 00
        E 0 b2 0b 7f
        E 0 92 29 7f
        E 480 82 29 00
        E 0 b2 0b 7f
        E 0 92 2b 7f
        E 352 82 2b 00
        E 0 b2 0b 7f
        E 0 92 2d 7f
        E 592 82 2d 00
        E 0 b2 0b 7f
        E 0 92 26 7f
        E 480 82 26 00
        E 0 b2 0b 7f
        E 0 92 29 7f
        E 480 82 29 00
        E 0 b2 0b 7f
        E 0 92 2b 7f
        E 352 82 2b 00
        E 0 b2 0b 7f
        E 0 92 2d 7f
        E 592 82 2d 00
        E 0 b2 0b 7f
        E 0 92 26 7f
        E 480 82 26 00
        E 0 b2 0b 7f
        E 0 92 29 7f
        E 352 82 29 00
        E 0 b2 0b 7f
        E 0 92 2e 7f
        E 2016 82 2e 00
        E 0 b2 0b 7f
        E 0 92 32 7f
        E 944 82 32 00
        E 0 b2 0b 7f
        E 0 92 2d 7f
        E 960 82 2d 00
        E 0 b2 0b 7f
        E 0 92 2f 7f
        E 944 82 2f 00
        E 0 b2 0b 7f
        E 0 92 28 7f
        E 480 82 28 00
        E 0 b2 0b 7f
        E 0 92 2d 7f
        E 464 82 2d 00
        E 0 b2 0b 7f
        E 0 92 32 7f
        E 960 82 32 00
        E 0 b2 0b 7f
        E 0 92 2d 7f
        E 944 82 2d 00
        E 0 b2 0b 7f
        E 0 92 2f 7f
        E 944 82 2f 00
        E 0 b2 0b 7f
        E 0 92 29 7f
        E 720 82 29 00
        E 0 b2 0b 7f
        E 0 92 2b 7f
        E 240 82 2b 00
        E 0 b2 0b 7f
        E 0 92 32 7f
        E 944 82 32 00
        E 0 b2 0b 7f
        E 0 92 2d 7f
        E 960 82 2d 00
        E 0 b2 0b 7f
        E 0 92 2f 7f
        E 944 82 2f 00
        E 0 b2 0b 7f
        E 0 92 28 7f
        E 480 82 28 00
        E 0 b2 0b 7f
        E 0 92 2d 7f
        E 464 82 2d 00
        E 0 b2 0b 7f
        E 0 92 32 7f
        E 960 82 32 00
        E 0 b2 0b 7f
        E 0 92 2d 7f
        E 944 82 2d 00
        E 0 b2 0b 7f
        E 0 92 2f 7f
        E 944 82 2f 00
        E 0 b2 0b 7f
        E 0 92 29 7f
        E 720 82 29 00
        E 0 b2 0b 7f
        E 0 92 2b 7f
        E 240 82 2b 00
        E 0 b2 0b 7f
        E 0 92 2e 7f
        E 3440 82 2e 00
        E 0 b2 0b 7f
        E 0 92 2d 7f
        E 112 82 2d 00
        E 0 b2 0b 7f
        E 0 92 2b 7f
        E 128 82 2b 00
        E 0 b2 0b 7f
        E 0 92 29 7f
        E 112 82 29 00
        E 0 b2 0b 7f
        E 0 92 26 7f
        E 480 82 26 00
        E 0 b2 0b 7f
        E 0 92 29 7f
        E 480 82 29 00
        E 0 b2 0b 7f
        E 0 92 2b 7f
        E 352 82 2b 00
        E 0 b2 0b 7f
        E 0 92 2d 7f
        E 592 82 2d 00
        E 0 b2 0b 7f
        E 0 92 26 7f
        E 480 82 26 00
        E 0 b2 0b 7f
        E 0 92 29 7f
        E 464 82 29 00
        E 0 b2 0b 7f
        E 0 92 2b 7f
        E 368 82 2b 00
        E 0 b2 0b 7f
        E 0 92 2d 7f
        E 592 82 2d 00
        E 0 b2 0b 7f
        E 0 92 26 7f
        E 464 82 26 00
        E 0 b2 0b 7f
        E 0 92 29 7f
        E 480 82 29 00
        E 0 b2 0b 7f
        E 0 92 2b 7f
        E 352 82 2b 00
        E 0 b2 0b 7f
        E 0 92 2d 7f
        E 592 82 2d 00
        E 0 b2 0b 7f
        E 0 92 26 7f
        E 480 82 26 00
        E 0 b2 0b 7f
        E 0 92 29 7f
        E 352 82 29 00
        E 0 b2 0b 7f
        E 0 92 2e 7f
        E 80 82 2e 00
        E 0 ff 2f 00
      >
    >
  >
  <TRACK {01390224-2554-4B38-AA73-819321603641}
    NAME "NES - Noise / Drums [ch3]"
    PEAKCOL 11184810
    BEAT -1
    AUTOMODE 0
    PANLAWFLAGS 3
    VOLPAN 1 0 -1 -1 1
    MUTESOLO 0 0 0
    IPHASE 0
    PLAYOFFS 0 1
    ISBUS 0 0
    BUSCOMP 0 0 0 0 0
    SHOWINMIX 1 0.6667 0.5 1 0.5 0 0 0
    FIXEDLANES 9 0 0 0 0
    SEL 0
    REC 0 5088 1 0 0 0 0 0
    VU 2
    TRACKHEIGHT 0 0 0 0 0 0 0
    INQ 0 0 0 0.5 100 0 0 100
    NCHAN 2
    FX 1
    TRACKID {01390224-2554-4B38-AA73-819321603641}
    PERF 0
    MIDIOUT -1
    MAINSEND 1 0
    <FXCHAIN
      WNDRECT 24 52 700 560
      SHOW 0
      LASTSEL 0
      DOCKED 0
      BYPASS 0 0 0
      <JS "ReapNES Studio/ReapNES_Console.jsfx" ""
        2 15 1 10 80 10 100 2 1 15 1 5 60 10 80 1 1 0 50 0 0 15 1 0 100 0 0 0.500000 0.500000 0.400000 0.300000 0.800000 3 1 0 0 0 0 - - - - - - - - - - - - - - - - - - - - - - - - - -
      >
      FLOATPOS 0 0 0 0
      FXID {7919C921-4CBA-4223-8FA0-9B9930428582}
      WAK 0 0
    >
    <ITEM
      POSITION 0
      LENGTH 83.98134
      LOOP 0
      ALLTAKES 0
      FADEIN 0 0 0 0 0 0 0
      FADEOUT 0 0 0 0 0 0 0
      MUTE 0 0
      SEL 0
      IGUID {4A19D211-F9D8-42AF-9D60-22B7316998A2}
      <SOURCE MIDI
        HASDATA 1 480 QN
        CCINTERP 32
        E 16 93 26 18
        E 6144 83 26 00
        E 240 93 26 08
        E 704 83 26 00
        E 240 93 26 08
        E 704 83 26 00
        E 240 93 26 08
        E 240 83 26 00
        E 64 93 2a 28
        E 1120 83 2a 00
        E 240 93 26 08
        E 720 83 26 00
        E 240 93 26 08
        E 704 83 26 00
        E 240 93 26 08
        E 704 83 26 00
        E 240 93 26 08
        E 720 83 26 00
        E 240 93 26 08
        E 704 83 26 00
        E 240 93 26 08
        E 720 83 26 00
        E 224 93 26 08
        E 720 83 26 00
        E 240 93 26 08
        E 704 83 26 00
        E 240 93 26 08
        E 720 83 26 00
        E 224 93 26 08
        E 720 83 26 00
        E 240 93 26 08
        E 704 83 26 00
        E 240 93 26 08
        E 720 83 26 00
        E 240 93 26 08
        E 704 83 26 00
        E 240 93 26 08
        E 704 83 26 00
        E 240 93 26 08
        E 720 83 26 00
        E 240 93 26 08
        E 224 83 26 00
        E 64 93 2a 28
        E 1136 83 2a 00
        E 240 93 26 08
        E 704 83 26 00
        E 240 93 26 08
        E 704 83 26 00
        E 240 93 26 08
        E 720 83 26 00
        E 240 93 26 08
        E 704 83 26 00
        E 240 93 26 08
        E 720 83 26 00
        E 224 93 26 08
        E 720 83 26 00
        E 240 93 26 08
        E 704 83 26 00
        E 240 93 26 08
        E 720 83 26 00
        E 224 93 26 08
        E 720 83 26 00
        E 240 93 26 08
        E 704 83 26 00
        E 240 93 26 08
        E 720 83 26 00
        E 240 93 26 08
        E 704 83 26 00
        E 240 93 26 08
        E 704 83 26 00
        E 240 93 26 08
        E 720 83 26 00
        E 240 93 26 08
        E 224 83 26 00
        E 64 93 2a 28
        E 1136 83 2a 00
        E 224 93 26 08
        E 720 83 26 00
        E 240 93 26 08
        E 704 83 26 00
        E 240 93 26 08
        E 240 83 26 00
        E 64 93 2a 28
        E 1120 83 2a 00
        E 240 93 26 08
        E 720 83 26 00
        E 224 93 26 08
        E 720 83 26 00
        E 240 93 26 08
        E 704 83 26 00
        E 240 93 26 08
        E 720 83 26 00
        E 240 93 26 08
        E 704 83 26 00
        E 240 93 26 08
        E 704 83 26 00
        E 240 93 26 08
        E 720 83 26 00
        E 240 93 26 08
        E 704 83 26 00
        E 240 93 26 08
        E 720 83 26 00
        E 224 93 26 08
        E 720 83 26 00
        E 240 93 26 08
        E 704 83 26 00
        E 240 93 26 08
        E 720 83 26 00
        E 224 93 26 08
        E 720 83 26 00
        E 240 93 26 08
        E 704 83 26 00
        E 240 93 26 08
        E 720 83 26 00
        E 240 93 26 08
        E 224 83 26 00
        E 64 93 2a 28
        E 1136 83 2a 00
        E 224 93 26 08
        E 720 83 26 00
        E 240 93 26 08
        E 704 83 26 00
        E 240 93 26 08
        E 720 83 26 00
        E 240 93 26 08
        E 704 83 26 00
        E 240 93 26 08
        E 704 83 26 00
        E 240 93 26 08
        E 720 83 26 00
        E 240 93 26 08
        E 704 83 26 00
        E 240 93 26 08
        E 704 83 26 00
        E 240 93 26 08
        E 720 83 26 00
        E 240 93 26 08
        E 704 83 26 00
        E 240 93 26 08
        E 720 83 26 00
        E 224 93 26 08
        E 720 83 26 00
        E 240 93 26 08
        E 704 83 26 00
        E 240 93 26 08
        E 720 83 26 00
        E 224 93 26 08
        E 240 83 26 00
        E 64 93 2a 28
        E 1136 83 2a 00
        E 224 93 26 08
        E 720 83 26 00
        E 240 93 26 08
        E 704 83 26 00
        E 240 93 26 08
        E 240 83 26 00
        E 64 93 2a 28
        E 1120 83 2a 00
        E 240 93 26 08
        E 720 83 26 00
        E 224 93 26 08
        E 720 83 26 00
        E 240 93 26 08
        E 704 83 26 00
        E 240 93 26 08
        E 720 83 26 00
        E 224 93 26 08
        E 720 83 26 00
        E 240 93 26 08
        E 704 83 26 00
        E 240 93 26 08
        E 720 83 26 00
        E 240 93 26 08
        E 704 83 26 00
        E 0 ff 2f 00
      >
    >
  >
>