<REAPER_PROJECT 0.1 "7.27/win64" 1707000000
  <NOTES 0 2
    |ReapNES Studio Project
    |MIDI Import - Battletoads_03_Song_3_v1
  >
  RIPPLE 0
  GROUPOVERRIDE 0 0 0
  AUTOXFADE 129
  ENVATTACH 3
  POOLEDENVATTACH 0
  MIXERUIFLAGS 11 48
  ENVFADESZ10 40
  PEAKGAIN 1
  FEEDBACK 0
  PANLAW 1
  PROJOFFS 0 0 0
  MAXPROJLEN 0 0
  GRID 3199 8 1 8 1 0 0 0
  TIMEMODE 1 5 -1 30 0 0 -1
  VIDEO_CONFIG 0 0 65792
  PANMODE 3
  PANLAWFLAGS 3
  CURSOR 0
  ZOOM 100 0 0
  VZOOMEX 6 0
  USE_REC_CFG 0
  RECMODE 1
  SMPTESYNC 0 30 100 40 1000 300 0 0 1 0 0
  LOOP 0
  LOOPGRAN 0 4
  RECORD_PATH "Media" ""
  <RECORD_CFG
    ZXZhdxgAAQ==
  >
  <APPLYFX_CFG
  >
  RENDER_FILE ""
  RENDER_PATTERN ""
  RENDER_FMT 0 2 0
  RENDER_1X 0
  RENDER_RANGE 1 0 0 18 1000
  RENDER_RESAMPLE 3 0 1
  RENDER_ADDTOPROJ 0
  RENDER_STEMS 0
  RENDER_DITHER 0
  TIMELOCKMODE 1
  TEMPOENVLOCKMODE 1
  ITEMMIX 1
  DEFPITCHMODE 589824 0
  TAKELANE 1
  SAMPLERATE 44100 0 0
  <RENDER_CFG
    ZXZhdxgAAQ==
  >
  LOCK 1
  <METRONOME 6 2
    VOL 0.25 0.125
    BEATLEN 4
    FREQ 1760 880 1
    SAMPLES "" ""
    SPLIGNORE 0 0
    SPLDEF 2 660 "" 0
    SPLDEF 3 440 "" 0
    PATTERN 0 169
    PATTERNSTR ABBB
    MULT 1
  >
  GLOBAL_AUTO -1
  TEMPO 128.59999614200012 4 4
  PLAYRATE 1 0 0.25 4
  SELECTION 0 0
  SELECTION2 0 0
  MASTERAUTOMODE 0
  MASTERTRACKHEIGHT 0 0
  MASTERPEAKCOL 16576
  MASTERMUTESOLO 0
  MASTERTRACKVIEW 0 0.6667 0.5 0.5 0 0 0 0 0 0 0 0 0 0
  MASTERHWOUT 0 0 1 0 0 0 0 -1
  MASTER_NCH 2 2
  MASTER_VOLUME 1 0 -1 -1 1
  MASTER_PANMODE 3
  MASTER_PANLAWFLAGS 3
  MASTER_FX 1
  MASTER_SEL 0
  <MASTERPLAYSPEEDENV
    EGUID {55555C36-BD05-471B-AE71-DD39F91C8216}
    ACT 0 -1
    VIS 0 1 1
    LANEHEIGHT 0 0
    ARM 0
    DEFSHAPE 0 -1 -1
  >
  <TEMPOENVEX
    EGUID {1EEF19D6-E9E9-4220-82BC-564B50033529}
    ACT 1 -1
    VIS 1 0 1
    LANEHEIGHT 0 0
    ARM 0
    DEFSHAPE 1 -1 -1
  >
  <PROJBAY
  >
  <TRACK {CA9A03C6-E6DA-4E83-989A-6A93F4565B53}
    NAME "NES - Pulse 1 [ch0]"
    PEAKCOL 16576606
    BEAT -1
    AUTOMODE 0
    PANLAWFLAGS 3
    VOLPAN 1 0 -1 -1 1
    MUTESOLO 0 0 0
    IPHASE 0
    PLAYOFFS 0 1
    ISBUS 0 0
    BUSCOMP 0 0 0 0 0
    SHOWINMIX 1 0.6667 0.5 1 0.5 0 0 0
    FIXEDLANES 9 0 0 0 0
    SEL 1
    REC 0 5088 1 0 0 0 0 0
    VU 2
    TRACKHEIGHT 0 0 0 0 0 0 0
    INQ 0 0 0 0.5 100 0 0 100
    NCHAN 2
    FX 1
    TRACKID {CA9A03C6-E6DA-4E83-989A-6A93F4565B53}
    PERF 0
    MIDIOUT -1
    MAINSEND 1 0
    <FXCHAIN
      WNDRECT 24 52 700 560
      SHOW 0
      LASTSEL 0
      DOCKED 0
      BYPASS 0 0 0
      <JS "ReapNES Studio/ReapNES_Console.jsfx" ""
        2 15 1 10 80 10 100 2 1 15 1 5 60 10 80 1 1 0 50 0 0 15 1 0 100 0 0 0.500000 0.500000 0.400000 0.300000 0.800000 0 1 0 0 0 0 - - - - - - - - - - - - - - - - - - - - - - - - - -
      >
      FLOATPOS 0 0 0 0
      FXID {6CBA59F1-6ADA-47BA-9980-8109D0714FAB}
      WAK 0 0
    >
    <ITEM
      POSITION 0
      LENGTH 83.98134
      LOOP 0
      ALLTAKES 0
      FADEIN 0 0 0 0 0 0 0
      FADEOUT 0 0 0 0 0 0 0
      MUTE 0 0
      SEL 0
      IGUID {AB5AA7EF-DCB5-4FBE-B2F7-3FB374A54AC3}
      <SOURCE MIDI
        HASDATA 1 480 QN
        CCINTERP 32
        E 0 c0 50
        E 80 b0 0c 10
        E 0 b0 0b 30
        E 0 90 26 30
        E 96 b0 0b 10
        E 96 b0 0b 30
        E 0 80 26 00
        E 0 90 21 30
        E 96 b0 0b 10
        E 0 80 21 00
        E 0 90 26 10
        E 96 b0 0b 30
        E 96 b0 0b 10
        E 0 80 26 00
        E 0 90 21 10
        E 96 b0 0b 30
        E 0 80 21 00
        E 0 90 1f 30
        E 96 b0 0b 10
        E 0 80 1f 00
        E 0 90 26 10
        E 80 b0 0b 18
        E 96 b0 0b 08
        E 0 80 26 00
        E 0 90 1f 08
        E 96 b0 0b 18
        E 0 80 1f 00
        E 0 90 21 18
        E 96 b0 0b 08
        E 0 80 21 00
        E 0 90 26 08
        E 96 b0 0b 18
        E 96 b0 0b 08
        E 0 80 26 00
        E 0 90 21 08
        E 96 b0 0b 18
        E 0 80 21 00
        E 0 90 1f 18
        E 96 b0 0b 08
        E 0 80 1f 00
        E 0 90 26 08
        E 96 b0 0b 30
        E 80 b0 0b 10
        E 96 b0 0b 30
        E 0 80 26 00
        E 0 90 21 30
        E 96 b0 0b 10
        E 0 80 21 00
        E 0 90 26 10
        E 96 b0 0b 30
        E 96 b0 0b 10
        E 0 80 26 00
        E 0 90 21 10
        E 96 b0 0b 30
        E 0 80 21 00
        E 0 90 1f 30
        E 96 b0 0b 10
        E 0 80 1f 00
        E 0 90 26 10
        E 96 b0 0b 18
        E 96 b0 0b 08
        E 0 80 26 00
        E 0 90 1f 08
        E 80 b0 0b 18
        E 0 80 1f 00
        E 0 90 21 18
        E 96 b0 0b 08
        E 0 80 21 00
        E 0 90 26 08
        E 96 b0 0b 18
        E 96 b0 0b 08
        E 0 80 26 00
        E 0 90 21 08
        E 96 b0 0b 18
        E 0 80 21 00
        E 0 90 1f 18
        E 96 b0 0b 08
        E 0 80 1f 00
        E 0 90 26 08
        E 96 b0 0b 30
        E 96 b0 0b 10
        E 80 b0 0b 30
        E 0 80 26 00
        E 0 90 21 30
        E 96 b0 0b 10
        E 0 80 21 00
        E 0 90 26 10
        E 96 b0 0b 30
        E 96 b0 0b 10
        E 0 80 26 00
        E 0 90 21 10
        E 96 b0 0b 30
        E 0 80 21 00
        E 0 90 1f 30
        E 96 b0 0b 10
        E 0 80 1f 00
        E 0 90 26 10
        E 96 b0 0b 18
        E 96 b0 0b 08
        E 0 80 26 00
        E 0 90 1f 08
        E 96 b0 0b 18
        E 0 80 1f 00
        E 0 90 21 18
        E 80 b0 0b 08
        E 0 80 21 00
        E 0 90 26 08
        E 96 b0 0b 18
        E 96 b0 0b 08
        E 0 80 26 00
        E 0 90 21 08
        E 96 b0 0b 18
        E 0 80 21 00
        E 0 90 1f 18
        E 96 b0 0b 08
        E 0 80 1f 00
        E 0 90 26 08
        E 96 b0 0b 30
        E 96 b0 0b 10
        E 96 b0 0b 30
        E 0 80 26 00
        E 0 90 21 30
        E 96 b0 0b 10
        E 0 80 21 00
        E 0 90 26 10
        E 80 b0 0b 30
        E 96 b0 0b 10
        E 0 80 26 00
        E 0 90 21 10
        E 96 b0 0b 30
        E 0 80 21 00
        E 0 90 1f 30
        E 96 b0 0b 10
        E 0 80 1f 00
        E 0 90 26 10
        E 96 b0 0b 18
        E 96 b0 0b 08
        E 0 80 26 00
        E 0 90 1f 08
        E 96 b0 0b 18
        E 0 80 1f 00
        E 0 90 21 18
        E 96 b0 0b 08
        E 0 80 21 00
        E 0 90 26 08
        E 80 b0 0b 18
        E 96 b0 0b 08
        E 0 80 26 00
        E 0 90 21 08
        E 96 b0 0b 18
        E 0 80 21 00
        E 0 90 1f 18
        E 96 b0 0b 08
        E 0 80 1f 00
        E 0 90 26 08
        E 96 b0 0b 30
        E 96 b0 0b 10
        E 96 b0 0b 30
        E 0 80 26 00
        E 0 90 21 30
        E 96 b0 0b 10
        E 0 80 21 00
        E 0 90 26 10
        E 96 b0 0b 30
        E 80 b0 0b 10
        E 0 80 26 00
        E 0 90 21 10
        E 96 b0 0b 30
        E 0 80 21 00
        E 0 90 1f 30
        E 96 b0 0b 10
        E 0 80 1f 00
        E 0 90 26 10
        E 96 b0 0b 18
        E 96 b0 0b 08
        E 0 80 26 00
        E 0 90 1f 08
        E 96 b0 0b 18
        E 0 80 1f 00
        E 0 90 21 18
        E 96 b0 0b 08
        E 0 80 21 00
        E 0 90 26 08
        E 96 b0 0b 18
        E 96 b0 0b 08
        E 0 80 26 00
        E 0 90 21 08
        E 80 b0 0b 18
        E 0 80 21 00
        E 0 90 1f 18
        E 96 b0 0b 08
        E 0 80 1f 00
        E 0 90 26 08
        E 96 b0 0b 30
        E 96 b0 0b 10
        E 96 b0 0b 30
        E 0 80 26 00
        E 0 90 21 30
        E 96 b0 0b 10
        E 0 80 21 00
        E 0 90 26 10
        E 96 b0 0b 30
        E 96 b0 0b 10
        E 0 80 26 00
        E 0 90 21 10
        E 80 b0 0b 30
        E 0 80 21 00
        E 0 90 1f 30
        E 96 b0 0b 10
        E 0 80 1f 00
        E 0 90 26 10
        E 96 b0 0b 18
        E 96 b0 0b 08
        E 0 80 26 00
        E 0 90 1f 08
        E 96 b0 0b 18
        E 0 80 1f 00
        E 0 90 21 18
        E 96 b0 0b 08
        E 0 80 21 00
        E 0 90 26 08
        E 96 b0 0b 18
        E 96 b0 0b 08
        E 0 80 26 00
        E 0 90 21 08
        E 96 b0 0b 18
        E 0 80 21 00
        E 0 90 1f 18
        E 80 b0 0b 08
        E 0 80 1f 00
        E 0 90 26 08
        E 96 b0 0b 30
        E 96 b0 0b 10
        E 96 b0 0b 30
        E 0 80 26 00
        E 0 90 21 30
        E 96 b0 0b 10
        E 0 80 21 00
        E 0 90 26 10
        E 96 b0 0b 30
        E 96 b0 0b 10
        E 0 80 26 00
        E 0 90 21 10
        E 96 b0 0b 30
        E 0 80 21 00
        E 0 90 1f 30
        E 96 b0 0b 10
        E 0 80 1f 00
        E 0 90 26 10
        E 80 b0 0b 18
        E 96 b0 0b 08
        E 0 80 26 00
        E 0 90 1f 08
        E 96 b0 0b 18
        E 0 80 1f 00
        E 0 90 21 18
        E 96 b0 0b 08
        E 0 80 21 00
        E 0 90 26 08
        E 96 b0 0b 18
        E 96 b0 0b 08
        E 0 80 26 00
        E 0 90 21 08
        E 96 b0 0b 18
        E 0 80 21 00
        E 0 90 1f 18
        E 96 b0 0b 08
        E 0 80 1f 00
        E 0 90 26 08
        E 96 b0 0b 30
        E 80 b0 0b 10
        E 96 b0 0b 30
        E 0 80 26 00
        E 0 90 21 30
        E 96 b0 0b 10
        E 0 80 21 00
        E 0 90 26 10
        E 96 b0 0b 30
        E 96 b0 0b 10
        E 0 80 26 00
        E 0 90 21 10
        E 96 b0 0b 30
        E 0 80 21 00
        E 0 90 1f 30
        E 96 b0 0b 10
        E 0 80 1f 00
        E 0 90 26 10
        E 96 b0 0b 18
        E 80 b0 0b 08
        E 0 80 26 00
        E 0 90 1f 08
        E 96 b0 0b 18
        E 0 80 1f 00
        E 0 90 21 18
        E 96 b0 0b 08
        E 0 80 21 00
        E 0 90 26 08
        E 96 b0 0b 18
        E 96 b0 0b 08
        E 0 80 26 00
        E 0 90 21 08
        E 96 b0 0b 18
        E 0 80 21 00
        E 0 90 1f 18
        E 96 b0 0b 08
        E 0 80 1f 00
        E 0 90 26 08
        E 96 b0 0b 30
        E 96 b0 0b 10
        E 80 b0 0b 30
        E 0 80 26 00
        E 0 90 21 30
        E 96 b0 0b 10
        E 0 80 21 00
        E 0 90 26 10
        E 96 b0 0b 30
        E 96 b0 0b 10
        E 0 80 26 00
        E 0 90 21 10
        E 96 b0 0b 30
        E 0 80 21 00
        E 0 90 1f 30
        E 96 b0 0b 10
        E 0 80 1f 00
        E 0 90 26 10
        E 96 b0 0b 18
        E 96 b0 0b 08
        E 0 80 26 00
        E 0 90 1f 08
        E 96 b0 0b 18
        E 0 80 1f 00
        E 0 90 21 18
        E 80 b0 0b 08
        E 0 80 21 00
        E 0 90 26 08
        E 96 b0 0b 18
        E 96 b0 0b 08
        E 0 80 26 00
        E 0 90 21 08
        E 96 b0 0b 18
        E 0 80 21 00
        E 0 90 1f 18
        E 96 b0 0b 08
        E 0 80 1f 00
        E 0 90 26 08
        E 96 b0 0b 30
        E 96 b0 0b 10
        E 96 b0 0b 30
        E 0 80 26 00
        E 0 90 21 30
        E 80 b0 0b 10
        E 0 80 21 00
        E 0 90 26 10
        E 96 b0 0b 30
        E 96 b0 0b 10
        E 0 80 26 00
        E 0 90 21 10
        E 96 b0 0b 30
        E 0 80 21 00
        E 0 90 1f 30
        E 96 b0 0b 10
        E 0 80 1f 00
        E 0 90 26 10
        E 96 b0 0b 18
        E 96 b0 0b 08
        E 0 80 26 00
        E 0 90 1f 08
        E 96 b0 0b 18
        E 0 80 1f 00
        E 0 90 21 18
        E 96 b0 0b 08
        E 0 80 21 00
        E 0 90 26 08
        E 80 b0 0b 18
        E 96 b0 0b 08
        E 0 80 26 00
        E 0 90 21 08
        E 96 b0 0b 18
        E 0 80 21 00
        E 0 90 1f 18
        E 96 b0 0b 08
        E 0 80 1f 00
        E 0 90 26 08
        E 96 b0 0b 30
        E 96 b0 0b 10
        E 96 b0 0b 30
        E 0 80 26 00
        E 0 90 21 30
        E 96 b0 0b 10
        E 0 80 21 00
        E 0 90 26 10
        E 96 b0 0b 30
        E 80 b0 0b 10
        E 0 80 26 00
        E 0 90 21 10
        E 96 b0 0b 30
        E 0 80 21 00
        E 0 90 1f 30
        E 96 b0 0b 10
        E 0 80 1f 00
        E 0 90 26 10
        E 96 b0 0b 18
        E 96 b0 0b 08
        E 0 80 26 00
        E 0 90 1f 08
        E 96 b0 0b 18
        E 0 80 1f 00
        E 0 90 21 18
        E 96 b0 0b 08
        E 0 80 21 00
        E 0 90 26 08
        E 96 b0 0b 18
        E 80 b0 0b 08
        E 0 80 26 00
        E 0 90 21 08
        E 96 b0 0b 18
        E 0 80 21 00
        E 0 90 1f 18
        E 96 b0 0b 08
        E 0 80 1f 00
        E 0 90 26 08
        E 96 b0 0b 30
        E 96 b0 0b 10
        E 96 b0 0b 30
        E 0 80 26 00
        E 0 90 21 30
        E 96 b0 0b 10
        E 0 80 21 00
        E 0 90 26 10
        E 96 b0 0b 30
        E 96 b0 0b 10
        E 0 80 26 00
        E 0 90 21 10
        E 80 b0 0b 30
        E 0 80 21 00
        E 0 90 1f 30
        E 96 b0 0b 10
        E 0 80 1f 00
        E 0 90 26 10
        E 96 b0 0b 18
        E 96 b0 0b 08
        E 0 80 26 00
        E 0 90 1f 08
        E 96 b0 0b 18
        E 0 80 1f 00
        E 0 90 21 18
        E 96 b0 0b 08
        E 0 80 21 00
        E 0 90 26 08
        E 96 b0 0b 18
        E 96 b0 0b 08
        E 0 80 26 00
        E 0 90 21 08
        E 96 b0 0b 18
        E 0 80 21 00
        E 0 90 1f 18
        E 80 b0 0b 08
        E 0 80 1f 00
        E 0 90 26 08
        E 96 b0 0b 30
        E 96 b0 0b 10
        E 96 b0 0b 30
        E 0 80 26 00
        E 0 90 21 30
        E 96 b0 0b 10
        E 0 80 21 00
        E 0 90 26 10
        E 96 b0 0b 30
        E 96 b0 0b 10
        E 0 80 26 00
        E 0 90 21 10
        E 96 b0 0b 30
        E 0 80 21 00
        E 0 90 1f 30
        E 96 b0 0b 10
        E 0 80 1f 00
        E 0 90 26 10
        E 80 b0 0b 18
        E 96 b0 0b 08
        E 0 80 26 00
        E 0 90 1f 08
        E 96 b0 0b 18
        E 0 80 1f 00
        E 0 90 21 18
        E 96 b0 0b 08
        E 0 80 21 00
        E 0 90 26 08
        E 96 b0 0b 18
        E 96 b0 0b 08
        E 0 80 26 00
        E 0 90 21 08
        E 96 b0 0b 18
        E 0 80 21 00
        E 0 90 1f 18
        E 96 b0 0b 08
        E 0 80 1f 00
        E 0 90 26 08
        E 80 b0 0b 30
        E 96 b0 0b 10
        E 96 b0 0b 30
        E 0 80 26 00
        E 0 90 21 30
        E 96 b0 0b 10
        E 0 80 21 00
        E 0 90 26 10
        E 96 b0 0b 30
        E 96 b0 0b 10
        E 0 80 26 00
        E 0 90 21 10
        E 96 b0 0b 30
        E 0 80 21 00
        E 0 90 1f 30
        E 96 b0 0b 10
        E 0 80 1f 00
        E 0 90 26 10
        E 96 b0 0b 18
        E 80 b0 0b 08
        E 0 80 26 00
        E 0 90 1f 08
        E 96 b0 0b 18
        E 0 80 1f 00
        E 0 90 21 18
        E 96 b0 0b 08
        E 0 80 21 00
        E 0 90 26 08
        E 96 b0 0b 18
        E 96 b0 0b 08
        E 0 80 26 00
        E 0 90 21 08
        E 96 b0 0b 18
        E 0 80 21 00
        E 0 90 1f 18
        E 96 b0 0b 08
        E 0 80 1f 00
        E 0 90 26 08
        E 96 80 26 00
        E 6016 b0 0b 30
        E 0 90 32 30
        E 96 b0 0b 10
        E 96 b0 0b 30
        E 0 80 32 00
        E 0 90 35 30
        E 96 b0 0b 10
        E 0 80 35 00
        E 0 90 32 10
        E 96 b0 0b 30
        E 96 b0 0b 10
        E 0 80 32 00
        E 0 90 35 10
        E 96 b0 0b 30
        E 0 80 35 00
        E 0 90 37 30
        E 80 b0 0b 10
        E 0 80 37 00
        E 0 90 32 10
        E 96 b0 0b 18
        E 96 b0 0b 08
        E 0 80 32 00
        E 0 90 37 08
        E 96 b0 0b 18
        E 0 80 37 00
        E 0 90 35 18
        E 96 b0 0b 08
        E 0 80 35 00
        E 0 90 32 08
        E 96 b0 0b 18
        E 96 b0 0b 08
        E 0 80 32 00
        E 0 90 35 08
        E 96 b0 0b 18
        E 0 80 35 00
        E 0 90 37 18
        E 96 b0 0b 08
        E 0 80 37 00
        E 0 90 32 08
        E 80 b0 0b 30
        E 96 b0 0b 10
        E 0 80 32 00
        E 0 90 37 10
        E 96 b0 0b 30
        E 0 80 37 00
        E 0 90 39 30
        E 96 b0 0b 10
        E 0 80 39 00
        E 0 90 32 10
        E 96 b0 0b 30
        E 96 b0 0b 10
        E 0 80 32 00
        E 0 90 39 10
        E 96 b0 0b 30
        E 0 80 39 00
        E 0 90 3a 30
        E 96 b0 0b 10
        E 0 80 3a 00
        E 0 90 32 10
        E 96 b0 0b 18
        E 80 b0 0b 08
        E 0 80 32 00
        E 0 90 3a 08
        E 96 b0 0b 18
        E 0 80 3a 00
        E 0 90 35 18
        E 96 b0 0b 08
        E 0 80 35 00
        E 0 90 32 08
        E 96 b0 0b 18
        E 96 b0 0b 08
        E 0 80 32 00
        E 0 90 39 08
        E 96 b0 0b 18
        E 0 80 39 00
        E 0 90 3a 18
        E 96 b0 0b 08
        E 0 80 3a 00
        E 0 90 32 08
        E 96 b0 0b 30
        E 0 80 32 00
        E 0 90 3e 30
        E 80 b0 0b 10
        E 0 80 3e 00
        E 0 90 3a 10
        E 96 b0 0b 30
        E 0 80 3a 00
        E 0 90 39 30
        E 96 b0 0b 10
        E 0 80 39 00
        E 0 90 3e 10
        E 96 b0 0b 30
        E 0 80 3e 00
        E 0 90 3c 30
        E 96 b0 0b 10
        E 0 80 3c 00
        E 0 90 39 10
        E 96 b0 0b 30
        E 0 80 39 00
        E 0 90 37 30
        E 96 b0 0b 10
        E 0 80 37 00
        E 0 90 3c 10
        E 96 b0 0b 18
        E 0 80 3c 00
        E 0 90 3e 18
        E 96 b0 0b 08
        E 0 80 3e 00
        E 0 90 37 08
        E 80 b0 0b 18
        E 0 80 37 00
        E 0 90 39 18
        E 96 b0 0b 08
        E 0 80 39 00
        E 0 90 3e 08
        E 96 b0 0b 18
        E 0 80 3e 00
        E 0 90 3c 18
        E 96 b0 0b 08
        E 0 80 3c 00
        E 0 90 39 08
        E 96 b0 0b 18
        E 0 80 39 00
        E 0 90 37 18
        E 96 b0 0b 08
        E 0 80 37 00
        E 0 90 3c 08
        E 96 b0 0b 30
        E 0 80 3c 00
        E 0 90 3a 30
        E 96 b0 0b 10
        E 0 80 3a 00
        E 0 90 37 10
        E 96 b0 0b 30
        E 0 80 37 00
        E 0 90 35 30
        E 80 b0 0b 10
        E 0 80 35 00
        E 0 90 3a 10
        E 96 b0 0b 30
        E 0 80 3a 00
        E 0 90 39 30
        E 96 b0 0b 10
        E 0 80 39 00
        E 0 90 35 10
        E 96 b0 0b 30
        E 0 80 35 00
        E 0 90 34 30
        E 96 b0 0b 10
        E 0 80 34 00
        E 0 90 39 10
        E 96 b0 0b 18
        E 0 80 39 00
        E 0 90 3a 18
        E 96 b0 0b 08
        E 0 80 3a 00
        E 0 90 34 08
        E 96 b0 0b 18
        E 0 80 34 00
        E 0 90 35 18
        E 80 b0 0b 08
        E 0 80 35 00
        E 0 90 3a 08
        E 96 b0 0b 18
        E 0 80 3a 00
        E 0 90 39 18
        E 96 b0 0b 08
        E 0 80 39 00
        E 0 90 35 08
        E 96 b0 0b 18
        E 0 80 35 00
        E 0 90 34 18
        E 96 b0 0b 08
        E 0 80 34 00
        E 0 90 39 08
        E 96 b0 0b 28
        E 0 80 39 00
        E 0 90 24 28
        E 1504 b0 0b 30
        E 0 80 24 00
        E 0 90 22 30
        E 96 b0 0b 10
        E 96 b0 0b 30
        E 0 80 22 00
        E 0 90 1d 30
        E 96 b0 0b 10
        E 0 80 1d 00
        E 0 90 22 10
        E 96 b0 0b 30
        E 96 b0 0b 10
        E 0 80 22 00
        E 0 90 1d 10
        E 80 b0 0b 30
        E 0 80 1d 00
        E 0 90 1b 30
        E 96 b0 0b 10
        E 0 80 1b 00
        E 0 90 22 10
        E 96 b0 0b 18
        E 96 b0 0b 08
        E 0 80 22 00
        E 0 90 1b 08
        E 96 b0 0b 18
        E 0 80 1b 00
        E 0 90 1d 18
        E 96 b0 0b 08
        E 0 80 1d 00
        E 0 90 22 08
        E 96 b0 0b 18
        E 96 b0 0b 08
        E 0 80 22 00
        E 0 90 1d 08
        E 80 b0 0b 18
        E 0 80 1d 00
        E 0 90 1b 18
        E 96 b0 0b 08
        E 0 80 1b 00
        E 0 90 22 08
        E 96 b0 0b 30
        E 96 b0 0b 10
        E 96 b0 0b 30
        E 0 80 22 00
        E 0 90 1d 30
        E 96 b0 0b 10
        E 0 80 1d 00
        E 0 90 22 10
        E 96 b0 0b 30
        E 96 b0 0b 10
        E 0 80 22 00
        E 0 90 1d 10
        E 96 b0 0b 30
        E 0 80 1d 00
        E 0 90 1b 30
        E 80 b0 0b 10
        E 0 80 1b 00
        E 0 90 22 10
        E 96 b0 0b 18
        E 96 b0 0b 08
        E 0 80 22 00
        E 0 90 1b 08
        E 96 b0 0b 18
        E 0 80 1b 00
        E 0 90 1d 18
        E 96 b0 0b 08
        E 0 80 1d 00
        E 0 90 22 08
        E 96 b0 0b 18
        E 96 b0 0b 08
        E 0 80 22 00
        E 0 90 1d 08
        E 96 b0 0b 18
        E 0 80 1d 00
        E 0 90 1b 18
        E 96 b0 0b 08
        E 0 80 1b 00
        E 0 90 22 08
        E 80 b0 0b 30
        E 96 b0 0b 10
        E 96 b0 0b 30
        E 0 80 22 00
        E 0 90 1d 30
        E 96 b0 0b 10
        E 0 80 1d 00
        E 0 90 22 10
        E 96 b0 0b 30
        E 96 b0 0b 10
        E 0 80 22 00
        E 0 90 1d 10
        E 96 b0 0b 30
        E 0 80 1d 00
        E 0 90 1b 30
        E 96 b0 0b 10
        E 0 80 1b 00
        E 0 90 22 10
        E 80 b0 0b 18
        E 96 b0 0b 08
        E 0 80 22 00
        E 0 90 1b 08
        E 96 b0 0b 18
        E 0 80 1b 00
        E 0 90 1d 18
        E 96 b0 0b 08
        E 0 80 1d 00
        E 0 90 22 08
        E 96 b0 0b 18
        E 96 b0 0b 08
        E 0 80 22 00
        E 0 90 1d 08
        E 96 b0 0b 18
        E 0 80 1d 00
        E 0 90 1b 18
        E 96 b0 0b 08
        E 0 80 1b 00
        E 0 90 22 08
        E 96 b0 0b 30
        E 80 b0 0b 10
        E 96 b0 0b 30
        E 0 80 22 00
        E 0 90 1d 30
        E 96 b0 0b 10
        E 0 80 1d 00
        E 0 90 22 10
        E 96 b0 0b 30
        E 96 b0 0b 10
        E 0 80 22 00
        E 0 90 1d 10
        E 96 b0 0b 30
        E 0 80 1d 00
        E 0 90 1b 30
        E 96 b0 0b 10
        E 0 80 1b 00
        E 0 90 22 10
        E 96 b0 0b 18
        E 96 b0 0b 08
        E 0 80 22 00
        E 0 90 1b 08
        E 80 b0 0b 18
        E 0 80 1b 00
        E 0 90 1d 18
        E 96 b0 0b 08
        E 0 80 1d 00
        E 0 90 22 08
        E 96 b0 0b 18
        E 96 b0 0b 08
        E 0 80 22 00
        E 0 90 1d 08
        E 96 b0 0b 18
        E 0 80 1d 00
        E 0 90 1b 18
        E 96 b0 0b 08
        E 0 80 1b 00
        E 0 90 22 08
        E 96 b0 0b 30
        E 0 80 22 00
        E 0 90 32 30
        E 96 b0 0b 10
        E 80 b0 0b 30
        E 0 80 32 00
        E 0 90 35 30
        E 96 b0 0b 10
        E 0 80 35 00
        E 0 90 32 10
        E 96 b0 0b 30
        E 96 b0 0b 10
        E 0 80 32 00
        E 0 90 35 10
        E 96 b0 0b 30
        E 0 80 35 00
        E 0 90 37 30
        E 96 b0 0b 10
        E 0 80 37 00
        E 0 90 32 10
        E 96 b0 0b 18
        E 96 b0 0b 08
        E 0 80 32 00
        E 0 90 37 08
        E 96 b0 0b 18
        E 0 80 37 00
        E 0 90 35 18
        E 80 b0 0b 08
        E 0 80 35 00
        E 0 90 32 08
        E 96 b0 0b 18
        E 96 b0 0b 08
        E 0 80 32 00
        E 0 90 35 08
        E 96 b0 0b 18
        E 0 80 35 00
        E 0 90 37 18
        E 96 b0 0b 08
        E 0 80 37 00
        E 0 90 32 08
        E 96 b0 0b 30
        E 96 b0 0b 10
        E 0 80 32 00
        E 0 90 37 10
        E 96 b0 0b 30
        E 0 80 37 00
        E 0 90 39 30
        E 96 b0 0b 10
        E 0 80 39 00
        E 0 90 32 10
        E 80 b0 0b 30
        E 96 b0 0b 10
        E 0 80 32 00
        E 0 90 39 10
        E 96 b0 0b 30
        E 0 80 39 00
        E 0 90 3a 30
        E 96 b0 0b 10
        E 0 80 3a 00
        E 0 90 32 10
        E 96 b0 0b 18
        E 96 b0 0b 08
        E 0 80 32 00
        E 0 90 3a 08
        E 96 b0 0b 18
        E 0 80 3a 00
        E 0 90 35 18
        E 96 b0 0b 08
        E 0 80 35 00
        E 0 90 32 08
        E 96 b0 0b 18
        E 80 b0 0b 08
        E 0 80 32 00
        E 0 90 39 08
        E 96 b0 0b 18
        E 0 80 39 00
        E 0 90 3a 18
        E 96 b0 0b 08
        E 0 80 3a 00
        E 0 90 32 08
        E 96 b0 0b 30
        E 0 80 32 00
        E 0 90 3e 30
        E 96 b0 0b 10
        E 0 80 3e 00
        E 0 90 3a 10
        E 96 b0 0b 30
        E 0 80 3a 00
        E 0 90 39 30
        E 96 b0 0b 10
        E 0 80 39 00
        E 0 90 3e 10
        E 96 b0 0b 30
        E 0 80 3e 00
        E 0 90 3c 30
        E 80 b0 0b 10
        E 0 80 3c 00
        E 0 90 39 10
        E 96 b0 0b 30
        E 0 80 39 00
        E 0 90 37 30
        E 96 b0 0b 10
        E 0 80 37 00
        E 0 90 3c 10
        E 96 b0 0b 18
        E 0 80 3c 00
        E 0 90 3e 18
        E 96 b0 0b 08
        E 0 80 3e 00
        E 0 90 37 08
        E 96 b0 0b 18
        E 0 80 37 00
        E 0 90 39 18
        E 96 b0 0b 08
        E 0 80 39 00
        E 0 90 3e 08
        E 96 b0 0b 18
        E 0 80 3e 00
        E 0 90 3c 18
        E 96 b0 0b 08
        E 0 80 3c 00
        E 0 90 39 08
        E 80 b0 0b 18
        E 0 80 39 00
        E 0 90 37 18
        E 96 b0 0b 08
        E 0 80 37 00
        E 0 90 3c 08
        E 96 b0 0b 30
        E 0 80 3c 00
        E 0 90 3a 30
        E 96 b0 0b 10
        E 0 80 3a 00
        E 0 90 37 10
        E 96 b0 0b 30
        E 0 80 37 00
        E 0 90 35 30
        E 96 b0 0b 10
        E 0 80 35 00
        E 0 90 3a 10
        E 96 b0 0b 30
        E 0 80 3a 00
        E 0 90 39 30
        E 96 b0 0b 10
        E 0 80 39 00
        E 0 90 35 10
        E 96 b0 0b 30
        E 0 80 35 00
        E 0 90 34 30
        E 80 b0 0b 10
        E 0 80 34 00
        E 0 90 39 10
        E 96 b0 0b 18
        E 0 80 39 00
        E 0 90 3a 18
        E 96 b0 0b 08
        E 0 80 3a 00
        E 0 90 34 08
        E 96 b0 0b 18
        E 0 80 34 00
        E 0 90 35 18
        E 96 b0 0b 08
        E 0 80 35 00
        E 0 90 3a 08
        E 96 b0 0b 18
        E 0 80 3a 00
        E 0 90 39 18
        E 96 b0 0b 08
        E 0 80 39 00
        E 0 90 35 08
        E 96 b0 0b 18
        E 0 80 35 00
        E 0 90 34 18
        E 80 b0 0b 08
        E 0 80 34 00
        E 0 90 39 08
        E 96 b0 0b 28
        E 0 80 39 00
        E 0 90 24 28
        E 1520 b0 0b 30
        E 0 80 24 00
        E 0 90 32 30
        E 80 b0 0b 10
        E 96 b0 0b 30
        E 0 80 32 00
        E 0 90 35 30
        E 96 b0 0b 10
        E 0 80 35 00
        E 0 90 32 10
        E 96 b0 0b 30
        E 96 b0 0b 10
        E 0 80 32 00
        E 0 90 35 10
        E 96 b0 0b 30
        E 0 80 35 00
        E 0 90 37 30
        E 96 b0 0b 10
        E 0 80 37 00
        E 0 90 32 10
        E 96 b0 0b 18
        E 80 b0 0b 08
        E 0 80 32 00
        E 0 90 37 08
        E 96 b0 0b 18
        E 0 80 37 00
        E 0 90 35 18
        E 96 b0 0b 08
        E 0 80 35 00
        E 0 90 32 08
        E 96 b0 0b 18
        E 96 b0 0b 08
        E 0 80 32 00
        E 0 90 35 08
        E 96 b0 0b 18
        E 0 80 35 00
        E 0 90 37 18
        E 96 b0 0b 08
        E 0 80 37 00
        E 0 90 32 08
        E 96 b0 0b 30
        E 96 b0 0b 10
        E 0 80 32 00
        E 0 90 37 10
        E 80 b0 0b 30
        E 0 80 37 00
        E 0 90 39 30
        E 96 b0 0b 10
        E 0 80 39 00
        E 0 90 32 10
        E 96 b0 0b 30
        E 96 b0 0b 10
        E 0 80 32 00
        E 0 90 39 10
        E 96 b0 0b 30
        E 0 80 39 00
        E 0 90 3a 30
        E 96 b0 0b 10
        E 0 80 3a 00
        E 0 90 32 10
        E 96 b0 0b 18
        E 96 b0 0b 08
        E 0 80 32 00
        E 0 90 3a 08
        E 96 b0 0b 18
        E 0 80 3a 00
        E 0 90 35 18
        E 80 b0 0b 08
        E 0 80 35 00
        E 0 90 32 08
        E 96 b0 0b 18
        E 96 b0 0b 08
        E 0 80 32 00
        E 0 90 39 08
        E 96 b0 0b 18
        E 0 80 39 00
        E 0 90 3a 18
        E 96 b0 0b 08
        E 0 80 3a 00
        E 0 90 32 08
        E 96 b0 0b 30
        E 0 80 32 00
        E 0 90 3e 30
        E 96 b0 0b 10
        E 0 80 3e 00
        E 0 90 3a 10
        E 96 b0 0b 30
        E 0 80 3a 00
        E 0 90 39 30
        E 96 b0 0b 10
        E 0 80 39 00
        E 0 90 3e 10
        E 80 b0 0b 30
        E 0 80 3e 00
        E 0 90 3c 30
        E 96 b0 0b 10
        E 0 80 3c 00
        E 0 90 39 10
        E 96 b0 0b 30
        E 0 80 39 00
        E 0 90 37 30
        E 96 b0 0b 10
        E 0 80 37 00
        E 0 90 3c 10
        E 96 b0 0b 18
        E 0 80 3c 00
        E 0 90 3e 18
        E 96 b0 0b 08
        E 0 80 3e 00
        E 0 90 37 08
        E 96 b0 0b 18
        E 0 80 37 00
        E 0 90 39 18
        E 96 b0 0b 08
        E 0 80 39 00
        E 0 90 3e 08
        E 80 b0 0b 18
        E 0 80 3e 00
        E 0 90 3c 18
        E 96 b0 0b 08
        E 0 80 3c 00
        E 0 90 39 08
        E 96 b0 0b 18
        E 0 80 39 00
        E 0 90 37 18
        E 96 b0 0b 08
        E 0 80 37 00
        E 0 90 3c 08
        E 96 b0 0b 30
        E 0 80 3c 00
        E 0 90 3a 30
        E 96 b0 0b 10
        E 0 80 3a 00
        E 0 90 37 10
        E 96 b0 0b 30
        E 0 80 37 00
        E 0 90 35 30
        E 96 b0 0b 10
        E 0 80 35 00
        E 0 90 3a 10
        E 96 b0 0b 30
        E 0 80 3a 00
        E 0 90 39 30
        E 80 b0 0b 10
        E 0 80 39 00
        E 0 90 35 10
        E 96 b0 0b 30
        E 0 80 35 00
        E 0 90 34 30
        E 96 b0 0b 10
        E 0 80 34 00
        E 0 90 39 10
        E 96 b0 0b 18
        E 0 80 39 00
        E 0 90 3a 18
        E 96 b0 0b 08
        E 0 80 3a 00
        E 0 90 34 08
        E 96 b0 0b 18
        E 0 80 34 00
        E 0 90 35 18
        E 96 b0 0b 08
        E 0 80 35 00
        E 0 90 3a 08
        E 96 b0 0b 18
        E 0 80 3a 00
        E 0 90 39 18
        E 96 b0 0b 08
        E 0 80 39 00
        E 0 90 35 08
        E 80 b0 0b 18
        E 0 80 35 00
        E 0 90 34 18
        E 96 b0 0b 08
        E 0 80 34 00
        E 0 90 39 08
        E 96 b0 0b 30
        E 0 80 39 00
        E 0 90 26 30
        E 96 b0 0b 10
        E 96 b0 0b 30
        E 0 80 26 00
        E 0 90 21 30
        E 96 b0 0b 10
        E 0 80 21 00
        E 0 90 26 10
        E 96 b0 0b 30
        E 96 b0 0b 10
        E 0 80 26 00
        E 0 90 21 10
        E 80 b0 0b 30
        E 0 80 21 00
        E 0 90 1f 30
        E 96 b0 0b 10
        E 0 80 1f 00
        E 0 90 26 10
        E 96 b0 0b 18
        E 96 b0 0b 08
        E 0 80 26 00
        E 0 90 1f 08
        E 96 b0 0b 18
        E 0 80 1f 00
        E 0 90 21 18
        E 96 b0 0b 08
        E 0 80 21 00
        E 0 90 26 08
        E 96 b0 0b 18
        E 96 b0 0b 08
        E 0 80 26 00
        E 0 90 21 08
        E 96 b0 0b 18
        E 0 80 21 00
        E 0 90 1f 18
        E 80 b0 0b 08
        E 0 80 1f 00
        E 0 90 26 08
        E 96 b0 0b 30
        E 96 b0 0b 10
        E 96 b0 0b 30
        E 0 80 26 00
        E 0 90 21 30
        E 96 b0 0b 10
        E 0 80 21 00
        E 0 90 26 10
        E 96 b0 0b 30
        E 96 b0 0b 10
        E 0 80 26 00
        E 0 90 21 10
        E 96 b0 0b 30
        E 0 80 21 00
        E 0 90 1f 30
        E 96 b0 0b 10
        E 0 80 1f 00
        E 0 90 26 10
        E 80 b0 0b 18
        E 96 b0 0b 08
        E 0 80 26 00
        E 0 90 1f 08
        E 96 b0 0b 18
        E 0 80 1f 00
        E 0 90 21 18
        E 96 b0 0b 08
        E 0 80 21 00
        E 0 90 26 08
        E 96 b0 0b 18
        E 96 b0 0b 08
        E 0 80 26 00
        E 0 90 21 08
        E 96 b0 0b 18
        E 0 80 21 00
        E 0 90 1f 18
        E 96 b0 0b 08
        E 0 80 1f 00
        E 0 90 26 08
        E 80 b0 0b 30
        E 96 b0 0b 10
        E 96 b0 0b 30
        E 0 80 26 00
        E 0 90 21 30
        E 96 b0 0b 10
        E 0 80 21 00
        E 0 90 26 10
        E 96 b0 0b 30
        E 96 b0 0b 10
        E 0 80 26 00
        E 0 90 21 10
        E 96 b0 0b 30
        E 0 80 21 00
        E 0 90 1f 30
        E 96 b0 0b 10
        E 0 80 1f 00
        E 0 90 26 10
        E 96 b0 0b 18
        E 80 b0 0b 08
        E 0 80 26 00
        E 0 90 1f 08
        E 96 b0 0b 18
        E 0 80 1f 00
        E 0 90 21 18
        E 96 b0 0b 08
        E 0 80 21 00
        E 0 90 26 08
        E 96 b0 0b 18
        E 96 b0 0b 08
        E 0 80 26 00
        E 0 90 21 08
        E 96 b0 0b 18
        E 0 80 21 00
        E 0 90 1f 18
        E 96 b0 0b 08
        E 0 80 1f 00
        E 0 90 26 08
        E 96 b0 0b 30
        E 96 b0 0b 10
        E 80 b0 0b 30
        E 0 80 26 00
        E 0 90 21 30
        E 96 b0 0b 10
        E 0 80 21 00
        E 0 90 26 10
        E 96 b0 0b 30
        E 96 b0 0b 10
        E 0 80 26 00
        E 0 90 21 10
        E 96 b0 0b 30
        E 0 80 21 00
        E 0 90 1f 30
        E 96 b0 0b 10
        E 0 80 1f 00
        E 0 90 26 10
        E 96 b0 0b 18
        E 96 b0 0b 08
        E 0 80 26 00
        E 0 90 1f 08
        E 96 b0 0b 18
        E 0 80 1f 00
        E 0 90 21 18
        E 80 b0 0b 08
        E 0 80 21 00
        E 0 90 26 08
        E 96 b0 0b 18
        E 96 b0 0b 08
        E 0 80 26 00
        E 0 90 21 08
        E 96 b0 0b 18
        E 0 80 21 00
        E 0 90 1f 18
        E 96 b0 0b 08
        E 0 80 1f 00
        E 0 90 26 08
        E 96 b0 0b 30
        E 96 b0 0b 10
        E 96 b0 0b 30
        E 0 80 26 00
        E 0 90 21 30
        E 80 b0 0b 10
        E 0 80 21 00
        E 0 90 26 10
        E 96 b0 0b 30
        E 96 b0 0b 10
        E 0 80 26 00
        E 0 90 21 10
        E 96 b0 0b 30
        E 0 80 21 00
        E 0 90 1f 30
        E 96 b0 0b 10
        E 0 80 1f 00
        E 0 90 26 10
        E 96 b0 0b 18
        E 96 b0 0b 08
        E 0 80 26 00
        E 0 90 1f 08
        E 96 b0 0b 18
        E 0 80 1f 00
        E 0 90 21 18
        E 96 b0 0b 08
        E 0 80 21 00
        E 0 90 26 08
        E 80 b0 0b 18
        E 96 b0 0b 08
        E 0 80 26 00
        E 0 90 21 08
        E 96 b0 0b 18
        E 0 80 21 00
        E 0 90 1f 18
        E 96 b0 0b 08
        E 0 80 1f 00
        E 0 90 26 08
        E 96 b0 0b 30
        E 96 b0 0b 10
        E 96 b0 0b 30
        E 0 80 26 00
        E 0 90 21 30
        E 96 b0 0b 10
        E 0 80 21 00
        E 0 90 26 10
        E 96 b0 0b 30
        E 80 b0 0b 10
        E 0 80 26 00
        E 0 90 21 10
        E 96 b0 0b 30
        E 0 80 21 00
        E 0 90 1f 30
        E 96 b0 0b 10
        E 0 80 1f 00
        E 0 90 26 10
        E 96 b0 0b 18
        E 96 b0 0b 08
        E 0 80 26 00
        E 0 90 1f 08
        E 96 b0 0b 18
        E 0 80 1f 00
        E 0 90 21 18
        E 96 b0 0b 08
        E 0 80 21 00
        E 0 90 26 08
        E 96 b0 0b 18
        E 80 b0 0b 08
        E 0 80 26 00
        E 0 90 21 08
        E 96 b0 0b 18
        E 0 80 21 00
        E 0 90 1f 18
        E 96 b0 0b 08
        E 0 80 1f 00
        E 0 90 26 08
        E 96 b0 0b 30
        E 96 b0 0b 10
        E 96 b0 0b 30
        E 0 80 26 00
        E 0 90 21 30
        E 96 b0 0b 10
        E 0 80 21 00
        E 0 90 26 10
        E 96 b0 0b 30
        E 96 b0 0b 10
        E 0 80 26 00
        E 0 90 21 10
        E 80 b0 0b 30
        E 0 80 21 00
        E 0 90 1f 30
        E 96 b0 0b 10
        E 0 80 1f 00
        E 0 90 26 10
        E 96 b0 0b 18
        E 96 b0 0b 08
        E 0 80 26 00
        E 0 90 1f 08
        E 96 b0 0b 18
        E 0 80 1f 00
        E 0 90 21 18
        E 96 b0 0b 08
        E 0 80 21 00
        E 0 90 26 08
        E 96 b0 0b 18
        E 96 b0 0b 08
        E 0 80 26 00
        E 0 90 21 08
        E 96 b0 0b 18
        E 0 80 21 00
        E 0 90 1f 18
        E 80 b0 0b 08
        E 0 80 1f 00
        E 0 90 26 08
        E 96 b0 0b 30
        E 96 b0 0b 10
        E 96 b0 0b 30
        E 0 80 26 00
        E 0 90 21 30
        E 96 b0 0b 10
        E 0 80 21 00
        E 0 90 26 10
        E 96 b0 0b 30
        E 96 b0 0b 10
        E 0 80 26 00
        E 0 90 21 10
        E 96 b0 0b 30
        E 0 80 21 00
        E 0 90 1f 30
        E 80 b0 0b 10
        E 0 80 1f 00
        E 0 90 26 10
        E 96 b0 0b 18
        E 96 b0 0b 08
        E 0 80 26 00
        E 0 90 1f 08
        E 96 b0 0b 18
        E 0 80 1f 00
        E 0 90 21 18
        E 96 b0 0b 08
        E 0 80 21 00
        E 0 90 26 08
        E 96 b0 0b 18
        E 96 b0 0b 08
        E 0 80 26 00
        E 0 90 21 08
        E 96 b0 0b 18
        E 0 80 21 00
        E 0 90 1f 18
        E 96 b0 0b 08
        E 0 80 1f 00
        E 0 90 26 08
        E 80 b0 0b 50
        E 0 80 26 00
        E 0 90 2b 50
        E 96 b0 0b 20
        E 96 b0 0b 50
        E 0 80 2b 00
        E 0 90 30 50
        E 96 b0 0b 20
        E 0 80 30 00
        E 0 90 2b 20
        E 96 b0 0b 50
        E 0 80 2b 00
        E 0 90 37 50
        E 96 b0 0b 20
        E 0 80 37 00
        E 0 90 30 20
        E 96 b0 0b 50
        E 0 80 30 00
        E 0 90 3c 50
        E 96 b0 0b 20
        E 0 80 3c 00
        E 0 90 37 20
        E 96 b0 0b 40
        E 0 80 37 00
        E 0 90 2b 40
        E 80 b0 0b 18
        E 0 80 2b 00
        E 0 90 3c 18
        E 96 b0 0b 40
        E 0 80 3c 00
        E 0 90 30 40
        E 96 b0 0b 18
        E 0 80 30 00
        E 0 90 2b 18
        E 96 b0 0b 40
        E 0 80 2b 00
        E 0 90 37 40
        E 96 b0 0b 18
        E 0 80 37 00
        E 0 90 30 18
        E 96 b0 0b 40
        E 0 80 30 00
        E 0 90 3c 40
        E 96 b0 0b 18
        E 0 80 3c 00
        E 0 90 37 18
        E 96 b0 0b 30
        E 0 80 37 00
        E 0 90 2b 30
        E 96 b0 0b 10
        E 0 80 2b 00
        E 0 90 3c 10
        E 80 b0 0b 30
        E 0 80 3c 00
        E 0 90 30 30
        E 96 b0 0b 10
        E 0 80 30 00
        E 0 90 2b 10
        E 96 b0 0b 30
        E 0 80 2b 00
        E 0 90 37 30
        E 96 b0 0b 10
        E 0 80 37 00
        E 0 90 30 10
        E 96 b0 0b 30
        E 0 80 30 00
        E 0 90 3c 30
        E 96 b0 0b 10
        E 0 80 3c 00
        E 0 90 37 10
        E 96 b0 0b 18
        E 0 80 37 00
        E 0 90 2b 18
        E 96 b0 0b 08
        E 0 80 2b 00
        E 0 90 3c 08
        E 80 b0 0b 18
        E 0 80 3c 00
        E 0 90 30 18
        E 96 b0 0b 08
        E 0 80 30 00
        E 0 90 2b 08
        E 96 b0 0b 18
        E 0 80 2b 00
        E 0 90 37 18
        E 96 b0 0b 08
        E 0 80 37 00
        E 0 90 30 08
        E 96 b0 0b 18
        E 0 80 30 00
        E 0 90 3c 18
        E 96 b0 0b 08
        E 0 80 3c 00
        E 0 90 37 08
        E 96 b0 0b 50
        E 0 80 37 00
        E 0 90 2b 50
        E 96 b0 0b 20
        E 96 b0 0b 50
        E 0 80 2b 00
        E 0 90 30 50
        E 80 b0 0b 20
        E 0 80 30 00
        E 0 90 2b 20
        E 96 b0 0b 50
        E 0 80 2b 00
        E 0 90 37 50
        E 96 b0 0b 20
        E 0 80 37 00
        E 0 90 30 20
        E 96 b0 0b 50
        E 0 80 30 00
        E 0 90 3c 50
        E 96 b0 0b 20
        E 0 80 3c 00
        E 0 90 37 20
        E 96 b0 0b 40
        E 0 80 37 00
        E 0 90 2b 40
        E 96 b0 0b 18
        E 0 80 2b 00
        E 0 90 3c 18
        E 96 b0 0b 40
        E 0 80 3c 00
        E 0 90 30 40
        E 96 b0 0b 18
        E 0 80 30 00
        E 0 90 2b 18
        E 80 b0 0b 40
        E 0 80 2b 00
        E 0 90 37 40
        E 96 b0 0b 18
        E 0 80 37 00
        E 0 90 30 18
        E 96 b0 0b 40
        E 0 80 30 00
        E 0 90 3c 40
        E 96 b0 0b 18
        E 0 80 3c 00
        E 0 90 37 18
        E 96 b0 0b 30
        E 0 80 37 00
        E 0 90 2b 30
        E 96 b0 0b 10
        E 0 80 2b 00
        E 0 90 3c 10
        E 96 b0 0b 30
        E 0 80 3c 00
        E 0 90 30 30
        E 96 b0 0b 10
        E 0 80 30 00
        E 0 90 2b 10
        E 80 b0 0b 30
        E 0 80 2b 00
        E 0 90 37 30
        E 96 b0 0b 10
        E 0 80 37 00
        E 0 90 30 10
        E 96 b0 0b 30
        E 0 80 30 00
        E 0 90 3c 30
        E 96 b0 0b 10
        E 0 80 3c 00
        E 0 90 37 10
        E 96 b0 0b 18
        E 0 80 37 00
        E 0 90 2b 18
        E 96 b0 0b 08
        E 0 80 2b 00
        E 0 90 3c 08
        E 96 b0 0b 18
        E 0 80 3c 00
        E 0 90 30 18
        E 96 b0 0b 08
        E 0 80 30 00
        E 0 90 2b 08
        E 96 b0 0b 18
        E 0 80 2b 00
        E 0 90 37 18
        E 80 b0 0b 08
        E 0 80 37 00
        E 0 90 30 08
        E 96 b0 0b 18
        E 0 80 30 00
        E 0 90 3c 18
        E 96 b0 0b 08
        E 0 80 3c 00
        E 0 90 37 08
        E 96 b0 0c 60
        E 0 b0 0b 30
        E 0 80 37 00
        E 0 90 21 30
        E 96 b0 0b 20
        E 96 b0 0b 10
        E 96 b0 0b 08
        E 96 b0 0b 10
        E 96 b0 0b 20
        E 80 b0 0b 30
        E 96 b0 0b 40
        E 96 b0 0b 30
        E 96 b0 0b 20
        E 96 b0 0b 10
        E 96 b0 0b 08
        E 96 b0 0b 10
        E 96 b0 0b 20
        E 80 b0 0b 30
        E 96 b0 0b 40
        E 96 b0 0b 30
        E 96 b0 0b 20
        E 96 b0 0b 10
        E 96 b0 0b 08
        E 96 b0 0b 10
        E 96 b0 0b 20
        E 96 b0 0b 30
        E 80 b0 0b 40
        E 96 b0 0b 30
        E 96 b0 0b 20
        E 96 b0 0b 10
        E 96 b0 0b 08
        E 96 b0 0b 10
        E 96 b0 0b 20
        E 96 b0 0b 30
        E 96 b0 0b 40
        E 80 b0 0b 30
        E 96 b0 0b 20
        E 96 b0 0b 10
        E 96 b0 0b 08
        E 96 b0 0b 10
        E 96 b0 0b 20
        E 96 b0 0b 30
        E 96 b0 0b 40
        E 96 b0 0b 30
        E 80 b0 0b 20
        E 96 b0 0b 10
        E 96 b0 0b 08
        E 96 b0 0b 10
        E 96 b0 0b 20
        E 96 b0 0b 30
        E 96 b0 0b 40
        E 96 b0 0b 30
        E 80 b0 0b 20
        E 96 b0 0b 10
        E 96 b0 0b 08
        E 96 b0 0b 10
        E 96 b0 0b 20
        E 96 b0 0b 30
        E 96 b0 0b 40
        E 96 b0 0b 30
        E 96 b0 0b 20
        E 80 b0 0b 10
        E 96 b0 0b 08
        E 96 b0 0b 10
        E 96 b0 0b 20
        E 96 b0 0b 30
        E 96 b0 0b 40
        E 96 b0 0b 30
        E 96 b0 0b 20
        E 96 b0 0b 10
        E 80 b0 0b 08
        E 96 b0 0b 10
        E 96 b0 0b 20
        E 96 b0 0b 30
        E 96 b0 0b 40
        E 96 b0 0b 30
        E 96 b0 0b 20
        E 96 b0 0b 10
        E 80 b0 0b 08
        E 96 b0 0b 10
        E 96 b0 0b 20
        E 96 b0 0b 30
        E 96 b0 0b 40
        E 96 b0 0b 30
        E 96 b0 0b 20
        E 96 b0 0b 10
        E 96 b0 0b 08
        E 80 b0 0b 10
        E 96 b0 0b 20
        E 96 b0 0b 30
        E 96 b0 0b 40
        E 96 b0 0b 30
        E 96 b0 0b 20
        E 96 b0 0b 10
        E 96 b0 0b 08
        E 96 b0 0b 10
        E 80 b0 0b 20
        E 96 b0 0b 30
        E 96 b0 0b 40
        E 96 b0 0b 30
        E 96 b0 0b 20
        E 96 b0 0b 10
        E 96 b0 0b 08
        E 96 b0 0b 10
        E 80 b0 0b 20
        E 96 b0 0b 30
        E 96 b0 0b 40
        E 96 b0 0b 30
        E 96 b0 0b 20
        E 96 b0 0b 10
        E 96 b0 0b 08
        E 96 b0 0b 10
        E 96 b0 0b 20
        E 80 b0 0b 30
        E 96 b0 0b 40
        E 96 b0 0b 30
        E 96 b0 0b 20
        E 96 b0 0b 10
        E 96 b0 0b 08
        E 96 b0 0b 10
        E 96 b0 0b 20
        E 96 b0 0b 30
        E 80 b0 0b 40
        E 96 b0 0b 30
        E 96 b0 0b 20
        E 96 b0 0b 10
        E 96 b0 0b 08
        E 96 b0 0b 10
        E 96 b0 0b 20
        E 96 b0 0b 30
        E 96 b0 0b 40
        E 80 b0 0c 10
        E 0 b0 0b 30
        E 0 80 21 00
        E 0 90 2d 30
        E 96 b0 0b 18
        E 96 b0 0b 30
        E 0 80 2d 00
        E 0 90 30 30
        E 96 b0 0b 18
        E 0 80 30 00
        E 0 90 2d 18
        E 96 b0 0b 30
        E 0 80 2d 00
        E 0 90 34 30
        E 96 b0 0b 18
        E 0 80 34 00
        E 0 90 30 18
        E 96 b0 0b 30
        E 0 80 30 00
        E 0 90 37 30
        E 96 b0 0b 18
        E 80 80 37 00
        E 0 90 2d 18
        E 96 b0 0b 08
        E 0 80 2d 00
        E 0 90 37 08
        E 96 b0 0b 18
        E 0 80 37 00
        E 0 90 30 18
        E 96 b0 0b 08
        E 0 80 30 00
        E 0 90 2d 08
        E 96 b0 0b 18
        E 0 80 2d 00
        E 0 90 34 18
        E 96 b0 0b 08
        E 0 80 34 00
        E 0 90 30 08
        E 96 b0 0b 18
        E 0 80 30 00
        E 0 90 37 18
        E 96 b0 0b 08
        E 96 b0 0b 30
        E 0 80 37 00
        E 0 90 30 30
        E 80 b0 0b 18
        E 0 80 30 00
        E 0 90 37 18
        E 96 b0 0b 30
        E 0 80 37 00
        E 0 90 34 30
        E 96 b0 0b 18
        E 0 80 34 00
        E 0 90 30 18
        E 96 b0 0b 30
        E 0 80 30 00
        E 0 90 37 30
        E 64 80 37 00
        E 0 ff 2f 00
      >
    >
  >
  <TRACK {EA7BEAA8-65C7-460D-AD1B-4034EEA334D0}
    NAME "NES - Pulse 2 [ch1]"
    PEAKCOL 10092441
    BEAT -1
    AUTOMODE 0
    PANLAWFLAGS 3
    VOLPAN 1 0 -1 -1 1
    MUTESOLO 0 0 0
    IPHASE 0
    PLAYOFFS 0 1
    ISBUS 0 0
    BUSCOMP 0 0 0 0 0
    SHOWINMIX 1 0.6667 0.5 1 0.5 0 0 0
    FIXEDLANES 9 0 0 0 0
    SEL 0
    REC 0 5088 1 0 0 0 0 0
    VU 2
    TRACKHEIGHT 0 0 0 0 0 0 0
    INQ 0 0 0 0.5 100 0 0 100
    NCHAN 2
    FX 1
    TRACKID {EA7BEAA8-65C7-460D-AD1B-4034EEA334D0}
    PERF 0
    MIDIOUT -1
    MAINSEND 1 0
    <FXCHAIN
      WNDRECT 24 52 700 560
      SHOW 0
      LASTSEL 0
      DOCKED 0
      BYPASS 0 0 0
      <JS "ReapNES Studio/ReapNES_Console.jsfx" ""
        2 15 1 10 80 10 100 2 1 15 1 5 60 10 80 1 1 0 50 0 0 15 1 0 100 0 0 0.500000 0.500000 0.400000 0.300000 0.800000 1 1 0 0 0 0 - - - - - - - - - - - - - - - - - - - - - - - - - -
      >
      FLOATPOS 0 0 0 0
      FXID {7099E044-A533-437F-BB9C-5808C8283ADB}
      WAK 0 0
    >
    <ITEM
      POSITION 0
      LENGTH 83.98134
      LOOP 0
      ALLTAKES 0
      FADEIN 0 0 0 0 0 0 0
      FADEOUT 0 0 0 0 0 0 0
      MUTE 0 0
      SEL 0
      IGUID {7B3C1E7C-FB8B-44F1-B31B-4EB34B142A2B}
      <SOURCE MIDI
        HASDATA 1 480 QN
        CCINTERP 32
        E 0 c1 51
        E 128 b1 0c 40
        E 0 b1 0b 08
        E 0 91 4f 08
        E 16 81 4f 00
        E 0 91 50 08
        E 16 81 50 00
        E 0 91 4f 08
        E 32 81 4f 00
        E 0 91 4e 08
        E 16 81 4e 00
        E 0 91 4f 08
        E 48 81 4f 00
        E 0 91 4e 08
        E 128 81 4e 00
        E 0 91 4d 08
        E 48 81 4d 00
        E 0 91 4e 08
        E 16 81 4e 00
        E 0 91 4d 08
        E 32 81 4d 00
        E 0 91 4c 08
        E 16 81 4c 00
        E 0 91 4d 08
        E 48 81 4d 00
        E 0 91 4c 08
        E 48 b1 0b 10
        E 176 81 4c 00
        E 0 91 4b 10
        E 48 81 4b 00
        E 0 91 4c 10
        E 32 81 4c 00
        E 0 91 4b 10
        E 16 81 4b 00
        E 0 91 4a 10
        E 32 81 4a 00
        E 0 91 4b 10
        E 48 81 4b 00
        E 0 91 4a 10
        E 96 b1 0b 18
        E 16 81 4a 00
        E 0 91 49 18
        E 32 81 49 00
        E 0 91 4a 18
        E 48 81 4a 00
        E 0 91 49 18
        E 208 81 49 00
        E 0 91 48 18
        E 48 81 48 00
        E 0 91 49 18
        E 32 81 49 00
        E 0 91 48 18
        E 48 b1 0b 20
        E 64 81 48 00
        E 0 91 47 20
        E 48 81 47 00
        E 0 91 48 20
        E 32 81 48 00
        E 0 91 47 20
        E 128 81 47 00
        E 0 91 46 20
        E 16 81 46 00
        E 0 91 47 20
        E 48 81 47 00
        E 0 91 46 20
        E 224 81 46 00
        E 0 91 45 20
        E 16 81 45 00
        E 0 91 46 20
        E 48 81 46 00
        E 0 91 45 20
        E 128 81 45 00
        E 0 91 44 20
        E 16 81 44 00
        E 0 91 45 20
        E 48 81 45 00
        E 0 91 44 20
        E 224 81 44 00
        E 0 91 43 20
        E 32 81 43 00
        E 0 91 44 20
        E 48 81 44 00
        E 0 91 43 20
        E 208 81 43 00
        E 0 91 42 20
        E 32 81 42 00
        E 0 91 43 20
        E 48 81 43 00
        E 0 91 42 20
        E 304 81 42 00
        E 0 91 41 20
        E 32 81 41 00
        E 0 91 42 20
        E 48 81 42 00
        E 0 91 41 20
        E 224 81 41 00
        E 0 91 40 20
        E 16 81 40 00
        E 0 91 41 20
        E 48 81 41 00
        E 0 91 40 20
        E 320 81 40 00
        E 0 91 3f 20
        E 48 81 3f 00
        E 0 91 40 20
        E 16 81 40 00
        E 0 91 3f 20
        E 320 81 3f 00
        E 0 91 3e 20
        E 32 81 3e 00
        E 0 91 3f 20
        E 48 81 3f 00
        E 0 91 3e 20
        E 304 81 3e 00
        E 0 91 3d 20
        E 32 81 3d 00
        E 0 91 3e 20
        E 48 81 3e 00
        E 0 91 3d 20
        E 416 81 3d 00
        E 0 91 3c 20
        E 48 81 3c 00
        E 0 91 3d 20
        E 16 81 3d 00
        E 0 91 3c 20
        E 320 81 3c 00
        E 0 91 3b 20
        E 16 81 3b 00
        E 0 91 3c 20
        E 48 81 3c 00
        E 0 91 3b 20
        E 416 81 3b 00
        E 0 91 3a 20
        E 32 81 3a 00
        E 0 91 3b 20
        E 32 b1 0c 10
        E 0 b1 0b 30
        E 0 81 3b 00
        E 0 91 23 30
        E 96 b1 0b 10
        E 96 b1 0b 30
        E 0 81 23 00
        E 0 91 1e 30
        E 96 b1 0b 10
        E 0 81 1e 00
        E 0 91 23 10
        E 96 b1 0b 30
        E 96 b1 0b 10
        E 0 81 23 00
        E 0 91 1e 10
        E 80 b1 0b 30
        E 0 81 1e 00
        E 0 91 1c 30
        E 96 b1 0b 10
        E 0 81 1c 00
        E 0 91 23 10
        E 96 b1 0b 18
        E 96 b1 0b 08
        E 0 81 23 00
        E 0 91 1c 08
        E 96 b1 0b 18
        E 0 81 1c 00
        E 0 91 1e 18
        E 96 b1 0b 08
        E 0 81 1e 00
        E 0 91 23 08
        E 64 b1 0b 10
        E 32 b1 0b 18
        E 96 b1 0b 08
        E 0 81 23 00
        E 0 91 1e 08
        E 80 b1 0b 18
        E 0 81 1e 00
        E 0 91 1c 18
        E 96 b1 0b 08
        E 0 81 1c 00
        E 0 91 23 08
        E 96 b1 0b 30
        E 96 b1 0b 10
        E 96 b1 0b 30
        E 0 81 23 00
        E 0 91 1e 30
        E 96 b1 0b 10
        E 0 81 1e 00
        E 0 91 23 10
        E 96 b1 0b 30
        E 96 b1 0b 10
        E 0 81 23 00
        E 0 91 1e 10
        E 80 b1 0b 18
        E 16 b1 0b 30
        E 0 81 1e 00
        E 0 91 1c 30
        E 80 b1 0b 10
        E 0 81 1c 00
        E 0 91 23 10
        E 96 b1 0b 18
        E 96 b1 0b 08
        E 0 81 23 00
        E 0 91 1c 08
        E 96 b1 0b 18
        E 0 81 1c 00
        E 0 91 1e 18
        E 96 b1 0b 08
        E 0 81 1e 00
        E 0 91 23 08
        E 96 b1 0b 18
        E 96 b1 0b 08
        E 0 81 23 00
        E 0 91 1e 08
        E 96 b1 0b 18
        E 0 81 1e 00
        E 0 91 1c 18
        E 96 b1 0b 08
        E 0 81 1c 00
        E 0 91 23 08
        E 80 b1 0b 30
        E 0 81 23 00
        E 0 91 32 30
        E 80 b1 0b 28
        E 16 b1 0b 10
        E 96 b1 0b 30
        E 0 81 32 00
        E 0 91 2d 30
        E 96 b1 0b 10
        E 0 81 2d 00
        E 0 91 32 10
        E 96 b1 0b 30
        E 96 b1 0b 10
        E 0 81 32 00
        E 0 91 2d 10
        E 96 b1 0b 30
        E 0 81 2d 00
        E 0 91 2b 30
        E 96 b1 0b 10
        E 0 81 2b 00
        E 0 91 32 10
        E 80 b1 0b 18
        E 96 b1 0b 08
        E 0 81 32 00
        E 0 91 2b 08
        E 96 b1 0b 18
        E 0 81 2b 00
        E 0 91 2d 18
        E 96 b1 0b 08
        E 0 81 2d 00
        E 0 91 32 08
        E 96 b1 0b 18
        E 64 b1 0b 20
        E 32 b1 0b 08
        E 0 81 32 00
        E 0 91 2d 08
        E 96 b1 0b 18
        E 0 81 2d 00
        E 0 91 2b 18
        E 96 b1 0b 08
        E 0 81 2b 00
        E 0 91 32 08
        E 96 b1 0b 30
        E 80 b1 0b 10
        E 96 b1 0b 30
        E 0 81 32 00
        E 0 91 2d 30
        E 96 b1 0b 10
        E 0 81 2d 00
        E 0 91 32 10
        E 96 b1 0b 30
        E 96 b1 0b 10
        E 0 81 32 00
        E 0 91 2d 10
        E 96 b1 0b 30
        E 0 81 2d 00
        E 0 91 2b 30
        E 96 b1 0b 10
        E 0 81 2b 00
        E 0 91 32 10
        E 64 b1 0b 18
        E 128 b1 0b 08
        E 0 81 32 00
        E 0 91 2b 08
        E 80 b1 0b 18
        E 0 81 2b 00
        E 0 91 2d 18
        E 96 b1 0b 08
        E 0 81 2d 00
        E 0 91 32 08
        E 96 b1 0b 18
        E 96 b1 0b 08
        E 0 81 32 00
        E 0 91 2d 08
        E 96 b1 0b 18
        E 0 81 2d 00
        E 0 91 2b 18
        E 96 b1 0b 08
        E 0 81 2b 00
        E 0 91 32 08
        E 96 b1 0b 30
        E 96 b1 0b 10
        E 80 b1 0b 30
        E 0 81 32 00
        E 0 91 2d 30
        E 80 b1 0b 28
        E 16 b1 0b 10
        E 0 81 2d 00
        E 0 91 32 10
        E 96 b1 0b 30
        E 96 b1 0b 10
        E 0 81 32 00
        E 0 91 2d 10
        E 96 b1 0b 30
        E 0 81 2d 00
        E 0 91 2b 30
        E 96 b1 0b 10
        E 0 81 2b 00
        E 0 91 32 10
        E 96 b1 0b 18
        E 96 b1 0b 08
        E 0 81 32 00
        E 0 91 2b 08
        E 96 b1 0b 18
        E 0 81 2b 00
        E 0 91 2d 18
        E 80 b1 0b 08
        E 0 81 2d 00
        E 0 91 32 08
        E 96 b1 0b 18
        E 96 b1 0b 08
        E 0 81 32 00
        E 0 91 2d 08
        E 64 b1 0b 10
        E 32 b1 0b 18
        E 0 81 2d 00
        E 0 91 2b 18
        E 96 b1 0b 08
        E 0 81 2b 00
        E 0 91 32 08
        E 96 b1 0b 30
        E 96 b1 0b 10
        E 96 b1 0b 30
        E 0 81 32 00
        E 0 91 2d 30
        E 96 b1 0b 10
        E 0 81 2d 00
        E 0 91 32 10
        E 80 b1 0b 30
        E 96 b1 0b 10
        E 0 81 32 00
        E 0 91 2d 10
        E 96 b1 0b 30
        E 0 81 2d 00
        E 0 91 2b 30
        E 96 b1 0b 10
        E 0 81 2b 00
        E 0 91 32 10
        E 80 b1 0b 18
        E 112 b1 0b 08
        E 0 81 32 00
        E 0 91 2b 08
        E 96 b1 0b 18
        E 0 81 2b 00
        E 0 91 2d 18
        E 96 b1 0b 08
        E 0 81 2d 00
        E 0 91 32 08
        E 96 b1 0b 18
        E 80 b1 0b 08
        E 0 81 32 00
        E 0 91 2d 08
        E 96 b1 0b 18
        E 0 81 2d 00
        E 0 91 2b 18
        E 96 b1 0b 08
        E 0 81 2b 00
        E 0 91 32 08
        E 96 b1 0b 30
        E 96 b1 0b 10
        E 96 b1 0b 30
        E 0 81 32 00
        E 0 91 2d 30
        E 96 b1 0b 10
        E 0 81 2d 00
        E 0 91 32 10
        E 64 b1 0b 18
        E 32 b1 0b 30
        E 80 b1 0b 10
        E 0 81 32 00
        E 0 91 2d 10
        E 96 b1 0b 30
        E 0 81 2d 00
        E 0 91 2b 30
        E 96 b1 0b 10
        E 0 81 2b 00
        E 0 91 32 10
        E 96 b1 0b 18
        E 96 b1 0b 08
        E 0 81 32 00
        E 0 91 2b 08
        E 96 b1 0b 18
        E 0 81 2b 00
        E 0 91 2d 18
        E 96 b1 0b 08
        E 0 81 2d 00
        E 0 91 32 08
        E 96 b1 0b 18
        E 96 b1 0b 08
        E 0 81 32 00
        E 0 91 2d 08
        E 80 b1 0b 18
        E 0 81 2d 00
        E 0 91 2b 18
        E 64 b1 0b 20
        E 32 b1 0b 08
        E 0 81 2b 00
        E 0 91 32 08
        E 96 b1 0b 30
        E 96 b1 0b 10
        E 96 b1 0b 30
        E 0 81 32 00
        E 0 91 2d 30
        E 96 b1 0b 10
        E 0 81 2d 00
        E 0 91 32 10
        E 96 b1 0b 30
        E 96 b1 0b 10
        E 0 81 32 00
        E 0 91 2d 10
        E 96 b1 0b 30
        E 0 81 2d 00
        E 0 91 2b 30
        E 80 b1 0b 10
        E 0 81 2b 00
        E 0 91 32 10
        E 96 b1 0b 18
        E 96 b1 0b 08
        E 0 81 32 00
        E 0 91 2b 08
        E 96 b1 0b 18
        E 0 81 2b 00
        E 0 91 2d 18
        E 64 b1 0b 20
        E 32 b1 0b 08
        E 0 81 2d 00
        E 0 91 32 08
        E 96 b1 0b 18
        E 96 b1 0b 08
        E 0 81 32 00
        E 0 91 2d 08
        E 96 b1 0b 18
        E 0 81 2d 00
        E 0 91 2b 18
        E 80 b1 0b 08
        E 0 81 2b 00
        E 0 91 32 08
        E 96 b1 0b 30
        E 96 b1 0b 10
        E 96 b1 0b 30
        E 0 81 32 00
        E 0 91 2d 30
        E 96 b1 0b 10
        E 0 81 2d 00
        E 0 91 32 10
        E 96 b1 0b 30
        E 96 b1 0b 10
        E 0 81 32 00
        E 0 91 2d 10
        E 64 b1 0b 18
        E 32 b1 0b 30
        E 0 81 2d 00
        E 0 91 2b 30
        E 96 b1 0b 10
        E 0 81 2b 00
        E 0 91 32 10
        E 80 b1 0b 18
        E 96 b1 0b 08
        E 0 81 32 00
        E 0 91 2b 08
        E 96 b1 0b 18
        E 0 81 2b 00
        E 0 91 2d 18
        E 96 b1 0b 08
        E 0 81 2d 00
        E 0 91 32 08
        E 96 b1 0b 18
        E 96 b1 0b 08
        E 0 81 32 00
        E 0 91 2d 08
        E 96 b1 0b 18
        E 0 81 2d 00
        E 0 91 2b 18
        E 96 b1 0b 08
        E 0 81 2b 00
        E 0 91 32 08
        E 80 b1 0b 10
        E 16 b1 0b 30
        E 80 b1 0b 10
        E 96 b1 0b 30
        E 0 81 32 00
        E 0 91 2d 30
        E 96 b1 0b 10
        E 0 81 2d 00
        E 0 91 32 10
        E 96 b1 0b 30
        E 96 b1 0b 10
        E 0 81 32 00
        E 0 91 2d 10
        E 96 b1 0b 30
        E 0 81 2d 00
        E 0 91 2b 30
        E 96 b1 0b 10
        E 0 81 2b 00
        E 0 91 32 10
        E 96 b1 0b 18
        E 80 b1 0b 08
        E 0 81 32 00
        E 0 91 2b 08
        E 96 b1 0b 18
        E 0 81 2b 00
        E 0 91 2d 18
        E 96 b1 0b 08
        E 0 81 2d 00
        E 0 91 32 08
        E 64 b1 0b 10
        E 32 b1 0b 18
        E 96 b1 0b 08
        E 0 81 32 00
        E 0 91 2d 08
        E 96 b1 0b 18
        E 0 81 2d 00
        E 0 91 2b 18
        E 96 b1 0b 08
        E 0 81 2b 00
        E 0 91 32 08
        E 96 b1 0c 60
        E 0 b1 0b 30
        E 0 81 32 00
        E 0 91 26 30
        E 96 b1 0b 20
        E 80 b1 0b 10
        E 96 b1 0b 08
        E 96 b1 0b 10
        E 96 b1 0b 20
        E 96 b1 0b 30
        E 96 b1 0b 40
        E 96 b1 0b 30
        E 96 b1 0b 20
        E 96 b1 0b 10
        E 80 b1 0b 08
        E 96 b1 0b 10
        E 96 b1 0b 20
        E 96 b1 0b 30
        E 96 b1 0b 40
        E 96 b1 0b 30
        E 96 b1 0b 20
        E 96 b1 0b 10
        E 96 b1 0b 08
        E 80 b1 0b 10
        E 96 b1 0b 20
        E 96 b1 0b 30
        E 96 b1 0b 40
        E 96 b1 0b 30
        E 96 b1 0b 20
        E 96 b1 0b 10
        E 96 b1 0b 08
        E 80 b1 0b 10
        E 96 b1 0b 20
        E 96 b1 0b 30
        E 96 b1 0b 40
        E 96 b1 0b 30
        E 64 b1 0b 28
        E 32 b1 0b 20
        E 96 b1 0b 10
        E 96 b1 0b 08
        E 96 b1 0b 10
        E 80 b1 0b 20
        E 96 b1 0b 30
        E 96 b1 0b 40
        E 96 b1 0b 30
        E 96 b1 0b 20
        E 96 b1 0b 10
        E 96 b1 0b 08
        E 96 b1 0b 10
        E 96 b1 0b 20
        E 80 b1 0b 30
        E 96 b1 0b 40
        E 96 b1 0b 30
        E 96 b1 0b 20
        E 96 b1 0b 10
        E 96 b1 0b 08
        E 96 b1 0b 10
        E 96 b1 0b 20
        E 80 b1 0b 30
        E 96 b1 0b 40
        E 96 b1 0b 30
        E 96 b1 0b 20
        E 96 b1 0b 10
        E 96 b1 0b 08
        E 96 b1 0b 10
        E 96 b1 0b 20
        E 96 b1 0b 30
        E 80 b1 0b 40
        E 96 b1 0b 30
        E 96 b1 0b 20
        E 96 b1 0b 10
        E 96 b1 0b 08
        E 96 b1 0b 10
        E 96 b1 0b 20
        E 96 b1 0b 30
        E 96 b1 0b 40
        E 80 b1 0b 30
        E 96 b1 0b 20
        E 96 b1 0b 10
        E 96 b1 0b 08
        E 96 b1 0b 10
        E 96 b1 0b 20
        E 96 b1 0b 30
        E 96 b1 0b 40
        E 80 b1 0b 30
        E 96 b1 0b 20
        E 96 b1 0b 10
        E 96 b1 0b 08
        E 96 b1 0b 10
        E 96 b1 0b 20
        E 96 b1 0b 30
        E 96 b1 0b 40
        E 96 b1 0b 30
        E 80 b1 0b 20
        E 96 b1 0b 10
        E 96 b1 0b 08
        E 96 b1 0b 10
        E 96 b1 0b 20
        E 96 b1 0b 30
        E 96 b1 0b 40
        E 96 b1 0b 30
        E 96 b1 0b 20
        E 80 b1 0b 10
        E 96 b1 0b 08
        E 96 b1 0b 10
        E 96 b1 0b 20
        E 96 b1 0b 30
        E 96 b1 0b 40
        E 96 b1 0b 30
        E 80 b1 0b 28
        E 16 b1 0b 20
        E 96 b1 0b 10
        E 80 b1 0b 08
        E 96 b1 0b 10
        E 96 b1 0b 20
        E 96 b1 0b 30
        E 96 b1 0b 40
        E 96 b1 0b 30
        E 96 b1 0b 20
        E 96 b1 0b 10
        E 80 b1 0b 08
        E 96 b1 0b 10
        E 96 b1 0b 20
        E 96 b1 0b 30
        E 96 b1 0b 40
        E 96 b1 0b 30
        E 96 b1 0b 20
        E 96 b1 0b 10
        E 96 b1 0b 08
        E 80 b1 0b 10
        E 96 b1 0b 20
        E 96 b1 0b 30
        E 96 b1 0b 40
        E 96 b1 0c 10
        E 0 b1 0b 28
        E 0 81 26 00
        E 0 91 2b 28
        E 528 b1 0b 20
        E 32 b1 0b 28
        E 816 b1 0b 20
        E 32 b1 0b 28
        E 96 b1 0c 60
        E 0 b1 0b 30
        E 0 81 2b 00
        E 0 91 22 30
        E 96 b1 0b 20
        E 96 b1 0b 10
        E 96 b1 0b 08
        E 96 b1 0b 10
        E 96 b1 0b 20
        E 80 b1 0b 30
        E 96 b1 0b 40
        E 96 b1 0b 30
        E 96 b1 0b 20
        E 96 b1 0b 10
        E 96 b1 0b 08
        E 96 b1 0b 10
        E 96 b1 0b 20
        E 96 b1 0b 30
        E 80 b1 0b 40
        E 96 b1 0b 30
        E 96 b1 0b 20
        E 96 b1 0b 10
        E 96 b1 0b 08
        E 96 b1 0b 10
        E 96 b1 0b 20
        E 96 b1 0b 30
        E 80 b1 0b 40
        E 96 b1 0b 30
        E 96 b1 0b 20
        E 96 b1 0b 10
        E 96 b1 0b 08
        E 96 b1 0b 10
        E 96 b1 0b 20
        E 96 b1 0b 30
        E 96 b1 0b 40
        E 80 b1 0b 30
        E 96 b1 0b 20
        E 96 b1 0b 10
        E 96 b1 0b 08
        E 96 b1 0b 10
        E 96 b1 0b 20
        E 96 b1 0b 30
        E 96 b1 0b 40
        E 96 b1 0b 30
        E 80 b1 0b 20
        E 96 b1 0b 10
        E 96 b1 0b 08
        E 96 b1 0b 10
        E 96 b1 0b 20
        E 96 b1 0b 30
        E 96 b1 0b 40
        E 96 b1 0b 30
        E 96 b1 0b 20
        E 80 b1 0b 10
        E 96 b1 0b 08
        E 96 b1 0b 10
        E 96 b1 0b 20
        E 96 b1 0b 30
        E 96 b1 0b 40
        E 96 b1 0b 30
        E 96 b1 0b 20
        E 80 b1 0b 10
        E 96 b1 0b 08
        E 96 b1 0b 10
        E 96 b1 0b 20
        E 96 b1 0b 30
        E 96 b1 0b 40
        E 96 b1 0b 30
        E 64 b1 0b 28
        E 32 b1 0b 20
        E 96 b1 0b 10
        E 80 b1 0b 08
        E 96 b1 0b 10
        E 96 b1 0b 20
        E 96 b1 0b 30
        E 96 b1 0b 40
        E 96 b1 0b 30
        E 96 b1 0b 20
        E 96 b1 0b 10
        E 96 b1 0b 08
        E 80 b1 0b 10
        E 96 b1 0b 20
        E 96 b1 0b 30
        E 96 b1 0b 40
        E 96 b1 0b 30
        E 96 b1 0b 20
        E 96 b1 0b 10
        E 96 b1 0b 08
        E 80 b1 0b 10
        E 96 b1 0b 20
        E 96 b1 0b 30
        E 96 b1 0b 40
        E 96 b1 0b 30
        E 96 b1 0b 20
        E 96 b1 0b 10
        E 96 b1 0b 08
        E 96 b1 0b 10
        E 80 b1 0b 20
        E 96 b1 0b 30
        E 96 b1 0b 40
        E 96 b1 0b 30
        E 96 b1 0b 20
        E 96 b1 0b 10
        E 96 b1 0b 08
        E 96 b1 0b 10
        E 96 b1 0b 20
        E 80 b1 0b 30
        E 96 b1 0b 40
        E 96 b1 0b 30
        E 96 b1 0b 20
        E 96 b1 0b 10
        E 96 b1 0b 08
        E 96 b1 0b 10
        E 96 b1 0b 20
        E 80 b1 0b 30
        E 96 b1 0b 40
        E 96 b1 0b 30
        E 96 b1 0b 20
        E 96 b1 0b 10
        E 96 b1 0b 08
        E 96 b1 0b 10
        E 96 b1 0b 20
        E 96 b1 0b 30
        E 80 b1 0b 40
        E 96 b1 0b 30
        E 96 b1 0b 20
        E 96 b1 0b 10
        E 96 b1 0b 08
        E 96 b1 0b 10
        E 96 b1 0b 20
        E 96 b1 0b 30
        E 96 b1 0b 40
        E 80 b1 0c 10
        E 0 b1 0b 28
        E 0 81 22 00
        E 0 91 1a 28
        E 256 b1 0b 20
        E 32 b1 0b 28
        E 720 b1 0b 20
        E 128 b1 0b 28
        E 384 b1 0b 30
        E 0 81 1a 00
        E 0 91 26 30
        E 80 b1 0b 10
        E 96 b1 0b 30
        E 0 81 26 00
        E 0 91 29 30
        E 96 b1 0b 10
        E 0 81 29 00
        E 0 91 26 10
        E 96 b1 0b 30
        E 96 b1 0b 10
        E 0 81 26 00
        E 0 91 29 10
        E 96 b1 0b 30
        E 0 81 29 00
        E 0 91 2b 30
        E 64 b1 0b 28
        E 32 b1 0b 10
        E 0 81 2b 00
        E 0 91 26 10
        E 96 b1 0b 18
        E 96 b1 0b 08
        E 0 81 26 00
        E 0 91 2b 08
        E 80 b1 0b 18
        E 0 81 2b 00
        E 0 91 29 18
        E 96 b1 0b 08
        E 0 81 29 00
        E 0 91 26 08
        E 96 b1 0b 18
        E 96 b1 0b 08
        E 0 81 26 00
        E 0 91 29 08
        E 96 b1 0b 18
        E 0 81 29 00
        E 0 91 2b 18
        E 96 b1 0b 08
        E 0 81 2b 00
        E 0 91 26 08
        E 96 b1 0b 30
        E 96 b1 0b 10
        E 0 81 26 00
        E 0 91 2b 10
        E 80 b1 0b 18
        E 16 b1 0b 30
        E 0 81 2b 00
        E 0 91 2d 30
        E 80 b1 0b 10
        E 0 81 2d 00
        E 0 91 26 10
        E 96 b1 0b 30
        E 96 b1 0b 10
        E 0 81 26 00
        E 0 91 2d 10
        E 96 b1 0b 30
        E 0 81 2d 00
        E 0 91 2e 30
        E 96 b1 0b 10
        E 0 81 2e 00
        E 0 91 26 10
        E 96 b1 0b 18
        E 96 b1 0b 08
        E 0 81 26 00
        E 0 91 2e 08
        E 96 b1 0b 18
        E 0 81 2e 00
        E 0 91 29 18
        E 80 b1 0b 08
        E 0 81 29 00
        E 0 91 26 08
        E 96 b1 0b 18
        E 80 b1 0b 20
        E 16 b1 0b 08
        E 0 81 26 00
        E 0 91 2d 08
        E 96 b1 0b 18
        E 0 81 2d 00
        E 0 91 2e 18
        E 96 b1 0b 08
        E 0 81 2e 00
        E 0 91 26 08
        E 96 b1 0b 30
        E 0 81 26 00
        E 0 91 32 30
        E 96 b1 0b 10
        E 0 81 32 00
        E 0 91 2e 10
        E 96 b1 0b 30
        E 0 81 2e 00
        E 0 91 2d 30
        E 96 b1 0b 10
        E 0 81 2d 00
        E 0 91 32 10
        E 80 b1 0b 30
        E 0 81 32 00
        E 0 91 30 30
        E 96 b1 0b 10
        E 0 81 30 00
        E 0 91 2d 10
        E 96 b1 0b 30
        E 0 81 2d 00
        E 0 91 2b 30
        E 96 b1 0b 10
        E 0 81 2b 00
        E 0 91 30 10
        E 64 b1 0b 18
        E 32 81 30 00
        E 0 91 32 18
        E 96 b1 0b 08
        E 0 81 32 00
        E 0 91 2b 08
        E 96 b1 0b 18
        E 0 81 2b 00
        E 0 91 2d 18
        E 96 b1 0b 08
        E 0 81 2d 00
        E 0 91 32 08
        E 96 b1 0b 18
        E 0 81 32 00
        E 0 91 30 18
        E 80 b1 0b 08
        E 0 81 30 00
        E 0 91 2d 08
        E 96 b1 0b 18
        E 0 81 2d 00
        E 0 91 2b 18
        E 96 b1 0b 08
        E 0 81 2b 00
        E 0 91 30 08
        E 96 b1 0b 30
        E 0 81 30 00
        E 0 91 2e 30
        E 96 b1 0b 10
        E 0 81 2e 00
        E 0 91 2b 10
        E 96 b1 0b 30
        E 0 81 2b 00
        E 0 91 29 30
        E 80 b1 0b 28
        E 16 b1 0b 10
        E 0 81 29 00
        E 0 91 2e 10
        E 96 b1 0b 30
        E 0 81 2e 00
        E 0 91 2d 30
        E 80 b1 0b 10
        E 0 81 2d 00
        E 0 91 29 10
        E 96 b1 0b 30
        E 0 81 29 00
        E 0 91 28 30
        E 96 b1 0b 10
        E 0 81 28 00
        E 0 91 2d 10
        E 96 b1 0b 18
        E 0 81 2d 00
        E 0 91 2e 18
        E 96 b1 0b 08
        E 0 81 2e 00
        E 0 91 28 08
        E 96 b1 0b 18
        E 0 81 28 00
        E 0 91 29 18
        E 96 b1 0b 08
        E 0 81 29 00
        E 0 91 2e 08
        E 96 b1 0b 18
        E 0 81 2e 00
        E 0 91 2d 18
        E 96 b1 0b 08
        E 0 81 2d 00
        E 0 91 29 08
        E 64 b1 0b 10
        E 16 b1 0b 18
        E 0 81 29 00
        E 0 91 28 18
        E 96 b1 0b 08
        E 0 81 28 00
        E 0 91 2d 08
        E 96 b1 0c 60
        E 0 b1 0b 30
        E 0 81 2d 00
        E 0 91 1a 30
        E 96 b1 0b 20
        E 96 b1 0b 10
        E 96 b1 0b 08
        E 96 b1 0b 10
        E 96 b1 0b 20
        E 96 b1 0b 30
        E 80 b1 0b 40
        E 96 b1 0b 30
        E 96 b1 0b 20
        E 96 b1 0b 10
        E 96 b1 0b 08
        E 96 b1 0b 10
        E 96 b1 0b 20
        E 96 b1 0b 30
        E 96 b1 0b 40
        E 80 b1 0b 30
        E 96 b1 0b 20
        E 96 b1 0b 10
        E 96 b1 0b 08
        E 96 b1 0b 10
        E 96 b1 0b 20
        E 96 b1 0b 30
        E 96 b1 0b 40
        E 80 b1 0b 30
        E 96 b1 0b 20
        E 96 b1 0b 10
        E 96 b1 0b 08
        E 96 b1 0b 10
        E 96 b1 0b 20
        E 96 b1 0b 30
        E 96 b1 0b 40
        E 96 b1 0b 30
        E 80 b1 0b 20
        E 96 b1 0b 10
        E 96 b1 0b 08
        E 96 b1 0b 10
        E 96 b1 0b 20
        E 96 b1 0b 30
        E 96 b1 0b 40
        E 96 b1 0b 30
        E 96 b1 0b 20
        E 80 b1 0b 10
        E 96 b1 0b 08
        E 96 b1 0b 10
        E 96 b1 0b 20
        E 96 b1 0b 30
        E 96 b1 0b 40
        E 96 b1 0b 30
        E 96 b1 0b 20
        E 80 b1 0b 10
        E 96 b1 0b 08
        E 96 b1 0b 10
        E 96 b1 0b 20
        E 96 b1 0b 30
        E 96 b1 0b 40
        E 96 b1 0b 30
        E 64 b1 0b 28
        E 32 b1 0b 20
        E 96 b1 0b 10
        E 80 b1 0b 08
        E 96 b1 0b 10
        E 96 b1 0b 20
        E 96 b1 0b 30
        E 96 b1 0b 40
        E 96 b1 0b 30
        E 96 b1 0b 20
        E 96 b1 0b 10
        E 96 b1 0b 08
        E 80 b1 0b 10
        E 96 b1 0b 20
        E 96 b1 0b 30
        E 96 b1 0b 40
        E 96 b1 0b 30
        E 96 b1 0b 20
        E 96 b1 0b 10
        E 96 b1 0b 08
        E 80 b1 0b 10
        E 96 b1 0b 20
        E 96 b1 0b 30
        E 96 b1 0b 40
        E 96 b1 0b 30
        E 96 b1 0b 20
        E 96 b1 0b 10
        E 96 b1 0b 08
        E 96 b1 0b 10
        E 80 b1 0b 20
        E 96 b1 0b 30
        E 96 b1 0b 40
        E 96 b1 0b 30
        E 96 b1 0b 20
        E 96 b1 0b 10
        E 96 b1 0b 08
        E 96 b1 0b 10
        E 96 b1 0b 20
        E 80 b1 0b 30
        E 96 b1 0b 40
        E 96 b1 0b 30
        E 96 b1 0b 20
        E 96 b1 0b 10
        E 96 b1 0b 08
        E 96 b1 0b 10
        E 96 b1 0b 20
        E 96 b1 0b 30
        E 80 b1 0b 40
        E 96 b1 0b 30
        E 96 b1 0b 20
        E 96 b1 0b 10
        E 96 b1 0b 08
        E 96 b1 0b 10
        E 96 b1 0b 20
        E 96 b1 0b 30
        E 80 b1 0b 40
        E 96 b1 0b 30
        E 96 b1 0b 20
        E 96 b1 0b 10
        E 96 b1 0b 08
        E 96 b1 0b 10
        E 96 b1 0b 20
        E 96 b1 0b 30
        E 96 b1 0b 40
        E 80 b1 0b 30
        E 96 b1 0b 20
        E 96 b1 0b 10
        E 96 b1 0b 08
        E 96 b1 0b 10
        E 96 b1 0b 20
        E 96 b1 0b 30
        E 96 b1 0b 40
        E 96 b1 0c 10
        E 0 b1 0b 50
        E 0 81 1a 00
        E 0 91 37 50
        E 64 b1 0b 48
        E 16 b1 0b 20
        E 96 b1 0b 50
        E 0 81 37 00
        E 0 91 3c 50
        E 96 b1 0b 20
        E 0 81 3c 00
        E 0 91 37 20
        E 96 b1 0b 50
        E 0 81 37 00
        E 0 91 43 50
        E 96 b1 0b 20
        E 0 81 43 00
        E 0 91 3c 20
        E 96 b1 0b 50
        E 0 81 3c 00
        E 0 91 48 50
        E 96 b1 0b 20
        E 0 81 48 00
        E 0 91 43 20
        E 96 b1 0b 40
        E 0 81 43 00
        E 0 91 37 40
        E 80 b1 0b 18
        E 0 81 37 00
        E 0 91 48 18
        E 96 b1 0b 40
        E 0 81 48 00
        E 0 91 3c 40
        E 96 b1 0b 18
        E 0 81 3c 00
        E 0 91 37 18
        E 80 b1 0b 20
        E 16 b1 0b 40
        E 0 81 37 00
        E 0 91 43 40
        E 96 b1 0b 18
        E 0 81 43 00
        E 0 91 3c 18
        E 96 b1 0b 40
        E 0 81 3c 00
        E 0 91 48 40
        E 96 b1 0b 18
        E 0 81 48 00
        E 0 91 43 18
        E 96 b1 0b 30
        E 0 81 43 00
        E 0 91 37 30
        E 96 b1 0b 10
        E 0 81 37 00
        E 0 91 48 10
        E 80 b1 0b 30
        E 0 81 48 00
        E 0 91 3c 30
        E 96 b1 0b 10
        E 0 81 3c 00
        E 0 91 37 10
        E 96 b1 0b 30
        E 0 81 37 00
        E 0 91 43 30
        E 96 b1 0b 10
        E 0 81 43 00
        E 0 91 3c 10
        E 96 b1 0b 30
        E 0 81 3c 00
        E 0 91 48 30
        E 64 b1 0b 28
        E 32 b1 0b 10
        E 0 81 48 00
        E 0 91 43 10
        E 96 b1 0b 18
        E 0 81 43 00
        E 0 91 37 18
        E 96 b1 0b 08
        E 0 81 37 00
        E 0 91 48 08
        E 96 b1 0b 18
        E 0 81 48 00
        E 0 91 3c 18
        E 80 b1 0b 08
        E 0 81 3c 00
        E 0 91 37 08
        E 96 b1 0b 18
        E 0 81 37 00
        E 0 91 43 18
        E 96 b1 0b 08
        E 0 81 43 00
        E 0 91 3c 08
        E 96 b1 0b 18
        E 0 81 3c 00
        E 0 91 48 18
        E 96 b1 0b 08
        E 0 81 48 00
        E 0 91 43 08
        E 96 b1 0b 50
        E 0 81 43 00
        E 0 91 37 50
        E 80 b1 0b 48
        E 16 b1 0b 20
        E 96 b1 0b 50
        E 0 81 37 00
        E 0 91 3c 50
        E 80 b1 0b 20
        E 0 81 3c 00
        E 0 91 37 20
        E 96 b1 0b 50
        E 0 81 37 00
        E 0 91 43 50
        E 96 b1 0b 20
        E 0 81 43 00
        E 0 91 3c 20
        E 96 b1 0b 50
        E 0 81 3c 00
        E 0 91 48 50
        E 96 b1 0b 20
        E 0 81 48 00
        E 0 91 43 20
        E 96 b1 0b 40
        E 0 81 43 00
        E 0 91 37 40
        E 96 b1 0b 18
        E 0 81 37 00
        E 0 91 48 18
        E 96 b1 0b 40
        E 0 81 48 00
        E 0 91 3c 40
        E 96 b1 0b 18
        E 0 81 3c 00
        E 0 91 37 18
        E 80 b1 0b 40
        E 0 81 37 00
        E 0 91 43 40
        E 80 b1 0b 38
        E 16 b1 0b 18
        E 0 81 43 00
        E 0 91 3c 18
        E 96 b1 0b 40
        E 0 81 3c 00
        E 0 91 48 40
        E 96 b1 0b 18
        E 0 81 48 00
        E 0 91 43 18
        E 96 b1 0b 30
        E 0 81 43 00
        E 0 91 37 30
        E 96 b1 0b 10
        E 0 81 37 00
        E 0 91 48 10
        E 96 b1 0b 30
        E 0 81 48 00
        E 0 91 3c 30
        E 96 b1 0b 10
        E 0 81 3c 00
        E 0 91 37 10
        E 96 b1 0b 30
        E 0 81 37 00
        E 0 91 43 30
        E 80 b1 0b 10
        E 0 81 43 00
        E 0 91 3c 10
        E 96 b1 0b 30
        E 0 81 3c 00
        E 0 91 48 30
        E 96 b1 0b 10
        E 0 81 48 00
        E 0 91 43 10
        E 64 b1 0b 18
        E 32 81 43 00
        E 0 91 37 18
        E 96 b1 0b 08
        E 0 81 37 00
        E 0 91 48 08
        E 96 b1 0b 18
        E 0 81 48 00
        E 0 91 3c 18
        E 96 b1 0b 08
        E 0 81 3c 00
        E 0 91 37 08
        E 96 b1 0b 18
        E 0 81 37 00
        E 0 91 43 18
        E 96 b1 0b 08
        E 0 81 43 00
        E 0 91 3c 08
        E 80 b1 0b 18
        E 0 81 3c 00
        E 0 91 48 18
        E 96 b1 0b 08
        E 0 81 48 00
        E 0 91 43 08
        E 96 b1 0c 60
        E 0 b1 0b 30
        E 0 81 43 00
        E 0 91 1a 30
        E 96 b1 0b 20
        E 96 b1 0b 10
        E 96 b1 0b 08
        E 96 b1 0b 10
        E 96 b1 0b 20
        E 80 b1 0b 30
        E 96 b1 0b 40
        E 96 b1 0b 30
        E 80 b1 0b 28
        E 16 b1 0b 20
        E 96 b1 0b 10
        E 96 b1 0b 08
        E 96 b1 0b 10
        E 96 b1 0b 20
        E 96 b1 0b 30
        E 80 b1 0b 40
        E 96 b1 0b 30
        E 96 b1 0b 20
        E 96 b1 0b 10
        E 96 b1 0b 08
        E 96 b1 0b 10
        E 96 b1 0b 20
        E 96 b1 0b 30
        E 96 b1 0b 40
        E 80 b1 0b 30
        E 96 b1 0b 20
        E 96 b1 0b 10
        E 96 b1 0b 08
        E 96 b1 0b 10
        E 96 b1 0b 20
        E 96 b1 0b 30
        E 96 b1 0b 40
        E 80 b1 0b 30
        E 96 b1 0b 20
        E 96 b1 0b 10
        E 96 b1 0b 08
        E 96 b1 0b 10
        E 96 b1 0b 20
        E 96 b1 0b 30
        E 96 b1 0b 40
        E 96 b1 0b 30
        E 80 b1 0b 20
        E 96 b1 0b 10
        E 96 b1 0b 08
        E 96 b1 0b 10
        E 96 b1 0b 20
        E 96 b1 0b 30
        E 96 b1 0b 40
        E 96 b1 0b 30
        E 96 b1 0b 20
        E 80 b1 0b 10
        E 96 b1 0b 08
        E 96 b1 0b 10
        E 96 b1 0b 20
        E 96 b1 0b 30
        E 96 b1 0b 40
        E 96 b1 0b 30
        E 96 b1 0b 20
        E 80 b1 0b 10
        E 96 b1 0b 08
        E 96 b1 0b 10
        E 96 b1 0b 20
        E 96 b1 0b 30
        E 96 b1 0b 40
        E 96 b1 0b 30
        E 96 b1 0b 20
        E 96 b1 0b 10
        E 80 b1 0b 08
        E 96 b1 0b 10
        E 96 b1 0b 20
        E 96 b1 0b 30
        E 96 b1 0b 40
        E 96 b1 0b 30
        E 96 b1 0b 20
        E 96 b1 0b 10
        E 96 b1 0b 08
        E 80 b1 0b 10
        E 96 b1 0b 20
        E 96 b1 0b 30
        E 96 b1 0b 40
        E 96 b1 0b 30
        E 96 b1 0b 20
        E 96 b1 0b 10
        E 96 b1 0b 08
        E 96 b1 0b 10
        E 80 b1 0b 20
        E 96 b1 0b 30
        E 96 b1 0b 40
        E 96 b1 0b 30
        E 64 b1 0b 28
        E 32 b1 0b 20
        E 96 b1 0b 10
        E 96 b1 0b 08
        E 96 b1 0b 10
        E 80 b1 0b 20
        E 96 b1 0b 30
        E 96 b1 0b 40
        E 96 b1 0b 30
        E 96 b1 0b 20
        E 96 b1 0b 10
        E 96 b1 0b 08
        E 96 b1 0b 10
        E 96 b1 0b 20
        E 80 b1 0b 30
        E 96 b1 0b 40
        E 96 b1 0b 30
        E 96 b1 0b 20
        E 96 b1 0b 10
        E 96 b1 0b 08
        E 96 b1 0b 10
        E 96 b1 0b 20
        E 96 b1 0b 30
        E 80 b1 0b 40
        E 96 b1 0b 30
        E 96 b1 0b 20
        E 96 b1 0b 10
        E 96 b1 0b 08
        E 96 b1 0b 10
        E 96 b1 0b 20
        E 96 b1 0b 30
        E 80 b1 0b 40
        E 96 b1 0b 30
        E 96 b1 0b 20
        E 96 b1 0b 10
        E 96 b1 0b 08
        E 96 b1 0b 10
        E 96 b1 0b 20
        E 96 b1 0b 30
        E 96 b1 0b 40
        E 80 b1 0b 30
        E 96 b1 0b 20
        E 96 b1 0b 10
        E 96 b1 0b 08
        E 96 b1 0b 10
        E 96 b1 0b 20
        E 96 b1 0b 30
        E 96 b1 0b 40
        E 96 b1 0b 30
        E 80 b1 0b 20
        E 96 b1 0b 10
        E 96 b1 0b 08
        E 96 b1 0b 10
        E 96 b1 0b 20
        E 96 b1 0b 30
        E 96 b1 0b 40
        E 96 b1 0b 30
        E 80 b1 0b 20
        E 96 b1 0b 10
        E 96 b1 0b 08
        E 96 b1 0b 10
        E 96 b1 0b 20
        E 16 81 1a 00
        E 0 ff 2f 00
      >
    >
  >
  <TRACK {04594289-B8B0-4F0A-B7ED-F7059D249EBF}
    NAME "NES - Triangle [ch2]"
    PEAKCOL 16744192
    BEAT -1
    AUTOMODE 0
    PANLAWFLAGS 3
    VOLPAN 1 0 -1 -1 1
    MUTESOLO 0 0 0
    IPHASE 0
    PLAYOFFS 0 1
    ISBUS 0 0
    BUSCOMP 0 0 0 0 0
    SHOWINMIX 1 0.6667 0.5 1 0.5 0 0 0
    FIXEDLANES 9 0 0 0 0
    SEL 0
    REC 0 5088 1 0 0 0 0 0
    VU 2
    TRACKHEIGHT 0 0 0 0 0 0 0
    INQ 0 0 0 0.5 100 0 0 100
    NCHAN 2
    FX 1
    TRACKID {04594289-B8B0-4F0A-B7ED-F7059D249EBF}
    PERF 0
    MIDIOUT -1
    MAINSEND 1 0
    <FXCHAIN
      WNDRECT 24 52 700 560
      SHOW 0
      LASTSEL 0
      DOCKED 0
      BYPASS 0 0 0
      <JS "ReapNES Studio/ReapNES_Console.jsfx" ""
        2 15 1 10 80 10 100 2 1 15 1 5 60 10 80 1 1 0 50 0 0 15 1 0 100 0 0 0.500000 0.500000 0.400000 0.300000 0.800000 2 1 0 0 0 0 - - - - - - - - - - - - - - - - - - - - - - - - - -
      >
      FLOATPOS 0 0 0 0
      FXID {AED536EF-C676-45B8-87E7-55A13F2C7F83}
      WAK 0 0
    >
    <ITEM
      POSITION 0
      LENGTH 83.98134
      LOOP 0
      ALLTAKES 0
      FADEIN 0 0 0 0 0 0 0
      FADEOUT 0 0 0 0 0 0 0
      MUTE 0 0
      SEL 0
      IGUID {F3CE22A4-D3C3-47E9-A23E-F0355BF596FB}
      <SOURCE MIDI
        HASDATA 1 480 QN
        CCINTERP 32
        E 0 c2 26
        E 80 b2 0b 7f
        E 0 92 26 7f
        E 9040 82 26 00
        E 0 b2 0b 7f
        E 0 92 32 7f
        E 416 82 32 00
        E 0 b2 0b 7f
        E 0 92 31 7f
        E 32 82 31 00
        E 0 b2 0b 7f
        E 0 92 32 7f
        E 16 82 32 00
        E 0 b2 0b 7f
        E 0 92 31 7f
        E 832 82 31 00
        E 0 b2 0b 7f
        E 0 92 30 7f
        E 864 82 30 00
        E 0 b2 0b 7f
        E 0 92 2f 7f
        E 32 82 2f 00
        E 0 b2 0b 7f
        E 0 92 30 7f
        E 16 82 30 00
        E 0 b2 0b 7f
        E 0 92 2f 7f
        E 928 82 2f 00
        E 0 b2 0b 7f
        E 0 92 2e 7f
        E 32 82 2e 00
        E 0 b2 0b 7f
        E 0 92 2f 7f
        E 16 82 2f 00
        E 0 b2 0b 7f
        E 0 92 2e 7f
        E 944 82 2e 00
        E 0 b2 0b 7f
        E 0 92 2d 7f
        E 1088 82 2d 00
        E 0 b2 0b 7f
        E 0 92 2c 7f
        E 816 82 2c 00
        E 6032 b2 0b 7f
        E 0 92 26 7f
        E 12048 82 26 00
        E 0 b2 0b 7f
        E 0 92 24 7f
        E 1504 82 24 00
        E 0 b2 0b 7f
        E 0 92 2e 7f
        E 12048 82 2e 00
        E 0 b2 0b 7f
        E 0 92 24 7f
        E 1520 82 24 00
        E 6016 b2 0b 7f
        E 0 92 26 7f
        E 12048 82 26 00
        E 0 b2 0b 7f
        E 0 92 30 7f
        E 3024 82 30 00
        E 0 b2 0b 7f
        E 0 92 24 7f
        E 3008 82 24 00
        E 3008 b2 0b 7f
        E 0 92 26 7f
        E 10992 82 26 00
        E 0 ff 2f 00
      >
    >
  >
  <TRACK {6118F018-B635-4D99-B97F-C40C2F120821}
    NAME "NES - Noise / Drums [ch3]"
    PEAKCOL 11184810
    BEAT -1
    AUTOMODE 0
    PANLAWFLAGS 3
    VOLPAN 1 0 -1 -1 1
    MUTESOLO 0 0 0
    IPHASE 0
    PLAYOFFS 0 1
    ISBUS 0 0
    BUSCOMP 0 0 0 0 0
    SHOWINMIX 1 0.6667 0.5 1 0.5 0 0 0
    FIXEDLANES 9 0 0 0 0
    SEL 0
    REC 0 5088 1 0 0 0 0 0
    VU 2
    TRACKHEIGHT 0 0 0 0 0 0 0
    INQ 0 0 0 0.5 100 0 0 100
    NCHAN 2
    FX 1
    TRACKID {6118F018-B635-4D99-B97F-C40C2F120821}
    PERF 0
    MIDIOUT -1
    MAINSEND 1 0
    <FXCHAIN
      WNDRECT 24 52 700 560
      SHOW 0
      LASTSEL 0
      DOCKED 0
      BYPASS 0 0 0
      <JS "ReapNES Studio/ReapNES_Console.jsfx" ""
        2 15 1 10 80 10 100 2 1 15 1 5 60 10 80 1 1 0 50 0 0 15 1 0 100 0 0 0.500000 0.500000 0.400000 0.300000 0.800000 3 1 0 0 0 0 - - - - - - - - - - - - - - - - - - - - - - - - - -
      >
      FLOATPOS 0 0 0 0
      FXID {1975B7A1-8910-4A13-8FAD-1AF395E4DC24}
      WAK 0 0
    >
    <ITEM
      POSITION 0
      LENGTH 83.98134
      LOOP 0
      ALLTAKES 0
      FADEIN 0 0 0 0 0 0 0
      FADEOUT 0 0 0 0 0 0 0
      MUTE 0 0
      SEL 0
      IGUID {ED88102D-D8CF-4C8B-8A6B-7D431F756E7D}
      <SOURCE MIDI
        HASDATA 1 480 QN
        CCINTERP 32
        E 32 93 2a 28
        E 86368 83 2a 00
        E 0 ff 2f 00
      >
    >
  >
>