<REAPER_PROJECT 0.1 "7.27/win64" 1707000000
  <NOTES 0 2
    |ReapNES Studio Project
    |MIDI Import - Battletoads_17_Song_17_v1
  >
  RIPPLE 0
  GROUPOVERRIDE 0 0 0
  AUTOXFADE 129
  ENVATTACH 3
  POOLEDENVATTACH 0
  MIXERUIFLAGS 11 48
  ENVFADESZ10 40
  PEAKGAIN 1
  FEEDBACK 0
  PANLAW 1
  PROJOFFS 0 0 0
  MAXPROJLEN 0 0
  GRID 3199 8 1 8 1 0 0 0
  TIMEMODE 1 5 -1 30 0 0 -1
  VIDEO_CONFIG 0 0 65792
  PANMODE 3
  PANLAWFLAGS 3
  CURSOR 0
  ZOOM 100 0 0
  VZOOMEX 6 0
  USE_REC_CFG 0
  RECMODE 1
  SMPTESYNC 0 30 100 40 1000 300 0 0 1 0 0
  LOOP 0
  LOOPGRAN 0 4
  RECORD_PATH "Media" ""
  <RECORD_CFG
    ZXZhdxgAAQ==
  >
  <APPLYFX_CFG
  >
  RENDER_FILE ""
  RENDER_PATTERN ""
  RENDER_FMT 0 2 0
  RENDER_1X 0
  RENDER_RANGE 1 0 0 18 1000
  RENDER_RESAMPLE 3 0 1
  RENDER_ADDTOPROJ 0
  RENDER_STEMS 0
  RENDER_DITHER 0
  TIMELOCKMODE 1
  TEMPOENVLOCKMODE 1
  ITEMMIX 1
  DEFPITCHMODE 589824 0
  TAKELANE 1
  SAMPLERATE 44100 0 0
  <RENDER_CFG
    ZXZhdxgAAQ==
  >
  LOCK 1
  <METRONOME 6 2
    VOL 0.25 0.125
    BEATLEN 4
    FREQ 1760 880 1
    SAMPLES "" ""
    SPLIGNORE 0 0
    SPLDEF 2 660 "" 0
    SPLDEF 3 440 "" 0
    PATTERN 0 169
    PATTERNSTR ABBB
    MULT 1
  >
  GLOBAL_AUTO -1
  TEMPO 128.59999614200012 4 4
  PLAYRATE 1 0 0.25 4
  SELECTION 0 0
  SELECTION2 0 0
  MASTERAUTOMODE 0
  MASTERTRACKHEIGHT 0 0
  MASTERPEAKCOL 16576
  MASTERMUTESOLO 0
  MASTERTRACKVIEW 0 0.6667 0.5 0.5 0 0 0 0 0 0 0 0 0 0
  MASTERHWOUT 0 0 1 0 0 0 0 -1
  MASTER_NCH 2 2
  MASTER_VOLUME 1 0 -1 -1 1
  MASTER_PANMODE 3
  MASTER_PANLAWFLAGS 3
  MASTER_FX 1
  MASTER_SEL 0
  <MASTERPLAYSPEEDENV
    EGUID {1928FE8A-F0B4-4BFC-8559-E73E4A479054}
    ACT 0 -1
    VIS 0 1 1
    LANEHEIGHT 0 0
    ARM 0
    DEFSHAPE 0 -1 -1
  >
  <TEMPOENVEX
    EGUID {98F066F6-48AC-44A4-9461-8D7177E8F8CD}
    ACT 1 -1
    VIS 1 0 1
    LANEHEIGHT 0 0
    ARM 0
    DEFSHAPE 1 -1 -1
  >
  <PROJBAY
  >
  <TRACK {DBEECA8B-B493-4758-8154-CEC50C90FA51}
    NAME "NES - Pulse 1 [ch0]"
    PEAKCOL 16576606
    BEAT -1
    AUTOMODE 0
    PANLAWFLAGS 3
    VOLPAN 1 0 -1 -1 1
    MUTESOLO 0 0 0
    IPHASE 0
    PLAYOFFS 0 1
    ISBUS 0 0
    BUSCOMP 0 0 0 0 0
    SHOWINMIX 1 0.6667 0.5 1 0.5 0 0 0
    FIXEDLANES 9 0 0 0 0
    SEL 1
    REC 0 5088 1 0 0 0 0 0
    VU 2
    TRACKHEIGHT 0 0 0 0 0 0 0
    INQ 0 0 0 0.5 100 0 0 100
    NCHAN 2
    FX 1
    TRACKID {DBEECA8B-B493-4758-8154-CEC50C90FA51}
    PERF 0
    MIDIOUT -1
    MAINSEND 1 0
    <FXCHAIN
      WNDRECT 24 52 700 560
      SHOW 0
      LASTSEL 0
      DOCKED 0
      BYPASS 0 0 0
      <JS "ReapNES Studio/ReapNES_Console.jsfx" ""
        2 15 1 10 80 10 100 2 1 15 1 5 60 10 80 1 1 0 50 0 0 15 1 0 100 0 0 0.500000 0.500000 0.400000 0.300000 0.800000 0 1 0 0 0 0 - - - - - - - - - - - - - - - - - - - - - - - - - -
      >
      FLOATPOS 0 0 0 0
      FXID {C63941D3-A32B-4E0A-B5C9-B00753E3E941}
      WAK 0 0
    >
    <ITEM
      POSITION 0
      LENGTH 83.98134
      LOOP 0
      ALLTAKES 0
      FADEIN 0 0 0 0 0 0 0
      FADEOUT 0 0 0 0 0 0 0
      MUTE 0 0
      SEL 0
      IGUID {D94A5DAD-3F49-4636-8E62-3BBAE7CE62AF}
      <SOURCE MIDI
        HASDATA 1 480 QN
        CCINTERP 32
        E 0 c0 50
        E 16 b0 0c 10
        E 0 b0 0b 20
        E 0 90 3d 20
        E 48 80 3d 00
        E 0 90 3e 20
        E 32 80 3e 00
        E 0 90 3f 20
        E 48 80 3f 00
        E 0 90 34 20
        E 192 b0 0b 18
        E 176 b0 0b 10
        E 0 80 34 00
        E 0 90 33 10
        E 560 80 33 00
        E 0 90 32 10
        E 624 80 32 00
        E 0 90 31 10
        E 688 80 31 00
        E 0 90 30 10
        E 688 80 30 00
        E 0 90 2f 10
        E 736 80 2f 00
        E 0 90 2e 10
        E 800 80 2e 00
        E 0 90 2d 10
        E 704 b0 0b 20
        E 0 80 2d 00
        E 0 90 26 20
        E 176 80 26 00
        E 0 90 28 20
        E 80 b0 0b 18
        E 96 b0 0b 20
        E 0 80 28 00
        E 0 90 43 20
        E 128 b0 0b 18
        E 48 b0 0c 20
        E 0 b0 0b 38
        E 0 80 43 00
        E 0 90 28 38
        E 64 b0 0b 30
        E 112 b0 0b 28
        E 112 80 28 00
        E 80 b0 0b 38
        E 0 90 2a 38
        E 48 b0 0b 30
        E 112 b0 0b 28
        E 112 b0 0b 20
        E 16 80 2a 00
        E 64 b0 0b 38
        E 0 90 2b 38
        E 32 b0 0b 30
        E 112 b0 0b 28
        E 112 b0 0b 20
        E 32 80 2b 00
        E 240 b0 0c 10
        E 0 b0 0b 30
        E 0 90 37 30
        E 80 b0 0b 28
        E 0 80 37 00
        E 0 90 38 28
        E 112 b0 0b 20
        E 48 80 38 00
        E 0 90 39 20
        E 64 b0 0b 18
        E 64 b0 0b 30
        E 48 b0 0b 28
        E 112 b0 0b 20
        E 16 b0 0b 30
        E 96 b0 0b 28
        E 80 b0 0b 30
        E 32 b0 0b 28
        E 112 b0 0b 20
        E 32 b0 0b 30
        E 80 b0 0b 28
        E 96 b0 0b 30
        E 0 80 39 00
        E 0 90 37 30
        E 32 b0 0b 28
        E 112 b0 0b 20
        E 112 b0 0b 18
        E 112 b0 0b 10
        E 112 b0 0b 08
        E 48 b0 0c 20
        E 0 b0 0b 38
        E 0 80 37 00
        E 0 90 2d 38
        E 64 b0 0b 30
        E 112 b0 0b 28
        E 112 b0 0b 20
        E 16 80 2d 00
        E 64 b0 0b 38
        E 0 90 2a 38
        E 32 b0 0b 30
        E 128 b0 0b 28
        E 112 b0 0b 20
        E 16 80 2a 00
        E 64 b0 0b 38
        E 0 90 2b 38
        E 32 b0 0b 30
        E 112 b0 0b 28
        E 112 b0 0b 20
        E 32 80 2b 00
        E 240 b0 0c 10
        E 0 b0 0b 30
        E 0 90 21 30
        E 16 b0 0b 28
        E 48 b0 0b 20
        E 64 b0 0b 18
        E 48 b0 0b 10
        E 64 b0 0b 08
        E 64 80 21 00
        E 64 b0 0b 30
        E 0 90 21 30
        E 48 b0 0b 28
        E 48 b0 0b 20
        E 64 b0 0b 18
        E 16 b0 0b 30
        E 0 80 21 00
        E 0 90 23 30
        E 32 b0 0b 28
        E 64 b0 0b 20
        E 48 b0 0b 18
        E 32 b0 0b 30
        E 32 b0 0b 28
        E 64 b0 0b 20
        E 48 b0 0b 18
        E 32 b0 0b 30
        E 0 80 23 00
        E 0 90 24 30
        E 32 b0 0b 28
        E 48 b0 0b 20
        E 64 b0 0b 18
        E 32 b0 0b 30
        E 0 80 24 00
        E 0 90 26 30
        E 16 b0 0b 28
        E 64 b0 0b 20
        E 48 b0 0b 18
        E 48 b0 0b 30
        E 0 80 26 00
        E 0 90 28 30
        E 16 b0 0b 28
        E 64 b0 0b 20
        E 48 b0 0b 18
        E 48 b0 0b 20
        E 0 80 28 00
        E 0 90 43 20
        E 176 b0 0b 18
        E 16 b0 0c 20
        E 0 b0 0b 38
        E 0 80 43 00
        E 0 90 28 38
        E 96 b0 0b 30
        E 128 b0 0b 28
        E 64 80 28 00
        E 64 b0 0b 38
        E 0 90 2a 38
        E 96 b0 0b 30
        E 112 b0 0b 28
        E 80 80 2a 00
        E 64 b0 0b 38
        E 0 90 2b 38
        E 80 b0 0b 30
        E 112 b0 0b 28
        E 96 80 2b 00
        E 240 b0 0c 10
        E 0 b0 0b 30
        E 0 90 37 30
        E 64 b0 0b 28
        E 0 80 37 00
        E 0 90 38 28
        E 112 b0 0b 20
        E 64 80 38 00
        E 0 90 39 20
        E 48 b0 0b 18
        E 80 b0 0b 30
        E 32 b0 0b 28
        E 128 b0 0b 20
        E 16 b0 0b 30
        E 96 b0 0b 28
        E 80 b0 0b 30
        E 32 b0 0b 28
        E 112 b0 0b 20
        E 32 b0 0b 30
        E 80 b0 0b 28
        E 96 b0 0b 30
        E 0 80 39 00
        E 0 90 37 30
        E 16 b0 0b 28
        E 112 b0 0b 20
        E 112 b0 0b 18
        E 112 b0 0b 10
        E 128 b0 0b 08
        E 64 b0 0c 20
        E 0 b0 0b 38
        E 0 80 37 00
        E 0 90 2d 38
        E 96 b0 0b 30
        E 112 b0 0b 28
        E 80 80 2d 00
        E 64 b0 0b 38
        E 0 90 2a 38
        E 96 b0 0b 30
        E 112 b0 0b 28
        E 80 80 2a 00
        E 64 b0 0b 38
        E 0 90 2b 38
        E 80 b0 0b 30
        E 112 b0 0b 28
        E 96 80 2b 00
        E 256 b0 0c 10
        E 0 b0 0b 30
        E 0 90 21 30
        E 48 b0 0b 28
        E 48 b0 0b 20
        E 64 b0 0b 18
        E 64 b0 0b 10
        E 48 b0 0b 08
        E 64 80 21 00
        E 16 b0 0b 30
        E 0 90 21 30
        E 32 b0 0b 28
        E 64 b0 0b 20
        E 48 b0 0b 18
        E 32 b0 0b 30
        E 0 80 21 00
        E 0 90 23 30
        E 32 b0 0b 28
        E 48 b0 0b 20
        E 64 b0 0b 18
        E 32 b0 0b 30
        E 32 b0 0b 28
        E 48 b0 0b 20
        E 64 b0 0b 18
        E 32 b0 0b 30
        E 0 80 23 00
        E 0 90 24 30
        E 16 b0 0b 28
        E 64 b0 0b 20
        E 48 b0 0b 18
        E 48 b0 0b 30
        E 0 80 24 00
        E 0 90 26 30
        E 16 b0 0b 28
        E 48 b0 0b 20
        E 64 b0 0b 18
        E 48 b0 0b 30
        E 0 80 26 00
        E 0 90 28 30
        E 16 b0 0b 28
        E 48 b0 0b 20
        E 64 b0 0b 18
        E 48 b0 0b 10
        E 16 b0 0b 20
        E 0 80 28 00
        E 0 90 43 20
        E 176 b0 0b 30
        E 0 80 43 00
        E 0 90 2d 30
        E 96 b0 0b 28
        E 112 b0 0b 20
        E 80 80 2d 00
        E 64 b0 0b 30
        E 0 90 2d 30
        E 80 b0 0b 28
        E 112 b0 0b 20
        E 128 b0 0b 18
        E 32 80 2d 00
        E 176 b0 0b 30
        E 0 90 2d 30
        E 16 b0 0b 28
        E 112 b0 0b 20
        E 112 b0 0b 18
        E 112 b0 0b 10
        E 16 80 2d 00
        E 176 b0 0b 30
        E 0 90 2b 30
        E 32 b0 0b 28
        E 112 b0 0b 20
        E 128 b0 0b 18
        E 16 80 2b 00
        E 64 b0 0b 30
        E 0 90 2b 30
        E 32 b0 0b 28
        E 112 b0 0b 20
        E 112 b0 0b 18
        E 96 80 2b 00
        E 176 b0 0b 30
        E 0 90 2b 30
        E 64 b0 0b 28
        E 112 b0 0b 20
        E 112 b0 0b 18
        E 80 80 2b 00
        E 176 b0 0b 30
        E 0 90 2a 30
        E 96 b0 0b 28
        E 112 b0 0b 20
        E 80 80 2a 00
        E 64 b0 0b 30
        E 0 90 2a 30
        E 80 b0 0b 28
        E 112 b0 0b 20
        E 112 b0 0b 18
        E 48 80 2a 00
        E 176 b0 0b 30
        E 0 90 2a 30
        E 16 b0 0b 28
        E 112 b0 0b 20
        E 112 b0 0b 18
        E 112 b0 0b 10
        E 16 80 2a 00
        E 176 b0 0b 30
        E 0 90 2d 30
        E 32 b0 0b 28
        E 112 b0 0b 20
        E 112 b0 0b 18
        E 96 b0 0b 28
        E 0 80 2d 00
        E 0 90 3c 28
        E 16 b0 0b 20
        E 96 b0 0b 10
        E 0 80 3c 00
        E 0 90 2d 10
        E 64 b0 0b 28
        E 0 80 2d 00
        E 0 90 3b 28
        E 16 b0 0b 20
        E 96 b0 0b 10
        E 0 80 3b 00
        E 0 90 3c 10
        E 16 b0 0b 08
        E 48 b0 0b 28
        E 0 80 3c 00
        E 0 90 37 28
        E 64 b0 0b 20
        E 48 b0 0b 10
        E 0 80 37 00
        E 0 90 3b 10
        E 64 b0 0b 08
        E 16 b0 0b 28
        E 0 80 3b 00
        E 0 90 39 28
        E 96 b0 0b 10
        E 0 80 39 00
        E 0 90 37 10
        E 16 b0 0b 08
        E 64 b0 0b 28
        E 0 80 37 00
        E 0 90 34 28
        E 48 b0 0b 20
        E 64 b0 0b 10
        E 0 80 34 00
        E 0 90 39 10
        E 48 b0 0b 08
        E 16 b0 0b 28
        E 0 80 39 00
        E 0 90 37 28
        E 96 b0 0b 20
        E 16 b0 0b 10
        E 0 80 37 00
        E 0 90 34 10
        E 64 b0 0b 30
        E 0 80 34 00
        E 0 90 2d 30
        E 96 b0 0b 28
        E 112 b0 0b 20
        E 80 80 2d 00
        E 64 b0 0b 30
        E 0 90 2d 30
        E 80 b0 0b 28
        E 112 b0 0b 20
        E 112 b0 0b 18
        E 48 80 2d 00
        E 192 b0 0b 30
        E 0 90 2d 30
        E 96 b0 0b 28
        E 128 b0 0b 20
        E 112 b0 0b 18
        E 16 80 2d 00
        E 176 b0 0b 30
        E 0 90 2b 30
        E 32 b0 0b 28
        E 112 b0 0b 20
        E 112 b0 0b 18
        E 32 80 2b 00
        E 64 b0 0b 30
        E 0 90 2b 30
        E 16 b0 0b 28
        E 112 b0 0b 20
        E 112 b0 0b 18
        E 112 80 2b 00
        E 192 b0 0b 30
        E 0 90 2b 30
        E 48 b0 0b 28
        E 112 b0 0b 20
        E 112 b0 0b 18
        E 80 80 2b 00
        E 176 b0 0b 30
        E 0 90 2a 30
        E 80 b0 0b 28
        E 112 b0 0b 20
        E 96 80 2a 00
        E 64 b0 0b 30
        E 0 90 2a 30
        E 80 b0 0b 28
        E 112 b0 0b 20
        E 112 b0 0b 18
        E 64 80 2a 00
        E 176 b0 0b 30
        E 0 90 2a 30
        E 96 b0 0b 28
        E 112 b0 0b 20
        E 112 b0 0b 18
        E 32 80 2a 00
        E 176 b0 0b 30
        E 0 90 2d 30
        E 32 b0 0b 28
        E 112 b0 0b 20
        E 112 b0 0b 18
        E 32 80 2d 00
        E 64 b0 0b 30
        E 0 90 2d 30
        E 16 b0 0b 28
        E 112 b0 0b 20
        E 112 b0 0b 18
        E 112 b0 0b 10
        E 16 80 2d 00
        E 176 b0 0b 30
        E 0 90 2f 30
        E 48 b0 0b 28
        E 112 b0 0b 20
        E 112 b0 0b 18
        E 80 b0 0b 20
        E 0 80 2f 00
        E 0 90 37 20
        E 208 b0 0b 18
        E 160 b0 0b 10
        E 64 80 37 00
        E 0 90 36 10
        E 512 80 36 00
        E 0 90 35 10
        E 512 80 35 00
        E 0 90 34 10
        E 560 80 34 00
        E 0 90 33 10
        E 576 80 33 00
        E 0 90 32 10
        E 256 b0 0b 20
        E 0 80 32 00
        E 0 90 43 20
        E 176 b0 0c 20
        E 0 b0 0b 38
        E 0 80 43 00
        E 0 90 28 38
        E 80 b0 0b 30
        E 112 b0 0b 28
        E 96 80 28 00
        E 64 b0 0b 38
        E 0 90 2a 38
        E 64 b0 0b 30
        E 112 b0 0b 28
        E 112 b0 0b 20
        E 16 80 2a 00
        E 64 b0 0b 38
        E 0 90 2b 38
        E 48 b0 0b 30
        E 112 b0 0b 28
        E 112 b0 0b 20
        E 16 80 2b 00
        E 240 b0 0c 10
        E 0 b0 0b 30
        E 0 90 37 30
        E 80 b0 0b 28
        E 0 80 37 00
        E 0 90 38 28
        E 112 b0 0b 20
        E 64 80 38 00
        E 0 90 39 20
        E 48 b0 0b 18
        E 48 b0 0b 30
        E 64 b0 0b 28
        E 112 b0 0b 30
        E 16 b0 0b 28
        E 112 b0 0b 20
        E 64 b0 0b 30
        E 48 b0 0b 28
        E 112 b0 0b 20
        E 16 b0 0b 30
        E 96 b0 0b 28
        E 80 b0 0b 30
        E 0 80 39 00
        E 0 90 37 30
        E 32 b0 0b 28
        E 112 b0 0b 20
        E 112 b0 0b 18
        E 112 b0 0b 10
        E 128 b0 0b 08
        E 32 b0 0c 20
        E 0 b0 0b 38
        E 0 80 37 00
        E 0 90 2d 38
        E 80 b0 0b 30
        E 112 b0 0b 28
        E 96 80 2d 00
        E 80 b0 0b 38
        E 0 90 2a 38
        E 48 b0 0b 30
        E 112 b0 0b 28
        E 112 b0 0b 20
        E 16 80 2a 00
        E 64 b0 0b 38
        E 0 90 2b 38
        E 32 b0 0b 30
        E 112 b0 0b 28
        E 128 b0 0b 20
        E 16 80 2b 00
        E 240 b0 0c 10
        E 0 b0 0b 30
        E 0 90 21 30
        E 16 b0 0b 28
        E 64 b0 0b 20
        E 48 b0 0b 18
        E 64 b0 0b 10
        E 64 b0 0b 08
        E 48 80 21 00
        E 48 b0 0b 30
        E 0 90 21 30
        E 16 b0 0b 28
        E 48 b0 0b 20
        E 64 b0 0b 18
        E 48 b0 0b 10
        E 16 b0 0b 30
        E 0 80 21 00
        E 0 90 23 30
        E 48 b0 0b 28
        E 48 b0 0b 20
        E 64 b0 0b 18
        E 16 b0 0b 30
        E 48 b0 0b 28
        E 48 b0 0b 20
        E 64 b0 0b 18
        E 16 b0 0b 30
        E 0 80 23 00
        E 0 90 24 30
        E 32 b0 0b 28
        E 64 b0 0b 20
        E 48 b0 0b 18
        E 32 b0 0b 30
        E 0 80 24 00
        E 0 90 26 30
        E 32 b0 0b 28
        E 48 b0 0b 20
        E 64 b0 0b 18
        E 32 b0 0b 30
        E 0 80 26 00
        E 0 90 28 30
        E 32 b0 0b 28
        E 48 b0 0b 20
        E 64 b0 0b 18
        E 32 b0 0b 20
        E 0 80 28 00
        E 0 90 43 20
        E 176 b0 0c 20
        E 0 b0 0b 38
        E 0 80 43 00
        E 0 90 28 38
        E 64 b0 0b 30
        E 128 b0 0b 28
        E 96 80 28 00
        E 80 b0 0b 38
        E 0 90 2a 38
        E 48 b0 0b 30
        E 112 b0 0b 28
        E 112 b0 0b 20
        E 16 80 2a 00
        E 64 b0 0b 38
        E 0 90 2b 38
        E 32 b0 0b 30
        E 112 b0 0b 28
        E 112 b0 0b 20
        E 32 80 2b 00
        E 240 b0 0c 10
        E 0 b0 0b 30
        E 0 90 37 30
        E 80 b0 0b 28
        E 0 80 37 00
        E 0 90 38 28
        E 112 b0 0b 20
        E 48 80 38 00
        E 0 90 39 20
        E 64 b0 0b 18
        E 64 b0 0b 30
        E 48 b0 0b 28
        E 112 b0 0b 20
        E 16 b0 0b 30
        E 96 b0 0b 28
        E 80 b0 0b 30
        E 32 b0 0b 28
        E 112 b0 0b 20
        E 32 b0 0b 30
        E 96 b0 0b 28
        E 80 b0 0b 30
        E 0 80 39 00
        E 0 90 37 30
        E 32 b0 0b 28
        E 112 b0 0b 20
        E 112 b0 0b 18
        E 112 b0 0b 10
        E 112 b0 0b 08
        E 48 b0 0c 20
        E 0 b0 0b 38
        E 0 80 37 00
        E 0 90 2d 38
        E 64 b0 0b 30
        E 112 b0 0b 28
        E 112 b0 0b 20
        E 16 80 2d 00
        E 64 b0 0b 38
        E 0 90 2a 38
        E 48 b0 0b 30
        E 112 b0 0b 28
        E 112 b0 0b 20
        E 16 80 2a 00
        E 64 b0 0b 38
        E 0 90 2b 38
        E 32 b0 0b 30
        E 112 b0 0b 28
        E 112 b0 0b 20
        E 32 80 2b 00
        E 240 b0 0c 10
        E 0 b0 0b 30
        E 0 90 21 30
        E 16 b0 0b 28
        E 48 b0 0b 20
        E 64 b0 0b 18
        E 64 b0 0b 10
        E 48 b0 0b 08
        E 64 80 21 00
        E 64 b0 0b 30
        E 0 90 21 30
        E 48 b0 0b 28
        E 48 b0 0b 20
        E 64 b0 0b 18
        E 16 b0 0b 30
        E 0 80 21 00
        E 0 90 23 30
        E 32 b0 0b 28
        E 64 b0 0b 20
        E 64 b0 0b 18
        E 16 b0 0b 30
        E 32 b0 0b 28
        E 64 b0 0b 20
        E 48 b0 0b 18
        E 32 b0 0b 30
        E 0 80 23 00
        E 0 90 24 30
        E 32 b0 0b 28
        E 48 b0 0b 20
        E 64 b0 0b 18
        E 32 b0 0b 30
        E 0 80 24 00
        E 0 90 26 30
        E 16 b0 0b 28
        E 64 b0 0b 20
        E 64 b0 0b 18
        E 32 b0 0b 30
        E 0 80 26 00
        E 0 90 28 30
        E 16 b0 0b 28
        E 64 b0 0b 20
        E 48 b0 0b 18
        E 48 b0 0b 20
        E 0 80 28 00
        E 0 90 43 20
        E 176 b0 0b 18
        E 16 b0 0b 30
        E 0 80 43 00
        E 0 90 2d 30
        E 112 b0 0b 28
        E 112 b0 0b 20
        E 64 80 2d 00
        E 64 b0 0b 30
        E 0 90 2d 30
        E 96 b0 0b 28
        E 112 b0 0b 20
        E 112 b0 0b 18
        E 32 80 2d 00
        E 176 b0 0b 30
        E 0 90 2d 30
        E 16 b0 0b 28
        E 112 b0 0b 20
        E 128 b0 0b 18
        E 96 80 2d 00
        E 192 b0 0b 30
        E 0 90 2b 30
        E 48 b0 0b 28
        E 112 b0 0b 20
        E 112 b0 0b 18
        E 16 80 2b 00
        E 64 b0 0b 30
        E 0 90 2b 30
        E 32 b0 0b 28
        E 112 b0 0b 20
        E 112 b0 0b 18
        E 96 80 2b 00
        E 176 b0 0b 30
        E 0 90 2b 30
        E 80 b0 0b 28
        E 112 b0 0b 20
        E 112 b0 0b 18
        E 48 80 2b 00
        E 192 b0 0b 30
        E 0 90 2a 30
        E 96 b0 0b 28
        E 112 b0 0b 20
        E 80 80 2a 00
        E 64 b0 0b 30
        E 0 90 2a 30
        E 96 b0 0b 28
        E 112 b0 0b 20
        E 112 b0 0b 18
        E 32 80 2a 00
        E 176 b0 0b 30
        E 0 90 2a 30
        E 16 b0 0b 28
        E 112 b0 0b 20
        E 112 b0 0b 18
        E 112 b0 0b 10
        E 16 80 2a 00
        E 176 b0 0b 30
        E 0 90 2d 30
        E 48 b0 0b 28
        E 112 b0 0b 20
        E 112 b0 0b 18
        E 80 b0 0b 28
        E 0 80 2d 00
        E 0 90 3c 28
        E 32 b0 0b 20
        E 80 b0 0b 10
        E 0 80 3c 00
        E 0 90 2d 10
        E 64 b0 0b 28
        E 0 80 2d 00
        E 0 90 3b 28
        E 32 b0 0b 20
        E 80 b0 0b 10
        E 0 80 3b 00
        E 0 90 3c 10
        E 32 b0 0b 08
        E 32 b0 0b 28
        E 0 80 3c 00
        E 0 90 37 28
        E 80 b0 0b 20
        E 32 b0 0b 10
        E 0 80 37 00
        E 0 90 3b 10
        E 64 b0 0b 28
        E 0 80 3b 00
        E 0 90 39 28
        E 16 b0 0b 20
        E 96 b0 0b 10
        E 0 80 39 00
        E 0 90 37 10
        E 16 b0 0b 08
        E 48 b0 0b 28
        E 0 80 37 00
        E 0 90 34 28
        E 64 b0 0b 20
        E 48 b0 0b 10
        E 0 80 34 00
        E 0 90 39 10
        E 64 b0 0b 08
        E 16 b0 0b 28
        E 0 80 39 00
        E 0 90 37 28
        E 96 b0 0b 20
        E 16 b0 0b 10
        E 0 80 37 00
        E 0 90 34 10
        E 64 b0 0b 30
        E 0 80 34 00
        E 0 90 2d 30
        E 96 b0 0b 28
        E 112 b0 0b 20
        E 80 80 2d 00
        E 64 b0 0b 30
        E 0 90 2d 30
        E 80 b0 0b 28
        E 128 b0 0b 20
        E 112 b0 0b 18
        E 32 80 2d 00
        E 176 b0 0b 30
        E 0 90 2d 30
        E 16 b0 0b 28
        E 112 b0 0b 20
        E 112 b0 0b 18
        E 112 b0 0b 10
        E 16 80 2d 00
        E 176 b0 0b 30
        E 0 90 2b 30
        E 32 b0 0b 28
        E 128 b0 0b 20
        E 112 b0 0b 18
        E 16 80 2b 00
        E 64 b0 0b 30
        E 0 90 2b 30
        E 32 b0 0b 28
        E 112 b0 0b 20
        E 112 b0 0b 18
        E 96 80 2b 00
        E 176 b0 0b 30
        E 0 90 2b 30
        E 64 b0 0b 28
        E 112 b0 0b 20
        E 128 b0 0b 18
        E 64 80 2b 00
        E 176 b0 0b 30
        E 0 90 2a 30
        E 96 b0 0b 28
        E 112 b0 0b 20
        E 80 80 2a 00
        E 64 b0 0b 30
        E 0 90 2a 30
        E 80 b0 0b 28
        E 112 b0 0b 20
        E 112 b0 0b 18
        E 48 80 2a 00
        E 176 b0 0b 30
        E 0 90 2a 30
        E 16 b0 0b 28
        E 112 b0 0b 20
        E 112 b0 0b 18
        E 112 b0 0b 10
        E 16 80 2a 00
        E 176 b0 0b 30
        E 0 90 2d 30
        E 32 b0 0b 28
        E 112 b0 0b 20
        E 112 b0 0b 18
        E 128 b0 0b 10
        E 112 b0 0b 08
        E 112 80 2d 00
        E 96 b0 0b 30
        E 0 90 2d 30
        E 64 b0 0b 28
        E 128 b0 0b 20
        E 32 b0 0b 30
        E 80 b0 0b 28
        E 112 b0 0b 20
        E 64 b0 0b 30
        E 0 80 2d 00
        E 0 90 2e 30
        E 48 b0 0b 28
        E 112 b0 0b 20
        E 80 b0 0b 30
        E 0 80 2e 00
        E 0 90 2f 30
        E 96 b0 0b 28
        E 112 b0 0b 20
        E 80 80 2f 00
        E 64 b0 0b 30
        E 0 90 2f 30
        E 80 b0 0b 28
        E 112 b0 0b 20
        E 112 b0 0b 18
        E 48 80 2f 00
        E 192 b0 0b 30
        E 0 90 2f 30
        E 112 b0 0b 28
        E 112 b0 0b 20
        E 112 b0 0b 18
        E 16 80 2f 00
        E 176 b0 0b 30
        E 0 90 2d 30
        E 32 b0 0b 28
        E 112 b0 0b 20
        E 112 b0 0b 18
        E 32 80 2d 00
        E 64 b0 0b 30
        E 0 90 2d 30
        E 16 b0 0b 28
        E 112 b0 0b 20
        E 128 b0 0b 18
        E 96 80 2d 00
        E 192 b0 0b 30
        E 0 90 2d 30
        E 48 b0 0b 28
        E 112 b0 0b 20
        E 112 b0 0b 18
        E 80 80 2d 00
        E 176 b0 0b 30
        E 0 90 2c 30
        E 80 b0 0b 28
        E 128 b0 0b 20
        E 80 80 2c 00
        E 64 b0 0b 30
        E 0 90 2c 30
        E 80 b0 0b 28
        E 112 b0 0b 20
        E 112 b0 0b 18
        E 48 80 2c 00
        E 192 b0 0b 30
        E 0 90 2c 30
        E 96 b0 0b 28
        E 112 b0 0b 20
        E 128 b0 0b 18
        E 16 80 2c 00
        E 176 b0 0b 30
        E 0 90 2f 30
        E 32 b0 0b 28
        E 112 b0 0b 20
        E 112 b0 0b 18
        E 96 b0 0b 28
        E 0 80 2f 00
        E 0 90 3e 28
        E 16 b0 0b 20
        E 32 b0 0b 10
        E 0 80 3e 00
        E 0 90 2f 10
        E 48 b0 0b 28
        E 0 80 2f 00
        E 0 90 3d 28
        E 48 b0 0b 10
        E 0 80 3d 00
        E 0 90 3e 10
        E 32 b0 0b 28
        E 0 80 3e 00
        E 0 90 39 28
        E 16 b0 0b 20
        E 32 b0 0b 10
        E 0 80 39 00
        E 0 90 3d 10
        E 48 b0 0b 28
        E 0 80 3d 00
        E 0 90 3b 28
        E 32 b0 0b 20
        E 16 b0 0b 10
        E 0 80 3b 00
        E 0 90 39 10
        E 48 b0 0b 28
        E 0 80 39 00
        E 0 90 36 28
        E 32 b0 0b 10
        E 0 80 36 00
        E 0 90 3b 10
        E 16 b0 0b 08
        E 32 b0 0b 28
        E 0 80 3b 00
        E 0 90 39 28
        E 48 b0 0b 10
        E 0 80 39 00
        E 0 90 36 10
        E 32 b0 0b 08
        E 16 b0 0b 28
        E 0 80 36 00
        E 0 90 3e 28
        E 32 b0 0b 10
        E 0 80 3e 00
        E 0 90 39 10
        E 48 b0 0b 28
        E 0 80 39 00
        E 0 90 3d 28
        E 16 b0 0b 20
        E 32 b0 0b 10
        E 0 80 3d 00
        E 0 90 3e 10
        E 48 b0 0b 28
        E 0 80 3e 00
        E 0 90 39 28
        E 32 b0 0b 20
        E 16 b0 0b 10
        E 0 80 39 00
        E 0 90 3d 10
        E 32 b0 0b 28
        E 0 80 3d 00
        E 0 90 3b 28
        E 48 b0 0b 10
        E 0 80 3b 00
        E 0 90 39 10
        E 16 b0 0b 08
        E 32 b0 0b 28
        E 0 80 39 00
        E 0 90 36 28
        E 48 b0 0b 10
        E 0 80 36 00
        E 0 90 3b 10
        E 32 b0 0b 28
        E 0 80 3b 00
        E 0 90 39 28
        E 16 b0 0b 20
        E 32 b0 0b 10
        E 0 80 39 00
        E 0 90 36 10
        E 48 b0 0b 30
        E 0 80 36 00
        E 0 90 2f 30
        E 80 b0 0b 28
        E 112 b0 0b 20
        E 96 80 2f 00
        E 64 b0 0b 30
        E 0 90 2f 30
        E 80 b0 0b 28
        E 112 b0 0b 20
        E 112 b0 0b 18
        E 64 80 2f 00
        E 176 b0 0b 30
        E 0 90 2f 30
        E 96 b0 0b 28
        E 112 b0 0b 20
        E 112 b0 0b 18
        E 32 80 2f 00
        E 176 b0 0b 30
        E 0 90 2d 30
        E 32 b0 0b 28
        E 112 b0 0b 20
        E 112 b0 0b 18
        E 32 80 2d 00
        E 64 b0 0b 30
        E 0 90 2d 30
        E 16 b0 0b 28
        E 112 b0 0b 20
        E 112 b0 0b 18
        E 112 b0 0b 10
        E 16 80 2d 00
        E 176 b0 0b 30
        E 0 90 2d 30
        E 32 b0 0b 28
        E 128 b0 0b 20
        E 112 b0 0b 18
        E 80 80 2d 00
        E 176 b0 0b 30
        E 0 90 2c 30
        E 80 b0 0b 28
        E 112 b0 0b 20
        E 96 80 2c 00
        E 64 b0 0b 30
        E 0 90 2c 30
        E 64 b0 0b 28
        E 112 b0 0b 20
        E 128 b0 0b 18
        E 64 80 2c 00
        E 176 b0 0b 30
        E 0 90 2c 30
        E 96 b0 0b 28
        E 112 b0 0b 20
        E 112 b0 0b 18
        E 32 80 2c 00
        E 176 b0 0b 30
        E 0 90 2f 30
        E 16 b0 0b 28
        E 112 b0 0b 20
        E 128 b0 0b 18
        E 32 80 2f 00
        E 64 b0 0b 30
        E 0 90 2f 30
        E 16 b0 0b 28
        E 112 b0 0b 20
        E 112 b0 0b 18
        E 112 b0 0b 10
        E 16 80 2f 00
        E 176 b0 0b 30
        E 0 90 31 30
        E 32 b0 0b 28
        E 112 b0 0b 20
        E 112 b0 0b 18
        E 96 b0 0b 20
        E 0 80 31 00
        E 0 90 39 20
        E 192 b0 0b 18
        E 176 b0 0b 10
        E 0 80 39 00
        E 0 90 38 10
        E 448 80 38 00
        E 0 90 37 10
        E 464 80 37 00
        E 0 90 36 10
        E 512 80 36 00
        E 0 90 35 10
        E 512 80 35 00
        E 0 90 34 10
        E 560 80 34 00
        E 0 90 33 10
        E 624 80 33 00
        E 0 90 32 10
        E 640 80 32 00
        E 0 90 31 10
        E 624 80 31 00
        E 0 90 30 10
        E 736 80 30 00
        E 0 90 2f 10
        E 32 80 2f 00
        E 0 ff 2f 00
      >
    >
  >
  <TRACK {83852D33-C4D6-4E3B-8D07-177E3EB0FBDF}
    NAME "NES - Pulse 2 [ch1]"
    PEAKCOL 10092441
    BEAT -1
    AUTOMODE 0
    PANLAWFLAGS 3
    VOLPAN 1 0 -1 -1 1
    MUTESOLO 0 0 0
    IPHASE 0
    PLAYOFFS 0 1
    ISBUS 0 0
    BUSCOMP 0 0 0 0 0
    SHOWINMIX 1 0.6667 0.5 1 0.5 0 0 0
    FIXEDLANES 9 0 0 0 0
    SEL 0
    REC 0 5088 1 0 0 0 0 0
    VU 2
    TRACKHEIGHT 0 0 0 0 0 0 0
    INQ 0 0 0 0.5 100 0 0 100
    NCHAN 2
    FX 1
    TRACKID {83852D33-C4D6-4E3B-8D07-177E3EB0FBDF}
    PERF 0
    MIDIOUT -1
    MAINSEND 1 0
    <FXCHAIN
      WNDRECT 24 52 700 560
      SHOW 0
      LASTSEL 0
      DOCKED 0
      BYPASS 0 0 0
      <JS "ReapNES Studio/ReapNES_Console.jsfx" ""
        2 15 1 10 80 10 100 2 1 15 1 5 60 10 80 1 1 0 50 0 0 15 1 0 100 0 0 0.500000 0.500000 0.400000 0.300000 0.800000 1 1 0 0 0 0 - - - - - - - - - - - - - - - - - - - - - - - - - -
      >
      FLOATPOS 0 0 0 0
      FXID {0B8984C7-B029-4B47-9AEB-89D32C824104}
      WAK 0 0
    >
    <ITEM
      POSITION 0
      LENGTH 83.98134
      LOOP 0
      ALLTAKES 0
      FADEIN 0 0 0 0 0 0 0
      FADEOUT 0 0 0 0 0 0 0
      MUTE 0 0
      SEL 0
      IGUID {F7A37E4D-DC51-4FD4-81BC-31C2F9953029}
      <SOURCE MIDI
        HASDATA 1 480 QN
        CCINTERP 32
        E 0 c1 51
        E 32 b1 0c 10
        E 0 b1 0b 20
        E 0 91 38 20
        E 48 81 38 00
        E 0 91 39 20
        E 48 81 39 00
        E 0 91 3a 20
        E 48 81 3a 00
        E 0 91 2f 20
        E 208 b1 0b 18
        E 176 b1 0b 10
        E 64 81 2f 00
        E 0 91 2e 10
        E 784 81 2e 00
        E 0 91 2d 10
        E 864 81 2d 00
        E 0 91 2c 10
        E 848 81 2c 00
        E 0 91 2b 10
        E 976 81 2b 00
        E 0 91 2a 10
        E 960 81 2a 00
        E 0 91 29 10
        E 272 b1 0b 20
        E 0 81 29 00
        E 0 91 1a 20
        E 176 b1 0b 18
        E 16 b1 0b 20
        E 0 81 1a 00
        E 0 91 1c 20
        E 176 81 1c 00
        E 0 91 3e 20
        E 96 b1 0b 18
        E 80 b1 0c 20
        E 0 b1 0b 38
        E 0 81 3e 00
        E 0 91 23 38
        E 96 b1 0b 30
        E 112 b1 0b 28
        E 80 81 23 00
        E 64 b1 0b 38
        E 0 91 25 38
        E 80 b1 0b 30
        E 112 b1 0b 28
        E 96 81 25 00
        E 64 b1 0b 38
        E 0 91 26 38
        E 80 b1 0b 30
        E 112 b1 0b 28
        E 96 81 26 00
        E 496 b1 0c 10
        E 0 b1 0b 18
        E 0 91 37 18
        E 80 81 37 00
        E 0 91 38 18
        E 176 b1 0b 10
        E 0 81 38 00
        E 0 91 39 10
        E 96 b1 0b 18
        E 192 b1 0b 10
        E 176 b1 0b 18
        E 112 b1 0b 10
        E 64 b1 0b 18
        E 176 81 39 00
        E 0 91 37 18
        E 32 b1 0b 10
        E 256 b1 0c 20
        E 0 b1 0b 38
        E 0 81 37 00
        E 0 91 28 38
        E 96 b1 0b 30
        E 112 b1 0b 28
        E 80 81 28 00
        E 64 b1 0b 38
        E 0 91 25 38
        E 80 b1 0b 30
        E 112 b1 0b 28
        E 96 81 25 00
        E 64 b1 0b 38
        E 0 91 26 38
        E 64 b1 0b 30
        E 112 b1 0b 28
        E 112 81 26 00
        E 416 b1 0c 10
        E 0 b1 0b 18
        E 0 91 21 18
        E 48 b1 0b 10
        E 64 b1 0b 08
        E 48 81 21 00
        E 192 b1 0b 18
        E 0 91 21 18
        E 32 b1 0b 10
        E 64 b1 0b 08
        E 48 81 21 00
        E 32 b1 0b 18
        E 0 91 23 18
        E 32 b1 0b 10
        E 64 b1 0b 08
        E 48 81 23 00
        E 32 b1 0b 18
        E 0 91 23 18
        E 32 b1 0b 10
        E 48 b1 0b 08
        E 64 81 23 00
        E 32 b1 0b 18
        E 0 91 24 18
        E 16 b1 0b 10
        E 64 b1 0b 08
        E 48 81 24 00
        E 48 b1 0b 18
        E 0 91 26 18
        E 16 b1 0b 10
        E 64 b1 0b 08
        E 48 81 26 00
        E 48 b1 0b 18
        E 0 91 28 18
        E 16 b1 0b 10
        E 16 b1 0b 20
        E 0 81 28 00
        E 0 91 3e 20
        E 176 b1 0c 20
        E 0 b1 0b 38
        E 0 81 3e 00
        E 0 91 23 38
        E 80 b1 0b 30
        E 128 b1 0b 28
        E 80 81 23 00
        E 64 b1 0b 38
        E 0 91 25 38
        E 80 b1 0b 30
        E 112 b1 0b 28
        E 96 81 25 00
        E 64 b1 0b 38
        E 0 91 26 38
        E 64 b1 0b 30
        E 112 b1 0b 28
        E 112 b1 0b 20
        E 16 81 26 00
        E 480 b1 0c 10
        E 0 b1 0b 18
        E 0 91 37 18
        E 80 81 37 00
        E 0 91 38 18
        E 176 b1 0b 10
        E 0 81 38 00
        E 0 91 39 10
        E 96 b1 0b 18
        E 176 b1 0b 10
        E 16 b1 0b 18
        E 272 b1 0b 10
        E 80 b1 0b 18
        E 176 81 39 00
        E 0 91 37 18
        E 32 b1 0b 10
        E 256 b1 0c 20
        E 0 b1 0b 38
        E 0 81 37 00
        E 0 91 28 38
        E 80 b1 0b 30
        E 112 b1 0b 28
        E 96 81 28 00
        E 64 b1 0b 38
        E 0 91 25 38
        E 80 b1 0b 30
        E 112 b1 0b 28
        E 96 81 25 00
        E 80 b1 0b 38
        E 0 91 26 38
        E 48 b1 0b 30
        E 112 b1 0b 28
        E 112 b1 0b 20
        E 16 81 26 00
        E 400 b1 0c 10
        E 0 b1 0b 18
        E 0 91 21 18
        E 48 b1 0b 10
        E 48 b1 0b 08
        E 64 81 21 00
        E 192 b1 0b 18
        E 0 91 21 18
        E 32 b1 0b 10
        E 48 b1 0b 08
        E 64 81 21 00
        E 32 b1 0b 18
        E 0 91 23 18
        E 32 b1 0b 10
        E 48 b1 0b 08
        E 64 81 23 00
        E 32 b1 0b 18
        E 0 91 23 18
        E 16 b1 0b 10
        E 64 b1 0b 08
        E 48 81 23 00
        E 48 b1 0b 18
        E 0 91 24 18
        E 16 b1 0b 10
        E 48 b1 0b 08
        E 64 81 24 00
        E 48 b1 0b 18
        E 0 91 26 18
        E 16 b1 0b 10
        E 48 b1 0b 08
        E 64 81 26 00
        E 64 b1 0b 18
        E 0 91 28 18
        E 16 b1 0b 20
        E 0 81 28 00
        E 0 91 3e 20
        E 176 b1 0b 30
        E 0 81 3e 00
        E 0 91 28 30
        E 80 b1 0b 28
        E 112 b1 0b 20
        E 96 81 28 00
        E 64 b1 0b 30
        E 0 91 28 30
        E 64 b1 0b 28
        E 112 b1 0b 20
        E 128 b1 0b 18
        E 64 81 28 00
        E 176 b1 0b 30
        E 0 91 28 30
        E 96 b1 0b 28
        E 112 b1 0b 20
        E 112 b1 0b 18
        E 32 81 28 00
        E 176 b1 0b 30
        E 0 91 26 30
        E 16 b1 0b 28
        E 112 b1 0b 20
        E 128 b1 0b 18
        E 32 81 26 00
        E 64 b1 0b 30
        E 0 91 26 30
        E 16 b1 0b 28
        E 112 b1 0b 20
        E 112 b1 0b 18
        E 112 b1 0b 10
        E 16 81 26 00
        E 176 b1 0b 30
        E 0 91 26 30
        E 32 b1 0b 28
        E 112 b1 0b 20
        E 112 b1 0b 18
        E 96 81 26 00
        E 176 b1 0b 30
        E 0 91 26 30
        E 80 b1 0b 28
        E 112 b1 0b 20
        E 96 81 26 00
        E 64 b1 0b 30
        E 0 91 26 30
        E 64 b1 0b 28
        E 112 b1 0b 20
        E 112 b1 0b 18
        E 80 81 26 00
        E 176 b1 0b 30
        E 0 91 26 30
        E 96 b1 0b 28
        E 112 b1 0b 20
        E 112 b1 0b 18
        E 32 81 26 00
        E 176 b1 0b 30
        E 0 91 28 30
        E 16 b1 0b 28
        E 112 b1 0b 20
        E 112 b1 0b 18
        E 112 b1 0b 10
        E 16 b1 0b 28
        E 0 81 28 00
        E 0 91 48 28
        E 96 b1 0b 10
        E 0 81 48 00
        E 0 91 39 10
        E 80 b1 0b 28
        E 0 81 39 00
        E 0 91 47 28
        E 48 b1 0b 20
        E 64 b1 0b 10
        E 0 81 47 00
        E 0 91 48 10
        E 48 b1 0b 08
        E 16 b1 0b 28
        E 0 81 48 00
        E 0 91 43 28
        E 96 b1 0b 20
        E 16 b1 0b 10
        E 0 81 43 00
        E 0 91 47 10
        E 64 b1 0b 28
        E 0 81 47 00
        E 0 91 45 28
        E 32 b1 0b 20
        E 80 b1 0b 10
        E 0 81 45 00
        E 0 91 43 10
        E 32 b1 0b 08
        E 32 b1 0b 28
        E 0 81 43 00
        E 0 91 40 28
        E 80 b1 0b 20
        E 32 b1 0b 10
        E 0 81 40 00
        E 0 91 45 10
        E 64 b1 0b 28
        E 0 81 45 00
        E 0 91 43 28
        E 16 b1 0b 20
        E 96 b1 0b 10
        E 0 81 43 00
        E 0 91 40 10
        E 16 b1 0b 08
        E 48 b1 0b 30
        E 0 81 40 00
        E 0 91 28 30
        E 80 b1 0b 28
        E 112 b1 0b 20
        E 96 81 28 00
        E 80 b1 0b 30
        E 0 91 28 30
        E 48 b1 0b 28
        E 112 b1 0b 20
        E 112 b1 0b 18
        E 80 81 28 00
        E 176 b1 0b 30
        E 0 91 28 30
        E 80 b1 0b 28
        E 128 b1 0b 20
        E 112 b1 0b 18
        E 32 81 28 00
        E 176 b1 0b 30
        E 0 91 26 30
        E 16 b1 0b 28
        E 112 b1 0b 20
        E 112 b1 0b 18
        E 48 81 26 00
        E 80 b1 0b 30
        E 0 91 26 30
        E 96 b1 0b 28
        E 112 b1 0b 20
        E 128 b1 0b 18
        E 16 81 26 00
        E 176 b1 0b 30
        E 0 91 26 30
        E 32 b1 0b 28
        E 112 b1 0b 20
        E 112 b1 0b 18
        E 96 81 26 00
        E 176 b1 0b 30
        E 0 91 26 30
        E 64 b1 0b 28
        E 112 b1 0b 20
        E 112 81 26 00
        E 80 b1 0b 30
        E 0 91 26 30
        E 48 b1 0b 28
        E 112 b1 0b 20
        E 112 b1 0b 18
        E 80 81 26 00
        E 176 b1 0b 30
        E 0 91 26 30
        E 80 b1 0b 28
        E 112 b1 0b 20
        E 112 b1 0b 18
        E 48 81 26 00
        E 176 b1 0b 30
        E 0 91 28 30
        E 16 b1 0b 28
        E 112 b1 0b 20
        E 112 b1 0b 18
        E 64 81 28 00
        E 64 b1 0b 30
        E 0 91 28 30
        E 96 b1 0b 28
        E 112 b1 0b 20
        E 112 b1 0b 18
        E 32 81 28 00
        E 176 b1 0b 30
        E 0 91 2a 30
        E 32 b1 0b 28
        E 112 b1 0b 20
        E 112 b1 0b 18
        E 96 b1 0b 20
        E 0 81 2a 00
        E 0 91 34 20
        E 192 b1 0b 18
        E 160 b1 0b 10
        E 112 81 34 00
        E 0 91 33 10
        E 576 81 33 00
        E 0 91 32 10
        E 624 81 32 00
        E 0 91 31 10
        E 688 81 31 00
        E 0 91 30 10
        E 496 b1 0b 20
        E 0 81 30 00
        E 0 91 3e 20
        E 176 b1 0b 18
        E 16 b1 0c 20
        E 0 b1 0b 38
        E 0 81 3e 00
        E 0 91 23 38
        E 96 b1 0b 30
        E 128 b1 0b 28
        E 64 81 23 00
        E 64 b1 0b 38
        E 0 91 25 38
        E 96 b1 0b 30
        E 112 b1 0b 28
        E 80 81 25 00
        E 64 b1 0b 38
        E 0 91 26 38
        E 80 b1 0b 30
        E 112 b1 0b 28
        E 96 81 26 00
        E 496 b1 0c 10
        E 0 b1 0b 18
        E 0 91 37 18
        E 96 81 37 00
        E 0 91 38 18
        E 176 b1 0b 10
        E 0 81 38 00
        E 0 91 39 10
        E 80 b1 0b 18
        E 192 b1 0b 10
        E 160 b1 0b 18
        E 128 b1 0b 10
        E 48 b1 0b 18
        E 192 81 39 00
        E 0 91 37 18
        E 48 b1 0b 10
        E 240 b1 0c 20
        E 0 b1 0b 38
        E 0 81 37 00
        E 0 91 28 38
        E 96 b1 0b 30
        E 112 b1 0b 28
        E 80 81 28 00
        E 64 b1 0b 38
        E 0 91 25 38
        E 96 b1 0b 30
        E 112 b1 0b 28
        E 80 81 25 00
        E 64 b1 0b 38
        E 0 91 26 38
        E 80 b1 0b 30
        E 112 b1 0b 28
        E 96 81 26 00
        E 400 b1 0c 10
        E 0 b1 0b 18
        E 0 91 21 18
        E 16 b1 0b 10
        E 64 b1 0b 08
        E 48 81 21 00
        E 240 b1 0b 18
        E 0 91 21 18
        E 48 b1 0b 10
        E 48 b1 0b 08
        E 64 81 21 00
        E 16 b1 0b 18
        E 0 91 23 18
        E 48 b1 0b 10
        E 48 b1 0b 08
        E 64 81 23 00
        E 16 b1 0b 18
        E 0 91 23 18
        E 32 b1 0b 10
        E 64 b1 0b 08
        E 48 81 23 00
        E 32 b1 0b 18
        E 0 91 24 18
        E 32 b1 0b 10
        E 48 b1 0b 08
        E 64 81 24 00
        E 32 b1 0b 18
        E 0 91 26 18
        E 32 b1 0b 10
        E 48 b1 0b 08
        E 64 81 26 00
        E 32 b1 0b 18
        E 0 91 28 18
        E 16 b1 0b 10
        E 16 b1 0b 20
        E 0 81 28 00
        E 0 91 3e 20
        E 176 b1 0c 20
        E 0 b1 0b 38
        E 0 81 3e 00
        E 0 91 23 38
        E 96 b1 0b 30
        E 112 b1 0b 28
        E 80 81 23 00
        E 64 b1 0b 38
        E 0 91 25 38
        E 80 b1 0b 30
        E 112 b1 0b 28
        E 96 81 25 00
        E 64 b1 0b 38
        E 0 91 26 38
        E 80 b1 0b 30
        E 112 b1 0b 28
        E 96 81 26 00
        E 496 b1 0c 10
        E 0 b1 0b 18
        E 0 91 37 18
        E 80 81 37 00
        E 0 91 38 18
        E 176 b1 0b 10
        E 0 81 38 00
        E 0 91 39 10
        E 96 b1 0b 18
        E 192 b1 0b 10
        E 160 b1 0b 18
        E 128 b1 0b 10
        E 64 b1 0b 18
        E 176 81 39 00
        E 0 91 37 18
        E 32 b1 0b 10
        E 256 b1 0c 20
        E 0 b1 0b 38
        E 0 81 37 00
        E 0 91 28 38
        E 96 b1 0b 30
        E 112 b1 0b 28
        E 80 81 28 00
        E 64 b1 0b 38
        E 0 91 25 38
        E 80 b1 0b 30
        E 112 b1 0b 28
        E 96 81 25 00
        E 64 b1 0b 38
        E 0 91 26 38
        E 64 b1 0b 30
        E 128 b1 0b 28
        E 96 81 26 00
        E 400 b1 0c 10
        E 0 b1 0b 18
        E 0 91 21 18
        E 16 b1 0b 10
        E 48 b1 0b 08
        E 64 81 21 00
        E 240 b1 0b 18
        E 0 91 21 18
        E 32 b1 0b 10
        E 64 b1 0b 08
        E 64 81 21 00
        E 16 b1 0b 18
        E 0 91 23 18
        E 32 b1 0b 10
        E 64 b1 0b 08
        E 48 81 23 00
        E 32 b1 0b 18
        E 0 91 23 18
        E 32 b1 0b 10
        E 48 b1 0b 08
        E 64 81 23 00
        E 32 b1 0b 18
        E 0 91 24 18
        E 16 b1 0b 10
        E 64 b1 0b 08
        E 64 81 24 00
        E 32 b1 0b 18
        E 0 91 26 18
        E 16 b1 0b 10
        E 64 b1 0b 08
        E 48 81 26 00
        E 48 b1 0b 18
        E 0 91 28 18
        E 16 b1 0b 10
        E 16 b1 0b 20
        E 0 81 28 00
        E 0 91 3e 20
        E 176 b1 0b 30
        E 0 81 3e 00
        E 0 91 28 30
        E 96 b1 0b 28
        E 112 b1 0b 20
        E 80 81 28 00
        E 64 b1 0b 30
        E 0 91 28 30
        E 80 b1 0b 28
        E 112 b1 0b 20
        E 112 b1 0b 18
        E 48 81 28 00
        E 192 b1 0b 30
        E 0 91 28 30
        E 96 b1 0b 28
        E 128 b1 0b 20
        E 112 b1 0b 18
        E 16 81 28 00
        E 176 b1 0b 30
        E 0 91 26 30
        E 32 b1 0b 28
        E 112 b1 0b 20
        E 112 b1 0b 18
        E 32 81 26 00
        E 64 b1 0b 30
        E 0 91 26 30
        E 16 b1 0b 28
        E 112 b1 0b 20
        E 112 b1 0b 18
        E 112 81 26 00
        E 192 b1 0b 30
        E 0 91 26 30
        E 48 b1 0b 28
        E 112 b1 0b 20
        E 112 b1 0b 18
        E 80 81 26 00
        E 176 b1 0b 30
        E 0 91 26 30
        E 80 b1 0b 28
        E 112 b1 0b 20
        E 96 81 26 00
        E 64 b1 0b 30
        E 0 91 26 30
        E 80 b1 0b 28
        E 112 b1 0b 20
        E 112 b1 0b 18
        E 64 81 26 00
        E 176 b1 0b 30
        E 0 91 26 30
        E 96 b1 0b 28
        E 112 b1 0b 20
        E 112 b1 0b 18
        E 32 81 26 00
        E 176 b1 0b 30
        E 0 91 28 30
        E 32 b1 0b 28
        E 112 b1 0b 20
        E 112 b1 0b 18
        E 96 b1 0b 28
        E 0 81 28 00
        E 0 91 48 28
        E 16 b1 0b 20
        E 96 b1 0b 10
        E 0 81 48 00
        E 0 91 39 10
        E 64 b1 0b 28
        E 0 81 39 00
        E 0 91 47 28
        E 16 b1 0b 20
        E 96 b1 0b 10
        E 0 81 47 00
        E 0 91 48 10
        E 16 b1 0b 08
        E 64 b1 0b 28
        E 0 81 48 00
        E 0 91 43 28
        E 48 b1 0b 20
        E 64 b1 0b 10
        E 0 81 43 00
        E 0 91 47 10
        E 48 b1 0b 08
        E 16 b1 0b 28
        E 0 81 47 00
        E 0 91 45 28
        E 96 b1 0b 20
        E 16 b1 0b 10
        E 0 81 45 00
        E 0 91 43 10
        E 64 b1 0b 28
        E 0 81 43 00
        E 0 91 40 28
        E 32 b1 0b 20
        E 80 b1 0b 10
        E 0 81 40 00
        E 0 91 45 10
        E 32 b1 0b 08
        E 32 b1 0b 28
        E 0 81 45 00
        E 0 91 43 28
        E 80 b1 0b 20
        E 32 b1 0b 10
        E 0 81 43 00
        E 0 91 40 10
        E 64 b1 0b 30
        E 0 81 40 00
        E 0 91 28 30
        E 80 b1 0b 28
        E 112 b1 0b 20
        E 96 81 28 00
        E 64 b1 0b 30
        E 0 91 28 30
        E 64 b1 0b 28
        E 128 b1 0b 20
        E 112 b1 0b 18
        E 64 81 28 00
        E 176 b1 0b 30
        E 0 91 28 30
        E 96 b1 0b 28
        E 112 b1 0b 20
        E 112 b1 0b 18
        E 32 81 28 00
        E 176 b1 0b 30
        E 0 91 26 30
        E 16 b1 0b 28
        E 128 b1 0b 20
        E 112 b1 0b 18
        E 32 81 26 00
        E 64 b1 0b 30
        E 0 91 26 30
        E 16 b1 0b 28
        E 112 b1 0b 20
        E 112 b1 0b 18
        E 112 b1 0b 10
        E 16 81 26 00
        E 176 b1 0b 30
        E 0 91 26 30
        E 32 b1 0b 28
        E 112 b1 0b 20
        E 128 b1 0b 18
        E 80 81 26 00
        E 176 b1 0b 30
        E 0 91 26 30
        E 80 b1 0b 28
        E 112 b1 0b 20
        E 96 81 26 00
        E 64 b1 0b 30
        E 0 91 26 30
        E 64 b1 0b 28
        E 112 b1 0b 20
        E 112 b1 0b 18
        E 80 81 26 00
        E 176 b1 0b 30
        E 0 91 26 30
        E 96 b1 0b 28
        E 112 b1 0b 20
        E 112 b1 0b 18
        E 32 81 26 00
        E 176 b1 0b 30
        E 0 91 28 30
        E 16 b1 0b 28
        E 112 b1 0b 20
        E 112 b1 0b 18
        E 128 b1 0b 10
        E 112 b1 0b 08
        E 112 81 28 00
        E 128 b1 0b 30
        E 0 91 28 30
        E 96 b1 0b 28
        E 112 b1 0b 20
        E 16 b1 0b 30
        E 96 b1 0b 28
        E 112 b1 0b 20
        E 32 b1 0b 30
        E 0 81 28 00
        E 0 91 29 30
        E 80 b1 0b 28
        E 128 b1 0b 20
        E 32 b1 0b 30
        E 0 81 29 00
        E 0 91 2a 30
        E 80 b1 0b 28
        E 112 b1 0b 20
        E 96 81 2a 00
        E 80 b1 0b 30
        E 0 91 2a 30
        E 48 b1 0b 28
        E 112 b1 0b 20
        E 112 b1 0b 18
        E 80 81 2a 00
        E 176 b1 0b 30
        E 0 91 2a 30
        E 96 b1 0b 28
        E 112 b1 0b 20
        E 112 b1 0b 18
        E 32 81 2a 00
        E 176 b1 0b 30
        E 0 91 28 30
        E 16 b1 0b 28
        E 112 b1 0b 20
        E 112 b1 0b 18
        E 48 81 28 00
        E 80 b1 0b 30
        E 0 91 28 30
        E 96 b1 0b 28
        E 128 b1 0b 20
        E 112 b1 0b 18
        E 16 81 28 00
        E 176 b1 0b 30
        E 0 91 28 30
        E 32 b1 0b 28
        E 112 b1 0b 20
        E 112 b1 0b 18
        E 96 81 28 00
        E 176 b1 0b 30
        E 0 91 28 30
        E 64 b1 0b 28
        E 128 b1 0b 20
        E 96 81 28 00
        E 80 b1 0b 30
        E 0 91 28 30
        E 48 b1 0b 28
        E 112 b1 0b 20
        E 112 b1 0b 18
        E 80 81 28 00
        E 176 b1 0b 30
        E 0 91 28 30
        E 80 b1 0b 28
        E 112 b1 0b 20
        E 128 b1 0b 18
        E 32 81 28 00
        E 176 b1 0b 30
        E 0 91 2a 30
        E 16 b1 0b 28
        E 112 b1 0b 20
        E 112 b1 0b 18
        E 112 b1 0b 10
        E 16 b1 0b 28
        E 0 81 2a 00
        E 0 91 4a 28
        E 32 b1 0b 10
        E 0 81 4a 00
        E 0 91 3b 10
        E 48 b1 0b 28
        E 0 81 3b 00
        E 0 91 49 28
        E 48 b1 0b 10
        E 0 81 49 00
        E 0 91 4a 10
        E 32 b1 0b 08
        E 16 b1 0b 28
        E 0 81 4a 00
        E 0 91 45 28
        E 48 b1 0b 10
        E 0 81 45 00
        E 0 91 49 10
        E 32 b1 0b 28
        E 0 81 49 00
        E 0 91 47 28
        E 16 b1 0b 20
        E 32 b1 0b 10
        E 0 81 47 00
        E 0 91 45 10
        E 48 b1 0b 28
        E 0 81 45 00
        E 0 91 42 28
        E 32 b1 0b 20
        E 16 b1 0b 10
        E 0 81 42 00
        E 0 91 47 10
        E 32 b1 0b 28
        E 0 81 47 00
        E 0 91 45 28
        E 48 b1 0b 10
        E 0 81 45 00
        E 0 91 42 10
        E 16 b1 0b 08
        E 32 b1 0b 28
        E 0 81 42 00
        E 0 91 4a 28
        E 48 b1 0b 10
        E 0 81 4a 00
        E 0 91 45 10
        E 32 b1 0b 08
        E 16 b1 0b 28
        E 0 81 45 00
        E 0 91 49 28
        E 32 b1 0b 10
        E 0 81 49 00
        E 0 91 4a 10
        E 48 b1 0b 28
        E 0 81 4a 00
        E 0 91 45 28
        E 16 b1 0b 20
        E 32 b1 0b 10
        E 0 81 45 00
        E 0 91 49 10
        E 48 b1 0b 28
        E 0 81 49 00
        E 0 91 47 28
        E 32 b1 0b 20
        E 16 b1 0b 10
        E 0 81 47 00
        E 0 91 45 10
        E 32 b1 0b 28
        E 0 81 45 00
        E 0 91 42 28
        E 48 b1 0b 10
        E 0 81 42 00
        E 0 91 47 10
        E 32 b1 0b 08
        E 16 b1 0b 28
        E 0 81 47 00
        E 0 91 45 28
        E 48 b1 0b 10
        E 0 81 45 00
        E 0 91 42 10
        E 32 b1 0b 30
        E 0 81 42 00
        E 0 91 2a 30
        E 64 b1 0b 28
        E 112 b1 0b 20
        E 112 b1 0b 18
        E 16 81 2a 00
        E 64 b1 0b 30
        E 0 91 2a 30
        E 48 b1 0b 28
        E 112 b1 0b 20
        E 112 b1 0b 18
        E 80 81 2a 00
        E 176 b1 0b 30
        E 0 91 2a 30
        E 80 b1 0b 28
        E 112 b1 0b 20
        E 112 b1 0b 18
        E 48 81 2a 00
        E 176 b1 0b 30
        E 0 91 28 30
        E 16 b1 0b 28
        E 112 b1 0b 20
        E 112 b1 0b 18
        E 64 81 28 00
        E 64 b1 0b 30
        E 0 91 28 30
        E 96 b1 0b 28
        E 112 b1 0b 20
        E 112 b1 0b 18
        E 32 81 28 00
        E 176 b1 0b 30
        E 0 91 28 30
        E 16 b1 0b 28
        E 128 b1 0b 20
        E 112 b1 0b 18
        E 96 81 28 00
        E 192 b1 0b 30
        E 0 91 28 30
        E 48 b1 0b 28
        E 112 b1 0b 20
        E 112 b1 0b 18
        E 16 81 28 00
        E 64 b1 0b 30
        E 0 91 28 30
        E 32 b1 0b 28
        E 112 b1 0b 20
        E 128 b1 0b 18
        E 80 81 28 00
        E 176 b1 0b 30
        E 0 91 28 30
        E 80 b1 0b 28
        E 112 b1 0b 20
        E 112 b1 0b 18
        E 48 81 28 00
        E 192 b1 0b 30
        E 0 91 2a 30
        E 96 b1 0b 28
        E 128 b1 0b 20
        E 64 81 2a 00
        E 64 b1 0b 30
        E 0 91 2a 30
        E 96 b1 0b 28
        E 112 b1 0b 20
        E 112 b1 0b 18
        E 32 81 2a 00
        E 176 b1 0b 30
        E 0 91 2c 30
        E 16 b1 0b 28
        E 112 b1 0b 20
        E 112 b1 0b 18
        E 112 b1 0b 20
        E 0 81 2c 00
        E 0 91 36 20
        E 176 b1 0b 18
        E 176 b1 0b 10
        E 48 81 36 00
        E 0 91 35 10
        E 512 81 35 00
        E 0 91 34 10
        E 576 81 34 00
        E 0 91 33 10
        E 624 81 33 00
        E 0 91 32 10
        E 624 81 32 00
        E 0 91 31 10
        E 624 81 31 00
        E 0 91 30 10
        E 752 81 30 00
        E 0 91 2f 10
        E 736 81 2f 00
        E 0 91 2e 10
        E 688 81 2e 00
        E 0 ff 2f 00
      >
    >
  >
  <TRACK {697CE44A-103D-4D25-9CD1-3BD46808C4DE}
    NAME "NES - Triangle [ch2]"
    PEAKCOL 16744192
    BEAT -1
    AUTOMODE 0
    PANLAWFLAGS 3
    VOLPAN 1 0 -1 -1 1
    MUTESOLO 0 0 0
    IPHASE 0
    PLAYOFFS 0 1
    ISBUS 0 0
    BUSCOMP 0 0 0 0 0
    SHOWINMIX 1 0.6667 0.5 1 0.5 0 0 0
    FIXEDLANES 9 0 0 0 0
    SEL 0
    REC 0 5088 1 0 0 0 0 0
    VU 2
    TRACKHEIGHT 0 0 0 0 0 0 0
    INQ 0 0 0 0.5 100 0 0 100
    NCHAN 2
    FX 1
    TRACKID {697CE44A-103D-4D25-9CD1-3BD46808C4DE}
    PERF 0
    MIDIOUT -1
    MAINSEND 1 0
    <FXCHAIN
      WNDRECT 24 52 700 560
      SHOW 0
      LASTSEL 0
      DOCKED 0
      BYPASS 0 0 0
      <JS "ReapNES Studio/ReapNES_Console.jsfx" ""
        2 15 1 10 80 10 100 2 1 15 1 5 60 10 80 1 1 0 50 0 0 15 1 0 100 0 0 0.500000 0.500000 0.400000 0.300000 0.800000 2 1 0 0 0 0 - - - - - - - - - - - - - - - - - - - - - - - - - -
      >
      FLOATPOS 0 0 0 0
      FXID {93E2CA93-6013-4467-BC90-6A40CAADE35A}
      WAK 0 0
    >
    <ITEM
      POSITION 0
      LENGTH 83.98134
      LOOP 0
      ALLTAKES 0
      FADEIN 0 0 0 0 0 0 0
      FADEOUT 0 0 0 0 0 0 0
      MUTE 0 0
      SEL 0
      IGUID {805C1C49-404A-4873-9893-EB452B2BFDB8}
      <SOURCE MIDI
        HASDATA 1 480 QN
        CCINTERP 32
        E 0 c2 26
        E 16 b2 0b 7f
        E 0 92 34 7f
        E 48 82 34 00
        E 0 b2 0b 7f
        E 0 92 35 7f
        E 32 82 35 00
        E 0 b2 0b 7f
        E 0 92 36 7f
        E 48 82 36 00
        E 0 b2 0b 7f
        E 0 92 28 7f
        E 6064 82 28 00
        E 0 b2 0b 7f
        E 0 92 2a 7f
        E 352 82 2a 00
        E 0 b2 0b 7f
        E 0 92 2b 7f
        E 352 82 2b 00
        E 0 b2 0b 7f
        E 0 92 2d 7f
        E 176 82 2d 00
        E 0 b2 0b 7f
        E 0 92 28 7f
        E 288 82 28 00
        E 80 b2 0b 7f
        E 0 92 28 7f
        E 176 82 28 00
        E 0 b2 0b 7f
        E 0 92 2a 7f
        E 352 82 2a 00
        E 0 b2 0b 7f
        E 0 92 2b 7f
        E 352 82 2b 00
        E 0 b2 0b 7f
        E 0 92 2f 7f
        E 176 82 2f 00
        E 0 b2 0b 7f
        E 0 92 2b 7f
        E 176 82 2b 00
        E 0 b2 0b 7f
        E 0 92 2d 7f
        E 368 82 2d 00
        E 0 b2 0b 7f
        E 0 92 2a 7f
        E 352 82 2a 00
        E 0 b2 0b 7f
        E 0 92 2b 7f
        E 176 82 2b 00
        E 0 b2 0b 7f
        E 0 92 26 7f
        E 176 82 26 00
        E 0 b2 0b 7f
        E 0 92 28 7f
        E 176 82 28 00
        E 0 b2 0b 7f
        E 0 92 2d 7f
        E 288 82 2d 00
        E 80 b2 0b 7f
        E 0 92 2d 7f
        E 176 82 2d 00
        E 0 b2 0b 7f
        E 0 92 2f 7f
        E 352 82 2f 00
        E 0 b2 0b 7f
        E 0 92 30 7f
        E 176 82 30 00
        E 0 b2 0b 7f
        E 0 92 32 7f
        E 176 82 32 00
        E 0 b2 0b 7f
        E 0 92 34 7f
        E 176 82 34 00
        E 0 b2 0b 7f
        E 0 92 2b 7f
        E 192 82 2b 00
        E 0 b2 0b 7f
        E 0 92 28 7f
        E 352 82 28 00
        E 0 b2 0b 7f
        E 0 92 2a 7f
        E 352 82 2a 00
        E 0 b2 0b 7f
        E 0 92 2b 7f
        E 352 82 2b 00
        E 0 b2 0b 7f
        E 0 92 2d 7f
        E 176 82 2d 00
        E 0 b2 0b 7f
        E 0 92 28 7f
        E 304 82 28 00
        E 64 b2 0b 7f
        E 0 92 28 7f
        E 176 82 28 00
        E 0 b2 0b 7f
        E 0 92 2a 7f
        E 352 82 2a 00
        E 0 b2 0b 7f
        E 0 92 2b 7f
        E 352 82 2b 00
        E 0 b2 0b 7f
        E 0 92 2f 7f
        E 192 82 2f 00
        E 0 b2 0b 7f
        E 0 92 2b 7f
        E 176 82 2b 00
        E 0 b2 0b 7f
        E 0 92 2d 7f
        E 352 82 2d 00
        E 0 b2 0b 7f
        E 0 92 2a 7f
        E 352 82 2a 00
        E 0 b2 0b 7f
        E 0 92 2b 7f
        E 176 82 2b 00
        E 0 b2 0b 7f
        E 0 92 26 7f
        E 176 82 26 00
        E 0 b2 0b 7f
        E 0 92 28 7f
        E 192 82 28 00
        E 0 b2 0b 7f
        E 0 92 2d 7f
        E 288 82 2d 00
        E 64 b2 0b 7f
        E 0 92 2d 7f
        E 176 82 2d 00
        E 0 b2 0b 7f
        E 0 92 2f 7f
        E 352 82 2f 00
        E 0 b2 0b 7f
        E 0 92 30 7f
        E 176 82 30 00
        E 0 b2 0b 7f
        E 0 92 32 7f
        E 176 82 32 00
        E 0 b2 0b 7f
        E 0 92 34 7f
        E 192 82 34 00
        E 0 b2 0b 7f
        E 0 92 2b 7f
        E 176 82 2b 00
        E 0 b2 0b 7f
        E 0 92 2d 7f
        E 4384 82 2d 00
        E 64 b2 0b 7f
        E 0 92 2d 7f
        E 176 82 2d 00
        E 0 b2 0b 7f
        E 0 92 2a 7f
        E 352 82 2a 00
        E 0 b2 0b 7f
        E 0 92 2b 7f
        E 368 82 2b 00
        E 0 b2 0b 7f
        E 0 92 26 7f
        E 176 82 26 00
        E 0 b2 0b 7f
        E 0 92 28 7f
        E 176 82 28 00
        E 0 b2 0b 7f
        E 0 92 2d 7f
        E 5520 82 2d 00
        E 0 b2 0b 7f
        E 0 92 30 7f
        E 3024 82 30 00
        E 0 b2 0b 7f
        E 0 92 28 7f
        E 352 82 28 00
        E 0 b2 0b 7f
        E 0 92 2a 7f
        E 368 82 2a 00
        E 0 b2 0b 7f
        E 0 92 2b 7f
        E 352 82 2b 00
        E 0 b2 0b 7f
        E 0 92 2d 7f
        E 176 82 2d 00
        E 0 b2 0b 7f
        E 0 92 28 7f
        E 288 82 28 00
        E 64 b2 0b 7f
        E 0 92 28 7f
        E 176 82 28 00
        E 0 b2 0b 7f
        E 0 92 2a 7f
        E 368 82 2a 00
        E 0 b2 0b 7f
        E 0 92 2b 7f
        E 352 82 2b 00
        E 0 b2 0b 7f
        E 0 92 2f 7f
        E 176 82 2f 00
        E 0 b2 0b 7f
        E 0 92 2b 7f
        E 176 82 2b 00
        E 0 b2 0b 7f
        E 0 92 2d 7f
        E 368 82 2d 00
        E 0 b2 0b 7f
        E 0 92 2a 7f
        E 352 82 2a 00
        E 0 b2 0b 7f
        E 0 92 2b 7f
        E 176 82 2b 00
        E 0 b2 0b 7f
        E 0 92 26 7f
        E 176 82 26 00
        E 0 b2 0b 7f
        E 0 92 28 7f
        E 176 82 28 00
        E 0 b2 0b 7f
        E 0 92 2d 7f
        E 288 82 2d 00
        E 64 b2 0b 7f
        E 0 92 2d 7f
        E 192 82 2d 00
        E 0 b2 0b 7f
        E 0 92 2f 7f
        E 352 82 2f 00
        E 0 b2 0b 7f
        E 0 92 30 7f
        E 176 82 30 00
        E 0 b2 0b 7f
        E 0 92 32 7f
        E 176 82 32 00
        E 0 b2 0b 7f
        E 0 92 34 7f
        E 176 82 34 00
        E 0 b2 0b 7f
        E 0 92 2b 7f
        E 176 82 2b 00
        E 0 b2 0b 7f
        E 0 92 28 7f
        E 368 82 28 00
        E 0 b2 0b 7f
        E 0 92 2a 7f
        E 352 82 2a 00
        E 0 b2 0b 7f
        E 0 92 2b 7f
        E 352 82 2b 00
        E 0 b2 0b 7f
        E 0 92 2d 7f
        E 176 82 2d 00
        E 0 b2 0b 7f
        E 0 92 28 7f
        E 288 82 28 00
        E 80 b2 0b 7f
        E 0 92 28 7f
        E 176 82 28 00
        E 0 b2 0b 7f
        E 0 92 2a 7f
        E 352 82 2a 00
        E 0 b2 0b 7f
        E 0 92 2b 7f
        E 352 82 2b 00
        E 0 b2 0b 7f
        E 0 92 2f 7f
        E 176 82 2f 00
        E 0 b2 0b 7f
        E 0 92 2b 7f
        E 176 82 2b 00
        E 0 b2 0b 7f
        E 0 92 2d 7f
        E 368 82 2d 00
        E 0 b2 0b 7f
        E 0 92 2a 7f
        E 352 82 2a 00
        E 0 b2 0b 7f
        E 0 92 2b 7f
        E 176 82 2b 00
        E 0 b2 0b 7f
        E 0 92 26 7f
        E 176 82 26 00
        E 0 b2 0b 7f
        E 0 92 28 7f
        E 176 82 28 00
        E 0 b2 0b 7f
        E 0 92 2d 7f
        E 288 82 2d 00
        E 80 b2 0b 7f
        E 0 92 2d 7f
        E 176 82 2d 00
        E 0 b2 0b 7f
        E 0 92 2f 7f
        E 352 82 2f 00
        E 0 b2 0b 7f
        E 0 92 30 7f
        E 176 82 30 00
        E 0 b2 0b 7f
        E 0 92 32 7f
        E 176 82 32 00
        E 0 b2 0b 7f
        E 0 92 34 7f
        E 176 82 34 00
        E 0 b2 0b 7f
        E 0 92 2b 7f
        E 192 82 2b 00
        E 0 b2 0b 7f
        E 0 92 2d 7f
        E 4384 82 2d 00
        E 64 b2 0b 7f
        E 0 92 2d 7f
        E 176 82 2d 00
        E 0 b2 0b 7f
        E 0 92 2a 7f
        E 352 82 2a 00
        E 0 b2 0b 7f
        E 0 92 2b 7f
        E 352 82 2b 00
        E 0 b2 0b 7f
        E 0 92 26 7f
        E 192 82 26 00
        E 0 b2 0b 7f
        E 0 92 28 7f
        E 176 82 28 00
        E 0 b2 0b 7f
        E 0 92 2d 7f
        E 5456 82 2d 00
        E 0 b2 0b 7f
        E 0 92 2e 7f
        E 240 82 2e 00
        E 0 b2 0b 7f
        E 0 92 2f 7f
        E 4384 82 2f 00
        E 64 b2 0b 7f
        E 0 92 2f 7f
        E 176 82 2f 00
        E 0 b2 0b 7f
        E 0 92 2c 7f
        E 368 82 2c 00
        E 0 b2 0b 7f
        E 0 92 2d 7f
        E 352 82 2d 00
        E 0 b2 0b 7f
        E 0 92 28 7f
        E 176 82 28 00
        E 0 b2 0b 7f
        E 0 92 2a 7f
        E 176 82 2a 00
        E 0 b2 0b 7f
        E 0 92 2f 7f
        E 5520 82 2f 00
        E 0 b2 0b 7f
        E 0 92 32 7f
        E 20896 82 32 00
        E 0 ff 2f 00
      >
    >
  >
  <TRACK {FC2E12B3-7082-4EEB-B855-CBB84433AEAB}
    NAME "NES - Noise / Drums [ch3]"
    PEAKCOL 11184810
    BEAT -1
    AUTOMODE 0
    PANLAWFLAGS 3
    VOLPAN 1 0 -1 -1 1
    MUTESOLO 0 0 0
    IPHASE 0
    PLAYOFFS 0 1
    ISBUS 0 0
    BUSCOMP 0 0 0 0 0
    SHOWINMIX 1 0.6667 0.5 1 0.5 0 0 0
    FIXEDLANES 9 0 0 0 0
    SEL 0
    REC 0 5088 1 0 0 0 0 0
    VU 2
    TRACKHEIGHT 0 0 0 0 0 0 0
    INQ 0 0 0 0.5 100 0 0 100
    NCHAN 2
    FX 1
    TRACKID {FC2E12B3-7082-4EEB-B855-CBB84433AEAB}
    PERF 0
    MIDIOUT -1
    MAINSEND 1 0
    <FXCHAIN
      WNDRECT 24 52 700 560
      SHOW 0
      LASTSEL 0
      DOCKED 0
      BYPASS 0 0 0
      <JS "ReapNES Studio/ReapNES_Console.jsfx" ""
        2 15 1 10 80 10 100 2 1 15 1 5 60 10 80 1 1 0 50 0 0 15 1 0 100 0 0 0.500000 0.500000 0.400000 0.300000 0.800000 3 1 0 0 0 0 - - - - - - - - - - - - - - - - - - - - - - - - - -
      >
      FLOATPOS 0 0 0 0
      FXID {C95D3ACB-306C-4764-97FC-309157954DEA}
      WAK 0 0
    >
    <ITEM
      POSITION 0
      LENGTH 83.98134
      LOOP 0
      ALLTAKES 0
      FADEIN 0 0 0 0 0 0 0
      FADEOUT 0 0 0 0 0 0 0
      MUTE 0 0
      SEL 0
      IGUID {B4A135D5-167B-43B2-B55E-E88FD2C4C52C}
      <SOURCE MIDI
        HASDATA 1 480 QN
        CCINTERP 32
        E 32 93 2a 28
        E 86368 83 2a 00
        E 0 ff 2f 00
      >
    >
  >
>