<REAPER_PROJECT 0.1 "7.27/win64" 1707000000
  <NOTES 0 2
    |ReapNES Studio Project
    |MIDI Import - Battletoads_13_Song_13_v1
  >
  RIPPLE 0
  GROUPOVERRIDE 0 0 0
  AUTOXFADE 129
  ENVATTACH 3
  POOLEDENVATTACH 0
  MIXERUIFLAGS 11 48
  ENVFADESZ10 40
  PEAKGAIN 1
  FEEDBACK 0
  PANLAW 1
  PROJOFFS 0 0 0
  MAXPROJLEN 0 0
  GRID 3199 8 1 8 1 0 0 0
  TIMEMODE 1 5 -1 30 0 0 -1
  VIDEO_CONFIG 0 0 65792
  PANMODE 3
  PANLAWFLAGS 3
  CURSOR 0
  ZOOM 100 0 0
  VZOOMEX 6 0
  USE_REC_CFG 0
  RECMODE 1
  SMPTESYNC 0 30 100 40 1000 300 0 0 1 0 0
  LOOP 0
  LOOPGRAN 0 4
  RECORD_PATH "Media" ""
  <RECORD_CFG
    ZXZhdxgAAQ==
  >
  <APPLYFX_CFG
  >
  RENDER_FILE ""
  RENDER_PATTERN ""
  RENDER_FMT 0 2 0
  RENDER_1X 0
  RENDER_RANGE 1 0 0 18 1000
  RENDER_RESAMPLE 3 0 1
  RENDER_ADDTOPROJ 0
  RENDER_STEMS 0
  RENDER_DITHER 0
  TIMELOCKMODE 1
  TEMPOENVLOCKMODE 1
  ITEMMIX 1
  DEFPITCHMODE 589824 0
  TAKELANE 1
  SAMPLERATE 44100 0 0
  <RENDER_CFG
    ZXZhdxgAAQ==
  >
  LOCK 1
  <METRONOME 6 2
    VOL 0.25 0.125
    BEATLEN 4
    FREQ 1760 880 1
    SAMPLES "" ""
    SPLIGNORE 0 0
    SPLDEF 2 660 "" 0
    SPLDEF 3 440 "" 0
    PATTERN 0 169
    PATTERNSTR ABBB
    MULT 1
  >
  GLOBAL_AUTO -1
  TEMPO 128.59999614200012 4 4
  PLAYRATE 1 0 0.25 4
  SELECTION 0 0
  SELECTION2 0 0
  MASTERAUTOMODE 0
  MASTERTRACKHEIGHT 0 0
  MASTERPEAKCOL 16576
  MASTERMUTESOLO 0
  MASTERTRACKVIEW 0 0.6667 0.5 0.5 0 0 0 0 0 0 0 0 0 0
  MASTERHWOUT 0 0 1 0 0 0 0 -1
  MASTER_NCH 2 2
  MASTER_VOLUME 1 0 -1 -1 1
  MASTER_PANMODE 3
  MASTER_PANLAWFLAGS 3
  MASTER_FX 1
  MASTER_SEL 0
  <MASTERPLAYSPEEDENV
    EGUID {60EFA545-A10F-47B4-80EF-F653333318B7}
    ACT 0 -1
    VIS 0 1 1
    LANEHEIGHT 0 0
    ARM 0
    DEFSHAPE 0 -1 -1
  >
  <TEMPOENVEX
    EGUID {E608EDBB-F334-4744-B007-7990422FCD19}
    ACT 1 -1
    VIS 1 0 1
    LANEHEIGHT 0 0
    ARM 0
    DEFSHAPE 1 -1 -1
  >
  <PROJBAY
  >
  <TRACK {24D6A3A2-0689-4D48-932F-FBE3CB7553D1}
    NAME "NES - Pulse 1 [ch0]"
    PEAKCOL 16576606
    BEAT -1
    AUTOMODE 0
    PANLAWFLAGS 3
    VOLPAN 1 0 -1 -1 1
    MUTESOLO 0 0 0
    IPHASE 0
    PLAYOFFS 0 1
    ISBUS 0 0
    BUSCOMP 0 0 0 0 0
    SHOWINMIX 1 0.6667 0.5 1 0.5 0 0 0
    FIXEDLANES 9 0 0 0 0
    SEL 1
    REC 0 5088 1 0 0 0 0 0
    VU 2
    TRACKHEIGHT 0 0 0 0 0 0 0
    INQ 0 0 0 0.5 100 0 0 100
    NCHAN 2
    FX 1
    TRACKID {24D6A3A2-0689-4D48-932F-FBE3CB7553D1}
    PERF 0
    MIDIOUT -1
    MAINSEND 1 0
    <FXCHAIN
      WNDRECT 24 52 700 560
      SHOW 0
      LASTSEL 0
      DOCKED 0
      BYPASS 0 0 0
      <JS "ReapNES Studio/ReapNES_Console.jsfx" ""
        2 15 1 10 80 10 100 2 1 15 1 5 60 10 80 1 1 0 50 0 0 15 1 0 100 0 0 0.500000 0.500000 0.400000 0.300000 0.800000 0 1 0 0 0 0 - - - - - - - - - - - - - - - - - - - - - - - - - -
      >
      FLOATPOS 0 0 0 0
      FXID {FB5F7F67-E82F-416E-98E0-82128E2B43AB}
      WAK 0 0
    >
    <ITEM
      POSITION 0
      LENGTH 83.98134
      LOOP 0
      ALLTAKES 0
      FADEIN 0 0 0 0 0 0 0
      FADEOUT 0 0 0 0 0 0 0
      MUTE 0 0
      SEL 0
      IGUID {4A2F3B75-B4BE-4AAC-9413-24863CD89889}
      <SOURCE MIDI
        HASDATA 1 480 QN
        CCINTERP 32
        E 0 c0 50
        E 48 b0 0c 40
        E 0 b0 0b 28
        E 0 90 26 28
        E 480 b0 0b 10
        E 480 b0 0b 28
        E 0 80 26 00
        E 0 90 24 28
        E 464 b0 0b 10
        E 480 b0 0b 28
        E 0 80 24 00
        E 0 90 26 28
        E 480 b0 0b 10
        E 464 b0 0b 28
        E 0 80 26 00
        E 0 90 24 28
        E 480 b0 0b 10
        E 480 b0 0b 28
        E 0 80 24 00
        E 0 90 27 28
        E 464 b0 0b 10
        E 480 b0 0b 28
        E 0 80 27 00
        E 0 90 26 28
        E 480 b0 0b 10
        E 464 b0 0b 28
        E 0 80 26 00
        E 0 90 25 28
        E 480 b0 0b 10
        E 480 b0 0b 28
        E 0 80 25 00
        E 0 90 26 28
        E 464 b0 0b 10
        E 480 b0 0b 28
        E 480 b0 0b 10
        E 464 b0 0b 28
        E 0 80 26 00
        E 0 90 24 28
        E 480 b0 0b 10
        E 480 b0 0b 28
        E 0 80 24 00
        E 0 90 26 28
        E 480 b0 0b 10
        E 464 b0 0b 28
        E 0 80 26 00
        E 0 90 24 28
        E 480 b0 0b 10
        E 480 b0 0b 28
        E 0 80 24 00
        E 0 90 27 28
        E 464 b0 0b 10
        E 480 b0 0b 28
        E 0 80 27 00
        E 0 90 26 28
        E 480 b0 0b 10
        E 464 b0 0b 28
        E 0 80 26 00
        E 0 90 25 28
        E 480 b0 0b 10
        E 480 b0 0b 28
        E 0 80 25 00
        E 0 90 26 28
        E 464 b0 0b 10
        E 480 b0 0b 28
        E 480 b0 0b 10
        E 464 b0 0b 28
        E 0 80 26 00
        E 0 90 24 28
        E 480 b0 0b 10
        E 480 b0 0b 28
        E 0 80 24 00
        E 0 90 26 28
        E 464 b0 0b 10
        E 480 b0 0b 28
        E 0 80 26 00
        E 0 90 24 28
        E 480 b0 0b 10
        E 464 b0 0b 28
        E 0 80 24 00
        E 0 90 27 28
        E 480 b0 0b 10
        E 480 b0 0b 28
        E 0 80 27 00
        E 0 90 26 28
        E 464 b0 0b 10
        E 480 b0 0b 28
        E 0 80 26 00
        E 0 90 25 28
        E 480 b0 0b 10
        E 480 b0 0b 28
        E 0 80 25 00
        E 0 90 26 28
        E 464 b0 0b 10
        E 480 b0 0b 20
        E 0 80 26 00
        E 0 90 3e 20
        E 112 b0 0b 10
        E 128 b0 0b 20
        E 112 b0 0b 10
        E 128 b0 0b 20
        E 112 b0 0b 10
        E 112 b0 0b 20
        E 128 b0 0b 10
        E 112 b0 0b 20
        E 128 b0 0b 10
        E 112 b0 0b 20
        E 128 b0 0b 10
        E 112 b0 0b 20
        E 112 b0 0b 10
        E 128 b0 0b 20
        E 112 b0 0b 10
        E 128 b0 0b 20
        E 112 b0 0b 10
        E 112 b0 0b 20
        E 128 b0 0b 10
        E 112 b0 0b 20
        E 128 b0 0b 10
        E 112 b0 0b 20
        E 128 b0 0b 10
        E 112 b0 0b 20
        E 112 b0 0b 10
        E 128 b0 0b 20
        E 112 b0 0b 10
        E 128 b0 0b 20
        E 112 b0 0b 10
        E 128 b0 0b 20
        E 112 b0 0b 10
        E 112 b0 0c 20
        E 0 b0 0b 28
        E 0 80 3e 00
        E 0 90 1f 28
        E 16 b0 0b 20
        E 32 b0 0b 18
        E 32 b0 0b 10
        E 32 b0 0b 08
        E 16 b0 0b 28
        E 0 80 1f 00
        E 0 90 21 28
        E 16 b0 0b 20
        E 48 b0 0b 18
        E 32 b0 0b 10
        E 16 b0 0b 28
        E 0 80 21 00
        E 0 90 22 28
        E 16 b0 0b 20
        E 32 b0 0b 18
        E 32 b0 0b 10
        E 32 b0 0b 08
        E 16 b0 0b 28
        E 0 80 22 00
        E 0 90 24 28
        E 32 b0 0b 20
        E 32 b0 0b 18
        E 32 b0 0b 10
        E 16 b0 0b 28
        E 0 80 24 00
        E 0 90 26 28
        E 16 b0 0b 20
        E 32 b0 0b 18
        E 32 b0 0b 10
        E 48 b0 0b 08
        E 32 80 26 00
        E 80 b0 0b 28
        E 0 90 1f 28
        E 16 b0 0b 20
        E 32 b0 0b 18
        E 48 b0 0b 10
        E 16 b0 0b 28
        E 0 80 1f 00
        E 0 90 24 28
        E 16 b0 0b 20
        E 32 b0 0b 18
        E 32 b0 0b 10
        E 32 b0 0b 08
        E 32 80 24 00
        E 96 b0 0b 28
        E 0 90 22 28
        E 16 b0 0b 20
        E 32 b0 0b 18
        E 32 b0 0b 10
        E 32 b0 0b 08
        E 16 b0 0b 28
        E 32 b0 0b 20
        E 32 b0 0b 18
        E 32 b0 0b 10
        E 32 b0 0b 08
        E 32 80 22 00
        E 64 b0 0b 28
        E 0 90 21 28
        E 16 b0 0b 20
        E 32 b0 0b 18
        E 32 b0 0b 10
        E 32 b0 0b 08
        E 32 80 21 00
        E 96 b0 0b 28
        E 0 90 1d 28
        E 16 b0 0b 20
        E 32 b0 0b 18
        E 32 b0 0b 10
        E 32 b0 0b 08
        E 16 b0 0b 28
        E 16 b0 0b 20
        E 48 b0 0b 18
        E 32 b0 0b 10
        E 16 b0 0c 40
        E 0 b0 0b 30
        E 0 80 1d 00
        E 0 90 32 30
        E 16 b0 0b 28
        E 32 b0 0b 20
        E 32 b0 0b 18
        E 32 b0 0c 20
        E 0 b0 0b 28
        E 0 80 32 00
        E 0 90 1f 28
        E 16 b0 0b 20
        E 32 b0 0b 18
        E 32 b0 0b 10
        E 32 b0 0b 08
        E 16 b0 0b 10
        E 112 b0 0b 28
        E 16 b0 0b 20
        E 32 b0 0b 18
        E 32 b0 0b 10
        E 32 b0 0b 08
        E 16 b0 0b 10
        E 16 b0 0b 08
        E 48 80 1f 00
        E 48 b0 0b 28
        E 0 90 1f 28
        E 16 b0 0b 20
        E 32 b0 0b 18
        E 32 b0 0b 10
        E 32 b0 0b 08
        E 16 b0 0b 10
        E 32 b0 0b 08
        E 32 80 1f 00
        E 48 b0 0b 10
        E 0 90 1f 10
        E 112 b0 0c 40
        E 0 b0 0b 30
        E 0 80 1f 00
        E 0 90 33 30
        E 16 b0 0b 28
        E 32 b0 0b 20
        E 32 b0 0b 18
        E 32 b0 0b 10
        E 16 b0 0c 20
        E 0 b0 0b 28
        E 0 80 33 00
        E 0 90 1f 28
        E 16 b0 0b 20
        E 32 b0 0b 18
        E 48 b0 0b 10
        E 144 b0 0b 28
        E 16 b0 0b 20
        E 48 b0 0b 18
        E 32 b0 0b 10
        E 32 b0 0b 08
        E 32 80 1f 00
        E 80 b0 0b 28
        E 0 90 1f 28
        E 32 b0 0b 20
        E 32 b0 0b 18
        E 32 b0 0b 10
        E 32 b0 0b 08
        E 32 80 1f 00
        E 64 b0 0b 10
        E 0 90 1f 10
        E 128 b0 0c 40
        E 0 b0 0b 30
        E 0 80 1f 00
        E 0 90 30 30
        E 16 b0 0b 28
        E 32 b0 0b 20
        E 48 b0 0b 18
        E 16 b0 0c 20
        E 0 b0 0b 28
        E 0 80 30 00
        E 0 90 1f 28
        E 16 b0 0b 20
        E 32 b0 0b 18
        E 32 b0 0b 10
        E 32 b0 0b 08
        E 16 b0 0b 10
        E 112 b0 0b 28
        E 16 b0 0b 20
        E 32 b0 0b 18
        E 32 b0 0b 10
        E 48 b0 0b 08
        E 32 80 1f 00
        E 80 b0 0b 28
        E 0 90 1f 28
        E 16 b0 0b 20
        E 32 b0 0b 18
        E 48 b0 0b 10
        E 32 b0 0b 08
        E 32 80 1f 00
        E 80 b0 0b 10
        E 0 90 1f 10
        E 112 b0 0c 40
        E 0 b0 0b 30
        E 0 80 1f 00
        E 0 90 2f 30
        E 16 b0 0b 28
        E 32 b0 0b 20
        E 32 b0 0b 18
        E 32 b0 0b 10
        E 16 b0 0c 20
        E 0 b0 0b 28
        E 0 80 2f 00
        E 0 90 1f 28
        E 32 b0 0b 20
        E 32 b0 0b 18
        E 32 b0 0b 10
        E 128 b0 0b 28
        E 16 b0 0b 20
        E 32 b0 0b 18
        E 32 b0 0b 10
        E 32 b0 0b 08
        E 16 b0 0b 10
        E 16 b0 0b 08
        E 32 80 1f 00
        E 64 b0 0b 28
        E 0 90 1f 28
        E 16 b0 0b 20
        E 32 b0 0b 18
        E 32 b0 0b 10
        E 32 b0 0b 08
        E 16 b0 0b 10
        E 16 b0 0b 08
        E 48 80 1f 00
        E 48 b0 0b 10
        E 0 90 1f 10
        E 128 b0 0c 40
        E 0 b0 0b 30
        E 0 80 1f 00
        E 0 90 34 30
        E 32 b0 0b 28
        E 32 b0 0b 20
        E 32 b0 0b 18
        E 16 b0 0c 20
        E 0 b0 0b 28
        E 0 80 34 00
        E 0 90 21 28
        E 16 b0 0b 20
        E 32 b0 0b 18
        E 32 b0 0b 10
        E 160 b0 0b 28
        E 16 b0 0b 20
        E 48 b0 0b 18
        E 32 b0 0b 10
        E 32 b0 0b 08
        E 32 80 21 00
        E 80 b0 0b 28
        E 0 90 21 28
        E 32 b0 0b 20
        E 32 b0 0b 18
        E 32 b0 0b 10
        E 32 b0 0b 08
        E 32 80 21 00
        E 64 b0 0b 10
        E 0 90 21 10
        E 128 b0 0c 40
        E 0 b0 0b 30
        E 0 80 21 00
        E 0 90 35 30
        E 16 b0 0b 28
        E 32 b0 0b 20
        E 48 b0 0b 18
        E 16 b0 0c 20
        E 0 b0 0b 28
        E 0 80 35 00
        E 0 90 21 28
        E 16 b0 0b 20
        E 32 b0 0b 18
        E 32 b0 0b 10
        E 32 b0 0b 08
        E 16 b0 0b 10
        E 112 b0 0b 28
        E 16 b0 0b 20
        E 32 b0 0b 18
        E 32 b0 0b 10
        E 32 b0 0b 08
        E 16 b0 0b 10
        E 32 b0 0b 08
        E 32 80 21 00
        E 48 b0 0b 28
        E 0 90 21 28
        E 16 b0 0b 20
        E 32 b0 0b 18
        E 32 b0 0b 10
        E 48 b0 0b 08
        E 32 80 21 00
        E 80 b0 0b 10
        E 0 90 21 10
        E 112 b0 0c 40
        E 0 b0 0b 30
        E 0 80 21 00
        E 0 90 32 30
        E 16 b0 0b 28
        E 32 b0 0b 20
        E 32 b0 0b 18
        E 32 b0 0b 10
        E 16 b0 0c 20
        E 0 b0 0b 28
        E 0 80 32 00
        E 0 90 21 28
        E 16 b0 0b 20
        E 48 b0 0b 18
        E 32 b0 0b 10
        E 144 b0 0b 28
        E 32 b0 0b 20
        E 32 b0 0b 18
        E 32 b0 0b 10
        E 32 b0 0b 08
        E 32 80 21 00
        E 64 b0 0b 28
        E 0 90 21 28
        E 16 b0 0b 20
        E 32 b0 0b 18
        E 32 b0 0b 10
        E 32 b0 0b 08
        E 16 b0 0b 10
        E 16 b0 0b 08
        E 48 80 21 00
        E 48 b0 0b 10
        E 0 90 21 10
        E 128 b0 0c 40
        E 0 b0 0b 30
        E 0 80 21 00
        E 0 90 31 30
        E 32 b0 0b 28
        E 32 b0 0b 20
        E 32 b0 0b 18
        E 16 b0 0c 20
        E 0 b0 0b 28
        E 0 80 31 00
        E 0 90 21 28
        E 16 b0 0b 20
        E 32 b0 0b 18
        E 32 b0 0b 10
        E 160 b0 0b 28
        E 16 b0 0b 20
        E 32 b0 0b 18
        E 48 b0 0b 10
        E 32 b0 0b 08
        E 32 80 21 00
        E 80 b0 0b 28
        E 0 90 21 28
        E 16 b0 0b 20
        E 48 b0 0b 18
        E 32 b0 0b 10
        E 32 b0 0b 08
        E 32 80 21 00
        E 80 b0 0b 10
        E 0 90 21 10
        E 112 b0 0c 40
        E 0 b0 0b 30
        E 0 80 21 00
        E 0 90 36 30
        E 16 b0 0b 28
        E 32 b0 0b 20
        E 32 b0 0b 18
        E 32 b0 0c 20
        E 0 b0 0b 28
        E 0 80 36 00
        E 0 90 23 28
        E 16 b0 0b 20
        E 32 b0 0b 18
        E 32 b0 0b 10
        E 32 b0 0b 08
        E 16 b0 0b 10
        E 112 b0 0b 28
        E 16 b0 0b 20
        E 32 b0 0b 18
        E 32 b0 0b 10
        E 32 b0 0b 08
        E 16 b0 0b 10
        E 16 b0 0b 08
        E 48 80 23 00
        E 48 b0 0b 28
        E 0 90 23 28
        E 16 b0 0b 20
        E 32 b0 0b 18
        E 32 b0 0b 10
        E 48 b0 0b 08
        E 32 80 23 00
        E 80 b0 0b 10
        E 0 90 23 10
        E 112 b0 0c 40
        E 0 b0 0b 30
        E 0 80 23 00
        E 0 90 37 30
        E 16 b0 0b 28
        E 32 b0 0b 20
        E 32 b0 0b 18
        E 32 b0 0b 10
        E 16 b0 0c 20
        E 0 b0 0b 28
        E 0 80 37 00
        E 0 90 23 28
        E 16 b0 0b 20
        E 48 b0 0b 18
        E 32 b0 0b 10
        E 144 b0 0b 28
        E 32 b0 0b 20
        E 32 b0 0b 18
        E 32 b0 0b 10
        E 32 b0 0b 08
        E 32 80 23 00
        E 64 b0 0b 28
        E 0 90 23 28
        E 16 b0 0b 20
        E 32 b0 0b 18
        E 32 b0 0b 10
        E 32 b0 0b 08
        E 16 b0 0b 10
        E 16 b0 0b 08
        E 32 80 23 00
        E 64 b0 0b 10
        E 0 90 23 10
        E 128 b0 0c 40
        E 0 b0 0b 30
        E 0 80 23 00
        E 0 90 34 30
        E 16 b0 0b 28
        E 48 b0 0b 20
        E 32 b0 0b 18
        E 16 b0 0c 20
        E 0 b0 0b 28
        E 0 80 34 00
        E 0 90 23 28
        E 16 b0 0b 20
        E 32 b0 0b 18
        E 32 b0 0b 10
        E 32 b0 0b 08
        E 16 b0 0b 10
        E 112 b0 0b 28
        E 16 b0 0b 20
        E 32 b0 0b 18
        E 32 b0 0b 10
        E 48 b0 0b 08
        E 32 80 23 00
        E 80 b0 0b 28
        E 0 90 23 28
        E 16 b0 0b 20
        E 32 b0 0b 18
        E 48 b0 0b 10
        E 32 b0 0b 08
        E 32 80 23 00
        E 80 b0 0b 10
        E 0 90 23 10
        E 112 b0 0c 40
        E 0 b0 0b 30
        E 0 80 23 00
        E 0 90 33 30
        E 16 b0 0b 28
        E 32 b0 0b 20
        E 32 b0 0b 18
        E 32 b0 0c 20
        E 0 b0 0b 28
        E 0 80 33 00
        E 0 90 23 28
        E 16 b0 0b 20
        E 32 b0 0b 18
        E 32 b0 0b 10
        E 32 b0 0b 08
        E 16 b0 0b 10
        E 112 b0 0b 28
        E 16 b0 0b 20
        E 32 b0 0b 18
        E 32 b0 0b 10
        E 32 b0 0b 08
        E 16 b0 0b 10
        E 16 b0 0b 08
        E 48 80 23 00
        E 48 b0 0b 28
        E 0 90 23 28
        E 16 b0 0b 20
        E 32 b0 0b 18
        E 32 b0 0b 10
        E 32 b0 0b 08
        E 16 b0 0b 10
        E 32 b0 0b 08
        E 32 80 23 00
        E 48 b0 0b 10
        E 0 90 23 10
        E 112 b0 0c 40
        E 0 b0 0b 30
        E 0 80 23 00
        E 0 90 38 30
        E 16 b0 0b 28
        E 32 b0 0b 20
        E 32 b0 0b 18
        E 32 b0 0b 10
        E 16 b0 0c 20
        E 0 b0 0b 28
        E 0 80 38 00
        E 0 90 25 28
        E 16 b0 0b 20
        E 32 b0 0b 18
        E 48 b0 0b 10
        E 144 b0 0b 28
        E 16 b0 0b 20
        E 48 b0 0b 18
        E 32 b0 0b 10
        E 32 b0 0b 08
        E 32 80 25 00
        E 80 b0 0b 28
        E 0 90 25 28
        E 32 b0 0b 20
        E 32 b0 0b 18
        E 32 b0 0b 10
        E 32 b0 0b 08
        E 32 80 25 00
        E 64 b0 0b 10
        E 0 90 25 10
        E 128 b0 0c 40
        E 0 b0 0b 30
        E 0 80 25 00
        E 0 90 39 30
        E 16 b0 0b 28
        E 48 b0 0b 20
        E 32 b0 0b 18
        E 16 b0 0c 20
        E 0 b0 0b 28
        E 0 80 39 00
        E 0 90 25 28
        E 16 b0 0b 20
        E 32 b0 0b 18
        E 32 b0 0b 10
        E 32 b0 0b 08
        E 16 b0 0b 10
        E 112 b0 0b 28
        E 16 b0 0b 20
        E 32 b0 0b 18
        E 32 b0 0b 10
        E 48 b0 0b 08
        E 32 80 25 00
        E 80 b0 0b 28
        E 0 90 25 28
        E 16 b0 0b 20
        E 32 b0 0b 18
        E 48 b0 0b 10
        E 32 b0 0b 08
        E 32 80 25 00
        E 80 b0 0b 10
        E 0 90 25 10
        E 112 b0 0c 40
        E 0 b0 0b 30
        E 0 80 25 00
        E 0 90 36 30
        E 16 b0 0b 28
        E 32 b0 0b 20
        E 32 b0 0b 18
        E 32 b0 0b 10
        E 16 b0 0c 20
        E 0 b0 0b 28
        E 0 80 36 00
        E 0 90 25 28
        E 32 b0 0b 20
        E 32 b0 0b 18
        E 32 b0 0b 10
        E 128 b0 0b 28
        E 16 b0 0b 20
        E 32 b0 0b 18
        E 32 b0 0b 10
        E 32 b0 0b 08
        E 16 b0 0b 10
        E 16 b0 0b 08
        E 32 80 25 00
        E 64 b0 0b 28
        E 0 90 25 28
        E 16 b0 0b 20
        E 32 b0 0b 18
        E 32 b0 0b 10
        E 32 b0 0b 08
        E 16 b0 0b 10
        E 16 b0 0b 08
        E 48 80 25 00
        E 48 b0 0b 10
        E 0 90 25 10
        E 128 b0 0c 40
        E 0 b0 0b 30
        E 0 80 25 00
        E 0 90 35 30
        E 32 b0 0b 28
        E 32 b0 0b 20
        E 32 b0 0b 18
        E 16 b0 0c 20
        E 0 b0 0b 28
        E 0 80 35 00
        E 0 90 25 28
        E 16 b0 0b 20
        E 32 b0 0b 18
        E 48 b0 0b 10
        E 144 b0 0b 28
        E 16 b0 0b 20
        E 48 b0 0b 18
        E 32 b0 0b 10
        E 32 b0 0b 08
        E 32 80 25 00
        E 80 b0 0b 28
        E 0 90 25 28
        E 32 b0 0b 20
        E 32 b0 0b 18
        E 32 b0 0b 10
        E 32 b0 0b 08
        E 32 80 25 00
        E 64 b0 0b 10
        E 0 90 25 10
        E 128 b0 0c 10
        E 0 b0 0b 28
        E 0 80 25 00
        E 0 90 22 28
        E 16 b0 0b 20
        E 32 b0 0b 18
        E 16 80 22 00
        E 48 b0 0b 28
        E 0 90 21 28
        E 16 b0 0b 20
        E 32 b0 0b 18
        E 16 b0 0b 10
        E 0 80 21 00
        E 0 90 22 10
        E 16 b0 0b 08
        E 32 80 22 00
        E 16 b0 0b 28
        E 0 90 22 28
        E 16 b0 0b 20
        E 32 b0 0b 10
        E 0 80 22 00
        E 0 90 21 10
        E 16 b0 0b 08
        E 32 80 21 00
        E 16 b0 0b 28
        E 0 90 21 28
        E 16 b0 0b 20
        E 32 b0 0b 18
        E 16 b0 0b 10
        E 0 80 21 00
        E 0 90 22 10
        E 16 b0 0b 08
        E 32 80 22 00
        E 16 b0 0b 18
        E 0 90 22 18
        E 48 b0 0b 08
        E 0 80 22 00
        E 0 90 21 08
        E 16 80 21 00
        E 48 b0 0b 18
        E 0 90 21 18
        E 16 b0 0b 10
        E 32 b0 0b 08
        E 16 80 21 00
        E 0 90 22 08
        E 16 80 22 00
        E 32 b0 0b 18
        E 0 90 22 18
        E 16 b0 0b 10
        E 32 b0 0b 08
        E 16 80 22 00
        E 0 90 21 08
        E 16 80 21 00
        E 48 b0 0b 18
        E 0 90 21 18
        E 16 b0 0b 10
        E 32 b0 0b 08
        E 16 80 21 00
        E 0 90 22 08
        E 32 80 22 00
        E 16 b0 0b 28
        E 0 90 26 28
        E 64 b0 0b 10
        E 0 80 26 00
        E 0 90 21 10
        E 16 b0 0b 08
        E 32 80 21 00
        E 16 b0 0b 28
        E 0 90 24 28
        E 16 b0 0b 20
        E 32 b0 0b 10
        E 0 80 24 00
        E 0 90 26 10
        E 16 b0 0b 08
        E 32 80 26 00
        E 16 b0 0b 28
        E 0 90 26 28
        E 16 b0 0b 20
        E 32 b0 0b 18
        E 16 b0 0b 10
        E 0 80 26 00
        E 0 90 24 10
        E 16 b0 0b 08
        E 32 b0 0b 28
        E 16 b0 0b 20
        E 32 b0 0b 18
        E 16 b0 0b 10
        E 0 80 24 00
        E 0 90 26 10
        E 16 b0 0b 08
        E 32 80 26 00
        E 16 b0 0b 18
        E 0 90 26 18
        E 64 b0 0b 08
        E 0 80 26 00
        E 0 90 24 08
        E 32 80 24 00
        E 16 b0 0b 18
        E 0 90 24 18
        E 16 b0 0b 10
        E 32 b0 0b 08
        E 16 80 24 00
        E 0 90 26 08
        E 16 80 26 00
        E 48 b0 0b 18
        E 0 90 26 18
        E 16 b0 0b 10
        E 32 b0 0b 08
        E 0 80 26 00
        E 0 90 24 08
        E 16 80 24 00
        E 48 b0 0b 18
        E 0 90 24 18
        E 16 b0 0b 10
        E 32 b0 0b 08
        E 16 80 24 00
        E 0 90 26 08
        E 16 80 26 00
        E 48 b0 0b 28
        E 0 90 29 28
        E 48 b0 0b 10
        E 0 80 29 00
        E 0 90 24 10
        E 16 b0 0b 08
        E 32 80 24 00
        E 16 b0 0b 28
        E 0 90 27 28
        E 16 b0 0b 20
        E 32 b0 0b 18
        E 16 b0 0b 10
        E 0 80 27 00
        E 0 90 29 10
        E 16 b0 0b 08
        E 32 b0 0b 28
        E 16 b0 0b 20
        E 32 b0 0b 18
        E 16 b0 0b 10
        E 0 80 29 00
        E 0 90 27 10
        E 16 b0 0b 08
        E 32 80 27 00
        E 16 b0 0b 28
        E 0 90 27 28
        E 16 b0 0b 20
        E 32 b0 0b 18
        E 16 b0 0b 10
        E 0 80 27 00
        E 0 90 29 10
        E 32 b0 0b 08
        E 16 b0 0b 18
        E 64 b0 0b 08
        E 0 80 29 00
        E 0 90 27 08
        E 16 80 27 00
        E 48 b0 0b 18
        E 0 90 27 18
        E 16 b0 0b 10
        E 32 b0 0b 08
        E 0 80 27 00
        E 0 90 29 08
        E 16 80 29 00
        E 48 b0 0b 18
        E 0 90 29 18
        E 16 b0 0b 10
        E 32 b0 0b 08
        E 16 80 29 00
        E 0 90 27 08
        E 16 80 27 00
        E 48 b0 0b 18
        E 0 90 27 18
        E 32 b0 0b 10
        E 16 b0 0b 08
        E 0 80 27 00
        E 0 90 29 08
        E 16 80 29 00
        E 48 b0 0b 28
        E 0 90 2d 28
        E 64 b0 0b 10
        E 0 80 2d 00
        E 0 90 27 10
        E 16 b0 0b 08
        E 32 b0 0b 28
        E 0 80 27 00
        E 0 90 2b 28
        E 16 b0 0b 20
        E 32 b0 0b 18
        E 16 b0 0b 10
        E 0 80 2b 00
        E 0 90 2d 10
        E 16 b0 0b 08
        E 32 80 2d 00
        E 16 b0 0b 28
        E 0 90 2d 28
        E 16 b0 0b 20
        E 32 b0 0b 18
        E 16 b0 0b 10
        E 0 80 2d 00
        E 0 90 2b 10
        E 32 b0 0b 08
        E 16 b0 0b 28
        E 16 b0 0b 20
        E 32 b0 0b 18
        E 16 b0 0b 10
        E 0 80 2b 00
        E 0 90 2d 10
        E 16 b0 0b 08
        E 32 80 2d 00
        E 16 b0 0b 18
        E 0 90 2d 18
        E 48 b0 0b 08
        E 0 80 2d 00
        E 0 90 2b 08
        E 16 80 2b 00
        E 48 b0 0b 18
        E 0 90 2b 18
        E 16 b0 0b 10
        E 32 b0 0b 08
        E 16 80 2b 00
        E 0 90 2d 08
        E 16 80 2d 00
        E 32 b0 0b 18
        E 0 90 2d 18
        E 16 b0 0b 10
        E 32 b0 0b 08
        E 16 80 2d 00
        E 0 90 2b 08
        E 16 80 2b 00
        E 48 b0 0b 18
        E 0 90 2b 18
        E 16 b0 0b 10
        E 32 b0 0b 08
        E 16 80 2b 00
        E 0 90 2d 08
        E 32 80 2d 00
        E 16 b0 0c 40
        E 0 b0 0b 30
        E 0 90 26 30
        E 80 b0 0b 28
        E 48 b0 0b 30
        E 0 80 26 00
        E 0 90 24 30
        E 64 b0 0b 28
        E 96 b0 0b 20
        E 80 b0 0b 30
        E 0 80 24 00
        E 0 90 22 30
        E 32 b0 0b 28
        E 96 b0 0b 20
        E 96 b0 0b 30
        E 0 80 22 00
        E 0 90 21 30
        E 16 b0 0b 28
        E 96 b0 0b 20
        E 112 b0 0b 18
        E 96 b0 0b 10
        E 48 b0 0b 30
        E 0 80 21 00
        E 0 90 22 30
        E 64 b0 0b 28
        E 48 b0 0b 30
        E 0 80 22 00
        E 0 90 21 30
        E 48 b0 0b 28
        E 112 b0 0b 20
        E 80 b0 0b 30
        E 0 80 21 00
        E 0 90 1f 30
        E 16 b0 0b 28
        E 112 b0 0b 20
        E 96 b0 0b 18
        E 16 b0 0b 30
        E 0 80 1f 00
        E 0 90 1d 30
        E 96 b0 0b 28
        E 96 b0 0b 20
        E 112 b0 0b 18
        E 48 b0 0c 10
        E 0 b0 0b 28
        E 0 80 1d 00
        E 0 90 24 28
        E 48 b0 0b 20
        E 16 80 24 00
        E 48 b0 0b 28
        E 0 90 23 28
        E 64 b0 0b 10
        E 0 80 23 00
        E 0 90 24 10
        E 16 b0 0b 08
        E 48 b0 0b 28
        E 48 b0 0b 20
        E 16 b0 0b 10
        E 0 80 24 00
        E 0 90 23 10
        E 48 b0 0b 28
        E 48 b0 0b 20
        E 16 b0 0b 10
        E 0 80 23 00
        E 0 90 24 10
        E 64 b0 0b 18
        E 48 b0 0b 08
        E 0 80 24 00
        E 0 90 23 08
        E 16 80 23 00
        E 48 b0 0b 18
        E 0 90 23 18
        E 64 b0 0b 08
        E 0 80 23 00
        E 0 90 24 08
        E 16 80 24 00
        E 48 b0 0b 18
        E 0 90 24 18
        E 48 b0 0b 08
        E 0 80 24 00
        E 0 90 23 08
        E 48 80 23 00
        E 16 b0 0b 18
        E 0 90 23 18
        E 64 b0 0b 08
        E 0 80 23 00
        E 0 90 24 08
        E 16 80 24 00
        E 32 b0 0b 28
        E 0 90 28 28
        E 64 b0 0b 10
        E 0 80 28 00
        E 0 90 23 10
        E 64 b0 0b 28
        E 0 80 23 00
        E 0 90 26 28
        E 16 b0 0b 20
        E 48 b0 0b 10
        E 0 80 26 00
        E 0 90 28 10
        E 48 b0 0b 28
        E 16 b0 0b 20
        E 48 b0 0b 10
        E 0 80 28 00
        E 0 90 26 10
        E 48 b0 0b 08
        E 16 b0 0b 28
        E 48 b0 0b 10
        E 0 80 26 00
        E 0 90 28 10
        E 48 b0 0b 08
        E 16 b0 0b 18
        E 64 b0 0b 08
        E 0 80 28 00
        E 0 90 26 08
        E 64 b0 0b 18
        E 32 b0 0b 10
        E 16 b0 0b 08
        E 0 80 26 00
        E 0 90 28 08
        E 64 b0 0b 18
        E 16 b0 0b 10
        E 48 b0 0b 08
        E 0 80 28 00
        E 0 90 26 08
        E 48 b0 0b 18
        E 16 b0 0b 10
        E 48 b0 0b 08
        E 0 80 26 00
        E 0 90 28 08
        E 48 80 28 00
        E 16 b0 0b 28
        E 0 90 2b 28
        E 48 b0 0b 10
        E 0 80 2b 00
        E 0 90 26 10
        E 64 b0 0b 28
        E 0 80 26 00
        E 0 90 29 28
        E 16 b0 0b 20
        E 48 b0 0b 10
        E 0 80 29 00
        E 0 90 2b 10
        E 48 b0 0b 08
        E 16 b0 0b 28
        E 48 b0 0b 10
        E 0 80 2b 00
        E 0 90 29 10
        E 48 b0 0b 08
        E 16 b0 0b 28
        E 64 b0 0b 10
        E 0 80 29 00
        E 0 90 2b 10
        E 16 b0 0b 08
        E 32 b0 0b 18
        E 64 b0 0b 08
        E 0 80 2b 00
        E 0 90 29 08
        E 64 b0 0b 18
        E 16 b0 0b 10
        E 48 b0 0b 08
        E 0 80 29 00
        E 0 90 2b 08
        E 48 b0 0b 18
        E 16 b0 0b 10
        E 48 b0 0b 08
        E 0 80 2b 00
        E 0 90 29 08
        E 48 80 29 00
        E 16 b0 0b 18
        E 0 90 29 18
        E 48 b0 0b 08
        E 0 80 29 00
        E 0 90 2b 08
        E 48 80 2b 00
        E 16 b0 0b 28
        E 0 90 2f 28
        E 64 b0 0b 10
        E 0 80 2f 00
        E 0 90 29 10
        E 64 b0 0b 28
        E 0 80 29 00
        E 0 90 2d 28
        E 32 b0 0b 20
        E 16 b0 0b 10
        E 0 80 2d 00
        E 0 90 2f 10
        E 64 b0 0b 28
        E 16 b0 0b 20
        E 48 b0 0b 10
        E 0 80 2f 00
        E 0 90 2d 10
        E 48 b0 0b 28
        E 16 b0 0b 20
        E 48 b0 0b 10
        E 0 80 2d 00
        E 0 90 2f 10
        E 48 b0 0b 08
        E 16 b0 0b 18
        E 64 b0 0b 08
        E 0 80 2f 00
        E 0 90 2d 08
        E 48 b0 0b 18
        E 48 b0 0b 10
        E 16 b0 0b 08
        E 0 80 2d 00
        E 0 90 2f 08
        E 64 b0 0b 18
        E 16 b0 0b 10
        E 32 b0 0b 08
        E 0 80 2f 00
        E 0 90 2d 08
        E 64 b0 0b 18
        E 16 b0 0b 10
        E 48 b0 0b 08
        E 0 80 2d 00
        E 0 90 2f 08
        E 48 b0 0c 40
        E 0 b0 0b 30
        E 0 80 2f 00
        E 0 90 28 30
        E 80 b0 0b 28
        E 48 b0 0b 30
        E 0 80 28 00
        E 0 90 26 30
        E 48 b0 0b 28
        E 112 b0 0b 20
        E 80 b0 0b 30
        E 0 80 26 00
        E 0 90 24 30
        E 16 b0 0b 28
        E 112 b0 0b 20
        E 96 b0 0b 18
        E 16 b0 0b 30
        E 0 80 24 00
        E 0 90 23 30
        E 96 b0 0b 28
        E 96 b0 0b 20
        E 112 b0 0b 18
        E 48 b0 0b 30
        E 0 80 23 00
        E 0 90 24 30
        E 48 b0 0b 28
        E 64 b0 0b 30
        E 0 80 24 00
        E 0 90 23 30
        E 48 b0 0b 28
        E 96 b0 0b 20
        E 96 b0 0b 30
        E 0 80 23 00
        E 0 90 21 30
        E 16 b0 0b 28
        E 96 b0 0b 20
        E 112 b0 0b 18
        E 16 b0 0b 30
        E 0 80 21 00
        E 0 90 1f 30
        E 80 b0 0b 28
        E 112 b0 0b 20
        E 96 b0 0b 18
        E 64 b0 0c 10
        E 0 b0 0b 28
        E 0 80 1f 00
        E 0 90 26 28
        E 48 b0 0b 20
        E 16 80 26 00
        E 64 b0 0b 28
        E 0 90 25 28
        E 48 b0 0b 10
        E 0 80 25 00
        E 0 90 26 10
        E 48 b0 0b 08
        E 16 b0 0b 28
        E 64 b0 0b 10
        E 0 80 26 00
        E 0 90 25 10
        E 16 b0 0b 08
        E 32 b0 0b 28
        E 64 b0 0b 10
        E 0 80 25 00
        E 0 90 26 10
        E 16 b0 0b 08
        E 48 b0 0b 18
        E 64 b0 0b 08
        E 0 80 26 00
        E 0 90 25 08
        E 48 b0 0b 18
        E 16 b0 0b 10
        E 48 b0 0b 08
        E 0 80 25 00
        E 0 90 26 08
        E 48 80 26 00
        E 16 b0 0b 18
        E 0 90 26 18
        E 48 b0 0b 08
        E 0 80 26 00
        E 0 90 25 08
        E 48 80 25 00
        E 16 b0 0b 18
        E 0 90 25 18
        E 64 b0 0b 08
        E 0 80 25 00
        E 0 90 26 08
        E 16 80 26 00
        E 48 b0 0b 28
        E 0 90 2a 28
        E 48 b0 0b 10
        E 0 80 2a 00
        E 0 90 25 10
        E 64 b0 0b 28
        E 0 80 25 00
        E 0 90 28 28
        E 16 b0 0b 20
        E 48 b0 0b 10
        E 0 80 28 00
        E 0 90 2a 10
        E 48 b0 0b 28
        E 16 b0 0b 20
        E 48 b0 0b 10
        E 0 80 2a 00
        E 0 90 28 10
        E 48 b0 0b 08
        E 16 b0 0b 28
        E 64 b0 0b 10
        E 0 80 28 00
        E 0 90 2a 10
        E 32 b0 0b 08
        E 16 b0 0b 18
        E 64 b0 0b 08
        E 0 80 2a 00
        E 0 90 28 08
        E 64 b0 0b 18
        E 16 b0 0b 10
        E 32 b0 0b 08
        E 0 80 28 00
        E 0 90 2a 08
        E 64 b0 0b 18
        E 16 b0 0b 10
        E 48 b0 0b 08
        E 0 80 2a 00
        E 0 90 28 08
        E 48 80 28 00
        E 16 b0 0b 18
        E 0 90 28 18
        E 48 b0 0b 08
        E 0 80 28 00
        E 0 90 2a 08
        E 48 80 2a 00
        E 16 b0 0b 28
        E 0 90 2d 28
        E 64 b0 0b 10
        E 0 80 2d 00
        E 0 90 28 10
        E 48 b0 0b 28
        E 0 80 28 00
        E 0 90 2b 28
        E 48 b0 0b 20
        E 16 b0 0b 10
        E 0 80 2b 00
        E 0 90 2d 10
        E 64 b0 0b 28
        E 16 b0 0b 20
        E 32 b0 0b 10
        E 0 80 2d 00
        E 0 90 2b 10
        E 64 b0 0b 28
        E 16 b0 0b 20
        E 48 b0 0b 10
        E 0 80 2b 00
        E 0 90 2d 10
        E 48 b0 0b 08
        E 16 b0 0b 18
        E 48 b0 0b 08
        E 0 80 2d 00
        E 0 90 2b 08
        E 64 b0 0b 18
        E 16 b0 0b 10
        E 48 b0 0b 08
        E 0 80 2b 00
        E 0 90 2d 08
        E 48 b0 0b 18
        E 16 b0 0b 10
        E 48 b0 0b 08
        E 0 80 2d 00
        E 0 90 2b 08
        E 48 80 2b 00
        E 16 b0 0b 18
        E 0 90 2b 18
        E 64 b0 0b 08
        E 0 80 2b 00
        E 0 90 2d 08
        E 32 80 2d 00
        E 16 b0 0b 28
        E 0 90 31 28
        E 64 b0 0b 10
        E 0 80 31 00
        E 0 90 2b 10
        E 64 b0 0b 28
        E 0 80 2b 00
        E 0 90 2f 28
        E 16 b0 0b 20
        E 32 b0 0b 10
        E 0 80 2f 00
        E 0 90 31 10
        E 64 b0 0b 28
        E 16 b0 0b 20
        E 48 b0 0b 10
        E 0 80 31 00
        E 0 90 2f 10
        E 48 b0 0b 08
        E 16 b0 0b 28
        E 48 b0 0b 10
        E 0 80 2f 00
        E 0 90 31 10
        E 48 b0 0b 08
        E 16 b0 0b 18
        E 64 b0 0b 08
        E 0 80 31 00
        E 0 90 2f 08
        E 48 b0 0b 18
        E 48 b0 0b 10
        E 16 b0 0b 08
        E 0 80 2f 00
        E 0 90 31 08
        E 64 b0 0b 18
        E 16 b0 0b 10
        E 48 b0 0b 08
        E 0 80 31 00
        E 0 90 2f 08
        E 48 b0 0b 18
        E 16 b0 0b 10
        E 48 b0 0b 08
        E 0 80 2f 00
        E 0 90 31 08
        E 48 80 31 00
        E 16 b0 0c 40
        E 0 b0 0b 30
        E 0 90 2a 30
        E 96 b0 0b 28
        E 16 b0 0b 30
        E 0 80 2a 00
        E 0 90 28 30
        E 80 b0 0b 28
        E 112 b0 0b 20
        E 48 b0 0b 30
        E 0 80 28 00
        E 0 90 26 30
        E 48 b0 0b 28
        E 112 b0 0b 20
        E 80 b0 0b 30
        E 0 80 26 00
        E 0 90 25 30
        E 16 b0 0b 28
        E 112 b0 0b 20
        E 96 b0 0b 18
        E 112 b0 0b 10
        E 16 b0 0b 30
        E 0 80 25 00
        E 0 90 26 30
        E 80 b0 0b 28
        E 32 b0 0b 30
        E 0 80 26 00
        E 0 90 25 30
        E 80 b0 0b 28
        E 96 b0 0b 20
        E 64 b0 0b 30
        E 0 80 25 00
        E 0 90 23 30
        E 48 b0 0b 28
        E 96 b0 0b 20
        E 96 b0 0b 30
        E 0 80 23 00
        E 0 90 21 30
        E 16 b0 0b 28
        E 96 b0 0b 20
        E 112 b0 0b 18
        E 96 b0 0b 10
        E 32 b0 0c 10
        E 0 b0 0b 28
        E 0 80 21 00
        E 0 90 28 28
        E 64 80 28 00
        E 64 90 27 28
        E 16 b0 0b 20
        E 48 b0 0b 10
        E 0 80 27 00
        E 0 90 28 10
        E 48 b0 0b 28
        E 16 b0 0b 20
        E 48 b0 0b 10
        E 0 80 28 00
        E 0 90 27 10
        E 48 b0 0b 08
        E 16 b0 0b 28
        E 48 b0 0b 10
        E 0 80 27 00
        E 0 90 28 10
        E 48 b0 0b 08
        E 16 b0 0b 18
        E 64 b0 0b 08
        E 0 80 28 00
        E 0 90 27 08
        E 48 b0 0b 18
        E 48 b0 0b 10
        E 16 b0 0b 08
        E 0 80 27 00
        E 0 90 28 08
        E 64 b0 0b 18
        E 16 b0 0b 10
        E 48 b0 0b 08
        E 0 80 28 00
        E 0 90 27 08
        E 48 b0 0b 18
        E 16 b0 0b 10
        E 48 b0 0b 08
        E 0 80 27 00
        E 0 90 28 08
        E 48 80 28 00
        E 16 b0 0b 28
        E 0 90 2c 28
        E 48 b0 0b 10
        E 0 80 2c 00
        E 0 90 27 10
        E 64 b0 0b 28
        E 0 80 27 00
        E 0 90 2a 28
        E 16 b0 0b 20
        E 48 b0 0b 10
        E 0 80 2a 00
        E 0 90 2c 10
        E 48 b0 0b 08
        E 16 b0 0b 28
        E 48 b0 0b 10
        E 0 80 2c 00
        E 0 90 2a 10
        E 48 b0 0b 08
        E 16 b0 0b 28
        E 64 b0 0b 10
        E 0 80 2a 00
        E 0 90 2c 10
        E 16 b0 0b 08
        E 32 b0 0b 18
        E 64 b0 0b 08
        E 0 80 2c 00
        E 0 90 2a 08
        E 64 b0 0b 18
        E 16 b0 0b 10
        E 48 b0 0b 08
        E 0 80 2a 00
        E 0 90 2c 08
        E 48 b0 0b 18
        E 16 b0 0b 10
        E 48 b0 0b 08
        E 0 80 2c 00
        E 0 90 2a 08
        E 48 80 2a 00
        E 16 b0 0b 18
        E 0 90 2a 18
        E 48 b0 0b 08
        E 0 80 2a 00
        E 0 90 2c 08
        E 48 80 2c 00
        E 16 b0 0b 28
        E 0 90 2f 28
        E 64 b0 0b 10
        E 0 80 2f 00
        E 0 90 2a 10
        E 64 b0 0b 28
        E 0 80 2a 00
        E 0 90 2d 28
        E 32 b0 0b 20
        E 16 b0 0b 10
        E 0 80 2d 00
        E 0 90 2f 10
        E 64 b0 0b 28
        E 16 b0 0b 20
        E 48 b0 0b 10
        E 0 80 2f 00
        E 0 90 2d 10
        E 48 b0 0b 28
        E 16 b0 0b 20
        E 48 b0 0b 10
        E 0 80 2d 00
        E 0 90 2f 10
        E 48 b0 0b 08
        E 16 b0 0b 18
        E 64 b0 0b 08
        E 0 80 2f 00
        E 0 90 2d 08
        E 48 b0 0b 18
        E 48 b0 0b 10
        E 16 b0 0b 08
        E 0 80 2d 00
        E 0 90 2f 08
        E 64 b0 0b 18
        E 32 b0 0b 10
        E 16 b0 0b 08
        E 0 80 2f 00
        E 0 90 2d 08
        E 64 b0 0b 18
        E 16 b0 0b 10
        E 48 b0 0b 08
        E 0 80 2d 00
        E 0 90 2f 08
        E 48 b0 0b 28
        E 0 80 2f 00
        E 0 90 33 28
        E 64 b0 0b 10
        E 0 80 33 00
        E 0 90 2d 10
        E 16 b0 0b 08
        E 48 b0 0b 28
        E 0 80 2d 00
        E 0 90 31 28
        E 48 b0 0b 20
        E 16 b0 0b 10
        E 0 80 31 00
        E 0 90 33 10
        E 48 b0 0b 28
        E 48 b0 0b 20
        E 16 b0 0b 10
        E 0 80 33 00
        E 0 90 31 10
        E 64 b0 0b 28
        E 16 b0 0b 20
        E 32 b0 0b 10
        E 0 80 31 00
        E 0 90 33 10
        E 64 b0 0b 18
        E 64 b0 0b 08
        E 0 80 33 00
        E 0 90 31 08
        E 16 80 31 00
        E 48 b0 0b 18
        E 0 90 31 18
        E 48 b0 0b 08
        E 0 80 31 00
        E 0 90 33 08
        E 48 80 33 00
        E 16 b0 0b 18
        E 0 90 33 18
        E 64 b0 0b 08
        E 0 80 33 00
        E 0 90 31 08
        E 16 80 31 00
        E 32 b0 0b 18
        E 0 90 31 18
        E 64 b0 0b 08
        E 0 80 31 00
        E 0 90 33 08
        E 16 80 33 00
        E 48 b0 0c 40
        E 0 b0 0b 30
        E 0 90 2c 30
        E 96 b0 0b 28
        E 16 b0 0b 30
        E 0 80 2c 00
        E 0 90 2a 30
        E 80 b0 0b 28
        E 112 b0 0b 20
        E 48 b0 0b 30
        E 0 80 2a 00
        E 0 90 28 30
        E 48 b0 0b 28
        E 112 b0 0b 20
        E 80 b0 0b 30
        E 0 80 28 00
        E 0 90 27 30
        E 16 b0 0b 28
        E 112 b0 0b 20
        E 96 b0 0b 18
        E 112 b0 0b 10
        E 16 b0 0b 30
        E 0 80 27 00
        E 0 90 28 30
        E 80 b0 0b 28
        E 48 b0 0b 30
        E 0 80 28 00
        E 0 90 27 30
        E 64 b0 0b 28
        E 96 b0 0b 20
        E 64 b0 0b 30
        E 0 80 27 00
        E 0 90 25 30
        E 48 b0 0b 28
        E 96 b0 0b 20
        E 96 b0 0b 30
        E 0 80 25 00
        E 0 90 23 30
        E 16 b0 0b 28
        E 96 b0 0b 20
        E 112 b0 0b 18
        E 96 b0 0b 10
        E 48 b0 0b 28
        E 0 80 23 00
        E 0 90 26 28
        E 160 b0 0b 20
        E 64 b0 0b 28
        E 48 b0 0b 20
        E 80 b0 0b 28
        E 16 b0 0b 20
        E 96 b0 0b 10
        E 144 b0 0b 08
        E 96 b0 0b 10
        E 16 b0 0b 08
        E 96 80 26 00
        E 16 b0 0b 10
        E 0 90 26 10
        E 96 b0 0b 08
        E 16 b0 0b 28
        E 0 80 26 00
        E 0 90 24 28
        E 192 b0 0b 20
        E 48 b0 0b 28
        E 64 b0 0b 20
        E 48 b0 0b 28
        E 48 b0 0b 20
        E 80 b0 0b 10
        E 128 b0 0b 08
        E 96 b0 0b 10
        E 16 b0 0b 08
        E 96 80 24 00
        E 16 b0 0b 10
        E 0 90 24 10
        E 96 b0 0b 08
        E 16 b0 0b 28
        E 0 80 24 00
        E 0 90 26 28
        E 224 b0 0b 20
        E 16 b0 0b 28
        E 80 b0 0b 20
        E 48 b0 0b 28
        E 64 b0 0b 20
        E 48 b0 0b 10
        E 160 b0 0b 08
        E 80 b0 0b 10
        E 16 b0 0b 08
        E 96 b0 0b 10
        E 16 b0 0b 08
        E 96 80 26 00
        E 16 b0 0b 28
        E 0 90 24 28
        E 192 b0 0b 20
        E 32 b0 0b 28
        E 80 b0 0b 20
        E 48 b0 0b 28
        E 48 b0 0b 20
        E 64 b0 0b 10
        E 192 b0 0b 08
        E 48 b0 0b 10
        E 48 b0 0b 08
        E 80 b0 0b 10
        E 32 b0 0b 08
        E 80 b0 0b 28
        E 0 80 24 00
        E 0 90 27 28
        E 128 b0 0b 20
        E 96 b0 0b 18
        E 16 b0 0b 28
        E 96 b0 0b 20
        E 16 b0 0b 28
        E 80 b0 0b 20
        E 48 b0 0b 10
        E 160 b0 0b 08
        E 80 b0 0b 10
        E 32 b0 0b 08
        E 80 b0 0b 10
        E 16 b0 0b 08
        E 96 b0 0b 28
        E 0 80 27 00
        E 0 90 26 28
        E 144 b0 0b 20
        E 96 b0 0b 28
        E 16 b0 0b 20
        E 96 b0 0b 18
        E 16 b0 0b 28
        E 96 b0 0b 20
        E 16 b0 0b 10
        E 192 b0 0b 08
        E 48 b0 0b 10
        E 48 b0 0b 08
        E 64 b0 0b 10
        E 48 b0 0b 08
        E 80 b0 0b 28
        E 0 80 26 00
        E 0 90 25 28
        E 128 b0 0b 20
        E 96 b0 0b 18
        E 16 b0 0b 28
        E 96 b0 0b 20
        E 16 b0 0b 28
        E 80 b0 0b 20
        E 32 b0 0b 10
        E 224 b0 0b 08
        E 16 b0 0b 10
        E 80 b0 0b 08
        E 48 b0 0b 10
        E 64 b0 0b 08
        E 48 b0 0b 28
        E 0 80 25 00
        E 0 90 26 28
        E 192 b0 0b 20
        E 48 b0 0b 28
        E 48 b0 0b 20
        E 64 b0 0b 28
        E 48 b0 0b 20
        E 80 b0 0b 10
        E 128 b0 0b 08
        E 96 80 26 00
        E 16 b0 0b 10
        E 0 90 26 10
        E 96 b0 0b 08
        E 16 b0 0b 10
        E 80 b0 0b 08
        E 32 b0 0b 28
        E 224 b0 0b 20
        E 16 b0 0b 28
        E 80 b0 0b 20
        E 48 b0 0b 28
        E 64 b0 0b 20
        E 48 b0 0b 10
        E 192 b0 0b 08
        E 48 b0 0b 10
        E 48 b0 0b 08
        E 64 b0 0b 10
        E 48 b0 0b 08
        E 80 b0 0b 28
        E 0 80 26 00
        E 0 90 24 28
        E 128 b0 0b 20
        E 96 b0 0b 18
        E 16 b0 0b 28
        E 96 b0 0b 20
        E 16 b0 0b 28
        E 80 b0 0b 20
        E 48 b0 0b 10
        E 160 b0 0b 08
        E 64 b0 0b 10
        E 48 b0 0b 08
        E 80 b0 0b 10
        E 16 b0 0b 08
        E 96 b0 0b 28
        E 0 80 24 00
        E 0 90 26 28
        E 160 b0 0b 20
        E 80 b0 0b 28
        E 16 b0 0b 20
        E 96 b0 0b 28
        E 16 b0 0b 20
        E 96 b0 0b 18
        E 16 b0 0b 10
        E 192 b0 0b 08
        E 48 b0 0b 10
        E 64 b0 0b 08
        E 48 b0 0b 10
        E 48 b0 0b 08
        E 80 b0 0b 28
        E 0 80 26 00
        E 0 90 24 28
        E 128 b0 0b 20
        E 96 b0 0b 28
        E 16 b0 0b 20
        E 96 b0 0b 18
        E 16 b0 0b 28
        E 96 b0 0b 20
        E 16 b0 0b 10
        E 224 b0 0b 08
        E 16 b0 0b 10
        E 80 b0 0b 08
        E 32 b0 0b 10
        E 80 b0 0b 08
        E 48 b0 0b 28
        E 0 80 24 00
        E 0 90 27 28
        E 160 b0 0b 20
        E 80 b0 0b 28
        E 16 b0 0b 20
        E 96 b0 0b 28
        E 16 b0 0b 20
        E 96 b0 0b 18
        E 16 b0 0b 10
        E 192 b0 0b 08
        E 32 b0 0b 10
        E 80 b0 0b 08
        E 48 b0 0b 10
        E 48 b0 0b 08
        E 64 b0 0b 28
        E 0 80 27 00
        E 0 90 26 28
        E 192 b0 0b 20
        E 48 b0 0b 28
        E 48 b0 0b 20
        E 80 b0 0b 28
        E 32 b0 0b 20
        E 80 b0 0b 10
        E 128 b0 0b 08
        E 96 80 26 00
        E 16 b0 0b 10
        E 0 90 26 10
        E 96 b0 0b 08
        E 16 b0 0b 10
        E 80 b0 0b 08
        E 48 b0 0b 28
        E 0 80 26 00
        E 0 90 25 28
        E 160 b0 0b 20
        E 64 b0 0b 28
        E 48 b0 0b 20
        E 80 b0 0b 28
        E 16 b0 0b 20
        E 96 b0 0b 10
        E 144 b0 0b 08
        E 96 b0 0b 10
        E 16 b0 0b 08
        E 96 80 25 00
        E 16 b0 0b 10
        E 0 90 25 10
        E 96 b0 0b 08
        E 16 b0 0b 28
        E 0 80 25 00
        E 0 90 26 28
        E 192 b0 0b 20
        E 48 b0 0b 28
        E 48 b0 0b 20
        E 64 b0 0b 28
        E 48 b0 0b 20
        E 80 b0 0b 10
        E 128 b0 0b 08
        E 96 80 26 00
        E 16 b0 0b 10
        E 0 90 26 10
        E 96 b0 0b 08
        E 16 b0 0b 10
        E 80 b0 0b 08
        E 32 b0 0b 28
        E 224 b0 0b 20
        E 16 b0 0b 28
        E 80 b0 0b 20
        E 48 b0 0b 28
        E 64 b0 0b 20
        E 48 b0 0b 10
        E 160 b0 0b 08
        E 80 b0 0b 10
        E 16 b0 0b 08
        E 96 b0 0b 10
        E 16 b0 0b 08
        E 96 80 26 00
        E 16 b0 0b 28
        E 0 90 24 28
        E 192 b0 0b 20
        E 48 b0 0b 28
        E 64 b0 0b 20
        E 48 b0 0b 28
        E 48 b0 0b 20
        E 64 b0 0b 10
        E 176 b0 0b 08
        E 64 b0 0b 10
        E 48 b0 0b 08
        E 80 b0 0b 10
        E 16 b0 0b 08
        E 96 b0 0b 28
        E 0 80 24 00
        E 0 90 26 28
        E 160 b0 0b 20
        E 80 b0 0b 28
        E 16 b0 0b 20
        E 96 b0 0b 28
        E 16 b0 0b 20
        E 96 b0 0b 18
        E 16 b0 0b 10
        E 192 b0 0b 08
        E 48 b0 0b 10
        E 64 b0 0b 08
        E 48 b0 0b 10
        E 48 b0 0b 08
        E 64 b0 0b 28
        E 0 80 26 00
        E 0 90 24 28
        E 176 b0 0b 20
        E 64 b0 0b 28
        E 48 b0 0b 20
        E 80 b0 0b 28
        E 16 b0 0b 20
        E 96 b0 0b 10
        E 160 b0 0b 08
        E 80 b0 0b 10
        E 16 b0 0b 08
        E 96 b0 0b 10
        E 16 b0 0b 08
        E 96 80 24 00
        E 16 b0 0b 28
        E 0 90 27 28
        E 192 b0 0b 20
        E 48 b0 0b 28
        E 64 b0 0b 20
        E 48 b0 0b 28
        E 48 b0 0b 20
        E 64 b0 0b 10
        E 176 b0 0b 08
        E 64 b0 0b 10
        E 48 b0 0b 08
        E 80 b0 0b 10
        E 16 b0 0b 08
        E 16 80 27 00
        E 0 ff 2f 00
      >
    >
  >
  <TRACK {8AC3EDF6-D98F-495B-9E19-BF2C02E395F4}
    NAME "NES - Pulse 2 [ch1]"
    PEAKCOL 10092441
    BEAT -1
    AUTOMODE 0
    PANLAWFLAGS 3
    VOLPAN 1 0 -1 -1 1
    MUTESOLO 0 0 0
    IPHASE 0
    PLAYOFFS 0 1
    ISBUS 0 0
    BUSCOMP 0 0 0 0 0
    SHOWINMIX 1 0.6667 0.5 1 0.5 0 0 0
    FIXEDLANES 9 0 0 0 0
    SEL 0
    REC 0 5088 1 0 0 0 0 0
    VU 2
    TRACKHEIGHT 0 0 0 0 0 0 0
    INQ 0 0 0 0.5 100 0 0 100
    NCHAN 2
    FX 1
    TRACKID {8AC3EDF6-D98F-495B-9E19-BF2C02E395F4}
    PERF 0
    MIDIOUT -1
    MAINSEND 1 0
    <FXCHAIN
      WNDRECT 24 52 700 560
      SHOW 0
      LASTSEL 0
      DOCKED 0
      BYPASS 0 0 0
      <JS "ReapNES Studio/ReapNES_Console.jsfx" ""
        2 15 1 10 80 10 100 2 1 15 1 5 60 10 80 1 1 0 50 0 0 15 1 0 100 0 0 0.500000 0.500000 0.400000 0.300000 0.800000 1 1 0 0 0 0 - - - - - - - - - - - - - - - - - - - - - - - - - -
      >
      FLOATPOS 0 0 0 0
      FXID {A9E34809-3535-4367-BFBF-7F2730505A61}
      WAK 0 0
    >
    <ITEM
      POSITION 0
      LENGTH 83.98134
      LOOP 0
      ALLTAKES 0
      FADEIN 0 0 0 0 0 0 0
      FADEOUT 0 0 0 0 0 0 0
      MUTE 0 0
      SEL 0
      IGUID {E33E4448-3480-4F41-ACDD-29495E6318D2}
      <SOURCE MIDI
        HASDATA 1 480 QN
        CCINTERP 32
        E 0 c1 51
        E 16 b1 0c 40
        E 0 b1 0b 28
        E 0 91 22 28
        E 480 b1 0b 10
        E 480 b1 0b 28
        E 0 81 22 00
        E 0 91 21 28
        E 464 b1 0b 10
        E 480 b1 0b 28
        E 0 81 21 00
        E 0 91 22 28
        E 480 b1 0b 10
        E 464 b1 0b 28
        E 0 81 22 00
        E 0 91 21 28
        E 480 b1 0b 10
        E 480 b1 0b 28
        E 0 81 21 00
        E 0 91 24 28
        E 464 b1 0b 10
        E 480 b1 0b 28
        E 0 81 24 00
        E 0 91 22 28
        E 480 b1 0b 10
        E 480 b1 0b 28
        E 0 81 22 00
        E 0 91 21 28
        E 464 b1 0b 10
        E 480 b1 0b 28
        E 0 81 21 00
        E 0 91 22 28
        E 480 b1 0b 10
        E 464 b1 0b 28
        E 480 b1 0b 10
        E 480 b1 0b 28
        E 0 81 22 00
        E 0 91 21 28
        E 464 b1 0b 10
        E 480 b1 0b 28
        E 0 81 21 00
        E 0 91 22 28
        E 480 b1 0b 10
        E 464 b1 0b 28
        E 0 81 22 00
        E 0 91 21 28
        E 480 b1 0b 10
        E 480 b1 0b 28
        E 0 81 21 00
        E 0 91 24 28
        E 464 b1 0b 10
        E 480 b1 0b 28
        E 0 81 24 00
        E 0 91 22 28
        E 480 b1 0b 10
        E 464 b1 0b 28
        E 0 81 22 00
        E 0 91 21 28
        E 480 b1 0b 10
        E 480 b1 0b 28
        E 0 81 21 00
        E 0 91 22 28
        E 464 b1 0b 10
        E 480 b1 0b 28
        E 480 b1 0b 10
        E 480 b1 0b 28
        E 0 81 22 00
        E 0 91 21 28
        E 464 b1 0b 10
        E 480 b1 0b 28
        E 0 81 21 00
        E 0 91 22 28
        E 480 b1 0b 10
        E 464 b1 0b 28
        E 0 81 22 00
        E 0 91 21 28
        E 480 b1 0b 10
        E 480 b1 0b 28
        E 0 81 21 00
        E 0 91 24 28
        E 464 b1 0b 10
        E 480 b1 0b 28
        E 0 81 24 00
        E 0 91 22 28
        E 480 b1 0b 10
        E 464 b1 0b 28
        E 0 81 22 00
        E 0 91 21 28
        E 480 b1 0b 10
        E 480 b1 0b 28
        E 0 81 21 00
        E 0 91 22 28
        E 464 b1 0b 10
        E 480 b1 0b 20
        E 0 81 22 00
        E 0 91 3a 20
        E 112 b1 0b 10
        E 128 b1 0b 20
        E 0 81 3a 00
        E 0 91 39 20
        E 112 b1 0b 10
        E 128 b1 0b 20
        E 0 81 39 00
        E 0 91 37 20
        E 112 b1 0b 10
        E 128 b1 0b 20
        E 0 81 37 00
        E 0 91 3c 20
        E 112 b1 0b 10
        E 112 b1 0b 20
        E 0 81 3c 00
        E 0 91 3a 20
        E 128 b1 0b 10
        E 112 b1 0b 20
        E 0 81 3a 00
        E 0 91 39 20
        E 128 b1 0b 10
        E 112 b1 0b 20
        E 0 81 39 00
        E 0 91 3a 20
        E 128 b1 0b 10
        E 112 b1 0b 20
        E 0 81 3a 00
        E 0 91 39 20
        E 112 b1 0b 10
        E 128 b1 0b 20
        E 0 81 39 00
        E 0 91 3a 20
        E 112 b1 0b 10
        E 128 b1 0b 20
        E 0 81 3a 00
        E 0 91 39 20
        E 112 b1 0b 10
        E 112 b1 0b 20
        E 0 81 39 00
        E 0 91 37 20
        E 128 b1 0b 10
        E 112 b1 0b 20
        E 0 81 37 00
        E 0 91 3c 20
        E 128 b1 0b 10
        E 112 b1 0b 20
        E 0 81 3c 00
        E 0 91 3a 20
        E 128 b1 0b 10
        E 112 b1 0b 20
        E 0 81 3a 00
        E 0 91 39 20
        E 112 b1 0b 10
        E 128 b1 0b 20
        E 0 81 39 00
        E 0 91 3a 20
        E 112 b1 0b 10
        E 128 b1 0b 20
        E 0 81 3a 00
        E 0 91 39 20
        E 112 b1 0b 10
        E 112 81 39 00
        E 160 b1 0c 20
        E 0 91 1f 10
        E 96 b1 0b 08
        E 16 b1 0b 10
        E 0 81 1f 00
        E 0 91 21 10
        E 80 b1 0b 08
        E 48 b1 0b 10
        E 0 81 21 00
        E 0 91 22 10
        E 96 b1 0b 08
        E 16 b1 0b 10
        E 0 81 22 00
        E 0 91 24 10
        E 80 b1 0b 08
        E 32 b1 0b 10
        E 0 81 24 00
        E 0 91 26 10
        E 80 b1 0b 08
        E 160 b1 0b 10
        E 0 81 26 00
        E 0 91 1f 10
        E 80 b1 0b 08
        E 48 b1 0b 10
        E 0 81 1f 00
        E 0 91 24 10
        E 96 b1 0b 08
        E 144 b1 0b 10
        E 0 81 24 00
        E 0 91 22 10
        E 96 b1 0b 08
        E 16 b1 0b 10
        E 80 b1 0b 08
        E 160 b1 0b 10
        E 0 81 22 00
        E 0 91 21 10
        E 96 b1 0b 08
        E 144 b1 0b 10
        E 0 81 21 00
        E 0 91 1d 10
        E 80 b1 0c 40
        E 0 b1 0b 30
        E 0 81 1d 00
        E 0 91 2e 30
        E 16 b1 0b 28
        E 32 b1 0b 20
        E 32 b1 0b 18
        E 32 b1 0b 10
        E 16 b1 0c 10
        E 0 81 2e 00
        E 0 91 43 10
        E 32 b1 0b 08
        E 32 81 43 00
        E 48 b1 0b 10
        E 0 91 43 10
        E 16 b1 0b 08
        E 32 81 43 00
        E 64 b1 0b 10
        E 0 91 43 10
        E 16 b1 0b 08
        E 32 81 43 00
        E 80 b1 0b 10
        E 0 91 43 10
        E 16 b1 0b 08
        E 32 81 43 00
        E 192 b1 0b 10
        E 0 91 43 10
        E 16 b1 0b 08
        E 48 81 43 00
        E 48 b1 0b 10
        E 0 91 43 10
        E 16 b1 0b 08
        E 32 81 43 00
        E 80 b1 0c 40
        E 0 b1 0b 30
        E 0 91 30 30
        E 32 b1 0b 28
        E 32 b1 0b 20
        E 32 b1 0b 18
        E 16 b1 0c 10
        E 0 b1 0b 10
        E 0 81 30 00
        E 0 91 43 10
        E 16 b1 0b 08
        E 32 81 43 00
        E 64 b1 0b 10
        E 0 91 43 10
        E 16 b1 0b 08
        E 32 81 43 00
        E 80 b1 0b 10
        E 0 91 43 10
        E 16 b1 0b 08
        E 32 81 43 00
        E 64 b1 0b 10
        E 0 91 43 10
        E 16 b1 0b 08
        E 32 81 43 00
        E 192 b1 0b 10
        E 0 91 43 10
        E 16 b1 0b 08
        E 32 81 43 00
        E 80 b1 0b 10
        E 0 91 43 10
        E 32 b1 0b 08
        E 32 81 43 00
        E 48 b1 0c 40
        E 0 b1 0b 30
        E 0 91 2d 30
        E 16 b1 0b 28
        E 32 b1 0b 20
        E 32 b1 0b 18
        E 32 b1 0c 10
        E 0 b1 0b 10
        E 0 81 2d 00
        E 0 91 43 10
        E 16 b1 0b 08
        E 32 81 43 00
        E 80 b1 0b 10
        E 0 91 43 10
        E 16 b1 0b 08
        E 48 81 43 00
        E 48 b1 0b 10
        E 0 91 43 10
        E 16 b1 0b 08
        E 32 81 43 00
        E 80 b1 0b 10
        E 0 91 43 10
        E 32 b1 0b 08
        E 32 81 43 00
        E 160 b1 0b 10
        E 0 91 43 10
        E 16 b1 0b 08
        E 32 81 43 00
        E 80 b1 0b 10
        E 0 91 43 10
        E 16 b1 0b 08
        E 32 81 43 00
        E 64 b1 0c 40
        E 0 b1 0b 30
        E 0 91 2b 30
        E 16 b1 0b 28
        E 32 b1 0b 20
        E 32 b1 0b 18
        E 32 b1 0b 10
        E 16 b1 0c 10
        E 0 81 2b 00
        E 0 91 43 10
        E 16 b1 0b 08
        E 48 81 43 00
        E 48 b1 0b 10
        E 0 91 43 10
        E 16 b1 0b 08
        E 32 81 43 00
        E 80 b1 0b 10
        E 0 91 43 10
        E 32 b1 0b 08
        E 32 81 43 00
        E 48 b1 0b 10
        E 0 91 43 10
        E 16 b1 0b 08
        E 32 81 43 00
        E 192 b1 0b 10
        E 0 91 43 10
        E 16 b1 0b 08
        E 32 81 43 00
        E 64 b1 0b 10
        E 0 91 43 10
        E 16 b1 0b 08
        E 32 81 43 00
        E 80 b1 0c 40
        E 0 b1 0b 30
        E 0 91 30 30
        E 16 b1 0b 28
        E 48 b1 0b 20
        E 32 b1 0b 18
        E 16 b1 0c 10
        E 0 b1 0b 10
        E 0 81 30 00
        E 0 91 45 10
        E 16 b1 0b 08
        E 32 81 45 00
        E 80 b1 0b 10
        E 0 91 45 10
        E 32 b1 0b 08
        E 32 81 45 00
        E 48 b1 0b 10
        E 0 91 45 10
        E 16 b1 0b 08
        E 32 81 45 00
        E 64 b1 0b 10
        E 0 91 45 10
        E 16 b1 0b 08
        E 32 81 45 00
        E 192 b1 0b 10
        E 0 91 45 10
        E 16 b1 0b 08
        E 32 81 45 00
        E 80 b1 0b 10
        E 0 91 45 10
        E 32 b1 0b 08
        E 32 81 45 00
        E 48 b1 0c 40
        E 0 b1 0b 30
        E 0 91 32 30
        E 16 b1 0b 28
        E 32 b1 0b 20
        E 32 b1 0b 18
        E 32 b1 0c 10
        E 0 b1 0b 10
        E 0 81 32 00
        E 0 91 45 10
        E 16 b1 0b 08
        E 32 81 45 00
        E 80 b1 0b 10
        E 0 91 45 10
        E 16 b1 0b 08
        E 32 81 45 00
        E 64 b1 0b 10
        E 0 91 45 10
        E 16 b1 0b 08
        E 32 81 45 00
        E 80 b1 0b 10
        E 0 91 45 10
        E 16 b1 0b 08
        E 48 81 45 00
        E 176 b1 0b 10
        E 0 91 45 10
        E 32 b1 0b 08
        E 32 81 45 00
        E 48 b1 0b 10
        E 0 91 45 10
        E 16 b1 0b 08
        E 32 81 45 00
        E 64 b1 0c 40
        E 0 b1 0b 30
        E 0 91 2f 30
        E 16 b1 0b 28
        E 32 b1 0b 20
        E 32 b1 0b 18
        E 32 b1 0b 10
        E 16 b1 0c 10
        E 0 81 2f 00
        E 0 91 45 10
        E 16 b1 0b 08
        E 32 81 45 00
        E 64 b1 0b 10
        E 0 91 45 10
        E 16 b1 0b 08
        E 32 81 45 00
        E 80 b1 0b 10
        E 0 91 45 10
        E 16 b1 0b 08
        E 48 81 45 00
        E 48 b1 0b 10
        E 0 91 45 10
        E 16 b1 0b 08
        E 32 81 45 00
        E 192 b1 0b 10
        E 0 91 45 10
        E 16 b1 0b 08
        E 32 81 45 00
        E 64 b1 0b 10
        E 0 91 45 10
        E 16 b1 0b 08
        E 32 81 45 00
        E 80 b1 0c 40
        E 0 b1 0b 30
        E 0 91 2d 30
        E 16 b1 0b 28
        E 48 b1 0b 20
        E 32 b1 0b 18
        E 16 b1 0c 10
        E 0 b1 0b 10
        E 0 81 2d 00
        E 0 91 45 10
        E 16 b1 0b 08
        E 32 81 45 00
        E 80 b1 0b 10
        E 0 91 45 10
        E 32 b1 0b 08
        E 32 81 45 00
        E 48 b1 0b 10
        E 0 91 45 10
        E 16 b1 0b 08
        E 32 81 45 00
        E 64 b1 0b 10
        E 0 91 45 10
        E 16 b1 0b 08
        E 32 81 45 00
        E 192 b1 0b 10
        E 0 91 45 10
        E 16 b1 0b 08
        E 32 81 45 00
        E 80 b1 0b 10
        E 0 91 45 10
        E 16 b1 0b 08
        E 48 81 45 00
        E 48 b1 0c 40
        E 0 b1 0b 30
        E 0 91 32 30
        E 16 b1 0b 28
        E 32 b1 0b 20
        E 32 b1 0b 18
        E 32 b1 0b 10
        E 16 b1 0c 10
        E 0 81 32 00
        E 0 91 47 10
        E 32 b1 0b 08
        E 32 81 47 00
        E 48 b1 0b 10
        E 0 91 47 10
        E 16 b1 0b 08
        E 32 81 47 00
        E 64 b1 0b 10
        E 0 91 47 10
        E 16 b1 0b 08
        E 32 81 47 00
        E 80 b1 0b 10
        E 0 91 47 10
        E 16 b1 0b 08
        E 32 81 47 00
        E 192 b1 0b 10
        E 0 91 47 10
        E 32 b1 0b 08
        E 32 81 47 00
        E 48 b1 0b 10
        E 0 91 47 10
        E 16 b1 0b 08
        E 32 81 47 00
        E 64 b1 0c 40
        E 0 b1 0b 30
        E 0 91 34 30
        E 16 b1 0b 28
        E 32 b1 0b 20
        E 32 b1 0b 18
        E 32 b1 0b 10
        E 16 b1 0c 10
        E 0 81 34 00
        E 0 91 47 10
        E 16 b1 0b 08
        E 32 81 47 00
        E 64 b1 0b 10
        E 0 91 47 10
        E 16 b1 0b 08
        E 32 81 47 00
        E 80 b1 0b 10
        E 0 91 47 10
        E 16 b1 0b 08
        E 48 81 47 00
        E 48 b1 0b 10
        E 0 91 47 10
        E 16 b1 0b 08
        E 32 81 47 00
        E 192 b1 0b 10
        E 0 91 47 10
        E 16 b1 0b 08
        E 32 81 47 00
        E 64 b1 0b 10
        E 0 91 47 10
        E 16 b1 0b 08
        E 32 81 47 00
        E 80 b1 0c 40
        E 0 b1 0b 30
        E 0 91 31 30
        E 16 b1 0b 28
        E 32 b1 0b 20
        E 48 b1 0b 18
        E 16 b1 0c 10
        E 0 b1 0b 10
        E 0 81 31 00
        E 0 91 47 10
        E 16 b1 0b 08
        E 32 81 47 00
        E 80 b1 0b 10
        E 0 91 47 10
        E 16 b1 0b 08
        E 48 81 47 00
        E 48 b1 0b 10
        E 0 91 47 10
        E 16 b1 0b 08
        E 32 81 47 00
        E 80 b1 0b 10
        E 0 91 47 10
        E 32 b1 0b 08
        E 32 81 47 00
        E 160 b1 0b 10
        E 0 91 47 10
        E 16 b1 0b 08
        E 32 81 47 00
        E 80 b1 0b 10
        E 0 91 47 10
        E 16 b1 0b 08
        E 48 81 47 00
        E 48 b1 0c 40
        E 0 b1 0b 30
        E 0 91 2f 30
        E 16 b1 0b 28
        E 32 b1 0b 20
        E 32 b1 0b 18
        E 32 b1 0b 10
        E 16 b1 0c 10
        E 0 81 2f 00
        E 0 91 47 10
        E 32 b1 0b 08
        E 32 81 47 00
        E 48 b1 0b 10
        E 0 91 47 10
        E 16 b1 0b 08
        E 32 81 47 00
        E 64 b1 0b 10
        E 0 91 47 10
        E 16 b1 0b 08
        E 32 81 47 00
        E 80 b1 0b 10
        E 0 91 47 10
        E 16 b1 0b 08
        E 32 81 47 00
        E 192 b1 0b 10
        E 0 91 47 10
        E 16 b1 0b 08
        E 48 81 47 00
        E 48 b1 0b 10
        E 0 91 47 10
        E 16 b1 0b 08
        E 32 81 47 00
        E 80 b1 0c 40
        E 0 b1 0b 30
        E 0 91 34 30
        E 32 b1 0b 28
        E 32 b1 0b 20
        E 32 b1 0b 18
        E 16 b1 0c 10
        E 0 b1 0b 10
        E 0 81 34 00
        E 0 91 49 10
        E 16 b1 0b 08
        E 32 81 49 00
        E 64 b1 0b 10
        E 0 91 49 10
        E 16 b1 0b 08
        E 32 81 49 00
        E 80 b1 0b 10
        E 0 91 49 10
        E 16 b1 0b 08
        E 32 81 49 00
        E 64 b1 0b 10
        E 0 91 49 10
        E 16 b1 0b 08
        E 32 81 49 00
        E 192 b1 0b 10
        E 0 91 49 10
        E 16 b1 0b 08
        E 32 81 49 00
        E 80 b1 0b 10
        E 0 91 49 10
        E 32 b1 0b 08
        E 32 81 49 00
        E 48 b1 0c 40
        E 0 b1 0b 30
        E 0 91 36 30
        E 16 b1 0b 28
        E 32 b1 0b 20
        E 48 b1 0b 18
        E 16 b1 0c 10
        E 0 b1 0b 10
        E 0 81 36 00
        E 0 91 49 10
        E 16 b1 0b 08
        E 32 81 49 00
        E 80 b1 0b 10
        E 0 91 49 10
        E 16 b1 0b 08
        E 48 81 49 00
        E 48 b1 0b 10
        E 0 91 49 10
        E 16 b1 0b 08
        E 32 81 49 00
        E 80 b1 0b 10
        E 0 91 49 10
        E 32 b1 0b 08
        E 32 81 49 00
        E 160 b1 0b 10
        E 0 91 49 10
        E 16 b1 0b 08
        E 32 81 49 00
        E 80 b1 0b 10
        E 0 91 49 10
        E 16 b1 0b 08
        E 32 81 49 00
        E 64 b1 0c 40
        E 0 b1 0b 30
        E 0 91 33 30
        E 16 b1 0b 28
        E 32 b1 0b 20
        E 32 b1 0b 18
        E 32 b1 0b 10
        E 16 b1 0c 10
        E 0 81 33 00
        E 0 91 49 10
        E 16 b1 0b 08
        E 48 81 49 00
        E 48 b1 0b 10
        E 0 91 49 10
        E 16 b1 0b 08
        E 32 81 49 00
        E 80 b1 0b 10
        E 0 91 49 10
        E 32 b1 0b 08
        E 32 81 49 00
        E 48 b1 0b 10
        E 0 91 49 10
        E 16 b1 0b 08
        E 32 81 49 00
        E 192 b1 0b 10
        E 0 91 49 10
        E 16 b1 0b 08
        E 32 81 49 00
        E 64 b1 0b 10
        E 0 91 49 10
        E 16 b1 0b 08
        E 32 81 49 00
        E 80 b1 0c 40
        E 0 b1 0b 30
        E 0 91 31 30
        E 16 b1 0b 28
        E 48 b1 0b 20
        E 32 b1 0b 18
        E 16 b1 0c 10
        E 0 b1 0b 10
        E 0 81 31 00
        E 0 91 49 10
        E 16 b1 0b 08
        E 32 81 49 00
        E 64 b1 0b 10
        E 0 91 49 10
        E 16 b1 0b 08
        E 32 81 49 00
        E 80 b1 0b 10
        E 0 91 49 10
        E 16 b1 0b 08
        E 32 81 49 00
        E 64 b1 0b 10
        E 0 91 49 10
        E 16 b1 0b 08
        E 32 81 49 00
        E 192 b1 0b 10
        E 0 91 49 10
        E 16 b1 0b 08
        E 32 81 49 00
        E 80 b1 0b 10
        E 0 91 49 10
        E 32 b1 0b 08
        E 32 81 49 00
        E 48 b1 0b 28
        E 0 91 1f 28
        E 16 b1 0b 20
        E 32 b1 0b 18
        E 16 81 1f 00
        E 48 b1 0b 28
        E 0 91 1d 28
        E 16 b1 0b 20
        E 32 b1 0b 18
        E 16 b1 0b 10
        E 0 81 1d 00
        E 0 91 1f 10
        E 16 b1 0b 08
        E 32 81 1f 00
        E 16 b1 0b 28
        E 0 91 1f 28
        E 16 b1 0b 20
        E 32 b1 0b 18
        E 16 b1 0b 10
        E 0 81 1f 00
        E 0 91 1d 10
        E 32 b1 0b 08
        E 16 b1 0b 28
        E 16 b1 0b 20
        E 32 b1 0b 18
        E 16 b1 0b 10
        E 0 81 1d 00
        E 0 91 1f 10
        E 16 b1 0b 08
        E 32 81 1f 00
        E 16 b1 0b 18
        E 0 91 1f 18
        E 48 b1 0b 08
        E 0 81 1f 00
        E 0 91 1d 08
        E 16 81 1d 00
        E 48 b1 0b 18
        E 0 91 1d 18
        E 16 b1 0b 10
        E 32 b1 0b 08
        E 16 81 1d 00
        E 0 91 1f 08
        E 16 81 1f 00
        E 48 b1 0b 18
        E 0 91 1f 18
        E 32 b1 0b 10
        E 16 b1 0b 08
        E 0 81 1f 00
        E 0 91 1d 08
        E 16 81 1d 00
        E 48 b1 0b 18
        E 0 91 1d 18
        E 16 b1 0b 10
        E 32 b1 0b 08
        E 16 81 1d 00
        E 0 91 1f 08
        E 16 81 1f 00
        E 32 b1 0b 28
        E 0 91 22 28
        E 64 b1 0b 10
        E 0 81 22 00
        E 0 91 1d 10
        E 16 b1 0b 08
        E 32 81 1d 00
        E 16 b1 0b 28
        E 0 91 21 28
        E 16 b1 0b 20
        E 32 b1 0b 18
        E 16 b1 0b 10
        E 0 81 21 00
        E 0 91 22 10
        E 32 b1 0b 08
        E 16 b1 0b 28
        E 16 b1 0b 20
        E 32 b1 0b 18
        E 16 b1 0b 10
        E 0 81 22 00
        E 0 91 21 10
        E 16 b1 0b 08
        E 32 81 21 00
        E 16 b1 0b 28
        E 0 91 21 28
        E 32 b1 0b 20
        E 16 b1 0b 10
        E 0 81 21 00
        E 0 91 22 10
        E 16 b1 0b 08
        E 32 81 22 00
        E 16 b1 0b 18
        E 0 91 22 18
        E 64 b1 0b 08
        E 0 81 22 00
        E 0 91 21 08
        E 16 81 21 00
        E 32 b1 0b 18
        E 0 91 21 18
        E 16 b1 0b 10
        E 32 b1 0b 08
        E 16 81 21 00
        E 0 91 22 08
        E 16 81 22 00
        E 48 b1 0b 18
        E 0 91 22 18
        E 16 b1 0b 10
        E 32 b1 0b 08
        E 16 81 22 00
        E 0 91 21 08
        E 32 81 21 00
        E 16 b1 0b 18
        E 0 91 21 18
        E 16 b1 0b 10
        E 32 b1 0b 08
        E 16 81 21 00
        E 0 91 22 08
        E 16 81 22 00
        E 48 b1 0b 28
        E 0 91 26 28
        E 48 b1 0b 10
        E 0 81 26 00
        E 0 91 21 10
        E 16 b1 0b 08
        E 32 81 21 00
        E 16 b1 0b 28
        E 0 91 24 28
        E 16 b1 0b 20
        E 32 b1 0b 18
        E 16 b1 0b 10
        E 0 81 24 00
        E 0 91 26 10
        E 16 b1 0b 08
        E 32 81 26 00
        E 16 b1 0b 28
        E 0 91 26 28
        E 32 b1 0b 20
        E 16 b1 0b 10
        E 0 81 26 00
        E 0 91 24 10
        E 16 b1 0b 08
        E 32 81 24 00
        E 16 b1 0b 28
        E 0 91 24 28
        E 16 b1 0b 20
        E 32 b1 0b 18
        E 16 b1 0b 10
        E 0 81 24 00
        E 0 91 26 10
        E 16 b1 0b 08
        E 32 b1 0b 18
        E 64 b1 0b 08
        E 0 81 26 00
        E 0 91 24 08
        E 16 81 24 00
        E 48 b1 0b 18
        E 0 91 24 18
        E 16 b1 0b 10
        E 32 b1 0b 08
        E 16 81 24 00
        E 0 91 26 08
        E 32 81 26 00
        E 16 b1 0b 18
        E 0 91 26 18
        E 16 b1 0b 10
        E 32 b1 0b 08
        E 16 81 26 00
        E 0 91 24 08
        E 16 81 24 00
        E 48 b1 0b 18
        E 0 91 24 18
        E 16 b1 0b 10
        E 32 b1 0b 08
        E 0 81 24 00
        E 0 91 26 08
        E 16 81 26 00
        E 48 b1 0b 28
        E 0 91 29 28
        E 64 b1 0b 10
        E 0 81 29 00
        E 0 91 24 10
        E 16 b1 0b 08
        E 32 81 24 00
        E 16 b1 0b 28
        E 0 91 27 28
        E 32 b1 0b 20
        E 16 b1 0b 10
        E 0 81 27 00
        E 0 91 29 10
        E 16 b1 0b 08
        E 32 81 29 00
        E 16 b1 0b 28
        E 0 91 29 28
        E 16 b1 0b 20
        E 32 b1 0b 18
        E 16 b1 0b 10
        E 0 81 29 00
        E 0 91 27 10
        E 16 b1 0b 08
        E 32 b1 0b 28
        E 16 b1 0b 20
        E 32 b1 0b 18
        E 16 b1 0b 10
        E 0 81 27 00
        E 0 91 29 10
        E 16 b1 0b 08
        E 32 81 29 00
        E 16 b1 0b 18
        E 0 91 29 18
        E 48 b1 0b 08
        E 0 81 29 00
        E 0 91 27 08
        E 16 81 27 00
        E 48 b1 0b 18
        E 0 91 27 18
        E 16 b1 0b 10
        E 32 b1 0b 08
        E 16 81 27 00
        E 0 91 29 08
        E 16 81 29 00
        E 48 b1 0b 18
        E 0 91 29 18
        E 32 b1 0b 10
        E 16 b1 0b 08
        E 0 81 29 00
        E 0 91 27 08
        E 16 81 27 00
        E 48 b1 0b 18
        E 0 91 27 18
        E 16 b1 0b 10
        E 32 b1 0b 08
        E 16 81 27 00
        E 0 91 29 08
        E 16 81 29 00
        E 32 b1 0c 40
        E 0 b1 0b 30
        E 0 91 22 30
        E 80 b1 0b 28
        E 48 b1 0b 30
        E 0 81 22 00
        E 0 91 21 30
        E 48 b1 0b 28
        E 112 b1 0b 20
        E 80 b1 0b 30
        E 0 81 21 00
        E 0 91 1f 30
        E 16 b1 0b 28
        E 112 b1 0b 20
        E 96 b1 0b 18
        E 16 b1 0b 30
        E 0 81 1f 00
        E 0 91 1d 30
        E 96 b1 0b 28
        E 96 b1 0b 20
        E 112 b1 0b 18
        E 48 b1 0b 30
        E 0 81 1d 00
        E 0 91 1f 30
        E 48 b1 0b 28
        E 64 b1 0b 30
        E 0 81 1f 00
        E 0 91 1d 30
        E 48 b1 0b 28
        E 96 b1 0b 20
        E 96 b1 0b 30
        E 0 81 1d 00
        E 0 91 1b 30
        E 16 b1 0b 28
        E 96 b1 0b 20
        E 112 b1 0b 18
        E 16 b1 0b 30
        E 0 81 1b 00
        E 0 91 1a 30
        E 96 b1 0b 28
        E 96 b1 0b 20
        E 112 b1 0b 18
        E 48 b1 0c 10
        E 0 b1 0b 28
        E 0 81 1a 00
        E 0 91 21 28
        E 48 b1 0b 20
        E 16 81 21 00
        E 64 b1 0b 28
        E 0 91 1f 28
        E 48 b1 0b 10
        E 0 81 1f 00
        E 0 91 21 10
        E 48 b1 0b 08
        E 16 b1 0b 28
        E 64 b1 0b 10
        E 0 81 21 00
        E 0 91 1f 10
        E 16 b1 0b 08
        E 32 b1 0b 28
        E 64 b1 0b 10
        E 0 81 1f 00
        E 0 91 21 10
        E 16 b1 0b 08
        E 48 b1 0b 18
        E 64 b1 0b 08
        E 0 81 21 00
        E 0 91 1f 08
        E 48 b1 0b 18
        E 16 b1 0b 10
        E 48 b1 0b 08
        E 0 81 1f 00
        E 0 91 21 08
        E 48 81 21 00
        E 16 b1 0b 18
        E 0 91 21 18
        E 48 b1 0b 08
        E 0 81 21 00
        E 0 91 1f 08
        E 48 81 1f 00
        E 16 b1 0b 18
        E 0 91 1f 18
        E 64 b1 0b 08
        E 0 81 1f 00
        E 0 91 21 08
        E 16 81 21 00
        E 48 b1 0b 28
        E 0 91 24 28
        E 48 b1 0b 10
        E 0 81 24 00
        E 0 91 1f 10
        E 64 b1 0b 28
        E 0 81 1f 00
        E 0 91 23 28
        E 16 b1 0b 20
        E 48 b1 0b 10
        E 0 81 23 00
        E 0 91 24 10
        E 48 b1 0b 28
        E 16 b1 0b 20
        E 48 b1 0b 10
        E 0 81 24 00
        E 0 91 23 10
        E 48 b1 0b 08
        E 16 b1 0b 28
        E 64 b1 0b 10
        E 0 81 23 00
        E 0 91 24 10
        E 32 b1 0b 08
        E 16 b1 0b 18
        E 64 b1 0b 08
        E 0 81 24 00
        E 0 91 23 08
        E 64 b1 0b 18
        E 16 b1 0b 10
        E 32 b1 0b 08
        E 0 81 23 00
        E 0 91 24 08
        E 64 b1 0b 18
        E 16 b1 0b 10
        E 48 b1 0b 08
        E 0 81 24 00
        E 0 91 23 08
        E 48 b1 0b 18
        E 16 b1 0b 10
        E 48 b1 0b 08
        E 0 81 23 00
        E 0 91 24 08
        E 48 81 24 00
        E 16 b1 0b 28
        E 0 91 28 28
        E 64 b1 0b 10
        E 0 81 28 00
        E 0 91 23 10
        E 48 b1 0b 28
        E 0 81 23 00
        E 0 91 26 28
        E 48 b1 0b 20
        E 16 b1 0b 10
        E 0 81 26 00
        E 0 91 28 10
        E 64 b1 0b 28
        E 16 b1 0b 20
        E 32 b1 0b 10
        E 0 81 28 00
        E 0 91 26 10
        E 64 b1 0b 28
        E 16 b1 0b 20
        E 48 b1 0b 10
        E 0 81 26 00
        E 0 91 28 10
        E 48 b1 0b 08
        E 16 b1 0b 18
        E 48 b1 0b 08
        E 0 81 28 00
        E 0 91 26 08
        E 64 b1 0b 18
        E 16 b1 0b 10
        E 48 b1 0b 08
        E 0 81 26 00
        E 0 91 28 08
        E 48 b1 0b 18
        E 16 b1 0b 10
        E 48 b1 0b 08
        E 0 81 28 00
        E 0 91 26 08
        E 48 81 26 00
        E 16 b1 0b 18
        E 0 91 26 18
        E 64 b1 0b 08
        E 0 81 26 00
        E 0 91 28 08
        E 32 81 28 00
        E 16 b1 0b 28
        E 0 91 2b 28
        E 64 b1 0b 10
        E 0 81 2b 00
        E 0 91 26 10
        E 64 b1 0b 28
        E 0 81 26 00
        E 0 91 29 28
        E 16 b1 0b 20
        E 32 b1 0b 10
        E 0 81 29 00
        E 0 91 2b 10
        E 64 b1 0b 28
        E 16 b1 0b 20
        E 48 b1 0b 10
        E 0 81 2b 00
        E 0 91 29 10
        E 48 b1 0b 08
        E 16 b1 0b 28
        E 48 b1 0b 10
        E 0 81 29 00
        E 0 91 2b 10
        E 48 b1 0b 08
        E 16 b1 0b 18
        E 64 b1 0b 08
        E 0 81 2b 00
        E 0 91 29 08
        E 48 b1 0b 18
        E 48 b1 0b 10
        E 16 b1 0b 08
        E 0 81 29 00
        E 0 91 2b 08
        E 64 b1 0b 18
        E 16 b1 0b 10
        E 48 b1 0b 08
        E 0 81 2b 00
        E 0 91 29 08
        E 48 b1 0b 18
        E 16 b1 0b 10
        E 48 b1 0b 08
        E 0 81 29 00
        E 0 91 2b 08
        E 48 81 2b 00
        E 16 b1 0c 40
        E 0 b1 0b 30
        E 0 91 24 30
        E 96 b1 0b 28
        E 16 b1 0b 30
        E 0 81 24 00
        E 0 91 23 30
        E 80 b1 0b 28
        E 112 b1 0b 20
        E 48 b1 0b 30
        E 0 81 23 00
        E 0 91 21 30
        E 48 b1 0b 28
        E 112 b1 0b 20
        E 80 b1 0b 30
        E 0 81 21 00
        E 0 91 1f 30
        E 16 b1 0b 28
        E 112 b1 0b 20
        E 96 b1 0b 18
        E 112 b1 0b 10
        E 16 b1 0b 30
        E 0 81 1f 00
        E 0 91 21 30
        E 80 b1 0b 28
        E 32 b1 0b 30
        E 0 81 21 00
        E 0 91 1f 30
        E 80 b1 0b 28
        E 96 b1 0b 20
        E 64 b1 0b 30
        E 0 81 1f 00
        E 0 91 1d 30
        E 48 b1 0b 28
        E 96 b1 0b 20
        E 96 b1 0b 30
        E 0 81 1d 00
        E 0 91 1c 30
        E 16 b1 0b 28
        E 96 b1 0b 20
        E 112 b1 0b 18
        E 96 b1 0b 10
        E 32 b1 0c 10
        E 0 b1 0b 28
        E 0 81 1c 00
        E 0 91 23 28
        E 64 81 23 00
        E 64 91 21 28
        E 16 b1 0b 20
        E 32 b1 0b 10
        E 0 81 21 00
        E 0 91 23 10
        E 64 b1 0b 28
        E 16 b1 0b 20
        E 48 b1 0b 10
        E 0 81 23 00
        E 0 91 21 10
        E 48 b1 0b 08
        E 16 b1 0b 28
        E 48 b1 0b 10
        E 0 81 21 00
        E 0 91 23 10
        E 48 b1 0b 08
        E 16 b1 0b 18
        E 64 b1 0b 08
        E 0 81 23 00
        E 0 91 21 08
        E 48 b1 0b 18
        E 48 b1 0b 10
        E 16 b1 0b 08
        E 0 81 21 00
        E 0 91 23 08
        E 64 b1 0b 18
        E 16 b1 0b 10
        E 48 b1 0b 08
        E 0 81 23 00
        E 0 91 21 08
        E 48 b1 0b 18
        E 16 b1 0b 10
        E 48 b1 0b 08
        E 0 81 21 00
        E 0 91 23 08
        E 48 81 23 00
        E 16 b1 0b 28
        E 0 91 26 28
        E 48 b1 0b 10
        E 0 81 26 00
        E 0 91 21 10
        E 64 b1 0b 28
        E 0 81 21 00
        E 0 91 25 28
        E 16 b1 0b 20
        E 48 b1 0b 10
        E 0 81 25 00
        E 0 91 26 10
        E 48 b1 0b 08
        E 16 b1 0b 28
        E 48 b1 0b 10
        E 0 81 26 00
        E 0 91 25 10
        E 48 b1 0b 08
        E 16 b1 0b 28
        E 64 b1 0b 10
        E 0 81 25 00
        E 0 91 26 10
        E 16 b1 0b 08
        E 32 b1 0b 18
        E 64 b1 0b 08
        E 0 81 26 00
        E 0 91 25 08
        E 64 b1 0b 18
        E 16 b1 0b 10
        E 48 b1 0b 08
        E 0 81 25 00
        E 0 91 26 08
        E 48 b1 0b 18
        E 16 b1 0b 10
        E 48 b1 0b 08
        E 0 81 26 00
        E 0 91 25 08
        E 48 81 25 00
        E 16 b1 0b 18
        E 0 91 25 18
        E 48 b1 0b 08
        E 0 81 25 00
        E 0 91 26 08
        E 48 81 26 00
        E 16 b1 0b 28
        E 0 91 2a 28
        E 64 b1 0b 10
        E 0 81 2a 00
        E 0 91 25 10
        E 64 b1 0b 28
        E 0 81 25 00
        E 0 91 28 28
        E 32 b1 0b 20
        E 16 b1 0b 10
        E 0 81 28 00
        E 0 91 2a 10
        E 64 b1 0b 28
        E 16 b1 0b 20
        E 48 b1 0b 10
        E 0 81 2a 00
        E 0 91 28 10
        E 48 b1 0b 28
        E 16 b1 0b 20
        E 48 b1 0b 10
        E 0 81 28 00
        E 0 91 2a 10
        E 48 b1 0b 08
        E 16 b1 0b 18
        E 48 b1 0b 08
        E 0 81 2a 00
        E 0 91 28 08
        E 64 b1 0b 18
        E 16 b1 0b 10
        E 48 b1 0b 08
        E 0 81 28 00
        E 0 91 2a 08
        E 48 81 2a 00
        E 16 b1 0b 18
        E 0 91 2a 18
        E 48 b1 0b 08
        E 0 81 2a 00
        E 0 91 28 08
        E 48 81 28 00
        E 16 b1 0b 18
        E 0 91 28 18
        E 64 b1 0b 08
        E 0 81 28 00
        E 0 91 2a 08
        E 16 81 2a 00
        E 32 b1 0b 28
        E 0 91 2d 28
        E 64 b1 0b 10
        E 0 81 2d 00
        E 0 91 28 10
        E 64 b1 0b 28
        E 0 81 28 00
        E 0 91 2b 28
        E 16 b1 0b 20
        E 48 b1 0b 10
        E 0 81 2b 00
        E 0 91 2d 10
        E 48 b1 0b 28
        E 16 b1 0b 20
        E 48 b1 0b 10
        E 0 81 2d 00
        E 0 91 2b 10
        E 48 b1 0b 08
        E 16 b1 0b 28
        E 48 b1 0b 10
        E 0 81 2b 00
        E 0 91 2d 10
        E 48 b1 0b 08
        E 16 b1 0b 18
        E 64 b1 0b 08
        E 0 81 2d 00
        E 0 91 2b 08
        E 64 b1 0b 18
        E 32 b1 0b 10
        E 16 b1 0b 08
        E 0 81 2b 00
        E 0 91 2d 08
        E 64 b1 0b 18
        E 16 b1 0b 10
        E 48 b1 0b 08
        E 0 81 2d 00
        E 0 91 2b 08
        E 48 b1 0b 18
        E 16 b1 0b 10
        E 48 b1 0b 08
        E 0 81 2b 00
        E 0 91 2d 08
        E 48 81 2d 00
        E 16 b1 0c 40
        E 0 b1 0b 30
        E 0 91 26 30
        E 96 b1 0b 28
        E 16 b1 0b 30
        E 0 81 26 00
        E 0 91 25 30
        E 80 b1 0b 28
        E 112 b1 0b 20
        E 48 b1 0b 30
        E 0 81 25 00
        E 0 91 23 30
        E 48 b1 0b 28
        E 112 b1 0b 20
        E 80 b1 0b 30
        E 0 81 23 00
        E 0 91 21 30
        E 16 b1 0b 28
        E 112 b1 0b 20
        E 96 b1 0b 18
        E 112 b1 0b 10
        E 16 b1 0b 30
        E 0 81 21 00
        E 0 91 23 30
        E 80 b1 0b 28
        E 48 b1 0b 30
        E 0 81 23 00
        E 0 91 21 30
        E 64 b1 0b 28
        E 96 b1 0b 20
        E 64 b1 0b 30
        E 0 81 21 00
        E 0 91 1f 30
        E 48 b1 0b 28
        E 96 b1 0b 20
        E 96 b1 0b 30
        E 0 81 1f 00
        E 0 91 1e 30
        E 16 b1 0b 28
        E 96 b1 0b 20
        E 112 b1 0b 18
        E 96 b1 0b 10
        E 48 b1 0c 10
        E 0 b1 0b 28
        E 0 81 1e 00
        E 0 91 25 28
        E 48 81 25 00
        E 64 91 23 28
        E 16 b1 0b 20
        E 48 b1 0b 10
        E 0 81 23 00
        E 0 91 25 10
        E 48 b1 0b 28
        E 16 b1 0b 20
        E 48 b1 0b 10
        E 0 81 25 00
        E 0 91 23 10
        E 48 b1 0b 08
        E 16 b1 0b 28
        E 64 b1 0b 10
        E 0 81 23 00
        E 0 91 25 10
        E 32 b1 0b 08
        E 16 b1 0b 18
        E 64 b1 0b 08
        E 0 81 25 00
        E 0 91 23 08
        E 64 b1 0b 18
        E 32 b1 0b 10
        E 16 b1 0b 08
        E 0 81 23 00
        E 0 91 25 08
        E 64 b1 0b 18
        E 16 b1 0b 10
        E 48 b1 0b 08
        E 0 81 25 00
        E 0 91 23 08
        E 48 b1 0b 18
        E 16 b1 0b 10
        E 48 b1 0b 08
        E 0 81 23 00
        E 0 91 25 08
        E 48 81 25 00
        E 16 b1 0b 28
        E 0 91 28 28
        E 64 b1 0b 10
        E 0 81 28 00
        E 0 91 23 10
        E 48 b1 0b 28
        E 0 81 23 00
        E 0 91 27 28
        E 48 b1 0b 20
        E 16 b1 0b 10
        E 0 81 27 00
        E 0 91 28 10
        E 64 b1 0b 28
        E 16 b1 0b 20
        E 32 b1 0b 10
        E 0 81 28 00
        E 0 91 27 10
        E 64 b1 0b 28
        E 16 b1 0b 20
        E 48 b1 0b 10
        E 0 81 27 00
        E 0 91 28 10
        E 48 b1 0b 08
        E 16 b1 0b 18
        E 48 b1 0b 08
        E 0 81 28 00
        E 0 91 27 08
        E 64 b1 0b 18
        E 16 b1 0b 10
        E 48 b1 0b 08
        E 0 81 27 00
        E 0 91 28 08
        E 48 b1 0b 18
        E 16 b1 0b 10
        E 48 b1 0b 08
        E 0 81 28 00
        E 0 91 27 08
        E 48 81 27 00
        E 16 b1 0b 18
        E 0 91 27 18
        E 64 b1 0b 08
        E 0 81 27 00
        E 0 91 28 08
        E 32 81 28 00
        E 16 b1 0b 28
        E 0 91 2c 28
        E 64 b1 0b 10
        E 0 81 2c 00
        E 0 91 27 10
        E 64 b1 0b 28
        E 0 81 27 00
        E 0 91 2a 28
        E 16 b1 0b 20
        E 32 b1 0b 10
        E 0 81 2a 00
        E 0 91 2c 10
        E 64 b1 0b 28
        E 16 b1 0b 20
        E 48 b1 0b 10
        E 0 81 2c 00
        E 0 91 2a 10
        E 48 b1 0b 08
        E 16 b1 0b 28
        E 48 b1 0b 10
        E 0 81 2a 00
        E 0 91 2c 10
        E 48 b1 0b 08
        E 16 b1 0b 18
        E 64 b1 0b 08
        E 0 81 2c 00
        E 0 91 2a 08
        E 48 b1 0b 18
        E 48 b1 0b 10
        E 16 b1 0b 08
        E 0 81 2a 00
        E 0 91 2c 08
        E 64 b1 0b 18
        E 16 b1 0b 10
        E 32 b1 0b 08
        E 0 81 2c 00
        E 0 91 2a 08
        E 64 b1 0b 18
        E 16 b1 0b 10
        E 48 b1 0b 08
        E 0 81 2a 00
        E 0 91 2c 08
        E 48 81 2c 00
        E 16 b1 0b 28
        E 0 91 2f 28
        E 48 b1 0b 10
        E 0 81 2f 00
        E 0 91 2a 10
        E 64 b1 0b 28
        E 0 81 2a 00
        E 0 91 2d 28
        E 16 b1 0b 20
        E 48 b1 0b 10
        E 0 81 2d 00
        E 0 91 2f 10
        E 48 b1 0b 28
        E 16 b1 0b 20
        E 48 b1 0b 10
        E 0 81 2f 00
        E 0 91 2d 10
        E 48 b1 0b 08
        E 16 b1 0b 28
        E 64 b1 0b 10
        E 0 81 2d 00
        E 0 91 2f 10
        E 32 b1 0b 08
        E 16 b1 0b 18
        E 64 b1 0b 08
        E 0 81 2f 00
        E 0 91 2d 08
        E 64 b1 0b 18
        E 16 b1 0b 10
        E 32 b1 0b 08
        E 0 81 2d 00
        E 0 91 2f 08
        E 64 b1 0b 18
        E 16 b1 0b 10
        E 48 b1 0b 08
        E 0 81 2f 00
        E 0 91 2d 08
        E 48 81 2d 00
        E 16 b1 0b 18
        E 0 91 2d 18
        E 48 b1 0b 08
        E 0 81 2d 00
        E 0 91 2f 08
        E 48 81 2f 00
        E 16 b1 0c 40
        E 0 b1 0b 30
        E 0 91 28 30
        E 80 b1 0b 28
        E 32 b1 0b 30
        E 0 81 28 00
        E 0 91 27 30
        E 80 b1 0b 28
        E 96 b1 0b 20
        E 64 b1 0b 30
        E 0 81 27 00
        E 0 91 25 30
        E 48 b1 0b 28
        E 96 b1 0b 20
        E 96 b1 0b 30
        E 0 81 25 00
        E 0 91 23 30
        E 16 b1 0b 28
        E 96 b1 0b 20
        E 112 b1 0b 18
        E 112 b1 0b 10
        E 16 b1 0b 30
        E 0 81 23 00
        E 0 91 25 30
        E 80 b1 0b 28
        E 48 b1 0b 30
        E 0 81 25 00
        E 0 91 23 30
        E 64 b1 0b 28
        E 96 b1 0b 20
        E 80 b1 0b 30
        E 0 81 23 00
        E 0 91 21 30
        E 32 b1 0b 28
        E 96 b1 0b 20
        E 96 b1 0b 30
        E 0 81 21 00
        E 0 91 20 30
        E 16 b1 0b 28
        E 96 b1 0b 20
        E 112 b1 0b 18
        E 96 b1 0b 10
        E 48 b1 0b 28
        E 0 81 20 00
        E 0 91 22 28
        E 160 b1 0b 20
        E 80 b1 0b 28
        E 32 b1 0b 20
        E 80 b1 0b 28
        E 16 b1 0b 20
        E 96 b1 0b 10
        E 144 b1 0b 08
        E 96 b1 0b 10
        E 16 b1 0b 08
        E 96 81 22 00
        E 16 b1 0b 10
        E 0 91 22 10
        E 96 b1 0b 08
        E 16 b1 0b 28
        E 0 81 22 00
        E 0 91 21 28
        E 192 b1 0b 20
        E 48 b1 0b 28
        E 48 b1 0b 20
        E 64 b1 0b 28
        E 48 b1 0b 20
        E 80 b1 0b 10
        E 128 b1 0b 08
        E 96 81 21 00
        E 16 b1 0b 10
        E 0 91 21 10
        E 96 b1 0b 08
        E 16 b1 0b 10
        E 80 b1 0b 08
        E 32 b1 0b 28
        E 0 81 21 00
        E 0 91 22 28
        E 224 b1 0b 20
        E 16 b1 0b 28
        E 80 b1 0b 20
        E 48 b1 0b 28
        E 64 b1 0b 20
        E 48 b1 0b 10
        E 192 b1 0b 08
        E 48 b1 0b 10
        E 48 b1 0b 08
        E 64 b1 0b 10
        E 48 b1 0b 08
        E 80 b1 0b 28
        E 0 81 22 00
        E 0 91 21 28
        E 128 b1 0b 20
        E 96 b1 0b 18
        E 16 b1 0b 28
        E 96 b1 0b 20
        E 16 b1 0b 28
        E 80 b1 0b 20
        E 32 b1 0b 10
        E 224 b1 0b 08
        E 16 b1 0b 10
        E 80 b1 0b 08
        E 48 b1 0b 10
        E 64 b1 0b 08
        E 48 b1 0b 28
        E 0 81 21 00
        E 0 91 24 28
        E 192 b1 0b 20
        E 48 b1 0b 28
        E 48 b1 0b 20
        E 64 b1 0b 28
        E 48 b1 0b 20
        E 80 b1 0b 10
        E 128 b1 0b 08
        E 96 81 24 00
        E 16 b1 0b 10
        E 0 91 24 10
        E 96 b1 0b 08
        E 16 b1 0b 10
        E 80 b1 0b 08
        E 48 b1 0b 28
        E 0 81 24 00
        E 0 91 22 28
        E 160 b1 0b 20
        E 64 b1 0b 28
        E 48 b1 0b 20
        E 80 b1 0b 28
        E 16 b1 0b 20
        E 96 b1 0b 10
        E 160 b1 0b 08
        E 80 b1 0b 10
        E 16 b1 0b 08
        E 96 b1 0b 10
        E 16 b1 0b 08
        E 96 81 22 00
        E 16 b1 0b 28
        E 0 91 21 28
        E 192 b1 0b 20
        E 48 b1 0b 28
        E 64 b1 0b 20
        E 48 b1 0b 28
        E 48 b1 0b 20
        E 80 b1 0b 10
        E 128 b1 0b 08
        E 96 b1 0b 10
        E 16 b1 0b 08
        E 96 81 21 00
        E 16 b1 0b 10
        E 0 91 21 10
        E 96 b1 0b 08
        E 16 b1 0b 28
        E 0 81 21 00
        E 0 91 22 28
        E 224 b1 0b 20
        E 16 b1 0b 28
        E 80 b1 0b 20
        E 48 b1 0b 28
        E 64 b1 0b 20
        E 48 b1 0b 10
        E 160 b1 0b 08
        E 80 b1 0b 10
        E 16 b1 0b 08
        E 96 b1 0b 10
        E 16 b1 0b 08
        E 96 81 22 00
        E 16 b1 0b 28
        E 0 91 22 28
        E 192 b1 0b 20
        E 32 b1 0b 28
        E 80 b1 0b 20
        E 48 b1 0b 28
        E 48 b1 0b 20
        E 64 b1 0b 10
        E 192 b1 0b 08
        E 48 b1 0b 10
        E 48 b1 0b 08
        E 80 b1 0b 10
        E 32 b1 0b 08
        E 80 b1 0b 28
        E 0 81 22 00
        E 0 91 21 28
        E 128 b1 0b 20
        E 96 b1 0b 18
        E 16 b1 0b 28
        E 96 b1 0b 20
        E 16 b1 0b 28
        E 80 b1 0b 20
        E 48 b1 0b 10
        E 160 b1 0b 08
        E 64 b1 0b 10
        E 48 b1 0b 08
        E 80 b1 0b 10
        E 16 b1 0b 08
        E 96 b1 0b 28
        E 0 81 21 00
        E 0 91 22 28
        E 144 b1 0b 20
        E 96 b1 0b 28
        E 16 b1 0b 20
        E 96 b1 0b 18
        E 16 b1 0b 28
        E 96 b1 0b 20
        E 16 b1 0b 10
        E 192 b1 0b 08
        E 48 b1 0b 10
        E 48 b1 0b 08
        E 64 b1 0b 10
        E 48 b1 0b 08
        E 80 b1 0b 28
        E 0 81 22 00
        E 0 91 21 28
        E 128 b1 0b 20
        E 96 b1 0b 18
        E 16 b1 0b 28
        E 96 b1 0b 20
        E 16 b1 0b 28
        E 80 b1 0b 20
        E 32 b1 0b 10
        E 224 b1 0b 08
        E 16 b1 0b 10
        E 80 b1 0b 08
        E 48 b1 0b 10
        E 64 b1 0b 08
        E 48 b1 0b 28
        E 0 81 21 00
        E 0 91 24 28
        E 160 b1 0b 20
        E 80 b1 0b 28
        E 16 b1 0b 20
        E 96 b1 0b 28
        E 16 b1 0b 20
        E 96 b1 0b 18
        E 16 b1 0b 10
        E 192 b1 0b 08
        E 48 b1 0b 10
        E 64 b1 0b 08
        E 48 b1 0b 10
        E 48 b1 0b 08
        E 64 b1 0b 28
        E 0 81 24 00
        E 0 91 22 28
        E 176 b1 0b 20
        E 64 b1 0b 28
        E 48 b1 0b 20
        E 80 b1 0b 28
        E 16 b1 0b 20
        E 96 b1 0b 10
        E 160 b1 0b 08
        E 80 b1 0b 10
        E 16 b1 0b 08
        E 96 b1 0b 10
        E 16 b1 0b 08
        E 96 81 22 00
        E 16 b1 0b 28
        E 0 91 21 28
        E 192 b1 0b 20
        E 48 b1 0b 28
        E 64 b1 0b 20
        E 48 b1 0b 28
        E 48 b1 0b 20
        E 64 b1 0b 10
        E 176 b1 0b 08
        E 64 b1 0b 10
        E 48 b1 0b 08
        E 80 b1 0b 10
        E 16 b1 0b 08
        E 96 b1 0b 28
        E 0 81 21 00
        E 0 91 22 28
        E 160 b1 0b 20
        E 80 b1 0b 28
        E 16 b1 0b 20
        E 96 b1 0b 28
        E 16 b1 0b 20
        E 96 b1 0b 18
        E 16 b1 0b 10
        E 192 b1 0b 08
        E 48 b1 0b 10
        E 64 b1 0b 08
        E 48 b1 0b 10
        E 48 b1 0b 08
        E 80 b1 0b 28
        E 128 b1 0b 20
        E 96 b1 0b 28
        E 16 b1 0b 20
        E 96 b1 0b 18
        E 16 b1 0b 28
        E 96 b1 0b 20
        E 16 b1 0b 10
        E 224 b1 0b 08
        E 16 b1 0b 10
        E 80 b1 0b 08
        E 32 b1 0b 10
        E 80 b1 0b 08
        E 48 b1 0b 28
        E 0 81 22 00
        E 0 91 21 28
        E 160 b1 0b 20
        E 80 b1 0b 28
        E 16 b1 0b 20
        E 96 b1 0b 28
        E 16 b1 0b 20
        E 96 b1 0b 18
        E 16 b1 0b 10
        E 192 b1 0b 08
        E 32 b1 0b 10
        E 80 b1 0b 08
        E 48 b1 0b 10
        E 48 b1 0b 08
        E 64 b1 0b 28
        E 0 81 21 00
        E 0 91 22 28
        E 192 b1 0b 20
        E 48 b1 0b 28
        E 48 b1 0b 20
        E 64 b1 0b 28
        E 48 b1 0b 20
        E 80 b1 0b 10
        E 128 b1 0b 08
        E 96 81 22 00
        E 16 b1 0b 10
        E 0 91 22 10
        E 96 b1 0b 08
        E 16 b1 0b 10
        E 80 b1 0b 08
        E 48 b1 0b 28
        E 0 81 22 00
        E 0 91 21 28
        E 160 b1 0b 20
        E 64 b1 0b 28
        E 48 b1 0b 20
        E 80 b1 0b 28
        E 16 b1 0b 20
        E 96 b1 0b 10
        E 144 b1 0b 08
        E 96 b1 0b 10
        E 16 b1 0b 08
        E 96 81 21 00
        E 16 b1 0b 10
        E 0 91 21 10
        E 96 b1 0b 08
        E 16 b1 0b 28
        E 0 81 21 00
        E 0 91 24 28
        E 192 b1 0b 20
        E 48 b1 0b 28
        E 48 b1 0b 20
        E 64 b1 0b 28
        E 48 b1 0b 20
        E 80 b1 0b 10
        E 128 b1 0b 08
        E 96 b1 0b 10
        E 16 b1 0b 08
        E 96 81 24 00
        E 16 b1 0b 10
        E 0 91 24 10
        E 64 81 24 00
        E 0 ff 2f 00
      >
    >
  >
  <TRACK {D880AE6A-5119-41B8-9641-A4AEDCDF69D1}
    NAME "NES - Triangle [ch2]"
    PEAKCOL 16744192
    BEAT -1
    AUTOMODE 0
    PANLAWFLAGS 3
    VOLPAN 1 0 -1 -1 1
    MUTESOLO 0 0 0
    IPHASE 0
    PLAYOFFS 0 1
    ISBUS 0 0
    BUSCOMP 0 0 0 0 0
    SHOWINMIX 1 0.6667 0.5 1 0.5 0 0 0
    FIXEDLANES 9 0 0 0 0
    SEL 0
    REC 0 5088 1 0 0 0 0 0
    VU 2
    TRACKHEIGHT 0 0 0 0 0 0 0
    INQ 0 0 0 0.5 100 0 0 100
    NCHAN 2
    FX 1
    TRACKID {D880AE6A-5119-41B8-9641-A4AEDCDF69D1}
    PERF 0
    MIDIOUT -1
    MAINSEND 1 0
    <FXCHAIN
      WNDRECT 24 52 700 560
      SHOW 0
      LASTSEL 0
      DOCKED 0
      BYPASS 0 0 0
      <JS "ReapNES Studio/ReapNES_Console.jsfx" ""
        2 15 1 10 80 10 100 2 1 15 1 5 60 10 80 1 1 0 50 0 0 15 1 0 100 0 0 0.500000 0.500000 0.400000 0.300000 0.800000 2 1 0 0 0 0 - - - - - - - - - - - - - - - - - - - - - - - - - -
      >
      FLOATPOS 0 0 0 0
      FXID {1F0012A0-A4DB-4DEE-8CD4-D40B4F411A84}
      WAK 0 0
    >
    <ITEM
      POSITION 0
      LENGTH 83.98134
      LOOP 0
      ALLTAKES 0
      FADEIN 0 0 0 0 0 0 0
      FADEOUT 0 0 0 0 0 0 0
      MUTE 0 0
      SEL 0
      IGUID {1042DAEE-5EB1-4203-B1C1-AB1791281E18}
      <SOURCE MIDI
        HASDATA 1 480 QN
        CCINTERP 32
        E 0 c2 26
        E 176 b2 0b 7f
        E 0 92 2b 7f
        E 832 82 2b 00
        E 0 b2 0b 7f
        E 0 92 29 7f
        E 944 82 29 00
        E 0 b2 0b 7f
        E 0 92 2b 7f
        E 944 82 2b 00
        E 0 b2 0b 7f
        E 0 92 29 7f
        E 960 82 29 00
        E 0 b2 0b 7f
        E 0 92 2c 7f
        E 944 82 2c 00
        E 0 b2 0b 7f
        E 0 92 2b 7f
        E 944 82 2b 00
        E 0 b2 0b 7f
        E 0 92 2a 7f
        E 960 82 2a 00
        E 0 b2 0b 7f
        E 0 92 2b 7f
        E 944 82 2b 00
        E 7600 b2 0b 7f
        E 0 92 2b 7f
        E 944 82 2b 00
        E 0 b2 0b 7f
        E 0 92 29 7f
        E 960 82 29 00
        E 0 b2 0b 7f
        E 0 92 2b 7f
        E 944 82 2b 00
        E 0 b2 0b 7f
        E 0 92 29 7f
        E 944 82 29 00
        E 0 b2 0b 7f
        E 0 92 2c 7f
        E 960 82 2c 00
        E 0 b2 0b 7f
        E 0 92 2b 7f
        E 944 82 2b 00
        E 0 b2 0b 7f
        E 0 92 2a 7f
        E 960 82 2a 00
        E 0 b2 0b 7f
        E 0 92 2b 7f
        E 4864 82 2b 00
        E 0 b2 0b 7f
        E 0 92 2d 7f
        E 112 82 2d 00
        E 0 b2 0b 7f
        E 0 92 2e 7f
        E 128 82 2e 00
        E 0 b2 0b 7f
        E 0 92 30 7f
        E 112 82 30 00
        E 0 b2 0b 7f
        E 0 92 32 7f
        E 240 82 32 00
        E 0 b2 0b 7f
        E 0 92 2b 7f
        E 112 82 2b 00
        E 0 b2 0b 7f
        E 0 92 30 7f
        E 240 82 30 00
        E 0 b2 0b 7f
        E 0 92 2e 7f
        E 352 82 2e 00
        E 0 b2 0b 7f
        E 0 92 2d 7f
        E 240 82 2d 00
        E 0 b2 0b 7f
        E 0 92 29 7f
        E 240 82 29 00
        E 0 b2 0b 7f
        E 0 92 35 7f
        E 112 82 35 00
        E 0 b2 0b 7f
        E 0 92 2b 7f
        E 832 82 2b 00
        E 0 b2 0b 7f
        E 0 92 37 7f
        E 128 82 37 00
        E 0 b2 0b 7f
        E 0 92 2b 7f
        E 832 82 2b 00
        E 0 b2 0b 7f
        E 0 92 35 7f
        E 112 82 35 00
        E 0 b2 0b 7f
        E 0 92 2b 7f
        E 832 82 2b 00
        E 0 b2 0b 7f
        E 0 92 34 7f
        E 128 82 34 00
        E 0 b2 0b 7f
        E 0 92 28 7f
        E 832 82 28 00
        E 0 b2 0b 7f
        E 0 92 37 7f
        E 112 82 37 00
        E 0 b2 0b 7f
        E 0 92 2d 7f
        E 832 82 2d 00
        E 0 b2 0b 7f
        E 0 92 39 7f
        E 112 82 39 00
        E 0 b2 0b 7f
        E 0 92 2d 7f
        E 832 82 2d 00
        E 0 b2 0b 7f
        E 0 92 37 7f
        E 128 82 37 00
        E 0 b2 0b 7f
        E 0 92 2d 7f
        E 832 82 2d 00
        E 0 b2 0b 7f
        E 0 92 36 7f
        E 112 82 36 00
        E 0 b2 0b 7f
        E 0 92 2a 7f
        E 832 82 2a 00
        E 0 b2 0b 7f
        E 0 92 39 7f
        E 112 82 39 00
        E 0 b2 0b 7f
        E 0 92 2f 7f
        E 832 82 2f 00
        E 0 b2 0b 7f
        E 0 92 3b 7f
        E 128 82 3b 00
        E 0 b2 0b 7f
        E 0 92 2f 7f
        E 832 82 2f 00
        E 0 b2 0b 7f
        E 0 92 39 7f
        E 112 82 39 00
        E 0 b2 0b 7f
        E 0 92 2f 7f
        E 832 82 2f 00
        E 0 b2 0b 7f
        E 0 92 38 7f
        E 112 82 38 00
        E 0 b2 0b 7f
        E 0 92 2c 7f
        E 832 82 2c 00
        E 0 b2 0b 7f
        E 0 92 3b 7f
        E 128 82 3b 00
        E 0 b2 0b 7f
        E 0 92 31 7f
        E 832 82 31 00
        E 0 b2 0b 7f
        E 0 92 3d 7f
        E 112 82 3d 00
        E 0 b2 0b 7f
        E 0 92 31 7f
        E 832 82 31 00
        E 0 b2 0b 7f
        E 0 92 3b 7f
        E 128 82 3b 00
        E 0 b2 0b 7f
        E 0 92 31 7f
        E 832 82 31 00
        E 0 b2 0b 7f
        E 0 92 3a 7f
        E 112 82 3a 00
        E 0 b2 0b 7f
        E 0 92 2e 7f
        E 896 82 2e 00
        E 48 b2 0b 7f
        E 0 92 2d 7f
        E 64 82 2d 00
        E 0 b2 0b 7f
        E 0 92 2e 7f
        E 112 82 2e 00
        E 0 b2 0b 7f
        E 0 92 2d 7f
        E 128 82 2d 00
        E 0 b2 0b 7f
        E 0 92 2e 7f
        E 112 82 2e 00
        E 0 b2 0b 7f
        E 0 92 2d 7f
        E 128 82 2d 00
        E 0 b2 0b 7f
        E 0 92 2e 7f
        E 112 82 2e 00
        E 0 b2 0b 7f
        E 0 92 2d 7f
        E 128 82 2d 00
        E 0 b2 0b 7f
        E 0 92 2e 7f
        E 48 82 2e 00
        E 0 b2 0b 7f
        E 0 92 32 7f
        E 64 82 32 00
        E 0 b2 0b 7f
        E 0 92 2d 7f
        E 64 82 2d 00
        E 0 b2 0b 7f
        E 0 92 30 7f
        E 48 82 30 00
        E 0 b2 0b 7f
        E 0 92 32 7f
        E 128 82 32 00
        E 0 b2 0b 7f
        E 0 92 30 7f
        E 112 82 30 00
        E 0 b2 0b 7f
        E 0 92 32 7f
        E 128 82 32 00
        E 0 b2 0b 7f
        E 0 92 30 7f
        E 112 82 30 00
        E 0 b2 0b 7f
        E 0 92 32 7f
        E 112 82 32 00
        E 0 b2 0b 7f
        E 0 92 30 7f
        E 128 82 30 00
        E 0 b2 0b 7f
        E 0 92 32 7f
        E 64 82 32 00
        E 0 b2 0b 7f
        E 0 92 35 7f
        E 48 82 35 00
        E 0 b2 0b 7f
        E 0 92 30 7f
        E 64 82 30 00
        E 0 b2 0b 7f
        E 0 92 33 7f
        E 64 82 33 00
        E 0 b2 0b 7f
        E 0 92 35 7f
        E 112 82 35 00
        E 0 b2 0b 7f
        E 0 92 33 7f
        E 128 82 33 00
        E 0 b2 0b 7f
        E 0 92 35 7f
        E 112 82 35 00
        E 0 b2 0b 7f
        E 0 92 33 7f
        E 112 82 33 00
        E 0 b2 0b 7f
        E 0 92 35 7f
        E 128 82 35 00
        E 0 b2 0b 7f
        E 0 92 33 7f
        E 112 82 33 00
        E 0 b2 0b 7f
        E 0 92 35 7f
        E 64 82 35 00
        E 0 b2 0b 7f
        E 0 92 39 7f
        E 64 82 39 00
        E 0 b2 0b 7f
        E 0 92 33 7f
        E 48 82 33 00
        E 0 b2 0b 7f
        E 0 92 37 7f
        E 64 82 37 00
        E 0 b2 0b 7f
        E 0 92 39 7f
        E 128 82 39 00
        E 0 b2 0b 7f
        E 0 92 37 7f
        E 112 82 37 00
        E 0 b2 0b 7f
        E 0 92 39 7f
        E 112 82 39 00
        E 0 b2 0b 7f
        E 0 92 37 7f
        E 128 82 37 00
        E 0 b2 0b 7f
        E 0 92 39 7f
        E 112 82 39 00
        E 0 b2 0b 7f
        E 0 92 37 7f
        E 128 82 37 00
        E 0 b2 0b 7f
        E 0 92 39 7f
        E 48 82 39 00
        E 0 b2 0b 7f
        E 0 92 32 7f
        E 128 82 32 00
        E 0 b2 0b 7f
        E 0 92 30 7f
        E 240 82 30 00
        E 0 b2 0b 7f
        E 0 92 2e 7f
        E 224 82 2e 00
        E 0 b2 0b 7f
        E 0 92 2d 7f
        E 368 82 2d 00
        E 0 b2 0b 7f
        E 0 92 2e 7f
        E 112 82 2e 00
        E 0 b2 0b 7f
        E 0 92 2d 7f
        E 240 82 2d 00
        E 0 b2 0b 7f
        E 0 92 2b 7f
        E 240 82 2b 00
        E 0 b2 0b 7f
        E 0 92 29 7f
        E 352 82 29 00
        E 0 b2 0b 7f
        E 0 92 30 7f
        E 64 82 30 00
        E 48 b2 0b 7f
        E 0 92 2f 7f
        E 64 82 2f 00
        E 0 b2 0b 7f
        E 0 92 30 7f
        E 128 82 30 00
        E 0 b2 0b 7f
        E 0 92 2f 7f
        E 112 82 2f 00
        E 0 b2 0b 7f
        E 0 92 30 7f
        E 112 82 30 00
        E 0 b2 0b 7f
        E 0 92 2f 7f
        E 128 82 2f 00
        E 0 b2 0b 7f
        E 0 92 30 7f
        E 112 82 30 00
        E 0 b2 0b 7f
        E 0 92 2f 7f
        E 128 82 2f 00
        E 0 b2 0b 7f
        E 0 92 30 7f
        E 48 82 30 00
        E 0 b2 0b 7f
        E 0 92 34 7f
        E 64 82 34 00
        E 0 b2 0b 7f
        E 0 92 2f 7f
        E 64 82 2f 00
        E 0 b2 0b 7f
        E 0 92 32 7f
        E 64 82 32 00
        E 0 b2 0b 7f
        E 0 92 34 7f
        E 112 82 34 00
        E 0 b2 0b 7f
        E 0 92 32 7f
        E 112 82 32 00
        E 0 b2 0b 7f
        E 0 92 34 7f
        E 128 82 34 00
        E 0 b2 0b 7f
        E 0 92 32 7f
        E 112 82 32 00
        E 0 b2 0b 7f
        E 0 92 34 7f
        E 128 82 34 00
        E 0 b2 0b 7f
        E 0 92 32 7f
        E 112 82 32 00
        E 0 b2 0b 7f
        E 0 92 34 7f
        E 64 82 34 00
        E 0 b2 0b 7f
        E 0 92 37 7f
        E 48 82 37 00
        E 0 b2 0b 7f
        E 0 92 32 7f
        E 64 82 32 00
        E 0 b2 0b 7f
        E 0 92 35 7f
        E 64 82 35 00
        E 0 b2 0b 7f
        E 0 92 37 7f
        E 112 82 37 00
        E 0 b2 0b 7f
        E 0 92 35 7f
        E 128 82 35 00
        E 0 b2 0b 7f
        E 0 92 37 7f
        E 112 82 37 00
        E 0 b2 0b 7f
        E 0 92 35 7f
        E 128 82 35 00
        E 0 b2 0b 7f
        E 0 92 37 7f
        E 112 82 37 00
        E 0 b2 0b 7f
        E 0 92 35 7f
        E 112 82 35 00
        E 0 b2 0b 7f
        E 0 92 37 7f
        E 64 82 37 00
        E 0 b2 0b 7f
        E 0 92 3b 7f
        E 64 82 3b 00
        E 0 b2 0b 7f
        E 0 92 35 7f
        E 64 82 35 00
        E 0 b2 0b 7f
        E 0 92 39 7f
        E 48 82 39 00
        E 0 b2 0b 7f
        E 0 92 3b 7f
        E 128 82 3b 00
        E 0 b2 0b 7f
        E 0 92 39 7f
        E 112 82 39 00
        E 0 b2 0b 7f
        E 0 92 3b 7f
        E 128 82 3b 00
        E 0 b2 0b 7f
        E 0 92 39 7f
        E 112 82 39 00
        E 0 b2 0b 7f
        E 0 92 3b 7f
        E 112 82 3b 00
        E 0 b2 0b 7f
        E 0 92 39 7f
        E 128 82 39 00
        E 0 b2 0b 7f
        E 0 92 3b 7f
        E 48 82 3b 00
        E 0 b2 0b 7f
        E 0 92 34 7f
        E 128 82 34 00
        E 0 b2 0b 7f
        E 0 92 32 7f
        E 240 82 32 00
        E 0 b2 0b 7f
        E 0 92 30 7f
        E 240 82 30 00
        E 0 b2 0b 7f
        E 0 92 2f 7f
        E 352 82 2f 00
        E 0 b2 0b 7f
        E 0 92 30 7f
        E 112 82 30 00
        E 0 b2 0b 7f
        E 0 92 2f 7f
        E 240 82 2f 00
        E 0 b2 0b 7f
        E 0 92 2d 7f
        E 240 82 2d 00
        E 0 b2 0b 7f
        E 0 92 2b 7f
        E 352 82 2b 00
        E 0 b2 0b 7f
        E 0 92 32 7f
        E 64 82 32 00
        E 64 b2 0b 7f
        E 0 92 31 7f
        E 48 82 31 00
        E 0 b2 0b 7f
        E 0 92 32 7f
        E 128 82 32 00
        E 0 b2 0b 7f
        E 0 92 31 7f
        E 112 82 31 00
        E 0 b2 0b 7f
        E 0 92 32 7f
        E 128 82 32 00
        E 0 b2 0b 7f
        E 0 92 31 7f
        E 112 82 31 00
        E 0 b2 0b 7f
        E 0 92 32 7f
        E 112 82 32 00
        E 0 b2 0b 7f
        E 0 92 31 7f
        E 128 82 31 00
        E 0 b2 0b 7f
        E 0 92 32 7f
        E 64 82 32 00
        E 0 b2 0b 7f
        E 0 92 36 7f
        E 48 82 36 00
        E 0 b2 0b 7f
        E 0 92 31 7f
        E 64 82 31 00
        E 0 b2 0b 7f
        E 0 92 34 7f
        E 64 82 34 00
        E 0 b2 0b 7f
        E 0 92 36 7f
        E 112 82 36 00
        E 0 b2 0b 7f
        E 0 92 34 7f
        E 128 82 34 00
        E 0 b2 0b 7f
        E 0 92 36 7f
        E 112 82 36 00
        E 0 b2 0b 7f
        E 0 92 34 7f
        E 112 82 34 00
        E 0 b2 0b 7f
        E 0 92 36 7f
        E 128 82 36 00
        E 0 b2 0b 7f
        E 0 92 34 7f
        E 112 82 34 00
        E 0 b2 0b 7f
        E 0 92 36 7f
        E 64 82 36 00
        E 0 b2 0b 7f
        E 0 92 39 7f
        E 64 82 39 00
        E 0 b2 0b 7f
        E 0 92 34 7f
        E 48 82 34 00
        E 0 b2 0b 7f
        E 0 92 37 7f
        E 64 82 37 00
        E 0 b2 0b 7f
        E 0 92 39 7f
        E 112 82 39 00
        E 0 b2 0b 7f
        E 0 92 37 7f
        E 128 82 37 00
        E 0 b2 0b 7f
        E 0 92 39 7f
        E 112 82 39 00
        E 0 b2 0b 7f
        E 0 92 37 7f
        E 128 82 37 00
        E 0 b2 0b 7f
        E 0 92 39 7f
        E 112 82 39 00
        E 0 b2 0b 7f
        E 0 92 37 7f
        E 128 82 37 00
        E 0 b2 0b 7f
        E 0 92 39 7f
        E 48 82 39 00
        E 0 b2 0b 7f
        E 0 92 3d 7f
        E 64 82 3d 00
        E 0 b2 0b 7f
        E 0 92 37 7f
        E 64 82 37 00
        E 0 b2 0b 7f
        E 0 92 3b 7f
        E 48 82 3b 00
        E 0 b2 0b 7f
        E 0 92 3d 7f
        E 128 82 3d 00
        E 0 b2 0b 7f
        E 0 92 3b 7f
        E 112 82 3b 00
        E 0 b2 0b 7f
        E 0 92 3d 7f
        E 128 82 3d 00
        E 0 b2 0b 7f
        E 0 92 3b 7f
        E 112 82 3b 00
        E 0 b2 0b 7f
        E 0 92 3d 7f
        E 128 82 3d 00
        E 0 b2 0b 7f
        E 0 92 3b 7f
        E 112 82 3b 00
        E 0 b2 0b 7f
        E 0 92 3d 7f
        E 64 82 3d 00
        E 0 b2 0b 7f
        E 0 92 36 7f
        E 112 82 36 00
        E 0 b2 0b 7f
        E 0 92 34 7f
        E 240 82 34 00
        E 0 b2 0b 7f
        E 0 92 32 7f
        E 240 82 32 00
        E 0 b2 0b 7f
        E 0 92 31 7f
        E 352 82 31 00
        E 0 b2 0b 7f
        E 0 92 32 7f
        E 112 82 32 00
        E 0 b2 0b 7f
        E 0 92 31 7f
        E 240 82 31 00
        E 0 b2 0b 7f
        E 0 92 2f 7f
        E 240 82 2f 00
        E 0 b2 0b 7f
        E 0 92 2d 7f
        E 352 82 2d 00
        E 0 b2 0b 7f
        E 0 92 34 7f
        E 64 82 34 00
        E 64 b2 0b 7f
        E 0 92 33 7f
        E 64 82 33 00
        E 0 b2 0b 7f
        E 0 92 34 7f
        E 112 82 34 00
        E 0 b2 0b 7f
        E 0 92 33 7f
        E 112 82 33 00
        E 0 b2 0b 7f
        E 0 92 34 7f
        E 128 82 34 00
        E 0 b2 0b 7f
        E 0 92 33 7f
        E 112 82 33 00
        E 0 b2 0b 7f
        E 0 92 34 7f
        E 128 82 34 00
        E 0 b2 0b 7f
        E 0 92 33 7f
        E 112 82 33 00
        E 0 b2 0b 7f
        E 0 92 34 7f
        E 64 82 34 00
        E 0 b2 0b 7f
        E 0 92 38 7f
        E 48 82 38 00
        E 0 b2 0b 7f
        E 0 92 33 7f
        E 64 82 33 00
        E 0 b2 0b 7f
        E 0 92 36 7f
        E 64 82 36 00
        E 0 b2 0b 7f
        E 0 92 38 7f
        E 112 82 38 00
        E 0 b2 0b 7f
        E 0 92 36 7f
        E 128 82 36 00
        E 0 b2 0b 7f
        E 0 92 38 7f
        E 112 82 38 00
        E 0 b2 0b 7f
        E 0 92 36 7f
        E 128 82 36 00
        E 0 b2 0b 7f
        E 0 92 38 7f
        E 112 82 38 00
        E 0 b2 0b 7f
        E 0 92 36 7f
        E 112 82 36 00
        E 0 b2 0b 7f
        E 0 92 38 7f
        E 64 82 38 00
        E 0 b2 0b 7f
        E 0 92 3b 7f
        E 64 82 3b 00
        E 0 b2 0b 7f
        E 0 92 36 7f
        E 64 82 36 00
        E 0 b2 0b 7f
        E 0 92 39 7f
        E 48 82 39 00
        E 0 b2 0b 7f
        E 0 92 3b 7f
        E 128 82 3b 00
        E 0 b2 0b 7f
        E 0 92 39 7f
        E 112 82 39 00
        E 0 b2 0b 7f
        E 0 92 3b 7f
        E 128 82 3b 00
        E 0 b2 0b 7f
        E 0 92 39 7f
        E 112 82 39 00
        E 0 b2 0b 7f
        E 0 92 3b 7f
        E 112 82 3b 00
        E 0 b2 0b 7f
        E 0 92 39 7f
        E 128 82 39 00
        E 0 b2 0b 7f
        E 0 92 3b 7f
        E 48 82 3b 00
        E 0 b2 0b 7f
        E 0 92 3f 7f
        E 64 82 3f 00
        E 0 b2 0b 7f
        E 0 92 39 7f
        E 64 82 39 00
        E 0 b2 0b 7f
        E 0 92 3d 7f
        E 64 82 3d 00
        E 0 b2 0b 7f
        E 0 92 3f 7f
        E 112 82 3f 00
        E 0 b2 0b 7f
        E 0 92 3d 7f
        E 112 82 3d 00
        E 0 b2 0b 7f
        E 0 92 3f 7f
        E 128 82 3f 00
        E 0 b2 0b 7f
        E 0 92 3d 7f
        E 112 82 3d 00
        E 0 b2 0b 7f
        E 0 92 3f 7f
        E 128 82 3f 00
        E 0 b2 0b 7f
        E 0 92 3d 7f
        E 112 82 3d 00
        E 0 b2 0b 7f
        E 0 92 3f 7f
        E 64 82 3f 00
        E 0 b2 0b 7f
        E 0 92 38 7f
        E 112 82 38 00
        E 0 b2 0b 7f
        E 0 92 36 7f
        E 240 82 36 00
        E 0 b2 0b 7f
        E 0 92 34 7f
        E 240 82 34 00
        E 0 b2 0b 7f
        E 0 92 33 7f
        E 352 82 33 00
        E 0 b2 0b 7f
        E 0 92 34 7f
        E 128 82 34 00
        E 0 b2 0b 7f
        E 0 92 33 7f
        E 224 82 33 00
        E 0 b2 0b 7f
        E 0 92 31 7f
        E 240 82 31 00
        E 0 b2 0b 7f
        E 0 92 2f 7f
        E 368 82 2f 00
        E 112 b2 0b 7f
        E 0 92 2b 7f
        E 832 82 2b 00
        E 0 b2 0b 7f
        E 0 92 29 7f
        E 944 82 29 00
        E 0 b2 0b 7f
        E 0 92 2b 7f
        E 960 82 2b 00
        E 0 b2 0b 7f
        E 0 92 29 7f
        E 944 82 29 00
        E 0 b2 0b 7f
        E 0 92 2c 7f
        E 944 82 2c 00
        E 0 b2 0b 7f
        E 0 92 2b 7f
        E 960 82 2b 00
        E 0 b2 0b 7f
        E 0 92 2a 7f
        E 944 82 2a 00
        E 0 b2 0b 7f
        E 0 92 2b 7f
        E 944 82 2b 00
        E 7600 b2 0b 7f
        E 0 92 2b 7f
        E 960 82 2b 00
        E 0 b2 0b 7f
        E 0 92 29 7f
        E 944 82 29 00
        E 0 b2 0b 7f
        E 0 92 2b 7f
        E 944 82 2b 00
        E 0 b2 0b 7f
        E 0 92 29 7f
        E 960 82 29 00
        E 0 b2 0b 7f
        E 0 92 2c 7f
        E 864 82 2c 00
        E 0 ff 2f 00
      >
    >
  >
  <TRACK {81BC0A61-3448-4D90-99E2-239457745F83}
    NAME "NES - Noise / Drums [ch3]"
    PEAKCOL 11184810
    BEAT -1
    AUTOMODE 0
    PANLAWFLAGS 3
    VOLPAN 1 0 -1 -1 1
    MUTESOLO 0 0 0
    IPHASE 0
    PLAYOFFS 0 1
    ISBUS 0 0
    BUSCOMP 0 0 0 0 0
    SHOWINMIX 1 0.6667 0.5 1 0.5 0 0 0
    FIXEDLANES 9 0 0 0 0
    SEL 0
    REC 0 5088 1 0 0 0 0 0
    VU 2
    TRACKHEIGHT 0 0 0 0 0 0 0
    INQ 0 0 0 0.5 100 0 0 100
    NCHAN 2
    FX 1
    TRACKID {81BC0A61-3448-4D90-99E2-239457745F83}
    PERF 0
    MIDIOUT -1
    MAINSEND 1 0
    <FXCHAIN
      WNDRECT 24 52 700 560
      SHOW 0
      LASTSEL 0
      DOCKED 0
      BYPASS 0 0 0
      <JS "ReapNES Studio/ReapNES_Console.jsfx" ""
        2 15 1 10 80 10 100 2 1 15 1 5 60 10 80 1 1 0 50 0 0 15 1 0 100 0 0 0.500000 0.500000 0.400000 0.300000 0.800000 3 1 0 0 0 0 - - - - - - - - - - - - - - - - - - - - - - - - - -
      >
      FLOATPOS 0 0 0 0
      FXID {BB9B9C4D-9FAD-4FE7-930A-9A5DEF99C80F}
      WAK 0 0
    >
    <ITEM
      POSITION 0
      LENGTH 83.98134
      LOOP 0
      ALLTAKES 0
      FADEIN 0 0 0 0 0 0 0
      FADEOUT 0 0 0 0 0 0 0
      MUTE 0 0
      SEL 0
      IGUID {073498F9-2C6A-4855-964C-7AF6009BD05C}
      <SOURCE MIDI
        HASDATA 1 480 QN
        CCINTERP 32
        E 16 93 24 48
        E 86384 83 24 00
        E 0 ff 2f 00
      >
    >
  >
>