<REAPER_PROJECT 0.1 "7.27/win64" 1707000000
  <NOTES 0 2
    |ReapNES Studio Project
    |MIDI Import - Battletoads_16_Song_16_v1
  >
  RIPPLE 0
  GROUPOVERRIDE 0 0 0
  AUTOXFADE 129
  ENVATTACH 3
  POOLEDENVATTACH 0
  MIXERUIFLAGS 11 48
  ENVFADESZ10 40
  PEAKGAIN 1
  FEEDBACK 0
  PANLAW 1
  PROJOFFS 0 0 0
  MAXPROJLEN 0 0
  GRID 3199 8 1 8 1 0 0 0
  TIMEMODE 1 5 -1 30 0 0 -1
  VIDEO_CONFIG 0 0 65792
  PANMODE 3
  PANLAWFLAGS 3
  CURSOR 0
  ZOOM 100 0 0
  VZOOMEX 6 0
  USE_REC_CFG 0
  RECMODE 1
  SMPTESYNC 0 30 100 40 1000 300 0 0 1 0 0
  LOOP 0
  LOOPGRAN 0 4
  RECORD_PATH "Media" ""
  <RECORD_CFG
    ZXZhdxgAAQ==
  >
  <APPLYFX_CFG
  >
  RENDER_FILE ""
  RENDER_PATTERN ""
  RENDER_FMT 0 2 0
  RENDER_1X 0
  RENDER_RANGE 1 0 0 18 1000
  RENDER_RESAMPLE 3 0 1
  RENDER_ADDTOPROJ 0
  RENDER_STEMS 0
  RENDER_DITHER 0
  TIMELOCKMODE 1
  TEMPOENVLOCKMODE 1
  ITEMMIX 1
  DEFPITCHMODE 589824 0
  TAKELANE 1
  SAMPLERATE 44100 0 0
  <RENDER_CFG
    ZXZhdxgAAQ==
  >
  LOCK 1
  <METRONOME 6 2
    VOL 0.25 0.125
    BEATLEN 4
    FREQ 1760 880 1
    SAMPLES "" ""
    SPLIGNORE 0 0
    SPLDEF 2 660 "" 0
    SPLDEF 3 440 "" 0
    PATTERN 0 169
    PATTERNSTR ABBB
    MULT 1
  >
  GLOBAL_AUTO -1
  TEMPO 128.59999614200012 4 4
  PLAYRATE 1 0 0.25 4
  SELECTION 0 0
  SELECTION2 0 0
  MASTERAUTOMODE 0
  MASTERTRACKHEIGHT 0 0
  MASTERPEAKCOL 16576
  MASTERMUTESOLO 0
  MASTERTRACKVIEW 0 0.6667 0.5 0.5 0 0 0 0 0 0 0 0 0 0
  MASTERHWOUT 0 0 1 0 0 0 0 -1
  MASTER_NCH 2 2
  MASTER_VOLUME 1 0 -1 -1 1
  MASTER_PANMODE 3
  MASTER_PANLAWFLAGS 3
  MASTER_FX 1
  MASTER_SEL 0
  <MASTERPLAYSPEEDENV
    EGUID {28D574F2-B234-4AAE-877A-D30DF2DB2972}
    ACT 0 -1
    VIS 0 1 1
    LANEHEIGHT 0 0
    ARM 0
    DEFSHAPE 0 -1 -1
  >
  <TEMPOENVEX
    EGUID {DAB17A01-662A-4B74-8EB1-3F7D054913ED}
    ACT 1 -1
    VIS 1 0 1
    LANEHEIGHT 0 0
    ARM 0
    DEFSHAPE 1 -1 -1
  >
  <PROJBAY
  >
  <TRACK {DDF5719C-2DDC-4EEB-9C53-D3498BBA4421}
    NAME "NES - Pulse 1 [ch0]"
    PEAKCOL 16576606
    BEAT -1
    AUTOMODE 0
    PANLAWFLAGS 3
    VOLPAN 1 0 -1 -1 1
    MUTESOLO 0 0 0
    IPHASE 0
    PLAYOFFS 0 1
    ISBUS 0 0
    BUSCOMP 0 0 0 0 0
    SHOWINMIX 1 0.6667 0.5 1 0.5 0 0 0
    FIXEDLANES 9 0 0 0 0
    SEL 1
    REC 0 5088 1 0 0 0 0 0
    VU 2
    TRACKHEIGHT 0 0 0 0 0 0 0
    INQ 0 0 0 0.5 100 0 0 100
    NCHAN 2
    FX 1
    TRACKID {DDF5719C-2DDC-4EEB-9C53-D3498BBA4421}
    PERF 0
    MIDIOUT -1
    MAINSEND 1 0
    <FXCHAIN
      WNDRECT 24 52 700 560
      SHOW 0
      LASTSEL 0
      DOCKED 0
      BYPASS 0 0 0
      <JS "ReapNES Studio/ReapNES_Console.jsfx" ""
        2 15 1 10 80 10 100 2 1 15 1 5 60 10 80 1 1 0 50 0 0 15 1 0 100 0 0 0.500000 0.500000 0.400000 0.300000 0.800000 0 1 0 0 0 0 - - - - - - - - - - - - - - - - - - - - - - - - - -
      >
      FLOATPOS 0 0 0 0
      FXID {DA3EE436-5643-4F34-BB64-FF3AB45D0B79}
      WAK 0 0
    >
    <ITEM
      POSITION 0
      LENGTH 83.98134
      LOOP 0
      ALLTAKES 0
      FADEIN 0 0 0 0 0 0 0
      FADEOUT 0 0 0 0 0 0 0
      MUTE 0 0
      SEL 0
      IGUID {56005AF8-4EFF-4A34-9A7F-402B1266336B}
      <SOURCE MIDI
        HASDATA 1 480 QN
        CCINTERP 32
        E 0 c0 50
        E 48 b0 0c 20
        E 0 b0 0b 20
        E 0 90 2e 20
        E 15200 b0 0c 10
        E 0 b0 0b 10
        E 0 80 2e 00
        E 0 90 22 10
        E 16 b0 0b 18
        E 32 b0 0b 20
        E 32 b0 0b 28
        E 32 b0 0b 10
        E 0 80 22 00
        E 0 90 3a 10
        E 16 b0 0b 18
        E 32 b0 0b 20
        E 32 b0 0b 28
        E 32 b0 0b 30
        E 16 b0 0b 10
        E 0 80 3a 00
        E 0 90 35 10
        E 16 b0 0b 18
        E 32 b0 0b 20
        E 48 b0 0b 28
        E 16 b0 0b 10
        E 0 80 35 00
        E 0 90 32 10
        E 16 b0 0b 18
        E 32 b0 0b 20
        E 32 b0 0b 28
        E 32 b0 0b 30
        E 32 b0 0b 38
        E 48 b0 0b 40
        E 32 b0 0b 48
        E 32 b0 0b 50
        E 32 b0 0b 58
        E 192 b0 0b 10
        E 0 80 32 00
        E 0 90 22 10
        E 16 b0 0b 18
        E 32 b0 0b 20
        E 32 b0 0b 28
        E 32 b0 0b 10
        E 16 b0 0b 18
        E 32 b0 0b 20
        E 32 b0 0b 28
        E 32 b0 0b 30
        E 16 b0 0b 10
        E 0 80 22 00
        E 0 90 2c 10
        E 16 b0 0b 18
        E 48 b0 0b 20
        E 32 b0 0b 28
        E 16 b0 0b 10
        E 0 80 2c 00
        E 0 90 30 10
        E 16 b0 0b 18
        E 32 b0 0b 20
        E 32 b0 0b 28
        E 32 b0 0b 30
        E 16 b0 0b 10
        E 0 80 30 00
        E 0 90 33 10
        E 32 b0 0b 18
        E 32 b0 0b 20
        E 32 b0 0b 28
        E 32 b0 0b 30
        E 32 b0 0b 38
        E 32 b0 0b 40
        E 48 b0 0b 48
        E 32 b0 0b 50
        E 32 b0 0b 58
        E 160 b0 0b 10
        E 0 80 33 00
        E 0 90 22 10
        E 16 b0 0b 18
        E 32 b0 0b 20
        E 32 b0 0b 28
        E 32 b0 0b 30
        E 16 b0 0b 10
        E 16 b0 0b 18
        E 48 b0 0b 20
        E 32 b0 0b 28
        E 16 b0 0b 10
        E 0 80 22 00
        E 0 90 2e 10
        E 16 b0 0b 18
        E 32 b0 0b 20
        E 32 b0 0b 28
        E 32 b0 0b 30
        E 16 b0 0b 10
        E 0 80 2e 00
        E 0 90 32 10
        E 32 b0 0b 18
        E 32 b0 0b 20
        E 32 b0 0b 28
        E 16 b0 0b 10
        E 0 80 32 00
        E 0 90 35 10
        E 16 b0 0b 18
        E 32 b0 0b 20
        E 32 b0 0b 28
        E 48 b0 0b 30
        E 32 b0 0b 38
        E 32 b0 0b 40
        E 32 b0 0b 48
        E 32 b0 0b 50
        E 32 b0 0b 58
        E 192 b0 0b 10
        E 0 80 35 00
        E 0 90 22 10
        E 16 b0 0b 18
        E 48 b0 0b 20
        E 32 b0 0b 28
        E 16 b0 0b 10
        E 16 b0 0b 18
        E 32 b0 0b 20
        E 32 b0 0b 28
        E 32 b0 0b 30
        E 16 b0 0b 10
        E 0 80 22 00
        E 0 90 2c 10
        E 32 b0 0b 18
        E 32 b0 0b 20
        E 32 b0 0b 28
        E 16 b0 0b 10
        E 0 80 2c 00
        E 0 90 30 10
        E 16 b0 0b 18
        E 32 b0 0b 20
        E 48 b0 0b 28
        E 16 b0 0b 10
        E 0 80 30 00
        E 0 90 33 10
        E 16 b0 0b 18
        E 32 b0 0b 20
        E 32 b0 0b 28
        E 32 b0 0b 30
        E 16 b0 0b 10
        E 0 80 33 00
        E 0 90 32 10
        E 16 b0 0b 18
        E 48 b0 0b 20
        E 32 b0 0b 28
        E 16 b0 0b 10
        E 0 80 32 00
        E 0 90 2e 10
        E 16 b0 0b 18
        E 32 b0 0b 20
        E 32 b0 0b 28
        E 32 b0 0b 30
        E 16 b0 0b 10
        E 0 80 2e 00
        E 0 90 29 10
        E 32 b0 0b 18
        E 32 b0 0b 20
        E 32 b0 0b 28
        E 16 b0 0b 10
        E 0 80 29 00
        E 0 90 22 10
        E 16 b0 0b 18
        E 32 b0 0b 20
        E 32 b0 0b 28
        E 32 b0 0b 10
        E 16 b0 0b 18
        E 32 b0 0b 20
        E 32 b0 0b 28
        E 32 b0 0b 30
        E 16 b0 0b 10
        E 0 80 22 00
        E 0 90 3a 10
        E 16 b0 0b 18
        E 32 b0 0b 20
        E 48 b0 0b 28
        E 16 b0 0b 10
        E 0 80 3a 00
        E 0 90 35 10
        E 16 b0 0b 18
        E 32 b0 0b 20
        E 32 b0 0b 28
        E 32 b0 0b 30
        E 16 b0 0b 10
        E 0 80 35 00
        E 0 90 32 10
        E 16 b0 0b 18
        E 48 b0 0b 20
        E 32 b0 0b 28
        E 32 b0 0b 30
        E 32 b0 0b 38
        E 32 b0 0b 40
        E 32 b0 0b 48
        E 48 b0 0b 50
        E 32 b0 0b 58
        E 160 b0 0b 10
        E 0 80 32 00
        E 0 90 22 10
        E 16 b0 0b 18
        E 32 b0 0b 20
        E 32 b0 0b 28
        E 32 b0 0b 30
        E 16 b0 0b 10
        E 16 b0 0b 18
        E 32 b0 0b 20
        E 48 b0 0b 28
        E 16 b0 0b 10
        E 0 80 22 00
        E 0 90 2c 10
        E 16 b0 0b 18
        E 32 b0 0b 20
        E 32 b0 0b 28
        E 32 b0 0b 30
        E 16 b0 0b 10
        E 0 80 2c 00
        E 0 90 30 10
        E 16 b0 0b 18
        E 48 b0 0b 20
        E 32 b0 0b 28
        E 16 b0 0b 10
        E 0 80 30 00
        E 0 90 33 10
        E 16 b0 0b 18
        E 32 b0 0b 20
        E 32 b0 0b 28
        E 48 b0 0b 30
        E 32 b0 0b 38
        E 32 b0 0b 40
        E 32 b0 0b 48
        E 32 b0 0b 50
        E 32 b0 0b 58
        E 192 b0 0b 10
        E 0 80 33 00
        E 0 90 22 10
        E 16 b0 0b 18
        E 48 b0 0b 20
        E 32 b0 0b 28
        E 16 b0 0b 10
        E 16 b0 0b 18
        E 32 b0 0b 20
        E 32 b0 0b 28
        E 32 b0 0b 30
        E 16 b0 0b 10
        E 0 80 22 00
        E 0 90 2e 10
        E 32 b0 0b 18
        E 32 b0 0b 20
        E 32 b0 0b 28
        E 16 b0 0b 10
        E 0 80 2e 00
        E 0 90 32 10
        E 16 b0 0b 18
        E 32 b0 0b 20
        E 32 b0 0b 28
        E 32 b0 0b 10
        E 0 80 32 00
        E 0 90 35 10
        E 16 b0 0b 18
        E 32 b0 0b 20
        E 32 b0 0b 28
        E 32 b0 0b 30
        E 32 b0 0b 38
        E 32 b0 0b 40
        E 48 b0 0b 48
        E 32 b0 0b 50
        E 32 b0 0b 58
        E 192 b0 0b 10
        E 0 80 35 00
        E 0 90 22 10
        E 16 b0 0b 18
        E 32 b0 0b 20
        E 32 b0 0b 28
        E 32 b0 0b 30
        E 16 b0 0b 10
        E 32 b0 0b 18
        E 32 b0 0b 20
        E 32 b0 0b 28
        E 16 b0 0b 10
        E 0 80 22 00
        E 0 90 2c 10
        E 16 b0 0b 18
        E 32 b0 0b 20
        E 32 b0 0b 28
        E 32 b0 0b 10
        E 0 80 2c 00
        E 0 90 30 10
        E 16 b0 0b 18
        E 32 b0 0b 20
        E 32 b0 0b 28
        E 32 b0 0b 30
        E 16 b0 0b 10
        E 0 80 30 00
        E 0 90 33 10
        E 16 b0 0b 18
        E 32 b0 0b 20
        E 48 b0 0b 28
        E 16 b0 0b 10
        E 0 80 33 00
        E 0 90 32 10
        E 16 b0 0b 18
        E 32 b0 0b 20
        E 32 b0 0b 28
        E 32 b0 0b 30
        E 16 b0 0b 10
        E 0 80 32 00
        E 0 90 2e 10
        E 32 b0 0b 18
        E 32 b0 0b 20
        E 32 b0 0b 28
        E 16 b0 0b 10
        E 0 80 2e 00
        E 0 90 29 10
        E 16 b0 0b 18
        E 32 b0 0b 20
        E 32 b0 0b 28
        E 32 b0 0b 10
        E 0 80 29 00
        E 0 90 22 10
        E 16 b0 0b 18
        E 32 b0 0b 20
        E 32 b0 0b 28
        E 32 b0 0b 30
        E 16 b0 0c 20
        E 0 b0 0b 20
        E 0 80 22 00
        E 0 90 2e 20
        E 16 b0 0b 28
        E 32 b0 0b 30
        E 48 b0 0b 38
        E 16 b0 0b 20
        E 16 b0 0b 28
        E 32 b0 0b 30
        E 32 b0 0b 38
        E 32 b0 0b 40
        E 32 b0 0b 48
        E 48 b0 0b 50
        E 32 b0 0b 58
        E 16 b0 0b 20
        E 16 b0 0b 28
        E 32 b0 0b 30
        E 32 b0 0b 38
        E 32 b0 0b 40
        E 48 b0 0b 48
        E 32 b0 0b 50
        E 32 b0 0b 58
        E 16 b0 0b 20
        E 16 b0 0b 28
        E 32 b0 0b 30
        E 32 b0 0b 38
        E 48 b0 0b 40
        E 32 b0 0b 48
        E 32 b0 0b 50
        E 32 b0 0b 58
        E 16 b0 0b 20
        E 16 b0 0b 28
        E 32 b0 0b 30
        E 48 b0 0b 38
        E 16 b0 0b 20
        E 16 b0 0b 28
        E 32 b0 0b 30
        E 32 b0 0b 38
        E 32 b0 0b 40
        E 16 b0 0b 20
        E 16 b0 0b 28
        E 48 b0 0b 30
        E 32 b0 0b 38
        E 32 b0 0b 40
        E 32 b0 0b 48
        E 32 b0 0b 50
        E 32 b0 0b 58
        E 16 b0 0b 20
        E 32 b0 0b 28
        E 32 b0 0b 30
        E 32 b0 0b 38
        E 32 b0 0b 40
        E 32 b0 0b 48
        E 32 b0 0b 50
        E 32 b0 0b 20
        E 16 b0 0b 28
        E 32 b0 0b 30
        E 32 b0 0b 38
        E 32 b0 0b 40
        E 32 b0 0b 48
        E 48 b0 0b 50
        E 32 b0 0b 58
        E 16 b0 0b 20
        E 16 b0 0b 28
        E 32 b0 0b 30
        E 32 b0 0b 38
        E 32 b0 0b 40
        E 16 b0 0b 20
        E 32 b0 0b 28
        E 32 b0 0b 30
        E 32 b0 0b 38
        E 16 b0 0b 20
        E 16 b0 0b 28
        E 32 b0 0b 30
        E 32 b0 0b 38
        E 48 b0 0b 40
        E 32 b0 0b 48
        E 32 b0 0b 50
        E 32 b0 0b 58
        E 16 b0 0b 20
        E 16 b0 0b 28
        E 32 b0 0b 30
        E 48 b0 0b 38
        E 32 b0 0b 40
        E 32 b0 0b 48
        E 32 b0 0b 50
        E 32 b0 0b 58
        E 16 b0 0b 20
        E 16 b0 0b 28
        E 48 b0 0b 30
        E 32 b0 0b 38
        E 32 b0 0b 40
        E 32 b0 0b 48
        E 32 b0 0b 50
        E 32 b0 0b 58
        E 16 b0 0b 20
        E 32 b0 0b 28
        E 32 b0 0b 30
        E 32 b0 0b 38
        E 16 b0 0b 20
        E 16 b0 0b 28
        E 32 b0 0b 30
        E 32 b0 0b 38
        E 32 b0 0b 20
        E 16 b0 0b 28
        E 32 b0 0b 30
        E 32 b0 0b 38
        E 32 b0 0b 40
        E 32 b0 0b 48
        E 32 b0 0b 50
        E 48 b0 0b 58
        E 16 b0 0b 20
        E 16 b0 0b 28
        E 32 b0 0b 30
        E 32 b0 0b 38
        E 32 b0 0b 40
        E 32 b0 0b 48
        E 48 b0 0b 50
        E 32 b0 0b 58
        E 16 b0 0b 20
        E 16 b0 0b 28
        E 32 b0 0b 30
        E 32 b0 0b 38
        E 32 b0 0b 40
        E 48 b0 0b 48
        E 32 b0 0b 50
        E 32 b0 0b 58
        E 16 b0 0b 20
        E 16 b0 0b 28
        E 32 b0 0b 30
        E 48 b0 0b 38
        E 16 b0 0b 20
        E 16 b0 0b 28
        E 32 b0 0b 30
        E 32 b0 0b 38
        E 32 b0 0b 40
        E 16 b0 0b 20
        E 16 b0 0b 28
        E 48 b0 0b 30
        E 32 b0 0b 38
        E 32 b0 0b 40
        E 32 b0 0b 48
        E 32 b0 0b 50
        E 32 b0 0b 58
        E 16 b0 0b 20
        E 32 b0 0b 28
        E 32 b0 0b 30
        E 32 b0 0b 38
        E 32 b0 0b 40
        E 32 b0 0b 48
        E 32 b0 0b 50
        E 32 b0 0b 20
        E 16 b0 0b 28
        E 32 b0 0b 30
        E 32 b0 0b 38
        E 32 b0 0b 40
        E 32 b0 0b 48
        E 32 b0 0b 50
        E 48 b0 0b 58
        E 16 b0 0b 20
        E 16 b0 0b 28
        E 32 b0 0b 30
        E 32 b0 0b 38
        E 32 b0 0b 40
        E 16 b0 0b 20
        E 16 b0 0b 28
        E 48 b0 0b 30
        E 32 b0 0b 38
        E 16 b0 0b 20
        E 16 b0 0b 28
        E 32 b0 0b 30
        E 32 b0 0b 38
        E 32 b0 0b 40
        E 48 b0 0b 48
        E 32 b0 0b 50
        E 32 b0 0b 58
        E 16 b0 0b 20
        E 16 b0 0b 28
        E 32 b0 0b 30
        E 32 b0 0b 38
        E 48 b0 0b 40
        E 32 b0 0b 48
        E 32 b0 0b 50
        E 32 b0 0b 58
        E 16 b0 0b 20
        E 16 b0 0b 28
        E 32 b0 0b 30
        E 48 b0 0b 38
        E 32 b0 0b 40
        E 32 b0 0b 48
        E 32 b0 0b 50
        E 32 b0 0b 58
        E 16 b0 0b 20
        E 16 b0 0b 28
        E 48 b0 0b 30
        E 32 b0 0b 38
        E 16 b0 0b 20
        E 16 b0 0b 28
        E 32 b0 0b 30
        E 32 b0 0b 38
        E 32 b0 0b 20
        E 16 b0 0b 28
        E 32 b0 0b 30
        E 32 b0 0b 38
        E 32 b0 0b 40
        E 32 b0 0b 48
        E 32 b0 0b 50
        E 48 b0 0b 58
        E 16 b0 0b 20
        E 16 b0 0b 28
        E 32 b0 0b 30
        E 32 b0 0b 38
        E 32 b0 0b 40
        E 32 b0 0b 48
        E 48 b0 0b 50
        E 32 b0 0b 58
        E 16 b0 0b 20
        E 16 b0 0b 28
        E 32 b0 0b 30
        E 32 b0 0b 38
        E 32 b0 0b 40
        E 48 b0 0b 48
        E 32 b0 0b 50
        E 32 b0 0b 58
        E 16 b0 0b 20
        E 16 b0 0b 28
        E 32 b0 0b 30
        E 32 b0 0b 38
        E 32 b0 0b 20
        E 16 b0 0b 28
        E 32 b0 0b 30
        E 32 b0 0b 38
        E 32 b0 0b 40
        E 16 b0 0b 20
        E 16 b0 0b 28
        E 32 b0 0b 30
        E 48 b0 0b 38
        E 32 b0 0b 40
        E 32 b0 0b 48
        E 32 b0 0b 50
        E 32 b0 0b 58
        E 16 b0 0b 20
        E 16 b0 0b 28
        E 48 b0 0b 30
        E 32 b0 0b 38
        E 32 b0 0b 40
        E 32 b0 0b 48
        E 32 b0 0b 50
        E 32 b0 0b 58
        E 16 b0 0b 20
        E 32 b0 0b 28
        E 32 b0 0b 30
        E 32 b0 0b 38
        E 32 b0 0b 40
        E 32 b0 0b 48
        E 32 b0 0b 50
        E 32 b0 0b 20
        E 16 b0 0b 28
        E 32 b0 0b 30
        E 32 b0 0b 38
        E 32 b0 0b 40
        E 16 b0 0b 20
        E 16 b0 0b 28
        E 32 b0 0b 30
        E 48 b0 0b 38
        E 16 b0 0b 20
        E 16 b0 0b 28
        E 32 b0 0b 30
        E 32 b0 0b 38
        E 32 b0 0b 40
        E 48 b0 0b 48
        E 32 b0 0b 50
        E 32 b0 0b 58
        E 16 b0 0b 20
        E 16 b0 0b 28
        E 32 b0 0b 30
        E 32 b0 0b 38
        E 48 b0 0b 40
        E 32 b0 0b 48
        E 32 b0 0b 50
        E 32 b0 0b 58
        E 16 b0 0b 20
        E 16 b0 0b 28
        E 32 b0 0b 30
        E 48 b0 0b 38
        E 32 b0 0b 40
        E 32 b0 0b 48
        E 32 b0 0b 50
        E 32 b0 0b 58
        E 16 b0 0b 20
        E 16 b0 0b 28
        E 48 b0 0b 30
        E 32 b0 0b 38
        E 16 b0 0b 20
        E 16 b0 0b 28
        E 32 b0 0b 30
        E 32 b0 0b 38
        E 32 b0 0b 40
        E 16 b0 0b 20
        E 32 b0 0b 28
        E 32 b0 0b 30
        E 32 b0 0b 38
        E 32 b0 0b 40
        E 32 b0 0b 48
        E 32 b0 0b 50
        E 32 b0 0b 20
        E 16 b0 0b 28
        E 32 b0 0b 30
        E 32 b0 0b 38
        E 32 b0 0b 40
        E 32 b0 0b 48
        E 32 b0 0b 50
        E 48 b0 0b 58
        E 16 b0 0b 20
        E 16 b0 0b 28
        E 32 b0 0b 30
        E 32 b0 0b 38
        E 32 b0 0b 40
        E 32 b0 0b 48
        E 48 b0 0b 50
        E 32 b0 0b 58
        E 16 b0 0b 20
        E 16 b0 0b 28
        E 32 b0 0b 30
        E 32 b0 0b 38
        E 32 b0 0b 40
        E 16 b0 0b 20
        E 32 b0 0b 28
        E 32 b0 0b 30
        E 32 b0 0b 38
        E 16 b0 0b 20
        E 16 b0 0b 28
        E 32 b0 0b 30
        E 32 b0 0b 38
        E 48 b0 0b 40
        E 32 b0 0b 48
        E 32 b0 0b 50
        E 32 b0 0b 58
        E 16 b0 0b 20
        E 16 b0 0b 28
        E 48 b0 0b 30
        E 32 b0 0b 38
        E 32 b0 0b 40
        E 32 b0 0b 48
        E 32 b0 0b 50
        E 32 b0 0b 58
        E 16 b0 0b 20
        E 32 b0 0b 28
        E 32 b0 0b 30
        E 32 b0 0b 38
        E 32 b0 0b 40
        E 32 b0 0b 48
        E 32 b0 0b 50
        E 32 b0 0b 20
        E 16 b0 0b 28
        E 32 b0 0b 30
        E 32 b0 0b 38
        E 32 b0 0b 40
        E 16 b0 0b 20
        E 16 b0 0b 28
        E 32 b0 0b 30
        E 48 b0 0b 38
        E 16 b0 0b 20
        E 16 b0 0b 28
        E 32 b0 0b 30
        E 32 b0 0b 38
        E 32 b0 0b 40
        E 32 b0 0b 48
        E 48 b0 0b 50
        E 32 b0 0b 58
        E 16 b0 0b 20
        E 16 b0 0b 28
        E 32 b0 0b 30
        E 32 b0 0b 38
        E 32 b0 0b 40
        E 48 b0 0b 48
        E 32 b0 0b 50
        E 32 b0 0b 58
        E 16 b0 0b 20
        E 16 b0 0b 28
        E 32 b0 0b 30
        E 32 b0 0b 38
        E 48 b0 0b 40
        E 32 b0 0b 48
        E 32 b0 0b 50
        E 32 b0 0b 58
        E 16 b0 0b 20
        E 16 b0 0b 28
        E 32 b0 0b 30
        E 48 b0 0b 38
        E 16 b0 0b 20
        E 16 b0 0b 28
        E 32 b0 0b 30
        E 32 b0 0b 38
        E 32 b0 0b 40
        E 16 b0 0b 20
        E 16 b0 0b 28
        E 48 b0 0b 30
        E 32 b0 0b 38
        E 32 b0 0b 40
        E 32 b0 0b 48
        E 32 b0 0b 50
        E 32 b0 0b 58
        E 16 b0 0b 20
        E 32 b0 0b 28
        E 32 b0 0b 30
        E 32 b0 0b 38
        E 32 b0 0b 40
        E 32 b0 0b 48
        E 48 b0 0b 50
        E 16 b0 0b 20
        E 16 b0 0b 28
        E 32 b0 0b 30
        E 32 b0 0b 38
        E 32 b0 0b 40
        E 32 b0 0b 48
        E 48 b0 0b 50
        E 32 b0 0b 58
        E 16 b0 0b 20
        E 16 b0 0b 28
        E 32 b0 0b 30
        E 32 b0 0b 38
        E 32 b0 0b 40
        E 16 b0 0b 20
        E 32 b0 0b 28
        E 32 b0 0b 30
        E 32 b0 0b 38
        E 16 b0 0b 20
        E 16 b0 0b 28
        E 32 b0 0b 30
        E 32 b0 0b 38
        E 48 b0 0b 40
        E 32 b0 0b 48
        E 32 b0 0b 50
        E 32 b0 0b 58
        E 16 b0 0b 20
        E 16 b0 0b 28
        E 32 b0 0b 30
        E 48 b0 0b 38
        E 32 b0 0b 40
        E 32 b0 0b 48
        E 32 b0 0b 50
        E 32 b0 0b 58
        E 16 b0 0b 20
        E 16 b0 0b 28
        E 48 b0 0b 30
        E 32 b0 0b 38
        E 32 b0 0b 40
        E 32 b0 0b 48
        E 32 b0 0b 50
        E 32 b0 0b 58
        E 16 b0 0b 20
        E 32 b0 0b 28
        E 32 b0 0b 30
        E 32 b0 0b 38
        E 16 b0 0b 20
        E 16 b0 0b 28
        E 32 b0 0b 30
        E 32 b0 0b 38
        E 32 b0 0b 20
        E 16 b0 0b 28
        E 32 b0 0b 30
        E 32 b0 0b 38
        E 32 b0 0b 40
        E 32 b0 0b 48
        E 32 b0 0b 50
        E 48 b0 0b 58
        E 16 b0 0b 20
        E 16 b0 0b 28
        E 32 b0 0b 30
        E 32 b0 0b 38
        E 32 b0 0b 40
        E 32 b0 0b 48
        E 48 b0 0b 50
        E 32 b0 0b 58
        E 16 b0 0b 20
        E 16 b0 0b 28
        E 32 b0 0b 30
        E 32 b0 0b 38
        E 48 b0 0b 40
        E 32 b0 0b 48
        E 32 b0 0b 50
        E 32 b0 0b 58
        E 16 b0 0b 20
        E 16 b0 0b 28
        E 32 b0 0b 30
        E 48 b0 0b 38
        E 16 b0 0b 20
        E 16 b0 0b 28
        E 32 b0 0b 30
        E 32 b0 0b 38
        E 32 b0 0b 40
        E 16 b0 0b 20
        E 16 b0 0b 28
        E 48 b0 0b 30
        E 32 b0 0b 38
        E 32 b0 0b 40
        E 32 b0 0b 48
        E 32 b0 0b 50
        E 32 b0 0b 58
        E 16 b0 0b 20
        E 32 b0 0b 28
        E 32 b0 0b 30
        E 32 b0 0b 38
        E 32 b0 0b 40
        E 32 b0 0b 48
        E 32 b0 0b 50
        E 32 b0 0b 20
        E 16 b0 0b 28
        E 32 b0 0b 30
        E 32 b0 0b 38
        E 32 b0 0b 40
        E 32 b0 0b 48
        E 32 b0 0b 50
        E 48 b0 0b 58
        E 16 b0 0b 20
        E 16 b0 0b 28
        E 32 b0 0b 30
        E 32 b0 0b 38
        E 32 b0 0b 40
        E 16 b0 0c 10
        E 0 b0 0b 10
        E 0 80 2e 00
        E 0 90 22 10
        E 16 b0 0b 18
        E 48 b0 0b 20
        E 32 b0 0b 28
        E 16 b0 0b 10
        E 0 80 22 00
        E 0 90 3a 10
        E 16 b0 0b 18
        E 32 b0 0b 20
        E 32 b0 0b 28
        E 32 b0 0b 30
        E 16 b0 0b 10
        E 0 80 3a 00
        E 0 90 35 10
        E 32 b0 0b 18
        E 32 b0 0b 20
        E 32 b0 0b 28
        E 16 b0 0b 10
        E 0 80 35 00
        E 0 90 32 10
        E 16 b0 0b 18
        E 32 b0 0b 20
        E 32 b0 0b 28
        E 48 b0 0b 30
        E 32 b0 0b 38
        E 32 b0 0b 40
        E 32 b0 0b 48
        E 32 b0 0b 50
        E 32 b0 0b 58
        E 192 b0 0b 10
        E 0 80 32 00
        E 0 90 22 10
        E 32 b0 0b 18
        E 32 b0 0b 20
        E 32 b0 0b 28
        E 16 b0 0b 10
        E 16 b0 0b 18
        E 32 b0 0b 20
        E 32 b0 0b 28
        E 32 b0 0b 10
        E 0 80 22 00
        E 0 90 2c 10
        E 16 b0 0b 18
        E 32 b0 0b 20
        E 32 b0 0b 28
        E 32 b0 0b 30
        E 16 b0 0b 10
        E 0 80 2c 00
        E 0 90 30 10
        E 16 b0 0b 18
        E 32 b0 0b 20
        E 48 b0 0b 28
        E 16 b0 0b 10
        E 0 80 30 00
        E 0 90 33 10
        E 16 b0 0b 18
        E 32 b0 0b 20
        E 32 b0 0b 28
        E 32 b0 0b 30
        E 32 b0 0b 38
        E 48 b0 0b 40
        E 32 b0 0b 48
        E 32 b0 0b 50
        E 32 b0 0b 58
        E 192 b0 0b 10
        E 0 80 33 00
        E 0 90 22 10
        E 16 b0 0b 18
        E 32 b0 0b 20
        E 32 b0 0b 28
        E 32 b0 0b 10
        E 16 b0 0b 18
        E 32 b0 0b 20
        E 32 b0 0b 28
        E 32 b0 0b 30
        E 16 b0 0b 10
        E 0 80 22 00
        E 0 90 2e 10
        E 16 b0 0b 18
        E 32 b0 0b 20
        E 48 b0 0b 28
        E 16 b0 0b 10
        E 0 80 2e 00
        E 0 90 32 10
        E 16 b0 0b 18
        E 32 b0 0b 20
        E 32 b0 0b 28
        E 32 b0 0b 30
        E 16 b0 0b 10
        E 0 80 32 00
        E 0 90 35 10
        E 16 b0 0b 18
        E 48 b0 0b 20
        E 32 b0 0b 28
        E 32 b0 0b 30
        E 32 b0 0b 38
        E 32 b0 0b 40
        E 32 b0 0b 48
        E 48 b0 0b 50
        E 32 b0 0b 58
        E 160 b0 0b 10
        E 0 80 35 00
        E 0 90 22 10
        E 16 b0 0b 18
        E 32 b0 0b 20
        E 32 b0 0b 28
        E 32 b0 0b 30
        E 16 b0 0b 10
        E 16 b0 0b 18
        E 48 b0 0b 20
        E 32 b0 0b 28
        E 16 b0 0b 10
        E 0 80 22 00
        E 0 90 2c 10
        E 16 b0 0b 18
        E 32 b0 0b 20
        E 32 b0 0b 28
        E 32 b0 0b 30
        E 16 b0 0b 10
        E 0 80 2c 00
        E 0 90 30 10
        E 32 b0 0b 18
        E 32 b0 0b 20
        E 32 b0 0b 28
        E 16 b0 0b 10
        E 0 80 30 00
        E 0 90 33 10
        E 16 b0 0b 18
        E 32 b0 0b 20
        E 32 b0 0b 28
        E 32 b0 0b 10
        E 0 80 33 00
        E 0 90 32 10
        E 16 b0 0b 18
        E 32 b0 0b 20
        E 32 b0 0b 28
        E 32 b0 0b 30
        E 16 b0 0b 10
        E 0 80 32 00
        E 0 90 2e 10
        E 16 b0 0b 18
        E 32 b0 0b 20
        E 48 b0 0b 28
        E 16 b0 0b 10
        E 0 80 2e 00
        E 0 90 29 10
        E 16 b0 0b 18
        E 32 b0 0b 20
        E 32 b0 0b 28
        E 32 b0 0b 30
        E 16 b0 0b 10
        E 0 80 29 00
        E 0 90 22 10
        E 16 b0 0b 18
        E 48 b0 0b 20
        E 32 b0 0b 28
        E 16 b0 0b 10
        E 16 b0 0b 18
        E 32 b0 0b 20
        E 32 b0 0b 28
        E 32 b0 0b 30
        E 16 b0 0b 10
        E 0 80 22 00
        E 0 90 3a 10
        E 32 b0 0b 18
        E 32 b0 0b 20
        E 32 b0 0b 28
        E 16 b0 0b 10
        E 0 80 3a 00
        E 0 90 35 10
        E 16 b0 0b 18
        E 32 b0 0b 20
        E 32 b0 0b 28
        E 32 b0 0b 10
        E 0 80 35 00
        E 0 90 32 10
        E 16 b0 0b 18
        E 32 b0 0b 20
        E 32 b0 0b 28
        E 32 b0 0b 30
        E 32 b0 0b 38
        E 32 b0 0b 40
        E 48 b0 0b 48
        E 32 b0 0b 50
        E 32 b0 0b 58
        E 192 b0 0b 10
        E 0 80 32 00
        E 0 90 22 10
        E 16 b0 0b 18
        E 32 b0 0b 20
        E 32 b0 0b 28
        E 32 b0 0b 30
        E 16 b0 0b 10
        E 32 b0 0b 18
        E 32 b0 0b 20
        E 32 b0 0b 28
        E 16 b0 0b 10
        E 0 80 22 00
        E 0 90 2c 10
        E 16 b0 0b 18
        E 32 b0 0b 20
        E 48 b0 0b 28
        E 16 b0 0b 10
        E 0 80 2c 00
        E 0 90 30 10
        E 16 b0 0b 18
        E 32 b0 0b 20
        E 32 b0 0b 28
        E 32 b0 0b 30
        E 16 b0 0b 10
        E 0 80 30 00
        E 0 90 33 10
        E 16 b0 0b 18
        E 48 b0 0b 20
        E 32 b0 0b 28
        E 32 b0 0b 30
        E 32 b0 0b 38
        E 32 b0 0b 40
        E 32 b0 0b 48
        E 48 b0 0b 50
        E 32 b0 0b 58
        E 160 b0 0b 10
        E 0 80 33 00
        E 0 90 22 10
        E 16 b0 0b 18
        E 32 b0 0b 20
        E 32 b0 0b 28
        E 32 b0 0b 30
        E 16 b0 0b 10
        E 16 b0 0b 18
        E 32 b0 0b 20
        E 48 b0 0b 28
        E 16 b0 0b 10
        E 0 80 22 00
        E 0 90 2e 10
        E 16 b0 0b 18
        E 32 b0 0b 20
        E 32 b0 0b 28
        E 32 b0 0b 30
        E 16 b0 0b 10
        E 0 80 2e 00
        E 0 90 32 10
        E 16 b0 0b 18
        E 48 b0 0b 20
        E 32 b0 0b 28
        E 16 b0 0b 10
        E 0 80 32 00
        E 0 90 35 10
        E 16 b0 0b 18
        E 32 b0 0b 20
        E 32 b0 0b 28
        E 32 b0 0b 30
        E 48 b0 0b 38
        E 32 b0 0b 40
        E 32 b0 0b 48
        E 32 b0 0b 50
        E 32 b0 0b 58
        E 192 b0 0b 10
        E 0 80 35 00
        E 0 90 22 10
        E 16 b0 0b 18
        E 32 b0 0b 20
        E 48 b0 0b 28
        E 16 b0 0b 10
        E 16 b0 0b 18
        E 32 b0 0b 20
        E 32 b0 0b 28
        E 32 b0 0b 30
        E 16 b0 0b 10
        E 0 80 22 00
        E 0 90 2c 10
        E 16 b0 0b 18
        E 48 b0 0b 20
        E 32 b0 0b 28
        E 16 b0 0b 10
        E 0 80 2c 00
        E 0 90 30 10
        E 16 b0 0b 18
        E 32 b0 0b 20
        E 32 b0 0b 28
        E 32 b0 0b 10
        E 0 80 30 00
        E 0 90 33 10
        E 16 b0 0b 18
        E 32 b0 0b 20
        E 32 b0 0b 28
        E 32 b0 0b 30
        E 16 b0 0b 10
        E 0 80 33 00
        E 0 90 32 10
        E 16 b0 0b 18
        E 32 b0 0b 20
        E 48 b0 0b 28
        E 16 b0 0b 10
        E 0 80 32 00
        E 0 90 2e 10
        E 16 b0 0b 18
        E 32 b0 0b 20
        E 32 b0 0b 28
        E 32 b0 0b 30
        E 16 b0 0b 10
        E 0 80 2e 00
        E 0 90 29 10
        E 16 b0 0b 18
        E 48 b0 0b 20
        E 32 b0 0b 28
        E 16 b0 0b 10
        E 0 80 29 00
        E 0 90 22 10
        E 16 b0 0b 18
        E 32 b0 0b 20
        E 32 b0 0b 28
        E 32 b0 0b 30
        E 16 b0 0c 20
        E 0 b0 0b 20
        E 0 80 22 00
        E 0 90 2e 20
        E 32 b0 0b 28
        E 32 b0 0b 30
        E 32 b0 0b 38
        E 16 b0 0b 20
        E 16 b0 0b 28
        E 32 b0 0b 30
        E 32 b0 0b 38
        E 48 b0 0b 40
        E 32 b0 0b 48
        E 32 b0 0b 50
        E 32 b0 0b 58
        E 16 b0 0b 20
        E 16 b0 0b 28
        E 32 b0 0b 30
        E 48 b0 0b 38
        E 32 b0 0b 40
        E 32 b0 0b 48
        E 32 b0 0b 50
        E 32 b0 0b 58
        E 16 b0 0b 20
        E 16 b0 0b 28
        E 48 b0 0b 30
        E 32 b0 0b 38
        E 32 b0 0b 40
        E 32 b0 0b 48
        E 32 b0 0b 50
        E 32 b0 0b 58
        E 16 b0 0b 20
        E 32 b0 0b 28
        E 32 b0 0b 30
        E 32 b0 0b 38
        E 16 b0 0b 20
        E 16 b0 0b 28
        E 32 b0 0b 30
        E 32 b0 0b 38
        E 32 b0 0b 20
        E 16 b0 0b 28
        E 32 b0 0b 30
        E 32 b0 0b 38
        E 32 b0 0b 40
        E 32 b0 0b 48
        E 32 b0 0b 50
        E 48 b0 0b 58
        E 16 b0 0b 20
        E 16 b0 0b 28
        E 32 b0 0b 30
        E 32 b0 0b 38
        E 32 b0 0b 40
        E 48 b0 0b 48
        E 32 b0 0b 50
        E 32 b0 0b 58
        E 16 b0 0b 20
        E 16 b0 0b 28
        E 32 b0 0b 30
        E 32 b0 0b 38
        E 48 b0 0b 40
        E 32 b0 0b 48
        E 32 b0 0b 50
        E 32 b0 0b 58
        E 16 b0 0b 20
        E 16 b0 0b 28
        E 32 b0 0b 30
        E 48 b0 0b 38
        E 16 b0 0b 20
        E 16 b0 0b 28
        E 32 b0 0b 30
        E 32 b0 0b 38
        E 32 b0 0b 40
        E 16 b0 0b 20
        E 16 b0 0b 28
        E 48 b0 0b 30
        E 32 b0 0b 38
        E 32 b0 0b 40
        E 32 b0 0b 48
        E 32 b0 0b 50
        E 32 b0 0b 58
        E 16 b0 0b 20
        E 32 b0 0b 28
        E 32 b0 0b 30
        E 32 b0 0b 38
        E 32 b0 0b 40
        E 32 b0 0b 48
        E 32 b0 0b 50
        E 32 b0 0b 20
        E 16 b0 0b 28
        E 32 b0 0b 30
        E 32 b0 0b 38
        E 32 b0 0b 40
        E 32 b0 0b 48
        E 32 b0 0b 50
        E 48 b0 0b 58
        E 16 b0 0b 20
        E 16 b0 0b 28
        E 32 b0 0b 30
        E 32 b0 0b 38
        E 32 b0 0b 40
        E 16 b0 0b 20
        E 16 b0 0b 28
        E 48 b0 0b 30
        E 32 b0 0b 38
        E 16 b0 0b 20
        E 16 b0 0b 28
        E 32 b0 0b 30
        E 32 b0 0b 38
        E 32 b0 0b 40
        E 48 b0 0b 48
        E 32 b0 0b 50
        E 32 b0 0b 58
        E 16 b0 0b 20
        E 16 b0 0b 28
        E 32 b0 0b 30
        E 32 b0 0b 38
        E 48 b0 0b 40
        E 32 b0 0b 48
        E 32 b0 0b 50
        E 32 b0 0b 58
        E 16 b0 0b 20
        E 16 b0 0b 28
        E 48 b0 0b 30
        E 32 b0 0b 38
        E 32 b0 0b 40
        E 32 b0 0b 48
        E 32 b0 0b 50
        E 32 b0 0b 58
        E 16 b0 0b 20
        E 32 b0 0b 28
        E 32 b0 0b 30
        E 32 b0 0b 38
        E 16 b0 0b 20
        E 16 b0 0b 28
        E 32 b0 0b 30
        E 32 b0 0b 38
        E 32 b0 0b 20
        E 16 b0 0b 28
        E 32 b0 0b 30
        E 32 b0 0b 38
        E 32 b0 0b 40
        E 32 b0 0b 48
        E 32 b0 0b 50
        E 48 b0 0b 58
        E 16 b0 0b 20
        E 16 b0 0b 28
        E 32 b0 0b 30
        E 32 b0 0b 38
        E 32 b0 0b 40
        E 32 b0 0b 48
        E 48 b0 0b 50
        E 32 b0 0b 58
        E 16 b0 0b 20
        E 16 b0 0b 28
        E 32 b0 0b 30
        E 32 b0 0b 38
        E 32 b0 0b 40
        E 48 b0 0b 48
        E 32 b0 0b 50
        E 32 b0 0b 58
        E 16 b0 0b 20
        E 16 b0 0b 28
        E 32 b0 0b 30
        E 32 b0 0b 38
        E 32 b0 0b 20
        E 16 b0 0b 28
        E 32 b0 0b 30
        E 32 b0 0b 38
        E 32 b0 0b 40
        E 16 b0 0b 20
        E 16 b0 0b 28
        E 32 b0 0b 30
        E 48 b0 0b 38
        E 32 b0 0b 40
        E 32 b0 0b 48
        E 32 b0 0b 50
        E 32 b0 0b 58
        E 16 b0 0b 20
        E 16 b0 0b 28
        E 48 b0 0b 30
        E 32 b0 0b 38
        E 32 b0 0b 40
        E 32 b0 0b 48
        E 32 b0 0b 50
        E 32 b0 0b 58
        E 16 b0 0b 20
        E 32 b0 0b 28
        E 32 b0 0b 30
        E 32 b0 0b 38
        E 32 b0 0b 40
        E 32 b0 0b 48
        E 48 b0 0b 50
        E 16 b0 0b 20
        E 16 b0 0b 28
        E 32 b0 0b 30
        E 32 b0 0b 38
        E 32 b0 0b 40
        E 16 b0 0b 20
        E 16 b0 0b 28
        E 48 b0 0b 30
        E 32 b0 0b 38
        E 16 b0 0b 20
        E 16 b0 0b 28
        E 32 b0 0b 30
        E 32 b0 0b 38
        E 32 b0 0b 40
        E 48 b0 0b 48
        E 32 b0 0b 50
        E 32 b0 0b 58
        E 16 b0 0b 20
        E 16 b0 0b 28
        E 32 b0 0b 30
        E 32 b0 0b 38
        E 48 b0 0b 40
        E 32 b0 0b 48
        E 32 b0 0b 50
        E 32 b0 0b 58
        E 16 b0 0b 20
        E 16 b0 0b 28
        E 32 b0 0b 30
        E 48 b0 0b 38
        E 32 b0 0b 40
        E 32 b0 0b 48
        E 32 b0 0b 50
        E 32 b0 0b 58
        E 16 b0 0b 20
        E 16 b0 0b 28
        E 48 b0 0b 30
        E 32 b0 0b 38
        E 16 b0 0b 20
        E 16 b0 0b 28
        E 32 b0 0b 30
        E 32 b0 0b 38
        E 32 b0 0b 40
        E 16 b0 0b 20
        E 32 b0 0b 28
        E 32 b0 0b 30
        E 32 b0 0b 38
        E 32 b0 0b 40
        E 32 b0 0b 48
        E 32 b0 0b 50
        E 32 b0 0b 20
        E 16 b0 0b 28
        E 32 b0 0b 30
        E 32 b0 0b 38
        E 32 b0 0b 40
        E 32 b0 0b 48
        E 32 b0 0b 50
        E 48 b0 0b 58
        E 16 b0 0b 20
        E 16 b0 0b 28
        E 32 b0 0b 30
        E 32 b0 0b 38
        E 32 b0 0b 40
        E 32 b0 0b 48
        E 48 b0 0b 50
        E 32 b0 0b 58
        E 16 b0 0b 20
        E 16 b0 0b 28
        E 32 b0 0b 30
        E 32 b0 0b 38
        E 32 b0 0b 20
        E 16 b0 0b 28
        E 32 b0 0b 30
        E 32 b0 0b 38
        E 32 b0 0b 40
        E 16 b0 0b 20
        E 16 b0 0b 28
        E 32 b0 0b 30
        E 48 b0 0b 38
        E 32 b0 0b 40
        E 32 b0 0b 48
        E 32 b0 0b 50
        E 32 b0 0b 58
        E 16 b0 0b 20
        E 16 b0 0b 28
        E 48 b0 0b 30
        E 32 b0 0b 38
        E 32 b0 0b 40
        E 32 b0 0b 48
        E 32 b0 0b 50
        E 32 b0 0b 58
        E 16 b0 0b 20
        E 32 b0 0b 28
        E 32 b0 0b 30
        E 32 b0 0b 38
        E 32 b0 0b 40
        E 32 b0 0b 48
        E 32 b0 0b 50
        E 32 b0 0b 20
        E 16 b0 0b 28
        E 32 b0 0b 30
        E 32 b0 0b 38
        E 32 b0 0b 40
        E 16 b0 0b 20
        E 16 b0 0b 28
        E 32 b0 0b 30
        E 48 b0 0b 38
        E 16 b0 0b 20
        E 16 b0 0b 28
        E 32 b0 0b 30
        E 32 b0 0b 38
        E 32 b0 0b 40
        E 32 b0 0b 48
        E 48 b0 0b 50
        E 32 b0 0b 58
        E 16 b0 0b 20
        E 16 b0 0b 28
        E 32 b0 0b 30
        E 32 b0 0b 38
        E 32 b0 0b 40
        E 48 b0 0b 48
        E 32 b0 0b 50
        E 32 b0 0b 58
        E 16 b0 0b 20
        E 16 b0 0b 28
        E 32 b0 0b 30
        E 32 b0 0b 38
        E 48 b0 0b 40
        E 32 b0 0b 48
        E 32 b0 0b 50
        E 32 b0 0b 58
        E 16 b0 0b 20
        E 16 b0 0b 28
        E 32 b0 0b 30
        E 48 b0 0b 38
        E 16 b0 0b 20
        E 16 b0 0b 28
        E 32 b0 0b 30
        E 32 b0 0b 38
        E 32 b0 0b 40
        E 16 b0 0b 20
        E 32 b0 0b 28
        E 32 b0 0b 30
        E 32 b0 0b 38
        E 32 b0 0b 40
        E 32 b0 0b 48
        E 32 b0 0b 50
        E 32 b0 0b 20
        E 16 b0 0b 28
        E 32 b0 0b 30
        E 32 b0 0b 38
        E 32 b0 0b 40
        E 32 b0 0b 48
        E 32 b0 0b 50
        E 48 b0 0b 58
        E 16 b0 0b 20
        E 16 b0 0b 28
        E 32 b0 0b 30
        E 32 b0 0b 38
        E 32 b0 0b 40
        E 32 b0 0b 48
        E 48 b0 0b 50
        E 32 b0 0b 58
        E 16 b0 0b 20
        E 16 b0 0b 28
        E 32 b0 0b 30
        E 32 b0 0b 38
        E 32 b0 0b 40
        E 16 b0 0b 20
        E 32 b0 0b 28
        E 32 b0 0b 30
        E 32 b0 0b 38
        E 16 b0 0b 20
        E 16 b0 0b 28
        E 32 b0 0b 30
        E 32 b0 0b 38
        E 48 b0 0b 40
        E 32 b0 0b 48
        E 32 b0 0b 50
        E 32 b0 0b 58
        E 16 b0 0b 20
        E 16 b0 0b 28
        E 32 b0 0b 30
        E 48 b0 0b 38
        E 32 b0 0b 40
        E 32 b0 0b 48
        E 32 b0 0b 50
        E 32 b0 0b 58
        E 16 b0 0b 20
        E 16 b0 0b 28
        E 48 b0 0b 30
        E 32 b0 0b 38
        E 32 b0 0b 40
        E 32 b0 0b 48
        E 32 b0 0b 50
        E 32 b0 0b 58
        E 16 b0 0b 20
        E 32 b0 0b 28
        E 32 b0 0b 30
        E 32 b0 0b 38
        E 16 b0 0b 20
        E 16 b0 0b 28
        E 32 b0 0b 30
        E 32 b0 0b 38
        E 32 b0 0b 20
        E 16 b0 0b 28
        E 32 b0 0b 30
        E 32 b0 0b 38
        E 32 b0 0b 40
        E 32 b0 0b 48
        E 48 b0 0b 50
        E 32 b0 0b 58
        E 16 b0 0b 20
        E 16 b0 0b 28
        E 32 b0 0b 30
        E 32 b0 0b 38
        E 32 b0 0b 40
        E 48 b0 0b 48
        E 32 b0 0b 50
        E 32 b0 0b 58
        E 16 b0 0b 20
        E 16 b0 0b 28
        E 32 b0 0b 30
        E 32 b0 0b 38
        E 48 b0 0b 40
        E 32 b0 0b 48
        E 32 b0 0b 50
        E 32 b0 0b 58
        E 16 b0 0b 20
        E 16 b0 0b 28
        E 32 b0 0b 30
        E 48 b0 0b 38
        E 16 b0 0b 20
        E 16 b0 0b 28
        E 32 b0 0b 30
        E 32 b0 0b 38
        E 32 b0 0b 40
        E 16 b0 0b 20
        E 16 b0 0b 28
        E 48 b0 0b 30
        E 32 b0 0b 38
        E 32 b0 0b 40
        E 32 b0 0b 48
        E 32 b0 0b 50
        E 32 b0 0b 58
        E 16 b0 0b 20
        E 32 b0 0b 28
        E 32 b0 0b 30
        E 32 b0 0b 38
        E 32 b0 0b 40
        E 32 b0 0b 48
        E 32 b0 0b 50
        E 32 b0 0b 20
        E 16 b0 0b 28
        E 32 b0 0b 30
        E 32 b0 0b 38
        E 32 b0 0b 40
        E 32 b0 0b 48
        E 32 b0 0b 50
        E 48 b0 0b 58
        E 16 b0 0b 20
        E 16 b0 0b 28
        E 32 b0 0b 30
        E 32 b0 0b 38
        E 32 b0 0b 40
        E 16 b0 0b 20
        E 16 b0 0b 28
        E 48 b0 0b 30
        E 32 b0 0b 38
        E 16 b0 0b 20
        E 16 b0 0b 28
        E 32 b0 0b 30
        E 32 b0 0b 38
        E 32 b0 0b 40
        E 48 b0 0b 48
        E 32 b0 0b 50
        E 32 b0 0b 58
        E 16 b0 0b 20
        E 16 b0 0b 28
        E 32 b0 0b 30
        E 48 b0 0b 38
        E 32 b0 0b 40
        E 32 b0 0b 48
        E 32 b0 0b 50
        E 32 b0 0b 58
        E 16 b0 0b 20
        E 16 b0 0b 28
        E 48 b0 0b 30
        E 32 b0 0b 38
        E 32 b0 0b 40
        E 32 b0 0b 48
        E 32 b0 0b 50
        E 32 b0 0b 58
        E 16 b0 0b 20
        E 32 b0 0b 28
        E 32 b0 0b 30
        E 32 b0 0b 38
        E 16 b0 0b 20
        E 16 b0 0b 28
        E 32 b0 0b 30
        E 32 b0 0b 38
        E 32 b0 0b 20
        E 16 b0 0b 28
        E 32 b0 0b 30
        E 32 b0 0b 38
        E 32 b0 0b 40
        E 32 b0 0b 48
        E 32 b0 0b 50
        E 48 b0 0b 58
        E 16 b0 0b 20
        E 16 b0 0b 28
        E 32 b0 0b 30
        E 32 b0 0b 38
        E 32 b0 0b 40
        E 32 b0 0b 48
        E 48 b0 0b 50
        E 32 b0 0b 58
        E 16 b0 0b 20
        E 16 b0 0b 28
        E 32 b0 0b 30
        E 32 b0 0b 38
        E 32 b0 0b 40
        E 48 b0 0b 48
        E 32 b0 0b 50
        E 32 b0 0b 58
        E 16 b0 0b 20
        E 16 b0 0b 28
        E 32 b0 0b 30
        E 32 b0 0b 38
        E 32 b0 0c 10
        E 0 b0 0b 10
        E 0 80 2e 00
        E 0 90 22 10
        E 16 b0 0b 18
        E 32 b0 0b 20
        E 32 b0 0b 28
        E 32 b0 0b 30
        E 16 b0 0b 10
        E 0 80 22 00
        E 0 90 3a 10
        E 16 b0 0b 18
        E 32 b0 0b 20
        E 48 b0 0b 28
        E 16 b0 0b 10
        E 0 80 3a 00
        E 0 90 35 10
        E 16 b0 0b 18
        E 32 b0 0b 20
        E 32 b0 0b 28
        E 32 b0 0b 30
        E 16 b0 0b 10
        E 0 80 35 00
        E 0 90 32 10
        E 16 b0 0b 18
        E 48 b0 0b 20
        E 32 b0 0b 28
        E 32 b0 0b 30
        E 32 b0 0b 38
        E 32 b0 0b 40
        E 48 b0 0b 48
        E 32 b0 0b 50
        E 32 b0 0b 58
        E 160 b0 0b 10
        E 0 80 32 00
        E 0 90 22 10
        E 16 b0 0b 18
        E 32 b0 0b 20
        E 32 b0 0b 28
        E 32 b0 0b 30
        E 16 b0 0b 10
        E 16 b0 0b 18
        E 48 b0 0b 20
        E 32 b0 0b 28
        E 16 b0 0b 10
        E 0 80 22 00
        E 0 90 2c 10
        E 16 b0 0b 18
        E 32 b0 0b 20
        E 32 b0 0b 28
        E 32 b0 0b 30
        E 16 b0 0b 10
        E 0 80 2c 00
        E 0 90 30 10
        E 32 b0 0b 18
        E 32 b0 0b 20
        E 32 b0 0b 28
        E 16 b0 0b 10
        E 0 80 30 00
        E 0 90 33 10
        E 16 b0 0b 18
        E 32 b0 0b 20
        E 32 b0 0b 28
        E 48 b0 0b 30
        E 32 b0 0b 38
        E 32 b0 0b 40
        E 32 b0 0b 48
        E 32 b0 0b 50
        E 32 b0 0b 58
        E 192 b0 0b 10
        E 0 80 33 00
        E 0 90 22 10
        E 16 b0 0b 18
        E 48 b0 0b 20
        E 32 b0 0b 28
        E 16 b0 0b 10
        E 16 b0 0b 18
        E 32 b0 0b 20
        E 32 b0 0b 28
        E 32 b0 0b 30
        E 16 b0 0b 10
        E 0 80 22 00
        E 0 90 2e 10
        E 32 b0 0b 18
        E 32 b0 0b 20
        E 32 b0 0b 28
        E 16 b0 0b 10
        E 0 80 2e 00
        E 0 90 32 10
        E 16 b0 0b 18
        E 32 b0 0b 20
        E 32 b0 0b 28
        E 32 b0 0b 10
        E 0 80 32 00
        E 0 90 35 10
        E 16 b0 0b 18
        E 32 b0 0b 20
        E 32 b0 0b 28
        E 32 b0 0b 30
        E 32 b0 0b 38
        E 32 b0 0b 40
        E 48 b0 0b 48
        E 32 b0 0b 50
        E 32 b0 0b 58
        E 192 b0 0b 10
        E 0 80 35 00
        E 0 90 22 10
        E 16 b0 0b 18
        E 32 b0 0b 20
        E 32 b0 0b 28
        E 32 b0 0b 10
        E 16 b0 0b 18
        E 32 b0 0b 20
        E 32 b0 0b 28
        E 32 b0 0b 30
        E 16 b0 0b 10
        E 0 80 22 00
        E 0 90 2c 10
        E 16 b0 0b 18
        E 32 b0 0b 20
        E 48 b0 0b 28
        E 16 b0 0b 10
        E 0 80 2c 00
        E 0 90 30 10
        E 16 b0 0b 18
        E 32 b0 0b 20
        E 32 b0 0b 28
        E 32 b0 0b 30
        E 16 b0 0b 10
        E 0 80 30 00
        E 0 90 33 10
        E 16 b0 0b 18
        E 48 b0 0b 20
        E 32 b0 0b 28
        E 16 b0 0b 10
        E 0 80 33 00
        E 0 90 32 10
        E 16 b0 0b 18
        E 32 b0 0b 20
        E 32 b0 0b 28
        E 32 b0 0b 30
        E 16 b0 0b 10
        E 0 80 32 00
        E 0 90 2e 10
        E 32 b0 0b 18
        E 32 b0 0b 20
        E 32 b0 0b 28
        E 16 b0 0b 10
        E 0 80 2e 00
        E 0 90 29 10
        E 16 b0 0b 18
        E 32 b0 0b 20
        E 32 b0 0b 28
        E 32 b0 0b 10
        E 0 80 29 00
        E 0 90 22 10
        E 16 b0 0b 18
        E 32 b0 0b 20
        E 32 b0 0b 28
        E 32 b0 0b 30
        E 16 b0 0b 10
        E 16 b0 0b 18
        E 32 b0 0b 20
        E 48 b0 0b 28
        E 16 b0 0b 10
        E 0 80 22 00
        E 0 90 3a 10
        E 16 b0 0b 18
        E 32 b0 0b 20
        E 32 b0 0b 28
        E 32 b0 0b 30
        E 16 b0 0b 10
        E 0 80 3a 00
        E 0 90 35 10
        E 16 b0 0b 18
        E 48 b0 0b 20
        E 32 b0 0b 28
        E 16 b0 0b 10
        E 0 80 35 00
        E 0 90 32 10
        E 16 b0 0b 18
        E 32 b0 0b 20
        E 32 b0 0b 28
        E 32 b0 0b 30
        E 48 b0 0b 38
        E 32 b0 0b 40
        E 32 b0 0b 48
        E 32 b0 0b 50
        E 32 b0 0b 58
        E 192 b0 0b 10
        E 0 80 32 00
        E 0 90 22 10
        E 16 b0 0b 18
        E 48 b0 0b 20
        E 32 b0 0b 28
        E 16 b0 0b 10
        E 16 b0 0b 18
        E 32 b0 0b 20
        E 32 b0 0b 28
        E 32 b0 0b 30
        E 16 b0 0b 10
        E 0 80 22 00
        E 0 90 2c 10
        E 32 b0 0b 18
        E 32 b0 0b 20
        E 32 b0 0b 28
        E 16 b0 0b 10
        E 0 80 2c 00
        E 0 90 30 10
        E 16 b0 0b 18
        E 32 b0 0b 20
        E 32 b0 0b 28
        E 32 b0 0b 10
        E 0 80 30 00
        E 0 90 33 10
        E 16 b0 0b 18
        E 32 b0 0b 20
        E 32 b0 0b 28
        E 32 b0 0b 30
        E 32 b0 0b 38
        E 32 b0 0b 40
        E 48 b0 0b 48
        E 32 b0 0b 50
        E 32 b0 0b 58
        E 192 b0 0b 10
        E 0 80 33 00
        E 0 90 22 10
        E 16 b0 0b 18
        E 32 b0 0b 20
        E 32 b0 0b 28
        E 32 b0 0b 30
        E 16 b0 0b 10
        E 32 b0 0b 18
        E 32 b0 0b 20
        E 32 b0 0b 28
        E 16 b0 0b 10
        E 0 80 22 00
        E 0 90 2e 10
        E 16 b0 0b 18
        E 32 b0 0b 20
        E 32 b0 0b 28
        E 32 b0 0b 10
        E 0 80 2e 00
        E 0 90 32 10
        E 16 b0 0b 18
        E 32 b0 0b 20
        E 32 b0 0b 28
        E 32 b0 0b 30
        E 16 b0 0b 10
        E 0 80 32 00
        E 0 90 35 10
        E 16 b0 0b 18
        E 32 b0 0b 20
        E 48 b0 0b 28
        E 32 b0 0b 30
        E 32 b0 0b 38
        E 32 b0 0b 40
        E 32 b0 0b 48
        E 32 b0 0b 50
        E 48 b0 0b 58
        E 176 b0 0b 10
        E 0 80 35 00
        E 0 90 22 10
        E 32 b0 0b 18
        E 32 b0 0b 20
        E 32 b0 0b 28
        E 16 b0 0b 10
        E 16 b0 0b 18
        E 32 b0 0b 20
        E 48 b0 0b 28
        E 16 b0 0b 10
        E 0 80 22 00
        E 0 90 2c 10
        E 16 b0 0b 18
        E 32 b0 0b 20
        E 32 b0 0b 28
        E 32 b0 0b 30
        E 16 b0 0b 10
        E 0 80 2c 00
        E 0 90 30 10
        E 16 b0 0b 18
        E 48 b0 0b 20
        E 32 b0 0b 28
        E 16 b0 0b 10
        E 0 80 30 00
        E 0 90 33 10
        E 16 b0 0b 18
        E 32 b0 0b 20
        E 32 b0 0b 28
        E 32 b0 0b 30
        E 16 b0 0b 10
        E 0 80 33 00
        E 0 90 32 10
        E 32 b0 0b 18
        E 32 b0 0b 20
        E 32 b0 0b 28
        E 16 b0 0b 10
        E 0 80 32 00
        E 0 90 2e 10
        E 16 b0 0b 18
        E 32 b0 0b 20
        E 32 b0 0b 28
        E 32 b0 0b 10
        E 0 80 2e 00
        E 0 90 29 10
        E 16 b0 0b 18
        E 32 b0 0b 20
        E 32 b0 0b 28
        E 32 b0 0b 30
        E 16 b0 0b 10
        E 0 80 29 00
        E 0 90 22 10
        E 16 b0 0b 18
        E 32 b0 0b 20
        E 48 b0 0b 28
        E 16 b0 0c 20
        E 0 b0 0b 20
        E 0 80 22 00
        E 0 90 2e 20
        E 16 b0 0b 28
        E 32 b0 0b 30
        E 32 b0 0b 38
        E 32 b0 0b 40
        E 16 b0 0b 20
        E 16 b0 0b 28
        E 48 b0 0b 30
        E 32 b0 0b 38
        E 32 b0 0b 40
        E 32 b0 0b 48
        E 32 b0 0b 50
        E 32 b0 0b 58
        E 16 b0 0b 20
        E 32 b0 0b 28
        E 32 b0 0b 30
        E 32 b0 0b 38
        E 32 b0 0b 40
        E 32 b0 0b 48
        E 32 b0 0b 50
        E 32 b0 0b 20
        E 16 b0 0b 28
        E 32 b0 0b 30
        E 32 b0 0b 38
        E 32 b0 0b 40
        E 32 b0 0b 48
        E 32 b0 0b 50
        E 48 b0 0b 58
        E 16 b0 0b 20
        E 16 b0 0b 28
        E 32 b0 0b 30
        E 32 b0 0b 38
        E 32 b0 0b 40
        E 16 b0 0b 20
        E 16 b0 0b 28
        E 48 b0 0b 30
        E 32 b0 0b 38
        E 16 b0 0b 20
        E 16 b0 0b 28
        E 32 b0 0b 30
        E 32 b0 0b 38
        E 48 b0 0b 40
        E 32 b0 0b 48
        E 32 b0 0b 50
        E 32 b0 0b 58
        E 16 b0 0b 20
        E 16 b0 0b 28
        E 32 b0 0b 30
        E 48 b0 0b 38
        E 32 b0 0b 40
        E 32 b0 0b 48
        E 32 b0 0b 50
        E 32 b0 0b 58
        E 16 b0 0b 20
        E 16 b0 0b 28
        E 48 b0 0b 30
        E 32 b0 0b 38
        E 32 b0 0b 40
        E 32 b0 0b 48
        E 32 b0 0b 50
        E 32 b0 0b 58
        E 16 b0 0b 20
        E 32 b0 0b 28
        E 32 b0 0b 30
        E 32 b0 0b 38
        E 16 b0 0b 20
        E 16 b0 0b 28
        E 32 b0 0b 30
        E 32 b0 0b 38
        E 32 b0 0b 20
        E 16 b0 0b 28
        E 32 b0 0b 30
        E 32 b0 0b 38
        E 32 b0 0b 40
        E 32 b0 0b 48
        E 32 b0 0b 50
        E 48 b0 0b 58
        E 16 b0 0b 20
        E 16 b0 0b 28
        E 32 b0 0b 30
        E 32 b0 0b 38
        E 32 b0 0b 40
        E 32 b0 0b 48
        E 48 b0 0b 50
        E 32 b0 0b 58
        E 16 b0 0b 20
        E 16 b0 0b 28
        E 32 b0 0b 30
        E 32 b0 0b 38
        E 32 b0 0b 40
        E 48 b0 0b 48
        E 32 b0 0b 50
        E 32 b0 0b 58
        E 16 b0 0b 20
        E 16 b0 0b 28
        E 32 b0 0b 30
        E 32 b0 0b 38
        E 32 b0 0b 20
        E 16 b0 0b 28
        E 32 b0 0b 30
        E 32 b0 0b 38
        E 32 b0 0b 40
        E 16 b0 0b 20
        E 16 b0 0b 28
        E 32 b0 0b 30
        E 48 b0 0b 38
        E 32 b0 0b 40
        E 32 b0 0b 48
        E 32 b0 0b 50
        E 32 b0 0b 58
        E 16 b0 0b 20
        E 32 b0 0b 28
        E 32 b0 0b 30
        E 32 b0 0b 38
        E 32 b0 0b 40
        E 32 b0 0b 48
        E 32 b0 0b 50
        E 32 b0 0b 20
        E 16 b0 0b 28
        E 32 b0 0b 30
        E 32 b0 0b 38
        E 32 b0 0b 40
        E 32 b0 0b 48
        E 32 b0 0b 50
        E 48 b0 0b 58
        E 16 b0 0b 20
        E 16 b0 0b 28
        E 32 b0 0b 30
        E 32 b0 0b 38
        E 32 b0 0b 40
        E 16 b0 0b 20
        E 16 b0 0b 28
        E 48 b0 0b 30
        E 32 b0 0b 38
        E 16 b0 0b 20
        E 16 b0 0b 28
        E 32 b0 0b 30
        E 32 b0 0b 38
        E 32 b0 0b 40
        E 48 b0 0b 48
        E 32 b0 0b 50
        E 32 b0 0b 58
        E 16 b0 0b 20
        E 16 b0 0b 28
        E 32 b0 0b 30
        E 32 b0 0b 38
        E 48 b0 0b 40
        E 32 b0 0b 48
        E 32 b0 0b 50
        E 32 b0 0b 58
        E 16 b0 0b 20
        E 16 b0 0b 28
        E 32 b0 0b 30
        E 48 b0 0b 38
        E 32 b0 0b 40
        E 32 b0 0b 48
        E 32 b0 0b 50
        E 32 b0 0b 58
        E 16 b0 0b 20
        E 16 b0 0b 28
        E 48 b0 0b 30
        E 32 b0 0b 38
        E 16 b0 0b 20
        E 16 b0 0b 28
        E 32 b0 0b 30
        E 32 b0 0b 38
        E 32 b0 0b 40
        E 16 b0 0b 20
        E 32 b0 0b 28
        E 32 b0 0b 30
        E 32 b0 0b 38
        E 32 b0 0b 40
        E 32 b0 0b 48
        E 32 b0 0b 50
        E 32 b0 0b 20
        E 16 b0 0b 28
        E 32 b0 0b 30
        E 32 b0 0b 38
        E 32 b0 0b 40
        E 32 b0 0b 48
        E 48 b0 0b 50
        E 32 b0 0b 58
        E 16 b0 0b 20
        E 16 b0 0b 28
        E 32 b0 0b 30
        E 32 b0 0b 38
        E 32 b0 0b 40
        E 48 b0 0b 48
        E 32 b0 0b 50
        E 32 b0 0b 58
        E 16 b0 0b 20
        E 16 b0 0b 28
        E 32 b0 0b 30
        E 32 b0 0b 38
        E 32 b0 0b 20
        E 16 b0 0b 28
        E 32 b0 0b 30
        E 32 b0 0b 38
        E 32 b0 0b 40
        E 16 b0 0b 20
        E 16 b0 0b 28
        E 32 b0 0b 30
        E 48 b0 0b 38
        E 32 b0 0b 40
        E 32 b0 0b 48
        E 32 b0 0b 50
        E 32 b0 0b 58
        E 16 b0 0b 20
        E 16 b0 0b 28
        E 48 b0 0b 30
        E 32 b0 0b 38
        E 32 b0 0b 40
        E 32 b0 0b 48
        E 32 b0 0b 50
        E 32 b0 0b 58
        E 16 b0 0b 20
        E 32 b0 0b 28
        E 32 b0 0b 30
        E 32 b0 0b 38
        E 32 b0 0b 40
        E 32 b0 0b 48
        E 32 b0 0b 50
        E 32 b0 0b 20
        E 16 b0 0b 28
        E 32 b0 0b 30
        E 32 b0 0b 38
        E 32 b0 0b 40
        E 16 b0 0b 20
        E 16 b0 0b 28
        E 32 b0 0b 30
        E 48 b0 0b 38
        E 16 b0 0b 20
        E 16 b0 0b 28
        E 32 b0 0b 30
        E 32 b0 0b 38
        E 32 b0 0b 40
        E 32 b0 0b 48
        E 48 b0 0b 50
        E 32 b0 0b 58
        E 16 b0 0b 20
        E 16 b0 0b 28
        E 32 b0 0b 30
        E 32 b0 0b 38
        E 32 b0 0b 40
        E 48 b0 0b 48
        E 32 b0 0b 50
        E 32 b0 0b 58
        E 16 b0 0b 20
        E 16 b0 0b 28
        E 32 b0 0b 30
        E 48 b0 0b 38
        E 32 b0 0b 40
        E 32 b0 0b 48
        E 32 b0 0b 50
        E 32 b0 0b 58
        E 16 b0 0b 20
        E 16 b0 0b 28
        E 48 b0 0b 30
        E 32 b0 0b 38
        E 16 b0 0b 20
        E 16 b0 0b 28
        E 32 b0 0b 30
        E 32 b0 0b 38
        E 32 b0 0b 40
        E 16 b0 0b 20
        E 32 b0 0b 28
        E 32 b0 0b 30
        E 32 b0 0b 38
        E 32 b0 0b 40
        E 32 b0 0b 48
        E 32 b0 0b 50
        E 32 b0 0b 20
        E 16 b0 0b 28
        E 32 b0 0b 30
        E 32 b0 0b 38
        E 32 b0 0b 40
        E 32 b0 0b 48
        E 32 b0 0b 50
        E 48 b0 0b 58
        E 16 b0 0b 20
        E 16 b0 0b 28
        E 32 b0 0b 30
        E 32 b0 0b 38
        E 32 b0 0b 40
        E 32 b0 0b 48
        E 48 b0 0b 50
        E 32 b0 0b 58
        E 16 b0 0b 20
        E 16 b0 0b 28
        E 32 b0 0b 30
        E 32 b0 0b 38
        E 32 b0 0b 40
        E 16 b0 0b 20
        E 32 b0 0b 28
        E 32 b0 0b 30
        E 32 b0 0b 38
        E 16 b0 0b 20
        E 16 b0 0b 28
        E 32 b0 0b 30
        E 32 b0 0b 38
        E 48 b0 0b 40
        E 32 b0 0b 48
        E 32 b0 0b 50
        E 32 b0 0b 58
        E 16 b0 0b 20
        E 16 b0 0b 28
        E 32 b0 0b 30
        E 48 b0 0b 38
        E 32 b0 0b 40
        E 32 b0 0b 48
        E 32 b0 0b 50
        E 32 b0 0b 58
        E 16 b0 0b 20
        E 16 b0 0b 28
        E 48 b0 0b 30
        E 32 b0 0b 38
        E 32 b0 0b 40
        E 32 b0 0b 48
        E 32 b0 0b 50
        E 32 b0 0b 20
        E 16 b0 0b 28
        E 32 b0 0b 30
        E 32 b0 0b 38
        E 32 b0 0b 40
        E 16 b0 0b 20
        E 16 b0 0b 28
        E 32 b0 0b 30
        E 48 b0 0b 38
        E 16 b0 0b 20
        E 16 b0 0b 28
        E 32 b0 0b 30
        E 32 b0 0b 38
        E 32 b0 0b 40
        E 32 b0 0b 48
        E 48 b0 0b 50
        E 32 b0 0b 58
        E 16 b0 0b 20
        E 16 b0 0b 28
        E 32 b0 0b 30
        E 32 b0 0b 38
        E 32 b0 0b 40
        E 48 b0 0b 48
        E 32 b0 0b 50
        E 32 b0 0b 58
        E 16 b0 0b 20
        E 16 b0 0b 28
        E 32 b0 0b 30
        E 32 b0 0b 38
        E 48 b0 0b 40
        E 32 b0 0b 48
        E 32 b0 0b 50
        E 32 b0 0b 58
        E 16 b0 0b 20
        E 16 b0 0b 28
        E 32 b0 0b 30
        E 48 b0 0b 38
        E 16 b0 0b 20
        E 16 b0 0b 28
        E 32 b0 0b 30
        E 32 b0 0b 38
        E 32 b0 0b 40
        E 16 b0 0b 20
        E 16 b0 0b 28
        E 48 b0 0b 30
        E 32 b0 0b 38
        E 32 b0 0b 40
        E 32 b0 0b 48
        E 32 b0 0b 50
        E 32 b0 0b 58
        E 16 b0 0b 20
        E 32 b0 0b 28
        E 32 b0 0b 30
        E 32 b0 0b 38
        E 32 b0 0b 40
        E 32 b0 0b 48
        E 32 b0 0b 50
        E 32 b0 0b 20
        E 16 b0 0b 28
        E 32 b0 0b 30
        E 32 b0 0b 38
        E 32 b0 0b 40
        E 32 b0 0b 48
        E 32 b0 0b 50
        E 48 b0 0b 58
        E 16 b0 0b 20
        E 16 b0 0b 28
        E 32 b0 0b 30
        E 32 b0 0b 38
        E 32 b0 0b 40
        E 16 b0 0b 20
        E 32 b0 0b 28
        E 32 b0 0b 30
        E 32 b0 0b 38
        E 16 b0 0b 20
        E 16 b0 0b 28
        E 32 b0 0b 30
        E 32 b0 0b 38
        E 48 b0 0b 40
        E 32 b0 0b 48
        E 32 b0 0b 50
        E 32 b0 0b 58
        E 16 b0 0b 20
        E 16 b0 0b 28
        E 32 b0 0b 30
        E 48 b0 0b 38
        E 32 b0 0b 40
        E 32 b0 0b 48
        E 32 b0 0b 50
        E 32 b0 0b 58
        E 16 b0 0b 20
        E 16 b0 0b 28
        E 48 b0 0b 30
        E 32 b0 0b 38
        E 32 b0 0b 40
        E 32 b0 0b 48
        E 32 b0 0b 50
        E 32 b0 0b 58
        E 16 b0 0b 20
        E 32 b0 0b 28
        E 32 b0 0b 30
        E 32 b0 0b 38
        E 16 b0 0b 20
        E 16 b0 0b 28
        E 32 b0 0b 30
        E 32 b0 0b 38
        E 32 b0 0b 20
        E 16 b0 0b 28
        E 32 b0 0b 30
        E 32 b0 0b 38
        E 32 b0 0b 40
        E 32 b0 0b 48
        E 32 b0 0b 50
        E 48 b0 0b 58
        E 16 b0 0b 20
        E 16 b0 0b 28
        E 32 b0 0b 30
        E 32 b0 0b 38
        E 32 b0 0b 40
        E 32 b0 0b 48
        E 48 b0 0b 50
        E 32 b0 0b 58
        E 16 b0 0b 20
        E 16 b0 0b 28
        E 32 b0 0b 30
        E 32 b0 0b 38
        E 32 b0 0b 40
        E 48 b0 0b 48
        E 32 b0 0b 50
        E 32 b0 0b 58
        E 16 b0 0b 20
        E 16 b0 0b 28
        E 32 b0 0b 30
        E 32 b0 0b 38
        E 32 b0 0b 20
        E 16 b0 0b 28
        E 32 b0 0b 30
        E 32 b0 0b 38
        E 32 b0 0b 40
        E 16 b0 0b 20
        E 16 b0 0b 28
        E 48 b0 0b 30
        E 32 b0 0b 38
        E 32 b0 0b 40
        E 32 b0 0b 48
        E 32 b0 0b 50
        E 32 b0 0b 58
        E 16 b0 0b 20
        E 32 b0 0b 28
        E 32 b0 0b 30
        E 32 b0 0b 38
        E 32 b0 0b 40
        E 32 b0 0b 48
        E 32 b0 0b 50
        E 32 b0 0b 20
        E 16 b0 0b 28
        E 32 b0 0b 30
        E 32 b0 0b 38
        E 32 b0 0b 40
        E 32 b0 0b 48
        E 32 b0 0b 50
        E 48 b0 0b 58
        E 16 b0 0b 20
        E 16 b0 0b 28
        E 32 b0 0b 30
        E 32 b0 0b 38
        E 32 b0 0b 40
        E 16 b0 0b 20
        E 16 b0 0b 28
        E 48 b0 0b 30
        E 32 b0 0b 38
        E 16 b0 0b 20
        E 16 b0 0b 28
        E 32 b0 0b 30
        E 32 b0 0b 38
        E 32 b0 0b 40
        E 48 b0 0b 48
        E 32 b0 0b 50
        E 32 b0 0b 58
        E 16 b0 0b 20
        E 16 b0 0b 28
        E 32 b0 0b 30
        E 32 b0 0b 38
        E 48 b0 0b 40
        E 32 b0 0b 48
        E 32 b0 0b 50
        E 32 b0 0b 58
        E 16 b0 0b 20
        E 16 b0 0b 28
        E 32 b0 0b 30
        E 48 b0 0b 38
        E 32 b0 0b 40
        E 32 b0 0b 48
        E 32 b0 0b 50
        E 32 b0 0b 58
        E 16 b0 0b 20
        E 16 b0 0b 28
        E 48 b0 0b 30
        E 32 b0 0b 38
        E 16 b0 0c 10
        E 0 b0 0b 10
        E 0 80 2e 00
        E 0 90 22 10
        E 16 b0 0b 18
        E 32 b0 0b 20
        E 32 b0 0b 28
        E 32 b0 0b 30
        E 16 b0 0b 10
        E 0 80 22 00
        E 0 90 3a 10
        E 32 b0 0b 18
        E 32 b0 0b 20
        E 32 b0 0b 28
        E 16 b0 0b 10
        E 0 80 3a 00
        E 0 90 35 10
        E 16 b0 0b 18
        E 32 b0 0b 20
        E 48 b0 0b 28
        E 16 b0 0b 10
        E 0 80 35 00
        E 0 90 32 10
        E 16 b0 0b 18
        E 32 b0 0b 20
        E 32 b0 0b 28
        E 32 b0 0b 30
        E 32 b0 0b 38
        E 48 b0 0b 40
        E 32 b0 0b 48
        E 32 b0 0b 50
        E 32 b0 0b 58
        E 192 b0 0b 10
        E 0 80 32 00
        E 0 90 22 10
        E 16 b0 0b 18
        E 32 b0 0b 20
        E 32 b0 0b 28
        E 32 b0 0b 10
        E 16 b0 0b 18
        E 32 b0 0b 20
        E 32 b0 0b 28
        E 32 b0 0b 30
        E 16 b0 0b 10
        E 0 80 22 00
        E 0 90 2c 10
        E 16 b0 0b 18
        E 32 b0 0b 20
        E 48 b0 0b 28
        E 16 b0 0b 10
        E 0 80 2c 00
        E 0 90 30 10
        E 16 b0 0b 18
        E 32 b0 0b 20
        E 32 b0 0b 28
        E 32 b0 0b 30
        E 16 b0 0b 10
        E 0 80 30 00
        E 0 90 33 10
        E 16 b0 0b 18
        E 48 b0 0b 20
        E 32 b0 0b 28
        E 32 b0 0b 30
        E 32 b0 0b 38
        E 32 b0 0b 40
        E 32 b0 0b 48
        E 48 b0 0b 50
        E 32 b0 0b 58
        E 160 b0 0b 10
        E 0 80 33 00
        E 0 90 22 10
        E 16 b0 0b 18
        E 32 b0 0b 20
        E 32 b0 0b 28
        E 32 b0 0b 30
        E 16 b0 0b 10
        E 16 b0 0b 18
        E 32 b0 0b 20
        E 48 b0 0b 28
        E 16 b0 0b 10
        E 0 80 22 00
        E 0 90 2e 10
        E 16 b0 0b 18
        E 32 b0 0b 20
        E 32 b0 0b 28
        E 32 b0 0b 30
        E 16 b0 0b 10
        E 0 80 2e 00
        E 0 90 32 10
        E 16 b0 0b 18
        E 48 b0 0b 20
        E 32 b0 0b 28
        E 16 b0 0b 10
        E 0 80 32 00
        E 0 90 35 10
        E 16 b0 0b 18
        E 32 b0 0b 20
        E 32 b0 0b 28
        E 48 b0 0b 30
        E 32 b0 0b 38
        E 32 b0 0b 40
        E 32 b0 0b 48
        E 32 b0 0b 50
        E 32 b0 0b 58
        E 192 b0 0b 10
        E 0 80 35 00
        E 0 90 22 10
        E 16 b0 0b 18
        E 16 80 22 00
        E 0 ff 2f 00
      >
    >
  >
  <TRACK {E0FC694D-67CD-49FD-9DE5-4C835C7FD0CD}
    NAME "NES - Pulse 2 [ch1]"
    PEAKCOL 10092441
    BEAT -1
    AUTOMODE 0
    PANLAWFLAGS 3
    VOLPAN 1 0 -1 -1 1
    MUTESOLO 0 0 0
    IPHASE 0
    PLAYOFFS 0 1
    ISBUS 0 0
    BUSCOMP 0 0 0 0 0
    SHOWINMIX 1 0.6667 0.5 1 0.5 0 0 0
    FIXEDLANES 9 0 0 0 0
    SEL 0
    REC 0 5088 1 0 0 0 0 0
    VU 2
    TRACKHEIGHT 0 0 0 0 0 0 0
    INQ 0 0 0 0.5 100 0 0 100
    NCHAN 2
    FX 1
    TRACKID {E0FC694D-67CD-49FD-9DE5-4C835C7FD0CD}
    PERF 0
    MIDIOUT -1
    MAINSEND 1 0
    <FXCHAIN
      WNDRECT 24 52 700 560
      SHOW 0
      LASTSEL 0
      DOCKED 0
      BYPASS 0 0 0
      <JS "ReapNES Studio/ReapNES_Console.jsfx" ""
        2 15 1 10 80 10 100 2 1 15 1 5 60 10 80 1 1 0 50 0 0 15 1 0 100 0 0 0.500000 0.500000 0.400000 0.300000 0.800000 1 1 0 0 0 0 - - - - - - - - - - - - - - - - - - - - - - - - - -
      >
      FLOATPOS 0 0 0 0
      FXID {71D9B657-462D-443A-A388-704599B74DEC}
      WAK 0 0
    >
    <ITEM
      POSITION 0
      LENGTH 83.98134
      LOOP 0
      ALLTAKES 0
      FADEIN 0 0 0 0 0 0 0
      FADEOUT 0 0 0 0 0 0 0
      MUTE 0 0
      SEL 0
      IGUID {E5B86E3E-6BF5-4E2F-B0CB-96AFE167A0C4}
      <SOURCE MIDI
        HASDATA 1 480 QN
        CCINTERP 32
        E 0 c1 51
        E 16 b1 0c 20
        E 0 b1 0b 20
        E 0 91 29 20
        E 960 81 29 00
        E 0 91 28 20
        E 944 81 28 00
        E 0 91 29 20
        E 944 81 29 00
        E 0 91 2a 20
        E 960 81 2a 00
        E 0 91 29 20
        E 944 81 29 00
        E 0 91 28 20
        E 960 81 28 00
        E 0 91 29 20
        E 944 81 29 00
        E 0 91 2a 20
        E 944 81 2a 00
        E 0 91 29 20
        E 960 81 29 00
        E 0 91 28 20
        E 944 81 28 00
        E 0 91 29 20
        E 944 81 29 00
        E 0 91 2a 20
        E 960 81 2a 00
        E 0 91 29 20
        E 944 81 29 00
        E 0 91 28 20
        E 944 81 28 00
        E 0 91 29 20
        E 960 81 29 00
        E 0 91 2a 20
        E 944 81 2a 00
        E 144 b1 0c 10
        E 0 b1 0b 18
        E 0 91 22 18
        E 16 b1 0b 10
        E 112 b1 0b 18
        E 0 81 22 00
        E 0 91 3a 18
        E 48 b1 0b 10
        E 64 b1 0b 18
        E 0 81 3a 00
        E 0 91 35 18
        E 112 b1 0b 10
        E 16 b1 0b 18
        E 0 81 35 00
        E 0 91 32 18
        E 160 b1 0b 10
        E 176 b1 0b 08
        E 128 b1 0b 18
        E 0 81 32 00
        E 0 91 22 18
        E 48 b1 0b 10
        E 80 b1 0b 18
        E 96 b1 0b 10
        E 16 b1 0b 18
        E 0 81 22 00
        E 0 91 2c 18
        E 128 81 2c 00
        E 0 91 30 18
        E 32 b1 0b 10
        E 80 b1 0b 18
        E 0 81 30 00
        E 0 91 33 18
        E 80 b1 0b 10
        E 176 b1 0b 08
        E 176 81 33 00
        E 48 b1 0b 18
        E 0 91 22 18
        E 160 b1 0b 10
        E 80 b1 0b 18
        E 0 81 22 00
        E 0 91 2e 18
        E 96 b1 0b 10
        E 16 b1 0b 18
        E 0 81 2e 00
        E 0 91 32 18
        E 112 81 32 00
        E 0 91 35 18
        E 48 b1 0b 10
        E 176 b1 0b 08
        E 160 81 35 00
        E 96 b1 0b 18
        E 0 91 22 18
        E 160 b1 0b 10
        E 80 b1 0b 18
        E 0 81 22 00
        E 0 91 2c 18
        E 96 b1 0b 10
        E 16 b1 0b 18
        E 0 81 2c 00
        E 0 91 30 18
        E 128 81 30 00
        E 0 91 33 18
        E 16 b1 0b 10
        E 96 b1 0b 18
        E 0 81 33 00
        E 0 91 32 18
        E 80 b1 0b 10
        E 48 b1 0b 18
        E 0 81 32 00
        E 0 91 2e 18
        E 112 81 2e 00
        E 0 91 29 18
        E 16 b1 0b 10
        E 80 81 29 00
        E 144 b1 0b 18
        E 0 91 22 18
        E 16 b1 0b 10
        E 96 b1 0b 18
        E 0 81 22 00
        E 0 91 3a 18
        E 80 b1 0b 10
        E 48 b1 0b 18
        E 0 81 3a 00
        E 0 91 35 18
        E 112 81 35 00
        E 0 91 32 18
        E 16 b1 0b 10
        E 176 b1 0b 08
        E 176 81 32 00
        E 112 b1 0b 18
        E 0 91 22 18
        E 160 b1 0b 10
        E 80 b1 0b 18
        E 0 81 22 00
        E 0 91 2c 18
        E 96 b1 0b 10
        E 16 b1 0b 18
        E 0 81 2c 00
        E 0 91 30 18
        E 112 81 30 00
        E 0 91 33 18
        E 48 b1 0b 10
        E 176 b1 0b 08
        E 160 81 33 00
        E 96 b1 0b 18
        E 0 91 22 18
        E 160 b1 0b 10
        E 80 b1 0b 18
        E 0 81 22 00
        E 0 91 2e 18
        E 80 b1 0b 10
        E 32 b1 0b 18
        E 0 81 2e 00
        E 0 91 32 18
        E 128 81 32 00
        E 0 91 35 18
        E 16 b1 0b 10
        E 176 b1 0b 08
        E 176 81 35 00
        E 112 b1 0b 18
        E 0 91 22 18
        E 160 b1 0b 10
        E 64 b1 0b 18
        E 0 81 22 00
        E 0 91 2c 18
        E 112 b1 0b 10
        E 16 b1 0b 18
        E 0 81 2c 00
        E 0 91 30 18
        E 112 81 30 00
        E 0 91 33 18
        E 48 b1 0b 10
        E 80 b1 0b 18
        E 0 81 33 00
        E 0 91 32 18
        E 96 b1 0b 10
        E 16 b1 0b 18
        E 0 81 32 00
        E 0 91 2e 18
        E 112 81 2e 00
        E 0 91 29 18
        E 48 b1 0b 10
        E 48 b1 0c 20
        E 0 b1 0b 20
        E 128 b1 0b 18
        E 160 b1 0b 10
        E 64 b1 0b 20
        E 112 b1 0b 18
        E 128 b1 0b 20
        E 48 b1 0b 18
        E 176 b1 0b 10
        E 16 b1 0b 20
        E 112 81 29 00
        E 0 91 28 20
        E 48 b1 0b 18
        E 80 b1 0b 20
        E 96 b1 0b 18
        E 144 b1 0b 20
        E 16 b1 0b 18
        E 176 b1 0b 10
        E 48 b1 0b 20
        E 128 b1 0b 18
        E 96 b1 0b 20
        E 80 b1 0b 18
        E 48 b1 0b 20
        E 0 81 28 00
        E 0 91 29 20
        E 128 b1 0b 18
        E 176 b1 0b 10
        E 48 b1 0b 20
        E 128 b1 0b 18
        E 112 b1 0b 20
        E 48 b1 0b 18
        E 176 b1 0b 10
        E 16 b1 0b 20
        E 112 81 29 00
        E 0 91 2a 20
        E 48 b1 0b 18
        E 80 b1 0b 20
        E 96 b1 0b 18
        E 128 b1 0b 20
        E 48 b1 0b 18
        E 176 b1 0b 10
        E 16 b1 0b 20
        E 144 b1 0b 18
        E 96 b1 0b 20
        E 80 b1 0b 18
        E 32 b1 0b 20
        E 0 81 2a 00
        E 0 91 29 20
        E 144 b1 0b 18
        E 176 b1 0b 10
        E 48 b1 0b 20
        E 128 b1 0b 18
        E 112 b1 0b 20
        E 64 b1 0b 18
        E 160 b1 0b 20
        E 16 b1 0b 18
        E 112 b1 0b 20
        E 0 81 29 00
        E 0 91 28 20
        E 48 b1 0b 18
        E 64 b1 0b 20
        E 112 b1 0b 18
        E 128 b1 0b 20
        E 48 b1 0b 18
        E 176 b1 0b 10
        E 16 b1 0b 20
        E 160 b1 0b 18
        E 80 b1 0b 20
        E 96 b1 0b 18
        E 16 b1 0b 20
        E 0 81 28 00
        E 0 91 29 20
        E 160 b1 0b 18
        E 160 b1 0b 10
        E 32 b1 0b 20
        E 144 b1 0b 18
        E 96 b1 0b 20
        E 80 b1 0b 18
        E 160 b1 0b 20
        E 16 b1 0b 18
        E 112 b1 0b 20
        E 0 81 29 00
        E 0 91 2a 20
        E 64 b1 0b 18
        E 48 b1 0b 20
        E 128 b1 0b 18
        E 112 b1 0b 20
        E 48 b1 0b 18
        E 176 b1 0b 10
        E 16 b1 0b 20
        E 160 b1 0b 18
        E 80 b1 0b 20
        E 96 b1 0b 18
        E 16 b1 0b 20
        E 0 81 2a 00
        E 0 91 29 20
        E 160 b1 0b 18
        E 176 b1 0b 10
        E 16 b1 0b 20
        E 160 b1 0b 18
        E 80 b1 0b 20
        E 80 b1 0b 18
        E 160 b1 0b 20
        E 16 b1 0b 18
        E 96 b1 0b 20
        E 0 81 29 00
        E 0 91 28 20
        E 80 b1 0b 18
        E 48 b1 0b 20
        E 128 b1 0b 18
        E 112 b1 0b 20
        E 64 b1 0b 18
        E 160 b1 0b 20
        E 16 b1 0b 18
        E 160 b1 0b 10
        E 64 b1 0b 20
        E 112 b1 0b 18
        E 16 b1 0b 20
        E 0 81 28 00
        E 0 91 29 20
        E 160 b1 0b 18
        E 176 b1 0b 10
        E 16 b1 0b 20
        E 160 b1 0b 18
        E 80 b1 0b 20
        E 96 b1 0b 18
        E 144 b1 0b 20
        E 32 b1 0b 18
        E 80 b1 0b 20
        E 0 81 29 00
        E 0 91 2a 20
        E 80 b1 0b 18
        E 32 b1 0b 20
        E 144 b1 0b 18
        E 96 b1 0b 20
        E 80 b1 0b 18
        E 160 b1 0b 20
        E 16 b1 0b 18
        E 176 b1 0b 10
        E 48 b1 0b 20
        E 112 81 2a 00
        E 0 91 29 20
        E 16 b1 0b 18
        E 112 b1 0b 20
        E 48 b1 0b 18
        E 176 b1 0b 10
        E 16 b1 0b 20
        E 160 b1 0b 18
        E 64 b1 0b 20
        E 112 b1 0b 18
        E 128 b1 0b 20
        E 48 b1 0b 18
        E 80 b1 0b 20
        E 0 81 29 00
        E 0 91 28 20
        E 96 b1 0b 18
        E 16 b1 0b 20
        E 160 b1 0b 18
        E 80 b1 0b 20
        E 80 b1 0b 18
        E 160 b1 0b 20
        E 16 b1 0b 18
        E 176 b1 0b 10
        E 48 b1 0b 20
        E 112 81 28 00
        E 0 91 29 20
        E 16 b1 0b 18
        E 112 b1 0b 20
        E 64 b1 0b 18
        E 160 b1 0b 20
        E 16 b1 0b 18
        E 160 b1 0b 10
        E 64 b1 0b 20
        E 112 b1 0b 18
        E 128 b1 0b 20
        E 48 b1 0b 18
        E 64 b1 0b 20
        E 0 81 29 00
        E 0 91 2a 20
        E 112 b1 0b 18
        E 16 b1 0b 20
        E 160 b1 0b 18
        E 80 b1 0b 20
        E 96 b1 0b 18
        E 144 b1 0b 20
        E 32 b1 0b 18
        E 160 b1 0b 10
        E 32 b1 0b 20
        E 128 81 2a 00
        E 144 b1 0c 10
        E 0 b1 0b 18
        E 0 91 22 18
        E 16 b1 0b 10
        E 112 b1 0b 18
        E 0 81 22 00
        E 0 91 3a 18
        E 64 b1 0b 10
        E 48 b1 0b 18
        E 0 81 3a 00
        E 0 91 35 18
        E 112 81 35 00
        E 0 91 32 18
        E 16 b1 0b 10
        E 160 b1 0b 08
        E 176 81 32 00
        E 128 b1 0b 18
        E 0 91 22 18
        E 160 b1 0b 10
        E 80 b1 0b 18
        E 0 81 22 00
        E 0 91 2c 18
        E 96 b1 0b 10
        E 16 b1 0b 18
        E 0 81 2c 00
        E 0 91 30 18
        E 128 81 30 00
        E 0 91 33 18
        E 16 b1 0b 10
        E 176 b1 0b 08
        E 176 81 33 00
        E 96 b1 0b 18
        E 0 91 22 18
        E 144 b1 0b 10
        E 96 b1 0b 18
        E 0 81 22 00
        E 0 91 2e 18
        E 80 b1 0b 10
        E 48 b1 0b 18
        E 0 81 2e 00
        E 0 91 32 18
        E 112 81 32 00
        E 0 91 35 18
        E 16 b1 0b 10
        E 176 b1 0b 08
        E 176 81 35 00
        E 112 b1 0b 18
        E 0 91 22 18
        E 160 b1 0b 10
        E 80 b1 0b 18
        E 0 81 22 00
        E 0 91 2c 18
        E 96 b1 0b 10
        E 16 b1 0b 18
        E 0 81 2c 00
        E 0 91 30 18
        E 112 81 30 00
        E 0 91 33 18
        E 48 b1 0b 10
        E 80 b1 0b 18
        E 0 81 33 00
        E 0 91 32 18
        E 96 b1 0b 10
        E 16 b1 0b 18
        E 0 81 32 00
        E 0 91 2e 18
        E 128 81 2e 00
        E 0 91 29 18
        E 16 b1 0b 10
        E 64 81 29 00
        E 160 b1 0b 18
        E 0 91 22 18
        E 112 81 22 00
        E 0 91 3a 18
        E 48 b1 0b 10
        E 64 b1 0b 18
        E 0 81 3a 00
        E 0 91 35 18
        E 112 b1 0b 10
        E 16 b1 0b 18
        E 0 81 35 00
        E 0 91 32 18
        E 160 b1 0b 10
        E 176 b1 0b 08
        E 144 b1 0b 18
        E 0 81 32 00
        E 0 91 22 18
        E 32 b1 0b 10
        E 80 b1 0b 18
        E 96 b1 0b 10
        E 16 b1 0b 18
        E 0 81 22 00
        E 0 91 2c 18
        E 128 81 2c 00
        E 0 91 30 18
        E 16 b1 0b 10
        E 96 b1 0b 18
        E 0 81 30 00
        E 0 91 33 18
        E 80 b1 0b 10
        E 176 b1 0b 08
        E 176 81 33 00
        E 48 b1 0b 18
        E 0 91 22 18
        E 160 b1 0b 10
        E 80 b1 0b 18
        E 0 81 22 00
        E 0 91 2e 18
        E 96 b1 0b 10
        E 16 b1 0b 18
        E 0 81 2e 00
        E 0 91 32 18
        E 128 81 32 00
        E 0 91 35 18
        E 32 b1 0b 10
        E 160 b1 0b 08
        E 176 81 35 00
        E 96 b1 0b 18
        E 0 91 22 18
        E 144 b1 0b 10
        E 96 b1 0b 18
        E 0 81 22 00
        E 0 91 2c 18
        E 80 b1 0b 10
        E 32 b1 0b 18
        E 0 81 2c 00
        E 0 91 30 18
        E 128 81 30 00
        E 0 91 33 18
        E 16 b1 0b 10
        E 96 b1 0b 18
        E 0 81 33 00
        E 0 91 32 18
        E 80 b1 0b 10
        E 48 b1 0b 18
        E 0 81 32 00
        E 0 91 2e 18
        E 112 81 2e 00
        E 0 91 29 18
        E 16 b1 0b 10
        E 80 b1 0c 20
        E 0 b1 0b 20
        E 96 b1 0b 18
        E 16 b1 0b 20
        E 160 b1 0b 18
        E 80 b1 0b 20
        E 80 b1 0b 18
        E 160 b1 0b 20
        E 16 b1 0b 18
        E 176 b1 0b 10
        E 48 b1 0b 20
        E 112 81 29 00
        E 0 91 28 20
        E 16 b1 0b 18
        E 112 b1 0b 20
        E 64 b1 0b 18
        E 160 b1 0b 20
        E 16 b1 0b 18
        E 176 b1 0b 10
        E 48 b1 0b 20
        E 112 b1 0b 18
        E 128 b1 0b 20
        E 48 b1 0b 18
        E 64 b1 0b 20
        E 0 81 28 00
        E 0 91 29 20
        E 112 b1 0b 18
        E 16 b1 0b 20
        E 160 b1 0b 18
        E 80 b1 0b 20
        E 96 b1 0b 18
        E 144 b1 0b 20
        E 32 b1 0b 18
        E 160 b1 0b 10
        E 32 b1 0b 20
        E 128 81 29 00
        E 0 91 2a 20
        E 16 b1 0b 18
        E 96 b1 0b 20
        E 80 b1 0b 18
        E 160 b1 0b 20
        E 16 b1 0b 18
        E 176 b1 0b 10
        E 48 b1 0b 20
        E 128 b1 0b 18
        E 112 b1 0b 20
        E 64 b1 0b 18
        E 48 b1 0b 20
        E 0 81 2a 00
        E 0 91 29 20
        E 112 b1 0b 18
        E 16 b1 0b 20
        E 160 b1 0b 18
        E 64 b1 0b 20
        E 112 b1 0b 18
        E 128 b1 0b 20
        E 48 b1 0b 18
        E 176 b1 0b 10
        E 16 b1 0b 20
        E 128 81 29 00
        E 0 91 28 20
        E 32 b1 0b 18
        E 80 b1 0b 20
        E 80 b1 0b 18
        E 160 b1 0b 20
        E 16 b1 0b 18
        E 176 b1 0b 10
        E 48 b1 0b 20
        E 128 b1 0b 18
        E 96 b1 0b 20
        E 80 b1 0b 18
        E 48 b1 0b 20
        E 0 81 28 00
        E 0 91 29 20
        E 128 b1 0b 18
        E 176 b1 0b 10
        E 48 b1 0b 20
        E 112 b1 0b 18
        E 128 b1 0b 20
        E 48 b1 0b 18
        E 176 b1 0b 10
        E 16 b1 0b 20
        E 112 81 29 00
        E 0 91 2a 20
        E 48 b1 0b 18
        E 80 b1 0b 20
        E 96 b1 0b 18
        E 144 b1 0b 20
        E 32 b1 0b 18
        E 160 b1 0b 10
        E 32 b1 0b 20
        E 144 b1 0b 18
        E 96 b1 0b 20
        E 80 b1 0b 18
        E 48 b1 0b 20
        E 0 81 2a 00
        E 0 91 29 20
        E 128 b1 0b 18
        E 176 b1 0b 10
        E 48 b1 0b 20
        E 128 b1 0b 18
        E 112 b1 0b 20
        E 64 b1 0b 18
        E 160 b1 0b 10
        E 16 b1 0b 20
        E 112 81 29 00
        E 0 91 28 20
        E 48 b1 0b 18
        E 64 b1 0b 20
        E 112 b1 0b 18
        E 128 b1 0b 20
        E 48 b1 0b 18
        E 176 b1 0b 10
        E 16 b1 0b 20
        E 160 b1 0b 18
        E 80 b1 0b 20
        E 80 b1 0b 18
        E 32 b1 0b 20
        E 0 81 28 00
        E 0 91 29 20
        E 144 b1 0b 18
        E 176 b1 0b 10
        E 48 b1 0b 20
        E 128 b1 0b 18
        E 96 b1 0b 20
        E 80 b1 0b 18
        E 160 b1 0b 20
        E 16 b1 0b 18
        E 112 b1 0b 20
        E 0 81 29 00
        E 0 91 2a 20
        E 64 b1 0b 18
        E 48 b1 0b 20
        E 112 b1 0b 18
        E 128 b1 0b 20
        E 48 b1 0b 18
        E 176 b1 0b 10
        E 16 b1 0b 20
        E 160 b1 0b 18
        E 80 b1 0b 20
        E 96 b1 0b 18
        E 16 b1 0b 20
        E 0 81 2a 00
        E 0 91 29 20
        E 160 b1 0b 18
        E 176 b1 0b 10
        E 16 b1 0b 20
        E 144 b1 0b 18
        E 96 b1 0b 20
        E 80 b1 0b 18
        E 160 b1 0b 20
        E 16 b1 0b 18
        E 96 b1 0b 20
        E 0 81 29 00
        E 0 91 28 20
        E 80 b1 0b 18
        E 48 b1 0b 20
        E 128 b1 0b 18
        E 112 b1 0b 20
        E 64 b1 0b 18
        E 160 b1 0b 10
        E 16 b1 0b 20
        E 160 b1 0b 18
        E 64 b1 0b 20
        E 112 b1 0b 18
        E 16 b1 0b 20
        E 0 81 28 00
        E 0 91 29 20
        E 160 b1 0b 18
        E 176 b1 0b 10
        E 16 b1 0b 20
        E 160 b1 0b 18
        E 80 b1 0b 20
        E 96 b1 0b 18
        E 144 b1 0b 20
        E 16 b1 0b 18
        E 96 b1 0b 20
        E 0 81 29 00
        E 0 91 2a 20
        E 80 b1 0b 18
        E 48 b1 0b 20
        E 128 b1 0b 18
        E 96 b1 0b 20
        E 80 b1 0b 18
        E 160 b1 0b 20
        E 16 b1 0b 18
        E 176 b1 0b 10
        E 48 b1 0b 20
        E 112 b1 0b 18
        E 16 81 2a 00
        E 144 b1 0c 10
        E 0 91 22 18
        E 16 b1 0b 10
        E 96 b1 0b 18
        E 0 81 22 00
        E 0 91 3a 18
        E 80 b1 0b 10
        E 48 b1 0b 18
        E 0 81 3a 00
        E 0 91 35 18
        E 112 81 35 00
        E 0 91 32 18
        E 16 b1 0b 10
        E 176 b1 0b 08
        E 176 81 32 00
        E 112 b1 0b 18
        E 0 91 22 18
        E 160 b1 0b 10
        E 80 b1 0b 18
        E 0 81 22 00
        E 0 91 2c 18
        E 96 b1 0b 10
        E 16 b1 0b 18
        E 0 81 2c 00
        E 0 91 30 18
        E 112 81 30 00
        E 0 91 33 18
        E 48 b1 0b 10
        E 176 b1 0b 08
        E 160 81 33 00
        E 96 b1 0b 18
        E 0 91 22 18
        E 160 b1 0b 10
        E 80 b1 0b 18
        E 0 81 22 00
        E 0 91 2e 18
        E 80 b1 0b 10
        E 32 b1 0b 18
        E 0 81 2e 00
        E 0 91 32 18
        E 128 81 32 00
        E 0 91 35 18
        E 16 b1 0b 10
        E 176 b1 0b 08
        E 176 81 35 00
        E 96 b1 0b 18
        E 0 91 22 18
        E 144 b1 0b 10
        E 96 b1 0b 18
        E 0 81 22 00
        E 0 91 2c 18
        E 80 b1 0b 10
        E 48 b1 0b 18
        E 0 81 2c 00
        E 0 91 30 18
        E 112 81 30 00
        E 0 91 33 18
        E 16 b1 0b 10
        E 112 b1 0b 18
        E 0 81 33 00
        E 0 91 32 18
        E 64 b1 0b 10
        E 48 b1 0b 18
        E 0 81 32 00
        E 0 91 2e 18
        E 112 81 2e 00
        E 0 91 29 18
        E 16 b1 0b 10
        E 80 81 29 00
        E 144 b1 0b 18
        E 0 91 22 18
        E 16 b1 0b 10
        E 112 b1 0b 18
        E 0 81 22 00
        E 0 91 3a 18
        E 64 b1 0b 10
        E 48 b1 0b 18
        E 0 81 3a 00
        E 0 91 35 18
        E 112 b1 0b 10
        E 16 b1 0b 18
        E 0 81 35 00
        E 0 91 32 18
        E 160 b1 0b 10
        E 176 b1 0b 08
        E 128 b1 0b 18
        E 0 81 32 00
        E 0 91 22 18
        E 48 b1 0b 10
        E 80 b1 0b 18
        E 96 b1 0b 10
        E 16 b1 0b 18
        E 0 81 22 00
        E 0 91 2c 18
        E 112 81 2c 00
        E 0 91 30 18
        E 48 b1 0b 10
        E 80 b1 0b 18
        E 0 81 30 00
        E 0 91 33 18
        E 96 b1 0b 10
        E 160 b1 0b 08
        E 176 81 33 00
        E 48 b1 0b 18
        E 0 91 22 18
        E 160 b1 0b 10
        E 64 b1 0b 18
        E 0 81 22 00
        E 0 91 2e 18
        E 112 b1 0b 10
        E 16 b1 0b 18
        E 0 81 2e 00
        E 0 91 32 18
        E 112 81 32 00
        E 0 91 35 18
        E 48 b1 0b 10
        E 176 b1 0b 08
        E 176 81 35 00
        E 80 b1 0b 18
        E 0 91 22 18
        E 160 b1 0b 10
        E 80 b1 0b 18
        E 0 81 22 00
        E 0 91 2c 18
        E 96 b1 0b 10
        E 16 b1 0b 18
        E 0 81 2c 00
        E 0 91 30 18
        E 128 81 30 00
        E 0 91 33 18
        E 32 b1 0b 10
        E 80 b1 0b 18
        E 0 81 33 00
        E 0 91 32 18
        E 80 b1 0b 10
        E 32 b1 0b 18
        E 0 81 32 00
        E 0 91 2e 18
        E 128 81 2e 00
        E 0 91 29 18
        E 16 b1 0b 10
        E 64 b1 0c 20
        E 0 b1 0b 20
        E 112 b1 0b 18
        E 16 b1 0b 20
        E 160 b1 0b 18
        E 80 b1 0b 20
        E 96 b1 0b 18
        E 144 b1 0b 20
        E 32 b1 0b 18
        E 160 b1 0b 10
        E 32 b1 0b 20
        E 128 81 29 00
        E 0 91 28 20
        E 16 b1 0b 18
        E 96 b1 0b 20
        E 80 b1 0b 18
        E 160 b1 0b 20
        E 16 b1 0b 18
        E 176 b1 0b 10
        E 48 b1 0b 20
        E 128 b1 0b 18
        E 112 b1 0b 20
        E 64 b1 0b 18
        E 48 b1 0b 20
        E 0 81 28 00
        E 0 91 29 20
        E 112 b1 0b 18
        E 16 b1 0b 20
        E 160 b1 0b 18
        E 64 b1 0b 20
        E 112 b1 0b 18
        E 128 b1 0b 20
        E 48 b1 0b 18
        E 176 b1 0b 10
        E 16 b1 0b 20
        E 128 81 29 00
        E 0 91 2a 20
        E 32 b1 0b 18
        E 80 b1 0b 20
        E 80 b1 0b 18
        E 160 b1 0b 20
        E 16 b1 0b 18
        E 176 b1 0b 10
        E 48 b1 0b 20
        E 128 b1 0b 18
        E 96 b1 0b 20
        E 80 b1 0b 18
        E 48 b1 0b 20
        E 0 81 2a 00
        E 0 91 29 20
        E 128 b1 0b 18
        E 176 b1 0b 10
        E 48 b1 0b 20
        E 112 b1 0b 18
        E 128 b1 0b 20
        E 48 b1 0b 18
        E 176 b1 0b 10
        E 16 b1 0b 20
        E 112 81 29 00
        E 0 91 28 20
        E 48 b1 0b 18
        E 80 b1 0b 20
        E 96 b1 0b 18
        E 144 b1 0b 20
        E 32 b1 0b 18
        E 176 b1 0b 10
        E 16 b1 0b 20
        E 144 b1 0b 18
        E 96 b1 0b 20
        E 80 b1 0b 18
        E 48 b1 0b 20
        E 0 81 28 00
        E 0 91 29 20
        E 128 b1 0b 18
        E 176 b1 0b 10
        E 48 b1 0b 20
        E 128 b1 0b 18
        E 112 b1 0b 20
        E 64 b1 0b 18
        E 160 b1 0b 10
        E 16 b1 0b 20
        E 112 81 29 00
        E 0 91 2a 20
        E 48 b1 0b 18
        E 64 b1 0b 20
        E 112 b1 0b 18
        E 128 b1 0b 20
        E 48 b1 0b 18
        E 176 b1 0b 10
        E 16 b1 0b 20
        E 160 b1 0b 18
        E 80 b1 0b 20
        E 96 b1 0b 18
        E 16 b1 0b 20
        E 0 81 2a 00
        E 0 91 29 20
        E 144 b1 0b 18
        E 176 b1 0b 10
        E 48 b1 0b 20
        E 128 b1 0b 18
        E 96 b1 0b 20
        E 80 b1 0b 18
        E 160 b1 0b 20
        E 16 b1 0b 18
        E 112 b1 0b 20
        E 0 81 29 00
        E 0 91 28 20
        E 64 b1 0b 18
        E 48 b1 0b 20
        E 112 b1 0b 18
        E 128 b1 0b 20
        E 48 b1 0b 18
        E 176 b1 0b 10
        E 16 b1 0b 20
        E 160 b1 0b 18
        E 80 b1 0b 20
        E 96 b1 0b 18
        E 16 b1 0b 20
        E 0 81 28 00
        E 0 91 29 20
        E 160 b1 0b 18
        E 176 b1 0b 10
        E 16 b1 0b 20
        E 144 b1 0b 18
        E 96 b1 0b 20
        E 80 b1 0b 18
        E 160 b1 0b 20
        E 16 b1 0b 18
        E 96 b1 0b 20
        E 0 81 29 00
        E 0 91 2a 20
        E 80 b1 0b 18
        E 48 b1 0b 20
        E 128 b1 0b 18
        E 112 b1 0b 20
        E 64 b1 0b 18
        E 160 b1 0b 10
        E 16 b1 0b 20
        E 160 b1 0b 18
        E 64 b1 0b 20
        E 112 b1 0b 18
        E 16 b1 0b 20
        E 0 81 2a 00
        E 0 91 29 20
        E 160 b1 0b 18
        E 176 b1 0b 10
        E 16 b1 0b 20
        E 160 b1 0b 18
        E 80 b1 0b 20
        E 96 b1 0b 18
        E 144 b1 0b 20
        E 16 b1 0b 18
        E 96 b1 0b 20
        E 0 81 29 00
        E 0 91 28 20
        E 80 b1 0b 18
        E 48 b1 0b 20
        E 128 b1 0b 18
        E 96 b1 0b 20
        E 80 b1 0b 18
        E 160 b1 0b 20
        E 16 b1 0b 18
        E 176 b1 0b 10
        E 48 b1 0b 20
        E 112 b1 0b 18
        E 16 b1 0b 20
        E 0 81 28 00
        E 0 91 29 20
        E 160 b1 0b 18
        E 176 b1 0b 10
        E 16 b1 0b 20
        E 160 b1 0b 18
        E 80 b1 0b 20
        E 96 b1 0b 18
        E 128 b1 0b 20
        E 48 b1 0b 18
        E 80 b1 0b 20
        E 0 81 29 00
        E 0 91 2a 20
        E 96 b1 0b 18
        E 16 b1 0b 20
        E 144 b1 0b 18
        E 96 b1 0b 20
        E 80 b1 0b 18
        E 160 b1 0b 20
        E 16 b1 0b 18
        E 176 b1 0b 10
        E 48 b1 0b 20
        E 112 81 2a 00
        E 160 b1 0c 10
        E 0 b1 0b 18
        E 0 91 22 18
        E 112 81 22 00
        E 0 91 3a 18
        E 48 b1 0b 10
        E 64 b1 0b 18
        E 0 81 3a 00
        E 0 91 35 18
        E 112 b1 0b 10
        E 16 b1 0b 18
        E 0 81 35 00
        E 0 91 32 18
        E 160 b1 0b 10
        E 176 b1 0b 08
        E 128 b1 0b 18
        E 0 81 32 00
        E 0 91 22 18
        E 48 b1 0b 10
        E 80 b1 0b 18
        E 96 b1 0b 10
        E 16 b1 0b 18
        E 0 81 22 00
        E 0 91 2c 18
        E 128 81 2c 00
        E 0 91 30 18
        E 16 b1 0b 10
        E 96 b1 0b 18
        E 0 81 30 00
        E 0 91 33 18
        E 80 b1 0b 10
        E 176 b1 0b 08
        E 176 81 33 00
        E 48 b1 0b 18
        E 0 91 22 18
        E 160 b1 0b 10
        E 80 b1 0b 18
        E 0 81 22 00
        E 0 91 2e 18
        E 96 b1 0b 10
        E 16 b1 0b 18
        E 0 81 2e 00
        E 0 91 32 18
        E 112 81 32 00
        E 0 91 35 18
        E 48 b1 0b 10
        E 176 b1 0b 08
        E 160 81 35 00
        E 0 ff 2f 00
      >
    >
  >
  <TRACK {589E58B3-0733-4DCF-A333-0EDF8A3F313F}
    NAME "NES - Triangle [ch2]"
    PEAKCOL 16744192
    BEAT -1
    AUTOMODE 0
    PANLAWFLAGS 3
    VOLPAN 1 0 -1 -1 1
    MUTESOLO 0 0 0
    IPHASE 0
    PLAYOFFS 0 1
    ISBUS 0 0
    BUSCOMP 0 0 0 0 0
    SHOWINMIX 1 0.6667 0.5 1 0.5 0 0 0
    FIXEDLANES 9 0 0 0 0
    SEL 0
    REC 0 5088 1 0 0 0 0 0
    VU 2
    TRACKHEIGHT 0 0 0 0 0 0 0
    INQ 0 0 0 0.5 100 0 0 100
    NCHAN 2
    FX 1
    TRACKID {589E58B3-0733-4DCF-A333-0EDF8A3F313F}
    PERF 0
    MIDIOUT -1
    MAINSEND 1 0
    <FXCHAIN
      WNDRECT 24 52 700 560
      SHOW 0
      LASTSEL 0
      DOCKED 0
      BYPASS 0 0 0
      <JS "ReapNES Studio/ReapNES_Console.jsfx" ""
        2 15 1 10 80 10 100 2 1 15 1 5 60 10 80 1 1 0 50 0 0 15 1 0 100 0 0 0.500000 0.500000 0.400000 0.300000 0.800000 2 1 0 0 0 0 - - - - - - - - - - - - - - - - - - - - - - - - - -
      >
      FLOATPOS 0 0 0 0
      FXID {A92ABF1B-C82C-4C87-AA75-D998676A7C0E}
      WAK 0 0
    >
    <ITEM
      POSITION 0
      LENGTH 83.98134
      LOOP 0
      ALLTAKES 0
      FADEIN 0 0 0 0 0 0 0
      FADEOUT 0 0 0 0 0 0 0
      MUTE 0 0
      SEL 0
      IGUID {D297D335-6806-4244-8B67-4ADA9F4BFAEF}
      <SOURCE MIDI
        HASDATA 1 480 QN
        CCINTERP 32
        E 0 c2 26
        E 48 b2 0b 7f
        E 0 92 2e 7f
        E 86352 82 2e 00
        E 0 ff 2f 00
      >
    >
  >
  <TRACK {C122EE0E-06CB-48E5-BEDB-72C1FEB99827}
    NAME "NES - Noise / Drums [ch3]"
    PEAKCOL 11184810
    BEAT -1
    AUTOMODE 0
    PANLAWFLAGS 3
    VOLPAN 1 0 -1 -1 1
    MUTESOLO 0 0 0
    IPHASE 0
    PLAYOFFS 0 1
    ISBUS 0 0
    BUSCOMP 0 0 0 0 0
    SHOWINMIX 1 0.6667 0.5 1 0.5 0 0 0
    FIXEDLANES 9 0 0 0 0
    SEL 0
    REC 0 5088 1 0 0 0 0 0
    VU 2
    TRACKHEIGHT 0 0 0 0 0 0 0
    INQ 0 0 0 0.5 100 0 0 100
    NCHAN 2
    FX 1
    TRACKID {C122EE0E-06CB-48E5-BEDB-72C1FEB99827}
    PERF 0
    MIDIOUT -1
    MAINSEND 1 0
    <FXCHAIN
      WNDRECT 24 52 700 560
      SHOW 0
      LASTSEL 0
      DOCKED 0
      BYPASS 0 0 0
      <JS "ReapNES Studio/ReapNES_Console.jsfx" ""
        2 15 1 10 80 10 100 2 1 15 1 5 60 10 80 1 1 0 50 0 0 15 1 0 100 0 0 0.500000 0.500000 0.400000 0.300000 0.800000 3 1 0 0 0 0 - - - - - - - - - - - - - - - - - - - - - - - - - -
      >
      FLOATPOS 0 0 0 0
      FXID {FCFD3E78-4575-4FAC-ADD2-5104D464C785}
      WAK 0 0
    >
    <ITEM
      POSITION 0
      LENGTH 83.98134
      LOOP 0
      ALLTAKES 0
      FADEIN 0 0 0 0 0 0 0
      FADEOUT 0 0 0 0 0 0 0
      MUTE 0 0
      SEL 0
      IGUID {FC0C2D15-79D8-41FD-A267-F24D2F1AEC92}
      <SOURCE MIDI
        HASDATA 1 480 QN
        CCINTERP 32
        E 16 93 24 58
        E 86384 83 24 00
        E 0 ff 2f 00
      >
    >
  >
>