<REAPER_PROJECT 0.1 "7.27/win64" 1707000000
  <NOTES 0 2
    |ReapNES Studio Project
    |MIDI Import - Battletoads_14_Song_14_v1
  >
  RIPPLE 0
  GROUPOVERRIDE 0 0 0
  AUTOXFADE 129
  ENVATTACH 3
  POOLEDENVATTACH 0
  MIXERUIFLAGS 11 48
  ENVFADESZ10 40
  PEAKGAIN 1
  FEEDBACK 0
  PANLAW 1
  PROJOFFS 0 0 0
  MAXPROJLEN 0 0
  GRID 3199 8 1 8 1 0 0 0
  TIMEMODE 1 5 -1 30 0 0 -1
  VIDEO_CONFIG 0 0 65792
  PANMODE 3
  PANLAWFLAGS 3
  CURSOR 0
  ZOOM 100 0 0
  VZOOMEX 6 0
  USE_REC_CFG 0
  RECMODE 1
  SMPTESYNC 0 30 100 40 1000 300 0 0 1 0 0
  LOOP 0
  LOOPGRAN 0 4
  RECORD_PATH "Media" ""
  <RECORD_CFG
    ZXZhdxgAAQ==
  >
  <APPLYFX_CFG
  >
  RENDER_FILE ""
  RENDER_PATTERN ""
  RENDER_FMT 0 2 0
  RENDER_1X 0
  RENDER_RANGE 1 0 0 18 1000
  RENDER_RESAMPLE 3 0 1
  RENDER_ADDTOPROJ 0
  RENDER_STEMS 0
  RENDER_DITHER 0
  TIMELOCKMODE 1
  TEMPOENVLOCKMODE 1
  ITEMMIX 1
  DEFPITCHMODE 589824 0
  TAKELANE 1
  SAMPLERATE 44100 0 0
  <RENDER_CFG
    ZXZhdxgAAQ==
  >
  LOCK 1
  <METRONOME 6 2
    VOL 0.25 0.125
    BEATLEN 4
    FREQ 1760 880 1
    SAMPLES "" ""
    SPLIGNORE 0 0
    SPLDEF 2 660 "" 0
    SPLDEF 3 440 "" 0
    PATTERN 0 169
    PATTERNSTR ABBB
    MULT 1
  >
  GLOBAL_AUTO -1
  TEMPO 128.59999614200012 4 4
  PLAYRATE 1 0 0.25 4
  SELECTION 0 0
  SELECTION2 0 0
  MASTERAUTOMODE 0
  MASTERTRACKHEIGHT 0 0
  MASTERPEAKCOL 16576
  MASTERMUTESOLO 0
  MASTERTRACKVIEW 0 0.6667 0.5 0.5 0 0 0 0 0 0 0 0 0 0
  MASTERHWOUT 0 0 1 0 0 0 0 -1
  MASTER_NCH 2 2
  MASTER_VOLUME 1 0 -1 -1 1
  MASTER_PANMODE 3
  MASTER_PANLAWFLAGS 3
  MASTER_FX 1
  MASTER_SEL 0
  <MASTERPLAYSPEEDENV
    EGUID {7A8B148D-B649-4A1B-B1E0-9A6DCE2A2B4A}
    ACT 0 -1
    VIS 0 1 1
    LANEHEIGHT 0 0
    ARM 0
    DEFSHAPE 0 -1 -1
  >
  <TEMPOENVEX
    EGUID {45F6F149-E84B-41BD-900B-07C74277A7F9}
    ACT 1 -1
    VIS 1 0 1
    LANEHEIGHT 0 0
    ARM 0
    DEFSHAPE 1 -1 -1
  >
  <PROJBAY
  >
  <TRACK {35245814-B6A6-4056-B7EF-6D9763DE92CF}
    NAME "NES - Pulse 1 [ch0]"
    PEAKCOL 16576606
    BEAT -1
    AUTOMODE 0
    PANLAWFLAGS 3
    VOLPAN 1 0 -1 -1 1
    MUTESOLO 0 0 0
    IPHASE 0
    PLAYOFFS 0 1
    ISBUS 0 0
    BUSCOMP 0 0 0 0 0
    SHOWINMIX 1 0.6667 0.5 1 0.5 0 0 0
    FIXEDLANES 9 0 0 0 0
    SEL 1
    REC 0 5088 1 0 0 0 0 0
    VU 2
    TRACKHEIGHT 0 0 0 0 0 0 0
    INQ 0 0 0 0.5 100 0 0 100
    NCHAN 2
    FX 1
    TRACKID {35245814-B6A6-4056-B7EF-6D9763DE92CF}
    PERF 0
    MIDIOUT -1
    MAINSEND 1 0
    <FXCHAIN
      WNDRECT 24 52 700 560
      SHOW 0
      LASTSEL 0
      DOCKED 0
      BYPASS 0 0 0
      <JS "ReapNES Studio/ReapNES_Console.jsfx" ""
        2 15 1 10 80 10 100 2 1 15 1 5 60 10 80 1 1 0 50 0 0 15 1 0 100 0 0 0.500000 0.500000 0.400000 0.300000 0.800000 0 1 0 0 0 0 - - - - - - - - - - - - - - - - - - - - - - - - - -
      >
      FLOATPOS 0 0 0 0
      FXID {592732DF-C1CC-46C8-A5BC-79A3806A726E}
      WAK 0 0
    >
    <ITEM
      POSITION 0
      LENGTH 83.98134
      LOOP 0
      ALLTAKES 0
      FADEIN 0 0 0 0 0 0 0
      FADEOUT 0 0 0 0 0 0 0
      MUTE 0 0
      SEL 0
      IGUID {4123BAAC-B7A6-4BB2-9A83-22A3AFD2A16F}
      <SOURCE MIDI
        HASDATA 1 480 QN
        CCINTERP 32
        E 0 c0 50
        E 48 b0 0c 40
        E 0 b0 0b 28
        E 0 90 18 28
        E 128 b0 0b 10
        E 112 b0 0b 28
        E 240 80 18 00
        E 0 90 1b 28
        E 112 80 1b 00
        E 0 90 1d 28
        E 128 b0 0b 10
        E 112 b0 0b 28
        E 0 80 1d 00
        E 0 90 1f 28
        E 128 b0 0b 10
        E 112 b0 0b 28
        E 112 80 1f 00
        E 0 90 1d 28
        E 128 b0 0b 10
        E 112 b0 0b 28
        E 0 80 1d 00
        E 0 90 1b 28
        E 128 80 1b 00
        E 0 90 1d 28
        E 112 b0 0b 10
        E 128 b0 0b 08
        E 112 b0 0b 28
        E 0 80 1d 00
        E 0 90 18 28
        E 112 b0 0b 10
        E 128 b0 0b 08
        E 240 b0 0c 10
        E 0 b0 0b 20
        E 0 80 18 00
        E 0 90 33 20
        E 272 b0 0b 18
        E 272 b0 0b 10
        E 272 b0 0b 08
        E 128 b0 0b 20
        E 16 b0 0b 18
        E 32 b0 0b 10
        E 32 b0 0b 08
        E 32 b0 0b 20
        E 16 b0 0b 18
        E 32 b0 0b 10
        E 32 b0 0b 08
        E 32 80 33 00
        E 256 b0 0c 40
        E 0 b0 0b 28
        E 0 90 18 28
        E 16 b0 0b 20
        E 48 b0 0b 18
        E 32 b0 0b 10
        E 128 b0 0b 28
        E 240 80 18 00
        E 0 90 1b 28
        E 128 80 1b 00
        E 0 90 1d 28
        E 112 b0 0b 10
        E 128 b0 0b 28
        E 0 80 1d 00
        E 0 90 1f 28
        E 112 b0 0b 10
        E 112 b0 0b 28
        E 128 80 1f 00
        E 0 90 1d 28
        E 112 b0 0b 10
        E 128 b0 0b 28
        E 0 80 1d 00
        E 0 90 1b 28
        E 112 80 1b 00
        E 0 90 1d 28
        E 128 b0 0b 10
        E 112 b0 0b 08
        E 112 b0 0b 28
        E 0 80 1d 00
        E 0 90 18 28
        E 128 b0 0b 10
        E 112 b0 0b 08
        E 240 b0 0c 10
        E 0 b0 0b 20
        E 0 80 18 00
        E 0 90 33 20
        E 256 b0 0b 18
        E 288 b0 0b 10
        E 272 b0 0b 08
        E 128 b0 0b 20
        E 16 b0 0b 18
        E 32 b0 0b 10
        E 32 b0 0b 08
        E 32 80 33 00
        E 16 b0 0b 20
        E 0 90 33 20
        E 16 b0 0b 18
        E 32 b0 0b 10
        E 48 b0 0b 08
        E 32 80 33 00
        E 224 b0 0c 40
        E 0 b0 0b 28
        E 0 90 1d 28
        E 16 b0 0b 20
        E 32 b0 0b 18
        E 32 b0 0b 10
        E 32 b0 0b 08
        E 16 b0 0b 10
        E 112 b0 0b 28
        E 240 80 1d 00
        E 0 90 20 28
        E 112 80 20 00
        E 0 90 22 28
        E 128 b0 0b 10
        E 112 b0 0b 28
        E 0 80 22 00
        E 0 90 24 28
        E 112 b0 0b 10
        E 128 b0 0b 28
        E 112 80 24 00
        E 0 90 22 28
        E 128 b0 0b 10
        E 112 b0 0b 28
        E 0 80 22 00
        E 0 90 20 28
        E 128 80 20 00
        E 0 90 22 28
        E 112 b0 0b 10
        E 112 b0 0b 08
        E 128 b0 0b 28
        E 0 80 22 00
        E 0 90 1d 28
        E 112 b0 0b 10
        E 128 b0 0b 08
        E 240 b0 0c 10
        E 0 b0 0b 20
        E 0 80 1d 00
        E 0 90 38 20
        E 272 b0 0b 18
        E 272 b0 0b 10
        E 288 b0 0b 08
        E 112 b0 0b 20
        E 16 b0 0b 18
        E 32 b0 0b 10
        E 48 b0 0b 08
        E 16 b0 0b 20
        E 16 b0 0b 18
        E 32 b0 0b 10
        E 32 b0 0b 08
        E 32 80 38 00
        E 256 b0 0c 40
        E 0 b0 0b 28
        E 0 90 18 28
        E 32 b0 0b 20
        E 32 b0 0b 18
        E 32 b0 0b 10
        E 128 b0 0b 28
        E 240 80 18 00
        E 0 90 1b 28
        E 128 80 1b 00
        E 0 90 1d 28
        E 112 b0 0b 10
        E 112 b0 0b 28
        E 0 80 1d 00
        E 0 90 1f 28
        E 128 b0 0b 10
        E 112 b0 0b 28
        E 128 80 1f 00
        E 0 90 1d 28
        E 112 b0 0b 10
        E 128 b0 0b 28
        E 0 80 1d 00
        E 0 90 1b 28
        E 112 80 1b 00
        E 0 90 1d 28
        E 112 b0 0b 10
        E 128 b0 0b 08
        E 112 b0 0b 28
        E 0 80 1d 00
        E 0 90 18 28
        E 128 b0 0b 10
        E 112 b0 0b 08
        E 240 b0 0c 10
        E 0 b0 0b 20
        E 0 80 18 00
        E 0 90 33 20
        E 256 b0 0b 18
        E 288 b0 0b 10
        E 272 b0 0b 08
        E 128 b0 0b 20
        E 16 b0 0b 18
        E 32 b0 0b 10
        E 32 b0 0b 08
        E 32 80 33 00
        E 16 b0 0b 20
        E 0 90 33 20
        E 16 b0 0b 18
        E 48 b0 0b 10
        E 32 b0 0b 08
        E 32 80 33 00
        E 224 b0 0c 40
        E 0 b0 0b 28
        E 0 90 22 28
        E 16 b0 0b 20
        E 32 b0 0b 18
        E 32 b0 0b 10
        E 160 b0 0b 28
        E 128 b0 0b 20
        E 32 b0 0b 18
        E 32 b0 0b 10
        E 32 b0 0b 08
        E 16 b0 0c 10
        E 0 b0 0b 20
        E 0 80 22 00
        E 0 90 35 20
        E 272 b0 0b 18
        E 80 b0 0b 20
        E 0 80 35 00
        E 0 90 33 20
        E 16 b0 0b 18
        E 32 b0 0b 10
        E 32 b0 0b 08
        E 48 80 33 00
        E 224 b0 0b 10
        E 0 90 33 10
        E 16 b0 0b 08
        E 32 80 33 00
        E 192 90 33 08
        E 48 80 33 00
        E 192 b0 0b 20
        E 0 90 35 20
        E 16 b0 0b 18
        E 32 b0 0b 10
        E 48 b0 0b 08
        E 16 b0 0b 20
        E 16 b0 0b 18
        E 32 b0 0b 10
        E 32 b0 0b 08
        E 32 80 35 00
        E 16 b0 0b 20
        E 0 90 2b 20
        E 16 b0 0b 18
        E 48 b0 0b 10
        E 32 b0 0b 08
        E 16 b0 0b 20
        E 0 80 2b 00
        E 0 90 30 20
        E 16 b0 0b 18
        E 32 b0 0b 10
        E 32 b0 0b 08
        E 32 80 30 00
        E 16 b0 0b 20
        E 0 90 32 20
        E 32 b0 0b 18
        E 32 b0 0b 10
        E 32 b0 0b 08
        E 16 b0 0b 20
        E 0 80 32 00
        E 0 90 33 20
        E 16 b0 0b 18
        E 32 b0 0b 10
        E 32 b0 0b 08
        E 32 b0 0b 20
        E 0 80 33 00
        E 0 90 37 20
        E 16 b0 0b 18
        E 32 b0 0b 10
        E 32 b0 0b 08
        E 32 80 37 00
        E 16 b0 0b 20
        E 0 90 33 20
        E 16 b0 0b 18
        E 32 b0 0b 10
        E 48 b0 0b 08
        E 16 b0 0b 20
        E 0 80 33 00
        E 0 90 32 20
        E 16 b0 0b 18
        E 32 b0 0b 10
        E 32 b0 0b 08
        E 32 80 32 00
        E 16 b0 0b 20
        E 0 90 33 20
        E 16 b0 0b 18
        E 48 b0 0b 10
        E 32 b0 0b 08
        E 16 b0 0b 20
        E 0 80 33 00
        E 0 90 2c 20
        E 16 b0 0b 18
        E 32 b0 0b 10
        E 32 b0 0b 08
        E 32 80 2c 00
        E 16 b0 0b 20
        E 0 90 30 20
        E 32 b0 0b 18
        E 32 b0 0b 10
        E 32 b0 0b 08
        E 16 b0 0b 20
        E 0 80 30 00
        E 0 90 32 20
        E 16 b0 0b 18
        E 32 b0 0b 10
        E 48 b0 0b 08
        E 16 b0 0b 20
        E 0 80 32 00
        E 0 90 33 20
        E 16 b0 0b 18
        E 32 b0 0b 10
        E 32 b0 0b 08
        E 32 80 33 00
        E 16 b0 0b 20
        E 0 90 37 20
        E 16 b0 0b 18
        E 48 b0 0b 10
        E 32 b0 0b 08
        E 16 b0 0b 20
        E 0 80 37 00
        E 0 90 33 20
        E 16 b0 0b 18
        E 32 b0 0b 10
        E 32 b0 0b 08
        E 32 80 33 00
        E 16 b0 0b 20
        E 0 90 32 20
        E 32 b0 0b 18
        E 32 b0 0b 10
        E 32 b0 0b 08
        E 16 b0 0b 20
        E 0 80 32 00
        E 0 90 33 20
        E 16 b0 0b 18
        E 32 b0 0b 10
        E 32 b0 0b 08
        E 32 b0 0b 20
        E 0 80 33 00
        E 0 90 2e 20
        E 16 b0 0b 18
        E 32 b0 0b 10
        E 32 b0 0b 08
        E 32 80 2e 00
        E 16 b0 0b 20
        E 0 90 30 20
        E 16 b0 0b 18
        E 32 b0 0b 10
        E 48 b0 0b 08
        E 16 b0 0b 20
        E 0 80 30 00
        E 0 90 32 20
        E 16 b0 0b 18
        E 32 b0 0b 10
        E 32 b0 0b 08
        E 32 80 32 00
        E 16 b0 0b 20
        E 0 90 33 20
        E 16 b0 0b 18
        E 48 b0 0b 10
        E 32 b0 0b 08
        E 16 b0 0b 20
        E 0 80 33 00
        E 0 90 37 20
        E 16 b0 0b 18
        E 32 b0 0b 10
        E 32 b0 0b 08
        E 32 80 37 00
        E 16 b0 0b 20
        E 0 90 33 20
        E 32 b0 0b 18
        E 32 b0 0b 10
        E 32 b0 0b 08
        E 16 b0 0b 20
        E 0 80 33 00
        E 0 90 32 20
        E 16 b0 0b 18
        E 32 b0 0b 10
        E 32 b0 0b 08
        E 32 b0 0b 20
        E 0 80 32 00
        E 0 90 33 20
        E 16 b0 0b 18
        E 32 b0 0b 10
        E 32 b0 0b 08
        E 32 80 33 00
        E 16 b0 0b 20
        E 0 90 2c 20
        E 16 b0 0b 18
        E 32 b0 0b 10
        E 48 b0 0b 08
        E 16 b0 0b 20
        E 0 80 2c 00
        E 0 90 30 20
        E 16 b0 0b 18
        E 32 b0 0b 10
        E 32 b0 0b 08
        E 32 80 30 00
        E 16 b0 0b 20
        E 0 90 32 20
        E 16 b0 0b 18
        E 48 b0 0b 10
        E 32 b0 0b 08
        E 16 b0 0b 20
        E 0 80 32 00
        E 0 90 33 20
        E 16 b0 0b 18
        E 32 b0 0b 10
        E 32 b0 0b 08
        E 32 b0 0b 20
        E 0 80 33 00
        E 0 90 37 20
        E 16 b0 0b 18
        E 32 b0 0b 10
        E 32 b0 0b 08
        E 32 80 37 00
        E 16 b0 0b 20
        E 0 90 33 20
        E 16 b0 0b 18
        E 32 b0 0b 10
        E 48 b0 0b 08
        E 16 b0 0b 20
        E 0 80 33 00
        E 0 90 32 20
        E 16 b0 0b 18
        E 32 b0 0b 10
        E 32 b0 0b 08
        E 32 80 32 00
        E 16 b0 0b 20
        E 0 90 33 20
        E 16 b0 0b 18
        E 48 b0 0b 10
        E 32 b0 0b 08
        E 16 b0 0b 20
        E 0 80 33 00
        E 0 90 2b 20
        E 16 b0 0b 18
        E 32 b0 0b 10
        E 32 b0 0b 08
        E 32 80 2b 00
        E 16 b0 0b 20
        E 0 90 30 20
        E 32 b0 0b 18
        E 32 b0 0b 10
        E 32 b0 0b 08
        E 16 b0 0b 20
        E 0 80 30 00
        E 0 90 32 20
        E 16 b0 0b 18
        E 32 b0 0b 10
        E 32 b0 0b 08
        E 32 b0 0b 20
        E 0 80 32 00
        E 0 90 33 20
        E 16 b0 0b 18
        E 32 b0 0b 10
        E 32 b0 0b 08
        E 32 80 33 00
        E 16 b0 0b 20
        E 0 90 37 20
        E 16 b0 0b 18
        E 32 b0 0b 10
        E 48 b0 0b 08
        E 16 b0 0b 20
        E 0 80 37 00
        E 0 90 33 20
        E 16 b0 0b 18
        E 32 b0 0b 10
        E 32 b0 0b 08
        E 32 80 33 00
        E 16 b0 0b 20
        E 0 90 32 20
        E 16 b0 0b 18
        E 48 b0 0b 10
        E 32 b0 0b 08
        E 16 b0 0b 20
        E 0 80 32 00
        E 0 90 33 20
        E 16 b0 0b 18
        E 32 b0 0b 10
        E 32 b0 0b 08
        E 32 80 33 00
        E 16 b0 0b 20
        E 0 90 2c 20
        E 32 b0 0b 18
        E 32 b0 0b 10
        E 32 b0 0b 08
        E 16 b0 0b 20
        E 0 80 2c 00
        E 0 90 30 20
        E 16 b0 0b 18
        E 32 b0 0b 10
        E 32 b0 0b 08
        E 32 b0 0b 20
        E 0 80 30 00
        E 0 90 32 20
        E 16 b0 0b 18
        E 32 b0 0b 10
        E 32 b0 0b 08
        E 32 80 32 00
        E 16 b0 0b 20
        E 0 90 33 20
        E 16 b0 0b 18
        E 32 b0 0b 10
        E 48 b0 0b 08
        E 16 b0 0b 20
        E 0 80 33 00
        E 0 90 37 20
        E 16 b0 0b 18
        E 32 b0 0b 10
        E 32 b0 0b 08
        E 32 80 37 00
        E 16 b0 0b 20
        E 0 90 33 20
        E 32 b0 0b 18
        E 32 b0 0b 10
        E 32 b0 0b 08
        E 16 b0 0b 20
        E 0 80 33 00
        E 0 90 32 20
        E 16 b0 0b 18
        E 32 b0 0b 10
        E 32 b0 0b 08
        E 32 b0 0b 20
        E 0 80 32 00
        E 0 90 33 20
        E 16 b0 0b 18
        E 32 b0 0b 10
        E 32 b0 0b 08
        E 32 80 33 00
        E 16 b0 0b 20
        E 0 90 2e 20
        E 16 b0 0b 18
        E 32 b0 0b 10
        E 48 b0 0b 08
        E 16 b0 0b 20
        E 0 80 2e 00
        E 0 90 30 20
        E 16 b0 0b 18
        E 32 b0 0b 10
        E 32 b0 0b 08
        E 32 80 30 00
        E 16 b0 0b 20
        E 0 90 32 20
        E 16 b0 0b 18
        E 48 b0 0b 10
        E 32 b0 0b 08
        E 16 b0 0b 20
        E 0 80 32 00
        E 0 90 33 20
        E 16 b0 0b 18
        E 32 b0 0b 10
        E 32 b0 0b 08
        E 32 80 33 00
        E 16 b0 0b 20
        E 0 90 37 20
        E 32 b0 0b 18
        E 32 b0 0b 10
        E 32 b0 0b 08
        E 16 b0 0b 20
        E 0 80 37 00
        E 0 90 33 20
        E 16 b0 0b 18
        E 32 b0 0b 10
        E 32 b0 0b 08
        E 32 b0 0b 20
        E 0 80 33 00
        E 0 90 32 20
        E 16 b0 0b 18
        E 32 b0 0b 10
        E 32 b0 0b 08
        E 32 80 32 00
        E 16 b0 0b 20
        E 0 90 33 20
        E 16 b0 0b 18
        E 32 b0 0b 10
        E 48 b0 0b 08
        E 16 b0 0b 20
        E 0 80 33 00
        E 0 90 2c 20
        E 16 b0 0b 18
        E 32 b0 0b 10
        E 32 b0 0b 08
        E 32 80 2c 00
        E 16 b0 0b 20
        E 0 90 30 20
        E 16 b0 0b 18
        E 48 b0 0b 10
        E 32 b0 0b 08
        E 16 b0 0b 20
        E 0 80 30 00
        E 0 90 32 20
        E 16 b0 0b 18
        E 32 b0 0b 10
        E 32 b0 0b 08
        E 32 80 32 00
        E 16 b0 0b 20
        E 0 90 33 20
        E 32 b0 0b 18
        E 32 b0 0b 10
        E 32 b0 0b 08
        E 16 b0 0b 20
        E 0 80 33 00
        E 0 90 37 20
        E 16 b0 0b 18
        E 32 b0 0b 10
        E 32 b0 0b 08
        E 32 b0 0b 20
        E 0 80 37 00
        E 0 90 33 20
        E 16 b0 0b 18
        E 32 b0 0b 10
        E 32 b0 0b 08
        E 32 80 33 00
        E 16 b0 0b 20
        E 0 90 32 20
        E 16 b0 0b 18
        E 48 b0 0b 10
        E 32 b0 0b 08
        E 16 b0 0b 20
        E 0 80 32 00
        E 0 90 33 20
        E 16 b0 0b 18
        E 32 b0 0b 10
        E 32 b0 0b 08
        E 32 80 33 00
        E 16 b0 0b 20
        E 0 90 2b 20
        E 32 b0 0b 18
        E 32 b0 0b 10
        E 32 b0 0b 08
        E 16 b0 0b 20
        E 0 80 2b 00
        E 0 90 30 20
        E 16 b0 0b 18
        E 32 b0 0b 10
        E 32 b0 0b 08
        E 32 b0 0b 20
        E 0 80 30 00
        E 0 90 32 20
        E 16 b0 0b 18
        E 32 b0 0b 10
        E 32 b0 0b 08
        E 32 80 32 00
        E 16 b0 0b 20
        E 0 90 33 20
        E 16 b0 0b 18
        E 32 b0 0b 10
        E 48 b0 0b 08
        E 16 b0 0b 20
        E 0 80 33 00
        E 0 90 37 20
        E 16 b0 0b 18
        E 32 b0 0b 10
        E 32 b0 0b 08
        E 32 80 37 00
        E 16 b0 0b 20
        E 0 90 33 20
        E 16 b0 0b 18
        E 48 b0 0b 10
        E 32 b0 0b 08
        E 16 b0 0b 20
        E 0 80 33 00
        E 0 90 32 20
        E 16 b0 0b 18
        E 32 b0 0b 10
        E 32 b0 0b 08
        E 32 80 32 00
        E 16 b0 0b 20
        E 0 90 33 20
        E 32 b0 0b 18
        E 32 b0 0b 10
        E 32 b0 0b 08
        E 16 b0 0b 20
        E 0 80 33 00
        E 0 90 2c 20
        E 16 b0 0b 18
        E 32 b0 0b 10
        E 32 b0 0b 08
        E 32 b0 0b 20
        E 0 80 2c 00
        E 0 90 30 20
        E 16 b0 0b 18
        E 32 b0 0b 10
        E 32 b0 0b 08
        E 32 80 30 00
        E 16 b0 0b 20
        E 0 90 32 20
        E 16 b0 0b 18
        E 32 b0 0b 10
        E 48 b0 0b 08
        E 16 b0 0b 20
        E 0 80 32 00
        E 0 90 33 20
        E 16 b0 0b 18
        E 32 b0 0b 10
        E 32 b0 0b 08
        E 32 80 33 00
        E 16 b0 0b 20
        E 0 90 37 20
        E 16 b0 0b 18
        E 48 b0 0b 10
        E 32 b0 0b 08
        E 16 b0 0b 20
        E 0 80 37 00
        E 0 90 33 20
        E 16 b0 0b 18
        E 32 b0 0b 10
        E 32 b0 0b 08
        E 32 80 33 00
        E 16 b0 0b 20
        E 0 90 32 20
        E 32 b0 0b 18
        E 32 b0 0b 10
        E 32 b0 0b 08
        E 16 b0 0b 20
        E 0 80 32 00
        E 0 90 33 20
        E 16 b0 0b 18
        E 32 b0 0b 10
        E 48 b0 0b 08
        E 16 b0 0b 20
        E 0 80 33 00
        E 0 90 2e 20
        E 16 b0 0b 18
        E 32 b0 0b 10
        E 32 b0 0b 08
        E 32 80 2e 00
        E 16 b0 0b 20
        E 0 90 30 20
        E 16 b0 0b 18
        E 48 b0 0b 10
        E 32 b0 0b 08
        E 16 b0 0b 20
        E 0 80 30 00
        E 0 90 32 20
        E 16 b0 0b 18
        E 32 b0 0b 10
        E 32 b0 0b 08
        E 32 80 32 00
        E 16 b0 0b 20
        E 0 90 33 20
        E 32 b0 0b 18
        E 32 b0 0b 10
        E 32 b0 0b 08
        E 16 b0 0b 20
        E 0 80 33 00
        E 0 90 37 20
        E 16 b0 0b 18
        E 32 b0 0b 10
        E 32 b0 0b 08
        E 32 b0 0b 20
        E 0 80 37 00
        E 0 90 33 20
        E 16 b0 0b 18
        E 32 b0 0b 10
        E 32 b0 0b 08
        E 32 80 33 00
        E 16 b0 0b 20
        E 0 90 32 20
        E 16 b0 0b 18
        E 32 b0 0b 10
        E 48 b0 0b 08
        E 16 b0 0b 20
        E 0 80 32 00
        E 0 90 33 20
        E 16 b0 0b 18
        E 32 b0 0b 10
        E 32 b0 0b 08
        E 32 80 33 00
        E 16 b0 0b 20
        E 0 90 2c 20
        E 16 b0 0b 18
        E 48 b0 0b 10
        E 32 b0 0b 08
        E 16 b0 0b 20
        E 0 80 2c 00
        E 0 90 30 20
        E 16 b0 0b 18
        E 32 b0 0b 10
        E 32 b0 0b 08
        E 32 80 30 00
        E 16 b0 0b 20
        E 0 90 32 20
        E 32 b0 0b 18
        E 32 b0 0b 10
        E 32 b0 0b 08
        E 16 b0 0b 20
        E 0 80 32 00
        E 0 90 33 20
        E 16 b0 0b 18
        E 32 b0 0b 10
        E 32 b0 0b 08
        E 32 b0 0b 20
        E 0 80 33 00
        E 0 90 37 20
        E 16 b0 0b 18
        E 32 b0 0b 10
        E 32 b0 0b 08
        E 32 80 37 00
        E 16 b0 0b 20
        E 0 90 33 20
        E 16 b0 0b 18
        E 32 b0 0b 10
        E 48 b0 0b 08
        E 16 b0 0b 20
        E 0 80 33 00
        E 0 90 32 20
        E 16 b0 0b 18
        E 32 b0 0b 10
        E 32 b0 0b 08
        E 32 80 32 00
        E 16 b0 0b 20
        E 0 90 33 20
        E 16 b0 0b 18
        E 48 b0 0b 10
        E 32 b0 0b 08
        E 16 b0 0b 20
        E 0 80 33 00
        E 0 90 2b 20
        E 16 b0 0b 18
        E 32 b0 0b 10
        E 32 b0 0b 08
        E 32 b0 0b 20
        E 0 80 2b 00
        E 0 90 30 20
        E 16 b0 0b 18
        E 32 b0 0b 10
        E 32 b0 0b 08
        E 32 80 30 00
        E 16 b0 0b 20
        E 0 90 32 20
        E 16 b0 0b 18
        E 32 b0 0b 10
        E 48 b0 0b 08
        E 16 b0 0b 20
        E 0 80 32 00
        E 0 90 33 20
        E 16 b0 0b 18
        E 32 b0 0b 10
        E 32 b0 0b 08
        E 32 80 33 00
        E 16 b0 0b 20
        E 0 90 37 20
        E 16 b0 0b 18
        E 48 b0 0b 10
        E 32 b0 0b 08
        E 16 b0 0b 20
        E 0 80 37 00
        E 0 90 33 20
        E 16 b0 0b 18
        E 32 b0 0b 10
        E 32 b0 0b 08
        E 32 80 33 00
        E 16 b0 0b 20
        E 0 90 32 20
        E 32 b0 0b 18
        E 32 b0 0b 10
        E 32 b0 0b 08
        E 16 b0 0b 20
        E 0 80 32 00
        E 0 90 33 20
        E 16 b0 0b 18
        E 32 b0 0b 10
        E 32 b0 0b 08
        E 32 b0 0b 20
        E 0 80 33 00
        E 0 90 2c 20
        E 16 b0 0b 18
        E 32 b0 0b 10
        E 32 b0 0b 08
        E 32 80 2c 00
        E 16 b0 0b 20
        E 0 90 30 20
        E 16 b0 0b 18
        E 32 b0 0b 10
        E 48 b0 0b 08
        E 16 b0 0b 20
        E 0 80 30 00
        E 0 90 32 20
        E 16 b0 0b 18
        E 32 b0 0b 10
        E 32 b0 0b 08
        E 32 80 32 00
        E 16 b0 0b 20
        E 0 90 33 20
        E 16 b0 0b 18
        E 48 b0 0b 10
        E 32 b0 0b 08
        E 16 b0 0b 20
        E 0 80 33 00
        E 0 90 37 20
        E 16 b0 0b 18
        E 32 b0 0b 10
        E 32 b0 0b 08
        E 32 80 37 00
        E 16 b0 0b 20
        E 0 90 33 20
        E 32 b0 0b 18
        E 32 b0 0b 10
        E 32 b0 0b 08
        E 16 b0 0b 20
        E 0 80 33 00
        E 0 90 32 20
        E 16 b0 0b 18
        E 32 b0 0b 10
        E 32 b0 0b 08
        E 32 b0 0b 20
        E 0 80 32 00
        E 0 90 33 20
        E 16 b0 0b 18
        E 32 b0 0b 10
        E 32 b0 0b 08
        E 32 80 33 00
        E 16 b0 0b 20
        E 0 90 2e 20
        E 16 b0 0b 18
        E 32 b0 0b 10
        E 48 b0 0b 08
        E 16 b0 0b 20
        E 0 80 2e 00
        E 0 90 30 20
        E 16 b0 0b 18
        E 32 b0 0b 10
        E 32 b0 0b 08
        E 32 80 30 00
        E 16 b0 0b 20
        E 0 90 32 20
        E 32 b0 0b 18
        E 32 b0 0b 10
        E 32 b0 0b 08
        E 16 b0 0b 20
        E 0 80 32 00
        E 0 90 33 20
        E 16 b0 0b 18
        E 32 b0 0b 10
        E 32 b0 0b 08
        E 32 b0 0b 20
        E 0 80 33 00
        E 0 90 37 20
        E 16 b0 0b 18
        E 32 b0 0b 10
        E 32 b0 0b 08
        E 32 80 37 00
        E 16 b0 0b 20
        E 0 90 33 20
        E 16 b0 0b 18
        E 32 b0 0b 10
        E 48 b0 0b 08
        E 16 b0 0b 20
        E 0 80 33 00
        E 0 90 32 20
        E 16 b0 0b 18
        E 32 b0 0b 10
        E 32 b0 0b 08
        E 32 80 32 00
        E 16 b0 0b 20
        E 0 90 33 20
        E 16 b0 0b 18
        E 48 b0 0b 10
        E 32 b0 0b 08
        E 16 b0 0b 20
        E 0 80 33 00
        E 0 90 2c 20
        E 16 b0 0b 18
        E 32 b0 0b 10
        E 32 b0 0b 08
        E 32 80 2c 00
        E 16 b0 0b 20
        E 0 90 30 20
        E 32 b0 0b 18
        E 32 b0 0b 10
        E 32 b0 0b 08
        E 16 b0 0b 20
        E 0 80 30 00
        E 0 90 32 20
        E 16 b0 0b 18
        E 32 b0 0b 10
        E 32 b0 0b 08
        E 32 b0 0b 20
        E 0 80 32 00
        E 0 90 33 20
        E 16 b0 0b 18
        E 32 b0 0b 10
        E 32 b0 0b 08
        E 32 80 33 00
        E 16 b0 0b 20
        E 0 90 37 20
        E 16 b0 0b 18
        E 32 b0 0b 10
        E 48 b0 0b 08
        E 16 b0 0b 20
        E 0 80 37 00
        E 0 90 33 20
        E 16 b0 0b 18
        E 32 b0 0b 10
        E 32 b0 0b 08
        E 32 80 33 00
        E 16 b0 0b 20
        E 0 90 32 20
        E 16 b0 0b 18
        E 48 b0 0b 10
        E 32 b0 0b 08
        E 16 b0 0b 20
        E 0 80 32 00
        E 0 90 33 20
        E 16 b0 0b 18
        E 32 b0 0b 10
        E 32 b0 0b 08
        E 32 80 33 00
        E 16 b0 0c 20
        E 0 b0 0b 28
        E 0 90 18 28
        E 32 b0 0b 20
        E 32 b0 0b 18
        E 32 b0 0b 10
        E 64 b0 0b 08
        E 64 b0 0b 28
        E 16 b0 0b 20
        E 32 b0 0b 18
        E 32 b0 0b 10
        E 32 b0 0b 08
        E 16 b0 0b 28
        E 16 b0 0b 20
        E 48 b0 0b 18
        E 32 b0 0b 10
        E 16 b0 0b 28
        E 0 80 18 00
        E 0 90 33 28
        E 16 b0 0b 20
        E 32 b0 0b 18
        E 32 b0 0b 10
        E 32 b0 0b 08
        E 16 b0 0b 28
        E 0 80 33 00
        E 0 90 35 28
        E 32 b0 0b 20
        E 32 b0 0b 18
        E 32 b0 0b 10
        E 16 b0 0b 28
        E 0 80 35 00
        E 0 90 18 28
        E 16 b0 0b 20
        E 32 b0 0b 18
        E 32 b0 0b 10
        E 32 b0 0b 28
        E 0 80 18 00
        E 0 90 37 28
        E 16 b0 0b 20
        E 32 b0 0b 18
        E 32 b0 0b 10
        E 32 b0 0b 08
        E 16 b0 0b 10
        E 48 b0 0b 08
        E 64 b0 0b 28
        E 16 b0 0b 20
        E 32 b0 0b 18
        E 32 b0 0b 10
        E 32 b0 0b 08
        E 16 b0 0b 28
        E 0 80 37 00
        E 0 90 35 28
        E 16 b0 0b 20
        E 48 b0 0b 18
        E 32 b0 0b 10
        E 16 b0 0b 28
        E 0 80 35 00
        E 0 90 18 28
        E 16 b0 0b 20
        E 32 b0 0b 18
        E 32 b0 0b 10
        E 32 b0 0b 08
        E 16 b0 0b 28
        E 0 80 18 00
        E 0 90 33 28
        E 32 b0 0b 20
        E 32 b0 0b 18
        E 32 b0 0b 10
        E 16 b0 0b 28
        E 0 80 33 00
        E 0 90 35 28
        E 16 b0 0b 20
        E 32 b0 0b 18
        E 32 b0 0b 10
        E 32 b0 0b 28
        E 0 80 35 00
        E 0 90 18 28
        E 16 b0 0b 20
        E 32 b0 0b 18
        E 32 b0 0b 10
        E 32 b0 0b 08
        E 16 b0 0b 10
        E 48 b0 0b 08
        E 64 b0 0b 28
        E 16 b0 0b 20
        E 32 b0 0b 18
        E 32 b0 0b 10
        E 32 b0 0b 08
        E 16 b0 0b 10
        E 64 b0 0b 08
        E 48 b0 0b 28
        E 0 80 18 00
        E 0 90 3c 28
        E 16 b0 0b 20
        E 32 b0 0b 18
        E 32 b0 0b 10
        E 32 b0 0b 08
        E 16 b0 0b 10
        E 64 b0 0b 08
        E 48 b0 0b 28
        E 0 80 3c 00
        E 0 90 3a 28
        E 16 b0 0b 20
        E 32 b0 0b 18
        E 48 b0 0b 10
        E 64 b0 0b 08
        E 64 80 3a 00
        E 16 b0 0b 28
        E 0 90 18 28
        E 16 b0 0b 20
        E 48 b0 0b 18
        E 32 b0 0b 10
        E 16 b0 0b 28
        E 0 80 18 00
        E 0 90 37 28
        E 128 b0 0b 10
        E 112 b0 0b 28
        E 112 80 37 00
        E 0 90 35 28
        E 128 b0 0b 10
        E 112 b0 0b 28
        E 0 80 35 00
        E 0 90 33 28
        E 128 80 33 00
        E 0 90 35 28
        E 16 b0 0b 20
        E 48 b0 0b 18
        E 32 b0 0b 10
        E 16 b0 0b 28
        E 0 80 35 00
        E 0 90 18 28
        E 16 b0 0b 20
        E 32 b0 0b 18
        E 32 b0 0b 10
        E 32 b0 0b 08
        E 16 b0 0b 10
        E 64 b0 0b 08
        E 48 b0 0b 28
        E 0 80 18 00
        E 0 90 22 28
        E 16 b0 0b 20
        E 32 b0 0b 18
        E 32 b0 0b 10
        E 80 b0 0b 08
        E 64 80 22 00
        E 16 b0 0b 28
        E 0 90 22 28
        E 16 b0 0b 20
        E 32 b0 0b 18
        E 48 b0 0b 10
        E 16 b0 0b 28
        E 16 b0 0b 20
        E 32 b0 0b 18
        E 32 b0 0b 10
        E 32 b0 0b 08
        E 16 b0 0b 28
        E 0 80 22 00
        E 0 90 33 28
        E 16 b0 0b 20
        E 48 b0 0b 18
        E 32 b0 0b 10
        E 16 b0 0b 28
        E 0 80 33 00
        E 0 90 35 28
        E 16 b0 0b 20
        E 32 b0 0b 18
        E 32 b0 0b 10
        E 32 b0 0b 28
        E 0 80 35 00
        E 0 90 22 28
        E 16 b0 0b 20
        E 32 b0 0b 18
        E 32 b0 0b 10
        E 32 b0 0b 08
        E 16 b0 0b 28
        E 0 80 22 00
        E 0 90 37 28
        E 16 b0 0b 20
        E 32 b0 0b 18
        E 48 b0 0b 10
        E 64 b0 0b 08
        E 64 80 37 00
        E 16 b0 0b 28
        E 0 90 37 28
        E 16 b0 0b 20
        E 48 b0 0b 18
        E 32 b0 0b 10
        E 16 b0 0b 28
        E 0 80 37 00
        E 0 90 35 28
        E 16 b0 0b 20
        E 32 b0 0b 18
        E 32 b0 0b 10
        E 32 b0 0b 08
        E 16 b0 0b 28
        E 0 80 35 00
        E 0 90 22 28
        E 32 b0 0b 20
        E 32 b0 0b 18
        E 32 b0 0b 10
        E 16 b0 0b 28
        E 0 80 22 00
        E 0 90 33 28
        E 16 b0 0b 20
        E 32 b0 0b 18
        E 32 b0 0b 10
        E 32 b0 0b 28
        E 0 80 33 00
        E 0 90 35 28
        E 16 b0 0b 20
        E 32 b0 0b 18
        E 32 b0 0b 10
        E 32 b0 0b 08
        E 16 b0 0b 28
        E 0 80 35 00
        E 0 90 22 28
        E 16 b0 0b 20
        E 32 b0 0b 18
        E 48 b0 0b 10
        E 64 b0 0b 08
        E 64 80 22 00
        E 16 b0 0b 28
        E 0 90 20 28
        E 16 b0 0b 20
        E 48 b0 0b 18
        E 32 b0 0b 10
        E 64 b0 0b 08
        E 64 80 20 00
        E 16 b0 0b 28
        E 0 90 3c 28
        E 32 b0 0b 20
        E 32 b0 0b 18
        E 32 b0 0b 10
        E 64 b0 0b 08
        E 64 b0 0b 28
        E 0 80 3c 00
        E 0 90 3a 28
        E 16 b0 0b 20
        E 32 b0 0b 18
        E 32 b0 0b 10
        E 32 b0 0b 08
        E 16 b0 0b 10
        E 48 b0 0b 08
        E 64 b0 0b 28
        E 0 80 3a 00
        E 0 90 20 28
        E 16 b0 0b 20
        E 32 b0 0b 18
        E 32 b0 0b 10
        E 32 b0 0b 08
        E 16 b0 0b 28
        E 0 80 20 00
        E 0 90 37 28
        E 112 b0 0b 10
        E 112 b0 0b 28
        E 128 80 37 00
        E 0 90 35 28
        E 16 b0 0b 20
        E 32 b0 0b 18
        E 48 b0 0b 10
        E 64 b0 0b 08
        E 64 80 35 00
        E 16 b0 0b 28
        E 0 90 33 28
        E 16 b0 0b 20
        E 48 b0 0b 18
        E 32 b0 0b 10
        E 16 b0 0b 28
        E 0 80 33 00
        E 0 90 35 28
        E 16 b0 0b 20
        E 32 b0 0b 18
        E 32 b0 0b 10
        E 32 b0 0b 08
        E 16 b0 0b 28
        E 0 80 35 00
        E 0 90 20 28
        E 32 b0 0b 20
        E 32 b0 0b 18
        E 32 b0 0b 10
        E 64 b0 0b 08
        E 64 b0 0b 28
        E 0 80 20 00
        E 0 90 18 28
        E 16 b0 0b 20
        E 32 b0 0b 18
        E 32 b0 0b 10
        E 32 b0 0b 08
        E 16 b0 0b 10
        E 48 b0 0b 08
        E 64 b0 0b 28
        E 16 b0 0b 20
        E 32 b0 0b 18
        E 32 b0 0b 10
        E 32 b0 0b 08
        E 16 b0 0b 28
        E 16 b0 0b 20
        E 48 b0 0b 18
        E 32 b0 0b 10
        E 16 b0 0b 28
        E 0 80 18 00
        E 0 90 33 28
        E 16 b0 0b 20
        E 32 b0 0b 18
        E 32 b0 0b 10
        E 32 b0 0b 08
        E 16 b0 0b 28
        E 0 80 33 00
        E 0 90 35 28
        E 32 b0 0b 20
        E 32 b0 0b 18
        E 32 b0 0b 10
        E 16 b0 0b 28
        E 0 80 35 00
        E 0 90 18 28
        E 16 b0 0b 20
        E 32 b0 0b 18
        E 32 b0 0b 10
        E 32 b0 0b 28
        E 0 80 18 00
        E 0 90 37 28
        E 16 b0 0b 20
        E 32 b0 0b 18
        E 32 b0 0b 10
        E 32 b0 0b 08
        E 16 b0 0b 10
        E 64 b0 0b 08
        E 48 b0 0b 28
        E 16 b0 0b 20
        E 32 b0 0b 18
        E 32 b0 0b 10
        E 32 b0 0b 08
        E 16 b0 0b 28
        E 0 80 37 00
        E 0 90 35 28
        E 32 b0 0b 20
        E 32 b0 0b 18
        E 32 b0 0b 10
        E 16 b0 0b 28
        E 0 80 35 00
        E 0 90 18 28
        E 16 b0 0b 20
        E 32 b0 0b 18
        E 32 b0 0b 10
        E 32 b0 0b 28
        E 0 80 18 00
        E 0 90 33 28
        E 16 b0 0b 20
        E 32 b0 0b 18
        E 32 b0 0b 10
        E 32 b0 0b 08
        E 16 b0 0b 28
        E 0 80 33 00
        E 0 90 35 28
        E 16 b0 0b 20
        E 32 b0 0b 18
        E 48 b0 0b 10
        E 16 b0 0b 28
        E 0 80 35 00
        E 0 90 18 28
        E 16 b0 0b 20
        E 32 b0 0b 18
        E 32 b0 0b 10
        E 32 b0 0b 08
        E 16 b0 0b 10
        E 64 b0 0b 08
        E 48 b0 0b 28
        E 16 b0 0b 20
        E 32 b0 0b 18
        E 32 b0 0b 10
        E 32 b0 0b 08
        E 16 b0 0b 10
        E 64 b0 0b 08
        E 48 b0 0b 28
        E 0 80 18 00
        E 0 90 3c 28
        E 16 b0 0b 20
        E 32 b0 0b 18
        E 32 b0 0b 10
        E 80 b0 0b 08
        E 64 80 3c 00
        E 16 b0 0b 28
        E 0 90 3a 28
        E 16 b0 0b 20
        E 32 b0 0b 18
        E 48 b0 0b 10
        E 64 b0 0b 08
        E 64 80 3a 00
        E 16 b0 0b 28
        E 0 90 18 28
        E 16 b0 0b 20
        E 48 b0 0b 18
        E 32 b0 0b 10
        E 16 b0 0b 28
        E 0 80 18 00
        E 0 90 37 28
        E 128 b0 0b 10
        E 112 b0 0b 28
        E 112 80 37 00
        E 0 90 35 28
        E 128 b0 0b 10
        E 112 b0 0b 28
        E 0 80 35 00
        E 0 90 33 28
        E 128 80 33 00
        E 0 90 35 28
        E 32 b0 0b 20
        E 32 b0 0b 18
        E 32 b0 0b 10
        E 16 b0 0b 28
        E 0 80 35 00
        E 0 90 18 28
        E 16 b0 0b 20
        E 32 b0 0b 18
        E 32 b0 0b 10
        E 80 b0 0b 08
        E 64 80 18 00
        E 16 b0 0b 28
        E 0 90 22 28
        E 16 b0 0b 20
        E 32 b0 0b 18
        E 48 b0 0b 10
        E 64 b0 0b 08
        E 64 80 22 00
        E 16 b0 0b 28
        E 0 90 22 28
        E 16 b0 0b 20
        E 48 b0 0b 18
        E 32 b0 0b 10
        E 16 b0 0b 28
        E 16 b0 0b 20
        E 32 b0 0b 18
        E 32 b0 0b 10
        E 32 b0 0b 08
        E 16 b0 0b 28
        E 0 80 22 00
        E 0 90 33 28
        E 32 b0 0b 20
        E 32 b0 0b 18
        E 32 b0 0b 10
        E 16 b0 0b 28
        E 0 80 33 00
        E 0 90 35 28
        E 16 b0 0b 20
        E 32 b0 0b 18
        E 32 b0 0b 10
        E 32 b0 0b 28
        E 0 80 35 00
        E 0 90 22 28
        E 16 b0 0b 20
        E 32 b0 0b 18
        E 32 b0 0b 10
        E 32 b0 0b 08
        E 16 b0 0b 28
        E 0 80 22 00
        E 0 90 37 28
        E 16 b0 0b 20
        E 32 b0 0b 18
        E 48 b0 0b 10
        E 64 b0 0b 08
        E 64 80 37 00
        E 16 b0 0b 28
        E 0 90 37 28
        E 16 b0 0b 20
        E 48 b0 0b 18
        E 32 b0 0b 10
        E 16 b0 0b 28
        E 0 80 37 00
        E 0 90 35 28
        E 16 b0 0b 20
        E 32 b0 0b 18
        E 32 b0 0b 10
        E 32 b0 0b 28
        E 0 80 35 00
        E 0 90 22 28
        E 16 b0 0b 20
        E 32 b0 0b 18
        E 32 b0 0b 10
        E 32 b0 0b 08
        E 16 b0 0b 28
        E 0 80 22 00
        E 0 90 33 28
        E 16 b0 0b 20
        E 32 b0 0b 18
        E 48 b0 0b 10
        E 16 b0 0b 28
        E 0 80 33 00
        E 0 90 35 28
        E 16 b0 0b 20
        E 32 b0 0b 18
        E 32 b0 0b 10
        E 32 b0 0b 08
        E 16 b0 0b 28
        E 0 80 35 00
        E 0 90 22 28
        E 16 b0 0b 20
        E 48 b0 0b 18
        E 32 b0 0b 10
        E 64 b0 0b 08
        E 64 80 22 00
        E 16 b0 0b 28
        E 0 90 20 28
        E 32 b0 0b 20
        E 32 b0 0b 18
        E 32 b0 0b 10
        E 64 b0 0b 08
        E 64 b0 0b 28
        E 0 80 20 00
        E 0 90 3c 28
        E 16 b0 0b 20
        E 32 b0 0b 18
        E 32 b0 0b 10
        E 32 b0 0b 08
        E 16 b0 0b 10
        E 48 b0 0b 08
        E 64 b0 0b 28
        E 0 80 3c 00
        E 0 90 3a 28
        E 16 b0 0b 20
        E 32 b0 0b 18
        E 32 b0 0b 10
        E 32 b0 0b 08
        E 16 b0 0b 10
        E 64 b0 0b 08
        E 48 b0 0b 28
        E 0 80 3a 00
        E 0 90 20 28
        E 16 b0 0b 20
        E 32 b0 0b 18
        E 32 b0 0b 10
        E 32 b0 0b 08
        E 16 b0 0b 28
        E 0 80 20 00
        E 0 90 37 28
        E 112 b0 0b 10
        E 112 b0 0b 28
        E 128 80 37 00
        E 0 90 35 28
        E 16 b0 0b 20
        E 32 b0 0b 18
        E 48 b0 0b 10
        E 64 b0 0b 08
        E 64 80 35 00
        E 16 b0 0b 28
        E 0 90 33 28
        E 32 b0 0b 20
        E 32 b0 0b 18
        E 32 b0 0b 10
        E 16 b0 0b 28
        E 0 80 33 00
        E 0 90 35 28
        E 16 b0 0b 20
        E 32 b0 0b 18
        E 32 b0 0b 10
        E 32 b0 0b 28
        E 0 80 35 00
        E 0 90 20 28
        E 16 b0 0b 20
        E 32 b0 0b 18
        E 32 b0 0b 10
        E 32 b0 0b 08
        E 16 b0 0b 10
        E 48 b0 0b 08
        E 64 b0 0c 10
        E 0 b0 0b 28
        E 0 80 20 00
        E 0 90 18 28
        E 16 b0 0b 20
        E 64 b0 0b 18
        E 48 b0 0b 10
        E 112 b0 0b 28
        E 160 b0 0b 20
        E 64 b0 0b 18
        E 16 b0 0b 28
        E 0 80 18 00
        E 0 90 1f 28
        E 48 b0 0b 20
        E 64 b0 0b 28
        E 0 80 1f 00
        E 0 90 22 28
        E 16 b0 0b 20
        E 64 b0 0b 18
        E 48 b0 0b 10
        E 112 b0 0b 28
        E 0 80 22 00
        E 0 90 24 28
        E 16 b0 0b 20
        E 64 b0 0b 18
        E 48 b0 0b 10
        E 16 b0 0b 08
        E 80 80 24 00
        E 16 b0 0b 28
        E 0 90 24 28
        E 48 b0 0b 20
        E 64 b0 0b 18
        E 16 b0 0b 28
        E 0 80 24 00
        E 0 90 22 28
        E 112 b0 0b 10
        E 112 b0 0b 28
        E 0 80 22 00
        E 0 90 1d 28
        E 128 80 1d 00
        E 0 90 1f 28
        E 64 b0 0b 20
        E 48 b0 0b 28
        E 0 80 1f 00
        E 0 90 1b 28
        E 16 b0 0b 20
        E 64 b0 0b 18
        E 48 b0 0b 28
        E 0 80 1b 00
        E 0 90 1d 28
        E 32 b0 0b 20
        E 64 b0 0b 18
        E 16 b0 0b 28
        E 0 80 1d 00
        E 0 90 18 28
        E 48 b0 0b 20
        E 64 b0 0b 10
        E 128 b0 0b 28
        E 128 b0 0b 20
        E 64 b0 0b 18
        E 48 b0 0b 28
        E 0 80 18 00
        E 0 90 1f 28
        E 16 b0 0b 20
        E 80 b0 0b 18
        E 16 b0 0b 28
        E 0 80 1f 00
        E 0 90 22 28
        E 48 b0 0b 20
        E 64 b0 0b 18
        E 16 b0 0b 10
        E 112 b0 0b 28
        E 0 80 22 00
        E 0 90 24 28
        E 48 b0 0b 20
        E 64 b0 0b 10
        E 16 b0 0b 08
        E 64 80 24 00
        E 48 b0 0b 28
        E 0 90 24 28
        E 48 b0 0b 20
        E 64 b0 0b 28
        E 0 80 24 00
        E 0 90 22 28
        E 128 b0 0b 10
        E 112 b0 0b 28
        E 0 80 22 00
        E 0 90 1d 28
        E 128 80 1d 00
        E 0 90 1f 28
        E 32 b0 0b 20
        E 64 b0 0b 18
        E 16 b0 0b 28
        E 0 80 1f 00
        E 0 90 1b 28
        E 48 b0 0b 20
        E 64 b0 0b 28
        E 0 80 1b 00
        E 0 90 1d 28
        E 16 b0 0b 20
        E 64 b0 0b 18
        E 48 b0 0b 28
        E 0 80 1d 00
        E 0 90 18 28
        E 16 b0 0b 20
        E 80 b0 0b 18
        E 16 b0 0b 10
        E 128 b0 0b 28
        E 160 b0 0b 20
        E 64 b0 0b 28
        E 0 80 18 00
        E 0 90 1f 28
        E 16 b0 0b 20
        E 64 b0 0b 18
        E 48 b0 0b 28
        E 0 80 1f 00
        E 0 90 22 28
        E 16 b0 0b 20
        E 80 b0 0b 18
        E 16 b0 0b 10
        E 128 b0 0b 28
        E 0 80 22 00
        E 0 90 24 28
        E 64 b0 0b 20
        E 48 b0 0b 10
        E 16 b0 0b 08
        E 64 80 24 00
        E 48 b0 0b 28
        E 0 90 24 28
        E 64 b0 0b 20
        E 48 b0 0b 28
        E 0 80 24 00
        E 0 90 22 28
        E 112 b0 0b 10
        E 128 b0 0b 28
        E 0 80 22 00
        E 0 90 1d 28
        E 112 80 1d 00
        E 0 90 1f 28
        E 16 b0 0b 20
        E 64 b0 0b 18
        E 48 b0 0b 28
        E 0 80 1f 00
        E 0 90 1b 28
        E 16 b0 0b 20
        E 80 b0 0b 18
        E 16 b0 0b 28
        E 0 80 1b 00
        E 0 90 1d 28
        E 48 b0 0b 20
        E 64 b0 0b 28
        E 0 80 1d 00
        E 0 90 18 28
        E 16 b0 0b 20
        E 64 b0 0b 18
        E 48 b0 0b 10
        E 112 b0 0b 28
        E 144 b0 0b 20
        E 80 b0 0b 18
        E 16 b0 0b 28
        E 0 80 18 00
        E 0 90 1f 28
        E 48 b0 0b 20
        E 64 b0 0b 18
        E 16 b0 0b 28
        E 0 80 1f 00
        E 0 90 22 28
        E 64 b0 0b 20
        E 48 b0 0b 10
        E 112 b0 0b 28
        E 0 80 22 00
        E 0 90 24 28
        E 16 b0 0b 20
        E 64 b0 0b 18
        E 48 b0 0b 10
        E 16 b0 0b 08
        E 80 80 24 00
        E 16 b0 0b 28
        E 0 90 24 28
        E 48 b0 0b 20
        E 64 b0 0b 18
        E 16 b0 0b 28
        E 0 80 24 00
        E 0 90 22 28
        E 112 b0 0b 10
        E 128 b0 0b 28
        E 0 80 22 00
        E 0 90 1d 28
        E 112 80 1d 00
        E 0 90 1f 28
        E 48 b0 0b 20
        E 64 b0 0b 28
        E 0 80 1f 00
        E 0 90 1b 28
        E 16 b0 0b 20
        E 64 b0 0b 18
        E 48 b0 0b 28
        E 0 80 1b 00
        E 0 90 1d 28
        E 16 b0 0b 20
        E 80 b0 0b 18
        E 16 b0 0c 40
        E 0 b0 0b 28
        E 0 80 1d 00
        E 0 90 18 28
        E 48 b0 0b 20
        E 64 b0 0b 18
        E 16 b0 0b 10
        E 112 b0 0b 28
        E 240 80 18 00
        E 0 90 1b 28
        E 112 80 1b 00
        E 0 90 1d 28
        E 128 b0 0b 10
        E 112 b0 0b 28
        E 0 80 1d 00
        E 0 90 1f 28
        E 128 b0 0b 10
        E 112 b0 0b 28
        E 112 80 1f 00
        E 0 90 1d 28
        E 128 b0 0b 10
        E 112 b0 0b 28
        E 0 80 1d 00
        E 0 90 1b 28
        E 128 80 1b 00
        E 0 90 1d 28
        E 112 b0 0b 10
        E 128 b0 0b 08
        E 112 b0 0b 28
        E 0 80 1d 00
        E 0 90 18 28
        E 112 b0 0b 10
        E 128 b0 0b 08
        E 240 b0 0c 10
        E 0 b0 0b 20
        E 0 80 18 00
        E 0 90 33 20
        E 272 b0 0b 18
        E 272 b0 0b 10
        E 272 b0 0b 08
        E 128 b0 0b 20
        E 16 b0 0b 18
        E 32 b0 0b 10
        E 32 b0 0b 08
        E 32 b0 0b 20
        E 16 b0 0b 18
        E 32 b0 0b 10
        E 32 b0 0b 08
        E 32 80 33 00
        E 256 b0 0c 40
        E 0 b0 0b 28
        E 0 90 18 28
        E 16 b0 0b 20
        E 48 b0 0b 18
        E 32 b0 0b 10
        E 144 b0 0b 28
        E 224 80 18 00
        E 0 90 1b 28
        E 128 80 1b 00
        E 0 90 1d 28
        E 112 b0 0b 10
        E 128 b0 0b 28
        E 0 80 1d 00
        E 0 90 1f 28
        E 112 b0 0b 10
        E 112 b0 0b 28
        E 128 80 1f 00
        E 0 90 1d 28
        E 112 b0 0b 10
        E 128 b0 0b 28
        E 0 80 1d 00
        E 0 90 1b 28
        E 112 80 1b 00
        E 0 90 1d 28
        E 128 b0 0b 10
        E 112 b0 0b 08
        E 112 b0 0b 28
        E 0 80 1d 00
        E 0 90 18 28
        E 128 b0 0b 10
        E 112 b0 0b 08
        E 240 b0 0c 10
        E 0 b0 0b 20
        E 0 80 18 00
        E 0 90 33 20
        E 256 b0 0b 18
        E 288 b0 0b 10
        E 272 b0 0b 08
        E 128 b0 0b 20
        E 16 b0 0b 18
        E 32 b0 0b 10
        E 32 b0 0b 08
        E 32 80 33 00
        E 16 b0 0b 20
        E 0 90 33 20
        E 16 b0 0b 18
        E 32 b0 0b 10
        E 48 b0 0b 08
        E 32 80 33 00
        E 224 b0 0c 40
        E 0 b0 0b 28
        E 0 90 1d 28
        E 16 b0 0b 20
        E 32 b0 0b 18
        E 32 b0 0b 10
        E 32 b0 0b 08
        E 16 b0 0b 10
        E 112 b0 0b 28
        E 240 80 1d 00
        E 0 90 20 28
        E 112 80 20 00
        E 0 90 22 28
        E 128 b0 0b 10
        E 112 b0 0b 28
        E 0 80 22 00
        E 0 90 24 28
        E 112 b0 0b 10
        E 128 b0 0b 28
        E 112 80 24 00
        E 0 90 22 28
        E 128 b0 0b 10
        E 112 b0 0b 28
        E 0 80 22 00
        E 0 90 20 28
        E 128 80 20 00
        E 0 90 22 28
        E 112 b0 0b 10
        E 112 b0 0b 08
        E 128 b0 0b 28
        E 0 80 22 00
        E 0 90 1d 28
        E 112 b0 0b 10
        E 128 b0 0b 08
        E 240 b0 0c 10
        E 0 b0 0b 20
        E 0 80 1d 00
        E 0 90 38 20
        E 272 b0 0b 18
        E 272 b0 0b 10
        E 288 b0 0b 08
        E 112 b0 0b 20
        E 16 b0 0b 18
        E 32 b0 0b 10
        E 48 b0 0b 08
        E 16 b0 0b 20
        E 16 b0 0b 18
        E 32 b0 0b 10
        E 32 b0 0b 08
        E 32 80 38 00
        E 256 b0 0c 40
        E 0 b0 0b 28
        E 0 90 18 28
        E 32 b0 0b 20
        E 32 b0 0b 18
        E 32 b0 0b 10
        E 128 b0 0b 28
        E 240 80 18 00
        E 0 90 1b 28
        E 128 80 1b 00
        E 0 90 1d 28
        E 112 b0 0b 10
        E 128 b0 0b 28
        E 0 80 1d 00
        E 0 90 1f 28
        E 112 b0 0b 10
        E 112 b0 0b 28
        E 128 80 1f 00
        E 0 90 1d 28
        E 112 b0 0b 10
        E 128 b0 0b 28
        E 0 80 1d 00
        E 0 90 1b 28
        E 112 80 1b 00
        E 0 90 1d 28
        E 112 b0 0b 10
        E 128 b0 0b 08
        E 112 b0 0b 28
        E 0 80 1d 00
        E 0 90 18 28
        E 128 b0 0b 10
        E 112 b0 0b 08
        E 240 b0 0c 10
        E 0 b0 0b 20
        E 0 80 18 00
        E 0 90 33 20
        E 256 b0 0b 18
        E 288 b0 0b 10
        E 272 b0 0b 08
        E 128 b0 0b 20
        E 16 b0 0b 18
        E 32 b0 0b 10
        E 32 b0 0b 08
        E 32 80 33 00
        E 16 b0 0b 20
        E 0 90 33 20
        E 16 b0 0b 18
        E 48 b0 0b 10
        E 32 b0 0b 08
        E 32 80 33 00
        E 224 b0 0c 40
        E 0 b0 0b 28
        E 0 90 22 28
        E 16 b0 0b 20
        E 32 b0 0b 18
        E 32 b0 0b 10
        E 160 b0 0b 28
        E 128 b0 0b 20
        E 32 b0 0b 18
        E 32 b0 0b 10
        E 32 b0 0b 08
        E 16 b0 0c 10
        E 0 b0 0b 20
        E 0 80 22 00
        E 0 90 35 20
        E 272 b0 0b 18
        E 80 b0 0b 20
        E 0 80 35 00
        E 0 90 33 20
        E 16 b0 0b 18
        E 32 b0 0b 10
        E 32 b0 0b 08
        E 48 80 33 00
        E 224 b0 0b 10
        E 0 90 33 10
        E 16 b0 0b 08
        E 32 80 33 00
        E 192 90 33 08
        E 48 80 33 00
        E 192 b0 0b 20
        E 0 90 35 20
        E 16 b0 0b 18
        E 32 b0 0b 10
        E 48 b0 0b 08
        E 16 b0 0b 20
        E 16 b0 0b 18
        E 32 b0 0b 10
        E 32 b0 0b 08
        E 32 80 35 00
        E 16 b0 0b 20
        E 0 90 2b 20
        E 16 b0 0b 18
        E 48 b0 0b 10
        E 32 b0 0b 08
        E 16 b0 0b 20
        E 0 80 2b 00
        E 0 90 30 20
        E 16 b0 0b 18
        E 32 b0 0b 10
        E 32 b0 0b 08
        E 32 80 30 00
        E 16 b0 0b 20
        E 0 90 32 20
        E 32 b0 0b 18
        E 32 b0 0b 10
        E 32 b0 0b 08
        E 16 b0 0b 20
        E 0 80 32 00
        E 0 90 33 20
        E 16 b0 0b 18
        E 32 b0 0b 10
        E 32 b0 0b 08
        E 32 b0 0b 20
        E 0 80 33 00
        E 0 90 37 20
        E 16 b0 0b 18
        E 32 b0 0b 10
        E 32 b0 0b 08
        E 32 80 37 00
        E 16 b0 0b 20
        E 0 90 33 20
        E 16 b0 0b 18
        E 32 b0 0b 10
        E 48 b0 0b 08
        E 16 b0 0b 20
        E 0 80 33 00
        E 0 90 32 20
        E 16 b0 0b 18
        E 32 b0 0b 10
        E 32 b0 0b 08
        E 32 80 32 00
        E 16 b0 0b 20
        E 0 90 33 20
        E 16 b0 0b 18
        E 48 b0 0b 10
        E 32 b0 0b 08
        E 16 b0 0b 20
        E 0 80 33 00
        E 0 90 2c 20
        E 16 b0 0b 18
        E 32 b0 0b 10
        E 32 b0 0b 08
        E 32 80 2c 00
        E 16 b0 0b 20
        E 0 90 30 20
        E 32 b0 0b 18
        E 32 b0 0b 10
        E 32 b0 0b 08
        E 16 b0 0b 20
        E 0 80 30 00
        E 0 90 32 20
        E 16 b0 0b 18
        E 32 b0 0b 10
        E 32 b0 0b 08
        E 32 b0 0b 20
        E 0 80 32 00
        E 0 90 33 20
        E 16 b0 0b 18
        E 32 b0 0b 10
        E 32 b0 0b 08
        E 32 80 33 00
        E 16 b0 0b 20
        E 0 90 37 20
        E 16 b0 0b 18
        E 48 b0 0b 10
        E 32 b0 0b 08
        E 16 b0 0b 20
        E 0 80 37 00
        E 0 90 33 20
        E 16 b0 0b 18
        E 32 b0 0b 10
        E 32 b0 0b 08
        E 32 80 33 00
        E 16 b0 0b 20
        E 0 90 32 20
        E 32 b0 0b 18
        E 32 b0 0b 10
        E 32 b0 0b 08
        E 16 b0 0b 20
        E 0 80 32 00
        E 0 90 33 20
        E 16 b0 0b 18
        E 32 b0 0b 10
        E 32 b0 0b 08
        E 32 b0 0b 20
        E 0 80 33 00
        E 0 90 2e 20
        E 16 b0 0b 18
        E 32 b0 0b 10
        E 32 b0 0b 08
        E 32 80 2e 00
        E 16 b0 0b 20
        E 0 90 30 20
        E 16 b0 0b 18
        E 32 b0 0b 10
        E 48 b0 0b 08
        E 16 b0 0b 20
        E 0 80 30 00
        E 0 90 32 20
        E 16 b0 0b 18
        E 32 b0 0b 10
        E 32 b0 0b 08
        E 32 80 32 00
        E 16 b0 0b 20
        E 0 90 33 20
        E 16 b0 0b 18
        E 48 b0 0b 10
        E 32 b0 0b 08
        E 16 b0 0b 20
        E 0 80 33 00
        E 0 90 37 20
        E 16 b0 0b 18
        E 32 b0 0b 10
        E 32 b0 0b 08
        E 32 80 37 00
        E 16 b0 0b 20
        E 0 90 33 20
        E 32 b0 0b 18
        E 32 b0 0b 10
        E 32 b0 0b 08
        E 16 b0 0b 20
        E 0 80 33 00
        E 0 90 32 20
        E 16 b0 0b 18
        E 32 b0 0b 10
        E 32 b0 0b 08
        E 32 b0 0b 20
        E 0 80 32 00
        E 0 90 33 20
        E 16 b0 0b 18
        E 32 b0 0b 10
        E 32 b0 0b 08
        E 32 80 33 00
        E 16 b0 0b 20
        E 0 90 2c 20
        E 16 b0 0b 18
        E 32 b0 0b 10
        E 48 b0 0b 08
        E 16 b0 0b 20
        E 0 80 2c 00
        E 0 90 30 20
        E 16 b0 0b 18
        E 32 b0 0b 10
        E 32 b0 0b 08
        E 32 80 30 00
        E 16 b0 0b 20
        E 0 90 32 20
        E 16 b0 0b 18
        E 48 b0 0b 10
        E 32 b0 0b 08
        E 16 b0 0b 20
        E 0 80 32 00
        E 0 90 33 20
        E 16 b0 0b 18
        E 32 b0 0b 10
        E 32 b0 0b 08
        E 32 80 33 00
        E 16 b0 0b 20
        E 0 90 37 20
        E 32 b0 0b 18
        E 32 b0 0b 10
        E 32 b0 0b 08
        E 16 b0 0b 20
        E 0 80 37 00
        E 0 90 33 20
        E 16 b0 0b 18
        E 32 b0 0b 10
        E 48 b0 0b 08
        E 16 b0 0b 20
        E 0 80 33 00
        E 0 90 32 20
        E 16 b0 0b 18
        E 32 b0 0b 10
        E 32 b0 0b 08
        E 32 80 32 00
        E 16 b0 0b 20
        E 0 90 33 20
        E 16 b0 0b 18
        E 48 b0 0b 10
        E 32 b0 0b 08
        E 16 b0 0b 20
        E 0 80 33 00
        E 0 90 2b 20
        E 16 b0 0b 18
        E 32 b0 0b 10
        E 32 b0 0b 08
        E 32 80 2b 00
        E 16 b0 0b 20
        E 0 90 30 20
        E 32 b0 0b 18
        E 32 b0 0b 10
        E 32 b0 0b 08
        E 16 b0 0b 20
        E 0 80 30 00
        E 0 90 32 20
        E 16 b0 0b 18
        E 32 b0 0b 10
        E 32 b0 0b 08
        E 32 b0 0b 20
        E 0 80 32 00
        E 0 90 33 20
        E 16 b0 0b 18
        E 32 b0 0b 10
        E 32 b0 0b 08
        E 32 80 33 00
        E 16 b0 0b 20
        E 0 90 37 20
        E 16 b0 0b 18
        E 32 b0 0b 10
        E 48 b0 0b 08
        E 16 b0 0b 20
        E 0 80 37 00
        E 0 90 33 20
        E 16 b0 0b 18
        E 32 b0 0b 10
        E 32 b0 0b 08
        E 32 80 33 00
        E 16 b0 0b 20
        E 0 90 32 20
        E 16 b0 0b 18
        E 48 b0 0b 10
        E 32 b0 0b 08
        E 16 b0 0b 20
        E 0 80 32 00
        E 0 90 33 20
        E 16 b0 0b 18
        E 32 b0 0b 10
        E 32 b0 0b 08
        E 32 80 33 00
        E 16 b0 0b 20
        E 0 90 2c 20
        E 32 b0 0b 18
        E 32 b0 0b 10
        E 32 b0 0b 08
        E 16 b0 0b 20
        E 0 80 2c 00
        E 0 90 30 20
        E 16 b0 0b 18
        E 32 b0 0b 10
        E 32 b0 0b 08
        E 32 b0 0b 20
        E 0 80 30 00
        E 0 90 32 20
        E 16 b0 0b 18
        E 32 b0 0b 10
        E 32 b0 0b 08
        E 32 80 32 00
        E 16 b0 0b 20
        E 0 90 33 20
        E 16 b0 0b 18
        E 32 b0 0b 10
        E 48 b0 0b 08
        E 16 b0 0b 20
        E 0 80 33 00
        E 0 90 37 20
        E 16 b0 0b 18
        E 32 b0 0b 10
        E 32 b0 0b 08
        E 32 80 37 00
        E 16 b0 0b 20
        E 0 90 33 20
        E 16 b0 0b 18
        E 48 b0 0b 10
        E 32 b0 0b 08
        E 16 b0 0b 20
        E 0 80 33 00
        E 0 90 32 20
        E 16 b0 0b 18
        E 32 b0 0b 10
        E 32 b0 0b 08
        E 32 b0 0b 20
        E 0 80 32 00
        E 0 90 33 20
        E 16 b0 0b 18
        E 32 b0 0b 10
        E 32 b0 0b 08
        E 32 80 33 00
        E 16 b0 0b 20
        E 0 90 2e 20
        E 16 b0 0b 18
        E 32 b0 0b 10
        E 48 b0 0b 08
        E 16 b0 0b 20
        E 0 80 2e 00
        E 0 90 30 20
        E 16 b0 0b 18
        E 32 b0 0b 10
        E 32 b0 0b 08
        E 32 80 30 00
        E 16 b0 0b 20
        E 0 90 32 20
        E 16 b0 0b 18
        E 48 b0 0b 10
        E 32 b0 0b 08
        E 16 b0 0b 20
        E 0 80 32 00
        E 0 90 33 20
        E 16 b0 0b 18
        E 32 b0 0b 10
        E 32 b0 0b 08
        E 32 80 33 00
        E 16 b0 0b 20
        E 0 90 37 20
        E 32 b0 0b 18
        E 32 b0 0b 10
        E 32 b0 0b 08
        E 16 b0 0b 20
        E 0 80 37 00
        E 0 90 33 20
        E 16 b0 0b 18
        E 32 b0 0b 10
        E 32 b0 0b 08
        E 32 b0 0b 20
        E 0 80 33 00
        E 0 90 32 20
        E 16 b0 0b 18
        E 32 b0 0b 10
        E 32 b0 0b 08
        E 32 80 32 00
        E 16 b0 0b 20
        E 0 90 33 20
        E 16 b0 0b 18
        E 32 b0 0b 10
        E 48 b0 0b 08
        E 16 b0 0b 20
        E 0 80 33 00
        E 0 90 2c 20
        E 16 b0 0b 18
        E 32 b0 0b 10
        E 32 b0 0b 08
        E 32 80 2c 00
        E 16 b0 0b 20
        E 0 90 30 20
        E 16 b0 0b 18
        E 48 b0 0b 10
        E 32 b0 0b 08
        E 16 b0 0b 20
        E 0 80 30 00
        E 0 90 32 20
        E 16 b0 0b 18
        E 32 b0 0b 10
        E 32 b0 0b 08
        E 32 80 32 00
        E 16 b0 0b 20
        E 0 90 33 20
        E 32 b0 0b 18
        E 32 b0 0b 10
        E 32 b0 0b 08
        E 16 b0 0b 20
        E 0 80 33 00
        E 0 90 37 20
        E 16 b0 0b 18
        E 32 b0 0b 10
        E 32 b0 0b 08
        E 32 b0 0b 20
        E 0 80 37 00
        E 0 90 33 20
        E 16 b0 0b 18
        E 32 b0 0b 10
        E 32 b0 0b 08
        E 32 80 33 00
        E 16 b0 0b 20
        E 0 90 32 20
        E 16 b0 0b 18
        E 32 b0 0b 10
        E 48 b0 0b 08
        E 16 b0 0b 20
        E 0 80 32 00
        E 0 90 33 20
        E 16 b0 0b 18
        E 32 b0 0b 10
        E 32 b0 0b 08
        E 32 80 33 00
        E 16 b0 0b 20
        E 0 90 2b 20
        E 32 b0 0b 18
        E 32 b0 0b 10
        E 32 b0 0b 08
        E 16 b0 0b 20
        E 0 80 2b 00
        E 0 90 30 20
        E 16 b0 0b 18
        E 32 b0 0b 10
        E 32 b0 0b 08
        E 32 b0 0b 20
        E 0 80 30 00
        E 0 90 32 20
        E 16 b0 0b 18
        E 32 b0 0b 10
        E 32 b0 0b 08
        E 32 80 32 00
        E 16 b0 0b 20
        E 0 90 33 20
        E 16 b0 0b 18
        E 32 b0 0b 10
        E 48 b0 0b 08
        E 16 b0 0b 20
        E 0 80 33 00
        E 0 90 37 20
        E 16 b0 0b 18
        E 32 b0 0b 10
        E 32 b0 0b 08
        E 32 80 37 00
        E 16 b0 0b 20
        E 0 90 33 20
        E 16 b0 0b 18
        E 48 b0 0b 10
        E 32 b0 0b 08
        E 16 b0 0b 20
        E 0 80 33 00
        E 0 90 32 20
        E 16 b0 0b 18
        E 32 b0 0b 10
        E 32 b0 0b 08
        E 32 80 32 00
        E 16 b0 0b 20
        E 0 90 33 20
        E 32 b0 0b 18
        E 32 b0 0b 10
        E 32 b0 0b 08
        E 16 b0 0b 20
        E 0 80 33 00
        E 0 90 2c 20
        E 16 b0 0b 18
        E 32 b0 0b 10
        E 32 b0 0b 08
        E 32 b0 0b 20
        E 0 80 2c 00
        E 0 90 30 20
        E 16 b0 0b 18
        E 32 b0 0b 10
        E 32 b0 0b 08
        E 32 80 30 00
        E 16 b0 0b 20
        E 0 90 32 20
        E 16 b0 0b 18
        E 32 b0 0b 10
        E 48 b0 0b 08
        E 16 b0 0b 20
        E 0 80 32 00
        E 0 90 33 20
        E 16 b0 0b 18
        E 32 b0 0b 10
        E 32 b0 0b 08
        E 32 80 33 00
        E 16 b0 0b 20
        E 0 90 37 20
        E 16 b0 0b 18
        E 48 b0 0b 10
        E 32 b0 0b 08
        E 16 b0 0b 20
        E 0 80 37 00
        E 0 90 33 20
        E 16 b0 0b 18
        E 32 b0 0b 10
        E 32 b0 0b 08
        E 32 80 33 00
        E 16 b0 0b 20
        E 0 90 32 20
        E 32 b0 0b 18
        E 32 b0 0b 10
        E 32 b0 0b 08
        E 16 b0 0b 20
        E 0 80 32 00
        E 0 90 33 20
        E 16 b0 0b 18
        E 32 b0 0b 10
        E 32 b0 0b 08
        E 32 b0 0b 20
        E 0 80 33 00
        E 0 90 2e 20
        E 16 b0 0b 18
        E 32 b0 0b 10
        E 32 b0 0b 08
        E 32 80 2e 00
        E 16 b0 0b 20
        E 0 90 30 20
        E 16 b0 0b 18
        E 48 b0 0b 10
        E 32 b0 0b 08
        E 16 b0 0b 20
        E 0 80 30 00
        E 0 90 32 20
        E 16 b0 0b 18
        E 32 b0 0b 10
        E 32 b0 0b 08
        E 32 80 32 00
        E 16 b0 0b 20
        E 0 90 33 20
        E 32 b0 0b 18
        E 32 b0 0b 10
        E 32 b0 0b 08
        E 16 b0 0b 20
        E 0 80 33 00
        E 0 90 37 20
        E 16 b0 0b 18
        E 32 b0 0b 10
        E 32 b0 0b 08
        E 32 b0 0b 20
        E 0 80 37 00
        E 0 90 33 20
        E 16 b0 0b 18
        E 32 b0 0b 10
        E 32 b0 0b 08
        E 32 80 33 00
        E 16 b0 0b 20
        E 0 90 32 20
        E 16 b0 0b 18
        E 32 b0 0b 10
        E 48 b0 0b 08
        E 16 b0 0b 20
        E 0 80 32 00
        E 0 90 33 20
        E 16 b0 0b 18
        E 32 b0 0b 10
        E 32 b0 0b 08
        E 32 80 33 00
        E 16 b0 0b 20
        E 0 90 2c 20
        E 16 b0 0b 18
        E 48 b0 0b 10
        E 32 b0 0b 08
        E 16 b0 0b 20
        E 0 80 2c 00
        E 0 90 30 20
        E 16 b0 0b 18
        E 32 b0 0b 10
        E 32 b0 0b 08
        E 32 80 30 00
        E 16 b0 0b 20
        E 0 90 32 20
        E 32 b0 0b 18
        E 32 b0 0b 10
        E 32 b0 0b 08
        E 16 b0 0b 20
        E 0 80 32 00
        E 0 90 33 20
        E 16 b0 0b 18
        E 32 b0 0b 10
        E 32 b0 0b 08
        E 32 b0 0b 20
        E 0 80 33 00
        E 0 90 37 20
        E 16 b0 0b 18
        E 32 b0 0b 10
        E 32 b0 0b 08
        E 32 80 37 00
        E 16 b0 0b 20
        E 0 90 33 20
        E 16 b0 0b 18
        E 32 b0 0b 10
        E 48 b0 0b 08
        E 16 b0 0b 20
        E 0 80 33 00
        E 0 90 32 20
        E 16 b0 0b 18
        E 32 b0 0b 10
        E 32 b0 0b 08
        E 32 80 32 00
        E 16 b0 0b 20
        E 0 90 33 20
        E 16 b0 0b 18
        E 48 b0 0b 10
        E 32 b0 0b 08
        E 16 b0 0b 20
        E 0 80 33 00
        E 0 90 2b 20
        E 16 b0 0b 18
        E 32 b0 0b 10
        E 32 b0 0b 08
        E 32 80 2b 00
        E 16 b0 0b 20
        E 0 90 30 20
        E 32 b0 0b 18
        E 32 b0 0b 10
        E 32 b0 0b 08
        E 16 b0 0b 20
        E 0 80 30 00
        E 0 90 32 20
        E 16 b0 0b 18
        E 32 b0 0b 10
        E 48 b0 0b 08
        E 16 b0 0b 20
        E 0 80 32 00
        E 0 90 33 20
        E 16 b0 0b 18
        E 32 b0 0b 10
        E 32 b0 0b 08
        E 32 80 33 00
        E 16 b0 0b 20
        E 0 90 37 20
        E 16 b0 0b 18
        E 48 b0 0b 10
        E 32 b0 0b 08
        E 16 b0 0b 20
        E 0 80 37 00
        E 0 90 33 20
        E 16 b0 0b 18
        E 32 b0 0b 10
        E 32 b0 0b 08
        E 32 80 33 00
        E 16 b0 0b 20
        E 0 90 32 20
        E 32 b0 0b 18
        E 32 b0 0b 10
        E 32 b0 0b 08
        E 16 b0 0b 20
        E 0 80 32 00
        E 0 90 33 20
        E 16 b0 0b 18
        E 32 b0 0b 10
        E 32 b0 0b 08
        E 32 b0 0b 20
        E 0 80 33 00
        E 0 90 2c 20
        E 16 b0 0b 18
        E 32 b0 0b 10
        E 32 b0 0b 08
        E 32 80 2c 00
        E 16 b0 0b 20
        E 0 90 30 20
        E 16 b0 0b 18
        E 32 b0 0b 10
        E 48 b0 0b 08
        E 16 b0 0b 20
        E 0 80 30 00
        E 0 90 32 20
        E 16 b0 0b 18
        E 32 b0 0b 10
        E 32 b0 0b 08
        E 32 80 32 00
        E 16 b0 0b 20
        E 0 90 33 20
        E 16 b0 0b 18
        E 48 b0 0b 10
        E 32 b0 0b 08
        E 16 b0 0b 20
        E 0 80 33 00
        E 0 90 37 20
        E 16 b0 0b 18
        E 32 b0 0b 10
        E 32 b0 0b 08
        E 32 80 37 00
        E 16 b0 0b 20
        E 0 90 33 20
        E 32 b0 0b 18
        E 32 b0 0b 10
        E 32 b0 0b 08
        E 16 b0 0b 20
        E 0 80 33 00
        E 0 90 32 20
        E 16 b0 0b 18
        E 32 b0 0b 10
        E 32 b0 0b 08
        E 32 b0 0b 20
        E 0 80 32 00
        E 0 90 33 20
        E 16 b0 0b 18
        E 32 b0 0b 10
        E 32 b0 0b 08
        E 32 80 33 00
        E 16 b0 0b 20
        E 0 90 2e 20
        E 16 b0 0b 18
        E 32 b0 0b 10
        E 48 b0 0b 08
        E 16 b0 0b 20
        E 0 80 2e 00
        E 0 90 30 20
        E 16 b0 0b 18
        E 32 b0 0b 10
        E 32 b0 0b 08
        E 32 80 30 00
        E 16 b0 0b 20
        E 0 90 32 20
        E 16 b0 0b 18
        E 48 b0 0b 10
        E 32 b0 0b 08
        E 16 b0 0b 20
        E 0 80 32 00
        E 0 90 33 20
        E 16 b0 0b 18
        E 32 b0 0b 10
        E 32 b0 0b 08
        E 32 b0 0b 20
        E 0 80 33 00
        E 0 90 37 20
        E 16 b0 0b 18
        E 32 b0 0b 10
        E 32 b0 0b 08
        E 32 80 37 00
        E 16 b0 0b 20
        E 0 90 33 20
        E 16 b0 0b 18
        E 32 b0 0b 10
        E 48 b0 0b 08
        E 16 b0 0b 20
        E 0 80 33 00
        E 0 90 32 20
        E 16 b0 0b 18
        E 32 b0 0b 10
        E 32 b0 0b 08
        E 32 80 32 00
        E 16 b0 0b 20
        E 0 90 33 20
        E 16 b0 0b 18
        E 16 80 33 00
        E 0 ff 2f 00
      >
    >
  >
  <TRACK {C39E649E-7D95-45CC-86C2-B733F5FE0AF6}
    NAME "NES - Pulse 2 [ch1]"
    PEAKCOL 10092441
    BEAT -1
    AUTOMODE 0
    PANLAWFLAGS 3
    VOLPAN 1 0 -1 -1 1
    MUTESOLO 0 0 0
    IPHASE 0
    PLAYOFFS 0 1
    ISBUS 0 0
    BUSCOMP 0 0 0 0 0
    SHOWINMIX 1 0.6667 0.5 1 0.5 0 0 0
    FIXEDLANES 9 0 0 0 0
    SEL 0
    REC 0 5088 1 0 0 0 0 0
    VU 2
    TRACKHEIGHT 0 0 0 0 0 0 0
    INQ 0 0 0 0.5 100 0 0 100
    NCHAN 2
    FX 1
    TRACKID {C39E649E-7D95-45CC-86C2-B733F5FE0AF6}
    PERF 0
    MIDIOUT -1
    MAINSEND 1 0
    <FXCHAIN
      WNDRECT 24 52 700 560
      SHOW 0
      LASTSEL 0
      DOCKED 0
      BYPASS 0 0 0
      <JS "ReapNES Studio/ReapNES_Console.jsfx" ""
        2 15 1 10 80 10 100 2 1 15 1 5 60 10 80 1 1 0 50 0 0 15 1 0 100 0 0 0.500000 0.500000 0.400000 0.300000 0.800000 1 1 0 0 0 0 - - - - - - - - - - - - - - - - - - - - - - - - - -
      >
      FLOATPOS 0 0 0 0
      FXID {2206AA41-6DF1-43C2-8D9C-8324FBBABE9D}
      WAK 0 0
    >
    <ITEM
      POSITION 0
      LENGTH 83.98134
      LOOP 0
      ALLTAKES 0
      FADEIN 0 0 0 0 0 0 0
      FADEOUT 0 0 0 0 0 0 0
      MUTE 0 0
      SEL 0
      IGUID {8CF6E4CA-83D4-449C-9FC4-E8F5DD35EA7F}
      <SOURCE MIDI
        HASDATA 1 480 QN
        CCINTERP 32
        E 0 c1 51
        E 16 b1 0c 10
        E 0 b1 0b 10
        E 0 91 3c 10
        E 128 b1 0b 18
        E 112 b1 0b 20
        E 128 b1 0b 28
        E 112 b1 0b 10
        E 112 b1 0b 18
        E 128 b1 0b 20
        E 112 b1 0b 28
        E 128 b1 0b 10
        E 112 b1 0b 18
        E 128 b1 0b 20
        E 112 b1 0b 28
        E 112 b1 0b 10
        E 128 b1 0b 18
        E 112 b1 0b 20
        E 128 b1 0b 28
        E 112 b1 0b 10
        E 112 b1 0b 18
        E 128 b1 0b 20
        E 112 b1 0b 28
        E 128 81 3c 00
        E 48 b1 0b 20
        E 0 91 2e 20
        E 256 b1 0b 18
        E 272 b1 0b 10
        E 272 b1 0b 08
        E 96 b1 0b 20
        E 16 b1 0b 18
        E 32 b1 0b 10
        E 32 b1 0b 08
        E 32 81 2e 00
        E 16 b1 0b 20
        E 0 91 2e 20
        E 32 b1 0b 18
        E 32 b1 0b 10
        E 32 b1 0b 08
        E 32 81 2e 00
        E 224 b1 0b 10
        E 0 91 3c 10
        E 16 b1 0b 08
        E 32 81 3c 00
        E 64 b1 0b 18
        E 0 91 3c 18
        E 128 b1 0b 20
        E 112 b1 0b 28
        E 112 b1 0b 10
        E 128 b1 0b 18
        E 112 b1 0b 20
        E 128 b1 0b 28
        E 112 b1 0b 10
        E 128 b1 0b 18
        E 112 b1 0b 20
        E 112 b1 0b 28
        E 128 b1 0b 10
        E 112 b1 0b 18
        E 128 b1 0b 20
        E 112 b1 0b 28
        E 128 b1 0b 10
        E 112 b1 0b 18
        E 112 b1 0b 20
        E 128 b1 0b 28
        E 112 81 3c 00
        E 64 b1 0b 20
        E 0 91 2e 20
        E 256 b1 0b 18
        E 288 b1 0b 10
        E 272 b1 0b 08
        E 80 b1 0b 20
        E 32 b1 0b 18
        E 32 b1 0b 10
        E 32 b1 0b 08
        E 16 b1 0b 20
        E 16 b1 0b 18
        E 32 b1 0b 10
        E 32 b1 0b 08
        E 48 81 2e 00
        E 224 b1 0b 10
        E 0 91 41 10
        E 16 b1 0b 08
        E 32 81 41 00
        E 80 b1 0b 18
        E 0 91 41 18
        E 112 b1 0b 20
        E 128 b1 0b 28
        E 112 b1 0b 10
        E 112 b1 0b 18
        E 128 b1 0b 20
        E 112 b1 0b 28
        E 128 b1 0b 10
        E 112 b1 0b 18
        E 112 b1 0b 20
        E 128 b1 0b 28
        E 112 b1 0b 10
        E 128 b1 0b 18
        E 112 b1 0b 20
        E 128 b1 0b 28
        E 112 b1 0b 10
        E 112 b1 0b 18
        E 128 b1 0b 20
        E 112 b1 0b 28
        E 128 81 41 00
        E 48 b1 0b 20
        E 0 91 33 20
        E 256 b1 0b 18
        E 272 b1 0b 10
        E 288 b1 0b 08
        E 80 b1 0b 20
        E 16 b1 0b 18
        E 32 b1 0b 10
        E 32 b1 0b 08
        E 32 b1 0b 20
        E 16 b1 0b 18
        E 32 b1 0b 10
        E 32 b1 0b 08
        E 32 81 33 00
        E 256 b1 0b 10
        E 0 91 3c 10
        E 16 b1 0b 08
        E 48 81 3c 00
        E 48 b1 0b 18
        E 0 91 3c 18
        E 128 b1 0b 20
        E 112 b1 0b 28
        E 112 b1 0b 10
        E 128 b1 0b 18
        E 112 b1 0b 20
        E 128 b1 0b 28
        E 112 b1 0b 10
        E 112 b1 0b 18
        E 128 b1 0b 20
        E 112 b1 0b 28
        E 128 b1 0b 10
        E 112 b1 0b 18
        E 128 b1 0b 20
        E 112 b1 0b 28
        E 112 b1 0b 10
        E 128 b1 0b 18
        E 112 b1 0b 20
        E 128 b1 0b 28
        E 112 81 3c 00
        E 64 b1 0b 20
        E 0 91 2e 20
        E 256 b1 0b 18
        E 288 b1 0b 10
        E 272 b1 0b 08
        E 64 b1 0b 20
        E 16 b1 0b 18
        E 32 b1 0b 10
        E 32 b1 0b 08
        E 32 81 2e 00
        E 16 b1 0b 20
        E 0 91 2e 20
        E 16 b1 0b 18
        E 32 b1 0b 10
        E 48 b1 0b 08
        E 32 81 2e 00
        E 320 b1 0c 40
        E 0 b1 0b 18
        E 0 91 22 18
        E 112 b1 0b 08
        E 128 b1 0b 18
        E 128 b1 0b 10
        E 16 b1 0c 10
        E 0 b1 0b 20
        E 0 81 22 00
        E 0 91 32 20
        E 256 b1 0b 18
        E 96 b1 0b 20
        E 0 81 32 00
        E 0 91 30 20
        E 16 b1 0b 18
        E 32 b1 0b 10
        E 32 b1 0b 08
        E 32 81 30 00
        E 240 b1 0b 10
        E 0 91 30 10
        E 16 b1 0b 08
        E 32 81 30 00
        E 192 91 30 08
        E 48 81 30 00
        E 192 b1 0b 20
        E 0 91 2e 20
        E 16 b1 0b 18
        E 32 b1 0b 10
        E 32 b1 0b 08
        E 32 b1 0b 20
        E 16 b1 0b 18
        E 32 b1 0b 10
        E 32 b1 0b 08
        E 32 81 2e 00
        E 224 b1 0b 10
        E 0 91 2b 10
        E 96 b1 0b 08
        E 16 b1 0b 10
        E 0 81 2b 00
        E 0 91 30 10
        E 80 b1 0b 08
        E 48 b1 0b 10
        E 0 81 30 00
        E 0 91 32 10
        E 96 b1 0b 08
        E 16 b1 0b 10
        E 0 81 32 00
        E 0 91 33 10
        E 80 b1 0b 08
        E 48 b1 0b 10
        E 0 81 33 00
        E 0 91 37 10
        E 96 b1 0b 08
        E 16 b1 0b 10
        E 0 81 37 00
        E 0 91 33 10
        E 80 b1 0b 08
        E 32 b1 0b 10
        E 0 81 33 00
        E 0 91 32 10
        E 80 b1 0b 08
        E 48 b1 0b 10
        E 0 81 32 00
        E 0 91 33 10
        E 96 b1 0b 08
        E 16 b1 0b 10
        E 0 81 33 00
        E 0 91 2c 10
        E 80 b1 0b 08
        E 48 b1 0b 10
        E 0 81 2c 00
        E 0 91 30 10
        E 96 b1 0b 08
        E 16 b1 0b 10
        E 0 81 30 00
        E 0 91 32 10
        E 80 b1 0b 08
        E 32 b1 0b 10
        E 0 81 32 00
        E 0 91 33 10
        E 80 b1 0b 08
        E 48 b1 0b 10
        E 0 81 33 00
        E 0 91 37 10
        E 96 b1 0b 08
        E 16 b1 0b 10
        E 0 81 37 00
        E 0 91 33 10
        E 80 b1 0b 08
        E 48 b1 0b 10
        E 0 81 33 00
        E 0 91 32 10
        E 96 b1 0b 08
        E 16 b1 0b 10
        E 0 81 32 00
        E 0 91 33 10
        E 80 b1 0b 08
        E 48 b1 0b 10
        E 0 81 33 00
        E 0 91 2e 10
        E 96 b1 0b 08
        E 16 b1 0b 10
        E 0 81 2e 00
        E 0 91 30 10
        E 80 b1 0b 08
        E 32 b1 0b 10
        E 0 81 30 00
        E 0 91 32 10
        E 80 b1 0b 08
        E 48 b1 0b 10
        E 0 81 32 00
        E 0 91 33 10
        E 96 b1 0b 08
        E 16 b1 0b 10
        E 0 81 33 00
        E 0 91 37 10
        E 80 b1 0b 08
        E 48 b1 0b 10
        E 0 81 37 00
        E 0 91 33 10
        E 96 b1 0b 08
        E 16 b1 0b 10
        E 0 81 33 00
        E 0 91 32 10
        E 80 b1 0b 08
        E 48 b1 0b 10
        E 0 81 32 00
        E 0 91 33 10
        E 96 b1 0b 08
        E 16 b1 0b 10
        E 0 81 33 00
        E 0 91 2c 10
        E 80 b1 0b 08
        E 32 b1 0b 10
        E 0 81 2c 00
        E 0 91 30 10
        E 80 b1 0b 08
        E 48 b1 0b 10
        E 0 81 30 00
        E 0 91 32 10
        E 96 b1 0b 08
        E 16 b1 0b 10
        E 0 81 32 00
        E 0 91 33 10
        E 80 b1 0b 08
        E 48 b1 0b 10
        E 0 81 33 00
        E 0 91 37 10
        E 96 b1 0b 08
        E 16 b1 0b 10
        E 0 81 37 00
        E 0 91 33 10
        E 80 b1 0b 08
        E 32 b1 0b 10
        E 0 81 33 00
        E 0 91 32 10
        E 32 81 32 00
        E 208 91 2b 10
        E 80 b1 0b 08
        E 48 b1 0b 10
        E 0 81 2b 00
        E 0 91 30 10
        E 96 b1 0b 08
        E 16 b1 0b 10
        E 0 81 30 00
        E 0 91 32 10
        E 80 b1 0b 08
        E 48 b1 0b 10
        E 0 81 32 00
        E 0 91 33 10
        E 96 b1 0b 08
        E 16 b1 0b 10
        E 0 81 33 00
        E 0 91 37 10
        E 80 b1 0b 08
        E 32 b1 0b 10
        E 0 81 37 00
        E 0 91 33 10
        E 80 b1 0b 08
        E 48 b1 0b 10
        E 0 81 33 00
        E 0 91 32 10
        E 96 b1 0b 08
        E 16 b1 0b 10
        E 0 81 32 00
        E 0 91 33 10
        E 80 b1 0b 08
        E 48 b1 0b 10
        E 0 81 33 00
        E 0 91 2c 10
        E 96 b1 0b 08
        E 16 b1 0b 10
        E 0 81 2c 00
        E 0 91 30 10
        E 80 b1 0b 08
        E 48 b1 0b 10
        E 0 81 30 00
        E 0 91 32 10
        E 96 b1 0b 08
        E 16 b1 0b 10
        E 0 81 32 00
        E 0 91 33 10
        E 96 b1 0b 08
        E 16 b1 0b 10
        E 0 81 33 00
        E 0 91 37 10
        E 80 b1 0b 08
        E 48 b1 0b 10
        E 0 81 37 00
        E 0 91 33 10
        E 96 b1 0b 08
        E 16 b1 0b 10
        E 0 81 33 00
        E 0 91 32 10
        E 80 b1 0b 08
        E 48 b1 0b 10
        E 0 81 32 00
        E 0 91 33 10
        E 96 b1 0b 08
        E 16 b1 0b 10
        E 0 81 33 00
        E 0 91 2e 10
        E 80 b1 0b 08
        E 32 b1 0b 10
        E 0 81 2e 00
        E 0 91 30 10
        E 80 b1 0b 08
        E 48 b1 0b 10
        E 0 81 30 00
        E 0 91 32 10
        E 96 b1 0b 08
        E 16 b1 0b 10
        E 0 81 32 00
        E 0 91 33 10
        E 80 b1 0b 08
        E 48 b1 0b 10
        E 0 81 33 00
        E 0 91 37 10
        E 96 b1 0b 08
        E 16 b1 0b 10
        E 0 81 37 00
        E 0 91 33 10
        E 80 b1 0b 08
        E 48 b1 0b 10
        E 0 81 33 00
        E 0 91 32 10
        E 96 b1 0b 08
        E 16 b1 0b 10
        E 0 81 32 00
        E 0 91 33 10
        E 80 b1 0b 08
        E 32 b1 0b 10
        E 0 81 33 00
        E 0 91 2c 10
        E 80 b1 0b 08
        E 48 b1 0b 10
        E 0 81 2c 00
        E 0 91 30 10
        E 96 b1 0b 08
        E 16 b1 0b 10
        E 0 81 30 00
        E 0 91 32 10
        E 80 b1 0b 08
        E 48 b1 0b 10
        E 0 81 32 00
        E 0 91 33 10
        E 96 b1 0b 08
        E 16 b1 0b 10
        E 0 81 33 00
        E 0 91 37 10
        E 80 b1 0b 08
        E 32 b1 0b 10
        E 0 81 37 00
        E 0 91 33 10
        E 80 b1 0b 08
        E 48 b1 0b 10
        E 0 81 33 00
        E 0 91 32 10
        E 32 81 32 00
        E 208 91 2b 10
        E 96 b1 0b 08
        E 16 b1 0b 10
        E 0 81 2b 00
        E 0 91 30 10
        E 80 b1 0b 08
        E 48 b1 0b 10
        E 0 81 30 00
        E 0 91 32 10
        E 96 b1 0b 08
        E 16 b1 0b 10
        E 0 81 32 00
        E 0 91 33 10
        E 80 b1 0b 08
        E 32 b1 0b 10
        E 0 81 33 00
        E 0 91 37 10
        E 80 b1 0b 08
        E 48 b1 0b 10
        E 0 81 37 00
        E 0 91 33 10
        E 96 b1 0b 08
        E 16 b1 0b 10
        E 0 81 33 00
        E 0 91 32 10
        E 80 b1 0b 08
        E 48 b1 0b 10
        E 0 81 32 00
        E 0 91 33 10
        E 96 b1 0b 08
        E 16 b1 0b 10
        E 0 81 33 00
        E 0 91 2c 10
        E 80 b1 0b 08
        E 48 b1 0b 10
        E 0 81 2c 00
        E 0 91 30 10
        E 96 b1 0b 08
        E 16 b1 0b 10
        E 0 81 30 00
        E 0 91 32 10
        E 80 b1 0b 08
        E 32 b1 0b 10
        E 0 81 32 00
        E 0 91 33 10
        E 80 b1 0b 08
        E 48 b1 0b 10
        E 0 81 33 00
        E 0 91 37 10
        E 96 b1 0b 08
        E 16 b1 0b 10
        E 0 81 37 00
        E 0 91 33 10
        E 80 b1 0b 08
        E 48 b1 0b 10
        E 0 81 33 00
        E 0 91 32 10
        E 96 b1 0b 08
        E 16 b1 0b 10
        E 0 81 32 00
        E 0 91 33 10
        E 80 b1 0b 08
        E 32 b1 0b 10
        E 0 81 33 00
        E 0 91 2e 10
        E 80 b1 0b 08
        E 48 b1 0b 10
        E 0 81 2e 00
        E 0 91 30 10
        E 96 b1 0b 08
        E 16 b1 0b 10
        E 0 81 30 00
        E 0 91 32 10
        E 80 b1 0b 08
        E 48 b1 0b 10
        E 0 81 32 00
        E 0 91 33 10
        E 96 b1 0b 08
        E 16 b1 0b 10
        E 0 81 33 00
        E 0 91 37 10
        E 80 b1 0b 08
        E 48 b1 0b 10
        E 0 81 37 00
        E 0 91 33 10
        E 96 b1 0b 08
        E 16 b1 0b 10
        E 0 81 33 00
        E 0 91 32 10
        E 80 b1 0b 08
        E 32 b1 0b 10
        E 0 81 32 00
        E 0 91 33 10
        E 80 b1 0b 08
        E 48 b1 0b 10
        E 0 81 33 00
        E 0 91 2c 10
        E 96 b1 0b 08
        E 16 b1 0b 10
        E 0 81 2c 00
        E 0 91 30 10
        E 80 b1 0b 08
        E 48 b1 0b 10
        E 0 81 30 00
        E 0 91 32 10
        E 96 b1 0b 08
        E 16 b1 0b 10
        E 0 81 32 00
        E 0 91 33 10
        E 80 b1 0b 08
        E 48 b1 0b 10
        E 0 81 33 00
        E 0 91 37 10
        E 96 b1 0b 08
        E 16 b1 0b 10
        E 0 81 37 00
        E 0 91 33 10
        E 80 b1 0b 08
        E 32 b1 0b 10
        E 0 81 33 00
        E 0 91 32 10
        E 32 81 32 00
        E 208 91 2b 10
        E 80 b1 0b 08
        E 48 b1 0b 10
        E 0 81 2b 00
        E 0 91 30 10
        E 96 b1 0b 08
        E 16 b1 0b 10
        E 0 81 30 00
        E 0 91 32 10
        E 80 b1 0b 08
        E 32 b1 0b 10
        E 0 81 32 00
        E 0 91 33 10
        E 80 b1 0b 08
        E 48 b1 0b 10
        E 0 81 33 00
        E 0 91 37 10
        E 96 b1 0b 08
        E 16 b1 0b 10
        E 0 81 37 00
        E 0 91 33 10
        E 80 b1 0b 08
        E 48 b1 0b 10
        E 0 81 33 00
        E 0 91 32 10
        E 96 b1 0b 08
        E 16 b1 0b 10
        E 0 81 32 00
        E 0 91 33 10
        E 80 b1 0b 08
        E 48 b1 0b 10
        E 0 81 33 00
        E 0 91 2c 10
        E 96 b1 0b 08
        E 16 b1 0b 10
        E 0 81 2c 00
        E 0 91 30 10
        E 80 b1 0b 08
        E 32 b1 0b 10
        E 0 81 30 00
        E 0 91 32 10
        E 80 b1 0b 08
        E 48 b1 0b 10
        E 0 81 32 00
        E 0 91 33 10
        E 96 b1 0b 08
        E 16 b1 0b 10
        E 0 81 33 00
        E 0 91 37 10
        E 80 b1 0b 08
        E 48 b1 0b 10
        E 0 81 37 00
        E 0 91 33 10
        E 96 b1 0b 08
        E 16 b1 0b 10
        E 0 81 33 00
        E 0 91 32 10
        E 80 b1 0b 08
        E 48 b1 0b 10
        E 0 81 32 00
        E 0 91 33 10
        E 96 b1 0b 08
        E 16 b1 0b 10
        E 0 81 33 00
        E 0 91 2e 10
        E 96 b1 0b 08
        E 16 b1 0b 10
        E 0 81 2e 00
        E 0 91 30 10
        E 80 b1 0b 08
        E 48 b1 0b 10
        E 0 81 30 00
        E 0 91 32 10
        E 96 b1 0b 08
        E 16 b1 0b 10
        E 0 81 32 00
        E 0 91 33 10
        E 80 b1 0b 08
        E 48 b1 0b 10
        E 0 81 33 00
        E 0 91 37 10
        E 96 b1 0b 08
        E 16 b1 0b 10
        E 0 81 37 00
        E 0 91 33 10
        E 80 b1 0b 08
        E 32 b1 0b 10
        E 0 81 33 00
        E 0 91 32 10
        E 80 b1 0b 08
        E 48 b1 0b 10
        E 0 81 32 00
        E 0 91 33 10
        E 96 b1 0b 08
        E 16 b1 0b 10
        E 0 81 33 00
        E 0 91 2c 10
        E 80 b1 0b 08
        E 48 b1 0b 10
        E 0 81 2c 00
        E 0 91 30 10
        E 96 b1 0b 08
        E 16 b1 0b 10
        E 0 81 30 00
        E 0 91 32 10
        E 80 b1 0b 08
        E 48 b1 0b 10
        E 0 81 32 00
        E 0 91 33 10
        E 96 b1 0b 08
        E 16 b1 0b 10
        E 0 81 33 00
        E 0 91 37 10
        E 80 b1 0b 08
        E 32 b1 0b 10
        E 0 81 37 00
        E 0 91 33 10
        E 80 b1 0b 08
        E 48 b1 0b 10
        E 0 81 33 00
        E 0 91 32 10
        E 32 b1 0c 20
        E 0 b1 0b 28
        E 0 81 32 00
        E 0 91 24 28
        E 16 b1 0b 20
        E 48 b1 0b 18
        E 32 b1 0b 10
        E 64 b1 0b 08
        E 64 81 24 00
        E 16 b1 0b 28
        E 0 91 24 28
        E 32 b1 0b 20
        E 32 b1 0b 18
        E 32 b1 0b 10
        E 16 b1 0b 28
        E 16 b1 0b 20
        E 32 b1 0b 18
        E 48 b1 0b 10
        E 16 b1 0b 28
        E 0 81 24 00
        E 0 91 30 28
        E 16 b1 0b 20
        E 32 b1 0b 18
        E 32 b1 0b 10
        E 32 b1 0b 08
        E 16 b1 0b 28
        E 0 81 30 00
        E 0 91 32 28
        E 16 b1 0b 20
        E 48 b1 0b 18
        E 32 b1 0b 10
        E 16 b1 0b 28
        E 0 81 32 00
        E 0 91 24 28
        E 16 b1 0b 20
        E 32 b1 0b 18
        E 32 b1 0b 10
        E 32 b1 0b 08
        E 16 b1 0b 28
        E 0 81 24 00
        E 0 91 33 28
        E 32 b1 0b 20
        E 32 b1 0b 18
        E 32 b1 0b 10
        E 64 b1 0b 08
        E 64 b1 0b 28
        E 16 b1 0b 20
        E 32 b1 0b 18
        E 32 b1 0b 10
        E 32 b1 0b 08
        E 16 b1 0b 28
        E 0 81 33 00
        E 0 91 32 28
        E 16 b1 0b 20
        E 32 b1 0b 18
        E 48 b1 0b 10
        E 16 b1 0b 28
        E 0 81 32 00
        E 0 91 24 28
        E 16 b1 0b 20
        E 32 b1 0b 18
        E 32 b1 0b 10
        E 32 b1 0b 08
        E 16 b1 0b 28
        E 0 81 24 00
        E 0 91 30 28
        E 16 b1 0b 20
        E 48 b1 0b 18
        E 32 b1 0b 10
        E 16 b1 0b 28
        E 0 81 30 00
        E 0 91 32 28
        E 16 b1 0b 20
        E 32 b1 0b 18
        E 32 b1 0b 10
        E 32 b1 0b 08
        E 16 b1 0b 28
        E 0 81 32 00
        E 0 91 24 28
        E 32 b1 0b 20
        E 32 b1 0b 18
        E 32 b1 0b 10
        E 64 b1 0b 08
        E 64 b1 0b 28
        E 16 b1 0b 20
        E 32 b1 0b 18
        E 32 b1 0b 10
        E 32 b1 0b 08
        E 16 b1 0b 10
        E 48 b1 0b 08
        E 64 b1 0b 28
        E 0 81 24 00
        E 0 91 37 28
        E 16 b1 0b 20
        E 32 b1 0b 18
        E 32 b1 0b 10
        E 32 b1 0b 08
        E 16 b1 0b 10
        E 64 b1 0b 08
        E 48 b1 0b 28
        E 16 b1 0b 20
        E 32 b1 0b 18
        E 32 b1 0b 10
        E 80 b1 0b 08
        E 64 81 37 00
        E 16 b1 0b 28
        E 0 91 24 28
        E 16 b1 0b 20
        E 32 b1 0b 18
        E 48 b1 0b 10
        E 16 81 24 00
        E 0 91 33 10
        E 16 b1 0b 08
        E 32 81 33 00
        E 80 b1 0b 10
        E 0 91 33 10
        E 64 b1 0b 08
        E 48 b1 0b 28
        E 16 b1 0b 20
        E 32 b1 0b 18
        E 32 b1 0b 10
        E 32 b1 0b 08
        E 16 b1 0b 28
        E 0 81 33 00
        E 0 91 32 28
        E 32 b1 0b 20
        E 32 b1 0b 18
        E 32 b1 0b 10
        E 64 b1 0b 08
        E 64 b1 0b 28
        E 0 81 32 00
        E 0 91 30 28
        E 16 b1 0b 20
        E 32 b1 0b 18
        E 32 b1 0b 10
        E 32 b1 0b 08
        E 16 b1 0b 28
        E 0 81 30 00
        E 0 91 32 28
        E 16 b1 0b 20
        E 32 b1 0b 18
        E 48 b1 0b 10
        E 16 b1 0b 28
        E 0 81 32 00
        E 0 91 24 28
        E 16 b1 0b 20
        E 32 b1 0b 18
        E 32 b1 0b 10
        E 32 b1 0b 08
        E 16 b1 0b 10
        E 64 b1 0b 08
        E 48 b1 0b 28
        E 0 81 24 00
        E 0 91 2e 28
        E 16 b1 0b 20
        E 32 b1 0b 18
        E 32 b1 0b 10
        E 32 b1 0b 08
        E 16 b1 0b 10
        E 64 b1 0b 08
        E 48 b1 0b 28
        E 0 81 2e 00
        E 0 91 24 28
        E 16 b1 0b 20
        E 32 b1 0b 18
        E 32 b1 0b 10
        E 32 b1 0b 28
        E 0 81 24 00
        E 0 91 2e 28
        E 16 b1 0b 20
        E 32 b1 0b 18
        E 32 b1 0b 10
        E 32 b1 0b 08
        E 16 b1 0b 28
        E 0 81 2e 00
        E 0 91 30 28
        E 16 b1 0b 20
        E 32 b1 0b 18
        E 48 b1 0b 10
        E 16 b1 0b 28
        E 0 81 30 00
        E 0 91 32 28
        E 16 b1 0b 20
        E 32 b1 0b 18
        E 32 b1 0b 10
        E 32 b1 0b 08
        E 16 b1 0b 28
        E 0 81 32 00
        E 0 91 2e 28
        E 32 b1 0b 20
        E 32 b1 0b 18
        E 32 b1 0b 10
        E 16 b1 0b 28
        E 0 81 2e 00
        E 0 91 33 28
        E 16 b1 0b 20
        E 32 b1 0b 18
        E 32 b1 0b 10
        E 80 b1 0b 08
        E 64 81 33 00
        E 16 b1 0b 28
        E 0 91 33 28
        E 16 b1 0b 20
        E 32 b1 0b 18
        E 48 b1 0b 10
        E 16 b1 0b 28
        E 0 81 33 00
        E 0 91 32 28
        E 16 b1 0b 20
        E 32 b1 0b 18
        E 32 b1 0b 10
        E 32 b1 0b 08
        E 16 b1 0b 28
        E 0 81 32 00
        E 0 91 2e 28
        E 16 b1 0b 20
        E 48 b1 0b 18
        E 32 b1 0b 10
        E 16 b1 0b 28
        E 0 81 2e 00
        E 0 91 30 28
        E 16 b1 0b 20
        E 32 b1 0b 18
        E 32 b1 0b 10
        E 32 b1 0b 08
        E 16 b1 0b 28
        E 0 81 30 00
        E 0 91 32 28
        E 32 b1 0b 20
        E 32 b1 0b 18
        E 32 b1 0b 10
        E 16 b1 0b 28
        E 0 81 32 00
        E 0 91 2e 28
        E 16 b1 0b 20
        E 32 b1 0b 18
        E 32 b1 0b 10
        E 80 b1 0b 08
        E 64 81 2e 00
        E 16 b1 0b 28
        E 0 91 2c 28
        E 16 b1 0b 20
        E 32 b1 0b 18
        E 48 b1 0b 10
        E 64 b1 0b 08
        E 64 81 2c 00
        E 16 b1 0b 28
        E 0 91 37 28
        E 16 b1 0b 20
        E 48 b1 0b 18
        E 32 b1 0b 10
        E 64 b1 0b 08
        E 64 81 37 00
        E 16 b1 0b 28
        E 0 91 37 28
        E 32 b1 0b 20
        E 32 b1 0b 18
        E 32 b1 0b 10
        E 64 b1 0b 08
        E 64 b1 0b 28
        E 0 81 37 00
        E 0 91 2c 28
        E 16 b1 0b 20
        E 32 b1 0b 18
        E 32 b1 0b 10
        E 32 b1 0b 08
        E 16 b1 0b 10
        E 0 81 2c 00
        E 0 91 33 10
        E 16 b1 0b 08
        E 48 81 33 00
        E 48 b1 0b 10
        E 0 91 33 10
        E 48 b1 0b 08
        E 64 81 33 00
        E 16 b1 0b 28
        E 0 91 33 28
        E 32 b1 0b 20
        E 32 b1 0b 18
        E 32 b1 0b 10
        E 16 b1 0b 28
        E 0 81 33 00
        E 0 91 32 28
        E 16 b1 0b 20
        E 32 b1 0b 18
        E 32 b1 0b 10
        E 80 b1 0b 08
        E 64 81 32 00
        E 16 b1 0b 28
        E 0 91 30 28
        E 16 b1 0b 20
        E 32 b1 0b 18
        E 48 b1 0b 10
        E 16 b1 0b 28
        E 0 81 30 00
        E 0 91 32 28
        E 16 b1 0b 20
        E 32 b1 0b 18
        E 32 b1 0b 10
        E 32 b1 0b 08
        E 16 b1 0b 28
        E 0 81 32 00
        E 0 91 2c 28
        E 16 b1 0b 20
        E 48 b1 0b 18
        E 32 b1 0b 10
        E 64 b1 0b 08
        E 64 81 2c 00
        E 16 b1 0b 28
        E 0 91 24 28
        E 32 b1 0b 20
        E 32 b1 0b 18
        E 32 b1 0b 10
        E 64 b1 0b 08
        E 64 b1 0b 28
        E 16 b1 0b 20
        E 32 b1 0b 18
        E 32 b1 0b 10
        E 32 b1 0b 08
        E 16 b1 0b 28
        E 16 b1 0b 20
        E 32 b1 0b 18
        E 48 b1 0b 10
        E 16 b1 0b 28
        E 0 81 24 00
        E 0 91 30 28
        E 16 b1 0b 20
        E 32 b1 0b 18
        E 32 b1 0b 10
        E 32 b1 0b 08
        E 16 b1 0b 28
        E 0 81 30 00
        E 0 91 32 28
        E 16 b1 0b 20
        E 48 b1 0b 18
        E 32 b1 0b 10
        E 16 b1 0b 28
        E 0 81 32 00
        E 0 91 24 28
        E 16 b1 0b 20
        E 32 b1 0b 18
        E 32 b1 0b 10
        E 32 b1 0b 08
        E 16 b1 0b 28
        E 0 81 24 00
        E 0 91 33 28
        E 32 b1 0b 20
        E 32 b1 0b 18
        E 32 b1 0b 10
        E 64 b1 0b 08
        E 64 b1 0b 28
        E 16 b1 0b 20
        E 32 b1 0b 18
        E 32 b1 0b 10
        E 32 b1 0b 08
        E 16 b1 0b 28
        E 0 81 33 00
        E 0 91 32 28
        E 16 b1 0b 20
        E 48 b1 0b 18
        E 32 b1 0b 10
        E 16 b1 0b 28
        E 0 81 32 00
        E 0 91 24 28
        E 16 b1 0b 20
        E 32 b1 0b 18
        E 32 b1 0b 10
        E 32 b1 0b 08
        E 16 b1 0b 28
        E 0 81 24 00
        E 0 91 30 28
        E 32 b1 0b 20
        E 32 b1 0b 18
        E 32 b1 0b 10
        E 16 b1 0b 28
        E 0 81 30 00
        E 0 91 32 28
        E 16 b1 0b 20
        E 32 b1 0b 18
        E 32 b1 0b 10
        E 32 b1 0b 28
        E 0 81 32 00
        E 0 91 24 28
        E 16 b1 0b 20
        E 32 b1 0b 18
        E 32 b1 0b 10
        E 32 b1 0b 08
        E 16 b1 0b 10
        E 48 b1 0b 08
        E 64 b1 0b 28
        E 16 b1 0b 20
        E 32 b1 0b 18
        E 32 b1 0b 10
        E 32 b1 0b 08
        E 16 b1 0b 10
        E 64 b1 0b 08
        E 48 b1 0b 28
        E 0 81 24 00
        E 0 91 37 28
        E 16 b1 0b 20
        E 32 b1 0b 18
        E 32 b1 0b 10
        E 32 b1 0b 08
        E 16 b1 0b 10
        E 64 b1 0b 08
        E 48 b1 0b 28
        E 16 b1 0b 20
        E 32 b1 0b 18
        E 32 b1 0b 10
        E 80 b1 0b 08
        E 64 81 37 00
        E 16 b1 0b 28
        E 0 91 24 28
        E 16 b1 0b 20
        E 32 b1 0b 18
        E 48 b1 0b 10
        E 16 81 24 00
        E 0 91 33 10
        E 16 b1 0b 08
        E 32 81 33 00
        E 80 b1 0b 10
        E 0 91 33 10
        E 64 b1 0b 08
        E 48 b1 0b 28
        E 16 b1 0b 20
        E 32 b1 0b 18
        E 32 b1 0b 10
        E 32 b1 0b 28
        E 0 81 33 00
        E 0 91 32 28
        E 16 b1 0b 20
        E 32 b1 0b 18
        E 32 b1 0b 10
        E 32 b1 0b 08
        E 16 b1 0b 10
        E 48 b1 0b 08
        E 64 b1 0b 28
        E 0 81 32 00
        E 0 91 30 28
        E 16 b1 0b 20
        E 32 b1 0b 18
        E 32 b1 0b 10
        E 32 b1 0b 08
        E 16 b1 0b 28
        E 0 81 30 00
        E 0 91 32 28
        E 16 b1 0b 20
        E 48 b1 0b 18
        E 32 b1 0b 10
        E 16 b1 0b 28
        E 0 81 32 00
        E 0 91 24 28
        E 16 b1 0b 20
        E 32 b1 0b 18
        E 32 b1 0b 10
        E 32 b1 0b 08
        E 16 b1 0b 10
        E 64 b1 0b 08
        E 48 b1 0b 28
        E 0 81 24 00
        E 0 91 2e 28
        E 16 b1 0b 20
        E 32 b1 0b 18
        E 32 b1 0b 10
        E 80 b1 0b 08
        E 64 81 2e 00
        E 16 b1 0b 28
        E 0 91 24 28
        E 16 b1 0b 20
        E 32 b1 0b 18
        E 48 b1 0b 10
        E 16 b1 0b 28
        E 0 81 24 00
        E 0 91 2e 28
        E 16 b1 0b 20
        E 32 b1 0b 18
        E 32 b1 0b 10
        E 32 b1 0b 08
        E 16 b1 0b 28
        E 0 81 2e 00
        E 0 91 30 28
        E 16 b1 0b 20
        E 48 b1 0b 18
        E 32 b1 0b 10
        E 16 b1 0b 28
        E 0 81 30 00
        E 0 91 32 28
        E 16 b1 0b 20
        E 32 b1 0b 18
        E 32 b1 0b 10
        E 32 b1 0b 08
        E 16 b1 0b 28
        E 0 81 32 00
        E 0 91 2e 28
        E 32 b1 0b 20
        E 32 b1 0b 18
        E 32 b1 0b 10
        E 16 b1 0b 28
        E 0 81 2e 00
        E 0 91 33 28
        E 16 b1 0b 20
        E 32 b1 0b 18
        E 32 b1 0b 10
        E 80 b1 0b 08
        E 64 81 33 00
        E 16 b1 0b 28
        E 0 91 33 28
        E 16 b1 0b 20
        E 32 b1 0b 18
        E 48 b1 0b 10
        E 16 b1 0b 28
        E 0 81 33 00
        E 0 91 32 28
        E 16 b1 0b 20
        E 32 b1 0b 18
        E 32 b1 0b 10
        E 32 b1 0b 08
        E 16 b1 0b 28
        E 0 81 32 00
        E 0 91 2e 28
        E 32 b1 0b 20
        E 32 b1 0b 18
        E 32 b1 0b 10
        E 16 b1 0b 28
        E 0 81 2e 00
        E 0 91 30 28
        E 16 b1 0b 20
        E 32 b1 0b 18
        E 32 b1 0b 10
        E 32 b1 0b 28
        E 0 81 30 00
        E 0 91 32 28
        E 16 b1 0b 20
        E 32 b1 0b 18
        E 32 b1 0b 10
        E 32 b1 0b 08
        E 16 b1 0b 28
        E 0 81 32 00
        E 0 91 2e 28
        E 16 b1 0b 20
        E 32 b1 0b 18
        E 48 b1 0b 10
        E 64 b1 0b 08
        E 64 81 2e 00
        E 16 b1 0b 28
        E 0 91 2c 28
        E 16 b1 0b 20
        E 48 b1 0b 18
        E 32 b1 0b 10
        E 64 b1 0b 08
        E 64 81 2c 00
        E 16 b1 0b 28
        E 0 91 37 28
        E 32 b1 0b 20
        E 32 b1 0b 18
        E 32 b1 0b 10
        E 64 b1 0b 08
        E 64 b1 0b 28
        E 16 b1 0b 20
        E 32 b1 0b 18
        E 32 b1 0b 10
        E 32 b1 0b 08
        E 16 b1 0b 10
        E 48 b1 0b 08
        E 64 b1 0b 28
        E 0 81 37 00
        E 0 91 2c 28
        E 16 b1 0b 20
        E 32 b1 0b 18
        E 32 b1 0b 10
        E 32 b1 0b 08
        E 16 b1 0b 10
        E 0 81 2c 00
        E 0 91 33 10
        E 16 b1 0b 08
        E 48 81 33 00
        E 48 b1 0b 10
        E 0 91 33 10
        E 48 b1 0b 08
        E 64 81 33 00
        E 16 b1 0b 28
        E 0 91 33 28
        E 32 b1 0b 20
        E 32 b1 0b 18
        E 32 b1 0b 10
        E 16 b1 0b 28
        E 0 81 33 00
        E 0 91 32 28
        E 16 b1 0b 20
        E 32 b1 0b 18
        E 32 b1 0b 10
        E 80 b1 0b 08
        E 64 81 32 00
        E 16 b1 0b 28
        E 0 91 30 28
        E 16 b1 0b 20
        E 48 b1 0b 18
        E 32 b1 0b 10
        E 16 b1 0b 28
        E 0 81 30 00
        E 0 91 32 28
        E 16 b1 0b 20
        E 32 b1 0b 18
        E 32 b1 0b 10
        E 32 b1 0b 08
        E 16 b1 0b 28
        E 0 81 32 00
        E 0 91 2c 28
        E 32 b1 0b 20
        E 32 b1 0b 18
        E 32 b1 0b 10
        E 64 b1 0b 08
        E 64 b1 0c 10
        E 0 b1 0b 28
        E 0 81 2c 00
        E 0 91 24 28
        E 16 b1 0b 20
        E 64 b1 0b 18
        E 48 b1 0b 10
        E 112 b1 0b 28
        E 144 b1 0b 20
        E 80 b1 0b 18
        E 16 b1 0b 28
        E 0 81 24 00
        E 0 91 2b 28
        E 48 b1 0b 20
        E 64 b1 0b 18
        E 16 b1 0b 28
        E 0 81 2b 00
        E 0 91 2e 28
        E 64 b1 0b 20
        E 48 b1 0b 10
        E 112 b1 0b 28
        E 0 81 2e 00
        E 0 91 30 28
        E 16 b1 0b 20
        E 64 b1 0b 18
        E 48 b1 0b 10
        E 16 b1 0b 08
        E 80 81 30 00
        E 16 b1 0b 28
        E 0 91 30 28
        E 48 b1 0b 20
        E 64 b1 0b 18
        E 16 b1 0b 28
        E 0 81 30 00
        E 0 91 2e 28
        E 112 b1 0b 10
        E 128 b1 0b 28
        E 0 81 2e 00
        E 0 91 29 28
        E 112 81 29 00
        E 0 91 2b 28
        E 48 b1 0b 20
        E 64 b1 0b 28
        E 0 81 2b 00
        E 0 91 27 28
        E 16 b1 0b 20
        E 64 b1 0b 18
        E 48 b1 0b 28
        E 0 81 27 00
        E 0 91 29 28
        E 16 b1 0b 20
        E 80 b1 0b 18
        E 16 b1 0b 28
        E 0 81 29 00
        E 0 91 24 28
        E 48 b1 0b 20
        E 64 b1 0b 18
        E 16 b1 0b 10
        E 112 b1 0b 28
        E 160 b1 0b 20
        E 64 b1 0b 18
        E 16 b1 0b 28
        E 0 81 24 00
        E 0 91 2b 28
        E 48 b1 0b 20
        E 64 b1 0b 28
        E 0 81 2b 00
        E 0 91 2e 28
        E 16 b1 0b 20
        E 64 b1 0b 18
        E 48 b1 0b 10
        E 112 b1 0b 28
        E 0 81 2e 00
        E 0 91 30 28
        E 16 b1 0b 20
        E 64 b1 0b 18
        E 48 b1 0b 10
        E 32 b1 0b 08
        E 64 81 30 00
        E 16 b1 0b 28
        E 0 91 30 28
        E 48 b1 0b 20
        E 64 b1 0b 28
        E 0 81 30 00
        E 0 91 2e 28
        E 128 b1 0b 10
        E 112 b1 0b 28
        E 0 81 2e 00
        E 0 91 29 28
        E 128 81 29 00
        E 0 91 2b 28
        E 16 b1 0b 20
        E 80 b1 0b 18
        E 16 b1 0b 28
        E 0 81 2b 00
        E 0 91 27 28
        E 48 b1 0b 20
        E 64 b1 0b 28
        E 0 81 27 00
        E 0 91 29 28
        E 16 b1 0b 20
        E 64 b1 0b 18
        E 48 b1 0b 28
        E 0 81 29 00
        E 0 91 24 28
        E 16 b1 0b 20
        E 80 b1 0b 18
        E 16 b1 0b 10
        E 128 b1 0b 28
        E 160 b1 0b 20
        E 64 b1 0b 18
        E 16 b1 0b 28
        E 0 81 24 00
        E 0 91 2b 28
        E 64 b1 0b 20
        E 48 b1 0b 28
        E 0 81 2b 00
        E 0 91 2e 28
        E 16 b1 0b 20
        E 64 b1 0b 18
        E 32 b1 0b 10
        E 128 b1 0b 28
        E 0 81 2e 00
        E 0 91 30 28
        E 48 b1 0b 20
        E 64 b1 0b 10
        E 16 b1 0b 08
        E 64 81 30 00
        E 48 b1 0b 28
        E 0 91 30 28
        E 64 b1 0b 20
        E 48 b1 0b 28
        E 0 81 30 00
        E 0 91 2e 28
        E 128 b1 0b 10
        E 112 b1 0b 28
        E 0 81 2e 00
        E 0 91 29 28
        E 112 81 29 00
        E 0 91 2b 28
        E 16 b1 0b 20
        E 64 b1 0b 18
        E 48 b1 0b 28
        E 0 81 2b 00
        E 0 91 27 28
        E 16 b1 0b 20
        E 80 b1 0b 18
        E 16 b1 0b 28
        E 0 81 27 00
        E 0 91 29 28
        E 48 b1 0b 20
        E 64 b1 0b 18
        E 16 b1 0b 28
        E 0 81 29 00
        E 0 91 24 28
        E 64 b1 0b 20
        E 48 b1 0b 10
        E 112 b1 0b 28
        E 144 b1 0b 20
        E 80 b1 0b 18
        E 16 b1 0b 28
        E 0 81 24 00
        E 0 91 2b 28
        E 48 b1 0b 20
        E 64 b1 0b 18
        E 16 b1 0b 28
        E 0 81 2b 00
        E 0 91 2e 28
        E 64 b1 0b 20
        E 48 b1 0b 10
        E 128 b1 0b 28
        E 0 81 2e 00
        E 0 91 30 28
        E 32 b1 0b 20
        E 64 b1 0b 18
        E 16 b1 0b 10
        E 48 b1 0b 08
        E 64 b1 0b 28
        E 16 b1 0b 20
        E 64 b1 0b 18
        E 48 b1 0b 28
        E 0 81 30 00
        E 0 91 2e 28
        E 112 b1 0b 10
        E 128 b1 0b 28
        E 0 81 2e 00
        E 0 91 29 28
        E 112 81 29 00
        E 0 91 2b 28
        E 16 b1 0b 20
        E 64 b1 0b 18
        E 48 b1 0b 28
        E 0 81 2b 00
        E 0 91 27 28
        E 32 b1 0b 20
        E 64 b1 0b 18
        E 16 b1 0b 28
        E 0 81 27 00
        E 0 91 29 28
        E 48 b1 0b 20
        E 64 b1 0b 10
        E 0 81 29 00
        E 0 91 3c 10
        E 16 b1 0b 08
        E 64 81 3c 00
        E 48 b1 0b 18
        E 0 91 3c 18
        E 112 b1 0b 20
        E 128 b1 0b 28
        E 112 b1 0b 10
        E 112 b1 0b 18
        E 128 b1 0b 20
        E 112 b1 0b 28
        E 128 b1 0b 10
        E 112 b1 0b 18
        E 128 b1 0b 20
        E 112 b1 0b 28
        E 112 b1 0b 10
        E 128 b1 0b 18
        E 112 b1 0b 20
        E 128 b1 0b 28
        E 112 b1 0b 10
        E 128 b1 0b 18
        E 112 b1 0b 20
        E 112 b1 0b 28
        E 128 81 3c 00
        E 48 b1 0b 20
        E 0 91 2e 20
        E 256 b1 0b 18
        E 272 b1 0b 10
        E 272 b1 0b 08
        E 96 b1 0b 20
        E 16 b1 0b 18
        E 32 b1 0b 10
        E 32 b1 0b 08
        E 32 81 2e 00
        E 16 b1 0b 20
        E 0 91 2e 20
        E 32 b1 0b 18
        E 32 b1 0b 10
        E 32 b1 0b 08
        E 32 81 2e 00
        E 224 b1 0b 10
        E 0 91 3c 10
        E 16 b1 0b 08
        E 32 81 3c 00
        E 64 b1 0b 18
        E 0 91 3c 18
        E 128 b1 0b 20
        E 112 b1 0b 28
        E 112 b1 0b 10
        E 128 b1 0b 18
        E 112 b1 0b 20
        E 128 b1 0b 28
        E 112 b1 0b 10
        E 128 b1 0b 18
        E 112 b1 0b 20
        E 112 b1 0b 28
        E 128 b1 0b 10
        E 112 b1 0b 18
        E 128 b1 0b 20
        E 112 b1 0b 28
        E 128 b1 0b 10
        E 112 b1 0b 18
        E 112 b1 0b 20
        E 128 b1 0b 28
        E 112 81 3c 00
        E 64 b1 0b 20
        E 0 91 2e 20
        E 256 b1 0b 18
        E 288 b1 0b 10
        E 272 b1 0b 08
        E 80 b1 0b 20
        E 32 b1 0b 18
        E 32 b1 0b 10
        E 32 b1 0b 08
        E 16 b1 0b 20
        E 16 b1 0b 18
        E 32 b1 0b 10
        E 32 b1 0b 08
        E 48 81 2e 00
        E 224 b1 0b 10
        E 0 91 41 10
        E 16 b1 0b 08
        E 32 81 41 00
        E 80 b1 0b 18
        E 0 91 41 18
        E 112 b1 0b 20
        E 128 b1 0b 28
        E 112 b1 0b 10
        E 112 b1 0b 18
        E 128 b1 0b 20
        E 112 b1 0b 28
        E 128 b1 0b 10
        E 112 b1 0b 18
        E 112 b1 0b 20
        E 128 b1 0b 28
        E 112 b1 0b 10
        E 128 b1 0b 18
        E 112 b1 0b 20
        E 128 b1 0b 28
        E 112 b1 0b 10
        E 112 b1 0b 18
        E 128 b1 0b 20
        E 112 b1 0b 28
        E 128 81 41 00
        E 48 b1 0b 20
        E 0 91 33 20
        E 256 b1 0b 18
        E 272 b1 0b 10
        E 288 b1 0b 08
        E 80 b1 0b 20
        E 16 b1 0b 18
        E 32 b1 0b 10
        E 32 b1 0b 08
        E 32 b1 0b 20
        E 16 b1 0b 18
        E 32 b1 0b 10
        E 32 b1 0b 08
        E 32 81 33 00
        E 256 b1 0b 10
        E 0 91 3c 10
        E 16 b1 0b 08
        E 48 81 3c 00
        E 48 b1 0b 18
        E 0 91 3c 18
        E 128 b1 0b 20
        E 112 b1 0b 28
        E 112 b1 0b 10
        E 128 b1 0b 18
        E 112 b1 0b 20
        E 128 b1 0b 28
        E 112 b1 0b 10
        E 112 b1 0b 18
        E 128 b1 0b 20
        E 112 b1 0b 28
        E 128 b1 0b 10
        E 112 b1 0b 18
        E 128 b1 0b 20
        E 112 b1 0b 28
        E 112 b1 0b 10
        E 128 b1 0b 18
        E 112 b1 0b 20
        E 128 b1 0b 28
        E 112 81 3c 00
        E 64 b1 0b 20
        E 0 91 2e 20
        E 256 b1 0b 18
        E 288 b1 0b 10
        E 272 b1 0b 08
        E 64 b1 0b 20
        E 16 b1 0b 18
        E 32 b1 0b 10
        E 32 b1 0b 08
        E 32 81 2e 00
        E 16 b1 0b 20
        E 0 91 2e 20
        E 16 b1 0b 18
        E 32 b1 0b 10
        E 48 b1 0b 08
        E 32 81 2e 00
        E 320 b1 0c 40
        E 0 b1 0b 18
        E 0 91 22 18
        E 112 b1 0b 08
        E 128 b1 0b 18
        E 128 b1 0b 10
        E 16 b1 0c 10
        E 0 b1 0b 20
        E 0 81 22 00
        E 0 91 32 20
        E 256 b1 0b 18
        E 96 b1 0b 20
        E 0 81 32 00
        E 0 91 30 20
        E 16 b1 0b 18
        E 32 b1 0b 10
        E 32 b1 0b 08
        E 32 81 30 00
        E 240 b1 0b 10
        E 0 91 30 10
        E 16 b1 0b 08
        E 32 81 30 00
        E 192 91 30 08
        E 48 81 30 00
        E 192 b1 0b 20
        E 0 91 2e 20
        E 16 b1 0b 18
        E 32 b1 0b 10
        E 32 b1 0b 08
        E 32 b1 0b 20
        E 16 b1 0b 18
        E 32 b1 0b 10
        E 32 b1 0b 08
        E 32 81 2e 00
        E 224 b1 0b 10
        E 0 91 2b 10
        E 96 b1 0b 08
        E 16 b1 0b 10
        E 0 81 2b 00
        E 0 91 30 10
        E 80 b1 0b 08
        E 48 b1 0b 10
        E 0 81 30 00
        E 0 91 32 10
        E 96 b1 0b 08
        E 16 b1 0b 10
        E 0 81 32 00
        E 0 91 33 10
        E 80 b1 0b 08
        E 48 b1 0b 10
        E 0 81 33 00
        E 0 91 37 10
        E 96 b1 0b 08
        E 16 b1 0b 10
        E 0 81 37 00
        E 0 91 33 10
        E 80 b1 0b 08
        E 32 b1 0b 10
        E 0 81 33 00
        E 0 91 32 10
        E 80 b1 0b 08
        E 48 b1 0b 10
        E 0 81 32 00
        E 0 91 33 10
        E 96 b1 0b 08
        E 16 b1 0b 10
        E 0 81 33 00
        E 0 91 2c 10
        E 80 b1 0b 08
        E 48 b1 0b 10
        E 0 81 2c 00
        E 0 91 30 10
        E 96 b1 0b 08
        E 16 b1 0b 10
        E 0 81 30 00
        E 0 91 32 10
        E 80 b1 0b 08
        E 32 b1 0b 10
        E 0 81 32 00
        E 0 91 33 10
        E 80 b1 0b 08
        E 48 b1 0b 10
        E 0 81 33 00
        E 0 91 37 10
        E 96 b1 0b 08
        E 16 b1 0b 10
        E 0 81 37 00
        E 0 91 33 10
        E 80 b1 0b 08
        E 48 b1 0b 10
        E 0 81 33 00
        E 0 91 32 10
        E 96 b1 0b 08
        E 16 b1 0b 10
        E 0 81 32 00
        E 0 91 33 10
        E 80 b1 0b 08
        E 48 b1 0b 10
        E 0 81 33 00
        E 0 91 2e 10
        E 96 b1 0b 08
        E 16 b1 0b 10
        E 0 81 2e 00
        E 0 91 30 10
        E 80 b1 0b 08
        E 32 b1 0b 10
        E 0 81 30 00
        E 0 91 32 10
        E 80 b1 0b 08
        E 48 b1 0b 10
        E 0 81 32 00
        E 0 91 33 10
        E 96 b1 0b 08
        E 16 b1 0b 10
        E 0 81 33 00
        E 0 91 37 10
        E 80 b1 0b 08
        E 48 b1 0b 10
        E 0 81 37 00
        E 0 91 33 10
        E 96 b1 0b 08
        E 16 b1 0b 10
        E 0 81 33 00
        E 0 91 32 10
        E 80 b1 0b 08
        E 48 b1 0b 10
        E 0 81 32 00
        E 0 91 33 10
        E 96 b1 0b 08
        E 16 b1 0b 10
        E 0 81 33 00
        E 0 91 2c 10
        E 80 b1 0b 08
        E 32 b1 0b 10
        E 0 81 2c 00
        E 0 91 30 10
        E 80 b1 0b 08
        E 48 b1 0b 10
        E 0 81 30 00
        E 0 91 32 10
        E 96 b1 0b 08
        E 16 b1 0b 10
        E 0 81 32 00
        E 0 91 33 10
        E 80 b1 0b 08
        E 48 b1 0b 10
        E 0 81 33 00
        E 0 91 37 10
        E 96 b1 0b 08
        E 16 b1 0b 10
        E 0 81 37 00
        E 0 91 33 10
        E 80 b1 0b 08
        E 32 b1 0b 10
        E 0 81 33 00
        E 0 91 32 10
        E 32 81 32 00
        E 208 91 2b 10
        E 80 b1 0b 08
        E 48 b1 0b 10
        E 0 81 2b 00
        E 0 91 30 10
        E 96 b1 0b 08
        E 16 b1 0b 10
        E 0 81 30 00
        E 0 91 32 10
        E 80 b1 0b 08
        E 48 b1 0b 10
        E 0 81 32 00
        E 0 91 33 10
        E 96 b1 0b 08
        E 16 b1 0b 10
        E 0 81 33 00
        E 0 91 37 10
        E 80 b1 0b 08
        E 32 b1 0b 10
        E 0 81 37 00
        E 0 91 33 10
        E 80 b1 0b 08
        E 48 b1 0b 10
        E 0 81 33 00
        E 0 91 32 10
        E 96 b1 0b 08
        E 16 b1 0b 10
        E 0 81 32 00
        E 0 91 33 10
        E 80 b1 0b 08
        E 48 b1 0b 10
        E 0 81 33 00
        E 0 91 2c 10
        E 96 b1 0b 08
        E 16 b1 0b 10
        E 0 81 2c 00
        E 0 91 30 10
        E 80 b1 0b 08
        E 48 b1 0b 10
        E 0 81 30 00
        E 0 91 32 10
        E 96 b1 0b 08
        E 16 b1 0b 10
        E 0 81 32 00
        E 0 91 33 10
        E 80 b1 0b 08
        E 32 b1 0b 10
        E 0 81 33 00
        E 0 91 37 10
        E 80 b1 0b 08
        E 48 b1 0b 10
        E 0 81 37 00
        E 0 91 33 10
        E 96 b1 0b 08
        E 16 b1 0b 10
        E 0 81 33 00
        E 0 91 32 10
        E 80 b1 0b 08
        E 48 b1 0b 10
        E 0 81 32 00
        E 0 91 33 10
        E 96 b1 0b 08
        E 16 b1 0b 10
        E 0 81 33 00
        E 0 91 2e 10
        E 80 b1 0b 08
        E 32 b1 0b 10
        E 0 81 2e 00
        E 0 91 30 10
        E 80 b1 0b 08
        E 48 b1 0b 10
        E 0 81 30 00
        E 0 91 32 10
        E 96 b1 0b 08
        E 16 b1 0b 10
        E 0 81 32 00
        E 0 91 33 10
        E 80 b1 0b 08
        E 48 b1 0b 10
        E 0 81 33 00
        E 0 91 37 10
        E 96 b1 0b 08
        E 16 b1 0b 10
        E 0 81 37 00
        E 0 91 33 10
        E 80 b1 0b 08
        E 48 b1 0b 10
        E 0 81 33 00
        E 0 91 32 10
        E 96 b1 0b 08
        E 16 b1 0b 10
        E 0 81 32 00
        E 0 91 33 10
        E 80 b1 0b 08
        E 32 b1 0b 10
        E 0 81 33 00
        E 0 91 2c 10
        E 80 b1 0b 08
        E 48 b1 0b 10
        E 0 81 2c 00
        E 0 91 30 10
        E 96 b1 0b 08
        E 16 b1 0b 10
        E 0 81 30 00
        E 0 91 32 10
        E 80 b1 0b 08
        E 48 b1 0b 10
        E 0 81 32 00
        E 0 91 33 10
        E 96 b1 0b 08
        E 16 b1 0b 10
        E 0 81 33 00
        E 0 91 37 10
        E 80 b1 0b 08
        E 48 b1 0b 10
        E 0 81 37 00
        E 0 91 33 10
        E 96 b1 0b 08
        E 16 b1 0b 10
        E 0 81 33 00
        E 0 91 32 10
        E 32 81 32 00
        E 208 91 2b 10
        E 96 b1 0b 08
        E 16 b1 0b 10
        E 0 81 2b 00
        E 0 91 30 10
        E 80 b1 0b 08
        E 48 b1 0b 10
        E 0 81 30 00
        E 0 91 32 10
        E 96 b1 0b 08
        E 16 b1 0b 10
        E 0 81 32 00
        E 0 91 33 10
        E 80 b1 0b 08
        E 32 b1 0b 10
        E 0 81 33 00
        E 0 91 37 10
        E 80 b1 0b 08
        E 48 b1 0b 10
        E 0 81 37 00
        E 0 91 33 10
        E 96 b1 0b 08
        E 16 b1 0b 10
        E 0 81 33 00
        E 0 91 32 10
        E 80 b1 0b 08
        E 48 b1 0b 10
        E 0 81 32 00
        E 0 91 33 10
        E 96 b1 0b 08
        E 16 b1 0b 10
        E 0 81 33 00
        E 0 91 2c 10
        E 80 b1 0b 08
        E 48 b1 0b 10
        E 0 81 2c 00
        E 0 91 30 10
        E 96 b1 0b 08
        E 16 b1 0b 10
        E 0 81 30 00
        E 0 91 32 10
        E 80 b1 0b 08
        E 32 b1 0b 10
        E 0 81 32 00
        E 0 91 33 10
        E 80 b1 0b 08
        E 48 b1 0b 10
        E 0 81 33 00
        E 0 91 37 10
        E 96 b1 0b 08
        E 16 b1 0b 10
        E 0 81 37 00
        E 0 91 33 10
        E 80 b1 0b 08
        E 48 b1 0b 10
        E 0 81 33 00
        E 0 91 32 10
        E 96 b1 0b 08
        E 16 b1 0b 10
        E 0 81 32 00
        E 0 91 33 10
        E 80 b1 0b 08
        E 32 b1 0b 10
        E 0 81 33 00
        E 0 91 2e 10
        E 80 b1 0b 08
        E 48 b1 0b 10
        E 0 81 2e 00
        E 0 91 30 10
        E 96 b1 0b 08
        E 16 b1 0b 10
        E 0 81 30 00
        E 0 91 32 10
        E 80 b1 0b 08
        E 48 b1 0b 10
        E 0 81 32 00
        E 0 91 33 10
        E 96 b1 0b 08
        E 16 b1 0b 10
        E 0 81 33 00
        E 0 91 37 10
        E 80 b1 0b 08
        E 48 b1 0b 10
        E 0 81 37 00
        E 0 91 33 10
        E 96 b1 0b 08
        E 16 b1 0b 10
        E 0 81 33 00
        E 0 91 32 10
        E 80 b1 0b 08
        E 32 b1 0b 10
        E 0 81 32 00
        E 0 91 33 10
        E 80 b1 0b 08
        E 48 b1 0b 10
        E 0 81 33 00
        E 0 91 2c 10
        E 96 b1 0b 08
        E 16 b1 0b 10
        E 0 81 2c 00
        E 0 91 30 10
        E 80 b1 0b 08
        E 48 b1 0b 10
        E 0 81 30 00
        E 0 91 32 10
        E 96 b1 0b 08
        E 16 b1 0b 10
        E 0 81 32 00
        E 0 91 33 10
        E 80 b1 0b 08
        E 48 b1 0b 10
        E 0 81 33 00
        E 0 91 37 10
        E 96 b1 0b 08
        E 16 b1 0b 10
        E 0 81 37 00
        E 0 91 33 10
        E 80 b1 0b 08
        E 32 b1 0b 10
        E 0 81 33 00
        E 0 91 32 10
        E 32 81 32 00
        E 208 91 2b 10
        E 80 b1 0b 08
        E 48 b1 0b 10
        E 0 81 2b 00
        E 0 91 30 10
        E 96 b1 0b 08
        E 16 b1 0b 10
        E 0 81 30 00
        E 0 91 32 10
        E 80 b1 0b 08
        E 32 b1 0b 10
        E 0 81 32 00
        E 0 91 33 10
        E 80 b1 0b 08
        E 48 b1 0b 10
        E 0 81 33 00
        E 0 91 37 10
        E 96 b1 0b 08
        E 16 b1 0b 10
        E 0 81 37 00
        E 0 91 33 10
        E 80 b1 0b 08
        E 48 b1 0b 10
        E 0 81 33 00
        E 0 91 32 10
        E 96 b1 0b 08
        E 16 b1 0b 10
        E 0 81 32 00
        E 0 91 33 10
        E 80 b1 0b 08
        E 48 b1 0b 10
        E 0 81 33 00
        E 0 91 2c 10
        E 96 b1 0b 08
        E 16 b1 0b 10
        E 0 81 2c 00
        E 0 91 30 10
        E 80 b1 0b 08
        E 32 b1 0b 10
        E 0 81 30 00
        E 0 91 32 10
        E 80 b1 0b 08
        E 48 b1 0b 10
        E 0 81 32 00
        E 0 91 33 10
        E 96 b1 0b 08
        E 16 b1 0b 10
        E 0 81 33 00
        E 0 91 37 10
        E 80 b1 0b 08
        E 48 b1 0b 10
        E 0 81 37 00
        E 0 91 33 10
        E 96 b1 0b 08
        E 16 b1 0b 10
        E 0 81 33 00
        E 0 91 32 10
        E 80 b1 0b 08
        E 48 b1 0b 10
        E 0 81 32 00
        E 0 91 33 10
        E 96 b1 0b 08
        E 16 b1 0b 10
        E 0 81 33 00
        E 0 91 2e 10
        E 80 b1 0b 08
        E 32 b1 0b 10
        E 0 81 2e 00
        E 0 91 30 10
        E 80 b1 0b 08
        E 48 b1 0b 10
        E 0 81 30 00
        E 0 91 32 10
        E 96 b1 0b 08
        E 16 b1 0b 10
        E 0 81 32 00
        E 0 91 33 10
        E 80 b1 0b 08
        E 48 b1 0b 10
        E 0 81 33 00
        E 0 91 37 10
        E 96 b1 0b 08
        E 16 b1 0b 10
        E 0 81 37 00
        E 0 91 33 10
        E 80 b1 0b 08
        E 16 81 33 00
        E 0 ff 2f 00
      >
    >
  >
  <TRACK {47BC894E-63B6-4F11-8D89-5357925C7ADF}
    NAME "NES - Triangle [ch2]"
    PEAKCOL 16744192
    BEAT -1
    AUTOMODE 0
    PANLAWFLAGS 3
    VOLPAN 1 0 -1 -1 1
    MUTESOLO 0 0 0
    IPHASE 0
    PLAYOFFS 0 1
    ISBUS 0 0
    BUSCOMP 0 0 0 0 0
    SHOWINMIX 1 0.6667 0.5 1 0.5 0 0 0
    FIXEDLANES 9 0 0 0 0
    SEL 0
    REC 0 5088 1 0 0 0 0 0
    VU 2
    TRACKHEIGHT 0 0 0 0 0 0 0
    INQ 0 0 0 0.5 100 0 0 100
    NCHAN 2
    FX 1
    TRACKID {47BC894E-63B6-4F11-8D89-5357925C7ADF}
    PERF 0
    MIDIOUT -1
    MAINSEND 1 0
    <FXCHAIN
      WNDRECT 24 52 700 560
      SHOW 0
      LASTSEL 0
      DOCKED 0
      BYPASS 0 0 0
      <JS "ReapNES Studio/ReapNES_Console.jsfx" ""
        2 15 1 10 80 10 100 2 1 15 1 5 60 10 80 1 1 0 50 0 0 15 1 0 100 0 0 0.500000 0.500000 0.400000 0.300000 0.800000 2 1 0 0 0 0 - - - - - - - - - - - - - - - - - - - - - - - - - -
      >
      FLOATPOS 0 0 0 0
      FXID {21373DA6-3787-4E80-BBB8-D528F7893EC2}
      WAK 0 0
    >
    <ITEM
      POSITION 0
      LENGTH 83.98134
      LOOP 0
      ALLTAKES 0
      FADEIN 0 0 0 0 0 0 0
      FADEOUT 0 0 0 0 0 0 0
      MUTE 0 0
      SEL 0
      IGUID {8D8BABC0-F040-4019-9539-E5B165EBD640}
      <SOURCE MIDI
        HASDATA 1 480 QN
        CCINTERP 32
        E 0 c2 26
        E 144 b2 0b 7f
        E 0 92 24 7f
        E 384 82 24 00
        E 0 b2 0b 7f
        E 0 92 27 7f
        E 112 82 27 00
        E 0 b2 0b 7f
        E 0 92 29 7f
        E 240 82 29 00
        E 0 b2 0b 7f
        E 0 92 2b 7f
        E 352 82 2b 00
        E 0 b2 0b 7f
        E 0 92 29 7f
        E 240 82 29 00
        E 0 b2 0b 7f
        E 0 92 27 7f
        E 128 82 27 00
        E 0 b2 0b 7f
        E 0 92 29 7f
        E 352 82 29 00
        E 0 b2 0b 7f
        E 0 92 24 7f
        E 2368 82 24 00
        E 0 b2 0b 7f
        E 0 92 27 7f
        E 128 82 27 00
        E 0 b2 0b 7f
        E 0 92 29 7f
        E 240 82 29 00
        E 0 b2 0b 7f
        E 0 92 2b 7f
        E 352 82 2b 00
        E 0 b2 0b 7f
        E 0 92 29 7f
        E 240 82 29 00
        E 0 b2 0b 7f
        E 0 92 27 7f
        E 112 82 27 00
        E 0 b2 0b 7f
        E 0 92 29 7f
        E 352 82 29 00
        E 0 b2 0b 7f
        E 0 92 24 7f
        E 1904 82 24 00
        E 0 b2 0b 7f
        E 0 92 29 7f
        E 480 82 29 00
        E 0 b2 0b 7f
        E 0 92 2c 7f
        E 112 82 2c 00
        E 0 b2 0b 7f
        E 0 92 2e 7f
        E 240 82 2e 00
        E 0 b2 0b 7f
        E 0 92 30 7f
        E 352 82 30 00
        E 0 b2 0b 7f
        E 0 92 2e 7f
        E 240 82 2e 00
        E 0 b2 0b 7f
        E 0 92 2c 7f
        E 128 82 2c 00
        E 0 b2 0b 7f
        E 0 92 2e 7f
        E 352 82 2e 00
        E 0 b2 0b 7f
        E 0 92 29 7f
        E 1904 82 29 00
        E 0 b2 0b 7f
        E 0 92 24 7f
        E 464 82 24 00
        E 0 b2 0b 7f
        E 0 92 27 7f
        E 128 82 27 00
        E 0 b2 0b 7f
        E 0 92 29 7f
        E 224 82 29 00
        E 0 b2 0b 7f
        E 0 92 2b 7f
        E 368 82 2b 00
        E 0 b2 0b 7f
        E 0 92 29 7f
        E 240 82 29 00
        E 0 b2 0b 7f
        E 0 92 27 7f
        E 112 82 27 00
        E 0 b2 0b 7f
        E 0 92 29 7f
        E 352 82 29 00
        E 0 b2 0b 7f
        E 0 92 24 7f
        E 1904 82 24 00
        E 0 b2 0b 7f
        E 0 92 2e 7f
        E 832 82 2e 00
        E 0 b2 0b 7f
        E 0 92 2c 7f
        E 832 82 2c 00
        E 0 b2 0b 7f
        E 0 92 32 7f
        E 240 82 32 00
        E 3792 b2 0b 7f
        E 0 92 30 7f
        E 3920 82 30 00
        E 0 b2 0b 7f
        E 0 92 2e 7f
        E 112 82 2e 00
        E 0 b2 0b 7f
        E 0 92 2b 7f
        E 128 82 2b 00
        E 0 b2 0b 7f
        E 0 92 30 7f
        E 704 82 30 00
        E 0 b2 0b 7f
        E 0 92 2e 7f
        E 128 82 2e 00
        E 0 b2 0b 7f
        E 0 92 2b 7f
        E 112 82 2b 00
        E 0 b2 0b 7f
        E 0 92 30 7f
        E 368 82 30 00
        E 0 b2 0b 7f
        E 0 92 33 7f
        E 112 82 33 00
        E 0 b2 0b 7f
        E 0 92 35 7f
        E 112 82 35 00
        E 0 b2 0b 7f
        E 0 92 30 7f
        E 128 82 30 00
        E 0 b2 0b 7f
        E 0 92 2e 7f
        E 112 82 2e 00
        E 0 b2 0b 7f
        E 0 92 2b 7f
        E 128 82 2b 00
        E 0 b2 0b 7f
        E 0 92 30 7f
        E 704 82 30 00
        E 0 b2 0b 7f
        E 0 92 2e 7f
        E 128 82 2e 00
        E 0 b2 0b 7f
        E 0 92 2b 7f
        E 112 82 2b 00
        E 0 b2 0b 7f
        E 0 92 30 7f
        E 352 82 30 00
        E 0 b2 0b 7f
        E 0 92 33 7f
        E 128 82 33 00
        E 0 b2 0b 7f
        E 0 92 35 7f
        E 112 82 35 00
        E 0 b2 0b 7f
        E 0 92 30 7f
        E 112 82 30 00
        E 0 b2 0b 7f
        E 0 92 2e 7f
        E 128 82 2e 00
        E 0 b2 0b 7f
        E 0 92 2b 7f
        E 112 82 2b 00
        E 0 b2 0b 7f
        E 0 92 30 7f
        E 720 82 30 00
        E 0 b2 0b 7f
        E 0 92 2e 7f
        E 112 82 2e 00
        E 0 b2 0b 7f
        E 0 92 2b 7f
        E 128 82 2b 00
        E 0 b2 0b 7f
        E 0 92 30 7f
        E 352 82 30 00
        E 0 b2 0b 7f
        E 0 92 33 7f
        E 112 82 33 00
        E 0 b2 0b 7f
        E 0 92 35 7f
        E 128 82 35 00
        E 0 b2 0b 7f
        E 0 92 30 7f
        E 112 82 30 00
        E 0 b2 0b 7f
        E 0 92 2e 7f
        E 128 82 2e 00
        E 0 b2 0b 7f
        E 0 92 2b 7f
        E 112 82 2b 00
        E 0 b2 0b 7f
        E 0 92 30 7f
        E 720 82 30 00
        E 0 b2 0b 7f
        E 0 92 2e 7f
        E 112 82 2e 00
        E 0 b2 0b 7f
        E 0 92 2b 7f
        E 112 82 2b 00
        E 0 b2 0b 7f
        E 0 92 30 7f
        E 368 82 30 00
        E 0 b2 0b 7f
        E 0 92 33 7f
        E 112 82 33 00
        E 0 b2 0b 7f
        E 0 92 35 7f
        E 128 82 35 00
        E 0 b2 0b 7f
        E 0 92 24 7f
        E 3792 82 24 00
        E 0 b2 0b 7f
        E 0 92 2e 7f
        E 1904 82 2e 00
        E 0 b2 0b 7f
        E 0 92 2c 7f
        E 1888 82 2c 00
        E 0 b2 0b 7f
        E 0 92 24 7f
        E 3808 82 24 00
        E 0 b2 0b 7f
        E 0 92 2e 7f
        E 1904 82 2e 00
        E 0 b2 0b 7f
        E 0 92 2c 7f
        E 1888 82 2c 00
        E 0 b2 0b 7f
        E 0 92 24 7f
        E 480 82 24 00
        E 0 b2 0b 7f
        E 0 92 2b 7f
        E 112 82 2b 00
        E 0 b2 0b 7f
        E 0 92 2e 7f
        E 240 82 2e 00
        E 0 b2 0b 7f
        E 0 92 30 7f
        E 368 82 30 00
        E 0 b2 0b 7f
        E 0 92 2b 7f
        E 224 82 2b 00
        E 0 b2 0b 7f
        E 0 92 29 7f
        E 128 82 29 00
        E 0 b2 0b 7f
        E 0 92 2b 7f
        E 112 82 2b 00
        E 0 b2 0b 7f
        E 0 92 27 7f
        E 128 82 27 00
        E 0 b2 0b 7f
        E 0 92 29 7f
        E 112 82 29 00
        E 0 b2 0b 7f
        E 0 92 24 7f
        E 480 82 24 00
        E 0 b2 0b 7f
        E 0 92 2b 7f
        E 112 82 2b 00
        E 0 b2 0b 7f
        E 0 92 2e 7f
        E 240 82 2e 00
        E 0 b2 0b 7f
        E 0 92 30 7f
        E 352 82 30 00
        E 0 b2 0b 7f
        E 0 92 2b 7f
        E 240 82 2b 00
        E 0 b2 0b 7f
        E 0 92 29 7f
        E 128 82 29 00
        E 0 b2 0b 7f
        E 0 92 2b 7f
        E 112 82 2b 00
        E 0 b2 0b 7f
        E 0 92 27 7f
        E 112 82 27 00
        E 0 b2 0b 7f
        E 0 92 29 7f
        E 128 82 29 00
        E 0 b2 0b 7f
        E 0 92 24 7f
        E 464 82 24 00
        E 0 b2 0b 7f
        E 0 92 2b 7f
        E 128 82 2b 00
        E 0 b2 0b 7f
        E 0 92 2e 7f
        E 240 82 2e 00
        E 0 b2 0b 7f
        E 0 92 30 7f
        E 352 82 30 00
        E 0 b2 0b 7f
        E 0 92 2b 7f
        E 240 82 2b 00
        E 0 b2 0b 7f
        E 0 92 29 7f
        E 112 82 29 00
        E 0 b2 0b 7f
        E 0 92 2b 7f
        E 128 82 2b 00
        E 0 b2 0b 7f
        E 0 92 27 7f
        E 112 82 27 00
        E 0 b2 0b 7f
        E 0 92 29 7f
        E 112 82 29 00
        E 0 b2 0b 7f
        E 0 92 24 7f
        E 480 82 24 00
        E 0 b2 0b 7f
        E 0 92 2b 7f
        E 128 82 2b 00
        E 0 b2 0b 7f
        E 0 92 2e 7f
        E 224 82 2e 00
        E 0 b2 0b 7f
        E 0 92 30 7f
        E 368 82 30 00
        E 0 b2 0b 7f
        E 0 92 2b 7f
        E 240 82 2b 00
        E 0 b2 0b 7f
        E 0 92 29 7f
        E 112 82 29 00
        E 0 b2 0b 7f
        E 0 92 2b 7f
        E 112 82 2b 00
        E 0 b2 0b 7f
        E 0 92 27 7f
        E 128 82 27 00
        E 0 b2 0b 7f
        E 0 92 29 7f
        E 112 82 29 00
        E 96 b2 0b 7f
        E 0 92 24 7f
        E 384 82 24 00
        E 0 b2 0b 7f
        E 0 92 27 7f
        E 112 82 27 00
        E 0 b2 0b 7f
        E 0 92 29 7f
        E 240 82 29 00
        E 0 b2 0b 7f
        E 0 92 2b 7f
        E 352 82 2b 00
        E 0 b2 0b 7f
        E 0 92 29 7f
        E 240 82 29 00
        E 0 b2 0b 7f
        E 0 92 27 7f
        E 128 82 27 00
        E 0 b2 0b 7f
        E 0 92 29 7f
        E 352 82 29 00
        E 0 b2 0b 7f
        E 0 92 24 7f
        E 2368 82 24 00
        E 0 b2 0b 7f
        E 0 92 27 7f
        E 128 82 27 00
        E 0 b2 0b 7f
        E 0 92 29 7f
        E 240 82 29 00
        E 0 b2 0b 7f
        E 0 92 2b 7f
        E 352 82 2b 00
        E 0 b2 0b 7f
        E 0 92 29 7f
        E 240 82 29 00
        E 0 b2 0b 7f
        E 0 92 27 7f
        E 112 82 27 00
        E 0 b2 0b 7f
        E 0 92 29 7f
        E 352 82 29 00
        E 0 b2 0b 7f
        E 0 92 24 7f
        E 1904 82 24 00
        E 0 b2 0b 7f
        E 0 92 29 7f
        E 480 82 29 00
        E 0 b2 0b 7f
        E 0 92 2c 7f
        E 112 82 2c 00
        E 0 b2 0b 7f
        E 0 92 2e 7f
        E 240 82 2e 00
        E 0 b2 0b 7f
        E 0 92 30 7f
        E 352 82 30 00
        E 0 b2 0b 7f
        E 0 92 2e 7f
        E 240 82 2e 00
        E 0 b2 0b 7f
        E 0 92 2c 7f
        E 128 82 2c 00
        E 0 b2 0b 7f
        E 0 92 2e 7f
        E 352 82 2e 00
        E 0 b2 0b 7f
        E 0 92 29 7f
        E 1904 82 29 00
        E 0 b2 0b 7f
        E 0 92 24 7f
        E 464 82 24 00
        E 0 b2 0b 7f
        E 0 92 27 7f
        E 128 82 27 00
        E 0 b2 0b 7f
        E 0 92 29 7f
        E 240 82 29 00
        E 0 b2 0b 7f
        E 0 92 2b 7f
        E 352 82 2b 00
        E 0 b2 0b 7f
        E 0 92 29 7f
        E 240 82 29 00
        E 0 b2 0b 7f
        E 0 92 27 7f
        E 112 82 27 00
        E 0 b2 0b 7f
        E 0 92 29 7f
        E 352 82 29 00
        E 0 b2 0b 7f
        E 0 92 24 7f
        E 1904 82 24 00
        E 0 b2 0b 7f
        E 0 92 2e 7f
        E 832 82 2e 00
        E 0 b2 0b 7f
        E 0 92 2c 7f
        E 832 82 2c 00
        E 0 b2 0b 7f
        E 0 92 32 7f
        E 240 82 32 00
        E 3792 b2 0b 7f
        E 0 92 30 7f
        E 3920 82 30 00
        E 0 b2 0b 7f
        E 0 92 2e 7f
        E 112 82 2e 00
        E 0 b2 0b 7f
        E 0 92 2b 7f
        E 128 82 2b 00
        E 0 b2 0b 7f
        E 0 92 30 7f
        E 704 82 30 00
        E 0 b2 0b 7f
        E 0 92 2e 7f
        E 128 82 2e 00
        E 0 b2 0b 7f
        E 0 92 2b 7f
        E 112 82 2b 00
        E 0 b2 0b 7f
        E 0 92 30 7f
        E 368 82 30 00
        E 0 b2 0b 7f
        E 0 92 33 7f
        E 112 82 33 00
        E 0 b2 0b 7f
        E 0 92 35 7f
        E 112 82 35 00
        E 0 b2 0b 7f
        E 0 92 30 7f
        E 128 82 30 00
        E 0 b2 0b 7f
        E 0 92 2e 7f
        E 112 82 2e 00
        E 0 b2 0b 7f
        E 0 92 2b 7f
        E 128 82 2b 00
        E 0 b2 0b 7f
        E 0 92 30 7f
        E 704 82 30 00
        E 0 b2 0b 7f
        E 0 92 2e 7f
        E 128 82 2e 00
        E 0 b2 0b 7f
        E 0 92 2b 7f
        E 112 82 2b 00
        E 0 b2 0b 7f
        E 0 92 30 7f
        E 352 82 30 00
        E 0 b2 0b 7f
        E 0 92 33 7f
        E 128 82 33 00
        E 0 b2 0b 7f
        E 0 92 35 7f
        E 112 82 35 00
        E 0 b2 0b 7f
        E 0 92 30 7f
        E 128 82 30 00
        E 0 b2 0b 7f
        E 0 92 2e 7f
        E 112 82 2e 00
        E 0 b2 0b 7f
        E 0 92 2b 7f
        E 112 82 2b 00
        E 0 b2 0b 7f
        E 0 92 30 7f
        E 720 82 30 00
        E 0 b2 0b 7f
        E 0 92 2e 7f
        E 112 82 2e 00
        E 0 b2 0b 7f
        E 0 92 2b 7f
        E 128 82 2b 00
        E 0 b2 0b 7f
        E 0 92 30 7f
        E 352 82 30 00
        E 0 b2 0b 7f
        E 0 92 33 7f
        E 112 82 33 00
        E 0 b2 0b 7f
        E 0 92 35 7f
        E 128 82 35 00
        E 0 b2 0b 7f
        E 0 92 30 7f
        E 112 82 30 00
        E 0 b2 0b 7f
        E 0 92 2e 7f
        E 128 82 2e 00
        E 0 b2 0b 7f
        E 0 92 2b 7f
        E 112 82 2b 00
        E 0 b2 0b 7f
        E 0 92 30 7f
        E 512 82 30 00
        E 0 ff 2f 00
      >
    >
  >
  <TRACK {88A7E2A0-12B8-407E-8054-3873D00906B2}
    NAME "NES - Noise / Drums [ch3]"
    PEAKCOL 11184810
    BEAT -1
    AUTOMODE 0
    PANLAWFLAGS 3
    VOLPAN 1 0 -1 -1 1
    MUTESOLO 0 0 0
    IPHASE 0
    PLAYOFFS 0 1
    ISBUS 0 0
    BUSCOMP 0 0 0 0 0
    SHOWINMIX 1 0.6667 0.5 1 0.5 0 0 0
    FIXEDLANES 9 0 0 0 0
    SEL 0
    REC 0 5088 1 0 0 0 0 0
    VU 2
    TRACKHEIGHT 0 0 0 0 0 0 0
    INQ 0 0 0 0.5 100 0 0 100
    NCHAN 2
    FX 1
    TRACKID {88A7E2A0-12B8-407E-8054-3873D00906B2}
    PERF 0
    MIDIOUT -1
    MAINSEND 1 0
    <FXCHAIN
      WNDRECT 24 52 700 560
      SHOW 0
      LASTSEL 0
      DOCKED 0
      BYPASS 0 0 0
      <JS "ReapNES Studio/ReapNES_Console.jsfx" ""
        2 15 1 10 80 10 100 2 1 15 1 5 60 10 80 1 1 0 50 0 0 15 1 0 100 0 0 0.500000 0.500000 0.400000 0.300000 0.800000 3 1 0 0 0 0 - - - - - - - - - - - - - - - - - - - - - - - - - -
      >
      FLOATPOS 0 0 0 0
      FXID {8ED859E6-C6A7-488B-BFA2-BFD360354D23}
      WAK 0 0
    >
    <ITEM
      POSITION 0
      LENGTH 83.98134
      LOOP 0
      ALLTAKES 0
      FADEIN 0 0 0 0 0 0 0
      FADEOUT 0 0 0 0 0 0 0
      MUTE 0 0
      SEL 0
      IGUID {C4E452F0-8B10-4E49-ADDE-0864C9913ED4}
      <SOURCE MIDI
        HASDATA 1 480 QN
        CCINTERP 32
        E 16 93 24 38
        E 86384 83 24 00
        E 0 ff 2f 00
      >
    >
  >
>