<REAPER_PROJECT 0.1 "7.27/win64" 1707000000
  <NOTES 0 2
    |ReapNES Studio Project
    |MIDI Import - Battletoads_11_Song_11_v1
  >
  RIPPLE 0
  GROUPOVERRIDE 0 0 0
  AUTOXFADE 129
  ENVATTACH 3
  POOLEDENVATTACH 0
  MIXERUIFLAGS 11 48
  ENVFADESZ10 40
  PEAKGAIN 1
  FEEDBACK 0
  PANLAW 1
  PROJOFFS 0 0 0
  MAXPROJLEN 0 0
  GRID 3199 8 1 8 1 0 0 0
  TIMEMODE 1 5 -1 30 0 0 -1
  VIDEO_CONFIG 0 0 65792
  PANMODE 3
  PANLAWFLAGS 3
  CURSOR 0
  ZOOM 100 0 0
  VZOOMEX 6 0
  USE_REC_CFG 0
  RECMODE 1
  SMPTESYNC 0 30 100 40 1000 300 0 0 1 0 0
  LOOP 0
  LOOPGRAN 0 4
  RECORD_PATH "Media" ""
  <RECORD_CFG
    ZXZhdxgAAQ==
  >
  <APPLYFX_CFG
  >
  RENDER_FILE ""
  RENDER_PATTERN ""
  RENDER_FMT 0 2 0
  RENDER_1X 0
  RENDER_RANGE 1 0 0 18 1000
  RENDER_RESAMPLE 3 0 1
  RENDER_ADDTOPROJ 0
  RENDER_STEMS 0
  RENDER_DITHER 0
  TIMELOCKMODE 1
  TEMPOENVLOCKMODE 1
  ITEMMIX 1
  DEFPITCHMODE 589824 0
  TAKELANE 1
  SAMPLERATE 44100 0 0
  <RENDER_CFG
    ZXZhdxgAAQ==
  >
  LOCK 1
  <METRONOME 6 2
    VOL 0.25 0.125
    BEATLEN 4
    FREQ 1760 880 1
    SAMPLES "" ""
    SPLIGNORE 0 0
    SPLDEF 2 660 "" 0
    SPLDEF 3 440 "" 0
    PATTERN 0 169
    PATTERNSTR ABBB
    MULT 1
  >
  GLOBAL_AUTO -1
  TEMPO 128.59999614200012 4 4
  PLAYRATE 1 0 0.25 4
  SELECTION 0 0
  SELECTION2 0 0
  MASTERAUTOMODE 0
  MASTERTRACKHEIGHT 0 0
  MASTERPEAKCOL 16576
  MASTERMUTESOLO 0
  MASTERTRACKVIEW 0 0.6667 0.5 0.5 0 0 0 0 0 0 0 0 0 0
  MASTERHWOUT 0 0 1 0 0 0 0 -1
  MASTER_NCH 2 2
  MASTER_VOLUME 1 0 -1 -1 1
  MASTER_PANMODE 3
  MASTER_PANLAWFLAGS 3
  MASTER_FX 1
  MASTER_SEL 0
  <MASTERPLAYSPEEDENV
    EGUID {D899984E-77A5-457B-A40B-A3F5A9FD9333}
    ACT 0 -1
    VIS 0 1 1
    LANEHEIGHT 0 0
    ARM 0
    DEFSHAPE 0 -1 -1
  >
  <TEMPOENVEX
    EGUID {3D15F061-D54B-4353-9379-06F76D407911}
    ACT 1 -1
    VIS 1 0 1
    LANEHEIGHT 0 0
    ARM 0
    DEFSHAPE 1 -1 -1
  >
  <PROJBAY
  >
  <TRACK {69F01875-325A-41A1-B319-07A68B0F4675}
    NAME "NES - Pulse 1 [ch0]"
    PEAKCOL 16576606
    BEAT -1
    AUTOMODE 0
    PANLAWFLAGS 3
    VOLPAN 1 0 -1 -1 1
    MUTESOLO 0 0 0
    IPHASE 0
    PLAYOFFS 0 1
    ISBUS 0 0
    BUSCOMP 0 0 0 0 0
    SHOWINMIX 1 0.6667 0.5 1 0.5 0 0 0
    FIXEDLANES 9 0 0 0 0
    SEL 1
    REC 0 5088 1 0 0 0 0 0
    VU 2
    TRACKHEIGHT 0 0 0 0 0 0 0
    INQ 0 0 0 0.5 100 0 0 100
    NCHAN 2
    FX 1
    TRACKID {69F01875-325A-41A1-B319-07A68B0F4675}
    PERF 0
    MIDIOUT -1
    MAINSEND 1 0
    <FXCHAIN
      WNDRECT 24 52 700 560
      SHOW 0
      LASTSEL 0
      DOCKED 0
      BYPASS 0 0 0
      <JS "ReapNES Studio/ReapNES_Console.jsfx" ""
        2 15 1 10 80 10 100 2 1 15 1 5 60 10 80 1 1 0 50 0 0 15 1 0 100 0 0 0.500000 0.500000 0.400000 0.300000 0.800000 0 1 0 0 0 0 - - - - - - - - - - - - - - - - - - - - - - - - - -
      >
      FLOATPOS 0 0 0 0
      FXID {440A36D2-096A-42B9-9D78-C6F96CE4B4FE}
      WAK 0 0
    >
    <ITEM
      POSITION 0
      LENGTH 83.98134
      LOOP 0
      ALLTAKES 0
      FADEIN 0 0 0 0 0 0 0
      FADEOUT 0 0 0 0 0 0 0
      MUTE 0 0
      SEL 0
      IGUID {EA064D09-AED5-4BD1-9813-FB3C56A45E28}
      <SOURCE MIDI
        HASDATA 1 480 QN
        CCINTERP 32
        E 0 c0 50
        E 16 b0 0c 40
        E 0 b0 0b 08
        E 0 90 2b 08
        E 400 b0 0b 10
        E 384 b0 0b 18
        E 384 b0 0b 20
        E 384 b0 0b 28
        E 496 80 2b 00
        E 128 b0 0c 10
        E 0 b0 0b 30
        E 0 90 35 30
        E 48 b0 0b 28
        E 96 b0 0b 20
        E 96 b0 0b 18
        E 16 b0 0b 30
        E 80 b0 0b 28
        E 96 b0 0b 20
        E 80 b0 0b 30
        E 0 80 35 00
        E 0 90 37 30
        E 16 b0 0b 28
        E 96 b0 0b 20
        E 16 b0 0b 30
        E 0 80 37 00
        E 0 90 35 30
        E 80 b0 0b 28
        E 48 b0 0b 30
        E 0 80 35 00
        E 0 90 33 30
        E 48 b0 0b 28
        E 96 b0 0b 20
        E 96 b0 0b 18
        E 96 b0 0b 10
        E 48 b0 0b 30
        E 0 80 33 00
        E 0 90 30 30
        E 48 b0 0b 28
        E 96 b0 0b 20
        E 96 b0 0b 18
        E 96 b0 0b 10
        E 96 b0 0b 08
        E 96 80 30 00
        E 368 b0 0b 30
        E 0 90 35 30
        E 80 b0 0b 28
        E 96 b0 0b 20
        E 80 b0 0b 30
        E 16 b0 0b 28
        E 96 b0 0b 20
        E 96 b0 0b 18
        E 48 b0 0b 30
        E 0 80 35 00
        E 0 90 37 30
        E 48 b0 0b 28
        E 80 b0 0b 30
        E 0 80 37 00
        E 0 90 35 30
        E 16 b0 0b 28
        E 96 b0 0b 20
        E 96 b0 0b 18
        E 96 b0 0b 10
        E 80 b0 0b 30
        E 16 b0 0b 28
        E 96 b0 0b 20
        E 96 b0 0b 18
        E 48 b0 0b 30
        E 48 b0 0b 28
        E 96 b0 0b 20
        E 96 b0 0b 18
        E 16 b0 0b 30
        E 0 80 35 00
        E 0 90 36 30
        E 80 b0 0b 28
        E 48 b0 0b 30
        E 0 80 36 00
        E 0 90 35 30
        E 48 b0 0b 28
        E 96 b0 0b 20
        E 96 b0 0b 18
        E 16 b0 0b 30
        E 80 b0 0b 28
        E 96 b0 0b 20
        E 96 b0 0b 18
        E 96 b0 0b 10
        E 96 b0 0b 08
        E 48 80 35 00
        E 0 90 39 08
        E 368 b0 0b 10
        E 384 b0 0b 18
        E 384 b0 0b 20
        E 384 b0 0b 28
        E 16 b0 0c 40
        E 0 b0 0b 18
        E 0 80 39 00
        E 0 90 24 18
        E 528 80 24 00
        E 0 90 23 18
        E 64 80 23 00
        E 0 90 24 18
        E 32 80 24 00
        E 0 90 23 18
        E 1024 80 23 00
        E 0 90 22 18
        E 1184 80 22 00
        E 0 90 21 18
        E 1248 80 21 00
        E 0 90 20 18
        E 16 80 20 00
        E 0 90 24 18
        E 528 80 24 00
        E 0 90 23 18
        E 64 80 23 00
        E 0 90 24 18
        E 32 80 24 00
        E 0 90 23 18
        E 1024 80 23 00
        E 0 90 22 18
        E 1184 80 22 00
        E 0 90 21 18
        E 1248 80 21 00
        E 0 90 20 18
        E 16 80 20 00
        E 0 90 24 18
        E 528 80 24 00
        E 0 90 23 18
        E 64 80 23 00
        E 0 90 24 18
        E 32 80 24 00
        E 0 90 23 18
        E 1024 80 23 00
        E 0 90 22 18
        E 1184 80 22 00
        E 0 90 21 18
        E 1248 80 21 00
        E 0 90 20 18
        E 16 80 20 00
        E 0 90 24 18
        E 528 80 24 00
        E 0 90 23 18
        E 64 80 23 00
        E 0 90 24 18
        E 32 80 24 00
        E 0 90 23 18
        E 1024 80 23 00
        E 0 90 22 18
        E 1184 80 22 00
        E 0 90 21 18
        E 1248 80 21 00
        E 0 90 20 18
        E 16 80 20 00
        E 0 90 24 18
        E 528 80 24 00
        E 0 90 23 18
        E 64 80 23 00
        E 0 90 24 18
        E 32 80 24 00
        E 0 90 23 18
        E 1024 80 23 00
        E 0 90 22 18
        E 1184 80 22 00
        E 0 90 21 18
        E 1248 80 21 00
        E 0 90 20 18
        E 16 80 20 00
        E 0 90 24 18
        E 528 80 24 00
        E 0 90 23 18
        E 64 80 23 00
        E 0 90 24 18
        E 32 80 24 00
        E 0 90 23 18
        E 1024 80 23 00
        E 0 90 22 18
        E 1184 80 22 00
        E 0 90 21 18
        E 1248 80 21 00
        E 0 90 20 18
        E 16 80 20 00
        E 0 90 24 18
        E 528 80 24 00
        E 0 90 23 18
        E 64 80 23 00
        E 0 90 24 18
        E 32 80 24 00
        E 0 90 23 18
        E 1024 80 23 00
        E 0 90 22 18
        E 1184 80 22 00
        E 0 90 21 18
        E 1248 80 21 00
        E 0 90 20 18
        E 16 80 20 00
        E 0 90 24 18
        E 528 80 24 00
        E 0 90 23 18
        E 64 80 23 00
        E 0 90 24 18
        E 32 80 24 00
        E 0 90 23 18
        E 1024 80 23 00
        E 0 90 22 18
        E 1184 80 22 00
        E 0 90 21 18
        E 1248 80 21 00
        E 0 90 20 18
        E 16 80 20 00
        E 0 90 24 18
        E 528 80 24 00
        E 0 90 23 18
        E 64 80 23 00
        E 0 90 24 18
        E 32 80 24 00
        E 0 90 23 18
        E 1024 80 23 00
        E 0 90 22 18
        E 1184 80 22 00
        E 0 90 21 18
        E 1248 80 21 00
        E 0 90 20 18
        E 16 80 20 00
        E 0 90 24 18
        E 528 80 24 00
        E 0 90 23 18
        E 64 80 23 00
        E 0 90 24 18
        E 32 80 24 00
        E 0 90 23 18
        E 1024 80 23 00
        E 0 90 22 18
        E 1184 80 22 00
        E 0 90 21 18
        E 1248 80 21 00
        E 0 90 20 18
        E 16 80 20 00
        E 0 90 24 18
        E 528 80 24 00
        E 0 90 23 18
        E 64 80 23 00
        E 0 90 24 18
        E 32 80 24 00
        E 0 90 23 18
        E 1024 80 23 00
        E 0 90 22 18
        E 1184 80 22 00
        E 0 90 21 18
        E 1248 80 21 00
        E 0 90 20 18
        E 16 80 20 00
        E 0 90 24 18
        E 528 80 24 00
        E 0 90 23 18
        E 64 80 23 00
        E 0 90 24 18
        E 32 80 24 00
        E 0 90 23 18
        E 1024 80 23 00
        E 0 90 22 18
        E 1184 80 22 00
        E 0 90 21 18
        E 1248 80 21 00
        E 0 90 20 18
        E 16 80 20 00
        E 0 90 24 18
        E 528 80 24 00
        E 0 90 23 18
        E 64 80 23 00
        E 0 90 24 18
        E 32 80 24 00
        E 0 90 23 18
        E 1024 80 23 00
        E 0 90 22 18
        E 1184 80 22 00
        E 0 90 21 18
        E 1248 80 21 00
        E 0 90 20 18
        E 16 80 20 00
        E 0 90 24 18
        E 528 80 24 00
        E 0 90 23 18
        E 64 80 23 00
        E 0 90 24 18
        E 32 80 24 00
        E 0 90 23 18
        E 1024 80 23 00
        E 0 90 22 18
        E 1184 80 22 00
        E 0 90 21 18
        E 1248 80 21 00
        E 0 90 20 18
        E 16 80 20 00
        E 0 90 24 18
        E 528 80 24 00
        E 0 90 23 18
        E 64 80 23 00
        E 0 90 24 18
        E 32 80 24 00
        E 0 90 23 18
        E 1024 80 23 00
        E 0 90 22 18
        E 1184 80 22 00
        E 0 90 21 18
        E 1248 80 21 00
        E 0 90 20 18
        E 16 80 20 00
        E 0 90 24 18
        E 528 80 24 00
        E 0 90 23 18
        E 64 80 23 00
        E 0 90 24 18
        E 32 80 24 00
        E 0 90 23 18
        E 1024 80 23 00
        E 0 90 22 18
        E 1184 80 22 00
        E 0 90 21 18
        E 1248 80 21 00
        E 0 90 20 18
        E 16 80 20 00
        E 0 90 24 18
        E 528 80 24 00
        E 0 90 23 18
        E 64 80 23 00
        E 0 90 24 18
        E 32 80 24 00
        E 0 90 23 18
        E 1024 80 23 00
        E 0 90 22 18
        E 1184 80 22 00
        E 0 90 21 18
        E 1248 80 21 00
        E 0 90 20 18
        E 16 80 20 00
        E 0 90 24 18
        E 528 80 24 00
        E 0 90 23 18
        E 64 80 23 00
        E 0 90 24 18
        E 32 80 24 00
        E 0 90 23 18
        E 1024 80 23 00
        E 0 90 22 18
        E 1184 80 22 00
        E 0 90 21 18
        E 1248 80 21 00
        E 0 90 20 18
        E 16 80 20 00
        E 0 90 24 18
        E 528 80 24 00
        E 0 90 23 18
        E 64 80 23 00
        E 0 90 24 18
        E 32 80 24 00
        E 0 90 23 18
        E 1024 80 23 00
        E 0 90 22 18
        E 1184 80 22 00
        E 0 90 21 18
        E 1248 80 21 00
        E 0 90 20 18
        E 16 80 20 00
        E 0 90 24 18
        E 368 80 24 00
        E 0 ff 2f 00
      >
    >
  >
  <TRACK {9EBE52FD-802D-43C8-958E-DA4B08BABC40}
    NAME "NES - Pulse 2 [ch1]"
    PEAKCOL 10092441
    BEAT -1
    AUTOMODE 0
    PANLAWFLAGS 3
    VOLPAN 1 0 -1 -1 1
    MUTESOLO 0 0 0
    IPHASE 0
    PLAYOFFS 0 1
    ISBUS 0 0
    BUSCOMP 0 0 0 0 0
    SHOWINMIX 1 0.6667 0.5 1 0.5 0 0 0
    FIXEDLANES 9 0 0 0 0
    SEL 0
    REC 0 5088 1 0 0 0 0 0
    VU 2
    TRACKHEIGHT 0 0 0 0 0 0 0
    INQ 0 0 0 0.5 100 0 0 100
    NCHAN 2
    FX 1
    TRACKID {9EBE52FD-802D-43C8-958E-DA4B08BABC40}
    PERF 0
    MIDIOUT -1
    MAINSEND 1 0
    <FXCHAIN
      WNDRECT 24 52 700 560
      SHOW 0
      LASTSEL 0
      DOCKED 0
      BYPASS 0 0 0
      <JS "ReapNES Studio/ReapNES_Console.jsfx" ""
        2 15 1 10 80 10 100 2 1 15 1 5 60 10 80 1 1 0 50 0 0 15 1 0 100 0 0 0.500000 0.500000 0.400000 0.300000 0.800000 1 1 0 0 0 0 - - - - - - - - - - - - - - - - - - - - - - - - - -
      >
      FLOATPOS 0 0 0 0
      FXID {CF1FBAD5-1C67-421B-B38A-42CC86BF548F}
      WAK 0 0
    >
    <ITEM
      POSITION 0
      LENGTH 83.98134
      LOOP 0
      ALLTAKES 0
      FADEIN 0 0 0 0 0 0 0
      FADEOUT 0 0 0 0 0 0 0
      MUTE 0 0
      SEL 0
      IGUID {94B27C33-3F51-482E-A42D-3BA277CEA6C5}
      <SOURCE MIDI
        HASDATA 1 480 QN
        CCINTERP 32
        E 0 c1 51
        E 48 b1 0c 40
        E 0 b1 0b 08
        E 0 91 24 08
        E 400 b1 0b 10
        E 384 b1 0b 18
        E 384 b1 0b 20
        E 384 b1 0b 28
        E 496 81 24 00
        E 128 b1 0c 10
        E 0 b1 0b 30
        E 0 91 30 30
        E 48 b1 0b 28
        E 96 b1 0b 20
        E 96 b1 0b 18
        E 16 b1 0b 30
        E 80 b1 0b 28
        E 96 b1 0b 20
        E 96 b1 0b 18
        E 96 b1 0b 10
        E 16 b1 0b 30
        E 80 b1 0b 28
        E 48 b1 0b 30
        E 48 b1 0b 28
        E 96 b1 0b 20
        E 96 b1 0b 18
        E 96 b1 0b 10
        E 48 b1 0b 30
        E 0 81 30 00
        E 0 91 2b 30
        E 48 b1 0b 28
        E 96 b1 0b 20
        E 96 b1 0b 18
        E 96 b1 0b 10
        E 96 b1 0b 08
        E 96 81 2b 00
        E 368 b1 0b 30
        E 0 91 31 30
        E 80 b1 0b 28
        E 96 b1 0b 20
        E 80 b1 0b 30
        E 16 b1 0b 28
        E 96 b1 0b 20
        E 96 b1 0b 18
        E 96 b1 0b 10
        E 80 b1 0b 30
        E 16 b1 0b 28
        E 96 b1 0b 20
        E 96 b1 0b 18
        E 96 b1 0b 10
        E 80 b1 0b 30
        E 0 81 31 00
        E 0 91 2e 30
        E 16 b1 0b 28
        E 96 b1 0b 20
        E 96 b1 0b 18
        E 48 b1 0b 30
        E 48 b1 0b 28
        E 96 b1 0b 20
        E 96 b1 0b 18
        E 96 b1 0b 10
        E 48 b1 0b 30
        E 48 b1 0b 28
        E 96 b1 0b 20
        E 96 b1 0b 18
        E 16 b1 0b 30
        E 0 81 2e 00
        E 0 91 2d 30
        E 80 b1 0b 28
        E 96 b1 0b 20
        E 96 b1 0b 18
        E 96 b1 0b 10
        E 96 b1 0b 08
        E 48 81 2d 00
        E 0 91 3c 08
        E 368 b1 0b 10
        E 384 b1 0b 18
        E 384 b1 0b 20
        E 384 b1 0b 28
        E 16 81 3c 00
        E 0 91 2b 28
        E 64 b1 0b 10
        E 64 b1 0b 28
        E 0 81 2b 00
        E 0 91 24 28
        E 64 b1 0b 10
        E 0 81 24 00
        E 0 91 2b 10
        E 64 b1 0b 28
        E 0 81 2b 00
        E 0 91 30 28
        E 64 b1 0b 10
        E 0 81 30 00
        E 0 91 24 10
        E 64 b1 0b 28
        E 48 b1 0b 30
        E 16 b1 0b 10
        E 0 81 24 00
        E 0 91 30 10
        E 64 b1 0b 28
        E 0 81 30 00
        E 0 91 2b 28
        E 64 b1 0b 10
        E 0 81 2b 00
        E 0 91 24 10
        E 64 b1 0b 28
        E 64 b1 0b 10
        E 0 81 24 00
        E 0 91 2b 10
        E 64 b1 0b 28
        E 0 81 2b 00
        E 0 91 30 28
        E 48 b1 0b 30
        E 16 b1 0b 10
        E 0 81 30 00
        E 0 91 24 10
        E 64 b1 0b 28
        E 64 b1 0b 10
        E 0 81 24 00
        E 0 91 30 10
        E 64 b1 0b 28
        E 0 81 30 00
        E 0 91 2b 28
        E 64 b1 0b 10
        E 0 81 2b 00
        E 0 91 24 10
        E 64 b1 0b 28
        E 48 b1 0b 30
        E 16 b1 0b 10
        E 0 81 24 00
        E 0 91 2b 10
        E 64 b1 0b 28
        E 0 81 2b 00
        E 0 91 30 28
        E 64 b1 0b 10
        E 0 81 30 00
        E 0 91 24 10
        E 64 b1 0b 28
        E 64 b1 0b 10
        E 0 81 24 00
        E 0 91 30 10
        E 64 b1 0b 28
        E 0 81 30 00
        E 0 91 2b 28
        E 48 b1 0b 30
        E 16 b1 0b 10
        E 0 81 2b 00
        E 0 91 24 10
        E 64 b1 0b 28
        E 64 b1 0b 10
        E 0 81 24 00
        E 0 91 2b 10
        E 64 b1 0b 28
        E 0 81 2b 00
        E 0 91 30 28
        E 64 b1 0b 10
        E 0 81 30 00
        E 0 91 24 10
        E 64 b1 0b 28
        E 48 b1 0b 30
        E 16 b1 0b 10
        E 0 81 24 00
        E 0 91 30 10
        E 64 b1 0b 28
        E 0 81 30 00
        E 0 91 2b 28
        E 64 b1 0b 10
        E 0 81 2b 00
        E 0 91 24 10
        E 64 b1 0b 28
        E 64 b1 0b 10
        E 0 81 24 00
        E 0 91 2b 10
        E 64 b1 0b 28
        E 0 81 2b 00
        E 0 91 30 28
        E 48 b1 0b 30
        E 16 b1 0b 10
        E 0 81 30 00
        E 0 91 24 10
        E 64 b1 0b 28
        E 64 b1 0b 10
        E 0 81 24 00
        E 0 91 30 10
        E 64 b1 0b 28
        E 0 81 30 00
        E 0 91 2b 28
        E 64 b1 0b 10
        E 0 81 2b 00
        E 0 91 24 10
        E 64 b1 0b 28
        E 48 b1 0b 30
        E 16 b1 0b 10
        E 0 81 24 00
        E 0 91 2b 10
        E 64 b1 0b 28
        E 0 81 2b 00
        E 0 91 30 28
        E 64 b1 0b 10
        E 0 81 30 00
        E 0 91 24 10
        E 64 b1 0b 28
        E 64 b1 0b 10
        E 0 81 24 00
        E 0 91 30 10
        E 64 b1 0b 28
        E 0 81 30 00
        E 0 91 2b 28
        E 48 b1 0b 30
        E 16 b1 0b 10
        E 0 81 2b 00
        E 0 91 24 10
        E 64 b1 0b 28
        E 64 b1 0b 10
        E 0 81 24 00
        E 0 91 2b 10
        E 64 b1 0b 28
        E 0 81 2b 00
        E 0 91 30 28
        E 64 b1 0b 10
        E 0 81 30 00
        E 0 91 24 10
        E 64 b1 0b 28
        E 48 b1 0b 30
        E 16 b1 0b 10
        E 0 81 24 00
        E 0 91 30 10
        E 64 b1 0b 28
        E 0 81 30 00
        E 0 91 2b 28
        E 64 b1 0b 10
        E 0 81 2b 00
        E 0 91 24 10
        E 64 b1 0b 28
        E 64 b1 0b 10
        E 0 81 24 00
        E 0 91 2b 10
        E 64 b1 0b 28
        E 0 81 2b 00
        E 0 91 30 28
        E 48 b1 0b 30
        E 16 b1 0b 10
        E 0 81 30 00
        E 0 91 24 10
        E 64 b1 0b 28
        E 64 b1 0b 10
        E 0 81 24 00
        E 0 91 30 10
        E 64 b1 0b 28
        E 0 81 30 00
        E 0 91 2b 28
        E 64 b1 0b 10
        E 0 81 2b 00
        E 0 91 24 10
        E 64 b1 0b 28
        E 48 b1 0b 30
        E 16 b1 0b 10
        E 0 81 24 00
        E 0 91 2b 10
        E 64 b1 0b 28
        E 0 81 2b 00
        E 0 91 30 28
        E 64 b1 0b 10
        E 0 81 30 00
        E 0 91 24 10
        E 64 b1 0b 28
        E 64 b1 0b 10
        E 0 81 24 00
        E 0 91 30 10
        E 64 b1 0b 28
        E 0 81 30 00
        E 0 91 2b 28
        E 48 b1 0b 30
        E 16 b1 0b 10
        E 0 81 2b 00
        E 0 91 24 10
        E 64 b1 0b 28
        E 64 b1 0b 10
        E 0 81 24 00
        E 0 91 2b 10
        E 64 b1 0b 28
        E 0 81 2b 00
        E 0 91 30 28
        E 64 b1 0b 10
        E 0 81 30 00
        E 0 91 24 10
        E 64 b1 0b 28
        E 48 b1 0b 30
        E 16 b1 0b 10
        E 0 81 24 00
        E 0 91 30 10
        E 64 b1 0b 28
        E 0 81 30 00
        E 0 91 2b 28
        E 64 b1 0b 10
        E 0 81 2b 00
        E 0 91 24 10
        E 64 b1 0b 28
        E 64 b1 0b 10
        E 0 81 24 00
        E 0 91 2b 10
        E 64 b1 0b 28
        E 0 81 2b 00
        E 0 91 30 28
        E 48 b1 0b 30
        E 16 b1 0b 10
        E 0 81 30 00
        E 0 91 24 10
        E 64 b1 0b 28
        E 64 b1 0b 10
        E 0 81 24 00
        E 0 91 30 10
        E 64 b1 0b 28
        E 0 81 30 00
        E 0 91 2b 28
        E 64 b1 0b 10
        E 0 81 2b 00
        E 0 91 24 10
        E 64 b1 0b 28
        E 48 b1 0b 30
        E 16 b1 0b 10
        E 0 81 24 00
        E 0 91 2b 10
        E 64 b1 0b 28
        E 0 81 2b 00
        E 0 91 30 28
        E 64 b1 0b 10
        E 0 81 30 00
        E 0 91 24 10
        E 64 b1 0b 28
        E 64 b1 0b 10
        E 0 81 24 00
        E 0 91 30 10
        E 64 b1 0b 28
        E 0 81 30 00
        E 0 91 2b 28
        E 48 b1 0b 30
        E 16 b1 0b 10
        E 0 81 2b 00
        E 0 91 24 10
        E 64 b1 0b 28
        E 64 b1 0b 10
        E 0 81 24 00
        E 0 91 2b 10
        E 64 b1 0b 28
        E 0 81 2b 00
        E 0 91 30 28
        E 64 b1 0b 10
        E 0 81 30 00
        E 0 91 24 10
        E 64 b1 0b 28
        E 48 b1 0b 30
        E 16 b1 0b 10
        E 0 81 24 00
        E 0 91 30 10
        E 64 b1 0b 28
        E 0 81 30 00
        E 0 91 2b 28
        E 64 b1 0b 10
        E 0 81 2b 00
        E 0 91 24 10
        E 64 b1 0b 28
        E 64 b1 0b 10
        E 0 81 24 00
        E 0 91 2b 10
        E 64 b1 0b 28
        E 0 81 2b 00
        E 0 91 30 28
        E 48 b1 0b 30
        E 16 b1 0b 10
        E 0 81 30 00
        E 0 91 24 10
        E 64 b1 0b 28
        E 64 b1 0b 10
        E 0 81 24 00
        E 0 91 30 10
        E 64 b1 0b 28
        E 0 81 30 00
        E 0 91 2b 28
        E 64 b1 0b 10
        E 0 81 2b 00
        E 0 91 24 10
        E 64 b1 0b 28
        E 48 b1 0b 30
        E 16 b1 0b 10
        E 0 81 24 00
        E 0 91 2b 10
        E 64 b1 0b 28
        E 0 81 2b 00
        E 0 91 30 28
        E 64 b1 0b 10
        E 0 81 30 00
        E 0 91 24 10
        E 64 b1 0b 28
        E 64 b1 0b 10
        E 0 81 24 00
        E 0 91 30 10
        E 64 b1 0b 28
        E 0 81 30 00
        E 0 91 2b 28
        E 48 b1 0b 30
        E 16 b1 0b 10
        E 0 81 2b 00
        E 0 91 24 10
        E 64 b1 0b 28
        E 64 b1 0b 10
        E 0 81 24 00
        E 0 91 2b 10
        E 64 b1 0b 28
        E 0 81 2b 00
        E 0 91 30 28
        E 64 b1 0b 10
        E 0 81 30 00
        E 0 91 24 10
        E 64 b1 0b 28
        E 48 b1 0b 30
        E 16 b1 0b 10
        E 0 81 24 00
        E 0 91 30 10
        E 64 b1 0b 28
        E 0 81 30 00
        E 0 91 2b 28
        E 64 b1 0b 10
        E 0 81 2b 00
        E 0 91 24 10
        E 64 b1 0b 28
        E 64 b1 0b 10
        E 0 81 24 00
        E 0 91 2b 10
        E 64 b1 0b 28
        E 0 81 2b 00
        E 0 91 30 28
        E 48 b1 0b 30
        E 16 b1 0b 10
        E 0 81 30 00
        E 0 91 24 10
        E 64 b1 0b 28
        E 64 b1 0b 10
        E 0 81 24 00
        E 0 91 30 10
        E 64 b1 0b 28
        E 0 81 30 00
        E 0 91 2b 28
        E 64 b1 0b 10
        E 0 81 2b 00
        E 0 91 24 10
        E 64 b1 0b 28
        E 48 b1 0b 30
        E 16 b1 0b 10
        E 0 81 24 00
        E 0 91 2b 10
        E 64 b1 0b 28
        E 0 81 2b 00
        E 0 91 30 28
        E 64 b1 0b 10
        E 0 81 30 00
        E 0 91 24 10
        E 64 b1 0b 28
        E 64 b1 0b 10
        E 0 81 24 00
        E 0 91 30 10
        E 64 b1 0b 28
        E 0 81 30 00
        E 0 91 2b 28
        E 48 b1 0b 30
        E 16 b1 0b 10
        E 0 81 2b 00
        E 0 91 24 10
        E 64 b1 0b 28
        E 64 b1 0b 10
        E 0 81 24 00
        E 0 91 2b 10
        E 64 b1 0b 28
        E 0 81 2b 00
        E 0 91 30 28
        E 64 b1 0b 10
        E 0 81 30 00
        E 0 91 24 10
        E 64 b1 0b 28
        E 48 b1 0b 30
        E 16 b1 0b 10
        E 0 81 24 00
        E 0 91 30 10
        E 64 b1 0b 28
        E 0 81 30 00
        E 0 91 2b 28
        E 64 b1 0b 10
        E 0 81 2b 00
        E 0 91 24 10
        E 64 b1 0b 28
        E 64 b1 0b 10
        E 0 81 24 00
        E 0 91 2b 10
        E 64 b1 0b 28
        E 0 81 2b 00
        E 0 91 30 28
        E 48 b1 0b 30
        E 16 b1 0b 10
        E 0 81 30 00
        E 0 91 24 10
        E 64 b1 0b 28
        E 64 b1 0b 10
        E 0 81 24 00
        E 0 91 30 10
        E 64 b1 0b 28
        E 0 81 30 00
        E 0 91 2b 28
        E 64 b1 0b 10
        E 0 81 2b 00
        E 0 91 24 10
        E 64 b1 0b 28
        E 48 b1 0b 30
        E 16 b1 0b 10
        E 0 81 24 00
        E 0 91 2b 10
        E 64 b1 0b 28
        E 0 81 2b 00
        E 0 91 30 28
        E 64 b1 0b 10
        E 0 81 30 00
        E 0 91 24 10
        E 64 b1 0b 28
        E 64 b1 0b 10
        E 0 81 24 00
        E 0 91 30 10
        E 64 b1 0b 28
        E 0 81 30 00
        E 0 91 2b 28
        E 48 b1 0b 30
        E 16 b1 0b 10
        E 0 81 2b 00
        E 0 91 24 10
        E 64 b1 0b 28
        E 64 b1 0b 10
        E 0 81 24 00
        E 0 91 2b 10
        E 64 b1 0b 28
        E 0 81 2b 00
        E 0 91 30 28
        E 64 b1 0b 10
        E 0 81 30 00
        E 0 91 24 10
        E 64 b1 0b 28
        E 48 b1 0b 30
        E 16 b1 0b 10
        E 0 81 24 00
        E 0 91 30 10
        E 64 b1 0b 28
        E 0 81 30 00
        E 0 91 2b 28
        E 64 b1 0b 10
        E 0 81 2b 00
        E 0 91 24 10
        E 64 b1 0b 28
        E 64 b1 0b 10
        E 0 81 24 00
        E 0 91 2b 10
        E 64 b1 0b 28
        E 0 81 2b 00
        E 0 91 30 28
        E 48 b1 0b 30
        E 16 b1 0b 10
        E 0 81 30 00
        E 0 91 24 10
        E 64 b1 0b 28
        E 64 b1 0b 10
        E 0 81 24 00
        E 0 91 30 10
        E 64 b1 0b 28
        E 0 81 30 00
        E 0 91 2b 28
        E 64 b1 0b 10
        E 0 81 2b 00
        E 0 91 24 10
        E 64 b1 0b 28
        E 48 b1 0b 30
        E 16 b1 0b 10
        E 0 81 24 00
        E 0 91 2b 10
        E 64 b1 0b 28
        E 0 81 2b 00
        E 0 91 30 28
        E 64 b1 0b 10
        E 0 81 30 00
        E 0 91 24 10
        E 64 b1 0b 28
        E 64 b1 0b 10
        E 0 81 24 00
        E 0 91 30 10
        E 64 b1 0b 28
        E 0 81 30 00
        E 0 91 2b 28
        E 48 b1 0b 30
        E 16 b1 0b 10
        E 0 81 2b 00
        E 0 91 24 10
        E 64 b1 0b 28
        E 64 b1 0b 10
        E 0 81 24 00
        E 0 91 2b 10
        E 64 b1 0b 28
        E 0 81 2b 00
        E 0 91 30 28
        E 64 b1 0b 10
        E 0 81 30 00
        E 0 91 24 10
        E 64 b1 0b 28
        E 48 b1 0b 30
        E 16 b1 0b 10
        E 0 81 24 00
        E 0 91 30 10
        E 64 b1 0b 28
        E 0 81 30 00
        E 0 91 2b 28
        E 64 b1 0b 10
        E 0 81 2b 00
        E 0 91 24 10
        E 64 b1 0b 28
        E 64 b1 0b 10
        E 0 81 24 00
        E 0 91 2b 10
        E 64 b1 0b 28
        E 0 81 2b 00
        E 0 91 30 28
        E 48 b1 0b 30
        E 16 b1 0b 10
        E 0 81 30 00
        E 0 91 24 10
        E 64 b1 0b 28
        E 64 b1 0b 10
        E 0 81 24 00
        E 0 91 30 10
        E 64 b1 0b 28
        E 0 81 30 00
        E 0 91 2b 28
        E 64 b1 0b 10
        E 0 81 2b 00
        E 0 91 24 10
        E 64 b1 0b 28
        E 48 b1 0b 30
        E 16 b1 0b 10
        E 0 81 24 00
        E 0 91 2b 10
        E 64 b1 0b 28
        E 0 81 2b 00
        E 0 91 30 28
        E 64 b1 0b 10
        E 0 81 30 00
        E 0 91 24 10
        E 64 b1 0b 28
        E 64 b1 0b 10
        E 0 81 24 00
        E 0 91 30 10
        E 64 b1 0b 28
        E 0 81 30 00
        E 0 91 2b 28
        E 48 b1 0b 30
        E 16 b1 0b 10
        E 0 81 2b 00
        E 0 91 24 10
        E 64 b1 0b 28
        E 64 b1 0b 10
        E 0 81 24 00
        E 0 91 2b 10
        E 64 b1 0b 28
        E 0 81 2b 00
        E 0 91 30 28
        E 64 b1 0b 10
        E 0 81 30 00
        E 0 91 24 10
        E 64 b1 0b 28
        E 48 b1 0b 30
        E 16 b1 0b 10
        E 0 81 24 00
        E 0 91 30 10
        E 64 b1 0b 28
        E 0 81 30 00
        E 0 91 2b 28
        E 64 b1 0b 10
        E 0 81 2b 00
        E 0 91 24 10
        E 64 b1 0b 28
        E 64 b1 0b 10
        E 0 81 24 00
        E 0 91 2b 10
        E 64 b1 0b 28
        E 0 81 2b 00
        E 0 91 30 28
        E 48 b1 0b 30
        E 16 b1 0b 10
        E 0 81 30 00
        E 0 91 24 10
        E 64 b1 0b 28
        E 64 b1 0b 10
        E 0 81 24 00
        E 0 91 30 10
        E 64 b1 0b 28
        E 0 81 30 00
        E 0 91 2b 28
        E 64 b1 0b 10
        E 0 81 2b 00
        E 0 91 24 10
        E 64 b1 0b 28
        E 48 b1 0b 30
        E 16 b1 0b 10
        E 0 81 24 00
        E 0 91 2b 10
        E 64 b1 0b 28
        E 0 81 2b 00
        E 0 91 30 28
        E 64 b1 0b 10
        E 0 81 30 00
        E 0 91 24 10
        E 64 b1 0b 28
        E 64 b1 0b 10
        E 0 81 24 00
        E 0 91 30 10
        E 64 b1 0b 28
        E 0 81 30 00
        E 0 91 2b 28
        E 48 b1 0b 30
        E 16 b1 0b 10
        E 0 81 2b 00
        E 0 91 24 10
        E 64 b1 0b 28
        E 64 b1 0b 10
        E 0 81 24 00
        E 0 91 2b 10
        E 64 b1 0b 28
        E 0 81 2b 00
        E 0 91 30 28
        E 64 b1 0b 10
        E 0 81 30 00
        E 0 91 24 10
        E 64 b1 0b 28
        E 48 b1 0b 30
        E 16 b1 0b 10
        E 0 81 24 00
        E 0 91 30 10
        E 64 b1 0b 28
        E 0 81 30 00
        E 0 91 2b 28
        E 64 b1 0b 10
        E 0 81 2b 00
        E 0 91 24 10
        E 64 b1 0b 28
        E 64 b1 0b 10
        E 0 81 24 00
        E 0 91 2b 10
        E 64 b1 0b 28
        E 0 81 2b 00
        E 0 91 30 28
        E 48 b1 0b 30
        E 16 b1 0b 10
        E 0 81 30 00
        E 0 91 24 10
        E 64 b1 0b 28
        E 64 b1 0b 10
        E 0 81 24 00
        E 0 91 30 10
        E 64 b1 0b 28
        E 0 81 30 00
        E 0 91 2b 28
        E 64 b1 0b 10
        E 0 81 2b 00
        E 0 91 24 10
        E 64 b1 0b 28
        E 48 b1 0b 30
        E 16 b1 0b 10
        E 0 81 24 00
        E 0 91 2b 10
        E 64 b1 0b 28
        E 0 81 2b 00
        E 0 91 30 28
        E 64 b1 0b 10
        E 0 81 30 00
        E 0 91 24 10
        E 64 b1 0b 28
        E 64 b1 0b 10
        E 0 81 24 00
        E 0 91 30 10
        E 64 b1 0b 28
        E 0 81 30 00
        E 0 91 2b 28
        E 48 b1 0b 30
        E 16 b1 0b 10
        E 0 81 2b 00
        E 0 91 24 10
        E 64 b1 0b 28
        E 64 b1 0b 10
        E 0 81 24 00
        E 0 91 2b 10
        E 64 b1 0b 28
        E 0 81 2b 00
        E 0 91 30 28
        E 64 b1 0b 10
        E 0 81 30 00
        E 0 91 24 10
        E 64 b1 0b 28
        E 48 b1 0b 30
        E 16 b1 0b 10
        E 0 81 24 00
        E 0 91 30 10
        E 64 b1 0b 28
        E 0 81 30 00
        E 0 91 2b 28
        E 64 b1 0b 10
        E 0 81 2b 00
        E 0 91 24 10
        E 64 b1 0b 28
        E 64 b1 0b 10
        E 0 81 24 00
        E 0 91 2b 10
        E 64 b1 0b 28
        E 0 81 2b 00
        E 0 91 30 28
        E 48 b1 0b 30
        E 16 b1 0b 10
        E 0 81 30 00
        E 0 91 24 10
        E 64 b1 0b 28
        E 64 b1 0b 10
        E 0 81 24 00
        E 0 91 30 10
        E 64 b1 0b 28
        E 0 81 30 00
        E 0 91 2b 28
        E 64 b1 0b 10
        E 0 81 2b 00
        E 0 91 24 10
        E 64 b1 0b 28
        E 48 b1 0b 30
        E 16 b1 0b 10
        E 0 81 24 00
        E 0 91 2b 10
        E 64 b1 0b 28
        E 0 81 2b 00
        E 0 91 30 28
        E 64 b1 0b 10
        E 0 81 30 00
        E 0 91 24 10
        E 64 b1 0b 28
        E 64 b1 0b 10
        E 0 81 24 00
        E 0 91 30 10
        E 64 b1 0b 28
        E 0 81 30 00
        E 0 91 2b 28
        E 48 b1 0b 30
        E 16 b1 0b 10
        E 0 81 2b 00
        E 0 91 24 10
        E 64 b1 0b 28
        E 64 b1 0b 10
        E 0 81 24 00
        E 0 91 2b 10
        E 64 b1 0b 28
        E 0 81 2b 00
        E 0 91 30 28
        E 64 b1 0b 10
        E 0 81 30 00
        E 0 91 24 10
        E 64 b1 0b 28
        E 48 b1 0b 30
        E 16 b1 0b 10
        E 0 81 24 00
        E 0 91 30 10
        E 64 b1 0b 28
        E 0 81 30 00
        E 0 91 2b 28
        E 64 b1 0b 10
        E 0 81 2b 00
        E 0 91 24 10
        E 64 b1 0b 28
        E 64 b1 0b 10
        E 0 81 24 00
        E 0 91 2b 10
        E 64 b1 0b 28
        E 0 81 2b 00
        E 0 91 30 28
        E 48 b1 0b 30
        E 16 b1 0b 10
        E 0 81 30 00
        E 0 91 24 10
        E 64 b1 0b 28
        E 64 b1 0b 10
        E 0 81 24 00
        E 0 91 30 10
        E 64 b1 0b 28
        E 0 81 30 00
        E 0 91 2b 28
        E 64 b1 0b 10
        E 0 81 2b 00
        E 0 91 24 10
        E 64 b1 0b 28
        E 48 b1 0b 30
        E 16 b1 0b 10
        E 0 81 24 00
        E 0 91 2b 10
        E 64 b1 0b 28
        E 0 81 2b 00
        E 0 91 30 28
        E 64 b1 0b 10
        E 0 81 30 00
        E 0 91 24 10
        E 64 b1 0b 28
        E 64 b1 0b 10
        E 0 81 24 00
        E 0 91 30 10
        E 64 b1 0b 28
        E 0 81 30 00
        E 0 91 2b 28
        E 48 b1 0b 30
        E 16 b1 0b 10
        E 0 81 2b 00
        E 0 91 24 10
        E 64 b1 0b 28
        E 64 b1 0b 10
        E 0 81 24 00
        E 0 91 2b 10
        E 64 b1 0b 28
        E 0 81 2b 00
        E 0 91 30 28
        E 64 b1 0b 10
        E 0 81 30 00
        E 0 91 24 10
        E 64 b1 0b 28
        E 48 b1 0b 30
        E 16 b1 0b 10
        E 0 81 24 00
        E 0 91 30 10
        E 64 b1 0b 28
        E 0 81 30 00
        E 0 91 2b 28
        E 64 b1 0b 10
        E 0 81 2b 00
        E 0 91 24 10
        E 64 b1 0b 28
        E 64 b1 0b 10
        E 0 81 24 00
        E 0 91 2b 10
        E 64 b1 0b 28
        E 0 81 2b 00
        E 0 91 30 28
        E 48 b1 0b 30
        E 16 b1 0b 10
        E 0 81 30 00
        E 0 91 24 10
        E 64 b1 0b 28
        E 64 b1 0b 10
        E 0 81 24 00
        E 0 91 30 10
        E 64 b1 0b 28
        E 0 81 30 00
        E 0 91 2b 28
        E 64 b1 0b 10
        E 0 81 2b 00
        E 0 91 24 10
        E 64 b1 0b 28
        E 48 b1 0b 30
        E 16 b1 0b 10
        E 0 81 24 00
        E 0 91 2b 10
        E 64 b1 0b 28
        E 0 81 2b 00
        E 0 91 30 28
        E 64 b1 0b 10
        E 0 81 30 00
        E 0 91 24 10
        E 64 b1 0b 28
        E 64 b1 0b 10
        E 0 81 24 00
        E 0 91 30 10
        E 64 b1 0b 28
        E 0 81 30 00
        E 0 91 2b 28
        E 48 b1 0b 30
        E 16 b1 0b 10
        E 0 81 2b 00
        E 0 91 24 10
        E 64 b1 0b 28
        E 64 b1 0b 10
        E 0 81 24 00
        E 0 91 2b 10
        E 64 b1 0b 28
        E 0 81 2b 00
        E 0 91 30 28
        E 64 b1 0b 10
        E 0 81 30 00
        E 0 91 24 10
        E 64 b1 0b 28
        E 48 b1 0b 30
        E 16 b1 0b 10
        E 0 81 24 00
        E 0 91 30 10
        E 64 b1 0b 28
        E 0 81 30 00
        E 0 91 2b 28
        E 64 b1 0b 10
        E 0 81 2b 00
        E 0 91 24 10
        E 64 b1 0b 28
        E 64 b1 0b 10
        E 0 81 24 00
        E 0 91 2b 10
        E 64 b1 0b 28
        E 0 81 2b 00
        E 0 91 30 28
        E 48 b1 0b 30
        E 16 b1 0b 10
        E 0 81 30 00
        E 0 91 24 10
        E 64 b1 0b 28
        E 64 b1 0b 10
        E 0 81 24 00
        E 0 91 30 10
        E 64 b1 0b 28
        E 0 81 30 00
        E 0 91 2b 28
        E 64 b1 0b 10
        E 0 81 2b 00
        E 0 91 24 10
        E 64 b1 0b 28
        E 48 b1 0b 30
        E 16 b1 0b 10
        E 0 81 24 00
        E 0 91 2b 10
        E 64 b1 0b 28
        E 0 81 2b 00
        E 0 91 30 28
        E 64 b1 0b 10
        E 0 81 30 00
        E 0 91 24 10
        E 64 b1 0b 28
        E 64 b1 0b 10
        E 0 81 24 00
        E 0 91 30 10
        E 64 b1 0b 28
        E 0 81 30 00
        E 0 91 2b 28
        E 48 b1 0b 30
        E 16 b1 0b 10
        E 0 81 2b 00
        E 0 91 24 10
        E 64 b1 0b 28
        E 64 b1 0b 10
        E 0 81 24 00
        E 0 91 2b 10
        E 64 b1 0b 28
        E 0 81 2b 00
        E 0 91 30 28
        E 64 b1 0b 10
        E 0 81 30 00
        E 0 91 24 10
        E 64 b1 0b 28
        E 48 b1 0b 30
        E 16 b1 0b 10
        E 0 81 24 00
        E 0 91 30 10
        E 64 b1 0b 28
        E 0 81 30 00
        E 0 91 2b 28
        E 64 b1 0b 10
        E 0 81 2b 00
        E 0 91 24 10
        E 64 b1 0b 28
        E 64 b1 0b 10
        E 0 81 24 00
        E 0 91 2b 10
        E 64 b1 0b 28
        E 0 81 2b 00
        E 0 91 30 28
        E 48 b1 0b 30
        E 16 b1 0b 10
        E 0 81 30 00
        E 0 91 24 10
        E 64 b1 0b 28
        E 64 b1 0b 10
        E 0 81 24 00
        E 0 91 30 10
        E 64 b1 0b 28
        E 0 81 30 00
        E 0 91 2b 28
        E 64 b1 0b 10
        E 0 81 2b 00
        E 0 91 24 10
        E 64 b1 0b 28
        E 48 b1 0b 30
        E 16 b1 0b 10
        E 0 81 24 00
        E 0 91 2b 10
        E 64 b1 0b 28
        E 0 81 2b 00
        E 0 91 30 28
        E 64 b1 0b 10
        E 0 81 30 00
        E 0 91 24 10
        E 64 b1 0b 28
        E 64 b1 0b 10
        E 0 81 24 00
        E 0 91 30 10
        E 64 b1 0b 28
        E 0 81 30 00
        E 0 91 2b 28
        E 48 b1 0b 30
        E 16 b1 0b 10
        E 0 81 2b 00
        E 0 91 24 10
        E 64 b1 0b 28
        E 64 b1 0b 10
        E 0 81 24 00
        E 0 91 2b 10
        E 64 b1 0b 28
        E 0 81 2b 00
        E 0 91 30 28
        E 64 b1 0b 10
        E 0 81 30 00
        E 0 91 24 10
        E 64 b1 0b 28
        E 48 b1 0b 30
        E 16 b1 0b 10
        E 0 81 24 00
        E 0 91 30 10
        E 64 b1 0b 28
        E 0 81 30 00
        E 0 91 2b 28
        E 64 b1 0b 10
        E 0 81 2b 00
        E 0 91 24 10
        E 64 b1 0b 28
        E 64 b1 0b 10
        E 0 81 24 00
        E 0 91 2b 10
        E 64 b1 0b 28
        E 0 81 2b 00
        E 0 91 30 28
        E 48 b1 0b 30
        E 16 b1 0b 10
        E 0 81 30 00
        E 0 91 24 10
        E 64 b1 0b 28
        E 64 b1 0b 10
        E 0 81 24 00
        E 0 91 30 10
        E 64 b1 0b 28
        E 0 81 30 00
        E 0 91 2b 28
        E 64 b1 0b 10
        E 0 81 2b 00
        E 0 91 24 10
        E 64 b1 0b 28
        E 48 b1 0b 30
        E 16 b1 0b 10
        E 0 81 24 00
        E 0 91 2b 10
        E 64 b1 0b 28
        E 0 81 2b 00
        E 0 91 30 28
        E 64 b1 0b 10
        E 0 81 30 00
        E 0 91 24 10
        E 64 b1 0b 28
        E 64 b1 0b 10
        E 0 81 24 00
        E 0 91 30 10
        E 64 b1 0b 28
        E 0 81 30 00
        E 0 91 2b 28
        E 48 b1 0b 30
        E 16 b1 0b 10
        E 0 81 2b 00
        E 0 91 24 10
        E 64 b1 0b 28
        E 64 b1 0b 10
        E 0 81 24 00
        E 0 91 2b 10
        E 64 b1 0b 28
        E 0 81 2b 00
        E 0 91 30 28
        E 64 b1 0b 10
        E 0 81 30 00
        E 0 91 24 10
        E 64 b1 0b 28
        E 48 b1 0b 30
        E 16 b1 0b 10
        E 0 81 24 00
        E 0 91 30 10
        E 64 b1 0b 28
        E 0 81 30 00
        E 0 91 2b 28
        E 64 b1 0b 10
        E 0 81 2b 00
        E 0 91 24 10
        E 64 b1 0b 28
        E 64 b1 0b 10
        E 0 81 24 00
        E 0 91 2b 10
        E 64 b1 0b 28
        E 0 81 2b 00
        E 0 91 30 28
        E 48 b1 0b 30
        E 16 b1 0b 10
        E 0 81 30 00
        E 0 91 24 10
        E 64 b1 0b 28
        E 64 b1 0b 10
        E 0 81 24 00
        E 0 91 30 10
        E 64 b1 0b 28
        E 0 81 30 00
        E 0 91 2b 28
        E 64 b1 0b 10
        E 0 81 2b 00
        E 0 91 24 10
        E 64 b1 0b 28
        E 48 b1 0b 30
        E 16 b1 0b 10
        E 0 81 24 00
        E 0 91 2b 10
        E 64 b1 0b 28
        E 0 81 2b 00
        E 0 91 30 28
        E 64 b1 0b 10
        E 0 81 30 00
        E 0 91 24 10
        E 64 b1 0b 28
        E 64 b1 0b 10
        E 0 81 24 00
        E 0 91 30 10
        E 64 b1 0b 28
        E 0 81 30 00
        E 0 91 2b 28
        E 48 b1 0b 30
        E 16 b1 0b 10
        E 0 81 2b 00
        E 0 91 24 10
        E 64 b1 0b 28
        E 64 b1 0b 10
        E 0 81 24 00
        E 0 91 2b 10
        E 64 b1 0b 28
        E 0 81 2b 00
        E 0 91 30 28
        E 64 b1 0b 10
        E 0 81 30 00
        E 0 91 24 10
        E 64 b1 0b 28
        E 48 b1 0b 30
        E 16 b1 0b 10
        E 0 81 24 00
        E 0 91 30 10
        E 64 b1 0b 28
        E 0 81 30 00
        E 0 91 2b 28
        E 64 b1 0b 10
        E 0 81 2b 00
        E 0 91 24 10
        E 64 b1 0b 28
        E 64 b1 0b 10
        E 0 81 24 00
        E 0 91 2b 10
        E 64 b1 0b 28
        E 0 81 2b 00
        E 0 91 30 28
        E 48 b1 0b 30
        E 16 b1 0b 10
        E 0 81 30 00
        E 0 91 24 10
        E 64 b1 0b 28
        E 64 b1 0b 10
        E 0 81 24 00
        E 0 91 30 10
        E 64 b1 0b 28
        E 0 81 30 00
        E 0 91 2b 28
        E 64 b1 0b 10
        E 0 81 2b 00
        E 0 91 24 10
        E 64 b1 0b 28
        E 48 b1 0b 30
        E 16 b1 0b 10
        E 0 81 24 00
        E 0 91 2b 10
        E 64 b1 0b 28
        E 0 81 2b 00
        E 0 91 30 28
        E 64 b1 0b 10
        E 0 81 30 00
        E 0 91 24 10
        E 64 b1 0b 28
        E 64 b1 0b 10
        E 0 81 24 00
        E 0 91 30 10
        E 64 b1 0b 28
        E 0 81 30 00
        E 0 91 2b 28
        E 48 b1 0b 30
        E 16 b1 0b 10
        E 0 81 2b 00
        E 0 91 24 10
        E 64 b1 0b 28
        E 64 b1 0b 10
        E 0 81 24 00
        E 0 91 2b 10
        E 64 b1 0b 28
        E 0 81 2b 00
        E 0 91 30 28
        E 64 b1 0b 10
        E 0 81 30 00
        E 0 91 24 10
        E 64 b1 0b 28
        E 48 b1 0b 30
        E 16 b1 0b 10
        E 0 81 24 00
        E 0 91 30 10
        E 64 b1 0b 28
        E 0 81 30 00
        E 0 91 2b 28
        E 64 b1 0b 10
        E 0 81 2b 00
        E 0 91 24 10
        E 64 b1 0b 28
        E 64 b1 0b 10
        E 0 81 24 00
        E 0 91 2b 10
        E 64 b1 0b 28
        E 0 81 2b 00
        E 0 91 30 28
        E 48 b1 0b 30
        E 16 b1 0b 10
        E 0 81 30 00
        E 0 91 24 10
        E 64 b1 0b 28
        E 64 b1 0b 10
        E 0 81 24 00
        E 0 91 30 10
        E 64 b1 0b 28
        E 0 81 30 00
        E 0 91 2b 28
        E 64 b1 0b 10
        E 0 81 2b 00
        E 0 91 24 10
        E 64 b1 0b 28
        E 48 b1 0b 30
        E 16 b1 0b 10
        E 0 81 24 00
        E 0 91 2b 10
        E 64 b1 0b 28
        E 0 81 2b 00
        E 0 91 30 28
        E 64 b1 0b 10
        E 0 81 30 00
        E 0 91 24 10
        E 64 b1 0b 28
        E 64 b1 0b 10
        E 0 81 24 00
        E 0 91 30 10
        E 64 b1 0b 28
        E 0 81 30 00
        E 0 91 2b 28
        E 48 b1 0b 30
        E 16 b1 0b 10
        E 0 81 2b 00
        E 0 91 24 10
        E 64 b1 0b 28
        E 64 b1 0b 10
        E 0 81 24 00
        E 0 91 2b 10
        E 64 b1 0b 28
        E 0 81 2b 00
        E 0 91 30 28
        E 64 b1 0b 10
        E 0 81 30 00
        E 0 91 24 10
        E 64 b1 0b 28
        E 48 b1 0b 30
        E 16 b1 0b 10
        E 0 81 24 00
        E 0 91 30 10
        E 64 b1 0b 28
        E 0 81 30 00
        E 0 91 2b 28
        E 64 b1 0b 10
        E 0 81 2b 00
        E 0 91 24 10
        E 64 b1 0b 28
        E 64 b1 0b 10
        E 0 81 24 00
        E 0 91 2b 10
        E 64 b1 0b 28
        E 0 81 2b 00
        E 0 91 30 28
        E 48 b1 0b 30
        E 16 b1 0b 10
        E 0 81 30 00
        E 0 91 24 10
        E 64 b1 0b 28
        E 64 b1 0b 10
        E 0 81 24 00
        E 0 91 30 10
        E 64 b1 0b 28
        E 0 81 30 00
        E 0 91 2b 28
        E 64 b1 0b 10
        E 0 81 2b 00
        E 0 91 24 10
        E 64 b1 0b 28
        E 48 b1 0b 30
        E 16 b1 0b 10
        E 0 81 24 00
        E 0 91 2b 10
        E 64 b1 0b 28
        E 0 81 2b 00
        E 0 91 30 28
        E 64 b1 0b 10
        E 0 81 30 00
        E 0 91 24 10
        E 64 b1 0b 28
        E 64 b1 0b 10
        E 0 81 24 00
        E 0 91 30 10
        E 64 b1 0b 28
        E 0 81 30 00
        E 0 91 2b 28
        E 48 b1 0b 30
        E 16 b1 0b 10
        E 0 81 2b 00
        E 0 91 24 10
        E 64 b1 0b 28
        E 64 b1 0b 10
        E 0 81 24 00
        E 0 91 2b 10
        E 64 b1 0b 28
        E 0 81 2b 00
        E 0 91 30 28
        E 64 b1 0b 10
        E 0 81 30 00
        E 0 91 24 10
        E 64 b1 0b 28
        E 48 b1 0b 30
        E 16 b1 0b 10
        E 0 81 24 00
        E 0 91 30 10
        E 64 b1 0b 28
        E 0 81 30 00
        E 0 91 2b 28
        E 64 b1 0b 10
        E 0 81 2b 00
        E 0 91 24 10
        E 64 b1 0b 28
        E 64 b1 0b 10
        E 0 81 24 00
        E 0 91 2b 10
        E 64 b1 0b 28
        E 0 81 2b 00
        E 0 91 30 28
        E 48 b1 0b 30
        E 16 b1 0b 10
        E 0 81 30 00
        E 0 91 24 10
        E 64 b1 0b 28
        E 64 b1 0b 10
        E 0 81 24 00
        E 0 91 30 10
        E 64 b1 0b 28
        E 0 81 30 00
        E 0 91 2b 28
        E 64 b1 0b 10
        E 0 81 2b 00
        E 0 91 24 10
        E 64 b1 0b 28
        E 48 b1 0b 30
        E 16 b1 0b 10
        E 0 81 24 00
        E 0 91 2b 10
        E 64 b1 0b 28
        E 0 81 2b 00
        E 0 91 30 28
        E 64 b1 0b 10
        E 0 81 30 00
        E 0 91 24 10
        E 64 b1 0b 28
        E 64 b1 0b 10
        E 0 81 24 00
        E 0 91 30 10
        E 64 b1 0b 28
        E 0 81 30 00
        E 0 91 2b 28
        E 48 b1 0b 30
        E 16 b1 0b 10
        E 0 81 2b 00
        E 0 91 24 10
        E 64 b1 0b 28
        E 64 b1 0b 10
        E 0 81 24 00
        E 0 91 2b 10
        E 64 b1 0b 28
        E 0 81 2b 00
        E 0 91 30 28
        E 64 b1 0b 10
        E 0 81 30 00
        E 0 91 24 10
        E 64 b1 0b 28
        E 48 b1 0b 30
        E 16 b1 0b 10
        E 0 81 24 00
        E 0 91 30 10
        E 64 b1 0b 28
        E 0 81 30 00
        E 0 91 2b 28
        E 64 b1 0b 10
        E 0 81 2b 00
        E 0 91 24 10
        E 64 b1 0b 28
        E 64 b1 0b 10
        E 0 81 24 00
        E 0 91 2b 10
        E 64 b1 0b 28
        E 0 81 2b 00
        E 0 91 30 28
        E 48 b1 0b 30
        E 16 b1 0b 10
        E 0 81 30 00
        E 0 91 24 10
        E 64 b1 0b 28
        E 64 b1 0b 10
        E 0 81 24 00
        E 0 91 30 10
        E 64 b1 0b 28
        E 0 81 30 00
        E 0 91 2b 28
        E 64 b1 0b 10
        E 0 81 2b 00
        E 0 91 24 10
        E 64 b1 0b 28
        E 48 b1 0b 30
        E 16 b1 0b 10
        E 0 81 24 00
        E 0 91 2b 10
        E 64 b1 0b 28
        E 0 81 2b 00
        E 0 91 30 28
        E 64 b1 0b 10
        E 0 81 30 00
        E 0 91 24 10
        E 64 b1 0b 28
        E 64 b1 0b 10
        E 0 81 24 00
        E 0 91 30 10
        E 64 b1 0b 28
        E 0 81 30 00
        E 0 91 2b 28
        E 48 b1 0b 30
        E 16 b1 0b 10
        E 0 81 2b 00
        E 0 91 24 10
        E 64 b1 0b 28
        E 64 b1 0b 10
        E 0 81 24 00
        E 0 91 2b 10
        E 64 b1 0b 28
        E 0 81 2b 00
        E 0 91 30 28
        E 64 b1 0b 10
        E 0 81 30 00
        E 0 91 24 10
        E 64 b1 0b 28
        E 48 b1 0b 30
        E 16 b1 0b 10
        E 0 81 24 00
        E 0 91 30 10
        E 64 b1 0b 28
        E 0 81 30 00
        E 0 91 2b 28
        E 64 b1 0b 10
        E 0 81 2b 00
        E 0 91 24 10
        E 64 b1 0b 28
        E 64 b1 0b 10
        E 0 81 24 00
        E 0 91 2b 10
        E 64 b1 0b 28
        E 0 81 2b 00
        E 0 91 30 28
        E 48 b1 0b 30
        E 16 b1 0b 10
        E 0 81 30 00
        E 0 91 24 10
        E 64 b1 0b 28
        E 64 b1 0b 10
        E 0 81 24 00
        E 0 91 30 10
        E 64 b1 0b 28
        E 0 81 30 00
        E 0 91 2b 28
        E 64 b1 0b 10
        E 0 81 2b 00
        E 0 91 24 10
        E 64 b1 0b 28
        E 48 b1 0b 30
        E 16 b1 0b 10
        E 0 81 24 00
        E 0 91 2b 10
        E 64 b1 0b 28
        E 0 81 2b 00
        E 0 91 30 28
        E 64 b1 0b 10
        E 0 81 30 00
        E 0 91 24 10
        E 64 b1 0b 28
        E 64 b1 0b 10
        E 0 81 24 00
        E 0 91 30 10
        E 64 b1 0b 28
        E 0 81 30 00
        E 0 91 2b 28
        E 48 b1 0b 30
        E 16 b1 0b 10
        E 0 81 2b 00
        E 0 91 24 10
        E 64 b1 0b 28
        E 64 b1 0b 10
        E 0 81 24 00
        E 0 91 2b 10
        E 64 b1 0b 28
        E 0 81 2b 00
        E 0 91 30 28
        E 64 b1 0b 10
        E 0 81 30 00
        E 0 91 24 10
        E 64 b1 0b 28
        E 48 b1 0b 30
        E 16 b1 0b 10
        E 0 81 24 00
        E 0 91 30 10
        E 64 b1 0b 28
        E 0 81 30 00
        E 0 91 2b 28
        E 64 b1 0b 10
        E 0 81 2b 00
        E 0 91 24 10
        E 64 b1 0b 28
        E 64 b1 0b 10
        E 0 81 24 00
        E 0 91 2b 10
        E 64 b1 0b 28
        E 0 81 2b 00
        E 0 91 30 28
        E 48 b1 0b 30
        E 16 b1 0b 10
        E 0 81 30 00
        E 0 91 24 10
        E 64 b1 0b 28
        E 64 b1 0b 10
        E 0 81 24 00
        E 0 91 30 10
        E 64 b1 0b 28
        E 0 81 30 00
        E 0 91 2b 28
        E 64 b1 0b 10
        E 0 81 2b 00
        E 0 91 24 10
        E 64 b1 0b 28
        E 48 b1 0b 30
        E 16 b1 0b 10
        E 0 81 24 00
        E 0 91 2b 10
        E 64 b1 0b 28
        E 0 81 2b 00
        E 0 91 30 28
        E 64 b1 0b 10
        E 0 81 30 00
        E 0 91 24 10
        E 64 b1 0b 28
        E 64 b1 0b 10
        E 0 81 24 00
        E 0 91 30 10
        E 64 b1 0b 28
        E 0 81 30 00
        E 0 91 2b 28
        E 48 b1 0b 30
        E 16 b1 0b 10
        E 0 81 2b 00
        E 0 91 24 10
        E 64 b1 0b 28
        E 64 b1 0b 10
        E 0 81 24 00
        E 0 91 2b 10
        E 64 b1 0b 28
        E 0 81 2b 00
        E 0 91 30 28
        E 64 b1 0b 10
        E 0 81 30 00
        E 0 91 24 10
        E 64 b1 0b 28
        E 48 b1 0b 30
        E 16 b1 0b 10
        E 0 81 24 00
        E 0 91 30 10
        E 64 b1 0b 28
        E 0 81 30 00
        E 0 91 2b 28
        E 64 b1 0b 10
        E 0 81 2b 00
        E 0 91 24 10
        E 64 b1 0b 28
        E 64 b1 0b 10
        E 0 81 24 00
        E 0 91 2b 10
        E 64 b1 0b 28
        E 0 81 2b 00
        E 0 91 30 28
        E 48 b1 0b 30
        E 16 b1 0b 10
        E 0 81 30 00
        E 0 91 24 10
        E 64 b1 0b 28
        E 64 b1 0b 10
        E 0 81 24 00
        E 0 91 30 10
        E 64 b1 0b 28
        E 0 81 30 00
        E 0 91 2b 28
        E 64 b1 0b 10
        E 0 81 2b 00
        E 0 91 24 10
        E 64 b1 0b 28
        E 48 b1 0b 30
        E 16 b1 0b 10
        E 0 81 24 00
        E 0 91 2b 10
        E 64 b1 0b 28
        E 0 81 2b 00
        E 0 91 30 28
        E 64 b1 0b 10
        E 0 81 30 00
        E 0 91 24 10
        E 64 b1 0b 28
        E 64 b1 0b 10
        E 0 81 24 00
        E 0 91 30 10
        E 64 b1 0b 28
        E 0 81 30 00
        E 0 91 2b 28
        E 48 b1 0b 30
        E 16 b1 0b 10
        E 0 81 2b 00
        E 0 91 24 10
        E 64 b1 0b 28
        E 64 b1 0b 10
        E 0 81 24 00
        E 0 91 2b 10
        E 64 b1 0b 28
        E 0 81 2b 00
        E 0 91 30 28
        E 64 b1 0b 10
        E 0 81 30 00
        E 0 91 24 10
        E 64 b1 0b 28
        E 48 b1 0b 30
        E 16 b1 0b 10
        E 0 81 24 00
        E 0 91 30 10
        E 64 b1 0b 28
        E 0 81 30 00
        E 0 91 2b 28
        E 64 b1 0b 10
        E 0 81 2b 00
        E 0 91 24 10
        E 64 b1 0b 28
        E 64 b1 0b 10
        E 0 81 24 00
        E 0 91 2b 10
        E 64 b1 0b 28
        E 0 81 2b 00
        E 0 91 30 28
        E 48 b1 0b 30
        E 16 b1 0b 10
        E 0 81 30 00
        E 0 91 24 10
        E 64 b1 0b 28
        E 64 b1 0b 10
        E 0 81 24 00
        E 0 91 30 10
        E 64 b1 0b 28
        E 0 81 30 00
        E 0 91 2b 28
        E 64 b1 0b 10
        E 0 81 2b 00
        E 0 91 24 10
        E 64 b1 0b 28
        E 48 b1 0b 30
        E 16 b1 0b 10
        E 0 81 24 00
        E 0 91 2b 10
        E 64 b1 0b 28
        E 0 81 2b 00
        E 0 91 30 28
        E 64 b1 0b 10
        E 0 81 30 00
        E 0 91 24 10
        E 64 b1 0b 28
        E 64 b1 0b 10
        E 0 81 24 00
        E 0 91 30 10
        E 64 b1 0b 28
        E 0 81 30 00
        E 0 91 2b 28
        E 48 b1 0b 30
        E 16 b1 0b 10
        E 0 81 2b 00
        E 0 91 24 10
        E 64 b1 0b 28
        E 64 b1 0b 10
        E 0 81 24 00
        E 0 91 2b 10
        E 64 b1 0b 28
        E 0 81 2b 00
        E 0 91 30 28
        E 64 b1 0b 10
        E 0 81 30 00
        E 0 91 24 10
        E 64 b1 0b 28
        E 48 b1 0b 30
        E 16 b1 0b 10
        E 0 81 24 00
        E 0 91 30 10
        E 64 b1 0b 28
        E 0 81 30 00
        E 0 91 2b 28
        E 64 b1 0b 10
        E 0 81 2b 00
        E 0 91 24 10
        E 64 b1 0b 28
        E 64 b1 0b 10
        E 0 81 24 00
        E 0 91 2b 10
        E 64 b1 0b 28
        E 0 81 2b 00
        E 0 91 30 28
        E 48 b1 0b 30
        E 16 b1 0b 10
        E 0 81 30 00
        E 0 91 24 10
        E 64 b1 0b 28
        E 64 b1 0b 10
        E 0 81 24 00
        E 0 91 30 10
        E 64 b1 0b 28
        E 0 81 30 00
        E 0 91 2b 28
        E 64 b1 0b 10
        E 0 81 2b 00
        E 0 91 24 10
        E 64 b1 0b 28
        E 48 b1 0b 30
        E 16 b1 0b 10
        E 0 81 24 00
        E 0 91 2b 10
        E 64 b1 0b 28
        E 0 81 2b 00
        E 0 91 30 28
        E 64 b1 0b 10
        E 0 81 30 00
        E 0 91 24 10
        E 64 b1 0b 28
        E 64 b1 0b 10
        E 0 81 24 00
        E 0 91 30 10
        E 64 b1 0b 28
        E 0 81 30 00
        E 0 91 2b 28
        E 48 b1 0b 30
        E 16 b1 0b 10
        E 0 81 2b 00
        E 0 91 24 10
        E 64 b1 0b 28
        E 64 b1 0b 10
        E 0 81 24 00
        E 0 91 2b 10
        E 64 b1 0b 28
        E 0 81 2b 00
        E 0 91 30 28
        E 64 b1 0b 10
        E 0 81 30 00
        E 0 91 24 10
        E 64 b1 0b 28
        E 48 b1 0b 30
        E 16 b1 0b 10
        E 0 81 24 00
        E 0 91 30 10
        E 64 b1 0b 28
        E 0 81 30 00
        E 0 91 2b 28
        E 64 b1 0b 10
        E 0 81 2b 00
        E 0 91 24 10
        E 64 b1 0b 28
        E 64 b1 0b 10
        E 0 81 24 00
        E 0 91 2b 10
        E 64 b1 0b 28
        E 0 81 2b 00
        E 0 91 30 28
        E 48 b1 0b 30
        E 16 b1 0b 10
        E 0 81 30 00
        E 0 91 24 10
        E 64 b1 0b 28
        E 64 b1 0b 10
        E 0 81 24 00
        E 0 91 30 10
        E 64 b1 0b 28
        E 0 81 30 00
        E 0 91 2b 28
        E 64 b1 0b 10
        E 0 81 2b 00
        E 0 91 24 10
        E 64 b1 0b 28
        E 48 b1 0b 30
        E 16 b1 0b 10
        E 0 81 24 00
        E 0 91 2b 10
        E 64 b1 0b 28
        E 0 81 2b 00
        E 0 91 30 28
        E 64 b1 0b 10
        E 0 81 30 00
        E 0 91 24 10
        E 64 b1 0b 28
        E 64 b1 0b 10
        E 0 81 24 00
        E 0 91 30 10
        E 64 b1 0b 28
        E 0 81 30 00
        E 0 91 2b 28
        E 48 b1 0b 30
        E 16 b1 0b 10
        E 0 81 2b 00
        E 0 91 24 10
        E 64 b1 0b 28
        E 64 b1 0b 10
        E 0 81 24 00
        E 0 91 2b 10
        E 64 b1 0b 28
        E 0 81 2b 00
        E 0 91 30 28
        E 64 b1 0b 10
        E 0 81 30 00
        E 0 91 24 10
        E 64 b1 0b 28
        E 48 b1 0b 30
        E 16 b1 0b 10
        E 0 81 24 00
        E 0 91 30 10
        E 64 b1 0b 28
        E 0 81 30 00
        E 0 91 2b 28
        E 64 b1 0b 10
        E 0 81 2b 00
        E 0 91 24 10
        E 64 b1 0b 28
        E 64 b1 0b 10
        E 0 81 24 00
        E 0 91 2b 10
        E 64 b1 0b 28
        E 0 81 2b 00
        E 0 91 30 28
        E 48 b1 0b 30
        E 16 b1 0b 10
        E 0 81 30 00
        E 0 91 24 10
        E 64 b1 0b 28
        E 64 b1 0b 10
        E 0 81 24 00
        E 0 91 30 10
        E 64 b1 0b 28
        E 0 81 30 00
        E 0 91 2b 28
        E 64 b1 0b 10
        E 0 81 2b 00
        E 0 91 24 10
        E 64 b1 0b 28
        E 48 b1 0b 30
        E 16 b1 0b 10
        E 0 81 24 00
        E 0 91 2b 10
        E 64 b1 0b 28
        E 0 81 2b 00
        E 0 91 30 28
        E 64 b1 0b 10
        E 0 81 30 00
        E 0 91 24 10
        E 64 b1 0b 28
        E 64 b1 0b 10
        E 0 81 24 00
        E 0 91 30 10
        E 64 b1 0b 28
        E 0 81 30 00
        E 0 91 2b 28
        E 48 b1 0b 30
        E 16 b1 0b 10
        E 0 81 2b 00
        E 0 91 24 10
        E 64 b1 0b 28
        E 64 b1 0b 10
        E 0 81 24 00
        E 0 91 2b 10
        E 64 b1 0b 28
        E 0 81 2b 00
        E 0 91 30 28
        E 64 b1 0b 10
        E 0 81 30 00
        E 0 91 24 10
        E 64 b1 0b 28
        E 48 b1 0b 30
        E 16 b1 0b 10
        E 0 81 24 00
        E 0 91 30 10
        E 64 b1 0b 28
        E 0 81 30 00
        E 0 91 2b 28
        E 64 b1 0b 10
        E 0 81 2b 00
        E 0 91 24 10
        E 64 b1 0b 28
        E 64 b1 0b 10
        E 0 81 24 00
        E 0 91 2b 10
        E 64 b1 0b 28
        E 0 81 2b 00
        E 0 91 30 28
        E 48 b1 0b 30
        E 16 b1 0b 10
        E 0 81 30 00
        E 0 91 24 10
        E 64 b1 0b 28
        E 64 b1 0b 10
        E 0 81 24 00
        E 0 91 30 10
        E 64 b1 0b 28
        E 0 81 30 00
        E 0 91 2b 28
        E 64 b1 0b 10
        E 0 81 2b 00
        E 0 91 24 10
        E 64 b1 0b 28
        E 48 b1 0b 30
        E 16 b1 0b 10
        E 0 81 24 00
        E 0 91 2b 10
        E 64 b1 0b 28
        E 0 81 2b 00
        E 0 91 30 28
        E 64 b1 0b 10
        E 0 81 30 00
        E 0 91 24 10
        E 64 b1 0b 28
        E 64 b1 0b 10
        E 0 81 24 00
        E 0 91 30 10
        E 64 b1 0b 28
        E 0 81 30 00
        E 0 91 2b 28
        E 48 b1 0b 30
        E 16 b1 0b 10
        E 0 81 2b 00
        E 0 91 24 10
        E 64 b1 0b 28
        E 64 b1 0b 10
        E 0 81 24 00
        E 0 91 2b 10
        E 64 b1 0b 28
        E 0 81 2b 00
        E 0 91 30 28
        E 64 b1 0b 10
        E 0 81 30 00
        E 0 91 24 10
        E 64 b1 0b 28
        E 48 b1 0b 30
        E 16 b1 0b 10
        E 0 81 24 00
        E 0 91 30 10
        E 64 b1 0b 28
        E 0 81 30 00
        E 0 91 2b 28
        E 64 b1 0b 10
        E 0 81 2b 00
        E 0 91 24 10
        E 64 b1 0b 28
        E 64 b1 0b 10
        E 0 81 24 00
        E 0 91 2b 10
        E 64 b1 0b 28
        E 0 81 2b 00
        E 0 91 30 28
        E 48 b1 0b 30
        E 16 b1 0b 10
        E 0 81 30 00
        E 0 91 24 10
        E 64 b1 0b 28
        E 64 b1 0b 10
        E 0 81 24 00
        E 0 91 30 10
        E 64 b1 0b 28
        E 0 81 30 00
        E 0 91 2b 28
        E 64 b1 0b 10
        E 0 81 2b 00
        E 0 91 24 10
        E 64 b1 0b 28
        E 48 b1 0b 30
        E 16 b1 0b 10
        E 0 81 24 00
        E 0 91 2b 10
        E 64 b1 0b 28
        E 0 81 2b 00
        E 0 91 30 28
        E 64 b1 0b 10
        E 0 81 30 00
        E 0 91 24 10
        E 64 b1 0b 28
        E 64 b1 0b 10
        E 0 81 24 00
        E 0 91 30 10
        E 64 b1 0b 28
        E 0 81 30 00
        E 0 91 2b 28
        E 48 b1 0b 30
        E 16 b1 0b 10
        E 0 81 2b 00
        E 0 91 24 10
        E 64 b1 0b 28
        E 64 b1 0b 10
        E 0 81 24 00
        E 0 91 2b 10
        E 64 b1 0b 28
        E 0 81 2b 00
        E 0 91 30 28
        E 64 b1 0b 10
        E 0 81 30 00
        E 0 91 24 10
        E 64 b1 0b 28
        E 48 b1 0b 30
        E 16 b1 0b 10
        E 0 81 24 00
        E 0 91 30 10
        E 64 b1 0b 28
        E 0 81 30 00
        E 0 91 2b 28
        E 64 b1 0b 10
        E 0 81 2b 00
        E 0 91 24 10
        E 64 b1 0b 28
        E 64 b1 0b 10
        E 0 81 24 00
        E 0 91 2b 10
        E 64 b1 0b 28
        E 0 81 2b 00
        E 0 91 30 28
        E 48 b1 0b 30
        E 16 b1 0b 10
        E 0 81 30 00
        E 0 91 24 10
        E 64 b1 0b 28
        E 64 b1 0b 10
        E 0 81 24 00
        E 0 91 30 10
        E 64 b1 0b 28
        E 0 81 30 00
        E 0 91 2b 28
        E 64 b1 0b 10
        E 0 81 2b 00
        E 0 91 24 10
        E 64 b1 0b 28
        E 48 b1 0b 30
        E 16 b1 0b 10
        E 0 81 24 00
        E 0 91 2b 10
        E 64 b1 0b 28
        E 0 81 2b 00
        E 0 91 30 28
        E 64 b1 0b 10
        E 0 81 30 00
        E 0 91 24 10
        E 64 b1 0b 28
        E 64 b1 0b 10
        E 0 81 24 00
        E 0 91 30 10
        E 64 b1 0b 28
        E 0 81 30 00
        E 0 91 2b 28
        E 48 b1 0b 30
        E 16 b1 0b 10
        E 0 81 2b 00
        E 0 91 24 10
        E 64 b1 0b 28
        E 64 b1 0b 10
        E 0 81 24 00
        E 0 91 2b 10
        E 64 b1 0b 28
        E 0 81 2b 00
        E 0 91 30 28
        E 64 b1 0b 10
        E 0 81 30 00
        E 0 91 24 10
        E 64 b1 0b 28
        E 48 b1 0b 30
        E 16 b1 0b 10
        E 0 81 24 00
        E 0 91 30 10
        E 64 b1 0b 28
        E 0 81 30 00
        E 0 91 2b 28
        E 64 b1 0b 10
        E 0 81 2b 00
        E 0 91 24 10
        E 64 b1 0b 28
        E 64 b1 0b 10
        E 0 81 24 00
        E 0 91 2b 10
        E 64 b1 0b 28
        E 0 81 2b 00
        E 0 91 30 28
        E 48 b1 0b 30
        E 16 b1 0b 10
        E 0 81 30 00
        E 0 91 24 10
        E 64 b1 0b 28
        E 64 b1 0b 10
        E 0 81 24 00
        E 0 91 30 10
        E 64 b1 0b 28
        E 0 81 30 00
        E 0 91 2b 28
        E 64 b1 0b 10
        E 0 81 2b 00
        E 0 91 24 10
        E 64 b1 0b 28
        E 48 b1 0b 30
        E 16 b1 0b 10
        E 0 81 24 00
        E 0 91 2b 10
        E 64 b1 0b 28
        E 0 81 2b 00
        E 0 91 30 28
        E 64 b1 0b 10
        E 0 81 30 00
        E 0 91 24 10
        E 64 b1 0b 28
        E 64 b1 0b 10
        E 0 81 24 00
        E 0 91 30 10
        E 64 b1 0b 28
        E 0 81 30 00
        E 0 91 2b 28
        E 48 b1 0b 30
        E 16 b1 0b 10
        E 0 81 2b 00
        E 0 91 24 10
        E 64 b1 0b 28
        E 64 b1 0b 10
        E 0 81 24 00
        E 0 91 2b 10
        E 64 b1 0b 28
        E 0 81 2b 00
        E 0 91 30 28
        E 64 b1 0b 10
        E 0 81 30 00
        E 0 91 24 10
        E 64 b1 0b 28
        E 48 b1 0b 30
        E 16 b1 0b 10
        E 0 81 24 00
        E 0 91 30 10
        E 64 b1 0b 28
        E 0 81 30 00
        E 0 91 2b 28
        E 64 b1 0b 10
        E 0 81 2b 00
        E 0 91 24 10
        E 64 b1 0b 28
        E 64 b1 0b 10
        E 0 81 24 00
        E 0 91 2b 10
        E 64 b1 0b 28
        E 0 81 2b 00
        E 0 91 30 28
        E 48 b1 0b 30
        E 16 b1 0b 10
        E 0 81 30 00
        E 0 91 24 10
        E 64 b1 0b 28
        E 64 b1 0b 10
        E 0 81 24 00
        E 0 91 30 10
        E 64 b1 0b 28
        E 0 81 30 00
        E 0 91 2b 28
        E 64 b1 0b 10
        E 0 81 2b 00
        E 0 91 24 10
        E 64 b1 0b 28
        E 48 b1 0b 30
        E 16 b1 0b 10
        E 0 81 24 00
        E 0 91 2b 10
        E 64 b1 0b 28
        E 0 81 2b 00
        E 0 91 30 28
        E 64 b1 0b 10
        E 0 81 30 00
        E 0 91 24 10
        E 64 b1 0b 28
        E 64 b1 0b 10
        E 0 81 24 00
        E 0 91 30 10
        E 64 b1 0b 28
        E 0 81 30 00
        E 0 91 2b 28
        E 48 b1 0b 30
        E 16 b1 0b 10
        E 0 81 2b 00
        E 0 91 24 10
        E 64 b1 0b 28
        E 64 b1 0b 10
        E 0 81 24 00
        E 0 91 2b 10
        E 64 b1 0b 28
        E 0 81 2b 00
        E 0 91 30 28
        E 64 b1 0b 10
        E 0 81 30 00
        E 0 91 24 10
        E 64 b1 0b 28
        E 48 b1 0b 30
        E 16 b1 0b 10
        E 0 81 24 00
        E 0 91 30 10
        E 64 b1 0b 28
        E 0 81 30 00
        E 0 91 2b 28
        E 64 b1 0b 10
        E 0 81 2b 00
        E 0 91 24 10
        E 64 b1 0b 28
        E 64 b1 0b 10
        E 0 81 24 00
        E 0 91 2b 10
        E 64 b1 0b 28
        E 0 81 2b 00
        E 0 91 30 28
        E 48 b1 0b 30
        E 16 b1 0b 10
        E 0 81 30 00
        E 0 91 24 10
        E 64 b1 0b 28
        E 64 b1 0b 10
        E 0 81 24 00
        E 0 91 30 10
        E 64 b1 0b 28
        E 0 81 30 00
        E 0 91 2b 28
        E 64 b1 0b 10
        E 0 81 2b 00
        E 0 91 24 10
        E 64 b1 0b 28
        E 48 b1 0b 30
        E 16 b1 0b 10
        E 0 81 24 00
        E 0 91 2b 10
        E 64 b1 0b 28
        E 0 81 2b 00
        E 0 91 30 28
        E 64 b1 0b 10
        E 0 81 30 00
        E 0 91 24 10
        E 64 b1 0b 28
        E 64 b1 0b 10
        E 0 81 24 00
        E 0 91 30 10
        E 64 b1 0b 28
        E 0 81 30 00
        E 0 91 2b 28
        E 48 b1 0b 30
        E 16 b1 0b 10
        E 0 81 2b 00
        E 0 91 24 10
        E 64 b1 0b 28
        E 64 b1 0b 10
        E 0 81 24 00
        E 0 91 2b 10
        E 64 b1 0b 28
        E 0 81 2b 00
        E 0 91 30 28
        E 64 b1 0b 10
        E 0 81 30 00
        E 0 91 24 10
        E 64 b1 0b 28
        E 48 b1 0b 30
        E 16 b1 0b 10
        E 0 81 24 00
        E 0 91 30 10
        E 64 b1 0b 28
        E 0 81 30 00
        E 0 91 2b 28
        E 64 b1 0b 10
        E 0 81 2b 00
        E 0 91 24 10
        E 64 b1 0b 28
        E 64 b1 0b 10
        E 0 81 24 00
        E 0 91 2b 10
        E 64 b1 0b 28
        E 0 81 2b 00
        E 0 91 30 28
        E 48 b1 0b 30
        E 16 b1 0b 10
        E 0 81 30 00
        E 0 91 24 10
        E 64 b1 0b 28
        E 64 b1 0b 10
        E 0 81 24 00
        E 0 91 30 10
        E 64 b1 0b 28
        E 0 81 30 00
        E 0 91 2b 28
        E 64 b1 0b 10
        E 0 81 2b 00
        E 0 91 24 10
        E 64 b1 0b 28
        E 48 b1 0b 30
        E 16 b1 0b 10
        E 0 81 24 00
        E 0 91 2b 10
        E 64 b1 0b 28
        E 0 81 2b 00
        E 0 91 30 28
        E 64 b1 0b 10
        E 0 81 30 00
        E 0 91 24 10
        E 64 b1 0b 28
        E 64 b1 0b 10
        E 0 81 24 00
        E 0 91 30 10
        E 64 b1 0b 28
        E 0 81 30 00
        E 0 91 2b 28
        E 48 b1 0b 30
        E 16 b1 0b 10
        E 0 81 2b 00
        E 0 91 24 10
        E 64 b1 0b 28
        E 64 b1 0b 10
        E 0 81 24 00
        E 0 91 2b 10
        E 64 b1 0b 28
        E 0 81 2b 00
        E 0 91 30 28
        E 64 b1 0b 10
        E 0 81 30 00
        E 0 91 24 10
        E 64 b1 0b 28
        E 48 b1 0b 30
        E 16 b1 0b 10
        E 0 81 24 00
        E 0 91 30 10
        E 64 b1 0b 28
        E 0 81 30 00
        E 0 91 2b 28
        E 64 b1 0b 10
        E 0 81 2b 00
        E 0 91 24 10
        E 64 b1 0b 28
        E 64 b1 0b 10
        E 0 81 24 00
        E 0 91 2b 10
        E 64 b1 0b 28
        E 0 81 2b 00
        E 0 91 30 28
        E 48 b1 0b 30
        E 16 b1 0b 10
        E 0 81 30 00
        E 0 91 24 10
        E 64 b1 0b 28
        E 64 b1 0b 10
        E 0 81 24 00
        E 0 91 30 10
        E 64 b1 0b 28
        E 0 81 30 00
        E 0 91 2b 28
        E 64 b1 0b 10
        E 0 81 2b 00
        E 0 91 24 10
        E 64 b1 0b 28
        E 48 b1 0b 30
        E 16 b1 0b 10
        E 0 81 24 00
        E 0 91 2b 10
        E 64 b1 0b 28
        E 0 81 2b 00
        E 0 91 30 28
        E 64 b1 0b 10
        E 0 81 30 00
        E 0 91 24 10
        E 64 b1 0b 28
        E 64 b1 0b 10
        E 0 81 24 00
        E 0 91 30 10
        E 64 b1 0b 28
        E 0 81 30 00
        E 0 91 2b 28
        E 48 b1 0b 30
        E 16 b1 0b 10
        E 0 81 2b 00
        E 0 91 24 10
        E 64 b1 0b 28
        E 64 b1 0b 10
        E 0 81 24 00
        E 0 91 2b 10
        E 64 b1 0b 28
        E 0 81 2b 00
        E 0 91 30 28
        E 64 b1 0b 10
        E 0 81 30 00
        E 0 91 24 10
        E 64 b1 0b 28
        E 48 b1 0b 30
        E 16 b1 0b 10
        E 0 81 24 00
        E 0 91 30 10
        E 64 b1 0b 28
        E 0 81 30 00
        E 0 91 2b 28
        E 64 b1 0b 10
        E 0 81 2b 00
        E 0 91 24 10
        E 64 b1 0b 28
        E 64 b1 0b 10
        E 0 81 24 00
        E 0 91 2b 10
        E 64 b1 0b 28
        E 0 81 2b 00
        E 0 91 30 28
        E 48 b1 0b 30
        E 16 b1 0b 10
        E 0 81 30 00
        E 0 91 24 10
        E 64 b1 0b 28
        E 64 b1 0b 10
        E 0 81 24 00
        E 0 91 30 10
        E 64 b1 0b 28
        E 0 81 30 00
        E 0 91 2b 28
        E 64 b1 0b 10
        E 0 81 2b 00
        E 0 91 24 10
        E 64 b1 0b 28
        E 48 b1 0b 30
        E 16 b1 0b 10
        E 0 81 24 00
        E 0 91 2b 10
        E 64 b1 0b 28
        E 0 81 2b 00
        E 0 91 30 28
        E 64 b1 0b 10
        E 0 81 30 00
        E 0 91 24 10
        E 64 b1 0b 28
        E 64 b1 0b 10
        E 0 81 24 00
        E 0 91 30 10
        E 64 b1 0b 28
        E 0 81 30 00
        E 0 91 2b 28
        E 48 b1 0b 30
        E 16 b1 0b 10
        E 0 81 2b 00
        E 0 91 24 10
        E 64 b1 0b 28
        E 64 b1 0b 10
        E 0 81 24 00
        E 0 91 2b 10
        E 64 b1 0b 28
        E 0 81 2b 00
        E 0 91 30 28
        E 64 b1 0b 10
        E 0 81 30 00
        E 0 91 24 10
        E 64 b1 0b 28
        E 48 b1 0b 30
        E 16 b1 0b 10
        E 0 81 24 00
        E 0 91 30 10
        E 64 b1 0b 28
        E 0 81 30 00
        E 0 91 2b 28
        E 64 b1 0b 10
        E 0 81 2b 00
        E 0 91 24 10
        E 64 b1 0b 28
        E 64 b1 0b 10
        E 0 81 24 00
        E 0 91 2b 10
        E 64 b1 0b 28
        E 0 81 2b 00
        E 0 91 30 28
        E 48 b1 0b 30
        E 16 b1 0b 10
        E 0 81 30 00
        E 0 91 24 10
        E 64 b1 0b 28
        E 64 b1 0b 10
        E 0 81 24 00
        E 0 91 30 10
        E 64 b1 0b 28
        E 0 81 30 00
        E 0 91 2b 28
        E 64 b1 0b 10
        E 0 81 2b 00
        E 0 91 24 10
        E 64 b1 0b 28
        E 48 b1 0b 30
        E 16 b1 0b 10
        E 0 81 24 00
        E 0 91 2b 10
        E 64 b1 0b 28
        E 0 81 2b 00
        E 0 91 30 28
        E 64 b1 0b 10
        E 0 81 30 00
        E 0 91 24 10
        E 64 b1 0b 28
        E 64 b1 0b 10
        E 0 81 24 00
        E 0 91 30 10
        E 64 b1 0b 28
        E 0 81 30 00
        E 0 91 2b 28
        E 48 b1 0b 30
        E 16 b1 0b 10
        E 0 81 2b 00
        E 0 91 24 10
        E 64 b1 0b 28
        E 64 b1 0b 10
        E 0 81 24 00
        E 0 91 2b 10
        E 64 b1 0b 28
        E 0 81 2b 00
        E 0 91 30 28
        E 64 b1 0b 10
        E 0 81 30 00
        E 0 91 24 10
        E 64 b1 0b 28
        E 48 b1 0b 30
        E 16 b1 0b 10
        E 0 81 24 00
        E 0 91 30 10
        E 64 b1 0b 28
        E 0 81 30 00
        E 0 91 2b 28
        E 64 b1 0b 10
        E 0 81 2b 00
        E 0 91 24 10
        E 64 b1 0b 28
        E 64 b1 0b 10
        E 0 81 24 00
        E 0 91 2b 10
        E 64 b1 0b 28
        E 0 81 2b 00
        E 0 91 30 28
        E 48 b1 0b 30
        E 16 b1 0b 10
        E 0 81 30 00
        E 0 91 24 10
        E 64 b1 0b 28
        E 64 b1 0b 10
        E 0 81 24 00
        E 0 91 30 10
        E 64 b1 0b 28
        E 0 81 30 00
        E 0 91 2b 28
        E 64 b1 0b 10
        E 0 81 2b 00
        E 0 91 24 10
        E 64 b1 0b 28
        E 48 b1 0b 30
        E 16 b1 0b 10
        E 0 81 24 00
        E 0 91 2b 10
        E 64 b1 0b 28
        E 0 81 2b 00
        E 0 91 30 28
        E 64 b1 0b 10
        E 0 81 30 00
        E 0 91 24 10
        E 64 b1 0b 28
        E 64 b1 0b 10
        E 0 81 24 00
        E 0 91 30 10
        E 64 b1 0b 28
        E 0 81 30 00
        E 0 91 2b 28
        E 48 b1 0b 30
        E 16 b1 0b 10
        E 0 81 2b 00
        E 0 91 24 10
        E 64 b1 0b 28
        E 64 b1 0b 10
        E 0 81 24 00
        E 0 91 2b 10
        E 64 b1 0b 28
        E 0 81 2b 00
        E 0 91 30 28
        E 64 b1 0b 10
        E 0 81 30 00
        E 0 91 24 10
        E 64 b1 0b 28
        E 48 b1 0b 30
        E 16 b1 0b 10
        E 0 81 24 00
        E 0 91 30 10
        E 64 b1 0b 28
        E 0 81 30 00
        E 0 91 2b 28
        E 64 b1 0b 10
        E 0 81 2b 00
        E 0 91 24 10
        E 64 b1 0b 28
        E 64 b1 0b 10
        E 0 81 24 00
        E 0 91 2b 10
        E 64 b1 0b 28
        E 0 81 2b 00
        E 0 91 30 28
        E 48 b1 0b 30
        E 16 b1 0b 10
        E 0 81 30 00
        E 0 91 24 10
        E 64 b1 0b 28
        E 64 b1 0b 10
        E 0 81 24 00
        E 0 91 30 10
        E 64 b1 0b 28
        E 0 81 30 00
        E 0 91 2b 28
        E 64 b1 0b 10
        E 0 81 2b 00
        E 0 91 24 10
        E 64 b1 0b 28
        E 48 b1 0b 30
        E 16 b1 0b 10
        E 0 81 24 00
        E 0 91 2b 10
        E 64 b1 0b 28
        E 0 81 2b 00
        E 0 91 30 28
        E 64 b1 0b 10
        E 0 81 30 00
        E 0 91 24 10
        E 64 b1 0b 28
        E 64 b1 0b 10
        E 0 81 24 00
        E 0 91 30 10
        E 64 b1 0b 28
        E 0 81 30 00
        E 0 91 2b 28
        E 48 b1 0b 30
        E 16 b1 0b 10
        E 0 81 2b 00
        E 0 91 24 10
        E 64 b1 0b 28
        E 64 b1 0b 10
        E 0 81 24 00
        E 0 91 2b 10
        E 64 b1 0b 28
        E 0 81 2b 00
        E 0 91 30 28
        E 64 b1 0b 10
        E 0 81 30 00
        E 0 91 24 10
        E 64 b1 0b 28
        E 48 b1 0b 30
        E 16 b1 0b 10
        E 0 81 24 00
        E 0 91 30 10
        E 64 b1 0b 28
        E 0 81 30 00
        E 0 91 2b 28
        E 64 b1 0b 10
        E 0 81 2b 00
        E 0 91 24 10
        E 64 b1 0b 28
        E 64 b1 0b 10
        E 0 81 24 00
        E 0 91 2b 10
        E 64 b1 0b 28
        E 0 81 2b 00
        E 0 91 30 28
        E 48 b1 0b 30
        E 16 b1 0b 10
        E 0 81 30 00
        E 0 91 24 10
        E 64 b1 0b 28
        E 64 b1 0b 10
        E 0 81 24 00
        E 0 91 30 10
        E 64 b1 0b 28
        E 0 81 30 00
        E 0 91 2b 28
        E 64 b1 0b 10
        E 0 81 2b 00
        E 0 91 24 10
        E 64 b1 0b 28
        E 48 b1 0b 30
        E 16 b1 0b 10
        E 0 81 24 00
        E 0 91 2b 10
        E 64 b1 0b 28
        E 0 81 2b 00
        E 0 91 30 28
        E 64 b1 0b 10
        E 0 81 30 00
        E 0 91 24 10
        E 64 b1 0b 28
        E 64 b1 0b 10
        E 0 81 24 00
        E 0 91 30 10
        E 64 b1 0b 28
        E 0 81 30 00
        E 0 91 2b 28
        E 48 b1 0b 30
        E 16 b1 0b 10
        E 0 81 2b 00
        E 0 91 24 10
        E 64 b1 0b 28
        E 64 b1 0b 10
        E 0 81 24 00
        E 0 91 2b 10
        E 64 b1 0b 28
        E 0 81 2b 00
        E 0 91 30 28
        E 64 b1 0b 10
        E 0 81 30 00
        E 0 91 24 10
        E 64 b1 0b 28
        E 48 b1 0b 30
        E 16 b1 0b 10
        E 0 81 24 00
        E 0 91 30 10
        E 64 b1 0b 28
        E 0 81 30 00
        E 0 91 2b 28
        E 64 b1 0b 10
        E 0 81 2b 00
        E 0 91 24 10
        E 64 b1 0b 28
        E 64 b1 0b 10
        E 0 81 24 00
        E 0 91 2b 10
        E 64 b1 0b 28
        E 0 81 2b 00
        E 0 91 30 28
        E 48 b1 0b 30
        E 16 b1 0b 10
        E 0 81 30 00
        E 0 91 24 10
        E 64 b1 0b 28
        E 64 b1 0b 10
        E 0 81 24 00
        E 0 91 30 10
        E 64 b1 0b 28
        E 0 81 30 00
        E 0 91 2b 28
        E 64 b1 0b 10
        E 0 81 2b 00
        E 0 91 24 10
        E 64 b1 0b 28
        E 48 b1 0b 30
        E 16 b1 0b 10
        E 0 81 24 00
        E 0 91 2b 10
        E 64 b1 0b 28
        E 0 81 2b 00
        E 0 91 30 28
        E 64 b1 0b 10
        E 0 81 30 00
        E 0 91 24 10
        E 64 b1 0b 28
        E 64 b1 0b 10
        E 0 81 24 00
        E 0 91 30 10
        E 64 b1 0b 28
        E 0 81 30 00
        E 0 91 2b 28
        E 48 b1 0b 30
        E 16 b1 0b 10
        E 0 81 2b 00
        E 0 91 24 10
        E 64 b1 0b 28
        E 64 b1 0b 10
        E 0 81 24 00
        E 0 91 2b 10
        E 64 b1 0b 28
        E 0 81 2b 00
        E 0 91 30 28
        E 64 b1 0b 10
        E 0 81 30 00
        E 0 91 24 10
        E 64 b1 0b 28
        E 48 b1 0b 30
        E 16 b1 0b 10
        E 0 81 24 00
        E 0 91 30 10
        E 64 b1 0b 28
        E 0 81 30 00
        E 0 91 2b 28
        E 64 b1 0b 10
        E 0 81 2b 00
        E 0 91 24 10
        E 64 b1 0b 28
        E 64 b1 0b 10
        E 0 81 24 00
        E 0 91 2b 10
        E 64 b1 0b 28
        E 0 81 2b 00
        E 0 91 30 28
        E 48 b1 0b 30
        E 16 b1 0b 10
        E 0 81 30 00
        E 0 91 24 10
        E 64 b1 0b 28
        E 64 b1 0b 10
        E 0 81 24 00
        E 0 91 30 10
        E 64 b1 0b 28
        E 0 81 30 00
        E 0 91 2b 28
        E 64 b1 0b 10
        E 0 81 2b 00
        E 0 91 24 10
        E 64 b1 0b 28
        E 48 b1 0b 30
        E 16 b1 0b 10
        E 0 81 24 00
        E 0 91 2b 10
        E 64 b1 0b 28
        E 0 81 2b 00
        E 0 91 30 28
        E 64 b1 0b 10
        E 0 81 30 00
        E 0 91 24 10
        E 64 b1 0b 28
        E 64 b1 0b 10
        E 0 81 24 00
        E 0 91 30 10
        E 64 b1 0b 28
        E 0 81 30 00
        E 0 91 2b 28
        E 48 b1 0b 30
        E 16 b1 0b 10
        E 0 81 2b 00
        E 0 91 24 10
        E 64 b1 0b 28
        E 64 b1 0b 10
        E 0 81 24 00
        E 0 91 2b 10
        E 64 b1 0b 28
        E 0 81 2b 00
        E 0 91 30 28
        E 64 b1 0b 10
        E 0 81 30 00
        E 0 91 24 10
        E 64 b1 0b 28
        E 48 b1 0b 30
        E 16 b1 0b 10
        E 0 81 24 00
        E 0 91 30 10
        E 64 b1 0b 28
        E 0 81 30 00
        E 0 91 2b 28
        E 64 b1 0b 10
        E 0 81 2b 00
        E 0 91 24 10
        E 64 b1 0b 28
        E 64 b1 0b 10
        E 0 81 24 00
        E 0 91 2b 10
        E 64 b1 0b 28
        E 0 81 2b 00
        E 0 91 30 28
        E 48 b1 0b 30
        E 16 b1 0b 10
        E 0 81 30 00
        E 0 91 24 10
        E 64 b1 0b 28
        E 64 b1 0b 10
        E 0 81 24 00
        E 0 91 30 10
        E 64 b1 0b 28
        E 0 81 30 00
        E 0 91 2b 28
        E 64 b1 0b 10
        E 0 81 2b 00
        E 0 91 24 10
        E 64 b1 0b 28
        E 48 b1 0b 30
        E 16 b1 0b 10
        E 0 81 24 00
        E 0 91 2b 10
        E 64 b1 0b 28
        E 0 81 2b 00
        E 0 91 30 28
        E 64 b1 0b 10
        E 0 81 30 00
        E 0 91 24 10
        E 64 b1 0b 28
        E 64 b1 0b 10
        E 0 81 24 00
        E 0 91 30 10
        E 64 b1 0b 28
        E 0 81 30 00
        E 0 91 2b 28
        E 48 b1 0b 30
        E 16 b1 0b 10
        E 0 81 2b 00
        E 0 91 24 10
        E 64 b1 0b 28
        E 64 b1 0b 10
        E 0 81 24 00
        E 0 91 2b 10
        E 64 b1 0b 28
        E 0 81 2b 00
        E 0 91 30 28
        E 64 b1 0b 10
        E 0 81 30 00
        E 0 91 24 10
        E 64 b1 0b 28
        E 48 b1 0b 30
        E 16 b1 0b 10
        E 0 81 24 00
        E 0 91 30 10
        E 64 b1 0b 28
        E 0 81 30 00
        E 0 91 2b 28
        E 64 b1 0b 10
        E 0 81 2b 00
        E 0 91 24 10
        E 64 b1 0b 28
        E 64 b1 0b 10
        E 0 81 24 00
        E 0 91 2b 10
        E 64 b1 0b 28
        E 0 81 2b 00
        E 0 91 30 28
        E 48 b1 0b 30
        E 16 b1 0b 10
        E 0 81 30 00
        E 0 91 24 10
        E 64 b1 0b 28
        E 64 b1 0b 10
        E 0 81 24 00
        E 0 91 30 10
        E 64 b1 0b 28
        E 0 81 30 00
        E 0 91 2b 28
        E 64 b1 0b 10
        E 0 81 2b 00
        E 0 91 24 10
        E 64 b1 0b 28
        E 48 b1 0b 30
        E 16 b1 0b 10
        E 0 81 24 00
        E 0 91 2b 10
        E 64 b1 0b 28
        E 0 81 2b 00
        E 0 91 30 28
        E 64 b1 0b 10
        E 0 81 30 00
        E 0 91 24 10
        E 64 b1 0b 28
        E 64 b1 0b 10
        E 0 81 24 00
        E 0 91 30 10
        E 64 b1 0b 28
        E 0 81 30 00
        E 0 91 2b 28
        E 48 b1 0b 30
        E 16 b1 0b 10
        E 0 81 2b 00
        E 0 91 24 10
        E 64 b1 0b 28
        E 64 b1 0b 10
        E 0 81 24 00
        E 0 91 2b 10
        E 64 b1 0b 28
        E 0 81 2b 00
        E 0 91 30 28
        E 64 b1 0b 10
        E 0 81 30 00
        E 0 91 24 10
        E 64 b1 0b 28
        E 48 b1 0b 30
        E 16 b1 0b 10
        E 0 81 24 00
        E 0 91 30 10
        E 64 b1 0b 28
        E 0 81 30 00
        E 0 91 2b 28
        E 64 b1 0b 10
        E 0 81 2b 00
        E 0 91 24 10
        E 64 b1 0b 28
        E 64 b1 0b 10
        E 0 81 24 00
        E 0 91 2b 10
        E 64 b1 0b 28
        E 0 81 2b 00
        E 0 91 30 28
        E 48 b1 0b 30
        E 16 b1 0b 10
        E 0 81 30 00
        E 0 91 24 10
        E 64 b1 0b 28
        E 64 b1 0b 10
        E 0 81 24 00
        E 0 91 30 10
        E 64 b1 0b 28
        E 0 81 30 00
        E 0 91 2b 28
        E 64 b1 0b 10
        E 0 81 2b 00
        E 0 91 24 10
        E 64 b1 0b 28
        E 48 b1 0b 30
        E 16 b1 0b 10
        E 0 81 24 00
        E 0 91 2b 10
        E 64 b1 0b 28
        E 0 81 2b 00
        E 0 91 30 28
        E 64 b1 0b 10
        E 0 81 30 00
        E 0 91 24 10
        E 64 b1 0b 28
        E 64 b1 0b 10
        E 0 81 24 00
        E 0 91 30 10
        E 64 b1 0b 28
        E 0 81 30 00
        E 0 91 2b 28
        E 48 b1 0b 30
        E 16 b1 0b 10
        E 0 81 2b 00
        E 0 91 24 10
        E 64 b1 0b 28
        E 64 b1 0b 10
        E 0 81 24 00
        E 0 91 2b 10
        E 64 b1 0b 28
        E 0 81 2b 00
        E 0 91 30 28
        E 64 b1 0b 10
        E 0 81 30 00
        E 0 91 24 10
        E 64 b1 0b 28
        E 48 b1 0b 30
        E 16 b1 0b 10
        E 0 81 24 00
        E 0 91 30 10
        E 64 b1 0b 28
        E 0 81 30 00
        E 0 91 2b 28
        E 64 b1 0b 10
        E 0 81 2b 00
        E 0 91 24 10
        E 64 b1 0b 28
        E 64 b1 0b 10
        E 0 81 24 00
        E 0 91 2b 10
        E 64 b1 0b 28
        E 0 81 2b 00
        E 0 91 30 28
        E 48 b1 0b 30
        E 16 b1 0b 10
        E 0 81 30 00
        E 0 91 24 10
        E 64 b1 0b 28
        E 64 b1 0b 10
        E 0 81 24 00
        E 0 91 30 10
        E 64 b1 0b 28
        E 0 81 30 00
        E 0 91 2b 28
        E 64 b1 0b 10
        E 0 81 2b 00
        E 0 91 24 10
        E 64 b1 0b 28
        E 48 b1 0b 30
        E 16 b1 0b 10
        E 0 81 24 00
        E 0 91 2b 10
        E 64 b1 0b 28
        E 0 81 2b 00
        E 0 91 30 28
        E 64 b1 0b 10
        E 0 81 30 00
        E 0 91 24 10
        E 64 b1 0b 28
        E 64 b1 0b 10
        E 0 81 24 00
        E 0 91 30 10
        E 64 b1 0b 28
        E 0 81 30 00
        E 0 91 2b 28
        E 48 b1 0b 30
        E 16 b1 0b 10
        E 0 81 2b 00
        E 0 91 24 10
        E 64 b1 0b 28
        E 64 b1 0b 10
        E 0 81 24 00
        E 0 91 2b 10
        E 64 b1 0b 28
        E 0 81 2b 00
        E 0 91 30 28
        E 64 b1 0b 10
        E 0 81 30 00
        E 0 91 24 10
        E 64 b1 0b 28
        E 48 b1 0b 30
        E 16 b1 0b 10
        E 0 81 24 00
        E 0 91 30 10
        E 64 b1 0b 28
        E 0 81 30 00
        E 0 91 2b 28
        E 64 b1 0b 10
        E 0 81 2b 00
        E 0 91 24 10
        E 64 b1 0b 28
        E 64 b1 0b 10
        E 0 81 24 00
        E 0 91 2b 10
        E 64 b1 0b 28
        E 0 81 2b 00
        E 0 91 30 28
        E 48 b1 0b 30
        E 16 b1 0b 10
        E 0 81 30 00
        E 0 91 24 10
        E 64 b1 0b 28
        E 64 b1 0b 10
        E 0 81 24 00
        E 0 91 30 10
        E 64 b1 0b 28
        E 0 81 30 00
        E 0 91 2b 28
        E 64 b1 0b 10
        E 0 81 2b 00
        E 0 91 24 10
        E 64 b1 0b 28
        E 48 b1 0b 30
        E 16 b1 0b 10
        E 0 81 24 00
        E 0 91 2b 10
        E 64 b1 0b 28
        E 0 81 2b 00
        E 0 91 30 28
        E 64 b1 0b 10
        E 0 81 30 00
        E 0 91 24 10
        E 64 b1 0b 28
        E 64 b1 0b 10
        E 0 81 24 00
        E 0 91 30 10
        E 64 b1 0b 28
        E 0 81 30 00
        E 0 91 2b 28
        E 48 b1 0b 30
        E 16 b1 0b 10
        E 0 81 2b 00
        E 0 91 24 10
        E 64 b1 0b 28
        E 64 b1 0b 10
        E 0 81 24 00
        E 0 91 2b 10
        E 64 b1 0b 28
        E 0 81 2b 00
        E 0 91 30 28
        E 64 b1 0b 10
        E 0 81 30 00
        E 0 91 24 10
        E 64 b1 0b 28
        E 48 b1 0b 30
        E 16 b1 0b 10
        E 0 81 24 00
        E 0 91 30 10
        E 64 b1 0b 28
        E 0 81 30 00
        E 0 91 2b 28
        E 64 b1 0b 10
        E 0 81 2b 00
        E 0 91 24 10
        E 64 b1 0b 28
        E 64 b1 0b 10
        E 0 81 24 00
        E 0 91 2b 10
        E 64 b1 0b 28
        E 0 81 2b 00
        E 0 91 30 28
        E 48 b1 0b 30
        E 16 b1 0b 10
        E 0 81 30 00
        E 0 91 24 10
        E 64 b1 0b 28
        E 64 b1 0b 10
        E 0 81 24 00
        E 0 91 30 10
        E 64 b1 0b 28
        E 0 81 30 00
        E 0 91 2b 28
        E 64 b1 0b 10
        E 0 81 2b 00
        E 0 91 24 10
        E 64 b1 0b 28
        E 48 b1 0b 30
        E 16 b1 0b 10
        E 0 81 24 00
        E 0 91 2b 10
        E 64 b1 0b 28
        E 0 81 2b 00
        E 0 91 30 28
        E 64 b1 0b 10
        E 0 81 30 00
        E 0 91 24 10
        E 16 81 24 00
        E 0 ff 2f 00
      >
    >
  >
  <TRACK {2B61B89C-B605-4E67-AE47-0542124BA9CE}
    NAME "NES - Triangle [ch2]"
    PEAKCOL 16744192
    BEAT -1
    AUTOMODE 0
    PANLAWFLAGS 3
    VOLPAN 1 0 -1 -1 1
    MUTESOLO 0 0 0
    IPHASE 0
    PLAYOFFS 0 1
    ISBUS 0 0
    BUSCOMP 0 0 0 0 0
    SHOWINMIX 1 0.6667 0.5 1 0.5 0 0 0
    FIXEDLANES 9 0 0 0 0
    SEL 0
    REC 0 5088 1 0 0 0 0 0
    VU 2
    TRACKHEIGHT 0 0 0 0 0 0 0
    INQ 0 0 0 0.5 100 0 0 100
    NCHAN 2
    FX 1
    TRACKID {2B61B89C-B605-4E67-AE47-0542124BA9CE}
    PERF 0
    MIDIOUT -1
    MAINSEND 1 0
    <FXCHAIN
      WNDRECT 24 52 700 560
      SHOW 0
      LASTSEL 0
      DOCKED 0
      BYPASS 0 0 0
      <JS "ReapNES Studio/ReapNES_Console.jsfx" ""
        2 15 1 10 80 10 100 2 1 15 1 5 60 10 80 1 1 0 50 0 0 15 1 0 100 0 0 0.500000 0.500000 0.400000 0.300000 0.800000 2 1 0 0 0 0 - - - - - - - - - - - - - - - - - - - - - - - - - -
      >
      FLOATPOS 0 0 0 0
      FXID {055256F5-6E8C-444A-BCEB-3EEB7BCC025F}
      WAK 0 0
    >
    <ITEM
      POSITION 0
      LENGTH 83.98134
      LOOP 0
      ALLTAKES 0
      FADEIN 0 0 0 0 0 0 0
      FADEOUT 0 0 0 0 0 0 0
      MUTE 0 0
      SEL 0
      IGUID {ECA45484-295B-4FAC-A80F-28E4D4540376}
      <SOURCE MIDI
        HASDATA 1 480 QN
        CCINTERP 32
        E 0 c2 26
        E 16 b2 0b 7f
        E 0 92 27 7f
        E 2048 82 27 00
        E 0 b2 0b 7f
        E 0 92 2c 7f
        E 1024 82 2c 00
        E 0 b2 0b 7f
        E 0 92 30 7f
        E 1024 82 30 00
        E 0 b2 0b 7f
        E 0 92 31 7f
        E 1024 82 31 00
        E 0 b2 0b 7f
        E 0 92 2a 7f
        E 1024 82 2a 00
        E 0 b2 0b 7f
        E 0 92 29 7f
        E 2048 82 29 00
        E 0 b2 0b 7f
        E 0 92 30 7f
        E 78192 82 30 00
        E 0 ff 2f 00
      >
    >
  >
  <TRACK {C5AA62DF-8FBC-43E9-A211-ABD0F09DFA73}
    NAME "NES - Noise / Drums [ch3]"
    PEAKCOL 11184810
    BEAT -1
    AUTOMODE 0
    PANLAWFLAGS 3
    VOLPAN 1 0 -1 -1 1
    MUTESOLO 0 0 0
    IPHASE 0
    PLAYOFFS 0 1
    ISBUS 0 0
    BUSCOMP 0 0 0 0 0
    SHOWINMIX 1 0.6667 0.5 1 0.5 0 0 0
    FIXEDLANES 9 0 0 0 0
    SEL 0
    REC 0 5088 1 0 0 0 0 0
    VU 2
    TRACKHEIGHT 0 0 0 0 0 0 0
    INQ 0 0 0 0.5 100 0 0 100
    NCHAN 2
    FX 1
    TRACKID {C5AA62DF-8FBC-43E9-A211-ABD0F09DFA73}
    PERF 0
    MIDIOUT -1
    MAINSEND 1 0
    <FXCHAIN
      WNDRECT 24 52 700 560
      SHOW 0
      LASTSEL 0
      DOCKED 0
      BYPASS 0 0 0
      <JS "ReapNES Studio/ReapNES_Console.jsfx" ""
        2 15 1 10 80 10 100 2 1 15 1 5 60 10 80 1 1 0 50 0 0 15 1 0 100 0 0 0.500000 0.500000 0.400000 0.300000 0.800000 3 1 0 0 0 0 - - - - - - - - - - - - - - - - - - - - - - - - - -
      >
      FLOATPOS 0 0 0 0
      FXID {80E13F7C-BE31-41F4-93B6-D64B529C779F}
      WAK 0 0
    >
    <ITEM
      POSITION 0
      LENGTH 83.98134
      LOOP 0
      ALLTAKES 0
      FADEIN 0 0 0 0 0 0 0
      FADEOUT 0 0 0 0 0 0 0
      MUTE 0 0
      SEL 0
      IGUID {8236CC5E-6155-4C63-A3E0-4A71ED8D577B}
      <SOURCE MIDI
        HASDATA 1 480 QN
        CCINTERP 32
        E 48 93 2a 18
        E 2048 83 2a 00
        E 400 93 2a 08
        E 1376 83 2a 00
        E 1296 93 24 18
        E 752 83 24 00
        E 1296 93 24 18
        E 752 83 24 00
        E 1296 93 24 18
        E 752 83 24 00
        E 1296 93 24 18
        E 752 83 24 00
        E 1296 93 24 18
        E 752 83 24 00
        E 1296 93 24 18
        E 752 83 24 00
        E 1296 93 24 18
        E 752 83 24 00
        E 1296 93 24 18
        E 752 83 24 00
        E 1296 93 24 18
        E 752 83 24 00
        E 1296 93 24 18
        E 752 83 24 00
        E 1296 93 24 18
        E 752 83 24 00
        E 1296 93 24 18
        E 752 83 24 00
        E 1296 93 24 18
        E 752 83 24 00
        E 1296 93 24 18
        E 752 83 24 00
        E 1296 93 24 18
        E 752 83 24 00
        E 1296 93 24 18
        E 752 83 24 00
        E 1296 93 24 18
        E 752 83 24 00
        E 1296 93 24 18
        E 752 83 24 00
        E 1296 93 24 18
        E 752 83 24 00
        E 1296 93 24 18
        E 752 83 24 00
        E 1296 93 24 18
        E 752 83 24 00
        E 1296 93 24 18
        E 752 83 24 00
        E 1296 93 24 18
        E 752 83 24 00
        E 1296 93 24 18
        E 752 83 24 00
        E 1296 93 24 18
        E 752 83 24 00
        E 1296 93 24 18
        E 752 83 24 00
        E 1296 93 24 18
        E 752 83 24 00
        E 1296 93 24 18
        E 752 83 24 00
        E 1296 93 24 18
        E 752 83 24 00
        E 1296 93 24 18
        E 752 83 24 00
        E 1296 93 24 18
        E 752 83 24 00
        E 1296 93 24 18
        E 752 83 24 00
        E 1296 93 24 18
        E 752 83 24 00
        E 1296 93 24 18
        E 752 83 24 00
        E 1296 93 24 18
        E 752 83 24 00
        E 1296 93 24 18
        E 752 83 24 00
        E 1296 93 24 18
        E 752 83 24 00
        E 1296 93 24 18
        E 752 83 24 00
        E 1296 93 24 18
        E 752 83 24 00
        E 1296 93 24 18
        E 752 83 24 00
        E 0 ff 2f 00
      >
    >
  >
>