<REAPER_PROJECT 0.1 "7.27/win64" 1707000000
  <NOTES 0 2
    |ReapNES Studio Project
    |MIDI Import - RC_Pro-Am_title_rom_v1
  >
  RIPPLE 0
  GROUPOVERRIDE 0 0 0
  AUTOXFADE 129
  ENVATTACH 3
  POOLEDENVATTACH 0
  MIXERUIFLAGS 11 48
  ENVFADESZ10 40
  PEAKGAIN 1
  FEEDBACK 0
  PANLAW 1
  PROJOFFS 0 0 0
  MAXPROJLEN 0 0
  GRID 3199 8 1 8 1 0 0 0
  TIMEMODE 1 5 -1 30 0 0 -1
  VIDEO_CONFIG 0 0 65792
  PANMODE 3
  PANLAWFLAGS 3
  CURSOR 0
  ZOOM 100 0 0
  VZOOMEX 6 0
  USE_REC_CFG 0
  RECMODE 1
  SMPTESYNC 0 30 100 40 1000 300 0 0 1 0 0
  LOOP 0
  LOOPGRAN 0 4
  RECORD_PATH "Media" ""
  <RECORD_CFG
    ZXZhdxgAAQ==
  >
  <APPLYFX_CFG
  >
  RENDER_FILE ""
  RENDER_PATTERN ""
  RENDER_FMT 0 2 0
  RENDER_1X 0
  RENDER_RANGE 1 0 0 18 1000
  RENDER_RESAMPLE 3 0 1
  RENDER_ADDTOPROJ 0
  RENDER_STEMS 0
  RENDER_DITHER 0
  TIMELOCKMODE 1
  TEMPOENVLOCKMODE 1
  ITEMMIX 1
  DEFPITCHMODE 589824 0
  TAKELANE 1
  SAMPLERATE 44100 0 0
  <RENDER_CFG
    ZXZhdxgAAQ==
  >
  LOCK 1
  <METRONOME 6 2
    VOL 0.25 0.125
    BEATLEN 4
    FREQ 1760 880 1
    SAMPLES "" ""
    SPLIGNORE 0 0
    SPLDEF 2 660 "" 0
    SPLDEF 3 440 "" 0
    PATTERN 0 169
    PATTERNSTR ABBB
    MULT 1
  >
  GLOBAL_AUTO -1
  TEMPO 128.59999614200012 4 4
  PLAYRATE 1 0 0.25 4
  SELECTION 0 0
  SELECTION2 0 0
  MASTERAUTOMODE 0
  MASTERTRACKHEIGHT 0 0
  MASTERPEAKCOL 16576
  MASTERMUTESOLO 0
  MASTERTRACKVIEW 0 0.6667 0.5 0.5 0 0 0 0 0 0 0 0 0 0
  MASTERHWOUT 0 0 1 0 0 0 0 -1
  MASTER_NCH 2 2
  MASTER_VOLUME 1 0 -1 -1 1
  MASTER_PANMODE 3
  MASTER_PANLAWFLAGS 3
  MASTER_FX 1
  MASTER_SEL 0
  <MASTERPLAYSPEEDENV
    EGUID {F806BA22-4A4B-4AB1-853B-5854A2E31108}
    ACT 0 -1
    VIS 0 1 1
    LANEHEIGHT 0 0
    ARM 0
    DEFSHAPE 0 -1 -1
  >
  <TEMPOENVEX
    EGUID {7B8178A0-AA88-4526-82B7-CA060E6B967C}
    ACT 1 -1
    VIS 1 0 1
    LANEHEIGHT 0 0
    ARM 0
    DEFSHAPE 1 -1 -1
  >
  <PROJBAY
  >
  <TRACK {A8555321-84D1-49B0-A47C-3F17E683078E}
    NAME "NES - Pulse 1 [ch0]"
    PEAKCOL 16576606
    BEAT -1
    AUTOMODE 0
    PANLAWFLAGS 3
    VOLPAN 1 0 -1 -1 1
    MUTESOLO 0 0 0
    IPHASE 0
    PLAYOFFS 0 1
    ISBUS 0 0
    BUSCOMP 0 0 0 0 0
    SHOWINMIX 1 0.6667 0.5 1 0.5 0 0 0
    FIXEDLANES 9 0 0 0 0
    SEL 1
    REC 1 5088 1 0 0 0 0 0
    VU 2
    TRACKHEIGHT 0 0 0 0 0 0 0
    INQ 0 0 0 0.5 100 0 0 100
    NCHAN 2
    FX 1
    TRACKID {A8555321-84D1-49B0-A47C-3F17E683078E}
    PERF 0
    MIDIOUT -1
    MAINSEND 1 0
    <FXCHAIN
      WNDRECT 24 52 700 560
      SHOW 0
      LASTSEL 0
      DOCKED 0
      BYPASS 0 0 0
      <JS "ReapNES Studio/ReapNES_Console.jsfx" ""
        2 15 1 10 80 10 100 2 1 15 1 5 60 10 80 1 1 0 50 0 0 15 1 0 100 0 0 0.500000 0.500000 0.400000 0.300000 0.800000 0 1 0 0 0 0 - - - - - - - - - - - - - - - - - - - - - - - - - -
      >
      FLOATPOS 0 0 0 0
      FXID {31A76771-F8CE-4B23-99AC-BE87FE9A00EF}
      WAK 0 0
    >
    <ITEM
      POSITION 0
      LENGTH 74.65008
      LOOP 0
      ALLTAKES 0
      FADEIN 0 0 0 0 0 0 0
      FADEOUT 0 0 0 0 0 0 0
      MUTE 0 0
      SEL 0
      IGUID {9CC6337B-76CE-4A10-8CE2-B679A39FD5B5}
      <SOURCE MIDI
        HASDATA 1 480 QN
        CCINTERP 32
        E 0 c0 50
        E 0 b0 0c 20
        E 0 b0 0b 11
        E 0 90 35 11
        E 144 80 35 00
        E 0 90 41 11
        E 256 80 41 00
        E 0 90 32 11
        E 256 80 32 00
        E 0 90 30 11
        E 256 80 30 00
        E 0 90 2e 11
        E 64 80 2e 00
        E 23120 b0 0c 40
        E 0 b0 0b 7f
        E 0 90 15 7f
        E 336 80 15 00
        E 0 90 17 7f
        E 528 80 17 00
        E 0 90 1a 7f
        E 192 b0 0b 77
        E 256 b0 0b 6e
        E 176 b0 0b 66
        E 176 b0 0b 5d
        E 0 80 1a 00
        E 0 90 1d 5d
        E 96 b0 0b 55
        E 128 b0 0b 4c
        E 128 b0 0b 44
        E 128 b0 0b 3b
        E 160 b0 0b 33
        E 176 80 1d 00
        E 0 90 21 33
        E 48 b0 0b 2a
        E 16 b0 0b 33
        E 16 b0 0b 2a
        E 144 b0 0b 22
        E 16 b0 0b 2a
        E 16 b0 0b 22
        E 112 b0 0b 19
        E 96 b0 0b 11
        E 80 b0 0b 08
        E 240 b0 0b 11
        E 160 b0 0b 19
        E 16 b0 0b 11
        E 16 b0 0b 19
        E 16 b0 0b 11
        E 80 b0 0b 08
        E 64 80 21 00
        E 944 b0 0b 7f
        E 0 90 75 7f
        E 64 b0 0b 3b
        E 64 b0 0b 77
        E 64 b0 0b 33
        E 64 b0 0b 6e
        E 64 b0 0b 2a
        E 64 b0 0b 66
        E 64 b0 0b 22
        E 64 b0 0b 7f
        E 128 80 75 00
        E 16 b0 0c 60
        E 0 90 2c 7f
        E 16 80 2c 00
        E 0 90 1f 7f
        E 16 80 1f 00
        E 0 90 2c 7f
        E 16 b0 0b 6e
        E 0 80 2c 00
        E 0 90 1f 6e
        E 16 b0 0b 4c
        E 16 b0 0b 3b
        E 0 80 1f 00
        E 0 90 2c 3b
        E 16 b0 0b 2a
        E 0 80 2c 00
        E 0 90 1f 2a
        E 16 b0 0b 22
        E 0 80 1f 00
        E 0 90 2c 22
        E 16 b0 0b 19
        E 16 80 2c 00
        E 64 b0 0c 20
        E 0 b0 0b 7f
        E 0 90 37 7f
        E 112 80 37 00
        E 1472 b0 0c 60
        E 0 90 7a 7f
        E 784 80 7a 00
        E 2528 b0 0c 40
        E 0 90 39 7f
        E 64 b0 0b 3b
        E 64 b0 0b 77
        E 64 b0 0b 33
        E 64 b0 0b 6e
        E 64 b0 0b 2a
        E 64 b0 0b 66
        E 64 b0 0b 22
        E 64 b0 0b 7f
        E 128 80 39 00
        E 928 90 39 7f
        E 480 80 39 00
        E 10432 b0 0c 20
        E 0 b0 0b 19
        E 0 90 24 19
        E 1536 80 24 00
        E 0 90 26 19
        E 768 80 26 00
        E 0 90 24 19
        E 192 80 24 00
        E 0 90 36 19
        E 192 80 36 00
        E 0 90 37 19
        E 960 80 37 00
        E 10848 b0 0c 40
        E 0 b0 0b 7f
        E 0 90 15 7f
        E 192 80 15 00
        E 0 90 17 7f
        E 256 80 17 00
        E 0 90 1a 7f
        E 336 80 1a 00
        E 0 90 1e 7f
        E 16 80 1e 00
        E 0 90 1d 7f
        E 16 80 1d 00
        E 0 90 1f 7f
        E 256 80 1f 00
        E 0 90 21 7f
        E 16 80 21 00
        E 0 90 1f 7f
        E 32 80 1f 00
        E 0 90 21 7f
        E 48 80 21 00
        E 0 90 1f 7f
        E 256 b0 0b 77
        E 32 b0 0b 7f
        E 64 b0 0b 77
        E 16 b0 0b 7f
        E 16 80 1f 00
        E 0 90 21 7f
        E 16 b0 0b 77
        E 16 b0 0b 7f
        E 1120 80 21 00
        E 0 90 15 7f
        E 48 80 15 00
        E 0 90 69 7f
        E 16 80 69 00
        E 0 90 15 7f
        E 112 80 15 00
        E 0 90 69 7f
        E 16 80 69 00
        E 0 90 15 7f
        E 112 80 15 00
        E 0 90 69 7f
        E 16 80 69 00
        E 0 90 15 7f
        E 112 80 15 00
        E 0 90 69 7f
        E 16 80 69 00
        E 0 90 15 7f
        E 112 80 15 00
        E 0 90 69 7f
        E 16 80 69 00
        E 0 90 15 7f
        E 288 b0 0c 60
        E 0 80 15 00
        E 0 90 2c 7f
        E 16 80 2c 00
        E 0 90 1f 7f
        E 16 80 1f 00
        E 0 90 2c 7f
        E 16 b0 0b 6e
        E 0 80 2c 00
        E 0 90 1f 6e
        E 16 b0 0b 4c
        E 16 b0 0b 3b
        E 0 80 1f 00
        E 0 90 2c 3b
        E 16 b0 0b 2a
        E 0 80 2c 00
        E 0 90 1f 2a
        E 16 b0 0b 22
        E 0 80 1f 00
        E 0 90 2c 22
        E 16 b0 0b 19
        E 16 80 2c 00
        E 16 b0 0b 7f
        E 0 90 26 7f
        E 16 80 26 00
        E 0 90 1f 7f
        E 16 80 1f 00
        E 0 90 2c 7f
        E 16 b0 0b 6e
        E 0 80 2c 00
        E 0 90 1f 6e
        E 16 b0 0b 4c
        E 16 b0 0b 3b
        E 0 80 1f 00
        E 0 90 2c 3b
        E 16 b0 0b 2a
        E 0 80 2c 00
        E 0 90 1f 2a
        E 16 b0 0b 22
        E 0 80 1f 00
        E 0 90 2c 22
        E 16 b0 0b 19
        E 16 80 2c 00
        E 16 b0 0b 7f
        E 0 90 27 7f
        E 16 80 27 00
        E 0 90 1f 7f
        E 16 80 1f 00
        E 0 90 2c 7f
        E 16 b0 0b 6e
        E 0 80 2c 00
        E 0 90 1f 6e
        E 16 b0 0b 4c
        E 16 b0 0b 3b
        E 0 80 1f 00
        E 0 90 2c 3b
        E 16 b0 0b 2a
        E 0 80 2c 00
        E 0 90 1f 2a
        E 16 b0 0b 22
        E 0 80 1f 00
        E 0 90 2c 22
        E 16 b0 0b 19
        E 16 80 2c 00
        E 16 b0 0b 7f
        E 0 90 29 7f
        E 16 80 29 00
        E 0 90 1f 7f
        E 16 80 1f 00
        E 0 90 2c 7f
        E 16 b0 0b 6e
        E 0 80 2c 00
        E 0 90 1f 6e
        E 16 b0 0b 4c
        E 16 b0 0b 3b
        E 0 80 1f 00
        E 0 90 2c 3b
        E 16 b0 0b 2a
        E 0 80 2c 00
        E 0 90 1f 2a
        E 16 b0 0b 22
        E 0 80 1f 00
        E 0 90 2c 22
        E 16 b0 0b 19
        E 16 80 2c 00
        E 16 b0 0c 40
        E 0 b0 0b 7f
        E 0 90 1b 7f
        E 224 80 1b 00
        E 0 90 1d 7f
        E 400 80 1d 00
        E 0 90 21 7f
        E 16 80 21 00
        E 32 90 21 7f
        E 16 80 21 00
        E 48 90 22 7f
        E 16 80 22 00
        E 48 90 23 7f
        E 16 80 23 00
        E 48 90 23 7f
        E 16 80 23 00
        E 48 90 24 7f
        E 16 80 24 00
        E 48 90 24 7f
        E 16 80 24 00
        E 48 90 25 7f
        E 192 80 25 00
        E 0 90 26 7f
        E 1072 b0 0b 77
        E 32 b0 0b 7f
        E 16 b0 0b 77
        E 208 b0 0b 7f
        E 0 80 26 00
        E 0 90 59 7f
        E 64 b0 0b 3b
        E 64 b0 0b 77
        E 64 b0 0b 33
        E 64 b0 0b 6e
        E 64 b0 0b 2a
        E 64 b0 0b 66
        E 64 b0 0b 22
        E 64 b0 0b 7f
        E 128 80 59 00
        E 16 b0 0b 5d
        E 0 90 2d 5d
        E 128 b0 0b 55
        E 176 b0 0b 4c
        E 128 b0 0b 44
        E 112 b0 0b 3b
        E 112 b0 0b 33
        E 128 b0 0b 2a
        E 96 b0 0b 22
        E 96 b0 0b 19
        E 160 b0 0b 11
        E 320 b0 0b 19
        E 240 b0 0b 11
        E 64 b0 0b 08
        E 80 80 2d 00
        E 352 90 28 08
        E 112 b0 0c 20
        E 0 b0 0b 7f
        E 0 80 28 00
        E 0 90 30 7f
        E 112 80 30 00
        E 272 90 2d 7f
        E 112 80 2d 00
        E 4432 b0 0c 40
        E 0 b0 0b 08
        E 0 90 27 08
        E 96 b0 0b 11
        E 48 b0 0b 08
        E 96 80 27 00
        E 496 b0 7b 00
        E 0 ff 2f 00
      >
    >
  >
  <TRACK {01C1CE97-FCF2-475C-B240-32F8ADAF7C93}
    NAME "NES - Pulse 2 [ch1]"
    PEAKCOL 10092441
    BEAT -1
    AUTOMODE 0
    PANLAWFLAGS 3
    VOLPAN 1 0 -1 -1 1
    MUTESOLO 0 0 0
    IPHASE 0
    PLAYOFFS 0 1
    ISBUS 0 0
    BUSCOMP 0 0 0 0 0
    SHOWINMIX 1 0.6667 0.5 1 0.5 0 0 0
    FIXEDLANES 9 0 0 0 0
    SEL 0
    REC 0 5088 1 0 0 0 0 0
    VU 2
    TRACKHEIGHT 0 0 0 0 0 0 0
    INQ 0 0 0 0.5 100 0 0 100
    NCHAN 2
    FX 1
    TRACKID {01C1CE97-FCF2-475C-B240-32F8ADAF7C93}
    PERF 0
    MIDIOUT -1
    MAINSEND 1 0
    <FXCHAIN
      WNDRECT 24 52 700 560
      SHOW 0
      LASTSEL 0
      DOCKED 0
      BYPASS 0 0 0
      <JS "ReapNES Studio/ReapNES_Console.jsfx" ""
        2 15 1 10 80 10 100 2 1 15 1 5 60 10 80 1 1 0 50 0 0 15 1 0 100 0 0 0.500000 0.500000 0.400000 0.300000 0.800000 1 1 0 0 0 0 - - - - - - - - - - - - - - - - - - - - - - - - - -
      >
      FLOATPOS 0 0 0 0
      FXID {DA4BEF9B-E741-4E8C-A831-9CD889BCB775}
      WAK 0 0
    >
    <ITEM
      POSITION 0
      LENGTH 74.65008
      LOOP 0
      ALLTAKES 0
      FADEIN 0 0 0 0 0 0 0
      FADEOUT 0 0 0 0 0 0 0
      MUTE 0 0
      SEL 0
      IGUID {BBA4E6FA-64A6-4759-9B36-7C9FFD64D85B}
      <SOURCE MIDI
        HASDATA 1 480 QN
        CCINTERP 32
        E 0 c1 51
        E 0 b1 0c 20
        E 0 b1 0b 11
        E 0 91 3e 11
        E 128 81 3e 00
        E 0 91 3c 11
        E 256 81 3c 00
        E 0 91 3a 11
        E 256 81 3a 00
        E 0 91 39 11
        E 256 81 39 00
        E 0 91 37 11
        E 80 81 37 00
        E 23120 b1 0c 40
        E 0 b1 0b 44
        E 0 91 15 44
        E 208 81 15 00
        E 0 91 17 44
        E 272 81 17 00
        E 0 91 1a 44
        E 368 81 1a 00
        E 0 91 1d 44
        E 592 81 1d 00
        E 0 91 21 44
        E 1552 81 21 00
        E 0 91 26 44
        E 11056 81 26 00
        E 0 91 25 44
        E 448 81 25 00
        E 0 91 26 44
        E 8304 b1 0b 6e
        E 0 81 26 00
        E 0 91 34 6e
        E 576 81 34 00
        E 0 91 37 6e
        E 96 81 37 00
        E 0 91 36 6e
        E 96 81 36 00
        E 0 91 37 6e
        E 192 81 37 00
        E 0 91 36 6e
        E 192 81 36 00
        E 0 91 32 6e
        E 480 81 32 00
        E 0 91 34 6e
        E 96 81 34 00
        E 0 91 36 6e
        E 96 81 36 00
        E 0 91 37 6e
        E 96 81 37 00
        E 0 91 39 6e
        E 96 81 39 00
        E 0 91 3b 6e
        E 96 81 3b 00
        E 0 91 3e 6e
        E 96 81 3e 00
        E 0 91 40 6e
        E 96 b1 0b 19
        E 0 81 40 00
        E 0 91 3b 19
        E 192 81 3b 00
        E 0 91 3e 19
        E 192 81 3e 00
        E 0 91 40 19
        E 11792 81 40 00
        E 16 b1 0b 44
        E 0 91 15 44
        E 352 81 15 00
        E 0 91 17 44
        E 336 81 17 00
        E 0 91 1a 44
        E 496 81 1a 00
        E 0 91 1d 44
        E 1024 81 1d 00
        E 0 91 21 44
        E 592 81 21 00
        E 784 91 15 44
        E 416 81 15 00
        E 0 91 17 44
        E 336 81 17 00
        E 0 91 1a 44
        E 496 81 1a 00
        E 0 91 1d 44
        E 1024 81 1d 00
        E 0 91 21 44
        E 9552 81 21 00
        E 0 b1 7b 00
        E 0 ff 2f 00
      >
    >
  >
  <TRACK {4B3E8C39-2659-4D00-AC94-643EF3602DDD}
    NAME "NES - Triangle [ch2]"
    PEAKCOL 16744192
    BEAT -1
    AUTOMODE 0
    PANLAWFLAGS 3
    VOLPAN 1 0 -1 -1 1
    MUTESOLO 0 0 0
    IPHASE 0
    PLAYOFFS 0 1
    ISBUS 0 0
    BUSCOMP 0 0 0 0 0
    SHOWINMIX 1 0.6667 0.5 1 0.5 0 0 0
    FIXEDLANES 9 0 0 0 0
    SEL 0
    REC 0 5088 1 0 0 0 0 0
    VU 2
    TRACKHEIGHT 0 0 0 0 0 0 0
    INQ 0 0 0 0.5 100 0 0 100
    NCHAN 2
    FX 1
    TRACKID {4B3E8C39-2659-4D00-AC94-643EF3602DDD}
    PERF 0
    MIDIOUT -1
    MAINSEND 1 0
    <FXCHAIN
      WNDRECT 24 52 700 560
      SHOW 0
      LASTSEL 0
      DOCKED 0
      BYPASS 0 0 0
      <JS "ReapNES Studio/ReapNES_Console.jsfx" ""
        2 15 1 10 80 10 100 2 1 15 1 5 60 10 80 1 1 0 50 0 0 15 1 0 100 0 0 0.500000 0.500000 0.400000 0.300000 0.800000 2 1 0 0 0 0 - - - - - - - - - - - - - - - - - - - - - - - - - -
      >
      FLOATPOS 0 0 0 0
      FXID {BF25934C-78E8-415E-AA95-507E73A4C5F9}
      WAK 0 0
    >
    <ITEM
      POSITION 0
      LENGTH 74.65008
      LOOP 0
      ALLTAKES 0
      FADEIN 0 0 0 0 0 0 0
      FADEOUT 0 0 0 0 0 0 0
      MUTE 0 0
      SEL 0
      IGUID {2D465035-2BEC-47CB-AE4A-FD90407E998A}
      <SOURCE MIDI
        HASDATA 1 480 QN
        CCINTERP 32
        E 0 c2 26
        E 0 b2 0b 7f
        E 0 92 3a 7f
        E 128 82 3a 00
        E 0 b2 0b 7f
        E 0 92 39 7f
        E 256 82 39 00
        E 0 b2 0b 7f
        E 0 92 37 7f
        E 256 82 37 00
        E 0 b2 0b 7f
        E 0 92 35 7f
        E 256 82 35 00
        E 0 b2 0b 7f
        E 0 92 32 7f
        E 23200 82 32 00
        E 0 b2 0b 7f
        E 0 92 18 7f
        E 128 82 18 00
        E 0 b2 0b 7f
        E 0 92 1a 7f
        E 768 82 1a 00
        E 0 b2 0b 7f
        E 0 92 21 7f
        E 21904 82 21 00
        E 0 b2 0b 7f
        E 0 92 2b 7f
        E 1536 82 2b 00
        E 0 b2 0b 7f
        E 0 92 2d 7f
        E 96 82 2d 00
        E 0 b2 0b 7f
        E 0 92 2f 7f
        E 96 82 2f 00
        E 0 b2 0b 7f
        E 0 92 32 7f
        E 96 82 32 00
        E 0 b2 0b 7f
        E 0 92 34 7f
        E 96 82 34 00
        E 0 b2 0b 7f
        E 0 92 36 7f
        E 96 82 36 00
        E 0 b2 0b 7f
        E 0 92 37 7f
        E 96 82 37 00
        E 0 b2 0b 7f
        E 0 92 39 7f
        E 96 82 39 00
        E 0 b2 0b 7f
        E 0 92 3b 7f
        E 96 82 3b 00
        E 0 b2 0b 7f
        E 0 92 37 7f
        E 192 82 37 00
        E 0 b2 0b 7f
        E 0 92 39 7f
        E 192 82 39 00
        E 0 b2 0b 7f
        E 0 92 3b 7f
        E 11808 82 3b 00
        E 0 b2 0b 7f
        E 0 92 18 7f
        E 288 82 18 00
        E 0 b2 0b 7f
        E 0 92 1a 7f
        E 1040 82 1a 00
        E 0 b2 0b 7f
        E 0 92 21 7f
        E 1472 82 21 00
        E 784 b2 0b 7f
        E 0 92 18 7f
        E 336 82 18 00
        E 0 b2 0b 7f
        E 0 92 1a 7f
        E 1072 82 1a 00
        E 0 b2 0b 7f
        E 0 92 21 7f
        E 10416 82 21 00
        E 0 b2 7b 00
        E 0 ff 2f 00
      >
    >
  >
  <TRACK {E57E2008-C4E8-45C6-84D0-2C9B972354C1}
    NAME "NES - Noise / Drums [ch3]"
    PEAKCOL 11184810
    BEAT -1
    AUTOMODE 0
    PANLAWFLAGS 3
    VOLPAN 1 0 -1 -1 1
    MUTESOLO 0 0 0
    IPHASE 0
    PLAYOFFS 0 1
    ISBUS 0 0
    BUSCOMP 0 0 0 0 0
    SHOWINMIX 1 0.6667 0.5 1 0.5 0 0 0
    FIXEDLANES 9 0 0 0 0
    SEL 0
    REC 0 5088 1 0 0 0 0 0
    VU 2
    TRACKHEIGHT 0 0 0 0 0 0 0
    INQ 0 0 0 0.5 100 0 0 100
    NCHAN 2
    FX 1
    TRACKID {E57E2008-C4E8-45C6-84D0-2C9B972354C1}
    PERF 0
    MIDIOUT -1
    MAINSEND 1 0
    <FXCHAIN
      WNDRECT 24 52 700 560
      SHOW 0
      LASTSEL 0
      DOCKED 0
      BYPASS 0 0 0
      <JS "ReapNES Studio/ReapNES_Console.jsfx" ""
        2 15 1 10 80 10 100 2 1 15 1 5 60 10 80 1 1 0 50 0 0 15 1 0 100 0 0 0.500000 0.500000 0.400000 0.300000 0.800000 3 1 0 0 0 0 - - - - - - - - - - - - - - - - - - - - - - - - - -
      >
      FLOATPOS 0 0 0 0
      FXID {15AE63E3-287C-47DA-B579-78DF0C9557D9}
      WAK 0 0
    >
    <ITEM
      POSITION 0
      LENGTH 74.65008
      LOOP 0
      ALLTAKES 0
      FADEIN 0 0 0 0 0 0 0
      FADEOUT 0 0 0 0 0 0 0
      MUTE 0 0
      SEL 0
      IGUID {35A26B67-D173-4C0B-BE6B-331E8487144F}
      <SOURCE MIDI
        HASDATA 1 480 QN
        CCINTERP 32
        E 38128 93 2a 22
        E 32 83 2a 00
        E 0 93 2a 22
        E 16 83 2a 00
        E 0 93 2a 22
        E 32 83 2a 00
        E 0 93 2a 22
        E 32 83 2a 00
        E 0 93 2a 22
        E 32 83 2a 00
        E 0 93 2a 22
        E 32 83 2a 00
        E 0 93 2a 22
        E 32 83 2a 00
        E 25648 93 2a 7f
        E 144 83 2a 00
        E 0 93 2a 66
        E 480 83 2a 00
        E 16 93 2a 7f
        E 144 83 2a 00
        E 0 93 2a 66
        E 480 83 2a 00
        E 11552 b3 7b 00
        E 0 ff 2f 00
      >
    >
  >
>