<REAPER_PROJECT 0.1 "7.27/win64" 1707000000
  <NOTES 0 2
    |ReapNES Studio Project
    |MIDI Import - Metal_Storm_title_rom_v1
  >
  RIPPLE 0
  GROUPOVERRIDE 0 0 0
  AUTOXFADE 129
  ENVATTACH 3
  POOLEDENVATTACH 0
  MIXERUIFLAGS 11 48
  ENVFADESZ10 40
  PEAKGAIN 1
  FEEDBACK 0
  PANLAW 1
  PROJOFFS 0 0 0
  MAXPROJLEN 0 0
  GRID 3199 8 1 8 1 0 0 0
  TIMEMODE 1 5 -1 30 0 0 -1
  VIDEO_CONFIG 0 0 65792
  PANMODE 3
  PANLAWFLAGS 3
  CURSOR 0
  ZOOM 100 0 0
  VZOOMEX 6 0
  USE_REC_CFG 0
  RECMODE 1
  SMPTESYNC 0 30 100 40 1000 300 0 0 1 0 0
  LOOP 0
  LOOPGRAN 0 4
  RECORD_PATH "Media" ""
  <RECORD_CFG
    ZXZhdxgAAQ==
  >
  <APPLYFX_CFG
  >
  RENDER_FILE ""
  RENDER_PATTERN ""
  RENDER_FMT 0 2 0
  RENDER_1X 0
  RENDER_RANGE 1 0 0 18 1000
  RENDER_RESAMPLE 3 0 1
  RENDER_ADDTOPROJ 0
  RENDER_STEMS 0
  RENDER_DITHER 0
  TIMELOCKMODE 1
  TEMPOENVLOCKMODE 1
  ITEMMIX 1
  DEFPITCHMODE 589824 0
  TAKELANE 1
  SAMPLERATE 44100 0 0
  <RENDER_CFG
    ZXZhdxgAAQ==
  >
  LOCK 1
  <METRONOME 6 2
    VOL 0.25 0.125
    BEATLEN 4
    FREQ 1760 880 1
    SAMPLES "" ""
    SPLIGNORE 0 0
    SPLDEF 2 660 "" 0
    SPLDEF 3 440 "" 0
    PATTERN 0 169
    PATTERNSTR ABBB
    MULT 1
  >
  GLOBAL_AUTO -1
  TEMPO 128.59999614200012 4 4
  PLAYRATE 1 0 0.25 4
  SELECTION 0 0
  SELECTION2 0 0
  MASTERAUTOMODE 0
  MASTERTRACKHEIGHT 0 0
  MASTERPEAKCOL 16576
  MASTERMUTESOLO 0
  MASTERTRACKVIEW 0 0.6667 0.5 0.5 0 0 0 0 0 0 0 0 0 0
  MASTERHWOUT 0 0 1 0 0 0 0 -1
  MASTER_NCH 2 2
  MASTER_VOLUME 1 0 -1 -1 1
  MASTER_PANMODE 3
  MASTER_PANLAWFLAGS 3
  MASTER_FX 1
  MASTER_SEL 0
  <MASTERPLAYSPEEDENV
    EGUID {45706FE2-1257-458A-BC40-2713F03A5397}
    ACT 0 -1
    VIS 0 1 1
    LANEHEIGHT 0 0
    ARM 0
    DEFSHAPE 0 -1 -1
  >
  <TEMPOENVEX
    EGUID {5FFB95E0-1759-45C5-B5B3-6AF01B506AA1}
    ACT 1 -1
    VIS 1 0 1
    LANEHEIGHT 0 0
    ARM 0
    DEFSHAPE 1 -1 -1
  >
  <PROJBAY
  >
  <TRACK {6C21DADE-5100-444B-8CD0-031FD7A4BF04}
    NAME "NES - Pulse 1 [ch0]"
    PEAKCOL 16576606
    BEAT -1
    AUTOMODE 0
    PANLAWFLAGS 3
    VOLPAN 1 0 -1 -1 1
    MUTESOLO 0 0 0
    IPHASE 0
    PLAYOFFS 0 1
    ISBUS 0 0
    BUSCOMP 0 0 0 0 0
    SHOWINMIX 1 0.6667 0.5 1 0.5 0 0 0
    FIXEDLANES 9 0 0 0 0
    SEL 1
    REC 1 5088 1 0 0 0 0 0
    VU 2
    TRACKHEIGHT 0 0 0 0 0 0 0
    INQ 0 0 0 0.5 100 0 0 100
    NCHAN 2
    FX 1
    TRACKID {6C21DADE-5100-444B-8CD0-031FD7A4BF04}
    PERF 0
    MIDIOUT -1
    MAINSEND 1 0
    <FXCHAIN
      WNDRECT 24 52 700 560
      SHOW 0
      LASTSEL 0
      DOCKED 0
      BYPASS 0 0 0
      <JS "ReapNES Studio/ReapNES_Console.jsfx" ""
        2 15 1 10 80 10 100 2 1 15 1 5 60 10 80 1 1 0 50 0 0 15 1 0 100 0 0 0.500000 0.500000 0.400000 0.300000 0.800000 0 1 0 0 0 0 - - - - - - - - - - - - - - - - - - - - - - - - - -
      >
      FLOATPOS 0 0 0 0
      FXID {C7AFA93C-CB21-46C7-A5B3-2494D543E53D}
      WAK 0 0
    >
    <ITEM
      POSITION 0
      LENGTH 30.326595
      LOOP 0
      ALLTAKES 0
      FADEIN 0 0 0 0 0 0 0
      FADEOUT 0 0 0 0 0 0 0
      MUTE 0 0
      SEL 0
      IGUID {DED0715C-9F35-4A7A-ACD9-955F1D46EBCD}
      <SOURCE MIDI
        HASDATA 1 480 QN
        CCINTERP 32
        E 0 c0 50
        E 0 b0 0c 10
        E 0 b0 0b 44
        E 0 90 39 44
        E 160 80 39 00
        E 0 90 1a 44
        E 128 80 1a 00
        E 0 90 21 44
        E 2912 80 21 00
        E 0 90 39 44
        E 160 80 39 00
        E 0 90 1a 44
        E 128 80 1a 00
        E 0 90 21 44
        E 2128 b0 0b 7f
        E 0 80 21 00
        E 0 90 39 7f
        E 1936 b0 0c 40
        E 0 80 39 00
        E 0 90 35 7f
        E 48 80 35 00
        E 0 90 37 7f
        E 48 80 37 00
        E 0 90 3a 7f
        E 48 b0 0b 66
        E 0 80 3a 00
        E 0 90 3e 66
        E 48 b0 0b 55
        E 0 80 3e 00
        E 0 90 41 55
        E 48 b0 0b 3b
        E 0 80 41 00
        E 0 90 44 3b
        E 48 b0 0b 22
        E 0 80 44 00
        E 0 90 48 22
        E 528 b0 0b 7f
        E 0 80 48 00
        E 0 90 35 7f
        E 48 80 35 00
        E 0 90 37 7f
        E 48 80 37 00
        E 0 90 3a 7f
        E 48 b0 0b 66
        E 0 80 3a 00
        E 0 90 3e 66
        E 48 b0 0b 55
        E 0 80 3e 00
        E 0 90 41 55
        E 48 b0 0b 3b
        E 0 80 41 00
        E 0 90 44 3b
        E 48 b0 0b 22
        E 0 80 44 00
        E 0 90 48 22
        E 432 b0 0c 10
        E 0 b0 0b 44
        E 0 80 48 00
        E 0 90 39 44
        E 4192 b0 0b 7f
        E 8352 b0 0b 44
        E 2016 b0 0b 7f
        E 6304 b0 0b 44
        E 1136 b0 0b 7f
        E 112 80 39 00
        E 0 b0 7b 00
        E 0 ff 2f 00
      >
    >
  >
  <TRACK {FC66F81F-DF67-4728-A156-D6CFF29FC62B}
    NAME "NES - Pulse 2 [ch1]"
    PEAKCOL 10092441
    BEAT -1
    AUTOMODE 0
    PANLAWFLAGS 3
    VOLPAN 1 0 -1 -1 1
    MUTESOLO 0 0 0
    IPHASE 0
    PLAYOFFS 0 1
    ISBUS 0 0
    BUSCOMP 0 0 0 0 0
    SHOWINMIX 1 0.6667 0.5 1 0.5 0 0 0
    FIXEDLANES 9 0 0 0 0
    SEL 0
    REC 0 5088 1 0 0 0 0 0
    VU 2
    TRACKHEIGHT 0 0 0 0 0 0 0
    INQ 0 0 0 0.5 100 0 0 100
    NCHAN 2
    FX 1
    TRACKID {FC66F81F-DF67-4728-A156-D6CFF29FC62B}
    PERF 0
    MIDIOUT -1
    MAINSEND 1 0
    <FXCHAIN
      WNDRECT 24 52 700 560
      SHOW 0
      LASTSEL 0
      DOCKED 0
      BYPASS 0 0 0
      <JS "ReapNES Studio/ReapNES_Console.jsfx" ""
        2 15 1 10 80 10 100 2 1 15 1 5 60 10 80 1 1 0 50 0 0 15 1 0 100 0 0 0.500000 0.500000 0.400000 0.300000 0.800000 1 1 0 0 0 0 - - - - - - - - - - - - - - - - - - - - - - - - - -
      >
      FLOATPOS 0 0 0 0
      FXID {A9880475-23F6-43FF-8300-39621688717E}
      WAK 0 0
    >
    <ITEM
      POSITION 0
      LENGTH 30.326595
      LOOP 0
      ALLTAKES 0
      FADEIN 0 0 0 0 0 0 0
      FADEOUT 0 0 0 0 0 0 0
      MUTE 0 0
      SEL 0
      IGUID {30632A22-127B-4537-A47A-9B658F2DA8F7}
      <SOURCE MIDI
        HASDATA 1 480 QN
        CCINTERP 32
        E 0 c1 51
        E 0 b1 0c 10
        E 0 b1 0b 44
        E 0 91 3e 44
        E 160 81 3e 00
        E 0 91 1f 44
        E 128 81 1f 00
        E 0 91 26 44
        E 2048 b1 0c 20
        E 0 b1 0b 3b
        E 0 81 26 00
        E 0 91 1d 3b
        E 864 b1 0c 10
        E 0 b1 0b 44
        E 0 81 1d 00
        E 0 91 3e 44
        E 160 81 3e 00
        E 0 91 1f 44
        E 128 81 1f 00
        E 0 91 26 44
        E 1248 b1 0c 20
        E 0 b1 0b 3b
        E 0 81 26 00
        E 0 91 1d 3b
        E 512 b1 0c 10
        E 0 b1 0b 44
        E 0 81 1d 00
        E 0 91 5d 44
        E 80 b1 0c 20
        E 0 b1 0b 7f
        E 0 81 5d 00
        E 0 91 29 7f
        E 288 b1 0c 40
        E 0 b1 0b 08
        E 0 81 29 00
        E 0 91 58 08
        E 240 b1 0c 10
        E 0 b1 0b 44
        E 0 81 58 00
        E 0 91 5d 44
        E 1696 b1 0c 40
        E 0 b1 0b 7f
        E 0 81 5d 00
        E 0 91 3a 7f
        E 48 81 3a 00
        E 0 91 3c 7f
        E 48 81 3c 00
        E 0 91 3f 7f
        E 48 b1 0b 66
        E 0 81 3f 00
        E 0 91 43 66
        E 48 b1 0b 55
        E 0 81 43 00
        E 0 91 46 55
        E 48 b1 0b 3b
        E 0 81 46 00
        E 0 91 49 3b
        E 48 b1 0b 22
        E 0 81 49 00
        E 0 91 4d 22
        E 528 b1 0b 7f
        E 0 81 4d 00
        E 0 91 3a 7f
        E 48 81 3a 00
        E 0 91 3c 7f
        E 48 81 3c 00
        E 0 91 3f 7f
        E 48 b1 0b 66
        E 0 81 3f 00
        E 0 91 43 66
        E 48 b1 0b 55
        E 0 81 43 00
        E 0 91 46 55
        E 48 b1 0b 3b
        E 0 81 46 00
        E 0 91 49 3b
        E 48 b1 0b 22
        E 0 81 49 00
        E 0 91 4d 22
        E 432 b1 0c 10
        E 0 b1 0b 44
        E 0 81 4d 00
        E 0 91 3e 44
        E 3328 b1 0c 20
        E 0 b1 0b 3b
        E 0 81 3e 00
        E 0 91 1d 3b
        E 512 b1 0c 10
        E 0 b1 0b 44
        E 0 81 1d 00
        E 0 91 5d 44
        E 64 b1 0c 20
        E 0 b1 0b 7f
        E 0 81 5d 00
        E 0 91 29 7f
        E 288 b1 0c 40
        E 0 b1 0b 08
        E 0 81 29 00
        E 0 91 58 08
        E 1760 b1 0c 20
        E 0 b1 0b 3b
        E 0 81 58 00
        E 0 91 1d 3b
        E 576 b1 0c 10
        E 0 b1 0b 44
        E 0 81 1d 00
        E 0 91 5d 44
        E 32 b1 0c 20
        E 0 b1 0b 7f
        E 0 81 5d 00
        E 0 91 29 7f
        E 288 b1 0c 40
        E 0 b1 0b 08
        E 0 81 29 00
        E 0 91 58 08
        E 800 b1 0c 20
        E 0 b1 0b 3b
        E 0 81 58 00
        E 0 91 1d 3b
        E 160 b1 0c 10
        E 0 b1 0b 44
        E 0 81 1d 00
        E 0 91 5d 44
        E 176 b1 0c 40
        E 0 b1 0b 08
        E 0 81 5d 00
        E 0 91 58 08
        E 304 b1 0c 10
        E 0 b1 0b 44
        E 0 81 58 00
        E 0 91 5d 44
        E 256 b1 0c 20
        E 0 b1 0b 7f
        E 0 81 5d 00
        E 0 91 29 7f
        E 128 b1 0b 3b
        E 0 81 29 00
        E 0 91 1d 3b
        E 128 b1 0b 7f
        E 0 81 1d 00
        E 0 91 29 7f
        E 128 b1 0c 40
        E 0 b1 0b 08
        E 0 81 29 00
        E 0 91 58 08
        E 1120 b1 0c 20
        E 0 b1 0b 3b
        E 0 81 58 00
        E 0 91 1d 3b
        E 1376 b1 0c 10
        E 0 b1 0b 44
        E 0 81 1d 00
        E 0 91 5d 44
        E 112 b1 0c 20
        E 0 b1 0b 7f
        E 0 81 5d 00
        E 0 91 29 7f
        E 240 b1 0b 3b
        E 0 81 29 00
        E 0 91 1d 3b
        E 80 b1 0b 7f
        E 0 81 1d 00
        E 0 91 29 7f
        E 160 b1 0c 40
        E 0 b1 0b 08
        E 0 81 29 00
        E 0 91 58 08
        E 528 b1 0c 10
        E 0 b1 0b 44
        E 0 81 58 00
        E 0 91 3e 44
        E 1120 b1 0c 20
        E 0 b1 0b 3b
        E 0 81 3e 00
        E 0 91 1d 3b
        E 608 b1 0b 7f
        E 0 81 1d 00
        E 0 91 29 7f
        E 288 b1 0c 40
        E 0 b1 0b 08
        E 0 81 29 00
        E 0 91 58 08
        E 1056 b1 0c 10
        E 0 b1 0b 44
        E 0 81 58 00
        E 0 91 5d 44
        E 144 b1 0c 20
        E 0 b1 0b 7f
        E 0 81 5d 00
        E 0 91 29 7f
        E 480 b1 0c 40
        E 0 b1 0b 08
        E 0 81 29 00
        E 0 91 58 08
        E 1936 b1 0c 10
        E 0 b1 0b 44
        E 0 81 58 00
        E 0 91 5d 44
        E 32 b1 0c 40
        E 0 b1 0b 08
        E 0 81 5d 00
        E 0 91 58 08
        E 640 b1 0c 20
        E 0 b1 0b 3b
        E 0 81 58 00
        E 0 91 1d 3b
        E 864 b1 0c 10
        E 0 b1 0b 44
        E 0 81 1d 00
        E 0 91 5d 44
        E 32 b1 0c 20
        E 0 b1 0b 7f
        E 0 81 5d 00
        E 0 91 29 7f
        E 128 b1 0b 3b
        E 0 81 29 00
        E 0 91 1d 3b
        E 64 b1 0b 7f
        E 0 81 1d 00
        E 0 91 29 7f
        E 96 b1 0c 40
        E 0 b1 0b 08
        E 0 81 29 00
        E 0 91 58 08
        E 832 b1 0c 10
        E 0 b1 0b 44
        E 0 81 58 00
        E 0 91 3e 44
        E 768 81 3e 00
        E 0 91 5d 44
        E 80 b1 0c 20
        E 0 b1 0b 7f
        E 0 81 5d 00
        E 0 91 29 7f
        E 288 b1 0c 40
        E 0 b1 0b 08
        E 0 81 29 00
        E 0 91 58 08
        E 112 81 58 00
        E 0 b1 7b 00
        E 0 ff 2f 00
      >
    >
  >
  <TRACK {57A1D867-6973-451B-94B4-0EA0A3EC5FA4}
    NAME "NES - Triangle"
    PEAKCOL 16744192
    BEAT -1
    AUTOMODE 0
    PANLAWFLAGS 3
    VOLPAN 1 0 -1 -1 1
    MUTESOLO 0 0 0
    IPHASE 0
    PLAYOFFS 0 1
    ISBUS 0 0
    BUSCOMP 0 0 0 0 0
    SHOWINMIX 1 0.6667 0.5 1 0.5 0 0 0
    FIXEDLANES 9 0 0 0 0
    SEL 0
    REC 0 5088 1 0 0 0 0 0
    VU 2
    TRACKHEIGHT 0 0 0 0 0 0 0
    INQ 0 0 0 0.5 100 0 0 100
    NCHAN 2
    FX 1
    TRACKID {57A1D867-6973-451B-94B4-0EA0A3EC5FA4}
    PERF 0
    MIDIOUT -1
    MAINSEND 1 0
    <FXCHAIN
      WNDRECT 24 52 700 560
      SHOW 0
      LASTSEL 0
      DOCKED 0
      BYPASS 0 0 0
      <JS "ReapNES Studio/ReapNES_Console.jsfx" ""
        2 15 1 10 80 10 100 2 1 15 1 5 60 10 80 1 1 0 50 0 0 15 1 0 100 0 0 0.500000 0.500000 0.400000 0.300000 0.800000 2 1 0 0 0 0 - - - - - - - - - - - - - - - - - - - - - - - - - -
      >
      FLOATPOS 0 0 0 0
      FXID {536F4A3E-3EF2-4331-A7F4-4E24A19C77C0}
      WAK 0 0
    >
  >
  <TRACK {8891EE81-5AAB-42A2-AE76-CE3ECF67CE95}
    NAME "NES - Noise / Drums [ch3]"
    PEAKCOL 11184810
    BEAT -1
    AUTOMODE 0
    PANLAWFLAGS 3
    VOLPAN 1 0 -1 -1 1
    MUTESOLO 0 0 0
    IPHASE 0
    PLAYOFFS 0 1
    ISBUS 0 0
    BUSCOMP 0 0 0 0 0
    SHOWINMIX 1 0.6667 0.5 1 0.5 0 0 0
    FIXEDLANES 9 0 0 0 0
    SEL 0
    REC 0 5088 1 0 0 0 0 0
    VU 2
    TRACKHEIGHT 0 0 0 0 0 0 0
    INQ 0 0 0 0.5 100 0 0 100
    NCHAN 2
    FX 1
    TRACKID {8891EE81-5AAB-42A2-AE76-CE3ECF67CE95}
    PERF 0
    MIDIOUT -1
    MAINSEND 1 0
    <FXCHAIN
      WNDRECT 24 52 700 560
      SHOW 0
      LASTSEL 0
      DOCKED 0
      BYPASS 0 0 0
      <JS "ReapNES Studio/ReapNES_Console.jsfx" ""
        2 15 1 10 80 10 100 2 1 15 1 5 60 10 80 1 1 0 50 0 0 15 1 0 100 0 0 0.500000 0.500000 0.400000 0.300000 0.800000 3 1 0 0 0 0 - - - - - - - - - - - - - - - - - - - - - - - - - -
      >
      FLOATPOS 0 0 0 0
      FXID {9DDAF1F0-9669-48D8-8449-683F4EC57CEB}
      WAK 0 0
    >
    <ITEM
      POSITION 0
      LENGTH 30.326595
      LOOP 0
      ALLTAKES 0
      FADEIN 0 0 0 0 0 0 0
      FADEOUT 0 0 0 0 0 0 0
      MUTE 0 0
      SEL 0
      IGUID {A819A4C3-B6BC-44F8-AD28-F31F15B80C45}
      <SOURCE MIDI
        HASDATA 1 480 QN
        CCINTERP 32
        E 2336 93 2a 7f
        E 368 83 2a 00
        E 2032 93 2a 7f
        E 880 83 2a 00
        E 0 93 2a 08
        E 32 83 2a 00
        E 0 93 2a 08
        E 32 83 2a 00
        E 0 93 2a 08
        E 32 83 2a 00
        E 0 93 2a 08
        E 864 83 2a 00
        E 2672 93 2a 4c
        E 48 83 2a 00
        E 3120 93 2a 7f
        E 864 83 2a 00
        E 0 93 2a 08
        E 32 83 2a 00
        E 0 93 2a 08
        E 32 83 2a 00
        E 0 93 2a 08
        E 32 83 2a 00
        E 0 93 2a 08
        E 1424 83 2a 00
        E 240 93 2a 7f
        E 896 83 2a 00
        E 0 93 2a 08
        E 32 83 2a 00
        E 0 93 2a 08
        E 32 83 2a 00
        E 0 93 2a 08
        E 32 83 2a 00
        E 0 93 2a 08
        E 704 83 2a 00
        E 0 93 2a 7f
        E 336 83 2a 00
        E 0 93 2a 08
        E 32 83 2a 00
        E 0 93 2a 08
        E 32 83 2a 00
        E 0 93 2a 08
        E 32 83 2a 00
        E 0 93 2a 08
        E 592 83 2a 00
        E 0 93 2a 7f
        E 256 83 2a 00
        E 0 93 2a 08
        E 32 83 2a 00
        E 0 93 2a 08
        E 32 83 2a 00
        E 0 93 2a 08
        E 32 83 2a 00
        E 0 93 2a 08
        E 880 83 2a 00
        E 144 93 2a 7f
        E 656 83 2a 00
        E 560 93 2a 7f
        E 752 83 2a 00
        E 0 93 2a 08
        E 32 83 2a 00
        E 0 93 2a 08
        E 32 83 2a 00
        E 0 93 2a 08
        E 32 83 2a 00
        E 0 93 2a 08
        E 592 83 2a 00
        E 0 93 2a 4c
        E 304 83 2a 00
        E 656 93 2a 7f
        E 896 83 2a 00
        E 0 93 2a 08
        E 32 83 2a 00
        E 0 93 2a 08
        E 32 83 2a 00
        E 0 93 2a 08
        E 32 83 2a 00
        E 0 93 2a 08
        E 560 83 2a 00
        E 1024 93 2a 08
        E 32 83 2a 00
        E 0 93 2a 08
        E 32 83 2a 00
        E 0 93 2a 08
        E 32 83 2a 00
        E 0 93 2a 08
        E 864 83 2a 00
        E 1008 93 2a 08
        E 32 83 2a 00
        E 0 93 2a 08
        E 32 83 2a 00
        E 0 93 2a 08
        E 32 83 2a 00
        E 0 93 2a 08
        E 544 83 2a 00
        E 0 93 2a 7f
        E 1184 83 2a 00
        E 0 93 2a 08
        E 32 83 2a 00
        E 0 93 2a 08
        E 32 83 2a 00
        E 0 93 2a 08
        E 32 83 2a 00
        E 0 93 2a 08
        E 896 83 2a 00
        E 0 93 2a 4c
        E 432 83 2a 00
        E 544 93 2a 08
        E 32 83 2a 00
        E 0 93 2a 08
        E 32 83 2a 00
        E 0 93 2a 08
        E 32 83 2a 00
        E 0 93 2a 08
        E 16 83 2a 00
        E 0 b3 7b 00
        E 0 ff 2f 00
      >
    >
  >
>