<REAPER_PROJECT 0.1 "7.27/win64" 1707000000
  <NOTES 0 2
    |ReapNES Studio Project
    |MIDI Import - Faxanadu_song_D3_rom_v1
  >
  RIPPLE 0
  GROUPOVERRIDE 0 0 0
  AUTOXFADE 129
  ENVATTACH 3
  POOLEDENVATTACH 0
  MIXERUIFLAGS 11 48
  ENVFADESZ10 40
  PEAKGAIN 1
  FEEDBACK 0
  PANLAW 1
  PROJOFFS 0 0 0
  MAXPROJLEN 0 0
  GRID 3199 8 1 8 1 0 0 0
  TIMEMODE 1 5 -1 30 0 0 -1
  VIDEO_CONFIG 0 0 65792
  PANMODE 3
  PANLAWFLAGS 3
  CURSOR 0
  ZOOM 100 0 0
  VZOOMEX 6 0
  USE_REC_CFG 0
  RECMODE 1
  SMPTESYNC 0 30 100 40 1000 300 0 0 1 0 0
  LOOP 0
  LOOPGRAN 0 4
  RECORD_PATH "Media" ""
  <RECORD_CFG
    ZXZhdxgAAQ==
  >
  <APPLYFX_CFG
  >
  RENDER_FILE ""
  RENDER_PATTERN ""
  RENDER_FMT 0 2 0
  RENDER_1X 0
  RENDER_RANGE 1 0 0 18 1000
  RENDER_RESAMPLE 3 0 1
  RENDER_ADDTOPROJ 0
  RENDER_STEMS 0
  RENDER_DITHER 0
  TIMELOCKMODE 1
  TEMPOENVLOCKMODE 1
  ITEMMIX 1
  DEFPITCHMODE 589824 0
  TAKELANE 1
  SAMPLERATE 44100 0 0
  <RENDER_CFG
    ZXZhdxgAAQ==
  >
  LOCK 1
  <METRONOME 6 2
    VOL 0.25 0.125
    BEATLEN 4
    FREQ 1760 880 1
    SAMPLES "" ""
    SPLIGNORE 0 0
    SPLDEF 2 660 "" 0
    SPLDEF 3 440 "" 0
    PATTERN 0 169
    PATTERNSTR ABBB
    MULT 1
  >
  GLOBAL_AUTO -1
  TEMPO 128.59999614200012 4 4
  PLAYRATE 1 0 0.25 4
  SELECTION 0 0
  SELECTION2 0 0
  MASTERAUTOMODE 0
  MASTERTRACKHEIGHT 0 0
  MASTERPEAKCOL 16576
  MASTERMUTESOLO 0
  MASTERTRACKVIEW 0 0.6667 0.5 0.5 0 0 0 0 0 0 0 0 0 0
  MASTERHWOUT 0 0 1 0 0 0 0 -1
  MASTER_NCH 2 2
  MASTER_VOLUME 1 0 -1 -1 1
  MASTER_PANMODE 3
  MASTER_PANLAWFLAGS 3
  MASTER_FX 1
  MASTER_SEL 0
  <MASTERPLAYSPEEDENV
    EGUID {22C83F60-3982-47B2-A399-7EFEB4B27D23}
    ACT 0 -1
    VIS 0 1 1
    LANEHEIGHT 0 0
    ARM 0
    DEFSHAPE 0 -1 -1
  >
  <TEMPOENVEX
    EGUID {FBEDFC5B-CDDD-4F16-9A43-7E126C2FDE09}
    ACT 1 -1
    VIS 1 0 1
    LANEHEIGHT 0 0
    ARM 0
    DEFSHAPE 1 -1 -1
  >
  <PROJBAY
  >
  <TRACK {AC922F27-E5EE-41FC-AA77-F4747014CD42}
    NAME "NES - Pulse 1 [ch0]"
    PEAKCOL 16576606
    BEAT -1
    AUTOMODE 0
    PANLAWFLAGS 3
    VOLPAN 1 0 -1 -1 1
    MUTESOLO 0 0 0
    IPHASE 0
    PLAYOFFS 0 1
    ISBUS 0 0
    BUSCOMP 0 0 0 0 0
    SHOWINMIX 1 0.6667 0.5 1 0.5 0 0 0
    FIXEDLANES 9 0 0 0 0
    SEL 1
    REC 1 5088 1 0 0 0 0 0
    VU 2
    TRACKHEIGHT 0 0 0 0 0 0 0
    INQ 0 0 0 0.5 100 0 0 100
    NCHAN 2
    FX 1
    TRACKID {AC922F27-E5EE-41FC-AA77-F4747014CD42}
    PERF 0
    MIDIOUT -1
    MAINSEND 1 0
    <FXCHAIN
      WNDRECT 24 52 700 560
      SHOW 0
      LASTSEL 0
      DOCKED 0
      BYPASS 0 0 0
      <JS "ReapNES Studio/ReapNES_Console.jsfx" ""
        2 15 1 10 80 10 100 2 1 15 1 5 60 10 80 1 1 0 50 0 0 15 1 0 100 0 0 0.500000 0.500000 0.400000 0.300000 0.800000 0 1 0 0 0 0 - - - - - - - - - - - - - - - - - - - - - - - - - -
      >
      FLOATPOS 0 0 0 0
      FXID {20488EEB-77AF-4CB6-9288-6B8BFA3F8BD9}
      WAK 0 0
    >
    <ITEM
      POSITION 0
      LENGTH 74.5878716
      LOOP 0
      ALLTAKES 0
      FADEIN 0 0 0 0 0 0 0
      FADEOUT 0 0 0 0 0 0 0
      MUTE 0 0
      SEL 0
      IGUID {E0369348-3937-425D-B4A2-B559C553900B}
      <SOURCE MIDI
        HASDATA 1 480 QN
        CCINTERP 32
        E 0 c0 50
        E 96 b0 0c 60
        E 0 b0 0b 7f
        E 0 90 6c 7f
        E 80 b0 0b 77
        E 16 b0 0b 7f
        E 0 80 6c 00
        E 0 90 43 7f
        E 80 b0 0b 77
        E 80 b0 0b 6e
        E 80 b0 0b 66
        E 96 b0 0b 5d
        E 80 b0 0b 55
        E 80 b0 0b 4c
        E 96 b0 0b 7f
        E 0 80 43 00
        E 0 90 28 7f
        E 80 b0 0b 77
        E 80 b0 0b 6e
        E 80 b0 0b 66
        E 96 b0 0b 5d
        E 80 b0 0b 55
        E 80 b0 0b 4c
        E 96 80 28 00
        E 1760 b0 0b 11
        E 0 90 28 11
        E 1168 80 28 00
        E 2336 90 5f 11
        E 1712 80 5f 00
        E 0 90 6c 11
        E 96 80 6c 00
        E 0 90 43 11
        E 592 80 43 00
        E 0 90 28 11
        E 592 80 28 00
        E 1760 90 28 11
        E 1168 80 28 00
        E 2336 b0 0b 6e
        E 0 90 5f 6e
        E 16 b0 0b 5d
        E 1152 b0 0b 6e
        E 0 80 5f 00
        E 0 90 43 6e
        E 16 b0 0b 5d
        E 576 80 43 00
        E 592 b0 0b 6e
        E 0 90 7a 6e
        E 16 b0 0b 5d
        E 656 b0 0b 6e
        E 0 80 7a 00
        E 0 90 57 6e
        E 16 b0 0b 5d
        E 576 b0 0b 6e
        E 0 80 57 00
        E 0 90 68 6e
        E 16 b0 0b 5d
        E 1168 b0 0b 6e
        E 0 80 68 00
        E 0 90 48 6e
        E 16 b0 0b 5d
        E 64 b0 0b 6e
        E 0 80 48 00
        E 0 90 62 6e
        E 16 b0 0b 5d
        E 576 b0 0b 6e
        E 0 80 62 00
        E 0 90 6b 6e
        E 16 b0 0b 5d
        E 656 b0 0b 6e
        E 0 80 6b 00
        E 0 90 28 6e
        E 16 b0 0b 5d
        E 576 80 28 00
        E 0 90 47 5d
        E 1248 80 47 00
        E 656 90 63 5d
        E 656 80 63 00
        E 0 90 47 5d
        E 656 80 47 00
        E 736 90 68 5d
        E 1312 80 68 00
        E 80 90 6c 5d
        E 592 80 6c 00
        E 0 90 4b 5d
        E 592 80 4b 00
        E 0 90 44 5d
        E 1648 80 44 00
        E 848 90 6e 5d
        E 320 80 6e 00
        E 0 90 43 5d
        E 592 80 43 00
        E 0 90 28 5d
        E 592 80 28 00
        E 592 90 49 5d
        E 1184 80 49 00
        E 0 90 6e 5d
        E 1824 80 6e 00
        E 0 90 1f 5d
        E 464 80 1f 00
        E 464 90 6e 5d
        E 1824 80 6e 00
        E 0 90 20 5d
        E 464 80 20 00
        E 2720 90 4e 5d
        E 80 80 4e 00
        E 0 90 43 5d
        E 592 80 43 00
        E 0 90 28 5d
        E 34368 80 28 00
        E 0 b0 7b 00
        E 0 ff 2f 00
      >
    >
  >
  <TRACK {A00906BE-EBFC-4F55-82ED-601920699FC3}
    NAME "NES - Pulse 2 [ch1]"
    PEAKCOL 10092441
    BEAT -1
    AUTOMODE 0
    PANLAWFLAGS 3
    VOLPAN 1 0 -1 -1 1
    MUTESOLO 0 0 0
    IPHASE 0
    PLAYOFFS 0 1
    ISBUS 0 0
    BUSCOMP 0 0 0 0 0
    SHOWINMIX 1 0.6667 0.5 1 0.5 0 0 0
    FIXEDLANES 9 0 0 0 0
    SEL 0
    REC 0 5088 1 0 0 0 0 0
    VU 2
    TRACKHEIGHT 0 0 0 0 0 0 0
    INQ 0 0 0 0.5 100 0 0 100
    NCHAN 2
    FX 1
    TRACKID {A00906BE-EBFC-4F55-82ED-601920699FC3}
    PERF 0
    MIDIOUT -1
    MAINSEND 1 0
    <FXCHAIN
      WNDRECT 24 52 700 560
      SHOW 0
      LASTSEL 0
      DOCKED 0
      BYPASS 0 0 0
      <JS "ReapNES Studio/ReapNES_Console.jsfx" ""
        2 15 1 10 80 10 100 2 1 15 1 5 60 10 80 1 1 0 50 0 0 15 1 0 100 0 0 0.500000 0.500000 0.400000 0.300000 0.800000 1 1 0 0 0 0 - - - - - - - - - - - - - - - - - - - - - - - - - -
      >
      FLOATPOS 0 0 0 0
      FXID {BA619209-9EB6-4A0A-BBD9-0F1A0C0DE531}
      WAK 0 0
    >
    <ITEM
      POSITION 0
      LENGTH 74.5878716
      LOOP 0
      ALLTAKES 0
      FADEIN 0 0 0 0 0 0 0
      FADEOUT 0 0 0 0 0 0 0
      MUTE 0 0
      SEL 0
      IGUID {34FF1C05-F520-4E8B-8D90-A2CB3ACA4370}
      <SOURCE MIDI
        HASDATA 1 480 QN
        CCINTERP 32
        E 0 c1 51
        E 0 b1 0c 40
        E 0 b1 0b 66
        E 0 91 3b 66
        E 80 b1 0b 5d
        E 16 b1 0b 66
        E 0 81 3b 00
        E 0 91 3d 66
        E 80 b1 0b 5d
        E 16 b1 0b 66
        E 0 81 3d 00
        E 0 91 3e 66
        E 80 b1 0b 5d
        E 16 b1 0c 20
        E 0 b1 0b 66
        E 0 81 3e 00
        E 0 91 3f 66
        E 80 b1 0b 5d
        E 16 b1 0b 66
        E 80 b1 0b 5d
        E 16 b1 0b 66
        E 80 b1 0b 5d
        E 80 b1 0b 55
        E 32 b1 0b 66
        E 0 81 3f 00
        E 0 91 47 66
        E 80 b1 0b 5d
        E 16 b1 0b 66
        E 0 81 47 00
        E 0 91 36 66
        E 80 b1 0b 5d
        E 16 b1 0b 66
        E 0 81 36 00
        E 0 91 3f 66
        E 80 b1 0b 5d
        E 16 b1 0b 66
        E 80 b1 0b 5d
        E 16 b1 0b 66
        E 80 b1 0b 5d
        E 16 b1 0b 66
        E 80 b1 0b 5d
        E 16 b1 0b 66
        E 80 b1 0b 5d
        E 80 b1 0b 55
        E 32 b1 0b 66
        E 0 81 3f 00
        E 0 91 47 66
        E 80 b1 0b 5d
        E 16 b1 0b 66
        E 0 81 47 00
        E 0 91 36 66
        E 80 b1 0b 5d
        E 16 b1 0b 66
        E 0 81 36 00
        E 0 91 3f 66
        E 80 b1 0b 5d
        E 16 b1 0b 66
        E 80 b1 0b 5d
        E 16 b1 0b 66
        E 0 81 3f 00
        E 0 91 40 66
        E 80 b1 0b 5d
        E 16 b1 0b 66
        E 80 b1 0b 5d
        E 16 b1 0b 66
        E 80 b1 0b 5d
        E 80 b1 0b 55
        E 32 b1 0b 66
        E 0 81 40 00
        E 0 91 47 66
        E 80 b1 0b 5d
        E 16 b1 0b 66
        E 0 81 47 00
        E 0 91 38 66
        E 80 b1 0b 5d
        E 16 b1 0b 66
        E 0 81 38 00
        E 0 91 40 66
        E 80 b1 0b 5d
        E 16 b1 0b 66
        E 80 b1 0b 5d
        E 16 b1 0b 66
        E 80 b1 0b 5d
        E 16 b1 0b 66
        E 80 b1 0b 5d
        E 16 b1 0b 66
        E 80 b1 0b 5d
        E 80 b1 0b 55
        E 32 b1 0b 66
        E 0 81 40 00
        E 0 91 47 66
        E 80 b1 0b 5d
        E 16 b1 0b 66
        E 0 81 47 00
        E 0 91 38 66
        E 80 b1 0b 5d
        E 16 b1 0b 66
        E 0 81 38 00
        E 0 91 40 66
        E 80 b1 0b 5d
        E 16 b1 0b 66
        E 80 b1 0b 5d
        E 16 b1 0b 66
        E 0 81 40 00
        E 0 91 3f 66
        E 80 b1 0b 5d
        E 16 b1 0b 66
        E 80 b1 0b 5d
        E 16 b1 0b 66
        E 80 b1 0b 5d
        E 80 b1 0b 55
        E 32 b1 0b 66
        E 0 81 3f 00
        E 0 91 47 66
        E 80 b1 0b 5d
        E 16 b1 0b 66
        E 0 81 47 00
        E 0 91 36 66
        E 80 b1 0b 5d
        E 16 b1 0b 66
        E 0 81 36 00
        E 0 91 3f 66
        E 80 b1 0b 5d
        E 16 b1 0b 66
        E 80 b1 0b 5d
        E 16 b1 0b 66
        E 80 b1 0b 5d
        E 16 b1 0b 66
        E 0 81 3f 00
        E 0 91 3b 66
        E 80 b1 0b 5d
        E 16 b1 0b 66
        E 0 81 3b 00
        E 0 91 36 66
        E 80 b1 0b 5d
        E 16 b1 0b 66
        E 0 81 36 00
        E 0 91 3b 66
        E 80 b1 0b 5d
        E 16 b1 0b 66
        E 0 81 3b 00
        E 0 91 3f 66
        E 80 b1 0b 5d
        E 16 b1 0b 66
        E 80 b1 0b 5d
        E 16 b1 0b 66
        E 0 81 3f 00
        E 0 91 42 66
        E 80 b1 0b 5d
        E 16 b1 0b 66
        E 80 b1 0b 5d
        E 16 b1 0b 66
        E 0 81 42 00
        E 0 91 37 66
        E 80 b1 0b 5d
        E 16 b1 0b 66
        E 0 81 37 00
        E 0 91 3b 66
        E 80 b1 0b 5d
        E 16 b1 0b 66
        E 0 81 3b 00
        E 0 91 3e 66
        E 80 b1 0b 5d
        E 16 b1 0b 66
        E 0 81 3e 00
        E 0 91 43 66
        E 80 b1 0b 5d
        E 16 b1 0b 66
        E 0 81 43 00
        E 0 91 47 66
        E 80 b1 0b 5d
        E 16 b1 0b 66
        E 0 81 47 00
        E 0 91 43 66
        E 80 b1 0b 5d
        E 16 b1 0b 66
        E 0 81 43 00
        E 0 91 36 66
        E 80 b1 0b 5d
        E 80 b1 0b 55
        E 80 b1 0b 4c
        E 96 b1 0b 44
        E 48 b1 0b 66
        E 0 81 36 00
        E 0 91 2d 66
        E 80 b1 0b 5d
        E 16 b1 0b 66
        E 0 81 2d 00
        E 0 91 31 66
        E 80 b1 0b 5d
        E 16 b1 0b 66
        E 0 81 31 00
        E 0 91 36 66
        E 80 b1 0b 5d
        E 16 b1 0b 66
        E 0 81 36 00
        E 0 91 3a 66
        E 80 b1 0b 5d
        E 16 b1 0b 66
        E 0 81 3a 00
        E 0 91 3d 66
        E 80 b1 0b 5d
        E 16 b1 0b 66
        E 0 81 3d 00
        E 0 91 3a 66
        E 80 b1 0b 5d
        E 16 b1 0b 66
        E 0 81 3a 00
        E 0 91 3f 66
        E 80 b1 0b 5d
        E 16 b1 0b 66
        E 80 b1 0b 5d
        E 16 b1 0b 66
        E 80 b1 0b 5d
        E 80 b1 0b 55
        E 32 b1 0b 66
        E 0 81 3f 00
        E 0 91 47 66
        E 80 b1 0b 5d
        E 16 b1 0b 66
        E 0 81 47 00
        E 0 91 36 66
        E 80 b1 0b 5d
        E 16 b1 0b 66
        E 0 81 36 00
        E 0 91 3f 66
        E 80 b1 0b 5d
        E 16 b1 0b 66
        E 80 b1 0b 5d
        E 16 b1 0b 66
        E 80 b1 0b 5d
        E 16 b1 0b 66
        E 80 b1 0b 5d
        E 16 b1 0b 66
        E 80 b1 0b 5d
        E 80 b1 0b 55
        E 32 b1 0b 66
        E 0 81 3f 00
        E 0 91 47 66
        E 80 b1 0b 5d
        E 16 b1 0b 66
        E 0 81 47 00
        E 0 91 36 66
        E 80 b1 0b 5d
        E 16 b1 0b 66
        E 0 81 36 00
        E 0 91 3f 66
        E 80 b1 0b 5d
        E 16 b1 0b 66
        E 80 b1 0b 5d
        E 16 b1 0b 66
        E 0 81 3f 00
        E 0 91 40 66
        E 80 b1 0b 5d
        E 16 b1 0b 66
        E 80 b1 0b 5d
        E 16 b1 0b 66
        E 80 b1 0b 5d
        E 80 b1 0b 55
        E 32 b1 0b 66
        E 0 81 40 00
        E 0 91 47 66
        E 80 b1 0b 5d
        E 16 b1 0b 66
        E 0 81 47 00
        E 0 91 38 66
        E 80 b1 0b 5d
        E 16 b1 0b 66
        E 0 81 38 00
        E 0 91 40 66
        E 80 b1 0b 5d
        E 16 b1 0b 66
        E 80 b1 0b 5d
        E 16 b1 0b 66
        E 80 b1 0b 5d
        E 16 b1 0b 66
        E 80 b1 0b 5d
        E 16 b1 0b 66
        E 80 b1 0b 5d
        E 80 b1 0b 55
        E 32 b1 0b 66
        E 0 81 40 00
        E 0 91 47 66
        E 80 b1 0b 5d
        E 16 b1 0b 66
        E 0 81 47 00
        E 0 91 38 66
        E 80 b1 0b 5d
        E 16 b1 0b 66
        E 0 81 38 00
        E 0 91 40 66
        E 80 b1 0b 5d
        E 16 b1 0b 66
        E 80 b1 0b 5d
        E 16 b1 0b 66
        E 0 81 40 00
        E 0 91 3f 66
        E 80 b1 0b 5d
        E 16 b1 0b 66
        E 80 b1 0b 5d
        E 16 b1 0b 66
        E 80 b1 0b 5d
        E 80 b1 0b 55
        E 32 b1 0b 66
        E 0 81 3f 00
        E 0 91 47 66
        E 80 b1 0b 5d
        E 16 b1 0b 66
        E 0 81 47 00
        E 0 91 36 66
        E 80 b1 0b 5d
        E 16 b1 0b 66
        E 0 81 36 00
        E 0 91 3f 66
        E 80 b1 0b 5d
        E 16 b1 0b 66
        E 80 b1 0b 5d
        E 16 b1 0b 66
        E 80 b1 0b 5d
        E 16 b1 0b 66
        E 0 81 3f 00
        E 0 91 3b 66
        E 80 b1 0b 5d
        E 16 b1 0b 66
        E 0 81 3b 00
        E 0 91 36 66
        E 80 b1 0b 5d
        E 16 b1 0b 66
        E 0 81 36 00
        E 0 91 3b 66
        E 80 b1 0b 5d
        E 16 b1 0b 66
        E 0 81 3b 00
        E 0 91 3f 66
        E 80 b1 0b 5d
        E 16 b1 0b 66
        E 80 b1 0b 5d
        E 16 b1 0b 66
        E 0 81 3f 00
        E 0 91 42 66
        E 80 b1 0b 5d
        E 16 b1 0b 66
        E 80 b1 0b 5d
        E 16 b1 0b 66
        E 0 81 42 00
        E 0 91 37 66
        E 80 b1 0b 5d
        E 16 b1 0b 66
        E 0 81 37 00
        E 0 91 3b 66
        E 80 b1 0b 5d
        E 16 b1 0b 66
        E 0 81 3b 00
        E 0 91 3e 66
        E 80 b1 0b 5d
        E 16 b1 0b 66
        E 0 81 3e 00
        E 0 91 43 66
        E 80 b1 0b 5d
        E 16 b1 0b 66
        E 0 81 43 00
        E 0 91 47 66
        E 80 b1 0b 5d
        E 16 b1 0b 66
        E 0 81 47 00
        E 0 91 43 66
        E 80 b1 0b 5d
        E 16 b1 0b 66
        E 0 81 43 00
        E 0 91 36 66
        E 80 b1 0b 5d
        E 80 b1 0b 55
        E 80 b1 0b 4c
        E 96 b1 0b 44
        E 48 b1 0b 66
        E 0 81 36 00
        E 0 91 2d 66
        E 80 b1 0b 5d
        E 16 b1 0b 66
        E 0 81 2d 00
        E 0 91 31 66
        E 80 b1 0b 5d
        E 16 b1 0b 66
        E 0 81 31 00
        E 0 91 36 66
        E 80 b1 0b 5d
        E 16 b1 0b 66
        E 0 81 36 00
        E 0 91 3a 66
        E 80 b1 0b 5d
        E 16 b1 0b 66
        E 0 81 3a 00
        E 0 91 3d 66
        E 80 b1 0b 5d
        E 16 b1 0b 66
        E 0 81 3d 00
        E 0 91 3a 66
        E 80 b1 0b 5d
        E 16 b1 0b 66
        E 0 81 3a 00
        E 0 91 3f 66
        E 80 b1 0b 5d
        E 16 b1 0b 66
        E 0 81 3f 00
        E 0 91 42 66
        E 80 b1 0b 5d
        E 16 b1 0b 66
        E 0 81 42 00
        E 0 91 36 66
        E 80 b1 0b 5d
        E 16 b1 0b 66
        E 0 81 36 00
        E 0 91 3b 66
        E 80 b1 0b 5d
        E 16 b1 0b 66
        E 0 81 3b 00
        E 0 91 3f 66
        E 80 b1 0b 5d
        E 16 b1 0b 66
        E 0 81 3f 00
        E 0 91 42 66
        E 80 b1 0b 5d
        E 16 b1 0b 66
        E 0 81 42 00
        E 0 91 36 66
        E 80 b1 0b 5d
        E 16 b1 0b 66
        E 0 81 36 00
        E 0 91 3b 66
        E 80 b1 0b 5d
        E 16 b1 0b 66
        E 0 81 3b 00
        E 0 91 3f 66
        E 80 b1 0b 5d
        E 16 b1 0b 66
        E 0 81 3f 00
        E 0 91 42 66
        E 80 b1 0b 5d
        E 16 b1 0b 66
        E 0 81 42 00
        E 0 91 36 66
        E 80 b1 0b 5d
        E 16 b1 0b 66
        E 0 81 36 00
        E 0 91 3b 66
        E 80 b1 0b 5d
        E 16 b1 0b 66
        E 0 81 3b 00
        E 0 91 3f 66
        E 80 b1 0b 5d
        E 16 b1 0b 66
        E 0 81 3f 00
        E 0 91 42 66
        E 80 b1 0b 5d
        E 16 b1 0b 66
        E 0 81 42 00
        E 0 91 36 66
        E 80 b1 0b 5d
        E 16 b1 0b 66
        E 0 81 36 00
        E 0 91 3b 66
        E 80 b1 0b 5d
        E 16 b1 0b 66
        E 0 81 3b 00
        E 0 91 40 66
        E 80 b1 0b 5d
        E 16 b1 0b 66
        E 0 81 40 00
        E 0 91 42 66
        E 80 b1 0b 5d
        E 16 b1 0b 66
        E 0 81 42 00
        E 0 91 36 66
        E 80 b1 0b 5d
        E 16 b1 0b 66
        E 0 81 36 00
        E 0 91 3b 66
        E 80 b1 0b 5d
        E 16 b1 0b 66
        E 0 81 3b 00
        E 0 91 3f 66
        E 80 b1 0b 5d
        E 16 b1 0b 66
        E 0 81 3f 00
        E 0 91 42 66
        E 80 b1 0b 5d
        E 16 b1 0b 66
        E 0 81 42 00
        E 0 91 36 66
        E 80 b1 0b 5d
        E 16 b1 0b 66
        E 0 81 36 00
        E 0 91 3b 66
        E 80 b1 0b 5d
        E 16 b1 0b 66
        E 0 81 3b 00
        E 0 91 3f 66
        E 80 b1 0b 5d
        E 16 b1 0b 66
        E 0 81 3f 00
        E 0 91 42 66
        E 80 b1 0b 5d
        E 16 b1 0b 66
        E 0 81 42 00
        E 0 91 36 66
        E 80 b1 0b 5d
        E 16 b1 0b 66
        E 0 81 36 00
        E 0 91 3b 66
        E 80 b1 0b 5d
        E 16 b1 0b 66
        E 0 81 3b 00
        E 0 91 3f 66
        E 80 b1 0b 5d
        E 16 b1 0b 66
        E 0 81 3f 00
        E 0 91 42 66
        E 80 b1 0b 5d
        E 16 b1 0b 66
        E 0 81 42 00
        E 0 91 3b 66
        E 80 b1 0b 5d
        E 16 b1 0b 66
        E 0 81 3b 00
        E 0 91 3f 66
        E 80 b1 0b 5d
        E 16 b1 0b 66
        E 0 81 3f 00
        E 0 91 32 66
        E 80 b1 0b 5d
        E 16 b1 0b 66
        E 0 81 32 00
        E 0 91 36 66
        E 80 b1 0b 5d
        E 16 b1 0b 66
        E 0 81 36 00
        E 0 91 39 66
        E 80 b1 0b 5d
        E 16 b1 0b 66
        E 0 81 39 00
        E 0 91 3e 66
        E 80 b1 0b 5d
        E 16 b1 0b 66
        E 0 81 3e 00
        E 0 91 42 66
        E 80 b1 0b 5d
        E 16 b1 0b 66
        E 0 81 42 00
        E 0 91 3e 66
        E 80 b1 0b 5d
        E 16 b1 0b 66
        E 0 81 3e 00
        E 0 91 39 66
        E 80 b1 0b 5d
        E 16 b1 0b 66
        E 0 81 39 00
        E 0 91 36 66
        E 80 b1 0b 5d
        E 16 b1 0b 66
        E 0 81 36 00
        E 0 91 34 66
        E 80 b1 0b 5d
        E 16 b1 0b 66
        E 0 81 34 00
        E 0 91 38 66
        E 80 b1 0b 5d
        E 16 b1 0b 66
        E 0 81 38 00
        E 0 91 3b 66
        E 80 b1 0b 5d
        E 16 b1 0b 66
        E 0 81 3b 00
        E 0 91 40 66
        E 80 b1 0b 5d
        E 16 b1 0b 66
        E 0 81 40 00
        E 0 91 3b 66
        E 80 b1 0b 5d
        E 16 b1 0b 66
        E 0 81 3b 00
        E 0 91 38 66
        E 80 b1 0b 5d
        E 16 b1 0b 66
        E 0 81 38 00
        E 0 91 36 66
        E 80 b1 0b 5d
        E 16 b1 0b 66
        E 0 81 36 00
        E 0 91 31 66
        E 80 b1 0b 5d
        E 16 b1 0b 66
        E 0 81 31 00
        E 0 91 36 66
        E 80 b1 0b 5d
        E 16 b1 0b 66
        E 0 81 36 00
        E 0 91 3b 66
        E 80 b1 0b 5d
        E 16 b1 0b 66
        E 0 81 3b 00
        E 0 91 3f 66
        E 80 b1 0b 5d
        E 16 b1 0b 66
        E 0 81 3f 00
        E 0 91 3b 66
        E 80 b1 0b 5d
        E 16 b1 0b 66
        E 0 81 3b 00
        E 0 91 36 66
        E 80 b1 0b 5d
        E 16 b1 0b 66
        E 0 81 36 00
        E 0 91 3b 66
        E 80 b1 0b 5d
        E 16 b1 0b 66
        E 0 81 3b 00
        E 0 91 3f 66
        E 80 b1 0b 5d
        E 16 b1 0b 66
        E 0 81 3f 00
        E 0 91 3b 66
        E 80 b1 0b 5d
        E 16 b1 0b 66
        E 0 81 3b 00
        E 0 91 3f 66
        E 80 b1 0b 5d
        E 16 b1 0b 66
        E 0 81 3f 00
        E 0 91 40 66
        E 80 b1 0b 5d
        E 16 b1 0b 66
        E 0 81 40 00
        E 0 91 42 66
        E 80 b1 0b 5d
        E 16 b1 0b 66
        E 0 81 42 00
        E 0 91 44 66
        E 80 b1 0b 5d
        E 16 b1 0b 66
        E 0 81 44 00
        E 0 91 46 66
        E 80 b1 0b 5d
        E 16 b1 0b 66
        E 0 81 46 00
        E 0 91 47 66
        E 80 b1 0b 5d
        E 16 b1 0b 66
        E 0 81 47 00
        E 0 91 49 66
        E 80 b1 0b 5d
        E 16 b1 0b 66
        E 0 81 49 00
        E 0 91 4a 66
        E 80 b1 0b 5d
        E 16 b1 0b 66
        E 0 81 4a 00
        E 0 91 3f 66
        E 80 b1 0b 5d
        E 16 b1 0b 66
        E 0 81 3f 00
        E 0 91 42 66
        E 80 b1 0b 5d
        E 16 b1 0b 66
        E 0 81 42 00
        E 0 91 36 66
        E 80 b1 0b 5d
        E 16 b1 0b 66
        E 0 81 36 00
        E 0 91 3b 66
        E 80 b1 0b 5d
        E 16 b1 0b 66
        E 0 81 3b 00
        E 0 91 3f 66
        E 80 b1 0b 5d
        E 16 b1 0b 66
        E 0 81 3f 00
        E 0 91 42 66
        E 80 b1 0b 5d
        E 16 b1 0b 66
        E 0 81 42 00
        E 0 91 36 66
        E 80 b1 0b 5d
        E 16 b1 0b 66
        E 0 81 36 00
        E 0 91 3b 66
        E 80 b1 0b 5d
        E 16 b1 0b 66
        E 0 81 3b 00
        E 0 91 3f 66
        E 80 b1 0b 5d
        E 16 b1 0b 66
        E 0 81 3f 00
        E 0 91 42 66
        E 80 b1 0b 5d
        E 16 b1 0b 66
        E 0 81 42 00
        E 0 91 36 66
        E 80 b1 0b 5d
        E 16 b1 0b 66
        E 0 81 36 00
        E 0 91 3b 66
        E 80 b1 0b 5d
        E 16 b1 0b 66
        E 0 81 3b 00
        E 0 91 3f 66
        E 80 b1 0b 5d
        E 16 b1 0b 66
        E 0 81 3f 00
        E 0 91 42 66
        E 80 b1 0b 5d
        E 16 b1 0b 66
        E 0 81 42 00
        E 0 91 36 66
        E 80 b1 0b 5d
        E 16 b1 0b 66
        E 0 81 36 00
        E 0 91 3b 66
        E 80 b1 0b 5d
        E 16 b1 0b 66
        E 0 81 3b 00
        E 0 91 40 66
        E 80 b1 0b 5d
        E 16 b1 0b 66
        E 0 81 40 00
        E 0 91 42 66
        E 80 b1 0b 5d
        E 16 b1 0b 66
        E 0 81 42 00
        E 0 91 36 66
        E 80 b1 0b 5d
        E 16 b1 0b 66
        E 0 81 36 00
        E 0 91 3b 66
        E 80 b1 0b 5d
        E 16 b1 0b 66
        E 0 81 3b 00
        E 0 91 3f 66
        E 80 b1 0b 5d
        E 16 b1 0b 66
        E 0 81 3f 00
        E 0 91 42 66
        E 80 b1 0b 5d
        E 16 b1 0b 66
        E 0 81 42 00
        E 0 91 36 66
        E 80 b1 0b 5d
        E 16 b1 0b 66
        E 0 81 36 00
        E 0 91 3b 66
        E 80 b1 0b 5d
        E 16 b1 0b 66
        E 0 81 3b 00
        E 0 91 3f 66
        E 80 b1 0b 5d
        E 16 b1 0b 66
        E 0 81 3f 00
        E 0 91 42 66
        E 80 b1 0b 5d
        E 16 b1 0b 66
        E 0 81 42 00
        E 0 91 36 66
        E 80 b1 0b 5d
        E 16 b1 0b 66
        E 0 81 36 00
        E 0 91 3b 66
        E 80 b1 0b 5d
        E 16 b1 0b 66
        E 0 81 3b 00
        E 0 91 3f 66
        E 80 b1 0b 5d
        E 16 b1 0b 66
        E 0 81 3f 00
        E 0 91 42 66
        E 80 b1 0b 5d
        E 16 b1 0b 66
        E 0 81 42 00
        E 0 91 3b 66
        E 80 b1 0b 5d
        E 16 b1 0b 66
        E 0 81 3b 00
        E 0 91 3f 66
        E 80 b1 0b 5d
        E 16 b1 0b 66
        E 0 81 3f 00
        E 0 91 32 66
        E 80 b1 0b 5d
        E 16 b1 0b 66
        E 0 81 32 00
        E 0 91 36 66
        E 80 b1 0b 5d
        E 16 b1 0b 66
        E 0 81 36 00
        E 0 91 39 66
        E 80 b1 0b 5d
        E 16 b1 0b 66
        E 0 81 39 00
        E 0 91 3e 66
        E 80 b1 0b 5d
        E 16 b1 0b 66
        E 0 81 3e 00
        E 0 91 42 66
        E 80 b1 0b 5d
        E 16 b1 0b 66
        E 0 81 42 00
        E 0 91 3e 66
        E 80 b1 0b 5d
        E 16 b1 0b 66
        E 0 81 3e 00
        E 0 91 39 66
        E 80 b1 0b 5d
        E 16 b1 0b 66
        E 0 81 39 00
        E 0 91 36 66
        E 80 b1 0b 5d
        E 16 b1 0b 66
        E 0 81 36 00
        E 0 91 34 66
        E 80 b1 0b 5d
        E 16 b1 0b 66
        E 0 81 34 00
        E 0 91 38 66
        E 80 b1 0b 5d
        E 16 b1 0b 66
        E 0 81 38 00
        E 0 91 3b 66
        E 80 b1 0b 5d
        E 16 b1 0b 66
        E 0 81 3b 00
        E 0 91 40 66
        E 80 b1 0b 5d
        E 16 b1 0b 66
        E 0 81 40 00
        E 0 91 3b 66
        E 80 b1 0b 5d
        E 16 b1 0b 66
        E 0 81 3b 00
        E 0 91 38 66
        E 80 b1 0b 5d
        E 16 b1 0b 66
        E 0 81 38 00
        E 0 91 36 66
        E 80 b1 0b 5d
        E 16 b1 0b 66
        E 0 81 36 00
        E 0 91 31 66
        E 80 b1 0b 5d
        E 16 b1 0b 66
        E 0 81 31 00
        E 0 91 36 66
        E 80 b1 0b 5d
        E 16 b1 0b 66
        E 0 81 36 00
        E 0 91 3b 66
        E 80 b1 0b 5d
        E 16 b1 0b 66
        E 0 81 3b 00
        E 0 91 3f 66
        E 80 b1 0b 5d
        E 16 b1 0b 66
        E 0 81 3f 00
        E 0 91 3b 66
        E 80 b1 0b 5d
        E 16 b1 0b 66
        E 0 81 3b 00
        E 0 91 36 66
        E 80 b1 0b 5d
        E 16 b1 0b 66
        E 0 81 36 00
        E 0 91 3b 66
        E 80 b1 0b 5d
        E 16 b1 0b 66
        E 0 81 3b 00
        E 0 91 3f 66
        E 80 b1 0b 5d
        E 16 b1 0b 66
        E 0 81 3f 00
        E 0 91 3b 66
        E 80 b1 0b 5d
        E 16 b1 0b 66
        E 0 81 3b 00
        E 0 91 3f 66
        E 80 b1 0b 5d
        E 16 b1 0b 66
        E 0 81 3f 00
        E 0 91 3e 66
        E 80 b1 0b 5d
        E 16 b1 0b 66
        E 0 81 3e 00
        E 0 91 3f 66
        E 80 b1 0b 5d
        E 16 b1 0b 66
        E 0 81 3f 00
        E 0 91 40 66
        E 80 b1 0b 5d
        E 16 b1 0b 66
        E 0 81 40 00
        E 0 91 42 66
        E 80 b1 0b 5d
        E 16 b1 0b 66
        E 0 81 42 00
        E 0 91 44 66
        E 80 b1 0b 5d
        E 16 b1 0b 66
        E 0 81 44 00
        E 0 91 46 66
        E 80 b1 0b 5d
        E 16 b1 0b 66
        E 0 81 46 00
        E 0 91 47 66
        E 80 b1 0b 5d
        E 16 b1 0b 66
        E 0 81 47 00
        E 0 91 37 66
        E 80 b1 0b 5d
        E 16 b1 0b 66
        E 0 81 37 00
        E 0 91 3b 66
        E 80 b1 0b 5d
        E 16 b1 0b 66
        E 0 81 3b 00
        E 0 91 3e 66
        E 80 b1 0b 5d
        E 16 b1 0b 66
        E 0 81 3e 00
        E 0 91 43 66
        E 80 b1 0b 5d
        E 16 b1 0b 66
        E 0 81 43 00
        E 0 91 47 66
        E 80 b1 0b 5d
        E 16 b1 0b 66
        E 0 81 47 00
        E 0 91 4a 66
        E 80 b1 0b 5d
        E 16 b1 0b 66
        E 0 81 4a 00
        E 0 91 47 66
        E 80 b1 0b 5d
        E 16 b1 0b 66
        E 0 81 47 00
        E 0 91 43 66
        E 80 b1 0b 5d
        E 16 b1 0b 66
        E 0 81 43 00
        E 0 91 39 66
        E 80 b1 0b 5d
        E 16 b1 0b 66
        E 0 81 39 00
        E 0 91 3d 66
        E 80 b1 0b 5d
        E 16 b1 0b 66
        E 0 81 3d 00
        E 0 91 40 66
        E 80 b1 0b 5d
        E 16 b1 0b 66
        E 0 81 40 00
        E 0 91 45 66
        E 80 b1 0b 5d
        E 16 b1 0b 66
        E 0 81 45 00
        E 0 91 49 66
        E 80 b1 0b 5d
        E 16 b1 0b 66
        E 0 81 49 00
        E 0 91 4c 66
        E 80 b1 0b 5d
        E 16 b1 0b 66
        E 0 81 4c 00
        E 0 91 49 66
        E 80 b1 0b 5d
        E 16 b1 0b 66
        E 0 81 49 00
        E 0 91 45 66
        E 80 b1 0b 5d
        E 16 b1 0b 66
        E 0 81 45 00
        E 0 91 2f 66
        E 80 b1 0b 5d
        E 16 b1 0b 66
        E 0 81 2f 00
        E 0 91 33 66
        E 80 b1 0b 5d
        E 16 b1 0b 66
        E 0 81 33 00
        E 0 91 36 66
        E 80 b1 0b 5d
        E 16 b1 0b 66
        E 0 81 36 00
        E 0 91 3b 66
        E 80 b1 0b 5d
        E 16 b1 0b 66
        E 0 81 3b 00
        E 0 91 3f 66
        E 80 b1 0b 5d
        E 16 b1 0b 66
        E 0 81 3f 00
        E 0 91 42 66
        E 80 b1 0b 5d
        E 16 b1 0b 66
        E 0 81 42 00
        E 0 91 47 66
        E 80 b1 0b 5d
        E 16 b1 0b 66
        E 0 81 47 00
        E 0 91 4b 66
        E 80 b1 0b 5d
        E 16 b1 0b 66
        E 0 81 4b 00
        E 0 91 47 66
        E 80 b1 0b 5d
        E 16 b1 0b 66
        E 0 81 47 00
        E 0 91 42 66
        E 80 b1 0b 5d
        E 16 b1 0b 66
        E 0 81 42 00
        E 0 91 3f 66
        E 80 b1 0b 5d
        E 16 b1 0b 66
        E 0 81 3f 00
        E 0 91 3b 66
        E 80 b1 0b 5d
        E 16 b1 0b 66
        E 0 81 3b 00
        E 0 91 36 66
        E 80 b1 0b 5d
        E 16 b1 0b 66
        E 0 81 36 00
        E 0 91 33 66
        E 80 b1 0b 5d
        E 16 b1 0b 66
        E 0 81 33 00
        E 0 91 2f 66
        E 80 b1 0b 5d
        E 16 b1 0b 66
        E 0 81 2f 00
        E 0 91 33 66
        E 80 b1 0b 5d
        E 16 b1 0b 66
        E 0 81 33 00
        E 0 91 37 66
        E 80 b1 0b 5d
        E 16 b1 0b 66
        E 0 81 37 00
        E 0 91 3b 66
        E 80 b1 0b 5d
        E 16 b1 0b 66
        E 0 81 3b 00
        E 0 91 3e 66
        E 80 b1 0b 5d
        E 16 b1 0b 66
        E 0 81 3e 00
        E 0 91 43 66
        E 80 b1 0b 5d
        E 16 b1 0b 66
        E 0 81 43 00
        E 0 91 47 66
        E 80 b1 0b 5d
        E 16 b1 0b 66
        E 0 81 47 00
        E 0 91 43 66
        E 80 b1 0b 5d
        E 16 b1 0b 66
        E 0 81 43 00
        E 0 91 40 66
        E 80 b1 0b 5d
        E 16 b1 0b 66
        E 0 81 40 00
        E 0 91 3d 66
        E 80 b1 0b 5d
        E 16 b1 0b 66
        E 0 81 3d 00
        E 0 91 39 66
        E 80 b1 0b 5d
        E 16 b1 0b 66
        E 0 81 39 00
        E 0 91 34 66
        E 80 b1 0b 5d
        E 16 b1 0b 66
        E 0 81 34 00
        E 0 91 39 66
        E 80 b1 0b 5d
        E 16 b1 0b 66
        E 0 81 39 00
        E 0 91 3d 66
        E 80 b1 0b 5d
        E 16 b1 0b 66
        E 0 81 3d 00
        E 0 91 40 66
        E 80 b1 0b 5d
        E 16 b1 0b 66
        E 0 81 40 00
        E 0 91 3d 66
        E 80 b1 0b 5d
        E 16 b1 0b 66
        E 0 81 3d 00
        E 0 91 39 66
        E 80 b1 0b 5d
        E 16 b1 0b 66
        E 0 81 39 00
        E 0 91 3d 66
        E 80 b1 0b 5d
        E 16 b1 0b 66
        E 0 81 3d 00
        E 0 91 3e 66
        E 80 b1 0b 5d
        E 80 b1 0b 55
        E 32 b1 0b 66
        E 0 81 3e 00
        E 0 91 40 66
        E 80 b1 0b 5d
        E 16 b1 0b 66
        E 0 81 40 00
        E 0 91 3e 66
        E 80 b1 0b 5d
        E 16 b1 0b 66
        E 0 81 3e 00
        E 0 91 3b 66
        E 80 b1 0b 5d
        E 80 b1 0b 55
        E 32 b1 0b 66
        E 80 b1 0b 5d
        E 80 b1 0b 55
        E 32 b1 0b 66
        E 0 81 3b 00
        E 0 91 2f 66
        E 80 b1 0b 5d
        E 16 b1 0b 66
        E 0 81 2f 00
        E 0 91 32 66
        E 80 b1 0b 5d
        E 16 b1 0b 66
        E 0 81 32 00
        E 0 91 36 66
        E 80 b1 0b 5d
        E 16 b1 0b 66
        E 0 81 36 00
        E 0 91 3b 66
        E 80 b1 0b 5d
        E 16 b1 0b 66
        E 0 81 3b 00
        E 0 91 3e 66
        E 80 b1 0b 5d
        E 16 b1 0b 66
        E 0 81 3e 00
        E 0 91 3b 66
        E 80 b1 0b 5d
        E 16 b1 0b 66
        E 0 81 3b 00
        E 0 91 36 66
        E 80 b1 0b 5d
        E 16 b1 0b 66
        E 0 81 36 00
        E 0 91 32 66
        E 80 b1 0b 5d
        E 16 b1 0b 66
        E 0 81 32 00
        E 0 91 37 66
        E 80 b1 0b 5d
        E 16 b1 0b 66
        E 0 81 37 00
        E 0 91 3b 66
        E 80 b1 0b 5d
        E 16 b1 0b 66
        E 0 81 3b 00
        E 0 91 3e 66
        E 80 b1 0b 5d
        E 16 b1 0b 66
        E 0 81 3e 00
        E 0 91 43 66
        E 80 b1 0b 5d
        E 16 b1 0b 66
        E 0 81 43 00
        E 0 91 47 66
        E 80 b1 0b 5d
        E 16 b1 0b 66
        E 0 81 47 00
        E 0 91 4a 66
        E 80 b1 0b 5d
        E 16 b1 0b 66
        E 0 81 4a 00
        E 0 91 47 66
        E 80 b1 0b 5d
        E 16 b1 0b 66
        E 0 81 47 00
        E 0 91 43 66
        E 80 b1 0b 5d
        E 16 b1 0b 66
        E 0 81 43 00
        E 0 91 39 66
        E 80 b1 0b 5d
        E 16 b1 0b 66
        E 0 81 39 00
        E 0 91 3d 66
        E 80 b1 0b 5d
        E 16 b1 0b 66
        E 0 81 3d 00
        E 0 91 40 66
        E 80 b1 0b 5d
        E 16 b1 0b 66
        E 0 81 40 00
        E 0 91 45 66
        E 80 b1 0b 5d
        E 16 b1 0b 66
        E 0 81 45 00
        E 0 91 49 66
        E 80 b1 0b 5d
        E 16 b1 0b 66
        E 0 81 49 00
        E 0 91 4c 66
        E 80 b1 0b 5d
        E 16 b1 0b 66
        E 0 81 4c 00
        E 0 91 49 66
        E 80 b1 0b 5d
        E 16 b1 0b 66
        E 0 81 49 00
        E 0 91 45 66
        E 80 b1 0b 5d
        E 16 b1 0b 66
        E 0 81 45 00
        E 0 91 2f 66
        E 80 b1 0b 5d
        E 16 b1 0b 66
        E 0 81 2f 00
        E 0 91 33 66
        E 80 b1 0b 5d
        E 16 b1 0b 66
        E 0 81 33 00
        E 0 91 36 66
        E 80 b1 0b 5d
        E 16 b1 0b 66
        E 0 81 36 00
        E 0 91 3b 66
        E 80 b1 0b 5d
        E 16 b1 0b 66
        E 0 81 3b 00
        E 0 91 3f 66
        E 80 b1 0b 5d
        E 16 b1 0b 66
        E 0 81 3f 00
        E 0 91 42 66
        E 80 b1 0b 5d
        E 16 b1 0b 66
        E 0 81 42 00
        E 0 91 47 66
        E 80 b1 0b 5d
        E 16 b1 0b 66
        E 0 81 47 00
        E 0 91 4b 66
        E 80 b1 0b 5d
        E 16 b1 0b 66
        E 0 81 4b 00
        E 0 91 47 66
        E 80 b1 0b 5d
        E 16 b1 0b 66
        E 0 81 47 00
        E 0 91 42 66
        E 80 b1 0b 5d
        E 16 b1 0b 66
        E 0 81 42 00
        E 0 91 3f 66
        E 80 b1 0b 5d
        E 16 b1 0b 66
        E 0 81 3f 00
        E 0 91 3b 66
        E 80 b1 0b 5d
        E 16 b1 0b 66
        E 0 81 3b 00
        E 0 91 36 66
        E 80 b1 0b 5d
        E 16 b1 0b 66
        E 0 81 36 00
        E 0 91 33 66
        E 80 b1 0b 5d
        E 16 b1 0b 66
        E 0 81 33 00
        E 0 91 2f 66
        E 80 b1 0b 5d
        E 16 b1 0b 66
        E 0 81 2f 00
        E 0 91 33 66
        E 80 b1 0b 5d
        E 16 b1 0b 66
        E 0 81 33 00
        E 0 91 37 66
        E 80 b1 0b 5d
        E 16 b1 0b 66
        E 0 81 37 00
        E 0 91 3b 66
        E 80 b1 0b 5d
        E 16 b1 0b 66
        E 0 81 3b 00
        E 0 91 3e 66
        E 80 b1 0b 5d
        E 16 b1 0b 66
        E 0 81 3e 00
        E 0 91 43 66
        E 80 b1 0b 5d
        E 16 b1 0b 66
        E 0 81 43 00
        E 0 91 47 66
        E 80 b1 0b 5d
        E 16 b1 0b 66
        E 0 81 47 00
        E 0 91 43 66
        E 80 b1 0b 5d
        E 16 b1 0b 66
        E 0 81 43 00
        E 0 91 40 66
        E 80 b1 0b 5d
        E 16 b1 0b 66
        E 0 81 40 00
        E 0 91 3d 66
        E 80 b1 0b 5d
        E 16 b1 0b 66
        E 0 81 3d 00
        E 0 91 39 66
        E 80 b1 0b 5d
        E 16 b1 0b 66
        E 0 81 39 00
        E 0 91 34 66
        E 80 b1 0b 5d
        E 16 b1 0b 66
        E 0 81 34 00
        E 0 91 39 66
        E 80 b1 0b 5d
        E 16 b1 0b 66
        E 0 81 39 00
        E 0 91 3d 66
        E 80 b1 0b 5d
        E 16 b1 0b 66
        E 0 81 3d 00
        E 0 91 40 66
        E 80 b1 0b 5d
        E 16 b1 0b 66
        E 0 81 40 00
        E 0 91 3d 66
        E 80 b1 0b 5d
        E 16 b1 0b 66
        E 0 81 3d 00
        E 0 91 39 66
        E 80 b1 0b 5d
        E 16 b1 0b 66
        E 0 81 39 00
        E 0 91 3d 66
        E 80 b1 0b 5d
        E 16 b1 0b 66
        E 0 81 3d 00
        E 0 91 3e 66
        E 80 b1 0b 5d
        E 16 b1 0b 66
        E 0 81 3e 00
        E 0 91 43 66
        E 80 b1 0b 5d
        E 16 b1 0b 66
        E 0 81 43 00
        E 0 91 47 66
        E 80 b1 0b 5d
        E 16 b1 0b 66
        E 0 81 47 00
        E 0 91 43 66
        E 80 b1 0b 5d
        E 16 b1 0b 66
        E 0 81 43 00
        E 0 91 3e 66
        E 80 b1 0b 5d
        E 16 b1 0b 66
        E 0 81 3e 00
        E 0 91 43 66
        E 80 b1 0b 5d
        E 16 b1 0b 66
        E 0 81 43 00
        E 0 91 45 66
        E 80 b1 0b 5d
        E 80 b1 0b 55
        E 80 b1 0b 4c
        E 96 b1 0b 44
        E 48 b1 0b 66
        E 0 81 45 00
        E 0 91 40 66
        E 80 b1 0b 5d
        E 80 b1 0b 55
        E 32 b1 0b 66
        E 0 81 40 00
        E 0 91 42 66
        E 80 b1 0b 5d
        E 80 b1 0b 55
        E 32 b1 0b 66
        E 0 81 42 00
        E 0 91 3f 66
        E 80 b1 0b 5d
        E 80 b1 0b 55
        E 80 b1 0b 4c
        E 48 b1 0b 66
        E 0 81 3f 00
        E 0 91 3b 66
        E 80 b1 0b 5d
        E 16 b1 0b 66
        E 0 81 3b 00
        E 0 91 36 66
        E 80 b1 0b 5d
        E 16 b1 0b 66
        E 0 81 36 00
        E 0 91 3b 66
        E 80 b1 0b 5d
        E 16 b1 0b 66
        E 0 81 3b 00
        E 0 91 33 66
        E 80 b1 0b 5d
        E 16 b1 0b 66
        E 0 81 33 00
        E 0 91 36 66
        E 80 b1 0b 5d
        E 16 b1 0b 66
        E 0 81 36 00
        E 0 91 2f 66
        E 80 b1 0b 5d
        E 16 b1 0b 66
        E 0 81 2f 00
        E 0 91 33 66
        E 80 b1 0b 5d
        E 16 b1 0b 66
        E 0 81 33 00
        E 0 91 3f 66
        E 80 b1 0b 5d
        E 16 b1 0b 66
        E 0 81 3f 00
        E 0 91 3b 66
        E 80 b1 0b 5d
        E 16 b1 0b 66
        E 0 81 3b 00
        E 0 91 36 66
        E 80 b1 0b 5d
        E 16 b1 0b 66
        E 0 81 36 00
        E 0 91 3b 66
        E 80 b1 0b 5d
        E 16 b1 0b 66
        E 0 81 3b 00
        E 0 91 33 66
        E 80 b1 0b 5d
        E 16 b1 0b 66
        E 0 81 33 00
        E 0 91 36 66
        E 80 b1 0b 5d
        E 16 b1 0b 66
        E 0 81 36 00
        E 0 91 2f 66
        E 80 b1 0b 5d
        E 16 b1 0b 66
        E 0 81 2f 00
        E 0 91 33 66
        E 80 b1 0b 5d
        E 16 b1 0b 66
        E 0 81 33 00
        E 0 91 3d 66
        E 80 b1 0b 5d
        E 16 b1 0b 66
        E 0 81 3d 00
        E 0 91 39 66
        E 80 b1 0b 5d
        E 16 b1 0b 66
        E 0 81 39 00
        E 0 91 34 66
        E 80 b1 0b 5d
        E 16 b1 0b 66
        E 0 81 34 00
        E 0 91 39 66
        E 80 b1 0b 5d
        E 16 b1 0b 66
        E 0 81 39 00
        E 0 91 31 66
        E 80 b1 0b 5d
        E 16 b1 0b 66
        E 0 81 31 00
        E 0 91 34 66
        E 80 b1 0b 5d
        E 16 b1 0b 66
        E 0 81 34 00
        E 0 91 2d 66
        E 80 b1 0b 5d
        E 16 b1 0b 66
        E 0 81 2d 00
        E 0 91 31 66
        E 80 b1 0b 5d
        E 16 b1 0b 66
        E 0 81 31 00
        E 0 91 3d 66
        E 80 b1 0b 5d
        E 16 b1 0b 66
        E 0 81 3d 00
        E 0 91 39 66
        E 80 b1 0b 5d
        E 16 b1 0b 66
        E 0 81 39 00
        E 0 91 34 66
        E 80 b1 0b 5d
        E 16 b1 0b 66
        E 0 81 34 00
        E 0 91 39 66
        E 80 b1 0b 5d
        E 16 b1 0b 66
        E 0 81 39 00
        E 0 91 31 66
        E 80 b1 0b 5d
        E 16 b1 0b 66
        E 0 81 31 00
        E 0 91 34 66
        E 80 b1 0b 5d
        E 16 b1 0b 66
        E 0 81 34 00
        E 0 91 2d 66
        E 80 b1 0b 5d
        E 16 b1 0b 66
        E 0 81 2d 00
        E 0 91 31 66
        E 80 b1 0b 5d
        E 16 b1 0b 66
        E 0 81 31 00
        E 0 91 3b 66
        E 80 b1 0b 5d
        E 16 b1 0b 66
        E 0 81 3b 00
        E 0 91 37 66
        E 80 b1 0b 5d
        E 16 b1 0b 66
        E 0 81 37 00
        E 0 91 32 66
        E 80 b1 0b 5d
        E 16 b1 0b 66
        E 0 81 32 00
        E 0 91 37 66
        E 80 b1 0b 5d
        E 16 b1 0b 66
        E 0 81 37 00
        E 0 91 2f 66
        E 80 b1 0b 5d
        E 16 b1 0b 66
        E 0 81 2f 00
        E 0 91 32 66
        E 80 b1 0b 5d
        E 16 b1 0b 66
        E 0 81 32 00
        E 0 91 2b 66
        E 80 b1 0b 5d
        E 16 b1 0b 66
        E 0 81 2b 00
        E 0 91 2f 66
        E 80 b1 0b 5d
        E 16 b1 0b 66
        E 0 81 2f 00
        E 0 91 3e 66
        E 80 b1 0b 5d
        E 16 b1 0b 66
        E 0 81 3e 00
        E 0 91 3b 66
        E 80 b1 0b 5d
        E 16 b1 0b 66
        E 0 81 3b 00
        E 0 91 37 66
        E 80 b1 0b 5d
        E 16 b1 0b 66
        E 0 81 37 00
        E 0 91 3b 66
        E 80 b1 0b 5d
        E 16 b1 0b 66
        E 0 81 3b 00
        E 0 91 32 66
        E 80 b1 0b 5d
        E 16 b1 0b 66
        E 0 81 32 00
        E 0 91 37 66
        E 80 b1 0b 5d
        E 16 b1 0b 66
        E 0 81 37 00
        E 0 91 32 66
        E 80 b1 0b 5d
        E 80 b1 0b 55
        E 80 b1 0b 4c
        E 96 b1 0b 44
        E 80 b1 0b 3b
        E 80 b1 0b 33
        E 96 b1 0b 2a
        E 80 b1 0b 22
        E 80 b1 0b 19
        E 96 b1 0b 11
        E 80 b1 0b 08
        E 80 81 32 00
        E 34160 b1 7b 00
        E 0 ff 2f 00
      >
    >
  >
  <TRACK {E1368902-EB4A-4F4D-BDA3-62AEB72413A1}
    NAME "NES - Triangle [ch2]"
    PEAKCOL 16744192
    BEAT -1
    AUTOMODE 0
    PANLAWFLAGS 3
    VOLPAN 1 0 -1 -1 1
    MUTESOLO 0 0 0
    IPHASE 0
    PLAYOFFS 0 1
    ISBUS 0 0
    BUSCOMP 0 0 0 0 0
    SHOWINMIX 1 0.6667 0.5 1 0.5 0 0 0
    FIXEDLANES 9 0 0 0 0
    SEL 0
    REC 0 5088 1 0 0 0 0 0
    VU 2
    TRACKHEIGHT 0 0 0 0 0 0 0
    INQ 0 0 0 0.5 100 0 0 100
    NCHAN 2
    FX 1
    TRACKID {E1368902-EB4A-4F4D-BDA3-62AEB72413A1}
    PERF 0
    MIDIOUT -1
    MAINSEND 1 0
    <FXCHAIN
      WNDRECT 24 52 700 560
      SHOW 0
      LASTSEL 0
      DOCKED 0
      BYPASS 0 0 0
      <JS "ReapNES Studio/ReapNES_Console.jsfx" ""
        2 15 1 10 80 10 100 2 1 15 1 5 60 10 80 1 1 0 50 0 0 15 1 0 100 0 0 0.500000 0.500000 0.400000 0.300000 0.800000 2 1 0 0 0 0 - - - - - - - - - - - - - - - - - - - - - - - - - -
      >
      FLOATPOS 0 0 0 0
      FXID {2FC13184-F1E6-48E1-8D0B-471CD9FE6CCA}
      WAK 0 0
    >
    <ITEM
      POSITION 0
      LENGTH 74.5878716
      LOOP 0
      ALLTAKES 0
      FADEIN 0 0 0 0 0 0 0
      FADEOUT 0 0 0 0 0 0 0
      MUTE 0 0
      SEL 0
      IGUID {86AFF2B3-D475-4C5E-B7B4-D35B05AAD4B0}
      <SOURCE MIDI
        HASDATA 1 480 QN
        CCINTERP 32
        E 0 c2 26
        E 0 b2 0b 7f
        E 0 92 42 7f
        E 80 82 42 00
        E 16 b2 0b 7f
        E 0 92 44 7f
        E 80 82 44 00
        E 16 b2 0b 7f
        E 0 92 46 7f
        E 80 82 46 00
        E 16 b2 0b 7f
        E 0 92 2f 7f
        E 80 82 2f 00
        E 16 b2 0b 7f
        E 0 92 2f 7f
        E 80 82 2f 00
        E 16 b2 0b 7f
        E 0 92 2f 7f
        E 80 82 2f 00
        E 16 b2 0b 7f
        E 0 92 2f 7f
        E 80 82 2f 00
        E 16 b2 0b 7f
        E 0 92 2f 7f
        E 80 82 2f 00
        E 112 b2 0b 7f
        E 0 92 2f 7f
        E 80 82 2f 00
        E 16 b2 0b 7f
        E 0 92 2f 7f
        E 80 82 2f 00
        E 16 b2 0b 7f
        E 0 92 2f 7f
        E 80 82 2f 00
        E 16 b2 0b 7f
        E 0 92 2f 7f
        E 80 82 2f 00
        E 16 b2 0b 7f
        E 0 92 2f 7f
        E 80 82 2f 00
        E 16 b2 0b 7f
        E 0 92 2f 7f
        E 80 82 2f 00
        E 16 b2 0b 7f
        E 0 92 2f 7f
        E 80 82 2f 00
        E 112 b2 0b 7f
        E 0 92 2f 7f
        E 80 82 2f 00
        E 16 b2 0b 7f
        E 0 92 2f 7f
        E 80 82 2f 00
        E 16 b2 0b 7f
        E 0 92 2f 7f
        E 80 82 2f 00
        E 16 b2 0b 7f
        E 0 92 2f 7f
        E 80 82 2f 00
        E 16 b2 0b 7f
        E 0 92 2f 7f
        E 80 82 2f 00
        E 16 b2 0b 7f
        E 0 92 2f 7f
        E 80 82 2f 00
        E 16 b2 0b 7f
        E 0 92 2f 7f
        E 80 82 2f 00
        E 112 b2 0b 7f
        E 0 92 2f 7f
        E 80 82 2f 00
        E 16 b2 0b 7f
        E 0 92 2f 7f
        E 80 82 2f 00
        E 16 b2 0b 7f
        E 0 92 2f 7f
        E 80 82 2f 00
        E 16 b2 0b 7f
        E 0 92 2f 7f
        E 80 82 2f 00
        E 16 b2 0b 7f
        E 0 92 2f 7f
        E 80 82 2f 00
        E 16 b2 0b 7f
        E 0 92 2f 7f
        E 80 82 2f 00
        E 16 b2 0b 7f
        E 0 92 2f 7f
        E 80 82 2f 00
        E 112 b2 0b 7f
        E 0 92 2f 7f
        E 80 82 2f 00
        E 16 b2 0b 7f
        E 0 92 2f 7f
        E 80 82 2f 00
        E 16 b2 0b 7f
        E 0 92 2f 7f
        E 80 82 2f 00
        E 16 b2 0b 7f
        E 0 92 2f 7f
        E 80 82 2f 00
        E 16 b2 0b 7f
        E 0 92 2f 7f
        E 80 82 2f 00
        E 16 b2 0b 7f
        E 0 92 2f 7f
        E 80 82 2f 00
        E 16 b2 0b 7f
        E 0 92 2f 7f
        E 80 82 2f 00
        E 112 b2 0b 7f
        E 0 92 2f 7f
        E 80 82 2f 00
        E 16 b2 0b 7f
        E 0 92 2f 7f
        E 80 82 2f 00
        E 16 b2 0b 7f
        E 0 92 2f 7f
        E 80 82 2f 00
        E 16 b2 0b 7f
        E 0 92 2f 7f
        E 80 82 2f 00
        E 16 b2 0b 7f
        E 0 92 2f 7f
        E 80 82 2f 00
        E 16 b2 0b 7f
        E 0 92 2f 7f
        E 80 82 2f 00
        E 16 b2 0b 7f
        E 0 92 2f 7f
        E 80 82 2f 00
        E 112 b2 0b 7f
        E 0 92 2f 7f
        E 80 82 2f 00
        E 16 b2 0b 7f
        E 0 92 2f 7f
        E 80 82 2f 00
        E 16 b2 0b 7f
        E 0 92 2b 7f
        E 80 82 2b 00
        E 16 b2 0b 7f
        E 0 92 2b 7f
        E 80 82 2b 00
        E 16 b2 0b 7f
        E 0 92 37 7f
        E 80 82 37 00
        E 16 b2 0b 7f
        E 0 92 37 7f
        E 80 82 37 00
        E 16 b2 0b 7f
        E 0 92 2b 7f
        E 80 82 2b 00
        E 16 b2 0b 7f
        E 0 92 2b 7f
        E 80 82 2b 00
        E 16 b2 0b 7f
        E 0 92 2a 7f
        E 80 82 2a 00
        E 304 b2 0b 7f
        E 0 92 36 7f
        E 80 82 36 00
        E 16 b2 0b 7f
        E 0 92 36 7f
        E 80 82 36 00
        E 16 b2 0b 7f
        E 0 92 2a 7f
        E 80 82 2a 00
        E 16 b2 0b 7f
        E 0 92 2a 7f
        E 80 82 2a 00
        E 16 b2 0b 7f
        E 0 92 2a 7f
        E 80 82 2a 00
        E 16 b2 0b 7f
        E 0 92 2a 7f
        E 80 82 2a 00
        E 16 b2 0b 7f
        E 0 92 2f 7f
        E 80 82 2f 00
        E 16 b2 0b 7f
        E 0 92 2f 7f
        E 80 82 2f 00
        E 16 b2 0b 7f
        E 0 92 2f 7f
        E 80 82 2f 00
        E 16 b2 0b 7f
        E 0 92 2f 7f
        E 80 82 2f 00
        E 16 b2 0b 7f
        E 0 92 2f 7f
        E 80 82 2f 00
        E 112 b2 0b 7f
        E 0 92 2f 7f
        E 80 82 2f 00
        E 16 b2 0b 7f
        E 0 92 2f 7f
        E 80 82 2f 00
        E 16 b2 0b 7f
        E 0 92 2f 7f
        E 80 82 2f 00
        E 16 b2 0b 7f
        E 0 92 2f 7f
        E 80 82 2f 00
        E 16 b2 0b 7f
        E 0 92 2f 7f
        E 80 82 2f 00
        E 16 b2 0b 7f
        E 0 92 2f 7f
        E 80 82 2f 00
        E 16 b2 0b 7f
        E 0 92 2f 7f
        E 80 82 2f 00
        E 112 b2 0b 7f
        E 0 92 2f 7f
        E 80 82 2f 00
        E 16 b2 0b 7f
        E 0 92 2f 7f
        E 80 82 2f 00
        E 16 b2 0b 7f
        E 0 92 2f 7f
        E 80 82 2f 00
        E 16 b2 0b 7f
        E 0 92 2f 7f
        E 80 82 2f 00
        E 16 b2 0b 7f
        E 0 92 2f 7f
        E 80 82 2f 00
        E 16 b2 0b 7f
        E 0 92 2f 7f
        E 80 82 2f 00
        E 16 b2 0b 7f
        E 0 92 2f 7f
        E 80 82 2f 00
        E 112 b2 0b 7f
        E 0 92 2f 7f
        E 80 82 2f 00
        E 16 b2 0b 7f
        E 0 92 2f 7f
        E 80 82 2f 00
        E 16 b2 0b 7f
        E 0 92 2f 7f
        E 80 82 2f 00
        E 16 b2 0b 7f
        E 0 92 2f 7f
        E 80 82 2f 00
        E 16 b2 0b 7f
        E 0 92 2f 7f
        E 80 82 2f 00
        E 16 b2 0b 7f
        E 0 92 2f 7f
        E 80 82 2f 00
        E 16 b2 0b 7f
        E 0 92 2f 7f
        E 80 82 2f 00
        E 112 b2 0b 7f
        E 0 92 2f 7f
        E 80 82 2f 00
        E 16 b2 0b 7f
        E 0 92 2f 7f
        E 80 82 2f 00
        E 16 b2 0b 7f
        E 0 92 2f 7f
        E 80 82 2f 00
        E 16 b2 0b 7f
        E 0 92 2f 7f
        E 80 82 2f 00
        E 16 b2 0b 7f
        E 0 92 2f 7f
        E 80 82 2f 00
        E 16 b2 0b 7f
        E 0 92 2f 7f
        E 80 82 2f 00
        E 16 b2 0b 7f
        E 0 92 2f 7f
        E 80 82 2f 00
        E 112 b2 0b 7f
        E 0 92 2f 7f
        E 80 82 2f 00
        E 16 b2 0b 7f
        E 0 92 2f 7f
        E 80 82 2f 00
        E 16 b2 0b 7f
        E 0 92 2f 7f
        E 80 82 2f 00
        E 16 b2 0b 7f
        E 0 92 2f 7f
        E 80 82 2f 00
        E 16 b2 0b 7f
        E 0 92 2f 7f
        E 80 82 2f 00
        E 16 b2 0b 7f
        E 0 92 2f 7f
        E 80 82 2f 00
        E 16 b2 0b 7f
        E 0 92 2f 7f
        E 80 82 2f 00
        E 112 b2 0b 7f
        E 0 92 2f 7f
        E 80 82 2f 00
        E 16 b2 0b 7f
        E 0 92 2f 7f
        E 80 82 2f 00
        E 16 b2 0b 7f
        E 0 92 2b 7f
        E 80 82 2b 00
        E 16 b2 0b 7f
        E 0 92 2b 7f
        E 80 82 2b 00
        E 16 b2 0b 7f
        E 0 92 37 7f
        E 80 82 37 00
        E 16 b2 0b 7f
        E 0 92 37 7f
        E 80 82 37 00
        E 16 b2 0b 7f
        E 0 92 2b 7f
        E 80 82 2b 00
        E 16 b2 0b 7f
        E 0 92 2b 7f
        E 80 82 2b 00
        E 16 b2 0b 7f
        E 0 92 2a 7f
        E 80 82 2a 00
        E 304 b2 0b 7f
        E 0 92 36 7f
        E 80 82 36 00
        E 16 b2 0b 7f
        E 0 92 36 7f
        E 80 82 36 00
        E 16 b2 0b 7f
        E 0 92 2a 7f
        E 80 82 2a 00
        E 16 b2 0b 7f
        E 0 92 2a 7f
        E 80 82 2a 00
        E 16 b2 0b 7f
        E 0 92 2a 7f
        E 80 82 2a 00
        E 16 b2 0b 7f
        E 0 92 2a 7f
        E 80 82 2a 00
        E 16 b2 0b 7f
        E 0 92 2f 7f
        E 80 82 2f 00
        E 16 b2 0b 7f
        E 0 92 2f 7f
        E 80 82 2f 00
        E 16 b2 0b 7f
        E 0 92 2f 7f
        E 80 82 2f 00
        E 16 b2 0b 7f
        E 0 92 2f 7f
        E 80 82 2f 00
        E 16 b2 0b 7f
        E 0 92 2f 7f
        E 80 82 2f 00
        E 112 b2 0b 7f
        E 0 92 2f 7f
        E 80 82 2f 00
        E 16 b2 0b 7f
        E 0 92 2f 7f
        E 80 82 2f 00
        E 16 b2 0b 7f
        E 0 92 2f 7f
        E 80 82 2f 00
        E 16 b2 0b 7f
        E 0 92 2f 7f
        E 80 82 2f 00
        E 16 b2 0b 7f
        E 0 92 2f 7f
        E 80 82 2f 00
        E 16 b2 0b 7f
        E 0 92 2f 7f
        E 80 82 2f 00
        E 16 b2 0b 7f
        E 0 92 2f 7f
        E 80 82 2f 00
        E 112 b2 0b 7f
        E 0 92 2f 7f
        E 80 82 2f 00
        E 16 b2 0b 7f
        E 0 92 2f 7f
        E 80 82 2f 00
        E 16 b2 0b 7f
        E 0 92 2f 7f
        E 80 82 2f 00
        E 16 b2 0b 7f
        E 0 92 2f 7f
        E 80 82 2f 00
        E 16 b2 0b 7f
        E 0 92 2f 7f
        E 80 82 2f 00
        E 16 b2 0b 7f
        E 0 92 2f 7f
        E 80 82 2f 00
        E 16 b2 0b 7f
        E 0 92 2f 7f
        E 80 82 2f 00
        E 112 b2 0b 7f
        E 0 92 2f 7f
        E 80 82 2f 00
        E 16 b2 0b 7f
        E 0 92 2f 7f
        E 80 82 2f 00
        E 16 b2 0b 7f
        E 0 92 2f 7f
        E 80 82 2f 00
        E 16 b2 0b 7f
        E 0 92 2f 7f
        E 80 82 2f 00
        E 16 b2 0b 7f
        E 0 92 2f 7f
        E 80 82 2f 00
        E 16 b2 0b 7f
        E 0 92 2f 7f
        E 80 82 2f 00
        E 16 b2 0b 7f
        E 0 92 2f 7f
        E 80 82 2f 00
        E 112 b2 0b 7f
        E 0 92 2f 7f
        E 80 82 2f 00
        E 16 b2 0b 7f
        E 0 92 2f 7f
        E 80 82 2f 00
        E 16 b2 0b 7f
        E 0 92 32 7f
        E 80 82 32 00
        E 16 b2 0b 7f
        E 0 92 32 7f
        E 80 82 32 00
        E 16 b2 0b 7f
        E 0 92 32 7f
        E 80 82 32 00
        E 16 b2 0b 7f
        E 0 92 32 7f
        E 80 82 32 00
        E 16 b2 0b 7f
        E 0 92 32 7f
        E 80 82 32 00
        E 112 b2 0b 7f
        E 0 92 32 7f
        E 80 82 32 00
        E 16 b2 0b 7f
        E 0 92 32 7f
        E 80 82 32 00
        E 16 b2 0b 7f
        E 0 92 34 7f
        E 80 82 34 00
        E 16 b2 0b 7f
        E 0 92 34 7f
        E 80 82 34 00
        E 16 b2 0b 7f
        E 0 92 34 7f
        E 80 82 34 00
        E 16 b2 0b 7f
        E 0 92 34 7f
        E 80 82 34 00
        E 16 b2 0b 7f
        E 0 92 34 7f
        E 80 82 34 00
        E 112 b2 0b 7f
        E 0 92 34 7f
        E 80 82 34 00
        E 16 b2 0b 7f
        E 0 92 34 7f
        E 80 82 34 00
        E 16 b2 0b 7f
        E 0 92 2f 7f
        E 80 82 2f 00
        E 16 b2 0b 7f
        E 0 92 2f 7f
        E 80 82 2f 00
        E 16 b2 0b 7f
        E 0 92 2f 7f
        E 80 82 2f 00
        E 16 b2 0b 7f
        E 0 92 2f 7f
        E 80 82 2f 00
        E 16 b2 0b 7f
        E 0 92 2f 7f
        E 80 82 2f 00
        E 112 b2 0b 7f
        E 0 92 2f 7f
        E 80 82 2f 00
        E 16 b2 0b 7f
        E 0 92 2f 7f
        E 80 82 2f 00
        E 16 b2 0b 7f
        E 0 92 2f 7f
        E 80 82 2f 00
        E 16 b2 0b 7f
        E 0 92 2f 7f
        E 80 82 2f 00
        E 16 b2 0b 7f
        E 0 92 2f 7f
        E 80 82 2f 00
        E 16 b2 0b 7f
        E 0 92 2f 7f
        E 80 82 2f 00
        E 16 b2 0b 7f
        E 0 92 2f 7f
        E 80 82 2f 00
        E 112 b2 0b 7f
        E 0 92 2f 7f
        E 80 82 2f 00
        E 16 b2 0b 7f
        E 0 92 2f 7f
        E 80 82 2f 00
        E 16 b2 0b 7f
        E 0 92 2f 7f
        E 80 82 2f 00
        E 16 b2 0b 7f
        E 0 92 2f 7f
        E 80 82 2f 00
        E 16 b2 0b 7f
        E 0 92 2f 7f
        E 80 82 2f 00
        E 16 b2 0b 7f
        E 0 92 2f 7f
        E 80 82 2f 00
        E 16 b2 0b 7f
        E 0 92 2f 7f
        E 80 82 2f 00
        E 112 b2 0b 7f
        E 0 92 2f 7f
        E 80 82 2f 00
        E 16 b2 0b 7f
        E 0 92 2f 7f
        E 80 82 2f 00
        E 16 b2 0b 7f
        E 0 92 2f 7f
        E 80 82 2f 00
        E 16 b2 0b 7f
        E 0 92 2f 7f
        E 80 82 2f 00
        E 16 b2 0b 7f
        E 0 92 2f 7f
        E 80 82 2f 00
        E 16 b2 0b 7f
        E 0 92 2f 7f
        E 80 82 2f 00
        E 16 b2 0b 7f
        E 0 92 2f 7f
        E 80 82 2f 00
        E 112 b2 0b 7f
        E 0 92 2f 7f
        E 80 82 2f 00
        E 16 b2 0b 7f
        E 0 92 2f 7f
        E 80 82 2f 00
        E 16 b2 0b 7f
        E 0 92 2f 7f
        E 80 82 2f 00
        E 16 b2 0b 7f
        E 0 92 2f 7f
        E 80 82 2f 00
        E 16 b2 0b 7f
        E 0 92 2f 7f
        E 80 82 2f 00
        E 16 b2 0b 7f
        E 0 92 2f 7f
        E 80 82 2f 00
        E 16 b2 0b 7f
        E 0 92 2f 7f
        E 80 82 2f 00
        E 112 b2 0b 7f
        E 0 92 2f 7f
        E 80 82 2f 00
        E 16 b2 0b 7f
        E 0 92 2f 7f
        E 80 82 2f 00
        E 16 b2 0b 7f
        E 0 92 2f 7f
        E 80 82 2f 00
        E 16 b2 0b 7f
        E 0 92 2f 7f
        E 80 82 2f 00
        E 16 b2 0b 7f
        E 0 92 2f 7f
        E 80 82 2f 00
        E 16 b2 0b 7f
        E 0 92 2f 7f
        E 80 82 2f 00
        E 16 b2 0b 7f
        E 0 92 2f 7f
        E 80 82 2f 00
        E 112 b2 0b 7f
        E 0 92 2f 7f
        E 80 82 2f 00
        E 16 b2 0b 7f
        E 0 92 2f 7f
        E 80 82 2f 00
        E 16 b2 0b 7f
        E 0 92 32 7f
        E 80 82 32 00
        E 16 b2 0b 7f
        E 0 92 32 7f
        E 80 82 32 00
        E 16 b2 0b 7f
        E 0 92 32 7f
        E 80 82 32 00
        E 16 b2 0b 7f
        E 0 92 32 7f
        E 80 82 32 00
        E 16 b2 0b 7f
        E 0 92 32 7f
        E 80 82 32 00
        E 112 b2 0b 7f
        E 0 92 32 7f
        E 80 82 32 00
        E 16 b2 0b 7f
        E 0 92 32 7f
        E 80 82 32 00
        E 16 b2 0b 7f
        E 0 92 34 7f
        E 80 82 34 00
        E 16 b2 0b 7f
        E 0 92 34 7f
        E 80 82 34 00
        E 16 b2 0b 7f
        E 0 92 34 7f
        E 80 82 34 00
        E 16 b2 0b 7f
        E 0 92 34 7f
        E 80 82 34 00
        E 16 b2 0b 7f
        E 0 92 34 7f
        E 80 82 34 00
        E 112 b2 0b 7f
        E 0 92 34 7f
        E 80 82 34 00
        E 16 b2 0b 7f
        E 0 92 34 7f
        E 80 82 34 00
        E 16 b2 0b 7f
        E 0 92 2f 7f
        E 80 82 2f 00
        E 16 b2 0b 7f
        E 0 92 2f 7f
        E 80 82 2f 00
        E 16 b2 0b 7f
        E 0 92 2f 7f
        E 80 82 2f 00
        E 16 b2 0b 7f
        E 0 92 2f 7f
        E 80 82 2f 00
        E 16 b2 0b 7f
        E 0 92 2f 7f
        E 80 82 2f 00
        E 112 b2 0b 7f
        E 0 92 2f 7f
        E 80 82 2f 00
        E 16 b2 0b 7f
        E 0 92 2f 7f
        E 80 82 2f 00
        E 16 b2 0b 7f
        E 0 92 2f 7f
        E 80 82 2f 00
        E 16 b2 0b 7f
        E 0 92 2f 7f
        E 80 82 2f 00
        E 16 b2 0b 7f
        E 0 92 2f 7f
        E 80 82 2f 00
        E 16 b2 0b 7f
        E 0 92 2f 7f
        E 80 82 2f 00
        E 16 b2 0b 7f
        E 0 92 2f 7f
        E 80 82 2f 00
        E 112 b2 0b 7f
        E 0 92 2f 7f
        E 80 82 2f 00
        E 16 b2 0b 7f
        E 0 92 2f 7f
        E 80 82 2f 00
        E 16 b2 0b 7f
        E 0 92 2b 7f
        E 80 82 2b 00
        E 16 b2 0b 7f
        E 0 92 2b 7f
        E 80 82 2b 00
        E 16 b2 0b 7f
        E 0 92 2b 7f
        E 80 82 2b 00
        E 16 b2 0b 7f
        E 0 92 2b 7f
        E 80 82 2b 00
        E 16 b2 0b 7f
        E 0 92 2b 7f
        E 80 82 2b 00
        E 16 b2 0b 7f
        E 0 92 2b 7f
        E 80 82 2b 00
        E 16 b2 0b 7f
        E 0 92 2b 7f
        E 80 82 2b 00
        E 16 b2 0b 7f
        E 0 92 2b 7f
        E 80 82 2b 00
        E 16 b2 0b 7f
        E 0 92 2d 7f
        E 80 82 2d 00
        E 16 b2 0b 7f
        E 0 92 2d 7f
        E 80 82 2d 00
        E 16 b2 0b 7f
        E 0 92 2d 7f
        E 80 82 2d 00
        E 16 b2 0b 7f
        E 0 92 2d 7f
        E 80 82 2d 00
        E 16 b2 0b 7f
        E 0 92 2d 7f
        E 80 82 2d 00
        E 16 b2 0b 7f
        E 0 92 2d 7f
        E 80 82 2d 00
        E 16 b2 0b 7f
        E 0 92 2d 7f
        E 80 82 2d 00
        E 16 b2 0b 7f
        E 0 92 2d 7f
        E 80 82 2d 00
        E 16 b2 0b 7f
        E 0 92 2f 7f
        E 80 82 2f 00
        E 16 b2 0b 7f
        E 0 92 2f 7f
        E 80 82 2f 00
        E 16 b2 0b 7f
        E 0 92 2f 7f
        E 80 82 2f 00
        E 16 b2 0b 7f
        E 0 92 2f 7f
        E 80 82 2f 00
        E 16 b2 0b 7f
        E 0 92 2f 7f
        E 80 82 2f 00
        E 112 b2 0b 7f
        E 0 92 2f 7f
        E 80 82 2f 00
        E 16 b2 0b 7f
        E 0 92 2f 7f
        E 80 82 2f 00
        E 16 b2 0b 7f
        E 0 92 2f 7f
        E 80 82 2f 00
        E 16 b2 0b 7f
        E 0 92 2f 7f
        E 80 82 2f 00
        E 16 b2 0b 7f
        E 0 92 2f 7f
        E 80 82 2f 00
        E 16 b2 0b 7f
        E 0 92 2f 7f
        E 80 82 2f 00
        E 16 b2 0b 7f
        E 0 92 2f 7f
        E 80 82 2f 00
        E 112 b2 0b 7f
        E 0 92 2f 7f
        E 80 82 2f 00
        E 16 b2 0b 7f
        E 0 92 2f 7f
        E 80 82 2f 00
        E 16 b2 0b 7f
        E 0 92 2b 7f
        E 80 82 2b 00
        E 16 b2 0b 7f
        E 0 92 2b 7f
        E 80 82 2b 00
        E 16 b2 0b 7f
        E 0 92 2b 7f
        E 80 82 2b 00
        E 16 b2 0b 7f
        E 0 92 2b 7f
        E 80 82 2b 00
        E 16 b2 0b 7f
        E 0 92 2b 7f
        E 80 82 2b 00
        E 16 b2 0b 7f
        E 0 92 2b 7f
        E 80 82 2b 00
        E 16 b2 0b 7f
        E 0 92 2d 7f
        E 80 82 2d 00
        E 304 b2 0b 7f
        E 0 92 2d 7f
        E 80 82 2d 00
        E 16 b2 0b 7f
        E 0 92 2d 7f
        E 80 82 2d 00
        E 16 b2 0b 7f
        E 0 92 2d 7f
        E 80 82 2d 00
        E 16 b2 0b 7f
        E 0 92 2d 7f
        E 80 82 2d 00
        E 16 b2 0b 7f
        E 0 92 2d 7f
        E 80 82 2d 00
        E 16 b2 0b 7f
        E 0 92 2d 7f
        E 80 82 2d 00
        E 16 b2 0b 7f
        E 0 92 2f 7f
        E 80 82 2f 00
        E 16 b2 0b 7f
        E 0 92 2f 7f
        E 80 82 2f 00
        E 16 b2 0b 7f
        E 0 92 2f 7f
        E 80 82 2f 00
        E 16 b2 0b 7f
        E 0 92 2f 7f
        E 80 82 2f 00
        E 16 b2 0b 7f
        E 0 92 2f 7f
        E 80 82 2f 00
        E 112 b2 0b 7f
        E 0 92 2f 7f
        E 80 82 2f 00
        E 16 b2 0b 7f
        E 0 92 2f 7f
        E 80 82 2f 00
        E 16 b2 0b 7f
        E 0 92 2f 7f
        E 80 82 2f 00
        E 16 b2 0b 7f
        E 0 92 2f 7f
        E 80 82 2f 00
        E 16 b2 0b 7f
        E 0 92 2f 7f
        E 80 82 2f 00
        E 16 b2 0b 7f
        E 0 92 2f 7f
        E 80 82 2f 00
        E 16 b2 0b 7f
        E 0 92 2f 7f
        E 80 82 2f 00
        E 112 b2 0b 7f
        E 0 92 2f 7f
        E 80 82 2f 00
        E 16 b2 0b 7f
        E 0 92 2f 7f
        E 80 82 2f 00
        E 16 b2 0b 7f
        E 0 92 2b 7f
        E 80 82 2b 00
        E 16 b2 0b 7f
        E 0 92 2b 7f
        E 80 82 2b 00
        E 16 b2 0b 7f
        E 0 92 2b 7f
        E 80 82 2b 00
        E 16 b2 0b 7f
        E 0 92 2b 7f
        E 80 82 2b 00
        E 16 b2 0b 7f
        E 0 92 2b 7f
        E 80 82 2b 00
        E 16 b2 0b 7f
        E 0 92 2b 7f
        E 80 82 2b 00
        E 16 b2 0b 7f
        E 0 92 2b 7f
        E 80 82 2b 00
        E 16 b2 0b 7f
        E 0 92 2b 7f
        E 80 82 2b 00
        E 16 b2 0b 7f
        E 0 92 2d 7f
        E 80 82 2d 00
        E 16 b2 0b 7f
        E 0 92 2d 7f
        E 80 82 2d 00
        E 16 b2 0b 7f
        E 0 92 2d 7f
        E 80 82 2d 00
        E 16 b2 0b 7f
        E 0 92 2d 7f
        E 80 82 2d 00
        E 16 b2 0b 7f
        E 0 92 2d 7f
        E 80 82 2d 00
        E 16 b2 0b 7f
        E 0 92 2d 7f
        E 80 82 2d 00
        E 16 b2 0b 7f
        E 0 92 2d 7f
        E 80 82 2d 00
        E 16 b2 0b 7f
        E 0 92 2d 7f
        E 80 82 2d 00
        E 16 b2 0b 7f
        E 0 92 2f 7f
        E 80 82 2f 00
        E 16 b2 0b 7f
        E 0 92 2f 7f
        E 80 82 2f 00
        E 16 b2 0b 7f
        E 0 92 2f 7f
        E 80 82 2f 00
        E 16 b2 0b 7f
        E 0 92 2f 7f
        E 80 82 2f 00
        E 16 b2 0b 7f
        E 0 92 2f 7f
        E 80 82 2f 00
        E 112 b2 0b 7f
        E 0 92 2f 7f
        E 80 82 2f 00
        E 16 b2 0b 7f
        E 0 92 2f 7f
        E 80 82 2f 00
        E 16 b2 0b 7f
        E 0 92 2f 7f
        E 80 82 2f 00
        E 16 b2 0b 7f
        E 0 92 2f 7f
        E 80 82 2f 00
        E 16 b2 0b 7f
        E 0 92 2f 7f
        E 80 82 2f 00
        E 16 b2 0b 7f
        E 0 92 2f 7f
        E 80 82 2f 00
        E 16 b2 0b 7f
        E 0 92 2f 7f
        E 80 82 2f 00
        E 112 b2 0b 7f
        E 0 92 2f 7f
        E 80 82 2f 00
        E 16 b2 0b 7f
        E 0 92 2f 7f
        E 80 82 2f 00
        E 16 b2 0b 7f
        E 0 92 2b 7f
        E 80 82 2b 00
        E 16 b2 0b 7f
        E 0 92 2b 7f
        E 80 82 2b 00
        E 16 b2 0b 7f
        E 0 92 2b 7f
        E 80 82 2b 00
        E 16 b2 0b 7f
        E 0 92 2b 7f
        E 80 82 2b 00
        E 16 b2 0b 7f
        E 0 92 2b 7f
        E 80 82 2b 00
        E 16 b2 0b 7f
        E 0 92 2b 7f
        E 80 82 2b 00
        E 16 b2 0b 7f
        E 0 92 2d 7f
        E 80 82 2d 00
        E 304 b2 0b 7f
        E 0 92 2d 7f
        E 80 82 2d 00
        E 16 b2 0b 7f
        E 0 92 2d 7f
        E 80 82 2d 00
        E 16 b2 0b 7f
        E 0 92 2d 7f
        E 80 82 2d 00
        E 16 b2 0b 7f
        E 0 92 2d 7f
        E 80 82 2d 00
        E 16 b2 0b 7f
        E 0 92 2d 7f
        E 80 82 2d 00
        E 16 b2 0b 7f
        E 0 92 2d 7f
        E 80 82 2d 00
        E 16 b2 0b 7f
        E 0 92 2b 7f
        E 80 82 2b 00
        E 16 b2 0b 7f
        E 0 92 2b 7f
        E 80 82 2b 00
        E 16 b2 0b 7f
        E 0 92 2b 7f
        E 80 82 2b 00
        E 16 b2 0b 7f
        E 0 92 2b 7f
        E 80 82 2b 00
        E 16 b2 0b 7f
        E 0 92 2b 7f
        E 80 82 2b 00
        E 16 b2 0b 7f
        E 0 92 2b 7f
        E 80 82 2b 00
        E 16 b2 0b 7f
        E 0 92 2d 7f
        E 80 82 2d 00
        E 304 b2 0b 7f
        E 0 92 2d 7f
        E 80 82 2d 00
        E 16 b2 0b 7f
        E 0 92 2d 7f
        E 80 82 2d 00
        E 16 b2 0b 7f
        E 0 92 2d 7f
        E 80 82 2d 00
        E 16 b2 0b 7f
        E 0 92 2d 7f
        E 80 82 2d 00
        E 16 b2 0b 7f
        E 0 92 2f 7f
        E 288 82 2f 00
        E 96 b2 0b 7f
        E 0 92 2f 7f
        E 144 82 2f 00
        E 48 b2 0b 7f
        E 0 92 2f 7f
        E 144 82 2f 00
        E 48 b2 0b 7f
        E 0 92 2f 7f
        E 144 82 2f 00
        E 48 b2 0b 7f
        E 0 92 2f 7f
        E 144 82 2f 00
        E 48 b2 0b 7f
        E 0 92 2f 7f
        E 144 82 2f 00
        E 48 b2 0b 7f
        E 0 92 2f 7f
        E 144 82 2f 00
        E 48 b2 0b 7f
        E 0 92 2f 7f
        E 144 82 2f 00
        E 48 b2 0b 7f
        E 0 92 2f 7f
        E 144 82 2f 00
        E 48 b2 0b 7f
        E 0 92 2f 7f
        E 144 82 2f 00
        E 48 b2 0b 7f
        E 0 92 2f 7f
        E 144 82 2f 00
        E 48 b2 0b 7f
        E 0 92 2f 7f
        E 144 82 2f 00
        E 48 b2 0b 7f
        E 0 92 2f 7f
        E 144 82 2f 00
        E 48 b2 0b 7f
        E 0 92 2f 7f
        E 144 82 2f 00
        E 48 b2 0b 7f
        E 0 92 2f 7f
        E 144 82 2f 00
        E 48 b2 0b 7f
        E 0 92 2f 7f
        E 144 82 2f 00
        E 48 b2 0b 7f
        E 0 92 2f 7f
        E 144 82 2f 00
        E 48 b2 0b 7f
        E 0 92 2f 7f
        E 144 82 2f 00
        E 48 b2 0b 7f
        E 0 92 2f 7f
        E 144 82 2f 00
        E 48 b2 0b 7f
        E 0 92 2f 7f
        E 144 82 2f 00
        E 48 b2 0b 7f
        E 0 92 2f 7f
        E 144 82 2f 00
        E 48 b2 0b 7f
        E 0 92 2f 7f
        E 144 82 2f 00
        E 48 b2 0b 7f
        E 0 92 2f 7f
        E 144 82 2f 00
        E 48 b2 0b 7f
        E 0 92 37 7f
        E 1296 82 37 00
        E 33872 b2 7b 00
        E 0 ff 2f 00
      >
    >
  >
  <TRACK {C092713E-8073-4D5B-8777-18C284900189}
    NAME "NES - Noise / Drums"
    PEAKCOL 11184810
    BEAT -1
    AUTOMODE 0
    PANLAWFLAGS 3
    VOLPAN 1 0 -1 -1 1
    MUTESOLO 0 0 0
    IPHASE 0
    PLAYOFFS 0 1
    ISBUS 0 0
    BUSCOMP 0 0 0 0 0
    SHOWINMIX 1 0.6667 0.5 1 0.5 0 0 0
    FIXEDLANES 9 0 0 0 0
    SEL 0
    REC 0 5088 1 0 0 0 0 0
    VU 2
    TRACKHEIGHT 0 0 0 0 0 0 0
    INQ 0 0 0 0.5 100 0 0 100
    NCHAN 2
    FX 1
    TRACKID {C092713E-8073-4D5B-8777-18C284900189}
    PERF 0
    MIDIOUT -1
    MAINSEND 1 0
    <FXCHAIN
      WNDRECT 24 52 700 560
      SHOW 0
      LASTSEL 0
      DOCKED 0
      BYPASS 0 0 0
      <JS "ReapNES Studio/ReapNES_Console.jsfx" ""
        2 15 1 10 80 10 100 2 1 15 1 5 60 10 80 1 1 0 50 0 0 15 1 0 100 0 0 0.500000 0.500000 0.400000 0.300000 0.800000 3 1 0 0 0 0 - - - - - - - - - - - - - - - - - - - - - - - - - -
      >
      FLOATPOS 0 0 0 0
      FXID {72924376-4F6A-4A67-BE6D-B8E9440439DC}
      WAK 0 0
    >
  >
>