<REAPER_PROJECT 0.1 "7.27/win64" 1707000000
  <NOTES 0 2
    |ReapNES Studio Project
    |MIDI Import - Faxanadu_song_ED_rom_v1
  >
  RIPPLE 0
  GROUPOVERRIDE 0 0 0
  AUTOXFADE 129
  ENVATTACH 3
  POOLEDENVATTACH 0
  MIXERUIFLAGS 11 48
  ENVFADESZ10 40
  PEAKGAIN 1
  FEEDBACK 0
  PANLAW 1
  PROJOFFS 0 0 0
  MAXPROJLEN 0 0
  GRID 3199 8 1 8 1 0 0 0
  TIMEMODE 1 5 -1 30 0 0 -1
  VIDEO_CONFIG 0 0 65792
  PANMODE 3
  PANLAWFLAGS 3
  CURSOR 0
  ZOOM 100 0 0
  VZOOMEX 6 0
  USE_REC_CFG 0
  RECMODE 1
  SMPTESYNC 0 30 100 40 1000 300 0 0 1 0 0
  LOOP 0
  LOOPGRAN 0 4
  RECORD_PATH "Media" ""
  <RECORD_CFG
    ZXZhdxgAAQ==
  >
  <APPLYFX_CFG
  >
  RENDER_FILE ""
  RENDER_PATTERN ""
  RENDER_FMT 0 2 0
  RENDER_1X 0
  RENDER_RANGE 1 0 0 18 1000
  RENDER_RESAMPLE 3 0 1
  RENDER_ADDTOPROJ 0
  RENDER_STEMS 0
  RENDER_DITHER 0
  TIMELOCKMODE 1
  TEMPOENVLOCKMODE 1
  ITEMMIX 1
  DEFPITCHMODE 589824 0
  TAKELANE 1
  SAMPLERATE 44100 0 0
  <RENDER_CFG
    ZXZhdxgAAQ==
  >
  LOCK 1
  <METRONOME 6 2
    VOL 0.25 0.125
    BEATLEN 4
    FREQ 1760 880 1
    SAMPLES "" ""
    SPLIGNORE 0 0
    SPLDEF 2 660 "" 0
    SPLDEF 3 440 "" 0
    PATTERN 0 169
    PATTERNSTR ABBB
    MULT 1
  >
  GLOBAL_AUTO -1
  TEMPO 128.59999614200012 4 4
  PLAYRATE 1 0 0.25 4
  SELECTION 0 0
  SELECTION2 0 0
  MASTERAUTOMODE 0
  MASTERTRACKHEIGHT 0 0
  MASTERPEAKCOL 16576
  MASTERMUTESOLO 0
  MASTERTRACKVIEW 0 0.6667 0.5 0.5 0 0 0 0 0 0 0 0 0 0
  MASTERHWOUT 0 0 1 0 0 0 0 -1
  MASTER_NCH 2 2
  MASTER_VOLUME 1 0 -1 -1 1
  MASTER_PANMODE 3
  MASTER_PANLAWFLAGS 3
  MASTER_FX 1
  MASTER_SEL 0
  <MASTERPLAYSPEEDENV
    EGUID {314A1838-92C7-4306-918E-BD4A8A62EA0D}
    ACT 0 -1
    VIS 0 1 1
    LANEHEIGHT 0 0
    ARM 0
    DEFSHAPE 0 -1 -1
  >
  <TEMPOENVEX
    EGUID {AE511BDE-8DCD-426F-922F-0A83509CEA05}
    ACT 1 -1
    VIS 1 0 1
    LANEHEIGHT 0 0
    ARM 0
    DEFSHAPE 1 -1 -1
  >
  <PROJBAY
  >
  <TRACK {74DE2911-920B-4F91-A612-64783B935AC6}
    NAME "NES - Pulse 1 [ch0]"
    PEAKCOL 16576606
    BEAT -1
    AUTOMODE 0
    PANLAWFLAGS 3
    VOLPAN 1 0 -1 -1 1
    MUTESOLO 0 0 0
    IPHASE 0
    PLAYOFFS 0 1
    ISBUS 0 0
    BUSCOMP 0 0 0 0 0
    SHOWINMIX 1 0.6667 0.5 1 0.5 0 0 0
    FIXEDLANES 9 0 0 0 0
    SEL 1
    REC 1 5088 1 0 0 0 0 0
    VU 2
    TRACKHEIGHT 0 0 0 0 0 0 0
    INQ 0 0 0 0.5 100 0 0 100
    NCHAN 2
    FX 1
    TRACKID {74DE2911-920B-4F91-A612-64783B935AC6}
    PERF 0
    MIDIOUT -1
    MAINSEND 1 0
    <FXCHAIN
      WNDRECT 24 52 700 560
      SHOW 0
      LASTSEL 0
      DOCKED 0
      BYPASS 0 0 0
      <JS "ReapNES Studio/ReapNES_Console.jsfx" ""
        2 15 1 10 80 10 100 2 1 15 1 5 60 10 80 1 1 0 50 0 0 15 1 0 100 0 0 0.500000 0.500000 0.400000 0.300000 0.800000 0 1 0 0 0 0 - - - - - - - - - - - - - - - - - - - - - - - - - -
      >
      FLOATPOS 0 0 0 0
      FXID {18B6BCCC-5EC3-4A07-B3E3-CB8AA77C5282}
      WAK 0 0
    >
    <ITEM
      POSITION 0
      LENGTH 74.5878716
      LOOP 0
      ALLTAKES 0
      FADEIN 0 0 0 0 0 0 0
      FADEOUT 0 0 0 0 0 0 0
      MUTE 0 0
      SEL 0
      IGUID {CB3EF742-DB78-404B-B777-12355B1166F0}
      <SOURCE MIDI
        HASDATA 1 480 QN
        CCINTERP 32
        E 0 c0 50
        E 0 b0 0c 60
        E 0 b0 0b 7f
        E 0 90 26 7f
        E 80 b0 0b 77
        E 16 b0 0b 7f
        E 0 80 26 00
        E 0 90 32 7f
        E 80 b0 0b 77
        E 16 b0 0b 7f
        E 0 80 32 00
        E 0 90 26 7f
        E 80 b0 0b 77
        E 16 b0 0b 7f
        E 0 80 26 00
        E 0 90 33 7f
        E 80 b0 0b 77
        E 16 b0 0b 7f
        E 0 80 33 00
        E 0 90 27 7f
        E 80 b0 0b 77
        E 16 b0 0b 7f
        E 0 80 27 00
        E 0 90 31 7f
        E 80 b0 0b 77
        E 16 b0 0b 7f
        E 80 b0 0b 77
        E 80 b0 0b 6e
        E 80 b0 0b 66
        E 96 b0 0b 5d
        E 80 b0 0b 55
        E 80 b0 0b 4c
        E 96 b0 0b 44
        E 80 b0 0b 3b
        E 80 80 31 00
        E 75408 b0 7b 00
        E 0 ff 2f 00
      >
    >
  >
  <TRACK {436B3FDC-A089-4776-8A1D-B2BE7F24F8D1}
    NAME "NES - Pulse 2 [ch1]"
    PEAKCOL 10092441
    BEAT -1
    AUTOMODE 0
    PANLAWFLAGS 3
    VOLPAN 1 0 -1 -1 1
    MUTESOLO 0 0 0
    IPHASE 0
    PLAYOFFS 0 1
    ISBUS 0 0
    BUSCOMP 0 0 0 0 0
    SHOWINMIX 1 0.6667 0.5 1 0.5 0 0 0
    FIXEDLANES 9 0 0 0 0
    SEL 0
    REC 0 5088 1 0 0 0 0 0
    VU 2
    TRACKHEIGHT 0 0 0 0 0 0 0
    INQ 0 0 0 0.5 100 0 0 100
    NCHAN 2
    FX 1
    TRACKID {436B3FDC-A089-4776-8A1D-B2BE7F24F8D1}
    PERF 0
    MIDIOUT -1
    MAINSEND 1 0
    <FXCHAIN
      WNDRECT 24 52 700 560
      SHOW 0
      LASTSEL 0
      DOCKED 0
      BYPASS 0 0 0
      <JS "ReapNES Studio/ReapNES_Console.jsfx" ""
        2 15 1 10 80 10 100 2 1 15 1 5 60 10 80 1 1 0 50 0 0 15 1 0 100 0 0 0.500000 0.500000 0.400000 0.300000 0.800000 1 1 0 0 0 0 - - - - - - - - - - - - - - - - - - - - - - - - - -
      >
      FLOATPOS 0 0 0 0
      FXID {D22A638E-8BF2-4C70-B97A-167E820519C0}
      WAK 0 0
    >
    <ITEM
      POSITION 0
      LENGTH 74.5878716
      LOOP 0
      ALLTAKES 0
      FADEIN 0 0 0 0 0 0 0
      FADEOUT 0 0 0 0 0 0 0
      MUTE 0 0
      SEL 0
      IGUID {67CFE133-77D4-4062-B958-5B815179F75F}
      <SOURCE MIDI
        HASDATA 1 480 QN
        CCINTERP 32
        E 0 c1 51
        E 0 b1 0c 40
        E 0 b1 0b 66
        E 0 91 3f 66
        E 80 b1 0b 5d
        E 16 b1 0b 66
        E 0 81 3f 00
        E 0 91 42 66
        E 80 b1 0b 5d
        E 16 b1 0b 66
        E 0 81 42 00
        E 0 91 43 66
        E 80 b1 0b 5d
        E 16 b1 0c 20
        E 0 b1 0b 66
        E 0 81 43 00
        E 0 91 3f 66
        E 80 b1 0b 5d
        E 16 b1 0b 66
        E 80 b1 0b 5d
        E 16 b1 0b 66
        E 80 b1 0b 5d
        E 80 b1 0b 55
        E 32 b1 0b 66
        E 0 81 3f 00
        E 0 91 47 66
        E 80 b1 0b 5d
        E 16 b1 0b 66
        E 0 81 47 00
        E 0 91 36 66
        E 80 b1 0b 5d
        E 16 b1 0b 66
        E 0 81 36 00
        E 0 91 3f 66
        E 80 b1 0b 5d
        E 16 b1 0b 66
        E 80 b1 0b 5d
        E 16 b1 0b 66
        E 80 b1 0b 5d
        E 16 b1 0b 66
        E 80 b1 0b 5d
        E 16 b1 0b 66
        E 80 b1 0b 5d
        E 80 b1 0b 55
        E 32 b1 0b 66
        E 0 81 3f 00
        E 0 91 47 66
        E 80 b1 0b 5d
        E 16 b1 0b 66
        E 0 81 47 00
        E 0 91 36 66
        E 80 b1 0b 5d
        E 16 b1 0b 66
        E 0 81 36 00
        E 0 91 3f 66
        E 80 b1 0b 5d
        E 16 b1 0b 66
        E 80 b1 0b 5d
        E 16 b1 0b 66
        E 0 81 3f 00
        E 0 91 40 66
        E 80 b1 0b 5d
        E 16 b1 0b 66
        E 80 b1 0b 5d
        E 16 b1 0b 66
        E 80 b1 0b 5d
        E 80 b1 0b 55
        E 32 b1 0b 66
        E 0 81 40 00
        E 0 91 47 66
        E 80 b1 0b 5d
        E 16 b1 0b 66
        E 0 81 47 00
        E 0 91 38 66
        E 80 b1 0b 5d
        E 16 b1 0b 66
        E 0 81 38 00
        E 0 91 40 66
        E 80 b1 0b 5d
        E 16 b1 0b 66
        E 80 b1 0b 5d
        E 16 b1 0b 66
        E 80 b1 0b 5d
        E 16 b1 0b 66
        E 80 b1 0b 5d
        E 16 b1 0b 66
        E 80 b1 0b 5d
        E 80 b1 0b 55
        E 32 b1 0b 66
        E 0 81 40 00
        E 0 91 47 66
        E 80 b1 0b 5d
        E 16 b1 0b 66
        E 0 81 47 00
        E 0 91 38 66
        E 80 b1 0b 5d
        E 16 b1 0b 66
        E 0 81 38 00
        E 0 91 40 66
        E 80 b1 0b 5d
        E 16 b1 0b 66
        E 80 b1 0b 5d
        E 16 b1 0b 66
        E 0 81 40 00
        E 0 91 3f 66
        E 80 b1 0b 5d
        E 16 b1 0b 66
        E 80 b1 0b 5d
        E 16 b1 0b 66
        E 80 b1 0b 5d
        E 80 b1 0b 55
        E 32 b1 0b 66
        E 0 81 3f 00
        E 0 91 47 66
        E 80 b1 0b 5d
        E 16 b1 0b 66
        E 0 81 47 00
        E 0 91 36 66
        E 80 b1 0b 5d
        E 16 b1 0b 66
        E 0 81 36 00
        E 0 91 3f 66
        E 80 b1 0b 5d
        E 16 b1 0b 66
        E 80 b1 0b 5d
        E 16 b1 0b 66
        E 80 b1 0b 5d
        E 16 b1 0b 66
        E 0 81 3f 00
        E 0 91 3b 66
        E 80 b1 0b 5d
        E 16 b1 0b 66
        E 0 81 3b 00
        E 0 91 36 66
        E 80 b1 0b 5d
        E 16 b1 0b 66
        E 0 81 36 00
        E 0 91 3b 66
        E 80 b1 0b 5d
        E 16 b1 0b 66
        E 0 81 3b 00
        E 0 91 3f 66
        E 80 b1 0b 5d
        E 16 b1 0b 66
        E 80 b1 0b 5d
        E 16 b1 0b 66
        E 0 81 3f 00
        E 0 91 42 66
        E 80 b1 0b 5d
        E 16 b1 0b 66
        E 80 b1 0b 5d
        E 16 b1 0b 66
        E 0 81 42 00
        E 0 91 37 66
        E 80 b1 0b 5d
        E 16 b1 0b 66
        E 0 81 37 00
        E 0 91 3b 66
        E 80 b1 0b 5d
        E 16 b1 0b 66
        E 0 81 3b 00
        E 0 91 3e 66
        E 80 b1 0b 5d
        E 16 b1 0b 66
        E 0 81 3e 00
        E 0 91 43 66
        E 80 b1 0b 5d
        E 16 b1 0b 66
        E 0 81 43 00
        E 0 91 47 66
        E 80 b1 0b 5d
        E 16 b1 0b 66
        E 0 81 47 00
        E 0 91 43 66
        E 80 b1 0b 5d
        E 16 b1 0b 66
        E 0 81 43 00
        E 0 91 36 66
        E 80 b1 0b 5d
        E 80 b1 0b 55
        E 80 b1 0b 4c
        E 96 b1 0b 44
        E 48 b1 0b 66
        E 0 81 36 00
        E 0 91 2d 66
        E 80 b1 0b 5d
        E 16 b1 0b 66
        E 0 81 2d 00
        E 0 91 31 66
        E 80 b1 0b 5d
        E 16 b1 0b 66
        E 0 81 31 00
        E 0 91 36 66
        E 80 b1 0b 5d
        E 16 b1 0b 66
        E 0 81 36 00
        E 0 91 3a 66
        E 80 b1 0b 5d
        E 16 b1 0b 66
        E 0 81 3a 00
        E 0 91 3d 66
        E 80 b1 0b 5d
        E 16 b1 0b 66
        E 0 81 3d 00
        E 0 91 3a 66
        E 80 b1 0b 5d
        E 16 b1 0b 66
        E 0 81 3a 00
        E 0 91 3f 66
        E 80 b1 0b 5d
        E 16 b1 0b 66
        E 80 b1 0b 5d
        E 16 b1 0b 66
        E 80 b1 0b 5d
        E 80 b1 0b 55
        E 32 b1 0b 66
        E 0 81 3f 00
        E 0 91 47 66
        E 80 b1 0b 5d
        E 16 b1 0b 66
        E 0 81 47 00
        E 0 91 36 66
        E 80 b1 0b 5d
        E 16 b1 0b 66
        E 0 81 36 00
        E 0 91 3f 66
        E 80 b1 0b 5d
        E 16 b1 0b 66
        E 80 b1 0b 5d
        E 16 b1 0b 66
        E 80 b1 0b 5d
        E 16 b1 0b 66
        E 80 b1 0b 5d
        E 16 b1 0b 66
        E 80 b1 0b 5d
        E 80 b1 0b 55
        E 32 b1 0b 66
        E 0 81 3f 00
        E 0 91 47 66
        E 80 b1 0b 5d
        E 16 b1 0b 66
        E 0 81 47 00
        E 0 91 36 66
        E 80 b1 0b 5d
        E 16 b1 0b 66
        E 0 81 36 00
        E 0 91 3f 66
        E 80 b1 0b 5d
        E 16 b1 0b 66
        E 80 b1 0b 5d
        E 16 b1 0b 66
        E 0 81 3f 00
        E 0 91 40 66
        E 80 b1 0b 5d
        E 16 b1 0b 66
        E 80 b1 0b 5d
        E 16 b1 0b 66
        E 80 b1 0b 5d
        E 80 b1 0b 55
        E 32 b1 0b 66
        E 0 81 40 00
        E 0 91 47 66
        E 80 b1 0b 5d
        E 16 b1 0b 66
        E 0 81 47 00
        E 0 91 38 66
        E 80 b1 0b 5d
        E 16 b1 0b 66
        E 0 81 38 00
        E 0 91 40 66
        E 80 b1 0b 5d
        E 16 b1 0b 66
        E 80 b1 0b 5d
        E 16 b1 0b 66
        E 80 b1 0b 5d
        E 16 b1 0b 66
        E 80 b1 0b 5d
        E 16 b1 0b 66
        E 80 b1 0b 5d
        E 80 b1 0b 55
        E 32 b1 0b 66
        E 0 81 40 00
        E 0 91 47 66
        E 80 b1 0b 5d
        E 16 b1 0b 66
        E 0 81 47 00
        E 0 91 38 66
        E 80 b1 0b 5d
        E 16 b1 0b 66
        E 0 81 38 00
        E 0 91 40 66
        E 80 b1 0b 5d
        E 16 b1 0b 66
        E 80 b1 0b 5d
        E 16 b1 0b 66
        E 0 81 40 00
        E 0 91 3f 66
        E 80 b1 0b 5d
        E 16 b1 0b 66
        E 80 b1 0b 5d
        E 16 b1 0b 66
        E 80 b1 0b 5d
        E 80 b1 0b 55
        E 32 b1 0b 66
        E 0 81 3f 00
        E 0 91 47 66
        E 80 b1 0b 5d
        E 16 b1 0b 66
        E 0 81 47 00
        E 0 91 36 66
        E 80 b1 0b 5d
        E 16 b1 0b 66
        E 0 81 36 00
        E 0 91 3f 66
        E 80 b1 0b 5d
        E 16 b1 0b 66
        E 80 b1 0b 5d
        E 16 b1 0b 66
        E 80 b1 0b 5d
        E 16 b1 0b 66
        E 0 81 3f 00
        E 0 91 3b 66
        E 80 b1 0b 5d
        E 16 b1 0b 66
        E 0 81 3b 00
        E 0 91 36 66
        E 80 b1 0b 5d
        E 16 b1 0b 66
        E 0 81 36 00
        E 0 91 3b 66
        E 80 b1 0b 5d
        E 16 b1 0b 66
        E 0 81 3b 00
        E 0 91 3f 66
        E 80 b1 0b 5d
        E 16 b1 0b 66
        E 80 b1 0b 5d
        E 16 b1 0b 66
        E 0 81 3f 00
        E 0 91 42 66
        E 80 b1 0b 5d
        E 16 b1 0b 66
        E 80 b1 0b 5d
        E 16 b1 0b 66
        E 0 81 42 00
        E 0 91 37 66
        E 80 b1 0b 5d
        E 16 b1 0b 66
        E 0 81 37 00
        E 0 91 3b 66
        E 80 b1 0b 5d
        E 16 b1 0b 66
        E 0 81 3b 00
        E 0 91 3e 66
        E 80 b1 0b 5d
        E 16 b1 0b 66
        E 0 81 3e 00
        E 0 91 43 66
        E 80 b1 0b 5d
        E 16 b1 0b 66
        E 0 81 43 00
        E 0 91 47 66
        E 80 b1 0b 5d
        E 16 b1 0b 66
        E 0 81 47 00
        E 0 91 43 66
        E 80 b1 0b 5d
        E 16 b1 0b 66
        E 0 81 43 00
        E 0 91 36 66
        E 80 b1 0b 5d
        E 80 b1 0b 55
        E 80 b1 0b 4c
        E 96 b1 0b 44
        E 48 b1 0b 66
        E 0 81 36 00
        E 0 91 2d 66
        E 80 b1 0b 5d
        E 16 b1 0b 66
        E 0 81 2d 00
        E 0 91 31 66
        E 80 b1 0b 5d
        E 16 b1 0b 66
        E 0 81 31 00
        E 0 91 36 66
        E 80 b1 0b 5d
        E 16 b1 0b 66
        E 0 81 36 00
        E 0 91 3a 66
        E 80 b1 0b 5d
        E 16 b1 0b 66
        E 0 81 3a 00
        E 0 91 3d 66
        E 80 b1 0b 5d
        E 16 b1 0b 66
        E 0 81 3d 00
        E 0 91 3a 66
        E 80 b1 0b 5d
        E 16 b1 0b 66
        E 0 81 3a 00
        E 0 91 3f 66
        E 80 b1 0b 5d
        E 16 b1 0b 66
        E 0 81 3f 00
        E 0 91 42 66
        E 80 b1 0b 5d
        E 16 b1 0b 66
        E 0 81 42 00
        E 0 91 36 66
        E 80 b1 0b 5d
        E 16 b1 0b 66
        E 0 81 36 00
        E 0 91 3b 66
        E 80 b1 0b 5d
        E 16 b1 0b 66
        E 0 81 3b 00
        E 0 91 3f 66
        E 80 b1 0b 5d
        E 16 b1 0b 66
        E 0 81 3f 00
        E 0 91 42 66
        E 80 b1 0b 5d
        E 16 b1 0b 66
        E 0 81 42 00
        E 0 91 36 66
        E 80 b1 0b 5d
        E 16 b1 0b 66
        E 0 81 36 00
        E 0 91 3b 66
        E 80 b1 0b 5d
        E 16 b1 0b 66
        E 0 81 3b 00
        E 0 91 3f 66
        E 80 b1 0b 5d
        E 16 b1 0b 66
        E 0 81 3f 00
        E 0 91 42 66
        E 80 b1 0b 5d
        E 16 b1 0b 66
        E 0 81 42 00
        E 0 91 36 66
        E 80 b1 0b 5d
        E 16 b1 0b 66
        E 0 81 36 00
        E 0 91 3b 66
        E 80 b1 0b 5d
        E 16 b1 0b 66
        E 0 81 3b 00
        E 0 91 3f 66
        E 80 b1 0b 5d
        E 16 b1 0b 66
        E 0 81 3f 00
        E 0 91 42 66
        E 80 b1 0b 5d
        E 16 b1 0b 66
        E 0 81 42 00
        E 0 91 36 66
        E 80 b1 0b 5d
        E 16 b1 0b 66
        E 0 81 36 00
        E 0 91 3b 66
        E 80 b1 0b 5d
        E 16 b1 0b 66
        E 0 81 3b 00
        E 0 91 40 66
        E 80 b1 0b 5d
        E 16 b1 0b 66
        E 0 81 40 00
        E 0 91 42 66
        E 80 b1 0b 5d
        E 16 b1 0b 66
        E 0 81 42 00
        E 0 91 36 66
        E 80 b1 0b 5d
        E 16 b1 0b 66
        E 0 81 36 00
        E 0 91 3b 66
        E 80 b1 0b 5d
        E 16 b1 0b 66
        E 0 81 3b 00
        E 0 91 3f 66
        E 80 b1 0b 5d
        E 16 b1 0b 66
        E 0 81 3f 00
        E 0 91 42 66
        E 80 b1 0b 5d
        E 16 b1 0b 66
        E 0 81 42 00
        E 0 91 36 66
        E 80 b1 0b 5d
        E 16 b1 0b 66
        E 0 81 36 00
        E 0 91 3b 66
        E 80 b1 0b 5d
        E 16 b1 0b 66
        E 0 81 3b 00
        E 0 91 3f 66
        E 80 b1 0b 5d
        E 16 b1 0b 66
        E 0 81 3f 00
        E 0 91 42 66
        E 80 b1 0b 5d
        E 16 b1 0b 66
        E 0 81 42 00
        E 0 91 36 66
        E 80 b1 0b 5d
        E 16 b1 0b 66
        E 0 81 36 00
        E 0 91 3b 66
        E 80 b1 0b 5d
        E 16 b1 0b 66
        E 0 81 3b 00
        E 0 91 3f 66
        E 80 b1 0b 5d
        E 16 b1 0b 66
        E 0 81 3f 00
        E 0 91 42 66
        E 80 b1 0b 5d
        E 16 b1 0b 66
        E 0 81 42 00
        E 0 91 3b 66
        E 80 b1 0b 5d
        E 16 b1 0b 66
        E 0 81 3b 00
        E 0 91 3f 66
        E 80 b1 0b 5d
        E 16 b1 0b 66
        E 0 81 3f 00
        E 0 91 32 66
        E 80 b1 0b 5d
        E 16 b1 0b 66
        E 0 81 32 00
        E 0 91 36 66
        E 80 b1 0b 5d
        E 16 b1 0b 66
        E 0 81 36 00
        E 0 91 39 66
        E 80 b1 0b 5d
        E 16 b1 0b 66
        E 0 81 39 00
        E 0 91 3e 66
        E 80 b1 0b 5d
        E 16 b1 0b 66
        E 0 81 3e 00
        E 0 91 42 66
        E 80 b1 0b 5d
        E 16 b1 0b 66
        E 0 81 42 00
        E 0 91 3e 66
        E 80 b1 0b 5d
        E 16 b1 0b 66
        E 0 81 3e 00
        E 0 91 39 66
        E 80 b1 0b 5d
        E 16 b1 0b 66
        E 0 81 39 00
        E 0 91 36 66
        E 80 b1 0b 5d
        E 16 b1 0b 66
        E 0 81 36 00
        E 0 91 34 66
        E 80 b1 0b 5d
        E 16 b1 0b 66
        E 0 81 34 00
        E 0 91 38 66
        E 80 b1 0b 5d
        E 16 b1 0b 66
        E 0 81 38 00
        E 0 91 3b 66
        E 80 b1 0b 5d
        E 16 b1 0b 66
        E 0 81 3b 00
        E 0 91 40 66
        E 80 b1 0b 5d
        E 16 b1 0b 66
        E 0 81 40 00
        E 0 91 3b 66
        E 80 b1 0b 5d
        E 16 b1 0b 66
        E 0 81 3b 00
        E 0 91 38 66
        E 80 b1 0b 5d
        E 16 b1 0b 66
        E 0 81 38 00
        E 0 91 36 66
        E 80 b1 0b 5d
        E 16 b1 0b 66
        E 0 81 36 00
        E 0 91 31 66
        E 80 b1 0b 5d
        E 16 b1 0b 66
        E 0 81 31 00
        E 0 91 36 66
        E 80 b1 0b 5d
        E 16 b1 0b 66
        E 0 81 36 00
        E 0 91 3b 66
        E 80 b1 0b 5d
        E 16 b1 0b 66
        E 0 81 3b 00
        E 0 91 3f 66
        E 80 b1 0b 5d
        E 16 b1 0b 66
        E 0 81 3f 00
        E 0 91 3b 66
        E 80 b1 0b 5d
        E 16 b1 0b 66
        E 0 81 3b 00
        E 0 91 36 66
        E 80 b1 0b 5d
        E 16 b1 0b 66
        E 0 81 36 00
        E 0 91 3b 66
        E 80 b1 0b 5d
        E 16 b1 0b 66
        E 0 81 3b 00
        E 0 91 3f 66
        E 80 b1 0b 5d
        E 16 b1 0b 66
        E 0 81 3f 00
        E 0 91 3b 66
        E 80 b1 0b 5d
        E 16 b1 0b 66
        E 0 81 3b 00
        E 0 91 3f 66
        E 80 b1 0b 5d
        E 16 b1 0b 66
        E 0 81 3f 00
        E 0 91 40 66
        E 80 b1 0b 5d
        E 16 b1 0b 66
        E 0 81 40 00
        E 0 91 42 66
        E 80 b1 0b 5d
        E 16 b1 0b 66
        E 0 81 42 00
        E 0 91 44 66
        E 80 b1 0b 5d
        E 16 b1 0b 66
        E 0 81 44 00
        E 0 91 46 66
        E 80 b1 0b 5d
        E 16 b1 0b 66
        E 0 81 46 00
        E 0 91 47 66
        E 80 b1 0b 5d
        E 16 b1 0b 66
        E 0 81 47 00
        E 0 91 49 66
        E 80 b1 0b 5d
        E 16 b1 0b 66
        E 0 81 49 00
        E 0 91 4a 66
        E 80 b1 0b 5d
        E 16 b1 0b 66
        E 0 81 4a 00
        E 0 91 3f 66
        E 80 b1 0b 5d
        E 16 b1 0b 66
        E 0 81 3f 00
        E 0 91 42 66
        E 80 b1 0b 5d
        E 16 b1 0b 66
        E 0 81 42 00
        E 0 91 36 66
        E 80 b1 0b 5d
        E 16 b1 0b 66
        E 0 81 36 00
        E 0 91 3b 66
        E 80 b1 0b 5d
        E 16 b1 0b 66
        E 0 81 3b 00
        E 0 91 3f 66
        E 80 b1 0b 5d
        E 16 b1 0b 66
        E 0 81 3f 00
        E 0 91 42 66
        E 80 b1 0b 5d
        E 16 b1 0b 66
        E 0 81 42 00
        E 0 91 36 66
        E 80 b1 0b 5d
        E 16 b1 0b 66
        E 0 81 36 00
        E 0 91 3b 66
        E 80 b1 0b 5d
        E 16 b1 0b 66
        E 0 81 3b 00
        E 0 91 3f 66
        E 80 b1 0b 5d
        E 16 b1 0b 66
        E 0 81 3f 00
        E 0 91 42 66
        E 80 b1 0b 5d
        E 16 b1 0b 66
        E 0 81 42 00
        E 0 91 36 66
        E 80 b1 0b 5d
        E 16 b1 0b 66
        E 0 81 36 00
        E 0 91 3b 66
        E 80 b1 0b 5d
        E 16 b1 0b 66
        E 0 81 3b 00
        E 0 91 3f 66
        E 80 b1 0b 5d
        E 16 b1 0b 66
        E 0 81 3f 00
        E 0 91 42 66
        E 80 b1 0b 5d
        E 16 b1 0b 66
        E 0 81 42 00
        E 0 91 36 66
        E 80 b1 0b 5d
        E 16 b1 0b 66
        E 0 81 36 00
        E 0 91 3b 66
        E 80 b1 0b 5d
        E 16 b1 0b 66
        E 0 81 3b 00
        E 0 91 40 66
        E 80 b1 0b 5d
        E 16 b1 0b 66
        E 0 81 40 00
        E 0 91 42 66
        E 80 b1 0b 5d
        E 16 b1 0b 66
        E 0 81 42 00
        E 0 91 36 66
        E 80 b1 0b 5d
        E 16 b1 0b 66
        E 0 81 36 00
        E 0 91 3b 66
        E 80 b1 0b 5d
        E 16 b1 0b 66
        E 0 81 3b 00
        E 0 91 3f 66
        E 80 b1 0b 5d
        E 16 b1 0b 66
        E 0 81 3f 00
        E 0 91 42 66
        E 80 b1 0b 5d
        E 16 b1 0b 66
        E 0 81 42 00
        E 0 91 36 66
        E 80 b1 0b 5d
        E 16 b1 0b 66
        E 0 81 36 00
        E 0 91 3b 66
        E 80 b1 0b 5d
        E 16 b1 0b 66
        E 0 81 3b 00
        E 0 91 3f 66
        E 80 b1 0b 5d
        E 16 b1 0b 66
        E 0 81 3f 00
        E 0 91 42 66
        E 80 b1 0b 5d
        E 16 b1 0b 66
        E 0 81 42 00
        E 0 91 36 66
        E 80 b1 0b 5d
        E 16 b1 0b 66
        E 0 81 36 00
        E 0 91 3b 66
        E 80 b1 0b 5d
        E 16 b1 0b 66
        E 0 81 3b 00
        E 0 91 3f 66
        E 80 b1 0b 5d
        E 16 b1 0b 66
        E 0 81 3f 00
        E 0 91 42 66
        E 80 b1 0b 5d
        E 16 b1 0b 66
        E 0 81 42 00
        E 0 91 3b 66
        E 80 b1 0b 5d
        E 16 b1 0b 66
        E 0 81 3b 00
        E 0 91 3f 66
        E 80 b1 0b 5d
        E 16 b1 0b 66
        E 0 81 3f 00
        E 0 91 32 66
        E 80 b1 0b 5d
        E 16 b1 0b 66
        E 0 81 32 00
        E 0 91 36 66
        E 80 b1 0b 5d
        E 16 b1 0b 66
        E 0 81 36 00
        E 0 91 39 66
        E 80 b1 0b 5d
        E 16 b1 0b 66
        E 0 81 39 00
        E 0 91 3e 66
        E 80 b1 0b 5d
        E 16 b1 0b 66
        E 0 81 3e 00
        E 0 91 42 66
        E 80 b1 0b 5d
        E 16 b1 0b 66
        E 0 81 42 00
        E 0 91 3e 66
        E 80 b1 0b 5d
        E 16 b1 0b 66
        E 0 81 3e 00
        E 0 91 39 66
        E 80 b1 0b 5d
        E 16 b1 0b 66
        E 0 81 39 00
        E 0 91 36 66
        E 80 b1 0b 5d
        E 16 b1 0b 66
        E 0 81 36 00
        E 0 91 34 66
        E 80 b1 0b 5d
        E 16 b1 0b 66
        E 0 81 34 00
        E 0 91 38 66
        E 80 b1 0b 5d
        E 16 b1 0b 66
        E 0 81 38 00
        E 0 91 3b 66
        E 80 b1 0b 5d
        E 16 b1 0b 66
        E 0 81 3b 00
        E 0 91 40 66
        E 80 b1 0b 5d
        E 16 b1 0b 66
        E 0 81 40 00
        E 0 91 3b 66
        E 80 b1 0b 5d
        E 16 b1 0b 66
        E 0 81 3b 00
        E 0 91 38 66
        E 80 b1 0b 5d
        E 16 b1 0b 66
        E 0 81 38 00
        E 0 91 36 66
        E 80 b1 0b 5d
        E 16 b1 0b 66
        E 0 81 36 00
        E 0 91 31 66
        E 80 b1 0b 5d
        E 16 b1 0b 66
        E 0 81 31 00
        E 0 91 36 66
        E 80 b1 0b 5d
        E 16 b1 0b 66
        E 0 81 36 00
        E 0 91 3b 66
        E 80 b1 0b 5d
        E 16 b1 0b 66
        E 0 81 3b 00
        E 0 91 3f 66
        E 80 b1 0b 5d
        E 16 b1 0b 66
        E 0 81 3f 00
        E 0 91 3b 66
        E 80 b1 0b 5d
        E 16 b1 0b 66
        E 0 81 3b 00
        E 0 91 36 66
        E 80 b1 0b 5d
        E 16 b1 0b 66
        E 0 81 36 00
        E 0 91 3b 66
        E 80 b1 0b 5d
        E 16 b1 0b 66
        E 0 81 3b 00
        E 0 91 3f 66
        E 80 b1 0b 5d
        E 16 b1 0b 66
        E 0 81 3f 00
        E 0 91 3b 66
        E 80 b1 0b 5d
        E 16 b1 0b 66
        E 0 81 3b 00
        E 0 91 3f 66
        E 80 b1 0b 5d
        E 16 b1 0b 66
        E 0 81 3f 00
        E 0 91 3e 66
        E 80 b1 0b 5d
        E 16 b1 0b 66
        E 0 81 3e 00
        E 0 91 3f 66
        E 80 b1 0b 5d
        E 16 b1 0b 66
        E 0 81 3f 00
        E 0 91 40 66
        E 80 b1 0b 5d
        E 16 b1 0b 66
        E 0 81 40 00
        E 0 91 42 66
        E 80 b1 0b 5d
        E 16 b1 0b 66
        E 0 81 42 00
        E 0 91 44 66
        E 80 b1 0b 5d
        E 16 b1 0b 66
        E 0 81 44 00
        E 0 91 46 66
        E 80 b1 0b 5d
        E 16 b1 0b 66
        E 0 81 46 00
        E 0 91 47 66
        E 80 b1 0b 5d
        E 16 b1 0b 66
        E 0 81 47 00
        E 0 91 37 66
        E 80 b1 0b 5d
        E 16 b1 0b 66
        E 0 81 37 00
        E 0 91 3b 66
        E 80 b1 0b 5d
        E 16 b1 0b 66
        E 0 81 3b 00
        E 0 91 3e 66
        E 80 b1 0b 5d
        E 16 b1 0b 66
        E 0 81 3e 00
        E 0 91 43 66
        E 80 b1 0b 5d
        E 16 b1 0b 66
        E 0 81 43 00
        E 0 91 47 66
        E 80 b1 0b 5d
        E 16 b1 0b 66
        E 0 81 47 00
        E 0 91 4a 66
        E 80 b1 0b 5d
        E 16 b1 0b 66
        E 0 81 4a 00
        E 0 91 47 66
        E 80 b1 0b 5d
        E 16 b1 0b 66
        E 0 81 47 00
        E 0 91 43 66
        E 80 b1 0b 5d
        E 16 b1 0b 66
        E 0 81 43 00
        E 0 91 39 66
        E 80 b1 0b 5d
        E 16 b1 0b 66
        E 0 81 39 00
        E 0 91 3d 66
        E 80 b1 0b 5d
        E 16 b1 0b 66
        E 0 81 3d 00
        E 0 91 40 66
        E 80 b1 0b 5d
        E 16 b1 0b 66
        E 0 81 40 00
        E 0 91 45 66
        E 80 b1 0b 5d
        E 16 b1 0b 66
        E 0 81 45 00
        E 0 91 49 66
        E 80 b1 0b 5d
        E 16 b1 0b 66
        E 0 81 49 00
        E 0 91 4c 66
        E 80 b1 0b 5d
        E 16 b1 0b 66
        E 0 81 4c 00
        E 0 91 49 66
        E 80 b1 0b 5d
        E 16 b1 0b 66
        E 0 81 49 00
        E 0 91 45 66
        E 80 b1 0b 5d
        E 16 b1 0b 66
        E 0 81 45 00
        E 0 91 2f 66
        E 80 b1 0b 5d
        E 16 b1 0b 66
        E 0 81 2f 00
        E 0 91 33 66
        E 80 b1 0b 5d
        E 16 b1 0b 66
        E 0 81 33 00
        E 0 91 36 66
        E 80 b1 0b 5d
        E 16 b1 0b 66
        E 0 81 36 00
        E 0 91 3b 66
        E 80 b1 0b 5d
        E 16 b1 0b 66
        E 0 81 3b 00
        E 0 91 3f 66
        E 80 b1 0b 5d
        E 16 b1 0b 66
        E 0 81 3f 00
        E 0 91 42 66
        E 80 b1 0b 5d
        E 16 b1 0b 66
        E 0 81 42 00
        E 0 91 47 66
        E 80 b1 0b 5d
        E 16 b1 0b 66
        E 0 81 47 00
        E 0 91 4b 66
        E 80 b1 0b 5d
        E 16 b1 0b 66
        E 0 81 4b 00
        E 0 91 47 66
        E 80 b1 0b 5d
        E 16 b1 0b 66
        E 0 81 47 00
        E 0 91 42 66
        E 80 b1 0b 5d
        E 16 b1 0b 66
        E 0 81 42 00
        E 0 91 3f 66
        E 80 b1 0b 5d
        E 16 b1 0b 66
        E 0 81 3f 00
        E 0 91 3b 66
        E 80 b1 0b 5d
        E 16 b1 0b 66
        E 0 81 3b 00
        E 0 91 36 66
        E 80 b1 0b 5d
        E 16 b1 0b 66
        E 0 81 36 00
        E 0 91 33 66
        E 80 b1 0b 5d
        E 16 b1 0b 66
        E 0 81 33 00
        E 0 91 2f 66
        E 80 b1 0b 5d
        E 16 b1 0b 66
        E 0 81 2f 00
        E 0 91 33 66
        E 80 b1 0b 5d
        E 16 b1 0b 66
        E 0 81 33 00
        E 0 91 37 66
        E 80 b1 0b 5d
        E 16 b1 0b 66
        E 0 81 37 00
        E 0 91 3b 66
        E 80 b1 0b 5d
        E 16 b1 0b 66
        E 0 81 3b 00
        E 0 91 3e 66
        E 80 b1 0b 5d
        E 16 b1 0b 66
        E 0 81 3e 00
        E 0 91 43 66
        E 80 b1 0b 5d
        E 16 b1 0b 66
        E 0 81 43 00
        E 0 91 47 66
        E 80 b1 0b 5d
        E 16 b1 0b 66
        E 0 81 47 00
        E 0 91 43 66
        E 80 b1 0b 5d
        E 16 b1 0b 66
        E 0 81 43 00
        E 0 91 40 66
        E 80 b1 0b 5d
        E 16 b1 0b 66
        E 0 81 40 00
        E 0 91 3d 66
        E 80 b1 0b 5d
        E 16 b1 0b 66
        E 0 81 3d 00
        E 0 91 39 66
        E 80 b1 0b 5d
        E 16 b1 0b 66
        E 0 81 39 00
        E 0 91 34 66
        E 80 b1 0b 5d
        E 16 b1 0b 66
        E 0 81 34 00
        E 0 91 39 66
        E 80 b1 0b 5d
        E 16 b1 0b 66
        E 0 81 39 00
        E 0 91 3d 66
        E 80 b1 0b 5d
        E 16 b1 0b 66
        E 0 81 3d 00
        E 0 91 40 66
        E 80 b1 0b 5d
        E 16 b1 0b 66
        E 0 81 40 00
        E 0 91 3d 66
        E 80 b1 0b 5d
        E 16 b1 0b 66
        E 0 81 3d 00
        E 0 91 39 66
        E 80 b1 0b 5d
        E 16 b1 0b 66
        E 0 81 39 00
        E 0 91 3d 66
        E 80 b1 0b 5d
        E 16 b1 0b 66
        E 0 81 3d 00
        E 0 91 3e 66
        E 80 b1 0b 5d
        E 80 b1 0b 55
        E 32 b1 0b 66
        E 0 81 3e 00
        E 0 91 40 66
        E 80 b1 0b 5d
        E 16 b1 0b 66
        E 0 81 40 00
        E 0 91 3e 66
        E 80 b1 0b 5d
        E 16 b1 0b 66
        E 0 81 3e 00
        E 0 91 3b 66
        E 80 b1 0b 5d
        E 80 b1 0b 55
        E 32 b1 0b 66
        E 80 b1 0b 5d
        E 80 b1 0b 55
        E 32 b1 0b 66
        E 0 81 3b 00
        E 0 91 2f 66
        E 80 b1 0b 5d
        E 16 b1 0b 66
        E 0 81 2f 00
        E 0 91 32 66
        E 80 b1 0b 5d
        E 16 b1 0b 66
        E 0 81 32 00
        E 0 91 36 66
        E 80 b1 0b 5d
        E 16 b1 0b 66
        E 0 81 36 00
        E 0 91 3b 66
        E 80 b1 0b 5d
        E 16 b1 0b 66
        E 0 81 3b 00
        E 0 91 3e 66
        E 80 b1 0b 5d
        E 16 b1 0b 66
        E 0 81 3e 00
        E 0 91 3b 66
        E 80 b1 0b 5d
        E 16 b1 0b 66
        E 0 81 3b 00
        E 0 91 36 66
        E 80 b1 0b 5d
        E 16 b1 0b 66
        E 0 81 36 00
        E 0 91 32 66
        E 80 b1 0b 5d
        E 16 b1 0b 66
        E 0 81 32 00
        E 0 91 37 66
        E 80 b1 0b 5d
        E 16 b1 0b 66
        E 0 81 37 00
        E 0 91 3b 66
        E 80 b1 0b 5d
        E 16 b1 0b 66
        E 0 81 3b 00
        E 0 91 3e 66
        E 80 b1 0b 5d
        E 16 b1 0b 66
        E 0 81 3e 00
        E 0 91 43 66
        E 80 b1 0b 5d
        E 16 b1 0b 66
        E 0 81 43 00
        E 0 91 47 66
        E 80 b1 0b 5d
        E 16 b1 0b 66
        E 0 81 47 00
        E 0 91 4a 66
        E 80 b1 0b 5d
        E 16 b1 0b 66
        E 0 81 4a 00
        E 0 91 47 66
        E 80 b1 0b 5d
        E 16 b1 0b 66
        E 0 81 47 00
        E 0 91 43 66
        E 80 b1 0b 5d
        E 16 b1 0b 66
        E 0 81 43 00
        E 0 91 39 66
        E 80 b1 0b 5d
        E 16 b1 0b 66
        E 0 81 39 00
        E 0 91 3d 66
        E 80 b1 0b 5d
        E 16 b1 0b 66
        E 0 81 3d 00
        E 0 91 40 66
        E 80 b1 0b 5d
        E 16 b1 0b 66
        E 0 81 40 00
        E 0 91 45 66
        E 80 b1 0b 5d
        E 16 b1 0b 66
        E 0 81 45 00
        E 0 91 49 66
        E 80 b1 0b 5d
        E 16 b1 0b 66
        E 0 81 49 00
        E 0 91 4c 66
        E 80 b1 0b 5d
        E 16 b1 0b 66
        E 0 81 4c 00
        E 0 91 49 66
        E 80 b1 0b 5d
        E 16 b1 0b 66
        E 0 81 49 00
        E 0 91 45 66
        E 80 b1 0b 5d
        E 16 b1 0b 66
        E 0 81 45 00
        E 0 91 2f 66
        E 80 b1 0b 5d
        E 16 b1 0b 66
        E 0 81 2f 00
        E 0 91 33 66
        E 80 b1 0b 5d
        E 16 b1 0b 66
        E 0 81 33 00
        E 0 91 36 66
        E 80 b1 0b 5d
        E 16 b1 0b 66
        E 0 81 36 00
        E 0 91 3b 66
        E 80 b1 0b 5d
        E 16 b1 0b 66
        E 0 81 3b 00
        E 0 91 3f 66
        E 80 b1 0b 5d
        E 16 b1 0b 66
        E 0 81 3f 00
        E 0 91 42 66
        E 80 b1 0b 5d
        E 16 b1 0b 66
        E 0 81 42 00
        E 0 91 47 66
        E 80 b1 0b 5d
        E 16 b1 0b 66
        E 0 81 47 00
        E 0 91 4b 66
        E 80 b1 0b 5d
        E 16 b1 0b 66
        E 0 81 4b 00
        E 0 91 47 66
        E 80 b1 0b 5d
        E 16 b1 0b 66
        E 0 81 47 00
        E 0 91 42 66
        E 80 b1 0b 5d
        E 16 b1 0b 66
        E 0 81 42 00
        E 0 91 3f 66
        E 80 b1 0b 5d
        E 16 b1 0b 66
        E 0 81 3f 00
        E 0 91 3b 66
        E 80 b1 0b 5d
        E 16 b1 0b 66
        E 0 81 3b 00
        E 0 91 36 66
        E 80 b1 0b 5d
        E 16 b1 0b 66
        E 0 81 36 00
        E 0 91 33 66
        E 80 b1 0b 5d
        E 16 b1 0b 66
        E 0 81 33 00
        E 0 91 2f 66
        E 80 b1 0b 5d
        E 16 b1 0b 66
        E 0 81 2f 00
        E 0 91 33 66
        E 80 b1 0b 5d
        E 16 b1 0b 66
        E 0 81 33 00
        E 0 91 37 66
        E 80 b1 0b 5d
        E 16 b1 0b 66
        E 0 81 37 00
        E 0 91 3b 66
        E 80 b1 0b 5d
        E 16 b1 0b 66
        E 0 81 3b 00
        E 0 91 3e 66
        E 80 b1 0b 5d
        E 16 b1 0b 66
        E 0 81 3e 00
        E 0 91 43 66
        E 80 b1 0b 5d
        E 16 b1 0b 66
        E 0 81 43 00
        E 0 91 47 66
        E 80 b1 0b 5d
        E 16 b1 0b 66
        E 0 81 47 00
        E 0 91 43 66
        E 80 b1 0b 5d
        E 16 b1 0b 66
        E 0 81 43 00
        E 0 91 40 66
        E 80 b1 0b 5d
        E 16 b1 0b 66
        E 0 81 40 00
        E 0 91 3d 66
        E 80 b1 0b 5d
        E 16 b1 0b 66
        E 0 81 3d 00
        E 0 91 39 66
        E 80 b1 0b 5d
        E 16 b1 0b 66
        E 0 81 39 00
        E 0 91 34 66
        E 80 b1 0b 5d
        E 16 b1 0b 66
        E 0 81 34 00
        E 0 91 39 66
        E 80 b1 0b 5d
        E 16 b1 0b 66
        E 0 81 39 00
        E 0 91 3d 66
        E 80 b1 0b 5d
        E 16 b1 0b 66
        E 0 81 3d 00
        E 0 91 40 66
        E 80 b1 0b 5d
        E 16 b1 0b 66
        E 0 81 40 00
        E 0 91 3d 66
        E 80 b1 0b 5d
        E 16 b1 0b 66
        E 0 81 3d 00
        E 0 91 39 66
        E 80 b1 0b 5d
        E 16 b1 0b 66
        E 0 81 39 00
        E 0 91 3d 66
        E 80 b1 0b 5d
        E 16 b1 0b 66
        E 0 81 3d 00
        E 0 91 3e 66
        E 80 b1 0b 5d
        E 16 b1 0b 66
        E 0 81 3e 00
        E 0 91 43 66
        E 80 b1 0b 5d
        E 16 b1 0b 66
        E 0 81 43 00
        E 0 91 47 66
        E 80 b1 0b 5d
        E 16 b1 0b 66
        E 0 81 47 00
        E 0 91 43 66
        E 80 b1 0b 5d
        E 16 b1 0b 66
        E 0 81 43 00
        E 0 91 3e 66
        E 80 b1 0b 5d
        E 16 b1 0b 66
        E 0 81 3e 00
        E 0 91 43 66
        E 80 b1 0b 5d
        E 16 b1 0b 66
        E 0 81 43 00
        E 0 91 45 66
        E 80 b1 0b 5d
        E 80 b1 0b 55
        E 80 b1 0b 4c
        E 96 b1 0b 44
        E 48 b1 0b 66
        E 0 81 45 00
        E 0 91 40 66
        E 80 b1 0b 5d
        E 80 b1 0b 55
        E 32 b1 0b 66
        E 0 81 40 00
        E 0 91 42 66
        E 80 b1 0b 5d
        E 80 b1 0b 55
        E 32 b1 0b 66
        E 0 81 42 00
        E 0 91 3f 66
        E 80 b1 0b 5d
        E 80 b1 0b 55
        E 80 b1 0b 4c
        E 48 b1 0b 66
        E 0 81 3f 00
        E 0 91 3b 66
        E 80 b1 0b 5d
        E 16 b1 0b 66
        E 0 81 3b 00
        E 0 91 36 66
        E 80 b1 0b 5d
        E 16 b1 0b 66
        E 0 81 36 00
        E 0 91 3b 66
        E 80 b1 0b 5d
        E 16 b1 0b 66
        E 0 81 3b 00
        E 0 91 33 66
        E 80 b1 0b 5d
        E 16 b1 0b 66
        E 0 81 33 00
        E 0 91 36 66
        E 80 b1 0b 5d
        E 16 b1 0b 66
        E 0 81 36 00
        E 0 91 2f 66
        E 80 b1 0b 5d
        E 16 b1 0b 66
        E 0 81 2f 00
        E 0 91 33 66
        E 80 b1 0b 5d
        E 16 b1 0b 66
        E 0 81 33 00
        E 0 91 3f 66
        E 80 b1 0b 5d
        E 16 b1 0b 66
        E 0 81 3f 00
        E 0 91 3b 66
        E 80 b1 0b 5d
        E 16 b1 0b 66
        E 0 81 3b 00
        E 0 91 36 66
        E 80 b1 0b 5d
        E 16 b1 0b 66
        E 0 81 36 00
        E 0 91 3b 66
        E 80 b1 0b 5d
        E 16 b1 0b 66
        E 0 81 3b 00
        E 0 91 33 66
        E 80 b1 0b 5d
        E 16 b1 0b 66
        E 0 81 33 00
        E 0 91 36 66
        E 80 b1 0b 5d
        E 16 b1 0b 66
        E 0 81 36 00
        E 0 91 2f 66
        E 80 b1 0b 5d
        E 16 b1 0b 66
        E 0 81 2f 00
        E 0 91 33 66
        E 80 b1 0b 5d
        E 16 b1 0b 66
        E 0 81 33 00
        E 0 91 3d 66
        E 80 b1 0b 5d
        E 16 b1 0b 66
        E 0 81 3d 00
        E 0 91 39 66
        E 80 b1 0b 5d
        E 16 b1 0b 66
        E 0 81 39 00
        E 0 91 34 66
        E 80 b1 0b 5d
        E 16 b1 0b 66
        E 0 81 34 00
        E 0 91 39 66
        E 80 b1 0b 5d
        E 16 b1 0b 66
        E 0 81 39 00
        E 0 91 31 66
        E 80 b1 0b 5d
        E 16 b1 0b 66
        E 0 81 31 00
        E 0 91 34 66
        E 80 b1 0b 5d
        E 16 b1 0b 66
        E 0 81 34 00
        E 0 91 2d 66
        E 80 b1 0b 5d
        E 16 b1 0b 66
        E 0 81 2d 00
        E 0 91 31 66
        E 80 b1 0b 5d
        E 16 b1 0b 66
        E 0 81 31 00
        E 0 91 3d 66
        E 80 b1 0b 5d
        E 16 b1 0b 66
        E 0 81 3d 00
        E 0 91 39 66
        E 80 b1 0b 5d
        E 16 b1 0b 66
        E 0 81 39 00
        E 0 91 34 66
        E 80 b1 0b 5d
        E 16 b1 0b 66
        E 0 81 34 00
        E 0 91 39 66
        E 80 b1 0b 5d
        E 16 b1 0b 66
        E 0 81 39 00
        E 0 91 31 66
        E 80 b1 0b 5d
        E 16 b1 0b 66
        E 0 81 31 00
        E 0 91 34 66
        E 80 b1 0b 5d
        E 16 b1 0b 66
        E 0 81 34 00
        E 0 91 2d 66
        E 80 b1 0b 5d
        E 16 b1 0b 66
        E 0 81 2d 00
        E 0 91 31 66
        E 80 b1 0b 5d
        E 16 b1 0b 66
        E 0 81 31 00
        E 0 91 3b 66
        E 80 b1 0b 5d
        E 16 b1 0b 66
        E 0 81 3b 00
        E 0 91 37 66
        E 80 b1 0b 5d
        E 16 b1 0b 66
        E 0 81 37 00
        E 0 91 32 66
        E 80 b1 0b 5d
        E 16 b1 0b 66
        E 0 81 32 00
        E 0 91 37 66
        E 80 b1 0b 5d
        E 16 b1 0b 66
        E 0 81 37 00
        E 0 91 2f 66
        E 80 b1 0b 5d
        E 16 b1 0b 66
        E 0 81 2f 00
        E 0 91 32 66
        E 80 b1 0b 5d
        E 16 b1 0b 66
        E 0 81 32 00
        E 0 91 2b 66
        E 80 b1 0b 5d
        E 16 b1 0b 66
        E 0 81 2b 00
        E 0 91 2f 66
        E 80 b1 0b 5d
        E 16 b1 0b 66
        E 0 81 2f 00
        E 0 91 3e 66
        E 80 b1 0b 5d
        E 16 b1 0b 66
        E 0 81 3e 00
        E 0 91 3b 66
        E 80 b1 0b 5d
        E 16 b1 0b 66
        E 0 81 3b 00
        E 0 91 37 66
        E 80 b1 0b 5d
        E 16 b1 0b 66
        E 0 81 37 00
        E 0 91 3b 66
        E 80 b1 0b 5d
        E 16 b1 0b 66
        E 0 81 3b 00
        E 0 91 32 66
        E 80 b1 0b 5d
        E 16 b1 0b 66
        E 0 81 32 00
        E 0 91 37 66
        E 80 b1 0b 5d
        E 16 b1 0b 66
        E 0 81 37 00
        E 0 91 32 66
        E 80 b1 0b 5d
        E 80 b1 0b 55
        E 80 b1 0b 4c
        E 96 b1 0b 44
        E 80 b1 0b 3b
        E 80 b1 0b 33
        E 96 b1 0b 2a
        E 80 b1 0b 22
        E 80 b1 0b 19
        E 96 b1 0b 11
        E 80 b1 0b 08
        E 80 81 32 00
        E 34160 b1 7b 00
        E 0 ff 2f 00
      >
    >
  >
  <TRACK {072A4995-74F2-444E-8CDA-D0B2D0AD2DEE}
    NAME "NES - Triangle [ch2]"
    PEAKCOL 16744192
    BEAT -1
    AUTOMODE 0
    PANLAWFLAGS 3
    VOLPAN 1 0 -1 -1 1
    MUTESOLO 0 0 0
    IPHASE 0
    PLAYOFFS 0 1
    ISBUS 0 0
    BUSCOMP 0 0 0 0 0
    SHOWINMIX 1 0.6667 0.5 1 0.5 0 0 0
    FIXEDLANES 9 0 0 0 0
    SEL 0
    REC 0 5088 1 0 0 0 0 0
    VU 2
    TRACKHEIGHT 0 0 0 0 0 0 0
    INQ 0 0 0 0.5 100 0 0 100
    NCHAN 2
    FX 1
    TRACKID {072A4995-74F2-444E-8CDA-D0B2D0AD2DEE}
    PERF 0
    MIDIOUT -1
    MAINSEND 1 0
    <FXCHAIN
      WNDRECT 24 52 700 560
      SHOW 0
      LASTSEL 0
      DOCKED 0
      BYPASS 0 0 0
      <JS "ReapNES Studio/ReapNES_Console.jsfx" ""
        2 15 1 10 80 10 100 2 1 15 1 5 60 10 80 1 1 0 50 0 0 15 1 0 100 0 0 0.500000 0.500000 0.400000 0.300000 0.800000 2 1 0 0 0 0 - - - - - - - - - - - - - - - - - - - - - - - - - -
      >
      FLOATPOS 0 0 0 0
      FXID {4C27B765-5E28-47A8-9DEB-F56ABCA05DC5}
      WAK 0 0
    >
    <ITEM
      POSITION 0
      LENGTH 74.5878716
      LOOP 0
      ALLTAKES 0
      FADEIN 0 0 0 0 0 0 0
      FADEOUT 0 0 0 0 0 0 0
      MUTE 0 0
      SEL 0
      IGUID {115C5A19-7021-45F3-B60F-E7CF9C1D44C3}
      <SOURCE MIDI
        HASDATA 1 480 QN
        CCINTERP 32
        E 0 c2 26
        E 0 b2 0b 7f
        E 0 92 42 7f
        E 80 82 42 00
        E 16 b2 0b 7f
        E 0 92 44 7f
        E 80 82 44 00
        E 16 b2 0b 7f
        E 0 92 46 7f
        E 80 82 46 00
        E 16 b2 0b 7f
        E 0 92 2f 7f
        E 80 82 2f 00
        E 16 b2 0b 7f
        E 0 92 2f 7f
        E 80 82 2f 00
        E 16 b2 0b 7f
        E 0 92 2f 7f
        E 80 82 2f 00
        E 16 b2 0b 7f
        E 0 92 2f 7f
        E 80 82 2f 00
        E 16 b2 0b 7f
        E 0 92 2f 7f
        E 80 82 2f 00
        E 112 b2 0b 7f
        E 0 92 2f 7f
        E 80 82 2f 00
        E 16 b2 0b 7f
        E 0 92 2f 7f
        E 80 82 2f 00
        E 16 b2 0b 7f
        E 0 92 2f 7f
        E 80 82 2f 00
        E 16 b2 0b 7f
        E 0 92 2f 7f
        E 80 82 2f 00
        E 16 b2 0b 7f
        E 0 92 2f 7f
        E 80 82 2f 00
        E 16 b2 0b 7f
        E 0 92 2f 7f
        E 80 82 2f 00
        E 16 b2 0b 7f
        E 0 92 2f 7f
        E 80 82 2f 00
        E 112 b2 0b 7f
        E 0 92 2f 7f
        E 80 82 2f 00
        E 16 b2 0b 7f
        E 0 92 2f 7f
        E 80 82 2f 00
        E 16 b2 0b 7f
        E 0 92 2f 7f
        E 80 82 2f 00
        E 16 b2 0b 7f
        E 0 92 2f 7f
        E 80 82 2f 00
        E 16 b2 0b 7f
        E 0 92 2f 7f
        E 80 82 2f 00
        E 16 b2 0b 7f
        E 0 92 2f 7f
        E 80 82 2f 00
        E 16 b2 0b 7f
        E 0 92 2f 7f
        E 80 82 2f 00
        E 112 b2 0b 7f
        E 0 92 2f 7f
        E 80 82 2f 00
        E 16 b2 0b 7f
        E 0 92 2f 7f
        E 80 82 2f 00
        E 16 b2 0b 7f
        E 0 92 2f 7f
        E 80 82 2f 00
        E 16 b2 0b 7f
        E 0 92 2f 7f
        E 80 82 2f 00
        E 16 b2 0b 7f
        E 0 92 2f 7f
        E 80 82 2f 00
        E 16 b2 0b 7f
        E 0 92 2f 7f
        E 80 82 2f 00
        E 16 b2 0b 7f
        E 0 92 2f 7f
        E 80 82 2f 00
        E 112 b2 0b 7f
        E 0 92 2f 7f
        E 80 82 2f 00
        E 16 b2 0b 7f
        E 0 92 2f 7f
        E 80 82 2f 00
        E 16 b2 0b 7f
        E 0 92 2f 7f
        E 80 82 2f 00
        E 16 b2 0b 7f
        E 0 92 2f 7f
        E 80 82 2f 00
        E 16 b2 0b 7f
        E 0 92 2f 7f
        E 80 82 2f 00
        E 16 b2 0b 7f
        E 0 92 2f 7f
        E 80 82 2f 00
        E 16 b2 0b 7f
        E 0 92 2f 7f
        E 80 82 2f 00
        E 112 b2 0b 7f
        E 0 92 2f 7f
        E 80 82 2f 00
        E 16 b2 0b 7f
        E 0 92 2f 7f
        E 80 82 2f 00
        E 16 b2 0b 7f
        E 0 92 2f 7f
        E 80 82 2f 00
        E 16 b2 0b 7f
        E 0 92 2f 7f
        E 80 82 2f 00
        E 16 b2 0b 7f
        E 0 92 2f 7f
        E 80 82 2f 00
        E 16 b2 0b 7f
        E 0 92 2f 7f
        E 80 82 2f 00
        E 16 b2 0b 7f
        E 0 92 2f 7f
        E 80 82 2f 00
        E 112 b2 0b 7f
        E 0 92 2f 7f
        E 80 82 2f 00
        E 16 b2 0b 7f
        E 0 92 2f 7f
        E 80 82 2f 00
        E 16 b2 0b 7f
        E 0 92 2b 7f
        E 80 82 2b 00
        E 16 b2 0b 7f
        E 0 92 2b 7f
        E 80 82 2b 00
        E 16 b2 0b 7f
        E 0 92 37 7f
        E 80 82 37 00
        E 16 b2 0b 7f
        E 0 92 37 7f
        E 80 82 37 00
        E 16 b2 0b 7f
        E 0 92 2b 7f
        E 80 82 2b 00
        E 16 b2 0b 7f
        E 0 92 2b 7f
        E 80 82 2b 00
        E 16 b2 0b 7f
        E 0 92 2a 7f
        E 80 82 2a 00
        E 304 b2 0b 7f
        E 0 92 36 7f
        E 80 82 36 00
        E 16 b2 0b 7f
        E 0 92 36 7f
        E 80 82 36 00
        E 16 b2 0b 7f
        E 0 92 2a 7f
        E 80 82 2a 00
        E 16 b2 0b 7f
        E 0 92 2a 7f
        E 80 82 2a 00
        E 16 b2 0b 7f
        E 0 92 2a 7f
        E 80 82 2a 00
        E 16 b2 0b 7f
        E 0 92 2a 7f
        E 80 82 2a 00
        E 16 b2 0b 7f
        E 0 92 2f 7f
        E 80 82 2f 00
        E 16 b2 0b 7f
        E 0 92 2f 7f
        E 80 82 2f 00
        E 16 b2 0b 7f
        E 0 92 2f 7f
        E 80 82 2f 00
        E 16 b2 0b 7f
        E 0 92 2f 7f
        E 80 82 2f 00
        E 16 b2 0b 7f
        E 0 92 2f 7f
        E 80 82 2f 00
        E 112 b2 0b 7f
        E 0 92 2f 7f
        E 80 82 2f 00
        E 16 b2 0b 7f
        E 0 92 2f 7f
        E 80 82 2f 00
        E 16 b2 0b 7f
        E 0 92 2f 7f
        E 80 82 2f 00
        E 16 b2 0b 7f
        E 0 92 2f 7f
        E 80 82 2f 00
        E 16 b2 0b 7f
        E 0 92 2f 7f
        E 80 82 2f 00
        E 16 b2 0b 7f
        E 0 92 2f 7f
        E 80 82 2f 00
        E 16 b2 0b 7f
        E 0 92 2f 7f
        E 80 82 2f 00
        E 112 b2 0b 7f
        E 0 92 2f 7f
        E 80 82 2f 00
        E 16 b2 0b 7f
        E 0 92 2f 7f
        E 80 82 2f 00
        E 16 b2 0b 7f
        E 0 92 2f 7f
        E 80 82 2f 00
        E 16 b2 0b 7f
        E 0 92 2f 7f
        E 80 82 2f 00
        E 16 b2 0b 7f
        E 0 92 2f 7f
        E 80 82 2f 00
        E 16 b2 0b 7f
        E 0 92 2f 7f
        E 80 82 2f 00
        E 16 b2 0b 7f
        E 0 92 2f 7f
        E 80 82 2f 00
        E 112 b2 0b 7f
        E 0 92 2f 7f
        E 80 82 2f 00
        E 16 b2 0b 7f
        E 0 92 2f 7f
        E 80 82 2f 00
        E 16 b2 0b 7f
        E 0 92 2f 7f
        E 80 82 2f 00
        E 16 b2 0b 7f
        E 0 92 2f 7f
        E 80 82 2f 00
        E 16 b2 0b 7f
        E 0 92 2f 7f
        E 80 82 2f 00
        E 16 b2 0b 7f
        E 0 92 2f 7f
        E 80 82 2f 00
        E 16 b2 0b 7f
        E 0 92 2f 7f
        E 80 82 2f 00
        E 112 b2 0b 7f
        E 0 92 2f 7f
        E 80 82 2f 00
        E 16 b2 0b 7f
        E 0 92 2f 7f
        E 80 82 2f 00
        E 16 b2 0b 7f
        E 0 92 2f 7f
        E 80 82 2f 00
        E 16 b2 0b 7f
        E 0 92 2f 7f
        E 80 82 2f 00
        E 16 b2 0b 7f
        E 0 92 2f 7f
        E 80 82 2f 00
        E 16 b2 0b 7f
        E 0 92 2f 7f
        E 80 82 2f 00
        E 16 b2 0b 7f
        E 0 92 2f 7f
        E 80 82 2f 00
        E 112 b2 0b 7f
        E 0 92 2f 7f
        E 80 82 2f 00
        E 16 b2 0b 7f
        E 0 92 2f 7f
        E 80 82 2f 00
        E 16 b2 0b 7f
        E 0 92 2f 7f
        E 80 82 2f 00
        E 16 b2 0b 7f
        E 0 92 2f 7f
        E 80 82 2f 00
        E 16 b2 0b 7f
        E 0 92 2f 7f
        E 80 82 2f 00
        E 16 b2 0b 7f
        E 0 92 2f 7f
        E 80 82 2f 00
        E 16 b2 0b 7f
        E 0 92 2f 7f
        E 80 82 2f 00
        E 112 b2 0b 7f
        E 0 92 2f 7f
        E 80 82 2f 00
        E 16 b2 0b 7f
        E 0 92 2f 7f
        E 80 82 2f 00
        E 16 b2 0b 7f
        E 0 92 2b 7f
        E 80 82 2b 00
        E 16 b2 0b 7f
        E 0 92 2b 7f
        E 80 82 2b 00
        E 16 b2 0b 7f
        E 0 92 37 7f
        E 80 82 37 00
        E 16 b2 0b 7f
        E 0 92 37 7f
        E 80 82 37 00
        E 16 b2 0b 7f
        E 0 92 2b 7f
        E 80 82 2b 00
        E 16 b2 0b 7f
        E 0 92 2b 7f
        E 80 82 2b 00
        E 16 b2 0b 7f
        E 0 92 2a 7f
        E 80 82 2a 00
        E 304 b2 0b 7f
        E 0 92 36 7f
        E 80 82 36 00
        E 16 b2 0b 7f
        E 0 92 36 7f
        E 80 82 36 00
        E 16 b2 0b 7f
        E 0 92 2a 7f
        E 80 82 2a 00
        E 16 b2 0b 7f
        E 0 92 2a 7f
        E 80 82 2a 00
        E 16 b2 0b 7f
        E 0 92 2a 7f
        E 80 82 2a 00
        E 16 b2 0b 7f
        E 0 92 2a 7f
        E 80 82 2a 00
        E 16 b2 0b 7f
        E 0 92 2f 7f
        E 80 82 2f 00
        E 16 b2 0b 7f
        E 0 92 2f 7f
        E 80 82 2f 00
        E 16 b2 0b 7f
        E 0 92 2f 7f
        E 80 82 2f 00
        E 16 b2 0b 7f
        E 0 92 2f 7f
        E 80 82 2f 00
        E 16 b2 0b 7f
        E 0 92 2f 7f
        E 80 82 2f 00
        E 112 b2 0b 7f
        E 0 92 2f 7f
        E 80 82 2f 00
        E 16 b2 0b 7f
        E 0 92 2f 7f
        E 80 82 2f 00
        E 16 b2 0b 7f
        E 0 92 2f 7f
        E 80 82 2f 00
        E 16 b2 0b 7f
        E 0 92 2f 7f
        E 80 82 2f 00
        E 16 b2 0b 7f
        E 0 92 2f 7f
        E 80 82 2f 00
        E 16 b2 0b 7f
        E 0 92 2f 7f
        E 80 82 2f 00
        E 16 b2 0b 7f
        E 0 92 2f 7f
        E 80 82 2f 00
        E 112 b2 0b 7f
        E 0 92 2f 7f
        E 80 82 2f 00
        E 16 b2 0b 7f
        E 0 92 2f 7f
        E 80 82 2f 00
        E 16 b2 0b 7f
        E 0 92 2f 7f
        E 80 82 2f 00
        E 16 b2 0b 7f
        E 0 92 2f 7f
        E 80 82 2f 00
        E 16 b2 0b 7f
        E 0 92 2f 7f
        E 80 82 2f 00
        E 16 b2 0b 7f
        E 0 92 2f 7f
        E 80 82 2f 00
        E 16 b2 0b 7f
        E 0 92 2f 7f
        E 80 82 2f 00
        E 112 b2 0b 7f
        E 0 92 2f 7f
        E 80 82 2f 00
        E 16 b2 0b 7f
        E 0 92 2f 7f
        E 80 82 2f 00
        E 16 b2 0b 7f
        E 0 92 2f 7f
        E 80 82 2f 00
        E 16 b2 0b 7f
        E 0 92 2f 7f
        E 80 82 2f 00
        E 16 b2 0b 7f
        E 0 92 2f 7f
        E 80 82 2f 00
        E 16 b2 0b 7f
        E 0 92 2f 7f
        E 80 82 2f 00
        E 16 b2 0b 7f
        E 0 92 2f 7f
        E 80 82 2f 00
        E 112 b2 0b 7f
        E 0 92 2f 7f
        E 80 82 2f 00
        E 16 b2 0b 7f
        E 0 92 2f 7f
        E 80 82 2f 00
        E 16 b2 0b 7f
        E 0 92 32 7f
        E 80 82 32 00
        E 16 b2 0b 7f
        E 0 92 32 7f
        E 80 82 32 00
        E 16 b2 0b 7f
        E 0 92 32 7f
        E 80 82 32 00
        E 16 b2 0b 7f
        E 0 92 32 7f
        E 80 82 32 00
        E 16 b2 0b 7f
        E 0 92 32 7f
        E 80 82 32 00
        E 112 b2 0b 7f
        E 0 92 32 7f
        E 80 82 32 00
        E 16 b2 0b 7f
        E 0 92 32 7f
        E 80 82 32 00
        E 16 b2 0b 7f
        E 0 92 34 7f
        E 80 82 34 00
        E 16 b2 0b 7f
        E 0 92 34 7f
        E 80 82 34 00
        E 16 b2 0b 7f
        E 0 92 34 7f
        E 80 82 34 00
        E 16 b2 0b 7f
        E 0 92 34 7f
        E 80 82 34 00
        E 16 b2 0b 7f
        E 0 92 34 7f
        E 80 82 34 00
        E 112 b2 0b 7f
        E 0 92 34 7f
        E 80 82 34 00
        E 16 b2 0b 7f
        E 0 92 34 7f
        E 80 82 34 00
        E 16 b2 0b 7f
        E 0 92 2f 7f
        E 80 82 2f 00
        E 16 b2 0b 7f
        E 0 92 2f 7f
        E 80 82 2f 00
        E 16 b2 0b 7f
        E 0 92 2f 7f
        E 80 82 2f 00
        E 16 b2 0b 7f
        E 0 92 2f 7f
        E 80 82 2f 00
        E 16 b2 0b 7f
        E 0 92 2f 7f
        E 80 82 2f 00
        E 112 b2 0b 7f
        E 0 92 2f 7f
        E 80 82 2f 00
        E 16 b2 0b 7f
        E 0 92 2f 7f
        E 80 82 2f 00
        E 16 b2 0b 7f
        E 0 92 2f 7f
        E 80 82 2f 00
        E 16 b2 0b 7f
        E 0 92 2f 7f
        E 80 82 2f 00
        E 16 b2 0b 7f
        E 0 92 2f 7f
        E 80 82 2f 00
        E 16 b2 0b 7f
        E 0 92 2f 7f
        E 80 82 2f 00
        E 16 b2 0b 7f
        E 0 92 2f 7f
        E 80 82 2f 00
        E 112 b2 0b 7f
        E 0 92 2f 7f
        E 80 82 2f 00
        E 16 b2 0b 7f
        E 0 92 2f 7f
        E 80 82 2f 00
        E 16 b2 0b 7f
        E 0 92 2f 7f
        E 80 82 2f 00
        E 16 b2 0b 7f
        E 0 92 2f 7f
        E 80 82 2f 00
        E 16 b2 0b 7f
        E 0 92 2f 7f
        E 80 82 2f 00
        E 16 b2 0b 7f
        E 0 92 2f 7f
        E 80 82 2f 00
        E 16 b2 0b 7f
        E 0 92 2f 7f
        E 80 82 2f 00
        E 112 b2 0b 7f
        E 0 92 2f 7f
        E 80 82 2f 00
        E 16 b2 0b 7f
        E 0 92 2f 7f
        E 80 82 2f 00
        E 16 b2 0b 7f
        E 0 92 2f 7f
        E 80 82 2f 00
        E 16 b2 0b 7f
        E 0 92 2f 7f
        E 80 82 2f 00
        E 16 b2 0b 7f
        E 0 92 2f 7f
        E 80 82 2f 00
        E 16 b2 0b 7f
        E 0 92 2f 7f
        E 80 82 2f 00
        E 16 b2 0b 7f
        E 0 92 2f 7f
        E 80 82 2f 00
        E 112 b2 0b 7f
        E 0 92 2f 7f
        E 80 82 2f 00
        E 16 b2 0b 7f
        E 0 92 2f 7f
        E 80 82 2f 00
        E 16 b2 0b 7f
        E 0 92 2f 7f
        E 80 82 2f 00
        E 16 b2 0b 7f
        E 0 92 2f 7f
        E 80 82 2f 00
        E 16 b2 0b 7f
        E 0 92 2f 7f
        E 80 82 2f 00
        E 16 b2 0b 7f
        E 0 92 2f 7f
        E 80 82 2f 00
        E 16 b2 0b 7f
        E 0 92 2f 7f
        E 80 82 2f 00
        E 112 b2 0b 7f
        E 0 92 2f 7f
        E 80 82 2f 00
        E 16 b2 0b 7f
        E 0 92 2f 7f
        E 80 82 2f 00
        E 16 b2 0b 7f
        E 0 92 2f 7f
        E 80 82 2f 00
        E 16 b2 0b 7f
        E 0 92 2f 7f
        E 80 82 2f 00
        E 16 b2 0b 7f
        E 0 92 2f 7f
        E 80 82 2f 00
        E 16 b2 0b 7f
        E 0 92 2f 7f
        E 80 82 2f 00
        E 16 b2 0b 7f
        E 0 92 2f 7f
        E 80 82 2f 00
        E 112 b2 0b 7f
        E 0 92 2f 7f
        E 80 82 2f 00
        E 16 b2 0b 7f
        E 0 92 2f 7f
        E 80 82 2f 00
        E 16 b2 0b 7f
        E 0 92 32 7f
        E 80 82 32 00
        E 16 b2 0b 7f
        E 0 92 32 7f
        E 80 82 32 00
        E 16 b2 0b 7f
        E 0 92 32 7f
        E 80 82 32 00
        E 16 b2 0b 7f
        E 0 92 32 7f
        E 80 82 32 00
        E 16 b2 0b 7f
        E 0 92 32 7f
        E 80 82 32 00
        E 112 b2 0b 7f
        E 0 92 32 7f
        E 80 82 32 00
        E 16 b2 0b 7f
        E 0 92 32 7f
        E 80 82 32 00
        E 16 b2 0b 7f
        E 0 92 34 7f
        E 80 82 34 00
        E 16 b2 0b 7f
        E 0 92 34 7f
        E 80 82 34 00
        E 16 b2 0b 7f
        E 0 92 34 7f
        E 80 82 34 00
        E 16 b2 0b 7f
        E 0 92 34 7f
        E 80 82 34 00
        E 16 b2 0b 7f
        E 0 92 34 7f
        E 80 82 34 00
        E 112 b2 0b 7f
        E 0 92 34 7f
        E 80 82 34 00
        E 16 b2 0b 7f
        E 0 92 34 7f
        E 80 82 34 00
        E 16 b2 0b 7f
        E 0 92 2f 7f
        E 80 82 2f 00
        E 16 b2 0b 7f
        E 0 92 2f 7f
        E 80 82 2f 00
        E 16 b2 0b 7f
        E 0 92 2f 7f
        E 80 82 2f 00
        E 16 b2 0b 7f
        E 0 92 2f 7f
        E 80 82 2f 00
        E 16 b2 0b 7f
        E 0 92 2f 7f
        E 80 82 2f 00
        E 112 b2 0b 7f
        E 0 92 2f 7f
        E 80 82 2f 00
        E 16 b2 0b 7f
        E 0 92 2f 7f
        E 80 82 2f 00
        E 16 b2 0b 7f
        E 0 92 2f 7f
        E 80 82 2f 00
        E 16 b2 0b 7f
        E 0 92 2f 7f
        E 80 82 2f 00
        E 16 b2 0b 7f
        E 0 92 2f 7f
        E 80 82 2f 00
        E 16 b2 0b 7f
        E 0 92 2f 7f
        E 80 82 2f 00
        E 16 b2 0b 7f
        E 0 92 2f 7f
        E 80 82 2f 00
        E 112 b2 0b 7f
        E 0 92 2f 7f
        E 80 82 2f 00
        E 16 b2 0b 7f
        E 0 92 2f 7f
        E 80 82 2f 00
        E 16 b2 0b 7f
        E 0 92 2b 7f
        E 80 82 2b 00
        E 16 b2 0b 7f
        E 0 92 2b 7f
        E 80 82 2b 00
        E 16 b2 0b 7f
        E 0 92 2b 7f
        E 80 82 2b 00
        E 16 b2 0b 7f
        E 0 92 2b 7f
        E 80 82 2b 00
        E 16 b2 0b 7f
        E 0 92 2b 7f
        E 80 82 2b 00
        E 16 b2 0b 7f
        E 0 92 2b 7f
        E 80 82 2b 00
        E 16 b2 0b 7f
        E 0 92 2b 7f
        E 80 82 2b 00
        E 16 b2 0b 7f
        E 0 92 2b 7f
        E 80 82 2b 00
        E 16 b2 0b 7f
        E 0 92 2d 7f
        E 80 82 2d 00
        E 16 b2 0b 7f
        E 0 92 2d 7f
        E 80 82 2d 00
        E 16 b2 0b 7f
        E 0 92 2d 7f
        E 80 82 2d 00
        E 16 b2 0b 7f
        E 0 92 2d 7f
        E 80 82 2d 00
        E 16 b2 0b 7f
        E 0 92 2d 7f
        E 80 82 2d 00
        E 16 b2 0b 7f
        E 0 92 2d 7f
        E 80 82 2d 00
        E 16 b2 0b 7f
        E 0 92 2d 7f
        E 80 82 2d 00
        E 16 b2 0b 7f
        E 0 92 2d 7f
        E 80 82 2d 00
        E 16 b2 0b 7f
        E 0 92 2f 7f
        E 80 82 2f 00
        E 16 b2 0b 7f
        E 0 92 2f 7f
        E 80 82 2f 00
        E 16 b2 0b 7f
        E 0 92 2f 7f
        E 80 82 2f 00
        E 16 b2 0b 7f
        E 0 92 2f 7f
        E 80 82 2f 00
        E 16 b2 0b 7f
        E 0 92 2f 7f
        E 80 82 2f 00
        E 112 b2 0b 7f
        E 0 92 2f 7f
        E 80 82 2f 00
        E 16 b2 0b 7f
        E 0 92 2f 7f
        E 80 82 2f 00
        E 16 b2 0b 7f
        E 0 92 2f 7f
        E 80 82 2f 00
        E 16 b2 0b 7f
        E 0 92 2f 7f
        E 80 82 2f 00
        E 16 b2 0b 7f
        E 0 92 2f 7f
        E 80 82 2f 00
        E 16 b2 0b 7f
        E 0 92 2f 7f
        E 80 82 2f 00
        E 16 b2 0b 7f
        E 0 92 2f 7f
        E 80 82 2f 00
        E 112 b2 0b 7f
        E 0 92 2f 7f
        E 80 82 2f 00
        E 16 b2 0b 7f
        E 0 92 2f 7f
        E 80 82 2f 00
        E 16 b2 0b 7f
        E 0 92 2b 7f
        E 80 82 2b 00
        E 16 b2 0b 7f
        E 0 92 2b 7f
        E 80 82 2b 00
        E 16 b2 0b 7f
        E 0 92 2b 7f
        E 80 82 2b 00
        E 16 b2 0b 7f
        E 0 92 2b 7f
        E 80 82 2b 00
        E 16 b2 0b 7f
        E 0 92 2b 7f
        E 80 82 2b 00
        E 16 b2 0b 7f
        E 0 92 2b 7f
        E 80 82 2b 00
        E 16 b2 0b 7f
        E 0 92 2d 7f
        E 80 82 2d 00
        E 304 b2 0b 7f
        E 0 92 2d 7f
        E 80 82 2d 00
        E 16 b2 0b 7f
        E 0 92 2d 7f
        E 80 82 2d 00
        E 16 b2 0b 7f
        E 0 92 2d 7f
        E 80 82 2d 00
        E 16 b2 0b 7f
        E 0 92 2d 7f
        E 80 82 2d 00
        E 16 b2 0b 7f
        E 0 92 2d 7f
        E 80 82 2d 00
        E 16 b2 0b 7f
        E 0 92 2d 7f
        E 80 82 2d 00
        E 16 b2 0b 7f
        E 0 92 2f 7f
        E 80 82 2f 00
        E 16 b2 0b 7f
        E 0 92 2f 7f
        E 80 82 2f 00
        E 16 b2 0b 7f
        E 0 92 2f 7f
        E 80 82 2f 00
        E 16 b2 0b 7f
        E 0 92 2f 7f
        E 80 82 2f 00
        E 16 b2 0b 7f
        E 0 92 2f 7f
        E 80 82 2f 00
        E 112 b2 0b 7f
        E 0 92 2f 7f
        E 80 82 2f 00
        E 16 b2 0b 7f
        E 0 92 2f 7f
        E 80 82 2f 00
        E 16 b2 0b 7f
        E 0 92 2f 7f
        E 80 82 2f 00
        E 16 b2 0b 7f
        E 0 92 2f 7f
        E 80 82 2f 00
        E 16 b2 0b 7f
        E 0 92 2f 7f
        E 80 82 2f 00
        E 16 b2 0b 7f
        E 0 92 2f 7f
        E 80 82 2f 00
        E 16 b2 0b 7f
        E 0 92 2f 7f
        E 80 82 2f 00
        E 112 b2 0b 7f
        E 0 92 2f 7f
        E 80 82 2f 00
        E 16 b2 0b 7f
        E 0 92 2f 7f
        E 80 82 2f 00
        E 16 b2 0b 7f
        E 0 92 2b 7f
        E 80 82 2b 00
        E 16 b2 0b 7f
        E 0 92 2b 7f
        E 80 82 2b 00
        E 16 b2 0b 7f
        E 0 92 2b 7f
        E 80 82 2b 00
        E 16 b2 0b 7f
        E 0 92 2b 7f
        E 80 82 2b 00
        E 16 b2 0b 7f
        E 0 92 2b 7f
        E 80 82 2b 00
        E 16 b2 0b 7f
        E 0 92 2b 7f
        E 80 82 2b 00
        E 16 b2 0b 7f
        E 0 92 2b 7f
        E 80 82 2b 00
        E 16 b2 0b 7f
        E 0 92 2b 7f
        E 80 82 2b 00
        E 16 b2 0b 7f
        E 0 92 2d 7f
        E 80 82 2d 00
        E 16 b2 0b 7f
        E 0 92 2d 7f
        E 80 82 2d 00
        E 16 b2 0b 7f
        E 0 92 2d 7f
        E 80 82 2d 00
        E 16 b2 0b 7f
        E 0 92 2d 7f
        E 80 82 2d 00
        E 16 b2 0b 7f
        E 0 92 2d 7f
        E 80 82 2d 00
        E 16 b2 0b 7f
        E 0 92 2d 7f
        E 80 82 2d 00
        E 16 b2 0b 7f
        E 0 92 2d 7f
        E 80 82 2d 00
        E 16 b2 0b 7f
        E 0 92 2d 7f
        E 80 82 2d 00
        E 16 b2 0b 7f
        E 0 92 2f 7f
        E 80 82 2f 00
        E 16 b2 0b 7f
        E 0 92 2f 7f
        E 80 82 2f 00
        E 16 b2 0b 7f
        E 0 92 2f 7f
        E 80 82 2f 00
        E 16 b2 0b 7f
        E 0 92 2f 7f
        E 80 82 2f 00
        E 16 b2 0b 7f
        E 0 92 2f 7f
        E 80 82 2f 00
        E 112 b2 0b 7f
        E 0 92 2f 7f
        E 80 82 2f 00
        E 16 b2 0b 7f
        E 0 92 2f 7f
        E 80 82 2f 00
        E 16 b2 0b 7f
        E 0 92 2f 7f
        E 80 82 2f 00
        E 16 b2 0b 7f
        E 0 92 2f 7f
        E 80 82 2f 00
        E 16 b2 0b 7f
        E 0 92 2f 7f
        E 80 82 2f 00
        E 16 b2 0b 7f
        E 0 92 2f 7f
        E 80 82 2f 00
        E 16 b2 0b 7f
        E 0 92 2f 7f
        E 80 82 2f 00
        E 112 b2 0b 7f
        E 0 92 2f 7f
        E 80 82 2f 00
        E 16 b2 0b 7f
        E 0 92 2f 7f
        E 80 82 2f 00
        E 16 b2 0b 7f
        E 0 92 2b 7f
        E 80 82 2b 00
        E 16 b2 0b 7f
        E 0 92 2b 7f
        E 80 82 2b 00
        E 16 b2 0b 7f
        E 0 92 2b 7f
        E 80 82 2b 00
        E 16 b2 0b 7f
        E 0 92 2b 7f
        E 80 82 2b 00
        E 16 b2 0b 7f
        E 0 92 2b 7f
        E 80 82 2b 00
        E 16 b2 0b 7f
        E 0 92 2b 7f
        E 80 82 2b 00
        E 16 b2 0b 7f
        E 0 92 2d 7f
        E 80 82 2d 00
        E 304 b2 0b 7f
        E 0 92 2d 7f
        E 80 82 2d 00
        E 16 b2 0b 7f
        E 0 92 2d 7f
        E 80 82 2d 00
        E 16 b2 0b 7f
        E 0 92 2d 7f
        E 80 82 2d 00
        E 16 b2 0b 7f
        E 0 92 2d 7f
        E 80 82 2d 00
        E 16 b2 0b 7f
        E 0 92 2d 7f
        E 80 82 2d 00
        E 16 b2 0b 7f
        E 0 92 2d 7f
        E 80 82 2d 00
        E 16 b2 0b 7f
        E 0 92 2b 7f
        E 80 82 2b 00
        E 16 b2 0b 7f
        E 0 92 2b 7f
        E 80 82 2b 00
        E 16 b2 0b 7f
        E 0 92 2b 7f
        E 80 82 2b 00
        E 16 b2 0b 7f
        E 0 92 2b 7f
        E 80 82 2b 00
        E 16 b2 0b 7f
        E 0 92 2b 7f
        E 80 82 2b 00
        E 16 b2 0b 7f
        E 0 92 2b 7f
        E 80 82 2b 00
        E 16 b2 0b 7f
        E 0 92 2d 7f
        E 80 82 2d 00
        E 304 b2 0b 7f
        E 0 92 2d 7f
        E 80 82 2d 00
        E 16 b2 0b 7f
        E 0 92 2d 7f
        E 80 82 2d 00
        E 16 b2 0b 7f
        E 0 92 2d 7f
        E 80 82 2d 00
        E 16 b2 0b 7f
        E 0 92 2d 7f
        E 80 82 2d 00
        E 16 b2 0b 7f
        E 0 92 2f 7f
        E 288 82 2f 00
        E 96 b2 0b 7f
        E 0 92 2f 7f
        E 144 82 2f 00
        E 48 b2 0b 7f
        E 0 92 2f 7f
        E 144 82 2f 00
        E 48 b2 0b 7f
        E 0 92 2f 7f
        E 144 82 2f 00
        E 48 b2 0b 7f
        E 0 92 2f 7f
        E 144 82 2f 00
        E 48 b2 0b 7f
        E 0 92 2f 7f
        E 144 82 2f 00
        E 48 b2 0b 7f
        E 0 92 2f 7f
        E 144 82 2f 00
        E 48 b2 0b 7f
        E 0 92 2f 7f
        E 144 82 2f 00
        E 48 b2 0b 7f
        E 0 92 2f 7f
        E 144 82 2f 00
        E 48 b2 0b 7f
        E 0 92 2f 7f
        E 144 82 2f 00
        E 48 b2 0b 7f
        E 0 92 2f 7f
        E 144 82 2f 00
        E 48 b2 0b 7f
        E 0 92 2f 7f
        E 144 82 2f 00
        E 48 b2 0b 7f
        E 0 92 2f 7f
        E 144 82 2f 00
        E 48 b2 0b 7f
        E 0 92 2f 7f
        E 144 82 2f 00
        E 48 b2 0b 7f
        E 0 92 2f 7f
        E 144 82 2f 00
        E 48 b2 0b 7f
        E 0 92 2f 7f
        E 144 82 2f 00
        E 48 b2 0b 7f
        E 0 92 2f 7f
        E 144 82 2f 00
        E 48 b2 0b 7f
        E 0 92 2f 7f
        E 144 82 2f 00
        E 48 b2 0b 7f
        E 0 92 2f 7f
        E 144 82 2f 00
        E 48 b2 0b 7f
        E 0 92 2f 7f
        E 144 82 2f 00
        E 48 b2 0b 7f
        E 0 92 2f 7f
        E 144 82 2f 00
        E 48 b2 0b 7f
        E 0 92 2f 7f
        E 144 82 2f 00
        E 48 b2 0b 7f
        E 0 92 2f 7f
        E 144 82 2f 00
        E 48 b2 0b 7f
        E 0 92 37 7f
        E 1296 82 37 00
        E 33872 b2 7b 00
        E 0 ff 2f 00
      >
    >
  >
  <TRACK {E52A1D04-22AE-42E6-B666-AEA8AC471316}
    NAME "NES - Noise / Drums"
    PEAKCOL 11184810
    BEAT -1
    AUTOMODE 0
    PANLAWFLAGS 3
    VOLPAN 1 0 -1 -1 1
    MUTESOLO 0 0 0
    IPHASE 0
    PLAYOFFS 0 1
    ISBUS 0 0
    BUSCOMP 0 0 0 0 0
    SHOWINMIX 1 0.6667 0.5 1 0.5 0 0 0
    FIXEDLANES 9 0 0 0 0
    SEL 0
    REC 0 5088 1 0 0 0 0 0
    VU 2
    TRACKHEIGHT 0 0 0 0 0 0 0
    INQ 0 0 0 0.5 100 0 0 100
    NCHAN 2
    FX 1
    TRACKID {E52A1D04-22AE-42E6-B666-AEA8AC471316}
    PERF 0
    MIDIOUT -1
    MAINSEND 1 0
    <FXCHAIN
      WNDRECT 24 52 700 560
      SHOW 0
      LASTSEL 0
      DOCKED 0
      BYPASS 0 0 0
      <JS "ReapNES Studio/ReapNES_Console.jsfx" ""
        2 15 1 10 80 10 100 2 1 15 1 5 60 10 80 1 1 0 50 0 0 15 1 0 100 0 0 0.500000 0.500000 0.400000 0.300000 0.800000 3 1 0 0 0 0 - - - - - - - - - - - - - - - - - - - - - - - - - -
      >
      FLOATPOS 0 0 0 0
      FXID {F24D8072-E1D8-4BAD-8EB9-4A72B7F89679}
      WAK 0 0
    >
  >
>