<REAPER_PROJECT 0.1 "7.27/win64" 1707000000
  <NOTES 0 2
    |ReapNES Studio Project
    |MIDI Import - Little_Nemo_title_rom_v1
  >
  RIPPLE 0
  GROUPOVERRIDE 0 0 0
  AUTOXFADE 129
  ENVATTACH 3
  POOLEDENVATTACH 0
  MIXERUIFLAGS 11 48
  ENVFADESZ10 40
  PEAKGAIN 1
  FEEDBACK 0
  PANLAW 1
  PROJOFFS 0 0 0
  MAXPROJLEN 0 0
  GRID 3199 8 1 8 1 0 0 0
  TIMEMODE 1 5 -1 30 0 0 -1
  VIDEO_CONFIG 0 0 65792
  PANMODE 3
  PANLAWFLAGS 3
  CURSOR 0
  ZOOM 100 0 0
  VZOOMEX 6 0
  USE_REC_CFG 0
  RECMODE 1
  SMPTESYNC 0 30 100 40 1000 300 0 0 1 0 0
  LOOP 0
  LOOPGRAN 0 4
  RECORD_PATH "Media" ""
  <RECORD_CFG
    ZXZhdxgAAQ==
  >
  <APPLYFX_CFG
  >
  RENDER_FILE ""
  RENDER_PATTERN ""
  RENDER_FMT 0 2 0
  RENDER_1X 0
  RENDER_RANGE 1 0 0 18 1000
  RENDER_RESAMPLE 3 0 1
  RENDER_ADDTOPROJ 0
  RENDER_STEMS 0
  RENDER_DITHER 0
  TIMELOCKMODE 1
  TEMPOENVLOCKMODE 1
  ITEMMIX 1
  DEFPITCHMODE 589824 0
  TAKELANE 1
  SAMPLERATE 44100 0 0
  <RENDER_CFG
    ZXZhdxgAAQ==
  >
  LOCK 1
  <METRONOME 6 2
    VOL 0.25 0.125
    BEATLEN 4
    FREQ 1760 880 1
    SAMPLES "" ""
    SPLIGNORE 0 0
    SPLDEF 2 660 "" 0
    SPLDEF 3 440 "" 0
    PATTERN 0 169
    PATTERNSTR ABBB
    MULT 1
  >
  GLOBAL_AUTO -1
  TEMPO 128.59999614200012 4 4
  PLAYRATE 1 0 0.25 4
  SELECTION 0 0
  SELECTION2 0 0
  MASTERAUTOMODE 0
  MASTERTRACKHEIGHT 0 0
  MASTERPEAKCOL 16576
  MASTERMUTESOLO 0
  MASTERTRACKVIEW 0 0.6667 0.5 0.5 0 0 0 0 0 0 0 0 0 0
  MASTERHWOUT 0 0 1 0 0 0 0 -1
  MASTER_NCH 2 2
  MASTER_VOLUME 1 0 -1 -1 1
  MASTER_PANMODE 3
  MASTER_PANLAWFLAGS 3
  MASTER_FX 1
  MASTER_SEL 0
  <MASTERPLAYSPEEDENV
    EGUID {E22E1038-136E-4B3B-9F7A-8AFB03C37AB5}
    ACT 0 -1
    VIS 0 1 1
    LANEHEIGHT 0 0
    ARM 0
    DEFSHAPE 0 -1 -1
  >
  <TEMPOENVEX
    EGUID {FC36412F-1F93-437A-BE02-2DF8974A52DE}
    ACT 1 -1
    VIS 1 0 1
    LANEHEIGHT 0 0
    ARM 0
    DEFSHAPE 1 -1 -1
  >
  <PROJBAY
  >
  <TRACK {DEE2B5FF-ED7F-4368-AD46-65F201313972}
    NAME "NES - Pulse 1 [ch0]"
    PEAKCOL 16576606
    BEAT -1
    AUTOMODE 0
    PANLAWFLAGS 3
    VOLPAN 1 0 -1 -1 1
    MUTESOLO 0 0 0
    IPHASE 0
    PLAYOFFS 0 1
    ISBUS 0 0
    BUSCOMP 0 0 0 0 0
    SHOWINMIX 1 0.6667 0.5 1 0.5 0 0 0
    FIXEDLANES 9 0 0 0 0
    SEL 1
    REC 1 5088 1 0 0 0 0 0
    VU 2
    TRACKHEIGHT 0 0 0 0 0 0 0
    INQ 0 0 0 0.5 100 0 0 100
    NCHAN 2
    FX 1
    TRACKID {DEE2B5FF-ED7F-4368-AD46-65F201313972}
    PERF 0
    MIDIOUT -1
    MAINSEND 1 0
    <FXCHAIN
      WNDRECT 24 52 700 560
      SHOW 0
      LASTSEL 0
      DOCKED 0
      BYPASS 0 0 0
      <JS "ReapNES Studio/ReapNES_Console.jsfx" ""
        2 15 1 10 80 10 100 2 1 15 1 5 60 10 80 1 1 0 50 0 0 15 1 0 100 0 0 0.500000 0.500000 0.400000 0.300000 0.800000 0 1 0 0 0 0 - - - - - - - - - - - - - - - - - - - - - - - - - -
      >
      FLOATPOS 0 0 0 0
      FXID {1067EB68-F7A8-412B-A0E8-980838A761FC}
      WAK 0 0
    >
    <ITEM
      POSITION 0
      LENGTH 73.6702977
      LOOP 0
      ALLTAKES 0
      FADEIN 0 0 0 0 0 0 0
      FADEOUT 0 0 0 0 0 0 0
      MUTE 0 0
      SEL 0
      IGUID {6D844626-9AE3-4CA6-B06E-983082414138}
      <SOURCE MIDI
        HASDATA 1 480 QN
        CCINTERP 32
        E 0 c0 50
        E 0 b0 0c 60
        E 0 b0 0b 7f
        E 0 90 31 7f
        E 16 b0 0b 66
        E 16 b0 0b 4c
        E 16 b0 0b 33
        E 16 b0 0b 44
        E 16 b0 0b 5d
        E 16 b0 0b 66
        E 16 b0 0b 5d
        E 16 b0 0b 55
        E 16 b0 0b 3b
        E 32 b0 0b 4c
        E 32 b0 0b 44
        E 32 b0 0b 3b
        E 16 b0 0b 33
        E 48 b0 0b 2a
        E 32 b0 0b 22
        E 32 b0 0b 19
        E 32 b0 0b 11
        E 32 b0 0b 08
        E 16 b0 0b 7f
        E 0 80 31 00
        E 0 90 35 7f
        E 16 b0 0b 66
        E 16 b0 0b 4c
        E 16 b0 0b 33
        E 16 b0 0b 44
        E 16 b0 0b 5d
        E 16 b0 0b 66
        E 16 b0 0b 5d
        E 16 b0 0b 55
        E 16 b0 0b 3b
        E 32 b0 0b 4c
        E 32 b0 0b 44
        E 32 b0 0b 3b
        E 16 b0 0b 33
        E 48 b0 0b 2a
        E 32 b0 0b 22
        E 32 b0 0b 19
        E 32 b0 0b 11
        E 32 b0 0b 7f
        E 0 80 35 00
        E 0 90 38 7f
        E 16 b0 0b 66
        E 16 b0 0b 4c
        E 16 b0 0b 33
        E 16 b0 0b 44
        E 16 b0 0b 5d
        E 16 b0 0b 66
        E 16 b0 0b 5d
        E 16 b0 0b 55
        E 16 b0 0b 3b
        E 32 b0 0b 4c
        E 32 b0 0b 44
        E 32 b0 0b 3b
        E 16 b0 0b 33
        E 48 b0 0b 2a
        E 32 b0 0b 22
        E 32 b0 0b 19
        E 32 b0 0b 11
        E 32 b0 0b 7f
        E 0 80 38 00
        E 0 90 3d 7f
        E 16 b0 0b 66
        E 16 b0 0b 4c
        E 16 b0 0b 33
        E 16 b0 0b 44
        E 16 b0 0b 5d
        E 16 b0 0b 66
        E 16 b0 0b 5d
        E 16 b0 0b 55
        E 16 b0 0b 3b
        E 32 b0 0b 4c
        E 32 b0 0b 44
        E 32 b0 0b 3b
        E 16 b0 0b 33
        E 48 b0 0b 2a
        E 32 b0 0b 22
        E 32 b0 0b 19
        E 32 b0 0b 11
        E 32 b0 0b 7f
        E 0 80 3d 00
        E 0 90 40 7f
        E 16 b0 0b 66
        E 16 b0 0b 4c
        E 16 b0 0b 7f
        E 0 80 40 00
        E 0 90 41 7f
        E 16 b0 0b 66
        E 16 b0 0b 4c
        E 16 b0 0b 33
        E 16 b0 0b 44
        E 16 b0 0b 5d
        E 16 b0 0b 77
        E 32 b0 0b 55
        E 16 b0 0b 3b
        E 16 b0 0b 7f
        E 0 80 41 00
        E 0 90 3f 7f
        E 16 b0 0b 66
        E 16 b0 0b 4c
        E 16 b0 0b 33
        E 16 b0 0b 44
        E 16 b0 0b 5d
        E 16 b0 0b 77
        E 16 b0 0b 7f
        E 0 80 3f 00
        E 0 90 3d 7f
        E 16 b0 0b 66
        E 16 b0 0b 4c
        E 16 b0 0b 33
        E 16 b0 0b 44
        E 16 b0 0b 5d
        E 16 b0 0b 66
        E 16 b0 0b 5d
        E 16 b0 0b 55
        E 16 b0 0b 3b
        E 32 b0 0b 55
        E 64 b0 0b 4c
        E 16 b0 0b 33
        E 16 b0 0b 4c
        E 80 b0 0b 3b
        E 32 b0 0b 4c
        E 64 b0 0b 44
        E 16 b0 0b 33
        E 16 b0 0b 4c
        E 64 b0 0b 44
        E 16 b0 0b 33
        E 16 b0 0b 44
        E 80 b0 0b 3b
        E 32 b0 0b 44
        E 80 b0 0b 33
        E 16 b0 0b 44
        E 16 b0 0b 3b
        E 176 b0 0b 33
        E 16 b0 0b 3b
        E 64 b0 0b 33
        E 256 b0 0b 2a
        E 96 b0 0b 7f
        E 0 80 3d 00
        E 0 90 40 7f
        E 16 b0 0b 66
        E 16 b0 0b 4c
        E 16 b0 0b 7f
        E 0 80 40 00
        E 0 90 41 7f
        E 16 b0 0b 66
        E 16 b0 0b 4c
        E 16 b0 0b 33
        E 16 b0 0b 44
        E 16 b0 0b 5d
        E 16 b0 0b 77
        E 32 b0 0b 55
        E 16 b0 0b 3b
        E 16 b0 0b 7f
        E 0 80 41 00
        E 0 90 3f 7f
        E 16 b0 0b 66
        E 16 b0 0b 4c
        E 16 b0 0b 33
        E 16 b0 0b 44
        E 16 b0 0b 5d
        E 16 b0 0b 77
        E 16 b0 0b 7f
        E 0 80 3f 00
        E 0 90 3d 7f
        E 16 b0 0b 66
        E 16 b0 0b 4c
        E 16 b0 0b 33
        E 16 b0 0b 44
        E 16 b0 0b 5d
        E 16 b0 0b 66
        E 16 b0 0b 5d
        E 16 b0 0b 55
        E 16 b0 0b 3b
        E 32 b0 0b 55
        E 64 b0 0b 4c
        E 16 b0 0b 33
        E 16 b0 0b 4c
        E 16 b0 0b 55
        E 64 b0 0b 3b
        E 32 b0 0b 55
        E 16 b0 0b 4c
        E 48 b0 0b 44
        E 16 b0 0b 33
        E 16 b0 0b 4c
        E 80 b0 0b 33
        E 16 b0 0b 44
        E 16 b0 0b 4c
        E 64 b0 0b 3b
        E 32 b0 0b 44
        E 80 b0 0b 33
        E 16 b0 0b 44
        E 80 b0 0b 3b
        E 32 b0 0b 44
        E 16 b0 0b 3b
        E 64 b0 0b 7f
        E 0 80 3d 00
        E 0 90 43 7f
        E 16 b0 0b 66
        E 16 b0 0b 4c
        E 16 b0 0b 7f
        E 0 80 43 00
        E 0 90 44 7f
        E 16 b0 0b 66
        E 16 b0 0b 4c
        E 16 b0 0b 33
        E 16 b0 0b 44
        E 16 b0 0b 5d
        E 16 b0 0b 77
        E 32 b0 0b 55
        E 16 b0 0b 3b
        E 16 b0 0b 7f
        E 0 80 44 00
        E 0 90 42 7f
        E 16 b0 0b 66
        E 16 b0 0b 4c
        E 16 b0 0b 33
        E 16 b0 0b 44
        E 16 b0 0b 5d
        E 16 b0 0b 77
        E 16 b0 0b 7f
        E 0 80 42 00
        E 0 90 41 7f
        E 16 b0 0b 66
        E 16 b0 0b 4c
        E 16 b0 0b 33
        E 16 b0 0b 44
        E 16 b0 0b 5d
        E 16 b0 0b 66
        E 16 b0 0b 5d
        E 16 b0 0b 55
        E 16 b0 0b 3b
        E 32 b0 0b 55
        E 16 b0 0b 5d
        E 16 b0 0b 7f
        E 0 80 41 00
        E 0 90 3f 7f
        E 16 b0 0b 66
        E 16 b0 0b 4c
        E 16 b0 0b 33
        E 16 b0 0b 44
        E 16 b0 0b 5d
        E 16 b0 0b 77
        E 16 b0 0b 7f
        E 0 80 3f 00
        E 0 90 3d 7f
        E 16 b0 0b 66
        E 16 b0 0b 4c
        E 16 b0 0b 33
        E 16 b0 0b 44
        E 16 b0 0b 5d
        E 16 b0 0b 77
        E 16 b0 0b 7f
        E 0 80 3d 00
        E 0 90 38 7f
        E 16 b0 0b 66
        E 16 b0 0b 4c
        E 16 b0 0b 33
        E 16 b0 0b 44
        E 16 b0 0b 5d
        E 16 b0 0b 66
        E 16 b0 0b 5d
        E 16 b0 0b 55
        E 16 b0 0b 3b
        E 32 b0 0b 55
        E 64 b0 0b 4c
        E 16 b0 0b 33
        E 16 b0 0b 4c
        E 80 b0 0b 3b
        E 32 b0 0b 4c
        E 64 b0 0b 44
        E 16 b0 0b 33
        E 16 b0 0b 4c
        E 64 b0 0b 44
        E 16 b0 0b 33
        E 16 b0 0b 44
        E 80 b0 0b 3b
        E 32 b0 0b 44
        E 80 b0 0b 33
        E 16 b0 0b 44
        E 16 b0 0b 3b
        E 176 b0 0b 33
        E 16 b0 0b 3b
        E 64 b0 0b 33
        E 256 b0 0b 2a
        E 96 b0 0b 7f
        E 0 80 38 00
        E 0 90 31 7f
        E 16 b0 0b 66
        E 16 b0 0b 4c
        E 16 b0 0b 33
        E 16 b0 0b 44
        E 16 b0 0b 5d
        E 16 b0 0b 66
        E 16 b0 0b 5d
        E 16 b0 0b 55
        E 16 b0 0b 3b
        E 32 b0 0b 4c
        E 32 b0 0b 44
        E 32 b0 0b 3b
        E 16 b0 0b 33
        E 48 b0 0b 2a
        E 32 b0 0b 22
        E 32 b0 0b 19
        E 32 b0 0b 11
        E 32 b0 0b 7f
        E 0 80 31 00
        E 0 90 35 7f
        E 16 b0 0b 66
        E 16 b0 0b 4c
        E 16 b0 0b 33
        E 16 b0 0b 44
        E 16 b0 0b 5d
        E 16 b0 0b 66
        E 16 b0 0b 5d
        E 16 b0 0b 55
        E 16 b0 0b 3b
        E 32 b0 0b 4c
        E 32 b0 0b 44
        E 32 b0 0b 3b
        E 16 b0 0b 33
        E 48 b0 0b 2a
        E 32 b0 0b 22
        E 32 b0 0b 19
        E 32 b0 0b 11
        E 32 b0 0b 7f
        E 0 80 35 00
        E 0 90 38 7f
        E 16 b0 0b 66
        E 16 b0 0b 4c
        E 16 b0 0b 33
        E 16 b0 0b 44
        E 16 b0 0b 5d
        E 16 b0 0b 66
        E 16 b0 0b 5d
        E 16 b0 0b 55
        E 16 b0 0b 3b
        E 32 b0 0b 4c
        E 32 b0 0b 44
        E 32 b0 0b 3b
        E 16 b0 0b 33
        E 48 b0 0b 2a
        E 32 b0 0b 22
        E 32 b0 0b 19
        E 32 b0 0b 11
        E 32 b0 0b 7f
        E 0 80 38 00
        E 0 90 3d 7f
        E 16 b0 0b 66
        E 16 b0 0b 4c
        E 16 b0 0b 33
        E 16 b0 0b 44
        E 16 b0 0b 5d
        E 16 b0 0b 66
        E 16 b0 0b 5d
        E 16 b0 0b 55
        E 16 b0 0b 3b
        E 32 b0 0b 4c
        E 32 b0 0b 44
        E 32 b0 0b 3b
        E 16 b0 0b 33
        E 48 b0 0b 2a
        E 32 b0 0b 22
        E 32 b0 0b 19
        E 32 b0 0b 11
        E 32 b0 0b 7f
        E 0 80 3d 00
        E 0 90 40 7f
        E 16 b0 0b 66
        E 16 b0 0b 4c
        E 16 b0 0b 7f
        E 0 80 40 00
        E 0 90 41 7f
        E 16 b0 0b 66
        E 16 b0 0b 4c
        E 16 b0 0b 33
        E 16 b0 0b 44
        E 16 b0 0b 5d
        E 16 b0 0b 77
        E 32 b0 0b 55
        E 16 b0 0b 3b
        E 16 b0 0b 7f
        E 0 80 41 00
        E 0 90 3f 7f
        E 16 b0 0b 66
        E 16 b0 0b 4c
        E 16 b0 0b 33
        E 16 b0 0b 44
        E 16 b0 0b 5d
        E 16 b0 0b 77
        E 16 b0 0b 7f
        E 0 80 3f 00
        E 0 90 3d 7f
        E 16 b0 0b 66
        E 16 b0 0b 4c
        E 16 b0 0b 33
        E 16 b0 0b 44
        E 16 b0 0b 5d
        E 16 b0 0b 66
        E 16 b0 0b 5d
        E 16 b0 0b 55
        E 16 b0 0b 3b
        E 32 b0 0b 55
        E 64 b0 0b 4c
        E 16 b0 0b 33
        E 16 b0 0b 4c
        E 80 b0 0b 3b
        E 32 b0 0b 4c
        E 64 b0 0b 44
        E 16 b0 0b 33
        E 16 b0 0b 4c
        E 64 b0 0b 44
        E 16 b0 0b 33
        E 16 b0 0b 44
        E 80 b0 0b 3b
        E 32 b0 0b 44
        E 80 b0 0b 33
        E 16 b0 0b 44
        E 16 b0 0b 3b
        E 176 b0 0b 33
        E 16 b0 0b 3b
        E 64 b0 0b 33
        E 256 b0 0b 2a
        E 96 b0 0b 7f
        E 0 80 3d 00
        E 0 90 40 7f
        E 16 b0 0b 66
        E 16 b0 0b 4c
        E 16 b0 0b 7f
        E 0 80 40 00
        E 0 90 41 7f
        E 16 b0 0b 66
        E 16 b0 0b 4c
        E 16 b0 0b 33
        E 16 b0 0b 44
        E 16 b0 0b 5d
        E 16 b0 0b 77
        E 32 b0 0b 55
        E 16 b0 0b 3b
        E 16 b0 0b 7f
        E 0 80 41 00
        E 0 90 3f 7f
        E 16 b0 0b 66
        E 16 b0 0b 4c
        E 16 b0 0b 33
        E 16 b0 0b 44
        E 16 b0 0b 5d
        E 16 b0 0b 77
        E 16 b0 0b 7f
        E 0 80 3f 00
        E 0 90 3d 7f
        E 16 b0 0b 66
        E 16 b0 0b 4c
        E 16 b0 0b 33
        E 16 b0 0b 44
        E 16 b0 0b 5d
        E 16 b0 0b 66
        E 16 b0 0b 5d
        E 16 b0 0b 55
        E 16 b0 0b 3b
        E 32 b0 0b 4c
        E 32 b0 0b 44
        E 32 b0 0b 3b
        E 16 b0 0b 33
        E 48 b0 0b 2a
        E 32 b0 0b 22
        E 32 b0 0b 19
        E 32 b0 0b 11
        E 32 b0 0b 08
        E 32 80 3d 00
        E 400 b0 0b 7f
        E 0 90 3d 7f
        E 16 b0 0b 66
        E 16 b0 0b 4c
        E 16 b0 0b 33
        E 16 b0 0b 44
        E 16 b0 0b 5d
        E 16 b0 0b 77
        E 32 b0 0b 55
        E 16 b0 0b 3b
        E 32 b0 0b 55
        E 16 b0 0b 6e
        E 16 b0 0b 7f
        E 0 80 3d 00
        E 0 90 3b 7f
        E 16 b0 0b 66
        E 16 b0 0b 4c
        E 16 b0 0b 33
        E 16 b0 0b 44
        E 16 b0 0b 5d
        E 16 b0 0b 77
        E 16 b0 0b 7f
        E 0 80 3b 00
        E 0 90 39 7f
        E 16 b0 0b 66
        E 16 b0 0b 4c
        E 16 b0 0b 33
        E 16 b0 0b 44
        E 16 b0 0b 5d
        E 16 b0 0b 77
        E 16 b0 0b 7f
        E 0 80 39 00
        E 0 90 3b 7f
        E 16 b0 0b 66
        E 16 b0 0b 4c
        E 16 b0 0b 33
        E 16 b0 0b 44
        E 16 b0 0b 5d
        E 16 b0 0b 77
        E 16 b0 0b 7f
        E 0 80 3b 00
        E 0 90 3d 7f
        E 16 b0 0b 66
        E 16 b0 0b 4c
        E 16 b0 0b 33
        E 16 b0 0b 44
        E 16 b0 0b 5d
        E 16 b0 0b 77
        E 32 b0 0b 55
        E 16 b0 0b 3b
        E 32 b0 0b 55
        E 16 b0 0b 6e
        E 32 b0 0b 66
        E 16 b0 0b 4c
        E 16 b0 0b 33
        E 16 b0 0b 4c
        E 16 b0 0b 66
        E 16 b0 0b 6e
        E 32 b0 0b 55
        E 16 b0 0b 3b
        E 32 b0 0b 5d
        E 16 b0 0b 6e
        E 16 b0 0b 66
        E 16 b0 0b 5d
        E 16 b0 0b 44
        E 16 b0 0b 33
        E 16 b0 0b 4c
        E 16 b0 0b 66
        E 48 b0 0b 4c
        E 16 b0 0b 33
        E 16 b0 0b 44
        E 16 b0 0b 5d
        E 16 b0 0b 66
        E 32 b0 0b 55
        E 16 b0 0b 3b
        E 32 b0 0b 55
        E 16 b0 0b 5d
        E 48 b0 0b 4c
        E 16 b0 0b 33
        E 16 b0 0b 4c
        E 16 b0 0b 5d
        E 48 b0 0b 55
        E 16 b0 0b 7f
        E 0 80 3d 00
        E 0 90 38 7f
        E 16 b0 0b 66
        E 16 b0 0b 4c
        E 16 b0 0b 33
        E 16 b0 0b 44
        E 16 b0 0b 5d
        E 16 b0 0b 77
        E 32 b0 0b 55
        E 16 b0 0b 3b
        E 32 b0 0b 55
        E 16 b0 0b 6e
        E 16 b0 0b 77
        E 16 b0 0b 66
        E 16 b0 0b 4c
        E 16 b0 0b 33
        E 16 b0 0b 4c
        E 16 b0 0b 66
        E 16 b0 0b 6e
        E 32 b0 0b 55
        E 16 b0 0b 3b
        E 32 b0 0b 5d
        E 16 b0 0b 6e
        E 32 b0 0b 5d
        E 16 b0 0b 44
        E 16 b0 0b 33
        E 16 b0 0b 4c
        E 16 b0 0b 66
        E 16 b0 0b 6e
        E 16 b0 0b 66
        E 16 b0 0b 4c
        E 16 b0 0b 33
        E 16 b0 0b 44
        E 16 b0 0b 5d
        E 16 b0 0b 66
        E 32 b0 0b 7f
        E 0 80 38 00
        E 0 90 3a 7f
        E 16 b0 0b 66
        E 16 b0 0b 4c
        E 16 b0 0b 33
        E 16 b0 0b 44
        E 16 b0 0b 5d
        E 16 b0 0b 77
        E 32 b0 0b 55
        E 16 b0 0b 3b
        E 32 b0 0b 55
        E 16 b0 0b 6e
        E 16 b0 0b 77
        E 16 b0 0b 7f
        E 0 80 3a 00
        E 0 90 35 7f
        E 16 b0 0b 66
        E 16 b0 0b 4c
        E 16 b0 0b 33
        E 16 b0 0b 44
        E 16 b0 0b 5d
        E 16 b0 0b 77
        E 32 b0 0b 55
        E 16 b0 0b 3b
        E 32 b0 0b 55
        E 16 b0 0b 6e
        E 32 b0 0b 66
        E 16 b0 0b 4c
        E 16 b0 0b 33
        E 16 b0 0b 4c
        E 16 b0 0b 66
        E 16 b0 0b 6e
        E 32 b0 0b 55
        E 16 b0 0b 3b
        E 32 b0 0b 5d
        E 16 b0 0b 6e
        E 16 b0 0b 66
        E 16 b0 0b 5d
        E 16 b0 0b 44
        E 16 b0 0b 33
        E 16 b0 0b 4c
        E 16 b0 0b 66
        E 48 b0 0b 4c
        E 16 b0 0b 33
        E 16 b0 0b 44
        E 16 b0 0b 5d
        E 16 b0 0b 66
        E 32 b0 0b 55
        E 16 b0 0b 3b
        E 32 b0 0b 55
        E 16 b0 0b 5d
        E 48 b0 0b 4c
        E 16 b0 0b 33
        E 16 b0 0b 4c
        E 16 b0 0b 5d
        E 48 b0 0b 55
        E 16 b0 0b 7f
        E 0 80 35 00
        E 0 90 31 7f
        E 16 b0 0b 66
        E 16 b0 0b 4c
        E 16 b0 0b 33
        E 16 b0 0b 44
        E 16 b0 0b 5d
        E 16 b0 0b 77
        E 32 b0 0b 55
        E 16 b0 0b 3b
        E 32 b0 0b 55
        E 16 b0 0b 6e
        E 16 b0 0b 77
        E 16 b0 0b 66
        E 16 b0 0b 4c
        E 16 b0 0b 33
        E 16 b0 0b 4c
        E 16 b0 0b 66
        E 16 b0 0b 6e
        E 32 b0 0b 55
        E 16 b0 0b 3b
        E 32 b0 0b 5d
        E 16 b0 0b 6e
        E 32 b0 0b 5d
        E 16 b0 0b 44
        E 16 b0 0b 33
        E 16 b0 0b 4c
        E 16 b0 0b 66
        E 16 b0 0b 6e
        E 16 b0 0b 66
        E 16 b0 0b 4c
        E 16 b0 0b 33
        E 16 b0 0b 44
        E 16 b0 0b 5d
        E 16 b0 0b 66
        E 32 b0 0b 7f
        E 0 80 31 00
        E 0 90 33 7f
        E 16 b0 0b 66
        E 16 b0 0b 4c
        E 16 b0 0b 33
        E 16 b0 0b 44
        E 16 b0 0b 5d
        E 16 b0 0b 77
        E 32 b0 0b 55
        E 16 b0 0b 3b
        E 32 b0 0b 55
        E 16 b0 0b 6e
        E 16 b0 0b 77
        E 16 b0 0b 7f
        E 0 80 33 00
        E 0 90 3d 7f
        E 16 b0 0b 66
        E 16 b0 0b 4c
        E 16 b0 0b 33
        E 16 b0 0b 44
        E 16 b0 0b 5d
        E 16 b0 0b 77
        E 32 b0 0b 55
        E 16 b0 0b 3b
        E 32 b0 0b 55
        E 16 b0 0b 6e
        E 32 b0 0b 66
        E 16 b0 0b 4c
        E 16 b0 0b 33
        E 16 b0 0b 4c
        E 16 b0 0b 66
        E 16 b0 0b 6e
        E 32 b0 0b 55
        E 16 b0 0b 3b
        E 32 b0 0b 5d
        E 16 b0 0b 6e
        E 16 b0 0b 66
        E 16 b0 0b 5d
        E 16 b0 0b 44
        E 16 b0 0b 33
        E 16 b0 0b 4c
        E 16 b0 0b 66
        E 48 b0 0b 4c
        E 16 b0 0b 33
        E 16 b0 0b 44
        E 16 b0 0b 5d
        E 16 b0 0b 66
        E 32 b0 0b 55
        E 16 b0 0b 3b
        E 32 b0 0b 55
        E 16 b0 0b 5d
        E 48 b0 0b 4c
        E 16 b0 0b 33
        E 16 b0 0b 4c
        E 16 b0 0b 5d
        E 48 b0 0b 55
        E 16 b0 0b 7f
        E 0 80 3d 00
        E 0 90 38 7f
        E 16 b0 0b 66
        E 16 b0 0b 4c
        E 16 b0 0b 33
        E 16 b0 0b 44
        E 16 b0 0b 5d
        E 16 b0 0b 77
        E 32 b0 0b 55
        E 16 b0 0b 3b
        E 32 b0 0b 55
        E 16 b0 0b 6e
        E 16 b0 0b 77
        E 16 b0 0b 66
        E 16 b0 0b 4c
        E 16 b0 0b 33
        E 16 b0 0b 4c
        E 16 b0 0b 66
        E 16 b0 0b 6e
        E 32 b0 0b 55
        E 16 b0 0b 3b
        E 32 b0 0b 5d
        E 16 b0 0b 6e
        E 32 b0 0b 5d
        E 16 b0 0b 44
        E 16 b0 0b 33
        E 16 b0 0b 4c
        E 16 b0 0b 66
        E 16 b0 0b 6e
        E 16 b0 0b 66
        E 16 b0 0b 4c
        E 16 b0 0b 33
        E 16 b0 0b 44
        E 16 b0 0b 5d
        E 16 b0 0b 66
        E 32 b0 0b 7f
        E 0 80 38 00
        E 0 90 3a 7f
        E 16 b0 0b 66
        E 16 b0 0b 4c
        E 16 b0 0b 33
        E 16 b0 0b 44
        E 16 b0 0b 5d
        E 16 b0 0b 77
        E 32 b0 0b 55
        E 16 b0 0b 3b
        E 32 b0 0b 55
        E 16 b0 0b 6e
        E 16 b0 0b 77
        E 16 b0 0b 7f
        E 0 80 3a 00
        E 0 90 35 7f
        E 16 b0 0b 66
        E 16 b0 0b 4c
        E 16 b0 0b 33
        E 16 b0 0b 44
        E 16 b0 0b 5d
        E 16 b0 0b 77
        E 32 b0 0b 55
        E 16 b0 0b 3b
        E 32 b0 0b 55
        E 16 b0 0b 6e
        E 32 b0 0b 66
        E 16 b0 0b 4c
        E 16 b0 0b 33
        E 16 b0 0b 4c
        E 16 b0 0b 66
        E 16 b0 0b 6e
        E 32 b0 0b 55
        E 16 b0 0b 3b
        E 32 b0 0b 5d
        E 16 b0 0b 6e
        E 16 b0 0b 66
        E 16 b0 0b 5d
        E 16 b0 0b 44
        E 16 b0 0b 33
        E 16 b0 0b 4c
        E 16 b0 0b 66
        E 48 b0 0b 4c
        E 16 b0 0b 33
        E 16 b0 0b 44
        E 16 b0 0b 5d
        E 16 b0 0b 66
        E 32 b0 0b 55
        E 16 b0 0b 3b
        E 32 b0 0b 55
        E 16 b0 0b 5d
        E 48 b0 0b 4c
        E 16 b0 0b 33
        E 16 b0 0b 4c
        E 16 b0 0b 5d
        E 48 b0 0b 55
        E 16 b0 0b 7f
        E 0 80 35 00
        E 0 90 31 7f
        E 16 b0 0b 66
        E 16 b0 0b 4c
        E 16 b0 0b 33
        E 16 b0 0b 44
        E 16 b0 0b 5d
        E 16 b0 0b 77
        E 32 b0 0b 55
        E 16 b0 0b 3b
        E 32 b0 0b 55
        E 16 b0 0b 6e
        E 16 b0 0b 77
        E 16 b0 0b 66
        E 16 b0 0b 4c
        E 16 b0 0b 33
        E 16 b0 0b 4c
        E 16 b0 0b 66
        E 16 b0 0b 6e
        E 32 b0 0b 55
        E 16 b0 0b 3b
        E 32 b0 0b 5d
        E 16 b0 0b 6e
        E 32 b0 0b 5d
        E 16 b0 0b 44
        E 16 b0 0b 33
        E 16 b0 0b 4c
        E 16 b0 0b 66
        E 16 b0 0b 6e
        E 16 b0 0b 66
        E 16 b0 0b 4c
        E 16 b0 0b 33
        E 16 b0 0b 44
        E 16 b0 0b 5d
        E 16 b0 0b 66
        E 32 b0 0b 7f
        E 0 80 31 00
        E 0 90 33 7f
        E 16 b0 0b 66
        E 16 b0 0b 4c
        E 16 b0 0b 33
        E 16 b0 0b 44
        E 16 b0 0b 5d
        E 16 b0 0b 77
        E 32 b0 0b 55
        E 16 b0 0b 3b
        E 32 b0 0b 55
        E 16 b0 0b 6e
        E 16 b0 0b 77
        E 16 b0 0b 7f
        E 0 80 33 00
        E 0 90 31 7f
        E 16 b0 0b 66
        E 16 b0 0b 55
        E 16 b0 0b 3b
        E 160 b0 0b 7f
        E 0 80 31 00
        E 0 90 25 7f
        E 16 b0 0b 66
        E 16 b0 0b 55
        E 16 b0 0b 3b
        E 160 b0 0b 33
        E 16 b0 0b 7f
        E 16 b0 0b 66
        E 16 b0 0b 55
        E 16 b0 0b 3b
        E 160 b0 0b 33
        E 64 b0 0b 2a
        E 64 b0 0b 22
        E 64 b0 0b 19
        E 64 b0 0b 11
        E 64 b0 0b 08
        E 64 80 25 00
        E 3760 b0 0c 20
        E 0 b0 0b 66
        E 0 90 3a 66
        E 16 b0 0b 5d
        E 128 b0 0b 55
        E 128 b0 0b 4c
        E 128 b0 0b 44
        E 128 b0 0b 3b
        E 128 b0 0b 33
        E 128 b0 0b 2a
        E 128 b0 0b 22
        E 128 b0 0b 19
        E 128 b0 0b 11
        E 128 b0 0b 08
        E 240 80 3a 00
        E 32 b0 0b 66
        E 0 90 3a 66
        E 16 b0 0b 5d
        E 64 b0 0b 55
        E 32 b0 0b 4c
        E 16 b0 0b 66
        E 0 80 3a 00
        E 0 90 3c 66
        E 16 b0 0b 5d
        E 64 b0 0b 55
        E 32 b0 0b 66
        E 0 80 3c 00
        E 0 90 3a 66
        E 16 b0 0b 5d
        E 64 b0 0b 55
        E 32 b0 0b 4c
        E 16 b0 0b 66
        E 0 80 3a 00
        E 0 90 39 66
        E 16 b0 0b 5d
        E 64 b0 0b 55
        E 32 b0 0b 4c
        E 32 b0 0b 44
        E 16 b0 0b 3b
        E 32 b0 0b 33
        E 16 b0 0b 2a
        E 32 b0 0b 22
        E 32 b0 0b 19
        E 16 b0 0b 11
        E 32 b0 0b 08
        E 16 80 39 00
        E 16 b0 0b 66
        E 0 90 35 66
        E 16 b0 0b 5d
        E 128 b0 0b 55
        E 128 b0 0b 4c
        E 128 b0 0b 44
        E 128 b0 0b 3b
        E 128 b0 0b 33
        E 128 b0 0b 2a
        E 64 b0 0b 22
        E 16 b0 0b 19
        E 32 b0 0b 11
        E 16 b0 0b 08
        E 32 80 35 00
        E 144 b0 0b 66
        E 0 90 35 66
        E 16 b0 0b 5d
        E 64 b0 0b 55
        E 32 b0 0b 4c
        E 32 b0 0b 44
        E 16 b0 0b 3b
        E 32 b0 0b 33
        E 16 b0 0b 2a
        E 32 b0 0b 66
        E 0 80 35 00
        E 0 90 37 66
        E 16 b0 0b 5d
        E 64 b0 0b 55
        E 32 b0 0b 4c
        E 32 b0 0b 44
        E 16 b0 0b 3b
        E 32 b0 0b 33
        E 16 b0 0b 2a
        E 32 b0 0b 66
        E 0 80 37 00
        E 0 90 38 66
        E 16 b0 0b 5d
        E 128 b0 0b 55
        E 128 b0 0b 4c
        E 128 b0 0b 44
        E 128 b0 0b 3b
        E 128 b0 0b 33
        E 128 b0 0b 2a
        E 128 b0 0b 22
        E 128 b0 0b 19
        E 128 b0 0b 11
        E 128 b0 0b 08
        E 224 80 38 00
        E 32 b0 0b 66
        E 0 90 38 66
        E 16 b0 0b 5d
        E 80 b0 0b 55
        E 32 b0 0b 66
        E 0 80 38 00
        E 0 90 3a 66
        E 16 b0 0b 5d
        E 64 b0 0b 55
        E 32 b0 0b 4c
        E 16 b0 0b 66
        E 0 80 3a 00
        E 0 90 38 66
        E 16 b0 0b 5d
        E 64 b0 0b 55
        E 32 b0 0b 66
        E 0 80 38 00
        E 0 90 37 66
        E 16 b0 0b 5d
        E 64 b0 0b 55
        E 32 b0 0b 4c
        E 32 b0 0b 44
        E 16 b0 0b 3b
        E 32 b0 0b 33
        E 16 b0 0b 2a
        E 32 b0 0b 22
        E 32 b0 0b 19
        E 16 b0 0b 11
        E 32 b0 0b 08
        E 16 80 37 00
        E 32 b0 0b 66
        E 0 90 3f 66
        E 16 b0 0b 5d
        E 128 b0 0b 55
        E 128 b0 0b 4c
        E 128 b0 0b 44
        E 128 b0 0b 3b
        E 128 b0 0b 33
        E 128 b0 0b 2a
        E 128 b0 0b 22
        E 128 b0 0b 19
        E 128 b0 0b 11
        E 16 b0 0b 08
        E 32 80 3f 00
        E 336 b0 0b 66
        E 0 90 3a 66
        E 16 b0 0b 5d
        E 128 b0 0b 55
        E 128 b0 0b 4c
        E 128 b0 0b 44
        E 128 b0 0b 3b
        E 128 b0 0b 33
        E 128 b0 0b 2a
        E 128 b0 0b 22
        E 128 b0 0b 19
        E 128 b0 0b 11
        E 128 b0 0b 08
        E 224 80 3a 00
        E 48 b0 0b 66
        E 0 90 3a 66
        E 16 b0 0b 5d
        E 64 b0 0b 55
        E 32 b0 0b 66
        E 0 80 3a 00
        E 0 90 3c 66
        E 16 b0 0b 5d
        E 64 b0 0b 55
        E 32 b0 0b 4c
        E 16 b0 0b 66
        E 0 80 3c 00
        E 0 90 3a 66
        E 16 b0 0b 5d
        E 80 b0 0b 55
        E 16 b0 0b 66
        E 0 80 3a 00
        E 0 90 39 66
        E 16 b0 0b 5d
        E 64 b0 0b 55
        E 32 b0 0b 4c
        E 32 b0 0b 44
        E 16 b0 0b 3b
        E 32 b0 0b 33
        E 16 b0 0b 2a
        E 32 b0 0b 22
        E 32 b0 0b 19
        E 16 b0 0b 11
        E 32 b0 0b 08
        E 16 80 39 00
        E 32 b0 0b 66
        E 0 90 35 66
        E 16 b0 0b 5d
        E 128 b0 0b 55
        E 128 b0 0b 4c
        E 128 b0 0b 44
        E 128 b0 0b 3b
        E 128 b0 0b 33
        E 128 b0 0b 2a
        E 64 b0 0b 22
        E 16 b0 0b 19
        E 32 b0 0b 11
        E 16 b0 0b 08
        E 32 80 35 00
        E 144 b0 0b 66
        E 0 90 35 66
        E 16 b0 0b 5d
        E 64 b0 0b 55
        E 32 b0 0b 4c
        E 32 b0 0b 44
        E 16 b0 0b 3b
        E 32 b0 0b 33
        E 16 b0 0b 2a
        E 32 b0 0b 66
        E 0 80 35 00
        E 0 90 37 66
        E 16 b0 0b 5d
        E 64 b0 0b 55
        E 32 b0 0b 4c
        E 32 b0 0b 44
        E 16 b0 0b 3b
        E 32 b0 0b 33
        E 16 b0 0b 2a
        E 32 b0 0b 66
        E 0 80 37 00
        E 0 90 38 66
        E 16 b0 0b 5d
        E 128 b0 0b 55
        E 128 b0 0b 4c
        E 128 b0 0b 44
        E 128 b0 0b 3b
        E 128 b0 0b 33
        E 128 b0 0b 2a
        E 128 b0 0b 22
        E 128 b0 0b 19
        E 128 b0 0b 11
        E 128 b0 0b 08
        E 224 80 38 00
        E 32 b0 0b 66
        E 0 90 38 66
        E 16 b0 0b 5d
        E 64 b0 0b 55
        E 32 b0 0b 4c
        E 16 b0 0b 66
        E 0 80 38 00
        E 0 90 37 66
        E 16 b0 0b 5d
        E 64 b0 0b 55
        E 32 b0 0b 66
        E 0 80 37 00
        E 0 90 35 66
        E 16 b0 0b 5d
        E 64 b0 0b 55
        E 32 b0 0b 4c
        E 16 b0 0b 66
        E 0 80 35 00
        E 0 90 33 66
        E 16 b0 0b 5d
        E 128 b0 0b 55
        E 128 b0 0b 4c
        E 128 b0 0b 44
        E 128 b0 0b 3b
        E 128 b0 0b 33
        E 128 b0 0b 2a
        E 128 b0 0b 22
        E 128 b0 0b 19
        E 128 b0 0b 11
        E 128 b0 0b 08
        E 128 80 33 00
        E 736 b0 0b 66
        E 0 90 35 66
        E 16 b0 0b 5d
        E 64 b0 0b 55
        E 32 b0 0b 4c
        E 32 b0 0b 44
        E 16 b0 0b 3b
        E 32 b0 0b 33
        E 16 b0 0b 2a
        E 32 b0 0b 66
        E 16 b0 0b 5d
        E 64 b0 0b 55
        E 32 b0 0b 4c
        E 32 b0 0b 44
        E 16 b0 0b 3b
        E 32 b0 0b 33
        E 16 b0 0b 2a
        E 32 b0 0b 66
        E 16 b0 0b 5d
        E 64 b0 0b 55
        E 32 80 35 00
        E 16 b0 0c 40
        E 0 b0 0b 7f
        E 0 90 3c 7f
        E 16 b0 0b 4c
        E 16 b0 0b 11
        E 32 b0 0b 7f
        E 0 80 3c 00
        E 0 90 3e 7f
        E 16 b0 0b 4c
        E 16 b0 0b 11
        E 32 b0 0b 7f
        E 0 80 3e 00
        E 0 90 40 7f
        E 16 b0 0b 4c
        E 16 b0 0b 11
        E 32 b0 0b 7f
        E 0 80 40 00
        E 0 90 43 7f
        E 16 b0 0b 4c
        E 16 b0 0b 11
        E 32 b0 0b 7f
        E 0 80 43 00
        E 0 90 47 7f
        E 16 b0 0b 4c
        E 16 b0 0b 11
        E 16 80 47 00
        E 32 b0 0b 08
        E 0 90 47 08
        E 16 b0 0b 2a
        E 32 b0 0b 22
        E 16 b0 0b 19
        E 16 80 47 00
        E 48 b0 0b 11
        E 0 90 47 11
        E 32 b0 0b 08
        E 32 80 47 00
        E 48 b0 0c 20
        E 0 b0 0b 44
        E 0 90 38 44
        E 16 b0 0b 66
        E 0 80 38 00
        E 0 90 37 66
        E 16 b0 0b 5d
        E 128 b0 0b 55
        E 48 b0 0b 4c
        E 16 b0 0b 44
        E 32 b0 0b 66
        E 0 80 37 00
        E 0 90 35 66
        E 16 b0 0b 5d
        E 128 b0 0b 55
        E 48 b0 0b 4c
        E 16 b0 0b 44
        E 32 b0 0b 66
        E 0 80 35 00
        E 0 90 33 66
        E 16 b0 0b 5d
        E 128 b0 0b 55
        E 48 b0 0b 4c
        E 16 b0 0b 44
        E 32 b0 0b 3b
        E 32 b0 0b 33
        E 16 b0 0b 2a
        E 32 b0 0b 22
        E 16 b0 0b 19
        E 32 b0 0b 11
        E 32 b0 0b 08
        E 16 80 33 00
        E 64 b0 0b 66
        E 0 90 35 66
        E 16 b0 0b 5d
        E 128 b0 0b 55
        E 48 b0 0b 4c
        E 16 b0 0b 44
        E 32 b0 0b 3b
        E 32 b0 0b 33
        E 16 b0 0b 2a
        E 32 b0 0b 22
        E 16 b0 0b 19
        E 32 b0 0b 11
        E 32 b0 0b 08
        E 16 80 35 00
        E 64 b0 0b 66
        E 0 90 37 66
        E 16 b0 0b 5d
        E 128 b0 0b 55
        E 48 b0 0b 4c
        E 16 b0 0b 44
        E 32 b0 0b 3b
        E 32 b0 0b 33
        E 16 b0 0b 2a
        E 32 b0 0b 22
        E 16 b0 0b 19
        E 32 b0 0b 66
        E 0 80 37 00
        E 0 90 3a 66
        E 16 b0 0b 5d
        E 128 b0 0b 55
        E 128 b0 0b 4c
        E 128 b0 0b 44
        E 64 b0 0b 3b
        E 32 b0 0b 33
        E 32 b0 0b 2a
        E 16 b0 0b 22
        E 32 b0 0b 19
        E 16 b0 0b 11
        E 32 b0 0b 08
        E 32 80 3a 00
        E 176 b0 0b 66
        E 0 90 3f 66
        E 16 b0 0b 5d
        E 64 b0 0b 55
        E 32 b0 0b 4c
        E 32 b0 0b 44
        E 16 b0 0b 3b
        E 32 b0 0b 33
        E 16 b0 0b 2a
        E 32 b0 0b 66
        E 16 b0 0b 5d
        E 64 b0 0b 55
        E 32 b0 0b 4c
        E 32 b0 0b 44
        E 16 b0 0b 3b
        E 32 b0 0b 33
        E 16 b0 0b 2a
        E 32 b0 0b 66
        E 16 b0 0b 5d
        E 64 b0 0b 55
        E 32 b0 0b 4c
        E 32 b0 0b 44
        E 16 b0 0b 3b
        E 32 b0 0b 33
        E 16 b0 0b 2a
        E 32 b0 0b 66
        E 0 80 3f 00
        E 0 90 3e 66
        E 16 b0 0b 5d
        E 128 b0 0b 55
        E 48 b0 0b 4c
        E 16 b0 0b 44
        E 32 b0 0b 66
        E 0 80 3e 00
        E 0 90 3c 66
        E 16 b0 0b 5d
        E 128 b0 0b 55
        E 48 b0 0b 4c
        E 16 b0 0b 44
        E 32 b0 0b 66
        E 0 80 3c 00
        E 0 90 3b 66
        E 16 b0 0b 5d
        E 128 b0 0b 55
        E 48 b0 0b 4c
        E 16 b0 0b 44
        E 32 b0 0b 66
        E 0 80 3b 00
        E 0 90 3c 66
        E 16 b0 0b 5d
        E 128 b0 0b 55
        E 48 b0 0b 4c
        E 16 b0 0b 44
        E 32 b0 0b 66
        E 0 80 3c 00
        E 0 90 3e 66
        E 16 b0 0b 5d
        E 128 b0 0b 55
        E 48 b0 0b 4c
        E 16 b0 0b 44
        E 32 b0 0b 3b
        E 32 b0 0b 33
        E 16 b0 0b 2a
        E 32 b0 0b 22
        E 16 b0 0b 19
        E 32 b0 0b 11
        E 32 b0 0b 08
        E 16 80 3e 00
        E 64 b0 0b 66
        E 0 90 3f 66
        E 16 b0 0b 5d
        E 128 b0 0b 55
        E 48 b0 0b 4c
        E 16 b0 0b 44
        E 32 b0 0b 3b
        E 32 b0 0b 33
        E 16 b0 0b 2a
        E 32 b0 0b 22
        E 16 b0 0b 19
        E 32 b0 0b 11
        E 32 b0 0b 08
        E 16 80 3f 00
        E 80 b0 0b 66
        E 0 90 41 66
        E 16 b0 0b 5d
        E 128 b0 0b 55
        E 48 b0 0b 4c
        E 16 b0 0b 44
        E 32 b0 0b 3b
        E 32 b0 0b 33
        E 16 b0 0b 2a
        E 32 b0 0b 22
        E 16 b0 0b 19
        E 32 b0 0b 11
        E 32 b0 0b 08
        E 16 80 41 00
        E 176 b0 0b 66
        E 0 90 3a 66
        E 16 b0 0b 5d
        E 128 b0 0b 55
        E 112 b0 0b 4c
        E 16 b0 0b 44
        E 32 b0 0b 3b
        E 32 b0 0b 33
        E 16 b0 0b 2a
        E 32 b0 0b 22
        E 16 b0 0b 19
        E 32 b0 0b 11
        E 32 b0 0b 08
        E 16 80 3a 00
        E 128 b0 0b 66
        E 0 90 44 66
        E 16 b0 0b 5d
        E 128 b0 0b 55
        E 48 b0 0b 4c
        E 16 b0 0b 44
        E 32 b0 0b 3b
        E 32 b0 0b 33
        E 16 b0 0b 2a
        E 32 b0 0b 22
        E 16 b0 0b 19
        E 16 b0 0b 66
        E 0 80 44 00
        E 0 90 43 66
        E 16 b0 0b 5d
        E 128 b0 0b 55
        E 48 b0 0b 4c
        E 16 b0 0b 44
        E 32 b0 0b 3b
        E 32 b0 0b 33
        E 16 b0 0b 2a
        E 32 b0 0b 22
        E 16 b0 0b 19
        E 32 b0 0b 66
        E 0 80 43 00
        E 0 90 3f 66
        E 16 b0 0b 5d
        E 128 b0 0b 55
        E 48 b0 0b 4c
        E 16 b0 0b 44
        E 32 b0 0b 3b
        E 32 b0 0b 33
        E 16 b0 0b 2a
        E 32 b0 0b 22
        E 16 b0 0b 19
        E 16 b0 0b 66
        E 0 80 3f 00
        E 0 90 3a 66
        E 16 b0 0b 5d
        E 128 b0 0b 55
        E 128 b0 0b 4c
        E 128 b0 0b 44
        E 80 b0 0b 3b
        E 32 b0 0b 33
        E 16 b0 0b 2a
        E 32 b0 0b 22
        E 32 b0 0b 19
        E 16 b0 0b 66
        E 0 80 3a 00
        E 0 90 39 66
        E 16 b0 0b 5d
        E 64 b0 0b 55
        E 32 b0 0b 4c
        E 32 b0 0b 44
        E 16 b0 0b 3b
        E 32 b0 0b 33
        E 16 b0 0b 2a
        E 32 b0 0b 66
        E 16 b0 0b 5d
        E 64 b0 0b 55
        E 32 b0 0b 4c
        E 32 b0 0b 44
        E 16 b0 0b 3b
        E 32 b0 0b 33
        E 16 b0 0b 2a
        E 32 b0 0b 66
        E 16 b0 0b 5d
        E 64 b0 0b 55
        E 32 b0 0b 4c
        E 32 b0 0b 44
        E 16 b0 0b 3b
        E 32 b0 0b 33
        E 16 b0 0b 2a
        E 32 b0 0b 66
        E 16 b0 0b 5d
        E 64 b0 0b 55
        E 32 b0 0b 66
        E 0 80 39 00
        E 0 90 41 66
        E 16 b0 0b 5d
        E 128 b0 0b 55
        E 128 b0 0b 4c
        E 128 b0 0b 44
        E 128 b0 0b 3b
        E 128 b0 0b 33
        E 128 b0 0b 2a
        E 64 b0 0b 22
        E 16 b0 0b 19
        E 32 b0 0b 11
        E 16 b0 0b 08
        E 32 80 41 00
        E 384 b0 0b 66
        E 0 90 3f 66
        E 16 b0 0b 5d
        E 128 b0 0b 55
        E 48 b0 0b 4c
        E 16 b0 0b 44
        E 32 b0 0b 3b
        E 32 b0 0b 33
        E 16 b0 0b 2a
        E 32 b0 0b 22
        E 16 b0 0b 19
        E 32 b0 0b 66
        E 0 80 3f 00
        E 0 90 3b 66
        E 16 b0 0b 5d
        E 128 b0 0b 55
        E 48 b0 0b 4c
        E 16 b0 0b 44
        E 32 b0 0b 3b
        E 32 b0 0b 33
        E 16 b0 0b 2a
        E 32 b0 0b 22
        E 16 b0 0b 19
        E 16 b0 0b 66
        E 0 80 3b 00
        E 0 90 38 66
        E 16 b0 0b 5d
        E 128 b0 0b 55
        E 112 b0 0b 4c
        E 16 b0 0b 44
        E 32 b0 0b 3b
        E 32 b0 0b 33
        E 16 b0 0b 2a
        E 16 b0 0b 66
        E 0 80 38 00
        E 0 90 33 66
        E 16 b0 0b 5d
        E 128 b0 0b 55
        E 112 b0 0b 4c
        E 16 b0 0b 44
        E 32 b0 0b 3b
        E 32 b0 0b 33
        E 16 b0 0b 66
        E 0 80 33 00
        E 0 90 35 66
        E 16 b0 0b 5d
        E 128 b0 0b 55
        E 48 b0 0b 4c
        E 16 b0 0b 44
        E 32 b0 0b 66
        E 0 80 35 00
        E 0 90 37 66
        E 16 b0 0b 5d
        E 128 b0 0b 55
        E 128 b0 0b 4c
        E 128 b0 0b 44
        E 128 b0 0b 3b
        E 128 b0 0b 33
        E 128 b0 0b 2a
        E 128 b0 0b 22
        E 128 b0 0b 19
        E 128 b0 0b 11
        E 128 b0 0b 08
        E 128 80 37 00
        E 736 b0 0b 66
        E 0 90 44 66
        E 16 b0 0b 5d
        E 128 b0 0b 55
        E 48 b0 0b 4c
        E 16 b0 0b 44
        E 32 b0 0b 3b
        E 32 b0 0b 33
        E 16 b0 0b 2a
        E 32 b0 0b 22
        E 16 b0 0b 19
        E 32 b0 0b 66
        E 0 80 44 00
        E 0 90 43 66
        E 16 b0 0b 5d
        E 128 b0 0b 55
        E 48 b0 0b 4c
        E 16 b0 0b 44
        E 32 b0 0b 3b
        E 32 b0 0b 33
        E 16 b0 0b 2a
        E 32 b0 0b 22
        E 16 b0 0b 19
        E 16 b0 0b 66
        E 0 80 43 00
        E 0 90 3f 66
        E 16 b0 0b 5d
        E 128 b0 0b 55
        E 48 b0 0b 4c
        E 16 b0 0b 44
        E 32 b0 0b 3b
        E 32 b0 0b 33
        E 16 b0 0b 2a
        E 32 b0 0b 22
        E 16 b0 0b 19
        E 32 b0 0b 66
        E 0 80 3f 00
        E 0 90 3a 66
        E 16 b0 0b 5d
        E 128 b0 0b 55
        E 128 b0 0b 4c
        E 128 b0 0b 44
        E 64 b0 0b 3b
        E 32 b0 0b 33
        E 32 b0 0b 2a
        E 16 b0 0b 22
        E 32 b0 0b 19
        E 16 b0 0b 66
        E 0 80 3a 00
        E 0 90 39 66
        E 16 b0 0b 5d
        E 64 b0 0b 55
        E 32 b0 0b 4c
        E 32 b0 0b 44
        E 16 b0 0b 3b
        E 32 b0 0b 33
        E 16 b0 0b 2a
        E 32 b0 0b 22
        E 16 b0 0b 66
        E 16 b0 0b 5d
        E 64 b0 0b 55
        E 32 b0 0b 4c
        E 32 b0 0b 44
        E 16 b0 0b 3b
        E 32 b0 0b 33
        E 16 b0 0b 2a
        E 32 b0 0b 66
        E 16 b0 0b 5d
        E 64 b0 0b 55
        E 32 b0 0b 4c
        E 32 b0 0b 44
        E 16 b0 0b 3b
        E 32 b0 0b 33
        E 16 b0 0b 2a
        E 32 b0 0b 66
        E 16 b0 0b 5d
        E 64 b0 0b 55
        E 32 b0 0b 66
        E 0 80 39 00
        E 0 90 41 66
        E 16 b0 0b 5d
        E 128 b0 0b 55
        E 128 b0 0b 4c
        E 128 b0 0b 44
        E 128 b0 0b 3b
        E 128 b0 0b 33
        E 128 b0 0b 2a
        E 64 b0 0b 22
        E 16 b0 0b 19
        E 32 b0 0b 11
        E 16 b0 0b 08
        E 32 80 41 00
        E 384 b0 0b 66
        E 0 90 3f 66
        E 16 b0 0b 5d
        E 128 b0 0b 55
        E 48 b0 0b 4c
        E 16 b0 0b 44
        E 32 b0 0b 3b
        E 32 b0 0b 33
        E 16 b0 0b 2a
        E 32 b0 0b 22
        E 16 b0 0b 19
        E 16 b0 0b 66
        E 0 80 3f 00
        E 0 90 3b 66
        E 16 b0 0b 5d
        E 128 b0 0b 55
        E 48 b0 0b 4c
        E 16 b0 0b 44
        E 32 b0 0b 3b
        E 32 b0 0b 33
        E 16 b0 0b 2a
        E 32 b0 0b 22
        E 16 b0 0b 19
        E 32 b0 0b 66
        E 0 80 3b 00
        E 0 90 38 66
        E 16 b0 0b 5d
        E 128 b0 0b 55
        E 112 b0 0b 4c
        E 16 b0 0b 44
        E 32 b0 0b 3b
        E 32 b0 0b 33
        E 16 b0 0b 66
        E 0 80 38 00
        E 0 90 37 66
        E 16 b0 0b 5d
        E 128 b0 0b 55
        E 128 b0 0b 4c
        E 16 b0 0b 44
        E 32 b0 0b 3b
        E 16 b0 0b 33
        E 32 b0 0b 66
        E 0 80 37 00
        E 0 90 35 66
        E 16 b0 0b 5d
        E 128 b0 0b 55
        E 48 b0 0b 4c
        E 16 b0 0b 44
        E 32 b0 0b 66
        E 0 80 35 00
        E 0 90 37 66
        E 16 b0 0b 5d
        E 64 b0 0b 55
        E 32 b0 0b 66
        E 0 80 37 00
        E 0 90 35 66
        E 16 b0 0b 5d
        E 64 b0 0b 55
        E 32 b0 0b 4c
        E 16 b0 0b 66
        E 0 80 35 00
        E 0 90 33 66
        E 16 b0 0b 5d
        E 128 b0 0b 55
        E 128 b0 0b 4c
        E 128 b0 0b 44
        E 128 b0 0b 3b
        E 128 b0 0b 33
        E 128 b0 0b 2a
        E 128 b0 0b 22
        E 128 b0 0b 19
        E 128 b0 0b 11
        E 128 b0 0b 08
        E 16 80 33 00
        E 368 b0 0b 66
        E 0 90 3a 66
        E 16 b0 0b 5d
        E 128 b0 0b 55
        E 128 b0 0b 4c
        E 128 b0 0b 44
        E 128 b0 0b 3b
        E 128 b0 0b 33
        E 128 b0 0b 2a
        E 128 b0 0b 22
        E 128 b0 0b 19
        E 128 b0 0b 11
        E 128 b0 0b 08
        E 224 80 3a 00
        E 48 b0 0b 66
        E 0 90 3a 66
        E 16 b0 0b 5d
        E 64 b0 0b 55
        E 32 b0 0b 66
        E 0 80 3a 00
        E 0 90 3c 66
        E 16 b0 0b 5d
        E 64 b0 0b 55
        E 32 b0 0b 4c
        E 16 b0 0b 66
        E 0 80 3c 00
        E 0 90 3a 66
        E 16 b0 0b 5d
        E 64 b0 0b 55
        E 32 b0 0b 66
        E 0 80 3a 00
        E 0 90 39 66
        E 16 b0 0b 5d
        E 64 b0 0b 55
        E 32 b0 0b 4c
        E 32 b0 0b 44
        E 16 b0 0b 3b
        E 32 b0 0b 33
        E 16 b0 0b 2a
        E 32 b0 0b 22
        E 32 b0 0b 19
        E 16 b0 0b 11
        E 32 b0 0b 08
        E 16 80 39 00
        E 32 b0 0b 66
        E 0 90 35 66
        E 16 b0 0b 5d
        E 128 b0 0b 55
        E 128 b0 0b 4c
        E 128 b0 0b 44
        E 128 b0 0b 3b
        E 128 b0 0b 33
        E 128 b0 0b 2a
        E 64 b0 0b 22
        E 16 b0 0b 19
        E 32 b0 0b 11
        E 16 b0 0b 08
        E 32 80 35 00
        E 128 b0 0b 66
        E 0 90 35 66
        E 16 b0 0b 5d
        E 64 b0 0b 55
        E 32 b0 0b 4c
        E 32 b0 0b 44
        E 16 b0 0b 3b
        E 32 b0 0b 33
        E 16 b0 0b 2a
        E 32 b0 0b 66
        E 0 80 35 00
        E 0 90 37 66
        E 16 b0 0b 5d
        E 64 b0 0b 55
        E 32 b0 0b 4c
        E 32 b0 0b 44
        E 16 b0 0b 3b
        E 32 b0 0b 33
        E 16 b0 0b 2a
        E 32 b0 0b 66
        E 0 80 37 00
        E 0 90 38 66
        E 16 b0 0b 5d
        E 128 b0 0b 55
        E 128 b0 0b 4c
        E 128 b0 0b 44
        E 128 b0 0b 3b
        E 128 b0 0b 33
        E 128 b0 0b 2a
        E 128 b0 0b 22
        E 128 b0 0b 19
        E 128 b0 0b 11
        E 128 b0 0b 08
        E 240 80 38 00
        E 32 b0 0b 66
        E 0 90 38 66
        E 16 b0 0b 5d
        E 64 b0 0b 55
        E 32 b0 0b 4c
        E 16 b0 0b 66
        E 0 80 38 00
        E 0 90 3a 66
        E 16 b0 0b 5d
        E 64 b0 0b 55
        E 32 b0 0b 66
        E 0 80 3a 00
        E 0 90 38 66
        E 16 b0 0b 5d
        E 64 b0 0b 55
        E 32 b0 0b 4c
        E 16 b0 0b 66
        E 0 80 38 00
        E 0 90 37 66
        E 16 b0 0b 5d
        E 64 b0 0b 55
        E 32 b0 0b 4c
        E 32 b0 0b 44
        E 16 b0 0b 3b
        E 32 b0 0b 33
        E 16 b0 0b 2a
        E 32 b0 0b 22
        E 32 b0 0b 19
        E 16 b0 0b 11
        E 32 b0 0b 08
        E 16 80 37 00
        E 16 b0 0b 66
        E 0 90 3f 66
        E 16 b0 0b 5d
        E 128 b0 0b 55
        E 128 b0 0b 4c
        E 128 b0 0b 44
        E 128 b0 0b 3b
        E 128 b0 0b 33
        E 128 b0 0b 2a
        E 128 b0 0b 22
        E 128 b0 0b 19
        E 128 b0 0b 11
        E 48 b0 0b 08
        E 16 80 3f 00
        E 336 b0 0b 66
        E 0 90 3a 66
        E 16 b0 0b 5d
        E 128 b0 0b 55
        E 128 b0 0b 4c
        E 128 b0 0b 44
        E 128 b0 0b 3b
        E 128 b0 0b 33
        E 128 b0 0b 2a
        E 128 b0 0b 22
        E 128 b0 0b 19
        E 128 b0 0b 11
        E 128 b0 0b 08
        E 224 80 3a 00
        E 32 b0 0b 66
        E 0 90 3a 66
        E 16 b0 0b 5d
        E 64 b0 0b 55
        E 32 b0 0b 4c
        E 16 b0 0b 66
        E 0 80 3a 00
        E 0 90 3c 66
        E 16 b0 0b 5d
        E 64 b0 0b 55
        E 32 b0 0b 66
        E 0 80 3c 00
        E 0 90 3a 66
        E 16 b0 0b 5d
        E 64 b0 0b 55
        E 32 b0 0b 4c
        E 16 b0 0b 66
        E 0 80 3a 00
        E 0 90 39 66
        E 16 b0 0b 5d
        E 64 b0 0b 55
        E 32 b0 0b 4c
        E 32 b0 0b 44
        E 16 b0 0b 3b
        E 32 b0 0b 33
        E 16 b0 0b 2a
        E 32 b0 0b 22
        E 32 b0 0b 19
        E 16 b0 0b 11
        E 32 b0 0b 08
        E 16 80 39 00
        E 16 b0 0b 66
        E 0 90 35 66
        E 16 b0 0b 5d
        E 128 b0 0b 55
        E 128 b0 0b 4c
        E 128 b0 0b 44
        E 128 b0 0b 3b
        E 128 b0 0b 33
        E 128 b0 0b 2a
        E 64 b0 0b 22
        E 16 b0 0b 19
        E 32 b0 0b 11
        E 16 b0 0b 08
        E 32 80 35 00
        E 144 b0 0b 66
        E 0 90 35 66
        E 16 b0 0b 5d
        E 64 b0 0b 55
        E 32 b0 0b 4c
        E 32 b0 0b 44
        E 16 b0 0b 3b
        E 32 b0 0b 33
        E 16 b0 0b 2a
        E 32 b0 0b 66
        E 0 80 35 00
        E 0 90 37 66
        E 16 b0 0b 5d
        E 64 b0 0b 55
        E 32 b0 0b 4c
        E 32 b0 0b 44
        E 16 b0 0b 3b
        E 32 b0 0b 33
        E 16 b0 0b 2a
        E 32 b0 0b 66
        E 0 80 37 00
        E 0 90 38 66
        E 16 b0 0b 5d
        E 128 b0 0b 55
        E 128 b0 0b 4c
        E 128 b0 0b 44
        E 128 b0 0b 3b
        E 128 b0 0b 33
        E 128 b0 0b 2a
        E 128 b0 0b 22
        E 128 b0 0b 19
        E 128 b0 0b 11
        E 128 b0 0b 08
        E 224 80 38 00
        E 48 b0 0b 66
        E 0 90 38 66
        E 16 b0 0b 5d
        E 64 b0 0b 55
        E 32 b0 0b 66
        E 0 80 38 00
        E 0 90 37 66
        E 16 b0 0b 5d
        E 64 b0 0b 55
        E 32 b0 0b 4c
        E 16 b0 0b 66
        E 0 80 37 00
        E 0 90 35 66
        E 16 b0 0b 5d
        E 64 b0 0b 55
        E 32 b0 0b 66
        E 0 80 35 00
        E 0 90 33 66
        E 16 b0 0b 5d
        E 48 80 33 00
        E 0 b0 7b 00
        E 0 ff 2f 00
      >
    >
  >
  <TRACK {46E3256C-7122-46C1-9BB2-795CF3D45E6F}
    NAME "NES - Pulse 2 [ch1]"
    PEAKCOL 10092441
    BEAT -1
    AUTOMODE 0
    PANLAWFLAGS 3
    VOLPAN 1 0 -1 -1 1
    MUTESOLO 0 0 0
    IPHASE 0
    PLAYOFFS 0 1
    ISBUS 0 0
    BUSCOMP 0 0 0 0 0
    SHOWINMIX 1 0.6667 0.5 1 0.5 0 0 0
    FIXEDLANES 9 0 0 0 0
    SEL 0
    REC 0 5088 1 0 0 0 0 0
    VU 2
    TRACKHEIGHT 0 0 0 0 0 0 0
    INQ 0 0 0 0.5 100 0 0 100
    NCHAN 2
    FX 1
    TRACKID {46E3256C-7122-46C1-9BB2-795CF3D45E6F}
    PERF 0
    MIDIOUT -1
    MAINSEND 1 0
    <FXCHAIN
      WNDRECT 24 52 700 560
      SHOW 0
      LASTSEL 0
      DOCKED 0
      BYPASS 0 0 0
      <JS "ReapNES Studio/ReapNES_Console.jsfx" ""
        2 15 1 10 80 10 100 2 1 15 1 5 60 10 80 1 1 0 50 0 0 15 1 0 100 0 0 0.500000 0.500000 0.400000 0.300000 0.800000 1 1 0 0 0 0 - - - - - - - - - - - - - - - - - - - - - - - - - -
      >
      FLOATPOS 0 0 0 0
      FXID {C648E5A8-E9CD-4865-830C-DEF8C5B5E26F}
      WAK 0 0
    >
    <ITEM
      POSITION 0
      LENGTH 73.6702977
      LOOP 0
      ALLTAKES 0
      FADEIN 0 0 0 0 0 0 0
      FADEOUT 0 0 0 0 0 0 0
      MUTE 0 0
      SEL 0
      IGUID {AC456850-F6B7-4EEA-8EF5-93E0AE7B0E0C}
      <SOURCE MIDI
        HASDATA 1 480 QN
        CCINTERP 32
        E 0 c1 51
        E 0 b1 0c 20
        E 0 b1 0b 7f
        E 0 91 29 7f
        E 16 b1 0b 66
        E 16 b1 0b 4c
        E 16 b1 0b 33
        E 16 b1 0b 44
        E 16 b1 0b 5d
        E 16 b1 0b 66
        E 16 b1 0b 5d
        E 16 b1 0b 55
        E 16 b1 0b 3b
        E 32 b1 0b 4c
        E 32 b1 0b 44
        E 32 b1 0b 3b
        E 16 b1 0b 33
        E 48 b1 0b 2a
        E 32 b1 0b 22
        E 32 b1 0b 19
        E 32 b1 0b 11
        E 32 b1 0b 08
        E 16 b1 0b 7f
        E 0 81 29 00
        E 0 91 2c 7f
        E 16 b1 0b 66
        E 16 b1 0b 4c
        E 16 b1 0b 33
        E 16 b1 0b 44
        E 16 b1 0b 5d
        E 16 b1 0b 66
        E 16 b1 0b 5d
        E 16 b1 0b 55
        E 16 b1 0b 3b
        E 32 b1 0b 4c
        E 32 b1 0b 44
        E 32 b1 0b 3b
        E 16 b1 0b 33
        E 48 b1 0b 2a
        E 32 b1 0b 22
        E 32 b1 0b 19
        E 32 b1 0b 11
        E 32 b1 0b 7f
        E 0 81 2c 00
        E 0 91 2f 7f
        E 16 b1 0b 66
        E 16 b1 0b 4c
        E 16 b1 0b 33
        E 16 b1 0b 44
        E 16 b1 0b 5d
        E 16 b1 0b 66
        E 16 b1 0b 5d
        E 16 b1 0b 55
        E 16 b1 0b 3b
        E 32 b1 0b 4c
        E 32 b1 0b 44
        E 32 b1 0b 3b
        E 16 b1 0b 33
        E 48 b1 0b 2a
        E 32 b1 0b 22
        E 32 b1 0b 19
        E 32 b1 0b 11
        E 32 b1 0b 7f
        E 0 81 2f 00
        E 0 91 35 7f
        E 16 b1 0b 66
        E 16 b1 0b 4c
        E 16 b1 0b 33
        E 16 b1 0b 44
        E 16 b1 0b 5d
        E 16 b1 0b 66
        E 16 b1 0b 5d
        E 16 b1 0b 55
        E 16 b1 0b 3b
        E 32 b1 0b 4c
        E 32 b1 0b 44
        E 32 b1 0b 3b
        E 16 b1 0b 33
        E 48 b1 0b 2a
        E 32 b1 0b 22
        E 32 b1 0b 19
        E 32 b1 0b 11
        E 32 b1 0b 7f
        E 0 81 35 00
        E 0 91 36 7f
        E 16 b1 0b 66
        E 16 b1 0b 4c
        E 16 b1 0b 33
        E 16 b1 0b 44
        E 16 b1 0b 5d
        E 16 b1 0b 77
        E 32 b1 0b 55
        E 16 b1 0b 3b
        E 32 b1 0b 55
        E 16 b1 0b 6e
        E 16 b1 0b 77
        E 16 b1 0b 66
        E 16 b1 0b 4c
        E 16 b1 0b 33
        E 16 b1 0b 4c
        E 16 b1 0b 66
        E 16 b1 0b 6e
        E 32 b1 0b 55
        E 16 b1 0b 3b
        E 32 b1 0b 5d
        E 16 b1 0b 6e
        E 32 b1 0b 5d
        E 16 b1 0b 44
        E 16 b1 0b 33
        E 16 b1 0b 4c
        E 16 b1 0b 66
        E 16 b1 0b 6e
        E 16 b1 0b 7f
        E 16 b1 0b 66
        E 16 b1 0b 4c
        E 16 b1 0b 33
        E 16 b1 0b 44
        E 16 b1 0b 5d
        E 16 b1 0b 77
        E 16 b1 0b 7f
        E 0 81 36 00
        E 0 91 38 7f
        E 16 b1 0b 66
        E 16 b1 0b 4c
        E 16 b1 0b 33
        E 16 b1 0b 44
        E 16 b1 0b 5d
        E 16 b1 0b 77
        E 16 b1 0b 7f
        E 0 81 38 00
        E 0 91 3a 7f
        E 16 b1 0b 66
        E 16 b1 0b 4c
        E 16 b1 0b 33
        E 16 b1 0b 44
        E 16 b1 0b 5d
        E 16 b1 0b 66
        E 16 b1 0b 5d
        E 16 b1 0b 55
        E 16 b1 0b 3b
        E 32 b1 0b 55
        E 16 b1 0b 5d
        E 48 b1 0b 4c
        E 16 b1 0b 33
        E 16 b1 0b 4c
        E 16 b1 0b 55
        E 64 b1 0b 3b
        E 32 b1 0b 55
        E 64 b1 0b 44
        E 16 b1 0b 33
        E 16 b1 0b 4c
        E 16 b1 0b 55
        E 16 b1 0b 4c
        E 32 b1 0b 7f
        E 0 81 3a 00
        E 0 91 36 7f
        E 16 b1 0b 66
        E 16 b1 0b 4c
        E 16 b1 0b 33
        E 16 b1 0b 44
        E 16 b1 0b 5d
        E 16 b1 0b 77
        E 32 b1 0b 55
        E 16 b1 0b 3b
        E 32 b1 0b 55
        E 16 b1 0b 6e
        E 16 b1 0b 77
        E 16 b1 0b 66
        E 16 b1 0b 4c
        E 16 b1 0b 33
        E 16 b1 0b 4c
        E 16 b1 0b 66
        E 16 b1 0b 6e
        E 32 b1 0b 55
        E 16 b1 0b 3b
        E 32 b1 0b 5d
        E 16 b1 0b 6e
        E 32 b1 0b 7f
        E 16 b1 0b 66
        E 16 b1 0b 4c
        E 16 b1 0b 33
        E 16 b1 0b 44
        E 16 b1 0b 5d
        E 16 b1 0b 77
        E 32 b1 0b 55
        E 16 b1 0b 3b
        E 32 b1 0b 55
        E 16 b1 0b 6e
        E 16 b1 0b 77
        E 16 b1 0b 66
        E 16 b1 0b 4c
        E 16 b1 0b 33
        E 16 b1 0b 4c
        E 16 b1 0b 66
        E 16 b1 0b 6e
        E 32 b1 0b 55
        E 16 b1 0b 3b
        E 32 b1 0b 5d
        E 16 b1 0b 6e
        E 32 b1 0b 5d
        E 16 b1 0b 44
        E 16 b1 0b 33
        E 16 b1 0b 4c
        E 16 b1 0b 66
        E 16 b1 0b 6e
        E 16 b1 0b 7f
        E 16 b1 0b 66
        E 16 b1 0b 4c
        E 16 b1 0b 33
        E 16 b1 0b 44
        E 16 b1 0b 5d
        E 16 b1 0b 77
        E 16 b1 0b 7f
        E 0 81 36 00
        E 0 91 38 7f
        E 16 b1 0b 66
        E 16 b1 0b 4c
        E 16 b1 0b 33
        E 16 b1 0b 44
        E 16 b1 0b 5d
        E 16 b1 0b 77
        E 16 b1 0b 7f
        E 0 81 38 00
        E 0 91 39 7f
        E 16 b1 0b 66
        E 16 b1 0b 4c
        E 16 b1 0b 33
        E 16 b1 0b 44
        E 16 b1 0b 5d
        E 16 b1 0b 66
        E 16 b1 0b 5d
        E 16 b1 0b 55
        E 16 b1 0b 3b
        E 32 b1 0b 55
        E 16 b1 0b 5d
        E 48 b1 0b 4c
        E 16 b1 0b 33
        E 16 b1 0b 4c
        E 16 b1 0b 55
        E 32 b1 0b 7f
        E 0 81 39 00
        E 0 91 36 7f
        E 16 b1 0b 66
        E 16 b1 0b 4c
        E 16 b1 0b 33
        E 16 b1 0b 44
        E 16 b1 0b 5d
        E 16 b1 0b 77
        E 32 b1 0b 55
        E 16 b1 0b 3b
        E 32 b1 0b 55
        E 16 b1 0b 6e
        E 16 b1 0b 77
        E 16 b1 0b 7f
        E 0 81 36 00
        E 0 91 40 7f
        E 16 b1 0b 66
        E 16 b1 0b 4c
        E 16 b1 0b 7f
        E 0 81 40 00
        E 0 91 41 7f
        E 16 b1 0b 66
        E 16 b1 0b 4c
        E 16 b1 0b 33
        E 16 b1 0b 44
        E 16 b1 0b 5d
        E 16 b1 0b 77
        E 32 b1 0b 55
        E 16 b1 0b 3b
        E 16 b1 0b 7f
        E 0 81 41 00
        E 0 91 3f 7f
        E 16 b1 0b 66
        E 16 b1 0b 4c
        E 16 b1 0b 33
        E 16 b1 0b 44
        E 16 b1 0b 5d
        E 16 b1 0b 77
        E 16 b1 0b 7f
        E 0 81 3f 00
        E 0 91 3d 7f
        E 16 b1 0b 66
        E 16 b1 0b 4c
        E 16 b1 0b 33
        E 16 b1 0b 44
        E 16 b1 0b 5d
        E 16 b1 0b 66
        E 16 b1 0b 5d
        E 16 b1 0b 55
        E 16 b1 0b 3b
        E 32 b1 0b 55
        E 16 b1 0b 5d
        E 16 b1 0b 7f
        E 0 81 3d 00
        E 0 91 38 7f
        E 16 b1 0b 66
        E 16 b1 0b 4c
        E 16 b1 0b 33
        E 16 b1 0b 44
        E 16 b1 0b 5d
        E 16 b1 0b 77
        E 16 b1 0b 7f
        E 0 81 38 00
        E 0 91 35 7f
        E 16 b1 0b 66
        E 16 b1 0b 4c
        E 16 b1 0b 33
        E 16 b1 0b 44
        E 16 b1 0b 5d
        E 16 b1 0b 77
        E 16 b1 0b 7f
        E 0 81 35 00
        E 0 91 31 7f
        E 16 b1 0b 66
        E 16 b1 0b 4c
        E 16 b1 0b 33
        E 16 b1 0b 44
        E 16 b1 0b 5d
        E 16 b1 0b 66
        E 16 b1 0b 5d
        E 16 b1 0b 55
        E 16 b1 0b 3b
        E 32 b1 0b 55
        E 64 b1 0b 4c
        E 16 b1 0b 33
        E 16 b1 0b 4c
        E 80 b1 0b 3b
        E 32 b1 0b 4c
        E 64 b1 0b 44
        E 16 b1 0b 33
        E 16 b1 0b 4c
        E 64 b1 0b 44
        E 16 b1 0b 33
        E 16 b1 0b 44
        E 80 b1 0b 3b
        E 32 b1 0b 44
        E 80 b1 0b 33
        E 16 b1 0b 44
        E 16 b1 0b 3b
        E 176 b1 0b 33
        E 16 b1 0b 3b
        E 64 b1 0b 33
        E 256 b1 0b 2a
        E 96 b1 0b 7f
        E 0 81 31 00
        E 0 91 29 7f
        E 16 b1 0b 66
        E 16 b1 0b 4c
        E 16 b1 0b 33
        E 16 b1 0b 44
        E 16 b1 0b 5d
        E 16 b1 0b 66
        E 16 b1 0b 5d
        E 16 b1 0b 55
        E 16 b1 0b 3b
        E 32 b1 0b 4c
        E 32 b1 0b 44
        E 32 b1 0b 3b
        E 16 b1 0b 33
        E 48 b1 0b 2a
        E 32 b1 0b 22
        E 32 b1 0b 19
        E 32 b1 0b 11
        E 32 b1 0b 7f
        E 0 81 29 00
        E 0 91 2c 7f
        E 16 b1 0b 66
        E 16 b1 0b 4c
        E 16 b1 0b 33
        E 16 b1 0b 44
        E 16 b1 0b 5d
        E 16 b1 0b 66
        E 16 b1 0b 5d
        E 16 b1 0b 55
        E 16 b1 0b 3b
        E 32 b1 0b 4c
        E 32 b1 0b 44
        E 32 b1 0b 3b
        E 16 b1 0b 33
        E 48 b1 0b 2a
        E 32 b1 0b 22
        E 32 b1 0b 19
        E 32 b1 0b 11
        E 32 b1 0b 7f
        E 0 81 2c 00
        E 0 91 2f 7f
        E 16 b1 0b 66
        E 16 b1 0b 4c
        E 16 b1 0b 33
        E 16 b1 0b 44
        E 16 b1 0b 5d
        E 16 b1 0b 66
        E 16 b1 0b 5d
        E 16 b1 0b 55
        E 16 b1 0b 3b
        E 32 b1 0b 4c
        E 32 b1 0b 44
        E 32 b1 0b 3b
        E 16 b1 0b 33
        E 48 b1 0b 2a
        E 32 b1 0b 22
        E 32 b1 0b 19
        E 32 b1 0b 11
        E 32 b1 0b 7f
        E 0 81 2f 00
        E 0 91 35 7f
        E 16 b1 0b 66
        E 16 b1 0b 4c
        E 16 b1 0b 33
        E 16 b1 0b 44
        E 16 b1 0b 5d
        E 16 b1 0b 66
        E 16 b1 0b 5d
        E 16 b1 0b 55
        E 16 b1 0b 3b
        E 32 b1 0b 4c
        E 32 b1 0b 44
        E 32 b1 0b 3b
        E 16 b1 0b 33
        E 48 b1 0b 2a
        E 32 b1 0b 22
        E 32 b1 0b 19
        E 32 b1 0b 11
        E 32 b1 0b 7f
        E 0 81 35 00
        E 0 91 36 7f
        E 16 b1 0b 66
        E 16 b1 0b 4c
        E 16 b1 0b 33
        E 16 b1 0b 44
        E 16 b1 0b 5d
        E 16 b1 0b 77
        E 32 b1 0b 55
        E 16 b1 0b 3b
        E 32 b1 0b 55
        E 16 b1 0b 6e
        E 16 b1 0b 77
        E 16 b1 0b 66
        E 16 b1 0b 4c
        E 16 b1 0b 33
        E 16 b1 0b 4c
        E 16 b1 0b 66
        E 16 b1 0b 6e
        E 32 b1 0b 55
        E 16 b1 0b 3b
        E 32 b1 0b 5d
        E 16 b1 0b 6e
        E 32 b1 0b 5d
        E 16 b1 0b 44
        E 16 b1 0b 33
        E 16 b1 0b 4c
        E 16 b1 0b 66
        E 16 b1 0b 6e
        E 16 b1 0b 7f
        E 16 b1 0b 66
        E 16 b1 0b 4c
        E 16 b1 0b 33
        E 16 b1 0b 44
        E 16 b1 0b 5d
        E 16 b1 0b 77
        E 16 b1 0b 7f
        E 0 81 36 00
        E 0 91 38 7f
        E 16 b1 0b 66
        E 16 b1 0b 4c
        E 16 b1 0b 33
        E 16 b1 0b 44
        E 16 b1 0b 5d
        E 16 b1 0b 77
        E 16 b1 0b 7f
        E 0 81 38 00
        E 0 91 3a 7f
        E 16 b1 0b 66
        E 16 b1 0b 4c
        E 16 b1 0b 33
        E 16 b1 0b 44
        E 16 b1 0b 5d
        E 16 b1 0b 66
        E 16 b1 0b 5d
        E 16 b1 0b 55
        E 16 b1 0b 3b
        E 32 b1 0b 55
        E 16 b1 0b 5d
        E 48 b1 0b 4c
        E 16 b1 0b 33
        E 16 b1 0b 4c
        E 16 b1 0b 55
        E 64 b1 0b 3b
        E 32 b1 0b 55
        E 64 b1 0b 44
        E 16 b1 0b 33
        E 16 b1 0b 4c
        E 16 b1 0b 55
        E 16 b1 0b 4c
        E 32 b1 0b 7f
        E 0 81 3a 00
        E 0 91 36 7f
        E 16 b1 0b 66
        E 16 b1 0b 4c
        E 16 b1 0b 33
        E 16 b1 0b 44
        E 16 b1 0b 5d
        E 16 b1 0b 77
        E 32 b1 0b 55
        E 16 b1 0b 3b
        E 32 b1 0b 55
        E 16 b1 0b 6e
        E 16 b1 0b 77
        E 16 b1 0b 66
        E 16 b1 0b 4c
        E 16 b1 0b 33
        E 16 b1 0b 4c
        E 16 b1 0b 66
        E 16 b1 0b 6e
        E 32 b1 0b 55
        E 16 b1 0b 3b
        E 32 b1 0b 5d
        E 16 b1 0b 6e
        E 32 b1 0b 7f
        E 16 b1 0b 66
        E 16 b1 0b 55
        E 16 b1 0b 3b
        E 336 b1 0b 33
        E 64 b1 0b 2a
        E 64 b1 0b 22
        E 16 b1 0b 7f
        E 16 b1 0b 66
        E 16 b1 0b 55
        E 16 b1 0b 3b
        E 64 b1 0b 7f
        E 0 81 36 00
        E 0 91 38 7f
        E 16 b1 0b 66
        E 16 b1 0b 55
        E 16 b1 0b 3b
        E 48 b1 0b 33
        E 16 b1 0b 7f
        E 0 81 38 00
        E 0 91 39 7f
        E 16 b1 0b 66
        E 16 b1 0b 55
        E 16 b1 0b 3b
        E 240 b1 0b 33
        E 32 b1 0b 7f
        E 0 81 39 00
        E 0 91 36 7f
        E 16 b1 0b 66
        E 16 b1 0b 55
        E 16 b1 0b 3b
        E 48 b1 0b 33
        E 16 b1 0b 7f
        E 0 81 36 00
        E 0 91 39 7f
        E 16 b1 0b 66
        E 16 b1 0b 55
        E 16 b1 0b 3b
        E 144 b1 0b 33
        E 16 b1 0b 7f
        E 0 81 39 00
        E 0 91 38 7f
        E 16 b1 0b 66
        E 16 b1 0b 55
        E 16 b1 0b 3b
        E 64 b1 0b 7f
        E 0 81 38 00
        E 0 91 36 7f
        E 16 b1 0b 66
        E 16 b1 0b 55
        E 16 b1 0b 3b
        E 48 b1 0b 33
        E 16 b1 0b 7f
        E 0 81 36 00
        E 0 91 38 7f
        E 16 b1 0b 66
        E 16 b1 0b 55
        E 16 b1 0b 3b
        E 48 b1 0b 33
        E 16 b1 0b 7f
        E 0 81 38 00
        E 0 91 35 7f
        E 16 b1 0b 66
        E 16 b1 0b 55
        E 16 b1 0b 3b
        E 48 b1 0b 7f
        E 0 81 35 00
        E 0 91 36 7f
        E 16 b1 0b 66
        E 16 b1 0b 55
        E 16 b1 0b 3b
        E 64 b1 0b 7f
        E 0 81 36 00
        E 0 91 38 7f
        E 16 b1 0b 66
        E 16 b1 0b 55
        E 16 b1 0b 3b
        E 48 b1 0b 33
        E 16 b1 0b 7f
        E 0 81 38 00
        E 0 91 35 7f
        E 16 b1 0b 66
        E 16 b1 0b 55
        E 16 b1 0b 3b
        E 48 b1 0b 33
        E 64 b1 0b 2a
        E 48 b1 0b 7f
        E 16 b1 0b 66
        E 16 b1 0b 55
        E 16 b1 0b 3b
        E 64 b1 0b 7f
        E 0 81 35 00
        E 0 91 33 7f
        E 16 b1 0b 66
        E 16 b1 0b 55
        E 16 b1 0b 3b
        E 48 b1 0b 33
        E 16 b1 0b 7f
        E 0 81 33 00
        E 0 91 31 7f
        E 16 b1 0b 66
        E 16 b1 0b 55
        E 16 b1 0b 3b
        E 48 b1 0b 33
        E 16 b1 0b 7f
        E 16 b1 0b 66
        E 16 b1 0b 55
        E 16 b1 0b 3b
        E 48 b1 0b 7f
        E 0 81 31 00
        E 0 91 33 7f
        E 16 b1 0b 66
        E 16 b1 0b 55
        E 16 b1 0b 3b
        E 64 b1 0b 7f
        E 0 81 33 00
        E 0 91 35 7f
        E 16 b1 0b 66
        E 16 b1 0b 55
        E 16 b1 0b 3b
        E 48 b1 0b 33
        E 16 b1 0b 7f
        E 0 81 35 00
        E 0 91 31 7f
        E 16 b1 0b 66
        E 16 b1 0b 55
        E 16 b1 0b 3b
        E 48 b1 0b 33
        E 64 b1 0b 2a
        E 48 b1 0b 7f
        E 16 b1 0b 66
        E 16 b1 0b 55
        E 16 b1 0b 3b
        E 64 b1 0b 7f
        E 0 81 31 00
        E 0 91 30 7f
        E 16 b1 0b 66
        E 16 b1 0b 55
        E 16 b1 0b 3b
        E 48 b1 0b 33
        E 16 b1 0b 7f
        E 0 81 30 00
        E 0 91 2e 7f
        E 16 b1 0b 66
        E 16 b1 0b 55
        E 16 b1 0b 3b
        E 48 b1 0b 33
        E 16 b1 0b 7f
        E 16 b1 0b 66
        E 16 b1 0b 55
        E 16 b1 0b 3b
        E 48 b1 0b 7f
        E 0 81 2e 00
        E 0 91 30 7f
        E 16 b1 0b 66
        E 16 b1 0b 55
        E 16 b1 0b 3b
        E 64 b1 0b 7f
        E 0 81 30 00
        E 0 91 31 7f
        E 16 b1 0b 66
        E 16 b1 0b 55
        E 16 b1 0b 3b
        E 48 b1 0b 33
        E 16 b1 0b 7f
        E 0 81 31 00
        E 0 91 2e 7f
        E 16 b1 0b 66
        E 16 b1 0b 55
        E 16 b1 0b 3b
        E 48 b1 0b 33
        E 64 b1 0b 2a
        E 48 b1 0b 7f
        E 16 b1 0b 66
        E 16 b1 0b 55
        E 16 b1 0b 3b
        E 64 b1 0b 7f
        E 0 81 2e 00
        E 0 91 2c 7f
        E 16 b1 0b 66
        E 16 b1 0b 55
        E 16 b1 0b 3b
        E 48 b1 0b 33
        E 16 b1 0b 7f
        E 0 81 2c 00
        E 0 91 2a 7f
        E 16 b1 0b 66
        E 16 b1 0b 55
        E 16 b1 0b 3b
        E 48 b1 0b 33
        E 16 b1 0b 7f
        E 16 b1 0b 66
        E 16 b1 0b 55
        E 16 b1 0b 3b
        E 48 b1 0b 7f
        E 0 81 2a 00
        E 0 91 2c 7f
        E 16 b1 0b 66
        E 16 b1 0b 55
        E 16 b1 0b 3b
        E 64 b1 0b 7f
        E 0 81 2c 00
        E 0 91 2e 7f
        E 16 b1 0b 66
        E 16 b1 0b 55
        E 16 b1 0b 3b
        E 48 b1 0b 33
        E 16 b1 0b 7f
        E 0 81 2e 00
        E 0 91 2a 7f
        E 16 b1 0b 66
        E 16 b1 0b 55
        E 16 b1 0b 3b
        E 48 b1 0b 33
        E 64 b1 0b 2a
        E 48 b1 0b 7f
        E 16 b1 0b 66
        E 16 b1 0b 55
        E 16 b1 0b 3b
        E 64 b1 0b 7f
        E 0 81 2a 00
        E 0 91 2e 7f
        E 16 b1 0b 66
        E 16 b1 0b 55
        E 16 b1 0b 3b
        E 48 b1 0b 33
        E 16 b1 0b 7f
        E 0 81 2e 00
        E 0 91 31 7f
        E 16 b1 0b 66
        E 16 b1 0b 55
        E 16 b1 0b 3b
        E 48 b1 0b 33
        E 16 b1 0b 7f
        E 0 81 31 00
        E 0 91 35 7f
        E 16 b1 0b 66
        E 16 b1 0b 55
        E 16 b1 0b 3b
        E 48 b1 0b 7f
        E 0 81 35 00
        E 0 91 36 7f
        E 16 b1 0b 66
        E 16 b1 0b 55
        E 16 b1 0b 3b
        E 64 b1 0b 7f
        E 0 81 36 00
        E 0 91 38 7f
        E 16 b1 0b 66
        E 16 b1 0b 55
        E 16 b1 0b 3b
        E 48 b1 0b 33
        E 16 b1 0b 7f
        E 0 81 38 00
        E 0 91 35 7f
        E 16 b1 0b 66
        E 16 b1 0b 55
        E 16 b1 0b 3b
        E 48 b1 0b 33
        E 64 b1 0b 2a
        E 48 b1 0b 7f
        E 16 b1 0b 66
        E 16 b1 0b 55
        E 16 b1 0b 3b
        E 64 b1 0b 7f
        E 0 81 35 00
        E 0 91 33 7f
        E 16 b1 0b 66
        E 16 b1 0b 55
        E 16 b1 0b 3b
        E 48 b1 0b 33
        E 16 b1 0b 7f
        E 0 81 33 00
        E 0 91 31 7f
        E 16 b1 0b 66
        E 16 b1 0b 55
        E 16 b1 0b 3b
        E 48 b1 0b 33
        E 16 b1 0b 7f
        E 16 b1 0b 66
        E 16 b1 0b 55
        E 16 b1 0b 3b
        E 48 b1 0b 33
        E 16 b1 0b 7f
        E 0 81 31 00
        E 0 91 33 7f
        E 16 b1 0b 66
        E 16 b1 0b 55
        E 16 b1 0b 3b
        E 48 b1 0b 7f
        E 0 81 33 00
        E 0 91 35 7f
        E 16 b1 0b 66
        E 16 b1 0b 55
        E 16 b1 0b 3b
        E 48 b1 0b 33
        E 16 b1 0b 7f
        E 0 81 35 00
        E 0 91 31 7f
        E 16 b1 0b 66
        E 16 b1 0b 55
        E 16 b1 0b 3b
        E 48 b1 0b 33
        E 64 b1 0b 2a
        E 64 b1 0b 7f
        E 16 b1 0b 66
        E 16 b1 0b 55
        E 16 b1 0b 3b
        E 48 b1 0b 7f
        E 0 81 31 00
        E 0 91 30 7f
        E 16 b1 0b 66
        E 16 b1 0b 55
        E 16 b1 0b 3b
        E 48 b1 0b 33
        E 16 b1 0b 7f
        E 0 81 30 00
        E 0 91 2e 7f
        E 16 b1 0b 66
        E 16 b1 0b 55
        E 16 b1 0b 3b
        E 48 b1 0b 33
        E 16 b1 0b 7f
        E 16 b1 0b 66
        E 16 b1 0b 55
        E 16 b1 0b 3b
        E 48 b1 0b 33
        E 16 b1 0b 7f
        E 0 81 2e 00
        E 0 91 30 7f
        E 16 b1 0b 66
        E 16 b1 0b 55
        E 16 b1 0b 3b
        E 48 b1 0b 7f
        E 0 81 30 00
        E 0 91 31 7f
        E 16 b1 0b 66
        E 16 b1 0b 55
        E 16 b1 0b 3b
        E 48 b1 0b 33
        E 16 b1 0b 7f
        E 0 81 31 00
        E 0 91 2e 7f
        E 16 b1 0b 66
        E 16 b1 0b 55
        E 16 b1 0b 3b
        E 48 b1 0b 33
        E 64 b1 0b 2a
        E 64 b1 0b 7f
        E 16 b1 0b 66
        E 16 b1 0b 55
        E 16 b1 0b 3b
        E 48 b1 0b 7f
        E 0 81 2e 00
        E 0 91 2c 7f
        E 16 b1 0b 66
        E 16 b1 0b 55
        E 16 b1 0b 3b
        E 48 b1 0b 33
        E 16 b1 0b 7f
        E 0 81 2c 00
        E 0 91 2a 7f
        E 16 b1 0b 66
        E 16 b1 0b 55
        E 16 b1 0b 3b
        E 48 b1 0b 33
        E 16 b1 0b 7f
        E 16 b1 0b 66
        E 16 b1 0b 55
        E 16 b1 0b 3b
        E 48 b1 0b 33
        E 16 b1 0b 7f
        E 0 81 2a 00
        E 0 91 2c 7f
        E 16 b1 0b 66
        E 16 b1 0b 55
        E 16 b1 0b 3b
        E 48 b1 0b 7f
        E 0 81 2c 00
        E 0 91 2e 7f
        E 16 b1 0b 66
        E 16 b1 0b 55
        E 16 b1 0b 3b
        E 48 b1 0b 33
        E 16 b1 0b 7f
        E 0 81 2e 00
        E 0 91 2a 7f
        E 16 b1 0b 66
        E 16 b1 0b 55
        E 16 b1 0b 3b
        E 48 b1 0b 33
        E 64 b1 0b 2a
        E 64 b1 0b 7f
        E 16 b1 0b 66
        E 16 b1 0b 55
        E 16 b1 0b 3b
        E 48 b1 0b 7f
        E 0 81 2a 00
        E 0 91 2e 7f
        E 16 b1 0b 66
        E 16 b1 0b 55
        E 16 b1 0b 3b
        E 48 b1 0b 33
        E 16 b1 0b 7f
        E 0 81 2e 00
        E 0 91 31 7f
        E 16 b1 0b 66
        E 16 b1 0b 55
        E 16 b1 0b 3b
        E 48 b1 0b 33
        E 16 b1 0b 7f
        E 0 81 31 00
        E 0 91 25 7f
        E 16 b1 0b 66
        E 16 b1 0b 55
        E 16 b1 0b 3b
        E 160 b1 0b 7f
        E 0 81 25 00
        E 0 91 19 7f
        E 16 b1 0b 66
        E 16 b1 0b 55
        E 16 b1 0b 3b
        E 160 b1 0b 33
        E 16 b1 0b 7f
        E 16 b1 0b 66
        E 16 b1 0b 55
        E 16 b1 0b 3b
        E 160 b1 0b 33
        E 64 b1 0b 2a
        E 64 b1 0b 22
        E 64 b1 0b 19
        E 64 b1 0b 11
        E 64 b1 0b 08
        E 64 81 19 00
        E 3760 b1 0c 40
        E 0 b1 0b 66
        E 0 91 37 66
        E 16 b1 0b 5d
        E 128 b1 0b 55
        E 128 b1 0b 4c
        E 128 b1 0b 44
        E 128 b1 0b 3b
        E 128 b1 0b 33
        E 128 b1 0b 2a
        E 128 b1 0b 22
        E 128 b1 0b 19
        E 128 b1 0b 11
        E 128 b1 0b 08
        E 128 81 37 00
        E 512 b1 0b 66
        E 0 91 35 66
        E 16 b1 0b 5d
        E 128 b1 0b 55
        E 112 b1 0b 4c
        E 16 b1 0b 44
        E 32 b1 0b 3b
        E 32 b1 0b 33
        E 16 b1 0b 66
        E 0 81 35 00
        E 0 91 2d 66
        E 16 b1 0b 5d
        E 128 b1 0b 55
        E 128 b1 0b 4c
        E 128 b1 0b 44
        E 128 b1 0b 3b
        E 128 b1 0b 33
        E 128 b1 0b 2a
        E 64 b1 0b 22
        E 16 b1 0b 19
        E 32 b1 0b 11
        E 16 b1 0b 08
        E 32 81 2d 00
        E 144 b1 0b 66
        E 0 91 2d 66
        E 16 b1 0b 5d
        E 128 b1 0b 55
        E 48 b1 0b 4c
        E 16 b1 0b 44
        E 32 b1 0b 66
        E 0 81 2d 00
        E 0 91 30 66
        E 16 b1 0b 5d
        E 128 b1 0b 55
        E 48 b1 0b 4c
        E 16 b1 0b 44
        E 32 b1 0b 66
        E 0 81 30 00
        E 0 91 34 66
        E 16 b1 0b 5d
        E 128 b1 0b 55
        E 128 b1 0b 4c
        E 128 b1 0b 44
        E 128 b1 0b 3b
        E 64 81 34 00
        E 16 b1 0b 7f
        E 0 91 3a 7f
        E 16 b1 0b 77
        E 16 b1 0b 6e
        E 16 b1 0b 66
        E 16 b1 0b 5d
        E 16 b1 0b 55
        E 16 b1 0b 4c
        E 16 b1 0b 44
        E 16 b1 0b 3b
        E 16 b1 0b 33
        E 16 b1 0b 2a
        E 16 b1 0b 22
        E 16 b1 0b 19
        E 16 b1 0b 11
        E 16 b1 0b 08
        E 32 b1 0b 11
        E 16 b1 0b 19
        E 16 b1 0b 2a
        E 16 b1 0b 33
        E 16 b1 0b 22
        E 0 81 3a 00
        E 0 91 34 22
        E 112 b1 0b 19
        E 128 b1 0b 11
        E 128 b1 0b 08
        E 128 81 34 00
        E 496 b1 0b 66
        E 0 91 33 66
        E 16 b1 0b 5d
        E 128 b1 0b 55
        E 112 b1 0b 4c
        E 16 b1 0b 44
        E 32 b1 0b 3b
        E 32 b1 0b 33
        E 16 b1 0b 2a
        E 16 b1 0b 66
        E 0 81 33 00
        E 0 91 37 66
        E 16 b1 0b 5d
        E 128 b1 0b 55
        E 128 b1 0b 4c
        E 80 81 37 00
        E 16 b1 0b 7f
        E 0 91 3a 7f
        E 16 b1 0b 77
        E 16 b1 0b 6e
        E 16 b1 0b 66
        E 16 b1 0b 5d
        E 16 b1 0b 55
        E 16 b1 0b 4c
        E 16 b1 0b 44
        E 16 b1 0b 3b
        E 16 b1 0b 33
        E 16 b1 0b 2a
        E 16 b1 0b 22
        E 16 b1 0b 19
        E 16 b1 0b 11
        E 16 b1 0b 08
        E 32 b1 0b 11
        E 16 b1 0b 19
        E 16 b1 0b 2a
        E 16 b1 0b 33
        E 16 81 3a 00
        E 0 91 37 33
        E 96 b1 0b 2a
        E 128 b1 0b 22
        E 128 b1 0b 19
        E 128 b1 0b 11
        E 16 b1 0b 08
        E 32 81 37 00
        E 336 b1 0b 66
        E 0 91 37 66
        E 16 b1 0b 5d
        E 128 b1 0b 55
        E 128 b1 0b 4c
        E 128 b1 0b 44
        E 128 b1 0b 3b
        E 128 b1 0b 33
        E 128 b1 0b 2a
        E 128 b1 0b 22
        E 128 b1 0b 19
        E 48 81 37 00
        E 16 b1 0c 20
        E 0 b1 0b 7f
        E 0 91 40 7f
        E 16 b1 0b 33
        E 16 81 40 00
        E 32 b1 0b 2a
        E 0 91 40 2a
        E 16 b1 0b 77
        E 16 b1 0b 3b
        E 16 81 40 00
        E 32 b1 0b 22
        E 0 91 40 22
        E 16 b1 0b 6e
        E 16 b1 0b 44
        E 16 81 40 00
        E 32 b1 0b 19
        E 0 91 40 19
        E 16 b1 0b 5d
        E 16 b1 0b 55
        E 16 81 40 00
        E 32 b1 0b 11
        E 0 91 40 11
        E 16 b1 0b 44
        E 32 b1 0b 08
        E 16 81 40 00
        E 16 91 40 08
        E 16 b1 0b 33
        E 16 b1 0b 2a
        E 16 b1 0b 19
        E 16 81 40 00
        E 368 b1 0c 40
        E 0 b1 0b 66
        E 0 91 35 66
        E 16 b1 0b 5d
        E 128 b1 0b 55
        E 128 b1 0b 4c
        E 16 b1 0b 44
        E 32 b1 0b 3b
        E 16 b1 0b 33
        E 32 b1 0b 66
        E 0 81 35 00
        E 0 91 2d 66
        E 16 b1 0b 5d
        E 128 b1 0b 55
        E 128 b1 0b 4c
        E 128 b1 0b 44
        E 128 b1 0b 3b
        E 128 b1 0b 33
        E 128 b1 0b 2a
        E 64 b1 0b 22
        E 16 b1 0b 19
        E 32 b1 0b 11
        E 16 b1 0b 08
        E 32 81 2d 00
        E 144 b1 0b 66
        E 0 91 2d 66
        E 16 b1 0b 5d
        E 128 b1 0b 55
        E 48 b1 0b 4c
        E 16 b1 0b 44
        E 32 b1 0b 66
        E 0 81 2d 00
        E 0 91 30 66
        E 16 b1 0b 5d
        E 128 b1 0b 55
        E 48 b1 0b 4c
        E 16 b1 0b 44
        E 32 b1 0b 66
        E 0 81 30 00
        E 0 91 34 66
        E 16 b1 0b 5d
        E 128 b1 0b 55
        E 128 b1 0b 4c
        E 128 b1 0b 44
        E 128 b1 0b 3b
        E 128 b1 0b 33
        E 128 b1 0b 2a
        E 128 b1 0b 22
        E 128 81 34 00
        E 16 b1 0b 7f
        E 0 91 3a 7f
        E 16 b1 0b 77
        E 16 b1 0b 6e
        E 16 b1 0b 66
        E 16 b1 0b 5d
        E 16 b1 0b 55
        E 16 b1 0b 4c
        E 16 b1 0b 44
        E 16 b1 0b 3b
        E 16 b1 0b 33
        E 16 b1 0b 2a
        E 16 b1 0b 22
        E 16 b1 0b 19
        E 16 b1 0b 11
        E 16 b1 0b 08
        E 32 b1 0b 11
        E 16 b1 0b 19
        E 16 b1 0b 2a
        E 16 b1 0b 33
        E 16 81 3a 00
        E 176 b1 0b 66
        E 0 91 2f 66
        E 16 b1 0b 5d
        E 64 b1 0b 55
        E 32 b1 0b 4c
        E 16 b1 0b 66
        E 0 81 2f 00
        E 0 91 2e 66
        E 16 b1 0b 5d
        E 64 b1 0b 55
        E 32 b1 0b 66
        E 0 81 2e 00
        E 0 91 2c 66
        E 16 b1 0b 5d
        E 64 b1 0b 55
        E 32 b1 0b 4c
        E 16 b1 0b 66
        E 0 81 2c 00
        E 0 91 2b 66
        E 16 b1 0b 5d
        E 128 b1 0b 55
        E 128 b1 0b 4c
        E 128 b1 0b 44
        E 128 b1 0b 3b
        E 128 b1 0b 33
        E 128 b1 0b 2a
        E 128 b1 0b 22
        E 128 b1 0b 19
        E 128 b1 0b 11
        E 16 81 2b 00
        E 16 b1 0b 7f
        E 0 91 3a 7f
        E 16 b1 0b 77
        E 32 b1 0b 7f
        E 0 81 3a 00
        E 0 91 5d 7f
        E 16 b1 0b 77
        E 16 b1 0b 6e
        E 16 b1 0b 66
        E 16 b1 0b 5d
        E 16 b1 0b 55
        E 16 b1 0b 4c
        E 16 b1 0b 44
        E 16 b1 0b 3b
        E 16 b1 0b 33
        E 16 b1 0b 2a
        E 16 b1 0b 22
        E 16 b1 0b 19
        E 16 b1 0b 11
        E 16 b1 0b 08
        E 16 81 5d 00
        E 432 b1 0b 66
        E 0 91 35 66
        E 16 b1 0b 5d
        E 128 b1 0b 55
        E 48 b1 0b 4c
        E 16 b1 0b 44
        E 32 b1 0b 66
        E 0 81 35 00
        E 0 91 33 66
        E 16 b1 0b 5d
        E 128 b1 0b 55
        E 48 b1 0b 4c
        E 16 b1 0b 44
        E 32 b1 0b 66
        E 0 81 33 00
        E 0 91 32 66
        E 16 b1 0b 5d
        E 128 b1 0b 55
        E 48 b1 0b 4c
        E 16 b1 0b 44
        E 32 b1 0b 66
        E 0 81 32 00
        E 0 91 30 66
        E 16 b1 0b 5d
        E 96 81 30 00
        E 16 b1 0b 7f
        E 0 91 3c 7f
        E 16 b1 0b 4c
        E 16 b1 0b 11
        E 32 b1 0b 7f
        E 0 81 3c 00
        E 0 91 3e 7f
        E 16 b1 0b 4c
        E 16 b1 0b 11
        E 32 b1 0b 7f
        E 0 81 3e 00
        E 0 91 40 7f
        E 16 b1 0b 4c
        E 16 b1 0b 11
        E 32 b1 0b 7f
        E 0 81 40 00
        E 0 91 43 7f
        E 16 b1 0b 4c
        E 16 b1 0b 11
        E 32 b1 0b 7f
        E 0 81 43 00
        E 0 91 47 7f
        E 16 b1 0b 4c
        E 16 b1 0b 11
        E 16 81 47 00
        E 32 b1 0b 08
        E 0 91 47 08
        E 16 b1 0b 2a
        E 32 b1 0b 22
        E 16 b1 0b 19
        E 16 81 47 00
        E 48 b1 0b 11
        E 0 91 47 11
        E 32 b1 0b 08
        E 32 81 47 00
        E 48 b1 0b 44
        E 0 91 2f 44
        E 16 b1 0b 66
        E 0 81 2f 00
        E 0 91 30 66
        E 16 b1 0b 5d
        E 128 b1 0b 55
        E 48 b1 0b 4c
        E 16 b1 0b 44
        E 32 b1 0b 66
        E 0 81 30 00
        E 0 91 32 66
        E 16 b1 0b 5d
        E 128 b1 0b 55
        E 48 b1 0b 4c
        E 16 b1 0b 44
        E 32 b1 0b 66
        E 0 81 32 00
        E 0 91 30 66
        E 16 b1 0b 5d
        E 128 b1 0b 55
        E 48 b1 0b 4c
        E 16 b1 0b 44
        E 32 b1 0b 3b
        E 32 b1 0b 33
        E 16 b1 0b 2a
        E 32 81 30 00
        E 16 b1 0b 7f
        E 0 91 3a 7f
        E 16 b1 0b 77
        E 16 b1 0b 6e
        E 16 b1 0b 66
        E 16 b1 0b 5d
        E 16 b1 0b 55
        E 16 b1 0b 4c
        E 16 b1 0b 44
        E 16 b1 0b 3b
        E 16 b1 0b 33
        E 16 b1 0b 2a
        E 16 b1 0b 22
        E 16 b1 0b 19
        E 16 b1 0b 11
        E 16 b1 0b 08
        E 32 b1 0b 11
        E 16 b1 0b 19
        E 16 b1 0b 2a
        E 16 b1 0b 33
        E 16 b1 0b 55
        E 0 81 3a 00
        E 0 91 32 55
        E 16 b1 0b 4c
        E 16 b1 0b 44
        E 32 b1 0b 3b
        E 32 b1 0b 33
        E 16 b1 0b 2a
        E 32 b1 0b 22
        E 16 b1 0b 19
        E 32 b1 0b 11
        E 32 b1 0b 08
        E 16 81 32 00
        E 64 b1 0b 66
        E 0 91 33 66
        E 16 b1 0b 5d
        E 64 b1 0b 55
        E 32 b1 0b 4c
        E 32 b1 0b 44
        E 16 b1 0b 3b
        E 32 b1 0b 33
        E 16 b1 0b 2a
        E 32 b1 0b 22
        E 32 b1 0b 19
        E 16 b1 0b 11
        E 32 b1 0b 08
        E 16 81 33 00
        E 32 b1 0b 66
        E 0 91 37 66
        E 16 b1 0b 5d
        E 128 b1 0b 55
        E 128 b1 0b 4c
        E 128 b1 0b 44
        E 32 81 37 00
        E 16 b1 0b 7f
        E 0 91 3a 7f
        E 16 b1 0b 77
        E 16 b1 0b 6e
        E 16 b1 0b 66
        E 16 b1 0b 5d
        E 16 b1 0b 55
        E 16 b1 0b 4c
        E 16 b1 0b 44
        E 16 b1 0b 3b
        E 16 b1 0b 33
        E 16 b1 0b 2a
        E 16 b1 0b 22
        E 16 b1 0b 19
        E 16 b1 0b 11
        E 16 b1 0b 08
        E 32 b1 0b 11
        E 16 b1 0b 19
        E 16 b1 0b 2a
        E 16 b1 0b 33
        E 16 b1 0b 55
        E 0 81 3a 00
        E 0 91 3c 55
        E 16 b1 0b 4c
        E 16 b1 0b 44
        E 32 b1 0b 66
        E 0 81 3c 00
        E 0 91 3a 66
        E 16 b1 0b 5d
        E 128 b1 0b 55
        E 48 b1 0b 4c
        E 16 b1 0b 44
        E 32 b1 0b 66
        E 0 81 3a 00
        E 0 91 39 66
        E 16 b1 0b 5d
        E 128 b1 0b 55
        E 48 b1 0b 4c
        E 16 b1 0b 44
        E 32 b1 0b 66
        E 0 81 39 00
        E 0 91 37 66
        E 16 b1 0b 5d
        E 128 b1 0b 55
        E 48 b1 0b 4c
        E 16 b1 0b 44
        E 32 b1 0b 66
        E 0 81 37 00
        E 0 91 36 66
        E 16 b1 0b 5d
        E 128 b1 0b 55
        E 48 b1 0b 4c
        E 16 b1 0b 44
        E 32 b1 0b 66
        E 16 b1 0b 5d
        E 128 b1 0b 55
        E 48 b1 0b 4c
        E 16 b1 0b 44
        E 32 b1 0b 66
        E 0 81 36 00
        E 0 91 37 66
        E 16 b1 0b 5d
        E 128 b1 0b 55
        E 48 b1 0b 4c
        E 16 b1 0b 44
        E 32 b1 0b 66
        E 0 81 37 00
        E 0 91 39 66
        E 16 b1 0b 5d
        E 128 b1 0b 55
        E 48 b1 0b 4c
        E 16 b1 0b 44
        E 32 b1 0b 66
        E 0 81 39 00
        E 0 91 3b 66
        E 16 b1 0b 5d
        E 128 b1 0b 55
        E 48 b1 0b 4c
        E 16 b1 0b 44
        E 32 b1 0b 3b
        E 32 b1 0b 33
        E 16 b1 0b 2a
        E 32 b1 0b 22
        E 16 b1 0b 19
        E 32 b1 0b 11
        E 32 b1 0b 08
        E 16 81 3b 00
        E 64 b1 0b 66
        E 0 91 3c 66
        E 16 b1 0b 5d
        E 128 b1 0b 55
        E 48 b1 0b 4c
        E 16 b1 0b 44
        E 32 b1 0b 3b
        E 32 b1 0b 33
        E 16 b1 0b 2a
        E 32 b1 0b 22
        E 16 b1 0b 19
        E 32 b1 0b 11
        E 32 b1 0b 08
        E 16 81 3c 00
        E 80 b1 0b 66
        E 0 91 3e 66
        E 16 b1 0b 5d
        E 128 b1 0b 55
        E 48 b1 0b 4c
        E 16 b1 0b 44
        E 32 b1 0b 3b
        E 32 b1 0b 33
        E 16 b1 0b 2a
        E 32 b1 0b 22
        E 16 b1 0b 19
        E 32 b1 0b 11
        E 32 b1 0b 08
        E 16 81 3e 00
        E 176 b1 0b 66
        E 0 91 38 66
        E 16 b1 0b 5d
        E 128 b1 0b 55
        E 112 b1 0b 4c
        E 16 b1 0b 44
        E 32 b1 0b 3b
        E 32 b1 0b 33
        E 16 b1 0b 2a
        E 32 b1 0b 22
        E 16 b1 0b 19
        E 32 b1 0b 11
        E 32 b1 0b 08
        E 16 81 38 00
        E 128 b1 0b 66
        E 0 91 3c 66
        E 16 b1 0b 5d
        E 112 81 3c 00
        E 16 b1 0b 7f
        E 0 91 3a 7f
        E 16 b1 0b 77
        E 16 b1 0b 6e
        E 16 b1 0b 66
        E 16 b1 0b 5d
        E 16 b1 0b 55
        E 16 b1 0b 4c
        E 16 b1 0b 44
        E 16 b1 0b 3b
        E 16 b1 0b 33
        E 16 b1 0b 2a
        E 16 b1 0b 22
        E 16 b1 0b 19
        E 16 b1 0b 11
        E 16 b1 0b 08
        E 32 b1 0b 11
        E 16 b1 0b 19
        E 16 b1 0b 2a
        E 16 b1 0b 33
        E 16 b1 0b 5d
        E 32 b1 0b 55
        E 48 b1 0b 4c
        E 16 b1 0b 44
        E 32 b1 0b 3b
        E 32 b1 0b 33
        E 16 b1 0b 2a
        E 32 b1 0b 22
        E 16 b1 0b 19
        E 32 b1 0b 66
        E 0 81 3a 00
        E 0 91 37 66
        E 16 b1 0b 5d
        E 80 81 37 00
        E 16 b1 0b 7f
        E 0 91 44 7f
        E 48 81 44 00
        E 0 91 38 7f
        E 16 81 38 00
        E 0 91 39 7f
        E 96 81 39 00
        E 0 91 37 7f
        E 48 81 37 00
        E 0 91 2a 7f
        E 32 81 2a 00
        E 0 91 2e 7f
        E 64 b1 0b 5d
        E 0 81 2e 00
        E 0 91 33 5d
        E 80 b1 0b 55
        E 128 b1 0b 4c
        E 128 b1 0b 44
        E 80 b1 0b 3b
        E 32 b1 0b 33
        E 16 b1 0b 2a
        E 32 b1 0b 22
        E 32 b1 0b 19
        E 16 b1 0b 66
        E 0 81 33 00
        E 0 91 35 66
        E 16 b1 0b 5d
        E 128 b1 0b 55
        E 48 81 35 00
        E 16 b1 0c 20
        E 0 b1 0b 7f
        E 0 91 40 7f
        E 16 b1 0b 33
        E 16 81 40 00
        E 32 b1 0b 2a
        E 0 91 40 2a
        E 16 b1 0b 77
        E 16 b1 0b 3b
        E 16 81 40 00
        E 32 b1 0b 22
        E 0 91 40 22
        E 16 b1 0b 6e
        E 16 b1 0b 44
        E 16 81 40 00
        E 32 b1 0b 19
        E 0 91 40 19
        E 16 b1 0b 5d
        E 16 b1 0b 55
        E 16 81 40 00
        E 32 b1 0b 11
        E 0 91 40 11
        E 16 b1 0b 44
        E 32 b1 0b 08
        E 16 81 40 00
        E 16 91 40 08
        E 16 b1 0b 33
        E 16 b1 0b 2a
        E 16 b1 0b 19
        E 16 81 40 00
        E 32 b1 0c 40
        E 0 b1 0b 33
        E 0 91 35 33
        E 48 b1 0b 2a
        E 32 b1 0b 22
        E 16 b1 0b 19
        E 32 b1 0b 11
        E 16 b1 0b 66
        E 0 81 35 00
        E 0 91 39 66
        E 16 b1 0b 5d
        E 128 b1 0b 55
        E 128 b1 0b 4c
        E 128 b1 0b 44
        E 80 b1 0b 3b
        E 32 b1 0b 33
        E 16 b1 0b 2a
        E 32 b1 0b 22
        E 32 b1 0b 19
        E 16 b1 0b 66
        E 0 81 39 00
        E 0 91 35 66
        E 16 b1 0b 5d
        E 128 b1 0b 55
        E 48 81 35 00
        E 16 b1 0b 7f
        E 0 91 5d 7f
        E 16 b1 0b 77
        E 16 b1 0b 6e
        E 16 b1 0b 66
        E 16 b1 0b 5d
        E 16 b1 0b 55
        E 16 b1 0b 4c
        E 16 b1 0b 44
        E 16 b1 0b 3b
        E 16 b1 0b 33
        E 16 b1 0b 2a
        E 16 b1 0b 22
        E 16 b1 0b 19
        E 16 b1 0b 11
        E 16 b1 0b 08
        E 16 b1 0b 44
        E 0 81 5d 00
        E 0 91 37 44
        E 32 b1 0b 66
        E 0 81 37 00
        E 0 91 38 66
        E 16 b1 0b 5d
        E 128 b1 0b 55
        E 48 b1 0b 4c
        E 16 b1 0b 44
        E 32 b1 0b 66
        E 0 81 38 00
        E 0 91 3b 66
        E 16 b1 0b 5d
        E 128 b1 0b 55
        E 48 b1 0b 4c
        E 16 b1 0b 44
        E 32 b1 0b 3b
        E 32 b1 0b 33
        E 16 b1 0b 2a
        E 32 b1 0b 22
        E 16 b1 0b 19
        E 32 b1 0b 66
        E 0 81 3b 00
        E 0 91 38 66
        E 16 b1 0b 5d
        E 96 81 38 00
        E 16 b1 0b 7f
        E 0 91 3a 7f
        E 16 b1 0b 77
        E 16 b1 0b 6e
        E 16 b1 0b 66
        E 16 b1 0b 5d
        E 16 b1 0b 55
        E 16 b1 0b 4c
        E 16 b1 0b 44
        E 16 b1 0b 3b
        E 16 b1 0b 33
        E 16 b1 0b 2a
        E 16 b1 0b 22
        E 16 b1 0b 19
        E 16 b1 0b 11
        E 16 b1 0b 08
        E 32 b1 0b 11
        E 16 b1 0b 19
        E 16 b1 0b 2a
        E 16 b1 0b 33
        E 16 b1 0b 5d
        E 0 81 3a 00
        E 0 91 2f 5d
        E 48 b1 0b 55
        E 112 b1 0b 4c
        E 16 b1 0b 44
        E 32 b1 0b 3b
        E 32 b1 0b 33
        E 16 b1 0b 2a
        E 16 b1 0b 66
        E 0 81 2f 00
        E 0 91 2c 66
        E 16 b1 0b 5d
        E 128 b1 0b 55
        E 112 b1 0b 4c
        E 16 b1 0b 44
        E 32 b1 0b 3b
        E 32 b1 0b 33
        E 16 b1 0b 66
        E 0 81 2c 00
        E 0 91 2f 66
        E 16 b1 0b 5d
        E 128 b1 0b 55
        E 48 b1 0b 4c
        E 16 b1 0b 44
        E 32 b1 0b 66
        E 0 81 2f 00
        E 0 91 2e 66
        E 16 b1 0b 5d
        E 128 b1 0b 55
        E 128 b1 0b 4c
        E 128 b1 0b 44
        E 128 b1 0b 3b
        E 128 b1 0b 33
        E 128 b1 0b 2a
        E 128 b1 0b 22
        E 64 81 2e 00
        E 16 b1 0b 7f
        E 0 91 3a 7f
        E 16 b1 0b 77
        E 16 b1 0b 6e
        E 16 b1 0b 66
        E 16 b1 0b 5d
        E 16 b1 0b 55
        E 16 b1 0b 4c
        E 16 b1 0b 44
        E 16 b1 0b 3b
        E 16 b1 0b 33
        E 16 b1 0b 2a
        E 16 b1 0b 22
        E 16 b1 0b 19
        E 16 b1 0b 11
        E 16 b1 0b 08
        E 32 b1 0b 11
        E 16 b1 0b 19
        E 16 b1 0b 2a
        E 16 b1 0b 33
        E 16 b1 0b 08
        E 0 81 3a 00
        E 0 91 2e 08
        E 112 81 2e 00
        E 304 b1 0b 7f
        E 0 91 44 7f
        E 48 81 44 00
        E 0 91 38 7f
        E 16 81 38 00
        E 0 91 39 7f
        E 96 81 39 00
        E 0 91 37 7f
        E 48 81 37 00
        E 0 91 2a 7f
        E 32 81 2a 00
        E 0 91 2e 7f
        E 64 81 2e 00
        E 128 b1 0b 66
        E 0 91 3c 66
        E 16 b1 0b 5d
        E 128 b1 0b 55
        E 48 b1 0b 4c
        E 16 b1 0b 44
        E 32 b1 0b 3b
        E 32 b1 0b 33
        E 16 b1 0b 2a
        E 32 b1 0b 22
        E 16 b1 0b 19
        E 32 b1 0b 66
        E 0 81 3c 00
        E 0 91 3a 66
        E 16 b1 0b 5d
        E 128 b1 0b 55
        E 48 b1 0b 4c
        E 16 b1 0b 44
        E 32 81 3a 00
        E 16 b1 0b 7f
        E 0 91 3a 7f
        E 16 b1 0b 77
        E 16 b1 0b 6e
        E 16 b1 0b 66
        E 16 b1 0b 5d
        E 16 b1 0b 55
        E 16 b1 0b 4c
        E 16 b1 0b 44
        E 16 b1 0b 3b
        E 16 b1 0b 33
        E 16 b1 0b 2a
        E 16 b1 0b 22
        E 16 b1 0b 19
        E 16 b1 0b 11
        E 16 b1 0b 08
        E 32 b1 0b 11
        E 16 b1 0b 19
        E 16 b1 0b 2a
        E 16 b1 0b 33
        E 16 b1 0b 55
        E 0 81 3a 00
        E 0 91 37 55
        E 48 b1 0b 4c
        E 16 b1 0b 44
        E 32 b1 0b 3b
        E 16 b1 0b 33
        E 32 b1 0b 66
        E 0 81 37 00
        E 0 91 33 66
        E 16 b1 0b 5d
        E 128 b1 0b 55
        E 128 81 33 00
        E 16 b1 0b 7f
        E 0 91 44 7f
        E 48 81 44 00
        E 0 91 38 7f
        E 16 81 38 00
        E 0 91 39 7f
        E 96 81 39 00
        E 0 91 37 7f
        E 48 81 37 00
        E 0 91 2a 7f
        E 32 81 2a 00
        E 0 91 2e 7f
        E 64 b1 0b 66
        E 0 81 2e 00
        E 0 91 35 66
        E 16 b1 0b 5d
        E 128 b1 0b 55
        E 128 b1 0b 4c
        E 128 b1 0b 44
        E 128 b1 0b 3b
        E 112 81 35 00
        E 16 b1 0c 10
        E 0 b1 0b 2a
        E 0 91 3d 2a
        E 16 b1 0b 55
        E 16 b1 0b 7f
        E 16 b1 0b 77
        E 16 b1 0b 6e
        E 128 b1 0b 66
        E 16 b1 0b 5d
        E 48 b1 0c 20
        E 0 b1 0b 55
        E 32 b1 0b 4c
        E 32 b1 0b 44
        E 16 b1 0b 3b
        E 32 b1 0b 33
        E 32 b1 0b 2a
        E 32 b1 0b 22
        E 32 81 3d 00
        E 272 b1 0c 40
        E 0 b1 0b 7f
        E 0 91 3a 7f
        E 16 b1 0b 77
        E 16 b1 0b 6e
        E 16 b1 0b 66
        E 16 b1 0b 5d
        E 16 b1 0b 55
        E 16 b1 0b 4c
        E 16 b1 0b 44
        E 16 b1 0b 3b
        E 16 b1 0b 33
        E 16 b1 0b 2a
        E 16 b1 0b 22
        E 16 b1 0b 19
        E 16 b1 0b 11
        E 16 b1 0b 08
        E 32 b1 0b 11
        E 16 b1 0b 19
        E 16 b1 0b 2a
        E 16 b1 0b 33
        E 16 b1 0b 5d
        E 0 81 3a 00
        E 0 91 37 5d
        E 128 b1 0b 55
        E 48 b1 0b 4c
        E 16 b1 0b 44
        E 32 b1 0b 66
        E 0 81 37 00
        E 0 91 38 66
        E 16 b1 0b 5d
        E 128 b1 0b 55
        E 48 b1 0b 4c
        E 16 b1 0b 44
        E 32 b1 0b 66
        E 0 81 38 00
        E 0 91 3b 66
        E 16 b1 0b 5d
        E 128 b1 0b 55
        E 48 b1 0b 4c
        E 16 b1 0b 44
        E 32 b1 0b 3b
        E 32 b1 0b 33
        E 16 b1 0b 2a
        E 32 b1 0b 22
        E 16 b1 0b 19
        E 16 b1 0b 66
        E 0 81 3b 00
        E 0 91 38 66
        E 16 b1 0b 5d
        E 80 81 38 00
        E 16 b1 0b 7f
        E 0 91 36 7f
        E 16 b1 0b 6e
        E 16 b1 0b 66
        E 16 b1 0b 55
        E 16 b1 0b 4c
        E 16 b1 0b 44
        E 16 b1 0b 33
        E 0 81 36 00
        E 0 91 2c 33
        E 16 b1 0b 2a
        E 16 b1 0b 22
        E 16 b1 0b 11
        E 16 b1 0b 33
        E 0 81 2c 00
        E 0 91 38 33
        E 16 b1 0b 2a
        E 32 b1 0b 22
        E 16 b1 0b 19
        E 32 b1 0b 66
        E 0 81 38 00
        E 0 91 2f 66
        E 16 b1 0b 5d
        E 128 b1 0b 55
        E 112 b1 0b 4c
        E 16 b1 0b 44
        E 32 b1 0b 3b
        E 32 b1 0b 33
        E 16 b1 0b 66
        E 0 81 2f 00
        E 0 91 2c 66
        E 16 b1 0b 5d
        E 128 b1 0b 55
        E 128 b1 0b 4c
        E 16 b1 0b 44
        E 32 b1 0b 3b
        E 16 81 2c 00
        E 16 b1 0b 7f
        E 0 91 47 7f
        E 16 b1 0b 77
        E 48 b1 0b 6e
        E 48 b1 0b 66
        E 48 b1 0b 55
        E 0 81 47 00
        E 0 91 2f 55
        E 48 b1 0b 4c
        E 16 b1 0b 44
        E 32 b1 0b 66
        E 0 81 2f 00
        E 0 91 2e 66
        E 16 b1 0b 5d
        E 64 b1 0b 55
        E 32 b1 0b 66
        E 0 81 2e 00
        E 0 91 2c 66
        E 16 b1 0b 5d
        E 64 b1 0b 55
        E 32 b1 0b 4c
        E 16 b1 0b 66
        E 0 81 2c 00
        E 0 91 2b 66
        E 16 b1 0b 5d
        E 128 b1 0b 55
        E 128 b1 0b 4c
        E 32 81 2b 00
        E 16 b1 0b 7f
        E 0 91 42 7f
        E 16 b1 0b 77
        E 16 b1 0b 66
        E 16 b1 0b 55
        E 16 b1 0b 44
        E 16 b1 0b 33
        E 16 b1 0b 22
        E 16 b1 0b 19
        E 32 b1 0b 08
        E 16 81 42 00
        E 16 91 42 08
        E 16 b1 0b 19
        E 16 b1 0b 2a
        E 16 b1 0b 3b
        E 16 b1 0b 4c
        E 16 b1 0b 5d
        E 16 b1 0b 6e
        E 16 b1 0b 77
        E 16 b1 0b 7f
        E 16 b1 0b 6e
        E 16 b1 0b 5d
        E 16 b1 0b 4c
        E 16 b1 0b 44
        E 16 b1 0b 33
        E 16 b1 0b 22
        E 16 b1 0b 11
        E 16 81 42 00
        E 32 91 42 11
        E 16 b1 0b 22
        E 16 b1 0b 33
        E 16 b1 0b 44
        E 16 b1 0b 4c
        E 16 b1 0b 5d
        E 16 b1 0b 6e
        E 16 b1 0b 7f
        E 16 b1 0b 77
        E 16 b1 0b 66
        E 16 b1 0b 5d
        E 16 b1 0b 4c
        E 16 b1 0b 3b
        E 16 b1 0b 2a
        E 16 b1 0b 19
        E 16 b1 0b 22
        E 0 81 42 00
        E 0 91 2b 22
        E 16 b1 0b 19
        E 128 b1 0b 11
        E 112 81 2b 00
        E 16 b1 0b 7f
        E 0 91 47 7f
        E 16 b1 0b 77
        E 48 b1 0b 6e
        E 48 b1 0b 66
        E 48 81 47 00
        E 224 91 37 66
        E 16 b1 0b 5d
        E 128 b1 0b 55
        E 128 b1 0b 4c
        E 128 b1 0b 44
        E 128 b1 0b 3b
        E 128 b1 0b 33
        E 128 81 37 00
        E 16 b1 0b 7f
        E 0 91 47 7f
        E 16 b1 0b 77
        E 48 b1 0b 6e
        E 48 b1 0b 66
        E 48 b1 0b 22
        E 0 81 47 00
        E 0 91 37 22
        E 80 b1 0b 19
        E 128 b1 0b 11
        E 128 b1 0b 08
        E 128 81 37 00
        E 496 b1 0b 66
        E 0 91 35 66
        E 16 b1 0b 5d
        E 128 b1 0b 55
        E 112 b1 0b 4c
        E 16 b1 0b 44
        E 32 b1 0b 3b
        E 32 b1 0b 33
        E 16 b1 0b 2a
        E 16 b1 0b 66
        E 0 81 35 00
        E 0 91 2d 66
        E 16 b1 0b 5d
        E 64 81 2d 00
        E 16 b1 0b 7f
        E 0 91 47 7f
        E 16 b1 0b 77
        E 48 b1 0b 6e
        E 48 b1 0b 66
        E 48 b1 0b 55
        E 0 81 47 00
        E 0 91 2d 55
        E 16 b1 0b 4c
        E 128 b1 0b 44
        E 128 b1 0b 3b
        E 128 b1 0b 33
        E 32 81 2d 00
        E 16 b1 0b 7f
        E 0 91 42 7f
        E 16 b1 0b 77
        E 16 b1 0b 66
        E 16 b1 0b 55
        E 16 b1 0b 44
        E 16 b1 0b 33
        E 16 b1 0b 22
        E 16 b1 0b 19
        E 32 b1 0b 08
        E 16 81 42 00
        E 16 91 42 08
        E 16 b1 0b 19
        E 16 b1 0b 2a
        E 16 b1 0b 3b
        E 16 b1 0b 4c
        E 16 b1 0b 5d
        E 16 b1 0b 6e
        E 16 b1 0b 77
        E 16 b1 0b 7f
        E 16 b1 0b 6e
        E 16 b1 0b 5d
        E 16 b1 0b 4c
        E 16 b1 0b 44
        E 16 b1 0b 33
        E 16 b1 0b 22
        E 16 b1 0b 11
        E 16 81 42 00
        E 32 91 42 11
        E 16 b1 0b 22
        E 16 b1 0b 33
        E 16 b1 0b 44
        E 16 b1 0b 4c
        E 16 b1 0b 5d
        E 16 b1 0b 6e
        E 16 b1 0b 7f
        E 16 b1 0b 77
        E 16 b1 0b 66
        E 16 b1 0b 5d
        E 16 b1 0b 4c
        E 16 b1 0b 3b
        E 16 b1 0b 2a
        E 16 b1 0b 19
        E 16 b1 0b 5d
        E 0 81 42 00
        E 0 91 30 5d
        E 48 b1 0b 55
        E 48 b1 0b 4c
        E 16 b1 0b 44
        E 32 b1 0b 66
        E 0 81 30 00
        E 0 91 34 66
        E 16 b1 0b 5d
        E 64 81 34 00
        E 16 b1 0b 7f
        E 0 91 47 7f
        E 16 b1 0b 77
        E 48 b1 0b 6e
        E 48 b1 0b 66
        E 48 b1 0b 55
        E 0 81 47 00
        E 0 91 34 55
        E 16 b1 0b 4c
        E 128 b1 0b 44
        E 128 b1 0b 3b
        E 128 b1 0b 33
        E 128 b1 0b 2a
        E 128 b1 0b 22
        E 16 81 34 00
        E 16 b1 0b 7f
        E 0 91 42 7f
        E 16 b1 0b 77
        E 16 b1 0b 66
        E 16 b1 0b 55
        E 16 b1 0b 44
        E 16 b1 0b 33
        E 16 b1 0b 22
        E 16 b1 0b 19
        E 32 b1 0b 08
        E 16 81 42 00
        E 16 91 42 08
        E 16 b1 0b 19
        E 16 b1 0b 2a
        E 16 b1 0b 3b
        E 16 b1 0b 4c
        E 16 b1 0b 5d
        E 16 b1 0b 6e
        E 16 b1 0b 77
        E 16 b1 0b 7f
        E 16 b1 0b 6e
        E 16 b1 0b 5d
        E 16 b1 0b 4c
        E 16 b1 0b 44
        E 16 b1 0b 33
        E 16 b1 0b 22
        E 16 b1 0b 11
        E 16 81 42 00
        E 32 91 42 11
        E 16 b1 0b 22
        E 16 b1 0b 33
        E 16 b1 0b 44
        E 16 b1 0b 4c
        E 16 b1 0b 5d
        E 16 b1 0b 6e
        E 16 b1 0b 7f
        E 16 b1 0b 77
        E 16 b1 0b 66
        E 16 b1 0b 5d
        E 16 b1 0b 4c
        E 16 b1 0b 3b
        E 16 b1 0b 2a
        E 16 b1 0b 19
        E 16 81 42 00
        E 288 b1 0b 66
        E 0 91 33 66
        E 16 b1 0b 5d
        E 128 b1 0b 55
        E 112 b1 0b 4c
        E 16 b1 0b 44
        E 32 b1 0b 3b
        E 32 b1 0b 33
        E 16 b1 0b 66
        E 0 81 33 00
        E 0 91 37 66
        E 16 b1 0b 5d
        E 128 b1 0b 55
        E 128 b1 0b 4c
        E 128 b1 0b 44
        E 128 b1 0b 3b
        E 128 b1 0b 33
        E 128 b1 0b 2a
        E 128 b1 0b 22
        E 128 b1 0b 19
        E 128 b1 0b 11
        E 48 b1 0b 08
        E 16 81 37 00
        E 336 b1 0b 66
        E 0 91 37 66
        E 16 b1 0b 5d
        E 128 b1 0b 55
        E 128 b1 0b 4c
        E 128 b1 0b 44
        E 128 b1 0b 3b
        E 128 b1 0b 33
        E 128 b1 0b 2a
        E 128 b1 0b 22
        E 128 b1 0b 19
        E 128 b1 0b 11
        E 128 b1 0b 08
        E 128 81 37 00
        E 496 b1 0b 66
        E 0 91 35 66
        E 16 b1 0b 5d
        E 112 81 35 00
        E 16 b1 0b 7f
        E 0 91 42 7f
        E 16 b1 0b 77
        E 16 b1 0b 66
        E 16 b1 0b 55
        E 32 b1 0b 7f
        E 0 81 42 00
        E 0 91 5d 7f
        E 16 b1 0b 77
        E 16 b1 0b 6e
        E 16 b1 0b 66
        E 16 b1 0b 5d
        E 16 b1 0b 55
        E 16 b1 0b 4c
        E 16 b1 0b 44
        E 16 b1 0b 3b
        E 16 b1 0b 33
        E 16 b1 0b 2a
        E 16 b1 0b 22
        E 16 b1 0b 19
        E 16 b1 0b 11
        E 16 b1 0b 08
        E 16 b1 0b 5d
        E 0 81 5d 00
        E 0 91 2d 5d
        E 32 b1 0b 55
        E 128 81 2d 00
        E 16 b1 0b 7f
        E 0 91 42 7f
        E 16 b1 0b 77
        E 16 b1 0b 66
        E 16 b1 0b 55
        E 16 b1 0b 44
        E 16 b1 0b 33
        E 16 b1 0b 22
        E 16 b1 0b 19
        E 32 b1 0b 08
        E 16 81 42 00
        E 16 91 42 08
        E 16 b1 0b 19
        E 16 b1 0b 2a
        E 16 b1 0b 3b
        E 16 b1 0b 4c
        E 16 b1 0b 5d
        E 16 b1 0b 6e
        E 16 b1 0b 77
        E 16 b1 0b 7f
        E 16 b1 0b 6e
        E 16 b1 0b 5d
        E 16 b1 0b 4c
        E 16 b1 0b 44
        E 16 b1 0b 33
        E 16 b1 0b 22
        E 16 b1 0b 11
        E 16 81 42 00
        E 32 91 42 11
        E 16 b1 0b 22
        E 16 b1 0b 33
        E 16 b1 0b 44
        E 16 b1 0b 4c
        E 16 b1 0b 5d
        E 16 b1 0b 6e
        E 16 b1 0b 7f
        E 16 b1 0b 77
        E 16 b1 0b 66
        E 16 b1 0b 5d
        E 16 b1 0b 4c
        E 16 b1 0b 3b
        E 16 b1 0b 2a
        E 16 b1 0b 19
        E 16 81 42 00
        E 96 b1 0b 66
        E 0 91 2d 66
        E 16 b1 0b 5d
        E 128 b1 0b 55
        E 48 b1 0b 4c
        E 16 b1 0b 44
        E 32 b1 0b 66
        E 0 81 2d 00
        E 0 91 30 66
        E 16 b1 0b 5d
        E 128 b1 0b 55
        E 48 b1 0b 4c
        E 16 b1 0b 44
        E 32 b1 0b 66
        E 0 81 30 00
        E 0 91 34 66
        E 16 b1 0b 5d
        E 128 81 34 00
        E 16 b1 0b 7f
        E 0 91 47 7f
        E 16 b1 0b 77
        E 48 b1 0b 6e
        E 48 b1 0b 66
        E 48 b1 0b 4c
        E 0 81 47 00
        E 0 91 34 4c
        E 80 b1 0b 44
        E 128 b1 0b 3b
        E 128 b1 0b 33
        E 128 b1 0b 2a
        E 64 81 34 00
        E 16 b1 0b 7f
        E 0 91 42 7f
        E 16 b1 0b 77
        E 16 b1 0b 66
        E 16 b1 0b 55
        E 16 b1 0b 44
        E 16 b1 0b 33
        E 16 b1 0b 22
        E 16 b1 0b 19
        E 32 b1 0b 08
        E 16 81 42 00
        E 16 91 42 08
        E 16 b1 0b 19
        E 16 b1 0b 2a
        E 16 b1 0b 3b
        E 16 b1 0b 4c
        E 16 b1 0b 5d
        E 16 b1 0b 6e
        E 16 b1 0b 77
        E 16 b1 0b 7f
        E 16 b1 0b 6e
        E 16 b1 0b 5d
        E 16 b1 0b 4c
        E 16 b1 0b 44
        E 16 b1 0b 33
        E 16 b1 0b 22
        E 16 b1 0b 11
        E 16 81 42 00
        E 32 91 42 11
        E 16 b1 0b 22
        E 16 b1 0b 33
        E 16 b1 0b 44
        E 16 b1 0b 4c
        E 16 b1 0b 5d
        E 16 b1 0b 6e
        E 16 b1 0b 7f
        E 16 b1 0b 77
        E 16 b1 0b 66
        E 16 b1 0b 5d
        E 16 b1 0b 4c
        E 16 b1 0b 3b
        E 16 b1 0b 2a
        E 16 b1 0b 19
        E 16 b1 0b 66
        E 0 81 42 00
        E 0 91 2f 66
        E 16 b1 0b 5d
        E 64 b1 0b 55
        E 32 b1 0b 66
        E 0 81 2f 00
        E 0 91 2e 66
        E 16 b1 0b 5d
        E 64 81 2e 00
        E 16 b1 0b 7f
        E 0 91 47 7f
        E 16 b1 0b 77
        E 48 b1 0b 6e
        E 48 b1 0b 66
        E 48 b1 0b 5d
        E 0 81 47 00
        E 0 91 2b 5d
        E 48 81 2b 00
        E 0 b1 7b 00
        E 0 ff 2f 00
      >
    >
  >
  <TRACK {9054AC95-C8EA-429E-812B-26C1F6841D4F}
    NAME "NES - Triangle [ch2]"
    PEAKCOL 16744192
    BEAT -1
    AUTOMODE 0
    PANLAWFLAGS 3
    VOLPAN 1 0 -1 -1 1
    MUTESOLO 0 0 0
    IPHASE 0
    PLAYOFFS 0 1
    ISBUS 0 0
    BUSCOMP 0 0 0 0 0
    SHOWINMIX 1 0.6667 0.5 1 0.5 0 0 0
    FIXEDLANES 9 0 0 0 0
    SEL 0
    REC 0 5088 1 0 0 0 0 0
    VU 2
    TRACKHEIGHT 0 0 0 0 0 0 0
    INQ 0 0 0 0.5 100 0 0 100
    NCHAN 2
    FX 1
    TRACKID {9054AC95-C8EA-429E-812B-26C1F6841D4F}
    PERF 0
    MIDIOUT -1
    MAINSEND 1 0
    <FXCHAIN
      WNDRECT 24 52 700 560
      SHOW 0
      LASTSEL 0
      DOCKED 0
      BYPASS 0 0 0
      <JS "ReapNES Studio/ReapNES_Console.jsfx" ""
        2 15 1 10 80 10 100 2 1 15 1 5 60 10 80 1 1 0 50 0 0 15 1 0 100 0 0 0.500000 0.500000 0.400000 0.300000 0.800000 2 1 0 0 0 0 - - - - - - - - - - - - - - - - - - - - - - - - - -
      >
      FLOATPOS 0 0 0 0
      FXID {0FEB45B7-A5AD-4FCB-B5ED-572A21E84870}
      WAK 0 0
    >
    <ITEM
      POSITION 0
      LENGTH 73.6702977
      LOOP 0
      ALLTAKES 0
      FADEIN 0 0 0 0 0 0 0
      FADEOUT 0 0 0 0 0 0 0
      MUTE 0 0
      SEL 0
      IGUID {F31A0C50-3F48-4319-B36D-920971ACEE34}
      <SOURCE MIDI
        HASDATA 1 480 QN
        CCINTERP 32
        E 0 c2 26
        E 0 b2 0b 7f
        E 0 92 25 7f
        E 176 82 25 00
        E 48 b2 0b 7f
        E 0 92 31 7f
        E 160 82 31 00
        E 64 b2 0b 7f
        E 0 92 31 7f
        E 160 82 31 00
        E 48 b2 0b 7f
        E 0 92 25 7f
        E 80 82 25 00
        E 32 b2 0b 7f
        E 0 92 25 7f
        E 160 82 25 00
        E 48 b2 0b 7f
        E 0 92 31 7f
        E 160 82 31 00
        E 64 b2 0b 7f
        E 0 92 31 7f
        E 80 82 31 00
        E 32 b2 0b 7f
        E 0 92 31 7f
        E 160 82 31 00
        E 48 b2 0b 7f
        E 0 92 25 7f
        E 160 82 25 00
        E 64 b2 0b 7f
        E 0 92 25 7f
        E 160 82 25 00
        E 48 b2 0b 7f
        E 0 92 31 7f
        E 160 82 31 00
        E 64 b2 0b 7f
        E 0 92 31 7f
        E 160 82 31 00
        E 48 b2 0b 7f
        E 0 92 25 7f
        E 80 82 25 00
        E 32 b2 0b 7f
        E 0 92 25 7f
        E 160 82 25 00
        E 48 b2 0b 7f
        E 0 92 31 7f
        E 160 82 31 00
        E 64 b2 0b 7f
        E 0 92 31 7f
        E 80 82 31 00
        E 32 b2 0b 7f
        E 0 92 31 7f
        E 160 82 31 00
        E 48 b2 0b 7f
        E 0 92 25 7f
        E 160 82 25 00
        E 64 b2 0b 7f
        E 0 92 25 7f
        E 160 82 25 00
        E 48 b2 0b 7f
        E 0 92 31 7f
        E 160 82 31 00
        E 64 b2 0b 7f
        E 0 92 31 7f
        E 160 82 31 00
        E 48 b2 0b 7f
        E 0 92 25 7f
        E 80 82 25 00
        E 32 b2 0b 7f
        E 0 92 25 7f
        E 160 82 25 00
        E 48 b2 0b 7f
        E 0 92 31 7f
        E 160 82 31 00
        E 64 b2 0b 7f
        E 0 92 31 7f
        E 80 82 31 00
        E 32 b2 0b 7f
        E 0 92 31 7f
        E 160 82 31 00
        E 48 b2 0b 7f
        E 0 92 25 7f
        E 160 82 25 00
        E 64 b2 0b 7f
        E 0 92 25 7f
        E 160 82 25 00
        E 48 b2 0b 7f
        E 0 92 31 7f
        E 160 82 31 00
        E 64 b2 0b 7f
        E 0 92 31 7f
        E 160 82 31 00
        E 48 b2 0b 7f
        E 0 92 25 7f
        E 80 82 25 00
        E 32 b2 0b 7f
        E 0 92 25 7f
        E 160 82 25 00
        E 48 b2 0b 7f
        E 0 92 31 7f
        E 160 82 31 00
        E 64 b2 0b 7f
        E 0 92 31 7f
        E 80 82 31 00
        E 32 b2 0b 7f
        E 0 92 31 7f
        E 160 82 31 00
        E 48 b2 0b 7f
        E 0 92 25 7f
        E 160 82 25 00
        E 64 b2 0b 7f
        E 0 92 25 7f
        E 160 82 25 00
        E 48 b2 0b 7f
        E 0 92 31 7f
        E 160 82 31 00
        E 64 b2 0b 7f
        E 0 92 31 7f
        E 160 82 31 00
        E 48 b2 0b 7f
        E 0 92 25 7f
        E 80 82 25 00
        E 32 b2 0b 7f
        E 0 92 25 7f
        E 160 82 25 00
        E 48 b2 0b 7f
        E 0 92 31 7f
        E 160 82 31 00
        E 64 b2 0b 7f
        E 0 92 31 7f
        E 80 82 31 00
        E 32 b2 0b 7f
        E 0 92 31 7f
        E 160 82 31 00
        E 48 b2 0b 7f
        E 0 92 25 7f
        E 160 82 25 00
        E 64 b2 0b 7f
        E 0 92 25 7f
        E 160 82 25 00
        E 48 b2 0b 7f
        E 0 92 31 7f
        E 160 82 31 00
        E 64 b2 0b 7f
        E 0 92 31 7f
        E 160 82 31 00
        E 48 b2 0b 7f
        E 0 92 25 7f
        E 80 82 25 00
        E 32 b2 0b 7f
        E 0 92 25 7f
        E 160 82 25 00
        E 48 b2 0b 7f
        E 0 92 31 7f
        E 176 82 31 00
        E 48 b2 0b 7f
        E 0 92 31 7f
        E 80 82 31 00
        E 32 b2 0b 7f
        E 0 92 31 7f
        E 160 82 31 00
        E 48 b2 0b 7f
        E 0 92 25 7f
        E 160 82 25 00
        E 64 b2 0b 7f
        E 0 92 27 7f
        E 160 82 27 00
        E 48 b2 0b 7f
        E 0 92 33 7f
        E 160 82 33 00
        E 64 b2 0b 7f
        E 0 92 33 7f
        E 160 82 33 00
        E 48 b2 0b 7f
        E 0 92 27 7f
        E 80 82 27 00
        E 32 b2 0b 7f
        E 0 92 2c 7f
        E 80 82 2c 00
        E 240 b2 0b 7f
        E 0 92 20 7f
        E 512 82 20 00
        E 144 b2 0b 7f
        E 0 92 25 7f
        E 160 82 25 00
        E 48 b2 0b 7f
        E 0 92 25 7f
        E 160 82 25 00
        E 64 b2 0b 7f
        E 0 92 25 7f
        E 240 82 25 00
        E 80 b2 0b 7f
        E 0 92 29 7f
        E 160 82 29 00
        E 48 b2 0b 7f
        E 0 92 29 7f
        E 176 82 29 00
        E 48 b2 0b 7f
        E 0 92 29 7f
        E 80 82 29 00
        E 32 b2 0b 7f
        E 0 92 29 7f
        E 160 82 29 00
        E 48 b2 0b 7f
        E 0 92 29 7f
        E 160 82 29 00
        E 64 b2 0b 7f
        E 0 92 2a 7f
        E 160 82 2a 00
        E 48 b2 0b 7f
        E 0 92 2a 7f
        E 160 82 2a 00
        E 64 b2 0b 7f
        E 0 92 2a 7f
        E 240 82 2a 00
        E 80 b2 0b 7f
        E 0 92 2c 7f
        E 160 82 2c 00
        E 48 b2 0b 7f
        E 0 92 2c 7f
        E 176 82 2c 00
        E 48 b2 0b 7f
        E 0 92 2c 7f
        E 80 82 2c 00
        E 32 b2 0b 7f
        E 0 92 2c 7f
        E 160 82 2c 00
        E 48 b2 0b 7f
        E 0 92 2c 7f
        E 160 82 2c 00
        E 64 b2 0b 7f
        E 0 92 25 7f
        E 160 82 25 00
        E 48 b2 0b 7f
        E 0 92 25 7f
        E 160 82 25 00
        E 64 b2 0b 7f
        E 0 92 25 7f
        E 240 82 25 00
        E 80 b2 0b 7f
        E 0 92 29 7f
        E 160 82 29 00
        E 64 b2 0b 7f
        E 0 92 29 7f
        E 160 82 29 00
        E 48 b2 0b 7f
        E 0 92 29 7f
        E 80 82 29 00
        E 32 b2 0b 7f
        E 0 92 29 7f
        E 160 82 29 00
        E 48 b2 0b 7f
        E 0 92 29 7f
        E 160 82 29 00
        E 64 b2 0b 7f
        E 0 92 2a 7f
        E 160 82 2a 00
        E 48 b2 0b 7f
        E 0 92 2a 7f
        E 160 82 2a 00
        E 64 b2 0b 7f
        E 0 92 2a 7f
        E 256 82 2a 00
        E 64 b2 0b 7f
        E 0 92 2c 7f
        E 160 82 2c 00
        E 64 b2 0b 7f
        E 0 92 2c 7f
        E 160 82 2c 00
        E 48 b2 0b 7f
        E 0 92 2c 7f
        E 80 82 2c 00
        E 32 b2 0b 7f
        E 0 92 2c 7f
        E 160 82 2c 00
        E 48 b2 0b 7f
        E 0 92 2c 7f
        E 160 82 2c 00
        E 64 b2 0b 7f
        E 0 92 31 7f
        E 160 82 31 00
        E 48 b2 0b 7f
        E 0 92 25 7f
        E 160 82 25 00
        E 64 b2 0b 7f
        E 0 92 25 7f
        E 160 82 25 00
        E 4192 b2 0b 7f
        E 0 92 27 7f
        E 192 82 27 00
        E 64 b2 0b 7f
        E 0 92 27 7f
        E 176 82 27 00
        E 64 b2 0b 7f
        E 0 92 27 7f
        E 288 82 27 00
        E 64 b2 0b 7f
        E 0 92 27 7f
        E 192 82 27 00
        E 48 b2 0b 7f
        E 0 92 27 7f
        E 192 82 27 00
        E 48 b2 0b 7f
        E 0 92 27 7f
        E 96 82 27 00
        E 32 b2 0b 7f
        E 0 92 27 7f
        E 192 82 27 00
        E 48 b2 0b 7f
        E 0 92 27 7f
        E 192 82 27 00
        E 48 b2 0b 7f
        E 0 92 27 7f
        E 192 82 27 00
        E 48 b2 0b 7f
        E 0 92 27 7f
        E 192 82 27 00
        E 48 b2 0b 7f
        E 0 92 27 7f
        E 288 82 27 00
        E 64 b2 0b 7f
        E 0 92 27 7f
        E 192 82 27 00
        E 48 b2 0b 7f
        E 0 92 27 7f
        E 192 82 27 00
        E 48 b2 0b 7f
        E 0 92 27 7f
        E 96 82 27 00
        E 32 b2 0b 7f
        E 0 92 27 7f
        E 192 82 27 00
        E 48 b2 0b 7f
        E 0 92 27 7f
        E 192 82 27 00
        E 48 b2 0b 7f
        E 0 92 27 7f
        E 192 82 27 00
        E 48 b2 0b 7f
        E 0 92 27 7f
        E 192 82 27 00
        E 48 b2 0b 7f
        E 0 92 27 7f
        E 288 82 27 00
        E 64 b2 0b 7f
        E 0 92 27 7f
        E 192 82 27 00
        E 48 b2 0b 7f
        E 0 92 27 7f
        E 192 82 27 00
        E 48 b2 0b 7f
        E 0 92 27 7f
        E 96 82 27 00
        E 32 b2 0b 7f
        E 0 92 27 7f
        E 192 82 27 00
        E 48 b2 0b 7f
        E 0 92 27 7f
        E 192 82 27 00
        E 48 b2 0b 7f
        E 0 92 27 7f
        E 192 82 27 00
        E 48 b2 0b 7f
        E 0 92 27 7f
        E 192 82 27 00
        E 48 b2 0b 7f
        E 0 92 27 7f
        E 288 82 27 00
        E 80 b2 0b 7f
        E 0 92 27 7f
        E 176 82 27 00
        E 64 b2 0b 7f
        E 0 92 27 7f
        E 192 82 27 00
        E 48 b2 0b 7f
        E 0 92 27 7f
        E 96 82 27 00
        E 16 b2 0b 7f
        E 0 92 27 7f
        E 192 82 27 00
        E 48 b2 0b 7f
        E 0 92 27 7f
        E 192 82 27 00
        E 48 b2 0b 7f
        E 0 92 27 7f
        E 192 82 27 00
        E 48 b2 0b 7f
        E 0 92 27 7f
        E 192 82 27 00
        E 48 b2 0b 7f
        E 0 92 27 7f
        E 288 82 27 00
        E 80 b2 0b 7f
        E 0 92 27 7f
        E 192 82 27 00
        E 48 b2 0b 7f
        E 0 92 27 7f
        E 192 82 27 00
        E 48 b2 0b 7f
        E 0 92 27 7f
        E 96 82 27 00
        E 16 b2 0b 7f
        E 0 92 27 7f
        E 192 82 27 00
        E 48 b2 0b 7f
        E 0 92 27 7f
        E 192 82 27 00
        E 48 b2 0b 7f
        E 0 92 27 7f
        E 192 82 27 00
        E 48 b2 0b 7f
        E 0 92 27 7f
        E 192 82 27 00
        E 48 b2 0b 7f
        E 0 92 27 7f
        E 304 82 27 00
        E 64 b2 0b 7f
        E 0 92 27 7f
        E 192 82 27 00
        E 48 b2 0b 7f
        E 0 92 27 7f
        E 192 82 27 00
        E 48 b2 0b 7f
        E 0 92 27 7f
        E 96 82 27 00
        E 32 b2 0b 7f
        E 0 92 27 7f
        E 176 82 27 00
        E 64 b2 0b 7f
        E 0 92 27 7f
        E 176 82 27 00
        E 64 b2 0b 7f
        E 0 92 27 7f
        E 176 82 27 00
        E 64 b2 0b 7f
        E 0 92 27 7f
        E 176 82 27 00
        E 64 b2 0b 7f
        E 0 92 27 7f
        E 288 82 27 00
        E 64 b2 0b 7f
        E 0 92 27 7f
        E 192 82 27 00
        E 48 b2 0b 7f
        E 0 92 27 7f
        E 192 82 27 00
        E 48 b2 0b 7f
        E 0 92 27 7f
        E 96 82 27 00
        E 32 b2 0b 7f
        E 0 92 27 7f
        E 192 82 27 00
        E 48 b2 0b 7f
        E 0 92 27 7f
        E 192 82 27 00
        E 48 b2 0b 7f
        E 0 92 27 7f
        E 192 82 27 00
        E 48 b2 0b 7f
        E 0 92 27 7f
        E 192 82 27 00
        E 48 b2 0b 7f
        E 0 92 27 7f
        E 288 82 27 00
        E 64 b2 0b 7f
        E 0 92 27 7f
        E 192 82 27 00
        E 48 b2 0b 7f
        E 0 92 27 7f
        E 192 82 27 00
        E 48 b2 0b 7f
        E 0 92 27 7f
        E 96 82 27 00
        E 32 b2 0b 7f
        E 0 92 27 7f
        E 192 82 27 00
        E 48 b2 0b 7f
        E 0 92 27 7f
        E 192 82 27 00
        E 48 b2 0b 7f
        E 0 92 26 7f
        E 192 82 26 00
        E 48 b2 0b 7f
        E 0 92 26 7f
        E 192 82 26 00
        E 48 b2 0b 7f
        E 0 92 26 7f
        E 192 82 26 00
        E 48 b2 0b 7f
        E 0 92 26 7f
        E 96 82 26 00
        E 16 b2 0b 7f
        E 0 92 2b 7f
        E 192 82 2b 00
        E 64 b2 0b 7f
        E 0 92 2b 7f
        E 176 82 2b 00
        E 64 b2 0b 7f
        E 0 92 2b 7f
        E 96 82 2b 00
        E 16 b2 0b 7f
        E 0 92 2b 7f
        E 192 82 2b 00
        E 48 b2 0b 7f
        E 0 92 2b 7f
        E 192 82 2b 00
        E 48 b2 0b 7f
        E 0 92 30 7f
        E 192 82 30 00
        E 48 b2 0b 7f
        E 0 92 30 7f
        E 192 82 30 00
        E 48 b2 0b 7f
        E 0 92 30 7f
        E 192 82 30 00
        E 48 b2 0b 7f
        E 0 92 30 7f
        E 96 82 30 00
        E 32 b2 0b 7f
        E 0 92 2e 7f
        E 192 82 2e 00
        E 48 b2 0b 7f
        E 0 92 2e 7f
        E 192 82 2e 00
        E 48 b2 0b 7f
        E 0 92 2e 7f
        E 96 82 2e 00
        E 16 b2 0b 7f
        E 0 92 2e 7f
        E 192 82 2e 00
        E 48 b2 0b 7f
        E 0 92 2e 7f
        E 192 82 2e 00
        E 48 b2 0b 7f
        E 0 92 2d 7f
        E 192 82 2d 00
        E 48 b2 0b 7f
        E 0 92 2d 7f
        E 192 82 2d 00
        E 48 b2 0b 7f
        E 0 92 2d 7f
        E 192 82 2d 00
        E 48 b2 0b 7f
        E 0 92 2d 7f
        E 96 82 2d 00
        E 32 b2 0b 7f
        E 0 92 32 7f
        E 192 82 32 00
        E 48 b2 0b 7f
        E 0 92 32 7f
        E 192 82 32 00
        E 48 b2 0b 7f
        E 0 92 32 7f
        E 96 82 32 00
        E 16 b2 0b 7f
        E 0 92 32 7f
        E 192 82 32 00
        E 48 b2 0b 7f
        E 0 92 32 7f
        E 192 82 32 00
        E 48 b2 0b 7f
        E 0 92 2b 7f
        E 192 82 2b 00
        E 48 b2 0b 7f
        E 0 92 2b 7f
        E 192 82 2b 00
        E 48 b2 0b 7f
        E 0 92 2d 7f
        E 192 82 2d 00
        E 64 b2 0b 7f
        E 0 92 2d 7f
        E 176 82 2d 00
        E 64 b2 0b 7f
        E 0 92 2f 7f
        E 176 82 2f 00
        E 64 b2 0b 7f
        E 0 92 2f 7f
        E 176 82 2f 00
        E 176 b2 0b 7f
        E 0 92 2e 7f
        E 288 82 2e 00
        E 80 b2 0b 7f
        E 0 92 27 7f
        E 192 82 27 00
        E 48 b2 0b 7f
        E 0 92 27 7f
        E 192 82 27 00
        E 48 b2 0b 7f
        E 0 92 27 7f
        E 192 82 27 00
        E 48 b2 0b 7f
        E 0 92 27 7f
        E 96 82 27 00
        E 16 b2 0b 7f
        E 0 92 27 7f
        E 192 82 27 00
        E 48 b2 0b 7f
        E 0 92 27 7f
        E 192 82 27 00
        E 48 b2 0b 7f
        E 0 92 27 7f
        E 96 82 27 00
        E 32 b2 0b 7f
        E 0 92 27 7f
        E 192 82 27 00
        E 48 b2 0b 7f
        E 0 92 27 7f
        E 192 82 27 00
        E 48 b2 0b 7f
        E 0 92 27 7f
        E 192 82 27 00
        E 48 b2 0b 7f
        E 0 92 27 7f
        E 192 82 27 00
        E 48 b2 0b 7f
        E 0 92 27 7f
        E 192 82 27 00
        E 48 b2 0b 7f
        E 0 92 27 7f
        E 96 82 27 00
        E 16 b2 0b 7f
        E 0 92 27 7f
        E 192 82 27 00
        E 48 b2 0b 7f
        E 0 92 27 7f
        E 192 82 27 00
        E 48 b2 0b 7f
        E 0 92 27 7f
        E 96 82 27 00
        E 32 b2 0b 7f
        E 0 92 27 7f
        E 192 82 27 00
        E 48 b2 0b 7f
        E 0 92 27 7f
        E 192 82 27 00
        E 48 b2 0b 7f
        E 0 92 27 7f
        E 192 82 27 00
        E 48 b2 0b 7f
        E 0 92 27 7f
        E 192 82 27 00
        E 48 b2 0b 7f
        E 0 92 27 7f
        E 192 82 27 00
        E 48 b2 0b 7f
        E 0 92 27 7f
        E 96 82 27 00
        E 32 b2 0b 7f
        E 0 92 27 7f
        E 176 82 27 00
        E 64 b2 0b 7f
        E 0 92 27 7f
        E 176 82 27 00
        E 64 b2 0b 7f
        E 0 92 27 7f
        E 96 82 27 00
        E 16 b2 0b 7f
        E 0 92 27 7f
        E 192 82 27 00
        E 48 b2 0b 7f
        E 0 92 27 7f
        E 192 82 27 00
        E 48 b2 0b 7f
        E 0 92 27 7f
        E 192 82 27 00
        E 48 b2 0b 7f
        E 0 92 27 7f
        E 192 82 27 00
        E 48 b2 0b 7f
        E 0 92 27 7f
        E 192 82 27 00
        E 48 b2 0b 7f
        E 0 92 27 7f
        E 96 82 27 00
        E 32 b2 0b 7f
        E 0 92 2e 7f
        E 192 82 2e 00
        E 48 b2 0b 7f
        E 0 92 2e 7f
        E 192 82 2e 00
        E 48 b2 0b 7f
        E 0 92 2e 7f
        E 96 82 2e 00
        E 16 b2 0b 7f
        E 0 92 2e 7f
        E 192 82 2e 00
        E 48 b2 0b 7f
        E 0 92 2e 7f
        E 192 82 2e 00
        E 48 b2 0b 7f
        E 0 92 27 7f
        E 192 82 27 00
        E 48 b2 0b 7f
        E 0 92 27 7f
        E 192 82 27 00
        E 48 b2 0b 7f
        E 0 92 27 7f
        E 192 82 27 00
        E 48 b2 0b 7f
        E 0 92 27 7f
        E 96 82 27 00
        E 32 b2 0b 7f
        E 0 92 27 7f
        E 192 82 27 00
        E 48 b2 0b 7f
        E 0 92 27 7f
        E 192 82 27 00
        E 48 b2 0b 7f
        E 0 92 27 7f
        E 96 82 27 00
        E 16 b2 0b 7f
        E 0 92 27 7f
        E 192 82 27 00
        E 48 b2 0b 7f
        E 0 92 27 7f
        E 192 82 27 00
        E 48 b2 0b 7f
        E 0 92 27 7f
        E 192 82 27 00
        E 64 b2 0b 7f
        E 0 92 27 7f
        E 176 82 27 00
        E 64 b2 0b 7f
        E 0 92 27 7f
        E 176 82 27 00
        E 64 b2 0b 7f
        E 0 92 27 7f
        E 96 82 27 00
        E 16 b2 0b 7f
        E 0 92 27 7f
        E 192 82 27 00
        E 48 b2 0b 7f
        E 0 92 27 7f
        E 192 82 27 00
        E 48 b2 0b 7f
        E 0 92 27 7f
        E 96 82 27 00
        E 32 b2 0b 7f
        E 0 92 27 7f
        E 192 82 27 00
        E 48 b2 0b 7f
        E 0 92 27 7f
        E 192 82 27 00
        E 48 b2 0b 7f
        E 0 92 27 7f
        E 192 82 27 00
        E 48 b2 0b 7f
        E 0 92 27 7f
        E 192 82 27 00
        E 48 b2 0b 7f
        E 0 92 27 7f
        E 192 82 27 00
        E 48 b2 0b 7f
        E 0 92 27 7f
        E 96 82 27 00
        E 16 b2 0b 7f
        E 0 92 27 7f
        E 192 82 27 00
        E 48 b2 0b 7f
        E 0 92 27 7f
        E 192 82 27 00
        E 48 b2 0b 7f
        E 0 92 27 7f
        E 96 82 27 00
        E 32 b2 0b 7f
        E 0 92 27 7f
        E 192 82 27 00
        E 48 b2 0b 7f
        E 0 92 27 7f
        E 192 82 27 00
        E 48 b2 0b 7f
        E 0 92 27 7f
        E 192 82 27 00
        E 48 b2 0b 7f
        E 0 92 27 7f
        E 192 82 27 00
        E 48 b2 0b 7f
        E 0 92 27 7f
        E 192 82 27 00
        E 48 b2 0b 7f
        E 0 92 27 7f
        E 96 82 27 00
        E 16 b2 0b 7f
        E 0 92 27 7f
        E 192 82 27 00
        E 48 b2 0b 7f
        E 0 92 27 7f
        E 192 82 27 00
        E 48 b2 0b 7f
        E 0 92 27 7f
        E 96 82 27 00
        E 32 b2 0b 7f
        E 0 92 27 7f
        E 192 82 27 00
        E 48 b2 0b 7f
        E 0 92 27 7f
        E 192 82 27 00
        E 48 b2 0b 7f
        E 0 92 27 7f
        E 192 82 27 00
        E 48 b2 0b 7f
        E 0 92 27 7f
        E 192 82 27 00
        E 48 b2 0b 7f
        E 0 92 27 7f
        E 288 82 27 00
        E 80 b2 0b 7f
        E 0 92 27 7f
        E 176 82 27 00
        E 64 b2 0b 7f
        E 0 92 27 7f
        E 192 82 27 00
        E 48 b2 0b 7f
        E 0 92 27 7f
        E 96 82 27 00
        E 16 b2 0b 7f
        E 0 92 27 7f
        E 192 82 27 00
        E 48 b2 0b 7f
        E 0 92 27 7f
        E 192 82 27 00
        E 48 b2 0b 7f
        E 0 92 27 7f
        E 192 82 27 00
        E 48 b2 0b 7f
        E 0 92 27 7f
        E 192 82 27 00
        E 48 b2 0b 7f
        E 0 92 27 7f
        E 288 82 27 00
        E 80 b2 0b 7f
        E 0 92 27 7f
        E 192 82 27 00
        E 48 b2 0b 7f
        E 0 92 27 7f
        E 192 82 27 00
        E 48 b2 0b 7f
        E 0 92 27 7f
        E 96 82 27 00
        E 16 b2 0b 7f
        E 0 92 27 7f
        E 192 82 27 00
        E 48 b2 0b 7f
        E 0 92 27 7f
        E 192 82 27 00
        E 48 b2 0b 7f
        E 0 92 27 7f
        E 192 82 27 00
        E 48 b2 0b 7f
        E 0 92 27 7f
        E 192 82 27 00
        E 48 b2 0b 7f
        E 0 92 27 7f
        E 304 82 27 00
        E 64 b2 0b 7f
        E 0 92 27 7f
        E 192 82 27 00
        E 48 b2 0b 7f
        E 0 92 27 7f
        E 192 82 27 00
        E 48 b2 0b 7f
        E 0 92 27 7f
        E 96 82 27 00
        E 32 b2 0b 7f
        E 0 92 27 7f
        E 176 82 27 00
        E 64 b2 0b 7f
        E 0 92 27 7f
        E 176 82 27 00
        E 64 b2 0b 7f
        E 0 92 27 7f
        E 176 82 27 00
        E 64 b2 0b 7f
        E 0 92 27 7f
        E 176 82 27 00
        E 64 b2 0b 7f
        E 0 92 27 7f
        E 288 82 27 00
        E 64 b2 0b 7f
        E 0 92 27 7f
        E 192 82 27 00
        E 48 b2 0b 7f
        E 0 92 27 7f
        E 192 82 27 00
        E 48 b2 0b 7f
        E 0 92 27 7f
        E 96 82 27 00
        E 32 b2 0b 7f
        E 0 92 27 7f
        E 192 82 27 00
        E 48 b2 0b 7f
        E 0 92 27 7f
        E 192 82 27 00
        E 48 b2 0b 7f
        E 0 92 27 7f
        E 192 82 27 00
        E 48 b2 0b 7f
        E 0 92 27 7f
        E 192 82 27 00
        E 48 b2 0b 7f
        E 0 92 27 7f
        E 288 82 27 00
        E 64 b2 0b 7f
        E 0 92 27 7f
        E 192 82 27 00
        E 48 b2 0b 7f
        E 0 92 27 7f
        E 192 82 27 00
        E 48 b2 0b 7f
        E 0 92 27 7f
        E 96 82 27 00
        E 32 b2 0b 7f
        E 0 92 27 7f
        E 192 82 27 00
        E 48 b2 0b 7f
        E 0 92 27 7f
        E 192 82 27 00
        E 48 b2 0b 7f
        E 0 92 27 7f
        E 192 82 27 00
        E 48 b2 0b 7f
        E 0 92 27 7f
        E 192 82 27 00
        E 48 b2 0b 7f
        E 0 92 27 7f
        E 288 82 27 00
        E 64 b2 0b 7f
        E 0 92 27 7f
        E 192 82 27 00
        E 48 b2 0b 7f
        E 0 92 27 7f
        E 192 82 27 00
        E 64 b2 0b 7f
        E 0 92 27 7f
        E 96 82 27 00
        E 16 b2 0b 7f
        E 0 92 27 7f
        E 192 82 27 00
        E 48 b2 0b 7f
        E 0 92 27 7f
        E 192 82 27 00
        E 48 b2 0b 7f
        E 0 92 27 7f
        E 192 82 27 00
        E 48 b2 0b 7f
        E 0 92 27 7f
        E 192 82 27 00
        E 48 b2 0b 7f
        E 0 92 27 7f
        E 288 82 27 00
        E 80 b2 0b 7f
        E 0 92 27 7f
        E 192 82 27 00
        E 48 b2 0b 7f
        E 0 92 27 7f
        E 192 82 27 00
        E 48 b2 0b 7f
        E 0 92 27 7f
        E 96 82 27 00
        E 16 b2 0b 7f
        E 0 92 27 7f
        E 192 82 27 00
        E 48 b2 0b 7f
        E 0 92 27 7f
        E 192 82 27 00
        E 48 b2 0b 7f
        E 0 92 27 7f
        E 64 82 27 00
        E 0 b2 7b 00
        E 0 ff 2f 00
      >
    >
  >
  <TRACK {A8576FA2-625E-49EE-B652-34DB5E8C197F}
    NAME "NES - Noise / Drums [ch3]"
    PEAKCOL 11184810
    BEAT -1
    AUTOMODE 0
    PANLAWFLAGS 3
    VOLPAN 1 0 -1 -1 1
    MUTESOLO 0 0 0
    IPHASE 0
    PLAYOFFS 0 1
    ISBUS 0 0
    BUSCOMP 0 0 0 0 0
    SHOWINMIX 1 0.6667 0.5 1 0.5 0 0 0
    FIXEDLANES 9 0 0 0 0
    SEL 0
    REC 0 5088 1 0 0 0 0 0
    VU 2
    TRACKHEIGHT 0 0 0 0 0 0 0
    INQ 0 0 0 0.5 100 0 0 100
    NCHAN 2
    FX 1
    TRACKID {A8576FA2-625E-49EE-B652-34DB5E8C197F}
    PERF 0
    MIDIOUT -1
    MAINSEND 1 0
    <FXCHAIN
      WNDRECT 24 52 700 560
      SHOW 0
      LASTSEL 0
      DOCKED 0
      BYPASS 0 0 0
      <JS "ReapNES Studio/ReapNES_Console.jsfx" ""
        2 15 1 10 80 10 100 2 1 15 1 5 60 10 80 1 1 0 50 0 0 15 1 0 100 0 0 0.500000 0.500000 0.400000 0.300000 0.800000 3 1 0 0 0 0 - - - - - - - - - - - - - - - - - - - - - - - - - -
      >
      FLOATPOS 0 0 0 0
      FXID {78E4CF50-2EB0-4DB3-875A-1BBDCE2E9FDC}
      WAK 0 0
    >
    <ITEM
      POSITION 0
      LENGTH 73.6702977
      LOOP 0
      ALLTAKES 0
      FADEIN 0 0 0 0 0 0 0
      FADEOUT 0 0 0 0 0 0 0
      MUTE 0 0
      SEL 0
      IGUID {8750078C-1500-4260-8D21-40B600C72579}
      <SOURCE MIDI
        HASDATA 1 480 QN
        CCINTERP 32
        E 224 93 2a 66
        E 64 83 2a 00
        E 368 93 2a 66
        E 64 83 2a 00
        E 368 93 2a 66
        E 64 83 2a 00
        E 368 93 2a 66
        E 64 83 2a 00
        E 368 93 2a 66
        E 64 83 2a 00
        E 368 93 2a 66
        E 64 83 2a 00
        E 368 93 2a 66
        E 64 83 2a 00
        E 368 93 2a 66
        E 64 83 2a 00
        E 368 93 2a 66
        E 64 83 2a 00
        E 368 93 2a 66
        E 64 83 2a 00
        E 368 93 2a 66
        E 64 83 2a 00
        E 368 93 2a 66
        E 64 83 2a 00
        E 368 93 2a 66
        E 64 83 2a 00
        E 368 93 2a 66
        E 64 83 2a 00
        E 368 93 2a 66
        E 64 83 2a 00
        E 368 93 2a 66
        E 64 83 2a 00
        E 368 93 2a 66
        E 64 83 2a 00
        E 368 93 2a 66
        E 64 83 2a 00
        E 368 93 2a 66
        E 64 83 2a 00
        E 368 93 2a 66
        E 64 83 2a 00
        E 368 93 2a 66
        E 64 83 2a 00
        E 368 93 2a 66
        E 64 83 2a 00
        E 368 93 2a 66
        E 64 83 2a 00
        E 368 93 2a 66
        E 64 83 2a 00
        E 368 93 2a 66
        E 64 83 2a 00
        E 368 93 2a 66
        E 64 83 2a 00
        E 368 93 2a 66
        E 64 83 2a 00
        E 368 93 2a 66
        E 64 83 2a 00
        E 368 93 2a 66
        E 64 83 2a 00
        E 368 93 2a 66
        E 64 83 2a 00
        E 368 93 2a 66
        E 64 83 2a 00
        E 368 93 2a 66
        E 64 83 2a 00
        E 368 93 2a 66
        E 64 83 2a 00
        E 368 93 2a 66
        E 64 83 2a 00
        E 368 93 2a 66
        E 64 83 2a 00
        E 368 93 2a 66
        E 64 83 2a 00
        E 368 93 2a 66
        E 64 83 2a 00
        E 368 93 2a 66
        E 64 83 2a 00
        E 368 93 2a 66
        E 64 83 2a 00
        E 368 93 2a 66
        E 64 83 2a 00
        E 368 93 2a 66
        E 64 83 2a 00
        E 368 93 2a 66
        E 64 83 2a 00
        E 368 93 2a 66
        E 64 83 2a 00
        E 368 93 2a 66
        E 64 83 2a 00
        E 160 93 2a 66
        E 64 83 2a 00
        E 144 93 2a 66
        E 64 83 2a 00
        E 160 93 2a 66
        E 64 83 2a 00
        E 4288 93 2a 66
        E 64 83 2a 00
        E 192 93 2a 66
        E 64 83 2a 00
        E 176 93 2a 66
        E 64 83 2a 00
        E 176 93 2a 66
        E 64 83 2a 00
        E 48 93 2a 66
        E 64 83 2a 00
        E 176 93 2a 66
        E 64 83 2a 00
        E 64 93 2a 66
        E 64 83 2a 00
        E 48 93 2a 66
        E 64 83 2a 00
        E 64 93 2a 66
        E 64 83 2a 00
        E 176 93 2a 66
        E 64 83 2a 00
        E 176 93 2a 66
        E 64 83 2a 00
        E 176 93 2a 66
        E 64 83 2a 00
        E 176 93 2a 66
        E 64 83 2a 00
        E 176 93 2a 66
        E 64 83 2a 00
        E 48 93 2a 66
        E 64 83 2a 00
        E 176 93 2a 66
        E 64 83 2a 00
        E 64 93 2a 66
        E 64 83 2a 00
        E 48 93 2a 66
        E 64 83 2a 00
        E 64 93 2a 66
        E 64 83 2a 00
        E 176 93 2a 66
        E 64 83 2a 00
        E 176 93 2a 66
        E 64 83 2a 00
        E 176 93 2a 66
        E 64 83 2a 00
        E 176 93 2a 66
        E 64 83 2a 00
        E 176 93 2a 66
        E 64 83 2a 00
        E 48 93 2a 66
        E 64 83 2a 00
        E 176 93 2a 66
        E 64 83 2a 00
        E 64 93 2a 66
        E 64 83 2a 00
        E 48 93 2a 66
        E 64 83 2a 00
        E 64 93 2a 66
        E 64 83 2a 00
        E 176 93 2a 66
        E 64 83 2a 00
        E 176 93 2a 66
        E 64 83 2a 00
        E 176 93 2a 66
        E 64 83 2a 00
        E 176 93 2a 66
        E 64 83 2a 00
        E 176 93 2a 66
        E 64 83 2a 00
        E 64 93 2a 66
        E 64 83 2a 00
        E 176 93 2a 66
        E 64 83 2a 00
        E 48 93 2a 66
        E 64 83 2a 00
        E 64 93 2a 66
        E 64 83 2a 00
        E 48 93 2a 66
        E 64 83 2a 00
        E 176 93 2a 66
        E 64 83 2a 00
        E 176 93 2a 66
        E 64 83 2a 00
        E 176 93 2a 66
        E 64 83 2a 00
        E 176 93 2a 66
        E 64 83 2a 00
        E 176 93 2a 66
        E 64 83 2a 00
        E 64 93 2a 66
        E 64 83 2a 00
        E 176 93 2a 66
        E 64 83 2a 00
        E 48 93 2a 66
        E 64 83 2a 00
        E 64 93 2a 66
        E 64 83 2a 00
        E 48 93 2a 66
        E 64 83 2a 00
        E 176 93 2a 66
        E 64 83 2a 00
        E 176 93 2a 66
        E 64 83 2a 00
        E 176 93 2a 66
        E 64 83 2a 00
        E 176 93 2a 66
        E 64 83 2a 00
        E 176 93 2a 66
        E 64 83 2a 00
        E 64 93 2a 66
        E 64 83 2a 00
        E 176 93 2a 66
        E 64 83 2a 00
        E 48 93 2a 66
        E 64 83 2a 00
        E 64 93 2a 66
        E 64 83 2a 00
        E 64 93 2a 66
        E 64 83 2a 00
        E 176 93 2a 66
        E 64 83 2a 00
        E 176 93 2a 66
        E 64 83 2a 00
        E 176 93 2a 66
        E 64 83 2a 00
        E 176 93 2a 66
        E 64 83 2a 00
        E 176 93 2a 66
        E 64 83 2a 00
        E 48 93 2a 66
        E 64 83 2a 00
        E 176 93 2a 66
        E 64 83 2a 00
        E 64 93 2a 66
        E 64 83 2a 00
        E 48 93 2a 66
        E 64 83 2a 00
        E 64 93 2a 66
        E 64 83 2a 00
        E 176 93 2a 66
        E 64 83 2a 00
        E 176 93 2a 66
        E 64 83 2a 00
        E 176 93 2a 66
        E 64 83 2a 00
        E 176 93 2a 66
        E 64 83 2a 00
        E 176 93 2a 66
        E 64 83 2a 00
        E 48 93 2a 66
        E 64 83 2a 00
        E 176 93 2a 66
        E 64 83 2a 00
        E 64 93 2a 66
        E 32 83 2a 00
        E 16 93 2a 6e
        E 80 83 2a 00
        E 0 93 2a 44
        E 64 83 2a 00
        E 0 93 2a 22
        E 64 83 2a 00
        E 32 93 2a 19
        E 16 83 2a 00
        E 176 93 2a 66
        E 64 83 2a 00
        E 176 93 2a 66
        E 64 83 2a 00
        E 176 93 2a 66
        E 64 83 2a 00
        E 176 93 2a 66
        E 64 83 2a 00
        E 176 93 2a 66
        E 64 83 2a 00
        E 48 93 2a 66
        E 64 83 2a 00
        E 192 93 2a 66
        E 64 83 2a 00
        E 48 93 2a 66
        E 64 83 2a 00
        E 64 93 2a 66
        E 64 83 2a 00
        E 48 93 2a 66
        E 64 83 2a 00
        E 176 93 2a 66
        E 64 83 2a 00
        E 176 93 2a 66
        E 64 83 2a 00
        E 176 93 2a 66
        E 64 83 2a 00
        E 176 93 2a 66
        E 64 83 2a 00
        E 176 93 2a 66
        E 64 83 2a 00
        E 64 93 2a 66
        E 64 83 2a 00
        E 176 93 2a 66
        E 64 83 2a 00
        E 48 93 2a 66
        E 64 83 2a 00
        E 64 93 2a 66
        E 64 83 2a 00
        E 48 93 2a 66
        E 64 83 2a 00
        E 176 93 2a 66
        E 64 83 2a 00
        E 176 93 2a 66
        E 64 83 2a 00
        E 176 93 2a 66
        E 64 83 2a 00
        E 176 93 2a 66
        E 64 83 2a 00
        E 176 93 2a 66
        E 64 83 2a 00
        E 64 93 2a 66
        E 64 83 2a 00
        E 176 93 2a 66
        E 64 83 2a 00
        E 48 93 2a 66
        E 64 83 2a 00
        E 64 93 2a 66
        E 64 83 2a 00
        E 48 93 2a 66
        E 64 83 2a 00
        E 176 93 2a 66
        E 64 83 2a 00
        E 176 93 2a 66
        E 64 83 2a 00
        E 176 93 2a 66
        E 64 83 2a 00
        E 176 93 2a 66
        E 64 83 2a 00
        E 192 93 2a 66
        E 64 83 2a 00
        E 176 93 2a 66
        E 64 83 2a 00
        E 176 93 2a 66
        E 64 83 2a 00
        E 176 93 2a 66
        E 64 83 2a 00
        E 48 93 2a 66
        E 64 83 2a 00
        E 176 93 2a 66
        E 64 83 2a 00
        E 64 93 2a 66
        E 64 83 2a 00
        E 176 93 2a 66
        E 64 83 2a 00
        E 176 93 2a 66
        E 64 83 2a 00
        E 176 93 2a 66
        E 64 83 2a 00
        E 48 93 2a 66
        E 64 83 2a 00
        E 176 93 2a 66
        E 64 83 2a 00
        E 64 93 2a 66
        E 64 83 2a 00
        E 48 93 2a 66
        E 64 83 2a 00
        E 64 93 2a 66
        E 64 83 2a 00
        E 176 93 2a 66
        E 64 83 2a 00
        E 176 93 2a 66
        E 64 83 2a 00
        E 176 93 2a 66
        E 64 83 2a 00
        E 176 93 2a 66
        E 64 83 2a 00
        E 176 93 2a 66
        E 64 83 2a 00
        E 48 93 2a 66
        E 64 83 2a 00
        E 176 93 2a 66
        E 64 83 2a 00
        E 64 93 2a 66
        E 64 83 2a 00
        E 48 93 2a 66
        E 64 83 2a 00
        E 64 93 2a 66
        E 64 83 2a 00
        E 144 93 2a 6e
        E 80 83 2a 00
        E 0 93 2a 44
        E 64 83 2a 00
        E 0 93 2a 22
        E 64 83 2a 00
        E 64 93 2a 66
        E 64 83 2a 00
        E 176 93 2a 66
        E 64 83 2a 00
        E 176 93 2a 66
        E 64 83 2a 00
        E 176 93 2a 66
        E 64 83 2a 00
        E 64 93 2a 66
        E 64 83 2a 00
        E 176 93 2a 66
        E 64 83 2a 00
        E 48 93 2a 66
        E 64 83 2a 00
        E 64 93 2a 66
        E 64 83 2a 00
        E 48 93 2a 66
        E 64 83 2a 00
        E 176 93 2a 66
        E 64 83 2a 00
        E 176 93 2a 66
        E 64 83 2a 00
        E 176 93 2a 66
        E 64 83 2a 00
        E 176 93 2a 66
        E 64 83 2a 00
        E 176 93 2a 66
        E 64 83 2a 00
        E 64 93 2a 66
        E 64 83 2a 00
        E 176 93 2a 66
        E 64 83 2a 00
        E 48 93 2a 66
        E 64 83 2a 00
        E 64 93 2a 66
        E 64 83 2a 00
        E 48 93 2a 66
        E 64 83 2a 00
        E 176 93 2a 66
        E 64 83 2a 00
        E 176 93 2a 66
        E 64 83 2a 00
        E 176 93 2a 66
        E 64 83 2a 00
        E 176 93 2a 66
        E 64 83 2a 00
        E 176 93 2a 66
        E 64 83 2a 00
        E 64 93 2a 66
        E 64 83 2a 00
        E 176 93 2a 66
        E 64 83 2a 00
        E 48 93 2a 66
        E 64 83 2a 00
        E 64 93 2a 66
        E 64 83 2a 00
        E 48 93 2a 66
        E 64 83 2a 00
        E 176 93 2a 66
        E 64 83 2a 00
        E 176 93 2a 66
        E 64 83 2a 00
        E 192 93 2a 66
        E 64 83 2a 00
        E 176 93 2a 66
        E 64 83 2a 00
        E 176 93 2a 66
        E 64 83 2a 00
        E 48 93 2a 66
        E 48 83 2a 00
        E 16 93 2a 3b
        E 80 83 2a 00
        E 384 93 2a 19
        E 16 83 2a 00
        E 64 93 2a 66
        E 64 83 2a 00
        E 176 93 2a 66
        E 64 83 2a 00
        E 176 93 2a 66
        E 64 83 2a 00
        E 176 93 2a 66
        E 64 83 2a 00
        E 176 93 2a 66
        E 64 83 2a 00
        E 160 93 2a 5d
        E 16 83 2a 00
        E 0 93 2a 4c
        E 16 83 2a 00
        E 0 93 2a 44
        E 16 83 2a 00
        E 0 93 2a 33
        E 16 83 2a 00
        E 0 93 2a 2a
        E 16 83 2a 00
        E 0 93 2a 22
        E 16 83 2a 00
        E 0 93 2a 11
        E 16 83 2a 00
        E 0 93 2a 08
        E 16 83 2a 00
        E 32 93 2a 33
        E 32 83 2a 00
        E 176 93 2a 66
        E 64 83 2a 00
        E 64 93 2a 66
        E 64 83 2a 00
        E 48 93 2a 66
        E 64 83 2a 00
        E 64 93 2a 66
        E 64 83 2a 00
        E 176 93 2a 66
        E 64 83 2a 00
        E 176 93 2a 66
        E 64 83 2a 00
        E 176 93 2a 66
        E 64 83 2a 00
        E 176 93 2a 66
        E 64 83 2a 00
        E 176 93 2a 66
        E 64 83 2a 00
        E 48 93 2a 66
        E 64 83 2a 00
        E 176 93 2a 66
        E 64 83 2a 00
        E 64 93 2a 66
        E 64 83 2a 00
        E 48 93 2a 66
        E 64 83 2a 00
        E 64 93 2a 66
        E 64 83 2a 00
        E 176 93 2a 66
        E 64 83 2a 00
        E 176 93 2a 66
        E 64 83 2a 00
        E 176 93 2a 66
        E 64 83 2a 00
        E 176 93 2a 66
        E 64 83 2a 00
        E 176 93 2a 66
        E 64 83 2a 00
        E 64 93 2a 66
        E 64 83 2a 00
        E 176 93 2a 66
        E 64 83 2a 00
        E 48 93 2a 66
        E 64 83 2a 00
        E 64 93 2a 66
        E 64 83 2a 00
        E 48 93 2a 66
        E 64 83 2a 00
        E 176 93 2a 66
        E 64 83 2a 00
        E 176 93 2a 66
        E 64 83 2a 00
        E 176 93 2a 66
        E 64 83 2a 00
        E 176 93 2a 66
        E 64 83 2a 00
        E 176 93 2a 66
        E 64 83 2a 00
        E 64 93 2a 66
        E 64 83 2a 00
        E 176 93 2a 66
        E 64 83 2a 00
        E 48 93 2a 66
        E 64 83 2a 00
        E 64 93 2a 66
        E 64 83 2a 00
        E 48 93 2a 66
        E 64 83 2a 00
        E 176 93 2a 66
        E 64 83 2a 00
        E 176 93 2a 66
        E 64 83 2a 00
        E 176 93 2a 66
        E 64 83 2a 00
        E 176 93 2a 66
        E 64 83 2a 00
        E 176 93 2a 66
        E 64 83 2a 00
        E 64 93 2a 66
        E 64 83 2a 00
        E 176 93 2a 66
        E 64 83 2a 00
        E 48 93 2a 66
        E 64 83 2a 00
        E 64 93 2a 66
        E 64 83 2a 00
        E 64 93 2a 66
        E 64 83 2a 00
        E 176 93 2a 66
        E 64 83 2a 00
        E 176 93 2a 66
        E 64 83 2a 00
        E 176 93 2a 66
        E 64 83 2a 00
        E 176 93 2a 66
        E 64 83 2a 00
        E 176 93 2a 66
        E 16 83 2a 00
        E 16 93 2a 7f
        E 64 83 2a 00
        E 0 93 2a 7f
        E 960 83 2a 00
        E 144 93 2a 66
        E 64 83 2a 00
        E 176 93 2a 66
        E 64 83 2a 00
        E 176 93 2a 66
        E 64 83 2a 00
        E 176 93 2a 7f
        E 64 83 2a 00
        E 0 93 2a 7f
        E 960 83 2a 00
        E 176 93 2a 66
        E 64 83 2a 00
        E 160 93 2a 6e
        E 80 83 2a 00
        E 0 93 2a 44
        E 64 83 2a 00
        E 0 93 2a 22
        E 64 83 2a 00
        E 48 93 2a 66
        E 64 83 2a 00
        E 176 93 2a 66
        E 64 83 2a 00
        E 48 93 2a 66
        E 64 83 2a 00
        E 176 93 2a 66
        E 64 83 2a 00
        E 64 93 2a 66
        E 64 83 2a 00
        E 64 93 2a 66
        E 64 83 2a 00
        E 48 93 2a 66
        E 64 83 2a 00
        E 176 93 2a 66
        E 64 83 2a 00
        E 176 93 2a 66
        E 64 83 2a 00
        E 176 93 2a 66
        E 64 83 2a 00
        E 176 93 2a 66
        E 64 83 2a 00
        E 176 93 2a 66
        E 64 83 2a 00
        E 64 93 2a 66
        E 64 83 2a 00
        E 176 93 2a 66
        E 64 83 2a 00
        E 48 93 2a 66
        E 64 83 2a 00
        E 64 93 2a 66
        E 64 83 2a 00
        E 48 93 2a 66
        E 64 83 2a 00
        E 176 93 2a 66
        E 64 83 2a 00
        E 176 93 2a 66
        E 64 83 2a 00
        E 0 b3 7b 00
        E 0 ff 2f 00
      >
    >
  >
>