<REAPER_PROJECT 0.1 "7.27/win64" 1707000000
  <NOTES 0 2
    |ReapNES Studio Project
    |MIDI Import - Alfred_Chicken_title_rom_v1
  >
  RIPPLE 0
  GROUPOVERRIDE 0 0 0
  AUTOXFADE 129
  ENVATTACH 3
  POOLEDENVATTACH 0
  MIXERUIFLAGS 11 48
  ENVFADESZ10 40
  PEAKGAIN 1
  FEEDBACK 0
  PANLAW 1
  PROJOFFS 0 0 0
  MAXPROJLEN 0 0
  GRID 3199 8 1 8 1 0 0 0
  TIMEMODE 1 5 -1 30 0 0 -1
  VIDEO_CONFIG 0 0 65792
  PANMODE 3
  PANLAWFLAGS 3
  CURSOR 0
  ZOOM 100 0 0
  VZOOMEX 6 0
  USE_REC_CFG 0
  RECMODE 1
  SMPTESYNC 0 30 100 40 1000 300 0 0 1 0 0
  LOOP 0
  LOOPGRAN 0 4
  RECORD_PATH "Media" ""
  <RECORD_CFG
    ZXZhdxgAAQ==
  >
  <APPLYFX_CFG
  >
  RENDER_FILE ""
  RENDER_PATTERN ""
  RENDER_FMT 0 2 0
  RENDER_1X 0
  RENDER_RANGE 1 0 0 18 1000
  RENDER_RESAMPLE 3 0 1
  RENDER_ADDTOPROJ 0
  RENDER_STEMS 0
  RENDER_DITHER 0
  TIMELOCKMODE 1
  TEMPOENVLOCKMODE 1
  ITEMMIX 1
  DEFPITCHMODE 589824 0
  TAKELANE 1
  SAMPLERATE 44100 0 0
  <RENDER_CFG
    ZXZhdxgAAQ==
  >
  LOCK 1
  <METRONOME 6 2
    VOL 0.25 0.125
    BEATLEN 4
    FREQ 1760 880 1
    SAMPLES "" ""
    SPLIGNORE 0 0
    SPLDEF 2 660 "" 0
    SPLDEF 3 440 "" 0
    PATTERN 0 169
    PATTERNSTR ABBB
    MULT 1
  >
  GLOBAL_AUTO -1
  TEMPO 128.59999614200012 4 4
  PLAYRATE 1 0 0.25 4
  SELECTION 0 0
  SELECTION2 0 0
  MASTERAUTOMODE 0
  MASTERTRACKHEIGHT 0 0
  MASTERPEAKCOL 16576
  MASTERMUTESOLO 0
  MASTERTRACKVIEW 0 0.6667 0.5 0.5 0 0 0 0 0 0 0 0 0 0
  MASTERHWOUT 0 0 1 0 0 0 0 -1
  MASTER_NCH 2 2
  MASTER_VOLUME 1 0 -1 -1 1
  MASTER_PANMODE 3
  MASTER_PANLAWFLAGS 3
  MASTER_FX 1
  MASTER_SEL 0
  <MASTERPLAYSPEEDENV
    EGUID {21D1D971-7714-4539-9A93-00D9B43E99A3}
    ACT 0 -1
    VIS 0 1 1
    LANEHEIGHT 0 0
    ARM 0
    DEFSHAPE 0 -1 -1
  >
  <TEMPOENVEX
    EGUID {5193C7C8-F6ED-4558-B341-8720EEAD03B8}
    ACT 1 -1
    VIS 1 0 1
    LANEHEIGHT 0 0
    ARM 0
    DEFSHAPE 1 -1 -1
  >
  <PROJBAY
  >
  <TRACK {C6E9A475-2A70-45FC-9F55-EBE2CE6D28C0}
    NAME "NES - Pulse 1 [ch0]"
    PEAKCOL 16576606
    BEAT -1
    AUTOMODE 0
    PANLAWFLAGS 3
    VOLPAN 1 0 -1 -1 1
    MUTESOLO 0 0 0
    IPHASE 0
    PLAYOFFS 0 1
    ISBUS 0 0
    BUSCOMP 0 0 0 0 0
    SHOWINMIX 1 0.6667 0.5 1 0.5 0 0 0
    FIXEDLANES 9 0 0 0 0
    SEL 1
    REC 1 5088 1 0 0 0 0 0
    VU 2
    TRACKHEIGHT 0 0 0 0 0 0 0
    INQ 0 0 0 0.5 100 0 0 100
    NCHAN 2
    FX 1
    TRACKID {C6E9A475-2A70-45FC-9F55-EBE2CE6D28C0}
    PERF 0
    MIDIOUT -1
    MAINSEND 1 0
    <FXCHAIN
      WNDRECT 24 52 700 560
      SHOW 0
      LASTSEL 0
      DOCKED 0
      BYPASS 0 0 0
      <JS "ReapNES Studio/ReapNES_Console.jsfx" ""
        2 15 1 10 80 10 100 2 1 15 1 5 60 10 80 1 1 0 50 0 0 15 1 0 100 0 0 0.500000 0.500000 0.400000 0.300000 0.800000 0 1 0 0 0 0 - - - - - - - - - - - - - - - - - - - - - - - - - -
      >
      FLOATPOS 0 0 0 0
      FXID {91595015-F352-46A8-BA38-389FA3CCDD52}
      WAK 0 0
    >
    <ITEM
      POSITION 0
      LENGTH 5.769829100000001
      LOOP 0
      ALLTAKES 0
      FADEIN 0 0 0 0 0 0 0
      FADEOUT 0 0 0 0 0 0 0
      MUTE 0 0
      SEL 0
      IGUID {0A22F2CE-70DB-4E81-8AD8-E4900D161898}
      <SOURCE MIDI
        HASDATA 1 480 QN
        CCINTERP 32
        E 0 c0 50
        E 0 b0 0c 10
        E 0 b0 0b 77
        E 0 90 31 77
        E 16 b0 0b 66
        E 48 b0 0b 55
        E 64 b0 0b 44
        E 64 b0 0b 33
        E 48 b0 0b 22
        E 64 b0 0b 11
        E 48 b0 0b 08
        E 32 b0 0b 77
        E 0 80 31 00
        E 0 90 33 77
        E 48 b0 0b 66
        E 64 b0 0b 55
        E 48 b0 0b 44
        E 64 b0 0b 33
        E 64 b0 0b 22
        E 48 b0 0b 11
        E 48 b0 0b 77
        E 0 80 33 00
        E 0 90 35 77
        E 48 b0 0b 66
        E 80 b0 0b 55
        E 80 b0 0b 44
        E 80 b0 0b 33
        E 64 b0 0b 22
        E 48 b0 0c 60
        E 0 b0 0b 77
        E 0 80 35 00
        E 0 90 36 77
        E 80 b0 0b 66
        E 32 b0 0b 55
        E 32 b0 0b 44
        E 48 b0 0b 77
        E 0 80 36 00
        E 0 90 35 77
        E 32 b0 0b 66
        E 48 b0 0b 55
        E 32 b0 0b 44
        E 32 b0 0b 33
        E 48 b0 0b 77
        E 0 80 35 00
        E 0 90 36 77
        E 32 b0 0b 66
        E 48 b0 0b 55
        E 32 b0 0b 44
        E 32 b0 0b 33
        E 48 b0 0b 22
        E 16 b0 0b 77
        E 0 80 36 00
        E 0 90 31 77
        E 32 b0 0b 66
        E 48 b0 0b 55
        E 32 b0 0b 44
        E 48 b0 0b 33
        E 32 b0 0b 22
        E 32 b0 0b 11
        E 48 b0 0b 08
        E 112 b0 0b 77
        E 0 80 31 00
        E 0 90 2f 77
        E 32 b0 0b 66
        E 48 b0 0b 55
        E 32 b0 0b 44
        E 48 b0 0b 33
        E 32 b0 0b 77
        E 0 80 2f 00
        E 0 90 2e 77
        E 32 b0 0b 66
        E 48 b0 0b 55
        E 32 b0 0b 44
        E 48 b0 0b 33
        E 32 b0 0b 22
        E 32 b0 0b 11
        E 48 b0 0b 08
        E 128 b0 0b 77
        E 0 80 2e 00
        E 0 90 2c 77
        E 48 b0 0b 66
        E 32 b0 0b 55
        E 32 b0 0b 44
        E 48 b0 0b 33
        E 32 b0 0b 22
        E 48 b0 0b 11
        E 32 b0 0b 08
        E 112 b0 0c 10
        E 0 b0 0b 66
        E 0 80 2c 00
        E 0 90 38 66
        E 48 b0 0b 55
        E 32 b0 0b 44
        E 32 b0 0b 33
        E 48 b0 0b 22
        E 32 b0 0b 11
        E 16 b0 0b 66
        E 0 80 38 00
        E 0 90 44 66
        E 48 b0 0b 55
        E 32 b0 0b 44
        E 48 b0 0b 33
        E 32 b0 0b 22
        E 32 b0 0b 66
        E 0 80 44 00
        E 0 90 38 66
        E 48 b0 0b 55
        E 32 b0 0b 44
        E 48 b0 0b 33
        E 32 b0 0b 22
        E 32 b0 0b 66
        E 0 80 38 00
        E 0 90 44 66
        E 48 b0 0b 55
        E 32 b0 0b 44
        E 48 b0 0b 33
        E 32 b0 0b 22
        E 32 b0 0b 66
        E 0 80 44 00
        E 0 90 38 66
        E 48 b0 0b 55
        E 32 b0 0b 44
        E 48 b0 0b 33
        E 32 b0 0b 22
        E 32 b0 0b 11
        E 32 b0 0b 66
        E 0 80 38 00
        E 0 90 44 66
        E 32 b0 0b 55
        E 32 b0 0b 44
        E 48 b0 0b 33
        E 32 b0 0b 22
        E 48 b0 0c 60
        E 0 b0 0b 77
        E 0 80 44 00
        E 0 90 35 77
        E 32 b0 0b 66
        E 64 b0 0b 55
        E 48 b0 0b 44
        E 48 b0 0b 77
        E 0 80 35 00
        E 0 90 33 77
        E 48 b0 0b 66
        E 64 b0 0b 55
        E 48 b0 0b 44
        E 32 b0 0b 77
        E 0 80 33 00
        E 0 90 31 77
        E 48 b0 0b 66
        E 64 b0 0b 55
        E 48 b0 0b 44
        E 48 b0 0b 77
        E 0 80 31 00
        E 0 90 35 77
        E 48 b0 0b 66
        E 64 b0 0b 55
        E 64 b0 0b 44
        E 48 b0 0b 33
        E 64 b0 0b 22
        E 48 b0 0b 11
        E 48 b0 0b 77
        E 0 80 35 00
        E 0 90 33 77
        E 48 b0 0b 66
        E 64 b0 0b 55
        E 64 b0 0b 44
        E 16 b0 0b 77
        E 0 80 33 00
        E 0 90 31 77
        E 48 b0 0b 66
        E 64 b0 0b 55
        E 64 b0 0b 44
        E 48 b0 0b 33
        E 64 b0 0b 22
        E 48 b0 0b 11
        E 64 b0 0b 77
        E 0 80 31 00
        E 0 90 35 77
        E 48 80 35 00
        E 0 b0 7b 00
        E 0 ff 2f 00
      >
    >
  >
  <TRACK {D7C6D9B3-9069-4E16-82AB-D64C93C4FA90}
    NAME "NES - Pulse 2 [ch1]"
    PEAKCOL 10092441
    BEAT -1
    AUTOMODE 0
    PANLAWFLAGS 3
    VOLPAN 1 0 -1 -1 1
    MUTESOLO 0 0 0
    IPHASE 0
    PLAYOFFS 0 1
    ISBUS 0 0
    BUSCOMP 0 0 0 0 0
    SHOWINMIX 1 0.6667 0.5 1 0.5 0 0 0
    FIXEDLANES 9 0 0 0 0
    SEL 0
    REC 0 5088 1 0 0 0 0 0
    VU 2
    TRACKHEIGHT 0 0 0 0 0 0 0
    INQ 0 0 0 0.5 100 0 0 100
    NCHAN 2
    FX 1
    TRACKID {D7C6D9B3-9069-4E16-82AB-D64C93C4FA90}
    PERF 0
    MIDIOUT -1
    MAINSEND 1 0
    <FXCHAIN
      WNDRECT 24 52 700 560
      SHOW 0
      LASTSEL 0
      DOCKED 0
      BYPASS 0 0 0
      <JS "ReapNES Studio/ReapNES_Console.jsfx" ""
        2 15 1 10 80 10 100 2 1 15 1 5 60 10 80 1 1 0 50 0 0 15 1 0 100 0 0 0.500000 0.500000 0.400000 0.300000 0.800000 1 1 0 0 0 0 - - - - - - - - - - - - - - - - - - - - - - - - - -
      >
      FLOATPOS 0 0 0 0
      FXID {22333583-3247-42F0-92C9-46D6048E0577}
      WAK 0 0
    >
    <ITEM
      POSITION 0
      LENGTH 5.769829100000001
      LOOP 0
      ALLTAKES 0
      FADEIN 0 0 0 0 0 0 0
      FADEOUT 0 0 0 0 0 0 0
      MUTE 0 0
      SEL 0
      IGUID {3B1EA92A-398D-4028-AC99-C29B5F7FC2E6}
      <SOURCE MIDI
        HASDATA 1 480 QN
        CCINTERP 32
        E 0 c1 51
        E 0 b1 0c 10
        E 0 b1 0b 77
        E 0 91 35 77
        E 16 b1 0b 66
        E 80 b1 0b 55
        E 64 b1 0b 44
        E 80 b1 0b 33
        E 80 b1 0b 22
        E 64 b1 0b 77
        E 0 81 35 00
        E 0 91 36 77
        E 64 b1 0b 66
        E 80 b1 0b 55
        E 80 b1 0b 44
        E 80 b1 0b 33
        E 80 b1 0b 77
        E 0 81 36 00
        E 0 91 38 77
        E 64 b1 0b 66
        E 96 b1 0b 55
        E 96 b1 0b 44
        E 96 b1 0b 33
        E 48 81 38 00
        E 96 b1 0c 60
        E 0 b1 0b 77
        E 0 91 36 77
        E 96 b1 0b 66
        E 32 b1 0b 55
        E 48 b1 0b 44
        E 16 b1 0b 77
        E 0 81 36 00
        E 0 91 35 77
        E 32 b1 0b 66
        E 48 b1 0b 55
        E 32 b1 0b 44
        E 32 b1 0b 33
        E 48 b1 0b 22
        E 16 b1 0b 77
        E 0 81 35 00
        E 0 91 36 77
        E 32 b1 0b 66
        E 48 b1 0b 55
        E 32 b1 0b 44
        E 48 b1 0b 33
        E 32 b1 0b 77
        E 0 81 36 00
        E 0 91 31 77
        E 32 b1 0b 66
        E 48 b1 0b 55
        E 32 b1 0b 44
        E 48 b1 0b 33
        E 32 b1 0b 22
        E 32 b1 0b 11
        E 48 b1 0b 08
        E 112 b1 0b 77
        E 0 81 31 00
        E 0 91 2f 77
        E 32 b1 0b 66
        E 48 b1 0b 55
        E 32 b1 0b 44
        E 48 b1 0b 33
        E 32 b1 0b 22
        E 16 b1 0b 77
        E 0 81 2f 00
        E 0 91 2e 77
        E 48 b1 0b 66
        E 32 b1 0b 55
        E 32 b1 0b 44
        E 48 b1 0b 33
        E 32 b1 0b 22
        E 48 b1 0b 11
        E 32 b1 0b 08
        E 112 b1 0b 77
        E 0 81 2e 00
        E 0 91 2c 77
        E 48 b1 0b 66
        E 32 b1 0b 55
        E 32 b1 0b 44
        E 48 b1 0b 33
        E 32 b1 0b 22
        E 48 b1 0b 11
        E 32 b1 0b 08
        E 16 b1 0c 10
        E 0 b1 0b 66
        E 0 81 2c 00
        E 0 91 39 66
        E 48 b1 0b 55
        E 32 b1 0b 44
        E 32 b1 0b 33
        E 48 b1 0b 22
        E 32 b1 0b 11
        E 16 b1 0b 66
        E 0 81 39 00
        E 0 91 45 66
        E 48 b1 0b 55
        E 32 b1 0b 44
        E 48 b1 0b 33
        E 32 b1 0b 22
        E 32 b1 0b 66
        E 0 81 45 00
        E 0 91 39 66
        E 48 b1 0b 55
        E 32 b1 0b 44
        E 48 b1 0b 33
        E 32 b1 0b 22
        E 32 b1 0b 66
        E 0 81 39 00
        E 0 91 45 66
        E 48 b1 0b 55
        E 32 b1 0b 44
        E 48 b1 0b 33
        E 32 b1 0b 22
        E 32 b1 0b 66
        E 0 81 45 00
        E 0 91 39 66
        E 48 b1 0b 55
        E 32 b1 0b 44
        E 48 b1 0b 33
        E 32 b1 0b 22
        E 32 b1 0b 11
        E 32 b1 0b 66
        E 0 81 39 00
        E 0 91 45 66
        E 32 b1 0b 55
        E 32 b1 0b 44
        E 48 b1 0b 33
        E 32 b1 0b 22
        E 48 b1 0b 11
        E 32 b1 0b 08
        E 64 b1 0c 60
        E 0 b1 0b 77
        E 0 81 45 00
        E 0 91 35 77
        E 32 b1 0b 66
        E 64 b1 0b 55
        E 48 b1 0b 44
        E 48 b1 0b 77
        E 0 81 35 00
        E 0 91 33 77
        E 48 b1 0b 66
        E 64 b1 0b 55
        E 48 b1 0b 44
        E 32 b1 0b 77
        E 0 81 33 00
        E 0 91 31 77
        E 48 b1 0b 66
        E 64 b1 0b 55
        E 48 b1 0b 44
        E 48 b1 0b 77
        E 0 81 31 00
        E 0 91 35 77
        E 48 b1 0b 66
        E 64 b1 0b 55
        E 64 b1 0b 44
        E 48 b1 0b 33
        E 64 b1 0b 22
        E 48 b1 0b 11
        E 48 b1 0b 77
        E 0 81 35 00
        E 0 91 33 77
        E 48 b1 0b 66
        E 64 b1 0b 55
        E 64 b1 0b 44
        E 16 b1 0b 77
        E 0 81 33 00
        E 0 91 31 77
        E 48 b1 0b 66
        E 64 b1 0b 55
        E 64 b1 0b 44
        E 48 b1 0b 33
        E 64 b1 0b 22
        E 48 b1 0b 11
        E 16 81 31 00
        E 0 b1 7b 00
        E 0 ff 2f 00
      >
    >
  >
  <TRACK {815ECEF9-B9FF-4E72-8497-FDB6926D7EA0}
    NAME "NES - Triangle [ch2]"
    PEAKCOL 16744192
    BEAT -1
    AUTOMODE 0
    PANLAWFLAGS 3
    VOLPAN 1 0 -1 -1 1
    MUTESOLO 0 0 0
    IPHASE 0
    PLAYOFFS 0 1
    ISBUS 0 0
    BUSCOMP 0 0 0 0 0
    SHOWINMIX 1 0.6667 0.5 1 0.5 0 0 0
    FIXEDLANES 9 0 0 0 0
    SEL 0
    REC 0 5088 1 0 0 0 0 0
    VU 2
    TRACKHEIGHT 0 0 0 0 0 0 0
    INQ 0 0 0 0.5 100 0 0 100
    NCHAN 2
    FX 1
    TRACKID {815ECEF9-B9FF-4E72-8497-FDB6926D7EA0}
    PERF 0
    MIDIOUT -1
    MAINSEND 1 0
    <FXCHAIN
      WNDRECT 24 52 700 560
      SHOW 0
      LASTSEL 0
      DOCKED 0
      BYPASS 0 0 0
      <JS "ReapNES Studio/ReapNES_Console.jsfx" ""
        2 15 1 10 80 10 100 2 1 15 1 5 60 10 80 1 1 0 50 0 0 15 1 0 100 0 0 0.500000 0.500000 0.400000 0.300000 0.800000 2 1 0 0 0 0 - - - - - - - - - - - - - - - - - - - - - - - - - -
      >
      FLOATPOS 0 0 0 0
      FXID {0EE39FFF-B6B3-492C-AC2A-B7D0A8F44D24}
      WAK 0 0
    >
    <ITEM
      POSITION 0
      LENGTH 5.769829100000001
      LOOP 0
      ALLTAKES 0
      FADEIN 0 0 0 0 0 0 0
      FADEOUT 0 0 0 0 0 0 0
      MUTE 0 0
      SEL 0
      IGUID {D490510F-9D46-444F-9C92-3312AD433055}
      <SOURCE MIDI
        HASDATA 1 480 QN
        CCINTERP 32
        E 0 c2 26
        E 0 b2 0b 7f
        E 0 92 19 7f
        E 288 82 19 00
        E 96 b2 0b 7f
        E 0 92 1b 7f
        E 288 82 1b 00
        E 96 b2 0b 7f
        E 0 92 19 7f
        E 288 82 19 00
        E 112 b2 0b 7f
        E 0 92 1e 7f
        E 288 82 1e 00
        E 96 b2 0b 7f
        E 0 92 19 7f
        E 288 82 19 00
        E 112 b2 0b 7f
        E 0 92 1e 7f
        E 288 82 1e 00
        E 96 b2 0b 7f
        E 0 92 19 7f
        E 288 82 19 00
        E 112 b2 0b 7f
        E 0 92 19 7f
        E 288 82 19 00
        E 96 b2 0b 7f
        E 0 92 20 7f
        E 288 82 20 00
        E 112 b2 0b 7f
        E 0 92 20 7f
        E 192 82 20 00
        E 0 b2 0b 7f
        E 0 92 1f 7f
        E 192 82 1f 00
        E 0 b2 0b 7f
        E 0 92 1e 7f
        E 224 82 1e 00
        E 0 b2 0b 7f
        E 0 92 1d 7f
        E 192 82 1d 00
        E 0 b2 0b 7f
        E 0 92 19 7f
        E 288 82 19 00
        E 96 b2 0b 7f
        E 0 92 20 7f
        E 288 82 20 00
        E 112 b2 0b 7f
        E 0 92 19 7f
        E 288 82 19 00
        E 96 b2 0b 7f
        E 0 92 21 7f
        E 288 82 21 00
        E 112 b2 0b 7f
        E 0 92 20 7f
        E 48 82 20 00
        E 0 b2 7b 00
        E 0 ff 2f 00
      >
    >
  >
  <TRACK {2195A6FE-DF3A-4A9C-B567-A3680F2D3530}
    NAME "NES - Noise / Drums [ch3]"
    PEAKCOL 11184810
    BEAT -1
    AUTOMODE 0
    PANLAWFLAGS 3
    VOLPAN 1 0 -1 -1 1
    MUTESOLO 0 0 0
    IPHASE 0
    PLAYOFFS 0 1
    ISBUS 0 0
    BUSCOMP 0 0 0 0 0
    SHOWINMIX 1 0.6667 0.5 1 0.5 0 0 0
    FIXEDLANES 9 0 0 0 0
    SEL 0
    REC 0 5088 1 0 0 0 0 0
    VU 2
    TRACKHEIGHT 0 0 0 0 0 0 0
    INQ 0 0 0 0.5 100 0 0 100
    NCHAN 2
    FX 1
    TRACKID {2195A6FE-DF3A-4A9C-B567-A3680F2D3530}
    PERF 0
    MIDIOUT -1
    MAINSEND 1 0
    <FXCHAIN
      WNDRECT 24 52 700 560
      SHOW 0
      LASTSEL 0
      DOCKED 0
      BYPASS 0 0 0
      <JS "ReapNES Studio/ReapNES_Console.jsfx" ""
        2 15 1 10 80 10 100 2 1 15 1 5 60 10 80 1 1 0 50 0 0 15 1 0 100 0 0 0.500000 0.500000 0.400000 0.300000 0.800000 3 1 0 0 0 0 - - - - - - - - - - - - - - - - - - - - - - - - - -
      >
      FLOATPOS 0 0 0 0
      FXID {6FE5924A-E808-4ACA-85D6-63D73C707D4C}
      WAK 0 0
    >
    <ITEM
      POSITION 0
      LENGTH 5.769829100000001
      LOOP 0
      ALLTAKES 0
      FADEIN 0 0 0 0 0 0 0
      FADEOUT 0 0 0 0 0 0 0
      MUTE 0 0
      SEL 0
      IGUID {294E5084-9E6F-4853-B077-5C3326CE219E}
      <SOURCE MIDI
        HASDATA 1 480 QN
        CCINTERP 32
        E 0 93 2a 66
        E 1168 83 2a 00
        E 0 93 2a 66
        E 192 83 2a 00
        E 0 93 2a 3b
        E 192 83 2a 00
        E 0 93 2a 66
        E 208 83 2a 00
        E 0 93 2a 3b
        E 192 83 2a 00
        E 0 93 2a 66
        E 192 83 2a 00
        E 0 93 2a 3b
        E 192 83 2a 00
        E 0 93 2a 66
        E 208 83 2a 00
        E 0 93 2a 3b
        E 192 83 2a 00
        E 0 93 2a 66
        E 192 83 2a 00
        E 0 93 2a 3b
        E 192 83 2a 00
        E 0 93 2a 66
        E 208 83 2a 00
        E 0 93 2a 3b
        E 192 83 2a 00
        E 0 93 2a 66
        E 192 83 2a 00
        E 0 93 2a 3b
        E 192 83 2a 00
        E 0 93 2a 66
        E 224 83 2a 00
        E 0 93 2a 3b
        E 192 83 2a 00
        E 0 93 2a 66
        E 192 83 2a 00
        E 0 93 2a 3b
        E 192 83 2a 00
        E 0 93 2a 66
        E 208 83 2a 00
        E 0 93 2a 3b
        E 192 83 2a 00
        E 0 93 2a 66
        E 192 83 2a 00
        E 0 93 2a 3b
        E 192 83 2a 00
        E 0 93 2a 66
        E 192 83 2a 00
        E 0 93 2a 3b
        E 208 83 2a 00
        E 0 93 2a 66
        E 48 83 2a 00
        E 0 b3 7b 00
        E 0 ff 2f 00
      >
    >
  >
>