<REAPER_PROJECT 0.1 "7.27/win64" 1707000000
  <NOTES 0 2
    |ReapNES Studio Project
    |MIDI Import - Batman_title_rom_v1
  >
  RIPPLE 0
  GROUPOVERRIDE 0 0 0
  AUTOXFADE 129
  ENVATTACH 3
  POOLEDENVATTACH 0
  MIXERUIFLAGS 11 48
  ENVFADESZ10 40
  PEAKGAIN 1
  FEEDBACK 0
  PANLAW 1
  PROJOFFS 0 0 0
  MAXPROJLEN 0 0
  GRID 3199 8 1 8 1 0 0 0
  TIMEMODE 1 5 -1 30 0 0 -1
  VIDEO_CONFIG 0 0 65792
  PANMODE 3
  PANLAWFLAGS 3
  CURSOR 0
  ZOOM 100 0 0
  VZOOMEX 6 0
  USE_REC_CFG 0
  RECMODE 1
  SMPTESYNC 0 30 100 40 1000 300 0 0 1 0 0
  LOOP 0
  LOOPGRAN 0 4
  RECORD_PATH "Media" ""
  <RECORD_CFG
    ZXZhdxgAAQ==
  >
  <APPLYFX_CFG
  >
  RENDER_FILE ""
  RENDER_PATTERN ""
  RENDER_FMT 0 2 0
  RENDER_1X 0
  RENDER_RANGE 1 0 0 18 1000
  RENDER_RESAMPLE 3 0 1
  RENDER_ADDTOPROJ 0
  RENDER_STEMS 0
  RENDER_DITHER 0
  TIMELOCKMODE 1
  TEMPOENVLOCKMODE 1
  ITEMMIX 1
  DEFPITCHMODE 589824 0
  TAKELANE 1
  SAMPLERATE 44100 0 0
  <RENDER_CFG
    ZXZhdxgAAQ==
  >
  LOCK 1
  <METRONOME 6 2
    VOL 0.25 0.125
    BEATLEN 4
    FREQ 1760 880 1
    SAMPLES "" ""
    SPLIGNORE 0 0
    SPLDEF 2 660 "" 0
    SPLDEF 3 440 "" 0
    PATTERN 0 169
    PATTERNSTR ABBB
    MULT 1
  >
  GLOBAL_AUTO -1
  TEMPO 128.59999614200012 4 4
  PLAYRATE 1 0 0.25 4
  SELECTION 0 0
  SELECTION2 0 0
  MASTERAUTOMODE 0
  MASTERTRACKHEIGHT 0 0
  MASTERPEAKCOL 16576
  MASTERMUTESOLO 0
  MASTERTRACKVIEW 0 0.6667 0.5 0.5 0 0 0 0 0 0 0 0 0 0
  MASTERHWOUT 0 0 1 0 0 0 0 -1
  MASTER_NCH 2 2
  MASTER_VOLUME 1 0 -1 -1 1
  MASTER_PANMODE 3
  MASTER_PANLAWFLAGS 3
  MASTER_FX 1
  MASTER_SEL 0
  <MASTERPLAYSPEEDENV
    EGUID {78C1E930-F83D-4D01-93F8-097BD9FF1927}
    ACT 0 -1
    VIS 0 1 1
    LANEHEIGHT 0 0
    ARM 0
    DEFSHAPE 0 -1 -1
  >
  <TEMPOENVEX
    EGUID {5F74E5A0-4089-40B2-A143-D6419BD6AE15}
    ACT 1 -1
    VIS 1 0 1
    LANEHEIGHT 0 0
    ARM 0
    DEFSHAPE 1 -1 -1
  >
  <PROJBAY
  >
  <TRACK {8273DFAA-BD44-4BB3-9173-D4A028C0697A}
    NAME "NES - Pulse 1 [ch0]"
    PEAKCOL 16576606
    BEAT -1
    AUTOMODE 0
    PANLAWFLAGS 3
    VOLPAN 1 0 -1 -1 1
    MUTESOLO 0 0 0
    IPHASE 0
    PLAYOFFS 0 1
    ISBUS 0 0
    BUSCOMP 0 0 0 0 0
    SHOWINMIX 1 0.6667 0.5 1 0.5 0 0 0
    FIXEDLANES 9 0 0 0 0
    SEL 1
    REC 1 5088 1 0 0 0 0 0
    VU 2
    TRACKHEIGHT 0 0 0 0 0 0 0
    INQ 0 0 0 0.5 100 0 0 100
    NCHAN 2
    FX 1
    TRACKID {8273DFAA-BD44-4BB3-9173-D4A028C0697A}
    PERF 0
    MIDIOUT -1
    MAINSEND 1 0
    <FXCHAIN
      WNDRECT 24 52 700 560
      SHOW 0
      LASTSEL 0
      DOCKED 0
      BYPASS 0 0 0
      <JS "ReapNES Studio/ReapNES_Console.jsfx" ""
        2 15 1 10 80 10 100 2 1 15 1 5 60 10 80 1 1 0 50 0 0 15 1 0 100 0 0 0.500000 0.500000 0.400000 0.300000 0.800000 0 1 0 0 0 0 - - - - - - - - - - - - - - - - - - - - - - - - - -
      >
      FLOATPOS 0 0 0 0
      FXID {F99E6D08-E711-4C82-A90A-8AE4423796AB}
      WAK 0 0
    >
    <ITEM
      POSITION 0
      LENGTH 71.61742050000001
      LOOP 0
      ALLTAKES 0
      FADEIN 0 0 0 0 0 0 0
      FADEOUT 0 0 0 0 0 0 0
      MUTE 0 0
      SEL 0
      IGUID {E799B8E3-5460-42D0-9A24-BF729A9AE079}
      <SOURCE MIDI
        HASDATA 1 480 QN
        CCINTERP 32
        E 0 c0 50
        E 0 b0 0c 10
        E 0 b0 0b 4c
        E 0 90 26 4c
        E 80 b0 0b 44
        E 48 b0 0b 3b
        E 32 b0 0b 08
        E 16 b0 0b 2a
        E 16 b0 0b 22
        E 16 b0 0b 19
        E 16 b0 0b 11
        E 32 b0 0b 4c
        E 0 80 26 00
        E 0 90 20 4c
        E 48 b0 0b 44
        E 16 b0 0b 3b
        E 16 b0 0b 4c
        E 64 b0 0b 44
        E 48 b0 0b 3b
        E 1600 80 20 00
        E 0 90 1e 3b
        E 1792 b0 0b 08
        E 32 b0 0b 44
        E 16 b0 0b 3b
        E 16 b0 0b 33
        E 16 b0 0b 2a
        E 176 b0 0b 4c
        E 0 80 1e 00
        E 0 90 1b 4c
        E 48 b0 0b 44
        E 16 b0 0b 3b
        E 16 b0 0b 4c
        E 64 b0 0b 44
        E 48 b0 0b 3b
        E 80 b0 0b 08
        E 16 b0 0b 2a
        E 16 b0 0b 22
        E 16 b0 0b 19
        E 192 80 1b 00
        E 0 90 24 19
        E 16 b0 0b 4c
        E 32 b0 0b 44
        E 16 b0 0b 3b
        E 16 b0 0b 4c
        E 64 b0 0b 44
        E 48 b0 0b 3b
        E 80 b0 0b 08
        E 16 b0 0b 2a
        E 16 b0 0b 22
        E 16 b0 0b 19
        E 192 80 24 00
        E 0 90 1d 19
        E 16 b0 0b 4c
        E 32 b0 0b 44
        E 16 b0 0b 3b
        E 16 b0 0b 4c
        E 64 b0 0b 44
        E 48 b0 0b 3b
        E 80 b0 0b 08
        E 16 b0 0b 2a
        E 16 b0 0b 22
        E 16 b0 0b 19
        E 192 80 1d 00
        E 512 b0 0b 4c
        E 0 90 2d 4c
        E 80 b0 0b 44
        E 48 b0 0b 3b
        E 32 b0 0b 08
        E 16 b0 0b 2a
        E 16 b0 0b 22
        E 16 b0 0b 19
        E 16 b0 0b 11
        E 32 b0 0b 4c
        E 0 80 2d 00
        E 0 90 24 4c
        E 48 b0 0b 44
        E 16 b0 0b 3b
        E 16 b0 0b 4c
        E 64 b0 0b 44
        E 48 b0 0b 3b
        E 1600 80 24 00
        E 0 90 25 3b
        E 1792 b0 0b 08
        E 32 b0 0b 44
        E 16 b0 0b 3b
        E 16 b0 0b 33
        E 16 b0 0b 2a
        E 176 b0 0b 4c
        E 48 b0 0b 44
        E 16 b0 0b 3b
        E 16 b0 0b 4c
        E 64 b0 0b 44
        E 48 b0 0b 3b
        E 80 b0 0b 08
        E 16 b0 0b 2a
        E 16 b0 0b 22
        E 16 b0 0b 19
        E 192 80 25 00
        E 0 90 29 19
        E 16 b0 0b 4c
        E 32 b0 0b 44
        E 16 b0 0b 3b
        E 16 b0 0b 4c
        E 64 b0 0b 44
        E 48 b0 0b 3b
        E 80 b0 0b 08
        E 16 b0 0b 2a
        E 16 b0 0b 22
        E 16 b0 0b 19
        E 192 80 29 00
        E 0 90 28 19
        E 16 b0 0b 4c
        E 32 b0 0b 44
        E 16 b0 0b 3b
        E 16 b0 0b 4c
        E 64 b0 0b 44
        E 48 b0 0b 3b
        E 80 b0 0b 08
        E 16 b0 0b 2a
        E 16 b0 0b 22
        E 16 b0 0b 19
        E 192 80 28 00
        E 512 b0 0b 4c
        E 0 90 39 4c
        E 80 b0 0b 44
        E 48 b0 0b 3b
        E 32 b0 0b 08
        E 16 b0 0b 2a
        E 16 b0 0b 22
        E 16 b0 0b 19
        E 16 b0 0b 11
        E 32 b0 0b 4c
        E 0 80 39 00
        E 0 90 28 4c
        E 48 b0 0b 44
        E 16 b0 0b 3b
        E 16 b0 0b 4c
        E 64 b0 0b 44
        E 48 b0 0b 3b
        E 1600 80 28 00
        E 0 90 2a 3b
        E 1792 b0 0b 08
        E 32 b0 0b 44
        E 16 b0 0b 3b
        E 16 b0 0b 33
        E 16 b0 0b 2a
        E 176 b0 0b 4c
        E 48 b0 0b 44
        E 16 b0 0b 3b
        E 16 b0 0b 4c
        E 64 b0 0b 44
        E 48 b0 0b 3b
        E 80 b0 0b 08
        E 16 b0 0b 2a
        E 16 b0 0b 22
        E 16 b0 0b 19
        E 192 80 2a 00
        E 0 90 30 19
        E 16 b0 0b 4c
        E 32 b0 0b 44
        E 16 b0 0b 3b
        E 16 b0 0b 4c
        E 64 b0 0b 44
        E 48 b0 0b 3b
        E 80 b0 0b 08
        E 16 b0 0b 2a
        E 16 b0 0b 22
        E 16 b0 0b 19
        E 192 80 30 00
        E 0 90 26 19
        E 16 b0 0b 4c
        E 32 b0 0b 44
        E 16 b0 0b 3b
        E 16 b0 0b 4c
        E 64 b0 0b 44
        E 48 b0 0b 3b
        E 80 b0 0b 08
        E 16 b0 0b 2a
        E 16 b0 0b 22
        E 16 b0 0b 19
        E 192 b0 0b 4c
        E 0 80 26 00
        E 0 90 2c 4c
        E 48 b0 0b 44
        E 16 b0 0b 3b
        E 16 b0 0b 4c
        E 64 b0 0b 44
        E 48 b0 0b 3b
        E 2624 b0 0b 08
        E 0 80 2c 00
        E 0 90 2a 08
        E 32 b0 0b 44
        E 16 b0 0b 3b
        E 16 b0 0b 33
        E 16 b0 0b 2a
        E 176 b0 0b 4c
        E 0 80 2a 00
        E 0 90 34 4c
        E 48 b0 0b 44
        E 16 b0 0b 3b
        E 16 b0 0b 4c
        E 64 b0 0b 44
        E 48 b0 0b 3b
        E 576 b0 0b 08
        E 0 80 34 00
        E 0 90 2f 08
        E 32 b0 0b 44
        E 16 b0 0b 3b
        E 16 b0 0b 33
        E 16 b0 0b 2a
        E 176 b0 0b 4c
        E 48 b0 0b 44
        E 16 b0 0b 3b
        E 16 b0 0b 4c
        E 64 b0 0b 44
        E 48 b0 0b 3b
        E 576 b0 0b 08
        E 0 80 2f 00
        E 0 90 2d 08
        E 32 b0 0b 44
        E 16 b0 0b 3b
        E 16 b0 0b 33
        E 16 b0 0b 2a
        E 176 b0 0b 4c
        E 48 b0 0b 44
        E 16 b0 0b 3b
        E 16 b0 0b 4c
        E 64 b0 0b 44
        E 48 b0 0b 3b
        E 576 b0 0b 08
        E 0 80 2d 00
        E 0 90 2f 08
        E 32 b0 0b 44
        E 16 b0 0b 3b
        E 16 b0 0b 33
        E 16 b0 0b 2a
        E 176 b0 0b 4c
        E 48 b0 0b 44
        E 16 b0 0b 3b
        E 16 b0 0b 4c
        E 64 b0 0b 44
        E 48 b0 0b 3b
        E 1600 b0 0b 08
        E 0 80 2f 00
        E 0 90 2d 08
        E 32 b0 0b 44
        E 16 b0 0b 3b
        E 16 b0 0b 33
        E 16 b0 0b 2a
        E 176 b0 0b 4c
        E 48 b0 0b 44
        E 16 b0 0b 3b
        E 16 b0 0b 4c
        E 64 b0 0b 44
        E 48 b0 0b 3b
        E 576 b0 0b 08
        E 32 b0 0b 44
        E 16 b0 0b 3b
        E 16 b0 0b 33
        E 16 b0 0b 2a
        E 176 b0 0b 4c
        E 48 b0 0b 44
        E 16 b0 0b 3b
        E 16 b0 0b 4c
        E 64 b0 0b 44
        E 48 b0 0b 3b
        E 576 b0 0b 08
        E 0 80 2d 00
        E 0 90 2f 08
        E 32 b0 0b 44
        E 16 b0 0b 3b
        E 16 b0 0b 33
        E 16 b0 0b 2a
        E 176 b0 0b 4c
        E 48 b0 0b 44
        E 16 b0 0b 3b
        E 16 b0 0b 4c
        E 64 b0 0b 44
        E 48 b0 0b 3b
        E 576 b0 0b 08
        E 0 80 2f 00
        E 0 90 31 08
        E 32 b0 0b 44
        E 16 b0 0b 3b
        E 16 b0 0b 33
        E 16 b0 0b 2a
        E 176 b0 0b 4c
        E 48 b0 0b 44
        E 16 b0 0b 3b
        E 16 b0 0b 4c
        E 64 b0 0b 44
        E 48 b0 0b 3b
        E 576 b0 0b 08
        E 0 80 31 00
        E 0 90 33 08
        E 32 b0 0b 44
        E 16 b0 0b 3b
        E 16 b0 0b 33
        E 16 b0 0b 2a
        E 176 b0 0b 4c
        E 48 b0 0b 44
        E 16 b0 0b 3b
        E 16 b0 0b 4c
        E 64 b0 0b 44
        E 48 b0 0b 3b
        E 1856 80 33 00
        E 0 90 34 3b
        E 2272 b0 0b 08
        E 32 b0 0b 44
        E 16 b0 0b 3b
        E 16 b0 0b 33
        E 16 b0 0b 2a
        E 192 80 34 00
        E 2048 b0 0b 55
        E 0 90 26 55
        E 48 b0 0b 4c
        E 16 b0 0b 44
        E 16 80 26 00
        E 16 b0 0b 33
        E 0 90 23 33
        E 16 b0 0b 55
        E 32 b0 0b 4c
        E 16 b0 0b 44
        E 16 80 23 00
        E 16 b0 0b 33
        E 0 90 1f 33
        E 16 b0 0b 55
        E 32 b0 0b 4c
        E 16 b0 0b 44
        E 16 80 1f 00
        E 16 b0 0b 33
        E 0 90 1e 33
        E 16 b0 0b 55
        E 32 b0 0b 4c
        E 16 b0 0b 44
        E 16 80 1e 00
        E 16 b0 0b 33
        E 0 90 22 33
        E 16 b0 0b 55
        E 32 b0 0b 4c
        E 16 b0 0b 44
        E 16 80 22 00
        E 16 b0 0b 33
        E 0 90 21 33
        E 16 b0 0b 55
        E 32 b0 0b 4c
        E 16 b0 0b 44
        E 16 80 21 00
        E 16 b0 0b 55
        E 0 90 26 55
        E 64 b0 0b 4c
        E 32 b0 0b 44
        E 32 80 26 00
        E 16 b0 0b 33
        E 0 90 26 33
        E 16 b0 0b 2a
        E 224 b0 0b 55
        E 0 80 26 00
        E 0 90 21 55
        E 48 b0 0b 4c
        E 16 b0 0b 44
        E 16 80 21 00
        E 16 b0 0b 33
        E 0 90 23 33
        E 16 b0 0b 55
        E 32 b0 0b 4c
        E 16 b0 0b 44
        E 16 80 23 00
        E 16 b0 0b 33
        E 0 90 1b 33
        E 16 b0 0b 55
        E 32 b0 0b 4c
        E 16 b0 0b 44
        E 16 80 1b 00
        E 16 b0 0b 33
        E 0 90 1c 33
        E 16 b0 0b 55
        E 32 b0 0b 4c
        E 16 b0 0b 44
        E 16 80 1c 00
        E 16 b0 0b 33
        E 0 90 20 33
        E 16 b0 0b 55
        E 32 b0 0b 4c
        E 16 b0 0b 44
        E 16 80 20 00
        E 16 b0 0b 33
        E 0 90 1e 33
        E 16 b0 0b 55
        E 32 b0 0b 4c
        E 16 b0 0b 44
        E 16 80 1e 00
        E 16 b0 0b 33
        E 0 90 22 33
        E 16 b0 0b 55
        E 32 b0 0b 4c
        E 16 b0 0b 44
        E 16 80 22 00
        E 16 b0 0b 33
        E 0 90 23 33
        E 16 b0 0b 55
        E 32 b0 0b 4c
        E 16 b0 0b 44
        E 16 80 23 00
        E 16 b0 0b 33
        E 0 90 1f 33
        E 16 b0 0b 55
        E 32 b0 0b 4c
        E 16 b0 0b 44
        E 16 80 1f 00
        E 16 b0 0b 33
        E 0 90 1e 33
        E 16 b0 0b 55
        E 32 b0 0b 4c
        E 16 b0 0b 44
        E 16 80 1e 00
        E 16 b0 0b 33
        E 0 90 22 33
        E 16 b0 0b 55
        E 32 b0 0b 4c
        E 16 b0 0b 44
        E 16 80 22 00
        E 16 b0 0b 33
        E 0 90 21 33
        E 16 b0 0b 55
        E 32 b0 0b 4c
        E 16 b0 0b 44
        E 16 80 21 00
        E 16 b0 0b 55
        E 0 90 26 55
        E 64 b0 0b 4c
        E 32 b0 0b 44
        E 32 80 26 00
        E 16 b0 0b 33
        E 0 90 26 33
        E 16 b0 0b 2a
        E 224 b0 0b 55
        E 0 80 26 00
        E 0 90 21 55
        E 48 b0 0b 4c
        E 16 b0 0b 44
        E 16 80 21 00
        E 16 b0 0b 33
        E 0 90 23 33
        E 16 b0 0b 55
        E 32 b0 0b 4c
        E 16 b0 0b 44
        E 16 80 23 00
        E 16 b0 0b 33
        E 0 90 29 33
        E 16 b0 0b 55
        E 32 b0 0b 4c
        E 16 b0 0b 44
        E 16 80 29 00
        E 16 b0 0b 33
        E 0 90 28 33
        E 16 b0 0b 55
        E 32 b0 0b 4c
        E 16 b0 0b 44
        E 16 80 28 00
        E 16 b0 0b 33
        E 0 90 22 33
        E 16 b0 0b 55
        E 32 b0 0b 4c
        E 16 b0 0b 44
        E 16 80 22 00
        E 16 b0 0b 33
        E 0 90 21 33
        E 16 b0 0b 55
        E 32 b0 0b 4c
        E 16 b0 0b 44
        E 16 80 21 00
        E 16 b0 0b 33
        E 0 90 21 33
        E 16 b0 0b 55
        E 32 b0 0b 4c
        E 16 b0 0b 44
        E 16 80 21 00
        E 16 b0 0b 33
        E 0 90 23 33
        E 16 b0 0b 55
        E 32 b0 0b 4c
        E 16 b0 0b 44
        E 16 80 23 00
        E 16 b0 0b 33
        E 0 90 1f 33
        E 16 b0 0b 55
        E 32 b0 0b 4c
        E 16 b0 0b 44
        E 16 80 1f 00
        E 16 b0 0b 33
        E 0 90 1e 33
        E 16 b0 0b 55
        E 32 b0 0b 4c
        E 16 b0 0b 44
        E 16 80 1e 00
        E 16 b0 0b 33
        E 0 90 22 33
        E 16 b0 0b 55
        E 32 b0 0b 4c
        E 16 b0 0b 44
        E 16 80 22 00
        E 16 b0 0b 33
        E 0 90 21 33
        E 16 b0 0b 55
        E 32 b0 0b 4c
        E 16 b0 0b 44
        E 16 80 21 00
        E 16 b0 0b 55
        E 0 90 26 55
        E 64 b0 0b 4c
        E 32 b0 0b 44
        E 32 80 26 00
        E 16 b0 0b 33
        E 0 90 26 33
        E 16 b0 0b 2a
        E 224 b0 0b 55
        E 0 80 26 00
        E 0 90 21 55
        E 48 b0 0b 4c
        E 16 b0 0b 44
        E 16 80 21 00
        E 16 b0 0b 33
        E 0 90 23 33
        E 16 b0 0b 55
        E 32 b0 0b 4c
        E 16 b0 0b 44
        E 16 80 23 00
        E 16 b0 0b 33
        E 0 90 1b 33
        E 16 b0 0b 55
        E 32 b0 0b 4c
        E 16 b0 0b 44
        E 16 80 1b 00
        E 16 b0 0b 33
        E 0 90 1c 33
        E 16 b0 0b 55
        E 32 b0 0b 4c
        E 16 b0 0b 44
        E 16 80 1c 00
        E 16 b0 0b 33
        E 0 90 20 33
        E 16 b0 0b 55
        E 32 b0 0b 4c
        E 16 b0 0b 44
        E 16 80 20 00
        E 16 b0 0b 33
        E 0 90 1e 33
        E 16 b0 0b 55
        E 32 b0 0b 4c
        E 16 b0 0b 44
        E 16 80 1e 00
        E 16 b0 0b 33
        E 0 90 22 33
        E 16 b0 0b 55
        E 32 b0 0b 4c
        E 16 b0 0b 44
        E 16 80 22 00
        E 16 b0 0b 33
        E 0 90 23 33
        E 16 b0 0b 55
        E 32 b0 0b 4c
        E 16 b0 0b 44
        E 16 80 23 00
        E 16 b0 0b 33
        E 0 90 1f 33
        E 16 b0 0b 55
        E 32 b0 0b 4c
        E 16 b0 0b 44
        E 16 80 1f 00
        E 16 b0 0b 33
        E 0 90 1e 33
        E 16 b0 0b 55
        E 32 b0 0b 4c
        E 16 b0 0b 44
        E 16 80 1e 00
        E 16 b0 0b 33
        E 0 90 22 33
        E 16 b0 0b 55
        E 32 b0 0b 4c
        E 16 b0 0b 44
        E 16 80 22 00
        E 16 b0 0b 33
        E 0 90 21 33
        E 16 b0 0b 55
        E 32 b0 0b 4c
        E 16 b0 0b 44
        E 16 80 21 00
        E 16 b0 0b 55
        E 0 90 26 55
        E 64 b0 0b 4c
        E 32 b0 0b 44
        E 32 80 26 00
        E 16 b0 0b 33
        E 0 90 26 33
        E 16 b0 0b 2a
        E 224 b0 0b 55
        E 0 80 26 00
        E 0 90 21 55
        E 48 b0 0b 4c
        E 16 b0 0b 44
        E 16 80 21 00
        E 16 b0 0b 33
        E 0 90 23 33
        E 16 b0 0b 55
        E 32 b0 0b 4c
        E 16 b0 0b 44
        E 16 80 23 00
        E 16 b0 0b 33
        E 0 90 29 33
        E 16 b0 0b 55
        E 32 b0 0b 4c
        E 16 b0 0b 44
        E 16 80 29 00
        E 16 b0 0b 33
        E 0 90 28 33
        E 16 b0 0b 55
        E 32 b0 0b 4c
        E 16 b0 0b 44
        E 16 80 28 00
        E 16 b0 0b 33
        E 0 90 22 33
        E 16 b0 0b 55
        E 32 b0 0b 4c
        E 16 b0 0b 44
        E 16 80 22 00
        E 16 b0 0b 33
        E 0 90 21 33
        E 16 b0 0b 55
        E 32 b0 0b 4c
        E 16 b0 0b 44
        E 16 80 21 00
        E 16 b0 0b 55
        E 0 90 39 55
        E 32 b0 0b 4c
        E 16 b0 0b 44
        E 16 80 39 00
        E 16 b0 0b 33
        E 0 90 39 33
        E 16 80 39 00
        E 0 90 3b 33
        E 16 b0 0b 55
        E 16 b0 0b 4c
        E 16 b0 0b 44
        E 16 80 3b 00
        E 16 b0 0b 33
        E 0 90 3b 33
        E 16 80 3b 00
        E 0 90 39 33
        E 16 b0 0b 55
        E 16 b0 0b 4c
        E 16 b0 0b 44
        E 16 80 39 00
        E 16 b0 0b 33
        E 0 90 39 33
        E 16 80 39 00
        E 0 90 3b 33
        E 16 b0 0b 55
        E 16 b0 0b 4c
        E 16 b0 0b 44
        E 16 80 3b 00
        E 16 b0 0b 33
        E 0 90 3b 33
        E 16 80 3b 00
        E 0 90 3d 33
        E 16 b0 0b 55
        E 16 b0 0b 4c
        E 16 b0 0b 44
        E 16 80 3d 00
        E 16 b0 0b 33
        E 0 90 3d 33
        E 16 80 3d 00
        E 0 90 3e 33
        E 16 b0 0b 55
        E 16 b0 0b 4c
        E 16 b0 0b 44
        E 16 80 3e 00
        E 16 b0 0b 33
        E 0 90 3e 33
        E 16 b0 0b 55
        E 0 80 3e 00
        E 0 90 40 55
        E 96 b0 0b 4c
        E 864 b0 0b 08
        E 0 80 40 00
        E 0 90 42 08
        E 32 b0 0b 44
        E 16 b0 0b 3b
        E 16 b0 0b 33
        E 16 b0 0b 2a
        E 112 b0 0b 55
        E 32 b0 0b 4c
        E 16 b0 0b 44
        E 16 80 42 00
        E 16 b0 0b 33
        E 0 90 42 33
        E 16 b0 0b 55
        E 0 80 42 00
        E 0 90 40 55
        E 96 b0 0b 4c
        E 768 b0 0b 08
        E 0 80 40 00
        E 0 90 45 08
        E 32 b0 0b 44
        E 16 b0 0b 3b
        E 16 b0 0b 33
        E 16 b0 0b 2a
        E 112 b0 0b 55
        E 32 b0 0b 4c
        E 16 b0 0b 44
        E 16 80 45 00
        E 16 b0 0b 33
        E 0 90 45 33
        E 16 80 45 00
        E 0 90 44 33
        E 16 b0 0b 55
        E 16 b0 0b 4c
        E 16 b0 0b 44
        E 16 80 44 00
        E 16 b0 0b 33
        E 0 90 44 33
        E 16 b0 0b 55
        E 0 80 44 00
        E 0 90 40 55
        E 96 b0 0b 4c
        E 2784 b0 0b 08
        E 0 80 40 00
        E 0 90 42 08
        E 32 b0 0b 44
        E 16 b0 0b 3b
        E 16 b0 0b 33
        E 16 b0 0b 2a
        E 112 b0 0b 55
        E 32 b0 0b 4c
        E 16 b0 0b 44
        E 16 80 42 00
        E 16 b0 0b 33
        E 0 90 42 33
        E 16 80 42 00
        E 0 90 3b 33
        E 16 b0 0b 55
        E 16 b0 0b 4c
        E 16 b0 0b 44
        E 16 80 3b 00
        E 16 b0 0b 33
        E 0 90 3b 33
        E 16 80 3b 00
        E 0 90 39 33
        E 16 b0 0b 55
        E 16 b0 0b 4c
        E 16 b0 0b 44
        E 16 80 39 00
        E 16 b0 0b 33
        E 0 90 39 33
        E 16 80 39 00
        E 0 90 3b 33
        E 16 b0 0b 55
        E 16 b0 0b 4c
        E 16 b0 0b 44
        E 16 80 3b 00
        E 16 b0 0b 33
        E 0 90 3b 33
        E 16 80 3b 00
        E 0 90 3d 33
        E 16 b0 0b 55
        E 16 b0 0b 4c
        E 16 b0 0b 44
        E 16 80 3d 00
        E 16 b0 0b 33
        E 0 90 3d 33
        E 16 80 3d 00
        E 0 90 3e 33
        E 16 b0 0b 55
        E 16 b0 0b 4c
        E 16 b0 0b 44
        E 16 80 3e 00
        E 16 b0 0b 33
        E 0 90 3e 33
        E 16 b0 0b 55
        E 0 80 3e 00
        E 0 90 40 55
        E 96 b0 0b 4c
        E 864 b0 0b 08
        E 0 80 40 00
        E 0 90 42 08
        E 32 b0 0b 44
        E 16 b0 0b 3b
        E 16 b0 0b 33
        E 16 b0 0b 2a
        E 112 b0 0b 55
        E 32 b0 0b 4c
        E 16 b0 0b 44
        E 16 80 42 00
        E 16 b0 0b 33
        E 0 90 42 33
        E 16 b0 0b 55
        E 0 80 42 00
        E 0 90 40 55
        E 96 b0 0b 4c
        E 672 b0 0b 08
        E 0 80 40 00
        E 0 90 45 08
        E 32 b0 0b 44
        E 16 b0 0b 3b
        E 16 b0 0b 33
        E 16 b0 0b 2a
        E 112 b0 0b 55
        E 32 b0 0b 4c
        E 16 b0 0b 44
        E 16 80 45 00
        E 16 b0 0b 33
        E 0 90 45 33
        E 16 80 45 00
        E 0 90 44 33
        E 16 b0 0b 55
        E 16 b0 0b 4c
        E 16 b0 0b 44
        E 16 80 44 00
        E 16 b0 0b 33
        E 0 90 44 33
        E 16 80 44 00
        E 0 90 45 33
        E 16 b0 0b 55
        E 16 b0 0b 4c
        E 16 b0 0b 44
        E 16 80 45 00
        E 16 b0 0b 33
        E 0 90 45 33
        E 16 b0 0b 55
        E 0 80 45 00
        E 0 90 47 55
        E 96 b0 0b 4c
        E 64 b0 0b 44
        E 64 80 47 00
        E 16 b0 0b 33
        E 0 90 47 33
        E 16 b0 0b 2a
        E 32 80 47 00
        E 0 90 45 2a
        E 16 b0 0b 55
        E 80 b0 0b 4c
        E 64 b0 0b 44
        E 64 80 45 00
        E 16 b0 0b 33
        E 0 90 45 33
        E 16 b0 0b 2a
        E 32 b0 0b 55
        E 0 80 45 00
        E 0 90 44 55
        E 96 b0 0b 4c
        E 2208 b0 0b 08
        E 0 80 44 00
        E 0 90 42 08
        E 32 b0 0b 44
        E 16 b0 0b 3b
        E 16 b0 0b 33
        E 16 b0 0b 2a
        E 112 b0 0b 55
        E 96 b0 0b 4c
        E 960 b0 0b 08
        E 0 80 42 00
        E 0 90 3e 08
        E 32 b0 0b 44
        E 16 b0 0b 3b
        E 16 b0 0b 33
        E 16 b0 0b 2a
        E 112 b0 0b 55
        E 32 b0 0b 4c
        E 16 b0 0b 44
        E 16 80 3e 00
        E 16 b0 0b 33
        E 0 90 3e 33
        E 16 80 3e 00
        E 0 90 3d 33
        E 16 b0 0b 55
        E 16 b0 0b 4c
        E 16 b0 0b 44
        E 16 80 3d 00
        E 16 b0 0b 33
        E 0 90 3d 33
        E 16 80 3d 00
        E 0 90 3e 33
        E 16 b0 0b 55
        E 16 b0 0b 4c
        E 16 b0 0b 44
        E 16 80 3e 00
        E 16 b0 0b 33
        E 0 90 3e 33
        E 16 b0 0b 55
        E 0 80 3e 00
        E 0 90 40 55
        E 96 b0 0b 4c
        E 96 b0 0b 08
        E 0 80 40 00
        E 0 90 3e 08
        E 32 b0 0b 44
        E 16 b0 0b 3b
        E 16 b0 0b 33
        E 16 b0 0b 2a
        E 112 b0 0b 55
        E 96 b0 0b 4c
        E 96 b0 0b 08
        E 0 80 3e 00
        E 0 90 3d 08
        E 32 b0 0b 44
        E 16 b0 0b 3b
        E 16 b0 0b 33
        E 16 b0 0b 2a
        E 112 b0 0b 55
        E 96 b0 0b 4c
        E 64 b0 0b 44
        E 64 80 3d 00
        E 16 b0 0b 33
        E 0 90 3d 33
        E 16 b0 0b 2a
        E 32 80 3d 00
        E 0 90 3b 2a
        E 16 b0 0b 55
        E 80 b0 0b 4c
        E 64 b0 0b 44
        E 64 80 3b 00
        E 16 b0 0b 33
        E 0 90 3b 33
        E 16 b0 0b 2a
        E 32 b0 0b 55
        E 0 80 3b 00
        E 0 90 39 55
        E 64 b0 0b 4c
        E 32 b0 0b 44
        E 32 80 39 00
        E 16 b0 0b 33
        E 0 90 39 33
        E 16 b0 0b 2a
        E 32 b0 0b 55
        E 0 80 39 00
        E 0 90 3d 55
        E 64 80 3d 00
        E 0 90 3b 55
        E 96 b0 0b 4c
        E 224 b0 0b 08
        E 0 80 3b 00
        E 0 90 3d 08
        E 32 b0 0b 44
        E 16 b0 0b 3b
        E 16 b0 0b 33
        E 16 b0 0b 2a
        E 112 b0 0b 55
        E 96 b0 0b 4c
        E 2208 b0 0b 08
        E 0 80 3d 00
        E 0 90 3b 08
        E 32 b0 0b 44
        E 16 b0 0b 3b
        E 16 b0 0b 33
        E 16 b0 0b 2a
        E 112 b0 0b 55
        E 96 b0 0b 4c
        E 960 b0 0b 08
        E 0 80 3b 00
        E 0 90 3e 08
        E 32 b0 0b 44
        E 16 b0 0b 3b
        E 16 b0 0b 33
        E 16 b0 0b 2a
        E 112 b0 0b 55
        E 32 b0 0b 4c
        E 16 b0 0b 44
        E 16 80 3e 00
        E 16 b0 0b 33
        E 0 90 3e 33
        E 16 80 3e 00
        E 0 90 3d 33
        E 16 b0 0b 55
        E 16 b0 0b 4c
        E 16 b0 0b 44
        E 16 80 3d 00
        E 16 b0 0b 33
        E 0 90 3d 33
        E 16 80 3d 00
        E 0 90 3e 33
        E 16 b0 0b 55
        E 16 b0 0b 4c
        E 16 b0 0b 44
        E 16 80 3e 00
        E 16 b0 0b 33
        E 0 90 3e 33
        E 16 b0 0b 55
        E 0 80 3e 00
        E 0 90 40 55
        E 96 b0 0b 4c
        E 96 b0 0b 08
        E 0 80 40 00
        E 0 90 3e 08
        E 32 b0 0b 44
        E 16 b0 0b 3b
        E 16 b0 0b 33
        E 16 b0 0b 2a
        E 112 b0 0b 55
        E 96 b0 0b 4c
        E 96 b0 0b 08
        E 0 80 3e 00
        E 0 90 3d 08
        E 32 b0 0b 44
        E 16 b0 0b 3b
        E 16 b0 0b 33
        E 16 b0 0b 2a
        E 112 b0 0b 55
        E 96 b0 0b 4c
        E 64 b0 0b 44
        E 64 80 3d 00
        E 16 b0 0b 33
        E 0 90 3d 33
        E 16 b0 0b 2a
        E 32 80 3d 00
        E 0 90 3b 2a
        E 16 b0 0b 55
        E 80 b0 0b 4c
        E 64 b0 0b 44
        E 64 80 3b 00
        E 16 b0 0b 33
        E 0 90 3b 33
        E 16 b0 0b 2a
        E 32 b0 0b 55
        E 0 80 3b 00
        E 0 90 2d 55
        E 64 b0 0b 4c
        E 32 b0 0b 44
        E 32 80 2d 00
        E 16 b0 0b 33
        E 0 90 2d 33
        E 16 b0 0b 2a
        E 32 b0 0b 55
        E 0 80 2d 00
        E 0 90 5e 55
        E 32 b0 0b 4c
        E 16 b0 0b 44
        E 16 80 5e 00
        E 16 b0 0b 33
        E 0 90 5e 33
        E 16 80 5e 00
        E 0 90 42 33
        E 16 b0 0b 55
        E 16 b0 0b 4c
        E 16 b0 0b 44
        E 16 80 42 00
        E 16 b0 0b 33
        E 0 90 42 33
        E 128 b0 0b 55
        E 16 b0 0b 4c
        E 16 b0 0b 44
        E 16 80 42 00
        E 16 b0 0b 33
        E 0 90 42 33
        E 32 b0 0b 55
        E 16 b0 0b 4c
        E 16 b0 0b 44
        E 16 80 42 00
        E 16 b0 0b 33
        E 0 90 42 33
        E 128 b0 0b 55
        E 16 b0 0b 4c
        E 16 b0 0b 44
        E 16 80 42 00
        E 16 b0 0b 33
        E 0 90 42 33
        E 32 b0 0b 55
        E 16 b0 0b 4c
        E 16 b0 0b 44
        E 16 80 42 00
        E 16 b0 0b 33
        E 0 90 42 33
        E 208 b0 0b 55
        E 64 b0 0b 4c
        E 32 b0 0b 44
        E 32 80 42 00
        E 16 b0 0b 33
        E 0 90 42 33
        E 16 b0 0b 2a
        E 48 b0 0b 55
        E 48 b0 0b 4c
        E 32 b0 0b 44
        E 32 80 42 00
        E 16 b0 0b 33
        E 0 90 42 33
        E 16 b0 0b 2a
        E 224 b0 0b 55
        E 64 b0 0b 08
        E 0 80 42 00
        E 0 90 45 08
        E 32 b0 0b 44
        E 16 b0 0b 3b
        E 16 b0 0b 33
        E 16 b0 0b 2a
        E 112 b0 0b 55
        E 64 b0 0b 08
        E 32 b0 0b 44
        E 16 b0 0b 3b
        E 16 b0 0b 33
        E 16 b0 0b 2a
        E 112 b0 0b 55
        E 64 b0 0b 08
        E 32 b0 0b 44
        E 16 b0 0b 3b
        E 16 b0 0b 33
        E 16 b0 0b 2a
        E 112 80 45 00
        E 576 b0 0b 08
        E 0 90 46 08
        E 32 b0 0b 44
        E 16 b0 0b 3b
        E 16 b0 0b 33
        E 16 b0 0b 2a
        E 112 b0 0b 55
        E 0 80 46 00
        E 0 90 32 55
        E 96 b0 0b 4c
        E 1248 b0 0b 08
        E 0 80 32 00
        E 0 90 2d 08
        E 32 b0 0b 44
        E 16 b0 0b 3b
        E 16 b0 0b 33
        E 16 b0 0b 2a
        E 112 b0 0b 55
        E 96 b0 0b 4c
        E 1248 b0 0b 08
        E 0 80 2d 00
        E 0 90 2f 08
        E 32 b0 0b 44
        E 16 b0 0b 3b
        E 16 b0 0b 33
        E 16 b0 0b 2a
        E 112 b0 0b 55
        E 96 b0 0b 4c
        E 1248 b0 0b 08
        E 0 80 2f 00
        E 0 90 31 08
        E 32 b0 0b 44
        E 16 b0 0b 3b
        E 16 b0 0b 33
        E 16 b0 0b 2a
        E 112 b0 0b 55
        E 96 b0 0b 4c
        E 1248 b0 0b 08
        E 32 b0 0b 44
        E 16 b0 0b 3b
        E 16 b0 0b 33
        E 16 b0 0b 2a
        E 80 80 31 00
        E 0 b0 7b 00
        E 0 ff 2f 00
      >
    >
  >
  <TRACK {4ABABE00-C02E-4914-9BCB-60BC549843C4}
    NAME "NES - Pulse 2 [ch1]"
    PEAKCOL 10092441
    BEAT -1
    AUTOMODE 0
    PANLAWFLAGS 3
    VOLPAN 1 0 -1 -1 1
    MUTESOLO 0 0 0
    IPHASE 0
    PLAYOFFS 0 1
    ISBUS 0 0
    BUSCOMP 0 0 0 0 0
    SHOWINMIX 1 0.6667 0.5 1 0.5 0 0 0
    FIXEDLANES 9 0 0 0 0
    SEL 0
    REC 0 5088 1 0 0 0 0 0
    VU 2
    TRACKHEIGHT 0 0 0 0 0 0 0
    INQ 0 0 0 0.5 100 0 0 100
    NCHAN 2
    FX 1
    TRACKID {4ABABE00-C02E-4914-9BCB-60BC549843C4}
    PERF 0
    MIDIOUT -1
    MAINSEND 1 0
    <FXCHAIN
      WNDRECT 24 52 700 560
      SHOW 0
      LASTSEL 0
      DOCKED 0
      BYPASS 0 0 0
      <JS "ReapNES Studio/ReapNES_Console.jsfx" ""
        2 15 1 10 80 10 100 2 1 15 1 5 60 10 80 1 1 0 50 0 0 15 1 0 100 0 0 0.500000 0.500000 0.400000 0.300000 0.800000 1 1 0 0 0 0 - - - - - - - - - - - - - - - - - - - - - - - - - -
      >
      FLOATPOS 0 0 0 0
      FXID {14CA8AE3-57E5-46BE-A1B6-EC2D27C6D3C3}
      WAK 0 0
    >
    <ITEM
      POSITION 0
      LENGTH 71.61742050000001
      LOOP 0
      ALLTAKES 0
      FADEIN 0 0 0 0 0 0 0
      FADEOUT 0 0 0 0 0 0 0
      MUTE 0 0
      SEL 0
      IGUID {C41278A3-EB2A-4F7D-B47C-43C009891737}
      <SOURCE MIDI
        HASDATA 1 480 QN
        CCINTERP 32
        E 0 c1 51
        E 5632 b1 0c 10
        E 0 b1 0b 4c
        E 0 91 21 4c
        E 48 b1 0b 44
        E 16 b1 0b 3b
        E 16 b1 0b 4c
        E 64 b1 0b 44
        E 48 b1 0b 3b
        E 2880 81 21 00
        E 0 91 1e 3b
        E 3072 b1 0b 4c
        E 0 81 1e 00
        E 0 91 22 4c
        E 48 b1 0b 44
        E 16 b1 0b 3b
        E 16 b1 0b 4c
        E 64 b1 0b 44
        E 48 b1 0b 3b
        E 2880 81 22 00
        E 0 91 25 3b
        E 3328 b1 0b 08
        E 32 b1 0b 44
        E 16 b1 0b 3b
        E 16 b1 0b 33
        E 16 b1 0b 2a
        E 176 b1 0b 4c
        E 0 81 25 00
        E 0 91 2c 4c
        E 80 b1 0b 44
        E 48 b1 0b 3b
        E 32 b1 0b 08
        E 16 b1 0b 2a
        E 16 b1 0b 22
        E 16 b1 0b 19
        E 16 b1 0b 11
        E 32 b1 0b 4c
        E 0 81 2c 00
        E 0 91 24 4c
        E 48 b1 0b 44
        E 16 b1 0b 3b
        E 16 b1 0b 4c
        E 64 b1 0b 44
        E 48 b1 0b 3b
        E 1344 b1 0b 08
        E 0 81 24 00
        E 0 91 25 08
        E 32 b1 0b 44
        E 16 b1 0b 3b
        E 16 b1 0b 33
        E 16 b1 0b 2a
        E 176 b1 0b 4c
        E 48 b1 0b 44
        E 16 b1 0b 3b
        E 16 b1 0b 4c
        E 64 b1 0b 44
        E 48 b1 0b 3b
        E 80 b1 0b 08
        E 16 b1 0b 2a
        E 16 b1 0b 22
        E 16 b1 0b 19
        E 192 81 25 00
        E 0 91 29 19
        E 16 b1 0b 4c
        E 32 b1 0b 44
        E 16 b1 0b 3b
        E 16 b1 0b 4c
        E 64 b1 0b 44
        E 48 b1 0b 3b
        E 80 b1 0b 08
        E 16 b1 0b 2a
        E 16 b1 0b 22
        E 16 b1 0b 19
        E 192 81 29 00
        E 0 91 28 19
        E 16 b1 0b 4c
        E 32 b1 0b 44
        E 16 b1 0b 3b
        E 16 b1 0b 4c
        E 64 b1 0b 44
        E 48 b1 0b 3b
        E 80 b1 0b 08
        E 16 b1 0b 2a
        E 16 b1 0b 22
        E 16 b1 0b 19
        E 192 b1 0b 4c
        E 0 81 28 00
        E 0 91 2f 4c
        E 48 b1 0b 44
        E 16 b1 0b 3b
        E 16 b1 0b 4c
        E 64 b1 0b 44
        E 48 b1 0b 3b
        E 576 b1 0b 08
        E 0 81 2f 00
        E 0 91 31 08
        E 32 b1 0b 44
        E 16 b1 0b 3b
        E 16 b1 0b 33
        E 16 b1 0b 2a
        E 176 b1 0b 4c
        E 48 b1 0b 44
        E 16 b1 0b 3b
        E 16 b1 0b 4c
        E 64 b1 0b 44
        E 48 b1 0b 3b
        E 576 b1 0b 08
        E 0 81 31 00
        E 0 91 33 08
        E 32 b1 0b 44
        E 16 b1 0b 3b
        E 16 b1 0b 33
        E 16 b1 0b 2a
        E 176 b1 0b 4c
        E 48 b1 0b 44
        E 16 b1 0b 3b
        E 16 b1 0b 4c
        E 64 b1 0b 44
        E 48 b1 0b 3b
        E 1600 b1 0b 08
        E 0 81 33 00
        E 0 91 31 08
        E 32 b1 0b 44
        E 16 b1 0b 3b
        E 16 b1 0b 33
        E 16 b1 0b 2a
        E 176 b1 0b 4c
        E 48 b1 0b 44
        E 16 b1 0b 3b
        E 16 b1 0b 4c
        E 64 b1 0b 44
        E 48 b1 0b 3b
        E 576 b1 0b 08
        E 32 b1 0b 44
        E 16 b1 0b 3b
        E 16 b1 0b 33
        E 16 b1 0b 2a
        E 176 b1 0b 4c
        E 48 b1 0b 44
        E 16 b1 0b 3b
        E 16 b1 0b 4c
        E 64 b1 0b 44
        E 48 b1 0b 3b
        E 576 b1 0b 08
        E 0 81 31 00
        E 0 91 33 08
        E 32 b1 0b 44
        E 16 b1 0b 3b
        E 16 b1 0b 33
        E 16 b1 0b 2a
        E 176 b1 0b 4c
        E 48 b1 0b 44
        E 16 b1 0b 3b
        E 16 b1 0b 4c
        E 64 b1 0b 44
        E 48 b1 0b 3b
        E 576 b1 0b 08
        E 0 81 33 00
        E 0 91 34 08
        E 32 b1 0b 44
        E 16 b1 0b 3b
        E 16 b1 0b 33
        E 16 b1 0b 2a
        E 176 b1 0b 4c
        E 48 b1 0b 44
        E 16 b1 0b 3b
        E 16 b1 0b 4c
        E 64 b1 0b 44
        E 48 b1 0b 3b
        E 576 b1 0b 08
        E 0 81 34 00
        E 0 91 36 08
        E 32 b1 0b 44
        E 16 b1 0b 3b
        E 16 b1 0b 33
        E 16 b1 0b 2a
        E 176 b1 0b 4c
        E 48 b1 0b 44
        E 16 b1 0b 3b
        E 16 b1 0b 4c
        E 64 b1 0b 44
        E 48 b1 0b 3b
        E 1856 81 36 00
        E 0 91 38 3b
        E 2272 b1 0b 08
        E 32 b1 0b 44
        E 16 b1 0b 3b
        E 16 b1 0b 33
        E 16 b1 0b 2a
        E 192 81 38 00
        E 5216 b1 0c 40
        E 0 b1 0b 11
        E 0 91 3b 11
        E 16 b1 0b 2a
        E 32 b1 0b 22
        E 16 b1 0b 08
        E 16 b1 0b 11
        E 16 81 3b 00
        E 0 91 42 11
        E 16 b1 0b 2a
        E 32 b1 0b 22
        E 16 b1 0b 08
        E 16 b1 0b 11
        E 16 81 42 00
        E 0 91 47 11
        E 16 b1 0b 2a
        E 32 b1 0b 22
        E 16 b1 0b 08
        E 16 b1 0b 11
        E 32 b1 0b 2a
        E 32 b1 0b 22
        E 16 b1 0b 08
        E 16 b1 0b 11
        E 32 b1 0b 2a
        E 32 b1 0b 22
        E 16 b1 0b 08
        E 16 b1 0b 11
        E 32 b1 0b 2a
        E 32 b1 0b 22
        E 16 b1 0b 08
        E 16 b1 0b 11
        E 16 81 47 00
        E 0 91 3b 11
        E 16 b1 0b 2a
        E 32 b1 0b 22
        E 16 b1 0b 08
        E 16 b1 0b 11
        E 32 b1 0b 2a
        E 32 b1 0b 22
        E 16 b1 0b 08
        E 16 b1 0b 11
        E 32 b1 0b 2a
        E 32 b1 0b 22
        E 16 b1 0b 08
        E 16 b1 0b 11
        E 16 81 3b 00
        E 0 91 42 11
        E 16 b1 0b 2a
        E 32 b1 0b 22
        E 16 b1 0b 08
        E 16 b1 0b 11
        E 16 81 42 00
        E 0 91 47 11
        E 16 b1 0b 2a
        E 32 b1 0b 22
        E 16 b1 0b 08
        E 16 b1 0b 11
        E 32 b1 0b 2a
        E 32 b1 0b 22
        E 16 b1 0b 08
        E 16 b1 0b 11
        E 32 b1 0b 2a
        E 32 b1 0b 22
        E 16 b1 0b 08
        E 16 b1 0b 11
        E 32 b1 0b 2a
        E 32 b1 0b 22
        E 16 b1 0b 08
        E 16 b1 0b 11
        E 16 81 47 00
        E 0 91 3b 11
        E 16 b1 0b 2a
        E 32 b1 0b 22
        E 16 b1 0b 08
        E 16 b1 0b 11
        E 32 b1 0b 2a
        E 32 b1 0b 22
        E 16 b1 0b 08
        E 16 b1 0b 11
        E 32 b1 0b 2a
        E 32 b1 0b 22
        E 16 b1 0b 08
        E 16 b1 0b 11
        E 16 81 3b 00
        E 0 91 42 11
        E 16 b1 0b 2a
        E 32 b1 0b 22
        E 16 b1 0b 08
        E 16 b1 0b 11
        E 16 81 42 00
        E 0 91 47 11
        E 16 b1 0b 2a
        E 32 b1 0b 22
        E 16 b1 0b 08
        E 16 b1 0b 11
        E 32 b1 0b 2a
        E 32 b1 0b 22
        E 16 b1 0b 08
        E 16 b1 0b 11
        E 32 b1 0b 2a
        E 32 b1 0b 22
        E 16 b1 0b 08
        E 16 b1 0b 11
        E 32 b1 0b 2a
        E 32 b1 0b 22
        E 16 b1 0b 08
        E 16 b1 0b 11
        E 16 81 47 00
        E 0 91 3b 11
        E 16 b1 0b 2a
        E 32 b1 0b 22
        E 16 b1 0b 08
        E 16 b1 0b 11
        E 32 b1 0b 2a
        E 32 b1 0b 22
        E 16 b1 0b 08
        E 16 b1 0b 11
        E 16 81 3b 00
        E 0 91 47 11
        E 16 b1 0b 2a
        E 32 b1 0b 22
        E 16 b1 0b 08
        E 16 b1 0b 11
        E 32 b1 0b 2a
        E 32 b1 0b 22
        E 16 b1 0b 08
        E 16 b1 0b 11
        E 16 81 47 00
        E 0 91 3b 11
        E 16 b1 0b 2a
        E 32 b1 0b 22
        E 16 b1 0b 08
        E 16 b1 0b 11
        E 32 b1 0b 2a
        E 32 b1 0b 22
        E 16 b1 0b 08
        E 16 b1 0b 11
        E 32 b1 0b 2a
        E 32 b1 0b 22
        E 16 b1 0b 08
        E 16 b1 0b 11
        E 32 b1 0b 2a
        E 32 b1 0b 22
        E 16 b1 0b 08
        E 16 b1 0b 11
        E 16 81 3b 00
        E 0 91 47 11
        E 16 b1 0b 2a
        E 32 b1 0b 22
        E 16 b1 0b 08
        E 16 b1 0b 11
        E 32 b1 0b 2a
        E 32 b1 0b 22
        E 16 b1 0b 08
        E 16 b1 0b 11
        E 16 81 47 00
        E 0 91 3b 11
        E 16 b1 0b 2a
        E 32 b1 0b 22
        E 16 b1 0b 08
        E 16 b1 0b 11
        E 16 81 3b 00
        E 0 91 42 11
        E 16 b1 0b 2a
        E 32 b1 0b 22
        E 16 b1 0b 08
        E 16 b1 0b 11
        E 16 81 42 00
        E 0 91 47 11
        E 16 b1 0b 2a
        E 32 b1 0b 22
        E 16 b1 0b 08
        E 16 b1 0b 11
        E 32 b1 0b 2a
        E 32 b1 0b 22
        E 16 b1 0b 08
        E 16 b1 0b 11
        E 32 b1 0b 2a
        E 32 b1 0b 22
        E 16 b1 0b 08
        E 16 b1 0b 11
        E 32 b1 0b 2a
        E 32 b1 0b 22
        E 16 b1 0b 08
        E 16 b1 0b 11
        E 16 81 47 00
        E 0 91 3b 11
        E 16 b1 0b 2a
        E 32 b1 0b 22
        E 16 b1 0b 08
        E 16 b1 0b 11
        E 32 b1 0b 2a
        E 32 b1 0b 22
        E 16 b1 0b 08
        E 16 b1 0b 11
        E 32 b1 0b 2a
        E 32 b1 0b 22
        E 16 b1 0b 08
        E 16 b1 0b 11
        E 16 81 3b 00
        E 0 91 42 11
        E 16 b1 0b 2a
        E 32 b1 0b 22
        E 16 b1 0b 08
        E 16 b1 0b 11
        E 16 81 42 00
        E 0 91 47 11
        E 16 b1 0b 2a
        E 32 b1 0b 22
        E 16 b1 0b 08
        E 16 b1 0b 11
        E 32 b1 0b 2a
        E 32 b1 0b 22
        E 16 b1 0b 08
        E 16 b1 0b 11
        E 32 b1 0b 2a
        E 32 b1 0b 22
        E 16 b1 0b 08
        E 16 b1 0b 11
        E 32 b1 0b 2a
        E 32 b1 0b 22
        E 16 b1 0b 08
        E 16 b1 0b 11
        E 16 81 47 00
        E 0 91 3b 11
        E 16 b1 0b 2a
        E 32 b1 0b 22
        E 16 b1 0b 08
        E 16 b1 0b 11
        E 32 b1 0b 2a
        E 32 b1 0b 22
        E 16 b1 0b 08
        E 16 b1 0b 11
        E 32 b1 0b 2a
        E 32 b1 0b 22
        E 16 b1 0b 08
        E 16 b1 0b 11
        E 16 81 3b 00
        E 0 91 42 11
        E 16 b1 0b 2a
        E 32 b1 0b 22
        E 16 b1 0b 08
        E 16 b1 0b 11
        E 16 81 42 00
        E 0 91 47 11
        E 16 b1 0b 2a
        E 32 b1 0b 22
        E 16 b1 0b 08
        E 16 b1 0b 11
        E 32 b1 0b 2a
        E 32 b1 0b 22
        E 16 b1 0b 08
        E 16 b1 0b 11
        E 32 b1 0b 2a
        E 32 b1 0b 22
        E 16 b1 0b 08
        E 16 b1 0b 11
        E 32 b1 0b 2a
        E 32 b1 0b 22
        E 16 b1 0b 08
        E 16 b1 0b 11
        E 16 81 47 00
        E 0 91 3b 11
        E 16 b1 0b 2a
        E 32 b1 0b 22
        E 16 b1 0b 08
        E 16 b1 0b 11
        E 32 b1 0b 2a
        E 32 b1 0b 22
        E 16 b1 0b 08
        E 16 b1 0b 11
        E 16 81 3b 00
        E 0 91 47 11
        E 16 b1 0b 2a
        E 32 b1 0b 22
        E 16 b1 0b 08
        E 16 b1 0b 11
        E 32 b1 0b 2a
        E 32 b1 0b 22
        E 16 b1 0b 08
        E 16 b1 0b 11
        E 16 81 47 00
        E 0 91 3b 11
        E 16 b1 0b 2a
        E 32 b1 0b 22
        E 16 b1 0b 08
        E 16 b1 0b 11
        E 32 b1 0b 2a
        E 32 b1 0b 22
        E 16 b1 0b 08
        E 16 b1 0b 11
        E 32 b1 0b 2a
        E 32 b1 0b 22
        E 16 b1 0b 08
        E 16 b1 0b 11
        E 32 b1 0b 2a
        E 32 b1 0b 22
        E 16 b1 0b 08
        E 16 b1 0b 11
        E 16 81 3b 00
        E 0 91 47 11
        E 16 b1 0b 2a
        E 32 b1 0b 22
        E 16 b1 0b 08
        E 16 b1 0b 11
        E 32 b1 0b 2a
        E 32 b1 0b 22
        E 16 b1 0b 08
        E 16 b1 0b 11
        E 16 81 47 00
        E 0 91 3b 11
        E 16 b1 0b 2a
        E 32 b1 0b 22
        E 16 b1 0b 08
        E 16 b1 0b 11
        E 16 81 3b 00
        E 0 91 42 11
        E 16 b1 0b 2a
        E 32 b1 0b 22
        E 16 b1 0b 08
        E 16 b1 0b 11
        E 16 81 42 00
        E 0 91 47 11
        E 16 b1 0b 2a
        E 32 b1 0b 22
        E 16 b1 0b 08
        E 16 b1 0b 11
        E 32 b1 0b 2a
        E 32 b1 0b 22
        E 16 b1 0b 08
        E 16 b1 0b 11
        E 32 b1 0b 2a
        E 32 b1 0b 22
        E 16 b1 0b 08
        E 16 b1 0b 11
        E 32 b1 0b 2a
        E 32 b1 0b 22
        E 16 b1 0b 08
        E 16 b1 0b 11
        E 16 81 47 00
        E 0 91 3b 11
        E 16 b1 0b 2a
        E 32 b1 0b 22
        E 16 b1 0b 08
        E 16 b1 0b 11
        E 32 b1 0b 2a
        E 32 b1 0b 22
        E 16 b1 0b 08
        E 16 b1 0b 11
        E 32 b1 0b 2a
        E 32 b1 0b 22
        E 16 b1 0b 08
        E 16 b1 0b 11
        E 16 81 3b 00
        E 0 91 42 11
        E 16 b1 0b 2a
        E 32 b1 0b 22
        E 16 b1 0b 08
        E 16 b1 0b 11
        E 16 81 42 00
        E 0 91 47 11
        E 16 b1 0b 2a
        E 32 b1 0b 22
        E 16 b1 0b 08
        E 16 b1 0b 11
        E 32 b1 0b 2a
        E 32 b1 0b 22
        E 16 b1 0b 08
        E 16 b1 0b 11
        E 32 b1 0b 2a
        E 32 b1 0b 22
        E 16 b1 0b 08
        E 16 b1 0b 11
        E 32 b1 0b 2a
        E 32 b1 0b 22
        E 16 b1 0b 08
        E 16 b1 0b 11
        E 16 81 47 00
        E 0 91 3b 11
        E 16 b1 0b 2a
        E 32 b1 0b 22
        E 16 b1 0b 08
        E 16 b1 0b 11
        E 32 b1 0b 2a
        E 32 b1 0b 22
        E 16 b1 0b 08
        E 16 b1 0b 11
        E 32 b1 0b 2a
        E 32 b1 0b 22
        E 16 b1 0b 08
        E 16 b1 0b 11
        E 16 81 3b 00
        E 0 91 42 11
        E 16 b1 0b 2a
        E 32 b1 0b 22
        E 16 b1 0b 08
        E 16 b1 0b 11
        E 16 81 42 00
        E 0 91 47 11
        E 16 b1 0b 2a
        E 32 b1 0b 22
        E 16 b1 0b 08
        E 16 b1 0b 11
        E 32 b1 0b 2a
        E 32 b1 0b 22
        E 16 b1 0b 08
        E 16 b1 0b 11
        E 32 b1 0b 2a
        E 32 b1 0b 22
        E 16 b1 0b 08
        E 16 b1 0b 11
        E 32 b1 0b 2a
        E 32 b1 0b 22
        E 16 b1 0b 08
        E 16 b1 0b 11
        E 16 81 47 00
        E 0 91 3b 11
        E 16 b1 0b 2a
        E 32 b1 0b 22
        E 16 b1 0b 08
        E 16 b1 0b 11
        E 32 b1 0b 2a
        E 32 b1 0b 22
        E 16 b1 0b 08
        E 16 b1 0b 11
        E 16 81 3b 00
        E 0 91 47 11
        E 16 b1 0b 2a
        E 32 b1 0b 22
        E 16 b1 0b 08
        E 16 b1 0b 11
        E 32 b1 0b 2a
        E 32 b1 0b 22
        E 16 b1 0b 08
        E 16 b1 0b 11
        E 16 81 47 00
        E 0 91 3b 11
        E 16 b1 0b 2a
        E 32 b1 0b 22
        E 16 b1 0b 08
        E 16 b1 0b 11
        E 32 b1 0b 2a
        E 32 b1 0b 22
        E 16 b1 0b 08
        E 16 b1 0b 11
        E 32 b1 0b 2a
        E 32 b1 0b 22
        E 16 b1 0b 08
        E 16 b1 0b 11
        E 32 b1 0b 2a
        E 32 b1 0b 22
        E 16 b1 0b 08
        E 16 b1 0b 11
        E 16 81 3b 00
        E 0 91 47 11
        E 16 b1 0b 2a
        E 32 b1 0b 22
        E 16 b1 0b 08
        E 16 b1 0b 11
        E 32 b1 0b 2a
        E 32 b1 0b 22
        E 16 b1 0b 08
        E 16 b1 0b 11
        E 16 81 47 00
        E 0 91 3b 11
        E 16 b1 0b 2a
        E 32 b1 0b 22
        E 16 b1 0b 08
        E 16 b1 0b 11
        E 16 81 3b 00
        E 0 91 42 11
        E 16 b1 0b 2a
        E 32 b1 0b 22
        E 16 b1 0b 08
        E 16 b1 0b 11
        E 16 81 42 00
        E 0 91 47 11
        E 16 b1 0b 2a
        E 32 b1 0b 22
        E 16 b1 0b 08
        E 16 b1 0b 11
        E 32 b1 0b 2a
        E 32 b1 0b 22
        E 16 b1 0b 08
        E 16 b1 0b 11
        E 32 b1 0b 2a
        E 32 b1 0b 22
        E 16 b1 0b 08
        E 16 b1 0b 11
        E 32 b1 0b 2a
        E 32 b1 0b 22
        E 16 b1 0b 08
        E 16 b1 0b 11
        E 16 81 47 00
        E 0 91 3b 11
        E 16 b1 0b 2a
        E 32 b1 0b 22
        E 16 b1 0b 08
        E 16 b1 0b 11
        E 32 b1 0b 2a
        E 32 b1 0b 22
        E 16 b1 0b 08
        E 16 b1 0b 11
        E 32 b1 0b 2a
        E 32 b1 0b 22
        E 16 b1 0b 08
        E 16 b1 0b 11
        E 16 81 3b 00
        E 0 91 42 11
        E 16 b1 0b 2a
        E 32 b1 0b 22
        E 16 b1 0b 08
        E 16 b1 0b 11
        E 16 81 42 00
        E 0 91 47 11
        E 16 b1 0b 2a
        E 32 b1 0b 22
        E 16 b1 0b 08
        E 16 b1 0b 11
        E 32 b1 0b 2a
        E 32 b1 0b 22
        E 16 b1 0b 08
        E 16 b1 0b 11
        E 32 b1 0b 2a
        E 32 b1 0b 22
        E 16 b1 0b 08
        E 16 b1 0b 11
        E 32 b1 0b 2a
        E 32 b1 0b 22
        E 16 b1 0b 08
        E 16 b1 0b 11
        E 16 81 47 00
        E 0 91 3b 11
        E 16 b1 0b 2a
        E 32 b1 0b 22
        E 16 b1 0b 08
        E 16 b1 0b 11
        E 32 b1 0b 2a
        E 32 b1 0b 22
        E 16 b1 0b 08
        E 16 b1 0b 11
        E 32 b1 0b 2a
        E 32 b1 0b 22
        E 16 b1 0b 08
        E 16 b1 0b 11
        E 16 81 3b 00
        E 0 91 42 11
        E 16 b1 0b 2a
        E 32 b1 0b 22
        E 16 b1 0b 08
        E 16 b1 0b 11
        E 16 81 42 00
        E 0 91 47 11
        E 16 b1 0b 2a
        E 32 b1 0b 22
        E 16 b1 0b 08
        E 16 b1 0b 11
        E 32 b1 0b 2a
        E 32 b1 0b 22
        E 16 b1 0b 08
        E 16 b1 0b 11
        E 32 b1 0b 2a
        E 32 b1 0b 22
        E 16 b1 0b 08
        E 16 b1 0b 11
        E 32 b1 0b 2a
        E 32 b1 0b 22
        E 16 b1 0b 08
        E 16 b1 0b 11
        E 16 81 47 00
        E 0 91 3b 11
        E 16 b1 0b 2a
        E 32 b1 0b 22
        E 16 b1 0b 08
        E 16 b1 0b 11
        E 32 b1 0b 2a
        E 32 b1 0b 22
        E 16 b1 0b 08
        E 16 b1 0b 11
        E 16 81 3b 00
        E 0 91 47 11
        E 16 b1 0b 2a
        E 32 b1 0b 22
        E 16 b1 0b 08
        E 16 b1 0b 11
        E 32 b1 0b 2a
        E 32 b1 0b 22
        E 16 b1 0b 08
        E 16 b1 0b 11
        E 16 81 47 00
        E 0 91 3b 11
        E 16 b1 0b 2a
        E 32 b1 0b 22
        E 16 b1 0b 08
        E 16 b1 0b 11
        E 32 b1 0b 2a
        E 32 b1 0b 22
        E 16 b1 0b 08
        E 16 b1 0b 11
        E 32 b1 0b 2a
        E 32 b1 0b 22
        E 16 b1 0b 08
        E 16 b1 0b 11
        E 32 b1 0b 2a
        E 32 b1 0b 22
        E 16 b1 0b 08
        E 16 b1 0b 11
        E 16 81 3b 00
        E 0 91 47 11
        E 16 b1 0b 2a
        E 32 b1 0b 22
        E 16 b1 0b 08
        E 16 b1 0b 11
        E 32 b1 0b 2a
        E 32 b1 0b 22
        E 16 b1 0b 08
        E 16 b1 0b 11
        E 16 81 47 00
        E 0 91 3b 11
        E 16 b1 0b 2a
        E 32 b1 0b 22
        E 16 b1 0b 08
        E 16 b1 0b 11
        E 16 81 3b 00
        E 0 91 42 11
        E 16 b1 0b 2a
        E 32 b1 0b 22
        E 16 b1 0b 08
        E 16 b1 0b 11
        E 16 81 42 00
        E 0 91 47 11
        E 16 b1 0b 2a
        E 32 b1 0b 22
        E 16 b1 0b 08
        E 16 b1 0b 11
        E 32 b1 0b 2a
        E 32 b1 0b 22
        E 16 b1 0b 08
        E 16 b1 0b 11
        E 32 b1 0b 2a
        E 32 b1 0b 22
        E 16 b1 0b 08
        E 16 b1 0b 11
        E 32 b1 0b 2a
        E 32 b1 0b 22
        E 16 b1 0b 08
        E 16 b1 0b 11
        E 16 81 47 00
        E 0 91 3b 11
        E 16 b1 0b 2a
        E 32 b1 0b 22
        E 16 b1 0b 08
        E 16 b1 0b 11
        E 32 b1 0b 2a
        E 32 b1 0b 22
        E 16 b1 0b 08
        E 16 b1 0b 11
        E 32 b1 0b 2a
        E 32 b1 0b 22
        E 16 b1 0b 08
        E 16 b1 0b 11
        E 16 81 3b 00
        E 0 91 42 11
        E 16 b1 0b 2a
        E 32 b1 0b 22
        E 16 b1 0b 08
        E 16 b1 0b 11
        E 16 81 42 00
        E 0 91 47 11
        E 16 b1 0b 2a
        E 32 b1 0b 22
        E 16 b1 0b 08
        E 16 b1 0b 11
        E 32 b1 0b 2a
        E 32 b1 0b 22
        E 16 b1 0b 08
        E 16 b1 0b 11
        E 32 b1 0b 2a
        E 32 b1 0b 22
        E 16 b1 0b 08
        E 16 b1 0b 11
        E 32 b1 0b 2a
        E 32 b1 0b 22
        E 16 b1 0b 08
        E 16 b1 0b 11
        E 16 81 47 00
        E 0 91 3b 11
        E 16 b1 0b 2a
        E 32 b1 0b 22
        E 16 b1 0b 08
        E 16 b1 0b 11
        E 32 b1 0b 2a
        E 32 b1 0b 22
        E 16 b1 0b 08
        E 16 b1 0b 11
        E 32 b1 0b 2a
        E 32 b1 0b 22
        E 16 b1 0b 08
        E 16 b1 0b 11
        E 16 81 3b 00
        E 0 91 42 11
        E 16 b1 0b 2a
        E 32 b1 0b 22
        E 16 b1 0b 08
        E 16 b1 0b 11
        E 16 81 42 00
        E 0 91 47 11
        E 16 b1 0b 2a
        E 32 b1 0b 22
        E 16 b1 0b 08
        E 16 b1 0b 11
        E 32 b1 0b 2a
        E 32 b1 0b 22
        E 16 b1 0b 08
        E 16 b1 0b 11
        E 32 b1 0b 2a
        E 32 b1 0b 22
        E 16 b1 0b 08
        E 16 b1 0b 11
        E 32 b1 0b 2a
        E 32 b1 0b 22
        E 16 b1 0b 08
        E 16 b1 0b 11
        E 16 81 47 00
        E 0 91 3b 11
        E 16 b1 0b 2a
        E 32 b1 0b 22
        E 16 b1 0b 08
        E 16 b1 0b 11
        E 32 b1 0b 2a
        E 32 b1 0b 22
        E 16 b1 0b 08
        E 16 b1 0b 11
        E 16 81 3b 00
        E 0 91 47 11
        E 16 b1 0b 2a
        E 32 b1 0b 22
        E 16 b1 0b 08
        E 16 b1 0b 11
        E 32 b1 0b 2a
        E 32 b1 0b 22
        E 16 b1 0b 08
        E 16 b1 0b 11
        E 16 81 47 00
        E 0 91 3b 11
        E 16 b1 0b 2a
        E 32 b1 0b 22
        E 16 b1 0b 08
        E 16 b1 0b 11
        E 32 b1 0b 2a
        E 32 b1 0b 22
        E 16 b1 0b 08
        E 16 b1 0b 11
        E 32 b1 0b 2a
        E 32 b1 0b 22
        E 16 b1 0b 08
        E 16 b1 0b 11
        E 32 b1 0b 2a
        E 32 b1 0b 22
        E 16 b1 0b 08
        E 16 b1 0b 11
        E 16 81 3b 00
        E 0 91 47 11
        E 16 b1 0b 2a
        E 32 b1 0b 22
        E 16 b1 0b 08
        E 16 b1 0b 11
        E 32 b1 0b 2a
        E 32 b1 0b 22
        E 16 b1 0b 08
        E 16 b1 0b 11
        E 16 81 47 00
        E 0 91 3b 11
        E 16 b1 0b 2a
        E 32 b1 0b 22
        E 16 b1 0b 08
        E 16 b1 0b 11
        E 16 81 3b 00
        E 0 91 42 11
        E 16 b1 0b 2a
        E 32 b1 0b 22
        E 16 b1 0b 08
        E 16 b1 0b 11
        E 16 81 42 00
        E 0 91 47 11
        E 16 b1 0b 2a
        E 32 b1 0b 22
        E 16 b1 0b 08
        E 16 b1 0b 11
        E 32 b1 0b 2a
        E 32 b1 0b 22
        E 16 b1 0b 08
        E 16 b1 0b 11
        E 32 b1 0b 2a
        E 32 b1 0b 22
        E 16 b1 0b 08
        E 16 b1 0b 11
        E 32 b1 0b 2a
        E 32 b1 0b 22
        E 16 b1 0b 08
        E 16 b1 0b 11
        E 16 81 47 00
        E 0 91 3b 11
        E 16 b1 0b 2a
        E 32 b1 0b 22
        E 16 b1 0b 08
        E 16 b1 0b 11
        E 32 b1 0b 2a
        E 32 b1 0b 22
        E 16 b1 0b 08
        E 16 b1 0b 11
        E 32 b1 0b 2a
        E 32 b1 0b 22
        E 16 b1 0b 08
        E 16 b1 0b 11
        E 16 81 3b 00
        E 0 91 42 11
        E 16 b1 0b 2a
        E 32 b1 0b 22
        E 16 b1 0b 08
        E 16 b1 0b 11
        E 16 81 42 00
        E 0 91 47 11
        E 16 b1 0b 2a
        E 32 b1 0b 22
        E 16 b1 0b 08
        E 16 b1 0b 11
        E 32 b1 0b 2a
        E 32 b1 0b 22
        E 16 b1 0b 08
        E 16 b1 0b 11
        E 32 b1 0b 2a
        E 32 b1 0b 22
        E 16 b1 0b 08
        E 16 b1 0b 11
        E 32 b1 0b 2a
        E 32 b1 0b 22
        E 16 b1 0b 08
        E 16 b1 0b 11
        E 16 81 47 00
        E 0 91 3b 11
        E 16 b1 0b 2a
        E 32 b1 0b 22
        E 16 b1 0b 08
        E 16 b1 0b 11
        E 32 b1 0b 2a
        E 32 b1 0b 22
        E 16 b1 0b 08
        E 16 b1 0b 11
        E 32 b1 0b 2a
        E 32 b1 0b 22
        E 16 b1 0b 08
        E 16 b1 0b 11
        E 16 81 3b 00
        E 0 91 42 11
        E 16 b1 0b 2a
        E 32 b1 0b 22
        E 16 b1 0b 08
        E 16 b1 0b 11
        E 16 81 42 00
        E 0 91 47 11
        E 16 b1 0b 2a
        E 32 b1 0b 22
        E 16 b1 0b 08
        E 16 b1 0b 11
        E 32 b1 0b 2a
        E 32 b1 0b 22
        E 16 b1 0b 08
        E 16 b1 0b 11
        E 32 b1 0b 2a
        E 32 b1 0b 22
        E 16 b1 0b 08
        E 16 b1 0b 11
        E 32 b1 0b 2a
        E 32 b1 0b 22
        E 16 b1 0b 08
        E 16 b1 0b 11
        E 16 81 47 00
        E 0 91 3b 11
        E 16 b1 0b 2a
        E 32 b1 0b 22
        E 16 b1 0b 08
        E 16 b1 0b 11
        E 32 b1 0b 2a
        E 32 b1 0b 22
        E 16 b1 0b 08
        E 16 b1 0b 11
        E 16 81 3b 00
        E 0 91 47 11
        E 16 b1 0b 2a
        E 32 b1 0b 22
        E 16 b1 0b 08
        E 16 b1 0b 11
        E 32 b1 0b 2a
        E 32 b1 0b 22
        E 16 b1 0b 08
        E 16 b1 0b 11
        E 16 81 47 00
        E 0 91 3b 11
        E 16 b1 0b 2a
        E 32 b1 0b 22
        E 16 b1 0b 08
        E 16 b1 0b 11
        E 32 b1 0b 2a
        E 32 b1 0b 22
        E 16 b1 0b 08
        E 16 b1 0b 11
        E 32 b1 0b 2a
        E 32 b1 0b 22
        E 16 b1 0b 08
        E 16 b1 0b 11
        E 32 b1 0b 2a
        E 32 b1 0b 22
        E 16 b1 0b 08
        E 16 b1 0b 11
        E 16 81 3b 00
        E 0 91 47 11
        E 16 b1 0b 2a
        E 32 b1 0b 22
        E 16 b1 0b 08
        E 16 b1 0b 11
        E 32 b1 0b 2a
        E 32 b1 0b 22
        E 16 b1 0b 08
        E 16 b1 0b 11
        E 16 81 47 00
        E 0 91 3b 11
        E 16 b1 0b 2a
        E 32 b1 0b 22
        E 16 b1 0b 08
        E 16 b1 0b 11
        E 16 81 3b 00
        E 0 91 42 11
        E 16 b1 0b 2a
        E 32 b1 0b 22
        E 16 b1 0b 08
        E 16 b1 0b 11
        E 16 81 42 00
        E 0 91 47 11
        E 16 b1 0b 2a
        E 32 b1 0b 22
        E 16 b1 0b 08
        E 16 b1 0b 11
        E 32 b1 0b 2a
        E 32 b1 0b 22
        E 16 b1 0b 08
        E 16 b1 0b 11
        E 32 b1 0b 2a
        E 32 b1 0b 22
        E 16 b1 0b 08
        E 16 b1 0b 11
        E 32 b1 0b 2a
        E 32 b1 0b 22
        E 16 b1 0b 08
        E 16 b1 0b 11
        E 16 81 47 00
        E 0 91 3b 11
        E 16 b1 0b 2a
        E 32 b1 0b 22
        E 16 b1 0b 08
        E 16 b1 0b 11
        E 32 b1 0b 2a
        E 32 b1 0b 22
        E 16 b1 0b 08
        E 16 b1 0b 11
        E 32 b1 0b 2a
        E 32 b1 0b 22
        E 16 b1 0b 08
        E 16 b1 0b 11
        E 16 81 3b 00
        E 0 91 42 11
        E 16 b1 0b 2a
        E 32 b1 0b 22
        E 16 b1 0b 08
        E 16 b1 0b 11
        E 16 81 42 00
        E 0 91 47 11
        E 16 b1 0b 2a
        E 32 b1 0b 22
        E 16 b1 0b 08
        E 16 b1 0b 11
        E 32 b1 0b 2a
        E 32 b1 0b 22
        E 16 b1 0b 08
        E 16 b1 0b 11
        E 32 b1 0b 2a
        E 32 b1 0b 22
        E 16 b1 0b 08
        E 16 b1 0b 11
        E 32 b1 0b 2a
        E 32 b1 0b 22
        E 16 b1 0b 08
        E 16 b1 0b 11
        E 16 81 47 00
        E 0 91 3b 11
        E 16 b1 0b 2a
        E 32 b1 0b 22
        E 16 b1 0b 08
        E 16 b1 0b 11
        E 32 b1 0b 2a
        E 32 b1 0b 22
        E 16 b1 0b 08
        E 16 b1 0b 11
        E 32 b1 0b 2a
        E 32 b1 0b 22
        E 16 b1 0b 08
        E 16 b1 0b 11
        E 16 81 3b 00
        E 0 91 42 11
        E 16 b1 0b 2a
        E 32 b1 0b 22
        E 16 b1 0b 08
        E 16 b1 0b 11
        E 16 81 42 00
        E 0 91 47 11
        E 16 b1 0b 2a
        E 32 b1 0b 22
        E 16 b1 0b 08
        E 16 b1 0b 11
        E 32 b1 0b 2a
        E 32 b1 0b 22
        E 16 b1 0b 08
        E 16 b1 0b 11
        E 32 b1 0b 2a
        E 32 b1 0b 22
        E 16 b1 0b 08
        E 16 b1 0b 11
        E 32 b1 0b 2a
        E 32 b1 0b 22
        E 16 b1 0b 08
        E 16 b1 0b 11
        E 16 81 47 00
        E 0 91 3b 11
        E 16 b1 0b 2a
        E 32 b1 0b 22
        E 16 b1 0b 08
        E 16 b1 0b 11
        E 32 b1 0b 2a
        E 32 b1 0b 22
        E 16 b1 0b 08
        E 16 b1 0b 11
        E 16 81 3b 00
        E 0 91 47 11
        E 16 b1 0b 2a
        E 32 b1 0b 22
        E 16 b1 0b 08
        E 16 b1 0b 11
        E 32 b1 0b 2a
        E 32 b1 0b 22
        E 16 b1 0b 08
        E 16 b1 0b 11
        E 16 81 47 00
        E 0 91 3b 11
        E 16 b1 0b 2a
        E 32 b1 0b 22
        E 16 b1 0b 08
        E 16 b1 0b 11
        E 32 b1 0b 2a
        E 32 b1 0b 22
        E 16 b1 0b 08
        E 16 b1 0b 11
        E 32 b1 0b 2a
        E 32 b1 0b 22
        E 16 b1 0b 08
        E 16 b1 0b 11
        E 32 b1 0b 2a
        E 32 b1 0b 22
        E 16 b1 0b 08
        E 16 b1 0b 11
        E 16 81 3b 00
        E 0 91 47 11
        E 16 b1 0b 2a
        E 32 b1 0b 22
        E 16 b1 0b 08
        E 16 b1 0b 11
        E 32 b1 0b 2a
        E 32 b1 0b 22
        E 16 b1 0b 08
        E 16 b1 0b 11
        E 16 81 47 00
        E 0 91 3b 11
        E 16 b1 0b 2a
        E 32 b1 0b 22
        E 16 b1 0b 08
        E 16 b1 0b 11
        E 16 81 3b 00
        E 0 91 42 11
        E 16 b1 0b 2a
        E 32 b1 0b 22
        E 16 b1 0b 08
        E 16 b1 0b 11
        E 16 81 42 00
        E 0 91 47 11
        E 16 b1 0b 2a
        E 32 b1 0b 22
        E 16 b1 0b 08
        E 16 b1 0b 11
        E 32 b1 0b 2a
        E 32 b1 0b 22
        E 16 b1 0b 08
        E 16 b1 0b 11
        E 32 b1 0b 2a
        E 32 b1 0b 22
        E 16 b1 0b 08
        E 16 b1 0b 11
        E 32 b1 0b 2a
        E 32 b1 0b 22
        E 16 b1 0b 08
        E 16 b1 0b 11
        E 16 81 47 00
        E 0 91 3b 11
        E 16 b1 0b 2a
        E 32 b1 0b 22
        E 16 b1 0b 08
        E 16 b1 0b 11
        E 32 b1 0b 2a
        E 32 b1 0b 22
        E 16 b1 0b 08
        E 16 b1 0b 11
        E 32 b1 0b 2a
        E 32 b1 0b 22
        E 16 b1 0b 08
        E 16 b1 0b 11
        E 16 81 3b 00
        E 0 91 42 11
        E 16 b1 0b 2a
        E 32 b1 0b 22
        E 16 b1 0b 08
        E 16 b1 0b 11
        E 16 81 42 00
        E 0 91 47 11
        E 16 b1 0b 2a
        E 32 b1 0b 22
        E 16 b1 0b 08
        E 16 b1 0b 11
        E 32 b1 0b 2a
        E 32 b1 0b 22
        E 16 b1 0b 08
        E 16 b1 0b 11
        E 32 b1 0b 2a
        E 32 b1 0b 22
        E 16 b1 0b 08
        E 16 b1 0b 11
        E 32 b1 0b 2a
        E 32 b1 0b 22
        E 16 b1 0b 08
        E 16 b1 0b 11
        E 16 81 47 00
        E 0 91 3b 11
        E 16 b1 0b 2a
        E 32 b1 0b 22
        E 16 b1 0b 08
        E 16 b1 0b 11
        E 32 b1 0b 2a
        E 32 b1 0b 22
        E 16 b1 0b 08
        E 16 b1 0b 11
        E 32 b1 0b 2a
        E 32 b1 0b 22
        E 16 b1 0b 08
        E 16 b1 0b 11
        E 16 81 3b 00
        E 0 91 42 11
        E 16 b1 0b 2a
        E 32 b1 0b 22
        E 16 b1 0b 08
        E 16 b1 0b 11
        E 16 81 42 00
        E 0 91 47 11
        E 16 b1 0b 2a
        E 32 b1 0b 22
        E 16 b1 0b 08
        E 16 b1 0b 11
        E 32 b1 0b 2a
        E 32 b1 0b 22
        E 16 b1 0b 08
        E 16 b1 0b 11
        E 32 b1 0b 2a
        E 32 b1 0b 22
        E 16 b1 0b 08
        E 16 b1 0b 11
        E 32 b1 0b 2a
        E 32 b1 0b 22
        E 16 b1 0b 08
        E 16 b1 0b 11
        E 16 81 47 00
        E 0 91 3b 11
        E 16 b1 0b 2a
        E 32 b1 0b 22
        E 16 b1 0b 08
        E 16 b1 0b 11
        E 32 b1 0b 2a
        E 32 b1 0b 22
        E 16 b1 0b 08
        E 16 b1 0b 11
        E 16 81 3b 00
        E 0 91 47 11
        E 16 b1 0b 2a
        E 32 b1 0b 22
        E 16 b1 0b 08
        E 16 b1 0b 11
        E 32 b1 0b 2a
        E 32 b1 0b 22
        E 16 b1 0b 08
        E 16 b1 0b 11
        E 16 81 47 00
        E 0 91 3b 11
        E 16 b1 0b 2a
        E 32 b1 0b 22
        E 16 b1 0b 08
        E 16 b1 0b 11
        E 32 b1 0b 2a
        E 32 b1 0b 22
        E 16 b1 0b 08
        E 16 b1 0b 11
        E 32 b1 0b 2a
        E 32 b1 0b 22
        E 16 b1 0b 08
        E 16 b1 0b 11
        E 32 b1 0b 2a
        E 32 b1 0b 22
        E 16 b1 0b 08
        E 16 b1 0b 11
        E 16 81 3b 00
        E 0 91 47 11
        E 16 b1 0b 2a
        E 32 b1 0b 22
        E 16 b1 0b 08
        E 16 b1 0b 11
        E 16 b1 0c 10
        E 0 b1 0b 55
        E 0 81 47 00
        E 0 91 33 55
        E 32 b1 0b 4c
        E 16 b1 0b 44
        E 16 81 33 00
        E 16 b1 0b 33
        E 0 91 33 33
        E 16 81 33 00
        E 0 91 36 33
        E 16 b1 0b 55
        E 16 b1 0b 4c
        E 16 b1 0b 44
        E 16 81 36 00
        E 16 b1 0b 33
        E 0 91 36 33
        E 128 b1 0b 55
        E 16 b1 0b 4c
        E 16 b1 0b 44
        E 16 81 36 00
        E 16 b1 0b 33
        E 0 91 36 33
        E 32 b1 0b 55
        E 16 b1 0b 4c
        E 16 b1 0b 44
        E 16 81 36 00
        E 16 b1 0b 33
        E 0 91 36 33
        E 128 b1 0b 55
        E 16 b1 0b 4c
        E 16 b1 0b 44
        E 16 81 36 00
        E 16 b1 0b 33
        E 0 91 36 33
        E 32 b1 0b 55
        E 16 b1 0b 4c
        E 16 b1 0b 44
        E 16 81 36 00
        E 16 b1 0b 33
        E 0 91 36 33
        E 208 b1 0b 55
        E 64 b1 0b 4c
        E 32 b1 0b 44
        E 32 81 36 00
        E 16 b1 0b 33
        E 0 91 36 33
        E 16 b1 0b 2a
        E 48 b1 0b 55
        E 48 b1 0b 4c
        E 32 b1 0b 44
        E 32 81 36 00
        E 16 b1 0b 33
        E 0 91 36 33
        E 16 b1 0b 2a
        E 224 b1 0b 55
        E 0 81 36 00
        E 0 91 56 55
        E 64 b1 0c 40
        E 0 b1 0b 08
        E 0 81 56 00
        E 0 91 39 08
        E 32 b1 0b 33
        E 16 b1 0b 2a
        E 32 b1 0b 22
        E 112 b1 0c 10
        E 0 b1 0b 55
        E 64 b1 0c 40
        E 0 b1 0b 08
        E 32 b1 0b 33
        E 16 b1 0b 2a
        E 32 b1 0b 22
        E 112 b1 0c 10
        E 0 b1 0b 55
        E 64 b1 0c 40
        E 0 b1 0b 08
        E 32 b1 0b 33
        E 16 b1 0b 2a
        E 32 b1 0b 22
        E 112 81 39 00
        E 576 b1 0c 10
        E 0 b1 0b 08
        E 0 91 3a 08
        E 32 b1 0b 44
        E 16 b1 0b 3b
        E 16 b1 0b 33
        E 16 b1 0b 2a
        E 112 b1 0b 55
        E 0 81 3a 00
        E 0 91 2d 55
        E 96 b1 0b 4c
        E 1248 b1 0b 08
        E 0 81 2d 00
        E 0 91 31 08
        E 32 b1 0b 44
        E 16 b1 0b 3b
        E 16 b1 0b 33
        E 16 b1 0b 2a
        E 112 b1 0b 55
        E 96 b1 0b 4c
        E 1248 b1 0b 08
        E 0 81 31 00
        E 0 91 32 08
        E 32 b1 0b 44
        E 16 b1 0b 3b
        E 16 b1 0b 33
        E 16 b1 0b 2a
        E 112 b1 0b 55
        E 96 b1 0b 4c
        E 1248 b1 0b 08
        E 0 81 32 00
        E 0 91 34 08
        E 32 b1 0b 44
        E 16 b1 0b 3b
        E 16 b1 0b 33
        E 16 b1 0b 2a
        E 112 b1 0b 55
        E 96 b1 0b 4c
        E 1248 b1 0b 08
        E 0 81 34 00
        E 0 91 36 08
        E 32 b1 0b 44
        E 16 b1 0b 3b
        E 16 b1 0b 33
        E 16 b1 0b 2a
        E 80 81 36 00
        E 0 b1 7b 00
        E 0 ff 2f 00
      >
    >
  >
  <TRACK {14A293CD-EC0C-4E71-AA8F-25984109EB89}
    NAME "NES - Triangle [ch2]"
    PEAKCOL 16744192
    BEAT -1
    AUTOMODE 0
    PANLAWFLAGS 3
    VOLPAN 1 0 -1 -1 1
    MUTESOLO 0 0 0
    IPHASE 0
    PLAYOFFS 0 1
    ISBUS 0 0
    BUSCOMP 0 0 0 0 0
    SHOWINMIX 1 0.6667 0.5 1 0.5 0 0 0
    FIXEDLANES 9 0 0 0 0
    SEL 0
    REC 0 5088 1 0 0 0 0 0
    VU 2
    TRACKHEIGHT 0 0 0 0 0 0 0
    INQ 0 0 0 0.5 100 0 0 100
    NCHAN 2
    FX 1
    TRACKID {14A293CD-EC0C-4E71-AA8F-25984109EB89}
    PERF 0
    MIDIOUT -1
    MAINSEND 1 0
    <FXCHAIN
      WNDRECT 24 52 700 560
      SHOW 0
      LASTSEL 0
      DOCKED 0
      BYPASS 0 0 0
      <JS "ReapNES Studio/ReapNES_Console.jsfx" ""
        2 15 1 10 80 10 100 2 1 15 1 5 60 10 80 1 1 0 50 0 0 15 1 0 100 0 0 0.500000 0.500000 0.400000 0.300000 0.800000 2 1 0 0 0 0 - - - - - - - - - - - - - - - - - - - - - - - - - -
      >
      FLOATPOS 0 0 0 0
      FXID {B458AEE0-D4C5-46E9-80AE-B5A5D307F9B8}
      WAK 0 0
    >
    <ITEM
      POSITION 0
      LENGTH 71.61742050000001
      LOOP 0
      ALLTAKES 0
      FADEIN 0 0 0 0 0 0 0
      FADEOUT 0 0 0 0 0 0 0
      MUTE 0 0
      SEL 0
      IGUID {8A3BE3B0-5A89-4EF4-A814-DBE774CF7093}
      <SOURCE MIDI
        HASDATA 1 480 QN
        CCINTERP 32
        E 0 c2 26
        E 11776 b2 0b 7f
        E 0 92 21 7f
        E 2048 82 21 00
        E 0 b2 0b 7f
        E 0 92 1e 7f
        E 8352 82 1e 00
        E 0 b2 0b 7f
        E 0 92 27 7f
        E 176 82 27 00
        E 0 b2 0b 7f
        E 0 92 25 7f
        E 176 82 25 00
        E 0 b2 0b 7f
        E 0 92 1f 7f
        E 672 82 1f 00
        E 0 b2 0b 7f
        E 0 92 28 7f
        E 176 82 28 00
        E 0 b2 0b 7f
        E 0 92 25 7f
        E 176 82 25 00
        E 0 b2 0b 7f
        E 0 92 1f 7f
        E 672 82 1f 00
        E 0 b2 0b 7f
        E 0 92 27 7f
        E 176 82 27 00
        E 0 b2 0b 7f
        E 0 92 25 7f
        E 176 82 25 00
        E 0 b2 0b 7f
        E 0 92 1f 7f
        E 672 82 1f 00
        E 0 b2 0b 7f
        E 0 92 28 7f
        E 176 82 28 00
        E 0 b2 0b 7f
        E 0 92 25 7f
        E 176 82 25 00
        E 0 b2 0b 7f
        E 0 92 1f 7f
        E 672 82 1f 00
        E 0 b2 0b 7f
        E 0 92 27 7f
        E 176 82 27 00
        E 0 b2 0b 7f
        E 0 92 25 7f
        E 176 82 25 00
        E 0 b2 0b 7f
        E 0 92 1f 7f
        E 672 82 1f 00
        E 0 b2 0b 7f
        E 0 92 28 7f
        E 176 82 28 00
        E 0 b2 0b 7f
        E 0 92 25 7f
        E 176 82 25 00
        E 0 b2 0b 7f
        E 0 92 1f 7f
        E 672 82 1f 00
        E 0 b2 0b 7f
        E 0 92 27 7f
        E 176 82 27 00
        E 0 b2 0b 7f
        E 0 92 25 7f
        E 176 82 25 00
        E 0 b2 0b 7f
        E 0 92 1f 7f
        E 672 82 1f 00
        E 0 b2 0b 7f
        E 0 92 28 7f
        E 176 82 28 00
        E 0 b2 0b 7f
        E 0 92 25 7f
        E 176 82 25 00
        E 0 b2 0b 7f
        E 0 92 1f 7f
        E 672 82 1f 00
        E 0 b2 0b 7f
        E 0 92 27 7f
        E 176 82 27 00
        E 0 b2 0b 7f
        E 0 92 25 7f
        E 176 82 25 00
        E 0 b2 0b 7f
        E 0 92 1f 7f
        E 160 82 1f 00
        E 0 b2 0b 7f
        E 0 92 28 7f
        E 176 82 28 00
        E 0 b2 0b 7f
        E 0 92 25 7f
        E 176 82 25 00
        E 0 b2 0b 7f
        E 0 92 1f 7f
        E 160 82 1f 00
        E 0 b2 0b 7f
        E 0 92 27 7f
        E 176 82 27 00
        E 0 b2 0b 7f
        E 0 92 25 7f
        E 176 82 25 00
        E 0 b2 0b 7f
        E 0 92 1f 7f
        E 160 82 1f 00
        E 0 b2 0b 7f
        E 0 92 28 7f
        E 176 82 28 00
        E 0 b2 0b 7f
        E 0 92 25 7f
        E 176 82 25 00
        E 0 b2 0b 7f
        E 0 92 1f 7f
        E 176 82 1f 00
        E 0 b2 0b 7f
        E 0 92 27 7f
        E 192 82 27 00
        E 0 b2 0b 7f
        E 0 92 25 7f
        E 192 82 25 00
        E 0 b2 0b 7f
        E 0 92 1f 7f
        E 192 82 1f 00
        E 0 b2 0b 7f
        E 0 92 28 7f
        E 208 82 28 00
        E 0 b2 0b 7f
        E 0 92 25 7f
        E 208 82 25 00
        E 0 b2 0b 7f
        E 0 92 1f 7f
        E 208 82 1f 00
        E 0 b2 0b 7f
        E 0 92 28 7f
        E 224 82 28 00
        E 0 b2 0b 7f
        E 0 92 25 7f
        E 224 82 25 00
        E 0 b2 0b 7f
        E 0 92 1f 7f
        E 224 82 1f 00
        E 0 b2 0b 7f
        E 0 92 27 7f
        E 240 82 27 00
        E 0 b2 0b 7f
        E 0 92 25 7f
        E 256 82 25 00
        E 8192 b2 0b 7f
        E 0 92 2a 7f
        E 48 82 2a 00
        E 48 b2 0b 7f
        E 0 92 23 7f
        E 48 82 23 00
        E 48 b2 0b 7f
        E 0 92 1b 7f
        E 48 82 1b 00
        E 48 b2 0b 7f
        E 0 92 1e 7f
        E 48 82 1e 00
        E 48 b2 0b 7f
        E 0 92 28 7f
        E 48 82 28 00
        E 48 b2 0b 7f
        E 0 92 21 7f
        E 48 82 21 00
        E 48 b2 0b 7f
        E 0 92 21 7f
        E 192 82 21 00
        E 192 b2 0b 7f
        E 0 92 26 7f
        E 48 82 26 00
        E 48 b2 0b 7f
        E 0 92 23 7f
        E 48 82 23 00
        E 48 b2 0b 7f
        E 0 92 1b 7f
        E 48 82 1b 00
        E 48 b2 0b 7f
        E 0 92 1c 7f
        E 48 82 1c 00
        E 48 b2 0b 7f
        E 0 92 1c 7f
        E 48 82 1c 00
        E 48 b2 0b 7f
        E 0 92 1e 7f
        E 48 82 1e 00
        E 48 b2 0b 7f
        E 0 92 28 7f
        E 48 82 28 00
        E 48 b2 0b 7f
        E 0 92 23 7f
        E 48 82 23 00
        E 48 b2 0b 7f
        E 0 92 1b 7f
        E 48 82 1b 00
        E 48 b2 0b 7f
        E 0 92 1e 7f
        E 48 82 1e 00
        E 48 b2 0b 7f
        E 0 92 28 7f
        E 48 82 28 00
        E 48 b2 0b 7f
        E 0 92 21 7f
        E 48 82 21 00
        E 48 b2 0b 7f
        E 0 92 21 7f
        E 192 82 21 00
        E 192 b2 0b 7f
        E 0 92 26 7f
        E 48 82 26 00
        E 48 b2 0b 7f
        E 0 92 23 7f
        E 48 82 23 00
        E 48 b2 0b 7f
        E 0 92 23 7f
        E 48 82 23 00
        E 48 b2 0b 7f
        E 0 92 28 7f
        E 48 82 28 00
        E 48 b2 0b 7f
        E 0 92 28 7f
        E 48 82 28 00
        E 48 b2 0b 7f
        E 0 92 21 7f
        E 48 82 21 00
        E 48 b2 0b 7f
        E 0 92 21 7f
        E 48 82 21 00
        E 48 b2 0b 7f
        E 0 92 23 7f
        E 48 82 23 00
        E 48 b2 0b 7f
        E 0 92 1b 7f
        E 48 82 1b 00
        E 48 b2 0b 7f
        E 0 92 1e 7f
        E 48 82 1e 00
        E 48 b2 0b 7f
        E 0 92 28 7f
        E 48 82 28 00
        E 48 b2 0b 7f
        E 0 92 21 7f
        E 48 82 21 00
        E 48 b2 0b 7f
        E 0 92 21 7f
        E 192 82 21 00
        E 192 b2 0b 7f
        E 0 92 26 7f
        E 48 82 26 00
        E 48 b2 0b 7f
        E 0 92 23 7f
        E 48 82 23 00
        E 48 b2 0b 7f
        E 0 92 1b 7f
        E 48 82 1b 00
        E 48 b2 0b 7f
        E 0 92 1c 7f
        E 48 82 1c 00
        E 48 b2 0b 7f
        E 0 92 1c 7f
        E 48 82 1c 00
        E 48 b2 0b 7f
        E 0 92 1e 7f
        E 48 82 1e 00
        E 48 b2 0b 7f
        E 0 92 28 7f
        E 48 82 28 00
        E 48 b2 0b 7f
        E 0 92 23 7f
        E 48 82 23 00
        E 48 b2 0b 7f
        E 0 92 1b 7f
        E 48 82 1b 00
        E 48 b2 0b 7f
        E 0 92 1e 7f
        E 48 82 1e 00
        E 48 b2 0b 7f
        E 0 92 28 7f
        E 48 82 28 00
        E 48 b2 0b 7f
        E 0 92 21 7f
        E 48 82 21 00
        E 48 b2 0b 7f
        E 0 92 21 7f
        E 192 82 21 00
        E 192 b2 0b 7f
        E 0 92 26 7f
        E 48 82 26 00
        E 48 b2 0b 7f
        E 0 92 23 7f
        E 48 82 23 00
        E 48 b2 0b 7f
        E 0 92 23 7f
        E 48 82 23 00
        E 48 b2 0b 7f
        E 0 92 28 7f
        E 48 82 28 00
        E 48 b2 0b 7f
        E 0 92 28 7f
        E 48 82 28 00
        E 48 b2 0b 7f
        E 0 92 21 7f
        E 48 82 21 00
        E 48 b2 0b 7f
        E 0 92 21 7f
        E 48 82 21 00
        E 48 b2 0b 7f
        E 0 92 23 7f
        E 48 82 23 00
        E 48 b2 0b 7f
        E 0 92 1b 7f
        E 48 82 1b 00
        E 48 b2 0b 7f
        E 0 92 1e 7f
        E 48 82 1e 00
        E 48 b2 0b 7f
        E 0 92 28 7f
        E 48 82 28 00
        E 48 b2 0b 7f
        E 0 92 21 7f
        E 48 82 21 00
        E 48 b2 0b 7f
        E 0 92 21 7f
        E 192 82 21 00
        E 192 b2 0b 7f
        E 0 92 26 7f
        E 48 82 26 00
        E 48 b2 0b 7f
        E 0 92 23 7f
        E 48 82 23 00
        E 48 b2 0b 7f
        E 0 92 1b 7f
        E 48 82 1b 00
        E 48 b2 0b 7f
        E 0 92 1c 7f
        E 48 82 1c 00
        E 48 b2 0b 7f
        E 0 92 1c 7f
        E 48 82 1c 00
        E 48 b2 0b 7f
        E 0 92 1e 7f
        E 48 82 1e 00
        E 48 b2 0b 7f
        E 0 92 28 7f
        E 48 82 28 00
        E 48 b2 0b 7f
        E 0 92 23 7f
        E 48 82 23 00
        E 48 b2 0b 7f
        E 0 92 1b 7f
        E 48 82 1b 00
        E 48 b2 0b 7f
        E 0 92 1e 7f
        E 48 82 1e 00
        E 48 b2 0b 7f
        E 0 92 28 7f
        E 48 82 28 00
        E 48 b2 0b 7f
        E 0 92 21 7f
        E 48 82 21 00
        E 48 b2 0b 7f
        E 0 92 21 7f
        E 192 82 21 00
        E 192 b2 0b 7f
        E 0 92 26 7f
        E 48 82 26 00
        E 48 b2 0b 7f
        E 0 92 23 7f
        E 48 82 23 00
        E 48 b2 0b 7f
        E 0 92 23 7f
        E 48 82 23 00
        E 48 b2 0b 7f
        E 0 92 28 7f
        E 48 82 28 00
        E 48 b2 0b 7f
        E 0 92 28 7f
        E 48 82 28 00
        E 48 b2 0b 7f
        E 0 92 21 7f
        E 48 82 21 00
        E 48 b2 0b 7f
        E 0 92 21 7f
        E 48 82 21 00
        E 48 b2 0b 7f
        E 0 92 23 7f
        E 48 82 23 00
        E 48 b2 0b 7f
        E 0 92 1b 7f
        E 48 82 1b 00
        E 48 b2 0b 7f
        E 0 92 1e 7f
        E 48 82 1e 00
        E 48 b2 0b 7f
        E 0 92 28 7f
        E 48 82 28 00
        E 48 b2 0b 7f
        E 0 92 21 7f
        E 48 82 21 00
        E 48 b2 0b 7f
        E 0 92 21 7f
        E 192 82 21 00
        E 192 b2 0b 7f
        E 0 92 26 7f
        E 48 82 26 00
        E 48 b2 0b 7f
        E 0 92 23 7f
        E 48 82 23 00
        E 48 b2 0b 7f
        E 0 92 1b 7f
        E 48 82 1b 00
        E 48 b2 0b 7f
        E 0 92 1c 7f
        E 48 82 1c 00
        E 48 b2 0b 7f
        E 0 92 1c 7f
        E 48 82 1c 00
        E 48 b2 0b 7f
        E 0 92 1e 7f
        E 48 82 1e 00
        E 48 b2 0b 7f
        E 0 92 28 7f
        E 48 82 28 00
        E 48 b2 0b 7f
        E 0 92 23 7f
        E 48 82 23 00
        E 48 b2 0b 7f
        E 0 92 1b 7f
        E 48 82 1b 00
        E 48 b2 0b 7f
        E 0 92 1e 7f
        E 48 82 1e 00
        E 48 b2 0b 7f
        E 0 92 28 7f
        E 48 82 28 00
        E 48 b2 0b 7f
        E 0 92 21 7f
        E 48 82 21 00
        E 48 b2 0b 7f
        E 0 92 21 7f
        E 192 82 21 00
        E 192 b2 0b 7f
        E 0 92 26 7f
        E 48 82 26 00
        E 48 b2 0b 7f
        E 0 92 23 7f
        E 48 82 23 00
        E 48 b2 0b 7f
        E 0 92 23 7f
        E 48 82 23 00
        E 48 b2 0b 7f
        E 0 92 28 7f
        E 48 82 28 00
        E 48 b2 0b 7f
        E 0 92 28 7f
        E 48 82 28 00
        E 48 b2 0b 7f
        E 0 92 21 7f
        E 48 82 21 00
        E 48 b2 0b 7f
        E 0 92 1a 7f
        E 48 82 1a 00
        E 48 b2 0b 7f
        E 0 92 1f 7f
        E 48 82 1f 00
        E 48 b2 0b 7f
        E 0 92 29 7f
        E 48 82 29 00
        E 48 b2 0b 7f
        E 0 92 26 7f
        E 48 82 26 00
        E 48 b2 0b 7f
        E 0 92 1d 7f
        E 48 82 1d 00
        E 48 b2 0b 7f
        E 0 92 1f 7f
        E 48 82 1f 00
        E 48 b2 0b 7f
        E 0 92 29 7f
        E 192 82 29 00
        E 192 b2 0b 7f
        E 0 92 2b 7f
        E 48 82 2b 00
        E 48 b2 0b 7f
        E 0 92 26 7f
        E 48 82 26 00
        E 48 b2 0b 7f
        E 0 92 1d 7f
        E 48 82 1d 00
        E 48 b2 0b 7f
        E 0 92 1f 7f
        E 48 82 1f 00
        E 48 b2 0b 7f
        E 0 92 29 7f
        E 48 82 29 00
        E 48 b2 0b 7f
        E 0 92 26 7f
        E 48 82 26 00
        E 48 b2 0b 7f
        E 0 92 26 7f
        E 48 82 26 00
        E 48 b2 0b 7f
        E 0 92 21 7f
        E 48 82 21 00
        E 48 b2 0b 7f
        E 0 92 21 7f
        E 48 82 21 00
        E 48 b2 0b 7f
        E 0 92 28 7f
        E 48 82 28 00
        E 48 b2 0b 7f
        E 0 92 28 7f
        E 48 82 28 00
        E 48 b2 0b 7f
        E 0 92 21 7f
        E 48 82 21 00
        E 48 b2 0b 7f
        E 0 92 2d 7f
        E 192 82 2d 00
        E 192 b2 0b 7f
        E 0 92 21 7f
        E 48 82 21 00
        E 48 b2 0b 7f
        E 0 92 28 7f
        E 48 82 28 00
        E 48 b2 0b 7f
        E 0 92 28 7f
        E 48 82 28 00
        E 48 b2 0b 7f
        E 0 92 21 7f
        E 48 82 21 00
        E 48 b2 0b 7f
        E 0 92 21 7f
        E 48 82 21 00
        E 48 b2 0b 7f
        E 0 92 28 7f
        E 48 82 28 00
        E 48 b2 0b 7f
        E 0 92 28 7f
        E 48 82 28 00
        E 48 b2 0b 7f
        E 0 92 23 7f
        E 48 82 23 00
        E 48 b2 0b 7f
        E 0 92 1b 7f
        E 48 82 1b 00
        E 48 b2 0b 7f
        E 0 92 1e 7f
        E 48 82 1e 00
        E 48 b2 0b 7f
        E 0 92 28 7f
        E 48 82 28 00
        E 48 b2 0b 7f
        E 0 92 21 7f
        E 48 82 21 00
        E 48 b2 0b 7f
        E 0 92 21 7f
        E 192 82 21 00
        E 192 b2 0b 7f
        E 0 92 26 7f
        E 48 82 26 00
        E 48 b2 0b 7f
        E 0 92 23 7f
        E 48 82 23 00
        E 48 b2 0b 7f
        E 0 92 1b 7f
        E 48 82 1b 00
        E 48 b2 0b 7f
        E 0 92 1c 7f
        E 48 82 1c 00
        E 48 b2 0b 7f
        E 0 92 1c 7f
        E 48 82 1c 00
        E 48 b2 0b 7f
        E 0 92 1e 7f
        E 48 82 1e 00
        E 48 b2 0b 7f
        E 0 92 28 7f
        E 48 82 28 00
        E 48 b2 0b 7f
        E 0 92 23 7f
        E 48 82 23 00
        E 48 b2 0b 7f
        E 0 92 1b 7f
        E 48 82 1b 00
        E 48 b2 0b 7f
        E 0 92 1e 7f
        E 48 82 1e 00
        E 48 b2 0b 7f
        E 0 92 28 7f
        E 48 82 28 00
        E 48 b2 0b 7f
        E 0 92 21 7f
        E 48 82 21 00
        E 48 b2 0b 7f
        E 0 92 21 7f
        E 192 82 21 00
        E 192 b2 0b 7f
        E 0 92 26 7f
        E 48 82 26 00
        E 48 b2 0b 7f
        E 0 92 23 7f
        E 48 82 23 00
        E 48 b2 0b 7f
        E 0 92 23 7f
        E 48 82 23 00
        E 48 b2 0b 7f
        E 0 92 28 7f
        E 48 82 28 00
        E 48 b2 0b 7f
        E 0 92 28 7f
        E 48 82 28 00
        E 48 b2 0b 7f
        E 0 92 21 7f
        E 48 82 21 00
        E 48 b2 0b 7f
        E 0 92 1a 7f
        E 48 82 1a 00
        E 48 b2 0b 7f
        E 0 92 1f 7f
        E 48 82 1f 00
        E 48 b2 0b 7f
        E 0 92 29 7f
        E 48 82 29 00
        E 48 b2 0b 7f
        E 0 92 26 7f
        E 48 82 26 00
        E 48 b2 0b 7f
        E 0 92 1d 7f
        E 48 82 1d 00
        E 48 b2 0b 7f
        E 0 92 1f 7f
        E 48 82 1f 00
        E 48 b2 0b 7f
        E 0 92 29 7f
        E 192 82 29 00
        E 192 b2 0b 7f
        E 0 92 2b 7f
        E 48 82 2b 00
        E 48 b2 0b 7f
        E 0 92 26 7f
        E 48 82 26 00
        E 48 b2 0b 7f
        E 0 92 1d 7f
        E 48 82 1d 00
        E 48 b2 0b 7f
        E 0 92 1f 7f
        E 48 82 1f 00
        E 48 b2 0b 7f
        E 0 92 29 7f
        E 48 82 29 00
        E 48 b2 0b 7f
        E 0 92 26 7f
        E 48 82 26 00
        E 48 b2 0b 7f
        E 0 92 26 7f
        E 48 82 26 00
        E 48 b2 0b 7f
        E 0 92 21 7f
        E 48 82 21 00
        E 48 b2 0b 7f
        E 0 92 21 7f
        E 48 82 21 00
        E 48 b2 0b 7f
        E 0 92 28 7f
        E 48 82 28 00
        E 48 b2 0b 7f
        E 0 92 28 7f
        E 48 82 28 00
        E 48 b2 0b 7f
        E 0 92 21 7f
        E 48 82 21 00
        E 48 b2 0b 7f
        E 0 92 2d 7f
        E 192 82 2d 00
        E 192 b2 0b 7f
        E 0 92 21 7f
        E 48 82 21 00
        E 48 b2 0b 7f
        E 0 92 28 7f
        E 48 82 28 00
        E 48 b2 0b 7f
        E 0 92 28 7f
        E 48 82 28 00
        E 48 b2 0b 7f
        E 0 92 21 7f
        E 48 82 21 00
        E 48 b2 0b 7f
        E 0 92 1a 7f
        E 48 82 1a 00
        E 48 b2 0b 7f
        E 0 92 1c 7f
        E 48 82 1c 00
        E 48 b2 0b 7f
        E 0 92 1c 7f
        E 48 82 1c 00
        E 48 b2 0b 7f
        E 0 92 1e 7f
        E 48 82 1e 00
        E 144 b2 0b 7f
        E 0 92 28 7f
        E 48 82 28 00
        E 48 b2 0b 7f
        E 0 92 2a 7f
        E 48 82 2a 00
        E 144 b2 0b 7f
        E 0 92 1f 7f
        E 48 82 1f 00
        E 48 b2 0b 7f
        E 0 92 1e 7f
        E 48 82 1e 00
        E 240 b2 0b 7f
        E 0 92 1e 7f
        E 96 82 1e 00
        E 96 b2 0b 7f
        E 0 92 1e 7f
        E 96 82 1e 00
        E 288 b2 0b 7f
        E 0 92 1e 7f
        E 64 82 1e 00
        E 192 b2 0b 7f
        E 0 92 1e 7f
        E 64 82 1e 00
        E 192 b2 0b 7f
        E 0 92 1e 7f
        E 64 82 1e 00
        E 448 b2 0b 7f
        E 0 92 28 7f
        E 320 82 28 00
        E 192 b2 0b 7f
        E 0 92 2a 7f
        E 64 82 2a 00
        E 32 b2 0b 7f
        E 0 92 23 7f
        E 64 82 23 00
        E 32 b2 0b 7f
        E 0 92 23 7f
        E 64 82 23 00
        E 32 b2 0b 7f
        E 0 92 23 7f
        E 64 82 23 00
        E 32 b2 0b 7f
        E 0 92 23 7f
        E 64 82 23 00
        E 32 b2 0b 7f
        E 0 92 2a 7f
        E 64 82 2a 00
        E 32 b2 0b 7f
        E 0 92 23 7f
        E 64 82 23 00
        E 32 b2 0b 7f
        E 0 92 23 7f
        E 64 82 23 00
        E 32 b2 0b 7f
        E 0 92 31 7f
        E 64 82 31 00
        E 32 b2 0b 7f
        E 0 92 22 7f
        E 64 82 22 00
        E 32 b2 0b 7f
        E 0 92 23 7f
        E 64 82 23 00
        E 32 b2 0b 7f
        E 0 92 23 7f
        E 64 82 23 00
        E 32 b2 0b 7f
        E 0 92 23 7f
        E 64 82 23 00
        E 32 b2 0b 7f
        E 0 92 23 7f
        E 64 82 23 00
        E 32 b2 0b 7f
        E 0 92 23 7f
        E 64 82 23 00
        E 32 b2 0b 7f
        E 0 92 2a 7f
        E 64 82 2a 00
        E 32 b2 0b 7f
        E 0 92 1b 7f
        E 64 82 1b 00
        E 32 b2 0b 7f
        E 0 92 1f 7f
        E 64 82 1f 00
        E 32 b2 0b 7f
        E 0 92 1f 7f
        E 64 82 1f 00
        E 32 b2 0b 7f
        E 0 92 1f 7f
        E 64 82 1f 00
        E 32 b2 0b 7f
        E 0 92 29 7f
        E 64 82 29 00
        E 32 b2 0b 7f
        E 0 92 1d 7f
        E 64 82 1d 00
        E 32 b2 0b 7f
        E 0 92 1f 7f
        E 64 82 1f 00
        E 32 b2 0b 7f
        E 0 92 1f 7f
        E 64 82 1f 00
        E 32 b2 0b 7f
        E 0 92 29 7f
        E 64 82 29 00
        E 32 b2 0b 7f
        E 0 92 20 7f
        E 64 82 20 00
        E 32 b2 0b 7f
        E 0 92 1f 7f
        E 64 82 1f 00
        E 32 b2 0b 7f
        E 0 92 1f 7f
        E 64 82 1f 00
        E 32 b2 0b 7f
        E 0 92 1f 7f
        E 64 82 1f 00
        E 32 b2 0b 7f
        E 0 92 1f 7f
        E 64 82 1f 00
        E 32 b2 0b 7f
        E 0 92 29 7f
        E 64 82 29 00
        E 32 b2 0b 7f
        E 0 92 1d 7f
        E 64 82 1d 00
        E 32 b2 0b 7f
        E 0 92 1f 7f
        E 64 82 1f 00
        E 32 b2 0b 7f
        E 0 92 1c 7f
        E 64 82 1c 00
        E 32 b2 0b 7f
        E 0 92 1c 7f
        E 64 82 1c 00
        E 32 b2 0b 7f
        E 0 92 1c 7f
        E 64 82 1c 00
        E 32 b2 0b 7f
        E 0 92 24 7f
        E 64 82 24 00
        E 32 b2 0b 7f
        E 0 92 1b 7f
        E 64 82 1b 00
        E 32 b2 0b 7f
        E 0 92 1c 7f
        E 64 82 1c 00
        E 32 b2 0b 7f
        E 0 92 1c 7f
        E 64 82 1c 00
        E 32 b2 0b 7f
        E 0 92 24 7f
        E 64 82 24 00
        E 32 b2 0b 7f
        E 0 92 1e 7f
        E 64 82 1e 00
        E 32 b2 0b 7f
        E 0 92 1c 7f
        E 64 82 1c 00
        E 32 b2 0b 7f
        E 0 92 1c 7f
        E 64 82 1c 00
        E 32 b2 0b 7f
        E 0 92 1c 7f
        E 64 82 1c 00
        E 32 b2 0b 7f
        E 0 92 1c 7f
        E 64 82 1c 00
        E 32 b2 0b 7f
        E 0 92 24 7f
        E 64 82 24 00
        E 32 b2 0b 7f
        E 0 92 1b 7f
        E 64 82 1b 00
        E 32 b2 0b 7f
        E 0 92 1c 7f
        E 64 82 1c 00
        E 32 b2 0b 7f
        E 0 92 1f 7f
        E 64 82 1f 00
        E 32 b2 0b 7f
        E 0 92 1f 7f
        E 64 82 1f 00
        E 32 b2 0b 7f
        E 0 92 1f 7f
        E 64 82 1f 00
        E 32 b2 0b 7f
        E 0 92 29 7f
        E 64 82 29 00
        E 32 b2 0b 7f
        E 0 92 1d 7f
        E 64 82 1d 00
        E 32 b2 0b 7f
        E 0 92 1f 7f
        E 64 82 1f 00
        E 32 b2 0b 7f
        E 0 92 1f 7f
        E 64 82 1f 00
        E 32 b2 0b 7f
        E 0 92 29 7f
        E 64 82 29 00
        E 32 b2 0b 7f
        E 0 92 20 7f
        E 64 82 20 00
        E 32 b2 0b 7f
        E 0 92 1f 7f
        E 64 82 1f 00
        E 32 b2 0b 7f
        E 0 92 1f 7f
        E 64 82 1f 00
        E 32 b2 0b 7f
        E 0 92 1f 7f
        E 64 82 1f 00
        E 32 b2 0b 7f
        E 0 92 1f 7f
        E 64 82 1f 00
        E 32 b2 0b 7f
        E 0 92 29 7f
        E 64 82 29 00
        E 32 b2 0b 7f
        E 0 92 1d 7f
        E 64 82 1d 00
        E 0 b2 7b 00
        E 0 ff 2f 00
      >
    >
  >
  <TRACK {756DA8D3-05BB-45F4-8547-6F95DF14B429}
    NAME "NES - Noise / Drums [ch3]"
    PEAKCOL 11184810
    BEAT -1
    AUTOMODE 0
    PANLAWFLAGS 3
    VOLPAN 1 0 -1 -1 1
    MUTESOLO 0 0 0
    IPHASE 0
    PLAYOFFS 0 1
    ISBUS 0 0
    BUSCOMP 0 0 0 0 0
    SHOWINMIX 1 0.6667 0.5 1 0.5 0 0 0
    FIXEDLANES 9 0 0 0 0
    SEL 0
    REC 0 5088 1 0 0 0 0 0
    VU 2
    TRACKHEIGHT 0 0 0 0 0 0 0
    INQ 0 0 0 0.5 100 0 0 100
    NCHAN 2
    FX 1
    TRACKID {756DA8D3-05BB-45F4-8547-6F95DF14B429}
    PERF 0
    MIDIOUT -1
    MAINSEND 1 0
    <FXCHAIN
      WNDRECT 24 52 700 560
      SHOW 0
      LASTSEL 0
      DOCKED 0
      BYPASS 0 0 0
      <JS "ReapNES Studio/ReapNES_Console.jsfx" ""
        2 15 1 10 80 10 100 2 1 15 1 5 60 10 80 1 1 0 50 0 0 15 1 0 100 0 0 0.500000 0.500000 0.400000 0.300000 0.800000 3 1 0 0 0 0 - - - - - - - - - - - - - - - - - - - - - - - - - -
      >
      FLOATPOS 0 0 0 0
      FXID {4DD13BE5-EC71-4B8B-A0AC-26225A33E7FA}
      WAK 0 0
    >
    <ITEM
      POSITION 0
      LENGTH 71.61742050000001
      LOOP 0
      ALLTAKES 0
      FADEIN 0 0 0 0 0 0 0
      FADEOUT 0 0 0 0 0 0 0
      MUTE 0 0
      SEL 0
      IGUID {CC74382E-5409-45F1-BC45-781DA96A2F16}
      <SOURCE MIDI
        HASDATA 1 480 QN
        CCINTERP 32
        E 22016 93 2a 4c
        E 288 83 2a 00
        E 736 93 2a 4c
        E 288 83 2a 00
        E 736 93 2a 4c
        E 288 83 2a 00
        E 736 93 2a 4c
        E 288 83 2a 00
        E 736 93 2a 4c
        E 288 83 2a 00
        E 736 93 2a 4c
        E 288 83 2a 00
        E 736 93 2a 4c
        E 288 83 2a 00
        E 736 93 2a 4c
        E 288 83 2a 00
        E 736 93 2a 4c
        E 288 83 2a 00
        E 224 93 2a 4c
        E 288 83 2a 00
        E 224 93 2a 4c
        E 288 83 2a 00
        E 224 93 2a 4c
        E 288 83 2a 00
        E 224 93 2a 4c
        E 288 83 2a 00
        E 272 93 2a 4c
        E 288 83 2a 00
        E 320 93 2a 4c
        E 288 83 2a 00
        E 368 93 2a 4c
        E 288 83 2a 00
        E 8624 93 2a 4c
        E 96 83 2a 00
        E 16 93 2a 4c
        E 80 83 2a 00
        E 16 93 2a 4c
        E 80 83 2a 00
        E 16 93 2a 4c
        E 80 83 2a 00
        E 0 93 2a 4c
        E 288 83 2a 00
        E 96 93 2a 4c
        E 96 83 2a 00
        E 112 93 2a 4c
        E 80 83 2a 00
        E 112 93 2a 4c
        E 80 83 2a 00
        E 16 93 2a 4c
        E 80 83 2a 00
        E 16 93 2a 4c
        E 80 83 2a 00
        E 16 93 2a 4c
        E 80 83 2a 00
        E 16 93 2a 4c
        E 80 83 2a 00
        E 112 93 2a 4c
        E 80 83 2a 00
        E 112 93 2a 4c
        E 80 83 2a 00
        E 16 93 2a 4c
        E 80 83 2a 00
        E 16 93 2a 4c
        E 80 83 2a 00
        E 16 93 2a 4c
        E 80 83 2a 00
        E 16 93 2a 4c
        E 80 83 2a 00
        E 16 93 2a 4c
        E 80 83 2a 00
        E 16 93 2a 4c
        E 80 83 2a 00
        E 16 93 2a 4c
        E 80 83 2a 00
        E 16 93 2a 4c
        E 80 83 2a 00
        E 16 93 2a 4c
        E 80 83 2a 00
        E 0 93 2a 4c
        E 192 83 2a 00
        E 0 93 2a 4c
        E 96 83 2a 00
        E 16 93 2a 4c
        E 80 83 2a 00
        E 16 93 2a 4c
        E 80 83 2a 00
        E 16 93 2a 4c
        E 80 83 2a 00
        E 0 93 2a 4c
        E 288 83 2a 00
        E 96 93 2a 4c
        E 96 83 2a 00
        E 112 93 2a 4c
        E 80 83 2a 00
        E 112 93 2a 4c
        E 80 83 2a 00
        E 16 93 2a 4c
        E 80 83 2a 00
        E 16 93 2a 4c
        E 80 83 2a 00
        E 16 93 2a 4c
        E 80 83 2a 00
        E 16 93 2a 4c
        E 80 83 2a 00
        E 112 93 2a 4c
        E 80 83 2a 00
        E 112 93 2a 4c
        E 80 83 2a 00
        E 16 93 2a 4c
        E 80 83 2a 00
        E 16 93 2a 4c
        E 80 83 2a 00
        E 16 93 2a 4c
        E 80 83 2a 00
        E 16 93 2a 4c
        E 80 83 2a 00
        E 16 93 2a 4c
        E 80 83 2a 00
        E 16 93 2a 4c
        E 80 83 2a 00
        E 16 93 2a 4c
        E 80 83 2a 00
        E 16 93 2a 4c
        E 80 83 2a 00
        E 16 93 2a 4c
        E 80 83 2a 00
        E 0 93 2a 4c
        E 192 83 2a 00
        E 0 93 2a 4c
        E 96 83 2a 00
        E 16 93 2a 4c
        E 80 83 2a 00
        E 16 93 2a 4c
        E 80 83 2a 00
        E 16 93 2a 4c
        E 80 83 2a 00
        E 0 93 2a 4c
        E 288 83 2a 00
        E 96 93 2a 4c
        E 96 83 2a 00
        E 112 93 2a 4c
        E 80 83 2a 00
        E 112 93 2a 4c
        E 80 83 2a 00
        E 16 93 2a 4c
        E 80 83 2a 00
        E 16 93 2a 4c
        E 80 83 2a 00
        E 16 93 2a 4c
        E 80 83 2a 00
        E 16 93 2a 4c
        E 80 83 2a 00
        E 112 93 2a 4c
        E 80 83 2a 00
        E 112 93 2a 4c
        E 80 83 2a 00
        E 16 93 2a 4c
        E 80 83 2a 00
        E 16 93 2a 4c
        E 80 83 2a 00
        E 16 93 2a 4c
        E 80 83 2a 00
        E 16 93 2a 4c
        E 80 83 2a 00
        E 16 93 2a 4c
        E 80 83 2a 00
        E 16 93 2a 4c
        E 80 83 2a 00
        E 16 93 2a 4c
        E 80 83 2a 00
        E 16 93 2a 4c
        E 80 83 2a 00
        E 16 93 2a 4c
        E 80 83 2a 00
        E 0 93 2a 4c
        E 192 83 2a 00
        E 0 93 2a 4c
        E 96 83 2a 00
        E 16 93 2a 4c
        E 80 83 2a 00
        E 16 93 2a 4c
        E 80 83 2a 00
        E 16 93 2a 4c
        E 80 83 2a 00
        E 0 93 2a 4c
        E 288 83 2a 00
        E 96 93 2a 4c
        E 96 83 2a 00
        E 112 93 2a 4c
        E 80 83 2a 00
        E 112 93 2a 4c
        E 80 83 2a 00
        E 16 93 2a 4c
        E 80 83 2a 00
        E 16 93 2a 4c
        E 80 83 2a 00
        E 16 93 2a 4c
        E 80 83 2a 00
        E 16 93 2a 4c
        E 80 83 2a 00
        E 112 93 2a 4c
        E 80 83 2a 00
        E 112 93 2a 4c
        E 80 83 2a 00
        E 16 93 2a 4c
        E 80 83 2a 00
        E 16 93 2a 4c
        E 80 83 2a 00
        E 16 93 2a 4c
        E 80 83 2a 00
        E 16 93 2a 4c
        E 80 83 2a 00
        E 16 93 2a 4c
        E 80 83 2a 00
        E 16 93 2a 4c
        E 80 83 2a 00
        E 16 93 2a 4c
        E 80 83 2a 00
        E 16 93 2a 4c
        E 80 83 2a 00
        E 16 93 2a 4c
        E 80 83 2a 00
        E 0 93 2a 4c
        E 192 83 2a 00
        E 0 93 2a 4c
        E 96 83 2a 00
        E 16 93 2a 4c
        E 80 83 2a 00
        E 16 93 2a 4c
        E 80 83 2a 00
        E 16 93 2a 4c
        E 80 83 2a 00
        E 0 93 2a 4c
        E 288 83 2a 00
        E 96 93 2a 4c
        E 96 83 2a 00
        E 112 93 2a 4c
        E 80 83 2a 00
        E 112 93 2a 4c
        E 80 83 2a 00
        E 16 93 2a 4c
        E 80 83 2a 00
        E 16 93 2a 4c
        E 80 83 2a 00
        E 16 93 2a 4c
        E 80 83 2a 00
        E 16 93 2a 4c
        E 80 83 2a 00
        E 112 93 2a 4c
        E 80 83 2a 00
        E 112 93 2a 4c
        E 80 83 2a 00
        E 16 93 2a 4c
        E 80 83 2a 00
        E 16 93 2a 4c
        E 80 83 2a 00
        E 16 93 2a 4c
        E 80 83 2a 00
        E 16 93 2a 4c
        E 80 83 2a 00
        E 16 93 2a 4c
        E 80 83 2a 00
        E 16 93 2a 4c
        E 80 83 2a 00
        E 16 93 2a 4c
        E 80 83 2a 00
        E 16 93 2a 4c
        E 80 83 2a 00
        E 16 93 2a 4c
        E 80 83 2a 00
        E 0 93 2a 4c
        E 192 83 2a 00
        E 0 93 2a 4c
        E 96 83 2a 00
        E 16 93 2a 4c
        E 80 83 2a 00
        E 16 93 2a 4c
        E 80 83 2a 00
        E 16 93 2a 4c
        E 80 83 2a 00
        E 0 93 2a 4c
        E 288 83 2a 00
        E 96 93 2a 4c
        E 96 83 2a 00
        E 112 93 2a 4c
        E 80 83 2a 00
        E 112 93 2a 4c
        E 80 83 2a 00
        E 16 93 2a 4c
        E 80 83 2a 00
        E 16 93 2a 4c
        E 80 83 2a 00
        E 16 93 2a 4c
        E 80 83 2a 00
        E 16 93 2a 4c
        E 80 83 2a 00
        E 112 93 2a 4c
        E 80 83 2a 00
        E 112 93 2a 4c
        E 80 83 2a 00
        E 16 93 2a 4c
        E 80 83 2a 00
        E 16 93 2a 4c
        E 80 83 2a 00
        E 16 93 2a 4c
        E 80 83 2a 00
        E 16 93 2a 4c
        E 80 83 2a 00
        E 16 93 2a 4c
        E 80 83 2a 00
        E 16 93 2a 4c
        E 80 83 2a 00
        E 16 93 2a 4c
        E 80 83 2a 00
        E 16 93 2a 4c
        E 80 83 2a 00
        E 16 93 2a 4c
        E 80 83 2a 00
        E 0 93 2a 4c
        E 192 83 2a 00
        E 0 93 2a 4c
        E 96 83 2a 00
        E 16 93 2a 4c
        E 80 83 2a 00
        E 16 93 2a 4c
        E 80 83 2a 00
        E 16 93 2a 4c
        E 80 83 2a 00
        E 0 93 2a 4c
        E 288 83 2a 00
        E 96 93 2a 4c
        E 96 83 2a 00
        E 112 93 2a 4c
        E 80 83 2a 00
        E 112 93 2a 4c
        E 80 83 2a 00
        E 16 93 2a 4c
        E 80 83 2a 00
        E 16 93 2a 4c
        E 80 83 2a 00
        E 16 93 2a 4c
        E 80 83 2a 00
        E 16 93 2a 4c
        E 80 83 2a 00
        E 112 93 2a 4c
        E 80 83 2a 00
        E 112 93 2a 4c
        E 80 83 2a 00
        E 16 93 2a 4c
        E 80 83 2a 00
        E 16 93 2a 4c
        E 80 83 2a 00
        E 16 93 2a 4c
        E 80 83 2a 00
        E 16 93 2a 4c
        E 80 83 2a 00
        E 16 93 2a 4c
        E 80 83 2a 00
        E 16 93 2a 4c
        E 80 83 2a 00
        E 16 93 2a 4c
        E 80 83 2a 00
        E 16 93 2a 4c
        E 80 83 2a 00
        E 16 93 2a 4c
        E 80 83 2a 00
        E 0 93 2a 4c
        E 192 83 2a 00
        E 0 93 2a 4c
        E 96 83 2a 00
        E 16 93 2a 4c
        E 80 83 2a 00
        E 96 93 2a 4c
        E 96 83 2a 00
        E 16 93 2a 4c
        E 80 83 2a 00
        E 96 93 2a 4c
        E 96 83 2a 00
        E 16 93 2a 4c
        E 80 83 2a 00
        E 192 93 2a 4c
        E 384 83 2a 00
        E 192 93 2a 4c
        E 768 83 2a 00
        E 768 93 2a 4c
        E 96 83 2a 00
        E 16 93 2a 4c
        E 80 83 2a 00
        E 16 93 2a 4c
        E 80 83 2a 00
        E 16 93 2a 4c
        E 80 83 2a 00
        E 0 93 2a 4c
        E 288 83 2a 00
        E 96 93 2a 4c
        E 96 83 2a 00
        E 16 93 2a 4c
        E 80 83 2a 00
        E 16 93 2a 4c
        E 80 83 2a 00
        E 16 93 2a 4c
        E 80 83 2a 00
        E 0 93 2a 4c
        E 384 83 2a 00
        E 0 93 2a 4c
        E 96 83 2a 00
        E 16 93 2a 4c
        E 80 83 2a 00
        E 16 93 2a 4c
        E 80 83 2a 00
        E 16 93 2a 4c
        E 80 83 2a 00
        E 0 93 2a 4c
        E 288 83 2a 00
        E 96 93 2a 4c
        E 96 83 2a 00
        E 16 93 2a 4c
        E 80 83 2a 00
        E 16 93 2a 4c
        E 80 83 2a 00
        E 16 93 2a 4c
        E 80 83 2a 00
        E 0 93 2a 4c
        E 384 83 2a 00
        E 0 93 2a 4c
        E 96 83 2a 00
        E 16 93 2a 4c
        E 80 83 2a 00
        E 16 93 2a 4c
        E 80 83 2a 00
        E 16 93 2a 4c
        E 80 83 2a 00
        E 0 93 2a 4c
        E 288 83 2a 00
        E 96 93 2a 4c
        E 96 83 2a 00
        E 16 93 2a 4c
        E 80 83 2a 00
        E 16 93 2a 4c
        E 80 83 2a 00
        E 16 93 2a 4c
        E 80 83 2a 00
        E 0 93 2a 4c
        E 384 83 2a 00
        E 1504 b3 7b 00
        E 0 ff 2f 00
      >
    >
  >
>