<REAPER_PROJECT 0.1 "7.27/win64" 1707000000
  <NOTES 0 2
    |ReapNES Studio Project
    |MIDI Import - Journey_to_Silius_title_rom_v1
  >
  RIPPLE 0
  GROUPOVERRIDE 0 0 0
  AUTOXFADE 129
  ENVATTACH 3
  POOLEDENVATTACH 0
  MIXERUIFLAGS 11 48
  ENVFADESZ10 40
  PEAKGAIN 1
  FEEDBACK 0
  PANLAW 1
  PROJOFFS 0 0 0
  MAXPROJLEN 0 0
  GRID 3199 8 1 8 1 0 0 0
  TIMEMODE 1 5 -1 30 0 0 -1
  VIDEO_CONFIG 0 0 65792
  PANMODE 3
  PANLAWFLAGS 3
  CURSOR 0
  ZOOM 100 0 0
  VZOOMEX 6 0
  USE_REC_CFG 0
  RECMODE 1
  SMPTESYNC 0 30 100 40 1000 300 0 0 1 0 0
  LOOP 0
  LOOPGRAN 0 4
  RECORD_PATH "Media" ""
  <RECORD_CFG
    ZXZhdxgAAQ==
  >
  <APPLYFX_CFG
  >
  RENDER_FILE ""
  RENDER_PATTERN ""
  RENDER_FMT 0 2 0
  RENDER_1X 0
  RENDER_RANGE 1 0 0 18 1000
  RENDER_RESAMPLE 3 0 1
  RENDER_ADDTOPROJ 0
  RENDER_STEMS 0
  RENDER_DITHER 0
  TIMELOCKMODE 1
  TEMPOENVLOCKMODE 1
  ITEMMIX 1
  DEFPITCHMODE 589824 0
  TAKELANE 1
  SAMPLERATE 44100 0 0
  <RENDER_CFG
    ZXZhdxgAAQ==
  >
  LOCK 1
  <METRONOME 6 2
    VOL 0.25 0.125
    BEATLEN 4
    FREQ 1760 880 1
    SAMPLES "" ""
    SPLIGNORE 0 0
    SPLDEF 2 660 "" 0
    SPLDEF 3 440 "" 0
    PATTERN 0 169
    PATTERNSTR ABBB
    MULT 1
  >
  GLOBAL_AUTO -1
  TEMPO 128.59999614200012 4 4
  PLAYRATE 1 0 0.25 4
  SELECTION 0 0
  SELECTION2 0 0
  MASTERAUTOMODE 0
  MASTERTRACKHEIGHT 0 0
  MASTERPEAKCOL 16576
  MASTERMUTESOLO 0
  MASTERTRACKVIEW 0 0.6667 0.5 0.5 0 0 0 0 0 0 0 0 0 0
  MASTERHWOUT 0 0 1 0 0 0 0 -1
  MASTER_NCH 2 2
  MASTER_VOLUME 1 0 -1 -1 1
  MASTER_PANMODE 3
  MASTER_PANLAWFLAGS 3
  MASTER_FX 1
  MASTER_SEL 0
  <MASTERPLAYSPEEDENV
    EGUID {541759E9-50A3-48CE-9CC7-ACBE511BC844}
    ACT 0 -1
    VIS 0 1 1
    LANEHEIGHT 0 0
    ARM 0
    DEFSHAPE 0 -1 -1
  >
  <TEMPOENVEX
    EGUID {934FDBCE-B068-4000-AEE7-4167F3D51C04}
    ACT 1 -1
    VIS 1 0 1
    LANEHEIGHT 0 0
    ARM 0
    DEFSHAPE 1 -1 -1
  >
  <PROJBAY
  >
  <TRACK {F7361E67-FEF7-4DF0-BE65-98A9B93505AF}
    NAME "NES - Pulse 1 [ch0]"
    PEAKCOL 16576606
    BEAT -1
    AUTOMODE 0
    PANLAWFLAGS 3
    VOLPAN 1 0 -1 -1 1
    MUTESOLO 0 0 0
    IPHASE 0
    PLAYOFFS 0 1
    ISBUS 0 0
    BUSCOMP 0 0 0 0 0
    SHOWINMIX 1 0.6667 0.5 1 0.5 0 0 0
    FIXEDLANES 9 0 0 0 0
    SEL 1
    REC 1 5088 1 0 0 0 0 0
    VU 2
    TRACKHEIGHT 0 0 0 0 0 0 0
    INQ 0 0 0 0.5 100 0 0 100
    NCHAN 2
    FX 1
    TRACKID {F7361E67-FEF7-4DF0-BE65-98A9B93505AF}
    PERF 0
    MIDIOUT -1
    MAINSEND 1 0
    <FXCHAIN
      WNDRECT 24 52 700 560
      SHOW 0
      LASTSEL 0
      DOCKED 0
      BYPASS 0 0 0
      <JS "ReapNES Studio/ReapNES_Console.jsfx" ""
        2 15 1 10 80 10 100 2 1 15 1 5 60 10 80 1 1 0 50 0 0 15 1 0 100 0 0 0.500000 0.500000 0.400000 0.300000 0.800000 0 1 0 0 0 0 - - - - - - - - - - - - - - - - - - - - - - - - - -
      >
      FLOATPOS 0 0 0 0
      FXID {1C13C24A-E5A4-466D-92E0-BA084EE6E0CC}
      WAK 0 0
    >
    <ITEM
      POSITION 0
      LENGTH 74.63452790000001
      LOOP 0
      ALLTAKES 0
      FADEIN 0 0 0 0 0 0 0
      FADEOUT 0 0 0 0 0 0 0
      MUTE 0 0
      SEL 0
      IGUID {93489F71-95E8-413F-A148-E14FEE97AC1C}
      <SOURCE MIDI
        HASDATA 1 480 QN
        CCINTERP 32
        E 0 c0 50
        E 0 b0 0c 20
        E 0 b0 0b 19
        E 0 90 39 19
        E 160 80 39 00
        E 0 90 30 19
        E 160 80 30 00
        E 0 90 33 19
        E 160 80 33 00
        E 0 90 30 19
        E 16 80 30 00
        E 0 90 35 19
        E 32 80 35 00
        E 0 90 36 19
        E 272 80 36 00
        E 0 90 37 19
        E 160 b0 0c 10
        E 0 b0 0b 22
        E 0 80 37 00
        E 0 90 2b 22
        E 16 b0 0b 33
        E 16 b0 0b 4c
        E 16 b0 0b 44
        E 80 b0 0c 40
        E 0 b0 0b 7f
        E 0 80 2b 00
        E 0 90 35 7f
        E 64 80 35 00
        E 0 90 4c 7f
        E 64 80 4c 00
        E 0 90 39 7f
        E 64 b0 0b 4c
        E 0 80 39 00
        E 0 90 30 4c
        E 64 80 30 00
        E 0 90 4c 4c
        E 64 80 4c 00
        E 0 90 39 4c
        E 64 b0 0b 33
        E 0 80 39 00
        E 0 90 30 33
        E 64 80 30 00
        E 0 90 4c 33
        E 64 80 4c 00
        E 0 90 39 33
        E 64 b0 0b 19
        E 0 80 39 00
        E 0 90 30 19
        E 64 80 30 00
        E 0 90 4c 19
        E 64 80 4c 00
        E 0 90 39 19
        E 64 b0 0b 08
        E 0 80 39 00
        E 0 90 30 08
        E 64 80 30 00
        E 0 90 4c 08
        E 64 80 4c 00
        E 0 90 39 08
        E 64 80 39 00
        E 7008 b0 0c 10
        E 0 b0 0b 44
        E 0 90 25 44
        E 16 b0 0b 66
        E 0 80 25 00
        E 0 90 22 66
        E 16 b0 0b 6e
        E 0 80 22 00
        E 0 90 23 6e
        E 16 b0 0b 66
        E 16 b0 0b 5d
        E 0 80 23 00
        E 0 90 2c 5d
        E 32 b0 0b 55
        E 32 b0 0b 4c
        E 32 b0 0b 44
        E 32 b0 0b 3b
        E 1984 80 2c 00
        E 0 90 27 3b
        E 2048 b0 0b 44
        E 0 80 27 00
        E 0 90 22 44
        E 16 b0 0b 66
        E 16 b0 0b 6e
        E 16 b0 0b 66
        E 16 b0 0b 5d
        E 32 b0 0b 55
        E 32 b0 0b 4c
        E 32 b0 0b 44
        E 32 b0 0b 3b
        E 336 b0 0b 08
        E 16 b0 0b 2a
        E 16 b0 0b 22
        E 16 b0 0b 19
        E 16 b0 0b 11
        E 112 b0 0b 44
        E 0 80 22 00
        E 0 90 25 44
        E 16 b0 0b 66
        E 16 b0 0b 6e
        E 16 b0 0b 66
        E 16 b0 0b 5d
        E 32 b0 0b 55
        E 32 b0 0b 4c
        E 32 b0 0b 44
        E 32 b0 0b 3b
        E 336 b0 0b 08
        E 16 b0 0b 2a
        E 16 b0 0b 22
        E 16 b0 0b 19
        E 16 b0 0b 11
        E 112 b0 0b 44
        E 0 80 25 00
        E 0 90 23 44
        E 16 b0 0b 66
        E 0 80 23 00
        E 0 90 22 66
        E 16 b0 0b 6e
        E 0 80 22 00
        E 0 90 23 6e
        E 16 b0 0b 66
        E 16 b0 0b 5d
        E 0 80 23 00
        E 0 90 2c 5d
        E 32 b0 0b 55
        E 32 b0 0b 4c
        E 32 b0 0b 44
        E 32 b0 0b 3b
        E 1984 80 2c 00
        E 0 90 27 3b
        E 1344 b0 0b 44
        E 16 b0 0b 66
        E 16 b0 0b 6e
        E 16 b0 0b 66
        E 16 b0 0b 5d
        E 32 b0 0b 55
        E 32 b0 0b 4c
        E 32 b0 0b 44
        E 32 b0 0b 3b
        E 336 b0 0b 08
        E 16 b0 0b 2a
        E 16 b0 0b 22
        E 16 b0 0b 19
        E 16 b0 0b 11
        E 112 b0 0b 44
        E 0 80 27 00
        E 0 90 2a 44
        E 16 b0 0b 66
        E 16 b0 0b 6e
        E 16 b0 0b 66
        E 16 b0 0b 5d
        E 32 b0 0b 55
        E 32 b0 0b 4c
        E 32 b0 0b 44
        E 32 b0 0b 3b
        E 336 b0 0b 08
        E 16 b0 0b 2a
        E 16 b0 0b 22
        E 16 b0 0b 19
        E 16 b0 0b 11
        E 112 b0 0b 44
        E 0 80 2a 00
        E 0 90 23 44
        E 16 b0 0b 66
        E 16 b0 0b 6e
        E 16 b0 0b 66
        E 16 b0 0b 5d
        E 32 b0 0b 55
        E 32 b0 0b 4c
        E 32 b0 0b 44
        E 32 b0 0b 3b
        E 336 b0 0b 08
        E 16 b0 0b 2a
        E 16 b0 0b 22
        E 16 b0 0b 19
        E 16 b0 0b 11
        E 112 b0 0b 44
        E 0 80 23 00
        E 0 90 2c 44
        E 16 b0 0b 66
        E 16 b0 0b 6e
        E 16 b0 0b 66
        E 16 b0 0b 5d
        E 32 b0 0b 55
        E 32 b0 0b 4c
        E 32 b0 0b 44
        E 32 b0 0b 3b
        E 1216 80 2c 00
        E 0 90 27 3b
        E 2816 b0 0b 44
        E 0 80 27 00
        E 0 90 22 44
        E 16 b0 0b 66
        E 16 b0 0b 6e
        E 16 b0 0b 66
        E 16 b0 0b 5d
        E 32 b0 0b 55
        E 32 b0 0b 4c
        E 32 b0 0b 44
        E 32 b0 0b 3b
        E 336 b0 0b 08
        E 16 b0 0b 2a
        E 16 b0 0b 22
        E 16 b0 0b 19
        E 16 b0 0b 11
        E 112 b0 0b 44
        E 0 80 22 00
        E 0 90 25 44
        E 16 b0 0b 66
        E 16 b0 0b 6e
        E 16 b0 0b 66
        E 16 b0 0b 5d
        E 32 b0 0b 55
        E 32 b0 0b 4c
        E 32 b0 0b 44
        E 32 b0 0b 3b
        E 336 b0 0b 08
        E 16 b0 0b 2a
        E 16 b0 0b 22
        E 16 b0 0b 19
        E 16 b0 0b 11
        E 112 b0 0b 44
        E 0 80 25 00
        E 0 90 23 44
        E 16 b0 0b 66
        E 0 80 23 00
        E 0 90 22 66
        E 16 b0 0b 6e
        E 0 80 22 00
        E 0 90 23 6e
        E 16 b0 0b 66
        E 16 b0 0b 5d
        E 0 80 23 00
        E 0 90 2c 5d
        E 32 b0 0b 55
        E 32 b0 0b 4c
        E 32 b0 0b 44
        E 32 b0 0b 3b
        E 1984 80 2c 00
        E 0 90 27 3b
        E 2048 b0 0b 44
        E 0 80 27 00
        E 0 90 22 44
        E 16 b0 0b 66
        E 16 b0 0b 6e
        E 16 b0 0b 66
        E 16 b0 0b 5d
        E 32 b0 0b 55
        E 32 b0 0b 4c
        E 32 b0 0b 44
        E 32 b0 0b 3b
        E 336 b0 0b 08
        E 16 b0 0b 2a
        E 16 b0 0b 22
        E 16 b0 0b 19
        E 16 b0 0b 11
        E 112 b0 0b 44
        E 0 80 22 00
        E 0 90 25 44
        E 16 b0 0b 66
        E 16 b0 0b 6e
        E 16 b0 0b 66
        E 16 b0 0b 5d
        E 32 b0 0b 55
        E 32 b0 0b 4c
        E 32 b0 0b 44
        E 32 b0 0b 3b
        E 336 b0 0b 08
        E 16 b0 0b 2a
        E 16 b0 0b 22
        E 16 b0 0b 19
        E 16 b0 0b 11
        E 112 b0 0b 44
        E 0 80 25 00
        E 0 90 23 44
        E 16 b0 0b 66
        E 0 80 23 00
        E 0 90 22 66
        E 16 b0 0b 6e
        E 0 80 22 00
        E 0 90 23 6e
        E 16 b0 0b 66
        E 16 b0 0b 5d
        E 0 80 23 00
        E 0 90 2c 5d
        E 32 b0 0b 55
        E 32 b0 0b 4c
        E 32 b0 0b 44
        E 32 b0 0b 3b
        E 1984 80 2c 00
        E 0 90 27 3b
        E 1344 b0 0b 44
        E 16 b0 0b 66
        E 16 b0 0b 6e
        E 16 b0 0b 66
        E 16 b0 0b 5d
        E 32 b0 0b 55
        E 32 b0 0b 4c
        E 32 b0 0b 44
        E 32 b0 0b 3b
        E 336 b0 0b 08
        E 16 b0 0b 2a
        E 16 b0 0b 22
        E 16 b0 0b 19
        E 16 b0 0b 11
        E 112 b0 0b 44
        E 0 80 27 00
        E 0 90 2a 44
        E 16 b0 0b 66
        E 16 b0 0b 6e
        E 16 b0 0b 66
        E 16 b0 0b 5d
        E 32 b0 0b 55
        E 32 b0 0b 4c
        E 32 b0 0b 44
        E 32 b0 0b 3b
        E 336 b0 0b 08
        E 16 b0 0b 2a
        E 16 b0 0b 22
        E 16 b0 0b 19
        E 16 b0 0b 11
        E 112 b0 0b 44
        E 0 80 2a 00
        E 0 90 23 44
        E 16 b0 0b 66
        E 16 b0 0b 6e
        E 16 b0 0b 66
        E 16 b0 0b 5d
        E 32 b0 0b 55
        E 32 b0 0b 4c
        E 32 b0 0b 44
        E 32 b0 0b 3b
        E 336 b0 0b 08
        E 16 b0 0b 2a
        E 16 b0 0b 22
        E 16 b0 0b 19
        E 16 b0 0b 11
        E 112 b0 0b 44
        E 0 80 23 00
        E 0 90 2c 44
        E 16 b0 0b 66
        E 16 b0 0b 6e
        E 16 b0 0b 66
        E 16 b0 0b 5d
        E 32 b0 0b 55
        E 32 b0 0b 4c
        E 32 b0 0b 44
        E 32 b0 0b 3b
        E 1216 80 2c 00
        E 0 90 27 3b
        E 2816 b0 0b 44
        E 0 80 27 00
        E 0 90 22 44
        E 16 b0 0b 66
        E 16 b0 0b 6e
        E 16 b0 0b 66
        E 16 b0 0b 5d
        E 32 b0 0b 55
        E 32 b0 0b 4c
        E 32 b0 0b 44
        E 32 b0 0b 3b
        E 336 b0 0b 08
        E 16 b0 0b 2a
        E 16 b0 0b 22
        E 16 b0 0b 19
        E 16 b0 0b 11
        E 112 b0 0b 44
        E 0 80 22 00
        E 0 90 25 44
        E 16 b0 0b 66
        E 16 b0 0b 6e
        E 16 b0 0b 66
        E 16 b0 0b 5d
        E 32 b0 0b 55
        E 32 b0 0b 4c
        E 32 b0 0b 44
        E 32 b0 0b 3b
        E 336 b0 0b 08
        E 16 b0 0b 2a
        E 16 b0 0b 22
        E 16 b0 0b 19
        E 16 b0 0b 11
        E 112 b0 0b 44
        E 0 80 25 00
        E 0 90 23 44
        E 16 b0 0b 66
        E 0 80 23 00
        E 0 90 22 66
        E 16 b0 0b 6e
        E 0 80 22 00
        E 0 90 23 6e
        E 16 b0 0b 66
        E 16 b0 0b 5d
        E 0 80 23 00
        E 0 90 2c 5d
        E 32 b0 0b 55
        E 32 b0 0b 4c
        E 32 b0 0b 44
        E 32 b0 0b 3b
        E 1984 80 2c 00
        E 0 90 27 3b
        E 1344 b0 0b 44
        E 16 b0 0b 66
        E 16 b0 0b 6e
        E 16 b0 0b 66
        E 16 b0 0b 5d
        E 32 b0 0b 55
        E 32 b0 0b 4c
        E 32 b0 0b 44
        E 32 b0 0b 3b
        E 336 b0 0b 08
        E 16 b0 0b 2a
        E 16 b0 0b 22
        E 16 b0 0b 19
        E 16 b0 0b 11
        E 112 b0 0b 44
        E 0 80 27 00
        E 0 90 2a 44
        E 16 b0 0b 66
        E 16 b0 0b 6e
        E 16 b0 0b 66
        E 16 b0 0b 5d
        E 32 b0 0b 55
        E 32 b0 0b 4c
        E 32 b0 0b 44
        E 32 b0 0b 3b
        E 336 b0 0b 08
        E 16 b0 0b 2a
        E 16 b0 0b 22
        E 16 b0 0b 19
        E 16 b0 0b 11
        E 112 b0 0b 44
        E 0 80 2a 00
        E 0 90 23 44
        E 16 b0 0b 66
        E 16 b0 0b 6e
        E 16 b0 0b 66
        E 16 b0 0b 5d
        E 32 b0 0b 55
        E 32 b0 0b 4c
        E 32 b0 0b 44
        E 32 b0 0b 3b
        E 336 b0 0b 08
        E 16 b0 0b 2a
        E 16 b0 0b 22
        E 16 b0 0b 19
        E 16 b0 0b 11
        E 112 b0 0b 44
        E 0 80 23 00
        E 0 90 25 44
        E 16 b0 0b 66
        E 0 80 25 00
        E 0 90 22 66
        E 16 b0 0b 6e
        E 0 80 22 00
        E 0 90 23 6e
        E 16 b0 0b 66
        E 16 b0 0b 5d
        E 0 80 23 00
        E 0 90 2c 5d
        E 32 b0 0b 55
        E 32 b0 0b 4c
        E 32 b0 0b 44
        E 32 b0 0b 3b
        E 1216 b0 0b 44
        E 0 80 2c 00
        E 0 90 22 44
        E 16 b0 0b 66
        E 16 b0 0b 6e
        E 0 80 22 00
        E 0 90 23 6e
        E 16 b0 0b 66
        E 16 b0 0b 5d
        E 0 80 23 00
        E 0 90 2c 5d
        E 32 b0 0b 55
        E 32 b0 0b 4c
        E 32 b0 0b 44
        E 32 b0 0b 3b
        E 1216 b0 0b 44
        E 0 80 2c 00
        E 0 90 22 44
        E 16 b0 0b 66
        E 16 b0 0b 6e
        E 0 80 22 00
        E 0 90 23 6e
        E 16 b0 0b 66
        E 16 b0 0b 5d
        E 0 80 23 00
        E 0 90 2c 5d
        E 32 b0 0b 55
        E 32 b0 0b 4c
        E 32 b0 0b 44
        E 32 b0 0b 3b
        E 1984 80 2c 00
        E 0 90 27 3b
        E 3456 b0 0c 20
        E 0 b0 0b 55
        E 32 b0 0b 4c
        E 16 b0 0b 3b
        E 16 b0 0b 2a
        E 16 b0 0b 11
        E 64 b0 0b 55
        E 0 80 27 00
        E 0 90 2a 55
        E 32 b0 0b 4c
        E 16 b0 0b 3b
        E 16 b0 0b 2a
        E 16 b0 0b 11
        E 64 b0 0b 55
        E 32 b0 0b 4c
        E 16 b0 0b 3b
        E 16 b0 0b 2a
        E 16 b0 0b 11
        E 64 b0 0b 55
        E 32 b0 0b 4c
        E 16 b0 0b 3b
        E 16 b0 0b 2a
        E 16 b0 0b 22
        E 16 b0 0b 19
        E 16 b0 0b 11
        E 176 b0 0b 55
        E 32 b0 0b 4c
        E 16 b0 0b 3b
        E 16 b0 0b 2a
        E 16 b0 0b 22
        E 16 b0 0b 19
        E 16 b0 0b 11
        E 176 b0 0b 08
        E 144 80 2a 00
        E 144 90 2a 08
        E 144 80 2a 00
        E 432 b0 0b 55
        E 0 90 2a 55
        E 32 b0 0b 4c
        E 16 b0 0b 3b
        E 16 b0 0b 2a
        E 16 b0 0b 11
        E 64 b0 0b 55
        E 32 b0 0b 4c
        E 16 b0 0b 3b
        E 16 b0 0b 2a
        E 16 b0 0b 11
        E 64 b0 0b 55
        E 32 b0 0b 4c
        E 16 b0 0b 3b
        E 16 b0 0b 2a
        E 16 b0 0b 11
        E 64 b0 0b 55
        E 32 b0 0b 4c
        E 16 b0 0b 3b
        E 16 b0 0b 2a
        E 16 b0 0b 22
        E 16 b0 0b 19
        E 16 b0 0b 11
        E 176 b0 0b 55
        E 32 b0 0b 4c
        E 16 b0 0b 3b
        E 16 b0 0b 2a
        E 16 b0 0b 22
        E 16 b0 0b 19
        E 16 b0 0b 11
        E 176 b0 0b 08
        E 144 80 2a 00
        E 144 90 2a 08
        E 144 80 2a 00
        E 432 b0 0b 55
        E 0 90 2a 55
        E 32 b0 0b 4c
        E 16 b0 0b 3b
        E 16 b0 0b 2a
        E 16 b0 0b 11
        E 64 b0 0b 55
        E 32 b0 0b 4c
        E 16 b0 0b 3b
        E 16 b0 0b 2a
        E 16 b0 0b 11
        E 64 b0 0b 55
        E 32 b0 0b 4c
        E 16 b0 0b 3b
        E 16 b0 0b 2a
        E 16 b0 0b 11
        E 64 b0 0b 55
        E 32 b0 0b 4c
        E 16 b0 0b 3b
        E 16 b0 0b 2a
        E 16 b0 0b 22
        E 16 b0 0b 19
        E 16 b0 0b 11
        E 176 b0 0b 55
        E 32 b0 0b 4c
        E 16 b0 0b 3b
        E 16 b0 0b 2a
        E 16 b0 0b 22
        E 16 b0 0b 19
        E 16 b0 0b 11
        E 176 b0 0b 08
        E 144 80 2a 00
        E 144 90 2a 08
        E 144 80 2a 00
        E 432 b0 0b 55
        E 0 90 2a 55
        E 32 b0 0b 4c
        E 16 b0 0b 3b
        E 16 b0 0b 2a
        E 16 b0 0b 11
        E 64 b0 0b 55
        E 32 b0 0b 4c
        E 16 b0 0b 3b
        E 16 b0 0b 2a
        E 16 b0 0b 11
        E 64 b0 0b 55
        E 32 b0 0b 4c
        E 16 b0 0b 3b
        E 16 b0 0b 2a
        E 16 b0 0b 11
        E 64 b0 0b 55
        E 32 b0 0b 4c
        E 16 b0 0b 3b
        E 16 b0 0b 2a
        E 16 b0 0b 22
        E 16 b0 0b 19
        E 16 b0 0b 11
        E 176 b0 0b 55
        E 32 b0 0b 4c
        E 16 b0 0b 3b
        E 16 b0 0b 2a
        E 16 b0 0b 22
        E 16 b0 0b 19
        E 16 b0 0b 11
        E 176 b0 0b 08
        E 144 80 2a 00
        E 144 90 2a 08
        E 144 80 2a 00
        E 432 b0 0b 55
        E 0 90 2a 55
        E 32 b0 0b 4c
        E 16 b0 0b 3b
        E 16 b0 0b 2a
        E 16 b0 0b 11
        E 64 b0 0b 55
        E 32 b0 0b 4c
        E 16 b0 0b 3b
        E 16 b0 0b 2a
        E 16 b0 0b 11
        E 64 b0 0b 55
        E 32 b0 0b 4c
        E 16 b0 0b 3b
        E 16 b0 0b 2a
        E 16 b0 0b 11
        E 64 b0 0b 55
        E 32 b0 0b 4c
        E 16 b0 0b 3b
        E 16 b0 0b 2a
        E 16 b0 0b 22
        E 16 b0 0b 19
        E 16 b0 0b 11
        E 176 b0 0b 08
        E 96 80 2a 00
        E 48 90 2a 08
        E 144 80 2a 00
        E 288 b0 0b 55
        E 0 90 2a 55
        E 32 b0 0b 4c
        E 16 b0 0b 3b
        E 16 b0 0b 2a
        E 16 b0 0b 11
        E 64 b0 0b 55
        E 32 b0 0b 4c
        E 16 b0 0b 3b
        E 16 b0 0b 2a
        E 16 b0 0b 11
        E 64 b0 0b 55
        E 32 b0 0b 4c
        E 16 b0 0b 3b
        E 16 b0 0b 2a
        E 16 b0 0b 11
        E 64 b0 0b 55
        E 32 b0 0b 4c
        E 16 b0 0b 3b
        E 16 b0 0b 2a
        E 16 b0 0b 22
        E 16 b0 0b 19
        E 16 b0 0b 11
        E 176 b0 0b 08
        E 96 80 2a 00
        E 48 90 2a 08
        E 144 80 2a 00
        E 288 b0 0b 55
        E 0 90 2a 55
        E 32 b0 0b 4c
        E 16 b0 0b 3b
        E 16 b0 0b 2a
        E 16 b0 0b 11
        E 64 b0 0b 55
        E 32 b0 0b 4c
        E 16 b0 0b 3b
        E 16 b0 0b 2a
        E 16 b0 0b 11
        E 64 b0 0b 55
        E 32 b0 0b 4c
        E 16 b0 0b 3b
        E 16 b0 0b 2a
        E 16 b0 0b 11
        E 64 b0 0b 55
        E 32 b0 0b 4c
        E 16 b0 0b 3b
        E 16 b0 0b 2a
        E 16 b0 0b 22
        E 16 b0 0b 19
        E 16 b0 0b 11
        E 176 b0 0b 08
        E 96 80 2a 00
        E 48 90 2a 08
        E 16 80 2a 00
        E 2560 b0 0b 22
        E 0 90 2a 22
        E 16 b0 0b 33
        E 16 b0 0b 4c
        E 16 b0 0b 44
        E 512 b0 0b 08
        E 16 b0 0b 2a
        E 16 b0 0b 22
        E 16 b0 0b 19
        E 16 b0 0b 11
        E 16 b0 0b 22
        E 0 80 2a 00
        E 0 90 35 22
        E 16 b0 0b 33
        E 16 b0 0b 4c
        E 16 b0 0b 44
        E 112 b0 0b 08
        E 16 b0 0b 2a
        E 16 b0 0b 22
        E 16 b0 0b 19
        E 16 b0 0b 11
        E 96 b0 0b 22
        E 0 80 35 00
        E 0 90 27 22
        E 16 b0 0b 33
        E 16 b0 0b 4c
        E 16 b0 0b 44
        E 32 b0 0b 08
        E 16 b0 0b 2a
        E 16 b0 0b 22
        E 16 b0 0b 19
        E 16 b0 0b 11
        E 16 b0 0b 22
        E 0 80 27 00
        E 0 90 2c 22
        E 16 b0 0b 33
        E 16 b0 0b 4c
        E 16 b0 0b 44
        E 352 b0 0b 08
        E 16 b0 0b 2a
        E 16 b0 0b 22
        E 16 b0 0b 19
        E 16 b0 0b 11
        E 16 b0 0b 22
        E 0 80 2c 00
        E 0 90 2b 22
        E 16 b0 0b 33
        E 16 b0 0b 4c
        E 16 b0 0b 44
        E 112 b0 0b 08
        E 16 b0 0b 2a
        E 16 b0 0b 22
        E 16 b0 0b 19
        E 16 b0 0b 11
        E 96 b0 0b 22
        E 0 80 2b 00
        E 0 90 35 22
        E 16 b0 0b 33
        E 16 b0 0b 4c
        E 16 b0 0b 44
        E 112 b0 0b 08
        E 16 b0 0b 2a
        E 16 b0 0b 22
        E 16 b0 0b 19
        E 16 b0 0b 11
        E 96 b0 0b 22
        E 0 80 35 00
        E 0 90 27 22
        E 16 b0 0b 33
        E 16 b0 0b 4c
        E 16 b0 0b 44
        E 32 b0 0b 08
        E 16 b0 0b 2a
        E 16 b0 0b 22
        E 16 b0 0b 19
        E 16 b0 0b 11
        E 16 b0 0b 22
        E 0 80 27 00
        E 0 90 2c 22
        E 16 b0 0b 33
        E 16 b0 0b 4c
        E 16 b0 0b 44
        E 352 b0 0b 08
        E 16 b0 0b 2a
        E 16 b0 0b 22
        E 16 b0 0b 19
        E 16 b0 0b 11
        E 16 b0 0b 22
        E 0 80 2c 00
        E 0 90 2b 22
        E 16 b0 0b 33
        E 16 b0 0b 4c
        E 16 b0 0b 44
        E 112 b0 0b 08
        E 16 b0 0b 2a
        E 16 b0 0b 22
        E 16 b0 0b 19
        E 16 b0 0b 11
        E 96 b0 0b 22
        E 0 80 2b 00
        E 0 90 35 22
        E 16 b0 0b 33
        E 16 b0 0b 4c
        E 16 b0 0b 44
        E 112 b0 0b 08
        E 16 b0 0b 2a
        E 16 b0 0b 22
        E 16 b0 0b 19
        E 16 b0 0b 11
        E 96 b0 0b 22
        E 0 80 35 00
        E 0 90 27 22
        E 16 b0 0b 33
        E 16 b0 0b 4c
        E 16 b0 0b 44
        E 32 b0 0b 08
        E 16 b0 0b 2a
        E 16 b0 0b 22
        E 16 b0 0b 19
        E 16 b0 0b 11
        E 16 b0 0b 22
        E 0 80 27 00
        E 0 90 2c 22
        E 16 b0 0b 33
        E 16 b0 0b 4c
        E 16 b0 0b 44
        E 352 b0 0b 08
        E 16 b0 0b 2a
        E 16 b0 0b 22
        E 16 b0 0b 19
        E 16 b0 0b 11
        E 16 b0 0b 22
        E 0 80 2c 00
        E 0 90 2b 22
        E 16 b0 0b 33
        E 16 b0 0b 4c
        E 16 b0 0b 44
        E 192 b0 0b 08
        E 16 b0 0b 2a
        E 16 b0 0b 22
        E 16 b0 0b 19
        E 16 b0 0b 11
        E 16 b0 0b 22
        E 0 80 2b 00
        E 0 90 35 22
        E 16 b0 0b 33
        E 16 b0 0b 4c
        E 16 b0 0b 44
        E 32 b0 0b 08
        E 16 b0 0b 2a
        E 16 b0 0b 22
        E 16 b0 0b 19
        E 16 b0 0b 11
        E 16 b0 0b 22
        E 0 80 35 00
        E 0 90 30 22
        E 16 b0 0b 33
        E 16 b0 0b 4c
        E 16 b0 0b 44
        E 352 b0 0b 08
        E 16 b0 0b 2a
        E 16 b0 0b 22
        E 16 b0 0b 19
        E 16 b0 0b 11
        E 16 b0 0b 22
        E 0 80 30 00
        E 0 90 28 22
        E 16 b0 0b 33
        E 16 b0 0b 4c
        E 16 b0 0b 44
        E 512 b0 0b 08
        E 16 b0 0b 2a
        E 16 b0 0b 22
        E 16 b0 0b 19
        E 16 b0 0b 11
        E 16 b0 0b 22
        E 0 80 28 00
        E 0 90 35 22
        E 16 b0 0b 33
        E 16 b0 0b 4c
        E 16 b0 0b 44
        E 112 b0 0b 08
        E 16 b0 0b 2a
        E 16 b0 0b 22
        E 16 b0 0b 19
        E 16 b0 0b 11
        E 96 b0 0b 22
        E 0 80 35 00
        E 0 90 27 22
        E 16 b0 0b 33
        E 16 b0 0b 4c
        E 16 b0 0b 44
        E 32 b0 0b 08
        E 16 b0 0b 2a
        E 16 b0 0b 22
        E 16 b0 0b 19
        E 16 b0 0b 11
        E 16 b0 0b 22
        E 0 80 27 00
        E 0 90 2c 22
        E 16 b0 0b 33
        E 16 b0 0b 4c
        E 16 b0 0b 44
        E 48 80 2c 00
        E 0 b0 7b 00
        E 0 ff 2f 00
      >
    >
  >
  <TRACK {F2218D1D-8C68-4890-A717-44C0E258203E}
    NAME "NES - Pulse 2 [ch1]"
    PEAKCOL 10092441
    BEAT -1
    AUTOMODE 0
    PANLAWFLAGS 3
    VOLPAN 1 0 -1 -1 1
    MUTESOLO 0 0 0
    IPHASE 0
    PLAYOFFS 0 1
    ISBUS 0 0
    BUSCOMP 0 0 0 0 0
    SHOWINMIX 1 0.6667 0.5 1 0.5 0 0 0
    FIXEDLANES 9 0 0 0 0
    SEL 0
    REC 0 5088 1 0 0 0 0 0
    VU 2
    TRACKHEIGHT 0 0 0 0 0 0 0
    INQ 0 0 0 0.5 100 0 0 100
    NCHAN 2
    FX 1
    TRACKID {F2218D1D-8C68-4890-A717-44C0E258203E}
    PERF 0
    MIDIOUT -1
    MAINSEND 1 0
    <FXCHAIN
      WNDRECT 24 52 700 560
      SHOW 0
      LASTSEL 0
      DOCKED 0
      BYPASS 0 0 0
      <JS "ReapNES Studio/ReapNES_Console.jsfx" ""
        2 15 1 10 80 10 100 2 1 15 1 5 60 10 80 1 1 0 50 0 0 15 1 0 100 0 0 0.500000 0.500000 0.400000 0.300000 0.800000 1 1 0 0 0 0 - - - - - - - - - - - - - - - - - - - - - - - - - -
      >
      FLOATPOS 0 0 0 0
      FXID {3B4FB7DD-B7B6-47E7-9AAA-05A5B825A39D}
      WAK 0 0
    >
    <ITEM
      POSITION 0
      LENGTH 74.63452790000001
      LOOP 0
      ALLTAKES 0
      FADEIN 0 0 0 0 0 0 0
      FADEOUT 0 0 0 0 0 0 0
      MUTE 0 0
      SEL 0
      IGUID {051C77E1-BBE2-48EA-A082-0BDF560FA919}
      <SOURCE MIDI
        HASDATA 1 480 QN
        CCINTERP 32
        E 0 c1 51
        E 0 b1 0c 20
        E 0 b1 0b 22
        E 0 91 33 22
        E 16 b1 0b 33
        E 16 b1 0b 4c
        E 16 b1 0b 44
        E 32 b1 0b 08
        E 16 b1 0b 2a
        E 16 b1 0b 22
        E 16 b1 0b 19
        E 16 b1 0b 11
        E 16 b1 0b 22
        E 0 81 33 00
        E 0 91 30 22
        E 16 b1 0b 33
        E 0 81 30 00
        E 0 91 35 33
        E 16 b1 0b 4c
        E 16 b1 0b 44
        E 0 81 35 00
        E 0 91 36 44
        E 240 b1 0b 3b
        E 32 b1 0b 22
        E 0 81 36 00
        E 0 91 37 22
        E 16 b1 0b 33
        E 16 b1 0b 4c
        E 16 b1 0b 44
        E 32 b1 0b 08
        E 16 b1 0b 2a
        E 16 b1 0b 22
        E 16 b1 0b 19
        E 16 b1 0b 11
        E 16 b1 0b 22
        E 0 81 37 00
        E 0 91 35 22
        E 16 b1 0b 33
        E 16 b1 0b 4c
        E 16 b1 0b 44
        E 192 b1 0b 08
        E 16 b1 0b 2a
        E 16 b1 0b 22
        E 16 b1 0b 19
        E 16 b1 0b 11
        E 16 b1 0b 22
        E 0 81 35 00
        E 0 91 33 22
        E 16 b1 0b 33
        E 16 b1 0b 4c
        E 16 b1 0b 44
        E 80 81 33 00
        E 2336 b1 0b 08
        E 0 91 1a 08
        E 48 b1 0b 11
        E 16 b1 0b 19
        E 16 b1 0b 22
        E 16 b1 0b 2a
        E 16 b1 0b 3b
        E 32 b1 0b 44
        E 16 b1 0b 4c
        E 320 b1 0b 44
        E 240 b1 0b 3b
        E 240 b1 0b 33
        E 240 b1 0b 2a
        E 32 b1 0b 11
        E 176 b1 0b 08
        E 0 81 1a 00
        E 0 91 23 08
        E 48 b1 0b 11
        E 16 b1 0b 19
        E 16 b1 0b 22
        E 16 b1 0b 2a
        E 16 b1 0b 3b
        E 32 b1 0b 44
        E 16 b1 0b 4c
        E 320 b1 0b 44
        E 240 b1 0b 3b
        E 240 b1 0b 33
        E 240 b1 0b 2a
        E 32 b1 0b 11
        E 176 b1 0b 08
        E 0 81 23 00
        E 0 91 22 08
        E 48 b1 0b 11
        E 16 b1 0b 19
        E 16 b1 0b 22
        E 16 b1 0b 2a
        E 16 b1 0b 3b
        E 32 b1 0b 44
        E 16 b1 0b 4c
        E 16 b1 0b 11
        E 176 b1 0b 08
        E 0 81 22 00
        E 0 91 1f 08
        E 48 b1 0b 11
        E 16 b1 0b 19
        E 16 b1 0b 22
        E 16 b1 0b 2a
        E 16 b1 0b 3b
        E 32 b1 0b 44
        E 16 b1 0b 4c
        E 320 b1 0b 44
        E 240 b1 0b 3b
        E 240 b1 0b 33
        E 240 b1 0b 2a
        E 240 b1 0b 22
        E 240 b1 0b 19
        E 240 b1 0b 11
        E 240 b1 0b 08
        E 128 b1 0b 11
        E 176 b1 0b 08
        E 0 81 1f 00
        E 0 91 1b 08
        E 48 b1 0b 11
        E 16 b1 0b 19
        E 16 b1 0b 22
        E 16 b1 0b 2a
        E 16 b1 0b 3b
        E 32 b1 0b 44
        E 16 b1 0b 4c
        E 320 b1 0b 44
        E 240 b1 0b 3b
        E 240 b1 0b 33
        E 240 b1 0b 2a
        E 32 b1 0b 11
        E 176 b1 0b 08
        E 0 81 1b 00
        E 0 91 23 08
        E 48 b1 0b 11
        E 16 b1 0b 19
        E 16 b1 0b 22
        E 16 b1 0b 2a
        E 16 b1 0b 3b
        E 32 b1 0b 44
        E 16 b1 0b 4c
        E 320 b1 0b 44
        E 240 b1 0b 3b
        E 240 b1 0b 33
        E 240 b1 0b 2a
        E 32 b1 0b 11
        E 176 b1 0b 08
        E 0 81 23 00
        E 0 91 22 08
        E 48 b1 0b 11
        E 16 b1 0b 19
        E 16 b1 0b 22
        E 16 b1 0b 2a
        E 16 b1 0b 3b
        E 32 b1 0b 44
        E 16 b1 0b 4c
        E 16 b1 0b 11
        E 176 b1 0b 08
        E 0 81 22 00
        E 0 91 1f 08
        E 48 b1 0b 11
        E 16 b1 0b 19
        E 16 b1 0b 22
        E 16 b1 0b 2a
        E 16 b1 0b 3b
        E 32 b1 0b 44
        E 16 b1 0b 4c
        E 320 b1 0b 44
        E 240 b1 0b 3b
        E 240 b1 0b 33
        E 240 b1 0b 2a
        E 240 b1 0b 22
        E 240 b1 0b 19
        E 240 b1 0b 11
        E 240 b1 0b 08
        E 128 b1 0b 11
        E 176 b1 0b 08
        E 0 81 1f 00
        E 0 91 1b 08
        E 48 b1 0b 11
        E 16 b1 0b 19
        E 16 b1 0b 22
        E 16 b1 0b 2a
        E 16 b1 0b 3b
        E 32 b1 0b 44
        E 16 b1 0b 4c
        E 320 b1 0b 44
        E 240 b1 0b 3b
        E 240 b1 0b 33
        E 240 b1 0b 2a
        E 32 b1 0b 11
        E 176 b1 0b 08
        E 0 81 1b 00
        E 0 91 23 08
        E 48 b1 0b 11
        E 16 b1 0b 19
        E 16 b1 0b 22
        E 16 b1 0b 2a
        E 16 b1 0b 3b
        E 32 b1 0b 44
        E 16 b1 0b 4c
        E 320 b1 0b 44
        E 240 b1 0b 3b
        E 240 b1 0b 33
        E 240 b1 0b 2a
        E 32 b1 0b 11
        E 176 b1 0b 08
        E 0 81 23 00
        E 0 91 22 08
        E 48 b1 0b 11
        E 16 b1 0b 19
        E 16 b1 0b 22
        E 16 b1 0b 2a
        E 16 b1 0b 3b
        E 32 b1 0b 44
        E 16 b1 0b 4c
        E 16 b1 0b 11
        E 176 b1 0b 08
        E 0 81 22 00
        E 0 91 1f 08
        E 48 b1 0b 11
        E 16 b1 0b 19
        E 16 b1 0b 22
        E 16 b1 0b 2a
        E 16 b1 0b 3b
        E 32 b1 0b 44
        E 16 b1 0b 4c
        E 320 b1 0b 44
        E 240 b1 0b 3b
        E 240 b1 0b 33
        E 240 b1 0b 2a
        E 240 b1 0b 22
        E 240 b1 0b 19
        E 240 b1 0b 11
        E 240 b1 0b 08
        E 128 b1 0b 11
        E 176 b1 0b 08
        E 0 81 1f 00
        E 0 91 1b 08
        E 48 b1 0b 11
        E 16 b1 0b 19
        E 16 b1 0b 22
        E 16 b1 0b 2a
        E 16 b1 0b 3b
        E 32 b1 0b 44
        E 16 b1 0b 4c
        E 320 b1 0b 44
        E 240 b1 0b 3b
        E 240 b1 0b 33
        E 240 b1 0b 2a
        E 32 b1 0b 11
        E 176 b1 0b 08
        E 0 81 1b 00
        E 0 91 23 08
        E 48 b1 0b 11
        E 16 b1 0b 19
        E 16 b1 0b 22
        E 16 b1 0b 2a
        E 16 b1 0b 3b
        E 32 b1 0b 44
        E 16 b1 0b 4c
        E 320 b1 0b 44
        E 240 b1 0b 3b
        E 240 b1 0b 33
        E 240 b1 0b 2a
        E 32 b1 0b 11
        E 176 b1 0b 08
        E 0 81 23 00
        E 0 91 22 08
        E 48 b1 0b 11
        E 16 b1 0b 19
        E 16 b1 0b 22
        E 16 b1 0b 2a
        E 16 b1 0b 3b
        E 32 b1 0b 44
        E 16 b1 0b 4c
        E 16 b1 0b 11
        E 176 b1 0b 08
        E 0 81 22 00
        E 0 91 1f 08
        E 48 b1 0b 11
        E 16 b1 0b 19
        E 16 b1 0b 22
        E 16 b1 0b 2a
        E 16 b1 0b 3b
        E 32 b1 0b 44
        E 16 b1 0b 4c
        E 320 b1 0b 44
        E 240 b1 0b 3b
        E 240 b1 0b 33
        E 240 b1 0b 2a
        E 240 b1 0b 22
        E 240 b1 0b 19
        E 240 b1 0b 11
        E 240 b1 0b 08
        E 128 b1 0b 11
        E 176 b1 0b 08
        E 0 81 1f 00
        E 0 91 1b 08
        E 48 b1 0b 11
        E 16 b1 0b 19
        E 16 b1 0b 22
        E 16 b1 0b 2a
        E 16 b1 0b 3b
        E 32 b1 0b 44
        E 16 b1 0b 4c
        E 320 b1 0b 44
        E 240 b1 0b 3b
        E 240 b1 0b 33
        E 240 b1 0b 2a
        E 32 b1 0b 11
        E 176 b1 0b 08
        E 0 81 1b 00
        E 0 91 23 08
        E 48 b1 0b 11
        E 16 b1 0b 19
        E 16 b1 0b 22
        E 16 b1 0b 2a
        E 16 b1 0b 3b
        E 32 b1 0b 44
        E 16 b1 0b 4c
        E 320 b1 0b 44
        E 240 b1 0b 3b
        E 240 b1 0b 33
        E 240 b1 0b 2a
        E 32 b1 0b 11
        E 176 b1 0b 08
        E 0 81 23 00
        E 0 91 22 08
        E 48 b1 0b 11
        E 16 b1 0b 19
        E 16 b1 0b 22
        E 16 b1 0b 2a
        E 16 b1 0b 3b
        E 32 b1 0b 44
        E 16 b1 0b 4c
        E 16 b1 0b 11
        E 176 b1 0b 08
        E 0 81 22 00
        E 0 91 1f 08
        E 48 b1 0b 11
        E 16 b1 0b 19
        E 16 b1 0b 22
        E 16 b1 0b 2a
        E 16 b1 0b 3b
        E 32 b1 0b 44
        E 16 b1 0b 4c
        E 320 b1 0b 44
        E 240 b1 0b 3b
        E 240 b1 0b 33
        E 240 b1 0b 2a
        E 240 b1 0b 22
        E 240 b1 0b 19
        E 240 b1 0b 11
        E 240 b1 0b 08
        E 128 b1 0b 11
        E 176 b1 0b 08
        E 0 81 1f 00
        E 0 91 1b 08
        E 48 b1 0b 11
        E 16 b1 0b 19
        E 16 b1 0b 22
        E 16 b1 0b 2a
        E 16 b1 0b 3b
        E 32 b1 0b 44
        E 16 b1 0b 4c
        E 320 b1 0b 44
        E 240 b1 0b 3b
        E 240 b1 0b 33
        E 240 b1 0b 2a
        E 32 b1 0b 11
        E 176 b1 0b 08
        E 0 81 1b 00
        E 0 91 23 08
        E 48 b1 0b 11
        E 16 b1 0b 19
        E 16 b1 0b 22
        E 16 b1 0b 2a
        E 16 b1 0b 3b
        E 32 b1 0b 44
        E 16 b1 0b 4c
        E 320 b1 0b 44
        E 240 b1 0b 3b
        E 240 b1 0b 33
        E 240 b1 0b 2a
        E 32 b1 0b 11
        E 176 b1 0b 08
        E 0 81 23 00
        E 0 91 22 08
        E 48 b1 0b 11
        E 16 b1 0b 19
        E 16 b1 0b 22
        E 16 b1 0b 2a
        E 16 b1 0b 3b
        E 32 b1 0b 44
        E 16 b1 0b 4c
        E 16 b1 0b 11
        E 176 b1 0b 08
        E 0 81 22 00
        E 0 91 1f 08
        E 48 b1 0b 11
        E 16 b1 0b 19
        E 16 b1 0b 22
        E 16 b1 0b 2a
        E 16 b1 0b 3b
        E 32 b1 0b 44
        E 16 b1 0b 4c
        E 320 b1 0b 44
        E 240 b1 0b 3b
        E 240 b1 0b 33
        E 240 b1 0b 2a
        E 240 b1 0b 22
        E 240 b1 0b 19
        E 240 b1 0b 11
        E 240 b1 0b 08
        E 128 b1 0b 11
        E 176 b1 0b 08
        E 0 81 1f 00
        E 0 91 1b 08
        E 48 b1 0b 11
        E 16 b1 0b 19
        E 16 b1 0b 22
        E 16 b1 0b 2a
        E 16 b1 0b 3b
        E 32 b1 0b 44
        E 16 b1 0b 4c
        E 320 b1 0b 44
        E 240 b1 0b 3b
        E 240 b1 0b 33
        E 240 b1 0b 2a
        E 32 b1 0b 11
        E 176 b1 0b 08
        E 0 81 1b 00
        E 0 91 23 08
        E 48 b1 0b 11
        E 16 b1 0b 19
        E 16 b1 0b 22
        E 16 b1 0b 2a
        E 16 b1 0b 3b
        E 32 b1 0b 44
        E 16 b1 0b 4c
        E 320 b1 0b 44
        E 240 b1 0b 3b
        E 240 b1 0b 33
        E 240 b1 0b 2a
        E 32 b1 0b 11
        E 176 b1 0b 08
        E 0 81 23 00
        E 0 91 22 08
        E 48 b1 0b 11
        E 16 b1 0b 19
        E 16 b1 0b 22
        E 16 b1 0b 2a
        E 16 b1 0b 3b
        E 32 b1 0b 44
        E 16 b1 0b 4c
        E 16 b1 0b 11
        E 176 b1 0b 08
        E 0 81 22 00
        E 0 91 1f 08
        E 48 b1 0b 11
        E 16 b1 0b 19
        E 16 b1 0b 22
        E 16 b1 0b 2a
        E 16 b1 0b 3b
        E 32 b1 0b 44
        E 16 b1 0b 4c
        E 320 b1 0b 44
        E 240 b1 0b 3b
        E 240 b1 0b 33
        E 240 b1 0b 2a
        E 240 b1 0b 22
        E 240 b1 0b 19
        E 240 b1 0b 11
        E 240 b1 0b 08
        E 128 b1 0b 11
        E 176 b1 0b 08
        E 0 81 1f 00
        E 0 91 1b 08
        E 48 b1 0b 11
        E 16 b1 0b 19
        E 16 b1 0b 22
        E 16 b1 0b 2a
        E 16 b1 0b 3b
        E 32 b1 0b 44
        E 16 b1 0b 4c
        E 320 b1 0b 44
        E 240 b1 0b 3b
        E 240 b1 0b 33
        E 240 b1 0b 2a
        E 32 b1 0b 11
        E 176 b1 0b 08
        E 0 81 1b 00
        E 0 91 23 08
        E 48 b1 0b 11
        E 16 b1 0b 19
        E 16 b1 0b 22
        E 16 b1 0b 2a
        E 16 b1 0b 3b
        E 32 b1 0b 44
        E 16 b1 0b 4c
        E 320 b1 0b 44
        E 240 b1 0b 3b
        E 240 b1 0b 33
        E 240 b1 0b 2a
        E 32 b1 0b 11
        E 176 b1 0b 08
        E 0 81 23 00
        E 0 91 22 08
        E 48 b1 0b 11
        E 16 b1 0b 19
        E 16 b1 0b 22
        E 16 b1 0b 2a
        E 16 b1 0b 3b
        E 32 b1 0b 44
        E 16 b1 0b 4c
        E 16 b1 0b 11
        E 176 b1 0b 08
        E 0 81 22 00
        E 0 91 1f 08
        E 48 b1 0b 11
        E 16 b1 0b 19
        E 16 b1 0b 22
        E 16 b1 0b 2a
        E 16 b1 0b 3b
        E 32 b1 0b 44
        E 16 b1 0b 4c
        E 320 b1 0b 44
        E 240 b1 0b 3b
        E 240 b1 0b 33
        E 240 b1 0b 2a
        E 240 b1 0b 22
        E 240 b1 0b 19
        E 240 b1 0b 11
        E 240 b1 0b 08
        E 128 b1 0b 11
        E 176 b1 0b 08
        E 0 81 1f 00
        E 0 91 1b 08
        E 48 b1 0b 11
        E 16 b1 0b 19
        E 16 b1 0b 22
        E 16 b1 0b 2a
        E 16 b1 0b 3b
        E 32 b1 0b 44
        E 16 b1 0b 4c
        E 320 b1 0b 44
        E 240 b1 0b 3b
        E 240 b1 0b 33
        E 240 b1 0b 2a
        E 32 b1 0b 11
        E 176 b1 0b 08
        E 48 b1 0b 11
        E 16 b1 0b 19
        E 16 b1 0b 22
        E 16 b1 0b 2a
        E 16 b1 0b 3b
        E 32 b1 0b 44
        E 16 b1 0b 4c
        E 320 b1 0b 44
        E 240 b1 0b 3b
        E 240 b1 0b 33
        E 240 b1 0b 2a
        E 32 b1 0b 11
        E 176 b1 0b 4c
        E 2816 b1 0b 44
        E 352 b1 0b 3b
        E 352 b1 0b 33
        E 352 b1 0b 2a
        E 1408 b1 0b 22
        E 176 b1 0b 11
        E 176 b1 0b 4c
        E 0 81 1b 00
        E 0 91 31 4c
        E 16 b1 0b 44
        E 32 b1 0b 33
        E 16 b1 0b 22
        E 16 b1 0b 11
        E 64 b1 0b 4c
        E 0 81 31 00
        E 0 91 33 4c
        E 16 b1 0b 44
        E 32 b1 0b 33
        E 16 b1 0b 22
        E 16 b1 0b 11
        E 64 b1 0b 4c
        E 16 b1 0b 44
        E 32 b1 0b 33
        E 16 b1 0b 22
        E 16 b1 0b 11
        E 64 b1 0b 4c
        E 16 b1 0b 44
        E 32 b1 0b 33
        E 16 b1 0b 22
        E 16 b1 0b 19
        E 16 b1 0b 11
        E 16 b1 0b 08
        E 32 b1 0b 11
        E 144 b1 0b 4c
        E 16 b1 0b 44
        E 32 b1 0b 33
        E 16 b1 0b 22
        E 16 b1 0b 19
        E 16 b1 0b 11
        E 16 b1 0b 08
        E 32 b1 0b 11
        E 144 b1 0b 08
        E 144 81 33 00
        E 144 91 33 08
        E 144 81 33 00
        E 432 b1 0b 4c
        E 0 91 33 4c
        E 16 b1 0b 44
        E 32 b1 0b 33
        E 16 b1 0b 22
        E 16 b1 0b 11
        E 64 b1 0b 4c
        E 16 b1 0b 44
        E 32 b1 0b 33
        E 16 b1 0b 22
        E 16 b1 0b 11
        E 64 b1 0b 4c
        E 16 b1 0b 44
        E 32 b1 0b 33
        E 16 b1 0b 22
        E 16 b1 0b 11
        E 64 b1 0b 4c
        E 16 b1 0b 44
        E 32 b1 0b 33
        E 16 b1 0b 22
        E 16 b1 0b 19
        E 16 b1 0b 11
        E 16 b1 0b 08
        E 32 b1 0b 11
        E 144 b1 0b 4c
        E 16 b1 0b 44
        E 32 b1 0b 33
        E 16 b1 0b 22
        E 16 b1 0b 19
        E 16 b1 0b 11
        E 16 b1 0b 08
        E 32 b1 0b 11
        E 144 b1 0b 08
        E 144 81 33 00
        E 144 91 33 08
        E 144 81 33 00
        E 432 b1 0b 4c
        E 0 91 33 4c
        E 16 b1 0b 44
        E 32 b1 0b 33
        E 16 b1 0b 22
        E 16 b1 0b 11
        E 64 b1 0b 4c
        E 16 b1 0b 44
        E 32 b1 0b 33
        E 16 b1 0b 22
        E 16 b1 0b 11
        E 64 b1 0b 4c
        E 16 b1 0b 44
        E 32 b1 0b 33
        E 16 b1 0b 22
        E 16 b1 0b 11
        E 64 b1 0b 4c
        E 16 b1 0b 44
        E 32 b1 0b 33
        E 16 b1 0b 22
        E 16 b1 0b 19
        E 16 b1 0b 11
        E 16 b1 0b 08
        E 32 b1 0b 11
        E 144 b1 0b 4c
        E 16 b1 0b 44
        E 32 b1 0b 33
        E 16 b1 0b 22
        E 16 b1 0b 19
        E 16 b1 0b 11
        E 16 b1 0b 08
        E 32 b1 0b 11
        E 144 b1 0b 08
        E 144 81 33 00
        E 144 91 33 08
        E 144 81 33 00
        E 432 b1 0b 4c
        E 0 91 33 4c
        E 16 b1 0b 44
        E 32 b1 0b 33
        E 16 b1 0b 22
        E 16 b1 0b 11
        E 64 b1 0b 4c
        E 16 b1 0b 44
        E 32 b1 0b 33
        E 16 b1 0b 22
        E 16 b1 0b 11
        E 64 b1 0b 4c
        E 16 b1 0b 44
        E 32 b1 0b 33
        E 16 b1 0b 22
        E 16 b1 0b 11
        E 64 b1 0b 4c
        E 16 b1 0b 44
        E 32 b1 0b 33
        E 16 b1 0b 22
        E 16 b1 0b 19
        E 16 b1 0b 11
        E 16 b1 0b 08
        E 32 b1 0b 11
        E 144 b1 0b 4c
        E 16 b1 0b 44
        E 32 b1 0b 33
        E 16 b1 0b 22
        E 16 b1 0b 19
        E 16 b1 0b 11
        E 16 b1 0b 08
        E 32 b1 0b 11
        E 144 b1 0b 08
        E 144 81 33 00
        E 144 91 33 08
        E 144 81 33 00
        E 432 b1 0b 4c
        E 0 91 33 4c
        E 16 b1 0b 44
        E 32 b1 0b 33
        E 16 b1 0b 22
        E 16 b1 0b 11
        E 64 b1 0b 4c
        E 16 b1 0b 44
        E 32 b1 0b 33
        E 16 b1 0b 22
        E 16 b1 0b 11
        E 64 b1 0b 4c
        E 16 b1 0b 44
        E 32 b1 0b 33
        E 16 b1 0b 22
        E 16 b1 0b 11
        E 64 b1 0b 4c
        E 16 b1 0b 44
        E 32 b1 0b 33
        E 16 b1 0b 22
        E 16 b1 0b 19
        E 16 b1 0b 11
        E 16 b1 0b 08
        E 32 b1 0b 11
        E 144 b1 0b 08
        E 96 81 33 00
        E 48 91 33 08
        E 144 81 33 00
        E 288 b1 0b 4c
        E 0 91 33 4c
        E 16 b1 0b 44
        E 32 b1 0b 33
        E 16 b1 0b 22
        E 16 b1 0b 11
        E 64 b1 0b 4c
        E 16 b1 0b 44
        E 32 b1 0b 33
        E 16 b1 0b 22
        E 16 b1 0b 11
        E 64 b1 0b 4c
        E 16 b1 0b 44
        E 32 b1 0b 33
        E 16 b1 0b 22
        E 16 b1 0b 11
        E 64 b1 0b 4c
        E 16 b1 0b 44
        E 32 b1 0b 33
        E 16 b1 0b 22
        E 16 b1 0b 19
        E 16 b1 0b 11
        E 16 b1 0b 08
        E 32 b1 0b 11
        E 144 b1 0b 08
        E 96 81 33 00
        E 48 91 33 08
        E 144 81 33 00
        E 288 b1 0b 4c
        E 0 91 33 4c
        E 16 b1 0b 44
        E 32 b1 0b 33
        E 16 b1 0b 22
        E 16 b1 0b 11
        E 64 b1 0b 4c
        E 16 b1 0b 44
        E 32 b1 0b 33
        E 16 b1 0b 22
        E 16 b1 0b 11
        E 64 b1 0b 4c
        E 16 b1 0b 44
        E 32 b1 0b 33
        E 16 b1 0b 22
        E 16 b1 0b 11
        E 64 b1 0b 4c
        E 16 b1 0b 44
        E 32 b1 0b 33
        E 16 b1 0b 22
        E 16 b1 0b 19
        E 16 b1 0b 11
        E 16 b1 0b 08
        E 32 b1 0b 11
        E 144 b1 0b 08
        E 96 81 33 00
        E 48 91 33 08
        E 16 81 33 00
        E 2560 b1 0b 22
        E 0 91 33 22
        E 16 b1 0b 33
        E 16 b1 0b 4c
        E 16 b1 0b 44
        E 512 b1 0b 08
        E 16 b1 0b 2a
        E 16 b1 0b 22
        E 16 b1 0b 19
        E 16 b1 0b 11
        E 16 b1 0b 22
        E 0 81 33 00
        E 0 91 30 22
        E 16 b1 0b 33
        E 16 b1 0b 4c
        E 16 b1 0b 44
        E 112 b1 0b 08
        E 16 b1 0b 2a
        E 16 b1 0b 22
        E 16 b1 0b 19
        E 16 b1 0b 11
        E 96 b1 0b 22
        E 0 81 30 00
        E 0 91 33 22
        E 16 b1 0b 33
        E 16 b1 0b 4c
        E 16 b1 0b 44
        E 32 b1 0b 08
        E 16 b1 0b 2a
        E 16 b1 0b 22
        E 16 b1 0b 19
        E 16 b1 0b 11
        E 16 b1 0b 22
        E 0 81 33 00
        E 0 91 32 22
        E 16 b1 0b 33
        E 16 b1 0b 4c
        E 16 b1 0b 44
        E 352 b1 0b 08
        E 16 b1 0b 2a
        E 16 b1 0b 22
        E 16 b1 0b 19
        E 16 b1 0b 11
        E 16 b1 0b 22
        E 0 81 32 00
        E 0 91 30 22
        E 16 b1 0b 33
        E 16 b1 0b 4c
        E 16 b1 0b 44
        E 112 b1 0b 08
        E 16 b1 0b 2a
        E 16 b1 0b 22
        E 16 b1 0b 19
        E 16 b1 0b 11
        E 96 b1 0b 22
        E 16 b1 0b 33
        E 16 b1 0b 4c
        E 16 b1 0b 44
        E 112 b1 0b 08
        E 16 b1 0b 2a
        E 16 b1 0b 22
        E 16 b1 0b 19
        E 16 b1 0b 11
        E 96 b1 0b 22
        E 0 81 30 00
        E 0 91 33 22
        E 16 b1 0b 33
        E 16 b1 0b 4c
        E 16 b1 0b 44
        E 32 b1 0b 08
        E 16 b1 0b 2a
        E 16 b1 0b 22
        E 16 b1 0b 19
        E 16 b1 0b 11
        E 16 b1 0b 22
        E 0 81 33 00
        E 0 91 32 22
        E 16 b1 0b 33
        E 16 b1 0b 4c
        E 16 b1 0b 44
        E 272 b1 0b 08
        E 16 b1 0b 2a
        E 16 b1 0b 22
        E 16 b1 0b 19
        E 16 b1 0b 11
        E 96 b1 0b 22
        E 0 81 32 00
        E 0 91 30 22
        E 16 b1 0b 33
        E 16 b1 0b 4c
        E 16 b1 0b 44
        E 112 b1 0b 08
        E 16 b1 0b 2a
        E 16 b1 0b 22
        E 16 b1 0b 19
        E 16 b1 0b 11
        E 96 b1 0b 22
        E 16 b1 0b 33
        E 16 b1 0b 4c
        E 16 b1 0b 44
        E 112 b1 0b 08
        E 16 b1 0b 2a
        E 16 b1 0b 22
        E 16 b1 0b 19
        E 16 b1 0b 11
        E 96 b1 0b 22
        E 0 81 30 00
        E 0 91 33 22
        E 16 b1 0b 33
        E 16 b1 0b 4c
        E 16 b1 0b 44
        E 32 b1 0b 08
        E 16 b1 0b 2a
        E 16 b1 0b 22
        E 16 b1 0b 19
        E 16 b1 0b 11
        E 16 b1 0b 22
        E 0 81 33 00
        E 0 91 32 22
        E 16 b1 0b 33
        E 16 b1 0b 4c
        E 16 b1 0b 44
        E 352 b1 0b 08
        E 16 b1 0b 2a
        E 16 b1 0b 22
        E 16 b1 0b 19
        E 16 b1 0b 11
        E 16 b1 0b 22
        E 0 81 32 00
        E 0 91 30 22
        E 16 b1 0b 33
        E 16 b1 0b 4c
        E 16 b1 0b 44
        E 112 b1 0b 08
        E 16 b1 0b 2a
        E 16 b1 0b 22
        E 16 b1 0b 19
        E 16 b1 0b 11
        E 96 b1 0b 22
        E 16 b1 0b 33
        E 16 b1 0b 4c
        E 16 b1 0b 44
        E 32 b1 0b 08
        E 16 b1 0b 2a
        E 16 b1 0b 22
        E 16 b1 0b 19
        E 16 b1 0b 11
        E 16 b1 0b 22
        E 0 81 30 00
        E 0 91 33 22
        E 16 b1 0b 33
        E 16 b1 0b 4c
        E 16 b1 0b 44
        E 352 b1 0b 08
        E 16 b1 0b 2a
        E 16 b1 0b 22
        E 16 b1 0b 19
        E 16 b1 0b 11
        E 16 b1 0b 22
        E 0 81 33 00
        E 0 91 35 22
        E 16 b1 0b 33
        E 16 b1 0b 4c
        E 16 b1 0b 44
        E 512 b1 0b 08
        E 16 b1 0b 2a
        E 16 b1 0b 22
        E 16 b1 0b 19
        E 16 b1 0b 11
        E 16 b1 0b 22
        E 0 81 35 00
        E 0 91 30 22
        E 16 b1 0b 33
        E 16 b1 0b 4c
        E 16 b1 0b 44
        E 112 b1 0b 08
        E 16 b1 0b 2a
        E 16 b1 0b 22
        E 16 b1 0b 19
        E 16 b1 0b 11
        E 96 b1 0b 22
        E 0 81 30 00
        E 0 91 33 22
        E 16 b1 0b 33
        E 16 b1 0b 4c
        E 16 b1 0b 44
        E 32 b1 0b 08
        E 16 b1 0b 2a
        E 16 b1 0b 22
        E 16 b1 0b 19
        E 16 b1 0b 11
        E 16 b1 0b 22
        E 0 81 33 00
        E 0 91 32 22
        E 16 b1 0b 33
        E 16 b1 0b 4c
        E 16 b1 0b 44
        E 48 81 32 00
        E 0 b1 7b 00
        E 0 ff 2f 00
      >
    >
  >
  <TRACK {34610043-EA4E-470A-A5FD-79F3BDCF1A86}
    NAME "NES - Triangle [ch2]"
    PEAKCOL 16744192
    BEAT -1
    AUTOMODE 0
    PANLAWFLAGS 3
    VOLPAN 1 0 -1 -1 1
    MUTESOLO 0 0 0
    IPHASE 0
    PLAYOFFS 0 1
    ISBUS 0 0
    BUSCOMP 0 0 0 0 0
    SHOWINMIX 1 0.6667 0.5 1 0.5 0 0 0
    FIXEDLANES 9 0 0 0 0
    SEL 0
    REC 0 5088 1 0 0 0 0 0
    VU 2
    TRACKHEIGHT 0 0 0 0 0 0 0
    INQ 0 0 0 0.5 100 0 0 100
    NCHAN 2
    FX 1
    TRACKID {34610043-EA4E-470A-A5FD-79F3BDCF1A86}
    PERF 0
    MIDIOUT -1
    MAINSEND 1 0
    <FXCHAIN
      WNDRECT 24 52 700 560
      SHOW 0
      LASTSEL 0
      DOCKED 0
      BYPASS 0 0 0
      <JS "ReapNES Studio/ReapNES_Console.jsfx" ""
        2 15 1 10 80 10 100 2 1 15 1 5 60 10 80 1 1 0 50 0 0 15 1 0 100 0 0 0.500000 0.500000 0.400000 0.300000 0.800000 2 1 0 0 0 0 - - - - - - - - - - - - - - - - - - - - - - - - - -
      >
      FLOATPOS 0 0 0 0
      FXID {2EAB7262-B493-4515-A8DB-38C40CEDB39B}
      WAK 0 0
    >
    <ITEM
      POSITION 0
      LENGTH 74.63452790000001
      LOOP 0
      ALLTAKES 0
      FADEIN 0 0 0 0 0 0 0
      FADEOUT 0 0 0 0 0 0 0
      MUTE 0 0
      SEL 0
      IGUID {B0F50285-F51C-4C77-AC91-970CD002A9C8}
      <SOURCE MIDI
        HASDATA 1 480 QN
        CCINTERP 32
        E 0 c2 26
        E 16 b2 0b 7f
        E 0 92 21 7f
        E 16 82 21 00
        E 0 b2 0b 7f
        E 0 92 2c 7f
        E 16 82 2c 00
        E 0 b2 0b 7f
        E 0 92 2b 7f
        E 16 82 2b 00
        E 0 b2 0b 7f
        E 0 92 2a 7f
        E 16 82 2a 00
        E 0 b2 0b 7f
        E 0 92 29 7f
        E 16 82 29 00
        E 0 b2 0b 7f
        E 0 92 28 7f
        E 16 82 28 00
        E 0 b2 0b 7f
        E 0 92 27 7f
        E 16 82 27 00
        E 0 b2 0b 7f
        E 0 92 26 7f
        E 16 82 26 00
        E 16 b2 0b 7f
        E 0 92 25 7f
        E 16 82 25 00
        E 0 b2 0b 7f
        E 0 92 27 7f
        E 16 82 27 00
        E 0 b2 0b 7f
        E 0 92 26 7f
        E 16 82 26 00
        E 112 b2 0b 7f
        E 0 92 25 7f
        E 16 82 25 00
        E 0 b2 0b 7f
        E 0 92 27 7f
        E 16 82 27 00
        E 0 b2 0b 7f
        E 0 92 26 7f
        E 16 82 26 00
        E 112 b2 0b 7f
        E 0 92 25 7f
        E 16 82 25 00
        E 0 b2 0b 7f
        E 0 92 27 7f
        E 16 82 27 00
        E 0 b2 0b 7f
        E 0 92 26 7f
        E 16 82 26 00
        E 112 b2 0b 7f
        E 0 92 36 7f
        E 16 82 36 00
        E 0 b2 0b 7f
        E 0 92 21 7f
        E 16 82 21 00
        E 0 b2 0b 7f
        E 0 92 2c 7f
        E 16 82 2c 00
        E 0 b2 0b 7f
        E 0 92 2b 7f
        E 16 82 2b 00
        E 0 b2 0b 7f
        E 0 92 2a 7f
        E 16 82 2a 00
        E 0 b2 0b 7f
        E 0 92 29 7f
        E 16 82 29 00
        E 0 b2 0b 7f
        E 0 92 28 7f
        E 16 82 28 00
        E 0 b2 0b 7f
        E 0 92 27 7f
        E 16 82 27 00
        E 0 b2 0b 7f
        E 0 92 26 7f
        E 16 82 26 00
        E 16 b2 0b 7f
        E 0 92 25 7f
        E 16 82 25 00
        E 0 b2 0b 7f
        E 0 92 27 7f
        E 16 82 27 00
        E 0 b2 0b 7f
        E 0 92 26 7f
        E 16 82 26 00
        E 112 b2 0b 7f
        E 0 92 25 7f
        E 16 82 25 00
        E 0 b2 0b 7f
        E 0 92 27 7f
        E 16 82 27 00
        E 0 b2 0b 7f
        E 0 92 26 7f
        E 16 82 26 00
        E 28464 b2 0b 7f
        E 0 92 36 7f
        E 16 82 36 00
        E 0 b2 0b 7f
        E 0 92 35 7f
        E 16 82 35 00
        E 0 b2 0b 7f
        E 0 92 36 7f
        E 32 82 36 00
        E 0 b2 0b 7f
        E 0 92 38 7f
        E 2048 82 38 00
        E 0 b2 0b 7f
        E 0 92 39 7f
        E 704 82 39 00
        E 0 b2 0b 7f
        E 0 92 3a 7f
        E 704 82 3a 00
        E 0 b2 0b 7f
        E 0 92 3c 7f
        E 1408 82 3c 00
        E 0 b2 0b 7f
        E 0 92 38 7f
        E 1408 82 38 00
        E 0 b2 0b 7f
        E 0 92 3b 7f
        E 2112 82 3b 00
        E 0 b2 0b 7f
        E 0 92 3a 7f
        E 1408 82 3a 00
        E 0 b2 0b 7f
        E 0 92 43 7f
        E 1408 82 43 00
        E 0 b2 0b 7f
        E 0 92 40 7f
        E 2112 82 40 00
        E 0 b2 0b 7f
        E 0 92 3e 7f
        E 704 82 3e 00
        E 0 b2 0b 7f
        E 0 92 3f 7f
        E 1408 82 3f 00
        E 0 b2 0b 7f
        E 0 92 3e 7f
        E 704 82 3e 00
        E 0 b2 0b 7f
        E 0 92 3a 7f
        E 4224 82 3a 00
        E 0 b2 0b 7f
        E 0 92 39 7f
        E 2816 82 39 00
        E 0 b2 0b 7f
        E 0 92 3a 7f
        E 1056 82 3a 00
        E 352 b2 0b 7f
        E 0 92 3b 7f
        E 16 82 3b 00
        E 0 b2 0b 7f
        E 0 92 2e 7f
        E 32 82 2e 00
        E 0 b2 0b 7f
        E 0 92 2f 7f
        E 16 82 2f 00
        E 0 b2 0b 7f
        E 0 92 31 7f
        E 1344 82 31 00
        E 0 b2 0b 7f
        E 0 92 33 7f
        E 1408 82 33 00
        E 0 b2 0b 7f
        E 0 92 24 7f
        E 32 82 24 00
        E 112 b2 0b 7f
        E 0 92 29 7f
        E 32 82 29 00
        E 112 b2 0b 7f
        E 0 92 29 7f
        E 32 82 29 00
        E 112 b2 0b 7f
        E 0 92 29 7f
        E 32 82 29 00
        E 256 b2 0b 7f
        E 0 92 29 7f
        E 32 82 29 00
        E 1120 b2 0b 7f
        E 0 92 29 7f
        E 32 82 29 00
        E 112 b2 0b 7f
        E 0 92 29 7f
        E 32 82 29 00
        E 112 b2 0b 7f
        E 0 92 29 7f
        E 32 82 29 00
        E 112 b2 0b 7f
        E 0 92 29 7f
        E 32 82 29 00
        E 256 b2 0b 7f
        E 0 92 29 7f
        E 32 82 29 00
        E 1120 b2 0b 7f
        E 0 92 29 7f
        E 32 82 29 00
        E 112 b2 0b 7f
        E 0 92 29 7f
        E 32 82 29 00
        E 112 b2 0b 7f
        E 0 92 29 7f
        E 32 82 29 00
        E 112 b2 0b 7f
        E 0 92 29 7f
        E 32 82 29 00
        E 256 b2 0b 7f
        E 0 92 29 7f
        E 32 82 29 00
        E 1120 b2 0b 7f
        E 0 92 29 7f
        E 32 82 29 00
        E 112 b2 0b 7f
        E 0 92 29 7f
        E 32 82 29 00
        E 112 b2 0b 7f
        E 0 92 29 7f
        E 32 82 29 00
        E 112 b2 0b 7f
        E 0 92 29 7f
        E 32 82 29 00
        E 256 b2 0b 7f
        E 0 92 29 7f
        E 32 82 29 00
        E 1120 b2 0b 7f
        E 0 92 29 7f
        E 32 82 29 00
        E 112 b2 0b 7f
        E 0 92 29 7f
        E 32 82 29 00
        E 112 b2 0b 7f
        E 0 92 29 7f
        E 32 82 29 00
        E 112 b2 0b 7f
        E 0 92 29 7f
        E 32 82 29 00
        E 832 b2 0b 7f
        E 0 92 29 7f
        E 32 82 29 00
        E 112 b2 0b 7f
        E 0 92 29 7f
        E 32 82 29 00
        E 112 b2 0b 7f
        E 0 92 29 7f
        E 32 82 29 00
        E 112 b2 0b 7f
        E 0 92 29 7f
        E 32 82 29 00
        E 832 b2 0b 7f
        E 0 92 29 7f
        E 32 82 29 00
        E 112 b2 0b 7f
        E 0 92 29 7f
        E 32 82 29 00
        E 112 b2 0b 7f
        E 0 92 29 7f
        E 32 82 29 00
        E 112 b2 0b 7f
        E 0 92 29 7f
        E 32 82 29 00
        E 2976 b2 0b 7f
        E 0 92 29 7f
        E 16 82 29 00
        E 0 b2 0b 7f
        E 0 92 27 7f
        E 16 82 27 00
        E 0 b2 0b 7f
        E 0 92 26 7f
        E 16 82 26 00
        E 272 b2 0b 7f
        E 0 92 36 7f
        E 16 82 36 00
        E 0 b2 0b 7f
        E 0 92 21 7f
        E 16 82 21 00
        E 0 b2 0b 7f
        E 0 92 2c 7f
        E 16 82 2c 00
        E 0 b2 0b 7f
        E 0 92 2b 7f
        E 16 82 2b 00
        E 0 b2 0b 7f
        E 0 92 2a 7f
        E 16 82 2a 00
        E 0 b2 0b 7f
        E 0 92 29 7f
        E 16 82 29 00
        E 0 b2 0b 7f
        E 0 92 28 7f
        E 16 82 28 00
        E 0 b2 0b 7f
        E 0 92 27 7f
        E 16 82 27 00
        E 0 b2 0b 7f
        E 0 92 26 7f
        E 16 82 26 00
        E 0 b2 0b 7f
        E 0 92 25 7f
        E 16 82 25 00
        E 0 b2 0b 7f
        E 0 92 24 7f
        E 16 82 24 00
        E 0 b2 0b 7f
        E 0 92 23 7f
        E 16 82 23 00
        E 0 b2 0b 7f
        E 0 92 22 7f
        E 16 82 22 00
        E 0 b2 0b 7f
        E 0 92 1a 7f
        E 16 82 1a 00
        E 0 b2 0b 7f
        E 0 92 20 7f
        E 16 82 20 00
        E 0 b2 0b 7f
        E 0 92 1f 7f
        E 16 82 1f 00
        E 0 b2 0b 7f
        E 0 92 1e 7f
        E 16 82 1e 00
        E 0 b2 0b 7f
        E 0 92 1d 7f
        E 16 82 1d 00
        E 0 b2 0b 7f
        E 0 92 1c 7f
        E 16 82 1c 00
        E 0 b2 0b 7f
        E 0 92 1b 7f
        E 16 82 1b 00
        E 0 b2 0b 7f
        E 0 92 21 7f
        E 16 82 21 00
        E 0 b2 0b 7f
        E 0 92 27 7f
        E 16 82 27 00
        E 0 b2 0b 7f
        E 0 92 26 7f
        E 16 82 26 00
        E 112 b2 0b 7f
        E 0 92 25 7f
        E 16 82 25 00
        E 0 b2 0b 7f
        E 0 92 27 7f
        E 16 82 27 00
        E 0 b2 0b 7f
        E 0 92 26 7f
        E 16 82 26 00
        E 112 b2 0b 7f
        E 0 92 36 7f
        E 16 82 36 00
        E 0 b2 0b 7f
        E 0 92 21 7f
        E 16 82 21 00
        E 0 b2 0b 7f
        E 0 92 2c 7f
        E 16 82 2c 00
        E 0 b2 0b 7f
        E 0 92 2b 7f
        E 16 82 2b 00
        E 0 b2 0b 7f
        E 0 92 2a 7f
        E 16 82 2a 00
        E 0 b2 0b 7f
        E 0 92 29 7f
        E 16 82 29 00
        E 0 b2 0b 7f
        E 0 92 28 7f
        E 16 82 28 00
        E 0 b2 0b 7f
        E 0 92 27 7f
        E 16 82 27 00
        E 0 b2 0b 7f
        E 0 92 26 7f
        E 16 82 26 00
        E 16 b2 0b 7f
        E 0 92 25 7f
        E 16 82 25 00
        E 0 b2 0b 7f
        E 0 92 27 7f
        E 16 82 27 00
        E 0 b2 0b 7f
        E 0 92 26 7f
        E 16 82 26 00
        E 112 b2 0b 7f
        E 0 92 25 7f
        E 16 82 25 00
        E 0 b2 0b 7f
        E 0 92 27 7f
        E 16 82 27 00
        E 0 b2 0b 7f
        E 0 92 26 7f
        E 16 82 26 00
        E 272 b2 0b 7f
        E 0 92 36 7f
        E 16 82 36 00
        E 0 b2 0b 7f
        E 0 92 21 7f
        E 16 82 21 00
        E 0 b2 0b 7f
        E 0 92 2c 7f
        E 16 82 2c 00
        E 0 b2 0b 7f
        E 0 92 2b 7f
        E 16 82 2b 00
        E 0 b2 0b 7f
        E 0 92 2a 7f
        E 16 82 2a 00
        E 0 b2 0b 7f
        E 0 92 29 7f
        E 16 82 29 00
        E 0 b2 0b 7f
        E 0 92 28 7f
        E 16 82 28 00
        E 0 b2 0b 7f
        E 0 92 27 7f
        E 16 82 27 00
        E 0 b2 0b 7f
        E 0 92 26 7f
        E 16 82 26 00
        E 0 b2 0b 7f
        E 0 92 25 7f
        E 16 82 25 00
        E 0 b2 0b 7f
        E 0 92 24 7f
        E 16 82 24 00
        E 0 b2 0b 7f
        E 0 92 23 7f
        E 16 82 23 00
        E 0 b2 0b 7f
        E 0 92 22 7f
        E 16 82 22 00
        E 0 b2 0b 7f
        E 0 92 1a 7f
        E 16 82 1a 00
        E 0 b2 0b 7f
        E 0 92 20 7f
        E 16 82 20 00
        E 0 b2 0b 7f
        E 0 92 1f 7f
        E 16 82 1f 00
        E 0 b2 0b 7f
        E 0 92 1e 7f
        E 16 82 1e 00
        E 0 b2 0b 7f
        E 0 92 1d 7f
        E 16 82 1d 00
        E 0 b2 0b 7f
        E 0 92 1c 7f
        E 16 82 1c 00
        E 0 b2 0b 7f
        E 0 92 1b 7f
        E 16 82 1b 00
        E 0 b2 0b 7f
        E 0 92 21 7f
        E 16 82 21 00
        E 0 b2 0b 7f
        E 0 92 27 7f
        E 16 82 27 00
        E 0 b2 0b 7f
        E 0 92 26 7f
        E 16 82 26 00
        E 112 b2 0b 7f
        E 0 92 25 7f
        E 16 82 25 00
        E 0 b2 0b 7f
        E 0 92 27 7f
        E 16 82 27 00
        E 0 b2 0b 7f
        E 0 92 26 7f
        E 16 82 26 00
        E 112 b2 0b 7f
        E 0 92 36 7f
        E 16 82 36 00
        E 0 b2 0b 7f
        E 0 92 21 7f
        E 16 82 21 00
        E 0 b2 0b 7f
        E 0 92 2c 7f
        E 16 82 2c 00
        E 0 b2 0b 7f
        E 0 92 2b 7f
        E 16 82 2b 00
        E 0 b2 0b 7f
        E 0 92 2a 7f
        E 16 82 2a 00
        E 0 b2 0b 7f
        E 0 92 29 7f
        E 16 82 29 00
        E 0 b2 0b 7f
        E 0 92 28 7f
        E 16 82 28 00
        E 0 b2 0b 7f
        E 0 92 27 7f
        E 16 82 27 00
        E 0 b2 0b 7f
        E 0 92 26 7f
        E 16 82 26 00
        E 16 b2 0b 7f
        E 0 92 25 7f
        E 16 82 25 00
        E 0 b2 0b 7f
        E 0 92 27 7f
        E 16 82 27 00
        E 0 b2 0b 7f
        E 0 92 26 7f
        E 16 82 26 00
        E 112 b2 0b 7f
        E 0 92 25 7f
        E 16 82 25 00
        E 0 b2 0b 7f
        E 0 92 27 7f
        E 16 82 27 00
        E 0 b2 0b 7f
        E 0 92 26 7f
        E 16 82 26 00
        E 272 b2 0b 7f
        E 0 92 36 7f
        E 16 82 36 00
        E 0 b2 0b 7f
        E 0 92 21 7f
        E 16 82 21 00
        E 0 b2 0b 7f
        E 0 92 2c 7f
        E 16 82 2c 00
        E 0 b2 0b 7f
        E 0 92 2b 7f
        E 16 82 2b 00
        E 0 b2 0b 7f
        E 0 92 2a 7f
        E 16 82 2a 00
        E 0 b2 0b 7f
        E 0 92 29 7f
        E 16 82 29 00
        E 0 b2 0b 7f
        E 0 92 28 7f
        E 16 82 28 00
        E 0 b2 0b 7f
        E 0 92 27 7f
        E 16 82 27 00
        E 0 b2 0b 7f
        E 0 92 26 7f
        E 16 82 26 00
        E 0 b2 0b 7f
        E 0 92 25 7f
        E 16 82 25 00
        E 0 b2 0b 7f
        E 0 92 24 7f
        E 16 82 24 00
        E 0 b2 0b 7f
        E 0 92 23 7f
        E 16 82 23 00
        E 0 b2 0b 7f
        E 0 92 22 7f
        E 16 82 22 00
        E 0 b2 0b 7f
        E 0 92 1a 7f
        E 16 82 1a 00
        E 0 b2 0b 7f
        E 0 92 20 7f
        E 16 82 20 00
        E 0 b2 0b 7f
        E 0 92 1f 7f
        E 16 82 1f 00
        E 0 b2 0b 7f
        E 0 92 1e 7f
        E 16 82 1e 00
        E 0 b2 0b 7f
        E 0 92 1d 7f
        E 16 82 1d 00
        E 0 b2 0b 7f
        E 0 92 1c 7f
        E 16 82 1c 00
        E 0 b2 0b 7f
        E 0 92 1b 7f
        E 16 82 1b 00
        E 0 b2 0b 7f
        E 0 92 21 7f
        E 16 82 21 00
        E 0 b2 0b 7f
        E 0 92 27 7f
        E 16 82 27 00
        E 0 b2 0b 7f
        E 0 92 26 7f
        E 16 82 26 00
        E 112 b2 0b 7f
        E 0 92 25 7f
        E 16 82 25 00
        E 0 b2 0b 7f
        E 0 92 27 7f
        E 16 82 27 00
        E 0 b2 0b 7f
        E 0 92 26 7f
        E 16 82 26 00
        E 112 b2 0b 7f
        E 0 92 36 7f
        E 16 82 36 00
        E 0 b2 0b 7f
        E 0 92 21 7f
        E 16 82 21 00
        E 0 b2 0b 7f
        E 0 92 2c 7f
        E 16 82 2c 00
        E 0 b2 0b 7f
        E 0 92 2b 7f
        E 16 82 2b 00
        E 0 b2 0b 7f
        E 0 92 2a 7f
        E 16 82 2a 00
        E 0 b2 0b 7f
        E 0 92 29 7f
        E 16 82 29 00
        E 0 b2 0b 7f
        E 0 92 28 7f
        E 16 82 28 00
        E 0 b2 0b 7f
        E 0 92 27 7f
        E 16 82 27 00
        E 0 b2 0b 7f
        E 0 92 26 7f
        E 16 82 26 00
        E 16 b2 0b 7f
        E 0 92 25 7f
        E 16 82 25 00
        E 0 b2 0b 7f
        E 0 92 27 7f
        E 16 82 27 00
        E 0 b2 0b 7f
        E 0 92 26 7f
        E 16 82 26 00
        E 112 b2 0b 7f
        E 0 92 25 7f
        E 16 82 25 00
        E 0 b2 0b 7f
        E 0 92 27 7f
        E 16 82 27 00
        E 0 b2 0b 7f
        E 0 92 26 7f
        E 16 82 26 00
        E 272 b2 0b 7f
        E 0 92 36 7f
        E 16 82 36 00
        E 0 b2 0b 7f
        E 0 92 21 7f
        E 16 82 21 00
        E 0 b2 0b 7f
        E 0 92 2c 7f
        E 16 82 2c 00
        E 0 b2 0b 7f
        E 0 92 2b 7f
        E 16 82 2b 00
        E 0 b2 0b 7f
        E 0 92 2a 7f
        E 16 82 2a 00
        E 0 b2 0b 7f
        E 0 92 29 7f
        E 16 82 29 00
        E 0 b2 0b 7f
        E 0 92 28 7f
        E 16 82 28 00
        E 0 b2 0b 7f
        E 0 92 27 7f
        E 16 82 27 00
        E 0 b2 0b 7f
        E 0 92 26 7f
        E 16 82 26 00
        E 0 b2 0b 7f
        E 0 92 25 7f
        E 16 82 25 00
        E 0 b2 0b 7f
        E 0 92 24 7f
        E 16 82 24 00
        E 0 b2 0b 7f
        E 0 92 23 7f
        E 16 82 23 00
        E 0 b2 0b 7f
        E 0 92 22 7f
        E 16 82 22 00
        E 0 b2 0b 7f
        E 0 92 1a 7f
        E 16 82 1a 00
        E 0 b2 0b 7f
        E 0 92 20 7f
        E 16 82 20 00
        E 0 b2 0b 7f
        E 0 92 1f 7f
        E 16 82 1f 00
        E 0 b2 0b 7f
        E 0 92 1e 7f
        E 16 82 1e 00
        E 0 b2 0b 7f
        E 0 92 1d 7f
        E 16 82 1d 00
        E 0 b2 0b 7f
        E 0 92 1c 7f
        E 16 82 1c 00
        E 0 b2 0b 7f
        E 0 92 1b 7f
        E 16 82 1b 00
        E 0 b2 0b 7f
        E 0 92 21 7f
        E 16 82 21 00
        E 0 b2 0b 7f
        E 0 92 27 7f
        E 16 82 27 00
        E 0 b2 0b 7f
        E 0 92 26 7f
        E 16 82 26 00
        E 112 b2 0b 7f
        E 0 92 25 7f
        E 16 82 25 00
        E 0 b2 0b 7f
        E 0 92 27 7f
        E 16 82 27 00
        E 0 b2 0b 7f
        E 0 92 26 7f
        E 16 82 26 00
        E 112 b2 0b 7f
        E 0 92 36 7f
        E 16 82 36 00
        E 0 b2 0b 7f
        E 0 92 21 7f
        E 16 82 21 00
        E 0 b2 0b 7f
        E 0 92 2c 7f
        E 16 82 2c 00
        E 0 b2 0b 7f
        E 0 92 2b 7f
        E 16 82 2b 00
        E 0 b2 0b 7f
        E 0 92 2a 7f
        E 16 82 2a 00
        E 0 b2 0b 7f
        E 0 92 29 7f
        E 16 82 29 00
        E 0 b2 0b 7f
        E 0 92 28 7f
        E 16 82 28 00
        E 0 b2 0b 7f
        E 0 92 27 7f
        E 16 82 27 00
        E 0 b2 0b 7f
        E 0 92 26 7f
        E 16 82 26 00
        E 16 b2 0b 7f
        E 0 92 36 7f
        E 16 82 36 00
        E 0 b2 0b 7f
        E 0 92 21 7f
        E 16 82 21 00
        E 0 b2 0b 7f
        E 0 92 2c 7f
        E 16 82 2c 00
        E 0 b2 0b 7f
        E 0 92 2b 7f
        E 16 82 2b 00
        E 0 b2 0b 7f
        E 0 92 2a 7f
        E 16 82 2a 00
        E 0 b2 0b 7f
        E 0 92 29 7f
        E 16 82 29 00
        E 0 b2 0b 7f
        E 0 92 28 7f
        E 16 82 28 00
        E 0 b2 0b 7f
        E 0 92 27 7f
        E 16 82 27 00
        E 0 b2 0b 7f
        E 0 92 26 7f
        E 16 82 26 00
        E 16 b2 0b 7f
        E 0 92 25 7f
        E 16 82 25 00
        E 0 b2 0b 7f
        E 0 92 27 7f
        E 16 82 27 00
        E 0 b2 0b 7f
        E 0 92 26 7f
        E 16 82 26 00
        E 272 b2 0b 7f
        E 0 92 36 7f
        E 16 82 36 00
        E 0 b2 0b 7f
        E 0 92 21 7f
        E 16 82 21 00
        E 0 b2 0b 7f
        E 0 92 2c 7f
        E 16 82 2c 00
        E 0 b2 0b 7f
        E 0 92 2b 7f
        E 16 82 2b 00
        E 0 b2 0b 7f
        E 0 92 2a 7f
        E 16 82 2a 00
        E 0 b2 0b 7f
        E 0 92 29 7f
        E 16 82 29 00
        E 0 b2 0b 7f
        E 0 92 28 7f
        E 16 82 28 00
        E 0 b2 0b 7f
        E 0 92 27 7f
        E 16 82 27 00
        E 0 b2 0b 7f
        E 0 92 26 7f
        E 16 82 26 00
        E 0 b2 0b 7f
        E 0 92 25 7f
        E 16 82 25 00
        E 0 b2 0b 7f
        E 0 92 24 7f
        E 16 82 24 00
        E 0 b2 0b 7f
        E 0 92 23 7f
        E 16 82 23 00
        E 0 b2 0b 7f
        E 0 92 22 7f
        E 16 82 22 00
        E 0 b2 0b 7f
        E 0 92 1a 7f
        E 16 82 1a 00
        E 0 b2 0b 7f
        E 0 92 20 7f
        E 16 82 20 00
        E 0 b2 0b 7f
        E 0 92 1f 7f
        E 16 82 1f 00
        E 0 b2 0b 7f
        E 0 92 1e 7f
        E 16 82 1e 00
        E 0 b2 0b 7f
        E 0 92 1d 7f
        E 16 82 1d 00
        E 0 b2 0b 7f
        E 0 92 1c 7f
        E 16 82 1c 00
        E 0 b2 0b 7f
        E 0 92 1b 7f
        E 16 82 1b 00
        E 0 b2 0b 7f
        E 0 92 21 7f
        E 16 82 21 00
        E 0 b2 0b 7f
        E 0 92 27 7f
        E 16 82 27 00
        E 0 b2 0b 7f
        E 0 92 26 7f
        E 16 82 26 00
        E 112 b2 0b 7f
        E 0 92 25 7f
        E 16 82 25 00
        E 0 b2 0b 7f
        E 0 92 27 7f
        E 16 82 27 00
        E 0 b2 0b 7f
        E 0 92 26 7f
        E 16 82 26 00
        E 112 b2 0b 7f
        E 0 92 36 7f
        E 16 82 36 00
        E 0 b2 0b 7f
        E 0 92 21 7f
        E 16 82 21 00
        E 0 b2 0b 7f
        E 0 92 2c 7f
        E 16 82 2c 00
        E 0 b2 0b 7f
        E 0 92 2b 7f
        E 16 82 2b 00
        E 0 b2 0b 7f
        E 0 92 2a 7f
        E 16 82 2a 00
        E 0 b2 0b 7f
        E 0 92 29 7f
        E 16 82 29 00
        E 0 b2 0b 7f
        E 0 92 28 7f
        E 16 82 28 00
        E 0 b2 0b 7f
        E 0 92 27 7f
        E 16 82 27 00
        E 0 b2 0b 7f
        E 0 92 26 7f
        E 16 82 26 00
        E 16 b2 0b 7f
        E 0 92 25 7f
        E 16 82 25 00
        E 0 b2 0b 7f
        E 0 92 27 7f
        E 16 82 27 00
        E 0 b2 0b 7f
        E 0 92 26 7f
        E 16 82 26 00
        E 48 b2 7b 00
        E 0 ff 2f 00
      >
    >
  >
  <TRACK {4877B99A-8BF3-4D77-AF06-94F02B332DA0}
    NAME "NES - Noise / Drums [ch3]"
    PEAKCOL 11184810
    BEAT -1
    AUTOMODE 0
    PANLAWFLAGS 3
    VOLPAN 1 0 -1 -1 1
    MUTESOLO 0 0 0
    IPHASE 0
    PLAYOFFS 0 1
    ISBUS 0 0
    BUSCOMP 0 0 0 0 0
    SHOWINMIX 1 0.6667 0.5 1 0.5 0 0 0
    FIXEDLANES 9 0 0 0 0
    SEL 0
    REC 0 5088 1 0 0 0 0 0
    VU 2
    TRACKHEIGHT 0 0 0 0 0 0 0
    INQ 0 0 0 0.5 100 0 0 100
    NCHAN 2
    FX 1
    TRACKID {4877B99A-8BF3-4D77-AF06-94F02B332DA0}
    PERF 0
    MIDIOUT -1
    MAINSEND 1 0
    <FXCHAIN
      WNDRECT 24 52 700 560
      SHOW 0
      LASTSEL 0
      DOCKED 0
      BYPASS 0 0 0
      <JS "ReapNES Studio/ReapNES_Console.jsfx" ""
        2 15 1 10 80 10 100 2 1 15 1 5 60 10 80 1 1 0 50 0 0 15 1 0 100 0 0 0.500000 0.500000 0.400000 0.300000 0.800000 3 1 0 0 0 0 - - - - - - - - - - - - - - - - - - - - - - - - - -
      >
      FLOATPOS 0 0 0 0
      FXID {FF4444AC-7804-4CB8-BBE9-A007DCCB273C}
      WAK 0 0
    >
    <ITEM
      POSITION 0
      LENGTH 74.63452790000001
      LOOP 0
      ALLTAKES 0
      FADEIN 0 0 0 0 0 0 0
      FADEOUT 0 0 0 0 0 0 0
      MUTE 0 0
      SEL 0
      IGUID {91D20B75-574B-407F-B4EB-51B59790269D}
      <SOURCE MIDI
        HASDATA 1 480 QN
        CCINTERP 32
        E 0 93 2a 08
        E 16 83 2a 00
        E 0 93 2a 08
        E 144 83 2a 00
        E 480 93 2a 08
        E 16 83 2a 00
        E 0 93 2a 08
        E 144 83 2a 00
        E 69968 93 2a 08
        E 16 83 2a 00
        E 0 93 2a 08
        E 304 83 2a 00
        E 320 93 2a 08
        E 16 83 2a 00
        E 0 93 2a 08
        E 144 83 2a 00
        E 0 93 2a 08
        E 16 83 2a 00
        E 0 93 2a 08
        E 144 83 2a 00
        E 320 93 2a 08
        E 16 83 2a 00
        E 0 93 2a 08
        E 304 83 2a 00
        E 320 93 2a 08
        E 16 83 2a 00
        E 0 93 2a 08
        E 144 83 2a 00
        E 0 93 2a 08
        E 16 83 2a 00
        E 0 93 2a 08
        E 144 83 2a 00
        E 320 93 2a 08
        E 16 83 2a 00
        E 0 93 2a 08
        E 304 83 2a 00
        E 320 93 2a 08
        E 16 83 2a 00
        E 0 93 2a 08
        E 144 83 2a 00
        E 0 93 2a 08
        E 16 83 2a 00
        E 0 93 2a 08
        E 144 83 2a 00
        E 320 93 2a 08
        E 16 83 2a 00
        E 0 93 2a 08
        E 304 83 2a 00
        E 320 93 2a 08
        E 16 83 2a 00
        E 0 93 2a 08
        E 144 83 2a 00
        E 0 93 2a 08
        E 16 83 2a 00
        E 0 93 2a 08
        E 144 83 2a 00
        E 320 93 2a 08
        E 16 83 2a 00
        E 0 93 2a 08
        E 304 83 2a 00
        E 320 93 2a 08
        E 16 83 2a 00
        E 0 93 2a 08
        E 144 83 2a 00
        E 0 93 2a 08
        E 16 83 2a 00
        E 0 93 2a 08
        E 80 83 2a 00
        E 0 b3 7b 00
        E 0 ff 2f 00
      >
    >
  >
>