<REAPER_PROJECT 0.1 "7.27/win64" 1707000000
  <NOTES 0 2
    |ReapNES Studio Project
    |MIDI Import - Journey_to_Silius_song_01_rom_v1
  >
  RIPPLE 0
  GROUPOVERRIDE 0 0 0
  AUTOXFADE 129
  ENVATTACH 3
  POOLEDENVATTACH 0
  MIXERUIFLAGS 11 48
  ENVFADESZ10 40
  PEAKGAIN 1
  FEEDBACK 0
  PANLAW 1
  PROJOFFS 0 0 0
  MAXPROJLEN 0 0
  GRID 3199 8 1 8 1 0 0 0
  TIMEMODE 1 5 -1 30 0 0 -1
  VIDEO_CONFIG 0 0 65792
  PANMODE 3
  PANLAWFLAGS 3
  CURSOR 0
  ZOOM 100 0 0
  VZOOMEX 6 0
  USE_REC_CFG 0
  RECMODE 1
  SMPTESYNC 0 30 100 40 1000 300 0 0 1 0 0
  LOOP 0
  LOOPGRAN 0 4
  RECORD_PATH "Media" ""
  <RECORD_CFG
    ZXZhdxgAAQ==
  >
  <APPLYFX_CFG
  >
  RENDER_FILE ""
  RENDER_PATTERN ""
  RENDER_FMT 0 2 0
  RENDER_1X 0
  RENDER_RANGE 1 0 0 18 1000
  RENDER_RESAMPLE 3 0 1
  RENDER_ADDTOPROJ 0
  RENDER_STEMS 0
  RENDER_DITHER 0
  TIMELOCKMODE 1
  TEMPOENVLOCKMODE 1
  ITEMMIX 1
  DEFPITCHMODE 589824 0
  TAKELANE 1
  SAMPLERATE 44100 0 0
  <RENDER_CFG
    ZXZhdxgAAQ==
  >
  LOCK 1
  <METRONOME 6 2
    VOL 0.25 0.125
    BEATLEN 4
    FREQ 1760 880 1
    SAMPLES "" ""
    SPLIGNORE 0 0
    SPLDEF 2 660 "" 0
    SPLDEF 3 440 "" 0
    PATTERN 0 169
    PATTERNSTR ABBB
    MULT 1
  >
  GLOBAL_AUTO -1
  TEMPO 128.59999614200012 4 4
  PLAYRATE 1 0 0.25 4
  SELECTION 0 0
  SELECTION2 0 0
  MASTERAUTOMODE 0
  MASTERTRACKHEIGHT 0 0
  MASTERPEAKCOL 16576
  MASTERMUTESOLO 0
  MASTERTRACKVIEW 0 0.6667 0.5 0.5 0 0 0 0 0 0 0 0 0 0
  MASTERHWOUT 0 0 1 0 0 0 0 -1
  MASTER_NCH 2 2
  MASTER_VOLUME 1 0 -1 -1 1
  MASTER_PANMODE 3
  MASTER_PANLAWFLAGS 3
  MASTER_FX 1
  MASTER_SEL 0
  <MASTERPLAYSPEEDENV
    EGUID {2FC771A0-0AC1-4694-A406-7B7BA9C49633}
    ACT 0 -1
    VIS 0 1 1
    LANEHEIGHT 0 0
    ARM 0
    DEFSHAPE 0 -1 -1
  >
  <TEMPOENVEX
    EGUID {BB233EED-CA40-447A-8A63-89BBDD069E28}
    ACT 1 -1
    VIS 1 0 1
    LANEHEIGHT 0 0
    ARM 0
    DEFSHAPE 1 -1 -1
  >
  <PROJBAY
  >
  <TRACK {15FF75C3-17C2-4B36-80D1-E5944C7E14E1}
    NAME "NES - Pulse 1 [ch0]"
    PEAKCOL 16576606
    BEAT -1
    AUTOMODE 0
    PANLAWFLAGS 3
    VOLPAN 1 0 -1 -1 1
    MUTESOLO 0 0 0
    IPHASE 0
    PLAYOFFS 0 1
    ISBUS 0 0
    BUSCOMP 0 0 0 0 0
    SHOWINMIX 1 0.6667 0.5 1 0.5 0 0 0
    FIXEDLANES 9 0 0 0 0
    SEL 1
    REC 1 5088 1 0 0 0 0 0
    VU 2
    TRACKHEIGHT 0 0 0 0 0 0 0
    INQ 0 0 0 0.5 100 0 0 100
    NCHAN 2
    FX 1
    TRACKID {15FF75C3-17C2-4B36-80D1-E5944C7E14E1}
    PERF 0
    MIDIOUT -1
    MAINSEND 1 0
    <FXCHAIN
      WNDRECT 24 52 700 560
      SHOW 0
      LASTSEL 0
      DOCKED 0
      BYPASS 0 0 0
      <JS "ReapNES Studio/ReapNES_Console.jsfx" ""
        2 15 1 10 80 10 100 2 1 15 1 5 60 10 80 1 1 0 50 0 0 15 1 0 100 0 0 0.500000 0.500000 0.400000 0.300000 0.800000 0 1 0 0 0 0 - - - - - - - - - - - - - - - - - - - - - - - - - -
      >
      FLOATPOS 0 0 0 0
      FXID {16A7630F-6B57-4B8A-BC55-B462D57301B3}
      WAK 0 0
    >
    <ITEM
      POSITION 0
      LENGTH 74.63452790000001
      LOOP 0
      ALLTAKES 0
      FADEIN 0 0 0 0 0 0 0
      FADEOUT 0 0 0 0 0 0 0
      MUTE 0 0
      SEL 0
      IGUID {10466966-5DE7-4894-93BF-744CEF352003}
      <SOURCE MIDI
        HASDATA 1 480 QN
        CCINTERP 32
        E 0 c0 50
        E 0 b0 0c 20
        E 0 b0 0b 19
        E 0 90 39 19
        E 160 80 39 00
        E 0 90 30 19
        E 160 80 30 00
        E 0 90 33 19
        E 160 80 33 00
        E 0 90 30 19
        E 16 80 30 00
        E 0 90 35 19
        E 32 80 35 00
        E 0 90 36 19
        E 272 80 36 00
        E 0 90 37 19
        E 160 b0 0c 10
        E 0 b0 0b 22
        E 0 80 37 00
        E 0 90 2b 22
        E 16 b0 0b 33
        E 16 b0 0b 4c
        E 16 b0 0b 44
        E 240 b0 0b 3b
        E 112 b0 0b 08
        E 16 b0 0b 2a
        E 16 b0 0b 22
        E 16 b0 0b 19
        E 16 b0 0b 11
        E 16 b0 0b 22
        E 0 80 2b 00
        E 0 90 35 22
        E 16 b0 0b 33
        E 16 b0 0b 4c
        E 16 b0 0b 44
        E 240 b0 0b 3b
        E 240 b0 0b 33
        E 192 b0 0b 08
        E 16 b0 0b 2a
        E 16 b0 0b 22
        E 16 b0 0b 19
        E 16 b0 0b 11
        E 16 80 35 00
        E 320 b0 0c 20
        E 0 b0 0b 19
        E 0 90 2d 19
        E 160 80 2d 00
        E 0 90 30 19
        E 160 80 30 00
        E 0 90 33 19
        E 160 80 33 00
        E 0 90 30 19
        E 16 80 30 00
        E 0 90 35 19
        E 32 80 35 00
        E 0 90 36 19
        E 272 80 36 00
        E 0 90 37 19
        E 160 b0 0c 10
        E 0 b0 0b 22
        E 0 80 37 00
        E 0 90 35 22
        E 16 b0 0b 33
        E 16 b0 0b 4c
        E 16 b0 0b 44
        E 240 b0 0b 3b
        E 112 b0 0b 08
        E 16 b0 0b 2a
        E 16 b0 0b 22
        E 16 b0 0b 19
        E 16 b0 0b 11
        E 16 b0 0b 22
        E 0 80 35 00
        E 0 90 37 22
        E 16 b0 0b 33
        E 16 b0 0b 4c
        E 16 b0 0b 44
        E 240 b0 0b 3b
        E 240 b0 0b 33
        E 192 b0 0b 08
        E 16 b0 0b 2a
        E 16 b0 0b 22
        E 16 b0 0b 19
        E 16 b0 0b 11
        E 16 80 37 00
        E 320 b0 0c 20
        E 0 b0 0b 19
        E 0 90 35 19
        E 160 80 35 00
        E 0 90 30 19
        E 160 80 30 00
        E 0 90 33 19
        E 160 80 33 00
        E 0 90 30 19
        E 16 80 30 00
        E 0 90 35 19
        E 32 80 35 00
        E 0 90 36 19
        E 272 80 36 00
        E 0 90 37 19
        E 160 b0 0c 10
        E 0 b0 0b 22
        E 0 80 37 00
        E 0 90 2b 22
        E 16 b0 0b 33
        E 16 b0 0b 4c
        E 16 b0 0b 44
        E 240 b0 0b 3b
        E 112 b0 0b 08
        E 16 b0 0b 2a
        E 16 b0 0b 22
        E 16 b0 0b 19
        E 16 b0 0b 11
        E 16 b0 0b 22
        E 0 80 2b 00
        E 0 90 35 22
        E 16 b0 0b 33
        E 16 b0 0b 4c
        E 16 b0 0b 44
        E 240 b0 0b 3b
        E 240 b0 0b 33
        E 192 b0 0b 08
        E 16 b0 0b 2a
        E 16 b0 0b 22
        E 16 b0 0b 19
        E 16 b0 0b 11
        E 16 80 35 00
        E 320 b0 0c 20
        E 0 b0 0b 19
        E 0 90 2d 19
        E 160 80 2d 00
        E 0 90 30 19
        E 160 80 30 00
        E 0 90 33 19
        E 160 80 33 00
        E 0 90 30 19
        E 16 80 30 00
        E 0 90 35 19
        E 32 80 35 00
        E 0 90 36 19
        E 272 80 36 00
        E 0 90 37 19
        E 160 b0 0c 10
        E 0 b0 0b 22
        E 0 80 37 00
        E 0 90 35 22
        E 16 b0 0b 33
        E 16 b0 0b 4c
        E 16 b0 0b 44
        E 240 b0 0b 3b
        E 112 b0 0b 08
        E 16 b0 0b 2a
        E 16 b0 0b 22
        E 16 b0 0b 19
        E 16 b0 0b 11
        E 16 b0 0b 22
        E 0 80 35 00
        E 0 90 37 22
        E 16 b0 0b 33
        E 16 b0 0b 4c
        E 16 b0 0b 44
        E 240 b0 0b 3b
        E 240 b0 0b 33
        E 192 b0 0b 08
        E 16 b0 0b 2a
        E 16 b0 0b 22
        E 16 b0 0b 19
        E 16 b0 0b 11
        E 16 b0 0b 08
        E 0 80 37 00
        E 0 90 35 08
        E 320 b0 0b 22
        E 16 b0 0b 33
        E 16 b0 0b 4c
        E 16 b0 0b 44
        E 112 b0 0b 08
        E 16 b0 0b 2a
        E 16 b0 0b 22
        E 16 b0 0b 19
        E 16 b0 0b 11
        E 96 b0 0b 22
        E 0 80 35 00
        E 0 90 2e 22
        E 16 b0 0b 33
        E 16 b0 0b 4c
        E 16 b0 0b 44
        E 32 b0 0b 08
        E 16 b0 0b 2a
        E 16 b0 0b 22
        E 16 b0 0b 19
        E 16 b0 0b 11
        E 16 b0 0b 22
        E 0 80 2e 00
        E 0 90 2d 22
        E 16 b0 0b 33
        E 16 b0 0b 4c
        E 16 b0 0b 44
        E 112 b0 0b 08
        E 16 b0 0b 2a
        E 16 b0 0b 22
        E 16 b0 0b 19
        E 16 b0 0b 11
        E 96 b0 0b 22
        E 0 80 2d 00
        E 0 90 2e 22
        E 16 b0 0b 33
        E 16 b0 0b 4c
        E 16 b0 0b 44
        E 240 b0 0b 3b
        E 32 b0 0b 08
        E 16 b0 0b 2a
        E 16 b0 0b 22
        E 16 b0 0b 19
        E 16 b0 0b 11
        E 96 b0 0b 22
        E 16 b0 0b 33
        E 16 b0 0b 4c
        E 16 b0 0b 44
        E 112 b0 0b 08
        E 16 b0 0b 2a
        E 16 b0 0b 22
        E 16 b0 0b 19
        E 16 b0 0b 11
        E 96 b0 0b 22
        E 0 80 2e 00
        E 0 90 2d 22
        E 16 b0 0b 33
        E 16 b0 0b 4c
        E 16 b0 0b 44
        E 32 b0 0b 08
        E 16 b0 0b 2a
        E 16 b0 0b 22
        E 16 b0 0b 19
        E 16 b0 0b 11
        E 16 b0 0b 22
        E 16 b0 0b 33
        E 16 b0 0b 4c
        E 16 b0 0b 44
        E 32 b0 0b 08
        E 16 b0 0b 2a
        E 16 b0 0b 22
        E 16 b0 0b 19
        E 16 b0 0b 11
        E 16 80 2d 00
        E 0 90 2e 11
        E 640 b0 0b 22
        E 16 b0 0b 33
        E 16 b0 0b 4c
        E 16 b0 0b 44
        E 112 b0 0b 08
        E 16 b0 0b 2a
        E 16 b0 0b 22
        E 16 b0 0b 19
        E 16 b0 0b 11
        E 96 b0 0b 22
        E 16 b0 0b 33
        E 16 b0 0b 4c
        E 16 b0 0b 44
        E 32 b0 0b 08
        E 16 b0 0b 2a
        E 16 b0 0b 22
        E 16 b0 0b 19
        E 16 b0 0b 11
        E 16 b0 0b 22
        E 0 80 2e 00
        E 0 90 2d 22
        E 16 b0 0b 33
        E 16 b0 0b 4c
        E 16 b0 0b 44
        E 112 b0 0b 08
        E 16 b0 0b 2a
        E 16 b0 0b 22
        E 16 b0 0b 19
        E 16 b0 0b 11
        E 96 b0 0b 22
        E 0 80 2d 00
        E 0 90 2e 22
        E 16 b0 0b 33
        E 16 b0 0b 4c
        E 16 b0 0b 44
        E 240 b0 0b 3b
        E 32 b0 0b 08
        E 16 b0 0b 2a
        E 16 b0 0b 22
        E 16 b0 0b 19
        E 16 b0 0b 11
        E 96 b0 0b 22
        E 16 b0 0b 33
        E 16 b0 0b 4c
        E 16 b0 0b 44
        E 112 b0 0b 08
        E 16 b0 0b 2a
        E 16 b0 0b 22
        E 16 b0 0b 19
        E 16 b0 0b 11
        E 96 b0 0b 22
        E 0 80 2e 00
        E 0 90 2d 22
        E 16 b0 0b 33
        E 16 b0 0b 4c
        E 16 b0 0b 44
        E 32 b0 0b 08
        E 16 b0 0b 2a
        E 16 b0 0b 22
        E 16 b0 0b 19
        E 16 b0 0b 11
        E 16 b0 0b 22
        E 16 b0 0b 33
        E 16 b0 0b 4c
        E 16 b0 0b 44
        E 32 b0 0b 08
        E 16 b0 0b 2a
        E 16 b0 0b 22
        E 16 b0 0b 19
        E 16 b0 0b 11
        E 16 80 2d 00
        E 0 90 2e 11
        E 640 b0 0b 22
        E 16 b0 0b 33
        E 16 b0 0b 4c
        E 16 b0 0b 44
        E 112 b0 0b 08
        E 16 b0 0b 2a
        E 16 b0 0b 22
        E 16 b0 0b 19
        E 16 b0 0b 11
        E 96 b0 0b 22
        E 16 b0 0b 33
        E 16 b0 0b 4c
        E 16 b0 0b 44
        E 32 b0 0b 08
        E 16 b0 0b 2a
        E 16 b0 0b 22
        E 16 b0 0b 19
        E 16 b0 0b 11
        E 16 b0 0b 22
        E 0 80 2e 00
        E 0 90 2d 22
        E 16 b0 0b 33
        E 16 b0 0b 4c
        E 16 b0 0b 44
        E 112 b0 0b 08
        E 16 b0 0b 2a
        E 16 b0 0b 22
        E 16 b0 0b 19
        E 16 b0 0b 11
        E 96 b0 0b 22
        E 0 80 2d 00
        E 0 90 2e 22
        E 16 b0 0b 33
        E 16 b0 0b 4c
        E 16 b0 0b 44
        E 240 b0 0b 3b
        E 32 b0 0b 08
        E 16 b0 0b 2a
        E 16 b0 0b 22
        E 16 b0 0b 19
        E 16 b0 0b 11
        E 96 b0 0b 22
        E 16 b0 0b 33
        E 16 b0 0b 4c
        E 16 b0 0b 44
        E 112 b0 0b 08
        E 16 b0 0b 2a
        E 16 b0 0b 22
        E 16 b0 0b 19
        E 16 b0 0b 11
        E 96 b0 0b 22
        E 0 80 2e 00
        E 0 90 2d 22
        E 16 b0 0b 33
        E 16 b0 0b 4c
        E 16 b0 0b 44
        E 32 b0 0b 08
        E 16 b0 0b 2a
        E 16 b0 0b 22
        E 16 b0 0b 19
        E 16 b0 0b 11
        E 16 b0 0b 22
        E 16 b0 0b 33
        E 16 b0 0b 4c
        E 16 b0 0b 44
        E 32 b0 0b 08
        E 16 b0 0b 2a
        E 16 b0 0b 22
        E 16 b0 0b 19
        E 16 b0 0b 11
        E 16 80 2d 00
        E 0 90 2e 11
        E 640 b0 0b 22
        E 16 b0 0b 33
        E 16 b0 0b 4c
        E 16 b0 0b 44
        E 112 b0 0b 08
        E 16 b0 0b 2a
        E 16 b0 0b 22
        E 16 b0 0b 19
        E 16 b0 0b 11
        E 96 b0 0b 22
        E 16 b0 0b 33
        E 16 b0 0b 4c
        E 16 b0 0b 44
        E 32 b0 0b 08
        E 16 b0 0b 2a
        E 16 b0 0b 22
        E 16 b0 0b 19
        E 16 b0 0b 11
        E 16 b0 0b 22
        E 0 80 2e 00
        E 0 90 2d 22
        E 16 b0 0b 33
        E 16 b0 0b 4c
        E 16 b0 0b 44
        E 112 b0 0b 08
        E 16 b0 0b 2a
        E 16 b0 0b 22
        E 16 b0 0b 19
        E 16 b0 0b 11
        E 96 b0 0b 22
        E 0 80 2d 00
        E 0 90 27 22
        E 16 b0 0b 33
        E 16 b0 0b 4c
        E 16 b0 0b 44
        E 240 b0 0b 3b
        E 240 b0 0b 33
        E 240 b0 0b 2a
        E 240 b0 0b 22
        E 192 b0 0b 08
        E 16 b0 0b 2a
        E 16 b0 0b 22
        E 16 b0 0b 19
        E 16 b0 0b 11
        E 16 b0 0c 40
        E 0 b0 0b 2a
        E 0 80 27 00
        E 0 90 35 2a
        E 16 b0 0b 33
        E 32 b0 0b 55
        E 16 b0 0b 5d
        E 16 b0 0b 66
        E 16 b0 0b 5d
        E 16 b0 0b 55
        E 16 b0 0b 4c
        E 16 b0 0b 44
        E 16 b0 0b 3b
        E 80 b0 0b 08
        E 16 b0 0b 2a
        E 16 b0 0b 22
        E 16 b0 0b 19
        E 16 b0 0b 11
        E 16 b0 0b 2a
        E 0 80 35 00
        E 0 90 30 2a
        E 16 b0 0b 33
        E 32 b0 0b 55
        E 16 b0 0b 5d
        E 16 b0 0b 08
        E 16 b0 0b 2a
        E 16 b0 0b 22
        E 16 b0 0b 19
        E 16 b0 0b 11
        E 16 b0 0b 2a
        E 16 b0 0b 33
        E 32 b0 0b 55
        E 16 b0 0b 5d
        E 16 b0 0b 08
        E 16 b0 0b 2a
        E 16 b0 0b 22
        E 16 b0 0b 19
        E 16 b0 0b 11
        E 16 b0 0b 2a
        E 0 80 30 00
        E 0 90 33 2a
        E 16 b0 0b 33
        E 32 b0 0b 55
        E 16 b0 0b 5d
        E 16 b0 0b 08
        E 16 b0 0b 2a
        E 16 b0 0b 22
        E 16 b0 0b 19
        E 16 b0 0b 11
        E 16 b0 0b 2a
        E 0 80 33 00
        E 0 90 30 2a
        E 16 b0 0b 33
        E 32 b0 0b 55
        E 16 b0 0b 5d
        E 16 b0 0b 08
        E 16 b0 0b 2a
        E 16 b0 0b 22
        E 16 b0 0b 19
        E 16 b0 0b 11
        E 16 b0 0b 2a
        E 0 80 30 00
        E 0 90 35 2a
        E 16 b0 0b 33
        E 32 b0 0b 55
        E 16 b0 0b 5d
        E 16 b0 0b 66
        E 16 b0 0b 5d
        E 16 b0 0b 55
        E 16 b0 0b 4c
        E 16 b0 0b 44
        E 16 b0 0b 08
        E 16 b0 0b 2a
        E 16 b0 0b 22
        E 16 b0 0b 19
        E 16 b0 0b 11
        E 96 b0 0b 2a
        E 0 80 35 00
        E 0 90 30 2a
        E 16 b0 0b 33
        E 32 b0 0b 55
        E 16 b0 0b 5d
        E 16 b0 0b 66
        E 16 b0 0b 5d
        E 16 b0 0b 55
        E 16 b0 0b 4c
        E 16 b0 0b 44
        E 16 b0 0b 3b
        E 80 b0 0b 08
        E 16 b0 0b 2a
        E 16 b0 0b 22
        E 16 b0 0b 19
        E 16 b0 0b 11
        E 16 b0 0b 2a
        E 0 80 30 00
        E 0 90 37 2a
        E 16 b0 0b 33
        E 32 b0 0b 55
        E 16 b0 0b 5d
        E 16 b0 0b 08
        E 16 b0 0b 2a
        E 16 b0 0b 22
        E 16 b0 0b 19
        E 16 b0 0b 11
        E 16 b0 0b 2a
        E 0 80 37 00
        E 0 90 30 2a
        E 16 b0 0b 33
        E 32 b0 0b 55
        E 16 b0 0b 5d
        E 16 b0 0b 08
        E 16 b0 0b 2a
        E 16 b0 0b 22
        E 16 b0 0b 19
        E 16 b0 0b 11
        E 16 b0 0b 2a
        E 0 80 30 00
        E 0 90 35 2a
        E 16 b0 0b 33
        E 32 b0 0b 55
        E 16 b0 0b 5d
        E 16 b0 0b 08
        E 16 b0 0b 2a
        E 16 b0 0b 22
        E 16 b0 0b 19
        E 16 b0 0b 11
        E 16 b0 0b 2a
        E 0 80 35 00
        E 0 90 30 2a
        E 16 b0 0b 33
        E 32 b0 0b 55
        E 16 b0 0b 5d
        E 16 b0 0b 08
        E 16 b0 0b 2a
        E 16 b0 0b 22
        E 16 b0 0b 19
        E 16 b0 0b 11
        E 16 b0 0b 2a
        E 0 80 30 00
        E 0 90 33 2a
        E 16 b0 0b 33
        E 32 b0 0b 55
        E 16 b0 0b 5d
        E 16 b0 0b 66
        E 16 b0 0b 5d
        E 16 b0 0b 55
        E 16 b0 0b 4c
        E 16 b0 0b 44
        E 16 b0 0b 08
        E 16 b0 0b 2a
        E 16 b0 0b 22
        E 16 b0 0b 19
        E 16 b0 0b 11
        E 96 b0 0b 2a
        E 0 80 33 00
        E 0 90 28 2a
        E 16 b0 0b 33
        E 32 b0 0b 55
        E 16 b0 0b 5d
        E 16 b0 0b 66
        E 16 b0 0b 5d
        E 16 b0 0b 55
        E 16 b0 0b 4c
        E 16 b0 0b 44
        E 16 b0 0b 3b
        E 80 b0 0b 08
        E 16 b0 0b 2a
        E 16 b0 0b 22
        E 16 b0 0b 19
        E 16 b0 0b 11
        E 16 b0 0b 2a
        E 0 80 28 00
        E 0 90 2b 2a
        E 16 b0 0b 33
        E 32 b0 0b 55
        E 16 b0 0b 5d
        E 16 b0 0b 08
        E 16 b0 0b 2a
        E 16 b0 0b 22
        E 16 b0 0b 19
        E 16 b0 0b 11
        E 16 b0 0b 2a
        E 0 80 2b 00
        E 0 90 35 2a
        E 16 b0 0b 33
        E 32 b0 0b 55
        E 16 b0 0b 5d
        E 16 b0 0b 08
        E 16 b0 0b 2a
        E 16 b0 0b 22
        E 16 b0 0b 19
        E 16 b0 0b 11
        E 16 b0 0b 2a
        E 0 80 35 00
        E 0 90 27 2a
        E 16 b0 0b 33
        E 32 b0 0b 55
        E 16 b0 0b 5d
        E 16 b0 0b 08
        E 16 b0 0b 2a
        E 16 b0 0b 22
        E 16 b0 0b 19
        E 16 b0 0b 11
        E 16 b0 0b 2a
        E 0 80 27 00
        E 0 90 35 2a
        E 16 b0 0b 33
        E 32 b0 0b 55
        E 16 b0 0b 5d
        E 16 b0 0b 08
        E 16 b0 0b 2a
        E 16 b0 0b 22
        E 16 b0 0b 19
        E 16 b0 0b 11
        E 16 b0 0b 2a
        E 0 80 35 00
        E 0 90 2e 2a
        E 16 b0 0b 33
        E 0 80 2e 00
        E 0 90 31 33
        E 32 b0 0b 55
        E 0 80 31 00
        E 0 90 32 55
        E 16 b0 0b 5d
        E 16 b0 0b 66
        E 16 b0 0b 5d
        E 16 b0 0b 55
        E 16 b0 0b 4c
        E 16 b0 0b 44
        E 16 b0 0b 2a
        E 0 80 32 00
        E 0 90 33 2a
        E 16 b0 0b 33
        E 32 b0 0b 55
        E 16 b0 0b 5d
        E 16 b0 0b 08
        E 16 b0 0b 2a
        E 16 b0 0b 22
        E 16 b0 0b 19
        E 16 b0 0b 11
        E 16 b0 0b 2a
        E 0 80 33 00
        E 0 90 32 2a
        E 16 b0 0b 33
        E 32 b0 0b 55
        E 16 b0 0b 5d
        E 16 b0 0b 66
        E 16 b0 0b 5d
        E 16 b0 0b 55
        E 16 b0 0b 4c
        E 16 b0 0b 44
        E 16 b0 0b 3b
        E 1040 b0 0b 08
        E 16 b0 0b 2a
        E 16 b0 0b 22
        E 16 b0 0b 19
        E 16 b0 0b 11
        E 16 b0 0b 2a
        E 0 80 32 00
        E 0 90 30 2a
        E 16 b0 0b 33
        E 32 b0 0b 55
        E 16 b0 0b 5d
        E 16 b0 0b 66
        E 16 b0 0b 5d
        E 16 b0 0b 55
        E 16 b0 0b 4c
        E 16 b0 0b 44
        E 16 b0 0b 3b
        E 80 b0 0b 08
        E 16 b0 0b 2a
        E 16 b0 0b 22
        E 16 b0 0b 19
        E 16 b0 0b 11
        E 16 b0 0b 2a
        E 16 b0 0b 33
        E 32 b0 0b 55
        E 16 b0 0b 5d
        E 16 b0 0b 08
        E 16 b0 0b 2a
        E 16 b0 0b 22
        E 16 b0 0b 19
        E 16 b0 0b 11
        E 16 b0 0b 2a
        E 16 b0 0b 33
        E 32 b0 0b 55
        E 16 b0 0b 5d
        E 16 b0 0b 08
        E 16 b0 0b 2a
        E 16 b0 0b 22
        E 16 b0 0b 19
        E 16 b0 0b 11
        E 16 b0 0b 2a
        E 0 80 30 00
        E 0 90 33 2a
        E 16 b0 0b 33
        E 32 b0 0b 55
        E 16 b0 0b 5d
        E 16 b0 0b 08
        E 16 b0 0b 2a
        E 16 b0 0b 22
        E 16 b0 0b 19
        E 16 b0 0b 11
        E 16 b0 0b 2a
        E 0 80 33 00
        E 0 90 30 2a
        E 16 b0 0b 33
        E 32 b0 0b 55
        E 16 b0 0b 5d
        E 16 b0 0b 08
        E 16 b0 0b 2a
        E 16 b0 0b 22
        E 16 b0 0b 19
        E 16 b0 0b 11
        E 16 b0 0b 2a
        E 0 80 30 00
        E 0 90 35 2a
        E 16 b0 0b 33
        E 32 b0 0b 55
        E 16 b0 0b 5d
        E 16 b0 0b 66
        E 16 b0 0b 5d
        E 16 b0 0b 55
        E 16 b0 0b 4c
        E 16 b0 0b 44
        E 16 b0 0b 08
        E 16 b0 0b 2a
        E 16 b0 0b 22
        E 16 b0 0b 19
        E 16 b0 0b 11
        E 96 b0 0b 2a
        E 0 80 35 00
        E 0 90 30 2a
        E 16 b0 0b 33
        E 0 80 30 00
        E 0 90 35 33
        E 32 b0 0b 55
        E 0 80 35 00
        E 0 90 36 55
        E 16 b0 0b 5d
        E 16 b0 0b 66
        E 16 b0 0b 5d
        E 16 b0 0b 55
        E 16 b0 0b 4c
        E 16 b0 0b 44
        E 16 b0 0b 3b
        E 160 b0 0b 2a
        E 0 80 36 00
        E 0 90 37 2a
        E 16 b0 0b 33
        E 32 b0 0b 55
        E 16 b0 0b 5d
        E 16 b0 0b 08
        E 16 b0 0b 2a
        E 16 b0 0b 22
        E 16 b0 0b 19
        E 16 b0 0b 11
        E 16 b0 0b 2a
        E 0 80 37 00
        E 0 90 30 2a
        E 16 b0 0b 33
        E 32 b0 0b 55
        E 16 b0 0b 5d
        E 16 b0 0b 08
        E 16 b0 0b 2a
        E 16 b0 0b 22
        E 16 b0 0b 19
        E 16 b0 0b 11
        E 16 b0 0b 2a
        E 0 80 30 00
        E 0 90 35 2a
        E 16 b0 0b 33
        E 32 b0 0b 55
        E 16 b0 0b 5d
        E 16 b0 0b 08
        E 16 b0 0b 2a
        E 16 b0 0b 22
        E 16 b0 0b 19
        E 16 b0 0b 11
        E 16 b0 0b 2a
        E 0 80 35 00
        E 0 90 30 2a
        E 16 b0 0b 33
        E 32 b0 0b 55
        E 16 b0 0b 5d
        E 16 b0 0b 08
        E 16 b0 0b 2a
        E 16 b0 0b 22
        E 16 b0 0b 19
        E 16 b0 0b 11
        E 16 b0 0b 2a
        E 0 80 30 00
        E 0 90 33 2a
        E 16 b0 0b 33
        E 32 b0 0b 55
        E 16 b0 0b 5d
        E 16 b0 0b 66
        E 16 b0 0b 5d
        E 16 b0 0b 55
        E 16 b0 0b 4c
        E 16 b0 0b 44
        E 16 b0 0b 08
        E 16 b0 0b 2a
        E 16 b0 0b 22
        E 16 b0 0b 19
        E 16 b0 0b 11
        E 96 b0 0b 2a
        E 0 80 33 00
        E 0 90 28 2a
        E 16 b0 0b 33
        E 32 b0 0b 55
        E 16 b0 0b 5d
        E 16 b0 0b 66
        E 16 b0 0b 5d
        E 16 b0 0b 55
        E 16 b0 0b 4c
        E 16 b0 0b 44
        E 16 b0 0b 3b
        E 80 b0 0b 08
        E 16 b0 0b 2a
        E 16 b0 0b 22
        E 16 b0 0b 19
        E 16 b0 0b 11
        E 16 b0 0b 2a
        E 0 80 28 00
        E 0 90 2b 2a
        E 16 b0 0b 33
        E 32 b0 0b 55
        E 16 b0 0b 5d
        E 16 b0 0b 08
        E 16 b0 0b 2a
        E 16 b0 0b 22
        E 16 b0 0b 19
        E 16 b0 0b 11
        E 16 b0 0b 2a
        E 0 80 2b 00
        E 0 90 35 2a
        E 16 b0 0b 33
        E 32 b0 0b 55
        E 16 b0 0b 5d
        E 16 b0 0b 08
        E 16 b0 0b 2a
        E 16 b0 0b 22
        E 16 b0 0b 19
        E 16 b0 0b 11
        E 16 b0 0b 2a
        E 0 80 35 00
        E 0 90 2e 2a
        E 16 b0 0b 33
        E 32 b0 0b 55
        E 16 b0 0b 5d
        E 16 b0 0b 08
        E 16 b0 0b 2a
        E 16 b0 0b 22
        E 16 b0 0b 19
        E 16 b0 0b 11
        E 16 b0 0b 2a
        E 0 80 2e 00
        E 0 90 30 2a
        E 16 b0 0b 33
        E 0 80 30 00
        E 0 90 31 33
        E 32 b0 0b 55
        E 0 80 31 00
        E 0 90 32 55
        E 16 b0 0b 5d
        E 16 b0 0b 66
        E 16 b0 0b 5d
        E 16 b0 0b 55
        E 16 b0 0b 4c
        E 16 b0 0b 44
        E 16 b0 0b 2a
        E 0 80 32 00
        E 0 90 33 2a
        E 16 b0 0b 33
        E 32 b0 0b 55
        E 16 b0 0b 5d
        E 16 b0 0b 08
        E 16 b0 0b 2a
        E 16 b0 0b 22
        E 16 b0 0b 19
        E 16 b0 0b 11
        E 16 b0 0b 2a
        E 0 80 33 00
        E 0 90 32 2a
        E 16 b0 0b 33
        E 32 b0 0b 55
        E 16 b0 0b 5d
        E 16 b0 0b 08
        E 16 b0 0b 2a
        E 16 b0 0b 22
        E 16 b0 0b 19
        E 16 b0 0b 11
        E 16 b0 0b 2a
        E 0 80 32 00
        E 0 90 2e 2a
        E 16 b0 0b 33
        E 32 b0 0b 55
        E 16 b0 0b 5d
        E 16 b0 0b 66
        E 16 b0 0b 5d
        E 16 b0 0b 55
        E 16 b0 0b 4c
        E 16 b0 0b 44
        E 16 b0 0b 3b
        E 1200 b0 0b 08
        E 16 b0 0b 2a
        E 16 b0 0b 22
        E 16 b0 0b 19
        E 16 b0 0b 11
        E 16 b0 0b 2a
        E 0 80 2e 00
        E 0 90 30 2a
        E 16 b0 0b 33
        E 16 80 30 00
        E 0 90 35 33
        E 16 b0 0b 55
        E 16 b0 0b 5d
        E 0 80 35 00
        E 0 90 36 5d
        E 16 b0 0b 66
        E 16 b0 0b 5d
        E 16 b0 0b 55
        E 16 b0 0b 4c
        E 16 b0 0b 44
        E 16 b0 0b 3b
        E 640 b0 0b 2a
        E 0 80 36 00
        E 0 90 37 2a
        E 16 b0 0b 33
        E 32 b0 0b 55
        E 16 b0 0b 5d
        E 16 b0 0b 08
        E 16 b0 0b 2a
        E 16 b0 0b 22
        E 16 b0 0b 19
        E 16 b0 0b 11
        E 16 b0 0b 2a
        E 0 80 37 00
        E 0 90 35 2a
        E 16 b0 0b 33
        E 32 b0 0b 55
        E 16 b0 0b 5d
        E 16 b0 0b 08
        E 16 b0 0b 2a
        E 16 b0 0b 22
        E 16 b0 0b 19
        E 16 b0 0b 11
        E 16 b0 0b 2a
        E 0 80 35 00
        E 0 90 33 2a
        E 16 b0 0b 33
        E 32 b0 0b 55
        E 16 b0 0b 5d
        E 16 b0 0b 66
        E 16 b0 0b 5d
        E 16 b0 0b 55
        E 16 b0 0b 4c
        E 16 b0 0b 44
        E 16 b0 0b 3b
        E 560 b0 0b 08
        E 16 b0 0b 2a
        E 16 b0 0b 22
        E 16 b0 0b 19
        E 16 b0 0b 11
        E 16 b0 0b 2a
        E 0 80 33 00
        E 0 90 32 2a
        E 16 b0 0b 33
        E 32 b0 0b 55
        E 16 b0 0b 5d
        E 16 b0 0b 66
        E 16 b0 0b 5d
        E 16 b0 0b 55
        E 16 b0 0b 4c
        E 16 b0 0b 44
        E 16 b0 0b 08
        E 16 b0 0b 2a
        E 16 b0 0b 22
        E 16 b0 0b 19
        E 16 b0 0b 11
        E 16 b0 0b 2a
        E 0 80 32 00
        E 0 90 33 2a
        E 16 b0 0b 33
        E 32 b0 0b 55
        E 16 b0 0b 5d
        E 16 b0 0b 66
        E 16 b0 0b 5d
        E 16 b0 0b 55
        E 16 b0 0b 4c
        E 16 b0 0b 44
        E 16 b0 0b 08
        E 16 b0 0b 2a
        E 16 b0 0b 22
        E 16 b0 0b 19
        E 16 b0 0b 11
        E 16 b0 0b 2a
        E 0 80 33 00
        E 0 90 35 2a
        E 16 b0 0b 33
        E 32 b0 0b 55
        E 0 80 35 00
        E 0 90 36 55
        E 16 b0 0b 5d
        E 16 b0 0b 66
        E 16 b0 0b 5d
        E 16 b0 0b 55
        E 16 b0 0b 4c
        E 16 b0 0b 44
        E 16 b0 0b 3b
        E 800 80 36 00
        E 0 90 37 3b
        E 320 b0 0c 20
        E 0 b0 0b 22
        E 16 b0 0b 33
        E 0 80 37 00
        E 0 90 35 33
        E 16 b0 0b 4c
        E 16 b0 0b 44
        E 0 80 35 00
        E 0 90 36 44
        E 240 b0 0b 3b
        E 32 b0 0b 22
        E 0 80 36 00
        E 0 90 37 22
        E 16 b0 0b 33
        E 0 80 37 00
        E 0 90 35 33
        E 16 b0 0b 4c
        E 16 b0 0b 44
        E 0 80 35 00
        E 0 90 36 44
        E 112 b0 0b 22
        E 0 80 36 00
        E 0 90 5c 22
        E 16 b0 0b 33
        E 16 b0 0b 4c
        E 16 b0 0b 44
        E 112 b0 0b 08
        E 16 b0 0b 2a
        E 16 b0 0b 22
        E 16 b0 0b 19
        E 16 b0 0b 11
        E 96 b0 0b 22
        E 0 80 5c 00
        E 0 90 39 22
        E 16 b0 0b 33
        E 16 b0 0b 4c
        E 16 b0 0b 44
        E 192 b0 0b 08
        E 16 b0 0b 2a
        E 16 b0 0b 22
        E 16 b0 0b 19
        E 16 b0 0b 11
        E 16 b0 0b 08
        E 0 80 39 00
        E 0 90 3a 08
        E 320 b0 0c 40
        E 0 b0 0b 2a
        E 0 80 3a 00
        E 0 90 2d 2a
        E 16 b0 0b 33
        E 16 80 2d 00
        E 0 90 35 33
        E 16 b0 0b 55
        E 16 b0 0b 5d
        E 0 80 35 00
        E 0 90 36 5d
        E 16 b0 0b 66
        E 16 b0 0b 5d
        E 16 b0 0b 55
        E 16 b0 0b 4c
        E 16 b0 0b 44
        E 16 b0 0b 3b
        E 640 b0 0b 2a
        E 0 80 36 00
        E 0 90 37 2a
        E 16 b0 0b 33
        E 32 b0 0b 55
        E 16 b0 0b 5d
        E 16 b0 0b 08
        E 16 b0 0b 2a
        E 16 b0 0b 22
        E 16 b0 0b 19
        E 16 b0 0b 11
        E 16 b0 0b 2a
        E 0 80 37 00
        E 0 90 35 2a
        E 16 b0 0b 33
        E 32 b0 0b 55
        E 16 b0 0b 5d
        E 16 b0 0b 08
        E 16 b0 0b 2a
        E 16 b0 0b 22
        E 16 b0 0b 19
        E 16 b0 0b 11
        E 16 b0 0b 2a
        E 0 80 35 00
        E 0 90 33 2a
        E 16 b0 0b 33
        E 32 b0 0b 55
        E 16 b0 0b 5d
        E 16 b0 0b 66
        E 16 b0 0b 5d
        E 16 b0 0b 55
        E 16 b0 0b 4c
        E 16 b0 0b 44
        E 16 b0 0b 3b
        E 560 b0 0b 08
        E 16 b0 0b 2a
        E 16 b0 0b 22
        E 16 b0 0b 19
        E 16 b0 0b 11
        E 16 b0 0b 2a
        E 0 80 33 00
        E 0 90 32 2a
        E 16 b0 0b 33
        E 32 b0 0b 55
        E 16 b0 0b 5d
        E 16 b0 0b 66
        E 16 b0 0b 5d
        E 16 b0 0b 55
        E 16 b0 0b 4c
        E 16 b0 0b 44
        E 16 b0 0b 08
        E 16 b0 0b 2a
        E 16 b0 0b 22
        E 16 b0 0b 19
        E 16 b0 0b 11
        E 16 b0 0b 2a
        E 0 80 32 00
        E 0 90 33 2a
        E 16 b0 0b 33
        E 32 b0 0b 55
        E 16 b0 0b 5d
        E 16 b0 0b 66
        E 16 b0 0b 5d
        E 16 b0 0b 55
        E 16 b0 0b 4c
        E 16 b0 0b 44
        E 16 b0 0b 08
        E 16 b0 0b 2a
        E 16 b0 0b 22
        E 16 b0 0b 19
        E 16 b0 0b 11
        E 16 b0 0b 2a
        E 0 80 33 00
        E 0 90 35 2a
        E 16 b0 0b 33
        E 32 b0 0b 55
        E 16 b0 0b 5d
        E 16 b0 0b 66
        E 16 b0 0b 5d
        E 16 b0 0b 55
        E 16 b0 0b 4c
        E 16 b0 0b 44
        E 16 b0 0b 3b
        E 1120 80 35 00
        E 0 90 30 3b
        E 320 b0 0c 20
        E 0 b0 0b 77
        E 16 b0 0b 5d
        E 16 b0 0b 55
        E 16 b0 0b 4c
        E 32 b0 0b 08
        E 16 b0 0b 2a
        E 16 b0 0b 22
        E 16 b0 0b 19
        E 16 b0 0b 11
        E 16 b0 0b 77
        E 16 b0 0b 5d
        E 16 b0 0b 55
        E 16 b0 0b 4c
        E 32 b0 0b 08
        E 16 b0 0b 2a
        E 16 b0 0b 22
        E 16 b0 0b 19
        E 16 b0 0b 11
        E 16 b0 0b 77
        E 16 b0 0b 5d
        E 16 b0 0b 55
        E 16 b0 0b 4c
        E 32 b0 0b 08
        E 16 b0 0b 2a
        E 16 b0 0b 22
        E 16 b0 0b 19
        E 16 b0 0b 11
        E 16 b0 0b 77
        E 16 b0 0b 5d
        E 16 b0 0b 55
        E 16 b0 0b 4c
        E 32 b0 0b 08
        E 16 b0 0b 2a
        E 16 b0 0b 22
        E 16 b0 0b 19
        E 16 b0 0b 11
        E 16 b0 0b 08
        E 480 b0 0c 10
        E 0 b0 0b 22
        E 16 b0 0b 33
        E 16 b0 0b 4c
        E 16 b0 0b 44
        E 240 b0 0b 3b
        E 240 b0 0b 33
        E 32 b0 0b 08
        E 16 b0 0b 2a
        E 16 b0 0b 22
        E 16 b0 0b 19
        E 16 b0 0b 11
        E 16 b0 0b 22
        E 16 b0 0b 33
        E 16 b0 0b 4c
        E 16 b0 0b 44
        E 240 b0 0b 3b
        E 240 b0 0b 33
        E 32 b0 0b 08
        E 16 b0 0b 2a
        E 16 b0 0b 22
        E 16 b0 0b 19
        E 16 b0 0b 11
        E 16 b0 0b 22
        E 16 b0 0b 33
        E 16 b0 0b 4c
        E 16 b0 0b 44
        E 240 b0 0b 3b
        E 112 b0 0b 08
        E 16 b0 0b 2a
        E 16 b0 0b 22
        E 16 b0 0b 19
        E 16 b0 0b 11
        E 16 b0 0b 22
        E 16 b0 0b 33
        E 16 b0 0b 4c
        E 16 b0 0b 44
        E 240 b0 0b 3b
        E 240 b0 0b 33
        E 112 b0 0b 08
        E 16 b0 0b 2a
        E 16 b0 0b 22
        E 16 b0 0b 19
        E 16 b0 0b 11
        E 96 b0 0b 22
        E 16 b0 0b 33
        E 16 b0 0b 4c
        E 16 b0 0b 44
        E 240 b0 0b 3b
        E 240 b0 0b 33
        E 32 b0 0b 08
        E 16 b0 0b 2a
        E 16 b0 0b 22
        E 16 b0 0b 19
        E 16 b0 0b 11
        E 16 b0 0b 22
        E 16 b0 0b 33
        E 16 b0 0b 4c
        E 16 b0 0b 44
        E 240 b0 0b 3b
        E 240 b0 0b 33
        E 32 b0 0b 08
        E 16 b0 0b 2a
        E 16 b0 0b 22
        E 16 b0 0b 19
        E 16 b0 0b 11
        E 16 b0 0b 22
        E 16 b0 0b 33
        E 16 b0 0b 4c
        E 16 b0 0b 44
        E 240 b0 0b 3b
        E 112 b0 0b 08
        E 16 b0 0b 2a
        E 16 b0 0b 22
        E 16 b0 0b 19
        E 16 b0 0b 11
        E 16 b0 0b 22
        E 16 b0 0b 33
        E 16 b0 0b 4c
        E 16 b0 0b 44
        E 240 b0 0b 3b
        E 240 b0 0b 33
        E 112 b0 0b 08
        E 16 b0 0b 2a
        E 16 b0 0b 22
        E 16 b0 0b 19
        E 16 b0 0b 11
        E 96 b0 0b 22
        E 16 b0 0b 33
        E 16 b0 0b 4c
        E 16 b0 0b 44
        E 240 b0 0b 3b
        E 240 b0 0b 33
        E 32 b0 0b 08
        E 16 b0 0b 2a
        E 16 b0 0b 22
        E 16 b0 0b 19
        E 16 b0 0b 11
        E 16 b0 0b 22
        E 16 b0 0b 33
        E 16 b0 0b 4c
        E 16 b0 0b 44
        E 240 b0 0b 3b
        E 240 b0 0b 33
        E 32 b0 0b 08
        E 16 b0 0b 2a
        E 16 b0 0b 22
        E 16 b0 0b 19
        E 16 b0 0b 11
        E 16 b0 0b 22
        E 16 b0 0b 33
        E 16 b0 0b 4c
        E 16 b0 0b 44
        E 240 b0 0b 3b
        E 112 b0 0b 08
        E 16 b0 0b 2a
        E 16 b0 0b 22
        E 16 b0 0b 19
        E 16 b0 0b 11
        E 16 b0 0b 22
        E 16 b0 0b 33
        E 16 b0 0b 4c
        E 16 b0 0b 44
        E 240 b0 0b 3b
        E 240 b0 0b 33
        E 112 b0 0b 08
        E 16 b0 0b 2a
        E 16 b0 0b 22
        E 16 b0 0b 19
        E 16 b0 0b 11
        E 96 b0 0b 22
        E 16 b0 0b 33
        E 16 b0 0b 4c
        E 16 b0 0b 44
        E 240 b0 0b 3b
        E 240 b0 0b 33
        E 32 b0 0b 08
        E 16 b0 0b 2a
        E 16 b0 0b 22
        E 16 b0 0b 19
        E 16 b0 0b 11
        E 16 b0 0b 22
        E 0 80 30 00
        E 0 90 32 22
        E 16 b0 0b 33
        E 16 b0 0b 4c
        E 16 b0 0b 44
        E 240 b0 0b 3b
        E 240 b0 0b 33
        E 32 b0 0b 08
        E 16 b0 0b 2a
        E 16 b0 0b 22
        E 16 b0 0b 19
        E 16 b0 0b 11
        E 16 b0 0b 22
        E 16 b0 0b 33
        E 16 b0 0b 4c
        E 16 b0 0b 44
        E 240 b0 0b 3b
        E 112 b0 0b 08
        E 16 b0 0b 2a
        E 16 b0 0b 22
        E 16 b0 0b 19
        E 16 b0 0b 11
        E 16 b0 0b 22
        E 16 b0 0b 33
        E 16 b0 0b 4c
        E 16 b0 0b 44
        E 240 b0 0b 3b
        E 240 b0 0b 33
        E 112 b0 0b 08
        E 16 b0 0b 2a
        E 16 b0 0b 22
        E 16 b0 0b 19
        E 16 b0 0b 11
        E 96 b0 0b 22
        E 16 b0 0b 33
        E 16 b0 0b 4c
        E 16 b0 0b 44
        E 192 b0 0b 08
        E 16 b0 0b 2a
        E 16 b0 0b 22
        E 16 b0 0b 19
        E 16 b0 0b 11
        E 16 b0 0b 22
        E 0 80 32 00
        E 0 90 30 22
        E 16 b0 0b 33
        E 16 b0 0b 4c
        E 16 b0 0b 44
        E 192 b0 0b 08
        E 16 b0 0b 2a
        E 16 b0 0b 22
        E 16 b0 0b 19
        E 16 b0 0b 11
        E 16 b0 0b 22
        E 16 b0 0b 33
        E 16 b0 0b 4c
        E 16 b0 0b 44
        E 112 b0 0b 08
        E 16 b0 0b 2a
        E 16 b0 0b 22
        E 16 b0 0b 19
        E 16 b0 0b 11
        E 16 b0 0b 22
        E 16 b0 0b 33
        E 16 b0 0b 4c
        E 16 b0 0b 44
        E 112 b0 0b 08
        E 16 b0 0b 2a
        E 16 b0 0b 22
        E 16 b0 0b 19
        E 16 b0 0b 11
        E 16 b0 0b 22
        E 16 b0 0b 33
        E 16 b0 0b 4c
        E 16 b0 0b 44
        E 240 b0 0b 3b
        E 112 b0 0b 08
        E 16 b0 0b 2a
        E 16 b0 0b 22
        E 16 b0 0b 19
        E 16 b0 0b 11
        E 16 b0 0b 22
        E 16 b0 0b 33
        E 16 b0 0b 4c
        E 16 b0 0b 44
        E 192 b0 0b 08
        E 16 b0 0b 2a
        E 16 b0 0b 22
        E 16 b0 0b 19
        E 16 b0 0b 11
        E 16 b0 0b 22
        E 16 b0 0b 33
        E 16 b0 0b 4c
        E 16 b0 0b 44
        E 112 b0 0b 08
        E 16 b0 0b 2a
        E 16 b0 0b 22
        E 16 b0 0b 19
        E 16 b0 0b 11
        E 16 b0 0b 22
        E 16 b0 0b 33
        E 16 b0 0b 4c
        E 16 b0 0b 44
        E 112 b0 0b 08
        E 16 b0 0b 2a
        E 16 b0 0b 22
        E 16 b0 0b 19
        E 16 b0 0b 11
        E 16 b0 0b 22
        E 16 b0 0b 33
        E 16 b0 0b 4c
        E 16 b0 0b 44
        E 240 b0 0b 3b
        E 112 b0 0b 08
        E 16 b0 0b 2a
        E 16 b0 0b 22
        E 16 b0 0b 19
        E 16 b0 0b 11
        E 16 b0 0b 22
        E 16 b0 0b 33
        E 16 b0 0b 4c
        E 16 b0 0b 44
        E 192 b0 0b 08
        E 16 b0 0b 2a
        E 16 b0 0b 22
        E 16 b0 0b 19
        E 16 b0 0b 11
        E 16 b0 0b 22
        E 16 b0 0b 33
        E 16 b0 0b 4c
        E 16 b0 0b 44
        E 112 b0 0b 08
        E 16 b0 0b 2a
        E 16 b0 0b 22
        E 16 b0 0b 19
        E 16 b0 0b 11
        E 16 b0 0b 22
        E 16 b0 0b 33
        E 16 b0 0b 4c
        E 16 b0 0b 44
        E 112 b0 0b 08
        E 16 b0 0b 2a
        E 16 b0 0b 22
        E 16 b0 0b 19
        E 16 b0 0b 11
        E 16 b0 0b 22
        E 16 b0 0b 33
        E 16 b0 0b 4c
        E 16 b0 0b 44
        E 240 b0 0b 3b
        E 240 b0 0b 33
        E 32 b0 0b 08
        E 16 b0 0b 2a
        E 16 b0 0b 22
        E 16 b0 0b 19
        E 16 b0 0b 11
        E 16 b0 0b 22
        E 16 b0 0b 33
        E 16 b0 0b 4c
        E 16 b0 0b 44
        E 240 b0 0b 3b
        E 240 b0 0b 33
        E 32 b0 0b 08
        E 16 b0 0b 2a
        E 16 b0 0b 22
        E 16 b0 0b 19
        E 16 b0 0b 11
        E 16 b0 0b 22
        E 0 80 30 00
        E 0 90 2e 22
        E 16 b0 0b 33
        E 16 b0 0b 4c
        E 16 b0 0b 44
        E 240 b0 0b 3b
        E 112 b0 0b 08
        E 16 b0 0b 2a
        E 16 b0 0b 22
        E 16 b0 0b 19
        E 16 b0 0b 11
        E 16 b0 0b 22
        E 0 80 2e 00
        E 0 90 30 22
        E 16 b0 0b 33
        E 16 b0 0b 4c
        E 16 b0 0b 44
        E 192 b0 0b 08
        E 16 b0 0b 2a
        E 16 b0 0b 22
        E 16 b0 0b 19
        E 16 b0 0b 11
        E 16 b0 0b 22
        E 16 b0 0b 33
        E 16 b0 0b 4c
        E 16 b0 0b 44
        E 112 b0 0b 08
        E 16 b0 0b 2a
        E 16 b0 0b 22
        E 16 b0 0b 19
        E 16 b0 0b 11
        E 16 b0 0b 22
        E 16 b0 0b 33
        E 16 b0 0b 4c
        E 16 b0 0b 44
        E 112 b0 0b 08
        E 16 b0 0b 2a
        E 16 b0 0b 22
        E 16 b0 0b 19
        E 16 b0 0b 11
        E 16 b0 0b 22
        E 16 b0 0b 33
        E 16 b0 0b 4c
        E 16 b0 0b 44
        E 240 b0 0b 3b
        E 112 b0 0b 08
        E 16 b0 0b 2a
        E 16 b0 0b 22
        E 16 b0 0b 19
        E 16 b0 0b 11
        E 16 b0 0b 22
        E 16 b0 0b 33
        E 16 b0 0b 4c
        E 16 b0 0b 44
        E 192 b0 0b 08
        E 16 b0 0b 2a
        E 16 b0 0b 22
        E 16 b0 0b 19
        E 16 b0 0b 11
        E 16 b0 0b 22
        E 16 b0 0b 33
        E 16 b0 0b 4c
        E 16 b0 0b 44
        E 112 b0 0b 08
        E 16 b0 0b 2a
        E 16 b0 0b 22
        E 16 b0 0b 19
        E 16 b0 0b 11
        E 16 b0 0b 22
        E 16 b0 0b 33
        E 16 b0 0b 4c
        E 16 b0 0b 44
        E 112 b0 0b 08
        E 16 b0 0b 2a
        E 16 b0 0b 22
        E 16 b0 0b 19
        E 16 b0 0b 11
        E 16 b0 0b 22
        E 16 b0 0b 33
        E 16 b0 0b 4c
        E 16 b0 0b 44
        E 240 b0 0b 3b
        E 112 b0 0b 08
        E 16 b0 0b 2a
        E 16 b0 0b 22
        E 16 b0 0b 19
        E 16 b0 0b 11
        E 16 b0 0b 22
        E 16 b0 0b 33
        E 16 b0 0b 4c
        E 16 b0 0b 44
        E 192 b0 0b 08
        E 16 b0 0b 2a
        E 16 b0 0b 22
        E 16 b0 0b 19
        E 16 b0 0b 11
        E 16 b0 0b 22
        E 16 b0 0b 33
        E 16 b0 0b 4c
        E 16 b0 0b 44
        E 112 b0 0b 08
        E 16 b0 0b 2a
        E 16 b0 0b 22
        E 16 b0 0b 19
        E 16 b0 0b 11
        E 16 b0 0b 22
        E 0 80 30 00
        E 0 90 32 22
        E 16 b0 0b 33
        E 16 b0 0b 4c
        E 16 b0 0b 44
        E 112 b0 0b 08
        E 16 b0 0b 2a
        E 16 b0 0b 22
        E 16 b0 0b 19
        E 16 b0 0b 11
        E 16 b0 0b 22
        E 0 80 32 00
        E 0 90 37 22
        E 16 b0 0b 33
        E 16 b0 0b 4c
        E 16 b0 0b 44
        E 240 b0 0b 3b
        E 240 b0 0b 33
        E 240 b0 0b 2a
        E 240 b0 0b 22
        E 240 b0 0b 19
        E 112 b0 0b 08
        E 16 b0 0b 2a
        E 16 b0 0b 22
        E 16 b0 0b 19
        E 16 b0 0b 11
        E 16 80 37 00
        E 320 b0 0b 22
        E 0 90 37 22
        E 160 80 37 00
        E 0 90 30 22
        E 160 80 30 00
        E 0 90 32 22
        E 160 80 32 00
        E 0 90 33 22
        E 160 80 33 00
        E 0 90 35 22
        E 160 80 35 00
        E 0 90 30 22
        E 160 80 30 00
        E 0 90 32 22
        E 160 80 32 00
        E 0 90 33 22
        E 160 80 33 00
        E 0 90 35 22
        E 160 80 35 00
        E 0 90 30 22
        E 160 80 30 00
        E 0 90 32 22
        E 160 80 32 00
        E 0 90 33 22
        E 160 80 33 00
        E 0 90 35 22
        E 160 80 35 00
        E 0 90 30 22
        E 160 80 30 00
        E 0 90 32 22
        E 160 80 32 00
        E 0 90 33 22
        E 160 80 33 00
        E 0 90 35 22
        E 160 80 35 00
        E 0 90 30 22
        E 160 80 30 00
        E 0 90 32 22
        E 160 80 32 00
        E 0 90 33 22
        E 160 80 33 00
        E 0 90 35 22
        E 160 80 35 00
        E 0 90 30 22
        E 160 80 30 00
        E 0 90 32 22
        E 160 80 32 00
        E 0 90 33 22
        E 160 80 33 00
        E 0 90 35 22
        E 160 80 35 00
        E 0 90 30 22
        E 160 80 30 00
        E 0 90 32 22
        E 160 80 32 00
        E 0 90 33 22
        E 160 80 33 00
        E 0 90 35 22
        E 160 80 35 00
        E 0 90 30 22
        E 160 80 30 00
        E 0 90 32 22
        E 160 80 32 00
        E 0 90 33 22
        E 160 80 33 00
        E 0 90 35 22
        E 160 80 35 00
        E 0 90 30 22
        E 160 80 30 00
        E 0 90 32 22
        E 160 80 32 00
        E 0 90 33 22
        E 160 80 33 00
        E 0 90 35 22
        E 160 80 35 00
        E 0 90 30 22
        E 160 80 30 00
        E 0 90 32 22
        E 160 80 32 00
        E 0 90 33 22
        E 160 80 33 00
        E 0 90 35 22
        E 160 80 35 00
        E 0 90 32 22
        E 160 80 32 00
        E 0 90 33 22
        E 160 80 33 00
        E 0 90 35 22
        E 320 80 35 00
        E 0 90 37 22
        E 160 80 37 00
        E 0 90 5e 22
        E 160 80 5e 00
        E 0 90 3a 22
        E 160 80 3a 00
        E 0 90 3c 22
        E 320 80 3c 00
        E 0 90 3e 22
        E 160 80 3e 00
        E 0 90 3f 22
        E 160 80 3f 00
        E 0 90 41 22
        E 160 80 41 00
        E 0 90 3c 22
        E 160 80 3c 00
        E 0 90 3e 22
        E 160 80 3e 00
        E 0 90 3f 22
        E 160 80 3f 00
        E 0 90 41 22
        E 320 80 41 00
        E 0 90 43 22
        E 160 80 43 00
        E 0 90 44 22
        E 160 80 44 00
        E 0 90 46 22
        E 160 80 46 00
        E 0 90 41 22
        E 160 80 41 00
        E 0 90 43 22
        E 160 80 43 00
        E 0 90 44 22
        E 160 80 44 00
        E 0 90 46 22
        E 2240 b0 0b 11
        E 160 b0 0b 08
        E 160 b0 0c 20
        E 0 b0 0b 19
        E 0 80 46 00
        E 0 90 33 19
        E 160 80 33 00
        E 0 90 30 19
        E 160 80 30 00
        E 0 90 33 19
        E 160 80 33 00
        E 0 90 30 19
        E 16 80 30 00
        E 0 90 35 19
        E 32 80 35 00
        E 0 90 36 19
        E 272 80 36 00
        E 0 90 37 19
        E 160 b0 0c 10
        E 0 b0 0b 22
        E 0 80 37 00
        E 0 90 2b 22
        E 16 b0 0b 33
        E 16 b0 0b 4c
        E 16 b0 0b 44
        E 240 b0 0b 3b
        E 112 b0 0b 08
        E 16 b0 0b 2a
        E 16 b0 0b 22
        E 16 b0 0b 19
        E 16 b0 0b 11
        E 16 b0 0b 22
        E 0 80 2b 00
        E 0 90 35 22
        E 16 b0 0b 33
        E 16 b0 0b 4c
        E 16 b0 0b 44
        E 240 b0 0b 3b
        E 240 b0 0b 33
        E 192 b0 0b 08
        E 16 b0 0b 2a
        E 16 b0 0b 22
        E 16 b0 0b 19
        E 16 b0 0b 11
        E 16 80 35 00
        E 304 b0 7b 00
        E 0 ff 2f 00
      >
    >
  >
  <TRACK {267C874F-5C83-4676-A6D9-D1B954307C84}
    NAME "NES - Pulse 2 [ch1]"
    PEAKCOL 10092441
    BEAT -1
    AUTOMODE 0
    PANLAWFLAGS 3
    VOLPAN 1 0 -1 -1 1
    MUTESOLO 0 0 0
    IPHASE 0
    PLAYOFFS 0 1
    ISBUS 0 0
    BUSCOMP 0 0 0 0 0
    SHOWINMIX 1 0.6667 0.5 1 0.5 0 0 0
    FIXEDLANES 9 0 0 0 0
    SEL 0
    REC 0 5088 1 0 0 0 0 0
    VU 2
    TRACKHEIGHT 0 0 0 0 0 0 0
    INQ 0 0 0 0.5 100 0 0 100
    NCHAN 2
    FX 1
    TRACKID {267C874F-5C83-4676-A6D9-D1B954307C84}
    PERF 0
    MIDIOUT -1
    MAINSEND 1 0
    <FXCHAIN
      WNDRECT 24 52 700 560
      SHOW 0
      LASTSEL 0
      DOCKED 0
      BYPASS 0 0 0
      <JS "ReapNES Studio/ReapNES_Console.jsfx" ""
        2 15 1 10 80 10 100 2 1 15 1 5 60 10 80 1 1 0 50 0 0 15 1 0 100 0 0 0.500000 0.500000 0.400000 0.300000 0.800000 1 1 0 0 0 0 - - - - - - - - - - - - - - - - - - - - - - - - - -
      >
      FLOATPOS 0 0 0 0
      FXID {6DB8BD98-CE60-4D8B-B8A2-76C64F5384F9}
      WAK 0 0
    >
    <ITEM
      POSITION 0
      LENGTH 74.63452790000001
      LOOP 0
      ALLTAKES 0
      FADEIN 0 0 0 0 0 0 0
      FADEOUT 0 0 0 0 0 0 0
      MUTE 0 0
      SEL 0
      IGUID {C419037E-7D36-47E7-B3F4-FAEA6496BEBD}
      <SOURCE MIDI
        HASDATA 1 480 QN
        CCINTERP 32
        E 0 c1 51
        E 0 b1 0c 20
        E 0 b1 0b 22
        E 0 91 33 22
        E 16 b1 0b 33
        E 16 b1 0b 4c
        E 16 b1 0b 44
        E 32 b1 0b 08
        E 16 b1 0b 2a
        E 16 b1 0b 22
        E 16 b1 0b 19
        E 16 b1 0b 11
        E 16 b1 0b 22
        E 0 81 33 00
        E 0 91 30 22
        E 16 b1 0b 33
        E 0 81 30 00
        E 0 91 35 33
        E 16 b1 0b 4c
        E 16 b1 0b 44
        E 0 81 35 00
        E 0 91 36 44
        E 240 b1 0b 3b
        E 32 b1 0b 22
        E 0 81 36 00
        E 0 91 37 22
        E 16 b1 0b 33
        E 16 b1 0b 4c
        E 16 b1 0b 44
        E 32 b1 0b 08
        E 16 b1 0b 2a
        E 16 b1 0b 22
        E 16 b1 0b 19
        E 16 b1 0b 11
        E 16 b1 0b 22
        E 0 81 37 00
        E 0 91 35 22
        E 16 b1 0b 33
        E 16 b1 0b 4c
        E 16 b1 0b 44
        E 192 b1 0b 08
        E 16 b1 0b 2a
        E 16 b1 0b 22
        E 16 b1 0b 19
        E 16 b1 0b 11
        E 16 b1 0b 22
        E 0 81 35 00
        E 0 91 33 22
        E 16 b1 0b 33
        E 16 b1 0b 4c
        E 16 b1 0b 44
        E 240 b1 0b 3b
        E 112 b1 0b 08
        E 16 b1 0b 2a
        E 16 b1 0b 22
        E 16 b1 0b 19
        E 16 b1 0b 11
        E 16 b1 0b 22
        E 0 81 33 00
        E 0 91 2e 22
        E 16 b1 0b 33
        E 16 b1 0b 4c
        E 16 b1 0b 44
        E 240 b1 0b 3b
        E 240 b1 0b 33
        E 192 b1 0b 08
        E 16 b1 0b 2a
        E 16 b1 0b 22
        E 16 b1 0b 19
        E 16 b1 0b 11
        E 16 b1 0b 22
        E 0 81 2e 00
        E 0 91 30 22
        E 16 b1 0b 33
        E 16 b1 0b 4c
        E 16 b1 0b 44
        E 32 b1 0b 08
        E 16 b1 0b 2a
        E 16 b1 0b 22
        E 16 b1 0b 19
        E 16 b1 0b 11
        E 16 b1 0b 22
        E 16 b1 0b 33
        E 16 b1 0b 4c
        E 16 b1 0b 44
        E 32 b1 0b 08
        E 16 b1 0b 2a
        E 16 b1 0b 22
        E 16 b1 0b 19
        E 16 b1 0b 11
        E 16 b1 0b 22
        E 0 81 30 00
        E 0 91 33 22
        E 16 b1 0b 33
        E 16 b1 0b 4c
        E 16 b1 0b 44
        E 32 b1 0b 08
        E 16 b1 0b 2a
        E 16 b1 0b 22
        E 16 b1 0b 19
        E 16 b1 0b 11
        E 16 b1 0b 22
        E 0 81 33 00
        E 0 91 30 22
        E 16 b1 0b 33
        E 0 81 30 00
        E 0 91 35 33
        E 16 b1 0b 4c
        E 16 b1 0b 44
        E 0 81 35 00
        E 0 91 36 44
        E 240 b1 0b 3b
        E 32 b1 0b 22
        E 0 81 36 00
        E 0 91 37 22
        E 16 b1 0b 33
        E 16 b1 0b 4c
        E 16 b1 0b 44
        E 32 b1 0b 08
        E 16 b1 0b 2a
        E 16 b1 0b 22
        E 16 b1 0b 19
        E 16 b1 0b 11
        E 16 b1 0b 22
        E 0 81 37 00
        E 0 91 35 22
        E 16 b1 0b 33
        E 16 b1 0b 4c
        E 16 b1 0b 44
        E 192 b1 0b 08
        E 16 b1 0b 2a
        E 16 b1 0b 22
        E 16 b1 0b 19
        E 16 b1 0b 11
        E 16 b1 0b 22
        E 0 81 35 00
        E 0 91 48 22
        E 16 b1 0b 33
        E 16 b1 0b 4c
        E 16 b1 0b 44
        E 240 b1 0b 3b
        E 112 b1 0b 08
        E 16 b1 0b 2a
        E 16 b1 0b 22
        E 16 b1 0b 19
        E 16 b1 0b 11
        E 16 b1 0b 22
        E 0 81 48 00
        E 0 91 3a 22
        E 16 b1 0b 33
        E 16 b1 0b 4c
        E 16 b1 0b 44
        E 240 b1 0b 3b
        E 240 b1 0b 33
        E 192 b1 0b 08
        E 16 b1 0b 2a
        E 16 b1 0b 22
        E 16 b1 0b 19
        E 16 b1 0b 11
        E 16 b1 0b 22
        E 0 81 3a 00
        E 0 91 2d 22
        E 16 b1 0b 33
        E 16 b1 0b 4c
        E 16 b1 0b 44
        E 32 b1 0b 08
        E 16 b1 0b 2a
        E 16 b1 0b 22
        E 16 b1 0b 19
        E 16 b1 0b 11
        E 16 b1 0b 22
        E 0 81 2d 00
        E 0 91 30 22
        E 16 b1 0b 33
        E 16 b1 0b 4c
        E 16 b1 0b 44
        E 32 b1 0b 08
        E 16 b1 0b 2a
        E 16 b1 0b 22
        E 16 b1 0b 19
        E 16 b1 0b 11
        E 16 b1 0b 22
        E 0 81 30 00
        E 0 91 33 22
        E 16 b1 0b 33
        E 16 b1 0b 4c
        E 16 b1 0b 44
        E 32 b1 0b 08
        E 16 b1 0b 2a
        E 16 b1 0b 22
        E 16 b1 0b 19
        E 16 b1 0b 11
        E 16 b1 0b 22
        E 0 81 33 00
        E 0 91 30 22
        E 16 b1 0b 33
        E 0 81 30 00
        E 0 91 35 33
        E 16 b1 0b 4c
        E 16 b1 0b 44
        E 0 81 35 00
        E 0 91 36 44
        E 240 b1 0b 3b
        E 32 b1 0b 22
        E 0 81 36 00
        E 0 91 37 22
        E 16 b1 0b 33
        E 16 b1 0b 4c
        E 16 b1 0b 44
        E 32 b1 0b 08
        E 16 b1 0b 2a
        E 16 b1 0b 22
        E 16 b1 0b 19
        E 16 b1 0b 11
        E 16 b1 0b 22
        E 0 81 37 00
        E 0 91 35 22
        E 16 b1 0b 33
        E 16 b1 0b 4c
        E 16 b1 0b 44
        E 192 b1 0b 08
        E 16 b1 0b 2a
        E 16 b1 0b 22
        E 16 b1 0b 19
        E 16 b1 0b 11
        E 16 b1 0b 22
        E 0 81 35 00
        E 0 91 33 22
        E 16 b1 0b 33
        E 16 b1 0b 4c
        E 16 b1 0b 44
        E 240 b1 0b 3b
        E 112 b1 0b 08
        E 16 b1 0b 2a
        E 16 b1 0b 22
        E 16 b1 0b 19
        E 16 b1 0b 11
        E 16 b1 0b 22
        E 0 81 33 00
        E 0 91 2e 22
        E 16 b1 0b 33
        E 16 b1 0b 4c
        E 16 b1 0b 44
        E 240 b1 0b 3b
        E 240 b1 0b 33
        E 192 b1 0b 08
        E 16 b1 0b 2a
        E 16 b1 0b 22
        E 16 b1 0b 19
        E 16 b1 0b 11
        E 16 b1 0b 22
        E 0 81 2e 00
        E 0 91 30 22
        E 16 b1 0b 33
        E 16 b1 0b 4c
        E 16 b1 0b 44
        E 32 b1 0b 08
        E 16 b1 0b 2a
        E 16 b1 0b 22
        E 16 b1 0b 19
        E 16 b1 0b 11
        E 16 b1 0b 22
        E 16 b1 0b 33
        E 16 b1 0b 4c
        E 16 b1 0b 44
        E 32 b1 0b 08
        E 16 b1 0b 2a
        E 16 b1 0b 22
        E 16 b1 0b 19
        E 16 b1 0b 11
        E 16 b1 0b 22
        E 0 81 30 00
        E 0 91 33 22
        E 16 b1 0b 33
        E 16 b1 0b 4c
        E 16 b1 0b 44
        E 32 b1 0b 08
        E 16 b1 0b 2a
        E 16 b1 0b 22
        E 16 b1 0b 19
        E 16 b1 0b 11
        E 16 b1 0b 22
        E 0 81 33 00
        E 0 91 30 22
        E 16 b1 0b 33
        E 0 81 30 00
        E 0 91 35 33
        E 16 b1 0b 4c
        E 16 b1 0b 44
        E 0 81 35 00
        E 0 91 36 44
        E 240 b1 0b 3b
        E 32 b1 0b 22
        E 0 81 36 00
        E 0 91 37 22
        E 16 b1 0b 33
        E 16 b1 0b 4c
        E 16 b1 0b 44
        E 32 b1 0b 08
        E 16 b1 0b 2a
        E 16 b1 0b 22
        E 16 b1 0b 19
        E 16 b1 0b 11
        E 16 b1 0b 22
        E 0 81 37 00
        E 0 91 35 22
        E 16 b1 0b 33
        E 16 b1 0b 4c
        E 16 b1 0b 44
        E 192 b1 0b 08
        E 16 b1 0b 2a
        E 16 b1 0b 22
        E 16 b1 0b 19
        E 16 b1 0b 11
        E 16 b1 0b 22
        E 0 81 35 00
        E 0 91 48 22
        E 16 b1 0b 33
        E 16 b1 0b 4c
        E 16 b1 0b 44
        E 240 b1 0b 3b
        E 112 b1 0b 08
        E 16 b1 0b 2a
        E 16 b1 0b 22
        E 16 b1 0b 19
        E 16 b1 0b 11
        E 16 b1 0b 22
        E 0 81 48 00
        E 0 91 3a 22
        E 16 b1 0b 33
        E 16 b1 0b 4c
        E 16 b1 0b 44
        E 240 b1 0b 3b
        E 240 b1 0b 33
        E 192 b1 0b 08
        E 16 b1 0b 2a
        E 16 b1 0b 22
        E 16 b1 0b 19
        E 16 b1 0b 11
        E 16 b1 0b 08
        E 0 81 3a 00
        E 0 91 39 08
        E 320 b1 0c 10
        E 0 b1 0b 22
        E 0 81 39 00
        E 0 91 2d 22
        E 16 b1 0b 33
        E 16 b1 0b 4c
        E 16 b1 0b 44
        E 112 b1 0b 08
        E 16 b1 0b 2a
        E 16 b1 0b 22
        E 16 b1 0b 19
        E 16 b1 0b 11
        E 96 b1 0b 22
        E 0 81 2d 00
        E 0 91 33 22
        E 16 b1 0b 33
        E 16 b1 0b 4c
        E 16 b1 0b 44
        E 32 b1 0b 08
        E 16 b1 0b 2a
        E 16 b1 0b 22
        E 16 b1 0b 19
        E 16 b1 0b 11
        E 16 b1 0b 22
        E 0 81 33 00
        E 0 91 32 22
        E 16 b1 0b 33
        E 16 b1 0b 4c
        E 16 b1 0b 44
        E 112 b1 0b 08
        E 16 b1 0b 2a
        E 16 b1 0b 22
        E 16 b1 0b 19
        E 16 b1 0b 11
        E 96 b1 0b 22
        E 0 81 32 00
        E 0 91 33 22
        E 16 b1 0b 33
        E 16 b1 0b 4c
        E 16 b1 0b 44
        E 240 b1 0b 3b
        E 32 b1 0b 08
        E 16 b1 0b 2a
        E 16 b1 0b 22
        E 16 b1 0b 19
        E 16 b1 0b 11
        E 96 b1 0b 22
        E 16 b1 0b 33
        E 16 b1 0b 4c
        E 16 b1 0b 44
        E 112 b1 0b 08
        E 16 b1 0b 2a
        E 16 b1 0b 22
        E 16 b1 0b 19
        E 16 b1 0b 11
        E 96 b1 0b 22
        E 0 81 33 00
        E 0 91 32 22
        E 16 b1 0b 33
        E 16 b1 0b 4c
        E 16 b1 0b 44
        E 32 b1 0b 08
        E 16 b1 0b 2a
        E 16 b1 0b 22
        E 16 b1 0b 19
        E 16 b1 0b 11
        E 16 b1 0b 22
        E 16 b1 0b 33
        E 16 b1 0b 4c
        E 16 b1 0b 44
        E 32 b1 0b 08
        E 16 b1 0b 2a
        E 16 b1 0b 22
        E 16 b1 0b 19
        E 16 b1 0b 11
        E 16 81 32 00
        E 0 91 33 11
        E 640 b1 0b 22
        E 16 b1 0b 33
        E 16 b1 0b 4c
        E 16 b1 0b 44
        E 112 b1 0b 08
        E 16 b1 0b 2a
        E 16 b1 0b 22
        E 16 b1 0b 19
        E 16 b1 0b 11
        E 96 b1 0b 22
        E 16 b1 0b 33
        E 16 b1 0b 4c
        E 16 b1 0b 44
        E 32 b1 0b 08
        E 16 b1 0b 2a
        E 16 b1 0b 22
        E 16 b1 0b 19
        E 16 b1 0b 11
        E 16 b1 0b 22
        E 0 81 33 00
        E 0 91 32 22
        E 16 b1 0b 33
        E 16 b1 0b 4c
        E 16 b1 0b 44
        E 112 b1 0b 08
        E 16 b1 0b 2a
        E 16 b1 0b 22
        E 16 b1 0b 19
        E 16 b1 0b 11
        E 96 b1 0b 22
        E 0 81 32 00
        E 0 91 33 22
        E 16 b1 0b 33
        E 16 b1 0b 4c
        E 16 b1 0b 44
        E 240 b1 0b 3b
        E 32 b1 0b 08
        E 16 b1 0b 2a
        E 16 b1 0b 22
        E 16 b1 0b 19
        E 16 b1 0b 11
        E 96 b1 0b 22
        E 16 b1 0b 33
        E 16 b1 0b 4c
        E 16 b1 0b 44
        E 112 b1 0b 08
        E 16 b1 0b 2a
        E 16 b1 0b 22
        E 16 b1 0b 19
        E 16 b1 0b 11
        E 96 b1 0b 22
        E 0 81 33 00
        E 0 91 32 22
        E 16 b1 0b 33
        E 16 b1 0b 4c
        E 16 b1 0b 44
        E 32 b1 0b 08
        E 16 b1 0b 2a
        E 16 b1 0b 22
        E 16 b1 0b 19
        E 16 b1 0b 11
        E 16 b1 0b 22
        E 16 b1 0b 33
        E 16 b1 0b 4c
        E 16 b1 0b 44
        E 32 b1 0b 08
        E 16 b1 0b 2a
        E 16 b1 0b 22
        E 16 b1 0b 19
        E 16 b1 0b 11
        E 16 81 32 00
        E 0 91 33 11
        E 640 b1 0b 22
        E 16 b1 0b 33
        E 16 b1 0b 4c
        E 16 b1 0b 44
        E 112 b1 0b 08
        E 16 b1 0b 2a
        E 16 b1 0b 22
        E 16 b1 0b 19
        E 16 b1 0b 11
        E 96 b1 0b 22
        E 16 b1 0b 33
        E 16 b1 0b 4c
        E 16 b1 0b 44
        E 32 b1 0b 08
        E 16 b1 0b 2a
        E 16 b1 0b 22
        E 16 b1 0b 19
        E 16 b1 0b 11
        E 16 b1 0b 22
        E 0 81 33 00
        E 0 91 32 22
        E 16 b1 0b 33
        E 16 b1 0b 4c
        E 16 b1 0b 44
        E 112 b1 0b 08
        E 16 b1 0b 2a
        E 16 b1 0b 22
        E 16 b1 0b 19
        E 16 b1 0b 11
        E 96 b1 0b 22
        E 0 81 32 00
        E 0 91 33 22
        E 16 b1 0b 33
        E 16 b1 0b 4c
        E 16 b1 0b 44
        E 240 b1 0b 3b
        E 32 b1 0b 08
        E 16 b1 0b 2a
        E 16 b1 0b 22
        E 16 b1 0b 19
        E 16 b1 0b 11
        E 96 b1 0b 22
        E 16 b1 0b 33
        E 16 b1 0b 4c
        E 16 b1 0b 44
        E 112 b1 0b 08
        E 16 b1 0b 2a
        E 16 b1 0b 22
        E 16 b1 0b 19
        E 16 b1 0b 11
        E 96 b1 0b 22
        E 0 81 33 00
        E 0 91 32 22
        E 16 b1 0b 33
        E 16 b1 0b 4c
        E 16 b1 0b 44
        E 32 b1 0b 08
        E 16 b1 0b 2a
        E 16 b1 0b 22
        E 16 b1 0b 19
        E 16 b1 0b 11
        E 16 b1 0b 22
        E 16 b1 0b 33
        E 16 b1 0b 4c
        E 16 b1 0b 44
        E 32 b1 0b 08
        E 16 b1 0b 2a
        E 16 b1 0b 22
        E 16 b1 0b 19
        E 16 b1 0b 11
        E 16 81 32 00
        E 0 91 33 11
        E 640 b1 0b 22
        E 16 b1 0b 33
        E 16 b1 0b 4c
        E 16 b1 0b 44
        E 112 b1 0b 08
        E 16 b1 0b 2a
        E 16 b1 0b 22
        E 16 b1 0b 19
        E 16 b1 0b 11
        E 96 b1 0b 22
        E 16 b1 0b 33
        E 16 b1 0b 4c
        E 16 b1 0b 44
        E 32 b1 0b 08
        E 16 b1 0b 2a
        E 16 b1 0b 22
        E 16 b1 0b 19
        E 16 b1 0b 11
        E 16 b1 0b 22
        E 0 81 33 00
        E 0 91 32 22
        E 16 b1 0b 33
        E 16 b1 0b 4c
        E 16 b1 0b 44
        E 112 b1 0b 08
        E 16 b1 0b 2a
        E 16 b1 0b 22
        E 16 b1 0b 19
        E 16 b1 0b 11
        E 96 b1 0b 22
        E 0 81 32 00
        E 0 91 33 22
        E 16 b1 0b 33
        E 16 b1 0b 4c
        E 16 b1 0b 44
        E 240 b1 0b 3b
        E 240 b1 0b 33
        E 240 b1 0b 2a
        E 240 b1 0b 22
        E 240 b1 0b 19
        E 112 b1 0b 08
        E 16 b1 0b 2a
        E 16 b1 0b 22
        E 16 b1 0b 19
        E 16 b1 0b 11
        E 16 81 33 00
        E 0 91 32 11
        E 160 b1 0c 40
        E 0 b1 0b 22
        E 320 81 32 00
        E 0 91 30 22
        E 320 81 30 00
        E 0 91 33 22
        E 160 81 33 00
        E 0 91 30 22
        E 160 81 30 00
        E 0 91 35 22
        E 320 81 35 00
        E 0 91 30 22
        E 320 81 30 00
        E 0 91 37 22
        E 160 81 37 00
        E 0 91 30 22
        E 160 81 30 00
        E 0 91 35 22
        E 160 81 35 00
        E 0 91 30 22
        E 160 81 30 00
        E 0 91 33 22
        E 320 81 33 00
        E 0 91 28 22
        E 320 81 28 00
        E 0 91 2b 22
        E 160 81 2b 00
        E 0 91 35 22
        E 160 81 35 00
        E 0 91 27 22
        E 160 81 27 00
        E 0 91 35 22
        E 160 81 35 00
        E 0 91 2e 22
        E 16 81 2e 00
        E 0 91 31 22
        E 32 81 31 00
        E 0 91 32 22
        E 112 81 32 00
        E 0 91 33 22
        E 160 81 33 00
        E 0 91 32 22
        E 1280 81 32 00
        E 0 91 30 22
        E 640 81 30 00
        E 0 91 33 22
        E 160 81 33 00
        E 0 91 30 22
        E 160 81 30 00
        E 0 91 35 22
        E 320 81 35 00
        E 0 91 30 22
        E 16 81 30 00
        E 0 91 35 22
        E 32 81 35 00
        E 0 91 36 22
        E 272 81 36 00
        E 0 91 37 22
        E 160 81 37 00
        E 0 91 30 22
        E 160 81 30 00
        E 0 91 35 22
        E 160 81 35 00
        E 0 91 30 22
        E 160 81 30 00
        E 0 91 33 22
        E 320 81 33 00
        E 0 91 28 22
        E 320 81 28 00
        E 0 91 2b 22
        E 160 81 2b 00
        E 0 91 35 22
        E 160 81 35 00
        E 0 91 2e 22
        E 160 81 2e 00
        E 0 91 30 22
        E 16 81 30 00
        E 0 91 31 22
        E 32 81 31 00
        E 0 91 32 22
        E 112 81 32 00
        E 0 91 33 22
        E 160 81 33 00
        E 0 91 32 22
        E 160 81 32 00
        E 0 91 2e 22
        E 1440 81 2e 00
        E 0 91 30 22
        E 32 81 30 00
        E 0 91 35 22
        E 32 81 35 00
        E 0 91 36 22
        E 736 81 36 00
        E 0 91 37 22
        E 160 81 37 00
        E 0 91 35 22
        E 160 81 35 00
        E 0 91 33 22
        E 800 81 33 00
        E 0 91 32 22
        E 240 81 32 00
        E 0 91 33 22
        E 240 81 33 00
        E 0 91 35 22
        E 48 81 35 00
        E 0 91 36 22
        E 912 b1 0c 10
        E 0 81 36 00
        E 0 91 37 22
        E 16 b1 0b 33
        E 16 b1 0b 4c
        E 16 b1 0b 44
        E 192 b1 0b 08
        E 16 b1 0b 2a
        E 16 b1 0b 22
        E 16 b1 0b 19
        E 16 b1 0b 11
        E 16 b1 0b 22
        E 0 81 37 00
        E 0 91 32 22
        E 16 b1 0b 33
        E 16 b1 0b 4c
        E 16 b1 0b 44
        E 32 b1 0b 08
        E 16 b1 0b 2a
        E 16 b1 0b 22
        E 16 b1 0b 19
        E 16 b1 0b 11
        E 16 b1 0b 22
        E 16 b1 0b 33
        E 16 b1 0b 4c
        E 16 b1 0b 44
        E 112 b1 0b 08
        E 16 b1 0b 2a
        E 16 b1 0b 22
        E 16 b1 0b 19
        E 16 b1 0b 11
        E 96 b1 0b 22
        E 0 81 32 00
        E 0 91 35 22
        E 16 b1 0b 33
        E 16 b1 0b 4c
        E 16 b1 0b 44
        E 192 b1 0b 08
        E 16 b1 0b 2a
        E 16 b1 0b 22
        E 16 b1 0b 19
        E 16 b1 0b 11
        E 16 b1 0b 08
        E 0 81 35 00
        E 0 91 37 08
        E 640 b1 0c 40
        E 0 b1 0b 22
        E 32 81 37 00
        E 0 91 35 22
        E 32 81 35 00
        E 0 91 36 22
        E 736 81 36 00
        E 0 91 37 22
        E 160 81 37 00
        E 0 91 35 22
        E 160 81 35 00
        E 0 91 33 22
        E 800 81 33 00
        E 0 91 32 22
        E 240 81 32 00
        E 0 91 33 22
        E 240 81 33 00
        E 0 91 35 22
        E 1280 b1 0c 10
        E 0 b1 0b 77
        E 0 81 35 00
        E 0 91 28 77
        E 16 b1 0b 5d
        E 16 b1 0b 55
        E 16 b1 0b 4c
        E 32 b1 0b 08
        E 16 b1 0b 2a
        E 16 b1 0b 22
        E 16 b1 0b 19
        E 16 b1 0b 11
        E 16 b1 0b 77
        E 0 81 28 00
        E 0 91 2b 77
        E 16 b1 0b 5d
        E 16 b1 0b 55
        E 16 b1 0b 4c
        E 32 b1 0b 08
        E 16 b1 0b 2a
        E 16 b1 0b 22
        E 16 b1 0b 19
        E 16 b1 0b 11
        E 16 b1 0b 77
        E 16 b1 0b 5d
        E 16 b1 0b 55
        E 16 b1 0b 4c
        E 32 b1 0b 08
        E 16 b1 0b 2a
        E 16 b1 0b 22
        E 16 b1 0b 19
        E 16 b1 0b 11
        E 16 b1 0b 77
        E 16 b1 0b 5d
        E 16 b1 0b 55
        E 16 b1 0b 4c
        E 32 b1 0b 08
        E 16 b1 0b 2a
        E 16 b1 0b 22
        E 16 b1 0b 19
        E 16 b1 0b 11
        E 16 b1 0b 08
        E 480 b1 0c 20
        E 0 b1 0b 22
        E 0 81 2b 00
        E 0 91 35 22
        E 16 b1 0b 33
        E 16 b1 0b 4c
        E 16 b1 0b 44
        E 240 b1 0b 3b
        E 240 b1 0b 33
        E 32 b1 0b 08
        E 16 b1 0b 2a
        E 16 b1 0b 22
        E 16 b1 0b 19
        E 16 b1 0b 11
        E 16 b1 0b 22
        E 0 81 35 00
        E 0 91 37 22
        E 16 b1 0b 33
        E 16 b1 0b 4c
        E 16 b1 0b 44
        E 240 b1 0b 3b
        E 240 b1 0b 33
        E 32 b1 0b 08
        E 16 b1 0b 2a
        E 16 b1 0b 22
        E 16 b1 0b 19
        E 16 b1 0b 11
        E 16 b1 0b 22
        E 0 81 37 00
        E 0 91 35 22
        E 16 b1 0b 33
        E 16 b1 0b 4c
        E 16 b1 0b 44
        E 240 b1 0b 3b
        E 112 b1 0b 08
        E 16 b1 0b 2a
        E 16 b1 0b 22
        E 16 b1 0b 19
        E 16 b1 0b 11
        E 16 b1 0b 22
        E 0 81 35 00
        E 0 91 33 22
        E 16 b1 0b 33
        E 16 b1 0b 4c
        E 16 b1 0b 44
        E 240 b1 0b 3b
        E 240 b1 0b 33
        E 112 b1 0b 08
        E 16 b1 0b 2a
        E 16 b1 0b 22
        E 16 b1 0b 19
        E 16 b1 0b 11
        E 96 b1 0b 22
        E 0 81 33 00
        E 0 91 35 22
        E 16 b1 0b 33
        E 16 b1 0b 4c
        E 16 b1 0b 44
        E 240 b1 0b 3b
        E 240 b1 0b 33
        E 32 b1 0b 08
        E 16 b1 0b 2a
        E 16 b1 0b 22
        E 16 b1 0b 19
        E 16 b1 0b 11
        E 16 b1 0b 22
        E 0 81 35 00
        E 0 91 37 22
        E 16 b1 0b 33
        E 16 b1 0b 4c
        E 16 b1 0b 44
        E 240 b1 0b 3b
        E 240 b1 0b 33
        E 32 b1 0b 08
        E 16 b1 0b 2a
        E 16 b1 0b 22
        E 16 b1 0b 19
        E 16 b1 0b 11
        E 16 b1 0b 22
        E 0 81 37 00
        E 0 91 35 22
        E 16 b1 0b 33
        E 16 b1 0b 4c
        E 16 b1 0b 44
        E 240 b1 0b 3b
        E 112 b1 0b 08
        E 16 b1 0b 2a
        E 16 b1 0b 22
        E 16 b1 0b 19
        E 16 b1 0b 11
        E 16 b1 0b 22
        E 0 81 35 00
        E 0 91 33 22
        E 16 b1 0b 33
        E 16 b1 0b 4c
        E 16 b1 0b 44
        E 240 b1 0b 3b
        E 240 b1 0b 33
        E 112 b1 0b 08
        E 16 b1 0b 2a
        E 16 b1 0b 22
        E 16 b1 0b 19
        E 16 b1 0b 11
        E 96 b1 0b 22
        E 0 81 33 00
        E 0 91 35 22
        E 16 b1 0b 33
        E 16 b1 0b 4c
        E 16 b1 0b 44
        E 240 b1 0b 3b
        E 240 b1 0b 33
        E 32 b1 0b 08
        E 16 b1 0b 2a
        E 16 b1 0b 22
        E 16 b1 0b 19
        E 16 b1 0b 11
        E 16 b1 0b 22
        E 0 81 35 00
        E 0 91 37 22
        E 16 b1 0b 33
        E 16 b1 0b 4c
        E 16 b1 0b 44
        E 240 b1 0b 3b
        E 240 b1 0b 33
        E 32 b1 0b 08
        E 16 b1 0b 2a
        E 16 b1 0b 22
        E 16 b1 0b 19
        E 16 b1 0b 11
        E 16 b1 0b 22
        E 0 81 37 00
        E 0 91 35 22
        E 16 b1 0b 33
        E 16 b1 0b 4c
        E 16 b1 0b 44
        E 240 b1 0b 3b
        E 112 b1 0b 08
        E 16 b1 0b 2a
        E 16 b1 0b 22
        E 16 b1 0b 19
        E 16 b1 0b 11
        E 16 b1 0b 22
        E 0 81 35 00
        E 0 91 33 22
        E 16 b1 0b 33
        E 16 b1 0b 4c
        E 16 b1 0b 44
        E 240 b1 0b 3b
        E 240 b1 0b 33
        E 112 b1 0b 08
        E 16 b1 0b 2a
        E 16 b1 0b 22
        E 16 b1 0b 19
        E 16 b1 0b 11
        E 96 b1 0b 22
        E 0 81 33 00
        E 0 91 35 22
        E 16 b1 0b 33
        E 16 b1 0b 4c
        E 16 b1 0b 44
        E 240 b1 0b 3b
        E 240 b1 0b 33
        E 32 b1 0b 08
        E 16 b1 0b 2a
        E 16 b1 0b 22
        E 16 b1 0b 19
        E 16 b1 0b 11
        E 16 b1 0b 22
        E 0 81 35 00
        E 0 91 38 22
        E 16 b1 0b 33
        E 16 b1 0b 4c
        E 16 b1 0b 44
        E 240 b1 0b 3b
        E 240 b1 0b 33
        E 32 b1 0b 08
        E 16 b1 0b 2a
        E 16 b1 0b 22
        E 16 b1 0b 19
        E 16 b1 0b 11
        E 16 b1 0b 22
        E 0 81 38 00
        E 0 91 37 22
        E 16 b1 0b 33
        E 16 b1 0b 4c
        E 16 b1 0b 44
        E 240 b1 0b 3b
        E 112 b1 0b 08
        E 16 b1 0b 2a
        E 16 b1 0b 22
        E 16 b1 0b 19
        E 16 b1 0b 11
        E 16 b1 0b 22
        E 0 81 37 00
        E 0 91 35 22
        E 16 b1 0b 33
        E 16 b1 0b 4c
        E 16 b1 0b 44
        E 240 b1 0b 3b
        E 240 b1 0b 33
        E 112 b1 0b 08
        E 16 b1 0b 2a
        E 16 b1 0b 22
        E 16 b1 0b 19
        E 16 b1 0b 11
        E 96 b1 0b 22
        E 0 81 35 00
        E 0 91 37 22
        E 16 b1 0b 33
        E 16 b1 0b 4c
        E 16 b1 0b 44
        E 192 b1 0b 08
        E 16 b1 0b 2a
        E 16 b1 0b 22
        E 16 b1 0b 19
        E 16 b1 0b 11
        E 16 b1 0b 22
        E 16 b1 0b 33
        E 16 b1 0b 4c
        E 16 b1 0b 44
        E 192 b1 0b 08
        E 16 b1 0b 2a
        E 16 b1 0b 22
        E 16 b1 0b 19
        E 16 b1 0b 11
        E 16 b1 0b 22
        E 0 81 37 00
        E 0 91 35 22
        E 16 b1 0b 33
        E 16 b1 0b 4c
        E 16 b1 0b 44
        E 112 b1 0b 08
        E 16 b1 0b 2a
        E 16 b1 0b 22
        E 16 b1 0b 19
        E 16 b1 0b 11
        E 16 b1 0b 22
        E 0 81 35 00
        E 0 91 33 22
        E 16 b1 0b 33
        E 16 b1 0b 4c
        E 16 b1 0b 44
        E 112 b1 0b 08
        E 16 b1 0b 2a
        E 16 b1 0b 22
        E 16 b1 0b 19
        E 16 b1 0b 11
        E 16 b1 0b 22
        E 0 81 33 00
        E 0 91 35 22
        E 16 b1 0b 33
        E 16 b1 0b 4c
        E 16 b1 0b 44
        E 240 b1 0b 3b
        E 112 b1 0b 08
        E 16 b1 0b 2a
        E 16 b1 0b 22
        E 16 b1 0b 19
        E 16 b1 0b 11
        E 16 b1 0b 22
        E 0 81 35 00
        E 0 91 37 22
        E 16 b1 0b 33
        E 16 b1 0b 4c
        E 16 b1 0b 44
        E 192 b1 0b 08
        E 16 b1 0b 2a
        E 16 b1 0b 22
        E 16 b1 0b 19
        E 16 b1 0b 11
        E 16 b1 0b 22
        E 0 81 37 00
        E 0 91 35 22
        E 16 b1 0b 33
        E 16 b1 0b 4c
        E 16 b1 0b 44
        E 112 b1 0b 08
        E 16 b1 0b 2a
        E 16 b1 0b 22
        E 16 b1 0b 19
        E 16 b1 0b 11
        E 16 b1 0b 22
        E 0 81 35 00
        E 0 91 33 22
        E 16 b1 0b 33
        E 16 b1 0b 4c
        E 16 b1 0b 44
        E 112 b1 0b 08
        E 16 b1 0b 2a
        E 16 b1 0b 22
        E 16 b1 0b 19
        E 16 b1 0b 11
        E 16 b1 0b 22
        E 0 81 33 00
        E 0 91 35 22
        E 16 b1 0b 33
        E 16 b1 0b 4c
        E 16 b1 0b 44
        E 240 b1 0b 3b
        E 112 b1 0b 08
        E 16 b1 0b 2a
        E 16 b1 0b 22
        E 16 b1 0b 19
        E 16 b1 0b 11
        E 16 b1 0b 22
        E 0 81 35 00
        E 0 91 37 22
        E 16 b1 0b 33
        E 16 b1 0b 4c
        E 16 b1 0b 44
        E 192 b1 0b 08
        E 16 b1 0b 2a
        E 16 b1 0b 22
        E 16 b1 0b 19
        E 16 b1 0b 11
        E 16 b1 0b 22
        E 0 81 37 00
        E 0 91 35 22
        E 16 b1 0b 33
        E 16 b1 0b 4c
        E 16 b1 0b 44
        E 112 b1 0b 08
        E 16 b1 0b 2a
        E 16 b1 0b 22
        E 16 b1 0b 19
        E 16 b1 0b 11
        E 16 b1 0b 22
        E 0 81 35 00
        E 0 91 33 22
        E 16 b1 0b 33
        E 16 b1 0b 4c
        E 16 b1 0b 44
        E 112 b1 0b 08
        E 16 b1 0b 2a
        E 16 b1 0b 22
        E 16 b1 0b 19
        E 16 b1 0b 11
        E 16 b1 0b 22
        E 0 81 33 00
        E 0 91 35 22
        E 16 b1 0b 33
        E 16 b1 0b 4c
        E 16 b1 0b 44
        E 240 b1 0b 3b
        E 240 b1 0b 33
        E 32 b1 0b 08
        E 16 b1 0b 2a
        E 16 b1 0b 22
        E 16 b1 0b 19
        E 16 b1 0b 11
        E 16 b1 0b 22
        E 0 81 35 00
        E 0 91 33 22
        E 16 b1 0b 33
        E 16 b1 0b 4c
        E 16 b1 0b 44
        E 240 b1 0b 3b
        E 240 b1 0b 33
        E 32 b1 0b 08
        E 16 b1 0b 2a
        E 16 b1 0b 22
        E 16 b1 0b 19
        E 16 b1 0b 11
        E 16 b1 0b 22
        E 0 81 33 00
        E 0 91 32 22
        E 16 b1 0b 33
        E 16 b1 0b 4c
        E 16 b1 0b 44
        E 240 b1 0b 3b
        E 112 b1 0b 08
        E 16 b1 0b 2a
        E 16 b1 0b 22
        E 16 b1 0b 19
        E 16 b1 0b 11
        E 16 b1 0b 22
        E 0 81 32 00
        E 0 91 37 22
        E 16 b1 0b 33
        E 16 b1 0b 4c
        E 16 b1 0b 44
        E 192 b1 0b 08
        E 16 b1 0b 2a
        E 16 b1 0b 22
        E 16 b1 0b 19
        E 16 b1 0b 11
        E 16 b1 0b 22
        E 0 81 37 00
        E 0 91 35 22
        E 16 b1 0b 33
        E 16 b1 0b 4c
        E 16 b1 0b 44
        E 112 b1 0b 08
        E 16 b1 0b 2a
        E 16 b1 0b 22
        E 16 b1 0b 19
        E 16 b1 0b 11
        E 16 b1 0b 22
        E 0 81 35 00
        E 0 91 33 22
        E 16 b1 0b 33
        E 16 b1 0b 4c
        E 16 b1 0b 44
        E 112 b1 0b 08
        E 16 b1 0b 2a
        E 16 b1 0b 22
        E 16 b1 0b 19
        E 16 b1 0b 11
        E 16 b1 0b 22
        E 0 81 33 00
        E 0 91 35 22
        E 16 b1 0b 33
        E 16 b1 0b 4c
        E 16 b1 0b 44
        E 240 b1 0b 3b
        E 112 b1 0b 08
        E 16 b1 0b 2a
        E 16 b1 0b 22
        E 16 b1 0b 19
        E 16 b1 0b 11
        E 16 b1 0b 22
        E 0 81 35 00
        E 0 91 37 22
        E 16 b1 0b 33
        E 16 b1 0b 4c
        E 16 b1 0b 44
        E 192 b1 0b 08
        E 16 b1 0b 2a
        E 16 b1 0b 22
        E 16 b1 0b 19
        E 16 b1 0b 11
        E 16 b1 0b 22
        E 0 81 37 00
        E 0 91 35 22
        E 16 b1 0b 33
        E 16 b1 0b 4c
        E 16 b1 0b 44
        E 112 b1 0b 08
        E 16 b1 0b 2a
        E 16 b1 0b 22
        E 16 b1 0b 19
        E 16 b1 0b 11
        E 16 b1 0b 22
        E 0 81 35 00
        E 0 91 33 22
        E 16 b1 0b 33
        E 16 b1 0b 4c
        E 16 b1 0b 44
        E 112 b1 0b 08
        E 16 b1 0b 2a
        E 16 b1 0b 22
        E 16 b1 0b 19
        E 16 b1 0b 11
        E 16 b1 0b 22
        E 0 81 33 00
        E 0 91 35 22
        E 16 b1 0b 33
        E 16 b1 0b 4c
        E 16 b1 0b 44
        E 240 b1 0b 3b
        E 112 b1 0b 08
        E 16 b1 0b 2a
        E 16 b1 0b 22
        E 16 b1 0b 19
        E 16 b1 0b 11
        E 16 b1 0b 22
        E 0 81 35 00
        E 0 91 37 22
        E 16 b1 0b 33
        E 16 b1 0b 4c
        E 16 b1 0b 44
        E 192 b1 0b 08
        E 16 b1 0b 2a
        E 16 b1 0b 22
        E 16 b1 0b 19
        E 16 b1 0b 11
        E 16 b1 0b 22
        E 0 81 37 00
        E 0 91 35 22
        E 16 b1 0b 33
        E 16 b1 0b 4c
        E 16 b1 0b 44
        E 112 b1 0b 08
        E 16 b1 0b 2a
        E 16 b1 0b 22
        E 16 b1 0b 19
        E 16 b1 0b 11
        E 16 b1 0b 22
        E 0 81 35 00
        E 0 91 60 22
        E 16 b1 0b 33
        E 16 b1 0b 4c
        E 16 b1 0b 44
        E 112 b1 0b 08
        E 16 b1 0b 2a
        E 16 b1 0b 22
        E 16 b1 0b 19
        E 16 b1 0b 11
        E 16 b1 0b 22
        E 0 81 60 00
        E 0 91 3a 22
        E 16 b1 0b 33
        E 16 b1 0b 4c
        E 16 b1 0b 44
        E 240 b1 0b 3b
        E 240 b1 0b 33
        E 240 b1 0b 2a
        E 240 b1 0b 22
        E 240 b1 0b 19
        E 112 b1 0b 08
        E 16 b1 0b 2a
        E 16 b1 0b 22
        E 16 b1 0b 19
        E 16 b1 0b 11
        E 16 b1 0c 10
        E 0 b1 0b 2a
        E 0 81 3a 00
        E 0 91 2e 2a
        E 16 b1 0b 4c
        E 32 b1 0b 44
        E 112 b1 0b 2a
        E 0 81 2e 00
        E 0 91 30 2a
        E 16 b1 0b 4c
        E 32 b1 0b 44
        E 112 b1 0b 2a
        E 0 81 30 00
        E 0 91 32 2a
        E 16 b1 0b 4c
        E 32 b1 0b 44
        E 112 b1 0b 2a
        E 0 81 32 00
        E 0 91 33 2a
        E 16 b1 0b 4c
        E 32 b1 0b 44
        E 112 b1 0b 2a
        E 0 81 33 00
        E 0 91 35 2a
        E 16 b1 0b 4c
        E 32 b1 0b 44
        E 112 b1 0b 2a
        E 0 81 35 00
        E 0 91 30 2a
        E 16 b1 0b 4c
        E 32 b1 0b 44
        E 112 b1 0b 2a
        E 0 81 30 00
        E 0 91 32 2a
        E 16 b1 0b 4c
        E 32 b1 0b 44
        E 112 b1 0b 2a
        E 0 81 32 00
        E 0 91 33 2a
        E 16 b1 0b 4c
        E 32 b1 0b 44
        E 112 b1 0b 2a
        E 0 81 33 00
        E 0 91 35 2a
        E 16 b1 0b 4c
        E 32 b1 0b 44
        E 112 b1 0b 2a
        E 0 81 35 00
        E 0 91 30 2a
        E 16 b1 0b 4c
        E 32 b1 0b 44
        E 112 b1 0b 2a
        E 0 81 30 00
        E 0 91 32 2a
        E 16 b1 0b 4c
        E 32 b1 0b 44
        E 112 b1 0b 2a
        E 0 81 32 00
        E 0 91 33 2a
        E 16 b1 0b 4c
        E 32 b1 0b 44
        E 112 b1 0b 2a
        E 0 81 33 00
        E 0 91 35 2a
        E 16 b1 0b 4c
        E 32 b1 0b 44
        E 112 b1 0b 2a
        E 0 81 35 00
        E 0 91 30 2a
        E 16 b1 0b 4c
        E 32 b1 0b 44
        E 112 b1 0b 2a
        E 0 81 30 00
        E 0 91 32 2a
        E 16 b1 0b 4c
        E 32 b1 0b 44
        E 112 b1 0b 2a
        E 0 81 32 00
        E 0 91 33 2a
        E 16 b1 0b 4c
        E 32 b1 0b 44
        E 112 b1 0b 2a
        E 0 81 33 00
        E 0 91 35 2a
        E 16 b1 0b 4c
        E 32 b1 0b 44
        E 112 b1 0b 2a
        E 0 81 35 00
        E 0 91 30 2a
        E 16 b1 0b 4c
        E 32 b1 0b 44
        E 112 b1 0b 2a
        E 0 81 30 00
        E 0 91 32 2a
        E 16 b1 0b 4c
        E 32 b1 0b 44
        E 112 b1 0b 2a
        E 0 81 32 00
        E 0 91 33 2a
        E 16 b1 0b 4c
        E 32 b1 0b 44
        E 112 b1 0b 2a
        E 0 81 33 00
        E 0 91 35 2a
        E 16 b1 0b 4c
        E 32 b1 0b 44
        E 112 b1 0b 2a
        E 0 81 35 00
        E 0 91 30 2a
        E 16 b1 0b 4c
        E 32 b1 0b 44
        E 112 b1 0b 2a
        E 0 81 30 00
        E 0 91 32 2a
        E 16 b1 0b 4c
        E 32 b1 0b 44
        E 112 b1 0b 2a
        E 0 81 32 00
        E 0 91 33 2a
        E 16 b1 0b 4c
        E 32 b1 0b 44
        E 112 b1 0b 2a
        E 0 81 33 00
        E 0 91 35 2a
        E 16 b1 0b 4c
        E 32 b1 0b 44
        E 112 b1 0b 2a
        E 0 81 35 00
        E 0 91 30 2a
        E 16 b1 0b 4c
        E 32 b1 0b 44
        E 112 b1 0b 2a
        E 0 81 30 00
        E 0 91 32 2a
        E 16 b1 0b 4c
        E 32 b1 0b 44
        E 112 b1 0b 2a
        E 0 81 32 00
        E 0 91 33 2a
        E 16 b1 0b 4c
        E 32 b1 0b 44
        E 112 b1 0b 2a
        E 0 81 33 00
        E 0 91 35 2a
        E 16 b1 0b 4c
        E 32 b1 0b 44
        E 112 b1 0b 2a
        E 0 81 35 00
        E 0 91 30 2a
        E 16 b1 0b 4c
        E 32 b1 0b 44
        E 112 b1 0b 2a
        E 0 81 30 00
        E 0 91 32 2a
        E 16 b1 0b 4c
        E 32 b1 0b 44
        E 112 b1 0b 2a
        E 0 81 32 00
        E 0 91 33 2a
        E 16 b1 0b 4c
        E 32 b1 0b 44
        E 112 b1 0b 2a
        E 0 81 33 00
        E 0 91 35 2a
        E 16 b1 0b 4c
        E 32 b1 0b 44
        E 112 b1 0b 2a
        E 0 81 35 00
        E 0 91 30 2a
        E 16 b1 0b 4c
        E 32 b1 0b 44
        E 112 b1 0b 2a
        E 0 81 30 00
        E 0 91 32 2a
        E 16 b1 0b 4c
        E 32 b1 0b 44
        E 112 b1 0b 2a
        E 0 81 32 00
        E 0 91 33 2a
        E 16 b1 0b 4c
        E 32 b1 0b 44
        E 112 b1 0b 2a
        E 0 81 33 00
        E 0 91 35 2a
        E 16 b1 0b 4c
        E 32 b1 0b 44
        E 112 b1 0b 2a
        E 0 81 35 00
        E 0 91 30 2a
        E 16 b1 0b 4c
        E 32 b1 0b 44
        E 112 b1 0b 2a
        E 0 81 30 00
        E 0 91 32 2a
        E 16 b1 0b 4c
        E 32 b1 0b 44
        E 112 b1 0b 2a
        E 0 81 32 00
        E 0 91 33 2a
        E 16 b1 0b 4c
        E 32 b1 0b 44
        E 112 b1 0b 2a
        E 0 81 33 00
        E 0 91 35 2a
        E 16 b1 0b 4c
        E 32 b1 0b 44
        E 112 b1 0b 2a
        E 0 81 35 00
        E 0 91 32 2a
        E 16 b1 0b 4c
        E 32 b1 0b 44
        E 112 b1 0b 2a
        E 0 81 32 00
        E 0 91 33 2a
        E 16 b1 0b 4c
        E 32 b1 0b 44
        E 112 b1 0b 2a
        E 0 81 33 00
        E 0 91 35 2a
        E 16 b1 0b 4c
        E 32 b1 0b 44
        E 272 b1 0b 2a
        E 0 81 35 00
        E 0 91 37 2a
        E 16 b1 0b 4c
        E 32 b1 0b 44
        E 112 b1 0b 2a
        E 0 81 37 00
        E 0 91 5e 2a
        E 16 b1 0b 4c
        E 32 b1 0b 44
        E 112 b1 0b 2a
        E 0 81 5e 00
        E 0 91 3a 2a
        E 16 b1 0b 4c
        E 32 b1 0b 44
        E 112 b1 0b 2a
        E 0 81 3a 00
        E 0 91 3c 2a
        E 16 b1 0b 4c
        E 32 b1 0b 44
        E 112 b1 0b 2a
        E 16 b1 0b 4c
        E 32 b1 0b 44
        E 112 b1 0b 2a
        E 0 81 3c 00
        E 0 91 3e 2a
        E 16 b1 0b 4c
        E 32 b1 0b 44
        E 112 b1 0b 2a
        E 0 81 3e 00
        E 0 91 3f 2a
        E 16 b1 0b 4c
        E 32 b1 0b 44
        E 112 b1 0b 2a
        E 0 81 3f 00
        E 0 91 41 2a
        E 16 b1 0b 4c
        E 32 b1 0b 44
        E 112 b1 0b 2a
        E 0 81 41 00
        E 0 91 3c 2a
        E 16 b1 0b 4c
        E 32 b1 0b 44
        E 112 b1 0b 2a
        E 0 81 3c 00
        E 0 91 3e 2a
        E 16 b1 0b 4c
        E 32 b1 0b 44
        E 112 b1 0b 2a
        E 0 81 3e 00
        E 0 91 3f 2a
        E 16 b1 0b 4c
        E 32 b1 0b 44
        E 112 b1 0b 2a
        E 0 81 3f 00
        E 0 91 41 2a
        E 16 b1 0b 4c
        E 32 b1 0b 44
        E 112 b1 0b 2a
        E 16 b1 0b 4c
        E 32 b1 0b 44
        E 112 b1 0b 2a
        E 0 81 41 00
        E 0 91 43 2a
        E 16 b1 0b 4c
        E 32 b1 0b 44
        E 112 b1 0b 2a
        E 0 81 43 00
        E 0 91 44 2a
        E 16 b1 0b 4c
        E 32 b1 0b 44
        E 112 b1 0b 2a
        E 0 81 44 00
        E 0 91 46 2a
        E 16 b1 0b 4c
        E 32 b1 0b 44
        E 112 b1 0b 2a
        E 0 81 46 00
        E 0 91 41 2a
        E 16 b1 0b 4c
        E 32 b1 0b 44
        E 112 b1 0b 2a
        E 0 81 41 00
        E 0 91 43 2a
        E 16 b1 0b 4c
        E 32 b1 0b 44
        E 112 b1 0b 2a
        E 0 81 43 00
        E 0 91 44 2a
        E 16 b1 0b 4c
        E 32 b1 0b 44
        E 112 b1 0b 2a
        E 0 81 44 00
        E 0 91 46 2a
        E 16 b1 0b 4c
        E 32 b1 0b 44
        E 2512 b1 0c 20
        E 0 b1 0b 22
        E 0 81 46 00
        E 0 91 33 22
        E 16 b1 0b 33
        E 16 b1 0b 4c
        E 16 b1 0b 44
        E 32 b1 0b 08
        E 16 b1 0b 2a
        E 16 b1 0b 22
        E 16 b1 0b 19
        E 16 b1 0b 11
        E 16 b1 0b 22
        E 0 81 33 00
        E 0 91 30 22
        E 16 b1 0b 33
        E 16 b1 0b 4c
        E 16 b1 0b 44
        E 32 b1 0b 08
        E 16 b1 0b 2a
        E 16 b1 0b 22
        E 16 b1 0b 19
        E 16 b1 0b 11
        E 16 b1 0b 22
        E 0 81 30 00
        E 0 91 33 22
        E 16 b1 0b 33
        E 16 b1 0b 4c
        E 16 b1 0b 44
        E 32 b1 0b 08
        E 16 b1 0b 2a
        E 16 b1 0b 22
        E 16 b1 0b 19
        E 16 b1 0b 11
        E 16 b1 0b 22
        E 0 81 33 00
        E 0 91 30 22
        E 16 b1 0b 33
        E 0 81 30 00
        E 0 91 35 33
        E 16 b1 0b 4c
        E 16 b1 0b 44
        E 0 81 35 00
        E 0 91 36 44
        E 240 b1 0b 3b
        E 32 b1 0b 22
        E 0 81 36 00
        E 0 91 37 22
        E 16 b1 0b 33
        E 16 b1 0b 4c
        E 16 b1 0b 44
        E 32 b1 0b 08
        E 16 b1 0b 2a
        E 16 b1 0b 22
        E 16 b1 0b 19
        E 16 b1 0b 11
        E 16 b1 0b 22
        E 0 81 37 00
        E 0 91 35 22
        E 16 b1 0b 33
        E 16 b1 0b 4c
        E 16 b1 0b 44
        E 192 b1 0b 08
        E 16 b1 0b 2a
        E 16 b1 0b 22
        E 16 b1 0b 19
        E 16 b1 0b 11
        E 16 b1 0b 22
        E 0 81 35 00
        E 0 91 33 22
        E 16 b1 0b 33
        E 16 b1 0b 4c
        E 16 b1 0b 44
        E 240 b1 0b 3b
        E 112 b1 0b 08
        E 16 b1 0b 2a
        E 16 b1 0b 22
        E 16 b1 0b 19
        E 16 b1 0b 11
        E 16 b1 0b 22
        E 0 81 33 00
        E 0 91 2e 22
        E 16 b1 0b 33
        E 16 b1 0b 4c
        E 16 b1 0b 44
        E 240 b1 0b 3b
        E 240 b1 0b 33
        E 192 b1 0b 08
        E 16 b1 0b 2a
        E 16 b1 0b 22
        E 16 b1 0b 19
        E 16 b1 0b 11
        E 16 b1 0b 22
        E 0 81 2e 00
        E 0 91 30 22
        E 16 b1 0b 33
        E 16 b1 0b 4c
        E 16 b1 0b 44
        E 32 b1 0b 08
        E 16 b1 0b 2a
        E 16 b1 0b 22
        E 16 b1 0b 19
        E 16 b1 0b 11
        E 16 b1 0b 22
        E 16 b1 0b 33
        E 16 b1 0b 4c
        E 16 b1 0b 44
        E 32 b1 0b 08
        E 16 b1 0b 2a
        E 16 b1 0b 22
        E 16 b1 0b 19
        E 16 81 30 00
        E 0 b1 7b 00
        E 0 ff 2f 00
      >
    >
  >
  <TRACK {992FEC8A-54C1-401F-8CBD-F8413D865A0D}
    NAME "NES - Triangle [ch2]"
    PEAKCOL 16744192
    BEAT -1
    AUTOMODE 0
    PANLAWFLAGS 3
    VOLPAN 1 0 -1 -1 1
    MUTESOLO 0 0 0
    IPHASE 0
    PLAYOFFS 0 1
    ISBUS 0 0
    BUSCOMP 0 0 0 0 0
    SHOWINMIX 1 0.6667 0.5 1 0.5 0 0 0
    FIXEDLANES 9 0 0 0 0
    SEL 0
    REC 0 5088 1 0 0 0 0 0
    VU 2
    TRACKHEIGHT 0 0 0 0 0 0 0
    INQ 0 0 0 0.5 100 0 0 100
    NCHAN 2
    FX 1
    TRACKID {992FEC8A-54C1-401F-8CBD-F8413D865A0D}
    PERF 0
    MIDIOUT -1
    MAINSEND 1 0
    <FXCHAIN
      WNDRECT 24 52 700 560
      SHOW 0
      LASTSEL 0
      DOCKED 0
      BYPASS 0 0 0
      <JS "ReapNES Studio/ReapNES_Console.jsfx" ""
        2 15 1 10 80 10 100 2 1 15 1 5 60 10 80 1 1 0 50 0 0 15 1 0 100 0 0 0.500000 0.500000 0.400000 0.300000 0.800000 2 1 0 0 0 0 - - - - - - - - - - - - - - - - - - - - - - - - - -
      >
      FLOATPOS 0 0 0 0
      FXID {74DA74AC-D068-4D7C-9432-705385C41699}
      WAK 0 0
    >
    <ITEM
      POSITION 0
      LENGTH 74.63452790000001
      LOOP 0
      ALLTAKES 0
      FADEIN 0 0 0 0 0 0 0
      FADEOUT 0 0 0 0 0 0 0
      MUTE 0 0
      SEL 0
      IGUID {8684C964-B77B-4810-8F38-89C5E1220E88}
      <SOURCE MIDI
        HASDATA 1 480 QN
        CCINTERP 32
        E 0 c2 26
        E 16 b2 0b 7f
        E 0 92 21 7f
        E 16 82 21 00
        E 0 b2 0b 7f
        E 0 92 2c 7f
        E 16 82 2c 00
        E 0 b2 0b 7f
        E 0 92 2b 7f
        E 16 82 2b 00
        E 0 b2 0b 7f
        E 0 92 2a 7f
        E 16 82 2a 00
        E 0 b2 0b 7f
        E 0 92 29 7f
        E 16 82 29 00
        E 0 b2 0b 7f
        E 0 92 28 7f
        E 16 82 28 00
        E 0 b2 0b 7f
        E 0 92 27 7f
        E 16 82 27 00
        E 0 b2 0b 7f
        E 0 92 26 7f
        E 16 82 26 00
        E 16 b2 0b 7f
        E 0 92 25 7f
        E 16 82 25 00
        E 0 b2 0b 7f
        E 0 92 27 7f
        E 16 82 27 00
        E 0 b2 0b 7f
        E 0 92 26 7f
        E 16 82 26 00
        E 112 b2 0b 7f
        E 0 92 25 7f
        E 16 82 25 00
        E 0 b2 0b 7f
        E 0 92 27 7f
        E 16 82 27 00
        E 0 b2 0b 7f
        E 0 92 26 7f
        E 16 82 26 00
        E 112 b2 0b 7f
        E 0 92 25 7f
        E 16 82 25 00
        E 0 b2 0b 7f
        E 0 92 27 7f
        E 16 82 27 00
        E 0 b2 0b 7f
        E 0 92 26 7f
        E 16 82 26 00
        E 112 b2 0b 7f
        E 0 92 36 7f
        E 16 82 36 00
        E 0 b2 0b 7f
        E 0 92 21 7f
        E 16 82 21 00
        E 0 b2 0b 7f
        E 0 92 2c 7f
        E 16 82 2c 00
        E 0 b2 0b 7f
        E 0 92 2b 7f
        E 16 82 2b 00
        E 0 b2 0b 7f
        E 0 92 2a 7f
        E 16 82 2a 00
        E 0 b2 0b 7f
        E 0 92 29 7f
        E 16 82 29 00
        E 0 b2 0b 7f
        E 0 92 28 7f
        E 16 82 28 00
        E 0 b2 0b 7f
        E 0 92 27 7f
        E 16 82 27 00
        E 0 b2 0b 7f
        E 0 92 26 7f
        E 16 82 26 00
        E 16 b2 0b 7f
        E 0 92 25 7f
        E 16 82 25 00
        E 0 b2 0b 7f
        E 0 92 27 7f
        E 16 82 27 00
        E 0 b2 0b 7f
        E 0 92 26 7f
        E 16 82 26 00
        E 112 b2 0b 7f
        E 0 92 25 7f
        E 16 82 25 00
        E 0 b2 0b 7f
        E 0 92 27 7f
        E 16 82 27 00
        E 0 b2 0b 7f
        E 0 92 26 7f
        E 16 82 26 00
        E 112 b2 0b 7f
        E 0 92 25 7f
        E 16 82 25 00
        E 0 b2 0b 7f
        E 0 92 27 7f
        E 16 82 27 00
        E 0 b2 0b 7f
        E 0 92 26 7f
        E 16 82 26 00
        E 112 b2 0b 7f
        E 0 92 36 7f
        E 16 82 36 00
        E 0 b2 0b 7f
        E 0 92 21 7f
        E 16 82 21 00
        E 0 b2 0b 7f
        E 0 92 2c 7f
        E 16 82 2c 00
        E 0 b2 0b 7f
        E 0 92 2b 7f
        E 16 82 2b 00
        E 0 b2 0b 7f
        E 0 92 2a 7f
        E 16 82 2a 00
        E 0 b2 0b 7f
        E 0 92 29 7f
        E 16 82 29 00
        E 0 b2 0b 7f
        E 0 92 28 7f
        E 16 82 28 00
        E 0 b2 0b 7f
        E 0 92 27 7f
        E 16 82 27 00
        E 0 b2 0b 7f
        E 0 92 26 7f
        E 16 82 26 00
        E 16 b2 0b 7f
        E 0 92 25 7f
        E 16 82 25 00
        E 0 b2 0b 7f
        E 0 92 27 7f
        E 16 82 27 00
        E 0 b2 0b 7f
        E 0 92 26 7f
        E 16 82 26 00
        E 112 b2 0b 7f
        E 0 92 25 7f
        E 16 82 25 00
        E 0 b2 0b 7f
        E 0 92 27 7f
        E 16 82 27 00
        E 0 b2 0b 7f
        E 0 92 26 7f
        E 16 82 26 00
        E 112 b2 0b 7f
        E 0 92 25 7f
        E 16 82 25 00
        E 0 b2 0b 7f
        E 0 92 27 7f
        E 16 82 27 00
        E 0 b2 0b 7f
        E 0 92 26 7f
        E 16 82 26 00
        E 112 b2 0b 7f
        E 0 92 36 7f
        E 16 82 36 00
        E 0 b2 0b 7f
        E 0 92 21 7f
        E 16 82 21 00
        E 0 b2 0b 7f
        E 0 92 2c 7f
        E 16 82 2c 00
        E 0 b2 0b 7f
        E 0 92 2b 7f
        E 16 82 2b 00
        E 0 b2 0b 7f
        E 0 92 2a 7f
        E 16 82 2a 00
        E 0 b2 0b 7f
        E 0 92 29 7f
        E 16 82 29 00
        E 0 b2 0b 7f
        E 0 92 28 7f
        E 16 82 28 00
        E 0 b2 0b 7f
        E 0 92 27 7f
        E 16 82 27 00
        E 0 b2 0b 7f
        E 0 92 26 7f
        E 16 82 26 00
        E 16 b2 0b 7f
        E 0 92 25 7f
        E 16 82 25 00
        E 0 b2 0b 7f
        E 0 92 27 7f
        E 16 82 27 00
        E 0 b2 0b 7f
        E 0 92 26 7f
        E 16 82 26 00
        E 112 b2 0b 7f
        E 0 92 25 7f
        E 16 82 25 00
        E 0 b2 0b 7f
        E 0 92 27 7f
        E 16 82 27 00
        E 0 b2 0b 7f
        E 0 92 26 7f
        E 16 82 26 00
        E 112 b2 0b 7f
        E 0 92 25 7f
        E 16 82 25 00
        E 0 b2 0b 7f
        E 0 92 27 7f
        E 16 82 27 00
        E 0 b2 0b 7f
        E 0 92 26 7f
        E 16 82 26 00
        E 112 b2 0b 7f
        E 0 92 36 7f
        E 16 82 36 00
        E 0 b2 0b 7f
        E 0 92 21 7f
        E 16 82 21 00
        E 0 b2 0b 7f
        E 0 92 2c 7f
        E 16 82 2c 00
        E 0 b2 0b 7f
        E 0 92 2b 7f
        E 16 82 2b 00
        E 0 b2 0b 7f
        E 0 92 2a 7f
        E 16 82 2a 00
        E 0 b2 0b 7f
        E 0 92 29 7f
        E 16 82 29 00
        E 0 b2 0b 7f
        E 0 92 28 7f
        E 16 82 28 00
        E 0 b2 0b 7f
        E 0 92 27 7f
        E 16 82 27 00
        E 0 b2 0b 7f
        E 0 92 26 7f
        E 16 82 26 00
        E 16 b2 0b 7f
        E 0 92 25 7f
        E 16 82 25 00
        E 0 b2 0b 7f
        E 0 92 27 7f
        E 16 82 27 00
        E 0 b2 0b 7f
        E 0 92 26 7f
        E 16 82 26 00
        E 112 b2 0b 7f
        E 0 92 25 7f
        E 16 82 25 00
        E 0 b2 0b 7f
        E 0 92 27 7f
        E 16 82 27 00
        E 0 b2 0b 7f
        E 0 92 26 7f
        E 16 82 26 00
        E 112 b2 0b 7f
        E 0 92 25 7f
        E 16 82 25 00
        E 0 b2 0b 7f
        E 0 92 27 7f
        E 16 82 27 00
        E 0 b2 0b 7f
        E 0 92 26 7f
        E 16 82 26 00
        E 112 b2 0b 7f
        E 0 92 36 7f
        E 16 82 36 00
        E 0 b2 0b 7f
        E 0 92 21 7f
        E 16 82 21 00
        E 0 b2 0b 7f
        E 0 92 2c 7f
        E 16 82 2c 00
        E 0 b2 0b 7f
        E 0 92 2b 7f
        E 16 82 2b 00
        E 0 b2 0b 7f
        E 0 92 2a 7f
        E 16 82 2a 00
        E 0 b2 0b 7f
        E 0 92 29 7f
        E 16 82 29 00
        E 0 b2 0b 7f
        E 0 92 28 7f
        E 16 82 28 00
        E 0 b2 0b 7f
        E 0 92 27 7f
        E 16 82 27 00
        E 0 b2 0b 7f
        E 0 92 26 7f
        E 16 82 26 00
        E 16 b2 0b 7f
        E 0 92 25 7f
        E 16 82 25 00
        E 0 b2 0b 7f
        E 0 92 27 7f
        E 16 82 27 00
        E 0 b2 0b 7f
        E 0 92 26 7f
        E 16 82 26 00
        E 112 b2 0b 7f
        E 0 92 36 7f
        E 16 82 36 00
        E 0 b2 0b 7f
        E 0 92 31 7f
        E 16 82 31 00
        E 0 b2 0b 7f
        E 0 92 30 7f
        E 16 82 30 00
        E 0 b2 0b 7f
        E 0 92 2f 7f
        E 16 82 2f 00
        E 0 b2 0b 7f
        E 0 92 2e 7f
        E 16 82 2e 00
        E 0 b2 0b 7f
        E 0 92 21 7f
        E 16 82 21 00
        E 0 b2 0b 7f
        E 0 92 2c 7f
        E 16 82 2c 00
        E 0 b2 0b 7f
        E 0 92 2b 7f
        E 16 82 2b 00
        E 0 b2 0b 7f
        E 0 92 2a 7f
        E 16 82 2a 00
        E 16 b2 0b 7f
        E 0 92 45 7f
        E 16 82 45 00
        E 0 b2 0b 7f
        E 0 92 31 7f
        E 16 82 31 00
        E 0 b2 0b 7f
        E 0 92 30 7f
        E 16 82 30 00
        E 0 b2 0b 7f
        E 0 92 2f 7f
        E 16 82 2f 00
        E 0 b2 0b 7f
        E 0 92 2e 7f
        E 16 82 2e 00
        E 0 b2 0b 7f
        E 0 92 21 7f
        E 16 82 21 00
        E 0 b2 0b 7f
        E 0 92 2c 7f
        E 16 82 2c 00
        E 0 b2 0b 7f
        E 0 92 2b 7f
        E 16 82 2b 00
        E 0 b2 0b 7f
        E 0 92 2a 7f
        E 16 82 2a 00
        E 16 b2 0b 7f
        E 0 92 29 7f
        E 32 82 29 00
        E 0 b2 0b 7f
        E 0 92 28 7f
        E 16 82 28 00
        E 0 b2 0b 7f
        E 0 92 27 7f
        E 16 82 27 00
        E 0 b2 0b 7f
        E 0 92 26 7f
        E 16 82 26 00
        E 0 b2 0b 7f
        E 0 92 25 7f
        E 16 82 25 00
        E 0 b2 0b 7f
        E 0 92 24 7f
        E 16 82 24 00
        E 0 b2 0b 7f
        E 0 92 23 7f
        E 16 82 23 00
        E 0 b2 0b 7f
        E 0 92 22 7f
        E 16 82 22 00
        E 16 b2 0b 7f
        E 0 92 21 7f
        E 16 82 21 00
        E 0 b2 0b 7f
        E 0 92 25 7f
        E 16 82 25 00
        E 0 b2 0b 7f
        E 0 92 24 7f
        E 16 82 24 00
        E 0 b2 0b 7f
        E 0 92 23 7f
        E 16 82 23 00
        E 0 b2 0b 7f
        E 0 92 22 7f
        E 16 82 22 00
        E 0 b2 0b 7f
        E 0 92 1a 7f
        E 16 82 1a 00
        E 0 b2 0b 7f
        E 0 92 20 7f
        E 16 82 20 00
        E 0 b2 0b 7f
        E 0 92 1f 7f
        E 16 82 1f 00
        E 0 b2 0b 7f
        E 0 92 1e 7f
        E 16 82 1e 00
        E 16 b2 0b 7f
        E 0 92 39 7f
        E 16 82 39 00
        E 0 b2 0b 7f
        E 0 92 31 7f
        E 16 82 31 00
        E 0 b2 0b 7f
        E 0 92 30 7f
        E 16 82 30 00
        E 0 b2 0b 7f
        E 0 92 2f 7f
        E 16 82 2f 00
        E 16 b2 0b 7f
        E 0 92 2e 7f
        E 16 82 2e 00
        E 0 b2 0b 7f
        E 0 92 31 7f
        E 16 82 31 00
        E 0 b2 0b 7f
        E 0 92 30 7f
        E 16 82 30 00
        E 0 b2 0b 7f
        E 0 92 2f 7f
        E 16 82 2f 00
        E 96 b2 0b 7f
        E 0 92 2e 7f
        E 16 82 2e 00
        E 0 b2 0b 7f
        E 0 92 31 7f
        E 16 82 31 00
        E 0 b2 0b 7f
        E 0 92 30 7f
        E 16 82 30 00
        E 0 b2 0b 7f
        E 0 92 2f 7f
        E 16 82 2f 00
        E 16 b2 0b 7f
        E 0 92 21 7f
        E 16 82 21 00
        E 0 b2 0b 7f
        E 0 92 29 7f
        E 16 82 29 00
        E 0 b2 0b 7f
        E 0 92 28 7f
        E 16 82 28 00
        E 0 b2 0b 7f
        E 0 92 27 7f
        E 16 82 27 00
        E 16 b2 0b 7f
        E 0 92 26 7f
        E 16 82 26 00
        E 0 b2 0b 7f
        E 0 92 29 7f
        E 16 82 29 00
        E 0 b2 0b 7f
        E 0 92 28 7f
        E 16 82 28 00
        E 0 b2 0b 7f
        E 0 92 27 7f
        E 16 82 27 00
        E 16 b2 0b 7f
        E 0 92 26 7f
        E 16 82 26 00
        E 0 b2 0b 7f
        E 0 92 25 7f
        E 16 82 25 00
        E 0 b2 0b 7f
        E 0 92 24 7f
        E 16 82 24 00
        E 0 b2 0b 7f
        E 0 92 23 7f
        E 16 82 23 00
        E 0 b2 0b 7f
        E 0 92 22 7f
        E 16 82 22 00
        E 0 b2 0b 7f
        E 0 92 1a 7f
        E 16 82 1a 00
        E 0 b2 0b 7f
        E 0 92 20 7f
        E 16 82 20 00
        E 0 b2 0b 7f
        E 0 92 1f 7f
        E 16 82 1f 00
        E 0 b2 0b 7f
        E 0 92 1e 7f
        E 16 82 1e 00
        E 16 b2 0b 7f
        E 0 92 26 7f
        E 16 82 26 00
        E 0 b2 0b 7f
        E 0 92 27 7f
        E 16 82 27 00
        E 0 b2 0b 7f
        E 0 92 26 7f
        E 16 82 26 00
        E 112 b2 0b 7f
        E 0 92 25 7f
        E 16 82 25 00
        E 0 b2 0b 7f
        E 0 92 27 7f
        E 16 82 27 00
        E 0 b2 0b 7f
        E 0 92 26 7f
        E 16 82 26 00
        E 112 b2 0b 7f
        E 0 92 36 7f
        E 16 82 36 00
        E 0 b2 0b 7f
        E 0 92 21 7f
        E 16 82 21 00
        E 0 b2 0b 7f
        E 0 92 2c 7f
        E 16 82 2c 00
        E 0 b2 0b 7f
        E 0 92 2b 7f
        E 16 82 2b 00
        E 0 b2 0b 7f
        E 0 92 2a 7f
        E 16 82 2a 00
        E 0 b2 0b 7f
        E 0 92 29 7f
        E 16 82 29 00
        E 0 b2 0b 7f
        E 0 92 28 7f
        E 16 82 28 00
        E 0 b2 0b 7f
        E 0 92 27 7f
        E 16 82 27 00
        E 0 b2 0b 7f
        E 0 92 26 7f
        E 16 82 26 00
        E 16 b2 0b 7f
        E 0 92 25 7f
        E 16 82 25 00
        E 0 b2 0b 7f
        E 0 92 27 7f
        E 16 82 27 00
        E 0 b2 0b 7f
        E 0 92 26 7f
        E 16 82 26 00
        E 112 b2 0b 7f
        E 0 92 25 7f
        E 16 82 25 00
        E 0 b2 0b 7f
        E 0 92 27 7f
        E 16 82 27 00
        E 0 b2 0b 7f
        E 0 92 26 7f
        E 16 82 26 00
        E 112 b2 0b 7f
        E 0 92 25 7f
        E 16 82 25 00
        E 0 b2 0b 7f
        E 0 92 27 7f
        E 16 82 27 00
        E 0 b2 0b 7f
        E 0 92 26 7f
        E 16 82 26 00
        E 112 b2 0b 7f
        E 0 92 36 7f
        E 16 82 36 00
        E 0 b2 0b 7f
        E 0 92 21 7f
        E 16 82 21 00
        E 0 b2 0b 7f
        E 0 92 2c 7f
        E 16 82 2c 00
        E 0 b2 0b 7f
        E 0 92 2b 7f
        E 16 82 2b 00
        E 0 b2 0b 7f
        E 0 92 2a 7f
        E 16 82 2a 00
        E 0 b2 0b 7f
        E 0 92 29 7f
        E 16 82 29 00
        E 0 b2 0b 7f
        E 0 92 28 7f
        E 16 82 28 00
        E 0 b2 0b 7f
        E 0 92 27 7f
        E 16 82 27 00
        E 0 b2 0b 7f
        E 0 92 26 7f
        E 16 82 26 00
        E 16 b2 0b 7f
        E 0 92 25 7f
        E 16 82 25 00
        E 0 b2 0b 7f
        E 0 92 27 7f
        E 16 82 27 00
        E 0 b2 0b 7f
        E 0 92 26 7f
        E 16 82 26 00
        E 112 b2 0b 7f
        E 0 92 25 7f
        E 16 82 25 00
        E 0 b2 0b 7f
        E 0 92 27 7f
        E 16 82 27 00
        E 0 b2 0b 7f
        E 0 92 26 7f
        E 16 82 26 00
        E 112 b2 0b 7f
        E 0 92 25 7f
        E 16 82 25 00
        E 0 b2 0b 7f
        E 0 92 27 7f
        E 16 82 27 00
        E 0 b2 0b 7f
        E 0 92 26 7f
        E 16 82 26 00
        E 112 b2 0b 7f
        E 0 92 36 7f
        E 16 82 36 00
        E 0 b2 0b 7f
        E 0 92 21 7f
        E 16 82 21 00
        E 0 b2 0b 7f
        E 0 92 2c 7f
        E 16 82 2c 00
        E 0 b2 0b 7f
        E 0 92 2b 7f
        E 16 82 2b 00
        E 0 b2 0b 7f
        E 0 92 2a 7f
        E 16 82 2a 00
        E 0 b2 0b 7f
        E 0 92 29 7f
        E 16 82 29 00
        E 0 b2 0b 7f
        E 0 92 28 7f
        E 16 82 28 00
        E 0 b2 0b 7f
        E 0 92 27 7f
        E 16 82 27 00
        E 0 b2 0b 7f
        E 0 92 26 7f
        E 16 82 26 00
        E 16 b2 0b 7f
        E 0 92 25 7f
        E 16 82 25 00
        E 0 b2 0b 7f
        E 0 92 27 7f
        E 16 82 27 00
        E 0 b2 0b 7f
        E 0 92 26 7f
        E 16 82 26 00
        E 112 b2 0b 7f
        E 0 92 25 7f
        E 16 82 25 00
        E 0 b2 0b 7f
        E 0 92 27 7f
        E 16 82 27 00
        E 0 b2 0b 7f
        E 0 92 26 7f
        E 16 82 26 00
        E 112 b2 0b 7f
        E 0 92 25 7f
        E 16 82 25 00
        E 0 b2 0b 7f
        E 0 92 27 7f
        E 16 82 27 00
        E 0 b2 0b 7f
        E 0 92 26 7f
        E 16 82 26 00
        E 112 b2 0b 7f
        E 0 92 36 7f
        E 16 82 36 00
        E 0 b2 0b 7f
        E 0 92 21 7f
        E 16 82 21 00
        E 0 b2 0b 7f
        E 0 92 2c 7f
        E 16 82 2c 00
        E 0 b2 0b 7f
        E 0 92 2b 7f
        E 16 82 2b 00
        E 0 b2 0b 7f
        E 0 92 2a 7f
        E 16 82 2a 00
        E 0 b2 0b 7f
        E 0 92 29 7f
        E 16 82 29 00
        E 0 b2 0b 7f
        E 0 92 28 7f
        E 16 82 28 00
        E 0 b2 0b 7f
        E 0 92 27 7f
        E 16 82 27 00
        E 0 b2 0b 7f
        E 0 92 26 7f
        E 16 82 26 00
        E 16 b2 0b 7f
        E 0 92 25 7f
        E 16 82 25 00
        E 0 b2 0b 7f
        E 0 92 27 7f
        E 16 82 27 00
        E 0 b2 0b 7f
        E 0 92 26 7f
        E 16 82 26 00
        E 112 b2 0b 7f
        E 0 92 25 7f
        E 16 82 25 00
        E 0 b2 0b 7f
        E 0 92 27 7f
        E 16 82 27 00
        E 0 b2 0b 7f
        E 0 92 26 7f
        E 16 82 26 00
        E 112 b2 0b 7f
        E 0 92 25 7f
        E 16 82 25 00
        E 0 b2 0b 7f
        E 0 92 27 7f
        E 16 82 27 00
        E 0 b2 0b 7f
        E 0 92 26 7f
        E 16 82 26 00
        E 112 b2 0b 7f
        E 0 92 36 7f
        E 16 82 36 00
        E 0 b2 0b 7f
        E 0 92 21 7f
        E 16 82 21 00
        E 0 b2 0b 7f
        E 0 92 2c 7f
        E 16 82 2c 00
        E 0 b2 0b 7f
        E 0 92 2b 7f
        E 16 82 2b 00
        E 0 b2 0b 7f
        E 0 92 2a 7f
        E 16 82 2a 00
        E 0 b2 0b 7f
        E 0 92 29 7f
        E 16 82 29 00
        E 0 b2 0b 7f
        E 0 92 28 7f
        E 16 82 28 00
        E 0 b2 0b 7f
        E 0 92 27 7f
        E 16 82 27 00
        E 0 b2 0b 7f
        E 0 92 26 7f
        E 16 82 26 00
        E 16 b2 0b 7f
        E 0 92 25 7f
        E 16 82 25 00
        E 0 b2 0b 7f
        E 0 92 27 7f
        E 16 82 27 00
        E 0 b2 0b 7f
        E 0 92 26 7f
        E 16 82 26 00
        E 112 b2 0b 7f
        E 0 92 25 7f
        E 16 82 25 00
        E 0 b2 0b 7f
        E 0 92 27 7f
        E 16 82 27 00
        E 0 b2 0b 7f
        E 0 92 26 7f
        E 16 82 26 00
        E 112 b2 0b 7f
        E 0 92 25 7f
        E 16 82 25 00
        E 0 b2 0b 7f
        E 0 92 27 7f
        E 16 82 27 00
        E 0 b2 0b 7f
        E 0 92 26 7f
        E 16 82 26 00
        E 112 b2 0b 7f
        E 0 92 36 7f
        E 16 82 36 00
        E 0 b2 0b 7f
        E 0 92 21 7f
        E 16 82 21 00
        E 0 b2 0b 7f
        E 0 92 2c 7f
        E 16 82 2c 00
        E 0 b2 0b 7f
        E 0 92 2b 7f
        E 16 82 2b 00
        E 0 b2 0b 7f
        E 0 92 2a 7f
        E 16 82 2a 00
        E 0 b2 0b 7f
        E 0 92 29 7f
        E 16 82 29 00
        E 0 b2 0b 7f
        E 0 92 28 7f
        E 16 82 28 00
        E 0 b2 0b 7f
        E 0 92 27 7f
        E 16 82 27 00
        E 0 b2 0b 7f
        E 0 92 26 7f
        E 16 82 26 00
        E 16 b2 0b 7f
        E 0 92 25 7f
        E 16 82 25 00
        E 0 b2 0b 7f
        E 0 92 27 7f
        E 16 82 27 00
        E 0 b2 0b 7f
        E 0 92 26 7f
        E 16 82 26 00
        E 112 b2 0b 7f
        E 0 92 36 7f
        E 16 82 36 00
        E 0 b2 0b 7f
        E 0 92 31 7f
        E 16 82 31 00
        E 0 b2 0b 7f
        E 0 92 30 7f
        E 16 82 30 00
        E 0 b2 0b 7f
        E 0 92 2f 7f
        E 16 82 2f 00
        E 16 b2 0b 7f
        E 0 92 2e 7f
        E 16 82 2e 00
        E 0 b2 0b 7f
        E 0 92 31 7f
        E 16 82 31 00
        E 0 b2 0b 7f
        E 0 92 30 7f
        E 16 82 30 00
        E 0 b2 0b 7f
        E 0 92 2f 7f
        E 16 82 2f 00
        E 16 b2 0b 7f
        E 0 92 21 7f
        E 16 82 21 00
        E 0 b2 0b 7f
        E 0 92 29 7f
        E 16 82 29 00
        E 0 b2 0b 7f
        E 0 92 28 7f
        E 16 82 28 00
        E 0 b2 0b 7f
        E 0 92 27 7f
        E 16 82 27 00
        E 16 b2 0b 7f
        E 0 92 26 7f
        E 16 82 26 00
        E 0 b2 0b 7f
        E 0 92 25 7f
        E 16 82 25 00
        E 0 b2 0b 7f
        E 0 92 24 7f
        E 16 82 24 00
        E 0 b2 0b 7f
        E 0 92 23 7f
        E 16 82 23 00
        E 16 b2 0b 7f
        E 0 92 2f 7f
        E 16 82 2f 00
        E 0 b2 0b 7f
        E 0 92 31 7f
        E 16 82 31 00
        E 0 b2 0b 7f
        E 0 92 30 7f
        E 16 82 30 00
        E 0 b2 0b 7f
        E 0 92 2f 7f
        E 16 82 2f 00
        E 16 b2 0b 7f
        E 0 92 21 7f
        E 16 82 21 00
        E 0 b2 0b 7f
        E 0 92 29 7f
        E 16 82 29 00
        E 0 b2 0b 7f
        E 0 92 28 7f
        E 16 82 28 00
        E 0 b2 0b 7f
        E 0 92 27 7f
        E 16 82 27 00
        E 16 b2 0b 7f
        E 0 92 26 7f
        E 16 82 26 00
        E 0 b2 0b 7f
        E 0 92 29 7f
        E 16 82 29 00
        E 0 b2 0b 7f
        E 0 92 28 7f
        E 16 82 28 00
        E 0 b2 0b 7f
        E 0 92 27 7f
        E 16 82 27 00
        E 16 b2 0b 7f
        E 0 92 26 7f
        E 16 82 26 00
        E 0 b2 0b 7f
        E 0 92 25 7f
        E 16 82 25 00
        E 0 b2 0b 7f
        E 0 92 24 7f
        E 16 82 24 00
        E 0 b2 0b 7f
        E 0 92 23 7f
        E 16 82 23 00
        E 16 b2 0b 7f
        E 0 92 2f 7f
        E 16 82 2f 00
        E 0 b2 0b 7f
        E 0 92 31 7f
        E 16 82 31 00
        E 0 b2 0b 7f
        E 0 92 30 7f
        E 16 82 30 00
        E 0 b2 0b 7f
        E 0 92 31 7f
        E 32 82 31 00
        E 0 b2 0b 7f
        E 0 92 30 7f
        E 16 82 30 00
        E 0 b2 0b 7f
        E 0 92 31 7f
        E 16 82 31 00
        E 0 b2 0b 7f
        E 0 92 32 7f
        E 16 82 32 00
        E 0 b2 0b 7f
        E 0 92 31 7f
        E 16 82 31 00
        E 0 b2 0b 7f
        E 0 92 30 7f
        E 16 82 30 00
        E 0 b2 0b 7f
        E 0 92 31 7f
        E 32 82 31 00
        E 0 b2 0b 7f
        E 0 92 30 7f
        E 16 82 30 00
        E 0 b2 0b 7f
        E 0 92 2f 7f
        E 16 82 2f 00
        E 16 b2 0b 7f
        E 0 92 2e 7f
        E 16 82 2e 00
        E 0 b2 0b 7f
        E 0 92 31 7f
        E 16 82 31 00
        E 0 b2 0b 7f
        E 0 92 30 7f
        E 16 82 30 00
        E 0 b2 0b 7f
        E 0 92 2f 7f
        E 16 82 2f 00
        E 16 b2 0b 7f
        E 0 92 21 7f
        E 16 82 21 00
        E 0 b2 0b 7f
        E 0 92 29 7f
        E 16 82 29 00
        E 0 b2 0b 7f
        E 0 92 28 7f
        E 16 82 28 00
        E 0 b2 0b 7f
        E 0 92 27 7f
        E 16 82 27 00
        E 16 b2 0b 7f
        E 0 92 26 7f
        E 16 82 26 00
        E 0 b2 0b 7f
        E 0 92 29 7f
        E 16 82 29 00
        E 0 b2 0b 7f
        E 0 92 28 7f
        E 16 82 28 00
        E 0 b2 0b 7f
        E 0 92 27 7f
        E 16 82 27 00
        E 16 b2 0b 7f
        E 0 92 26 7f
        E 16 82 26 00
        E 0 b2 0b 7f
        E 0 92 25 7f
        E 16 82 25 00
        E 0 b2 0b 7f
        E 0 92 24 7f
        E 16 82 24 00
        E 0 b2 0b 7f
        E 0 92 23 7f
        E 16 82 23 00
        E 16 b2 0b 7f
        E 0 92 22 7f
        E 16 82 22 00
        E 0 b2 0b 7f
        E 0 92 25 7f
        E 16 82 25 00
        E 0 b2 0b 7f
        E 0 92 24 7f
        E 16 82 24 00
        E 0 b2 0b 7f
        E 0 92 23 7f
        E 16 82 23 00
        E 16 b2 0b 7f
        E 0 92 22 7f
        E 16 82 22 00
        E 0 b2 0b 7f
        E 0 92 27 7f
        E 16 82 27 00
        E 0 b2 0b 7f
        E 0 92 26 7f
        E 16 82 26 00
        E 112 b2 0b 7f
        E 0 92 25 7f
        E 16 82 25 00
        E 0 b2 0b 7f
        E 0 92 27 7f
        E 16 82 27 00
        E 0 b2 0b 7f
        E 0 92 26 7f
        E 16 82 26 00
        E 112 b2 0b 7f
        E 0 92 36 7f
        E 16 82 36 00
        E 0 b2 0b 7f
        E 0 92 21 7f
        E 16 82 21 00
        E 0 b2 0b 7f
        E 0 92 2c 7f
        E 16 82 2c 00
        E 0 b2 0b 7f
        E 0 92 2b 7f
        E 16 82 2b 00
        E 0 b2 0b 7f
        E 0 92 2a 7f
        E 16 82 2a 00
        E 0 b2 0b 7f
        E 0 92 29 7f
        E 16 82 29 00
        E 0 b2 0b 7f
        E 0 92 28 7f
        E 16 82 28 00
        E 0 b2 0b 7f
        E 0 92 27 7f
        E 16 82 27 00
        E 0 b2 0b 7f
        E 0 92 26 7f
        E 16 82 26 00
        E 16 b2 0b 7f
        E 0 92 25 7f
        E 16 82 25 00
        E 0 b2 0b 7f
        E 0 92 27 7f
        E 16 82 27 00
        E 0 b2 0b 7f
        E 0 92 26 7f
        E 16 82 26 00
        E 112 b2 0b 7f
        E 0 92 25 7f
        E 16 82 25 00
        E 0 b2 0b 7f
        E 0 92 27 7f
        E 16 82 27 00
        E 0 b2 0b 7f
        E 0 92 26 7f
        E 16 82 26 00
        E 112 b2 0b 7f
        E 0 92 25 7f
        E 16 82 25 00
        E 0 b2 0b 7f
        E 0 92 27 7f
        E 16 82 27 00
        E 0 b2 0b 7f
        E 0 92 26 7f
        E 16 82 26 00
        E 112 b2 0b 7f
        E 0 92 36 7f
        E 16 82 36 00
        E 0 b2 0b 7f
        E 0 92 21 7f
        E 16 82 21 00
        E 0 b2 0b 7f
        E 0 92 2c 7f
        E 16 82 2c 00
        E 0 b2 0b 7f
        E 0 92 2b 7f
        E 16 82 2b 00
        E 0 b2 0b 7f
        E 0 92 2a 7f
        E 16 82 2a 00
        E 0 b2 0b 7f
        E 0 92 29 7f
        E 16 82 29 00
        E 0 b2 0b 7f
        E 0 92 28 7f
        E 16 82 28 00
        E 0 b2 0b 7f
        E 0 92 27 7f
        E 16 82 27 00
        E 0 b2 0b 7f
        E 0 92 26 7f
        E 16 82 26 00
        E 16 b2 0b 7f
        E 0 92 25 7f
        E 16 82 25 00
        E 0 b2 0b 7f
        E 0 92 27 7f
        E 16 82 27 00
        E 0 b2 0b 7f
        E 0 92 26 7f
        E 16 82 26 00
        E 112 b2 0b 7f
        E 0 92 25 7f
        E 16 82 25 00
        E 0 b2 0b 7f
        E 0 92 27 7f
        E 16 82 27 00
        E 0 b2 0b 7f
        E 0 92 26 7f
        E 16 82 26 00
        E 112 b2 0b 7f
        E 0 92 25 7f
        E 16 82 25 00
        E 0 b2 0b 7f
        E 0 92 27 7f
        E 16 82 27 00
        E 0 b2 0b 7f
        E 0 92 26 7f
        E 16 82 26 00
        E 112 b2 0b 7f
        E 0 92 36 7f
        E 16 82 36 00
        E 0 b2 0b 7f
        E 0 92 21 7f
        E 16 82 21 00
        E 0 b2 0b 7f
        E 0 92 2c 7f
        E 16 82 2c 00
        E 0 b2 0b 7f
        E 0 92 2b 7f
        E 16 82 2b 00
        E 0 b2 0b 7f
        E 0 92 2a 7f
        E 16 82 2a 00
        E 0 b2 0b 7f
        E 0 92 29 7f
        E 16 82 29 00
        E 0 b2 0b 7f
        E 0 92 28 7f
        E 16 82 28 00
        E 0 b2 0b 7f
        E 0 92 27 7f
        E 16 82 27 00
        E 0 b2 0b 7f
        E 0 92 26 7f
        E 16 82 26 00
        E 16 b2 0b 7f
        E 0 92 25 7f
        E 16 82 25 00
        E 0 b2 0b 7f
        E 0 92 27 7f
        E 16 82 27 00
        E 0 b2 0b 7f
        E 0 92 26 7f
        E 16 82 26 00
        E 112 b2 0b 7f
        E 0 92 25 7f
        E 16 82 25 00
        E 0 b2 0b 7f
        E 0 92 27 7f
        E 16 82 27 00
        E 0 b2 0b 7f
        E 0 92 26 7f
        E 16 82 26 00
        E 112 b2 0b 7f
        E 0 92 25 7f
        E 16 82 25 00
        E 0 b2 0b 7f
        E 0 92 27 7f
        E 16 82 27 00
        E 0 b2 0b 7f
        E 0 92 26 7f
        E 16 82 26 00
        E 112 b2 0b 7f
        E 0 92 36 7f
        E 16 82 36 00
        E 0 b2 0b 7f
        E 0 92 21 7f
        E 16 82 21 00
        E 0 b2 0b 7f
        E 0 92 2c 7f
        E 16 82 2c 00
        E 0 b2 0b 7f
        E 0 92 2b 7f
        E 16 82 2b 00
        E 0 b2 0b 7f
        E 0 92 2a 7f
        E 16 82 2a 00
        E 0 b2 0b 7f
        E 0 92 29 7f
        E 16 82 29 00
        E 0 b2 0b 7f
        E 0 92 28 7f
        E 16 82 28 00
        E 0 b2 0b 7f
        E 0 92 27 7f
        E 16 82 27 00
        E 0 b2 0b 7f
        E 0 92 26 7f
        E 16 82 26 00
        E 16 b2 0b 7f
        E 0 92 25 7f
        E 16 82 25 00
        E 0 b2 0b 7f
        E 0 92 27 7f
        E 16 82 27 00
        E 0 b2 0b 7f
        E 0 92 26 7f
        E 16 82 26 00
        E 112 b2 0b 7f
        E 0 92 25 7f
        E 16 82 25 00
        E 0 b2 0b 7f
        E 0 92 27 7f
        E 16 82 27 00
        E 0 b2 0b 7f
        E 0 92 26 7f
        E 16 82 26 00
        E 112 b2 0b 7f
        E 0 92 25 7f
        E 16 82 25 00
        E 0 b2 0b 7f
        E 0 92 27 7f
        E 16 82 27 00
        E 0 b2 0b 7f
        E 0 92 26 7f
        E 16 82 26 00
        E 112 b2 0b 7f
        E 0 92 36 7f
        E 16 82 36 00
        E 0 b2 0b 7f
        E 0 92 21 7f
        E 16 82 21 00
        E 0 b2 0b 7f
        E 0 92 2c 7f
        E 16 82 2c 00
        E 0 b2 0b 7f
        E 0 92 2b 7f
        E 16 82 2b 00
        E 0 b2 0b 7f
        E 0 92 2a 7f
        E 16 82 2a 00
        E 0 b2 0b 7f
        E 0 92 29 7f
        E 16 82 29 00
        E 0 b2 0b 7f
        E 0 92 28 7f
        E 16 82 28 00
        E 0 b2 0b 7f
        E 0 92 27 7f
        E 16 82 27 00
        E 0 b2 0b 7f
        E 0 92 26 7f
        E 16 82 26 00
        E 16 b2 0b 7f
        E 0 92 25 7f
        E 16 82 25 00
        E 0 b2 0b 7f
        E 0 92 27 7f
        E 16 82 27 00
        E 0 b2 0b 7f
        E 0 92 26 7f
        E 16 82 26 00
        E 112 b2 0b 7f
        E 0 92 25 7f
        E 16 82 25 00
        E 0 b2 0b 7f
        E 0 92 27 7f
        E 16 82 27 00
        E 0 b2 0b 7f
        E 0 92 26 7f
        E 16 82 26 00
        E 112 b2 0b 7f
        E 0 92 25 7f
        E 16 82 25 00
        E 0 b2 0b 7f
        E 0 92 27 7f
        E 16 82 27 00
        E 0 b2 0b 7f
        E 0 92 26 7f
        E 16 82 26 00
        E 112 b2 0b 7f
        E 0 92 36 7f
        E 16 82 36 00
        E 0 b2 0b 7f
        E 0 92 21 7f
        E 16 82 21 00
        E 0 b2 0b 7f
        E 0 92 2c 7f
        E 16 82 2c 00
        E 0 b2 0b 7f
        E 0 92 2b 7f
        E 16 82 2b 00
        E 0 b2 0b 7f
        E 0 92 2a 7f
        E 16 82 2a 00
        E 0 b2 0b 7f
        E 0 92 29 7f
        E 16 82 29 00
        E 0 b2 0b 7f
        E 0 92 28 7f
        E 16 82 28 00
        E 0 b2 0b 7f
        E 0 92 27 7f
        E 16 82 27 00
        E 0 b2 0b 7f
        E 0 92 26 7f
        E 16 82 26 00
        E 16 b2 0b 7f
        E 0 92 25 7f
        E 16 82 25 00
        E 0 b2 0b 7f
        E 0 92 27 7f
        E 16 82 27 00
        E 0 b2 0b 7f
        E 0 92 26 7f
        E 16 82 26 00
        E 112 b2 0b 7f
        E 0 92 36 7f
        E 16 82 36 00
        E 0 b2 0b 7f
        E 0 92 31 7f
        E 16 82 31 00
        E 0 b2 0b 7f
        E 0 92 30 7f
        E 16 82 30 00
        E 0 b2 0b 7f
        E 0 92 2f 7f
        E 16 82 2f 00
        E 0 b2 0b 7f
        E 0 92 2e 7f
        E 16 82 2e 00
        E 0 b2 0b 7f
        E 0 92 21 7f
        E 16 82 21 00
        E 0 b2 0b 7f
        E 0 92 2c 7f
        E 16 82 2c 00
        E 0 b2 0b 7f
        E 0 92 2b 7f
        E 16 82 2b 00
        E 0 b2 0b 7f
        E 0 92 2a 7f
        E 16 82 2a 00
        E 16 b2 0b 7f
        E 0 92 45 7f
        E 16 82 45 00
        E 0 b2 0b 7f
        E 0 92 31 7f
        E 16 82 31 00
        E 0 b2 0b 7f
        E 0 92 30 7f
        E 16 82 30 00
        E 0 b2 0b 7f
        E 0 92 2f 7f
        E 16 82 2f 00
        E 0 b2 0b 7f
        E 0 92 2e 7f
        E 16 82 2e 00
        E 0 b2 0b 7f
        E 0 92 21 7f
        E 16 82 21 00
        E 0 b2 0b 7f
        E 0 92 2c 7f
        E 16 82 2c 00
        E 0 b2 0b 7f
        E 0 92 2b 7f
        E 16 82 2b 00
        E 0 b2 0b 7f
        E 0 92 2a 7f
        E 16 82 2a 00
        E 16 b2 0b 7f
        E 0 92 29 7f
        E 32 82 29 00
        E 0 b2 0b 7f
        E 0 92 28 7f
        E 16 82 28 00
        E 0 b2 0b 7f
        E 0 92 27 7f
        E 16 82 27 00
        E 0 b2 0b 7f
        E 0 92 26 7f
        E 16 82 26 00
        E 0 b2 0b 7f
        E 0 92 25 7f
        E 16 82 25 00
        E 0 b2 0b 7f
        E 0 92 24 7f
        E 16 82 24 00
        E 0 b2 0b 7f
        E 0 92 23 7f
        E 16 82 23 00
        E 0 b2 0b 7f
        E 0 92 22 7f
        E 16 82 22 00
        E 16 b2 0b 7f
        E 0 92 21 7f
        E 16 82 21 00
        E 0 b2 0b 7f
        E 0 92 25 7f
        E 16 82 25 00
        E 0 b2 0b 7f
        E 0 92 24 7f
        E 16 82 24 00
        E 0 b2 0b 7f
        E 0 92 23 7f
        E 16 82 23 00
        E 0 b2 0b 7f
        E 0 92 22 7f
        E 16 82 22 00
        E 0 b2 0b 7f
        E 0 92 1a 7f
        E 16 82 1a 00
        E 0 b2 0b 7f
        E 0 92 20 7f
        E 16 82 20 00
        E 0 b2 0b 7f
        E 0 92 1f 7f
        E 16 82 1f 00
        E 0 b2 0b 7f
        E 0 92 1e 7f
        E 16 82 1e 00
        E 16 b2 0b 7f
        E 0 92 39 7f
        E 16 82 39 00
        E 0 b2 0b 7f
        E 0 92 31 7f
        E 16 82 31 00
        E 0 b2 0b 7f
        E 0 92 30 7f
        E 16 82 30 00
        E 0 b2 0b 7f
        E 0 92 2f 7f
        E 16 82 2f 00
        E 16 b2 0b 7f
        E 0 92 2e 7f
        E 16 82 2e 00
        E 0 b2 0b 7f
        E 0 92 31 7f
        E 16 82 31 00
        E 0 b2 0b 7f
        E 0 92 30 7f
        E 16 82 30 00
        E 0 b2 0b 7f
        E 0 92 2f 7f
        E 16 82 2f 00
        E 96 b2 0b 7f
        E 0 92 2e 7f
        E 16 82 2e 00
        E 0 b2 0b 7f
        E 0 92 31 7f
        E 16 82 31 00
        E 0 b2 0b 7f
        E 0 92 30 7f
        E 16 82 30 00
        E 0 b2 0b 7f
        E 0 92 2f 7f
        E 16 82 2f 00
        E 16 b2 0b 7f
        E 0 92 21 7f
        E 16 82 21 00
        E 0 b2 0b 7f
        E 0 92 29 7f
        E 16 82 29 00
        E 0 b2 0b 7f
        E 0 92 28 7f
        E 16 82 28 00
        E 0 b2 0b 7f
        E 0 92 27 7f
        E 16 82 27 00
        E 16 b2 0b 7f
        E 0 92 26 7f
        E 16 82 26 00
        E 0 b2 0b 7f
        E 0 92 29 7f
        E 16 82 29 00
        E 0 b2 0b 7f
        E 0 92 28 7f
        E 16 82 28 00
        E 0 b2 0b 7f
        E 0 92 27 7f
        E 16 82 27 00
        E 16 b2 0b 7f
        E 0 92 26 7f
        E 16 82 26 00
        E 0 b2 0b 7f
        E 0 92 25 7f
        E 16 82 25 00
        E 0 b2 0b 7f
        E 0 92 24 7f
        E 16 82 24 00
        E 0 b2 0b 7f
        E 0 92 23 7f
        E 16 82 23 00
        E 0 b2 0b 7f
        E 0 92 22 7f
        E 16 82 22 00
        E 0 b2 0b 7f
        E 0 92 1a 7f
        E 16 82 1a 00
        E 0 b2 0b 7f
        E 0 92 20 7f
        E 16 82 20 00
        E 0 b2 0b 7f
        E 0 92 1f 7f
        E 16 82 1f 00
        E 0 b2 0b 7f
        E 0 92 1e 7f
        E 16 82 1e 00
        E 16 b2 0b 7f
        E 0 92 26 7f
        E 16 82 26 00
        E 0 b2 0b 7f
        E 0 92 27 7f
        E 16 82 27 00
        E 0 b2 0b 7f
        E 0 92 26 7f
        E 16 82 26 00
        E 112 b2 0b 7f
        E 0 92 25 7f
        E 16 82 25 00
        E 0 b2 0b 7f
        E 0 92 27 7f
        E 16 82 27 00
        E 0 b2 0b 7f
        E 0 92 26 7f
        E 16 82 26 00
        E 112 b2 0b 7f
        E 0 92 36 7f
        E 16 82 36 00
        E 0 b2 0b 7f
        E 0 92 21 7f
        E 16 82 21 00
        E 0 b2 0b 7f
        E 0 92 2c 7f
        E 16 82 2c 00
        E 0 b2 0b 7f
        E 0 92 2b 7f
        E 16 82 2b 00
        E 0 b2 0b 7f
        E 0 92 2a 7f
        E 16 82 2a 00
        E 0 b2 0b 7f
        E 0 92 29 7f
        E 16 82 29 00
        E 0 b2 0b 7f
        E 0 92 28 7f
        E 16 82 28 00
        E 0 b2 0b 7f
        E 0 92 27 7f
        E 16 82 27 00
        E 0 b2 0b 7f
        E 0 92 26 7f
        E 16 82 26 00
        E 16 b2 0b 7f
        E 0 92 25 7f
        E 16 82 25 00
        E 0 b2 0b 7f
        E 0 92 27 7f
        E 16 82 27 00
        E 0 b2 0b 7f
        E 0 92 26 7f
        E 16 82 26 00
        E 112 b2 0b 7f
        E 0 92 25 7f
        E 16 82 25 00
        E 0 b2 0b 7f
        E 0 92 27 7f
        E 16 82 27 00
        E 0 b2 0b 7f
        E 0 92 26 7f
        E 16 82 26 00
        E 112 b2 0b 7f
        E 0 92 25 7f
        E 16 82 25 00
        E 0 b2 0b 7f
        E 0 92 27 7f
        E 16 82 27 00
        E 0 b2 0b 7f
        E 0 92 26 7f
        E 16 82 26 00
        E 112 b2 0b 7f
        E 0 92 36 7f
        E 16 82 36 00
        E 0 b2 0b 7f
        E 0 92 21 7f
        E 16 82 21 00
        E 0 b2 0b 7f
        E 0 92 2c 7f
        E 16 82 2c 00
        E 0 b2 0b 7f
        E 0 92 2b 7f
        E 16 82 2b 00
        E 0 b2 0b 7f
        E 0 92 2a 7f
        E 16 82 2a 00
        E 0 b2 0b 7f
        E 0 92 29 7f
        E 16 82 29 00
        E 0 b2 0b 7f
        E 0 92 28 7f
        E 16 82 28 00
        E 0 b2 0b 7f
        E 0 92 27 7f
        E 16 82 27 00
        E 0 b2 0b 7f
        E 0 92 26 7f
        E 16 82 26 00
        E 16 b2 0b 7f
        E 0 92 25 7f
        E 16 82 25 00
        E 0 b2 0b 7f
        E 0 92 27 7f
        E 16 82 27 00
        E 0 b2 0b 7f
        E 0 92 26 7f
        E 16 82 26 00
        E 112 b2 0b 7f
        E 0 92 25 7f
        E 16 82 25 00
        E 0 b2 0b 7f
        E 0 92 27 7f
        E 16 82 27 00
        E 0 b2 0b 7f
        E 0 92 26 7f
        E 16 82 26 00
        E 112 b2 0b 7f
        E 0 92 25 7f
        E 16 82 25 00
        E 0 b2 0b 7f
        E 0 92 27 7f
        E 16 82 27 00
        E 0 b2 0b 7f
        E 0 92 26 7f
        E 16 82 26 00
        E 112 b2 0b 7f
        E 0 92 36 7f
        E 16 82 36 00
        E 0 b2 0b 7f
        E 0 92 21 7f
        E 16 82 21 00
        E 0 b2 0b 7f
        E 0 92 2c 7f
        E 16 82 2c 00
        E 0 b2 0b 7f
        E 0 92 2b 7f
        E 16 82 2b 00
        E 0 b2 0b 7f
        E 0 92 2a 7f
        E 16 82 2a 00
        E 0 b2 0b 7f
        E 0 92 29 7f
        E 16 82 29 00
        E 0 b2 0b 7f
        E 0 92 28 7f
        E 16 82 28 00
        E 0 b2 0b 7f
        E 0 92 27 7f
        E 16 82 27 00
        E 0 b2 0b 7f
        E 0 92 26 7f
        E 16 82 26 00
        E 16 b2 0b 7f
        E 0 92 25 7f
        E 16 82 25 00
        E 0 b2 0b 7f
        E 0 92 27 7f
        E 16 82 27 00
        E 0 b2 0b 7f
        E 0 92 26 7f
        E 16 82 26 00
        E 112 b2 0b 7f
        E 0 92 25 7f
        E 16 82 25 00
        E 0 b2 0b 7f
        E 0 92 27 7f
        E 16 82 27 00
        E 0 b2 0b 7f
        E 0 92 26 7f
        E 16 82 26 00
        E 112 b2 0b 7f
        E 0 92 25 7f
        E 16 82 25 00
        E 0 b2 0b 7f
        E 0 92 27 7f
        E 16 82 27 00
        E 0 b2 0b 7f
        E 0 92 26 7f
        E 16 82 26 00
        E 112 b2 0b 7f
        E 0 92 36 7f
        E 16 82 36 00
        E 0 b2 0b 7f
        E 0 92 21 7f
        E 16 82 21 00
        E 0 b2 0b 7f
        E 0 92 2c 7f
        E 16 82 2c 00
        E 0 b2 0b 7f
        E 0 92 2b 7f
        E 16 82 2b 00
        E 0 b2 0b 7f
        E 0 92 2a 7f
        E 16 82 2a 00
        E 0 b2 0b 7f
        E 0 92 29 7f
        E 16 82 29 00
        E 0 b2 0b 7f
        E 0 92 28 7f
        E 16 82 28 00
        E 0 b2 0b 7f
        E 0 92 27 7f
        E 16 82 27 00
        E 0 b2 0b 7f
        E 0 92 26 7f
        E 16 82 26 00
        E 16 b2 0b 7f
        E 0 92 25 7f
        E 16 82 25 00
        E 0 b2 0b 7f
        E 0 92 27 7f
        E 16 82 27 00
        E 0 b2 0b 7f
        E 0 92 26 7f
        E 16 82 26 00
        E 112 b2 0b 7f
        E 0 92 25 7f
        E 16 82 25 00
        E 0 b2 0b 7f
        E 0 92 27 7f
        E 16 82 27 00
        E 0 b2 0b 7f
        E 0 92 26 7f
        E 16 82 26 00
        E 112 b2 0b 7f
        E 0 92 25 7f
        E 16 82 25 00
        E 0 b2 0b 7f
        E 0 92 27 7f
        E 16 82 27 00
        E 0 b2 0b 7f
        E 0 92 26 7f
        E 16 82 26 00
        E 112 b2 0b 7f
        E 0 92 36 7f
        E 16 82 36 00
        E 0 b2 0b 7f
        E 0 92 21 7f
        E 16 82 21 00
        E 0 b2 0b 7f
        E 0 92 2c 7f
        E 16 82 2c 00
        E 0 b2 0b 7f
        E 0 92 2b 7f
        E 16 82 2b 00
        E 0 b2 0b 7f
        E 0 92 2a 7f
        E 16 82 2a 00
        E 0 b2 0b 7f
        E 0 92 29 7f
        E 16 82 29 00
        E 0 b2 0b 7f
        E 0 92 28 7f
        E 16 82 28 00
        E 0 b2 0b 7f
        E 0 92 27 7f
        E 16 82 27 00
        E 0 b2 0b 7f
        E 0 92 26 7f
        E 16 82 26 00
        E 16 b2 0b 7f
        E 0 92 25 7f
        E 16 82 25 00
        E 0 b2 0b 7f
        E 0 92 27 7f
        E 16 82 27 00
        E 0 b2 0b 7f
        E 0 92 26 7f
        E 16 82 26 00
        E 112 b2 0b 7f
        E 0 92 25 7f
        E 16 82 25 00
        E 0 b2 0b 7f
        E 0 92 27 7f
        E 16 82 27 00
        E 0 b2 0b 7f
        E 0 92 26 7f
        E 16 82 26 00
        E 112 b2 0b 7f
        E 0 92 25 7f
        E 16 82 25 00
        E 0 b2 0b 7f
        E 0 92 27 7f
        E 16 82 27 00
        E 0 b2 0b 7f
        E 0 92 26 7f
        E 16 82 26 00
        E 112 b2 0b 7f
        E 0 92 36 7f
        E 16 82 36 00
        E 0 b2 0b 7f
        E 0 92 21 7f
        E 16 82 21 00
        E 0 b2 0b 7f
        E 0 92 2c 7f
        E 16 82 2c 00
        E 0 b2 0b 7f
        E 0 92 2b 7f
        E 16 82 2b 00
        E 0 b2 0b 7f
        E 0 92 2a 7f
        E 16 82 2a 00
        E 0 b2 0b 7f
        E 0 92 29 7f
        E 16 82 29 00
        E 0 b2 0b 7f
        E 0 92 28 7f
        E 16 82 28 00
        E 0 b2 0b 7f
        E 0 92 27 7f
        E 16 82 27 00
        E 0 b2 0b 7f
        E 0 92 26 7f
        E 16 82 26 00
        E 16 b2 0b 7f
        E 0 92 25 7f
        E 16 82 25 00
        E 0 b2 0b 7f
        E 0 92 27 7f
        E 16 82 27 00
        E 0 b2 0b 7f
        E 0 92 26 7f
        E 16 82 26 00
        E 112 b2 0b 7f
        E 0 92 36 7f
        E 16 82 36 00
        E 0 b2 0b 7f
        E 0 92 31 7f
        E 16 82 31 00
        E 0 b2 0b 7f
        E 0 92 30 7f
        E 16 82 30 00
        E 0 b2 0b 7f
        E 0 92 2f 7f
        E 16 82 2f 00
        E 16 b2 0b 7f
        E 0 92 2e 7f
        E 16 82 2e 00
        E 0 b2 0b 7f
        E 0 92 31 7f
        E 16 82 31 00
        E 0 b2 0b 7f
        E 0 92 30 7f
        E 16 82 30 00
        E 0 b2 0b 7f
        E 0 92 2f 7f
        E 16 82 2f 00
        E 16 b2 0b 7f
        E 0 92 21 7f
        E 16 82 21 00
        E 0 b2 0b 7f
        E 0 92 29 7f
        E 16 82 29 00
        E 0 b2 0b 7f
        E 0 92 28 7f
        E 16 82 28 00
        E 0 b2 0b 7f
        E 0 92 27 7f
        E 16 82 27 00
        E 16 b2 0b 7f
        E 0 92 26 7f
        E 16 82 26 00
        E 0 b2 0b 7f
        E 0 92 25 7f
        E 16 82 25 00
        E 0 b2 0b 7f
        E 0 92 24 7f
        E 16 82 24 00
        E 0 b2 0b 7f
        E 0 92 23 7f
        E 16 82 23 00
        E 16 b2 0b 7f
        E 0 92 2f 7f
        E 16 82 2f 00
        E 0 b2 0b 7f
        E 0 92 31 7f
        E 16 82 31 00
        E 0 b2 0b 7f
        E 0 92 30 7f
        E 16 82 30 00
        E 0 b2 0b 7f
        E 0 92 2f 7f
        E 16 82 2f 00
        E 16 b2 0b 7f
        E 0 92 21 7f
        E 16 82 21 00
        E 0 b2 0b 7f
        E 0 92 29 7f
        E 16 82 29 00
        E 0 b2 0b 7f
        E 0 92 28 7f
        E 16 82 28 00
        E 0 b2 0b 7f
        E 0 92 27 7f
        E 16 82 27 00
        E 16 b2 0b 7f
        E 0 92 26 7f
        E 16 82 26 00
        E 0 b2 0b 7f
        E 0 92 29 7f
        E 16 82 29 00
        E 0 b2 0b 7f
        E 0 92 28 7f
        E 16 82 28 00
        E 0 b2 0b 7f
        E 0 92 27 7f
        E 16 82 27 00
        E 16 b2 0b 7f
        E 0 92 26 7f
        E 16 82 26 00
        E 0 b2 0b 7f
        E 0 92 25 7f
        E 16 82 25 00
        E 0 b2 0b 7f
        E 0 92 24 7f
        E 16 82 24 00
        E 0 b2 0b 7f
        E 0 92 23 7f
        E 16 82 23 00
        E 16 b2 0b 7f
        E 0 92 2f 7f
        E 16 82 2f 00
        E 0 b2 0b 7f
        E 0 92 31 7f
        E 16 82 31 00
        E 0 b2 0b 7f
        E 0 92 30 7f
        E 16 82 30 00
        E 0 b2 0b 7f
        E 0 92 31 7f
        E 32 82 31 00
        E 0 b2 0b 7f
        E 0 92 30 7f
        E 16 82 30 00
        E 0 b2 0b 7f
        E 0 92 31 7f
        E 16 82 31 00
        E 0 b2 0b 7f
        E 0 92 32 7f
        E 16 82 32 00
        E 0 b2 0b 7f
        E 0 92 31 7f
        E 16 82 31 00
        E 0 b2 0b 7f
        E 0 92 30 7f
        E 16 82 30 00
        E 0 b2 0b 7f
        E 0 92 31 7f
        E 32 82 31 00
        E 0 b2 0b 7f
        E 0 92 30 7f
        E 16 82 30 00
        E 0 b2 0b 7f
        E 0 92 2f 7f
        E 16 82 2f 00
        E 16 b2 0b 7f
        E 0 92 2e 7f
        E 16 82 2e 00
        E 0 b2 0b 7f
        E 0 92 31 7f
        E 16 82 31 00
        E 0 b2 0b 7f
        E 0 92 30 7f
        E 16 82 30 00
        E 0 b2 0b 7f
        E 0 92 2f 7f
        E 16 82 2f 00
        E 16 b2 0b 7f
        E 0 92 21 7f
        E 16 82 21 00
        E 0 b2 0b 7f
        E 0 92 29 7f
        E 16 82 29 00
        E 0 b2 0b 7f
        E 0 92 28 7f
        E 16 82 28 00
        E 0 b2 0b 7f
        E 0 92 27 7f
        E 16 82 27 00
        E 16 b2 0b 7f
        E 0 92 26 7f
        E 16 82 26 00
        E 0 b2 0b 7f
        E 0 92 29 7f
        E 16 82 29 00
        E 0 b2 0b 7f
        E 0 92 28 7f
        E 16 82 28 00
        E 0 b2 0b 7f
        E 0 92 27 7f
        E 16 82 27 00
        E 16 b2 0b 7f
        E 0 92 26 7f
        E 16 82 26 00
        E 0 b2 0b 7f
        E 0 92 25 7f
        E 16 82 25 00
        E 0 b2 0b 7f
        E 0 92 24 7f
        E 16 82 24 00
        E 0 b2 0b 7f
        E 0 92 23 7f
        E 16 82 23 00
        E 16 b2 0b 7f
        E 0 92 22 7f
        E 16 82 22 00
        E 0 b2 0b 7f
        E 0 92 25 7f
        E 16 82 25 00
        E 0 b2 0b 7f
        E 0 92 24 7f
        E 16 82 24 00
        E 0 b2 0b 7f
        E 0 92 23 7f
        E 16 82 23 00
        E 16 b2 0b 7f
        E 0 92 22 7f
        E 16 82 22 00
        E 0 b2 0b 7f
        E 0 92 27 7f
        E 16 82 27 00
        E 0 b2 0b 7f
        E 0 92 26 7f
        E 16 82 26 00
        E 112 b2 0b 7f
        E 0 92 25 7f
        E 16 82 25 00
        E 0 b2 0b 7f
        E 0 92 27 7f
        E 16 82 27 00
        E 0 b2 0b 7f
        E 0 92 26 7f
        E 16 82 26 00
        E 112 b2 0b 7f
        E 0 92 36 7f
        E 16 82 36 00
        E 0 b2 0b 7f
        E 0 92 21 7f
        E 16 82 21 00
        E 0 b2 0b 7f
        E 0 92 2c 7f
        E 16 82 2c 00
        E 0 b2 0b 7f
        E 0 92 2b 7f
        E 16 82 2b 00
        E 0 b2 0b 7f
        E 0 92 2a 7f
        E 16 82 2a 00
        E 0 b2 0b 7f
        E 0 92 29 7f
        E 16 82 29 00
        E 0 b2 0b 7f
        E 0 92 28 7f
        E 16 82 28 00
        E 0 b2 0b 7f
        E 0 92 27 7f
        E 16 82 27 00
        E 0 b2 0b 7f
        E 0 92 26 7f
        E 16 82 26 00
        E 16 b2 0b 7f
        E 0 92 25 7f
        E 16 82 25 00
        E 0 b2 0b 7f
        E 0 92 27 7f
        E 16 82 27 00
        E 0 b2 0b 7f
        E 0 92 26 7f
        E 16 82 26 00
        E 112 b2 0b 7f
        E 0 92 25 7f
        E 16 82 25 00
        E 0 b2 0b 7f
        E 0 92 27 7f
        E 16 82 27 00
        E 0 b2 0b 7f
        E 0 92 26 7f
        E 16 82 26 00
        E 112 b2 0b 7f
        E 0 92 25 7f
        E 16 82 25 00
        E 0 b2 0b 7f
        E 0 92 27 7f
        E 16 82 27 00
        E 0 b2 0b 7f
        E 0 92 26 7f
        E 16 82 26 00
        E 112 b2 0b 7f
        E 0 92 36 7f
        E 16 82 36 00
        E 0 b2 0b 7f
        E 0 92 21 7f
        E 16 82 21 00
        E 0 b2 0b 7f
        E 0 92 2c 7f
        E 16 82 2c 00
        E 0 b2 0b 7f
        E 0 92 2b 7f
        E 16 82 2b 00
        E 0 b2 0b 7f
        E 0 92 2a 7f
        E 16 82 2a 00
        E 0 b2 0b 7f
        E 0 92 29 7f
        E 16 82 29 00
        E 0 b2 0b 7f
        E 0 92 28 7f
        E 16 82 28 00
        E 0 b2 0b 7f
        E 0 92 27 7f
        E 16 82 27 00
        E 0 b2 0b 7f
        E 0 92 26 7f
        E 16 82 26 00
        E 16 b2 0b 7f
        E 0 92 25 7f
        E 16 82 25 00
        E 0 b2 0b 7f
        E 0 92 27 7f
        E 16 82 27 00
        E 0 b2 0b 7f
        E 0 92 26 7f
        E 16 82 26 00
        E 112 b2 0b 7f
        E 0 92 25 7f
        E 16 82 25 00
        E 0 b2 0b 7f
        E 0 92 27 7f
        E 16 82 27 00
        E 0 b2 0b 7f
        E 0 92 26 7f
        E 16 82 26 00
        E 112 b2 0b 7f
        E 0 92 25 7f
        E 16 82 25 00
        E 0 b2 0b 7f
        E 0 92 27 7f
        E 16 82 27 00
        E 0 b2 0b 7f
        E 0 92 26 7f
        E 16 82 26 00
        E 112 b2 0b 7f
        E 0 92 36 7f
        E 16 82 36 00
        E 0 b2 0b 7f
        E 0 92 21 7f
        E 16 82 21 00
        E 0 b2 0b 7f
        E 0 92 2c 7f
        E 16 82 2c 00
        E 0 b2 0b 7f
        E 0 92 2b 7f
        E 16 82 2b 00
        E 0 b2 0b 7f
        E 0 92 2a 7f
        E 16 82 2a 00
        E 0 b2 0b 7f
        E 0 92 29 7f
        E 16 82 29 00
        E 0 b2 0b 7f
        E 0 92 28 7f
        E 16 82 28 00
        E 0 b2 0b 7f
        E 0 92 27 7f
        E 16 82 27 00
        E 0 b2 0b 7f
        E 0 92 26 7f
        E 16 82 26 00
        E 16 b2 0b 7f
        E 0 92 25 7f
        E 16 82 25 00
        E 0 b2 0b 7f
        E 0 92 27 7f
        E 16 82 27 00
        E 0 b2 0b 7f
        E 0 92 26 7f
        E 16 82 26 00
        E 112 b2 0b 7f
        E 0 92 25 7f
        E 16 82 25 00
        E 0 b2 0b 7f
        E 0 92 27 7f
        E 16 82 27 00
        E 0 b2 0b 7f
        E 0 92 26 7f
        E 16 82 26 00
        E 112 b2 0b 7f
        E 0 92 25 7f
        E 16 82 25 00
        E 0 b2 0b 7f
        E 0 92 27 7f
        E 16 82 27 00
        E 0 b2 0b 7f
        E 0 92 26 7f
        E 16 82 26 00
        E 112 b2 0b 7f
        E 0 92 36 7f
        E 16 82 36 00
        E 0 b2 0b 7f
        E 0 92 21 7f
        E 16 82 21 00
        E 0 b2 0b 7f
        E 0 92 2c 7f
        E 16 82 2c 00
        E 0 b2 0b 7f
        E 0 92 2b 7f
        E 16 82 2b 00
        E 0 b2 0b 7f
        E 0 92 2a 7f
        E 16 82 2a 00
        E 0 b2 0b 7f
        E 0 92 29 7f
        E 16 82 29 00
        E 0 b2 0b 7f
        E 0 92 28 7f
        E 16 82 28 00
        E 0 b2 0b 7f
        E 0 92 27 7f
        E 16 82 27 00
        E 0 b2 0b 7f
        E 0 92 26 7f
        E 16 82 26 00
        E 16 b2 0b 7f
        E 0 92 25 7f
        E 16 82 25 00
        E 0 b2 0b 7f
        E 0 92 27 7f
        E 16 82 27 00
        E 0 b2 0b 7f
        E 0 92 26 7f
        E 16 82 26 00
        E 112 b2 0b 7f
        E 0 92 25 7f
        E 16 82 25 00
        E 0 b2 0b 7f
        E 0 92 27 7f
        E 16 82 27 00
        E 0 b2 0b 7f
        E 0 92 26 7f
        E 16 82 26 00
        E 112 b2 0b 7f
        E 0 92 25 7f
        E 16 82 25 00
        E 0 b2 0b 7f
        E 0 92 27 7f
        E 16 82 27 00
        E 0 b2 0b 7f
        E 0 92 26 7f
        E 16 82 26 00
        E 112 b2 0b 7f
        E 0 92 36 7f
        E 16 82 36 00
        E 0 b2 0b 7f
        E 0 92 21 7f
        E 16 82 21 00
        E 0 b2 0b 7f
        E 0 92 2c 7f
        E 16 82 2c 00
        E 0 b2 0b 7f
        E 0 92 2b 7f
        E 16 82 2b 00
        E 0 b2 0b 7f
        E 0 92 2a 7f
        E 16 82 2a 00
        E 0 b2 0b 7f
        E 0 92 29 7f
        E 16 82 29 00
        E 0 b2 0b 7f
        E 0 92 28 7f
        E 16 82 28 00
        E 0 b2 0b 7f
        E 0 92 27 7f
        E 16 82 27 00
        E 0 b2 0b 7f
        E 0 92 26 7f
        E 16 82 26 00
        E 16 b2 0b 7f
        E 0 92 25 7f
        E 16 82 25 00
        E 0 b2 0b 7f
        E 0 92 27 7f
        E 16 82 27 00
        E 0 b2 0b 7f
        E 0 92 26 7f
        E 16 82 26 00
        E 112 b2 0b 7f
        E 0 92 25 7f
        E 16 82 25 00
        E 0 b2 0b 7f
        E 0 92 27 7f
        E 16 82 27 00
        E 0 b2 0b 7f
        E 0 92 26 7f
        E 16 82 26 00
        E 112 b2 0b 7f
        E 0 92 25 7f
        E 16 82 25 00
        E 0 b2 0b 7f
        E 0 92 27 7f
        E 16 82 27 00
        E 0 b2 0b 7f
        E 0 92 26 7f
        E 16 82 26 00
        E 112 b2 0b 7f
        E 0 92 36 7f
        E 16 82 36 00
        E 0 b2 0b 7f
        E 0 92 21 7f
        E 16 82 21 00
        E 0 b2 0b 7f
        E 0 92 2c 7f
        E 16 82 2c 00
        E 0 b2 0b 7f
        E 0 92 2b 7f
        E 16 82 2b 00
        E 0 b2 0b 7f
        E 0 92 2a 7f
        E 16 82 2a 00
        E 0 b2 0b 7f
        E 0 92 29 7f
        E 16 82 29 00
        E 0 b2 0b 7f
        E 0 92 28 7f
        E 16 82 28 00
        E 0 b2 0b 7f
        E 0 92 27 7f
        E 16 82 27 00
        E 0 b2 0b 7f
        E 0 92 26 7f
        E 16 82 26 00
        E 16 b2 0b 7f
        E 0 92 25 7f
        E 16 82 25 00
        E 0 b2 0b 7f
        E 0 92 27 7f
        E 16 82 27 00
        E 0 b2 0b 7f
        E 0 92 26 7f
        E 16 82 26 00
        E 112 b2 0b 7f
        E 0 92 36 7f
        E 16 82 36 00
        E 0 b2 0b 7f
        E 0 92 31 7f
        E 16 82 31 00
        E 0 b2 0b 7f
        E 0 92 30 7f
        E 16 82 30 00
        E 0 b2 0b 7f
        E 0 92 2f 7f
        E 16 82 2f 00
        E 0 b2 0b 7f
        E 0 92 2e 7f
        E 16 82 2e 00
        E 0 b2 0b 7f
        E 0 92 21 7f
        E 16 82 21 00
        E 0 b2 0b 7f
        E 0 92 2c 7f
        E 16 82 2c 00
        E 0 b2 0b 7f
        E 0 92 2b 7f
        E 16 82 2b 00
        E 0 b2 0b 7f
        E 0 92 2a 7f
        E 16 82 2a 00
        E 16 b2 0b 7f
        E 0 92 45 7f
        E 16 82 45 00
        E 0 b2 0b 7f
        E 0 92 31 7f
        E 16 82 31 00
        E 0 b2 0b 7f
        E 0 92 30 7f
        E 16 82 30 00
        E 0 b2 0b 7f
        E 0 92 2f 7f
        E 16 82 2f 00
        E 0 b2 0b 7f
        E 0 92 2e 7f
        E 16 82 2e 00
        E 0 b2 0b 7f
        E 0 92 21 7f
        E 16 82 21 00
        E 0 b2 0b 7f
        E 0 92 2c 7f
        E 16 82 2c 00
        E 0 b2 0b 7f
        E 0 92 2b 7f
        E 16 82 2b 00
        E 0 b2 0b 7f
        E 0 92 2a 7f
        E 16 82 2a 00
        E 16 b2 0b 7f
        E 0 92 29 7f
        E 32 82 29 00
        E 0 b2 0b 7f
        E 0 92 28 7f
        E 16 82 28 00
        E 0 b2 0b 7f
        E 0 92 27 7f
        E 16 82 27 00
        E 0 b2 0b 7f
        E 0 92 26 7f
        E 16 82 26 00
        E 0 b2 0b 7f
        E 0 92 25 7f
        E 16 82 25 00
        E 0 b2 0b 7f
        E 0 92 24 7f
        E 16 82 24 00
        E 0 b2 0b 7f
        E 0 92 23 7f
        E 16 82 23 00
        E 0 b2 0b 7f
        E 0 92 22 7f
        E 16 82 22 00
        E 16 b2 0b 7f
        E 0 92 21 7f
        E 16 82 21 00
        E 0 b2 0b 7f
        E 0 92 25 7f
        E 16 82 25 00
        E 0 b2 0b 7f
        E 0 92 24 7f
        E 16 82 24 00
        E 0 b2 0b 7f
        E 0 92 23 7f
        E 16 82 23 00
        E 0 b2 0b 7f
        E 0 92 22 7f
        E 16 82 22 00
        E 0 b2 0b 7f
        E 0 92 1a 7f
        E 16 82 1a 00
        E 0 b2 0b 7f
        E 0 92 20 7f
        E 16 82 20 00
        E 0 b2 0b 7f
        E 0 92 1f 7f
        E 16 82 1f 00
        E 0 b2 0b 7f
        E 0 92 1e 7f
        E 16 82 1e 00
        E 16 b2 0b 7f
        E 0 92 39 7f
        E 16 82 39 00
        E 0 b2 0b 7f
        E 0 92 31 7f
        E 16 82 31 00
        E 0 b2 0b 7f
        E 0 92 30 7f
        E 16 82 30 00
        E 0 b2 0b 7f
        E 0 92 2f 7f
        E 16 82 2f 00
        E 16 b2 0b 7f
        E 0 92 2e 7f
        E 16 82 2e 00
        E 0 b2 0b 7f
        E 0 92 31 7f
        E 16 82 31 00
        E 0 b2 0b 7f
        E 0 92 30 7f
        E 16 82 30 00
        E 0 b2 0b 7f
        E 0 92 2f 7f
        E 16 82 2f 00
        E 96 b2 0b 7f
        E 0 92 2e 7f
        E 16 82 2e 00
        E 0 b2 0b 7f
        E 0 92 31 7f
        E 16 82 31 00
        E 0 b2 0b 7f
        E 0 92 30 7f
        E 16 82 30 00
        E 0 b2 0b 7f
        E 0 92 2f 7f
        E 16 82 2f 00
        E 16 b2 0b 7f
        E 0 92 21 7f
        E 16 82 21 00
        E 0 b2 0b 7f
        E 0 92 29 7f
        E 16 82 29 00
        E 0 b2 0b 7f
        E 0 92 28 7f
        E 16 82 28 00
        E 0 b2 0b 7f
        E 0 92 27 7f
        E 16 82 27 00
        E 16 b2 0b 7f
        E 0 92 26 7f
        E 16 82 26 00
        E 0 b2 0b 7f
        E 0 92 29 7f
        E 16 82 29 00
        E 0 b2 0b 7f
        E 0 92 28 7f
        E 16 82 28 00
        E 0 b2 0b 7f
        E 0 92 27 7f
        E 16 82 27 00
        E 16 b2 0b 7f
        E 0 92 26 7f
        E 16 82 26 00
        E 0 b2 0b 7f
        E 0 92 25 7f
        E 16 82 25 00
        E 0 b2 0b 7f
        E 0 92 24 7f
        E 16 82 24 00
        E 0 b2 0b 7f
        E 0 92 23 7f
        E 16 82 23 00
        E 0 b2 0b 7f
        E 0 92 22 7f
        E 16 82 22 00
        E 0 b2 0b 7f
        E 0 92 1a 7f
        E 16 82 1a 00
        E 0 b2 0b 7f
        E 0 92 20 7f
        E 16 82 20 00
        E 0 b2 0b 7f
        E 0 92 1f 7f
        E 16 82 1f 00
        E 0 b2 0b 7f
        E 0 92 1e 7f
        E 16 82 1e 00
        E 16 b2 0b 7f
        E 0 92 26 7f
        E 16 82 26 00
        E 0 b2 0b 7f
        E 0 92 27 7f
        E 16 82 27 00
        E 0 b2 0b 7f
        E 0 92 26 7f
        E 16 82 26 00
        E 112 b2 0b 7f
        E 0 92 25 7f
        E 16 82 25 00
        E 0 b2 0b 7f
        E 0 92 27 7f
        E 16 82 27 00
        E 0 b2 0b 7f
        E 0 92 26 7f
        E 16 82 26 00
        E 112 b2 0b 7f
        E 0 92 36 7f
        E 16 82 36 00
        E 0 b2 0b 7f
        E 0 92 21 7f
        E 16 82 21 00
        E 0 b2 0b 7f
        E 0 92 2c 7f
        E 16 82 2c 00
        E 0 b2 0b 7f
        E 0 92 2b 7f
        E 16 82 2b 00
        E 0 b2 0b 7f
        E 0 92 2a 7f
        E 16 82 2a 00
        E 0 b2 0b 7f
        E 0 92 29 7f
        E 16 82 29 00
        E 0 b2 0b 7f
        E 0 92 28 7f
        E 16 82 28 00
        E 0 b2 0b 7f
        E 0 92 27 7f
        E 16 82 27 00
        E 0 b2 0b 7f
        E 0 92 26 7f
        E 16 82 26 00
        E 16 b2 0b 7f
        E 0 92 25 7f
        E 16 82 25 00
        E 0 b2 0b 7f
        E 0 92 27 7f
        E 16 82 27 00
        E 0 b2 0b 7f
        E 0 92 26 7f
        E 16 82 26 00
        E 112 b2 0b 7f
        E 0 92 25 7f
        E 16 82 25 00
        E 0 b2 0b 7f
        E 0 92 27 7f
        E 16 82 27 00
        E 0 b2 0b 7f
        E 0 92 26 7f
        E 16 82 26 00
        E 112 b2 0b 7f
        E 0 92 25 7f
        E 16 82 25 00
        E 0 b2 0b 7f
        E 0 92 27 7f
        E 16 82 27 00
        E 0 b2 0b 7f
        E 0 92 26 7f
        E 16 82 26 00
        E 112 b2 0b 7f
        E 0 92 36 7f
        E 16 82 36 00
        E 0 b2 0b 7f
        E 0 92 21 7f
        E 16 82 21 00
        E 0 b2 0b 7f
        E 0 92 2c 7f
        E 16 82 2c 00
        E 0 b2 0b 7f
        E 0 92 2b 7f
        E 16 82 2b 00
        E 0 b2 0b 7f
        E 0 92 2a 7f
        E 16 82 2a 00
        E 0 b2 0b 7f
        E 0 92 29 7f
        E 16 82 29 00
        E 0 b2 0b 7f
        E 0 92 28 7f
        E 16 82 28 00
        E 0 b2 0b 7f
        E 0 92 27 7f
        E 16 82 27 00
        E 0 b2 0b 7f
        E 0 92 26 7f
        E 16 82 26 00
        E 16 b2 0b 7f
        E 0 92 25 7f
        E 16 82 25 00
        E 0 b2 0b 7f
        E 0 92 27 7f
        E 16 82 27 00
        E 0 b2 0b 7f
        E 0 92 26 7f
        E 16 82 26 00
        E 112 b2 0b 7f
        E 0 92 25 7f
        E 16 82 25 00
        E 0 b2 0b 7f
        E 0 92 27 7f
        E 16 82 27 00
        E 0 b2 0b 7f
        E 0 92 26 7f
        E 16 82 26 00
        E 112 b2 0b 7f
        E 0 92 25 7f
        E 16 82 25 00
        E 0 b2 0b 7f
        E 0 92 27 7f
        E 16 82 27 00
        E 0 b2 0b 7f
        E 0 92 26 7f
        E 16 82 26 00
        E 112 b2 0b 7f
        E 0 92 36 7f
        E 16 82 36 00
        E 0 b2 0b 7f
        E 0 92 21 7f
        E 16 82 21 00
        E 0 b2 0b 7f
        E 0 92 2c 7f
        E 16 82 2c 00
        E 0 b2 0b 7f
        E 0 92 2b 7f
        E 16 82 2b 00
        E 0 b2 0b 7f
        E 0 92 2a 7f
        E 16 82 2a 00
        E 0 b2 0b 7f
        E 0 92 29 7f
        E 16 82 29 00
        E 0 b2 0b 7f
        E 0 92 28 7f
        E 16 82 28 00
        E 0 b2 0b 7f
        E 0 92 27 7f
        E 16 82 27 00
        E 0 b2 0b 7f
        E 0 92 26 7f
        E 16 82 26 00
        E 16 b2 0b 7f
        E 0 92 25 7f
        E 16 82 25 00
        E 0 b2 0b 7f
        E 0 92 27 7f
        E 16 82 27 00
        E 0 b2 0b 7f
        E 0 92 26 7f
        E 16 82 26 00
        E 112 b2 0b 7f
        E 0 92 25 7f
        E 16 82 25 00
        E 0 b2 0b 7f
        E 0 92 27 7f
        E 16 82 27 00
        E 0 b2 0b 7f
        E 0 92 26 7f
        E 16 82 26 00
        E 112 b2 0b 7f
        E 0 92 25 7f
        E 16 82 25 00
        E 0 b2 0b 7f
        E 0 92 27 7f
        E 16 82 27 00
        E 0 b2 0b 7f
        E 0 92 26 7f
        E 16 82 26 00
        E 112 b2 0b 7f
        E 0 92 36 7f
        E 16 82 36 00
        E 0 b2 0b 7f
        E 0 92 21 7f
        E 16 82 21 00
        E 0 b2 0b 7f
        E 0 92 2c 7f
        E 16 82 2c 00
        E 0 b2 0b 7f
        E 0 92 2b 7f
        E 16 82 2b 00
        E 0 b2 0b 7f
        E 0 92 2a 7f
        E 16 82 2a 00
        E 0 b2 0b 7f
        E 0 92 29 7f
        E 16 82 29 00
        E 0 b2 0b 7f
        E 0 92 28 7f
        E 16 82 28 00
        E 0 b2 0b 7f
        E 0 92 27 7f
        E 16 82 27 00
        E 0 b2 0b 7f
        E 0 92 26 7f
        E 16 82 26 00
        E 16 b2 0b 7f
        E 0 92 25 7f
        E 16 82 25 00
        E 0 b2 0b 7f
        E 0 92 27 7f
        E 16 82 27 00
        E 0 b2 0b 7f
        E 0 92 26 7f
        E 16 82 26 00
        E 112 b2 0b 7f
        E 0 92 25 7f
        E 16 82 25 00
        E 0 b2 0b 7f
        E 0 92 27 7f
        E 16 82 27 00
        E 0 b2 0b 7f
        E 0 92 26 7f
        E 16 82 26 00
        E 112 b2 0b 7f
        E 0 92 25 7f
        E 16 82 25 00
        E 0 b2 0b 7f
        E 0 92 27 7f
        E 16 82 27 00
        E 0 b2 0b 7f
        E 0 92 26 7f
        E 16 82 26 00
        E 112 b2 0b 7f
        E 0 92 36 7f
        E 16 82 36 00
        E 0 b2 0b 7f
        E 0 92 21 7f
        E 16 82 21 00
        E 0 b2 0b 7f
        E 0 92 2c 7f
        E 16 82 2c 00
        E 0 b2 0b 7f
        E 0 92 2b 7f
        E 16 82 2b 00
        E 0 b2 0b 7f
        E 0 92 2a 7f
        E 16 82 2a 00
        E 0 b2 0b 7f
        E 0 92 29 7f
        E 16 82 29 00
        E 0 b2 0b 7f
        E 0 92 28 7f
        E 16 82 28 00
        E 0 b2 0b 7f
        E 0 92 27 7f
        E 16 82 27 00
        E 0 b2 0b 7f
        E 0 92 26 7f
        E 16 82 26 00
        E 16 b2 0b 7f
        E 0 92 25 7f
        E 16 82 25 00
        E 0 b2 0b 7f
        E 0 92 27 7f
        E 16 82 27 00
        E 0 b2 0b 7f
        E 0 92 26 7f
        E 16 82 26 00
        E 112 b2 0b 7f
        E 0 92 25 7f
        E 16 82 25 00
        E 0 b2 0b 7f
        E 0 92 27 7f
        E 16 82 27 00
        E 0 b2 0b 7f
        E 0 92 26 7f
        E 16 82 26 00
        E 112 b2 0b 7f
        E 0 92 25 7f
        E 16 82 25 00
        E 0 b2 0b 7f
        E 0 92 27 7f
        E 16 82 27 00
        E 0 b2 0b 7f
        E 0 92 26 7f
        E 16 82 26 00
        E 112 b2 0b 7f
        E 0 92 36 7f
        E 16 82 36 00
        E 0 b2 0b 7f
        E 0 92 21 7f
        E 16 82 21 00
        E 0 b2 0b 7f
        E 0 92 2c 7f
        E 16 82 2c 00
        E 0 b2 0b 7f
        E 0 92 2b 7f
        E 16 82 2b 00
        E 0 b2 0b 7f
        E 0 92 2a 7f
        E 16 82 2a 00
        E 0 b2 0b 7f
        E 0 92 29 7f
        E 16 82 29 00
        E 0 b2 0b 7f
        E 0 92 28 7f
        E 16 82 28 00
        E 0 b2 0b 7f
        E 0 92 27 7f
        E 16 82 27 00
        E 0 b2 0b 7f
        E 0 92 26 7f
        E 16 82 26 00
        E 16 b2 0b 7f
        E 0 92 25 7f
        E 16 82 25 00
        E 0 b2 0b 7f
        E 0 92 27 7f
        E 16 82 27 00
        E 0 b2 0b 7f
        E 0 92 26 7f
        E 16 82 26 00
        E 112 b2 0b 7f
        E 0 92 36 7f
        E 16 82 36 00
        E 0 b2 0b 7f
        E 0 92 31 7f
        E 16 82 31 00
        E 0 b2 0b 7f
        E 0 92 30 7f
        E 16 82 30 00
        E 0 b2 0b 7f
        E 0 92 2f 7f
        E 16 82 2f 00
        E 16 b2 0b 7f
        E 0 92 2e 7f
        E 16 82 2e 00
        E 0 b2 0b 7f
        E 0 92 31 7f
        E 16 82 31 00
        E 0 b2 0b 7f
        E 0 92 30 7f
        E 16 82 30 00
        E 0 b2 0b 7f
        E 0 92 2f 7f
        E 16 82 2f 00
        E 16 b2 0b 7f
        E 0 92 21 7f
        E 16 82 21 00
        E 0 b2 0b 7f
        E 0 92 29 7f
        E 16 82 29 00
        E 0 b2 0b 7f
        E 0 92 28 7f
        E 16 82 28 00
        E 0 b2 0b 7f
        E 0 92 27 7f
        E 16 82 27 00
        E 16 b2 0b 7f
        E 0 92 26 7f
        E 16 82 26 00
        E 0 b2 0b 7f
        E 0 92 25 7f
        E 16 82 25 00
        E 0 b2 0b 7f
        E 0 92 24 7f
        E 16 82 24 00
        E 0 b2 0b 7f
        E 0 92 23 7f
        E 16 82 23 00
        E 16 b2 0b 7f
        E 0 92 2f 7f
        E 16 82 2f 00
        E 0 b2 0b 7f
        E 0 92 31 7f
        E 16 82 31 00
        E 0 b2 0b 7f
        E 0 92 30 7f
        E 16 82 30 00
        E 0 b2 0b 7f
        E 0 92 2f 7f
        E 16 82 2f 00
        E 16 b2 0b 7f
        E 0 92 21 7f
        E 16 82 21 00
        E 0 b2 0b 7f
        E 0 92 29 7f
        E 16 82 29 00
        E 0 b2 0b 7f
        E 0 92 28 7f
        E 16 82 28 00
        E 0 b2 0b 7f
        E 0 92 27 7f
        E 16 82 27 00
        E 16 b2 0b 7f
        E 0 92 26 7f
        E 16 82 26 00
        E 0 b2 0b 7f
        E 0 92 29 7f
        E 16 82 29 00
        E 0 b2 0b 7f
        E 0 92 28 7f
        E 16 82 28 00
        E 0 b2 0b 7f
        E 0 92 27 7f
        E 16 82 27 00
        E 16 b2 0b 7f
        E 0 92 26 7f
        E 16 82 26 00
        E 0 b2 0b 7f
        E 0 92 25 7f
        E 16 82 25 00
        E 0 b2 0b 7f
        E 0 92 24 7f
        E 16 82 24 00
        E 0 b2 0b 7f
        E 0 92 23 7f
        E 16 82 23 00
        E 16 b2 0b 7f
        E 0 92 2f 7f
        E 16 82 2f 00
        E 0 b2 0b 7f
        E 0 92 31 7f
        E 16 82 31 00
        E 0 b2 0b 7f
        E 0 92 30 7f
        E 16 82 30 00
        E 0 b2 0b 7f
        E 0 92 31 7f
        E 32 82 31 00
        E 0 b2 0b 7f
        E 0 92 30 7f
        E 16 82 30 00
        E 0 b2 0b 7f
        E 0 92 31 7f
        E 16 82 31 00
        E 0 b2 0b 7f
        E 0 92 32 7f
        E 16 82 32 00
        E 0 b2 0b 7f
        E 0 92 31 7f
        E 16 82 31 00
        E 0 b2 0b 7f
        E 0 92 30 7f
        E 16 82 30 00
        E 0 b2 0b 7f
        E 0 92 31 7f
        E 32 82 31 00
        E 0 b2 0b 7f
        E 0 92 30 7f
        E 16 82 30 00
        E 0 b2 0b 7f
        E 0 92 2f 7f
        E 16 82 2f 00
        E 16 b2 0b 7f
        E 0 92 2e 7f
        E 16 82 2e 00
        E 0 b2 0b 7f
        E 0 92 31 7f
        E 16 82 31 00
        E 0 b2 0b 7f
        E 0 92 30 7f
        E 16 82 30 00
        E 0 b2 0b 7f
        E 0 92 2f 7f
        E 16 82 2f 00
        E 16 b2 0b 7f
        E 0 92 21 7f
        E 16 82 21 00
        E 0 b2 0b 7f
        E 0 92 29 7f
        E 16 82 29 00
        E 0 b2 0b 7f
        E 0 92 28 7f
        E 16 82 28 00
        E 0 b2 0b 7f
        E 0 92 27 7f
        E 16 82 27 00
        E 16 b2 0b 7f
        E 0 92 26 7f
        E 16 82 26 00
        E 0 b2 0b 7f
        E 0 92 29 7f
        E 16 82 29 00
        E 0 b2 0b 7f
        E 0 92 28 7f
        E 16 82 28 00
        E 0 b2 0b 7f
        E 0 92 27 7f
        E 16 82 27 00
        E 16 b2 0b 7f
        E 0 92 26 7f
        E 16 82 26 00
        E 0 b2 0b 7f
        E 0 92 25 7f
        E 16 82 25 00
        E 0 b2 0b 7f
        E 0 92 24 7f
        E 16 82 24 00
        E 0 b2 0b 7f
        E 0 92 23 7f
        E 16 82 23 00
        E 16 b2 0b 7f
        E 0 92 22 7f
        E 16 82 22 00
        E 0 b2 0b 7f
        E 0 92 25 7f
        E 16 82 25 00
        E 0 b2 0b 7f
        E 0 92 24 7f
        E 16 82 24 00
        E 0 b2 0b 7f
        E 0 92 23 7f
        E 16 82 23 00
        E 16 b2 0b 7f
        E 0 92 22 7f
        E 16 82 22 00
        E 0 b2 0b 7f
        E 0 92 27 7f
        E 16 82 27 00
        E 0 b2 0b 7f
        E 0 92 26 7f
        E 16 82 26 00
        E 112 b2 0b 7f
        E 0 92 25 7f
        E 16 82 25 00
        E 0 b2 0b 7f
        E 0 92 27 7f
        E 16 82 27 00
        E 0 b2 0b 7f
        E 0 92 26 7f
        E 16 82 26 00
        E 112 b2 0b 7f
        E 0 92 36 7f
        E 16 82 36 00
        E 0 b2 0b 7f
        E 0 92 21 7f
        E 16 82 21 00
        E 0 b2 0b 7f
        E 0 92 2c 7f
        E 16 82 2c 00
        E 0 b2 0b 7f
        E 0 92 2b 7f
        E 16 82 2b 00
        E 0 b2 0b 7f
        E 0 92 2a 7f
        E 16 82 2a 00
        E 0 b2 0b 7f
        E 0 92 29 7f
        E 16 82 29 00
        E 0 b2 0b 7f
        E 0 92 28 7f
        E 16 82 28 00
        E 0 b2 0b 7f
        E 0 92 27 7f
        E 16 82 27 00
        E 0 b2 0b 7f
        E 0 92 26 7f
        E 16 82 26 00
        E 16 b2 0b 7f
        E 0 92 25 7f
        E 16 82 25 00
        E 0 b2 0b 7f
        E 0 92 27 7f
        E 16 82 27 00
        E 0 b2 0b 7f
        E 0 92 26 7f
        E 16 82 26 00
        E 112 b2 0b 7f
        E 0 92 25 7f
        E 16 82 25 00
        E 0 b2 0b 7f
        E 0 92 27 7f
        E 16 82 27 00
        E 0 b2 0b 7f
        E 0 92 26 7f
        E 16 82 26 00
        E 112 b2 0b 7f
        E 0 92 25 7f
        E 16 82 25 00
        E 0 b2 0b 7f
        E 0 92 27 7f
        E 16 82 27 00
        E 0 b2 0b 7f
        E 0 92 26 7f
        E 16 82 26 00
        E 112 b2 0b 7f
        E 0 92 36 7f
        E 16 82 36 00
        E 0 b2 0b 7f
        E 0 92 21 7f
        E 16 82 21 00
        E 0 b2 0b 7f
        E 0 92 2c 7f
        E 16 82 2c 00
        E 0 b2 0b 7f
        E 0 92 2b 7f
        E 16 82 2b 00
        E 0 b2 0b 7f
        E 0 92 2a 7f
        E 16 82 2a 00
        E 0 b2 0b 7f
        E 0 92 29 7f
        E 16 82 29 00
        E 0 b2 0b 7f
        E 0 92 28 7f
        E 16 82 28 00
        E 0 b2 0b 7f
        E 0 92 27 7f
        E 16 82 27 00
        E 0 b2 0b 7f
        E 0 92 26 7f
        E 16 82 26 00
        E 16 b2 0b 7f
        E 0 92 25 7f
        E 16 82 25 00
        E 0 b2 0b 7f
        E 0 92 27 7f
        E 16 82 27 00
        E 0 b2 0b 7f
        E 0 92 26 7f
        E 16 82 26 00
        E 112 b2 0b 7f
        E 0 92 25 7f
        E 16 82 25 00
        E 0 b2 0b 7f
        E 0 92 27 7f
        E 16 82 27 00
        E 0 b2 0b 7f
        E 0 92 26 7f
        E 16 82 26 00
        E 112 b2 0b 7f
        E 0 92 25 7f
        E 16 82 25 00
        E 0 b2 0b 7f
        E 0 92 27 7f
        E 16 82 27 00
        E 0 b2 0b 7f
        E 0 92 26 7f
        E 16 82 26 00
        E 112 b2 0b 7f
        E 0 92 36 7f
        E 16 82 36 00
        E 0 b2 0b 7f
        E 0 92 21 7f
        E 16 82 21 00
        E 0 b2 0b 7f
        E 0 92 2c 7f
        E 16 82 2c 00
        E 0 b2 0b 7f
        E 0 92 2b 7f
        E 16 82 2b 00
        E 0 b2 0b 7f
        E 0 92 2a 7f
        E 16 82 2a 00
        E 0 b2 0b 7f
        E 0 92 29 7f
        E 16 82 29 00
        E 0 b2 0b 7f
        E 0 92 28 7f
        E 16 82 28 00
        E 0 b2 0b 7f
        E 0 92 27 7f
        E 16 82 27 00
        E 0 b2 0b 7f
        E 0 92 26 7f
        E 16 82 26 00
        E 16 b2 0b 7f
        E 0 92 25 7f
        E 16 82 25 00
        E 0 b2 0b 7f
        E 0 92 27 7f
        E 16 82 27 00
        E 0 b2 0b 7f
        E 0 92 26 7f
        E 16 82 26 00
        E 112 b2 0b 7f
        E 0 92 25 7f
        E 16 82 25 00
        E 0 b2 0b 7f
        E 0 92 27 7f
        E 16 82 27 00
        E 0 b2 0b 7f
        E 0 92 26 7f
        E 16 82 26 00
        E 112 b2 0b 7f
        E 0 92 25 7f
        E 16 82 25 00
        E 0 b2 0b 7f
        E 0 92 27 7f
        E 16 82 27 00
        E 0 b2 0b 7f
        E 0 92 26 7f
        E 16 82 26 00
        E 112 b2 0b 7f
        E 0 92 36 7f
        E 16 82 36 00
        E 0 b2 0b 7f
        E 0 92 21 7f
        E 16 82 21 00
        E 0 b2 0b 7f
        E 0 92 2c 7f
        E 16 82 2c 00
        E 0 b2 0b 7f
        E 0 92 2b 7f
        E 16 82 2b 00
        E 0 b2 0b 7f
        E 0 92 2a 7f
        E 16 82 2a 00
        E 0 b2 0b 7f
        E 0 92 29 7f
        E 16 82 29 00
        E 0 b2 0b 7f
        E 0 92 28 7f
        E 16 82 28 00
        E 0 b2 0b 7f
        E 0 92 27 7f
        E 16 82 27 00
        E 0 b2 0b 7f
        E 0 92 26 7f
        E 16 82 26 00
        E 16 b2 0b 7f
        E 0 92 25 7f
        E 16 82 25 00
        E 0 b2 0b 7f
        E 0 92 27 7f
        E 16 82 27 00
        E 0 b2 0b 7f
        E 0 92 26 7f
        E 16 82 26 00
        E 112 b2 0b 7f
        E 0 92 25 7f
        E 16 82 25 00
        E 0 b2 0b 7f
        E 0 92 27 7f
        E 16 82 27 00
        E 0 b2 0b 7f
        E 0 92 26 7f
        E 16 82 26 00
        E 112 b2 0b 7f
        E 0 92 25 7f
        E 16 82 25 00
        E 0 b2 0b 7f
        E 0 92 27 7f
        E 16 82 27 00
        E 0 b2 0b 7f
        E 0 92 26 7f
        E 16 82 26 00
        E 112 b2 0b 7f
        E 0 92 36 7f
        E 16 82 36 00
        E 0 b2 0b 7f
        E 0 92 21 7f
        E 16 82 21 00
        E 0 b2 0b 7f
        E 0 92 2c 7f
        E 16 82 2c 00
        E 0 b2 0b 7f
        E 0 92 2b 7f
        E 16 82 2b 00
        E 0 b2 0b 7f
        E 0 92 2a 7f
        E 16 82 2a 00
        E 0 b2 0b 7f
        E 0 92 29 7f
        E 16 82 29 00
        E 0 b2 0b 7f
        E 0 92 28 7f
        E 16 82 28 00
        E 0 b2 0b 7f
        E 0 92 27 7f
        E 16 82 27 00
        E 0 b2 0b 7f
        E 0 92 26 7f
        E 16 82 26 00
        E 16 b2 0b 7f
        E 0 92 25 7f
        E 16 82 25 00
        E 0 b2 0b 7f
        E 0 92 27 7f
        E 16 82 27 00
        E 0 b2 0b 7f
        E 0 92 26 7f
        E 16 82 26 00
        E 112 b2 0b 7f
        E 0 92 25 7f
        E 16 82 25 00
        E 0 b2 0b 7f
        E 0 92 27 7f
        E 16 82 27 00
        E 0 b2 0b 7f
        E 0 92 26 7f
        E 16 82 26 00
        E 112 b2 0b 7f
        E 0 92 25 7f
        E 16 82 25 00
        E 0 b2 0b 7f
        E 0 92 27 7f
        E 16 82 27 00
        E 0 b2 0b 7f
        E 0 92 26 7f
        E 16 82 26 00
        E 112 b2 0b 7f
        E 0 92 36 7f
        E 16 82 36 00
        E 0 b2 0b 7f
        E 0 92 21 7f
        E 16 82 21 00
        E 0 b2 0b 7f
        E 0 92 2c 7f
        E 16 82 2c 00
        E 0 b2 0b 7f
        E 0 92 2b 7f
        E 16 82 2b 00
        E 0 b2 0b 7f
        E 0 92 2a 7f
        E 16 82 2a 00
        E 0 b2 0b 7f
        E 0 92 29 7f
        E 16 82 29 00
        E 0 b2 0b 7f
        E 0 92 28 7f
        E 16 82 28 00
        E 0 b2 0b 7f
        E 0 92 27 7f
        E 16 82 27 00
        E 0 b2 0b 7f
        E 0 92 26 7f
        E 16 82 26 00
        E 16 b2 0b 7f
        E 0 92 25 7f
        E 16 82 25 00
        E 0 b2 0b 7f
        E 0 92 27 7f
        E 16 82 27 00
        E 0 b2 0b 7f
        E 0 92 26 7f
        E 16 82 26 00
        E 112 b2 0b 7f
        E 0 92 36 7f
        E 16 82 36 00
        E 0 b2 0b 7f
        E 0 92 31 7f
        E 16 82 31 00
        E 0 b2 0b 7f
        E 0 92 30 7f
        E 16 82 30 00
        E 0 b2 0b 7f
        E 0 92 2f 7f
        E 16 82 2f 00
        E 0 b2 0b 7f
        E 0 92 2e 7f
        E 16 82 2e 00
        E 0 b2 0b 7f
        E 0 92 21 7f
        E 16 82 21 00
        E 0 b2 0b 7f
        E 0 92 2c 7f
        E 16 82 2c 00
        E 0 b2 0b 7f
        E 0 92 2b 7f
        E 16 82 2b 00
        E 0 b2 0b 7f
        E 0 92 2a 7f
        E 16 82 2a 00
        E 16 b2 0b 7f
        E 0 92 45 7f
        E 16 82 45 00
        E 0 b2 0b 7f
        E 0 92 31 7f
        E 16 82 31 00
        E 0 b2 0b 7f
        E 0 92 30 7f
        E 16 82 30 00
        E 0 b2 0b 7f
        E 0 92 2f 7f
        E 16 82 2f 00
        E 0 b2 0b 7f
        E 0 92 2e 7f
        E 16 82 2e 00
        E 0 b2 0b 7f
        E 0 92 21 7f
        E 16 82 21 00
        E 0 b2 0b 7f
        E 0 92 2c 7f
        E 16 82 2c 00
        E 0 b2 0b 7f
        E 0 92 2b 7f
        E 16 82 2b 00
        E 0 b2 0b 7f
        E 0 92 2a 7f
        E 16 82 2a 00
        E 16 b2 0b 7f
        E 0 92 29 7f
        E 32 82 29 00
        E 0 b2 0b 7f
        E 0 92 28 7f
        E 16 82 28 00
        E 0 b2 0b 7f
        E 0 92 27 7f
        E 16 82 27 00
        E 0 b2 0b 7f
        E 0 92 26 7f
        E 16 82 26 00
        E 0 b2 0b 7f
        E 0 92 25 7f
        E 16 82 25 00
        E 0 b2 0b 7f
        E 0 92 24 7f
        E 16 82 24 00
        E 0 b2 0b 7f
        E 0 92 23 7f
        E 16 82 23 00
        E 0 b2 0b 7f
        E 0 92 22 7f
        E 16 82 22 00
        E 16 b2 0b 7f
        E 0 92 21 7f
        E 16 82 21 00
        E 0 b2 0b 7f
        E 0 92 25 7f
        E 16 82 25 00
        E 0 b2 0b 7f
        E 0 92 24 7f
        E 16 82 24 00
        E 0 b2 0b 7f
        E 0 92 23 7f
        E 16 82 23 00
        E 0 b2 0b 7f
        E 0 92 22 7f
        E 16 82 22 00
        E 0 b2 0b 7f
        E 0 92 1a 7f
        E 16 82 1a 00
        E 0 b2 0b 7f
        E 0 92 20 7f
        E 16 82 20 00
        E 0 b2 0b 7f
        E 0 92 1f 7f
        E 16 82 1f 00
        E 0 b2 0b 7f
        E 0 92 1e 7f
        E 16 82 1e 00
        E 16 b2 0b 7f
        E 0 92 39 7f
        E 16 82 39 00
        E 0 b2 0b 7f
        E 0 92 31 7f
        E 16 82 31 00
        E 0 b2 0b 7f
        E 0 92 30 7f
        E 16 82 30 00
        E 0 b2 0b 7f
        E 0 92 2f 7f
        E 16 82 2f 00
        E 16 b2 0b 7f
        E 0 92 2e 7f
        E 16 82 2e 00
        E 0 b2 0b 7f
        E 0 92 31 7f
        E 16 82 31 00
        E 0 b2 0b 7f
        E 0 92 30 7f
        E 16 82 30 00
        E 0 b2 0b 7f
        E 0 92 2f 7f
        E 16 82 2f 00
        E 96 b2 0b 7f
        E 0 92 2e 7f
        E 16 82 2e 00
        E 0 b2 0b 7f
        E 0 92 31 7f
        E 16 82 31 00
        E 0 b2 0b 7f
        E 0 92 30 7f
        E 16 82 30 00
        E 0 b2 0b 7f
        E 0 92 2f 7f
        E 16 82 2f 00
        E 16 b2 0b 7f
        E 0 92 21 7f
        E 16 82 21 00
        E 0 b2 0b 7f
        E 0 92 29 7f
        E 16 82 29 00
        E 0 b2 0b 7f
        E 0 92 28 7f
        E 16 82 28 00
        E 0 b2 0b 7f
        E 0 92 27 7f
        E 16 82 27 00
        E 16 b2 0b 7f
        E 0 92 26 7f
        E 16 82 26 00
        E 0 b2 0b 7f
        E 0 92 29 7f
        E 16 82 29 00
        E 0 b2 0b 7f
        E 0 92 28 7f
        E 16 82 28 00
        E 0 b2 0b 7f
        E 0 92 27 7f
        E 16 82 27 00
        E 16 b2 0b 7f
        E 0 92 26 7f
        E 16 82 26 00
        E 0 b2 0b 7f
        E 0 92 25 7f
        E 16 82 25 00
        E 0 b2 0b 7f
        E 0 92 24 7f
        E 16 82 24 00
        E 0 b2 0b 7f
        E 0 92 23 7f
        E 16 82 23 00
        E 0 b2 0b 7f
        E 0 92 22 7f
        E 16 82 22 00
        E 0 b2 0b 7f
        E 0 92 1a 7f
        E 16 82 1a 00
        E 0 b2 0b 7f
        E 0 92 20 7f
        E 16 82 20 00
        E 0 b2 0b 7f
        E 0 92 1f 7f
        E 16 82 1f 00
        E 0 b2 0b 7f
        E 0 92 1e 7f
        E 16 82 1e 00
        E 16 b2 0b 7f
        E 0 92 26 7f
        E 16 82 26 00
        E 0 b2 0b 7f
        E 0 92 27 7f
        E 16 82 27 00
        E 0 b2 0b 7f
        E 0 92 26 7f
        E 16 82 26 00
        E 112 b2 0b 7f
        E 0 92 25 7f
        E 16 82 25 00
        E 0 b2 0b 7f
        E 0 92 27 7f
        E 16 82 27 00
        E 0 b2 0b 7f
        E 0 92 26 7f
        E 16 82 26 00
        E 112 b2 0b 7f
        E 0 92 36 7f
        E 16 82 36 00
        E 0 b2 0b 7f
        E 0 92 21 7f
        E 16 82 21 00
        E 0 b2 0b 7f
        E 0 92 2c 7f
        E 16 82 2c 00
        E 0 b2 0b 7f
        E 0 92 2b 7f
        E 16 82 2b 00
        E 0 b2 0b 7f
        E 0 92 2a 7f
        E 16 82 2a 00
        E 0 b2 0b 7f
        E 0 92 29 7f
        E 16 82 29 00
        E 0 b2 0b 7f
        E 0 92 28 7f
        E 16 82 28 00
        E 0 b2 0b 7f
        E 0 92 27 7f
        E 16 82 27 00
        E 0 b2 0b 7f
        E 0 92 26 7f
        E 16 82 26 00
        E 16 b2 0b 7f
        E 0 92 25 7f
        E 16 82 25 00
        E 0 b2 0b 7f
        E 0 92 27 7f
        E 16 82 27 00
        E 0 b2 0b 7f
        E 0 92 26 7f
        E 16 82 26 00
        E 112 b2 0b 7f
        E 0 92 25 7f
        E 16 82 25 00
        E 0 b2 0b 7f
        E 0 92 27 7f
        E 16 82 27 00
        E 0 b2 0b 7f
        E 0 92 26 7f
        E 16 82 26 00
        E 112 b2 0b 7f
        E 0 92 25 7f
        E 16 82 25 00
        E 0 b2 0b 7f
        E 0 92 27 7f
        E 16 82 27 00
        E 0 b2 0b 7f
        E 0 92 26 7f
        E 16 82 26 00
        E 112 b2 0b 7f
        E 0 92 36 7f
        E 16 82 36 00
        E 0 b2 0b 7f
        E 0 92 21 7f
        E 16 82 21 00
        E 0 b2 0b 7f
        E 0 92 2c 7f
        E 16 82 2c 00
        E 0 b2 0b 7f
        E 0 92 2b 7f
        E 16 82 2b 00
        E 0 b2 0b 7f
        E 0 92 2a 7f
        E 16 82 2a 00
        E 0 b2 0b 7f
        E 0 92 29 7f
        E 16 82 29 00
        E 0 b2 0b 7f
        E 0 92 28 7f
        E 16 82 28 00
        E 0 b2 0b 7f
        E 0 92 27 7f
        E 16 82 27 00
        E 0 b2 0b 7f
        E 0 92 26 7f
        E 16 82 26 00
        E 16 b2 0b 7f
        E 0 92 25 7f
        E 16 82 25 00
        E 0 b2 0b 7f
        E 0 92 27 7f
        E 16 82 27 00
        E 0 b2 0b 7f
        E 0 92 26 7f
        E 16 82 26 00
        E 112 b2 0b 7f
        E 0 92 25 7f
        E 16 82 25 00
        E 0 b2 0b 7f
        E 0 92 27 7f
        E 16 82 27 00
        E 0 b2 0b 7f
        E 0 92 26 7f
        E 16 82 26 00
        E 112 b2 0b 7f
        E 0 92 25 7f
        E 16 82 25 00
        E 0 b2 0b 7f
        E 0 92 27 7f
        E 16 82 27 00
        E 0 b2 0b 7f
        E 0 92 26 7f
        E 16 82 26 00
        E 112 b2 0b 7f
        E 0 92 36 7f
        E 16 82 36 00
        E 0 b2 0b 7f
        E 0 92 21 7f
        E 16 82 21 00
        E 0 b2 0b 7f
        E 0 92 2c 7f
        E 16 82 2c 00
        E 0 b2 0b 7f
        E 0 92 2b 7f
        E 16 82 2b 00
        E 0 b2 0b 7f
        E 0 92 2a 7f
        E 16 82 2a 00
        E 0 b2 0b 7f
        E 0 92 29 7f
        E 16 82 29 00
        E 0 b2 0b 7f
        E 0 92 28 7f
        E 16 82 28 00
        E 0 b2 0b 7f
        E 0 92 27 7f
        E 16 82 27 00
        E 0 b2 0b 7f
        E 0 92 26 7f
        E 16 82 26 00
        E 16 b2 0b 7f
        E 0 92 25 7f
        E 16 82 25 00
        E 0 b2 0b 7f
        E 0 92 27 7f
        E 16 82 27 00
        E 0 b2 0b 7f
        E 0 92 26 7f
        E 16 82 26 00
        E 112 b2 0b 7f
        E 0 92 25 7f
        E 16 82 25 00
        E 0 b2 0b 7f
        E 0 92 27 7f
        E 16 82 27 00
        E 0 b2 0b 7f
        E 0 92 26 7f
        E 16 82 26 00
        E 112 b2 0b 7f
        E 0 92 25 7f
        E 16 82 25 00
        E 0 b2 0b 7f
        E 0 92 27 7f
        E 16 82 27 00
        E 0 b2 0b 7f
        E 0 92 26 7f
        E 16 82 26 00
        E 112 b2 0b 7f
        E 0 92 36 7f
        E 16 82 36 00
        E 0 b2 0b 7f
        E 0 92 21 7f
        E 16 82 21 00
        E 0 b2 0b 7f
        E 0 92 2c 7f
        E 16 82 2c 00
        E 0 b2 0b 7f
        E 0 92 2b 7f
        E 16 82 2b 00
        E 0 b2 0b 7f
        E 0 92 2a 7f
        E 16 82 2a 00
        E 0 b2 0b 7f
        E 0 92 29 7f
        E 16 82 29 00
        E 0 b2 0b 7f
        E 0 92 28 7f
        E 16 82 28 00
        E 0 b2 0b 7f
        E 0 92 27 7f
        E 16 82 27 00
        E 0 b2 0b 7f
        E 0 92 26 7f
        E 16 82 26 00
        E 16 b2 0b 7f
        E 0 92 25 7f
        E 16 82 25 00
        E 0 b2 0b 7f
        E 0 92 27 7f
        E 16 82 27 00
        E 0 b2 0b 7f
        E 0 92 26 7f
        E 16 82 26 00
        E 112 b2 0b 7f
        E 0 92 25 7f
        E 16 82 25 00
        E 0 b2 0b 7f
        E 0 92 27 7f
        E 16 82 27 00
        E 0 b2 0b 7f
        E 0 92 26 7f
        E 16 82 26 00
        E 112 b2 0b 7f
        E 0 92 25 7f
        E 16 82 25 00
        E 0 b2 0b 7f
        E 0 92 27 7f
        E 16 82 27 00
        E 0 b2 0b 7f
        E 0 92 26 7f
        E 16 82 26 00
        E 112 b2 0b 7f
        E 0 92 36 7f
        E 16 82 36 00
        E 0 b2 0b 7f
        E 0 92 21 7f
        E 16 82 21 00
        E 0 b2 0b 7f
        E 0 92 2c 7f
        E 16 82 2c 00
        E 0 b2 0b 7f
        E 0 92 2b 7f
        E 16 82 2b 00
        E 0 b2 0b 7f
        E 0 92 2a 7f
        E 16 82 2a 00
        E 0 b2 0b 7f
        E 0 92 29 7f
        E 16 82 29 00
        E 0 b2 0b 7f
        E 0 92 28 7f
        E 16 82 28 00
        E 0 b2 0b 7f
        E 0 92 27 7f
        E 16 82 27 00
        E 0 b2 0b 7f
        E 0 92 26 7f
        E 16 82 26 00
        E 16 b2 0b 7f
        E 0 92 25 7f
        E 16 82 25 00
        E 0 b2 0b 7f
        E 0 92 27 7f
        E 16 82 27 00
        E 0 b2 0b 7f
        E 0 92 26 7f
        E 16 82 26 00
        E 112 b2 0b 7f
        E 0 92 25 7f
        E 16 82 25 00
        E 0 b2 0b 7f
        E 0 92 27 7f
        E 16 82 27 00
        E 0 b2 0b 7f
        E 0 92 26 7f
        E 16 82 26 00
        E 112 b2 0b 7f
        E 0 92 25 7f
        E 16 82 25 00
        E 0 b2 0b 7f
        E 0 92 27 7f
        E 16 82 27 00
        E 0 b2 0b 7f
        E 0 92 26 7f
        E 16 82 26 00
        E 112 b2 0b 7f
        E 0 92 36 7f
        E 16 82 36 00
        E 0 b2 0b 7f
        E 0 92 21 7f
        E 16 82 21 00
        E 0 b2 0b 7f
        E 0 92 2c 7f
        E 16 82 2c 00
        E 0 b2 0b 7f
        E 0 92 2b 7f
        E 16 82 2b 00
        E 0 b2 0b 7f
        E 0 92 2a 7f
        E 16 82 2a 00
        E 0 b2 0b 7f
        E 0 92 29 7f
        E 16 82 29 00
        E 0 b2 0b 7f
        E 0 92 28 7f
        E 16 82 28 00
        E 0 b2 0b 7f
        E 0 92 27 7f
        E 16 82 27 00
        E 0 b2 0b 7f
        E 0 92 26 7f
        E 16 82 26 00
        E 16 b2 0b 7f
        E 0 92 25 7f
        E 16 82 25 00
        E 0 b2 0b 7f
        E 0 92 27 7f
        E 16 82 27 00
        E 0 b2 0b 7f
        E 0 92 26 7f
        E 16 82 26 00
        E 112 b2 0b 7f
        E 0 92 25 7f
        E 16 82 25 00
        E 0 b2 0b 7f
        E 0 92 27 7f
        E 16 82 27 00
        E 0 b2 0b 7f
        E 0 92 26 7f
        E 16 82 26 00
        E 112 b2 0b 7f
        E 0 92 36 7f
        E 16 82 36 00
        E 0 b2 0b 7f
        E 0 92 21 7f
        E 16 82 21 00
        E 0 b2 0b 7f
        E 0 92 2c 7f
        E 16 82 2c 00
        E 0 b2 0b 7f
        E 0 92 2b 7f
        E 16 82 2b 00
        E 0 b2 0b 7f
        E 0 92 2a 7f
        E 16 82 2a 00
        E 0 b2 0b 7f
        E 0 92 29 7f
        E 16 82 29 00
        E 0 b2 0b 7f
        E 0 92 28 7f
        E 16 82 28 00
        E 0 b2 0b 7f
        E 0 92 27 7f
        E 16 82 27 00
        E 0 b2 0b 7f
        E 0 92 26 7f
        E 16 82 26 00
        E 16 b2 0b 7f
        E 0 92 36 7f
        E 16 82 36 00
        E 0 b2 0b 7f
        E 0 92 21 7f
        E 16 82 21 00
        E 0 b2 0b 7f
        E 0 92 2c 7f
        E 16 82 2c 00
        E 0 b2 0b 7f
        E 0 92 2b 7f
        E 16 82 2b 00
        E 0 b2 0b 7f
        E 0 92 2a 7f
        E 16 82 2a 00
        E 0 b2 0b 7f
        E 0 92 29 7f
        E 16 82 29 00
        E 0 b2 0b 7f
        E 0 92 28 7f
        E 16 82 28 00
        E 0 b2 0b 7f
        E 0 92 27 7f
        E 16 82 27 00
        E 0 b2 0b 7f
        E 0 92 26 7f
        E 16 82 26 00
        E 16 b2 0b 7f
        E 0 92 36 7f
        E 16 82 36 00
        E 0 b2 0b 7f
        E 0 92 21 7f
        E 16 82 21 00
        E 0 b2 0b 7f
        E 0 92 2c 7f
        E 16 82 2c 00
        E 0 b2 0b 7f
        E 0 92 2b 7f
        E 16 82 2b 00
        E 0 b2 0b 7f
        E 0 92 2a 7f
        E 16 82 2a 00
        E 0 b2 0b 7f
        E 0 92 29 7f
        E 16 82 29 00
        E 0 b2 0b 7f
        E 0 92 28 7f
        E 16 82 28 00
        E 0 b2 0b 7f
        E 0 92 27 7f
        E 16 82 27 00
        E 0 b2 0b 7f
        E 0 92 26 7f
        E 16 82 26 00
        E 16 b2 0b 7f
        E 0 92 36 7f
        E 16 82 36 00
        E 0 b2 0b 7f
        E 0 92 21 7f
        E 16 82 21 00
        E 0 b2 0b 7f
        E 0 92 2c 7f
        E 16 82 2c 00
        E 0 b2 0b 7f
        E 0 92 2b 7f
        E 16 82 2b 00
        E 0 b2 0b 7f
        E 0 92 2a 7f
        E 16 82 2a 00
        E 0 b2 0b 7f
        E 0 92 29 7f
        E 16 82 29 00
        E 0 b2 0b 7f
        E 0 92 28 7f
        E 16 82 28 00
        E 0 b2 0b 7f
        E 0 92 27 7f
        E 16 82 27 00
        E 0 b2 0b 7f
        E 0 92 26 7f
        E 16 82 26 00
        E 176 b2 0b 7f
        E 0 92 36 7f
        E 16 82 36 00
        E 0 b2 0b 7f
        E 0 92 2d 7f
        E 48 82 2d 00
        E 256 b2 0b 7f
        E 0 92 21 7f
        E 16 82 21 00
        E 0 b2 0b 7f
        E 0 92 27 7f
        E 16 82 27 00
        E 0 b2 0b 7f
        E 0 92 26 7f
        E 16 82 26 00
        E 592 b2 0b 7f
        E 0 92 25 7f
        E 16 82 25 00
        E 0 b2 0b 7f
        E 0 92 27 7f
        E 16 82 27 00
        E 0 b2 0b 7f
        E 0 92 26 7f
        E 16 82 26 00
        E 592 b2 0b 7f
        E 0 92 25 7f
        E 16 82 25 00
        E 0 b2 0b 7f
        E 0 92 27 7f
        E 16 82 27 00
        E 0 b2 0b 7f
        E 0 92 26 7f
        E 16 82 26 00
        E 432 b2 0b 7f
        E 0 92 25 7f
        E 16 82 25 00
        E 0 b2 0b 7f
        E 0 92 27 7f
        E 16 82 27 00
        E 0 b2 0b 7f
        E 0 92 26 7f
        E 16 82 26 00
        E 272 b2 0b 7f
        E 0 92 36 7f
        E 48 82 36 00
        E 112 b2 0b 7f
        E 0 92 21 7f
        E 16 82 21 00
        E 0 b2 0b 7f
        E 0 92 27 7f
        E 16 82 27 00
        E 0 b2 0b 7f
        E 0 92 26 7f
        E 16 82 26 00
        E 272 b2 0b 7f
        E 0 92 25 7f
        E 16 82 25 00
        E 0 b2 0b 7f
        E 0 92 27 7f
        E 16 82 27 00
        E 0 b2 0b 7f
        E 0 92 26 7f
        E 16 82 26 00
        E 592 b2 0b 7f
        E 0 92 25 7f
        E 16 82 25 00
        E 0 b2 0b 7f
        E 0 92 27 7f
        E 16 82 27 00
        E 0 b2 0b 7f
        E 0 92 26 7f
        E 16 82 26 00
        E 592 b2 0b 7f
        E 0 92 25 7f
        E 16 82 25 00
        E 0 b2 0b 7f
        E 0 92 27 7f
        E 16 82 27 00
        E 0 b2 0b 7f
        E 0 92 26 7f
        E 16 82 26 00
        E 432 b2 0b 7f
        E 0 92 25 7f
        E 16 82 25 00
        E 0 b2 0b 7f
        E 0 92 27 7f
        E 16 82 27 00
        E 0 b2 0b 7f
        E 0 92 26 7f
        E 16 82 26 00
        E 272 b2 0b 7f
        E 0 92 36 7f
        E 48 82 36 00
        E 112 b2 0b 7f
        E 0 92 21 7f
        E 16 82 21 00
        E 0 b2 0b 7f
        E 0 92 27 7f
        E 16 82 27 00
        E 0 b2 0b 7f
        E 0 92 26 7f
        E 16 82 26 00
        E 272 b2 0b 7f
        E 0 92 25 7f
        E 16 82 25 00
        E 0 b2 0b 7f
        E 0 92 27 7f
        E 16 82 27 00
        E 0 b2 0b 7f
        E 0 92 26 7f
        E 16 82 26 00
        E 592 b2 0b 7f
        E 0 92 25 7f
        E 16 82 25 00
        E 0 b2 0b 7f
        E 0 92 27 7f
        E 16 82 27 00
        E 0 b2 0b 7f
        E 0 92 26 7f
        E 16 82 26 00
        E 592 b2 0b 7f
        E 0 92 25 7f
        E 16 82 25 00
        E 0 b2 0b 7f
        E 0 92 27 7f
        E 16 82 27 00
        E 0 b2 0b 7f
        E 0 92 26 7f
        E 16 82 26 00
        E 432 b2 0b 7f
        E 0 92 25 7f
        E 16 82 25 00
        E 0 b2 0b 7f
        E 0 92 27 7f
        E 16 82 27 00
        E 0 b2 0b 7f
        E 0 92 26 7f
        E 16 82 26 00
        E 272 b2 0b 7f
        E 0 92 36 7f
        E 48 82 36 00
        E 112 b2 0b 7f
        E 0 92 21 7f
        E 16 82 21 00
        E 0 b2 0b 7f
        E 0 92 27 7f
        E 16 82 27 00
        E 0 b2 0b 7f
        E 0 92 26 7f
        E 16 82 26 00
        E 272 b2 0b 7f
        E 0 92 25 7f
        E 16 82 25 00
        E 0 b2 0b 7f
        E 0 92 27 7f
        E 16 82 27 00
        E 0 b2 0b 7f
        E 0 92 26 7f
        E 16 82 26 00
        E 592 b2 0b 7f
        E 0 92 25 7f
        E 16 82 25 00
        E 0 b2 0b 7f
        E 0 92 27 7f
        E 16 82 27 00
        E 0 b2 0b 7f
        E 0 92 26 7f
        E 16 82 26 00
        E 592 b2 0b 7f
        E 0 92 25 7f
        E 16 82 25 00
        E 0 b2 0b 7f
        E 0 92 27 7f
        E 16 82 27 00
        E 0 b2 0b 7f
        E 0 92 26 7f
        E 16 82 26 00
        E 432 b2 0b 7f
        E 0 92 25 7f
        E 16 82 25 00
        E 0 b2 0b 7f
        E 0 92 27 7f
        E 16 82 27 00
        E 0 b2 0b 7f
        E 0 92 26 7f
        E 16 82 26 00
        E 272 b2 0b 7f
        E 0 92 36 7f
        E 16 82 36 00
        E 0 b2 0b 7f
        E 0 92 21 7f
        E 16 82 21 00
        E 0 b2 0b 7f
        E 0 92 2c 7f
        E 16 82 2c 00
        E 0 b2 0b 7f
        E 0 92 2b 7f
        E 16 82 2b 00
        E 0 b2 0b 7f
        E 0 92 2a 7f
        E 16 82 2a 00
        E 0 b2 0b 7f
        E 0 92 29 7f
        E 16 82 29 00
        E 0 b2 0b 7f
        E 0 92 28 7f
        E 16 82 28 00
        E 0 b2 0b 7f
        E 0 92 27 7f
        E 16 82 27 00
        E 0 b2 0b 7f
        E 0 92 26 7f
        E 16 82 26 00
        E 16 b2 0b 7f
        E 0 92 36 7f
        E 16 82 36 00
        E 0 b2 0b 7f
        E 0 92 21 7f
        E 16 82 21 00
        E 0 b2 0b 7f
        E 0 92 2c 7f
        E 16 82 2c 00
        E 0 b2 0b 7f
        E 0 92 2b 7f
        E 16 82 2b 00
        E 0 b2 0b 7f
        E 0 92 2a 7f
        E 16 82 2a 00
        E 0 b2 0b 7f
        E 0 92 29 7f
        E 16 82 29 00
        E 0 b2 0b 7f
        E 0 92 28 7f
        E 16 82 28 00
        E 0 b2 0b 7f
        E 0 92 27 7f
        E 16 82 27 00
        E 0 b2 0b 7f
        E 0 92 26 7f
        E 16 82 26 00
        E 16 b2 0b 7f
        E 0 92 36 7f
        E 16 82 36 00
        E 0 b2 0b 7f
        E 0 92 21 7f
        E 16 82 21 00
        E 0 b2 0b 7f
        E 0 92 2c 7f
        E 16 82 2c 00
        E 0 b2 0b 7f
        E 0 92 2b 7f
        E 16 82 2b 00
        E 0 b2 0b 7f
        E 0 92 2a 7f
        E 16 82 2a 00
        E 0 b2 0b 7f
        E 0 92 29 7f
        E 16 82 29 00
        E 0 b2 0b 7f
        E 0 92 28 7f
        E 16 82 28 00
        E 0 b2 0b 7f
        E 0 92 27 7f
        E 16 82 27 00
        E 0 b2 0b 7f
        E 0 92 26 7f
        E 16 82 26 00
        E 16 b2 0b 7f
        E 0 92 25 7f
        E 16 82 25 00
        E 0 b2 0b 7f
        E 0 92 27 7f
        E 16 82 27 00
        E 0 b2 0b 7f
        E 0 92 26 7f
        E 16 82 26 00
        E 112 b2 0b 7f
        E 0 92 25 7f
        E 16 82 25 00
        E 0 b2 0b 7f
        E 0 92 27 7f
        E 16 82 27 00
        E 0 b2 0b 7f
        E 0 92 26 7f
        E 16 82 26 00
        E 112 b2 0b 7f
        E 0 92 36 7f
        E 16 82 36 00
        E 0 b2 0b 7f
        E 0 92 21 7f
        E 16 82 21 00
        E 0 b2 0b 7f
        E 0 92 2c 7f
        E 16 82 2c 00
        E 0 b2 0b 7f
        E 0 92 2b 7f
        E 16 82 2b 00
        E 0 b2 0b 7f
        E 0 92 2a 7f
        E 16 82 2a 00
        E 0 b2 0b 7f
        E 0 92 29 7f
        E 16 82 29 00
        E 0 b2 0b 7f
        E 0 92 28 7f
        E 16 82 28 00
        E 0 b2 0b 7f
        E 0 92 27 7f
        E 16 82 27 00
        E 0 b2 0b 7f
        E 0 92 26 7f
        E 16 82 26 00
        E 16 b2 0b 7f
        E 0 92 25 7f
        E 16 82 25 00
        E 0 b2 0b 7f
        E 0 92 27 7f
        E 16 82 27 00
        E 0 b2 0b 7f
        E 0 92 26 7f
        E 16 82 26 00
        E 112 b2 0b 7f
        E 0 92 25 7f
        E 16 82 25 00
        E 0 b2 0b 7f
        E 0 92 27 7f
        E 16 82 27 00
        E 0 b2 0b 7f
        E 0 92 26 7f
        E 16 82 26 00
        E 112 b2 0b 7f
        E 0 92 25 7f
        E 16 82 25 00
        E 0 b2 0b 7f
        E 0 92 27 7f
        E 16 82 27 00
        E 0 b2 0b 7f
        E 0 92 26 7f
        E 16 82 26 00
        E 112 b2 0b 7f
        E 0 92 36 7f
        E 16 82 36 00
        E 0 b2 0b 7f
        E 0 92 21 7f
        E 16 82 21 00
        E 0 b2 0b 7f
        E 0 92 2c 7f
        E 16 82 2c 00
        E 0 b2 0b 7f
        E 0 92 2b 7f
        E 16 82 2b 00
        E 0 b2 0b 7f
        E 0 92 2a 7f
        E 16 82 2a 00
        E 0 b2 0b 7f
        E 0 92 29 7f
        E 16 82 29 00
        E 0 b2 0b 7f
        E 0 92 28 7f
        E 16 82 28 00
        E 0 b2 0b 7f
        E 0 92 27 7f
        E 16 82 27 00
        E 0 b2 0b 7f
        E 0 92 26 7f
        E 16 82 26 00
        E 16 b2 0b 7f
        E 0 92 25 7f
        E 16 82 25 00
        E 0 b2 0b 7f
        E 0 92 27 7f
        E 16 82 27 00
        E 0 b2 0b 7f
        E 0 92 26 7f
        E 16 82 26 00
        E 112 b2 0b 7f
        E 0 92 25 7f
        E 16 82 25 00
        E 0 b2 0b 7f
        E 0 92 27 7f
        E 16 82 27 00
        E 0 b2 0b 7f
        E 0 92 26 7f
        E 16 82 26 00
        E 112 b2 0b 7f
        E 0 92 25 7f
        E 16 82 25 00
        E 0 b2 0b 7f
        E 0 92 27 7f
        E 16 82 27 00
        E 0 b2 0b 7f
        E 0 92 26 7f
        E 16 82 26 00
        E 112 b2 0b 7f
        E 0 92 36 7f
        E 16 82 36 00
        E 0 b2 0b 7f
        E 0 92 21 7f
        E 16 82 21 00
        E 0 b2 0b 7f
        E 0 92 2c 7f
        E 16 82 2c 00
        E 0 b2 0b 7f
        E 0 92 2b 7f
        E 16 82 2b 00
        E 0 b2 0b 7f
        E 0 92 2a 7f
        E 16 82 2a 00
        E 0 b2 0b 7f
        E 0 92 29 7f
        E 16 82 29 00
        E 0 b2 0b 7f
        E 0 92 28 7f
        E 16 82 28 00
        E 0 b2 0b 7f
        E 0 92 27 7f
        E 16 82 27 00
        E 0 b2 0b 7f
        E 0 92 26 7f
        E 16 82 26 00
        E 16 b2 0b 7f
        E 0 92 25 7f
        E 16 82 25 00
        E 0 b2 0b 7f
        E 0 92 27 7f
        E 16 82 27 00
        E 0 b2 0b 7f
        E 0 92 26 7f
        E 16 82 26 00
        E 112 b2 0b 7f
        E 0 92 25 7f
        E 16 82 25 00
        E 0 b2 0b 7f
        E 0 92 27 7f
        E 16 82 27 00
        E 0 b2 0b 7f
        E 0 92 26 7f
        E 16 82 26 00
        E 112 b2 0b 7f
        E 0 92 25 7f
        E 16 82 25 00
        E 0 b2 0b 7f
        E 0 92 27 7f
        E 16 82 27 00
        E 0 b2 0b 7f
        E 0 92 26 7f
        E 16 82 26 00
        E 112 b2 0b 7f
        E 0 92 36 7f
        E 16 82 36 00
        E 0 b2 0b 7f
        E 0 92 21 7f
        E 16 82 21 00
        E 0 b2 0b 7f
        E 0 92 2c 7f
        E 16 82 2c 00
        E 0 b2 0b 7f
        E 0 92 2b 7f
        E 16 82 2b 00
        E 0 b2 0b 7f
        E 0 92 2a 7f
        E 16 82 2a 00
        E 0 b2 0b 7f
        E 0 92 29 7f
        E 16 82 29 00
        E 0 b2 0b 7f
        E 0 92 28 7f
        E 16 82 28 00
        E 0 b2 0b 7f
        E 0 92 27 7f
        E 16 82 27 00
        E 0 b2 0b 7f
        E 0 92 26 7f
        E 16 82 26 00
        E 16 b2 0b 7f
        E 0 92 25 7f
        E 16 82 25 00
        E 0 b2 0b 7f
        E 0 92 27 7f
        E 16 82 27 00
        E 0 b2 0b 7f
        E 0 92 26 7f
        E 16 82 26 00
        E 112 b2 0b 7f
        E 0 92 25 7f
        E 16 82 25 00
        E 0 b2 0b 7f
        E 0 92 27 7f
        E 16 82 27 00
        E 0 b2 0b 7f
        E 0 92 26 7f
        E 16 82 26 00
        E 112 b2 0b 7f
        E 0 92 25 7f
        E 16 82 25 00
        E 0 b2 0b 7f
        E 0 92 27 7f
        E 16 82 27 00
        E 0 b2 0b 7f
        E 0 92 26 7f
        E 16 82 26 00
        E 112 b2 0b 7f
        E 0 92 36 7f
        E 16 82 36 00
        E 0 b2 0b 7f
        E 0 92 21 7f
        E 16 82 21 00
        E 0 b2 0b 7f
        E 0 92 2c 7f
        E 16 82 2c 00
        E 0 b2 0b 7f
        E 0 92 2b 7f
        E 16 82 2b 00
        E 0 b2 0b 7f
        E 0 92 2a 7f
        E 16 82 2a 00
        E 0 b2 0b 7f
        E 0 92 29 7f
        E 16 82 29 00
        E 0 b2 0b 7f
        E 0 92 28 7f
        E 16 82 28 00
        E 0 b2 0b 7f
        E 0 92 27 7f
        E 16 82 27 00
        E 0 b2 0b 7f
        E 0 92 26 7f
        E 16 82 26 00
        E 16 b2 0b 7f
        E 0 92 25 7f
        E 16 82 25 00
        E 0 b2 0b 7f
        E 0 92 27 7f
        E 16 82 27 00
        E 0 b2 0b 7f
        E 0 92 26 7f
        E 16 82 26 00
        E 112 b2 0b 7f
        E 0 92 25 7f
        E 16 82 25 00
        E 0 b2 0b 7f
        E 0 92 27 7f
        E 16 82 27 00
        E 0 b2 0b 7f
        E 0 92 26 7f
        E 16 82 26 00
        E 112 b2 0b 7f
        E 0 92 25 7f
        E 16 82 25 00
        E 0 b2 0b 7f
        E 0 92 27 7f
        E 16 82 27 00
        E 0 b2 0b 7f
        E 0 92 26 7f
        E 16 82 26 00
        E 112 b2 0b 7f
        E 0 92 36 7f
        E 16 82 36 00
        E 0 b2 0b 7f
        E 0 92 21 7f
        E 16 82 21 00
        E 0 b2 0b 7f
        E 0 92 2c 7f
        E 16 82 2c 00
        E 0 b2 0b 7f
        E 0 92 2b 7f
        E 16 82 2b 00
        E 0 b2 0b 7f
        E 0 92 2a 7f
        E 16 82 2a 00
        E 0 b2 0b 7f
        E 0 92 29 7f
        E 16 82 29 00
        E 0 b2 0b 7f
        E 0 92 28 7f
        E 16 82 28 00
        E 0 b2 0b 7f
        E 0 92 27 7f
        E 16 82 27 00
        E 0 b2 0b 7f
        E 0 92 26 7f
        E 16 82 26 00
        E 16 b2 0b 7f
        E 0 92 25 7f
        E 16 82 25 00
        E 0 b2 0b 7f
        E 0 92 27 7f
        E 16 82 27 00
        E 0 b2 0b 7f
        E 0 92 26 7f
        E 16 82 26 00
        E 112 b2 0b 7f
        E 0 92 36 7f
        E 16 82 36 00
        E 0 b2 0b 7f
        E 0 92 31 7f
        E 16 82 31 00
        E 0 b2 0b 7f
        E 0 92 30 7f
        E 16 82 30 00
        E 0 b2 0b 7f
        E 0 92 2f 7f
        E 16 82 2f 00
        E 0 b2 0b 7f
        E 0 92 2e 7f
        E 16 82 2e 00
        E 0 b2 0b 7f
        E 0 92 21 7f
        E 16 82 21 00
        E 0 b2 0b 7f
        E 0 92 2c 7f
        E 16 82 2c 00
        E 0 b2 0b 7f
        E 0 92 2b 7f
        E 16 82 2b 00
        E 0 b2 0b 7f
        E 0 92 2a 7f
        E 16 82 2a 00
        E 16 b2 0b 7f
        E 0 92 45 7f
        E 16 82 45 00
        E 0 b2 0b 7f
        E 0 92 31 7f
        E 16 82 31 00
        E 0 b2 0b 7f
        E 0 92 30 7f
        E 16 82 30 00
        E 0 b2 0b 7f
        E 0 92 2f 7f
        E 16 82 2f 00
        E 0 b2 0b 7f
        E 0 92 2e 7f
        E 16 82 2e 00
        E 0 b2 0b 7f
        E 0 92 21 7f
        E 16 82 21 00
        E 0 b2 0b 7f
        E 0 92 2c 7f
        E 16 82 2c 00
        E 0 b2 0b 7f
        E 0 92 2b 7f
        E 16 82 2b 00
        E 0 b2 0b 7f
        E 0 92 2a 7f
        E 16 82 2a 00
        E 16 b2 0b 7f
        E 0 92 29 7f
        E 32 82 29 00
        E 0 b2 0b 7f
        E 0 92 28 7f
        E 16 82 28 00
        E 0 b2 0b 7f
        E 0 92 27 7f
        E 16 82 27 00
        E 0 b2 0b 7f
        E 0 92 26 7f
        E 16 82 26 00
        E 0 b2 0b 7f
        E 0 92 25 7f
        E 16 82 25 00
        E 0 b2 0b 7f
        E 0 92 24 7f
        E 16 82 24 00
        E 0 b2 0b 7f
        E 0 92 23 7f
        E 16 82 23 00
        E 0 b2 0b 7f
        E 0 92 22 7f
        E 16 82 22 00
        E 16 b2 0b 7f
        E 0 92 21 7f
        E 16 82 21 00
        E 0 b2 0b 7f
        E 0 92 25 7f
        E 16 82 25 00
        E 0 b2 0b 7f
        E 0 92 24 7f
        E 16 82 24 00
        E 0 b2 0b 7f
        E 0 92 23 7f
        E 16 82 23 00
        E 0 b2 0b 7f
        E 0 92 22 7f
        E 16 82 22 00
        E 0 b2 0b 7f
        E 0 92 1a 7f
        E 16 82 1a 00
        E 0 b2 0b 7f
        E 0 92 20 7f
        E 16 82 20 00
        E 0 b2 0b 7f
        E 0 92 1f 7f
        E 16 82 1f 00
        E 0 b2 0b 7f
        E 0 92 1e 7f
        E 16 82 1e 00
        E 16 b2 0b 7f
        E 0 92 39 7f
        E 16 82 39 00
        E 0 b2 0b 7f
        E 0 92 31 7f
        E 16 82 31 00
        E 0 b2 0b 7f
        E 0 92 30 7f
        E 16 82 30 00
        E 0 b2 0b 7f
        E 0 92 2f 7f
        E 16 82 2f 00
        E 16 b2 0b 7f
        E 0 92 2e 7f
        E 16 82 2e 00
        E 0 b2 0b 7f
        E 0 92 31 7f
        E 16 82 31 00
        E 0 b2 0b 7f
        E 0 92 30 7f
        E 16 82 30 00
        E 0 b2 0b 7f
        E 0 92 2f 7f
        E 16 82 2f 00
        E 96 b2 0b 7f
        E 0 92 2e 7f
        E 16 82 2e 00
        E 0 b2 0b 7f
        E 0 92 31 7f
        E 16 82 31 00
        E 0 b2 0b 7f
        E 0 92 30 7f
        E 16 82 30 00
        E 0 b2 0b 7f
        E 0 92 2f 7f
        E 16 82 2f 00
        E 16 b2 0b 7f
        E 0 92 21 7f
        E 16 82 21 00
        E 0 b2 0b 7f
        E 0 92 29 7f
        E 16 82 29 00
        E 0 b2 0b 7f
        E 0 92 28 7f
        E 16 82 28 00
        E 0 b2 0b 7f
        E 0 92 27 7f
        E 16 82 27 00
        E 16 b2 0b 7f
        E 0 92 26 7f
        E 16 82 26 00
        E 0 b2 0b 7f
        E 0 92 29 7f
        E 16 82 29 00
        E 0 b2 0b 7f
        E 0 92 28 7f
        E 16 82 28 00
        E 0 b2 0b 7f
        E 0 92 27 7f
        E 16 82 27 00
        E 16 b2 0b 7f
        E 0 92 26 7f
        E 16 82 26 00
        E 0 b2 0b 7f
        E 0 92 25 7f
        E 16 82 25 00
        E 0 b2 0b 7f
        E 0 92 24 7f
        E 16 82 24 00
        E 0 b2 0b 7f
        E 0 92 23 7f
        E 16 82 23 00
        E 0 b2 0b 7f
        E 0 92 22 7f
        E 16 82 22 00
        E 0 b2 0b 7f
        E 0 92 1a 7f
        E 16 82 1a 00
        E 0 b2 0b 7f
        E 0 92 20 7f
        E 16 82 20 00
        E 0 b2 0b 7f
        E 0 92 1f 7f
        E 16 82 1f 00
        E 0 b2 0b 7f
        E 0 92 1e 7f
        E 16 82 1e 00
        E 16 b2 0b 7f
        E 0 92 26 7f
        E 16 82 26 00
        E 0 b2 0b 7f
        E 0 92 27 7f
        E 16 82 27 00
        E 0 b2 0b 7f
        E 0 92 26 7f
        E 16 82 26 00
        E 112 b2 0b 7f
        E 0 92 25 7f
        E 16 82 25 00
        E 0 b2 0b 7f
        E 0 92 27 7f
        E 16 82 27 00
        E 0 b2 0b 7f
        E 0 92 26 7f
        E 16 82 26 00
        E 112 b2 0b 7f
        E 0 92 36 7f
        E 16 82 36 00
        E 0 b2 0b 7f
        E 0 92 21 7f
        E 16 82 21 00
        E 0 b2 0b 7f
        E 0 92 2c 7f
        E 16 82 2c 00
        E 0 b2 0b 7f
        E 0 92 2b 7f
        E 16 82 2b 00
        E 0 b2 0b 7f
        E 0 92 2a 7f
        E 16 82 2a 00
        E 0 b2 0b 7f
        E 0 92 29 7f
        E 16 82 29 00
        E 0 b2 0b 7f
        E 0 92 28 7f
        E 16 82 28 00
        E 0 b2 0b 7f
        E 0 92 27 7f
        E 16 82 27 00
        E 0 b2 0b 7f
        E 0 92 26 7f
        E 16 82 26 00
        E 16 b2 0b 7f
        E 0 92 25 7f
        E 16 82 25 00
        E 0 b2 0b 7f
        E 0 92 27 7f
        E 16 82 27 00
        E 0 b2 0b 7f
        E 0 92 26 7f
        E 16 82 26 00
        E 112 b2 0b 7f
        E 0 92 25 7f
        E 16 82 25 00
        E 0 b2 0b 7f
        E 0 92 27 7f
        E 16 82 27 00
        E 0 b2 0b 7f
        E 0 92 26 7f
        E 16 82 26 00
        E 112 b2 0b 7f
        E 0 92 25 7f
        E 16 82 25 00
        E 0 b2 0b 7f
        E 0 92 27 7f
        E 16 82 27 00
        E 0 b2 0b 7f
        E 0 92 26 7f
        E 16 82 26 00
        E 112 b2 0b 7f
        E 0 92 36 7f
        E 16 82 36 00
        E 0 b2 0b 7f
        E 0 92 21 7f
        E 16 82 21 00
        E 0 b2 0b 7f
        E 0 92 2c 7f
        E 16 82 2c 00
        E 0 b2 0b 7f
        E 0 92 2b 7f
        E 16 82 2b 00
        E 0 b2 0b 7f
        E 0 92 2a 7f
        E 16 82 2a 00
        E 0 b2 0b 7f
        E 0 92 29 7f
        E 16 82 29 00
        E 0 b2 0b 7f
        E 0 92 28 7f
        E 16 82 28 00
        E 0 b2 0b 7f
        E 0 92 27 7f
        E 16 82 27 00
        E 0 b2 0b 7f
        E 0 92 26 7f
        E 16 82 26 00
        E 16 b2 0b 7f
        E 0 92 25 7f
        E 16 82 25 00
        E 0 b2 0b 7f
        E 0 92 27 7f
        E 16 82 27 00
        E 0 b2 0b 7f
        E 0 92 26 7f
        E 16 82 26 00
        E 112 b2 0b 7f
        E 0 92 25 7f
        E 16 82 25 00
        E 0 b2 0b 7f
        E 0 92 27 7f
        E 16 82 27 00
        E 0 b2 0b 7f
        E 0 92 26 7f
        E 16 82 26 00
        E 112 b2 0b 7f
        E 0 92 25 7f
        E 16 82 25 00
        E 0 b2 0b 7f
        E 0 92 27 7f
        E 16 82 27 00
        E 0 b2 0b 7f
        E 0 92 26 7f
        E 16 82 26 00
        E 112 b2 0b 7f
        E 0 92 36 7f
        E 16 82 36 00
        E 0 b2 0b 7f
        E 0 92 21 7f
        E 16 82 21 00
        E 0 b2 0b 7f
        E 0 92 2c 7f
        E 16 82 2c 00
        E 0 b2 0b 7f
        E 0 92 2b 7f
        E 16 82 2b 00
        E 0 b2 0b 7f
        E 0 92 2a 7f
        E 16 82 2a 00
        E 0 b2 0b 7f
        E 0 92 29 7f
        E 16 82 29 00
        E 0 b2 0b 7f
        E 0 92 28 7f
        E 16 82 28 00
        E 0 b2 0b 7f
        E 0 92 27 7f
        E 16 82 27 00
        E 0 b2 0b 7f
        E 0 92 26 7f
        E 16 82 26 00
        E 16 b2 0b 7f
        E 0 92 25 7f
        E 16 82 25 00
        E 0 b2 0b 7f
        E 0 92 27 7f
        E 16 82 27 00
        E 0 b2 0b 7f
        E 0 92 26 7f
        E 16 82 26 00
        E 112 b2 0b 7f
        E 0 92 25 7f
        E 16 82 25 00
        E 0 b2 0b 7f
        E 0 92 27 7f
        E 16 82 27 00
        E 0 b2 0b 7f
        E 0 92 26 7f
        E 16 82 26 00
        E 112 b2 0b 7f
        E 0 92 25 7f
        E 16 82 25 00
        E 0 b2 0b 7f
        E 0 92 27 7f
        E 16 82 27 00
        E 0 b2 0b 7f
        E 0 92 26 7f
        E 16 82 26 00
        E 112 b2 0b 7f
        E 0 92 36 7f
        E 16 82 36 00
        E 0 b2 0b 7f
        E 0 92 21 7f
        E 16 82 21 00
        E 0 b2 0b 7f
        E 0 92 2c 7f
        E 16 82 2c 00
        E 0 b2 0b 7f
        E 0 92 2b 7f
        E 16 82 2b 00
        E 0 b2 0b 7f
        E 0 92 2a 7f
        E 16 82 2a 00
        E 0 b2 0b 7f
        E 0 92 29 7f
        E 16 82 29 00
        E 0 b2 0b 7f
        E 0 92 28 7f
        E 16 82 28 00
        E 0 b2 0b 7f
        E 0 92 27 7f
        E 16 82 27 00
        E 0 b2 0b 7f
        E 0 92 26 7f
        E 16 82 26 00
        E 16 b2 0b 7f
        E 0 92 25 7f
        E 16 82 25 00
        E 0 b2 0b 7f
        E 0 92 27 7f
        E 16 82 27 00
        E 0 b2 0b 7f
        E 0 92 26 7f
        E 16 82 26 00
        E 112 b2 0b 7f
        E 0 92 25 7f
        E 16 82 25 00
        E 0 b2 0b 7f
        E 0 92 27 7f
        E 16 82 27 00
        E 0 b2 0b 7f
        E 0 92 26 7f
        E 16 82 26 00
        E 112 b2 0b 7f
        E 0 92 25 7f
        E 16 82 25 00
        E 0 b2 0b 7f
        E 0 92 27 7f
        E 16 82 27 00
        E 0 b2 0b 7f
        E 0 92 26 7f
        E 16 82 26 00
        E 112 b2 0b 7f
        E 0 92 36 7f
        E 16 82 36 00
        E 0 b2 0b 7f
        E 0 92 21 7f
        E 16 82 21 00
        E 0 b2 0b 7f
        E 0 92 2c 7f
        E 16 82 2c 00
        E 0 b2 0b 7f
        E 0 92 2b 7f
        E 16 82 2b 00
        E 0 b2 0b 7f
        E 0 92 2a 7f
        E 16 82 2a 00
        E 0 b2 0b 7f
        E 0 92 29 7f
        E 16 82 29 00
        E 0 b2 0b 7f
        E 0 92 28 7f
        E 16 82 28 00
        E 0 b2 0b 7f
        E 0 92 27 7f
        E 16 82 27 00
        E 0 b2 0b 7f
        E 0 92 26 7f
        E 16 82 26 00
        E 16 b2 0b 7f
        E 0 92 25 7f
        E 16 82 25 00
        E 0 b2 0b 7f
        E 0 92 27 7f
        E 16 82 27 00
        E 0 b2 0b 7f
        E 0 92 26 7f
        E 16 82 26 00
        E 112 b2 0b 7f
        E 0 92 25 7f
        E 16 82 25 00
        E 0 b2 0b 7f
        E 0 92 27 7f
        E 16 82 27 00
        E 0 b2 0b 7f
        E 0 92 26 7f
        E 16 82 26 00
        E 112 b2 0b 7f
        E 0 92 25 7f
        E 16 82 25 00
        E 0 b2 0b 7f
        E 0 92 27 7f
        E 16 82 27 00
        E 0 b2 0b 7f
        E 0 92 26 7f
        E 16 82 26 00
        E 112 b2 0b 7f
        E 0 92 36 7f
        E 16 82 36 00
        E 0 b2 0b 7f
        E 0 92 21 7f
        E 16 82 21 00
        E 0 b2 0b 7f
        E 0 92 2c 7f
        E 16 82 2c 00
        E 0 b2 0b 7f
        E 0 92 2b 7f
        E 16 82 2b 00
        E 0 b2 0b 7f
        E 0 92 2a 7f
        E 16 82 2a 00
        E 0 b2 0b 7f
        E 0 92 29 7f
        E 16 82 29 00
        E 0 b2 0b 7f
        E 0 92 28 7f
        E 16 82 28 00
        E 0 b2 0b 7f
        E 0 92 27 7f
        E 16 82 27 00
        E 0 b2 0b 7f
        E 0 92 26 7f
        E 16 82 26 00
        E 16 b2 0b 7f
        E 0 92 25 7f
        E 16 82 25 00
        E 0 b2 0b 7f
        E 0 92 27 7f
        E 16 82 27 00
        E 0 b2 0b 7f
        E 0 92 26 7f
        E 16 82 26 00
        E 112 b2 0b 7f
        E 0 92 36 7f
        E 16 82 36 00
        E 0 b2 0b 7f
        E 0 92 31 7f
        E 16 82 31 00
        E 0 b2 0b 7f
        E 0 92 30 7f
        E 16 82 30 00
        E 0 b2 0b 7f
        E 0 92 2f 7f
        E 16 82 2f 00
        E 16 b2 0b 7f
        E 0 92 2e 7f
        E 16 82 2e 00
        E 0 b2 0b 7f
        E 0 92 31 7f
        E 16 82 31 00
        E 0 b2 0b 7f
        E 0 92 30 7f
        E 16 82 30 00
        E 0 b2 0b 7f
        E 0 92 2f 7f
        E 16 82 2f 00
        E 16 b2 0b 7f
        E 0 92 21 7f
        E 16 82 21 00
        E 0 b2 0b 7f
        E 0 92 29 7f
        E 16 82 29 00
        E 0 b2 0b 7f
        E 0 92 28 7f
        E 16 82 28 00
        E 0 b2 0b 7f
        E 0 92 27 7f
        E 16 82 27 00
        E 16 b2 0b 7f
        E 0 92 26 7f
        E 16 82 26 00
        E 0 b2 0b 7f
        E 0 92 25 7f
        E 16 82 25 00
        E 0 b2 0b 7f
        E 0 92 24 7f
        E 16 82 24 00
        E 0 b2 0b 7f
        E 0 92 23 7f
        E 16 82 23 00
        E 16 b2 0b 7f
        E 0 92 2f 7f
        E 16 82 2f 00
        E 0 b2 0b 7f
        E 0 92 31 7f
        E 16 82 31 00
        E 0 b2 0b 7f
        E 0 92 30 7f
        E 16 82 30 00
        E 0 b2 0b 7f
        E 0 92 2f 7f
        E 16 82 2f 00
        E 16 b2 0b 7f
        E 0 92 21 7f
        E 16 82 21 00
        E 0 b2 0b 7f
        E 0 92 29 7f
        E 16 82 29 00
        E 0 b2 0b 7f
        E 0 92 28 7f
        E 16 82 28 00
        E 0 b2 0b 7f
        E 0 92 27 7f
        E 16 82 27 00
        E 16 b2 0b 7f
        E 0 92 26 7f
        E 16 82 26 00
        E 0 b2 0b 7f
        E 0 92 29 7f
        E 16 82 29 00
        E 0 b2 0b 7f
        E 0 92 28 7f
        E 16 82 28 00
        E 0 b2 0b 7f
        E 0 92 27 7f
        E 16 82 27 00
        E 16 b2 0b 7f
        E 0 92 26 7f
        E 16 82 26 00
        E 0 b2 0b 7f
        E 0 92 25 7f
        E 16 82 25 00
        E 0 b2 0b 7f
        E 0 92 24 7f
        E 16 82 24 00
        E 0 b2 0b 7f
        E 0 92 23 7f
        E 16 82 23 00
        E 16 b2 0b 7f
        E 0 92 2f 7f
        E 16 82 2f 00
        E 0 b2 0b 7f
        E 0 92 31 7f
        E 16 82 31 00
        E 0 b2 0b 7f
        E 0 92 30 7f
        E 16 82 30 00
        E 0 b2 0b 7f
        E 0 92 31 7f
        E 32 82 31 00
        E 0 b2 0b 7f
        E 0 92 30 7f
        E 16 82 30 00
        E 0 b2 0b 7f
        E 0 92 31 7f
        E 16 82 31 00
        E 0 b2 0b 7f
        E 0 92 32 7f
        E 16 82 32 00
        E 0 b2 0b 7f
        E 0 92 31 7f
        E 16 82 31 00
        E 0 b2 0b 7f
        E 0 92 30 7f
        E 16 82 30 00
        E 0 b2 0b 7f
        E 0 92 31 7f
        E 32 82 31 00
        E 0 b2 0b 7f
        E 0 92 30 7f
        E 16 82 30 00
        E 0 b2 0b 7f
        E 0 92 2f 7f
        E 16 82 2f 00
        E 16 b2 0b 7f
        E 0 92 2e 7f
        E 16 82 2e 00
        E 0 b2 0b 7f
        E 0 92 31 7f
        E 16 82 31 00
        E 0 b2 0b 7f
        E 0 92 30 7f
        E 16 82 30 00
        E 0 b2 0b 7f
        E 0 92 2f 7f
        E 16 82 2f 00
        E 16 b2 0b 7f
        E 0 92 21 7f
        E 16 82 21 00
        E 0 b2 0b 7f
        E 0 92 29 7f
        E 16 82 29 00
        E 0 b2 0b 7f
        E 0 92 28 7f
        E 16 82 28 00
        E 0 b2 0b 7f
        E 0 92 27 7f
        E 16 82 27 00
        E 16 b2 0b 7f
        E 0 92 26 7f
        E 16 82 26 00
        E 0 b2 0b 7f
        E 0 92 29 7f
        E 16 82 29 00
        E 0 b2 0b 7f
        E 0 92 28 7f
        E 16 82 28 00
        E 0 b2 0b 7f
        E 0 92 27 7f
        E 16 82 27 00
        E 16 b2 0b 7f
        E 0 92 26 7f
        E 16 82 26 00
        E 0 b2 0b 7f
        E 0 92 25 7f
        E 16 82 25 00
        E 0 b2 0b 7f
        E 0 92 24 7f
        E 16 82 24 00
        E 0 b2 0b 7f
        E 0 92 23 7f
        E 16 82 23 00
        E 16 b2 0b 7f
        E 0 92 22 7f
        E 16 82 22 00
        E 0 b2 0b 7f
        E 0 92 25 7f
        E 16 82 25 00
        E 0 b2 0b 7f
        E 0 92 24 7f
        E 16 82 24 00
        E 0 b2 0b 7f
        E 0 92 23 7f
        E 16 82 23 00
        E 16 b2 0b 7f
        E 0 92 22 7f
        E 16 82 22 00
        E 0 b2 0b 7f
        E 0 92 27 7f
        E 16 82 27 00
        E 0 b2 0b 7f
        E 0 92 26 7f
        E 16 82 26 00
        E 112 b2 0b 7f
        E 0 92 25 7f
        E 16 82 25 00
        E 0 b2 0b 7f
        E 0 92 27 7f
        E 16 82 27 00
        E 0 b2 0b 7f
        E 0 92 26 7f
        E 16 82 26 00
        E 112 b2 0b 7f
        E 0 92 36 7f
        E 16 82 36 00
        E 0 b2 0b 7f
        E 0 92 21 7f
        E 16 82 21 00
        E 0 b2 0b 7f
        E 0 92 2c 7f
        E 16 82 2c 00
        E 0 b2 0b 7f
        E 0 92 2b 7f
        E 16 82 2b 00
        E 0 b2 0b 7f
        E 0 92 2a 7f
        E 16 82 2a 00
        E 0 b2 0b 7f
        E 0 92 29 7f
        E 16 82 29 00
        E 0 b2 0b 7f
        E 0 92 28 7f
        E 16 82 28 00
        E 0 b2 0b 7f
        E 0 92 27 7f
        E 16 82 27 00
        E 0 b2 0b 7f
        E 0 92 26 7f
        E 16 82 26 00
        E 16 b2 0b 7f
        E 0 92 25 7f
        E 16 82 25 00
        E 0 b2 0b 7f
        E 0 92 27 7f
        E 16 82 27 00
        E 0 b2 0b 7f
        E 0 92 26 7f
        E 16 82 26 00
        E 112 b2 0b 7f
        E 0 92 25 7f
        E 16 82 25 00
        E 0 b2 0b 7f
        E 0 92 27 7f
        E 16 82 27 00
        E 0 b2 0b 7f
        E 0 92 26 7f
        E 16 82 26 00
        E 112 b2 0b 7f
        E 0 92 25 7f
        E 16 82 25 00
        E 0 b2 0b 7f
        E 0 92 27 7f
        E 16 82 27 00
        E 0 b2 0b 7f
        E 0 92 26 7f
        E 16 82 26 00
        E 112 b2 0b 7f
        E 0 92 36 7f
        E 16 82 36 00
        E 0 b2 0b 7f
        E 0 92 21 7f
        E 16 82 21 00
        E 0 b2 0b 7f
        E 0 92 2c 7f
        E 16 82 2c 00
        E 0 b2 0b 7f
        E 0 92 2b 7f
        E 16 82 2b 00
        E 0 b2 0b 7f
        E 0 92 2a 7f
        E 16 82 2a 00
        E 0 b2 0b 7f
        E 0 92 29 7f
        E 16 82 29 00
        E 0 b2 0b 7f
        E 0 92 28 7f
        E 16 82 28 00
        E 0 b2 0b 7f
        E 0 92 27 7f
        E 16 82 27 00
        E 0 b2 0b 7f
        E 0 92 26 7f
        E 16 82 26 00
        E 16 b2 0b 7f
        E 0 92 25 7f
        E 16 82 25 00
        E 0 b2 0b 7f
        E 0 92 27 7f
        E 16 82 27 00
        E 0 b2 0b 7f
        E 0 92 26 7f
        E 16 82 26 00
        E 112 b2 0b 7f
        E 0 92 25 7f
        E 16 82 25 00
        E 0 b2 0b 7f
        E 0 92 27 7f
        E 16 82 27 00
        E 0 b2 0b 7f
        E 0 92 26 7f
        E 16 82 26 00
        E 112 b2 0b 7f
        E 0 92 25 7f
        E 16 82 25 00
        E 0 b2 0b 7f
        E 0 92 27 7f
        E 16 82 27 00
        E 0 b2 0b 7f
        E 0 92 26 7f
        E 16 82 26 00
        E 112 b2 0b 7f
        E 0 92 36 7f
        E 16 82 36 00
        E 0 b2 0b 7f
        E 0 92 21 7f
        E 16 82 21 00
        E 0 b2 0b 7f
        E 0 92 2c 7f
        E 16 82 2c 00
        E 0 b2 0b 7f
        E 0 92 2b 7f
        E 16 82 2b 00
        E 0 b2 0b 7f
        E 0 92 2a 7f
        E 16 82 2a 00
        E 0 b2 0b 7f
        E 0 92 29 7f
        E 16 82 29 00
        E 0 b2 0b 7f
        E 0 92 28 7f
        E 16 82 28 00
        E 0 b2 0b 7f
        E 0 92 27 7f
        E 16 82 27 00
        E 0 b2 0b 7f
        E 0 92 26 7f
        E 16 82 26 00
        E 16 b2 0b 7f
        E 0 92 25 7f
        E 16 82 25 00
        E 0 b2 0b 7f
        E 0 92 27 7f
        E 16 82 27 00
        E 0 b2 0b 7f
        E 0 92 26 7f
        E 16 82 26 00
        E 112 b2 0b 7f
        E 0 92 25 7f
        E 16 82 25 00
        E 0 b2 0b 7f
        E 0 92 27 7f
        E 16 82 27 00
        E 0 b2 0b 7f
        E 0 92 26 7f
        E 16 82 26 00
        E 112 b2 0b 7f
        E 0 92 25 7f
        E 16 82 25 00
        E 0 b2 0b 7f
        E 0 92 27 7f
        E 16 82 27 00
        E 0 b2 0b 7f
        E 0 92 26 7f
        E 16 82 26 00
        E 112 b2 0b 7f
        E 0 92 36 7f
        E 16 82 36 00
        E 0 b2 0b 7f
        E 0 92 21 7f
        E 16 82 21 00
        E 0 b2 0b 7f
        E 0 92 2c 7f
        E 16 82 2c 00
        E 0 b2 0b 7f
        E 0 92 2b 7f
        E 16 82 2b 00
        E 0 b2 0b 7f
        E 0 92 2a 7f
        E 16 82 2a 00
        E 0 b2 0b 7f
        E 0 92 29 7f
        E 16 82 29 00
        E 0 b2 0b 7f
        E 0 92 28 7f
        E 16 82 28 00
        E 0 b2 0b 7f
        E 0 92 27 7f
        E 16 82 27 00
        E 0 b2 0b 7f
        E 0 92 26 7f
        E 16 82 26 00
        E 16 b2 0b 7f
        E 0 92 25 7f
        E 16 82 25 00
        E 0 b2 0b 7f
        E 0 92 27 7f
        E 16 82 27 00
        E 0 b2 0b 7f
        E 0 92 26 7f
        E 16 82 26 00
        E 112 b2 0b 7f
        E 0 92 25 7f
        E 16 82 25 00
        E 0 b2 0b 7f
        E 0 92 27 7f
        E 16 82 27 00
        E 0 b2 0b 7f
        E 0 92 26 7f
        E 16 82 26 00
        E 112 b2 0b 7f
        E 0 92 25 7f
        E 16 82 25 00
        E 0 b2 0b 7f
        E 0 92 27 7f
        E 16 82 27 00
        E 0 b2 0b 7f
        E 0 92 26 7f
        E 16 82 26 00
        E 112 b2 0b 7f
        E 0 92 36 7f
        E 16 82 36 00
        E 0 b2 0b 7f
        E 0 92 21 7f
        E 16 82 21 00
        E 0 b2 0b 7f
        E 0 92 2c 7f
        E 16 82 2c 00
        E 0 b2 0b 7f
        E 0 92 2b 7f
        E 16 82 2b 00
        E 0 b2 0b 7f
        E 0 92 2a 7f
        E 16 82 2a 00
        E 0 b2 0b 7f
        E 0 92 29 7f
        E 16 82 29 00
        E 0 b2 0b 7f
        E 0 92 28 7f
        E 16 82 28 00
        E 0 b2 0b 7f
        E 0 92 27 7f
        E 16 82 27 00
        E 0 b2 0b 7f
        E 0 92 26 7f
        E 16 82 26 00
        E 16 b2 0b 7f
        E 0 92 25 7f
        E 16 82 25 00
        E 0 b2 0b 7f
        E 0 92 27 7f
        E 16 82 27 00
        E 0 b2 0b 7f
        E 0 92 26 7f
        E 16 82 26 00
        E 112 b2 0b 7f
        E 0 92 25 7f
        E 16 82 25 00
        E 0 b2 0b 7f
        E 0 92 27 7f
        E 16 82 27 00
        E 0 b2 0b 7f
        E 0 92 26 7f
        E 16 82 26 00
        E 112 b2 0b 7f
        E 0 92 25 7f
        E 16 82 25 00
        E 0 b2 0b 7f
        E 0 92 27 7f
        E 16 82 27 00
        E 0 b2 0b 7f
        E 0 92 26 7f
        E 16 82 26 00
        E 112 b2 0b 7f
        E 0 92 36 7f
        E 16 82 36 00
        E 0 b2 0b 7f
        E 0 92 21 7f
        E 16 82 21 00
        E 0 b2 0b 7f
        E 0 92 2c 7f
        E 16 82 2c 00
        E 0 b2 0b 7f
        E 0 92 2b 7f
        E 16 82 2b 00
        E 0 b2 0b 7f
        E 0 92 2a 7f
        E 16 82 2a 00
        E 0 b2 0b 7f
        E 0 92 29 7f
        E 16 82 29 00
        E 0 b2 0b 7f
        E 0 92 28 7f
        E 16 82 28 00
        E 0 b2 0b 7f
        E 0 92 27 7f
        E 16 82 27 00
        E 0 b2 0b 7f
        E 0 92 26 7f
        E 16 82 26 00
        E 16 b2 0b 7f
        E 0 92 25 7f
        E 16 82 25 00
        E 0 b2 0b 7f
        E 0 92 27 7f
        E 16 82 27 00
        E 0 b2 0b 7f
        E 0 92 26 7f
        E 16 82 26 00
        E 112 b2 0b 7f
        E 0 92 36 7f
        E 16 82 36 00
        E 0 b2 0b 7f
        E 0 92 31 7f
        E 16 82 31 00
        E 0 b2 0b 7f
        E 0 92 30 7f
        E 16 82 30 00
        E 0 b2 0b 7f
        E 0 92 2f 7f
        E 16 82 2f 00
        E 0 b2 0b 7f
        E 0 92 2e 7f
        E 16 82 2e 00
        E 0 b2 0b 7f
        E 0 92 21 7f
        E 16 82 21 00
        E 0 b2 0b 7f
        E 0 92 2c 7f
        E 16 82 2c 00
        E 0 b2 0b 7f
        E 0 92 2b 7f
        E 16 82 2b 00
        E 0 b2 0b 7f
        E 0 92 2a 7f
        E 16 82 2a 00
        E 16 b2 0b 7f
        E 0 92 45 7f
        E 16 82 45 00
        E 0 b2 0b 7f
        E 0 92 31 7f
        E 16 82 31 00
        E 0 b2 0b 7f
        E 0 92 30 7f
        E 16 82 30 00
        E 0 b2 0b 7f
        E 0 92 2f 7f
        E 16 82 2f 00
        E 0 b2 0b 7f
        E 0 92 2e 7f
        E 16 82 2e 00
        E 0 b2 0b 7f
        E 0 92 21 7f
        E 16 82 21 00
        E 0 b2 0b 7f
        E 0 92 2c 7f
        E 16 82 2c 00
        E 0 b2 0b 7f
        E 0 92 2b 7f
        E 16 82 2b 00
        E 0 b2 0b 7f
        E 0 92 2a 7f
        E 16 82 2a 00
        E 16 b2 0b 7f
        E 0 92 29 7f
        E 32 82 29 00
        E 0 b2 0b 7f
        E 0 92 28 7f
        E 16 82 28 00
        E 0 b2 0b 7f
        E 0 92 27 7f
        E 16 82 27 00
        E 0 b2 0b 7f
        E 0 92 26 7f
        E 16 82 26 00
        E 0 b2 0b 7f
        E 0 92 25 7f
        E 16 82 25 00
        E 0 b2 0b 7f
        E 0 92 24 7f
        E 16 82 24 00
        E 0 b2 0b 7f
        E 0 92 23 7f
        E 16 82 23 00
        E 0 b2 0b 7f
        E 0 92 22 7f
        E 16 82 22 00
        E 16 b2 0b 7f
        E 0 92 21 7f
        E 16 82 21 00
        E 0 b2 0b 7f
        E 0 92 25 7f
        E 16 82 25 00
        E 0 b2 0b 7f
        E 0 92 24 7f
        E 16 82 24 00
        E 0 b2 0b 7f
        E 0 92 23 7f
        E 16 82 23 00
        E 0 b2 0b 7f
        E 0 92 22 7f
        E 16 82 22 00
        E 0 b2 0b 7f
        E 0 92 1a 7f
        E 16 82 1a 00
        E 0 b2 0b 7f
        E 0 92 20 7f
        E 16 82 20 00
        E 0 b2 0b 7f
        E 0 92 1f 7f
        E 16 82 1f 00
        E 0 b2 0b 7f
        E 0 92 1e 7f
        E 16 82 1e 00
        E 16 b2 0b 7f
        E 0 92 39 7f
        E 16 82 39 00
        E 0 b2 0b 7f
        E 0 92 31 7f
        E 16 82 31 00
        E 0 b2 0b 7f
        E 0 92 30 7f
        E 16 82 30 00
        E 0 b2 0b 7f
        E 0 92 2f 7f
        E 16 82 2f 00
        E 16 b2 0b 7f
        E 0 92 2e 7f
        E 16 82 2e 00
        E 0 b2 0b 7f
        E 0 92 31 7f
        E 16 82 31 00
        E 0 b2 0b 7f
        E 0 92 30 7f
        E 16 82 30 00
        E 0 b2 0b 7f
        E 0 92 2f 7f
        E 16 82 2f 00
        E 96 b2 0b 7f
        E 0 92 2e 7f
        E 16 82 2e 00
        E 0 b2 0b 7f
        E 0 92 31 7f
        E 16 82 31 00
        E 0 b2 0b 7f
        E 0 92 30 7f
        E 16 82 30 00
        E 0 b2 0b 7f
        E 0 92 2f 7f
        E 16 82 2f 00
        E 16 b2 0b 7f
        E 0 92 21 7f
        E 16 82 21 00
        E 0 b2 0b 7f
        E 0 92 29 7f
        E 16 82 29 00
        E 0 b2 0b 7f
        E 0 92 28 7f
        E 16 82 28 00
        E 0 b2 0b 7f
        E 0 92 27 7f
        E 16 82 27 00
        E 16 b2 0b 7f
        E 0 92 26 7f
        E 16 82 26 00
        E 0 b2 0b 7f
        E 0 92 29 7f
        E 16 82 29 00
        E 0 b2 0b 7f
        E 0 92 28 7f
        E 16 82 28 00
        E 0 b2 0b 7f
        E 0 92 27 7f
        E 16 82 27 00
        E 16 b2 0b 7f
        E 0 92 26 7f
        E 16 82 26 00
        E 0 b2 0b 7f
        E 0 92 25 7f
        E 16 82 25 00
        E 0 b2 0b 7f
        E 0 92 24 7f
        E 16 82 24 00
        E 0 b2 0b 7f
        E 0 92 23 7f
        E 16 82 23 00
        E 0 b2 0b 7f
        E 0 92 22 7f
        E 16 82 22 00
        E 0 b2 0b 7f
        E 0 92 1a 7f
        E 16 82 1a 00
        E 0 b2 0b 7f
        E 0 92 20 7f
        E 16 82 20 00
        E 0 b2 0b 7f
        E 0 92 1f 7f
        E 16 82 1f 00
        E 0 b2 0b 7f
        E 0 92 1e 7f
        E 16 82 1e 00
        E 16 b2 0b 7f
        E 0 92 26 7f
        E 16 82 26 00
        E 0 b2 0b 7f
        E 0 92 27 7f
        E 16 82 27 00
        E 0 b2 0b 7f
        E 0 92 26 7f
        E 16 82 26 00
        E 112 b2 0b 7f
        E 0 92 25 7f
        E 16 82 25 00
        E 0 b2 0b 7f
        E 0 92 27 7f
        E 16 82 27 00
        E 0 b2 0b 7f
        E 0 92 26 7f
        E 16 82 26 00
        E 112 b2 0b 7f
        E 0 92 36 7f
        E 16 82 36 00
        E 0 b2 0b 7f
        E 0 92 21 7f
        E 16 82 21 00
        E 0 b2 0b 7f
        E 0 92 2c 7f
        E 16 82 2c 00
        E 0 b2 0b 7f
        E 0 92 2b 7f
        E 16 82 2b 00
        E 0 b2 0b 7f
        E 0 92 2a 7f
        E 16 82 2a 00
        E 0 b2 0b 7f
        E 0 92 29 7f
        E 16 82 29 00
        E 0 b2 0b 7f
        E 0 92 28 7f
        E 16 82 28 00
        E 0 b2 0b 7f
        E 0 92 27 7f
        E 16 82 27 00
        E 0 b2 0b 7f
        E 0 92 26 7f
        E 16 82 26 00
        E 16 b2 0b 7f
        E 0 92 25 7f
        E 16 82 25 00
        E 0 b2 0b 7f
        E 0 92 27 7f
        E 16 82 27 00
        E 0 b2 0b 7f
        E 0 92 26 7f
        E 16 82 26 00
        E 112 b2 0b 7f
        E 0 92 25 7f
        E 16 82 25 00
        E 0 b2 0b 7f
        E 0 92 27 7f
        E 16 82 27 00
        E 0 b2 0b 7f
        E 0 92 26 7f
        E 16 82 26 00
        E 112 b2 0b 7f
        E 0 92 25 7f
        E 16 82 25 00
        E 0 b2 0b 7f
        E 0 92 27 7f
        E 16 82 27 00
        E 0 b2 0b 7f
        E 0 92 26 7f
        E 16 82 26 00
        E 112 b2 0b 7f
        E 0 92 36 7f
        E 16 82 36 00
        E 0 b2 0b 7f
        E 0 92 21 7f
        E 16 82 21 00
        E 0 b2 0b 7f
        E 0 92 2c 7f
        E 16 82 2c 00
        E 0 b2 0b 7f
        E 0 92 2b 7f
        E 16 82 2b 00
        E 0 b2 0b 7f
        E 0 92 2a 7f
        E 16 82 2a 00
        E 0 b2 0b 7f
        E 0 92 29 7f
        E 16 82 29 00
        E 0 b2 0b 7f
        E 0 92 28 7f
        E 16 82 28 00
        E 0 b2 0b 7f
        E 0 92 27 7f
        E 16 82 27 00
        E 0 b2 0b 7f
        E 0 92 26 7f
        E 16 82 26 00
        E 16 b2 0b 7f
        E 0 92 25 7f
        E 16 82 25 00
        E 0 b2 0b 7f
        E 0 92 27 7f
        E 16 82 27 00
        E 0 b2 0b 7f
        E 0 92 26 7f
        E 16 82 26 00
        E 112 b2 0b 7f
        E 0 92 25 7f
        E 16 82 25 00
        E 0 b2 0b 7f
        E 0 92 27 7f
        E 16 82 27 00
        E 0 b2 0b 7f
        E 0 92 26 7f
        E 16 82 26 00
        E 112 b2 0b 7f
        E 0 92 25 7f
        E 16 82 25 00
        E 0 b2 0b 7f
        E 0 92 27 7f
        E 16 82 27 00
        E 0 b2 0b 7f
        E 0 92 26 7f
        E 16 82 26 00
        E 112 b2 0b 7f
        E 0 92 36 7f
        E 16 82 36 00
        E 0 b2 0b 7f
        E 0 92 21 7f
        E 16 82 21 00
        E 0 b2 0b 7f
        E 0 92 2c 7f
        E 16 82 2c 00
        E 0 b2 0b 7f
        E 0 92 2b 7f
        E 16 82 2b 00
        E 0 b2 0b 7f
        E 0 92 2a 7f
        E 16 82 2a 00
        E 0 b2 0b 7f
        E 0 92 29 7f
        E 16 82 29 00
        E 0 b2 0b 7f
        E 0 92 28 7f
        E 16 82 28 00
        E 0 b2 0b 7f
        E 0 92 27 7f
        E 16 82 27 00
        E 0 b2 0b 7f
        E 0 92 26 7f
        E 16 82 26 00
        E 16 b2 0b 7f
        E 0 92 25 7f
        E 16 82 25 00
        E 0 b2 0b 7f
        E 0 92 27 7f
        E 16 82 27 00
        E 0 b2 0b 7f
        E 0 92 26 7f
        E 16 82 26 00
        E 112 b2 0b 7f
        E 0 92 25 7f
        E 16 82 25 00
        E 0 b2 0b 7f
        E 0 92 27 7f
        E 16 82 27 00
        E 0 b2 0b 7f
        E 0 92 26 7f
        E 16 82 26 00
        E 112 b2 0b 7f
        E 0 92 25 7f
        E 16 82 25 00
        E 0 b2 0b 7f
        E 0 92 27 7f
        E 16 82 27 00
        E 0 b2 0b 7f
        E 0 92 26 7f
        E 16 82 26 00
        E 112 b2 0b 7f
        E 0 92 36 7f
        E 16 82 36 00
        E 0 b2 0b 7f
        E 0 92 21 7f
        E 16 82 21 00
        E 0 b2 0b 7f
        E 0 92 2c 7f
        E 16 82 2c 00
        E 0 b2 0b 7f
        E 0 92 2b 7f
        E 16 82 2b 00
        E 0 b2 0b 7f
        E 0 92 2a 7f
        E 16 82 2a 00
        E 0 b2 0b 7f
        E 0 92 29 7f
        E 16 82 29 00
        E 0 b2 0b 7f
        E 0 92 28 7f
        E 16 82 28 00
        E 0 b2 0b 7f
        E 0 92 27 7f
        E 16 82 27 00
        E 0 b2 0b 7f
        E 0 92 26 7f
        E 16 82 26 00
        E 16 b2 0b 7f
        E 0 92 25 7f
        E 16 82 25 00
        E 0 b2 0b 7f
        E 0 92 27 7f
        E 16 82 27 00
        E 0 b2 0b 7f
        E 0 92 26 7f
        E 16 82 26 00
        E 112 b2 0b 7f
        E 0 92 25 7f
        E 16 82 25 00
        E 0 b2 0b 7f
        E 0 92 27 7f
        E 16 82 27 00
        E 0 b2 0b 7f
        E 0 92 26 7f
        E 16 82 26 00
        E 112 b2 0b 7f
        E 0 92 25 7f
        E 16 82 25 00
        E 0 b2 0b 7f
        E 0 92 27 7f
        E 16 82 27 00
        E 0 b2 0b 7f
        E 0 92 26 7f
        E 16 82 26 00
        E 112 b2 0b 7f
        E 0 92 36 7f
        E 16 82 36 00
        E 0 b2 0b 7f
        E 0 92 21 7f
        E 16 82 21 00
        E 0 b2 0b 7f
        E 0 92 2c 7f
        E 16 82 2c 00
        E 0 b2 0b 7f
        E 0 92 2b 7f
        E 16 82 2b 00
        E 0 b2 0b 7f
        E 0 92 2a 7f
        E 16 82 2a 00
        E 0 b2 0b 7f
        E 0 92 29 7f
        E 16 82 29 00
        E 0 b2 0b 7f
        E 0 92 28 7f
        E 16 82 28 00
        E 0 b2 0b 7f
        E 0 92 27 7f
        E 16 82 27 00
        E 0 b2 0b 7f
        E 0 92 26 7f
        E 16 82 26 00
        E 16 b2 0b 7f
        E 0 92 25 7f
        E 16 82 25 00
        E 0 b2 0b 7f
        E 0 92 27 7f
        E 16 82 27 00
        E 0 b2 0b 7f
        E 0 92 26 7f
        E 16 82 26 00
        E 112 b2 0b 7f
        E 0 92 25 7f
        E 16 82 25 00
        E 0 b2 0b 7f
        E 0 92 27 7f
        E 16 82 27 00
        E 0 b2 0b 7f
        E 0 92 26 7f
        E 16 82 26 00
        E 112 b2 0b 7f
        E 0 92 25 7f
        E 16 82 25 00
        E 0 b2 0b 7f
        E 0 92 27 7f
        E 16 82 27 00
        E 0 b2 0b 7f
        E 0 92 26 7f
        E 16 82 26 00
        E 112 b2 0b 7f
        E 0 92 36 7f
        E 16 82 36 00
        E 0 b2 0b 7f
        E 0 92 21 7f
        E 16 82 21 00
        E 0 b2 0b 7f
        E 0 92 2c 7f
        E 16 82 2c 00
        E 0 b2 0b 7f
        E 0 92 2b 7f
        E 16 82 2b 00
        E 0 b2 0b 7f
        E 0 92 2a 7f
        E 16 82 2a 00
        E 0 b2 0b 7f
        E 0 92 29 7f
        E 16 82 29 00
        E 0 b2 0b 7f
        E 0 92 28 7f
        E 16 82 28 00
        E 0 b2 0b 7f
        E 0 92 27 7f
        E 16 82 27 00
        E 0 b2 0b 7f
        E 0 92 26 7f
        E 16 82 26 00
        E 16 b2 0b 7f
        E 0 92 25 7f
        E 16 82 25 00
        E 0 b2 0b 7f
        E 0 92 27 7f
        E 16 82 27 00
        E 0 b2 0b 7f
        E 0 92 26 7f
        E 16 82 26 00
        E 112 b2 0b 7f
        E 0 92 36 7f
        E 16 82 36 00
        E 0 b2 0b 7f
        E 0 92 31 7f
        E 16 82 31 00
        E 0 b2 0b 7f
        E 0 92 30 7f
        E 16 82 30 00
        E 0 b2 0b 7f
        E 0 92 2f 7f
        E 16 82 2f 00
        E 16 b2 0b 7f
        E 0 92 2e 7f
        E 16 82 2e 00
        E 0 b2 0b 7f
        E 0 92 31 7f
        E 16 82 31 00
        E 0 b2 0b 7f
        E 0 92 30 7f
        E 16 82 30 00
        E 0 b2 0b 7f
        E 0 92 2f 7f
        E 16 82 2f 00
        E 16 b2 0b 7f
        E 0 92 21 7f
        E 16 82 21 00
        E 0 b2 0b 7f
        E 0 92 29 7f
        E 16 82 29 00
        E 0 b2 0b 7f
        E 0 92 28 7f
        E 16 82 28 00
        E 0 b2 0b 7f
        E 0 92 27 7f
        E 16 82 27 00
        E 16 b2 0b 7f
        E 0 92 26 7f
        E 16 82 26 00
        E 0 b2 0b 7f
        E 0 92 25 7f
        E 16 82 25 00
        E 0 b2 0b 7f
        E 0 92 24 7f
        E 16 82 24 00
        E 0 b2 0b 7f
        E 0 92 23 7f
        E 16 82 23 00
        E 16 b2 0b 7f
        E 0 92 2f 7f
        E 16 82 2f 00
        E 0 b2 0b 7f
        E 0 92 31 7f
        E 16 82 31 00
        E 0 b2 0b 7f
        E 0 92 30 7f
        E 16 82 30 00
        E 0 b2 0b 7f
        E 0 92 2f 7f
        E 16 82 2f 00
        E 16 b2 0b 7f
        E 0 92 21 7f
        E 16 82 21 00
        E 0 b2 0b 7f
        E 0 92 29 7f
        E 16 82 29 00
        E 0 b2 0b 7f
        E 0 92 28 7f
        E 16 82 28 00
        E 0 b2 0b 7f
        E 0 92 27 7f
        E 16 82 27 00
        E 16 b2 0b 7f
        E 0 92 26 7f
        E 16 82 26 00
        E 0 b2 0b 7f
        E 0 92 29 7f
        E 16 82 29 00
        E 0 b2 0b 7f
        E 0 92 28 7f
        E 16 82 28 00
        E 0 b2 0b 7f
        E 0 92 27 7f
        E 16 82 27 00
        E 16 b2 0b 7f
        E 0 92 26 7f
        E 16 82 26 00
        E 0 b2 0b 7f
        E 0 92 25 7f
        E 16 82 25 00
        E 0 b2 0b 7f
        E 0 92 24 7f
        E 16 82 24 00
        E 0 b2 0b 7f
        E 0 92 23 7f
        E 16 82 23 00
        E 16 b2 0b 7f
        E 0 92 2f 7f
        E 16 82 2f 00
        E 0 b2 0b 7f
        E 0 92 31 7f
        E 16 82 31 00
        E 0 b2 0b 7f
        E 0 92 30 7f
        E 16 82 30 00
        E 0 b2 0b 7f
        E 0 92 31 7f
        E 32 82 31 00
        E 0 b2 0b 7f
        E 0 92 30 7f
        E 16 82 30 00
        E 0 b2 0b 7f
        E 0 92 31 7f
        E 16 82 31 00
        E 0 b2 0b 7f
        E 0 92 32 7f
        E 16 82 32 00
        E 0 b2 0b 7f
        E 0 92 31 7f
        E 16 82 31 00
        E 0 b2 0b 7f
        E 0 92 30 7f
        E 16 82 30 00
        E 0 b2 0b 7f
        E 0 92 31 7f
        E 32 82 31 00
        E 0 b2 0b 7f
        E 0 92 30 7f
        E 16 82 30 00
        E 0 b2 0b 7f
        E 0 92 2f 7f
        E 16 82 2f 00
        E 16 b2 0b 7f
        E 0 92 2e 7f
        E 16 82 2e 00
        E 0 b2 0b 7f
        E 0 92 31 7f
        E 16 82 31 00
        E 0 b2 0b 7f
        E 0 92 30 7f
        E 16 82 30 00
        E 0 b2 0b 7f
        E 0 92 2f 7f
        E 16 82 2f 00
        E 16 b2 0b 7f
        E 0 92 21 7f
        E 16 82 21 00
        E 0 b2 0b 7f
        E 0 92 29 7f
        E 16 82 29 00
        E 0 b2 0b 7f
        E 0 92 28 7f
        E 16 82 28 00
        E 0 b2 0b 7f
        E 0 92 27 7f
        E 16 82 27 00
        E 16 b2 0b 7f
        E 0 92 26 7f
        E 16 82 26 00
        E 0 b2 0b 7f
        E 0 92 29 7f
        E 16 82 29 00
        E 0 b2 0b 7f
        E 0 92 28 7f
        E 16 82 28 00
        E 0 b2 0b 7f
        E 0 92 27 7f
        E 16 82 27 00
        E 16 b2 0b 7f
        E 0 92 26 7f
        E 16 82 26 00
        E 0 b2 0b 7f
        E 0 92 25 7f
        E 16 82 25 00
        E 0 b2 0b 7f
        E 0 92 24 7f
        E 16 82 24 00
        E 0 b2 0b 7f
        E 0 92 23 7f
        E 16 82 23 00
        E 16 b2 0b 7f
        E 0 92 22 7f
        E 16 82 22 00
        E 0 b2 0b 7f
        E 0 92 25 7f
        E 16 82 25 00
        E 0 b2 0b 7f
        E 0 92 24 7f
        E 16 82 24 00
        E 0 b2 0b 7f
        E 0 92 23 7f
        E 16 82 23 00
        E 16 b2 0b 7f
        E 0 92 22 7f
        E 16 82 22 00
        E 0 b2 0b 7f
        E 0 92 27 7f
        E 16 82 27 00
        E 0 b2 0b 7f
        E 0 92 26 7f
        E 16 82 26 00
        E 112 b2 0b 7f
        E 0 92 25 7f
        E 16 82 25 00
        E 0 b2 0b 7f
        E 0 92 27 7f
        E 16 82 27 00
        E 0 b2 0b 7f
        E 0 92 26 7f
        E 16 82 26 00
        E 112 b2 0b 7f
        E 0 92 36 7f
        E 16 82 36 00
        E 0 b2 0b 7f
        E 0 92 21 7f
        E 16 82 21 00
        E 0 b2 0b 7f
        E 0 92 2c 7f
        E 16 82 2c 00
        E 0 b2 0b 7f
        E 0 92 2b 7f
        E 16 82 2b 00
        E 0 b2 0b 7f
        E 0 92 2a 7f
        E 16 82 2a 00
        E 0 b2 0b 7f
        E 0 92 29 7f
        E 16 82 29 00
        E 0 b2 0b 7f
        E 0 92 28 7f
        E 16 82 28 00
        E 0 b2 0b 7f
        E 0 92 27 7f
        E 16 82 27 00
        E 0 b2 0b 7f
        E 0 92 26 7f
        E 16 82 26 00
        E 16 b2 0b 7f
        E 0 92 25 7f
        E 16 82 25 00
        E 0 b2 0b 7f
        E 0 92 27 7f
        E 16 82 27 00
        E 0 b2 0b 7f
        E 0 92 26 7f
        E 16 82 26 00
        E 112 b2 0b 7f
        E 0 92 25 7f
        E 16 82 25 00
        E 0 b2 0b 7f
        E 0 92 27 7f
        E 16 82 27 00
        E 0 b2 0b 7f
        E 0 92 26 7f
        E 16 82 26 00
        E 112 b2 0b 7f
        E 0 92 25 7f
        E 16 82 25 00
        E 0 b2 0b 7f
        E 0 92 27 7f
        E 16 82 27 00
        E 0 b2 0b 7f
        E 0 92 26 7f
        E 16 82 26 00
        E 112 b2 0b 7f
        E 0 92 36 7f
        E 16 82 36 00
        E 0 b2 0b 7f
        E 0 92 21 7f
        E 16 82 21 00
        E 0 b2 0b 7f
        E 0 92 2c 7f
        E 16 82 2c 00
        E 0 b2 0b 7f
        E 0 92 2b 7f
        E 16 82 2b 00
        E 0 b2 0b 7f
        E 0 92 2a 7f
        E 16 82 2a 00
        E 0 b2 0b 7f
        E 0 92 29 7f
        E 16 82 29 00
        E 0 b2 0b 7f
        E 0 92 28 7f
        E 16 82 28 00
        E 0 b2 0b 7f
        E 0 92 27 7f
        E 16 82 27 00
        E 0 b2 0b 7f
        E 0 92 26 7f
        E 16 82 26 00
        E 16 b2 0b 7f
        E 0 92 25 7f
        E 16 82 25 00
        E 0 b2 0b 7f
        E 0 92 27 7f
        E 16 82 27 00
        E 0 b2 0b 7f
        E 0 92 26 7f
        E 16 82 26 00
        E 112 b2 0b 7f
        E 0 92 36 7f
        E 16 82 36 00
        E 0 b2 0b 7f
        E 0 92 31 7f
        E 16 82 31 00
        E 0 b2 0b 7f
        E 0 92 30 7f
        E 16 82 30 00
        E 0 b2 0b 7f
        E 0 92 2f 7f
        E 16 82 2f 00
        E 16 b2 0b 7f
        E 0 92 2e 7f
        E 16 82 2e 00
        E 0 b2 0b 7f
        E 0 92 31 7f
        E 16 82 31 00
        E 0 b2 0b 7f
        E 0 92 30 7f
        E 16 82 30 00
        E 0 b2 0b 7f
        E 0 92 2f 7f
        E 16 82 2f 00
        E 16 b2 0b 7f
        E 0 92 21 7f
        E 16 82 21 00
        E 0 b2 0b 7f
        E 0 92 29 7f
        E 16 82 29 00
        E 0 b2 0b 7f
        E 0 92 28 7f
        E 16 82 28 00
        E 0 b2 0b 7f
        E 0 92 27 7f
        E 16 82 27 00
        E 16 b2 0b 7f
        E 0 92 26 7f
        E 16 82 26 00
        E 0 b2 0b 7f
        E 0 92 25 7f
        E 16 82 25 00
        E 0 b2 0b 7f
        E 0 92 24 7f
        E 16 82 24 00
        E 0 b2 0b 7f
        E 0 92 23 7f
        E 16 82 23 00
        E 16 b2 0b 7f
        E 0 92 2f 7f
        E 16 82 2f 00
        E 0 b2 0b 7f
        E 0 92 31 7f
        E 16 82 31 00
        E 0 b2 0b 7f
        E 0 92 30 7f
        E 16 82 30 00
        E 0 b2 0b 7f
        E 0 92 2f 7f
        E 16 82 2f 00
        E 16 b2 0b 7f
        E 0 92 21 7f
        E 16 82 21 00
        E 0 b2 0b 7f
        E 0 92 29 7f
        E 16 82 29 00
        E 0 b2 0b 7f
        E 0 92 28 7f
        E 16 82 28 00
        E 0 b2 0b 7f
        E 0 92 27 7f
        E 16 82 27 00
        E 16 b2 0b 7f
        E 0 92 26 7f
        E 16 82 26 00
        E 0 b2 0b 7f
        E 0 92 29 7f
        E 16 82 29 00
        E 0 b2 0b 7f
        E 0 92 28 7f
        E 16 82 28 00
        E 0 b2 0b 7f
        E 0 92 27 7f
        E 16 82 27 00
        E 16 b2 0b 7f
        E 0 92 26 7f
        E 16 82 26 00
        E 0 b2 0b 7f
        E 0 92 25 7f
        E 16 82 25 00
        E 0 b2 0b 7f
        E 0 92 24 7f
        E 16 82 24 00
        E 0 b2 0b 7f
        E 0 92 23 7f
        E 16 82 23 00
        E 16 b2 0b 7f
        E 0 92 2f 7f
        E 16 82 2f 00
        E 0 b2 0b 7f
        E 0 92 31 7f
        E 16 82 31 00
        E 0 b2 0b 7f
        E 0 92 30 7f
        E 16 82 30 00
        E 0 b2 0b 7f
        E 0 92 31 7f
        E 32 82 31 00
        E 0 b2 0b 7f
        E 0 92 30 7f
        E 16 82 30 00
        E 0 b2 0b 7f
        E 0 92 31 7f
        E 16 82 31 00
        E 0 b2 0b 7f
        E 0 92 32 7f
        E 16 82 32 00
        E 0 b2 0b 7f
        E 0 92 31 7f
        E 16 82 31 00
        E 0 b2 0b 7f
        E 0 92 30 7f
        E 16 82 30 00
        E 0 b2 0b 7f
        E 0 92 31 7f
        E 32 82 31 00
        E 0 b2 0b 7f
        E 0 92 30 7f
        E 16 82 30 00
        E 0 b2 0b 7f
        E 0 92 2f 7f
        E 16 82 2f 00
        E 16 b2 0b 7f
        E 0 92 2e 7f
        E 16 82 2e 00
        E 0 b2 0b 7f
        E 0 92 31 7f
        E 16 82 31 00
        E 0 b2 0b 7f
        E 0 92 30 7f
        E 16 82 30 00
        E 0 b2 0b 7f
        E 0 92 2f 7f
        E 16 82 2f 00
        E 16 b2 0b 7f
        E 0 92 21 7f
        E 16 82 21 00
        E 0 b2 0b 7f
        E 0 92 29 7f
        E 16 82 29 00
        E 0 b2 0b 7f
        E 0 92 28 7f
        E 16 82 28 00
        E 0 b2 0b 7f
        E 0 92 27 7f
        E 16 82 27 00
        E 16 b2 0b 7f
        E 0 92 26 7f
        E 16 82 26 00
        E 0 b2 0b 7f
        E 0 92 29 7f
        E 16 82 29 00
        E 0 b2 0b 7f
        E 0 92 28 7f
        E 16 82 28 00
        E 0 b2 0b 7f
        E 0 92 27 7f
        E 16 82 27 00
        E 16 b2 0b 7f
        E 0 92 26 7f
        E 16 82 26 00
        E 0 b2 0b 7f
        E 0 92 25 7f
        E 16 82 25 00
        E 0 b2 0b 7f
        E 0 92 24 7f
        E 16 82 24 00
        E 0 b2 0b 7f
        E 0 92 23 7f
        E 16 82 23 00
        E 16 b2 0b 7f
        E 0 92 22 7f
        E 16 82 22 00
        E 0 b2 0b 7f
        E 0 92 25 7f
        E 16 82 25 00
        E 0 b2 0b 7f
        E 0 92 24 7f
        E 16 82 24 00
        E 0 b2 0b 7f
        E 0 92 23 7f
        E 16 82 23 00
        E 16 b2 0b 7f
        E 0 92 22 7f
        E 16 82 22 00
        E 0 b2 0b 7f
        E 0 92 27 7f
        E 16 82 27 00
        E 0 b2 0b 7f
        E 0 92 26 7f
        E 16 82 26 00
        E 112 b2 0b 7f
        E 0 92 25 7f
        E 16 82 25 00
        E 0 b2 0b 7f
        E 0 92 27 7f
        E 16 82 27 00
        E 0 b2 0b 7f
        E 0 92 26 7f
        E 16 82 26 00
        E 112 b2 0b 7f
        E 0 92 36 7f
        E 16 82 36 00
        E 0 b2 0b 7f
        E 0 92 21 7f
        E 16 82 21 00
        E 0 b2 0b 7f
        E 0 92 2c 7f
        E 16 82 2c 00
        E 0 b2 0b 7f
        E 0 92 2b 7f
        E 16 82 2b 00
        E 0 b2 0b 7f
        E 0 92 2a 7f
        E 16 82 2a 00
        E 0 b2 0b 7f
        E 0 92 29 7f
        E 16 82 29 00
        E 0 b2 0b 7f
        E 0 92 28 7f
        E 16 82 28 00
        E 0 b2 0b 7f
        E 0 92 27 7f
        E 16 82 27 00
        E 0 b2 0b 7f
        E 0 92 26 7f
        E 16 82 26 00
        E 16 b2 0b 7f
        E 0 92 25 7f
        E 16 82 25 00
        E 0 b2 0b 7f
        E 0 92 27 7f
        E 16 82 27 00
        E 0 b2 0b 7f
        E 0 92 26 7f
        E 16 82 26 00
        E 112 b2 0b 7f
        E 0 92 25 7f
        E 16 82 25 00
        E 0 b2 0b 7f
        E 0 92 27 7f
        E 16 82 27 00
        E 0 b2 0b 7f
        E 0 92 26 7f
        E 16 82 26 00
        E 112 b2 0b 7f
        E 0 92 25 7f
        E 16 82 25 00
        E 0 b2 0b 7f
        E 0 92 27 7f
        E 16 82 27 00
        E 0 b2 0b 7f
        E 0 92 26 7f
        E 16 82 26 00
        E 112 b2 0b 7f
        E 0 92 36 7f
        E 16 82 36 00
        E 0 b2 0b 7f
        E 0 92 21 7f
        E 16 82 21 00
        E 0 b2 0b 7f
        E 0 92 2c 7f
        E 16 82 2c 00
        E 0 b2 0b 7f
        E 0 92 2b 7f
        E 16 82 2b 00
        E 0 b2 0b 7f
        E 0 92 2a 7f
        E 16 82 2a 00
        E 0 b2 0b 7f
        E 0 92 29 7f
        E 16 82 29 00
        E 0 b2 0b 7f
        E 0 92 28 7f
        E 16 82 28 00
        E 0 b2 0b 7f
        E 0 92 27 7f
        E 16 82 27 00
        E 0 b2 0b 7f
        E 0 92 26 7f
        E 16 82 26 00
        E 16 b2 0b 7f
        E 0 92 25 7f
        E 16 82 25 00
        E 0 b2 0b 7f
        E 0 92 27 7f
        E 16 82 27 00
        E 0 b2 0b 7f
        E 0 92 26 7f
        E 16 82 26 00
        E 112 b2 0b 7f
        E 0 92 25 7f
        E 16 82 25 00
        E 0 b2 0b 7f
        E 0 92 27 7f
        E 16 82 27 00
        E 0 b2 0b 7f
        E 0 92 26 7f
        E 16 82 26 00
        E 112 b2 0b 7f
        E 0 92 25 7f
        E 16 82 25 00
        E 0 b2 0b 7f
        E 0 92 27 7f
        E 16 82 27 00
        E 0 b2 0b 7f
        E 0 92 26 7f
        E 16 82 26 00
        E 112 b2 0b 7f
        E 0 92 36 7f
        E 16 82 36 00
        E 0 b2 0b 7f
        E 0 92 21 7f
        E 16 82 21 00
        E 0 b2 0b 7f
        E 0 92 2c 7f
        E 16 82 2c 00
        E 0 b2 0b 7f
        E 0 92 2b 7f
        E 16 82 2b 00
        E 0 b2 0b 7f
        E 0 92 2a 7f
        E 16 82 2a 00
        E 0 b2 0b 7f
        E 0 92 29 7f
        E 16 82 29 00
        E 0 b2 0b 7f
        E 0 92 28 7f
        E 16 82 28 00
        E 0 b2 0b 7f
        E 0 92 27 7f
        E 16 82 27 00
        E 0 b2 0b 7f
        E 0 92 26 7f
        E 16 82 26 00
        E 16 b2 0b 7f
        E 0 92 25 7f
        E 16 82 25 00
        E 0 b2 0b 7f
        E 0 92 27 7f
        E 16 82 27 00
        E 0 b2 0b 7f
        E 0 92 26 7f
        E 16 82 26 00
        E 112 b2 0b 7f
        E 0 92 25 7f
        E 16 82 25 00
        E 0 b2 0b 7f
        E 0 92 27 7f
        E 16 82 27 00
        E 0 b2 0b 7f
        E 0 92 26 7f
        E 16 82 26 00
        E 112 b2 0b 7f
        E 0 92 25 7f
        E 16 82 25 00
        E 0 b2 0b 7f
        E 0 92 27 7f
        E 16 82 27 00
        E 0 b2 0b 7f
        E 0 92 26 7f
        E 16 82 26 00
        E 112 b2 0b 7f
        E 0 92 36 7f
        E 16 82 36 00
        E 0 b2 0b 7f
        E 0 92 21 7f
        E 16 82 21 00
        E 0 b2 0b 7f
        E 0 92 2c 7f
        E 16 82 2c 00
        E 0 b2 0b 7f
        E 0 92 2b 7f
        E 16 82 2b 00
        E 0 b2 0b 7f
        E 0 92 2a 7f
        E 16 82 2a 00
        E 0 b2 0b 7f
        E 0 92 29 7f
        E 16 82 29 00
        E 0 b2 0b 7f
        E 0 92 28 7f
        E 16 82 28 00
        E 0 b2 0b 7f
        E 0 92 27 7f
        E 16 82 27 00
        E 0 b2 0b 7f
        E 0 92 26 7f
        E 16 82 26 00
        E 16 b2 0b 7f
        E 0 92 25 7f
        E 16 82 25 00
        E 0 b2 0b 7f
        E 0 92 27 7f
        E 16 82 27 00
        E 0 b2 0b 7f
        E 0 92 26 7f
        E 16 82 26 00
        E 112 b2 0b 7f
        E 0 92 25 7f
        E 16 82 25 00
        E 0 b2 0b 7f
        E 0 92 27 7f
        E 16 82 27 00
        E 0 b2 0b 7f
        E 0 92 26 7f
        E 16 82 26 00
        E 112 b2 0b 7f
        E 0 92 25 7f
        E 16 82 25 00
        E 0 b2 0b 7f
        E 0 92 27 7f
        E 16 82 27 00
        E 0 b2 0b 7f
        E 0 92 26 7f
        E 16 82 26 00
        E 96 b2 7b 00
        E 0 ff 2f 00
      >
    >
  >
  <TRACK {6A877B83-820B-4BD3-B8BE-869C7B6EEB46}
    NAME "NES - Noise / Drums [ch3]"
    PEAKCOL 11184810
    BEAT -1
    AUTOMODE 0
    PANLAWFLAGS 3
    VOLPAN 1 0 -1 -1 1
    MUTESOLO 0 0 0
    IPHASE 0
    PLAYOFFS 0 1
    ISBUS 0 0
    BUSCOMP 0 0 0 0 0
    SHOWINMIX 1 0.6667 0.5 1 0.5 0 0 0
    FIXEDLANES 9 0 0 0 0
    SEL 0
    REC 0 5088 1 0 0 0 0 0
    VU 2
    TRACKHEIGHT 0 0 0 0 0 0 0
    INQ 0 0 0 0.5 100 0 0 100
    NCHAN 2
    FX 1
    TRACKID {6A877B83-820B-4BD3-B8BE-869C7B6EEB46}
    PERF 0
    MIDIOUT -1
    MAINSEND 1 0
    <FXCHAIN
      WNDRECT 24 52 700 560
      SHOW 0
      LASTSEL 0
      DOCKED 0
      BYPASS 0 0 0
      <JS "ReapNES Studio/ReapNES_Console.jsfx" ""
        2 15 1 10 80 10 100 2 1 15 1 5 60 10 80 1 1 0 50 0 0 15 1 0 100 0 0 0.500000 0.500000 0.400000 0.300000 0.800000 3 1 0 0 0 0 - - - - - - - - - - - - - - - - - - - - - - - - - -
      >
      FLOATPOS 0 0 0 0
      FXID {0430946D-393E-4AD4-A8EA-5458901128F4}
      WAK 0 0
    >
    <ITEM
      POSITION 0
      LENGTH 74.63452790000001
      LOOP 0
      ALLTAKES 0
      FADEIN 0 0 0 0 0 0 0
      FADEOUT 0 0 0 0 0 0 0
      MUTE 0 0
      SEL 0
      IGUID {86CAFF95-4576-49BF-A42E-FEBBAF1A00DF}
      <SOURCE MIDI
        HASDATA 1 480 QN
        CCINTERP 32
        E 0 93 2a 08
        E 16 83 2a 00
        E 0 93 2a 08
        E 144 83 2a 00
        E 480 93 2a 08
        E 16 83 2a 00
        E 0 93 2a 08
        E 144 83 2a 00
        E 480 93 2a 08
        E 16 83 2a 00
        E 0 93 2a 08
        E 144 83 2a 00
        E 480 93 2a 08
        E 16 83 2a 00
        E 0 93 2a 08
        E 144 83 2a 00
        E 480 93 2a 08
        E 16 83 2a 00
        E 0 93 2a 08
        E 144 83 2a 00
        E 480 93 2a 08
        E 16 83 2a 00
        E 0 93 2a 08
        E 144 83 2a 00
        E 1760 93 2a 08
        E 16 83 2a 00
        E 0 93 2a 08
        E 144 83 2a 00
        E 480 93 2a 08
        E 16 83 2a 00
        E 0 93 2a 08
        E 144 83 2a 00
        E 480 93 2a 08
        E 16 83 2a 00
        E 0 93 2a 08
        E 144 83 2a 00
        E 480 93 2a 08
        E 16 83 2a 00
        E 0 93 2a 08
        E 144 83 2a 00
        E 480 93 2a 08
        E 16 83 2a 00
        E 0 93 2a 08
        E 144 83 2a 00
        E 480 93 2a 08
        E 16 83 2a 00
        E 0 93 2a 08
        E 144 83 2a 00
        E 1760 93 2a 08
        E 16 83 2a 00
        E 0 93 2a 08
        E 144 83 2a 00
        E 480 93 2a 08
        E 16 83 2a 00
        E 0 93 2a 08
        E 144 83 2a 00
        E 480 93 2a 08
        E 16 83 2a 00
        E 0 93 2a 08
        E 144 83 2a 00
        E 480 93 2a 08
        E 16 83 2a 00
        E 0 93 2a 08
        E 144 83 2a 00
        E 480 93 2a 08
        E 16 83 2a 00
        E 0 93 2a 08
        E 144 83 2a 00
        E 480 93 2a 08
        E 16 83 2a 00
        E 0 93 2a 08
        E 144 83 2a 00
        E 1760 93 2a 08
        E 16 83 2a 00
        E 0 93 2a 08
        E 144 83 2a 00
        E 480 93 2a 08
        E 16 83 2a 00
        E 0 93 2a 08
        E 144 83 2a 00
        E 480 93 2a 08
        E 16 83 2a 00
        E 0 93 2a 08
        E 144 83 2a 00
        E 480 93 2a 08
        E 16 83 2a 00
        E 0 93 2a 08
        E 144 83 2a 00
        E 480 93 2a 08
        E 16 83 2a 00
        E 0 93 2a 08
        E 144 83 2a 00
        E 480 93 2a 08
        E 16 83 2a 00
        E 0 93 2a 08
        E 144 83 2a 00
        E 1760 93 2a 08
        E 16 83 2a 00
        E 0 93 2a 08
        E 144 83 2a 00
        E 480 93 2a 08
        E 16 83 2a 00
        E 0 93 2a 08
        E 144 83 2a 00
        E 480 93 2a 08
        E 16 83 2a 00
        E 0 93 2a 08
        E 144 83 2a 00
        E 480 93 2a 08
        E 16 83 2a 00
        E 0 93 2a 08
        E 144 83 2a 00
        E 480 93 2a 08
        E 16 83 2a 00
        E 0 93 2a 08
        E 144 83 2a 00
        E 480 93 2a 08
        E 16 83 2a 00
        E 0 93 2a 08
        E 144 83 2a 00
        E 1760 93 2a 08
        E 16 83 2a 00
        E 0 93 2a 08
        E 144 83 2a 00
        E 480 93 2a 08
        E 16 83 2a 00
        E 0 93 2a 08
        E 144 83 2a 00
        E 480 93 2a 08
        E 16 83 2a 00
        E 0 93 2a 08
        E 144 83 2a 00
        E 480 93 2a 08
        E 16 83 2a 00
        E 0 93 2a 08
        E 144 83 2a 00
        E 480 93 2a 08
        E 16 83 2a 00
        E 0 93 2a 08
        E 144 83 2a 00
        E 480 93 2a 08
        E 16 83 2a 00
        E 0 93 2a 08
        E 144 83 2a 00
        E 1760 93 2a 08
        E 16 83 2a 00
        E 0 93 2a 08
        E 144 83 2a 00
        E 480 93 2a 08
        E 16 83 2a 00
        E 0 93 2a 08
        E 144 83 2a 00
        E 480 93 2a 08
        E 16 83 2a 00
        E 0 93 2a 08
        E 144 83 2a 00
        E 480 93 2a 08
        E 16 83 2a 00
        E 0 93 2a 08
        E 144 83 2a 00
        E 480 93 2a 08
        E 16 83 2a 00
        E 0 93 2a 08
        E 144 83 2a 00
        E 480 93 2a 08
        E 16 83 2a 00
        E 0 93 2a 08
        E 144 83 2a 00
        E 1760 93 2a 08
        E 16 83 2a 00
        E 0 93 2a 08
        E 144 83 2a 00
        E 480 93 2a 08
        E 16 83 2a 00
        E 0 93 2a 08
        E 144 83 2a 00
        E 480 93 2a 08
        E 16 83 2a 00
        E 0 93 2a 08
        E 144 83 2a 00
        E 480 93 2a 08
        E 16 83 2a 00
        E 0 93 2a 08
        E 144 83 2a 00
        E 480 93 2a 08
        E 16 83 2a 00
        E 0 93 2a 08
        E 144 83 2a 00
        E 480 93 2a 08
        E 16 83 2a 00
        E 0 93 2a 08
        E 144 83 2a 00
        E 320 93 2a 08
        E 16 83 2a 00
        E 0 93 2a 08
        E 144 83 2a 00
        E 0 93 2a 08
        E 16 83 2a 00
        E 0 93 2a 08
        E 144 83 2a 00
        E 0 93 2a 08
        E 16 83 2a 00
        E 0 93 2a 08
        E 144 83 2a 00
        E 0 93 2a 08
        E 16 83 2a 00
        E 0 93 2a 08
        E 144 83 2a 00
        E 160 93 2a 08
        E 16 83 2a 00
        E 0 93 2a 08
        E 16 83 2a 00
        E 0 93 2a 08
        E 288 83 2a 00
        E 2080 93 2a 08
        E 16 83 2a 00
        E 0 93 2a 08
        E 144 83 2a 00
        E 2400 93 2a 08
        E 16 83 2a 00
        E 0 93 2a 08
        E 144 83 2a 00
        E 2400 93 2a 08
        E 16 83 2a 00
        E 0 93 2a 08
        E 144 83 2a 00
        E 2400 93 2a 08
        E 16 83 2a 00
        E 0 93 2a 08
        E 144 83 2a 00
        E 0 93 2a 08
        E 16 83 2a 00
        E 0 93 2a 08
        E 144 83 2a 00
        E 0 93 2a 08
        E 16 83 2a 00
        E 0 93 2a 08
        E 160 83 2a 00
        E 0 93 2a 08
        E 144 83 2a 00
        E 0 93 2a 08
        E 16 83 2a 00
        E 0 93 2a 08
        E 144 83 2a 00
        E 0 93 2a 08
        E 16 83 2a 00
        E 0 93 2a 08
        E 144 83 2a 00
        E 480 93 2a 08
        E 16 83 2a 00
        E 0 93 2a 08
        E 144 83 2a 00
        E 480 93 2a 08
        E 16 83 2a 00
        E 0 93 2a 08
        E 144 83 2a 00
        E 480 93 2a 08
        E 16 83 2a 00
        E 0 93 2a 08
        E 144 83 2a 00
        E 480 93 2a 08
        E 16 83 2a 00
        E 0 93 2a 08
        E 144 83 2a 00
        E 480 93 2a 08
        E 16 83 2a 00
        E 0 93 2a 08
        E 144 83 2a 00
        E 1760 93 2a 08
        E 16 83 2a 00
        E 0 93 2a 08
        E 144 83 2a 00
        E 480 93 2a 08
        E 16 83 2a 00
        E 0 93 2a 08
        E 144 83 2a 00
        E 480 93 2a 08
        E 16 83 2a 00
        E 0 93 2a 08
        E 144 83 2a 00
        E 480 93 2a 08
        E 16 83 2a 00
        E 0 93 2a 08
        E 144 83 2a 00
        E 480 93 2a 08
        E 16 83 2a 00
        E 0 93 2a 08
        E 144 83 2a 00
        E 480 93 2a 08
        E 16 83 2a 00
        E 0 93 2a 08
        E 144 83 2a 00
        E 1760 93 2a 08
        E 16 83 2a 00
        E 0 93 2a 08
        E 144 83 2a 00
        E 480 93 2a 08
        E 16 83 2a 00
        E 0 93 2a 08
        E 144 83 2a 00
        E 480 93 2a 08
        E 16 83 2a 00
        E 0 93 2a 08
        E 144 83 2a 00
        E 480 93 2a 08
        E 16 83 2a 00
        E 0 93 2a 08
        E 144 83 2a 00
        E 480 93 2a 08
        E 16 83 2a 00
        E 0 93 2a 08
        E 144 83 2a 00
        E 480 93 2a 08
        E 16 83 2a 00
        E 0 93 2a 08
        E 144 83 2a 00
        E 1760 93 2a 08
        E 16 83 2a 00
        E 0 93 2a 08
        E 144 83 2a 00
        E 480 93 2a 08
        E 16 83 2a 00
        E 0 93 2a 08
        E 144 83 2a 00
        E 480 93 2a 08
        E 16 83 2a 00
        E 0 93 2a 08
        E 144 83 2a 00
        E 480 93 2a 08
        E 16 83 2a 00
        E 0 93 2a 08
        E 144 83 2a 00
        E 480 93 2a 08
        E 16 83 2a 00
        E 0 93 2a 08
        E 144 83 2a 00
        E 480 93 2a 08
        E 16 83 2a 00
        E 0 93 2a 08
        E 144 83 2a 00
        E 1760 93 2a 08
        E 16 83 2a 00
        E 0 93 2a 08
        E 144 83 2a 00
        E 480 93 2a 08
        E 16 83 2a 00
        E 0 93 2a 08
        E 144 83 2a 00
        E 1760 93 2a 08
        E 16 83 2a 00
        E 0 93 2a 08
        E 144 83 2a 00
        E 480 93 2a 08
        E 16 83 2a 00
        E 0 93 2a 08
        E 144 83 2a 00
        E 480 93 2a 08
        E 16 83 2a 00
        E 0 93 2a 08
        E 144 83 2a 00
        E 480 93 2a 08
        E 16 83 2a 00
        E 0 93 2a 08
        E 144 83 2a 00
        E 464 b3 7b 00
        E 0 ff 2f 00
      >
    >
  >
>