<REAPER_PROJECT 0.1 "7.27/win64" 1707000000
  <NOTES 0 2
    |ReapNES Studio Project
    |MIDI Import - Dr_Mario_title_rom_v1
  >
  RIPPLE 0
  GROUPOVERRIDE 0 0 0
  AUTOXFADE 129
  ENVATTACH 3
  POOLEDENVATTACH 0
  MIXERUIFLAGS 11 48
  ENVFADESZ10 40
  PEAKGAIN 1
  FEEDBACK 0
  PANLAW 1
  PROJOFFS 0 0 0
  MAXPROJLEN 0 0
  GRID 3199 8 1 8 1 0 0 0
  TIMEMODE 1 5 -1 30 0 0 -1
  VIDEO_CONFIG 0 0 65792
  PANMODE 3
  PANLAWFLAGS 3
  CURSOR 0
  ZOOM 100 0 0
  VZOOMEX 6 0
  USE_REC_CFG 0
  RECMODE 1
  SMPTESYNC 0 30 100 40 1000 300 0 0 1 0 0
  LOOP 0
  LOOPGRAN 0 4
  RECORD_PATH "Media" ""
  <RECORD_CFG
    ZXZhdxgAAQ==
  >
  <APPLYFX_CFG
  >
  RENDER_FILE ""
  RENDER_PATTERN ""
  RENDER_FMT 0 2 0
  RENDER_1X 0
  RENDER_RANGE 1 0 0 18 1000
  RENDER_RESAMPLE 3 0 1
  RENDER_ADDTOPROJ 0
  RENDER_STEMS 0
  RENDER_DITHER 0
  TIMELOCKMODE 1
  TEMPOENVLOCKMODE 1
  ITEMMIX 1
  DEFPITCHMODE 589824 0
  TAKELANE 1
  SAMPLERATE 44100 0 0
  <RENDER_CFG
    ZXZhdxgAAQ==
  >
  LOCK 1
  <METRONOME 6 2
    VOL 0.25 0.125
    BEATLEN 4
    FREQ 1760 880 1
    SAMPLES "" ""
    SPLIGNORE 0 0
    SPLDEF 2 660 "" 0
    SPLDEF 3 440 "" 0
    PATTERN 0 169
    PATTERNSTR ABBB
    MULT 1
  >
  GLOBAL_AUTO -1
  TEMPO 128.59999614200012 4 4
  PLAYRATE 1 0 0.25 4
  SELECTION 0 0
  SELECTION2 0 0
  MASTERAUTOMODE 0
  MASTERTRACKHEIGHT 0 0
  MASTERPEAKCOL 16576
  MASTERMUTESOLO 0
  MASTERTRACKVIEW 0 0.6667 0.5 0.5 0 0 0 0 0 0 0 0 0 0
  MASTERHWOUT 0 0 1 0 0 0 0 -1
  MASTER_NCH 2 2
  MASTER_VOLUME 1 0 -1 -1 1
  MASTER_PANMODE 3
  MASTER_PANLAWFLAGS 3
  MASTER_FX 1
  MASTER_SEL 0
  <MASTERPLAYSPEEDENV
    EGUID {8004E7B9-797E-48E5-BE5A-5E0A386131FF}
    ACT 0 -1
    VIS 0 1 1
    LANEHEIGHT 0 0
    ARM 0
    DEFSHAPE 0 -1 -1
  >
  <TEMPOENVEX
    EGUID {2C091393-F276-4D9E-A345-BF52FFEE2659}
    ACT 1 -1
    VIS 1 0 1
    LANEHEIGHT 0 0
    ARM 0
    DEFSHAPE 1 -1 -1
  >
  <PROJBAY
  >
  <TRACK {8A9BB8F0-7D73-4C5C-B5E8-52C4A41E6737}
    NAME "NES - Pulse 1 [ch0]"
    PEAKCOL 16576606
    BEAT -1
    AUTOMODE 0
    PANLAWFLAGS 3
    VOLPAN 1 0 -1 -1 1
    MUTESOLO 0 0 0
    IPHASE 0
    PLAYOFFS 0 1
    ISBUS 0 0
    BUSCOMP 0 0 0 0 0
    SHOWINMIX 1 0.6667 0.5 1 0.5 0 0 0
    FIXEDLANES 9 0 0 0 0
    SEL 1
    REC 1 5088 1 0 0 0 0 0
    VU 2
    TRACKHEIGHT 0 0 0 0 0 0 0
    INQ 0 0 0 0.5 100 0 0 100
    NCHAN 2
    FX 1
    TRACKID {8A9BB8F0-7D73-4C5C-B5E8-52C4A41E6737}
    PERF 0
    MIDIOUT -1
    MAINSEND 1 0
    <FXCHAIN
      WNDRECT 24 52 700 560
      SHOW 0
      LASTSEL 0
      DOCKED 0
      BYPASS 0 0 0
      <JS "ReapNES Studio/ReapNES_Console.jsfx" ""
        2 15 1 10 80 10 100 2 1 15 1 5 60 10 80 1 1 0 50 0 0 15 1 0 100 0 0 0.500000 0.500000 0.400000 0.300000 0.800000 0 1 0 0 0 0 - - - - - - - - - - - - - - - - - - - - - - - - - -
      >
      FLOATPOS 0 0 0 0
      FXID {929883CD-3E21-4BFF-BC1D-7F2B84EC2DC7}
      WAK 0 0
    >
    <ITEM
      POSITION 0
      LENGTH 73.8413708
      LOOP 0
      ALLTAKES 0
      FADEIN 0 0 0 0 0 0 0
      FADEOUT 0 0 0 0 0 0 0
      MUTE 0 0
      SEL 0
      IGUID {DA8632EE-85A1-45DC-BD78-446D55A95ABE}
      <SOURCE MIDI
        HASDATA 1 480 QN
        CCINTERP 32
        E 0 c0 50
        E 32 b0 0c 10
        E 0 b0 0b 11
        E 0 90 4a 11
        E 16 b0 0b 19
        E 48 b0 0b 22
        E 16 80 4a 00
        E 80 b0 0c 60
        E 0 b0 0b 11
        E 0 90 31 11
        E 16 b0 0b 19
        E 16 b0 0b 11
        E 48 80 31 00
        E 16 90 31 11
        E 16 b0 0b 19
        E 16 b0 0b 11
        E 48 80 31 00
        E 16 90 31 11
        E 16 b0 0b 19
        E 16 b0 0b 11
        E 48 80 31 00
        E 16 90 31 11
        E 16 b0 0b 19
        E 16 b0 0b 11
        E 48 80 31 00
        E 112 b0 0c 40
        E 0 b0 0b 3b
        E 0 90 3d 3b
        E 16 b0 0b 33
        E 16 b0 0b 2a
        E 16 b0 0b 22
        E 16 b0 0b 19
        E 16 b0 0b 11
        E 32 b0 0b 08
        E 16 80 3d 00
        E 1408 b0 0b 3b
        E 0 90 3b 3b
        E 16 b0 0b 33
        E 16 b0 0b 2a
        E 16 b0 0b 22
        E 16 b0 0b 19
        E 16 b0 0b 11
        E 32 80 3b 00
        E 272 b0 0b 3b
        E 0 90 3b 3b
        E 16 b0 0b 33
        E 16 b0 0b 2a
        E 16 b0 0b 22
        E 16 b0 0b 19
        E 16 b0 0b 11
        E 32 80 3b 00
        E 16 b0 0b 3b
        E 0 90 3f 3b
        E 16 b0 0b 33
        E 16 b0 0b 2a
        E 16 b0 0b 22
        E 16 b0 0b 19
        E 16 b0 0b 11
        E 32 80 3f 00
        E 16 b0 0b 3b
        E 0 90 42 3b
        E 16 b0 0b 33
        E 16 b0 0b 2a
        E 16 b0 0b 22
        E 16 b0 0b 19
        E 16 b0 0b 11
        E 32 80 42 00
        E 16 b0 0b 3b
        E 0 90 41 3b
        E 16 b0 0b 33
        E 16 b0 0b 2a
        E 16 b0 0b 22
        E 16 b0 0b 19
        E 16 b0 0b 11
        E 32 b0 0b 08
        E 16 80 41 00
        E 256 b0 0b 3b
        E 0 90 44 3b
        E 16 b0 0b 33
        E 16 b0 0b 2a
        E 16 b0 0b 22
        E 16 b0 0b 19
        E 16 b0 0b 11
        E 32 b0 0b 08
        E 16 80 44 00
        E 272 b0 0b 3b
        E 0 90 31 3b
        E 32 b0 0b 22
        E 16 b0 0b 08
        E 48 80 31 00
        E 288 b0 0b 3b
        E 0 90 31 3b
        E 32 b0 0b 22
        E 16 b0 0b 08
        E 48 80 31 00
        E 160 b0 0b 3b
        E 0 90 25 3b
        E 32 b0 0b 22
        E 16 b0 0b 08
        E 48 80 25 00
        E 32 b0 0b 3b
        E 0 90 31 3b
        E 32 b0 0b 22
        E 16 b0 0b 08
        E 48 80 31 00
        E 160 b0 0b 3b
        E 0 90 25 3b
        E 32 b0 0b 22
        E 16 b0 0b 08
        E 48 80 25 00
        E 32 b0 0b 3b
        E 0 90 31 3b
        E 32 b0 0b 22
        E 16 b0 0b 08
        E 48 80 31 00
        E 160 b0 0b 3b
        E 0 90 25 3b
        E 32 b0 0b 22
        E 16 b0 0b 08
        E 48 80 25 00
        E 32 b0 0b 3b
        E 0 90 39 3b
        E 32 b0 0b 22
        E 16 b0 0b 08
        E 192 80 39 00
        E 144 b0 0b 3b
        E 0 90 3b 3b
        E 32 b0 0b 22
        E 16 b0 0b 08
        E 192 80 3b 00
        E 144 b0 0b 3b
        E 0 90 38 3b
        E 32 b0 0b 22
        E 16 b0 0b 08
        E 192 80 38 00
        E 128 b0 0b 77
        E 0 90 29 77
        E 16 b0 0b 5d
        E 16 b0 0b 4c
        E 16 b0 0b 3b
        E 16 b0 0b 2a
        E 16 b0 0b 19
        E 16 b0 0b 11
        E 16 b0 0b 08
        E 16 80 29 00
        E 256 b0 0b 3b
        E 0 90 3d 3b
        E 16 b0 0b 33
        E 16 b0 0b 2a
        E 16 b0 0b 22
        E 16 b0 0b 19
        E 16 b0 0b 11
        E 32 b0 0b 08
        E 16 80 3d 00
        E 1408 b0 0b 3b
        E 0 90 3b 3b
        E 16 b0 0b 33
        E 16 b0 0b 2a
        E 16 b0 0b 22
        E 16 b0 0b 19
        E 16 b0 0b 11
        E 32 80 3b 00
        E 272 b0 0b 3b
        E 0 90 3b 3b
        E 16 b0 0b 33
        E 16 b0 0b 2a
        E 16 b0 0b 22
        E 16 b0 0b 19
        E 16 b0 0b 11
        E 32 80 3b 00
        E 16 b0 0b 3b
        E 0 90 3f 3b
        E 16 b0 0b 33
        E 16 b0 0b 2a
        E 16 b0 0b 22
        E 16 b0 0b 19
        E 16 b0 0b 11
        E 32 80 3f 00
        E 16 b0 0b 3b
        E 0 90 42 3b
        E 16 b0 0b 33
        E 16 b0 0b 2a
        E 16 b0 0b 22
        E 16 b0 0b 19
        E 16 b0 0b 11
        E 32 80 42 00
        E 16 b0 0b 3b
        E 0 90 41 3b
        E 16 b0 0b 33
        E 16 b0 0b 2a
        E 16 b0 0b 22
        E 16 b0 0b 19
        E 16 b0 0b 11
        E 32 b0 0b 08
        E 16 80 41 00
        E 256 b0 0b 3b
        E 0 90 44 3b
        E 16 b0 0b 33
        E 16 b0 0b 2a
        E 16 b0 0b 22
        E 16 b0 0b 19
        E 16 b0 0b 11
        E 32 b0 0b 08
        E 16 80 44 00
        E 272 b0 0b 3b
        E 0 90 31 3b
        E 32 b0 0b 22
        E 16 b0 0b 08
        E 48 80 31 00
        E 288 b0 0b 3b
        E 0 90 31 3b
        E 32 b0 0b 22
        E 16 b0 0b 08
        E 48 80 31 00
        E 160 b0 0b 3b
        E 0 90 25 3b
        E 32 b0 0b 22
        E 16 b0 0b 08
        E 48 80 25 00
        E 32 b0 0b 3b
        E 0 90 31 3b
        E 32 b0 0b 22
        E 16 b0 0b 08
        E 48 80 31 00
        E 160 b0 0b 3b
        E 0 90 25 3b
        E 32 b0 0b 22
        E 16 b0 0b 08
        E 48 80 25 00
        E 32 b0 0b 3b
        E 0 90 31 3b
        E 32 b0 0b 22
        E 16 b0 0b 08
        E 48 80 31 00
        E 160 b0 0b 3b
        E 0 90 25 3b
        E 32 b0 0b 22
        E 16 b0 0b 08
        E 48 80 25 00
        E 32 b0 0b 3b
        E 0 90 39 3b
        E 32 b0 0b 22
        E 16 b0 0b 08
        E 192 80 39 00
        E 144 b0 0b 3b
        E 0 90 3b 3b
        E 32 b0 0b 22
        E 16 b0 0b 08
        E 192 80 3b 00
        E 144 b0 0b 3b
        E 0 90 38 3b
        E 32 b0 0b 22
        E 16 b0 0b 08
        E 192 80 38 00
        E 128 b0 0b 77
        E 0 90 29 77
        E 16 b0 0b 5d
        E 16 b0 0b 4c
        E 16 b0 0b 3b
        E 16 b0 0b 2a
        E 16 b0 0b 19
        E 16 b0 0b 11
        E 16 b0 0b 08
        E 16 80 29 00
        E 256 b0 0b 3b
        E 0 90 42 3b
        E 16 b0 0b 33
        E 16 b0 0b 2a
        E 16 b0 0b 22
        E 16 b0 0b 19
        E 16 b0 0b 11
        E 32 b0 0b 08
        E 16 80 42 00
        E 1408 b0 0b 3b
        E 0 90 46 3b
        E 16 b0 0b 33
        E 16 b0 0b 2a
        E 16 b0 0b 22
        E 16 b0 0b 19
        E 16 b0 0b 11
        E 32 b0 0b 08
        E 16 80 46 00
        E 1408 b0 0b 3b
        E 0 90 42 3b
        E 16 b0 0b 33
        E 16 b0 0b 2a
        E 16 b0 0b 22
        E 16 b0 0b 19
        E 16 b0 0b 11
        E 32 b0 0b 08
        E 16 80 42 00
        E 2560 b0 0b 77
        E 0 90 23 77
        E 16 b0 0b 5d
        E 16 b0 0b 4c
        E 16 b0 0b 3b
        E 16 b0 0b 2a
        E 16 b0 0b 19
        E 16 b0 0b 11
        E 16 b0 0b 08
        E 16 80 23 00
        E 256 b0 0b 3b
        E 0 90 3d 3b
        E 16 b0 0b 33
        E 16 b0 0b 2a
        E 16 b0 0b 22
        E 16 b0 0b 19
        E 16 b0 0b 11
        E 32 b0 0b 08
        E 16 80 3d 00
        E 1408 b0 0b 3b
        E 0 90 3b 3b
        E 16 b0 0b 33
        E 16 b0 0b 2a
        E 16 b0 0b 22
        E 16 b0 0b 19
        E 16 b0 0b 11
        E 32 80 3b 00
        E 272 b0 0b 3b
        E 0 90 3b 3b
        E 16 b0 0b 33
        E 16 b0 0b 2a
        E 16 b0 0b 22
        E 16 b0 0b 19
        E 16 b0 0b 11
        E 32 80 3b 00
        E 16 b0 0b 3b
        E 0 90 3f 3b
        E 16 b0 0b 33
        E 16 b0 0b 2a
        E 16 b0 0b 22
        E 16 b0 0b 19
        E 16 b0 0b 11
        E 32 80 3f 00
        E 16 b0 0b 3b
        E 0 90 42 3b
        E 16 b0 0b 33
        E 16 b0 0b 2a
        E 16 b0 0b 22
        E 16 b0 0b 19
        E 16 b0 0b 11
        E 32 80 42 00
        E 16 b0 0b 3b
        E 0 90 41 3b
        E 16 b0 0b 33
        E 16 b0 0b 2a
        E 16 b0 0b 22
        E 16 b0 0b 19
        E 16 b0 0b 11
        E 32 b0 0b 08
        E 16 80 41 00
        E 256 b0 0b 3b
        E 0 90 44 3b
        E 16 b0 0b 33
        E 16 b0 0b 2a
        E 16 b0 0b 22
        E 16 b0 0b 19
        E 16 b0 0b 11
        E 32 b0 0b 08
        E 16 80 44 00
        E 272 b0 0b 3b
        E 0 90 31 3b
        E 32 b0 0b 22
        E 16 b0 0b 08
        E 48 80 31 00
        E 288 b0 0b 3b
        E 0 90 31 3b
        E 32 b0 0b 22
        E 16 b0 0b 08
        E 48 80 31 00
        E 160 b0 0b 3b
        E 0 90 25 3b
        E 32 b0 0b 22
        E 16 b0 0b 08
        E 48 80 25 00
        E 32 b0 0b 3b
        E 0 90 31 3b
        E 32 b0 0b 22
        E 16 b0 0b 08
        E 48 80 31 00
        E 160 b0 0b 3b
        E 0 90 25 3b
        E 32 b0 0b 22
        E 16 b0 0b 08
        E 48 80 25 00
        E 32 b0 0b 3b
        E 0 90 31 3b
        E 32 b0 0b 22
        E 16 b0 0b 08
        E 48 80 31 00
        E 160 b0 0b 3b
        E 0 90 25 3b
        E 32 b0 0b 22
        E 16 b0 0b 08
        E 48 80 25 00
        E 32 b0 0b 3b
        E 0 90 39 3b
        E 32 b0 0b 22
        E 16 b0 0b 08
        E 192 80 39 00
        E 144 b0 0b 3b
        E 0 90 3b 3b
        E 32 b0 0b 22
        E 16 b0 0b 08
        E 192 80 3b 00
        E 144 b0 0b 3b
        E 0 90 38 3b
        E 32 b0 0b 22
        E 16 b0 0b 08
        E 192 80 38 00
        E 128 b0 0b 77
        E 0 90 29 77
        E 16 b0 0b 5d
        E 16 b0 0b 4c
        E 16 b0 0b 3b
        E 16 b0 0b 2a
        E 16 b0 0b 19
        E 16 b0 0b 11
        E 16 b0 0b 08
        E 16 80 29 00
        E 256 b0 0b 3b
        E 0 90 3d 3b
        E 16 b0 0b 33
        E 16 b0 0b 2a
        E 16 b0 0b 22
        E 16 b0 0b 19
        E 16 b0 0b 11
        E 32 b0 0b 08
        E 16 80 3d 00
        E 1408 b0 0b 3b
        E 0 90 3b 3b
        E 16 b0 0b 33
        E 16 b0 0b 2a
        E 16 b0 0b 22
        E 16 b0 0b 19
        E 16 b0 0b 11
        E 32 80 3b 00
        E 272 b0 0b 3b
        E 0 90 3b 3b
        E 16 b0 0b 33
        E 16 b0 0b 2a
        E 16 b0 0b 22
        E 16 b0 0b 19
        E 16 b0 0b 11
        E 32 80 3b 00
        E 16 b0 0b 3b
        E 0 90 3f 3b
        E 16 b0 0b 33
        E 16 b0 0b 2a
        E 16 b0 0b 22
        E 16 b0 0b 19
        E 16 b0 0b 11
        E 32 80 3f 00
        E 16 b0 0b 3b
        E 0 90 42 3b
        E 16 b0 0b 33
        E 16 b0 0b 2a
        E 16 b0 0b 22
        E 16 b0 0b 19
        E 16 b0 0b 11
        E 32 80 42 00
        E 16 b0 0b 3b
        E 0 90 41 3b
        E 16 b0 0b 33
        E 16 b0 0b 2a
        E 16 b0 0b 22
        E 16 b0 0b 19
        E 16 b0 0b 11
        E 32 b0 0b 08
        E 16 80 41 00
        E 256 b0 0b 3b
        E 0 90 44 3b
        E 16 b0 0b 33
        E 16 b0 0b 2a
        E 16 b0 0b 22
        E 16 b0 0b 19
        E 16 b0 0b 11
        E 32 b0 0b 08
        E 16 80 44 00
        E 272 b0 0b 3b
        E 0 90 31 3b
        E 32 b0 0b 22
        E 16 b0 0b 08
        E 48 80 31 00
        E 288 b0 0b 3b
        E 0 90 31 3b
        E 32 b0 0b 22
        E 16 b0 0b 08
        E 48 80 31 00
        E 160 b0 0b 3b
        E 0 90 25 3b
        E 32 b0 0b 22
        E 16 b0 0b 08
        E 48 80 25 00
        E 32 b0 0b 3b
        E 0 90 31 3b
        E 32 b0 0b 22
        E 16 b0 0b 08
        E 48 80 31 00
        E 160 b0 0b 3b
        E 0 90 25 3b
        E 32 b0 0b 22
        E 16 b0 0b 08
        E 48 80 25 00
        E 32 b0 0b 3b
        E 0 90 31 3b
        E 32 b0 0b 22
        E 16 b0 0b 08
        E 48 80 31 00
        E 160 b0 0b 3b
        E 0 90 25 3b
        E 32 b0 0b 22
        E 16 b0 0b 08
        E 48 80 25 00
        E 32 b0 0b 3b
        E 0 90 39 3b
        E 32 b0 0b 22
        E 16 b0 0b 08
        E 192 80 39 00
        E 144 b0 0b 3b
        E 0 90 3b 3b
        E 32 b0 0b 22
        E 16 b0 0b 08
        E 192 80 3b 00
        E 144 b0 0b 3b
        E 0 90 38 3b
        E 32 b0 0b 22
        E 16 b0 0b 08
        E 192 80 38 00
        E 128 b0 0b 77
        E 0 90 29 77
        E 16 b0 0b 5d
        E 16 b0 0b 4c
        E 16 b0 0b 3b
        E 16 b0 0b 2a
        E 16 b0 0b 19
        E 16 b0 0b 11
        E 16 b0 0b 08
        E 16 80 29 00
        E 256 b0 0b 3b
        E 0 90 42 3b
        E 16 b0 0b 33
        E 16 b0 0b 2a
        E 16 b0 0b 22
        E 16 b0 0b 19
        E 16 b0 0b 11
        E 32 b0 0b 08
        E 16 80 42 00
        E 1408 b0 0b 3b
        E 0 90 46 3b
        E 16 b0 0b 33
        E 16 b0 0b 2a
        E 16 b0 0b 22
        E 16 b0 0b 19
        E 16 b0 0b 11
        E 32 b0 0b 08
        E 16 80 46 00
        E 1408 b0 0b 3b
        E 0 90 42 3b
        E 16 b0 0b 33
        E 16 b0 0b 2a
        E 16 b0 0b 22
        E 16 b0 0b 19
        E 16 b0 0b 11
        E 32 b0 0b 08
        E 16 80 42 00
        E 2560 b0 0b 77
        E 0 90 23 77
        E 16 b0 0b 5d
        E 16 b0 0b 4c
        E 16 b0 0b 3b
        E 16 b0 0b 2a
        E 16 b0 0b 19
        E 16 b0 0b 11
        E 16 b0 0b 08
        E 16 80 23 00
        E 256 b0 0b 3b
        E 0 90 3d 3b
        E 16 b0 0b 33
        E 16 b0 0b 2a
        E 16 b0 0b 22
        E 16 b0 0b 19
        E 16 b0 0b 11
        E 32 b0 0b 08
        E 16 80 3d 00
        E 1408 b0 0b 3b
        E 0 90 3b 3b
        E 16 b0 0b 33
        E 16 b0 0b 2a
        E 16 b0 0b 22
        E 16 b0 0b 19
        E 16 b0 0b 11
        E 32 80 3b 00
        E 272 b0 0b 3b
        E 0 90 3b 3b
        E 16 b0 0b 33
        E 16 b0 0b 2a
        E 16 b0 0b 22
        E 16 b0 0b 19
        E 16 b0 0b 11
        E 32 80 3b 00
        E 16 b0 0b 3b
        E 0 90 3f 3b
        E 16 b0 0b 33
        E 16 b0 0b 2a
        E 16 b0 0b 22
        E 16 b0 0b 19
        E 16 b0 0b 11
        E 32 80 3f 00
        E 16 b0 0b 3b
        E 0 90 42 3b
        E 16 b0 0b 33
        E 16 b0 0b 2a
        E 16 b0 0b 22
        E 16 b0 0b 19
        E 16 b0 0b 11
        E 32 80 42 00
        E 16 b0 0b 3b
        E 0 90 41 3b
        E 16 b0 0b 33
        E 16 b0 0b 2a
        E 16 b0 0b 22
        E 16 b0 0b 19
        E 16 b0 0b 11
        E 32 b0 0b 08
        E 16 80 41 00
        E 256 b0 0b 3b
        E 0 90 44 3b
        E 16 b0 0b 33
        E 16 b0 0b 2a
        E 16 b0 0b 22
        E 16 b0 0b 19
        E 16 b0 0b 11
        E 32 b0 0b 08
        E 16 80 44 00
        E 272 b0 0b 3b
        E 0 90 31 3b
        E 32 b0 0b 22
        E 16 b0 0b 08
        E 48 80 31 00
        E 288 b0 0b 3b
        E 0 90 31 3b
        E 32 b0 0b 22
        E 16 b0 0b 08
        E 48 80 31 00
        E 160 b0 0b 3b
        E 0 90 25 3b
        E 32 b0 0b 22
        E 16 b0 0b 08
        E 48 80 25 00
        E 32 b0 0b 3b
        E 0 90 31 3b
        E 32 b0 0b 22
        E 16 b0 0b 08
        E 48 80 31 00
        E 160 b0 0b 3b
        E 0 90 25 3b
        E 32 b0 0b 22
        E 16 b0 0b 08
        E 48 80 25 00
        E 32 b0 0b 3b
        E 0 90 31 3b
        E 32 b0 0b 22
        E 16 b0 0b 08
        E 48 80 31 00
        E 160 b0 0b 3b
        E 0 90 25 3b
        E 32 b0 0b 22
        E 16 b0 0b 08
        E 48 80 25 00
        E 32 b0 0b 3b
        E 0 90 39 3b
        E 32 b0 0b 22
        E 16 b0 0b 08
        E 192 80 39 00
        E 144 b0 0b 3b
        E 0 90 3b 3b
        E 32 b0 0b 22
        E 16 b0 0b 08
        E 192 80 3b 00
        E 144 b0 0b 3b
        E 0 90 38 3b
        E 32 b0 0b 22
        E 16 b0 0b 08
        E 192 80 38 00
        E 128 b0 0b 77
        E 0 90 29 77
        E 16 b0 0b 5d
        E 16 b0 0b 4c
        E 16 b0 0b 3b
        E 16 b0 0b 2a
        E 16 b0 0b 19
        E 16 b0 0b 11
        E 16 b0 0b 08
        E 16 80 29 00
        E 256 b0 0b 3b
        E 0 90 3d 3b
        E 16 b0 0b 33
        E 16 b0 0b 2a
        E 16 b0 0b 22
        E 16 b0 0b 19
        E 16 b0 0b 11
        E 32 b0 0b 08
        E 16 80 3d 00
        E 1408 b0 0b 3b
        E 0 90 3b 3b
        E 16 b0 0b 33
        E 16 b0 0b 2a
        E 16 b0 0b 22
        E 16 b0 0b 19
        E 16 b0 0b 11
        E 32 80 3b 00
        E 272 b0 0b 3b
        E 0 90 3b 3b
        E 16 b0 0b 33
        E 16 b0 0b 2a
        E 16 b0 0b 22
        E 16 b0 0b 19
        E 16 b0 0b 11
        E 32 80 3b 00
        E 16 b0 0b 3b
        E 0 90 3f 3b
        E 16 b0 0b 33
        E 16 b0 0b 2a
        E 16 b0 0b 22
        E 16 b0 0b 19
        E 16 b0 0b 11
        E 32 80 3f 00
        E 16 b0 0b 3b
        E 0 90 42 3b
        E 16 b0 0b 33
        E 16 b0 0b 2a
        E 16 b0 0b 22
        E 16 b0 0b 19
        E 16 b0 0b 11
        E 32 80 42 00
        E 16 b0 0b 3b
        E 0 90 41 3b
        E 16 b0 0b 33
        E 16 b0 0b 2a
        E 16 b0 0b 22
        E 16 b0 0b 19
        E 16 b0 0b 11
        E 32 b0 0b 08
        E 16 80 41 00
        E 256 b0 0b 3b
        E 0 90 44 3b
        E 16 b0 0b 33
        E 16 b0 0b 2a
        E 16 b0 0b 22
        E 16 b0 0b 19
        E 16 b0 0b 11
        E 32 b0 0b 08
        E 16 80 44 00
        E 272 b0 0b 3b
        E 0 90 31 3b
        E 32 b0 0b 22
        E 16 b0 0b 08
        E 48 80 31 00
        E 288 b0 0b 3b
        E 0 90 31 3b
        E 32 b0 0b 22
        E 16 b0 0b 08
        E 48 80 31 00
        E 160 b0 0b 3b
        E 0 90 25 3b
        E 32 b0 0b 22
        E 16 b0 0b 08
        E 48 80 25 00
        E 32 b0 0b 3b
        E 0 90 31 3b
        E 32 b0 0b 22
        E 16 b0 0b 08
        E 48 80 31 00
        E 160 b0 0b 3b
        E 0 90 25 3b
        E 32 b0 0b 22
        E 16 b0 0b 08
        E 48 80 25 00
        E 32 b0 0b 3b
        E 0 90 31 3b
        E 32 b0 0b 22
        E 16 b0 0b 08
        E 48 80 31 00
        E 160 b0 0b 3b
        E 0 90 25 3b
        E 32 b0 0b 22
        E 16 b0 0b 08
        E 48 80 25 00
        E 32 b0 0b 3b
        E 0 90 39 3b
        E 32 b0 0b 22
        E 16 b0 0b 08
        E 192 80 39 00
        E 144 b0 0b 3b
        E 0 90 3b 3b
        E 32 b0 0b 22
        E 16 b0 0b 08
        E 192 80 3b 00
        E 144 b0 0b 3b
        E 0 90 38 3b
        E 32 b0 0b 22
        E 16 b0 0b 08
        E 192 80 38 00
        E 128 b0 0b 77
        E 0 90 29 77
        E 16 b0 0b 5d
        E 16 b0 0b 4c
        E 16 b0 0b 3b
        E 16 b0 0b 2a
        E 16 b0 0b 19
        E 16 b0 0b 11
        E 16 b0 0b 08
        E 16 80 29 00
        E 256 b0 0b 3b
        E 0 90 42 3b
        E 16 b0 0b 33
        E 16 b0 0b 2a
        E 16 b0 0b 22
        E 16 b0 0b 19
        E 16 b0 0b 11
        E 32 b0 0b 08
        E 16 80 42 00
        E 1408 b0 0b 3b
        E 0 90 46 3b
        E 16 b0 0b 33
        E 16 b0 0b 2a
        E 16 b0 0b 22
        E 16 b0 0b 19
        E 16 b0 0b 11
        E 32 b0 0b 08
        E 16 80 46 00
        E 1408 b0 0b 3b
        E 0 90 42 3b
        E 16 b0 0b 33
        E 16 b0 0b 2a
        E 16 b0 0b 22
        E 16 b0 0b 19
        E 16 b0 0b 11
        E 32 b0 0b 08
        E 16 80 42 00
        E 2560 b0 0b 77
        E 0 90 23 77
        E 16 b0 0b 5d
        E 16 b0 0b 4c
        E 16 b0 0b 3b
        E 16 b0 0b 2a
        E 16 b0 0b 19
        E 16 b0 0b 11
        E 16 b0 0b 08
        E 16 80 23 00
        E 256 b0 0b 3b
        E 0 90 3d 3b
        E 16 b0 0b 33
        E 16 b0 0b 2a
        E 16 b0 0b 22
        E 16 b0 0b 19
        E 16 b0 0b 11
        E 32 b0 0b 08
        E 16 80 3d 00
        E 1408 b0 0b 3b
        E 0 90 3b 3b
        E 16 b0 0b 33
        E 16 b0 0b 2a
        E 16 b0 0b 22
        E 16 b0 0b 19
        E 16 b0 0b 11
        E 32 80 3b 00
        E 272 b0 0b 3b
        E 0 90 3b 3b
        E 16 b0 0b 33
        E 16 b0 0b 2a
        E 16 b0 0b 22
        E 16 b0 0b 19
        E 16 b0 0b 11
        E 32 80 3b 00
        E 16 b0 0b 3b
        E 0 90 3f 3b
        E 16 b0 0b 33
        E 16 b0 0b 2a
        E 16 b0 0b 22
        E 16 b0 0b 19
        E 16 b0 0b 11
        E 32 80 3f 00
        E 16 b0 0b 3b
        E 0 90 42 3b
        E 16 b0 0b 33
        E 16 b0 0b 2a
        E 16 b0 0b 22
        E 16 b0 0b 19
        E 16 b0 0b 11
        E 32 80 42 00
        E 16 b0 0b 3b
        E 0 90 41 3b
        E 16 b0 0b 33
        E 16 b0 0b 2a
        E 16 b0 0b 22
        E 16 b0 0b 19
        E 16 b0 0b 11
        E 32 b0 0b 08
        E 16 80 41 00
        E 256 b0 0b 3b
        E 0 90 44 3b
        E 16 b0 0b 33
        E 16 b0 0b 2a
        E 16 b0 0b 22
        E 16 b0 0b 19
        E 16 b0 0b 11
        E 32 b0 0b 08
        E 16 80 44 00
        E 272 b0 0b 3b
        E 0 90 31 3b
        E 32 b0 0b 22
        E 16 b0 0b 08
        E 48 80 31 00
        E 288 b0 0b 3b
        E 0 90 31 3b
        E 32 b0 0b 22
        E 16 b0 0b 08
        E 48 80 31 00
        E 160 b0 0b 3b
        E 0 90 25 3b
        E 32 b0 0b 22
        E 16 b0 0b 08
        E 48 80 25 00
        E 32 b0 0b 3b
        E 0 90 31 3b
        E 32 b0 0b 22
        E 16 b0 0b 08
        E 48 80 31 00
        E 160 b0 0b 3b
        E 0 90 25 3b
        E 32 b0 0b 22
        E 16 b0 0b 08
        E 48 80 25 00
        E 32 b0 0b 3b
        E 0 90 31 3b
        E 32 b0 0b 22
        E 16 b0 0b 08
        E 48 80 31 00
        E 160 b0 0b 3b
        E 0 90 25 3b
        E 32 b0 0b 22
        E 16 b0 0b 08
        E 48 80 25 00
        E 32 b0 0b 3b
        E 0 90 39 3b
        E 32 b0 0b 22
        E 16 b0 0b 08
        E 192 80 39 00
        E 144 b0 0b 3b
        E 0 90 3b 3b
        E 32 b0 0b 22
        E 16 b0 0b 08
        E 192 80 3b 00
        E 144 b0 0b 3b
        E 0 90 38 3b
        E 32 b0 0b 22
        E 16 b0 0b 08
        E 192 80 38 00
        E 128 b0 0b 77
        E 0 90 29 77
        E 16 b0 0b 5d
        E 16 b0 0b 4c
        E 16 b0 0b 3b
        E 16 b0 0b 2a
        E 16 b0 0b 19
        E 16 b0 0b 11
        E 16 b0 0b 08
        E 16 80 29 00
        E 256 b0 0b 3b
        E 0 90 3d 3b
        E 16 b0 0b 33
        E 16 b0 0b 2a
        E 16 b0 0b 22
        E 16 b0 0b 19
        E 16 b0 0b 11
        E 32 b0 0b 08
        E 16 80 3d 00
        E 1408 b0 0b 3b
        E 0 90 3b 3b
        E 16 b0 0b 33
        E 16 b0 0b 2a
        E 16 b0 0b 22
        E 16 b0 0b 19
        E 16 b0 0b 11
        E 32 80 3b 00
        E 272 b0 0b 3b
        E 0 90 3b 3b
        E 16 b0 0b 33
        E 16 b0 0b 2a
        E 16 b0 0b 22
        E 16 b0 0b 19
        E 16 b0 0b 11
        E 32 80 3b 00
        E 16 b0 0b 3b
        E 0 90 3f 3b
        E 16 b0 0b 33
        E 16 b0 0b 2a
        E 16 b0 0b 22
        E 16 b0 0b 19
        E 16 b0 0b 11
        E 32 80 3f 00
        E 16 b0 0b 3b
        E 0 90 42 3b
        E 16 b0 0b 33
        E 16 b0 0b 2a
        E 16 b0 0b 22
        E 16 b0 0b 19
        E 16 b0 0b 11
        E 32 80 42 00
        E 16 b0 0b 3b
        E 0 90 41 3b
        E 16 b0 0b 33
        E 16 b0 0b 2a
        E 16 b0 0b 22
        E 16 b0 0b 19
        E 16 b0 0b 11
        E 32 b0 0b 08
        E 16 80 41 00
        E 256 b0 0b 3b
        E 0 90 44 3b
        E 16 b0 0b 33
        E 16 b0 0b 2a
        E 16 b0 0b 22
        E 16 b0 0b 19
        E 16 b0 0b 11
        E 32 b0 0b 08
        E 16 80 44 00
        E 272 b0 0b 3b
        E 0 90 31 3b
        E 32 b0 0b 22
        E 16 b0 0b 08
        E 48 80 31 00
        E 288 b0 0b 3b
        E 0 90 31 3b
        E 32 b0 0b 22
        E 16 b0 0b 08
        E 48 80 31 00
        E 160 b0 0b 3b
        E 0 90 25 3b
        E 32 b0 0b 22
        E 16 b0 0b 08
        E 48 80 25 00
        E 32 b0 0b 3b
        E 0 90 31 3b
        E 32 b0 0b 22
        E 16 b0 0b 08
        E 48 80 31 00
        E 160 b0 0b 3b
        E 0 90 25 3b
        E 32 b0 0b 22
        E 16 b0 0b 08
        E 48 80 25 00
        E 32 b0 0b 3b
        E 0 90 31 3b
        E 32 b0 0b 22
        E 16 b0 0b 08
        E 48 80 31 00
        E 160 b0 0b 3b
        E 0 90 25 3b
        E 32 b0 0b 22
        E 16 b0 0b 08
        E 48 80 25 00
        E 32 b0 0b 3b
        E 0 90 39 3b
        E 32 b0 0b 22
        E 16 b0 0b 08
        E 192 80 39 00
        E 144 b0 0b 3b
        E 0 90 3b 3b
        E 32 b0 0b 22
        E 16 b0 0b 08
        E 192 80 3b 00
        E 144 b0 0b 3b
        E 0 90 38 3b
        E 32 b0 0b 22
        E 16 b0 0b 08
        E 192 80 38 00
        E 128 b0 0b 77
        E 0 90 29 77
        E 16 b0 0b 5d
        E 16 b0 0b 4c
        E 16 b0 0b 3b
        E 16 b0 0b 2a
        E 16 b0 0b 19
        E 16 b0 0b 11
        E 16 b0 0b 08
        E 16 80 29 00
        E 256 b0 0b 3b
        E 0 90 42 3b
        E 16 b0 0b 33
        E 16 b0 0b 2a
        E 16 b0 0b 22
        E 16 b0 0b 19
        E 16 b0 0b 11
        E 32 b0 0b 08
        E 16 80 42 00
        E 1408 b0 0b 3b
        E 0 90 46 3b
        E 16 b0 0b 33
        E 16 b0 0b 2a
        E 16 b0 0b 22
        E 16 b0 0b 19
        E 16 b0 0b 11
        E 32 b0 0b 08
        E 16 80 46 00
        E 1408 b0 0b 3b
        E 0 90 42 3b
        E 16 b0 0b 33
        E 16 b0 0b 2a
        E 16 b0 0b 22
        E 16 b0 0b 19
        E 16 b0 0b 11
        E 32 b0 0b 08
        E 16 80 42 00
        E 2560 b0 0b 77
        E 0 90 23 77
        E 16 b0 0b 5d
        E 16 b0 0b 4c
        E 16 b0 0b 3b
        E 16 b0 0b 2a
        E 16 b0 0b 19
        E 16 b0 0b 11
        E 16 b0 0b 08
        E 16 80 23 00
        E 256 b0 0b 3b
        E 0 90 3d 3b
        E 16 b0 0b 33
        E 16 b0 0b 2a
        E 16 b0 0b 22
        E 16 b0 0b 19
        E 16 b0 0b 11
        E 32 b0 0b 08
        E 16 80 3d 00
        E 1408 b0 0b 3b
        E 0 90 3b 3b
        E 16 b0 0b 33
        E 16 80 3b 00
        E 0 b0 7b 00
        E 0 ff 2f 00
      >
    >
  >
  <TRACK {9CB7D300-7806-4046-BAE1-E31F147FF697}
    NAME "NES - Pulse 2 [ch1]"
    PEAKCOL 10092441
    BEAT -1
    AUTOMODE 0
    PANLAWFLAGS 3
    VOLPAN 1 0 -1 -1 1
    MUTESOLO 0 0 0
    IPHASE 0
    PLAYOFFS 0 1
    ISBUS 0 0
    BUSCOMP 0 0 0 0 0
    SHOWINMIX 1 0.6667 0.5 1 0.5 0 0 0
    FIXEDLANES 9 0 0 0 0
    SEL 0
    REC 0 5088 1 0 0 0 0 0
    VU 2
    TRACKHEIGHT 0 0 0 0 0 0 0
    INQ 0 0 0 0.5 100 0 0 100
    NCHAN 2
    FX 1
    TRACKID {9CB7D300-7806-4046-BAE1-E31F147FF697}
    PERF 0
    MIDIOUT -1
    MAINSEND 1 0
    <FXCHAIN
      WNDRECT 24 52 700 560
      SHOW 0
      LASTSEL 0
      DOCKED 0
      BYPASS 0 0 0
      <JS "ReapNES Studio/ReapNES_Console.jsfx" ""
        2 15 1 10 80 10 100 2 1 15 1 5 60 10 80 1 1 0 50 0 0 15 1 0 100 0 0 0.500000 0.500000 0.400000 0.300000 0.800000 1 1 0 0 0 0 - - - - - - - - - - - - - - - - - - - - - - - - - -
      >
      FLOATPOS 0 0 0 0
      FXID {B9157AE4-33F4-4272-AD9F-7B3E5AA6358A}
      WAK 0 0
    >
    <ITEM
      POSITION 0
      LENGTH 73.8413708
      LOOP 0
      ALLTAKES 0
      FADEIN 0 0 0 0 0 0 0
      FADEOUT 0 0 0 0 0 0 0
      MUTE 0 0
      SEL 0
      IGUID {7F228E4F-3BD3-466D-B432-334F25E6DA54}
      <SOURCE MIDI
        HASDATA 1 480 QN
        CCINTERP 32
        E 0 c1 51
        E 0 b1 0c 60
        E 0 b1 0b 11
        E 0 91 4a 11
        E 32 b1 0b 19
        E 32 b1 0b 22
        E 16 81 4a 00
        E 112 b1 0b 11
        E 0 91 36 11
        E 16 b1 0b 19
        E 16 b1 0b 11
        E 48 81 36 00
        E 16 91 36 11
        E 16 b1 0b 19
        E 16 b1 0b 11
        E 48 81 36 00
        E 16 91 36 11
        E 16 b1 0b 19
        E 16 b1 0b 11
        E 48 81 36 00
        E 16 91 36 11
        E 16 b1 0b 19
        E 16 b1 0b 11
        E 48 81 36 00
        E 112 b1 0c 40
        E 0 b1 0b 77
        E 0 91 36 77
        E 16 b1 0b 5d
        E 16 b1 0b 4c
        E 16 b1 0b 3b
        E 16 b1 0b 2a
        E 16 b1 0b 19
        E 16 b1 0b 11
        E 16 b1 0b 08
        E 16 81 36 00
        E 1408 b1 0b 77
        E 0 91 33 77
        E 16 b1 0b 5d
        E 16 b1 0b 4c
        E 16 b1 0b 3b
        E 16 b1 0b 2a
        E 16 b1 0b 19
        E 16 b1 0b 11
        E 16 81 33 00
        E 272 b1 0b 77
        E 0 91 33 77
        E 16 b1 0b 5d
        E 16 b1 0b 4c
        E 16 b1 0b 3b
        E 16 b1 0b 2a
        E 16 b1 0b 19
        E 16 b1 0b 11
        E 16 81 33 00
        E 16 b1 0b 77
        E 0 91 36 77
        E 16 b1 0b 5d
        E 16 b1 0b 4c
        E 16 b1 0b 3b
        E 16 b1 0b 2a
        E 16 b1 0b 19
        E 16 b1 0b 11
        E 16 81 36 00
        E 16 b1 0b 77
        E 0 91 3b 77
        E 16 b1 0b 5d
        E 16 b1 0b 4c
        E 16 b1 0b 3b
        E 16 b1 0b 2a
        E 16 b1 0b 19
        E 16 b1 0b 11
        E 16 81 3b 00
        E 16 b1 0b 77
        E 0 91 38 77
        E 16 b1 0b 5d
        E 16 b1 0b 4c
        E 16 b1 0b 3b
        E 16 b1 0b 2a
        E 16 b1 0b 19
        E 16 b1 0b 11
        E 16 b1 0b 08
        E 16 81 38 00
        E 256 b1 0b 77
        E 0 91 3d 77
        E 16 b1 0b 5d
        E 16 b1 0b 4c
        E 16 b1 0b 3b
        E 16 b1 0b 2a
        E 16 b1 0b 19
        E 16 b1 0b 11
        E 16 b1 0b 08
        E 16 81 3d 00
        E 256 b1 0b 3b
        E 0 91 36 3b
        E 32 b1 0b 11
        E 16 b1 0b 08
        E 16 b1 0b 19
        E 32 b1 0b 08
        E 16 81 36 00
        E 272 b1 0b 3b
        E 0 91 19 3b
        E 32 b1 0b 11
        E 16 b1 0b 08
        E 16 b1 0b 19
        E 32 b1 0b 08
        E 16 81 19 00
        E 144 b1 0b 3b
        E 0 91 19 3b
        E 32 b1 0b 11
        E 16 b1 0b 08
        E 16 b1 0b 19
        E 32 b1 0b 08
        E 16 81 19 00
        E 16 b1 0b 3b
        E 0 91 19 3b
        E 32 b1 0b 11
        E 16 b1 0b 08
        E 16 b1 0b 19
        E 32 b1 0b 08
        E 16 81 19 00
        E 144 b1 0b 3b
        E 0 91 19 3b
        E 32 b1 0b 11
        E 16 b1 0b 08
        E 16 b1 0b 19
        E 32 b1 0b 08
        E 16 81 19 00
        E 16 b1 0b 3b
        E 0 91 19 3b
        E 32 b1 0b 11
        E 16 b1 0b 08
        E 16 b1 0b 19
        E 32 b1 0b 08
        E 16 81 19 00
        E 144 b1 0b 3b
        E 0 91 19 3b
        E 32 b1 0b 11
        E 16 b1 0b 08
        E 16 b1 0b 19
        E 32 b1 0b 08
        E 16 81 19 00
        E 16 b1 0b 3b
        E 0 91 33 3b
        E 32 b1 0b 11
        E 16 b1 0b 08
        E 16 b1 0b 19
        E 32 b1 0b 08
        E 96 81 33 00
        E 192 b1 0b 3b
        E 0 91 36 3b
        E 32 b1 0b 11
        E 16 b1 0b 08
        E 16 b1 0b 19
        E 32 b1 0b 08
        E 96 81 36 00
        E 192 b1 0b 3b
        E 0 91 35 3b
        E 32 b1 0b 11
        E 16 b1 0b 08
        E 16 b1 0b 19
        E 32 b1 0b 08
        E 96 81 35 00
        E 192 b1 0b 7f
        E 0 91 1d 7f
        E 16 b1 0b 77
        E 16 b1 0b 55
        E 16 b1 0b 4c
        E 32 b1 0b 44
        E 16 b1 0b 3b
        E 64 b1 0b 33
        E 64 b1 0b 2a
        E 64 b1 0b 22
        E 64 b1 0b 19
        E 16 81 1d 00
        E 16 b1 0b 77
        E 0 91 36 77
        E 16 b1 0b 5d
        E 16 b1 0b 4c
        E 16 b1 0b 3b
        E 16 b1 0b 2a
        E 16 b1 0b 19
        E 16 b1 0b 11
        E 16 b1 0b 08
        E 16 81 36 00
        E 1408 b1 0b 77
        E 0 91 33 77
        E 16 b1 0b 5d
        E 16 b1 0b 4c
        E 16 b1 0b 3b
        E 16 b1 0b 2a
        E 16 b1 0b 19
        E 16 b1 0b 11
        E 16 81 33 00
        E 272 b1 0b 77
        E 0 91 33 77
        E 16 b1 0b 5d
        E 16 b1 0b 4c
        E 16 b1 0b 3b
        E 16 b1 0b 2a
        E 16 b1 0b 19
        E 16 b1 0b 11
        E 16 81 33 00
        E 16 b1 0b 77
        E 0 91 36 77
        E 16 b1 0b 5d
        E 16 b1 0b 4c
        E 16 b1 0b 3b
        E 16 b1 0b 2a
        E 16 b1 0b 19
        E 16 b1 0b 11
        E 16 81 36 00
        E 16 b1 0b 77
        E 0 91 3b 77
        E 16 b1 0b 5d
        E 16 b1 0b 4c
        E 16 b1 0b 3b
        E 16 b1 0b 2a
        E 16 b1 0b 19
        E 16 b1 0b 11
        E 16 81 3b 00
        E 16 b1 0b 77
        E 0 91 38 77
        E 16 b1 0b 5d
        E 16 b1 0b 4c
        E 16 b1 0b 3b
        E 16 b1 0b 2a
        E 16 b1 0b 19
        E 16 b1 0b 11
        E 16 b1 0b 08
        E 16 81 38 00
        E 256 b1 0b 77
        E 0 91 3d 77
        E 16 b1 0b 5d
        E 16 b1 0b 4c
        E 16 b1 0b 3b
        E 16 b1 0b 2a
        E 16 b1 0b 19
        E 16 b1 0b 11
        E 16 b1 0b 08
        E 16 81 3d 00
        E 256 b1 0b 3b
        E 0 91 36 3b
        E 32 b1 0b 11
        E 16 b1 0b 08
        E 16 b1 0b 19
        E 32 b1 0b 08
        E 16 81 36 00
        E 272 b1 0b 3b
        E 0 91 19 3b
        E 32 b1 0b 11
        E 16 b1 0b 08
        E 16 b1 0b 19
        E 32 b1 0b 08
        E 16 81 19 00
        E 144 b1 0b 3b
        E 0 91 19 3b
        E 32 b1 0b 11
        E 16 b1 0b 08
        E 16 b1 0b 19
        E 32 b1 0b 08
        E 16 81 19 00
        E 16 b1 0b 3b
        E 0 91 19 3b
        E 32 b1 0b 11
        E 16 b1 0b 08
        E 16 b1 0b 19
        E 32 b1 0b 08
        E 16 81 19 00
        E 144 b1 0b 3b
        E 0 91 19 3b
        E 32 b1 0b 11
        E 16 b1 0b 08
        E 16 b1 0b 19
        E 32 b1 0b 08
        E 16 81 19 00
        E 16 b1 0b 3b
        E 0 91 19 3b
        E 32 b1 0b 11
        E 16 b1 0b 08
        E 16 b1 0b 19
        E 32 b1 0b 08
        E 16 81 19 00
        E 144 b1 0b 3b
        E 0 91 19 3b
        E 32 b1 0b 11
        E 16 b1 0b 08
        E 16 b1 0b 19
        E 32 b1 0b 08
        E 16 81 19 00
        E 16 b1 0b 3b
        E 0 91 33 3b
        E 32 b1 0b 11
        E 16 b1 0b 08
        E 16 b1 0b 19
        E 32 b1 0b 08
        E 96 81 33 00
        E 192 b1 0b 3b
        E 0 91 36 3b
        E 32 b1 0b 11
        E 16 b1 0b 08
        E 16 b1 0b 19
        E 32 b1 0b 08
        E 96 81 36 00
        E 192 b1 0b 3b
        E 0 91 35 3b
        E 32 b1 0b 11
        E 16 b1 0b 08
        E 16 b1 0b 19
        E 32 b1 0b 08
        E 96 81 35 00
        E 192 b1 0b 7f
        E 0 91 1d 7f
        E 16 b1 0b 77
        E 16 b1 0b 55
        E 16 b1 0b 4c
        E 32 b1 0b 44
        E 16 b1 0b 3b
        E 64 b1 0b 33
        E 64 b1 0b 2a
        E 64 b1 0b 22
        E 64 b1 0b 19
        E 16 81 1d 00
        E 16 b1 0b 77
        E 0 91 3d 77
        E 16 b1 0b 5d
        E 16 b1 0b 4c
        E 16 b1 0b 3b
        E 16 b1 0b 2a
        E 16 b1 0b 19
        E 16 b1 0b 11
        E 16 b1 0b 08
        E 16 81 3d 00
        E 1408 b1 0b 77
        E 0 91 42 77
        E 16 b1 0b 5d
        E 16 b1 0b 4c
        E 16 b1 0b 3b
        E 16 b1 0b 2a
        E 16 b1 0b 19
        E 16 b1 0b 11
        E 16 b1 0b 08
        E 16 81 42 00
        E 1408 b1 0b 77
        E 0 91 3d 77
        E 16 b1 0b 5d
        E 16 b1 0b 4c
        E 16 b1 0b 3b
        E 16 b1 0b 2a
        E 16 b1 0b 19
        E 16 b1 0b 11
        E 16 b1 0b 08
        E 16 81 3d 00
        E 2560 b1 0b 77
        E 0 91 1c 77
        E 16 b1 0b 5d
        E 16 b1 0b 4c
        E 16 b1 0b 3b
        E 16 b1 0b 2a
        E 16 b1 0b 19
        E 16 b1 0b 11
        E 16 b1 0b 08
        E 16 81 1c 00
        E 256 b1 0b 77
        E 0 91 36 77
        E 16 b1 0b 5d
        E 16 b1 0b 4c
        E 16 b1 0b 3b
        E 16 b1 0b 2a
        E 16 b1 0b 19
        E 16 b1 0b 11
        E 16 b1 0b 08
        E 16 81 36 00
        E 1408 b1 0b 77
        E 0 91 33 77
        E 16 b1 0b 5d
        E 16 b1 0b 4c
        E 16 b1 0b 3b
        E 16 b1 0b 2a
        E 16 b1 0b 19
        E 16 b1 0b 11
        E 16 81 33 00
        E 272 b1 0b 77
        E 0 91 33 77
        E 16 b1 0b 5d
        E 16 b1 0b 4c
        E 16 b1 0b 3b
        E 16 b1 0b 2a
        E 16 b1 0b 19
        E 16 b1 0b 11
        E 16 81 33 00
        E 16 b1 0b 77
        E 0 91 36 77
        E 16 b1 0b 5d
        E 16 b1 0b 4c
        E 16 b1 0b 3b
        E 16 b1 0b 2a
        E 16 b1 0b 19
        E 16 b1 0b 11
        E 16 81 36 00
        E 16 b1 0b 77
        E 0 91 3b 77
        E 16 b1 0b 5d
        E 16 b1 0b 4c
        E 16 b1 0b 3b
        E 16 b1 0b 2a
        E 16 b1 0b 19
        E 16 b1 0b 11
        E 16 81 3b 00
        E 16 b1 0b 77
        E 0 91 38 77
        E 16 b1 0b 5d
        E 16 b1 0b 4c
        E 16 b1 0b 3b
        E 16 b1 0b 2a
        E 16 b1 0b 19
        E 16 b1 0b 11
        E 16 b1 0b 08
        E 16 81 38 00
        E 256 b1 0b 77
        E 0 91 3d 77
        E 16 b1 0b 5d
        E 16 b1 0b 4c
        E 16 b1 0b 3b
        E 16 b1 0b 2a
        E 16 b1 0b 19
        E 16 b1 0b 11
        E 16 b1 0b 08
        E 16 81 3d 00
        E 256 b1 0b 3b
        E 0 91 36 3b
        E 32 b1 0b 11
        E 16 b1 0b 08
        E 16 b1 0b 19
        E 32 b1 0b 08
        E 16 81 36 00
        E 272 b1 0b 3b
        E 0 91 19 3b
        E 32 b1 0b 11
        E 16 b1 0b 08
        E 16 b1 0b 19
        E 32 b1 0b 08
        E 16 81 19 00
        E 144 b1 0b 3b
        E 0 91 19 3b
        E 32 b1 0b 11
        E 16 b1 0b 08
        E 16 b1 0b 19
        E 32 b1 0b 08
        E 16 81 19 00
        E 16 b1 0b 3b
        E 0 91 19 3b
        E 32 b1 0b 11
        E 16 b1 0b 08
        E 16 b1 0b 19
        E 32 b1 0b 08
        E 16 81 19 00
        E 144 b1 0b 3b
        E 0 91 19 3b
        E 32 b1 0b 11
        E 16 b1 0b 08
        E 16 b1 0b 19
        E 32 b1 0b 08
        E 16 81 19 00
        E 16 b1 0b 3b
        E 0 91 19 3b
        E 32 b1 0b 11
        E 16 b1 0b 08
        E 16 b1 0b 19
        E 32 b1 0b 08
        E 16 81 19 00
        E 144 b1 0b 3b
        E 0 91 19 3b
        E 32 b1 0b 11
        E 16 b1 0b 08
        E 16 b1 0b 19
        E 32 b1 0b 08
        E 16 81 19 00
        E 16 b1 0b 3b
        E 0 91 33 3b
        E 32 b1 0b 11
        E 16 b1 0b 08
        E 16 b1 0b 19
        E 32 b1 0b 08
        E 96 81 33 00
        E 192 b1 0b 3b
        E 0 91 36 3b
        E 32 b1 0b 11
        E 16 b1 0b 08
        E 16 b1 0b 19
        E 32 b1 0b 08
        E 96 81 36 00
        E 192 b1 0b 3b
        E 0 91 35 3b
        E 32 b1 0b 11
        E 16 b1 0b 08
        E 16 b1 0b 19
        E 32 b1 0b 08
        E 96 81 35 00
        E 192 b1 0b 7f
        E 0 91 1d 7f
        E 16 b1 0b 77
        E 16 b1 0b 55
        E 16 b1 0b 4c
        E 32 b1 0b 44
        E 16 b1 0b 3b
        E 64 b1 0b 33
        E 64 b1 0b 2a
        E 64 b1 0b 22
        E 64 b1 0b 19
        E 16 81 1d 00
        E 16 b1 0b 77
        E 0 91 36 77
        E 16 b1 0b 5d
        E 16 b1 0b 4c
        E 16 b1 0b 3b
        E 16 b1 0b 2a
        E 16 b1 0b 19
        E 16 b1 0b 11
        E 16 b1 0b 08
        E 16 81 36 00
        E 1408 b1 0b 77
        E 0 91 33 77
        E 16 b1 0b 5d
        E 16 b1 0b 4c
        E 16 b1 0b 3b
        E 16 b1 0b 2a
        E 16 b1 0b 19
        E 16 b1 0b 11
        E 16 81 33 00
        E 272 b1 0b 77
        E 0 91 33 77
        E 16 b1 0b 5d
        E 16 b1 0b 4c
        E 16 b1 0b 3b
        E 16 b1 0b 2a
        E 16 b1 0b 19
        E 16 b1 0b 11
        E 16 81 33 00
        E 16 b1 0b 77
        E 0 91 36 77
        E 16 b1 0b 5d
        E 16 b1 0b 4c
        E 16 b1 0b 3b
        E 16 b1 0b 2a
        E 16 b1 0b 19
        E 16 b1 0b 11
        E 16 81 36 00
        E 16 b1 0b 77
        E 0 91 3b 77
        E 16 b1 0b 5d
        E 16 b1 0b 4c
        E 16 b1 0b 3b
        E 16 b1 0b 2a
        E 16 b1 0b 19
        E 16 b1 0b 11
        E 16 81 3b 00
        E 16 b1 0b 77
        E 0 91 38 77
        E 16 b1 0b 5d
        E 16 b1 0b 4c
        E 16 b1 0b 3b
        E 16 b1 0b 2a
        E 16 b1 0b 19
        E 16 b1 0b 11
        E 16 b1 0b 08
        E 16 81 38 00
        E 256 b1 0b 77
        E 0 91 3d 77
        E 16 b1 0b 5d
        E 16 b1 0b 4c
        E 16 b1 0b 3b
        E 16 b1 0b 2a
        E 16 b1 0b 19
        E 16 b1 0b 11
        E 16 b1 0b 08
        E 16 81 3d 00
        E 256 b1 0b 3b
        E 0 91 36 3b
        E 32 b1 0b 11
        E 16 b1 0b 08
        E 16 b1 0b 19
        E 32 b1 0b 08
        E 16 81 36 00
        E 272 b1 0b 3b
        E 0 91 19 3b
        E 32 b1 0b 11
        E 16 b1 0b 08
        E 16 b1 0b 19
        E 32 b1 0b 08
        E 16 81 19 00
        E 144 b1 0b 3b
        E 0 91 19 3b
        E 32 b1 0b 11
        E 16 b1 0b 08
        E 16 b1 0b 19
        E 32 b1 0b 08
        E 16 81 19 00
        E 16 b1 0b 3b
        E 0 91 19 3b
        E 32 b1 0b 11
        E 16 b1 0b 08
        E 16 b1 0b 19
        E 32 b1 0b 08
        E 16 81 19 00
        E 144 b1 0b 3b
        E 0 91 19 3b
        E 32 b1 0b 11
        E 16 b1 0b 08
        E 16 b1 0b 19
        E 32 b1 0b 08
        E 16 81 19 00
        E 16 b1 0b 3b
        E 0 91 19 3b
        E 32 b1 0b 11
        E 16 b1 0b 08
        E 16 b1 0b 19
        E 32 b1 0b 08
        E 16 81 19 00
        E 144 b1 0b 3b
        E 0 91 19 3b
        E 32 b1 0b 11
        E 16 b1 0b 08
        E 16 b1 0b 19
        E 32 b1 0b 08
        E 16 81 19 00
        E 16 b1 0b 3b
        E 0 91 33 3b
        E 32 b1 0b 11
        E 16 b1 0b 08
        E 16 b1 0b 19
        E 32 b1 0b 08
        E 96 81 33 00
        E 192 b1 0b 3b
        E 0 91 36 3b
        E 32 b1 0b 11
        E 16 b1 0b 08
        E 16 b1 0b 19
        E 32 b1 0b 08
        E 96 81 36 00
        E 192 b1 0b 3b
        E 0 91 35 3b
        E 32 b1 0b 11
        E 16 b1 0b 08
        E 16 b1 0b 19
        E 32 b1 0b 08
        E 96 81 35 00
        E 192 b1 0b 7f
        E 0 91 1d 7f
        E 16 b1 0b 77
        E 16 b1 0b 55
        E 16 b1 0b 4c
        E 32 b1 0b 44
        E 16 b1 0b 3b
        E 64 b1 0b 33
        E 64 b1 0b 2a
        E 64 b1 0b 22
        E 64 b1 0b 19
        E 16 81 1d 00
        E 16 b1 0b 77
        E 0 91 3d 77
        E 16 b1 0b 5d
        E 16 b1 0b 4c
        E 16 b1 0b 3b
        E 16 b1 0b 2a
        E 16 b1 0b 19
        E 16 b1 0b 11
        E 16 b1 0b 08
        E 16 81 3d 00
        E 1408 b1 0b 77
        E 0 91 42 77
        E 16 b1 0b 5d
        E 16 b1 0b 4c
        E 16 b1 0b 3b
        E 16 b1 0b 2a
        E 16 b1 0b 19
        E 16 b1 0b 11
        E 16 b1 0b 08
        E 16 81 42 00
        E 1408 b1 0b 77
        E 0 91 3d 77
        E 16 b1 0b 5d
        E 16 b1 0b 4c
        E 16 b1 0b 3b
        E 16 b1 0b 2a
        E 16 b1 0b 19
        E 16 b1 0b 11
        E 16 b1 0b 08
        E 16 81 3d 00
        E 2560 b1 0b 77
        E 0 91 1c 77
        E 16 b1 0b 5d
        E 16 b1 0b 4c
        E 16 b1 0b 3b
        E 16 b1 0b 2a
        E 16 b1 0b 19
        E 16 b1 0b 11
        E 16 b1 0b 08
        E 16 81 1c 00
        E 256 b1 0b 77
        E 0 91 36 77
        E 16 b1 0b 5d
        E 16 b1 0b 4c
        E 16 b1 0b 3b
        E 16 b1 0b 2a
        E 16 b1 0b 19
        E 16 b1 0b 11
        E 16 b1 0b 08
        E 16 81 36 00
        E 1408 b1 0b 77
        E 0 91 33 77
        E 16 b1 0b 5d
        E 16 b1 0b 4c
        E 16 b1 0b 3b
        E 16 b1 0b 2a
        E 16 b1 0b 19
        E 16 b1 0b 11
        E 16 81 33 00
        E 272 b1 0b 77
        E 0 91 33 77
        E 16 b1 0b 5d
        E 16 b1 0b 4c
        E 16 b1 0b 3b
        E 16 b1 0b 2a
        E 16 b1 0b 19
        E 16 b1 0b 11
        E 16 81 33 00
        E 16 b1 0b 77
        E 0 91 36 77
        E 16 b1 0b 5d
        E 16 b1 0b 4c
        E 16 b1 0b 3b
        E 16 b1 0b 2a
        E 16 b1 0b 19
        E 16 b1 0b 11
        E 16 81 36 00
        E 16 b1 0b 77
        E 0 91 3b 77
        E 16 b1 0b 5d
        E 16 b1 0b 4c
        E 16 b1 0b 3b
        E 16 b1 0b 2a
        E 16 b1 0b 19
        E 16 b1 0b 11
        E 16 81 3b 00
        E 16 b1 0b 77
        E 0 91 38 77
        E 16 b1 0b 5d
        E 16 b1 0b 4c
        E 16 b1 0b 3b
        E 16 b1 0b 2a
        E 16 b1 0b 19
        E 16 b1 0b 11
        E 16 b1 0b 08
        E 16 81 38 00
        E 256 b1 0b 77
        E 0 91 3d 77
        E 16 b1 0b 5d
        E 16 b1 0b 4c
        E 16 b1 0b 3b
        E 16 b1 0b 2a
        E 16 b1 0b 19
        E 16 b1 0b 11
        E 16 b1 0b 08
        E 16 81 3d 00
        E 256 b1 0b 3b
        E 0 91 36 3b
        E 32 b1 0b 11
        E 16 b1 0b 08
        E 16 b1 0b 19
        E 32 b1 0b 08
        E 16 81 36 00
        E 272 b1 0b 3b
        E 0 91 19 3b
        E 32 b1 0b 11
        E 16 b1 0b 08
        E 16 b1 0b 19
        E 32 b1 0b 08
        E 16 81 19 00
        E 144 b1 0b 3b
        E 0 91 19 3b
        E 32 b1 0b 11
        E 16 b1 0b 08
        E 16 b1 0b 19
        E 32 b1 0b 08
        E 16 81 19 00
        E 16 b1 0b 3b
        E 0 91 19 3b
        E 32 b1 0b 11
        E 16 b1 0b 08
        E 16 b1 0b 19
        E 32 b1 0b 08
        E 16 81 19 00
        E 144 b1 0b 3b
        E 0 91 19 3b
        E 32 b1 0b 11
        E 16 b1 0b 08
        E 16 b1 0b 19
        E 32 b1 0b 08
        E 16 81 19 00
        E 16 b1 0b 3b
        E 0 91 19 3b
        E 32 b1 0b 11
        E 16 b1 0b 08
        E 16 b1 0b 19
        E 32 b1 0b 08
        E 16 81 19 00
        E 144 b1 0b 3b
        E 0 91 19 3b
        E 32 b1 0b 11
        E 16 b1 0b 08
        E 16 b1 0b 19
        E 32 b1 0b 08
        E 16 81 19 00
        E 16 b1 0b 3b
        E 0 91 33 3b
        E 32 b1 0b 11
        E 16 b1 0b 08
        E 16 b1 0b 19
        E 32 b1 0b 08
        E 96 81 33 00
        E 192 b1 0b 3b
        E 0 91 36 3b
        E 32 b1 0b 11
        E 16 b1 0b 08
        E 16 b1 0b 19
        E 32 b1 0b 08
        E 96 81 36 00
        E 192 b1 0b 3b
        E 0 91 35 3b
        E 32 b1 0b 11
        E 16 b1 0b 08
        E 16 b1 0b 19
        E 32 b1 0b 08
        E 96 81 35 00
        E 192 b1 0b 7f
        E 0 91 1d 7f
        E 16 b1 0b 77
        E 16 b1 0b 55
        E 16 b1 0b 4c
        E 32 b1 0b 44
        E 16 b1 0b 3b
        E 64 b1 0b 33
        E 64 b1 0b 2a
        E 64 b1 0b 22
        E 64 b1 0b 19
        E 16 81 1d 00
        E 16 b1 0b 77
        E 0 91 36 77
        E 16 b1 0b 5d
        E 16 b1 0b 4c
        E 16 b1 0b 3b
        E 16 b1 0b 2a
        E 16 b1 0b 19
        E 16 b1 0b 11
        E 16 b1 0b 08
        E 16 81 36 00
        E 1408 b1 0b 77
        E 0 91 33 77
        E 16 b1 0b 5d
        E 16 b1 0b 4c
        E 16 b1 0b 3b
        E 16 b1 0b 2a
        E 16 b1 0b 19
        E 16 b1 0b 11
        E 16 81 33 00
        E 272 b1 0b 77
        E 0 91 33 77
        E 16 b1 0b 5d
        E 16 b1 0b 4c
        E 16 b1 0b 3b
        E 16 b1 0b 2a
        E 16 b1 0b 19
        E 16 b1 0b 11
        E 16 81 33 00
        E 16 b1 0b 77
        E 0 91 36 77
        E 16 b1 0b 5d
        E 16 b1 0b 4c
        E 16 b1 0b 3b
        E 16 b1 0b 2a
        E 16 b1 0b 19
        E 16 b1 0b 11
        E 16 81 36 00
        E 16 b1 0b 77
        E 0 91 3b 77
        E 16 b1 0b 5d
        E 16 b1 0b 4c
        E 16 b1 0b 3b
        E 16 b1 0b 2a
        E 16 b1 0b 19
        E 16 b1 0b 11
        E 16 81 3b 00
        E 16 b1 0b 77
        E 0 91 38 77
        E 16 b1 0b 5d
        E 16 b1 0b 4c
        E 16 b1 0b 3b
        E 16 b1 0b 2a
        E 16 b1 0b 19
        E 16 b1 0b 11
        E 16 b1 0b 08
        E 16 81 38 00
        E 256 b1 0b 77
        E 0 91 3d 77
        E 16 b1 0b 5d
        E 16 b1 0b 4c
        E 16 b1 0b 3b
        E 16 b1 0b 2a
        E 16 b1 0b 19
        E 16 b1 0b 11
        E 16 b1 0b 08
        E 16 81 3d 00
        E 256 b1 0b 3b
        E 0 91 36 3b
        E 32 b1 0b 11
        E 16 b1 0b 08
        E 16 b1 0b 19
        E 32 b1 0b 08
        E 16 81 36 00
        E 272 b1 0b 3b
        E 0 91 19 3b
        E 32 b1 0b 11
        E 16 b1 0b 08
        E 16 b1 0b 19
        E 32 b1 0b 08
        E 16 81 19 00
        E 144 b1 0b 3b
        E 0 91 19 3b
        E 32 b1 0b 11
        E 16 b1 0b 08
        E 16 b1 0b 19
        E 32 b1 0b 08
        E 16 81 19 00
        E 16 b1 0b 3b
        E 0 91 19 3b
        E 32 b1 0b 11
        E 16 b1 0b 08
        E 16 b1 0b 19
        E 32 b1 0b 08
        E 16 81 19 00
        E 144 b1 0b 3b
        E 0 91 19 3b
        E 32 b1 0b 11
        E 16 b1 0b 08
        E 16 b1 0b 19
        E 32 b1 0b 08
        E 16 81 19 00
        E 16 b1 0b 3b
        E 0 91 19 3b
        E 32 b1 0b 11
        E 16 b1 0b 08
        E 16 b1 0b 19
        E 32 b1 0b 08
        E 16 81 19 00
        E 144 b1 0b 3b
        E 0 91 19 3b
        E 32 b1 0b 11
        E 16 b1 0b 08
        E 16 b1 0b 19
        E 32 b1 0b 08
        E 16 81 19 00
        E 16 b1 0b 3b
        E 0 91 33 3b
        E 32 b1 0b 11
        E 16 b1 0b 08
        E 16 b1 0b 19
        E 32 b1 0b 08
        E 96 81 33 00
        E 192 b1 0b 3b
        E 0 91 36 3b
        E 32 b1 0b 11
        E 16 b1 0b 08
        E 16 b1 0b 19
        E 32 b1 0b 08
        E 96 81 36 00
        E 192 b1 0b 3b
        E 0 91 35 3b
        E 32 b1 0b 11
        E 16 b1 0b 08
        E 16 b1 0b 19
        E 32 b1 0b 08
        E 96 81 35 00
        E 192 b1 0b 7f
        E 0 91 1d 7f
        E 16 b1 0b 77
        E 16 b1 0b 55
        E 16 b1 0b 4c
        E 32 b1 0b 44
        E 16 b1 0b 3b
        E 64 b1 0b 33
        E 64 b1 0b 2a
        E 64 b1 0b 22
        E 64 b1 0b 19
        E 16 81 1d 00
        E 16 b1 0b 77
        E 0 91 3d 77
        E 16 b1 0b 5d
        E 16 b1 0b 4c
        E 16 b1 0b 3b
        E 16 b1 0b 2a
        E 16 b1 0b 19
        E 16 b1 0b 11
        E 16 b1 0b 08
        E 16 81 3d 00
        E 1408 b1 0b 77
        E 0 91 42 77
        E 16 b1 0b 5d
        E 16 b1 0b 4c
        E 16 b1 0b 3b
        E 16 b1 0b 2a
        E 16 b1 0b 19
        E 16 b1 0b 11
        E 16 b1 0b 08
        E 16 81 42 00
        E 1408 b1 0b 77
        E 0 91 3d 77
        E 16 b1 0b 5d
        E 16 b1 0b 4c
        E 16 b1 0b 3b
        E 16 b1 0b 2a
        E 16 b1 0b 19
        E 16 b1 0b 11
        E 16 b1 0b 08
        E 16 81 3d 00
        E 2560 b1 0b 77
        E 0 91 1c 77
        E 16 b1 0b 5d
        E 16 b1 0b 4c
        E 16 b1 0b 3b
        E 16 b1 0b 2a
        E 16 b1 0b 19
        E 16 b1 0b 11
        E 16 b1 0b 08
        E 16 81 1c 00
        E 256 b1 0b 77
        E 0 91 36 77
        E 16 b1 0b 5d
        E 16 b1 0b 4c
        E 16 b1 0b 3b
        E 16 b1 0b 2a
        E 16 b1 0b 19
        E 16 b1 0b 11
        E 16 b1 0b 08
        E 16 81 36 00
        E 1408 b1 0b 77
        E 0 91 33 77
        E 16 b1 0b 5d
        E 16 b1 0b 4c
        E 16 b1 0b 3b
        E 16 b1 0b 2a
        E 16 b1 0b 19
        E 16 b1 0b 11
        E 16 81 33 00
        E 272 b1 0b 77
        E 0 91 33 77
        E 16 b1 0b 5d
        E 16 b1 0b 4c
        E 16 b1 0b 3b
        E 16 b1 0b 2a
        E 16 b1 0b 19
        E 16 b1 0b 11
        E 16 81 33 00
        E 16 b1 0b 77
        E 0 91 36 77
        E 16 b1 0b 5d
        E 16 b1 0b 4c
        E 16 b1 0b 3b
        E 16 b1 0b 2a
        E 16 b1 0b 19
        E 16 b1 0b 11
        E 16 81 36 00
        E 16 b1 0b 77
        E 0 91 3b 77
        E 16 b1 0b 5d
        E 16 b1 0b 4c
        E 16 b1 0b 3b
        E 16 b1 0b 2a
        E 16 b1 0b 19
        E 16 b1 0b 11
        E 16 81 3b 00
        E 16 b1 0b 77
        E 0 91 38 77
        E 16 b1 0b 5d
        E 16 b1 0b 4c
        E 16 b1 0b 3b
        E 16 b1 0b 2a
        E 16 b1 0b 19
        E 16 b1 0b 11
        E 16 b1 0b 08
        E 16 81 38 00
        E 256 b1 0b 77
        E 0 91 3d 77
        E 16 b1 0b 5d
        E 16 b1 0b 4c
        E 16 b1 0b 3b
        E 16 b1 0b 2a
        E 16 b1 0b 19
        E 16 b1 0b 11
        E 16 b1 0b 08
        E 16 81 3d 00
        E 256 b1 0b 3b
        E 0 91 36 3b
        E 32 b1 0b 11
        E 16 b1 0b 08
        E 16 b1 0b 19
        E 32 b1 0b 08
        E 16 81 36 00
        E 272 b1 0b 3b
        E 0 91 19 3b
        E 32 b1 0b 11
        E 16 b1 0b 08
        E 16 b1 0b 19
        E 32 b1 0b 08
        E 16 81 19 00
        E 144 b1 0b 3b
        E 0 91 19 3b
        E 32 b1 0b 11
        E 16 b1 0b 08
        E 16 b1 0b 19
        E 32 b1 0b 08
        E 16 81 19 00
        E 16 b1 0b 3b
        E 0 91 19 3b
        E 32 b1 0b 11
        E 16 b1 0b 08
        E 16 b1 0b 19
        E 32 b1 0b 08
        E 16 81 19 00
        E 144 b1 0b 3b
        E 0 91 19 3b
        E 32 b1 0b 11
        E 16 b1 0b 08
        E 16 b1 0b 19
        E 32 b1 0b 08
        E 16 81 19 00
        E 16 b1 0b 3b
        E 0 91 19 3b
        E 32 b1 0b 11
        E 16 b1 0b 08
        E 16 b1 0b 19
        E 32 b1 0b 08
        E 16 81 19 00
        E 144 b1 0b 3b
        E 0 91 19 3b
        E 32 b1 0b 11
        E 16 b1 0b 08
        E 16 b1 0b 19
        E 32 b1 0b 08
        E 16 81 19 00
        E 16 b1 0b 3b
        E 0 91 33 3b
        E 32 b1 0b 11
        E 16 b1 0b 08
        E 16 b1 0b 19
        E 32 b1 0b 08
        E 96 81 33 00
        E 192 b1 0b 3b
        E 0 91 36 3b
        E 32 b1 0b 11
        E 16 b1 0b 08
        E 16 b1 0b 19
        E 32 b1 0b 08
        E 96 81 36 00
        E 192 b1 0b 3b
        E 0 91 35 3b
        E 32 b1 0b 11
        E 16 b1 0b 08
        E 16 b1 0b 19
        E 32 b1 0b 08
        E 96 81 35 00
        E 192 b1 0b 7f
        E 0 91 1d 7f
        E 16 b1 0b 77
        E 16 b1 0b 55
        E 16 b1 0b 4c
        E 32 b1 0b 44
        E 16 b1 0b 3b
        E 64 b1 0b 33
        E 64 b1 0b 2a
        E 64 b1 0b 22
        E 64 b1 0b 19
        E 16 81 1d 00
        E 16 b1 0b 77
        E 0 91 36 77
        E 16 b1 0b 5d
        E 16 b1 0b 4c
        E 16 b1 0b 3b
        E 16 b1 0b 2a
        E 16 b1 0b 19
        E 16 b1 0b 11
        E 16 b1 0b 08
        E 16 81 36 00
        E 1408 b1 0b 77
        E 0 91 33 77
        E 16 b1 0b 5d
        E 16 b1 0b 4c
        E 16 b1 0b 3b
        E 16 b1 0b 2a
        E 16 b1 0b 19
        E 16 b1 0b 11
        E 16 81 33 00
        E 272 b1 0b 77
        E 0 91 33 77
        E 16 b1 0b 5d
        E 16 b1 0b 4c
        E 16 b1 0b 3b
        E 16 b1 0b 2a
        E 16 b1 0b 19
        E 16 b1 0b 11
        E 16 81 33 00
        E 16 b1 0b 77
        E 0 91 36 77
        E 16 b1 0b 5d
        E 16 b1 0b 4c
        E 16 b1 0b 3b
        E 16 b1 0b 2a
        E 16 b1 0b 19
        E 16 b1 0b 11
        E 16 81 36 00
        E 16 b1 0b 77
        E 0 91 3b 77
        E 16 b1 0b 5d
        E 16 b1 0b 4c
        E 16 b1 0b 3b
        E 16 b1 0b 2a
        E 16 b1 0b 19
        E 16 b1 0b 11
        E 16 81 3b 00
        E 16 b1 0b 77
        E 0 91 38 77
        E 16 b1 0b 5d
        E 16 b1 0b 4c
        E 16 b1 0b 3b
        E 16 b1 0b 2a
        E 16 b1 0b 19
        E 16 b1 0b 11
        E 16 b1 0b 08
        E 16 81 38 00
        E 256 b1 0b 77
        E 0 91 3d 77
        E 16 b1 0b 5d
        E 16 b1 0b 4c
        E 16 b1 0b 3b
        E 16 b1 0b 2a
        E 16 b1 0b 19
        E 16 b1 0b 11
        E 16 b1 0b 08
        E 16 81 3d 00
        E 256 b1 0b 3b
        E 0 91 36 3b
        E 32 b1 0b 11
        E 16 b1 0b 08
        E 16 b1 0b 19
        E 32 b1 0b 08
        E 16 81 36 00
        E 272 b1 0b 3b
        E 0 91 19 3b
        E 32 b1 0b 11
        E 16 b1 0b 08
        E 16 b1 0b 19
        E 32 b1 0b 08
        E 16 81 19 00
        E 144 b1 0b 3b
        E 0 91 19 3b
        E 32 b1 0b 11
        E 16 b1 0b 08
        E 16 b1 0b 19
        E 32 b1 0b 08
        E 16 81 19 00
        E 16 b1 0b 3b
        E 0 91 19 3b
        E 32 b1 0b 11
        E 16 b1 0b 08
        E 16 b1 0b 19
        E 32 b1 0b 08
        E 16 81 19 00
        E 144 b1 0b 3b
        E 0 91 19 3b
        E 32 b1 0b 11
        E 16 b1 0b 08
        E 16 b1 0b 19
        E 32 b1 0b 08
        E 16 81 19 00
        E 16 b1 0b 3b
        E 0 91 19 3b
        E 32 b1 0b 11
        E 16 b1 0b 08
        E 16 b1 0b 19
        E 32 b1 0b 08
        E 16 81 19 00
        E 144 b1 0b 3b
        E 0 91 19 3b
        E 32 b1 0b 11
        E 16 b1 0b 08
        E 16 b1 0b 19
        E 32 b1 0b 08
        E 16 81 19 00
        E 16 b1 0b 3b
        E 0 91 33 3b
        E 32 b1 0b 11
        E 16 b1 0b 08
        E 16 b1 0b 19
        E 32 b1 0b 08
        E 96 81 33 00
        E 192 b1 0b 3b
        E 0 91 36 3b
        E 32 b1 0b 11
        E 16 b1 0b 08
        E 16 b1 0b 19
        E 32 b1 0b 08
        E 96 81 36 00
        E 192 b1 0b 3b
        E 0 91 35 3b
        E 32 b1 0b 11
        E 16 b1 0b 08
        E 16 b1 0b 19
        E 32 b1 0b 08
        E 96 81 35 00
        E 192 b1 0b 7f
        E 0 91 1d 7f
        E 16 b1 0b 77
        E 16 b1 0b 55
        E 16 b1 0b 4c
        E 32 b1 0b 44
        E 16 b1 0b 3b
        E 64 b1 0b 33
        E 64 b1 0b 2a
        E 64 b1 0b 22
        E 64 b1 0b 19
        E 16 81 1d 00
        E 16 b1 0b 77
        E 0 91 3d 77
        E 16 b1 0b 5d
        E 16 b1 0b 4c
        E 16 b1 0b 3b
        E 16 b1 0b 2a
        E 16 b1 0b 19
        E 16 b1 0b 11
        E 16 b1 0b 08
        E 16 81 3d 00
        E 1408 b1 0b 77
        E 0 91 42 77
        E 16 b1 0b 5d
        E 16 b1 0b 4c
        E 16 b1 0b 3b
        E 16 b1 0b 2a
        E 16 b1 0b 19
        E 16 b1 0b 11
        E 16 b1 0b 08
        E 16 81 42 00
        E 1408 b1 0b 77
        E 0 91 3d 77
        E 16 b1 0b 5d
        E 16 b1 0b 4c
        E 16 b1 0b 3b
        E 16 b1 0b 2a
        E 16 b1 0b 19
        E 16 b1 0b 11
        E 16 b1 0b 08
        E 16 81 3d 00
        E 2560 b1 0b 77
        E 0 91 1c 77
        E 16 b1 0b 5d
        E 16 b1 0b 4c
        E 16 b1 0b 3b
        E 16 b1 0b 2a
        E 16 b1 0b 19
        E 16 b1 0b 11
        E 16 b1 0b 08
        E 16 81 1c 00
        E 256 b1 0b 77
        E 0 91 36 77
        E 16 b1 0b 5d
        E 16 b1 0b 4c
        E 16 b1 0b 3b
        E 16 b1 0b 2a
        E 16 b1 0b 19
        E 16 b1 0b 11
        E 16 b1 0b 08
        E 16 81 36 00
        E 1408 b1 0b 77
        E 0 91 33 77
        E 16 b1 0b 5d
        E 16 81 33 00
        E 0 b1 7b 00
        E 0 ff 2f 00
      >
    >
  >
  <TRACK {82580D76-7448-4141-A9B1-8AC246374DCD}
    NAME "NES - Triangle [ch2]"
    PEAKCOL 16744192
    BEAT -1
    AUTOMODE 0
    PANLAWFLAGS 3
    VOLPAN 1 0 -1 -1 1
    MUTESOLO 0 0 0
    IPHASE 0
    PLAYOFFS 0 1
    ISBUS 0 0
    BUSCOMP 0 0 0 0 0
    SHOWINMIX 1 0.6667 0.5 1 0.5 0 0 0
    FIXEDLANES 9 0 0 0 0
    SEL 0
    REC 0 5088 1 0 0 0 0 0
    VU 2
    TRACKHEIGHT 0 0 0 0 0 0 0
    INQ 0 0 0 0.5 100 0 0 100
    NCHAN 2
    FX 1
    TRACKID {82580D76-7448-4141-A9B1-8AC246374DCD}
    PERF 0
    MIDIOUT -1
    MAINSEND 1 0
    <FXCHAIN
      WNDRECT 24 52 700 560
      SHOW 0
      LASTSEL 0
      DOCKED 0
      BYPASS 0 0 0
      <JS "ReapNES Studio/ReapNES_Console.jsfx" ""
        2 15 1 10 80 10 100 2 1 15 1 5 60 10 80 1 1 0 50 0 0 15 1 0 100 0 0 0.500000 0.500000 0.400000 0.300000 0.800000 2 1 0 0 0 0 - - - - - - - - - - - - - - - - - - - - - - - - - -
      >
      FLOATPOS 0 0 0 0
      FXID {9DC67EB8-4986-4021-B74D-29A6F86D7EA4}
      WAK 0 0
    >
    <ITEM
      POSITION 0
      LENGTH 73.8413708
      LOOP 0
      ALLTAKES 0
      FADEIN 0 0 0 0 0 0 0
      FADEOUT 0 0 0 0 0 0 0
      MUTE 0 0
      SEL 0
      IGUID {1DD34ABB-5D4B-44D9-BA5C-D1B1167F07A3}
      <SOURCE MIDI
        HASDATA 1 480 QN
        CCINTERP 32
        E 0 c2 26
        E 176 b2 0b 7f
        E 0 92 20 7f
        E 384 82 20 00
        E 96 b2 0b 7f
        E 0 92 3a 7f
        E 256 82 3a 00
        E 0 b2 0b 7f
        E 0 92 3d 7f
        E 128 82 3d 00
        E 0 b2 0b 7f
        E 0 92 3e 7f
        E 128 82 3e 00
        E 0 b2 0b 7f
        E 0 92 3d 7f
        E 128 82 3d 00
        E 0 b2 0b 7f
        E 0 92 3e 7f
        E 128 82 3e 00
        E 128 b2 0b 7f
        E 0 92 3d 7f
        E 128 82 3d 00
        E 0 b2 0b 7f
        E 0 92 3e 7f
        E 128 82 3e 00
        E 0 b2 0b 7f
        E 0 92 3d 7f
        E 128 82 3d 00
        E 0 b2 0b 7f
        E 0 92 3e 7f
        E 128 82 3e 00
        E 0 b2 0b 7f
        E 0 92 3d 7f
        E 128 82 3d 00
        E 0 b2 0b 7f
        E 0 92 36 7f
        E 128 82 36 00
        E 256 b2 0b 7f
        E 0 92 36 7f
        E 128 82 36 00
        E 0 b2 0b 7f
        E 0 92 3b 7f
        E 128 82 3b 00
        E 0 b2 0b 7f
        E 0 92 33 7f
        E 128 82 33 00
        E 0 b2 0b 7f
        E 0 92 31 7f
        E 128 82 31 00
        E 256 b2 0b 7f
        E 0 92 35 7f
        E 384 82 35 00
        E 0 b2 0b 7f
        E 0 92 3a 7f
        E 128 82 3a 00
        E 128 b2 0b 7f
        E 0 92 25 7f
        E 128 82 25 00
        E 0 b2 0b 7f
        E 0 92 31 7f
        E 128 82 31 00
        E 128 b2 0b 7f
        E 0 92 25 7f
        E 128 82 25 00
        E 0 b2 0b 7f
        E 0 92 31 7f
        E 128 82 31 00
        E 128 b2 0b 7f
        E 0 92 25 7f
        E 128 82 25 00
        E 0 b2 0b 7f
        E 0 92 31 7f
        E 128 82 31 00
        E 128 b2 0b 7f
        E 0 92 25 7f
        E 128 82 25 00
        E 0 b2 0b 7f
        E 0 92 23 7f
        E 128 82 23 00
        E 128 b2 0b 7f
        E 0 92 23 7f
        E 128 82 23 00
        E 0 b2 0b 7f
        E 0 92 26 7f
        E 128 82 26 00
        E 128 b2 0b 7f
        E 0 92 26 7f
        E 128 82 26 00
        E 0 b2 0b 7f
        E 0 92 25 7f
        E 128 82 25 00
        E 256 b2 0b 7f
        E 0 92 1d 7f
        E 384 82 1d 00
        E 0 b2 0b 7f
        E 0 92 3a 7f
        E 256 82 3a 00
        E 0 b2 0b 7f
        E 0 92 3d 7f
        E 128 82 3d 00
        E 0 b2 0b 7f
        E 0 92 3e 7f
        E 128 82 3e 00
        E 0 b2 0b 7f
        E 0 92 3d 7f
        E 128 82 3d 00
        E 0 b2 0b 7f
        E 0 92 3e 7f
        E 128 82 3e 00
        E 128 b2 0b 7f
        E 0 92 3d 7f
        E 128 82 3d 00
        E 0 b2 0b 7f
        E 0 92 3e 7f
        E 128 82 3e 00
        E 0 b2 0b 7f
        E 0 92 3d 7f
        E 128 82 3d 00
        E 0 b2 0b 7f
        E 0 92 3e 7f
        E 128 82 3e 00
        E 0 b2 0b 7f
        E 0 92 3d 7f
        E 128 82 3d 00
        E 0 b2 0b 7f
        E 0 92 36 7f
        E 128 82 36 00
        E 256 b2 0b 7f
        E 0 92 36 7f
        E 128 82 36 00
        E 0 b2 0b 7f
        E 0 92 3b 7f
        E 128 82 3b 00
        E 0 b2 0b 7f
        E 0 92 33 7f
        E 128 82 33 00
        E 0 b2 0b 7f
        E 0 92 31 7f
        E 128 82 31 00
        E 256 b2 0b 7f
        E 0 92 35 7f
        E 384 82 35 00
        E 0 b2 0b 7f
        E 0 92 3a 7f
        E 128 82 3a 00
        E 128 b2 0b 7f
        E 0 92 25 7f
        E 128 82 25 00
        E 0 b2 0b 7f
        E 0 92 31 7f
        E 128 82 31 00
        E 128 b2 0b 7f
        E 0 92 25 7f
        E 128 82 25 00
        E 0 b2 0b 7f
        E 0 92 31 7f
        E 128 82 31 00
        E 128 b2 0b 7f
        E 0 92 25 7f
        E 128 82 25 00
        E 0 b2 0b 7f
        E 0 92 31 7f
        E 128 82 31 00
        E 128 b2 0b 7f
        E 0 92 25 7f
        E 128 82 25 00
        E 0 b2 0b 7f
        E 0 92 23 7f
        E 128 82 23 00
        E 128 b2 0b 7f
        E 0 92 23 7f
        E 128 82 23 00
        E 0 b2 0b 7f
        E 0 92 26 7f
        E 128 82 26 00
        E 128 b2 0b 7f
        E 0 92 26 7f
        E 128 82 26 00
        E 0 b2 0b 7f
        E 0 92 25 7f
        E 128 82 25 00
        E 256 b2 0b 7f
        E 0 92 1d 7f
        E 384 82 1d 00
        E 0 b2 0b 7f
        E 0 92 22 7f
        E 256 82 22 00
        E 0 b2 0b 7f
        E 0 92 23 7f
        E 128 82 23 00
        E 0 b2 0b 7f
        E 0 92 22 7f
        E 128 82 22 00
        E 128 b2 0b 7f
        E 0 92 23 7f
        E 128 82 23 00
        E 0 b2 0b 7f
        E 0 92 22 7f
        E 128 82 22 00
        E 128 b2 0b 7f
        E 0 92 23 7f
        E 128 82 23 00
        E 0 b2 0b 7f
        E 0 92 22 7f
        E 128 82 22 00
        E 128 b2 0b 7f
        E 0 92 23 7f
        E 128 82 23 00
        E 0 b2 0b 7f
        E 0 92 22 7f
        E 256 82 22 00
        E 0 b2 0b 7f
        E 0 92 23 7f
        E 128 82 23 00
        E 0 b2 0b 7f
        E 0 92 22 7f
        E 128 82 22 00
        E 128 b2 0b 7f
        E 0 92 23 7f
        E 128 82 23 00
        E 0 b2 0b 7f
        E 0 92 22 7f
        E 128 82 22 00
        E 128 b2 0b 7f
        E 0 92 23 7f
        E 128 82 23 00
        E 0 b2 0b 7f
        E 0 92 22 7f
        E 128 82 22 00
        E 128 b2 0b 7f
        E 0 92 23 7f
        E 128 82 23 00
        E 0 b2 0b 7f
        E 0 92 22 7f
        E 256 82 22 00
        E 0 b2 0b 7f
        E 0 92 23 7f
        E 128 82 23 00
        E 0 b2 0b 7f
        E 0 92 22 7f
        E 128 82 22 00
        E 128 b2 0b 7f
        E 0 92 23 7f
        E 128 82 23 00
        E 0 b2 0b 7f
        E 0 92 22 7f
        E 128 82 22 00
        E 128 b2 0b 7f
        E 0 92 23 7f
        E 128 82 23 00
        E 0 b2 0b 7f
        E 0 92 22 7f
        E 128 82 22 00
        E 128 b2 0b 7f
        E 0 92 23 7f
        E 128 82 23 00
        E 0 b2 0b 7f
        E 0 92 22 7f
        E 256 82 22 00
        E 0 b2 0b 7f
        E 0 92 23 7f
        E 128 82 23 00
        E 0 b2 0b 7f
        E 0 92 22 7f
        E 128 82 22 00
        E 128 b2 0b 7f
        E 0 92 23 7f
        E 128 82 23 00
        E 384 b2 0b 7f
        E 0 92 1c 7f
        E 384 82 1c 00
        E 0 b2 0b 7f
        E 0 92 3a 7f
        E 256 82 3a 00
        E 0 b2 0b 7f
        E 0 92 3d 7f
        E 128 82 3d 00
        E 0 b2 0b 7f
        E 0 92 3e 7f
        E 128 82 3e 00
        E 0 b2 0b 7f
        E 0 92 3d 7f
        E 128 82 3d 00
        E 0 b2 0b 7f
        E 0 92 3e 7f
        E 128 82 3e 00
        E 128 b2 0b 7f
        E 0 92 3d 7f
        E 128 82 3d 00
        E 0 b2 0b 7f
        E 0 92 3e 7f
        E 128 82 3e 00
        E 0 b2 0b 7f
        E 0 92 3d 7f
        E 128 82 3d 00
        E 0 b2 0b 7f
        E 0 92 3e 7f
        E 128 82 3e 00
        E 0 b2 0b 7f
        E 0 92 3d 7f
        E 128 82 3d 00
        E 0 b2 0b 7f
        E 0 92 36 7f
        E 128 82 36 00
        E 256 b2 0b 7f
        E 0 92 36 7f
        E 128 82 36 00
        E 0 b2 0b 7f
        E 0 92 3b 7f
        E 128 82 3b 00
        E 0 b2 0b 7f
        E 0 92 33 7f
        E 128 82 33 00
        E 0 b2 0b 7f
        E 0 92 31 7f
        E 128 82 31 00
        E 256 b2 0b 7f
        E 0 92 35 7f
        E 384 82 35 00
        E 0 b2 0b 7f
        E 0 92 3a 7f
        E 128 82 3a 00
        E 128 b2 0b 7f
        E 0 92 25 7f
        E 128 82 25 00
        E 0 b2 0b 7f
        E 0 92 31 7f
        E 128 82 31 00
        E 128 b2 0b 7f
        E 0 92 25 7f
        E 128 82 25 00
        E 0 b2 0b 7f
        E 0 92 31 7f
        E 128 82 31 00
        E 128 b2 0b 7f
        E 0 92 25 7f
        E 128 82 25 00
        E 0 b2 0b 7f
        E 0 92 31 7f
        E 128 82 31 00
        E 128 b2 0b 7f
        E 0 92 25 7f
        E 128 82 25 00
        E 0 b2 0b 7f
        E 0 92 23 7f
        E 128 82 23 00
        E 128 b2 0b 7f
        E 0 92 23 7f
        E 128 82 23 00
        E 0 b2 0b 7f
        E 0 92 26 7f
        E 128 82 26 00
        E 128 b2 0b 7f
        E 0 92 26 7f
        E 128 82 26 00
        E 0 b2 0b 7f
        E 0 92 25 7f
        E 128 82 25 00
        E 256 b2 0b 7f
        E 0 92 1d 7f
        E 384 82 1d 00
        E 0 b2 0b 7f
        E 0 92 3a 7f
        E 256 82 3a 00
        E 0 b2 0b 7f
        E 0 92 3d 7f
        E 128 82 3d 00
        E 0 b2 0b 7f
        E 0 92 3e 7f
        E 128 82 3e 00
        E 0 b2 0b 7f
        E 0 92 3d 7f
        E 128 82 3d 00
        E 0 b2 0b 7f
        E 0 92 3e 7f
        E 128 82 3e 00
        E 128 b2 0b 7f
        E 0 92 3d 7f
        E 128 82 3d 00
        E 0 b2 0b 7f
        E 0 92 3e 7f
        E 128 82 3e 00
        E 0 b2 0b 7f
        E 0 92 3d 7f
        E 128 82 3d 00
        E 0 b2 0b 7f
        E 0 92 3e 7f
        E 128 82 3e 00
        E 0 b2 0b 7f
        E 0 92 3d 7f
        E 128 82 3d 00
        E 0 b2 0b 7f
        E 0 92 36 7f
        E 128 82 36 00
        E 256 b2 0b 7f
        E 0 92 36 7f
        E 128 82 36 00
        E 0 b2 0b 7f
        E 0 92 3b 7f
        E 128 82 3b 00
        E 0 b2 0b 7f
        E 0 92 33 7f
        E 128 82 33 00
        E 0 b2 0b 7f
        E 0 92 31 7f
        E 128 82 31 00
        E 256 b2 0b 7f
        E 0 92 35 7f
        E 384 82 35 00
        E 0 b2 0b 7f
        E 0 92 3a 7f
        E 128 82 3a 00
        E 128 b2 0b 7f
        E 0 92 25 7f
        E 128 82 25 00
        E 0 b2 0b 7f
        E 0 92 31 7f
        E 128 82 31 00
        E 128 b2 0b 7f
        E 0 92 25 7f
        E 128 82 25 00
        E 0 b2 0b 7f
        E 0 92 31 7f
        E 128 82 31 00
        E 128 b2 0b 7f
        E 0 92 25 7f
        E 128 82 25 00
        E 0 b2 0b 7f
        E 0 92 31 7f
        E 128 82 31 00
        E 128 b2 0b 7f
        E 0 92 25 7f
        E 128 82 25 00
        E 0 b2 0b 7f
        E 0 92 23 7f
        E 128 82 23 00
        E 128 b2 0b 7f
        E 0 92 23 7f
        E 128 82 23 00
        E 0 b2 0b 7f
        E 0 92 26 7f
        E 128 82 26 00
        E 128 b2 0b 7f
        E 0 92 26 7f
        E 128 82 26 00
        E 0 b2 0b 7f
        E 0 92 25 7f
        E 128 82 25 00
        E 256 b2 0b 7f
        E 0 92 1d 7f
        E 384 82 1d 00
        E 0 b2 0b 7f
        E 0 92 22 7f
        E 256 82 22 00
        E 0 b2 0b 7f
        E 0 92 23 7f
        E 128 82 23 00
        E 0 b2 0b 7f
        E 0 92 22 7f
        E 128 82 22 00
        E 128 b2 0b 7f
        E 0 92 23 7f
        E 128 82 23 00
        E 0 b2 0b 7f
        E 0 92 22 7f
        E 128 82 22 00
        E 128 b2 0b 7f
        E 0 92 23 7f
        E 128 82 23 00
        E 0 b2 0b 7f
        E 0 92 22 7f
        E 128 82 22 00
        E 128 b2 0b 7f
        E 0 92 23 7f
        E 128 82 23 00
        E 0 b2 0b 7f
        E 0 92 22 7f
        E 256 82 22 00
        E 0 b2 0b 7f
        E 0 92 23 7f
        E 128 82 23 00
        E 0 b2 0b 7f
        E 0 92 22 7f
        E 128 82 22 00
        E 128 b2 0b 7f
        E 0 92 23 7f
        E 128 82 23 00
        E 0 b2 0b 7f
        E 0 92 22 7f
        E 128 82 22 00
        E 128 b2 0b 7f
        E 0 92 23 7f
        E 128 82 23 00
        E 0 b2 0b 7f
        E 0 92 22 7f
        E 128 82 22 00
        E 128 b2 0b 7f
        E 0 92 23 7f
        E 128 82 23 00
        E 0 b2 0b 7f
        E 0 92 22 7f
        E 256 82 22 00
        E 0 b2 0b 7f
        E 0 92 23 7f
        E 128 82 23 00
        E 0 b2 0b 7f
        E 0 92 22 7f
        E 128 82 22 00
        E 128 b2 0b 7f
        E 0 92 23 7f
        E 128 82 23 00
        E 0 b2 0b 7f
        E 0 92 22 7f
        E 128 82 22 00
        E 128 b2 0b 7f
        E 0 92 23 7f
        E 128 82 23 00
        E 0 b2 0b 7f
        E 0 92 22 7f
        E 128 82 22 00
        E 128 b2 0b 7f
        E 0 92 23 7f
        E 128 82 23 00
        E 0 b2 0b 7f
        E 0 92 22 7f
        E 256 82 22 00
        E 0 b2 0b 7f
        E 0 92 23 7f
        E 128 82 23 00
        E 0 b2 0b 7f
        E 0 92 22 7f
        E 128 82 22 00
        E 128 b2 0b 7f
        E 0 92 23 7f
        E 128 82 23 00
        E 384 b2 0b 7f
        E 0 92 1c 7f
        E 384 82 1c 00
        E 0 b2 0b 7f
        E 0 92 3a 7f
        E 256 82 3a 00
        E 0 b2 0b 7f
        E 0 92 3d 7f
        E 128 82 3d 00
        E 0 b2 0b 7f
        E 0 92 3e 7f
        E 128 82 3e 00
        E 0 b2 0b 7f
        E 0 92 3d 7f
        E 128 82 3d 00
        E 0 b2 0b 7f
        E 0 92 3e 7f
        E 128 82 3e 00
        E 128 b2 0b 7f
        E 0 92 3d 7f
        E 128 82 3d 00
        E 0 b2 0b 7f
        E 0 92 3e 7f
        E 128 82 3e 00
        E 0 b2 0b 7f
        E 0 92 3d 7f
        E 128 82 3d 00
        E 0 b2 0b 7f
        E 0 92 3e 7f
        E 128 82 3e 00
        E 0 b2 0b 7f
        E 0 92 3d 7f
        E 128 82 3d 00
        E 0 b2 0b 7f
        E 0 92 36 7f
        E 128 82 36 00
        E 256 b2 0b 7f
        E 0 92 36 7f
        E 128 82 36 00
        E 0 b2 0b 7f
        E 0 92 3b 7f
        E 128 82 3b 00
        E 0 b2 0b 7f
        E 0 92 33 7f
        E 128 82 33 00
        E 0 b2 0b 7f
        E 0 92 31 7f
        E 128 82 31 00
        E 256 b2 0b 7f
        E 0 92 35 7f
        E 384 82 35 00
        E 0 b2 0b 7f
        E 0 92 3a 7f
        E 128 82 3a 00
        E 128 b2 0b 7f
        E 0 92 25 7f
        E 128 82 25 00
        E 0 b2 0b 7f
        E 0 92 31 7f
        E 128 82 31 00
        E 128 b2 0b 7f
        E 0 92 25 7f
        E 128 82 25 00
        E 0 b2 0b 7f
        E 0 92 31 7f
        E 128 82 31 00
        E 128 b2 0b 7f
        E 0 92 25 7f
        E 128 82 25 00
        E 0 b2 0b 7f
        E 0 92 31 7f
        E 128 82 31 00
        E 128 b2 0b 7f
        E 0 92 25 7f
        E 128 82 25 00
        E 0 b2 0b 7f
        E 0 92 23 7f
        E 128 82 23 00
        E 128 b2 0b 7f
        E 0 92 23 7f
        E 128 82 23 00
        E 0 b2 0b 7f
        E 0 92 26 7f
        E 128 82 26 00
        E 128 b2 0b 7f
        E 0 92 26 7f
        E 128 82 26 00
        E 0 b2 0b 7f
        E 0 92 25 7f
        E 128 82 25 00
        E 256 b2 0b 7f
        E 0 92 1d 7f
        E 384 82 1d 00
        E 0 b2 0b 7f
        E 0 92 3a 7f
        E 256 82 3a 00
        E 0 b2 0b 7f
        E 0 92 3d 7f
        E 128 82 3d 00
        E 0 b2 0b 7f
        E 0 92 3e 7f
        E 128 82 3e 00
        E 0 b2 0b 7f
        E 0 92 3d 7f
        E 128 82 3d 00
        E 0 b2 0b 7f
        E 0 92 3e 7f
        E 128 82 3e 00
        E 128 b2 0b 7f
        E 0 92 3d 7f
        E 128 82 3d 00
        E 0 b2 0b 7f
        E 0 92 3e 7f
        E 128 82 3e 00
        E 0 b2 0b 7f
        E 0 92 3d 7f
        E 128 82 3d 00
        E 0 b2 0b 7f
        E 0 92 3e 7f
        E 128 82 3e 00
        E 0 b2 0b 7f
        E 0 92 3d 7f
        E 128 82 3d 00
        E 0 b2 0b 7f
        E 0 92 36 7f
        E 128 82 36 00
        E 256 b2 0b 7f
        E 0 92 36 7f
        E 128 82 36 00
        E 0 b2 0b 7f
        E 0 92 3b 7f
        E 128 82 3b 00
        E 0 b2 0b 7f
        E 0 92 33 7f
        E 128 82 33 00
        E 0 b2 0b 7f
        E 0 92 31 7f
        E 128 82 31 00
        E 256 b2 0b 7f
        E 0 92 35 7f
        E 384 82 35 00
        E 0 b2 0b 7f
        E 0 92 3a 7f
        E 128 82 3a 00
        E 128 b2 0b 7f
        E 0 92 25 7f
        E 128 82 25 00
        E 0 b2 0b 7f
        E 0 92 31 7f
        E 128 82 31 00
        E 128 b2 0b 7f
        E 0 92 25 7f
        E 128 82 25 00
        E 0 b2 0b 7f
        E 0 92 31 7f
        E 128 82 31 00
        E 128 b2 0b 7f
        E 0 92 25 7f
        E 128 82 25 00
        E 0 b2 0b 7f
        E 0 92 31 7f
        E 128 82 31 00
        E 128 b2 0b 7f
        E 0 92 25 7f
        E 128 82 25 00
        E 0 b2 0b 7f
        E 0 92 23 7f
        E 128 82 23 00
        E 128 b2 0b 7f
        E 0 92 23 7f
        E 128 82 23 00
        E 0 b2 0b 7f
        E 0 92 26 7f
        E 128 82 26 00
        E 128 b2 0b 7f
        E 0 92 26 7f
        E 128 82 26 00
        E 0 b2 0b 7f
        E 0 92 25 7f
        E 128 82 25 00
        E 256 b2 0b 7f
        E 0 92 1d 7f
        E 384 82 1d 00
        E 0 b2 0b 7f
        E 0 92 22 7f
        E 256 82 22 00
        E 0 b2 0b 7f
        E 0 92 23 7f
        E 128 82 23 00
        E 0 b2 0b 7f
        E 0 92 22 7f
        E 128 82 22 00
        E 128 b2 0b 7f
        E 0 92 23 7f
        E 128 82 23 00
        E 0 b2 0b 7f
        E 0 92 22 7f
        E 128 82 22 00
        E 128 b2 0b 7f
        E 0 92 23 7f
        E 128 82 23 00
        E 0 b2 0b 7f
        E 0 92 22 7f
        E 128 82 22 00
        E 128 b2 0b 7f
        E 0 92 23 7f
        E 128 82 23 00
        E 0 b2 0b 7f
        E 0 92 22 7f
        E 256 82 22 00
        E 0 b2 0b 7f
        E 0 92 23 7f
        E 128 82 23 00
        E 0 b2 0b 7f
        E 0 92 22 7f
        E 128 82 22 00
        E 128 b2 0b 7f
        E 0 92 23 7f
        E 128 82 23 00
        E 0 b2 0b 7f
        E 0 92 22 7f
        E 128 82 22 00
        E 128 b2 0b 7f
        E 0 92 23 7f
        E 128 82 23 00
        E 0 b2 0b 7f
        E 0 92 22 7f
        E 128 82 22 00
        E 128 b2 0b 7f
        E 0 92 23 7f
        E 128 82 23 00
        E 0 b2 0b 7f
        E 0 92 22 7f
        E 256 82 22 00
        E 0 b2 0b 7f
        E 0 92 23 7f
        E 128 82 23 00
        E 0 b2 0b 7f
        E 0 92 22 7f
        E 128 82 22 00
        E 128 b2 0b 7f
        E 0 92 23 7f
        E 128 82 23 00
        E 0 b2 0b 7f
        E 0 92 22 7f
        E 128 82 22 00
        E 128 b2 0b 7f
        E 0 92 23 7f
        E 128 82 23 00
        E 0 b2 0b 7f
        E 0 92 22 7f
        E 128 82 22 00
        E 128 b2 0b 7f
        E 0 92 23 7f
        E 128 82 23 00
        E 0 b2 0b 7f
        E 0 92 22 7f
        E 256 82 22 00
        E 0 b2 0b 7f
        E 0 92 23 7f
        E 128 82 23 00
        E 0 b2 0b 7f
        E 0 92 22 7f
        E 128 82 22 00
        E 128 b2 0b 7f
        E 0 92 23 7f
        E 128 82 23 00
        E 384 b2 0b 7f
        E 0 92 1c 7f
        E 384 82 1c 00
        E 0 b2 0b 7f
        E 0 92 3a 7f
        E 256 82 3a 00
        E 0 b2 0b 7f
        E 0 92 3d 7f
        E 128 82 3d 00
        E 0 b2 0b 7f
        E 0 92 3e 7f
        E 128 82 3e 00
        E 0 b2 0b 7f
        E 0 92 3d 7f
        E 128 82 3d 00
        E 0 b2 0b 7f
        E 0 92 3e 7f
        E 128 82 3e 00
        E 128 b2 0b 7f
        E 0 92 3d 7f
        E 128 82 3d 00
        E 0 b2 0b 7f
        E 0 92 3e 7f
        E 128 82 3e 00
        E 0 b2 0b 7f
        E 0 92 3d 7f
        E 128 82 3d 00
        E 0 b2 0b 7f
        E 0 92 3e 7f
        E 128 82 3e 00
        E 0 b2 0b 7f
        E 0 92 3d 7f
        E 128 82 3d 00
        E 0 b2 0b 7f
        E 0 92 36 7f
        E 128 82 36 00
        E 256 b2 0b 7f
        E 0 92 36 7f
        E 128 82 36 00
        E 0 b2 0b 7f
        E 0 92 3b 7f
        E 128 82 3b 00
        E 0 b2 0b 7f
        E 0 92 33 7f
        E 128 82 33 00
        E 0 b2 0b 7f
        E 0 92 31 7f
        E 128 82 31 00
        E 256 b2 0b 7f
        E 0 92 35 7f
        E 384 82 35 00
        E 0 b2 0b 7f
        E 0 92 3a 7f
        E 128 82 3a 00
        E 128 b2 0b 7f
        E 0 92 25 7f
        E 128 82 25 00
        E 0 b2 0b 7f
        E 0 92 31 7f
        E 128 82 31 00
        E 128 b2 0b 7f
        E 0 92 25 7f
        E 128 82 25 00
        E 0 b2 0b 7f
        E 0 92 31 7f
        E 128 82 31 00
        E 128 b2 0b 7f
        E 0 92 25 7f
        E 128 82 25 00
        E 0 b2 0b 7f
        E 0 92 31 7f
        E 128 82 31 00
        E 128 b2 0b 7f
        E 0 92 25 7f
        E 128 82 25 00
        E 0 b2 0b 7f
        E 0 92 23 7f
        E 128 82 23 00
        E 128 b2 0b 7f
        E 0 92 23 7f
        E 128 82 23 00
        E 0 b2 0b 7f
        E 0 92 26 7f
        E 128 82 26 00
        E 128 b2 0b 7f
        E 0 92 26 7f
        E 128 82 26 00
        E 0 b2 0b 7f
        E 0 92 25 7f
        E 128 82 25 00
        E 256 b2 0b 7f
        E 0 92 1d 7f
        E 384 82 1d 00
        E 0 b2 0b 7f
        E 0 92 3a 7f
        E 256 82 3a 00
        E 0 b2 0b 7f
        E 0 92 3d 7f
        E 128 82 3d 00
        E 0 b2 0b 7f
        E 0 92 3e 7f
        E 128 82 3e 00
        E 0 b2 0b 7f
        E 0 92 3d 7f
        E 128 82 3d 00
        E 0 b2 0b 7f
        E 0 92 3e 7f
        E 128 82 3e 00
        E 128 b2 0b 7f
        E 0 92 3d 7f
        E 128 82 3d 00
        E 0 b2 0b 7f
        E 0 92 3e 7f
        E 128 82 3e 00
        E 0 b2 0b 7f
        E 0 92 3d 7f
        E 128 82 3d 00
        E 0 b2 0b 7f
        E 0 92 3e 7f
        E 128 82 3e 00
        E 0 b2 0b 7f
        E 0 92 3d 7f
        E 128 82 3d 00
        E 0 b2 0b 7f
        E 0 92 36 7f
        E 128 82 36 00
        E 256 b2 0b 7f
        E 0 92 36 7f
        E 128 82 36 00
        E 0 b2 0b 7f
        E 0 92 3b 7f
        E 128 82 3b 00
        E 0 b2 0b 7f
        E 0 92 33 7f
        E 128 82 33 00
        E 0 b2 0b 7f
        E 0 92 31 7f
        E 128 82 31 00
        E 256 b2 0b 7f
        E 0 92 35 7f
        E 384 82 35 00
        E 0 b2 0b 7f
        E 0 92 3a 7f
        E 128 82 3a 00
        E 128 b2 0b 7f
        E 0 92 25 7f
        E 128 82 25 00
        E 0 b2 0b 7f
        E 0 92 31 7f
        E 128 82 31 00
        E 128 b2 0b 7f
        E 0 92 25 7f
        E 128 82 25 00
        E 0 b2 0b 7f
        E 0 92 31 7f
        E 128 82 31 00
        E 128 b2 0b 7f
        E 0 92 25 7f
        E 128 82 25 00
        E 0 b2 0b 7f
        E 0 92 31 7f
        E 128 82 31 00
        E 128 b2 0b 7f
        E 0 92 25 7f
        E 128 82 25 00
        E 0 b2 0b 7f
        E 0 92 23 7f
        E 128 82 23 00
        E 128 b2 0b 7f
        E 0 92 23 7f
        E 128 82 23 00
        E 0 b2 0b 7f
        E 0 92 26 7f
        E 128 82 26 00
        E 128 b2 0b 7f
        E 0 92 26 7f
        E 128 82 26 00
        E 0 b2 0b 7f
        E 0 92 25 7f
        E 128 82 25 00
        E 256 b2 0b 7f
        E 0 92 1d 7f
        E 384 82 1d 00
        E 0 b2 0b 7f
        E 0 92 22 7f
        E 256 82 22 00
        E 0 b2 0b 7f
        E 0 92 23 7f
        E 128 82 23 00
        E 0 b2 0b 7f
        E 0 92 22 7f
        E 128 82 22 00
        E 128 b2 0b 7f
        E 0 92 23 7f
        E 128 82 23 00
        E 0 b2 0b 7f
        E 0 92 22 7f
        E 128 82 22 00
        E 128 b2 0b 7f
        E 0 92 23 7f
        E 128 82 23 00
        E 0 b2 0b 7f
        E 0 92 22 7f
        E 128 82 22 00
        E 128 b2 0b 7f
        E 0 92 23 7f
        E 128 82 23 00
        E 0 b2 0b 7f
        E 0 92 22 7f
        E 256 82 22 00
        E 0 b2 0b 7f
        E 0 92 23 7f
        E 128 82 23 00
        E 0 b2 0b 7f
        E 0 92 22 7f
        E 128 82 22 00
        E 128 b2 0b 7f
        E 0 92 23 7f
        E 128 82 23 00
        E 0 b2 0b 7f
        E 0 92 22 7f
        E 128 82 22 00
        E 128 b2 0b 7f
        E 0 92 23 7f
        E 128 82 23 00
        E 0 b2 0b 7f
        E 0 92 22 7f
        E 128 82 22 00
        E 128 b2 0b 7f
        E 0 92 23 7f
        E 128 82 23 00
        E 0 b2 0b 7f
        E 0 92 22 7f
        E 256 82 22 00
        E 0 b2 0b 7f
        E 0 92 23 7f
        E 128 82 23 00
        E 0 b2 0b 7f
        E 0 92 22 7f
        E 128 82 22 00
        E 128 b2 0b 7f
        E 0 92 23 7f
        E 128 82 23 00
        E 0 b2 0b 7f
        E 0 92 22 7f
        E 128 82 22 00
        E 128 b2 0b 7f
        E 0 92 23 7f
        E 128 82 23 00
        E 0 b2 0b 7f
        E 0 92 22 7f
        E 128 82 22 00
        E 128 b2 0b 7f
        E 0 92 23 7f
        E 128 82 23 00
        E 0 b2 0b 7f
        E 0 92 22 7f
        E 256 82 22 00
        E 0 b2 0b 7f
        E 0 92 23 7f
        E 128 82 23 00
        E 0 b2 0b 7f
        E 0 92 22 7f
        E 128 82 22 00
        E 128 b2 0b 7f
        E 0 92 23 7f
        E 128 82 23 00
        E 384 b2 0b 7f
        E 0 92 1c 7f
        E 384 82 1c 00
        E 0 b2 0b 7f
        E 0 92 3a 7f
        E 256 82 3a 00
        E 0 b2 0b 7f
        E 0 92 3d 7f
        E 128 82 3d 00
        E 0 b2 0b 7f
        E 0 92 3e 7f
        E 128 82 3e 00
        E 0 b2 0b 7f
        E 0 92 3d 7f
        E 128 82 3d 00
        E 0 b2 0b 7f
        E 0 92 3e 7f
        E 128 82 3e 00
        E 128 b2 0b 7f
        E 0 92 3d 7f
        E 128 82 3d 00
        E 0 b2 0b 7f
        E 0 92 3e 7f
        E 128 82 3e 00
        E 0 b2 0b 7f
        E 0 92 3d 7f
        E 128 82 3d 00
        E 0 b2 0b 7f
        E 0 92 3e 7f
        E 128 82 3e 00
        E 0 b2 0b 7f
        E 0 92 3d 7f
        E 128 82 3d 00
        E 0 b2 0b 7f
        E 0 92 36 7f
        E 48 82 36 00
        E 0 b2 7b 00
        E 0 ff 2f 00
      >
    >
  >
  <TRACK {D9BE76F0-2F98-4987-B73B-0482FF4488CD}
    NAME "NES - Noise / Drums"
    PEAKCOL 11184810
    BEAT -1
    AUTOMODE 0
    PANLAWFLAGS 3
    VOLPAN 1 0 -1 -1 1
    MUTESOLO 0 0 0
    IPHASE 0
    PLAYOFFS 0 1
    ISBUS 0 0
    BUSCOMP 0 0 0 0 0
    SHOWINMIX 1 0.6667 0.5 1 0.5 0 0 0
    FIXEDLANES 9 0 0 0 0
    SEL 0
    REC 0 5088 1 0 0 0 0 0
    VU 2
    TRACKHEIGHT 0 0 0 0 0 0 0
    INQ 0 0 0 0.5 100 0 0 100
    NCHAN 2
    FX 1
    TRACKID {D9BE76F0-2F98-4987-B73B-0482FF4488CD}
    PERF 0
    MIDIOUT -1
    MAINSEND 1 0
    <FXCHAIN
      WNDRECT 24 52 700 560
      SHOW 0
      LASTSEL 0
      DOCKED 0
      BYPASS 0 0 0
      <JS "ReapNES Studio/ReapNES_Console.jsfx" ""
        2 15 1 10 80 10 100 2 1 15 1 5 60 10 80 1 1 0 50 0 0 15 1 0 100 0 0 0.500000 0.500000 0.400000 0.300000 0.800000 3 1 0 0 0 0 - - - - - - - - - - - - - - - - - - - - - - - - - -
      >
      FLOATPOS 0 0 0 0
      FXID {57549BE0-4001-42B3-943D-FE29749B4A9D}
      WAK 0 0
    >
  >
>