<REAPER_PROJECT 0.1 "7.27/win64" 1707000000
  <NOTES 0 2
    |ReapNES Studio Project
    |MIDI Import - TMNT_III_title_rom_v1
  >
  RIPPLE 0
  GROUPOVERRIDE 0 0 0
  AUTOXFADE 129
  ENVATTACH 3
  POOLEDENVATTACH 0
  MIXERUIFLAGS 11 48
  ENVFADESZ10 40
  PEAKGAIN 1
  FEEDBACK 0
  PANLAW 1
  PROJOFFS 0 0 0
  MAXPROJLEN 0 0
  GRID 3199 8 1 8 1 0 0 0
  TIMEMODE 1 5 -1 30 0 0 -1
  VIDEO_CONFIG 0 0 65792
  PANMODE 3
  PANLAWFLAGS 3
  CURSOR 0
  ZOOM 100 0 0
  VZOOMEX 6 0
  USE_REC_CFG 0
  RECMODE 1
  SMPTESYNC 0 30 100 40 1000 300 0 0 1 0 0
  LOOP 0
  LOOPGRAN 0 4
  RECORD_PATH "Media" ""
  <RECORD_CFG
    ZXZhdxgAAQ==
  >
  <APPLYFX_CFG
  >
  RENDER_FILE ""
  RENDER_PATTERN ""
  RENDER_FMT 0 2 0
  RENDER_1X 0
  RENDER_RANGE 1 0 0 18 1000
  RENDER_RESAMPLE 3 0 1
  RENDER_ADDTOPROJ 0
  RENDER_STEMS 0
  RENDER_DITHER 0
  TIMELOCKMODE 1
  TEMPOENVLOCKMODE 1
  ITEMMIX 1
  DEFPITCHMODE 589824 0
  TAKELANE 1
  SAMPLERATE 44100 0 0
  <RENDER_CFG
    ZXZhdxgAAQ==
  >
  LOCK 1
  <METRONOME 6 2
    VOL 0.25 0.125
    BEATLEN 4
    FREQ 1760 880 1
    SAMPLES "" ""
    SPLIGNORE 0 0
    SPLDEF 2 660 "" 0
    SPLDEF 3 440 "" 0
    PATTERN 0 169
    PATTERNSTR ABBB
    MULT 1
  >
  GLOBAL_AUTO -1
  TEMPO 128.59999614200012 4 4
  PLAYRATE 1 0 0.25 4
  SELECTION 0 0
  SELECTION2 0 0
  MASTERAUTOMODE 0
  MASTERTRACKHEIGHT 0 0
  MASTERPEAKCOL 16576
  MASTERMUTESOLO 0
  MASTERTRACKVIEW 0 0.6667 0.5 0.5 0 0 0 0 0 0 0 0 0 0
  MASTERHWOUT 0 0 1 0 0 0 0 -1
  MASTER_NCH 2 2
  MASTER_VOLUME 1 0 -1 -1 1
  MASTER_PANMODE 3
  MASTER_PANLAWFLAGS 3
  MASTER_FX 1
  MASTER_SEL 0
  <MASTERPLAYSPEEDENV
    EGUID {D577C544-9CA1-459A-A96C-65BFE0C34E50}
    ACT 0 -1
    VIS 0 1 1
    LANEHEIGHT 0 0
    ARM 0
    DEFSHAPE 0 -1 -1
  >
  <TEMPOENVEX
    EGUID {9AC4FFCD-758C-4256-AD33-1F50E85AC59B}
    ACT 1 -1
    VIS 1 0 1
    LANEHEIGHT 0 0
    ARM 0
    DEFSHAPE 1 -1 -1
  >
  <PROJBAY
  >
  <TRACK {E633CC6A-353C-41B3-83BB-486E9B9B4A90}
    NAME "NES - Pulse 1 [ch0]"
    PEAKCOL 16576606
    BEAT -1
    AUTOMODE 0
    PANLAWFLAGS 3
    VOLPAN 1 0 -1 -1 1
    MUTESOLO 0 0 0
    IPHASE 0
    PLAYOFFS 0 1
    ISBUS 0 0
    BUSCOMP 0 0 0 0 0
    SHOWINMIX 1 0.6667 0.5 1 0.5 0 0 0
    FIXEDLANES 9 0 0 0 0
    SEL 1
    REC 1 5088 1 0 0 0 0 0
    VU 2
    TRACKHEIGHT 0 0 0 0 0 0 0
    INQ 0 0 0 0.5 100 0 0 100
    NCHAN 2
    FX 1
    TRACKID {E633CC6A-353C-41B3-83BB-486E9B9B4A90}
    PERF 0
    MIDIOUT -1
    MAINSEND 1 0
    <FXCHAIN
      WNDRECT 24 52 700 560
      SHOW 0
      LASTSEL 0
      DOCKED 0
      BYPASS 0 0 0
      <JS "ReapNES Studio/ReapNES_Console.jsfx" ""
        2 15 1 10 80 10 100 2 1 15 1 5 60 10 80 1 1 0 50 0 0 15 1 0 100 0 0 0.500000 0.500000 0.400000 0.300000 0.800000 0 1 0 0 0 0 - - - - - - - - - - - - - - - - - - - - - - - - - -
      >
      FLOATPOS 0 0 0 0
      FXID {DB662EE5-D773-4ADD-A99B-B5469D279BB9}
      WAK 0 0
    >
    <ITEM
      POSITION 0
      LENGTH 41.5396591
      LOOP 0
      ALLTAKES 0
      FADEIN 0 0 0 0 0 0 0
      FADEOUT 0 0 0 0 0 0 0
      MUTE 0 0
      SEL 0
      IGUID {4A0368E8-91E3-4F75-8DBC-CC61F0E691DF}
      <SOURCE MIDI
        HASDATA 1 480 QN
        CCINTERP 32
        E 0 c0 50
        E 0 b0 0c 20
        E 0 b0 0b 3b
        E 0 90 2d 3b
        E 16 b0 0c 10
        E 0 b0 0b 33
        E 16 b0 0b 2a
        E 16 b0 0b 22
        E 16 b0 0b 19
        E 768 80 2d 00
        E 0 90 21 19
        E 32 80 21 00
        E 27008 b0 0c 20
        E 0 b0 0b 3b
        E 0 90 2c 3b
        E 16 b0 0c 10
        E 0 b0 0b 33
        E 16 b0 0b 2a
        E 16 b0 0b 22
        E 16 b0 0b 19
        E 768 80 2c 00
        E 0 90 21 19
        E 416 b0 0b 11
        E 0 80 21 00
        E 0 90 1d 11
        E 96 b0 0b 08
        E 96 80 1d 00
        E 192 b0 0b 19
        E 0 90 3f 19
        E 1536 80 3f 00
        E 0 90 19 19
        E 192 80 19 00
        E 0 90 1d 19
        E 256 80 1d 00
        E 0 90 21 19
        E 256 80 21 00
        E 0 90 26 19
        E 256 80 26 00
        E 0 90 2d 19
        E 256 80 2d 00
        E 0 90 38 19
        E 256 80 38 00
        E 0 90 7a 19
        E 1456 b0 0b 11
        E 96 b0 0b 08
        E 480 80 7a 00
        E 240 b0 0c 40
        E 0 b0 0b 22
        E 0 90 33 22
        E 16 b0 0c 20
        E 0 b0 0b 19
        E 16 b0 0b 11
        E 128 b0 0c 40
        E 0 b0 0b 08
        E 96 b0 0b 22
        E 16 b0 0c 20
        E 0 b0 0b 19
        E 16 b0 0b 11
        E 128 b0 0c 40
        E 0 b0 0b 08
        E 96 b0 0b 22
        E 16 b0 0c 20
        E 0 b0 0b 19
        E 16 b0 0b 11
        E 128 b0 0c 40
        E 0 b0 0b 08
        E 96 b0 0b 22
        E 16 b0 0c 20
        E 0 b0 0b 19
        E 16 b0 0b 11
        E 128 b0 0c 40
        E 0 b0 0b 08
        E 96 b0 0b 22
        E 16 b0 0c 20
        E 0 b0 0b 19
        E 16 b0 0b 11
        E 128 b0 0c 40
        E 0 b0 0b 08
        E 96 b0 0b 22
        E 16 b0 0c 20
        E 0 b0 0b 19
        E 16 b0 0b 11
        E 48 b0 0c 40
        E 0 b0 0b 08
        E 48 b0 0b 22
        E 16 b0 0c 20
        E 0 b0 0b 19
        E 16 b0 0b 11
        E 128 b0 0c 40
        E 0 b0 0b 08
        E 96 b0 0b 22
        E 16 b0 0c 20
        E 0 b0 0b 19
        E 16 b0 0b 11
        E 48 b0 0c 40
        E 0 b0 0b 08
        E 48 b0 0b 22
        E 16 b0 0c 20
        E 0 b0 0b 19
        E 16 b0 0b 11
        E 128 b0 0c 40
        E 0 b0 0b 08
        E 96 b0 0b 22
        E 16 b0 0c 20
        E 0 b0 0b 19
        E 16 b0 0b 11
        E 128 b0 0c 40
        E 0 b0 0b 08
        E 96 b0 0b 22
        E 16 b0 0c 20
        E 0 b0 0b 19
        E 16 b0 0b 11
        E 128 b0 0c 40
        E 0 b0 0b 08
        E 96 b0 0b 22
        E 16 b0 0c 20
        E 0 b0 0b 19
        E 16 b0 0b 11
        E 128 b0 0c 40
        E 0 b0 0b 08
        E 96 b0 0b 22
        E 16 b0 0c 20
        E 0 b0 0b 19
        E 16 b0 0b 11
        E 128 b0 0c 40
        E 0 b0 0b 08
        E 96 b0 0b 22
        E 16 b0 0c 20
        E 0 b0 0b 19
        E 16 b0 0b 11
        E 128 b0 0c 40
        E 0 b0 0b 08
        E 96 b0 0b 22
        E 16 b0 0c 20
        E 0 b0 0b 19
        E 16 b0 0b 11
        E 48 b0 0c 40
        E 0 b0 0b 08
        E 48 b0 0b 22
        E 16 b0 0c 20
        E 0 b0 0b 19
        E 16 b0 0b 11
        E 128 b0 0c 40
        E 0 b0 0b 08
        E 96 b0 0b 22
        E 16 b0 0c 20
        E 0 b0 0b 19
        E 16 b0 0b 11
        E 48 b0 0c 40
        E 0 b0 0b 08
        E 48 b0 0b 22
        E 16 b0 0c 20
        E 0 b0 0b 19
        E 16 b0 0b 11
        E 128 b0 0c 40
        E 0 b0 0b 08
        E 96 b0 0b 22
        E 16 b0 0c 20
        E 0 b0 0b 19
        E 16 b0 0b 11
        E 128 b0 0c 40
        E 0 b0 0b 08
        E 96 b0 0b 22
        E 16 b0 0c 20
        E 0 b0 0b 19
        E 16 b0 0b 11
        E 128 b0 0c 40
        E 0 b0 0b 08
        E 96 b0 0b 22
        E 16 b0 0c 20
        E 0 b0 0b 19
        E 16 b0 0b 11
        E 128 b0 0c 40
        E 0 b0 0b 08
        E 96 b0 0b 22
        E 16 b0 0c 20
        E 0 b0 0b 19
        E 16 b0 0b 11
        E 128 b0 0c 40
        E 0 b0 0b 08
        E 96 b0 0b 22
        E 16 80 33 00
        E 240 90 2d 22
        E 16 80 2d 00
        E 112 90 2d 22
        E 16 80 2d 00
        E 240 90 2d 22
        E 16 80 2d 00
        E 112 90 2d 22
        E 16 80 2d 00
        E 240 90 2d 22
        E 16 b0 0c 20
        E 0 b0 0b 19
        E 16 b0 0b 11
        E 48 b0 0c 40
        E 0 b0 0b 08
        E 48 b0 0b 22
        E 16 b0 0c 20
        E 0 b0 0b 19
        E 16 b0 0b 11
        E 48 b0 0c 40
        E 0 b0 0b 08
        E 48 b0 0b 22
        E 16 b0 0c 20
        E 0 b0 0b 19
        E 16 b0 0b 11
        E 48 b0 0c 40
        E 0 b0 0b 08
        E 48 b0 0b 22
        E 16 b0 0c 20
        E 0 b0 0b 19
        E 16 b0 0b 11
        E 48 b0 0c 40
        E 0 b0 0b 08
        E 48 b0 0b 22
        E 16 b0 0c 20
        E 0 b0 0b 19
        E 16 b0 0b 11
        E 128 b0 0c 40
        E 0 b0 0b 08
        E 96 b0 0b 22
        E 16 b0 0c 20
        E 0 b0 0b 19
        E 16 b0 0b 11
        E 208 b0 0c 40
        E 0 b0 0b 08
        E 144 80 2d 00
        E 128 b0 0b 22
        E 0 90 2d 22
        E 16 b0 0c 20
        E 0 b0 0b 19
        E 16 b0 0b 11
        E 48 b0 0c 40
        E 0 b0 0b 08
        E 48 b0 0b 22
        E 16 b0 0c 20
        E 0 b0 0b 19
        E 16 b0 0b 11
        E 48 b0 0c 40
        E 0 b0 0b 08
        E 48 b0 0b 22
        E 16 b0 0c 20
        E 0 b0 0b 19
        E 16 b0 0b 11
        E 128 b0 0c 40
        E 0 b0 0b 08
        E 96 80 2d 00
        E 16 b0 7b 00
        E 0 ff 2f 00
      >
    >
  >
  <TRACK {039131FC-30EB-4DA4-8EC0-021522E48530}
    NAME "NES - Pulse 2 [ch1]"
    PEAKCOL 10092441
    BEAT -1
    AUTOMODE 0
    PANLAWFLAGS 3
    VOLPAN 1 0 -1 -1 1
    MUTESOLO 0 0 0
    IPHASE 0
    PLAYOFFS 0 1
    ISBUS 0 0
    BUSCOMP 0 0 0 0 0
    SHOWINMIX 1 0.6667 0.5 1 0.5 0 0 0
    FIXEDLANES 9 0 0 0 0
    SEL 0
    REC 0 5088 1 0 0 0 0 0
    VU 2
    TRACKHEIGHT 0 0 0 0 0 0 0
    INQ 0 0 0 0.5 100 0 0 100
    NCHAN 2
    FX 1
    TRACKID {039131FC-30EB-4DA4-8EC0-021522E48530}
    PERF 0
    MIDIOUT -1
    MAINSEND 1 0
    <FXCHAIN
      WNDRECT 24 52 700 560
      SHOW 0
      LASTSEL 0
      DOCKED 0
      BYPASS 0 0 0
      <JS "ReapNES Studio/ReapNES_Console.jsfx" ""
        2 15 1 10 80 10 100 2 1 15 1 5 60 10 80 1 1 0 50 0 0 15 1 0 100 0 0 0.500000 0.500000 0.400000 0.300000 0.800000 1 1 0 0 0 0 - - - - - - - - - - - - - - - - - - - - - - - - - -
      >
      FLOATPOS 0 0 0 0
      FXID {5E886E30-BEBB-47F6-AF1F-015B215BB35D}
      WAK 0 0
    >
    <ITEM
      POSITION 0
      LENGTH 41.5396591
      LOOP 0
      ALLTAKES 0
      FADEIN 0 0 0 0 0 0 0
      FADEOUT 0 0 0 0 0 0 0
      MUTE 0 0
      SEL 0
      IGUID {E26CBABD-7AEF-4C02-8FDE-491FE34F626D}
      <SOURCE MIDI
        HASDATA 1 480 QN
        CCINTERP 32
        E 0 c1 51
        E 0 b1 0c 20
        E 0 b1 0b 3b
        E 0 91 39 3b
        E 16 b1 0c 10
        E 0 b1 0b 33
        E 16 b1 0b 2a
        E 16 b1 0b 22
        E 16 b1 0b 19
        E 672 81 39 00
        E 0 91 26 19
        E 128 81 26 00
        E 27008 b1 0c 20
        E 0 b1 0b 3b
        E 0 91 34 3b
        E 16 b1 0c 10
        E 0 b1 0b 33
        E 16 b1 0b 2a
        E 16 b1 0b 22
        E 16 b1 0b 19
        E 672 81 34 00
        E 0 91 26 19
        E 416 81 26 00
        E 0 91 21 19
        E 96 b1 0b 11
        E 96 b1 0b 08
        E 96 81 21 00
        E 96 b1 0b 2a
        E 0 91 3a 2a
        E 1280 b1 0b 33
        E 256 b1 0b 3b
        E 0 81 3a 00
        E 0 91 19 3b
        E 192 81 19 00
        E 0 91 1d 3b
        E 256 81 1d 00
        E 0 91 21 3b
        E 256 81 21 00
        E 0 91 26 3b
        E 256 81 26 00
        E 0 91 2d 3b
        E 256 81 2d 00
        E 0 91 38 3b
        E 256 81 38 00
        E 0 91 7a 3b
        E 1648 b1 0b 33
        E 96 b1 0b 2a
        E 96 b1 0b 22
        E 96 b1 0b 19
        E 96 b1 0b 11
        E 96 b1 0b 08
        E 96 81 7a 00
        E 144 b1 0c 40
        E 0 b1 0b 33
        E 0 91 33 33
        E 16 b1 0c 20
        E 0 b1 0b 2a
        E 16 b1 0b 22
        E 128 b1 0c 40
        E 0 b1 0b 08
        E 96 b1 0b 33
        E 0 81 33 00
        E 0 91 6b 33
        E 16 b1 0c 20
        E 0 b1 0b 2a
        E 16 b1 0b 22
        E 128 b1 0c 40
        E 0 b1 0b 08
        E 96 b1 0b 33
        E 0 81 6b 00
        E 0 91 2d 33
        E 16 b1 0c 20
        E 0 b1 0b 2a
        E 16 b1 0b 22
        E 128 b1 0c 40
        E 0 b1 0b 08
        E 96 b1 0b 33
        E 0 81 2d 00
        E 0 91 6b 33
        E 16 b1 0c 20
        E 0 b1 0b 2a
        E 16 b1 0b 22
        E 128 b1 0c 40
        E 0 b1 0b 08
        E 96 b1 0b 33
        E 0 81 6b 00
        E 0 91 2d 33
        E 16 b1 0c 20
        E 0 b1 0b 2a
        E 16 b1 0b 22
        E 128 b1 0c 40
        E 0 b1 0b 08
        E 96 b1 0b 33
        E 0 81 2d 00
        E 0 91 6b 33
        E 16 b1 0c 20
        E 0 b1 0b 2a
        E 16 b1 0b 22
        E 48 b1 0c 40
        E 0 b1 0b 08
        E 48 b1 0b 33
        E 0 81 6b 00
        E 0 91 2d 33
        E 16 b1 0c 20
        E 0 b1 0b 2a
        E 16 b1 0b 22
        E 128 b1 0c 40
        E 0 b1 0b 08
        E 96 b1 0b 33
        E 16 b1 0c 20
        E 0 b1 0b 2a
        E 16 b1 0b 22
        E 48 b1 0c 40
        E 0 b1 0b 08
        E 48 b1 0b 33
        E 0 81 2d 00
        E 0 91 6b 33
        E 16 b1 0c 20
        E 0 b1 0b 2a
        E 16 b1 0b 22
        E 128 b1 0c 40
        E 0 b1 0b 08
        E 96 b1 0b 33
        E 16 b1 0c 20
        E 0 b1 0b 2a
        E 16 b1 0b 22
        E 128 b1 0c 40
        E 0 b1 0b 08
        E 96 b1 0b 33
        E 16 b1 0c 20
        E 0 b1 0b 2a
        E 16 b1 0b 22
        E 128 b1 0c 40
        E 0 b1 0b 08
        E 96 b1 0b 33
        E 16 b1 0c 20
        E 0 b1 0b 2a
        E 16 b1 0b 22
        E 128 b1 0c 40
        E 0 b1 0b 08
        E 96 b1 0b 33
        E 16 b1 0c 20
        E 0 b1 0b 2a
        E 16 b1 0b 22
        E 128 b1 0c 40
        E 0 b1 0b 08
        E 96 b1 0b 33
        E 16 b1 0c 20
        E 0 b1 0b 2a
        E 16 b1 0b 22
        E 128 b1 0c 40
        E 0 b1 0b 08
        E 96 b1 0b 33
        E 16 b1 0c 20
        E 0 b1 0b 2a
        E 16 b1 0b 22
        E 48 b1 0c 40
        E 0 b1 0b 08
        E 48 b1 0b 33
        E 16 b1 0c 20
        E 0 b1 0b 2a
        E 16 b1 0b 22
        E 128 b1 0c 40
        E 0 b1 0b 08
        E 96 b1 0b 33
        E 16 b1 0c 20
        E 0 b1 0b 2a
        E 16 b1 0b 22
        E 48 b1 0c 40
        E 0 b1 0b 08
        E 48 b1 0b 33
        E 16 b1 0c 20
        E 0 b1 0b 2a
        E 16 b1 0b 22
        E 128 b1 0c 40
        E 0 b1 0b 08
        E 96 b1 0b 33
        E 16 b1 0c 20
        E 0 b1 0b 2a
        E 16 b1 0b 22
        E 128 b1 0c 40
        E 0 b1 0b 08
        E 96 b1 0b 33
        E 16 b1 0c 20
        E 0 b1 0b 2a
        E 16 b1 0b 22
        E 128 b1 0c 40
        E 0 b1 0b 08
        E 96 b1 0b 33
        E 16 b1 0c 20
        E 0 b1 0b 2a
        E 16 b1 0b 22
        E 128 b1 0c 40
        E 0 b1 0b 08
        E 96 b1 0b 33
        E 16 b1 0c 20
        E 0 b1 0b 2a
        E 16 b1 0b 22
        E 128 b1 0c 40
        E 0 b1 0b 08
        E 96 b1 0b 33
        E 16 b1 0c 20
        E 0 b1 0b 2a
        E 16 b1 0b 22
        E 128 b1 0c 40
        E 0 b1 0b 08
        E 96 b1 0b 33
        E 16 b1 0c 20
        E 0 b1 0b 2a
        E 16 b1 0b 22
        E 48 b1 0c 40
        E 0 b1 0b 08
        E 48 b1 0b 33
        E 16 b1 0c 20
        E 0 b1 0b 2a
        E 16 b1 0b 22
        E 128 b1 0c 40
        E 0 b1 0b 08
        E 96 b1 0b 33
        E 16 b1 0c 20
        E 0 b1 0b 2a
        E 16 b1 0b 22
        E 48 b1 0c 40
        E 0 b1 0b 08
        E 48 b1 0b 33
        E 16 b1 0c 20
        E 0 b1 0b 2a
        E 16 b1 0b 22
        E 128 b1 0c 40
        E 0 b1 0b 08
        E 96 b1 0b 33
        E 16 b1 0c 20
        E 0 b1 0b 2a
        E 16 b1 0b 22
        E 48 b1 0c 40
        E 0 b1 0b 08
        E 48 b1 0b 33
        E 16 b1 0c 20
        E 0 b1 0b 2a
        E 16 b1 0b 22
        E 48 b1 0c 40
        E 0 b1 0b 08
        E 48 b1 0b 33
        E 16 b1 0c 20
        E 0 b1 0b 2a
        E 16 b1 0b 22
        E 48 b1 0c 40
        E 0 b1 0b 08
        E 48 b1 0b 33
        E 16 b1 0c 20
        E 0 b1 0b 2a
        E 16 b1 0b 22
        E 48 b1 0c 40
        E 0 b1 0b 08
        E 48 b1 0b 33
        E 16 b1 0c 20
        E 0 b1 0b 2a
        E 16 b1 0b 22
        E 128 b1 0c 40
        E 0 b1 0b 08
        E 96 b1 0b 33
        E 16 b1 0c 20
        E 0 b1 0b 2a
        E 16 b1 0b 22
        E 160 81 6b 00
        E 0 91 2d 22
        E 48 b1 0c 40
        E 0 b1 0b 08
        E 144 81 2d 00
        E 128 b1 0b 33
        E 0 91 3e 33
        E 16 b1 0c 20
        E 0 b1 0b 2a
        E 16 b1 0b 22
        E 48 b1 0c 40
        E 0 b1 0b 08
        E 48 b1 0b 33
        E 16 b1 0c 20
        E 0 b1 0b 2a
        E 16 b1 0b 22
        E 48 b1 0c 40
        E 0 b1 0b 08
        E 48 b1 0b 33
        E 16 b1 0c 20
        E 0 b1 0b 2a
        E 16 b1 0b 22
        E 128 b1 0c 40
        E 0 b1 0b 08
        E 96 81 3e 00
        E 16 b1 7b 00
        E 0 ff 2f 00
      >
    >
  >
  <TRACK {B911A691-7E4E-4F8E-A68B-87591A19117A}
    NAME "NES - Triangle [ch2]"
    PEAKCOL 16744192
    BEAT -1
    AUTOMODE 0
    PANLAWFLAGS 3
    VOLPAN 1 0 -1 -1 1
    MUTESOLO 0 0 0
    IPHASE 0
    PLAYOFFS 0 1
    ISBUS 0 0
    BUSCOMP 0 0 0 0 0
    SHOWINMIX 1 0.6667 0.5 1 0.5 0 0 0
    FIXEDLANES 9 0 0 0 0
    SEL 0
    REC 0 5088 1 0 0 0 0 0
    VU 2
    TRACKHEIGHT 0 0 0 0 0 0 0
    INQ 0 0 0 0.5 100 0 0 100
    NCHAN 2
    FX 1
    TRACKID {B911A691-7E4E-4F8E-A68B-87591A19117A}
    PERF 0
    MIDIOUT -1
    MAINSEND 1 0
    <FXCHAIN
      WNDRECT 24 52 700 560
      SHOW 0
      LASTSEL 0
      DOCKED 0
      BYPASS 0 0 0
      <JS "ReapNES Studio/ReapNES_Console.jsfx" ""
        2 15 1 10 80 10 100 2 1 15 1 5 60 10 80 1 1 0 50 0 0 15 1 0 100 0 0 0.500000 0.500000 0.400000 0.300000 0.800000 2 1 0 0 0 0 - - - - - - - - - - - - - - - - - - - - - - - - - -
      >
      FLOATPOS 0 0 0 0
      FXID {F34DC1F1-C994-43C7-8210-DADD6F022E0F}
      WAK 0 0
    >
    <ITEM
      POSITION 0
      LENGTH 41.5396591
      LOOP 0
      ALLTAKES 0
      FADEIN 0 0 0 0 0 0 0
      FADEOUT 0 0 0 0 0 0 0
      MUTE 0 0
      SEL 0
      IGUID {17961673-6E55-45F7-9174-976A65898252}
      <SOURCE MIDI
        HASDATA 1 480 QN
        CCINTERP 32
        E 0 c2 26
        E 0 b2 0b 7f
        E 0 92 2d 7f
        E 736 82 2d 00
        E 0 b2 0b 7f
        E 0 92 1a 7f
        E 27136 82 1a 00
        E 0 b2 0b 7f
        E 0 92 28 7f
        E 736 82 28 00
        E 0 b2 0b 7f
        E 0 92 1a 7f
        E 416 82 1a 00
        E 0 b2 0b 7f
        E 0 92 15 7f
        E 96 82 15 00
        E 288 b2 0b 7f
        E 0 92 2f 7f
        E 64 82 2f 00
        E 0 b2 0b 7f
        E 0 92 38 7f
        E 64 82 38 00
        E 0 b2 0b 7f
        E 0 92 3b 7f
        E 64 82 3b 00
        E 0 b2 0b 7f
        E 0 92 38 7f
        E 64 82 38 00
        E 0 b2 0b 7f
        E 0 92 3b 7f
        E 64 82 3b 00
        E 0 b2 0b 7f
        E 0 92 38 7f
        E 64 82 38 00
        E 0 b2 0b 7f
        E 0 92 3b 7f
        E 64 82 3b 00
        E 0 b2 0b 7f
        E 0 92 37 7f
        E 64 82 37 00
        E 0 b2 0b 7f
        E 0 92 3a 7f
        E 64 82 3a 00
        E 0 b2 0b 7f
        E 0 92 37 7f
        E 64 82 37 00
        E 0 b2 0b 7f
        E 0 92 3a 7f
        E 64 82 3a 00
        E 0 b2 0b 7f
        E 0 92 37 7f
        E 64 82 37 00
        E 0 b2 0b 7f
        E 0 92 3a 7f
        E 64 82 3a 00
        E 0 b2 0b 7f
        E 0 92 37 7f
        E 64 82 37 00
        E 0 b2 0b 7f
        E 0 92 3a 7f
        E 64 82 3a 00
        E 0 b2 0b 7f
        E 0 92 37 7f
        E 64 82 37 00
        E 0 b2 0b 7f
        E 0 92 3a 7f
        E 64 82 3a 00
        E 0 b2 0b 7f
        E 0 92 37 7f
        E 64 82 37 00
        E 0 b2 0b 7f
        E 0 92 3a 7f
        E 64 82 3a 00
        E 0 b2 0b 7f
        E 0 92 37 7f
        E 64 82 37 00
        E 0 b2 0b 7f
        E 0 92 3a 7f
        E 64 82 3a 00
        E 0 b2 0b 7f
        E 0 92 37 7f
        E 64 82 37 00
        E 0 b2 0b 7f
        E 0 92 39 7f
        E 64 82 39 00
        E 0 b2 0b 7f
        E 0 92 36 7f
        E 64 82 36 00
        E 0 b2 0b 7f
        E 0 92 17 7f
        E 3600 82 17 00
        E 240 b2 0b 7f
        E 0 92 2a 7f
        E 96 82 2a 00
        E 32 b2 0b 7f
        E 0 92 25 7f
        E 96 82 25 00
        E 32 b2 0b 7f
        E 0 92 25 7f
        E 96 82 25 00
        E 32 b2 0b 7f
        E 0 92 25 7f
        E 96 82 25 00
        E 32 b2 0b 7f
        E 0 92 25 7f
        E 96 82 25 00
        E 32 b2 0b 7f
        E 0 92 25 7f
        E 96 82 25 00
        E 32 b2 0b 7f
        E 0 92 25 7f
        E 96 82 25 00
        E 32 b2 0b 7f
        E 0 92 25 7f
        E 96 82 25 00
        E 32 b2 0b 7f
        E 0 92 25 7f
        E 96 82 25 00
        E 32 b2 0b 7f
        E 0 92 25 7f
        E 96 82 25 00
        E 32 b2 0b 7f
        E 0 92 1c 7f
        E 96 82 1c 00
        E 32 b2 0b 7f
        E 0 92 20 7f
        E 96 82 20 00
        E 32 b2 0b 7f
        E 0 92 2b 7f
        E 96 82 2b 00
        E 32 b2 0b 7f
        E 0 92 22 7f
        E 96 82 22 00
        E 32 b2 0b 7f
        E 0 92 22 7f
        E 96 82 22 00
        E 32 b2 0b 7f
        E 0 92 25 7f
        E 96 82 25 00
        E 32 b2 0b 7f
        E 0 92 27 7f
        E 96 82 27 00
        E 32 b2 0b 7f
        E 0 92 28 7f
        E 96 82 28 00
        E 32 b2 0b 7f
        E 0 92 28 7f
        E 96 82 28 00
        E 32 b2 0b 7f
        E 0 92 28 7f
        E 96 82 28 00
        E 32 b2 0b 7f
        E 0 92 28 7f
        E 96 82 28 00
        E 32 b2 0b 7f
        E 0 92 28 7f
        E 96 82 28 00
        E 32 b2 0b 7f
        E 0 92 28 7f
        E 96 82 28 00
        E 32 b2 0b 7f
        E 0 92 28 7f
        E 96 82 28 00
        E 32 b2 0b 7f
        E 0 92 28 7f
        E 96 82 28 00
        E 32 b2 0b 7f
        E 0 92 28 7f
        E 96 82 28 00
        E 32 b2 0b 7f
        E 0 92 28 7f
        E 96 82 28 00
        E 32 b2 0b 7f
        E 0 92 23 7f
        E 96 82 23 00
        E 32 b2 0b 7f
        E 0 92 23 7f
        E 96 82 23 00
        E 32 b2 0b 7f
        E 0 92 25 7f
        E 96 82 25 00
        E 32 b2 0b 7f
        E 0 92 25 7f
        E 96 82 25 00
        E 32 b2 0b 7f
        E 0 92 28 7f
        E 96 82 28 00
        E 32 b2 0b 7f
        E 0 92 29 7f
        E 96 82 29 00
        E 32 b2 0b 7f
        E 0 92 2a 7f
        E 96 82 2a 00
        E 32 b2 0b 7f
        E 0 92 2a 7f
        E 96 82 2a 00
        E 32 b2 0b 7f
        E 0 92 2a 7f
        E 96 82 2a 00
        E 32 b2 0b 7f
        E 0 92 2a 7f
        E 96 82 2a 00
        E 32 b2 0b 7f
        E 0 92 2a 7f
        E 96 82 2a 00
        E 32 b2 0b 7f
        E 0 92 2a 7f
        E 96 82 2a 00
        E 32 b2 0b 7f
        E 0 92 2b 7f
        E 96 82 2b 00
        E 32 b2 0b 7f
        E 0 92 52 7f
        E 96 82 52 00
        E 32 b2 0b 7f
        E 0 92 2d 7f
        E 96 82 2d 00
        E 32 b2 0b 7f
        E 0 92 2d 7f
        E 96 82 2d 00
        E 32 b2 0b 7f
        E 0 92 2d 7f
        E 96 82 2d 00
        E 32 b2 0b 7f
        E 0 92 2d 7f
        E 96 82 2d 00
        E 32 b2 0b 7f
        E 0 92 2d 7f
        E 96 82 2d 00
        E 32 b2 0b 7f
        E 0 92 2d 7f
        E 96 82 2d 00
        E 32 b2 0b 7f
        E 0 92 2f 7f
        E 96 82 2f 00
        E 32 b2 0b 7f
        E 0 92 2f 7f
        E 96 82 2f 00
        E 32 b2 0b 7f
        E 0 92 31 7f
        E 96 82 31 00
        E 32 b2 0b 7f
        E 0 92 31 7f
        E 96 82 31 00
        E 32 b2 0b 7f
        E 0 92 31 7f
        E 96 82 31 00
        E 32 b2 0b 7f
        E 0 92 31 7f
        E 176 82 31 00
        E 80 b2 0b 7f
        E 0 92 2f 7f
        E 176 82 2f 00
        E 336 b2 0b 7f
        E 0 92 31 7f
        E 96 82 31 00
        E 32 b2 0b 7f
        E 0 92 31 7f
        E 96 82 31 00
        E 32 b2 0b 7f
        E 0 92 31 7f
        E 96 82 31 00
        E 176 b2 7b 00
        E 0 ff 2f 00
      >
    >
  >
  <TRACK {32BD40B4-5053-40A4-A655-098F9084D2E2}
    NAME "NES - Noise / Drums [ch3]"
    PEAKCOL 11184810
    BEAT -1
    AUTOMODE 0
    PANLAWFLAGS 3
    VOLPAN 1 0 -1 -1 1
    MUTESOLO 0 0 0
    IPHASE 0
    PLAYOFFS 0 1
    ISBUS 0 0
    BUSCOMP 0 0 0 0 0
    SHOWINMIX 1 0.6667 0.5 1 0.5 0 0 0
    FIXEDLANES 9 0 0 0 0
    SEL 0
    REC 0 5088 1 0 0 0 0 0
    VU 2
    TRACKHEIGHT 0 0 0 0 0 0 0
    INQ 0 0 0 0.5 100 0 0 100
    NCHAN 2
    FX 1
    TRACKID {32BD40B4-5053-40A4-A655-098F9084D2E2}
    PERF 0
    MIDIOUT -1
    MAINSEND 1 0
    <FXCHAIN
      WNDRECT 24 52 700 560
      SHOW 0
      LASTSEL 0
      DOCKED 0
      BYPASS 0 0 0
      <JS "ReapNES Studio/ReapNES_Console.jsfx" ""
        2 15 1 10 80 10 100 2 1 15 1 5 60 10 80 1 1 0 50 0 0 15 1 0 100 0 0 0.500000 0.500000 0.400000 0.300000 0.800000 3 1 0 0 0 0 - - - - - - - - - - - - - - - - - - - - - - - - - -
      >
      FLOATPOS 0 0 0 0
      FXID {B3FC6EAF-AAC0-41BE-B273-745FCDCE8526}
      WAK 0 0
    >
    <ITEM
      POSITION 0
      LENGTH 41.5396591
      LOOP 0
      ALLTAKES 0
      FADEIN 0 0 0 0 0 0 0
      FADEOUT 0 0 0 0 0 0 0
      MUTE 0 0
      SEL 0
      IGUID {E64F2D64-C44A-4C95-9A35-611BA3E442E1}
      <SOURCE MIDI
        HASDATA 1 480 QN
        CCINTERP 32
        E 80 93 2a 33
        E 16 83 2a 00
        E 0 93 2a 22
        E 48 83 2a 00
        E 0 93 2a 33
        E 16 83 2a 00
        E 0 93 2a 22
        E 48 83 2a 00
        E 0 93 2a 33
        E 16 83 2a 00
        E 0 93 2a 22
        E 48 83 2a 00
        E 0 93 2a 33
        E 16 83 2a 00
        E 0 93 2a 22
        E 48 83 2a 00
        E 0 93 2a 33
        E 16 83 2a 00
        E 0 93 2a 22
        E 112 83 2a 00
        E 0 93 2a 33
        E 16 83 2a 00
        E 0 93 2a 22
        E 48 83 2a 00
        E 0 93 2a 33
        E 16 83 2a 00
        E 0 93 2a 22
        E 48 83 2a 00
        E 0 93 2a 33
        E 16 83 2a 00
        E 0 93 2a 22
        E 48 83 2a 00
        E 0 93 2a 33
        E 16 83 2a 00
        E 0 93 2a 22
        E 48 83 2a 00
        E 0 93 2a 33
        E 16 83 2a 00
        E 0 93 2a 22
        E 112 83 2a 00
        E 0 93 2a 33
        E 16 83 2a 00
        E 27088 93 2a 33
        E 16 83 2a 00
        E 0 93 2a 22
        E 48 83 2a 00
        E 0 93 2a 33
        E 16 83 2a 00
        E 0 93 2a 22
        E 48 83 2a 00
        E 0 93 2a 33
        E 16 83 2a 00
        E 0 93 2a 22
        E 48 83 2a 00
        E 0 93 2a 33
        E 16 83 2a 00
        E 0 93 2a 22
        E 48 83 2a 00
        E 0 93 2a 33
        E 16 83 2a 00
        E 0 93 2a 22
        E 112 83 2a 00
        E 0 93 2a 33
        E 16 83 2a 00
        E 0 93 2a 22
        E 48 83 2a 00
        E 0 93 2a 33
        E 16 83 2a 00
        E 0 93 2a 22
        E 48 83 2a 00
        E 0 93 2a 33
        E 16 83 2a 00
        E 0 93 2a 22
        E 48 83 2a 00
        E 0 93 2a 33
        E 16 83 2a 00
        E 0 93 2a 22
        E 48 83 2a 00
        E 0 93 2a 33
        E 16 83 2a 00
        E 0 93 2a 22
        E 112 83 2a 00
        E 0 93 2a 33
        E 16 83 2a 00
        E 0 93 2a 22
        E 48 83 2a 00
        E 0 93 2a 33
        E 16 83 2a 00
        E 0 93 2a 22
        E 48 83 2a 00
        E 0 93 2a 33
        E 16 83 2a 00
        E 0 93 2a 22
        E 48 83 2a 00
        E 0 93 2a 33
        E 16 83 2a 00
        E 0 93 2a 22
        E 48 83 2a 00
        E 0 93 2a 33
        E 16 83 2a 00
        E 0 93 2a 22
        E 400 83 2a 00
        E 1568 93 2a 33
        E 144 83 2a 00
        E 0 93 2a 22
        E 400 83 2a 00
        E 3408 93 2a 33
        E 16 83 2a 00
        E 0 93 2a 08
        E 16 83 2a 00
        E 224 93 2a 33
        E 16 83 2a 00
        E 0 93 2a 08
        E 16 83 2a 00
        E 224 93 2a 33
        E 16 83 2a 00
        E 0 93 2a 08
        E 16 83 2a 00
        E 224 93 2a 33
        E 16 83 2a 00
        E 0 93 2a 08
        E 16 83 2a 00
        E 224 93 2a 33
        E 16 83 2a 00
        E 0 93 2a 08
        E 16 83 2a 00
        E 352 93 2a 33
        E 16 83 2a 00
        E 0 93 2a 08
        E 16 83 2a 00
        E 352 93 2a 33
        E 16 83 2a 00
        E 0 93 2a 08
        E 16 83 2a 00
        E 224 93 2a 33
        E 16 83 2a 00
        E 0 93 2a 08
        E 16 83 2a 00
        E 224 93 2a 33
        E 16 83 2a 00
        E 0 93 2a 08
        E 16 83 2a 00
        E 224 93 2a 33
        E 16 83 2a 00
        E 0 93 2a 08
        E 16 83 2a 00
        E 224 93 2a 33
        E 16 83 2a 00
        E 0 93 2a 08
        E 16 83 2a 00
        E 224 93 2a 33
        E 16 83 2a 00
        E 0 93 2a 08
        E 16 83 2a 00
        E 352 93 2a 33
        E 16 83 2a 00
        E 0 93 2a 08
        E 16 83 2a 00
        E 352 93 2a 33
        E 16 83 2a 00
        E 0 93 2a 08
        E 16 83 2a 00
        E 224 93 2a 33
        E 16 83 2a 00
        E 0 93 2a 08
        E 16 83 2a 00
        E 224 93 2a 33
        E 16 83 2a 00
        E 0 93 2a 08
        E 16 83 2a 00
        E 224 93 2a 33
        E 16 83 2a 00
        E 0 93 2a 08
        E 16 83 2a 00
        E 224 93 2a 33
        E 16 83 2a 00
        E 0 93 2a 08
        E 16 83 2a 00
        E 224 93 2a 33
        E 16 83 2a 00
        E 0 93 2a 08
        E 16 83 2a 00
        E 352 93 2a 33
        E 16 83 2a 00
        E 0 93 2a 08
        E 16 83 2a 00
        E 352 93 2a 33
        E 16 83 2a 00
        E 0 93 2a 08
        E 16 83 2a 00
        E 1904 b3 7b 00
        E 0 ff 2f 00
      >
    >
  >
>