<REAPER_PROJECT 0.1 "7.27/win64" 1707000000
  <NOTES 0 2
    |ReapNES Studio Project
    |MIDI Import - Final_Fantasy_II_title_rom_v1
  >
  RIPPLE 0
  GROUPOVERRIDE 0 0 0
  AUTOXFADE 129
  ENVATTACH 3
  POOLEDENVATTACH 0
  MIXERUIFLAGS 11 48
  ENVFADESZ10 40
  PEAKGAIN 1
  FEEDBACK 0
  PANLAW 1
  PROJOFFS 0 0 0
  MAXPROJLEN 0 0
  GRID 3199 8 1 8 1 0 0 0
  TIMEMODE 1 5 -1 30 0 0 -1
  VIDEO_CONFIG 0 0 65792
  PANMODE 3
  PANLAWFLAGS 3
  CURSOR 0
  ZOOM 100 0 0
  VZOOMEX 6 0
  USE_REC_CFG 0
  RECMODE 1
  SMPTESYNC 0 30 100 40 1000 300 0 0 1 0 0
  LOOP 0
  LOOPGRAN 0 4
  RECORD_PATH "Media" ""
  <RECORD_CFG
    ZXZhdxgAAQ==
  >
  <APPLYFX_CFG
  >
  RENDER_FILE ""
  RENDER_PATTERN ""
  RENDER_FMT 0 2 0
  RENDER_1X 0
  RENDER_RANGE 1 0 0 18 1000
  RENDER_RESAMPLE 3 0 1
  RENDER_ADDTOPROJ 0
  RENDER_STEMS 0
  RENDER_DITHER 0
  TIMELOCKMODE 1
  TEMPOENVLOCKMODE 1
  ITEMMIX 1
  DEFPITCHMODE 589824 0
  TAKELANE 1
  SAMPLERATE 44100 0 0
  <RENDER_CFG
    ZXZhdxgAAQ==
  >
  LOCK 1
  <METRONOME 6 2
    VOL 0.25 0.125
    BEATLEN 4
    FREQ 1760 880 1
    SAMPLES "" ""
    SPLIGNORE 0 0
    SPLDEF 2 660 "" 0
    SPLDEF 3 440 "" 0
    PATTERN 0 169
    PATTERNSTR ABBB
    MULT 1
  >
  GLOBAL_AUTO -1
  TEMPO 128.59999614200012 4 4
  PLAYRATE 1 0 0.25 4
  SELECTION 0 0
  SELECTION2 0 0
  MASTERAUTOMODE 0
  MASTERTRACKHEIGHT 0 0
  MASTERPEAKCOL 16576
  MASTERMUTESOLO 0
  MASTERTRACKVIEW 0 0.6667 0.5 0.5 0 0 0 0 0 0 0 0 0 0
  MASTERHWOUT 0 0 1 0 0 0 0 -1
  MASTER_NCH 2 2
  MASTER_VOLUME 1 0 -1 -1 1
  MASTER_PANMODE 3
  MASTER_PANLAWFLAGS 3
  MASTER_FX 1
  MASTER_SEL 0
  <MASTERPLAYSPEEDENV
    EGUID {4D3D8B29-6435-4E6F-BDF9-7FAC1F1FA7B9}
    ACT 0 -1
    VIS 0 1 1
    LANEHEIGHT 0 0
    ARM 0
    DEFSHAPE 0 -1 -1
  >
  <TEMPOENVEX
    EGUID {FA675EF9-7593-4A26-81D6-B21DB9BF49E5}
    ACT 1 -1
    VIS 1 0 1
    LANEHEIGHT 0 0
    ARM 0
    DEFSHAPE 1 -1 -1
  >
  <PROJBAY
  >
  <TRACK {20C7F24A-6028-40C8-9BE1-83AC48096027}
    NAME "NES - Pulse 1 [ch0]"
    PEAKCOL 16576606
    BEAT -1
    AUTOMODE 0
    PANLAWFLAGS 3
    VOLPAN 1 0 -1 -1 1
    MUTESOLO 0 0 0
    IPHASE 0
    PLAYOFFS 0 1
    ISBUS 0 0
    BUSCOMP 0 0 0 0 0
    SHOWINMIX 1 0.6667 0.5 1 0.5 0 0 0
    FIXEDLANES 9 0 0 0 0
    SEL 1
    REC 1 5088 1 0 0 0 0 0
    VU 2
    TRACKHEIGHT 0 0 0 0 0 0 0
    INQ 0 0 0 0.5 100 0 0 100
    NCHAN 2
    FX 1
    TRACKID {20C7F24A-6028-40C8-9BE1-83AC48096027}
    PERF 0
    MIDIOUT -1
    MAINSEND 1 0
    <FXCHAIN
      WNDRECT 24 52 700 560
      SHOW 0
      LASTSEL 0
      DOCKED 0
      BYPASS 0 0 0
      <JS "ReapNES Studio/ReapNES_Console.jsfx" ""
        2 15 1 10 80 10 100 2 1 15 1 5 60 10 80 1 1 0 50 0 0 15 1 0 100 0 0 0.500000 0.500000 0.400000 0.300000 0.800000 0 1 0 0 0 0 - - - - - - - - - - - - - - - - - - - - - - - - - -
      >
      FLOATPOS 0 0 0 0
      FXID {E7B9A9B3-495D-40D2-82AF-C1730458D396}
      WAK 0 0
    >
    <ITEM
      POSITION 0
      LENGTH 50.513220800000006
      LOOP 0
      ALLTAKES 0
      FADEIN 0 0 0 0 0 0 0
      FADEOUT 0 0 0 0 0 0 0
      MUTE 0 0
      SEL 0
      IGUID {F18A467F-74C1-4F04-A875-AB55112E528E}
      <SOURCE MIDI
        HASDATA 1 480 QN
        CCINTERP 32
        E 0 c0 50
        E 0 b0 0c 40
        E 0 b0 0b 7f
        E 0 90 24 7f
        E 32 b0 0b 6e
        E 32 b0 0b 5d
        E 32 b0 0b 4c
        E 32 b0 0b 3b
        E 16 b0 0b 7f
        E 0 80 24 00
        E 0 90 26 7f
        E 32 b0 0b 6e
        E 32 b0 0b 5d
        E 32 b0 0b 4c
        E 32 b0 0b 3b
        E 16 b0 0b 7f
        E 0 80 26 00
        E 0 90 28 7f
        E 32 b0 0b 6e
        E 32 b0 0b 5d
        E 32 b0 0b 4c
        E 32 b0 0b 3b
        E 16 b0 0b 7f
        E 0 80 28 00
        E 0 90 2b 7f
        E 32 b0 0b 6e
        E 32 b0 0b 5d
        E 32 b0 0b 4c
        E 32 b0 0b 3b
        E 16 b0 0b 7f
        E 0 80 2b 00
        E 0 90 30 7f
        E 32 b0 0b 6e
        E 32 b0 0b 5d
        E 32 b0 0b 4c
        E 32 b0 0b 3b
        E 16 b0 0b 7f
        E 0 80 30 00
        E 0 90 32 7f
        E 32 b0 0b 6e
        E 32 b0 0b 5d
        E 32 b0 0b 4c
        E 32 b0 0b 3b
        E 16 b0 0b 7f
        E 0 80 32 00
        E 0 90 34 7f
        E 32 b0 0b 6e
        E 32 b0 0b 5d
        E 32 b0 0b 4c
        E 32 b0 0b 3b
        E 16 b0 0b 7f
        E 0 80 34 00
        E 0 90 37 7f
        E 32 b0 0b 6e
        E 32 b0 0b 5d
        E 32 b0 0b 4c
        E 32 b0 0b 3b
        E 16 b0 0b 7f
        E 0 80 37 00
        E 0 90 3c 7f
        E 32 b0 0b 6e
        E 32 b0 0b 5d
        E 32 b0 0b 4c
        E 32 b0 0b 3b
        E 16 b0 0b 7f
        E 0 80 3c 00
        E 0 90 3e 7f
        E 32 b0 0b 6e
        E 32 b0 0b 5d
        E 32 b0 0b 4c
        E 32 b0 0b 3b
        E 16 b0 0b 7f
        E 0 80 3e 00
        E 0 90 40 7f
        E 32 b0 0b 6e
        E 32 b0 0b 5d
        E 32 b0 0b 4c
        E 32 b0 0b 3b
        E 16 b0 0b 7f
        E 0 80 40 00
        E 0 90 43 7f
        E 32 b0 0b 6e
        E 32 b0 0b 5d
        E 32 b0 0b 4c
        E 32 b0 0b 3b
        E 16 b0 0b 7f
        E 0 80 43 00
        E 0 90 48 7f
        E 32 b0 0b 6e
        E 32 b0 0b 5d
        E 32 b0 0b 4c
        E 32 b0 0b 3b
        E 16 b0 0b 7f
        E 0 80 48 00
        E 0 90 4a 7f
        E 32 b0 0b 6e
        E 32 b0 0b 5d
        E 32 b0 0b 4c
        E 32 b0 0b 3b
        E 16 b0 0b 7f
        E 0 80 4a 00
        E 0 90 4c 7f
        E 32 b0 0b 6e
        E 32 b0 0b 5d
        E 32 b0 0b 4c
        E 32 b0 0b 3b
        E 16 b0 0b 7f
        E 0 80 4c 00
        E 0 90 4f 7f
        E 32 b0 0b 6e
        E 32 b0 0b 5d
        E 32 b0 0b 4c
        E 32 b0 0b 3b
        E 16 b0 0b 7f
        E 0 80 4f 00
        E 0 90 54 7f
        E 32 b0 0b 6e
        E 32 b0 0b 5d
        E 32 b0 0b 4c
        E 32 b0 0b 3b
        E 16 b0 0b 7f
        E 0 80 54 00
        E 0 90 4f 7f
        E 32 b0 0b 6e
        E 32 b0 0b 5d
        E 32 b0 0b 4c
        E 32 b0 0b 3b
        E 16 b0 0b 7f
        E 0 80 4f 00
        E 0 90 4c 7f
        E 32 b0 0b 6e
        E 32 b0 0b 5d
        E 32 b0 0b 4c
        E 32 b0 0b 3b
        E 16 b0 0b 7f
        E 0 80 4c 00
        E 0 90 4a 7f
        E 32 b0 0b 6e
        E 32 b0 0b 5d
        E 32 b0 0b 4c
        E 32 b0 0b 3b
        E 16 b0 0b 7f
        E 0 80 4a 00
        E 0 90 48 7f
        E 32 b0 0b 6e
        E 32 b0 0b 5d
        E 32 b0 0b 4c
        E 32 b0 0b 3b
        E 16 b0 0b 7f
        E 0 80 48 00
        E 0 90 43 7f
        E 32 b0 0b 6e
        E 32 b0 0b 5d
        E 32 b0 0b 4c
        E 32 b0 0b 3b
        E 16 b0 0b 7f
        E 0 80 43 00
        E 0 90 40 7f
        E 32 b0 0b 6e
        E 32 b0 0b 5d
        E 32 b0 0b 4c
        E 32 b0 0b 3b
        E 16 b0 0b 7f
        E 0 80 40 00
        E 0 90 3e 7f
        E 32 b0 0b 6e
        E 32 b0 0b 5d
        E 32 b0 0b 4c
        E 32 b0 0b 3b
        E 16 b0 0b 7f
        E 0 80 3e 00
        E 0 90 3c 7f
        E 32 b0 0b 6e
        E 32 b0 0b 5d
        E 32 b0 0b 4c
        E 32 b0 0b 3b
        E 16 b0 0b 7f
        E 0 80 3c 00
        E 0 90 37 7f
        E 32 b0 0b 6e
        E 32 b0 0b 5d
        E 32 b0 0b 4c
        E 32 b0 0b 3b
        E 16 b0 0b 7f
        E 0 80 37 00
        E 0 90 34 7f
        E 32 b0 0b 6e
        E 32 b0 0b 5d
        E 32 b0 0b 4c
        E 32 b0 0b 3b
        E 16 b0 0b 7f
        E 0 80 34 00
        E 0 90 32 7f
        E 32 b0 0b 6e
        E 32 b0 0b 5d
        E 32 b0 0b 4c
        E 32 b0 0b 3b
        E 16 b0 0b 7f
        E 0 80 32 00
        E 0 90 30 7f
        E 32 b0 0b 6e
        E 32 b0 0b 5d
        E 32 b0 0b 4c
        E 32 b0 0b 3b
        E 16 b0 0b 7f
        E 0 80 30 00
        E 0 90 2b 7f
        E 32 b0 0b 6e
        E 32 b0 0b 5d
        E 32 b0 0b 4c
        E 32 b0 0b 3b
        E 16 b0 0b 7f
        E 0 80 2b 00
        E 0 90 28 7f
        E 32 b0 0b 6e
        E 32 b0 0b 5d
        E 32 b0 0b 4c
        E 32 b0 0b 3b
        E 16 b0 0b 7f
        E 0 80 28 00
        E 0 90 26 7f
        E 32 b0 0b 6e
        E 32 b0 0b 5d
        E 32 b0 0b 4c
        E 32 b0 0b 3b
        E 16 b0 0b 7f
        E 0 80 26 00
        E 0 90 21 7f
        E 32 b0 0b 6e
        E 32 b0 0b 5d
        E 32 b0 0b 4c
        E 32 b0 0b 3b
        E 16 b0 0b 7f
        E 0 80 21 00
        E 0 90 23 7f
        E 32 b0 0b 6e
        E 32 b0 0b 5d
        E 32 b0 0b 4c
        E 32 b0 0b 3b
        E 16 b0 0b 7f
        E 0 80 23 00
        E 0 90 24 7f
        E 32 b0 0b 6e
        E 32 b0 0b 5d
        E 32 b0 0b 4c
        E 32 b0 0b 3b
        E 16 b0 0b 7f
        E 0 80 24 00
        E 0 90 28 7f
        E 32 b0 0b 6e
        E 32 b0 0b 5d
        E 32 b0 0b 4c
        E 32 b0 0b 3b
        E 16 b0 0b 7f
        E 0 80 28 00
        E 0 90 2d 7f
        E 32 b0 0b 6e
        E 32 b0 0b 5d
        E 32 b0 0b 4c
        E 32 b0 0b 3b
        E 16 b0 0b 7f
        E 0 80 2d 00
        E 0 90 2f 7f
        E 32 b0 0b 6e
        E 32 b0 0b 5d
        E 32 b0 0b 4c
        E 32 b0 0b 3b
        E 16 b0 0b 7f
        E 0 80 2f 00
        E 0 90 30 7f
        E 32 b0 0b 6e
        E 32 b0 0b 5d
        E 32 b0 0b 4c
        E 32 b0 0b 3b
        E 16 b0 0b 7f
        E 0 80 30 00
        E 0 90 34 7f
        E 32 b0 0b 6e
        E 32 b0 0b 5d
        E 32 b0 0b 4c
        E 32 b0 0b 3b
        E 16 b0 0b 7f
        E 0 80 34 00
        E 0 90 39 7f
        E 32 b0 0b 6e
        E 32 b0 0b 5d
        E 32 b0 0b 4c
        E 32 b0 0b 3b
        E 16 b0 0b 7f
        E 0 80 39 00
        E 0 90 3b 7f
        E 32 b0 0b 6e
        E 32 b0 0b 5d
        E 32 b0 0b 4c
        E 32 b0 0b 3b
        E 16 b0 0b 7f
        E 0 80 3b 00
        E 0 90 3c 7f
        E 32 b0 0b 6e
        E 32 b0 0b 5d
        E 32 b0 0b 4c
        E 32 b0 0b 3b
        E 16 b0 0b 7f
        E 0 80 3c 00
        E 0 90 40 7f
        E 32 b0 0b 6e
        E 32 b0 0b 5d
        E 32 b0 0b 4c
        E 32 b0 0b 3b
        E 16 b0 0b 7f
        E 0 80 40 00
        E 0 90 45 7f
        E 32 b0 0b 6e
        E 32 b0 0b 5d
        E 32 b0 0b 4c
        E 32 b0 0b 3b
        E 16 b0 0b 7f
        E 0 80 45 00
        E 0 90 47 7f
        E 32 b0 0b 6e
        E 32 b0 0b 5d
        E 32 b0 0b 4c
        E 32 b0 0b 3b
        E 16 b0 0b 7f
        E 0 80 47 00
        E 0 90 48 7f
        E 32 b0 0b 6e
        E 32 b0 0b 5d
        E 32 b0 0b 4c
        E 32 b0 0b 3b
        E 16 b0 0b 7f
        E 0 80 48 00
        E 0 90 4c 7f
        E 32 b0 0b 6e
        E 32 b0 0b 5d
        E 32 b0 0b 4c
        E 32 b0 0b 3b
        E 16 b0 0b 7f
        E 0 80 4c 00
        E 0 90 51 7f
        E 32 b0 0b 6e
        E 32 b0 0b 5d
        E 32 b0 0b 4c
        E 32 b0 0b 3b
        E 16 b0 0b 7f
        E 0 80 51 00
        E 0 90 4c 7f
        E 32 b0 0b 6e
        E 32 b0 0b 5d
        E 32 b0 0b 4c
        E 32 b0 0b 3b
        E 16 b0 0b 7f
        E 0 80 4c 00
        E 0 90 48 7f
        E 32 b0 0b 6e
        E 32 b0 0b 5d
        E 32 b0 0b 4c
        E 32 b0 0b 3b
        E 16 b0 0b 7f
        E 0 80 48 00
        E 0 90 47 7f
        E 32 b0 0b 6e
        E 32 b0 0b 5d
        E 32 b0 0b 4c
        E 32 b0 0b 3b
        E 16 b0 0b 7f
        E 0 80 47 00
        E 0 90 45 7f
        E 32 b0 0b 6e
        E 32 b0 0b 5d
        E 32 b0 0b 4c
        E 32 b0 0b 3b
        E 16 b0 0b 7f
        E 0 80 45 00
        E 0 90 40 7f
        E 32 b0 0b 6e
        E 32 b0 0b 5d
        E 32 b0 0b 4c
        E 32 b0 0b 3b
        E 16 b0 0b 7f
        E 0 80 40 00
        E 0 90 3c 7f
        E 32 b0 0b 6e
        E 32 b0 0b 5d
        E 32 b0 0b 4c
        E 32 b0 0b 3b
        E 16 b0 0b 7f
        E 0 80 3c 00
        E 0 90 3b 7f
        E 32 b0 0b 6e
        E 32 b0 0b 5d
        E 32 b0 0b 4c
        E 32 b0 0b 3b
        E 16 b0 0b 7f
        E 0 80 3b 00
        E 0 90 39 7f
        E 32 b0 0b 6e
        E 32 b0 0b 5d
        E 32 b0 0b 4c
        E 32 b0 0b 3b
        E 16 b0 0b 7f
        E 0 80 39 00
        E 0 90 34 7f
        E 32 b0 0b 6e
        E 32 b0 0b 5d
        E 32 b0 0b 4c
        E 32 b0 0b 3b
        E 16 b0 0b 7f
        E 0 80 34 00
        E 0 90 30 7f
        E 32 b0 0b 6e
        E 32 b0 0b 5d
        E 32 b0 0b 4c
        E 32 b0 0b 3b
        E 16 b0 0b 7f
        E 0 80 30 00
        E 0 90 2f 7f
        E 32 b0 0b 6e
        E 32 b0 0b 5d
        E 32 b0 0b 4c
        E 32 b0 0b 3b
        E 16 b0 0b 7f
        E 0 80 2f 00
        E 0 90 2d 7f
        E 32 b0 0b 6e
        E 32 b0 0b 5d
        E 32 b0 0b 4c
        E 32 b0 0b 3b
        E 16 b0 0b 7f
        E 0 80 2d 00
        E 0 90 28 7f
        E 32 b0 0b 6e
        E 32 b0 0b 5d
        E 32 b0 0b 4c
        E 32 b0 0b 3b
        E 16 b0 0b 7f
        E 0 80 28 00
        E 0 90 24 7f
        E 32 b0 0b 6e
        E 32 b0 0b 5d
        E 32 b0 0b 4c
        E 32 b0 0b 3b
        E 16 b0 0b 7f
        E 0 80 24 00
        E 0 90 23 7f
        E 32 b0 0b 6e
        E 32 b0 0b 5d
        E 32 b0 0b 4c
        E 32 b0 0b 3b
        E 16 b0 0b 7f
        E 0 80 23 00
        E 0 90 24 7f
        E 32 b0 0b 6e
        E 32 b0 0b 5d
        E 32 b0 0b 4c
        E 32 b0 0b 3b
        E 16 b0 0b 7f
        E 0 80 24 00
        E 0 90 26 7f
        E 32 b0 0b 6e
        E 32 b0 0b 5d
        E 32 b0 0b 4c
        E 32 b0 0b 3b
        E 16 b0 0b 7f
        E 0 80 26 00
        E 0 90 28 7f
        E 32 b0 0b 6e
        E 32 b0 0b 5d
        E 32 b0 0b 4c
        E 32 b0 0b 3b
        E 16 b0 0b 7f
        E 0 80 28 00
        E 0 90 2b 7f
        E 32 b0 0b 6e
        E 32 b0 0b 5d
        E 32 b0 0b 4c
        E 32 b0 0b 3b
        E 16 b0 0b 7f
        E 0 80 2b 00
        E 0 90 30 7f
        E 32 b0 0b 6e
        E 32 b0 0b 5d
        E 32 b0 0b 4c
        E 32 b0 0b 3b
        E 16 b0 0b 7f
        E 0 80 30 00
        E 0 90 32 7f
        E 32 b0 0b 6e
        E 32 b0 0b 5d
        E 32 b0 0b 4c
        E 32 b0 0b 3b
        E 16 b0 0b 7f
        E 0 80 32 00
        E 0 90 34 7f
        E 32 b0 0b 6e
        E 32 b0 0b 5d
        E 32 b0 0b 4c
        E 32 b0 0b 3b
        E 16 b0 0b 7f
        E 0 80 34 00
        E 0 90 37 7f
        E 32 b0 0b 6e
        E 32 b0 0b 5d
        E 32 b0 0b 4c
        E 32 b0 0b 3b
        E 16 b0 0b 7f
        E 0 80 37 00
        E 0 90 3c 7f
        E 32 b0 0b 6e
        E 32 b0 0b 5d
        E 32 b0 0b 4c
        E 32 b0 0b 3b
        E 16 b0 0b 7f
        E 0 80 3c 00
        E 0 90 3e 7f
        E 32 b0 0b 6e
        E 32 b0 0b 5d
        E 32 b0 0b 4c
        E 32 b0 0b 3b
        E 16 b0 0b 7f
        E 0 80 3e 00
        E 0 90 40 7f
        E 32 b0 0b 6e
        E 32 b0 0b 5d
        E 32 b0 0b 4c
        E 32 b0 0b 3b
        E 16 b0 0b 7f
        E 0 80 40 00
        E 0 90 43 7f
        E 32 b0 0b 6e
        E 32 b0 0b 5d
        E 32 b0 0b 4c
        E 32 b0 0b 3b
        E 16 b0 0b 7f
        E 0 80 43 00
        E 0 90 48 7f
        E 32 b0 0b 6e
        E 32 b0 0b 5d
        E 32 b0 0b 4c
        E 32 b0 0b 3b
        E 16 b0 0b 7f
        E 0 80 48 00
        E 0 90 4a 7f
        E 32 b0 0b 6e
        E 32 b0 0b 5d
        E 32 b0 0b 4c
        E 32 b0 0b 3b
        E 16 b0 0b 7f
        E 0 80 4a 00
        E 0 90 4c 7f
        E 32 b0 0b 6e
        E 32 b0 0b 5d
        E 32 b0 0b 4c
        E 32 b0 0b 3b
        E 16 b0 0b 7f
        E 0 80 4c 00
        E 0 90 4f 7f
        E 32 b0 0b 6e
        E 32 b0 0b 5d
        E 32 b0 0b 4c
        E 32 b0 0b 3b
        E 16 b0 0b 7f
        E 0 80 4f 00
        E 0 90 54 7f
        E 32 b0 0b 6e
        E 32 b0 0b 5d
        E 32 b0 0b 4c
        E 32 b0 0b 3b
        E 16 b0 0b 7f
        E 0 80 54 00
        E 0 90 4f 7f
        E 32 b0 0b 6e
        E 32 b0 0b 5d
        E 32 b0 0b 4c
        E 32 b0 0b 3b
        E 16 b0 0b 7f
        E 0 80 4f 00
        E 0 90 4c 7f
        E 32 b0 0b 6e
        E 32 b0 0b 5d
        E 32 b0 0b 4c
        E 32 b0 0b 3b
        E 16 b0 0b 7f
        E 0 80 4c 00
        E 0 90 4a 7f
        E 32 b0 0b 6e
        E 32 b0 0b 5d
        E 32 b0 0b 4c
        E 32 b0 0b 3b
        E 16 b0 0b 7f
        E 0 80 4a 00
        E 0 90 48 7f
        E 32 b0 0b 6e
        E 32 b0 0b 5d
        E 32 b0 0b 4c
        E 32 b0 0b 3b
        E 16 b0 0b 7f
        E 0 80 48 00
        E 0 90 43 7f
        E 32 b0 0b 6e
        E 32 b0 0b 5d
        E 32 b0 0b 4c
        E 32 b0 0b 3b
        E 16 b0 0b 7f
        E 0 80 43 00
        E 0 90 40 7f
        E 32 b0 0b 6e
        E 32 b0 0b 5d
        E 32 b0 0b 4c
        E 32 b0 0b 3b
        E 16 b0 0b 7f
        E 0 80 40 00
        E 0 90 3e 7f
        E 32 b0 0b 6e
        E 32 b0 0b 5d
        E 32 b0 0b 4c
        E 32 b0 0b 3b
        E 16 b0 0b 7f
        E 0 80 3e 00
        E 0 90 3c 7f
        E 32 b0 0b 6e
        E 32 b0 0b 5d
        E 32 b0 0b 4c
        E 32 b0 0b 3b
        E 16 b0 0b 7f
        E 0 80 3c 00
        E 0 90 37 7f
        E 32 b0 0b 6e
        E 32 b0 0b 5d
        E 32 b0 0b 4c
        E 32 b0 0b 3b
        E 16 b0 0b 7f
        E 0 80 37 00
        E 0 90 34 7f
        E 32 b0 0b 6e
        E 32 b0 0b 5d
        E 32 b0 0b 4c
        E 32 b0 0b 3b
        E 16 b0 0b 7f
        E 0 80 34 00
        E 0 90 32 7f
        E 32 b0 0b 6e
        E 32 b0 0b 5d
        E 32 b0 0b 4c
        E 32 b0 0b 3b
        E 16 b0 0b 7f
        E 0 80 32 00
        E 0 90 30 7f
        E 32 b0 0b 6e
        E 32 b0 0b 5d
        E 32 b0 0b 4c
        E 32 b0 0b 3b
        E 16 b0 0b 7f
        E 0 80 30 00
        E 0 90 2b 7f
        E 32 b0 0b 6e
        E 32 b0 0b 5d
        E 32 b0 0b 4c
        E 32 b0 0b 3b
        E 16 b0 0b 7f
        E 0 80 2b 00
        E 0 90 28 7f
        E 32 b0 0b 6e
        E 32 b0 0b 5d
        E 32 b0 0b 4c
        E 32 b0 0b 3b
        E 16 b0 0b 7f
        E 0 80 28 00
        E 0 90 26 7f
        E 32 b0 0b 6e
        E 32 b0 0b 5d
        E 32 b0 0b 4c
        E 32 b0 0b 3b
        E 16 b0 0b 7f
        E 0 80 26 00
        E 0 90 21 7f
        E 32 b0 0b 6e
        E 32 b0 0b 5d
        E 32 b0 0b 4c
        E 32 b0 0b 3b
        E 16 b0 0b 7f
        E 0 80 21 00
        E 0 90 23 7f
        E 32 b0 0b 6e
        E 32 b0 0b 5d
        E 32 b0 0b 4c
        E 32 b0 0b 3b
        E 16 b0 0b 7f
        E 0 80 23 00
        E 0 90 24 7f
        E 32 b0 0b 6e
        E 32 b0 0b 5d
        E 32 b0 0b 4c
        E 32 b0 0b 3b
        E 16 b0 0b 7f
        E 0 80 24 00
        E 0 90 28 7f
        E 32 b0 0b 6e
        E 32 b0 0b 5d
        E 32 b0 0b 4c
        E 32 b0 0b 3b
        E 16 b0 0b 7f
        E 0 80 28 00
        E 0 90 2d 7f
        E 32 b0 0b 6e
        E 32 b0 0b 5d
        E 32 b0 0b 4c
        E 32 b0 0b 3b
        E 16 b0 0b 7f
        E 0 80 2d 00
        E 0 90 2f 7f
        E 32 b0 0b 6e
        E 32 b0 0b 5d
        E 32 b0 0b 4c
        E 32 b0 0b 3b
        E 16 b0 0b 7f
        E 0 80 2f 00
        E 0 90 30 7f
        E 32 b0 0b 6e
        E 32 b0 0b 5d
        E 32 b0 0b 4c
        E 32 b0 0b 3b
        E 16 b0 0b 7f
        E 0 80 30 00
        E 0 90 34 7f
        E 32 b0 0b 6e
        E 32 b0 0b 5d
        E 32 b0 0b 4c
        E 32 b0 0b 3b
        E 16 b0 0b 7f
        E 0 80 34 00
        E 0 90 39 7f
        E 32 b0 0b 6e
        E 32 b0 0b 5d
        E 32 b0 0b 4c
        E 32 b0 0b 3b
        E 16 b0 0b 7f
        E 0 80 39 00
        E 0 90 3b 7f
        E 32 b0 0b 6e
        E 32 b0 0b 5d
        E 32 b0 0b 4c
        E 32 b0 0b 3b
        E 16 b0 0b 7f
        E 0 80 3b 00
        E 0 90 3c 7f
        E 32 b0 0b 6e
        E 32 b0 0b 5d
        E 32 b0 0b 4c
        E 32 b0 0b 3b
        E 16 b0 0b 7f
        E 0 80 3c 00
        E 0 90 40 7f
        E 32 b0 0b 6e
        E 32 b0 0b 5d
        E 32 b0 0b 4c
        E 32 b0 0b 3b
        E 16 b0 0b 7f
        E 0 80 40 00
        E 0 90 45 7f
        E 32 b0 0b 6e
        E 32 b0 0b 5d
        E 32 b0 0b 4c
        E 32 b0 0b 3b
        E 16 b0 0b 7f
        E 0 80 45 00
        E 0 90 47 7f
        E 32 b0 0b 6e
        E 32 b0 0b 5d
        E 32 b0 0b 4c
        E 32 b0 0b 3b
        E 16 b0 0b 7f
        E 0 80 47 00
        E 0 90 48 7f
        E 32 b0 0b 6e
        E 32 b0 0b 5d
        E 32 b0 0b 4c
        E 32 b0 0b 3b
        E 16 b0 0b 7f
        E 0 80 48 00
        E 0 90 4c 7f
        E 32 b0 0b 6e
        E 32 b0 0b 5d
        E 32 b0 0b 4c
        E 32 b0 0b 3b
        E 16 b0 0b 7f
        E 0 80 4c 00
        E 0 90 51 7f
        E 32 b0 0b 6e
        E 32 b0 0b 5d
        E 32 b0 0b 4c
        E 32 b0 0b 3b
        E 16 b0 0b 7f
        E 0 80 51 00
        E 0 90 4c 7f
        E 32 b0 0b 6e
        E 32 b0 0b 5d
        E 32 b0 0b 4c
        E 32 b0 0b 3b
        E 16 b0 0b 7f
        E 0 80 4c 00
        E 0 90 48 7f
        E 32 b0 0b 6e
        E 32 b0 0b 5d
        E 32 b0 0b 4c
        E 32 b0 0b 3b
        E 16 b0 0b 7f
        E 0 80 48 00
        E 0 90 47 7f
        E 32 b0 0b 6e
        E 32 b0 0b 5d
        E 32 b0 0b 4c
        E 32 b0 0b 3b
        E 16 b0 0b 7f
        E 0 80 47 00
        E 0 90 45 7f
        E 32 b0 0b 6e
        E 32 b0 0b 5d
        E 32 b0 0b 4c
        E 32 b0 0b 3b
        E 16 b0 0b 7f
        E 0 80 45 00
        E 0 90 40 7f
        E 32 b0 0b 6e
        E 32 b0 0b 5d
        E 32 b0 0b 4c
        E 32 b0 0b 3b
        E 16 b0 0b 7f
        E 0 80 40 00
        E 0 90 3c 7f
        E 32 b0 0b 6e
        E 32 b0 0b 5d
        E 32 b0 0b 4c
        E 32 b0 0b 3b
        E 16 b0 0b 7f
        E 0 80 3c 00
        E 0 90 3b 7f
        E 32 b0 0b 6e
        E 32 b0 0b 5d
        E 32 b0 0b 4c
        E 32 b0 0b 3b
        E 16 b0 0b 7f
        E 0 80 3b 00
        E 0 90 39 7f
        E 32 b0 0b 6e
        E 32 b0 0b 5d
        E 32 b0 0b 4c
        E 32 b0 0b 3b
        E 16 b0 0b 7f
        E 0 80 39 00
        E 0 90 34 7f
        E 32 b0 0b 6e
        E 32 b0 0b 5d
        E 32 b0 0b 4c
        E 32 b0 0b 3b
        E 16 b0 0b 7f
        E 0 80 34 00
        E 0 90 30 7f
        E 32 b0 0b 6e
        E 32 b0 0b 5d
        E 32 b0 0b 4c
        E 32 b0 0b 3b
        E 16 b0 0b 7f
        E 0 80 30 00
        E 0 90 2f 7f
        E 32 b0 0b 6e
        E 32 b0 0b 5d
        E 32 b0 0b 4c
        E 32 b0 0b 3b
        E 16 b0 0b 7f
        E 0 80 2f 00
        E 0 90 2d 7f
        E 32 b0 0b 6e
        E 32 b0 0b 5d
        E 32 b0 0b 4c
        E 32 b0 0b 3b
        E 16 b0 0b 7f
        E 0 80 2d 00
        E 0 90 28 7f
        E 32 b0 0b 6e
        E 32 b0 0b 5d
        E 32 b0 0b 4c
        E 32 b0 0b 3b
        E 16 b0 0b 7f
        E 0 80 28 00
        E 0 90 24 7f
        E 32 b0 0b 6e
        E 32 b0 0b 5d
        E 32 b0 0b 4c
        E 32 b0 0b 3b
        E 16 b0 0b 7f
        E 0 80 24 00
        E 0 90 23 7f
        E 32 b0 0b 6e
        E 32 b0 0b 5d
        E 32 b0 0b 4c
        E 32 b0 0b 3b
        E 16 b0 0b 7f
        E 0 80 23 00
        E 0 90 21 7f
        E 32 b0 0b 6e
        E 32 b0 0b 5d
        E 32 b0 0b 4c
        E 32 b0 0b 3b
        E 16 b0 0b 7f
        E 0 80 21 00
        E 0 90 24 7f
        E 32 b0 0b 6e
        E 32 b0 0b 5d
        E 32 b0 0b 4c
        E 32 b0 0b 3b
        E 16 b0 0b 7f
        E 0 80 24 00
        E 0 90 29 7f
        E 32 b0 0b 6e
        E 32 b0 0b 5d
        E 32 b0 0b 4c
        E 32 b0 0b 3b
        E 16 b0 0b 7f
        E 0 80 29 00
        E 0 90 2b 7f
        E 32 b0 0b 6e
        E 32 b0 0b 5d
        E 32 b0 0b 4c
        E 32 b0 0b 3b
        E 16 b0 0b 7f
        E 0 80 2b 00
        E 0 90 2d 7f
        E 32 b0 0b 6e
        E 32 b0 0b 5d
        E 32 b0 0b 4c
        E 32 b0 0b 3b
        E 16 b0 0b 7f
        E 0 80 2d 00
        E 0 90 30 7f
        E 32 b0 0b 6e
        E 32 b0 0b 5d
        E 32 b0 0b 4c
        E 32 b0 0b 3b
        E 16 b0 0b 7f
        E 0 80 30 00
        E 0 90 35 7f
        E 32 b0 0b 6e
        E 32 b0 0b 5d
        E 32 b0 0b 4c
        E 32 b0 0b 3b
        E 16 b0 0b 7f
        E 0 80 35 00
        E 0 90 37 7f
        E 32 b0 0b 6e
        E 32 b0 0b 5d
        E 32 b0 0b 4c
        E 32 b0 0b 3b
        E 16 b0 0b 7f
        E 0 80 37 00
        E 0 90 39 7f
        E 32 b0 0b 6e
        E 32 b0 0b 5d
        E 32 b0 0b 4c
        E 32 b0 0b 3b
        E 16 b0 0b 7f
        E 0 80 39 00
        E 0 90 3c 7f
        E 32 b0 0b 6e
        E 32 b0 0b 5d
        E 32 b0 0b 4c
        E 32 b0 0b 3b
        E 16 b0 0b 7f
        E 0 80 3c 00
        E 0 90 41 7f
        E 32 b0 0b 6e
        E 32 b0 0b 5d
        E 32 b0 0b 4c
        E 32 b0 0b 3b
        E 16 b0 0b 7f
        E 0 80 41 00
        E 0 90 43 7f
        E 32 b0 0b 6e
        E 32 b0 0b 5d
        E 32 b0 0b 4c
        E 32 b0 0b 3b
        E 16 b0 0b 7f
        E 0 80 43 00
        E 0 90 45 7f
        E 32 b0 0b 6e
        E 32 b0 0b 5d
        E 32 b0 0b 4c
        E 32 b0 0b 3b
        E 16 b0 0b 7f
        E 0 80 45 00
        E 0 90 48 7f
        E 32 b0 0b 6e
        E 32 b0 0b 5d
        E 32 b0 0b 4c
        E 32 b0 0b 3b
        E 16 b0 0b 7f
        E 0 80 48 00
        E 0 90 4d 7f
        E 32 b0 0b 6e
        E 32 b0 0b 5d
        E 32 b0 0b 4c
        E 32 b0 0b 3b
        E 16 b0 0b 7f
        E 0 80 4d 00
        E 0 90 4f 7f
        E 32 b0 0b 6e
        E 32 b0 0b 5d
        E 32 b0 0b 4c
        E 32 b0 0b 3b
        E 16 b0 0b 7f
        E 0 80 4f 00
        E 0 90 51 7f
        E 32 b0 0b 6e
        E 32 b0 0b 5d
        E 32 b0 0b 4c
        E 32 b0 0b 3b
        E 16 b0 0b 7f
        E 0 80 51 00
        E 0 90 4f 7f
        E 32 b0 0b 6e
        E 32 b0 0b 5d
        E 32 b0 0b 4c
        E 32 b0 0b 3b
        E 16 b0 0b 7f
        E 0 80 4f 00
        E 0 90 4d 7f
        E 32 b0 0b 6e
        E 32 b0 0b 5d
        E 32 b0 0b 4c
        E 32 b0 0b 3b
        E 16 b0 0b 7f
        E 0 80 4d 00
        E 0 90 48 7f
        E 32 b0 0b 6e
        E 32 b0 0b 5d
        E 32 b0 0b 4c
        E 32 b0 0b 3b
        E 16 b0 0b 7f
        E 0 80 48 00
        E 0 90 45 7f
        E 32 b0 0b 6e
        E 32 b0 0b 5d
        E 32 b0 0b 4c
        E 32 b0 0b 3b
        E 16 b0 0b 7f
        E 0 80 45 00
        E 0 90 43 7f
        E 32 b0 0b 6e
        E 32 b0 0b 5d
        E 32 b0 0b 4c
        E 32 b0 0b 3b
        E 16 b0 0b 7f
        E 0 80 43 00
        E 0 90 41 7f
        E 32 b0 0b 6e
        E 32 b0 0b 5d
        E 32 b0 0b 4c
        E 32 b0 0b 3b
        E 16 b0 0b 7f
        E 0 80 41 00
        E 0 90 3c 7f
        E 32 b0 0b 6e
        E 32 b0 0b 5d
        E 32 b0 0b 4c
        E 32 b0 0b 3b
        E 16 b0 0b 7f
        E 0 80 3c 00
        E 0 90 39 7f
        E 32 b0 0b 6e
        E 32 b0 0b 5d
        E 32 b0 0b 4c
        E 32 b0 0b 3b
        E 16 b0 0b 7f
        E 0 80 39 00
        E 0 90 37 7f
        E 32 b0 0b 6e
        E 32 b0 0b 5d
        E 32 b0 0b 4c
        E 32 b0 0b 3b
        E 16 b0 0b 7f
        E 0 80 37 00
        E 0 90 35 7f
        E 32 b0 0b 6e
        E 32 b0 0b 5d
        E 32 b0 0b 4c
        E 32 b0 0b 3b
        E 16 b0 0b 7f
        E 0 80 35 00
        E 0 90 30 7f
        E 32 b0 0b 6e
        E 32 b0 0b 5d
        E 32 b0 0b 4c
        E 32 b0 0b 3b
        E 16 b0 0b 7f
        E 0 80 30 00
        E 0 90 2d 7f
        E 32 b0 0b 6e
        E 32 b0 0b 5d
        E 32 b0 0b 4c
        E 32 b0 0b 3b
        E 16 b0 0b 7f
        E 0 80 2d 00
        E 0 90 2b 7f
        E 32 b0 0b 6e
        E 32 b0 0b 5d
        E 32 b0 0b 4c
        E 32 b0 0b 3b
        E 16 b0 0b 7f
        E 0 80 2b 00
        E 0 90 29 7f
        E 32 b0 0b 6e
        E 32 b0 0b 5d
        E 32 b0 0b 4c
        E 32 b0 0b 3b
        E 16 b0 0b 7f
        E 0 80 29 00
        E 0 90 24 7f
        E 32 b0 0b 6e
        E 32 b0 0b 5d
        E 32 b0 0b 4c
        E 32 b0 0b 3b
        E 16 b0 0b 7f
        E 0 80 24 00
        E 0 90 23 7f
        E 32 b0 0b 6e
        E 32 b0 0b 5d
        E 32 b0 0b 4c
        E 32 b0 0b 3b
        E 16 b0 0b 7f
        E 0 80 23 00
        E 0 90 26 7f
        E 32 b0 0b 6e
        E 32 b0 0b 5d
        E 32 b0 0b 4c
        E 32 b0 0b 3b
        E 16 b0 0b 7f
        E 0 80 26 00
        E 0 90 2b 7f
        E 32 b0 0b 6e
        E 32 b0 0b 5d
        E 32 b0 0b 4c
        E 32 b0 0b 3b
        E 16 b0 0b 7f
        E 0 80 2b 00
        E 0 90 2d 7f
        E 32 b0 0b 6e
        E 32 b0 0b 5d
        E 32 b0 0b 4c
        E 32 b0 0b 3b
        E 16 b0 0b 7f
        E 0 80 2d 00
        E 0 90 2f 7f
        E 32 b0 0b 6e
        E 32 b0 0b 5d
        E 32 b0 0b 4c
        E 32 b0 0b 3b
        E 16 b0 0b 7f
        E 0 80 2f 00
        E 0 90 32 7f
        E 32 b0 0b 6e
        E 32 b0 0b 5d
        E 32 b0 0b 4c
        E 32 b0 0b 3b
        E 16 b0 0b 7f
        E 0 80 32 00
        E 0 90 37 7f
        E 32 b0 0b 6e
        E 32 b0 0b 5d
        E 32 b0 0b 4c
        E 32 b0 0b 3b
        E 16 b0 0b 7f
        E 0 80 37 00
        E 0 90 39 7f
        E 32 b0 0b 6e
        E 32 b0 0b 5d
        E 32 b0 0b 4c
        E 32 b0 0b 3b
        E 16 b0 0b 7f
        E 0 80 39 00
        E 0 90 3b 7f
        E 32 b0 0b 6e
        E 32 b0 0b 5d
        E 32 b0 0b 4c
        E 32 b0 0b 3b
        E 16 b0 0b 7f
        E 0 80 3b 00
        E 0 90 3e 7f
        E 32 b0 0b 6e
        E 32 b0 0b 5d
        E 32 b0 0b 4c
        E 32 b0 0b 3b
        E 16 b0 0b 7f
        E 0 80 3e 00
        E 0 90 43 7f
        E 32 b0 0b 6e
        E 32 b0 0b 5d
        E 32 b0 0b 4c
        E 32 b0 0b 3b
        E 16 b0 0b 7f
        E 0 80 43 00
        E 0 90 45 7f
        E 32 b0 0b 6e
        E 32 b0 0b 5d
        E 32 b0 0b 4c
        E 32 b0 0b 3b
        E 16 b0 0b 7f
        E 0 80 45 00
        E 0 90 47 7f
        E 32 b0 0b 6e
        E 32 b0 0b 5d
        E 32 b0 0b 4c
        E 32 b0 0b 3b
        E 16 b0 0b 7f
        E 0 80 47 00
        E 0 90 4a 7f
        E 32 b0 0b 6e
        E 32 b0 0b 5d
        E 32 b0 0b 4c
        E 32 b0 0b 3b
        E 16 b0 0b 7f
        E 0 80 4a 00
        E 0 90 4f 7f
        E 32 b0 0b 6e
        E 32 b0 0b 5d
        E 32 b0 0b 4c
        E 32 b0 0b 3b
        E 16 b0 0b 7f
        E 0 80 4f 00
        E 0 90 51 7f
        E 32 b0 0b 6e
        E 32 b0 0b 5d
        E 32 b0 0b 4c
        E 32 b0 0b 3b
        E 16 b0 0b 7f
        E 0 80 51 00
        E 0 90 53 7f
        E 32 b0 0b 6e
        E 32 b0 0b 5d
        E 32 b0 0b 4c
        E 32 b0 0b 3b
        E 16 b0 0b 7f
        E 0 80 53 00
        E 0 90 51 7f
        E 32 b0 0b 6e
        E 32 b0 0b 5d
        E 32 b0 0b 4c
        E 32 b0 0b 3b
        E 16 b0 0b 7f
        E 0 80 51 00
        E 0 90 4f 7f
        E 32 b0 0b 6e
        E 32 b0 0b 5d
        E 32 b0 0b 4c
        E 32 b0 0b 3b
        E 16 b0 0b 7f
        E 0 80 4f 00
        E 0 90 4a 7f
        E 32 b0 0b 6e
        E 32 b0 0b 5d
        E 32 b0 0b 4c
        E 32 b0 0b 3b
        E 16 b0 0b 7f
        E 0 80 4a 00
        E 0 90 47 7f
        E 32 b0 0b 6e
        E 32 b0 0b 5d
        E 32 b0 0b 4c
        E 32 b0 0b 3b
        E 16 b0 0b 7f
        E 0 80 47 00
        E 0 90 45 7f
        E 32 b0 0b 6e
        E 32 b0 0b 5d
        E 32 b0 0b 4c
        E 32 b0 0b 3b
        E 16 b0 0b 7f
        E 0 80 45 00
        E 0 90 43 7f
        E 32 b0 0b 6e
        E 32 b0 0b 5d
        E 32 b0 0b 4c
        E 32 b0 0b 3b
        E 16 b0 0b 7f
        E 0 80 43 00
        E 0 90 3e 7f
        E 32 b0 0b 6e
        E 32 b0 0b 5d
        E 32 b0 0b 4c
        E 32 b0 0b 3b
        E 16 b0 0b 7f
        E 0 80 3e 00
        E 0 90 3b 7f
        E 32 b0 0b 6e
        E 32 b0 0b 5d
        E 32 b0 0b 4c
        E 32 b0 0b 3b
        E 16 b0 0b 7f
        E 0 80 3b 00
        E 0 90 39 7f
        E 32 b0 0b 6e
        E 32 b0 0b 5d
        E 32 b0 0b 4c
        E 32 b0 0b 3b
        E 16 b0 0b 7f
        E 0 80 39 00
        E 0 90 37 7f
        E 32 b0 0b 6e
        E 32 b0 0b 5d
        E 32 b0 0b 4c
        E 32 b0 0b 3b
        E 16 b0 0b 7f
        E 0 80 37 00
        E 0 90 32 7f
        E 32 b0 0b 6e
        E 32 b0 0b 5d
        E 32 b0 0b 4c
        E 32 b0 0b 3b
        E 16 b0 0b 7f
        E 0 80 32 00
        E 0 90 2f 7f
        E 32 b0 0b 6e
        E 32 b0 0b 5d
        E 32 b0 0b 4c
        E 32 b0 0b 3b
        E 16 b0 0b 7f
        E 0 80 2f 00
        E 0 90 2d 7f
        E 32 b0 0b 6e
        E 32 b0 0b 5d
        E 32 b0 0b 4c
        E 32 b0 0b 3b
        E 16 b0 0b 7f
        E 0 80 2d 00
        E 0 90 2b 7f
        E 32 b0 0b 6e
        E 32 b0 0b 5d
        E 32 b0 0b 4c
        E 32 b0 0b 3b
        E 16 b0 0b 7f
        E 0 80 2b 00
        E 0 90 26 7f
        E 32 b0 0b 6e
        E 32 b0 0b 5d
        E 32 b0 0b 4c
        E 32 b0 0b 3b
        E 16 b0 0b 7f
        E 0 80 26 00
        E 0 90 20 7f
        E 32 b0 0b 6e
        E 32 b0 0b 5d
        E 32 b0 0b 4c
        E 32 b0 0b 3b
        E 16 b0 0b 7f
        E 0 80 20 00
        E 0 90 24 7f
        E 32 b0 0b 6e
        E 32 b0 0b 5d
        E 32 b0 0b 4c
        E 32 b0 0b 3b
        E 16 b0 0b 7f
        E 0 80 24 00
        E 0 90 27 7f
        E 32 b0 0b 6e
        E 32 b0 0b 5d
        E 32 b0 0b 4c
        E 32 b0 0b 3b
        E 16 b0 0b 7f
        E 0 80 27 00
        E 0 90 2b 7f
        E 32 b0 0b 6e
        E 32 b0 0b 5d
        E 32 b0 0b 4c
        E 32 b0 0b 3b
        E 16 b0 0b 7f
        E 0 80 2b 00
        E 0 90 2c 7f
        E 32 b0 0b 6e
        E 32 b0 0b 5d
        E 32 b0 0b 4c
        E 32 b0 0b 3b
        E 16 b0 0b 7f
        E 0 80 2c 00
        E 0 90 30 7f
        E 32 b0 0b 6e
        E 32 b0 0b 5d
        E 32 b0 0b 4c
        E 32 b0 0b 3b
        E 16 b0 0b 7f
        E 0 80 30 00
        E 0 90 33 7f
        E 32 b0 0b 6e
        E 32 b0 0b 5d
        E 32 b0 0b 4c
        E 32 b0 0b 3b
        E 16 b0 0b 7f
        E 0 80 33 00
        E 0 90 37 7f
        E 32 b0 0b 6e
        E 32 b0 0b 5d
        E 32 b0 0b 4c
        E 32 b0 0b 3b
        E 16 b0 0b 7f
        E 0 80 37 00
        E 0 90 38 7f
        E 32 b0 0b 6e
        E 32 b0 0b 5d
        E 32 b0 0b 4c
        E 32 b0 0b 3b
        E 16 b0 0b 7f
        E 0 80 38 00
        E 0 90 3c 7f
        E 32 b0 0b 6e
        E 32 b0 0b 5d
        E 32 b0 0b 4c
        E 32 b0 0b 3b
        E 16 b0 0b 7f
        E 0 80 3c 00
        E 0 90 3f 7f
        E 32 b0 0b 6e
        E 32 b0 0b 5d
        E 32 b0 0b 4c
        E 32 b0 0b 3b
        E 16 b0 0b 7f
        E 0 80 3f 00
        E 0 90 43 7f
        E 32 b0 0b 6e
        E 32 b0 0b 5d
        E 32 b0 0b 4c
        E 32 b0 0b 3b
        E 16 b0 0b 7f
        E 0 80 43 00
        E 0 90 44 7f
        E 32 b0 0b 6e
        E 32 b0 0b 5d
        E 32 b0 0b 4c
        E 32 b0 0b 3b
        E 16 b0 0b 7f
        E 0 80 44 00
        E 0 90 48 7f
        E 32 b0 0b 6e
        E 32 b0 0b 5d
        E 32 b0 0b 4c
        E 32 b0 0b 3b
        E 16 b0 0b 7f
        E 0 80 48 00
        E 0 90 4b 7f
        E 32 b0 0b 6e
        E 32 b0 0b 5d
        E 32 b0 0b 4c
        E 32 b0 0b 3b
        E 16 b0 0b 7f
        E 0 80 4b 00
        E 0 90 4f 7f
        E 32 b0 0b 6e
        E 32 b0 0b 5d
        E 32 b0 0b 4c
        E 32 b0 0b 3b
        E 16 b0 0b 7f
        E 0 80 4f 00
        E 0 90 50 7f
        E 32 b0 0b 6e
        E 32 b0 0b 5d
        E 32 b0 0b 4c
        E 32 b0 0b 3b
        E 16 b0 0b 7f
        E 0 80 50 00
        E 0 90 4f 7f
        E 32 b0 0b 6e
        E 32 b0 0b 5d
        E 32 b0 0b 4c
        E 32 b0 0b 3b
        E 16 b0 0b 7f
        E 0 80 4f 00
        E 0 90 4b 7f
        E 32 b0 0b 6e
        E 32 b0 0b 5d
        E 32 b0 0b 4c
        E 32 b0 0b 3b
        E 16 b0 0b 7f
        E 0 80 4b 00
        E 0 90 48 7f
        E 32 b0 0b 6e
        E 32 b0 0b 5d
        E 32 b0 0b 4c
        E 32 b0 0b 3b
        E 16 b0 0b 7f
        E 0 80 48 00
        E 0 90 44 7f
        E 32 b0 0b 6e
        E 32 b0 0b 5d
        E 32 b0 0b 4c
        E 32 b0 0b 3b
        E 16 b0 0b 7f
        E 0 80 44 00
        E 0 90 43 7f
        E 32 b0 0b 6e
        E 32 b0 0b 5d
        E 32 b0 0b 4c
        E 32 b0 0b 3b
        E 16 b0 0b 7f
        E 0 80 43 00
        E 0 90 3f 7f
        E 32 b0 0b 6e
        E 32 b0 0b 5d
        E 32 b0 0b 4c
        E 32 b0 0b 3b
        E 16 b0 0b 7f
        E 0 80 3f 00
        E 0 90 3c 7f
        E 32 b0 0b 6e
        E 32 b0 0b 5d
        E 32 b0 0b 4c
        E 32 b0 0b 3b
        E 16 b0 0b 7f
        E 0 80 3c 00
        E 0 90 38 7f
        E 32 b0 0b 6e
        E 32 b0 0b 5d
        E 32 b0 0b 4c
        E 32 b0 0b 3b
        E 16 b0 0b 7f
        E 0 80 38 00
        E 0 90 37 7f
        E 32 b0 0b 6e
        E 32 b0 0b 5d
        E 32 b0 0b 4c
        E 32 b0 0b 3b
        E 16 b0 0b 7f
        E 0 80 37 00
        E 0 90 33 7f
        E 32 b0 0b 6e
        E 32 b0 0b 5d
        E 32 b0 0b 4c
        E 32 b0 0b 3b
        E 16 b0 0b 7f
        E 0 80 33 00
        E 0 90 30 7f
        E 32 b0 0b 6e
        E 32 b0 0b 5d
        E 32 b0 0b 4c
        E 32 b0 0b 3b
        E 16 b0 0b 7f
        E 0 80 30 00
        E 0 90 2c 7f
        E 32 b0 0b 6e
        E 32 b0 0b 5d
        E 32 b0 0b 4c
        E 32 b0 0b 3b
        E 16 b0 0b 7f
        E 0 80 2c 00
        E 0 90 2b 7f
        E 32 b0 0b 6e
        E 32 b0 0b 5d
        E 32 b0 0b 4c
        E 32 b0 0b 3b
        E 16 b0 0b 7f
        E 0 80 2b 00
        E 0 90 27 7f
        E 32 b0 0b 6e
        E 32 b0 0b 5d
        E 32 b0 0b 4c
        E 32 b0 0b 3b
        E 16 b0 0b 7f
        E 0 80 27 00
        E 0 90 24 7f
        E 32 b0 0b 6e
        E 32 b0 0b 5d
        E 32 b0 0b 4c
        E 32 b0 0b 3b
        E 16 b0 0b 7f
        E 0 80 24 00
        E 0 90 22 7f
        E 32 b0 0b 6e
        E 32 b0 0b 5d
        E 32 b0 0b 4c
        E 32 b0 0b 3b
        E 16 b0 0b 7f
        E 0 80 22 00
        E 0 90 26 7f
        E 32 b0 0b 6e
        E 32 b0 0b 5d
        E 32 b0 0b 4c
        E 32 b0 0b 3b
        E 16 b0 0b 7f
        E 0 80 26 00
        E 0 90 29 7f
        E 32 b0 0b 6e
        E 32 b0 0b 5d
        E 32 b0 0b 4c
        E 32 b0 0b 3b
        E 16 b0 0b 7f
        E 0 80 29 00
        E 0 90 2d 7f
        E 32 b0 0b 6e
        E 32 b0 0b 5d
        E 32 b0 0b 4c
        E 32 b0 0b 3b
        E 16 b0 0b 7f
        E 0 80 2d 00
        E 0 90 2e 7f
        E 32 b0 0b 6e
        E 32 b0 0b 5d
        E 32 b0 0b 4c
        E 32 b0 0b 3b
        E 16 b0 0b 7f
        E 0 80 2e 00
        E 0 90 32 7f
        E 32 b0 0b 6e
        E 32 b0 0b 5d
        E 32 b0 0b 4c
        E 32 b0 0b 3b
        E 16 b0 0b 7f
        E 0 80 32 00
        E 0 90 35 7f
        E 32 b0 0b 6e
        E 32 b0 0b 5d
        E 32 b0 0b 4c
        E 32 b0 0b 3b
        E 16 b0 0b 7f
        E 0 80 35 00
        E 0 90 39 7f
        E 32 b0 0b 6e
        E 32 b0 0b 5d
        E 32 b0 0b 4c
        E 32 b0 0b 3b
        E 16 b0 0b 7f
        E 0 80 39 00
        E 0 90 3a 7f
        E 32 b0 0b 6e
        E 32 b0 0b 5d
        E 32 b0 0b 4c
        E 32 b0 0b 3b
        E 16 b0 0b 7f
        E 0 80 3a 00
        E 0 90 3e 7f
        E 32 b0 0b 6e
        E 32 b0 0b 5d
        E 32 b0 0b 4c
        E 32 b0 0b 3b
        E 16 b0 0b 7f
        E 0 80 3e 00
        E 0 90 41 7f
        E 32 b0 0b 6e
        E 32 b0 0b 5d
        E 32 b0 0b 4c
        E 32 b0 0b 3b
        E 16 b0 0b 7f
        E 0 80 41 00
        E 0 90 45 7f
        E 32 b0 0b 6e
        E 32 b0 0b 5d
        E 32 b0 0b 4c
        E 32 b0 0b 3b
        E 16 b0 0b 7f
        E 0 80 45 00
        E 0 90 46 7f
        E 32 b0 0b 6e
        E 32 b0 0b 5d
        E 32 b0 0b 4c
        E 32 b0 0b 3b
        E 16 b0 0b 7f
        E 0 80 46 00
        E 0 90 4a 7f
        E 32 b0 0b 6e
        E 32 b0 0b 5d
        E 32 b0 0b 4c
        E 32 b0 0b 3b
        E 16 b0 0b 7f
        E 0 80 4a 00
        E 0 90 4d 7f
        E 32 b0 0b 6e
        E 32 b0 0b 5d
        E 32 b0 0b 4c
        E 32 b0 0b 3b
        E 16 b0 0b 7f
        E 0 80 4d 00
        E 0 90 51 7f
        E 32 b0 0b 6e
        E 32 b0 0b 5d
        E 32 b0 0b 4c
        E 32 b0 0b 3b
        E 16 b0 0b 7f
        E 0 80 51 00
        E 0 90 52 7f
        E 32 b0 0b 6e
        E 32 b0 0b 5d
        E 32 b0 0b 4c
        E 32 b0 0b 3b
        E 16 b0 0b 7f
        E 0 80 52 00
        E 0 90 51 7f
        E 32 b0 0b 6e
        E 32 b0 0b 5d
        E 32 b0 0b 4c
        E 32 b0 0b 3b
        E 16 b0 0b 7f
        E 0 80 51 00
        E 0 90 4d 7f
        E 32 b0 0b 6e
        E 32 b0 0b 5d
        E 32 b0 0b 4c
        E 32 b0 0b 3b
        E 16 b0 0b 7f
        E 0 80 4d 00
        E 0 90 4a 7f
        E 32 b0 0b 6e
        E 32 b0 0b 5d
        E 32 b0 0b 4c
        E 32 b0 0b 3b
        E 16 b0 0b 7f
        E 0 80 4a 00
        E 0 90 46 7f
        E 32 b0 0b 6e
        E 32 b0 0b 5d
        E 32 b0 0b 4c
        E 32 b0 0b 3b
        E 16 b0 0b 7f
        E 0 80 46 00
        E 0 90 45 7f
        E 32 b0 0b 6e
        E 32 b0 0b 5d
        E 32 b0 0b 4c
        E 32 b0 0b 3b
        E 16 b0 0b 7f
        E 0 80 45 00
        E 0 90 41 7f
        E 32 b0 0b 6e
        E 32 b0 0b 5d
        E 32 b0 0b 4c
        E 32 b0 0b 3b
        E 16 b0 0b 7f
        E 0 80 41 00
        E 0 90 3e 7f
        E 32 b0 0b 6e
        E 32 b0 0b 5d
        E 32 b0 0b 4c
        E 32 b0 0b 3b
        E 16 b0 0b 7f
        E 0 80 3e 00
        E 0 90 3a 7f
        E 32 b0 0b 6e
        E 32 b0 0b 5d
        E 32 b0 0b 4c
        E 32 b0 0b 3b
        E 16 b0 0b 7f
        E 0 80 3a 00
        E 0 90 39 7f
        E 32 b0 0b 6e
        E 32 b0 0b 5d
        E 32 b0 0b 4c
        E 32 b0 0b 3b
        E 16 b0 0b 7f
        E 0 80 39 00
        E 0 90 35 7f
        E 32 b0 0b 6e
        E 32 b0 0b 5d
        E 32 b0 0b 4c
        E 32 b0 0b 3b
        E 16 b0 0b 7f
        E 0 80 35 00
        E 0 90 32 7f
        E 32 b0 0b 6e
        E 32 b0 0b 5d
        E 32 b0 0b 4c
        E 32 b0 0b 3b
        E 16 b0 0b 7f
        E 0 80 32 00
        E 0 90 2e 7f
        E 32 b0 0b 6e
        E 32 b0 0b 5d
        E 32 b0 0b 4c
        E 32 b0 0b 3b
        E 16 b0 0b 7f
        E 0 80 2e 00
        E 0 90 2d 7f
        E 32 b0 0b 6e
        E 32 b0 0b 5d
        E 32 b0 0b 4c
        E 32 b0 0b 3b
        E 16 b0 0b 7f
        E 0 80 2d 00
        E 0 90 29 7f
        E 32 b0 0b 6e
        E 32 b0 0b 5d
        E 32 b0 0b 4c
        E 32 b0 0b 3b
        E 16 b0 0b 7f
        E 0 80 29 00
        E 0 90 26 7f
        E 32 b0 0b 6e
        E 32 b0 0b 5d
        E 32 b0 0b 4c
        E 32 b0 0b 3b
        E 16 b0 0b 7f
        E 0 80 26 00
        E 0 90 24 7f
        E 32 b0 0b 6e
        E 32 b0 0b 5d
        E 32 b0 0b 4c
        E 32 b0 0b 3b
        E 16 b0 0b 7f
        E 0 80 24 00
        E 0 90 26 7f
        E 32 b0 0b 6e
        E 32 b0 0b 5d
        E 32 b0 0b 4c
        E 32 b0 0b 3b
        E 16 b0 0b 7f
        E 0 80 26 00
        E 0 90 28 7f
        E 32 b0 0b 6e
        E 32 b0 0b 5d
        E 32 b0 0b 4c
        E 32 b0 0b 3b
        E 16 b0 0b 7f
        E 0 80 28 00
        E 0 90 2b 7f
        E 32 b0 0b 6e
        E 32 b0 0b 5d
        E 32 b0 0b 4c
        E 32 b0 0b 3b
        E 16 b0 0b 7f
        E 0 80 2b 00
        E 0 90 30 7f
        E 32 b0 0b 6e
        E 32 b0 0b 5d
        E 32 b0 0b 4c
        E 32 b0 0b 3b
        E 16 b0 0b 7f
        E 0 80 30 00
        E 0 90 32 7f
        E 32 b0 0b 6e
        E 32 b0 0b 5d
        E 32 b0 0b 4c
        E 32 b0 0b 3b
        E 16 b0 0b 7f
        E 0 80 32 00
        E 0 90 34 7f
        E 32 b0 0b 6e
        E 32 b0 0b 5d
        E 32 b0 0b 4c
        E 32 b0 0b 3b
        E 16 b0 0b 7f
        E 0 80 34 00
        E 0 90 37 7f
        E 32 b0 0b 6e
        E 32 b0 0b 5d
        E 32 b0 0b 4c
        E 32 b0 0b 3b
        E 16 b0 0b 7f
        E 0 80 37 00
        E 0 90 3c 7f
        E 32 b0 0b 6e
        E 32 b0 0b 5d
        E 32 b0 0b 4c
        E 32 b0 0b 3b
        E 16 b0 0b 7f
        E 0 80 3c 00
        E 0 90 3e 7f
        E 32 b0 0b 6e
        E 32 b0 0b 5d
        E 32 b0 0b 4c
        E 32 b0 0b 3b
        E 16 b0 0b 7f
        E 0 80 3e 00
        E 0 90 40 7f
        E 32 b0 0b 6e
        E 32 b0 0b 5d
        E 32 b0 0b 4c
        E 32 b0 0b 3b
        E 16 b0 0b 7f
        E 0 80 40 00
        E 0 90 43 7f
        E 32 b0 0b 6e
        E 32 b0 0b 5d
        E 32 b0 0b 4c
        E 32 b0 0b 3b
        E 16 b0 0b 7f
        E 0 80 43 00
        E 0 90 48 7f
        E 32 b0 0b 6e
        E 32 b0 0b 5d
        E 32 b0 0b 4c
        E 32 b0 0b 3b
        E 16 b0 0b 7f
        E 0 80 48 00
        E 0 90 4a 7f
        E 32 b0 0b 6e
        E 32 b0 0b 5d
        E 32 b0 0b 4c
        E 32 b0 0b 3b
        E 16 b0 0b 7f
        E 0 80 4a 00
        E 0 90 4c 7f
        E 32 b0 0b 6e
        E 32 b0 0b 5d
        E 32 b0 0b 4c
        E 32 b0 0b 3b
        E 16 b0 0b 7f
        E 0 80 4c 00
        E 0 90 4f 7f
        E 32 b0 0b 6e
        E 32 b0 0b 5d
        E 32 b0 0b 4c
        E 32 b0 0b 3b
        E 16 b0 0b 7f
        E 0 80 4f 00
        E 0 90 54 7f
        E 32 b0 0b 6e
        E 32 b0 0b 5d
        E 32 b0 0b 4c
        E 32 b0 0b 3b
        E 16 b0 0b 7f
        E 0 80 54 00
        E 0 90 4f 7f
        E 32 b0 0b 6e
        E 32 b0 0b 5d
        E 32 b0 0b 4c
        E 32 b0 0b 3b
        E 16 b0 0b 7f
        E 0 80 4f 00
        E 0 90 4c 7f
        E 32 b0 0b 6e
        E 32 b0 0b 5d
        E 32 b0 0b 4c
        E 32 b0 0b 3b
        E 16 b0 0b 7f
        E 0 80 4c 00
        E 0 90 4a 7f
        E 32 b0 0b 6e
        E 32 b0 0b 5d
        E 32 b0 0b 4c
        E 32 b0 0b 3b
        E 16 b0 0b 7f
        E 0 80 4a 00
        E 0 90 48 7f
        E 32 b0 0b 6e
        E 32 b0 0b 5d
        E 32 b0 0b 4c
        E 32 b0 0b 3b
        E 16 b0 0b 7f
        E 0 80 48 00
        E 0 90 43 7f
        E 32 b0 0b 6e
        E 32 b0 0b 5d
        E 32 b0 0b 4c
        E 32 b0 0b 3b
        E 16 b0 0b 7f
        E 0 80 43 00
        E 0 90 40 7f
        E 32 b0 0b 6e
        E 32 b0 0b 5d
        E 32 b0 0b 4c
        E 32 b0 0b 3b
        E 16 b0 0b 7f
        E 0 80 40 00
        E 0 90 3e 7f
        E 32 b0 0b 6e
        E 32 b0 0b 5d
        E 32 b0 0b 4c
        E 32 b0 0b 3b
        E 16 b0 0b 7f
        E 0 80 3e 00
        E 0 90 3c 7f
        E 32 b0 0b 6e
        E 32 b0 0b 5d
        E 32 b0 0b 4c
        E 32 b0 0b 3b
        E 16 b0 0b 7f
        E 0 80 3c 00
        E 0 90 37 7f
        E 32 b0 0b 6e
        E 32 b0 0b 5d
        E 32 b0 0b 4c
        E 32 b0 0b 3b
        E 16 b0 0b 7f
        E 0 80 37 00
        E 0 90 34 7f
        E 32 b0 0b 6e
        E 32 b0 0b 5d
        E 32 b0 0b 4c
        E 32 b0 0b 3b
        E 16 b0 0b 7f
        E 0 80 34 00
        E 0 90 32 7f
        E 32 b0 0b 6e
        E 32 b0 0b 5d
        E 32 b0 0b 4c
        E 32 b0 0b 3b
        E 16 b0 0b 7f
        E 0 80 32 00
        E 0 90 30 7f
        E 32 b0 0b 6e
        E 32 b0 0b 5d
        E 32 b0 0b 4c
        E 32 b0 0b 3b
        E 16 b0 0b 7f
        E 0 80 30 00
        E 0 90 2b 7f
        E 32 b0 0b 6e
        E 32 b0 0b 5d
        E 32 b0 0b 4c
        E 32 b0 0b 3b
        E 16 b0 0b 7f
        E 0 80 2b 00
        E 0 90 28 7f
        E 32 b0 0b 6e
        E 32 b0 0b 5d
        E 32 b0 0b 4c
        E 32 b0 0b 3b
        E 16 b0 0b 7f
        E 0 80 28 00
        E 0 90 26 7f
        E 32 b0 0b 6e
        E 32 b0 0b 5d
        E 32 b0 0b 4c
        E 32 b0 0b 3b
        E 16 b0 0b 7f
        E 0 80 26 00
        E 0 90 21 7f
        E 32 b0 0b 6e
        E 32 b0 0b 5d
        E 32 b0 0b 4c
        E 32 b0 0b 3b
        E 16 b0 0b 7f
        E 0 80 21 00
        E 0 90 23 7f
        E 32 b0 0b 6e
        E 32 b0 0b 5d
        E 32 b0 0b 4c
        E 32 b0 0b 3b
        E 16 b0 0b 7f
        E 0 80 23 00
        E 0 90 24 7f
        E 32 b0 0b 6e
        E 32 b0 0b 5d
        E 32 b0 0b 4c
        E 32 b0 0b 3b
        E 16 b0 0b 7f
        E 0 80 24 00
        E 0 90 28 7f
        E 32 b0 0b 6e
        E 32 b0 0b 5d
        E 32 b0 0b 4c
        E 32 b0 0b 3b
        E 16 b0 0b 7f
        E 0 80 28 00
        E 0 90 2d 7f
        E 32 b0 0b 6e
        E 32 b0 0b 5d
        E 32 b0 0b 4c
        E 32 b0 0b 3b
        E 16 b0 0b 7f
        E 0 80 2d 00
        E 0 90 2f 7f
        E 32 b0 0b 6e
        E 32 b0 0b 5d
        E 32 b0 0b 4c
        E 32 b0 0b 3b
        E 16 b0 0b 7f
        E 0 80 2f 00
        E 0 90 30 7f
        E 32 b0 0b 6e
        E 32 b0 0b 5d
        E 32 b0 0b 4c
        E 32 b0 0b 3b
        E 16 b0 0b 7f
        E 0 80 30 00
        E 0 90 34 7f
        E 32 b0 0b 6e
        E 32 b0 0b 5d
        E 32 b0 0b 4c
        E 32 b0 0b 3b
        E 16 b0 0b 7f
        E 0 80 34 00
        E 0 90 39 7f
        E 32 b0 0b 6e
        E 32 b0 0b 5d
        E 32 b0 0b 4c
        E 32 b0 0b 3b
        E 16 b0 0b 7f
        E 0 80 39 00
        E 0 90 3b 7f
        E 32 b0 0b 6e
        E 32 b0 0b 5d
        E 32 b0 0b 4c
        E 32 b0 0b 3b
        E 16 b0 0b 7f
        E 0 80 3b 00
        E 0 90 3c 7f
        E 32 b0 0b 6e
        E 32 b0 0b 5d
        E 32 b0 0b 4c
        E 32 b0 0b 3b
        E 16 b0 0b 7f
        E 0 80 3c 00
        E 0 90 40 7f
        E 32 b0 0b 6e
        E 32 b0 0b 5d
        E 32 b0 0b 4c
        E 32 b0 0b 3b
        E 16 b0 0b 7f
        E 0 80 40 00
        E 0 90 45 7f
        E 32 b0 0b 6e
        E 32 b0 0b 5d
        E 32 b0 0b 4c
        E 32 b0 0b 3b
        E 16 b0 0b 7f
        E 0 80 45 00
        E 0 90 47 7f
        E 32 b0 0b 6e
        E 32 b0 0b 5d
        E 32 b0 0b 4c
        E 32 b0 0b 3b
        E 16 b0 0b 7f
        E 0 80 47 00
        E 0 90 48 7f
        E 32 b0 0b 6e
        E 32 b0 0b 5d
        E 32 b0 0b 4c
        E 32 b0 0b 3b
        E 16 b0 0b 7f
        E 0 80 48 00
        E 0 90 4c 7f
        E 32 b0 0b 6e
        E 32 b0 0b 5d
        E 32 b0 0b 4c
        E 32 b0 0b 3b
        E 16 b0 0b 7f
        E 0 80 4c 00
        E 0 90 51 7f
        E 32 b0 0b 6e
        E 32 b0 0b 5d
        E 32 b0 0b 4c
        E 32 b0 0b 3b
        E 16 b0 0b 7f
        E 0 80 51 00
        E 0 90 4c 7f
        E 32 b0 0b 6e
        E 32 b0 0b 5d
        E 32 b0 0b 4c
        E 32 b0 0b 3b
        E 16 b0 0b 7f
        E 0 80 4c 00
        E 0 90 48 7f
        E 32 b0 0b 6e
        E 32 b0 0b 5d
        E 32 b0 0b 4c
        E 32 b0 0b 3b
        E 16 b0 0b 7f
        E 0 80 48 00
        E 0 90 47 7f
        E 32 b0 0b 6e
        E 32 b0 0b 5d
        E 32 b0 0b 4c
        E 32 b0 0b 3b
        E 16 b0 0b 7f
        E 0 80 47 00
        E 0 90 45 7f
        E 32 b0 0b 6e
        E 32 b0 0b 5d
        E 32 b0 0b 4c
        E 32 b0 0b 3b
        E 16 b0 0b 7f
        E 0 80 45 00
        E 0 90 40 7f
        E 32 b0 0b 6e
        E 32 b0 0b 5d
        E 32 b0 0b 4c
        E 32 b0 0b 3b
        E 16 b0 0b 7f
        E 0 80 40 00
        E 0 90 3c 7f
        E 32 b0 0b 6e
        E 32 b0 0b 5d
        E 32 b0 0b 4c
        E 32 b0 0b 3b
        E 16 b0 0b 7f
        E 0 80 3c 00
        E 0 90 3b 7f
        E 32 b0 0b 6e
        E 32 b0 0b 5d
        E 32 b0 0b 4c
        E 32 b0 0b 3b
        E 16 b0 0b 7f
        E 0 80 3b 00
        E 0 90 39 7f
        E 32 b0 0b 6e
        E 32 b0 0b 5d
        E 32 b0 0b 4c
        E 32 b0 0b 3b
        E 16 b0 0b 7f
        E 0 80 39 00
        E 0 90 34 7f
        E 32 b0 0b 6e
        E 32 b0 0b 5d
        E 32 b0 0b 4c
        E 32 b0 0b 3b
        E 16 b0 0b 7f
        E 0 80 34 00
        E 0 90 30 7f
        E 32 b0 0b 6e
        E 32 b0 0b 5d
        E 32 b0 0b 4c
        E 32 b0 0b 3b
        E 16 b0 0b 7f
        E 0 80 30 00
        E 0 90 2f 7f
        E 32 b0 0b 6e
        E 32 b0 0b 5d
        E 32 b0 0b 4c
        E 32 b0 0b 3b
        E 16 b0 0b 7f
        E 0 80 2f 00
        E 0 90 2d 7f
        E 32 b0 0b 6e
        E 32 b0 0b 5d
        E 32 b0 0b 4c
        E 32 b0 0b 3b
        E 16 b0 0b 7f
        E 0 80 2d 00
        E 0 90 28 7f
        E 32 b0 0b 6e
        E 32 b0 0b 5d
        E 32 b0 0b 4c
        E 32 b0 0b 3b
        E 16 b0 0b 7f
        E 0 80 28 00
        E 0 90 24 7f
        E 32 b0 0b 6e
        E 32 b0 0b 5d
        E 32 b0 0b 4c
        E 32 b0 0b 3b
        E 16 b0 0b 7f
        E 0 80 24 00
        E 0 90 23 7f
        E 32 b0 0b 6e
        E 32 b0 0b 5d
        E 32 b0 0b 4c
        E 32 b0 0b 3b
        E 16 b0 0b 7f
        E 0 80 23 00
        E 0 90 24 7f
        E 32 b0 0b 6e
        E 32 b0 0b 5d
        E 32 b0 0b 4c
        E 32 b0 0b 3b
        E 16 b0 0b 7f
        E 0 80 24 00
        E 0 90 26 7f
        E 32 b0 0b 6e
        E 32 b0 0b 5d
        E 32 b0 0b 4c
        E 32 b0 0b 3b
        E 16 b0 0b 7f
        E 0 80 26 00
        E 0 90 28 7f
        E 32 b0 0b 6e
        E 32 b0 0b 5d
        E 32 b0 0b 4c
        E 32 b0 0b 3b
        E 16 b0 0b 7f
        E 0 80 28 00
        E 0 90 2b 7f
        E 32 b0 0b 6e
        E 32 b0 0b 5d
        E 32 b0 0b 4c
        E 32 b0 0b 3b
        E 16 b0 0b 7f
        E 0 80 2b 00
        E 0 90 30 7f
        E 32 b0 0b 6e
        E 32 b0 0b 5d
        E 32 b0 0b 4c
        E 32 b0 0b 3b
        E 16 b0 0b 7f
        E 0 80 30 00
        E 0 90 32 7f
        E 32 b0 0b 6e
        E 32 b0 0b 5d
        E 32 b0 0b 4c
        E 32 b0 0b 3b
        E 16 b0 0b 7f
        E 0 80 32 00
        E 0 90 34 7f
        E 32 b0 0b 6e
        E 32 b0 0b 5d
        E 32 b0 0b 4c
        E 32 b0 0b 3b
        E 16 b0 0b 7f
        E 0 80 34 00
        E 0 90 37 7f
        E 32 b0 0b 6e
        E 32 b0 0b 5d
        E 32 b0 0b 4c
        E 32 b0 0b 3b
        E 16 b0 0b 7f
        E 0 80 37 00
        E 0 90 3c 7f
        E 32 b0 0b 6e
        E 32 b0 0b 5d
        E 32 b0 0b 4c
        E 32 b0 0b 3b
        E 16 b0 0b 7f
        E 0 80 3c 00
        E 0 90 3e 7f
        E 32 b0 0b 6e
        E 32 b0 0b 5d
        E 32 b0 0b 4c
        E 32 b0 0b 3b
        E 16 b0 0b 7f
        E 0 80 3e 00
        E 0 90 40 7f
        E 32 b0 0b 6e
        E 32 b0 0b 5d
        E 32 b0 0b 4c
        E 32 b0 0b 3b
        E 16 b0 0b 7f
        E 0 80 40 00
        E 0 90 43 7f
        E 32 b0 0b 6e
        E 32 b0 0b 5d
        E 32 b0 0b 4c
        E 32 b0 0b 3b
        E 16 b0 0b 7f
        E 0 80 43 00
        E 0 90 48 7f
        E 32 b0 0b 6e
        E 32 b0 0b 5d
        E 32 b0 0b 4c
        E 32 b0 0b 3b
        E 16 b0 0b 7f
        E 0 80 48 00
        E 0 90 4a 7f
        E 32 b0 0b 6e
        E 32 b0 0b 5d
        E 32 b0 0b 4c
        E 32 b0 0b 3b
        E 16 b0 0b 7f
        E 0 80 4a 00
        E 0 90 4c 7f
        E 32 b0 0b 6e
        E 32 b0 0b 5d
        E 32 b0 0b 4c
        E 32 b0 0b 3b
        E 16 b0 0b 7f
        E 0 80 4c 00
        E 0 90 4f 7f
        E 32 b0 0b 6e
        E 32 b0 0b 5d
        E 32 b0 0b 4c
        E 32 b0 0b 3b
        E 16 b0 0b 7f
        E 0 80 4f 00
        E 0 90 54 7f
        E 32 b0 0b 6e
        E 32 b0 0b 5d
        E 32 b0 0b 4c
        E 32 b0 0b 3b
        E 16 b0 0b 7f
        E 0 80 54 00
        E 0 90 4f 7f
        E 32 b0 0b 6e
        E 32 b0 0b 5d
        E 32 b0 0b 4c
        E 32 b0 0b 3b
        E 16 b0 0b 7f
        E 0 80 4f 00
        E 0 90 4c 7f
        E 32 b0 0b 6e
        E 32 b0 0b 5d
        E 32 b0 0b 4c
        E 32 b0 0b 3b
        E 16 b0 0b 7f
        E 0 80 4c 00
        E 0 90 4a 7f
        E 32 b0 0b 6e
        E 32 b0 0b 5d
        E 32 b0 0b 4c
        E 32 b0 0b 3b
        E 16 b0 0b 7f
        E 0 80 4a 00
        E 0 90 48 7f
        E 32 b0 0b 6e
        E 32 b0 0b 5d
        E 32 b0 0b 4c
        E 32 b0 0b 3b
        E 16 b0 0b 7f
        E 0 80 48 00
        E 0 90 43 7f
        E 32 b0 0b 6e
        E 32 b0 0b 5d
        E 32 b0 0b 4c
        E 32 b0 0b 3b
        E 16 b0 0b 7f
        E 0 80 43 00
        E 0 90 40 7f
        E 32 b0 0b 6e
        E 32 b0 0b 5d
        E 32 b0 0b 4c
        E 32 b0 0b 3b
        E 16 b0 0b 7f
        E 0 80 40 00
        E 0 90 3e 7f
        E 32 b0 0b 6e
        E 32 b0 0b 5d
        E 32 b0 0b 4c
        E 32 b0 0b 3b
        E 16 b0 0b 7f
        E 0 80 3e 00
        E 0 90 3c 7f
        E 32 b0 0b 6e
        E 32 b0 0b 5d
        E 32 b0 0b 4c
        E 32 b0 0b 3b
        E 16 b0 0b 7f
        E 0 80 3c 00
        E 0 90 37 7f
        E 32 b0 0b 6e
        E 32 b0 0b 5d
        E 32 b0 0b 4c
        E 32 b0 0b 3b
        E 16 b0 0b 7f
        E 0 80 37 00
        E 0 90 34 7f
        E 32 b0 0b 6e
        E 32 b0 0b 5d
        E 32 b0 0b 4c
        E 32 b0 0b 3b
        E 16 b0 0b 7f
        E 0 80 34 00
        E 0 90 32 7f
        E 32 b0 0b 6e
        E 32 b0 0b 5d
        E 32 b0 0b 4c
        E 32 b0 0b 3b
        E 16 b0 0b 7f
        E 0 80 32 00
        E 0 90 30 7f
        E 32 b0 0b 6e
        E 32 b0 0b 5d
        E 32 b0 0b 4c
        E 32 b0 0b 3b
        E 16 b0 0b 7f
        E 0 80 30 00
        E 0 90 2b 7f
        E 32 b0 0b 6e
        E 32 b0 0b 5d
        E 32 b0 0b 4c
        E 32 b0 0b 3b
        E 16 b0 0b 7f
        E 0 80 2b 00
        E 0 90 28 7f
        E 32 b0 0b 6e
        E 32 b0 0b 5d
        E 32 b0 0b 4c
        E 32 b0 0b 3b
        E 16 b0 0b 7f
        E 0 80 28 00
        E 0 90 26 7f
        E 32 b0 0b 6e
        E 32 b0 0b 5d
        E 32 b0 0b 4c
        E 32 b0 0b 3b
        E 16 b0 0b 7f
        E 0 80 26 00
        E 0 90 21 7f
        E 32 b0 0b 6e
        E 32 b0 0b 5d
        E 32 b0 0b 4c
        E 32 b0 0b 3b
        E 16 b0 0b 7f
        E 0 80 21 00
        E 0 90 23 7f
        E 32 b0 0b 6e
        E 32 b0 0b 5d
        E 32 b0 0b 4c
        E 32 b0 0b 3b
        E 16 b0 0b 7f
        E 0 80 23 00
        E 0 90 24 7f
        E 32 b0 0b 6e
        E 32 b0 0b 5d
        E 32 b0 0b 4c
        E 32 b0 0b 3b
        E 16 b0 0b 7f
        E 0 80 24 00
        E 0 90 28 7f
        E 32 b0 0b 6e
        E 32 b0 0b 5d
        E 32 b0 0b 4c
        E 32 b0 0b 3b
        E 16 b0 0b 7f
        E 0 80 28 00
        E 0 90 2d 7f
        E 32 b0 0b 6e
        E 32 b0 0b 5d
        E 32 b0 0b 4c
        E 32 b0 0b 3b
        E 16 b0 0b 7f
        E 0 80 2d 00
        E 0 90 2f 7f
        E 32 b0 0b 6e
        E 32 b0 0b 5d
        E 32 b0 0b 4c
        E 32 b0 0b 3b
        E 16 b0 0b 7f
        E 0 80 2f 00
        E 0 90 30 7f
        E 32 b0 0b 6e
        E 32 b0 0b 5d
        E 32 b0 0b 4c
        E 32 b0 0b 3b
        E 16 b0 0b 7f
        E 0 80 30 00
        E 0 90 34 7f
        E 32 b0 0b 6e
        E 32 b0 0b 5d
        E 32 b0 0b 4c
        E 32 b0 0b 3b
        E 16 b0 0b 7f
        E 0 80 34 00
        E 0 90 39 7f
        E 32 b0 0b 6e
        E 32 b0 0b 5d
        E 32 b0 0b 4c
        E 32 80 39 00
        E 0 b0 7b 00
        E 0 ff 2f 00
      >
    >
  >
  <TRACK {AADBE0FD-82AF-48E5-962F-DE8B656799C8}
    NAME "NES - Pulse 2 [ch1]"
    PEAKCOL 10092441
    BEAT -1
    AUTOMODE 0
    PANLAWFLAGS 3
    VOLPAN 1 0 -1 -1 1
    MUTESOLO 0 0 0
    IPHASE 0
    PLAYOFFS 0 1
    ISBUS 0 0
    BUSCOMP 0 0 0 0 0
    SHOWINMIX 1 0.6667 0.5 1 0.5 0 0 0
    FIXEDLANES 9 0 0 0 0
    SEL 0
    REC 0 5088 1 0 0 0 0 0
    VU 2
    TRACKHEIGHT 0 0 0 0 0 0 0
    INQ 0 0 0 0.5 100 0 0 100
    NCHAN 2
    FX 1
    TRACKID {AADBE0FD-82AF-48E5-962F-DE8B656799C8}
    PERF 0
    MIDIOUT -1
    MAINSEND 1 0
    <FXCHAIN
      WNDRECT 24 52 700 560
      SHOW 0
      LASTSEL 0
      DOCKED 0
      BYPASS 0 0 0
      <JS "ReapNES Studio/ReapNES_Console.jsfx" ""
        2 15 1 10 80 10 100 2 1 15 1 5 60 10 80 1 1 0 50 0 0 15 1 0 100 0 0 0.500000 0.500000 0.400000 0.300000 0.800000 1 1 0 0 0 0 - - - - - - - - - - - - - - - - - - - - - - - - - -
      >
      FLOATPOS 0 0 0 0
      FXID {95DA490F-AAAE-47C0-B098-813D3A87C3F3}
      WAK 0 0
    >
    <ITEM
      POSITION 0
      LENGTH 50.513220800000006
      LOOP 0
      ALLTAKES 0
      FADEIN 0 0 0 0 0 0 0
      FADEOUT 0 0 0 0 0 0 0
      MUTE 0 0
      SEL 0
      IGUID {807A0F7C-E866-4616-802B-0D827110CCC4}
      <SOURCE MIDI
        HASDATA 1 480 QN
        CCINTERP 32
        E 0 c1 51
        E 192 b1 0c 40
        E 0 b1 0b 4c
        E 0 91 24 4c
        E 32 b1 0b 3b
        E 32 b1 0b 33
        E 32 b1 0b 2a
        E 32 b1 0b 22
        E 16 b1 0b 4c
        E 0 81 24 00
        E 0 91 26 4c
        E 32 b1 0b 3b
        E 32 b1 0b 33
        E 32 b1 0b 2a
        E 32 b1 0b 22
        E 16 b1 0b 4c
        E 0 81 26 00
        E 0 91 28 4c
        E 32 b1 0b 3b
        E 32 b1 0b 33
        E 32 b1 0b 2a
        E 32 b1 0b 22
        E 16 b1 0b 4c
        E 0 81 28 00
        E 0 91 2b 4c
        E 32 b1 0b 3b
        E 32 b1 0b 33
        E 32 b1 0b 2a
        E 32 b1 0b 22
        E 16 b1 0b 4c
        E 0 81 2b 00
        E 0 91 30 4c
        E 32 b1 0b 3b
        E 32 b1 0b 33
        E 32 b1 0b 2a
        E 32 b1 0b 22
        E 16 b1 0b 4c
        E 0 81 30 00
        E 0 91 32 4c
        E 32 b1 0b 3b
        E 32 b1 0b 33
        E 32 b1 0b 2a
        E 32 b1 0b 22
        E 16 b1 0b 4c
        E 0 81 32 00
        E 0 91 34 4c
        E 32 b1 0b 3b
        E 32 b1 0b 33
        E 32 b1 0b 2a
        E 32 b1 0b 22
        E 16 b1 0b 4c
        E 0 81 34 00
        E 0 91 37 4c
        E 32 b1 0b 3b
        E 32 b1 0b 33
        E 32 b1 0b 2a
        E 32 b1 0b 22
        E 16 b1 0b 4c
        E 0 81 37 00
        E 0 91 3c 4c
        E 32 b1 0b 3b
        E 32 b1 0b 33
        E 32 b1 0b 2a
        E 32 b1 0b 22
        E 16 b1 0b 4c
        E 0 81 3c 00
        E 0 91 3e 4c
        E 32 b1 0b 3b
        E 32 b1 0b 33
        E 32 b1 0b 2a
        E 32 b1 0b 22
        E 16 b1 0b 4c
        E 0 81 3e 00
        E 0 91 40 4c
        E 32 b1 0b 3b
        E 32 b1 0b 33
        E 32 b1 0b 2a
        E 32 b1 0b 22
        E 16 b1 0b 4c
        E 0 81 40 00
        E 0 91 43 4c
        E 32 b1 0b 3b
        E 32 b1 0b 33
        E 32 b1 0b 2a
        E 32 b1 0b 22
        E 16 b1 0b 4c
        E 0 81 43 00
        E 0 91 48 4c
        E 32 b1 0b 3b
        E 32 b1 0b 33
        E 32 b1 0b 2a
        E 32 b1 0b 22
        E 16 b1 0b 4c
        E 0 81 48 00
        E 0 91 4a 4c
        E 32 b1 0b 3b
        E 32 b1 0b 33
        E 32 b1 0b 2a
        E 32 b1 0b 22
        E 16 b1 0b 4c
        E 0 81 4a 00
        E 0 91 4c 4c
        E 32 b1 0b 3b
        E 32 b1 0b 33
        E 32 b1 0b 2a
        E 32 b1 0b 22
        E 16 b1 0b 4c
        E 0 81 4c 00
        E 0 91 4f 4c
        E 32 b1 0b 3b
        E 32 b1 0b 33
        E 32 b1 0b 2a
        E 32 b1 0b 22
        E 16 b1 0b 4c
        E 0 81 4f 00
        E 0 91 54 4c
        E 32 b1 0b 3b
        E 32 b1 0b 33
        E 32 b1 0b 2a
        E 32 b1 0b 22
        E 16 b1 0b 4c
        E 0 81 54 00
        E 0 91 4f 4c
        E 32 b1 0b 3b
        E 32 b1 0b 33
        E 32 b1 0b 2a
        E 32 b1 0b 22
        E 16 b1 0b 4c
        E 0 81 4f 00
        E 0 91 4c 4c
        E 32 b1 0b 3b
        E 32 b1 0b 33
        E 32 b1 0b 2a
        E 32 b1 0b 22
        E 16 b1 0b 4c
        E 0 81 4c 00
        E 0 91 4a 4c
        E 32 b1 0b 3b
        E 32 b1 0b 33
        E 32 b1 0b 2a
        E 32 b1 0b 22
        E 16 b1 0b 4c
        E 0 81 4a 00
        E 0 91 48 4c
        E 32 b1 0b 3b
        E 32 b1 0b 33
        E 32 b1 0b 2a
        E 32 b1 0b 22
        E 16 b1 0b 4c
        E 0 81 48 00
        E 0 91 43 4c
        E 32 b1 0b 3b
        E 32 b1 0b 33
        E 32 b1 0b 2a
        E 32 b1 0b 22
        E 16 b1 0b 4c
        E 0 81 43 00
        E 0 91 40 4c
        E 32 b1 0b 3b
        E 32 b1 0b 33
        E 32 b1 0b 2a
        E 32 b1 0b 22
        E 16 b1 0b 4c
        E 0 81 40 00
        E 0 91 3e 4c
        E 32 b1 0b 3b
        E 32 b1 0b 33
        E 32 b1 0b 2a
        E 32 b1 0b 22
        E 16 b1 0b 4c
        E 0 81 3e 00
        E 0 91 3c 4c
        E 32 b1 0b 3b
        E 32 b1 0b 33
        E 32 b1 0b 2a
        E 32 b1 0b 22
        E 16 b1 0b 4c
        E 0 81 3c 00
        E 0 91 37 4c
        E 32 b1 0b 3b
        E 32 b1 0b 33
        E 32 b1 0b 2a
        E 32 b1 0b 22
        E 16 b1 0b 4c
        E 0 81 37 00
        E 0 91 34 4c
        E 32 b1 0b 3b
        E 32 b1 0b 33
        E 32 b1 0b 2a
        E 32 b1 0b 22
        E 16 b1 0b 4c
        E 0 81 34 00
        E 0 91 32 4c
        E 32 b1 0b 3b
        E 32 b1 0b 33
        E 32 b1 0b 2a
        E 32 b1 0b 22
        E 16 b1 0b 4c
        E 0 81 32 00
        E 0 91 30 4c
        E 32 b1 0b 3b
        E 32 b1 0b 33
        E 32 b1 0b 2a
        E 32 b1 0b 22
        E 16 b1 0b 4c
        E 0 81 30 00
        E 0 91 2b 4c
        E 32 b1 0b 3b
        E 32 b1 0b 33
        E 32 b1 0b 2a
        E 32 b1 0b 22
        E 16 b1 0b 4c
        E 0 81 2b 00
        E 0 91 28 4c
        E 32 b1 0b 3b
        E 32 b1 0b 33
        E 32 b1 0b 2a
        E 32 b1 0b 22
        E 16 b1 0b 4c
        E 0 81 28 00
        E 0 91 26 4c
        E 32 b1 0b 3b
        E 32 b1 0b 33
        E 32 b1 0b 2a
        E 32 b1 0b 22
        E 16 b1 0b 4c
        E 0 81 26 00
        E 0 91 21 4c
        E 32 b1 0b 3b
        E 32 b1 0b 33
        E 32 b1 0b 2a
        E 32 b1 0b 22
        E 16 b1 0b 4c
        E 0 81 21 00
        E 0 91 23 4c
        E 32 b1 0b 3b
        E 32 b1 0b 33
        E 32 b1 0b 2a
        E 32 b1 0b 22
        E 16 b1 0b 4c
        E 0 81 23 00
        E 0 91 24 4c
        E 32 b1 0b 3b
        E 32 b1 0b 33
        E 32 b1 0b 2a
        E 32 b1 0b 22
        E 16 b1 0b 4c
        E 0 81 24 00
        E 0 91 28 4c
        E 32 b1 0b 3b
        E 32 b1 0b 33
        E 32 b1 0b 2a
        E 32 b1 0b 22
        E 16 b1 0b 4c
        E 0 81 28 00
        E 0 91 2d 4c
        E 32 b1 0b 3b
        E 32 b1 0b 33
        E 32 b1 0b 2a
        E 32 b1 0b 22
        E 16 b1 0b 4c
        E 0 81 2d 00
        E 0 91 2f 4c
        E 32 b1 0b 3b
        E 32 b1 0b 33
        E 32 b1 0b 2a
        E 32 b1 0b 22
        E 16 b1 0b 4c
        E 0 81 2f 00
        E 0 91 30 4c
        E 32 b1 0b 3b
        E 32 b1 0b 33
        E 32 b1 0b 2a
        E 32 b1 0b 22
        E 16 b1 0b 4c
        E 0 81 30 00
        E 0 91 34 4c
        E 32 b1 0b 3b
        E 32 b1 0b 33
        E 32 b1 0b 2a
        E 32 b1 0b 22
        E 16 b1 0b 4c
        E 0 81 34 00
        E 0 91 39 4c
        E 32 b1 0b 3b
        E 32 b1 0b 33
        E 32 b1 0b 2a
        E 32 b1 0b 22
        E 16 b1 0b 4c
        E 0 81 39 00
        E 0 91 3b 4c
        E 32 b1 0b 3b
        E 32 b1 0b 33
        E 32 b1 0b 2a
        E 32 b1 0b 22
        E 16 b1 0b 4c
        E 0 81 3b 00
        E 0 91 3c 4c
        E 32 b1 0b 3b
        E 32 b1 0b 33
        E 32 b1 0b 2a
        E 32 b1 0b 22
        E 16 b1 0b 4c
        E 0 81 3c 00
        E 0 91 40 4c
        E 32 b1 0b 3b
        E 32 b1 0b 33
        E 32 b1 0b 2a
        E 32 b1 0b 22
        E 16 b1 0b 4c
        E 0 81 40 00
        E 0 91 45 4c
        E 32 b1 0b 3b
        E 32 b1 0b 33
        E 32 b1 0b 2a
        E 32 b1 0b 22
        E 16 b1 0b 4c
        E 0 81 45 00
        E 0 91 47 4c
        E 32 b1 0b 3b
        E 32 b1 0b 33
        E 32 b1 0b 2a
        E 32 b1 0b 22
        E 16 b1 0b 4c
        E 0 81 47 00
        E 0 91 48 4c
        E 32 b1 0b 3b
        E 32 b1 0b 33
        E 32 b1 0b 2a
        E 32 b1 0b 22
        E 16 b1 0b 4c
        E 0 81 48 00
        E 0 91 4c 4c
        E 32 b1 0b 3b
        E 32 b1 0b 33
        E 32 b1 0b 2a
        E 32 b1 0b 22
        E 16 b1 0b 4c
        E 0 81 4c 00
        E 0 91 51 4c
        E 32 b1 0b 3b
        E 32 b1 0b 33
        E 32 b1 0b 2a
        E 32 b1 0b 22
        E 16 b1 0b 4c
        E 0 81 51 00
        E 0 91 4c 4c
        E 32 b1 0b 3b
        E 32 b1 0b 33
        E 32 b1 0b 2a
        E 32 b1 0b 22
        E 16 b1 0b 4c
        E 0 81 4c 00
        E 0 91 48 4c
        E 32 b1 0b 3b
        E 32 b1 0b 33
        E 32 b1 0b 2a
        E 32 b1 0b 22
        E 16 b1 0b 4c
        E 0 81 48 00
        E 0 91 47 4c
        E 32 b1 0b 3b
        E 32 b1 0b 33
        E 32 b1 0b 2a
        E 32 b1 0b 22
        E 16 b1 0b 4c
        E 0 81 47 00
        E 0 91 45 4c
        E 32 b1 0b 3b
        E 32 b1 0b 33
        E 32 b1 0b 2a
        E 32 b1 0b 22
        E 16 b1 0b 4c
        E 0 81 45 00
        E 0 91 40 4c
        E 32 b1 0b 3b
        E 32 b1 0b 33
        E 32 b1 0b 2a
        E 32 b1 0b 22
        E 16 b1 0b 4c
        E 0 81 40 00
        E 0 91 3c 4c
        E 32 b1 0b 3b
        E 32 b1 0b 33
        E 32 b1 0b 2a
        E 32 b1 0b 22
        E 16 b1 0b 4c
        E 0 81 3c 00
        E 0 91 3b 4c
        E 32 b1 0b 3b
        E 32 b1 0b 33
        E 32 b1 0b 2a
        E 32 b1 0b 22
        E 16 b1 0b 4c
        E 0 81 3b 00
        E 0 91 39 4c
        E 32 b1 0b 3b
        E 32 b1 0b 33
        E 32 b1 0b 2a
        E 32 b1 0b 22
        E 16 b1 0b 4c
        E 0 81 39 00
        E 0 91 34 4c
        E 32 b1 0b 3b
        E 32 b1 0b 33
        E 32 b1 0b 2a
        E 32 b1 0b 22
        E 16 b1 0b 4c
        E 0 81 34 00
        E 0 91 30 4c
        E 32 b1 0b 3b
        E 32 b1 0b 33
        E 32 b1 0b 2a
        E 32 b1 0b 22
        E 16 b1 0b 4c
        E 0 81 30 00
        E 0 91 2f 4c
        E 32 b1 0b 3b
        E 32 b1 0b 33
        E 32 b1 0b 2a
        E 32 b1 0b 22
        E 16 b1 0b 4c
        E 0 81 2f 00
        E 0 91 2d 4c
        E 32 b1 0b 3b
        E 32 b1 0b 33
        E 32 b1 0b 2a
        E 32 b1 0b 22
        E 16 b1 0b 4c
        E 0 81 2d 00
        E 0 91 28 4c
        E 32 b1 0b 3b
        E 32 b1 0b 33
        E 32 b1 0b 2a
        E 32 b1 0b 22
        E 16 b1 0b 4c
        E 0 81 28 00
        E 0 91 24 4c
        E 32 b1 0b 3b
        E 32 b1 0b 33
        E 32 b1 0b 2a
        E 32 b1 0b 22
        E 16 b1 0b 4c
        E 0 81 24 00
        E 0 91 23 4c
        E 32 b1 0b 3b
        E 32 b1 0b 33
        E 32 b1 0b 2a
        E 32 b1 0b 22
        E 16 b1 0b 4c
        E 0 81 23 00
        E 0 91 24 4c
        E 32 b1 0b 3b
        E 32 b1 0b 33
        E 32 b1 0b 2a
        E 32 b1 0b 22
        E 16 b1 0b 4c
        E 0 81 24 00
        E 0 91 26 4c
        E 32 b1 0b 3b
        E 32 b1 0b 33
        E 32 b1 0b 2a
        E 32 b1 0b 22
        E 16 b1 0b 4c
        E 0 81 26 00
        E 0 91 28 4c
        E 32 b1 0b 3b
        E 32 b1 0b 33
        E 32 b1 0b 2a
        E 32 b1 0b 22
        E 16 b1 0b 4c
        E 0 81 28 00
        E 0 91 2b 4c
        E 32 b1 0b 3b
        E 32 b1 0b 33
        E 32 b1 0b 2a
        E 32 b1 0b 22
        E 16 b1 0b 4c
        E 0 81 2b 00
        E 0 91 30 4c
        E 32 b1 0b 3b
        E 32 b1 0b 33
        E 32 b1 0b 2a
        E 32 b1 0b 22
        E 16 b1 0b 4c
        E 0 81 30 00
        E 0 91 32 4c
        E 32 b1 0b 3b
        E 32 b1 0b 33
        E 32 b1 0b 2a
        E 32 b1 0b 22
        E 16 b1 0b 4c
        E 0 81 32 00
        E 0 91 34 4c
        E 32 b1 0b 3b
        E 32 b1 0b 33
        E 32 b1 0b 2a
        E 32 b1 0b 22
        E 16 b1 0b 4c
        E 0 81 34 00
        E 0 91 37 4c
        E 32 b1 0b 3b
        E 32 b1 0b 33
        E 32 b1 0b 2a
        E 32 b1 0b 22
        E 16 b1 0b 4c
        E 0 81 37 00
        E 0 91 3c 4c
        E 32 b1 0b 3b
        E 32 b1 0b 33
        E 32 b1 0b 2a
        E 32 b1 0b 22
        E 16 b1 0b 4c
        E 0 81 3c 00
        E 0 91 3e 4c
        E 32 b1 0b 3b
        E 32 b1 0b 33
        E 32 b1 0b 2a
        E 32 b1 0b 22
        E 16 b1 0b 4c
        E 0 81 3e 00
        E 0 91 40 4c
        E 32 b1 0b 3b
        E 32 b1 0b 33
        E 32 b1 0b 2a
        E 32 b1 0b 22
        E 16 b1 0b 4c
        E 0 81 40 00
        E 0 91 43 4c
        E 32 b1 0b 3b
        E 32 b1 0b 33
        E 32 b1 0b 2a
        E 32 b1 0b 22
        E 16 b1 0b 4c
        E 0 81 43 00
        E 0 91 48 4c
        E 32 b1 0b 3b
        E 32 b1 0b 33
        E 32 b1 0b 2a
        E 32 b1 0b 22
        E 16 b1 0b 4c
        E 0 81 48 00
        E 0 91 4a 4c
        E 32 b1 0b 3b
        E 32 b1 0b 33
        E 32 b1 0b 2a
        E 32 b1 0b 22
        E 16 b1 0b 4c
        E 0 81 4a 00
        E 0 91 4c 4c
        E 32 b1 0b 3b
        E 32 b1 0b 33
        E 32 b1 0b 2a
        E 32 b1 0b 22
        E 16 b1 0b 4c
        E 0 81 4c 00
        E 0 91 4f 4c
        E 32 b1 0b 3b
        E 32 b1 0b 33
        E 32 b1 0b 2a
        E 32 b1 0b 22
        E 16 b1 0b 4c
        E 0 81 4f 00
        E 0 91 54 4c
        E 32 b1 0b 3b
        E 32 b1 0b 33
        E 32 b1 0b 2a
        E 32 b1 0b 22
        E 16 b1 0b 4c
        E 0 81 54 00
        E 0 91 4f 4c
        E 32 b1 0b 3b
        E 32 b1 0b 33
        E 32 b1 0b 2a
        E 32 b1 0b 22
        E 16 b1 0b 4c
        E 0 81 4f 00
        E 0 91 4c 4c
        E 32 b1 0b 3b
        E 32 b1 0b 33
        E 32 b1 0b 2a
        E 32 b1 0b 22
        E 16 b1 0b 4c
        E 0 81 4c 00
        E 0 91 4a 4c
        E 32 b1 0b 3b
        E 32 b1 0b 33
        E 32 b1 0b 2a
        E 32 b1 0b 22
        E 16 b1 0b 4c
        E 0 81 4a 00
        E 0 91 48 4c
        E 32 b1 0b 3b
        E 32 b1 0b 33
        E 32 b1 0b 2a
        E 32 b1 0b 22
        E 16 b1 0b 4c
        E 0 81 48 00
        E 0 91 43 4c
        E 32 b1 0b 3b
        E 32 b1 0b 33
        E 32 b1 0b 2a
        E 32 b1 0b 22
        E 16 b1 0b 4c
        E 0 81 43 00
        E 0 91 40 4c
        E 32 b1 0b 3b
        E 32 b1 0b 33
        E 32 b1 0b 2a
        E 32 b1 0b 22
        E 16 b1 0b 4c
        E 0 81 40 00
        E 0 91 3e 4c
        E 32 b1 0b 3b
        E 32 b1 0b 33
        E 32 b1 0b 2a
        E 32 b1 0b 22
        E 16 b1 0b 4c
        E 0 81 3e 00
        E 0 91 3c 4c
        E 32 b1 0b 3b
        E 32 b1 0b 33
        E 32 b1 0b 2a
        E 32 b1 0b 22
        E 16 b1 0b 4c
        E 0 81 3c 00
        E 0 91 37 4c
        E 32 b1 0b 3b
        E 32 b1 0b 33
        E 32 b1 0b 2a
        E 32 b1 0b 22
        E 16 b1 0b 4c
        E 0 81 37 00
        E 0 91 34 4c
        E 32 b1 0b 3b
        E 32 b1 0b 33
        E 32 b1 0b 2a
        E 32 b1 0b 22
        E 16 b1 0b 4c
        E 0 81 34 00
        E 0 91 32 4c
        E 32 b1 0b 3b
        E 32 b1 0b 33
        E 32 b1 0b 2a
        E 32 b1 0b 22
        E 16 b1 0b 4c
        E 0 81 32 00
        E 0 91 30 4c
        E 32 b1 0b 3b
        E 32 b1 0b 33
        E 32 b1 0b 2a
        E 32 b1 0b 22
        E 16 b1 0b 4c
        E 0 81 30 00
        E 0 91 2b 4c
        E 32 b1 0b 3b
        E 32 b1 0b 33
        E 32 b1 0b 2a
        E 32 b1 0b 22
        E 16 b1 0b 4c
        E 0 81 2b 00
        E 0 91 28 4c
        E 32 b1 0b 3b
        E 32 b1 0b 33
        E 32 b1 0b 2a
        E 32 b1 0b 22
        E 16 b1 0b 4c
        E 0 81 28 00
        E 0 91 26 4c
        E 32 b1 0b 3b
        E 32 b1 0b 33
        E 32 b1 0b 2a
        E 32 b1 0b 22
        E 16 b1 0b 4c
        E 0 81 26 00
        E 0 91 21 4c
        E 32 b1 0b 3b
        E 32 b1 0b 33
        E 32 b1 0b 2a
        E 32 b1 0b 22
        E 16 b1 0b 4c
        E 0 81 21 00
        E 0 91 23 4c
        E 32 b1 0b 3b
        E 32 b1 0b 33
        E 32 b1 0b 2a
        E 32 b1 0b 22
        E 16 b1 0b 4c
        E 0 81 23 00
        E 0 91 24 4c
        E 32 b1 0b 3b
        E 32 b1 0b 33
        E 32 b1 0b 2a
        E 32 b1 0b 22
        E 16 b1 0b 4c
        E 0 81 24 00
        E 0 91 28 4c
        E 32 b1 0b 3b
        E 32 b1 0b 33
        E 32 b1 0b 2a
        E 32 b1 0b 22
        E 16 b1 0b 4c
        E 0 81 28 00
        E 0 91 2d 4c
        E 32 b1 0b 3b
        E 32 b1 0b 33
        E 32 b1 0b 2a
        E 32 b1 0b 22
        E 16 b1 0b 4c
        E 0 81 2d 00
        E 0 91 2f 4c
        E 32 b1 0b 3b
        E 32 b1 0b 33
        E 32 b1 0b 2a
        E 32 b1 0b 22
        E 16 b1 0b 4c
        E 0 81 2f 00
        E 0 91 30 4c
        E 32 b1 0b 3b
        E 32 b1 0b 33
        E 32 b1 0b 2a
        E 32 b1 0b 22
        E 16 b1 0b 4c
        E 0 81 30 00
        E 0 91 34 4c
        E 32 b1 0b 3b
        E 32 b1 0b 33
        E 32 b1 0b 2a
        E 32 b1 0b 22
        E 16 b1 0b 4c
        E 0 81 34 00
        E 0 91 39 4c
        E 32 b1 0b 3b
        E 32 b1 0b 33
        E 32 b1 0b 2a
        E 32 b1 0b 22
        E 16 b1 0b 4c
        E 0 81 39 00
        E 0 91 3b 4c
        E 32 b1 0b 3b
        E 32 b1 0b 33
        E 32 b1 0b 2a
        E 32 b1 0b 22
        E 16 b1 0b 4c
        E 0 81 3b 00
        E 0 91 3c 4c
        E 32 b1 0b 3b
        E 32 b1 0b 33
        E 32 b1 0b 2a
        E 32 b1 0b 22
        E 16 b1 0b 4c
        E 0 81 3c 00
        E 0 91 40 4c
        E 32 b1 0b 3b
        E 32 b1 0b 33
        E 32 b1 0b 2a
        E 32 b1 0b 22
        E 16 b1 0b 4c
        E 0 81 40 00
        E 0 91 45 4c
        E 32 b1 0b 3b
        E 32 b1 0b 33
        E 32 b1 0b 2a
        E 32 b1 0b 22
        E 16 b1 0b 4c
        E 0 81 45 00
        E 0 91 47 4c
        E 32 b1 0b 3b
        E 32 b1 0b 33
        E 32 b1 0b 2a
        E 32 b1 0b 22
        E 16 b1 0b 4c
        E 0 81 47 00
        E 0 91 48 4c
        E 32 b1 0b 3b
        E 32 b1 0b 33
        E 32 b1 0b 2a
        E 32 b1 0b 22
        E 16 b1 0b 4c
        E 0 81 48 00
        E 0 91 4c 4c
        E 32 b1 0b 3b
        E 32 b1 0b 33
        E 32 b1 0b 2a
        E 32 b1 0b 22
        E 16 b1 0b 4c
        E 0 81 4c 00
        E 0 91 51 4c
        E 32 b1 0b 3b
        E 32 b1 0b 33
        E 32 b1 0b 2a
        E 32 b1 0b 22
        E 16 b1 0b 4c
        E 0 81 51 00
        E 0 91 4c 4c
        E 32 b1 0b 3b
        E 32 b1 0b 33
        E 32 b1 0b 2a
        E 32 b1 0b 22
        E 16 b1 0b 4c
        E 0 81 4c 00
        E 0 91 48 4c
        E 32 b1 0b 3b
        E 32 b1 0b 33
        E 32 b1 0b 2a
        E 32 b1 0b 22
        E 16 b1 0b 4c
        E 0 81 48 00
        E 0 91 47 4c
        E 32 b1 0b 3b
        E 32 b1 0b 33
        E 32 b1 0b 2a
        E 32 b1 0b 22
        E 16 b1 0b 4c
        E 0 81 47 00
        E 0 91 45 4c
        E 32 b1 0b 3b
        E 32 b1 0b 33
        E 32 b1 0b 2a
        E 32 b1 0b 22
        E 16 b1 0b 4c
        E 0 81 45 00
        E 0 91 40 4c
        E 32 b1 0b 3b
        E 32 b1 0b 33
        E 32 b1 0b 2a
        E 32 b1 0b 22
        E 16 b1 0b 4c
        E 0 81 40 00
        E 0 91 3c 4c
        E 32 b1 0b 3b
        E 32 b1 0b 33
        E 32 b1 0b 2a
        E 32 b1 0b 22
        E 16 b1 0b 4c
        E 0 81 3c 00
        E 0 91 3b 4c
        E 32 b1 0b 3b
        E 32 b1 0b 33
        E 32 b1 0b 2a
        E 32 b1 0b 22
        E 16 b1 0b 4c
        E 0 81 3b 00
        E 0 91 39 4c
        E 32 b1 0b 3b
        E 32 b1 0b 33
        E 32 b1 0b 2a
        E 32 b1 0b 22
        E 16 b1 0b 4c
        E 0 81 39 00
        E 0 91 34 4c
        E 32 b1 0b 3b
        E 32 b1 0b 33
        E 32 b1 0b 2a
        E 32 b1 0b 22
        E 16 b1 0b 4c
        E 0 81 34 00
        E 0 91 30 4c
        E 32 b1 0b 3b
        E 32 b1 0b 33
        E 32 b1 0b 2a
        E 32 b1 0b 22
        E 16 b1 0b 4c
        E 0 81 30 00
        E 0 91 2f 4c
        E 32 b1 0b 3b
        E 32 b1 0b 33
        E 32 b1 0b 2a
        E 32 b1 0b 22
        E 16 b1 0b 4c
        E 0 81 2f 00
        E 0 91 2d 4c
        E 32 b1 0b 3b
        E 32 b1 0b 33
        E 32 b1 0b 2a
        E 32 b1 0b 22
        E 16 b1 0b 4c
        E 0 81 2d 00
        E 0 91 28 4c
        E 32 b1 0b 3b
        E 32 b1 0b 33
        E 32 b1 0b 2a
        E 32 b1 0b 22
        E 16 b1 0b 4c
        E 0 81 28 00
        E 0 91 24 4c
        E 32 b1 0b 3b
        E 32 b1 0b 33
        E 32 b1 0b 2a
        E 32 b1 0b 22
        E 16 b1 0b 4c
        E 0 81 24 00
        E 0 91 23 4c
        E 32 b1 0b 3b
        E 32 b1 0b 33
        E 32 b1 0b 2a
        E 32 b1 0b 22
        E 16 b1 0b 4c
        E 0 81 23 00
        E 0 91 21 4c
        E 32 b1 0b 3b
        E 32 b1 0b 33
        E 32 b1 0b 2a
        E 32 b1 0b 22
        E 16 b1 0b 4c
        E 0 81 21 00
        E 0 91 24 4c
        E 32 b1 0b 3b
        E 32 b1 0b 33
        E 32 b1 0b 2a
        E 32 b1 0b 22
        E 16 b1 0b 4c
        E 0 81 24 00
        E 0 91 29 4c
        E 32 b1 0b 3b
        E 32 b1 0b 33
        E 32 b1 0b 2a
        E 32 b1 0b 22
        E 16 b1 0b 4c
        E 0 81 29 00
        E 0 91 2b 4c
        E 32 b1 0b 3b
        E 32 b1 0b 33
        E 32 b1 0b 2a
        E 32 b1 0b 22
        E 16 b1 0b 4c
        E 0 81 2b 00
        E 0 91 2d 4c
        E 32 b1 0b 3b
        E 32 b1 0b 33
        E 32 b1 0b 2a
        E 32 b1 0b 22
        E 16 b1 0b 4c
        E 0 81 2d 00
        E 0 91 30 4c
        E 32 b1 0b 3b
        E 32 b1 0b 33
        E 32 b1 0b 2a
        E 32 b1 0b 22
        E 16 b1 0b 4c
        E 0 81 30 00
        E 0 91 35 4c
        E 32 b1 0b 3b
        E 32 b1 0b 33
        E 32 b1 0b 2a
        E 32 b1 0b 22
        E 16 b1 0b 4c
        E 0 81 35 00
        E 0 91 37 4c
        E 32 b1 0b 3b
        E 32 b1 0b 33
        E 32 b1 0b 2a
        E 32 b1 0b 22
        E 16 b1 0b 4c
        E 0 81 37 00
        E 0 91 39 4c
        E 32 b1 0b 3b
        E 32 b1 0b 33
        E 32 b1 0b 2a
        E 32 b1 0b 22
        E 16 b1 0b 4c
        E 0 81 39 00
        E 0 91 3c 4c
        E 32 b1 0b 3b
        E 32 b1 0b 33
        E 32 b1 0b 2a
        E 32 b1 0b 22
        E 16 b1 0b 4c
        E 0 81 3c 00
        E 0 91 41 4c
        E 32 b1 0b 3b
        E 32 b1 0b 33
        E 32 b1 0b 2a
        E 32 b1 0b 22
        E 16 b1 0b 4c
        E 0 81 41 00
        E 0 91 43 4c
        E 32 b1 0b 3b
        E 32 b1 0b 33
        E 32 b1 0b 2a
        E 32 b1 0b 22
        E 16 b1 0b 4c
        E 0 81 43 00
        E 0 91 45 4c
        E 32 b1 0b 3b
        E 32 b1 0b 33
        E 32 b1 0b 2a
        E 32 b1 0b 22
        E 16 b1 0b 4c
        E 0 81 45 00
        E 0 91 48 4c
        E 32 b1 0b 3b
        E 32 b1 0b 33
        E 32 b1 0b 2a
        E 32 b1 0b 22
        E 16 b1 0b 4c
        E 0 81 48 00
        E 0 91 4d 4c
        E 32 b1 0b 3b
        E 32 b1 0b 33
        E 32 b1 0b 2a
        E 32 b1 0b 22
        E 16 b1 0b 4c
        E 0 81 4d 00
        E 0 91 4f 4c
        E 32 b1 0b 3b
        E 32 b1 0b 33
        E 32 b1 0b 2a
        E 32 b1 0b 22
        E 16 b1 0b 4c
        E 0 81 4f 00
        E 0 91 51 4c
        E 32 b1 0b 3b
        E 32 b1 0b 33
        E 32 b1 0b 2a
        E 32 b1 0b 22
        E 16 b1 0b 4c
        E 0 81 51 00
        E 0 91 4f 4c
        E 32 b1 0b 3b
        E 32 b1 0b 33
        E 32 b1 0b 2a
        E 32 b1 0b 22
        E 16 b1 0b 4c
        E 0 81 4f 00
        E 0 91 4d 4c
        E 32 b1 0b 3b
        E 32 b1 0b 33
        E 32 b1 0b 2a
        E 32 b1 0b 22
        E 16 b1 0b 4c
        E 0 81 4d 00
        E 0 91 48 4c
        E 32 b1 0b 3b
        E 32 b1 0b 33
        E 32 b1 0b 2a
        E 32 b1 0b 22
        E 16 b1 0b 4c
        E 0 81 48 00
        E 0 91 45 4c
        E 32 b1 0b 3b
        E 32 b1 0b 33
        E 32 b1 0b 2a
        E 32 b1 0b 22
        E 16 b1 0b 4c
        E 0 81 45 00
        E 0 91 43 4c
        E 32 b1 0b 3b
        E 32 b1 0b 33
        E 32 b1 0b 2a
        E 32 b1 0b 22
        E 16 b1 0b 4c
        E 0 81 43 00
        E 0 91 41 4c
        E 32 b1 0b 3b
        E 32 b1 0b 33
        E 32 b1 0b 2a
        E 32 b1 0b 22
        E 16 b1 0b 4c
        E 0 81 41 00
        E 0 91 3c 4c
        E 32 b1 0b 3b
        E 32 b1 0b 33
        E 32 b1 0b 2a
        E 32 b1 0b 22
        E 16 b1 0b 4c
        E 0 81 3c 00
        E 0 91 39 4c
        E 32 b1 0b 3b
        E 32 b1 0b 33
        E 32 b1 0b 2a
        E 32 b1 0b 22
        E 16 b1 0b 4c
        E 0 81 39 00
        E 0 91 37 4c
        E 32 b1 0b 3b
        E 32 b1 0b 33
        E 32 b1 0b 2a
        E 32 b1 0b 22
        E 16 b1 0b 4c
        E 0 81 37 00
        E 0 91 35 4c
        E 32 b1 0b 3b
        E 32 b1 0b 33
        E 32 b1 0b 2a
        E 32 b1 0b 22
        E 16 b1 0b 4c
        E 0 81 35 00
        E 0 91 30 4c
        E 32 b1 0b 3b
        E 32 b1 0b 33
        E 32 b1 0b 2a
        E 32 b1 0b 22
        E 16 b1 0b 4c
        E 0 81 30 00
        E 0 91 2d 4c
        E 32 b1 0b 3b
        E 32 b1 0b 33
        E 32 b1 0b 2a
        E 32 b1 0b 22
        E 16 b1 0b 4c
        E 0 81 2d 00
        E 0 91 2b 4c
        E 32 b1 0b 3b
        E 32 b1 0b 33
        E 32 b1 0b 2a
        E 32 b1 0b 22
        E 16 b1 0b 4c
        E 0 81 2b 00
        E 0 91 29 4c
        E 32 b1 0b 3b
        E 32 b1 0b 33
        E 32 b1 0b 2a
        E 32 b1 0b 22
        E 16 b1 0b 4c
        E 0 81 29 00
        E 0 91 24 4c
        E 32 b1 0b 3b
        E 32 b1 0b 33
        E 32 b1 0b 2a
        E 32 b1 0b 22
        E 16 b1 0b 4c
        E 0 81 24 00
        E 0 91 23 4c
        E 32 b1 0b 3b
        E 32 b1 0b 33
        E 32 b1 0b 2a
        E 32 b1 0b 22
        E 16 b1 0b 4c
        E 0 81 23 00
        E 0 91 26 4c
        E 32 b1 0b 3b
        E 32 b1 0b 33
        E 32 b1 0b 2a
        E 32 b1 0b 22
        E 16 b1 0b 4c
        E 0 81 26 00
        E 0 91 2b 4c
        E 32 b1 0b 3b
        E 32 b1 0b 33
        E 32 b1 0b 2a
        E 32 b1 0b 22
        E 16 b1 0b 4c
        E 0 81 2b 00
        E 0 91 2d 4c
        E 32 b1 0b 3b
        E 32 b1 0b 33
        E 32 b1 0b 2a
        E 32 b1 0b 22
        E 16 b1 0b 4c
        E 0 81 2d 00
        E 0 91 2f 4c
        E 32 b1 0b 3b
        E 32 b1 0b 33
        E 32 b1 0b 2a
        E 32 b1 0b 22
        E 16 b1 0b 4c
        E 0 81 2f 00
        E 0 91 32 4c
        E 32 b1 0b 3b
        E 32 b1 0b 33
        E 32 b1 0b 2a
        E 32 b1 0b 22
        E 16 b1 0b 4c
        E 0 81 32 00
        E 0 91 37 4c
        E 32 b1 0b 3b
        E 32 b1 0b 33
        E 32 b1 0b 2a
        E 32 b1 0b 22
        E 16 b1 0b 4c
        E 0 81 37 00
        E 0 91 39 4c
        E 32 b1 0b 3b
        E 32 b1 0b 33
        E 32 b1 0b 2a
        E 32 b1 0b 22
        E 16 b1 0b 4c
        E 0 81 39 00
        E 0 91 3b 4c
        E 32 b1 0b 3b
        E 32 b1 0b 33
        E 32 b1 0b 2a
        E 32 b1 0b 22
        E 16 b1 0b 4c
        E 0 81 3b 00
        E 0 91 3e 4c
        E 32 b1 0b 3b
        E 32 b1 0b 33
        E 32 b1 0b 2a
        E 32 b1 0b 22
        E 16 b1 0b 4c
        E 0 81 3e 00
        E 0 91 43 4c
        E 32 b1 0b 3b
        E 32 b1 0b 33
        E 32 b1 0b 2a
        E 32 b1 0b 22
        E 16 b1 0b 4c
        E 0 81 43 00
        E 0 91 45 4c
        E 32 b1 0b 3b
        E 32 b1 0b 33
        E 32 b1 0b 2a
        E 32 b1 0b 22
        E 16 b1 0b 4c
        E 0 81 45 00
        E 0 91 47 4c
        E 32 b1 0b 3b
        E 32 b1 0b 33
        E 32 b1 0b 2a
        E 32 b1 0b 22
        E 16 b1 0b 4c
        E 0 81 47 00
        E 0 91 4a 4c
        E 32 b1 0b 3b
        E 32 b1 0b 33
        E 32 b1 0b 2a
        E 32 b1 0b 22
        E 16 b1 0b 4c
        E 0 81 4a 00
        E 0 91 4f 4c
        E 32 b1 0b 3b
        E 32 b1 0b 33
        E 32 b1 0b 2a
        E 32 b1 0b 22
        E 16 b1 0b 4c
        E 0 81 4f 00
        E 0 91 51 4c
        E 32 b1 0b 3b
        E 32 b1 0b 33
        E 32 b1 0b 2a
        E 32 b1 0b 22
        E 16 b1 0b 4c
        E 0 81 51 00
        E 0 91 53 4c
        E 32 b1 0b 3b
        E 32 b1 0b 33
        E 32 b1 0b 2a
        E 32 b1 0b 22
        E 16 b1 0b 4c
        E 0 81 53 00
        E 0 91 51 4c
        E 32 b1 0b 3b
        E 32 b1 0b 33
        E 32 b1 0b 2a
        E 32 b1 0b 22
        E 16 b1 0b 4c
        E 0 81 51 00
        E 0 91 4f 4c
        E 32 b1 0b 3b
        E 32 b1 0b 33
        E 32 b1 0b 2a
        E 32 b1 0b 22
        E 16 b1 0b 4c
        E 0 81 4f 00
        E 0 91 4a 4c
        E 32 b1 0b 3b
        E 32 b1 0b 33
        E 32 b1 0b 2a
        E 32 b1 0b 22
        E 16 b1 0b 4c
        E 0 81 4a 00
        E 0 91 47 4c
        E 32 b1 0b 3b
        E 32 b1 0b 33
        E 32 b1 0b 2a
        E 32 b1 0b 22
        E 16 b1 0b 4c
        E 0 81 47 00
        E 0 91 45 4c
        E 32 b1 0b 3b
        E 32 b1 0b 33
        E 32 b1 0b 2a
        E 32 b1 0b 22
        E 16 b1 0b 4c
        E 0 81 45 00
        E 0 91 43 4c
        E 32 b1 0b 3b
        E 32 b1 0b 33
        E 32 b1 0b 2a
        E 32 b1 0b 22
        E 16 b1 0b 4c
        E 0 81 43 00
        E 0 91 3e 4c
        E 32 b1 0b 3b
        E 32 b1 0b 33
        E 32 b1 0b 2a
        E 32 b1 0b 22
        E 16 b1 0b 4c
        E 0 81 3e 00
        E 0 91 3b 4c
        E 32 b1 0b 3b
        E 32 b1 0b 33
        E 32 b1 0b 2a
        E 32 b1 0b 22
        E 16 b1 0b 4c
        E 0 81 3b 00
        E 0 91 39 4c
        E 32 b1 0b 3b
        E 32 b1 0b 33
        E 32 b1 0b 2a
        E 32 b1 0b 22
        E 16 b1 0b 4c
        E 0 81 39 00
        E 0 91 37 4c
        E 32 b1 0b 3b
        E 32 b1 0b 33
        E 32 b1 0b 2a
        E 32 b1 0b 22
        E 16 b1 0b 4c
        E 0 81 37 00
        E 0 91 32 4c
        E 32 b1 0b 3b
        E 32 b1 0b 33
        E 32 b1 0b 2a
        E 32 b1 0b 22
        E 16 b1 0b 4c
        E 0 81 32 00
        E 0 91 2f 4c
        E 32 b1 0b 3b
        E 32 b1 0b 33
        E 32 b1 0b 2a
        E 32 b1 0b 22
        E 16 b1 0b 4c
        E 0 81 2f 00
        E 0 91 2d 4c
        E 32 b1 0b 3b
        E 32 b1 0b 33
        E 32 b1 0b 2a
        E 32 b1 0b 22
        E 16 b1 0b 4c
        E 0 81 2d 00
        E 0 91 2b 4c
        E 32 b1 0b 3b
        E 32 b1 0b 33
        E 32 b1 0b 2a
        E 32 b1 0b 22
        E 16 b1 0b 4c
        E 0 81 2b 00
        E 0 91 26 4c
        E 32 b1 0b 3b
        E 32 b1 0b 33
        E 32 b1 0b 2a
        E 32 b1 0b 22
        E 16 b1 0b 4c
        E 0 81 26 00
        E 0 91 20 4c
        E 32 b1 0b 3b
        E 32 b1 0b 33
        E 32 b1 0b 2a
        E 32 b1 0b 22
        E 16 b1 0b 4c
        E 0 81 20 00
        E 0 91 24 4c
        E 32 b1 0b 3b
        E 32 b1 0b 33
        E 32 b1 0b 2a
        E 32 b1 0b 22
        E 16 b1 0b 4c
        E 0 81 24 00
        E 0 91 27 4c
        E 32 b1 0b 3b
        E 32 b1 0b 33
        E 32 b1 0b 2a
        E 32 b1 0b 22
        E 16 b1 0b 4c
        E 0 81 27 00
        E 0 91 2b 4c
        E 32 b1 0b 3b
        E 32 b1 0b 33
        E 32 b1 0b 2a
        E 32 b1 0b 22
        E 16 b1 0b 4c
        E 0 81 2b 00
        E 0 91 2c 4c
        E 32 b1 0b 3b
        E 32 b1 0b 33
        E 32 b1 0b 2a
        E 32 b1 0b 22
        E 16 b1 0b 4c
        E 0 81 2c 00
        E 0 91 30 4c
        E 32 b1 0b 3b
        E 32 b1 0b 33
        E 32 b1 0b 2a
        E 32 b1 0b 22
        E 16 b1 0b 4c
        E 0 81 30 00
        E 0 91 33 4c
        E 32 b1 0b 3b
        E 32 b1 0b 33
        E 32 b1 0b 2a
        E 32 b1 0b 22
        E 16 b1 0b 4c
        E 0 81 33 00
        E 0 91 37 4c
        E 32 b1 0b 3b
        E 32 b1 0b 33
        E 32 b1 0b 2a
        E 32 b1 0b 22
        E 16 b1 0b 4c
        E 0 81 37 00
        E 0 91 38 4c
        E 32 b1 0b 3b
        E 32 b1 0b 33
        E 32 b1 0b 2a
        E 32 b1 0b 22
        E 16 b1 0b 4c
        E 0 81 38 00
        E 0 91 3c 4c
        E 32 b1 0b 3b
        E 32 b1 0b 33
        E 32 b1 0b 2a
        E 32 b1 0b 22
        E 16 b1 0b 4c
        E 0 81 3c 00
        E 0 91 3f 4c
        E 32 b1 0b 3b
        E 32 b1 0b 33
        E 32 b1 0b 2a
        E 32 b1 0b 22
        E 16 b1 0b 4c
        E 0 81 3f 00
        E 0 91 43 4c
        E 32 b1 0b 3b
        E 32 b1 0b 33
        E 32 b1 0b 2a
        E 32 b1 0b 22
        E 16 b1 0b 4c
        E 0 81 43 00
        E 0 91 44 4c
        E 32 b1 0b 3b
        E 32 b1 0b 33
        E 32 b1 0b 2a
        E 32 b1 0b 22
        E 16 b1 0b 4c
        E 0 81 44 00
        E 0 91 48 4c
        E 32 b1 0b 3b
        E 32 b1 0b 33
        E 32 b1 0b 2a
        E 32 b1 0b 22
        E 16 b1 0b 4c
        E 0 81 48 00
        E 0 91 4b 4c
        E 32 b1 0b 3b
        E 32 b1 0b 33
        E 32 b1 0b 2a
        E 32 b1 0b 22
        E 16 b1 0b 4c
        E 0 81 4b 00
        E 0 91 4f 4c
        E 32 b1 0b 3b
        E 32 b1 0b 33
        E 32 b1 0b 2a
        E 32 b1 0b 22
        E 16 b1 0b 4c
        E 0 81 4f 00
        E 0 91 50 4c
        E 32 b1 0b 3b
        E 32 b1 0b 33
        E 32 b1 0b 2a
        E 32 b1 0b 22
        E 16 b1 0b 4c
        E 0 81 50 00
        E 0 91 4f 4c
        E 32 b1 0b 3b
        E 32 b1 0b 33
        E 32 b1 0b 2a
        E 32 b1 0b 22
        E 16 b1 0b 4c
        E 0 81 4f 00
        E 0 91 4b 4c
        E 32 b1 0b 3b
        E 32 b1 0b 33
        E 32 b1 0b 2a
        E 32 b1 0b 22
        E 16 b1 0b 4c
        E 0 81 4b 00
        E 0 91 48 4c
        E 32 b1 0b 3b
        E 32 b1 0b 33
        E 32 b1 0b 2a
        E 32 b1 0b 22
        E 16 b1 0b 4c
        E 0 81 48 00
        E 0 91 44 4c
        E 32 b1 0b 3b
        E 32 b1 0b 33
        E 32 b1 0b 2a
        E 32 b1 0b 22
        E 16 b1 0b 4c
        E 0 81 44 00
        E 0 91 43 4c
        E 32 b1 0b 3b
        E 32 b1 0b 33
        E 32 b1 0b 2a
        E 32 b1 0b 22
        E 16 b1 0b 4c
        E 0 81 43 00
        E 0 91 3f 4c
        E 32 b1 0b 3b
        E 32 b1 0b 33
        E 32 b1 0b 2a
        E 32 b1 0b 22
        E 16 b1 0b 4c
        E 0 81 3f 00
        E 0 91 3c 4c
        E 32 b1 0b 3b
        E 32 b1 0b 33
        E 32 b1 0b 2a
        E 32 b1 0b 22
        E 16 b1 0b 4c
        E 0 81 3c 00
        E 0 91 38 4c
        E 32 b1 0b 3b
        E 32 b1 0b 33
        E 32 b1 0b 2a
        E 32 b1 0b 22
        E 16 b1 0b 4c
        E 0 81 38 00
        E 0 91 37 4c
        E 32 b1 0b 3b
        E 32 b1 0b 33
        E 32 b1 0b 2a
        E 32 b1 0b 22
        E 16 b1 0b 4c
        E 0 81 37 00
        E 0 91 33 4c
        E 32 b1 0b 3b
        E 32 b1 0b 33
        E 32 b1 0b 2a
        E 32 b1 0b 22
        E 16 b1 0b 4c
        E 0 81 33 00
        E 0 91 30 4c
        E 32 b1 0b 3b
        E 32 b1 0b 33
        E 32 b1 0b 2a
        E 32 b1 0b 22
        E 16 b1 0b 4c
        E 0 81 30 00
        E 0 91 2c 4c
        E 32 b1 0b 3b
        E 32 b1 0b 33
        E 32 b1 0b 2a
        E 32 b1 0b 22
        E 16 b1 0b 4c
        E 0 81 2c 00
        E 0 91 2b 4c
        E 32 b1 0b 3b
        E 32 b1 0b 33
        E 32 b1 0b 2a
        E 32 b1 0b 22
        E 16 b1 0b 4c
        E 0 81 2b 00
        E 0 91 27 4c
        E 32 b1 0b 3b
        E 32 b1 0b 33
        E 32 b1 0b 2a
        E 32 b1 0b 22
        E 16 b1 0b 4c
        E 0 81 27 00
        E 0 91 24 4c
        E 32 b1 0b 3b
        E 32 b1 0b 33
        E 32 b1 0b 2a
        E 32 b1 0b 22
        E 16 b1 0b 4c
        E 0 81 24 00
        E 0 91 22 4c
        E 32 b1 0b 3b
        E 32 b1 0b 33
        E 32 b1 0b 2a
        E 32 b1 0b 22
        E 16 b1 0b 4c
        E 0 81 22 00
        E 0 91 26 4c
        E 32 b1 0b 3b
        E 32 b1 0b 33
        E 32 b1 0b 2a
        E 32 b1 0b 22
        E 16 b1 0b 4c
        E 0 81 26 00
        E 0 91 29 4c
        E 32 b1 0b 3b
        E 32 b1 0b 33
        E 32 b1 0b 2a
        E 32 b1 0b 22
        E 16 b1 0b 4c
        E 0 81 29 00
        E 0 91 2d 4c
        E 32 b1 0b 3b
        E 32 b1 0b 33
        E 32 b1 0b 2a
        E 32 b1 0b 22
        E 16 b1 0b 4c
        E 0 81 2d 00
        E 0 91 2e 4c
        E 32 b1 0b 3b
        E 32 b1 0b 33
        E 32 b1 0b 2a
        E 32 b1 0b 22
        E 16 b1 0b 4c
        E 0 81 2e 00
        E 0 91 32 4c
        E 32 b1 0b 3b
        E 32 b1 0b 33
        E 32 b1 0b 2a
        E 32 b1 0b 22
        E 16 b1 0b 4c
        E 0 81 32 00
        E 0 91 35 4c
        E 32 b1 0b 3b
        E 32 b1 0b 33
        E 32 b1 0b 2a
        E 32 b1 0b 22
        E 16 b1 0b 4c
        E 0 81 35 00
        E 0 91 39 4c
        E 32 b1 0b 3b
        E 32 b1 0b 33
        E 32 b1 0b 2a
        E 32 b1 0b 22
        E 16 b1 0b 4c
        E 0 81 39 00
        E 0 91 3a 4c
        E 32 b1 0b 3b
        E 32 b1 0b 33
        E 32 b1 0b 2a
        E 32 b1 0b 22
        E 16 b1 0b 4c
        E 0 81 3a 00
        E 0 91 3e 4c
        E 32 b1 0b 3b
        E 32 b1 0b 33
        E 32 b1 0b 2a
        E 32 b1 0b 22
        E 16 b1 0b 4c
        E 0 81 3e 00
        E 0 91 41 4c
        E 32 b1 0b 3b
        E 32 b1 0b 33
        E 32 b1 0b 2a
        E 32 b1 0b 22
        E 16 b1 0b 4c
        E 0 81 41 00
        E 0 91 45 4c
        E 32 b1 0b 3b
        E 32 b1 0b 33
        E 32 b1 0b 2a
        E 32 b1 0b 22
        E 16 b1 0b 4c
        E 0 81 45 00
        E 0 91 46 4c
        E 32 b1 0b 3b
        E 32 b1 0b 33
        E 32 b1 0b 2a
        E 32 b1 0b 22
        E 16 b1 0b 4c
        E 0 81 46 00
        E 0 91 4a 4c
        E 32 b1 0b 3b
        E 32 b1 0b 33
        E 32 b1 0b 2a
        E 32 b1 0b 22
        E 16 b1 0b 4c
        E 0 81 4a 00
        E 0 91 4d 4c
        E 32 b1 0b 3b
        E 32 b1 0b 33
        E 32 b1 0b 2a
        E 32 b1 0b 22
        E 16 b1 0b 4c
        E 0 81 4d 00
        E 0 91 51 4c
        E 32 b1 0b 3b
        E 32 b1 0b 33
        E 32 b1 0b 2a
        E 32 b1 0b 22
        E 16 b1 0b 4c
        E 0 81 51 00
        E 0 91 52 4c
        E 32 b1 0b 3b
        E 32 b1 0b 33
        E 32 b1 0b 2a
        E 32 b1 0b 22
        E 16 b1 0b 4c
        E 0 81 52 00
        E 0 91 51 4c
        E 32 b1 0b 3b
        E 32 b1 0b 33
        E 32 b1 0b 2a
        E 32 b1 0b 22
        E 16 b1 0b 4c
        E 0 81 51 00
        E 0 91 4d 4c
        E 32 b1 0b 3b
        E 32 b1 0b 33
        E 32 b1 0b 2a
        E 32 b1 0b 22
        E 16 b1 0b 4c
        E 0 81 4d 00
        E 0 91 4a 4c
        E 32 b1 0b 3b
        E 32 b1 0b 33
        E 32 b1 0b 2a
        E 32 b1 0b 22
        E 16 b1 0b 4c
        E 0 81 4a 00
        E 0 91 46 4c
        E 32 b1 0b 3b
        E 32 b1 0b 33
        E 32 b1 0b 2a
        E 32 b1 0b 22
        E 16 b1 0b 4c
        E 0 81 46 00
        E 0 91 45 4c
        E 32 b1 0b 3b
        E 32 b1 0b 33
        E 32 b1 0b 2a
        E 32 b1 0b 22
        E 16 b1 0b 4c
        E 0 81 45 00
        E 0 91 41 4c
        E 32 b1 0b 3b
        E 32 b1 0b 33
        E 32 b1 0b 2a
        E 32 b1 0b 22
        E 16 b1 0b 4c
        E 0 81 41 00
        E 0 91 3e 4c
        E 32 b1 0b 3b
        E 32 b1 0b 33
        E 32 b1 0b 2a
        E 32 b1 0b 22
        E 16 b1 0b 4c
        E 0 81 3e 00
        E 0 91 3a 4c
        E 32 b1 0b 3b
        E 32 b1 0b 33
        E 32 b1 0b 2a
        E 32 b1 0b 22
        E 16 b1 0b 4c
        E 0 81 3a 00
        E 0 91 39 4c
        E 32 b1 0b 3b
        E 32 b1 0b 33
        E 32 b1 0b 2a
        E 32 b1 0b 22
        E 16 b1 0b 4c
        E 0 81 39 00
        E 0 91 35 4c
        E 32 b1 0b 3b
        E 32 b1 0b 33
        E 32 b1 0b 2a
        E 32 b1 0b 22
        E 16 b1 0b 4c
        E 0 81 35 00
        E 0 91 32 4c
        E 32 b1 0b 3b
        E 32 b1 0b 33
        E 32 b1 0b 2a
        E 32 b1 0b 22
        E 16 b1 0b 4c
        E 0 81 32 00
        E 0 91 2e 4c
        E 32 b1 0b 3b
        E 32 b1 0b 33
        E 32 b1 0b 2a
        E 32 b1 0b 22
        E 16 b1 0b 4c
        E 0 81 2e 00
        E 0 91 2d 4c
        E 32 b1 0b 3b
        E 32 b1 0b 33
        E 32 b1 0b 2a
        E 32 b1 0b 22
        E 16 b1 0b 4c
        E 0 81 2d 00
        E 0 91 29 4c
        E 32 b1 0b 3b
        E 32 b1 0b 33
        E 32 b1 0b 2a
        E 32 b1 0b 22
        E 16 b1 0b 4c
        E 0 81 29 00
        E 0 91 26 4c
        E 32 b1 0b 3b
        E 32 b1 0b 33
        E 32 b1 0b 2a
        E 32 b1 0b 22
        E 16 b1 0b 4c
        E 0 81 26 00
        E 0 91 24 4c
        E 32 b1 0b 3b
        E 32 b1 0b 33
        E 32 b1 0b 2a
        E 32 b1 0b 22
        E 16 b1 0b 4c
        E 0 81 24 00
        E 0 91 26 4c
        E 32 b1 0b 3b
        E 32 b1 0b 33
        E 32 b1 0b 2a
        E 32 b1 0b 22
        E 16 b1 0b 4c
        E 0 81 26 00
        E 0 91 28 4c
        E 32 b1 0b 3b
        E 32 b1 0b 33
        E 32 b1 0b 2a
        E 32 b1 0b 22
        E 16 b1 0b 4c
        E 0 81 28 00
        E 0 91 2b 4c
        E 32 b1 0b 3b
        E 32 b1 0b 33
        E 32 b1 0b 2a
        E 32 b1 0b 22
        E 16 b1 0b 4c
        E 0 81 2b 00
        E 0 91 30 4c
        E 32 b1 0b 3b
        E 32 b1 0b 33
        E 32 b1 0b 2a
        E 32 b1 0b 22
        E 16 b1 0b 4c
        E 0 81 30 00
        E 0 91 32 4c
        E 32 b1 0b 3b
        E 32 b1 0b 33
        E 32 b1 0b 2a
        E 32 b1 0b 22
        E 16 b1 0b 4c
        E 0 81 32 00
        E 0 91 34 4c
        E 32 b1 0b 3b
        E 32 b1 0b 33
        E 32 b1 0b 2a
        E 32 b1 0b 22
        E 16 b1 0b 4c
        E 0 81 34 00
        E 0 91 37 4c
        E 32 b1 0b 3b
        E 32 b1 0b 33
        E 32 b1 0b 2a
        E 32 b1 0b 22
        E 16 b1 0b 4c
        E 0 81 37 00
        E 0 91 3c 4c
        E 32 b1 0b 3b
        E 32 b1 0b 33
        E 32 b1 0b 2a
        E 32 b1 0b 22
        E 16 b1 0b 4c
        E 0 81 3c 00
        E 0 91 3e 4c
        E 32 b1 0b 3b
        E 32 b1 0b 33
        E 32 b1 0b 2a
        E 32 b1 0b 22
        E 16 b1 0b 4c
        E 0 81 3e 00
        E 0 91 40 4c
        E 32 b1 0b 3b
        E 32 b1 0b 33
        E 32 b1 0b 2a
        E 32 b1 0b 22
        E 16 b1 0b 4c
        E 0 81 40 00
        E 0 91 43 4c
        E 32 b1 0b 3b
        E 32 b1 0b 33
        E 32 b1 0b 2a
        E 32 b1 0b 22
        E 16 b1 0b 4c
        E 0 81 43 00
        E 0 91 48 4c
        E 32 b1 0b 3b
        E 32 b1 0b 33
        E 32 b1 0b 2a
        E 32 b1 0b 22
        E 16 b1 0b 4c
        E 0 81 48 00
        E 0 91 4a 4c
        E 32 b1 0b 3b
        E 32 b1 0b 33
        E 32 b1 0b 2a
        E 32 b1 0b 22
        E 16 b1 0b 4c
        E 0 81 4a 00
        E 0 91 4c 4c
        E 32 b1 0b 3b
        E 32 b1 0b 33
        E 32 b1 0b 2a
        E 32 b1 0b 22
        E 16 b1 0b 4c
        E 0 81 4c 00
        E 0 91 4f 4c
        E 32 b1 0b 3b
        E 32 b1 0b 33
        E 32 b1 0b 2a
        E 32 b1 0b 22
        E 16 b1 0b 4c
        E 0 81 4f 00
        E 0 91 54 4c
        E 32 b1 0b 3b
        E 32 b1 0b 33
        E 32 b1 0b 2a
        E 32 b1 0b 22
        E 16 b1 0b 4c
        E 0 81 54 00
        E 0 91 4f 4c
        E 32 b1 0b 3b
        E 32 b1 0b 33
        E 32 b1 0b 2a
        E 32 b1 0b 22
        E 16 b1 0b 4c
        E 0 81 4f 00
        E 0 91 4c 4c
        E 32 b1 0b 3b
        E 32 b1 0b 33
        E 32 b1 0b 2a
        E 32 b1 0b 22
        E 16 b1 0b 4c
        E 0 81 4c 00
        E 0 91 4a 4c
        E 32 b1 0b 3b
        E 32 b1 0b 33
        E 32 b1 0b 2a
        E 32 b1 0b 22
        E 16 b1 0b 4c
        E 0 81 4a 00
        E 0 91 48 4c
        E 32 b1 0b 3b
        E 32 b1 0b 33
        E 32 b1 0b 2a
        E 32 b1 0b 22
        E 16 b1 0b 4c
        E 0 81 48 00
        E 0 91 43 4c
        E 32 b1 0b 3b
        E 32 b1 0b 33
        E 32 b1 0b 2a
        E 32 b1 0b 22
        E 16 b1 0b 4c
        E 0 81 43 00
        E 0 91 40 4c
        E 32 b1 0b 3b
        E 32 b1 0b 33
        E 32 b1 0b 2a
        E 32 b1 0b 22
        E 16 b1 0b 4c
        E 0 81 40 00
        E 0 91 3e 4c
        E 32 b1 0b 3b
        E 32 b1 0b 33
        E 32 b1 0b 2a
        E 32 b1 0b 22
        E 16 b1 0b 4c
        E 0 81 3e 00
        E 0 91 3c 4c
        E 32 b1 0b 3b
        E 32 b1 0b 33
        E 32 b1 0b 2a
        E 32 b1 0b 22
        E 16 b1 0b 4c
        E 0 81 3c 00
        E 0 91 37 4c
        E 32 b1 0b 3b
        E 32 b1 0b 33
        E 32 b1 0b 2a
        E 32 b1 0b 22
        E 16 b1 0b 4c
        E 0 81 37 00
        E 0 91 34 4c
        E 32 b1 0b 3b
        E 32 b1 0b 33
        E 32 b1 0b 2a
        E 32 b1 0b 22
        E 16 b1 0b 4c
        E 0 81 34 00
        E 0 91 32 4c
        E 32 b1 0b 3b
        E 32 b1 0b 33
        E 32 b1 0b 2a
        E 32 b1 0b 22
        E 16 b1 0b 4c
        E 0 81 32 00
        E 0 91 30 4c
        E 32 b1 0b 3b
        E 32 b1 0b 33
        E 32 b1 0b 2a
        E 32 b1 0b 22
        E 16 b1 0b 4c
        E 0 81 30 00
        E 0 91 2b 4c
        E 32 b1 0b 3b
        E 32 b1 0b 33
        E 32 b1 0b 2a
        E 32 b1 0b 22
        E 16 b1 0b 4c
        E 0 81 2b 00
        E 0 91 28 4c
        E 32 b1 0b 3b
        E 32 b1 0b 33
        E 32 b1 0b 2a
        E 32 b1 0b 22
        E 16 b1 0b 4c
        E 0 81 28 00
        E 0 91 26 4c
        E 32 b1 0b 3b
        E 32 b1 0b 33
        E 32 b1 0b 2a
        E 32 b1 0b 22
        E 16 b1 0b 4c
        E 0 81 26 00
        E 0 91 21 4c
        E 32 b1 0b 3b
        E 32 b1 0b 33
        E 32 b1 0b 2a
        E 32 b1 0b 22
        E 16 b1 0b 4c
        E 0 81 21 00
        E 0 91 23 4c
        E 32 b1 0b 3b
        E 32 b1 0b 33
        E 32 b1 0b 2a
        E 32 b1 0b 22
        E 16 b1 0b 4c
        E 0 81 23 00
        E 0 91 24 4c
        E 32 b1 0b 3b
        E 32 b1 0b 33
        E 32 b1 0b 2a
        E 32 b1 0b 22
        E 16 b1 0b 4c
        E 0 81 24 00
        E 0 91 28 4c
        E 32 b1 0b 3b
        E 32 b1 0b 33
        E 32 b1 0b 2a
        E 32 b1 0b 22
        E 16 b1 0b 4c
        E 0 81 28 00
        E 0 91 2d 4c
        E 32 b1 0b 3b
        E 32 b1 0b 33
        E 32 b1 0b 2a
        E 32 b1 0b 22
        E 16 b1 0b 4c
        E 0 81 2d 00
        E 0 91 2f 4c
        E 32 b1 0b 3b
        E 32 b1 0b 33
        E 32 b1 0b 2a
        E 32 b1 0b 22
        E 16 b1 0b 4c
        E 0 81 2f 00
        E 0 91 30 4c
        E 32 b1 0b 3b
        E 32 b1 0b 33
        E 32 b1 0b 2a
        E 32 b1 0b 22
        E 16 b1 0b 4c
        E 0 81 30 00
        E 0 91 34 4c
        E 32 b1 0b 3b
        E 32 b1 0b 33
        E 32 b1 0b 2a
        E 32 b1 0b 22
        E 16 b1 0b 4c
        E 0 81 34 00
        E 0 91 39 4c
        E 32 b1 0b 3b
        E 32 b1 0b 33
        E 32 b1 0b 2a
        E 32 b1 0b 22
        E 16 b1 0b 4c
        E 0 81 39 00
        E 0 91 3b 4c
        E 32 b1 0b 3b
        E 32 b1 0b 33
        E 32 b1 0b 2a
        E 32 b1 0b 22
        E 16 b1 0b 4c
        E 0 81 3b 00
        E 0 91 3c 4c
        E 32 b1 0b 3b
        E 32 b1 0b 33
        E 32 b1 0b 2a
        E 32 b1 0b 22
        E 16 b1 0b 4c
        E 0 81 3c 00
        E 0 91 40 4c
        E 32 b1 0b 3b
        E 32 b1 0b 33
        E 32 b1 0b 2a
        E 32 b1 0b 22
        E 16 b1 0b 4c
        E 0 81 40 00
        E 0 91 45 4c
        E 32 b1 0b 3b
        E 32 b1 0b 33
        E 32 b1 0b 2a
        E 32 b1 0b 22
        E 16 b1 0b 4c
        E 0 81 45 00
        E 0 91 47 4c
        E 32 b1 0b 3b
        E 32 b1 0b 33
        E 32 b1 0b 2a
        E 32 b1 0b 22
        E 16 b1 0b 4c
        E 0 81 47 00
        E 0 91 48 4c
        E 32 b1 0b 3b
        E 32 b1 0b 33
        E 32 b1 0b 2a
        E 32 b1 0b 22
        E 16 b1 0b 4c
        E 0 81 48 00
        E 0 91 4c 4c
        E 32 b1 0b 3b
        E 32 b1 0b 33
        E 32 b1 0b 2a
        E 32 b1 0b 22
        E 16 b1 0b 4c
        E 0 81 4c 00
        E 0 91 51 4c
        E 32 b1 0b 3b
        E 32 b1 0b 33
        E 32 b1 0b 2a
        E 32 b1 0b 22
        E 16 b1 0b 4c
        E 0 81 51 00
        E 0 91 4c 4c
        E 32 b1 0b 3b
        E 32 b1 0b 33
        E 32 b1 0b 2a
        E 32 b1 0b 22
        E 16 b1 0b 4c
        E 0 81 4c 00
        E 0 91 48 4c
        E 32 b1 0b 3b
        E 32 b1 0b 33
        E 32 b1 0b 2a
        E 32 b1 0b 22
        E 16 b1 0b 4c
        E 0 81 48 00
        E 0 91 47 4c
        E 32 b1 0b 3b
        E 32 b1 0b 33
        E 32 b1 0b 2a
        E 32 b1 0b 22
        E 16 b1 0b 4c
        E 0 81 47 00
        E 0 91 45 4c
        E 32 b1 0b 3b
        E 32 b1 0b 33
        E 32 b1 0b 2a
        E 32 b1 0b 22
        E 16 b1 0b 4c
        E 0 81 45 00
        E 0 91 40 4c
        E 32 b1 0b 3b
        E 32 b1 0b 33
        E 32 b1 0b 2a
        E 32 b1 0b 22
        E 16 b1 0b 4c
        E 0 81 40 00
        E 0 91 3c 4c
        E 32 b1 0b 3b
        E 32 b1 0b 33
        E 32 b1 0b 2a
        E 32 b1 0b 22
        E 16 b1 0b 4c
        E 0 81 3c 00
        E 0 91 3b 4c
        E 32 b1 0b 3b
        E 32 b1 0b 33
        E 32 b1 0b 2a
        E 32 b1 0b 22
        E 16 b1 0b 4c
        E 0 81 3b 00
        E 0 91 39 4c
        E 32 b1 0b 3b
        E 32 b1 0b 33
        E 32 b1 0b 2a
        E 32 b1 0b 22
        E 16 b1 0b 4c
        E 0 81 39 00
        E 0 91 34 4c
        E 32 b1 0b 3b
        E 32 b1 0b 33
        E 32 b1 0b 2a
        E 32 b1 0b 22
        E 16 b1 0b 4c
        E 0 81 34 00
        E 0 91 30 4c
        E 32 b1 0b 3b
        E 32 b1 0b 33
        E 32 b1 0b 2a
        E 32 b1 0b 22
        E 16 b1 0b 4c
        E 0 81 30 00
        E 0 91 2f 4c
        E 32 b1 0b 3b
        E 32 b1 0b 33
        E 32 b1 0b 2a
        E 32 b1 0b 22
        E 16 b1 0b 4c
        E 0 81 2f 00
        E 0 91 2d 4c
        E 32 b1 0b 3b
        E 32 b1 0b 33
        E 32 b1 0b 2a
        E 32 b1 0b 22
        E 16 b1 0b 4c
        E 0 81 2d 00
        E 0 91 28 4c
        E 32 b1 0b 3b
        E 32 b1 0b 33
        E 32 b1 0b 2a
        E 32 b1 0b 22
        E 16 b1 0b 4c
        E 0 81 28 00
        E 0 91 24 4c
        E 32 b1 0b 3b
        E 32 b1 0b 33
        E 32 b1 0b 2a
        E 32 b1 0b 22
        E 16 b1 0b 4c
        E 0 81 24 00
        E 0 91 23 4c
        E 32 b1 0b 3b
        E 32 b1 0b 33
        E 32 b1 0b 2a
        E 32 b1 0b 22
        E 16 b1 0b 4c
        E 0 81 23 00
        E 0 91 24 4c
        E 32 b1 0b 3b
        E 32 b1 0b 33
        E 32 b1 0b 2a
        E 32 b1 0b 22
        E 16 b1 0b 4c
        E 0 81 24 00
        E 0 91 26 4c
        E 32 b1 0b 3b
        E 32 b1 0b 33
        E 32 b1 0b 2a
        E 32 b1 0b 22
        E 16 b1 0b 4c
        E 0 81 26 00
        E 0 91 28 4c
        E 32 b1 0b 3b
        E 32 b1 0b 33
        E 32 b1 0b 2a
        E 32 b1 0b 22
        E 16 b1 0b 4c
        E 0 81 28 00
        E 0 91 2b 4c
        E 32 b1 0b 3b
        E 32 b1 0b 33
        E 32 b1 0b 2a
        E 32 b1 0b 22
        E 16 b1 0b 4c
        E 0 81 2b 00
        E 0 91 30 4c
        E 32 b1 0b 3b
        E 32 b1 0b 33
        E 32 b1 0b 2a
        E 32 b1 0b 22
        E 16 b1 0b 4c
        E 0 81 30 00
        E 0 91 32 4c
        E 32 b1 0b 3b
        E 32 b1 0b 33
        E 32 b1 0b 2a
        E 32 b1 0b 22
        E 16 b1 0b 4c
        E 0 81 32 00
        E 0 91 34 4c
        E 32 b1 0b 3b
        E 32 b1 0b 33
        E 32 b1 0b 2a
        E 32 b1 0b 22
        E 16 b1 0b 4c
        E 0 81 34 00
        E 0 91 37 4c
        E 32 b1 0b 3b
        E 32 b1 0b 33
        E 32 b1 0b 2a
        E 32 b1 0b 22
        E 16 b1 0b 4c
        E 0 81 37 00
        E 0 91 3c 4c
        E 32 b1 0b 3b
        E 32 b1 0b 33
        E 32 b1 0b 2a
        E 32 b1 0b 22
        E 16 b1 0b 4c
        E 0 81 3c 00
        E 0 91 3e 4c
        E 32 b1 0b 3b
        E 32 b1 0b 33
        E 32 b1 0b 2a
        E 32 b1 0b 22
        E 16 b1 0b 4c
        E 0 81 3e 00
        E 0 91 40 4c
        E 32 b1 0b 3b
        E 32 b1 0b 33
        E 32 b1 0b 2a
        E 32 b1 0b 22
        E 16 b1 0b 4c
        E 0 81 40 00
        E 0 91 43 4c
        E 32 b1 0b 3b
        E 32 b1 0b 33
        E 32 b1 0b 2a
        E 32 b1 0b 22
        E 16 b1 0b 4c
        E 0 81 43 00
        E 0 91 48 4c
        E 32 b1 0b 3b
        E 32 b1 0b 33
        E 32 b1 0b 2a
        E 32 b1 0b 22
        E 16 b1 0b 4c
        E 0 81 48 00
        E 0 91 4a 4c
        E 32 b1 0b 3b
        E 32 b1 0b 33
        E 32 b1 0b 2a
        E 32 b1 0b 22
        E 16 b1 0b 4c
        E 0 81 4a 00
        E 0 91 4c 4c
        E 32 b1 0b 3b
        E 32 b1 0b 33
        E 32 b1 0b 2a
        E 32 b1 0b 22
        E 16 b1 0b 4c
        E 0 81 4c 00
        E 0 91 4f 4c
        E 32 b1 0b 3b
        E 32 b1 0b 33
        E 32 b1 0b 2a
        E 32 b1 0b 22
        E 16 b1 0b 4c
        E 0 81 4f 00
        E 0 91 54 4c
        E 32 b1 0b 3b
        E 32 b1 0b 33
        E 32 b1 0b 2a
        E 32 b1 0b 22
        E 16 b1 0b 4c
        E 0 81 54 00
        E 0 91 4f 4c
        E 32 b1 0b 3b
        E 32 b1 0b 33
        E 32 b1 0b 2a
        E 32 b1 0b 22
        E 16 b1 0b 4c
        E 0 81 4f 00
        E 0 91 4c 4c
        E 32 b1 0b 3b
        E 32 b1 0b 33
        E 32 b1 0b 2a
        E 32 b1 0b 22
        E 16 b1 0b 4c
        E 0 81 4c 00
        E 0 91 4a 4c
        E 32 b1 0b 3b
        E 32 b1 0b 33
        E 32 b1 0b 2a
        E 32 b1 0b 22
        E 16 b1 0b 4c
        E 0 81 4a 00
        E 0 91 48 4c
        E 32 b1 0b 3b
        E 32 b1 0b 33
        E 32 b1 0b 2a
        E 32 b1 0b 22
        E 16 b1 0b 4c
        E 0 81 48 00
        E 0 91 43 4c
        E 32 b1 0b 3b
        E 32 b1 0b 33
        E 32 b1 0b 2a
        E 32 b1 0b 22
        E 16 b1 0b 4c
        E 0 81 43 00
        E 0 91 40 4c
        E 32 b1 0b 3b
        E 32 b1 0b 33
        E 32 b1 0b 2a
        E 32 b1 0b 22
        E 16 b1 0b 4c
        E 0 81 40 00
        E 0 91 3e 4c
        E 32 b1 0b 3b
        E 32 b1 0b 33
        E 32 b1 0b 2a
        E 32 b1 0b 22
        E 16 b1 0b 4c
        E 0 81 3e 00
        E 0 91 3c 4c
        E 32 b1 0b 3b
        E 32 b1 0b 33
        E 32 b1 0b 2a
        E 32 b1 0b 22
        E 16 b1 0b 4c
        E 0 81 3c 00
        E 0 91 37 4c
        E 32 b1 0b 3b
        E 32 b1 0b 33
        E 32 b1 0b 2a
        E 32 b1 0b 22
        E 16 b1 0b 4c
        E 0 81 37 00
        E 0 91 34 4c
        E 32 b1 0b 3b
        E 32 b1 0b 33
        E 32 b1 0b 2a
        E 32 b1 0b 22
        E 16 b1 0b 4c
        E 0 81 34 00
        E 0 91 32 4c
        E 32 b1 0b 3b
        E 32 b1 0b 33
        E 32 b1 0b 2a
        E 32 b1 0b 22
        E 16 b1 0b 4c
        E 0 81 32 00
        E 0 91 30 4c
        E 32 b1 0b 3b
        E 32 b1 0b 33
        E 32 b1 0b 2a
        E 32 b1 0b 22
        E 16 b1 0b 4c
        E 0 81 30 00
        E 0 91 2b 4c
        E 32 b1 0b 3b
        E 32 b1 0b 33
        E 32 b1 0b 2a
        E 32 b1 0b 22
        E 16 b1 0b 4c
        E 0 81 2b 00
        E 0 91 28 4c
        E 32 b1 0b 3b
        E 32 b1 0b 33
        E 32 b1 0b 2a
        E 32 b1 0b 22
        E 16 b1 0b 4c
        E 0 81 28 00
        E 0 91 26 4c
        E 32 b1 0b 3b
        E 32 b1 0b 33
        E 32 b1 0b 2a
        E 32 b1 0b 22
        E 16 b1 0b 4c
        E 0 81 26 00
        E 0 91 21 4c
        E 32 b1 0b 3b
        E 32 b1 0b 33
        E 32 b1 0b 2a
        E 32 b1 0b 22
        E 16 b1 0b 4c
        E 0 81 21 00
        E 0 91 23 4c
        E 32 b1 0b 3b
        E 32 b1 0b 33
        E 32 b1 0b 2a
        E 32 b1 0b 22
        E 16 b1 0b 4c
        E 0 81 23 00
        E 0 91 24 4c
        E 32 b1 0b 3b
        E 32 b1 0b 33
        E 32 b1 0b 2a
        E 32 b1 0b 22
        E 16 b1 0b 4c
        E 0 81 24 00
        E 0 91 28 4c
        E 32 b1 0b 3b
        E 32 b1 0b 33
        E 32 b1 0b 2a
        E 32 b1 0b 22
        E 16 b1 0b 4c
        E 0 81 28 00
        E 0 91 2d 4c
        E 32 b1 0b 3b
        E 32 b1 0b 33
        E 32 b1 0b 2a
        E 32 b1 0b 22
        E 16 b1 0b 4c
        E 0 81 2d 00
        E 0 91 2f 4c
        E 32 b1 0b 3b
        E 32 b1 0b 33
        E 32 b1 0b 2a
        E 32 b1 0b 22
        E 16 b1 0b 4c
        E 0 81 2f 00
        E 0 91 30 4c
        E 32 b1 0b 3b
        E 32 b1 0b 33
        E 32 b1 0b 2a
        E 32 b1 0b 22
        E 16 b1 0b 4c
        E 0 81 30 00
        E 0 91 34 4c
        E 32 b1 0b 3b
        E 32 b1 0b 33
        E 16 81 34 00
        E 0 b1 7b 00
        E 0 ff 2f 00
      >
    >
  >
  <TRACK {AA723987-1A5C-470B-805A-92EECC3CD9F0}
    NAME "NES - Triangle"
    PEAKCOL 16744192
    BEAT -1
    AUTOMODE 0
    PANLAWFLAGS 3
    VOLPAN 1 0 -1 -1 1
    MUTESOLO 0 0 0
    IPHASE 0
    PLAYOFFS 0 1
    ISBUS 0 0
    BUSCOMP 0 0 0 0 0
    SHOWINMIX 1 0.6667 0.5 1 0.5 0 0 0
    FIXEDLANES 9 0 0 0 0
    SEL 0
    REC 0 5088 1 0 0 0 0 0
    VU 2
    TRACKHEIGHT 0 0 0 0 0 0 0
    INQ 0 0 0 0.5 100 0 0 100
    NCHAN 2
    FX 1
    TRACKID {AA723987-1A5C-470B-805A-92EECC3CD9F0}
    PERF 0
    MIDIOUT -1
    MAINSEND 1 0
    <FXCHAIN
      WNDRECT 24 52 700 560
      SHOW 0
      LASTSEL 0
      DOCKED 0
      BYPASS 0 0 0
      <JS "ReapNES Studio/ReapNES_Console.jsfx" ""
        2 15 1 10 80 10 100 2 1 15 1 5 60 10 80 1 1 0 50 0 0 15 1 0 100 0 0 0.500000 0.500000 0.400000 0.300000 0.800000 2 1 0 0 0 0 - - - - - - - - - - - - - - - - - - - - - - - - - -
      >
      FLOATPOS 0 0 0 0
      FXID {19AC92F2-9E1B-4BB0-8760-46DFD74763A6}
      WAK 0 0
    >
  >
  <TRACK {3DB39A54-83A8-48E6-BFA9-96050B6223B3}
    NAME "NES - Noise / Drums"
    PEAKCOL 11184810
    BEAT -1
    AUTOMODE 0
    PANLAWFLAGS 3
    VOLPAN 1 0 -1 -1 1
    MUTESOLO 0 0 0
    IPHASE 0
    PLAYOFFS 0 1
    ISBUS 0 0
    BUSCOMP 0 0 0 0 0
    SHOWINMIX 1 0.6667 0.5 1 0.5 0 0 0
    FIXEDLANES 9 0 0 0 0
    SEL 0
    REC 0 5088 1 0 0 0 0 0
    VU 2
    TRACKHEIGHT 0 0 0 0 0 0 0
    INQ 0 0 0 0.5 100 0 0 100
    NCHAN 2
    FX 1
    TRACKID {3DB39A54-83A8-48E6-BFA9-96050B6223B3}
    PERF 0
    MIDIOUT -1
    MAINSEND 1 0
    <FXCHAIN
      WNDRECT 24 52 700 560
      SHOW 0
      LASTSEL 0
      DOCKED 0
      BYPASS 0 0 0
      <JS "ReapNES Studio/ReapNES_Console.jsfx" ""
        2 15 1 10 80 10 100 2 1 15 1 5 60 10 80 1 1 0 50 0 0 15 1 0 100 0 0 0.500000 0.500000 0.400000 0.300000 0.800000 3 1 0 0 0 0 - - - - - - - - - - - - - - - - - - - - - - - - - -
      >
      FLOATPOS 0 0 0 0
      FXID {15153CE7-574F-4E93-AA3F-D73A7A56FCE9}
      WAK 0 0
    >
  >
>