<REAPER_PROJECT 0.1 "7.27/win64" 1707000000
  <NOTES 0 2
    |ReapNES Studio Project
    |MIDI Import - Gargoyles_Quest_II_title_rom_v1
  >
  RIPPLE 0
  GROUPOVERRIDE 0 0 0
  AUTOXFADE 129
  ENVATTACH 3
  POOLEDENVATTACH 0
  MIXERUIFLAGS 11 48
  ENVFADESZ10 40
  PEAKGAIN 1
  FEEDBACK 0
  PANLAW 1
  PROJOFFS 0 0 0
  MAXPROJLEN 0 0
  GRID 3199 8 1 8 1 0 0 0
  TIMEMODE 1 5 -1 30 0 0 -1
  VIDEO_CONFIG 0 0 65792
  PANMODE 3
  PANLAWFLAGS 3
  CURSOR 0
  ZOOM 100 0 0
  VZOOMEX 6 0
  USE_REC_CFG 0
  RECMODE 1
  SMPTESYNC 0 30 100 40 1000 300 0 0 1 0 0
  LOOP 0
  LOOPGRAN 0 4
  RECORD_PATH "Media" ""
  <RECORD_CFG
    ZXZhdxgAAQ==
  >
  <APPLYFX_CFG
  >
  RENDER_FILE ""
  RENDER_PATTERN ""
  RENDER_FMT 0 2 0
  RENDER_1X 0
  RENDER_RANGE 1 0 0 18 1000
  RENDER_RESAMPLE 3 0 1
  RENDER_ADDTOPROJ 0
  RENDER_STEMS 0
  RENDER_DITHER 0
  TIMELOCKMODE 1
  TEMPOENVLOCKMODE 1
  ITEMMIX 1
  DEFPITCHMODE 589824 0
  TAKELANE 1
  SAMPLERATE 44100 0 0
  <RENDER_CFG
    ZXZhdxgAAQ==
  >
  LOCK 1
  <METRONOME 6 2
    VOL 0.25 0.125
    BEATLEN 4
    FREQ 1760 880 1
    SAMPLES "" ""
    SPLIGNORE 0 0
    SPLDEF 2 660 "" 0
    SPLDEF 3 440 "" 0
    PATTERN 0 169
    PATTERNSTR ABBB
    MULT 1
  >
  GLOBAL_AUTO -1
  TEMPO 128.59999614200012 4 4
  PLAYRATE 1 0 0.25 4
  SELECTION 0 0
  SELECTION2 0 0
  MASTERAUTOMODE 0
  MASTERTRACKHEIGHT 0 0
  MASTERPEAKCOL 16576
  MASTERMUTESOLO 0
  MASTERTRACKVIEW 0 0.6667 0.5 0.5 0 0 0 0 0 0 0 0 0 0
  MASTERHWOUT 0 0 1 0 0 0 0 -1
  MASTER_NCH 2 2
  MASTER_VOLUME 1 0 -1 -1 1
  MASTER_PANMODE 3
  MASTER_PANLAWFLAGS 3
  MASTER_FX 1
  MASTER_SEL 0
  <MASTERPLAYSPEEDENV
    EGUID {18D51AF7-D9BE-4A5B-B32B-3A1D3B5BC3AF}
    ACT 0 -1
    VIS 0 1 1
    LANEHEIGHT 0 0
    ARM 0
    DEFSHAPE 0 -1 -1
  >
  <TEMPOENVEX
    EGUID {4DFB34CB-71D1-4415-B0E0-576B633264A5}
    ACT 1 -1
    VIS 1 0 1
    LANEHEIGHT 0 0
    ARM 0
    DEFSHAPE 1 -1 -1
  >
  <PROJBAY
  >
  <TRACK {A6F73066-B298-4A60-A23F-ABF45B24D236}
    NAME "NES - Pulse 1 [ch0]"
    PEAKCOL 16576606
    BEAT -1
    AUTOMODE 0
    PANLAWFLAGS 3
    VOLPAN 1 0 -1 -1 1
    MUTESOLO 0 0 0
    IPHASE 0
    PLAYOFFS 0 1
    ISBUS 0 0
    BUSCOMP 0 0 0 0 0
    SHOWINMIX 1 0.6667 0.5 1 0.5 0 0 0
    FIXEDLANES 9 0 0 0 0
    SEL 1
    REC 1 5088 1 0 0 0 0 0
    VU 2
    TRACKHEIGHT 0 0 0 0 0 0 0
    INQ 0 0 0 0.5 100 0 0 100
    NCHAN 2
    FX 1
    TRACKID {A6F73066-B298-4A60-A23F-ABF45B24D236}
    PERF 0
    MIDIOUT -1
    MAINSEND 1 0
    <FXCHAIN
      WNDRECT 24 52 700 560
      SHOW 0
      LASTSEL 0
      DOCKED 0
      BYPASS 0 0 0
      <JS "ReapNES Studio/ReapNES_Console.jsfx" ""
        2 15 1 10 80 10 100 2 1 15 1 5 60 10 80 1 1 0 50 0 0 15 1 0 100 0 0 0.500000 0.500000 0.400000 0.300000 0.800000 0 1 0 0 0 0 - - - - - - - - - - - - - - - - - - - - - - - - - -
      >
      FLOATPOS 0 0 0 0
      FXID {BE86FBD0-4137-48BA-B9CF-1DB723053515}
      WAK 0 0
    >
    <ITEM
      POSITION 0
      LENGTH 70.3732525
      LOOP 0
      ALLTAKES 0
      FADEIN 0 0 0 0 0 0 0
      FADEOUT 0 0 0 0 0 0 0
      MUTE 0 0
      SEL 0
      IGUID {F644239D-7033-4CAB-8C0B-AFC168961872}
      <SOURCE MIDI
        HASDATA 1 480 QN
        CCINTERP 32
        E 0 c0 50
        E 0 b0 0c 10
        E 0 b0 0b 44
        E 0 90 36 44
        E 16 b0 0b 2a
        E 1104 b0 0b 19
        E 16 b0 0b 08
        E 16 80 36 00
        E 16 b0 0b 44
        E 0 90 35 44
        E 16 b0 0b 2a
        E 1088 b0 0b 19
        E 16 b0 0b 08
        E 16 80 35 00
        E 16 b0 0b 44
        E 0 90 38 44
        E 16 b0 0b 2a
        E 1088 b0 0b 19
        E 16 b0 0b 08
        E 16 80 38 00
        E 16 b0 0b 44
        E 0 90 3b 44
        E 16 b0 0b 2a
        E 1104 b0 0b 19
        E 16 b0 0b 08
        E 16 b0 0b 44
        E 0 80 3b 00
        E 0 90 3d 44
        E 16 b0 0b 2a
        E 224 b0 0b 19
        E 16 b0 0b 08
        E 16 80 3d 00
        E 16 b0 0b 44
        E 0 90 36 44
        E 16 b0 0b 2a
        E 224 b0 0b 19
        E 16 b0 0b 08
        E 16 80 36 00
        E 16 b0 0b 44
        E 0 90 3e 44
        E 16 b0 0b 2a
        E 224 b0 0b 19
        E 16 b0 0b 08
        E 16 80 3e 00
        E 16 b0 0b 44
        E 0 90 3d 44
        E 16 b0 0b 2a
        E 224 b0 0b 19
        E 16 b0 0b 08
        E 16 80 3d 00
        E 16 b0 0b 44
        E 0 90 3c 44
        E 16 b0 0b 2a
        E 960 b0 0b 19
        E 16 b0 0b 08
        E 16 80 3c 00
        E 144 b0 0b 44
        E 0 90 3b 44
        E 16 b0 0b 2a
        E 224 b0 0b 19
        E 16 b0 0b 08
        E 16 80 3b 00
        E 16 b0 0b 44
        E 0 90 31 44
        E 16 b0 0b 2a
        E 224 b0 0b 19
        E 16 b0 0b 08
        E 16 80 31 00
        E 16 b0 0b 44
        E 0 90 35 44
        E 16 b0 0b 2a
        E 224 b0 0b 19
        E 16 b0 0b 08
        E 16 80 35 00
        E 16 b0 0b 44
        E 0 90 3b 44
        E 16 b0 0b 2a
        E 224 b0 0b 19
        E 16 b0 0b 08
        E 16 80 3b 00
        E 16 b0 0b 44
        E 0 90 39 44
        E 16 b0 0b 2a
        E 976 b0 0b 19
        E 16 b0 0b 08
        E 16 80 39 00
        E 128 b0 0b 44
        E 0 90 36 44
        E 16 b0 0b 2a
        E 224 b0 0b 19
        E 16 b0 0b 08
        E 16 80 36 00
        E 16 b0 0b 44
        E 0 90 38 44
        E 16 b0 0b 2a
        E 224 b0 0b 19
        E 16 b0 0b 08
        E 16 80 38 00
        E 16 b0 0b 44
        E 0 90 39 44
        E 16 b0 0b 2a
        E 224 b0 0b 19
        E 16 b0 0b 08
        E 16 80 39 00
        E 16 b0 0b 44
        E 0 90 3d 44
        E 16 b0 0b 2a
        E 224 b0 0b 19
        E 16 b0 0b 08
        E 16 80 3d 00
        E 16 b0 0b 44
        E 0 90 3c 44
        E 16 b0 0b 2a
        E 976 b0 0b 19
        E 16 b0 0b 08
        E 16 80 3c 00
        E 128 b0 0b 44
        E 0 90 3b 44
        E 16 b0 0b 2a
        E 480 b0 0b 19
        E 16 b0 0b 08
        E 16 80 3b 00
        E 48 b0 0b 44
        E 0 90 39 44
        E 16 b0 0b 2a
        E 224 b0 0b 19
        E 16 b0 0b 08
        E 16 80 39 00
        E 16 b0 0b 44
        E 0 90 38 44
        E 16 b0 0b 2a
        E 224 b0 0b 19
        E 16 b0 0b 08
        E 16 80 38 00
        E 16 b0 0b 44
        E 0 90 39 44
        E 16 b0 0b 2a
        E 976 b0 0b 19
        E 16 b0 0b 08
        E 16 80 39 00
        E 128 b0 0c 40
        E 0 b0 0b 44
        E 0 90 4a 44
        E 16 b0 0b 2a
        E 16 b0 0b 19
        E 464 b0 0b 11
        E 80 b0 0b 44
        E 0 80 4a 00
        E 0 90 49 44
        E 16 b0 0b 2a
        E 16 b0 0b 19
        E 208 b0 0b 11
        E 48 b0 0b 44
        E 0 80 49 00
        E 0 90 47 44
        E 16 b0 0b 2a
        E 16 b0 0b 19
        E 208 b0 0b 11
        E 48 b0 0b 44
        E 0 80 47 00
        E 0 90 49 44
        E 16 b0 0b 2a
        E 16 b0 0b 19
        E 960 b0 0b 11
        E 160 b0 0b 44
        E 0 80 49 00
        E 0 90 48 44
        E 16 b0 0b 2a
        E 16 b0 0b 19
        E 464 b0 0b 11
        E 96 b0 0b 44
        E 0 80 48 00
        E 0 90 47 44
        E 16 b0 0b 2a
        E 16 b0 0b 19
        E 208 b0 0b 11
        E 48 b0 0b 44
        E 0 80 47 00
        E 0 90 45 44
        E 16 b0 0b 2a
        E 16 b0 0b 19
        E 208 b0 0b 11
        E 48 b0 0b 44
        E 0 80 45 00
        E 0 90 44 44
        E 16 b0 0b 2a
        E 16 b0 0b 19
        E 944 b0 0b 11
        E 176 b0 0b 44
        E 0 80 44 00
        E 0 90 43 44
        E 16 b0 0b 2a
        E 16 b0 0b 19
        E 448 b0 0b 11
        E 96 b0 0b 44
        E 0 80 43 00
        E 0 90 45 44
        E 16 b0 0b 2a
        E 16 b0 0b 19
        E 208 b0 0b 11
        E 48 b0 0b 44
        E 0 80 45 00
        E 0 90 46 44
        E 16 b0 0b 2a
        E 16 b0 0b 19
        E 208 b0 0b 11
        E 48 b0 0b 44
        E 0 80 46 00
        E 0 90 45 44
        E 16 b0 0b 2a
        E 16 b0 0b 19
        E 944 b0 0b 11
        E 176 b0 0b 44
        E 0 80 45 00
        E 0 90 47 44
        E 16 b0 0b 2a
        E 16 b0 0b 19
        E 944 b0 0b 11
        E 176 b0 0b 44
        E 0 80 47 00
        E 0 90 48 44
        E 16 b0 0b 2a
        E 16 b0 0b 19
        E 464 b0 0b 11
        E 80 b0 0b 44
        E 0 80 48 00
        E 0 90 46 44
        E 16 b0 0b 2a
        E 16 b0 0b 19
        E 464 b0 0b 11
        E 80 b0 0b 44
        E 0 80 46 00
        E 0 90 42 44
        E 240 b0 0b 33
        E 16 b0 0b 2a
        E 16 b0 0b 22
        E 16 b0 0b 44
        E 0 80 42 00
        E 0 90 39 44
        E 240 b0 0b 33
        E 16 b0 0b 2a
        E 16 b0 0b 22
        E 16 b0 0b 44
        E 0 80 39 00
        E 0 90 3b 44
        E 240 b0 0b 33
        E 16 b0 0b 2a
        E 16 b0 0b 22
        E 16 b0 0b 44
        E 0 80 3b 00
        E 0 90 3c 44
        E 240 b0 0b 33
        E 16 b0 0b 2a
        E 16 b0 0b 22
        E 16 b0 0b 44
        E 0 80 3c 00
        E 0 90 3b 44
        E 992 b0 0b 33
        E 16 b0 0b 2a
        E 16 b0 0b 22
        E 16 b0 0b 19
        E 16 b0 0b 08
        E 16 80 3b 00
        E 80 b0 0b 44
        E 0 90 47 44
        E 240 b0 0b 33
        E 16 b0 0b 2a
        E 16 b0 0b 22
        E 16 b0 0b 44
        E 0 80 47 00
        E 0 90 3d 44
        E 240 b0 0b 33
        E 16 b0 0b 2a
        E 16 b0 0b 22
        E 16 b0 0b 44
        E 0 80 3d 00
        E 0 90 44 44
        E 240 b0 0b 33
        E 16 b0 0b 2a
        E 16 b0 0b 22
        E 16 b0 0b 44
        E 0 80 44 00
        E 0 90 47 44
        E 240 b0 0b 33
        E 16 b0 0b 2a
        E 16 b0 0b 22
        E 16 b0 0b 44
        E 0 80 47 00
        E 0 90 45 44
        E 992 b0 0b 33
        E 16 b0 0b 2a
        E 16 b0 0b 22
        E 16 b0 0b 19
        E 16 b0 0b 08
        E 16 80 45 00
        E 80 b0 0c 10
        E 0 b0 0b 3b
        E 0 90 36 3b
        E 240 b0 0b 2a
        E 16 b0 0b 22
        E 16 b0 0b 19
        E 16 b0 0b 3b
        E 0 80 36 00
        E 0 90 35 3b
        E 240 b0 0b 2a
        E 16 b0 0b 22
        E 16 b0 0b 19
        E 16 b0 0b 3b
        E 0 80 35 00
        E 0 90 36 3b
        E 240 b0 0b 2a
        E 16 b0 0b 22
        E 16 b0 0b 19
        E 16 b0 0b 3b
        E 0 80 36 00
        E 0 90 38 3b
        E 240 b0 0b 2a
        E 16 b0 0b 22
        E 16 b0 0b 19
        E 16 b0 0b 3b
        E 0 80 38 00
        E 0 90 39 3b
        E 496 b0 0b 2a
        E 16 b0 0b 22
        E 16 b0 0b 19
        E 16 b0 0b 11
        E 16 80 39 00
        E 16 b0 0b 3b
        E 0 90 38 3b
        E 240 b0 0b 2a
        E 16 b0 0b 22
        E 16 b0 0b 19
        E 16 b0 0b 3b
        E 0 80 38 00
        E 0 90 36 3b
        E 240 b0 0b 2a
        E 16 b0 0b 22
        E 16 b0 0b 19
        E 16 b0 0b 3b
        E 0 80 36 00
        E 0 90 35 3b
        E 240 b0 0b 2a
        E 16 b0 0b 22
        E 16 b0 0b 19
        E 16 b0 0b 3b
        E 0 80 35 00
        E 0 90 36 3b
        E 240 b0 0b 2a
        E 16 b0 0b 22
        E 16 b0 0b 19
        E 16 b0 0b 3b
        E 0 80 36 00
        E 0 90 35 3b
        E 240 b0 0b 2a
        E 16 b0 0b 22
        E 16 b0 0b 19
        E 16 b0 0b 3b
        E 0 80 35 00
        E 0 90 33 3b
        E 240 b0 0b 2a
        E 16 b0 0b 22
        E 16 b0 0b 19
        E 16 b0 0b 3b
        E 0 80 33 00
        E 0 90 35 3b
        E 992 b0 0b 2a
        E 16 b0 0b 22
        E 16 b0 0b 19
        E 16 b0 0b 11
        E 16 80 35 00
        E 96 b0 0b 44
        E 0 90 3d 44
        E 16 b0 0b 2a
        E 224 b0 0b 19
        E 16 b0 0b 08
        E 16 80 3d 00
        E 16 b0 0b 44
        E 0 90 36 44
        E 16 b0 0b 2a
        E 240 b0 0b 19
        E 16 b0 0b 08
        E 16 80 36 00
        E 16 b0 0b 44
        E 0 90 3e 44
        E 16 b0 0b 2a
        E 224 b0 0b 19
        E 16 b0 0b 08
        E 16 80 3e 00
        E 16 b0 0b 44
        E 0 90 3d 44
        E 16 b0 0b 2a
        E 224 b0 0b 19
        E 16 b0 0b 08
        E 16 80 3d 00
        E 16 b0 0b 44
        E 0 90 3c 44
        E 16 b0 0b 2a
        E 960 b0 0b 19
        E 16 b0 0b 08
        E 16 80 3c 00
        E 144 b0 0b 44
        E 0 90 3b 44
        E 16 b0 0b 2a
        E 224 b0 0b 19
        E 16 b0 0b 08
        E 16 80 3b 00
        E 16 b0 0b 44
        E 0 90 31 44
        E 16 b0 0b 2a
        E 224 b0 0b 19
        E 16 b0 0b 08
        E 16 80 31 00
        E 16 b0 0b 44
        E 0 90 35 44
        E 16 b0 0b 2a
        E 224 b0 0b 19
        E 16 b0 0b 08
        E 16 80 35 00
        E 16 b0 0b 44
        E 0 90 3b 44
        E 16 b0 0b 2a
        E 224 b0 0b 19
        E 16 b0 0b 08
        E 16 80 3b 00
        E 16 b0 0b 44
        E 0 90 39 44
        E 16 b0 0b 2a
        E 960 b0 0b 19
        E 16 b0 0b 08
        E 16 80 39 00
        E 144 b0 0b 44
        E 0 90 36 44
        E 16 b0 0b 2a
        E 224 b0 0b 19
        E 16 b0 0b 08
        E 16 80 36 00
        E 16 b0 0b 44
        E 0 90 38 44
        E 16 b0 0b 2a
        E 224 b0 0b 19
        E 16 b0 0b 08
        E 16 80 38 00
        E 16 b0 0b 44
        E 0 90 39 44
        E 16 b0 0b 2a
        E 224 b0 0b 19
        E 16 b0 0b 08
        E 16 80 39 00
        E 16 b0 0b 44
        E 0 90 3d 44
        E 16 b0 0b 2a
        E 224 b0 0b 19
        E 16 b0 0b 08
        E 16 80 3d 00
        E 16 b0 0b 44
        E 0 90 3c 44
        E 16 b0 0b 2a
        E 960 b0 0b 19
        E 16 b0 0b 08
        E 16 80 3c 00
        E 144 b0 0b 44
        E 0 90 3b 44
        E 16 b0 0b 2a
        E 480 b0 0b 19
        E 16 b0 0b 08
        E 16 80 3b 00
        E 48 b0 0b 44
        E 0 90 39 44
        E 16 b0 0b 2a
        E 224 b0 0b 19
        E 16 b0 0b 08
        E 16 80 39 00
        E 16 b0 0b 44
        E 0 90 38 44
        E 16 b0 0b 2a
        E 224 b0 0b 19
        E 16 b0 0b 08
        E 16 80 38 00
        E 16 b0 0b 44
        E 0 90 39 44
        E 16 b0 0b 2a
        E 976 b0 0b 19
        E 16 b0 0b 08
        E 16 80 39 00
        E 128 b0 0c 40
        E 0 b0 0b 44
        E 0 90 4a 44
        E 16 b0 0b 2a
        E 16 b0 0b 19
        E 464 b0 0b 11
        E 80 b0 0b 44
        E 0 80 4a 00
        E 0 90 49 44
        E 16 b0 0b 2a
        E 16 b0 0b 19
        E 208 b0 0b 11
        E 48 b0 0b 44
        E 0 80 49 00
        E 0 90 47 44
        E 16 b0 0b 2a
        E 16 b0 0b 19
        E 208 b0 0b 11
        E 48 b0 0b 44
        E 0 80 47 00
        E 0 90 49 44
        E 16 b0 0b 2a
        E 16 b0 0b 19
        E 960 b0 0b 11
        E 160 b0 0b 44
        E 0 80 49 00
        E 0 90 48 44
        E 16 b0 0b 2a
        E 16 b0 0b 19
        E 464 b0 0b 11
        E 80 b0 0b 44
        E 0 80 48 00
        E 0 90 47 44
        E 16 b0 0b 2a
        E 16 b0 0b 19
        E 208 b0 0b 11
        E 48 b0 0b 44
        E 0 80 47 00
        E 0 90 45 44
        E 16 b0 0b 2a
        E 16 b0 0b 19
        E 208 b0 0b 11
        E 48 b0 0b 44
        E 0 80 45 00
        E 0 90 44 44
        E 16 b0 0b 2a
        E 16 b0 0b 19
        E 960 b0 0b 11
        E 160 b0 0b 44
        E 0 80 44 00
        E 0 90 43 44
        E 16 b0 0b 2a
        E 16 b0 0b 19
        E 464 b0 0b 11
        E 80 b0 0b 44
        E 0 80 43 00
        E 0 90 45 44
        E 16 b0 0b 2a
        E 16 b0 0b 19
        E 208 b0 0b 11
        E 48 b0 0b 44
        E 0 80 45 00
        E 0 90 46 44
        E 16 b0 0b 2a
        E 16 b0 0b 19
        E 208 b0 0b 11
        E 48 b0 0b 44
        E 0 80 46 00
        E 0 90 45 44
        E 16 b0 0b 2a
        E 16 b0 0b 19
        E 960 b0 0b 11
        E 160 b0 0b 44
        E 0 80 45 00
        E 0 90 47 44
        E 16 b0 0b 2a
        E 16 b0 0b 19
        E 960 b0 0b 11
        E 176 b0 0b 44
        E 0 80 47 00
        E 0 90 48 44
        E 16 b0 0b 2a
        E 16 b0 0b 19
        E 448 b0 0b 11
        E 96 b0 0b 44
        E 0 80 48 00
        E 0 90 46 44
        E 16 b0 0b 2a
        E 16 b0 0b 19
        E 448 b0 0b 11
        E 96 b0 0b 44
        E 0 80 46 00
        E 0 90 42 44
        E 240 b0 0b 33
        E 16 b0 0b 2a
        E 16 b0 0b 22
        E 16 b0 0b 44
        E 0 80 42 00
        E 0 90 39 44
        E 240 b0 0b 33
        E 16 b0 0b 2a
        E 16 b0 0b 22
        E 16 b0 0b 44
        E 0 80 39 00
        E 0 90 3b 44
        E 240 b0 0b 33
        E 16 b0 0b 2a
        E 16 b0 0b 22
        E 16 b0 0b 44
        E 0 80 3b 00
        E 0 90 3c 44
        E 240 b0 0b 33
        E 16 b0 0b 2a
        E 16 b0 0b 22
        E 16 b0 0b 44
        E 0 80 3c 00
        E 0 90 3b 44
        E 976 b0 0b 33
        E 16 b0 0b 2a
        E 16 b0 0b 22
        E 16 b0 0b 19
        E 16 b0 0b 08
        E 16 80 3b 00
        E 96 b0 0b 44
        E 0 90 47 44
        E 240 b0 0b 33
        E 16 b0 0b 2a
        E 16 b0 0b 22
        E 16 b0 0b 44
        E 0 80 47 00
        E 0 90 3d 44
        E 240 b0 0b 33
        E 16 b0 0b 2a
        E 16 b0 0b 22
        E 16 b0 0b 44
        E 0 80 3d 00
        E 0 90 44 44
        E 240 b0 0b 33
        E 16 b0 0b 2a
        E 16 b0 0b 22
        E 16 b0 0b 44
        E 0 80 44 00
        E 0 90 47 44
        E 240 b0 0b 33
        E 16 b0 0b 2a
        E 16 b0 0b 22
        E 16 b0 0b 44
        E 0 80 47 00
        E 0 90 45 44
        E 976 b0 0b 33
        E 16 b0 0b 2a
        E 16 b0 0b 22
        E 16 b0 0b 19
        E 16 b0 0b 08
        E 16 80 45 00
        E 96 b0 0c 10
        E 0 b0 0b 3b
        E 0 90 36 3b
        E 240 b0 0b 2a
        E 16 b0 0b 22
        E 16 b0 0b 19
        E 16 b0 0b 3b
        E 0 80 36 00
        E 0 90 35 3b
        E 240 b0 0b 2a
        E 16 b0 0b 22
        E 16 b0 0b 19
        E 16 b0 0b 3b
        E 0 80 35 00
        E 0 90 36 3b
        E 240 b0 0b 2a
        E 16 b0 0b 22
        E 16 b0 0b 19
        E 16 b0 0b 3b
        E 0 80 36 00
        E 0 90 38 3b
        E 240 b0 0b 2a
        E 16 b0 0b 22
        E 16 b0 0b 19
        E 16 b0 0b 3b
        E 0 80 38 00
        E 0 90 39 3b
        E 496 b0 0b 2a
        E 16 b0 0b 22
        E 16 b0 0b 19
        E 16 b0 0b 11
        E 16 80 39 00
        E 16 b0 0b 3b
        E 0 90 38 3b
        E 240 b0 0b 2a
        E 16 b0 0b 22
        E 16 b0 0b 19
        E 16 b0 0b 3b
        E 0 80 38 00
        E 0 90 36 3b
        E 240 b0 0b 2a
        E 16 b0 0b 22
        E 16 b0 0b 19
        E 16 b0 0b 3b
        E 0 80 36 00
        E 0 90 35 3b
        E 240 b0 0b 2a
        E 16 b0 0b 22
        E 16 b0 0b 19
        E 16 b0 0b 3b
        E 0 80 35 00
        E 0 90 36 3b
        E 240 b0 0b 2a
        E 16 b0 0b 22
        E 16 b0 0b 19
        E 16 b0 0b 3b
        E 0 80 36 00
        E 0 90 35 3b
        E 240 b0 0b 2a
        E 16 b0 0b 22
        E 16 b0 0b 19
        E 16 b0 0b 3b
        E 0 80 35 00
        E 0 90 33 3b
        E 240 b0 0b 2a
        E 16 b0 0b 22
        E 16 b0 0b 19
        E 16 b0 0b 3b
        E 0 80 33 00
        E 0 90 35 3b
        E 992 b0 0b 2a
        E 16 b0 0b 22
        E 16 b0 0b 19
        E 16 b0 0b 11
        E 16 80 35 00
        E 96 b0 0b 44
        E 0 90 3d 44
        E 16 b0 0b 2a
        E 224 b0 0b 19
        E 16 b0 0b 08
        E 16 80 3d 00
        E 16 b0 0b 44
        E 0 90 36 44
        E 16 b0 0b 2a
        E 224 b0 0b 19
        E 16 b0 0b 08
        E 16 80 36 00
        E 16 b0 0b 44
        E 0 90 3e 44
        E 16 b0 0b 2a
        E 224 b0 0b 19
        E 16 b0 0b 08
        E 16 80 3e 00
        E 16 b0 0b 44
        E 0 90 3d 44
        E 16 b0 0b 2a
        E 224 b0 0b 19
        E 16 b0 0b 08
        E 16 80 3d 00
        E 16 b0 0b 44
        E 0 90 3c 44
        E 16 b0 0b 2a
        E 976 b0 0b 19
        E 16 b0 0b 08
        E 16 80 3c 00
        E 128 b0 0b 44
        E 0 90 3b 44
        E 16 b0 0b 2a
        E 224 b0 0b 19
        E 16 b0 0b 08
        E 16 80 3b 00
        E 16 b0 0b 44
        E 0 90 31 44
        E 16 b0 0b 2a
        E 224 b0 0b 19
        E 16 b0 0b 08
        E 16 80 31 00
        E 16 b0 0b 44
        E 0 90 35 44
        E 16 b0 0b 2a
        E 224 b0 0b 19
        E 16 b0 0b 08
        E 16 80 35 00
        E 16 b0 0b 44
        E 0 90 3b 44
        E 16 b0 0b 2a
        E 224 b0 0b 19
        E 16 b0 0b 08
        E 16 80 3b 00
        E 16 b0 0b 44
        E 0 90 39 44
        E 16 b0 0b 2a
        E 976 b0 0b 19
        E 16 b0 0b 08
        E 16 80 39 00
        E 128 b0 0b 44
        E 0 90 36 44
        E 16 b0 0b 2a
        E 224 b0 0b 19
        E 16 b0 0b 08
        E 16 80 36 00
        E 16 b0 0b 44
        E 0 90 38 44
        E 16 b0 0b 2a
        E 224 b0 0b 19
        E 16 b0 0b 08
        E 16 80 38 00
        E 16 b0 0b 44
        E 0 90 39 44
        E 16 b0 0b 2a
        E 224 b0 0b 19
        E 16 b0 0b 08
        E 16 80 39 00
        E 16 b0 0b 44
        E 0 90 3d 44
        E 16 b0 0b 2a
        E 240 b0 0b 19
        E 16 b0 0b 08
        E 16 80 3d 00
        E 16 b0 0b 44
        E 0 90 3c 44
        E 16 b0 0b 2a
        E 960 b0 0b 19
        E 16 b0 0b 08
        E 16 80 3c 00
        E 144 b0 0b 44
        E 0 90 3b 44
        E 16 b0 0b 2a
        E 464 b0 0b 19
        E 16 b0 0b 08
        E 16 80 3b 00
        E 64 b0 0b 44
        E 0 90 39 44
        E 16 b0 0b 2a
        E 224 b0 0b 19
        E 16 b0 0b 08
        E 16 80 39 00
        E 16 b0 0b 44
        E 0 90 38 44
        E 16 b0 0b 2a
        E 224 b0 0b 19
        E 16 b0 0b 08
        E 16 80 38 00
        E 16 b0 0b 44
        E 0 90 39 44
        E 16 b0 0b 2a
        E 960 b0 0b 19
        E 16 b0 0b 08
        E 16 80 39 00
        E 144 b0 0c 40
        E 0 b0 0b 44
        E 0 90 4a 44
        E 16 b0 0b 2a
        E 16 b0 0b 19
        E 464 b0 0b 11
        E 80 b0 0b 44
        E 0 80 4a 00
        E 0 90 49 44
        E 16 b0 0b 2a
        E 16 b0 0b 19
        E 208 b0 0b 11
        E 48 b0 0b 44
        E 0 80 49 00
        E 0 90 47 44
        E 16 b0 0b 2a
        E 16 b0 0b 19
        E 208 b0 0b 11
        E 48 b0 0b 44
        E 0 80 47 00
        E 0 90 49 44
        E 16 b0 0b 2a
        E 16 b0 0b 19
        E 944 b0 0b 11
        E 176 b0 0b 44
        E 0 80 49 00
        E 0 90 48 44
        E 16 b0 0b 2a
        E 16 b0 0b 19
        E 464 b0 0b 11
        E 80 b0 0b 44
        E 0 80 48 00
        E 0 90 47 44
        E 16 b0 0b 2a
        E 16 b0 0b 19
        E 208 b0 0b 11
        E 48 b0 0b 44
        E 0 80 47 00
        E 0 90 45 44
        E 16 b0 0b 2a
        E 16 80 45 00
        E 0 b0 7b 00
        E 0 ff 2f 00
      >
    >
  >
  <TRACK {7B8DCC0E-4DDC-4A6D-BA4D-9DAC116ED011}
    NAME "NES - Pulse 2 [ch1]"
    PEAKCOL 10092441
    BEAT -1
    AUTOMODE 0
    PANLAWFLAGS 3
    VOLPAN 1 0 -1 -1 1
    MUTESOLO 0 0 0
    IPHASE 0
    PLAYOFFS 0 1
    ISBUS 0 0
    BUSCOMP 0 0 0 0 0
    SHOWINMIX 1 0.6667 0.5 1 0.5 0 0 0
    FIXEDLANES 9 0 0 0 0
    SEL 0
    REC 0 5088 1 0 0 0 0 0
    VU 2
    TRACKHEIGHT 0 0 0 0 0 0 0
    INQ 0 0 0 0.5 100 0 0 100
    NCHAN 2
    FX 1
    TRACKID {7B8DCC0E-4DDC-4A6D-BA4D-9DAC116ED011}
    PERF 0
    MIDIOUT -1
    MAINSEND 1 0
    <FXCHAIN
      WNDRECT 24 52 700 560
      SHOW 0
      LASTSEL 0
      DOCKED 0
      BYPASS 0 0 0
      <JS "ReapNES Studio/ReapNES_Console.jsfx" ""
        2 15 1 10 80 10 100 2 1 15 1 5 60 10 80 1 1 0 50 0 0 15 1 0 100 0 0 0.500000 0.500000 0.400000 0.300000 0.800000 1 1 0 0 0 0 - - - - - - - - - - - - - - - - - - - - - - - - - -
      >
      FLOATPOS 0 0 0 0
      FXID {F1601D8A-1464-4697-A5C7-389D49F332B6}
      WAK 0 0
    >
    <ITEM
      POSITION 0
      LENGTH 70.3732525
      LOOP 0
      ALLTAKES 0
      FADEIN 0 0 0 0 0 0 0
      FADEOUT 0 0 0 0 0 0 0
      MUTE 0 0
      SEL 0
      IGUID {418B62C1-9357-4778-A94D-8F05FA1B1AB2}
      <SOURCE MIDI
        HASDATA 1 480 QN
        CCINTERP 32
        E 0 c1 51
        E 0 b1 0c 10
        E 0 b1 0b 33
        E 0 91 39 33
        E 1120 b1 0b 22
        E 16 b1 0b 19
        E 16 b1 0b 11
        E 16 b1 0b 33
        E 0 81 39 00
        E 0 91 38 33
        E 1104 b1 0b 22
        E 16 b1 0b 19
        E 16 b1 0b 11
        E 16 b1 0b 33
        E 0 81 38 00
        E 0 91 3b 33
        E 1104 b1 0b 22
        E 16 b1 0b 19
        E 16 b1 0b 11
        E 16 b1 0b 33
        E 0 81 3b 00
        E 0 91 3e 33
        E 1120 b1 0b 22
        E 16 b1 0b 19
        E 16 b1 0b 33
        E 0 81 3e 00
        E 0 91 39 33
        E 1120 b1 0b 22
        E 16 b1 0b 19
        E 16 b1 0b 33
        E 0 81 39 00
        E 0 91 38 33
        E 544 b1 0b 22
        E 16 b1 0b 19
        E 16 b1 0b 33
        E 0 81 38 00
        E 0 91 33 33
        E 544 b1 0b 22
        E 16 b1 0b 19
        E 16 b1 0b 33
        E 0 81 33 00
        E 0 91 38 33
        E 1120 b1 0b 22
        E 16 b1 0b 19
        E 16 b1 0b 33
        E 0 81 38 00
        E 0 91 36 33
        E 560 b1 0b 22
        E 16 b1 0b 33
        E 0 81 36 00
        E 0 91 3d 33
        E 560 b1 0b 22
        E 16 b1 0b 33
        E 0 81 3d 00
        E 0 91 39 33
        E 560 b1 0b 22
        E 16 b1 0b 33
        E 0 81 39 00
        E 0 91 36 33
        E 560 b1 0b 22
        E 16 b1 0b 33
        E 0 81 36 00
        E 0 91 33 33
        E 560 b1 0b 22
        E 16 b1 0b 33
        E 0 81 33 00
        E 0 91 38 33
        E 560 b1 0b 22
        E 16 b1 0b 33
        E 0 81 38 00
        E 0 91 31 33
        E 1120 b1 0b 22
        E 16 b1 0b 19
        E 16 b1 0b 33
        E 0 81 31 00
        E 0 91 3d 33
        E 1120 b1 0b 22
        E 16 b1 0b 19
        E 16 b1 0b 33
        E 0 81 3d 00
        E 0 91 47 33
        E 1120 b1 0b 22
        E 16 b1 0b 19
        E 16 b1 0b 33
        E 0 81 47 00
        E 0 91 45 33
        E 1120 b1 0b 22
        E 16 b1 0b 19
        E 16 b1 0b 33
        E 1120 b1 0b 22
        E 16 b1 0b 19
        E 16 b1 0b 11
        E 16 b1 0b 33
        E 0 81 45 00
        E 0 91 47 33
        E 1104 b1 0b 22
        E 16 b1 0b 19
        E 16 b1 0b 11
        E 16 b1 0b 33
        E 0 81 47 00
        E 0 91 40 33
        E 1104 b1 0b 22
        E 16 b1 0b 19
        E 16 b1 0b 11
        E 16 b1 0b 33
        E 0 81 40 00
        E 0 91 41 33
        E 1120 b1 0b 22
        E 16 b1 0b 19
        E 16 b1 0b 33
        E 0 81 41 00
        E 0 91 44 33
        E 1120 b1 0b 22
        E 16 b1 0b 19
        E 16 b1 0b 33
        E 0 81 44 00
        E 0 91 43 33
        E 1120 b1 0b 22
        E 16 b1 0b 19
        E 16 b1 0b 33
        E 0 81 43 00
        E 0 91 39 33
        E 1120 b1 0b 22
        E 16 b1 0b 19
        E 16 b1 0b 33
        E 0 81 39 00
        E 0 91 34 33
        E 272 b1 0b 22
        E 16 b1 0b 33
        E 0 81 34 00
        E 0 91 35 33
        E 272 b1 0b 22
        E 16 b1 0b 33
        E 0 81 35 00
        E 0 91 34 33
        E 272 b1 0b 22
        E 16 b1 0b 33
        E 0 81 34 00
        E 0 91 32 33
        E 272 b1 0b 22
        E 16 b1 0b 33
        E 0 81 32 00
        E 0 91 3d 33
        E 1120 b1 0b 22
        E 16 b1 0b 19
        E 16 b1 0b 33
        E 0 81 3d 00
        E 0 91 36 33
        E 272 b1 0b 22
        E 16 b1 0b 33
        E 0 81 36 00
        E 0 91 37 33
        E 272 b1 0b 22
        E 16 b1 0b 33
        E 0 81 37 00
        E 0 91 36 33
        E 272 b1 0b 22
        E 16 b1 0b 33
        E 0 81 36 00
        E 0 91 34 33
        E 272 b1 0b 22
        E 16 b1 0b 44
        E 0 81 34 00
        E 0 91 3d 44
        E 16 b1 0b 22
        E 16 b1 0b 19
        E 16 81 3d 00
        E 48 b1 0b 08
        E 0 91 3d 08
        E 16 b1 0b 22
        E 64 b1 0b 08
        E 16 81 3d 00
        E 48 b1 0b 11
        E 0 91 3d 11
        E 16 b1 0b 22
        E 16 b1 0b 11
        E 16 b1 0b 08
        E 16 81 3d 00
        E 272 b1 0b 44
        E 0 91 39 44
        E 16 b1 0b 22
        E 16 b1 0b 19
        E 16 81 39 00
        E 48 b1 0b 08
        E 0 91 39 08
        E 16 b1 0b 22
        E 64 b1 0b 08
        E 16 81 39 00
        E 48 b1 0b 11
        E 0 91 39 11
        E 16 b1 0b 22
        E 16 b1 0b 11
        E 16 b1 0b 08
        E 16 81 39 00
        E 272 b1 0b 44
        E 0 91 3d 44
        E 16 b1 0b 22
        E 16 b1 0b 19
        E 16 81 3d 00
        E 48 b1 0b 08
        E 0 91 3d 08
        E 16 b1 0b 22
        E 64 b1 0b 08
        E 16 81 3d 00
        E 48 b1 0b 11
        E 0 91 3d 11
        E 16 b1 0b 22
        E 32 b1 0b 11
        E 16 b1 0b 08
        E 16 81 3d 00
        E 256 b1 0b 44
        E 0 91 31 44
        E 16 b1 0b 22
        E 16 b1 0b 19
        E 16 81 31 00
        E 48 b1 0b 08
        E 0 91 31 08
        E 16 b1 0b 22
        E 64 b1 0b 08
        E 16 81 31 00
        E 48 b1 0b 11
        E 0 91 31 11
        E 16 b1 0b 22
        E 32 b1 0b 11
        E 16 b1 0b 08
        E 16 81 31 00
        E 256 b1 0b 44
        E 0 91 38 44
        E 16 b1 0b 22
        E 16 b1 0b 19
        E 16 81 38 00
        E 48 b1 0b 08
        E 0 91 38 08
        E 16 b1 0b 22
        E 64 b1 0b 08
        E 16 81 38 00
        E 48 b1 0b 11
        E 0 91 38 11
        E 16 b1 0b 22
        E 32 b1 0b 11
        E 16 b1 0b 08
        E 16 81 38 00
        E 256 b1 0b 44
        E 0 91 31 44
        E 16 b1 0b 22
        E 16 b1 0b 19
        E 16 81 31 00
        E 48 b1 0b 08
        E 0 91 31 08
        E 16 b1 0b 22
        E 64 b1 0b 08
        E 16 81 31 00
        E 48 b1 0b 11
        E 0 91 31 11
        E 16 b1 0b 22
        E 32 b1 0b 11
        E 16 b1 0b 08
        E 16 81 31 00
        E 256 b1 0b 44
        E 0 91 38 44
        E 16 b1 0b 22
        E 16 b1 0b 19
        E 16 81 38 00
        E 48 b1 0b 08
        E 0 91 38 08
        E 16 b1 0b 22
        E 64 b1 0b 08
        E 16 81 38 00
        E 48 b1 0b 11
        E 0 91 38 11
        E 16 b1 0b 22
        E 32 b1 0b 11
        E 16 b1 0b 08
        E 16 81 38 00
        E 256 b1 0b 44
        E 0 91 3b 44
        E 16 b1 0b 22
        E 16 b1 0b 19
        E 16 81 3b 00
        E 48 b1 0b 08
        E 0 91 3b 08
        E 16 b1 0b 22
        E 64 b1 0b 08
        E 16 81 3b 00
        E 48 b1 0b 11
        E 0 91 3b 11
        E 16 b1 0b 22
        E 32 b1 0b 11
        E 16 b1 0b 08
        E 16 81 3b 00
        E 256 b1 0b 33
        E 0 91 39 33
        E 1120 b1 0b 22
        E 16 b1 0b 19
        E 16 b1 0b 11
        E 16 b1 0b 33
        E 0 81 39 00
        E 0 91 38 33
        E 544 b1 0b 22
        E 16 b1 0b 19
        E 16 b1 0b 33
        E 0 81 38 00
        E 0 91 33 33
        E 544 b1 0b 22
        E 16 b1 0b 19
        E 16 b1 0b 33
        E 0 81 33 00
        E 0 91 38 33
        E 1104 b1 0b 22
        E 16 b1 0b 19
        E 16 b1 0b 11
        E 16 b1 0b 33
        E 0 81 38 00
        E 0 91 36 33
        E 544 b1 0b 22
        E 16 b1 0b 19
        E 16 b1 0b 33
        E 0 81 36 00
        E 0 91 3d 33
        E 544 b1 0b 22
        E 16 b1 0b 19
        E 16 b1 0b 33
        E 0 81 3d 00
        E 0 91 39 33
        E 544 b1 0b 22
        E 16 b1 0b 19
        E 16 b1 0b 33
        E 0 81 39 00
        E 0 91 36 33
        E 544 b1 0b 22
        E 16 b1 0b 19
        E 16 b1 0b 33
        E 0 81 36 00
        E 0 91 33 33
        E 544 b1 0b 22
        E 16 b1 0b 19
        E 16 b1 0b 33
        E 0 81 33 00
        E 0 91 38 33
        E 544 b1 0b 22
        E 16 b1 0b 19
        E 16 b1 0b 33
        E 0 81 38 00
        E 0 91 31 33
        E 1120 b1 0b 22
        E 16 b1 0b 19
        E 16 b1 0b 33
        E 0 81 31 00
        E 0 91 3d 33
        E 1120 b1 0b 22
        E 16 b1 0b 19
        E 16 b1 0b 33
        E 0 81 3d 00
        E 0 91 47 33
        E 1120 b1 0b 22
        E 16 b1 0b 19
        E 16 b1 0b 33
        E 0 81 47 00
        E 0 91 45 33
        E 1120 b1 0b 22
        E 16 b1 0b 19
        E 16 b1 0b 33
        E 1120 b1 0b 22
        E 16 b1 0b 19
        E 16 b1 0b 33
        E 0 81 45 00
        E 0 91 47 33
        E 1120 b1 0b 22
        E 16 b1 0b 19
        E 16 b1 0b 33
        E 0 81 47 00
        E 0 91 40 33
        E 1120 b1 0b 22
        E 16 b1 0b 19
        E 16 b1 0b 33
        E 0 81 40 00
        E 0 91 41 33
        E 1120 b1 0b 22
        E 16 b1 0b 19
        E 16 b1 0b 33
        E 0 81 41 00
        E 0 91 44 33
        E 1120 b1 0b 22
        E 16 b1 0b 19
        E 16 b1 0b 11
        E 16 b1 0b 33
        E 0 81 44 00
        E 0 91 43 33
        E 1104 b1 0b 22
        E 16 b1 0b 19
        E 16 b1 0b 11
        E 16 b1 0b 33
        E 0 81 43 00
        E 0 91 39 33
        E 1104 b1 0b 22
        E 16 b1 0b 19
        E 16 b1 0b 11
        E 16 b1 0b 33
        E 0 81 39 00
        E 0 91 34 33
        E 272 b1 0b 22
        E 16 b1 0b 33
        E 0 81 34 00
        E 0 91 35 33
        E 272 b1 0b 22
        E 16 b1 0b 33
        E 0 81 35 00
        E 0 91 34 33
        E 272 b1 0b 22
        E 16 b1 0b 33
        E 0 81 34 00
        E 0 91 32 33
        E 272 b1 0b 22
        E 16 b1 0b 33
        E 0 81 32 00
        E 0 91 3d 33
        E 1120 b1 0b 22
        E 16 b1 0b 19
        E 16 b1 0b 33
        E 0 81 3d 00
        E 0 91 36 33
        E 272 b1 0b 22
        E 16 b1 0b 33
        E 0 81 36 00
        E 0 91 37 33
        E 272 b1 0b 22
        E 16 b1 0b 33
        E 0 81 37 00
        E 0 91 36 33
        E 272 b1 0b 22
        E 16 b1 0b 33
        E 0 81 36 00
        E 0 91 34 33
        E 272 b1 0b 22
        E 16 b1 0b 44
        E 0 81 34 00
        E 0 91 3d 44
        E 16 b1 0b 22
        E 16 b1 0b 19
        E 16 81 3d 00
        E 48 b1 0b 08
        E 0 91 3d 08
        E 16 b1 0b 22
        E 64 b1 0b 08
        E 16 81 3d 00
        E 48 b1 0b 11
        E 0 91 3d 11
        E 16 b1 0b 22
        E 16 b1 0b 11
        E 16 b1 0b 08
        E 16 81 3d 00
        E 272 b1 0b 44
        E 0 91 39 44
        E 16 b1 0b 22
        E 16 b1 0b 19
        E 16 81 39 00
        E 48 b1 0b 08
        E 0 91 39 08
        E 16 b1 0b 22
        E 64 b1 0b 08
        E 16 81 39 00
        E 48 b1 0b 11
        E 0 91 39 11
        E 16 b1 0b 22
        E 16 b1 0b 11
        E 16 b1 0b 08
        E 16 81 39 00
        E 272 b1 0b 44
        E 0 91 3d 44
        E 16 b1 0b 22
        E 16 b1 0b 19
        E 16 81 3d 00
        E 48 b1 0b 08
        E 0 91 3d 08
        E 16 b1 0b 22
        E 64 b1 0b 08
        E 16 81 3d 00
        E 48 b1 0b 11
        E 0 91 3d 11
        E 16 b1 0b 22
        E 16 b1 0b 11
        E 16 b1 0b 08
        E 16 81 3d 00
        E 272 b1 0b 44
        E 0 91 31 44
        E 16 b1 0b 22
        E 16 b1 0b 19
        E 16 81 31 00
        E 48 b1 0b 08
        E 0 91 31 08
        E 16 b1 0b 22
        E 64 b1 0b 08
        E 16 81 31 00
        E 48 b1 0b 11
        E 0 91 31 11
        E 16 b1 0b 22
        E 16 b1 0b 11
        E 16 b1 0b 08
        E 16 81 31 00
        E 272 b1 0b 44
        E 0 91 38 44
        E 16 b1 0b 22
        E 16 b1 0b 19
        E 16 81 38 00
        E 48 b1 0b 08
        E 0 91 38 08
        E 16 b1 0b 22
        E 64 b1 0b 08
        E 16 81 38 00
        E 48 b1 0b 11
        E 0 91 38 11
        E 16 b1 0b 22
        E 16 b1 0b 11
        E 16 b1 0b 08
        E 16 81 38 00
        E 272 b1 0b 44
        E 0 91 31 44
        E 16 b1 0b 22
        E 16 b1 0b 19
        E 16 81 31 00
        E 48 b1 0b 08
        E 0 91 31 08
        E 16 b1 0b 22
        E 64 b1 0b 08
        E 16 81 31 00
        E 48 b1 0b 11
        E 0 91 31 11
        E 16 b1 0b 22
        E 16 b1 0b 11
        E 16 b1 0b 08
        E 16 81 31 00
        E 272 b1 0b 44
        E 0 91 38 44
        E 16 b1 0b 22
        E 16 b1 0b 19
        E 16 81 38 00
        E 48 b1 0b 08
        E 0 91 38 08
        E 16 b1 0b 22
        E 64 b1 0b 08
        E 16 81 38 00
        E 48 b1 0b 11
        E 0 91 38 11
        E 16 b1 0b 22
        E 16 b1 0b 11
        E 16 b1 0b 08
        E 16 81 38 00
        E 272 b1 0b 44
        E 0 91 3b 44
        E 16 b1 0b 22
        E 16 b1 0b 19
        E 16 81 3b 00
        E 48 b1 0b 08
        E 0 91 3b 08
        E 16 b1 0b 22
        E 64 b1 0b 08
        E 16 81 3b 00
        E 48 b1 0b 11
        E 0 91 3b 11
        E 16 b1 0b 22
        E 16 b1 0b 11
        E 16 b1 0b 08
        E 16 81 3b 00
        E 272 b1 0b 33
        E 0 91 39 33
        E 1120 b1 0b 22
        E 16 b1 0b 19
        E 16 b1 0b 33
        E 0 81 39 00
        E 0 91 38 33
        E 560 b1 0b 22
        E 16 b1 0b 33
        E 0 81 38 00
        E 0 91 33 33
        E 560 b1 0b 22
        E 16 b1 0b 33
        E 0 81 33 00
        E 0 91 38 33
        E 1120 b1 0b 22
        E 16 b1 0b 19
        E 16 b1 0b 33
        E 0 81 38 00
        E 0 91 36 33
        E 560 b1 0b 22
        E 16 b1 0b 33
        E 0 81 36 00
        E 0 91 3d 33
        E 560 b1 0b 22
        E 16 b1 0b 33
        E 0 81 3d 00
        E 0 91 39 33
        E 560 b1 0b 22
        E 16 b1 0b 33
        E 0 81 39 00
        E 0 91 36 33
        E 560 b1 0b 22
        E 16 b1 0b 19
        E 16 b1 0b 33
        E 0 81 36 00
        E 0 91 33 33
        E 544 b1 0b 22
        E 16 b1 0b 19
        E 16 b1 0b 33
        E 0 81 33 00
        E 0 91 38 33
        E 544 b1 0b 22
        E 16 b1 0b 19
        E 16 b1 0b 33
        E 0 81 38 00
        E 0 91 31 33
        E 1104 b1 0b 22
        E 16 b1 0b 19
        E 16 b1 0b 11
        E 16 b1 0b 33
        E 0 81 31 00
        E 0 91 3d 33
        E 1104 b1 0b 22
        E 16 b1 0b 19
        E 16 b1 0b 11
        E 16 b1 0b 33
        E 0 81 3d 00
        E 0 91 47 33
        E 1120 b1 0b 22
        E 16 b1 0b 19
        E 16 b1 0b 33
        E 0 81 47 00
        E 0 91 45 33
        E 1120 b1 0b 22
        E 16 b1 0b 19
        E 16 b1 0b 33
        E 896 81 45 00
        E 0 b1 7b 00
        E 0 ff 2f 00
      >
    >
  >
  <TRACK {D73CC69C-9E58-48C1-8D50-B55AC541EB7D}
    NAME "NES - Triangle [ch2]"
    PEAKCOL 16744192
    BEAT -1
    AUTOMODE 0
    PANLAWFLAGS 3
    VOLPAN 1 0 -1 -1 1
    MUTESOLO 0 0 0
    IPHASE 0
    PLAYOFFS 0 1
    ISBUS 0 0
    BUSCOMP 0 0 0 0 0
    SHOWINMIX 1 0.6667 0.5 1 0.5 0 0 0
    FIXEDLANES 9 0 0 0 0
    SEL 0
    REC 0 5088 1 0 0 0 0 0
    VU 2
    TRACKHEIGHT 0 0 0 0 0 0 0
    INQ 0 0 0 0.5 100 0 0 100
    NCHAN 2
    FX 1
    TRACKID {D73CC69C-9E58-48C1-8D50-B55AC541EB7D}
    PERF 0
    MIDIOUT -1
    MAINSEND 1 0
    <FXCHAIN
      WNDRECT 24 52 700 560
      SHOW 0
      LASTSEL 0
      DOCKED 0
      BYPASS 0 0 0
      <JS "ReapNES Studio/ReapNES_Console.jsfx" ""
        2 15 1 10 80 10 100 2 1 15 1 5 60 10 80 1 1 0 50 0 0 15 1 0 100 0 0 0.500000 0.500000 0.400000 0.300000 0.800000 2 1 0 0 0 0 - - - - - - - - - - - - - - - - - - - - - - - - - -
      >
      FLOATPOS 0 0 0 0
      FXID {9359A4D4-0BC0-4EEF-976F-ED2FCBB83B9A}
      WAK 0 0
    >
    <ITEM
      POSITION 0
      LENGTH 70.3732525
      LOOP 0
      ALLTAKES 0
      FADEIN 0 0 0 0 0 0 0
      FADEOUT 0 0 0 0 0 0 0
      MUTE 0 0
      SEL 0
      IGUID {2106E60F-914E-4935-B457-B800C317949E}
      <SOURCE MIDI
        HASDATA 1 480 QN
        CCINTERP 32
        E 0 c2 26
        E 0 b2 0b 7f
        E 0 92 25 7f
        E 1120 82 25 00
        E 48 b2 0b 7f
        E 0 92 23 7f
        E 1104 82 23 00
        E 48 b2 0b 7f
        E 0 92 26 7f
        E 1104 82 26 00
        E 48 b2 0b 7f
        E 0 92 2a 7f
        E 1120 82 2a 00
        E 32 b2 0b 7f
        E 0 92 2a 7f
        E 1120 82 2a 00
        E 32 b2 0b 7f
        E 0 92 2c 7f
        E 544 82 2c 00
        E 32 b2 0b 7f
        E 0 92 2a 7f
        E 544 82 2a 00
        E 32 b2 0b 7f
        E 0 92 29 7f
        E 1120 82 29 00
        E 32 b2 0b 7f
        E 0 92 2a 7f
        E 560 82 2a 00
        E 16 b2 0b 7f
        E 0 92 28 7f
        E 560 82 28 00
        E 16 b2 0b 7f
        E 0 92 26 7f
        E 1120 82 26 00
        E 32 b2 0b 7f
        E 0 92 2c 7f
        E 560 82 2c 00
        E 16 b2 0b 7f
        E 0 92 27 7f
        E 560 82 27 00
        E 16 b2 0b 7f
        E 0 92 29 7f
        E 1120 82 29 00
        E 32 b2 0b 7f
        E 0 92 2a 7f
        E 560 82 2a 00
        E 16 b2 0b 7f
        E 0 92 25 7f
        E 560 82 25 00
        E 16 b2 0b 7f
        E 0 92 2f 7f
        E 1120 82 2f 00
        E 32 b2 0b 7f
        E 0 92 36 7f
        E 560 82 36 00
        E 16 b2 0b 7f
        E 0 92 34 7f
        E 560 82 34 00
        E 16 b2 0b 7f
        E 0 92 33 7f
        E 1120 82 33 00
        E 48 b2 0b 7f
        E 0 92 34 7f
        E 544 82 34 00
        E 32 b2 0b 7f
        E 0 92 32 7f
        E 544 82 32 00
        E 32 b2 0b 7f
        E 0 92 31 7f
        E 1104 82 31 00
        E 48 b2 0b 7f
        E 0 92 32 7f
        E 544 82 32 00
        E 32 b2 0b 7f
        E 0 92 30 7f
        E 544 82 30 00
        E 32 b2 0b 7f
        E 0 92 32 7f
        E 544 82 32 00
        E 32 b2 0b 7f
        E 0 92 34 7f
        E 272 82 34 00
        E 16 b2 0b 7f
        E 0 92 35 7f
        E 272 82 35 00
        E 16 b2 0b 7f
        E 0 92 34 7f
        E 1120 82 34 00
        E 32 b2 0b 7f
        E 0 92 27 7f
        E 1120 82 27 00
        E 32 b2 0b 7f
        E 0 92 28 7f
        E 560 82 28 00
        E 16 b2 0b 7f
        E 0 92 26 7f
        E 560 82 26 00
        E 16 b2 0b 7f
        E 0 92 29 7f
        E 1120 82 29 00
        E 32 b2 0b 7f
        E 0 92 2a 7f
        E 560 82 2a 00
        E 16 b2 0b 7f
        E 0 92 28 7f
        E 560 82 28 00
        E 16 b2 0b 7f
        E 0 92 26 7f
        E 1120 82 26 00
        E 32 b2 0b 7f
        E 0 92 25 7f
        E 288 82 25 00
        E 0 b2 0b 7f
        E 0 92 2a 7f
        E 288 82 2a 00
        E 0 b2 0b 7f
        E 0 92 2f 7f
        E 288 82 2f 00
        E 0 b2 0b 7f
        E 0 92 2d 7f
        E 288 82 2d 00
        E 0 b2 0b 7f
        E 0 92 2c 7f
        E 560 82 2c 00
        E 16 b2 0b 7f
        E 0 92 25 7f
        E 560 82 25 00
        E 16 b2 0b 7f
        E 0 92 23 7f
        E 560 82 23 00
        E 16 b2 0b 7f
        E 0 92 25 7f
        E 560 82 25 00
        E 16 b2 0b 7f
        E 0 92 2a 7f
        E 1120 82 2a 00
        E 48 b2 0b 7f
        E 0 92 2c 7f
        E 544 82 2c 00
        E 32 b2 0b 7f
        E 0 92 2a 7f
        E 544 82 2a 00
        E 32 b2 0b 7f
        E 0 92 29 7f
        E 1104 82 29 00
        E 48 b2 0b 7f
        E 0 92 2a 7f
        E 544 82 2a 00
        E 32 b2 0b 7f
        E 0 92 28 7f
        E 544 82 28 00
        E 32 b2 0b 7f
        E 0 92 26 7f
        E 1120 82 26 00
        E 32 b2 0b 7f
        E 0 92 2c 7f
        E 544 82 2c 00
        E 32 b2 0b 7f
        E 0 92 27 7f
        E 544 82 27 00
        E 32 b2 0b 7f
        E 0 92 29 7f
        E 1120 82 29 00
        E 32 b2 0b 7f
        E 0 92 2a 7f
        E 544 82 2a 00
        E 32 b2 0b 7f
        E 0 92 25 7f
        E 560 82 25 00
        E 16 b2 0b 7f
        E 0 92 2f 7f
        E 1120 82 2f 00
        E 32 b2 0b 7f
        E 0 92 36 7f
        E 560 82 36 00
        E 16 b2 0b 7f
        E 0 92 34 7f
        E 560 82 34 00
        E 16 b2 0b 7f
        E 0 92 33 7f
        E 1120 82 33 00
        E 32 b2 0b 7f
        E 0 92 34 7f
        E 560 82 34 00
        E 16 b2 0b 7f
        E 0 92 32 7f
        E 560 82 32 00
        E 16 b2 0b 7f
        E 0 92 31 7f
        E 1120 82 31 00
        E 32 b2 0b 7f
        E 0 92 32 7f
        E 560 82 32 00
        E 16 b2 0b 7f
        E 0 92 30 7f
        E 560 82 30 00
        E 16 b2 0b 7f
        E 0 92 32 7f
        E 560 82 32 00
        E 16 b2 0b 7f
        E 0 92 34 7f
        E 288 82 34 00
        E 16 b2 0b 7f
        E 0 92 35 7f
        E 272 82 35 00
        E 16 b2 0b 7f
        E 0 92 34 7f
        E 1104 82 34 00
        E 48 b2 0b 7f
        E 0 92 27 7f
        E 1104 82 27 00
        E 48 b2 0b 7f
        E 0 92 28 7f
        E 544 82 28 00
        E 32 b2 0b 7f
        E 0 92 26 7f
        E 544 82 26 00
        E 32 b2 0b 7f
        E 0 92 29 7f
        E 1120 82 29 00
        E 32 b2 0b 7f
        E 0 92 2a 7f
        E 544 82 2a 00
        E 32 b2 0b 7f
        E 0 92 28 7f
        E 544 82 28 00
        E 32 b2 0b 7f
        E 0 92 26 7f
        E 1120 82 26 00
        E 32 b2 0b 7f
        E 0 92 25 7f
        E 272 82 25 00
        E 16 b2 0b 7f
        E 0 92 2a 7f
        E 272 82 2a 00
        E 16 b2 0b 7f
        E 0 92 2f 7f
        E 272 82 2f 00
        E 16 b2 0b 7f
        E 0 92 2d 7f
        E 272 82 2d 00
        E 16 b2 0b 7f
        E 0 92 2c 7f
        E 560 82 2c 00
        E 16 b2 0b 7f
        E 0 92 25 7f
        E 560 82 25 00
        E 16 b2 0b 7f
        E 0 92 23 7f
        E 560 82 23 00
        E 16 b2 0b 7f
        E 0 92 25 7f
        E 560 82 25 00
        E 16 b2 0b 7f
        E 0 92 2a 7f
        E 1120 82 2a 00
        E 32 b2 0b 7f
        E 0 92 2c 7f
        E 560 82 2c 00
        E 16 b2 0b 7f
        E 0 92 2a 7f
        E 560 82 2a 00
        E 16 b2 0b 7f
        E 0 92 29 7f
        E 1120 82 29 00
        E 32 b2 0b 7f
        E 0 92 2a 7f
        E 560 82 2a 00
        E 16 b2 0b 7f
        E 0 92 28 7f
        E 560 82 28 00
        E 16 b2 0b 7f
        E 0 92 26 7f
        E 1120 82 26 00
        E 48 b2 0b 7f
        E 0 92 2c 7f
        E 544 82 2c 00
        E 32 b2 0b 7f
        E 0 92 27 7f
        E 544 82 27 00
        E 32 b2 0b 7f
        E 0 92 29 7f
        E 1104 82 29 00
        E 48 b2 0b 7f
        E 0 92 2a 7f
        E 544 82 2a 00
        E 32 b2 0b 7f
        E 0 92 25 7f
        E 544 82 25 00
        E 32 b2 0b 7f
        E 0 92 2f 7f
        E 1120 82 2f 00
        E 32 b2 0b 7f
        E 0 92 36 7f
        E 544 82 36 00
        E 32 b2 0b 7f
        E 0 92 34 7f
        E 544 82 34 00
        E 32 b2 0b 7f
        E 0 92 33 7f
        E 896 82 33 00
        E 0 b2 7b 00
        E 0 ff 2f 00
      >
    >
  >
  <TRACK {0999634A-3B73-4FED-82D2-8DB4954149AD}
    NAME "NES - Noise / Drums"
    PEAKCOL 11184810
    BEAT -1
    AUTOMODE 0
    PANLAWFLAGS 3
    VOLPAN 1 0 -1 -1 1
    MUTESOLO 0 0 0
    IPHASE 0
    PLAYOFFS 0 1
    ISBUS 0 0
    BUSCOMP 0 0 0 0 0
    SHOWINMIX 1 0.6667 0.5 1 0.5 0 0 0
    FIXEDLANES 9 0 0 0 0
    SEL 0
    REC 0 5088 1 0 0 0 0 0
    VU 2
    TRACKHEIGHT 0 0 0 0 0 0 0
    INQ 0 0 0 0.5 100 0 0 100
    NCHAN 2
    FX 1
    TRACKID {0999634A-3B73-4FED-82D2-8DB4954149AD}
    PERF 0
    MIDIOUT -1
    MAINSEND 1 0
    <FXCHAIN
      WNDRECT 24 52 700 560
      SHOW 0
      LASTSEL 0
      DOCKED 0
      BYPASS 0 0 0
      <JS "ReapNES Studio/ReapNES_Console.jsfx" ""
        2 15 1 10 80 10 100 2 1 15 1 5 60 10 80 1 1 0 50 0 0 15 1 0 100 0 0 0.500000 0.500000 0.400000 0.300000 0.800000 3 1 0 0 0 0 - - - - - - - - - - - - - - - - - - - - - - - - - -
      >
      FLOATPOS 0 0 0 0
      FXID {FD96CAF2-F427-4AFB-9059-708171038E3C}
      WAK 0 0
    >
  >
>