<REAPER_PROJECT 0.1 "7.27/win64" 1707000000
  <NOTES 0 2
    |ReapNES Studio Project
    |MIDI Import - Bubble_Bobble_Part_2_title_rom_v1
  >
  RIPPLE 0
  GROUPOVERRIDE 0 0 0
  AUTOXFADE 129
  ENVATTACH 3
  POOLEDENVATTACH 0
  MIXERUIFLAGS 11 48
  ENVFADESZ10 40
  PEAKGAIN 1
  FEEDBACK 0
  PANLAW 1
  PROJOFFS 0 0 0
  MAXPROJLEN 0 0
  GRID 3199 8 1 8 1 0 0 0
  TIMEMODE 1 5 -1 30 0 0 -1
  VIDEO_CONFIG 0 0 65792
  PANMODE 3
  PANLAWFLAGS 3
  CURSOR 0
  ZOOM 100 0 0
  VZOOMEX 6 0
  USE_REC_CFG 0
  RECMODE 1
  SMPTESYNC 0 30 100 40 1000 300 0 0 1 0 0
  LOOP 0
  LOOPGRAN 0 4
  RECORD_PATH "Media" ""
  <RECORD_CFG
    ZXZhdxgAAQ==
  >
  <APPLYFX_CFG
  >
  RENDER_FILE ""
  RENDER_PATTERN ""
  RENDER_FMT 0 2 0
  RENDER_1X 0
  RENDER_RANGE 1 0 0 18 1000
  RENDER_RESAMPLE 3 0 1
  RENDER_ADDTOPROJ 0
  RENDER_STEMS 0
  RENDER_DITHER 0
  TIMELOCKMODE 1
  TEMPOENVLOCKMODE 1
  ITEMMIX 1
  DEFPITCHMODE 589824 0
  TAKELANE 1
  SAMPLERATE 44100 0 0
  <RENDER_CFG
    ZXZhdxgAAQ==
  >
  LOCK 1
  <METRONOME 6 2
    VOL 0.25 0.125
    BEATLEN 4
    FREQ 1760 880 1
    SAMPLES "" ""
    SPLIGNORE 0 0
    SPLDEF 2 660 "" 0
    SPLDEF 3 440 "" 0
    PATTERN 0 169
    PATTERNSTR ABBB
    MULT 1
  >
  GLOBAL_AUTO -1
  TEMPO 128.59999614200012 4 4
  PLAYRATE 1 0 0.25 4
  SELECTION 0 0
  SELECTION2 0 0
  MASTERAUTOMODE 0
  MASTERTRACKHEIGHT 0 0
  MASTERPEAKCOL 16576
  MASTERMUTESOLO 0
  MASTERTRACKVIEW 0 0.6667 0.5 0.5 0 0 0 0 0 0 0 0 0 0
  MASTERHWOUT 0 0 1 0 0 0 0 -1
  MASTER_NCH 2 2
  MASTER_VOLUME 1 0 -1 -1 1
  MASTER_PANMODE 3
  MASTER_PANLAWFLAGS 3
  MASTER_FX 1
  MASTER_SEL 0
  <MASTERPLAYSPEEDENV
    EGUID {33F9937D-7B26-4AB9-9D7B-CD89BC249162}
    ACT 0 -1
    VIS 0 1 1
    LANEHEIGHT 0 0
    ARM 0
    DEFSHAPE 0 -1 -1
  >
  <TEMPOENVEX
    EGUID {81892FFB-2C43-470A-B5DE-7B011191C7D4}
    ACT 1 -1
    VIS 1 0 1
    LANEHEIGHT 0 0
    ARM 0
    DEFSHAPE 1 -1 -1
  >
  <PROJBAY
  >
  <TRACK {7D6518D4-1FFF-4075-A362-8B21D5C8DE60}
    NAME "NES - Pulse 1 [ch0]"
    PEAKCOL 16576606
    BEAT -1
    AUTOMODE 0
    PANLAWFLAGS 3
    VOLPAN 1 0 -1 -1 1
    MUTESOLO 0 0 0
    IPHASE 0
    PLAYOFFS 0 1
    ISBUS 0 0
    BUSCOMP 0 0 0 0 0
    SHOWINMIX 1 0.6667 0.5 1 0.5 0 0 0
    FIXEDLANES 9 0 0 0 0
    SEL 1
    REC 1 5088 1 0 0 0 0 0
    VU 2
    TRACKHEIGHT 0 0 0 0 0 0 0
    INQ 0 0 0 0.5 100 0 0 100
    NCHAN 2
    FX 1
    TRACKID {7D6518D4-1FFF-4075-A362-8B21D5C8DE60}
    PERF 0
    MIDIOUT -1
    MAINSEND 1 0
    <FXCHAIN
      WNDRECT 24 52 700 560
      SHOW 0
      LASTSEL 0
      DOCKED 0
      BYPASS 0 0 0
      <JS "ReapNES Studio/ReapNES_Console.jsfx" ""
        2 15 1 10 80 10 100 2 1 15 1 5 60 10 80 1 1 0 50 0 0 15 1 0 100 0 0 0.500000 0.500000 0.400000 0.300000 0.800000 0 1 0 0 0 0 - - - - - - - - - - - - - - - - - - - - - - - - - -
      >
      FLOATPOS 0 0 0 0
      FXID {DD8B9236-85F9-4163-B099-F6C760E1DB03}
      WAK 0 0
    >
    <ITEM
      POSITION 0
      LENGTH 4.3234838
      LOOP 0
      ALLTAKES 0
      FADEIN 0 0 0 0 0 0 0
      FADEOUT 0 0 0 0 0 0 0
      MUTE 0 0
      SEL 0
      IGUID {4D753D18-FEC0-41C2-98A6-56B7075692A6}
      <SOURCE MIDI
        HASDATA 1 480 QN
        CCINTERP 32
        E 0 c0 50
        E 0 b0 0c 40
        E 0 b0 0b 2a
        E 0 90 4c 2a
        E 16 b0 0b 55
        E 16 b0 0b 77
        E 16 b0 0b 55
        E 16 b0 0b 33
        E 16 b0 0b 11
        E 16 b0 0b 2a
        E 0 80 4c 00
        E 0 90 4a 2a
        E 32 b0 0b 55
        E 16 b0 0b 77
        E 16 b0 0b 55
        E 16 b0 0b 33
        E 16 b0 0b 11
        E 16 b0 0b 2a
        E 0 80 4a 00
        E 0 90 47 2a
        E 16 b0 0b 55
        E 32 b0 0b 77
        E 16 b0 0b 55
        E 16 b0 0b 33
        E 16 b0 0b 11
        E 16 b0 0b 2a
        E 0 80 47 00
        E 0 90 44 2a
        E 16 b0 0b 55
        E 16 b0 0b 77
        E 32 b0 0b 55
        E 16 b0 0b 33
        E 16 b0 0b 11
        E 16 b0 0b 2a
        E 0 80 44 00
        E 0 90 41 2a
        E 16 b0 0b 55
        E 16 b0 0b 77
        E 16 b0 0b 55
        E 32 b0 0b 33
        E 16 b0 0b 11
        E 16 b0 0b 2a
        E 0 80 41 00
        E 0 90 40 2a
        E 16 b0 0b 55
        E 16 b0 0b 77
        E 16 b0 0b 55
        E 16 b0 0b 33
        E 32 b0 0b 11
        E 16 b0 0b 2a
        E 0 80 40 00
        E 0 90 41 2a
        E 16 b0 0b 55
        E 16 b0 0b 77
        E 16 b0 0b 55
        E 16 b0 0b 33
        E 16 b0 0b 11
        E 32 b0 0b 2a
        E 0 80 41 00
        E 0 90 40 2a
        E 16 b0 0b 55
        E 16 b0 0b 77
        E 16 b0 0b 55
        E 16 b0 0b 33
        E 16 b0 0b 11
        E 16 b0 0b 2a
        E 0 80 40 00
        E 0 90 41 2a
        E 32 b0 0b 55
        E 16 b0 0b 77
        E 16 b0 0b 55
        E 16 b0 0b 33
        E 16 b0 0b 11
        E 16 b0 0b 2a
        E 0 80 41 00
        E 0 90 40 2a
        E 16 b0 0b 55
        E 32 b0 0b 77
        E 16 b0 0b 55
        E 16 b0 0b 33
        E 16 b0 0b 11
        E 16 b0 0b 2a
        E 0 80 40 00
        E 0 90 44 2a
        E 16 b0 0b 55
        E 16 b0 0b 77
        E 32 b0 0b 55
        E 16 b0 0b 33
        E 16 b0 0b 11
        E 16 b0 0b 2a
        E 0 80 44 00
        E 0 90 40 2a
        E 16 b0 0b 55
        E 16 b0 0b 77
        E 16 b0 0b 55
        E 32 b0 0b 33
        E 16 b0 0b 11
        E 16 b0 0b 2a
        E 0 80 40 00
        E 0 90 45 2a
        E 16 b0 0b 55
        E 16 b0 0b 77
        E 16 b0 0b 55
        E 16 b0 0b 33
        E 32 b0 0b 11
        E 16 b0 0b 2a
        E 0 80 45 00
        E 0 90 44 2a
        E 16 b0 0b 55
        E 16 b0 0b 77
        E 16 b0 0b 55
        E 16 b0 0b 33
        E 16 b0 0b 11
        E 32 b0 0b 2a
        E 0 80 44 00
        E 0 90 47 2a
        E 16 b0 0b 55
        E 16 b0 0b 77
        E 16 b0 0b 55
        E 16 b0 0b 33
        E 16 b0 0b 11
        E 16 b0 0b 2a
        E 0 80 47 00
        E 0 90 45 2a
        E 32 b0 0b 55
        E 16 b0 0b 77
        E 16 b0 0b 55
        E 16 b0 0b 33
        E 16 b0 0b 11
        E 16 b0 0b 2a
        E 0 80 45 00
        E 0 90 48 2a
        E 16 b0 0b 55
        E 32 b0 0b 77
        E 16 b0 0b 55
        E 16 b0 0b 33
        E 16 b0 0b 11
        E 16 b0 0b 2a
        E 0 80 48 00
        E 0 90 47 2a
        E 16 b0 0b 55
        E 16 b0 0b 77
        E 32 b0 0b 55
        E 16 b0 0b 33
        E 16 b0 0b 11
        E 16 b0 0b 2a
        E 0 80 47 00
        E 0 90 4c 2a
        E 16 b0 0b 55
        E 16 b0 0b 77
        E 16 b0 0b 55
        E 32 b0 0b 33
        E 16 b0 0b 11
        E 16 b0 0b 2a
        E 0 80 4c 00
        E 0 90 4a 2a
        E 16 b0 0b 55
        E 16 b0 0b 77
        E 16 b0 0b 55
        E 16 b0 0b 33
        E 32 b0 0b 11
        E 16 b0 0b 2a
        E 0 80 4a 00
        E 0 90 48 2a
        E 16 b0 0b 55
        E 16 b0 0b 77
        E 32 b0 0b 6e
        E 320 b0 0b 4c
        E 16 b0 0b 2a
        E 16 b0 0b 08
        E 16 b0 0b 2a
        E 0 80 48 00
        E 0 90 47 2a
        E 16 b0 0b 55
        E 16 b0 0b 77
        E 48 b0 0b 6e
        E 80 b0 0b 4c
        E 32 b0 0b 2a
        E 16 b0 0b 08
        E 16 b0 0b 2a
        E 0 80 47 00
        E 0 90 45 2a
        E 16 b0 0b 55
        E 16 b0 0b 77
        E 32 b0 0b 6e
        E 544 b0 0b 4c
        E 16 b0 0b 2a
        E 16 b0 0b 08
        E 16 b0 0b 2a
        E 0 80 45 00
        E 0 90 40 2a
        E 16 b0 0b 55
        E 16 b0 0b 77
        E 48 b0 0b 6e
        E 80 b0 0b 4c
        E 16 b0 0b 2a
        E 32 b0 0b 08
        E 16 b0 0b 2a
        E 0 80 40 00
        E 0 90 43 2a
        E 16 b0 0b 55
        E 16 b0 0b 77
        E 32 b0 0b 6e
        E 528 b0 0b 4c
        E 32 b0 0b 2a
        E 16 b0 0b 08
        E 16 b0 0b 2a
        E 0 80 43 00
        E 0 90 45 2a
        E 16 b0 0b 55
        E 16 b0 0b 77
        E 32 80 45 00
        E 0 b0 7b 00
        E 0 ff 2f 00
      >
    >
  >
  <TRACK {09C9DFF6-F6B5-452C-850A-FBB5871F5756}
    NAME "NES - Pulse 2 [ch1]"
    PEAKCOL 10092441
    BEAT -1
    AUTOMODE 0
    PANLAWFLAGS 3
    VOLPAN 1 0 -1 -1 1
    MUTESOLO 0 0 0
    IPHASE 0
    PLAYOFFS 0 1
    ISBUS 0 0
    BUSCOMP 0 0 0 0 0
    SHOWINMIX 1 0.6667 0.5 1 0.5 0 0 0
    FIXEDLANES 9 0 0 0 0
    SEL 0
    REC 0 5088 1 0 0 0 0 0
    VU 2
    TRACKHEIGHT 0 0 0 0 0 0 0
    INQ 0 0 0 0.5 100 0 0 100
    NCHAN 2
    FX 1
    TRACKID {09C9DFF6-F6B5-452C-850A-FBB5871F5756}
    PERF 0
    MIDIOUT -1
    MAINSEND 1 0
    <FXCHAIN
      WNDRECT 24 52 700 560
      SHOW 0
      LASTSEL 0
      DOCKED 0
      BYPASS 0 0 0
      <JS "ReapNES Studio/ReapNES_Console.jsfx" ""
        2 15 1 10 80 10 100 2 1 15 1 5 60 10 80 1 1 0 50 0 0 15 1 0 100 0 0 0.500000 0.500000 0.400000 0.300000 0.800000 1 1 0 0 0 0 - - - - - - - - - - - - - - - - - - - - - - - - - -
      >
      FLOATPOS 0 0 0 0
      FXID {78E64106-202F-4F24-977F-E918A269C981}
      WAK 0 0
    >
    <ITEM
      POSITION 0
      LENGTH 4.3234838
      LOOP 0
      ALLTAKES 0
      FADEIN 0 0 0 0 0 0 0
      FADEOUT 0 0 0 0 0 0 0
      MUTE 0 0
      SEL 0
      IGUID {F2AEBE1F-E0E9-4681-831D-6EDC242C3BA2}
      <SOURCE MIDI
        HASDATA 1 480 QN
        CCINTERP 32
        E 0 c1 51
        E 0 b1 0c 40
        E 0 b1 0b 77
        E 0 91 44 77
        E 64 b1 0b 6e
        E 32 b1 0b 77
        E 0 81 44 00
        E 0 91 41 77
        E 80 b1 0b 6e
        E 32 b1 0b 77
        E 0 81 41 00
        E 0 91 3e 77
        E 80 b1 0b 6e
        E 32 b1 0b 77
        E 0 81 3e 00
        E 0 91 3b 77
        E 80 b1 0b 6e
        E 32 b1 0b 77
        E 0 81 3b 00
        E 0 91 38 77
        E 48 b1 0b 6e
        E 64 b1 0b 66
        E 48 b1 0b 5d
        E 64 b1 0b 55
        E 48 b1 0b 4c
        E 64 b1 0b 44
        E 32 81 38 00
        E 0 91 39 44
        E 16 b1 0b 3b
        E 48 b1 0b 33
        E 64 b1 0b 2a
        E 48 b1 0b 22
        E 64 b1 0b 19
        E 48 b1 0b 11
        E 64 b1 0b 08
        E 48 b1 0b 11
        E 544 b1 0b 77
        E 0 81 39 00
        E 0 91 45 77
        E 80 b1 0b 6e
        E 32 b1 0b 77
        E 0 81 45 00
        E 0 91 44 77
        E 80 b1 0b 6e
        E 32 b1 0b 77
        E 0 81 44 00
        E 0 91 48 77
        E 80 b1 0b 6e
        E 32 b1 0b 77
        E 0 81 48 00
        E 0 91 47 77
        E 64 b1 0b 6e
        E 48 b1 0b 55
        E 0 81 47 00
        E 0 91 34 55
        E 48 b1 0b 4c
        E 64 b1 0b 44
        E 48 b1 0b 3b
        E 48 b1 0b 33
        E 80 b1 0b 2a
        E 32 b1 0b 44
        E 80 b1 0b 3b
        E 32 b1 0b 55
        E 0 81 34 00
        E 0 91 40 55
        E 64 b1 0b 4c
        E 48 b1 0b 44
        E 48 b1 0b 3b
        E 64 b1 0b 33
        E 64 b1 0b 2a
        E 48 b1 0b 44
        E 64 b1 0b 3b
        E 48 b1 0b 55
        E 0 81 40 00
        E 0 91 30 55
        E 48 b1 0b 4c
        E 48 b1 0b 44
        E 64 b1 0b 3b
        E 48 b1 0b 33
        E 80 b1 0b 2a
        E 32 b1 0b 44
        E 80 b1 0b 3b
        E 32 b1 0b 55
        E 0 81 30 00
        E 0 91 3c 55
        E 48 b1 0b 4c
        E 64 b1 0b 44
        E 48 b1 0b 3b
        E 64 b1 0b 33
        E 64 b1 0b 2a
        E 48 b1 0b 44
        E 64 b1 0b 3b
        E 32 b1 0b 55
        E 0 81 3c 00
        E 0 91 2f 55
        E 64 b1 0b 4c
        E 48 b1 0b 44
        E 64 b1 0b 3b
        E 48 b1 0b 33
        E 80 b1 0b 2a
        E 32 b1 0b 44
        E 80 b1 0b 3b
        E 32 b1 0b 55
        E 0 81 2f 00
        E 0 91 3b 55
        E 48 b1 0b 4c
        E 16 81 3b 00
        E 0 b1 7b 00
        E 0 ff 2f 00
      >
    >
  >
  <TRACK {AAC9542E-7456-480C-A688-24639CEEC5C9}
    NAME "NES - Triangle [ch2]"
    PEAKCOL 16744192
    BEAT -1
    AUTOMODE 0
    PANLAWFLAGS 3
    VOLPAN 1 0 -1 -1 1
    MUTESOLO 0 0 0
    IPHASE 0
    PLAYOFFS 0 1
    ISBUS 0 0
    BUSCOMP 0 0 0 0 0
    SHOWINMIX 1 0.6667 0.5 1 0.5 0 0 0
    FIXEDLANES 9 0 0 0 0
    SEL 0
    REC 0 5088 1 0 0 0 0 0
    VU 2
    TRACKHEIGHT 0 0 0 0 0 0 0
    INQ 0 0 0 0.5 100 0 0 100
    NCHAN 2
    FX 1
    TRACKID {AAC9542E-7456-480C-A688-24639CEEC5C9}
    PERF 0
    MIDIOUT -1
    MAINSEND 1 0
    <FXCHAIN
      WNDRECT 24 52 700 560
      SHOW 0
      LASTSEL 0
      DOCKED 0
      BYPASS 0 0 0
      <JS "ReapNES Studio/ReapNES_Console.jsfx" ""
        2 15 1 10 80 10 100 2 1 15 1 5 60 10 80 1 1 0 50 0 0 15 1 0 100 0 0 0.500000 0.500000 0.400000 0.300000 0.800000 2 1 0 0 0 0 - - - - - - - - - - - - - - - - - - - - - - - - - -
      >
      FLOATPOS 0 0 0 0
      FXID {584D6578-EA86-4D47-BD89-C708279774B7}
      WAK 0 0
    >
    <ITEM
      POSITION 0
      LENGTH 4.3234838
      LOOP 0
      ALLTAKES 0
      FADEIN 0 0 0 0 0 0 0
      FADEOUT 0 0 0 0 0 0 0
      MUTE 0 0
      SEL 0
      IGUID {C5B8FB0D-01B0-4EE3-8F0F-55DEF0369203}
      <SOURCE MIDI
        HASDATA 1 480 QN
        CCINTERP 32
        E 0 c2 26
        E 0 b2 0b 7f
        E 0 92 34 7f
        E 384 82 34 00
        E 48 b2 0b 7f
        E 0 92 28 7f
        E 160 82 28 00
        E 64 b2 0b 7f
        E 0 92 28 7f
        E 592 82 28 00
        E 64 b2 0b 7f
        E 0 92 28 7f
        E 160 82 28 00
        E 64 b2 0b 7f
        E 0 92 28 7f
        E 592 82 28 00
        E 64 b2 0b 7f
        E 0 92 21 7f
        E 160 82 21 00
        E 48 b2 0b 7f
        E 0 92 21 7f
        E 608 82 21 00
        E 64 b2 0b 7f
        E 0 92 21 7f
        E 160 82 21 00
        E 48 b2 0b 7f
        E 0 92 21 7f
        E 384 82 21 00
        E 64 b2 0b 7f
        E 0 92 24 7f
        E 160 82 24 00
        E 48 b2 0b 7f
        E 0 92 28 7f
        E 176 82 28 00
        E 48 b2 0b 7f
        E 0 92 28 7f
        E 288 82 28 00
        E 0 b2 7b 00
        E 0 ff 2f 00
      >
    >
  >
  <TRACK {966EA811-99AF-4494-82D2-38FEB399B10E}
    NAME "NES - Noise / Drums"
    PEAKCOL 11184810
    BEAT -1
    AUTOMODE 0
    PANLAWFLAGS 3
    VOLPAN 1 0 -1 -1 1
    MUTESOLO 0 0 0
    IPHASE 0
    PLAYOFFS 0 1
    ISBUS 0 0
    BUSCOMP 0 0 0 0 0
    SHOWINMIX 1 0.6667 0.5 1 0.5 0 0 0
    FIXEDLANES 9 0 0 0 0
    SEL 0
    REC 0 5088 1 0 0 0 0 0
    VU 2
    TRACKHEIGHT 0 0 0 0 0 0 0
    INQ 0 0 0 0.5 100 0 0 100
    NCHAN 2
    FX 1
    TRACKID {966EA811-99AF-4494-82D2-38FEB399B10E}
    PERF 0
    MIDIOUT -1
    MAINSEND 1 0
    <FXCHAIN
      WNDRECT 24 52 700 560
      SHOW 0
      LASTSEL 0
      DOCKED 0
      BYPASS 0 0 0
      <JS "ReapNES Studio/ReapNES_Console.jsfx" ""
        2 15 1 10 80 10 100 2 1 15 1 5 60 10 80 1 1 0 50 0 0 15 1 0 100 0 0 0.500000 0.500000 0.400000 0.300000 0.800000 3 1 0 0 0 0 - - - - - - - - - - - - - - - - - - - - - - - - - -
      >
      FLOATPOS 0 0 0 0
      FXID {7E1EEA1A-4553-45F1-96E7-898367D0D143}
      WAK 0 0
    >
  >
>