<REAPER_PROJECT 0.1 "7.27/win64" 1707000000
  <NOTES 0 2
    |ReapNES Studio Project
    |MIDI Import - Rocketeer_song01_rom_v1
  >
  RIPPLE 0
  GROUPOVERRIDE 0 0 0
  AUTOXFADE 129
  ENVATTACH 3
  POOLEDENVATTACH 0
  MIXERUIFLAGS 11 48
  ENVFADESZ10 40
  PEAKGAIN 1
  FEEDBACK 0
  PANLAW 1
  PROJOFFS 0 0 0
  MAXPROJLEN 0 0
  GRID 3199 8 1 8 1 0 0 0
  TIMEMODE 1 5 -1 30 0 0 -1
  VIDEO_CONFIG 0 0 65792
  PANMODE 3
  PANLAWFLAGS 3
  CURSOR 0
  ZOOM 100 0 0
  VZOOMEX 6 0
  USE_REC_CFG 0
  RECMODE 1
  SMPTESYNC 0 30 100 40 1000 300 0 0 1 0 0
  LOOP 0
  LOOPGRAN 0 4
  RECORD_PATH "Media" ""
  <RECORD_CFG
    ZXZhdxgAAQ==
  >
  <APPLYFX_CFG
  >
  RENDER_FILE ""
  RENDER_PATTERN ""
  RENDER_FMT 0 2 0
  RENDER_1X 0
  RENDER_RANGE 1 0 0 18 1000
  RENDER_RESAMPLE 3 0 1
  RENDER_ADDTOPROJ 0
  RENDER_STEMS 0
  RENDER_DITHER 0
  TIMELOCKMODE 1
  TEMPOENVLOCKMODE 1
  ITEMMIX 1
  DEFPITCHMODE 589824 0
  TAKELANE 1
  SAMPLERATE 44100 0 0
  <RENDER_CFG
    ZXZhdxgAAQ==
  >
  LOCK 1
  <METRONOME 6 2
    VOL 0.25 0.125
    BEATLEN 4
    FREQ 1760 880 1
    SAMPLES "" ""
    SPLIGNORE 0 0
    SPLDEF 2 660 "" 0
    SPLDEF 3 440 "" 0
    PATTERN 0 169
    PATTERNSTR ABBB
    MULT 1
  >
  GLOBAL_AUTO -1
  TEMPO 128.59999614200012 4 4
  PLAYRATE 1 0 0.25 4
  SELECTION 0 0
  SELECTION2 0 0
  MASTERAUTOMODE 0
  MASTERTRACKHEIGHT 0 0
  MASTERPEAKCOL 16576
  MASTERMUTESOLO 0
  MASTERTRACKVIEW 0 0.6667 0.5 0.5 0 0 0 0 0 0 0 0 0 0
  MASTERHWOUT 0 0 1 0 0 0 0 -1
  MASTER_NCH 2 2
  MASTER_VOLUME 1 0 -1 -1 1
  MASTER_PANMODE 3
  MASTER_PANLAWFLAGS 3
  MASTER_FX 1
  MASTER_SEL 0
  <MASTERPLAYSPEEDENV
    EGUID {908FE183-BC18-44D3-B5DC-6D01491276E9}
    ACT 0 -1
    VIS 0 1 1
    LANEHEIGHT 0 0
    ARM 0
    DEFSHAPE 0 -1 -1
  >
  <TEMPOENVEX
    EGUID {7A3B037E-BB2D-431F-9A73-01DF961B2CDD}
    ACT 1 -1
    VIS 1 0 1
    LANEHEIGHT 0 0
    ARM 0
    DEFSHAPE 1 -1 -1
  >
  <PROJBAY
  >
  <TRACK {EE8C70F0-5DFA-47D7-AC93-07BB59A9D7F9}
    NAME "NES - Pulse 1 [ch0]"
    PEAKCOL 16576606
    BEAT -1
    AUTOMODE 0
    PANLAWFLAGS 3
    VOLPAN 1 0 -1 -1 1
    MUTESOLO 0 0 0
    IPHASE 0
    PLAYOFFS 0 1
    ISBUS 0 0
    BUSCOMP 0 0 0 0 0
    SHOWINMIX 1 0.6667 0.5 1 0.5 0 0 0
    FIXEDLANES 9 0 0 0 0
    SEL 1
    REC 1 5088 1 0 0 0 0 0
    VU 2
    TRACKHEIGHT 0 0 0 0 0 0 0
    INQ 0 0 0 0.5 100 0 0 100
    NCHAN 2
    FX 1
    TRACKID {EE8C70F0-5DFA-47D7-AC93-07BB59A9D7F9}
    PERF 0
    MIDIOUT -1
    MAINSEND 1 0
    <FXCHAIN
      WNDRECT 24 52 700 560
      SHOW 0
      LASTSEL 0
      DOCKED 0
      BYPASS 0 0 0
      <JS "ReapNES Studio/ReapNES_Console.jsfx" ""
        2 15 1 10 80 10 100 2 1 15 1 5 60 10 80 1 1 0 50 0 0 15 1 0 100 0 0 0.500000 0.500000 0.400000 0.300000 0.800000 0 1 0 0 0 0 - - - - - - - - - - - - - - - - - - - - - - - - - -
      >
      FLOATPOS 0 0 0 0
      FXID {AE61F939-9C85-482F-98B1-38B99AE814C1}
      WAK 0 0
    >
    <ITEM
      POSITION 0
      LENGTH 21.710731600000003
      LOOP 0
      ALLTAKES 0
      FADEIN 0 0 0 0 0 0 0
      FADEOUT 0 0 0 0 0 0 0
      MUTE 0 0
      SEL 0
      IGUID {BA0FDC17-B046-47C0-91B6-2F03D078B75A}
      <SOURCE MIDI
        HASDATA 1 480 QN
        CCINTERP 32
        E 0 c0 50
        E 0 b0 0c 10
        E 0 b0 0b 4c
        E 0 90 40 4c
        E 336 b0 0b 44
        E 32 b0 0b 4c
        E 0 80 40 00
        E 0 90 43 4c
        E 192 b0 0b 44
        E 64 b0 0b 4c
        E 96 80 43 00
        E 0 90 47 4c
        E 912 b0 0b 44
        E 64 b0 0b 3b
        E 64 b0 0b 33
        E 64 b0 0b 2a
        E 64 b0 0b 22
        E 64 b0 0b 19
        E 64 b0 0b 11
        E 64 b0 0b 08
        E 64 80 47 00
        E 384 b0 0b 4c
        E 0 90 40 4c
        E 112 80 40 00
        E 0 90 43 4c
        E 128 80 43 00
        E 0 90 48 4c
        E 112 80 48 00
        E 0 90 47 4c
        E 336 b0 0b 44
        E 32 b0 0b 4c
        E 0 80 47 00
        E 0 90 43 4c
        E 112 80 43 00
        E 0 90 40 4c
        E 128 80 40 00
        E 0 90 3c 4c
        E 112 80 3c 00
        E 0 90 3b 4c
        E 1200 b0 0b 44
        E 64 b0 0b 3b
        E 64 b0 0b 33
        E 64 b0 0b 2a
        E 48 b0 0b 4c
        E 0 80 3b 00
        E 0 90 3d 4c
        E 128 80 3d 00
        E 0 90 3c 4c
        E 112 80 3c 00
        E 0 90 3b 4c
        E 128 80 3b 00
        E 0 90 42 4c
        E 336 b0 0b 44
        E 16 b0 0b 4c
        E 0 80 42 00
        E 0 90 3f 4c
        E 528 b0 0b 44
        E 64 b0 0b 3b
        E 16 b0 0b 4c
        E 112 80 3f 00
        E 0 90 3c 4c
        E 144 b0 0b 44
        E 64 b0 0b 3b
        E 32 b0 0b 4c
        E 0 80 3c 00
        E 0 90 3b 4c
        E 128 80 3b 00
        E 0 90 39 4c
        E 144 b0 0b 44
        E 64 b0 0b 3b
        E 32 b0 0b 4c
        E 0 80 39 00
        E 0 90 3b 4c
        E 112 80 3b 00
        E 0 90 36 4c
        E 624 b0 0b 44
        E 64 b0 0b 3b
        E 64 b0 0b 33
        E 64 b0 0b 2a
        E 64 b0 0b 22
        E 64 b0 0b 19
        E 64 b0 0b 11
        E 64 b0 0b 08
        E 16 b0 0b 4c
        E 0 80 36 00
        E 0 90 42 4c
        E 256 80 42 00
        E 0 90 45 4c
        E 96 80 45 00
        E 0 90 48 4c
        E 336 b0 0b 44
        E 32 b0 0b 4c
        E 0 80 48 00
        E 0 90 47 4c
        E 336 b0 0b 44
        E 16 b0 0b 4c
        E 0 80 47 00
        E 0 90 45 4c
        E 192 b0 0b 44
        E 64 b0 0b 3b
        E 16 b0 0b 4c
        E 0 80 45 00
        E 0 90 43 4c
        E 720 b0 0b 44
        E 64 b0 0b 3b
        E 64 b0 0b 33
        E 64 b0 0b 2a
        E 64 b0 0b 22
        E 64 b0 0b 19
        E 64 b0 0b 11
        E 64 b0 0b 4c
        E 0 80 43 00
        E 0 90 3b 4c
        E 720 80 3b 00
        E 0 90 40 4c
        E 368 80 40 00
        E 0 90 43 4c
        E 224 b0 0b 44
        E 32 b0 0b 4c
        E 96 80 43 00
        E 0 90 47 4c
        E 1136 b0 0b 44
        E 64 b0 0b 3b
        E 64 b0 0b 33
        E 64 b0 0b 2a
        E 64 b0 0b 22
        E 64 b0 0b 19
        E 64 b0 0b 11
        E 64 b0 0b 08
        E 64 80 47 00
        E 160 b0 0b 4c
        E 0 90 40 4c
        E 112 80 40 00
        E 0 90 43 4c
        E 128 80 43 00
        E 0 90 48 4c
        E 112 80 48 00
        E 0 90 47 4c
        E 416 b0 0b 44
        E 64 b0 0b 4c
        E 0 80 47 00
        E 0 90 48 4c
        E 128 80 48 00
        E 0 90 4c 4c
        E 112 80 4c 00
        E 0 90 4b 4c
        E 1440 80 4b 00
        E 0 90 45 4c
        E 128 80 45 00
        E 0 90 48 4c
        E 112 80 48 00
        E 0 90 4b 4c
        E 128 80 4b 00
        E 0 90 4e 4c
        E 720 80 4e 00
        E 0 90 4b 4c
        E 112 80 4b 00
        E 0 90 4a 4c
        E 128 80 4a 00
        E 0 90 49 4c
        E 112 80 49 00
        E 0 90 48 4c
        E 176 b0 0b 44
        E 64 b0 0b 4c
        E 0 80 48 00
        E 0 90 45 4c
        E 240 80 45 00
        E 0 90 42 4c
        E 240 80 42 00
        E 0 90 3f 4c
        E 768 b0 0b 44
        E 64 b0 0b 3b
        E 64 b0 0b 33
        E 64 b0 0b 2a
        E 64 b0 0b 22
        E 64 b0 0b 4c
        E 0 80 3f 00
        E 0 90 42 4c
        E 256 80 42 00
        E 0 90 45 4c
        E 96 80 45 00
        E 0 90 48 4c
        E 368 80 48 00
        E 0 90 47 4c
        E 352 80 47 00
        E 0 90 45 4c
        E 224 b0 0b 44
        E 48 b0 0b 4c
        E 0 80 45 00
        E 0 90 43 4c
        E 144 b0 0b 44
        E 64 b0 0b 3b
        E 64 b0 0b 33
        E 64 b0 0b 2a
        E 64 b0 0b 22
        E 64 b0 0b 19
        E 64 b0 0b 11
        E 64 b0 0b 08
        E 64 80 43 00
        E 528 b0 7b 00
        E 0 ff 2f 00
      >
    >
  >
  <TRACK {B0DDE83E-782C-414C-AF62-CFD88FADAD36}
    NAME "NES - Pulse 2 [ch1]"
    PEAKCOL 10092441
    BEAT -1
    AUTOMODE 0
    PANLAWFLAGS 3
    VOLPAN 1 0 -1 -1 1
    MUTESOLO 0 0 0
    IPHASE 0
    PLAYOFFS 0 1
    ISBUS 0 0
    BUSCOMP 0 0 0 0 0
    SHOWINMIX 1 0.6667 0.5 1 0.5 0 0 0
    FIXEDLANES 9 0 0 0 0
    SEL 0
    REC 0 5088 1 0 0 0 0 0
    VU 2
    TRACKHEIGHT 0 0 0 0 0 0 0
    INQ 0 0 0 0.5 100 0 0 100
    NCHAN 2
    FX 1
    TRACKID {B0DDE83E-782C-414C-AF62-CFD88FADAD36}
    PERF 0
    MIDIOUT -1
    MAINSEND 1 0
    <FXCHAIN
      WNDRECT 24 52 700 560
      SHOW 0
      LASTSEL 0
      DOCKED 0
      BYPASS 0 0 0
      <JS "ReapNES Studio/ReapNES_Console.jsfx" ""
        2 15 1 10 80 10 100 2 1 15 1 5 60 10 80 1 1 0 50 0 0 15 1 0 100 0 0 0.500000 0.500000 0.400000 0.300000 0.800000 1 1 0 0 0 0 - - - - - - - - - - - - - - - - - - - - - - - - - -
      >
      FLOATPOS 0 0 0 0
      FXID {FB390CD3-0887-4414-A803-4B0F5FCC1CF9}
      WAK 0 0
    >
    <ITEM
      POSITION 0
      LENGTH 21.710731600000003
      LOOP 0
      ALLTAKES 0
      FADEIN 0 0 0 0 0 0 0
      FADEOUT 0 0 0 0 0 0 0
      MUTE 0 0
      SEL 0
      IGUID {4A473666-CCF0-4034-BE07-91AA20475FE2}
      <SOURCE MIDI
        HASDATA 1 480 QN
        CCINTERP 32
        E 0 c1 51
        E 0 b1 0c 10
        E 0 b1 0b 4c
        E 0 91 40 4c
        E 48 b1 0c 20
        E 48 b1 0c 40
        E 272 b1 0c 10
        E 0 81 40 00
        E 0 91 43 4c
        E 48 b1 0c 20
        E 48 b1 0c 40
        E 80 b1 0b 44
        E 16 b1 0b 3b
        E 16 b1 0b 33
        E 16 b1 0b 22
        E 16 b1 0b 19
        E 16 b1 0c 10
        E 0 b1 0b 4c
        E 48 b1 0c 20
        E 48 b1 0c 10
        E 0 81 43 00
        E 0 91 47 4c
        E 48 b1 0c 20
        E 48 b1 0c 40
        E 992 b1 0b 44
        E 16 b1 0b 3b
        E 16 b1 0b 33
        E 16 b1 0b 22
        E 16 b1 0b 19
        E 16 b1 0b 11
        E 16 b1 0b 08
        E 16 81 47 00
        E 608 b1 0c 10
        E 0 b1 0b 4c
        E 0 91 40 4c
        E 48 b1 0c 20
        E 48 b1 0c 40
        E 16 b1 0c 10
        E 0 81 40 00
        E 0 91 43 4c
        E 48 b1 0c 20
        E 48 b1 0c 40
        E 32 b1 0c 10
        E 0 81 43 00
        E 0 91 48 4c
        E 48 b1 0c 20
        E 48 b1 0c 40
        E 16 b1 0c 10
        E 0 81 48 00
        E 0 91 47 4c
        E 48 b1 0c 20
        E 48 b1 0c 40
        E 272 b1 0c 10
        E 0 81 47 00
        E 0 91 43 4c
        E 48 b1 0c 20
        E 48 b1 0c 40
        E 16 b1 0c 10
        E 0 81 43 00
        E 0 91 40 4c
        E 48 b1 0c 20
        E 48 b1 0c 40
        E 32 b1 0c 10
        E 0 81 40 00
        E 0 91 3c 4c
        E 48 b1 0c 20
        E 48 b1 0c 40
        E 16 b1 0c 10
        E 0 81 3c 00
        E 0 91 3b 4c
        E 48 b1 0c 20
        E 48 b1 0c 40
        E 1344 b1 0c 10
        E 0 81 3b 00
        E 0 91 3d 4c
        E 48 b1 0c 20
        E 48 b1 0c 40
        E 32 b1 0c 10
        E 0 81 3d 00
        E 0 91 3c 4c
        E 48 b1 0c 20
        E 48 b1 0c 40
        E 16 b1 0c 10
        E 0 81 3c 00
        E 0 91 3b 4c
        E 48 b1 0c 20
        E 48 b1 0c 40
        E 32 b1 0c 10
        E 0 81 3b 00
        E 0 91 42 4c
        E 48 b1 0c 20
        E 48 b1 0c 40
        E 256 b1 0c 10
        E 0 81 42 00
        E 0 91 3f 4c
        E 48 b1 0c 20
        E 48 b1 0c 40
        E 512 b1 0b 44
        E 16 b1 0b 3b
        E 16 b1 0b 33
        E 16 b1 0b 22
        E 16 b1 0b 19
        E 16 b1 0b 11
        E 16 b1 0b 08
        E 16 b1 0c 10
        E 0 b1 0b 4c
        E 0 81 3f 00
        E 0 91 3c 4c
        E 48 b1 0c 20
        E 48 b1 0c 40
        E 32 b1 0b 44
        E 16 b1 0b 3b
        E 16 b1 0b 33
        E 16 b1 0b 22
        E 16 b1 0b 19
        E 16 b1 0b 11
        E 16 b1 0b 08
        E 16 b1 0c 10
        E 0 b1 0b 4c
        E 0 81 3c 00
        E 0 91 3b 4c
        E 48 b1 0c 20
        E 48 b1 0c 40
        E 32 b1 0c 10
        E 0 81 3b 00
        E 0 91 39 4c
        E 48 b1 0c 20
        E 48 b1 0c 40
        E 16 b1 0b 44
        E 16 b1 0b 3b
        E 16 b1 0b 33
        E 16 b1 0b 22
        E 16 b1 0b 19
        E 16 b1 0b 11
        E 16 b1 0b 08
        E 16 81 39 00
        E 16 b1 0c 10
        E 0 b1 0b 4c
        E 0 91 3b 4c
        E 48 b1 0c 20
        E 48 b1 0c 40
        E 16 b1 0c 10
        E 0 81 3b 00
        E 0 91 36 4c
        E 48 b1 0c 20
        E 48 b1 0c 40
        E 624 b1 0b 44
        E 16 b1 0b 3b
        E 16 b1 0b 33
        E 16 b1 0b 22
        E 16 b1 0b 19
        E 16 b1 0b 11
        E 16 b1 0b 08
        E 16 81 36 00
        E 256 b1 0c 10
        E 0 b1 0b 4c
        E 0 91 42 4c
        E 48 b1 0c 20
        E 48 b1 0c 40
        E 160 b1 0c 10
        E 0 81 42 00
        E 0 91 45 4c
        E 48 b1 0c 20
        E 48 b1 0c 10
        E 0 81 45 00
        E 0 91 48 4c
        E 48 b1 0c 20
        E 48 b1 0c 40
        E 272 b1 0c 10
        E 0 81 48 00
        E 0 91 47 4c
        E 48 b1 0c 20
        E 48 b1 0c 40
        E 256 b1 0c 10
        E 0 81 47 00
        E 0 91 45 4c
        E 48 b1 0c 20
        E 48 b1 0c 40
        E 80 b1 0b 44
        E 16 b1 0b 3b
        E 16 b1 0b 33
        E 16 b1 0b 22
        E 16 b1 0b 19
        E 16 b1 0b 11
        E 16 b1 0c 10
        E 0 b1 0b 4c
        E 0 81 45 00
        E 0 91 43 4c
        E 48 b1 0c 20
        E 48 b1 0b 44
        E 16 b1 0b 3b
        E 16 b1 0b 33
        E 16 b1 0b 22
        E 16 b1 0b 19
        E 16 b1 0b 11
        E 16 b1 0b 08
        E 16 81 43 00
        E 960 b1 0c 10
        E 0 b1 0b 4c
        E 0 91 28 4c
        E 48 b1 0c 20
        E 48 b1 0c 40
        E 160 b1 0b 44
        E 16 b1 0b 3b
        E 16 b1 0b 33
        E 16 b1 0b 22
        E 16 b1 0b 19
        E 16 b1 0b 11
        E 16 b1 0b 08
        E 16 b1 0c 10
        E 0 b1 0b 4c
        E 0 81 28 00
        E 0 91 22 4c
        E 48 b1 0c 20
        E 48 b1 0c 40
        E 144 b1 0b 44
        E 16 b1 0b 3b
        E 16 b1 0b 33
        E 16 b1 0b 22
        E 16 b1 0b 19
        E 16 b1 0b 11
        E 16 b1 0b 08
        E 16 b1 0c 10
        E 0 b1 0b 4c
        E 0 81 22 00
        E 0 91 23 4c
        E 48 b1 0c 20
        E 48 b1 0c 40
        E 160 b1 0b 44
        E 16 b1 0b 3b
        E 16 b1 0b 33
        E 16 b1 0b 22
        E 16 b1 0b 19
        E 16 b1 0b 11
        E 16 b1 0b 08
        E 16 b1 0c 10
        E 0 b1 0b 4c
        E 0 81 23 00
        E 0 91 1e 4c
        E 48 b1 0c 20
        E 48 b1 0c 40
        E 144 b1 0b 44
        E 16 b1 0b 3b
        E 16 b1 0b 33
        E 16 b1 0b 22
        E 16 b1 0b 19
        E 16 b1 0b 11
        E 16 b1 0b 08
        E 16 b1 0c 10
        E 0 b1 0b 4c
        E 0 81 1e 00
        E 0 91 1f 4c
        E 48 b1 0c 20
        E 48 b1 0c 40
        E 160 b1 0b 44
        E 16 b1 0b 3b
        E 16 b1 0b 33
        E 16 b1 0b 22
        E 16 b1 0b 19
        E 16 b1 0b 11
        E 16 b1 0b 08
        E 16 b1 0c 10
        E 0 b1 0b 4c
        E 0 81 1f 00
        E 0 91 21 4c
        E 48 b1 0c 20
        E 48 b1 0c 40
        E 144 b1 0b 44
        E 16 b1 0b 3b
        E 16 b1 0b 33
        E 16 b1 0b 22
        E 16 b1 0b 19
        E 16 b1 0b 11
        E 16 b1 0b 08
        E 16 b1 0c 10
        E 0 b1 0b 4c
        E 0 81 21 00
        E 0 91 23 4c
        E 48 b1 0c 20
        E 48 b1 0c 40
        E 160 b1 0b 44
        E 16 b1 0b 3b
        E 16 b1 0b 33
        E 16 b1 0b 22
        E 16 b1 0b 19
        E 16 b1 0b 11
        E 16 b1 0b 08
        E 16 b1 0c 10
        E 0 b1 0b 4c
        E 0 81 23 00
        E 0 91 1e 4c
        E 48 b1 0c 20
        E 48 b1 0c 40
        E 144 b1 0b 44
        E 16 b1 0b 3b
        E 16 b1 0b 33
        E 16 b1 0b 22
        E 16 b1 0b 19
        E 16 b1 0b 11
        E 16 b1 0b 08
        E 16 b1 0c 10
        E 0 b1 0b 4c
        E 0 81 1e 00
        E 0 91 1c 4c
        E 48 b1 0c 20
        E 48 b1 0c 40
        E 160 b1 0b 44
        E 16 b1 0b 3b
        E 16 b1 0b 33
        E 16 b1 0b 22
        E 16 b1 0b 19
        E 16 b1 0b 11
        E 16 b1 0b 08
        E 16 b1 0c 10
        E 0 b1 0b 4c
        E 0 81 1c 00
        E 0 91 17 4c
        E 48 b1 0c 20
        E 48 b1 0c 40
        E 144 b1 0b 44
        E 16 b1 0b 3b
        E 16 b1 0b 33
        E 16 b1 0b 22
        E 16 b1 0b 19
        E 16 b1 0b 11
        E 16 b1 0b 08
        E 16 b1 0c 10
        E 0 b1 0b 4c
        E 0 81 17 00
        E 0 91 18 4c
        E 48 b1 0c 20
        E 48 b1 0c 40
        E 160 b1 0b 44
        E 16 b1 0b 3b
        E 16 b1 0b 33
        E 16 b1 0b 22
        E 16 b1 0b 19
        E 16 b1 0b 11
        E 16 b1 0b 08
        E 16 b1 0c 10
        E 0 b1 0b 4c
        E 0 81 18 00
        E 0 91 17 4c
        E 48 b1 0c 20
        E 48 b1 0c 40
        E 144 b1 0b 44
        E 16 b1 0b 3b
        E 16 b1 0b 33
        E 16 b1 0b 22
        E 16 b1 0b 19
        E 16 b1 0b 11
        E 16 b1 0b 08
        E 16 b1 0c 10
        E 0 b1 0b 4c
        E 0 81 17 00
        E 0 91 1c 4c
        E 48 b1 0c 20
        E 48 b1 0c 40
        E 160 b1 0b 44
        E 16 b1 0b 3b
        E 16 b1 0b 33
        E 16 b1 0b 22
        E 16 b1 0b 19
        E 16 b1 0b 11
        E 16 b1 0b 08
        E 16 b1 0c 10
        E 0 b1 0b 4c
        E 0 81 1c 00
        E 0 91 17 4c
        E 48 b1 0c 20
        E 48 b1 0c 40
        E 144 b1 0b 44
        E 16 b1 0b 3b
        E 16 b1 0b 33
        E 16 b1 0b 22
        E 16 b1 0b 19
        E 16 b1 0b 11
        E 16 b1 0b 08
        E 16 b1 0c 10
        E 0 b1 0b 4c
        E 0 81 17 00
        E 0 91 18 4c
        E 48 b1 0c 20
        E 48 b1 0c 40
        E 160 b1 0b 44
        E 16 b1 0b 3b
        E 16 b1 0b 33
        E 16 b1 0b 22
        E 16 b1 0b 19
        E 16 b1 0b 11
        E 16 b1 0b 08
        E 16 b1 0c 10
        E 0 b1 0b 4c
        E 0 81 18 00
        E 0 91 17 4c
        E 48 b1 0c 20
        E 48 b1 0c 40
        E 144 b1 0b 44
        E 16 b1 0b 3b
        E 16 b1 0b 33
        E 16 b1 0b 22
        E 16 b1 0b 19
        E 16 b1 0b 11
        E 16 b1 0b 08
        E 16 b1 0c 10
        E 0 b1 0b 4c
        E 0 81 17 00
        E 0 91 27 4c
        E 48 b1 0c 20
        E 48 b1 0c 40
        E 160 b1 0b 44
        E 16 b1 0b 3b
        E 16 b1 0b 33
        E 16 b1 0b 22
        E 16 b1 0b 19
        E 16 b1 0b 11
        E 16 b1 0b 08
        E 16 b1 0c 10
        E 0 b1 0b 4c
        E 0 81 27 00
        E 0 91 24 4c
        E 48 b1 0c 20
        E 48 b1 0c 40
        E 144 b1 0b 44
        E 16 b1 0b 3b
        E 16 b1 0b 33
        E 16 b1 0b 22
        E 16 b1 0b 19
        E 16 b1 0b 11
        E 16 b1 0b 08
        E 16 b1 0c 10
        E 0 b1 0b 4c
        E 0 81 24 00
        E 0 91 23 4c
        E 48 b1 0c 20
        E 48 b1 0c 40
        E 160 b1 0b 44
        E 16 b1 0b 3b
        E 16 b1 0b 33
        E 16 b1 0b 22
        E 16 b1 0b 19
        E 16 b1 0b 11
        E 16 b1 0b 08
        E 16 b1 0c 10
        E 0 b1 0b 4c
        E 0 81 23 00
        E 0 91 22 4c
        E 48 b1 0c 20
        E 48 b1 0c 40
        E 144 b1 0b 44
        E 16 b1 0b 3b
        E 16 b1 0b 33
        E 16 b1 0b 22
        E 16 b1 0b 19
        E 16 b1 0b 11
        E 16 b1 0b 08
        E 16 b1 0c 10
        E 0 b1 0b 4c
        E 0 81 22 00
        E 0 91 21 4c
        E 48 b1 0c 20
        E 48 b1 0c 40
        E 160 b1 0b 44
        E 16 b1 0b 3b
        E 16 b1 0b 33
        E 16 b1 0b 22
        E 16 b1 0b 19
        E 16 b1 0b 11
        E 16 b1 0b 08
        E 16 b1 0c 10
        E 0 b1 0b 4c
        E 0 81 21 00
        E 0 91 20 4c
        E 48 b1 0c 20
        E 48 b1 0c 40
        E 144 b1 0b 44
        E 16 b1 0b 3b
        E 16 b1 0b 33
        E 16 b1 0b 22
        E 16 b1 0b 19
        E 16 b1 0b 11
        E 16 b1 0b 08
        E 16 b1 0c 10
        E 0 b1 0b 4c
        E 0 81 20 00
        E 0 91 1f 4c
        E 48 b1 0c 20
        E 48 b1 0c 40
        E 160 b1 0b 44
        E 16 b1 0b 3b
        E 16 b1 0b 33
        E 16 b1 0b 22
        E 16 b1 0b 19
        E 16 b1 0b 11
        E 16 b1 0b 08
        E 16 b1 0c 10
        E 0 b1 0b 4c
        E 0 81 1f 00
        E 0 91 1e 4c
        E 48 b1 0c 20
        E 48 b1 0c 40
        E 144 b1 0b 44
        E 16 b1 0b 3b
        E 16 b1 0b 33
        E 16 b1 0b 22
        E 16 b1 0b 19
        E 16 b1 0b 11
        E 16 b1 0b 08
        E 16 b1 0c 10
        E 0 b1 0b 4c
        E 0 81 1e 00
        E 0 91 1b 4c
        E 48 b1 0c 20
        E 48 b1 0c 40
        E 160 b1 0b 44
        E 16 b1 0b 3b
        E 16 b1 0b 33
        E 16 b1 0b 22
        E 16 b1 0b 19
        E 16 b1 0b 11
        E 16 b1 0b 08
        E 16 b1 0c 10
        E 0 b1 0b 4c
        E 0 81 1b 00
        E 0 91 17 4c
        E 48 b1 0c 20
        E 48 b1 0c 40
        E 144 b1 0b 44
        E 16 b1 0b 3b
        E 16 b1 0b 33
        E 16 b1 0b 22
        E 16 b1 0b 19
        E 16 b1 0b 11
        E 16 b1 0b 08
        E 16 b1 0c 10
        E 0 b1 0b 4c
        E 0 81 17 00
        E 0 91 23 4c
        E 48 b1 0c 20
        E 48 b1 0c 40
        E 160 b1 0b 44
        E 16 b1 0b 3b
        E 16 b1 0b 33
        E 16 b1 0b 22
        E 16 b1 0b 19
        E 16 b1 0b 11
        E 16 b1 0b 08
        E 16 b1 0c 10
        E 0 b1 0b 4c
        E 0 81 23 00
        E 0 91 1e 4c
        E 48 b1 0c 20
        E 48 b1 0c 40
        E 144 b1 0b 44
        E 16 b1 0b 3b
        E 16 b1 0b 33
        E 16 b1 0b 22
        E 16 b1 0b 19
        E 16 b1 0b 11
        E 16 b1 0b 08
        E 16 b1 0c 10
        E 0 b1 0b 4c
        E 0 81 1e 00
        E 0 91 1c 4c
        E 48 b1 0c 20
        E 48 b1 0c 40
        E 160 b1 0b 44
        E 16 b1 0b 3b
        E 16 b1 0b 33
        E 16 b1 0b 22
        E 16 b1 0b 19
        E 16 b1 0b 11
        E 16 b1 0b 08
        E 16 b1 0c 10
        E 0 b1 0b 4c
        E 0 81 1c 00
        E 0 91 17 4c
        E 48 b1 0c 20
        E 48 b1 0c 40
        E 144 b1 0b 44
        E 16 b1 0b 3b
        E 16 b1 0b 33
        E 16 b1 0b 22
        E 16 b1 0b 19
        E 16 b1 0b 11
        E 16 b1 0b 08
        E 16 b1 0c 10
        E 0 b1 0b 4c
        E 0 81 17 00
        E 0 91 18 4c
        E 48 b1 0c 20
        E 48 b1 0c 40
        E 160 b1 0b 44
        E 16 b1 0b 3b
        E 16 b1 0b 33
        E 16 b1 0b 22
        E 16 b1 0b 19
        E 16 b1 0b 11
        E 16 b1 0b 08
        E 16 b1 0c 10
        E 0 b1 0b 4c
        E 0 81 18 00
        E 0 91 17 4c
        E 48 b1 0c 20
        E 48 b1 0c 40
        E 144 b1 0b 44
        E 16 b1 0b 3b
        E 16 b1 0b 33
        E 16 b1 0b 22
        E 16 b1 0b 19
        E 16 b1 0b 11
        E 16 b1 0b 08
        E 16 81 17 00
        E 16 b1 7b 00
        E 0 ff 2f 00
      >
    >
  >
  <TRACK {D628BBDA-B3A0-49A9-BCE9-06F2BCE666AD}
    NAME "NES - Triangle [ch2]"
    PEAKCOL 16744192
    BEAT -1
    AUTOMODE 0
    PANLAWFLAGS 3
    VOLPAN 1 0 -1 -1 1
    MUTESOLO 0 0 0
    IPHASE 0
    PLAYOFFS 0 1
    ISBUS 0 0
    BUSCOMP 0 0 0 0 0
    SHOWINMIX 1 0.6667 0.5 1 0.5 0 0 0
    FIXEDLANES 9 0 0 0 0
    SEL 0
    REC 0 5088 1 0 0 0 0 0
    VU 2
    TRACKHEIGHT 0 0 0 0 0 0 0
    INQ 0 0 0 0.5 100 0 0 100
    NCHAN 2
    FX 1
    TRACKID {D628BBDA-B3A0-49A9-BCE9-06F2BCE666AD}
    PERF 0
    MIDIOUT -1
    MAINSEND 1 0
    <FXCHAIN
      WNDRECT 24 52 700 560
      SHOW 0
      LASTSEL 0
      DOCKED 0
      BYPASS 0 0 0
      <JS "ReapNES Studio/ReapNES_Console.jsfx" ""
        2 15 1 10 80 10 100 2 1 15 1 5 60 10 80 1 1 0 50 0 0 15 1 0 100 0 0 0.500000 0.500000 0.400000 0.300000 0.800000 2 1 0 0 0 0 - - - - - - - - - - - - - - - - - - - - - - - - - -
      >
      FLOATPOS 0 0 0 0
      FXID {49A2D67D-4B73-4C78-9723-7B8316C43FA0}
      WAK 0 0
    >
    <ITEM
      POSITION 0
      LENGTH 21.710731600000003
      LOOP 0
      ALLTAKES 0
      FADEIN 0 0 0 0 0 0 0
      FADEOUT 0 0 0 0 0 0 0
      MUTE 0 0
      SEL 0
      IGUID {C70DA148-5614-4668-B327-0B4A649232A9}
      <SOURCE MIDI
        HASDATA 1 480 QN
        CCINTERP 32
        E 0 c2 26
        E 11888 b2 0b 7f
        E 0 92 34 7f
        E 352 82 34 00
        E 0 b2 0b 7f
        E 0 92 37 7f
        E 1200 82 37 00
        E 1680 b2 0b 7f
        E 0 92 40 7f
        E 96 82 40 00
        E 0 b2 0b 7f
        E 0 92 41 7f
        E 80 82 41 00
        E 0 b2 0b 7f
        E 0 92 42 7f
        E 96 82 42 00
        E 0 b2 0b 7f
        E 0 92 43 7f
        E 96 82 43 00
        E 0 b2 0b 7f
        E 0 92 44 7f
        E 80 82 44 00
        E 0 b2 0b 7f
        E 0 92 45 7f
        E 96 82 45 00
        E 0 b2 0b 7f
        E 0 92 46 7f
        E 80 82 46 00
        E 0 b2 0b 7f
        E 0 92 47 7f
        E 96 82 47 00
        E 0 b2 0b 7f
        E 0 92 48 7f
        E 96 82 48 00
        E 0 b2 0b 7f
        E 0 92 47 7f
        E 80 82 47 00
        E 0 b2 0b 7f
        E 0 92 46 7f
        E 96 82 46 00
        E 0 b2 0b 7f
        E 0 92 45 7f
        E 96 82 45 00
        E 0 b2 0b 7f
        E 0 92 44 7f
        E 80 82 44 00
        E 0 b2 0b 7f
        E 0 92 43 7f
        E 96 82 43 00
        E 0 b2 0b 7f
        E 0 92 42 7f
        E 80 82 42 00
        E 0 b2 0b 7f
        E 0 92 41 7f
        E 96 82 41 00
        E 0 b2 0b 7f
        E 0 92 3b 7f
        E 128 82 3b 00
        E 0 b2 0b 7f
        E 0 92 3f 7f
        E 112 82 3f 00
        E 0 b2 0b 7f
        E 0 92 42 7f
        E 128 82 42 00
        E 0 b2 0b 7f
        E 0 92 45 7f
        E 720 82 45 00
        E 0 b2 0b 7f
        E 0 92 42 7f
        E 112 82 42 00
        E 0 b2 0b 7f
        E 0 92 41 7f
        E 128 82 41 00
        E 0 b2 0b 7f
        E 0 92 40 7f
        E 112 82 40 00
        E 0 b2 0b 7f
        E 0 92 3f 7f
        E 240 82 3f 00
        E 0 b2 0b 7f
        E 0 92 3c 7f
        E 240 82 3c 00
        E 0 b2 0b 7f
        E 0 92 3b 7f
        E 240 82 3b 00
        E 0 b2 0b 7f
        E 0 92 36 7f
        E 832 82 36 00
        E 256 b2 0b 7f
        E 0 92 39 7f
        E 256 82 39 00
        E 0 b2 0b 7f
        E 0 92 3c 7f
        E 96 82 3c 00
        E 0 b2 0b 7f
        E 0 92 3f 7f
        E 368 82 3f 00
        E 0 b2 0b 7f
        E 0 92 43 7f
        E 352 82 43 00
        E 0 b2 0b 7f
        E 0 92 42 7f
        E 272 82 42 00
        E 0 b2 0b 7f
        E 0 92 40 7f
        E 96 82 40 00
        E 0 b2 0b 7f
        E 0 92 3b 7f
        E 832 82 3b 00
        E 256 b2 7b 00
        E 0 ff 2f 00
      >
    >
  >
  <TRACK {1F3EE52E-0AAB-453E-B230-35B618C8EFC2}
    NAME "NES - Noise / Drums [ch3]"
    PEAKCOL 11184810
    BEAT -1
    AUTOMODE 0
    PANLAWFLAGS 3
    VOLPAN 1 0 -1 -1 1
    MUTESOLO 0 0 0
    IPHASE 0
    PLAYOFFS 0 1
    ISBUS 0 0
    BUSCOMP 0 0 0 0 0
    SHOWINMIX 1 0.6667 0.5 1 0.5 0 0 0
    FIXEDLANES 9 0 0 0 0
    SEL 0
    REC 0 5088 1 0 0 0 0 0
    VU 2
    TRACKHEIGHT 0 0 0 0 0 0 0
    INQ 0 0 0 0.5 100 0 0 100
    NCHAN 2
    FX 1
    TRACKID {1F3EE52E-0AAB-453E-B230-35B618C8EFC2}
    PERF 0
    MIDIOUT -1
    MAINSEND 1 0
    <FXCHAIN
      WNDRECT 24 52 700 560
      SHOW 0
      LASTSEL 0
      DOCKED 0
      BYPASS 0 0 0
      <JS "ReapNES Studio/ReapNES_Console.jsfx" ""
        2 15 1 10 80 10 100 2 1 15 1 5 60 10 80 1 1 0 50 0 0 15 1 0 100 0 0 0.500000 0.500000 0.400000 0.300000 0.800000 3 1 0 0 0 0 - - - - - - - - - - - - - - - - - - - - - - - - - -
      >
      FLOATPOS 0 0 0 0
      FXID {22DD0EDD-4F90-4EA3-A6A9-96DEA1B5785D}
      WAK 0 0
    >
    <ITEM
      POSITION 0
      LENGTH 21.710731600000003
      LOOP 0
      ALLTAKES 0
      FADEIN 0 0 0 0 0 0 0
      FADEOUT 0 0 0 0 0 0 0
      MUTE 0 0
      SEL 0
      IGUID {DF352376-7166-4C60-BB78-51FC4060F374}
      <SOURCE MIDI
        HASDATA 1 480 QN
        CCINTERP 32
        E 0 93 2a 3b
        E 48 83 2a 00
        E 320 93 2a 3b
        E 48 83 2a 00
        E 64 93 2a 3b
        E 48 83 2a 00
        E 80 93 2a 3b
        E 48 83 2a 00
        E 64 93 2a 3b
        E 48 83 2a 00
        E 320 93 2a 3b
        E 48 83 2a 00
        E 64 93 2a 3b
        E 48 83 2a 00
        E 80 93 2a 3b
        E 48 83 2a 00
        E 64 93 2a 3b
        E 48 83 2a 00
        E 320 93 2a 3b
        E 48 83 2a 00
        E 64 93 2a 3b
        E 48 83 2a 00
        E 80 93 2a 3b
        E 48 83 2a 00
        E 64 93 2a 3b
        E 48 83 2a 00
        E 320 93 2a 3b
        E 48 83 2a 00
        E 64 93 2a 3b
        E 48 83 2a 00
        E 80 93 2a 3b
        E 48 83 2a 00
        E 64 93 2a 3b
        E 48 83 2a 00
        E 320 93 2a 3b
        E 48 83 2a 00
        E 64 93 2a 3b
        E 48 83 2a 00
        E 80 93 2a 3b
        E 48 83 2a 00
        E 64 93 2a 3b
        E 48 83 2a 00
        E 320 93 2a 3b
        E 48 83 2a 00
        E 64 93 2a 3b
        E 48 83 2a 00
        E 80 93 2a 3b
        E 48 83 2a 00
        E 64 93 2a 3b
        E 48 83 2a 00
        E 320 93 2a 3b
        E 48 83 2a 00
        E 64 93 2a 3b
        E 48 83 2a 00
        E 80 93 2a 3b
        E 48 83 2a 00
        E 64 93 2a 3b
        E 48 83 2a 00
        E 320 93 2a 3b
        E 48 83 2a 00
        E 64 93 2a 3b
        E 48 83 2a 00
        E 80 93 2a 3b
        E 48 83 2a 00
        E 64 93 2a 3b
        E 48 83 2a 00
        E 320 93 2a 3b
        E 48 83 2a 00
        E 64 93 2a 3b
        E 48 83 2a 00
        E 80 93 2a 3b
        E 48 83 2a 00
        E 64 93 2a 3b
        E 48 83 2a 00
        E 320 93 2a 3b
        E 48 83 2a 00
        E 64 93 2a 3b
        E 48 83 2a 00
        E 80 93 2a 3b
        E 48 83 2a 00
        E 64 93 2a 3b
        E 48 83 2a 00
        E 320 93 2a 3b
        E 48 83 2a 00
        E 64 93 2a 3b
        E 48 83 2a 00
        E 80 93 2a 3b
        E 48 83 2a 00
        E 64 93 2a 3b
        E 48 83 2a 00
        E 320 93 2a 3b
        E 48 83 2a 00
        E 64 93 2a 3b
        E 48 83 2a 00
        E 80 93 2a 3b
        E 48 83 2a 00
        E 64 93 2a 3b
        E 48 83 2a 00
        E 320 93 2a 3b
        E 48 83 2a 00
        E 64 93 2a 3b
        E 48 83 2a 00
        E 80 93 2a 3b
        E 48 83 2a 00
        E 64 93 2a 3b
        E 48 83 2a 00
        E 80 93 2a 3b
        E 48 83 2a 00
        E 64 93 2a 3b
        E 48 83 2a 00
        E 80 93 2a 3b
        E 48 83 2a 00
        E 64 93 2a 3b
        E 48 83 2a 00
        E 80 93 2a 3b
        E 48 83 2a 00
        E 64 93 2a 3b
        E 48 83 2a 00
        E 80 93 2a 3b
        E 48 83 2a 00
        E 64 93 2a 3b
        E 48 83 2a 00
        E 80 93 2a 3b
        E 48 83 2a 00
        E 64 93 2a 3b
        E 48 83 2a 00
        E 80 93 2a 3b
        E 48 83 2a 00
        E 64 93 2a 4c
        E 176 83 2a 00
        E 64 93 2a 3b
        E 48 83 2a 00
        E 80 93 2a 3b
        E 48 83 2a 00
        E 64 93 2a 3b
        E 48 83 2a 00
        E 80 93 2a 3b
        E 48 83 2a 00
        E 64 93 2a 3b
        E 48 83 2a 00
        E 192 93 2a 3b
        E 48 83 2a 00
        E 80 93 2a 3b
        E 48 83 2a 00
        E 64 93 2a 3b
        E 48 83 2a 00
        E 80 93 2a 3b
        E 48 83 2a 00
        E 64 93 2a 3b
        E 48 83 2a 00
        E 192 93 2a 3b
        E 48 83 2a 00
        E 80 93 2a 3b
        E 48 83 2a 00
        E 64 93 2a 3b
        E 48 83 2a 00
        E 80 93 2a 3b
        E 48 83 2a 00
        E 64 93 2a 3b
        E 48 83 2a 00
        E 192 93 2a 3b
        E 48 83 2a 00
        E 80 93 2a 3b
        E 48 83 2a 00
        E 64 93 2a 3b
        E 48 83 2a 00
        E 80 93 2a 3b
        E 48 83 2a 00
        E 64 93 2a 4c
        E 176 83 2a 00
        E 64 93 2a 3b
        E 48 83 2a 00
        E 80 93 2a 3b
        E 48 83 2a 00
        E 192 93 2a 3b
        E 48 83 2a 00
        E 64 93 2a 3b
        E 48 83 2a 00
        E 192 93 2a 3b
        E 48 83 2a 00
        E 80 93 2a 3b
        E 48 83 2a 00
        E 192 93 2a 3b
        E 48 83 2a 00
        E 64 93 2a 4c
        E 176 83 2a 00
        E 64 93 2a 3b
        E 48 83 2a 00
        E 80 93 2a 3b
        E 48 83 2a 00
        E 192 93 2a 3b
        E 48 83 2a 00
        E 64 93 2a 3b
        E 48 83 2a 00
        E 192 93 2a 3b
        E 48 83 2a 00
        E 192 93 2a 3b
        E 48 83 2a 00
        E 192 93 2a 3b
        E 48 83 2a 00
        E 192 93 2a 3b
        E 48 83 2a 00
        E 80 93 2a 3b
        E 48 83 2a 00
        E 64 93 2a 3b
        E 48 83 2a 00
        E 80 93 2a 3b
        E 48 83 2a 00
        E 64 93 2a 3b
        E 48 83 2a 00
        E 192 93 2a 3b
        E 48 83 2a 00
        E 80 93 2a 3b
        E 48 83 2a 00
        E 64 93 2a 3b
        E 48 83 2a 00
        E 80 93 2a 3b
        E 48 83 2a 00
        E 64 93 2a 3b
        E 48 83 2a 00
        E 80 93 2a 3b
        E 48 83 2a 00
        E 64 93 2a 3b
        E 48 83 2a 00
        E 192 93 2a 3b
        E 48 83 2a 00
        E 192 93 2a 3b
        E 48 83 2a 00
        E 192 93 2a 3b
        E 48 83 2a 00
        E 80 93 2a 3b
        E 48 83 2a 00
        E 64 93 2a 3b
        E 48 83 2a 00
        E 80 93 2a 3b
        E 48 83 2a 00
        E 64 93 2a 3b
        E 48 83 2a 00
        E 192 93 2a 3b
        E 48 83 2a 00
        E 80 93 2a 3b
        E 48 83 2a 00
        E 192 93 2a 3b
        E 48 83 2a 00
        E 64 93 2a 3b
        E 48 83 2a 00
        E 192 93 2a 3b
        E 48 83 2a 00
        E 192 93 2a 3b
        E 48 83 2a 00
        E 192 93 2a 4c
        E 128 83 2a 00
        E 0 93 2a 3b
        E 48 83 2a 00
        E 64 93 2a 3b
        E 48 83 2a 00
        E 80 93 2a 3b
        E 48 83 2a 00
        E 64 93 2a 3b
        E 48 83 2a 00
        E 80 93 2a 3b
        E 48 83 2a 00
        E 64 93 2a 3b
        E 48 83 2a 00
        E 192 93 2a 3b
        E 48 83 2a 00
        E 80 93 2a 3b
        E 48 83 2a 00
        E 192 93 2a 3b
        E 48 83 2a 00
        E 80 b3 7b 00
        E 0 ff 2f 00
      >
    >
  >
>