<REAPER_PROJECT 0.1 "7.27/win64" 1707000000
  <NOTES 0 2
    |ReapNES Studio Project
    |MIDI Import - Adventures_of_Lolo_2_title_rom_v1
  >
  RIPPLE 0
  GROUPOVERRIDE 0 0 0
  AUTOXFADE 129
  ENVATTACH 3
  POOLEDENVATTACH 0
  MIXERUIFLAGS 11 48
  ENVFADESZ10 40
  PEAKGAIN 1
  FEEDBACK 0
  PANLAW 1
  PROJOFFS 0 0 0
  MAXPROJLEN 0 0
  GRID 3199 8 1 8 1 0 0 0
  TIMEMODE 1 5 -1 30 0 0 -1
  VIDEO_CONFIG 0 0 65792
  PANMODE 3
  PANLAWFLAGS 3
  CURSOR 0
  ZOOM 100 0 0
  VZOOMEX 6 0
  USE_REC_CFG 0
  RECMODE 1
  SMPTESYNC 0 30 100 40 1000 300 0 0 1 0 0
  LOOP 0
  LOOPGRAN 0 4
  RECORD_PATH "Media" ""
  <RECORD_CFG
    ZXZhdxgAAQ==
  >
  <APPLYFX_CFG
  >
  RENDER_FILE ""
  RENDER_PATTERN ""
  RENDER_FMT 0 2 0
  RENDER_1X 0
  RENDER_RANGE 1 0 0 18 1000
  RENDER_RESAMPLE 3 0 1
  RENDER_ADDTOPROJ 0
  RENDER_STEMS 0
  RENDER_DITHER 0
  TIMELOCKMODE 1
  TEMPOENVLOCKMODE 1
  ITEMMIX 1
  DEFPITCHMODE 589824 0
  TAKELANE 1
  SAMPLERATE 44100 0 0
  <RENDER_CFG
    ZXZhdxgAAQ==
  >
  LOCK 1
  <METRONOME 6 2
    VOL 0.25 0.125
    BEATLEN 4
    FREQ 1760 880 1
    SAMPLES "" ""
    SPLIGNORE 0 0
    SPLDEF 2 660 "" 0
    SPLDEF 3 440 "" 0
    PATTERN 0 169
    PATTERNSTR ABBB
    MULT 1
  >
  GLOBAL_AUTO -1
  TEMPO 128.59999614200012 4 4
  PLAYRATE 1 0 0.25 4
  SELECTION 0 0
  SELECTION2 0 0
  MASTERAUTOMODE 0
  MASTERTRACKHEIGHT 0 0
  MASTERPEAKCOL 16576
  MASTERMUTESOLO 0
  MASTERTRACKVIEW 0 0.6667 0.5 0.5 0 0 0 0 0 0 0 0 0 0
  MASTERHWOUT 0 0 1 0 0 0 0 -1
  MASTER_NCH 2 2
  MASTER_VOLUME 1 0 -1 -1 1
  MASTER_PANMODE 3
  MASTER_PANLAWFLAGS 3
  MASTER_FX 1
  MASTER_SEL 0
  <MASTERPLAYSPEEDENV
    EGUID {DF0DF25A-3159-40B8-AFD5-EAA40DC81026}
    ACT 0 -1
    VIS 0 1 1
    LANEHEIGHT 0 0
    ARM 0
    DEFSHAPE 0 -1 -1
  >
  <TEMPOENVEX
    EGUID {FD93D165-4B5B-42D3-AFD6-CF53FECEA4DA}
    ACT 1 -1
    VIS 1 0 1
    LANEHEIGHT 0 0
    ARM 0
    DEFSHAPE 1 -1 -1
  >
  <PROJBAY
  >
  <TRACK {F939ECE3-FD88-49CB-AB60-94A74AEB4AA7}
    NAME "NES - Pulse 1 [ch0]"
    PEAKCOL 16576606
    BEAT -1
    AUTOMODE 0
    PANLAWFLAGS 3
    VOLPAN 1 0 -1 -1 1
    MUTESOLO 0 0 0
    IPHASE 0
    PLAYOFFS 0 1
    ISBUS 0 0
    BUSCOMP 0 0 0 0 0
    SHOWINMIX 1 0.6667 0.5 1 0.5 0 0 0
    FIXEDLANES 9 0 0 0 0
    SEL 1
    REC 1 5088 1 0 0 0 0 0
    VU 2
    TRACKHEIGHT 0 0 0 0 0 0 0
    INQ 0 0 0 0.5 100 0 0 100
    NCHAN 2
    FX 1
    TRACKID {F939ECE3-FD88-49CB-AB60-94A74AEB4AA7}
    PERF 0
    MIDIOUT -1
    MAINSEND 1 0
    <FXCHAIN
      WNDRECT 24 52 700 560
      SHOW 0
      LASTSEL 0
      DOCKED 0
      BYPASS 0 0 0
      <JS "ReapNES Studio/ReapNES_Console.jsfx" ""
        2 15 1 10 80 10 100 2 1 15 1 5 60 10 80 1 1 0 50 0 0 15 1 0 100 0 0 0.500000 0.500000 0.400000 0.300000 0.800000 0 1 0 0 0 0 - - - - - - - - - - - - - - - - - - - - - - - - - -
      >
      FLOATPOS 0 0 0 0
      FXID {5A45F705-113B-4422-AA84-518985C9B371}
      WAK 0 0
    >
    <ITEM
      POSITION 0
      LENGTH 4.7278384
      LOOP 0
      ALLTAKES 0
      FADEIN 0 0 0 0 0 0 0
      FADEOUT 0 0 0 0 0 0 0
      MUTE 0 0
      SEL 0
      IGUID {BDF3EB69-DE4B-498E-B53B-43B0F4261D8F}
      <SOURCE MIDI
        HASDATA 1 480 QN
        CCINTERP 32
        E 0 c0 50
        E 64 b0 0c 40
        E 0 b0 0b 7f
        E 0 90 1a 7f
        E 32 80 1a 00
        E 0 90 1f 7f
        E 16 80 1f 00
        E 0 90 1e 7f
        E 32 80 1e 00
        E 0 90 22 7f
        E 16 80 22 00
        E 0 90 21 7f
        E 32 80 21 00
        E 0 90 27 7f
        E 16 80 27 00
        E 0 90 1a 7f
        E 32 80 1a 00
        E 0 90 1f 7f
        E 16 80 1f 00
        E 0 90 1e 7f
        E 32 80 1e 00
        E 0 90 22 7f
        E 16 80 22 00
        E 0 90 21 7f
        E 32 80 21 00
        E 0 90 27 7f
        E 16 80 27 00
        E 0 90 1a 7f
        E 32 80 1a 00
        E 0 90 1f 7f
        E 16 80 1f 00
        E 0 90 1e 7f
        E 32 80 1e 00
        E 0 90 22 7f
        E 16 80 22 00
        E 0 90 21 7f
        E 32 80 21 00
        E 0 90 27 7f
        E 16 80 27 00
        E 0 90 1a 7f
        E 32 80 1a 00
        E 0 90 1f 7f
        E 16 80 1f 00
        E 0 90 1e 7f
        E 32 80 1e 00
        E 0 90 22 7f
        E 16 80 22 00
        E 0 90 21 7f
        E 32 80 21 00
        E 0 90 27 7f
        E 16 80 27 00
        E 0 90 16 7f
        E 32 80 16 00
        E 0 90 15 7f
        E 32 80 15 00
        E 0 90 1b 7f
        E 16 80 1b 00
        E 0 90 1a 7f
        E 16 80 1a 00
        E 0 90 1f 7f
        E 16 80 1f 00
        E 0 90 1e 7f
        E 16 80 1e 00
        E 0 90 16 7f
        E 32 80 16 00
        E 0 90 15 7f
        E 32 80 15 00
        E 0 90 1b 7f
        E 16 80 1b 00
        E 0 90 1a 7f
        E 16 80 1a 00
        E 0 90 1f 7f
        E 16 80 1f 00
        E 0 90 1e 7f
        E 16 b0 0b 77
        E 0 80 1e 00
        E 0 90 16 77
        E 32 80 16 00
        E 0 90 15 77
        E 32 80 15 00
        E 0 90 1b 77
        E 16 80 1b 00
        E 0 90 1a 77
        E 16 80 1a 00
        E 0 90 1f 77
        E 16 80 1f 00
        E 0 90 1e 77
        E 16 80 1e 00
        E 0 90 16 77
        E 32 80 16 00
        E 0 90 15 77
        E 32 80 15 00
        E 0 90 1b 77
        E 16 80 1b 00
        E 0 90 1a 77
        E 16 80 1a 00
        E 0 90 1f 77
        E 16 80 1f 00
        E 0 90 1e 77
        E 16 b0 0b 6e
        E 0 80 1e 00
        E 0 90 16 6e
        E 32 80 16 00
        E 0 90 15 6e
        E 32 80 15 00
        E 0 90 1b 6e
        E 16 80 1b 00
        E 0 90 1a 6e
        E 16 80 1a 00
        E 0 90 1f 6e
        E 16 80 1f 00
        E 0 90 1e 6e
        E 16 80 1e 00
        E 0 90 16 6e
        E 32 80 16 00
        E 0 90 15 6e
        E 32 80 15 00
        E 0 90 1b 6e
        E 16 80 1b 00
        E 0 90 1a 6e
        E 16 80 1a 00
        E 0 90 1f 6e
        E 16 80 1f 00
        E 0 90 1e 6e
        E 16 b0 0b 66
        E 0 80 1e 00
        E 0 90 16 66
        E 32 80 16 00
        E 0 90 15 66
        E 32 80 15 00
        E 0 90 1b 66
        E 16 80 1b 00
        E 0 90 1a 66
        E 16 80 1a 00
        E 0 90 1f 66
        E 16 80 1f 00
        E 0 90 1e 66
        E 16 80 1e 00
        E 0 90 16 66
        E 32 80 16 00
        E 0 90 15 66
        E 32 80 15 00
        E 0 90 1b 66
        E 16 80 1b 00
        E 0 90 1a 66
        E 16 80 1a 00
        E 0 90 1f 66
        E 16 80 1f 00
        E 0 90 1e 66
        E 16 b0 0b 5d
        E 0 80 1e 00
        E 0 90 16 5d
        E 32 80 16 00
        E 0 90 15 5d
        E 32 80 15 00
        E 0 90 1b 5d
        E 16 80 1b 00
        E 0 90 1a 5d
        E 16 80 1a 00
        E 0 90 1f 5d
        E 16 80 1f 00
        E 0 90 1e 5d
        E 16 80 1e 00
        E 0 90 16 5d
        E 32 80 16 00
        E 0 90 15 5d
        E 32 80 15 00
        E 0 90 1b 5d
        E 16 80 1b 00
        E 0 90 1a 5d
        E 16 80 1a 00
        E 0 90 1f 5d
        E 16 80 1f 00
        E 0 90 1e 5d
        E 16 b0 0b 55
        E 0 80 1e 00
        E 0 90 16 55
        E 32 80 16 00
        E 0 90 15 55
        E 32 80 15 00
        E 0 90 1b 55
        E 16 80 1b 00
        E 0 90 1a 55
        E 16 80 1a 00
        E 0 90 1f 55
        E 16 80 1f 00
        E 0 90 1e 55
        E 16 80 1e 00
        E 0 90 16 55
        E 32 80 16 00
        E 0 90 15 55
        E 32 80 15 00
        E 0 90 1b 55
        E 16 80 1b 00
        E 0 90 1a 55
        E 16 80 1a 00
        E 0 90 1f 55
        E 16 80 1f 00
        E 0 90 1e 55
        E 16 b0 0b 4c
        E 0 80 1e 00
        E 0 90 16 4c
        E 32 80 16 00
        E 0 90 15 4c
        E 32 80 15 00
        E 0 90 1b 4c
        E 16 80 1b 00
        E 0 90 1a 4c
        E 16 80 1a 00
        E 0 90 1f 4c
        E 16 80 1f 00
        E 0 90 1e 4c
        E 16 80 1e 00
        E 0 90 16 4c
        E 32 80 16 00
        E 0 90 15 4c
        E 32 80 15 00
        E 0 90 1b 4c
        E 16 80 1b 00
        E 0 90 1a 4c
        E 16 80 1a 00
        E 0 90 1f 4c
        E 16 80 1f 00
        E 0 90 1e 4c
        E 16 b0 0b 7f
        E 0 80 1e 00
        E 0 90 1f 7f
        E 32 80 1f 00
        E 0 90 24 7f
        E 16 80 24 00
        E 0 90 23 7f
        E 32 80 23 00
        E 0 90 27 7f
        E 16 80 27 00
        E 0 90 26 7f
        E 32 80 26 00
        E 0 90 2c 7f
        E 16 80 2c 00
        E 0 90 1f 7f
        E 32 80 1f 00
        E 0 90 24 7f
        E 16 80 24 00
        E 0 90 23 7f
        E 32 80 23 00
        E 0 90 27 7f
        E 16 80 27 00
        E 0 90 26 7f
        E 32 80 26 00
        E 0 90 2c 7f
        E 16 80 2c 00
        E 0 90 1f 7f
        E 32 80 1f 00
        E 0 90 24 7f
        E 16 80 24 00
        E 0 90 23 7f
        E 32 80 23 00
        E 0 90 27 7f
        E 16 80 27 00
        E 0 90 26 7f
        E 32 80 26 00
        E 0 90 2c 7f
        E 16 80 2c 00
        E 0 90 1f 7f
        E 32 80 1f 00
        E 0 90 24 7f
        E 16 80 24 00
        E 0 90 23 7f
        E 32 80 23 00
        E 0 90 27 7f
        E 16 80 27 00
        E 0 90 26 7f
        E 32 80 26 00
        E 0 90 2c 7f
        E 16 80 2c 00
        E 0 90 1b 7f
        E 32 80 1b 00
        E 0 90 1a 7f
        E 32 80 1a 00
        E 0 90 20 7f
        E 16 80 20 00
        E 0 90 1f 7f
        E 16 80 1f 00
        E 0 90 24 7f
        E 16 80 24 00
        E 0 90 23 7f
        E 16 80 23 00
        E 0 90 1b 7f
        E 32 80 1b 00
        E 0 90 1a 7f
        E 32 80 1a 00
        E 0 90 20 7f
        E 16 80 20 00
        E 0 90 1f 7f
        E 16 80 1f 00
        E 0 90 24 7f
        E 16 80 24 00
        E 0 90 23 7f
        E 16 b0 0b 6e
        E 0 80 23 00
        E 0 90 1b 6e
        E 32 80 1b 00
        E 0 90 1a 6e
        E 32 80 1a 00
        E 0 90 20 6e
        E 16 80 20 00
        E 0 90 1f 6e
        E 16 80 1f 00
        E 0 90 24 6e
        E 16 80 24 00
        E 0 90 23 6e
        E 16 80 23 00
        E 0 90 1b 6e
        E 32 80 1b 00
        E 0 90 1a 6e
        E 32 80 1a 00
        E 0 90 20 6e
        E 16 80 20 00
        E 0 90 1f 6e
        E 16 80 1f 00
        E 0 90 24 6e
        E 16 80 24 00
        E 0 90 23 6e
        E 16 b0 0b 5d
        E 0 80 23 00
        E 0 90 1b 5d
        E 32 80 1b 00
        E 608 b0 0b 7f
        E 0 90 1a 7f
        E 32 80 1a 00
        E 0 90 1f 7f
        E 16 80 1f 00
        E 0 90 1e 7f
        E 32 80 1e 00
        E 0 90 22 7f
        E 16 80 22 00
        E 0 90 21 7f
        E 32 80 21 00
        E 0 90 27 7f
        E 16 80 27 00
        E 0 90 1a 7f
        E 32 80 1a 00
        E 0 90 1f 7f
        E 16 80 1f 00
        E 0 90 1e 7f
        E 32 80 1e 00
        E 0 90 22 7f
        E 16 80 22 00
        E 0 90 21 7f
        E 32 80 21 00
        E 0 90 27 7f
        E 16 80 27 00
        E 0 90 1a 7f
        E 32 80 1a 00
        E 0 90 1f 7f
        E 16 80 1f 00
        E 0 90 1e 7f
        E 32 80 1e 00
        E 0 90 22 7f
        E 16 80 22 00
        E 0 90 21 7f
        E 32 80 21 00
        E 0 90 27 7f
        E 16 80 27 00
        E 0 90 1a 7f
        E 32 80 1a 00
        E 0 90 1f 7f
        E 16 80 1f 00
        E 0 90 1e 7f
        E 32 80 1e 00
        E 0 90 22 7f
        E 16 80 22 00
        E 0 90 21 7f
        E 32 80 21 00
        E 0 90 27 7f
        E 16 80 27 00
        E 0 90 16 7f
        E 32 80 16 00
        E 0 90 15 7f
        E 32 80 15 00
        E 0 90 1b 7f
        E 16 80 1b 00
        E 0 90 1a 7f
        E 16 80 1a 00
        E 0 90 1f 7f
        E 16 80 1f 00
        E 0 90 1e 7f
        E 16 80 1e 00
        E 0 b0 7b 00
        E 0 ff 2f 00
      >
    >
  >
  <TRACK {61457252-793E-47CF-BF44-9BB36A204DE4}
    NAME "NES - Pulse 2 [ch1]"
    PEAKCOL 10092441
    BEAT -1
    AUTOMODE 0
    PANLAWFLAGS 3
    VOLPAN 1 0 -1 -1 1
    MUTESOLO 0 0 0
    IPHASE 0
    PLAYOFFS 0 1
    ISBUS 0 0
    BUSCOMP 0 0 0 0 0
    SHOWINMIX 1 0.6667 0.5 1 0.5 0 0 0
    FIXEDLANES 9 0 0 0 0
    SEL 0
    REC 0 5088 1 0 0 0 0 0
    VU 2
    TRACKHEIGHT 0 0 0 0 0 0 0
    INQ 0 0 0 0.5 100 0 0 100
    NCHAN 2
    FX 1
    TRACKID {61457252-793E-47CF-BF44-9BB36A204DE4}
    PERF 0
    MIDIOUT -1
    MAINSEND 1 0
    <FXCHAIN
      WNDRECT 24 52 700 560
      SHOW 0
      LASTSEL 0
      DOCKED 0
      BYPASS 0 0 0
      <JS "ReapNES Studio/ReapNES_Console.jsfx" ""
        2 15 1 10 80 10 100 2 1 15 1 5 60 10 80 1 1 0 50 0 0 15 1 0 100 0 0 0.500000 0.500000 0.400000 0.300000 0.800000 1 1 0 0 0 0 - - - - - - - - - - - - - - - - - - - - - - - - - -
      >
      FLOATPOS 0 0 0 0
      FXID {C353E1EA-66DF-4131-A252-A153FA4F81BC}
      WAK 0 0
    >
    <ITEM
      POSITION 0
      LENGTH 4.7278384
      LOOP 0
      ALLTAKES 0
      FADEIN 0 0 0 0 0 0 0
      FADEOUT 0 0 0 0 0 0 0
      MUTE 0 0
      SEL 0
      IGUID {42F79DC6-FABF-4406-B592-3AA73B98748D}
      <SOURCE MIDI
        HASDATA 1 480 QN
        CCINTERP 32
        E 0 c1 51
        E 0 b1 0c 40
        E 0 b1 0b 7f
        E 0 91 1a 7f
        E 32 81 1a 00
        E 0 91 1f 7f
        E 16 81 1f 00
        E 0 91 1e 7f
        E 32 81 1e 00
        E 0 91 22 7f
        E 16 81 22 00
        E 0 91 21 7f
        E 32 81 21 00
        E 0 91 27 7f
        E 16 81 27 00
        E 0 91 1a 7f
        E 32 81 1a 00
        E 0 91 1f 7f
        E 16 81 1f 00
        E 0 91 1e 7f
        E 32 81 1e 00
        E 0 91 22 7f
        E 16 81 22 00
        E 0 91 21 7f
        E 32 81 21 00
        E 0 91 27 7f
        E 16 81 27 00
        E 0 91 1a 7f
        E 32 81 1a 00
        E 0 91 1f 7f
        E 16 81 1f 00
        E 0 91 1e 7f
        E 32 81 1e 00
        E 0 91 22 7f
        E 16 81 22 00
        E 0 91 21 7f
        E 32 81 21 00
        E 0 91 27 7f
        E 16 81 27 00
        E 0 91 1a 7f
        E 32 81 1a 00
        E 0 91 1f 7f
        E 16 81 1f 00
        E 0 91 1e 7f
        E 32 81 1e 00
        E 0 91 22 7f
        E 16 81 22 00
        E 0 91 21 7f
        E 32 81 21 00
        E 0 91 27 7f
        E 16 81 27 00
        E 0 91 16 7f
        E 32 81 16 00
        E 0 91 15 7f
        E 32 81 15 00
        E 0 91 1b 7f
        E 16 81 1b 00
        E 0 91 1a 7f
        E 16 81 1a 00
        E 0 91 1f 7f
        E 16 81 1f 00
        E 0 91 1e 7f
        E 16 81 1e 00
        E 0 91 16 7f
        E 32 81 16 00
        E 0 91 15 7f
        E 32 81 15 00
        E 0 91 1b 7f
        E 16 81 1b 00
        E 0 91 1a 7f
        E 16 81 1a 00
        E 0 91 1f 7f
        E 16 81 1f 00
        E 0 91 1e 7f
        E 16 b1 0b 77
        E 0 81 1e 00
        E 0 91 16 77
        E 32 81 16 00
        E 0 91 15 77
        E 32 81 15 00
        E 0 91 1b 77
        E 16 81 1b 00
        E 0 91 1a 77
        E 16 81 1a 00
        E 0 91 1f 77
        E 16 81 1f 00
        E 0 91 1e 77
        E 16 81 1e 00
        E 0 91 16 77
        E 32 81 16 00
        E 0 91 15 77
        E 32 81 15 00
        E 0 91 1b 77
        E 16 81 1b 00
        E 0 91 1a 77
        E 16 81 1a 00
        E 0 91 1f 77
        E 16 81 1f 00
        E 0 91 1e 77
        E 16 b1 0b 6e
        E 0 81 1e 00
        E 0 91 16 6e
        E 32 81 16 00
        E 0 91 15 6e
        E 32 81 15 00
        E 0 91 1b 6e
        E 16 81 1b 00
        E 0 91 1a 6e
        E 16 81 1a 00
        E 0 91 1f 6e
        E 16 81 1f 00
        E 0 91 1e 6e
        E 16 81 1e 00
        E 0 91 16 6e
        E 32 81 16 00
        E 0 91 15 6e
        E 32 81 15 00
        E 0 91 1b 6e
        E 16 81 1b 00
        E 0 91 1a 6e
        E 16 81 1a 00
        E 0 91 1f 6e
        E 16 81 1f 00
        E 0 91 1e 6e
        E 16 b1 0b 66
        E 0 81 1e 00
        E 0 91 16 66
        E 32 81 16 00
        E 0 91 15 66
        E 32 81 15 00
        E 0 91 1b 66
        E 16 81 1b 00
        E 0 91 1a 66
        E 16 81 1a 00
        E 0 91 1f 66
        E 16 81 1f 00
        E 0 91 1e 66
        E 16 81 1e 00
        E 0 91 16 66
        E 32 81 16 00
        E 0 91 15 66
        E 32 81 15 00
        E 0 91 1b 66
        E 16 81 1b 00
        E 0 91 1a 66
        E 16 81 1a 00
        E 0 91 1f 66
        E 16 81 1f 00
        E 0 91 1e 66
        E 16 b1 0b 5d
        E 0 81 1e 00
        E 0 91 16 5d
        E 32 81 16 00
        E 0 91 15 5d
        E 32 81 15 00
        E 0 91 1b 5d
        E 16 81 1b 00
        E 0 91 1a 5d
        E 16 81 1a 00
        E 0 91 1f 5d
        E 16 81 1f 00
        E 0 91 1e 5d
        E 16 81 1e 00
        E 0 91 16 5d
        E 32 81 16 00
        E 0 91 15 5d
        E 32 81 15 00
        E 0 91 1b 5d
        E 16 81 1b 00
        E 0 91 1a 5d
        E 16 81 1a 00
        E 0 91 1f 5d
        E 16 81 1f 00
        E 0 91 1e 5d
        E 16 b1 0b 55
        E 0 81 1e 00
        E 0 91 16 55
        E 32 81 16 00
        E 0 91 15 55
        E 32 81 15 00
        E 0 91 1b 55
        E 16 81 1b 00
        E 0 91 1a 55
        E 16 81 1a 00
        E 0 91 1f 55
        E 16 81 1f 00
        E 0 91 1e 55
        E 16 81 1e 00
        E 0 91 16 55
        E 32 81 16 00
        E 0 91 15 55
        E 32 81 15 00
        E 0 91 1b 55
        E 16 81 1b 00
        E 0 91 1a 55
        E 16 81 1a 00
        E 0 91 1f 55
        E 16 81 1f 00
        E 0 91 1e 55
        E 16 b1 0b 4c
        E 0 81 1e 00
        E 0 91 16 4c
        E 32 81 16 00
        E 0 91 15 4c
        E 32 81 15 00
        E 0 91 1b 4c
        E 16 81 1b 00
        E 0 91 1a 4c
        E 16 81 1a 00
        E 0 91 1f 4c
        E 16 81 1f 00
        E 0 91 1e 4c
        E 16 81 1e 00
        E 0 91 16 4c
        E 32 81 16 00
        E 0 91 15 4c
        E 32 81 15 00
        E 0 91 1b 4c
        E 16 81 1b 00
        E 0 91 1a 4c
        E 16 81 1a 00
        E 0 91 1f 4c
        E 16 81 1f 00
        E 0 91 1e 4c
        E 16 b1 0b 7f
        E 0 81 1e 00
        E 0 91 1f 7f
        E 32 81 1f 00
        E 0 91 24 7f
        E 16 81 24 00
        E 0 91 23 7f
        E 32 81 23 00
        E 0 91 27 7f
        E 16 81 27 00
        E 0 91 26 7f
        E 32 81 26 00
        E 0 91 2c 7f
        E 16 81 2c 00
        E 0 91 1f 7f
        E 32 81 1f 00
        E 0 91 24 7f
        E 16 81 24 00
        E 0 91 23 7f
        E 32 81 23 00
        E 0 91 27 7f
        E 16 81 27 00
        E 0 91 26 7f
        E 32 81 26 00
        E 0 91 2c 7f
        E 16 81 2c 00
        E 0 91 1f 7f
        E 32 81 1f 00
        E 0 91 24 7f
        E 16 81 24 00
        E 0 91 23 7f
        E 32 81 23 00
        E 0 91 27 7f
        E 16 81 27 00
        E 0 91 26 7f
        E 32 81 26 00
        E 0 91 2c 7f
        E 16 81 2c 00
        E 0 91 1f 7f
        E 32 81 1f 00
        E 0 91 24 7f
        E 16 81 24 00
        E 0 91 23 7f
        E 32 81 23 00
        E 0 91 27 7f
        E 16 81 27 00
        E 0 91 26 7f
        E 32 81 26 00
        E 0 91 2c 7f
        E 16 81 2c 00
        E 0 91 1b 7f
        E 32 81 1b 00
        E 0 91 1a 7f
        E 32 81 1a 00
        E 0 91 20 7f
        E 16 81 20 00
        E 0 91 1f 7f
        E 16 81 1f 00
        E 0 91 24 7f
        E 16 81 24 00
        E 0 91 23 7f
        E 16 81 23 00
        E 0 91 1b 7f
        E 32 81 1b 00
        E 0 91 1a 7f
        E 32 81 1a 00
        E 0 91 20 7f
        E 16 81 20 00
        E 0 91 1f 7f
        E 16 81 1f 00
        E 0 91 24 7f
        E 16 81 24 00
        E 0 91 23 7f
        E 16 b1 0b 6e
        E 0 81 23 00
        E 0 91 1b 6e
        E 32 81 1b 00
        E 0 91 1a 6e
        E 32 81 1a 00
        E 0 91 20 6e
        E 16 81 20 00
        E 0 91 1f 6e
        E 16 81 1f 00
        E 0 91 24 6e
        E 16 81 24 00
        E 0 91 23 6e
        E 16 81 23 00
        E 0 91 1b 6e
        E 32 81 1b 00
        E 0 91 1a 6e
        E 32 81 1a 00
        E 0 91 20 6e
        E 16 81 20 00
        E 0 91 1f 6e
        E 16 81 1f 00
        E 0 91 24 6e
        E 16 81 24 00
        E 0 91 23 6e
        E 16 b1 0b 5d
        E 0 81 23 00
        E 0 91 1b 5d
        E 32 81 1b 00
        E 0 91 1a 5d
        E 32 81 1a 00
        E 0 91 20 5d
        E 16 81 20 00
        E 0 91 1f 5d
        E 16 81 1f 00
        E 544 b1 0b 7f
        E 0 91 1a 7f
        E 32 81 1a 00
        E 0 91 1f 7f
        E 16 81 1f 00
        E 0 91 1e 7f
        E 32 81 1e 00
        E 0 91 22 7f
        E 16 81 22 00
        E 0 91 21 7f
        E 32 81 21 00
        E 0 91 27 7f
        E 16 81 27 00
        E 0 91 1a 7f
        E 32 81 1a 00
        E 0 91 1f 7f
        E 16 81 1f 00
        E 0 91 1e 7f
        E 32 81 1e 00
        E 0 91 22 7f
        E 16 81 22 00
        E 0 91 21 7f
        E 32 81 21 00
        E 0 91 27 7f
        E 16 81 27 00
        E 0 91 1a 7f
        E 32 81 1a 00
        E 0 91 1f 7f
        E 16 81 1f 00
        E 0 91 1e 7f
        E 32 81 1e 00
        E 0 91 22 7f
        E 16 81 22 00
        E 0 91 21 7f
        E 32 81 21 00
        E 0 91 27 7f
        E 16 81 27 00
        E 0 91 1a 7f
        E 32 81 1a 00
        E 0 91 1f 7f
        E 16 81 1f 00
        E 0 91 1e 7f
        E 32 81 1e 00
        E 0 91 22 7f
        E 16 81 22 00
        E 0 91 21 7f
        E 32 81 21 00
        E 0 91 27 7f
        E 16 81 27 00
        E 0 91 16 7f
        E 32 81 16 00
        E 0 91 15 7f
        E 32 81 15 00
        E 0 91 1b 7f
        E 16 81 1b 00
        E 0 91 1a 7f
        E 16 81 1a 00
        E 0 91 1f 7f
        E 16 81 1f 00
        E 0 91 1e 7f
        E 16 81 1e 00
        E 0 91 16 7f
        E 32 81 16 00
        E 0 91 15 7f
        E 32 81 15 00
        E 0 b1 7b 00
        E 0 ff 2f 00
      >
    >
  >
  <TRACK {C49868FA-DE3D-437A-962C-7BF21DF46ACB}
    NAME "NES - Triangle [ch2]"
    PEAKCOL 16744192
    BEAT -1
    AUTOMODE 0
    PANLAWFLAGS 3
    VOLPAN 1 0 -1 -1 1
    MUTESOLO 0 0 0
    IPHASE 0
    PLAYOFFS 0 1
    ISBUS 0 0
    BUSCOMP 0 0 0 0 0
    SHOWINMIX 1 0.6667 0.5 1 0.5 0 0 0
    FIXEDLANES 9 0 0 0 0
    SEL 0
    REC 0 5088 1 0 0 0 0 0
    VU 2
    TRACKHEIGHT 0 0 0 0 0 0 0
    INQ 0 0 0 0.5 100 0 0 100
    NCHAN 2
    FX 1
    TRACKID {C49868FA-DE3D-437A-962C-7BF21DF46ACB}
    PERF 0
    MIDIOUT -1
    MAINSEND 1 0
    <FXCHAIN
      WNDRECT 24 52 700 560
      SHOW 0
      LASTSEL 0
      DOCKED 0
      BYPASS 0 0 0
      <JS "ReapNES Studio/ReapNES_Console.jsfx" ""
        2 15 1 10 80 10 100 2 1 15 1 5 60 10 80 1 1 0 50 0 0 15 1 0 100 0 0 0.500000 0.500000 0.400000 0.300000 0.800000 2 1 0 0 0 0 - - - - - - - - - - - - - - - - - - - - - - - - - -
      >
      FLOATPOS 0 0 0 0
      FXID {E3209428-B12A-4BFE-85E2-3256D580C25E}
      WAK 0 0
    >
    <ITEM
      POSITION 0
      LENGTH 4.7278384
      LOOP 0
      ALLTAKES 0
      FADEIN 0 0 0 0 0 0 0
      FADEOUT 0 0 0 0 0 0 0
      MUTE 0 0
      SEL 0
      IGUID {15CE7187-1554-487E-AF38-56E85767A28E}
      <SOURCE MIDI
        HASDATA 1 480 QN
        CCINTERP 32
        E 0 c2 26
        E 128 b2 0b 7f
        E 0 92 1a 7f
        E 32 82 1a 00
        E 0 b2 0b 7f
        E 0 92 1f 7f
        E 16 82 1f 00
        E 0 b2 0b 7f
        E 0 92 1e 7f
        E 32 82 1e 00
        E 0 b2 0b 7f
        E 0 92 22 7f
        E 16 82 22 00
        E 0 b2 0b 7f
        E 0 92 21 7f
        E 32 82 21 00
        E 0 b2 0b 7f
        E 0 92 27 7f
        E 16 82 27 00
        E 0 b2 0b 7f
        E 0 92 1a 7f
        E 32 82 1a 00
        E 0 b2 0b 7f
        E 0 92 1f 7f
        E 16 82 1f 00
        E 0 b2 0b 7f
        E 0 92 1e 7f
        E 32 82 1e 00
        E 0 b2 0b 7f
        E 0 92 22 7f
        E 16 82 22 00
        E 0 b2 0b 7f
        E 0 92 21 7f
        E 32 82 21 00
        E 0 b2 0b 7f
        E 0 92 27 7f
        E 16 82 27 00
        E 0 b2 0b 7f
        E 0 92 1a 7f
        E 32 82 1a 00
        E 0 b2 0b 7f
        E 0 92 1f 7f
        E 16 82 1f 00
        E 0 b2 0b 7f
        E 0 92 1e 7f
        E 32 82 1e 00
        E 0 b2 0b 7f
        E 0 92 22 7f
        E 16 82 22 00
        E 0 b2 0b 7f
        E 0 92 21 7f
        E 32 82 21 00
        E 0 b2 0b 7f
        E 0 92 27 7f
        E 16 82 27 00
        E 0 b2 0b 7f
        E 0 92 1a 7f
        E 32 82 1a 00
        E 0 b2 0b 7f
        E 0 92 1f 7f
        E 16 82 1f 00
        E 0 b2 0b 7f
        E 0 92 1e 7f
        E 32 82 1e 00
        E 0 b2 0b 7f
        E 0 92 22 7f
        E 16 82 22 00
        E 0 b2 0b 7f
        E 0 92 21 7f
        E 32 82 21 00
        E 0 b2 0b 7f
        E 0 92 27 7f
        E 16 82 27 00
        E 0 b2 0b 7f
        E 0 92 16 7f
        E 32 82 16 00
        E 0 b2 0b 7f
        E 0 92 15 7f
        E 32 82 15 00
        E 0 b2 0b 7f
        E 0 92 1b 7f
        E 16 82 1b 00
        E 0 b2 0b 7f
        E 0 92 1a 7f
        E 16 82 1a 00
        E 0 b2 0b 7f
        E 0 92 1f 7f
        E 16 82 1f 00
        E 0 b2 0b 7f
        E 0 92 1e 7f
        E 16 82 1e 00
        E 0 b2 0b 7f
        E 0 92 16 7f
        E 32 82 16 00
        E 0 b2 0b 7f
        E 0 92 15 7f
        E 32 82 15 00
        E 0 b2 0b 7f
        E 0 92 1b 7f
        E 16 82 1b 00
        E 0 b2 0b 7f
        E 0 92 1a 7f
        E 16 82 1a 00
        E 0 b2 0b 7f
        E 0 92 1f 7f
        E 16 82 1f 00
        E 0 b2 0b 7f
        E 0 92 1e 7f
        E 16 82 1e 00
        E 0 b2 0b 7f
        E 0 92 16 7f
        E 32 82 16 00
        E 0 b2 0b 7f
        E 0 92 15 7f
        E 32 82 15 00
        E 0 b2 0b 7f
        E 0 92 1b 7f
        E 16 82 1b 00
        E 0 b2 0b 7f
        E 0 92 1a 7f
        E 16 82 1a 00
        E 0 b2 0b 7f
        E 0 92 1f 7f
        E 16 82 1f 00
        E 0 b2 0b 7f
        E 0 92 1e 7f
        E 16 82 1e 00
        E 0 b2 0b 7f
        E 0 92 16 7f
        E 32 82 16 00
        E 0 b2 0b 7f
        E 0 92 15 7f
        E 32 82 15 00
        E 0 b2 0b 7f
        E 0 92 1b 7f
        E 16 82 1b 00
        E 0 b2 0b 7f
        E 0 92 1a 7f
        E 16 82 1a 00
        E 0 b2 0b 7f
        E 0 92 1f 7f
        E 16 82 1f 00
        E 0 b2 0b 7f
        E 0 92 1e 7f
        E 16 82 1e 00
        E 0 b2 0b 7f
        E 0 92 16 7f
        E 32 82 16 00
        E 0 b2 0b 7f
        E 0 92 15 7f
        E 32 82 15 00
        E 0 b2 0b 7f
        E 0 92 1b 7f
        E 16 82 1b 00
        E 0 b2 0b 7f
        E 0 92 1a 7f
        E 16 82 1a 00
        E 0 b2 0b 7f
        E 0 92 1f 7f
        E 16 82 1f 00
        E 0 b2 0b 7f
        E 0 92 1e 7f
        E 16 82 1e 00
        E 0 b2 0b 7f
        E 0 92 16 7f
        E 32 82 16 00
        E 0 b2 0b 7f
        E 0 92 15 7f
        E 32 82 15 00
        E 0 b2 0b 7f
        E 0 92 1b 7f
        E 16 82 1b 00
        E 0 b2 0b 7f
        E 0 92 1a 7f
        E 16 82 1a 00
        E 0 b2 0b 7f
        E 0 92 1f 7f
        E 16 82 1f 00
        E 0 b2 0b 7f
        E 0 92 1e 7f
        E 16 82 1e 00
        E 0 b2 0b 7f
        E 0 92 16 7f
        E 32 82 16 00
        E 0 b2 0b 7f
        E 0 92 15 7f
        E 32 82 15 00
        E 0 b2 0b 7f
        E 0 92 1b 7f
        E 16 82 1b 00
        E 0 b2 0b 7f
        E 0 92 1a 7f
        E 16 82 1a 00
        E 0 b2 0b 7f
        E 0 92 1f 7f
        E 16 82 1f 00
        E 0 b2 0b 7f
        E 0 92 1e 7f
        E 16 82 1e 00
        E 0 b2 0b 7f
        E 0 92 16 7f
        E 32 82 16 00
        E 0 b2 0b 7f
        E 0 92 15 7f
        E 32 82 15 00
        E 0 b2 0b 7f
        E 0 92 1b 7f
        E 16 82 1b 00
        E 0 b2 0b 7f
        E 0 92 1a 7f
        E 16 82 1a 00
        E 0 b2 0b 7f
        E 0 92 1f 7f
        E 16 82 1f 00
        E 0 b2 0b 7f
        E 0 92 1e 7f
        E 16 82 1e 00
        E 0 b2 0b 7f
        E 0 92 16 7f
        E 32 82 16 00
        E 0 b2 0b 7f
        E 0 92 15 7f
        E 32 82 15 00
        E 0 b2 0b 7f
        E 0 92 1b 7f
        E 16 82 1b 00
        E 0 b2 0b 7f
        E 0 92 1a 7f
        E 16 82 1a 00
        E 0 b2 0b 7f
        E 0 92 1f 7f
        E 16 82 1f 00
        E 0 b2 0b 7f
        E 0 92 1e 7f
        E 16 82 1e 00
        E 0 b2 0b 7f
        E 0 92 16 7f
        E 32 82 16 00
        E 0 b2 0b 7f
        E 0 92 15 7f
        E 32 82 15 00
        E 0 b2 0b 7f
        E 0 92 1b 7f
        E 16 82 1b 00
        E 0 b2 0b 7f
        E 0 92 1a 7f
        E 16 82 1a 00
        E 0 b2 0b 7f
        E 0 92 1f 7f
        E 16 82 1f 00
        E 0 b2 0b 7f
        E 0 92 1e 7f
        E 16 82 1e 00
        E 0 b2 0b 7f
        E 0 92 16 7f
        E 32 82 16 00
        E 0 b2 0b 7f
        E 0 92 15 7f
        E 32 82 15 00
        E 0 b2 0b 7f
        E 0 92 1b 7f
        E 16 82 1b 00
        E 0 b2 0b 7f
        E 0 92 1a 7f
        E 16 82 1a 00
        E 0 b2 0b 7f
        E 0 92 1f 7f
        E 16 82 1f 00
        E 0 b2 0b 7f
        E 0 92 1e 7f
        E 16 82 1e 00
        E 0 b2 0b 7f
        E 0 92 16 7f
        E 32 82 16 00
        E 0 b2 0b 7f
        E 0 92 15 7f
        E 32 82 15 00
        E 0 b2 0b 7f
        E 0 92 1b 7f
        E 16 82 1b 00
        E 0 b2 0b 7f
        E 0 92 1a 7f
        E 16 82 1a 00
        E 0 b2 0b 7f
        E 0 92 1f 7f
        E 16 82 1f 00
        E 0 b2 0b 7f
        E 0 92 1e 7f
        E 16 82 1e 00
        E 0 b2 0b 7f
        E 0 92 16 7f
        E 32 82 16 00
        E 0 b2 0b 7f
        E 0 92 15 7f
        E 32 82 15 00
        E 0 b2 0b 7f
        E 0 92 1b 7f
        E 16 82 1b 00
        E 0 b2 0b 7f
        E 0 92 1a 7f
        E 16 82 1a 00
        E 0 b2 0b 7f
        E 0 92 1f 7f
        E 16 82 1f 00
        E 0 b2 0b 7f
        E 0 92 1e 7f
        E 16 82 1e 00
        E 0 b2 0b 7f
        E 0 92 16 7f
        E 32 82 16 00
        E 0 b2 0b 7f
        E 0 92 15 7f
        E 32 82 15 00
        E 0 b2 0b 7f
        E 0 92 1b 7f
        E 16 82 1b 00
        E 0 b2 0b 7f
        E 0 92 1a 7f
        E 16 82 1a 00
        E 0 b2 0b 7f
        E 0 92 1f 7f
        E 16 82 1f 00
        E 0 b2 0b 7f
        E 0 92 1e 7f
        E 16 82 1e 00
        E 0 b2 0b 7f
        E 0 92 13 7f
        E 32 82 13 00
        E 0 b2 0b 7f
        E 0 92 18 7f
        E 16 82 18 00
        E 0 b2 0b 7f
        E 0 92 17 7f
        E 32 82 17 00
        E 0 b2 0b 7f
        E 0 92 1b 7f
        E 16 82 1b 00
        E 0 b2 0b 7f
        E 0 92 1a 7f
        E 32 82 1a 00
        E 0 b2 0b 7f
        E 0 92 20 7f
        E 16 82 20 00
        E 0 b2 0b 7f
        E 0 92 13 7f
        E 32 82 13 00
        E 0 b2 0b 7f
        E 0 92 18 7f
        E 16 82 18 00
        E 0 b2 0b 7f
        E 0 92 17 7f
        E 32 82 17 00
        E 0 b2 0b 7f
        E 0 92 1b 7f
        E 16 82 1b 00
        E 0 b2 0b 7f
        E 0 92 1a 7f
        E 32 82 1a 00
        E 0 b2 0b 7f
        E 0 92 20 7f
        E 16 82 20 00
        E 0 b2 0b 7f
        E 0 92 13 7f
        E 32 82 13 00
        E 0 b2 0b 7f
        E 0 92 18 7f
        E 16 82 18 00
        E 0 b2 0b 7f
        E 0 92 17 7f
        E 32 82 17 00
        E 0 b2 0b 7f
        E 0 92 1b 7f
        E 16 82 1b 00
        E 0 b2 0b 7f
        E 0 92 1a 7f
        E 32 82 1a 00
        E 0 b2 0b 7f
        E 0 92 20 7f
        E 16 82 20 00
        E 0 b2 0b 7f
        E 0 92 13 7f
        E 32 82 13 00
        E 0 b2 0b 7f
        E 0 92 18 7f
        E 16 82 18 00
        E 0 b2 0b 7f
        E 0 92 17 7f
        E 32 82 17 00
        E 0 b2 0b 7f
        E 0 92 1b 7f
        E 16 82 1b 00
        E 0 b2 0b 7f
        E 0 92 1a 7f
        E 32 82 1a 00
        E 0 b2 0b 7f
        E 0 92 20 7f
        E 16 82 20 00
        E 0 b2 0b 7f
        E 0 92 0f 7f
        E 32 82 0f 00
        E 0 b2 0b 7f
        E 0 92 0e 7f
        E 32 82 0e 00
        E 0 b2 0b 7f
        E 0 92 14 7f
        E 16 82 14 00
        E 0 b2 0b 7f
        E 0 92 13 7f
        E 16 82 13 00
        E 0 b2 0b 7f
        E 0 92 18 7f
        E 16 82 18 00
        E 0 b2 0b 7f
        E 0 92 17 7f
        E 16 82 17 00
        E 0 b2 0b 7f
        E 0 92 0f 7f
        E 32 82 0f 00
        E 0 b2 0b 7f
        E 0 92 0e 7f
        E 32 82 0e 00
        E 0 b2 0b 7f
        E 0 92 14 7f
        E 16 82 14 00
        E 0 b2 0b 7f
        E 0 92 13 7f
        E 16 82 13 00
        E 0 b2 0b 7f
        E 0 92 18 7f
        E 16 82 18 00
        E 0 b2 0b 7f
        E 0 92 17 7f
        E 16 82 17 00
        E 0 b2 0b 7f
        E 0 92 0f 7f
        E 32 82 0f 00
        E 0 b2 0b 7f
        E 0 92 0e 7f
        E 32 82 0e 00
        E 0 b2 0b 7f
        E 0 92 14 7f
        E 16 82 14 00
        E 0 b2 0b 7f
        E 0 92 13 7f
        E 16 82 13 00
        E 0 b2 0b 7f
        E 0 92 18 7f
        E 16 82 18 00
        E 0 b2 0b 7f
        E 0 92 17 7f
        E 16 82 17 00
        E 0 b2 0b 7f
        E 0 92 0f 7f
        E 32 82 0f 00
        E 0 b2 0b 7f
        E 0 92 0e 7f
        E 32 82 0e 00
        E 0 b2 0b 7f
        E 0 92 14 7f
        E 16 82 14 00
        E 0 b2 0b 7f
        E 0 92 13 7f
        E 16 82 13 00
        E 672 b2 0b 7f
        E 0 92 1a 7f
        E 32 82 1a 00
        E 0 b2 0b 7f
        E 0 92 1f 7f
        E 16 82 1f 00
        E 0 b2 0b 7f
        E 0 92 1e 7f
        E 32 82 1e 00
        E 0 b2 0b 7f
        E 0 92 22 7f
        E 16 82 22 00
        E 0 b2 0b 7f
        E 0 92 21 7f
        E 32 82 21 00
        E 0 b2 0b 7f
        E 0 92 27 7f
        E 16 82 27 00
        E 0 b2 0b 7f
        E 0 92 1a 7f
        E 32 82 1a 00
        E 0 b2 0b 7f
        E 0 92 1f 7f
        E 16 82 1f 00
        E 0 b2 0b 7f
        E 0 92 1e 7f
        E 32 82 1e 00
        E 0 b2 0b 7f
        E 0 92 22 7f
        E 16 82 22 00
        E 0 b2 0b 7f
        E 0 92 21 7f
        E 32 82 21 00
        E 0 b2 0b 7f
        E 0 92 27 7f
        E 16 82 27 00
        E 0 b2 0b 7f
        E 0 92 1a 7f
        E 32 82 1a 00
        E 0 b2 0b 7f
        E 0 92 1f 7f
        E 16 82 1f 00
        E 0 b2 0b 7f
        E 0 92 1e 7f
        E 32 82 1e 00
        E 0 b2 0b 7f
        E 0 92 22 7f
        E 16 82 22 00
        E 0 b2 0b 7f
        E 0 92 21 7f
        E 32 82 21 00
        E 0 b2 0b 7f
        E 0 92 27 7f
        E 16 82 27 00
        E 0 b2 0b 7f
        E 0 92 1a 7f
        E 32 82 1a 00
        E 0 b2 0b 7f
        E 0 92 1f 7f
        E 16 82 1f 00
        E 0 b2 0b 7f
        E 0 92 1e 7f
        E 32 82 1e 00
        E 0 b2 0b 7f
        E 0 92 22 7f
        E 16 82 22 00
        E 0 b2 0b 7f
        E 0 92 21 7f
        E 32 82 21 00
        E 0 b2 0b 7f
        E 0 92 27 7f
        E 16 82 27 00
        E 0 b2 0b 7f
        E 0 92 16 7f
        E 32 82 16 00
        E 0 b2 0b 7f
        E 0 92 15 7f
        E 32 82 15 00
        E 0 b2 7b 00
        E 0 ff 2f 00
      >
    >
  >
  <TRACK {BC30AC1A-8626-44DD-8177-63C33A6DA9F0}
    NAME "NES - Noise / Drums [ch3]"
    PEAKCOL 11184810
    BEAT -1
    AUTOMODE 0
    PANLAWFLAGS 3
    VOLPAN 1 0 -1 -1 1
    MUTESOLO 0 0 0
    IPHASE 0
    PLAYOFFS 0 1
    ISBUS 0 0
    BUSCOMP 0 0 0 0 0
    SHOWINMIX 1 0.6667 0.5 1 0.5 0 0 0
    FIXEDLANES 9 0 0 0 0
    SEL 0
    REC 0 5088 1 0 0 0 0 0
    VU 2
    TRACKHEIGHT 0 0 0 0 0 0 0
    INQ 0 0 0 0.5 100 0 0 100
    NCHAN 2
    FX 1
    TRACKID {BC30AC1A-8626-44DD-8177-63C33A6DA9F0}
    PERF 0
    MIDIOUT -1
    MAINSEND 1 0
    <FXCHAIN
      WNDRECT 24 52 700 560
      SHOW 0
      LASTSEL 0
      DOCKED 0
      BYPASS 0 0 0
      <JS "ReapNES Studio/ReapNES_Console.jsfx" ""
        2 15 1 10 80 10 100 2 1 15 1 5 60 10 80 1 1 0 50 0 0 15 1 0 100 0 0 0.500000 0.500000 0.400000 0.300000 0.800000 3 1 0 0 0 0 - - - - - - - - - - - - - - - - - - - - - - - - - -
      >
      FLOATPOS 0 0 0 0
      FXID {D372AC38-F065-4D91-9C95-659A64FA7612}
      WAK 0 0
    >
    <ITEM
      POSITION 0
      LENGTH 4.7278384
      LOOP 0
      ALLTAKES 0
      FADEIN 0 0 0 0 0 0 0
      FADEOUT 0 0 0 0 0 0 0
      MUTE 0 0
      SEL 0
      IGUID {3FEDC3AB-D1A5-4225-B956-BD444301A2D9}
      <SOURCE MIDI
        HASDATA 1 480 QN
        CCINTERP 32
        E 0 93 2a 7f
        E 32 83 2a 00
        E 0 93 2a 7f
        E 48 83 2a 00
        E 0 93 2a 7f
        E 48 83 2a 00
        E 0 93 2a 7f
        E 48 83 2a 00
        E 0 93 2a 7f
        E 32 83 2a 00
        E 0 93 2a 7f
        E 48 83 2a 00
        E 0 93 2a 7f
        E 48 83 2a 00
        E 0 93 2a 7f
        E 32 83 2a 00
        E 0 93 2a 7f
        E 32 83 2a 00
        E 0 93 2a 7f
        E 32 83 2a 00
        E 0 93 2a 7f
        E 32 83 2a 00
        E 0 93 2a 7f
        E 32 83 2a 00
        E 0 93 2a 7f
        E 32 83 2a 00
        E 0 93 2a 7f
        E 32 83 2a 00
        E 0 93 2a 7f
        E 32 83 2a 00
        E 0 93 2a 7f
        E 32 83 2a 00
        E 0 93 2a 7f
        E 32 83 2a 00
        E 0 93 2a 7f
        E 32 83 2a 00
        E 0 93 2a 7f
        E 32 83 2a 00
        E 0 93 2a 7f
        E 32 83 2a 00
        E 0 93 2a 7f
        E 32 83 2a 00
        E 0 93 2a 7f
        E 32 83 2a 00
        E 0 93 2a 7f
        E 32 83 2a 00
        E 0 93 2a 7f
        E 32 83 2a 00
        E 0 93 2a 7f
        E 32 83 2a 00
        E 0 93 2a 7f
        E 32 83 2a 00
        E 0 93 2a 7f
        E 32 83 2a 00
        E 0 93 2a 7f
        E 32 83 2a 00
        E 0 93 2a 7f
        E 32 83 2a 00
        E 0 93 2a 7f
        E 32 83 2a 00
        E 0 93 2a 7f
        E 32 83 2a 00
        E 0 93 2a 7f
        E 32 83 2a 00
        E 0 93 2a 7f
        E 32 83 2a 00
        E 0 93 2a 7f
        E 32 83 2a 00
        E 0 93 2a 7f
        E 32 83 2a 00
        E 0 93 2a 7f
        E 32 83 2a 00
        E 0 93 2a 7f
        E 32 83 2a 00
        E 0 93 2a 7f
        E 32 83 2a 00
        E 0 93 2a 7f
        E 32 83 2a 00
        E 0 93 2a 7f
        E 32 83 2a 00
        E 0 93 2a 7f
        E 32 83 2a 00
        E 0 93 2a 7f
        E 32 83 2a 00
        E 0 93 2a 7f
        E 32 83 2a 00
        E 0 93 2a 7f
        E 64 83 2a 00
        E 0 93 2a 77
        E 32 83 2a 00
        E 0 93 2a 77
        E 32 83 2a 00
        E 0 93 2a 77
        E 32 83 2a 00
        E 0 93 2a 77
        E 32 83 2a 00
        E 0 93 2a 77
        E 32 83 2a 00
        E 0 93 2a 55
        E 32 83 2a 00
        E 0 93 2a 55
        E 32 83 2a 00
        E 0 93 2a 55
        E 32 83 2a 00
        E 0 93 2a 55
        E 32 83 2a 00
        E 0 93 2a 55
        E 32 83 2a 00
        E 0 93 2a 55
        E 32 83 2a 00
        E 0 93 2a 33
        E 32 83 2a 00
        E 0 93 2a 33
        E 32 83 2a 00
        E 0 93 2a 33
        E 32 83 2a 00
        E 0 93 2a 33
        E 32 83 2a 00
        E 0 93 2a 33
        E 32 83 2a 00
        E 0 93 2a 33
        E 32 83 2a 00
        E 0 93 2a 11
        E 32 83 2a 00
        E 0 93 2a 11
        E 32 83 2a 00
        E 0 93 2a 11
        E 32 83 2a 00
        E 0 93 2a 11
        E 32 83 2a 00
        E 0 93 2a 11
        E 32 83 2a 00
        E 0 93 2a 11
        E 32 83 2a 00
        E 0 93 2a 77
        E 32 83 2a 00
        E 0 93 2a 77
        E 32 83 2a 00
        E 0 93 2a 77
        E 32 83 2a 00
        E 0 93 2a 77
        E 32 83 2a 00
        E 0 93 2a 77
        E 32 83 2a 00
        E 0 93 2a 77
        E 32 83 2a 00
        E 0 93 2a 6e
        E 32 83 2a 00
        E 0 93 2a 6e
        E 32 83 2a 00
        E 0 93 2a 6e
        E 32 83 2a 00
        E 0 93 2a 6e
        E 32 83 2a 00
        E 0 93 2a 6e
        E 32 83 2a 00
        E 0 93 2a 6e
        E 32 83 2a 00
        E 0 93 2a 66
        E 32 83 2a 00
        E 0 93 2a 66
        E 32 83 2a 00
        E 0 93 2a 66
        E 32 83 2a 00
        E 0 93 2a 66
        E 32 83 2a 00
        E 0 93 2a 66
        E 32 83 2a 00
        E 0 93 2a 66
        E 32 83 2a 00
        E 0 93 2a 5d
        E 32 83 2a 00
        E 0 93 2a 5d
        E 32 83 2a 00
        E 0 93 2a 5d
        E 32 83 2a 00
        E 0 93 2a 5d
        E 32 83 2a 00
        E 0 93 2a 5d
        E 32 83 2a 00
        E 0 93 2a 5d
        E 32 83 2a 00
        E 0 93 2a 55
        E 32 83 2a 00
        E 0 93 2a 55
        E 32 83 2a 00
        E 0 93 2a 55
        E 32 83 2a 00
        E 0 93 2a 55
        E 32 83 2a 00
        E 0 93 2a 55
        E 32 83 2a 00
        E 0 93 2a 55
        E 32 83 2a 00
        E 0 93 2a 4c
        E 32 83 2a 00
        E 0 93 2a 4c
        E 32 83 2a 00
        E 0 93 2a 4c
        E 32 83 2a 00
        E 0 93 2a 4c
        E 32 83 2a 00
        E 0 93 2a 4c
        E 32 83 2a 00
        E 0 93 2a 4c
        E 32 83 2a 00
        E 0 93 2a 44
        E 32 83 2a 00
        E 0 93 2a 44
        E 32 83 2a 00
        E 0 93 2a 44
        E 32 83 2a 00
        E 0 93 2a 44
        E 32 83 2a 00
        E 0 93 2a 44
        E 16 83 2a 00
        E 0 93 2a 7f
        E 16 83 2a 00
        E 0 93 2a 7f
        E 16 83 2a 00
        E 0 93 2a 7f
        E 64 83 2a 00
        E 0 93 2a 7f
        E 32 83 2a 00
        E 0 93 2a 7f
        E 32 83 2a 00
        E 0 93 2a 7f
        E 32 83 2a 00
        E 16 93 2a 7f
        E 64 83 2a 00
        E 16 93 2a 7f
        E 64 83 2a 00
        E 0 93 2a 7f
        E 32 83 2a 00
        E 0 93 2a 7f
        E 32 83 2a 00
        E 0 93 2a 7f
        E 32 83 2a 00
        E 0 93 2a 7f
        E 32 83 2a 00
        E 0 93 2a 7f
        E 32 83 2a 00
        E 0 93 2a 7f
        E 32 83 2a 00
        E 0 93 2a 7f
        E 32 83 2a 00
        E 0 93 2a 7f
        E 48 83 2a 00
        E 0 93 2a 7f
        E 48 83 2a 00
        E 0 93 2a 7f
        E 48 83 2a 00
        E 0 93 2a 7f
        E 32 83 2a 00
        E 0 93 2a 7f
        E 48 83 2a 00
        E 0 93 2a 7f
        E 48 83 2a 00
        E 0 93 2a 7f
        E 32 83 2a 00
        E 0 93 2a 7f
        E 32 83 2a 00
        E 0 93 2a 7f
        E 32 83 2a 00
        E 0 93 2a 7f
        E 32 83 2a 00
        E 0 93 2a 7f
        E 32 83 2a 00
        E 0 93 2a 7f
        E 32 83 2a 00
        E 0 93 2a 7f
        E 32 83 2a 00
        E 0 93 2a 7f
        E 32 83 2a 00
        E 0 93 2a 7f
        E 32 83 2a 00
        E 0 93 2a 7f
        E 32 83 2a 00
        E 0 93 2a 7f
        E 32 83 2a 00
        E 0 93 2a 7f
        E 32 83 2a 00
        E 0 93 2a 7f
        E 32 83 2a 00
        E 0 93 2a 7f
        E 32 83 2a 00
        E 0 93 2a 7f
        E 16 83 2a 00
        E 0 b3 7b 00
        E 0 ff 2f 00
      >
    >
  >
>