<REAPER_PROJECT 0.1 "7.27/win64" 1707000000
  <NOTES 0 2
    |ReapNES Studio Project
    |MIDI Import - Guardian_Legend_title_rom_v1
  >
  RIPPLE 0
  GROUPOVERRIDE 0 0 0
  AUTOXFADE 129
  ENVATTACH 3
  POOLEDENVATTACH 0
  MIXERUIFLAGS 11 48
  ENVFADESZ10 40
  PEAKGAIN 1
  FEEDBACK 0
  PANLAW 1
  PROJOFFS 0 0 0
  MAXPROJLEN 0 0
  GRID 3199 8 1 8 1 0 0 0
  TIMEMODE 1 5 -1 30 0 0 -1
  VIDEO_CONFIG 0 0 65792
  PANMODE 3
  PANLAWFLAGS 3
  CURSOR 0
  ZOOM 100 0 0
  VZOOMEX 6 0
  USE_REC_CFG 0
  RECMODE 1
  SMPTESYNC 0 30 100 40 1000 300 0 0 1 0 0
  LOOP 0
  LOOPGRAN 0 4
  RECORD_PATH "Media" ""
  <RECORD_CFG
    ZXZhdxgAAQ==
  >
  <APPLYFX_CFG
  >
  RENDER_FILE ""
  RENDER_PATTERN ""
  RENDER_FMT 0 2 0
  RENDER_1X 0
  RENDER_RANGE 1 0 0 18 1000
  RENDER_RESAMPLE 3 0 1
  RENDER_ADDTOPROJ 0
  RENDER_STEMS 0
  RENDER_DITHER 0
  TIMELOCKMODE 1
  TEMPOENVLOCKMODE 1
  ITEMMIX 1
  DEFPITCHMODE 589824 0
  TAKELANE 1
  SAMPLERATE 44100 0 0
  <RENDER_CFG
    ZXZhdxgAAQ==
  >
  LOCK 1
  <METRONOME 6 2
    VOL 0.25 0.125
    BEATLEN 4
    FREQ 1760 880 1
    SAMPLES "" ""
    SPLIGNORE 0 0
    SPLDEF 2 660 "" 0
    SPLDEF 3 440 "" 0
    PATTERN 0 169
    PATTERNSTR ABBB
    MULT 1
  >
  GLOBAL_AUTO -1
  TEMPO 128.59999614200012 4 4
  PLAYRATE 1 0 0.25 4
  SELECTION 0 0
  SELECTION2 0 0
  MASTERAUTOMODE 0
  MASTERTRACKHEIGHT 0 0
  MASTERPEAKCOL 16576
  MASTERMUTESOLO 0
  MASTERTRACKVIEW 0 0.6667 0.5 0.5 0 0 0 0 0 0 0 0 0 0
  MASTERHWOUT 0 0 1 0 0 0 0 -1
  MASTER_NCH 2 2
  MASTER_VOLUME 1 0 -1 -1 1
  MASTER_PANMODE 3
  MASTER_PANLAWFLAGS 3
  MASTER_FX 1
  MASTER_SEL 0
  <MASTERPLAYSPEEDENV
    EGUID {99174EDB-9B46-4049-BCAE-34918B8BFF1F}
    ACT 0 -1
    VIS 0 1 1
    LANEHEIGHT 0 0
    ARM 0
    DEFSHAPE 0 -1 -1
  >
  <TEMPOENVEX
    EGUID {5BF6E751-CBCB-42B8-AEBD-D774CD29FA40}
    ACT 1 -1
    VIS 1 0 1
    LANEHEIGHT 0 0
    ARM 0
    DEFSHAPE 1 -1 -1
  >
  <PROJBAY
  >
  <TRACK {76FC52CA-78C2-4D5D-9E89-369525B5E69A}
    NAME "NES - Pulse 1 [ch0]"
    PEAKCOL 16576606
    BEAT -1
    AUTOMODE 0
    PANLAWFLAGS 3
    VOLPAN 1 0 -1 -1 1
    MUTESOLO 0 0 0
    IPHASE 0
    PLAYOFFS 0 1
    ISBUS 0 0
    BUSCOMP 0 0 0 0 0
    SHOWINMIX 1 0.6667 0.5 1 0.5 0 0 0
    FIXEDLANES 9 0 0 0 0
    SEL 1
    REC 1 5088 1 0 0 0 0 0
    VU 2
    TRACKHEIGHT 0 0 0 0 0 0 0
    INQ 0 0 0 0.5 100 0 0 100
    NCHAN 2
    FX 1
    TRACKID {76FC52CA-78C2-4D5D-9E89-369525B5E69A}
    PERF 0
    MIDIOUT -1
    MAINSEND 1 0
    <FXCHAIN
      WNDRECT 24 52 700 560
      SHOW 0
      LASTSEL 0
      DOCKED 0
      BYPASS 0 0 0
      <JS "ReapNES Studio/ReapNES_Console.jsfx" ""
        2 15 1 10 80 10 100 2 1 15 1 5 60 10 80 1 1 0 50 0 0 15 1 0 100 0 0 0.500000 0.500000 0.400000 0.300000 0.800000 0 1 0 0 0 0 - - - - - - - - - - - - - - - - - - - - - - - - - -
      >
      FLOATPOS 0 0 0 0
      FXID {49BE92CE-B2B1-4E40-8688-9E8B44653A83}
      WAK 0 0
    >
    <ITEM
      POSITION 0
      LENGTH 74.4790069
      LOOP 0
      ALLTAKES 0
      FADEIN 0 0 0 0 0 0 0
      FADEOUT 0 0 0 0 0 0 0
      MUTE 0 0
      SEL 0
      IGUID {27AB60E3-1E0C-4DAD-8FF5-49680FD53D53}
      <SOURCE MIDI
        HASDATA 1 480 QN
        CCINTERP 32
        E 0 c0 50
        E 224 b0 0c 40
        E 0 b0 0b 44
        E 0 90 2d 44
        E 16 b0 0b 55
        E 16 b0 0b 66
        E 16 b0 0b 77
        E 16 b0 0b 7f
        E 32 b0 0b 77
        E 16 b0 0b 6e
        E 16 b0 0b 66
        E 16 b0 0b 5d
        E 32 b0 0b 55
        E 48 b0 0b 44
        E 0 80 2d 00
        E 0 90 37 44
        E 16 b0 0b 55
        E 16 b0 0b 66
        E 16 b0 0b 77
        E 16 b0 0b 7f
        E 32 b0 0b 77
        E 16 b0 0b 6e
        E 16 b0 0b 66
        E 16 b0 0b 5d
        E 32 b0 0b 55
        E 48 b0 0b 44
        E 0 80 37 00
        E 0 90 36 44
        E 16 b0 0b 55
        E 16 b0 0b 66
        E 16 b0 0b 77
        E 16 b0 0b 7f
        E 32 b0 0b 77
        E 16 b0 0b 6e
        E 16 b0 0b 66
        E 16 b0 0b 5d
        E 32 b0 0b 55
        E 1152 b0 0b 44
        E 0 80 36 00
        E 0 90 34 44
        E 16 b0 0b 55
        E 16 b0 0b 66
        E 16 b0 0b 77
        E 16 b0 0b 7f
        E 32 b0 0b 77
        E 16 b0 0b 6e
        E 16 b0 0b 66
        E 16 b0 0b 44
        E 0 80 34 00
        E 0 90 37 44
        E 16 b0 0b 55
        E 16 b0 0b 66
        E 16 b0 0b 77
        E 16 b0 0b 7f
        E 32 b0 0b 77
        E 16 b0 0b 6e
        E 16 b0 0b 66
        E 16 b0 0b 44
        E 16 b0 0b 55
        E 16 b0 0b 66
        E 16 b0 0b 77
        E 16 b0 0b 7f
        E 32 b0 0b 77
        E 16 b0 0b 6e
        E 16 b0 0b 66
        E 16 b0 0b 44
        E 16 b0 0b 55
        E 16 b0 0b 66
        E 16 b0 0b 77
        E 16 b0 0b 7f
        E 32 b0 0b 77
        E 16 b0 0b 6e
        E 16 b0 0b 66
        E 16 b0 0b 5d
        E 32 b0 0b 55
        E 272 b0 0b 44
        E 0 80 37 00
        E 0 90 45 44
        E 16 b0 0b 55
        E 16 b0 0b 66
        E 16 b0 0b 77
        E 16 b0 0b 7f
        E 32 b0 0b 77
        E 16 b0 0b 6e
        E 16 b0 0b 66
        E 16 b0 0b 5d
        E 32 b0 0b 55
        E 48 b0 0b 44
        E 0 80 45 00
        E 0 90 2e 44
        E 16 b0 0b 55
        E 16 b0 0b 66
        E 16 b0 0b 77
        E 16 b0 0b 7f
        E 32 b0 0b 77
        E 16 b0 0b 6e
        E 16 b0 0b 66
        E 16 b0 0b 5d
        E 32 b0 0b 55
        E 48 b0 0b 44
        E 0 80 2e 00
        E 0 90 5d 44
        E 16 b0 0b 55
        E 16 b0 0b 66
        E 16 b0 0b 77
        E 16 b0 0b 7f
        E 32 b0 0b 77
        E 16 b0 0b 6e
        E 16 b0 0b 66
        E 16 b0 0b 5d
        E 32 b0 0b 55
        E 48 b0 0b 44
        E 0 80 5d 00
        E 0 90 39 44
        E 16 b0 0b 55
        E 16 b0 0b 66
        E 16 b0 0b 77
        E 16 b0 0b 7f
        E 32 b0 0b 77
        E 16 b0 0b 6e
        E 16 b0 0b 66
        E 16 b0 0b 5d
        E 32 b0 0b 55
        E 32 b0 0b 44
        E 0 80 39 00
        E 0 90 3b 44
        E 16 b0 0b 55
        E 16 b0 0b 66
        E 16 b0 0b 77
        E 16 b0 0b 7f
        E 32 b0 0b 77
        E 16 b0 0b 6e
        E 16 b0 0b 66
        E 16 b0 0b 5d
        E 32 b0 0b 55
        E 496 b0 0b 44
        E 0 80 3b 00
        E 0 90 3c 44
        E 16 b0 0b 55
        E 16 b0 0b 66
        E 16 b0 0b 77
        E 16 b0 0b 7f
        E 32 b0 0b 77
        E 16 b0 0b 6e
        E 16 b0 0b 66
        E 16 b0 0b 5d
        E 32 b0 0b 55
        E 48 b0 0b 44
        E 0 80 3c 00
        E 0 90 39 44
        E 16 b0 0b 55
        E 16 b0 0b 66
        E 16 b0 0b 77
        E 16 b0 0b 7f
        E 32 b0 0b 77
        E 16 b0 0b 6e
        E 16 b0 0b 66
        E 16 b0 0b 5d
        E 32 b0 0b 55
        E 48 b0 0b 44
        E 0 80 39 00
        E 0 90 3b 44
        E 16 b0 0b 55
        E 16 b0 0b 66
        E 16 b0 0b 77
        E 16 b0 0b 7f
        E 32 b0 0b 77
        E 16 b0 0b 6e
        E 16 b0 0b 66
        E 16 b0 0b 5d
        E 32 b0 0b 55
        E 32 b0 0b 44
        E 0 80 3b 00
        E 0 90 3c 44
        E 16 b0 0b 55
        E 16 b0 0b 66
        E 16 b0 0b 77
        E 16 b0 0b 7f
        E 32 b0 0b 77
        E 16 b0 0b 6e
        E 16 b0 0b 66
        E 16 b0 0b 5d
        E 32 b0 0b 55
        E 3232 b0 0b 44
        E 0 80 3c 00
        E 0 90 3e 44
        E 16 b0 0b 55
        E 16 b0 0b 66
        E 16 b0 0b 77
        E 16 b0 0b 7f
        E 32 b0 0b 77
        E 16 b0 0b 6e
        E 16 b0 0b 66
        E 16 b0 0b 5d
        E 32 b0 0b 55
        E 464 b0 0b 44
        E 16 b0 0b 55
        E 16 b0 0b 66
        E 16 b0 0b 77
        E 16 b0 0b 7f
        E 32 b0 0b 44
        E 0 80 3e 00
        E 0 90 3c 44
        E 16 b0 0b 55
        E 16 b0 0b 66
        E 16 b0 0b 77
        E 16 b0 0b 7f
        E 32 b0 0b 77
        E 16 b0 0b 44
        E 0 80 3c 00
        E 0 90 3b 44
        E 16 b0 0b 55
        E 16 b0 0b 66
        E 16 b0 0b 77
        E 16 b0 0b 7f
        E 32 b0 0b 77
        E 16 b0 0b 6e
        E 16 b0 0b 66
        E 16 b0 0b 5d
        E 32 b0 0b 55
        E 256 b0 0b 44
        E 0 80 3b 00
        E 0 90 3c 44
        E 16 b0 0b 55
        E 16 b0 0b 66
        E 16 b0 0b 77
        E 16 b0 0b 7f
        E 32 b0 0b 77
        E 16 b0 0b 6e
        E 16 b0 0b 44
        E 0 80 3c 00
        E 0 90 43 44
        E 16 b0 0b 55
        E 16 b0 0b 66
        E 16 b0 0b 77
        E 16 b0 0b 7f
        E 32 b0 0b 77
        E 16 b0 0b 6e
        E 16 b0 0b 66
        E 16 b0 0b 44
        E 0 80 43 00
        E 0 90 45 44
        E 16 b0 0b 55
        E 16 b0 0b 66
        E 16 b0 0b 77
        E 16 b0 0b 7f
        E 32 b0 0b 77
        E 16 b0 0b 6e
        E 16 b0 0b 66
        E 16 b0 0b 44
        E 0 80 45 00
        E 0 90 47 44
        E 16 b0 0b 55
        E 16 b0 0b 66
        E 16 b0 0b 77
        E 16 b0 0b 7f
        E 32 b0 0b 77
        E 16 b0 0b 6e
        E 16 b0 0b 66
        E 16 b0 0b 5d
        E 32 b0 0b 55
        E 32 80 47 00
        E 112 b0 0b 44
        E 0 90 45 44
        E 16 b0 0b 55
        E 16 b0 0b 66
        E 16 b0 0b 77
        E 16 b0 0b 7f
        E 32 b0 0b 77
        E 16 b0 0b 44
        E 0 80 45 00
        E 0 90 3e 44
        E 16 b0 0b 55
        E 16 b0 0b 66
        E 16 b0 0b 77
        E 16 b0 0b 7f
        E 32 b0 0b 77
        E 16 b0 0b 6e
        E 16 b0 0b 66
        E 16 b0 0b 5d
        E 32 b0 0b 55
        E 1104 b0 0b 44
        E 16 b0 0b 55
        E 16 b0 0b 66
        E 16 b0 0b 77
        E 16 b0 0b 7f
        E 32 b0 0b 77
        E 16 b0 0b 6e
        E 16 b0 0b 66
        E 16 b0 0b 5d
        E 32 b0 0b 55
        E 448 b0 0b 44
        E 0 80 3e 00
        E 0 90 43 44
        E 16 b0 0b 55
        E 16 b0 0b 66
        E 16 b0 0b 77
        E 16 b0 0b 7f
        E 32 b0 0b 77
        E 16 b0 0b 44
        E 0 80 43 00
        E 0 90 41 44
        E 16 b0 0b 55
        E 16 b0 0b 66
        E 16 b0 0b 77
        E 16 b0 0b 7f
        E 32 b0 0b 77
        E 16 b0 0b 44
        E 0 80 41 00
        E 0 90 40 44
        E 16 b0 0b 55
        E 16 b0 0b 66
        E 16 b0 0b 77
        E 16 b0 0b 7f
        E 32 b0 0b 77
        E 16 b0 0b 6e
        E 16 b0 0b 66
        E 16 b0 0b 5d
        E 32 b0 0b 55
        E 240 b0 0b 44
        E 0 80 40 00
        E 0 90 3e 44
        E 16 b0 0b 55
        E 16 b0 0b 66
        E 16 b0 0b 77
        E 16 b0 0b 7f
        E 32 b0 0b 77
        E 16 b0 0b 6e
        E 16 b0 0b 66
        E 16 b0 0b 5d
        E 32 b0 0b 55
        E 256 b0 0b 44
        E 0 80 3e 00
        E 0 90 3c 44
        E 16 b0 0b 55
        E 16 b0 0b 66
        E 16 b0 0b 77
        E 16 b0 0b 7f
        E 32 b0 0b 77
        E 16 b0 0b 6e
        E 16 b0 0b 66
        E 16 b0 0b 5d
        E 32 b0 0b 55
        E 32 80 3c 00
        E 112 b0 0b 44
        E 0 90 3e 44
        E 16 b0 0b 55
        E 16 b0 0b 66
        E 16 b0 0b 77
        E 16 b0 0b 7f
        E 32 b0 0b 44
        E 0 80 3e 00
        E 0 90 45 44
        E 16 b0 0b 55
        E 16 b0 0b 66
        E 16 b0 0b 77
        E 16 b0 0b 7f
        E 32 b0 0b 77
        E 16 b0 0b 6e
        E 16 b0 0b 66
        E 16 b0 0b 5d
        E 32 b0 0b 55
        E 464 b0 0b 44
        E 0 80 45 00
        E 0 90 3e 44
        E 16 b0 0b 55
        E 16 b0 0b 66
        E 16 b0 0b 77
        E 16 b0 0b 7f
        E 32 b0 0b 77
        E 16 b0 0b 6e
        E 16 b0 0b 66
        E 16 b0 0b 5d
        E 32 b0 0b 55
        E 48 b0 0b 44
        E 16 b0 0b 55
        E 16 b0 0b 66
        E 16 b0 0b 77
        E 16 b0 0b 7f
        E 32 b0 0b 77
        E 16 b0 0b 6e
        E 16 b0 0b 66
        E 16 b0 0b 5d
        E 32 b0 0b 55
        E 32 b0 0b 44
        E 16 b0 0b 55
        E 16 b0 0b 66
        E 16 b0 0b 77
        E 16 b0 0b 7f
        E 32 b0 0b 77
        E 16 b0 0b 6e
        E 16 b0 0b 66
        E 16 b0 0b 5d
        E 32 b0 0b 55
        E 32 b0 0b 44
        E 16 b0 0b 55
        E 16 b0 0b 66
        E 16 b0 0b 77
        E 16 b0 0b 7f
        E 32 b0 0b 77
        E 16 b0 0b 6e
        E 16 b0 0b 66
        E 16 b0 0b 5d
        E 32 b0 0b 55
        E 1536 b0 0b 44
        E 0 80 3e 00
        E 0 90 40 44
        E 16 b0 0b 55
        E 16 b0 0b 66
        E 16 b0 0b 77
        E 16 b0 0b 7f
        E 32 b0 0b 77
        E 16 b0 0b 6e
        E 16 b0 0b 66
        E 16 b0 0b 5d
        E 32 b0 0b 55
        E 464 b0 0b 44
        E 0 80 40 00
        E 0 90 3d 44
        E 16 b0 0b 55
        E 16 b0 0b 66
        E 16 b0 0b 77
        E 16 b0 0b 7f
        E 32 b0 0b 44
        E 0 80 3d 00
        E 0 90 3b 44
        E 16 b0 0b 55
        E 16 b0 0b 66
        E 16 b0 0b 77
        E 16 b0 0b 7f
        E 32 b0 0b 77
        E 16 b0 0b 44
        E 0 80 3b 00
        E 0 90 3a 44
        E 16 b0 0b 55
        E 16 b0 0b 66
        E 16 b0 0b 77
        E 16 b0 0b 7f
        E 32 b0 0b 77
        E 16 b0 0b 6e
        E 16 b0 0b 66
        E 16 b0 0b 5d
        E 32 b0 0b 55
        E 240 b0 0b 44
        E 0 80 3a 00
        E 0 90 3d 44
        E 16 b0 0b 55
        E 16 b0 0b 66
        E 16 b0 0b 77
        E 16 b0 0b 7f
        E 32 b0 0b 77
        E 16 80 3d 00
        E 112 b0 0b 44
        E 0 90 42 44
        E 16 b0 0b 55
        E 16 b0 0b 66
        E 16 b0 0b 77
        E 16 b0 0b 7f
        E 32 80 42 00
        E 112 b0 0b 44
        E 0 90 3d 44
        E 16 b0 0b 55
        E 16 b0 0b 66
        E 16 b0 0b 77
        E 16 b0 0b 7f
        E 32 b0 0b 77
        E 16 b0 0b 6e
        E 16 b0 0b 66
        E 16 b0 0b 5d
        E 32 b0 0b 55
        E 32 80 3d 00
        E 112 b0 0b 44
        E 0 90 46 44
        E 16 b0 0b 55
        E 16 b0 0b 66
        E 16 b0 0b 77
        E 16 b0 0b 7f
        E 32 b0 0b 77
        E 16 b0 0b 44
        E 0 80 46 00
        E 0 90 44 44
        E 16 b0 0b 55
        E 16 b0 0b 66
        E 16 b0 0b 77
        E 16 b0 0b 7f
        E 32 b0 0b 77
        E 16 b0 0b 6e
        E 16 b0 0b 66
        E 16 b0 0b 5d
        E 32 b0 0b 55
        E 1088 b0 0b 44
        E 16 b0 0b 55
        E 16 b0 0b 66
        E 16 b0 0b 77
        E 16 b0 0b 7f
        E 32 b0 0b 77
        E 16 b0 0b 6e
        E 16 b0 0b 66
        E 16 b0 0b 5d
        E 32 b0 0b 55
        E 48 80 44 00
        E 96 b0 0b 44
        E 0 90 46 44
        E 16 b0 0b 55
        E 16 b0 0b 66
        E 16 b0 0b 77
        E 16 b0 0b 7f
        E 32 b0 0b 77
        E 16 b0 0b 44
        E 0 80 46 00
        E 0 90 44 44
        E 16 b0 0b 55
        E 16 b0 0b 66
        E 16 b0 0b 77
        E 16 b0 0b 7f
        E 32 b0 0b 77
        E 16 b0 0b 6e
        E 16 b0 0b 66
        E 16 b0 0b 5d
        E 32 b0 0b 55
        E 256 b0 0b 44
        E 16 b0 0b 55
        E 16 b0 0b 66
        E 16 b0 0b 77
        E 16 b0 0b 7f
        E 32 b0 0b 77
        E 16 b0 0b 6e
        E 16 b0 0b 66
        E 16 b0 0b 5d
        E 32 b0 0b 55
        E 32 80 44 00
        E 112 b0 0b 44
        E 0 90 46 44
        E 16 b0 0b 55
        E 16 b0 0b 66
        E 16 b0 0b 77
        E 16 b0 0b 7f
        E 32 b0 0b 44
        E 0 80 46 00
        E 0 90 44 44
        E 16 b0 0b 55
        E 16 b0 0b 66
        E 16 b0 0b 77
        E 16 b0 0b 7f
        E 32 b0 0b 77
        E 16 b0 0b 6e
        E 16 b0 0b 66
        E 16 b0 0b 5d
        E 32 b0 0b 55
        E 256 b0 0b 44
        E 16 b0 0b 55
        E 16 b0 0b 66
        E 16 b0 0b 77
        E 16 b0 0b 7f
        E 32 b0 0b 77
        E 16 b0 0b 6e
        E 16 b0 0b 66
        E 16 b0 0b 5d
        E 32 b0 0b 55
        E 32 80 44 00
        E 112 b0 0b 44
        E 0 90 4b 44
        E 16 b0 0b 55
        E 16 b0 0b 66
        E 16 b0 0b 77
        E 16 b0 0b 7f
        E 32 b0 0b 44
        E 0 80 4b 00
        E 0 90 47 44
        E 16 b0 0b 55
        E 16 b0 0b 66
        E 16 b0 0b 77
        E 16 b0 0b 7f
        E 32 b0 0b 77
        E 16 b0 0b 6e
        E 16 b0 0b 66
        E 16 b0 0b 5d
        E 32 b0 0b 55
        E 464 b0 0b 44
        E 16 b0 0b 55
        E 16 b0 0b 66
        E 16 b0 0b 77
        E 16 b0 0b 7f
        E 32 b0 0b 77
        E 16 b0 0b 6e
        E 16 b0 0b 66
        E 16 b0 0b 5d
        E 32 b0 0b 55
        E 48 b0 0b 44
        E 16 b0 0b 55
        E 16 b0 0b 66
        E 16 b0 0b 77
        E 16 b0 0b 7f
        E 32 b0 0b 77
        E 16 b0 0b 6e
        E 16 b0 0b 66
        E 16 b0 0b 5d
        E 32 b0 0b 55
        E 32 b0 0b 44
        E 0 80 47 00
        E 0 90 49 44
        E 16 b0 0b 55
        E 16 b0 0b 66
        E 16 b0 0b 77
        E 16 b0 0b 7f
        E 32 b0 0b 77
        E 16 b0 0b 6e
        E 16 b0 0b 66
        E 16 b0 0b 5d
        E 32 b0 0b 55
        E 32 b0 0b 44
        E 0 80 49 00
        E 0 90 4b 44
        E 16 b0 0b 55
        E 16 b0 0b 66
        E 16 b0 0b 77
        E 16 b0 0b 7f
        E 32 b0 0b 77
        E 16 b0 0b 6e
        E 16 b0 0b 66
        E 16 b0 0b 5d
        E 32 b0 0b 55
        E 2384 80 4b 00
        E 848 b0 0b 44
        E 0 90 34 44
        E 16 b0 0b 55
        E 16 b0 0b 66
        E 16 b0 0b 77
        E 16 b0 0b 7f
        E 32 b0 0b 77
        E 16 b0 0b 6e
        E 16 b0 0b 66
        E 16 b0 0b 5d
        E 32 b0 0b 55
        E 672 80 34 00
        E 224 b0 0b 44
        E 0 90 32 44
        E 16 b0 0b 55
        E 16 b0 0b 66
        E 16 b0 0b 77
        E 16 b0 0b 7f
        E 32 b0 0b 77
        E 16 b0 0b 6e
        E 16 b0 0b 66
        E 16 b0 0b 5d
        E 32 b0 0b 55
        E 32 b0 0b 44
        E 16 b0 0b 55
        E 16 b0 0b 66
        E 16 b0 0b 77
        E 16 b0 0b 7f
        E 32 b0 0b 77
        E 16 b0 0b 6e
        E 16 b0 0b 66
        E 16 b0 0b 5d
        E 32 b0 0b 55
        E 32 b0 0b 44
        E 0 80 32 00
        E 0 90 33 44
        E 16 b0 0b 55
        E 16 b0 0b 66
        E 16 b0 0b 77
        E 16 b0 0b 7f
        E 32 b0 0b 77
        E 16 b0 0b 6e
        E 16 b0 0b 66
        E 16 b0 0b 5d
        E 32 b0 0b 55
        E 32 b0 0b 44
        E 0 80 33 00
        E 0 90 35 44
        E 16 b0 0b 55
        E 16 b0 0b 66
        E 16 b0 0b 77
        E 16 b0 0b 7f
        E 32 b0 0b 77
        E 16 b0 0b 6e
        E 16 b0 0b 66
        E 16 b0 0b 5d
        E 32 b0 0b 55
        E 256 b0 0b 44
        E 0 80 35 00
        E 0 90 38 44
        E 16 b0 0b 55
        E 16 b0 0b 66
        E 16 b0 0b 77
        E 16 b0 0b 7f
        E 32 b0 0b 77
        E 16 b0 0b 6e
        E 16 b0 0b 66
        E 16 b0 0b 5d
        E 32 b0 0b 55
        E 256 b0 0b 44
        E 0 80 38 00
        E 0 90 37 44
        E 16 b0 0b 55
        E 16 b0 0b 66
        E 16 b0 0b 77
        E 16 b0 0b 7f
        E 32 b0 0b 77
        E 16 b0 0b 6e
        E 16 b0 0b 66
        E 16 b0 0b 5d
        E 32 b0 0b 55
        E 240 b0 0b 44
        E 0 80 37 00
        E 0 90 35 44
        E 16 b0 0b 55
        E 16 b0 0b 66
        E 16 b0 0b 77
        E 16 b0 0b 7f
        E 32 b0 0b 77
        E 16 b0 0b 6e
        E 16 b0 0b 66
        E 16 b0 0b 5d
        E 32 b0 0b 55
        E 256 b0 0b 44
        E 0 80 35 00
        E 0 90 33 44
        E 16 b0 0b 55
        E 16 b0 0b 66
        E 16 b0 0b 77
        E 16 b0 0b 7f
        E 32 80 33 00
        E 224 b0 0b 44
        E 0 90 35 44
        E 16 b0 0b 55
        E 16 b0 0b 66
        E 16 b0 0b 77
        E 16 b0 0b 7f
        E 32 b0 0b 44
        E 0 80 35 00
        E 0 90 32 44
        E 16 b0 0b 55
        E 16 b0 0b 66
        E 16 b0 0b 77
        E 16 b0 0b 7f
        E 32 b0 0b 77
        E 16 b0 0b 6e
        E 16 b0 0b 66
        E 16 b0 0b 5d
        E 32 b0 0b 55
        E 1952 80 32 00
        E 864 b0 0b 44
        E 0 90 32 44
        E 16 b0 0b 55
        E 16 b0 0b 66
        E 16 b0 0b 77
        E 16 b0 0b 7f
        E 32 b0 0b 77
        E 16 b0 0b 6e
        E 16 b0 0b 66
        E 16 b0 0b 5d
        E 32 b0 0b 55
        E 672 80 32 00
        E 208 b0 0b 44
        E 0 90 32 44
        E 16 b0 0b 55
        E 16 b0 0b 66
        E 16 b0 0b 77
        E 16 b0 0b 7f
        E 32 b0 0b 77
        E 16 b0 0b 6e
        E 16 b0 0b 66
        E 16 b0 0b 5d
        E 32 b0 0b 55
        E 32 b0 0b 44
        E 16 b0 0b 55
        E 16 b0 0b 66
        E 16 b0 0b 77
        E 16 b0 0b 7f
        E 32 b0 0b 77
        E 16 b0 0b 6e
        E 16 b0 0b 66
        E 16 b0 0b 5d
        E 32 b0 0b 55
        E 48 b0 0b 44
        E 0 80 32 00
        E 0 90 33 44
        E 16 b0 0b 55
        E 16 b0 0b 66
        E 16 b0 0b 77
        E 16 b0 0b 7f
        E 32 b0 0b 77
        E 16 b0 0b 6e
        E 16 b0 0b 66
        E 16 b0 0b 5d
        E 32 b0 0b 55
        E 32 b0 0b 44
        E 0 80 33 00
        E 0 90 35 44
        E 16 b0 0b 55
        E 16 b0 0b 66
        E 16 b0 0b 77
        E 16 b0 0b 7f
        E 32 b0 0b 77
        E 16 b0 0b 6e
        E 16 b0 0b 66
        E 16 b0 0b 5d
        E 32 b0 0b 55
        E 256 b0 0b 44
        E 0 80 35 00
        E 0 90 38 44
        E 16 b0 0b 55
        E 16 b0 0b 66
        E 16 b0 0b 77
        E 16 b0 0b 7f
        E 32 b0 0b 77
        E 16 b0 0b 6e
        E 16 b0 0b 66
        E 16 b0 0b 5d
        E 32 b0 0b 55
        E 240 b0 0b 44
        E 0 80 38 00
        E 0 90 37 44
        E 16 b0 0b 55
        E 16 b0 0b 66
        E 16 b0 0b 77
        E 16 b0 0b 7f
        E 32 b0 0b 77
        E 16 b0 0b 6e
        E 16 b0 0b 66
        E 16 b0 0b 5d
        E 32 b0 0b 55
        E 256 b0 0b 44
        E 0 80 37 00
        E 0 90 35 44
        E 16 b0 0b 55
        E 16 b0 0b 66
        E 16 b0 0b 77
        E 16 b0 0b 7f
        E 32 b0 0b 77
        E 16 b0 0b 6e
        E 16 b0 0b 66
        E 16 b0 0b 5d
        E 32 b0 0b 55
        E 240 b0 0b 44
        E 0 80 35 00
        E 0 90 33 44
        E 16 b0 0b 55
        E 16 b0 0b 66
        E 16 b0 0b 77
        E 16 b0 0b 7f
        E 32 b0 0b 77
        E 16 b0 0b 6e
        E 16 b0 0b 66
        E 16 b0 0b 5d
        E 32 b0 0b 55
        E 2384 80 33 00
        E 848 b0 0b 44
        E 0 90 50 44
        E 16 b0 0b 55
        E 16 b0 0b 66
        E 16 b0 0b 77
        E 16 b0 0b 7f
        E 32 b0 0b 77
        E 16 b0 0b 6e
        E 16 b0 0b 66
        E 16 b0 0b 5d
        E 32 b0 0b 55
        E 672 80 50 00
        E 224 b0 0b 44
        E 0 90 39 44
        E 16 b0 0b 55
        E 16 b0 0b 66
        E 16 b0 0b 77
        E 16 b0 0b 7f
        E 32 b0 0b 77
        E 16 b0 0b 6e
        E 16 b0 0b 66
        E 16 b0 0b 5d
        E 32 b0 0b 55
        E 32 b0 0b 44
        E 16 b0 0b 55
        E 16 b0 0b 66
        E 16 b0 0b 77
        E 16 b0 0b 7f
        E 32 b0 0b 77
        E 16 b0 0b 6e
        E 16 b0 0b 66
        E 16 b0 0b 5d
        E 32 b0 0b 55
        E 32 b0 0b 44
        E 0 80 39 00
        E 0 90 3a 44
        E 16 b0 0b 55
        E 16 b0 0b 66
        E 16 b0 0b 77
        E 16 b0 0b 7f
        E 32 b0 0b 77
        E 16 b0 0b 6e
        E 16 b0 0b 66
        E 16 b0 0b 5d
        E 32 b0 0b 55
        E 48 b0 0b 44
        E 0 80 3a 00
        E 0 90 3c 44
        E 16 b0 0b 55
        E 16 b0 0b 66
        E 16 b0 0b 77
        E 16 b0 0b 7f
        E 32 b0 0b 77
        E 16 b0 0b 6e
        E 16 b0 0b 66
        E 16 b0 0b 5d
        E 32 b0 0b 55
        E 240 b0 0b 44
        E 0 80 3c 00
        E 0 90 3f 44
        E 16 b0 0b 55
        E 16 b0 0b 66
        E 16 b0 0b 77
        E 16 b0 0b 7f
        E 32 b0 0b 77
        E 16 b0 0b 6e
        E 16 b0 0b 66
        E 16 b0 0b 5d
        E 32 b0 0b 55
        E 256 b0 0b 44
        E 0 80 3f 00
        E 0 90 3e 44
        E 16 b0 0b 55
        E 16 b0 0b 66
        E 16 b0 0b 77
        E 16 b0 0b 7f
        E 32 b0 0b 77
        E 16 b0 0b 6e
        E 16 b0 0b 66
        E 16 b0 0b 5d
        E 32 b0 0b 55
        E 32 b0 0b 44
        E 0 80 3e 00
        E 0 90 3c 44
        E 16 b0 0b 55
        E 16 b0 0b 66
        E 16 b0 0b 77
        E 16 b0 0b 7f
        E 32 b0 0b 77
        E 16 b0 0b 6e
        E 16 b0 0b 66
        E 16 b0 0b 5d
        E 32 b0 0b 55
        E 464 b0 0b 44
        E 0 80 3c 00
        E 0 90 3a 44
        E 16 b0 0b 55
        E 16 b0 0b 66
        E 16 b0 0b 77
        E 16 b0 0b 7f
        E 32 b0 0b 77
        E 16 b0 0b 6e
        E 16 b0 0b 66
        E 16 b0 0b 5d
        E 32 b0 0b 55
        E 1520 80 3a 00
        E 1712 b0 0b 44
        E 0 90 2d 44
        E 16 b0 0b 55
        E 16 b0 0b 66
        E 16 b0 0b 77
        E 16 b0 0b 7f
        E 32 b0 0b 77
        E 16 b0 0b 6e
        E 16 b0 0b 66
        E 16 b0 0b 5d
        E 32 b0 0b 55
        E 672 80 2d 00
        E 208 b0 0b 44
        E 0 90 37 44
        E 16 b0 0b 55
        E 16 b0 0b 66
        E 16 b0 0b 77
        E 16 b0 0b 7f
        E 32 b0 0b 77
        E 16 b0 0b 6e
        E 16 b0 0b 66
        E 16 b0 0b 5d
        E 32 b0 0b 55
        E 32 b0 0b 44
        E 0 80 37 00
        E 0 90 5d 44
        E 16 b0 0b 55
        E 16 b0 0b 66
        E 16 b0 0b 77
        E 16 b0 0b 7f
        E 32 b0 0b 77
        E 16 b0 0b 6e
        E 16 b0 0b 66
        E 16 b0 0b 5d
        E 32 b0 0b 55
        E 48 b0 0b 44
        E 0 80 5d 00
        E 0 90 39 44
        E 16 b0 0b 55
        E 16 b0 0b 66
        E 16 b0 0b 77
        E 16 b0 0b 7f
        E 32 b0 0b 77
        E 16 b0 0b 6e
        E 16 b0 0b 66
        E 16 b0 0b 5d
        E 32 b0 0b 55
        E 32 b0 0b 44
        E 0 80 39 00
        E 0 90 3a 44
        E 16 b0 0b 55
        E 16 b0 0b 66
        E 16 b0 0b 77
        E 16 b0 0b 7f
        E 32 b0 0b 77
        E 16 b0 0b 6e
        E 16 b0 0b 66
        E 16 b0 0b 5d
        E 32 b0 0b 55
        E 256 b0 0b 44
        E 0 80 3a 00
        E 0 90 3c 44
        E 16 b0 0b 55
        E 16 b0 0b 66
        E 16 b0 0b 77
        E 16 b0 0b 7f
        E 32 b0 0b 77
        E 16 b0 0b 6e
        E 16 b0 0b 66
        E 16 b0 0b 5d
        E 32 b0 0b 55
        E 240 b0 0b 44
        E 0 80 3c 00
        E 0 90 3a 44
        E 16 b0 0b 55
        E 16 b0 0b 66
        E 16 b0 0b 77
        E 16 b0 0b 7f
        E 32 b0 0b 77
        E 16 b0 0b 6e
        E 16 b0 0b 66
        E 16 b0 0b 5d
        E 32 b0 0b 55
        E 48 b0 0b 44
        E 0 80 3a 00
        E 0 90 2d 44
        E 16 b0 0b 55
        E 16 b0 0b 66
        E 16 b0 0b 77
        E 16 b0 0b 7f
        E 32 b0 0b 77
        E 16 b0 0b 6e
        E 16 b0 0b 66
        E 16 b0 0b 5d
        E 32 b0 0b 55
        E 448 b0 0b 44
        E 0 80 2d 00
        E 0 90 35 44
        E 16 b0 0b 55
        E 16 b0 0b 66
        E 16 b0 0b 77
        E 16 b0 0b 7f
        E 32 b0 0b 77
        E 16 b0 0b 6e
        E 16 b0 0b 66
        E 16 b0 0b 5d
        E 32 b0 0b 55
        E 1536 b0 0b 44
        E 0 80 35 00
        E 0 90 5d 44
        E 16 b0 0b 55
        E 16 b0 0b 66
        E 16 b0 0b 77
        E 16 b0 0b 7f
        E 32 b0 0b 77
        E 16 b0 0b 6e
        E 16 b0 0b 66
        E 16 b0 0b 5d
        E 32 b0 0b 55
        E 32 b0 0b 44
        E 0 80 5d 00
        E 0 90 3f 44
        E 16 b0 0b 55
        E 16 b0 0b 66
        E 16 b0 0b 77
        E 16 b0 0b 7f
        E 32 b0 0b 77
        E 16 b0 0b 6e
        E 16 b0 0b 66
        E 16 b0 0b 5d
        E 32 b0 0b 55
        E 32 80 3f 00
        E 224 b0 0b 44
        E 0 90 3f 44
        E 16 b0 0b 55
        E 16 b0 0b 66
        E 16 b0 0b 77
        E 16 b0 0b 7f
        E 32 b0 0b 77
        E 16 b0 0b 6e
        E 16 b0 0b 66
        E 16 b0 0b 5d
        E 32 b0 0b 55
        E 32 80 3f 00
        E 208 b0 0b 44
        E 0 90 3e 44
        E 16 b0 0b 55
        E 16 b0 0b 66
        E 16 b0 0b 77
        E 16 b0 0b 7f
        E 32 b0 0b 77
        E 16 b0 0b 6e
        E 16 b0 0b 66
        E 16 b0 0b 5d
        E 32 b0 0b 55
        E 48 b0 0b 44
        E 0 80 3e 00
        E 0 90 3c 44
        E 16 b0 0b 55
        E 16 b0 0b 66
        E 16 b0 0b 77
        E 16 b0 0b 7f
        E 32 b0 0b 77
        E 16 b0 0b 6e
        E 16 b0 0b 66
        E 16 b0 0b 5d
        E 32 b0 0b 55
        E 32 b0 0b 44
        E 0 80 3c 00
        E 0 90 3a 44
        E 16 b0 0b 55
        E 16 b0 0b 66
        E 16 b0 0b 77
        E 16 b0 0b 7f
        E 32 b0 0b 77
        E 16 b0 0b 6e
        E 16 b0 0b 66
        E 16 b0 0b 5d
        E 32 b0 0b 55
        E 32 b0 0b 44
        E 0 80 3a 00
        E 0 90 2d 44
        E 16 b0 0b 55
        E 16 b0 0b 66
        E 16 b0 0b 77
        E 16 b0 0b 7f
        E 32 b0 0b 77
        E 16 b0 0b 6e
        E 16 b0 0b 66
        E 16 b0 0b 5d
        E 32 b0 0b 55
        E 672 80 2d 00
        E 224 b0 0b 44
        E 0 90 37 44
        E 16 b0 0b 55
        E 16 b0 0b 66
        E 16 b0 0b 77
        E 16 b0 0b 7f
        E 32 b0 0b 77
        E 16 b0 0b 6e
        E 16 b0 0b 66
        E 16 b0 0b 5d
        E 32 b0 0b 55
        E 32 b0 0b 44
        E 0 80 37 00
        E 0 90 5d 44
        E 16 b0 0b 55
        E 16 b0 0b 66
        E 16 b0 0b 77
        E 16 b0 0b 7f
        E 32 b0 0b 77
        E 16 b0 0b 6e
        E 16 b0 0b 66
        E 16 b0 0b 5d
        E 32 b0 0b 55
        E 32 b0 0b 44
        E 0 80 5d 00
        E 0 90 39 44
        E 16 b0 0b 55
        E 16 b0 0b 66
        E 16 b0 0b 77
        E 16 b0 0b 7f
        E 32 b0 0b 77
        E 16 b0 0b 6e
        E 16 b0 0b 66
        E 16 b0 0b 5d
        E 32 b0 0b 55
        E 48 b0 0b 44
        E 0 80 39 00
        E 0 90 3a 44
        E 16 b0 0b 55
        E 16 b0 0b 66
        E 16 b0 0b 77
        E 16 b0 0b 7f
        E 32 b0 0b 77
        E 16 b0 0b 6e
        E 16 b0 0b 66
        E 16 b0 0b 5d
        E 32 b0 0b 55
        E 240 b0 0b 44
        E 0 80 3a 00
        E 0 90 3c 44
        E 16 b0 0b 55
        E 16 b0 0b 66
        E 16 b0 0b 77
        E 16 b0 0b 7f
        E 32 b0 0b 77
        E 16 b0 0b 6e
        E 16 b0 0b 66
        E 16 b0 0b 5d
        E 32 b0 0b 55
        E 256 b0 0b 44
        E 0 80 3c 00
        E 0 90 3a 44
        E 16 b0 0b 55
        E 16 b0 0b 66
        E 16 b0 0b 77
        E 16 b0 0b 7f
        E 32 b0 0b 77
        E 16 b0 0b 6e
        E 16 b0 0b 66
        E 16 b0 0b 5d
        E 32 b0 0b 55
        E 32 b0 0b 44
        E 0 80 3a 00
        E 0 90 3c 44
        E 16 b0 0b 55
        E 16 b0 0b 66
        E 16 b0 0b 77
        E 16 b0 0b 7f
        E 32 b0 0b 77
        E 16 b0 0b 6e
        E 16 b0 0b 66
        E 16 b0 0b 5d
        E 32 b0 0b 55
        E 464 b0 0b 44
        E 0 80 3c 00
        E 0 90 41 44
        E 16 b0 0b 55
        E 16 b0 0b 66
        E 16 b0 0b 77
        E 16 b0 0b 7f
        E 32 b0 0b 77
        E 16 b0 0b 6e
        E 16 b0 0b 66
        E 16 b0 0b 5d
        E 32 b0 0b 55
        E 1520 b0 0b 7f
        E 0 80 41 00
        E 0 90 3e 7f
        E 32 b0 0b 77
        E 16 b0 0b 6e
        E 16 b0 0b 66
        E 16 b0 0b 5d
        E 16 b0 0b 55
        E 48 b0 0b 4c
        E 128 b0 0b 44
        E 48 b0 0b 3b
        E 48 b0 0b 33
        E 64 b0 0b 7f
        E 0 80 3e 00
        E 0 90 46 7f
        E 32 b0 0b 77
        E 16 b0 0b 6e
        E 16 b0 0b 66
        E 16 b0 0b 5d
        E 16 b0 0b 55
        E 48 b0 0b 4c
        E 128 b0 0b 44
        E 48 b0 0b 3b
        E 48 b0 0b 33
        E 64 b0 0b 7f
        E 0 80 46 00
        E 0 90 45 7f
        E 32 b0 0b 77
        E 16 b0 0b 6e
        E 16 b0 0b 66
        E 16 b0 0b 5d
        E 16 b0 0b 55
        E 48 b0 0b 4c
        E 64 b0 0b 7f
        E 0 80 45 00
        E 0 90 43 7f
        E 32 b0 0b 77
        E 16 b0 0b 6e
        E 16 b0 0b 66
        E 16 b0 0b 5d
        E 16 b0 0b 55
        E 48 b0 0b 4c
        E 128 b0 0b 44
        E 48 b0 0b 3b
        E 48 b0 0b 33
        E 64 b0 0b 2a
        E 48 b0 0b 22
        E 48 b0 0b 19
        E 48 b0 0b 11
        E 32 80 43 00
        E 32 b0 0b 44
        E 0 90 41 44
        E 16 b0 0b 55
        E 16 b0 0b 66
        E 16 b0 0b 77
        E 16 b0 0b 7f
        E 32 b0 0b 77
        E 16 b0 0b 6e
        E 16 b0 0b 66
        E 16 b0 0b 5d
        E 32 b0 0b 55
        E 672 80 41 00
        E 208 b0 0b 44
        E 0 90 3f 44
        E 16 b0 0b 55
        E 16 b0 0b 66
        E 16 b0 0b 77
        E 16 b0 0b 7f
        E 32 b0 0b 77
        E 16 b0 0b 6e
        E 16 b0 0b 66
        E 16 b0 0b 5d
        E 32 b0 0b 55
        E 48 b0 0b 44
        E 16 b0 0b 55
        E 16 b0 0b 66
        E 16 b0 0b 77
        E 16 b0 0b 7f
        E 32 b0 0b 77
        E 16 b0 0b 6e
        E 16 b0 0b 66
        E 16 b0 0b 5d
        E 32 b0 0b 55
        E 32 b0 0b 44
        E 0 80 3f 00
        E 0 90 3e 44
        E 16 b0 0b 55
        E 16 b0 0b 66
        E 16 b0 0b 77
        E 16 b0 0b 7f
        E 32 b0 0b 77
        E 16 b0 0b 6e
        E 16 b0 0b 66
        E 16 b0 0b 5d
        E 32 b0 0b 55
        E 32 b0 0b 44
        E 0 80 3e 00
        E 0 90 3c 44
        E 16 b0 0b 55
        E 16 b0 0b 66
        E 16 b0 0b 77
        E 16 b0 0b 7f
        E 32 b0 0b 77
        E 16 b0 0b 6e
        E 16 b0 0b 66
        E 16 b0 0b 5d
        E 32 b0 0b 55
        E 672 b0 0b 44
        E 0 80 3c 00
        E 0 90 3e 44
        E 16 b0 0b 55
        E 16 b0 0b 66
        E 16 b0 0b 77
        E 16 b0 0b 7f
        E 32 b0 0b 77
        E 16 b0 0b 6e
        E 16 b0 0b 66
        E 16 b0 0b 5d
        E 32 b0 0b 55
        E 256 b0 0b 44
        E 0 80 3e 00
        E 0 90 3c 44
        E 16 b0 0b 55
        E 16 b0 0b 66
        E 16 b0 0b 77
        E 16 b0 0b 7f
        E 32 b0 0b 77
        E 16 b0 0b 6e
        E 16 b0 0b 66
        E 16 b0 0b 5d
        E 32 b0 0b 55
        E 32 b0 0b 44
        E 0 80 3c 00
        E 0 90 3a 44
        E 16 b0 0b 55
        E 16 b0 0b 66
        E 16 b0 0b 77
        E 16 b0 0b 7f
        E 32 b0 0b 77
        E 16 b0 0b 6e
        E 16 b0 0b 66
        E 16 b0 0b 5d
        E 32 b0 0b 55
        E 48 b0 0b 44
        E 0 80 3a 00
        E 0 90 3c 44
        E 16 b0 0b 55
        E 16 b0 0b 66
        E 16 b0 0b 77
        E 16 b0 0b 7f
        E 32 b0 0b 77
        E 16 b0 0b 6e
        E 16 b0 0b 66
        E 16 b0 0b 5d
        E 32 b0 0b 55
        E 1520 b0 0b 44
        E 0 80 3c 00
        E 0 90 2f 44
        E 16 b0 0b 55
        E 16 b0 0b 66
        E 16 b0 0b 77
        E 16 b0 0b 7f
        E 32 b0 0b 77
        E 16 b0 0b 6e
        E 16 b0 0b 66
        E 16 b0 0b 5d
        E 32 b0 0b 55
        E 32 b0 0b 44
        E 0 80 2f 00
        E 0 90 37 44
        E 16 b0 0b 55
        E 16 b0 0b 66
        E 16 b0 0b 77
        E 16 b0 0b 7f
        E 32 b0 0b 77
        E 16 b0 0b 6e
        E 16 b0 0b 66
        E 16 b0 0b 5d
        E 32 b0 0b 55
        E 48 b0 0b 44
        E 0 80 37 00
        E 0 90 5d 44
        E 16 b0 0b 55
        E 16 b0 0b 66
        E 16 b0 0b 77
        E 16 b0 0b 7f
        E 32 b0 0b 77
        E 16 b0 0b 6e
        E 16 b0 0b 66
        E 16 b0 0b 5d
        E 32 b0 0b 55
        E 32 b0 0b 44
        E 0 80 5d 00
        E 0 90 39 44
        E 16 b0 0b 55
        E 16 b0 0b 66
        E 16 b0 0b 77
        E 16 b0 0b 7f
        E 32 b0 0b 77
        E 16 b0 0b 6e
        E 16 b0 0b 66
        E 16 b0 0b 5d
        E 32 b0 0b 55
        E 32 b0 0b 44
        E 16 b0 0b 55
        E 16 b0 0b 66
        E 16 b0 0b 77
        E 16 b0 0b 7f
        E 32 b0 0b 77
        E 16 b0 0b 6e
        E 16 b0 0b 66
        E 16 b0 0b 5d
        E 32 b0 0b 55
        E 32 b0 0b 44
        E 0 80 39 00
        E 0 90 3a 44
        E 16 b0 0b 55
        E 16 b0 0b 66
        E 16 b0 0b 77
        E 16 b0 0b 7f
        E 32 b0 0b 77
        E 16 b0 0b 6e
        E 16 b0 0b 66
        E 16 b0 0b 5d
        E 32 b0 0b 55
        E 48 b0 0b 44
        E 16 b0 0b 55
        E 16 b0 0b 66
        E 16 b0 0b 77
        E 16 b0 0b 7f
        E 32 b0 0b 77
        E 16 b0 0b 6e
        E 16 b0 0b 66
        E 16 b0 0b 5d
        E 32 b0 0b 55
        E 32 b0 0b 44
        E 0 80 3a 00
        E 0 90 3c 44
        E 16 b0 0b 55
        E 16 b0 0b 66
        E 16 b0 0b 77
        E 16 b0 0b 7f
        E 32 b0 0b 77
        E 16 b0 0b 6e
        E 16 b0 0b 66
        E 16 b0 0b 5d
        E 32 b0 0b 55
        E 32 b0 0b 44
        E 16 b0 0b 55
        E 16 b0 0b 66
        E 16 b0 0b 77
        E 16 b0 0b 7f
        E 32 b0 0b 77
        E 16 b0 0b 6e
        E 16 b0 0b 66
        E 16 b0 0b 5d
        E 32 b0 0b 55
        E 688 80 3c 00
        E 208 b0 0b 44
        E 0 90 3f 44
        E 16 b0 0b 55
        E 16 b0 0b 66
        E 16 b0 0b 77
        E 16 b0 0b 7f
        E 32 b0 0b 77
        E 16 b0 0b 6e
        E 16 b0 0b 66
        E 16 b0 0b 5d
        E 32 b0 0b 55
        E 32 b0 0b 44
        E 16 b0 0b 55
        E 16 b0 0b 66
        E 16 b0 0b 77
        E 16 b0 0b 7f
        E 32 b0 0b 77
        E 16 b0 0b 6e
        E 16 b0 0b 66
        E 16 b0 0b 5d
        E 32 b0 0b 55
        E 32 b0 0b 44
        E 0 80 3f 00
        E 0 90 3e 44
        E 16 b0 0b 55
        E 16 b0 0b 66
        E 16 b0 0b 77
        E 16 b0 0b 7f
        E 32 b0 0b 77
        E 16 b0 0b 6e
        E 16 b0 0b 66
        E 16 b0 0b 5d
        E 32 b0 0b 55
        E 48 b0 0b 44
        E 0 80 3e 00
        E 0 90 3c 44
        E 16 b0 0b 55
        E 16 b0 0b 66
        E 16 b0 0b 77
        E 16 b0 0b 7f
        E 32 b0 0b 77
        E 16 b0 0b 6e
        E 16 b0 0b 66
        E 16 b0 0b 5d
        E 32 b0 0b 55
        E 672 b0 0b 44
        E 0 80 3c 00
        E 0 90 3e 44
        E 16 b0 0b 55
        E 16 b0 0b 66
        E 16 b0 0b 77
        E 16 b0 0b 7f
        E 32 b0 0b 77
        E 16 b0 0b 6e
        E 16 b0 0b 66
        E 16 b0 0b 5d
        E 32 b0 0b 55
        E 256 b0 0b 44
        E 0 80 3e 00
        E 0 90 3c 44
        E 16 b0 0b 55
        E 16 b0 0b 66
        E 16 b0 0b 77
        E 16 b0 0b 7f
        E 32 b0 0b 77
        E 16 b0 0b 6e
        E 16 b0 0b 66
        E 16 b0 0b 5d
        E 32 b0 0b 55
        E 32 b0 0b 44
        E 0 80 3c 00
        E 0 90 3a 44
        E 16 b0 0b 55
        E 16 b0 0b 66
        E 16 b0 0b 77
        E 16 b0 0b 7f
        E 32 b0 0b 77
        E 16 b0 0b 6e
        E 16 b0 0b 66
        E 16 b0 0b 5d
        E 32 b0 0b 55
        E 32 b0 0b 44
        E 0 80 3a 00
        E 0 90 3c 44
        E 16 b0 0b 55
        E 16 b0 0b 66
        E 16 b0 0b 77
        E 16 b0 0b 7f
        E 32 b0 0b 77
        E 16 b0 0b 6e
        E 16 b0 0b 66
        E 16 b0 0b 5d
        E 32 b0 0b 55
        E 3232 b0 0b 44
        E 0 80 3c 00
        E 0 90 2d 44
        E 16 b0 0b 55
        E 16 b0 0b 66
        E 16 b0 0b 77
        E 16 b0 0b 7f
        E 32 b0 0b 77
        E 16 b0 0b 6e
        E 16 b0 0b 66
        E 16 b0 0b 5d
        E 32 b0 0b 55
        E 672 80 2d 00
        E 208 b0 0b 44
        E 0 90 32 44
        E 16 b0 0b 55
        E 16 b0 0b 66
        E 16 b0 0b 77
        E 16 b0 0b 7f
        E 32 b0 0b 77
        E 16 b0 0b 6e
        E 16 b0 0b 66
        E 16 b0 0b 5d
        E 32 b0 0b 55
        E 48 b0 0b 44
        E 16 b0 0b 55
        E 16 b0 0b 66
        E 16 b0 0b 77
        E 16 b0 0b 7f
        E 32 b0 0b 77
        E 16 b0 0b 6e
        E 16 b0 0b 66
        E 16 b0 0b 5d
        E 32 b0 0b 55
        E 32 b0 0b 44
        E 0 80 32 00
        E 0 90 33 44
        E 16 b0 0b 55
        E 16 b0 0b 66
        E 16 b0 0b 77
        E 16 b0 0b 7f
        E 32 b0 0b 77
        E 16 b0 0b 6e
        E 16 b0 0b 66
        E 16 b0 0b 5d
        E 32 b0 0b 55
        E 32 b0 0b 44
        E 0 80 33 00
        E 0 90 35 44
        E 16 b0 0b 55
        E 16 b0 0b 66
        E 16 80 35 00
        E 0 b0 7b 00
        E 0 ff 2f 00
      >
    >
  >
  <TRACK {1DC6ABF4-C85C-4166-9817-3E5326F362C4}
    NAME "NES - Pulse 2 [ch1]"
    PEAKCOL 10092441
    BEAT -1
    AUTOMODE 0
    PANLAWFLAGS 3
    VOLPAN 1 0 -1 -1 1
    MUTESOLO 0 0 0
    IPHASE 0
    PLAYOFFS 0 1
    ISBUS 0 0
    BUSCOMP 0 0 0 0 0
    SHOWINMIX 1 0.6667 0.5 1 0.5 0 0 0
    FIXEDLANES 9 0 0 0 0
    SEL 0
    REC 0 5088 1 0 0 0 0 0
    VU 2
    TRACKHEIGHT 0 0 0 0 0 0 0
    INQ 0 0 0 0.5 100 0 0 100
    NCHAN 2
    FX 1
    TRACKID {1DC6ABF4-C85C-4166-9817-3E5326F362C4}
    PERF 0
    MIDIOUT -1
    MAINSEND 1 0
    <FXCHAIN
      WNDRECT 24 52 700 560
      SHOW 0
      LASTSEL 0
      DOCKED 0
      BYPASS 0 0 0
      <JS "ReapNES Studio/ReapNES_Console.jsfx" ""
        2 15 1 10 80 10 100 2 1 15 1 5 60 10 80 1 1 0 50 0 0 15 1 0 100 0 0 0.500000 0.500000 0.400000 0.300000 0.800000 1 1 0 0 0 0 - - - - - - - - - - - - - - - - - - - - - - - - - -
      >
      FLOATPOS 0 0 0 0
      FXID {FC2EA669-42D2-414E-AC6C-6D03721B69EC}
      WAK 0 0
    >
    <ITEM
      POSITION 0
      LENGTH 74.4790069
      LOOP 0
      ALLTAKES 0
      FADEIN 0 0 0 0 0 0 0
      FADEOUT 0 0 0 0 0 0 0
      MUTE 0 0
      SEL 0
      IGUID {BFD6F04A-159E-4826-8507-31738E619102}
      <SOURCE MIDI
        HASDATA 1 480 QN
        CCINTERP 32
        E 0 c1 51
        E 0 b1 0c 40
        E 0 b1 0b 2a
        E 0 91 45 2a
        E 16 b1 0b 3b
        E 16 b1 0b 4c
        E 16 b1 0b 5d
        E 16 b1 0b 66
        E 32 b1 0b 5d
        E 16 b1 0b 55
        E 16 b1 0b 4c
        E 16 b1 0b 44
        E 32 b1 0b 3b
        E 48 b1 0b 2a
        E 0 81 45 00
        E 0 91 3e 2a
        E 16 b1 0b 3b
        E 16 b1 0b 4c
        E 16 b1 0b 5d
        E 16 b1 0b 66
        E 32 b1 0b 5d
        E 16 b1 0b 55
        E 16 b1 0b 4c
        E 16 b1 0b 44
        E 32 b1 0b 3b
        E 48 b1 0b 2a
        E 0 81 3e 00
        E 0 91 2d 2a
        E 16 b1 0b 3b
        E 16 b1 0b 4c
        E 16 b1 0b 5d
        E 16 b1 0b 66
        E 32 b1 0b 5d
        E 16 b1 0b 55
        E 16 b1 0b 4c
        E 16 b1 0b 44
        E 32 b1 0b 3b
        E 48 b1 0b 2a
        E 0 81 2d 00
        E 0 91 37 2a
        E 16 b1 0b 3b
        E 16 b1 0b 4c
        E 16 b1 0b 5d
        E 16 b1 0b 66
        E 32 b1 0b 5d
        E 16 b1 0b 55
        E 16 b1 0b 4c
        E 16 b1 0b 44
        E 32 b1 0b 3b
        E 32 b1 0b 2a
        E 0 81 37 00
        E 0 91 36 2a
        E 16 b1 0b 3b
        E 16 b1 0b 4c
        E 16 b1 0b 5d
        E 16 b1 0b 66
        E 32 b1 0b 5d
        E 16 b1 0b 55
        E 16 b1 0b 4c
        E 16 b1 0b 44
        E 32 b1 0b 3b
        E 48 b1 0b 6e
        E 0 81 36 00
        E 0 91 2a 6e
        E 16 b1 0b 5d
        E 16 b1 0b 4c
        E 16 b1 0b 44
        E 16 b1 0b 3b
        E 16 b1 0b 33
        E 16 b1 0b 2a
        E 16 b1 0b 22
        E 16 b1 0b 11
        E 16 81 2a 00
        E 80 b1 0b 6e
        E 0 91 28 6e
        E 16 b1 0b 5d
        E 16 b1 0b 4c
        E 16 b1 0b 44
        E 16 b1 0b 3b
        E 16 b1 0b 33
        E 16 b1 0b 2a
        E 16 b1 0b 22
        E 16 b1 0b 11
        E 16 81 28 00
        E 80 b1 0b 6e
        E 0 91 35 6e
        E 16 b1 0b 5d
        E 16 b1 0b 4c
        E 16 b1 0b 44
        E 16 b1 0b 3b
        E 16 b1 0b 33
        E 16 b1 0b 2a
        E 16 b1 0b 22
        E 16 b1 0b 11
        E 16 81 35 00
        E 80 b1 0b 6e
        E 0 91 28 6e
        E 16 b1 0b 5d
        E 16 b1 0b 4c
        E 16 b1 0b 44
        E 16 b1 0b 3b
        E 16 b1 0b 33
        E 16 b1 0b 2a
        E 16 b1 0b 22
        E 16 b1 0b 11
        E 16 81 28 00
        E 288 b1 0b 22
        E 0 91 30 22
        E 16 b1 0b 33
        E 16 b1 0b 44
        E 16 b1 0b 55
        E 16 b1 0b 5d
        E 32 b1 0b 55
        E 16 b1 0b 4c
        E 16 b1 0b 44
        E 16 b1 0b 3b
        E 16 b1 0b 22
        E 0 81 30 00
        E 0 91 37 22
        E 16 b1 0b 33
        E 16 b1 0b 44
        E 16 b1 0b 55
        E 16 b1 0b 5d
        E 32 b1 0b 55
        E 16 b1 0b 4c
        E 16 b1 0b 44
        E 16 b1 0b 22
        E 16 b1 0b 33
        E 16 b1 0b 44
        E 16 b1 0b 55
        E 16 b1 0b 5d
        E 32 b1 0b 55
        E 16 b1 0b 4c
        E 16 b1 0b 44
        E 16 b1 0b 22
        E 16 b1 0b 33
        E 16 b1 0b 44
        E 16 b1 0b 55
        E 16 b1 0b 5d
        E 32 b1 0b 55
        E 16 b1 0b 4c
        E 16 b1 0b 44
        E 16 b1 0b 3b
        E 32 b1 0b 33
        E 272 b1 0b 22
        E 0 81 37 00
        E 0 91 45 22
        E 16 b1 0b 33
        E 16 b1 0b 44
        E 16 b1 0b 55
        E 16 b1 0b 5d
        E 32 b1 0b 55
        E 16 b1 0b 4c
        E 16 b1 0b 44
        E 16 b1 0b 3b
        E 32 b1 0b 33
        E 48 b1 0b 22
        E 0 81 45 00
        E 0 91 2e 22
        E 16 b1 0b 33
        E 16 b1 0b 44
        E 16 b1 0b 55
        E 16 b1 0b 5d
        E 32 b1 0b 55
        E 16 b1 0b 4c
        E 16 b1 0b 44
        E 16 b1 0b 3b
        E 32 b1 0b 33
        E 48 b1 0b 22
        E 0 81 2e 00
        E 0 91 5d 22
        E 16 b1 0b 33
        E 16 b1 0b 44
        E 16 b1 0b 55
        E 16 b1 0b 5d
        E 32 b1 0b 55
        E 16 b1 0b 4c
        E 16 b1 0b 44
        E 16 b1 0b 3b
        E 32 b1 0b 33
        E 32 b1 0b 22
        E 0 81 5d 00
        E 0 91 39 22
        E 16 b1 0b 33
        E 16 b1 0b 44
        E 16 b1 0b 55
        E 16 b1 0b 5d
        E 32 b1 0b 55
        E 16 b1 0b 4c
        E 16 b1 0b 44
        E 16 b1 0b 3b
        E 32 b1 0b 33
        E 48 b1 0b 22
        E 0 81 39 00
        E 0 91 3b 22
        E 16 b1 0b 33
        E 16 b1 0b 44
        E 16 b1 0b 55
        E 16 b1 0b 5d
        E 32 b1 0b 55
        E 16 b1 0b 4c
        E 16 b1 0b 44
        E 16 b1 0b 3b
        E 32 b1 0b 33
        E 496 b1 0b 22
        E 0 81 3b 00
        E 0 91 3c 22
        E 16 b1 0b 33
        E 16 b1 0b 44
        E 16 b1 0b 55
        E 16 b1 0b 5d
        E 32 b1 0b 55
        E 16 b1 0b 4c
        E 16 b1 0b 44
        E 16 b1 0b 3b
        E 32 b1 0b 33
        E 48 b1 0b 22
        E 0 81 3c 00
        E 0 91 39 22
        E 16 b1 0b 33
        E 16 b1 0b 44
        E 16 b1 0b 55
        E 16 b1 0b 5d
        E 32 b1 0b 55
        E 16 b1 0b 4c
        E 16 b1 0b 44
        E 16 b1 0b 3b
        E 32 b1 0b 33
        E 32 b1 0b 22
        E 0 81 39 00
        E 0 91 3b 22
        E 16 b1 0b 33
        E 16 b1 0b 44
        E 16 b1 0b 55
        E 16 b1 0b 5d
        E 32 b1 0b 55
        E 16 b1 0b 4c
        E 16 b1 0b 44
        E 16 b1 0b 3b
        E 32 b1 0b 33
        E 1536 b1 0b 2a
        E 0 81 3b 00
        E 0 91 39 2a
        E 16 b1 0b 3b
        E 16 b1 0b 4c
        E 16 b1 0b 5d
        E 16 b1 0b 66
        E 32 b1 0b 5d
        E 16 b1 0b 55
        E 16 b1 0b 4c
        E 16 b1 0b 44
        E 32 b1 0b 3b
        E 1520 b1 0b 66
        E 0 81 39 00
        E 0 91 23 66
        E 16 b1 0b 55
        E 16 b1 0b 44
        E 16 b1 0b 3b
        E 16 b1 0b 33
        E 16 b1 0b 2a
        E 16 b1 0b 22
        E 16 b1 0b 19
        E 16 b1 0b 08
        E 16 b1 0b 66
        E 0 81 23 00
        E 0 91 2a 66
        E 16 b1 0b 55
        E 16 b1 0b 44
        E 16 b1 0b 3b
        E 16 b1 0b 33
        E 16 b1 0b 2a
        E 16 b1 0b 22
        E 16 b1 0b 19
        E 16 b1 0b 08
        E 16 b1 0b 66
        E 0 81 2a 00
        E 0 91 29 66
        E 16 b1 0b 55
        E 16 b1 0b 44
        E 16 b1 0b 3b
        E 16 b1 0b 33
        E 16 b1 0b 2a
        E 16 b1 0b 22
        E 16 b1 0b 19
        E 16 b1 0b 08
        E 16 b1 0b 66
        E 0 81 29 00
        E 0 91 2b 66
        E 16 b1 0b 55
        E 16 b1 0b 44
        E 16 b1 0b 3b
        E 16 b1 0b 33
        E 16 b1 0b 2a
        E 16 b1 0b 22
        E 16 b1 0b 19
        E 16 b1 0b 66
        E 0 81 2b 00
        E 0 91 29 66
        E 16 b1 0b 55
        E 16 b1 0b 44
        E 16 b1 0b 3b
        E 16 b1 0b 33
        E 16 b1 0b 2a
        E 16 b1 0b 22
        E 16 b1 0b 19
        E 16 b1 0b 08
        E 16 b1 0b 66
        E 0 81 29 00
        E 0 91 35 66
        E 16 b1 0b 55
        E 16 b1 0b 44
        E 16 b1 0b 3b
        E 16 b1 0b 33
        E 16 b1 0b 2a
        E 16 b1 0b 22
        E 16 b1 0b 19
        E 16 b1 0b 08
        E 16 b1 0b 66
        E 0 81 35 00
        E 0 91 28 66
        E 16 b1 0b 55
        E 16 b1 0b 44
        E 16 b1 0b 3b
        E 16 b1 0b 33
        E 16 b1 0b 2a
        E 16 b1 0b 22
        E 16 b1 0b 19
        E 16 b1 0b 08
        E 16 b1 0b 66
        E 0 81 28 00
        E 0 91 35 66
        E 16 b1 0b 55
        E 16 b1 0b 44
        E 16 b1 0b 3b
        E 16 b1 0b 33
        E 16 b1 0b 2a
        E 16 b1 0b 22
        E 16 b1 0b 19
        E 16 b1 0b 08
        E 16 b1 0b 66
        E 0 81 35 00
        E 0 91 30 66
        E 16 b1 0b 55
        E 16 b1 0b 44
        E 16 b1 0b 3b
        E 16 b1 0b 33
        E 16 b1 0b 2a
        E 16 b1 0b 22
        E 16 b1 0b 19
        E 16 b1 0b 08
        E 16 b1 0b 66
        E 0 81 30 00
        E 0 91 34 66
        E 16 b1 0b 55
        E 16 b1 0b 44
        E 16 b1 0b 3b
        E 16 b1 0b 33
        E 16 b1 0b 2a
        E 16 b1 0b 22
        E 16 b1 0b 19
        E 16 b1 0b 08
        E 16 b1 0b 66
        E 0 81 34 00
        E 0 91 37 66
        E 16 b1 0b 55
        E 16 b1 0b 44
        E 16 b1 0b 3b
        E 16 b1 0b 33
        E 16 b1 0b 2a
        E 16 b1 0b 22
        E 16 b1 0b 19
        E 16 b1 0b 08
        E 16 b1 0b 66
        E 0 81 37 00
        E 0 91 34 66
        E 16 b1 0b 55
        E 16 b1 0b 44
        E 16 b1 0b 3b
        E 16 b1 0b 33
        E 16 b1 0b 2a
        E 16 b1 0b 22
        E 16 b1 0b 19
        E 16 b1 0b 66
        E 0 81 34 00
        E 0 91 30 66
        E 16 b1 0b 55
        E 16 b1 0b 44
        E 16 b1 0b 3b
        E 16 b1 0b 33
        E 16 b1 0b 2a
        E 16 b1 0b 22
        E 16 b1 0b 19
        E 16 b1 0b 08
        E 16 b1 0b 66
        E 0 81 30 00
        E 0 91 32 66
        E 16 b1 0b 55
        E 16 b1 0b 44
        E 16 b1 0b 3b
        E 16 b1 0b 33
        E 16 b1 0b 2a
        E 16 b1 0b 22
        E 16 b1 0b 19
        E 16 b1 0b 08
        E 16 b1 0b 66
        E 0 81 32 00
        E 0 91 26 66
        E 16 b1 0b 55
        E 16 b1 0b 44
        E 16 b1 0b 3b
        E 16 b1 0b 33
        E 16 b1 0b 2a
        E 16 b1 0b 22
        E 16 b1 0b 19
        E 16 b1 0b 08
        E 16 b1 0b 66
        E 0 81 26 00
        E 0 91 33 66
        E 16 b1 0b 55
        E 16 b1 0b 44
        E 16 b1 0b 3b
        E 16 b1 0b 33
        E 16 b1 0b 2a
        E 16 b1 0b 22
        E 16 b1 0b 19
        E 16 b1 0b 08
        E 16 b1 0b 66
        E 0 81 33 00
        E 0 91 26 66
        E 16 b1 0b 55
        E 16 b1 0b 44
        E 16 b1 0b 3b
        E 16 b1 0b 33
        E 16 b1 0b 2a
        E 16 b1 0b 22
        E 16 b1 0b 19
        E 16 b1 0b 08
        E 16 b1 0b 66
        E 0 81 26 00
        E 0 91 2a 66
        E 16 b1 0b 55
        E 16 b1 0b 44
        E 16 b1 0b 3b
        E 16 b1 0b 33
        E 16 b1 0b 2a
        E 16 b1 0b 22
        E 16 b1 0b 19
        E 16 b1 0b 08
        E 16 b1 0b 66
        E 0 81 2a 00
        E 0 91 26 66
        E 16 b1 0b 55
        E 16 b1 0b 44
        E 16 b1 0b 3b
        E 16 b1 0b 33
        E 16 b1 0b 2a
        E 16 b1 0b 22
        E 16 b1 0b 19
        E 16 b1 0b 66
        E 0 81 26 00
        E 0 91 2a 66
        E 16 b1 0b 55
        E 16 b1 0b 44
        E 16 b1 0b 3b
        E 16 b1 0b 33
        E 16 b1 0b 2a
        E 16 b1 0b 22
        E 16 b1 0b 19
        E 16 b1 0b 08
        E 16 b1 0b 66
        E 0 81 2a 00
        E 0 91 21 66
        E 16 b1 0b 55
        E 16 b1 0b 44
        E 16 b1 0b 3b
        E 16 b1 0b 33
        E 16 b1 0b 2a
        E 16 b1 0b 22
        E 16 b1 0b 19
        E 16 b1 0b 08
        E 16 b1 0b 66
        E 0 81 21 00
        E 0 91 26 66
        E 16 b1 0b 55
        E 16 b1 0b 44
        E 16 b1 0b 3b
        E 16 b1 0b 33
        E 16 b1 0b 2a
        E 16 b1 0b 22
        E 16 b1 0b 19
        E 16 b1 0b 08
        E 16 b1 0b 66
        E 0 81 26 00
        E 0 91 21 66
        E 16 b1 0b 55
        E 16 b1 0b 44
        E 16 b1 0b 3b
        E 16 b1 0b 33
        E 16 b1 0b 2a
        E 16 b1 0b 22
        E 16 b1 0b 19
        E 16 b1 0b 08
        E 16 b1 0b 66
        E 0 81 21 00
        E 0 91 1d 66
        E 16 b1 0b 55
        E 16 b1 0b 44
        E 16 b1 0b 3b
        E 16 b1 0b 33
        E 16 b1 0b 2a
        E 16 b1 0b 22
        E 16 b1 0b 19
        E 16 b1 0b 08
        E 16 b1 0b 66
        E 0 81 1d 00
        E 0 91 27 66
        E 16 b1 0b 55
        E 16 b1 0b 44
        E 16 b1 0b 3b
        E 16 b1 0b 33
        E 16 b1 0b 2a
        E 16 b1 0b 22
        E 16 b1 0b 19
        E 16 b1 0b 08
        E 16 b1 0b 66
        E 0 81 27 00
        E 0 91 32 66
        E 16 b1 0b 55
        E 16 b1 0b 44
        E 16 b1 0b 3b
        E 16 b1 0b 33
        E 16 b1 0b 2a
        E 16 b1 0b 22
        E 16 b1 0b 19
        E 16 b1 0b 08
        E 16 b1 0b 66
        E 0 81 32 00
        E 0 91 2d 66
        E 16 b1 0b 55
        E 16 b1 0b 44
        E 16 b1 0b 3b
        E 16 b1 0b 33
        E 16 b1 0b 2a
        E 16 b1 0b 22
        E 16 b1 0b 19
        E 16 b1 0b 66
        E 0 81 2d 00
        E 0 91 30 66
        E 16 b1 0b 55
        E 16 b1 0b 44
        E 16 b1 0b 3b
        E 16 b1 0b 33
        E 16 b1 0b 2a
        E 16 b1 0b 22
        E 16 b1 0b 19
        E 16 b1 0b 08
        E 16 b1 0b 66
        E 0 81 30 00
        E 0 91 2d 66
        E 16 b1 0b 55
        E 16 b1 0b 44
        E 16 b1 0b 3b
        E 16 b1 0b 33
        E 16 b1 0b 2a
        E 16 b1 0b 22
        E 16 b1 0b 19
        E 16 b1 0b 08
        E 16 b1 0b 66
        E 0 81 2d 00
        E 0 91 30 66
        E 16 b1 0b 55
        E 16 b1 0b 44
        E 16 b1 0b 3b
        E 16 b1 0b 33
        E 16 b1 0b 2a
        E 16 b1 0b 22
        E 16 b1 0b 19
        E 16 b1 0b 08
        E 16 b1 0b 66
        E 0 81 30 00
        E 0 91 35 66
        E 16 b1 0b 55
        E 16 b1 0b 44
        E 16 b1 0b 3b
        E 16 b1 0b 33
        E 16 b1 0b 2a
        E 16 b1 0b 22
        E 16 b1 0b 19
        E 16 b1 0b 08
        E 16 b1 0b 66
        E 0 81 35 00
        E 0 91 30 66
        E 16 b1 0b 55
        E 16 b1 0b 44
        E 16 b1 0b 3b
        E 16 b1 0b 33
        E 16 b1 0b 2a
        E 16 b1 0b 22
        E 16 b1 0b 19
        E 16 b1 0b 08
        E 16 b1 0b 66
        E 0 81 30 00
        E 0 91 50 66
        E 16 b1 0b 55
        E 16 b1 0b 44
        E 16 b1 0b 3b
        E 16 b1 0b 33
        E 16 b1 0b 2a
        E 16 b1 0b 22
        E 16 b1 0b 19
        E 16 b1 0b 08
        E 16 b1 0b 66
        E 0 81 50 00
        E 0 91 39 66
        E 16 b1 0b 55
        E 16 b1 0b 44
        E 16 b1 0b 3b
        E 16 b1 0b 33
        E 16 b1 0b 2a
        E 16 b1 0b 22
        E 16 b1 0b 19
        E 16 b1 0b 66
        E 0 81 39 00
        E 0 91 3c 66
        E 16 b1 0b 55
        E 16 b1 0b 44
        E 16 b1 0b 3b
        E 16 b1 0b 33
        E 16 b1 0b 2a
        E 16 b1 0b 22
        E 16 b1 0b 19
        E 16 b1 0b 08
        E 16 b1 0b 66
        E 0 81 3c 00
        E 0 91 2d 66
        E 16 b1 0b 55
        E 16 b1 0b 44
        E 16 b1 0b 3b
        E 16 b1 0b 33
        E 16 b1 0b 2a
        E 16 b1 0b 22
        E 16 b1 0b 19
        E 16 b1 0b 08
        E 16 b1 0b 66
        E 0 81 2d 00
        E 0 91 50 66
        E 16 b1 0b 55
        E 16 b1 0b 44
        E 16 b1 0b 3b
        E 16 b1 0b 33
        E 16 b1 0b 2a
        E 16 b1 0b 22
        E 16 b1 0b 19
        E 16 b1 0b 08
        E 16 b1 0b 66
        E 0 81 50 00
        E 0 91 2d 66
        E 16 b1 0b 55
        E 16 b1 0b 44
        E 16 b1 0b 3b
        E 16 b1 0b 33
        E 16 b1 0b 2a
        E 16 b1 0b 22
        E 16 b1 0b 19
        E 16 b1 0b 08
        E 16 b1 0b 66
        E 0 81 2d 00
        E 0 91 36 66
        E 16 b1 0b 55
        E 16 b1 0b 44
        E 16 b1 0b 3b
        E 16 b1 0b 33
        E 16 b1 0b 2a
        E 16 b1 0b 22
        E 16 b1 0b 19
        E 16 b1 0b 08
        E 16 b1 0b 66
        E 0 81 36 00
        E 0 91 32 66
        E 16 b1 0b 55
        E 16 b1 0b 44
        E 16 b1 0b 3b
        E 16 b1 0b 33
        E 16 b1 0b 2a
        E 16 b1 0b 22
        E 16 b1 0b 19
        E 16 b1 0b 08
        E 16 b1 0b 66
        E 0 81 32 00
        E 0 91 36 66
        E 16 b1 0b 55
        E 16 b1 0b 44
        E 16 b1 0b 3b
        E 16 b1 0b 33
        E 16 b1 0b 2a
        E 16 b1 0b 22
        E 16 b1 0b 19
        E 16 b1 0b 08
        E 16 b1 0b 66
        E 0 81 36 00
        E 0 91 32 66
        E 16 b1 0b 55
        E 16 b1 0b 44
        E 16 b1 0b 3b
        E 16 b1 0b 33
        E 16 b1 0b 2a
        E 16 b1 0b 22
        E 16 b1 0b 19
        E 16 b1 0b 66
        E 0 81 32 00
        E 0 91 26 66
        E 16 b1 0b 55
        E 16 b1 0b 44
        E 16 b1 0b 3b
        E 16 b1 0b 33
        E 16 b1 0b 2a
        E 16 b1 0b 22
        E 16 b1 0b 19
        E 16 b1 0b 08
        E 16 81 26 00
        E 80 b1 0b 2a
        E 0 91 33 2a
        E 16 b1 0b 3b
        E 16 b1 0b 4c
        E 16 b1 0b 5d
        E 16 b1 0b 66
        E 32 b1 0b 5d
        E 16 b1 0b 55
        E 16 b1 0b 4c
        E 16 b1 0b 44
        E 32 b1 0b 3b
        E 32 b1 0b 2a
        E 0 81 33 00
        E 0 91 2d 2a
        E 16 b1 0b 3b
        E 16 b1 0b 4c
        E 16 b1 0b 5d
        E 16 b1 0b 66
        E 32 b1 0b 5d
        E 16 b1 0b 55
        E 16 b1 0b 4c
        E 16 b1 0b 44
        E 32 b1 0b 3b
        E 32 b1 0b 2a
        E 16 b1 0b 3b
        E 16 b1 0b 4c
        E 16 b1 0b 5d
        E 16 b1 0b 66
        E 32 b1 0b 5d
        E 16 b1 0b 55
        E 16 b1 0b 4c
        E 16 b1 0b 44
        E 32 b1 0b 3b
        E 48 b1 0b 2a
        E 16 b1 0b 3b
        E 16 b1 0b 4c
        E 16 b1 0b 5d
        E 16 b1 0b 66
        E 32 b1 0b 5d
        E 16 b1 0b 55
        E 16 b1 0b 4c
        E 16 b1 0b 44
        E 32 b1 0b 3b
        E 1520 b1 0b 33
        E 0 81 2d 00
        E 0 91 2f 33
        E 16 b1 0b 44
        E 16 b1 0b 55
        E 16 b1 0b 66
        E 16 b1 0b 6e
        E 32 b1 0b 66
        E 16 b1 0b 5d
        E 16 b1 0b 55
        E 16 b1 0b 4c
        E 32 b1 0b 44
        E 1520 b1 0b 33
        E 0 81 2f 00
        E 0 91 56 33
        E 16 b1 0b 44
        E 16 b1 0b 55
        E 16 b1 0b 66
        E 16 b1 0b 6e
        E 32 b1 0b 66
        E 16 b1 0b 5d
        E 16 b1 0b 55
        E 16 b1 0b 4c
        E 32 b1 0b 44
        E 48 81 56 00
        E 96 b1 0b 33
        E 0 91 42 33
        E 16 b1 0b 44
        E 16 b1 0b 55
        E 16 b1 0b 66
        E 16 b1 0b 6e
        E 32 b1 0b 66
        E 16 b1 0b 33
        E 0 81 42 00
        E 0 91 40 33
        E 16 b1 0b 44
        E 16 b1 0b 55
        E 16 b1 0b 66
        E 16 b1 0b 6e
        E 32 b1 0b 66
        E 16 b1 0b 5d
        E 16 b1 0b 55
        E 16 b1 0b 4c
        E 32 b1 0b 44
        E 1104 b1 0b 33
        E 16 b1 0b 44
        E 16 b1 0b 55
        E 16 b1 0b 66
        E 16 b1 0b 6e
        E 32 b1 0b 66
        E 16 b1 0b 5d
        E 16 b1 0b 55
        E 16 b1 0b 4c
        E 32 b1 0b 44
        E 32 81 40 00
        E 112 b1 0b 33
        E 0 91 42 33
        E 16 b1 0b 44
        E 16 b1 0b 55
        E 16 b1 0b 66
        E 16 b1 0b 6e
        E 32 b1 0b 33
        E 0 81 42 00
        E 0 91 3f 33
        E 16 b1 0b 44
        E 16 b1 0b 55
        E 16 b1 0b 66
        E 16 b1 0b 6e
        E 32 b1 0b 66
        E 16 b1 0b 5d
        E 16 b1 0b 55
        E 16 b1 0b 4c
        E 32 b1 0b 44
        E 256 b1 0b 33
        E 16 b1 0b 44
        E 16 b1 0b 55
        E 16 b1 0b 66
        E 16 b1 0b 6e
        E 32 b1 0b 66
        E 16 b1 0b 5d
        E 16 b1 0b 55
        E 16 b1 0b 4c
        E 32 b1 0b 44
        E 32 81 3f 00
        E 112 b1 0b 33
        E 0 91 42 33
        E 16 b1 0b 44
        E 16 b1 0b 55
        E 16 b1 0b 66
        E 16 b1 0b 6e
        E 32 b1 0b 66
        E 16 b1 0b 33
        E 0 81 42 00
        E 0 91 3d 33
        E 16 b1 0b 44
        E 16 b1 0b 55
        E 16 b1 0b 66
        E 16 b1 0b 6e
        E 32 b1 0b 66
        E 16 b1 0b 5d
        E 16 b1 0b 55
        E 16 b1 0b 4c
        E 32 b1 0b 44
        E 240 b1 0b 33
        E 16 b1 0b 44
        E 16 b1 0b 55
        E 16 b1 0b 66
        E 16 b1 0b 6e
        E 32 b1 0b 66
        E 16 b1 0b 5d
        E 16 b1 0b 55
        E 16 b1 0b 4c
        E 32 b1 0b 44
        E 32 81 3d 00
        E 112 b1 0b 33
        E 0 91 47 33
        E 16 b1 0b 44
        E 16 b1 0b 55
        E 16 b1 0b 66
        E 16 b1 0b 6e
        E 32 b1 0b 66
        E 16 b1 0b 33
        E 0 81 47 00
        E 0 91 42 33
        E 16 b1 0b 44
        E 16 b1 0b 55
        E 16 b1 0b 66
        E 16 b1 0b 6e
        E 32 b1 0b 66
        E 16 b1 0b 5d
        E 16 b1 0b 55
        E 16 b1 0b 4c
        E 32 b1 0b 44
        E 464 81 42 00
        E 640 b1 0b 33
        E 0 91 42 33
        E 16 b1 0b 44
        E 16 b1 0b 55
        E 16 b1 0b 66
        E 16 b1 0b 6e
        E 32 b1 0b 66
        E 16 b1 0b 5d
        E 16 b1 0b 55
        E 16 b1 0b 4c
        E 32 b1 0b 44
        E 2368 81 42 00
        E 1072 b1 0b 22
        E 0 91 33 22
        E 16 b1 0b 33
        E 16 b1 0b 44
        E 16 b1 0b 55
        E 16 b1 0b 5d
        E 32 b1 0b 55
        E 16 b1 0b 4c
        E 16 b1 0b 44
        E 16 b1 0b 3b
        E 32 b1 0b 33
        E 672 81 33 00
        E 208 b1 0b 22
        E 0 91 32 22
        E 16 b1 0b 33
        E 16 b1 0b 44
        E 16 b1 0b 55
        E 16 b1 0b 5d
        E 32 b1 0b 55
        E 16 b1 0b 4c
        E 16 b1 0b 44
        E 16 b1 0b 3b
        E 32 b1 0b 33
        E 32 b1 0b 22
        E 16 b1 0b 33
        E 16 b1 0b 44
        E 16 b1 0b 55
        E 16 b1 0b 5d
        E 32 b1 0b 55
        E 16 b1 0b 4c
        E 16 b1 0b 44
        E 16 b1 0b 3b
        E 32 b1 0b 33
        E 48 b1 0b 22
        E 0 81 32 00
        E 0 91 33 22
        E 16 b1 0b 33
        E 16 b1 0b 44
        E 16 b1 0b 55
        E 16 b1 0b 5d
        E 32 b1 0b 55
        E 16 b1 0b 4c
        E 16 b1 0b 44
        E 16 b1 0b 3b
        E 32 b1 0b 33
        E 32 b1 0b 22
        E 0 81 33 00
        E 0 91 35 22
        E 16 b1 0b 33
        E 16 b1 0b 44
        E 16 b1 0b 55
        E 16 b1 0b 5d
        E 32 b1 0b 55
        E 16 b1 0b 4c
        E 16 b1 0b 44
        E 16 b1 0b 3b
        E 32 b1 0b 33
        E 256 b1 0b 22
        E 0 81 35 00
        E 0 91 38 22
        E 16 b1 0b 33
        E 16 b1 0b 44
        E 16 b1 0b 55
        E 16 b1 0b 5d
        E 32 b1 0b 55
        E 16 b1 0b 4c
        E 16 b1 0b 44
        E 16 b1 0b 3b
        E 32 b1 0b 33
        E 240 b1 0b 22
        E 0 81 38 00
        E 0 91 37 22
        E 16 b1 0b 33
        E 16 b1 0b 44
        E 16 b1 0b 55
        E 16 b1 0b 5d
        E 32 b1 0b 55
        E 16 b1 0b 4c
        E 16 b1 0b 44
        E 16 b1 0b 3b
        E 32 b1 0b 33
        E 256 b1 0b 22
        E 0 81 37 00
        E 0 91 35 22
        E 16 b1 0b 33
        E 16 b1 0b 44
        E 16 b1 0b 55
        E 16 b1 0b 5d
        E 32 b1 0b 55
        E 16 b1 0b 4c
        E 16 b1 0b 44
        E 16 b1 0b 3b
        E 32 b1 0b 33
        E 240 b1 0b 22
        E 0 81 35 00
        E 0 91 33 22
        E 16 b1 0b 33
        E 16 b1 0b 44
        E 16 b1 0b 55
        E 16 b1 0b 5d
        E 32 b1 0b 55
        E 16 81 33 00
        E 208 b1 0b 22
        E 0 91 35 22
        E 16 b1 0b 33
        E 16 b1 0b 44
        E 16 b1 0b 55
        E 16 b1 0b 5d
        E 32 b1 0b 55
        E 16 b1 0b 22
        E 0 81 35 00
        E 0 91 32 22
        E 16 b1 0b 33
        E 16 b1 0b 44
        E 16 b1 0b 55
        E 16 b1 0b 5d
        E 32 b1 0b 55
        E 16 b1 0b 4c
        E 16 b1 0b 44
        E 16 b1 0b 3b
        E 32 b1 0b 33
        E 880 b1 0b 44
        E 0 81 32 00
        E 0 91 44 44
        E 16 b1 0b 55
        E 16 b1 0b 66
        E 16 b1 0b 77
        E 16 b1 0b 7f
        E 32 b1 0b 77
        E 16 81 44 00
        E 208 b1 0b 44
        E 0 91 2d 44
        E 16 b1 0b 55
        E 16 b1 0b 66
        E 16 b1 0b 77
        E 16 b1 0b 7f
        E 32 b1 0b 77
        E 16 b1 0b 44
        E 0 81 2d 00
        E 0 91 35 44
        E 16 b1 0b 55
        E 16 b1 0b 66
        E 16 b1 0b 77
        E 16 b1 0b 7f
        E 32 b1 0b 77
        E 16 b1 0b 6e
        E 16 b1 0b 66
        E 16 b1 0b 5d
        E 32 b1 0b 55
        E 1104 81 35 00
        E 208 b1 0b 22
        E 0 91 35 22
        E 16 b1 0b 33
        E 16 b1 0b 44
        E 16 b1 0b 55
        E 16 b1 0b 5d
        E 32 b1 0b 55
        E 16 b1 0b 4c
        E 16 b1 0b 44
        E 16 b1 0b 3b
        E 32 b1 0b 33
        E 672 81 35 00
        E 224 b1 0b 22
        E 0 91 32 22
        E 16 b1 0b 33
        E 16 b1 0b 44
        E 16 b1 0b 55
        E 16 b1 0b 5d
        E 32 b1 0b 55
        E 16 b1 0b 4c
        E 16 b1 0b 44
        E 16 b1 0b 3b
        E 32 b1 0b 33
        E 32 b1 0b 22
        E 16 b1 0b 33
        E 16 b1 0b 44
        E 16 b1 0b 55
        E 16 b1 0b 5d
        E 32 b1 0b 55
        E 16 b1 0b 4c
        E 16 b1 0b 44
        E 16 b1 0b 3b
        E 32 b1 0b 33
        E 32 b1 0b 22
        E 0 81 32 00
        E 0 91 33 22
        E 16 b1 0b 33
        E 16 b1 0b 44
        E 16 b1 0b 55
        E 16 b1 0b 5d
        E 32 b1 0b 55
        E 16 b1 0b 4c
        E 16 b1 0b 44
        E 16 b1 0b 3b
        E 32 b1 0b 33
        E 48 b1 0b 22
        E 0 81 33 00
        E 0 91 35 22
        E 16 b1 0b 33
        E 16 b1 0b 44
        E 16 b1 0b 55
        E 16 b1 0b 5d
        E 32 b1 0b 55
        E 16 b1 0b 4c
        E 16 b1 0b 44
        E 16 b1 0b 3b
        E 32 b1 0b 33
        E 240 b1 0b 22
        E 0 81 35 00
        E 0 91 38 22
        E 16 b1 0b 33
        E 16 b1 0b 44
        E 16 b1 0b 55
        E 16 b1 0b 5d
        E 32 b1 0b 55
        E 16 b1 0b 4c
        E 16 b1 0b 44
        E 16 b1 0b 3b
        E 32 b1 0b 33
        E 256 b1 0b 22
        E 0 81 38 00
        E 0 91 37 22
        E 16 b1 0b 33
        E 16 b1 0b 44
        E 16 b1 0b 55
        E 16 b1 0b 5d
        E 32 b1 0b 55
        E 16 b1 0b 4c
        E 16 b1 0b 44
        E 16 b1 0b 3b
        E 32 b1 0b 33
        E 240 b1 0b 22
        E 0 81 37 00
        E 0 91 35 22
        E 16 b1 0b 33
        E 16 b1 0b 44
        E 16 b1 0b 55
        E 16 b1 0b 5d
        E 32 b1 0b 55
        E 16 b1 0b 4c
        E 16 b1 0b 44
        E 16 b1 0b 3b
        E 32 b1 0b 33
        E 256 b1 0b 22
        E 0 81 35 00
        E 0 91 33 22
        E 16 b1 0b 33
        E 16 b1 0b 44
        E 16 b1 0b 55
        E 16 b1 0b 5d
        E 32 b1 0b 55
        E 16 b1 0b 4c
        E 16 b1 0b 44
        E 16 b1 0b 3b
        E 32 b1 0b 33
        E 2384 81 33 00
        E 848 b1 0b 22
        E 0 91 50 22
        E 16 b1 0b 33
        E 16 b1 0b 44
        E 16 b1 0b 55
        E 16 b1 0b 5d
        E 32 b1 0b 55
        E 16 b1 0b 4c
        E 16 b1 0b 44
        E 16 b1 0b 3b
        E 32 b1 0b 33
        E 672 81 50 00
        E 208 b1 0b 22
        E 0 91 39 22
        E 16 b1 0b 33
        E 16 b1 0b 44
        E 16 b1 0b 55
        E 16 b1 0b 5d
        E 32 b1 0b 55
        E 16 b1 0b 4c
        E 16 b1 0b 44
        E 16 b1 0b 3b
        E 32 b1 0b 33
        E 48 b1 0b 22
        E 16 b1 0b 33
        E 16 b1 0b 44
        E 16 b1 0b 55
        E 16 b1 0b 5d
        E 32 b1 0b 55
        E 16 b1 0b 4c
        E 16 b1 0b 44
        E 16 b1 0b 3b
        E 32 b1 0b 33
        E 32 b1 0b 22
        E 0 81 39 00
        E 0 91 3a 22
        E 16 b1 0b 33
        E 16 b1 0b 44
        E 16 b1 0b 55
        E 16 b1 0b 5d
        E 32 b1 0b 55
        E 16 b1 0b 4c
        E 16 b1 0b 44
        E 16 b1 0b 3b
        E 32 b1 0b 33
        E 32 b1 0b 22
        E 0 81 3a 00
        E 0 91 3c 22
        E 16 b1 0b 33
        E 16 b1 0b 44
        E 16 b1 0b 55
        E 16 b1 0b 5d
        E 32 b1 0b 55
        E 16 b1 0b 4c
        E 16 b1 0b 44
        E 16 b1 0b 3b
        E 32 b1 0b 33
        E 256 b1 0b 22
        E 0 81 3c 00
        E 0 91 3f 22
        E 16 b1 0b 33
        E 16 b1 0b 44
        E 16 b1 0b 55
        E 16 b1 0b 5d
        E 32 b1 0b 55
        E 16 b1 0b 4c
        E 16 b1 0b 44
        E 16 b1 0b 3b
        E 32 b1 0b 33
        E 240 b1 0b 22
        E 0 81 3f 00
        E 0 91 3e 22
        E 16 b1 0b 33
        E 16 b1 0b 44
        E 16 b1 0b 55
        E 16 b1 0b 5d
        E 32 b1 0b 55
        E 16 b1 0b 4c
        E 16 b1 0b 44
        E 16 b1 0b 3b
        E 32 b1 0b 33
        E 48 b1 0b 22
        E 0 81 3e 00
        E 0 91 3c 22
        E 16 b1 0b 33
        E 16 b1 0b 44
        E 16 b1 0b 55
        E 16 b1 0b 5d
        E 32 b1 0b 55
        E 16 b1 0b 4c
        E 16 b1 0b 44
        E 16 b1 0b 3b
        E 32 b1 0b 33
        E 464 b1 0b 22
        E 0 81 3c 00
        E 0 91 3a 22
        E 16 b1 0b 33
        E 16 b1 0b 44
        E 16 b1 0b 55
        E 16 b1 0b 5d
        E 32 b1 0b 55
        E 16 b1 0b 4c
        E 16 b1 0b 44
        E 16 b1 0b 3b
        E 32 b1 0b 33
        E 1312 81 3a 00
        E 1904 b1 0b 22
        E 0 91 2d 22
        E 16 b1 0b 33
        E 16 b1 0b 44
        E 16 b1 0b 55
        E 16 b1 0b 5d
        E 32 b1 0b 55
        E 16 b1 0b 4c
        E 16 b1 0b 44
        E 16 b1 0b 3b
        E 32 b1 0b 33
        E 672 81 2d 00
        E 224 b1 0b 22
        E 0 91 37 22
        E 16 b1 0b 33
        E 16 b1 0b 44
        E 16 b1 0b 55
        E 16 b1 0b 5d
        E 32 b1 0b 55
        E 16 b1 0b 4c
        E 16 b1 0b 44
        E 16 b1 0b 3b
        E 32 b1 0b 33
        E 32 b1 0b 22
        E 0 81 37 00
        E 0 91 5d 22
        E 16 b1 0b 33
        E 16 b1 0b 44
        E 16 b1 0b 55
        E 16 b1 0b 5d
        E 32 b1 0b 55
        E 16 b1 0b 4c
        E 16 b1 0b 44
        E 16 b1 0b 3b
        E 32 b1 0b 33
        E 32 b1 0b 22
        E 0 81 5d 00
        E 0 91 39 22
        E 16 b1 0b 33
        E 16 b1 0b 44
        E 16 b1 0b 55
        E 16 b1 0b 5d
        E 32 b1 0b 55
        E 16 b1 0b 4c
        E 16 b1 0b 44
        E 16 b1 0b 3b
        E 32 b1 0b 33
        E 48 b1 0b 22
        E 0 81 39 00
        E 0 91 3a 22
        E 16 b1 0b 33
        E 16 b1 0b 44
        E 16 b1 0b 55
        E 16 b1 0b 5d
        E 32 b1 0b 55
        E 16 b1 0b 4c
        E 16 b1 0b 44
        E 16 b1 0b 3b
        E 32 b1 0b 33
        E 240 b1 0b 22
        E 0 81 3a 00
        E 0 91 3c 22
        E 16 b1 0b 33
        E 16 b1 0b 44
        E 16 b1 0b 55
        E 16 b1 0b 5d
        E 32 b1 0b 55
        E 16 b1 0b 4c
        E 16 b1 0b 44
        E 16 b1 0b 3b
        E 32 b1 0b 33
        E 256 b1 0b 22
        E 0 81 3c 00
        E 0 91 3a 22
        E 16 b1 0b 33
        E 16 b1 0b 44
        E 16 b1 0b 55
        E 16 b1 0b 5d
        E 32 b1 0b 55
        E 16 b1 0b 4c
        E 16 b1 0b 44
        E 16 b1 0b 3b
        E 32 b1 0b 33
        E 32 b1 0b 22
        E 0 81 3a 00
        E 0 91 2d 22
        E 16 b1 0b 33
        E 16 b1 0b 44
        E 16 b1 0b 55
        E 16 b1 0b 5d
        E 32 b1 0b 55
        E 16 b1 0b 4c
        E 16 b1 0b 44
        E 16 b1 0b 3b
        E 32 b1 0b 33
        E 464 b1 0b 22
        E 0 81 2d 00
        E 0 91 35 22
        E 16 b1 0b 33
        E 16 b1 0b 44
        E 16 b1 0b 55
        E 16 b1 0b 5d
        E 32 b1 0b 55
        E 16 b1 0b 4c
        E 16 b1 0b 44
        E 16 b1 0b 3b
        E 32 b1 0b 33
        E 1520 b1 0b 22
        E 0 81 35 00
        E 0 91 5b 22
        E 16 b1 0b 33
        E 16 b1 0b 44
        E 16 b1 0b 55
        E 16 b1 0b 5d
        E 32 b1 0b 55
        E 16 b1 0b 4c
        E 16 b1 0b 44
        E 16 b1 0b 3b
        E 32 b1 0b 33
        E 48 b1 0b 22
        E 0 81 5b 00
        E 0 91 3f 22
        E 16 b1 0b 33
        E 16 b1 0b 44
        E 16 b1 0b 55
        E 16 b1 0b 5d
        E 32 b1 0b 55
        E 16 b1 0b 4c
        E 16 b1 0b 44
        E 16 b1 0b 3b
        E 32 b1 0b 33
        E 32 81 3f 00
        E 208 b1 0b 22
        E 0 91 3f 22
        E 16 b1 0b 33
        E 16 b1 0b 44
        E 16 b1 0b 55
        E 16 b1 0b 5d
        E 32 b1 0b 55
        E 16 b1 0b 4c
        E 16 b1 0b 44
        E 16 b1 0b 3b
        E 32 b1 0b 33
        E 48 81 3f 00
        E 208 b1 0b 22
        E 0 91 3e 22
        E 16 b1 0b 33
        E 16 b1 0b 44
        E 16 b1 0b 55
        E 16 b1 0b 5d
        E 32 b1 0b 55
        E 16 b1 0b 4c
        E 16 b1 0b 44
        E 16 b1 0b 3b
        E 32 b1 0b 33
        E 32 b1 0b 22
        E 0 81 3e 00
        E 0 91 3c 22
        E 16 b1 0b 33
        E 16 b1 0b 44
        E 16 b1 0b 55
        E 16 b1 0b 5d
        E 32 b1 0b 55
        E 16 b1 0b 4c
        E 16 b1 0b 44
        E 16 b1 0b 3b
        E 32 b1 0b 33
        E 48 b1 0b 22
        E 0 81 3c 00
        E 0 91 3a 22
        E 16 b1 0b 33
        E 16 b1 0b 44
        E 16 b1 0b 55
        E 16 b1 0b 5d
        E 32 b1 0b 55
        E 16 b1 0b 4c
        E 16 b1 0b 44
        E 16 b1 0b 3b
        E 32 b1 0b 33
        E 32 b1 0b 22
        E 0 81 3a 00
        E 0 91 2d 22
        E 16 b1 0b 33
        E 16 b1 0b 44
        E 16 b1 0b 55
        E 16 b1 0b 5d
        E 32 b1 0b 55
        E 16 b1 0b 4c
        E 16 b1 0b 44
        E 16 b1 0b 3b
        E 32 b1 0b 33
        E 672 81 2d 00
        E 208 b1 0b 22
        E 0 91 37 22
        E 16 b1 0b 33
        E 16 b1 0b 44
        E 16 b1 0b 55
        E 16 b1 0b 5d
        E 32 b1 0b 55
        E 16 b1 0b 4c
        E 16 b1 0b 44
        E 16 b1 0b 3b
        E 32 b1 0b 33
        E 48 b1 0b 22
        E 0 81 37 00
        E 0 91 5d 22
        E 16 b1 0b 33
        E 16 b1 0b 44
        E 16 b1 0b 55
        E 16 b1 0b 5d
        E 32 b1 0b 55
        E 16 b1 0b 4c
        E 16 b1 0b 44
        E 16 b1 0b 3b
        E 32 b1 0b 33
        E 32 b1 0b 22
        E 0 81 5d 00
        E 0 91 39 22
        E 16 b1 0b 33
        E 16 b1 0b 44
        E 16 b1 0b 55
        E 16 b1 0b 5d
        E 32 b1 0b 55
        E 16 b1 0b 4c
        E 16 b1 0b 44
        E 16 b1 0b 3b
        E 32 b1 0b 33
        E 32 b1 0b 22
        E 0 81 39 00
        E 0 91 3a 22
        E 16 b1 0b 33
        E 16 b1 0b 44
        E 16 b1 0b 55
        E 16 b1 0b 5d
        E 32 b1 0b 55
        E 16 b1 0b 4c
        E 16 b1 0b 44
        E 16 b1 0b 3b
        E 32 b1 0b 33
        E 256 b1 0b 22
        E 0 81 3a 00
        E 0 91 3c 22
        E 16 b1 0b 33
        E 16 b1 0b 44
        E 16 b1 0b 55
        E 16 b1 0b 5d
        E 32 b1 0b 55
        E 16 b1 0b 4c
        E 16 b1 0b 44
        E 16 b1 0b 3b
        E 32 b1 0b 33
        E 240 b1 0b 22
        E 0 81 3c 00
        E 0 91 3a 22
        E 16 b1 0b 33
        E 16 b1 0b 44
        E 16 b1 0b 55
        E 16 b1 0b 5d
        E 32 b1 0b 55
        E 16 b1 0b 4c
        E 16 b1 0b 44
        E 16 b1 0b 3b
        E 32 b1 0b 33
        E 48 b1 0b 22
        E 0 81 3a 00
        E 0 91 3c 22
        E 16 b1 0b 33
        E 16 b1 0b 44
        E 16 b1 0b 55
        E 16 b1 0b 5d
        E 32 b1 0b 55
        E 16 b1 0b 4c
        E 16 b1 0b 44
        E 16 b1 0b 3b
        E 32 b1 0b 33
        E 464 b1 0b 22
        E 0 81 3c 00
        E 0 91 41 22
        E 16 b1 0b 33
        E 16 b1 0b 44
        E 16 b1 0b 55
        E 16 b1 0b 5d
        E 32 b1 0b 55
        E 16 b1 0b 4c
        E 16 b1 0b 44
        E 16 b1 0b 3b
        E 32 b1 0b 33
        E 1520 81 41 00
        E 1696 b1 0b 22
        E 0 91 3e 22
        E 16 b1 0b 33
        E 16 b1 0b 44
        E 16 b1 0b 55
        E 16 b1 0b 5d
        E 32 b1 0b 55
        E 16 b1 0b 4c
        E 16 b1 0b 44
        E 16 b1 0b 3b
        E 32 b1 0b 33
        E 688 81 3e 00
        E 208 b1 0b 22
        E 0 91 3f 22
        E 16 b1 0b 33
        E 16 b1 0b 44
        E 16 b1 0b 55
        E 16 b1 0b 5d
        E 32 b1 0b 55
        E 16 b1 0b 4c
        E 16 b1 0b 44
        E 16 b1 0b 3b
        E 32 b1 0b 33
        E 32 b1 0b 22
        E 16 b1 0b 33
        E 16 b1 0b 44
        E 16 b1 0b 55
        E 16 b1 0b 5d
        E 32 b1 0b 55
        E 16 b1 0b 4c
        E 16 b1 0b 44
        E 16 b1 0b 3b
        E 32 b1 0b 33
        E 32 b1 0b 22
        E 0 81 3f 00
        E 0 91 3e 22
        E 16 b1 0b 33
        E 16 b1 0b 44
        E 16 b1 0b 55
        E 16 b1 0b 5d
        E 32 b1 0b 55
        E 16 b1 0b 4c
        E 16 b1 0b 44
        E 16 b1 0b 3b
        E 32 b1 0b 33
        E 48 b1 0b 22
        E 0 81 3e 00
        E 0 91 3c 22
        E 16 b1 0b 33
        E 16 b1 0b 44
        E 16 b1 0b 55
        E 16 b1 0b 5d
        E 32 b1 0b 55
        E 16 b1 0b 4c
        E 16 b1 0b 44
        E 16 b1 0b 3b
        E 32 b1 0b 33
        E 672 b1 0b 22
        E 0 81 3c 00
        E 0 91 3e 22
        E 16 b1 0b 33
        E 16 b1 0b 44
        E 16 b1 0b 55
        E 16 b1 0b 5d
        E 32 b1 0b 55
        E 16 b1 0b 4c
        E 16 b1 0b 44
        E 16 b1 0b 3b
        E 32 b1 0b 33
        E 256 b1 0b 22
        E 0 81 3e 00
        E 0 91 3c 22
        E 16 b1 0b 33
        E 16 b1 0b 44
        E 16 b1 0b 55
        E 16 b1 0b 5d
        E 32 b1 0b 55
        E 16 b1 0b 4c
        E 16 b1 0b 44
        E 16 b1 0b 3b
        E 32 b1 0b 33
        E 32 b1 0b 22
        E 0 81 3c 00
        E 0 91 3a 22
        E 16 b1 0b 33
        E 16 b1 0b 44
        E 16 b1 0b 55
        E 16 b1 0b 5d
        E 32 b1 0b 55
        E 16 b1 0b 4c
        E 16 b1 0b 44
        E 16 b1 0b 3b
        E 32 b1 0b 33
        E 32 b1 0b 22
        E 0 81 3a 00
        E 0 91 3c 22
        E 16 b1 0b 33
        E 16 b1 0b 44
        E 16 b1 0b 55
        E 16 b1 0b 5d
        E 32 b1 0b 55
        E 16 b1 0b 4c
        E 16 b1 0b 44
        E 16 b1 0b 3b
        E 32 b1 0b 33
        E 1536 b1 0b 22
        E 0 81 3c 00
        E 0 91 2f 22
        E 16 b1 0b 33
        E 16 b1 0b 44
        E 16 b1 0b 55
        E 16 b1 0b 5d
        E 32 b1 0b 55
        E 16 b1 0b 4c
        E 16 b1 0b 44
        E 16 b1 0b 3b
        E 32 b1 0b 33
        E 32 b1 0b 22
        E 0 81 2f 00
        E 0 91 37 22
        E 16 b1 0b 33
        E 16 b1 0b 44
        E 16 b1 0b 55
        E 16 b1 0b 5d
        E 32 b1 0b 55
        E 16 b1 0b 4c
        E 16 b1 0b 44
        E 16 b1 0b 3b
        E 32 b1 0b 33
        E 32 b1 0b 22
        E 0 81 37 00
        E 0 91 5d 22
        E 16 b1 0b 33
        E 16 b1 0b 44
        E 16 b1 0b 55
        E 16 b1 0b 5d
        E 32 b1 0b 55
        E 16 b1 0b 4c
        E 16 b1 0b 44
        E 16 b1 0b 3b
        E 32 b1 0b 33
        E 32 b1 0b 22
        E 0 81 5d 00
        E 0 91 39 22
        E 16 b1 0b 33
        E 16 b1 0b 44
        E 16 b1 0b 55
        E 16 b1 0b 5d
        E 32 b1 0b 55
        E 16 b1 0b 4c
        E 16 b1 0b 44
        E 16 b1 0b 3b
        E 32 b1 0b 33
        E 48 b1 0b 22
        E 16 b1 0b 33
        E 16 b1 0b 44
        E 16 b1 0b 55
        E 16 b1 0b 5d
        E 32 b1 0b 55
        E 16 b1 0b 4c
        E 16 b1 0b 44
        E 16 b1 0b 3b
        E 32 b1 0b 33
        E 32 b1 0b 22
        E 0 81 39 00
        E 0 91 3a 22
        E 16 b1 0b 33
        E 16 b1 0b 44
        E 16 b1 0b 55
        E 16 b1 0b 5d
        E 32 b1 0b 55
        E 16 b1 0b 4c
        E 16 b1 0b 44
        E 16 b1 0b 3b
        E 32 b1 0b 33
        E 32 b1 0b 22
        E 16 b1 0b 33
        E 16 b1 0b 44
        E 16 b1 0b 55
        E 16 b1 0b 5d
        E 32 b1 0b 55
        E 16 b1 0b 4c
        E 16 b1 0b 44
        E 16 b1 0b 3b
        E 32 b1 0b 33
        E 48 b1 0b 22
        E 0 81 3a 00
        E 0 91 3c 22
        E 16 b1 0b 33
        E 16 b1 0b 44
        E 16 b1 0b 55
        E 16 b1 0b 5d
        E 32 b1 0b 55
        E 16 b1 0b 4c
        E 16 b1 0b 44
        E 16 b1 0b 3b
        E 32 b1 0b 33
        E 32 b1 0b 22
        E 16 b1 0b 33
        E 16 b1 0b 44
        E 16 b1 0b 55
        E 16 b1 0b 5d
        E 32 b1 0b 55
        E 16 b1 0b 4c
        E 16 b1 0b 44
        E 16 b1 0b 3b
        E 32 b1 0b 33
        E 672 81 3c 00
        E 208 b1 0b 22
        E 0 91 3f 22
        E 16 b1 0b 33
        E 16 b1 0b 44
        E 16 b1 0b 55
        E 16 b1 0b 5d
        E 32 b1 0b 55
        E 16 b1 0b 4c
        E 16 b1 0b 44
        E 16 b1 0b 3b
        E 32 b1 0b 33
        E 48 b1 0b 22
        E 16 b1 0b 33
        E 16 b1 0b 44
        E 16 b1 0b 55
        E 16 b1 0b 5d
        E 32 b1 0b 55
        E 16 b1 0b 4c
        E 16 b1 0b 44
        E 16 b1 0b 3b
        E 32 b1 0b 33
        E 32 b1 0b 22
        E 0 81 3f 00
        E 0 91 3e 22
        E 16 b1 0b 33
        E 16 b1 0b 44
        E 16 b1 0b 55
        E 16 b1 0b 5d
        E 32 b1 0b 55
        E 16 b1 0b 4c
        E 16 b1 0b 44
        E 16 b1 0b 3b
        E 32 b1 0b 33
        E 32 b1 0b 22
        E 0 81 3e 00
        E 0 91 3c 22
        E 16 b1 0b 33
        E 16 b1 0b 44
        E 16 b1 0b 55
        E 16 b1 0b 5d
        E 32 b1 0b 55
        E 16 b1 0b 4c
        E 16 b1 0b 44
        E 16 b1 0b 3b
        E 32 b1 0b 33
        E 688 b1 0b 22
        E 0 81 3c 00
        E 0 91 3e 22
        E 16 b1 0b 33
        E 16 b1 0b 44
        E 16 b1 0b 55
        E 16 b1 0b 5d
        E 32 b1 0b 55
        E 16 b1 0b 4c
        E 16 b1 0b 44
        E 16 b1 0b 3b
        E 32 b1 0b 33
        E 240 b1 0b 22
        E 0 81 3e 00
        E 0 91 3c 22
        E 16 b1 0b 33
        E 16 b1 0b 44
        E 16 b1 0b 55
        E 16 b1 0b 5d
        E 32 b1 0b 55
        E 16 b1 0b 4c
        E 16 b1 0b 44
        E 16 b1 0b 3b
        E 32 b1 0b 33
        E 32 b1 0b 22
        E 0 81 3c 00
        E 0 91 3a 22
        E 16 b1 0b 33
        E 16 b1 0b 44
        E 16 b1 0b 55
        E 16 b1 0b 5d
        E 32 b1 0b 55
        E 16 b1 0b 4c
        E 16 b1 0b 44
        E 16 b1 0b 3b
        E 32 b1 0b 33
        E 48 b1 0b 22
        E 0 81 3a 00
        E 0 91 3c 22
        E 16 b1 0b 33
        E 16 b1 0b 44
        E 16 b1 0b 55
        E 16 b1 0b 5d
        E 32 b1 0b 55
        E 16 b1 0b 4c
        E 16 b1 0b 44
        E 16 b1 0b 3b
        E 32 b1 0b 33
        E 3008 81 3c 00
        E 224 b1 0b 22
        E 0 91 2d 22
        E 16 b1 0b 33
        E 16 b1 0b 44
        E 16 b1 0b 55
        E 16 b1 0b 5d
        E 32 b1 0b 55
        E 16 b1 0b 4c
        E 16 b1 0b 44
        E 16 b1 0b 3b
        E 32 b1 0b 33
        E 672 81 2d 00
        E 208 b1 0b 22
        E 0 91 32 22
        E 16 b1 0b 33
        E 16 b1 0b 44
        E 16 b1 0b 55
        E 16 b1 0b 5d
        E 32 b1 0b 55
        E 16 b1 0b 4c
        E 16 b1 0b 44
        E 16 b1 0b 3b
        E 32 b1 0b 33
        E 32 b1 0b 22
        E 16 b1 0b 33
        E 16 b1 0b 44
        E 16 b1 0b 55
        E 16 b1 0b 5d
        E 32 b1 0b 55
        E 16 b1 0b 4c
        E 16 b1 0b 44
        E 16 b1 0b 3b
        E 32 b1 0b 33
        E 48 b1 0b 22
        E 0 81 32 00
        E 0 91 33 22
        E 16 b1 0b 33
        E 16 81 33 00
        E 0 b1 7b 00
        E 0 ff 2f 00
      >
    >
  >
  <TRACK {B7236BDB-FABD-45D3-AD20-22ECA69A6E72}
    NAME "NES - Triangle [ch2]"
    PEAKCOL 16744192
    BEAT -1
    AUTOMODE 0
    PANLAWFLAGS 3
    VOLPAN 1 0 -1 -1 1
    MUTESOLO 0 0 0
    IPHASE 0
    PLAYOFFS 0 1
    ISBUS 0 0
    BUSCOMP 0 0 0 0 0
    SHOWINMIX 1 0.6667 0.5 1 0.5 0 0 0
    FIXEDLANES 9 0 0 0 0
    SEL 0
    REC 0 5088 1 0 0 0 0 0
    VU 2
    TRACKHEIGHT 0 0 0 0 0 0 0
    INQ 0 0 0 0.5 100 0 0 100
    NCHAN 2
    FX 1
    TRACKID {B7236BDB-FABD-45D3-AD20-22ECA69A6E72}
    PERF 0
    MIDIOUT -1
    MAINSEND 1 0
    <FXCHAIN
      WNDRECT 24 52 700 560
      SHOW 0
      LASTSEL 0
      DOCKED 0
      BYPASS 0 0 0
      <JS "ReapNES Studio/ReapNES_Console.jsfx" ""
        2 15 1 10 80 10 100 2 1 15 1 5 60 10 80 1 1 0 50 0 0 15 1 0 100 0 0 0.500000 0.500000 0.400000 0.300000 0.800000 2 1 0 0 0 0 - - - - - - - - - - - - - - - - - - - - - - - - - -
      >
      FLOATPOS 0 0 0 0
      FXID {0E19D995-4FF7-4244-BFFD-FCBCCFB49EFB}
      WAK 0 0
    >
    <ITEM
      POSITION 0
      LENGTH 74.4790069
      LOOP 0
      ALLTAKES 0
      FADEIN 0 0 0 0 0 0 0
      FADEOUT 0 0 0 0 0 0 0
      MUTE 0 0
      SEL 0
      IGUID {501F3E98-09BB-4F48-8330-D77B2D632CE6}
      <SOURCE MIDI
        HASDATA 1 480 QN
        CCINTERP 32
        E 0 c2 26
        E 2000 b2 0b 7f
        E 0 92 30 7f
        E 1328 82 30 00
        E 0 b2 0b 7f
        E 0 92 37 7f
        E 1760 82 37 00
        E 0 b2 0b 7f
        E 0 92 35 7f
        E 144 82 35 00
        E 0 b2 0b 7f
        E 0 92 32 7f
        E 3680 82 32 00
        E 0 b2 0b 7f
        E 0 92 30 7f
        E 1712 82 30 00
        E 0 b2 0b 7f
        E 0 92 32 7f
        E 1696 82 32 00
        E 0 b2 0b 7f
        E 0 92 35 7f
        E 1696 82 35 00
        E 0 b2 0b 7f
        E 0 92 32 7f
        E 1712 82 32 00
        E 0 b2 0b 7f
        E 0 92 34 7f
        E 1488 82 34 00
        E 0 b2 0b 7f
        E 0 92 36 7f
        E 208 82 36 00
        E 0 b2 0b 7f
        E 0 92 31 7f
        E 224 82 31 00
        E 0 b2 0b 7f
        E 0 92 36 7f
        E 208 82 36 00
        E 0 b2 0b 7f
        E 0 92 31 7f
        E 208 82 31 00
        E 0 b2 0b 7f
        E 0 92 36 7f
        E 208 82 36 00
        E 0 b2 0b 7f
        E 0 92 31 7f
        E 224 82 31 00
        E 0 b2 0b 7f
        E 0 92 36 7f
        E 208 82 36 00
        E 0 b2 0b 7f
        E 0 92 31 7f
        E 208 82 31 00
        E 0 b2 0b 7f
        E 0 92 34 7f
        E 224 82 34 00
        E 0 b2 0b 7f
        E 0 92 2f 7f
        E 208 82 2f 00
        E 0 b2 0b 7f
        E 0 92 34 7f
        E 208 82 34 00
        E 0 b2 0b 7f
        E 0 92 2f 7f
        E 224 82 2f 00
        E 0 b2 0b 7f
        E 0 92 34 7f
        E 208 82 34 00
        E 0 b2 0b 7f
        E 0 92 2f 7f
        E 208 82 2f 00
        E 0 b2 0b 7f
        E 0 92 34 7f
        E 208 82 34 00
        E 0 b2 0b 7f
        E 0 92 2f 7f
        E 224 82 2f 00
        E 0 b2 0b 7f
        E 0 92 33 7f
        E 208 82 33 00
        E 0 b2 0b 7f
        E 0 92 2e 7f
        E 208 82 2e 00
        E 0 b2 0b 7f
        E 0 92 33 7f
        E 224 82 33 00
        E 0 b2 0b 7f
        E 0 92 2e 7f
        E 208 82 2e 00
        E 0 b2 0b 7f
        E 0 92 33 7f
        E 208 82 33 00
        E 0 b2 0b 7f
        E 0 92 2e 7f
        E 224 82 2e 00
        E 0 b2 0b 7f
        E 0 92 33 7f
        E 208 82 33 00
        E 0 b2 0b 7f
        E 0 92 2e 7f
        E 208 82 2e 00
        E 0 b2 0b 7f
        E 0 92 23 7f
        E 208 82 23 00
        E 0 b2 0b 7f
        E 0 92 5d 7f
        E 224 82 5d 00
        E 0 b2 0b 7f
        E 0 92 23 7f
        E 208 82 23 00
        E 0 b2 0b 7f
        E 0 92 5d 7f
        E 208 82 5d 00
        E 0 b2 0b 7f
        E 0 92 23 7f
        E 224 82 23 00
        E 0 b2 0b 7f
        E 0 92 5d 7f
        E 208 82 5d 00
        E 0 b2 0b 7f
        E 0 92 23 7f
        E 208 82 23 00
        E 0 b2 0b 7f
        E 0 92 5d 7f
        E 224 82 5d 00
        E 0 b2 0b 7f
        E 0 92 21 7f
        E 208 82 21 00
        E 0 b2 0b 7f
        E 0 92 44 7f
        E 208 82 44 00
        E 0 b2 0b 7f
        E 0 92 21 7f
        E 208 82 21 00
        E 0 b2 0b 7f
        E 0 92 44 7f
        E 224 82 44 00
        E 0 b2 0b 7f
        E 0 92 21 7f
        E 208 82 21 00
        E 0 b2 0b 7f
        E 0 92 44 7f
        E 208 82 44 00
        E 0 b2 0b 7f
        E 0 92 21 7f
        E 224 82 21 00
        E 0 b2 0b 7f
        E 0 92 44 7f
        E 208 82 44 00
        E 0 b2 0b 7f
        E 0 92 21 7f
        E 208 82 21 00
        E 0 b2 0b 7f
        E 0 92 44 7f
        E 224 82 44 00
        E 0 b2 0b 7f
        E 0 92 21 7f
        E 208 82 21 00
        E 0 b2 0b 7f
        E 0 92 44 7f
        E 208 82 44 00
        E 0 b2 0b 7f
        E 0 92 21 7f
        E 208 82 21 00
        E 0 b2 0b 7f
        E 0 92 44 7f
        E 224 82 44 00
        E 0 b2 0b 7f
        E 0 92 21 7f
        E 208 82 21 00
        E 0 b2 0b 7f
        E 0 92 44 7f
        E 208 82 44 00
        E 0 b2 0b 7f
        E 0 92 21 7f
        E 224 82 21 00
        E 0 b2 0b 7f
        E 0 92 44 7f
        E 208 82 44 00
        E 0 b2 0b 7f
        E 0 92 21 7f
        E 208 82 21 00
        E 0 b2 0b 7f
        E 0 92 44 7f
        E 224 82 44 00
        E 0 b2 0b 7f
        E 0 92 21 7f
        E 208 82 21 00
        E 0 b2 0b 7f
        E 0 92 44 7f
        E 208 82 44 00
        E 0 b2 0b 7f
        E 0 92 21 7f
        E 208 82 21 00
        E 0 b2 0b 7f
        E 0 92 44 7f
        E 224 82 44 00
        E 0 b2 0b 7f
        E 0 92 33 7f
        E 208 82 33 00
        E 0 b2 0b 7f
        E 0 92 2e 7f
        E 208 82 2e 00
        E 0 b2 0b 7f
        E 0 92 33 7f
        E 224 82 33 00
        E 0 b2 0b 7f
        E 0 92 2e 7f
        E 208 82 2e 00
        E 0 b2 0b 7f
        E 0 92 33 7f
        E 208 82 33 00
        E 0 b2 0b 7f
        E 0 92 2e 7f
        E 208 82 2e 00
        E 0 b2 0b 7f
        E 0 92 33 7f
        E 224 82 33 00
        E 0 b2 0b 7f
        E 0 92 2e 7f
        E 208 82 2e 00
        E 0 b2 0b 7f
        E 0 92 21 7f
        E 208 82 21 00
        E 0 b2 0b 7f
        E 0 92 44 7f
        E 224 82 44 00
        E 0 b2 0b 7f
        E 0 92 21 7f
        E 208 82 21 00
        E 0 b2 0b 7f
        E 0 92 44 7f
        E 208 82 44 00
        E 0 b2 0b 7f
        E 0 92 21 7f
        E 224 82 21 00
        E 0 b2 0b 7f
        E 0 92 44 7f
        E 208 82 44 00
        E 0 b2 0b 7f
        E 0 92 21 7f
        E 208 82 21 00
        E 0 b2 0b 7f
        E 0 92 44 7f
        E 208 82 44 00
        E 0 b2 0b 7f
        E 0 92 21 7f
        E 224 82 21 00
        E 0 b2 0b 7f
        E 0 92 44 7f
        E 208 82 44 00
        E 0 b2 0b 7f
        E 0 92 21 7f
        E 208 82 21 00
        E 0 b2 0b 7f
        E 0 92 44 7f
        E 224 82 44 00
        E 0 b2 0b 7f
        E 0 92 21 7f
        E 208 82 21 00
        E 0 b2 0b 7f
        E 0 92 44 7f
        E 208 82 44 00
        E 0 b2 0b 7f
        E 0 92 21 7f
        E 224 82 21 00
        E 0 b2 0b 7f
        E 0 92 44 7f
        E 208 82 44 00
        E 0 b2 0b 7f
        E 0 92 21 7f
        E 208 82 21 00
        E 0 b2 0b 7f
        E 0 92 44 7f
        E 208 82 44 00
        E 0 b2 0b 7f
        E 0 92 21 7f
        E 224 82 21 00
        E 0 b2 0b 7f
        E 0 92 44 7f
        E 208 82 44 00
        E 0 b2 0b 7f
        E 0 92 21 7f
        E 208 82 21 00
        E 0 b2 0b 7f
        E 0 92 44 7f
        E 224 82 44 00
        E 0 b2 0b 7f
        E 0 92 21 7f
        E 208 82 21 00
        E 0 b2 0b 7f
        E 0 92 44 7f
        E 208 82 44 00
        E 0 b2 0b 7f
        E 0 92 33 7f
        E 224 82 33 00
        E 0 b2 0b 7f
        E 0 92 2e 7f
        E 208 82 2e 00
        E 0 b2 0b 7f
        E 0 92 33 7f
        E 208 82 33 00
        E 0 b2 0b 7f
        E 0 92 2e 7f
        E 208 82 2e 00
        E 0 b2 0b 7f
        E 0 92 33 7f
        E 224 82 33 00
        E 0 b2 0b 7f
        E 0 92 2e 7f
        E 208 82 2e 00
        E 0 b2 0b 7f
        E 0 92 33 7f
        E 208 82 33 00
        E 0 b2 0b 7f
        E 0 92 2e 7f
        E 224 82 2e 00
        E 0 b2 0b 7f
        E 0 92 21 7f
        E 208 82 21 00
        E 0 b2 0b 7f
        E 0 92 44 7f
        E 208 82 44 00
        E 0 b2 0b 7f
        E 0 92 21 7f
        E 224 82 21 00
        E 0 b2 0b 7f
        E 0 92 44 7f
        E 208 82 44 00
        E 0 b2 0b 7f
        E 0 92 21 7f
        E 208 82 21 00
        E 0 b2 0b 7f
        E 0 92 44 7f
        E 208 82 44 00
        E 0 b2 0b 7f
        E 0 92 21 7f
        E 224 82 21 00
        E 0 b2 0b 7f
        E 0 92 44 7f
        E 208 82 44 00
        E 0 b2 0b 7f
        E 0 92 21 7f
        E 208 82 21 00
        E 0 b2 0b 7f
        E 0 92 44 7f
        E 224 82 44 00
        E 0 b2 0b 7f
        E 0 92 21 7f
        E 208 82 21 00
        E 0 b2 0b 7f
        E 0 92 44 7f
        E 208 82 44 00
        E 0 b2 0b 7f
        E 0 92 21 7f
        E 224 82 21 00
        E 0 b2 0b 7f
        E 0 92 44 7f
        E 208 82 44 00
        E 0 b2 0b 7f
        E 0 92 21 7f
        E 208 82 21 00
        E 0 b2 0b 7f
        E 0 92 44 7f
        E 208 82 44 00
        E 0 b2 0b 7f
        E 0 92 35 7f
        E 224 82 35 00
        E 0 b2 0b 7f
        E 0 92 30 7f
        E 208 82 30 00
        E 0 b2 0b 7f
        E 0 92 35 7f
        E 208 82 35 00
        E 0 b2 0b 7f
        E 0 92 30 7f
        E 224 82 30 00
        E 0 b2 0b 7f
        E 0 92 35 7f
        E 208 82 35 00
        E 0 b2 0b 7f
        E 0 92 30 7f
        E 208 82 30 00
        E 0 b2 0b 7f
        E 0 92 35 7f
        E 224 82 35 00
        E 0 b2 0b 7f
        E 0 92 30 7f
        E 208 82 30 00
        E 0 b2 0b 7f
        E 0 92 33 7f
        E 208 82 33 00
        E 0 b2 0b 7f
        E 0 92 2e 7f
        E 208 82 2e 00
        E 0 b2 0b 7f
        E 0 92 33 7f
        E 224 82 33 00
        E 0 b2 0b 7f
        E 0 92 2e 7f
        E 208 82 2e 00
        E 0 b2 0b 7f
        E 0 92 33 7f
        E 208 82 33 00
        E 0 b2 0b 7f
        E 0 92 2e 7f
        E 224 82 2e 00
        E 0 b2 0b 7f
        E 0 92 33 7f
        E 208 82 33 00
        E 0 b2 0b 7f
        E 0 92 2e 7f
        E 208 82 2e 00
        E 0 b2 0b 7f
        E 0 92 21 7f
        E 224 82 21 00
        E 0 b2 0b 7f
        E 0 92 44 7f
        E 208 82 44 00
        E 0 b2 0b 7f
        E 0 92 21 7f
        E 208 82 21 00
        E 0 b2 0b 7f
        E 0 92 44 7f
        E 208 82 44 00
        E 0 b2 0b 7f
        E 0 92 21 7f
        E 224 82 21 00
        E 0 b2 0b 7f
        E 0 92 44 7f
        E 208 82 44 00
        E 0 b2 0b 7f
        E 0 92 21 7f
        E 208 82 21 00
        E 0 b2 0b 7f
        E 0 92 44 7f
        E 224 82 44 00
        E 0 b2 0b 7f
        E 0 92 21 7f
        E 208 82 21 00
        E 0 b2 0b 7f
        E 0 92 44 7f
        E 208 82 44 00
        E 0 b2 0b 7f
        E 0 92 21 7f
        E 208 82 21 00
        E 0 b2 0b 7f
        E 0 92 44 7f
        E 224 82 44 00
        E 0 b2 0b 7f
        E 0 92 21 7f
        E 208 82 21 00
        E 0 b2 0b 7f
        E 0 92 44 7f
        E 208 82 44 00
        E 0 b2 0b 7f
        E 0 92 21 7f
        E 224 82 21 00
        E 0 b2 0b 7f
        E 0 92 44 7f
        E 208 82 44 00
        E 0 b2 0b 7f
        E 0 92 37 7f
        E 208 82 37 00
        E 0 b2 0b 7f
        E 0 92 32 7f
        E 224 82 32 00
        E 0 b2 0b 7f
        E 0 92 37 7f
        E 208 82 37 00
        E 0 b2 0b 7f
        E 0 92 32 7f
        E 208 82 32 00
        E 0 b2 0b 7f
        E 0 92 37 7f
        E 208 82 37 00
        E 0 b2 0b 7f
        E 0 92 32 7f
        E 224 82 32 00
        E 0 b2 0b 7f
        E 0 92 37 7f
        E 208 82 37 00
        E 0 b2 0b 7f
        E 0 92 32 7f
        E 208 82 32 00
        E 0 b2 0b 7f
        E 0 92 35 7f
        E 224 82 35 00
        E 0 b2 0b 7f
        E 0 92 30 7f
        E 208 82 30 00
        E 0 b2 0b 7f
        E 0 92 35 7f
        E 208 82 35 00
        E 0 b2 0b 7f
        E 0 92 30 7f
        E 224 82 30 00
        E 0 b2 0b 7f
        E 0 92 35 7f
        E 208 82 35 00
        E 0 b2 0b 7f
        E 0 92 30 7f
        E 208 82 30 00
        E 0 b2 0b 7f
        E 0 92 35 7f
        E 208 82 35 00
        E 0 b2 0b 7f
        E 0 92 30 7f
        E 224 82 30 00
        E 0 b2 0b 7f
        E 0 92 33 7f
        E 208 82 33 00
        E 0 b2 0b 7f
        E 0 92 2e 7f
        E 208 82 2e 00
        E 0 b2 0b 7f
        E 0 92 33 7f
        E 224 82 33 00
        E 0 b2 0b 7f
        E 0 92 2e 7f
        E 208 82 2e 00
        E 0 b2 0b 7f
        E 0 92 33 7f
        E 208 82 33 00
        E 0 b2 0b 7f
        E 0 92 2e 7f
        E 224 82 2e 00
        E 0 b2 0b 7f
        E 0 92 33 7f
        E 208 82 33 00
        E 0 b2 0b 7f
        E 0 92 2e 7f
        E 208 82 2e 00
        E 0 b2 0b 7f
        E 0 92 33 7f
        E 208 82 33 00
        E 0 b2 0b 7f
        E 0 92 2e 7f
        E 224 82 2e 00
        E 0 b2 0b 7f
        E 0 92 33 7f
        E 208 82 33 00
        E 0 b2 0b 7f
        E 0 92 2e 7f
        E 208 82 2e 00
        E 0 b2 0b 7f
        E 0 92 33 7f
        E 224 82 33 00
        E 0 b2 0b 7f
        E 0 92 2e 7f
        E 208 82 2e 00
        E 0 b2 0b 7f
        E 0 92 33 7f
        E 208 82 33 00
        E 0 b2 0b 7f
        E 0 92 2e 7f
        E 224 82 2e 00
        E 0 b2 0b 7f
        E 0 92 37 7f
        E 208 82 37 00
        E 0 b2 0b 7f
        E 0 92 32 7f
        E 208 82 32 00
        E 0 b2 0b 7f
        E 0 92 37 7f
        E 208 82 37 00
        E 0 b2 0b 7f
        E 0 92 32 7f
        E 224 82 32 00
        E 0 b2 0b 7f
        E 0 92 37 7f
        E 208 82 37 00
        E 0 b2 0b 7f
        E 0 92 32 7f
        E 208 82 32 00
        E 0 b2 0b 7f
        E 0 92 37 7f
        E 224 82 37 00
        E 0 b2 0b 7f
        E 0 92 32 7f
        E 208 82 32 00
        E 0 b2 0b 7f
        E 0 92 35 7f
        E 208 82 35 00
        E 0 b2 0b 7f
        E 0 92 30 7f
        E 224 82 30 00
        E 0 b2 0b 7f
        E 0 92 35 7f
        E 208 82 35 00
        E 0 b2 0b 7f
        E 0 92 30 7f
        E 208 82 30 00
        E 0 b2 0b 7f
        E 0 92 35 7f
        E 208 82 35 00
        E 0 b2 0b 7f
        E 0 92 30 7f
        E 224 82 30 00
        E 0 b2 0b 7f
        E 0 92 35 7f
        E 208 82 35 00
        E 0 b2 0b 7f
        E 0 92 30 7f
        E 208 82 30 00
        E 0 b2 0b 7f
        E 0 92 21 7f
        E 224 82 21 00
        E 0 b2 0b 7f
        E 0 92 44 7f
        E 208 82 44 00
        E 0 b2 0b 7f
        E 0 92 21 7f
        E 208 82 21 00
        E 0 b2 0b 7f
        E 0 92 44 7f
        E 224 82 44 00
        E 0 b2 0b 7f
        E 0 92 21 7f
        E 208 82 21 00
        E 0 b2 0b 7f
        E 0 92 44 7f
        E 208 82 44 00
        E 0 b2 0b 7f
        E 0 92 21 7f
        E 208 82 21 00
        E 0 b2 0b 7f
        E 0 92 44 7f
        E 224 82 44 00
        E 0 b2 0b 7f
        E 0 92 21 7f
        E 208 82 21 00
        E 0 b2 0b 7f
        E 0 92 44 7f
        E 208 82 44 00
        E 0 b2 0b 7f
        E 0 92 21 7f
        E 224 82 21 00
        E 0 b2 0b 7f
        E 0 92 44 7f
        E 208 82 44 00
        E 0 b2 0b 7f
        E 0 92 21 7f
        E 208 82 21 00
        E 0 b2 0b 7f
        E 0 92 44 7f
        E 224 82 44 00
        E 0 b2 0b 7f
        E 0 92 21 7f
        E 208 82 21 00
        E 0 b2 0b 7f
        E 0 92 44 7f
        E 208 82 44 00
        E 0 b2 0b 7f
        E 0 92 33 7f
        E 208 82 33 00
        E 0 b2 0b 7f
        E 0 92 2e 7f
        E 224 82 2e 00
        E 0 b2 0b 7f
        E 0 92 33 7f
        E 208 82 33 00
        E 0 b2 0b 7f
        E 0 92 2e 7f
        E 208 82 2e 00
        E 0 b2 0b 7f
        E 0 92 33 7f
        E 224 82 33 00
        E 0 b2 0b 7f
        E 0 92 2e 7f
        E 208 82 2e 00
        E 0 b2 0b 7f
        E 0 92 33 7f
        E 208 82 33 00
        E 0 b2 0b 7f
        E 0 92 2e 7f
        E 208 82 2e 00
        E 0 b2 0b 7f
        E 0 92 35 7f
        E 224 82 35 00
        E 0 b2 0b 7f
        E 0 92 30 7f
        E 208 82 30 00
        E 0 b2 0b 7f
        E 0 92 35 7f
        E 208 82 35 00
        E 0 b2 0b 7f
        E 0 92 30 7f
        E 224 82 30 00
        E 0 b2 0b 7f
        E 0 92 35 7f
        E 208 82 35 00
        E 0 b2 0b 7f
        E 0 92 30 7f
        E 208 82 30 00
        E 0 b2 0b 7f
        E 0 92 35 7f
        E 224 82 35 00
        E 0 b2 0b 7f
        E 0 92 30 7f
        E 208 82 30 00
        E 0 b2 0b 7f
        E 0 92 21 7f
        E 208 82 21 00
        E 0 b2 0b 7f
        E 0 92 44 7f
        E 208 82 44 00
        E 0 b2 0b 7f
        E 0 92 21 7f
        E 224 82 21 00
        E 0 b2 0b 7f
        E 0 92 44 7f
        E 208 82 44 00
        E 0 b2 0b 7f
        E 0 92 21 7f
        E 208 82 21 00
        E 0 b2 0b 7f
        E 0 92 44 7f
        E 224 82 44 00
        E 0 b2 0b 7f
        E 0 92 21 7f
        E 208 82 21 00
        E 0 b2 0b 7f
        E 0 92 44 7f
        E 208 82 44 00
        E 0 b2 0b 7f
        E 0 92 21 7f
        E 224 82 21 00
        E 0 b2 0b 7f
        E 0 92 44 7f
        E 208 82 44 00
        E 0 b2 0b 7f
        E 0 92 21 7f
        E 208 82 21 00
        E 0 b2 0b 7f
        E 0 92 44 7f
        E 208 82 44 00
        E 0 b2 0b 7f
        E 0 92 21 7f
        E 224 82 21 00
        E 0 b2 0b 7f
        E 0 92 44 7f
        E 208 82 44 00
        E 0 b2 0b 7f
        E 0 92 21 7f
        E 208 82 21 00
        E 0 b2 0b 7f
        E 0 92 44 7f
        E 224 82 44 00
        E 0 b2 0b 7f
        E 0 92 33 7f
        E 208 82 33 00
        E 0 b2 0b 7f
        E 0 92 2e 7f
        E 208 82 2e 00
        E 0 b2 0b 7f
        E 0 92 33 7f
        E 224 82 33 00
        E 0 b2 0b 7f
        E 0 92 2e 7f
        E 208 82 2e 00
        E 0 b2 0b 7f
        E 0 92 33 7f
        E 208 82 33 00
        E 0 b2 0b 7f
        E 0 92 2e 7f
        E 208 82 2e 00
        E 0 b2 0b 7f
        E 0 92 33 7f
        E 224 82 33 00
        E 0 b2 0b 7f
        E 0 92 2e 7f
        E 208 82 2e 00
        E 0 b2 0b 7f
        E 0 92 35 7f
        E 208 82 35 00
        E 0 b2 0b 7f
        E 0 92 30 7f
        E 224 82 30 00
        E 0 b2 0b 7f
        E 0 92 35 7f
        E 208 82 35 00
        E 0 b2 0b 7f
        E 0 92 30 7f
        E 208 82 30 00
        E 0 b2 0b 7f
        E 0 92 35 7f
        E 224 82 35 00
        E 0 b2 0b 7f
        E 0 92 30 7f
        E 208 82 30 00
        E 0 b2 0b 7f
        E 0 92 35 7f
        E 208 82 35 00
        E 0 b2 0b 7f
        E 0 92 30 7f
        E 208 82 30 00
        E 0 b2 0b 7f
        E 0 92 21 7f
        E 224 82 21 00
        E 0 b2 0b 7f
        E 0 92 44 7f
        E 208 82 44 00
        E 0 b2 0b 7f
        E 0 92 21 7f
        E 208 82 21 00
        E 0 b2 0b 7f
        E 0 92 44 7f
        E 224 82 44 00
        E 0 b2 0b 7f
        E 0 92 21 7f
        E 208 82 21 00
        E 0 b2 0b 7f
        E 0 92 44 7f
        E 208 82 44 00
        E 0 b2 0b 7f
        E 0 92 21 7f
        E 224 82 21 00
        E 0 b2 0b 7f
        E 0 92 44 7f
        E 208 82 44 00
        E 0 b2 0b 7f
        E 0 92 21 7f
        E 208 82 21 00
        E 0 b2 0b 7f
        E 0 92 44 7f
        E 208 82 44 00
        E 0 b2 0b 7f
        E 0 92 21 7f
        E 224 82 21 00
        E 0 b2 0b 7f
        E 0 92 44 7f
        E 208 82 44 00
        E 0 b2 0b 7f
        E 0 92 21 7f
        E 208 82 21 00
        E 0 b2 0b 7f
        E 0 92 44 7f
        E 224 82 44 00
        E 0 b2 0b 7f
        E 0 92 21 7f
        E 208 82 21 00
        E 0 b2 0b 7f
        E 0 92 44 7f
        E 208 82 44 00
        E 0 b2 0b 7f
        E 0 92 21 7f
        E 224 82 21 00
        E 0 b2 0b 7f
        E 0 92 44 7f
        E 208 82 44 00
        E 0 b2 0b 7f
        E 0 92 21 7f
        E 208 82 21 00
        E 0 b2 0b 7f
        E 0 92 44 7f
        E 208 82 44 00
        E 0 b2 0b 7f
        E 0 92 21 7f
        E 224 82 21 00
        E 0 b2 0b 7f
        E 0 92 44 7f
        E 208 82 44 00
        E 0 b2 0b 7f
        E 0 92 21 7f
        E 208 82 21 00
        E 0 b2 0b 7f
        E 0 92 44 7f
        E 48 82 44 00
        E 0 b2 7b 00
        E 0 ff 2f 00
      >
    >
  >
  <TRACK {31FA3875-1D66-4672-8E26-4D242D01523D}
    NAME "NES - Noise / Drums [ch3]"
    PEAKCOL 11184810
    BEAT -1
    AUTOMODE 0
    PANLAWFLAGS 3
    VOLPAN 1 0 -1 -1 1
    MUTESOLO 0 0 0
    IPHASE 0
    PLAYOFFS 0 1
    ISBUS 0 0
    BUSCOMP 0 0 0 0 0
    SHOWINMIX 1 0.6667 0.5 1 0.5 0 0 0
    FIXEDLANES 9 0 0 0 0
    SEL 0
    REC 0 5088 1 0 0 0 0 0
    VU 2
    TRACKHEIGHT 0 0 0 0 0 0 0
    INQ 0 0 0 0.5 100 0 0 100
    NCHAN 2
    FX 1
    TRACKID {31FA3875-1D66-4672-8E26-4D242D01523D}
    PERF 0
    MIDIOUT -1
    MAINSEND 1 0
    <FXCHAIN
      WNDRECT 24 52 700 560
      SHOW 0
      LASTSEL 0
      DOCKED 0
      BYPASS 0 0 0
      <JS "ReapNES Studio/ReapNES_Console.jsfx" ""
        2 15 1 10 80 10 100 2 1 15 1 5 60 10 80 1 1 0 50 0 0 15 1 0 100 0 0 0.500000 0.500000 0.400000 0.300000 0.800000 3 1 0 0 0 0 - - - - - - - - - - - - - - - - - - - - - - - - - -
      >
      FLOATPOS 0 0 0 0
      FXID {2D3EFD10-AF20-4A57-B3C4-21DD945EBEBD}
      WAK 0 0
    >
    <ITEM
      POSITION 0
      LENGTH 74.4790069
      LOOP 0
      ALLTAKES 0
      FADEIN 0 0 0 0 0 0 0
      FADEOUT 0 0 0 0 0 0 0
      MUTE 0 0
      SEL 0
      IGUID {195F25CD-7FB8-49E7-A08F-9CABEFB60D67}
      <SOURCE MIDI
        HASDATA 1 480 QN
        CCINTERP 32
        E 5088 93 2a 66
        E 576 83 2a 00
        E 272 93 2a 66
        E 144 83 2a 00
        E 288 93 2a 66
        E 144 83 2a 00
        E 272 93 2a 66
        E 1424 83 2a 00
        E 304 93 2a 7f
        E 96 83 2a 00
        E 0 93 2a 7f
        E 96 83 2a 00
        E 0 93 2a 7f
        E 96 83 2a 00
        E 0 93 2a 7f
        E 96 83 2a 00
        E 0 93 2a 7f
        E 96 83 2a 00
        E 0 93 2a 7f
        E 96 83 2a 00
        E 0 93 2a 7f
        E 96 83 2a 00
        E 0 93 2a 7f
        E 96 83 2a 00
        E 0 93 2a 7f
        E 96 83 2a 00
        E 0 93 2a 7f
        E 96 83 2a 00
        E 0 93 2a 7f
        E 96 83 2a 00
        E 0 93 2a 7f
        E 96 83 2a 00
        E 0 93 2a 7f
        E 96 83 2a 00
        E 0 93 2a 7f
        E 768 83 2a 00
        E 96 93 2a 66
        E 144 83 2a 00
        E 704 93 2a 66
        E 144 83 2a 00
        E 704 93 2a 66
        E 144 83 2a 00
        E 704 93 2a 66
        E 144 83 2a 00
        E 704 93 2a 66
        E 144 83 2a 00
        E 720 93 2a 66
        E 144 83 2a 00
        E 272 93 2a 66
        E 144 83 2a 00
        E 288 93 2a 66
        E 144 83 2a 00
        E 272 93 2a 66
        E 144 83 2a 00
        E 80 93 2a 66
        E 144 83 2a 00
        E 64 93 2a 66
        E 144 83 2a 00
        E 64 93 2a 66
        E 144 83 2a 00
        E 96 93 2a 7f
        E 96 83 2a 00
        E 0 93 2a 7f
        E 96 83 2a 00
        E 0 93 2a 7f
        E 96 83 2a 00
        E 0 93 2a 7f
        E 96 83 2a 00
        E 0 93 2a 7f
        E 96 83 2a 00
        E 0 93 2a 7f
        E 96 83 2a 00
        E 0 93 2a 77
        E 96 83 2a 00
        E 0 93 2a 77
        E 96 83 2a 00
        E 0 93 2a 77
        E 96 83 2a 00
        E 0 93 2a 77
        E 96 83 2a 00
        E 0 93 2a 77
        E 96 83 2a 00
        E 0 93 2a 6e
        E 96 83 2a 00
        E 0 93 2a 6e
        E 96 83 2a 00
        E 0 93 2a 6e
        E 768 83 2a 00
        E 96 93 2a 66
        E 144 83 2a 00
        E 704 93 2a 66
        E 144 83 2a 00
        E 704 93 2a 66
        E 144 83 2a 00
        E 704 93 2a 66
        E 144 83 2a 00
        E 704 93 2a 66
        E 144 83 2a 00
        E 720 93 2a 66
        E 144 83 2a 00
        E 704 93 2a 66
        E 144 83 2a 00
        E 704 93 2a 66
        E 144 83 2a 00
        E 704 93 2a 66
        E 144 83 2a 00
        E 704 93 2a 66
        E 144 83 2a 00
        E 720 93 2a 66
        E 144 83 2a 00
        E 704 93 2a 66
        E 144 83 2a 00
        E 704 93 2a 66
        E 144 83 2a 00
        E 704 93 2a 66
        E 144 83 2a 00
        E 704 93 2a 66
        E 144 83 2a 00
        E 720 93 2a 66
        E 144 83 2a 00
        E 704 93 2a 66
        E 144 83 2a 00
        E 704 93 2a 66
        E 144 83 2a 00
        E 704 93 2a 66
        E 144 83 2a 00
        E 704 93 2a 66
        E 144 83 2a 00
        E 720 93 2a 66
        E 144 83 2a 00
        E 704 93 2a 66
        E 144 83 2a 00
        E 704 93 2a 66
        E 144 83 2a 00
        E 704 93 2a 66
        E 144 83 2a 00
        E 704 93 2a 66
        E 144 83 2a 00
        E 720 93 2a 66
        E 144 83 2a 00
        E 704 93 2a 66
        E 144 83 2a 00
        E 704 93 2a 66
        E 144 83 2a 00
        E 704 93 2a 66
        E 144 83 2a 00
        E 704 93 2a 66
        E 144 83 2a 00
        E 720 93 2a 66
        E 144 83 2a 00
        E 704 93 2a 66
        E 144 83 2a 00
        E 704 93 2a 66
        E 144 83 2a 00
        E 704 93 2a 66
        E 144 83 2a 00
        E 704 93 2a 66
        E 144 83 2a 00
        E 704 93 2a 66
        E 144 83 2a 00
        E 720 93 2a 66
        E 144 83 2a 00
        E 704 93 2a 66
        E 144 83 2a 00
        E 704 93 2a 66
        E 144 83 2a 00
        E 704 93 2a 66
        E 144 83 2a 00
        E 704 93 2a 66
        E 144 83 2a 00
        E 720 93 2a 66
        E 144 83 2a 00
        E 704 93 2a 66
        E 144 83 2a 00
        E 704 93 2a 66
        E 144 83 2a 00
        E 704 93 2a 66
        E 144 83 2a 00
        E 704 93 2a 66
        E 144 83 2a 00
        E 720 93 2a 66
        E 144 83 2a 00
        E 704 93 2a 66
        E 144 83 2a 00
        E 704 93 2a 66
        E 144 83 2a 00
        E 704 93 2a 66
        E 144 83 2a 00
        E 704 93 2a 66
        E 144 83 2a 00
        E 720 93 2a 66
        E 144 83 2a 00
        E 704 93 2a 66
        E 144 83 2a 00
        E 704 93 2a 66
        E 144 83 2a 00
        E 704 93 2a 66
        E 144 83 2a 00
        E 704 93 2a 66
        E 144 83 2a 00
        E 720 93 2a 66
        E 144 83 2a 00
        E 704 93 2a 66
        E 144 83 2a 00
        E 704 93 2a 66
        E 144 83 2a 00
        E 704 93 2a 66
        E 144 83 2a 00
        E 704 93 2a 66
        E 144 83 2a 00
        E 720 93 2a 66
        E 144 83 2a 00
        E 704 93 2a 66
        E 144 83 2a 00
        E 704 93 2a 66
        E 144 83 2a 00
        E 704 93 2a 66
        E 144 83 2a 00
        E 704 93 2a 66
        E 144 83 2a 00
        E 720 93 2a 66
        E 144 83 2a 00
        E 704 93 2a 66
        E 144 83 2a 00
        E 320 b3 7b 00
        E 0 ff 2f 00
      >
    >
  >
>