<REAPER_PROJECT 0.1 "7.27/win64" 1707000000
  <NOTES 0 2
    |ReapNES Studio Project
    |MIDI Import - Mega_Man_1_title_rom_v1
  >
  RIPPLE 0
  GROUPOVERRIDE 0 0 0
  AUTOXFADE 129
  ENVATTACH 3
  POOLEDENVATTACH 0
  MIXERUIFLAGS 11 48
  ENVFADESZ10 40
  PEAKGAIN 1
  FEEDBACK 0
  PANLAW 1
  PROJOFFS 0 0 0
  MAXPROJLEN 0 0
  GRID 3199 8 1 8 1 0 0 0
  TIMEMODE 1 5 -1 30 0 0 -1
  VIDEO_CONFIG 0 0 65792
  PANMODE 3
  PANLAWFLAGS 3
  CURSOR 0
  ZOOM 100 0 0
  VZOOMEX 6 0
  USE_REC_CFG 0
  RECMODE 1
  SMPTESYNC 0 30 100 40 1000 300 0 0 1 0 0
  LOOP 0
  LOOPGRAN 0 4
  RECORD_PATH "Media" ""
  <RECORD_CFG
    ZXZhdxgAAQ==
  >
  <APPLYFX_CFG
  >
  RENDER_FILE ""
  RENDER_PATTERN ""
  RENDER_FMT 0 2 0
  RENDER_1X 0
  RENDER_RANGE 1 0 0 18 1000
  RENDER_RESAMPLE 3 0 1
  RENDER_ADDTOPROJ 0
  RENDER_STEMS 0
  RENDER_DITHER 0
  TIMELOCKMODE 1
  TEMPOENVLOCKMODE 1
  ITEMMIX 1
  DEFPITCHMODE 589824 0
  TAKELANE 1
  SAMPLERATE 44100 0 0
  <RENDER_CFG
    ZXZhdxgAAQ==
  >
  LOCK 1
  <METRONOME 6 2
    VOL 0.25 0.125
    BEATLEN 4
    FREQ 1760 880 1
    SAMPLES "" ""
    SPLIGNORE 0 0
    SPLDEF 2 660 "" 0
    SPLDEF 3 440 "" 0
    PATTERN 0 169
    PATTERNSTR ABBB
    MULT 1
  >
  GLOBAL_AUTO -1
  TEMPO 128.59999614200012 4 4
  PLAYRATE 1 0 0.25 4
  SELECTION 0 0
  SELECTION2 0 0
  MASTERAUTOMODE 0
  MASTERTRACKHEIGHT 0 0
  MASTERPEAKCOL 16576
  MASTERMUTESOLO 0
  MASTERTRACKVIEW 0 0.6667 0.5 0.5 0 0 0 0 0 0 0 0 0 0
  MASTERHWOUT 0 0 1 0 0 0 0 -1
  MASTER_NCH 2 2
  MASTER_VOLUME 1 0 -1 -1 1
  MASTER_PANMODE 3
  MASTER_PANLAWFLAGS 3
  MASTER_FX 1
  MASTER_SEL 0
  <MASTERPLAYSPEEDENV
    EGUID {8AE323BC-D50D-4847-A4D4-E548B6A5E90B}
    ACT 0 -1
    VIS 0 1 1
    LANEHEIGHT 0 0
    ARM 0
    DEFSHAPE 0 -1 -1
  >
  <TEMPOENVEX
    EGUID {6E5BA93A-6356-4243-ABC8-0A45960774C1}
    ACT 1 -1
    VIS 1 0 1
    LANEHEIGHT 0 0
    ARM 0
    DEFSHAPE 1 -1 -1
  >
  <PROJBAY
  >
  <TRACK {B9E9D885-28E5-4DCF-A98C-85A98F12C74A}
    NAME "NES - Pulse 1 [ch0]"
    PEAKCOL 16576606
    BEAT -1
    AUTOMODE 0
    PANLAWFLAGS 3
    VOLPAN 1 0 -1 -1 1
    MUTESOLO 0 0 0
    IPHASE 0
    PLAYOFFS 0 1
    ISBUS 0 0
    BUSCOMP 0 0 0 0 0
    SHOWINMIX 1 0.6667 0.5 1 0.5 0 0 0
    FIXEDLANES 9 0 0 0 0
    SEL 1
    REC 1 5088 1 0 0 0 0 0
    VU 2
    TRACKHEIGHT 0 0 0 0 0 0 0
    INQ 0 0 0 0.5 100 0 0 100
    NCHAN 2
    FX 1
    TRACKID {B9E9D885-28E5-4DCF-A98C-85A98F12C74A}
    PERF 0
    MIDIOUT -1
    MAINSEND 1 0
    <FXCHAIN
      WNDRECT 24 52 700 560
      SHOW 0
      LASTSEL 0
      DOCKED 0
      BYPASS 0 0 0
      <JS "ReapNES Studio/ReapNES_Console.jsfx" ""
        3 15 1 0 300 12 50 3 1 15 1 5 60 10 80 1 1 0 50 0 0 15 1 0 100 0 0 0.500000 0.500000 0.400000 0.300000 0.800000 0 1 0 0 0 0 - - - - - - - - - - - - - - - - - - - - - - - - - -
      >
      FLOATPOS 0 0 0 0
      FXID {4E11658A-72F6-4AE2-9F73-882FCB74556F}
      WAK 0 0
    >
    <ITEM
      POSITION 0
      LENGTH 71.6640768
      LOOP 0
      ALLTAKES 0
      FADEIN 0 0 0 0 0 0 0
      FADEOUT 0 0 0 0 0 0 0
      MUTE 0 0
      SEL 0
      IGUID {F9AA85B6-B1CB-4FEA-8FAF-70B83BF11204}
      <SOURCE MIDI
        HASDATA 1 480 QN
        CCINTERP 32
        E 0 c0 50
        E 0 b0 0c 60
        E 0 b0 0b 44
        E 0 90 3c 44
        E 112 80 3c 00
        E 16 90 3c 44
        E 112 80 3c 00
        E 16 90 3c 44
        E 112 80 3c 00
        E 16 90 3a 44
        E 112 80 3a 00
        E 16 90 3a 44
        E 112 80 3a 00
        E 16 90 3a 44
        E 112 80 3a 00
        E 16 90 3d 44
        E 112 80 3d 00
        E 16 90 3d 44
        E 112 80 3d 00
        E 16 90 3d 44
        E 112 80 3d 00
        E 16 90 3c 44
        E 112 80 3c 00
        E 16 90 3c 44
        E 112 80 3c 00
        E 16 90 3c 44
        E 112 80 3c 00
        E 16 90 3a 44
        E 112 80 3a 00
        E 16 90 3a 44
        E 112 80 3a 00
        E 16 90 3c 44
        E 112 80 3c 00
        E 16 90 3c 44
        E 112 80 3c 00
        E 16 90 3c 44
        E 112 80 3c 00
        E 16 90 3c 44
        E 112 80 3c 00
        E 16 90 3c 44
        E 112 80 3c 00
        E 16 90 3a 44
        E 112 80 3a 00
        E 16 90 3a 44
        E 112 80 3a 00
        E 16 90 3a 44
        E 112 80 3a 00
        E 16 90 38 44
        E 112 80 38 00
        E 16 90 38 44
        E 112 80 38 00
        E 16 90 38 44
        E 112 80 38 00
        E 16 90 3a 44
        E 112 80 3a 00
        E 16 90 3a 44
        E 112 80 3a 00
        E 16 90 3a 44
        E 112 80 3a 00
        E 16 90 38 44
        E 112 80 38 00
        E 16 90 38 44
        E 112 80 38 00
        E 16 90 3a 44
        E 112 80 3a 00
        E 16 90 3a 44
        E 112 80 3a 00
        E 16 90 3c 44
        E 112 80 3c 00
        E 16 90 3c 44
        E 112 80 3c 00
        E 16 90 3c 44
        E 112 80 3c 00
        E 16 90 3a 44
        E 112 80 3a 00
        E 16 90 3a 44
        E 112 80 3a 00
        E 16 90 3a 44
        E 112 80 3a 00
        E 16 90 3d 44
        E 112 80 3d 00
        E 16 90 3d 44
        E 112 80 3d 00
        E 16 90 3d 44
        E 112 80 3d 00
        E 16 90 3c 44
        E 112 80 3c 00
        E 16 90 3c 44
        E 112 80 3c 00
        E 16 90 3c 44
        E 112 80 3c 00
        E 16 90 3a 44
        E 112 80 3a 00
        E 16 90 3a 44
        E 112 80 3a 00
        E 16 90 3c 44
        E 112 80 3c 00
        E 16 90 3c 44
        E 112 80 3c 00
        E 16 90 3c 44
        E 112 80 3c 00
        E 16 90 3c 44
        E 112 80 3c 00
        E 16 90 3c 44
        E 112 80 3c 00
        E 16 90 3a 44
        E 112 80 3a 00
        E 16 90 3a 44
        E 112 80 3a 00
        E 16 90 3a 44
        E 112 80 3a 00
        E 16 90 38 44
        E 112 80 38 00
        E 16 90 38 44
        E 112 80 38 00
        E 16 90 38 44
        E 112 80 38 00
        E 16 90 3a 44
        E 112 80 3a 00
        E 16 90 3a 44
        E 112 80 3a 00
        E 16 90 3a 44
        E 112 80 3a 00
        E 16 90 38 44
        E 112 80 38 00
        E 16 90 38 44
        E 112 80 38 00
        E 16 90 3a 44
        E 112 80 3a 00
        E 16 90 3a 44
        E 112 80 3a 00
        E 16 90 3c 44
        E 112 80 3c 00
        E 16 90 3c 44
        E 112 80 3c 00
        E 16 90 3c 44
        E 112 80 3c 00
        E 16 90 3a 44
        E 112 80 3a 00
        E 16 90 3a 44
        E 112 80 3a 00
        E 16 90 3a 44
        E 112 80 3a 00
        E 16 90 3d 44
        E 112 80 3d 00
        E 16 90 3d 44
        E 112 80 3d 00
        E 16 90 3d 44
        E 112 80 3d 00
        E 16 90 3c 44
        E 112 80 3c 00
        E 16 90 3c 44
        E 112 80 3c 00
        E 16 90 3c 44
        E 112 80 3c 00
        E 16 90 3a 44
        E 112 80 3a 00
        E 16 90 3a 44
        E 112 80 3a 00
        E 16 90 3c 44
        E 112 80 3c 00
        E 16 90 3c 44
        E 112 80 3c 00
        E 16 90 3c 44
        E 112 80 3c 00
        E 16 90 3c 44
        E 112 80 3c 00
        E 16 90 3c 44
        E 112 80 3c 00
        E 16 90 3a 44
        E 112 80 3a 00
        E 16 90 3a 44
        E 112 80 3a 00
        E 16 90 3a 44
        E 112 80 3a 00
        E 16 90 38 44
        E 112 80 38 00
        E 16 90 38 44
        E 112 80 38 00
        E 16 90 38 44
        E 112 80 38 00
        E 16 90 3a 44
        E 112 80 3a 00
        E 16 90 3a 44
        E 112 80 3a 00
        E 16 90 3a 44
        E 112 80 3a 00
        E 16 90 38 44
        E 112 80 38 00
        E 16 90 38 44
        E 112 80 38 00
        E 16 90 3a 44
        E 112 80 3a 00
        E 16 90 3a 44
        E 112 80 3a 00
        E 16 90 3c 44
        E 112 80 3c 00
        E 16 90 3c 44
        E 112 80 3c 00
        E 16 90 3c 44
        E 112 80 3c 00
        E 16 90 3a 44
        E 112 80 3a 00
        E 16 90 3a 44
        E 112 80 3a 00
        E 16 90 3a 44
        E 112 80 3a 00
        E 16 90 3d 44
        E 112 80 3d 00
        E 16 90 3d 44
        E 112 80 3d 00
        E 16 90 3d 44
        E 112 80 3d 00
        E 16 90 3c 44
        E 112 80 3c 00
        E 16 90 3c 44
        E 112 80 3c 00
        E 16 90 3c 44
        E 112 80 3c 00
        E 16 90 3a 44
        E 112 80 3a 00
        E 16 90 3a 44
        E 112 80 3a 00
        E 16 90 3c 44
        E 112 80 3c 00
        E 16 90 3c 44
        E 112 80 3c 00
        E 16 90 3c 44
        E 112 80 3c 00
        E 16 90 3c 44
        E 112 80 3c 00
        E 16 90 3c 44
        E 112 80 3c 00
        E 16 90 3a 44
        E 112 80 3a 00
        E 16 90 3a 44
        E 112 80 3a 00
        E 16 90 3a 44
        E 112 80 3a 00
        E 16 90 38 44
        E 112 80 38 00
        E 16 90 38 44
        E 112 80 38 00
        E 16 90 38 44
        E 112 80 38 00
        E 16 90 3a 44
        E 112 80 3a 00
        E 16 90 3a 44
        E 112 80 3a 00
        E 16 90 3a 44
        E 112 80 3a 00
        E 16 90 38 44
        E 112 80 38 00
        E 16 90 38 44
        E 112 80 38 00
        E 16 90 3a 44
        E 112 80 3a 00
        E 16 90 3a 44
        E 112 80 3a 00
        E 16 90 3c 44
        E 112 80 3c 00
        E 16 90 3c 44
        E 112 80 3c 00
        E 16 90 3c 44
        E 112 80 3c 00
        E 16 90 3a 44
        E 112 80 3a 00
        E 16 90 3a 44
        E 112 80 3a 00
        E 16 90 3a 44
        E 112 80 3a 00
        E 16 90 3d 44
        E 112 80 3d 00
        E 16 90 3d 44
        E 112 80 3d 00
        E 16 90 3d 44
        E 112 80 3d 00
        E 16 90 3c 44
        E 112 80 3c 00
        E 16 90 3c 44
        E 112 80 3c 00
        E 16 90 3c 44
        E 112 80 3c 00
        E 16 90 3a 44
        E 112 80 3a 00
        E 16 90 3a 44
        E 112 80 3a 00
        E 16 90 3c 44
        E 112 80 3c 00
        E 16 90 3c 44
        E 112 80 3c 00
        E 16 90 3c 44
        E 112 80 3c 00
        E 16 90 3c 44
        E 112 80 3c 00
        E 16 90 3c 44
        E 112 80 3c 00
        E 16 90 3a 44
        E 112 80 3a 00
        E 16 90 3a 44
        E 112 80 3a 00
        E 16 90 3a 44
        E 112 80 3a 00
        E 16 90 38 44
        E 112 80 38 00
        E 16 90 38 44
        E 112 80 38 00
        E 16 90 38 44
        E 112 80 38 00
        E 16 90 3a 44
        E 112 80 3a 00
        E 16 90 3a 44
        E 112 80 3a 00
        E 16 90 3a 44
        E 112 80 3a 00
        E 16 90 38 44
        E 112 80 38 00
        E 16 90 38 44
        E 112 80 38 00
        E 16 90 3a 44
        E 112 80 3a 00
        E 16 90 3a 44
        E 112 80 3a 00
        E 16 90 3c 44
        E 112 80 3c 00
        E 16 90 3c 44
        E 112 80 3c 00
        E 16 90 3c 44
        E 112 80 3c 00
        E 16 90 3a 44
        E 112 80 3a 00
        E 16 90 3a 44
        E 112 80 3a 00
        E 16 90 3a 44
        E 112 80 3a 00
        E 16 90 3d 44
        E 112 80 3d 00
        E 16 90 3d 44
        E 112 80 3d 00
        E 16 90 3d 44
        E 112 80 3d 00
        E 16 90 3c 44
        E 112 80 3c 00
        E 16 90 3c 44
        E 112 80 3c 00
        E 16 90 3c 44
        E 112 80 3c 00
        E 16 90 3a 44
        E 112 80 3a 00
        E 16 90 3a 44
        E 112 80 3a 00
        E 16 90 3c 44
        E 112 80 3c 00
        E 16 90 3c 44
        E 112 80 3c 00
        E 16 90 3c 44
        E 112 80 3c 00
        E 16 90 3c 44
        E 112 80 3c 00
        E 16 90 3c 44
        E 112 80 3c 00
        E 16 90 3a 44
        E 112 80 3a 00
        E 16 90 3a 44
        E 112 80 3a 00
        E 16 90 3a 44
        E 112 80 3a 00
        E 16 90 38 44
        E 112 80 38 00
        E 16 90 38 44
        E 112 80 38 00
        E 16 90 38 44
        E 112 80 38 00
        E 16 90 3a 44
        E 112 80 3a 00
        E 16 90 3a 44
        E 112 80 3a 00
        E 16 90 3a 44
        E 112 80 3a 00
        E 16 90 38 44
        E 112 80 38 00
        E 16 90 38 44
        E 112 80 38 00
        E 16 90 3a 44
        E 112 80 3a 00
        E 16 90 3a 44
        E 112 80 3a 00
        E 16 90 3c 44
        E 112 80 3c 00
        E 16 90 3c 44
        E 112 80 3c 00
        E 16 90 3c 44
        E 112 80 3c 00
        E 16 90 3a 44
        E 112 80 3a 00
        E 16 90 3a 44
        E 112 80 3a 00
        E 16 90 3a 44
        E 112 80 3a 00
        E 16 90 3d 44
        E 112 80 3d 00
        E 16 90 3d 44
        E 112 80 3d 00
        E 16 90 3d 44
        E 112 80 3d 00
        E 16 90 3c 44
        E 112 80 3c 00
        E 16 90 3c 44
        E 112 80 3c 00
        E 16 90 3c 44
        E 112 80 3c 00
        E 16 90 3a 44
        E 112 80 3a 00
        E 16 90 3a 44
        E 112 80 3a 00
        E 16 90 3c 44
        E 112 80 3c 00
        E 16 90 3c 44
        E 112 80 3c 00
        E 16 90 3c 44
        E 112 80 3c 00
        E 16 90 3c 44
        E 112 80 3c 00
        E 16 90 3c 44
        E 112 80 3c 00
        E 16 90 3a 44
        E 112 80 3a 00
        E 16 90 3a 44
        E 112 80 3a 00
        E 16 90 3a 44
        E 112 80 3a 00
        E 16 90 38 44
        E 112 80 38 00
        E 16 90 38 44
        E 112 80 38 00
        E 16 90 38 44
        E 112 80 38 00
        E 16 90 3a 44
        E 112 80 3a 00
        E 16 90 3a 44
        E 112 80 3a 00
        E 16 90 3a 44
        E 112 80 3a 00
        E 16 90 38 44
        E 112 80 38 00
        E 16 90 38 44
        E 112 80 38 00
        E 16 90 3a 44
        E 112 80 3a 00
        E 16 90 3a 44
        E 112 80 3a 00
        E 16 90 3c 44
        E 112 80 3c 00
        E 16 90 3c 44
        E 112 80 3c 00
        E 16 90 3c 44
        E 112 80 3c 00
        E 16 90 3a 44
        E 112 80 3a 00
        E 16 90 3a 44
        E 112 80 3a 00
        E 16 90 3a 44
        E 112 80 3a 00
        E 16 90 3d 44
        E 112 80 3d 00
        E 16 90 3d 44
        E 112 80 3d 00
        E 16 90 3d 44
        E 112 80 3d 00
        E 16 90 3c 44
        E 112 80 3c 00
        E 16 90 3c 44
        E 112 80 3c 00
        E 16 90 3c 44
        E 112 80 3c 00
        E 16 90 3a 44
        E 112 80 3a 00
        E 16 90 3a 44
        E 112 80 3a 00
        E 16 90 3c 44
        E 112 80 3c 00
        E 16 90 3c 44
        E 112 80 3c 00
        E 16 90 3c 44
        E 112 80 3c 00
        E 16 90 3c 44
        E 112 80 3c 00
        E 16 90 3c 44
        E 112 80 3c 00
        E 16 90 3a 44
        E 112 80 3a 00
        E 16 90 3a 44
        E 112 80 3a 00
        E 16 90 3a 44
        E 112 80 3a 00
        E 16 90 38 44
        E 112 80 38 00
        E 16 90 38 44
        E 112 80 38 00
        E 16 90 38 44
        E 112 80 38 00
        E 16 90 3a 44
        E 112 80 3a 00
        E 16 90 3a 44
        E 112 80 3a 00
        E 16 90 3a 44
        E 112 80 3a 00
        E 16 90 38 44
        E 112 80 38 00
        E 16 90 38 44
        E 112 80 38 00
        E 16 90 3a 44
        E 112 80 3a 00
        E 16 90 3a 44
        E 112 80 3a 00
        E 16 90 3c 44
        E 112 80 3c 00
        E 16 90 3c 44
        E 112 80 3c 00
        E 16 90 3c 44
        E 112 80 3c 00
        E 16 90 3a 44
        E 112 80 3a 00
        E 16 90 3a 44
        E 112 80 3a 00
        E 16 90 3a 44
        E 112 80 3a 00
        E 16 90 3d 44
        E 112 80 3d 00
        E 16 90 3d 44
        E 112 80 3d 00
        E 16 90 3d 44
        E 112 80 3d 00
        E 16 90 3c 44
        E 112 80 3c 00
        E 16 90 3c 44
        E 112 80 3c 00
        E 16 90 3c 44
        E 112 80 3c 00
        E 16 90 3a 44
        E 112 80 3a 00
        E 16 90 3a 44
        E 112 80 3a 00
        E 16 90 3c 44
        E 112 80 3c 00
        E 16 90 3c 44
        E 112 80 3c 00
        E 16 90 3c 44
        E 112 80 3c 00
        E 16 90 3c 44
        E 112 80 3c 00
        E 16 90 3c 44
        E 112 80 3c 00
        E 16 90 3a 44
        E 112 80 3a 00
        E 16 90 3a 44
        E 112 80 3a 00
        E 16 90 3a 44
        E 112 80 3a 00
        E 16 90 38 44
        E 112 80 38 00
        E 16 90 38 44
        E 112 80 38 00
        E 16 90 38 44
        E 112 80 38 00
        E 16 90 3a 44
        E 112 80 3a 00
        E 16 90 3a 44
        E 112 80 3a 00
        E 16 90 3a 44
        E 112 80 3a 00
        E 16 90 38 44
        E 112 80 38 00
        E 16 90 38 44
        E 112 80 38 00
        E 16 90 3a 44
        E 112 80 3a 00
        E 16 90 3a 44
        E 112 80 3a 00
        E 16 90 3c 44
        E 112 80 3c 00
        E 16 90 3c 44
        E 112 80 3c 00
        E 16 90 3c 44
        E 112 80 3c 00
        E 16 90 3a 44
        E 112 80 3a 00
        E 16 90 3a 44
        E 112 80 3a 00
        E 16 90 3a 44
        E 112 80 3a 00
        E 16 90 3d 44
        E 112 80 3d 00
        E 16 90 3d 44
        E 112 80 3d 00
        E 16 90 3d 44
        E 112 80 3d 00
        E 16 90 3c 44
        E 112 80 3c 00
        E 16 90 3c 44
        E 112 80 3c 00
        E 16 90 3c 44
        E 112 80 3c 00
        E 16 90 3a 44
        E 112 80 3a 00
        E 16 90 3a 44
        E 112 80 3a 00
        E 16 90 3c 44
        E 112 80 3c 00
        E 16 90 3c 44
        E 112 80 3c 00
        E 16 90 3c 44
        E 112 80 3c 00
        E 16 90 3c 44
        E 112 80 3c 00
        E 16 90 3c 44
        E 112 80 3c 00
        E 16 90 3a 44
        E 112 80 3a 00
        E 16 90 3a 44
        E 112 80 3a 00
        E 16 90 3a 44
        E 112 80 3a 00
        E 16 90 38 44
        E 112 80 38 00
        E 16 90 38 44
        E 112 80 38 00
        E 16 90 38 44
        E 112 80 38 00
        E 16 90 3a 44
        E 112 80 3a 00
        E 16 90 3a 44
        E 112 80 3a 00
        E 16 90 3a 44
        E 112 80 3a 00
        E 16 90 38 44
        E 112 80 38 00
        E 16 90 38 44
        E 112 80 38 00
        E 16 90 3a 44
        E 112 80 3a 00
        E 16 90 3a 44
        E 112 80 3a 00
        E 16 90 3c 44
        E 112 80 3c 00
        E 16 90 3c 44
        E 112 80 3c 00
        E 16 90 3c 44
        E 112 80 3c 00
        E 16 90 3a 44
        E 112 80 3a 00
        E 16 90 3a 44
        E 112 80 3a 00
        E 16 90 3a 44
        E 112 80 3a 00
        E 16 90 3d 44
        E 112 80 3d 00
        E 16 90 3d 44
        E 112 80 3d 00
        E 16 90 3d 44
        E 112 80 3d 00
        E 16 90 3c 44
        E 112 80 3c 00
        E 16 90 3c 44
        E 112 80 3c 00
        E 16 90 3c 44
        E 112 80 3c 00
        E 16 90 3a 44
        E 112 80 3a 00
        E 16 90 3a 44
        E 112 80 3a 00
        E 16 90 3c 44
        E 112 80 3c 00
        E 16 90 3c 44
        E 112 80 3c 00
        E 16 90 3c 44
        E 112 80 3c 00
        E 16 90 3c 44
        E 112 80 3c 00
        E 16 90 3c 44
        E 112 80 3c 00
        E 16 90 3a 44
        E 112 80 3a 00
        E 16 90 3a 44
        E 112 80 3a 00
        E 16 90 3a 44
        E 112 80 3a 00
        E 16 90 38 44
        E 112 80 38 00
        E 16 90 38 44
        E 112 80 38 00
        E 16 90 38 44
        E 112 80 38 00
        E 16 90 3a 44
        E 112 80 3a 00
        E 16 90 3a 44
        E 112 80 3a 00
        E 16 90 3a 44
        E 112 80 3a 00
        E 16 90 38 44
        E 112 80 38 00
        E 16 90 38 44
        E 112 80 38 00
        E 16 90 3a 44
        E 112 80 3a 00
        E 16 90 3a 44
        E 112 80 3a 00
        E 16 90 3c 44
        E 112 80 3c 00
        E 16 90 3c 44
        E 112 80 3c 00
        E 16 90 3c 44
        E 112 80 3c 00
        E 16 90 3a 44
        E 112 80 3a 00
        E 16 90 3a 44
        E 112 80 3a 00
        E 16 90 3a 44
        E 112 80 3a 00
        E 16 90 3d 44
        E 112 80 3d 00
        E 16 90 3d 44
        E 112 80 3d 00
        E 16 90 3d 44
        E 112 80 3d 00
        E 16 90 3c 44
        E 112 80 3c 00
        E 16 90 3c 44
        E 112 80 3c 00
        E 16 90 3c 44
        E 112 80 3c 00
        E 16 90 3a 44
        E 112 80 3a 00
        E 16 90 3a 44
        E 112 80 3a 00
        E 16 90 3c 44
        E 112 80 3c 00
        E 16 90 3c 44
        E 112 80 3c 00
        E 16 90 3c 44
        E 112 80 3c 00
        E 16 90 3c 44
        E 112 80 3c 00
        E 16 90 3c 44
        E 112 80 3c 00
        E 16 90 3a 44
        E 112 80 3a 00
        E 16 90 3a 44
        E 112 80 3a 00
        E 16 90 3a 44
        E 112 80 3a 00
        E 16 90 38 44
        E 112 80 38 00
        E 16 90 38 44
        E 112 80 38 00
        E 16 90 38 44
        E 112 80 38 00
        E 16 90 3a 44
        E 112 80 3a 00
        E 16 90 3a 44
        E 112 80 3a 00
        E 16 90 3a 44
        E 112 80 3a 00
        E 16 90 38 44
        E 112 80 38 00
        E 16 90 38 44
        E 112 80 38 00
        E 16 90 3a 44
        E 112 80 3a 00
        E 16 90 3a 44
        E 112 80 3a 00
        E 16 90 3c 44
        E 112 80 3c 00
        E 16 90 3c 44
        E 112 80 3c 00
        E 16 90 3c 44
        E 112 80 3c 00
        E 16 90 3a 44
        E 112 80 3a 00
        E 16 90 3a 44
        E 112 80 3a 00
        E 16 90 3a 44
        E 112 80 3a 00
        E 16 90 3d 44
        E 112 80 3d 00
        E 16 90 3d 44
        E 112 80 3d 00
        E 16 90 3d 44
        E 112 80 3d 00
        E 16 90 3c 44
        E 112 80 3c 00
        E 16 90 3c 44
        E 112 80 3c 00
        E 16 90 3c 44
        E 112 80 3c 00
        E 16 90 3a 44
        E 112 80 3a 00
        E 16 90 3a 44
        E 112 80 3a 00
        E 16 90 3c 44
        E 112 80 3c 00
        E 16 90 3c 44
        E 112 80 3c 00
        E 16 90 3c 44
        E 112 80 3c 00
        E 16 90 3c 44
        E 112 80 3c 00
        E 16 90 3c 44
        E 112 80 3c 00
        E 16 90 3a 44
        E 112 80 3a 00
        E 16 90 3a 44
        E 112 80 3a 00
        E 16 90 3a 44
        E 112 80 3a 00
        E 16 90 38 44
        E 112 80 38 00
        E 16 90 38 44
        E 112 80 38 00
        E 16 90 38 44
        E 112 80 38 00
        E 16 90 3a 44
        E 112 80 3a 00
        E 16 90 3a 44
        E 112 80 3a 00
        E 16 90 3a 44
        E 112 80 3a 00
        E 16 90 38 44
        E 112 80 38 00
        E 16 90 38 44
        E 112 80 38 00
        E 16 90 3a 44
        E 112 80 3a 00
        E 16 90 3a 44
        E 112 80 3a 00
        E 16 90 3c 44
        E 112 80 3c 00
        E 16 90 3c 44
        E 112 80 3c 00
        E 16 90 3c 44
        E 112 80 3c 00
        E 16 90 3a 44
        E 112 80 3a 00
        E 16 90 3a 44
        E 112 80 3a 00
        E 16 90 3a 44
        E 112 80 3a 00
        E 16 90 3d 44
        E 112 80 3d 00
        E 16 90 3d 44
        E 112 80 3d 00
        E 16 90 3d 44
        E 112 80 3d 00
        E 16 90 3c 44
        E 112 80 3c 00
        E 16 90 3c 44
        E 112 80 3c 00
        E 16 90 3c 44
        E 112 80 3c 00
        E 16 90 3a 44
        E 112 80 3a 00
        E 16 90 3a 44
        E 112 80 3a 00
        E 16 90 3c 44
        E 112 80 3c 00
        E 16 90 3c 44
        E 112 80 3c 00
        E 16 90 3c 44
        E 112 80 3c 00
        E 16 90 3c 44
        E 112 80 3c 00
        E 16 90 3c 44
        E 112 80 3c 00
        E 16 90 3a 44
        E 112 80 3a 00
        E 16 90 3a 44
        E 112 80 3a 00
        E 16 90 3a 44
        E 112 80 3a 00
        E 16 90 38 44
        E 112 80 38 00
        E 16 90 38 44
        E 112 80 38 00
        E 16 90 38 44
        E 112 80 38 00
        E 16 90 3a 44
        E 112 80 3a 00
        E 16 90 3a 44
        E 112 80 3a 00
        E 16 90 3a 44
        E 112 80 3a 00
        E 16 90 38 44
        E 112 80 38 00
        E 16 90 38 44
        E 112 80 38 00
        E 16 90 3a 44
        E 112 80 3a 00
        E 16 90 3a 44
        E 112 80 3a 00
        E 16 90 3c 44
        E 112 80 3c 00
        E 16 90 3c 44
        E 112 80 3c 00
        E 16 90 3c 44
        E 112 80 3c 00
        E 16 90 3a 44
        E 112 80 3a 00
        E 16 90 3a 44
        E 112 80 3a 00
        E 16 90 3a 44
        E 112 80 3a 00
        E 16 90 3d 44
        E 112 80 3d 00
        E 16 90 3d 44
        E 112 80 3d 00
        E 16 90 3d 44
        E 112 80 3d 00
        E 16 90 3c 44
        E 112 80 3c 00
        E 16 90 3c 44
        E 112 80 3c 00
        E 16 90 3c 44
        E 112 80 3c 00
        E 16 90 3a 44
        E 112 80 3a 00
        E 16 90 3a 44
        E 112 80 3a 00
        E 16 90 3c 44
        E 112 80 3c 00
        E 16 90 3c 44
        E 112 80 3c 00
        E 16 90 3c 44
        E 112 80 3c 00
        E 16 90 3c 44
        E 112 80 3c 00
        E 16 90 3c 44
        E 112 80 3c 00
        E 16 90 3a 44
        E 112 80 3a 00
        E 16 90 3a 44
        E 112 80 3a 00
        E 16 90 3a 44
        E 112 80 3a 00
        E 16 90 38 44
        E 112 80 38 00
        E 16 90 38 44
        E 112 80 38 00
        E 16 90 38 44
        E 112 80 38 00
        E 16 90 3a 44
        E 112 80 3a 00
        E 16 90 3a 44
        E 112 80 3a 00
        E 16 90 3a 44
        E 112 80 3a 00
        E 16 90 38 44
        E 112 80 38 00
        E 16 90 38 44
        E 112 80 38 00
        E 16 90 3a 44
        E 112 80 3a 00
        E 16 90 3a 44
        E 112 80 3a 00
        E 16 90 3c 44
        E 112 80 3c 00
        E 16 90 3c 44
        E 112 80 3c 00
        E 16 90 3c 44
        E 112 80 3c 00
        E 16 90 3a 44
        E 112 80 3a 00
        E 16 90 3a 44
        E 112 80 3a 00
        E 16 90 3a 44
        E 112 80 3a 00
        E 16 90 3d 44
        E 112 80 3d 00
        E 16 90 3d 44
        E 112 80 3d 00
        E 16 90 3d 44
        E 112 80 3d 00
        E 16 90 3c 44
        E 112 80 3c 00
        E 16 90 3c 44
        E 112 80 3c 00
        E 16 90 3c 44
        E 112 80 3c 00
        E 16 90 3a 44
        E 112 80 3a 00
        E 16 90 3a 44
        E 112 80 3a 00
        E 16 90 3c 44
        E 112 80 3c 00
        E 16 90 3c 44
        E 112 80 3c 00
        E 16 90 3c 44
        E 112 80 3c 00
        E 16 90 3c 44
        E 112 80 3c 00
        E 16 90 3c 44
        E 112 80 3c 00
        E 16 90 3a 44
        E 112 80 3a 00
        E 16 90 3a 44
        E 112 80 3a 00
        E 16 90 3a 44
        E 112 80 3a 00
        E 16 90 38 44
        E 112 80 38 00
        E 16 90 38 44
        E 112 80 38 00
        E 16 90 38 44
        E 112 80 38 00
        E 16 90 3a 44
        E 112 80 3a 00
        E 16 90 3a 44
        E 112 80 3a 00
        E 16 90 3a 44
        E 112 80 3a 00
        E 16 90 38 44
        E 112 80 38 00
        E 16 90 38 44
        E 112 80 38 00
        E 16 90 3a 44
        E 112 80 3a 00
        E 16 90 3a 44
        E 112 80 3a 00
        E 16 90 3c 44
        E 112 80 3c 00
        E 16 90 3c 44
        E 112 80 3c 00
        E 16 90 3c 44
        E 112 80 3c 00
        E 16 90 3a 44
        E 112 80 3a 00
        E 16 90 3a 44
        E 112 80 3a 00
        E 16 90 3a 44
        E 112 80 3a 00
        E 16 90 3d 44
        E 112 80 3d 00
        E 16 90 3d 44
        E 112 80 3d 00
        E 16 90 3d 44
        E 112 80 3d 00
        E 16 90 3c 44
        E 112 80 3c 00
        E 16 90 3c 44
        E 112 80 3c 00
        E 16 90 3c 44
        E 112 80 3c 00
        E 16 90 3a 44
        E 112 80 3a 00
        E 16 90 3a 44
        E 112 80 3a 00
        E 16 90 3c 44
        E 112 80 3c 00
        E 16 90 3c 44
        E 112 80 3c 00
        E 16 90 3c 44
        E 112 80 3c 00
        E 16 90 3c 44
        E 112 80 3c 00
        E 16 90 3c 44
        E 112 80 3c 00
        E 16 90 3a 44
        E 112 80 3a 00
        E 16 90 3a 44
        E 112 80 3a 00
        E 16 90 3a 44
        E 112 80 3a 00
        E 16 90 38 44
        E 112 80 38 00
        E 16 90 38 44
        E 112 80 38 00
        E 16 90 38 44
        E 112 80 38 00
        E 16 90 3a 44
        E 112 80 3a 00
        E 16 90 3a 44
        E 112 80 3a 00
        E 16 90 3a 44
        E 112 80 3a 00
        E 16 90 38 44
        E 112 80 38 00
        E 16 90 38 44
        E 112 80 38 00
        E 16 90 3a 44
        E 112 80 3a 00
        E 16 90 3a 44
        E 112 80 3a 00
        E 16 90 3c 44
        E 112 80 3c 00
        E 16 90 3c 44
        E 112 80 3c 00
        E 16 90 3c 44
        E 112 80 3c 00
        E 16 90 3a 44
        E 112 80 3a 00
        E 16 90 3a 44
        E 112 80 3a 00
        E 16 90 3a 44
        E 112 80 3a 00
        E 16 90 3d 44
        E 112 80 3d 00
        E 16 90 3d 44
        E 112 80 3d 00
        E 16 90 3d 44
        E 112 80 3d 00
        E 16 90 3c 44
        E 112 80 3c 00
        E 16 90 3c 44
        E 112 80 3c 00
        E 16 90 3c 44
        E 112 80 3c 00
        E 16 90 3a 44
        E 112 80 3a 00
        E 16 90 3a 44
        E 112 80 3a 00
        E 16 90 3c 44
        E 112 80 3c 00
        E 16 90 3c 44
        E 112 80 3c 00
        E 16 90 3c 44
        E 112 80 3c 00
        E 16 90 3c 44
        E 112 80 3c 00
        E 16 90 3c 44
        E 112 80 3c 00
        E 16 90 3a 44
        E 112 80 3a 00
        E 16 90 3a 44
        E 112 80 3a 00
        E 16 90 3a 44
        E 112 80 3a 00
        E 16 90 38 44
        E 112 80 38 00
        E 16 90 38 44
        E 112 80 38 00
        E 16 90 38 44
        E 112 80 38 00
        E 16 90 3a 44
        E 112 80 3a 00
        E 16 90 3a 44
        E 112 80 3a 00
        E 16 90 3a 44
        E 112 80 3a 00
        E 16 90 38 44
        E 112 80 38 00
        E 16 90 38 44
        E 112 80 38 00
        E 16 90 3a 44
        E 112 80 3a 00
        E 16 90 3a 44
        E 112 80 3a 00
        E 16 b0 7b 00
        E 0 ff 2f 00
      >
    >
  >
  <TRACK {F99EB49C-8075-4D60-BB1E-B809844604D6}
    NAME "NES - Pulse 2 [ch1]"
    PEAKCOL 10092441
    BEAT -1
    AUTOMODE 0
    PANLAWFLAGS 3
    VOLPAN 1 0 -1 -1 1
    MUTESOLO 0 0 0
    IPHASE 0
    PLAYOFFS 0 1
    ISBUS 0 0
    BUSCOMP 0 0 0 0 0
    SHOWINMIX 1 0.6667 0.5 1 0.5 0 0 0
    FIXEDLANES 9 0 0 0 0
    SEL 0
    REC 0 5088 1 0 0 0 0 0
    VU 2
    TRACKHEIGHT 0 0 0 0 0 0 0
    INQ 0 0 0 0.5 100 0 0 100
    NCHAN 2
    FX 1
    TRACKID {F99EB49C-8075-4D60-BB1E-B809844604D6}
    PERF 0
    MIDIOUT -1
    MAINSEND 1 0
    <FXCHAIN
      WNDRECT 24 52 700 560
      SHOW 0
      LASTSEL 0
      DOCKED 0
      BYPASS 0 0 0
      <JS "ReapNES Studio/ReapNES_Console.jsfx" ""
        2 15 1 10 80 10 100 2 3 15 1 0 400 14 50 3 1 0 50 0 0 15 1 0 100 0 0 0.500000 0.500000 0.400000 0.300000 0.800000 1 1 0 0 0 0 - - - - - - - - - - - - - - - - - - - - - - - - - -
      >
      FLOATPOS 0 0 0 0
      FXID {2AEF7DF4-0A6E-4074-BD56-E40F8C59A715}
      WAK 0 0
    >
    <ITEM
      POSITION 0
      LENGTH 71.6640768
      LOOP 0
      ALLTAKES 0
      FADEIN 0 0 0 0 0 0 0
      FADEOUT 0 0 0 0 0 0 0
      MUTE 0 0
      SEL 0
      IGUID {C0DC3D12-4D8F-4380-B285-6600C8352B47}
      <SOURCE MIDI
        HASDATA 1 480 QN
        CCINTERP 32
        E 0 c1 51
        E 0 b1 0c 60
        E 0 b1 0b 44
        E 0 91 33 44
        E 112 81 33 00
        E 16 91 33 44
        E 112 81 33 00
        E 16 91 33 44
        E 112 81 33 00
        E 16 91 33 44
        E 112 81 33 00
        E 16 91 33 44
        E 112 81 33 00
        E 16 91 33 44
        E 112 81 33 00
        E 16 91 33 44
        E 112 81 33 00
        E 16 91 33 44
        E 112 81 33 00
        E 16 91 33 44
        E 112 81 33 00
        E 16 91 33 44
        E 112 81 33 00
        E 16 91 33 44
        E 112 81 33 00
        E 16 91 33 44
        E 112 81 33 00
        E 16 91 33 44
        E 112 81 33 00
        E 16 91 33 44
        E 112 81 33 00
        E 16 91 33 44
        E 112 81 33 00
        E 16 91 33 44
        E 112 81 33 00
        E 16 91 31 44
        E 112 81 31 00
        E 16 91 31 44
        E 112 81 31 00
        E 16 91 31 44
        E 112 81 31 00
        E 16 91 31 44
        E 112 81 31 00
        E 16 91 31 44
        E 112 81 31 00
        E 16 91 31 44
        E 112 81 31 00
        E 16 91 31 44
        E 112 81 31 00
        E 16 91 31 44
        E 112 81 31 00
        E 16 91 31 44
        E 112 81 31 00
        E 16 91 31 44
        E 112 81 31 00
        E 16 91 31 44
        E 112 81 31 00
        E 16 91 31 44
        E 112 81 31 00
        E 16 91 31 44
        E 112 81 31 00
        E 16 91 31 44
        E 112 81 31 00
        E 16 91 31 44
        E 112 81 31 00
        E 16 91 31 44
        E 112 81 31 00
        E 16 91 33 44
        E 112 81 33 00
        E 16 91 33 44
        E 112 81 33 00
        E 16 91 33 44
        E 112 81 33 00
        E 16 91 33 44
        E 112 81 33 00
        E 16 91 33 44
        E 112 81 33 00
        E 16 91 33 44
        E 112 81 33 00
        E 16 91 33 44
        E 112 81 33 00
        E 16 91 33 44
        E 112 81 33 00
        E 16 91 33 44
        E 112 81 33 00
        E 16 91 33 44
        E 112 81 33 00
        E 16 91 33 44
        E 112 81 33 00
        E 16 91 33 44
        E 112 81 33 00
        E 16 91 33 44
        E 112 81 33 00
        E 16 91 33 44
        E 112 81 33 00
        E 16 91 33 44
        E 112 81 33 00
        E 16 91 33 44
        E 112 81 33 00
        E 16 91 31 44
        E 112 81 31 00
        E 16 91 31 44
        E 112 81 31 00
        E 16 91 31 44
        E 112 81 31 00
        E 16 91 31 44
        E 112 81 31 00
        E 16 91 31 44
        E 112 81 31 00
        E 16 91 31 44
        E 112 81 31 00
        E 16 91 31 44
        E 112 81 31 00
        E 16 91 31 44
        E 112 81 31 00
        E 16 91 31 44
        E 112 81 31 00
        E 16 91 31 44
        E 112 81 31 00
        E 16 91 31 44
        E 112 81 31 00
        E 16 91 31 44
        E 112 81 31 00
        E 16 91 31 44
        E 112 81 31 00
        E 16 91 31 44
        E 112 81 31 00
        E 16 91 31 44
        E 112 81 31 00
        E 16 91 31 44
        E 112 81 31 00
        E 16 91 33 44
        E 112 81 33 00
        E 16 91 33 44
        E 112 81 33 00
        E 16 91 33 44
        E 112 81 33 00
        E 16 91 33 44
        E 112 81 33 00
        E 16 91 33 44
        E 112 81 33 00
        E 16 91 33 44
        E 112 81 33 00
        E 16 91 33 44
        E 112 81 33 00
        E 16 91 33 44
        E 112 81 33 00
        E 16 91 33 44
        E 112 81 33 00
        E 16 91 33 44
        E 112 81 33 00
        E 16 91 33 44
        E 112 81 33 00
        E 16 91 33 44
        E 112 81 33 00
        E 16 91 33 44
        E 112 81 33 00
        E 16 91 33 44
        E 112 81 33 00
        E 16 91 33 44
        E 112 81 33 00
        E 16 91 33 44
        E 112 81 33 00
        E 16 91 31 44
        E 112 81 31 00
        E 16 91 31 44
        E 112 81 31 00
        E 16 91 31 44
        E 112 81 31 00
        E 16 91 31 44
        E 112 81 31 00
        E 16 91 31 44
        E 112 81 31 00
        E 16 91 31 44
        E 112 81 31 00
        E 16 91 31 44
        E 112 81 31 00
        E 16 91 31 44
        E 112 81 31 00
        E 16 91 31 44
        E 112 81 31 00
        E 16 91 31 44
        E 112 81 31 00
        E 16 91 31 44
        E 112 81 31 00
        E 16 91 31 44
        E 112 81 31 00
        E 16 91 31 44
        E 112 81 31 00
        E 16 91 31 44
        E 112 81 31 00
        E 16 91 31 44
        E 112 81 31 00
        E 16 91 31 44
        E 112 81 31 00
        E 16 91 33 44
        E 112 81 33 00
        E 16 91 33 44
        E 112 81 33 00
        E 16 91 33 44
        E 112 81 33 00
        E 16 91 33 44
        E 112 81 33 00
        E 16 91 33 44
        E 112 81 33 00
        E 16 91 33 44
        E 112 81 33 00
        E 16 91 33 44
        E 112 81 33 00
        E 16 91 33 44
        E 112 81 33 00
        E 16 91 33 44
        E 112 81 33 00
        E 16 91 33 44
        E 112 81 33 00
        E 16 91 33 44
        E 112 81 33 00
        E 16 91 33 44
        E 112 81 33 00
        E 16 91 33 44
        E 112 81 33 00
        E 16 91 33 44
        E 112 81 33 00
        E 16 91 33 44
        E 112 81 33 00
        E 16 91 33 44
        E 112 81 33 00
        E 16 91 31 44
        E 112 81 31 00
        E 16 91 31 44
        E 112 81 31 00
        E 16 91 31 44
        E 112 81 31 00
        E 16 91 31 44
        E 112 81 31 00
        E 16 91 31 44
        E 112 81 31 00
        E 16 91 31 44
        E 112 81 31 00
        E 16 91 31 44
        E 112 81 31 00
        E 16 91 31 44
        E 112 81 31 00
        E 16 91 31 44
        E 112 81 31 00
        E 16 91 31 44
        E 112 81 31 00
        E 16 91 31 44
        E 112 81 31 00
        E 16 91 31 44
        E 112 81 31 00
        E 16 91 31 44
        E 112 81 31 00
        E 16 91 31 44
        E 112 81 31 00
        E 16 91 31 44
        E 112 81 31 00
        E 16 91 31 44
        E 112 81 31 00
        E 16 91 33 44
        E 112 81 33 00
        E 16 91 33 44
        E 112 81 33 00
        E 16 91 33 44
        E 112 81 33 00
        E 16 91 33 44
        E 112 81 33 00
        E 16 91 33 44
        E 112 81 33 00
        E 16 91 33 44
        E 112 81 33 00
        E 16 91 33 44
        E 112 81 33 00
        E 16 91 33 44
        E 112 81 33 00
        E 16 91 33 44
        E 112 81 33 00
        E 16 91 33 44
        E 112 81 33 00
        E 16 91 33 44
        E 112 81 33 00
        E 16 91 33 44
        E 112 81 33 00
        E 16 91 33 44
        E 112 81 33 00
        E 16 91 33 44
        E 112 81 33 00
        E 16 91 33 44
        E 112 81 33 00
        E 16 91 33 44
        E 112 81 33 00
        E 16 91 31 44
        E 112 81 31 00
        E 16 91 31 44
        E 112 81 31 00
        E 16 91 31 44
        E 112 81 31 00
        E 16 91 31 44
        E 112 81 31 00
        E 16 91 31 44
        E 112 81 31 00
        E 16 91 31 44
        E 112 81 31 00
        E 16 91 31 44
        E 112 81 31 00
        E 16 91 31 44
        E 112 81 31 00
        E 16 91 31 44
        E 112 81 31 00
        E 16 91 31 44
        E 112 81 31 00
        E 16 91 31 44
        E 112 81 31 00
        E 16 91 31 44
        E 112 81 31 00
        E 16 91 31 44
        E 112 81 31 00
        E 16 91 31 44
        E 112 81 31 00
        E 16 91 31 44
        E 112 81 31 00
        E 16 91 31 44
        E 112 81 31 00
        E 16 91 33 44
        E 112 81 33 00
        E 16 91 33 44
        E 112 81 33 00
        E 16 91 33 44
        E 112 81 33 00
        E 16 91 33 44
        E 112 81 33 00
        E 16 91 33 44
        E 112 81 33 00
        E 16 91 33 44
        E 112 81 33 00
        E 16 91 33 44
        E 112 81 33 00
        E 16 91 33 44
        E 112 81 33 00
        E 16 91 33 44
        E 112 81 33 00
        E 16 91 33 44
        E 112 81 33 00
        E 16 91 33 44
        E 112 81 33 00
        E 16 91 33 44
        E 112 81 33 00
        E 16 91 33 44
        E 112 81 33 00
        E 16 91 33 44
        E 112 81 33 00
        E 16 91 33 44
        E 112 81 33 00
        E 16 91 33 44
        E 112 81 33 00
        E 16 91 31 44
        E 112 81 31 00
        E 16 91 31 44
        E 112 81 31 00
        E 16 91 31 44
        E 112 81 31 00
        E 16 91 31 44
        E 112 81 31 00
        E 16 91 31 44
        E 112 81 31 00
        E 16 91 31 44
        E 112 81 31 00
        E 16 91 31 44
        E 112 81 31 00
        E 16 91 31 44
        E 112 81 31 00
        E 16 91 31 44
        E 112 81 31 00
        E 16 91 31 44
        E 112 81 31 00
        E 16 91 31 44
        E 112 81 31 00
        E 16 91 31 44
        E 112 81 31 00
        E 16 91 31 44
        E 112 81 31 00
        E 16 91 31 44
        E 112 81 31 00
        E 16 91 31 44
        E 112 81 31 00
        E 16 91 31 44
        E 112 81 31 00
        E 16 91 33 44
        E 112 81 33 00
        E 16 91 33 44
        E 112 81 33 00
        E 16 91 33 44
        E 112 81 33 00
        E 16 91 33 44
        E 112 81 33 00
        E 16 91 33 44
        E 112 81 33 00
        E 16 91 33 44
        E 112 81 33 00
        E 16 91 33 44
        E 112 81 33 00
        E 16 91 33 44
        E 112 81 33 00
        E 16 91 33 44
        E 112 81 33 00
        E 16 91 33 44
        E 112 81 33 00
        E 16 91 33 44
        E 112 81 33 00
        E 16 91 33 44
        E 112 81 33 00
        E 16 91 33 44
        E 112 81 33 00
        E 16 91 33 44
        E 112 81 33 00
        E 16 91 33 44
        E 112 81 33 00
        E 16 91 33 44
        E 112 81 33 00
        E 16 91 31 44
        E 112 81 31 00
        E 16 91 31 44
        E 112 81 31 00
        E 16 91 31 44
        E 112 81 31 00
        E 16 91 31 44
        E 112 81 31 00
        E 16 91 31 44
        E 112 81 31 00
        E 16 91 31 44
        E 112 81 31 00
        E 16 91 31 44
        E 112 81 31 00
        E 16 91 31 44
        E 112 81 31 00
        E 16 91 31 44
        E 112 81 31 00
        E 16 91 31 44
        E 112 81 31 00
        E 16 91 31 44
        E 112 81 31 00
        E 16 91 31 44
        E 112 81 31 00
        E 16 91 31 44
        E 112 81 31 00
        E 16 91 31 44
        E 112 81 31 00
        E 16 91 31 44
        E 112 81 31 00
        E 16 91 31 44
        E 112 81 31 00
        E 16 91 33 44
        E 112 81 33 00
        E 16 91 33 44
        E 112 81 33 00
        E 16 91 33 44
        E 112 81 33 00
        E 16 91 33 44
        E 112 81 33 00
        E 16 91 33 44
        E 112 81 33 00
        E 16 91 33 44
        E 112 81 33 00
        E 16 91 33 44
        E 112 81 33 00
        E 16 91 33 44
        E 112 81 33 00
        E 16 91 33 44
        E 112 81 33 00
        E 16 91 33 44
        E 112 81 33 00
        E 16 91 33 44
        E 112 81 33 00
        E 16 91 33 44
        E 112 81 33 00
        E 16 91 33 44
        E 112 81 33 00
        E 16 91 33 44
        E 112 81 33 00
        E 16 91 33 44
        E 112 81 33 00
        E 16 91 33 44
        E 112 81 33 00
        E 16 91 31 44
        E 112 81 31 00
        E 16 91 31 44
        E 112 81 31 00
        E 16 91 31 44
        E 112 81 31 00
        E 16 91 31 44
        E 112 81 31 00
        E 16 91 31 44
        E 112 81 31 00
        E 16 91 31 44
        E 112 81 31 00
        E 16 91 31 44
        E 112 81 31 00
        E 16 91 31 44
        E 112 81 31 00
        E 16 91 31 44
        E 112 81 31 00
        E 16 91 31 44
        E 112 81 31 00
        E 16 91 31 44
        E 112 81 31 00
        E 16 91 31 44
        E 112 81 31 00
        E 16 91 31 44
        E 112 81 31 00
        E 16 91 31 44
        E 112 81 31 00
        E 16 91 31 44
        E 112 81 31 00
        E 16 91 31 44
        E 112 81 31 00
        E 16 91 33 44
        E 112 81 33 00
        E 16 91 33 44
        E 112 81 33 00
        E 16 91 33 44
        E 112 81 33 00
        E 16 91 33 44
        E 112 81 33 00
        E 16 91 33 44
        E 112 81 33 00
        E 16 91 33 44
        E 112 81 33 00
        E 16 91 33 44
        E 112 81 33 00
        E 16 91 33 44
        E 112 81 33 00
        E 16 91 33 44
        E 112 81 33 00
        E 16 91 33 44
        E 112 81 33 00
        E 16 91 33 44
        E 112 81 33 00
        E 16 91 33 44
        E 112 81 33 00
        E 16 91 33 44
        E 112 81 33 00
        E 16 91 33 44
        E 112 81 33 00
        E 16 91 33 44
        E 112 81 33 00
        E 16 91 33 44
        E 112 81 33 00
        E 16 91 31 44
        E 112 81 31 00
        E 16 91 31 44
        E 112 81 31 00
        E 16 91 31 44
        E 112 81 31 00
        E 16 91 31 44
        E 112 81 31 00
        E 16 91 31 44
        E 112 81 31 00
        E 16 91 31 44
        E 112 81 31 00
        E 16 91 31 44
        E 112 81 31 00
        E 16 91 31 44
        E 112 81 31 00
        E 16 91 31 44
        E 112 81 31 00
        E 16 91 31 44
        E 112 81 31 00
        E 16 91 31 44
        E 112 81 31 00
        E 16 91 31 44
        E 112 81 31 00
        E 16 91 31 44
        E 112 81 31 00
        E 16 91 31 44
        E 112 81 31 00
        E 16 91 31 44
        E 112 81 31 00
        E 16 91 31 44
        E 112 81 31 00
        E 16 91 33 44
        E 112 81 33 00
        E 16 91 33 44
        E 112 81 33 00
        E 16 91 33 44
        E 112 81 33 00
        E 16 91 33 44
        E 112 81 33 00
        E 16 91 33 44
        E 112 81 33 00
        E 16 91 33 44
        E 112 81 33 00
        E 16 91 33 44
        E 112 81 33 00
        E 16 91 33 44
        E 112 81 33 00
        E 16 91 33 44
        E 112 81 33 00
        E 16 91 33 44
        E 112 81 33 00
        E 16 91 33 44
        E 112 81 33 00
        E 16 91 33 44
        E 112 81 33 00
        E 16 91 33 44
        E 112 81 33 00
        E 16 91 33 44
        E 112 81 33 00
        E 16 91 33 44
        E 112 81 33 00
        E 16 91 33 44
        E 112 81 33 00
        E 16 91 31 44
        E 112 81 31 00
        E 16 91 31 44
        E 112 81 31 00
        E 16 91 31 44
        E 112 81 31 00
        E 16 91 31 44
        E 112 81 31 00
        E 16 91 31 44
        E 112 81 31 00
        E 16 91 31 44
        E 112 81 31 00
        E 16 91 31 44
        E 112 81 31 00
        E 16 91 31 44
        E 112 81 31 00
        E 16 91 31 44
        E 112 81 31 00
        E 16 91 31 44
        E 112 81 31 00
        E 16 91 31 44
        E 112 81 31 00
        E 16 91 31 44
        E 112 81 31 00
        E 16 91 31 44
        E 112 81 31 00
        E 16 91 31 44
        E 112 81 31 00
        E 16 91 31 44
        E 112 81 31 00
        E 16 91 31 44
        E 112 81 31 00
        E 16 91 33 44
        E 112 81 33 00
        E 16 91 33 44
        E 112 81 33 00
        E 16 91 33 44
        E 112 81 33 00
        E 16 91 33 44
        E 112 81 33 00
        E 16 91 33 44
        E 112 81 33 00
        E 16 91 33 44
        E 112 81 33 00
        E 16 91 33 44
        E 112 81 33 00
        E 16 91 33 44
        E 112 81 33 00
        E 16 91 33 44
        E 112 81 33 00
        E 16 91 33 44
        E 112 81 33 00
        E 16 91 33 44
        E 112 81 33 00
        E 16 91 33 44
        E 112 81 33 00
        E 16 91 33 44
        E 112 81 33 00
        E 16 91 33 44
        E 112 81 33 00
        E 16 91 33 44
        E 112 81 33 00
        E 16 91 33 44
        E 112 81 33 00
        E 16 91 31 44
        E 112 81 31 00
        E 16 91 31 44
        E 112 81 31 00
        E 16 91 31 44
        E 112 81 31 00
        E 16 91 31 44
        E 112 81 31 00
        E 16 91 31 44
        E 112 81 31 00
        E 16 91 31 44
        E 112 81 31 00
        E 16 91 31 44
        E 112 81 31 00
        E 16 91 31 44
        E 112 81 31 00
        E 16 91 31 44
        E 112 81 31 00
        E 16 91 31 44
        E 112 81 31 00
        E 16 91 31 44
        E 112 81 31 00
        E 16 91 31 44
        E 112 81 31 00
        E 16 91 31 44
        E 112 81 31 00
        E 16 91 31 44
        E 112 81 31 00
        E 16 91 31 44
        E 112 81 31 00
        E 16 91 31 44
        E 112 81 31 00
        E 16 91 33 44
        E 112 81 33 00
        E 16 91 33 44
        E 112 81 33 00
        E 16 91 33 44
        E 112 81 33 00
        E 16 91 33 44
        E 112 81 33 00
        E 16 91 33 44
        E 112 81 33 00
        E 16 91 33 44
        E 112 81 33 00
        E 16 91 33 44
        E 112 81 33 00
        E 16 91 33 44
        E 112 81 33 00
        E 16 91 33 44
        E 112 81 33 00
        E 16 91 33 44
        E 112 81 33 00
        E 16 91 33 44
        E 112 81 33 00
        E 16 91 33 44
        E 112 81 33 00
        E 16 91 33 44
        E 112 81 33 00
        E 16 91 33 44
        E 112 81 33 00
        E 16 91 33 44
        E 112 81 33 00
        E 16 91 33 44
        E 112 81 33 00
        E 16 91 31 44
        E 112 81 31 00
        E 16 91 31 44
        E 112 81 31 00
        E 16 91 31 44
        E 112 81 31 00
        E 16 91 31 44
        E 112 81 31 00
        E 16 91 31 44
        E 112 81 31 00
        E 16 91 31 44
        E 112 81 31 00
        E 16 91 31 44
        E 112 81 31 00
        E 16 91 31 44
        E 112 81 31 00
        E 16 91 31 44
        E 112 81 31 00
        E 16 91 31 44
        E 112 81 31 00
        E 16 91 31 44
        E 112 81 31 00
        E 16 91 31 44
        E 112 81 31 00
        E 16 91 31 44
        E 112 81 31 00
        E 16 91 31 44
        E 112 81 31 00
        E 16 91 31 44
        E 112 81 31 00
        E 16 91 31 44
        E 112 81 31 00
        E 16 91 33 44
        E 112 81 33 00
        E 16 91 33 44
        E 112 81 33 00
        E 16 91 33 44
        E 112 81 33 00
        E 16 91 33 44
        E 112 81 33 00
        E 16 91 33 44
        E 112 81 33 00
        E 16 91 33 44
        E 112 81 33 00
        E 16 91 33 44
        E 112 81 33 00
        E 16 91 33 44
        E 112 81 33 00
        E 16 91 33 44
        E 112 81 33 00
        E 16 91 33 44
        E 112 81 33 00
        E 16 91 33 44
        E 112 81 33 00
        E 16 91 33 44
        E 112 81 33 00
        E 16 91 33 44
        E 112 81 33 00
        E 16 91 33 44
        E 112 81 33 00
        E 16 91 33 44
        E 112 81 33 00
        E 16 91 33 44
        E 112 81 33 00
        E 16 91 31 44
        E 112 81 31 00
        E 16 91 31 44
        E 112 81 31 00
        E 16 91 31 44
        E 112 81 31 00
        E 16 91 31 44
        E 112 81 31 00
        E 16 91 31 44
        E 112 81 31 00
        E 16 91 31 44
        E 112 81 31 00
        E 16 91 31 44
        E 112 81 31 00
        E 16 91 31 44
        E 112 81 31 00
        E 16 91 31 44
        E 112 81 31 00
        E 16 91 31 44
        E 112 81 31 00
        E 16 91 31 44
        E 112 81 31 00
        E 16 91 31 44
        E 112 81 31 00
        E 16 91 31 44
        E 112 81 31 00
        E 16 91 31 44
        E 112 81 31 00
        E 16 91 31 44
        E 112 81 31 00
        E 16 91 31 44
        E 112 81 31 00
        E 16 91 33 44
        E 112 81 33 00
        E 16 91 33 44
        E 112 81 33 00
        E 16 91 33 44
        E 112 81 33 00
        E 16 91 33 44
        E 112 81 33 00
        E 16 91 33 44
        E 112 81 33 00
        E 16 91 33 44
        E 112 81 33 00
        E 16 91 33 44
        E 112 81 33 00
        E 16 91 33 44
        E 112 81 33 00
        E 16 91 33 44
        E 112 81 33 00
        E 16 91 33 44
        E 112 81 33 00
        E 16 91 33 44
        E 112 81 33 00
        E 16 91 33 44
        E 112 81 33 00
        E 16 91 33 44
        E 112 81 33 00
        E 16 91 33 44
        E 112 81 33 00
        E 16 91 33 44
        E 112 81 33 00
        E 16 91 33 44
        E 112 81 33 00
        E 16 91 31 44
        E 112 81 31 00
        E 16 91 31 44
        E 112 81 31 00
        E 16 91 31 44
        E 112 81 31 00
        E 16 91 31 44
        E 112 81 31 00
        E 16 91 31 44
        E 112 81 31 00
        E 16 91 31 44
        E 112 81 31 00
        E 16 91 31 44
        E 112 81 31 00
        E 16 91 31 44
        E 112 81 31 00
        E 16 91 31 44
        E 112 81 31 00
        E 16 91 31 44
        E 112 81 31 00
        E 16 91 31 44
        E 112 81 31 00
        E 16 91 31 44
        E 112 81 31 00
        E 16 91 31 44
        E 112 81 31 00
        E 16 91 31 44
        E 112 81 31 00
        E 16 91 31 44
        E 112 81 31 00
        E 16 91 31 44
        E 112 81 31 00
        E 16 91 33 44
        E 112 81 33 00
        E 16 91 33 44
        E 112 81 33 00
        E 16 91 33 44
        E 112 81 33 00
        E 16 91 33 44
        E 112 81 33 00
        E 16 91 33 44
        E 112 81 33 00
        E 16 91 33 44
        E 112 81 33 00
        E 16 91 33 44
        E 112 81 33 00
        E 16 91 33 44
        E 112 81 33 00
        E 16 91 33 44
        E 112 81 33 00
        E 16 91 33 44
        E 112 81 33 00
        E 16 91 33 44
        E 112 81 33 00
        E 16 91 33 44
        E 112 81 33 00
        E 16 91 33 44
        E 112 81 33 00
        E 16 91 33 44
        E 112 81 33 00
        E 16 91 33 44
        E 112 81 33 00
        E 16 91 33 44
        E 112 81 33 00
        E 16 91 31 44
        E 112 81 31 00
        E 16 91 31 44
        E 112 81 31 00
        E 16 91 31 44
        E 112 81 31 00
        E 16 91 31 44
        E 112 81 31 00
        E 16 91 31 44
        E 112 81 31 00
        E 16 91 31 44
        E 112 81 31 00
        E 16 91 31 44
        E 112 81 31 00
        E 16 91 31 44
        E 112 81 31 00
        E 16 91 31 44
        E 112 81 31 00
        E 16 91 31 44
        E 112 81 31 00
        E 16 91 31 44
        E 112 81 31 00
        E 16 91 31 44
        E 112 81 31 00
        E 16 91 31 44
        E 112 81 31 00
        E 16 91 31 44
        E 112 81 31 00
        E 16 91 31 44
        E 112 81 31 00
        E 16 91 31 44
        E 112 81 31 00
        E 16 91 33 44
        E 112 81 33 00
        E 16 91 33 44
        E 112 81 33 00
        E 16 91 33 44
        E 112 81 33 00
        E 16 91 33 44
        E 112 81 33 00
        E 16 91 33 44
        E 112 81 33 00
        E 16 91 33 44
        E 112 81 33 00
        E 16 91 33 44
        E 112 81 33 00
        E 16 91 33 44
        E 112 81 33 00
        E 16 91 33 44
        E 112 81 33 00
        E 16 91 33 44
        E 112 81 33 00
        E 16 91 33 44
        E 112 81 33 00
        E 16 91 33 44
        E 112 81 33 00
        E 16 91 33 44
        E 112 81 33 00
        E 16 91 33 44
        E 112 81 33 00
        E 16 91 33 44
        E 112 81 33 00
        E 16 91 33 44
        E 112 81 33 00
        E 16 91 31 44
        E 112 81 31 00
        E 16 91 31 44
        E 112 81 31 00
        E 16 91 31 44
        E 112 81 31 00
        E 16 91 31 44
        E 112 81 31 00
        E 16 91 31 44
        E 112 81 31 00
        E 16 91 31 44
        E 112 81 31 00
        E 16 91 31 44
        E 112 81 31 00
        E 16 91 31 44
        E 112 81 31 00
        E 16 91 31 44
        E 112 81 31 00
        E 16 91 31 44
        E 112 81 31 00
        E 16 91 31 44
        E 112 81 31 00
        E 16 91 31 44
        E 112 81 31 00
        E 16 91 31 44
        E 112 81 31 00
        E 16 91 31 44
        E 112 81 31 00
        E 16 91 31 44
        E 112 81 31 00
        E 16 91 31 44
        E 112 81 31 00
        E 16 91 33 44
        E 112 81 33 00
        E 16 91 33 44
        E 112 81 33 00
        E 16 91 33 44
        E 112 81 33 00
        E 16 91 33 44
        E 112 81 33 00
        E 16 91 33 44
        E 112 81 33 00
        E 16 91 33 44
        E 112 81 33 00
        E 16 91 33 44
        E 112 81 33 00
        E 16 91 33 44
        E 112 81 33 00
        E 16 91 33 44
        E 112 81 33 00
        E 16 91 33 44
        E 112 81 33 00
        E 16 91 33 44
        E 112 81 33 00
        E 16 91 33 44
        E 112 81 33 00
        E 16 91 33 44
        E 112 81 33 00
        E 16 91 33 44
        E 112 81 33 00
        E 16 91 33 44
        E 112 81 33 00
        E 16 91 33 44
        E 112 81 33 00
        E 16 91 31 44
        E 112 81 31 00
        E 16 91 31 44
        E 112 81 31 00
        E 16 91 31 44
        E 112 81 31 00
        E 16 91 31 44
        E 112 81 31 00
        E 16 91 31 44
        E 112 81 31 00
        E 16 91 31 44
        E 112 81 31 00
        E 16 91 31 44
        E 112 81 31 00
        E 16 91 31 44
        E 112 81 31 00
        E 16 91 31 44
        E 112 81 31 00
        E 16 91 31 44
        E 112 81 31 00
        E 16 91 31 44
        E 112 81 31 00
        E 16 91 31 44
        E 112 81 31 00
        E 16 91 31 44
        E 112 81 31 00
        E 16 91 31 44
        E 112 81 31 00
        E 16 91 31 44
        E 112 81 31 00
        E 16 91 31 44
        E 112 81 31 00
        E 16 91 33 44
        E 112 81 33 00
        E 16 91 33 44
        E 112 81 33 00
        E 16 91 33 44
        E 112 81 33 00
        E 16 91 33 44
        E 112 81 33 00
        E 16 91 33 44
        E 112 81 33 00
        E 16 91 33 44
        E 112 81 33 00
        E 16 91 33 44
        E 112 81 33 00
        E 16 91 33 44
        E 112 81 33 00
        E 16 91 33 44
        E 112 81 33 00
        E 16 91 33 44
        E 112 81 33 00
        E 16 91 33 44
        E 112 81 33 00
        E 16 91 33 44
        E 112 81 33 00
        E 16 91 33 44
        E 112 81 33 00
        E 16 91 33 44
        E 112 81 33 00
        E 16 91 33 44
        E 112 81 33 00
        E 16 91 33 44
        E 112 81 33 00
        E 16 91 31 44
        E 112 81 31 00
        E 16 91 31 44
        E 112 81 31 00
        E 16 91 31 44
        E 112 81 31 00
        E 16 91 31 44
        E 112 81 31 00
        E 16 91 31 44
        E 112 81 31 00
        E 16 91 31 44
        E 112 81 31 00
        E 16 91 31 44
        E 112 81 31 00
        E 16 91 31 44
        E 112 81 31 00
        E 16 91 31 44
        E 112 81 31 00
        E 16 91 31 44
        E 112 81 31 00
        E 16 91 31 44
        E 112 81 31 00
        E 16 91 31 44
        E 112 81 31 00
        E 16 91 31 44
        E 112 81 31 00
        E 16 91 31 44
        E 112 81 31 00
        E 16 91 31 44
        E 112 81 31 00
        E 16 91 31 44
        E 112 81 31 00
        E 16 b1 7b 00
        E 0 ff 2f 00
      >
    >
  >
  <TRACK {07AE931D-F416-4644-912C-DD30D79920B5}
    NAME "NES - Triangle [ch2]"
    PEAKCOL 16744192
    BEAT -1
    AUTOMODE 0
    PANLAWFLAGS 3
    VOLPAN 1 0 -1 -1 1
    MUTESOLO 0 0 0
    IPHASE 0
    PLAYOFFS 0 1
    ISBUS 0 0
    BUSCOMP 0 0 0 0 0
    SHOWINMIX 1 0.6667 0.5 1 0.5 0 0 0
    FIXEDLANES 9 0 0 0 0
    SEL 0
    REC 0 5088 1 0 0 0 0 0
    VU 2
    TRACKHEIGHT 0 0 0 0 0 0 0
    INQ 0 0 0 0.5 100 0 0 100
    NCHAN 2
    FX 1
    TRACKID {07AE931D-F416-4644-912C-DD30D79920B5}
    PERF 0
    MIDIOUT -1
    MAINSEND 1 0
    <FXCHAIN
      WNDRECT 24 52 700 560
      SHOW 0
      LASTSEL 0
      DOCKED 0
      BYPASS 0 0 0
      <JS "ReapNES Studio/ReapNES_Console.jsfx" ""
        2 15 1 10 80 10 100 2 1 15 1 5 60 10 80 1 1 0 30 0 0 15 1 0 100 0 0 0.500000 0.500000 0.400000 0.300000 0.800000 2 1 0 0 0 0 - - - - - - - - - - - - - - - - - - - - - - - - - -
      >
      FLOATPOS 0 0 0 0
      FXID {B129BCEB-C53D-42E5-8E0E-8E0BC1650020}
      WAK 0 0
    >
    <ITEM
      POSITION 0
      LENGTH 71.6640768
      LOOP 0
      ALLTAKES 0
      FADEIN 0 0 0 0 0 0 0
      FADEOUT 0 0 0 0 0 0 0
      MUTE 0 0
      SEL 0
      IGUID {D6CF05BD-EA5B-4D65-A8CE-ED89CC5F7A5A}
      <SOURCE MIDI
        HASDATA 1 480 QN
        CCINTERP 32
        E 0 c2 26
        E 0 b2 0b 7f
        E 0 92 2c 7f
        E 240 82 2c 00
        E 144 b2 0b 7f
        E 0 92 2c 7f
        E 1136 82 2c 00
        E 272 b2 0b 7f
        E 0 92 2c 7f
        E 112 82 2c 00
        E 16 b2 0b 7f
        E 0 92 2b 7f
        E 112 82 2b 00
        E 16 b2 0b 7f
        E 0 92 2a 7f
        E 240 82 2a 00
        E 144 b2 0b 7f
        E 0 92 2a 7f
        E 624 82 2a 00
        E 144 b2 0b 7f
        E 0 92 2a 7f
        E 240 82 2a 00
        E 16 b2 0b 7f
        E 0 92 2a 7f
        E 240 82 2a 00
        E 16 b2 0b 7f
        E 0 92 29 7f
        E 112 82 29 00
        E 16 b2 0b 7f
        E 0 92 2a 7f
        E 112 82 2a 00
        E 16 b2 0b 7f
        E 0 92 2b 7f
        E 112 82 2b 00
        E 16 b2 0b 7f
        E 0 92 2c 7f
        E 240 82 2c 00
        E 144 b2 0b 7f
        E 0 92 2c 7f
        E 1136 82 2c 00
        E 272 b2 0b 7f
        E 0 92 2c 7f
        E 112 82 2c 00
        E 16 b2 0b 7f
        E 0 92 2b 7f
        E 112 82 2b 00
        E 16 b2 0b 7f
        E 0 92 2a 7f
        E 240 82 2a 00
        E 144 b2 0b 7f
        E 0 92 2a 7f
        E 624 82 2a 00
        E 144 b2 0b 7f
        E 0 92 2a 7f
        E 240 82 2a 00
        E 16 b2 0b 7f
        E 0 92 2a 7f
        E 240 82 2a 00
        E 16 b2 0b 7f
        E 0 92 29 7f
        E 112 82 29 00
        E 16 b2 0b 7f
        E 0 92 2a 7f
        E 112 82 2a 00
        E 16 b2 0b 7f
        E 0 92 2b 7f
        E 112 82 2b 00
        E 16 b2 0b 7f
        E 0 92 2c 7f
        E 240 82 2c 00
        E 144 b2 0b 7f
        E 0 92 2c 7f
        E 1136 82 2c 00
        E 272 b2 0b 7f
        E 0 92 2c 7f
        E 112 82 2c 00
        E 16 b2 0b 7f
        E 0 92 2b 7f
        E 112 82 2b 00
        E 16 b2 0b 7f
        E 0 92 2a 7f
        E 240 82 2a 00
        E 144 b2 0b 7f
        E 0 92 2a 7f
        E 624 82 2a 00
        E 144 b2 0b 7f
        E 0 92 2a 7f
        E 240 82 2a 00
        E 16 b2 0b 7f
        E 0 92 2a 7f
        E 240 82 2a 00
        E 16 b2 0b 7f
        E 0 92 29 7f
        E 112 82 29 00
        E 16 b2 0b 7f
        E 0 92 2a 7f
        E 112 82 2a 00
        E 16 b2 0b 7f
        E 0 92 2b 7f
        E 112 82 2b 00
        E 16 b2 0b 7f
        E 0 92 2c 7f
        E 240 82 2c 00
        E 144 b2 0b 7f
        E 0 92 2c 7f
        E 1136 82 2c 00
        E 272 b2 0b 7f
        E 0 92 2c 7f
        E 112 82 2c 00
        E 16 b2 0b 7f
        E 0 92 2b 7f
        E 112 82 2b 00
        E 16 b2 0b 7f
        E 0 92 2a 7f
        E 240 82 2a 00
        E 144 b2 0b 7f
        E 0 92 2a 7f
        E 624 82 2a 00
        E 144 b2 0b 7f
        E 0 92 2a 7f
        E 240 82 2a 00
        E 16 b2 0b 7f
        E 0 92 2a 7f
        E 240 82 2a 00
        E 16 b2 0b 7f
        E 0 92 29 7f
        E 112 82 29 00
        E 16 b2 0b 7f
        E 0 92 2a 7f
        E 112 82 2a 00
        E 16 b2 0b 7f
        E 0 92 2b 7f
        E 112 82 2b 00
        E 16 b2 0b 7f
        E 0 92 2c 7f
        E 240 82 2c 00
        E 144 b2 0b 7f
        E 0 92 2c 7f
        E 1136 82 2c 00
        E 272 b2 0b 7f
        E 0 92 2c 7f
        E 112 82 2c 00
        E 16 b2 0b 7f
        E 0 92 2b 7f
        E 112 82 2b 00
        E 16 b2 0b 7f
        E 0 92 2a 7f
        E 240 82 2a 00
        E 144 b2 0b 7f
        E 0 92 2a 7f
        E 624 82 2a 00
        E 144 b2 0b 7f
        E 0 92 2a 7f
        E 240 82 2a 00
        E 16 b2 0b 7f
        E 0 92 2a 7f
        E 240 82 2a 00
        E 16 b2 0b 7f
        E 0 92 29 7f
        E 112 82 29 00
        E 16 b2 0b 7f
        E 0 92 2a 7f
        E 112 82 2a 00
        E 16 b2 0b 7f
        E 0 92 2b 7f
        E 112 82 2b 00
        E 16 b2 0b 7f
        E 0 92 2c 7f
        E 240 82 2c 00
        E 144 b2 0b 7f
        E 0 92 2c 7f
        E 1136 82 2c 00
        E 272 b2 0b 7f
        E 0 92 2c 7f
        E 112 82 2c 00
        E 16 b2 0b 7f
        E 0 92 2b 7f
        E 112 82 2b 00
        E 16 b2 0b 7f
        E 0 92 2a 7f
        E 240 82 2a 00
        E 144 b2 0b 7f
        E 0 92 2a 7f
        E 624 82 2a 00
        E 144 b2 0b 7f
        E 0 92 2a 7f
        E 240 82 2a 00
        E 16 b2 0b 7f
        E 0 92 2a 7f
        E 240 82 2a 00
        E 16 b2 0b 7f
        E 0 92 29 7f
        E 112 82 29 00
        E 16 b2 0b 7f
        E 0 92 2a 7f
        E 112 82 2a 00
        E 16 b2 0b 7f
        E 0 92 2b 7f
        E 112 82 2b 00
        E 16 b2 0b 7f
        E 0 92 2c 7f
        E 240 82 2c 00
        E 144 b2 0b 7f
        E 0 92 2c 7f
        E 1136 82 2c 00
        E 272 b2 0b 7f
        E 0 92 2c 7f
        E 112 82 2c 00
        E 16 b2 0b 7f
        E 0 92 2b 7f
        E 112 82 2b 00
        E 16 b2 0b 7f
        E 0 92 2a 7f
        E 240 82 2a 00
        E 144 b2 0b 7f
        E 0 92 2a 7f
        E 624 82 2a 00
        E 144 b2 0b 7f
        E 0 92 2a 7f
        E 240 82 2a 00
        E 16 b2 0b 7f
        E 0 92 2a 7f
        E 240 82 2a 00
        E 16 b2 0b 7f
        E 0 92 29 7f
        E 112 82 29 00
        E 16 b2 0b 7f
        E 0 92 2a 7f
        E 112 82 2a 00
        E 16 b2 0b 7f
        E 0 92 2b 7f
        E 112 82 2b 00
        E 16 b2 0b 7f
        E 0 92 2c 7f
        E 240 82 2c 00
        E 144 b2 0b 7f
        E 0 92 2c 7f
        E 1136 82 2c 00
        E 272 b2 0b 7f
        E 0 92 2c 7f
        E 112 82 2c 00
        E 16 b2 0b 7f
        E 0 92 2b 7f
        E 112 82 2b 00
        E 16 b2 0b 7f
        E 0 92 2a 7f
        E 240 82 2a 00
        E 144 b2 0b 7f
        E 0 92 2a 7f
        E 624 82 2a 00
        E 144 b2 0b 7f
        E 0 92 2a 7f
        E 240 82 2a 00
        E 16 b2 0b 7f
        E 0 92 2a 7f
        E 240 82 2a 00
        E 16 b2 0b 7f
        E 0 92 29 7f
        E 112 82 29 00
        E 16 b2 0b 7f
        E 0 92 2a 7f
        E 112 82 2a 00
        E 16 b2 0b 7f
        E 0 92 2b 7f
        E 112 82 2b 00
        E 16 b2 0b 7f
        E 0 92 2c 7f
        E 240 82 2c 00
        E 144 b2 0b 7f
        E 0 92 2c 7f
        E 1136 82 2c 00
        E 272 b2 0b 7f
        E 0 92 2c 7f
        E 112 82 2c 00
        E 16 b2 0b 7f
        E 0 92 2b 7f
        E 112 82 2b 00
        E 16 b2 0b 7f
        E 0 92 2a 7f
        E 240 82 2a 00
        E 144 b2 0b 7f
        E 0 92 2a 7f
        E 624 82 2a 00
        E 144 b2 0b 7f
        E 0 92 2a 7f
        E 240 82 2a 00
        E 16 b2 0b 7f
        E 0 92 2a 7f
        E 240 82 2a 00
        E 16 b2 0b 7f
        E 0 92 29 7f
        E 112 82 29 00
        E 16 b2 0b 7f
        E 0 92 2a 7f
        E 112 82 2a 00
        E 16 b2 0b 7f
        E 0 92 2b 7f
        E 112 82 2b 00
        E 16 b2 0b 7f
        E 0 92 2c 7f
        E 240 82 2c 00
        E 144 b2 0b 7f
        E 0 92 2c 7f
        E 1136 82 2c 00
        E 272 b2 0b 7f
        E 0 92 2c 7f
        E 112 82 2c 00
        E 16 b2 0b 7f
        E 0 92 2b 7f
        E 112 82 2b 00
        E 16 b2 0b 7f
        E 0 92 2a 7f
        E 240 82 2a 00
        E 144 b2 0b 7f
        E 0 92 2a 7f
        E 624 82 2a 00
        E 144 b2 0b 7f
        E 0 92 2a 7f
        E 240 82 2a 00
        E 16 b2 0b 7f
        E 0 92 2a 7f
        E 240 82 2a 00
        E 16 b2 0b 7f
        E 0 92 29 7f
        E 112 82 29 00
        E 16 b2 0b 7f
        E 0 92 2a 7f
        E 112 82 2a 00
        E 16 b2 0b 7f
        E 0 92 2b 7f
        E 112 82 2b 00
        E 16 b2 0b 7f
        E 0 92 2c 7f
        E 240 82 2c 00
        E 144 b2 0b 7f
        E 0 92 2c 7f
        E 1136 82 2c 00
        E 272 b2 0b 7f
        E 0 92 2c 7f
        E 112 82 2c 00
        E 16 b2 0b 7f
        E 0 92 2b 7f
        E 112 82 2b 00
        E 16 b2 0b 7f
        E 0 92 2a 7f
        E 240 82 2a 00
        E 144 b2 0b 7f
        E 0 92 2a 7f
        E 624 82 2a 00
        E 144 b2 0b 7f
        E 0 92 2a 7f
        E 240 82 2a 00
        E 16 b2 0b 7f
        E 0 92 2a 7f
        E 240 82 2a 00
        E 16 b2 0b 7f
        E 0 92 29 7f
        E 112 82 29 00
        E 16 b2 0b 7f
        E 0 92 2a 7f
        E 112 82 2a 00
        E 16 b2 0b 7f
        E 0 92 2b 7f
        E 112 82 2b 00
        E 16 b2 0b 7f
        E 0 92 2c 7f
        E 240 82 2c 00
        E 144 b2 0b 7f
        E 0 92 2c 7f
        E 1136 82 2c 00
        E 272 b2 0b 7f
        E 0 92 2c 7f
        E 112 82 2c 00
        E 16 b2 0b 7f
        E 0 92 2b 7f
        E 112 82 2b 00
        E 16 b2 0b 7f
        E 0 92 2a 7f
        E 240 82 2a 00
        E 144 b2 0b 7f
        E 0 92 2a 7f
        E 624 82 2a 00
        E 144 b2 0b 7f
        E 0 92 2a 7f
        E 240 82 2a 00
        E 16 b2 0b 7f
        E 0 92 2a 7f
        E 240 82 2a 00
        E 16 b2 0b 7f
        E 0 92 29 7f
        E 112 82 29 00
        E 16 b2 0b 7f
        E 0 92 2a 7f
        E 112 82 2a 00
        E 16 b2 0b 7f
        E 0 92 2b 7f
        E 112 82 2b 00
        E 16 b2 0b 7f
        E 0 92 2c 7f
        E 240 82 2c 00
        E 144 b2 0b 7f
        E 0 92 2c 7f
        E 1136 82 2c 00
        E 272 b2 0b 7f
        E 0 92 2c 7f
        E 112 82 2c 00
        E 16 b2 0b 7f
        E 0 92 2b 7f
        E 112 82 2b 00
        E 16 b2 0b 7f
        E 0 92 2a 7f
        E 240 82 2a 00
        E 144 b2 0b 7f
        E 0 92 2a 7f
        E 624 82 2a 00
        E 144 b2 0b 7f
        E 0 92 2a 7f
        E 240 82 2a 00
        E 16 b2 0b 7f
        E 0 92 2a 7f
        E 240 82 2a 00
        E 16 b2 0b 7f
        E 0 92 29 7f
        E 112 82 29 00
        E 16 b2 0b 7f
        E 0 92 2a 7f
        E 112 82 2a 00
        E 16 b2 0b 7f
        E 0 92 2b 7f
        E 112 82 2b 00
        E 16 b2 0b 7f
        E 0 92 2c 7f
        E 240 82 2c 00
        E 144 b2 0b 7f
        E 0 92 2c 7f
        E 1136 82 2c 00
        E 272 b2 0b 7f
        E 0 92 2c 7f
        E 112 82 2c 00
        E 16 b2 0b 7f
        E 0 92 2b 7f
        E 112 82 2b 00
        E 16 b2 0b 7f
        E 0 92 2a 7f
        E 240 82 2a 00
        E 144 b2 0b 7f
        E 0 92 2a 7f
        E 624 82 2a 00
        E 144 b2 0b 7f
        E 0 92 2a 7f
        E 240 82 2a 00
        E 16 b2 0b 7f
        E 0 92 2a 7f
        E 240 82 2a 00
        E 16 b2 0b 7f
        E 0 92 29 7f
        E 112 82 29 00
        E 16 b2 0b 7f
        E 0 92 2a 7f
        E 112 82 2a 00
        E 16 b2 0b 7f
        E 0 92 2b 7f
        E 112 82 2b 00
        E 16 b2 0b 7f
        E 0 92 2c 7f
        E 240 82 2c 00
        E 144 b2 0b 7f
        E 0 92 2c 7f
        E 1136 82 2c 00
        E 272 b2 0b 7f
        E 0 92 2c 7f
        E 112 82 2c 00
        E 16 b2 0b 7f
        E 0 92 2b 7f
        E 112 82 2b 00
        E 16 b2 0b 7f
        E 0 92 2a 7f
        E 240 82 2a 00
        E 144 b2 0b 7f
        E 0 92 2a 7f
        E 624 82 2a 00
        E 144 b2 0b 7f
        E 0 92 2a 7f
        E 240 82 2a 00
        E 16 b2 0b 7f
        E 0 92 2a 7f
        E 240 82 2a 00
        E 16 b2 0b 7f
        E 0 92 29 7f
        E 112 82 29 00
        E 16 b2 0b 7f
        E 0 92 2a 7f
        E 112 82 2a 00
        E 16 b2 0b 7f
        E 0 92 2b 7f
        E 112 82 2b 00
        E 16 b2 0b 7f
        E 0 92 2c 7f
        E 240 82 2c 00
        E 144 b2 0b 7f
        E 0 92 2c 7f
        E 1136 82 2c 00
        E 272 b2 0b 7f
        E 0 92 2c 7f
        E 112 82 2c 00
        E 16 b2 0b 7f
        E 0 92 2b 7f
        E 112 82 2b 00
        E 16 b2 0b 7f
        E 0 92 2a 7f
        E 240 82 2a 00
        E 144 b2 0b 7f
        E 0 92 2a 7f
        E 624 82 2a 00
        E 144 b2 0b 7f
        E 0 92 2a 7f
        E 240 82 2a 00
        E 16 b2 0b 7f
        E 0 92 2a 7f
        E 240 82 2a 00
        E 16 b2 0b 7f
        E 0 92 29 7f
        E 112 82 29 00
        E 16 b2 0b 7f
        E 0 92 2a 7f
        E 112 82 2a 00
        E 16 b2 0b 7f
        E 0 92 2b 7f
        E 112 82 2b 00
        E 16 b2 0b 7f
        E 0 92 2c 7f
        E 240 82 2c 00
        E 144 b2 0b 7f
        E 0 92 2c 7f
        E 1136 82 2c 00
        E 272 b2 0b 7f
        E 0 92 2c 7f
        E 112 82 2c 00
        E 16 b2 0b 7f
        E 0 92 2b 7f
        E 112 82 2b 00
        E 16 b2 0b 7f
        E 0 92 2a 7f
        E 240 82 2a 00
        E 144 b2 0b 7f
        E 0 92 2a 7f
        E 624 82 2a 00
        E 144 b2 0b 7f
        E 0 92 2a 7f
        E 240 82 2a 00
        E 16 b2 0b 7f
        E 0 92 2a 7f
        E 240 82 2a 00
        E 16 b2 0b 7f
        E 0 92 29 7f
        E 112 82 29 00
        E 16 b2 0b 7f
        E 0 92 2a 7f
        E 112 82 2a 00
        E 16 b2 0b 7f
        E 0 92 2b 7f
        E 112 82 2b 00
        E 16 b2 0b 7f
        E 0 92 2c 7f
        E 240 82 2c 00
        E 144 b2 0b 7f
        E 0 92 2c 7f
        E 1136 82 2c 00
        E 272 b2 0b 7f
        E 0 92 2c 7f
        E 112 82 2c 00
        E 16 b2 0b 7f
        E 0 92 2b 7f
        E 112 82 2b 00
        E 16 b2 0b 7f
        E 0 92 2a 7f
        E 240 82 2a 00
        E 144 b2 0b 7f
        E 0 92 2a 7f
        E 624 82 2a 00
        E 144 b2 0b 7f
        E 0 92 2a 7f
        E 240 82 2a 00
        E 16 b2 0b 7f
        E 0 92 2a 7f
        E 240 82 2a 00
        E 16 b2 0b 7f
        E 0 92 29 7f
        E 112 82 29 00
        E 16 b2 0b 7f
        E 0 92 2a 7f
        E 112 82 2a 00
        E 16 b2 0b 7f
        E 0 92 2b 7f
        E 112 82 2b 00
        E 16 b2 7b 00
        E 0 ff 2f 00
      >
    >
  >
  <TRACK {702CC732-82C8-4CC1-BFA6-F210199DB107}
    NAME "NES - Noise / Drums"
    PEAKCOL 11184810
    BEAT -1
    AUTOMODE 0
    PANLAWFLAGS 3
    VOLPAN 1 0 -1 -1 1
    MUTESOLO 0 0 0
    IPHASE 0
    PLAYOFFS 0 1
    ISBUS 0 0
    BUSCOMP 0 0 0 0 0
    SHOWINMIX 1 0.6667 0.5 1 0.5 0 0 0
    FIXEDLANES 9 0 0 0 0
    SEL 0
    REC 0 5088 1 0 0 0 0 0
    VU 2
    TRACKHEIGHT 0 0 0 0 0 0 0
    INQ 0 0 0 0.5 100 0 0 100
    NCHAN 2
    FX 1
    TRACKID {702CC732-82C8-4CC1-BFA6-F210199DB107}
    PERF 0
    MIDIOUT -1
    MAINSEND 1 0
    <FXCHAIN
      WNDRECT 24 52 700 560
      SHOW 0
      LASTSEL 0
      DOCKED 0
      BYPASS 0 0 0
      <JS "ReapNES Studio/ReapNES_Console.jsfx" ""
        2 15 1 10 80 10 100 2 1 15 1 5 60 10 80 1 1 0 50 0 0 15 1 0 80 0 0 0.500000 0.500000 0.400000 0.300000 0.800000 3 1 0 0 0 0 - - - - - - - - - - - - - - - - - - - - - - - - - -
      >
      FLOATPOS 0 0 0 0
      FXID {812BFD9F-0586-4AA1-A3E9-DC541323C4DC}
      WAK 0 0
    >
  >
>