<REAPER_PROJECT 0.1 "7.27/win64" 1707000000
  <NOTES 0 2
    |ReapNES Studio Project
    |MIDI Import - Adventures_in_the_Magic_Kingdom_title_rom_v1
  >
  RIPPLE 0
  GROUPOVERRIDE 0 0 0
  AUTOXFADE 129
  ENVATTACH 3
  POOLEDENVATTACH 0
  MIXERUIFLAGS 11 48
  ENVFADESZ10 40
  PEAKGAIN 1
  FEEDBACK 0
  PANLAW 1
  PROJOFFS 0 0 0
  MAXPROJLEN 0 0
  GRID 3199 8 1 8 1 0 0 0
  TIMEMODE 1 5 -1 30 0 0 -1
  VIDEO_CONFIG 0 0 65792
  PANMODE 3
  PANLAWFLAGS 3
  CURSOR 0
  ZOOM 100 0 0
  VZOOMEX 6 0
  USE_REC_CFG 0
  RECMODE 1
  SMPTESYNC 0 30 100 40 1000 300 0 0 1 0 0
  LOOP 0
  LOOPGRAN 0 4
  RECORD_PATH "Media" ""
  <RECORD_CFG
    ZXZhdxgAAQ==
  >
  <APPLYFX_CFG
  >
  RENDER_FILE ""
  RENDER_PATTERN ""
  RENDER_FMT 0 2 0
  RENDER_1X 0
  RENDER_RANGE 1 0 0 18 1000
  RENDER_RESAMPLE 3 0 1
  RENDER_ADDTOPROJ 0
  RENDER_STEMS 0
  RENDER_DITHER 0
  TIMELOCKMODE 1
  TEMPOENVLOCKMODE 1
  ITEMMIX 1
  DEFPITCHMODE 589824 0
  TAKELANE 1
  SAMPLERATE 44100 0 0
  <RENDER_CFG
    ZXZhdxgAAQ==
  >
  LOCK 1
  <METRONOME 6 2
    VOL 0.25 0.125
    BEATLEN 4
    FREQ 1760 880 1
    SAMPLES "" ""
    SPLIGNORE 0 0
    SPLDEF 2 660 "" 0
    SPLDEF 3 440 "" 0
    PATTERN 0 169
    PATTERNSTR ABBB
    MULT 1
  >
  GLOBAL_AUTO -1
  TEMPO 128.59999614200012 4 4
  PLAYRATE 1 0 0.25 4
  SELECTION 0 0
  SELECTION2 0 0
  MASTERAUTOMODE 0
  MASTERTRACKHEIGHT 0 0
  MASTERPEAKCOL 16576
  MASTERMUTESOLO 0
  MASTERTRACKVIEW 0 0.6667 0.5 0.5 0 0 0 0 0 0 0 0 0 0
  MASTERHWOUT 0 0 1 0 0 0 0 -1
  MASTER_NCH 2 2
  MASTER_VOLUME 1 0 -1 -1 1
  MASTER_PANMODE 3
  MASTER_PANLAWFLAGS 3
  MASTER_FX 1
  MASTER_SEL 0
  <MASTERPLAYSPEEDENV
    EGUID {F0CCD32F-3EE1-408F-8D67-71176DA7047F}
    ACT 0 -1
    VIS 0 1 1
    LANEHEIGHT 0 0
    ARM 0
    DEFSHAPE 0 -1 -1
  >
  <TEMPOENVEX
    EGUID {9AED4BCB-16B9-4595-96AF-C5DF3404D070}
    ACT 1 -1
    VIS 1 0 1
    LANEHEIGHT 0 0
    ARM 0
    DEFSHAPE 1 -1 -1
  >
  <PROJBAY
  >
  <TRACK {F63641DB-F6E2-423C-91AE-6B45860F1F13}
    NAME "NES - Pulse 1 [ch0]"
    PEAKCOL 16576606
    BEAT -1
    AUTOMODE 0
    PANLAWFLAGS 3
    VOLPAN 1 0 -1 -1 1
    MUTESOLO 0 0 0
    IPHASE 0
    PLAYOFFS 0 1
    ISBUS 0 0
    BUSCOMP 0 0 0 0 0
    SHOWINMIX 1 0.6667 0.5 1 0.5 0 0 0
    FIXEDLANES 9 0 0 0 0
    SEL 1
    REC 1 5088 1 0 0 0 0 0
    VU 2
    TRACKHEIGHT 0 0 0 0 0 0 0
    INQ 0 0 0 0.5 100 0 0 100
    NCHAN 2
    FX 1
    TRACKID {F63641DB-F6E2-423C-91AE-6B45860F1F13}
    PERF 0
    MIDIOUT -1
    MAINSEND 1 0
    <FXCHAIN
      WNDRECT 24 52 700 560
      SHOW 0
      LASTSEL 0
      DOCKED 0
      BYPASS 0 0 0
      <JS "ReapNES Studio/ReapNES_Console.jsfx" ""
        2 15 1 10 80 10 100 2 1 15 1 5 60 10 80 1 1 0 50 0 0 15 1 0 100 0 0 0.500000 0.500000 0.400000 0.300000 0.800000 0 1 0 0 0 0 - - - - - - - - - - - - - - - - - - - - - - - - - -
      >
      FLOATPOS 0 0 0 0
      FXID {5FE69ABB-ADB3-4498-8F95-952AC0820131}
      WAK 0 0
    >
    <ITEM
      POSITION 0
      LENGTH 9.2068432
      LOOP 0
      ALLTAKES 0
      FADEIN 0 0 0 0 0 0 0
      FADEOUT 0 0 0 0 0 0 0
      MUTE 0 0
      SEL 0
      IGUID {8E48431F-E7E1-4CAE-94AB-BCD060DA0153}
      <SOURCE MIDI
        HASDATA 1 480 QN
        CCINTERP 32
        E 0 c0 50
        E 0 b0 0c 60
        E 0 b0 0b 77
        E 0 90 3a 77
        E 16 b0 0b 6e
        E 16 b0 0b 66
        E 32 b0 0b 5d
        E 16 b0 0b 55
        E 32 b0 0b 4c
        E 240 b0 0b 44
        E 16 b0 0b 77
        E 0 80 3a 00
        E 0 90 3b 77
        E 16 b0 0b 6e
        E 16 b0 0b 66
        E 32 b0 0b 5d
        E 16 b0 0b 55
        E 32 b0 0b 4c
        E 240 b0 0b 44
        E 16 b0 0b 77
        E 0 80 3b 00
        E 0 90 3a 77
        E 16 b0 0b 6e
        E 16 b0 0b 66
        E 32 b0 0b 5d
        E 16 b0 0b 55
        E 32 b0 0b 4c
        E 608 b0 0b 44
        E 16 b0 0b 77
        E 0 80 3a 00
        E 0 90 38 77
        E 16 b0 0b 6e
        E 16 b0 0b 66
        E 32 b0 0b 5d
        E 16 b0 0b 55
        E 32 b0 0b 4c
        E 240 b0 0b 44
        E 16 b0 0b 77
        E 0 80 38 00
        E 0 90 3a 77
        E 16 b0 0b 6e
        E 16 b0 0b 66
        E 32 b0 0b 5d
        E 16 b0 0b 55
        E 32 b0 0b 4c
        E 240 b0 0b 44
        E 16 b0 0b 77
        E 0 80 3a 00
        E 0 90 38 77
        E 16 b0 0b 6e
        E 16 b0 0b 66
        E 32 b0 0b 5d
        E 16 b0 0b 55
        E 32 b0 0b 4c
        E 2432 b0 0b 44
        E 16 b0 0b 3b
        E 16 b0 0b 77
        E 16 b0 0b 6e
        E 16 b0 0b 66
        E 32 b0 0b 5d
        E 16 b0 0b 55
        E 32 b0 0b 4c
        E 240 b0 0b 44
        E 16 b0 0b 77
        E 0 80 38 00
        E 0 90 3d 77
        E 16 b0 0b 6e
        E 16 b0 0b 66
        E 32 b0 0b 5d
        E 16 b0 0b 55
        E 32 b0 0b 4c
        E 608 b0 0b 44
        E 16 b0 0b 77
        E 0 80 3d 00
        E 0 90 3c 77
        E 16 b0 0b 6e
        E 16 b0 0b 66
        E 32 b0 0b 5d
        E 16 b0 0b 55
        E 32 b0 0b 4c
        E 240 b0 0b 44
        E 16 b0 0b 77
        E 0 80 3c 00
        E 0 90 3d 77
        E 16 b0 0b 6e
        E 16 b0 0b 66
        E 32 b0 0b 5d
        E 16 b0 0b 55
        E 32 b0 0b 4c
        E 240 b0 0b 44
        E 16 b0 0b 77
        E 0 80 3d 00
        E 0 90 3b 77
        E 16 b0 0b 6e
        E 16 b0 0b 66
        E 32 b0 0b 5d
        E 16 b0 0b 55
        E 32 b0 0b 4c
        E 608 b0 0b 44
        E 16 b0 0b 77
        E 0 80 3b 00
        E 0 90 3a 77
        E 16 b0 0b 6e
        E 16 b0 0b 66
        E 32 b0 0b 5d
        E 16 b0 0b 55
        E 32 b0 0b 4c
        E 240 b0 0b 44
        E 16 b0 0b 77
        E 0 80 3a 00
        E 0 90 3b 77
        E 16 b0 0b 6e
        E 16 b0 0b 66
        E 32 b0 0b 5d
        E 16 b0 0b 55
        E 32 b0 0b 4c
        E 240 b0 0b 44
        E 16 b0 0b 77
        E 0 80 3b 00
        E 0 90 3a 77
        E 16 b0 0b 6e
        E 16 b0 0b 66
        E 32 b0 0b 5d
        E 16 b0 0b 55
        E 32 b0 0b 4c
        E 432 b0 0b 77
        E 0 80 3a 00
        E 0 90 38 77
        E 16 b0 0b 6e
        E 16 b0 0b 66
        E 32 b0 0b 5d
        E 16 b0 0b 55
        E 32 b0 0b 4c
        E 64 b0 0b 44
        E 16 b0 0b 77
        E 0 80 38 00
        E 0 90 36 77
        E 16 b0 0b 6e
        E 16 b0 0b 66
        E 32 b0 0b 5d
        E 16 b0 0b 55
        E 32 b0 0b 4c
        E 528 80 36 00
        E 0 b0 7b 00
        E 0 ff 2f 00
      >
    >
  >
  <TRACK {19DC4F5B-C04F-407F-8B7B-328237E672E1}
    NAME "NES - Pulse 2 [ch1]"
    PEAKCOL 10092441
    BEAT -1
    AUTOMODE 0
    PANLAWFLAGS 3
    VOLPAN 1 0 -1 -1 1
    MUTESOLO 0 0 0
    IPHASE 0
    PLAYOFFS 0 1
    ISBUS 0 0
    BUSCOMP 0 0 0 0 0
    SHOWINMIX 1 0.6667 0.5 1 0.5 0 0 0
    FIXEDLANES 9 0 0 0 0
    SEL 0
    REC 0 5088 1 0 0 0 0 0
    VU 2
    TRACKHEIGHT 0 0 0 0 0 0 0
    INQ 0 0 0 0.5 100 0 0 100
    NCHAN 2
    FX 1
    TRACKID {19DC4F5B-C04F-407F-8B7B-328237E672E1}
    PERF 0
    MIDIOUT -1
    MAINSEND 1 0
    <FXCHAIN
      WNDRECT 24 52 700 560
      SHOW 0
      LASTSEL 0
      DOCKED 0
      BYPASS 0 0 0
      <JS "ReapNES Studio/ReapNES_Console.jsfx" ""
        2 15 1 10 80 10 100 2 1 15 1 5 60 10 80 1 1 0 50 0 0 15 1 0 100 0 0 0.500000 0.500000 0.400000 0.300000 0.800000 1 1 0 0 0 0 - - - - - - - - - - - - - - - - - - - - - - - - - -
      >
      FLOATPOS 0 0 0 0
      FXID {51A86E45-7CF0-4DDE-AA46-126A76CCE0E0}
      WAK 0 0
    >
    <ITEM
      POSITION 0
      LENGTH 9.2068432
      LOOP 0
      ALLTAKES 0
      FADEIN 0 0 0 0 0 0 0
      FADEOUT 0 0 0 0 0 0 0
      MUTE 0 0
      SEL 0
      IGUID {8A97D7CD-F6FB-40EA-932B-263E661FE440}
      <SOURCE MIDI
        HASDATA 1 480 QN
        CCINTERP 32
        E 0 c1 51
        E 0 b1 0c 40
        E 0 b1 0b 5d
        E 0 91 32 5d
        E 16 b1 0b 55
        E 16 b1 0b 4c
        E 32 b1 0b 44
        E 16 b1 0b 3b
        E 32 b1 0b 33
        E 240 b1 0b 2a
        E 16 b1 0b 5d
        E 0 81 32 00
        E 0 91 33 5d
        E 16 b1 0b 55
        E 16 b1 0b 4c
        E 32 b1 0b 44
        E 16 b1 0b 3b
        E 32 b1 0b 33
        E 240 b1 0b 2a
        E 16 b1 0b 5d
        E 0 81 33 00
        E 0 91 32 5d
        E 16 b1 0b 55
        E 16 b1 0b 4c
        E 32 b1 0b 44
        E 16 b1 0b 3b
        E 32 b1 0b 33
        E 608 b1 0b 2a
        E 16 b1 0b 5d
        E 16 b1 0b 55
        E 16 b1 0b 4c
        E 32 b1 0b 44
        E 16 b1 0b 3b
        E 32 b1 0b 33
        E 240 b1 0b 2a
        E 16 b1 0b 5d
        E 16 b1 0b 55
        E 16 b1 0b 4c
        E 32 b1 0b 44
        E 16 b1 0b 3b
        E 32 b1 0b 33
        E 240 b1 0b 2a
        E 16 b1 0b 5d
        E 0 81 32 00
        E 0 91 31 5d
        E 16 b1 0b 55
        E 16 b1 0b 4c
        E 32 b1 0b 44
        E 16 b1 0b 3b
        E 32 b1 0b 33
        E 240 b1 0b 2a
        E 16 b1 0b 5d
        E 0 81 31 00
        E 0 91 49 5d
        E 16 b1 0b 4c
        E 16 b1 0b 44
        E 16 b1 0b 33
        E 16 b1 0b 2a
        E 16 b1 0b 5d
        E 0 81 49 00
        E 0 91 4b 5d
        E 16 b1 0b 4c
        E 16 b1 0b 44
        E 16 b1 0b 33
        E 16 b1 0b 2a
        E 32 b1 0b 5d
        E 0 81 4b 00
        E 0 91 4c 5d
        E 16 b1 0b 4c
        E 16 b1 0b 44
        E 16 b1 0b 33
        E 16 b1 0b 2a
        E 16 b1 0b 22
        E 16 b1 0b 5d
        E 0 81 4c 00
        E 0 91 4e 5d
        E 16 b1 0b 4c
        E 16 b1 0b 44
        E 16 b1 0b 33
        E 16 b1 0b 2a
        E 16 b1 0b 22
        E 16 b1 0b 5d
        E 0 81 4e 00
        E 0 91 50 5d
        E 16 b1 0b 4c
        E 16 b1 0b 44
        E 16 b1 0b 33
        E 16 b1 0b 2a
        E 16 b1 0b 5d
        E 0 81 50 00
        E 0 91 4f 5d
        E 16 b1 0b 4c
        E 16 b1 0b 44
        E 16 b1 0b 33
        E 16 b1 0b 2a
        E 32 b1 0b 5d
        E 0 81 4f 00
        E 0 91 50 5d
        E 16 b1 0b 4c
        E 16 b1 0b 44
        E 16 b1 0b 33
        E 16 b1 0b 2a
        E 16 b1 0b 22
        E 16 b1 0b 5d
        E 0 81 50 00
        E 0 91 52 5d
        E 16 b1 0b 4c
        E 16 b1 0b 44
        E 16 b1 0b 33
        E 16 b1 0b 2a
        E 16 b1 0b 22
        E 16 b1 0b 5d
        E 0 81 52 00
        E 0 91 53 5d
        E 16 b1 0b 4c
        E 16 b1 0b 44
        E 16 b1 0b 33
        E 16 b1 0b 2a
        E 16 b1 0b 5d
        E 0 81 53 00
        E 0 91 52 5d
        E 16 b1 0b 4c
        E 16 b1 0b 44
        E 16 b1 0b 33
        E 16 b1 0b 2a
        E 32 b1 0b 5d
        E 0 81 52 00
        E 0 91 50 5d
        E 16 b1 0b 4c
        E 16 b1 0b 44
        E 16 b1 0b 33
        E 16 b1 0b 2a
        E 16 b1 0b 22
        E 16 b1 0b 5d
        E 0 81 50 00
        E 0 91 4f 5d
        E 16 b1 0b 4c
        E 16 b1 0b 44
        E 16 b1 0b 33
        E 16 b1 0b 2a
        E 16 b1 0b 22
        E 16 b1 0b 5d
        E 0 81 4f 00
        E 0 91 4e 5d
        E 16 b1 0b 4c
        E 16 b1 0b 44
        E 16 b1 0b 33
        E 16 b1 0b 2a
        E 16 b1 0b 5d
        E 0 81 4e 00
        E 0 91 4d 5d
        E 16 b1 0b 4c
        E 16 b1 0b 44
        E 16 b1 0b 33
        E 16 b1 0b 2a
        E 32 b1 0b 5d
        E 0 81 4d 00
        E 0 91 4c 5d
        E 16 b1 0b 4c
        E 16 b1 0b 44
        E 16 b1 0b 33
        E 16 b1 0b 2a
        E 16 b1 0b 22
        E 16 b1 0b 5d
        E 0 81 4c 00
        E 0 91 4b 5d
        E 16 b1 0b 4c
        E 16 b1 0b 44
        E 16 b1 0b 33
        E 16 b1 0b 2a
        E 16 b1 0b 22
        E 16 b1 0b 5d
        E 0 81 4b 00
        E 0 91 4a 5d
        E 16 b1 0b 4c
        E 16 b1 0b 44
        E 16 b1 0b 33
        E 16 b1 0b 2a
        E 16 b1 0b 5d
        E 0 81 4a 00
        E 0 91 49 5d
        E 16 b1 0b 4c
        E 16 b1 0b 44
        E 16 b1 0b 33
        E 16 b1 0b 2a
        E 32 b1 0b 5d
        E 0 81 49 00
        E 0 91 48 5d
        E 16 b1 0b 4c
        E 16 b1 0b 44
        E 16 b1 0b 33
        E 16 b1 0b 2a
        E 16 b1 0b 22
        E 16 b1 0b 5d
        E 0 81 48 00
        E 0 91 47 5d
        E 16 b1 0b 4c
        E 16 b1 0b 44
        E 16 b1 0b 33
        E 16 b1 0b 2a
        E 16 b1 0b 22
        E 16 b1 0b 5d
        E 0 81 47 00
        E 0 91 46 5d
        E 16 b1 0b 4c
        E 16 b1 0b 44
        E 16 b1 0b 33
        E 16 b1 0b 2a
        E 16 b1 0b 22
        E 32 b1 0b 19
        E 48 b1 0b 11
        E 48 b1 0b 08
        E 32 81 46 00
        E 128 b1 0b 5d
        E 0 91 34 5d
        E 16 b1 0b 55
        E 16 b1 0b 4c
        E 32 b1 0b 44
        E 16 b1 0b 3b
        E 32 b1 0b 33
        E 240 b1 0b 2a
        E 16 b1 0b 5d
        E 16 b1 0b 55
        E 16 b1 0b 4c
        E 32 b1 0b 44
        E 16 b1 0b 3b
        E 32 b1 0b 33
        E 608 b1 0b 2a
        E 16 b1 0b 5d
        E 0 81 34 00
        E 0 91 33 5d
        E 16 b1 0b 55
        E 16 b1 0b 4c
        E 32 b1 0b 44
        E 16 b1 0b 3b
        E 32 b1 0b 33
        E 240 b1 0b 2a
        E 16 b1 0b 5d
        E 0 81 33 00
        E 0 91 34 5d
        E 16 b1 0b 55
        E 16 b1 0b 4c
        E 32 b1 0b 44
        E 16 b1 0b 3b
        E 32 b1 0b 33
        E 240 b1 0b 2a
        E 16 b1 0b 5d
        E 0 81 34 00
        E 0 91 33 5d
        E 16 b1 0b 55
        E 16 b1 0b 4c
        E 32 b1 0b 44
        E 16 b1 0b 3b
        E 32 b1 0b 33
        E 608 b1 0b 2a
        E 16 b1 0b 5d
        E 0 81 33 00
        E 0 91 32 5d
        E 16 b1 0b 55
        E 16 b1 0b 4c
        E 32 b1 0b 44
        E 16 b1 0b 3b
        E 32 b1 0b 33
        E 608 b1 0b 2a
        E 16 b1 0b 5d
        E 0 81 32 00
        E 0 91 31 5d
        E 16 b1 0b 55
        E 16 b1 0b 4c
        E 32 b1 0b 44
        E 16 b1 0b 3b
        E 32 b1 0b 33
        E 960 b1 0b 2a
        E 16 b1 0b 22
        E 16 b1 0b 5d
        E 0 81 31 00
        E 0 91 55 5d
        E 16 b1 0b 4c
        E 16 b1 0b 44
        E 16 b1 0b 33
        E 16 b1 0b 2a
        E 16 b1 0b 22
        E 16 b1 0b 5d
        E 0 81 55 00
        E 0 91 57 5d
        E 16 b1 0b 4c
        E 16 b1 0b 44
        E 16 b1 0b 33
        E 16 b1 0b 2a
        E 16 b1 0b 5d
        E 0 81 57 00
        E 0 91 58 5d
        E 16 b1 0b 4c
        E 16 b1 0b 44
        E 16 b1 0b 33
        E 16 b1 0b 2a
        E 32 81 58 00
        E 0 b1 7b 00
        E 0 ff 2f 00
      >
    >
  >
  <TRACK {58D15D45-83E0-4B2D-92CD-FB165F1A7685}
    NAME "NES - Triangle [ch2]"
    PEAKCOL 16744192
    BEAT -1
    AUTOMODE 0
    PANLAWFLAGS 3
    VOLPAN 1 0 -1 -1 1
    MUTESOLO 0 0 0
    IPHASE 0
    PLAYOFFS 0 1
    ISBUS 0 0
    BUSCOMP 0 0 0 0 0
    SHOWINMIX 1 0.6667 0.5 1 0.5 0 0 0
    FIXEDLANES 9 0 0 0 0
    SEL 0
    REC 0 5088 1 0 0 0 0 0
    VU 2
    TRACKHEIGHT 0 0 0 0 0 0 0
    INQ 0 0 0 0.5 100 0 0 100
    NCHAN 2
    FX 1
    TRACKID {58D15D45-83E0-4B2D-92CD-FB165F1A7685}
    PERF 0
    MIDIOUT -1
    MAINSEND 1 0
    <FXCHAIN
      WNDRECT 24 52 700 560
      SHOW 0
      LASTSEL 0
      DOCKED 0
      BYPASS 0 0 0
      <JS "ReapNES Studio/ReapNES_Console.jsfx" ""
        2 15 1 10 80 10 100 2 1 15 1 5 60 10 80 1 1 0 50 0 0 15 1 0 100 0 0 0.500000 0.500000 0.400000 0.300000 0.800000 2 1 0 0 0 0 - - - - - - - - - - - - - - - - - - - - - - - - - -
      >
      FLOATPOS 0 0 0 0
      FXID {B23A2741-95C8-40D2-8A47-0518803865F3}
      WAK 0 0
    >
    <ITEM
      POSITION 0
      LENGTH 9.2068432
      LOOP 0
      ALLTAKES 0
      FADEIN 0 0 0 0 0 0 0
      FADEOUT 0 0 0 0 0 0 0
      MUTE 0 0
      SEL 0
      IGUID {2CB78249-4249-4FB7-9E42-D43DED5A8501}
      <SOURCE MIDI
        HASDATA 1 480 QN
        CCINTERP 32
        E 0 c2 26
        E 0 b2 0b 7f
        E 0 92 23 7f
        E 144 82 23 00
        E 32 b2 0b 7f
        E 0 92 2a 7f
        E 144 82 2a 00
        E 48 b2 0b 7f
        E 0 92 23 7f
        E 128 82 23 00
        E 48 b2 0b 7f
        E 0 92 2a 7f
        E 144 82 2a 00
        E 48 b2 0b 7f
        E 0 92 23 7f
        E 128 82 23 00
        E 48 b2 0b 7f
        E 0 92 2c 7f
        E 144 82 2c 00
        E 224 b2 0b 7f
        E 0 92 2c 7f
        E 144 82 2c 00
        E 48 b2 0b 7f
        E 0 92 23 7f
        E 128 82 23 00
        E 48 b2 0b 7f
        E 0 92 2c 7f
        E 144 82 2c 00
        E 48 b2 0b 7f
        E 0 92 23 7f
        E 128 82 23 00
        E 48 b2 0b 7f
        E 0 92 2c 7f
        E 144 82 2c 00
        E 48 b2 0b 7f
        E 0 92 23 7f
        E 128 82 23 00
        E 48 b2 0b 7f
        E 0 92 2e 7f
        E 144 82 2e 00
        E 224 b2 0b 7f
        E 0 92 2e 7f
        E 144 82 2e 00
        E 48 b2 0b 7f
        E 0 92 23 7f
        E 128 82 23 00
        E 48 b2 0b 7f
        E 0 92 2e 7f
        E 144 82 2e 00
        E 48 b2 0b 7f
        E 0 92 23 7f
        E 128 82 23 00
        E 48 b2 0b 7f
        E 0 92 2e 7f
        E 144 82 2e 00
        E 48 b2 0b 7f
        E 0 92 23 7f
        E 128 82 23 00
        E 48 b2 0b 7f
        E 0 92 2c 7f
        E 144 82 2c 00
        E 224 b2 0b 7f
        E 0 92 2c 7f
        E 144 82 2c 00
        E 48 b2 0b 7f
        E 0 92 23 7f
        E 128 82 23 00
        E 48 b2 0b 7f
        E 0 92 2c 7f
        E 144 82 2c 00
        E 48 b2 0b 7f
        E 0 92 23 7f
        E 128 82 23 00
        E 48 b2 0b 7f
        E 0 92 2c 7f
        E 144 82 2c 00
        E 48 b2 0b 7f
        E 0 92 25 7f
        E 128 82 25 00
        E 48 b2 0b 7f
        E 0 92 2c 7f
        E 144 82 2c 00
        E 224 b2 0b 7f
        E 0 92 2c 7f
        E 144 82 2c 00
        E 48 b2 0b 7f
        E 0 92 25 7f
        E 128 82 25 00
        E 48 b2 0b 7f
        E 0 92 2c 7f
        E 144 82 2c 00
        E 48 b2 0b 7f
        E 0 92 25 7f
        E 128 82 25 00
        E 48 b2 0b 7f
        E 0 92 2c 7f
        E 144 82 2c 00
        E 48 b2 0b 7f
        E 0 92 25 7f
        E 128 82 25 00
        E 48 b2 0b 7f
        E 0 92 2e 7f
        E 144 82 2e 00
        E 224 b2 0b 7f
        E 0 92 2e 7f
        E 144 82 2e 00
        E 48 b2 0b 7f
        E 0 92 25 7f
        E 128 82 25 00
        E 48 b2 0b 7f
        E 0 92 2e 7f
        E 144 82 2e 00
        E 48 b2 0b 7f
        E 0 92 25 7f
        E 128 82 25 00
        E 48 b2 0b 7f
        E 0 92 2e 7f
        E 144 82 2e 00
        E 48 b2 0b 7f
        E 0 92 1e 7f
        E 128 82 1e 00
        E 48 b2 0b 7f
        E 0 92 2f 7f
        E 144 82 2f 00
        E 224 b2 0b 7f
        E 0 92 2f 7f
        E 144 82 2f 00
        E 48 b2 0b 7f
        E 0 92 1e 7f
        E 128 82 1e 00
        E 48 b2 0b 7f
        E 0 92 2f 7f
        E 144 82 2f 00
        E 48 b2 0b 7f
        E 0 92 1e 7f
        E 128 82 1e 00
        E 48 b2 0b 7f
        E 0 92 2f 7f
        E 96 82 2f 00
        E 0 b2 7b 00
        E 0 ff 2f 00
      >
    >
  >
  <TRACK {C4F936C1-A708-4A37-BE53-1F82745D129E}
    NAME "NES - Noise / Drums [ch3]"
    PEAKCOL 11184810
    BEAT -1
    AUTOMODE 0
    PANLAWFLAGS 3
    VOLPAN 1 0 -1 -1 1
    MUTESOLO 0 0 0
    IPHASE 0
    PLAYOFFS 0 1
    ISBUS 0 0
    BUSCOMP 0 0 0 0 0
    SHOWINMIX 1 0.6667 0.5 1 0.5 0 0 0
    FIXEDLANES 9 0 0 0 0
    SEL 0
    REC 0 5088 1 0 0 0 0 0
    VU 2
    TRACKHEIGHT 0 0 0 0 0 0 0
    INQ 0 0 0 0.5 100 0 0 100
    NCHAN 2
    FX 1
    TRACKID {C4F936C1-A708-4A37-BE53-1F82745D129E}
    PERF 0
    MIDIOUT -1
    MAINSEND 1 0
    <FXCHAIN
      WNDRECT 24 52 700 560
      SHOW 0
      LASTSEL 0
      DOCKED 0
      BYPASS 0 0 0
      <JS "ReapNES Studio/ReapNES_Console.jsfx" ""
        2 15 1 10 80 10 100 2 1 15 1 5 60 10 80 1 1 0 50 0 0 15 1 0 100 0 0 0.500000 0.500000 0.400000 0.300000 0.800000 3 1 0 0 0 0 - - - - - - - - - - - - - - - - - - - - - - - - - -
      >
      FLOATPOS 0 0 0 0
      FXID {DAC917E0-D83D-4A84-92F9-5CC06DF03CCB}
      WAK 0 0
    >
    <ITEM
      POSITION 0
      LENGTH 9.2068432
      LOOP 0
      ALLTAKES 0
      FADEIN 0 0 0 0 0 0 0
      FADEOUT 0 0 0 0 0 0 0
      MUTE 0 0
      SEL 0
      IGUID {E80C6135-9889-484A-BF2B-24E087C422E2}
      <SOURCE MIDI
        HASDATA 1 480 QN
        CCINTERP 32
        E 176 93 2a 55
        E 64 83 2a 00
        E 128 93 2a 55
        E 64 83 2a 00
        E 112 93 2a 55
        E 144 83 2a 00
        E 48 93 2a 55
        E 64 83 2a 00
        E 112 93 2a 55
        E 64 83 2a 00
        E 32 93 2a 55
        E 64 83 2a 00
        E 32 93 2a 55
        E 64 83 2a 00
        E 112 93 2a 55
        E 64 83 2a 00
        E 304 93 2a 55
        E 64 83 2a 00
        E 128 93 2a 55
        E 64 83 2a 00
        E 112 93 2a 55
        E 144 83 2a 00
        E 48 93 2a 55
        E 64 83 2a 00
        E 112 93 2a 55
        E 64 83 2a 00
        E 32 93 2a 55
        E 64 83 2a 00
        E 32 93 2a 55
        E 64 83 2a 00
        E 112 93 2a 55
        E 64 83 2a 00
        E 304 93 2a 55
        E 64 83 2a 00
        E 128 93 2a 55
        E 64 83 2a 00
        E 112 93 2a 55
        E 144 83 2a 00
        E 48 93 2a 55
        E 64 83 2a 00
        E 112 93 2a 55
        E 64 83 2a 00
        E 32 93 2a 55
        E 64 83 2a 00
        E 32 93 2a 55
        E 64 83 2a 00
        E 112 93 2a 55
        E 64 83 2a 00
        E 304 93 2a 55
        E 64 83 2a 00
        E 128 93 2a 55
        E 64 83 2a 00
        E 112 93 2a 55
        E 144 83 2a 00
        E 48 93 2a 55
        E 64 83 2a 00
        E 112 93 2a 55
        E 64 83 2a 00
        E 32 93 2a 55
        E 64 83 2a 00
        E 32 93 2a 55
        E 64 83 2a 00
        E 112 93 2a 55
        E 64 83 2a 00
        E 304 93 2a 55
        E 64 83 2a 00
        E 128 93 2a 55
        E 64 83 2a 00
        E 112 93 2a 55
        E 144 83 2a 00
        E 48 93 2a 55
        E 64 83 2a 00
        E 112 93 2a 55
        E 64 83 2a 00
        E 32 93 2a 55
        E 64 83 2a 00
        E 32 93 2a 55
        E 64 83 2a 00
        E 112 93 2a 55
        E 64 83 2a 00
        E 304 93 2a 55
        E 64 83 2a 00
        E 128 93 2a 55
        E 64 83 2a 00
        E 112 93 2a 55
        E 144 83 2a 00
        E 48 93 2a 55
        E 64 83 2a 00
        E 112 93 2a 55
        E 64 83 2a 00
        E 32 93 2a 55
        E 64 83 2a 00
        E 32 93 2a 55
        E 64 83 2a 00
        E 112 93 2a 55
        E 64 83 2a 00
        E 304 93 2a 55
        E 64 83 2a 00
        E 128 93 2a 55
        E 64 83 2a 00
        E 112 93 2a 55
        E 96 83 2a 00
        E 0 b3 7b 00
        E 0 ff 2f 00
      >
    >
  >
>