<REAPER_PROJECT 0.1 "7.27/win64" 1707000000
  <NOTES 0 2
    |ReapNES Studio Project
    |MIDI Import - Tiny_Toon_title_rom_v1
  >
  RIPPLE 0
  GROUPOVERRIDE 0 0 0
  AUTOXFADE 129
  ENVATTACH 3
  POOLEDENVATTACH 0
  MIXERUIFLAGS 11 48
  ENVFADESZ10 40
  PEAKGAIN 1
  FEEDBACK 0
  PANLAW 1
  PROJOFFS 0 0 0
  MAXPROJLEN 0 0
  GRID 3199 8 1 8 1 0 0 0
  TIMEMODE 1 5 -1 30 0 0 -1
  VIDEO_CONFIG 0 0 65792
  PANMODE 3
  PANLAWFLAGS 3
  CURSOR 0
  ZOOM 100 0 0
  VZOOMEX 6 0
  USE_REC_CFG 0
  RECMODE 1
  SMPTESYNC 0 30 100 40 1000 300 0 0 1 0 0
  LOOP 0
  LOOPGRAN 0 4
  RECORD_PATH "Media" ""
  <RECORD_CFG
    ZXZhdxgAAQ==
  >
  <APPLYFX_CFG
  >
  RENDER_FILE ""
  RENDER_PATTERN ""
  RENDER_FMT 0 2 0
  RENDER_1X 0
  RENDER_RANGE 1 0 0 18 1000
  RENDER_RESAMPLE 3 0 1
  RENDER_ADDTOPROJ 0
  RENDER_STEMS 0
  RENDER_DITHER 0
  TIMELOCKMODE 1
  TEMPOENVLOCKMODE 1
  ITEMMIX 1
  DEFPITCHMODE 589824 0
  TAKELANE 1
  SAMPLERATE 44100 0 0
  <RENDER_CFG
    ZXZhdxgAAQ==
  >
  LOCK 1
  <METRONOME 6 2
    VOL 0.25 0.125
    BEATLEN 4
    FREQ 1760 880 1
    SAMPLES "" ""
    SPLIGNORE 0 0
    SPLDEF 2 660 "" 0
    SPLDEF 3 440 "" 0
    PATTERN 0 169
    PATTERNSTR ABBB
    MULT 1
  >
  GLOBAL_AUTO -1
  TEMPO 128.59999614200012 4 4
  PLAYRATE 1 0 0.25 4
  SELECTION 0 0
  SELECTION2 0 0
  MASTERAUTOMODE 0
  MASTERTRACKHEIGHT 0 0
  MASTERPEAKCOL 16576
  MASTERMUTESOLO 0
  MASTERTRACKVIEW 0 0.6667 0.5 0.5 0 0 0 0 0 0 0 0 0 0
  MASTERHWOUT 0 0 1 0 0 0 0 -1
  MASTER_NCH 2 2
  MASTER_VOLUME 1 0 -1 -1 1
  MASTER_PANMODE 3
  MASTER_PANLAWFLAGS 3
  MASTER_FX 1
  MASTER_SEL 0
  <MASTERPLAYSPEEDENV
    EGUID {3EBE1F2D-BE45-4673-8D4E-D8EC3E8FF839}
    ACT 0 -1
    VIS 0 1 1
    LANEHEIGHT 0 0
    ARM 0
    DEFSHAPE 0 -1 -1
  >
  <TEMPOENVEX
    EGUID {B301DF06-E68D-48A6-8D7A-536C2E490328}
    ACT 1 -1
    VIS 1 0 1
    LANEHEIGHT 0 0
    ARM 0
    DEFSHAPE 1 -1 -1
  >
  <PROJBAY
  >
  <TRACK {68CDF6DD-EE17-4565-9E38-629C8CBAC738}
    NAME "NES - Pulse 1 [ch0]"
    PEAKCOL 16576606
    BEAT -1
    AUTOMODE 0
    PANLAWFLAGS 3
    VOLPAN 1 0 -1 -1 1
    MUTESOLO 0 0 0
    IPHASE 0
    PLAYOFFS 0 1
    ISBUS 0 0
    BUSCOMP 0 0 0 0 0
    SHOWINMIX 1 0.6667 0.5 1 0.5 0 0 0
    FIXEDLANES 9 0 0 0 0
    SEL 1
    REC 1 5088 1 0 0 0 0 0
    VU 2
    TRACKHEIGHT 0 0 0 0 0 0 0
    INQ 0 0 0 0.5 100 0 0 100
    NCHAN 2
    FX 1
    TRACKID {68CDF6DD-EE17-4565-9E38-629C8CBAC738}
    PERF 0
    MIDIOUT -1
    MAINSEND 1 0
    <FXCHAIN
      WNDRECT 24 52 700 560
      SHOW 0
      LASTSEL 0
      DOCKED 0
      BYPASS 0 0 0
      <JS "ReapNES Studio/ReapNES_Console.jsfx" ""
        2 15 1 10 80 10 100 2 1 15 1 5 60 10 80 1 1 0 50 0 0 15 1 0 100 0 0 0.500000 0.500000 0.400000 0.300000 0.800000 0 1 0 0 0 0 - - - - - - - - - - - - - - - - - - - - - - - - - -
      >
      FLOATPOS 0 0 0 0
      FXID {6166C395-FFF4-4ABA-BF30-38E7C0165F4D}
      WAK 0 0
    >
    <ITEM
      POSITION 0
      LENGTH 63.01710920000001
      LOOP 0
      ALLTAKES 0
      FADEIN 0 0 0 0 0 0 0
      FADEOUT 0 0 0 0 0 0 0
      MUTE 0 0
      SEL 0
      IGUID {03635C2E-B1D1-477F-8BE5-6E7FC652D5F0}
      <SOURCE MIDI
        HASDATA 1 480 QN
        CCINTERP 32
        E 0 c0 50
        E 0 b0 0c 40
        E 0 b0 0b 3b
        E 0 90 39 3b
        E 16 b0 0b 33
        E 16 b0 0b 2a
        E 48 b0 0b 08
        E 16 b0 0b 3b
        E 16 b0 0b 33
        E 16 b0 0b 2a
        E 48 b0 0b 08
        E 16 b0 0b 3b
        E 16 b0 0b 33
        E 16 b0 0b 2a
        E 48 b0 0b 08
        E 16 b0 0b 3b
        E 16 b0 0b 33
        E 16 b0 0b 2a
        E 48 b0 0b 08
        E 16 b0 0b 3b
        E 16 b0 0b 33
        E 16 b0 0b 2a
        E 48 b0 0b 08
        E 16 b0 0b 3b
        E 16 b0 0b 33
        E 16 b0 0b 2a
        E 48 b0 0b 08
        E 16 b0 0b 3b
        E 16 b0 0b 33
        E 16 b0 0b 2a
        E 48 b0 0b 08
        E 16 b0 0b 3b
        E 16 b0 0b 33
        E 16 b0 0b 2a
        E 48 b0 0b 08
        E 16 b0 0b 3b
        E 16 b0 0b 33
        E 16 b0 0b 2a
        E 48 b0 0b 08
        E 16 b0 0b 3b
        E 16 b0 0b 33
        E 16 b0 0b 2a
        E 48 b0 0b 08
        E 16 b0 0b 3b
        E 16 b0 0b 33
        E 16 b0 0b 2a
        E 48 b0 0b 08
        E 16 b0 0b 3b
        E 16 b0 0b 33
        E 16 b0 0b 2a
        E 48 b0 0b 08
        E 16 b0 0b 3b
        E 16 b0 0b 33
        E 16 b0 0b 2a
        E 48 b0 0b 08
        E 16 b0 0b 3b
        E 16 b0 0b 33
        E 16 b0 0b 2a
        E 48 b0 0b 08
        E 16 b0 0b 3b
        E 16 b0 0b 33
        E 16 b0 0b 2a
        E 48 b0 0b 08
        E 16 b0 0b 3b
        E 16 b0 0b 33
        E 16 b0 0b 2a
        E 48 b0 0b 08
        E 16 b0 0b 3b
        E 0 80 39 00
        E 0 90 6b 3b
        E 16 b0 0b 33
        E 16 b0 0b 2a
        E 48 b0 0b 08
        E 16 b0 0b 3b
        E 16 b0 0b 33
        E 16 b0 0b 2a
        E 48 b0 0b 08
        E 16 b0 0b 3b
        E 16 b0 0b 33
        E 16 b0 0b 2a
        E 48 b0 0b 08
        E 16 b0 0b 3b
        E 16 b0 0b 33
        E 16 b0 0b 2a
        E 48 b0 0b 08
        E 16 b0 0b 3b
        E 16 b0 0b 33
        E 16 b0 0b 2a
        E 48 b0 0b 08
        E 16 b0 0b 3b
        E 16 b0 0b 33
        E 16 b0 0b 2a
        E 48 b0 0b 08
        E 16 b0 0b 3b
        E 16 b0 0b 33
        E 16 b0 0b 2a
        E 48 b0 0b 08
        E 16 b0 0b 3b
        E 16 b0 0b 33
        E 16 b0 0b 2a
        E 48 b0 0b 08
        E 16 b0 0b 3b
        E 16 b0 0b 33
        E 16 b0 0b 2a
        E 112 b0 0b 22
        E 64 b0 0b 19
        E 0 80 6b 00
        E 0 90 2d 19
        E 64 b0 0b 11
        E 16 b0 0b 19
        E 0 80 2d 00
        E 0 90 7d 19
        E 16 b0 0b 11
        E 16 b0 0b 08
        E 176 80 7d 00
        E 0 90 2d 08
        E 80 b0 0b 4c
        E 16 b0 0b 3b
        E 16 b0 0b 33
        E 16 b0 0b 2a
        E 16 b0 0b 22
        E 16 b0 0b 19
        E 16 b0 0b 08
        E 16 b0 0b 33
        E 16 b0 0b 22
        E 16 b0 0b 19
        E 48 b0 0b 44
        E 0 80 2d 00
        E 0 90 27 44
        E 16 b0 0b 3b
        E 16 b0 0b 33
        E 160 b0 0c 20
        E 0 b0 0b 3b
        E 0 80 27 00
        E 0 90 60 3b
        E 16 b0 0b 33
        E 16 b0 0b 2a
        E 32 b0 0b 3b
        E 16 b0 0b 33
        E 16 b0 0b 2a
        E 32 b0 0b 3b
        E 16 b0 0b 33
        E 16 b0 0b 2a
        E 32 b0 0b 44
        E 16 b0 0b 33
        E 16 b0 0b 2a
        E 16 b0 0b 22
        E 16 b0 0b 19
        E 16 b0 0b 11
        E 16 b0 0b 08
        E 16 b0 0b 2a
        E 16 b0 0b 19
        E 16 b0 0b 11
        E 48 b0 0c 40
        E 0 b0 0b 4c
        E 16 b0 0b 3b
        E 16 b0 0b 33
        E 16 b0 0b 2a
        E 16 b0 0b 22
        E 16 b0 0b 19
        E 16 b0 0b 08
        E 16 b0 0b 33
        E 16 b0 0b 22
        E 16 b0 0b 19
        E 48 b0 0b 44
        E 16 b0 0b 3b
        E 16 b0 0b 33
        E 160 b0 0c 20
        E 0 b0 0b 3b
        E 16 b0 0b 33
        E 16 b0 0b 2a
        E 32 b0 0b 3b
        E 16 b0 0b 33
        E 16 b0 0b 2a
        E 32 b0 0b 3b
        E 16 b0 0b 33
        E 16 b0 0b 2a
        E 32 b0 0b 44
        E 16 b0 0b 33
        E 16 b0 0b 2a
        E 16 b0 0b 22
        E 16 b0 0b 19
        E 16 b0 0b 11
        E 16 b0 0b 08
        E 16 b0 0b 2a
        E 16 b0 0b 19
        E 16 b0 0b 11
        E 48 b0 0c 40
        E 0 b0 0b 4c
        E 16 b0 0b 3b
        E 16 b0 0b 33
        E 16 b0 0b 2a
        E 16 b0 0b 22
        E 16 b0 0b 19
        E 16 b0 0b 08
        E 16 b0 0b 33
        E 16 b0 0b 22
        E 16 b0 0b 19
        E 48 b0 0b 4c
        E 0 80 60 00
        E 0 90 2e 4c
        E 16 b0 0b 3b
        E 16 b0 0b 33
        E 16 b0 0b 2a
        E 16 b0 0b 22
        E 16 b0 0b 19
        E 16 b0 0b 08
        E 16 b0 0b 33
        E 16 b0 0b 22
        E 16 b0 0b 19
        E 48 b0 0b 4c
        E 0 80 2e 00
        E 0 90 6c 4c
        E 16 b0 0b 3b
        E 16 b0 0b 33
        E 16 b0 0b 2a
        E 16 b0 0b 22
        E 16 b0 0b 19
        E 16 b0 0b 08
        E 16 b0 0b 33
        E 16 b0 0b 22
        E 16 b0 0b 19
        E 16 b0 0b 2a
        E 16 b0 0b 22
        E 16 b0 0b 33
        E 16 b0 0b 2a
        E 16 b0 0b 44
        E 16 b0 0b 33
        E 16 b0 0b 2a
        E 16 b0 0b 22
        E 16 b0 0b 19
        E 16 b0 0b 11
        E 16 b0 0b 08
        E 16 b0 0b 2a
        E 16 b0 0b 19
        E 16 b0 0b 11
        E 16 b0 0b 44
        E 16 b0 0b 33
        E 16 b0 0b 2a
        E 16 b0 0b 22
        E 16 b0 0b 19
        E 16 b0 0b 11
        E 16 b0 0b 08
        E 16 b0 0b 2a
        E 16 b0 0b 19
        E 16 b0 0b 11
        E 48 b0 0b 44
        E 16 b0 0b 33
        E 16 b0 0b 2a
        E 16 b0 0b 22
        E 16 b0 0b 19
        E 16 b0 0b 11
        E 16 b0 0b 08
        E 16 b0 0b 2a
        E 16 b0 0b 19
        E 16 b0 0b 11
        E 48 b0 0c 10
        E 0 b0 0b 3b
        E 0 80 6c 00
        E 0 90 27 3b
        E 16 b0 0b 33
        E 16 b0 0b 2a
        E 160 b0 0b 3b
        E 16 80 27 00
        E 0 90 37 3b
        E 96 b0 0b 33
        E 16 b0 0b 2a
        E 256 b0 0c 40
        E 0 b0 0b 3b
        E 0 80 37 00
        E 0 90 48 3b
        E 16 b0 0b 33
        E 16 b0 0b 2a
        E 160 b0 0b 44
        E 16 b0 0b 33
        E 16 b0 0b 2a
        E 16 b0 0b 22
        E 16 b0 0b 19
        E 16 b0 0b 11
        E 16 b0 0b 08
        E 16 b0 0b 2a
        E 16 b0 0b 19
        E 16 b0 0b 11
        E 48 80 48 00
        E 192 b0 0b 44
        E 0 90 48 44
        E 16 b0 0b 33
        E 16 b0 0b 2a
        E 16 b0 0b 22
        E 16 b0 0b 19
        E 16 b0 0b 11
        E 16 b0 0b 08
        E 16 b0 0b 2a
        E 16 b0 0b 19
        E 16 b0 0b 11
        E 48 b0 0b 3b
        E 16 b0 0b 33
        E 16 b0 0b 2a
        E 160 b0 0b 44
        E 16 b0 0b 33
        E 16 b0 0b 2a
        E 16 b0 0b 22
        E 16 b0 0b 19
        E 16 b0 0b 11
        E 16 b0 0b 08
        E 16 b0 0b 2a
        E 16 b0 0b 19
        E 16 b0 0b 11
        E 48 b0 0b 44
        E 16 b0 0b 33
        E 16 b0 0b 2a
        E 16 b0 0b 22
        E 16 b0 0b 19
        E 16 b0 0b 11
        E 16 b0 0b 08
        E 16 b0 0b 2a
        E 16 b0 0b 19
        E 16 b0 0b 11
        E 48 b0 0b 3b
        E 0 80 48 00
        E 0 90 2e 3b
        E 16 b0 0b 33
        E 16 b0 0b 2a
        E 16 b0 0b 3b
        E 16 b0 0b 33
        E 16 b0 0b 2a
        E 16 b0 0b 3b
        E 16 b0 0b 33
        E 16 b0 0b 2a
        E 16 b0 0b 3b
        E 16 b0 0b 33
        E 16 b0 0b 2a
        E 16 b0 0b 44
        E 0 80 2e 00
        E 0 90 6c 44
        E 16 b0 0b 33
        E 16 b0 0b 2a
        E 16 b0 0b 22
        E 16 b0 0b 19
        E 16 b0 0b 11
        E 16 b0 0b 08
        E 16 b0 0b 2a
        E 16 b0 0b 19
        E 16 b0 0b 11
        E 48 b0 0b 44
        E 0 80 6c 00
        E 0 90 2d 44
        E 16 b0 0b 33
        E 16 b0 0b 2a
        E 16 b0 0b 22
        E 16 b0 0b 19
        E 16 b0 0b 11
        E 16 b0 0b 08
        E 16 b0 0b 2a
        E 16 b0 0b 19
        E 16 b0 0b 11
        E 48 b0 0b 44
        E 0 80 2d 00
        E 0 90 6c 44
        E 16 b0 0b 33
        E 16 b0 0b 2a
        E 16 b0 0b 22
        E 16 b0 0b 19
        E 16 b0 0b 11
        E 16 b0 0b 08
        E 16 b0 0b 2a
        E 16 b0 0b 19
        E 16 b0 0b 11
        E 48 b0 0b 44
        E 16 b0 0b 33
        E 16 b0 0b 2a
        E 16 b0 0b 22
        E 16 b0 0b 19
        E 16 b0 0b 11
        E 16 b0 0b 08
        E 16 b0 0b 2a
        E 16 b0 0b 19
        E 16 b0 0b 11
        E 48 b0 0b 44
        E 16 b0 0b 33
        E 16 b0 0b 2a
        E 16 b0 0b 22
        E 16 b0 0b 19
        E 16 b0 0b 11
        E 16 b0 0b 08
        E 16 b0 0b 2a
        E 16 b0 0b 19
        E 16 b0 0b 11
        E 48 b0 0b 33
        E 16 b0 0b 2a
        E 16 b0 0b 22
        E 16 b0 0b 19
        E 16 b0 0b 11
        E 16 b0 0c 20
        E 16 b0 0c 40
        E 0 b0 0b 33
        E 16 b0 0b 2a
        E 16 b0 0b 22
        E 16 b0 0b 19
        E 16 b0 0b 11
        E 16 b0 0c 20
        E 16 b0 0c 40
        E 0 b0 0b 33
        E 16 b0 0b 2a
        E 16 b0 0b 22
        E 16 b0 0b 19
        E 16 b0 0b 11
        E 16 b0 0c 20
        E 16 b0 0c 40
        E 0 b0 0b 33
        E 16 b0 0b 2a
        E 16 b0 0b 22
        E 16 b0 0b 19
        E 16 b0 0b 11
        E 16 b0 0c 20
        E 16 b0 0c 40
        E 0 b0 0b 33
        E 16 b0 0b 2a
        E 16 b0 0b 22
        E 16 b0 0b 19
        E 16 b0 0b 11
        E 16 b0 0c 20
        E 16 b0 0c 40
        E 0 b0 0b 33
        E 16 b0 0b 2a
        E 16 b0 0b 22
        E 16 b0 0b 19
        E 16 b0 0b 11
        E 16 b0 0c 20
        E 16 b0 0c 40
        E 0 b0 0b 33
        E 16 b0 0b 2a
        E 16 b0 0b 22
        E 16 b0 0b 19
        E 16 b0 0b 11
        E 16 b0 0c 20
        E 16 b0 0c 40
        E 0 b0 0b 19
        E 16 b0 0b 11
        E 16 b0 0b 08
        E 48 b0 0c 20
        E 16 b0 0c 40
        E 0 b0 0b 33
        E 16 b0 0b 2a
        E 16 b0 0b 22
        E 16 b0 0b 19
        E 16 b0 0b 11
        E 16 b0 0c 20
        E 16 b0 0c 40
        E 0 b0 0b 33
        E 16 b0 0b 2a
        E 16 b0 0b 22
        E 16 b0 0b 19
        E 16 b0 0b 11
        E 16 b0 0c 20
        E 16 b0 0c 40
        E 0 b0 0b 33
        E 16 b0 0b 2a
        E 16 b0 0b 22
        E 16 b0 0b 19
        E 16 b0 0b 11
        E 16 b0 0c 20
        E 16 b0 0c 40
        E 0 b0 0b 33
        E 16 b0 0b 2a
        E 16 b0 0b 22
        E 16 b0 0b 19
        E 16 b0 0b 11
        E 16 b0 0c 20
        E 16 b0 0c 40
        E 0 b0 0b 33
        E 16 b0 0b 2a
        E 16 b0 0b 22
        E 16 b0 0b 19
        E 16 b0 0b 11
        E 16 b0 0c 20
        E 16 b0 0c 40
        E 0 b0 0b 33
        E 16 b0 0b 2a
        E 16 b0 0b 22
        E 16 b0 0b 19
        E 16 b0 0b 11
        E 16 b0 0c 20
        E 16 b0 0c 40
        E 0 b0 0b 33
        E 16 b0 0b 2a
        E 16 b0 0b 22
        E 16 b0 0b 19
        E 16 b0 0b 11
        E 16 b0 0c 20
        E 16 b0 0c 40
        E 0 b0 0b 33
        E 16 b0 0b 2a
        E 16 b0 0b 22
        E 16 b0 0b 19
        E 16 b0 0b 11
        E 16 b0 0c 20
        E 16 b0 0c 40
        E 0 b0 0b 33
        E 16 b0 0b 2a
        E 16 b0 0b 22
        E 16 b0 0b 19
        E 16 b0 0b 11
        E 16 b0 0c 20
        E 16 b0 0c 40
        E 0 b0 0b 33
        E 16 b0 0b 2a
        E 16 b0 0b 22
        E 16 b0 0b 19
        E 16 b0 0b 11
        E 16 b0 0c 20
        E 16 b0 0c 40
        E 0 b0 0b 33
        E 16 b0 0b 2a
        E 16 b0 0b 22
        E 16 b0 0b 19
        E 16 b0 0b 11
        E 16 b0 0c 20
        E 16 b0 0c 40
        E 0 b0 0b 33
        E 16 b0 0b 2a
        E 16 b0 0b 22
        E 16 b0 0b 19
        E 16 b0 0b 11
        E 16 b0 0c 20
        E 16 b0 0c 40
        E 0 b0 0b 33
        E 16 b0 0b 2a
        E 16 b0 0b 22
        E 16 b0 0b 19
        E 16 b0 0b 11
        E 16 b0 0c 20
        E 16 b0 0c 40
        E 0 b0 0b 33
        E 16 b0 0b 2a
        E 16 b0 0b 22
        E 16 b0 0b 19
        E 16 b0 0b 11
        E 16 b0 0c 20
        E 16 b0 0c 40
        E 0 b0 0b 33
        E 16 b0 0b 2a
        E 16 b0 0b 22
        E 16 b0 0b 19
        E 16 b0 0b 11
        E 16 b0 0c 20
        E 16 b0 0c 40
        E 0 b0 0b 33
        E 16 b0 0b 2a
        E 16 b0 0b 22
        E 16 b0 0b 19
        E 16 b0 0b 11
        E 16 b0 0c 20
        E 16 b0 0c 40
        E 0 b0 0b 33
        E 16 b0 0b 2a
        E 16 b0 0b 22
        E 16 b0 0b 19
        E 16 b0 0b 11
        E 16 b0 0c 20
        E 16 b0 0c 40
        E 0 b0 0b 33
        E 16 b0 0b 2a
        E 16 b0 0b 22
        E 16 b0 0b 19
        E 16 b0 0b 11
        E 16 b0 0c 20
        E 16 b0 0c 40
        E 0 b0 0b 33
        E 16 b0 0b 2a
        E 16 b0 0b 22
        E 16 b0 0b 19
        E 16 b0 0b 11
        E 16 b0 0c 20
        E 16 b0 0c 40
        E 0 b0 0b 33
        E 16 b0 0b 2a
        E 16 b0 0b 22
        E 16 b0 0b 19
        E 16 b0 0b 11
        E 16 b0 0c 20
        E 16 b0 0c 40
        E 0 b0 0b 33
        E 16 b0 0b 2a
        E 16 b0 0b 22
        E 16 b0 0b 19
        E 16 b0 0b 11
        E 16 b0 0c 20
        E 16 b0 0c 40
        E 0 b0 0b 33
        E 16 b0 0b 2a
        E 16 b0 0b 22
        E 16 b0 0b 19
        E 16 b0 0b 11
        E 16 b0 0c 20
        E 16 b0 0c 40
        E 0 b0 0b 33
        E 16 b0 0b 2a
        E 16 b0 0b 22
        E 16 b0 0b 19
        E 16 b0 0b 11
        E 16 b0 0c 20
        E 16 b0 0c 40
        E 0 b0 0b 33
        E 16 b0 0b 2a
        E 16 b0 0b 22
        E 16 b0 0b 19
        E 16 b0 0b 11
        E 16 b0 0c 20
        E 16 b0 0c 40
        E 0 b0 0b 33
        E 16 b0 0b 2a
        E 16 b0 0b 22
        E 16 b0 0b 19
        E 16 b0 0b 11
        E 16 b0 0c 20
        E 16 b0 0c 40
        E 0 b0 0b 33
        E 16 b0 0b 2a
        E 16 b0 0b 22
        E 16 b0 0b 19
        E 16 b0 0b 11
        E 16 b0 0c 20
        E 16 b0 0c 40
        E 0 b0 0b 33
        E 16 b0 0b 2a
        E 16 b0 0b 22
        E 16 b0 0b 19
        E 16 b0 0b 11
        E 16 b0 0c 20
        E 16 b0 0c 40
        E 0 b0 0b 33
        E 16 b0 0b 2a
        E 16 b0 0b 22
        E 16 b0 0b 19
        E 16 b0 0b 11
        E 16 b0 0c 20
        E 16 b0 0c 40
        E 0 b0 0b 33
        E 16 b0 0b 2a
        E 16 b0 0b 22
        E 16 b0 0b 19
        E 16 b0 0b 11
        E 16 b0 0c 20
        E 16 b0 0c 40
        E 0 b0 0b 33
        E 16 b0 0b 2a
        E 16 b0 0b 22
        E 16 b0 0b 19
        E 16 b0 0b 11
        E 16 b0 0c 20
        E 16 b0 0c 40
        E 0 b0 0b 33
        E 16 b0 0b 2a
        E 16 b0 0b 22
        E 16 b0 0b 19
        E 16 b0 0b 11
        E 16 b0 0c 20
        E 16 b0 0c 40
        E 0 b0 0b 19
        E 16 b0 0b 11
        E 16 b0 0b 08
        E 48 b0 0c 20
        E 16 b0 0c 40
        E 0 b0 0b 33
        E 16 b0 0b 2a
        E 16 b0 0b 22
        E 16 b0 0b 19
        E 16 b0 0b 11
        E 16 b0 0c 20
        E 16 b0 0c 40
        E 0 b0 0b 33
        E 16 b0 0b 2a
        E 16 b0 0b 22
        E 16 b0 0b 19
        E 16 b0 0b 11
        E 16 b0 0c 20
        E 16 b0 0c 40
        E 0 b0 0b 33
        E 16 b0 0b 2a
        E 16 b0 0b 22
        E 16 b0 0b 19
        E 16 b0 0b 11
        E 16 b0 0c 20
        E 16 b0 0c 40
        E 0 b0 0b 33
        E 16 b0 0b 2a
        E 16 b0 0b 22
        E 16 b0 0b 19
        E 16 b0 0b 11
        E 16 b0 0c 20
        E 16 b0 0c 40
        E 0 b0 0b 33
        E 16 b0 0b 2a
        E 16 b0 0b 22
        E 16 b0 0b 19
        E 16 b0 0b 11
        E 16 b0 0c 20
        E 16 b0 0c 40
        E 0 b0 0b 33
        E 16 b0 0b 2a
        E 16 b0 0b 22
        E 16 b0 0b 19
        E 16 b0 0b 11
        E 16 b0 0c 20
        E 16 b0 0c 40
        E 0 b0 0b 33
        E 16 b0 0b 2a
        E 16 b0 0b 22
        E 16 b0 0b 19
        E 16 b0 0b 11
        E 16 b0 0c 20
        E 16 b0 0c 40
        E 0 b0 0b 33
        E 16 b0 0b 2a
        E 16 b0 0b 22
        E 16 b0 0b 19
        E 16 b0 0b 11
        E 16 b0 0c 20
        E 16 b0 0c 40
        E 0 b0 0b 33
        E 16 b0 0b 2a
        E 16 b0 0b 22
        E 16 b0 0b 19
        E 16 b0 0b 11
        E 16 b0 0c 20
        E 16 b0 0c 40
        E 0 b0 0b 33
        E 16 b0 0b 2a
        E 16 b0 0b 22
        E 16 b0 0b 19
        E 16 b0 0b 11
        E 16 b0 0c 20
        E 16 b0 0c 40
        E 0 b0 0b 33
        E 16 b0 0b 2a
        E 16 b0 0b 22
        E 16 b0 0b 19
        E 16 b0 0b 11
        E 16 b0 0c 20
        E 16 b0 0c 40
        E 0 b0 0b 33
        E 16 b0 0b 2a
        E 16 b0 0b 22
        E 16 b0 0b 19
        E 16 b0 0b 11
        E 16 b0 0c 20
        E 16 b0 0c 40
        E 0 b0 0b 33
        E 16 b0 0b 2a
        E 16 b0 0b 22
        E 16 b0 0b 19
        E 16 b0 0b 11
        E 16 b0 0c 20
        E 16 b0 0c 40
        E 0 b0 0b 33
        E 16 b0 0b 2a
        E 16 b0 0b 22
        E 16 b0 0b 19
        E 16 b0 0b 11
        E 16 b0 0c 20
        E 16 b0 0c 40
        E 0 b0 0b 33
        E 16 b0 0b 2a
        E 16 b0 0b 22
        E 16 b0 0b 19
        E 16 b0 0b 11
        E 16 b0 0c 20
        E 16 b0 0c 40
        E 0 b0 0b 33
        E 16 b0 0b 2a
        E 16 b0 0b 22
        E 16 b0 0b 19
        E 16 b0 0b 11
        E 16 b0 0c 20
        E 16 b0 0c 40
        E 0 b0 0b 33
        E 16 b0 0b 2a
        E 16 b0 0b 22
        E 16 b0 0b 19
        E 16 b0 0b 11
        E 16 b0 0c 20
        E 16 b0 0c 40
        E 0 b0 0b 33
        E 16 b0 0b 2a
        E 16 b0 0b 22
        E 16 b0 0b 19
        E 16 b0 0b 11
        E 16 b0 0c 20
        E 16 b0 0c 40
        E 0 b0 0b 33
        E 16 b0 0b 2a
        E 16 b0 0b 22
        E 16 b0 0b 19
        E 16 b0 0b 11
        E 16 b0 0c 20
        E 16 b0 0c 40
        E 0 b0 0b 33
        E 16 b0 0b 2a
        E 16 b0 0b 22
        E 16 b0 0b 19
        E 16 b0 0b 11
        E 16 b0 0c 20
        E 16 b0 0c 40
        E 0 b0 0b 33
        E 16 b0 0b 2a
        E 16 b0 0b 22
        E 16 b0 0b 19
        E 16 b0 0b 11
        E 16 b0 0c 20
        E 16 b0 0c 40
        E 0 b0 0b 33
        E 16 b0 0b 2a
        E 16 b0 0b 22
        E 16 b0 0b 19
        E 16 b0 0b 11
        E 16 b0 0c 20
        E 16 b0 0c 40
        E 0 b0 0b 33
        E 16 b0 0b 2a
        E 16 b0 0b 22
        E 16 b0 0b 19
        E 16 b0 0b 11
        E 16 b0 0c 20
        E 16 b0 0c 40
        E 0 b0 0b 19
        E 16 b0 0b 11
        E 16 b0 0b 08
        E 48 b0 0c 20
        E 16 80 6c 00
        E 192 b0 0c 40
        E 0 b0 0b 3b
        E 0 90 35 3b
        E 16 b0 0b 33
        E 16 b0 0b 2a
        E 16 b0 0b 22
        E 288 b0 0b 08
        E 48 b0 0b 3b
        E 16 b0 0b 33
        E 16 b0 0b 2a
        E 16 b0 0b 22
        E 288 b0 0b 08
        E 48 b0 0b 3b
        E 16 b0 0b 33
        E 16 b0 0b 2a
        E 16 b0 0b 22
        E 208 b0 0b 08
        E 32 b0 0b 3b
        E 0 80 35 00
        E 0 90 28 3b
        E 16 b0 0b 33
        E 16 b0 0b 2a
        E 16 b0 0b 22
        E 48 b0 0b 44
        E 0 80 28 00
        E 0 90 35 44
        E 16 b0 0b 33
        E 16 b0 0b 2a
        E 16 b0 0b 22
        E 16 b0 0b 19
        E 16 b0 0b 11
        E 16 b0 0b 08
        E 16 b0 0b 2a
        E 16 b0 0b 19
        E 16 b0 0b 11
        E 48 b0 0b 44
        E 0 80 35 00
        E 0 90 26 44
        E 16 b0 0b 33
        E 16 b0 0b 2a
        E 16 b0 0b 22
        E 16 b0 0b 19
        E 16 b0 0b 11
        E 16 b0 0b 08
        E 16 b0 0b 2a
        E 16 b0 0b 19
        E 16 b0 0b 11
        E 48 b0 0b 44
        E 16 b0 0b 33
        E 16 b0 0b 2a
        E 16 b0 0b 22
        E 16 b0 0b 19
        E 16 b0 0b 11
        E 16 b0 0b 08
        E 16 b0 0b 2a
        E 16 b0 0b 19
        E 16 b0 0b 11
        E 48 b0 0b 44
        E 16 b0 0b 33
        E 16 b0 0b 2a
        E 16 b0 0b 22
        E 16 b0 0b 19
        E 16 b0 0b 11
        E 16 b0 0b 08
        E 16 b0 0b 2a
        E 16 b0 0b 19
        E 16 b0 0b 11
        E 48 b0 0b 44
        E 16 b0 0b 33
        E 16 b0 0b 2a
        E 16 b0 0b 22
        E 16 b0 0b 19
        E 16 b0 0b 11
        E 16 b0 0b 08
        E 16 b0 0b 2a
        E 16 b0 0b 19
        E 16 b0 0b 11
        E 48 b0 0b 44
        E 16 b0 0b 33
        E 16 b0 0b 2a
        E 16 b0 0b 22
        E 16 b0 0b 19
        E 16 b0 0b 11
        E 16 b0 0b 08
        E 16 b0 0b 2a
        E 16 b0 0b 19
        E 16 b0 0b 11
        E 48 b0 0b 44
        E 16 b0 0b 33
        E 16 b0 0b 2a
        E 16 b0 0b 22
        E 16 b0 0b 19
        E 16 b0 0b 11
        E 16 b0 0b 08
        E 16 b0 0b 2a
        E 16 b0 0b 19
        E 16 b0 0b 11
        E 48 b0 0b 44
        E 16 b0 0b 33
        E 16 b0 0b 2a
        E 16 b0 0b 22
        E 16 b0 0b 19
        E 16 b0 0b 11
        E 16 b0 0b 08
        E 16 b0 0b 2a
        E 16 b0 0b 19
        E 16 b0 0b 11
        E 48 b0 0b 3b
        E 0 80 26 00
        E 0 90 25 3b
        E 16 b0 0b 33
        E 16 b0 0b 2a
        E 64 b0 0b 3b
        E 0 80 25 00
        E 0 90 2a 3b
        E 16 b0 0b 33
        E 16 b0 0b 2a
        E 16 b0 0b 3b
        E 16 b0 0b 33
        E 16 b0 0b 2a
        E 16 b0 0b 3b
        E 16 b0 0b 33
        E 16 b0 0b 2a
        E 16 b0 0b 3b
        E 16 b0 0b 33
        E 16 b0 0b 2a
        E 16 b0 0b 3b
        E 0 80 2a 00
        E 0 90 35 3b
        E 16 b0 0b 33
        E 16 b0 0b 2a
        E 16 b0 0b 3b
        E 16 b0 0b 33
        E 16 b0 0b 2a
        E 16 b0 0b 44
        E 16 b0 0b 33
        E 16 b0 0b 2a
        E 16 b0 0b 22
        E 16 b0 0b 19
        E 16 b0 0b 11
        E 16 b0 0b 08
        E 16 b0 0b 2a
        E 16 b0 0b 19
        E 16 b0 0b 11
        E 48 b0 0b 44
        E 0 80 35 00
        E 0 90 22 44
        E 16 b0 0b 33
        E 16 b0 0b 2a
        E 16 b0 0b 22
        E 16 b0 0b 19
        E 16 b0 0b 11
        E 16 b0 0b 08
        E 16 b0 0b 2a
        E 16 b0 0b 19
        E 16 b0 0b 11
        E 48 b0 0b 2a
        E 0 80 22 00
        E 0 90 2a 2a
        E 16 b0 0b 22
        E 16 b0 0b 19
        E 16 b0 0b 11
        E 16 b0 0b 08
        E 32 b0 0b 2a
        E 16 b0 0b 22
        E 16 b0 0b 19
        E 16 b0 0b 11
        E 16 b0 0b 08
        E 32 b0 0b 2a
        E 16 b0 0b 22
        E 16 b0 0b 19
        E 16 b0 0b 11
        E 16 b0 0b 08
        E 32 b0 0b 2a
        E 0 80 2a 00
        E 0 90 35 2a
        E 16 b0 0b 22
        E 16 b0 0b 19
        E 16 b0 0b 11
        E 16 b0 0b 08
        E 32 b0 0b 2a
        E 16 b0 0b 22
        E 16 b0 0b 19
        E 16 b0 0b 11
        E 16 b0 0b 08
        E 32 b0 0b 2a
        E 0 80 35 00
        E 0 90 27 2a
        E 16 b0 0b 22
        E 16 b0 0b 19
        E 16 b0 0b 11
        E 16 b0 0b 08
        E 32 b0 0b 2a
        E 0 80 27 00
        E 0 90 35 2a
        E 16 b0 0b 22
        E 16 b0 0b 19
        E 16 b0 0b 11
        E 16 b0 0b 08
        E 32 b0 0b 2a
        E 16 b0 0b 22
        E 16 b0 0b 19
        E 16 b0 0b 11
        E 16 b0 0b 08
        E 32 b0 0b 2a
        E 16 b0 0b 22
        E 16 b0 0b 19
        E 16 b0 0b 11
        E 16 b0 0b 08
        E 32 b0 0b 2a
        E 16 b0 0b 22
        E 16 b0 0b 19
        E 16 b0 0b 11
        E 16 b0 0b 08
        E 32 b0 0b 2a
        E 16 b0 0b 22
        E 16 b0 0b 19
        E 16 b0 0b 11
        E 16 b0 0b 08
        E 32 b0 0b 2a
        E 16 b0 0b 22
        E 16 b0 0b 19
        E 16 b0 0b 11
        E 16 b0 0b 08
        E 32 b0 0b 2a
        E 16 b0 0b 22
        E 16 b0 0b 19
        E 16 b0 0b 11
        E 16 b0 0b 08
        E 32 b0 0b 2a
        E 16 b0 0b 22
        E 16 b0 0b 19
        E 16 b0 0b 11
        E 16 b0 0b 08
        E 32 b0 0b 2a
        E 16 b0 0b 22
        E 16 b0 0b 19
        E 16 b0 0b 11
        E 16 b0 0b 08
        E 32 b0 0b 2a
        E 16 b0 0b 22
        E 16 b0 0b 19
        E 16 b0 0b 11
        E 16 b0 0b 08
        E 32 b0 0b 2a
        E 16 b0 0b 22
        E 16 b0 0b 19
        E 16 b0 0b 11
        E 16 b0 0b 08
        E 32 b0 0b 2a
        E 0 80 35 00
        E 0 90 57 2a
        E 16 b0 0b 22
        E 16 b0 0b 19
        E 16 b0 0b 11
        E 16 b0 0b 08
        E 32 b0 0b 2a
        E 16 b0 0b 22
        E 16 b0 0b 19
        E 16 b0 0b 11
        E 16 b0 0b 08
        E 32 b0 0b 2a
        E 16 b0 0b 22
        E 16 b0 0b 19
        E 16 b0 0b 11
        E 16 b0 0b 08
        E 32 b0 0b 2a
        E 16 b0 0b 22
        E 16 b0 0b 19
        E 16 b0 0b 11
        E 16 b0 0b 08
        E 32 b0 0b 2a
        E 16 b0 0b 22
        E 16 b0 0b 19
        E 16 b0 0b 11
        E 16 b0 0b 08
        E 32 b0 0b 2a
        E 16 b0 0b 22
        E 16 b0 0b 19
        E 16 b0 0b 11
        E 16 b0 0b 08
        E 32 b0 0b 2a
        E 16 b0 0b 22
        E 16 b0 0b 19
        E 16 b0 0b 11
        E 16 b0 0b 08
        E 32 b0 0b 2a
        E 16 b0 0b 22
        E 16 b0 0b 19
        E 16 b0 0b 11
        E 16 b0 0b 08
        E 32 b0 0b 19
        E 16 b0 0b 11
        E 16 b0 0b 08
        E 64 80 57 00
        E 192 b0 0b 19
        E 0 90 29 19
        E 96 b0 0b 22
        E 0 80 29 00
        E 0 90 21 22
        E 96 b0 0b 2a
        E 64 80 21 00
        E 0 90 1d 2a
        E 32 b0 0b 33
        E 64 80 1d 00
        E 0 90 1b 33
        E 32 b0 0b 3b
        E 0 80 1b 00
        E 0 90 2d 3b
        E 16 b0 0b 33
        E 16 b0 0b 2a
        E 160 b0 0b 44
        E 0 80 2d 00
        E 0 90 37 44
        E 16 b0 0b 33
        E 16 b0 0b 2a
        E 16 b0 0b 22
        E 16 b0 0b 19
        E 16 b0 0b 11
        E 16 b0 0b 08
        E 16 b0 0b 2a
        E 16 b0 0b 19
        E 16 b0 0b 11
        E 48 b0 0b 33
        E 0 80 37 00
        E 0 90 3d 33
        E 16 b0 0b 2a
        E 16 b0 0b 22
        E 16 b0 0b 19
        E 16 b0 0b 11
        E 16 b0 0b 08
        E 16 b0 0b 33
        E 16 b0 0b 2a
        E 16 b0 0b 22
        E 16 b0 0b 19
        E 16 b0 0b 11
        E 16 b0 0b 08
        E 16 b0 0b 33
        E 16 b0 0b 2a
        E 16 b0 0b 22
        E 16 b0 0b 19
        E 16 b0 0b 11
        E 16 b0 0b 08
        E 16 b0 0b 33
        E 16 b0 0b 2a
        E 16 b0 0b 22
        E 16 b0 0b 19
        E 16 b0 0b 11
        E 16 b0 0b 08
        E 16 b0 0b 33
        E 16 b0 0b 2a
        E 16 b0 0b 22
        E 16 b0 0b 19
        E 16 b0 0b 11
        E 16 b0 0b 08
        E 16 b0 0b 33
        E 16 b0 0b 2a
        E 16 b0 0b 22
        E 16 b0 0b 19
        E 16 b0 0b 11
        E 16 b0 0b 08
        E 16 b0 0b 33
        E 16 b0 0b 2a
        E 16 b0 0b 22
        E 16 b0 0b 19
        E 16 b0 0b 11
        E 16 b0 0b 08
        E 16 b0 0b 33
        E 16 b0 0b 2a
        E 16 b0 0b 22
        E 16 b0 0b 19
        E 16 b0 0b 11
        E 16 b0 0b 08
        E 16 b0 0b 33
        E 16 b0 0b 2a
        E 16 b0 0b 22
        E 16 b0 0b 19
        E 16 b0 0b 11
        E 16 b0 0b 08
        E 16 b0 0b 33
        E 16 b0 0b 2a
        E 16 b0 0b 22
        E 16 b0 0b 19
        E 16 b0 0b 11
        E 16 b0 0b 08
        E 16 b0 0b 33
        E 16 b0 0b 2a
        E 16 b0 0b 22
        E 16 b0 0b 19
        E 16 b0 0b 11
        E 16 b0 0b 08
        E 16 b0 0b 33
        E 16 b0 0b 2a
        E 16 b0 0b 22
        E 16 b0 0b 19
        E 16 b0 0b 11
        E 16 b0 0b 08
        E 16 b0 0b 3b
        E 16 b0 0b 2a
        E 16 b0 0b 22
        E 16 b0 0b 19
        E 16 b0 0b 11
        E 16 b0 0b 08
        E 32 b0 0b 22
        E 16 b0 0b 11
        E 16 b0 0b 08
        E 48 b0 0b 3b
        E 16 b0 0b 2a
        E 16 b0 0b 22
        E 16 b0 0b 19
        E 16 b0 0b 3b
        E 16 b0 0b 2a
        E 16 b0 0b 22
        E 16 b0 0b 19
        E 16 b0 0b 3b
        E 16 b0 0b 2a
        E 16 b0 0b 22
        E 16 b0 0b 19
        E 16 b0 0b 3b
        E 16 b0 0b 2a
        E 16 b0 0b 22
        E 16 b0 0b 19
        E 16 b0 0b 11
        E 16 b0 0b 08
        E 32 b0 0b 22
        E 16 b0 0b 11
        E 16 b0 0b 08
        E 48 b0 0b 3b
        E 16 b0 0b 2a
        E 16 b0 0b 22
        E 16 b0 0b 19
        E 16 b0 0b 11
        E 16 b0 0b 08
        E 32 b0 0b 22
        E 16 b0 0b 11
        E 16 b0 0b 08
        E 48 b0 0b 3b
        E 16 b0 0b 2a
        E 16 b0 0b 22
        E 16 b0 0b 19
        E 16 b0 0b 11
        E 16 b0 0b 08
        E 32 b0 0b 22
        E 16 b0 0b 11
        E 16 b0 0b 08
        E 48 b0 0b 3b
        E 16 b0 0b 2a
        E 16 b0 0b 22
        E 16 b0 0b 19
        E 16 b0 0b 11
        E 16 b0 0b 08
        E 32 b0 0b 22
        E 16 b0 0b 11
        E 16 b0 0b 08
        E 48 80 3d 00
        E 192 b0 0b 3b
        E 0 90 3d 3b
        E 16 b0 0b 2a
        E 16 b0 0b 22
        E 16 b0 0b 19
        E 16 b0 0b 11
        E 16 b0 0b 08
        E 32 b0 0b 22
        E 16 b0 0b 11
        E 16 b0 0b 08
        E 48 b0 0b 33
        E 16 b0 0b 2a
        E 16 b0 0b 22
        E 192 b0 0b 19
        E 16 b0 0b 11
        E 16 b0 0b 08
        E 32 b0 0b 3b
        E 16 b0 0b 2a
        E 16 b0 0b 22
        E 16 b0 0b 19
        E 16 b0 0b 11
        E 16 b0 0b 08
        E 16 b0 0b 3b
        E 16 b0 0b 2a
        E 16 b0 0b 22
        E 16 b0 0b 19
        E 16 b0 0b 11
        E 16 b0 0b 08
        E 32 b0 0b 22
        E 16 b0 0b 11
        E 16 b0 0b 08
        E 48 b0 0b 44
        E 16 b0 0b 33
        E 16 b0 0b 2a
        E 16 b0 0b 22
        E 16 b0 0b 19
        E 16 b0 0b 11
        E 16 b0 0b 44
        E 16 b0 0b 33
        E 16 b0 0b 2a
        E 16 b0 0b 22
        E 16 b0 0b 19
        E 16 b0 0b 11
        E 16 b0 0b 44
        E 16 b0 0b 33
        E 16 b0 0b 2a
        E 16 b0 0b 22
        E 16 b0 0b 19
        E 16 b0 0b 11
        E 16 b0 0b 44
        E 16 b0 0b 33
        E 16 b0 0b 2a
        E 16 b0 0b 22
        E 16 b0 0b 19
        E 16 b0 0b 11
        E 16 b0 0b 44
        E 16 b0 0b 33
        E 16 b0 0b 2a
        E 16 b0 0b 22
        E 16 b0 0b 19
        E 16 b0 0b 11
        E 16 b0 0b 44
        E 16 b0 0b 33
        E 16 b0 0b 2a
        E 16 b0 0b 22
        E 16 b0 0b 19
        E 16 b0 0b 11
        E 16 b0 0b 44
        E 16 b0 0b 33
        E 16 b0 0b 2a
        E 16 b0 0b 22
        E 16 b0 0b 19
        E 16 b0 0b 11
        E 16 b0 0b 44
        E 16 b0 0b 33
        E 16 b0 0b 2a
        E 16 b0 0b 22
        E 16 b0 0b 19
        E 16 b0 0b 11
        E 16 b0 0b 44
        E 16 b0 0b 33
        E 16 b0 0b 2a
        E 16 b0 0b 22
        E 16 b0 0b 19
        E 16 b0 0b 11
        E 16 b0 0b 44
        E 16 b0 0b 33
        E 16 b0 0b 2a
        E 16 b0 0b 22
        E 16 b0 0b 19
        E 16 b0 0b 11
        E 16 b0 0b 44
        E 16 b0 0b 33
        E 16 b0 0b 2a
        E 16 b0 0b 22
        E 16 b0 0b 19
        E 16 b0 0b 11
        E 16 b0 0b 44
        E 16 b0 0b 33
        E 16 b0 0b 2a
        E 16 b0 0b 22
        E 16 b0 0b 19
        E 16 b0 0b 11
        E 16 b0 0b 44
        E 16 b0 0b 33
        E 16 b0 0b 2a
        E 16 b0 0b 22
        E 16 b0 0b 19
        E 16 b0 0b 11
        E 16 b0 0b 44
        E 16 b0 0b 33
        E 16 b0 0b 2a
        E 16 b0 0b 22
        E 16 b0 0b 19
        E 16 b0 0b 11
        E 16 b0 0b 44
        E 16 b0 0b 33
        E 16 b0 0b 2a
        E 16 b0 0b 22
        E 16 b0 0b 19
        E 16 b0 0b 11
        E 16 b0 0b 44
        E 16 b0 0b 33
        E 16 b0 0b 2a
        E 16 b0 0b 22
        E 16 b0 0b 19
        E 16 b0 0b 11
        E 16 b0 0b 44
        E 16 b0 0b 33
        E 16 b0 0b 2a
        E 16 b0 0b 22
        E 16 b0 0b 19
        E 16 b0 0b 11
        E 16 b0 0b 44
        E 16 b0 0b 33
        E 16 b0 0b 2a
        E 16 b0 0b 22
        E 16 b0 0b 19
        E 16 b0 0b 11
        E 16 b0 0b 44
        E 16 b0 0b 33
        E 16 b0 0b 2a
        E 16 b0 0b 22
        E 16 b0 0b 19
        E 16 b0 0b 11
        E 16 b0 0b 08
        E 16 b0 0b 2a
        E 16 b0 0b 19
        E 16 b0 0b 11
        E 48 80 3d 00
        E 1152 b0 0c 10
        E 0 b0 0b 4c
        E 0 90 3d 4c
        E 16 b0 0c 20
        E 0 b0 0b 3b
        E 16 b0 0b 33
        E 16 b0 0b 2a
        E 16 b0 0b 22
        E 16 b0 0b 19
        E 16 b0 0b 08
        E 16 b0 0b 33
        E 16 b0 0b 22
        E 16 b0 0b 19
        E 48 b0 0c 10
        E 0 b0 0b 4c
        E 0 80 3d 00
        E 0 90 2d 4c
        E 16 b0 0c 20
        E 0 b0 0b 3b
        E 16 b0 0b 33
        E 16 b0 0b 2a
        E 16 b0 0b 22
        E 16 b0 0b 19
        E 16 b0 0b 08
        E 16 b0 0b 33
        E 16 b0 0b 22
        E 16 b0 0b 19
        E 48 b0 0c 10
        E 0 b0 0b 4c
        E 0 80 2d 00
        E 0 90 6c 4c
        E 16 b0 0c 20
        E 0 b0 0b 3b
        E 16 b0 0b 33
        E 16 b0 0b 2a
        E 16 b0 0b 22
        E 16 b0 0b 19
        E 16 b0 0b 08
        E 16 b0 0b 33
        E 16 b0 0b 22
        E 16 b0 0b 19
        E 48 b0 0c 10
        E 0 b0 0b 4c
        E 0 80 6c 00
        E 0 90 2e 4c
        E 16 b0 0c 20
        E 0 b0 0b 3b
        E 16 b0 0b 33
        E 16 b0 0b 2a
        E 16 b0 0b 22
        E 16 b0 0b 19
        E 16 b0 0b 08
        E 16 b0 0b 33
        E 16 b0 0b 22
        E 16 b0 0b 19
        E 48 b0 0c 10
        E 0 b0 0b 4c
        E 0 80 2e 00
        E 0 90 57 4c
        E 16 b0 0c 20
        E 0 b0 0b 3b
        E 16 b0 0b 33
        E 16 b0 0b 2a
        E 16 b0 0b 22
        E 16 b0 0b 19
        E 16 b0 0b 08
        E 16 b0 0b 33
        E 16 b0 0b 22
        E 16 b0 0b 19
        E 48 b0 0c 10
        E 0 b0 0b 4c
        E 0 80 57 00
        E 0 90 2e 4c
        E 16 b0 0c 20
        E 0 b0 0b 3b
        E 16 b0 0b 33
        E 16 b0 0b 2a
        E 16 b0 0b 22
        E 16 b0 0b 19
        E 16 b0 0b 08
        E 16 b0 0b 33
        E 16 b0 0b 22
        E 16 b0 0b 19
        E 48 80 2e 00
        E 96 b0 0c 40
        E 0 b0 0b 3b
        E 0 90 4c 3b
        E 16 b0 0b 33
        E 16 b0 0b 2a
        E 16 b0 0b 22
        E 16 b0 0b 3b
        E 16 b0 0b 33
        E 16 b0 0b 2a
        E 16 b0 0b 22
        E 16 b0 0b 3b
        E 16 b0 0b 33
        E 16 b0 0b 2a
        E 16 b0 0b 22
        E 16 b0 0b 08
        E 256 80 4c 00
        E 12512 b0 0b 3b
        E 0 90 32 3b
        E 16 b0 0b 33
        E 16 b0 0b 2a
        E 48 b0 0b 08
        E 16 b0 0b 3b
        E 16 b0 0b 33
        E 16 b0 0b 2a
        E 48 b0 0b 08
        E 16 b0 0b 3b
        E 16 b0 0b 33
        E 16 b0 0b 2a
        E 48 b0 0b 08
        E 16 b0 0b 3b
        E 16 b0 0b 33
        E 16 b0 0b 2a
        E 48 b0 0b 08
        E 16 b0 0b 3b
        E 16 b0 0b 33
        E 16 b0 0b 2a
        E 48 b0 0b 08
        E 16 b0 0b 3b
        E 16 b0 0b 33
        E 16 b0 0b 2a
        E 48 b0 0b 08
        E 16 b0 0b 3b
        E 16 b0 0b 33
        E 16 b0 0b 2a
        E 48 b0 0b 08
        E 16 b0 0b 3b
        E 16 b0 0b 33
        E 16 b0 0b 2a
        E 48 b0 0b 08
        E 16 b0 0b 3b
        E 16 b0 0b 33
        E 16 b0 0b 2a
        E 48 b0 0b 08
        E 16 b0 0b 3b
        E 16 b0 0b 33
        E 16 b0 0b 2a
        E 48 b0 0b 08
        E 16 b0 0b 3b
        E 16 b0 0b 33
        E 16 b0 0b 2a
        E 48 b0 0b 08
        E 16 b0 0b 3b
        E 16 b0 0b 33
        E 16 b0 0b 2a
        E 48 b0 0b 08
        E 16 b0 0b 3b
        E 16 b0 0b 33
        E 16 b0 0b 2a
        E 48 b0 0b 08
        E 16 b0 0b 3b
        E 16 b0 0b 33
        E 16 b0 0b 2a
        E 48 b0 0b 08
        E 16 b0 0b 3b
        E 16 b0 0b 33
        E 16 b0 0b 2a
        E 48 b0 0b 08
        E 16 b0 0b 3b
        E 16 b0 0b 33
        E 16 b0 0b 2a
        E 48 b0 0b 08
        E 16 b0 0b 3b
        E 0 80 32 00
        E 0 90 6b 3b
        E 16 b0 0b 33
        E 16 b0 0b 2a
        E 48 b0 0b 08
        E 16 b0 0b 3b
        E 16 b0 0b 33
        E 16 b0 0b 2a
        E 48 b0 0b 08
        E 16 b0 0b 3b
        E 16 b0 0b 33
        E 16 b0 0b 2a
        E 48 b0 0b 08
        E 16 b0 0b 3b
        E 16 b0 0b 33
        E 16 b0 0b 2a
        E 48 b0 0b 08
        E 16 b0 0b 3b
        E 16 b0 0b 33
        E 16 b0 0b 2a
        E 48 b0 0b 08
        E 16 b0 0b 3b
        E 16 b0 0b 33
        E 16 b0 0b 2a
        E 48 b0 0b 08
        E 16 b0 0b 3b
        E 16 b0 0b 33
        E 16 b0 0b 2a
        E 48 b0 0b 08
        E 16 b0 0b 3b
        E 16 b0 0b 33
        E 16 b0 0b 2a
        E 48 b0 0b 08
        E 16 b0 0b 3b
        E 16 b0 0b 33
        E 16 b0 0b 2a
        E 112 b0 0b 22
        E 64 b0 0b 19
        E 0 80 6b 00
        E 0 90 2d 19
        E 64 b0 0b 11
        E 16 b0 0b 19
        E 0 80 2d 00
        E 0 90 7d 19
        E 16 b0 0b 11
        E 16 b0 0b 08
        E 176 80 7d 00
        E 0 90 2d 08
        E 80 b0 0b 4c
        E 16 b0 0b 3b
        E 16 b0 0b 33
        E 16 b0 0b 2a
        E 16 b0 0b 22
        E 16 b0 0b 19
        E 16 b0 0b 08
        E 16 b0 0b 33
        E 16 b0 0b 22
        E 16 b0 0b 19
        E 48 b0 0b 44
        E 0 80 2d 00
        E 0 90 27 44
        E 16 b0 0b 3b
        E 16 b0 0b 33
        E 160 b0 0c 20
        E 0 b0 0b 3b
        E 0 80 27 00
        E 0 90 60 3b
        E 16 b0 0b 33
        E 16 b0 0b 2a
        E 32 b0 0b 3b
        E 16 b0 0b 33
        E 16 b0 0b 2a
        E 32 b0 0b 3b
        E 16 b0 0b 33
        E 16 b0 0b 2a
        E 32 b0 0b 44
        E 16 b0 0b 33
        E 16 b0 0b 2a
        E 16 b0 0b 22
        E 16 b0 0b 19
        E 16 b0 0b 11
        E 16 b0 0b 08
        E 16 b0 0b 2a
        E 16 b0 0b 19
        E 16 b0 0b 11
        E 48 b0 0c 40
        E 0 b0 0b 4c
        E 16 b0 0b 3b
        E 16 b0 0b 33
        E 16 b0 0b 2a
        E 16 b0 0b 22
        E 16 b0 0b 19
        E 16 b0 0b 08
        E 16 b0 0b 33
        E 16 b0 0b 22
        E 16 b0 0b 19
        E 48 b0 0b 44
        E 16 b0 0b 3b
        E 16 b0 0b 33
        E 160 b0 0c 20
        E 0 b0 0b 3b
        E 16 b0 0b 33
        E 16 b0 0b 2a
        E 32 b0 0b 3b
        E 16 b0 0b 33
        E 16 b0 0b 2a
        E 32 b0 0b 3b
        E 16 b0 0b 33
        E 16 b0 0b 2a
        E 32 b0 0b 44
        E 16 b0 0b 33
        E 16 b0 0b 2a
        E 16 b0 0b 22
        E 16 b0 0b 19
        E 16 b0 0b 11
        E 16 b0 0b 08
        E 16 b0 0b 2a
        E 16 b0 0b 19
        E 16 b0 0b 11
        E 48 b0 0c 40
        E 0 b0 0b 4c
        E 16 b0 0b 3b
        E 16 b0 0b 33
        E 16 b0 0b 2a
        E 16 b0 0b 22
        E 16 b0 0b 19
        E 16 b0 0b 08
        E 16 b0 0b 33
        E 16 b0 0b 22
        E 16 b0 0b 19
        E 48 b0 0b 4c
        E 0 80 60 00
        E 0 90 2e 4c
        E 16 b0 0b 3b
        E 16 b0 0b 33
        E 16 b0 0b 2a
        E 16 b0 0b 22
        E 16 b0 0b 19
        E 16 b0 0b 08
        E 16 b0 0b 33
        E 16 b0 0b 22
        E 16 b0 0b 19
        E 48 b0 0b 4c
        E 0 80 2e 00
        E 0 90 6c 4c
        E 16 b0 0b 3b
        E 16 b0 0b 33
        E 16 b0 0b 2a
        E 16 b0 0b 22
        E 16 b0 0b 19
        E 16 b0 0b 08
        E 16 b0 0b 33
        E 16 b0 0b 22
        E 16 b0 0b 19
        E 16 b0 0b 2a
        E 16 b0 0b 22
        E 16 b0 0b 33
        E 16 b0 0b 2a
        E 16 b0 0b 44
        E 16 b0 0b 33
        E 16 b0 0b 2a
        E 16 b0 0b 22
        E 16 b0 0b 19
        E 16 b0 0b 11
        E 16 b0 0b 08
        E 16 b0 0b 2a
        E 16 b0 0b 19
        E 16 b0 0b 11
        E 16 b0 0b 44
        E 16 b0 0b 33
        E 16 b0 0b 2a
        E 16 b0 0b 22
        E 16 b0 0b 19
        E 16 b0 0b 11
        E 16 b0 0b 08
        E 16 b0 0b 2a
        E 16 b0 0b 19
        E 16 b0 0b 11
        E 48 b0 0b 44
        E 16 b0 0b 33
        E 16 b0 0b 2a
        E 16 b0 0b 22
        E 16 b0 0b 19
        E 16 b0 0b 11
        E 16 b0 0b 08
        E 16 b0 0b 2a
        E 16 b0 0b 19
        E 16 b0 0b 11
        E 48 b0 0c 10
        E 0 b0 0b 3b
        E 0 80 6c 00
        E 0 90 27 3b
        E 16 b0 0b 33
        E 16 b0 0b 2a
        E 160 b0 0b 3b
        E 16 80 27 00
        E 0 90 37 3b
        E 96 b0 0b 33
        E 16 b0 0b 2a
        E 256 b0 0c 40
        E 0 b0 0b 3b
        E 0 80 37 00
        E 0 90 48 3b
        E 16 b0 0b 33
        E 16 b0 0b 2a
        E 160 b0 0b 44
        E 16 b0 0b 33
        E 16 b0 0b 2a
        E 16 b0 0b 22
        E 16 b0 0b 19
        E 16 b0 0b 11
        E 16 b0 0b 08
        E 16 b0 0b 2a
        E 16 b0 0b 19
        E 16 b0 0b 11
        E 48 80 48 00
        E 192 b0 0b 44
        E 0 90 48 44
        E 16 b0 0b 33
        E 16 b0 0b 2a
        E 16 b0 0b 22
        E 16 b0 0b 19
        E 16 b0 0b 11
        E 16 b0 0b 08
        E 16 b0 0b 2a
        E 16 b0 0b 19
        E 16 b0 0b 11
        E 48 b0 0b 3b
        E 16 b0 0b 33
        E 16 b0 0b 2a
        E 160 b0 0b 44
        E 16 b0 0b 33
        E 16 b0 0b 2a
        E 16 b0 0b 22
        E 16 b0 0b 19
        E 16 b0 0b 11
        E 16 b0 0b 08
        E 16 b0 0b 2a
        E 16 b0 0b 19
        E 16 b0 0b 11
        E 48 b0 0b 44
        E 16 b0 0b 33
        E 16 b0 0b 2a
        E 16 b0 0b 22
        E 16 b0 0b 19
        E 16 b0 0b 11
        E 16 b0 0b 08
        E 16 b0 0b 2a
        E 16 b0 0b 19
        E 16 b0 0b 11
        E 48 b0 0b 3b
        E 0 80 48 00
        E 0 90 2e 3b
        E 16 b0 0b 33
        E 16 b0 0b 2a
        E 16 b0 0b 3b
        E 16 b0 0b 33
        E 16 b0 0b 2a
        E 16 b0 0b 3b
        E 16 b0 0b 33
        E 16 b0 0b 2a
        E 16 b0 0b 3b
        E 16 b0 0b 33
        E 16 b0 0b 2a
        E 16 b0 0b 44
        E 0 80 2e 00
        E 0 90 6c 44
        E 16 b0 0b 33
        E 16 b0 0b 2a
        E 16 b0 0b 22
        E 16 b0 0b 19
        E 16 b0 0b 11
        E 16 b0 0b 08
        E 16 b0 0b 2a
        E 16 b0 0b 19
        E 16 b0 0b 11
        E 48 b0 0b 44
        E 0 80 6c 00
        E 0 90 2d 44
        E 16 b0 0b 33
        E 16 b0 0b 2a
        E 16 b0 0b 22
        E 16 b0 0b 19
        E 16 b0 0b 11
        E 16 b0 0b 08
        E 16 b0 0b 2a
        E 16 b0 0b 19
        E 16 b0 0b 11
        E 48 b0 0b 44
        E 0 80 2d 00
        E 0 90 6c 44
        E 16 b0 0b 33
        E 16 b0 0b 2a
        E 16 b0 0b 22
        E 16 b0 0b 19
        E 16 b0 0b 11
        E 16 b0 0b 08
        E 16 b0 0b 2a
        E 16 b0 0b 19
        E 16 b0 0b 11
        E 48 b0 0b 44
        E 16 b0 0b 33
        E 16 b0 0b 2a
        E 16 b0 0b 22
        E 16 b0 0b 19
        E 16 b0 0b 11
        E 16 b0 0b 08
        E 16 b0 0b 2a
        E 16 b0 0b 19
        E 16 b0 0b 11
        E 48 b0 0b 44
        E 16 b0 0b 33
        E 16 b0 0b 2a
        E 16 b0 0b 22
        E 16 b0 0b 19
        E 16 b0 0b 11
        E 16 b0 0b 08
        E 16 b0 0b 2a
        E 16 b0 0b 19
        E 16 b0 0b 11
        E 48 b0 0b 33
        E 16 b0 0b 2a
        E 16 b0 0b 22
        E 16 b0 0b 19
        E 16 b0 0b 11
        E 16 b0 0c 20
        E 16 b0 0c 40
        E 0 b0 0b 33
        E 16 b0 0b 2a
        E 16 b0 0b 22
        E 16 b0 0b 19
        E 16 b0 0b 11
        E 16 b0 0c 20
        E 16 b0 0c 40
        E 0 b0 0b 33
        E 16 b0 0b 2a
        E 16 b0 0b 22
        E 16 b0 0b 19
        E 16 b0 0b 11
        E 16 b0 0c 20
        E 16 b0 0c 40
        E 0 b0 0b 33
        E 16 b0 0b 2a
        E 16 b0 0b 22
        E 16 b0 0b 19
        E 16 b0 0b 11
        E 16 b0 0c 20
        E 16 b0 0c 40
        E 0 b0 0b 33
        E 16 b0 0b 2a
        E 16 b0 0b 22
        E 16 b0 0b 19
        E 16 b0 0b 11
        E 16 b0 0c 20
        E 16 b0 0c 40
        E 0 b0 0b 33
        E 16 b0 0b 2a
        E 16 b0 0b 22
        E 16 b0 0b 19
        E 16 b0 0b 11
        E 16 b0 0c 20
        E 16 b0 0c 40
        E 0 b0 0b 33
        E 16 b0 0b 2a
        E 16 b0 0b 22
        E 16 b0 0b 19
        E 16 b0 0b 11
        E 16 b0 0c 20
        E 16 b0 0c 40
        E 0 b0 0b 19
        E 16 b0 0b 11
        E 16 b0 0b 08
        E 48 b0 0c 20
        E 16 b0 0c 40
        E 0 b0 0b 33
        E 16 b0 0b 2a
        E 16 b0 0b 22
        E 16 b0 0b 19
        E 16 b0 0b 11
        E 16 b0 0c 20
        E 16 b0 0c 40
        E 0 b0 0b 33
        E 16 b0 0b 2a
        E 16 b0 0b 22
        E 16 b0 0b 19
        E 16 b0 0b 11
        E 16 b0 0c 20
        E 16 b0 0c 40
        E 0 b0 0b 33
        E 16 b0 0b 2a
        E 16 b0 0b 22
        E 16 b0 0b 19
        E 16 b0 0b 11
        E 16 b0 0c 20
        E 16 b0 0c 40
        E 0 b0 0b 33
        E 16 b0 0b 2a
        E 16 b0 0b 22
        E 16 b0 0b 19
        E 16 b0 0b 11
        E 16 b0 0c 20
        E 16 b0 0c 40
        E 0 b0 0b 33
        E 16 b0 0b 2a
        E 16 b0 0b 22
        E 16 b0 0b 19
        E 16 b0 0b 11
        E 16 b0 0c 20
        E 16 b0 0c 40
        E 0 b0 0b 33
        E 16 b0 0b 2a
        E 16 b0 0b 22
        E 16 b0 0b 19
        E 16 b0 0b 11
        E 16 b0 0c 20
        E 16 b0 0c 40
        E 0 b0 0b 33
        E 16 b0 0b 2a
        E 16 b0 0b 22
        E 16 b0 0b 19
        E 16 b0 0b 11
        E 16 b0 0c 20
        E 16 b0 0c 40
        E 0 b0 0b 33
        E 16 b0 0b 2a
        E 16 b0 0b 22
        E 16 b0 0b 19
        E 16 b0 0b 11
        E 16 b0 0c 20
        E 16 b0 0c 40
        E 0 b0 0b 33
        E 16 b0 0b 2a
        E 16 b0 0b 22
        E 16 b0 0b 19
        E 16 b0 0b 11
        E 16 b0 0c 20
        E 16 b0 0c 40
        E 0 b0 0b 33
        E 16 b0 0b 2a
        E 16 b0 0b 22
        E 16 b0 0b 19
        E 16 b0 0b 11
        E 16 b0 0c 20
        E 16 b0 0c 40
        E 0 b0 0b 33
        E 16 b0 0b 2a
        E 16 b0 0b 22
        E 16 b0 0b 19
        E 16 b0 0b 11
        E 16 b0 0c 20
        E 16 b0 0c 40
        E 0 b0 0b 33
        E 16 b0 0b 2a
        E 16 b0 0b 22
        E 16 b0 0b 19
        E 16 b0 0b 11
        E 16 b0 0c 20
        E 16 b0 0c 40
        E 0 b0 0b 33
        E 16 b0 0b 2a
        E 16 b0 0b 22
        E 16 b0 0b 19
        E 16 b0 0b 11
        E 16 b0 0c 20
        E 16 b0 0c 40
        E 0 b0 0b 33
        E 16 b0 0b 2a
        E 16 b0 0b 22
        E 16 b0 0b 19
        E 16 b0 0b 11
        E 16 b0 0c 20
        E 16 b0 0c 40
        E 0 b0 0b 33
        E 16 b0 0b 2a
        E 16 b0 0b 22
        E 16 b0 0b 19
        E 16 b0 0b 11
        E 16 b0 0c 20
        E 16 b0 0c 40
        E 0 b0 0b 33
        E 16 b0 0b 2a
        E 16 b0 0b 22
        E 16 b0 0b 19
        E 16 b0 0b 11
        E 16 b0 0c 20
        E 16 b0 0c 40
        E 0 b0 0b 33
        E 16 b0 0b 2a
        E 16 b0 0b 22
        E 16 b0 0b 19
        E 16 b0 0b 11
        E 16 b0 0c 20
        E 16 b0 0c 40
        E 0 b0 0b 33
        E 16 b0 0b 2a
        E 16 b0 0b 22
        E 16 b0 0b 19
        E 16 b0 0b 11
        E 16 b0 0c 20
        E 16 b0 0c 40
        E 0 b0 0b 33
        E 16 b0 0b 2a
        E 16 b0 0b 22
        E 16 b0 0b 19
        E 16 b0 0b 11
        E 16 b0 0c 20
        E 16 b0 0c 40
        E 0 b0 0b 33
        E 16 b0 0b 2a
        E 16 b0 0b 22
        E 16 b0 0b 19
        E 16 b0 0b 11
        E 16 b0 0c 20
        E 16 b0 0c 40
        E 0 b0 0b 33
        E 16 b0 0b 2a
        E 16 b0 0b 22
        E 16 b0 0b 19
        E 16 b0 0b 11
        E 16 b0 0c 20
        E 16 b0 0c 40
        E 0 b0 0b 33
        E 16 b0 0b 2a
        E 16 b0 0b 22
        E 16 b0 0b 19
        E 16 b0 0b 11
        E 16 b0 0c 20
        E 16 b0 0c 40
        E 0 b0 0b 33
        E 16 b0 0b 2a
        E 16 b0 0b 22
        E 16 b0 0b 19
        E 16 b0 0b 11
        E 16 b0 0c 20
        E 16 b0 0c 40
        E 0 b0 0b 33
        E 16 b0 0b 2a
        E 16 b0 0b 22
        E 16 b0 0b 19
        E 16 b0 0b 11
        E 16 b0 0c 20
        E 16 b0 0c 40
        E 0 b0 0b 33
        E 16 b0 0b 2a
        E 16 b0 0b 22
        E 16 b0 0b 19
        E 16 b0 0b 11
        E 16 b0 0c 20
        E 16 b0 0c 40
        E 0 b0 0b 33
        E 16 b0 0b 2a
        E 16 b0 0b 22
        E 16 b0 0b 19
        E 16 b0 0b 11
        E 16 b0 0c 20
        E 16 b0 0c 40
        E 0 b0 0b 33
        E 16 b0 0b 2a
        E 16 b0 0b 22
        E 16 b0 0b 19
        E 16 b0 0b 11
        E 16 b0 0c 20
        E 16 b0 0c 40
        E 0 b0 0b 33
        E 16 b0 0b 2a
        E 16 b0 0b 22
        E 16 b0 0b 19
        E 16 b0 0b 11
        E 16 b0 0c 20
        E 16 b0 0c 40
        E 0 b0 0b 33
        E 16 b0 0b 2a
        E 16 b0 0b 22
        E 16 b0 0b 19
        E 16 b0 0b 11
        E 16 b0 0c 20
        E 16 b0 0c 40
        E 0 b0 0b 33
        E 16 b0 0b 2a
        E 16 b0 0b 22
        E 16 b0 0b 19
        E 16 b0 0b 11
        E 16 b0 0c 20
        E 16 b0 0c 40
        E 0 b0 0b 33
        E 16 b0 0b 2a
        E 16 b0 0b 22
        E 16 b0 0b 19
        E 16 b0 0b 11
        E 16 b0 0c 20
        E 16 b0 0c 40
        E 0 b0 0b 19
        E 16 b0 0b 11
        E 16 b0 0b 08
        E 48 b0 0c 20
        E 16 b0 0c 40
        E 0 b0 0b 33
        E 16 b0 0b 2a
        E 16 b0 0b 22
        E 16 b0 0b 19
        E 16 b0 0b 11
        E 16 b0 0c 20
        E 16 b0 0c 40
        E 0 b0 0b 33
        E 16 b0 0b 2a
        E 16 b0 0b 22
        E 16 b0 0b 19
        E 16 b0 0b 11
        E 16 b0 0c 20
        E 16 b0 0c 40
        E 0 b0 0b 33
        E 16 b0 0b 2a
        E 16 b0 0b 22
        E 16 b0 0b 19
        E 16 b0 0b 11
        E 16 b0 0c 20
        E 16 b0 0c 40
        E 0 b0 0b 33
        E 16 b0 0b 2a
        E 16 b0 0b 22
        E 16 b0 0b 19
        E 16 b0 0b 11
        E 16 b0 0c 20
        E 16 b0 0c 40
        E 0 b0 0b 33
        E 16 b0 0b 2a
        E 16 b0 0b 22
        E 16 b0 0b 19
        E 16 b0 0b 11
        E 16 b0 0c 20
        E 16 b0 0c 40
        E 0 b0 0b 33
        E 16 b0 0b 2a
        E 16 b0 0b 22
        E 16 b0 0b 19
        E 16 b0 0b 11
        E 16 b0 0c 20
        E 16 b0 0c 40
        E 0 b0 0b 33
        E 16 b0 0b 2a
        E 16 b0 0b 22
        E 16 b0 0b 19
        E 16 b0 0b 11
        E 16 b0 0c 20
        E 16 b0 0c 40
        E 0 b0 0b 33
        E 16 b0 0b 2a
        E 16 b0 0b 22
        E 16 b0 0b 19
        E 16 b0 0b 11
        E 16 b0 0c 20
        E 16 b0 0c 40
        E 0 b0 0b 33
        E 16 b0 0b 2a
        E 16 b0 0b 22
        E 16 b0 0b 19
        E 16 b0 0b 11
        E 16 b0 0c 20
        E 16 b0 0c 40
        E 0 b0 0b 33
        E 16 b0 0b 2a
        E 16 b0 0b 22
        E 16 b0 0b 19
        E 16 b0 0b 11
        E 16 b0 0c 20
        E 16 b0 0c 40
        E 0 b0 0b 33
        E 16 b0 0b 2a
        E 16 b0 0b 22
        E 16 b0 0b 19
        E 16 b0 0b 11
        E 16 b0 0c 20
        E 16 b0 0c 40
        E 0 b0 0b 33
        E 16 b0 0b 2a
        E 16 b0 0b 22
        E 16 b0 0b 19
        E 16 b0 0b 11
        E 16 b0 0c 20
        E 16 b0 0c 40
        E 0 b0 0b 33
        E 16 b0 0b 2a
        E 16 b0 0b 22
        E 16 b0 0b 19
        E 16 b0 0b 11
        E 16 b0 0c 20
        E 16 b0 0c 40
        E 0 b0 0b 33
        E 16 b0 0b 2a
        E 16 b0 0b 22
        E 16 b0 0b 19
        E 16 b0 0b 11
        E 16 b0 0c 20
        E 16 b0 0c 40
        E 0 b0 0b 33
        E 16 b0 0b 2a
        E 16 b0 0b 22
        E 16 b0 0b 19
        E 16 b0 0b 11
        E 16 b0 0c 20
        E 16 b0 0c 40
        E 0 b0 0b 33
        E 16 b0 0b 2a
        E 16 b0 0b 22
        E 16 b0 0b 19
        E 16 b0 0b 11
        E 16 b0 0c 20
        E 16 b0 0c 40
        E 0 b0 0b 33
        E 16 b0 0b 2a
        E 16 b0 0b 22
        E 16 b0 0b 19
        E 16 b0 0b 11
        E 16 b0 0c 20
        E 16 b0 0c 40
        E 0 b0 0b 33
        E 16 b0 0b 2a
        E 16 b0 0b 22
        E 16 b0 0b 19
        E 16 b0 0b 11
        E 16 b0 0c 20
        E 16 b0 0c 40
        E 0 b0 0b 33
        E 16 b0 0b 2a
        E 16 b0 0b 22
        E 16 b0 0b 19
        E 16 b0 0b 11
        E 16 b0 0c 20
        E 16 b0 0c 40
        E 0 b0 0b 33
        E 16 b0 0b 2a
        E 16 b0 0b 22
        E 16 b0 0b 19
        E 16 b0 0b 11
        E 16 b0 0c 20
        E 16 b0 0c 40
        E 0 b0 0b 33
        E 16 b0 0b 2a
        E 16 b0 0b 22
        E 16 b0 0b 19
        E 16 b0 0b 11
        E 16 b0 0c 20
        E 16 b0 0c 40
        E 0 b0 0b 33
        E 16 b0 0b 2a
        E 16 b0 0b 22
        E 16 b0 0b 19
        E 16 b0 0b 11
        E 16 b0 0c 20
        E 16 b0 0c 40
        E 0 b0 0b 33
        E 16 b0 0b 2a
        E 16 b0 0b 22
        E 16 b0 0b 19
        E 16 b0 0b 11
        E 16 b0 0c 20
        E 16 b0 0c 40
        E 0 b0 0b 19
        E 16 b0 0b 11
        E 16 b0 0b 08
        E 48 b0 0c 20
        E 16 80 6c 00
        E 192 b0 0c 40
        E 0 b0 0b 3b
        E 0 90 35 3b
        E 16 b0 0b 33
        E 16 b0 0b 2a
        E 16 b0 0b 22
        E 288 b0 0b 08
        E 48 b0 0b 3b
        E 16 b0 0b 33
        E 16 b0 0b 2a
        E 16 b0 0b 22
        E 288 b0 0b 08
        E 48 b0 0b 3b
        E 16 b0 0b 33
        E 16 b0 0b 2a
        E 16 b0 0b 22
        E 208 b0 0b 08
        E 32 b0 0b 3b
        E 0 80 35 00
        E 0 90 28 3b
        E 16 b0 0b 33
        E 16 b0 0b 2a
        E 16 b0 0b 22
        E 48 b0 0b 44
        E 0 80 28 00
        E 0 90 35 44
        E 16 b0 0b 33
        E 16 b0 0b 2a
        E 16 b0 0b 22
        E 16 b0 0b 19
        E 16 b0 0b 11
        E 16 b0 0b 08
        E 16 b0 0b 2a
        E 16 b0 0b 19
        E 16 b0 0b 11
        E 48 b0 0b 44
        E 0 80 35 00
        E 0 90 26 44
        E 16 b0 0b 33
        E 16 b0 0b 2a
        E 16 b0 0b 22
        E 16 b0 0b 19
        E 16 b0 0b 11
        E 16 b0 0b 08
        E 16 b0 0b 2a
        E 16 b0 0b 19
        E 16 b0 0b 11
        E 48 b0 0b 44
        E 16 b0 0b 33
        E 16 b0 0b 2a
        E 16 b0 0b 22
        E 16 b0 0b 19
        E 16 b0 0b 11
        E 16 b0 0b 08
        E 16 b0 0b 2a
        E 16 b0 0b 19
        E 16 b0 0b 11
        E 48 b0 0b 44
        E 16 b0 0b 33
        E 16 b0 0b 2a
        E 16 b0 0b 22
        E 16 b0 0b 19
        E 16 b0 0b 11
        E 16 b0 0b 08
        E 16 b0 0b 2a
        E 16 b0 0b 19
        E 16 b0 0b 11
        E 48 b0 0b 44
        E 16 b0 0b 33
        E 16 b0 0b 2a
        E 16 b0 0b 22
        E 16 b0 0b 19
        E 16 b0 0b 11
        E 16 b0 0b 08
        E 16 b0 0b 2a
        E 16 b0 0b 19
        E 16 b0 0b 11
        E 48 b0 0b 44
        E 16 b0 0b 33
        E 16 b0 0b 2a
        E 16 b0 0b 22
        E 16 b0 0b 19
        E 16 b0 0b 11
        E 16 b0 0b 08
        E 16 b0 0b 2a
        E 16 b0 0b 19
        E 16 b0 0b 11
        E 48 b0 0b 44
        E 16 b0 0b 33
        E 16 b0 0b 2a
        E 16 b0 0b 22
        E 16 b0 0b 19
        E 16 b0 0b 11
        E 16 b0 0b 08
        E 16 b0 0b 2a
        E 16 b0 0b 19
        E 16 b0 0b 11
        E 48 b0 0b 44
        E 16 b0 0b 33
        E 16 b0 0b 2a
        E 16 b0 0b 22
        E 16 b0 0b 19
        E 16 b0 0b 11
        E 16 b0 0b 08
        E 16 b0 0b 2a
        E 16 b0 0b 19
        E 16 b0 0b 11
        E 48 b0 0b 3b
        E 0 80 26 00
        E 0 90 25 3b
        E 16 b0 0b 33
        E 16 b0 0b 2a
        E 64 b0 0b 3b
        E 0 80 25 00
        E 0 90 2a 3b
        E 16 b0 0b 33
        E 16 b0 0b 2a
        E 16 b0 0b 3b
        E 16 b0 0b 33
        E 16 b0 0b 2a
        E 16 b0 0b 3b
        E 16 b0 0b 33
        E 16 b0 0b 2a
        E 16 b0 0b 3b
        E 16 b0 0b 33
        E 16 b0 0b 2a
        E 16 b0 0b 3b
        E 0 80 2a 00
        E 0 90 35 3b
        E 16 b0 0b 33
        E 16 b0 0b 2a
        E 16 b0 0b 3b
        E 16 b0 0b 33
        E 16 b0 0b 2a
        E 16 b0 0b 44
        E 16 b0 0b 33
        E 16 b0 0b 2a
        E 16 b0 0b 22
        E 16 b0 0b 19
        E 16 b0 0b 11
        E 16 b0 0b 08
        E 16 b0 0b 2a
        E 16 b0 0b 19
        E 16 b0 0b 11
        E 48 b0 0b 44
        E 0 80 35 00
        E 0 90 22 44
        E 16 b0 0b 33
        E 16 b0 0b 2a
        E 16 b0 0b 22
        E 16 b0 0b 19
        E 16 b0 0b 11
        E 16 b0 0b 08
        E 16 b0 0b 2a
        E 16 b0 0b 19
        E 16 b0 0b 11
        E 48 b0 0b 2a
        E 0 80 22 00
        E 0 90 2a 2a
        E 16 b0 0b 22
        E 16 b0 0b 19
        E 16 b0 0b 11
        E 16 b0 0b 08
        E 32 b0 0b 2a
        E 16 b0 0b 22
        E 16 b0 0b 19
        E 16 b0 0b 11
        E 16 b0 0b 08
        E 32 b0 0b 2a
        E 16 b0 0b 22
        E 16 b0 0b 19
        E 16 b0 0b 11
        E 16 b0 0b 08
        E 32 b0 0b 2a
        E 0 80 2a 00
        E 0 90 35 2a
        E 16 b0 0b 22
        E 16 b0 0b 19
        E 16 b0 0b 11
        E 16 b0 0b 08
        E 32 b0 0b 2a
        E 16 b0 0b 22
        E 16 b0 0b 19
        E 16 b0 0b 11
        E 16 b0 0b 08
        E 32 b0 0b 2a
        E 0 80 35 00
        E 0 90 27 2a
        E 16 b0 0b 22
        E 16 b0 0b 19
        E 16 b0 0b 11
        E 16 b0 0b 08
        E 32 b0 0b 2a
        E 0 80 27 00
        E 0 90 35 2a
        E 16 b0 0b 22
        E 16 b0 0b 19
        E 16 b0 0b 11
        E 16 b0 0b 08
        E 32 b0 0b 2a
        E 16 b0 0b 22
        E 16 b0 0b 19
        E 16 b0 0b 11
        E 16 b0 0b 08
        E 32 b0 0b 2a
        E 16 b0 0b 22
        E 16 b0 0b 19
        E 16 b0 0b 11
        E 16 b0 0b 08
        E 32 b0 0b 2a
        E 16 b0 0b 22
        E 16 b0 0b 19
        E 16 b0 0b 11
        E 16 b0 0b 08
        E 32 b0 0b 2a
        E 16 b0 0b 22
        E 16 b0 0b 19
        E 16 b0 0b 11
        E 16 b0 0b 08
        E 32 b0 0b 2a
        E 16 b0 0b 22
        E 16 b0 0b 19
        E 16 b0 0b 11
        E 16 b0 0b 08
        E 32 b0 0b 2a
        E 16 b0 0b 22
        E 16 b0 0b 19
        E 16 b0 0b 11
        E 16 b0 0b 08
        E 32 b0 0b 2a
        E 16 b0 0b 22
        E 16 b0 0b 19
        E 16 b0 0b 11
        E 16 b0 0b 08
        E 32 b0 0b 2a
        E 16 b0 0b 22
        E 16 b0 0b 19
        E 16 b0 0b 11
        E 16 b0 0b 08
        E 32 b0 0b 2a
        E 16 b0 0b 22
        E 16 b0 0b 19
        E 16 b0 0b 11
        E 16 b0 0b 08
        E 32 b0 0b 2a
        E 16 b0 0b 22
        E 16 b0 0b 19
        E 16 b0 0b 11
        E 16 b0 0b 08
        E 32 b0 0b 2a
        E 0 80 35 00
        E 0 90 57 2a
        E 16 b0 0b 22
        E 16 b0 0b 19
        E 16 b0 0b 11
        E 16 b0 0b 08
        E 32 b0 0b 2a
        E 16 b0 0b 22
        E 16 b0 0b 19
        E 16 b0 0b 11
        E 16 b0 0b 08
        E 32 b0 0b 2a
        E 16 b0 0b 22
        E 16 b0 0b 19
        E 16 b0 0b 11
        E 16 b0 0b 08
        E 32 b0 0b 2a
        E 16 b0 0b 22
        E 16 b0 0b 19
        E 16 b0 0b 11
        E 16 b0 0b 08
        E 32 b0 0b 2a
        E 16 b0 0b 22
        E 16 b0 0b 19
        E 16 b0 0b 11
        E 16 b0 0b 08
        E 32 b0 0b 2a
        E 16 b0 0b 22
        E 16 b0 0b 19
        E 16 b0 0b 11
        E 16 b0 0b 08
        E 32 b0 0b 2a
        E 16 b0 0b 22
        E 16 b0 0b 19
        E 16 b0 0b 11
        E 16 b0 0b 08
        E 32 b0 0b 2a
        E 16 b0 0b 22
        E 16 b0 0b 19
        E 16 b0 0b 11
        E 16 b0 0b 08
        E 32 b0 0b 19
        E 16 b0 0b 11
        E 16 b0 0b 08
        E 64 80 57 00
        E 192 b0 0b 19
        E 0 90 29 19
        E 96 b0 0b 22
        E 0 80 29 00
        E 0 90 21 22
        E 96 b0 0b 2a
        E 64 80 21 00
        E 0 90 1d 2a
        E 32 b0 0b 33
        E 64 80 1d 00
        E 0 90 1b 33
        E 32 b0 0b 3b
        E 0 80 1b 00
        E 0 90 2d 3b
        E 16 b0 0b 33
        E 16 b0 0b 2a
        E 160 b0 0b 44
        E 0 80 2d 00
        E 0 90 37 44
        E 16 b0 0b 33
        E 16 b0 0b 2a
        E 16 b0 0b 22
        E 16 b0 0b 19
        E 16 b0 0b 11
        E 16 b0 0b 08
        E 16 b0 0b 2a
        E 16 b0 0b 19
        E 16 b0 0b 11
        E 48 b0 0b 33
        E 0 80 37 00
        E 0 90 3d 33
        E 16 b0 0b 2a
        E 16 b0 0b 22
        E 16 b0 0b 19
        E 16 b0 0b 11
        E 16 b0 0b 08
        E 16 b0 0b 33
        E 16 b0 0b 2a
        E 16 b0 0b 22
        E 16 b0 0b 19
        E 16 b0 0b 11
        E 16 b0 0b 08
        E 16 b0 0b 33
        E 16 b0 0b 2a
        E 16 b0 0b 22
        E 16 b0 0b 19
        E 16 b0 0b 11
        E 16 b0 0b 08
        E 16 b0 0b 33
        E 16 b0 0b 2a
        E 16 b0 0b 22
        E 16 b0 0b 19
        E 16 b0 0b 11
        E 16 b0 0b 08
        E 16 b0 0b 33
        E 16 b0 0b 2a
        E 16 b0 0b 22
        E 16 b0 0b 19
        E 16 b0 0b 11
        E 16 b0 0b 08
        E 16 b0 0b 33
        E 16 b0 0b 2a
        E 16 80 3d 00
        E 0 b0 7b 00
        E 0 ff 2f 00
      >
    >
  >
  <TRACK {C8A13246-8146-4AD1-BA90-BC7BE63B041B}
    NAME "NES - Pulse 2 [ch1]"
    PEAKCOL 10092441
    BEAT -1
    AUTOMODE 0
    PANLAWFLAGS 3
    VOLPAN 1 0 -1 -1 1
    MUTESOLO 0 0 0
    IPHASE 0
    PLAYOFFS 0 1
    ISBUS 0 0
    BUSCOMP 0 0 0 0 0
    SHOWINMIX 1 0.6667 0.5 1 0.5 0 0 0
    FIXEDLANES 9 0 0 0 0
    SEL 0
    REC 0 5088 1 0 0 0 0 0
    VU 2
    TRACKHEIGHT 0 0 0 0 0 0 0
    INQ 0 0 0 0.5 100 0 0 100
    NCHAN 2
    FX 1
    TRACKID {C8A13246-8146-4AD1-BA90-BC7BE63B041B}
    PERF 0
    MIDIOUT -1
    MAINSEND 1 0
    <FXCHAIN
      WNDRECT 24 52 700 560
      SHOW 0
      LASTSEL 0
      DOCKED 0
      BYPASS 0 0 0
      <JS "ReapNES Studio/ReapNES_Console.jsfx" ""
        2 15 1 10 80 10 100 2 1 15 1 5 60 10 80 1 1 0 50 0 0 15 1 0 100 0 0 0.500000 0.500000 0.400000 0.300000 0.800000 1 1 0 0 0 0 - - - - - - - - - - - - - - - - - - - - - - - - - -
      >
      FLOATPOS 0 0 0 0
      FXID {58479D9E-32B4-4EE0-A666-20E76F3B4EAD}
      WAK 0 0
    >
    <ITEM
      POSITION 0
      LENGTH 63.01710920000001
      LOOP 0
      ALLTAKES 0
      FADEIN 0 0 0 0 0 0 0
      FADEOUT 0 0 0 0 0 0 0
      MUTE 0 0
      SEL 0
      IGUID {699BB823-4079-4DE4-BE6D-99469C57B0F5}
      <SOURCE MIDI
        HASDATA 1 480 QN
        CCINTERP 32
        E 0 c1 51
        E 2880 b1 0c 20
        E 0 b1 0b 4c
        E 0 91 2f 4c
        E 16 b1 0c 10
        E 0 b1 0b 3b
        E 16 b1 0b 33
        E 16 b1 0b 2a
        E 16 b1 0b 22
        E 16 b1 0b 19
        E 16 b1 0b 08
        E 16 b1 0b 33
        E 16 b1 0b 22
        E 16 b1 0b 19
        E 48 b1 0c 20
        E 0 b1 0b 44
        E 0 81 2f 00
        E 0 91 27 44
        E 16 b1 0c 10
        E 0 b1 0b 3b
        E 16 b1 0b 33
        E 160 b1 0c 20
        E 0 b1 0b 4c
        E 0 81 27 00
        E 0 91 37 4c
        E 16 b1 0c 10
        E 0 b1 0b 3b
        E 16 b1 0b 33
        E 16 b1 0b 2a
        E 16 b1 0b 22
        E 16 b1 0b 19
        E 16 b1 0b 08
        E 16 b1 0b 33
        E 16 b1 0b 22
        E 16 b1 0b 19
        E 48 81 37 00
        E 192 b1 0c 20
        E 0 b1 0b 4c
        E 0 91 3d 4c
        E 16 b1 0c 10
        E 0 b1 0b 3b
        E 16 b1 0b 33
        E 16 b1 0b 2a
        E 16 b1 0b 22
        E 16 b1 0b 19
        E 16 b1 0b 08
        E 16 b1 0b 33
        E 16 b1 0b 22
        E 16 b1 0b 19
        E 48 b1 0c 20
        E 0 b1 0b 44
        E 16 b1 0c 10
        E 0 b1 0b 3b
        E 16 b1 0b 33
        E 160 b1 0c 20
        E 0 b1 0b 4c
        E 16 b1 0c 10
        E 0 b1 0b 3b
        E 16 b1 0b 33
        E 16 b1 0b 2a
        E 16 b1 0b 22
        E 16 b1 0b 19
        E 16 b1 0b 08
        E 16 b1 0b 33
        E 16 b1 0b 22
        E 16 b1 0b 19
        E 48 81 3d 00
        E 192 b1 0c 20
        E 0 b1 0b 4c
        E 0 91 3d 4c
        E 16 b1 0c 10
        E 0 b1 0b 3b
        E 16 b1 0b 33
        E 16 b1 0b 2a
        E 16 b1 0b 22
        E 16 b1 0b 19
        E 16 b1 0b 08
        E 16 b1 0b 33
        E 16 b1 0b 22
        E 16 b1 0b 19
        E 48 b1 0c 20
        E 0 b1 0b 4c
        E 0 81 3d 00
        E 0 91 2e 4c
        E 16 b1 0c 10
        E 0 b1 0b 3b
        E 16 b1 0b 33
        E 16 b1 0b 2a
        E 16 b1 0b 22
        E 16 b1 0b 19
        E 16 b1 0b 08
        E 16 b1 0b 33
        E 16 b1 0b 22
        E 16 b1 0b 19
        E 48 b1 0c 20
        E 0 b1 0b 4c
        E 0 81 2e 00
        E 0 91 6b 4c
        E 16 b1 0c 10
        E 0 b1 0b 3b
        E 16 b1 0b 33
        E 16 b1 0b 2a
        E 16 b1 0b 22
        E 16 b1 0b 19
        E 16 b1 0b 08
        E 16 b1 0b 33
        E 16 b1 0b 22
        E 16 b1 0b 19
        E 16 b1 0c 20
        E 0 b1 0b 33
        E 16 b1 0c 10
        E 0 b1 0b 2a
        E 16 b1 0c 20
        E 0 b1 0b 3b
        E 16 b1 0c 10
        E 0 b1 0b 33
        E 16 b1 0c 20
        E 0 b1 0b 4c
        E 16 b1 0c 10
        E 0 b1 0b 3b
        E 16 b1 0b 33
        E 16 b1 0b 2a
        E 16 b1 0b 22
        E 16 b1 0b 19
        E 16 b1 0b 08
        E 16 b1 0b 33
        E 16 b1 0b 22
        E 16 b1 0b 19
        E 16 b1 0c 20
        E 0 b1 0b 4c
        E 16 b1 0c 10
        E 0 b1 0b 3b
        E 16 b1 0b 33
        E 16 b1 0b 2a
        E 16 b1 0b 22
        E 16 b1 0b 19
        E 16 b1 0b 08
        E 16 b1 0b 33
        E 16 b1 0b 22
        E 16 b1 0b 19
        E 48 b1 0c 20
        E 0 b1 0b 44
        E 16 b1 0c 10
        E 0 b1 0b 3b
        E 16 b1 0b 33
        E 160 b1 0c 20
        E 0 b1 0b 4c
        E 16 b1 0c 10
        E 0 b1 0b 3b
        E 16 b1 0b 33
        E 16 b1 0b 2a
        E 16 b1 0b 22
        E 16 b1 0b 19
        E 16 b1 0b 08
        E 16 b1 0b 33
        E 16 b1 0b 22
        E 16 b1 0b 19
        E 48 81 6b 00
        E 192 b1 0c 20
        E 0 b1 0b 4c
        E 0 91 6b 4c
        E 16 b1 0c 10
        E 0 b1 0b 3b
        E 16 b1 0b 33
        E 16 b1 0b 2a
        E 16 b1 0b 22
        E 16 b1 0b 19
        E 16 b1 0b 08
        E 16 b1 0b 33
        E 16 b1 0b 22
        E 16 b1 0b 19
        E 48 b1 0c 20
        E 0 b1 0b 44
        E 16 b1 0c 10
        E 0 b1 0b 3b
        E 16 b1 0b 33
        E 160 b1 0c 20
        E 0 b1 0b 4c
        E 16 b1 0c 10
        E 0 b1 0b 3b
        E 16 b1 0b 33
        E 16 b1 0b 2a
        E 16 b1 0b 22
        E 16 b1 0b 19
        E 16 b1 0b 08
        E 16 b1 0b 33
        E 16 b1 0b 22
        E 16 b1 0b 19
        E 48 81 6b 00
        E 192 b1 0c 20
        E 0 b1 0b 4c
        E 0 91 6b 4c
        E 16 b1 0c 10
        E 0 b1 0b 3b
        E 16 b1 0b 33
        E 16 b1 0b 2a
        E 16 b1 0b 22
        E 16 b1 0b 19
        E 16 b1 0b 08
        E 16 b1 0b 33
        E 16 b1 0b 22
        E 16 b1 0b 19
        E 48 b1 0c 20
        E 0 b1 0b 44
        E 16 b1 0c 10
        E 0 b1 0b 3b
        E 16 b1 0b 33
        E 160 b1 0c 20
        E 0 b1 0b 4c
        E 16 b1 0c 10
        E 0 b1 0b 3b
        E 16 b1 0b 33
        E 16 b1 0b 2a
        E 16 b1 0b 22
        E 16 b1 0b 19
        E 16 b1 0b 08
        E 16 b1 0b 33
        E 16 b1 0b 22
        E 16 b1 0b 19
        E 48 b1 0c 20
        E 0 b1 0b 4c
        E 16 b1 0c 10
        E 0 b1 0b 3b
        E 16 b1 0b 33
        E 16 b1 0b 2a
        E 16 b1 0b 22
        E 16 b1 0b 19
        E 16 b1 0b 08
        E 16 b1 0b 33
        E 16 b1 0b 22
        E 16 b1 0b 19
        E 48 b1 0c 20
        E 0 b1 0b 44
        E 16 b1 0c 10
        E 0 b1 0b 3b
        E 16 b1 0b 33
        E 16 b1 0c 20
        E 0 b1 0b 44
        E 16 b1 0c 10
        E 0 b1 0b 3b
        E 16 b1 0b 33
        E 16 b1 0c 20
        E 0 b1 0b 44
        E 16 b1 0c 10
        E 0 b1 0b 3b
        E 16 b1 0b 33
        E 16 b1 0c 20
        E 0 b1 0b 44
        E 16 b1 0c 10
        E 0 b1 0b 3b
        E 16 b1 0b 33
        E 16 b1 0c 20
        E 0 b1 0b 4c
        E 16 b1 0c 10
        E 0 b1 0b 3b
        E 16 b1 0b 33
        E 16 b1 0b 2a
        E 16 b1 0b 22
        E 16 b1 0b 19
        E 16 b1 0b 08
        E 16 b1 0b 33
        E 16 b1 0b 22
        E 16 b1 0b 19
        E 48 b1 0c 20
        E 0 b1 0b 4c
        E 16 b1 0c 10
        E 0 b1 0b 3b
        E 16 b1 0b 33
        E 16 b1 0b 2a
        E 16 b1 0b 22
        E 16 b1 0b 19
        E 16 b1 0b 08
        E 16 b1 0b 33
        E 16 b1 0b 22
        E 16 b1 0b 19
        E 48 b1 0c 20
        E 0 b1 0b 4c
        E 16 b1 0c 10
        E 0 b1 0b 3b
        E 16 b1 0b 33
        E 16 b1 0b 2a
        E 16 b1 0b 22
        E 16 b1 0b 19
        E 16 b1 0b 08
        E 16 b1 0b 33
        E 16 b1 0b 22
        E 16 b1 0b 19
        E 48 b1 0c 20
        E 0 b1 0b 4c
        E 16 b1 0c 10
        E 0 b1 0b 3b
        E 16 b1 0b 33
        E 16 b1 0b 2a
        E 16 b1 0b 22
        E 16 b1 0b 19
        E 16 b1 0b 08
        E 16 b1 0b 33
        E 16 b1 0b 22
        E 16 b1 0b 19
        E 48 b1 0c 20
        E 0 b1 0b 4c
        E 16 b1 0c 10
        E 0 b1 0b 3b
        E 16 b1 0b 33
        E 16 b1 0b 2a
        E 16 b1 0b 22
        E 16 b1 0b 19
        E 16 b1 0b 08
        E 16 b1 0b 33
        E 16 b1 0b 22
        E 16 b1 0b 19
        E 48 81 6b 00
        E 384 b1 0c 20
        E 0 b1 0b 4c
        E 0 91 32 4c
        E 16 b1 0c 40
        E 0 b1 0b 3b
        E 16 b1 0b 33
        E 16 b1 0b 2a
        E 16 b1 0b 22
        E 16 b1 0b 19
        E 16 b1 0b 08
        E 16 b1 0b 33
        E 16 b1 0b 22
        E 16 b1 0b 19
        E 48 b1 0c 20
        E 0 b1 0b 44
        E 16 b1 0c 40
        E 0 b1 0b 3b
        E 16 b1 0b 33
        E 160 b1 0c 20
        E 0 b1 0b 4c
        E 16 b1 0c 40
        E 0 b1 0b 3b
        E 16 b1 0b 33
        E 16 b1 0b 2a
        E 16 b1 0b 22
        E 16 b1 0b 19
        E 16 b1 0b 08
        E 16 b1 0b 33
        E 16 b1 0b 22
        E 16 b1 0b 19
        E 48 81 32 00
        E 192 b1 0c 20
        E 0 b1 0b 4c
        E 0 91 32 4c
        E 16 b1 0c 40
        E 0 b1 0b 3b
        E 16 b1 0b 33
        E 16 b1 0b 2a
        E 16 b1 0b 22
        E 16 b1 0b 19
        E 16 b1 0b 08
        E 16 b1 0b 33
        E 16 b1 0b 22
        E 16 b1 0b 19
        E 48 b1 0c 20
        E 0 b1 0b 44
        E 16 b1 0c 40
        E 0 b1 0b 3b
        E 16 b1 0b 33
        E 160 b1 0c 20
        E 0 b1 0b 4c
        E 16 b1 0c 40
        E 0 b1 0b 3b
        E 16 b1 0b 33
        E 16 b1 0b 2a
        E 16 b1 0b 22
        E 16 b1 0b 19
        E 16 b1 0b 08
        E 16 b1 0b 33
        E 16 b1 0b 22
        E 16 b1 0b 19
        E 48 81 32 00
        E 192 b1 0c 20
        E 0 b1 0b 4c
        E 0 91 32 4c
        E 16 b1 0c 40
        E 0 b1 0b 3b
        E 16 b1 0b 33
        E 16 b1 0b 2a
        E 16 b1 0b 22
        E 16 b1 0b 19
        E 16 b1 0b 08
        E 16 b1 0b 33
        E 16 b1 0b 22
        E 16 b1 0b 19
        E 48 b1 0c 20
        E 0 b1 0b 4c
        E 16 b1 0c 40
        E 0 b1 0b 3b
        E 16 b1 0b 33
        E 16 b1 0b 2a
        E 16 b1 0b 22
        E 16 b1 0b 19
        E 16 b1 0b 08
        E 16 b1 0b 33
        E 16 b1 0b 22
        E 16 b1 0b 19
        E 48 b1 0c 20
        E 0 b1 0b 4c
        E 16 b1 0c 40
        E 0 b1 0b 3b
        E 16 b1 0b 33
        E 16 b1 0b 2a
        E 16 b1 0b 22
        E 16 b1 0b 19
        E 16 b1 0b 08
        E 16 b1 0b 33
        E 16 b1 0b 22
        E 16 b1 0b 19
        E 48 b1 0c 20
        E 0 b1 0b 4c
        E 16 b1 0c 40
        E 0 b1 0b 3b
        E 16 b1 0b 33
        E 16 b1 0b 2a
        E 16 b1 0b 22
        E 16 b1 0b 19
        E 16 b1 0b 08
        E 16 b1 0b 33
        E 16 b1 0b 22
        E 16 b1 0b 19
        E 48 b1 0c 20
        E 0 b1 0b 4c
        E 16 b1 0c 40
        E 0 b1 0b 3b
        E 16 b1 0b 33
        E 16 b1 0b 2a
        E 16 b1 0b 22
        E 16 b1 0b 19
        E 16 b1 0b 08
        E 16 b1 0b 33
        E 16 b1 0b 22
        E 16 b1 0b 19
        E 48 b1 0c 20
        E 0 b1 0b 44
        E 16 b1 0c 40
        E 0 b1 0b 3b
        E 16 b1 0b 33
        E 160 b1 0c 20
        E 0 b1 0b 4c
        E 16 b1 0c 40
        E 0 b1 0b 3b
        E 16 b1 0b 33
        E 16 b1 0b 2a
        E 16 b1 0b 22
        E 16 b1 0b 19
        E 16 b1 0b 08
        E 16 b1 0b 33
        E 16 b1 0b 22
        E 16 b1 0b 19
        E 48 81 32 00
        E 192 b1 0c 20
        E 0 b1 0b 4c
        E 0 91 32 4c
        E 16 b1 0c 40
        E 0 b1 0b 3b
        E 16 b1 0b 33
        E 16 b1 0b 2a
        E 16 b1 0b 22
        E 16 b1 0b 19
        E 16 b1 0b 08
        E 16 b1 0b 33
        E 16 b1 0b 22
        E 16 b1 0b 19
        E 48 b1 0c 20
        E 0 b1 0b 44
        E 16 b1 0c 40
        E 0 b1 0b 3b
        E 16 b1 0b 33
        E 160 b1 0c 20
        E 0 b1 0b 4c
        E 16 b1 0c 40
        E 0 b1 0b 3b
        E 16 b1 0b 33
        E 16 b1 0b 2a
        E 16 b1 0b 22
        E 16 b1 0b 19
        E 16 b1 0b 08
        E 16 b1 0b 33
        E 16 b1 0b 22
        E 16 b1 0b 19
        E 48 b1 0c 20
        E 0 b1 0b 4c
        E 16 b1 0c 40
        E 0 b1 0b 3b
        E 16 b1 0b 33
        E 16 b1 0b 2a
        E 16 b1 0b 22
        E 16 b1 0b 19
        E 16 b1 0b 08
        E 16 b1 0b 33
        E 16 b1 0b 22
        E 16 b1 0b 19
        E 48 b1 0c 20
        E 0 b1 0b 4c
        E 16 b1 0c 40
        E 0 b1 0b 3b
        E 16 b1 0b 33
        E 16 b1 0b 2a
        E 16 b1 0b 22
        E 16 b1 0b 19
        E 16 b1 0b 08
        E 16 b1 0b 33
        E 16 b1 0b 22
        E 16 b1 0b 19
        E 48 b1 0c 20
        E 0 b1 0b 44
        E 16 b1 0c 40
        E 0 b1 0b 3b
        E 16 b1 0b 33
        E 160 b1 0c 20
        E 0 b1 0b 4c
        E 16 b1 0c 40
        E 0 b1 0b 3b
        E 16 b1 0b 33
        E 16 b1 0b 2a
        E 16 b1 0b 22
        E 16 b1 0b 19
        E 16 b1 0b 08
        E 16 b1 0b 33
        E 16 b1 0b 22
        E 16 b1 0b 19
        E 48 b1 0c 20
        E 0 b1 0b 4c
        E 16 b1 0c 40
        E 0 b1 0b 3b
        E 16 b1 0b 33
        E 16 b1 0b 2a
        E 16 b1 0b 22
        E 16 b1 0b 19
        E 16 b1 0b 08
        E 16 b1 0b 33
        E 16 b1 0b 22
        E 16 b1 0b 19
        E 48 b1 0c 20
        E 0 b1 0b 4c
        E 16 b1 0c 40
        E 0 b1 0b 3b
        E 16 b1 0b 33
        E 16 b1 0b 2a
        E 16 b1 0b 22
        E 16 b1 0b 19
        E 16 b1 0b 08
        E 16 b1 0b 33
        E 16 b1 0b 22
        E 16 b1 0b 19
        E 48 b1 0c 20
        E 0 b1 0b 4c
        E 16 b1 0c 40
        E 0 b1 0b 3b
        E 16 b1 0b 33
        E 16 b1 0b 2a
        E 16 b1 0b 22
        E 16 b1 0b 19
        E 16 b1 0b 08
        E 16 b1 0b 33
        E 16 b1 0b 22
        E 16 b1 0b 19
        E 48 b1 0c 20
        E 0 b1 0b 4c
        E 16 b1 0c 40
        E 0 b1 0b 3b
        E 16 b1 0b 33
        E 16 b1 0b 2a
        E 16 b1 0b 22
        E 16 b1 0b 19
        E 16 b1 0b 08
        E 16 b1 0b 33
        E 16 b1 0b 22
        E 16 b1 0b 19
        E 48 b1 0c 20
        E 0 b1 0b 4c
        E 16 b1 0c 40
        E 0 b1 0b 3b
        E 16 b1 0b 33
        E 16 b1 0b 2a
        E 16 b1 0b 22
        E 16 b1 0b 19
        E 16 b1 0b 08
        E 16 b1 0b 33
        E 16 b1 0b 22
        E 16 b1 0b 19
        E 48 b1 0c 20
        E 0 b1 0b 4c
        E 0 81 32 00
        E 0 91 6b 4c
        E 16 b1 0c 40
        E 0 b1 0b 3b
        E 16 b1 0b 33
        E 16 b1 0b 2a
        E 16 b1 0b 22
        E 16 b1 0b 19
        E 16 b1 0b 08
        E 16 b1 0b 33
        E 16 b1 0b 22
        E 16 b1 0b 19
        E 48 b1 0c 20
        E 0 b1 0b 4c
        E 16 b1 0c 40
        E 0 b1 0b 3b
        E 16 b1 0b 33
        E 16 b1 0b 2a
        E 16 b1 0b 22
        E 16 b1 0b 19
        E 16 b1 0b 08
        E 16 b1 0b 33
        E 16 b1 0b 22
        E 16 b1 0b 19
        E 48 81 6b 00
        E 192 b1 0c 20
        E 0 b1 0b 44
        E 0 91 2d 44
        E 16 b1 0c 10
        E 0 b1 0b 3b
        E 16 b1 0b 33
        E 304 b1 0b 08
        E 48 b1 0c 20
        E 0 b1 0b 44
        E 0 81 2d 00
        E 0 91 5e 44
        E 16 b1 0c 10
        E 0 b1 0b 3b
        E 16 b1 0b 33
        E 304 b1 0b 08
        E 48 b1 0c 20
        E 0 b1 0b 44
        E 16 b1 0c 10
        E 0 b1 0b 3b
        E 16 b1 0b 33
        E 224 b1 0b 08
        E 32 b1 0c 20
        E 0 b1 0b 44
        E 0 81 5e 00
        E 0 91 2e 44
        E 16 b1 0c 10
        E 0 b1 0b 3b
        E 16 b1 0b 33
        E 64 b1 0c 20
        E 0 b1 0b 4c
        E 0 81 2e 00
        E 0 91 5e 4c
        E 16 b1 0c 10
        E 0 b1 0b 3b
        E 16 b1 0b 33
        E 16 b1 0b 2a
        E 16 b1 0b 22
        E 16 b1 0b 19
        E 16 b1 0b 08
        E 16 b1 0b 33
        E 16 b1 0b 22
        E 16 b1 0b 19
        E 48 b1 0c 20
        E 0 b1 0b 4c
        E 0 81 5e 00
        E 0 91 2d 4c
        E 16 b1 0c 10
        E 0 b1 0b 3b
        E 16 b1 0b 33
        E 16 b1 0b 2a
        E 16 b1 0b 22
        E 16 b1 0b 19
        E 16 b1 0b 08
        E 16 b1 0b 33
        E 16 b1 0b 22
        E 16 b1 0b 19
        E 48 b1 0c 20
        E 0 b1 0b 4c
        E 16 b1 0c 10
        E 0 b1 0b 3b
        E 16 b1 0b 33
        E 16 b1 0b 2a
        E 16 b1 0b 22
        E 16 b1 0b 19
        E 16 b1 0b 08
        E 16 b1 0b 33
        E 16 b1 0b 22
        E 16 b1 0b 19
        E 48 b1 0c 20
        E 0 b1 0b 4c
        E 16 b1 0c 10
        E 0 b1 0b 3b
        E 16 b1 0b 33
        E 16 b1 0b 2a
        E 16 b1 0b 22
        E 16 b1 0b 19
        E 16 b1 0b 08
        E 16 b1 0b 33
        E 16 b1 0b 22
        E 16 b1 0b 19
        E 48 b1 0c 20
        E 0 b1 0b 4c
        E 16 b1 0c 10
        E 0 b1 0b 3b
        E 16 b1 0b 33
        E 16 b1 0b 2a
        E 16 b1 0b 22
        E 16 b1 0b 19
        E 16 b1 0b 08
        E 16 b1 0b 33
        E 16 b1 0b 22
        E 16 b1 0b 19
        E 48 b1 0c 20
        E 0 b1 0b 4c
        E 16 b1 0c 10
        E 0 b1 0b 3b
        E 16 b1 0b 33
        E 16 b1 0b 2a
        E 16 b1 0b 22
        E 16 b1 0b 19
        E 16 b1 0b 08
        E 16 b1 0b 33
        E 16 b1 0b 22
        E 16 b1 0b 19
        E 48 b1 0c 20
        E 0 b1 0b 4c
        E 16 b1 0c 10
        E 0 b1 0b 3b
        E 16 b1 0b 33
        E 16 b1 0b 2a
        E 16 b1 0b 22
        E 16 b1 0b 19
        E 16 b1 0b 08
        E 16 b1 0b 33
        E 16 b1 0b 22
        E 16 b1 0b 19
        E 48 b1 0c 20
        E 0 b1 0b 4c
        E 16 b1 0c 10
        E 0 b1 0b 3b
        E 16 b1 0b 33
        E 16 b1 0b 2a
        E 16 b1 0b 22
        E 16 b1 0b 19
        E 16 b1 0b 08
        E 16 b1 0b 33
        E 16 b1 0b 22
        E 16 b1 0b 19
        E 48 b1 0c 20
        E 0 b1 0b 44
        E 16 b1 0c 10
        E 0 b1 0b 3b
        E 16 b1 0b 33
        E 64 b1 0c 20
        E 0 b1 0b 44
        E 16 b1 0c 10
        E 0 b1 0b 3b
        E 16 b1 0b 33
        E 16 b1 0c 20
        E 0 b1 0b 44
        E 16 b1 0c 10
        E 0 b1 0b 3b
        E 16 b1 0b 33
        E 16 b1 0c 20
        E 0 b1 0b 44
        E 16 b1 0c 10
        E 0 b1 0b 3b
        E 16 b1 0b 33
        E 16 b1 0c 20
        E 0 b1 0b 44
        E 16 b1 0c 10
        E 0 b1 0b 3b
        E 16 b1 0b 33
        E 16 b1 0c 20
        E 0 b1 0b 44
        E 0 81 2d 00
        E 0 91 5e 44
        E 16 b1 0c 10
        E 0 b1 0b 3b
        E 16 b1 0b 33
        E 16 b1 0c 20
        E 0 b1 0b 44
        E 16 b1 0c 10
        E 0 b1 0b 3b
        E 16 b1 0b 33
        E 16 b1 0c 20
        E 0 b1 0b 4c
        E 16 b1 0c 10
        E 0 b1 0b 3b
        E 16 b1 0b 33
        E 16 b1 0b 2a
        E 16 b1 0b 22
        E 16 b1 0b 19
        E 16 b1 0b 08
        E 16 b1 0b 33
        E 16 b1 0b 22
        E 16 b1 0b 19
        E 48 b1 0b 4c
        E 0 81 5e 00
        E 0 91 2e 4c
        E 16 b1 0b 3b
        E 16 b1 0b 33
        E 16 b1 0b 2a
        E 16 b1 0b 22
        E 16 b1 0b 19
        E 16 b1 0b 08
        E 16 b1 0b 33
        E 16 b1 0b 22
        E 16 b1 0b 19
        E 48 b1 0b 44
        E 16 b1 0b 3b
        E 16 b1 0b 33
        E 192 b1 0c 40
        E 0 b1 0b 19
        E 64 b1 0c 10
        E 0 b1 0b 4c
        E 16 b1 0b 3b
        E 16 b1 0b 33
        E 16 b1 0b 2a
        E 16 b1 0b 22
        E 16 b1 0b 19
        E 16 b1 0b 4c
        E 16 b1 0b 3b
        E 16 b1 0b 33
        E 16 b1 0b 2a
        E 16 b1 0b 22
        E 16 b1 0b 19
        E 16 b1 0b 08
        E 16 b1 0b 33
        E 16 b1 0b 22
        E 16 b1 0b 19
        E 48 b1 0b 4c
        E 16 b1 0b 3b
        E 16 b1 0b 33
        E 16 b1 0b 2a
        E 16 b1 0b 22
        E 16 b1 0b 19
        E 16 b1 0b 08
        E 16 b1 0b 33
        E 16 b1 0b 22
        E 16 b1 0b 19
        E 48 b1 0b 4c
        E 16 b1 0b 3b
        E 16 b1 0b 33
        E 16 b1 0b 2a
        E 16 b1 0b 22
        E 16 b1 0b 19
        E 16 b1 0b 08
        E 16 b1 0b 33
        E 16 b1 0b 22
        E 16 b1 0b 19
        E 48 b1 0b 4c
        E 16 b1 0b 3b
        E 16 b1 0b 33
        E 16 b1 0b 2a
        E 16 b1 0b 22
        E 16 b1 0b 19
        E 16 b1 0b 08
        E 16 b1 0b 33
        E 16 b1 0b 22
        E 16 b1 0b 19
        E 48 b1 0b 4c
        E 16 b1 0b 3b
        E 16 b1 0b 33
        E 16 b1 0b 2a
        E 16 b1 0b 22
        E 16 b1 0b 19
        E 16 b1 0b 08
        E 16 b1 0b 33
        E 16 b1 0b 22
        E 16 b1 0b 19
        E 48 b1 0b 4c
        E 16 b1 0b 3b
        E 16 b1 0b 33
        E 16 b1 0b 2a
        E 16 b1 0b 22
        E 16 b1 0b 19
        E 16 b1 0b 08
        E 16 b1 0b 33
        E 16 b1 0b 22
        E 16 b1 0b 19
        E 48 b1 0b 4c
        E 16 b1 0b 3b
        E 16 b1 0b 33
        E 16 b1 0b 2a
        E 16 b1 0b 22
        E 16 b1 0b 19
        E 16 b1 0b 08
        E 16 b1 0b 33
        E 16 b1 0b 22
        E 16 b1 0b 19
        E 48 b1 0b 4c
        E 16 b1 0b 3b
        E 16 b1 0b 33
        E 16 b1 0b 2a
        E 16 b1 0b 22
        E 16 b1 0b 19
        E 16 b1 0b 08
        E 16 b1 0b 33
        E 16 b1 0b 22
        E 16 b1 0b 19
        E 48 b1 0b 4c
        E 0 81 2e 00
        E 0 91 6b 4c
        E 16 b1 0b 3b
        E 16 b1 0b 33
        E 16 b1 0b 2a
        E 16 b1 0b 22
        E 16 b1 0b 19
        E 16 b1 0b 08
        E 16 b1 0b 33
        E 16 b1 0b 22
        E 16 b1 0b 19
        E 48 b1 0b 4c
        E 0 81 6b 00
        E 0 91 2d 4c
        E 16 b1 0b 3b
        E 16 b1 0b 33
        E 16 b1 0b 2a
        E 16 b1 0b 22
        E 16 b1 0b 19
        E 16 b1 0b 08
        E 16 b1 0b 33
        E 16 b1 0b 22
        E 16 b1 0b 19
        E 48 b1 0b 4c
        E 0 81 2d 00
        E 0 91 56 4c
        E 16 b1 0b 3b
        E 16 b1 0b 33
        E 16 b1 0b 2a
        E 16 b1 0b 22
        E 16 b1 0b 19
        E 16 b1 0b 08
        E 16 b1 0b 33
        E 16 b1 0b 22
        E 16 b1 0b 19
        E 48 81 56 00
        E 384 b1 0c 20
        E 0 b1 0b 4c
        E 0 91 2e 4c
        E 16 b1 0c 10
        E 0 b1 0b 3b
        E 16 b1 0b 33
        E 16 b1 0b 2a
        E 16 b1 0b 22
        E 16 b1 0b 19
        E 16 b1 0b 08
        E 16 b1 0b 33
        E 16 b1 0b 22
        E 16 b1 0b 19
        E 48 b1 0c 20
        E 0 b1 0b 44
        E 0 81 2e 00
        E 0 91 27 44
        E 16 b1 0c 10
        E 0 b1 0b 3b
        E 16 b1 0b 33
        E 160 b1 0c 20
        E 0 b1 0b 4c
        E 0 81 27 00
        E 0 91 37 4c
        E 16 b1 0c 10
        E 0 b1 0b 3b
        E 16 b1 0b 33
        E 16 b1 0b 2a
        E 16 b1 0b 22
        E 16 b1 0b 19
        E 16 b1 0b 08
        E 16 b1 0b 33
        E 16 b1 0b 22
        E 16 b1 0b 19
        E 48 81 37 00
        E 192 b1 0c 20
        E 0 b1 0b 4c
        E 0 91 3d 4c
        E 16 b1 0c 10
        E 0 b1 0b 3b
        E 16 b1 0b 33
        E 16 b1 0b 2a
        E 16 b1 0b 22
        E 16 b1 0b 19
        E 16 b1 0b 08
        E 16 b1 0b 33
        E 16 b1 0b 22
        E 16 b1 0b 19
        E 48 b1 0c 20
        E 0 b1 0b 44
        E 16 b1 0c 10
        E 0 b1 0b 3b
        E 16 b1 0b 33
        E 160 b1 0c 20
        E 0 b1 0b 4c
        E 16 b1 0c 10
        E 0 b1 0b 3b
        E 16 b1 0b 33
        E 16 b1 0b 2a
        E 16 b1 0b 22
        E 16 b1 0b 19
        E 16 b1 0b 08
        E 16 b1 0b 33
        E 16 b1 0b 22
        E 16 b1 0b 19
        E 48 81 3d 00
        E 192 b1 0c 20
        E 0 b1 0b 4c
        E 0 91 3d 4c
        E 16 b1 0c 10
        E 0 b1 0b 3b
        E 16 b1 0b 33
        E 16 b1 0b 2a
        E 16 b1 0b 22
        E 16 b1 0b 19
        E 16 b1 0b 08
        E 16 b1 0b 33
        E 16 b1 0b 22
        E 16 b1 0b 19
        E 48 b1 0c 20
        E 0 b1 0b 4c
        E 16 b1 0c 10
        E 0 b1 0b 3b
        E 16 b1 0b 33
        E 16 b1 0b 2a
        E 16 b1 0b 22
        E 16 b1 0b 19
        E 16 b1 0b 08
        E 16 b1 0b 33
        E 16 b1 0b 22
        E 16 b1 0b 19
        E 48 b1 0c 20
        E 0 b1 0b 4c
        E 16 b1 0c 10
        E 0 b1 0b 3b
        E 16 b1 0b 33
        E 16 b1 0b 2a
        E 16 b1 0b 22
        E 16 b1 0b 19
        E 16 b1 0b 08
        E 16 b1 0b 33
        E 16 b1 0b 22
        E 16 b1 0b 19
        E 48 b1 0c 20
        E 0 b1 0b 4c
        E 16 b1 0c 10
        E 0 b1 0b 3b
        E 16 b1 0b 33
        E 16 b1 0b 2a
        E 16 b1 0b 22
        E 16 b1 0b 19
        E 16 b1 0b 08
        E 16 b1 0b 33
        E 16 b1 0b 22
        E 16 b1 0b 19
        E 48 b1 0c 20
        E 0 b1 0b 4c
        E 16 b1 0c 10
        E 0 b1 0b 3b
        E 16 b1 0b 33
        E 16 b1 0b 2a
        E 16 b1 0b 22
        E 16 b1 0b 19
        E 16 b1 0b 08
        E 16 b1 0b 33
        E 16 b1 0b 22
        E 16 b1 0b 19
        E 48 b1 0c 20
        E 0 b1 0b 4c
        E 16 b1 0c 10
        E 0 b1 0b 3b
        E 16 b1 0b 33
        E 16 b1 0b 2a
        E 16 b1 0b 22
        E 16 b1 0b 19
        E 16 b1 0b 08
        E 16 b1 0b 33
        E 16 b1 0b 22
        E 16 b1 0b 19
        E 48 b1 0c 20
        E 0 b1 0b 4c
        E 16 b1 0c 10
        E 0 b1 0b 3b
        E 16 b1 0b 33
        E 16 b1 0b 2a
        E 16 b1 0b 22
        E 16 b1 0b 19
        E 16 b1 0b 08
        E 16 b1 0b 33
        E 16 b1 0b 22
        E 16 b1 0b 19
        E 48 81 3d 00
        E 192 b1 0c 20
        E 0 b1 0b 4c
        E 0 91 3d 4c
        E 16 b1 0c 10
        E 0 b1 0b 3b
        E 16 b1 0b 33
        E 16 b1 0b 2a
        E 16 b1 0b 22
        E 16 b1 0b 19
        E 16 b1 0b 08
        E 16 b1 0b 33
        E 16 b1 0b 22
        E 16 b1 0b 19
        E 48 b1 0c 40
        E 0 b1 0b 3b
        E 16 b1 0b 33
        E 16 b1 0b 2a
        E 192 b1 0b 22
        E 16 b1 0b 19
        E 16 b1 0b 11
        E 16 b1 0b 08
        E 16 b1 0b 44
        E 16 b1 0b 33
        E 16 b1 0b 2a
        E 16 b1 0b 22
        E 16 b1 0b 19
        E 16 b1 0b 11
        E 16 b1 0b 44
        E 16 b1 0b 33
        E 16 b1 0b 2a
        E 16 b1 0b 22
        E 16 b1 0b 19
        E 16 b1 0b 11
        E 16 b1 0b 08
        E 16 b1 0b 2a
        E 16 b1 0b 19
        E 16 b1 0b 11
        E 48 b1 0b 4c
        E 16 b1 0b 3b
        E 16 b1 0b 33
        E 16 b1 0b 2a
        E 16 b1 0b 22
        E 16 b1 0b 19
        E 16 b1 0b 08
        E 16 b1 0b 33
        E 16 b1 0b 22
        E 16 b1 0b 19
        E 48 b1 0b 4c
        E 16 b1 0b 3b
        E 16 b1 0b 33
        E 16 b1 0b 2a
        E 16 b1 0b 22
        E 16 b1 0b 19
        E 16 b1 0b 08
        E 16 b1 0b 33
        E 16 b1 0b 22
        E 16 b1 0b 19
        E 48 b1 0b 4c
        E 16 b1 0b 3b
        E 16 b1 0b 33
        E 16 b1 0b 2a
        E 16 b1 0b 22
        E 16 b1 0b 19
        E 16 b1 0b 08
        E 16 b1 0b 33
        E 16 b1 0b 22
        E 16 b1 0b 19
        E 48 b1 0b 4c
        E 16 b1 0b 3b
        E 16 b1 0b 33
        E 16 b1 0b 2a
        E 16 b1 0b 22
        E 16 b1 0b 19
        E 16 b1 0b 08
        E 16 b1 0b 33
        E 16 b1 0b 22
        E 16 b1 0b 19
        E 48 b1 0b 4c
        E 16 b1 0b 3b
        E 16 b1 0b 33
        E 16 b1 0b 2a
        E 16 b1 0b 22
        E 16 b1 0b 19
        E 16 b1 0b 08
        E 16 b1 0b 33
        E 16 b1 0b 22
        E 16 b1 0b 19
        E 48 b1 0b 4c
        E 16 b1 0b 3b
        E 16 b1 0b 33
        E 16 b1 0b 2a
        E 16 b1 0b 22
        E 16 b1 0b 19
        E 16 b1 0b 08
        E 16 b1 0b 33
        E 16 b1 0b 22
        E 16 b1 0b 19
        E 48 81 3d 00
        E 192 b1 0b 4c
        E 0 91 3d 4c
        E 16 b1 0b 3b
        E 16 b1 0b 33
        E 16 b1 0b 2a
        E 16 b1 0b 22
        E 16 b1 0b 19
        E 16 b1 0b 08
        E 16 b1 0b 33
        E 16 b1 0b 22
        E 16 b1 0b 19
        E 48 81 3d 00
        E 192 b1 0b 4c
        E 0 91 3d 4c
        E 16 b1 0b 3b
        E 16 b1 0b 33
        E 16 b1 0b 2a
        E 16 b1 0b 22
        E 16 b1 0b 19
        E 16 b1 0b 08
        E 16 b1 0b 33
        E 16 b1 0b 22
        E 16 b1 0b 19
        E 48 81 3d 00
        E 192 b1 0c 20
        E 0 b1 0b 44
        E 0 91 30 44
        E 16 b1 0c 10
        E 0 b1 0b 3b
        E 16 b1 0b 33
        E 192 b1 0b 2a
        E 16 b1 0b 22
        E 16 b1 0b 19
        E 16 b1 0b 11
        E 16 b1 0c 20
        E 0 b1 0b 4c
        E 16 b1 0c 10
        E 0 b1 0b 3b
        E 16 b1 0b 33
        E 16 b1 0b 2a
        E 16 b1 0b 22
        E 16 b1 0b 19
        E 16 b1 0c 20
        E 0 b1 0b 4c
        E 16 b1 0c 10
        E 0 b1 0b 3b
        E 16 b1 0b 33
        E 16 b1 0b 2a
        E 16 b1 0b 22
        E 16 b1 0b 19
        E 16 b1 0b 08
        E 16 b1 0b 33
        E 16 b1 0b 22
        E 16 b1 0b 19
        E 48 b1 0c 20
        E 0 b1 0b 4c
        E 16 b1 0c 10
        E 0 b1 0b 3b
        E 16 b1 0b 33
        E 16 b1 0b 2a
        E 16 b1 0b 22
        E 16 b1 0b 19
        E 16 b1 0b 08
        E 16 b1 0b 33
        E 16 b1 0b 22
        E 16 b1 0b 19
        E 48 b1 0c 20
        E 0 b1 0b 4c
        E 16 b1 0c 10
        E 0 b1 0b 3b
        E 16 b1 0b 33
        E 16 b1 0b 2a
        E 16 b1 0b 22
        E 16 b1 0b 19
        E 16 b1 0b 08
        E 16 b1 0b 33
        E 16 b1 0b 22
        E 16 b1 0b 19
        E 48 b1 0c 20
        E 0 b1 0b 4c
        E 16 b1 0c 10
        E 0 b1 0b 3b
        E 16 b1 0b 33
        E 16 b1 0b 2a
        E 16 b1 0b 22
        E 16 b1 0b 19
        E 16 b1 0b 08
        E 16 b1 0b 33
        E 16 b1 0b 22
        E 16 b1 0b 19
        E 48 b1 0c 20
        E 0 b1 0b 4c
        E 0 81 30 00
        E 0 91 26 4c
        E 16 b1 0c 10
        E 0 b1 0b 3b
        E 16 b1 0b 33
        E 16 b1 0b 2a
        E 16 b1 0b 22
        E 16 b1 0b 19
        E 16 b1 0b 08
        E 16 b1 0b 33
        E 16 b1 0b 22
        E 16 b1 0b 19
        E 48 b1 0c 20
        E 0 b1 0b 4c
        E 0 81 26 00
        E 0 91 37 4c
        E 16 b1 0c 10
        E 0 b1 0b 3b
        E 16 b1 0b 33
        E 16 b1 0b 2a
        E 16 b1 0b 22
        E 16 b1 0b 19
        E 16 b1 0b 08
        E 16 b1 0b 33
        E 16 b1 0b 22
        E 16 b1 0b 19
        E 48 b1 0c 20
        E 0 b1 0b 4c
        E 0 81 37 00
        E 0 91 27 4c
        E 16 b1 0c 10
        E 0 b1 0b 3b
        E 16 b1 0b 33
        E 16 b1 0b 2a
        E 16 b1 0b 22
        E 16 b1 0b 19
        E 16 b1 0b 08
        E 16 b1 0b 33
        E 16 b1 0b 22
        E 16 b1 0b 19
        E 48 b1 0c 20
        E 0 b1 0b 4c
        E 0 81 27 00
        E 0 91 33 4c
        E 16 b1 0c 10
        E 0 b1 0b 3b
        E 16 b1 0b 33
        E 16 b1 0b 2a
        E 16 b1 0b 22
        E 16 b1 0b 19
        E 16 b1 0b 08
        E 16 b1 0b 33
        E 16 b1 0b 22
        E 16 b1 0b 19
        E 48 b1 0c 20
        E 0 b1 0b 4c
        E 0 81 33 00
        E 0 91 27 4c
        E 16 b1 0c 10
        E 0 b1 0b 3b
        E 16 b1 0b 33
        E 16 b1 0b 2a
        E 16 b1 0b 22
        E 16 b1 0b 19
        E 16 b1 0b 08
        E 16 b1 0b 33
        E 16 b1 0b 22
        E 16 b1 0b 19
        E 48 81 27 00
        E 96 b1 0c 40
        E 0 b1 0b 44
        E 0 91 40 44
        E 16 b1 0b 3b
        E 16 b1 0b 33
        E 16 b1 0b 2a
        E 16 b1 0b 44
        E 16 b1 0b 3b
        E 16 b1 0b 33
        E 16 b1 0b 2a
        E 16 b1 0b 44
        E 16 b1 0b 3b
        E 16 b1 0b 33
        E 16 b1 0b 2a
        E 16 b1 0b 08
        E 256 81 40 00
        E 12512 b1 0b 44
        E 0 91 4c 44
        E 16 b1 0b 3b
        E 16 b1 0b 33
        E 48 b1 0b 08
        E 16 b1 0b 44
        E 16 b1 0b 3b
        E 16 b1 0b 33
        E 48 b1 0b 08
        E 16 b1 0b 44
        E 16 b1 0b 3b
        E 16 b1 0b 33
        E 48 b1 0b 08
        E 16 b1 0b 44
        E 16 b1 0b 3b
        E 16 b1 0b 33
        E 48 b1 0b 08
        E 16 b1 0b 44
        E 16 b1 0b 3b
        E 16 b1 0b 33
        E 48 b1 0b 08
        E 16 b1 0b 44
        E 16 b1 0b 3b
        E 16 b1 0b 33
        E 48 b1 0b 08
        E 16 b1 0b 44
        E 16 b1 0b 3b
        E 16 b1 0b 33
        E 48 b1 0b 08
        E 16 b1 0b 44
        E 16 b1 0b 3b
        E 16 b1 0b 33
        E 48 b1 0b 08
        E 16 b1 0b 44
        E 16 b1 0b 3b
        E 16 b1 0b 33
        E 48 b1 0b 08
        E 16 b1 0b 44
        E 16 b1 0b 3b
        E 16 b1 0b 33
        E 48 b1 0b 08
        E 16 b1 0b 44
        E 16 b1 0b 3b
        E 16 b1 0b 33
        E 48 b1 0b 08
        E 16 b1 0b 44
        E 16 b1 0b 3b
        E 16 b1 0b 33
        E 48 b1 0b 08
        E 16 b1 0b 44
        E 16 b1 0b 3b
        E 16 b1 0b 33
        E 48 b1 0b 08
        E 16 b1 0b 44
        E 16 b1 0b 3b
        E 16 b1 0b 33
        E 48 b1 0b 08
        E 16 b1 0b 44
        E 16 b1 0b 3b
        E 16 b1 0b 33
        E 48 b1 0b 08
        E 16 b1 0b 44
        E 16 b1 0b 3b
        E 16 b1 0b 33
        E 48 b1 0b 08
        E 16 b1 0b 44
        E 16 b1 0b 3b
        E 16 b1 0b 33
        E 48 b1 0b 08
        E 16 b1 0b 44
        E 16 b1 0b 3b
        E 16 b1 0b 33
        E 48 b1 0b 08
        E 16 b1 0b 44
        E 16 b1 0b 3b
        E 16 b1 0b 33
        E 48 b1 0b 08
        E 16 b1 0b 44
        E 16 b1 0b 3b
        E 16 b1 0b 33
        E 48 b1 0b 08
        E 16 b1 0b 44
        E 16 b1 0b 3b
        E 16 b1 0b 33
        E 48 b1 0b 08
        E 16 b1 0b 44
        E 16 b1 0b 3b
        E 16 b1 0b 33
        E 48 b1 0b 08
        E 16 b1 0b 44
        E 16 b1 0b 3b
        E 16 b1 0b 33
        E 48 b1 0b 08
        E 16 b1 0b 44
        E 16 b1 0b 3b
        E 16 b1 0b 33
        E 48 b1 0b 08
        E 16 b1 0b 44
        E 16 b1 0b 3b
        E 16 b1 0b 33
        E 112 b1 0b 2a
        E 128 b1 0b 22
        E 32 b1 0b 19
        E 16 b1 0b 11
        E 112 b1 0b 08
        E 144 b1 0c 20
        E 0 b1 0b 4c
        E 0 81 4c 00
        E 0 91 2f 4c
        E 16 b1 0c 10
        E 0 b1 0b 3b
        E 16 b1 0b 33
        E 16 b1 0b 2a
        E 16 b1 0b 22
        E 16 b1 0b 19
        E 16 b1 0b 08
        E 16 b1 0b 33
        E 16 b1 0b 22
        E 16 b1 0b 19
        E 48 b1 0c 20
        E 0 b1 0b 44
        E 0 81 2f 00
        E 0 91 27 44
        E 16 b1 0c 10
        E 0 b1 0b 3b
        E 16 b1 0b 33
        E 160 b1 0c 20
        E 0 b1 0b 4c
        E 0 81 27 00
        E 0 91 37 4c
        E 16 b1 0c 10
        E 0 b1 0b 3b
        E 16 b1 0b 33
        E 16 b1 0b 2a
        E 16 b1 0b 22
        E 16 b1 0b 19
        E 16 b1 0b 08
        E 16 b1 0b 33
        E 16 b1 0b 22
        E 16 b1 0b 19
        E 48 81 37 00
        E 192 b1 0c 20
        E 0 b1 0b 4c
        E 0 91 3d 4c
        E 16 b1 0c 10
        E 0 b1 0b 3b
        E 16 b1 0b 33
        E 16 b1 0b 2a
        E 16 b1 0b 22
        E 16 b1 0b 19
        E 16 b1 0b 08
        E 16 b1 0b 33
        E 16 b1 0b 22
        E 16 b1 0b 19
        E 48 b1 0c 20
        E 0 b1 0b 44
        E 16 b1 0c 10
        E 0 b1 0b 3b
        E 16 b1 0b 33
        E 160 b1 0c 20
        E 0 b1 0b 4c
        E 16 b1 0c 10
        E 0 b1 0b 3b
        E 16 b1 0b 33
        E 16 b1 0b 2a
        E 16 b1 0b 22
        E 16 b1 0b 19
        E 16 b1 0b 08
        E 16 b1 0b 33
        E 16 b1 0b 22
        E 16 b1 0b 19
        E 48 81 3d 00
        E 192 b1 0c 20
        E 0 b1 0b 4c
        E 0 91 3d 4c
        E 16 b1 0c 10
        E 0 b1 0b 3b
        E 16 b1 0b 33
        E 16 b1 0b 2a
        E 16 b1 0b 22
        E 16 b1 0b 19
        E 16 b1 0b 08
        E 16 b1 0b 33
        E 16 b1 0b 22
        E 16 b1 0b 19
        E 48 b1 0c 20
        E 0 b1 0b 4c
        E 0 81 3d 00
        E 0 91 2e 4c
        E 16 b1 0c 10
        E 0 b1 0b 3b
        E 16 b1 0b 33
        E 16 b1 0b 2a
        E 16 b1 0b 22
        E 16 b1 0b 19
        E 16 b1 0b 08
        E 16 b1 0b 33
        E 16 b1 0b 22
        E 16 b1 0b 19
        E 48 b1 0c 20
        E 0 b1 0b 4c
        E 0 81 2e 00
        E 0 91 6b 4c
        E 16 b1 0c 10
        E 0 b1 0b 3b
        E 16 b1 0b 33
        E 16 b1 0b 2a
        E 16 b1 0b 22
        E 16 b1 0b 19
        E 16 b1 0b 08
        E 16 b1 0b 33
        E 16 b1 0b 22
        E 16 b1 0b 19
        E 16 b1 0c 20
        E 0 b1 0b 33
        E 16 b1 0c 10
        E 0 b1 0b 2a
        E 16 b1 0c 20
        E 0 b1 0b 3b
        E 16 b1 0c 10
        E 0 b1 0b 33
        E 16 b1 0c 20
        E 0 b1 0b 4c
        E 16 b1 0c 10
        E 0 b1 0b 3b
        E 16 b1 0b 33
        E 16 b1 0b 2a
        E 16 b1 0b 22
        E 16 b1 0b 19
        E 16 b1 0b 08
        E 16 b1 0b 33
        E 16 b1 0b 22
        E 16 b1 0b 19
        E 16 b1 0c 20
        E 0 b1 0b 4c
        E 16 b1 0c 10
        E 0 b1 0b 3b
        E 16 b1 0b 33
        E 16 b1 0b 2a
        E 16 b1 0b 22
        E 16 b1 0b 19
        E 16 b1 0b 08
        E 16 b1 0b 33
        E 16 b1 0b 22
        E 16 b1 0b 19
        E 48 b1 0c 20
        E 0 b1 0b 44
        E 16 b1 0c 10
        E 0 b1 0b 3b
        E 16 b1 0b 33
        E 160 b1 0c 20
        E 0 b1 0b 4c
        E 16 b1 0c 10
        E 0 b1 0b 3b
        E 16 b1 0b 33
        E 16 b1 0b 2a
        E 16 b1 0b 22
        E 16 b1 0b 19
        E 16 b1 0b 08
        E 16 b1 0b 33
        E 16 b1 0b 22
        E 16 b1 0b 19
        E 48 81 6b 00
        E 192 b1 0c 20
        E 0 b1 0b 4c
        E 0 91 6b 4c
        E 16 b1 0c 10
        E 0 b1 0b 3b
        E 16 b1 0b 33
        E 16 b1 0b 2a
        E 16 b1 0b 22
        E 16 b1 0b 19
        E 16 b1 0b 08
        E 16 b1 0b 33
        E 16 b1 0b 22
        E 16 b1 0b 19
        E 48 b1 0c 20
        E 0 b1 0b 44
        E 16 b1 0c 10
        E 0 b1 0b 3b
        E 16 b1 0b 33
        E 160 b1 0c 20
        E 0 b1 0b 4c
        E 16 b1 0c 10
        E 0 b1 0b 3b
        E 16 b1 0b 33
        E 16 b1 0b 2a
        E 16 b1 0b 22
        E 16 b1 0b 19
        E 16 b1 0b 08
        E 16 b1 0b 33
        E 16 b1 0b 22
        E 16 b1 0b 19
        E 48 81 6b 00
        E 192 b1 0c 20
        E 0 b1 0b 4c
        E 0 91 6b 4c
        E 16 b1 0c 10
        E 0 b1 0b 3b
        E 16 b1 0b 33
        E 16 b1 0b 2a
        E 16 b1 0b 22
        E 16 b1 0b 19
        E 16 b1 0b 08
        E 16 b1 0b 33
        E 16 b1 0b 22
        E 16 b1 0b 19
        E 48 b1 0c 20
        E 0 b1 0b 44
        E 16 b1 0c 10
        E 0 b1 0b 3b
        E 16 b1 0b 33
        E 160 b1 0c 20
        E 0 b1 0b 4c
        E 16 b1 0c 10
        E 0 b1 0b 3b
        E 16 b1 0b 33
        E 16 b1 0b 2a
        E 16 b1 0b 22
        E 16 b1 0b 19
        E 16 b1 0b 08
        E 16 b1 0b 33
        E 16 b1 0b 22
        E 16 b1 0b 19
        E 48 b1 0c 20
        E 0 b1 0b 4c
        E 16 b1 0c 10
        E 0 b1 0b 3b
        E 16 b1 0b 33
        E 16 b1 0b 2a
        E 16 b1 0b 22
        E 16 b1 0b 19
        E 16 b1 0b 08
        E 16 b1 0b 33
        E 16 b1 0b 22
        E 16 b1 0b 19
        E 48 b1 0c 20
        E 0 b1 0b 44
        E 16 b1 0c 10
        E 0 b1 0b 3b
        E 16 b1 0b 33
        E 16 b1 0c 20
        E 0 b1 0b 44
        E 16 b1 0c 10
        E 0 b1 0b 3b
        E 16 b1 0b 33
        E 16 b1 0c 20
        E 0 b1 0b 44
        E 16 b1 0c 10
        E 0 b1 0b 3b
        E 16 b1 0b 33
        E 16 b1 0c 20
        E 0 b1 0b 44
        E 16 b1 0c 10
        E 0 b1 0b 3b
        E 16 b1 0b 33
        E 16 b1 0c 20
        E 0 b1 0b 4c
        E 16 b1 0c 10
        E 0 b1 0b 3b
        E 16 b1 0b 33
        E 16 b1 0b 2a
        E 16 b1 0b 22
        E 16 b1 0b 19
        E 16 b1 0b 08
        E 16 b1 0b 33
        E 16 b1 0b 22
        E 16 b1 0b 19
        E 48 b1 0c 20
        E 0 b1 0b 4c
        E 16 b1 0c 10
        E 0 b1 0b 3b
        E 16 b1 0b 33
        E 16 b1 0b 2a
        E 16 b1 0b 22
        E 16 b1 0b 19
        E 16 b1 0b 08
        E 16 b1 0b 33
        E 16 b1 0b 22
        E 16 b1 0b 19
        E 48 b1 0c 20
        E 0 b1 0b 4c
        E 16 b1 0c 10
        E 0 b1 0b 3b
        E 16 b1 0b 33
        E 16 b1 0b 2a
        E 16 b1 0b 22
        E 16 b1 0b 19
        E 16 b1 0b 08
        E 16 b1 0b 33
        E 16 b1 0b 22
        E 16 b1 0b 19
        E 48 b1 0c 20
        E 0 b1 0b 4c
        E 16 b1 0c 10
        E 0 b1 0b 3b
        E 16 b1 0b 33
        E 16 b1 0b 2a
        E 16 b1 0b 22
        E 16 b1 0b 19
        E 16 b1 0b 08
        E 16 b1 0b 33
        E 16 b1 0b 22
        E 16 b1 0b 19
        E 48 b1 0c 20
        E 0 b1 0b 4c
        E 16 b1 0c 10
        E 0 b1 0b 3b
        E 16 b1 0b 33
        E 16 b1 0b 2a
        E 16 b1 0b 22
        E 16 b1 0b 19
        E 16 b1 0b 08
        E 16 b1 0b 33
        E 16 b1 0b 22
        E 16 b1 0b 19
        E 48 81 6b 00
        E 384 b1 0c 20
        E 0 b1 0b 4c
        E 0 91 32 4c
        E 16 b1 0c 40
        E 0 b1 0b 3b
        E 16 b1 0b 33
        E 16 b1 0b 2a
        E 16 b1 0b 22
        E 16 b1 0b 19
        E 16 b1 0b 08
        E 16 b1 0b 33
        E 16 b1 0b 22
        E 16 b1 0b 19
        E 48 b1 0c 20
        E 0 b1 0b 44
        E 16 b1 0c 40
        E 0 b1 0b 3b
        E 16 b1 0b 33
        E 160 b1 0c 20
        E 0 b1 0b 4c
        E 16 b1 0c 40
        E 0 b1 0b 3b
        E 16 b1 0b 33
        E 16 b1 0b 2a
        E 16 b1 0b 22
        E 16 b1 0b 19
        E 16 b1 0b 08
        E 16 b1 0b 33
        E 16 b1 0b 22
        E 16 b1 0b 19
        E 48 81 32 00
        E 192 b1 0c 20
        E 0 b1 0b 4c
        E 0 91 32 4c
        E 16 b1 0c 40
        E 0 b1 0b 3b
        E 16 b1 0b 33
        E 16 b1 0b 2a
        E 16 b1 0b 22
        E 16 b1 0b 19
        E 16 b1 0b 08
        E 16 b1 0b 33
        E 16 b1 0b 22
        E 16 b1 0b 19
        E 48 b1 0c 20
        E 0 b1 0b 44
        E 16 b1 0c 40
        E 0 b1 0b 3b
        E 16 b1 0b 33
        E 160 b1 0c 20
        E 0 b1 0b 4c
        E 16 b1 0c 40
        E 0 b1 0b 3b
        E 16 b1 0b 33
        E 16 b1 0b 2a
        E 16 b1 0b 22
        E 16 b1 0b 19
        E 16 b1 0b 08
        E 16 b1 0b 33
        E 16 b1 0b 22
        E 16 b1 0b 19
        E 48 81 32 00
        E 192 b1 0c 20
        E 0 b1 0b 4c
        E 0 91 32 4c
        E 16 b1 0c 40
        E 0 b1 0b 3b
        E 16 b1 0b 33
        E 16 b1 0b 2a
        E 16 b1 0b 22
        E 16 b1 0b 19
        E 16 b1 0b 08
        E 16 b1 0b 33
        E 16 b1 0b 22
        E 16 b1 0b 19
        E 48 b1 0c 20
        E 0 b1 0b 4c
        E 16 b1 0c 40
        E 0 b1 0b 3b
        E 16 b1 0b 33
        E 16 b1 0b 2a
        E 16 b1 0b 22
        E 16 b1 0b 19
        E 16 b1 0b 08
        E 16 b1 0b 33
        E 16 b1 0b 22
        E 16 b1 0b 19
        E 48 b1 0c 20
        E 0 b1 0b 4c
        E 16 b1 0c 40
        E 0 b1 0b 3b
        E 16 b1 0b 33
        E 16 b1 0b 2a
        E 16 b1 0b 22
        E 16 b1 0b 19
        E 16 b1 0b 08
        E 16 b1 0b 33
        E 16 b1 0b 22
        E 16 b1 0b 19
        E 48 b1 0c 20
        E 0 b1 0b 4c
        E 16 b1 0c 40
        E 0 b1 0b 3b
        E 16 b1 0b 33
        E 16 b1 0b 2a
        E 16 b1 0b 22
        E 16 b1 0b 19
        E 16 b1 0b 08
        E 16 b1 0b 33
        E 16 b1 0b 22
        E 16 b1 0b 19
        E 48 b1 0c 20
        E 0 b1 0b 4c
        E 16 b1 0c 40
        E 0 b1 0b 3b
        E 16 b1 0b 33
        E 16 b1 0b 2a
        E 16 b1 0b 22
        E 16 b1 0b 19
        E 16 b1 0b 08
        E 16 b1 0b 33
        E 16 b1 0b 22
        E 16 b1 0b 19
        E 48 b1 0c 20
        E 0 b1 0b 44
        E 16 b1 0c 40
        E 0 b1 0b 3b
        E 16 b1 0b 33
        E 160 b1 0c 20
        E 0 b1 0b 4c
        E 16 b1 0c 40
        E 0 b1 0b 3b
        E 16 b1 0b 33
        E 16 b1 0b 2a
        E 16 b1 0b 22
        E 16 b1 0b 19
        E 16 b1 0b 08
        E 16 b1 0b 33
        E 16 b1 0b 22
        E 16 b1 0b 19
        E 48 81 32 00
        E 192 b1 0c 20
        E 0 b1 0b 4c
        E 0 91 32 4c
        E 16 b1 0c 40
        E 0 b1 0b 3b
        E 16 b1 0b 33
        E 16 b1 0b 2a
        E 16 b1 0b 22
        E 16 b1 0b 19
        E 16 b1 0b 08
        E 16 b1 0b 33
        E 16 b1 0b 22
        E 16 b1 0b 19
        E 48 b1 0c 20
        E 0 b1 0b 44
        E 16 b1 0c 40
        E 0 b1 0b 3b
        E 16 b1 0b 33
        E 160 b1 0c 20
        E 0 b1 0b 4c
        E 16 b1 0c 40
        E 0 b1 0b 3b
        E 16 b1 0b 33
        E 16 b1 0b 2a
        E 16 b1 0b 22
        E 16 b1 0b 19
        E 16 b1 0b 08
        E 16 b1 0b 33
        E 16 b1 0b 22
        E 16 b1 0b 19
        E 48 b1 0c 20
        E 0 b1 0b 4c
        E 16 b1 0c 40
        E 0 b1 0b 3b
        E 16 b1 0b 33
        E 16 b1 0b 2a
        E 16 b1 0b 22
        E 16 b1 0b 19
        E 16 b1 0b 08
        E 16 b1 0b 33
        E 16 b1 0b 22
        E 16 b1 0b 19
        E 48 b1 0c 20
        E 0 b1 0b 4c
        E 16 b1 0c 40
        E 0 b1 0b 3b
        E 16 b1 0b 33
        E 16 b1 0b 2a
        E 16 b1 0b 22
        E 16 b1 0b 19
        E 16 b1 0b 08
        E 16 b1 0b 33
        E 16 b1 0b 22
        E 16 b1 0b 19
        E 48 b1 0c 20
        E 0 b1 0b 44
        E 16 b1 0c 40
        E 0 b1 0b 3b
        E 16 b1 0b 33
        E 160 b1 0c 20
        E 0 b1 0b 4c
        E 16 b1 0c 40
        E 0 b1 0b 3b
        E 16 b1 0b 33
        E 16 b1 0b 2a
        E 16 b1 0b 22
        E 16 b1 0b 19
        E 16 b1 0b 08
        E 16 b1 0b 33
        E 16 b1 0b 22
        E 16 b1 0b 19
        E 48 b1 0c 20
        E 0 b1 0b 4c
        E 16 b1 0c 40
        E 0 b1 0b 3b
        E 16 b1 0b 33
        E 16 b1 0b 2a
        E 16 b1 0b 22
        E 16 b1 0b 19
        E 16 b1 0b 08
        E 16 b1 0b 33
        E 16 b1 0b 22
        E 16 b1 0b 19
        E 48 b1 0c 20
        E 0 b1 0b 4c
        E 16 b1 0c 40
        E 0 b1 0b 3b
        E 16 b1 0b 33
        E 16 b1 0b 2a
        E 16 b1 0b 22
        E 16 b1 0b 19
        E 16 b1 0b 08
        E 16 b1 0b 33
        E 16 b1 0b 22
        E 16 b1 0b 19
        E 48 b1 0c 20
        E 0 b1 0b 4c
        E 16 b1 0c 40
        E 0 b1 0b 3b
        E 16 b1 0b 33
        E 16 b1 0b 2a
        E 16 b1 0b 22
        E 16 b1 0b 19
        E 16 b1 0b 08
        E 16 b1 0b 33
        E 16 b1 0b 22
        E 16 b1 0b 19
        E 48 b1 0c 20
        E 0 b1 0b 4c
        E 16 b1 0c 40
        E 0 b1 0b 3b
        E 16 b1 0b 33
        E 16 b1 0b 2a
        E 16 b1 0b 22
        E 16 b1 0b 19
        E 16 b1 0b 08
        E 16 b1 0b 33
        E 16 b1 0b 22
        E 16 b1 0b 19
        E 48 b1 0c 20
        E 0 b1 0b 4c
        E 16 b1 0c 40
        E 0 b1 0b 3b
        E 16 b1 0b 33
        E 16 b1 0b 2a
        E 16 b1 0b 22
        E 16 b1 0b 19
        E 16 b1 0b 08
        E 16 b1 0b 33
        E 16 b1 0b 22
        E 16 b1 0b 19
        E 48 b1 0c 20
        E 0 b1 0b 4c
        E 0 81 32 00
        E 0 91 6b 4c
        E 16 b1 0c 40
        E 0 b1 0b 3b
        E 16 b1 0b 33
        E 16 b1 0b 2a
        E 16 b1 0b 22
        E 16 b1 0b 19
        E 16 b1 0b 08
        E 16 b1 0b 33
        E 16 b1 0b 22
        E 16 b1 0b 19
        E 48 b1 0c 20
        E 0 b1 0b 4c
        E 16 b1 0c 40
        E 0 b1 0b 3b
        E 16 b1 0b 33
        E 16 b1 0b 2a
        E 16 b1 0b 22
        E 16 b1 0b 19
        E 16 b1 0b 08
        E 16 b1 0b 33
        E 16 b1 0b 22
        E 16 b1 0b 19
        E 48 81 6b 00
        E 192 b1 0c 20
        E 0 b1 0b 44
        E 0 91 2d 44
        E 16 b1 0c 10
        E 0 b1 0b 3b
        E 16 b1 0b 33
        E 304 b1 0b 08
        E 48 b1 0c 20
        E 0 b1 0b 44
        E 0 81 2d 00
        E 0 91 5e 44
        E 16 b1 0c 10
        E 0 b1 0b 3b
        E 16 b1 0b 33
        E 304 b1 0b 08
        E 48 b1 0c 20
        E 0 b1 0b 44
        E 16 b1 0c 10
        E 0 b1 0b 3b
        E 16 b1 0b 33
        E 224 b1 0b 08
        E 32 b1 0c 20
        E 0 b1 0b 44
        E 0 81 5e 00
        E 0 91 2e 44
        E 16 b1 0c 10
        E 0 b1 0b 3b
        E 16 b1 0b 33
        E 64 b1 0c 20
        E 0 b1 0b 4c
        E 0 81 2e 00
        E 0 91 5e 4c
        E 16 b1 0c 10
        E 0 b1 0b 3b
        E 16 b1 0b 33
        E 16 b1 0b 2a
        E 16 b1 0b 22
        E 16 b1 0b 19
        E 16 b1 0b 08
        E 16 b1 0b 33
        E 16 b1 0b 22
        E 16 b1 0b 19
        E 48 b1 0c 20
        E 0 b1 0b 4c
        E 0 81 5e 00
        E 0 91 2d 4c
        E 16 b1 0c 10
        E 0 b1 0b 3b
        E 16 b1 0b 33
        E 16 b1 0b 2a
        E 16 b1 0b 22
        E 16 b1 0b 19
        E 16 b1 0b 08
        E 16 b1 0b 33
        E 16 b1 0b 22
        E 16 b1 0b 19
        E 48 b1 0c 20
        E 0 b1 0b 4c
        E 16 b1 0c 10
        E 0 b1 0b 3b
        E 16 b1 0b 33
        E 16 b1 0b 2a
        E 16 b1 0b 22
        E 16 b1 0b 19
        E 16 b1 0b 08
        E 16 b1 0b 33
        E 16 b1 0b 22
        E 16 b1 0b 19
        E 48 b1 0c 20
        E 0 b1 0b 4c
        E 16 b1 0c 10
        E 0 b1 0b 3b
        E 16 b1 0b 33
        E 16 b1 0b 2a
        E 16 b1 0b 22
        E 16 b1 0b 19
        E 16 b1 0b 08
        E 16 b1 0b 33
        E 16 b1 0b 22
        E 16 b1 0b 19
        E 48 b1 0c 20
        E 0 b1 0b 4c
        E 16 b1 0c 10
        E 0 b1 0b 3b
        E 16 b1 0b 33
        E 16 b1 0b 2a
        E 16 b1 0b 22
        E 16 b1 0b 19
        E 16 b1 0b 08
        E 16 b1 0b 33
        E 16 b1 0b 22
        E 16 b1 0b 19
        E 48 b1 0c 20
        E 0 b1 0b 4c
        E 16 b1 0c 10
        E 0 b1 0b 3b
        E 16 b1 0b 33
        E 16 b1 0b 2a
        E 16 b1 0b 22
        E 16 b1 0b 19
        E 16 b1 0b 08
        E 16 b1 0b 33
        E 16 b1 0b 22
        E 16 b1 0b 19
        E 48 b1 0c 20
        E 0 b1 0b 4c
        E 16 b1 0c 10
        E 0 b1 0b 3b
        E 16 b1 0b 33
        E 16 b1 0b 2a
        E 16 b1 0b 22
        E 16 b1 0b 19
        E 16 b1 0b 08
        E 16 b1 0b 33
        E 16 b1 0b 22
        E 16 b1 0b 19
        E 48 b1 0c 20
        E 0 b1 0b 4c
        E 16 b1 0c 10
        E 0 b1 0b 3b
        E 16 b1 0b 33
        E 16 b1 0b 2a
        E 16 b1 0b 22
        E 16 b1 0b 19
        E 16 b1 0b 08
        E 16 b1 0b 33
        E 16 b1 0b 22
        E 16 b1 0b 19
        E 48 b1 0c 20
        E 0 b1 0b 44
        E 16 b1 0c 10
        E 0 b1 0b 3b
        E 16 b1 0b 33
        E 64 b1 0c 20
        E 0 b1 0b 44
        E 16 b1 0c 10
        E 0 b1 0b 3b
        E 16 b1 0b 33
        E 16 b1 0c 20
        E 0 b1 0b 44
        E 16 b1 0c 10
        E 0 b1 0b 3b
        E 16 b1 0b 33
        E 16 b1 0c 20
        E 0 b1 0b 44
        E 16 b1 0c 10
        E 0 b1 0b 3b
        E 16 b1 0b 33
        E 16 b1 0c 20
        E 0 b1 0b 44
        E 16 b1 0c 10
        E 0 b1 0b 3b
        E 16 b1 0b 33
        E 16 b1 0c 20
        E 0 b1 0b 44
        E 0 81 2d 00
        E 0 91 5e 44
        E 16 b1 0c 10
        E 0 b1 0b 3b
        E 16 b1 0b 33
        E 16 b1 0c 20
        E 0 b1 0b 44
        E 16 b1 0c 10
        E 0 b1 0b 3b
        E 16 b1 0b 33
        E 16 b1 0c 20
        E 0 b1 0b 4c
        E 16 b1 0c 10
        E 0 b1 0b 3b
        E 16 b1 0b 33
        E 16 b1 0b 2a
        E 16 b1 0b 22
        E 16 b1 0b 19
        E 16 b1 0b 08
        E 16 b1 0b 33
        E 16 b1 0b 22
        E 16 b1 0b 19
        E 48 b1 0b 4c
        E 0 81 5e 00
        E 0 91 2e 4c
        E 16 b1 0b 3b
        E 16 b1 0b 33
        E 16 b1 0b 2a
        E 16 b1 0b 22
        E 16 b1 0b 19
        E 16 b1 0b 08
        E 16 b1 0b 33
        E 16 b1 0b 22
        E 16 b1 0b 19
        E 48 b1 0b 44
        E 16 b1 0b 3b
        E 16 b1 0b 33
        E 192 b1 0c 40
        E 0 b1 0b 19
        E 64 b1 0c 10
        E 0 b1 0b 4c
        E 16 b1 0b 3b
        E 16 b1 0b 33
        E 16 b1 0b 2a
        E 16 b1 0b 22
        E 16 b1 0b 19
        E 16 b1 0b 4c
        E 16 b1 0b 3b
        E 16 b1 0b 33
        E 16 b1 0b 2a
        E 16 b1 0b 22
        E 16 b1 0b 19
        E 16 b1 0b 08
        E 16 b1 0b 33
        E 16 b1 0b 22
        E 16 b1 0b 19
        E 48 b1 0b 4c
        E 16 b1 0b 3b
        E 16 b1 0b 33
        E 16 b1 0b 2a
        E 16 b1 0b 22
        E 16 b1 0b 19
        E 16 b1 0b 08
        E 16 b1 0b 33
        E 16 b1 0b 22
        E 16 b1 0b 19
        E 48 b1 0b 4c
        E 16 b1 0b 3b
        E 16 b1 0b 33
        E 16 b1 0b 2a
        E 16 b1 0b 22
        E 16 b1 0b 19
        E 16 b1 0b 08
        E 16 b1 0b 33
        E 16 b1 0b 22
        E 16 b1 0b 19
        E 48 b1 0b 4c
        E 16 b1 0b 3b
        E 16 b1 0b 33
        E 16 b1 0b 2a
        E 16 b1 0b 22
        E 16 b1 0b 19
        E 16 b1 0b 08
        E 16 b1 0b 33
        E 16 b1 0b 22
        E 16 b1 0b 19
        E 48 b1 0b 4c
        E 16 b1 0b 3b
        E 16 b1 0b 33
        E 16 b1 0b 2a
        E 16 b1 0b 22
        E 16 b1 0b 19
        E 16 b1 0b 08
        E 16 b1 0b 33
        E 16 b1 0b 22
        E 16 b1 0b 19
        E 48 b1 0b 4c
        E 16 b1 0b 3b
        E 16 b1 0b 33
        E 16 b1 0b 2a
        E 16 b1 0b 22
        E 16 b1 0b 19
        E 16 b1 0b 08
        E 16 b1 0b 33
        E 16 b1 0b 22
        E 16 b1 0b 19
        E 48 b1 0b 4c
        E 16 b1 0b 3b
        E 16 b1 0b 33
        E 16 b1 0b 2a
        E 16 b1 0b 22
        E 16 b1 0b 19
        E 16 b1 0b 08
        E 16 b1 0b 33
        E 16 b1 0b 22
        E 16 b1 0b 19
        E 48 b1 0b 4c
        E 16 b1 0b 3b
        E 16 b1 0b 33
        E 16 b1 0b 2a
        E 16 b1 0b 22
        E 16 b1 0b 19
        E 16 b1 0b 08
        E 16 b1 0b 33
        E 16 b1 0b 22
        E 16 b1 0b 19
        E 48 b1 0b 4c
        E 0 81 2e 00
        E 0 91 6b 4c
        E 16 b1 0b 3b
        E 16 b1 0b 33
        E 16 b1 0b 2a
        E 16 b1 0b 22
        E 16 b1 0b 19
        E 16 b1 0b 08
        E 16 b1 0b 33
        E 16 b1 0b 22
        E 16 b1 0b 19
        E 48 b1 0b 4c
        E 0 81 6b 00
        E 0 91 2d 4c
        E 16 b1 0b 3b
        E 16 b1 0b 33
        E 16 b1 0b 2a
        E 16 b1 0b 22
        E 16 b1 0b 19
        E 16 b1 0b 08
        E 16 b1 0b 33
        E 16 b1 0b 22
        E 16 b1 0b 19
        E 48 b1 0b 4c
        E 0 81 2d 00
        E 0 91 56 4c
        E 16 b1 0b 3b
        E 16 b1 0b 33
        E 16 b1 0b 2a
        E 16 b1 0b 22
        E 16 b1 0b 19
        E 16 b1 0b 08
        E 16 b1 0b 33
        E 16 b1 0b 22
        E 16 b1 0b 19
        E 48 81 56 00
        E 384 b1 0c 20
        E 0 b1 0b 4c
        E 0 91 2e 4c
        E 16 b1 0c 10
        E 0 b1 0b 3b
        E 16 b1 0b 33
        E 16 b1 0b 2a
        E 16 b1 0b 22
        E 16 b1 0b 19
        E 16 b1 0b 08
        E 16 b1 0b 33
        E 16 b1 0b 22
        E 16 b1 0b 19
        E 48 b1 0c 20
        E 0 b1 0b 44
        E 0 81 2e 00
        E 0 91 27 44
        E 16 b1 0c 10
        E 0 b1 0b 3b
        E 16 b1 0b 33
        E 160 b1 0c 20
        E 0 b1 0b 4c
        E 0 81 27 00
        E 0 91 37 4c
        E 16 b1 0c 10
        E 0 b1 0b 3b
        E 16 b1 0b 33
        E 16 b1 0b 2a
        E 16 b1 0b 22
        E 16 b1 0b 19
        E 16 b1 0b 08
        E 16 b1 0b 33
        E 16 b1 0b 22
        E 16 b1 0b 19
        E 48 81 37 00
        E 192 b1 0c 20
        E 0 b1 0b 4c
        E 0 91 3d 4c
        E 16 b1 0c 10
        E 0 b1 0b 3b
        E 16 b1 0b 33
        E 16 b1 0b 2a
        E 16 b1 0b 22
        E 16 b1 0b 19
        E 16 b1 0b 08
        E 16 b1 0b 33
        E 16 b1 0b 22
        E 16 b1 0b 19
        E 48 b1 0c 20
        E 0 b1 0b 44
        E 16 b1 0c 10
        E 0 b1 0b 3b
        E 16 b1 0b 33
        E 96 81 3d 00
        E 0 b1 7b 00
        E 0 ff 2f 00
      >
    >
  >
  <TRACK {97B26FA5-13A2-424A-A7DA-0AA03F96003A}
    NAME "NES - Triangle [ch2]"
    PEAKCOL 16744192
    BEAT -1
    AUTOMODE 0
    PANLAWFLAGS 3
    VOLPAN 1 0 -1 -1 1
    MUTESOLO 0 0 0
    IPHASE 0
    PLAYOFFS 0 1
    ISBUS 0 0
    BUSCOMP 0 0 0 0 0
    SHOWINMIX 1 0.6667 0.5 1 0.5 0 0 0
    FIXEDLANES 9 0 0 0 0
    SEL 0
    REC 0 5088 1 0 0 0 0 0
    VU 2
    TRACKHEIGHT 0 0 0 0 0 0 0
    INQ 0 0 0 0.5 100 0 0 100
    NCHAN 2
    FX 1
    TRACKID {97B26FA5-13A2-424A-A7DA-0AA03F96003A}
    PERF 0
    MIDIOUT -1
    MAINSEND 1 0
    <FXCHAIN
      WNDRECT 24 52 700 560
      SHOW 0
      LASTSEL 0
      DOCKED 0
      BYPASS 0 0 0
      <JS "ReapNES Studio/ReapNES_Console.jsfx" ""
        2 15 1 10 80 10 100 2 1 15 1 5 60 10 80 1 1 0 50 0 0 15 1 0 100 0 0 0.500000 0.500000 0.400000 0.300000 0.800000 2 1 0 0 0 0 - - - - - - - - - - - - - - - - - - - - - - - - - -
      >
      FLOATPOS 0 0 0 0
      FXID {C61EBB18-AAFC-4C16-9B0E-DE7432238462}
      WAK 0 0
    >
    <ITEM
      POSITION 0
      LENGTH 63.01710920000001
      LOOP 0
      ALLTAKES 0
      FADEIN 0 0 0 0 0 0 0
      FADEOUT 0 0 0 0 0 0 0
      MUTE 0 0
      SEL 0
      IGUID {311851B8-92D3-4A47-AC02-F632943BC0F1}
      <SOURCE MIDI
        HASDATA 1 480 QN
        CCINTERP 32
        E 0 c2 26
        E 192 b2 0b 7f
        E 0 92 2f 7f
        E 96 82 2f 00
        E 96 b2 0b 7f
        E 0 92 2e 7f
        E 96 82 2e 00
        E 96 b2 0b 7f
        E 0 92 21 7f
        E 96 82 21 00
        E 96 b2 0b 7f
        E 0 92 2c 7f
        E 96 82 2c 00
        E 96 b2 0b 7f
        E 0 92 2b 7f
        E 96 82 2b 00
        E 96 b2 0b 7f
        E 0 92 2a 7f
        E 96 82 2a 00
        E 96 b2 0b 7f
        E 0 92 29 7f
        E 96 82 29 00
        E 96 b2 0b 7f
        E 0 92 28 7f
        E 96 82 28 00
        E 96 b2 0b 7f
        E 0 92 27 7f
        E 96 82 27 00
        E 96 b2 0b 7f
        E 0 92 26 7f
        E 96 82 26 00
        E 96 b2 0b 7f
        E 0 92 25 7f
        E 96 82 25 00
        E 96 b2 0b 7f
        E 0 92 24 7f
        E 192 82 24 00
        E 192 b2 0b 7f
        E 0 92 31 7f
        E 96 82 31 00
        E 0 b2 0b 7f
        E 0 92 2f 7f
        E 16 82 2f 00
        E 0 b2 0b 7f
        E 0 92 2e 7f
        E 16 82 2e 00
        E 0 b2 0b 7f
        E 0 92 21 7f
        E 16 82 21 00
        E 0 b2 0b 7f
        E 0 92 2c 7f
        E 16 82 2c 00
        E 0 b2 0b 7f
        E 0 92 2b 7f
        E 16 82 2b 00
        E 0 b2 0b 7f
        E 0 92 2a 7f
        E 16 82 2a 00
        E 0 b2 0b 7f
        E 0 92 29 7f
        E 16 82 29 00
        E 0 b2 0b 7f
        E 0 92 28 7f
        E 16 82 28 00
        E 0 b2 0b 7f
        E 0 92 27 7f
        E 16 82 27 00
        E 0 b2 0b 7f
        E 0 92 26 7f
        E 16 82 26 00
        E 0 b2 0b 7f
        E 0 92 25 7f
        E 16 82 25 00
        E 0 b2 0b 7f
        E 0 92 24 7f
        E 16 82 24 00
        E 0 b2 0b 7f
        E 0 92 23 7f
        E 16 82 23 00
        E 0 b2 0b 7f
        E 0 92 22 7f
        E 16 82 22 00
        E 0 b2 0b 7f
        E 0 92 1a 7f
        E 16 82 1a 00
        E 0 b2 0b 7f
        E 0 92 20 7f
        E 16 82 20 00
        E 0 b2 0b 7f
        E 0 92 1f 7f
        E 16 82 1f 00
        E 0 b2 0b 7f
        E 0 92 1e 7f
        E 16 82 1e 00
        E 0 b2 0b 7f
        E 0 92 1d 7f
        E 128 82 1d 00
        E 64 b2 0b 7f
        E 0 92 24 7f
        E 64 82 24 00
        E 32 b2 0b 7f
        E 0 92 28 7f
        E 64 82 28 00
        E 32 b2 0b 7f
        E 0 92 28 7f
        E 128 82 28 00
        E 64 b2 0b 7f
        E 0 92 31 7f
        E 64 82 31 00
        E 32 b2 0b 7f
        E 0 92 2f 7f
        E 64 82 2f 00
        E 32 b2 0b 7f
        E 0 92 1b 7f
        E 128 82 1b 00
        E 64 b2 0b 7f
        E 0 92 27 7f
        E 64 82 27 00
        E 32 b2 0b 7f
        E 0 92 2a 7f
        E 64 82 2a 00
        E 32 b2 0b 7f
        E 0 92 2a 7f
        E 128 82 2a 00
        E 64 b2 0b 7f
        E 0 92 31 7f
        E 64 82 31 00
        E 32 b2 0b 7f
        E 0 92 2f 7f
        E 64 82 2f 00
        E 32 b2 0b 7f
        E 0 92 1b 7f
        E 128 82 1b 00
        E 64 b2 0b 7f
        E 0 92 24 7f
        E 64 82 24 00
        E 32 b2 0b 7f
        E 0 92 28 7f
        E 64 82 28 00
        E 32 b2 0b 7f
        E 0 92 28 7f
        E 128 82 28 00
        E 64 b2 0b 7f
        E 0 92 31 7f
        E 64 82 31 00
        E 32 b2 0b 7f
        E 0 92 2f 7f
        E 64 82 2f 00
        E 32 b2 0b 7f
        E 0 92 1b 7f
        E 128 82 1b 00
        E 64 b2 0b 7f
        E 0 92 27 7f
        E 64 82 27 00
        E 32 b2 0b 7f
        E 0 92 2a 7f
        E 64 82 2a 00
        E 32 b2 0b 7f
        E 0 92 2a 7f
        E 128 82 2a 00
        E 64 b2 0b 7f
        E 0 92 31 7f
        E 64 82 31 00
        E 32 b2 0b 7f
        E 0 92 2f 7f
        E 64 82 2f 00
        E 32 b2 0b 7f
        E 0 92 1b 7f
        E 128 82 1b 00
        E 64 b2 0b 7f
        E 0 92 27 7f
        E 64 82 27 00
        E 32 b2 0b 7f
        E 0 92 2a 7f
        E 64 82 2a 00
        E 32 b2 0b 7f
        E 0 92 2a 7f
        E 128 82 2a 00
        E 64 b2 0b 7f
        E 0 92 31 7f
        E 64 82 31 00
        E 32 b2 0b 7f
        E 0 92 2f 7f
        E 64 82 2f 00
        E 32 b2 0b 7f
        E 0 92 1b 7f
        E 128 82 1b 00
        E 64 b2 0b 7f
        E 0 92 27 7f
        E 64 82 27 00
        E 32 b2 0b 7f
        E 0 92 2a 7f
        E 64 82 2a 00
        E 32 b2 0b 7f
        E 0 92 2a 7f
        E 128 82 2a 00
        E 64 b2 0b 7f
        E 0 92 31 7f
        E 64 82 31 00
        E 32 b2 0b 7f
        E 0 92 2f 7f
        E 64 82 2f 00
        E 32 b2 0b 7f
        E 0 92 1b 7f
        E 128 82 1b 00
        E 64 b2 0b 7f
        E 0 92 27 7f
        E 64 82 27 00
        E 32 b2 0b 7f
        E 0 92 2a 7f
        E 64 82 2a 00
        E 32 b2 0b 7f
        E 0 92 2a 7f
        E 128 82 2a 00
        E 64 b2 0b 7f
        E 0 92 31 7f
        E 64 82 31 00
        E 32 b2 0b 7f
        E 0 92 2f 7f
        E 64 82 2f 00
        E 32 b2 0b 7f
        E 0 92 1b 7f
        E 192 82 1b 00
        E 192 b2 0b 7f
        E 0 92 1c 7f
        E 288 82 1c 00
        E 0 b2 0b 7f
        E 0 92 1b 7f
        E 32 82 1b 00
        E 0 b2 0b 7f
        E 0 92 1d 7f
        E 32 82 1d 00
        E 0 b2 0b 7f
        E 0 92 1e 7f
        E 32 82 1e 00
        E 0 b2 0b 7f
        E 0 92 1f 7f
        E 128 82 1f 00
        E 64 b2 0b 7f
        E 0 92 2b 7f
        E 64 82 2b 00
        E 32 b2 0b 7f
        E 0 92 2c 7f
        E 64 82 2c 00
        E 32 b2 0b 7f
        E 0 92 20 7f
        E 128 82 20 00
        E 64 b2 0b 7f
        E 0 92 23 7f
        E 64 82 23 00
        E 32 b2 0b 7f
        E 0 92 27 7f
        E 64 82 27 00
        E 32 b2 0b 7f
        E 0 92 27 7f
        E 128 82 27 00
        E 64 b2 0b 7f
        E 0 92 2f 7f
        E 64 82 2f 00
        E 32 b2 0b 7f
        E 0 92 2e 7f
        E 64 82 2e 00
        E 32 b2 0b 7f
        E 0 92 1a 7f
        E 128 82 1a 00
        E 64 b2 0b 7f
        E 0 92 23 7f
        E 64 82 23 00
        E 32 b2 0b 7f
        E 0 92 27 7f
        E 64 82 27 00
        E 32 b2 0b 7f
        E 0 92 1e 7f
        E 128 82 1e 00
        E 64 b2 0b 7f
        E 0 92 2b 7f
        E 64 82 2b 00
        E 32 b2 0b 7f
        E 0 92 2c 7f
        E 64 82 2c 00
        E 32 b2 0b 7f
        E 0 92 20 7f
        E 128 82 20 00
        E 64 b2 0b 7f
        E 0 92 23 7f
        E 64 82 23 00
        E 32 b2 0b 7f
        E 0 92 27 7f
        E 64 82 27 00
        E 32 b2 0b 7f
        E 0 92 27 7f
        E 128 82 27 00
        E 64 b2 0b 7f
        E 0 92 2f 7f
        E 64 82 2f 00
        E 32 b2 0b 7f
        E 0 92 2e 7f
        E 64 82 2e 00
        E 32 b2 0b 7f
        E 0 92 1a 7f
        E 128 82 1a 00
        E 64 b2 0b 7f
        E 0 92 23 7f
        E 64 82 23 00
        E 32 b2 0b 7f
        E 0 92 27 7f
        E 64 82 27 00
        E 32 b2 0b 7f
        E 0 92 1e 7f
        E 128 82 1e 00
        E 64 b2 0b 7f
        E 0 92 2b 7f
        E 64 82 2b 00
        E 32 b2 0b 7f
        E 0 92 2c 7f
        E 64 82 2c 00
        E 32 b2 0b 7f
        E 0 92 2c 7f
        E 128 82 2c 00
        E 64 b2 0b 7f
        E 0 92 2d 7f
        E 64 82 2d 00
        E 32 b2 0b 7f
        E 0 92 2d 7f
        E 64 82 2d 00
        E 32 b2 0b 7f
        E 0 92 21 7f
        E 128 82 21 00
        E 64 b2 0b 7f
        E 0 92 2f 7f
        E 64 82 2f 00
        E 32 b2 0b 7f
        E 0 92 2e 7f
        E 64 82 2e 00
        E 32 b2 0b 7f
        E 0 92 21 7f
        E 128 82 21 00
        E 64 b2 0b 7f
        E 0 92 34 7f
        E 64 82 34 00
        E 32 b2 0b 7f
        E 0 92 30 7f
        E 64 82 30 00
        E 32 b2 0b 7f
        E 0 92 1b 7f
        E 128 82 1b 00
        E 64 b2 0b 7f
        E 0 92 26 7f
        E 64 82 26 00
        E 32 b2 0b 7f
        E 0 92 29 7f
        E 64 82 29 00
        E 32 b2 0b 7f
        E 0 92 29 7f
        E 128 82 29 00
        E 64 b2 0b 7f
        E 0 92 2f 7f
        E 64 82 2f 00
        E 32 b2 0b 7f
        E 0 92 2e 7f
        E 64 82 2e 00
        E 32 b2 0b 7f
        E 0 92 1a 7f
        E 192 82 1a 00
        E 192 b2 0b 7f
        E 0 92 1b 7f
        E 256 82 1b 00
        E 0 b2 0b 7f
        E 0 92 1f 7f
        E 32 82 1f 00
        E 0 b2 0b 7f
        E 0 92 2b 7f
        E 32 82 2b 00
        E 0 b2 0b 7f
        E 0 92 21 7f
        E 32 82 21 00
        E 0 b2 0b 7f
        E 0 92 22 7f
        E 32 82 22 00
        E 0 b2 0b 7f
        E 0 92 23 7f
        E 288 82 23 00
        E 96 b2 0b 7f
        E 0 92 24 7f
        E 224 82 24 00
        E 64 b2 0b 7f
        E 0 92 1c 7f
        E 80 82 1c 00
        E 16 b2 0b 7f
        E 0 92 29 7f
        E 96 82 29 00
        E 96 b2 0b 7f
        E 0 92 1a 7f
        E 96 82 1a 00
        E 96 b2 0b 7f
        E 0 92 1f 7f
        E 96 82 1f 00
        E 96 b2 0b 7f
        E 0 92 1f 7f
        E 96 82 1f 00
        E 96 b2 0b 7f
        E 0 92 1d 7f
        E 96 82 1d 00
        E 96 b2 0b 7f
        E 0 92 1c 7f
        E 96 82 1c 00
        E 96 b2 0b 7f
        E 0 92 1f 7f
        E 96 82 1f 00
        E 96 b2 0b 7f
        E 0 92 1a 7f
        E 96 82 1a 00
        E 96 b2 0b 7f
        E 0 92 19 7f
        E 96 82 19 00
        E 0 b2 0b 7f
        E 0 92 1e 7f
        E 48 82 1e 00
        E 0 b2 0b 7f
        E 0 92 1a 7f
        E 48 82 1a 00
        E 0 b2 0b 7f
        E 0 92 1c 7f
        E 48 82 1c 00
        E 0 b2 0b 7f
        E 0 92 1d 7f
        E 48 82 1d 00
        E 0 b2 0b 7f
        E 0 92 29 7f
        E 48 82 29 00
        E 0 b2 0b 7f
        E 0 92 21 7f
        E 48 82 21 00
        E 0 b2 0b 7f
        E 0 92 23 7f
        E 96 82 23 00
        E 96 b2 0b 7f
        E 0 92 16 7f
        E 96 82 16 00
        E 96 b2 0b 7f
        E 0 92 1e 7f
        E 400 82 1e 00
        E 176 b2 0b 7f
        E 0 92 29 7f
        E 192 82 29 00
        E 0 b2 0b 7f
        E 0 92 52 7f
        E 96 82 52 00
        E 96 b2 0b 7f
        E 0 92 30 7f
        E 96 82 30 00
        E 96 b2 0b 7f
        E 0 92 2f 7f
        E 96 82 2f 00
        E 96 b2 0b 7f
        E 0 92 21 7f
        E 96 82 21 00
        E 96 b2 0b 7f
        E 0 92 2b 7f
        E 96 82 2b 00
        E 96 b2 0b 7f
        E 0 92 2a 7f
        E 96 82 2a 00
        E 96 b2 0b 7f
        E 0 92 28 7f
        E 96 82 28 00
        E 96 b2 0b 7f
        E 0 92 27 7f
        E 96 82 27 00
        E 96 b2 0b 7f
        E 0 92 25 7f
        E 144 82 25 00
        E 240 b2 0b 7f
        E 0 92 23 7f
        E 224 82 23 00
        E 0 b2 0b 7f
        E 0 92 22 7f
        E 32 82 22 00
        E 0 b2 0b 7f
        E 0 92 1a 7f
        E 32 82 1a 00
        E 0 b2 0b 7f
        E 0 92 20 7f
        E 32 82 20 00
        E 0 b2 0b 7f
        E 0 92 1f 7f
        E 32 82 1f 00
        E 0 b2 0b 7f
        E 0 92 1e 7f
        E 32 82 1e 00
        E 0 b2 0b 7f
        E 0 92 1f 7f
        E 128 82 1f 00
        E 64 b2 0b 7f
        E 0 92 24 7f
        E 64 82 24 00
        E 32 b2 0b 7f
        E 0 92 28 7f
        E 64 82 28 00
        E 32 b2 0b 7f
        E 0 92 28 7f
        E 128 82 28 00
        E 64 b2 0b 7f
        E 0 92 31 7f
        E 64 82 31 00
        E 32 b2 0b 7f
        E 0 92 2f 7f
        E 64 82 2f 00
        E 32 b2 0b 7f
        E 0 92 1b 7f
        E 128 82 1b 00
        E 64 b2 0b 7f
        E 0 92 27 7f
        E 64 82 27 00
        E 32 b2 0b 7f
        E 0 92 2a 7f
        E 64 82 2a 00
        E 32 b2 0b 7f
        E 0 92 2a 7f
        E 128 82 2a 00
        E 64 b2 0b 7f
        E 0 92 31 7f
        E 64 82 31 00
        E 32 b2 0b 7f
        E 0 92 2f 7f
        E 64 82 2f 00
        E 32 b2 0b 7f
        E 0 92 22 7f
        E 96 82 22 00
        E 96 b2 0b 7f
        E 0 92 28 7f
        E 96 82 28 00
        E 96 b2 0b 7f
        E 0 92 27 7f
        E 96 82 27 00
        E 96 b2 0b 7f
        E 0 92 25 7f
        E 96 82 25 00
        E 96 b2 0b 7f
        E 0 92 1b 7f
        E 128 82 1b 00
        E 64 b2 0b 7f
        E 0 92 27 7f
        E 64 82 27 00
        E 32 b2 0b 7f
        E 0 92 2a 7f
        E 64 82 2a 00
        E 32 b2 0b 7f
        E 0 92 2a 7f
        E 128 82 2a 00
        E 64 b2 0b 7f
        E 0 92 31 7f
        E 64 82 31 00
        E 32 b2 0b 7f
        E 0 92 2f 7f
        E 64 82 2f 00
        E 32 b2 0b 7f
        E 0 92 1b 7f
        E 192 82 1b 00
        E 96 b2 0b 7f
        E 0 92 24 7f
        E 48 82 24 00
        E 48 b2 0b 7f
        E 0 92 28 7f
        E 96 82 28 00
        E 96 b2 0b 7f
        E 0 92 28 7f
        E 96 82 28 00
        E 96 b2 0b 7f
        E 0 92 5f 7f
        E 96 82 5f 00
        E 96 b2 0b 7f
        E 0 92 21 7f
        E 96 82 21 00
        E 96 b2 0b 7f
        E 0 92 2b 7f
        E 96 82 2b 00
        E 96 b2 0b 7f
        E 0 92 5f 7f
        E 96 82 5f 00
        E 96 b2 0b 7f
        E 0 92 2e 7f
        E 144 82 2e 00
        E 240 b2 0b 7f
        E 0 92 30 7f
        E 144 82 30 00
        E 240 b2 0b 7f
        E 0 92 22 7f
        E 144 82 22 00
        E 240 b2 0b 7f
        E 0 92 28 7f
        E 192 82 28 00
        E 96 b2 0b 7f
        E 0 92 28 7f
        E 48 82 28 00
        E 48 b2 0b 7f
        E 0 92 23 7f
        E 96 82 23 00
        E 96 b2 0b 7f
        E 0 92 25 7f
        E 96 82 25 00
        E 96 b2 0b 7f
        E 0 92 23 7f
        E 96 82 23 00
        E 96 b2 0b 7f
        E 0 92 23 7f
        E 96 82 23 00
        E 96 b2 0b 7f
        E 0 92 1a 7f
        E 96 82 1a 00
        E 96 b2 0b 7f
        E 0 92 2b 7f
        E 96 82 2b 00
        E 96 b2 0b 7f
        E 0 92 1b 7f
        E 96 82 1b 00
        E 96 b2 0b 7f
        E 0 92 27 7f
        E 96 82 27 00
        E 96 b2 0b 7f
        E 0 92 1b 7f
        E 208 82 1b 00
        E 0 b2 0b 7f
        E 0 92 1c 7f
        E 16 82 1c 00
        E 0 b2 0b 7f
        E 0 92 1b 7f
        E 16 82 1b 00
        E 0 b2 0b 7f
        E 0 92 15 7f
        E 16 82 15 00
        E 0 b2 0b 7f
        E 0 92 19 7f
        E 32 82 19 00
        E 0 b2 0b 7f
        E 0 92 18 7f
        E 32 82 18 00
        E 0 b2 0b 7f
        E 0 92 17 7f
        E 32 82 17 00
        E 0 b2 0b 7f
        E 0 92 16 7f
        E 32 82 16 00
        E 0 b2 0b 7f
        E 0 92 11 7f
        E 32 82 11 00
        E 0 b2 0b 7f
        E 0 92 14 7f
        E 32 82 14 00
        E 0 b2 0b 7f
        E 0 92 13 7f
        E 32 82 13 00
        E 0 b2 0b 7f
        E 0 92 0f 7f
        E 32 82 0f 00
        E 0 b2 0b 7f
        E 0 92 11 7f
        E 96 82 11 00
        E 12640 b2 0b 7f
        E 0 92 41 7f
        E 96 82 41 00
        E 96 b2 0b 7f
        E 0 92 2f 7f
        E 96 82 2f 00
        E 96 b2 0b 7f
        E 0 92 2e 7f
        E 96 82 2e 00
        E 96 b2 0b 7f
        E 0 92 21 7f
        E 96 82 21 00
        E 96 b2 0b 7f
        E 0 92 2c 7f
        E 96 82 2c 00
        E 96 b2 0b 7f
        E 0 92 2b 7f
        E 96 82 2b 00
        E 96 b2 0b 7f
        E 0 92 2a 7f
        E 96 82 2a 00
        E 96 b2 0b 7f
        E 0 92 29 7f
        E 96 82 29 00
        E 96 b2 0b 7f
        E 0 92 28 7f
        E 96 82 28 00
        E 96 b2 0b 7f
        E 0 92 27 7f
        E 96 82 27 00
        E 96 b2 0b 7f
        E 0 92 26 7f
        E 96 82 26 00
        E 96 b2 0b 7f
        E 0 92 25 7f
        E 96 82 25 00
        E 96 b2 0b 7f
        E 0 92 24 7f
        E 192 82 24 00
        E 192 b2 0b 7f
        E 0 92 31 7f
        E 96 82 31 00
        E 0 b2 0b 7f
        E 0 92 2f 7f
        E 16 82 2f 00
        E 0 b2 0b 7f
        E 0 92 2e 7f
        E 16 82 2e 00
        E 0 b2 0b 7f
        E 0 92 21 7f
        E 16 82 21 00
        E 0 b2 0b 7f
        E 0 92 2c 7f
        E 16 82 2c 00
        E 0 b2 0b 7f
        E 0 92 2b 7f
        E 16 82 2b 00
        E 0 b2 0b 7f
        E 0 92 2a 7f
        E 16 82 2a 00
        E 0 b2 0b 7f
        E 0 92 29 7f
        E 16 82 29 00
        E 0 b2 0b 7f
        E 0 92 28 7f
        E 16 82 28 00
        E 0 b2 0b 7f
        E 0 92 27 7f
        E 16 82 27 00
        E 0 b2 0b 7f
        E 0 92 26 7f
        E 16 82 26 00
        E 0 b2 0b 7f
        E 0 92 25 7f
        E 16 82 25 00
        E 0 b2 0b 7f
        E 0 92 24 7f
        E 16 82 24 00
        E 0 b2 0b 7f
        E 0 92 23 7f
        E 16 82 23 00
        E 0 b2 0b 7f
        E 0 92 22 7f
        E 16 82 22 00
        E 0 b2 0b 7f
        E 0 92 1a 7f
        E 16 82 1a 00
        E 0 b2 0b 7f
        E 0 92 20 7f
        E 16 82 20 00
        E 0 b2 0b 7f
        E 0 92 1f 7f
        E 16 82 1f 00
        E 0 b2 0b 7f
        E 0 92 1e 7f
        E 16 82 1e 00
        E 0 b2 0b 7f
        E 0 92 1d 7f
        E 128 82 1d 00
        E 64 b2 0b 7f
        E 0 92 24 7f
        E 64 82 24 00
        E 32 b2 0b 7f
        E 0 92 28 7f
        E 64 82 28 00
        E 32 b2 0b 7f
        E 0 92 28 7f
        E 128 82 28 00
        E 64 b2 0b 7f
        E 0 92 31 7f
        E 64 82 31 00
        E 32 b2 0b 7f
        E 0 92 2f 7f
        E 64 82 2f 00
        E 32 b2 0b 7f
        E 0 92 1b 7f
        E 128 82 1b 00
        E 64 b2 0b 7f
        E 0 92 27 7f
        E 64 82 27 00
        E 32 b2 0b 7f
        E 0 92 2a 7f
        E 64 82 2a 00
        E 32 b2 0b 7f
        E 0 92 2a 7f
        E 128 82 2a 00
        E 64 b2 0b 7f
        E 0 92 31 7f
        E 64 82 31 00
        E 32 b2 0b 7f
        E 0 92 2f 7f
        E 64 82 2f 00
        E 32 b2 0b 7f
        E 0 92 1b 7f
        E 128 82 1b 00
        E 64 b2 0b 7f
        E 0 92 24 7f
        E 64 82 24 00
        E 32 b2 0b 7f
        E 0 92 28 7f
        E 64 82 28 00
        E 32 b2 0b 7f
        E 0 92 28 7f
        E 128 82 28 00
        E 64 b2 0b 7f
        E 0 92 31 7f
        E 64 82 31 00
        E 32 b2 0b 7f
        E 0 92 2f 7f
        E 64 82 2f 00
        E 32 b2 0b 7f
        E 0 92 1b 7f
        E 128 82 1b 00
        E 64 b2 0b 7f
        E 0 92 27 7f
        E 64 82 27 00
        E 32 b2 0b 7f
        E 0 92 2a 7f
        E 64 82 2a 00
        E 32 b2 0b 7f
        E 0 92 2a 7f
        E 128 82 2a 00
        E 64 b2 0b 7f
        E 0 92 31 7f
        E 64 82 31 00
        E 32 b2 0b 7f
        E 0 92 2f 7f
        E 64 82 2f 00
        E 32 b2 0b 7f
        E 0 92 1b 7f
        E 128 82 1b 00
        E 64 b2 0b 7f
        E 0 92 27 7f
        E 64 82 27 00
        E 32 b2 0b 7f
        E 0 92 2a 7f
        E 64 82 2a 00
        E 32 b2 0b 7f
        E 0 92 2a 7f
        E 128 82 2a 00
        E 64 b2 0b 7f
        E 0 92 31 7f
        E 64 82 31 00
        E 32 b2 0b 7f
        E 0 92 2f 7f
        E 64 82 2f 00
        E 32 b2 0b 7f
        E 0 92 1b 7f
        E 128 82 1b 00
        E 64 b2 0b 7f
        E 0 92 27 7f
        E 64 82 27 00
        E 32 b2 0b 7f
        E 0 92 2a 7f
        E 64 82 2a 00
        E 32 b2 0b 7f
        E 0 92 2a 7f
        E 128 82 2a 00
        E 64 b2 0b 7f
        E 0 92 31 7f
        E 64 82 31 00
        E 32 b2 0b 7f
        E 0 92 2f 7f
        E 64 82 2f 00
        E 32 b2 0b 7f
        E 0 92 1b 7f
        E 128 82 1b 00
        E 64 b2 0b 7f
        E 0 92 27 7f
        E 64 82 27 00
        E 32 b2 0b 7f
        E 0 92 2a 7f
        E 64 82 2a 00
        E 32 b2 0b 7f
        E 0 92 2a 7f
        E 128 82 2a 00
        E 64 b2 0b 7f
        E 0 92 31 7f
        E 64 82 31 00
        E 32 b2 0b 7f
        E 0 92 2f 7f
        E 64 82 2f 00
        E 32 b2 0b 7f
        E 0 92 1b 7f
        E 192 82 1b 00
        E 192 b2 0b 7f
        E 0 92 1c 7f
        E 288 82 1c 00
        E 0 b2 0b 7f
        E 0 92 1b 7f
        E 32 82 1b 00
        E 0 b2 0b 7f
        E 0 92 1d 7f
        E 32 82 1d 00
        E 0 b2 0b 7f
        E 0 92 1e 7f
        E 32 82 1e 00
        E 0 b2 0b 7f
        E 0 92 1f 7f
        E 128 82 1f 00
        E 64 b2 0b 7f
        E 0 92 2b 7f
        E 64 82 2b 00
        E 32 b2 0b 7f
        E 0 92 2c 7f
        E 64 82 2c 00
        E 32 b2 0b 7f
        E 0 92 20 7f
        E 128 82 20 00
        E 64 b2 0b 7f
        E 0 92 23 7f
        E 64 82 23 00
        E 32 b2 0b 7f
        E 0 92 27 7f
        E 64 82 27 00
        E 32 b2 0b 7f
        E 0 92 27 7f
        E 128 82 27 00
        E 64 b2 0b 7f
        E 0 92 2f 7f
        E 64 82 2f 00
        E 32 b2 0b 7f
        E 0 92 2e 7f
        E 64 82 2e 00
        E 32 b2 0b 7f
        E 0 92 1a 7f
        E 128 82 1a 00
        E 64 b2 0b 7f
        E 0 92 23 7f
        E 64 82 23 00
        E 32 b2 0b 7f
        E 0 92 27 7f
        E 64 82 27 00
        E 32 b2 0b 7f
        E 0 92 1e 7f
        E 128 82 1e 00
        E 64 b2 0b 7f
        E 0 92 2b 7f
        E 64 82 2b 00
        E 32 b2 0b 7f
        E 0 92 2c 7f
        E 64 82 2c 00
        E 32 b2 0b 7f
        E 0 92 20 7f
        E 128 82 20 00
        E 64 b2 0b 7f
        E 0 92 23 7f
        E 64 82 23 00
        E 32 b2 0b 7f
        E 0 92 27 7f
        E 64 82 27 00
        E 32 b2 0b 7f
        E 0 92 27 7f
        E 128 82 27 00
        E 64 b2 0b 7f
        E 0 92 2f 7f
        E 64 82 2f 00
        E 32 b2 0b 7f
        E 0 92 2e 7f
        E 64 82 2e 00
        E 32 b2 0b 7f
        E 0 92 1a 7f
        E 128 82 1a 00
        E 64 b2 0b 7f
        E 0 92 23 7f
        E 64 82 23 00
        E 32 b2 0b 7f
        E 0 92 27 7f
        E 64 82 27 00
        E 32 b2 0b 7f
        E 0 92 1e 7f
        E 128 82 1e 00
        E 64 b2 0b 7f
        E 0 92 2b 7f
        E 64 82 2b 00
        E 32 b2 0b 7f
        E 0 92 2c 7f
        E 64 82 2c 00
        E 32 b2 0b 7f
        E 0 92 2c 7f
        E 128 82 2c 00
        E 64 b2 0b 7f
        E 0 92 2d 7f
        E 64 82 2d 00
        E 32 b2 0b 7f
        E 0 92 2d 7f
        E 64 82 2d 00
        E 32 b2 0b 7f
        E 0 92 21 7f
        E 128 82 21 00
        E 64 b2 0b 7f
        E 0 92 2f 7f
        E 64 82 2f 00
        E 32 b2 0b 7f
        E 0 92 2e 7f
        E 64 82 2e 00
        E 32 b2 0b 7f
        E 0 92 21 7f
        E 128 82 21 00
        E 64 b2 0b 7f
        E 0 92 34 7f
        E 64 82 34 00
        E 32 b2 0b 7f
        E 0 92 30 7f
        E 64 82 30 00
        E 32 b2 0b 7f
        E 0 92 1b 7f
        E 128 82 1b 00
        E 64 b2 0b 7f
        E 0 92 26 7f
        E 64 82 26 00
        E 32 b2 0b 7f
        E 0 92 29 7f
        E 64 82 29 00
        E 32 b2 0b 7f
        E 0 92 29 7f
        E 128 82 29 00
        E 64 b2 0b 7f
        E 0 92 2f 7f
        E 64 82 2f 00
        E 32 b2 0b 7f
        E 0 92 2e 7f
        E 64 82 2e 00
        E 32 b2 0b 7f
        E 0 92 1a 7f
        E 192 82 1a 00
        E 192 b2 0b 7f
        E 0 92 1b 7f
        E 256 82 1b 00
        E 0 b2 0b 7f
        E 0 92 1f 7f
        E 32 82 1f 00
        E 0 b2 0b 7f
        E 0 92 2b 7f
        E 32 82 2b 00
        E 0 b2 0b 7f
        E 0 92 21 7f
        E 32 82 21 00
        E 0 b2 0b 7f
        E 0 92 22 7f
        E 32 82 22 00
        E 0 b2 0b 7f
        E 0 92 23 7f
        E 288 82 23 00
        E 96 b2 0b 7f
        E 0 92 24 7f
        E 224 82 24 00
        E 64 b2 0b 7f
        E 0 92 1c 7f
        E 80 82 1c 00
        E 16 b2 0b 7f
        E 0 92 29 7f
        E 96 82 29 00
        E 96 b2 0b 7f
        E 0 92 1a 7f
        E 96 82 1a 00
        E 96 b2 0b 7f
        E 0 92 1f 7f
        E 96 82 1f 00
        E 96 b2 0b 7f
        E 0 92 1f 7f
        E 96 82 1f 00
        E 96 b2 0b 7f
        E 0 92 1d 7f
        E 96 82 1d 00
        E 96 b2 0b 7f
        E 0 92 1c 7f
        E 96 82 1c 00
        E 96 b2 0b 7f
        E 0 92 1f 7f
        E 96 82 1f 00
        E 96 b2 0b 7f
        E 0 92 1a 7f
        E 96 82 1a 00
        E 96 b2 0b 7f
        E 0 92 19 7f
        E 96 82 19 00
        E 0 b2 0b 7f
        E 0 92 1e 7f
        E 48 82 1e 00
        E 0 b2 0b 7f
        E 0 92 1a 7f
        E 48 82 1a 00
        E 0 b2 0b 7f
        E 0 92 1c 7f
        E 48 82 1c 00
        E 0 b2 0b 7f
        E 0 92 1d 7f
        E 48 82 1d 00
        E 0 b2 0b 7f
        E 0 92 29 7f
        E 48 82 29 00
        E 0 b2 0b 7f
        E 0 92 21 7f
        E 48 82 21 00
        E 0 b2 0b 7f
        E 0 92 23 7f
        E 96 82 23 00
        E 96 b2 0b 7f
        E 0 92 16 7f
        E 96 82 16 00
        E 96 b2 0b 7f
        E 0 92 1e 7f
        E 400 82 1e 00
        E 176 b2 0b 7f
        E 0 92 29 7f
        E 192 82 29 00
        E 0 b2 0b 7f
        E 0 92 52 7f
        E 96 82 52 00
        E 96 b2 0b 7f
        E 0 92 30 7f
        E 96 82 30 00
        E 96 b2 0b 7f
        E 0 92 2f 7f
        E 96 82 2f 00
        E 96 b2 0b 7f
        E 0 92 21 7f
        E 96 82 21 00
        E 96 b2 0b 7f
        E 0 92 2b 7f
        E 96 82 2b 00
        E 96 b2 0b 7f
        E 0 92 2a 7f
        E 96 82 2a 00
        E 96 b2 0b 7f
        E 0 92 28 7f
        E 96 82 28 00
        E 96 b2 0b 7f
        E 0 92 27 7f
        E 96 82 27 00
        E 96 b2 0b 7f
        E 0 92 25 7f
        E 144 82 25 00
        E 240 b2 0b 7f
        E 0 92 23 7f
        E 224 82 23 00
        E 0 b2 0b 7f
        E 0 92 22 7f
        E 32 82 22 00
        E 0 b2 0b 7f
        E 0 92 1a 7f
        E 32 82 1a 00
        E 0 b2 0b 7f
        E 0 92 20 7f
        E 32 82 20 00
        E 0 b2 0b 7f
        E 0 92 1f 7f
        E 32 82 1f 00
        E 0 b2 0b 7f
        E 0 92 1e 7f
        E 32 82 1e 00
        E 0 b2 0b 7f
        E 0 92 1f 7f
        E 128 82 1f 00
        E 64 b2 0b 7f
        E 0 92 24 7f
        E 64 82 24 00
        E 32 b2 0b 7f
        E 0 92 28 7f
        E 64 82 28 00
        E 32 b2 0b 7f
        E 0 92 28 7f
        E 128 82 28 00
        E 64 b2 0b 7f
        E 0 92 31 7f
        E 64 82 31 00
        E 32 b2 0b 7f
        E 0 92 2f 7f
        E 64 82 2f 00
        E 32 b2 0b 7f
        E 0 92 1b 7f
        E 128 82 1b 00
        E 0 b2 7b 00
        E 0 ff 2f 00
      >
    >
  >
  <TRACK {11AA735D-E1A7-4643-916F-C0B0EA3542B2}
    NAME "NES - Noise / Drums [ch3]"
    PEAKCOL 11184810
    BEAT -1
    AUTOMODE 0
    PANLAWFLAGS 3
    VOLPAN 1 0 -1 -1 1
    MUTESOLO 0 0 0
    IPHASE 0
    PLAYOFFS 0 1
    ISBUS 0 0
    BUSCOMP 0 0 0 0 0
    SHOWINMIX 1 0.6667 0.5 1 0.5 0 0 0
    FIXEDLANES 9 0 0 0 0
    SEL 0
    REC 0 5088 1 0 0 0 0 0
    VU 2
    TRACKHEIGHT 0 0 0 0 0 0 0
    INQ 0 0 0 0.5 100 0 0 100
    NCHAN 2
    FX 1
    TRACKID {11AA735D-E1A7-4643-916F-C0B0EA3542B2}
    PERF 0
    MIDIOUT -1
    MAINSEND 1 0
    <FXCHAIN
      WNDRECT 24 52 700 560
      SHOW 0
      LASTSEL 0
      DOCKED 0
      BYPASS 0 0 0
      <JS "ReapNES Studio/ReapNES_Console.jsfx" ""
        2 15 1 10 80 10 100 2 1 15 1 5 60 10 80 1 1 0 50 0 0 15 1 0 100 0 0 0.500000 0.500000 0.400000 0.300000 0.800000 3 1 0 0 0 0 - - - - - - - - - - - - - - - - - - - - - - - - - -
      >
      FLOATPOS 0 0 0 0
      FXID {1D82F268-6C6D-4BC5-B8FE-BA0C1766C82E}
      WAK 0 0
    >
    <ITEM
      POSITION 0
      LENGTH 63.01710920000001
      LOOP 0
      ALLTAKES 0
      FADEIN 0 0 0 0 0 0 0
      FADEOUT 0 0 0 0 0 0 0
      MUTE 0 0
      SEL 0
      IGUID {41BB071C-5103-459A-B74B-102E4A5289D3}
      <SOURCE MIDI
        HASDATA 1 480 QN
        CCINTERP 32
        E 0 93 2a 7f
        E 16 83 2a 00
        E 0 93 2a 08
        E 16 83 2a 00
        E 64 93 2a 33
        E 16 83 2a 00
        E 0 93 2a 08
        E 16 83 2a 00
        E 64 93 2a 7f
        E 16 83 2a 00
        E 0 93 2a 08
        E 16 83 2a 00
        E 64 93 2a 33
        E 16 83 2a 00
        E 0 93 2a 08
        E 16 83 2a 00
        E 64 93 2a 7f
        E 16 83 2a 00
        E 0 93 2a 08
        E 16 83 2a 00
        E 64 93 2a 33
        E 16 83 2a 00
        E 0 93 2a 08
        E 16 83 2a 00
        E 64 93 2a 7f
        E 16 83 2a 00
        E 0 93 2a 08
        E 16 83 2a 00
        E 64 93 2a 33
        E 16 83 2a 00
        E 0 93 2a 08
        E 16 83 2a 00
        E 64 93 2a 7f
        E 16 83 2a 00
        E 0 93 2a 08
        E 16 83 2a 00
        E 64 93 2a 33
        E 16 83 2a 00
        E 0 93 2a 08
        E 16 83 2a 00
        E 64 93 2a 7f
        E 16 83 2a 00
        E 0 93 2a 08
        E 16 83 2a 00
        E 64 93 2a 33
        E 16 83 2a 00
        E 0 93 2a 08
        E 16 83 2a 00
        E 64 93 2a 7f
        E 16 83 2a 00
        E 0 93 2a 08
        E 16 83 2a 00
        E 64 93 2a 33
        E 16 83 2a 00
        E 0 93 2a 08
        E 16 83 2a 00
        E 64 93 2a 7f
        E 16 83 2a 00
        E 0 93 2a 08
        E 16 83 2a 00
        E 64 93 2a 33
        E 16 83 2a 00
        E 0 93 2a 08
        E 16 83 2a 00
        E 64 93 2a 7f
        E 16 83 2a 00
        E 0 93 2a 08
        E 16 83 2a 00
        E 64 93 2a 33
        E 16 83 2a 00
        E 0 93 2a 08
        E 16 83 2a 00
        E 64 93 2a 7f
        E 16 83 2a 00
        E 0 93 2a 08
        E 16 83 2a 00
        E 64 93 2a 33
        E 16 83 2a 00
        E 0 93 2a 08
        E 16 83 2a 00
        E 64 93 2a 7f
        E 16 83 2a 00
        E 0 93 2a 08
        E 16 83 2a 00
        E 64 93 2a 33
        E 16 83 2a 00
        E 0 93 2a 08
        E 16 83 2a 00
        E 64 93 2a 7f
        E 16 83 2a 00
        E 0 93 2a 08
        E 16 83 2a 00
        E 64 93 2a 33
        E 16 83 2a 00
        E 0 93 2a 08
        E 16 83 2a 00
        E 80 93 2a 7f
        E 16 83 2a 00
        E 0 93 2a 08
        E 16 83 2a 00
        E 48 93 2a 33
        E 16 83 2a 00
        E 0 93 2a 08
        E 16 83 2a 00
        E 656 93 2a 7f
        E 16 83 2a 00
        E 0 93 2a 08
        E 16 83 2a 00
        E 144 93 2a 7f
        E 16 83 2a 00
        E 0 93 2a 08
        E 16 83 2a 00
        E 64 93 2a 33
        E 16 83 2a 00
        E 0 93 2a 08
        E 16 83 2a 00
        E 80 93 2a 7f
        E 16 83 2a 00
        E 0 93 2a 08
        E 16 83 2a 00
        E 144 93 2a 7f
        E 16 83 2a 00
        E 0 93 2a 08
        E 16 83 2a 00
        E 64 93 2a 33
        E 16 83 2a 00
        E 0 93 2a 08
        E 16 83 2a 00
        E 80 93 2a 7f
        E 16 83 2a 00
        E 0 93 2a 08
        E 16 83 2a 00
        E 144 93 2a 7f
        E 16 83 2a 00
        E 0 93 2a 08
        E 16 83 2a 00
        E 64 93 2a 33
        E 16 83 2a 00
        E 0 93 2a 08
        E 16 83 2a 00
        E 80 93 2a 7f
        E 16 83 2a 00
        E 0 93 2a 08
        E 16 83 2a 00
        E 144 93 2a 7f
        E 16 83 2a 00
        E 0 93 2a 08
        E 16 83 2a 00
        E 64 93 2a 33
        E 16 83 2a 00
        E 0 93 2a 08
        E 16 83 2a 00
        E 80 93 2a 7f
        E 16 83 2a 00
        E 0 93 2a 08
        E 16 83 2a 00
        E 144 93 2a 7f
        E 16 83 2a 00
        E 0 93 2a 08
        E 16 83 2a 00
        E 64 93 2a 33
        E 16 83 2a 00
        E 0 93 2a 08
        E 16 83 2a 00
        E 80 93 2a 7f
        E 16 83 2a 00
        E 0 93 2a 08
        E 16 83 2a 00
        E 144 93 2a 7f
        E 16 83 2a 00
        E 0 93 2a 08
        E 16 83 2a 00
        E 64 93 2a 33
        E 16 83 2a 00
        E 0 93 2a 08
        E 16 83 2a 00
        E 80 93 2a 7f
        E 16 83 2a 00
        E 0 93 2a 08
        E 16 83 2a 00
        E 144 93 2a 7f
        E 16 83 2a 00
        E 0 93 2a 08
        E 16 83 2a 00
        E 64 93 2a 33
        E 16 83 2a 00
        E 0 93 2a 08
        E 16 83 2a 00
        E 80 93 2a 7f
        E 16 83 2a 00
        E 0 93 2a 08
        E 16 83 2a 00
        E 144 93 2a 7f
        E 16 83 2a 00
        E 0 93 2a 08
        E 16 83 2a 00
        E 64 93 2a 33
        E 16 83 2a 00
        E 0 93 2a 08
        E 16 83 2a 00
        E 80 93 2a 7f
        E 16 83 2a 00
        E 0 93 2a 08
        E 16 83 2a 00
        E 144 93 2a 7f
        E 16 83 2a 00
        E 0 93 2a 08
        E 16 83 2a 00
        E 64 93 2a 33
        E 16 83 2a 00
        E 0 93 2a 08
        E 16 83 2a 00
        E 80 93 2a 7f
        E 16 83 2a 00
        E 0 93 2a 08
        E 16 83 2a 00
        E 144 93 2a 7f
        E 16 83 2a 00
        E 0 93 2a 08
        E 16 83 2a 00
        E 64 93 2a 33
        E 16 83 2a 00
        E 0 93 2a 08
        E 16 83 2a 00
        E 80 93 2a 7f
        E 16 83 2a 00
        E 0 93 2a 08
        E 16 83 2a 00
        E 144 93 2a 7f
        E 16 83 2a 00
        E 0 93 2a 08
        E 16 83 2a 00
        E 64 93 2a 33
        E 16 83 2a 00
        E 0 93 2a 08
        E 16 83 2a 00
        E 80 93 2a 7f
        E 16 83 2a 00
        E 0 93 2a 08
        E 16 83 2a 00
        E 144 93 2a 7f
        E 16 83 2a 00
        E 0 93 2a 08
        E 16 83 2a 00
        E 64 93 2a 33
        E 16 83 2a 00
        E 0 93 2a 08
        E 16 83 2a 00
        E 80 93 2a 7f
        E 16 83 2a 00
        E 0 93 2a 08
        E 16 83 2a 00
        E 144 93 2a 7f
        E 16 83 2a 00
        E 0 93 2a 08
        E 16 83 2a 00
        E 64 93 2a 33
        E 16 83 2a 00
        E 0 93 2a 08
        E 16 83 2a 00
        E 80 93 2a 7f
        E 16 83 2a 00
        E 0 93 2a 08
        E 16 83 2a 00
        E 144 93 2a 7f
        E 16 83 2a 00
        E 0 93 2a 08
        E 16 83 2a 00
        E 64 93 2a 33
        E 16 83 2a 00
        E 0 93 2a 08
        E 16 83 2a 00
        E 80 93 2a 7f
        E 16 83 2a 00
        E 0 93 2a 08
        E 16 83 2a 00
        E 144 93 2a 7f
        E 16 83 2a 00
        E 0 93 2a 08
        E 16 83 2a 00
        E 64 93 2a 33
        E 16 83 2a 00
        E 0 93 2a 08
        E 16 83 2a 00
        E 464 93 2a 7f
        E 16 83 2a 00
        E 0 93 2a 08
        E 16 83 2a 00
        E 240 93 2a 33
        E 16 83 2a 00
        E 0 93 2a 08
        E 16 83 2a 00
        E 80 93 2a 7f
        E 16 83 2a 00
        E 0 93 2a 08
        E 16 83 2a 00
        E 240 93 2a 33
        E 16 83 2a 00
        E 0 93 2a 08
        E 16 83 2a 00
        E 80 93 2a 7f
        E 16 83 2a 00
        E 0 93 2a 08
        E 16 83 2a 00
        E 240 93 2a 33
        E 16 83 2a 00
        E 0 93 2a 08
        E 16 83 2a 00
        E 80 93 2a 7f
        E 16 83 2a 00
        E 0 93 2a 08
        E 16 83 2a 00
        E 240 93 2a 33
        E 16 83 2a 00
        E 0 93 2a 08
        E 16 83 2a 00
        E 80 93 2a 7f
        E 16 83 2a 00
        E 0 93 2a 08
        E 16 83 2a 00
        E 240 93 2a 33
        E 16 83 2a 00
        E 0 93 2a 08
        E 16 83 2a 00
        E 80 93 2a 7f
        E 16 83 2a 00
        E 0 93 2a 08
        E 16 83 2a 00
        E 240 93 2a 33
        E 16 83 2a 00
        E 0 93 2a 08
        E 16 83 2a 00
        E 80 93 2a 7f
        E 16 83 2a 00
        E 0 93 2a 08
        E 16 83 2a 00
        E 240 93 2a 33
        E 16 83 2a 00
        E 0 93 2a 08
        E 16 83 2a 00
        E 80 93 2a 7f
        E 16 83 2a 00
        E 0 93 2a 08
        E 16 83 2a 00
        E 240 93 2a 33
        E 16 83 2a 00
        E 0 93 2a 08
        E 16 83 2a 00
        E 80 93 2a 7f
        E 16 83 2a 00
        E 0 93 2a 08
        E 16 83 2a 00
        E 240 93 2a 33
        E 16 83 2a 00
        E 0 93 2a 08
        E 16 83 2a 00
        E 80 93 2a 7f
        E 16 83 2a 00
        E 0 93 2a 08
        E 16 83 2a 00
        E 240 93 2a 33
        E 16 83 2a 00
        E 0 93 2a 08
        E 16 83 2a 00
        E 80 93 2a 7f
        E 16 83 2a 00
        E 0 93 2a 08
        E 16 83 2a 00
        E 240 93 2a 33
        E 16 83 2a 00
        E 0 93 2a 08
        E 16 83 2a 00
        E 80 93 2a 7f
        E 16 83 2a 00
        E 0 93 2a 08
        E 16 83 2a 00
        E 240 93 2a 33
        E 16 83 2a 00
        E 0 93 2a 08
        E 16 83 2a 00
        E 80 93 2a 7f
        E 16 83 2a 00
        E 0 93 2a 08
        E 16 83 2a 00
        E 240 93 2a 33
        E 16 83 2a 00
        E 0 93 2a 08
        E 16 83 2a 00
        E 80 93 2a 7f
        E 16 83 2a 00
        E 0 93 2a 08
        E 16 83 2a 00
        E 736 93 2a 7f
        E 16 83 2a 00
        E 0 93 2a 77
        E 256 83 2a 00
        E 112 93 2a 7f
        E 16 83 2a 00
        E 0 93 2a 77
        E 256 83 2a 00
        E 112 93 2a 7f
        E 16 83 2a 00
        E 0 93 2a 77
        E 256 83 2a 00
        E 0 93 2a 66
        E 16 83 2a 00
        E 0 93 2a 3b
        E 16 83 2a 00
        E 0 93 2a 19
        E 16 83 2a 00
        E 0 93 2a 22
        E 16 83 2a 00
        E 0 93 2a 11
        E 16 83 2a 00
        E 0 93 2a 08
        E 16 83 2a 00
        E 0 93 2a 66
        E 16 83 2a 00
        E 0 93 2a 3b
        E 16 83 2a 00
        E 0 93 2a 19
        E 16 83 2a 00
        E 0 93 2a 22
        E 16 83 2a 00
        E 0 93 2a 11
        E 16 83 2a 00
        E 0 93 2a 08
        E 16 83 2a 00
        E 0 93 2a 08
        E 32 83 2a 00
        E 64 93 2a 66
        E 16 83 2a 00
        E 0 93 2a 3b
        E 16 83 2a 00
        E 0 93 2a 19
        E 16 83 2a 00
        E 0 93 2a 22
        E 16 83 2a 00
        E 0 93 2a 11
        E 16 83 2a 00
        E 0 93 2a 08
        E 16 83 2a 00
        E 0 93 2a 08
        E 32 83 2a 00
        E 64 93 2a 66
        E 16 83 2a 00
        E 0 93 2a 3b
        E 16 83 2a 00
        E 0 93 2a 19
        E 16 83 2a 00
        E 0 93 2a 22
        E 16 83 2a 00
        E 0 93 2a 11
        E 16 83 2a 00
        E 0 93 2a 08
        E 16 83 2a 00
        E 0 93 2a 08
        E 32 83 2a 00
        E 64 93 2a 66
        E 16 83 2a 00
        E 0 93 2a 3b
        E 16 83 2a 00
        E 0 93 2a 19
        E 16 83 2a 00
        E 0 93 2a 22
        E 16 83 2a 00
        E 0 93 2a 11
        E 16 83 2a 00
        E 0 93 2a 08
        E 16 83 2a 00
        E 0 93 2a 08
        E 32 83 2a 00
        E 64 93 2a 66
        E 16 83 2a 00
        E 0 93 2a 3b
        E 16 83 2a 00
        E 0 93 2a 19
        E 16 83 2a 00
        E 0 93 2a 22
        E 16 83 2a 00
        E 0 93 2a 11
        E 16 83 2a 00
        E 0 93 2a 08
        E 16 83 2a 00
        E 0 93 2a 08
        E 32 83 2a 00
        E 64 93 2a 66
        E 16 83 2a 00
        E 0 93 2a 3b
        E 16 83 2a 00
        E 0 93 2a 19
        E 16 83 2a 00
        E 0 93 2a 22
        E 16 83 2a 00
        E 0 93 2a 11
        E 16 83 2a 00
        E 0 93 2a 08
        E 16 83 2a 00
        E 0 93 2a 08
        E 32 83 2a 00
        E 64 93 2a 66
        E 16 83 2a 00
        E 0 93 2a 3b
        E 16 83 2a 00
        E 0 93 2a 19
        E 16 83 2a 00
        E 0 93 2a 22
        E 16 83 2a 00
        E 0 93 2a 11
        E 16 83 2a 00
        E 0 93 2a 08
        E 16 83 2a 00
        E 0 93 2a 08
        E 32 83 2a 00
        E 64 93 2a 66
        E 16 83 2a 00
        E 0 93 2a 3b
        E 16 83 2a 00
        E 0 93 2a 19
        E 16 83 2a 00
        E 0 93 2a 22
        E 16 83 2a 00
        E 0 93 2a 11
        E 16 83 2a 00
        E 0 93 2a 08
        E 16 83 2a 00
        E 0 93 2a 08
        E 32 83 2a 00
        E 64 93 2a 66
        E 16 83 2a 00
        E 0 93 2a 3b
        E 16 83 2a 00
        E 0 93 2a 19
        E 16 83 2a 00
        E 0 93 2a 33
        E 16 83 2a 00
        E 0 93 2a 08
        E 16 83 2a 00
        E 16 93 2a 33
        E 16 83 2a 00
        E 0 93 2a 08
        E 16 83 2a 00
        E 16 93 2a 33
        E 16 83 2a 00
        E 0 93 2a 08
        E 16 83 2a 00
        E 64 93 2a 33
        E 16 83 2a 00
        E 0 93 2a 08
        E 16 83 2a 00
        E 16 93 2a 33
        E 16 83 2a 00
        E 0 93 2a 08
        E 16 83 2a 00
        E 16 93 2a 33
        E 16 83 2a 00
        E 0 93 2a 08
        E 16 83 2a 00
        E 224 93 2a 7f
        E 16 83 2a 00
        E 0 93 2a 77
        E 176 83 2a 00
        E 0 93 2a 7f
        E 16 83 2a 00
        E 0 93 2a 77
        E 256 83 2a 00
        E 304 93 2a 7f
        E 16 83 2a 00
        E 0 93 2a 77
        E 176 83 2a 00
        E 0 93 2a 7f
        E 16 83 2a 00
        E 0 93 2a 77
        E 176 83 2a 00
        E 0 93 2a 7f
        E 16 83 2a 00
        E 0 93 2a 77
        E 176 83 2a 00
        E 0 93 2a 7f
        E 16 83 2a 00
        E 0 93 2a 77
        E 176 83 2a 00
        E 0 93 2a 7f
        E 16 83 2a 00
        E 0 93 2a 77
        E 176 83 2a 00
        E 0 93 2a 7f
        E 16 83 2a 00
        E 0 93 2a 77
        E 176 83 2a 00
        E 0 93 2a 7f
        E 16 83 2a 00
        E 0 93 2a 77
        E 176 83 2a 00
        E 0 93 2a 7f
        E 16 83 2a 00
        E 0 93 2a 77
        E 176 83 2a 00
        E 0 93 2a 7f
        E 16 83 2a 00
        E 0 93 2a 77
        E 176 83 2a 00
        E 0 93 2a 7f
        E 16 83 2a 00
        E 0 93 2a 77
        E 256 83 2a 00
        E 496 93 2a 7f
        E 16 83 2a 00
        E 0 93 2a 08
        E 16 83 2a 00
        E 144 93 2a 7f
        E 16 83 2a 00
        E 0 93 2a 08
        E 16 83 2a 00
        E 64 93 2a 33
        E 16 83 2a 00
        E 0 93 2a 08
        E 16 83 2a 00
        E 80 93 2a 7f
        E 16 83 2a 00
        E 0 93 2a 08
        E 16 83 2a 00
        E 144 93 2a 7f
        E 16 83 2a 00
        E 0 93 2a 08
        E 16 83 2a 00
        E 64 93 2a 33
        E 16 83 2a 00
        E 0 93 2a 08
        E 16 83 2a 00
        E 80 93 2a 7f
        E 16 83 2a 00
        E 0 93 2a 08
        E 16 83 2a 00
        E 144 93 2a 7f
        E 16 83 2a 00
        E 0 93 2a 08
        E 16 83 2a 00
        E 64 93 2a 33
        E 16 83 2a 00
        E 0 93 2a 08
        E 16 83 2a 00
        E 80 93 2a 7f
        E 16 83 2a 00
        E 0 93 2a 08
        E 16 83 2a 00
        E 144 93 2a 7f
        E 16 83 2a 00
        E 0 93 2a 08
        E 16 83 2a 00
        E 64 93 2a 33
        E 16 83 2a 00
        E 0 93 2a 08
        E 16 83 2a 00
        E 80 93 2a 7f
        E 16 83 2a 00
        E 0 93 2a 08
        E 16 83 2a 00
        E 144 93 2a 7f
        E 16 83 2a 00
        E 0 93 2a 08
        E 16 83 2a 00
        E 64 93 2a 33
        E 16 83 2a 00
        E 0 93 2a 08
        E 16 83 2a 00
        E 80 93 2a 7f
        E 16 83 2a 00
        E 0 93 2a 08
        E 16 83 2a 00
        E 144 93 2a 7f
        E 16 83 2a 00
        E 0 93 2a 08
        E 16 83 2a 00
        E 64 93 2a 33
        E 16 83 2a 00
        E 0 93 2a 08
        E 16 83 2a 00
        E 80 93 2a 7f
        E 16 83 2a 00
        E 0 93 2a 08
        E 16 83 2a 00
        E 144 93 2a 7f
        E 16 83 2a 00
        E 0 93 2a 08
        E 16 83 2a 00
        E 64 93 2a 33
        E 16 83 2a 00
        E 0 93 2a 08
        E 16 83 2a 00
        E 80 93 2a 7f
        E 16 83 2a 00
        E 0 93 2a 08
        E 16 83 2a 00
        E 144 93 2a 7f
        E 16 83 2a 00
        E 0 93 2a 08
        E 16 83 2a 00
        E 64 93 2a 33
        E 16 83 2a 00
        E 0 93 2a 08
        E 16 83 2a 00
        E 80 93 2a 7f
        E 16 83 2a 00
        E 0 93 2a 77
        E 160 83 2a 00
        E 0 93 2a 7f
        E 16 83 2a 00
        E 0 93 2a 08
        E 16 83 2a 00
        E 32 93 2a 33
        E 16 83 2a 00
        E 0 93 2a 08
        E 16 83 2a 00
        E 32 93 2a 33
        E 16 83 2a 00
        E 0 93 2a 08
        E 16 83 2a 00
        E 32 93 2a 7f
        E 16 83 2a 00
        E 0 93 2a 08
        E 16 83 2a 00
        E 64 93 2a 33
        E 16 83 2a 00
        E 0 93 2a 08
        E 16 83 2a 00
        E 64 93 2a 7f
        E 16 83 2a 00
        E 0 93 2a 08
        E 16 83 2a 00
        E 64 93 2a 33
        E 16 83 2a 00
        E 0 93 2a 08
        E 16 83 2a 00
        E 64 93 2a 7f
        E 16 83 2a 00
        E 0 93 2a 08
        E 16 83 2a 00
        E 64 93 2a 33
        E 16 83 2a 00
        E 0 93 2a 08
        E 16 83 2a 00
        E 64 93 2a 7f
        E 16 83 2a 00
        E 0 93 2a 08
        E 16 83 2a 00
        E 160 93 2a 7f
        E 16 83 2a 00
        E 0 93 2a 08
        E 16 83 2a 00
        E 160 93 2a 7f
        E 16 83 2a 00
        E 0 93 2a 08
        E 16 83 2a 00
        E 160 93 2a 7f
        E 16 83 2a 00
        E 0 93 2a 08
        E 16 83 2a 00
        E 16288 93 2a 7f
        E 16 83 2a 00
        E 0 93 2a 08
        E 16 83 2a 00
        E 64 93 2a 33
        E 16 83 2a 00
        E 0 93 2a 08
        E 16 83 2a 00
        E 64 93 2a 7f
        E 16 83 2a 00
        E 0 93 2a 08
        E 16 83 2a 00
        E 64 93 2a 33
        E 16 83 2a 00
        E 0 93 2a 08
        E 16 83 2a 00
        E 64 93 2a 7f
        E 16 83 2a 00
        E 0 93 2a 08
        E 16 83 2a 00
        E 64 93 2a 33
        E 16 83 2a 00
        E 0 93 2a 08
        E 16 83 2a 00
        E 64 93 2a 7f
        E 16 83 2a 00
        E 0 93 2a 08
        E 16 83 2a 00
        E 64 93 2a 33
        E 16 83 2a 00
        E 0 93 2a 08
        E 16 83 2a 00
        E 64 93 2a 7f
        E 16 83 2a 00
        E 0 93 2a 08
        E 16 83 2a 00
        E 64 93 2a 33
        E 16 83 2a 00
        E 0 93 2a 08
        E 16 83 2a 00
        E 64 93 2a 7f
        E 16 83 2a 00
        E 0 93 2a 08
        E 16 83 2a 00
        E 64 93 2a 33
        E 16 83 2a 00
        E 0 93 2a 08
        E 16 83 2a 00
        E 64 93 2a 7f
        E 16 83 2a 00
        E 0 93 2a 08
        E 16 83 2a 00
        E 64 93 2a 33
        E 16 83 2a 00
        E 0 93 2a 08
        E 16 83 2a 00
        E 64 93 2a 7f
        E 16 83 2a 00
        E 0 93 2a 08
        E 16 83 2a 00
        E 64 93 2a 33
        E 16 83 2a 00
        E 0 93 2a 08
        E 16 83 2a 00
        E 64 93 2a 7f
        E 16 83 2a 00
        E 0 93 2a 08
        E 16 83 2a 00
        E 64 93 2a 33
        E 16 83 2a 00
        E 0 93 2a 08
        E 16 83 2a 00
        E 64 93 2a 7f
        E 16 83 2a 00
        E 0 93 2a 08
        E 16 83 2a 00
        E 64 93 2a 33
        E 16 83 2a 00
        E 0 93 2a 08
        E 16 83 2a 00
        E 64 93 2a 7f
        E 16 83 2a 00
        E 0 93 2a 08
        E 16 83 2a 00
        E 64 93 2a 33
        E 16 83 2a 00
        E 0 93 2a 08
        E 16 83 2a 00
        E 64 93 2a 7f
        E 16 83 2a 00
        E 0 93 2a 08
        E 16 83 2a 00
        E 64 93 2a 33
        E 16 83 2a 00
        E 0 93 2a 08
        E 16 83 2a 00
        E 80 93 2a 7f
        E 16 83 2a 00
        E 0 93 2a 08
        E 16 83 2a 00
        E 48 93 2a 33
        E 16 83 2a 00
        E 0 93 2a 08
        E 16 83 2a 00
        E 656 93 2a 7f
        E 16 83 2a 00
        E 0 93 2a 08
        E 16 83 2a 00
        E 144 93 2a 7f
        E 16 83 2a 00
        E 0 93 2a 08
        E 16 83 2a 00
        E 64 93 2a 33
        E 16 83 2a 00
        E 0 93 2a 08
        E 16 83 2a 00
        E 80 93 2a 7f
        E 16 83 2a 00
        E 0 93 2a 08
        E 16 83 2a 00
        E 144 93 2a 7f
        E 16 83 2a 00
        E 0 93 2a 08
        E 16 83 2a 00
        E 64 93 2a 33
        E 16 83 2a 00
        E 0 93 2a 08
        E 16 83 2a 00
        E 80 93 2a 7f
        E 16 83 2a 00
        E 0 93 2a 08
        E 16 83 2a 00
        E 144 93 2a 7f
        E 16 83 2a 00
        E 0 93 2a 08
        E 16 83 2a 00
        E 64 93 2a 33
        E 16 83 2a 00
        E 0 93 2a 08
        E 16 83 2a 00
        E 80 93 2a 7f
        E 16 83 2a 00
        E 0 93 2a 08
        E 16 83 2a 00
        E 144 93 2a 7f
        E 16 83 2a 00
        E 0 93 2a 08
        E 16 83 2a 00
        E 64 93 2a 33
        E 16 83 2a 00
        E 0 93 2a 08
        E 16 83 2a 00
        E 80 93 2a 7f
        E 16 83 2a 00
        E 0 93 2a 08
        E 16 83 2a 00
        E 144 93 2a 7f
        E 16 83 2a 00
        E 0 93 2a 08
        E 16 83 2a 00
        E 64 93 2a 33
        E 16 83 2a 00
        E 0 93 2a 08
        E 16 83 2a 00
        E 80 93 2a 7f
        E 16 83 2a 00
        E 0 93 2a 08
        E 16 83 2a 00
        E 144 93 2a 7f
        E 16 83 2a 00
        E 0 93 2a 08
        E 16 83 2a 00
        E 64 93 2a 33
        E 16 83 2a 00
        E 0 93 2a 08
        E 16 83 2a 00
        E 80 93 2a 7f
        E 16 83 2a 00
        E 0 93 2a 08
        E 16 83 2a 00
        E 144 93 2a 7f
        E 16 83 2a 00
        E 0 93 2a 08
        E 16 83 2a 00
        E 64 93 2a 33
        E 16 83 2a 00
        E 0 93 2a 08
        E 16 83 2a 00
        E 80 93 2a 7f
        E 16 83 2a 00
        E 0 93 2a 08
        E 16 83 2a 00
        E 144 93 2a 7f
        E 16 83 2a 00
        E 0 93 2a 08
        E 16 83 2a 00
        E 64 93 2a 33
        E 16 83 2a 00
        E 0 93 2a 08
        E 16 83 2a 00
        E 80 93 2a 7f
        E 16 83 2a 00
        E 0 93 2a 08
        E 16 83 2a 00
        E 144 93 2a 7f
        E 16 83 2a 00
        E 0 93 2a 08
        E 16 83 2a 00
        E 64 93 2a 33
        E 16 83 2a 00
        E 0 93 2a 08
        E 16 83 2a 00
        E 80 93 2a 7f
        E 16 83 2a 00
        E 0 93 2a 08
        E 16 83 2a 00
        E 144 93 2a 7f
        E 16 83 2a 00
        E 0 93 2a 08
        E 16 83 2a 00
        E 64 93 2a 33
        E 16 83 2a 00
        E 0 93 2a 08
        E 16 83 2a 00
        E 80 93 2a 7f
        E 16 83 2a 00
        E 0 93 2a 08
        E 16 83 2a 00
        E 144 93 2a 7f
        E 16 83 2a 00
        E 0 93 2a 08
        E 16 83 2a 00
        E 64 93 2a 33
        E 16 83 2a 00
        E 0 93 2a 08
        E 16 83 2a 00
        E 80 93 2a 7f
        E 16 83 2a 00
        E 0 93 2a 08
        E 16 83 2a 00
        E 144 93 2a 7f
        E 16 83 2a 00
        E 0 93 2a 08
        E 16 83 2a 00
        E 64 93 2a 33
        E 16 83 2a 00
        E 0 93 2a 08
        E 16 83 2a 00
        E 80 93 2a 7f
        E 16 83 2a 00
        E 0 93 2a 08
        E 16 83 2a 00
        E 144 93 2a 7f
        E 16 83 2a 00
        E 0 93 2a 08
        E 16 83 2a 00
        E 64 93 2a 33
        E 16 83 2a 00
        E 0 93 2a 08
        E 16 83 2a 00
        E 80 93 2a 7f
        E 16 83 2a 00
        E 0 93 2a 08
        E 16 83 2a 00
        E 144 93 2a 7f
        E 16 83 2a 00
        E 0 93 2a 08
        E 16 83 2a 00
        E 64 93 2a 33
        E 16 83 2a 00
        E 0 93 2a 08
        E 16 83 2a 00
        E 80 93 2a 7f
        E 16 83 2a 00
        E 0 93 2a 08
        E 16 83 2a 00
        E 144 93 2a 7f
        E 16 83 2a 00
        E 0 93 2a 08
        E 16 83 2a 00
        E 64 93 2a 33
        E 16 83 2a 00
        E 0 93 2a 08
        E 16 83 2a 00
        E 464 93 2a 7f
        E 16 83 2a 00
        E 0 93 2a 08
        E 16 83 2a 00
        E 240 93 2a 33
        E 16 83 2a 00
        E 0 93 2a 08
        E 16 83 2a 00
        E 80 93 2a 7f
        E 16 83 2a 00
        E 0 93 2a 08
        E 16 83 2a 00
        E 240 93 2a 33
        E 16 83 2a 00
        E 0 93 2a 08
        E 16 83 2a 00
        E 80 93 2a 7f
        E 16 83 2a 00
        E 0 93 2a 08
        E 16 83 2a 00
        E 240 93 2a 33
        E 16 83 2a 00
        E 0 93 2a 08
        E 16 83 2a 00
        E 80 93 2a 7f
        E 16 83 2a 00
        E 0 93 2a 08
        E 16 83 2a 00
        E 240 93 2a 33
        E 16 83 2a 00
        E 0 93 2a 08
        E 16 83 2a 00
        E 80 93 2a 7f
        E 16 83 2a 00
        E 0 93 2a 08
        E 16 83 2a 00
        E 240 93 2a 33
        E 16 83 2a 00
        E 0 93 2a 08
        E 16 83 2a 00
        E 80 93 2a 7f
        E 16 83 2a 00
        E 0 93 2a 08
        E 16 83 2a 00
        E 240 93 2a 33
        E 16 83 2a 00
        E 0 93 2a 08
        E 16 83 2a 00
        E 80 93 2a 7f
        E 16 83 2a 00
        E 0 93 2a 08
        E 16 83 2a 00
        E 240 93 2a 33
        E 16 83 2a 00
        E 0 93 2a 08
        E 16 83 2a 00
        E 80 93 2a 7f
        E 16 83 2a 00
        E 0 93 2a 08
        E 16 83 2a 00
        E 240 93 2a 33
        E 16 83 2a 00
        E 0 93 2a 08
        E 16 83 2a 00
        E 80 93 2a 7f
        E 16 83 2a 00
        E 0 93 2a 08
        E 16 83 2a 00
        E 240 93 2a 33
        E 16 83 2a 00
        E 0 93 2a 08
        E 16 83 2a 00
        E 80 93 2a 7f
        E 16 83 2a 00
        E 0 93 2a 08
        E 16 83 2a 00
        E 240 93 2a 33
        E 16 83 2a 00
        E 0 93 2a 08
        E 16 83 2a 00
        E 80 93 2a 7f
        E 16 83 2a 00
        E 0 93 2a 08
        E 16 83 2a 00
        E 240 93 2a 33
        E 16 83 2a 00
        E 0 93 2a 08
        E 16 83 2a 00
        E 80 93 2a 7f
        E 16 83 2a 00
        E 0 93 2a 08
        E 16 83 2a 00
        E 240 93 2a 33
        E 16 83 2a 00
        E 0 93 2a 08
        E 16 83 2a 00
        E 80 93 2a 7f
        E 16 83 2a 00
        E 0 93 2a 08
        E 16 83 2a 00
        E 240 93 2a 33
        E 16 83 2a 00
        E 0 93 2a 08
        E 16 83 2a 00
        E 80 93 2a 7f
        E 16 83 2a 00
        E 0 93 2a 08
        E 16 83 2a 00
        E 736 93 2a 7f
        E 16 83 2a 00
        E 0 93 2a 77
        E 256 83 2a 00
        E 112 93 2a 7f
        E 16 83 2a 00
        E 0 93 2a 77
        E 256 83 2a 00
        E 112 93 2a 7f
        E 16 83 2a 00
        E 0 93 2a 77
        E 256 83 2a 00
        E 0 93 2a 66
        E 16 83 2a 00
        E 0 93 2a 3b
        E 16 83 2a 00
        E 0 93 2a 19
        E 16 83 2a 00
        E 0 93 2a 22
        E 16 83 2a 00
        E 0 93 2a 11
        E 16 83 2a 00
        E 0 93 2a 08
        E 16 83 2a 00
        E 0 93 2a 66
        E 16 83 2a 00
        E 0 93 2a 3b
        E 16 83 2a 00
        E 0 93 2a 19
        E 16 83 2a 00
        E 0 93 2a 22
        E 16 83 2a 00
        E 0 93 2a 11
        E 16 83 2a 00
        E 0 93 2a 08
        E 16 83 2a 00
        E 0 93 2a 08
        E 32 83 2a 00
        E 64 93 2a 66
        E 16 83 2a 00
        E 0 93 2a 3b
        E 16 83 2a 00
        E 0 93 2a 19
        E 16 83 2a 00
        E 0 93 2a 22
        E 16 83 2a 00
        E 0 93 2a 11
        E 16 83 2a 00
        E 0 93 2a 08
        E 16 83 2a 00
        E 0 93 2a 08
        E 32 83 2a 00
        E 64 93 2a 66
        E 16 83 2a 00
        E 0 93 2a 3b
        E 16 83 2a 00
        E 0 93 2a 19
        E 16 83 2a 00
        E 0 93 2a 22
        E 16 83 2a 00
        E 0 93 2a 11
        E 16 83 2a 00
        E 0 93 2a 08
        E 16 83 2a 00
        E 0 93 2a 08
        E 32 83 2a 00
        E 64 93 2a 66
        E 16 83 2a 00
        E 0 93 2a 3b
        E 16 83 2a 00
        E 0 93 2a 19
        E 16 83 2a 00
        E 0 93 2a 22
        E 16 83 2a 00
        E 0 93 2a 11
        E 16 83 2a 00
        E 0 93 2a 08
        E 16 83 2a 00
        E 0 93 2a 08
        E 32 83 2a 00
        E 64 93 2a 66
        E 16 83 2a 00
        E 0 93 2a 3b
        E 16 83 2a 00
        E 0 93 2a 19
        E 16 83 2a 00
        E 0 93 2a 22
        E 16 83 2a 00
        E 0 93 2a 11
        E 16 83 2a 00
        E 0 93 2a 08
        E 16 83 2a 00
        E 0 93 2a 08
        E 32 83 2a 00
        E 64 93 2a 66
        E 16 83 2a 00
        E 0 93 2a 3b
        E 16 83 2a 00
        E 0 93 2a 19
        E 16 83 2a 00
        E 0 93 2a 22
        E 16 83 2a 00
        E 0 93 2a 11
        E 16 83 2a 00
        E 0 93 2a 08
        E 16 83 2a 00
        E 0 93 2a 08
        E 32 83 2a 00
        E 64 93 2a 66
        E 16 83 2a 00
        E 0 93 2a 3b
        E 16 83 2a 00
        E 0 93 2a 19
        E 16 83 2a 00
        E 0 93 2a 22
        E 16 83 2a 00
        E 0 93 2a 11
        E 16 83 2a 00
        E 0 93 2a 08
        E 16 83 2a 00
        E 0 93 2a 08
        E 32 83 2a 00
        E 64 93 2a 66
        E 16 83 2a 00
        E 0 93 2a 3b
        E 16 83 2a 00
        E 0 93 2a 19
        E 16 83 2a 00
        E 0 93 2a 22
        E 16 83 2a 00
        E 0 93 2a 11
        E 16 83 2a 00
        E 0 93 2a 08
        E 16 83 2a 00
        E 0 93 2a 08
        E 32 83 2a 00
        E 64 93 2a 66
        E 16 83 2a 00
        E 0 93 2a 3b
        E 16 83 2a 00
        E 0 93 2a 19
        E 16 83 2a 00
        E 0 93 2a 33
        E 16 83 2a 00
        E 0 93 2a 08
        E 16 83 2a 00
        E 16 93 2a 33
        E 16 83 2a 00
        E 0 93 2a 08
        E 16 83 2a 00
        E 16 93 2a 33
        E 16 83 2a 00
        E 0 93 2a 08
        E 16 83 2a 00
        E 64 93 2a 33
        E 16 83 2a 00
        E 0 93 2a 08
        E 16 83 2a 00
        E 16 93 2a 33
        E 16 83 2a 00
        E 0 93 2a 08
        E 16 83 2a 00
        E 16 93 2a 33
        E 16 83 2a 00
        E 0 93 2a 08
        E 16 83 2a 00
        E 224 93 2a 7f
        E 16 83 2a 00
        E 0 93 2a 77
        E 176 83 2a 00
        E 0 93 2a 7f
        E 16 83 2a 00
        E 0 93 2a 77
        E 256 83 2a 00
        E 304 93 2a 7f
        E 16 83 2a 00
        E 0 93 2a 77
        E 176 83 2a 00
        E 0 93 2a 7f
        E 16 83 2a 00
        E 0 93 2a 77
        E 176 83 2a 00
        E 0 93 2a 7f
        E 16 83 2a 00
        E 0 93 2a 77
        E 176 83 2a 00
        E 0 93 2a 7f
        E 16 83 2a 00
        E 0 93 2a 77
        E 176 83 2a 00
        E 0 93 2a 7f
        E 16 83 2a 00
        E 0 93 2a 77
        E 176 83 2a 00
        E 0 93 2a 7f
        E 16 83 2a 00
        E 0 93 2a 77
        E 176 83 2a 00
        E 0 93 2a 7f
        E 16 83 2a 00
        E 0 93 2a 77
        E 176 83 2a 00
        E 0 93 2a 7f
        E 16 83 2a 00
        E 0 93 2a 77
        E 176 83 2a 00
        E 0 93 2a 7f
        E 16 83 2a 00
        E 0 93 2a 77
        E 176 83 2a 00
        E 0 93 2a 7f
        E 16 83 2a 00
        E 0 93 2a 77
        E 256 83 2a 00
        E 496 93 2a 7f
        E 16 83 2a 00
        E 0 93 2a 08
        E 16 83 2a 00
        E 144 93 2a 7f
        E 16 83 2a 00
        E 0 93 2a 08
        E 16 83 2a 00
        E 64 93 2a 33
        E 16 83 2a 00
        E 0 93 2a 08
        E 16 83 2a 00
        E 80 93 2a 7f
        E 16 83 2a 00
        E 0 93 2a 08
        E 16 83 2a 00
        E 144 93 2a 7f
        E 16 83 2a 00
        E 0 93 2a 08
        E 16 83 2a 00
        E 64 93 2a 33
        E 16 83 2a 00
        E 0 93 2a 08
        E 16 83 2a 00
        E 80 93 2a 7f
        E 16 83 2a 00
        E 0 93 2a 08
        E 16 83 2a 00
        E 80 b3 7b 00
        E 0 ff 2f 00
      >
    >
  >
>