<REAPER_PROJECT 0.1 "7.27/win64" 1707000000
  <NOTES 0 2
    |ReapNES Studio Project
    |MIDI Import - Silver_Surfer_title_rom_v1
  >
  RIPPLE 0
  GROUPOVERRIDE 0 0 0
  AUTOXFADE 129
  ENVATTACH 3
  POOLEDENVATTACH 0
  MIXERUIFLAGS 11 48
  ENVFADESZ10 40
  PEAKGAIN 1
  FEEDBACK 0
  PANLAW 1
  PROJOFFS 0 0 0
  MAXPROJLEN 0 0
  GRID 3199 8 1 8 1 0 0 0
  TIMEMODE 1 5 -1 30 0 0 -1
  VIDEO_CONFIG 0 0 65792
  PANMODE 3
  PANLAWFLAGS 3
  CURSOR 0
  ZOOM 100 0 0
  VZOOMEX 6 0
  USE_REC_CFG 0
  RECMODE 1
  SMPTESYNC 0 30 100 40 1000 300 0 0 1 0 0
  LOOP 0
  LOOPGRAN 0 4
  RECORD_PATH "Media" ""
  <RECORD_CFG
    ZXZhdxgAAQ==
  >
  <APPLYFX_CFG
  >
  RENDER_FILE ""
  RENDER_PATTERN ""
  RENDER_FMT 0 2 0
  RENDER_1X 0
  RENDER_RANGE 1 0 0 18 1000
  RENDER_RESAMPLE 3 0 1
  RENDER_ADDTOPROJ 0
  RENDER_STEMS 0
  RENDER_DITHER 0
  TIMELOCKMODE 1
  TEMPOENVLOCKMODE 1
  ITEMMIX 1
  DEFPITCHMODE 589824 0
  TAKELANE 1
  SAMPLERATE 44100 0 0
  <RENDER_CFG
    ZXZhdxgAAQ==
  >
  LOCK 1
  <METRONOME 6 2
    VOL 0.25 0.125
    BEATLEN 4
    FREQ 1760 880 1
    SAMPLES "" ""
    SPLIGNORE 0 0
    SPLDEF 2 660 "" 0
    SPLDEF 3 440 "" 0
    PATTERN 0 169
    PATTERNSTR ABBB
    MULT 1
  >
  GLOBAL_AUTO -1
  TEMPO 128.59999614200012 4 4
  PLAYRATE 1 0 0.25 4
  SELECTION 0 0
  SELECTION2 0 0
  MASTERAUTOMODE 0
  MASTERTRACKHEIGHT 0 0
  MASTERPEAKCOL 16576
  MASTERMUTESOLO 0
  MASTERTRACKVIEW 0 0.6667 0.5 0.5 0 0 0 0 0 0 0 0 0 0
  MASTERHWOUT 0 0 1 0 0 0 0 -1
  MASTER_NCH 2 2
  MASTER_VOLUME 1 0 -1 -1 1
  MASTER_PANMODE 3
  MASTER_PANLAWFLAGS 3
  MASTER_FX 1
  MASTER_SEL 0
  <MASTERPLAYSPEEDENV
    EGUID {16172EF9-77BC-4832-BB07-E3994A0EEF89}
    ACT 0 -1
    VIS 0 1 1
    LANEHEIGHT 0 0
    ARM 0
    DEFSHAPE 0 -1 -1
  >
  <TEMPOENVEX
    EGUID {1FFB51F8-BC86-486F-BB17-51AF919E5E49}
    ACT 1 -1
    VIS 1 0 1
    LANEHEIGHT 0 0
    ARM 0
    DEFSHAPE 1 -1 -1
  >
  <PROJBAY
  >
  <TRACK {EF41BFAF-5716-4C7C-92F5-0CA4359AA780}
    NAME "NES - Pulse 1 [ch0]"
    PEAKCOL 16576606
    BEAT -1
    AUTOMODE 0
    PANLAWFLAGS 3
    VOLPAN 1 0 -1 -1 1
    MUTESOLO 0 0 0
    IPHASE 0
    PLAYOFFS 0 1
    ISBUS 0 0
    BUSCOMP 0 0 0 0 0
    SHOWINMIX 1 0.6667 0.5 1 0.5 0 0 0
    FIXEDLANES 9 0 0 0 0
    SEL 1
    REC 1 5088 1 0 0 0 0 0
    VU 2
    TRACKHEIGHT 0 0 0 0 0 0 0
    INQ 0 0 0 0.5 100 0 0 100
    NCHAN 2
    FX 1
    TRACKID {EF41BFAF-5716-4C7C-92F5-0CA4359AA780}
    PERF 0
    MIDIOUT -1
    MAINSEND 1 0
    <FXCHAIN
      WNDRECT 24 52 700 560
      SHOW 0
      LASTSEL 0
      DOCKED 0
      BYPASS 0 0 0
      <JS "ReapNES Studio/ReapNES_Console.jsfx" ""
        2 15 1 10 80 10 100 2 1 15 1 5 60 10 80 1 1 0 50 0 0 15 1 0 100 0 0 0.500000 0.500000 0.400000 0.300000 0.800000 0 1 0 0 0 0 - - - - - - - - - - - - - - - - - - - - - - - - - -
      >
      FLOATPOS 0 0 0 0
      FXID {29E64FF2-0107-46AF-8467-D004EC877A27}
      WAK 0 0
    >
    <ITEM
      POSITION 0
      LENGTH 74.60342370000001
      LOOP 0
      ALLTAKES 0
      FADEIN 0 0 0 0 0 0 0
      FADEOUT 0 0 0 0 0 0 0
      MUTE 0 0
      SEL 0
      IGUID {5E07F9B2-BC77-4FDA-AD81-EBADE7553977}
      <SOURCE MIDI
        HASDATA 1 480 QN
        CCINTERP 32
        E 0 c0 50
        E 0 b0 0c 40
        E 0 b0 0b 19
        E 0 90 2d 19
        E 512 80 2d 00
        E 0 90 39 19
        E 464 80 39 00
        E 48 90 39 19
        E 48 80 39 00
        E 64 90 39 19
        E 48 80 39 00
        E 64 90 39 19
        E 176 80 39 00
        E 48 90 39 19
        E 48 80 39 00
        E 64 90 39 19
        E 48 80 39 00
        E 64 90 39 19
        E 176 80 39 00
        E 48 90 39 19
        E 48 80 39 00
        E 64 90 39 19
        E 176 80 39 00
        E 48 90 39 19
        E 64 80 39 00
        E 48 90 39 19
        E 32 80 39 00
        E 80 90 39 19
        E 64 80 39 00
        E 48 90 39 19
        E 48 80 39 00
        E 64 90 39 19
        E 48 80 39 00
        E 64 90 39 19
        E 176 80 39 00
        E 48 90 39 19
        E 48 80 39 00
        E 64 90 39 19
        E 48 80 39 00
        E 64 90 39 19
        E 176 80 39 00
        E 48 90 39 19
        E 48 80 39 00
        E 64 90 39 19
        E 176 80 39 00
        E 48 90 39 19
        E 64 80 39 00
        E 48 90 39 19
        E 32 80 39 00
        E 80 90 39 19
        E 64 80 39 00
        E 48 90 39 19
        E 48 80 39 00
        E 64 90 39 19
        E 48 80 39 00
        E 64 90 39 19
        E 112 80 39 00
        E 0 90 22 19
        E 64 80 22 00
        E 48 90 22 19
        E 48 80 22 00
        E 64 90 22 19
        E 48 80 22 00
        E 64 90 22 19
        E 176 80 22 00
        E 48 90 22 19
        E 48 80 22 00
        E 64 90 22 19
        E 48 80 22 00
        E 64 90 26 19
        E 176 80 26 00
        E 48 90 26 19
        E 48 80 26 00
        E 64 90 26 19
        E 176 80 26 00
        E 48 90 26 19
        E 64 80 26 00
        E 48 90 26 19
        E 32 80 26 00
        E 80 90 26 19
        E 64 80 26 00
        E 48 90 26 19
        E 48 80 26 00
        E 64 90 2d 19
        E 48 80 2d 00
        E 64 90 2d 19
        E 176 80 2d 00
        E 48 90 2d 19
        E 48 80 2d 00
        E 64 90 2d 19
        E 48 80 2d 00
        E 64 90 2d 19
        E 176 80 2d 00
        E 48 90 2d 19
        E 48 80 2d 00
        E 64 90 2d 19
        E 112 80 2d 00
        E 0 90 39 19
        E 64 80 39 00
        E 48 90 39 19
        E 64 80 39 00
        E 48 90 39 19
        E 32 80 39 00
        E 80 90 39 19
        E 64 80 39 00
        E 48 90 39 19
        E 48 80 39 00
        E 64 90 39 19
        E 48 80 39 00
        E 64 90 39 19
        E 112 b0 0c 10
        E 0 b0 0b 33
        E 0 80 39 00
        E 0 90 25 33
        E 16 b0 0b 2a
        E 0 80 25 00
        E 0 90 31 2a
        E 16 b0 0b 22
        E 0 80 31 00
        E 0 90 25 22
        E 16 b0 0b 19
        E 16 b0 0b 11
        E 16 b0 0b 08
        E 16 b0 0b 11
        E 16 b0 0b 19
        E 16 b0 0b 22
        E 16 b0 0b 2a
        E 16 b0 0b 33
        E 16 80 25 00
        E 48 90 25 33
        E 16 80 25 00
        E 96 90 25 33
        E 16 80 25 00
        E 96 90 25 33
        E 16 b0 0b 2a
        E 0 80 25 00
        E 0 90 31 2a
        E 16 b0 0b 22
        E 0 80 31 00
        E 0 90 25 22
        E 16 b0 0b 19
        E 16 b0 0b 11
        E 16 b0 0b 08
        E 16 b0 0b 11
        E 16 b0 0b 19
        E 16 b0 0b 22
        E 16 b0 0b 2a
        E 16 b0 0b 33
        E 16 80 25 00
        E 48 90 25 33
        E 16 80 25 00
        E 96 90 25 33
        E 16 80 25 00
        E 96 90 25 33
        E 16 b0 0b 2a
        E 0 80 25 00
        E 0 90 2f 2a
        E 16 b0 0b 22
        E 0 80 2f 00
        E 0 90 23 22
        E 16 b0 0b 19
        E 16 b0 0b 11
        E 16 b0 0b 08
        E 16 b0 0b 11
        E 16 b0 0b 33
        E 16 b0 0b 2a
        E 0 80 23 00
        E 0 90 31 2a
        E 16 b0 0b 22
        E 0 80 31 00
        E 0 90 25 22
        E 16 b0 0b 19
        E 16 b0 0b 11
        E 16 b0 0b 08
        E 16 b0 0b 11
        E 16 b0 0b 19
        E 16 b0 0b 22
        E 16 b0 0b 2a
        E 16 b0 0b 33
        E 16 80 25 00
        E 48 90 25 33
        E 16 b0 0b 2a
        E 0 80 25 00
        E 0 90 2f 2a
        E 16 b0 0b 22
        E 0 80 2f 00
        E 0 90 23 22
        E 16 b0 0b 19
        E 16 b0 0b 11
        E 16 b0 0b 08
        E 16 b0 0b 11
        E 16 b0 0b 33
        E 0 80 23 00
        E 0 90 28 33
        E 16 b0 0b 2a
        E 0 80 28 00
        E 0 90 34 2a
        E 16 b0 0b 22
        E 0 80 34 00
        E 0 90 28 22
        E 16 b0 0b 19
        E 16 b0 0b 11
        E 16 b0 0b 08
        E 16 b0 0b 11
        E 16 b0 0b 19
        E 16 b0 0b 22
        E 16 b0 0b 2a
        E 16 b0 0b 33
        E 16 80 28 00
        E 48 90 28 33
        E 16 b0 0b 2a
        E 0 80 28 00
        E 0 90 34 2a
        E 16 b0 0b 22
        E 0 80 34 00
        E 0 90 28 22
        E 16 b0 0b 19
        E 16 b0 0b 11
        E 16 b0 0b 08
        E 16 b0 0b 11
        E 16 b0 0b 33
        E 16 b0 0b 2a
        E 0 80 28 00
        E 0 90 36 2a
        E 16 b0 0b 22
        E 0 80 36 00
        E 0 90 2a 22
        E 16 b0 0b 19
        E 16 b0 0b 11
        E 16 b0 0b 08
        E 16 b0 0b 11
        E 16 b0 0b 33
        E 0 80 2a 00
        E 0 90 25 33
        E 16 b0 0b 2a
        E 0 80 25 00
        E 0 90 31 2a
        E 16 b0 0b 22
        E 0 80 31 00
        E 0 90 25 22
        E 16 b0 0b 19
        E 16 b0 0b 11
        E 16 b0 0b 08
        E 16 b0 0b 11
        E 16 b0 0b 19
        E 16 b0 0b 22
        E 16 b0 0b 2a
        E 16 b0 0b 33
        E 16 80 25 00
        E 48 90 25 33
        E 16 80 25 00
        E 96 90 25 33
        E 16 80 25 00
        E 96 90 25 33
        E 16 b0 0b 2a
        E 0 80 25 00
        E 0 90 31 2a
        E 16 b0 0b 22
        E 0 80 31 00
        E 0 90 25 22
        E 16 b0 0b 19
        E 16 b0 0b 11
        E 16 b0 0b 08
        E 16 b0 0b 11
        E 16 b0 0b 19
        E 16 b0 0b 22
        E 16 b0 0b 2a
        E 16 b0 0b 33
        E 16 80 25 00
        E 48 90 25 33
        E 16 80 25 00
        E 96 90 25 33
        E 16 80 25 00
        E 96 90 25 33
        E 16 b0 0b 2a
        E 0 80 25 00
        E 0 90 2f 2a
        E 16 b0 0b 22
        E 0 80 2f 00
        E 0 90 23 22
        E 16 b0 0b 19
        E 16 b0 0b 11
        E 16 b0 0b 08
        E 16 b0 0b 11
        E 16 b0 0b 19
        E 16 b0 0b 22
        E 16 b0 0b 2a
        E 16 b0 0b 33
        E 16 80 23 00
        E 48 90 23 33
        E 16 b0 0b 2a
        E 0 80 23 00
        E 0 90 2f 2a
        E 16 b0 0b 22
        E 0 80 2f 00
        E 0 90 23 22
        E 16 b0 0b 19
        E 16 b0 0b 11
        E 16 b0 0b 08
        E 16 b0 0b 11
        E 16 b0 0b 33
        E 16 b0 0b 2a
        E 0 80 23 00
        E 0 90 31 2a
        E 16 b0 0b 22
        E 0 80 31 00
        E 0 90 25 22
        E 16 b0 0b 19
        E 16 b0 0b 11
        E 16 b0 0b 08
        E 16 b0 0b 11
        E 16 b0 0b 33
        E 0 80 25 00
        E 0 90 28 33
        E 16 b0 0b 2a
        E 0 80 28 00
        E 0 90 34 2a
        E 16 b0 0b 22
        E 0 80 34 00
        E 0 90 28 22
        E 16 b0 0b 19
        E 16 b0 0b 11
        E 16 b0 0b 08
        E 16 b0 0b 11
        E 16 b0 0b 19
        E 16 b0 0b 22
        E 16 b0 0b 2a
        E 16 b0 0b 33
        E 16 80 28 00
        E 48 90 28 33
        E 16 b0 0b 2a
        E 0 80 28 00
        E 0 90 34 2a
        E 16 b0 0b 22
        E 0 80 34 00
        E 0 90 28 22
        E 16 b0 0b 19
        E 16 b0 0b 11
        E 16 b0 0b 08
        E 16 b0 0b 11
        E 16 b0 0b 33
        E 16 b0 0b 2a
        E 0 80 28 00
        E 0 90 33 2a
        E 16 b0 0b 22
        E 0 80 33 00
        E 0 90 27 22
        E 16 b0 0b 19
        E 16 b0 0b 11
        E 16 b0 0b 08
        E 16 b0 0b 11
        E 16 b0 0b 33
        E 0 80 27 00
        E 0 90 25 33
        E 16 b0 0b 2a
        E 0 80 25 00
        E 0 90 31 2a
        E 16 b0 0b 22
        E 0 80 31 00
        E 0 90 25 22
        E 16 b0 0b 19
        E 16 b0 0b 11
        E 16 b0 0b 08
        E 16 b0 0b 11
        E 16 b0 0b 19
        E 16 b0 0b 22
        E 16 b0 0b 2a
        E 16 b0 0b 33
        E 16 80 25 00
        E 48 90 25 33
        E 16 80 25 00
        E 96 90 25 33
        E 16 80 25 00
        E 96 90 25 33
        E 16 b0 0b 2a
        E 0 80 25 00
        E 0 90 31 2a
        E 16 b0 0b 22
        E 0 80 31 00
        E 0 90 25 22
        E 16 b0 0b 19
        E 16 b0 0b 11
        E 16 b0 0b 08
        E 16 b0 0b 11
        E 16 b0 0b 19
        E 16 b0 0b 22
        E 16 b0 0b 2a
        E 16 b0 0b 33
        E 16 80 25 00
        E 48 90 25 33
        E 16 80 25 00
        E 96 90 25 33
        E 16 80 25 00
        E 96 90 25 33
        E 16 b0 0b 2a
        E 0 80 25 00
        E 0 90 2f 2a
        E 16 b0 0b 22
        E 0 80 2f 00
        E 0 90 23 22
        E 16 b0 0b 19
        E 16 b0 0b 11
        E 16 b0 0b 08
        E 16 b0 0b 11
        E 16 b0 0b 33
        E 16 b0 0b 2a
        E 0 80 23 00
        E 0 90 31 2a
        E 16 b0 0b 22
        E 0 80 31 00
        E 0 90 25 22
        E 16 b0 0b 19
        E 16 b0 0b 11
        E 16 b0 0b 08
        E 16 b0 0b 11
        E 16 b0 0b 19
        E 16 b0 0b 22
        E 16 b0 0b 2a
        E 16 b0 0b 33
        E 16 80 25 00
        E 48 90 25 33
        E 16 b0 0b 2a
        E 0 80 25 00
        E 0 90 2f 2a
        E 16 b0 0b 22
        E 0 80 2f 00
        E 0 90 23 22
        E 16 b0 0b 19
        E 16 b0 0b 11
        E 16 b0 0b 08
        E 16 b0 0b 11
        E 16 b0 0b 33
        E 0 80 23 00
        E 0 90 28 33
        E 16 b0 0b 2a
        E 0 80 28 00
        E 0 90 34 2a
        E 16 b0 0b 22
        E 0 80 34 00
        E 0 90 28 22
        E 16 b0 0b 19
        E 16 b0 0b 11
        E 16 b0 0b 08
        E 16 b0 0b 11
        E 16 b0 0b 19
        E 16 b0 0b 22
        E 16 b0 0b 2a
        E 16 b0 0b 33
        E 16 80 28 00
        E 48 90 28 33
        E 16 b0 0b 2a
        E 0 80 28 00
        E 0 90 34 2a
        E 16 b0 0b 22
        E 0 80 34 00
        E 0 90 28 22
        E 16 b0 0b 19
        E 16 b0 0b 11
        E 16 b0 0b 08
        E 16 b0 0b 11
        E 16 b0 0b 33
        E 16 b0 0b 2a
        E 0 80 28 00
        E 0 90 36 2a
        E 16 b0 0b 22
        E 0 80 36 00
        E 0 90 2a 22
        E 16 b0 0b 19
        E 16 b0 0b 11
        E 16 b0 0b 08
        E 16 b0 0b 11
        E 16 b0 0b 33
        E 0 80 2a 00
        E 0 90 25 33
        E 16 b0 0b 2a
        E 0 80 25 00
        E 0 90 31 2a
        E 16 b0 0b 22
        E 0 80 31 00
        E 0 90 25 22
        E 16 b0 0b 19
        E 16 b0 0b 11
        E 16 b0 0b 08
        E 16 b0 0b 11
        E 16 b0 0b 19
        E 16 b0 0b 22
        E 16 b0 0b 2a
        E 16 b0 0b 33
        E 16 80 25 00
        E 48 90 25 33
        E 16 80 25 00
        E 96 90 25 33
        E 16 80 25 00
        E 96 90 25 33
        E 16 b0 0b 2a
        E 0 80 25 00
        E 0 90 31 2a
        E 16 b0 0b 22
        E 0 80 31 00
        E 0 90 25 22
        E 16 b0 0b 19
        E 16 b0 0b 11
        E 16 b0 0b 08
        E 16 b0 0b 11
        E 16 b0 0b 19
        E 16 b0 0b 22
        E 16 b0 0b 2a
        E 16 b0 0b 33
        E 16 80 25 00
        E 48 90 25 33
        E 16 80 25 00
        E 96 90 25 33
        E 16 80 25 00
        E 96 90 25 33
        E 16 b0 0b 2a
        E 0 80 25 00
        E 0 90 2f 2a
        E 16 b0 0b 22
        E 0 80 2f 00
        E 0 90 23 22
        E 16 b0 0b 19
        E 16 b0 0b 11
        E 16 b0 0b 08
        E 16 b0 0b 11
        E 16 b0 0b 19
        E 16 b0 0b 22
        E 16 b0 0b 2a
        E 16 b0 0b 33
        E 16 80 23 00
        E 48 90 23 33
        E 16 b0 0b 2a
        E 0 80 23 00
        E 0 90 2f 2a
        E 16 b0 0b 22
        E 0 80 2f 00
        E 0 90 23 22
        E 16 b0 0b 19
        E 16 b0 0b 11
        E 16 b0 0b 08
        E 16 b0 0b 11
        E 16 b0 0b 33
        E 16 b0 0b 2a
        E 0 80 23 00
        E 0 90 31 2a
        E 16 b0 0b 22
        E 0 80 31 00
        E 0 90 25 22
        E 16 b0 0b 19
        E 16 b0 0b 11
        E 16 b0 0b 08
        E 16 b0 0b 11
        E 16 b0 0b 33
        E 0 80 25 00
        E 0 90 28 33
        E 16 b0 0b 2a
        E 0 80 28 00
        E 0 90 34 2a
        E 16 b0 0b 22
        E 0 80 34 00
        E 0 90 28 22
        E 16 b0 0b 19
        E 16 b0 0b 11
        E 16 b0 0b 08
        E 16 b0 0b 11
        E 16 b0 0b 19
        E 16 b0 0b 22
        E 16 b0 0b 2a
        E 16 b0 0b 33
        E 16 80 28 00
        E 48 90 28 33
        E 16 b0 0b 2a
        E 0 80 28 00
        E 0 90 34 2a
        E 16 b0 0b 22
        E 0 80 34 00
        E 0 90 28 22
        E 16 b0 0b 19
        E 16 b0 0b 11
        E 16 b0 0b 08
        E 16 b0 0b 11
        E 16 b0 0b 33
        E 16 b0 0b 2a
        E 0 80 28 00
        E 0 90 33 2a
        E 16 b0 0b 22
        E 0 80 33 00
        E 0 90 27 22
        E 16 b0 0b 19
        E 16 b0 0b 11
        E 16 b0 0b 08
        E 16 b0 0b 11
        E 16 b0 0b 33
        E 0 80 27 00
        E 0 90 25 33
        E 16 b0 0b 2a
        E 0 80 25 00
        E 0 90 31 2a
        E 16 b0 0b 22
        E 0 80 31 00
        E 0 90 25 22
        E 16 b0 0b 19
        E 16 b0 0b 11
        E 16 b0 0b 08
        E 16 b0 0b 11
        E 16 b0 0b 19
        E 16 b0 0b 22
        E 16 b0 0b 2a
        E 16 b0 0b 33
        E 16 80 25 00
        E 48 90 25 33
        E 16 80 25 00
        E 96 90 25 33
        E 16 80 25 00
        E 96 90 25 33
        E 16 b0 0b 2a
        E 0 80 25 00
        E 0 90 31 2a
        E 16 b0 0b 22
        E 0 80 31 00
        E 0 90 25 22
        E 16 b0 0b 19
        E 16 b0 0b 11
        E 16 b0 0b 08
        E 16 b0 0b 11
        E 16 b0 0b 19
        E 16 b0 0b 22
        E 16 b0 0b 2a
        E 16 b0 0b 33
        E 16 80 25 00
        E 48 90 25 33
        E 16 80 25 00
        E 96 90 25 33
        E 16 80 25 00
        E 96 90 25 33
        E 16 b0 0b 2a
        E 0 80 25 00
        E 0 90 2f 2a
        E 16 b0 0b 22
        E 0 80 2f 00
        E 0 90 23 22
        E 16 b0 0b 19
        E 16 b0 0b 11
        E 16 b0 0b 08
        E 16 b0 0b 11
        E 16 b0 0b 33
        E 16 b0 0b 2a
        E 0 80 23 00
        E 0 90 31 2a
        E 16 b0 0b 22
        E 0 80 31 00
        E 0 90 25 22
        E 16 b0 0b 19
        E 16 b0 0b 11
        E 16 b0 0b 08
        E 16 b0 0b 11
        E 16 b0 0b 19
        E 16 b0 0b 22
        E 16 b0 0b 2a
        E 16 b0 0b 33
        E 16 80 25 00
        E 48 90 25 33
        E 16 b0 0b 2a
        E 0 80 25 00
        E 0 90 2f 2a
        E 16 b0 0b 22
        E 0 80 2f 00
        E 0 90 23 22
        E 16 b0 0b 19
        E 16 b0 0b 11
        E 16 b0 0b 08
        E 16 b0 0b 11
        E 16 b0 0b 33
        E 0 80 23 00
        E 0 90 28 33
        E 16 b0 0b 2a
        E 0 80 28 00
        E 0 90 34 2a
        E 16 b0 0b 22
        E 0 80 34 00
        E 0 90 28 22
        E 16 b0 0b 19
        E 16 b0 0b 11
        E 16 b0 0b 08
        E 16 b0 0b 11
        E 16 b0 0b 19
        E 16 b0 0b 22
        E 16 b0 0b 2a
        E 16 b0 0b 33
        E 16 80 28 00
        E 48 90 28 33
        E 16 b0 0b 2a
        E 0 80 28 00
        E 0 90 34 2a
        E 16 b0 0b 22
        E 0 80 34 00
        E 0 90 28 22
        E 16 b0 0b 19
        E 16 b0 0b 11
        E 16 b0 0b 08
        E 16 b0 0b 11
        E 16 b0 0b 33
        E 16 b0 0b 2a
        E 0 80 28 00
        E 0 90 36 2a
        E 16 b0 0b 22
        E 0 80 36 00
        E 0 90 2a 22
        E 16 b0 0b 19
        E 16 b0 0b 11
        E 16 b0 0b 08
        E 16 b0 0b 11
        E 16 b0 0b 33
        E 0 80 2a 00
        E 0 90 25 33
        E 16 b0 0b 2a
        E 0 80 25 00
        E 0 90 31 2a
        E 16 b0 0b 22
        E 0 80 31 00
        E 0 90 25 22
        E 16 b0 0b 19
        E 16 b0 0b 11
        E 16 b0 0b 08
        E 16 b0 0b 11
        E 16 b0 0b 19
        E 16 b0 0b 22
        E 16 b0 0b 2a
        E 16 b0 0b 33
        E 16 80 25 00
        E 48 90 25 33
        E 16 80 25 00
        E 96 90 25 33
        E 16 80 25 00
        E 96 90 25 33
        E 16 b0 0b 2a
        E 0 80 25 00
        E 0 90 31 2a
        E 16 b0 0b 22
        E 0 80 31 00
        E 0 90 25 22
        E 16 b0 0b 19
        E 16 b0 0b 11
        E 16 b0 0b 08
        E 16 b0 0b 11
        E 16 b0 0b 19
        E 16 b0 0b 22
        E 16 b0 0b 2a
        E 16 b0 0b 33
        E 16 80 25 00
        E 48 90 25 33
        E 16 80 25 00
        E 96 90 25 33
        E 16 80 25 00
        E 96 90 25 33
        E 16 b0 0b 2a
        E 0 80 25 00
        E 0 90 2f 2a
        E 16 b0 0b 22
        E 0 80 2f 00
        E 0 90 23 22
        E 16 b0 0b 19
        E 16 b0 0b 11
        E 16 b0 0b 08
        E 16 b0 0b 11
        E 16 b0 0b 19
        E 16 b0 0b 22
        E 16 b0 0b 2a
        E 16 b0 0b 33
        E 16 80 23 00
        E 48 90 23 33
        E 16 b0 0b 2a
        E 0 80 23 00
        E 0 90 2f 2a
        E 16 b0 0b 22
        E 0 80 2f 00
        E 0 90 23 22
        E 16 b0 0b 19
        E 16 b0 0b 11
        E 16 b0 0b 08
        E 16 b0 0b 11
        E 16 b0 0b 33
        E 16 b0 0b 2a
        E 0 80 23 00
        E 0 90 31 2a
        E 16 b0 0b 22
        E 0 80 31 00
        E 0 90 25 22
        E 16 b0 0b 19
        E 16 b0 0b 11
        E 16 b0 0b 08
        E 16 b0 0b 11
        E 16 b0 0b 33
        E 0 80 25 00
        E 0 90 28 33
        E 16 b0 0b 2a
        E 0 80 28 00
        E 0 90 34 2a
        E 16 b0 0b 22
        E 0 80 34 00
        E 0 90 28 22
        E 16 b0 0b 19
        E 16 b0 0b 11
        E 16 b0 0b 08
        E 16 b0 0b 11
        E 16 b0 0b 19
        E 16 b0 0b 22
        E 16 b0 0b 2a
        E 16 b0 0b 33
        E 16 80 28 00
        E 48 90 28 33
        E 16 b0 0b 2a
        E 0 80 28 00
        E 0 90 34 2a
        E 16 b0 0b 22
        E 0 80 34 00
        E 0 90 28 22
        E 16 b0 0b 19
        E 16 b0 0b 11
        E 16 b0 0b 08
        E 16 b0 0b 11
        E 16 b0 0b 33
        E 16 b0 0b 2a
        E 0 80 28 00
        E 0 90 33 2a
        E 16 b0 0b 22
        E 0 80 33 00
        E 0 90 27 22
        E 16 b0 0b 19
        E 16 b0 0b 11
        E 16 b0 0b 08
        E 16 b0 0b 11
        E 16 b0 0b 33
        E 0 80 27 00
        E 0 90 25 33
        E 16 b0 0b 2a
        E 0 80 25 00
        E 0 90 31 2a
        E 16 b0 0b 22
        E 0 80 31 00
        E 0 90 25 22
        E 16 b0 0b 19
        E 16 b0 0b 11
        E 16 b0 0b 08
        E 16 b0 0b 11
        E 16 b0 0b 19
        E 16 b0 0b 22
        E 16 b0 0b 2a
        E 16 b0 0b 33
        E 16 80 25 00
        E 48 90 25 33
        E 16 80 25 00
        E 96 90 25 33
        E 16 80 25 00
        E 96 90 25 33
        E 16 b0 0b 2a
        E 0 80 25 00
        E 0 90 31 2a
        E 16 b0 0b 22
        E 0 80 31 00
        E 0 90 25 22
        E 16 b0 0b 19
        E 16 b0 0b 11
        E 16 b0 0b 08
        E 16 b0 0b 11
        E 16 b0 0b 19
        E 16 b0 0b 22
        E 16 b0 0b 2a
        E 16 b0 0b 33
        E 16 80 25 00
        E 48 90 25 33
        E 16 80 25 00
        E 96 90 25 33
        E 16 80 25 00
        E 96 90 25 33
        E 16 b0 0b 2a
        E 0 80 25 00
        E 0 90 2f 2a
        E 16 b0 0b 22
        E 0 80 2f 00
        E 0 90 23 22
        E 16 b0 0b 19
        E 16 b0 0b 11
        E 16 b0 0b 08
        E 16 b0 0b 11
        E 16 b0 0b 33
        E 16 b0 0b 2a
        E 0 80 23 00
        E 0 90 31 2a
        E 16 b0 0b 22
        E 0 80 31 00
        E 0 90 25 22
        E 16 b0 0b 19
        E 16 b0 0b 11
        E 16 b0 0b 08
        E 16 b0 0b 11
        E 16 b0 0b 19
        E 16 b0 0b 22
        E 16 b0 0b 2a
        E 16 b0 0b 33
        E 16 80 25 00
        E 48 90 25 33
        E 16 b0 0b 2a
        E 0 80 25 00
        E 0 90 2f 2a
        E 16 b0 0b 22
        E 0 80 2f 00
        E 0 90 23 22
        E 16 b0 0b 19
        E 16 b0 0b 11
        E 16 b0 0b 08
        E 16 b0 0b 11
        E 16 b0 0b 33
        E 0 80 23 00
        E 0 90 28 33
        E 16 b0 0b 2a
        E 0 80 28 00
        E 0 90 34 2a
        E 16 b0 0b 22
        E 0 80 34 00
        E 0 90 28 22
        E 16 b0 0b 19
        E 16 b0 0b 11
        E 16 b0 0b 08
        E 16 b0 0b 11
        E 16 b0 0b 19
        E 16 b0 0b 22
        E 16 b0 0b 2a
        E 16 b0 0b 33
        E 16 80 28 00
        E 48 90 28 33
        E 16 b0 0b 2a
        E 0 80 28 00
        E 0 90 34 2a
        E 16 b0 0b 22
        E 0 80 34 00
        E 0 90 28 22
        E 16 b0 0b 19
        E 16 b0 0b 11
        E 16 b0 0b 08
        E 16 b0 0b 11
        E 16 b0 0b 33
        E 16 b0 0b 2a
        E 0 80 28 00
        E 0 90 36 2a
        E 16 b0 0b 22
        E 0 80 36 00
        E 0 90 2a 22
        E 16 b0 0b 19
        E 16 b0 0b 11
        E 16 b0 0b 08
        E 16 b0 0b 11
        E 16 b0 0b 33
        E 0 80 2a 00
        E 0 90 25 33
        E 16 b0 0b 2a
        E 0 80 25 00
        E 0 90 31 2a
        E 16 b0 0b 22
        E 0 80 31 00
        E 0 90 25 22
        E 16 b0 0b 19
        E 16 b0 0b 11
        E 16 b0 0b 08
        E 16 b0 0b 11
        E 16 b0 0b 19
        E 16 b0 0b 22
        E 16 b0 0b 2a
        E 16 b0 0b 33
        E 16 80 25 00
        E 48 90 25 33
        E 16 80 25 00
        E 96 90 25 33
        E 16 80 25 00
        E 96 90 25 33
        E 16 b0 0b 2a
        E 0 80 25 00
        E 0 90 31 2a
        E 16 b0 0b 22
        E 0 80 31 00
        E 0 90 25 22
        E 16 b0 0b 19
        E 16 b0 0b 11
        E 16 b0 0b 08
        E 16 b0 0b 11
        E 16 b0 0b 19
        E 16 b0 0b 22
        E 16 b0 0b 2a
        E 16 b0 0b 33
        E 16 80 25 00
        E 48 90 25 33
        E 16 80 25 00
        E 96 90 25 33
        E 16 80 25 00
        E 96 90 25 33
        E 16 b0 0b 2a
        E 0 80 25 00
        E 0 90 2f 2a
        E 16 b0 0b 22
        E 0 80 2f 00
        E 0 90 23 22
        E 16 b0 0b 19
        E 16 b0 0b 11
        E 16 b0 0b 08
        E 16 b0 0b 11
        E 16 b0 0b 19
        E 16 b0 0b 22
        E 16 b0 0b 2a
        E 16 b0 0b 33
        E 16 80 23 00
        E 48 90 23 33
        E 16 b0 0b 2a
        E 0 80 23 00
        E 0 90 2f 2a
        E 16 b0 0b 22
        E 0 80 2f 00
        E 0 90 23 22
        E 16 b0 0b 19
        E 16 b0 0b 11
        E 16 b0 0b 08
        E 16 b0 0b 11
        E 16 b0 0b 33
        E 16 b0 0b 2a
        E 0 80 23 00
        E 0 90 31 2a
        E 16 b0 0b 22
        E 0 80 31 00
        E 0 90 25 22
        E 16 b0 0b 19
        E 16 b0 0b 11
        E 16 b0 0b 08
        E 16 b0 0b 11
        E 16 b0 0b 33
        E 0 80 25 00
        E 0 90 28 33
        E 16 b0 0b 2a
        E 0 80 28 00
        E 0 90 34 2a
        E 16 b0 0b 22
        E 0 80 34 00
        E 0 90 28 22
        E 16 b0 0b 19
        E 16 b0 0b 11
        E 16 b0 0b 08
        E 16 b0 0b 11
        E 16 b0 0b 19
        E 16 b0 0b 22
        E 16 b0 0b 2a
        E 16 b0 0b 33
        E 16 80 28 00
        E 48 90 28 33
        E 16 b0 0b 2a
        E 0 80 28 00
        E 0 90 34 2a
        E 16 b0 0b 22
        E 0 80 34 00
        E 0 90 28 22
        E 16 b0 0b 19
        E 16 b0 0b 11
        E 16 b0 0b 08
        E 16 b0 0b 11
        E 16 b0 0b 33
        E 16 b0 0b 2a
        E 0 80 28 00
        E 0 90 33 2a
        E 16 b0 0b 22
        E 0 80 33 00
        E 0 90 27 22
        E 16 b0 0b 19
        E 16 b0 0b 11
        E 16 b0 0b 08
        E 16 b0 0b 11
        E 16 b0 0c 60
        E 0 b0 0b 08
        E 16 b0 0b 19
        E 64 80 27 00
        E 0 90 2d 19
        E 192 80 2d 00
        E 0 90 39 19
        E 16 80 39 00
        E 0 90 3a 19
        E 2400 b0 0b 08
        E 16 b0 0b 19
        E 880 b0 0b 08
        E 16 b0 0b 19
        E 656 b0 0b 08
        E 16 b0 0b 19
        E 96 b0 0b 08
        E 16 b0 0b 19
        E 96 b0 0b 08
        E 16 b0 0b 19
        E 880 b0 0c 40
        E 336 80 3a 00
        E 0 90 38 19
        E 112 b0 0b 11
        E 0 80 38 00
        E 0 90 40 11
        E 336 80 40 00
        E 0 90 38 11
        E 112 b0 0b 19
        E 0 80 38 00
        E 0 90 42 19
        E 368 80 42 00
        E 0 90 38 19
        E 80 b0 0b 11
        E 0 80 38 00
        E 0 90 42 11
        E 368 80 42 00
        E 0 90 38 11
        E 80 b0 0c 60
        E 0 b0 0b 08
        E 16 b0 0b 19
        E 0 80 38 00
        E 0 90 3a 19
        E 2672 b0 0b 08
        E 16 b0 0b 19
        E 880 b0 0b 08
        E 16 b0 0b 19
        E 656 b0 0b 08
        E 16 b0 0b 19
        E 96 b0 0b 08
        E 16 b0 0b 19
        E 96 b0 0b 08
        E 16 b0 0b 19
        E 880 b0 0c 40
        E 288 80 3a 00
        E 0 90 38 19
        E 160 b0 0b 11
        E 0 80 38 00
        E 0 90 3d 11
        E 288 80 3d 00
        E 0 90 38 11
        E 160 b0 0b 19
        E 0 80 38 00
        E 0 90 44 19
        E 400 80 44 00
        E 0 90 38 19
        E 48 b0 0b 11
        E 0 80 38 00
        E 0 90 44 11
        E 400 80 44 00
        E 0 90 38 11
        E 48 b0 0c 60
        E 0 b0 0b 19
        E 0 80 38 00
        E 0 90 49 19
        E 336 b0 0b 11
        E 336 b0 0b 19
        E 336 b0 0b 11
        E 336 b0 0b 19
        E 336 b0 0b 11
        E 336 b0 0b 19
        E 336 b0 0b 11
        E 336 b0 0b 19
        E 336 b0 0b 11
        E 112 b0 0b 19
        E 320 80 49 00
        E 0 90 38 19
        E 16 b0 0b 11
        E 0 80 38 00
        E 0 90 3f 11
        E 112 b0 0b 19
        E 288 80 3f 00
        E 0 90 38 19
        E 48 b0 0b 11
        E 0 80 38 00
        E 0 90 3d 11
        E 288 80 3d 00
        E 0 90 38 11
        E 48 b0 0b 19
        E 0 80 38 00
        E 0 90 3b 19
        E 256 80 3b 00
        E 0 90 38 19
        E 80 b0 0b 11
        E 0 80 38 00
        E 0 90 3b 11
        E 256 80 3b 00
        E 0 90 38 11
        E 80 b0 0b 19
        E 336 b0 0b 11
        E 336 b0 0b 19
        E 336 b0 0b 11
        E 336 b0 0b 19
        E 336 b0 0b 11
        E 112 b0 0b 19
        E 0 80 38 00
        E 0 90 3d 19
        E 288 80 3d 00
        E 0 90 38 19
        E 48 b0 0b 11
        E 0 80 38 00
        E 0 90 3d 11
        E 112 b0 0b 19
        E 320 80 3d 00
        E 0 90 38 19
        E 16 b0 0b 11
        E 0 80 38 00
        E 0 90 3f 11
        E 320 80 3f 00
        E 0 90 38 11
        E 16 b0 0b 19
        E 0 80 38 00
        E 0 90 40 19
        E 336 b0 0b 11
        E 336 b0 0b 19
        E 336 b0 0b 11
        E 336 b0 0b 19
        E 336 b0 0b 11
        E 336 b0 0b 19
        E 320 80 40 00
        E 0 90 38 19
        E 16 b0 0b 11
        E 0 80 38 00
        E 0 90 3f 11
        E 112 b0 0b 19
        E 336 b0 0b 11
        E 112 b0 0b 19
        E 288 80 3f 00
        E 0 90 38 19
        E 48 b0 0b 11
        E 0 80 38 00
        E 0 90 3d 11
        E 112 b0 0b 19
        E 256 80 3d 00
        E 0 90 38 19
        E 80 b0 0b 11
        E 0 80 38 00
        E 0 90 3b 11
        E 112 b0 0b 19
        E 288 80 3b 00
        E 0 90 38 19
        E 48 b0 0b 11
        E 0 80 38 00
        E 0 90 3d 11
        E 112 b0 0b 19
        E 320 80 3d 00
        E 0 90 38 19
        E 16 b0 0b 11
        E 0 80 38 00
        E 0 90 3f 11
        E 112 b0 0b 19
        E 336 b0 0b 11
        E 112 b0 0b 19
        E 336 b0 0b 11
        E 112 b0 0b 19
        E 336 b0 0b 11
        E 112 b0 0b 19
        E 336 b0 0b 11
        E 112 b0 0c 10
        E 0 b0 0b 19
        E 640 80 3f 00
        E 0 90 39 19
        E 32 80 39 00
        E 0 90 47 19
        E 544 80 47 00
        E 0 90 39 19
        E 128 80 39 00
        E 0 90 49 19
        E 640 80 49 00
        E 0 90 39 19
        E 32 80 39 00
        E 0 90 4b 19
        E 2208 80 4b 00
        E 0 90 39 19
        E 32 80 39 00
        E 0 90 47 19
        E 544 80 47 00
        E 0 90 39 19
        E 128 80 39 00
        E 0 90 49 19
        E 640 80 49 00
        E 0 90 39 19
        E 32 80 39 00
        E 0 90 4b 19
        E 1568 b0 0c 40
        E 640 80 4b 00
        E 0 90 39 19
        E 32 80 39 00
        E 0 90 47 19
        E 544 80 47 00
        E 0 90 39 19
        E 128 b0 0c 60
        E 0 80 39 00
        E 0 90 49 19
        E 640 80 49 00
        E 0 90 39 19
        E 32 80 39 00
        E 0 90 4b 19
        E 672 b0 0c 10
        E 448 b0 0c 60
        E 448 b0 0c 40
        E 640 80 4b 00
        E 0 90 39 19
        E 32 80 39 00
        E 0 90 47 19
        E 544 80 47 00
        E 0 90 39 19
        E 128 b0 0c 60
        E 0 80 39 00
        E 0 90 49 19
        E 640 80 49 00
        E 0 90 39 19
        E 32 80 39 00
        E 0 90 4b 19
        E 672 b0 0c 10
        E 448 b0 0c 60
        E 448 b0 0c 40
        E 0 80 4b 00
        E 0 90 25 19
        E 64 b0 0b 11
        E 16 b0 0b 08
        E 16 80 25 00
        E 16 b0 0b 19
        E 0 90 25 19
        E 64 b0 0b 11
        E 16 b0 0b 08
        E 16 80 25 00
        E 16 b0 0b 19
        E 0 90 25 19
        E 64 b0 0b 11
        E 16 b0 0b 08
        E 16 80 25 00
        E 16 b0 0b 19
        E 0 90 28 19
        E 64 b0 0b 11
        E 16 b0 0b 08
        E 16 80 28 00
        E 16 b0 0b 19
        E 0 90 28 19
        E 64 b0 0b 11
        E 16 b0 0b 08
        E 16 80 28 00
        E 16 b0 0b 19
        E 0 90 28 19
        E 64 b0 0b 11
        E 16 b0 0b 08
        E 16 80 28 00
        E 16 b0 0b 19
        E 0 90 2f 19
        E 64 b0 0b 11
        E 16 b0 0b 08
        E 16 80 2f 00
        E 16 b0 0b 19
        E 0 90 2f 19
        E 64 b0 0b 11
        E 16 b0 0b 08
        E 16 80 2f 00
        E 16 b0 0b 19
        E 0 90 2f 19
        E 64 b0 0b 11
        E 16 b0 0b 08
        E 16 80 2f 00
        E 16 b0 0b 19
        E 0 90 2f 19
        E 64 b0 0b 11
        E 16 b0 0b 08
        E 16 80 2f 00
        E 16 b0 0b 19
        E 0 90 2f 19
        E 64 b0 0b 11
        E 16 b0 0b 08
        E 16 80 2f 00
        E 16 b0 0b 19
        E 0 90 2f 19
        E 64 b0 0b 11
        E 16 b0 0b 08
        E 16 80 2f 00
        E 16 b0 0b 19
        E 0 90 2c 19
        E 64 b0 0b 11
        E 16 b0 0b 08
        E 16 80 2c 00
        E 16 b0 0b 19
        E 0 90 2c 19
        E 64 b0 0b 11
        E 16 b0 0b 08
        E 16 80 2c 00
        E 16 b0 0b 19
        E 0 90 2c 19
        E 64 b0 0b 11
        E 16 b0 0b 08
        E 16 80 2c 00
        E 16 b0 0b 19
        E 0 90 2c 19
        E 64 b0 0b 11
        E 16 b0 0b 08
        E 16 80 2c 00
        E 16 b0 0b 19
        E 0 90 25 19
        E 64 b0 0b 11
        E 16 b0 0b 08
        E 16 80 25 00
        E 16 b0 0b 19
        E 0 90 25 19
        E 64 b0 0b 11
        E 16 b0 0b 08
        E 16 80 25 00
        E 16 b0 0b 19
        E 0 90 25 19
        E 64 b0 0b 11
        E 16 b0 0b 08
        E 16 80 25 00
        E 16 b0 0b 19
        E 0 90 28 19
        E 64 b0 0b 11
        E 16 b0 0b 08
        E 16 80 28 00
        E 16 b0 0b 19
        E 0 90 28 19
        E 64 b0 0b 11
        E 16 b0 0b 08
        E 16 80 28 00
        E 16 b0 0b 19
        E 0 90 28 19
        E 64 b0 0b 11
        E 16 b0 0b 08
        E 16 80 28 00
        E 16 b0 0b 19
        E 0 90 2f 19
        E 64 b0 0b 11
        E 16 b0 0b 08
        E 16 80 2f 00
        E 16 b0 0b 19
        E 0 90 2f 19
        E 64 b0 0b 11
        E 16 b0 0b 08
        E 16 80 2f 00
        E 16 b0 0b 19
        E 0 90 2f 19
        E 64 b0 0b 11
        E 16 b0 0b 08
        E 16 80 2f 00
        E 16 b0 0b 19
        E 0 90 2f 19
        E 64 b0 0b 11
        E 16 b0 0b 08
        E 16 80 2f 00
        E 16 b0 0b 19
        E 0 90 2f 19
        E 64 b0 0b 11
        E 16 b0 0b 08
        E 16 80 2f 00
        E 16 b0 0b 19
        E 0 90 2f 19
        E 64 b0 0b 11
        E 16 b0 0b 08
        E 16 80 2f 00
        E 16 b0 0b 19
        E 0 90 2c 19
        E 64 b0 0b 11
        E 16 b0 0b 08
        E 16 80 2c 00
        E 16 b0 0b 19
        E 0 90 2c 19
        E 64 b0 0b 11
        E 16 b0 0b 08
        E 16 80 2c 00
        E 16 b0 0b 19
        E 0 90 2c 19
        E 64 b0 0b 11
        E 16 b0 0b 08
        E 16 80 2c 00
        E 16 b0 0b 19
        E 0 90 2c 19
        E 64 b0 0b 11
        E 16 b0 0b 08
        E 16 80 2c 00
        E 16 b0 0b 19
        E 0 90 25 19
        E 16 80 25 00
        E 0 90 38 19
        E 16 80 38 00
        E 0 90 25 19
        E 32 b0 0b 11
        E 16 b0 0b 08
        E 16 80 25 00
        E 16 b0 0b 19
        E 0 90 25 19
        E 16 80 25 00
        E 0 90 36 19
        E 16 80 36 00
        E 0 90 23 19
        E 32 b0 0b 11
        E 16 b0 0b 08
        E 16 80 23 00
        E 16 b0 0b 19
        E 0 90 23 19
        E 16 80 23 00
        E 0 90 38 19
        E 16 80 38 00
        E 0 90 25 19
        E 32 b0 0b 11
        E 16 b0 0b 08
        E 16 80 25 00
        E 16 b0 0b 19
        E 0 90 28 19
        E 16 80 28 00
        E 0 90 3b 19
        E 16 80 3b 00
        E 0 90 28 19
        E 32 b0 0b 11
        E 16 b0 0b 08
        E 16 80 28 00
        E 16 b0 0b 19
        E 0 90 28 19
        E 16 80 28 00
        E 0 90 3d 19
        E 16 80 3d 00
        E 0 90 2a 19
        E 32 b0 0b 11
        E 16 b0 0b 08
        E 16 80 2a 00
        E 16 b0 0b 19
        E 0 90 2a 19
        E 16 80 2a 00
        E 0 90 3f 19
        E 16 80 3f 00
        E 0 90 2c 19
        E 32 b0 0b 11
        E 16 b0 0b 08
        E 16 80 2c 00
        E 16 b0 0b 19
        E 0 90 2f 19
        E 16 80 2f 00
        E 0 90 42 19
        E 16 80 42 00
        E 0 90 2f 19
        E 32 b0 0b 11
        E 16 b0 0b 08
        E 16 80 2f 00
        E 16 b0 0b 19
        E 0 90 2f 19
        E 16 80 2f 00
        E 0 90 44 19
        E 16 80 44 00
        E 0 90 31 19
        E 32 b0 0b 11
        E 16 b0 0b 08
        E 16 80 31 00
        E 16 b0 0b 19
        E 0 90 31 19
        E 16 80 31 00
        E 0 90 47 19
        E 16 80 47 00
        E 0 90 34 19
        E 32 b0 0b 11
        E 16 b0 0b 08
        E 16 80 34 00
        E 16 b0 0b 19
        E 0 90 34 19
        E 16 80 34 00
        E 0 90 42 19
        E 16 80 42 00
        E 0 90 2f 19
        E 32 b0 0b 11
        E 16 b0 0b 08
        E 16 80 2f 00
        E 16 b0 0b 19
        E 0 90 2f 19
        E 16 80 2f 00
        E 0 90 41 19
        E 16 80 41 00
        E 0 90 2e 19
        E 32 b0 0b 11
        E 16 b0 0b 08
        E 16 80 2e 00
        E 16 b0 0b 19
        E 0 90 2e 19
        E 16 80 2e 00
        E 0 90 44 19
        E 16 80 44 00
        E 0 90 31 19
        E 32 b0 0b 11
        E 16 b0 0b 08
        E 16 80 31 00
        E 16 b0 0b 19
        E 0 90 2c 19
        E 16 80 2c 00
        E 0 90 3f 19
        E 16 80 3f 00
        E 0 90 2c 19
        E 32 b0 0b 11
        E 16 b0 0b 08
        E 16 80 2c 00
        E 16 b0 0b 19
        E 0 90 2c 19
        E 16 80 2c 00
        E 0 90 3b 19
        E 16 80 3b 00
        E 0 90 28 19
        E 32 b0 0b 11
        E 16 b0 0b 08
        E 16 80 28 00
        E 16 b0 0b 19
        E 0 90 28 19
        E 16 80 28 00
        E 0 90 3a 19
        E 16 80 3a 00
        E 0 90 27 19
        E 32 b0 0b 11
        E 16 b0 0b 08
        E 16 80 27 00
        E 16 b0 0b 19
        E 0 90 27 19
        E 16 80 27 00
        E 0 90 3d 19
        E 16 80 3d 00
        E 0 90 2a 19
        E 32 b0 0b 11
        E 16 b0 0b 08
        E 16 80 2a 00
        E 16 b0 0b 19
        E 0 90 25 19
        E 16 80 25 00
        E 0 90 38 19
        E 16 80 38 00
        E 0 90 25 19
        E 32 b0 0b 11
        E 16 b0 0b 08
        E 16 80 25 00
        E 16 b0 0b 19
        E 0 90 25 19
        E 16 80 25 00
        E 0 90 36 19
        E 16 80 36 00
        E 0 90 23 19
        E 32 b0 0b 11
        E 16 b0 0b 08
        E 16 80 23 00
        E 16 b0 0b 19
        E 0 90 23 19
        E 16 80 23 00
        E 0 90 38 19
        E 16 80 38 00
        E 0 90 25 19
        E 32 b0 0b 11
        E 16 b0 0b 08
        E 16 80 25 00
        E 16 b0 0b 19
        E 0 90 28 19
        E 16 80 28 00
        E 0 90 3b 19
        E 16 80 3b 00
        E 0 90 28 19
        E 32 b0 0b 11
        E 16 b0 0b 08
        E 16 80 28 00
        E 16 b0 0b 19
        E 0 90 28 19
        E 16 80 28 00
        E 0 90 3d 19
        E 16 80 3d 00
        E 0 90 2a 19
        E 32 b0 0b 11
        E 16 b0 0b 08
        E 16 80 2a 00
        E 16 b0 0b 19
        E 0 90 2a 19
        E 16 80 2a 00
        E 0 90 3f 19
        E 16 80 3f 00
        E 0 90 2c 19
        E 32 b0 0b 11
        E 16 b0 0b 08
        E 16 80 2c 00
        E 16 b0 0b 19
        E 0 90 2f 19
        E 16 80 2f 00
        E 0 90 42 19
        E 16 80 42 00
        E 0 90 2f 19
        E 32 b0 0b 11
        E 16 b0 0b 08
        E 16 80 2f 00
        E 16 b0 0b 19
        E 0 90 2f 19
        E 16 80 2f 00
        E 0 90 44 19
        E 16 80 44 00
        E 0 90 31 19
        E 32 b0 0b 11
        E 16 b0 0b 08
        E 16 80 31 00
        E 16 b0 0b 19
        E 0 90 31 19
        E 16 80 31 00
        E 0 90 47 19
        E 16 80 47 00
        E 0 90 34 19
        E 32 b0 0b 11
        E 16 b0 0b 08
        E 16 80 34 00
        E 16 b0 0b 19
        E 0 90 34 19
        E 16 80 34 00
        E 0 90 42 19
        E 16 80 42 00
        E 0 90 2f 19
        E 32 b0 0b 11
        E 16 b0 0b 08
        E 16 80 2f 00
        E 16 b0 0b 19
        E 0 90 2f 19
        E 16 80 2f 00
        E 0 90 41 19
        E 16 80 41 00
        E 0 90 2e 19
        E 32 b0 0b 11
        E 16 b0 0b 08
        E 16 80 2e 00
        E 16 b0 0b 19
        E 0 90 2e 19
        E 16 80 2e 00
        E 0 90 44 19
        E 16 80 44 00
        E 0 90 31 19
        E 32 b0 0b 11
        E 16 b0 0b 08
        E 16 80 31 00
        E 16 b0 0b 19
        E 0 90 2c 19
        E 16 80 2c 00
        E 0 90 3f 19
        E 16 80 3f 00
        E 0 90 2c 19
        E 32 b0 0b 11
        E 16 b0 0b 08
        E 16 80 2c 00
        E 16 b0 0b 19
        E 0 90 2c 19
        E 16 80 2c 00
        E 0 90 3b 19
        E 16 80 3b 00
        E 0 90 28 19
        E 32 b0 0b 11
        E 16 b0 0b 08
        E 16 80 28 00
        E 16 b0 0b 19
        E 0 90 28 19
        E 16 80 28 00
        E 0 90 3a 19
        E 16 80 3a 00
        E 0 90 27 19
        E 32 b0 0b 11
        E 16 b0 0b 08
        E 16 80 27 00
        E 16 b0 0b 19
        E 0 90 27 19
        E 16 80 27 00
        E 0 90 3d 19
        E 16 80 3d 00
        E 0 90 2a 19
        E 32 b0 0b 11
        E 16 b0 0b 08
        E 16 80 2a 00
        E 16 b0 0b 19
        E 0 90 25 19
        E 16 80 25 00
        E 0 90 38 19
        E 16 80 38 00
        E 0 90 25 19
        E 32 b0 0b 11
        E 16 b0 0b 08
        E 16 80 25 00
        E 16 b0 0b 19
        E 0 90 25 19
        E 16 80 25 00
        E 0 90 36 19
        E 16 80 36 00
        E 0 90 23 19
        E 32 b0 0b 11
        E 16 b0 0b 08
        E 16 80 23 00
        E 16 b0 0b 19
        E 0 90 23 19
        E 16 80 23 00
        E 0 90 38 19
        E 16 80 38 00
        E 0 90 25 19
        E 32 b0 0b 11
        E 16 b0 0b 08
        E 16 80 25 00
        E 16 b0 0b 19
        E 0 90 28 19
        E 16 80 28 00
        E 0 90 3b 19
        E 16 80 3b 00
        E 0 90 28 19
        E 32 b0 0b 11
        E 16 b0 0b 08
        E 16 80 28 00
        E 16 b0 0b 19
        E 0 90 28 19
        E 16 80 28 00
        E 0 90 3d 19
        E 16 80 3d 00
        E 0 90 2a 19
        E 32 b0 0b 11
        E 16 b0 0b 08
        E 16 80 2a 00
        E 16 b0 0b 19
        E 0 90 2a 19
        E 16 80 2a 00
        E 0 90 3f 19
        E 16 80 3f 00
        E 0 90 2c 19
        E 32 b0 0b 11
        E 16 b0 0b 08
        E 16 80 2c 00
        E 16 b0 0b 19
        E 0 90 2f 19
        E 16 80 2f 00
        E 0 90 42 19
        E 16 80 42 00
        E 0 90 2f 19
        E 32 b0 0b 11
        E 16 b0 0b 08
        E 16 80 2f 00
        E 16 b0 0b 19
        E 0 90 2f 19
        E 16 80 2f 00
        E 0 90 44 19
        E 16 80 44 00
        E 0 90 31 19
        E 32 b0 0b 11
        E 16 b0 0b 08
        E 16 80 31 00
        E 16 b0 0b 19
        E 0 90 31 19
        E 16 80 31 00
        E 0 90 47 19
        E 16 80 47 00
        E 0 90 34 19
        E 32 b0 0b 11
        E 16 b0 0b 08
        E 16 80 34 00
        E 16 b0 0b 19
        E 0 90 34 19
        E 16 80 34 00
        E 0 90 42 19
        E 16 80 42 00
        E 0 90 2f 19
        E 32 b0 0b 11
        E 16 b0 0b 08
        E 16 80 2f 00
        E 16 b0 0b 19
        E 0 90 2f 19
        E 16 80 2f 00
        E 0 90 41 19
        E 16 80 41 00
        E 0 90 2e 19
        E 32 b0 0b 11
        E 16 b0 0b 08
        E 16 80 2e 00
        E 16 b0 0b 19
        E 0 90 2e 19
        E 16 80 2e 00
        E 0 90 44 19
        E 16 80 44 00
        E 0 90 31 19
        E 32 b0 0b 11
        E 16 b0 0b 08
        E 16 80 31 00
        E 16 b0 0b 19
        E 0 90 2c 19
        E 16 80 2c 00
        E 0 90 3f 19
        E 16 80 3f 00
        E 0 90 2c 19
        E 32 b0 0b 11
        E 16 b0 0b 08
        E 16 80 2c 00
        E 16 b0 0b 19
        E 0 90 2c 19
        E 16 80 2c 00
        E 0 90 3b 19
        E 16 80 3b 00
        E 0 90 28 19
        E 32 b0 0b 11
        E 16 b0 0b 08
        E 16 80 28 00
        E 16 b0 0b 19
        E 0 90 28 19
        E 16 80 28 00
        E 0 90 3a 19
        E 16 80 3a 00
        E 0 90 27 19
        E 32 b0 0b 11
        E 16 b0 0b 08
        E 16 80 27 00
        E 16 b0 0b 19
        E 0 90 27 19
        E 16 80 27 00
        E 0 90 3d 19
        E 16 80 3d 00
        E 0 90 2a 19
        E 32 b0 0b 11
        E 16 b0 0b 08
        E 16 80 2a 00
        E 16 b0 0b 19
        E 0 90 25 19
        E 16 80 25 00
        E 0 90 38 19
        E 16 80 38 00
        E 0 90 25 19
        E 32 b0 0b 11
        E 16 b0 0b 08
        E 16 80 25 00
        E 16 b0 0b 19
        E 0 90 25 19
        E 16 80 25 00
        E 0 90 36 19
        E 16 80 36 00
        E 0 90 23 19
        E 32 b0 0b 11
        E 16 b0 0b 08
        E 16 80 23 00
        E 16 b0 0b 19
        E 0 90 23 19
        E 16 80 23 00
        E 0 90 38 19
        E 16 80 38 00
        E 0 90 25 19
        E 32 b0 0b 11
        E 16 b0 0b 08
        E 16 80 25 00
        E 16 b0 0b 19
        E 0 90 28 19
        E 16 80 28 00
        E 0 90 3b 19
        E 16 80 3b 00
        E 0 90 28 19
        E 32 b0 0b 11
        E 16 b0 0b 08
        E 16 80 28 00
        E 16 b0 0b 19
        E 0 90 28 19
        E 16 80 28 00
        E 0 90 3d 19
        E 16 80 3d 00
        E 0 90 2a 19
        E 32 b0 0b 11
        E 16 b0 0b 08
        E 16 80 2a 00
        E 16 b0 0b 19
        E 0 90 2a 19
        E 16 80 2a 00
        E 0 90 3f 19
        E 16 80 3f 00
        E 0 90 2c 19
        E 32 b0 0b 11
        E 16 b0 0b 08
        E 16 80 2c 00
        E 16 b0 0b 19
        E 0 90 2f 19
        E 16 80 2f 00
        E 0 90 42 19
        E 16 80 42 00
        E 0 90 2f 19
        E 32 b0 0b 11
        E 16 b0 0b 08
        E 16 80 2f 00
        E 16 b0 0b 19
        E 0 90 2f 19
        E 16 80 2f 00
        E 0 90 44 19
        E 16 80 44 00
        E 0 90 31 19
        E 32 b0 0b 11
        E 16 b0 0b 08
        E 16 80 31 00
        E 16 b0 0b 19
        E 0 90 31 19
        E 16 80 31 00
        E 0 90 47 19
        E 16 80 47 00
        E 0 90 34 19
        E 32 b0 0b 11
        E 16 b0 0b 08
        E 16 80 34 00
        E 16 b0 0b 19
        E 0 90 34 19
        E 16 80 34 00
        E 0 90 42 19
        E 16 80 42 00
        E 0 90 2f 19
        E 32 b0 0b 11
        E 16 b0 0b 08
        E 16 80 2f 00
        E 16 b0 0b 19
        E 0 90 2f 19
        E 16 80 2f 00
        E 0 90 41 19
        E 16 80 41 00
        E 0 90 2e 19
        E 32 b0 0b 11
        E 16 b0 0b 08
        E 16 80 2e 00
        E 16 b0 0b 19
        E 0 90 2e 19
        E 16 80 2e 00
        E 0 90 44 19
        E 16 80 44 00
        E 0 90 31 19
        E 32 b0 0b 11
        E 16 b0 0b 08
        E 16 80 31 00
        E 16 b0 0b 19
        E 0 90 2c 19
        E 16 80 2c 00
        E 0 90 3f 19
        E 16 80 3f 00
        E 0 90 2c 19
        E 32 b0 0b 11
        E 16 b0 0b 08
        E 16 80 2c 00
        E 16 b0 0b 19
        E 0 90 2c 19
        E 16 80 2c 00
        E 0 90 3b 19
        E 16 80 3b 00
        E 0 90 28 19
        E 32 b0 0b 11
        E 16 b0 0b 08
        E 16 80 28 00
        E 16 b0 0b 19
        E 0 90 28 19
        E 16 80 28 00
        E 0 90 3a 19
        E 16 80 3a 00
        E 0 90 27 19
        E 32 b0 0b 11
        E 16 b0 0b 08
        E 16 80 27 00
        E 16 b0 0b 19
        E 0 90 27 19
        E 16 80 27 00
        E 0 90 3d 19
        E 16 80 3d 00
        E 0 90 2a 19
        E 32 b0 0b 11
        E 16 b0 0b 08
        E 16 80 2a 00
        E 16 b0 0b 19
        E 0 90 25 19
        E 16 80 25 00
        E 0 90 38 19
        E 16 80 38 00
        E 0 90 25 19
        E 32 b0 0b 11
        E 16 b0 0b 08
        E 16 80 25 00
        E 16 b0 0b 19
        E 0 90 25 19
        E 16 80 25 00
        E 0 90 36 19
        E 16 80 36 00
        E 0 90 23 19
        E 32 b0 0b 11
        E 16 b0 0b 08
        E 16 80 23 00
        E 16 b0 0b 19
        E 0 90 23 19
        E 16 80 23 00
        E 0 90 38 19
        E 16 80 38 00
        E 0 90 25 19
        E 32 b0 0b 11
        E 16 b0 0b 08
        E 16 80 25 00
        E 16 b0 0b 19
        E 0 90 28 19
        E 16 80 28 00
        E 0 90 3b 19
        E 16 80 3b 00
        E 0 90 28 19
        E 32 b0 0b 11
        E 16 b0 0b 08
        E 16 80 28 00
        E 16 b0 0b 19
        E 0 90 28 19
        E 16 80 28 00
        E 0 90 3d 19
        E 16 80 3d 00
        E 0 90 2a 19
        E 32 b0 0b 11
        E 16 b0 0b 08
        E 16 80 2a 00
        E 16 b0 0b 19
        E 0 90 2a 19
        E 16 80 2a 00
        E 0 b0 7b 00
        E 0 ff 2f 00
      >
    >
  >
  <TRACK {F5511C7D-C7E4-4982-8152-CA19BA8227CE}
    NAME "NES - Pulse 2 [ch1]"
    PEAKCOL 10092441
    BEAT -1
    AUTOMODE 0
    PANLAWFLAGS 3
    VOLPAN 1 0 -1 -1 1
    MUTESOLO 0 0 0
    IPHASE 0
    PLAYOFFS 0 1
    ISBUS 0 0
    BUSCOMP 0 0 0 0 0
    SHOWINMIX 1 0.6667 0.5 1 0.5 0 0 0
    FIXEDLANES 9 0 0 0 0
    SEL 0
    REC 0 5088 1 0 0 0 0 0
    VU 2
    TRACKHEIGHT 0 0 0 0 0 0 0
    INQ 0 0 0 0.5 100 0 0 100
    NCHAN 2
    FX 1
    TRACKID {F5511C7D-C7E4-4982-8152-CA19BA8227CE}
    PERF 0
    MIDIOUT -1
    MAINSEND 1 0
    <FXCHAIN
      WNDRECT 24 52 700 560
      SHOW 0
      LASTSEL 0
      DOCKED 0
      BYPASS 0 0 0
      <JS "ReapNES Studio/ReapNES_Console.jsfx" ""
        2 15 1 10 80 10 100 2 1 15 1 5 60 10 80 1 1 0 50 0 0 15 1 0 100 0 0 0.500000 0.500000 0.400000 0.300000 0.800000 1 1 0 0 0 0 - - - - - - - - - - - - - - - - - - - - - - - - - -
      >
      FLOATPOS 0 0 0 0
      FXID {3A6BA31A-4933-484F-917F-BB803A85E73F}
      WAK 0 0
    >
    <ITEM
      POSITION 0
      LENGTH 74.60342370000001
      LOOP 0
      ALLTAKES 0
      FADEIN 0 0 0 0 0 0 0
      FADEOUT 0 0 0 0 0 0 0
      MUTE 0 0
      SEL 0
      IGUID {30082D69-604D-4112-9F0B-34873184E35C}
      <SOURCE MIDI
        HASDATA 1 480 QN
        CCINTERP 32
        E 0 c1 51
        E 8080 b1 0c 10
        E 0 b1 0b 33
        E 0 91 25 33
        E 16 b1 0b 2a
        E 16 b1 0b 22
        E 16 b1 0b 19
        E 16 b1 0b 11
        E 16 b1 0b 08
        E 16 b1 0b 11
        E 16 b1 0b 19
        E 16 b1 0b 22
        E 16 b1 0b 2a
        E 16 b1 0b 33
        E 16 81 25 00
        E 48 91 25 33
        E 16 81 25 00
        E 96 91 25 33
        E 16 81 25 00
        E 96 91 25 33
        E 16 b1 0b 2a
        E 16 b1 0b 22
        E 16 b1 0b 19
        E 16 b1 0b 11
        E 16 b1 0b 08
        E 16 b1 0b 11
        E 16 b1 0b 19
        E 16 b1 0b 22
        E 16 b1 0b 2a
        E 16 b1 0b 33
        E 16 81 25 00
        E 48 91 25 33
        E 16 81 25 00
        E 96 91 25 33
        E 16 81 25 00
        E 96 91 25 33
        E 16 b1 0b 2a
        E 16 b1 0b 22
        E 16 b1 0b 19
        E 16 b1 0b 11
        E 16 b1 0b 08
        E 16 b1 0b 11
        E 16 b1 0b 33
        E 16 b1 0b 2a
        E 16 b1 0b 22
        E 16 b1 0b 19
        E 16 b1 0b 11
        E 16 b1 0b 08
        E 16 b1 0b 11
        E 16 b1 0b 19
        E 16 b1 0b 22
        E 16 b1 0b 2a
        E 16 b1 0b 33
        E 16 81 25 00
        E 48 91 25 33
        E 16 b1 0b 2a
        E 16 b1 0b 22
        E 16 b1 0b 19
        E 16 b1 0b 11
        E 16 b1 0b 08
        E 16 b1 0b 11
        E 16 b1 0b 33
        E 0 81 25 00
        E 0 91 28 33
        E 16 b1 0b 2a
        E 16 b1 0b 22
        E 16 b1 0b 19
        E 16 b1 0b 11
        E 16 b1 0b 08
        E 16 b1 0b 11
        E 16 b1 0b 19
        E 16 b1 0b 22
        E 16 b1 0b 2a
        E 16 b1 0b 33
        E 16 81 28 00
        E 48 91 28 33
        E 16 b1 0b 2a
        E 16 b1 0b 22
        E 16 b1 0b 19
        E 16 b1 0b 11
        E 16 b1 0b 08
        E 16 b1 0b 11
        E 16 b1 0b 33
        E 16 b1 0b 2a
        E 16 b1 0b 22
        E 16 b1 0b 19
        E 16 b1 0b 11
        E 16 b1 0b 08
        E 16 b1 0b 11
        E 16 b1 0b 33
        E 0 81 28 00
        E 0 91 25 33
        E 16 b1 0b 2a
        E 16 b1 0b 22
        E 16 b1 0b 19
        E 16 b1 0b 11
        E 16 b1 0b 08
        E 16 b1 0b 11
        E 16 b1 0b 19
        E 16 b1 0b 22
        E 16 b1 0b 2a
        E 16 b1 0b 33
        E 16 81 25 00
        E 48 91 25 33
        E 16 81 25 00
        E 96 91 25 33
        E 16 81 25 00
        E 96 91 25 33
        E 16 b1 0b 2a
        E 16 b1 0b 22
        E 16 b1 0b 19
        E 16 b1 0b 11
        E 16 b1 0b 08
        E 16 b1 0b 11
        E 16 b1 0b 19
        E 16 b1 0b 22
        E 16 b1 0b 2a
        E 16 b1 0b 33
        E 16 81 25 00
        E 48 91 25 33
        E 16 81 25 00
        E 96 91 25 33
        E 16 81 25 00
        E 96 91 25 33
        E 16 b1 0b 2a
        E 16 b1 0b 22
        E 16 b1 0b 19
        E 16 b1 0b 11
        E 16 b1 0b 08
        E 16 b1 0b 11
        E 16 b1 0b 19
        E 16 b1 0b 22
        E 16 b1 0b 2a
        E 16 b1 0b 33
        E 16 81 25 00
        E 48 91 25 33
        E 16 b1 0b 2a
        E 16 b1 0b 22
        E 16 b1 0b 19
        E 16 b1 0b 11
        E 16 b1 0b 08
        E 16 b1 0b 11
        E 16 b1 0b 33
        E 16 b1 0b 2a
        E 16 b1 0b 22
        E 16 b1 0b 19
        E 16 b1 0b 11
        E 16 b1 0b 08
        E 16 b1 0b 11
        E 16 b1 0b 33
        E 0 81 25 00
        E 0 91 28 33
        E 16 b1 0b 2a
        E 16 b1 0b 22
        E 16 b1 0b 19
        E 16 b1 0b 11
        E 16 b1 0b 08
        E 16 b1 0b 11
        E 16 b1 0b 19
        E 16 b1 0b 22
        E 16 b1 0b 2a
        E 16 b1 0b 33
        E 16 81 28 00
        E 48 91 28 33
        E 16 b1 0b 2a
        E 16 b1 0b 22
        E 16 b1 0b 19
        E 16 b1 0b 11
        E 16 b1 0b 08
        E 16 b1 0b 11
        E 16 b1 0b 33
        E 16 b1 0b 2a
        E 16 b1 0b 22
        E 16 b1 0b 19
        E 16 b1 0b 11
        E 16 b1 0b 08
        E 16 b1 0b 11
        E 16 b1 0c 40
        E 0 b1 0b 33
        E 0 81 28 00
        E 0 91 25 33
        E 16 b1 0b 2a
        E 16 b1 0b 22
        E 16 b1 0b 19
        E 16 b1 0b 11
        E 16 b1 0b 08
        E 16 b1 0b 11
        E 16 b1 0b 19
        E 16 b1 0b 22
        E 16 b1 0b 2a
        E 16 b1 0b 33
        E 16 81 25 00
        E 48 91 25 33
        E 16 81 25 00
        E 96 91 25 33
        E 16 81 25 00
        E 96 91 25 33
        E 16 b1 0b 2a
        E 16 b1 0b 22
        E 16 b1 0b 19
        E 16 b1 0b 11
        E 16 b1 0b 08
        E 16 b1 0b 11
        E 16 b1 0b 19
        E 16 b1 0b 22
        E 16 b1 0b 2a
        E 16 b1 0b 33
        E 16 81 25 00
        E 48 91 25 33
        E 16 81 25 00
        E 96 91 25 33
        E 16 81 25 00
        E 96 91 25 33
        E 16 b1 0b 2a
        E 16 b1 0b 22
        E 16 b1 0b 19
        E 16 b1 0b 11
        E 16 b1 0b 08
        E 16 b1 0b 11
        E 16 b1 0b 33
        E 16 b1 0b 2a
        E 16 b1 0b 22
        E 16 b1 0b 19
        E 16 b1 0b 11
        E 16 b1 0b 08
        E 16 b1 0b 11
        E 16 b1 0b 19
        E 16 b1 0b 22
        E 16 b1 0b 2a
        E 16 b1 0b 33
        E 16 81 25 00
        E 48 91 25 33
        E 16 b1 0b 2a
        E 16 b1 0b 22
        E 16 b1 0b 19
        E 16 b1 0b 11
        E 16 b1 0b 08
        E 16 b1 0b 11
        E 16 b1 0b 33
        E 0 81 25 00
        E 0 91 28 33
        E 16 b1 0b 2a
        E 16 b1 0b 22
        E 16 b1 0b 19
        E 16 b1 0b 11
        E 16 b1 0b 08
        E 16 b1 0b 11
        E 16 b1 0b 19
        E 16 b1 0b 22
        E 16 b1 0b 2a
        E 16 b1 0b 33
        E 16 81 28 00
        E 48 91 28 33
        E 16 b1 0b 2a
        E 16 b1 0b 22
        E 16 b1 0b 19
        E 16 b1 0b 11
        E 16 b1 0b 08
        E 16 b1 0b 11
        E 16 b1 0b 33
        E 16 b1 0b 2a
        E 16 b1 0b 22
        E 16 b1 0b 19
        E 16 b1 0b 11
        E 16 b1 0b 08
        E 16 b1 0b 11
        E 16 b1 0b 33
        E 0 81 28 00
        E 0 91 25 33
        E 16 b1 0b 2a
        E 16 b1 0b 22
        E 16 b1 0b 19
        E 16 b1 0b 11
        E 16 b1 0b 08
        E 16 b1 0b 11
        E 16 b1 0b 19
        E 16 b1 0b 22
        E 16 b1 0b 2a
        E 16 b1 0b 33
        E 16 81 25 00
        E 48 91 25 33
        E 16 81 25 00
        E 96 91 25 33
        E 16 81 25 00
        E 96 91 25 33
        E 16 b1 0b 2a
        E 16 b1 0b 22
        E 16 b1 0b 19
        E 16 b1 0b 11
        E 16 b1 0b 08
        E 16 b1 0b 11
        E 16 b1 0b 19
        E 16 b1 0b 22
        E 16 b1 0b 2a
        E 16 b1 0b 33
        E 16 81 25 00
        E 48 91 25 33
        E 16 81 25 00
        E 96 91 25 33
        E 16 81 25 00
        E 96 91 25 33
        E 16 b1 0b 2a
        E 16 b1 0b 22
        E 16 b1 0b 19
        E 16 b1 0b 11
        E 16 b1 0b 08
        E 16 b1 0b 11
        E 16 b1 0b 19
        E 16 b1 0b 22
        E 16 b1 0b 2a
        E 16 b1 0b 33
        E 16 81 25 00
        E 48 91 25 33
        E 16 b1 0b 2a
        E 16 b1 0b 22
        E 16 b1 0b 19
        E 16 b1 0b 11
        E 16 b1 0b 08
        E 16 b1 0b 11
        E 16 b1 0b 33
        E 16 b1 0b 2a
        E 16 b1 0b 22
        E 16 b1 0b 19
        E 16 b1 0b 11
        E 16 b1 0b 08
        E 16 b1 0b 11
        E 16 b1 0b 33
        E 0 81 25 00
        E 0 91 28 33
        E 16 b1 0b 2a
        E 16 b1 0b 22
        E 16 b1 0b 19
        E 16 b1 0b 11
        E 16 b1 0b 08
        E 16 b1 0b 11
        E 16 b1 0b 19
        E 16 b1 0b 22
        E 16 b1 0b 2a
        E 16 b1 0b 33
        E 16 81 28 00
        E 48 91 28 33
        E 16 b1 0b 2a
        E 16 b1 0b 22
        E 16 b1 0b 19
        E 16 b1 0b 11
        E 16 b1 0b 08
        E 16 b1 0b 11
        E 16 b1 0b 33
        E 16 b1 0b 2a
        E 16 b1 0b 22
        E 16 b1 0b 19
        E 16 b1 0b 11
        E 16 b1 0b 08
        E 16 b1 0b 11
        E 16 b1 0c 10
        E 0 b1 0b 08
        E 0 81 28 00
        E 0 91 38 08
        E 96 81 38 00
        E 0 91 2c 08
        E 32 81 2c 00
        E 0 91 38 08
        E 96 81 38 00
        E 0 91 2c 08
        E 32 81 2c 00
        E 0 91 38 08
        E 80 b1 0b 11
        E 16 81 38 00
        E 0 91 2c 11
        E 32 81 2c 00
        E 0 91 38 11
        E 96 81 38 00
        E 0 91 2c 11
        E 32 81 2c 00
        E 0 91 38 11
        E 96 81 38 00
        E 0 91 2c 11
        E 32 81 2c 00
        E 0 91 38 11
        E 32 b1 0b 19
        E 64 81 38 00
        E 0 91 2c 19
        E 32 81 2c 00
        E 0 91 38 19
        E 96 81 38 00
        E 0 91 2c 19
        E 32 81 2c 00
        E 0 91 38 19
        E 96 81 38 00
        E 0 91 2c 19
        E 16 b1 0b 22
        E 16 81 2c 00
        E 0 91 38 22
        E 96 81 38 00
        E 0 91 2c 22
        E 32 81 2c 00
        E 0 91 38 22
        E 96 81 38 00
        E 0 91 2c 22
        E 32 81 2c 00
        E 0 91 38 22
        E 64 b1 0b 2a
        E 32 81 38 00
        E 0 91 2c 2a
        E 32 81 2c 00
        E 0 91 38 2a
        E 96 81 38 00
        E 0 91 2c 2a
        E 32 81 2c 00
        E 0 91 38 2a
        E 96 81 38 00
        E 0 91 2c 2a
        E 32 81 2c 00
        E 0 91 38 2a
        E 16 b1 0b 33
        E 80 81 38 00
        E 0 91 2c 33
        E 32 b1 0b 08
        E 0 81 2c 00
        E 0 91 38 08
        E 336 b1 0b 11
        E 336 b1 0b 19
        E 336 b1 0b 22
        E 336 b1 0b 2a
        E 336 b1 0b 33
        E 112 b1 0b 08
        E 96 81 38 00
        E 0 91 2a 08
        E 32 81 2a 00
        E 0 91 36 08
        E 96 81 36 00
        E 0 91 2a 08
        E 32 81 2a 00
        E 0 91 36 08
        E 80 b1 0b 11
        E 16 81 36 00
        E 0 91 2a 11
        E 32 81 2a 00
        E 0 91 36 11
        E 96 81 36 00
        E 0 91 2a 11
        E 32 81 2a 00
        E 0 91 36 11
        E 96 81 36 00
        E 0 91 2a 11
        E 32 81 2a 00
        E 0 91 36 11
        E 32 b1 0b 19
        E 64 81 36 00
        E 0 91 2a 19
        E 32 81 2a 00
        E 0 91 36 19
        E 96 81 36 00
        E 0 91 2a 19
        E 32 81 2a 00
        E 0 91 36 19
        E 96 81 36 00
        E 0 91 2a 19
        E 16 b1 0b 22
        E 16 81 2a 00
        E 0 91 36 22
        E 96 81 36 00
        E 0 91 2a 22
        E 32 81 2a 00
        E 0 91 36 22
        E 96 81 36 00
        E 0 91 2a 22
        E 32 81 2a 00
        E 0 91 36 22
        E 64 b1 0b 2a
        E 32 81 36 00
        E 0 91 2a 2a
        E 32 81 2a 00
        E 0 91 36 2a
        E 96 81 36 00
        E 0 91 2a 2a
        E 32 81 2a 00
        E 0 91 36 2a
        E 96 81 36 00
        E 0 91 2a 2a
        E 32 81 2a 00
        E 0 91 36 2a
        E 16 b1 0b 33
        E 80 81 36 00
        E 0 91 2a 33
        E 32 b1 0b 08
        E 0 81 2a 00
        E 0 91 34 08
        E 96 81 34 00
        E 0 91 28 08
        E 32 81 28 00
        E 0 91 34 08
        E 96 81 34 00
        E 0 91 28 08
        E 32 81 28 00
        E 0 91 34 08
        E 80 b1 0b 11
        E 16 81 34 00
        E 0 91 28 11
        E 32 81 28 00
        E 0 91 34 11
        E 96 81 34 00
        E 0 91 28 11
        E 32 81 28 00
        E 0 91 34 11
        E 96 81 34 00
        E 0 91 28 11
        E 32 81 28 00
        E 0 91 34 11
        E 32 b1 0b 19
        E 64 81 34 00
        E 0 91 28 19
        E 32 81 28 00
        E 0 91 34 19
        E 96 81 34 00
        E 0 91 28 19
        E 32 81 28 00
        E 0 91 34 19
        E 96 81 34 00
        E 0 91 28 19
        E 16 b1 0b 22
        E 16 81 28 00
        E 0 91 34 22
        E 96 81 34 00
        E 0 91 28 22
        E 32 81 28 00
        E 0 91 34 22
        E 96 81 34 00
        E 0 91 28 22
        E 32 81 28 00
        E 0 91 34 22
        E 64 b1 0b 2a
        E 32 81 34 00
        E 0 91 28 2a
        E 32 81 28 00
        E 0 91 34 2a
        E 96 81 34 00
        E 0 91 28 2a
        E 32 81 28 00
        E 0 91 34 2a
        E 96 81 34 00
        E 0 91 28 2a
        E 32 81 28 00
        E 0 91 34 2a
        E 16 b1 0b 33
        E 80 81 34 00
        E 0 91 28 33
        E 32 b1 0b 08
        E 0 81 28 00
        E 0 91 38 08
        E 96 81 38 00
        E 0 91 2c 08
        E 32 81 2c 00
        E 0 91 38 08
        E 96 81 38 00
        E 0 91 2c 08
        E 32 81 2c 00
        E 0 91 38 08
        E 80 b1 0b 11
        E 16 81 38 00
        E 0 91 2c 11
        E 32 81 2c 00
        E 0 91 38 11
        E 96 81 38 00
        E 0 91 2c 11
        E 32 81 2c 00
        E 0 91 38 11
        E 96 81 38 00
        E 0 91 2c 11
        E 32 81 2c 00
        E 0 91 38 11
        E 32 b1 0b 19
        E 64 81 38 00
        E 0 91 2c 19
        E 32 81 2c 00
        E 0 91 38 19
        E 96 81 38 00
        E 0 91 2c 19
        E 32 81 2c 00
        E 0 91 38 19
        E 96 81 38 00
        E 0 91 2c 19
        E 16 b1 0b 22
        E 16 81 2c 00
        E 0 91 38 22
        E 96 81 38 00
        E 0 91 2c 22
        E 32 81 2c 00
        E 0 91 38 22
        E 96 81 38 00
        E 0 91 2c 22
        E 32 81 2c 00
        E 0 91 38 22
        E 64 b1 0b 2a
        E 32 81 38 00
        E 0 91 2c 2a
        E 32 81 2c 00
        E 0 91 38 2a
        E 96 81 38 00
        E 0 91 2c 2a
        E 32 81 2c 00
        E 0 91 38 2a
        E 96 81 38 00
        E 0 91 2c 2a
        E 32 81 2c 00
        E 0 91 38 2a
        E 16 b1 0b 33
        E 80 81 38 00
        E 0 91 2c 33
        E 32 b1 0b 08
        E 0 81 2c 00
        E 0 91 38 08
        E 336 b1 0b 11
        E 336 b1 0b 19
        E 336 b1 0b 22
        E 336 b1 0b 2a
        E 336 b1 0b 33
        E 112 b1 0b 08
        E 96 81 38 00
        E 0 91 2a 08
        E 32 81 2a 00
        E 0 91 36 08
        E 96 81 36 00
        E 0 91 2a 08
        E 32 81 2a 00
        E 0 91 36 08
        E 80 b1 0b 11
        E 16 81 36 00
        E 0 91 2a 11
        E 32 81 2a 00
        E 0 91 36 11
        E 96 81 36 00
        E 0 91 2a 11
        E 32 81 2a 00
        E 0 91 36 11
        E 96 81 36 00
        E 0 91 2a 11
        E 32 81 2a 00
        E 0 91 36 11
        E 32 b1 0b 19
        E 64 81 36 00
        E 0 91 2a 19
        E 32 81 2a 00
        E 0 91 36 19
        E 96 81 36 00
        E 0 91 2a 19
        E 32 81 2a 00
        E 0 91 36 19
        E 96 81 36 00
        E 0 91 2a 19
        E 16 b1 0b 22
        E 16 81 2a 00
        E 0 91 36 22
        E 96 81 36 00
        E 0 91 2a 22
        E 32 81 2a 00
        E 0 91 36 22
        E 96 81 36 00
        E 0 91 2a 22
        E 32 81 2a 00
        E 0 91 36 22
        E 64 b1 0b 2a
        E 32 81 36 00
        E 0 91 2a 2a
        E 32 81 2a 00
        E 0 91 36 2a
        E 96 81 36 00
        E 0 91 2a 2a
        E 32 81 2a 00
        E 0 91 36 2a
        E 96 81 36 00
        E 0 91 2a 2a
        E 32 81 2a 00
        E 0 91 36 2a
        E 16 b1 0b 33
        E 80 81 36 00
        E 0 91 2a 33
        E 32 b1 0b 08
        E 0 81 2a 00
        E 0 91 34 08
        E 96 81 34 00
        E 0 91 28 08
        E 32 81 28 00
        E 0 91 34 08
        E 96 81 34 00
        E 0 91 28 08
        E 32 81 28 00
        E 0 91 34 08
        E 80 b1 0b 11
        E 16 81 34 00
        E 0 91 28 11
        E 32 81 28 00
        E 0 91 34 11
        E 96 81 34 00
        E 0 91 28 11
        E 32 81 28 00
        E 0 91 34 11
        E 96 81 34 00
        E 0 91 28 11
        E 32 81 28 00
        E 0 91 34 11
        E 32 b1 0b 19
        E 64 81 34 00
        E 0 91 28 19
        E 32 81 28 00
        E 0 91 34 19
        E 96 81 34 00
        E 0 91 28 19
        E 32 81 28 00
        E 0 91 34 19
        E 96 81 34 00
        E 0 91 28 19
        E 16 b1 0b 22
        E 16 81 28 00
        E 0 91 34 22
        E 96 81 34 00
        E 0 91 28 22
        E 32 81 28 00
        E 0 91 34 22
        E 96 81 34 00
        E 0 91 28 22
        E 32 81 28 00
        E 0 91 34 22
        E 64 b1 0b 2a
        E 32 81 34 00
        E 0 91 28 2a
        E 32 81 28 00
        E 0 91 34 2a
        E 96 81 34 00
        E 0 91 28 2a
        E 32 81 28 00
        E 0 91 34 2a
        E 96 81 34 00
        E 0 91 28 2a
        E 32 81 28 00
        E 0 91 34 2a
        E 16 b1 0b 33
        E 80 81 34 00
        E 0 91 28 33
        E 32 b1 0b 08
        E 0 81 28 00
        E 0 91 38 08
        E 96 81 38 00
        E 0 91 2c 08
        E 32 81 2c 00
        E 0 91 38 08
        E 96 81 38 00
        E 0 91 2c 08
        E 32 81 2c 00
        E 0 91 38 08
        E 80 b1 0b 11
        E 16 81 38 00
        E 0 91 2c 11
        E 32 81 2c 00
        E 0 91 38 11
        E 96 81 38 00
        E 0 91 2c 11
        E 32 81 2c 00
        E 0 91 38 11
        E 96 81 38 00
        E 0 91 2c 11
        E 32 81 2c 00
        E 0 91 38 11
        E 32 b1 0b 19
        E 64 81 38 00
        E 0 91 2c 19
        E 32 81 2c 00
        E 0 91 38 19
        E 96 81 38 00
        E 0 91 2c 19
        E 32 81 2c 00
        E 0 91 38 19
        E 96 81 38 00
        E 0 91 2c 19
        E 16 b1 0b 22
        E 16 81 2c 00
        E 0 91 38 22
        E 96 81 38 00
        E 0 91 2c 22
        E 32 81 2c 00
        E 0 91 38 22
        E 96 81 38 00
        E 0 91 2c 22
        E 32 81 2c 00
        E 0 91 38 22
        E 64 b1 0b 2a
        E 32 81 38 00
        E 0 91 2c 2a
        E 32 81 2c 00
        E 0 91 38 2a
        E 96 81 38 00
        E 0 91 2c 2a
        E 32 81 2c 00
        E 0 91 38 2a
        E 96 81 38 00
        E 0 91 2c 2a
        E 32 81 2c 00
        E 0 91 38 2a
        E 16 b1 0b 33
        E 80 81 38 00
        E 0 91 2c 33
        E 32 b1 0b 08
        E 0 81 2c 00
        E 0 91 38 08
        E 336 b1 0b 11
        E 336 b1 0b 19
        E 336 b1 0b 22
        E 336 b1 0b 2a
        E 336 b1 0b 33
        E 112 b1 0b 08
        E 96 81 38 00
        E 0 91 2a 08
        E 32 81 2a 00
        E 0 91 36 08
        E 96 81 36 00
        E 0 91 2a 08
        E 32 81 2a 00
        E 0 91 36 08
        E 80 b1 0b 11
        E 16 81 36 00
        E 0 91 2a 11
        E 32 81 2a 00
        E 0 91 36 11
        E 96 81 36 00
        E 0 91 2a 11
        E 32 81 2a 00
        E 0 91 36 11
        E 96 81 36 00
        E 0 91 2a 11
        E 32 81 2a 00
        E 0 91 36 11
        E 32 b1 0b 19
        E 64 81 36 00
        E 0 91 2a 19
        E 32 81 2a 00
        E 0 91 36 19
        E 96 81 36 00
        E 0 91 2a 19
        E 32 81 2a 00
        E 0 91 36 19
        E 96 81 36 00
        E 0 91 2a 19
        E 16 b1 0b 22
        E 16 81 2a 00
        E 0 91 36 22
        E 96 81 36 00
        E 0 91 2a 22
        E 32 81 2a 00
        E 0 91 36 22
        E 96 81 36 00
        E 0 91 2a 22
        E 32 81 2a 00
        E 0 91 36 22
        E 64 b1 0b 2a
        E 32 81 36 00
        E 0 91 2a 2a
        E 32 81 2a 00
        E 0 91 36 2a
        E 96 81 36 00
        E 0 91 2a 2a
        E 32 81 2a 00
        E 0 91 36 2a
        E 96 81 36 00
        E 0 91 2a 2a
        E 32 81 2a 00
        E 0 91 36 2a
        E 16 b1 0b 33
        E 80 81 36 00
        E 0 91 2a 33
        E 32 b1 0b 08
        E 0 81 2a 00
        E 0 91 34 08
        E 96 81 34 00
        E 0 91 28 08
        E 32 81 28 00
        E 0 91 34 08
        E 96 81 34 00
        E 0 91 28 08
        E 32 81 28 00
        E 0 91 34 08
        E 80 b1 0b 11
        E 16 81 34 00
        E 0 91 28 11
        E 32 81 28 00
        E 0 91 34 11
        E 96 81 34 00
        E 0 91 28 11
        E 32 81 28 00
        E 0 91 34 11
        E 96 81 34 00
        E 0 91 28 11
        E 32 81 28 00
        E 0 91 34 11
        E 32 b1 0b 19
        E 64 81 34 00
        E 0 91 28 19
        E 32 81 28 00
        E 0 91 34 19
        E 96 81 34 00
        E 0 91 28 19
        E 32 81 28 00
        E 0 91 34 19
        E 96 81 34 00
        E 0 91 28 19
        E 16 b1 0b 22
        E 16 81 28 00
        E 0 91 34 22
        E 96 81 34 00
        E 0 91 28 22
        E 32 81 28 00
        E 0 91 34 22
        E 96 81 34 00
        E 0 91 28 22
        E 32 81 28 00
        E 0 91 34 22
        E 64 b1 0b 2a
        E 32 81 34 00
        E 0 91 28 2a
        E 32 81 28 00
        E 0 91 34 2a
        E 96 81 34 00
        E 0 91 28 2a
        E 32 81 28 00
        E 0 91 34 2a
        E 96 81 34 00
        E 0 91 28 2a
        E 32 81 28 00
        E 0 91 34 2a
        E 16 b1 0b 33
        E 80 81 34 00
        E 0 91 28 33
        E 32 b1 0b 08
        E 0 81 28 00
        E 0 91 38 08
        E 96 81 38 00
        E 0 91 2c 08
        E 32 81 2c 00
        E 0 91 38 08
        E 96 81 38 00
        E 0 91 2c 08
        E 32 81 2c 00
        E 0 91 38 08
        E 80 b1 0b 11
        E 16 81 38 00
        E 0 91 2c 11
        E 32 81 2c 00
        E 0 91 38 11
        E 96 81 38 00
        E 0 91 2c 11
        E 32 81 2c 00
        E 0 91 38 11
        E 96 81 38 00
        E 0 91 2c 11
        E 32 81 2c 00
        E 0 91 38 11
        E 32 b1 0b 19
        E 64 81 38 00
        E 0 91 2c 19
        E 32 81 2c 00
        E 0 91 38 19
        E 96 81 38 00
        E 0 91 2c 19
        E 32 81 2c 00
        E 0 91 38 19
        E 96 81 38 00
        E 0 91 2c 19
        E 16 b1 0b 22
        E 16 81 2c 00
        E 0 91 38 22
        E 96 81 38 00
        E 0 91 2c 22
        E 32 81 2c 00
        E 0 91 38 22
        E 96 81 38 00
        E 0 91 2c 22
        E 32 81 2c 00
        E 0 91 38 22
        E 64 b1 0b 2a
        E 32 81 38 00
        E 0 91 2c 2a
        E 32 81 2c 00
        E 0 91 38 2a
        E 96 81 38 00
        E 0 91 2c 2a
        E 32 81 2c 00
        E 0 91 38 2a
        E 96 81 38 00
        E 0 91 2c 2a
        E 32 81 2c 00
        E 0 91 38 2a
        E 16 b1 0b 33
        E 80 81 38 00
        E 0 91 2c 33
        E 32 b1 0b 08
        E 0 81 2c 00
        E 0 91 38 08
        E 336 b1 0b 11
        E 336 b1 0b 19
        E 336 b1 0b 22
        E 336 b1 0b 2a
        E 336 b1 0b 33
        E 112 b1 0b 08
        E 96 81 38 00
        E 0 91 2a 08
        E 32 81 2a 00
        E 0 91 36 08
        E 96 81 36 00
        E 0 91 2a 08
        E 32 81 2a 00
        E 0 91 36 08
        E 80 b1 0b 11
        E 16 81 36 00
        E 0 91 2a 11
        E 32 81 2a 00
        E 0 91 36 11
        E 96 81 36 00
        E 0 91 2a 11
        E 32 81 2a 00
        E 0 91 36 11
        E 96 81 36 00
        E 0 91 2a 11
        E 32 81 2a 00
        E 0 91 36 11
        E 32 b1 0b 19
        E 64 81 36 00
        E 0 91 2a 19
        E 32 81 2a 00
        E 0 91 36 19
        E 96 81 36 00
        E 0 91 2a 19
        E 32 81 2a 00
        E 0 91 36 19
        E 96 81 36 00
        E 0 91 2a 19
        E 16 b1 0b 22
        E 16 81 2a 00
        E 0 91 36 22
        E 96 81 36 00
        E 0 91 2a 22
        E 32 81 2a 00
        E 0 91 36 22
        E 96 81 36 00
        E 0 91 2a 22
        E 32 81 2a 00
        E 0 91 36 22
        E 64 b1 0b 2a
        E 32 81 36 00
        E 0 91 2a 2a
        E 32 81 2a 00
        E 0 91 36 2a
        E 96 81 36 00
        E 0 91 2a 2a
        E 32 81 2a 00
        E 0 91 36 2a
        E 96 81 36 00
        E 0 91 2a 2a
        E 32 81 2a 00
        E 0 91 36 2a
        E 16 b1 0b 33
        E 80 81 36 00
        E 0 91 2a 33
        E 32 b1 0b 08
        E 0 81 2a 00
        E 0 91 34 08
        E 96 81 34 00
        E 0 91 28 08
        E 32 81 28 00
        E 0 91 34 08
        E 96 81 34 00
        E 0 91 28 08
        E 32 81 28 00
        E 0 91 34 08
        E 80 b1 0b 11
        E 16 81 34 00
        E 0 91 28 11
        E 32 81 28 00
        E 0 91 34 11
        E 96 81 34 00
        E 0 91 28 11
        E 32 81 28 00
        E 0 91 34 11
        E 96 81 34 00
        E 0 91 28 11
        E 32 81 28 00
        E 0 91 34 11
        E 32 b1 0b 19
        E 64 81 34 00
        E 0 91 28 19
        E 32 81 28 00
        E 0 91 34 19
        E 96 81 34 00
        E 0 91 28 19
        E 32 81 28 00
        E 0 91 34 19
        E 96 81 34 00
        E 0 91 28 19
        E 16 b1 0b 22
        E 16 81 28 00
        E 0 91 34 22
        E 96 81 34 00
        E 0 91 28 22
        E 32 81 28 00
        E 0 91 34 22
        E 96 81 34 00
        E 0 91 28 22
        E 32 81 28 00
        E 0 91 34 22
        E 64 b1 0b 2a
        E 32 81 34 00
        E 0 91 28 2a
        E 32 81 28 00
        E 0 91 34 2a
        E 96 81 34 00
        E 0 91 28 2a
        E 32 81 28 00
        E 0 91 34 2a
        E 96 81 34 00
        E 0 91 28 2a
        E 32 81 28 00
        E 0 91 34 2a
        E 16 b1 0b 33
        E 80 81 34 00
        E 0 91 28 33
        E 32 b1 0b 08
        E 0 81 28 00
        E 0 91 38 08
        E 96 81 38 00
        E 0 91 2c 08
        E 32 81 2c 00
        E 0 91 38 08
        E 96 81 38 00
        E 0 91 2c 08
        E 32 81 2c 00
        E 0 91 38 08
        E 80 b1 0b 11
        E 16 81 38 00
        E 0 91 2c 11
        E 32 81 2c 00
        E 0 91 38 11
        E 96 81 38 00
        E 0 91 2c 11
        E 32 81 2c 00
        E 0 91 38 11
        E 96 81 38 00
        E 0 91 2c 11
        E 32 81 2c 00
        E 0 91 38 11
        E 32 b1 0b 19
        E 64 81 38 00
        E 0 91 2c 19
        E 32 81 2c 00
        E 0 91 38 19
        E 96 81 38 00
        E 0 91 2c 19
        E 32 81 2c 00
        E 0 91 38 19
        E 96 81 38 00
        E 0 91 2c 19
        E 16 b1 0b 22
        E 16 81 2c 00
        E 0 91 38 22
        E 96 81 38 00
        E 0 91 2c 22
        E 32 81 2c 00
        E 0 91 38 22
        E 96 81 38 00
        E 0 91 2c 22
        E 32 81 2c 00
        E 0 91 38 22
        E 64 b1 0b 2a
        E 32 81 38 00
        E 0 91 2c 2a
        E 32 81 2c 00
        E 0 91 38 2a
        E 96 81 38 00
        E 0 91 2c 2a
        E 32 81 2c 00
        E 0 91 38 2a
        E 96 81 38 00
        E 0 91 2c 2a
        E 32 81 2c 00
        E 0 91 38 2a
        E 16 b1 0b 33
        E 80 81 38 00
        E 0 91 2c 33
        E 32 b1 0b 08
        E 0 81 2c 00
        E 0 91 38 08
        E 336 b1 0b 11
        E 336 b1 0b 19
        E 336 b1 0b 22
        E 336 b1 0b 2a
        E 336 b1 0b 33
        E 112 b1 0b 08
        E 96 81 38 00
        E 0 91 2a 08
        E 32 81 2a 00
        E 0 91 36 08
        E 96 81 36 00
        E 0 91 2a 08
        E 32 81 2a 00
        E 0 91 36 08
        E 80 b1 0b 11
        E 16 81 36 00
        E 0 91 2a 11
        E 32 81 2a 00
        E 0 91 36 11
        E 96 81 36 00
        E 0 91 2a 11
        E 32 81 2a 00
        E 0 91 36 11
        E 96 81 36 00
        E 0 91 2a 11
        E 32 81 2a 00
        E 0 91 36 11
        E 32 b1 0b 19
        E 64 81 36 00
        E 0 91 2a 19
        E 32 81 2a 00
        E 0 91 36 19
        E 96 81 36 00
        E 0 91 2a 19
        E 32 81 2a 00
        E 0 91 36 19
        E 96 81 36 00
        E 0 91 2a 19
        E 16 b1 0b 22
        E 16 81 2a 00
        E 0 91 36 22
        E 96 81 36 00
        E 0 91 2a 22
        E 32 81 2a 00
        E 0 91 36 22
        E 96 81 36 00
        E 0 91 2a 22
        E 32 81 2a 00
        E 0 91 36 22
        E 64 b1 0b 2a
        E 32 81 36 00
        E 0 91 2a 2a
        E 32 81 2a 00
        E 0 91 36 2a
        E 96 81 36 00
        E 0 91 2a 2a
        E 32 81 2a 00
        E 0 91 36 2a
        E 96 81 36 00
        E 0 91 2a 2a
        E 32 81 2a 00
        E 0 91 36 2a
        E 16 b1 0b 33
        E 80 81 36 00
        E 0 91 2a 33
        E 32 b1 0b 08
        E 0 81 2a 00
        E 0 91 34 08
        E 96 81 34 00
        E 0 91 28 08
        E 32 81 28 00
        E 0 91 34 08
        E 96 81 34 00
        E 0 91 28 08
        E 32 81 28 00
        E 0 91 34 08
        E 80 b1 0b 11
        E 16 81 34 00
        E 0 91 28 11
        E 32 81 28 00
        E 0 91 34 11
        E 96 81 34 00
        E 0 91 28 11
        E 32 81 28 00
        E 0 91 34 11
        E 96 81 34 00
        E 0 91 28 11
        E 32 81 28 00
        E 0 91 34 11
        E 32 b1 0b 19
        E 64 81 34 00
        E 0 91 28 19
        E 32 81 28 00
        E 0 91 34 19
        E 96 81 34 00
        E 0 91 28 19
        E 32 81 28 00
        E 0 91 34 19
        E 96 81 34 00
        E 0 91 28 19
        E 16 b1 0b 22
        E 16 81 28 00
        E 0 91 34 22
        E 96 81 34 00
        E 0 91 28 22
        E 32 81 28 00
        E 0 91 34 22
        E 96 81 34 00
        E 0 91 28 22
        E 32 81 28 00
        E 0 91 34 22
        E 64 b1 0b 2a
        E 32 81 34 00
        E 0 91 28 2a
        E 32 81 28 00
        E 0 91 34 2a
        E 96 81 34 00
        E 0 91 28 2a
        E 32 81 28 00
        E 0 91 34 2a
        E 96 81 34 00
        E 0 91 28 2a
        E 32 81 28 00
        E 0 91 34 2a
        E 16 b1 0b 33
        E 80 81 34 00
        E 0 91 28 33
        E 32 81 28 00
        E 896 b1 0b 11
        E 0 91 39 11
        E 112 81 39 00
        E 0 91 47 11
        E 496 81 47 00
        E 0 91 39 11
        E 176 81 39 00
        E 0 91 49 11
        E 560 81 49 00
        E 0 91 39 11
        E 112 81 39 00
        E 0 91 4b 11
        E 624 81 4b 00
        E 0 91 39 11
        E 48 81 39 00
        E 0 91 4c 11
        E 1456 81 4c 00
        E 0 91 39 11
        E 112 81 39 00
        E 0 91 47 11
        E 496 81 47 00
        E 0 91 39 11
        E 176 81 39 00
        E 0 91 49 11
        E 560 81 49 00
        E 0 91 39 11
        E 112 81 39 00
        E 0 91 4b 11
        E 624 81 4b 00
        E 0 91 39 11
        E 48 81 39 00
        E 0 91 4c 11
        E 896 b1 0c 40
        E 560 81 4c 00
        E 0 91 39 11
        E 112 81 39 00
        E 0 91 47 11
        E 496 81 47 00
        E 0 91 39 11
        E 176 b1 0c 60
        E 0 81 39 00
        E 0 91 49 11
        E 560 81 49 00
        E 0 91 39 11
        E 112 81 39 00
        E 0 91 4b 11
        E 624 81 4b 00
        E 0 91 39 11
        E 48 b1 0c 10
        E 0 81 39 00
        E 0 91 4c 11
        E 448 b1 0c 60
        E 448 b1 0c 40
        E 560 81 4c 00
        E 0 91 39 11
        E 112 81 39 00
        E 0 91 47 11
        E 496 81 47 00
        E 0 91 39 11
        E 176 b1 0c 60
        E 0 81 39 00
        E 0 91 49 11
        E 560 81 49 00
        E 0 91 39 11
        E 112 81 39 00
        E 0 91 4b 11
        E 624 81 4b 00
        E 0 91 39 11
        E 48 b1 0c 10
        E 0 81 39 00
        E 0 91 4c 11
        E 448 b1 0c 60
        E 448 b1 0c 40
        E 0 81 4c 00
        E 0 91 25 11
        E 80 b1 0b 08
        E 16 81 25 00
        E 16 b1 0b 11
        E 0 91 25 11
        E 80 b1 0b 08
        E 16 81 25 00
        E 16 b1 0b 11
        E 0 91 25 11
        E 80 b1 0b 08
        E 16 81 25 00
        E 16 b1 0b 11
        E 0 91 28 11
        E 80 b1 0b 08
        E 16 81 28 00
        E 16 b1 0b 11
        E 0 91 28 11
        E 80 b1 0b 08
        E 16 81 28 00
        E 16 b1 0b 11
        E 0 91 28 11
        E 80 b1 0b 08
        E 16 81 28 00
        E 16 b1 0b 11
        E 0 91 2f 11
        E 80 b1 0b 08
        E 16 81 2f 00
        E 16 b1 0b 11
        E 0 91 2f 11
        E 80 b1 0b 08
        E 16 81 2f 00
        E 16 b1 0b 11
        E 0 91 2f 11
        E 80 b1 0b 08
        E 16 81 2f 00
        E 16 b1 0b 11
        E 0 91 2f 11
        E 80 b1 0b 08
        E 16 81 2f 00
        E 16 b1 0b 11
        E 0 91 2f 11
        E 80 b1 0b 08
        E 16 81 2f 00
        E 16 b1 0b 11
        E 0 91 2f 11
        E 80 b1 0b 08
        E 16 81 2f 00
        E 16 b1 0b 11
        E 0 91 2c 11
        E 80 b1 0b 08
        E 16 81 2c 00
        E 16 b1 0b 11
        E 0 91 2c 11
        E 80 b1 0b 08
        E 16 81 2c 00
        E 16 b1 0b 11
        E 0 91 2c 11
        E 80 b1 0b 08
        E 16 81 2c 00
        E 16 b1 0b 11
        E 0 91 2c 11
        E 80 b1 0b 08
        E 16 81 2c 00
        E 16 b1 0b 11
        E 0 91 25 11
        E 80 b1 0b 08
        E 16 81 25 00
        E 16 b1 0b 11
        E 0 91 25 11
        E 80 b1 0b 08
        E 16 81 25 00
        E 16 b1 0b 11
        E 0 91 25 11
        E 80 b1 0b 08
        E 16 81 25 00
        E 16 b1 0b 11
        E 0 91 28 11
        E 80 b1 0b 08
        E 16 81 28 00
        E 16 b1 0b 11
        E 0 91 28 11
        E 80 b1 0b 08
        E 16 81 28 00
        E 16 b1 0b 11
        E 0 91 28 11
        E 80 b1 0b 08
        E 16 81 28 00
        E 16 b1 0b 11
        E 0 91 2f 11
        E 80 b1 0b 08
        E 16 81 2f 00
        E 16 b1 0b 11
        E 0 91 2f 11
        E 80 b1 0b 08
        E 16 81 2f 00
        E 16 b1 0b 11
        E 0 91 2f 11
        E 80 b1 0b 08
        E 16 81 2f 00
        E 16 b1 0b 11
        E 0 91 2f 11
        E 80 b1 0b 08
        E 16 81 2f 00
        E 16 b1 0b 11
        E 0 91 2f 11
        E 80 b1 0b 08
        E 16 81 2f 00
        E 16 b1 0b 11
        E 0 91 2f 11
        E 80 b1 0b 08
        E 16 81 2f 00
        E 16 b1 0b 11
        E 0 91 2c 11
        E 80 b1 0b 08
        E 16 81 2c 00
        E 16 b1 0b 11
        E 0 91 2c 11
        E 80 b1 0b 08
        E 16 81 2c 00
        E 16 b1 0b 11
        E 0 91 2c 11
        E 80 b1 0b 08
        E 16 81 2c 00
        E 16 b1 0b 11
        E 0 91 2c 11
        E 80 b1 0b 08
        E 16 81 2c 00
        E 16 b1 0b 11
        E 0 91 25 11
        E 16 81 25 00
        E 0 91 38 11
        E 16 81 38 00
        E 0 91 25 11
        E 48 b1 0b 08
        E 16 81 25 00
        E 16 b1 0b 11
        E 0 91 25 11
        E 16 81 25 00
        E 0 91 36 11
        E 16 81 36 00
        E 0 91 23 11
        E 48 b1 0b 08
        E 16 81 23 00
        E 16 b1 0b 11
        E 0 91 23 11
        E 16 81 23 00
        E 0 91 38 11
        E 16 81 38 00
        E 0 91 25 11
        E 48 b1 0b 08
        E 16 81 25 00
        E 16 b1 0b 11
        E 0 91 28 11
        E 16 81 28 00
        E 0 91 3b 11
        E 16 81 3b 00
        E 0 91 28 11
        E 48 b1 0b 08
        E 16 81 28 00
        E 16 b1 0b 11
        E 0 91 28 11
        E 16 81 28 00
        E 0 91 3d 11
        E 16 81 3d 00
        E 0 91 2a 11
        E 48 b1 0b 08
        E 16 81 2a 00
        E 16 b1 0b 11
        E 0 91 2a 11
        E 16 81 2a 00
        E 0 91 3f 11
        E 16 81 3f 00
        E 0 91 2c 11
        E 48 b1 0b 08
        E 16 81 2c 00
        E 16 b1 0b 11
        E 0 91 2f 11
        E 16 81 2f 00
        E 0 91 42 11
        E 16 81 42 00
        E 0 91 2f 11
        E 48 b1 0b 08
        E 16 81 2f 00
        E 16 b1 0b 11
        E 0 91 2f 11
        E 16 81 2f 00
        E 0 91 44 11
        E 16 81 44 00
        E 0 91 31 11
        E 48 b1 0b 08
        E 16 81 31 00
        E 16 b1 0b 11
        E 0 91 31 11
        E 16 81 31 00
        E 0 91 47 11
        E 16 81 47 00
        E 0 91 34 11
        E 48 b1 0b 08
        E 16 81 34 00
        E 16 b1 0b 11
        E 0 91 34 11
        E 16 81 34 00
        E 0 91 42 11
        E 16 81 42 00
        E 0 91 2f 11
        E 48 b1 0b 08
        E 16 81 2f 00
        E 16 b1 0b 11
        E 0 91 2f 11
        E 16 81 2f 00
        E 0 91 41 11
        E 16 81 41 00
        E 0 91 2e 11
        E 48 b1 0b 08
        E 16 81 2e 00
        E 16 b1 0b 11
        E 0 91 2e 11
        E 16 81 2e 00
        E 0 91 44 11
        E 16 81 44 00
        E 0 91 31 11
        E 48 b1 0b 08
        E 16 81 31 00
        E 16 b1 0b 11
        E 0 91 2c 11
        E 16 81 2c 00
        E 0 91 3f 11
        E 16 81 3f 00
        E 0 91 2c 11
        E 48 b1 0b 08
        E 16 81 2c 00
        E 16 b1 0b 11
        E 0 91 2c 11
        E 16 81 2c 00
        E 0 91 3b 11
        E 16 81 3b 00
        E 0 91 28 11
        E 48 b1 0b 08
        E 16 81 28 00
        E 16 b1 0b 11
        E 0 91 28 11
        E 16 81 28 00
        E 0 91 3a 11
        E 16 81 3a 00
        E 0 91 27 11
        E 48 b1 0b 08
        E 16 81 27 00
        E 16 b1 0b 11
        E 0 91 27 11
        E 16 81 27 00
        E 0 91 3d 11
        E 16 81 3d 00
        E 0 91 2a 11
        E 48 b1 0b 08
        E 16 81 2a 00
        E 16 b1 0b 11
        E 0 91 25 11
        E 16 81 25 00
        E 0 91 38 11
        E 16 81 38 00
        E 0 91 25 11
        E 48 b1 0b 08
        E 16 81 25 00
        E 16 b1 0b 11
        E 0 91 25 11
        E 16 81 25 00
        E 0 91 36 11
        E 16 81 36 00
        E 0 91 23 11
        E 48 b1 0b 08
        E 16 81 23 00
        E 16 b1 0b 11
        E 0 91 23 11
        E 16 81 23 00
        E 0 91 38 11
        E 16 81 38 00
        E 0 91 25 11
        E 48 b1 0b 08
        E 16 81 25 00
        E 16 b1 0b 11
        E 0 91 28 11
        E 16 81 28 00
        E 0 91 3b 11
        E 16 81 3b 00
        E 0 91 28 11
        E 48 b1 0b 08
        E 16 81 28 00
        E 16 b1 0b 11
        E 0 91 28 11
        E 16 81 28 00
        E 0 91 3d 11
        E 16 81 3d 00
        E 0 91 2a 11
        E 48 b1 0b 08
        E 16 81 2a 00
        E 16 b1 0b 11
        E 0 91 2a 11
        E 16 81 2a 00
        E 0 91 3f 11
        E 16 81 3f 00
        E 0 91 2c 11
        E 48 b1 0b 08
        E 16 81 2c 00
        E 16 b1 0b 11
        E 0 91 2f 11
        E 16 81 2f 00
        E 0 91 42 11
        E 16 81 42 00
        E 0 91 2f 11
        E 48 b1 0b 08
        E 16 81 2f 00
        E 16 b1 0b 11
        E 0 91 2f 11
        E 16 81 2f 00
        E 0 91 44 11
        E 16 81 44 00
        E 0 91 31 11
        E 48 b1 0b 08
        E 16 81 31 00
        E 16 b1 0b 11
        E 0 91 31 11
        E 16 81 31 00
        E 0 91 47 11
        E 16 81 47 00
        E 0 91 34 11
        E 48 b1 0b 08
        E 16 81 34 00
        E 16 b1 0b 11
        E 0 91 34 11
        E 16 81 34 00
        E 0 91 42 11
        E 16 81 42 00
        E 0 91 2f 11
        E 48 b1 0b 08
        E 16 81 2f 00
        E 16 b1 0b 11
        E 0 91 2f 11
        E 16 81 2f 00
        E 0 91 41 11
        E 16 81 41 00
        E 0 91 2e 11
        E 48 b1 0b 08
        E 16 81 2e 00
        E 16 b1 0b 11
        E 0 91 2e 11
        E 16 81 2e 00
        E 0 91 44 11
        E 16 81 44 00
        E 0 91 31 11
        E 48 b1 0b 08
        E 16 81 31 00
        E 16 b1 0b 11
        E 0 91 2c 11
        E 16 81 2c 00
        E 0 91 3f 11
        E 16 81 3f 00
        E 0 91 2c 11
        E 48 b1 0b 08
        E 16 81 2c 00
        E 16 b1 0b 11
        E 0 91 38 11
        E 336 81 38 00
        E 0 91 3b 11
        E 1456 81 3b 00
        E 0 91 38 11
        E 336 81 38 00
        E 0 91 3b 11
        E 1536 b1 0b 08
        E 16 81 3b 00
        E 16 b1 0b 11
        E 0 91 3b 11
        E 80 b1 0b 08
        E 16 81 3b 00
        E 16 b1 0b 11
        E 0 91 3b 11
        E 80 b1 0b 08
        E 16 81 3b 00
        E 16 b1 0b 11
        E 0 91 3b 11
        E 80 b1 0b 08
        E 16 81 3b 00
        E 16 b1 0b 11
        E 0 91 3b 11
        E 80 b1 0b 08
        E 16 81 3b 00
        E 16 b1 0b 11
        E 0 91 3b 11
        E 16 81 3b 00
        E 0 b1 7b 00
        E 0 ff 2f 00
      >
    >
  >
  <TRACK {1C169582-CC50-404B-B53F-1A66E1BB9574}
    NAME "NES - Triangle"
    PEAKCOL 16744192
    BEAT -1
    AUTOMODE 0
    PANLAWFLAGS 3
    VOLPAN 1 0 -1 -1 1
    MUTESOLO 0 0 0
    IPHASE 0
    PLAYOFFS 0 1
    ISBUS 0 0
    BUSCOMP 0 0 0 0 0
    SHOWINMIX 1 0.6667 0.5 1 0.5 0 0 0
    FIXEDLANES 9 0 0 0 0
    SEL 0
    REC 0 5088 1 0 0 0 0 0
    VU 2
    TRACKHEIGHT 0 0 0 0 0 0 0
    INQ 0 0 0 0.5 100 0 0 100
    NCHAN 2
    FX 1
    TRACKID {1C169582-CC50-404B-B53F-1A66E1BB9574}
    PERF 0
    MIDIOUT -1
    MAINSEND 1 0
    <FXCHAIN
      WNDRECT 24 52 700 560
      SHOW 0
      LASTSEL 0
      DOCKED 0
      BYPASS 0 0 0
      <JS "ReapNES Studio/ReapNES_Console.jsfx" ""
        2 15 1 10 80 10 100 2 1 15 1 5 60 10 80 1 1 0 50 0 0 15 1 0 100 0 0 0.500000 0.500000 0.400000 0.300000 0.800000 2 1 0 0 0 0 - - - - - - - - - - - - - - - - - - - - - - - - - -
      >
      FLOATPOS 0 0 0 0
      FXID {68E0C5B3-6FF0-4A7D-9003-D7759C9C6C98}
      WAK 0 0
    >
  >
  <TRACK {D1B5A175-BC9A-470C-92C0-C66AA2405C57}
    NAME "NES - Noise / Drums [ch3]"
    PEAKCOL 11184810
    BEAT -1
    AUTOMODE 0
    PANLAWFLAGS 3
    VOLPAN 1 0 -1 -1 1
    MUTESOLO 0 0 0
    IPHASE 0
    PLAYOFFS 0 1
    ISBUS 0 0
    BUSCOMP 0 0 0 0 0
    SHOWINMIX 1 0.6667 0.5 1 0.5 0 0 0
    FIXEDLANES 9 0 0 0 0
    SEL 0
    REC 0 5088 1 0 0 0 0 0
    VU 2
    TRACKHEIGHT 0 0 0 0 0 0 0
    INQ 0 0 0 0.5 100 0 0 100
    NCHAN 2
    FX 1
    TRACKID {D1B5A175-BC9A-470C-92C0-C66AA2405C57}
    PERF 0
    MIDIOUT -1
    MAINSEND 1 0
    <FXCHAIN
      WNDRECT 24 52 700 560
      SHOW 0
      LASTSEL 0
      DOCKED 0
      BYPASS 0 0 0
      <JS "ReapNES Studio/ReapNES_Console.jsfx" ""
        2 15 1 10 80 10 100 2 1 15 1 5 60 10 80 1 1 0 50 0 0 15 1 0 100 0 0 0.500000 0.500000 0.400000 0.300000 0.800000 3 1 0 0 0 0 - - - - - - - - - - - - - - - - - - - - - - - - - -
      >
      FLOATPOS 0 0 0 0
      FXID {04A285FF-D737-4524-A40D-F102DA39D002}
      WAK 0 0
    >
    <ITEM
      POSITION 0
      LENGTH 74.60342370000001
      LOOP 0
      ALLTAKES 0
      FADEIN 0 0 0 0 0 0 0
      FADEOUT 0 0 0 0 0 0 0
      MUTE 0 0
      SEL 0
      IGUID {F8A93B3D-0DBF-4F98-9410-8FAEBC1D0C63}
      <SOURCE MIDI
        HASDATA 1 480 QN
        CCINTERP 32
        E 0 93 2a 22
        E 16 83 2a 00
        E 0 93 2a 22
        E 112 83 2a 00
        E 0 93 2a 22
        E 112 83 2a 00
        E 0 93 2a 22
        E 112 83 2a 00
        E 0 93 2a 22
        E 112 83 2a 00
        E 0 93 2a 22
        E 112 83 2a 00
        E 0 93 2a 22
        E 112 83 2a 00
        E 0 93 2a 22
        E 224 83 2a 00
        E 0 93 2a 2a
        E 16 83 2a 00
        E 96 93 2a 22
        E 16 83 2a 00
        E 0 93 2a 22
        E 64 83 2a 00
        E 32 93 2a 22
        E 16 83 2a 00
        E 0 93 2a 22
        E 208 83 2a 00
        E 0 93 2a 2a
        E 16 83 2a 00
        E 0 93 2a 19
        E 16 83 2a 00
        E 0 93 2a 19
        E 144 83 2a 00
        E 48 93 2a 22
        E 16 83 2a 00
        E 0 93 2a 22
        E 208 83 2a 00
        E 0 93 2a 2a
        E 16 83 2a 00
        E 96 93 2a 22
        E 16 83 2a 00
        E 0 93 2a 22
        E 64 83 2a 00
        E 32 93 2a 22
        E 16 83 2a 00
        E 0 93 2a 22
        E 208 83 2a 00
        E 0 93 2a 2a
        E 16 83 2a 00
        E 0 93 2a 19
        E 16 83 2a 00
        E 0 93 2a 19
        E 144 83 2a 00
        E 48 93 2a 22
        E 16 83 2a 00
        E 0 93 2a 22
        E 96 83 2a 00
        E 0 93 2a 19
        E 128 83 2a 00
        E 96 93 2a 19
        E 112 83 2a 00
        E 0 93 2a 22
        E 16 83 2a 00
        E 0 93 2a 22
        E 208 83 2a 00
        E 0 93 2a 2a
        E 16 83 2a 00
        E 0 93 2a 19
        E 16 83 2a 00
        E 0 93 2a 19
        E 144 83 2a 00
        E 48 93 2a 22
        E 16 83 2a 00
        E 0 93 2a 22
        E 96 83 2a 00
        E 0 93 2a 19
        E 16 83 2a 00
        E 0 93 2a 19
        E 112 83 2a 00
        E 96 93 2a 22
        E 16 83 2a 00
        E 0 93 2a 22
        E 64 83 2a 00
        E 32 93 2a 19
        E 144 83 2a 00
        E 80 93 2a 19
        E 16 83 2a 00
        E 0 93 2a 19
        E 144 83 2a 00
        E 64 93 2a 19
        E 240 83 2a 00
        E 96 93 2a 22
        E 16 83 2a 00
        E 0 93 2a 22
        E 64 83 2a 00
        E 32 93 2a 22
        E 16 83 2a 00
        E 0 93 2a 22
        E 208 83 2a 00
        E 0 93 2a 2a
        E 16 83 2a 00
        E 0 93 2a 19
        E 16 83 2a 00
        E 0 93 2a 19
        E 144 83 2a 00
        E 48 93 2a 22
        E 16 83 2a 00
        E 0 93 2a 22
        E 208 83 2a 00
        E 0 93 2a 2a
        E 16 83 2a 00
        E 96 93 2a 22
        E 16 83 2a 00
        E 0 93 2a 22
        E 64 83 2a 00
        E 32 93 2a 22
        E 16 83 2a 00
        E 0 93 2a 22
        E 208 83 2a 00
        E 0 93 2a 2a
        E 16 83 2a 00
        E 0 93 2a 19
        E 16 83 2a 00
        E 0 93 2a 19
        E 144 83 2a 00
        E 48 93 2a 22
        E 16 83 2a 00
        E 0 93 2a 22
        E 96 83 2a 00
        E 0 93 2a 19
        E 128 83 2a 00
        E 96 93 2a 19
        E 112 83 2a 00
        E 0 93 2a 22
        E 16 83 2a 00
        E 0 93 2a 22
        E 208 83 2a 00
        E 0 93 2a 2a
        E 16 83 2a 00
        E 0 93 2a 19
        E 16 83 2a 00
        E 0 93 2a 19
        E 144 83 2a 00
        E 48 93 2a 22
        E 16 83 2a 00
        E 0 93 2a 22
        E 96 83 2a 00
        E 0 93 2a 19
        E 16 83 2a 00
        E 0 93 2a 19
        E 112 83 2a 00
        E 96 93 2a 22
        E 16 83 2a 00
        E 0 93 2a 22
        E 64 83 2a 00
        E 32 93 2a 19
        E 144 83 2a 00
        E 80 93 2a 19
        E 16 83 2a 00
        E 0 93 2a 19
        E 144 83 2a 00
        E 64 93 2a 19
        E 240 83 2a 00
        E 96 93 2a 22
        E 16 83 2a 00
        E 0 93 2a 22
        E 64 83 2a 00
        E 32 93 2a 22
        E 16 83 2a 00
        E 0 93 2a 22
        E 208 83 2a 00
        E 0 93 2a 2a
        E 16 83 2a 00
        E 0 93 2a 19
        E 16 83 2a 00
        E 0 93 2a 19
        E 144 83 2a 00
        E 48 93 2a 22
        E 16 83 2a 00
        E 0 93 2a 22
        E 208 83 2a 00
        E 0 93 2a 2a
        E 16 83 2a 00
        E 96 93 2a 22
        E 16 83 2a 00
        E 0 93 2a 22
        E 64 83 2a 00
        E 32 93 2a 22
        E 16 83 2a 00
        E 0 93 2a 22
        E 208 83 2a 00
        E 0 93 2a 2a
        E 16 83 2a 00
        E 0 93 2a 19
        E 16 83 2a 00
        E 0 93 2a 19
        E 144 83 2a 00
        E 48 93 2a 22
        E 16 83 2a 00
        E 0 93 2a 22
        E 96 83 2a 00
        E 0 93 2a 19
        E 128 83 2a 00
        E 96 93 2a 19
        E 112 83 2a 00
        E 0 93 2a 22
        E 16 83 2a 00
        E 0 93 2a 22
        E 208 83 2a 00
        E 0 93 2a 2a
        E 16 83 2a 00
        E 0 93 2a 19
        E 16 83 2a 00
        E 0 93 2a 19
        E 144 83 2a 00
        E 48 93 2a 22
        E 16 83 2a 00
        E 0 93 2a 22
        E 96 83 2a 00
        E 0 93 2a 19
        E 16 83 2a 00
        E 0 93 2a 19
        E 112 83 2a 00
        E 96 93 2a 22
        E 16 83 2a 00
        E 0 93 2a 22
        E 64 83 2a 00
        E 32 93 2a 19
        E 144 83 2a 00
        E 80 93 2a 19
        E 16 83 2a 00
        E 0 93 2a 19
        E 144 83 2a 00
        E 64 93 2a 19
        E 240 83 2a 00
        E 96 93 2a 22
        E 16 83 2a 00
        E 0 93 2a 22
        E 64 83 2a 00
        E 32 93 2a 22
        E 16 83 2a 00
        E 0 93 2a 22
        E 208 83 2a 00
        E 0 93 2a 2a
        E 16 83 2a 00
        E 0 93 2a 19
        E 16 83 2a 00
        E 0 93 2a 19
        E 144 83 2a 00
        E 48 93 2a 22
        E 16 83 2a 00
        E 0 93 2a 22
        E 208 83 2a 00
        E 0 93 2a 2a
        E 16 83 2a 00
        E 96 93 2a 22
        E 16 83 2a 00
        E 0 93 2a 22
        E 64 83 2a 00
        E 32 93 2a 22
        E 16 83 2a 00
        E 0 93 2a 22
        E 208 83 2a 00
        E 0 93 2a 2a
        E 16 83 2a 00
        E 0 93 2a 19
        E 16 83 2a 00
        E 0 93 2a 19
        E 144 83 2a 00
        E 48 93 2a 22
        E 16 83 2a 00
        E 0 93 2a 22
        E 96 83 2a 00
        E 0 93 2a 19
        E 128 83 2a 00
        E 96 93 2a 19
        E 112 83 2a 00
        E 0 93 2a 22
        E 16 83 2a 00
        E 0 93 2a 22
        E 208 83 2a 00
        E 0 93 2a 2a
        E 16 83 2a 00
        E 0 93 2a 19
        E 16 83 2a 00
        E 0 93 2a 19
        E 144 83 2a 00
        E 48 93 2a 22
        E 16 83 2a 00
        E 0 93 2a 22
        E 96 83 2a 00
        E 0 93 2a 19
        E 16 83 2a 00
        E 0 93 2a 19
        E 112 83 2a 00
        E 96 93 2a 22
        E 16 83 2a 00
        E 0 93 2a 22
        E 64 83 2a 00
        E 32 93 2a 19
        E 144 83 2a 00
        E 80 93 2a 19
        E 16 83 2a 00
        E 0 93 2a 19
        E 144 83 2a 00
        E 64 93 2a 19
        E 240 83 2a 00
        E 96 93 2a 22
        E 16 83 2a 00
        E 0 93 2a 22
        E 64 83 2a 00
        E 32 93 2a 22
        E 16 83 2a 00
        E 0 93 2a 22
        E 208 83 2a 00
        E 0 93 2a 2a
        E 16 83 2a 00
        E 0 93 2a 19
        E 16 83 2a 00
        E 0 93 2a 19
        E 144 83 2a 00
        E 48 93 2a 22
        E 16 83 2a 00
        E 0 93 2a 22
        E 208 83 2a 00
        E 0 93 2a 2a
        E 16 83 2a 00
        E 96 93 2a 22
        E 16 83 2a 00
        E 0 93 2a 22
        E 64 83 2a 00
        E 32 93 2a 22
        E 16 83 2a 00
        E 0 93 2a 22
        E 208 83 2a 00
        E 0 93 2a 2a
        E 16 83 2a 00
        E 0 93 2a 19
        E 16 83 2a 00
        E 0 93 2a 19
        E 144 83 2a 00
        E 48 93 2a 22
        E 16 83 2a 00
        E 0 93 2a 22
        E 96 83 2a 00
        E 0 93 2a 19
        E 128 83 2a 00
        E 96 93 2a 19
        E 112 83 2a 00
        E 0 93 2a 22
        E 16 83 2a 00
        E 0 93 2a 22
        E 208 83 2a 00
        E 0 93 2a 2a
        E 16 83 2a 00
        E 0 93 2a 19
        E 16 83 2a 00
        E 0 93 2a 19
        E 144 83 2a 00
        E 48 93 2a 22
        E 16 83 2a 00
        E 0 93 2a 22
        E 96 83 2a 00
        E 0 93 2a 19
        E 16 83 2a 00
        E 0 93 2a 19
        E 112 83 2a 00
        E 96 93 2a 22
        E 16 83 2a 00
        E 0 93 2a 22
        E 64 83 2a 00
        E 32 93 2a 19
        E 144 83 2a 00
        E 80 93 2a 19
        E 16 83 2a 00
        E 0 93 2a 19
        E 144 83 2a 00
        E 64 93 2a 19
        E 240 83 2a 00
        E 96 93 2a 22
        E 16 83 2a 00
        E 0 93 2a 22
        E 64 83 2a 00
        E 32 93 2a 22
        E 16 83 2a 00
        E 0 93 2a 22
        E 208 83 2a 00
        E 0 93 2a 2a
        E 16 83 2a 00
        E 0 93 2a 19
        E 16 83 2a 00
        E 0 93 2a 19
        E 144 83 2a 00
        E 48 93 2a 22
        E 16 83 2a 00
        E 0 93 2a 22
        E 208 83 2a 00
        E 0 93 2a 2a
        E 16 83 2a 00
        E 96 93 2a 22
        E 16 83 2a 00
        E 0 93 2a 22
        E 64 83 2a 00
        E 32 93 2a 22
        E 16 83 2a 00
        E 0 93 2a 22
        E 208 83 2a 00
        E 0 93 2a 2a
        E 16 83 2a 00
        E 0 93 2a 19
        E 16 83 2a 00
        E 0 93 2a 19
        E 144 83 2a 00
        E 48 93 2a 22
        E 16 83 2a 00
        E 0 93 2a 22
        E 96 83 2a 00
        E 0 93 2a 19
        E 128 83 2a 00
        E 96 93 2a 19
        E 112 83 2a 00
        E 0 93 2a 22
        E 16 83 2a 00
        E 0 93 2a 22
        E 208 83 2a 00
        E 0 93 2a 2a
        E 16 83 2a 00
        E 0 93 2a 19
        E 16 83 2a 00
        E 0 93 2a 19
        E 144 83 2a 00
        E 48 93 2a 22
        E 16 83 2a 00
        E 0 93 2a 22
        E 96 83 2a 00
        E 0 93 2a 19
        E 16 83 2a 00
        E 0 93 2a 19
        E 112 83 2a 00
        E 96 93 2a 22
        E 16 83 2a 00
        E 0 93 2a 22
        E 64 83 2a 00
        E 32 93 2a 19
        E 144 83 2a 00
        E 80 93 2a 19
        E 16 83 2a 00
        E 0 93 2a 19
        E 144 83 2a 00
        E 64 93 2a 19
        E 240 83 2a 00
        E 96 93 2a 22
        E 16 83 2a 00
        E 0 93 2a 22
        E 64 83 2a 00
        E 32 93 2a 22
        E 16 83 2a 00
        E 0 93 2a 22
        E 208 83 2a 00
        E 0 93 2a 2a
        E 16 83 2a 00
        E 0 93 2a 19
        E 16 83 2a 00
        E 0 93 2a 19
        E 144 83 2a 00
        E 48 93 2a 22
        E 16 83 2a 00
        E 0 93 2a 22
        E 208 83 2a 00
        E 0 93 2a 2a
        E 16 83 2a 00
        E 96 93 2a 22
        E 16 83 2a 00
        E 0 93 2a 22
        E 64 83 2a 00
        E 32 93 2a 22
        E 16 83 2a 00
        E 0 93 2a 22
        E 208 83 2a 00
        E 0 93 2a 2a
        E 16 83 2a 00
        E 0 93 2a 19
        E 16 83 2a 00
        E 0 93 2a 19
        E 144 83 2a 00
        E 48 93 2a 22
        E 16 83 2a 00
        E 0 93 2a 22
        E 96 83 2a 00
        E 0 93 2a 19
        E 128 83 2a 00
        E 96 93 2a 19
        E 112 83 2a 00
        E 0 93 2a 22
        E 16 83 2a 00
        E 0 93 2a 22
        E 208 83 2a 00
        E 0 93 2a 2a
        E 16 83 2a 00
        E 0 93 2a 19
        E 16 83 2a 00
        E 0 93 2a 19
        E 144 83 2a 00
        E 48 93 2a 22
        E 16 83 2a 00
        E 0 93 2a 22
        E 96 83 2a 00
        E 0 93 2a 19
        E 16 83 2a 00
        E 0 93 2a 19
        E 112 83 2a 00
        E 96 93 2a 22
        E 16 83 2a 00
        E 0 93 2a 22
        E 64 83 2a 00
        E 32 93 2a 19
        E 144 83 2a 00
        E 80 93 2a 19
        E 16 83 2a 00
        E 0 93 2a 19
        E 144 83 2a 00
        E 64 93 2a 19
        E 240 83 2a 00
        E 96 93 2a 22
        E 16 83 2a 00
        E 0 93 2a 22
        E 64 83 2a 00
        E 32 93 2a 22
        E 16 83 2a 00
        E 0 93 2a 22
        E 208 83 2a 00
        E 0 93 2a 2a
        E 16 83 2a 00
        E 0 93 2a 19
        E 16 83 2a 00
        E 0 93 2a 19
        E 144 83 2a 00
        E 48 93 2a 22
        E 16 83 2a 00
        E 0 93 2a 22
        E 208 83 2a 00
        E 0 93 2a 2a
        E 16 83 2a 00
        E 96 93 2a 22
        E 16 83 2a 00
        E 0 93 2a 22
        E 64 83 2a 00
        E 32 93 2a 22
        E 16 83 2a 00
        E 0 93 2a 22
        E 208 83 2a 00
        E 0 93 2a 2a
        E 16 83 2a 00
        E 0 93 2a 19
        E 16 83 2a 00
        E 0 93 2a 19
        E 144 83 2a 00
        E 48 93 2a 22
        E 16 83 2a 00
        E 0 93 2a 22
        E 96 83 2a 00
        E 0 93 2a 19
        E 128 83 2a 00
        E 96 93 2a 19
        E 112 83 2a 00
        E 0 93 2a 22
        E 16 83 2a 00
        E 0 93 2a 22
        E 208 83 2a 00
        E 0 93 2a 2a
        E 16 83 2a 00
        E 0 93 2a 19
        E 16 83 2a 00
        E 0 93 2a 19
        E 144 83 2a 00
        E 48 93 2a 22
        E 16 83 2a 00
        E 0 93 2a 22
        E 96 83 2a 00
        E 0 93 2a 19
        E 16 83 2a 00
        E 0 93 2a 19
        E 112 83 2a 00
        E 96 93 2a 22
        E 16 83 2a 00
        E 0 93 2a 22
        E 64 83 2a 00
        E 32 93 2a 19
        E 144 83 2a 00
        E 80 93 2a 19
        E 16 83 2a 00
        E 0 93 2a 19
        E 144 83 2a 00
        E 64 93 2a 19
        E 240 83 2a 00
        E 96 93 2a 22
        E 16 83 2a 00
        E 0 93 2a 22
        E 64 83 2a 00
        E 32 93 2a 22
        E 16 83 2a 00
        E 0 93 2a 22
        E 208 83 2a 00
        E 0 93 2a 2a
        E 16 83 2a 00
        E 0 93 2a 19
        E 16 83 2a 00
        E 0 93 2a 19
        E 144 83 2a 00
        E 48 93 2a 22
        E 16 83 2a 00
        E 0 93 2a 22
        E 208 83 2a 00
        E 0 93 2a 2a
        E 16 83 2a 00
        E 96 93 2a 22
        E 16 83 2a 00
        E 0 93 2a 22
        E 64 83 2a 00
        E 32 93 2a 22
        E 16 83 2a 00
        E 0 93 2a 22
        E 208 83 2a 00
        E 0 93 2a 2a
        E 16 83 2a 00
        E 0 93 2a 19
        E 16 83 2a 00
        E 0 93 2a 19
        E 144 83 2a 00
        E 48 93 2a 22
        E 16 83 2a 00
        E 0 93 2a 22
        E 96 83 2a 00
        E 0 93 2a 19
        E 128 83 2a 00
        E 96 93 2a 19
        E 112 83 2a 00
        E 0 93 2a 22
        E 16 83 2a 00
        E 0 93 2a 22
        E 208 83 2a 00
        E 0 93 2a 2a
        E 16 83 2a 00
        E 0 93 2a 19
        E 16 83 2a 00
        E 0 93 2a 19
        E 144 83 2a 00
        E 48 93 2a 22
        E 16 83 2a 00
        E 0 93 2a 22
        E 96 83 2a 00
        E 0 93 2a 19
        E 16 83 2a 00
        E 0 93 2a 19
        E 112 83 2a 00
        E 96 93 2a 22
        E 16 83 2a 00
        E 0 93 2a 22
        E 64 83 2a 00
        E 32 93 2a 19
        E 144 83 2a 00
        E 80 93 2a 19
        E 16 83 2a 00
        E 0 93 2a 19
        E 144 83 2a 00
        E 64 93 2a 19
        E 240 83 2a 00
        E 96 93 2a 22
        E 16 83 2a 00
        E 0 93 2a 22
        E 64 83 2a 00
        E 32 93 2a 22
        E 16 83 2a 00
        E 0 93 2a 22
        E 208 83 2a 00
        E 0 93 2a 2a
        E 16 83 2a 00
        E 0 93 2a 19
        E 16 83 2a 00
        E 0 93 2a 19
        E 144 83 2a 00
        E 48 93 2a 22
        E 16 83 2a 00
        E 0 93 2a 22
        E 208 83 2a 00
        E 0 93 2a 2a
        E 16 83 2a 00
        E 96 93 2a 22
        E 16 83 2a 00
        E 0 93 2a 22
        E 64 83 2a 00
        E 32 93 2a 22
        E 16 83 2a 00
        E 0 93 2a 22
        E 208 83 2a 00
        E 0 93 2a 2a
        E 16 83 2a 00
        E 0 93 2a 19
        E 16 83 2a 00
        E 0 93 2a 19
        E 144 83 2a 00
        E 48 93 2a 22
        E 16 83 2a 00
        E 0 93 2a 22
        E 96 83 2a 00
        E 0 93 2a 19
        E 128 83 2a 00
        E 96 93 2a 19
        E 112 83 2a 00
        E 0 93 2a 22
        E 16 83 2a 00
        E 0 93 2a 22
        E 208 83 2a 00
        E 0 93 2a 2a
        E 16 83 2a 00
        E 0 93 2a 19
        E 16 83 2a 00
        E 0 93 2a 19
        E 144 83 2a 00
        E 48 93 2a 22
        E 16 83 2a 00
        E 0 93 2a 22
        E 96 83 2a 00
        E 0 93 2a 19
        E 16 83 2a 00
        E 0 93 2a 19
        E 112 83 2a 00
        E 96 93 2a 22
        E 16 83 2a 00
        E 0 93 2a 22
        E 64 83 2a 00
        E 32 93 2a 19
        E 144 83 2a 00
        E 80 93 2a 19
        E 16 83 2a 00
        E 0 93 2a 19
        E 144 83 2a 00
        E 64 93 2a 19
        E 240 83 2a 00
        E 96 93 2a 22
        E 16 83 2a 00
        E 0 93 2a 22
        E 64 83 2a 00
        E 32 93 2a 22
        E 16 83 2a 00
        E 0 93 2a 22
        E 208 83 2a 00
        E 0 93 2a 2a
        E 16 83 2a 00
        E 0 93 2a 19
        E 16 83 2a 00
        E 0 93 2a 19
        E 144 83 2a 00
        E 48 93 2a 22
        E 16 83 2a 00
        E 0 93 2a 22
        E 208 83 2a 00
        E 0 93 2a 2a
        E 16 83 2a 00
        E 96 93 2a 22
        E 16 83 2a 00
        E 0 93 2a 22
        E 64 83 2a 00
        E 32 93 2a 22
        E 16 83 2a 00
        E 0 93 2a 22
        E 208 83 2a 00
        E 0 93 2a 2a
        E 16 83 2a 00
        E 0 93 2a 19
        E 16 83 2a 00
        E 0 93 2a 19
        E 144 83 2a 00
        E 48 93 2a 22
        E 16 83 2a 00
        E 0 93 2a 22
        E 96 83 2a 00
        E 0 93 2a 19
        E 128 83 2a 00
        E 96 93 2a 19
        E 112 83 2a 00
        E 0 93 2a 22
        E 16 83 2a 00
        E 0 93 2a 22
        E 208 83 2a 00
        E 0 93 2a 2a
        E 16 83 2a 00
        E 0 93 2a 19
        E 16 83 2a 00
        E 0 93 2a 19
        E 144 83 2a 00
        E 48 93 2a 22
        E 16 83 2a 00
        E 0 93 2a 22
        E 96 83 2a 00
        E 0 93 2a 19
        E 16 83 2a 00
        E 0 93 2a 19
        E 112 83 2a 00
        E 96 93 2a 22
        E 16 83 2a 00
        E 0 93 2a 22
        E 64 83 2a 00
        E 32 93 2a 19
        E 144 83 2a 00
        E 80 93 2a 19
        E 16 83 2a 00
        E 0 93 2a 19
        E 144 83 2a 00
        E 64 93 2a 19
        E 240 83 2a 00
        E 96 93 2a 22
        E 16 83 2a 00
        E 0 93 2a 22
        E 64 83 2a 00
        E 32 93 2a 22
        E 16 83 2a 00
        E 0 93 2a 22
        E 208 83 2a 00
        E 0 93 2a 2a
        E 16 83 2a 00
        E 0 93 2a 19
        E 16 83 2a 00
        E 0 93 2a 19
        E 144 83 2a 00
        E 48 93 2a 22
        E 16 83 2a 00
        E 0 93 2a 22
        E 208 83 2a 00
        E 0 93 2a 2a
        E 16 83 2a 00
        E 96 93 2a 22
        E 16 83 2a 00
        E 0 93 2a 22
        E 64 83 2a 00
        E 32 93 2a 22
        E 16 83 2a 00
        E 0 93 2a 22
        E 208 83 2a 00
        E 0 93 2a 2a
        E 16 83 2a 00
        E 0 93 2a 19
        E 16 83 2a 00
        E 0 93 2a 19
        E 144 83 2a 00
        E 48 93 2a 22
        E 16 83 2a 00
        E 0 93 2a 22
        E 96 83 2a 00
        E 0 93 2a 19
        E 128 83 2a 00
        E 96 93 2a 19
        E 112 83 2a 00
        E 0 93 2a 22
        E 16 83 2a 00
        E 0 93 2a 22
        E 208 83 2a 00
        E 0 93 2a 2a
        E 16 83 2a 00
        E 0 93 2a 19
        E 16 83 2a 00
        E 0 93 2a 19
        E 144 83 2a 00
        E 48 93 2a 22
        E 16 83 2a 00
        E 0 93 2a 22
        E 96 83 2a 00
        E 0 93 2a 19
        E 16 83 2a 00
        E 0 93 2a 19
        E 112 83 2a 00
        E 96 93 2a 22
        E 16 83 2a 00
        E 0 93 2a 22
        E 64 83 2a 00
        E 32 93 2a 19
        E 144 83 2a 00
        E 80 93 2a 19
        E 16 83 2a 00
        E 0 93 2a 19
        E 144 83 2a 00
        E 64 93 2a 19
        E 240 83 2a 00
        E 96 93 2a 22
        E 16 83 2a 00
        E 0 93 2a 22
        E 64 83 2a 00
        E 32 93 2a 22
        E 16 83 2a 00
        E 0 93 2a 22
        E 208 83 2a 00
        E 0 93 2a 2a
        E 16 83 2a 00
        E 0 93 2a 19
        E 16 83 2a 00
        E 0 93 2a 19
        E 144 83 2a 00
        E 48 93 2a 22
        E 16 83 2a 00
        E 0 93 2a 22
        E 208 83 2a 00
        E 0 93 2a 2a
        E 16 83 2a 00
        E 96 93 2a 22
        E 16 83 2a 00
        E 0 93 2a 22
        E 64 83 2a 00
        E 32 93 2a 22
        E 16 83 2a 00
        E 0 93 2a 22
        E 208 83 2a 00
        E 0 93 2a 2a
        E 16 83 2a 00
        E 0 93 2a 19
        E 16 83 2a 00
        E 0 93 2a 19
        E 144 83 2a 00
        E 48 93 2a 22
        E 16 83 2a 00
        E 0 93 2a 22
        E 96 83 2a 00
        E 0 93 2a 19
        E 128 83 2a 00
        E 96 93 2a 19
        E 112 83 2a 00
        E 0 93 2a 22
        E 16 83 2a 00
        E 0 93 2a 22
        E 208 83 2a 00
        E 0 93 2a 2a
        E 16 83 2a 00
        E 0 93 2a 19
        E 16 83 2a 00
        E 0 93 2a 19
        E 144 83 2a 00
        E 48 93 2a 22
        E 16 83 2a 00
        E 0 93 2a 22
        E 96 83 2a 00
        E 0 93 2a 19
        E 16 83 2a 00
        E 0 93 2a 19
        E 112 83 2a 00
        E 96 93 2a 22
        E 16 83 2a 00
        E 0 93 2a 22
        E 64 83 2a 00
        E 32 93 2a 19
        E 144 83 2a 00
        E 80 93 2a 19
        E 16 83 2a 00
        E 0 93 2a 19
        E 144 83 2a 00
        E 64 93 2a 19
        E 240 83 2a 00
        E 96 93 2a 22
        E 16 83 2a 00
        E 0 93 2a 22
        E 64 83 2a 00
        E 32 93 2a 22
        E 16 83 2a 00
        E 0 93 2a 22
        E 208 83 2a 00
        E 0 93 2a 2a
        E 16 83 2a 00
        E 0 93 2a 19
        E 16 83 2a 00
        E 0 93 2a 19
        E 144 83 2a 00
        E 48 93 2a 22
        E 16 83 2a 00
        E 0 93 2a 22
        E 208 83 2a 00
        E 0 93 2a 2a
        E 16 83 2a 00
        E 96 93 2a 22
        E 16 83 2a 00
        E 0 93 2a 22
        E 64 83 2a 00
        E 32 93 2a 22
        E 16 83 2a 00
        E 0 93 2a 22
        E 208 83 2a 00
        E 0 93 2a 2a
        E 16 83 2a 00
        E 0 93 2a 19
        E 16 83 2a 00
        E 0 93 2a 19
        E 144 83 2a 00
        E 48 93 2a 22
        E 16 83 2a 00
        E 0 93 2a 22
        E 96 83 2a 00
        E 0 93 2a 19
        E 128 83 2a 00
        E 96 93 2a 19
        E 112 83 2a 00
        E 0 93 2a 22
        E 16 83 2a 00
        E 0 93 2a 22
        E 208 83 2a 00
        E 0 93 2a 2a
        E 16 83 2a 00
        E 0 93 2a 19
        E 16 83 2a 00
        E 0 93 2a 19
        E 144 83 2a 00
        E 48 93 2a 22
        E 16 83 2a 00
        E 0 93 2a 22
        E 96 83 2a 00
        E 0 93 2a 19
        E 16 83 2a 00
        E 0 93 2a 19
        E 112 83 2a 00
        E 96 93 2a 22
        E 16 83 2a 00
        E 0 93 2a 22
        E 64 83 2a 00
        E 32 93 2a 19
        E 144 83 2a 00
        E 80 93 2a 19
        E 16 83 2a 00
        E 0 93 2a 19
        E 144 83 2a 00
        E 64 93 2a 19
        E 240 83 2a 00
        E 96 93 2a 22
        E 16 83 2a 00
        E 0 93 2a 22
        E 64 83 2a 00
        E 32 93 2a 22
        E 16 83 2a 00
        E 0 93 2a 22
        E 208 83 2a 00
        E 0 93 2a 2a
        E 16 83 2a 00
        E 0 93 2a 19
        E 16 83 2a 00
        E 0 93 2a 19
        E 144 83 2a 00
        E 48 93 2a 22
        E 16 83 2a 00
        E 0 93 2a 22
        E 208 83 2a 00
        E 0 93 2a 2a
        E 16 83 2a 00
        E 96 93 2a 22
        E 16 83 2a 00
        E 0 93 2a 22
        E 64 83 2a 00
        E 32 93 2a 22
        E 16 83 2a 00
        E 0 93 2a 22
        E 208 83 2a 00
        E 0 93 2a 2a
        E 16 83 2a 00
        E 0 93 2a 19
        E 16 83 2a 00
        E 0 93 2a 19
        E 144 83 2a 00
        E 48 93 2a 22
        E 16 83 2a 00
        E 0 93 2a 22
        E 96 83 2a 00
        E 0 93 2a 19
        E 128 83 2a 00
        E 96 93 2a 19
        E 112 83 2a 00
        E 0 93 2a 22
        E 16 83 2a 00
        E 0 93 2a 22
        E 208 83 2a 00
        E 0 93 2a 2a
        E 16 83 2a 00
        E 0 93 2a 19
        E 16 83 2a 00
        E 0 93 2a 19
        E 144 83 2a 00
        E 48 93 2a 22
        E 16 83 2a 00
        E 0 93 2a 22
        E 96 83 2a 00
        E 0 93 2a 19
        E 16 83 2a 00
        E 0 93 2a 19
        E 112 83 2a 00
        E 96 93 2a 22
        E 16 83 2a 00
        E 0 93 2a 22
        E 64 83 2a 00
        E 32 93 2a 19
        E 144 83 2a 00
        E 80 93 2a 19
        E 16 83 2a 00
        E 0 93 2a 19
        E 144 83 2a 00
        E 64 93 2a 19
        E 240 83 2a 00
        E 96 93 2a 22
        E 16 83 2a 00
        E 0 93 2a 22
        E 64 83 2a 00
        E 32 93 2a 22
        E 16 83 2a 00
        E 0 93 2a 22
        E 208 83 2a 00
        E 0 93 2a 2a
        E 16 83 2a 00
        E 0 93 2a 19
        E 16 83 2a 00
        E 0 93 2a 19
        E 144 83 2a 00
        E 48 93 2a 22
        E 16 83 2a 00
        E 0 93 2a 22
        E 208 83 2a 00
        E 0 93 2a 2a
        E 16 83 2a 00
        E 96 93 2a 22
        E 16 83 2a 00
        E 0 93 2a 22
        E 64 83 2a 00
        E 32 93 2a 22
        E 16 83 2a 00
        E 0 93 2a 22
        E 208 83 2a 00
        E 0 93 2a 2a
        E 16 83 2a 00
        E 0 93 2a 19
        E 16 83 2a 00
        E 0 93 2a 19
        E 144 83 2a 00
        E 48 93 2a 22
        E 16 83 2a 00
        E 0 93 2a 22
        E 96 83 2a 00
        E 0 93 2a 19
        E 128 83 2a 00
        E 96 93 2a 19
        E 112 83 2a 00
        E 0 93 2a 22
        E 16 83 2a 00
        E 0 93 2a 22
        E 208 83 2a 00
        E 0 93 2a 2a
        E 16 83 2a 00
        E 0 93 2a 19
        E 16 83 2a 00
        E 0 93 2a 19
        E 144 83 2a 00
        E 48 93 2a 22
        E 16 83 2a 00
        E 0 93 2a 22
        E 96 83 2a 00
        E 0 93 2a 19
        E 16 83 2a 00
        E 0 93 2a 19
        E 112 83 2a 00
        E 96 93 2a 22
        E 16 83 2a 00
        E 0 93 2a 22
        E 64 83 2a 00
        E 32 93 2a 19
        E 144 83 2a 00
        E 80 93 2a 19
        E 16 83 2a 00
        E 0 93 2a 19
        E 144 83 2a 00
        E 64 93 2a 19
        E 240 83 2a 00
        E 96 93 2a 22
        E 16 83 2a 00
        E 0 93 2a 22
        E 64 83 2a 00
        E 32 93 2a 22
        E 16 83 2a 00
        E 0 93 2a 22
        E 208 83 2a 00
        E 0 93 2a 2a
        E 16 83 2a 00
        E 0 93 2a 19
        E 16 83 2a 00
        E 0 93 2a 19
        E 144 83 2a 00
        E 48 93 2a 22
        E 16 83 2a 00
        E 0 93 2a 22
        E 208 83 2a 00
        E 0 93 2a 2a
        E 16 83 2a 00
        E 96 93 2a 22
        E 16 83 2a 00
        E 0 93 2a 22
        E 64 83 2a 00
        E 32 93 2a 22
        E 16 83 2a 00
        E 0 93 2a 22
        E 208 83 2a 00
        E 0 93 2a 2a
        E 16 83 2a 00
        E 0 93 2a 19
        E 16 83 2a 00
        E 0 93 2a 19
        E 144 83 2a 00
        E 48 93 2a 22
        E 16 83 2a 00
        E 0 93 2a 22
        E 96 83 2a 00
        E 0 93 2a 19
        E 128 83 2a 00
        E 96 93 2a 19
        E 112 83 2a 00
        E 0 93 2a 22
        E 16 83 2a 00
        E 0 93 2a 22
        E 208 83 2a 00
        E 0 93 2a 2a
        E 16 83 2a 00
        E 0 93 2a 19
        E 16 83 2a 00
        E 0 93 2a 19
        E 144 83 2a 00
        E 48 93 2a 22
        E 16 83 2a 00
        E 0 93 2a 22
        E 96 83 2a 00
        E 0 93 2a 19
        E 16 83 2a 00
        E 0 93 2a 19
        E 112 83 2a 00
        E 96 93 2a 22
        E 16 83 2a 00
        E 0 93 2a 22
        E 64 83 2a 00
        E 32 93 2a 19
        E 144 83 2a 00
        E 80 93 2a 19
        E 16 83 2a 00
        E 0 93 2a 19
        E 144 83 2a 00
        E 64 93 2a 19
        E 240 83 2a 00
        E 96 93 2a 22
        E 16 83 2a 00
        E 0 93 2a 22
        E 64 83 2a 00
        E 32 93 2a 22
        E 16 83 2a 00
        E 0 93 2a 22
        E 208 83 2a 00
        E 0 93 2a 2a
        E 16 83 2a 00
        E 0 93 2a 19
        E 16 83 2a 00
        E 0 93 2a 19
        E 144 83 2a 00
        E 48 93 2a 22
        E 16 83 2a 00
        E 0 93 2a 22
        E 208 83 2a 00
        E 0 93 2a 2a
        E 16 83 2a 00
        E 96 93 2a 22
        E 16 83 2a 00
        E 0 93 2a 22
        E 64 83 2a 00
        E 32 93 2a 22
        E 16 83 2a 00
        E 0 93 2a 22
        E 208 83 2a 00
        E 0 93 2a 2a
        E 16 83 2a 00
        E 0 93 2a 19
        E 16 83 2a 00
        E 0 93 2a 19
        E 144 83 2a 00
        E 48 93 2a 22
        E 16 83 2a 00
        E 0 93 2a 22
        E 96 83 2a 00
        E 0 93 2a 19
        E 128 83 2a 00
        E 96 93 2a 19
        E 112 83 2a 00
        E 0 93 2a 22
        E 16 83 2a 00
        E 0 93 2a 22
        E 208 83 2a 00
        E 0 93 2a 2a
        E 16 83 2a 00
        E 0 93 2a 19
        E 16 83 2a 00
        E 0 93 2a 19
        E 144 83 2a 00
        E 48 93 2a 22
        E 16 83 2a 00
        E 0 93 2a 22
        E 96 83 2a 00
        E 0 93 2a 19
        E 16 83 2a 00
        E 0 93 2a 19
        E 112 83 2a 00
        E 96 93 2a 22
        E 16 83 2a 00
        E 0 93 2a 22
        E 64 83 2a 00
        E 32 93 2a 19
        E 144 83 2a 00
        E 80 93 2a 19
        E 16 83 2a 00
        E 0 93 2a 19
        E 144 83 2a 00
        E 64 93 2a 19
        E 240 83 2a 00
        E 96 93 2a 22
        E 16 83 2a 00
        E 0 93 2a 22
        E 64 83 2a 00
        E 32 93 2a 22
        E 16 83 2a 00
        E 0 93 2a 22
        E 208 83 2a 00
        E 0 93 2a 2a
        E 16 83 2a 00
        E 0 93 2a 19
        E 16 83 2a 00
        E 0 93 2a 19
        E 144 83 2a 00
        E 48 93 2a 22
        E 16 83 2a 00
        E 0 93 2a 22
        E 208 83 2a 00
        E 0 93 2a 2a
        E 16 83 2a 00
        E 96 93 2a 22
        E 16 83 2a 00
        E 0 93 2a 22
        E 64 83 2a 00
        E 32 93 2a 22
        E 16 83 2a 00
        E 0 93 2a 22
        E 208 83 2a 00
        E 0 93 2a 2a
        E 16 83 2a 00
        E 0 93 2a 19
        E 16 83 2a 00
        E 0 93 2a 19
        E 144 83 2a 00
        E 48 93 2a 22
        E 16 83 2a 00
        E 0 93 2a 22
        E 96 83 2a 00
        E 0 93 2a 19
        E 128 83 2a 00
        E 96 93 2a 19
        E 112 83 2a 00
        E 0 93 2a 22
        E 16 83 2a 00
        E 0 93 2a 22
        E 208 83 2a 00
        E 0 93 2a 2a
        E 16 83 2a 00
        E 0 93 2a 19
        E 16 83 2a 00
        E 0 93 2a 19
        E 144 83 2a 00
        E 48 93 2a 22
        E 16 83 2a 00
        E 0 93 2a 22
        E 96 83 2a 00
        E 0 93 2a 19
        E 16 83 2a 00
        E 0 93 2a 19
        E 112 83 2a 00
        E 96 93 2a 22
        E 16 83 2a 00
        E 0 93 2a 22
        E 64 83 2a 00
        E 32 93 2a 19
        E 144 83 2a 00
        E 80 93 2a 19
        E 16 83 2a 00
        E 0 93 2a 19
        E 144 83 2a 00
        E 64 93 2a 19
        E 240 83 2a 00
        E 96 93 2a 22
        E 16 83 2a 00
        E 0 93 2a 22
        E 64 83 2a 00
        E 32 93 2a 22
        E 16 83 2a 00
        E 0 93 2a 22
        E 208 83 2a 00
        E 0 93 2a 2a
        E 16 83 2a 00
        E 0 93 2a 19
        E 16 83 2a 00
        E 0 93 2a 19
        E 144 83 2a 00
        E 48 93 2a 22
        E 16 83 2a 00
        E 0 93 2a 22
        E 208 83 2a 00
        E 0 93 2a 2a
        E 16 83 2a 00
        E 96 93 2a 22
        E 16 83 2a 00
        E 0 93 2a 22
        E 64 83 2a 00
        E 32 93 2a 22
        E 16 83 2a 00
        E 0 93 2a 22
        E 208 83 2a 00
        E 0 93 2a 2a
        E 16 83 2a 00
        E 0 93 2a 19
        E 16 83 2a 00
        E 0 93 2a 19
        E 144 83 2a 00
        E 48 93 2a 22
        E 16 83 2a 00
        E 0 93 2a 22
        E 96 83 2a 00
        E 0 93 2a 19
        E 128 83 2a 00
        E 96 93 2a 19
        E 112 83 2a 00
        E 0 93 2a 22
        E 16 83 2a 00
        E 0 93 2a 22
        E 208 83 2a 00
        E 0 93 2a 2a
        E 16 83 2a 00
        E 0 93 2a 19
        E 16 83 2a 00
        E 0 93 2a 19
        E 144 83 2a 00
        E 48 93 2a 22
        E 16 83 2a 00
        E 0 93 2a 22
        E 96 83 2a 00
        E 0 93 2a 19
        E 16 83 2a 00
        E 0 93 2a 19
        E 112 83 2a 00
        E 96 93 2a 22
        E 16 83 2a 00
        E 0 93 2a 22
        E 64 83 2a 00
        E 32 93 2a 19
        E 144 83 2a 00
        E 80 93 2a 19
        E 16 83 2a 00
        E 0 93 2a 19
        E 144 83 2a 00
        E 64 93 2a 19
        E 240 83 2a 00
        E 432 93 2a 19
        E 16 83 2a 00
        E 0 93 2a 19
        E 144 83 2a 00
        E 288 93 2a 2a
        E 16 83 2a 00
        E 432 93 2a 19
        E 16 83 2a 00
        E 0 93 2a 19
        E 144 83 2a 00
        E 288 93 2a 2a
        E 16 83 2a 00
        E 432 93 2a 19
        E 16 83 2a 00
        E 0 93 2a 19
        E 144 83 2a 00
        E 288 93 2a 2a
        E 16 83 2a 00
        E 432 93 2a 19
        E 16 83 2a 00
        E 0 93 2a 19
        E 144 83 2a 00
        E 288 93 2a 2a
        E 16 83 2a 00
        E 432 93 2a 19
        E 16 83 2a 00
        E 0 93 2a 19
        E 112 83 2a 00
        E 0 b3 7b 00
        E 0 ff 2f 00
      >
    >
  >
>