<REAPER_PROJECT 0.1 "7.27/win64" 1707000000
  <NOTES 0 2
    |ReapNES Studio Project
    |MIDI Import - Chuck_Yeagers_Fighter_Combat_title_rom_v1
  >
  RIPPLE 0
  GROUPOVERRIDE 0 0 0
  AUTOXFADE 129
  ENVATTACH 3
  POOLEDENVATTACH 0
  MIXERUIFLAGS 11 48
  ENVFADESZ10 40
  PEAKGAIN 1
  FEEDBACK 0
  PANLAW 1
  PROJOFFS 0 0 0
  MAXPROJLEN 0 0
  GRID 3199 8 1 8 1 0 0 0
  TIMEMODE 1 5 -1 30 0 0 -1
  VIDEO_CONFIG 0 0 65792
  PANMODE 3
  PANLAWFLAGS 3
  CURSOR 0
  ZOOM 100 0 0
  VZOOMEX 6 0
  USE_REC_CFG 0
  RECMODE 1
  SMPTESYNC 0 30 100 40 1000 300 0 0 1 0 0
  LOOP 0
  LOOPGRAN 0 4
  RECORD_PATH "Media" ""
  <RECORD_CFG
    ZXZhdxgAAQ==
  >
  <APPLYFX_CFG
  >
  RENDER_FILE ""
  RENDER_PATTERN ""
  RENDER_FMT 0 2 0
  RENDER_1X 0
  RENDER_RANGE 1 0 0 18 1000
  RENDER_RESAMPLE 3 0 1
  RENDER_ADDTOPROJ 0
  RENDER_STEMS 0
  RENDER_DITHER 0
  TIMELOCKMODE 1
  TEMPOENVLOCKMODE 1
  ITEMMIX 1
  DEFPITCHMODE 589824 0
  TAKELANE 1
  SAMPLERATE 44100 0 0
  <RENDER_CFG
    ZXZhdxgAAQ==
  >
  LOCK 1
  <METRONOME 6 2
    VOL 0.25 0.125
    BEATLEN 4
    FREQ 1760 880 1
    SAMPLES "" ""
    SPLIGNORE 0 0
    SPLDEF 2 660 "" 0
    SPLDEF 3 440 "" 0
    PATTERN 0 169
    PATTERNSTR ABBB
    MULT 1
  >
  GLOBAL_AUTO -1
  TEMPO 128.59999614200012 4 4
  PLAYRATE 1 0 0.25 4
  SELECTION 0 0
  SELECTION2 0 0
  MASTERAUTOMODE 0
  MASTERTRACKHEIGHT 0 0
  MASTERPEAKCOL 16576
  MASTERMUTESOLO 0
  MASTERTRACKVIEW 0 0.6667 0.5 0.5 0 0 0 0 0 0 0 0 0 0
  MASTERHWOUT 0 0 1 0 0 0 0 -1
  MASTER_NCH 2 2
  MASTER_VOLUME 1 0 -1 -1 1
  MASTER_PANMODE 3
  MASTER_PANLAWFLAGS 3
  MASTER_FX 1
  MASTER_SEL 0
  <MASTERPLAYSPEEDENV
    EGUID {3E698EC2-E0FF-48EC-BA87-761E0D1ECC8B}
    ACT 0 -1
    VIS 0 1 1
    LANEHEIGHT 0 0
    ARM 0
    DEFSHAPE 0 -1 -1
  >
  <TEMPOENVEX
    EGUID {4E24E3A7-13E5-4405-B758-7201BF3C752A}
    ACT 1 -1
    VIS 1 0 1
    LANEHEIGHT 0 0
    ARM 0
    DEFSHAPE 1 -1 -1
  >
  <PROJBAY
  >
  <TRACK {64752833-8F2B-4614-ACAC-2CDDBC477A60}
    NAME "NES - Pulse 1 [ch0]"
    PEAKCOL 16576606
    BEAT -1
    AUTOMODE 0
    PANLAWFLAGS 3
    VOLPAN 1 0 -1 -1 1
    MUTESOLO 0 0 0
    IPHASE 0
    PLAYOFFS 0 1
    ISBUS 0 0
    BUSCOMP 0 0 0 0 0
    SHOWINMIX 1 0.6667 0.5 1 0.5 0 0 0
    FIXEDLANES 9 0 0 0 0
    SEL 1
    REC 1 5088 1 0 0 0 0 0
    VU 2
    TRACKHEIGHT 0 0 0 0 0 0 0
    INQ 0 0 0 0.5 100 0 0 100
    NCHAN 2
    FX 1
    TRACKID {64752833-8F2B-4614-ACAC-2CDDBC477A60}
    PERF 0
    MIDIOUT -1
    MAINSEND 1 0
    <FXCHAIN
      WNDRECT 24 52 700 560
      SHOW 0
      LASTSEL 0
      DOCKED 0
      BYPASS 0 0 0
      <JS "ReapNES Studio/ReapNES_Console.jsfx" ""
        2 15 1 10 80 10 100 2 1 15 1 5 60 10 80 1 1 0 50 0 0 15 1 0 100 0 0 0.500000 0.500000 0.400000 0.300000 0.800000 0 1 0 0 0 0 - - - - - - - - - - - - - - - - - - - - - - - - - -
      >
      FLOATPOS 0 0 0 0
      FXID {E3705E07-7906-4FE2-97A1-FB5ED9911DA4}
      WAK 0 0
    >
    <ITEM
      POSITION 0
      LENGTH 9.33126
      LOOP 0
      ALLTAKES 0
      FADEIN 0 0 0 0 0 0 0
      FADEOUT 0 0 0 0 0 0 0
      MUTE 0 0
      SEL 0
      IGUID {2B473842-BFC0-46BF-8B67-77E504ADD022}
      <SOURCE MIDI
        HASDATA 1 480 QN
        CCINTERP 32
        E 0 c0 50
        E 0 b0 0c 20
        E 0 b0 0b 7f
        E 0 90 1d 7f
        E 16 b0 0b 77
        E 16 b0 0b 55
        E 16 b0 0b 4c
        E 32 b0 0b 44
        E 16 b0 0b 7f
        E 16 b0 0b 77
        E 16 b0 0b 55
        E 16 b0 0b 4c
        E 32 b0 0b 44
        E 16 b0 0b 33
        E 16 b0 0b 2a
        E 80 b0 0b 7f
        E 16 b0 0b 77
        E 16 b0 0b 55
        E 16 b0 0b 4c
        E 32 b0 0b 44
        E 16 b0 0b 33
        E 16 b0 0b 2a
        E 80 b0 0b 7f
        E 16 b0 0b 77
        E 16 b0 0b 55
        E 16 b0 0b 4c
        E 32 b0 0b 44
        E 16 b0 0b 7f
        E 0 80 1d 00
        E 0 90 24 7f
        E 16 b0 0b 77
        E 16 b0 0b 55
        E 16 b0 0b 4c
        E 32 b0 0b 44
        E 16 b0 0b 7f
        E 0 80 24 00
        E 0 90 29 7f
        E 16 b0 0b 77
        E 16 b0 0b 55
        E 16 b0 0b 4c
        E 32 b0 0b 44
        E 16 b0 0b 7f
        E 0 80 29 00
        E 0 90 30 7f
        E 16 b0 0b 77
        E 16 b0 0b 55
        E 16 b0 0b 4c
        E 32 b0 0b 44
        E 16 b0 0b 7f
        E 0 80 30 00
        E 0 90 1d 7f
        E 16 b0 0b 77
        E 16 b0 0b 55
        E 16 b0 0b 4c
        E 32 b0 0b 44
        E 16 b0 0b 33
        E 16 b0 0b 2a
        E 80 b0 0b 7f
        E 16 b0 0b 77
        E 16 b0 0b 55
        E 16 b0 0b 4c
        E 32 b0 0b 44
        E 16 b0 0b 33
        E 16 b0 0b 2a
        E 80 b0 0b 7f
        E 0 80 1d 00
        E 0 90 29 7f
        E 16 b0 0b 77
        E 16 b0 0b 55
        E 16 b0 0b 4c
        E 32 b0 0b 44
        E 16 b0 0b 33
        E 16 b0 0b 2a
        E 80 b0 0b 7f
        E 0 80 29 00
        E 0 90 1d 7f
        E 16 b0 0b 77
        E 16 b0 0b 55
        E 16 b0 0b 4c
        E 32 b0 0b 44
        E 16 b0 0b 7f
        E 16 b0 0b 77
        E 16 b0 0b 55
        E 16 b0 0b 4c
        E 32 b0 0b 44
        E 16 b0 0b 7f
        E 16 b0 0b 77
        E 16 b0 0b 55
        E 16 b0 0b 4c
        E 32 b0 0b 44
        E 16 b0 0b 33
        E 16 b0 0b 2a
        E 80 b0 0b 7f
        E 16 b0 0b 77
        E 16 b0 0b 55
        E 16 b0 0b 4c
        E 32 b0 0b 44
        E 16 b0 0b 33
        E 16 b0 0b 2a
        E 80 b0 0b 7f
        E 16 b0 0b 77
        E 16 b0 0b 55
        E 16 b0 0b 4c
        E 32 b0 0b 44
        E 16 b0 0b 7f
        E 0 80 1d 00
        E 0 90 24 7f
        E 16 b0 0b 77
        E 16 b0 0b 55
        E 16 b0 0b 4c
        E 32 b0 0b 44
        E 16 b0 0b 7f
        E 0 80 24 00
        E 0 90 29 7f
        E 16 b0 0b 77
        E 16 b0 0b 55
        E 16 b0 0b 4c
        E 32 b0 0b 44
        E 16 b0 0b 7f
        E 0 80 29 00
        E 0 90 30 7f
        E 16 b0 0b 77
        E 16 b0 0b 55
        E 16 b0 0b 4c
        E 32 b0 0b 44
        E 16 b0 0b 7f
        E 0 80 30 00
        E 0 90 1d 7f
        E 16 b0 0b 77
        E 16 b0 0b 55
        E 16 b0 0b 4c
        E 32 b0 0b 44
        E 16 b0 0b 33
        E 16 b0 0b 2a
        E 80 b0 0b 7f
        E 16 b0 0b 77
        E 16 b0 0b 55
        E 16 b0 0b 4c
        E 32 b0 0b 44
        E 16 b0 0b 33
        E 16 b0 0b 2a
        E 80 b0 0b 7f
        E 0 80 1d 00
        E 0 90 29 7f
        E 16 b0 0b 77
        E 16 b0 0b 55
        E 16 b0 0b 4c
        E 32 b0 0b 44
        E 16 b0 0b 33
        E 16 b0 0b 2a
        E 80 b0 0b 7f
        E 0 80 29 00
        E 0 90 1d 7f
        E 16 b0 0b 77
        E 16 b0 0b 55
        E 16 b0 0b 4c
        E 32 b0 0b 44
        E 16 b0 0b 7f
        E 16 b0 0b 77
        E 16 b0 0b 55
        E 16 b0 0b 4c
        E 32 b0 0b 44
        E 16 b0 0b 7f
        E 16 b0 0b 77
        E 16 b0 0b 55
        E 16 b0 0b 4c
        E 32 b0 0b 44
        E 16 b0 0b 33
        E 16 b0 0b 2a
        E 80 b0 0b 7f
        E 16 b0 0b 77
        E 16 b0 0b 55
        E 16 b0 0b 4c
        E 32 b0 0b 44
        E 16 b0 0b 33
        E 16 b0 0b 2a
        E 96 b0 0b 7f
        E 16 b0 0b 77
        E 16 b0 0b 55
        E 16 b0 0b 4c
        E 32 b0 0b 44
        E 16 b0 0b 7f
        E 0 80 1d 00
        E 0 90 24 7f
        E 16 b0 0b 77
        E 16 b0 0b 55
        E 16 b0 0b 4c
        E 32 b0 0b 44
        E 16 b0 0b 7f
        E 0 80 24 00
        E 0 90 29 7f
        E 16 b0 0b 77
        E 16 b0 0b 55
        E 16 b0 0b 4c
        E 32 b0 0b 44
        E 16 b0 0b 7f
        E 0 80 29 00
        E 0 90 30 7f
        E 16 b0 0b 77
        E 16 b0 0b 55
        E 16 b0 0b 4c
        E 32 b0 0b 44
        E 16 b0 0b 7f
        E 0 80 30 00
        E 0 90 1d 7f
        E 16 b0 0b 77
        E 16 b0 0b 55
        E 16 b0 0b 4c
        E 32 b0 0b 44
        E 16 b0 0b 33
        E 16 b0 0b 2a
        E 80 b0 0b 7f
        E 16 b0 0b 77
        E 16 b0 0b 55
        E 16 b0 0b 4c
        E 32 b0 0b 44
        E 16 b0 0b 33
        E 16 b0 0b 2a
        E 80 b0 0b 7f
        E 0 80 1d 00
        E 0 90 29 7f
        E 16 b0 0b 77
        E 16 b0 0b 55
        E 16 b0 0b 4c
        E 32 b0 0b 44
        E 16 b0 0b 33
        E 16 b0 0b 2a
        E 80 b0 0b 7f
        E 0 80 29 00
        E 0 90 1d 7f
        E 16 b0 0b 77
        E 16 b0 0b 55
        E 16 b0 0b 4c
        E 32 b0 0b 44
        E 16 b0 0b 7f
        E 16 b0 0b 77
        E 16 b0 0b 55
        E 16 b0 0b 4c
        E 32 b0 0b 44
        E 16 b0 0b 7f
        E 16 b0 0b 77
        E 16 b0 0b 55
        E 16 b0 0b 4c
        E 32 b0 0b 44
        E 16 b0 0b 33
        E 16 b0 0b 2a
        E 80 b0 0b 7f
        E 16 b0 0b 77
        E 16 b0 0b 55
        E 16 b0 0b 4c
        E 32 b0 0b 44
        E 16 b0 0b 33
        E 16 b0 0b 2a
        E 80 b0 0b 7f
        E 16 b0 0b 77
        E 16 b0 0b 55
        E 16 b0 0b 4c
        E 32 b0 0b 44
        E 16 b0 0b 7f
        E 0 80 1d 00
        E 0 90 24 7f
        E 16 b0 0b 77
        E 16 b0 0b 55
        E 16 b0 0b 4c
        E 32 b0 0b 44
        E 16 b0 0b 7f
        E 0 80 24 00
        E 0 90 29 7f
        E 16 b0 0b 77
        E 16 b0 0b 55
        E 16 b0 0b 4c
        E 32 b0 0b 44
        E 16 b0 0b 7f
        E 0 80 29 00
        E 0 90 30 7f
        E 16 b0 0b 77
        E 16 b0 0b 55
        E 16 b0 0b 4c
        E 32 b0 0b 44
        E 16 b0 0b 7f
        E 0 80 30 00
        E 0 90 1d 7f
        E 16 b0 0b 77
        E 16 b0 0b 55
        E 16 b0 0b 4c
        E 32 b0 0b 44
        E 16 b0 0b 33
        E 16 b0 0b 2a
        E 80 b0 0b 7f
        E 16 b0 0b 77
        E 16 b0 0b 55
        E 16 b0 0b 4c
        E 32 b0 0b 44
        E 16 b0 0b 33
        E 16 b0 0b 2a
        E 80 b0 0b 7f
        E 0 80 1d 00
        E 0 90 29 7f
        E 16 b0 0b 77
        E 16 b0 0b 55
        E 16 b0 0b 4c
        E 32 b0 0b 44
        E 16 b0 0b 33
        E 16 b0 0b 2a
        E 80 b0 0b 7f
        E 0 80 29 00
        E 0 90 1d 7f
        E 16 b0 0b 77
        E 16 b0 0b 55
        E 16 b0 0b 4c
        E 32 b0 0b 44
        E 16 b0 0b 7f
        E 16 b0 0b 77
        E 16 b0 0b 55
        E 16 b0 0b 4c
        E 32 b0 0b 44
        E 16 b0 0b 7f
        E 16 b0 0b 77
        E 16 b0 0b 55
        E 16 b0 0b 4c
        E 32 b0 0b 44
        E 16 b0 0b 33
        E 16 b0 0b 2a
        E 80 b0 0b 7f
        E 16 b0 0b 77
        E 16 b0 0b 55
        E 16 b0 0b 4c
        E 32 b0 0b 44
        E 16 b0 0b 33
        E 16 b0 0b 2a
        E 80 b0 0b 7f
        E 16 b0 0b 77
        E 16 b0 0b 55
        E 16 b0 0b 4c
        E 32 b0 0b 44
        E 16 b0 0b 7f
        E 0 80 1d 00
        E 0 90 24 7f
        E 16 b0 0b 77
        E 16 b0 0b 55
        E 16 b0 0b 4c
        E 32 b0 0b 44
        E 16 b0 0b 7f
        E 0 80 24 00
        E 0 90 29 7f
        E 16 b0 0b 77
        E 16 b0 0b 55
        E 16 b0 0b 4c
        E 32 b0 0b 44
        E 16 b0 0b 7f
        E 0 80 29 00
        E 0 90 30 7f
        E 16 b0 0b 77
        E 16 b0 0b 55
        E 16 b0 0b 4c
        E 32 b0 0b 44
        E 16 b0 0b 7f
        E 0 80 30 00
        E 0 90 1d 7f
        E 16 b0 0b 77
        E 16 b0 0b 55
        E 16 b0 0b 4c
        E 32 b0 0b 44
        E 16 b0 0b 33
        E 16 b0 0b 2a
        E 80 b0 0b 7f
        E 16 b0 0b 77
        E 16 b0 0b 55
        E 16 b0 0b 4c
        E 32 b0 0b 44
        E 16 b0 0b 33
        E 16 b0 0b 2a
        E 80 b0 0b 7f
        E 0 80 1d 00
        E 0 90 29 7f
        E 16 b0 0b 77
        E 16 b0 0b 55
        E 16 b0 0b 4c
        E 32 b0 0b 44
        E 16 b0 0b 33
        E 16 b0 0b 2a
        E 96 b0 0b 7f
        E 0 80 29 00
        E 0 90 1d 7f
        E 16 b0 0b 77
        E 16 b0 0b 55
        E 16 b0 0b 4c
        E 32 b0 0b 44
        E 16 b0 0b 7f
        E 16 b0 0b 77
        E 16 b0 0b 55
        E 16 b0 0b 4c
        E 32 b0 0b 44
        E 16 b0 0b 7f
        E 16 b0 0b 77
        E 16 b0 0b 55
        E 16 b0 0b 4c
        E 32 b0 0b 44
        E 16 b0 0b 33
        E 16 b0 0b 2a
        E 80 b0 0b 7f
        E 16 b0 0b 77
        E 16 b0 0b 55
        E 16 b0 0b 4c
        E 32 b0 0b 44
        E 16 b0 0b 33
        E 16 b0 0b 2a
        E 80 b0 0b 7f
        E 16 b0 0b 77
        E 16 b0 0b 55
        E 16 b0 0b 4c
        E 32 b0 0b 44
        E 16 b0 0b 7f
        E 0 80 1d 00
        E 0 90 24 7f
        E 16 b0 0b 77
        E 16 b0 0b 55
        E 16 b0 0b 4c
        E 32 b0 0b 44
        E 16 b0 0b 7f
        E 0 80 24 00
        E 0 90 29 7f
        E 16 b0 0b 77
        E 16 b0 0b 55
        E 16 b0 0b 4c
        E 32 b0 0b 44
        E 16 b0 0b 7f
        E 0 80 29 00
        E 0 90 30 7f
        E 16 b0 0b 77
        E 16 b0 0b 55
        E 16 b0 0b 4c
        E 32 b0 0b 44
        E 16 b0 0b 7f
        E 0 80 30 00
        E 0 90 1d 7f
        E 16 b0 0b 77
        E 16 b0 0b 55
        E 16 b0 0b 4c
        E 32 b0 0b 44
        E 16 b0 0b 33
        E 16 b0 0b 2a
        E 80 b0 0b 7f
        E 16 b0 0b 77
        E 16 b0 0b 55
        E 16 b0 0b 4c
        E 32 b0 0b 44
        E 16 b0 0b 33
        E 16 b0 0b 2a
        E 80 b0 0b 7f
        E 0 80 1d 00
        E 0 90 29 7f
        E 16 b0 0b 77
        E 16 b0 0b 55
        E 16 b0 0b 4c
        E 32 b0 0b 44
        E 16 b0 0b 33
        E 16 b0 0b 2a
        E 80 b0 0b 7f
        E 0 80 29 00
        E 0 90 1d 7f
        E 16 b0 0b 77
        E 16 b0 0b 55
        E 16 b0 0b 4c
        E 32 b0 0b 44
        E 16 b0 0b 7f
        E 16 b0 0b 77
        E 16 b0 0b 55
        E 16 b0 0b 4c
        E 32 b0 0b 44
        E 16 b0 0b 7f
        E 16 b0 0b 77
        E 16 b0 0b 55
        E 16 b0 0b 4c
        E 32 b0 0b 44
        E 16 b0 0b 33
        E 16 b0 0b 2a
        E 80 b0 0b 7f
        E 16 b0 0b 77
        E 16 b0 0b 55
        E 16 b0 0b 4c
        E 16 80 1d 00
        E 0 b0 7b 00
        E 0 ff 2f 00
      >
    >
  >
  <TRACK {9C7E6582-27E4-4BF5-9C87-EAFA28FD638F}
    NAME "NES - Pulse 2 [ch1]"
    PEAKCOL 10092441
    BEAT -1
    AUTOMODE 0
    PANLAWFLAGS 3
    VOLPAN 1 0 -1 -1 1
    MUTESOLO 0 0 0
    IPHASE 0
    PLAYOFFS 0 1
    ISBUS 0 0
    BUSCOMP 0 0 0 0 0
    SHOWINMIX 1 0.6667 0.5 1 0.5 0 0 0
    FIXEDLANES 9 0 0 0 0
    SEL 0
    REC 0 5088 1 0 0 0 0 0
    VU 2
    TRACKHEIGHT 0 0 0 0 0 0 0
    INQ 0 0 0 0.5 100 0 0 100
    NCHAN 2
    FX 1
    TRACKID {9C7E6582-27E4-4BF5-9C87-EAFA28FD638F}
    PERF 0
    MIDIOUT -1
    MAINSEND 1 0
    <FXCHAIN
      WNDRECT 24 52 700 560
      SHOW 0
      LASTSEL 0
      DOCKED 0
      BYPASS 0 0 0
      <JS "ReapNES Studio/ReapNES_Console.jsfx" ""
        2 15 1 10 80 10 100 2 1 15 1 5 60 10 80 1 1 0 50 0 0 15 1 0 100 0 0 0.500000 0.500000 0.400000 0.300000 0.800000 1 1 0 0 0 0 - - - - - - - - - - - - - - - - - - - - - - - - - -
      >
      FLOATPOS 0 0 0 0
      FXID {0CB982AD-79F6-4E40-A2B1-F4DA4E1EAAD9}
      WAK 0 0
    >
    <ITEM
      POSITION 0
      LENGTH 9.33126
      LOOP 0
      ALLTAKES 0
      FADEIN 0 0 0 0 0 0 0
      FADEOUT 0 0 0 0 0 0 0
      MUTE 0 0
      SEL 0
      IGUID {AC575625-310B-4E59-B386-B4A385ED1620}
      <SOURCE MIDI
        HASDATA 1 480 QN
        CCINTERP 32
        E 0 c1 51
        E 0 b1 0c 40
        E 0 b1 0b 33
        E 0 91 30 33
        E 96 81 30 00
        E 0 91 35 33
        E 96 81 35 00
        E 0 91 37 33
        E 96 81 37 00
        E 0 91 35 33
        E 96 81 35 00
        E 0 91 30 33
        E 96 81 30 00
        E 0 91 35 33
        E 96 81 35 00
        E 0 91 37 33
        E 96 81 37 00
        E 0 91 35 33
        E 96 81 35 00
        E 0 91 30 33
        E 96 81 30 00
        E 0 91 35 33
        E 96 81 35 00
        E 0 91 37 33
        E 96 81 37 00
        E 0 91 35 33
        E 96 81 35 00
        E 0 91 30 33
        E 96 81 30 00
        E 0 91 35 33
        E 96 81 35 00
        E 0 91 37 33
        E 96 81 37 00
        E 0 91 35 33
        E 96 81 35 00
        E 0 91 30 33
        E 96 81 30 00
        E 0 91 35 33
        E 96 81 35 00
        E 0 91 37 33
        E 96 81 37 00
        E 0 91 35 33
        E 96 81 35 00
        E 0 91 30 33
        E 96 81 30 00
        E 0 91 35 33
        E 96 81 35 00
        E 0 91 37 33
        E 96 81 37 00
        E 0 91 35 33
        E 96 81 35 00
        E 0 91 30 33
        E 96 81 30 00
        E 0 91 41 33
        E 96 81 41 00
        E 0 91 43 33
        E 96 81 43 00
        E 0 91 41 33
        E 96 81 41 00
        E 0 91 3c 33
        E 96 81 3c 00
        E 0 91 41 33
        E 96 81 41 00
        E 0 91 43 33
        E 96 81 43 00
        E 0 91 41 33
        E 96 81 41 00
        E 0 91 3c 33
        E 96 81 3c 00
        E 0 91 41 33
        E 96 81 41 00
        E 0 91 43 33
        E 96 81 43 00
        E 0 91 41 33
        E 112 81 41 00
        E 0 91 3c 33
        E 96 81 3c 00
        E 0 91 41 33
        E 96 81 41 00
        E 0 91 43 33
        E 96 81 43 00
        E 0 91 41 33
        E 96 81 41 00
        E 0 91 3c 33
        E 96 81 3c 00
        E 0 91 41 33
        E 96 81 41 00
        E 0 91 43 33
        E 96 81 43 00
        E 0 91 41 33
        E 96 81 41 00
        E 0 91 3c 33
        E 96 81 3c 00
        E 0 91 41 33
        E 96 81 41 00
        E 0 91 43 33
        E 96 81 43 00
        E 0 91 41 33
        E 96 81 41 00
        E 0 91 3c 33
        E 96 81 3c 00
        E 0 91 41 33
        E 96 81 41 00
        E 0 91 43 33
        E 96 81 43 00
        E 0 91 41 33
        E 96 81 41 00
        E 0 91 3c 33
        E 96 81 3c 00
        E 0 91 41 33
        E 96 81 41 00
        E 0 91 43 33
        E 96 81 43 00
        E 0 91 41 33
        E 96 81 41 00
        E 0 91 3c 33
        E 96 81 3c 00
        E 0 91 4d 33
        E 96 81 4d 00
        E 0 91 4f 33
        E 96 81 4f 00
        E 0 91 4d 33
        E 96 81 4d 00
        E 0 91 48 33
        E 96 81 48 00
        E 0 91 4d 33
        E 96 81 4d 00
        E 0 91 4f 33
        E 96 81 4f 00
        E 0 91 4d 33
        E 96 81 4d 00
        E 0 91 48 33
        E 96 81 48 00
        E 0 91 4d 33
        E 96 81 4d 00
        E 0 91 4f 33
        E 96 81 4f 00
        E 0 91 4d 33
        E 96 81 4d 00
        E 0 91 48 33
        E 96 81 48 00
        E 0 91 4d 33
        E 96 81 4d 00
        E 0 91 4f 33
        E 96 81 4f 00
        E 0 91 4d 33
        E 96 81 4d 00
        E 0 91 48 33
        E 96 81 48 00
        E 0 91 4d 33
        E 96 81 4d 00
        E 0 91 4f 33
        E 96 81 4f 00
        E 0 91 4d 33
        E 96 81 4d 00
        E 0 91 48 33
        E 96 81 48 00
        E 0 91 4d 33
        E 112 81 4d 00
        E 0 91 4f 33
        E 96 81 4f 00
        E 0 91 4d 33
        E 96 81 4d 00
        E 0 91 48 33
        E 96 81 48 00
        E 0 91 4d 33
        E 96 81 4d 00
        E 0 91 4f 33
        E 96 81 4f 00
        E 0 91 4d 33
        E 96 81 4d 00
        E 0 91 48 33
        E 96 81 48 00
        E 0 91 4d 33
        E 96 81 4d 00
        E 0 91 4f 33
        E 96 81 4f 00
        E 0 91 4d 33
        E 96 81 4d 00
        E 0 91 48 33
        E 96 b1 0c 10
        E 0 b1 0b 44
        E 0 81 48 00
        E 0 91 30 44
        E 16 b1 0c 20
        E 32 b1 0c 40
        E 32 b1 0c 60
        E 0 b1 0b 3b
        E 32 b1 0c 10
        E 16 b1 0b 33
        E 16 b1 0c 20
        E 32 b1 0c 40
        E 32 b1 0c 60
        E 32 b1 0c 10
        E 32 b1 0c 20
        E 32 b1 0c 40
        E 32 b1 0c 60
        E 32 b1 0c 10
        E 32 b1 0c 20
        E 32 b1 0c 40
        E 32 b1 0c 60
        E 32 b1 0c 10
        E 32 b1 0c 20
        E 32 b1 0c 40
        E 16 b1 0c 10
        E 0 b1 0b 44
        E 0 81 30 00
        E 0 91 35 44
        E 16 b1 0c 20
        E 32 b1 0c 40
        E 32 b1 0c 60
        E 0 b1 0b 3b
        E 32 b1 0c 10
        E 16 b1 0b 33
        E 16 b1 0c 20
        E 32 b1 0c 40
        E 32 b1 0c 60
        E 32 b1 0c 10
        E 32 b1 0c 20
        E 32 b1 0c 40
        E 32 b1 0c 60
        E 32 b1 0c 10
        E 32 b1 0c 20
        E 32 b1 0c 40
        E 16 81 35 00
        E 0 b1 7b 00
        E 0 ff 2f 00
      >
    >
  >
  <TRACK {5C687E60-9FA4-4704-BDF9-00125F20CEB2}
    NAME "NES - Triangle [ch2]"
    PEAKCOL 16744192
    BEAT -1
    AUTOMODE 0
    PANLAWFLAGS 3
    VOLPAN 1 0 -1 -1 1
    MUTESOLO 0 0 0
    IPHASE 0
    PLAYOFFS 0 1
    ISBUS 0 0
    BUSCOMP 0 0 0 0 0
    SHOWINMIX 1 0.6667 0.5 1 0.5 0 0 0
    FIXEDLANES 9 0 0 0 0
    SEL 0
    REC 0 5088 1 0 0 0 0 0
    VU 2
    TRACKHEIGHT 0 0 0 0 0 0 0
    INQ 0 0 0 0.5 100 0 0 100
    NCHAN 2
    FX 1
    TRACKID {5C687E60-9FA4-4704-BDF9-00125F20CEB2}
    PERF 0
    MIDIOUT -1
    MAINSEND 1 0
    <FXCHAIN
      WNDRECT 24 52 700 560
      SHOW 0
      LASTSEL 0
      DOCKED 0
      BYPASS 0 0 0
      <JS "ReapNES Studio/ReapNES_Console.jsfx" ""
        2 15 1 10 80 10 100 2 1 15 1 5 60 10 80 1 1 0 50 0 0 15 1 0 100 0 0 0.500000 0.500000 0.400000 0.300000 0.800000 2 1 0 0 0 0 - - - - - - - - - - - - - - - - - - - - - - - - - -
      >
      FLOATPOS 0 0 0 0
      FXID {A9BE6491-73A0-4A2B-AA26-64B8F8E1DE66}
      WAK 0 0
    >
    <ITEM
      POSITION 0
      LENGTH 9.33126
      LOOP 0
      ALLTAKES 0
      FADEIN 0 0 0 0 0 0 0
      FADEOUT 0 0 0 0 0 0 0
      MUTE 0 0
      SEL 0
      IGUID {882CE9D7-42DD-4C73-8F99-5B28FBC0B97C}
      <SOURCE MIDI
        HASDATA 1 480 QN
        CCINTERP 32
        E 0 c2 26
        E 0 b2 0b 7f
        E 0 92 48 7f
        E 48 82 48 00
        E 48 b2 0b 7f
        E 0 92 4d 7f
        E 48 82 4d 00
        E 48 b2 0b 7f
        E 0 92 4f 7f
        E 48 82 4f 00
        E 48 b2 0b 7f
        E 0 92 4d 7f
        E 48 82 4d 00
        E 48 b2 0b 7f
        E 0 92 48 7f
        E 48 82 48 00
        E 48 b2 0b 7f
        E 0 92 4d 7f
        E 48 82 4d 00
        E 48 b2 0b 7f
        E 0 92 4f 7f
        E 48 82 4f 00
        E 48 b2 0b 7f
        E 0 92 4d 7f
        E 48 82 4d 00
        E 48 b2 0b 7f
        E 0 92 48 7f
        E 48 82 48 00
        E 48 b2 0b 7f
        E 0 92 4d 7f
        E 48 82 4d 00
        E 48 b2 0b 7f
        E 0 92 4f 7f
        E 48 82 4f 00
        E 48 b2 0b 7f
        E 0 92 4d 7f
        E 48 82 4d 00
        E 48 b2 0b 7f
        E 0 92 48 7f
        E 48 82 48 00
        E 48 b2 0b 7f
        E 0 92 4d 7f
        E 48 82 4d 00
        E 48 b2 0b 7f
        E 0 92 4f 7f
        E 48 82 4f 00
        E 48 b2 0b 7f
        E 0 92 4d 7f
        E 48 82 4d 00
        E 48 b2 0b 7f
        E 0 92 48 7f
        E 48 82 48 00
        E 48 b2 0b 7f
        E 0 92 4d 7f
        E 48 82 4d 00
        E 48 b2 0b 7f
        E 0 92 4f 7f
        E 48 82 4f 00
        E 48 b2 0b 7f
        E 0 92 4d 7f
        E 48 82 4d 00
        E 48 b2 0b 7f
        E 0 92 48 7f
        E 48 82 48 00
        E 48 b2 0b 7f
        E 0 92 4d 7f
        E 48 82 4d 00
        E 48 b2 0b 7f
        E 0 92 4f 7f
        E 48 82 4f 00
        E 48 b2 0b 7f
        E 0 92 4d 7f
        E 48 82 4d 00
        E 48 b2 0b 7f
        E 0 92 48 7f
        E 48 82 48 00
        E 48 b2 0b 7f
        E 0 92 4d 7f
        E 48 82 4d 00
        E 48 b2 0b 7f
        E 0 92 4f 7f
        E 48 82 4f 00
        E 48 b2 0b 7f
        E 0 92 4d 7f
        E 48 82 4d 00
        E 48 b2 0b 7f
        E 0 92 48 7f
        E 48 82 48 00
        E 48 b2 0b 7f
        E 0 92 4d 7f
        E 48 82 4d 00
        E 48 b2 0b 7f
        E 0 92 4f 7f
        E 48 82 4f 00
        E 48 b2 0b 7f
        E 0 92 4d 7f
        E 48 82 4d 00
        E 48 b2 0b 7f
        E 0 92 48 7f
        E 48 82 48 00
        E 48 b2 0b 7f
        E 0 92 4d 7f
        E 48 82 4d 00
        E 48 b2 0b 7f
        E 0 92 4f 7f
        E 48 82 4f 00
        E 48 b2 0b 7f
        E 0 92 4d 7f
        E 64 82 4d 00
        E 48 b2 0b 7f
        E 0 92 48 7f
        E 48 82 48 00
        E 48 b2 0b 7f
        E 0 92 4d 7f
        E 48 82 4d 00
        E 48 b2 0b 7f
        E 0 92 4f 7f
        E 48 82 4f 00
        E 48 b2 0b 7f
        E 0 92 4d 7f
        E 48 82 4d 00
        E 48 b2 0b 7f
        E 0 92 48 7f
        E 48 82 48 00
        E 48 b2 0b 7f
        E 0 92 4d 7f
        E 48 82 4d 00
        E 48 b2 0b 7f
        E 0 92 4f 7f
        E 48 82 4f 00
        E 48 b2 0b 7f
        E 0 92 4d 7f
        E 48 82 4d 00
        E 48 b2 0b 7f
        E 0 92 48 7f
        E 48 82 48 00
        E 48 b2 0b 7f
        E 0 92 4d 7f
        E 48 82 4d 00
        E 48 b2 0b 7f
        E 0 92 4f 7f
        E 48 82 4f 00
        E 48 b2 0b 7f
        E 0 92 4d 7f
        E 48 82 4d 00
        E 48 b2 0b 7f
        E 0 92 48 7f
        E 48 82 48 00
        E 48 b2 0b 7f
        E 0 92 4d 7f
        E 48 82 4d 00
        E 48 b2 0b 7f
        E 0 92 4f 7f
        E 48 82 4f 00
        E 48 b2 0b 7f
        E 0 92 4d 7f
        E 48 82 4d 00
        E 48 b2 0b 7f
        E 0 92 48 7f
        E 48 82 48 00
        E 48 b2 0b 7f
        E 0 92 4d 7f
        E 48 82 4d 00
        E 48 b2 0b 7f
        E 0 92 4f 7f
        E 48 82 4f 00
        E 48 b2 0b 7f
        E 0 92 4d 7f
        E 48 82 4d 00
        E 48 b2 0b 7f
        E 0 92 48 7f
        E 48 82 48 00
        E 48 b2 0b 7f
        E 0 92 4d 7f
        E 48 82 4d 00
        E 48 b2 0b 7f
        E 0 92 4f 7f
        E 48 82 4f 00
        E 48 b2 0b 7f
        E 0 92 4d 7f
        E 48 82 4d 00
        E 48 b2 0b 7f
        E 0 92 48 7f
        E 48 82 48 00
        E 48 b2 0b 7f
        E 0 92 4d 7f
        E 48 82 4d 00
        E 48 b2 0b 7f
        E 0 92 4f 7f
        E 48 82 4f 00
        E 48 b2 0b 7f
        E 0 92 4d 7f
        E 48 82 4d 00
        E 48 b2 0b 7f
        E 0 92 48 7f
        E 48 82 48 00
        E 48 b2 0b 7f
        E 0 92 4d 7f
        E 48 82 4d 00
        E 48 b2 0b 7f
        E 0 92 4f 7f
        E 48 82 4f 00
        E 48 b2 0b 7f
        E 0 92 4d 7f
        E 48 82 4d 00
        E 48 b2 0b 7f
        E 0 92 48 7f
        E 48 82 48 00
        E 48 b2 0b 7f
        E 0 92 4d 7f
        E 48 82 4d 00
        E 48 b2 0b 7f
        E 0 92 4f 7f
        E 48 82 4f 00
        E 48 b2 0b 7f
        E 0 92 4d 7f
        E 48 82 4d 00
        E 48 b2 0b 7f
        E 0 92 48 7f
        E 48 82 48 00
        E 48 b2 0b 7f
        E 0 92 4d 7f
        E 48 82 4d 00
        E 48 b2 0b 7f
        E 0 92 4f 7f
        E 48 82 4f 00
        E 48 b2 0b 7f
        E 0 92 4d 7f
        E 48 82 4d 00
        E 48 b2 0b 7f
        E 0 92 48 7f
        E 48 82 48 00
        E 48 b2 0b 7f
        E 0 92 4d 7f
        E 48 82 4d 00
        E 64 b2 0b 7f
        E 0 92 4f 7f
        E 48 82 4f 00
        E 48 b2 0b 7f
        E 0 92 4d 7f
        E 48 82 4d 00
        E 48 b2 0b 7f
        E 0 92 48 7f
        E 48 82 48 00
        E 48 b2 0b 7f
        E 0 92 4d 7f
        E 48 82 4d 00
        E 48 b2 0b 7f
        E 0 92 4f 7f
        E 48 82 4f 00
        E 48 b2 0b 7f
        E 0 92 4d 7f
        E 48 82 4d 00
        E 48 b2 0b 7f
        E 0 92 48 7f
        E 48 82 48 00
        E 48 b2 0b 7f
        E 0 92 4d 7f
        E 48 82 4d 00
        E 48 b2 0b 7f
        E 0 92 4f 7f
        E 48 82 4f 00
        E 48 b2 0b 7f
        E 0 92 4d 7f
        E 48 82 4d 00
        E 48 b2 0b 7f
        E 0 92 48 7f
        E 48 82 48 00
        E 48 b2 0b 7f
        E 0 92 4d 7f
        E 48 82 4d 00
        E 48 b2 0b 7f
        E 0 92 4f 7f
        E 48 82 4f 00
        E 48 b2 0b 7f
        E 0 92 4d 7f
        E 48 82 4d 00
        E 48 b2 0b 7f
        E 0 92 48 7f
        E 48 82 48 00
        E 48 b2 0b 7f
        E 0 92 4d 7f
        E 48 82 4d 00
        E 48 b2 0b 7f
        E 0 92 4f 7f
        E 48 82 4f 00
        E 48 b2 0b 7f
        E 0 92 4d 7f
        E 48 82 4d 00
        E 48 b2 0b 7f
        E 0 92 48 7f
        E 48 82 48 00
        E 48 b2 0b 7f
        E 0 92 4d 7f
        E 48 82 4d 00
        E 48 b2 0b 7f
        E 0 92 4f 7f
        E 48 82 4f 00
        E 48 b2 0b 7f
        E 0 92 4d 7f
        E 48 82 4d 00
        E 16 b2 7b 00
        E 0 ff 2f 00
      >
    >
  >
  <TRACK {A8A19477-A952-4E61-B339-8945969465FB}
    NAME "NES - Noise / Drums [ch3]"
    PEAKCOL 11184810
    BEAT -1
    AUTOMODE 0
    PANLAWFLAGS 3
    VOLPAN 1 0 -1 -1 1
    MUTESOLO 0 0 0
    IPHASE 0
    PLAYOFFS 0 1
    ISBUS 0 0
    BUSCOMP 0 0 0 0 0
    SHOWINMIX 1 0.6667 0.5 1 0.5 0 0 0
    FIXEDLANES 9 0 0 0 0
    SEL 0
    REC 0 5088 1 0 0 0 0 0
    VU 2
    TRACKHEIGHT 0 0 0 0 0 0 0
    INQ 0 0 0 0.5 100 0 0 100
    NCHAN 2
    FX 1
    TRACKID {A8A19477-A952-4E61-B339-8945969465FB}
    PERF 0
    MIDIOUT -1
    MAINSEND 1 0
    <FXCHAIN
      WNDRECT 24 52 700 560
      SHOW 0
      LASTSEL 0
      DOCKED 0
      BYPASS 0 0 0
      <JS "ReapNES Studio/ReapNES_Console.jsfx" ""
        2 15 1 10 80 10 100 2 1 15 1 5 60 10 80 1 1 0 50 0 0 15 1 0 100 0 0 0.500000 0.500000 0.400000 0.300000 0.800000 3 1 0 0 0 0 - - - - - - - - - - - - - - - - - - - - - - - - - -
      >
      FLOATPOS 0 0 0 0
      FXID {51468131-A494-4395-9558-4E5434E9C703}
      WAK 0 0
    >
    <ITEM
      POSITION 0
      LENGTH 9.33126
      LOOP 0
      ALLTAKES 0
      FADEIN 0 0 0 0 0 0 0
      FADEOUT 0 0 0 0 0 0 0
      MUTE 0 0
      SEL 0
      IGUID {80BE364E-30BA-48D6-8576-70FF7FE0BEF7}
      <SOURCE MIDI
        HASDATA 1 480 QN
        CCINTERP 32
        E 0 93 2a 3b
        E 48 83 2a 00
        E 48 93 2a 3b
        E 48 83 2a 00
        E 48 93 2a 3b
        E 48 83 2a 00
        E 48 93 2a 3b
        E 48 83 2a 00
        E 48 93 2a 3b
        E 48 83 2a 00
        E 48 93 2a 3b
        E 48 83 2a 00
        E 48 93 2a 3b
        E 48 83 2a 00
        E 48 93 2a 3b
        E 48 83 2a 00
        E 48 93 2a 3b
        E 48 83 2a 00
        E 48 93 2a 3b
        E 48 83 2a 00
        E 48 93 2a 3b
        E 48 83 2a 00
        E 48 93 2a 3b
        E 48 83 2a 00
        E 48 93 2a 3b
        E 48 83 2a 00
        E 48 93 2a 3b
        E 48 83 2a 00
        E 48 93 2a 3b
        E 48 83 2a 00
        E 48 93 2a 3b
        E 48 83 2a 00
        E 48 93 2a 3b
        E 48 83 2a 00
        E 48 93 2a 3b
        E 48 83 2a 00
        E 48 93 2a 3b
        E 48 83 2a 00
        E 48 93 2a 3b
        E 48 83 2a 00
        E 48 93 2a 3b
        E 48 83 2a 00
        E 48 93 2a 3b
        E 48 83 2a 00
        E 48 93 2a 3b
        E 48 83 2a 00
        E 48 93 2a 3b
        E 48 83 2a 00
        E 48 93 2a 3b
        E 48 83 2a 00
        E 48 93 2a 3b
        E 48 83 2a 00
        E 48 93 2a 3b
        E 48 83 2a 00
        E 48 93 2a 3b
        E 48 83 2a 00
        E 48 93 2a 3b
        E 48 83 2a 00
        E 48 93 2a 3b
        E 48 83 2a 00
        E 48 93 2a 3b
        E 48 83 2a 00
        E 48 93 2a 3b
        E 48 83 2a 00
        E 48 93 2a 3b
        E 48 83 2a 00
        E 48 93 2a 3b
        E 48 83 2a 00
        E 48 93 2a 3b
        E 48 83 2a 00
        E 48 93 2a 3b
        E 64 83 2a 00
        E 48 93 2a 3b
        E 48 83 2a 00
        E 48 93 2a 3b
        E 48 83 2a 00
        E 48 93 2a 3b
        E 48 83 2a 00
        E 48 93 2a 3b
        E 48 83 2a 00
        E 48 93 2a 3b
        E 48 83 2a 00
        E 48 93 2a 3b
        E 48 83 2a 00
        E 48 93 2a 3b
        E 48 83 2a 00
        E 48 93 2a 3b
        E 48 83 2a 00
        E 48 93 2a 3b
        E 48 83 2a 00
        E 48 93 2a 3b
        E 48 83 2a 00
        E 48 93 2a 3b
        E 48 83 2a 00
        E 48 93 2a 3b
        E 48 83 2a 00
        E 48 93 2a 3b
        E 48 83 2a 00
        E 48 93 2a 3b
        E 48 83 2a 00
        E 48 93 2a 3b
        E 48 83 2a 00
        E 48 93 2a 3b
        E 48 83 2a 00
        E 48 93 2a 3b
        E 48 83 2a 00
        E 48 93 2a 3b
        E 48 83 2a 00
        E 48 93 2a 3b
        E 48 83 2a 00
        E 48 93 2a 3b
        E 48 83 2a 00
        E 48 93 2a 3b
        E 48 83 2a 00
        E 48 93 2a 3b
        E 48 83 2a 00
        E 48 93 2a 3b
        E 48 83 2a 00
        E 48 93 2a 3b
        E 48 83 2a 00
        E 48 93 2a 3b
        E 48 83 2a 00
        E 48 93 2a 3b
        E 48 83 2a 00
        E 48 93 2a 3b
        E 48 83 2a 00
        E 48 93 2a 3b
        E 48 83 2a 00
        E 48 93 2a 3b
        E 48 83 2a 00
        E 48 93 2a 3b
        E 48 83 2a 00
        E 48 93 2a 3b
        E 48 83 2a 00
        E 48 93 2a 3b
        E 48 83 2a 00
        E 48 93 2a 3b
        E 48 83 2a 00
        E 48 93 2a 3b
        E 48 83 2a 00
        E 48 93 2a 3b
        E 48 83 2a 00
        E 48 93 2a 3b
        E 48 83 2a 00
        E 48 93 2a 3b
        E 48 83 2a 00
        E 48 93 2a 3b
        E 48 83 2a 00
        E 48 93 2a 3b
        E 48 83 2a 00
        E 48 93 2a 3b
        E 48 83 2a 00
        E 48 93 2a 3b
        E 48 83 2a 00
        E 48 93 2a 3b
        E 48 83 2a 00
        E 64 93 2a 3b
        E 48 83 2a 00
        E 48 93 2a 3b
        E 48 83 2a 00
        E 48 93 2a 3b
        E 48 83 2a 00
        E 48 93 2a 3b
        E 48 83 2a 00
        E 48 93 2a 3b
        E 48 83 2a 00
        E 48 93 2a 3b
        E 48 83 2a 00
        E 48 93 2a 3b
        E 48 83 2a 00
        E 48 93 2a 3b
        E 48 83 2a 00
        E 48 93 2a 3b
        E 48 83 2a 00
        E 48 93 2a 3b
        E 48 83 2a 00
        E 48 93 2a 3b
        E 48 83 2a 00
        E 48 93 2a 3b
        E 48 83 2a 00
        E 48 93 2a 3b
        E 48 83 2a 00
        E 48 93 2a 3b
        E 48 83 2a 00
        E 48 93 2a 3b
        E 48 83 2a 00
        E 48 93 2a 3b
        E 48 83 2a 00
        E 48 93 2a 3b
        E 48 83 2a 00
        E 48 93 2a 3b
        E 48 83 2a 00
        E 48 93 2a 3b
        E 48 83 2a 00
        E 48 93 2a 3b
        E 48 83 2a 00
        E 48 93 2a 3b
        E 48 83 2a 00
        E 48 93 2a 3b
        E 48 83 2a 00
        E 16 b3 7b 00
        E 0 ff 2f 00
      >
    >
  >
>