<REAPER_PROJECT 0.1 "7.27/win64" 1707000000
  <NOTES 0 2
    |ReapNES Studio Project
    |MIDI Import - American_Gladiators_title_rom_v1
  >
  RIPPLE 0
  GROUPOVERRIDE 0 0 0
  AUTOXFADE 129
  ENVATTACH 3
  POOLEDENVATTACH 0
  MIXERUIFLAGS 11 48
  ENVFADESZ10 40
  PEAKGAIN 1
  FEEDBACK 0
  PANLAW 1
  PROJOFFS 0 0 0
  MAXPROJLEN 0 0
  GRID 3199 8 1 8 1 0 0 0
  TIMEMODE 1 5 -1 30 0 0 -1
  VIDEO_CONFIG 0 0 65792
  PANMODE 3
  PANLAWFLAGS 3
  CURSOR 0
  ZOOM 100 0 0
  VZOOMEX 6 0
  USE_REC_CFG 0
  RECMODE 1
  SMPTESYNC 0 30 100 40 1000 300 0 0 1 0 0
  LOOP 0
  LOOPGRAN 0 4
  RECORD_PATH "Media" ""
  <RECORD_CFG
    ZXZhdxgAAQ==
  >
  <APPLYFX_CFG
  >
  RENDER_FILE ""
  RENDER_PATTERN ""
  RENDER_FMT 0 2 0
  RENDER_1X 0
  RENDER_RANGE 1 0 0 18 1000
  RENDER_RESAMPLE 3 0 1
  RENDER_ADDTOPROJ 0
  RENDER_STEMS 0
  RENDER_DITHER 0
  TIMELOCKMODE 1
  TEMPOENVLOCKMODE 1
  ITEMMIX 1
  DEFPITCHMODE 589824 0
  TAKELANE 1
  SAMPLERATE 44100 0 0
  <RENDER_CFG
    ZXZhdxgAAQ==
  >
  LOCK 1
  <METRONOME 6 2
    VOL 0.25 0.125
    BEATLEN 4
    FREQ 1760 880 1
    SAMPLES "" ""
    SPLIGNORE 0 0
    SPLDEF 2 660 "" 0
    SPLDEF 3 440 "" 0
    PATTERN 0 169
    PATTERNSTR ABBB
    MULT 1
  >
  GLOBAL_AUTO -1
  TEMPO 128.59999614200012 4 4
  PLAYRATE 1 0 0.25 4
  SELECTION 0 0
  SELECTION2 0 0
  MASTERAUTOMODE 0
  MASTERTRACKHEIGHT 0 0
  MASTERPEAKCOL 16576
  MASTERMUTESOLO 0
  MASTERTRACKVIEW 0 0.6667 0.5 0.5 0 0 0 0 0 0 0 0 0 0
  MASTERHWOUT 0 0 1 0 0 0 0 -1
  MASTER_NCH 2 2
  MASTER_VOLUME 1 0 -1 -1 1
  MASTER_PANMODE 3
  MASTER_PANLAWFLAGS 3
  MASTER_FX 1
  MASTER_SEL 0
  <MASTERPLAYSPEEDENV
    EGUID {9B0388F6-1944-446E-8859-94F9267370F6}
    ACT 0 -1
    VIS 0 1 1
    LANEHEIGHT 0 0
    ARM 0
    DEFSHAPE 0 -1 -1
  >
  <TEMPOENVEX
    EGUID {FE7A63D4-A952-44B9-841F-A332F9A43289}
    ACT 1 -1
    VIS 1 0 1
    LANEHEIGHT 0 0
    ARM 0
    DEFSHAPE 1 -1 -1
  >
  <PROJBAY
  >
  <TRACK {13EF4166-3E05-41A6-8D7E-95F8730119F1}
    NAME "NES - Pulse 1 [ch0]"
    PEAKCOL 16576606
    BEAT -1
    AUTOMODE 0
    PANLAWFLAGS 3
    VOLPAN 1 0 -1 -1 1
    MUTESOLO 0 0 0
    IPHASE 0
    PLAYOFFS 0 1
    ISBUS 0 0
    BUSCOMP 0 0 0 0 0
    SHOWINMIX 1 0.6667 0.5 1 0.5 0 0 0
    FIXEDLANES 9 0 0 0 0
    SEL 1
    REC 1 5088 1 0 0 0 0 0
    VU 2
    TRACKHEIGHT 0 0 0 0 0 0 0
    INQ 0 0 0 0.5 100 0 0 100
    NCHAN 2
    FX 1
    TRACKID {13EF4166-3E05-41A6-8D7E-95F8730119F1}
    PERF 0
    MIDIOUT -1
    MAINSEND 1 0
    <FXCHAIN
      WNDRECT 24 52 700 560
      SHOW 0
      LASTSEL 0
      DOCKED 0
      BYPASS 0 0 0
      <JS "ReapNES Studio/ReapNES_Console.jsfx" ""
        2 15 1 10 80 10 100 2 1 15 1 5 60 10 80 1 1 0 50 0 0 15 1 0 100 0 0 0.500000 0.500000 0.400000 0.300000 0.800000 0 1 0 0 0 0 - - - - - - - - - - - - - - - - - - - - - - - - - -
      >
      FLOATPOS 0 0 0 0
      FXID {9F8EC4D8-7781-4E8A-BEAD-4848EDC0526A}
      WAK 0 0
    >
    <ITEM
      POSITION 0
      LENGTH 8.0559878
      LOOP 0
      ALLTAKES 0
      FADEIN 0 0 0 0 0 0 0
      FADEOUT 0 0 0 0 0 0 0
      MUTE 0 0
      SEL 0
      IGUID {7F67F92F-DBCD-4194-91A9-F5A82C5D77F9}
      <SOURCE MIDI
        HASDATA 1 480 QN
        CCINTERP 32
        E 0 c0 50
        E 0 b0 0c 10
        E 0 b0 0b 19
        E 0 90 25 19
        E 96 80 25 00
        E 16 90 25 19
        E 96 80 25 00
        E 32 90 25 19
        E 96 80 25 00
        E 16 90 25 19
        E 96 80 25 00
        E 16 90 25 19
        E 64 80 25 00
        E 16 90 25 19
        E 144 80 25 00
        E 16 90 25 19
        E 128 80 25 00
        E 112 90 31 19
        E 96 80 31 00
        E 16 90 25 19
        E 96 80 25 00
        E 16 90 25 19
        E 96 80 25 00
        E 16 90 2f 19
        E 336 80 2f 00
        E 16 90 31 19
        E 256 80 31 00
        E 576 90 34 19
        E 336 80 34 00
        E 16 90 36 19
        E 336 80 36 00
        E 16 90 38 19
        E 128 80 38 00
        E 560 90 3b 19
        E 336 80 3b 00
        E 16 90 3d 19
        E 3808 80 3d 00
        E 32 b0 0c 40
        E 0 90 17 19
        E 64 80 17 00
        E 160 90 17 19
        E 16 80 17 00
        E 0 b0 7b 00
        E 0 ff 2f 00
      >
    >
  >
  <TRACK {A3CBC6F9-F060-4F35-8BEA-53E304219C81}
    NAME "NES - Pulse 2 [ch1]"
    PEAKCOL 10092441
    BEAT -1
    AUTOMODE 0
    PANLAWFLAGS 3
    VOLPAN 1 0 -1 -1 1
    MUTESOLO 0 0 0
    IPHASE 0
    PLAYOFFS 0 1
    ISBUS 0 0
    BUSCOMP 0 0 0 0 0
    SHOWINMIX 1 0.6667 0.5 1 0.5 0 0 0
    FIXEDLANES 9 0 0 0 0
    SEL 0
    REC 0 5088 1 0 0 0 0 0
    VU 2
    TRACKHEIGHT 0 0 0 0 0 0 0
    INQ 0 0 0 0.5 100 0 0 100
    NCHAN 2
    FX 1
    TRACKID {A3CBC6F9-F060-4F35-8BEA-53E304219C81}
    PERF 0
    MIDIOUT -1
    MAINSEND 1 0
    <FXCHAIN
      WNDRECT 24 52 700 560
      SHOW 0
      LASTSEL 0
      DOCKED 0
      BYPASS 0 0 0
      <JS "ReapNES Studio/ReapNES_Console.jsfx" ""
        2 15 1 10 80 10 100 2 1 15 1 5 60 10 80 1 1 0 50 0 0 15 1 0 100 0 0 0.500000 0.500000 0.400000 0.300000 0.800000 1 1 0 0 0 0 - - - - - - - - - - - - - - - - - - - - - - - - - -
      >
      FLOATPOS 0 0 0 0
      FXID {8E4E1049-FB26-4161-96FB-0EEAA0DFB727}
      WAK 0 0
    >
    <ITEM
      POSITION 0
      LENGTH 8.0559878
      LOOP 0
      ALLTAKES 0
      FADEIN 0 0 0 0 0 0 0
      FADEOUT 0 0 0 0 0 0 0
      MUTE 0 0
      SEL 0
      IGUID {88BD2894-5528-460A-B9A2-D226E9D0CFFD}
      <SOURCE MIDI
        HASDATA 1 480 QN
        CCINTERP 32
        E 0 c1 51
        E 64 b1 0c 10
        E 0 b1 0b 19
        E 0 91 19 19
        E 32 81 19 00
        E 32 91 19 19
        E 16 81 19 00
        E 32 91 19 19
        E 48 81 19 00
        E 32 91 19 19
        E 16 81 19 00
        E 32 91 19 19
        E 32 81 19 00
        E 32 91 19 19
        E 16 81 19 00
        E 32 91 19 19
        E 32 81 19 00
        E 32 91 19 19
        E 16 81 19 00
        E 32 91 19 19
        E 224 81 19 00
        E 16 91 19 19
        E 128 81 19 00
        E 96 91 25 19
        E 112 81 25 00
        E 16 91 19 19
        E 96 81 19 00
        E 16 91 19 19
        E 96 81 19 00
        E 16 91 23 19
        E 336 81 23 00
        E 16 91 25 19
        E 256 81 25 00
        E 560 91 28 19
        E 336 81 28 00
        E 16 91 2a 19
        E 336 81 2a 00
        E 16 91 2c 19
        E 128 81 2c 00
        E 576 91 28 19
        E 336 81 28 00
        E 16 91 25 19
        E 3744 81 25 00
        E 48 b1 0c 60
        E 0 91 2f 19
        E 32 81 2f 00
        E 16 91 2a 19
        E 48 81 2a 00
        E 16 91 2f 19
        E 64 81 2f 00
        E 48 b1 7b 00
        E 0 ff 2f 00
      >
    >
  >
  <TRACK {0C29B31B-8FAD-4A41-A400-4A44D12B2432}
    NAME "NES - Triangle [ch2]"
    PEAKCOL 16744192
    BEAT -1
    AUTOMODE 0
    PANLAWFLAGS 3
    VOLPAN 1 0 -1 -1 1
    MUTESOLO 0 0 0
    IPHASE 0
    PLAYOFFS 0 1
    ISBUS 0 0
    BUSCOMP 0 0 0 0 0
    SHOWINMIX 1 0.6667 0.5 1 0.5 0 0 0
    FIXEDLANES 9 0 0 0 0
    SEL 0
    REC 0 5088 1 0 0 0 0 0
    VU 2
    TRACKHEIGHT 0 0 0 0 0 0 0
    INQ 0 0 0 0.5 100 0 0 100
    NCHAN 2
    FX 1
    TRACKID {0C29B31B-8FAD-4A41-A400-4A44D12B2432}
    PERF 0
    MIDIOUT -1
    MAINSEND 1 0
    <FXCHAIN
      WNDRECT 24 52 700 560
      SHOW 0
      LASTSEL 0
      DOCKED 0
      BYPASS 0 0 0
      <JS "ReapNES Studio/ReapNES_Console.jsfx" ""
        2 15 1 10 80 10 100 2 1 15 1 5 60 10 80 1 1 0 50 0 0 15 1 0 100 0 0 0.500000 0.500000 0.400000 0.300000 0.800000 2 1 0 0 0 0 - - - - - - - - - - - - - - - - - - - - - - - - - -
      >
      FLOATPOS 0 0 0 0
      FXID {A6409399-B2D3-40DD-9A6C-CD4F44A07B26}
      WAK 0 0
    >
    <ITEM
      POSITION 0
      LENGTH 8.0559878
      LOOP 0
      ALLTAKES 0
      FADEIN 0 0 0 0 0 0 0
      FADEOUT 0 0 0 0 0 0 0
      MUTE 0 0
      SEL 0
      IGUID {F2C9654A-BA3E-4819-940E-CFD9376B5FC2}
      <SOURCE MIDI
        HASDATA 1 480 QN
        CCINTERP 32
        E 0 c2 26
        E 0 b2 0b 7f
        E 0 92 2e 7f
        E 16 82 2e 00
        E 0 b2 0b 7f
        E 0 92 22 7f
        E 16 82 22 00
        E 0 b2 0b 7f
        E 0 92 1a 7f
        E 16 82 1a 00
        E 0 b2 0b 7f
        E 0 92 15 7f
        E 16 82 15 00
        E 0 b2 0b 7f
        E 0 92 11 7f
        E 48 82 11 00
        E 0 b2 0b 7f
        E 0 92 2e 7f
        E 16 82 2e 00
        E 0 b2 0b 7f
        E 0 92 22 7f
        E 16 82 22 00
        E 0 b2 0b 7f
        E 0 92 1a 7f
        E 16 82 1a 00
        E 0 b2 0b 7f
        E 0 92 15 7f
        E 16 82 15 00
        E 0 b2 0b 7f
        E 0 92 11 7f
        E 64 82 11 00
        E 0 b2 0b 7f
        E 0 92 2e 7f
        E 16 82 2e 00
        E 0 b2 0b 7f
        E 0 92 22 7f
        E 16 82 22 00
        E 0 b2 0b 7f
        E 0 92 1a 7f
        E 16 82 1a 00
        E 0 b2 0b 7f
        E 0 92 15 7f
        E 16 82 15 00
        E 0 b2 0b 7f
        E 0 92 11 7f
        E 48 82 11 00
        E 0 b2 0b 7f
        E 0 92 2e 7f
        E 16 82 2e 00
        E 0 b2 0b 7f
        E 0 92 22 7f
        E 16 82 22 00
        E 0 b2 0b 7f
        E 0 92 1a 7f
        E 16 82 1a 00
        E 0 b2 0b 7f
        E 0 92 15 7f
        E 16 82 15 00
        E 0 b2 0b 7f
        E 0 92 11 7f
        E 48 82 11 00
        E 0 b2 0b 7f
        E 0 92 2e 7f
        E 16 82 2e 00
        E 0 b2 0b 7f
        E 0 92 22 7f
        E 16 82 22 00
        E 0 b2 0b 7f
        E 0 92 1a 7f
        E 16 82 1a 00
        E 0 b2 0b 7f
        E 0 92 15 7f
        E 16 82 15 00
        E 0 b2 0b 7f
        E 0 92 11 7f
        E 16 82 11 00
        E 0 b2 0b 7f
        E 0 92 0e 7f
        E 16 82 0e 00
        E 0 b2 0b 7f
        E 0 92 0b 7f
        E 16 82 0b 00
        E 0 b2 0b 7f
        E 0 92 09 7f
        E 16 82 09 00
        E 0 b2 0b 7f
        E 0 92 2e 7f
        E 16 82 2e 00
        E 0 b2 0b 7f
        E 0 92 22 7f
        E 16 82 22 00
        E 0 b2 0b 7f
        E 0 92 1a 7f
        E 16 82 1a 00
        E 0 b2 0b 7f
        E 0 92 15 7f
        E 16 82 15 00
        E 0 b2 0b 7f
        E 0 92 11 7f
        E 16 82 11 00
        E 0 b2 0b 7f
        E 0 92 2e 7f
        E 16 82 2e 00
        E 0 b2 0b 7f
        E 0 92 22 7f
        E 16 82 22 00
        E 0 b2 0b 7f
        E 0 92 1a 7f
        E 16 82 1a 00
        E 0 b2 0b 7f
        E 0 92 15 7f
        E 16 82 15 00
        E 0 b2 0b 7f
        E 0 92 11 7f
        E 16 82 11 00
        E 0 b2 0b 7f
        E 0 92 0e 7f
        E 16 82 0e 00
        E 0 b2 0b 7f
        E 0 92 0b 7f
        E 16 82 0b 00
        E 0 b2 0b 7f
        E 0 92 09 7f
        E 16 82 09 00
        E 0 b2 0b 7f
        E 0 92 2e 7f
        E 16 82 2e 00
        E 0 b2 0b 7f
        E 0 92 22 7f
        E 16 82 22 00
        E 0 b2 0b 7f
        E 0 92 1a 7f
        E 16 82 1a 00
        E 0 b2 0b 7f
        E 0 92 15 7f
        E 16 82 15 00
        E 0 b2 0b 7f
        E 0 92 11 7f
        E 16 82 11 00
        E 0 b2 0b 7f
        E 0 92 0e 7f
        E 16 82 0e 00
        E 0 b2 0b 7f
        E 0 92 0b 7f
        E 16 82 0b 00
        E 0 b2 0b 7f
        E 0 92 09 7f
        E 16 82 09 00
        E 0 b2 0b 7f
        E 0 92 2e 7f
        E 16 82 2e 00
        E 0 b2 0b 7f
        E 0 92 22 7f
        E 16 82 22 00
        E 0 b2 0b 7f
        E 0 92 1a 7f
        E 16 82 1a 00
        E 0 b2 0b 7f
        E 0 92 15 7f
        E 16 82 15 00
        E 0 b2 0b 7f
        E 0 92 11 7f
        E 16 82 11 00
        E 0 b2 0b 7f
        E 0 92 0e 7f
        E 16 82 0e 00
        E 0 b2 0b 7f
        E 0 92 2e 7f
        E 16 82 2e 00
        E 0 b2 0b 7f
        E 0 92 22 7f
        E 16 82 22 00
        E 0 b2 0b 7f
        E 0 92 1a 7f
        E 16 82 1a 00
        E 0 b2 0b 7f
        E 0 92 15 7f
        E 16 82 15 00
        E 0 b2 0b 7f
        E 0 92 11 7f
        E 16 82 11 00
        E 0 b2 0b 7f
        E 0 92 0e 7f
        E 16 82 0e 00
        E 0 b2 0b 7f
        E 0 92 0b 7f
        E 16 82 0b 00
        E 0 b2 0b 7f
        E 0 92 2e 7f
        E 16 82 2e 00
        E 0 b2 0b 7f
        E 0 92 22 7f
        E 16 82 22 00
        E 0 b2 0b 7f
        E 0 92 1a 7f
        E 16 82 1a 00
        E 0 b2 0b 7f
        E 0 92 15 7f
        E 16 82 15 00
        E 0 b2 0b 7f
        E 0 92 11 7f
        E 16 82 11 00
        E 0 b2 0b 7f
        E 0 92 0e 7f
        E 16 82 0e 00
        E 0 b2 0b 7f
        E 0 92 0b 7f
        E 16 82 0b 00
        E 0 b2 0b 7f
        E 0 92 2e 7f
        E 352 82 2e 00
        E 0 b2 0b 7f
        E 0 92 24 7f
        E 112 82 24 00
        E 0 b2 0b 7f
        E 0 92 25 7f
        E 176 82 25 00
        E 0 b2 0b 7f
        E 0 92 26 7f
        E 176 82 26 00
        E 0 b2 0b 7f
        E 0 92 27 7f
        E 176 82 27 00
        E 0 b2 0b 7f
        E 0 92 28 7f
        E 80 82 28 00
        E 0 b2 0b 7f
        E 0 92 1e 7f
        E 16 82 1e 00
        E 0 b2 0b 7f
        E 0 92 18 7f
        E 16 82 18 00
        E 0 b2 0b 7f
        E 0 92 14 7f
        E 16 82 14 00
        E 0 b2 0b 7f
        E 0 92 10 7f
        E 16 82 10 00
        E 0 b2 0b 7f
        E 0 92 0d 7f
        E 16 82 0d 00
        E 0 b2 0b 7f
        E 0 92 0a 7f
        E 16 82 0a 00
        E 0 b2 0b 7f
        E 0 92 2e 7f
        E 16 82 2e 00
        E 0 b2 0b 7f
        E 0 92 22 7f
        E 16 82 22 00
        E 0 b2 0b 7f
        E 0 92 1a 7f
        E 16 82 1a 00
        E 0 b2 0b 7f
        E 0 92 15 7f
        E 16 82 15 00
        E 0 b2 0b 7f
        E 0 92 11 7f
        E 16 82 11 00
        E 0 b2 0b 7f
        E 0 92 0e 7f
        E 16 82 0e 00
        E 0 b2 0b 7f
        E 0 92 0b 7f
        E 16 82 0b 00
        E 0 b2 0b 7f
        E 0 92 09 7f
        E 16 82 09 00
        E 0 b2 0b 7f
        E 0 92 2e 7f
        E 16 82 2e 00
        E 0 b2 0b 7f
        E 0 92 22 7f
        E 16 82 22 00
        E 0 b2 0b 7f
        E 0 92 1a 7f
        E 16 82 1a 00
        E 0 b2 0b 7f
        E 0 92 15 7f
        E 16 82 15 00
        E 0 b2 0b 7f
        E 0 92 11 7f
        E 16 82 11 00
        E 0 b2 0b 7f
        E 0 92 0e 7f
        E 16 82 0e 00
        E 0 b2 0b 7f
        E 0 92 0b 7f
        E 16 82 0b 00
        E 0 b2 0b 7f
        E 0 92 09 7f
        E 16 82 09 00
        E 0 b2 0b 7f
        E 0 92 2e 7f
        E 16 82 2e 00
        E 0 b2 0b 7f
        E 0 92 22 7f
        E 16 82 22 00
        E 0 b2 0b 7f
        E 0 92 1a 7f
        E 16 82 1a 00
        E 0 b2 0b 7f
        E 0 92 15 7f
        E 16 82 15 00
        E 0 b2 0b 7f
        E 0 92 11 7f
        E 16 82 11 00
        E 0 b2 0b 7f
        E 0 92 0e 7f
        E 16 82 0e 00
        E 0 b2 0b 7f
        E 0 92 2e 7f
        E 16 82 2e 00
        E 0 b2 0b 7f
        E 0 92 22 7f
        E 16 82 22 00
        E 0 b2 0b 7f
        E 0 92 1a 7f
        E 16 82 1a 00
        E 0 b2 0b 7f
        E 0 92 15 7f
        E 16 82 15 00
        E 0 b2 0b 7f
        E 0 92 11 7f
        E 16 82 11 00
        E 0 b2 0b 7f
        E 0 92 0e 7f
        E 16 82 0e 00
        E 0 b2 0b 7f
        E 0 92 0b 7f
        E 16 82 0b 00
        E 0 b2 0b 7f
        E 0 92 09 7f
        E 16 82 09 00
        E 0 b2 0b 7f
        E 0 92 2e 7f
        E 16 82 2e 00
        E 0 b2 0b 7f
        E 0 92 22 7f
        E 16 82 22 00
        E 0 b2 0b 7f
        E 0 92 1a 7f
        E 16 82 1a 00
        E 0 b2 0b 7f
        E 0 92 15 7f
        E 16 82 15 00
        E 0 b2 0b 7f
        E 0 92 11 7f
        E 16 82 11 00
        E 0 b2 0b 7f
        E 0 92 0e 7f
        E 16 82 0e 00
        E 0 b2 0b 7f
        E 0 92 0b 7f
        E 16 82 0b 00
        E 0 b2 0b 7f
        E 0 92 09 7f
        E 16 82 09 00
        E 0 b2 0b 7f
        E 0 92 2e 7f
        E 16 82 2e 00
        E 0 b2 0b 7f
        E 0 92 22 7f
        E 16 82 22 00
        E 0 b2 0b 7f
        E 0 92 1a 7f
        E 16 82 1a 00
        E 0 b2 0b 7f
        E 0 92 15 7f
        E 16 82 15 00
        E 0 b2 0b 7f
        E 0 92 11 7f
        E 16 82 11 00
        E 0 b2 0b 7f
        E 0 92 0e 7f
        E 16 82 0e 00
        E 0 b2 0b 7f
        E 0 92 2e 7f
        E 16 82 2e 00
        E 0 b2 0b 7f
        E 0 92 22 7f
        E 16 82 22 00
        E 0 b2 0b 7f
        E 0 92 1a 7f
        E 16 82 1a 00
        E 0 b2 0b 7f
        E 0 92 15 7f
        E 16 82 15 00
        E 0 b2 0b 7f
        E 0 92 11 7f
        E 16 82 11 00
        E 0 b2 0b 7f
        E 0 92 0e 7f
        E 16 82 0e 00
        E 0 b2 0b 7f
        E 0 92 0b 7f
        E 16 82 0b 00
        E 0 b2 0b 7f
        E 0 92 09 7f
        E 16 82 09 00
        E 0 b2 0b 7f
        E 0 92 2e 7f
        E 16 82 2e 00
        E 0 b2 0b 7f
        E 0 92 22 7f
        E 16 82 22 00
        E 0 b2 0b 7f
        E 0 92 1a 7f
        E 16 82 1a 00
        E 0 b2 0b 7f
        E 0 92 15 7f
        E 16 82 15 00
        E 0 b2 0b 7f
        E 0 92 11 7f
        E 16 82 11 00
        E 0 b2 0b 7f
        E 0 92 0e 7f
        E 16 82 0e 00
        E 0 b2 0b 7f
        E 0 92 0b 7f
        E 16 82 0b 00
        E 0 b2 0b 7f
        E 0 92 09 7f
        E 16 82 09 00
        E 0 b2 0b 7f
        E 0 92 2e 7f
        E 16 82 2e 00
        E 0 b2 0b 7f
        E 0 92 22 7f
        E 16 82 22 00
        E 0 b2 0b 7f
        E 0 92 1a 7f
        E 16 82 1a 00
        E 0 b2 0b 7f
        E 0 92 15 7f
        E 16 82 15 00
        E 0 b2 0b 7f
        E 0 92 11 7f
        E 16 82 11 00
        E 0 b2 0b 7f
        E 0 92 0e 7f
        E 16 82 0e 00
        E 0 b2 0b 7f
        E 0 92 0b 7f
        E 16 82 0b 00
        E 0 b2 0b 7f
        E 0 92 09 7f
        E 16 82 09 00
        E 0 b2 0b 7f
        E 0 92 2e 7f
        E 16 82 2e 00
        E 0 b2 0b 7f
        E 0 92 22 7f
        E 16 82 22 00
        E 0 b2 0b 7f
        E 0 92 1a 7f
        E 16 82 1a 00
        E 0 b2 0b 7f
        E 0 92 15 7f
        E 16 82 15 00
        E 0 b2 0b 7f
        E 0 92 11 7f
        E 16 82 11 00
        E 0 b2 0b 7f
        E 0 92 0e 7f
        E 16 82 0e 00
        E 0 b2 0b 7f
        E 0 92 0b 7f
        E 16 82 0b 00
        E 0 b2 0b 7f
        E 0 92 09 7f
        E 16 82 09 00
        E 0 b2 0b 7f
        E 0 92 2e 7f
        E 16 82 2e 00
        E 0 b2 0b 7f
        E 0 92 22 7f
        E 16 82 22 00
        E 0 b2 0b 7f
        E 0 92 1a 7f
        E 16 82 1a 00
        E 0 b2 0b 7f
        E 0 92 15 7f
        E 16 82 15 00
        E 0 b2 0b 7f
        E 0 92 11 7f
        E 16 82 11 00
        E 0 b2 0b 7f
        E 0 92 0e 7f
        E 16 82 0e 00
        E 0 b2 0b 7f
        E 0 92 0b 7f
        E 16 82 0b 00
        E 0 b2 0b 7f
        E 0 92 09 7f
        E 16 82 09 00
        E 0 b2 0b 7f
        E 0 92 2e 7f
        E 16 82 2e 00
        E 0 b2 0b 7f
        E 0 92 22 7f
        E 16 82 22 00
        E 0 b2 0b 7f
        E 0 92 1a 7f
        E 16 82 1a 00
        E 0 b2 0b 7f
        E 0 92 15 7f
        E 16 82 15 00
        E 0 b2 0b 7f
        E 0 92 2e 7f
        E 16 82 2e 00
        E 0 b2 0b 7f
        E 0 92 22 7f
        E 16 82 22 00
        E 0 b2 0b 7f
        E 0 92 1a 7f
        E 16 82 1a 00
        E 0 b2 0b 7f
        E 0 92 15 7f
        E 16 82 15 00
        E 0 b2 0b 7f
        E 0 92 11 7f
        E 16 82 11 00
        E 0 b2 0b 7f
        E 0 92 0e 7f
        E 16 82 0e 00
        E 0 b2 0b 7f
        E 0 92 0b 7f
        E 16 82 0b 00
        E 0 b2 0b 7f
        E 0 92 09 7f
        E 16 82 09 00
        E 0 b2 0b 7f
        E 0 92 2e 7f
        E 16 82 2e 00
        E 0 b2 0b 7f
        E 0 92 22 7f
        E 16 82 22 00
        E 0 b2 0b 7f
        E 0 92 1a 7f
        E 16 82 1a 00
        E 0 b2 0b 7f
        E 0 92 15 7f
        E 16 82 15 00
        E 0 b2 0b 7f
        E 0 92 11 7f
        E 16 82 11 00
        E 0 b2 0b 7f
        E 0 92 0e 7f
        E 16 82 0e 00
        E 0 b2 0b 7f
        E 0 92 0b 7f
        E 16 82 0b 00
        E 0 b2 0b 7f
        E 0 92 09 7f
        E 16 82 09 00
        E 0 b2 0b 7f
        E 0 92 2e 7f
        E 16 82 2e 00
        E 0 b2 0b 7f
        E 0 92 22 7f
        E 16 82 22 00
        E 0 b2 0b 7f
        E 0 92 1a 7f
        E 16 82 1a 00
        E 0 b2 0b 7f
        E 0 92 15 7f
        E 16 82 15 00
        E 0 b2 0b 7f
        E 0 92 11 7f
        E 16 82 11 00
        E 0 b2 0b 7f
        E 0 92 0e 7f
        E 16 82 0e 00
        E 0 b2 0b 7f
        E 0 92 2e 7f
        E 16 82 2e 00
        E 0 b2 0b 7f
        E 0 92 22 7f
        E 16 82 22 00
        E 0 b2 0b 7f
        E 0 92 1a 7f
        E 16 82 1a 00
        E 0 b2 0b 7f
        E 0 92 15 7f
        E 16 82 15 00
        E 0 b2 0b 7f
        E 0 92 11 7f
        E 16 82 11 00
        E 0 b2 0b 7f
        E 0 92 0e 7f
        E 3776 82 0e 00
        E 0 b2 0b 7f
        E 0 92 23 7f
        E 48 82 23 00
        E 0 b2 0b 7f
        E 0 92 1e 7f
        E 64 82 1e 00
        E 0 b2 0b 7f
        E 0 92 23 7f
        E 144 82 23 00
        E 0 b2 7b 00
        E 0 ff 2f 00
      >
    >
  >
  <TRACK {E11B7579-B5D0-4C9E-9E0D-7AEA5DA1D8A0}
    NAME "NES - Noise / Drums [ch3]"
    PEAKCOL 11184810
    BEAT -1
    AUTOMODE 0
    PANLAWFLAGS 3
    VOLPAN 1 0 -1 -1 1
    MUTESOLO 0 0 0
    IPHASE 0
    PLAYOFFS 0 1
    ISBUS 0 0
    BUSCOMP 0 0 0 0 0
    SHOWINMIX 1 0.6667 0.5 1 0.5 0 0 0
    FIXEDLANES 9 0 0 0 0
    SEL 0
    REC 0 5088 1 0 0 0 0 0
    VU 2
    TRACKHEIGHT 0 0 0 0 0 0 0
    INQ 0 0 0 0.5 100 0 0 100
    NCHAN 2
    FX 1
    TRACKID {E11B7579-B5D0-4C9E-9E0D-7AEA5DA1D8A0}
    PERF 0
    MIDIOUT -1
    MAINSEND 1 0
    <FXCHAIN
      WNDRECT 24 52 700 560
      SHOW 0
      LASTSEL 0
      DOCKED 0
      BYPASS 0 0 0
      <JS "ReapNES Studio/ReapNES_Console.jsfx" ""
        2 15 1 10 80 10 100 2 1 15 1 5 60 10 80 1 1 0 50 0 0 15 1 0 100 0 0 0.500000 0.500000 0.400000 0.300000 0.800000 3 1 0 0 0 0 - - - - - - - - - - - - - - - - - - - - - - - - - -
      >
      FLOATPOS 0 0 0 0
      FXID {4B300814-FA85-4ACB-971D-F280B67B0162}
      WAK 0 0
    >
    <ITEM
      POSITION 0
      LENGTH 8.0559878
      LOOP 0
      ALLTAKES 0
      FADEIN 0 0 0 0 0 0 0
      FADEOUT 0 0 0 0 0 0 0
      MUTE 0 0
      SEL 0
      IGUID {96A2BB0D-88A2-47C0-8584-68DB06CF481F}
      <SOURCE MIDI
        HASDATA 1 480 QN
        CCINTERP 32
        E 32 93 2a 2a
        E 16 83 2a 00
        E 80 93 2a 2a
        E 16 83 2a 00
        E 112 93 2a 2a
        E 16 83 2a 00
        E 96 93 2a 2a
        E 16 83 2a 00
        E 96 93 2a 2a
        E 16 83 2a 00
        E 416 93 2a 2a
        E 16 83 2a 00
        E 464 93 2a 2a
        E 16 83 2a 00
        E 448 93 2a 2a
        E 16 83 2a 00
        E 448 93 2a 2a
        E 16 83 2a 00
        E 448 93 2a 2a
        E 16 83 2a 00
        E 464 93 2a 2a
        E 16 83 2a 00
        E 448 93 2a 2a
        E 16 83 2a 00
        E 4288 93 2a 2a
        E 16 83 2a 00
        E 208 93 2a 2a
        E 16 83 2a 00
        E 16 b3 7b 00
        E 0 ff 2f 00
      >
    >
  >
>