<REAPER_PROJECT 0.1 "7.27/win64" 1707000000
  <NOTES 0 2
    |ReapNES Studio Project
    |MIDI Import - Battletoads_02_Song_2_v1
  >
  RIPPLE 0
  GROUPOVERRIDE 0 0 0
  AUTOXFADE 129
  ENVATTACH 3
  POOLEDENVATTACH 0
  MIXERUIFLAGS 11 48
  ENVFADESZ10 40
  PEAKGAIN 1
  FEEDBACK 0
  PANLAW 1
  PROJOFFS 0 0 0
  MAXPROJLEN 0 0
  GRID 3199 8 1 8 1 0 0 0
  TIMEMODE 1 5 -1 30 0 0 -1
  VIDEO_CONFIG 0 0 65792
  PANMODE 3
  PANLAWFLAGS 3
  CURSOR 0
  ZOOM 100 0 0
  VZOOMEX 6 0
  USE_REC_CFG 0
  RECMODE 1
  SMPTESYNC 0 30 100 40 1000 300 0 0 1 0 0
  LOOP 0
  LOOPGRAN 0 4
  RECORD_PATH "Media" ""
  <RECORD_CFG
    ZXZhdxgAAQ==
  >
  <APPLYFX_CFG
  >
  RENDER_FILE ""
  RENDER_PATTERN ""
  RENDER_FMT 0 2 0
  RENDER_1X 0
  RENDER_RANGE 1 0 0 18 1000
  RENDER_RESAMPLE 3 0 1
  RENDER_ADDTOPROJ 0
  RENDER_STEMS 0
  RENDER_DITHER 0
  TIMELOCKMODE 1
  TEMPOENVLOCKMODE 1
  ITEMMIX 1
  DEFPITCHMODE 589824 0
  TAKELANE 1
  SAMPLERATE 44100 0 0
  <RENDER_CFG
    ZXZhdxgAAQ==
  >
  LOCK 1
  <METRONOME 6 2
    VOL 0.25 0.125
    BEATLEN 4
    FREQ 1760 880 1
    SAMPLES "" ""
    SPLIGNORE 0 0
    SPLDEF 2 660 "" 0
    SPLDEF 3 440 "" 0
    PATTERN 0 169
    PATTERNSTR ABBB
    MULT 1
  >
  GLOBAL_AUTO -1
  TEMPO 128.59999614200012 4 4
  PLAYRATE 1 0 0.25 4
  SELECTION 0 0
  SELECTION2 0 0
  MASTERAUTOMODE 0
  MASTERTRACKHEIGHT 0 0
  MASTERPEAKCOL 16576
  MASTERMUTESOLO 0
  MASTERTRACKVIEW 0 0.6667 0.5 0.5 0 0 0 0 0 0 0 0 0 0
  MASTERHWOUT 0 0 1 0 0 0 0 -1
  MASTER_NCH 2 2
  MASTER_VOLUME 1 0 -1 -1 1
  MASTER_PANMODE 3
  MASTER_PANLAWFLAGS 3
  MASTER_FX 1
  MASTER_SEL 0
  <MASTERPLAYSPEEDENV
    EGUID {90C127DF-F5FD-4796-A524-5B784C6D0F13}
    ACT 0 -1
    VIS 0 1 1
    LANEHEIGHT 0 0
    ARM 0
    DEFSHAPE 0 -1 -1
  >
  <TEMPOENVEX
    EGUID {D10FA6FE-CF55-4636-AB5E-DFBE3D1EF663}
    ACT 1 -1
    VIS 1 0 1
    LANEHEIGHT 0 0
    ARM 0
    DEFSHAPE 1 -1 -1
  >
  <PROJBAY
  >
  <TRACK {F6C81C1C-43B7-4370-B87E-ECC3CCC7500E}
    NAME "NES - Pulse 1 [ch0]"
    PEAKCOL 16576606
    BEAT -1
    AUTOMODE 0
    PANLAWFLAGS 3
    VOLPAN 1 0 -1 -1 1
    MUTESOLO 0 0 0
    IPHASE 0
    PLAYOFFS 0 1
    ISBUS 0 0
    BUSCOMP 0 0 0 0 0
    SHOWINMIX 1 0.6667 0.5 1 0.5 0 0 0
    FIXEDLANES 9 0 0 0 0
    SEL 1
    REC 1 5088 1 0 0 0 0 0
    VU 2
    TRACKHEIGHT 0 0 0 0 0 0 0
    INQ 0 0 0 0.5 100 0 0 100
    NCHAN 2
    FX 1
    TRACKID {F6C81C1C-43B7-4370-B87E-ECC3CCC7500E}
    PERF 0
    MIDIOUT -1
    MAINSEND 1 0
    <FXCHAIN
      WNDRECT 24 52 700 560
      SHOW 0
      LASTSEL 0
      DOCKED 0
      BYPASS 0 0 0
      <JS "ReapNES Studio/ReapNES_Console.jsfx" ""
        2 15 1 10 80 10 100 2 1 15 1 5 60 10 80 1 1 0 50 0 0 15 1 0 100 0 0 0.500000 0.500000 0.400000 0.300000 0.800000 0 1 0 0 0 0 - - - - - - - - - - - - - - - - - - - - - - - - - -
      >
      FLOATPOS 0 0 0 0
      FXID {1174BB22-1B62-4368-A18E-F23DF17C7043}
      WAK 0 0
    >
    <ITEM
      POSITION 0
      LENGTH 83.98134
      LOOP 0
      ALLTAKES 0
      FADEIN 0 0 0 0 0 0 0
      FADEOUT 0 0 0 0 0 0 0
      MUTE 0 0
      SEL 0
      IGUID {F47878B7-D4D9-4F28-8B8F-94127F028EC1}
      <SOURCE MIDI
        HASDATA 1 480 QN
        CCINTERP 32
        E 0 c0 50
        E 4320 b0 0c 10
        E 0 b0 0b 20
        E 0 90 34 20
        E 16 b0 0b 18
        E 32 b0 0b 10
        E 32 b0 0b 08
        E 32 80 34 00
        E 32 b0 0b 18
        E 0 90 34 18
        E 16 b0 0b 10
        E 32 b0 0b 08
        E 32 80 34 00
        E 48 b0 0b 10
        E 0 90 34 10
        E 48 b0 0b 08
        E 64 80 34 00
        E 16 90 34 08
        E 64 80 34 00
        E 80 b0 0b 20
        E 0 90 34 20
        E 16 b0 0b 18
        E 32 b0 0b 10
        E 32 b0 0b 08
        E 32 80 34 00
        E 16 b0 0b 18
        E 0 90 34 18
        E 16 b0 0b 10
        E 32 b0 0b 08
        E 32 80 34 00
        E 64 b0 0b 10
        E 0 90 34 10
        E 48 b0 0b 08
        E 64 80 34 00
        E 16 90 34 08
        E 80 80 34 00
        E 48 b0 0b 20
        E 0 90 34 20
        E 16 b0 0b 18
        E 32 b0 0b 10
        E 16 b0 0b 08
        E 32 80 34 00
        E 48 b0 0b 18
        E 0 90 34 18
        E 16 b0 0b 10
        E 32 b0 0b 08
        E 32 80 34 00
        E 48 b0 0b 10
        E 0 90 34 10
        E 48 b0 0b 08
        E 64 80 34 00
        E 32 90 34 08
        E 80 80 34 00
        E 48 b0 0b 20
        E 0 90 34 20
        E 16 b0 0b 18
        E 32 b0 0b 10
        E 32 b0 0b 08
        E 32 80 34 00
        E 16 b0 0b 18
        E 0 90 34 18
        E 16 b0 0b 10
        E 32 b0 0b 08
        E 32 80 34 00
        E 64 b0 0b 10
        E 0 90 34 10
        E 48 b0 0b 08
        E 64 80 34 00
        E 16 90 34 08
        E 80 80 34 00
        E 48 b0 0b 20
        E 0 90 34 20
        E 16 b0 0b 18
        E 16 b0 0b 10
        E 32 b0 0b 08
        E 32 80 34 00
        E 48 b0 0b 18
        E 0 90 34 18
        E 16 b0 0b 10
        E 32 b0 0b 08
        E 32 80 34 00
        E 48 b0 0b 10
        E 0 90 34 10
        E 48 b0 0b 08
        E 48 80 34 00
        E 48 90 34 08
        E 80 80 34 00
        E 48 b0 0b 20
        E 0 90 34 20
        E 16 b0 0b 18
        E 32 b0 0b 10
        E 32 b0 0b 08
        E 32 80 34 00
        E 16 b0 0b 18
        E 0 90 34 18
        E 16 b0 0b 10
        E 16 b0 0b 08
        E 32 80 34 00
        E 80 b0 0b 10
        E 0 90 34 10
        E 48 b0 0b 08
        E 64 80 34 00
        E 16 90 34 08
        E 80 80 34 00
        E 64 b0 0b 20
        E 0 90 34 20
        E 16 b0 0b 18
        E 32 b0 0b 10
        E 32 b0 0b 08
        E 32 80 34 00
        E 16 b0 0b 18
        E 0 90 34 18
        E 16 b0 0b 10
        E 32 b0 0b 08
        E 32 80 34 00
        E 48 b0 0b 10
        E 0 90 34 10
        E 32 b0 0b 08
        E 64 80 34 00
        E 48 90 34 08
        E 80 80 34 00
        E 48 b0 0b 20
        E 0 90 34 20
        E 16 b0 0b 18
        E 32 b0 0b 10
        E 32 b0 0b 08
        E 32 80 34 00
        E 32 b0 0b 18
        E 0 90 34 18
        E 16 b0 0b 10
        E 32 b0 0b 08
        E 32 80 34 00
        E 48 b0 0b 10
        E 0 90 34 10
        E 48 b0 0b 08
        E 64 80 34 00
        E 16 90 34 08
        E 64 80 34 00
        E 80 b0 0c 40
        E 0 b0 0b 38
        E 0 90 28 38
        E 16 b0 0b 30
        E 32 b0 0b 28
        E 32 b0 0b 20
        E 32 b0 0b 18
        E 16 b0 0b 20
        E 16 b0 0b 18
        E 32 b0 0b 10
        E 32 b0 0b 08
        E 32 80 28 00
        E 32 b0 0b 10
        E 0 90 28 10
        E 48 b0 0b 08
        E 64 80 28 00
        E 16 90 28 08
        E 80 80 28 00
        E 48 b0 0b 38
        E 0 90 28 38
        E 16 b0 0b 30
        E 32 b0 0b 28
        E 16 b0 0b 20
        E 32 b0 0b 18
        E 32 b0 0b 10
        E 16 b0 0b 38
        E 0 80 28 00
        E 0 90 26 38
        E 16 b0 0b 30
        E 32 b0 0b 28
        E 32 b0 0b 20
        E 32 b0 0b 18
        E 16 b0 0b 20
        E 16 b0 0b 18
        E 32 b0 0b 10
        E 32 b0 0b 08
        E 32 80 26 00
        E 32 b0 0b 10
        E 0 90 26 10
        E 48 b0 0b 08
        E 64 80 26 00
        E 16 b0 0b 58
        E 0 90 28 58
        E 16 b0 0b 50
        E 32 b0 0b 48
        E 32 b0 0b 40
        E 32 b0 0b 38
        E 32 b0 0b 30
        E 32 b0 0b 28
        E 16 b0 0b 20
        E 32 b0 0b 18
        E 32 b0 0b 10
        E 16 80 28 00
        E 0 90 33 10
        E 144 b0 0b 18
        E 144 b0 0b 20
        E 32 80 33 00
        E 0 90 34 20
        E 128 b0 0b 28
        E 160 b0 0b 30
        E 144 b0 0b 38
        E 48 b0 0c 60
        E 0 b0 0b 30
        E 0 80 34 00
        E 0 90 2d 30
        E 128 80 2d 00
        E 0 90 37 30
        E 16 b0 0b 28
        E 16 b0 0b 20
        E 32 b0 0b 18
        E 32 b0 0b 10
        E 32 b0 0b 08
        E 16 b0 0b 30
        E 16 b0 0b 28
        E 32 b0 0b 20
        E 32 b0 0b 18
        E 32 b0 0b 10
        E 16 b0 0b 30
        E 0 80 37 00
        E 0 90 2d 30
        E 16 b0 0b 28
        E 32 b0 0b 20
        E 32 b0 0b 18
        E 16 b0 0b 10
        E 32 b0 0b 08
        E 16 b0 0b 30
        E 0 80 2d 00
        E 0 90 34 30
        E 16 b0 0b 28
        E 32 b0 0b 20
        E 32 b0 0b 18
        E 32 b0 0b 10
        E 16 b0 0b 30
        E 0 80 34 00
        E 0 90 2d 30
        E 16 b0 0b 28
        E 32 b0 0b 20
        E 32 b0 0b 18
        E 32 b0 0b 10
        E 16 b0 0b 30
        E 0 80 2d 00
        E 0 90 34 30
        E 16 b0 0b 28
        E 16 b0 0b 20
        E 32 b0 0b 18
        E 32 b0 0b 10
        E 32 b0 0b 08
        E 16 b0 0b 30
        E 16 b0 0b 28
        E 32 b0 0b 20
        E 32 b0 0b 18
        E 32 b0 0b 10
        E 16 b0 0b 30
        E 0 80 34 00
        E 0 90 2d 30
        E 16 b0 0b 28
        E 32 b0 0b 20
        E 32 b0 0b 18
        E 16 b0 0b 10
        E 32 b0 0b 08
        E 16 b0 0b 30
        E 0 80 2d 00
        E 0 90 37 30
        E 16 b0 0b 28
        E 32 b0 0b 20
        E 32 b0 0b 18
        E 32 b0 0b 10
        E 16 b0 0b 30
        E 16 b0 0b 28
        E 32 b0 0b 20
        E 32 b0 0b 18
        E 32 b0 0b 10
        E 16 b0 0b 30
        E 0 80 37 00
        E 0 90 2d 30
        E 16 b0 0b 28
        E 32 b0 0b 20
        E 16 b0 0b 18
        E 32 b0 0b 10
        E 32 b0 0b 08
        E 16 b0 0b 30
        E 0 80 2d 00
        E 0 90 34 30
        E 16 b0 0b 28
        E 32 b0 0b 20
        E 32 b0 0b 18
        E 32 b0 0b 10
        E 16 b0 0b 30
        E 0 80 34 00
        E 0 90 2d 30
        E 16 b0 0b 28
        E 32 b0 0b 20
        E 32 b0 0b 18
        E 32 b0 0b 10
        E 16 b0 0b 08
        E 16 b0 0b 30
        E 0 80 2d 00
        E 0 90 34 30
        E 16 b0 0b 28
        E 32 b0 0b 20
        E 32 b0 0b 18
        E 32 b0 0b 10
        E 16 b0 0b 30
        E 16 b0 0b 28
        E 32 b0 0b 20
        E 32 b0 0b 18
        E 32 b0 0b 10
        E 16 b0 0c 20
        E 0 b0 0b 38
        E 0 80 34 00
        E 0 90 23 38
        E 16 b0 0b 30
        E 32 b0 0b 28
        E 16 b0 0b 20
        E 32 b0 0b 18
        E 32 b0 0b 10
        E 32 b0 0b 08
        E 32 80 23 00
        E 80 b0 0b 38
        E 0 90 23 38
        E 16 b0 0b 30
        E 32 b0 0b 28
        E 32 b0 0b 20
        E 32 b0 0b 18
        E 16 b0 0b 10
        E 32 b0 0b 08
        E 32 80 23 00
        E 80 b0 0b 38
        E 0 90 23 38
        E 16 b0 0b 30
        E 32 b0 0b 28
        E 32 b0 0b 20
        E 32 b0 0b 18
        E 16 b0 0b 38
        E 0 80 23 00
        E 0 90 21 38
        E 48 b0 0b 30
        E 48 b0 0b 28
        E 64 b0 0b 20
        E 64 b0 0b 18
        E 48 b0 0b 38
        E 0 80 21 00
        E 0 90 23 38
        E 16 b0 0b 30
        E 32 b0 0b 28
        E 32 b0 0b 20
        E 32 b0 0b 18
        E 16 b0 0b 10
        E 32 b0 0b 08
        E 32 80 23 00
        E 80 b0 0b 38
        E 0 90 23 38
        E 16 b0 0b 30
        E 32 b0 0b 28
        E 32 b0 0b 20
        E 32 b0 0b 18
        E 16 b0 0b 38
        E 16 b0 0b 30
        E 32 b0 0b 28
        E 32 b0 0b 20
        E 16 b0 0b 18
        E 32 b0 0b 10
        E 32 b0 0b 08
        E 32 80 23 00
        E 80 b0 0b 38
        E 0 90 23 38
        E 16 b0 0b 30
        E 32 b0 0b 28
        E 32 b0 0b 20
        E 32 b0 0b 18
        E 16 b0 0b 38
        E 0 80 23 00
        E 0 90 26 38
        E 32 b0 0b 30
        E 64 b0 0b 28
        E 64 b0 0b 20
        E 64 b0 0b 18
        E 64 b0 0b 10
        E 64 b0 0b 08
        E 48 80 26 00
        E 16 b0 0b 38
        E 0 90 23 38
        E 16 b0 0b 30
        E 32 b0 0b 28
        E 32 b0 0b 20
        E 32 b0 0b 18
        E 32 b0 0b 10
        E 32 b0 0b 08
        E 32 80 23 00
        E 48 b0 0b 38
        E 0 90 23 38
        E 16 b0 0b 30
        E 16 b0 0b 28
        E 32 b0 0b 20
        E 32 b0 0b 18
        E 32 b0 0b 10
        E 32 b0 0b 08
        E 32 80 23 00
        E 80 b0 0b 38
        E 0 90 23 38
        E 16 b0 0b 30
        E 32 b0 0b 28
        E 32 b0 0b 20
        E 16 b0 0b 18
        E 32 b0 0b 10
        E 16 b0 0b 38
        E 0 80 23 00
        E 0 90 21 38
        E 48 b0 0b 30
        E 64 b0 0b 28
        E 64 b0 0b 20
        E 64 b0 0b 18
        E 16 b0 0b 38
        E 0 80 21 00
        E 0 90 23 38
        E 16 b0 0b 30
        E 16 b0 0b 28
        E 32 b0 0b 20
        E 32 b0 0b 18
        E 32 b0 0b 10
        E 32 b0 0b 08
        E 32 80 23 00
        E 80 b0 0b 38
        E 0 90 23 38
        E 16 b0 0b 30
        E 32 b0 0b 28
        E 32 b0 0b 20
        E 32 b0 0b 18
        E 16 b0 0b 10
        E 16 b0 0b 38
        E 16 b0 0b 30
        E 32 b0 0b 28
        E 32 b0 0b 20
        E 32 b0 0b 18
        E 32 b0 0b 10
        E 32 b0 0b 08
        E 32 80 23 00
        E 48 b0 0b 38
        E 0 90 23 38
        E 16 b0 0b 30
        E 32 b0 0b 28
        E 16 b0 0b 20
        E 32 b0 0b 18
        E 32 b0 0b 10
        E 16 b0 0b 38
        E 0 80 23 00
        E 0 90 26 38
        E 48 b0 0b 30
        E 64 b0 0b 28
        E 64 b0 0b 20
        E 64 b0 0b 18
        E 48 b0 0b 10
        E 64 b0 0b 08
        E 48 b0 0c 60
        E 0 b0 0b 30
        E 0 80 26 00
        E 0 90 2d 30
        E 16 b0 0b 28
        E 64 b0 0b 20
        E 48 b0 0b 30
        E 0 80 2d 00
        E 0 90 37 30
        E 16 b0 0b 28
        E 32 b0 0b 20
        E 16 b0 0b 18
        E 32 b0 0b 10
        E 32 b0 0b 08
        E 16 b0 0b 30
        E 16 b0 0b 28
        E 32 b0 0b 20
        E 32 b0 0b 18
        E 32 b0 0b 10
        E 16 b0 0b 30
        E 0 80 37 00
        E 0 90 2d 30
        E 16 b0 0b 28
        E 32 b0 0b 20
        E 32 b0 0b 18
        E 32 b0 0b 10
        E 16 b0 0b 08
        E 16 b0 0b 30
        E 0 80 2d 00
        E 0 90 34 30
        E 16 b0 0b 28
        E 32 b0 0b 20
        E 32 b0 0b 18
        E 32 b0 0b 10
        E 16 b0 0b 30
        E 0 80 34 00
        E 0 90 2d 30
        E 16 b0 0b 28
        E 32 b0 0b 20
        E 32 b0 0b 18
        E 32 b0 0b 10
        E 16 b0 0b 30
        E 0 80 2d 00
        E 0 90 34 30
        E 16 b0 0b 28
        E 32 b0 0b 20
        E 16 b0 0b 18
        E 32 b0 0b 10
        E 32 b0 0b 08
        E 16 b0 0b 30
        E 16 b0 0b 28
        E 32 b0 0b 20
        E 32 b0 0b 18
        E 32 b0 0b 10
        E 16 b0 0b 30
        E 0 80 34 00
        E 0 90 2d 30
        E 16 b0 0b 28
        E 32 b0 0b 20
        E 32 b0 0b 18
        E 32 b0 0b 10
        E 16 b0 0b 30
        E 0 80 2d 00
        E 0 90 37 30
        E 16 b0 0b 28
        E 16 b0 0b 20
        E 32 b0 0b 18
        E 32 b0 0b 10
        E 32 b0 0b 08
        E 16 b0 0b 30
        E 16 b0 0b 28
        E 32 b0 0b 20
        E 32 b0 0b 18
        E 32 b0 0b 10
        E 16 b0 0b 30
        E 0 80 37 00
        E 0 90 2d 30
        E 16 b0 0b 28
        E 32 b0 0b 20
        E 32 b0 0b 18
        E 16 b0 0b 10
        E 32 b0 0b 08
        E 16 b0 0b 30
        E 0 80 2d 00
        E 0 90 34 30
        E 16 b0 0b 28
        E 32 b0 0b 20
        E 32 b0 0b 18
        E 32 b0 0b 10
        E 16 b0 0b 30
        E 0 80 34 00
        E 0 90 2d 30
        E 16 b0 0b 28
        E 32 b0 0b 20
        E 32 b0 0b 18
        E 32 b0 0b 10
        E 16 b0 0b 30
        E 0 80 2d 00
        E 0 90 34 30
        E 16 b0 0b 28
        E 16 b0 0b 20
        E 32 b0 0b 18
        E 32 b0 0b 10
        E 32 b0 0b 08
        E 16 b0 0b 30
        E 16 b0 0b 28
        E 32 b0 0b 20
        E 32 b0 0b 18
        E 32 b0 0b 10
        E 16 b0 0c 10
        E 0 b0 0b 38
        E 0 80 34 00
        E 0 90 2f 38
        E 16 b0 0b 30
        E 32 b0 0b 28
        E 32 b0 0b 20
        E 16 b0 0b 18
        E 32 b0 0b 10
        E 16 b0 0b 20
        E 128 b0 0b 38
        E 0 80 2f 00
        E 0 90 36 38
        E 144 b0 0b 30
        E 16 b0 0b 28
        E 32 b0 0b 20
        E 32 b0 0b 18
        E 32 b0 0b 10
        E 16 b0 0b 20
        E 128 b0 0b 38
        E 0 80 36 00
        E 0 90 37 38
        E 16 b0 0b 30
        E 32 b0 0b 28
        E 32 b0 0b 20
        E 16 b0 0b 18
        E 32 b0 0b 10
        E 16 b0 0b 20
        E 16 b0 0b 18
        E 32 b0 0b 10
        E 32 b0 0b 08
        E 32 80 37 00
        E 16 b0 0b 38
        E 0 90 39 38
        E 16 b0 0b 30
        E 32 b0 0b 28
        E 32 b0 0b 20
        E 32 b0 0b 18
        E 16 b0 0b 20
        E 16 b0 0b 18
        E 32 b0 0b 10
        E 16 b0 0b 08
        E 32 80 39 00
        E 48 b0 0b 10
        E 0 90 39 10
        E 128 b0 0b 38
        E 272 b0 0b 20
        E 128 b0 0b 38
        E 144 b0 0b 20
        E 128 b0 0b 10
        E 144 80 39 00
        E 12880 b0 0b 20
        E 0 90 34 20
        E 16 b0 0b 18
        E 32 b0 0b 10
        E 16 b0 0b 08
        E 32 80 34 00
        E 48 b0 0b 18
        E 0 90 34 18
        E 16 b0 0b 10
        E 32 b0 0b 08
        E 32 80 34 00
        E 48 b0 0b 10
        E 0 90 34 10
        E 48 b0 0b 08
        E 64 80 34 00
        E 16 90 34 08
        E 64 80 34 00
        E 80 b0 0b 20
        E 0 90 34 20
        E 16 b0 0b 18
        E 32 b0 0b 10
        E 32 b0 0b 08
        E 32 80 34 00
        E 16 b0 0b 18
        E 0 90 34 18
        E 16 b0 0b 10
        E 32 b0 0b 08
        E 32 80 34 00
        E 64 b0 0b 10
        E 0 90 34 10
        E 48 b0 0b 08
        E 64 80 34 00
        E 16 90 34 08
        E 80 80 34 00
        E 48 b0 0b 20
        E 0 90 34 20
        E 16 b0 0b 18
        E 16 b0 0b 10
        E 32 b0 0b 08
        E 32 80 34 00
        E 48 b0 0b 18
        E 0 90 34 18
        E 16 b0 0b 10
        E 32 b0 0b 08
        E 32 80 34 00
        E 48 b0 0b 10
        E 0 90 34 10
        E 48 b0 0b 08
        E 48 80 34 00
        E 48 90 34 08
        E 80 80 34 00
        E 48 b0 0b 20
        E 0 90 34 20
        E 16 b0 0b 18
        E 32 b0 0b 10
        E 32 b0 0b 08
        E 32 80 34 00
        E 16 b0 0b 18
        E 0 90 34 18
        E 16 b0 0b 10
        E 16 b0 0b 08
        E 32 80 34 00
        E 80 b0 0b 10
        E 0 90 34 10
        E 48 b0 0b 08
        E 64 80 34 00
        E 16 90 34 08
        E 80 80 34 00
        E 64 b0 0b 20
        E 0 90 34 20
        E 16 b0 0b 18
        E 32 b0 0b 10
        E 32 b0 0b 08
        E 32 80 34 00
        E 16 b0 0b 18
        E 0 90 34 18
        E 16 b0 0b 10
        E 32 b0 0b 08
        E 32 80 34 00
        E 48 b0 0b 10
        E 0 90 34 10
        E 48 b0 0b 08
        E 48 80 34 00
        E 48 90 34 08
        E 80 80 34 00
        E 48 b0 0b 20
        E 0 90 34 20
        E 16 b0 0b 18
        E 32 b0 0b 10
        E 32 b0 0b 08
        E 32 80 34 00
        E 32 b0 0b 18
        E 0 90 34 18
        E 16 b0 0b 10
        E 32 b0 0b 08
        E 32 80 34 00
        E 48 b0 0b 10
        E 0 90 34 10
        E 48 b0 0b 08
        E 64 80 34 00
        E 16 90 34 08
        E 64 80 34 00
        E 80 b0 0b 20
        E 0 90 34 20
        E 16 b0 0b 18
        E 32 b0 0b 10
        E 32 b0 0b 08
        E 32 80 34 00
        E 16 b0 0b 18
        E 0 90 34 18
        E 16 b0 0b 10
        E 32 b0 0b 08
        E 32 80 34 00
        E 64 b0 0b 10
        E 0 90 34 10
        E 48 b0 0b 08
        E 64 80 34 00
        E 16 90 34 08
        E 80 80 34 00
        E 48 b0 0b 20
        E 0 90 34 20
        E 16 b0 0b 18
        E 32 b0 0b 10
        E 16 b0 0b 08
        E 32 80 34 00
        E 48 b0 0b 18
        E 0 90 34 18
        E 16 b0 0b 10
        E 32 b0 0b 08
        E 32 80 34 00
        E 48 b0 0b 10
        E 0 90 34 10
        E 48 b0 0b 08
        E 64 80 34 00
        E 32 90 34 08
        E 80 80 34 00
        E 48 b0 0b 20
        E 0 90 3b 20
        E 16 b0 0b 18
        E 32 b0 0b 10
        E 32 b0 0b 08
        E 32 80 3b 00
        E 16 b0 0b 18
        E 0 90 3b 18
        E 16 b0 0b 10
        E 32 b0 0b 08
        E 32 80 3b 00
        E 64 b0 0b 10
        E 0 90 3b 10
        E 48 b0 0b 08
        E 64 80 3b 00
        E 16 90 3b 08
        E 80 80 3b 00
        E 48 b0 0b 20
        E 0 90 3b 20
        E 16 b0 0b 18
        E 16 b0 0b 10
        E 32 b0 0b 08
        E 32 80 3b 00
        E 48 b0 0b 18
        E 0 90 3b 18
        E 16 b0 0b 10
        E 32 b0 0b 08
        E 32 80 3b 00
        E 48 b0 0b 10
        E 0 90 3b 10
        E 48 b0 0b 08
        E 48 80 3b 00
        E 48 90 3b 08
        E 80 80 3b 00
        E 48 b0 0b 20
        E 0 90 3b 20
        E 16 b0 0b 18
        E 32 b0 0b 10
        E 32 b0 0b 08
        E 32 80 3b 00
        E 16 b0 0b 18
        E 0 90 3b 18
        E 16 b0 0b 10
        E 16 b0 0b 08
        E 32 80 3b 00
        E 80 b0 0b 10
        E 0 90 3b 10
        E 48 b0 0b 08
        E 64 80 3b 00
        E 16 90 3b 08
        E 80 80 3b 00
        E 64 b0 0b 20
        E 0 90 3b 20
        E 16 b0 0b 18
        E 32 b0 0b 10
        E 32 b0 0b 08
        E 32 80 3b 00
        E 16 b0 0b 18
        E 0 90 3b 18
        E 16 b0 0b 10
        E 32 b0 0b 08
        E 32 80 3b 00
        E 48 b0 0b 10
        E 0 90 3b 10
        E 32 b0 0b 08
        E 64 80 3b 00
        E 48 90 3b 08
        E 80 80 3b 00
        E 48 b0 0b 20
        E 0 90 3b 20
        E 16 b0 0b 18
        E 32 b0 0b 10
        E 32 b0 0b 08
        E 32 80 3b 00
        E 32 b0 0b 18
        E 0 90 3b 18
        E 16 b0 0b 10
        E 32 b0 0b 08
        E 32 80 3b 00
        E 48 b0 0b 10
        E 0 90 3b 10
        E 48 b0 0b 08
        E 64 80 3b 00
        E 16 90 3b 08
        E 64 80 3b 00
        E 80 b0 0b 20
        E 0 90 3b 20
        E 16 b0 0b 18
        E 32 b0 0b 10
        E 32 b0 0b 08
        E 32 80 3b 00
        E 16 b0 0b 18
        E 0 90 3b 18
        E 16 b0 0b 10
        E 32 b0 0b 08
        E 32 80 3b 00
        E 64 b0 0b 10
        E 0 90 3b 10
        E 48 b0 0b 08
        E 64 80 3b 00
        E 16 90 3b 08
        E 80 80 3b 00
        E 48 b0 0b 20
        E 0 90 3b 20
        E 16 b0 0b 18
        E 32 b0 0b 10
        E 16 b0 0b 08
        E 32 80 3b 00
        E 48 b0 0b 18
        E 0 90 3b 18
        E 16 b0 0b 10
        E 32 b0 0b 08
        E 32 80 3b 00
        E 48 b0 0b 10
        E 0 90 3b 10
        E 48 b0 0b 08
        E 64 80 3b 00
        E 32 90 3b 08
        E 80 80 3b 00
        E 48 b0 0b 20
        E 0 90 3b 20
        E 16 b0 0b 18
        E 32 b0 0b 10
        E 32 b0 0b 08
        E 32 80 3b 00
        E 16 b0 0b 18
        E 0 90 3b 18
        E 16 b0 0b 10
        E 32 b0 0b 08
        E 16 80 3b 00
        E 80 b0 0b 10
        E 0 90 3b 10
        E 48 b0 0b 08
        E 64 80 3b 00
        E 16 90 3b 08
        E 80 80 3b 00
        E 48 b0 0c 40
        E 0 b0 0b 30
        E 0 90 3b 30
        E 64 b0 0b 28
        E 80 b0 0b 30
        E 0 80 3b 00
        E 0 90 43 30
        E 16 b0 0b 28
        E 48 b0 0b 18
        E 0 80 43 00
        E 0 90 3b 18
        E 64 b0 0b 30
        E 0 80 3b 00
        E 0 90 42 30
        E 48 b0 0b 28
        E 16 b0 0b 18
        E 0 80 42 00
        E 0 90 43 18
        E 64 b0 0b 10
        E 16 b0 0b 30
        E 0 80 43 00
        E 0 90 3e 30
        E 64 b0 0b 18
        E 0 80 3e 00
        E 0 90 42 18
        E 16 b0 0b 10
        E 48 b0 0b 30
        E 0 80 42 00
        E 0 90 39 30
        E 48 b0 0b 28
        E 16 b0 0b 18
        E 0 80 39 00
        E 0 90 3e 18
        E 64 b0 0b 30
        E 16 b0 0b 28
        E 64 b0 0b 18
        E 0 80 3e 00
        E 0 90 39 18
        E 16 b0 0b 10
        E 48 b0 0b 30
        E 0 80 39 00
        E 0 90 3b 30
        E 48 b0 0b 28
        E 16 b0 0b 18
        E 0 80 3b 00
        E 0 90 3e 18
        E 64 b0 0b 30
        E 0 80 3e 00
        E 0 90 40 30
        E 16 b0 0b 28
        E 48 b0 0b 18
        E 0 80 40 00
        E 0 90 3b 18
        E 32 b0 0b 10
        E 48 b0 0b 30
        E 0 80 3b 00
        E 0 90 40 30
        E 48 b0 0b 28
        E 16 b0 0b 18
        E 64 b0 0b 10
        E 64 b0 0b 08
        E 64 b0 0b 30
        E 0 80 40 00
        E 0 90 3e 30
        E 80 b0 0b 18
        E 0 80 3e 00
        E 0 90 40 18
        E 16 b0 0b 10
        E 48 b0 0b 30
        E 0 80 40 00
        E 0 90 3b 30
        E 48 b0 0b 28
        E 16 b0 0b 18
        E 0 80 3b 00
        E 0 90 3e 18
        E 64 b0 0b 30
        E 0 80 3e 00
        E 0 90 39 30
        E 16 b0 0b 28
        E 48 b0 0b 18
        E 0 80 39 00
        E 0 90 3b 18
        E 32 b0 0b 10
        E 48 b0 0b 30
        E 48 b0 0b 28
        E 16 b0 0b 18
        E 0 80 3b 00
        E 0 90 39 18
        E 64 b0 0b 30
        E 0 80 39 00
        E 0 90 3e 30
        E 16 b0 0b 28
        E 48 b0 0b 18
        E 0 80 3e 00
        E 0 90 3b 18
        E 48 b0 0b 10
        E 16 b0 0b 30
        E 0 80 3b 00
        E 0 90 40 30
        E 64 b0 0b 28
        E 16 b0 0b 18
        E 0 80 40 00
        E 0 90 3e 18
        E 64 b0 0b 30
        E 0 80 3e 00
        E 0 90 3b 30
        E 16 b0 0b 28
        E 96 b0 0b 20
        E 16 b0 0b 30
        E 0 80 3b 00
        E 0 90 43 30
        E 64 b0 0b 18
        E 0 80 43 00
        E 0 90 3b 18
        E 80 b0 0b 30
        E 0 80 3b 00
        E 0 90 42 30
        E 16 b0 0b 28
        E 48 b0 0b 18
        E 0 80 42 00
        E 0 90 43 18
        E 48 b0 0b 10
        E 16 b0 0b 30
        E 0 80 43 00
        E 0 90 3e 30
        E 64 b0 0b 18
        E 0 80 3e 00
        E 0 90 42 18
        E 16 b0 0b 10
        E 48 b0 0b 30
        E 0 80 42 00
        E 0 90 39 30
        E 48 b0 0b 28
        E 32 b0 0b 18
        E 0 80 39 00
        E 0 90 3e 18
        E 48 b0 0b 10
        E 16 b0 0b 30
        E 64 b0 0b 18
        E 0 80 3e 00
        E 0 90 39 18
        E 16 b0 0b 10
        E 48 b0 0b 30
        E 0 80 39 00
        E 0 90 3b 30
        E 48 b0 0b 28
        E 16 b0 0b 18
        E 0 80 3b 00
        E 0 90 3e 18
        E 64 b0 0b 10
        E 16 b0 0b 30
        E 0 80 3e 00
        E 0 90 40 30
        E 64 b0 0b 18
        E 0 80 40 00
        E 0 90 3b 18
        E 16 b0 0b 10
        E 48 b0 0b 30
        E 0 80 3b 00
        E 0 90 40 30
        E 48 b0 0b 28
        E 16 b0 0b 18
        E 64 b0 0b 10
        E 80 b0 0b 08
        E 64 b0 0b 30
        E 0 80 40 00
        E 0 90 3e 30
        E 64 b0 0b 18
        E 0 80 3e 00
        E 0 90 40 18
        E 16 b0 0b 10
        E 48 b0 0b 30
        E 0 80 40 00
        E 0 90 3b 30
        E 48 b0 0b 28
        E 16 b0 0b 18
        E 0 80 3b 00
        E 0 90 3e 18
        E 64 b0 0b 10
        E 16 b0 0b 30
        E 0 80 3e 00
        E 0 90 39 30
        E 64 b0 0b 18
        E 0 80 39 00
        E 0 90 3b 18
        E 16 b0 0b 10
        E 48 b0 0b 30
        E 48 b0 0b 28
        E 16 b0 0b 18
        E 0 80 3b 00
        E 0 90 39 18
        E 64 b0 0b 30
        E 0 80 39 00
        E 0 90 3e 30
        E 16 b0 0b 28
        E 48 b0 0b 18
        E 0 80 3e 00
        E 0 90 3b 18
        E 32 b0 0b 10
        E 48 b0 0b 30
        E 0 80 3b 00
        E 0 90 40 30
        E 48 b0 0b 28
        E 16 b0 0b 18
        E 0 80 40 00
        E 0 90 3e 18
        E 64 b0 0b 30
        E 0 80 3e 00
        E 0 90 3b 30
        E 16 b0 0b 28
        E 96 b0 0b 20
        E 16 b0 0b 30
        E 0 80 3b 00
        E 0 90 43 30
        E 64 b0 0b 28
        E 16 b0 0b 18
        E 0 80 43 00
        E 0 90 3b 18
        E 64 b0 0b 30
        E 0 80 3b 00
        E 0 90 42 30
        E 64 b0 0b 18
        E 0 80 42 00
        E 0 90 43 18
        E 16 b0 0b 10
        E 48 b0 0b 30
        E 0 80 43 00
        E 0 90 3e 30
        E 48 b0 0b 28
        E 16 b0 0b 18
        E 0 80 3e 00
        E 0 90 42 18
        E 64 b0 0b 10
        E 16 b0 0b 30
        E 0 80 42 00
        E 0 90 39 30
        E 64 b0 0b 18
        E 0 80 39 00
        E 0 90 3e 18
        E 16 b0 0b 10
        E 48 b0 0b 30
        E 48 b0 0b 28
        E 16 b0 0b 18
        E 0 80 3e 00
        E 0 90 39 18
        E 64 b0 0b 30
        E 0 80 39 00
        E 0 90 3b 30
        E 16 b0 0b 28
        E 64 b0 0b 18
        E 0 80 3b 00
        E 0 90 3e 18
        E 16 b0 0b 10
        E 48 b0 0b 30
        E 0 80 3e 00
        E 0 90 40 30
        E 48 b0 0b 28
        E 16 b0 0b 18
        E 0 80 40 00
        E 0 90 3b 18
        E 64 b0 0b 30
        E 0 80 3b 00
        E 0 90 40 30
        E 16 b0 0b 28
        E 48 b0 0b 18
        E 32 b0 0b 10
        E 112 b0 0b 08
        E 64 b0 0b 30
        E 0 80 40 00
        E 0 90 3e 30
        E 64 b0 0b 18
        E 0 80 3e 00
        E 0 90 40 18
        E 48 b0 0b 10
        E 16 b0 0b 30
        E 0 80 40 00
        E 0 90 3b 30
        E 64 b0 0b 28
        E 16 b0 0b 18
        E 0 80 3b 00
        E 0 90 3e 18
        E 64 b0 0b 30
        E 0 80 3e 00
        E 0 90 39 30
        E 16 b0 0b 28
        E 48 b0 0b 18
        E 0 80 39 00
        E 0 90 3b 18
        E 48 b0 0b 10
        E 16 b0 0b 30
        E 64 b0 0b 18
        E 0 80 3b 00
        E 0 90 39 18
        E 16 b0 0b 10
        E 64 b0 0b 30
        E 0 80 39 00
        E 0 90 3e 30
        E 16 b0 0b 28
        E 48 b0 0b 18
        E 0 80 3e 00
        E 0 90 3b 18
        E 48 b0 0b 10
        E 16 b0 0b 30
        E 0 80 3b 00
        E 0 90 40 30
        E 64 b0 0b 18
        E 0 80 40 00
        E 0 90 3e 18
        E 16 b0 0b 10
        E 48 b0 0b 30
        E 0 80 3e 00
        E 0 90 3b 30
        E 48 b0 0b 28
        E 80 b0 0b 20
        E 16 b0 0b 30
        E 0 80 3b 00
        E 0 90 43 30
        E 64 b0 0b 18
        E 0 80 43 00
        E 0 90 3b 18
        E 64 b0 0b 30
        E 0 80 3b 00
        E 0 90 42 30
        E 16 b0 0b 28
        E 48 b0 0b 18
        E 0 80 42 00
        E 0 90 43 18
        E 48 b0 0b 10
        E 32 b0 0b 30
        E 0 80 43 00
        E 0 90 3e 30
        E 48 b0 0b 28
        E 16 b0 0b 18
        E 0 80 3e 00
        E 0 90 42 18
        E 64 b0 0b 30
        E 0 80 42 00
        E 0 90 39 30
        E 16 b0 0b 28
        E 48 b0 0b 18
        E 0 80 39 00
        E 0 90 3e 18
        E 48 b0 0b 10
        E 16 b0 0b 30
        E 64 b0 0b 28
        E 16 b0 0b 18
        E 0 80 3e 00
        E 0 90 39 18
        E 64 b0 0b 30
        E 0 80 39 00
        E 0 90 3b 30
        E 16 b0 0b 28
        E 48 b0 0b 18
        E 0 80 3b 00
        E 0 90 3e 18
        E 48 b0 0b 10
        E 16 b0 0b 30
        E 0 80 3e 00
        E 0 90 40 30
        E 64 b0 0b 18
        E 0 80 40 00
        E 0 90 3b 18
        E 16 b0 0b 10
        E 64 b0 0b 30
        E 0 80 3b 00
        E 0 90 40 30
        E 16 b0 0b 28
        E 48 b0 0b 18
        E 48 b0 0b 10
        E 80 b0 0b 08
        E 64 b0 0b 30
        E 0 80 40 00
        E 0 90 3e 30
        E 80 b0 0b 18
        E 0 80 3e 00
        E 0 90 40 18
        E 64 b0 0b 30
        E 0 80 40 00
        E 0 90 3b 30
        E 16 b0 0b 28
        E 48 b0 0b 18
        E 0 80 3b 00
        E 0 90 3e 18
        E 48 b0 0b 10
        E 16 b0 0b 30
        E 0 80 3e 00
        E 0 90 39 30
        E 64 b0 0b 18
        E 0 80 39 00
        E 0 90 3b 18
        E 16 b0 0b 10
        E 48 b0 0b 30
        E 32 b0 0b 28
        E 48 b0 0b 18
        E 0 80 3b 00
        E 0 90 39 18
        E 48 b0 0b 10
        E 16 b0 0b 30
        E 0 80 39 00
        E 0 90 3e 30
        E 64 b0 0b 18
        E 0 80 3e 00
        E 0 90 3b 18
        E 16 b0 0b 10
        E 48 b0 0b 30
        E 0 80 3b 00
        E 0 90 40 30
        E 48 b0 0b 28
        E 16 b0 0b 18
        E 0 80 40 00
        E 0 90 3e 18
        E 64 b0 0b 10
        E 16 b0 0b 48
        E 0 80 3e 00
        E 0 90 26 48
        E 16 b0 0b 40
        E 32 b0 0b 38
        E 32 b0 0b 30
        E 32 b0 0b 28
        E 16 b0 0b 48
        E 0 80 26 00
        E 0 90 28 48
        E 16 b0 0b 40
        E 32 b0 0b 38
        E 32 b0 0b 30
        E 32 b0 0b 28
        E 16 b0 0c 10
        E 0 b0 0b 38
        E 0 80 28 00
        E 0 90 36 38
        E 16 b0 0b 30
        E 16 b0 0b 28
        E 32 b0 0b 20
        E 32 b0 0b 18
        E 32 b0 0b 10
        E 16 b0 0b 38
        E 0 80 36 00
        E 0 90 37 38
        E 16 b0 0b 30
        E 32 b0 0b 28
        E 32 b0 0b 20
        E 32 b0 0b 18
        E 16 b0 0b 20
        E 144 b0 0b 38
        E 16 b0 0b 30
        E 32 b0 0b 28
        E 32 b0 0b 20
        E 32 b0 0b 18
        E 16 b0 0b 20
        E 16 b0 0b 18
        E 32 b0 0b 10
        E 32 b0 0b 08
        E 32 80 37 00
        E 16 b0 0b 38
        E 0 90 37 38
        E 16 b0 0b 30
        E 16 b0 0b 28
        E 32 b0 0b 20
        E 32 b0 0b 18
        E 32 b0 0b 10
        E 16 b0 0b 20
        E 16 b0 0b 18
        E 32 b0 0b 10
        E 32 b0 0b 08
        E 32 80 37 00
        E 16 b0 0b 10
        E 0 90 37 10
        E 144 b0 0b 38
        E 256 b0 0b 20
        E 16 b0 0b 18
        E 32 b0 0b 10
        E 16 b0 0b 08
        E 32 80 37 00
        E 48 b0 0b 38
        E 0 90 37 38
        E 16 b0 0b 30
        E 32 b0 0b 28
        E 32 b0 0b 20
        E 32 b0 0b 18
        E 16 b0 0b 20
        E 16 b0 0b 18
        E 32 b0 0b 10
        E 32 b0 0b 08
        E 32 80 37 00
        E 32 b0 0c 40
        E 0 b0 0b 48
        E 0 90 28 48
        E 16 b0 0b 40
        E 32 b0 0b 38
        E 32 b0 0b 30
        E 32 b0 0b 28
        E 16 b0 0b 48
        E 0 80 28 00
        E 0 90 26 48
        E 16 b0 0b 40
        E 32 b0 0b 38
        E 32 b0 0b 30
        E 32 b0 0b 28
        E 16 b0 0b 48
        E 0 80 26 00
        E 0 90 28 48
        E 16 b0 0b 40
        E 32 b0 0b 38
        E 16 b0 0b 30
        E 32 b0 0b 28
        E 32 b0 0b 20
        E 16 b0 0c 10
        E 0 b0 0b 38
        E 0 80 28 00
        E 0 90 36 38
        E 16 b0 0b 30
        E 32 b0 0b 28
        E 32 b0 0b 20
        E 32 b0 0b 18
        E 16 b0 0b 38
        E 0 80 36 00
        E 0 90 37 38
        E 16 b0 0b 30
        E 32 b0 0b 28
        E 32 b0 0b 20
        E 32 b0 0b 18
        E 16 b0 0b 10
        E 16 b0 0b 20
        E 128 b0 0b 38
        E 16 b0 0b 30
        E 32 b0 0b 28
        E 32 b0 0b 20
        E 32 b0 0b 18
        E 16 b0 0b 20
        E 16 b0 0b 18
        E 32 b0 0b 10
        E 16 b0 0b 08
        E 32 80 37 00
        E 48 b0 0b 38
        E 0 90 37 38
        E 16 b0 0b 30
        E 32 b0 0b 28
        E 32 b0 0b 20
        E 32 b0 0b 18
        E 16 b0 0b 20
        E 16 b0 0b 18
        E 32 b0 0b 10
        E 32 b0 0b 08
        E 32 80 37 00
        E 32 b0 0b 10
        E 0 90 37 10
        E 128 b0 0b 38
        E 272 b0 0b 20
        E 16 b0 0b 18
        E 32 b0 0b 10
        E 32 b0 0b 08
        E 32 80 37 00
        E 16 b0 0b 38
        E 0 90 37 38
        E 16 b0 0b 30
        E 32 b0 0b 28
        E 32 b0 0b 20
        E 32 b0 0b 18
        E 16 b0 0b 20
        E 16 b0 0b 18
        E 16 b0 0b 10
        E 32 b0 0b 08
        E 32 80 37 00
        E 48 b0 0c 40
        E 0 b0 0b 48
        E 0 90 28 48
        E 16 b0 0b 40
        E 32 b0 0b 38
        E 32 b0 0b 30
        E 32 b0 0b 28
        E 16 b0 0b 48
        E 0 80 28 00
        E 0 90 26 48
        E 16 b0 0b 40
        E 32 b0 0b 38
        E 32 b0 0b 30
        E 16 b0 0b 28
        E 32 b0 0b 20
        E 16 b0 0b 48
        E 0 80 26 00
        E 0 90 28 48
        E 16 b0 0b 40
        E 32 b0 0b 38
        E 32 b0 0b 30
        E 32 b0 0b 28
        E 16 b0 0c 10
        E 0 b0 0b 38
        E 0 80 28 00
        E 0 90 36 38
        E 16 b0 0b 30
        E 32 b0 0b 28
        E 32 b0 0b 20
        E 32 b0 0b 18
        E 16 b0 0b 38
        E 0 80 36 00
        E 0 90 37 38
        E 16 b0 0b 30
        E 16 b0 0b 28
        E 32 b0 0b 20
        E 32 b0 0b 18
        E 32 b0 0b 10
        E 16 b0 0b 20
        E 128 b0 0b 38
        E 16 b0 0b 30
        E 32 b0 0b 28
        E 32 b0 0b 20
        E 16 b0 0b 18
        E 32 b0 0b 10
        E 16 b0 0b 20
        E 16 b0 0b 18
        E 32 b0 0b 10
        E 32 b0 0b 08
        E 32 80 37 00
        E 16 b0 0b 38
        E 0 90 37 38
        E 16 b0 0b 30
        E 32 b0 0b 28
        E 32 b0 0b 20
        E 32 b0 0b 18
        E 16 b0 0b 20
        E 16 b0 0b 18
        E 16 b0 0b 10
        E 32 b0 0b 08
        E 32 80 37 00
        E 48 b0 0b 10
        E 0 90 37 10
        E 128 b0 0b 38
        E 272 b0 0b 20
        E 16 b0 0b 18
        E 32 b0 0b 10
        E 32 b0 0b 08
        E 32 80 37 00
        E 16 b0 0b 38
        E 0 90 37 38
        E 16 b0 0b 30
        E 32 b0 0b 28
        E 16 b0 0b 20
        E 32 b0 0b 18
        E 32 b0 0b 10
        E 16 b0 0b 20
        E 16 b0 0b 18
        E 32 b0 0b 10
        E 32 b0 0b 08
        E 32 80 37 00
        E 16 b0 0c 40
        E 0 b0 0b 48
        E 0 90 28 48
        E 16 b0 0b 40
        E 32 b0 0b 38
        E 32 b0 0b 30
        E 32 b0 0b 28
        E 16 b0 0b 20
        E 16 b0 0b 48
        E 0 80 28 00
        E 0 90 26 48
        E 16 b0 0b 40
        E 32 b0 0b 38
        E 32 b0 0b 30
        E 32 b0 0b 28
        E 16 b0 0b 48
        E 0 80 26 00
        E 0 90 28 48
        E 16 b0 0b 40
        E 32 b0 0b 38
        E 32 b0 0b 30
        E 32 b0 0b 28
        E 16 b0 0c 10
        E 0 b0 0b 38
        E 0 80 28 00
        E 0 90 36 38
        E 16 b0 0b 30
        E 32 b0 0b 28
        E 16 b0 0b 20
        E 32 b0 0b 18
        E 32 b0 0b 10
        E 16 b0 0b 38
        E 0 80 36 00
        E 0 90 37 38
        E 16 b0 0b 30
        E 32 b0 0b 28
        E 32 b0 0b 20
        E 32 b0 0b 18
        E 16 b0 0b 20
        E 144 b0 0b 38
        E 16 b0 0b 30
        E 32 b0 0b 28
        E 32 b0 0b 20
        E 32 b0 0b 18
        E 16 b0 0b 20
        E 16 b0 0b 18
        E 32 b0 0b 10
        E 32 b0 0b 08
        E 32 80 37 00
        E 16 b0 0b 38
        E 0 90 37 38
        E 16 b0 0b 30
        E 32 b0 0b 28
        E 16 b0 0b 20
        E 32 b0 0b 18
        E 32 b0 0b 10
        E 16 b0 0b 20
        E 16 b0 0b 18
        E 32 b0 0b 10
        E 32 b0 0b 08
        E 32 80 37 00
        E 16 b0 0b 10
        E 0 90 37 10
        E 128 b0 0b 38
        E 272 b0 0b 20
        E 16 b0 0b 18
        E 32 b0 0b 10
        E 32 b0 0b 08
        E 16 80 37 00
        E 48 b0 0b 38
        E 0 90 37 38
        E 16 b0 0b 30
        E 32 b0 0b 28
        E 32 b0 0b 20
        E 32 b0 0b 18
        E 16 b0 0b 20
        E 16 b0 0b 18
        E 32 b0 0b 10
        E 32 b0 0b 08
        E 32 80 37 00
        E 16 b0 0c 40
        E 0 b0 0b 48
        E 0 90 28 48
        E 16 b0 0b 40
        E 16 b0 0b 38
        E 32 b0 0b 30
        E 32 b0 0b 28
        E 32 b0 0b 20
        E 16 b0 0b 30
        E 0 80 28 00
        E 0 90 21 30
        E 16 b0 0b 28
        E 32 b0 0b 20
        E 32 b0 0b 18
        E 32 b0 0b 10
        E 16 b0 0b 30
        E 0 80 21 00
        E 0 90 24 30
        E 16 b0 0b 28
        E 32 b0 0b 20
        E 16 b0 0b 18
        E 0 80 24 00
        E 0 90 21 18
        E 80 b0 0b 30
        E 0 80 21 00
        E 0 90 28 30
        E 16 b0 0b 28
        E 32 b0 0b 20
        E 16 b0 0b 18
        E 0 80 28 00
        E 0 90 24 18
        E 16 b0 0b 10
        E 32 b0 0b 08
        E 16 b0 0b 30
        E 0 80 24 00
        E 0 90 2b 30
        E 16 b0 0b 28
        E 32 b0 0b 20
        E 16 b0 0b 18
        E 0 80 2b 00
        E 0 90 28 18
        E 16 b0 0b 10
        E 32 b0 0b 08
        E 16 b0 0b 30
        E 16 b0 0b 28
        E 16 b0 0b 20
        E 32 b0 0b 18
        E 16 80 28 00
        E 0 90 2b 18
        E 16 b0 0b 10
        E 32 b0 0b 08
        E 16 b0 0b 30
        E 0 80 2b 00
        E 0 90 24 30
        E 16 b0 0b 28
        E 32 b0 0b 20
        E 16 b0 0b 18
        E 0 80 24 00
        E 0 90 28 18
        E 16 b0 0b 10
        E 32 b0 0b 08
        E 16 b0 0b 30
        E 16 b0 0b 28
        E 32 b0 0b 20
        E 16 b0 0b 18
        E 0 80 28 00
        E 0 90 24 18
        E 16 b0 0b 10
        E 16 b0 0b 08
        E 32 80 24 00
        E 16 b0 0b 30
        E 0 90 2b 30
        E 16 b0 0b 28
        E 32 b0 0b 20
        E 16 b0 0b 18
        E 0 80 2b 00
        E 0 90 28 18
        E 16 b0 0b 10
        E 32 b0 0b 08
        E 16 b0 0b 30
        E 0 80 28 00
        E 0 90 2d 30
        E 16 b0 0b 28
        E 32 b0 0b 20
        E 16 b0 0b 18
        E 0 80 2d 00
        E 0 90 2b 18
        E 16 b0 0b 10
        E 32 b0 0b 08
        E 16 b0 0b 30
        E 0 80 2b 00
        E 0 90 30 30
        E 16 b0 0b 28
        E 32 b0 0b 20
        E 16 b0 0b 18
        E 16 80 30 00
        E 0 90 2d 18
        E 16 b0 0b 10
        E 32 b0 0b 08
        E 16 b0 0b 30
        E 0 80 2d 00
        E 0 90 34 30
        E 16 b0 0b 28
        E 32 b0 0b 20
        E 16 b0 0b 18
        E 0 80 34 00
        E 0 90 30 18
        E 16 b0 0b 10
        E 32 b0 0b 08
        E 16 b0 0b 30
        E 0 80 30 00
        E 0 90 37 30
        E 16 b0 0b 28
        E 32 b0 0b 20
        E 16 b0 0b 18
        E 0 80 37 00
        E 0 90 34 18
        E 16 b0 0b 10
        E 32 b0 0b 08
        E 16 80 34 00
        E 16 b0 0b 30
        E 0 90 39 30
        E 16 b0 0b 28
        E 32 b0 0b 20
        E 16 b0 0b 18
        E 0 80 39 00
        E 0 90 37 18
        E 16 b0 0b 10
        E 32 b0 0b 08
        E 16 b0 0b 30
        E 0 80 37 00
        E 0 90 3c 30
        E 16 b0 0b 28
        E 32 b0 0b 20
        E 16 b0 0b 18
        E 0 80 3c 00
        E 0 90 39 18
        E 16 b0 0b 10
        E 32 b0 0b 08
        E 16 b0 0b 30
        E 0 80 39 00
        E 0 90 40 30
        E 16 b0 0b 28
        E 32 b0 0b 20
        E 16 b0 0b 18
        E 16 80 40 00
        E 0 90 3c 18
        E 16 b0 0b 10
        E 32 b0 0b 08
        E 16 b0 0b 30
        E 0 80 3c 00
        E 0 90 43 30
        E 16 b0 0b 28
        E 32 b0 0b 20
        E 16 b0 0b 18
        E 0 80 43 00
        E 0 90 40 18
        E 16 b0 0b 10
        E 32 b0 0b 08
        E 16 b0 0b 30
        E 0 80 40 00
        E 0 90 23 30
        E 16 b0 0b 28
        E 32 b0 0b 20
        E 16 b0 0b 18
        E 0 80 23 00
        E 0 90 43 18
        E 16 b0 0b 10
        E 32 b0 0b 08
        E 16 80 43 00
        E 16 b0 0b 30
        E 0 90 27 30
        E 16 b0 0b 28
        E 32 b0 0b 20
        E 16 b0 0b 18
        E 0 80 27 00
        E 0 90 23 18
        E 16 b0 0b 10
        E 32 b0 0b 08
        E 16 b0 0b 30
        E 0 80 23 00
        E 0 90 2a 30
        E 16 b0 0b 28
        E 32 b0 0b 20
        E 16 b0 0b 18
        E 0 80 2a 00
        E 0 90 27 18
        E 16 b0 0b 10
        E 32 b0 0b 08
        E 16 b0 0b 30
        E 0 80 27 00
        E 0 90 2d 30
        E 16 b0 0b 28
        E 32 b0 0b 20
        E 16 b0 0b 18
        E 16 80 2d 00
        E 0 90 2a 18
        E 16 b0 0b 10
        E 32 b0 0b 08
        E 16 b0 0b 30
        E 16 b0 0b 28
        E 32 b0 0b 20
        E 16 b0 0b 18
        E 0 80 2a 00
        E 0 90 2d 18
        E 16 b0 0b 10
        E 32 b0 0b 08
        E 16 b0 0b 30
        E 0 80 2d 00
        E 0 90 27 30
        E 16 b0 0b 28
        E 32 b0 0b 20
        E 16 b0 0b 18
        E 0 80 27 00
        E 0 90 2a 18
        E 16 b0 0b 10
        E 32 b0 0b 08
        E 16 80 2a 00
        E 16 b0 0b 30
        E 0 90 2a 30
        E 16 b0 0b 28
        E 32 b0 0b 20
        E 16 b0 0b 18
        E 0 80 2a 00
        E 0 90 27 18
        E 16 b0 0b 10
        E 32 b0 0b 08
        E 16 b0 0b 30
        E 0 80 27 00
        E 0 90 2d 30
        E 16 b0 0b 28
        E 32 b0 0b 20
        E 16 b0 0b 18
        E 0 80 2d 00
        E 0 90 2a 18
        E 16 b0 0b 10
        E 32 b0 0b 08
        E 16 b0 0b 30
        E 0 80 2a 00
        E 0 90 2f 30
        E 16 b0 0b 28
        E 32 b0 0b 20
        E 16 b0 0b 18
        E 0 80 2f 00
        E 0 90 1d 18
        E 16 b0 0b 10
        E 16 b0 0b 08
        E 32 80 1d 00
        E 16 b0 0b 30
        E 0 90 33 30
        E 16 b0 0b 28
        E 32 b0 0b 20
        E 16 b0 0b 18
        E 0 80 33 00
        E 0 90 2f 18
        E 16 b0 0b 10
        E 32 b0 0b 08
        E 16 b0 0b 30
        E 0 80 2f 00
        E 0 90 36 30
        E 16 b0 0b 28
        E 32 b0 0b 20
        E 16 b0 0b 18
        E 0 80 36 00
        E 0 90 33 18
        E 16 b0 0b 10
        E 32 b0 0b 08
        E 16 b0 0b 30
        E 0 80 33 00
        E 0 90 39 30
        E 16 b0 0b 28
        E 16 b0 0b 20
        E 32 b0 0b 18
        E 16 80 39 00
        E 0 90 36 18
        E 16 b0 0b 10
        E 32 b0 0b 08
        E 16 b0 0b 30
        E 0 80 36 00
        E 0 90 3b 30
        E 16 b0 0b 28
        E 32 b0 0b 20
        E 16 b0 0b 18
        E 0 80 3b 00
        E 0 90 39 18
        E 16 b0 0b 10
        E 32 b0 0b 08
        E 16 b0 0b 30
        E 0 80 39 00
        E 0 90 3f 30
        E 16 b0 0b 28
        E 32 b0 0b 20
        E 16 b0 0b 18
        E 0 80 3f 00
        E 0 90 3b 18
        E 16 b0 0b 10
        E 16 b0 0b 08
        E 32 80 3b 00
        E 16 b0 0b 30
        E 0 90 42 30
        E 16 b0 0b 28
        E 32 b0 0b 20
        E 16 b0 0b 18
        E 0 80 42 00
        E 0 90 3f 18
        E 16 b0 0b 10
        E 32 b0 0b 08
        E 16 b0 0b 30
        E 0 80 3f 00
        E 0 90 45 30
        E 16 b0 0b 28
        E 32 b0 0b 20
        E 16 b0 0b 18
        E 0 80 45 00
        E 0 90 42 18
        E 64 80 42 00
        E 4304 b0 0c 10
        E 0 b0 0b 20
        E 0 90 34 20
        E 16 b0 0b 18
        E 32 b0 0b 10
        E 32 b0 0b 08
        E 32 80 34 00
        E 16 b0 0b 18
        E 0 90 34 18
        E 16 b0 0b 10
        E 16 b0 0b 08
        E 32 80 34 00
        E 80 b0 0b 10
        E 0 90 34 10
        E 48 b0 0b 08
        E 64 80 34 00
        E 16 90 34 08
        E 80 80 34 00
        E 64 b0 0b 20
        E 0 90 34 20
        E 16 b0 0b 18
        E 32 b0 0b 10
        E 32 b0 0b 08
        E 32 80 34 00
        E 16 b0 0b 18
        E 0 90 34 18
        E 16 b0 0b 10
        E 32 b0 0b 08
        E 32 80 34 00
        E 48 b0 0b 10
        E 0 90 34 10
        E 48 b0 0b 08
        E 48 80 34 00
        E 48 90 34 08
        E 80 80 34 00
        E 48 b0 0b 20
        E 0 90 34 20
        E 16 b0 0b 18
        E 32 b0 0b 10
        E 32 b0 0b 08
        E 32 80 34 00
        E 32 b0 0b 18
        E 0 90 34 18
        E 16 b0 0b 10
        E 32 b0 0b 08
        E 32 80 34 00
        E 48 b0 0b 10
        E 0 90 34 10
        E 48 b0 0b 08
        E 64 80 34 00
        E 16 90 34 08
        E 64 80 34 00
        E 80 b0 0b 20
        E 0 90 34 20
        E 16 b0 0b 18
        E 32 b0 0b 10
        E 32 b0 0b 08
        E 32 80 34 00
        E 16 b0 0b 18
        E 0 90 34 18
        E 16 b0 0b 10
        E 32 b0 0b 08
        E 32 80 34 00
        E 64 b0 0b 10
        E 0 90 34 10
        E 48 b0 0b 08
        E 64 80 34 00
        E 16 90 34 08
        E 80 80 34 00
        E 48 b0 0b 20
        E 0 90 34 20
        E 16 b0 0b 18
        E 32 b0 0b 10
        E 16 b0 0b 08
        E 32 80 34 00
        E 48 b0 0b 18
        E 0 90 34 18
        E 16 b0 0b 10
        E 32 b0 0b 08
        E 32 80 34 00
        E 48 b0 0b 10
        E 0 90 34 10
        E 48 b0 0b 08
        E 64 80 34 00
        E 32 90 34 08
        E 80 80 34 00
        E 48 b0 0b 20
        E 0 90 34 20
        E 16 b0 0b 18
        E 32 b0 0b 10
        E 32 b0 0b 08
        E 32 80 34 00
        E 16 b0 0b 18
        E 0 90 34 18
        E 16 b0 0b 10
        E 32 b0 0b 08
        E 32 80 34 00
        E 64 b0 0b 10
        E 0 90 34 10
        E 48 b0 0b 08
        E 64 80 34 00
        E 16 90 34 08
        E 80 80 34 00
        E 48 b0 0b 20
        E 0 90 34 20
        E 16 b0 0b 18
        E 16 b0 0b 10
        E 32 b0 0b 08
        E 32 80 34 00
        E 48 b0 0b 18
        E 0 90 34 18
        E 16 b0 0b 10
        E 32 b0 0b 08
        E 32 80 34 00
        E 48 b0 0b 10
        E 0 90 34 10
        E 48 b0 0b 08
        E 48 80 34 00
        E 48 90 34 08
        E 80 80 34 00
        E 48 b0 0b 20
        E 0 90 34 20
        E 16 b0 0b 18
        E 32 b0 0b 10
        E 32 b0 0b 08
        E 32 80 34 00
        E 16 b0 0b 18
        E 0 90 34 18
        E 16 b0 0b 10
        E 16 b0 0b 08
        E 32 80 34 00
        E 80 b0 0b 10
        E 0 90 34 10
        E 48 b0 0b 08
        E 64 80 34 00
        E 16 90 34 08
        E 80 80 34 00
        E 64 b0 0c 40
        E 0 b0 0b 38
        E 0 90 28 38
        E 16 b0 0b 30
        E 32 b0 0b 28
        E 32 b0 0b 20
        E 32 b0 0b 18
        E 16 b0 0b 20
        E 16 b0 0b 18
        E 32 b0 0b 10
        E 32 b0 0b 08
        E 32 80 28 00
        E 16 b0 0b 10
        E 0 90 28 10
        E 32 b0 0b 08
        E 64 80 28 00
        E 48 90 28 08
        E 80 80 28 00
        E 48 b0 0b 38
        E 0 90 28 38
        E 16 b0 0b 30
        E 32 b0 0b 28
        E 32 b0 0b 20
        E 32 b0 0b 18
        E 16 b0 0b 10
        E 16 b0 0b 38
        E 0 80 28 00
        E 0 90 26 38
        E 16 b0 0b 30
        E 32 b0 0b 28
        E 32 b0 0b 20
        E 32 b0 0b 18
        E 16 b0 0b 20
        E 16 b0 0b 18
        E 32 b0 0b 10
        E 32 b0 0b 08
        E 32 80 26 00
        E 16 b0 0b 10
        E 0 90 26 10
        E 48 b0 0b 08
        E 48 80 26 00
        E 48 b0 0b 58
        E 0 90 28 58
        E 16 b0 0b 50
        E 32 b0 0b 48
        E 32 b0 0b 40
        E 32 b0 0b 38
        E 32 b0 0b 30
        E 32 b0 0b 28
        E 32 b0 0b 20
        E 32 b0 0b 18
        E 16 b0 0b 10
        E 16 80 28 00
        E 0 90 33 10
        E 144 b0 0b 18
        E 160 b0 0b 20
        E 16 80 33 00
        E 0 90 34 20
        E 128 b0 0b 28
        E 160 b0 0b 30
        E 144 b0 0b 38
        E 48 b0 0c 60
        E 0 b0 0b 30
        E 0 80 34 00
        E 0 90 2d 30
        E 128 80 2d 00
        E 0 90 37 30
        E 16 b0 0b 28
        E 32 b0 0b 20
        E 16 b0 0b 18
        E 32 b0 0b 10
        E 32 b0 0b 08
        E 16 b0 0b 30
        E 16 b0 0b 28
        E 32 b0 0b 20
        E 32 b0 0b 18
        E 32 b0 0b 10
        E 16 b0 0b 30
        E 0 80 37 00
        E 0 90 2d 30
        E 16 b0 0b 28
        E 32 b0 0b 20
        E 32 b0 0b 18
        E 32 b0 0b 10
        E 16 b0 0b 30
        E 0 80 2d 00
        E 0 90 34 30
        E 16 b0 0b 28
        E 16 b0 0b 20
        E 32 b0 0b 18
        E 32 b0 0b 10
        E 32 b0 0b 08
        E 16 b0 0b 30
        E 0 80 34 00
        E 0 90 2d 30
        E 16 b0 0b 28
        E 32 b0 0b 20
        E 32 b0 0b 18
        E 32 b0 0b 10
        E 16 b0 0b 30
        E 0 80 2d 00
        E 0 90 34 30
        E 16 b0 0b 28
        E 32 b0 0b 20
        E 32 b0 0b 18
        E 16 b0 0b 10
        E 32 b0 0b 08
        E 16 b0 0b 30
        E 16 b0 0b 28
        E 32 b0 0b 20
        E 32 b0 0b 18
        E 32 b0 0b 10
        E 16 b0 0b 30
        E 0 80 34 00
        E 0 90 2d 30
        E 16 b0 0b 28
        E 32 b0 0b 20
        E 32 b0 0b 18
        E 32 b0 0b 10
        E 16 b0 0b 30
        E 0 80 2d 00
        E 0 90 37 30
        E 16 b0 0b 28
        E 16 b0 0b 20
        E 32 b0 0b 18
        E 32 b0 0b 10
        E 32 b0 0b 08
        E 16 b0 0b 30
        E 16 b0 0b 28
        E 32 b0 0b 20
        E 32 b0 0b 18
        E 32 b0 0b 10
        E 16 b0 0b 30
        E 0 80 37 00
        E 0 90 2d 30
        E 16 b0 0b 28
        E 32 b0 0b 20
        E 32 b0 0b 18
        E 16 b0 0b 10
        E 32 b0 0b 08
        E 16 b0 0b 30
        E 0 80 2d 00
        E 0 90 34 30
        E 16 b0 0b 28
        E 32 b0 0b 20
        E 32 b0 0b 18
        E 32 b0 0b 10
        E 16 b0 0b 30
        E 0 80 34 00
        E 0 90 2d 30
        E 16 b0 0b 28
        E 32 b0 0b 20
        E 32 b0 0b 18
        E 32 b0 0b 10
        E 16 b0 0b 30
        E 0 80 2d 00
        E 0 90 34 30
        E 16 b0 0b 28
        E 16 b0 0b 20
        E 32 b0 0b 18
        E 32 b0 0b 10
        E 32 b0 0b 08
        E 16 b0 0b 30
        E 16 b0 0b 28
        E 32 b0 0b 20
        E 32 b0 0b 18
        E 32 b0 0b 10
        E 16 b0 0c 20
        E 0 b0 0b 38
        E 0 80 34 00
        E 0 90 23 38
        E 16 b0 0b 30
        E 32 b0 0b 28
        E 32 b0 0b 20
        E 16 b0 0b 18
        E 32 b0 0b 10
        E 32 b0 0b 08
        E 32 80 23 00
        E 80 b0 0b 38
        E 0 90 23 38
        E 16 b0 0b 30
        E 32 b0 0b 28
        E 32 b0 0b 20
        E 32 b0 0b 18
        E 32 b0 0b 10
        E 32 b0 0b 08
        E 16 80 23 00
        E 80 b0 0b 38
        E 0 90 23 38
        E 16 b0 0b 30
        E 32 b0 0b 28
        E 32 b0 0b 20
        E 32 b0 0b 18
        E 16 b0 0b 38
        E 0 80 23 00
        E 0 90 21 38
        E 48 b0 0b 30
        E 64 b0 0b 28
        E 48 b0 0b 20
        E 64 b0 0b 18
        E 48 b0 0b 38
        E 0 80 21 00
        E 0 90 23 38
        E 16 b0 0b 30
        E 32 b0 0b 28
        E 32 b0 0b 20
        E 32 b0 0b 18
        E 32 b0 0b 10
        E 32 b0 0b 08
        E 16 80 23 00
        E 80 b0 0b 38
        E 0 90 23 38
        E 16 b0 0b 30
        E 32 b0 0b 28
        E 32 b0 0b 20
        E 32 b0 0b 18
        E 16 b0 0b 38
        E 16 b0 0b 30
        E 32 b0 0b 28
        E 32 b0 0b 20
        E 32 b0 0b 18
        E 16 b0 0b 10
        E 32 b0 0b 08
        E 32 80 23 00
        E 80 b0 0b 38
        E 0 90 23 38
        E 16 b0 0b 30
        E 32 b0 0b 28
        E 32 b0 0b 20
        E 32 b0 0b 18
        E 16 b0 0b 38
        E 0 80 23 00
        E 0 90 26 38
        E 48 b0 0b 30
        E 48 b0 0b 28
        E 64 b0 0b 20
        E 64 b0 0b 18
        E 64 b0 0b 10
        E 64 b0 0b 08
        E 48 80 26 00
        E 16 b0 0b 38
        E 0 90 23 38
        E 16 b0 0b 30
        E 32 b0 0b 28
        E 32 b0 0b 20
        E 32 b0 0b 18
        E 32 b0 0b 10
        E 32 b0 0b 08
        E 32 80 23 00
        E 48 b0 0b 38
        E 0 90 23 38
        E 16 b0 0b 30
        E 32 b0 0b 28
        E 32 b0 0b 20
        E 16 b0 0b 18
        E 32 b0 0b 10
        E 32 b0 0b 08
        E 32 80 23 00
        E 80 b0 0b 38
        E 0 90 23 38
        E 16 b0 0b 30
        E 32 b0 0b 28
        E 32 b0 0b 20
        E 32 b0 0b 18
        E 16 b0 0b 38
        E 0 80 23 00
        E 0 90 21 38
        E 32 b0 0b 30
        E 64 b0 0b 28
        E 64 b0 0b 20
        E 64 b0 0b 18
        E 48 b0 0b 38
        E 0 80 21 00
        E 0 90 23 38
        E 16 b0 0b 30
        E 32 b0 0b 28
        E 32 b0 0b 20
        E 16 b0 0b 18
        E 32 b0 0b 10
        E 32 b0 0b 08
        E 32 80 23 00
        E 80 b0 0b 38
        E 0 90 23 38
        E 16 b0 0b 30
        E 32 b0 0b 28
        E 32 b0 0b 20
        E 32 b0 0b 18
        E 16 b0 0b 38
        E 16 b0 0b 30
        E 16 b0 0b 28
        E 32 b0 0b 20
        E 32 b0 0b 18
        E 32 b0 0b 10
        E 32 b0 0b 08
        E 32 80 23 00
        E 80 b0 0b 38
        E 0 90 23 38
        E 16 b0 0b 30
        E 32 b0 0b 28
        E 32 b0 0b 20
        E 16 b0 0b 18
        E 32 b0 0b 10
        E 16 b0 0b 38
        E 0 80 23 00
        E 0 90 26 38
        E 48 b0 0b 30
        E 64 b0 0b 28
        E 64 b0 0b 20
        E 64 b0 0b 18
        E 48 b0 0b 10
        E 64 b0 0b 08
        E 48 b0 0c 60
        E 0 b0 0b 30
        E 0 80 26 00
        E 0 90 2d 30
        E 16 b0 0b 28
        E 64 b0 0b 20
        E 48 b0 0b 30
        E 0 80 2d 00
        E 0 90 37 30
        E 16 b0 0b 28
        E 32 b0 0b 20
        E 32 b0 0b 18
        E 32 b0 0b 10
        E 16 b0 0b 08
        E 16 b0 0b 30
        E 16 b0 0b 28
        E 32 b0 0b 20
        E 32 b0 0b 18
        E 32 b0 0b 10
        E 16 b0 0b 30
        E 0 80 37 00
        E 0 90 2d 30
        E 16 b0 0b 28
        E 32 b0 0b 20
        E 32 b0 0b 18
        E 32 b0 0b 10
        E 16 b0 0b 30
        E 0 80 2d 00
        E 0 90 34 30
        E 16 b0 0b 28
        E 32 b0 0b 20
        E 16 b0 0b 18
        E 32 b0 0b 10
        E 32 b0 0b 08
        E 16 b0 0b 30
        E 0 80 34 00
        E 0 90 2d 30
        E 16 b0 0b 28
        E 32 b0 0b 20
        E 32 b0 0b 18
        E 32 b0 0b 10
        E 16 b0 0b 30
        E 0 80 2d 00
        E 0 90 34 30
        E 16 b0 0b 28
        E 32 b0 0b 20
        E 32 b0 0b 18
        E 32 b0 0b 10
        E 16 b0 0b 08
        E 16 b0 0b 30
        E 16 b0 0b 28
        E 32 b0 0b 20
        E 32 b0 0b 18
        E 32 b0 0b 10
        E 16 b0 0b 30
        E 0 80 34 00
        E 0 90 2d 30
        E 16 b0 0b 28
        E 32 b0 0b 20
        E 32 b0 0b 18
        E 32 b0 0b 10
        E 16 b0 0b 30
        E 0 80 2d 00
        E 0 90 37 30
        E 16 b0 0b 28
        E 32 b0 0b 20
        E 16 b0 0b 18
        E 32 b0 0b 10
        E 32 b0 0b 08
        E 16 b0 0b 30
        E 16 b0 0b 28
        E 32 b0 0b 20
        E 32 b0 0b 18
        E 32 b0 0b 10
        E 16 b0 0b 30
        E 0 80 37 00
        E 0 90 2d 30
        E 16 b0 0b 28
        E 32 b0 0b 20
        E 32 b0 0b 18
        E 32 b0 0b 10
        E 16 b0 0b 08
        E 16 b0 0b 30
        E 0 80 2d 00
        E 0 90 34 30
        E 16 b0 0b 28
        E 32 b0 0b 20
        E 32 b0 0b 18
        E 32 b0 0b 10
        E 16 b0 0b 30
        E 0 80 34 00
        E 0 90 2d 30
        E 16 b0 0b 28
        E 32 b0 0b 20
        E 32 b0 0b 18
        E 32 b0 0b 10
        E 16 b0 0b 30
        E 0 80 2d 00
        E 0 90 34 30
        E 16 b0 0b 28
        E 32 b0 0b 20
        E 16 b0 0b 18
        E 32 b0 0b 10
        E 32 b0 0b 08
        E 16 b0 0b 30
        E 16 b0 0b 28
        E 32 b0 0b 20
        E 32 b0 0b 18
        E 32 b0 0b 10
        E 16 b0 0c 10
        E 0 b0 0b 38
        E 0 80 34 00
        E 0 90 2f 38
        E 16 b0 0b 30
        E 32 b0 0b 28
        E 32 b0 0b 20
        E 32 b0 0b 18
        E 16 b0 0b 20
        E 144 b0 0b 38
        E 0 80 2f 00
        E 0 90 36 38
        E 144 b0 0b 30
        E 32 b0 0b 28
        E 32 b0 0b 20
        E 16 b0 0b 18
        E 32 b0 0b 10
        E 16 b0 0b 20
        E 128 b0 0b 38
        E 0 80 36 00
        E 0 90 37 38
        E 16 b0 0b 30
        E 32 b0 0b 28
        E 32 b0 0b 20
        E 32 b0 0b 18
        E 16 b0 0b 20
        E 16 b0 0b 18
        E 16 b0 0b 10
        E 32 b0 0b 08
        E 32 80 37 00
        E 48 b0 0b 38
        E 0 90 39 38
        E 16 b0 0b 30
        E 32 b0 0b 28
        E 32 b0 0b 20
        E 32 b0 0b 18
        E 16 b0 0b 20
        E 16 b0 0b 18
        E 32 b0 0b 10
        E 32 b0 0b 08
        E 16 80 39 00
        E 48 b0 0b 10
        E 0 90 39 10
        E 128 b0 0b 38
        E 272 b0 0b 20
        E 128 b0 0b 38
        E 144 b0 0b 20
        E 128 b0 0b 10
        E 128 80 39 00
        E 0 ff 2f 00
      >
    >
  >
  <TRACK {7D977B2A-06F4-4BEA-8B91-05F1429BE724}
    NAME "NES - Pulse 2 [ch1]"
    PEAKCOL 10092441
    BEAT -1
    AUTOMODE 0
    PANLAWFLAGS 3
    VOLPAN 1 0 -1 -1 1
    MUTESOLO 0 0 0
    IPHASE 0
    PLAYOFFS 0 1
    ISBUS 0 0
    BUSCOMP 0 0 0 0 0
    SHOWINMIX 1 0.6667 0.5 1 0.5 0 0 0
    FIXEDLANES 9 0 0 0 0
    SEL 0
    REC 0 5088 1 0 0 0 0 0
    VU 2
    TRACKHEIGHT 0 0 0 0 0 0 0
    INQ 0 0 0 0.5 100 0 0 100
    NCHAN 2
    FX 1
    TRACKID {7D977B2A-06F4-4BEA-8B91-05F1429BE724}
    PERF 0
    MIDIOUT -1
    MAINSEND 1 0
    <FXCHAIN
      WNDRECT 24 52 700 560
      SHOW 0
      LASTSEL 0
      DOCKED 0
      BYPASS 0 0 0
      <JS "ReapNES Studio/ReapNES_Console.jsfx" ""
        2 15 1 10 80 10 100 2 1 15 1 5 60 10 80 1 1 0 50 0 0 15 1 0 100 0 0 0.500000 0.500000 0.400000 0.300000 0.800000 1 1 0 0 0 0 - - - - - - - - - - - - - - - - - - - - - - - - - -
      >
      FLOATPOS 0 0 0 0
      FXID {9BA7A63A-6797-49EF-A29A-93C47E2C0E27}
      WAK 0 0
    >
    <ITEM
      POSITION 0
      LENGTH 83.98134
      LOOP 0
      ALLTAKES 0
      FADEIN 0 0 0 0 0 0 0
      FADEOUT 0 0 0 0 0 0 0
      MUTE 0 0
      SEL 0
      IGUID {1C814B2E-4570-4A2B-BC6C-6C99013E02A2}
      <SOURCE MIDI
        HASDATA 1 480 QN
        CCINTERP 32
        E 0 c1 51
        E 64 b1 0c 20
        E 0 b1 0b 30
        E 0 91 1c 30
        E 80 b1 0b 28
        E 32 b1 0b 20
        E 32 b1 0b 18
        E 32 b1 0b 10
        E 32 b1 0b 08
        E 32 81 1c 00
        E 16 b1 0b 30
        E 0 91 1c 30
        E 16 b1 0b 28
        E 16 b1 0b 20
        E 32 b1 0b 18
        E 32 b1 0b 10
        E 32 b1 0b 08
        E 32 81 1c 00
        E 112 b1 0b 30
        E 0 91 1c 30
        E 16 b1 0b 28
        E 32 b1 0b 20
        E 32 b1 0b 18
        E 16 b1 0b 10
        E 32 b1 0b 08
        E 16 b1 0b 30
        E 0 81 1c 00
        E 0 91 1a 30
        E 48 b1 0b 28
        E 64 b1 0b 20
        E 64 b1 0b 18
        E 64 b1 0b 10
        E 16 b1 0b 30
        E 0 81 1a 00
        E 0 91 1c 30
        E 16 b1 0b 28
        E 16 b1 0b 20
        E 32 b1 0b 18
        E 32 b1 0b 10
        E 32 b1 0b 08
        E 32 81 1c 00
        E 112 b1 0b 30
        E 0 91 1c 30
        E 16 b1 0b 28
        E 32 b1 0b 20
        E 32 b1 0b 18
        E 16 b1 0b 10
        E 32 b1 0b 08
        E 16 b1 0b 30
        E 16 b1 0b 28
        E 32 b1 0b 20
        E 32 b1 0b 18
        E 32 b1 0b 10
        E 32 b1 0b 08
        E 32 81 1c 00
        E 80 b1 0b 30
        E 0 91 1c 30
        E 16 b1 0b 28
        E 16 b1 0b 20
        E 32 b1 0b 18
        E 32 b1 0b 10
        E 32 b1 0b 08
        E 16 b1 0b 30
        E 0 81 1c 00
        E 0 91 1f 30
        E 48 b1 0b 28
        E 64 b1 0b 20
        E 64 b1 0b 18
        E 64 b1 0b 10
        E 48 b1 0b 08
        E 64 81 1f 00
        E 48 b1 0b 30
        E 0 91 1c 30
        E 16 b1 0b 28
        E 32 b1 0b 20
        E 32 b1 0b 18
        E 32 b1 0b 10
        E 32 b1 0b 08
        E 32 81 1c 00
        E 96 b1 0b 30
        E 0 91 1c 30
        E 16 b1 0b 28
        E 32 b1 0b 20
        E 32 b1 0b 18
        E 32 b1 0b 10
        E 32 b1 0b 08
        E 32 81 1c 00
        E 96 b1 0b 30
        E 0 91 1c 30
        E 16 b1 0b 28
        E 32 b1 0b 20
        E 32 b1 0b 18
        E 32 b1 0b 10
        E 16 b1 0b 30
        E 0 81 1c 00
        E 0 91 1a 30
        E 48 b1 0b 28
        E 64 b1 0b 20
        E 64 b1 0b 18
        E 48 b1 0b 10
        E 48 b1 0b 30
        E 0 81 1a 00
        E 0 91 1c 30
        E 16 b1 0b 28
        E 32 b1 0b 20
        E 32 b1 0b 18
        E 32 b1 0b 10
        E 32 b1 0b 08
        E 32 81 1c 00
        E 96 b1 0b 30
        E 0 91 1c 30
        E 16 b1 0b 28
        E 32 b1 0b 20
        E 32 b1 0b 18
        E 32 b1 0b 10
        E 16 b1 0b 30
        E 16 b1 0b 28
        E 32 b1 0b 20
        E 32 b1 0b 18
        E 32 b1 0b 10
        E 32 b1 0b 08
        E 32 81 1c 00
        E 96 b1 0b 30
        E 0 91 1c 30
        E 16 b1 0b 28
        E 32 b1 0b 20
        E 32 b1 0b 18
        E 32 b1 0b 10
        E 16 b1 0b 30
        E 0 81 1c 00
        E 0 91 1f 30
        E 48 b1 0b 28
        E 64 b1 0b 20
        E 48 b1 0b 18
        E 64 b1 0b 10
        E 64 b1 0b 08
        E 64 81 1f 00
        E 48 b1 0b 30
        E 0 91 1c 30
        E 16 b1 0b 28
        E 32 b1 0b 20
        E 32 b1 0b 18
        E 16 b1 0b 10
        E 32 b1 0b 08
        E 32 81 1c 00
        E 112 b1 0b 30
        E 0 91 1c 30
        E 16 b1 0b 28
        E 32 b1 0b 20
        E 32 b1 0b 18
        E 32 b1 0b 10
        E 32 b1 0b 08
        E 16 81 1c 00
        E 112 b1 0b 30
        E 0 91 1c 30
        E 16 b1 0b 28
        E 32 b1 0b 20
        E 32 b1 0b 18
        E 32 b1 0b 10
        E 16 b1 0b 30
        E 0 81 1c 00
        E 0 91 1a 30
        E 48 b1 0b 28
        E 48 b1 0b 20
        E 64 b1 0b 18
        E 64 b1 0b 10
        E 48 b1 0b 30
        E 0 81 1a 00
        E 0 91 1c 30
        E 16 b1 0b 28
        E 32 b1 0b 20
        E 32 b1 0b 18
        E 32 b1 0b 10
        E 32 b1 0b 08
        E 16 81 1c 00
        E 112 b1 0b 30
        E 0 91 1c 30
        E 16 b1 0b 28
        E 32 b1 0b 20
        E 32 b1 0b 18
        E 32 b1 0b 10
        E 16 b1 0b 30
        E 16 b1 0b 28
        E 32 b1 0b 20
        E 32 b1 0b 18
        E 16 b1 0b 10
        E 32 b1 0b 08
        E 32 81 1c 00
        E 112 b1 0b 30
        E 0 91 1c 30
        E 16 b1 0b 28
        E 32 b1 0b 20
        E 32 b1 0b 18
        E 32 b1 0b 10
        E 16 b1 0b 30
        E 0 81 1c 00
        E 0 91 1f 30
        E 48 b1 0b 28
        E 48 b1 0b 20
        E 64 b1 0b 18
        E 64 b1 0b 10
        E 64 b1 0b 08
        E 64 81 1f 00
        E 64 b1 0b 30
        E 0 91 1c 30
        E 16 b1 0b 28
        E 32 b1 0b 20
        E 32 b1 0b 18
        E 32 b1 0b 10
        E 32 b1 0b 08
        E 32 81 1c 00
        E 80 b1 0b 30
        E 0 91 1c 30
        E 16 b1 0b 28
        E 32 b1 0b 20
        E 16 b1 0b 18
        E 32 b1 0b 10
        E 32 b1 0b 08
        E 32 81 1c 00
        E 112 b1 0b 30
        E 0 91 1c 30
        E 16 b1 0b 28
        E 32 b1 0b 20
        E 32 b1 0b 18
        E 32 b1 0b 10
        E 16 b1 0b 08
        E 16 b1 0b 30
        E 0 81 1c 00
        E 0 91 1a 30
        E 48 b1 0b 28
        E 64 b1 0b 20
        E 64 b1 0b 18
        E 64 b1 0b 10
        E 16 b1 0b 30
        E 0 81 1a 00
        E 0 91 1c 30
        E 16 b1 0b 28
        E 32 b1 0b 20
        E 16 b1 0b 18
        E 32 b1 0b 10
        E 32 b1 0b 08
        E 32 81 1c 00
        E 112 b1 0b 30
        E 0 91 1c 30
        E 16 b1 0b 28
        E 32 b1 0b 20
        E 32 b1 0b 18
        E 32 b1 0b 10
        E 16 b1 0b 08
        E 16 b1 0b 30
        E 16 b1 0b 28
        E 32 b1 0b 20
        E 32 b1 0b 18
        E 32 b1 0b 10
        E 32 b1 0b 08
        E 32 81 1c 00
        E 80 b1 0b 30
        E 0 91 1c 30
        E 16 b1 0b 28
        E 32 b1 0b 20
        E 32 b1 0b 18
        E 16 b1 0b 10
        E 32 b1 0b 08
        E 16 b1 0b 30
        E 0 81 1c 00
        E 0 91 1f 30
        E 48 b1 0b 28
        E 64 b1 0b 20
        E 64 b1 0b 18
        E 64 b1 0b 10
        E 48 b1 0b 08
        E 64 81 1f 00
        E 48 b1 0c 40
        E 0 b1 0b 38
        E 0 91 23 38
        E 16 b1 0b 30
        E 32 b1 0b 28
        E 32 b1 0b 20
        E 32 b1 0b 18
        E 16 b1 0b 20
        E 16 b1 0b 18
        E 32 b1 0b 10
        E 32 b1 0b 08
        E 16 81 23 00
        E 48 b1 0b 10
        E 0 91 23 10
        E 48 b1 0b 08
        E 64 81 23 00
        E 16 91 23 08
        E 80 81 23 00
        E 48 b1 0b 38
        E 0 91 23 38
        E 16 b1 0b 30
        E 16 b1 0b 28
        E 32 b1 0b 20
        E 32 b1 0b 18
        E 32 b1 0b 10
        E 16 b1 0b 38
        E 0 81 23 00
        E 0 91 21 38
        E 16 b1 0b 30
        E 32 b1 0b 28
        E 32 b1 0b 20
        E 32 b1 0b 18
        E 16 b1 0b 20
        E 16 b1 0b 18
        E 32 b1 0b 10
        E 32 b1 0b 08
        E 16 81 21 00
        E 48 b1 0b 10
        E 0 91 21 10
        E 48 b1 0b 08
        E 64 81 21 00
        E 16 b1 0b 58
        E 0 91 23 58
        E 16 b1 0b 50
        E 32 b1 0b 48
        E 32 b1 0b 40
        E 32 b1 0b 38
        E 32 b1 0b 30
        E 16 b1 0b 28
        E 32 b1 0b 20
        E 32 b1 0b 18
        E 32 b1 0b 10
        E 16 81 23 00
        E 0 91 2d 10
        E 144 b1 0b 18
        E 144 b1 0b 20
        E 160 b1 0b 28
        E 32 81 2d 00
        E 0 91 2e 28
        E 112 b1 0b 30
        E 160 b1 0b 38
        E 48 b1 0c 60
        E 0 b1 0b 30
        E 0 81 2e 00
        E 0 91 21 30
        E 128 b1 0b 38
        E 16 b1 0b 30
        E 0 81 21 00
        E 0 91 34 30
        E 16 b1 0b 28
        E 32 b1 0b 20
        E 32 b1 0b 18
        E 32 b1 0b 10
        E 16 b1 0b 30
        E 16 b1 0b 28
        E 32 b1 0b 20
        E 32 b1 0b 18
        E 32 b1 0b 10
        E 16 b1 0b 30
        E 0 81 34 00
        E 0 91 21 30
        E 16 b1 0b 28
        E 32 b1 0b 20
        E 16 b1 0b 18
        E 32 b1 0b 10
        E 32 b1 0b 08
        E 16 b1 0b 30
        E 0 81 21 00
        E 0 91 30 30
        E 16 b1 0b 28
        E 32 b1 0b 20
        E 32 b1 0b 18
        E 32 b1 0b 10
        E 16 b1 0b 30
        E 0 81 30 00
        E 0 91 21 30
        E 16 b1 0b 28
        E 32 b1 0b 20
        E 32 b1 0b 18
        E 32 b1 0b 10
        E 16 b1 0b 08
        E 16 b1 0b 30
        E 0 81 21 00
        E 0 91 30 30
        E 16 b1 0b 28
        E 32 b1 0b 20
        E 32 b1 0b 18
        E 32 b1 0b 10
        E 16 b1 0b 30
        E 16 b1 0b 28
        E 32 b1 0b 20
        E 32 b1 0b 18
        E 32 b1 0b 10
        E 16 b1 0b 30
        E 0 81 30 00
        E 0 91 21 30
        E 16 b1 0b 28
        E 32 b1 0b 20
        E 16 b1 0b 18
        E 32 b1 0b 10
        E 32 b1 0b 08
        E 16 b1 0b 30
        E 0 81 21 00
        E 0 91 34 30
        E 16 b1 0b 28
        E 32 b1 0b 20
        E 32 b1 0b 18
        E 32 b1 0b 10
        E 16 b1 0b 30
        E 16 b1 0b 28
        E 32 b1 0b 20
        E 32 b1 0b 18
        E 32 b1 0b 10
        E 16 b1 0b 30
        E 0 81 34 00
        E 0 91 21 30
        E 16 b1 0b 28
        E 16 b1 0b 20
        E 32 b1 0b 18
        E 32 b1 0b 10
        E 32 b1 0b 08
        E 16 b1 0b 30
        E 0 81 21 00
        E 0 91 30 30
        E 16 b1 0b 28
        E 32 b1 0b 20
        E 32 b1 0b 18
        E 32 b1 0b 10
        E 16 b1 0b 30
        E 0 81 30 00
        E 0 91 21 30
        E 16 b1 0b 28
        E 32 b1 0b 20
        E 32 b1 0b 18
        E 16 b1 0b 10
        E 32 b1 0b 08
        E 16 b1 0b 30
        E 0 81 21 00
        E 0 91 30 30
        E 16 b1 0b 28
        E 32 b1 0b 20
        E 32 b1 0b 18
        E 32 b1 0b 10
        E 16 b1 0b 30
        E 16 b1 0b 28
        E 32 b1 0b 20
        E 32 b1 0b 18
        E 32 b1 0b 10
        E 16 b1 0c 20
        E 0 b1 0b 38
        E 0 81 30 00
        E 0 91 1c 38
        E 16 b1 0b 30
        E 16 b1 0b 28
        E 32 b1 0b 20
        E 32 b1 0b 18
        E 32 b1 0b 10
        E 32 b1 0b 08
        E 32 81 1c 00
        E 80 b1 0b 38
        E 0 91 1c 38
        E 16 b1 0b 30
        E 32 b1 0b 28
        E 32 b1 0b 20
        E 16 b1 0b 18
        E 32 b1 0b 10
        E 32 b1 0b 08
        E 32 81 1c 00
        E 80 b1 0b 38
        E 0 91 1c 38
        E 16 b1 0b 30
        E 32 b1 0b 28
        E 32 b1 0b 20
        E 32 b1 0b 18
        E 16 b1 0b 38
        E 0 81 1c 00
        E 0 91 1a 38
        E 32 b1 0b 30
        E 64 b1 0b 28
        E 64 b1 0b 20
        E 64 b1 0b 18
        E 48 b1 0b 38
        E 0 81 1a 00
        E 0 91 1c 38
        E 16 b1 0b 30
        E 32 b1 0b 28
        E 32 b1 0b 20
        E 16 b1 0b 18
        E 32 b1 0b 10
        E 32 b1 0b 08
        E 32 81 1c 00
        E 80 b1 0b 38
        E 0 91 1c 38
        E 16 b1 0b 30
        E 32 b1 0b 28
        E 32 b1 0b 20
        E 32 b1 0b 18
        E 16 b1 0b 38
        E 16 b1 0b 30
        E 32 b1 0b 28
        E 16 b1 0b 20
        E 32 b1 0b 18
        E 32 b1 0b 10
        E 32 b1 0b 08
        E 32 81 1c 00
        E 80 b1 0b 38
        E 0 91 1c 38
        E 16 b1 0b 30
        E 32 b1 0b 28
        E 32 b1 0b 20
        E 32 b1 0b 18
        E 16 b1 0b 10
        E 16 b1 0b 38
        E 0 81 1c 00
        E 0 91 1f 38
        E 48 b1 0b 30
        E 64 b1 0b 28
        E 64 b1 0b 20
        E 64 b1 0b 18
        E 64 b1 0b 10
        E 48 b1 0b 08
        E 48 b1 0b 38
        E 0 81 1f 00
        E 0 91 1c 38
        E 16 b1 0b 30
        E 32 b1 0b 28
        E 32 b1 0b 20
        E 32 b1 0b 18
        E 32 b1 0b 10
        E 32 b1 0b 08
        E 32 81 1c 00
        E 64 b1 0b 38
        E 0 91 1c 38
        E 16 b1 0b 30
        E 32 b1 0b 28
        E 32 b1 0b 20
        E 32 b1 0b 18
        E 32 b1 0b 10
        E 32 b1 0b 08
        E 32 81 1c 00
        E 48 b1 0b 38
        E 0 91 1c 38
        E 16 b1 0b 30
        E 32 b1 0b 28
        E 16 b1 0b 20
        E 32 b1 0b 18
        E 32 b1 0b 10
        E 16 b1 0b 38
        E 0 81 1c 00
        E 0 91 1a 38
        E 48 b1 0b 30
        E 64 b1 0b 28
        E 64 b1 0b 20
        E 64 b1 0b 18
        E 32 b1 0b 38
        E 0 81 1a 00
        E 0 91 1c 38
        E 16 b1 0b 30
        E 32 b1 0b 28
        E 32 b1 0b 20
        E 32 b1 0b 18
        E 32 b1 0b 10
        E 32 b1 0b 08
        E 32 81 1c 00
        E 48 b1 0b 38
        E 0 91 1c 38
        E 16 b1 0b 30
        E 32 b1 0b 28
        E 32 b1 0b 20
        E 16 b1 0b 18
        E 32 b1 0b 10
        E 16 b1 0b 38
        E 16 b1 0b 30
        E 32 b1 0b 28
        E 32 b1 0b 20
        E 32 b1 0b 18
        E 32 b1 0b 10
        E 32 b1 0b 08
        E 32 81 1c 00
        E 48 b1 0b 38
        E 0 91 1c 38
        E 16 b1 0b 30
        E 16 b1 0b 28
        E 32 b1 0b 20
        E 32 b1 0b 18
        E 32 b1 0b 10
        E 16 b1 0b 38
        E 0 81 1c 00
        E 0 91 1f 38
        E 48 b1 0b 30
        E 64 b1 0b 28
        E 64 b1 0b 20
        E 48 b1 0b 18
        E 64 b1 0b 10
        E 64 b1 0b 08
        E 48 b1 0c 60
        E 0 b1 0b 30
        E 0 81 1f 00
        E 0 91 21 30
        E 16 b1 0b 28
        E 64 b1 0b 20
        E 48 b1 0b 30
        E 0 81 21 00
        E 0 91 34 30
        E 16 b1 0b 28
        E 16 b1 0b 20
        E 32 b1 0b 18
        E 32 b1 0b 10
        E 32 b1 0b 08
        E 16 b1 0b 30
        E 16 b1 0b 28
        E 32 b1 0b 20
        E 32 b1 0b 18
        E 32 b1 0b 10
        E 16 b1 0b 30
        E 0 81 34 00
        E 0 91 21 30
        E 16 b1 0b 28
        E 32 b1 0b 20
        E 32 b1 0b 18
        E 16 b1 0b 10
        E 32 b1 0b 08
        E 16 b1 0b 30
        E 0 81 21 00
        E 0 91 30 30
        E 16 b1 0b 28
        E 32 b1 0b 20
        E 32 b1 0b 18
        E 32 b1 0b 10
        E 16 b1 0b 30
        E 0 81 30 00
        E 0 91 21 30
        E 16 b1 0b 28
        E 32 b1 0b 20
        E 32 b1 0b 18
        E 32 b1 0b 10
        E 16 b1 0b 30
        E 0 81 21 00
        E 0 91 30 30
        E 16 b1 0b 28
        E 16 b1 0b 20
        E 32 b1 0b 18
        E 32 b1 0b 10
        E 32 b1 0b 08
        E 16 b1 0b 30
        E 16 b1 0b 28
        E 32 b1 0b 20
        E 32 b1 0b 18
        E 32 b1 0b 10
        E 16 b1 0b 30
        E 0 81 30 00
        E 0 91 21 30
        E 16 b1 0b 28
        E 32 b1 0b 20
        E 32 b1 0b 18
        E 32 b1 0b 10
        E 16 b1 0b 08
        E 16 b1 0b 30
        E 0 81 21 00
        E 0 91 34 30
        E 16 b1 0b 28
        E 32 b1 0b 20
        E 32 b1 0b 18
        E 32 b1 0b 10
        E 16 b1 0b 30
        E 16 b1 0b 28
        E 32 b1 0b 20
        E 32 b1 0b 18
        E 32 b1 0b 10
        E 16 b1 0b 30
        E 0 81 34 00
        E 0 91 21 30
        E 16 b1 0b 28
        E 32 b1 0b 20
        E 16 b1 0b 18
        E 32 b1 0b 10
        E 32 b1 0b 08
        E 16 b1 0b 30
        E 0 81 21 00
        E 0 91 30 30
        E 16 b1 0b 28
        E 32 b1 0b 20
        E 32 b1 0b 18
        E 32 b1 0b 10
        E 16 b1 0b 30
        E 0 81 30 00
        E 0 91 21 30
        E 16 b1 0b 28
        E 32 b1 0b 20
        E 32 b1 0b 18
        E 32 b1 0b 10
        E 16 b1 0b 08
        E 16 b1 0b 30
        E 0 81 21 00
        E 0 91 30 30
        E 16 b1 0b 28
        E 32 b1 0b 20
        E 32 b1 0b 18
        E 32 b1 0b 10
        E 16 b1 0b 30
        E 16 b1 0b 28
        E 32 b1 0b 20
        E 32 b1 0b 18
        E 32 b1 0b 10
        E 16 b1 0c 10
        E 0 b1 0b 38
        E 0 81 30 00
        E 0 91 23 38
        E 16 b1 0b 30
        E 32 b1 0b 28
        E 16 b1 0b 20
        E 32 b1 0b 18
        E 32 b1 0b 10
        E 16 b1 0b 20
        E 128 b1 0b 38
        E 0 81 23 00
        E 0 91 33 38
        E 160 b1 0b 30
        E 32 b1 0b 28
        E 32 b1 0b 20
        E 32 b1 0b 18
        E 16 b1 0b 20
        E 128 b1 0b 38
        E 0 81 33 00
        E 0 91 36 38
        E 16 b1 0b 30
        E 32 b1 0b 28
        E 16 b1 0b 20
        E 32 b1 0b 18
        E 32 b1 0b 10
        E 16 b1 0b 20
        E 16 b1 0b 18
        E 32 b1 0b 10
        E 32 b1 0b 08
        E 32 81 36 00
        E 16 b1 0b 38
        E 0 91 36 38
        E 16 b1 0b 30
        E 32 b1 0b 28
        E 32 b1 0b 20
        E 32 b1 0b 18
        E 16 b1 0b 20
        E 16 b1 0b 18
        E 16 b1 0b 10
        E 32 b1 0b 08
        E 32 81 36 00
        E 48 b1 0b 10
        E 0 91 36 10
        E 128 b1 0b 38
        E 272 b1 0b 20
        E 128 b1 0b 38
        E 144 b1 0b 20
        E 128 b1 0b 10
        E 144 b1 0c 20
        E 0 b1 0b 30
        E 0 81 36 00
        E 0 91 1c 30
        E 16 b1 0b 28
        E 32 b1 0b 20
        E 32 b1 0b 18
        E 32 b1 0b 10
        E 32 b1 0b 08
        E 32 81 1c 00
        E 80 b1 0b 30
        E 0 91 1c 30
        E 16 b1 0b 28
        E 16 b1 0b 20
        E 32 b1 0b 18
        E 32 b1 0b 10
        E 32 b1 0b 08
        E 32 81 1c 00
        E 112 b1 0b 30
        E 0 91 1c 30
        E 16 b1 0b 28
        E 32 b1 0b 20
        E 32 b1 0b 18
        E 16 b1 0b 10
        E 32 b1 0b 08
        E 16 b1 0b 30
        E 0 81 1c 00
        E 0 91 1a 30
        E 48 b1 0b 28
        E 64 b1 0b 20
        E 64 b1 0b 18
        E 64 b1 0b 10
        E 16 b1 0b 30
        E 0 81 1a 00
        E 0 91 1c 30
        E 16 b1 0b 28
        E 32 b1 0b 20
        E 16 b1 0b 18
        E 32 b1 0b 10
        E 32 b1 0b 08
        E 32 81 1c 00
        E 112 b1 0b 30
        E 0 91 1c 30
        E 16 b1 0b 28
        E 32 b1 0b 20
        E 32 b1 0b 18
        E 32 b1 0b 10
        E 16 b1 0b 08
        E 16 b1 0b 30
        E 16 b1 0b 28
        E 32 b1 0b 20
        E 32 b1 0b 18
        E 32 b1 0b 10
        E 32 b1 0b 08
        E 32 81 1c 00
        E 80 b1 0b 30
        E 0 91 1c 30
        E 16 b1 0b 28
        E 32 b1 0b 20
        E 16 b1 0b 18
        E 32 b1 0b 10
        E 32 b1 0b 08
        E 16 b1 0b 30
        E 0 81 1c 00
        E 0 91 1f 30
        E 48 b1 0b 28
        E 64 b1 0b 20
        E 64 b1 0b 18
        E 64 b1 0b 10
        E 48 b1 0b 08
        E 64 81 1f 00
        E 48 b1 0b 30
        E 0 91 1c 30
        E 16 b1 0b 28
        E 32 b1 0b 20
        E 32 b1 0b 18
        E 32 b1 0b 10
        E 32 b1 0b 08
        E 32 81 1c 00
        E 96 b1 0b 30
        E 0 91 1c 30
        E 16 b1 0b 28
        E 32 b1 0b 20
        E 32 b1 0b 18
        E 32 b1 0b 10
        E 32 b1 0b 08
        E 32 81 1c 00
        E 96 b1 0b 30
        E 0 91 1c 30
        E 16 b1 0b 28
        E 32 b1 0b 20
        E 32 b1 0b 18
        E 32 b1 0b 10
        E 16 b1 0b 30
        E 0 81 1c 00
        E 0 91 1a 30
        E 48 b1 0b 28
        E 64 b1 0b 20
        E 64 b1 0b 18
        E 48 b1 0b 10
        E 48 b1 0b 30
        E 0 81 1a 00
        E 0 91 1c 30
        E 16 b1 0b 28
        E 32 b1 0b 20
        E 32 b1 0b 18
        E 32 b1 0b 10
        E 32 b1 0b 08
        E 32 81 1c 00
        E 80 b1 0b 30
        E 0 91 1c 30
        E 16 b1 0b 28
        E 16 b1 0b 20
        E 32 b1 0b 18
        E 32 b1 0b 10
        E 32 b1 0b 08
        E 16 b1 0b 30
        E 16 b1 0b 28
        E 32 b1 0b 20
        E 32 b1 0b 18
        E 32 b1 0b 10
        E 32 b1 0b 08
        E 32 81 1c 00
        E 96 b1 0b 30
        E 0 91 1c 30
        E 16 b1 0b 28
        E 32 b1 0b 20
        E 32 b1 0b 18
        E 32 b1 0b 10
        E 16 b1 0b 30
        E 0 81 1c 00
        E 0 91 1f 30
        E 48 b1 0b 28
        E 64 b1 0b 20
        E 48 b1 0b 18
        E 64 b1 0b 10
        E 64 b1 0b 08
        E 64 81 1f 00
        E 48 b1 0b 30
        E 0 91 1c 30
        E 16 b1 0b 28
        E 32 b1 0b 20
        E 32 b1 0b 18
        E 16 b1 0b 10
        E 32 b1 0b 08
        E 32 81 1c 00
        E 112 b1 0b 30
        E 0 91 1c 30
        E 16 b1 0b 28
        E 32 b1 0b 20
        E 32 b1 0b 18
        E 32 b1 0b 10
        E 32 b1 0b 08
        E 16 81 1c 00
        E 112 b1 0b 30
        E 0 91 1c 30
        E 16 b1 0b 28
        E 32 b1 0b 20
        E 32 b1 0b 18
        E 32 b1 0b 10
        E 16 b1 0b 30
        E 0 81 1c 00
        E 0 91 1a 30
        E 48 b1 0b 28
        E 64 b1 0b 20
        E 48 b1 0b 18
        E 64 b1 0b 10
        E 48 b1 0b 30
        E 0 81 1a 00
        E 0 91 1c 30
        E 16 b1 0b 28
        E 32 b1 0b 20
        E 32 b1 0b 18
        E 32 b1 0b 10
        E 32 b1 0b 08
        E 32 81 1c 00
        E 96 b1 0b 30
        E 0 91 1c 30
        E 16 b1 0b 28
        E 32 b1 0b 20
        E 32 b1 0b 18
        E 32 b1 0b 10
        E 16 b1 0b 30
        E 16 b1 0b 28
        E 32 b1 0b 20
        E 32 b1 0b 18
        E 32 b1 0b 10
        E 16 b1 0b 08
        E 32 81 1c 00
        E 112 b1 0b 30
        E 0 91 1c 30
        E 16 b1 0b 28
        E 32 b1 0b 20
        E 32 b1 0b 18
        E 32 b1 0b 10
        E 16 b1 0b 30
        E 0 81 1c 00
        E 0 91 1f 30
        E 48 b1 0b 28
        E 48 b1 0b 20
        E 64 b1 0b 18
        E 64 b1 0b 10
        E 64 b1 0b 08
        E 64 81 1f 00
        E 64 b1 0b 30
        E 0 91 1c 30
        E 16 b1 0b 28
        E 32 b1 0b 20
        E 32 b1 0b 18
        E 32 b1 0b 10
        E 32 b1 0b 08
        E 32 81 1c 00
        E 80 b1 0b 30
        E 0 91 1c 30
        E 16 b1 0b 28
        E 32 b1 0b 20
        E 16 b1 0b 18
        E 32 b1 0b 10
        E 32 b1 0b 08
        E 32 81 1c 00
        E 112 b1 0b 30
        E 0 91 1c 30
        E 16 b1 0b 28
        E 32 b1 0b 20
        E 32 b1 0b 18
        E 32 b1 0b 10
        E 16 b1 0b 30
        E 0 81 1c 00
        E 0 91 1a 30
        E 32 b1 0b 28
        E 64 b1 0b 20
        E 64 b1 0b 18
        E 64 b1 0b 10
        E 48 b1 0b 30
        E 0 81 1a 00
        E 0 91 1c 30
        E 16 b1 0b 28
        E 32 b1 0b 20
        E 32 b1 0b 18
        E 16 b1 0b 10
        E 32 b1 0b 08
        E 32 81 1c 00
        E 112 b1 0b 30
        E 0 91 1c 30
        E 16 b1 0b 28
        E 32 b1 0b 20
        E 32 b1 0b 18
        E 32 b1 0b 10
        E 16 b1 0b 30
        E 16 b1 0b 28
        E 16 b1 0b 20
        E 32 b1 0b 18
        E 32 b1 0b 10
        E 32 b1 0b 08
        E 32 81 1c 00
        E 112 b1 0b 30
        E 0 91 1c 30
        E 16 b1 0b 28
        E 32 b1 0b 20
        E 32 b1 0b 18
        E 16 b1 0b 10
        E 32 b1 0b 08
        E 16 b1 0b 30
        E 0 81 1c 00
        E 0 91 1f 30
        E 48 b1 0b 28
        E 64 b1 0b 20
        E 64 b1 0b 18
        E 64 b1 0b 10
        E 48 b1 0b 08
        E 64 81 1f 00
        E 48 b1 0b 30
        E 0 91 1c 30
        E 16 b1 0b 28
        E 32 b1 0b 20
        E 32 b1 0b 18
        E 32 b1 0b 10
        E 32 b1 0b 08
        E 32 81 1c 00
        E 96 b1 0b 30
        E 0 91 1c 30
        E 16 b1 0b 28
        E 32 b1 0b 20
        E 32 b1 0b 18
        E 32 b1 0b 10
        E 32 b1 0b 08
        E 32 81 1c 00
        E 80 b1 0b 30
        E 0 91 1c 30
        E 16 b1 0b 28
        E 32 b1 0b 20
        E 16 b1 0b 18
        E 32 b1 0b 10
        E 32 b1 0b 08
        E 16 b1 0b 30
        E 0 81 1c 00
        E 0 91 1a 30
        E 48 b1 0b 28
        E 64 b1 0b 20
        E 64 b1 0b 18
        E 64 b1 0b 10
        E 32 b1 0b 30
        E 0 81 1a 00
        E 0 91 1c 30
        E 16 b1 0b 28
        E 32 b1 0b 20
        E 32 b1 0b 18
        E 32 b1 0b 10
        E 32 b1 0b 08
        E 32 81 1c 00
        E 80 b1 0b 30
        E 0 91 1c 30
        E 16 b1 0b 28
        E 32 b1 0b 20
        E 16 b1 0b 18
        E 32 b1 0b 10
        E 32 b1 0b 08
        E 16 b1 0b 30
        E 16 b1 0b 28
        E 32 b1 0b 20
        E 32 b1 0b 18
        E 32 b1 0b 10
        E 32 b1 0b 08
        E 32 81 1c 00
        E 96 b1 0b 30
        E 0 91 1c 30
        E 16 b1 0b 28
        E 32 b1 0b 20
        E 32 b1 0b 18
        E 32 b1 0b 10
        E 16 b1 0b 30
        E 0 81 1c 00
        E 0 91 1f 30
        E 48 b1 0b 28
        E 64 b1 0b 20
        E 64 b1 0b 18
        E 48 b1 0b 10
        E 64 b1 0b 08
        E 64 81 1f 00
        E 48 b1 0b 30
        E 0 91 1c 30
        E 16 b1 0b 28
        E 32 b1 0b 20
        E 32 b1 0b 18
        E 32 b1 0b 10
        E 16 b1 0b 08
        E 32 81 1c 00
        E 112 b1 0b 30
        E 0 91 1c 30
        E 16 b1 0b 28
        E 32 b1 0b 20
        E 32 b1 0b 18
        E 32 b1 0b 10
        E 32 b1 0b 08
        E 32 81 1c 00
        E 96 b1 0b 30
        E 0 91 1c 30
        E 16 b1 0b 28
        E 32 b1 0b 20
        E 32 b1 0b 18
        E 32 b1 0b 10
        E 16 b1 0b 30
        E 0 81 1c 00
        E 0 91 1a 30
        E 48 b1 0b 28
        E 64 b1 0b 20
        E 48 b1 0b 18
        E 64 b1 0b 10
        E 48 b1 0b 30
        E 0 81 1a 00
        E 0 91 1c 30
        E 16 b1 0b 28
        E 32 b1 0b 20
        E 32 b1 0b 18
        E 32 b1 0b 10
        E 32 b1 0b 08
        E 32 81 1c 00
        E 96 b1 0b 30
        E 0 91 1c 30
        E 16 b1 0b 28
        E 32 b1 0b 20
        E 32 b1 0b 18
        E 32 b1 0b 10
        E 16 b1 0b 30
        E 16 b1 0b 28
        E 32 b1 0b 20
        E 32 b1 0b 18
        E 32 b1 0b 10
        E 32 b1 0b 08
        E 16 81 1c 00
        E 112 b1 0b 30
        E 0 91 1c 30
        E 16 b1 0b 28
        E 32 b1 0b 20
        E 32 b1 0b 18
        E 32 b1 0b 10
        E 16 b1 0b 30
        E 0 81 1c 00
        E 0 91 1f 30
        E 48 b1 0b 28
        E 48 b1 0b 20
        E 64 b1 0b 18
        E 64 b1 0b 10
        E 64 b1 0b 08
        E 64 81 1f 00
        E 48 b1 0b 30
        E 0 91 1c 30
        E 16 b1 0b 28
        E 16 b1 0b 20
        E 32 b1 0b 18
        E 32 b1 0b 10
        E 32 b1 0b 08
        E 32 81 1c 00
        E 112 b1 0b 30
        E 0 91 1c 30
        E 16 b1 0b 28
        E 32 b1 0b 20
        E 32 b1 0b 18
        E 32 b1 0b 10
        E 16 b1 0b 08
        E 32 81 1c 00
        E 112 b1 0b 30
        E 0 91 1c 30
        E 16 b1 0b 28
        E 32 b1 0b 20
        E 32 b1 0b 18
        E 32 b1 0b 10
        E 16 b1 0b 30
        E 0 81 1c 00
        E 0 91 1a 30
        E 48 b1 0b 28
        E 48 b1 0b 20
        E 64 b1 0b 18
        E 64 b1 0b 10
        E 48 b1 0b 30
        E 0 81 1a 00
        E 0 91 1c 30
        E 16 b1 0b 28
        E 32 b1 0b 20
        E 32 b1 0b 18
        E 32 b1 0b 10
        E 16 b1 0b 08
        E 32 81 1c 00
        E 112 b1 0b 30
        E 0 91 1c 30
        E 16 b1 0b 28
        E 32 b1 0b 20
        E 32 b1 0b 18
        E 32 b1 0b 10
        E 16 b1 0b 30
        E 16 b1 0b 28
        E 32 b1 0b 20
        E 16 b1 0b 18
        E 32 b1 0b 10
        E 32 b1 0b 08
        E 32 81 1c 00
        E 112 b1 0b 30
        E 0 91 1c 30
        E 16 b1 0b 28
        E 32 b1 0b 20
        E 32 b1 0b 18
        E 32 b1 0b 10
        E 16 b1 0b 08
        E 16 b1 0b 30
        E 0 81 1c 00
        E 0 91 1f 30
        E 48 b1 0b 28
        E 64 b1 0b 20
        E 64 b1 0b 18
        E 64 b1 0b 10
        E 64 b1 0b 08
        E 48 81 1f 00
        E 48 b1 0b 30
        E 0 91 1c 30
        E 16 b1 0b 28
        E 32 b1 0b 20
        E 32 b1 0b 18
        E 32 b1 0b 10
        E 32 b1 0b 08
        E 32 81 1c 00
        E 80 b1 0b 30
        E 0 91 1c 30
        E 16 b1 0b 28
        E 16 b1 0b 20
        E 32 b1 0b 18
        E 32 b1 0b 10
        E 32 b1 0b 08
        E 32 81 1c 00
        E 112 b1 0b 30
        E 0 91 1c 30
        E 16 b1 0b 28
        E 32 b1 0b 20
        E 32 b1 0b 18
        E 16 b1 0b 10
        E 32 b1 0b 08
        E 16 b1 0b 30
        E 0 81 1c 00
        E 0 91 1a 30
        E 48 b1 0b 28
        E 64 b1 0b 20
        E 64 b1 0b 18
        E 64 b1 0b 10
        E 16 b1 0b 30
        E 0 81 1a 00
        E 0 91 1c 30
        E 16 b1 0b 28
        E 16 b1 0b 20
        E 32 b1 0b 18
        E 32 b1 0b 10
        E 32 b1 0b 08
        E 32 81 1c 00
        E 112 b1 0b 30
        E 0 91 1c 30
        E 16 b1 0b 28
        E 32 b1 0b 20
        E 32 b1 0b 18
        E 16 b1 0b 10
        E 32 b1 0b 08
        E 16 b1 0b 30
        E 16 b1 0b 28
        E 32 b1 0b 20
        E 32 b1 0b 18
        E 32 b1 0b 10
        E 32 b1 0b 08
        E 32 81 1c 00
        E 80 b1 0b 30
        E 0 91 1c 30
        E 16 b1 0b 28
        E 16 b1 0b 20
        E 32 b1 0b 18
        E 32 b1 0b 10
        E 32 b1 0b 08
        E 16 b1 0b 30
        E 0 81 1c 00
        E 0 91 1f 30
        E 48 b1 0b 28
        E 64 b1 0b 20
        E 64 b1 0b 18
        E 48 b1 0b 10
        E 64 b1 0b 08
        E 64 81 1f 00
        E 48 b1 0b 30
        E 0 91 23 30
        E 16 b1 0b 28
        E 32 b1 0b 20
        E 32 b1 0b 18
        E 32 b1 0b 10
        E 32 b1 0b 08
        E 32 81 23 00
        E 96 b1 0b 30
        E 0 91 23 30
        E 16 b1 0b 28
        E 32 b1 0b 20
        E 32 b1 0b 18
        E 32 b1 0b 10
        E 32 b1 0b 08
        E 32 81 23 00
        E 96 b1 0b 30
        E 0 91 23 30
        E 16 b1 0b 28
        E 32 b1 0b 20
        E 32 b1 0b 18
        E 32 b1 0b 10
        E 16 b1 0b 30
        E 0 81 23 00
        E 0 91 21 30
        E 48 b1 0b 28
        E 64 b1 0b 20
        E 64 b1 0b 18
        E 48 b1 0b 10
        E 48 b1 0b 30
        E 0 81 21 00
        E 0 91 23 30
        E 16 b1 0b 28
        E 32 b1 0b 20
        E 32 b1 0b 18
        E 32 b1 0b 10
        E 32 b1 0b 08
        E 32 81 23 00
        E 96 b1 0b 30
        E 0 91 23 30
        E 16 b1 0b 28
        E 32 b1 0b 20
        E 32 b1 0b 18
        E 32 b1 0b 10
        E 16 b1 0b 30
        E 16 b1 0b 28
        E 32 b1 0b 20
        E 32 b1 0b 18
        E 32 b1 0b 10
        E 32 b1 0b 08
        E 32 81 23 00
        E 96 b1 0b 30
        E 0 91 23 30
        E 16 b1 0b 28
        E 32 b1 0b 20
        E 32 b1 0b 18
        E 32 b1 0b 10
        E 16 b1 0b 30
        E 0 81 23 00
        E 0 91 26 30
        E 48 b1 0b 28
        E 64 b1 0b 20
        E 48 b1 0b 18
        E 64 b1 0b 10
        E 64 b1 0b 08
        E 64 81 26 00
        E 48 b1 0b 30
        E 0 91 23 30
        E 16 b1 0b 28
        E 32 b1 0b 20
        E 32 b1 0b 18
        E 16 b1 0b 10
        E 32 b1 0b 08
        E 32 81 23 00
        E 112 b1 0b 30
        E 0 91 23 30
        E 16 b1 0b 28
        E 32 b1 0b 20
        E 32 b1 0b 18
        E 32 b1 0b 10
        E 32 b1 0b 08
        E 16 81 23 00
        E 112 b1 0b 30
        E 0 91 23 30
        E 16 b1 0b 28
        E 32 b1 0b 20
        E 32 b1 0b 18
        E 32 b1 0b 10
        E 16 b1 0b 30
        E 0 81 23 00
        E 0 91 21 30
        E 48 b1 0b 28
        E 48 b1 0b 20
        E 64 b1 0b 18
        E 64 b1 0b 10
        E 48 b1 0b 30
        E 0 81 21 00
        E 0 91 23 30
        E 16 b1 0b 28
        E 32 b1 0b 20
        E 32 b1 0b 18
        E 32 b1 0b 10
        E 32 b1 0b 08
        E 16 81 23 00
        E 112 b1 0b 30
        E 0 91 23 30
        E 16 b1 0b 28
        E 32 b1 0b 20
        E 32 b1 0b 18
        E 32 b1 0b 10
        E 16 b1 0b 30
        E 16 b1 0b 28
        E 32 b1 0b 20
        E 32 b1 0b 18
        E 16 b1 0b 10
        E 32 b1 0b 08
        E 32 81 23 00
        E 112 b1 0b 30
        E 0 91 23 30
        E 16 b1 0b 28
        E 32 b1 0b 20
        E 32 b1 0b 18
        E 32 b1 0b 10
        E 16 b1 0b 30
        E 0 81 23 00
        E 0 91 26 30
        E 32 b1 0b 28
        E 64 b1 0b 20
        E 64 b1 0b 18
        E 64 b1 0b 10
        E 64 b1 0b 08
        E 64 81 26 00
        E 64 b1 0b 30
        E 0 91 1c 30
        E 16 b1 0b 28
        E 32 b1 0b 20
        E 32 b1 0b 18
        E 32 b1 0b 10
        E 32 b1 0b 08
        E 32 81 1c 00
        E 80 b1 0b 30
        E 0 91 1c 30
        E 16 b1 0b 28
        E 32 b1 0b 20
        E 16 b1 0b 18
        E 32 b1 0b 10
        E 32 b1 0b 08
        E 32 81 1c 00
        E 112 b1 0b 30
        E 0 91 1c 30
        E 16 b1 0b 28
        E 32 b1 0b 20
        E 32 b1 0b 18
        E 32 b1 0b 10
        E 16 b1 0b 08
        E 16 b1 0b 30
        E 0 81 1c 00
        E 0 91 1a 30
        E 48 b1 0b 28
        E 64 b1 0b 20
        E 64 b1 0b 18
        E 64 b1 0b 10
        E 16 b1 0b 30
        E 0 81 1a 00
        E 0 91 1c 30
        E 16 b1 0b 28
        E 32 b1 0b 20
        E 16 b1 0b 18
        E 32 b1 0b 10
        E 32 b1 0b 08
        E 32 81 1c 00
        E 112 b1 0b 30
        E 0 91 1c 30
        E 16 b1 0b 28
        E 32 b1 0b 20
        E 32 b1 0b 18
        E 32 b1 0b 10
        E 16 b1 0b 08
        E 16 b1 0b 30
        E 16 b1 0b 28
        E 32 b1 0b 20
        E 32 b1 0b 18
        E 32 b1 0b 10
        E 32 b1 0b 08
        E 32 81 1c 00
        E 80 b1 0b 30
        E 0 91 1c 30
        E 16 b1 0b 28
        E 32 b1 0b 20
        E 16 b1 0b 18
        E 32 b1 0b 10
        E 32 b1 0b 08
        E 16 b1 0b 30
        E 0 81 1c 00
        E 0 91 1f 30
        E 48 b1 0b 28
        E 64 b1 0b 20
        E 64 b1 0b 18
        E 64 b1 0b 10
        E 48 b1 0b 08
        E 64 81 1f 00
        E 48 b1 0b 30
        E 0 91 1c 30
        E 16 b1 0b 28
        E 32 b1 0b 20
        E 32 b1 0b 18
        E 32 b1 0b 10
        E 32 b1 0b 08
        E 32 81 1c 00
        E 96 b1 0b 30
        E 0 91 1c 30
        E 16 b1 0b 28
        E 32 b1 0b 20
        E 32 b1 0b 18
        E 32 b1 0b 10
        E 32 b1 0b 08
        E 32 81 1c 00
        E 80 b1 0b 30
        E 0 91 1c 30
        E 16 b1 0b 28
        E 16 b1 0b 20
        E 32 b1 0b 18
        E 32 b1 0b 10
        E 32 b1 0b 08
        E 16 b1 0b 30
        E 0 81 1c 00
        E 0 91 1a 30
        E 48 b1 0b 28
        E 64 b1 0b 20
        E 64 b1 0b 18
        E 48 b1 0b 10
        E 48 b1 0b 30
        E 0 81 1a 00
        E 0 91 1c 30
        E 16 b1 0b 28
        E 32 b1 0b 20
        E 32 b1 0b 18
        E 32 b1 0b 10
        E 32 b1 0b 08
        E 32 81 1c 00
        E 80 b1 0b 30
        E 0 91 1c 30
        E 16 b1 0b 28
        E 16 b1 0b 20
        E 32 b1 0b 18
        E 32 b1 0b 10
        E 32 b1 0b 08
        E 16 b1 0b 30
        E 16 b1 0b 28
        E 32 b1 0b 20
        E 32 b1 0b 18
        E 32 b1 0b 10
        E 32 b1 0b 08
        E 32 81 1c 00
        E 96 b1 0b 30
        E 0 91 1c 30
        E 16 b1 0b 28
        E 32 b1 0b 20
        E 32 b1 0b 18
        E 32 b1 0b 10
        E 16 b1 0b 30
        E 0 81 1c 00
        E 0 91 1f 30
        E 48 b1 0b 28
        E 64 b1 0b 20
        E 64 b1 0b 18
        E 48 b1 0b 10
        E 64 b1 0b 08
        E 64 81 1f 00
        E 48 b1 0b 28
        E 0 91 1f 28
        E 224 b1 0b 20
        E 192 b1 0b 18
        E 1728 b1 0b 28
        E 0 81 1f 00
        E 0 91 23 28
        E 224 b1 0b 20
        E 176 b1 0b 18
        E 1760 b1 0c 40
        E 0 b1 0b 48
        E 0 81 23 00
        E 0 91 1a 48
        E 16 b1 0b 40
        E 32 b1 0b 38
        E 32 b1 0b 30
        E 32 b1 0b 28
        E 16 b1 0b 48
        E 0 81 1a 00
        E 0 91 1c 48
        E 16 b1 0b 40
        E 32 b1 0b 38
        E 32 b1 0b 30
        E 32 b1 0b 28
        E 16 b1 0b 20
        E 16 b1 0c 10
        E 0 b1 0b 38
        E 0 81 1c 00
        E 0 91 33 38
        E 16 b1 0b 30
        E 32 b1 0b 28
        E 32 b1 0b 20
        E 32 b1 0b 18
        E 16 b1 0b 38
        E 0 81 33 00
        E 0 91 34 38
        E 16 b1 0b 30
        E 32 b1 0b 28
        E 32 b1 0b 20
        E 32 b1 0b 18
        E 16 b1 0b 20
        E 144 b1 0b 38
        E 16 b1 0b 30
        E 32 b1 0b 28
        E 32 b1 0b 20
        E 32 b1 0b 18
        E 16 b1 0b 20
        E 16 b1 0b 18
        E 32 b1 0b 10
        E 32 b1 0b 08
        E 32 81 34 00
        E 32 b1 0b 38
        E 0 91 34 38
        E 16 b1 0b 30
        E 32 b1 0b 28
        E 32 b1 0b 20
        E 32 b1 0b 18
        E 16 b1 0b 20
        E 16 b1 0b 18
        E 32 b1 0b 10
        E 32 b1 0b 08
        E 32 81 34 00
        E 16 b1 0b 10
        E 0 91 34 10
        E 144 b1 0b 38
        E 256 b1 0b 20
        E 144 b1 0b 38
        E 128 b1 0b 20
        E 144 b1 0c 40
        E 0 b1 0b 48
        E 0 81 34 00
        E 0 91 1c 48
        E 16 b1 0b 40
        E 32 b1 0b 38
        E 32 b1 0b 30
        E 32 b1 0b 28
        E 16 b1 0b 48
        E 0 81 1c 00
        E 0 91 1a 48
        E 16 b1 0b 40
        E 32 b1 0b 38
        E 32 b1 0b 30
        E 32 b1 0b 28
        E 16 b1 0b 48
        E 0 81 1a 00
        E 0 91 1c 48
        E 16 b1 0b 40
        E 16 b1 0b 38
        E 32 b1 0b 30
        E 32 b1 0b 28
        E 32 b1 0b 20
        E 16 b1 0c 10
        E 0 b1 0b 38
        E 0 81 1c 00
        E 0 91 33 38
        E 16 b1 0b 30
        E 32 b1 0b 28
        E 32 b1 0b 20
        E 32 b1 0b 18
        E 16 b1 0b 38
        E 0 81 33 00
        E 0 91 34 38
        E 16 b1 0b 30
        E 32 b1 0b 28
        E 32 b1 0b 20
        E 16 b1 0b 18
        E 32 b1 0b 10
        E 16 b1 0b 20
        E 128 b1 0b 38
        E 16 b1 0b 30
        E 32 b1 0b 28
        E 32 b1 0b 20
        E 32 b1 0b 18
        E 16 b1 0b 20
        E 16 b1 0b 18
        E 16 b1 0b 10
        E 32 b1 0b 08
        E 32 81 34 00
        E 48 b1 0b 38
        E 0 91 34 38
        E 16 b1 0b 30
        E 32 b1 0b 28
        E 32 b1 0b 20
        E 32 b1 0b 18
        E 16 b1 0b 20
        E 16 b1 0b 18
        E 32 b1 0b 10
        E 32 b1 0b 08
        E 16 81 34 00
        E 48 b1 0b 10
        E 0 91 34 10
        E 128 b1 0b 38
        E 272 b1 0b 20
        E 128 b1 0b 38
        E 144 b1 0b 20
        E 128 b1 0c 40
        E 0 b1 0b 48
        E 0 81 34 00
        E 0 91 1c 48
        E 16 b1 0b 40
        E 32 b1 0b 38
        E 32 b1 0b 30
        E 32 b1 0b 28
        E 16 b1 0b 48
        E 0 81 1c 00
        E 0 91 1a 48
        E 16 b1 0b 40
        E 32 b1 0b 38
        E 16 b1 0b 30
        E 32 b1 0b 28
        E 32 b1 0b 20
        E 16 b1 0b 48
        E 0 81 1a 00
        E 0 91 1c 48
        E 16 b1 0b 40
        E 32 b1 0b 38
        E 32 b1 0b 30
        E 32 b1 0b 28
        E 16 b1 0c 10
        E 0 b1 0b 38
        E 0 81 1c 00
        E 0 91 33 38
        E 16 b1 0b 30
        E 32 b1 0b 28
        E 32 b1 0b 20
        E 32 b1 0b 18
        E 16 b1 0b 10
        E 16 b1 0b 38
        E 0 81 33 00
        E 0 91 34 38
        E 16 b1 0b 30
        E 32 b1 0b 28
        E 32 b1 0b 20
        E 32 b1 0b 18
        E 16 b1 0b 20
        E 128 b1 0b 38
        E 16 b1 0b 30
        E 32 b1 0b 28
        E 16 b1 0b 20
        E 32 b1 0b 18
        E 32 b1 0b 10
        E 16 b1 0b 20
        E 16 b1 0b 18
        E 32 b1 0b 10
        E 32 b1 0b 08
        E 32 81 34 00
        E 16 b1 0b 38
        E 0 91 34 38
        E 16 b1 0b 30
        E 32 b1 0b 28
        E 32 b1 0b 20
        E 32 b1 0b 18
        E 16 b1 0b 10
        E 16 b1 0b 20
        E 16 b1 0b 18
        E 32 b1 0b 10
        E 32 b1 0b 08
        E 32 81 34 00
        E 16 b1 0b 10
        E 0 91 34 10
        E 128 b1 0b 38
        E 272 b1 0b 20
        E 128 b1 0b 38
        E 144 b1 0b 20
        E 128 b1 0c 40
        E 0 b1 0b 48
        E 0 81 34 00
        E 0 91 1c 48
        E 16 b1 0b 40
        E 32 b1 0b 38
        E 32 b1 0b 30
        E 16 b1 0b 28
        E 32 b1 0b 20
        E 16 b1 0b 48
        E 0 81 1c 00
        E 0 91 1a 48
        E 16 b1 0b 40
        E 32 b1 0b 38
        E 32 b1 0b 30
        E 32 b1 0b 28
        E 16 b1 0b 48
        E 0 81 1a 00
        E 0 91 1c 48
        E 16 b1 0b 40
        E 32 b1 0b 38
        E 32 b1 0b 30
        E 32 b1 0b 28
        E 16 b1 0c 10
        E 0 b1 0b 38
        E 0 81 1c 00
        E 0 91 33 38
        E 16 b1 0b 30
        E 16 b1 0b 28
        E 32 b1 0b 20
        E 32 b1 0b 18
        E 32 b1 0b 10
        E 16 b1 0b 38
        E 0 81 33 00
        E 0 91 34 38
        E 16 b1 0b 30
        E 32 b1 0b 28
        E 32 b1 0b 20
        E 32 b1 0b 18
        E 16 b1 0b 20
        E 144 b1 0b 38
        E 16 b1 0b 30
        E 32 b1 0b 28
        E 32 b1 0b 20
        E 32 b1 0b 18
        E 16 b1 0b 20
        E 16 b1 0b 18
        E 32 b1 0b 10
        E 32 b1 0b 08
        E 32 81 34 00
        E 16 b1 0b 38
        E 0 91 34 38
        E 16 b1 0b 30
        E 16 b1 0b 28
        E 32 b1 0b 20
        E 32 b1 0b 18
        E 32 b1 0b 10
        E 16 b1 0b 20
        E 16 b1 0b 18
        E 32 b1 0b 10
        E 32 b1 0b 08
        E 32 81 34 00
        E 16 b1 0b 10
        E 0 91 34 10
        E 144 b1 0b 38
        E 256 b1 0b 20
        E 144 b1 0b 38
        E 128 b1 0b 20
        E 144 b1 0c 40
        E 0 b1 0b 48
        E 0 81 34 00
        E 0 91 1c 48
        E 16 b1 0b 40
        E 32 b1 0b 38
        E 32 b1 0b 30
        E 32 b1 0b 28
        E 16 b1 0b 30
        E 0 81 1c 00
        E 0 91 2d 30
        E 16 b1 0b 28
        E 32 b1 0b 20
        E 32 b1 0b 18
        E 32 b1 0b 10
        E 16 b1 0b 30
        E 0 81 2d 00
        E 0 91 30 30
        E 16 b1 0b 28
        E 32 b1 0b 20
        E 16 b1 0b 18
        E 16 81 30 00
        E 0 91 2d 18
        E 64 b1 0b 30
        E 0 81 2d 00
        E 0 91 34 30
        E 16 b1 0b 28
        E 32 b1 0b 20
        E 16 b1 0b 18
        E 0 81 34 00
        E 0 91 30 18
        E 16 b1 0b 10
        E 32 b1 0b 08
        E 16 b1 0b 30
        E 0 81 30 00
        E 0 91 37 30
        E 16 b1 0b 28
        E 32 b1 0b 20
        E 16 b1 0b 18
        E 0 81 37 00
        E 0 91 34 18
        E 16 b1 0b 10
        E 32 b1 0b 08
        E 16 81 34 00
        E 16 b1 0b 30
        E 0 91 34 30
        E 16 b1 0b 28
        E 32 b1 0b 20
        E 16 b1 0b 18
        E 0 81 34 00
        E 0 91 37 18
        E 16 b1 0b 10
        E 32 b1 0b 08
        E 16 b1 0b 30
        E 0 81 37 00
        E 0 91 30 30
        E 16 b1 0b 28
        E 32 b1 0b 20
        E 16 b1 0b 18
        E 0 81 30 00
        E 0 91 34 18
        E 16 b1 0b 10
        E 32 b1 0b 08
        E 16 b1 0b 30
        E 16 b1 0b 28
        E 32 b1 0b 20
        E 16 b1 0b 18
        E 16 81 34 00
        E 0 91 30 18
        E 16 b1 0b 10
        E 32 b1 0b 08
        E 16 b1 0b 30
        E 0 81 30 00
        E 0 91 37 30
        E 16 b1 0b 28
        E 32 b1 0b 20
        E 16 b1 0b 18
        E 0 81 37 00
        E 0 91 34 18
        E 16 b1 0b 10
        E 32 b1 0b 08
        E 16 b1 0b 30
        E 0 81 34 00
        E 0 91 39 30
        E 16 b1 0b 28
        E 32 b1 0b 20
        E 16 b1 0b 18
        E 0 81 39 00
        E 0 91 37 18
        E 16 b1 0b 10
        E 32 b1 0b 08
        E 16 b1 0b 30
        E 0 81 37 00
        E 0 91 3c 30
        E 16 b1 0b 28
        E 16 b1 0b 20
        E 32 b1 0b 18
        E 16 81 3c 00
        E 0 91 39 18
        E 16 b1 0b 10
        E 32 b1 0b 08
        E 16 b1 0b 30
        E 0 81 39 00
        E 0 91 40 30
        E 16 b1 0b 28
        E 32 b1 0b 20
        E 16 b1 0b 18
        E 0 81 40 00
        E 0 91 3c 18
        E 16 b1 0b 10
        E 32 b1 0b 08
        E 16 b1 0b 30
        E 0 81 3c 00
        E 0 91 43 30
        E 16 b1 0b 28
        E 32 b1 0b 20
        E 16 b1 0b 18
        E 0 81 43 00
        E 0 91 40 18
        E 16 b1 0b 10
        E 16 b1 0b 08
        E 32 81 40 00
        E 16 b1 0b 30
        E 0 91 45 30
        E 16 b1 0b 28
        E 32 b1 0b 20
        E 16 b1 0b 18
        E 0 81 45 00
        E 0 91 43 18
        E 16 b1 0b 10
        E 32 b1 0b 08
        E 16 b1 0b 30
        E 0 81 43 00
        E 0 91 48 30
        E 16 b1 0b 28
        E 32 b1 0b 20
        E 16 b1 0b 18
        E 0 81 48 00
        E 0 91 45 18
        E 16 b1 0b 10
        E 32 b1 0b 08
        E 16 b1 0b 30
        E 0 81 45 00
        E 0 91 4c 30
        E 16 b1 0b 28
        E 16 b1 0b 20
        E 32 b1 0b 18
        E 16 81 4c 00
        E 0 91 48 18
        E 16 b1 0b 10
        E 32 b1 0b 08
        E 16 b1 0b 30
        E 0 81 48 00
        E 0 91 4f 30
        E 16 b1 0b 28
        E 32 b1 0b 20
        E 16 b1 0b 18
        E 0 81 4f 00
        E 0 91 4c 18
        E 16 b1 0b 10
        E 32 b1 0b 08
        E 16 b1 0b 30
        E 0 81 4c 00
        E 0 91 2f 30
        E 16 b1 0b 28
        E 32 b1 0b 20
        E 16 b1 0b 18
        E 0 81 2f 00
        E 0 91 4f 18
        E 16 b1 0b 10
        E 0 81 4f 00
        E 0 91 50 10
        E 16 b1 0b 08
        E 0 81 50 00
        E 0 91 4f 08
        E 32 81 4f 00
        E 16 b1 0b 30
        E 0 91 33 30
        E 16 b1 0b 28
        E 32 b1 0b 20
        E 16 b1 0b 18
        E 0 81 33 00
        E 0 91 2f 18
        E 16 b1 0b 10
        E 32 b1 0b 08
        E 16 b1 0b 30
        E 0 81 2f 00
        E 0 91 36 30
        E 16 b1 0b 28
        E 32 b1 0b 20
        E 16 b1 0b 18
        E 0 81 36 00
        E 0 91 33 18
        E 16 b1 0b 10
        E 32 b1 0b 08
        E 16 b1 0b 30
        E 0 81 33 00
        E 0 91 39 30
        E 16 b1 0b 28
        E 16 b1 0b 20
        E 32 b1 0b 18
        E 16 81 39 00
        E 0 91 36 18
        E 16 b1 0b 10
        E 32 b1 0b 08
        E 16 b1 0b 30
        E 16 b1 0b 28
        E 32 b1 0b 20
        E 16 b1 0b 18
        E 0 81 36 00
        E 0 91 39 18
        E 16 b1 0b 10
        E 32 b1 0b 08
        E 16 b1 0b 30
        E 0 81 39 00
        E 0 91 33 30
        E 16 b1 0b 28
        E 32 b1 0b 20
        E 16 b1 0b 18
        E 0 81 33 00
        E 0 91 36 18
        E 16 b1 0b 10
        E 16 b1 0b 08
        E 32 81 36 00
        E 16 b1 0b 30
        E 0 91 36 30
        E 16 b1 0b 28
        E 32 b1 0b 20
        E 16 b1 0b 18
        E 0 81 36 00
        E 0 91 33 18
        E 16 b1 0b 10
        E 32 b1 0b 08
        E 16 b1 0b 30
        E 0 81 33 00
        E 0 91 39 30
        E 16 b1 0b 28
        E 32 b1 0b 20
        E 16 b1 0b 18
        E 0 81 39 00
        E 0 91 36 18
        E 16 b1 0b 10
        E 32 b1 0b 08
        E 16 b1 0b 30
        E 0 81 36 00
        E 0 91 3b 30
        E 16 b1 0b 28
        E 32 b1 0b 20
        E 16 b1 0b 18
        E 16 81 3b 00
        E 0 91 29 18
        E 16 b1 0b 10
        E 32 b1 0b 08
        E 16 b1 0b 30
        E 0 81 29 00
        E 0 91 3f 30
        E 16 b1 0b 28
        E 32 b1 0b 20
        E 16 b1 0b 18
        E 0 81 3f 00
        E 0 91 3b 18
        E 16 b1 0b 10
        E 32 b1 0b 08
        E 16 b1 0b 30
        E 0 81 3b 00
        E 0 91 42 30
        E 16 b1 0b 28
        E 32 b1 0b 20
        E 16 b1 0b 18
        E 0 81 42 00
        E 0 91 3f 18
        E 16 b1 0b 10
        E 32 b1 0b 08
        E 16 81 3f 00
        E 16 b1 0b 30
        E 0 91 45 30
        E 16 b1 0b 28
        E 32 b1 0b 20
        E 16 b1 0b 18
        E 0 81 45 00
        E 0 91 42 18
        E 16 b1 0b 10
        E 32 b1 0b 08
        E 16 b1 0b 30
        E 0 81 42 00
        E 0 91 47 30
        E 16 b1 0b 28
        E 32 b1 0b 20
        E 16 b1 0b 18
        E 0 81 47 00
        E 0 91 45 18
        E 16 b1 0b 10
        E 32 b1 0b 08
        E 16 b1 0b 30
        E 0 81 45 00
        E 0 91 4b 30
        E 16 b1 0b 28
        E 32 b1 0b 20
        E 16 b1 0b 18
        E 16 81 4b 00
        E 0 91 47 18
        E 16 b1 0b 10
        E 32 b1 0b 08
        E 16 b1 0b 30
        E 0 81 47 00
        E 0 91 4e 30
        E 16 b1 0b 28
        E 0 81 4e 00
        E 0 91 4d 28
        E 32 b1 0b 20
        E 0 81 4d 00
        E 0 91 4e 20
        E 16 b1 0b 18
        E 0 81 4e 00
        E 0 91 4b 18
        E 16 b1 0b 10
        E 32 b1 0b 08
        E 16 b1 0b 30
        E 0 81 4b 00
        E 0 91 51 30
        E 16 b1 0b 28
        E 0 81 51 00
        E 0 91 50 28
        E 32 b1 0b 20
        E 0 81 50 00
        E 0 91 51 20
        E 16 b1 0b 18
        E 0 81 51 00
        E 0 91 4e 18
        E 64 81 4e 00
        E 0 91 4d 18
        E 16 b1 0c 20
        E 0 b1 0b 30
        E 0 81 4d 00
        E 0 91 1c 30
        E 16 b1 0b 28
        E 16 b1 0b 30
        E 16 b1 0b 28
        E 16 b1 0b 30
        E 16 b1 0b 28
        E 32 b1 0b 20
        E 32 b1 0b 18
        E 32 b1 0b 10
        E 32 b1 0b 08
        E 32 81 1c 00
        E 16 b1 0b 30
        E 0 91 1c 30
        E 16 b1 0b 28
        E 32 b1 0b 20
        E 16 b1 0b 18
        E 32 b1 0b 10
        E 32 b1 0b 08
        E 32 81 1c 00
        E 112 b1 0b 30
        E 0 91 1c 30
        E 16 b1 0b 28
        E 32 b1 0b 20
        E 32 b1 0b 18
        E 32 b1 0b 10
        E 16 b1 0b 08
        E 16 b1 0b 30
        E 0 81 1c 00
        E 0 91 1a 30
        E 48 b1 0b 28
        E 64 b1 0b 20
        E 64 b1 0b 18
        E 64 b1 0b 10
        E 16 b1 0b 30
        E 0 81 1a 00
        E 0 91 1c 30
        E 16 b1 0b 28
        E 32 b1 0b 20
        E 32 b1 0b 18
        E 16 b1 0b 10
        E 32 b1 0b 08
        E 32 81 1c 00
        E 112 b1 0b 30
        E 0 91 1c 30
        E 16 b1 0b 28
        E 32 b1 0b 20
        E 32 b1 0b 18
        E 32 b1 0b 10
        E 16 b1 0b 30
        E 16 b1 0b 28
        E 16 b1 0b 20
        E 32 b1 0b 18
        E 32 b1 0b 10
        E 32 b1 0b 08
        E 32 81 1c 00
        E 112 b1 0b 30
        E 0 91 1c 30
        E 16 b1 0b 28
        E 32 b1 0b 20
        E 32 b1 0b 18
        E 16 b1 0b 10
        E 32 b1 0b 08
        E 16 b1 0b 30
        E 0 81 1c 00
        E 0 91 1f 30
        E 48 b1 0b 28
        E 64 b1 0b 20
        E 64 b1 0b 18
        E 64 b1 0b 10
        E 48 b1 0b 08
        E 64 81 1f 00
        E 48 b1 0b 30
        E 0 91 1c 30
        E 16 b1 0b 28
        E 32 b1 0b 20
        E 32 b1 0b 18
        E 32 b1 0b 10
        E 32 b1 0b 08
        E 32 81 1c 00
        E 96 b1 0b 30
        E 0 91 1c 30
        E 16 b1 0b 28
        E 32 b1 0b 20
        E 32 b1 0b 18
        E 32 b1 0b 10
        E 32 b1 0b 08
        E 32 81 1c 00
        E 80 b1 0b 30
        E 0 91 1c 30
        E 16 b1 0b 28
        E 16 b1 0b 20
        E 32 b1 0b 18
        E 32 b1 0b 10
        E 32 b1 0b 08
        E 16 b1 0b 30
        E 0 81 1c 00
        E 0 91 1a 30
        E 48 b1 0b 28
        E 64 b1 0b 20
        E 64 b1 0b 18
        E 64 b1 0b 10
        E 32 b1 0b 30
        E 0 81 1a 00
        E 0 91 1c 30
        E 16 b1 0b 28
        E 32 b1 0b 20
        E 32 b1 0b 18
        E 32 b1 0b 10
        E 32 b1 0b 08
        E 32 81 1c 00
        E 80 b1 0b 30
        E 0 91 1c 30
        E 16 b1 0b 28
        E 32 b1 0b 20
        E 16 b1 0b 18
        E 32 b1 0b 10
        E 32 b1 0b 08
        E 16 b1 0b 30
        E 16 b1 0b 28
        E 32 b1 0b 20
        E 32 b1 0b 18
        E 32 b1 0b 10
        E 32 b1 0b 08
        E 32 81 1c 00
        E 96 b1 0b 30
        E 0 91 1c 30
        E 16 b1 0b 28
        E 32 b1 0b 20
        E 32 b1 0b 18
        E 32 b1 0b 10
        E 16 b1 0b 30
        E 0 81 1c 00
        E 0 91 1f 30
        E 48 b1 0b 28
        E 64 b1 0b 20
        E 64 b1 0b 18
        E 48 b1 0b 10
        E 64 b1 0b 08
        E 64 81 1f 00
        E 48 b1 0b 30
        E 0 91 1c 30
        E 16 b1 0b 28
        E 32 b1 0b 20
        E 32 b1 0b 18
        E 32 b1 0b 10
        E 16 b1 0b 08
        E 32 81 1c 00
        E 112 b1 0b 30
        E 0 91 1c 30
        E 16 b1 0b 28
        E 32 b1 0b 20
        E 32 b1 0b 18
        E 32 b1 0b 10
        E 32 b1 0b 08
        E 32 81 1c 00
        E 96 b1 0b 30
        E 0 91 1c 30
        E 16 b1 0b 28
        E 32 b1 0b 20
        E 32 b1 0b 18
        E 32 b1 0b 10
        E 16 b1 0b 30
        E 0 81 1c 00
        E 0 91 1a 30
        E 48 b1 0b 28
        E 64 b1 0b 20
        E 48 b1 0b 18
        E 64 b1 0b 10
        E 48 b1 0b 30
        E 0 81 1a 00
        E 0 91 1c 30
        E 16 b1 0b 28
        E 32 b1 0b 20
        E 32 b1 0b 18
        E 32 b1 0b 10
        E 32 b1 0b 08
        E 32 81 1c 00
        E 96 b1 0b 30
        E 0 91 1c 30
        E 16 b1 0b 28
        E 32 b1 0b 20
        E 32 b1 0b 18
        E 32 b1 0b 10
        E 16 b1 0b 30
        E 16 b1 0b 28
        E 32 b1 0b 20
        E 32 b1 0b 18
        E 32 b1 0b 10
        E 32 b1 0b 08
        E 16 81 1c 00
        E 112 b1 0b 30
        E 0 91 1c 30
        E 16 b1 0b 28
        E 32 b1 0b 20
        E 32 b1 0b 18
        E 32 b1 0b 10
        E 16 b1 0b 30
        E 0 81 1c 00
        E 0 91 1f 30
        E 48 b1 0b 28
        E 48 b1 0b 20
        E 64 b1 0b 18
        E 64 b1 0b 10
        E 64 b1 0b 08
        E 64 81 1f 00
        E 48 b1 0b 30
        E 0 91 1c 30
        E 16 b1 0b 28
        E 16 b1 0b 20
        E 32 b1 0b 18
        E 32 b1 0b 10
        E 32 b1 0b 08
        E 32 81 1c 00
        E 112 b1 0b 30
        E 0 91 1c 30
        E 16 b1 0b 28
        E 32 b1 0b 20
        E 32 b1 0b 18
        E 16 b1 0b 10
        E 32 b1 0b 08
        E 32 81 1c 00
        E 112 b1 0b 30
        E 0 91 1c 30
        E 16 b1 0b 28
        E 32 b1 0b 20
        E 32 b1 0b 18
        E 32 b1 0b 10
        E 16 b1 0b 30
        E 0 81 1c 00
        E 0 91 1a 30
        E 48 b1 0b 28
        E 48 b1 0b 20
        E 64 b1 0b 18
        E 64 b1 0b 10
        E 48 b1 0b 30
        E 0 81 1a 00
        E 0 91 1c 30
        E 16 b1 0b 28
        E 32 b1 0b 20
        E 32 b1 0b 18
        E 32 b1 0b 10
        E 16 b1 0b 08
        E 32 81 1c 00
        E 112 b1 0b 30
        E 0 91 1c 30
        E 16 b1 0b 28
        E 32 b1 0b 20
        E 32 b1 0b 18
        E 32 b1 0b 10
        E 16 b1 0b 30
        E 16 b1 0b 28
        E 32 b1 0b 20
        E 16 b1 0b 18
        E 32 b1 0b 10
        E 32 b1 0b 08
        E 32 81 1c 00
        E 112 b1 0b 30
        E 0 91 1c 30
        E 16 b1 0b 28
        E 32 b1 0b 20
        E 32 b1 0b 18
        E 32 b1 0b 10
        E 16 b1 0b 08
        E 16 b1 0b 30
        E 0 81 1c 00
        E 0 91 1f 30
        E 48 b1 0b 28
        E 64 b1 0b 20
        E 64 b1 0b 18
        E 64 b1 0b 10
        E 64 b1 0b 08
        E 48 81 1f 00
        E 48 b1 0c 40
        E 0 b1 0b 38
        E 0 91 23 38
        E 16 b1 0b 30
        E 32 b1 0b 28
        E 32 b1 0b 20
        E 32 b1 0b 18
        E 16 b1 0b 20
        E 16 b1 0b 18
        E 32 b1 0b 10
        E 32 b1 0b 08
        E 32 81 23 00
        E 32 b1 0b 10
        E 0 91 23 10
        E 48 b1 0b 08
        E 64 81 23 00
        E 16 91 23 08
        E 80 81 23 00
        E 48 b1 0b 38
        E 0 91 23 38
        E 16 b1 0b 30
        E 32 b1 0b 28
        E 32 b1 0b 20
        E 16 b1 0b 18
        E 32 b1 0b 10
        E 16 b1 0b 38
        E 0 81 23 00
        E 0 91 21 38
        E 16 b1 0b 30
        E 32 b1 0b 28
        E 32 b1 0b 20
        E 32 b1 0b 18
        E 16 b1 0b 20
        E 16 b1 0b 18
        E 32 b1 0b 10
        E 32 b1 0b 08
        E 32 81 21 00
        E 16 b1 0b 10
        E 0 91 21 10
        E 32 b1 0b 08
        E 64 81 21 00
        E 48 b1 0b 58
        E 0 91 23 58
        E 16 b1 0b 50
        E 32 b1 0b 48
        E 32 b1 0b 40
        E 32 b1 0b 38
        E 32 b1 0b 30
        E 32 b1 0b 28
        E 32 b1 0b 20
        E 16 b1 0b 18
        E 32 b1 0b 10
        E 16 81 23 00
        E 0 91 2d 10
        E 144 b1 0b 18
        E 144 b1 0b 20
        E 160 b1 0b 28
        E 32 81 2d 00
        E 0 91 2e 28
        E 128 b1 0b 30
        E 144 b1 0b 38
        E 48 b1 0c 60
        E 0 b1 0b 30
        E 0 81 2e 00
        E 0 91 21 30
        E 128 81 21 00
        E 0 91 34 30
        E 16 b1 0b 28
        E 16 b1 0b 20
        E 32 b1 0b 18
        E 32 b1 0b 10
        E 32 b1 0b 08
        E 16 b1 0b 30
        E 16 b1 0b 28
        E 32 b1 0b 20
        E 32 b1 0b 18
        E 32 b1 0b 10
        E 16 b1 0b 30
        E 0 81 34 00
        E 0 91 21 30
        E 16 b1 0b 28
        E 32 b1 0b 20
        E 32 b1 0b 18
        E 32 b1 0b 10
        E 16 b1 0b 08
        E 16 b1 0b 30
        E 0 81 21 00
        E 0 91 30 30
        E 16 b1 0b 28
        E 32 b1 0b 20
        E 32 b1 0b 18
        E 32 b1 0b 10
        E 16 b1 0b 30
        E 0 81 30 00
        E 0 91 21 30
        E 16 b1 0b 28
        E 32 b1 0b 20
        E 32 b1 0b 18
        E 32 b1 0b 10
        E 16 b1 0b 30
        E 0 81 21 00
        E 0 91 30 30
        E 16 b1 0b 28
        E 32 b1 0b 20
        E 16 b1 0b 18
        E 32 b1 0b 10
        E 32 b1 0b 08
        E 16 b1 0b 30
        E 16 b1 0b 28
        E 32 b1 0b 20
        E 32 b1 0b 18
        E 32 b1 0b 10
        E 16 b1 0b 30
        E 0 81 30 00
        E 0 91 21 30
        E 16 b1 0b 28
        E 32 b1 0b 20
        E 32 b1 0b 18
        E 32 b1 0b 10
        E 16 b1 0b 08
        E 16 b1 0b 30
        E 0 81 21 00
        E 0 91 34 30
        E 16 b1 0b 28
        E 32 b1 0b 20
        E 32 b1 0b 18
        E 32 b1 0b 10
        E 16 b1 0b 30
        E 16 b1 0b 28
        E 32 b1 0b 20
        E 32 b1 0b 18
        E 32 b1 0b 10
        E 16 b1 0b 30
        E 0 81 34 00
        E 0 91 21 30
        E 16 b1 0b 28
        E 32 b1 0b 20
        E 16 b1 0b 18
        E 32 b1 0b 10
        E 32 b1 0b 08
        E 16 b1 0b 30
        E 0 81 21 00
        E 0 91 30 30
        E 16 b1 0b 28
        E 32 b1 0b 20
        E 32 b1 0b 18
        E 32 b1 0b 10
        E 16 b1 0b 30
        E 0 81 30 00
        E 0 91 21 30
        E 16 b1 0b 28
        E 32 b1 0b 20
        E 32 b1 0b 18
        E 32 b1 0b 10
        E 16 b1 0b 08
        E 16 b1 0b 30
        E 0 81 21 00
        E 0 91 30 30
        E 16 b1 0b 28
        E 32 b1 0b 20
        E 32 b1 0b 18
        E 32 b1 0b 10
        E 16 b1 0b 30
        E 16 b1 0b 28
        E 32 b1 0b 20
        E 32 b1 0b 18
        E 32 b1 0b 10
        E 16 b1 0c 20
        E 0 b1 0b 38
        E 0 81 30 00
        E 0 91 1c 38
        E 16 b1 0b 30
        E 32 b1 0b 28
        E 16 b1 0b 20
        E 32 b1 0b 18
        E 32 b1 0b 10
        E 32 b1 0b 08
        E 32 81 1c 00
        E 80 b1 0b 38
        E 0 91 1c 38
        E 16 b1 0b 30
        E 32 b1 0b 28
        E 32 b1 0b 20
        E 32 b1 0b 18
        E 32 b1 0b 10
        E 16 b1 0b 08
        E 32 81 1c 00
        E 80 b1 0b 38
        E 0 91 1c 38
        E 16 b1 0b 30
        E 32 b1 0b 28
        E 32 b1 0b 20
        E 32 b1 0b 18
        E 16 b1 0b 38
        E 0 81 1c 00
        E 0 91 1a 38
        E 48 b1 0b 30
        E 48 b1 0b 28
        E 64 b1 0b 20
        E 64 b1 0b 18
        E 48 b1 0b 38
        E 0 81 1a 00
        E 0 91 1c 38
        E 16 b1 0b 30
        E 32 b1 0b 28
        E 32 b1 0b 20
        E 32 b1 0b 18
        E 32 b1 0b 10
        E 16 b1 0b 08
        E 32 81 1c 00
        E 80 b1 0b 38
        E 0 91 1c 38
        E 16 b1 0b 30
        E 32 b1 0b 28
        E 32 b1 0b 20
        E 32 b1 0b 18
        E 16 b1 0b 38
        E 16 b1 0b 30
        E 32 b1 0b 28
        E 32 b1 0b 20
        E 16 b1 0b 18
        E 32 b1 0b 10
        E 32 b1 0b 08
        E 32 81 1c 00
        E 80 b1 0b 38
        E 0 91 1c 38
        E 16 b1 0b 30
        E 32 b1 0b 28
        E 32 b1 0b 20
        E 32 b1 0b 18
        E 16 b1 0b 38
        E 0 81 1c 00
        E 0 91 1f 38
        E 32 b1 0b 30
        E 64 b1 0b 28
        E 64 b1 0b 20
        E 64 b1 0b 18
        E 64 b1 0b 10
        E 64 b1 0b 08
        E 48 81 1f 00
        E 16 b1 0b 38
        E 0 91 1c 38
        E 16 b1 0b 30
        E 32 b1 0b 28
        E 32 b1 0b 20
        E 32 b1 0b 18
        E 32 b1 0b 10
        E 32 b1 0b 08
        E 32 81 1c 00
        E 48 b1 0b 38
        E 0 91 1c 38
        E 16 b1 0b 30
        E 32 b1 0b 28
        E 16 b1 0b 20
        E 32 b1 0b 18
        E 32 b1 0b 10
        E 32 b1 0b 08
        E 32 81 1c 00
        E 80 b1 0b 38
        E 0 91 1c 38
        E 16 b1 0b 30
        E 32 b1 0b 28
        E 32 b1 0b 20
        E 32 b1 0b 18
        E 16 b1 0b 10
        E 16 b1 0b 38
        E 0 81 1c 00
        E 0 91 1a 38
        E 48 b1 0b 30
        E 64 b1 0b 28
        E 64 b1 0b 20
        E 64 b1 0b 18
        E 16 b1 0b 38
        E 0 81 1a 00
        E 0 91 1c 38
        E 16 b1 0b 30
        E 32 b1 0b 28
        E 16 b1 0b 20
        E 32 b1 0b 18
        E 32 b1 0b 10
        E 32 b1 0b 08
        E 32 81 1c 00
        E 80 b1 0b 38
        E 0 91 1c 38
        E 16 b1 0b 30
        E 32 b1 0b 28
        E 32 b1 0b 20
        E 32 b1 0b 18
        E 16 b1 0b 10
        E 16 b1 0b 38
        E 16 b1 0b 30
        E 32 b1 0b 28
        E 32 b1 0b 20
        E 32 b1 0b 18
        E 32 b1 0b 10
        E 32 b1 0b 08
        E 32 81 1c 00
        E 48 b1 0b 38
        E 0 91 1c 38
        E 16 b1 0b 30
        E 32 b1 0b 28
        E 16 b1 0b 20
        E 32 b1 0b 18
        E 32 b1 0b 10
        E 16 b1 0b 38
        E 0 81 1c 00
        E 0 91 1f 38
        E 48 b1 0b 30
        E 64 b1 0b 28
        E 64 b1 0b 20
        E 64 b1 0b 18
        E 48 b1 0b 10
        E 64 b1 0b 08
        E 48 b1 0c 60
        E 0 b1 0b 30
        E 0 81 1f 00
        E 0 91 21 30
        E 16 b1 0b 28
        E 64 b1 0b 20
        E 48 b1 0b 30
        E 0 81 21 00
        E 0 91 34 30
        E 16 b1 0b 28
        E 32 b1 0b 20
        E 32 b1 0b 18
        E 16 b1 0b 10
        E 32 b1 0b 08
        E 16 b1 0b 30
        E 16 b1 0b 28
        E 32 b1 0b 20
        E 32 b1 0b 18
        E 32 b1 0b 10
        E 16 b1 0b 30
        E 0 81 34 00
        E 0 91 21 30
        E 16 b1 0b 28
        E 32 b1 0b 20
        E 32 b1 0b 18
        E 32 b1 0b 10
        E 16 b1 0b 30
        E 0 81 21 00
        E 0 91 30 30
        E 16 b1 0b 28
        E 16 b1 0b 20
        E 32 b1 0b 18
        E 32 b1 0b 10
        E 32 b1 0b 08
        E 16 b1 0b 30
        E 0 81 30 00
        E 0 91 21 30
        E 16 b1 0b 28
        E 32 b1 0b 20
        E 32 b1 0b 18
        E 32 b1 0b 10
        E 16 b1 0b 30
        E 0 81 21 00
        E 0 91 30 30
        E 16 b1 0b 28
        E 32 b1 0b 20
        E 32 b1 0b 18
        E 16 b1 0b 10
        E 32 b1 0b 08
        E 16 b1 0b 30
        E 16 b1 0b 28
        E 32 b1 0b 20
        E 32 b1 0b 18
        E 32 b1 0b 10
        E 16 b1 0b 30
        E 0 81 30 00
        E 0 91 21 30
        E 16 b1 0b 28
        E 32 b1 0b 20
        E 32 b1 0b 18
        E 32 b1 0b 10
        E 16 b1 0b 30
        E 0 81 21 00
        E 0 91 34 30
        E 16 b1 0b 28
        E 16 b1 0b 20
        E 32 b1 0b 18
        E 32 b1 0b 10
        E 32 b1 0b 08
        E 16 b1 0b 30
        E 16 b1 0b 28
        E 32 b1 0b 20
        E 32 b1 0b 18
        E 32 b1 0b 10
        E 16 b1 0b 30
        E 0 81 34 00
        E 0 91 21 30
        E 16 b1 0b 28
        E 32 b1 0b 20
        E 32 b1 0b 18
        E 16 b1 0b 10
        E 32 b1 0b 08
        E 16 b1 0b 30
        E 0 81 21 00
        E 0 91 30 30
        E 16 b1 0b 28
        E 32 b1 0b 20
        E 32 b1 0b 18
        E 32 b1 0b 10
        E 16 b1 0b 30
        E 0 81 30 00
        E 0 91 21 30
        E 16 b1 0b 28
        E 32 b1 0b 20
        E 32 b1 0b 18
        E 32 b1 0b 10
        E 16 b1 0b 30
        E 0 81 21 00
        E 0 91 30 30
        E 16 b1 0b 28
        E 16 b1 0b 20
        E 32 b1 0b 18
        E 32 b1 0b 10
        E 32 b1 0b 08
        E 16 b1 0b 30
        E 16 b1 0b 28
        E 32 b1 0b 20
        E 32 b1 0b 18
        E 32 b1 0b 10
        E 16 b1 0c 10
        E 0 b1 0b 38
        E 0 81 30 00
        E 0 91 23 38
        E 16 b1 0b 30
        E 32 b1 0b 28
        E 32 b1 0b 20
        E 32 b1 0b 18
        E 16 b1 0b 10
        E 16 b1 0b 20
        E 128 b1 0b 38
        E 0 81 23 00
        E 0 91 33 38
        E 144 b1 0b 30
        E 32 b1 0b 28
        E 16 b1 0b 20
        E 32 b1 0b 18
        E 32 b1 0b 10
        E 16 b1 0b 20
        E 128 b1 0b 38
        E 0 81 33 00
        E 0 91 36 38
        E 16 b1 0b 30
        E 32 b1 0b 28
        E 32 b1 0b 20
        E 32 b1 0b 18
        E 16 b1 0b 10
        E 16 b1 0b 20
        E 16 b1 0b 18
        E 32 b1 0b 10
        E 32 b1 0b 08
        E 32 81 36 00
        E 16 b1 0b 38
        E 0 91 36 38
        E 16 b1 0b 30
        E 32 b1 0b 28
        E 32 b1 0b 20
        E 32 b1 0b 18
        E 16 b1 0b 20
        E 16 b1 0b 18
        E 32 b1 0b 10
        E 16 b1 0b 08
        E 32 81 36 00
        E 48 b1 0b 10
        E 0 91 36 10
        E 128 b1 0b 38
        E 272 b1 0b 20
        E 128 b1 0b 38
        E 144 b1 0b 20
        E 128 b1 0b 10
        E 128 b1 0c 20
        E 0 b1 0b 30
        E 0 81 36 00
        E 0 91 1c 30
        E 16 b1 0b 28
        E 16 b1 0b 20
        E 32 b1 0b 18
        E 32 b1 0b 10
        E 32 b1 0b 08
        E 32 81 1c 00
        E 112 b1 0b 30
        E 0 91 1c 30
        E 16 b1 0b 28
        E 32 b1 0b 20
        E 32 b1 0b 18
        E 16 b1 0b 10
        E 32 81 1c 00
        E 0 ff 2f 00
      >
    >
  >
  <TRACK {6211BB21-1771-4EA1-92E4-740F1D7FC9CE}
    NAME "NES - Triangle [ch2]"
    PEAKCOL 16744192
    BEAT -1
    AUTOMODE 0
    PANLAWFLAGS 3
    VOLPAN 1 0 -1 -1 1
    MUTESOLO 0 0 0
    IPHASE 0
    PLAYOFFS 0 1
    ISBUS 0 0
    BUSCOMP 0 0 0 0 0
    SHOWINMIX 1 0.6667 0.5 1 0.5 0 0 0
    FIXEDLANES 9 0 0 0 0
    SEL 0
    REC 0 5088 1 0 0 0 0 0
    VU 2
    TRACKHEIGHT 0 0 0 0 0 0 0
    INQ 0 0 0 0.5 100 0 0 100
    NCHAN 2
    FX 1
    TRACKID {6211BB21-1771-4EA1-92E4-740F1D7FC9CE}
    PERF 0
    MIDIOUT -1
    MAINSEND 1 0
    <FXCHAIN
      WNDRECT 24 52 700 560
      SHOW 0
      LASTSEL 0
      DOCKED 0
      BYPASS 0 0 0
      <JS "ReapNES Studio/ReapNES_Console.jsfx" ""
        2 15 1 10 80 10 100 2 1 15 1 5 60 10 80 1 1 0 50 0 0 15 1 0 100 0 0 0.500000 0.500000 0.400000 0.300000 0.800000 2 1 0 0 0 0 - - - - - - - - - - - - - - - - - - - - - - - - - -
      >
      FLOATPOS 0 0 0 0
      FXID {95CE1B09-2324-44BB-8087-22DB2E839756}
      WAK 0 0
    >
    <ITEM
      POSITION 0
      LENGTH 83.98134
      LOOP 0
      ALLTAKES 0
      FADEIN 0 0 0 0 0 0 0
      FADEOUT 0 0 0 0 0 0 0
      MUTE 0 0
      SEL 0
      IGUID {9DFBCCF4-6157-4565-A91F-5F6C5E6B960F}
      <SOURCE MIDI
        HASDATA 1 480 QN
        CCINTERP 32
        E 0 c2 26
        E 8624 b2 0b 7f
        E 0 92 28 7f
        E 672 82 28 00
        E 0 b2 0b 7f
        E 0 92 26 7f
        E 336 82 26 00
        E 64 b2 0b 7f
        E 0 92 28 7f
        E 1072 82 28 00
        E 0 b2 0b 7f
        E 0 92 2d 7f
        E 128 82 2d 00
        E 0 b2 0b 7f
        E 0 92 3c 7f
        E 272 82 3c 00
        E 0 b2 0b 7f
        E 0 92 2d 7f
        E 144 82 2d 00
        E 0 b2 0b 7f
        E 0 92 39 7f
        E 128 82 39 00
        E 0 b2 0b 7f
        E 0 92 2d 7f
        E 128 82 2d 00
        E 0 b2 0b 7f
        E 0 92 39 7f
        E 272 82 39 00
        E 0 b2 0b 7f
        E 0 92 2d 7f
        E 144 82 2d 00
        E 0 b2 0b 7f
        E 0 92 3c 7f
        E 256 82 3c 00
        E 0 b2 0b 7f
        E 0 92 2d 7f
        E 144 82 2d 00
        E 0 b2 0b 7f
        E 0 92 39 7f
        E 128 82 39 00
        E 0 b2 0b 7f
        E 0 92 2d 7f
        E 144 82 2d 00
        E 0 b2 0b 7f
        E 0 92 39 7f
        E 256 82 39 00
        E 4304 b2 0b 7f
        E 0 92 2d 7f
        E 128 82 2d 00
        E 0 b2 0b 7f
        E 0 92 3c 7f
        E 272 82 3c 00
        E 0 b2 0b 7f
        E 0 92 2d 7f
        E 144 82 2d 00
        E 0 b2 0b 7f
        E 0 92 39 7f
        E 128 82 39 00
        E 0 b2 0b 7f
        E 0 92 2d 7f
        E 128 82 2d 00
        E 0 b2 0b 7f
        E 0 92 39 7f
        E 272 82 39 00
        E 0 b2 0b 7f
        E 0 92 2d 7f
        E 128 82 2d 00
        E 0 b2 0b 7f
        E 0 92 3c 7f
        E 272 82 3c 00
        E 0 b2 0b 7f
        E 0 92 2d 7f
        E 144 82 2d 00
        E 0 b2 0b 7f
        E 0 92 39 7f
        E 128 82 39 00
        E 0 b2 0b 7f
        E 0 92 2d 7f
        E 128 82 2d 00
        E 0 b2 0b 7f
        E 0 92 39 7f
        E 272 82 39 00
        E 0 b2 0b 7f
        E 0 92 2f 7f
        E 272 82 2f 00
        E 0 b2 0b 7f
        E 0 92 3b 7f
        E 400 82 3b 00
        E 0 b2 0b 7f
        E 0 92 3f 7f
        E 1488 82 3f 00
        E 8656 b2 0b 7f
        E 0 92 34 7f
        E 144 82 34 00
        E 0 b2 0b 7f
        E 0 92 33 7f
        E 48 82 33 00
        E 0 b2 0b 7f
        E 0 92 32 7f
        E 64 82 32 00
        E 0 b2 0b 7f
        E 0 92 31 7f
        E 64 82 31 00
        E 0 b2 0b 7f
        E 0 92 30 7f
        E 96 82 30 00
        E 0 b2 0b 7f
        E 0 92 2f 7f
        E 112 82 2f 00
        E 80 b2 0b 7f
        E 0 92 32 7f
        E 256 82 32 00
        E 0 b2 0b 7f
        E 0 92 34 7f
        E 272 82 34 00
        E 0 b2 0b 7f
        E 0 92 28 7f
        E 544 82 28 00
        E 0 b2 0b 7f
        E 0 92 2b 7f
        E 128 82 2b 00
        E 0 b2 0b 7f
        E 0 92 2d 7f
        E 144 82 2d 00
        E 0 b2 0b 7f
        E 0 92 2f 7f
        E 128 82 2f 00
        E 64 b2 0b 7f
        E 0 92 34 7f
        E 160 82 34 00
        E 0 b2 0b 7f
        E 0 92 33 7f
        E 32 82 33 00
        E 0 b2 0b 7f
        E 0 92 32 7f
        E 64 82 32 00
        E 0 b2 0b 7f
        E 0 92 31 7f
        E 96 82 31 00
        E 0 b2 0b 7f
        E 0 92 30 7f
        E 64 82 30 00
        E 0 b2 0b 7f
        E 0 92 2f 7f
        E 128 82 2f 00
        E 64 b2 0b 7f
        E 0 92 32 7f
        E 272 82 32 00
        E 0 b2 0b 7f
        E 0 92 34 7f
        E 272 82 34 00
        E 0 b2 0b 7f
        E 0 92 28 7f
        E 528 82 28 00
        E 0 b2 0b 7f
        E 0 92 2b 7f
        E 144 82 2b 00
        E 0 b2 0b 7f
        E 0 92 2d 7f
        E 128 82 2d 00
        E 0 b2 0b 7f
        E 0 92 2f 7f
        E 128 82 2f 00
        E 80 b2 0b 7f
        E 0 92 34 7f
        E 176 82 34 00
        E 0 b2 0b 7f
        E 0 92 33 7f
        E 32 82 33 00
        E 0 b2 0b 7f
        E 0 92 32 7f
        E 64 82 32 00
        E 0 b2 0b 7f
        E 0 92 31 7f
        E 80 82 31 00
        E 0 b2 0b 7f
        E 0 92 30 7f
        E 64 82 30 00
        E 0 b2 0b 7f
        E 0 92 2f 7f
        E 112 82 2f 00
        E 64 b2 0b 7f
        E 0 92 32 7f
        E 272 82 32 00
        E 0 b2 0b 7f
        E 0 92 34 7f
        E 272 82 34 00
        E 0 b2 0b 7f
        E 0 92 28 7f
        E 528 82 28 00
        E 0 b2 0b 7f
        E 0 92 2b 7f
        E 144 82 2b 00
        E 0 b2 0b 7f
        E 0 92 2d 7f
        E 128 82 2d 00
        E 0 b2 0b 7f
        E 0 92 2f 7f
        E 144 82 2f 00
        E 64 b2 0b 7f
        E 0 92 34 7f
        E 176 82 34 00
        E 0 b2 0b 7f
        E 0 92 33 7f
        E 32 82 33 00
        E 0 b2 0b 7f
        E 0 92 32 7f
        E 48 82 32 00
        E 0 b2 0b 7f
        E 0 92 31 7f
        E 96 82 31 00
        E 0 b2 0b 7f
        E 0 92 30 7f
        E 64 82 30 00
        E 0 b2 0b 7f
        E 0 92 2f 7f
        E 112 82 2f 00
        E 80 b2 0b 7f
        E 0 92 32 7f
        E 256 82 32 00
        E 0 b2 0b 7f
        E 0 92 34 7f
        E 272 82 34 00
        E 0 b2 0b 7f
        E 0 92 28 7f
        E 544 82 28 00
        E 0 b2 0b 7f
        E 0 92 2b 7f
        E 128 82 2b 00
        E 0 b2 0b 7f
        E 0 92 2d 7f
        E 144 82 2d 00
        E 0 b2 0b 7f
        E 0 92 2f 7f
        E 128 82 2f 00
        E 64 b2 0b 7f
        E 0 92 2f 7f
        E 160 82 2f 00
        E 0 b2 0b 7f
        E 0 92 2e 7f
        E 64 82 2e 00
        E 0 b2 0b 7f
        E 0 92 2d 7f
        E 96 82 2d 00
        E 0 b2 0b 7f
        E 0 92 2c 7f
        E 96 82 2c 00
        E 0 b2 0b 7f
        E 0 92 2b 7f
        E 128 82 2b 00
        E 64 b2 0b 7f
        E 0 92 2d 7f
        E 272 82 2d 00
        E 0 b2 0b 7f
        E 0 92 2f 7f
        E 256 82 2f 00
        E 0 b2 0b 7f
        E 0 92 23 7f
        E 544 82 23 00
        E 0 b2 0b 7f
        E 0 92 26 7f
        E 128 82 26 00
        E 0 b2 0b 7f
        E 0 92 28 7f
        E 144 82 28 00
        E 0 b2 0b 7f
        E 0 92 2a 7f
        E 128 82 2a 00
        E 64 b2 0b 7f
        E 0 92 2f 7f
        E 160 82 2f 00
        E 0 b2 0b 7f
        E 0 92 2e 7f
        E 64 82 2e 00
        E 0 b2 0b 7f
        E 0 92 2d 7f
        E 96 82 2d 00
        E 0 b2 0b 7f
        E 0 92 2c 7f
        E 80 82 2c 00
        E 0 b2 0b 7f
        E 0 92 2b 7f
        E 144 82 2b 00
        E 64 b2 0b 7f
        E 0 92 2d 7f
        E 272 82 2d 00
        E 0 b2 0b 7f
        E 0 92 2f 7f
        E 272 82 2f 00
        E 0 b2 0b 7f
        E 0 92 23 7f
        E 528 82 23 00
        E 0 b2 0b 7f
        E 0 92 26 7f
        E 144 82 26 00
        E 0 b2 0b 7f
        E 0 92 28 7f
        E 128 82 28 00
        E 0 b2 0b 7f
        E 0 92 2a 7f
        E 128 82 2a 00
        E 80 b2 0b 7f
        E 0 92 34 7f
        E 144 82 34 00
        E 0 b2 0b 7f
        E 0 92 33 7f
        E 64 82 33 00
        E 0 b2 0b 7f
        E 0 92 32 7f
        E 64 82 32 00
        E 0 b2 0b 7f
        E 0 92 31 7f
        E 48 82 31 00
        E 0 b2 0b 7f
        E 0 92 30 7f
        E 96 82 30 00
        E 0 b2 0b 7f
        E 0 92 2f 7f
        E 112 82 2f 00
        E 64 b2 0b 7f
        E 0 92 32 7f
        E 272 82 32 00
        E 0 b2 0b 7f
        E 0 92 34 7f
        E 272 82 34 00
        E 0 b2 0b 7f
        E 0 92 28 7f
        E 544 82 28 00
        E 0 b2 0b 7f
        E 0 92 2b 7f
        E 128 82 2b 00
        E 0 b2 0b 7f
        E 0 92 2d 7f
        E 128 82 2d 00
        E 0 b2 0b 7f
        E 0 92 2f 7f
        E 144 82 2f 00
        E 64 b2 0b 7f
        E 0 92 34 7f
        E 144 82 34 00
        E 0 b2 0b 7f
        E 0 92 33 7f
        E 48 82 33 00
        E 0 b2 0b 7f
        E 0 92 32 7f
        E 64 82 32 00
        E 0 b2 0b 7f
        E 0 92 31 7f
        E 64 82 31 00
        E 0 b2 0b 7f
        E 0 92 30 7f
        E 96 82 30 00
        E 0 b2 0b 7f
        E 0 92 2f 7f
        E 128 82 2f 00
        E 64 b2 0b 7f
        E 0 92 32 7f
        E 272 82 32 00
        E 0 b2 0b 7f
        E 0 92 34 7f
        E 256 82 34 00
        E 0 b2 0b 7f
        E 0 92 28 7f
        E 544 82 28 00
        E 0 b2 0b 7f
        E 0 92 2b 7f
        E 128 82 2b 00
        E 0 b2 0b 7f
        E 0 92 2d 7f
        E 144 82 2d 00
        E 0 b2 0b 7f
        E 0 92 2f 7f
        E 128 82 2f 00
        E 0 b2 0b 7f
        E 0 92 24 7f
        E 2144 82 24 00
        E 0 b2 0b 7f
        E 0 92 2a 7f
        E 2160 82 2a 00
        E 0 b2 0b 7f
        E 0 92 26 7f
        E 128 82 26 00
        E 0 b2 0b 7f
        E 0 92 28 7f
        E 128 82 28 00
        E 0 b2 0b 7f
        E 0 92 3d 7f
        E 144 82 3d 00
        E 0 b2 0b 7f
        E 0 92 3e 7f
        E 1616 82 3e 00
        E 0 b2 0b 7f
        E 0 92 28 7f
        E 128 82 28 00
        E 0 b2 0b 7f
        E 0 92 26 7f
        E 128 82 26 00
        E 0 b2 0b 7f
        E 0 92 28 7f
        E 144 82 28 00
        E 0 b2 0b 7f
        E 0 92 3d 7f
        E 128 82 3d 00
        E 0 b2 0b 7f
        E 0 92 3e 7f
        E 1616 82 3e 00
        E 0 b2 0b 7f
        E 0 92 28 7f
        E 128 82 28 00
        E 0 b2 0b 7f
        E 0 92 26 7f
        E 144 82 26 00
        E 0 b2 0b 7f
        E 0 92 28 7f
        E 128 82 28 00
        E 0 b2 0b 7f
        E 0 92 3d 7f
        E 128 82 3d 00
        E 0 b2 0b 7f
        E 0 92 3e 7f
        E 1616 82 3e 00
        E 0 b2 0b 7f
        E 0 92 28 7f
        E 144 82 28 00
        E 0 b2 0b 7f
        E 0 92 26 7f
        E 128 82 26 00
        E 0 b2 0b 7f
        E 0 92 28 7f
        E 128 82 28 00
        E 0 b2 0b 7f
        E 0 92 3d 7f
        E 144 82 3d 00
        E 0 b2 0b 7f
        E 0 92 3e 7f
        E 1600 82 3e 00
        E 0 b2 0b 7f
        E 0 92 28 7f
        E 144 82 28 00
        E 0 b2 0b 7f
        E 0 92 2d 7f
        E 2144 82 2d 00
        E 0 b2 0b 7f
        E 0 92 2f 7f
        E 2144 82 2f 00
        E 8608 b2 0b 7f
        E 0 92 28 7f
        E 672 82 28 00
        E 0 b2 0b 7f
        E 0 92 26 7f
        E 336 82 26 00
        E 64 b2 0b 7f
        E 0 92 28 7f
        E 1072 82 28 00
        E 0 b2 0b 7f
        E 0 92 2d 7f
        E 128 82 2d 00
        E 0 b2 0b 7f
        E 0 92 3c 7f
        E 272 82 3c 00
        E 0 b2 0b 7f
        E 0 92 2d 7f
        E 128 82 2d 00
        E 0 b2 0b 7f
        E 0 92 39 7f
        E 144 82 39 00
        E 0 b2 0b 7f
        E 0 92 2d 7f
        E 128 82 2d 00
        E 0 b2 0b 7f
        E 0 92 39 7f
        E 272 82 39 00
        E 0 b2 0b 7f
        E 0 92 2d 7f
        E 128 82 2d 00
        E 0 b2 0b 7f
        E 0 92 3c 7f
        E 272 82 3c 00
        E 0 b2 0b 7f
        E 0 92 2d 7f
        E 144 82 2d 00
        E 0 b2 0b 7f
        E 0 92 39 7f
        E 128 82 39 00
        E 0 b2 0b 7f
        E 0 92 2d 7f
        E 128 82 2d 00
        E 0 b2 0b 7f
        E 0 92 39 7f
        E 272 82 39 00
        E 4304 b2 0b 7f
        E 0 92 2d 7f
        E 128 82 2d 00
        E 0 b2 0b 7f
        E 0 92 3c 7f
        E 272 82 3c 00
        E 0 b2 0b 7f
        E 0 92 2d 7f
        E 128 82 2d 00
        E 0 b2 0b 7f
        E 0 92 39 7f
        E 144 82 39 00
        E 0 b2 0b 7f
        E 0 92 2d 7f
        E 128 82 2d 00
        E 0 b2 0b 7f
        E 0 92 39 7f
        E 272 82 39 00
        E 0 b2 0b 7f
        E 0 92 2d 7f
        E 128 82 2d 00
        E 0 b2 0b 7f
        E 0 92 3c 7f
        E 272 82 3c 00
        E 0 b2 0b 7f
        E 0 92 2d 7f
        E 144 82 2d 00
        E 0 b2 0b 7f
        E 0 92 39 7f
        E 128 82 39 00
        E 0 b2 0b 7f
        E 0 92 2d 7f
        E 128 82 2d 00
        E 0 b2 0b 7f
        E 0 92 39 7f
        E 272 82 39 00
        E 0 b2 0b 7f
        E 0 92 2f 7f
        E 272 82 2f 00
        E 0 b2 0b 7f
        E 0 92 3b 7f
        E 400 82 3b 00
        E 0 b2 0b 7f
        E 0 92 3f 7f
        E 1472 82 3f 00
        E 0 ff 2f 00
      >
    >
  >
  <TRACK {21629F05-4974-4EDA-85D4-7C5A8D2EABA1}
    NAME "NES - Noise / Drums [ch3]"
    PEAKCOL 11184810
    BEAT -1
    AUTOMODE 0
    PANLAWFLAGS 3
    VOLPAN 1 0 -1 -1 1
    MUTESOLO 0 0 0
    IPHASE 0
    PLAYOFFS 0 1
    ISBUS 0 0
    BUSCOMP 0 0 0 0 0
    SHOWINMIX 1 0.6667 0.5 1 0.5 0 0 0
    FIXEDLANES 9 0 0 0 0
    SEL 0
    REC 0 5088 1 0 0 0 0 0
    VU 2
    TRACKHEIGHT 0 0 0 0 0 0 0
    INQ 0 0 0 0.5 100 0 0 100
    NCHAN 2
    FX 1
    TRACKID {21629F05-4974-4EDA-85D4-7C5A8D2EABA1}
    PERF 0
    MIDIOUT -1
    MAINSEND 1 0
    <FXCHAIN
      WNDRECT 24 52 700 560
      SHOW 0
      LASTSEL 0
      DOCKED 0
      BYPASS 0 0 0
      <JS "ReapNES Studio/ReapNES_Console.jsfx" ""
        2 15 1 10 80 10 100 2 1 15 1 5 60 10 80 1 1 0 50 0 0 15 1 0 100 0 0 0.500000 0.500000 0.400000 0.300000 0.800000 3 1 0 0 0 0 - - - - - - - - - - - - - - - - - - - - - - - - - -
      >
      FLOATPOS 0 0 0 0
      FXID {1FA2047D-5599-42DD-9A4D-51D0A3BC85F3}
      WAK 0 0
    >
    <ITEM
      POSITION 0
      LENGTH 83.98134
      LOOP 0
      ALLTAKES 0
      FADEIN 0 0 0 0 0 0 0
      FADEOUT 0 0 0 0 0 0 0
      MUTE 0 0
      SEL 0
      IGUID {10A684B1-A52C-478C-BBDC-60B7DBCFD56F}
      <SOURCE MIDI
        HASDATA 1 480 QN
        CCINTERP 32
        E 8656 93 24 38
        E 208 83 24 00
        E 16 83 24 00
        E 16 83 24 00
        E 16 83 24 00
        E 16 83 24 00
        E 16 83 24 00
        E 16 83 24 00
        E 16 83 24 00
        E 16 83 24 00
        E 16 83 24 00
        E 16 83 24 00
        E 16 83 24 00
        E 16 83 24 00
        E 16 83 24 00
        E 16 83 24 00
        E 16 83 24 00
        E 16 83 24 00
        E 16 83 24 00
        E 16 83 24 00
        E 16 83 24 00
        E 16 83 24 00
        E 16 83 24 00
        E 16 83 24 00
        E 16 83 24 00
        E 16 83 24 00
        E 16 83 24 00
        E 16 83 24 00
        E 16 83 24 00
        E 16 83 24 00
        E 16 83 24 00
        E 16 83 24 00
        E 16 83 24 00
        E 16 83 24 00
        E 16 83 24 00
        E 16 83 24 00
        E 16 83 24 00
        E 16 83 24 00
        E 16 83 24 00
        E 16 83 24 00
        E 16 83 24 00
        E 16 83 24 00
        E 16 83 24 00
        E 16 83 24 00
        E 16 83 24 00
        E 16 83 24 00
        E 16 83 24 00
        E 16 83 24 00
        E 16 83 24 00
        E 16 83 24 00
        E 16 83 24 00
        E 16 83 24 00
        E 16 83 24 00
        E 16 83 24 00
        E 16 83 24 00
        E 16 83 24 00
        E 16 83 24 00
        E 16 83 24 00
        E 16 83 24 00
        E 16 83 24 00
        E 16 83 24 00
        E 16 83 24 00
        E 16 83 24 00
        E 16 83 24 00
        E 16 83 24 00
        E 16 83 24 00
        E 16 83 24 00
        E 16 83 24 00
        E 16 83 24 00
        E 16 83 24 00
        E 16 83 24 00
        E 16 83 24 00
        E 16 83 24 00
        E 16 83 24 00
        E 16 83 24 00
        E 16 83 24 00
        E 16 83 24 00
        E 16 83 24 00
        E 16 83 24 00
        E 16 83 24 00
        E 16 83 24 00
        E 16 83 24 00
        E 16 83 24 00
        E 16 83 24 00
        E 16 83 24 00
        E 16 83 24 00
        E 16 83 24 00
        E 16 83 24 00
        E 16 83 24 00
        E 16 83 24 00
        E 16 83 24 00
        E 16 83 24 00
        E 16 83 24 00
        E 16 83 24 00
        E 16 83 24 00
        E 16 83 24 00
        E 16 83 24 00
        E 16 83 24 00
        E 16 83 24 00
        E 16 83 24 00
        E 16 83 24 00
        E 16 83 24 00
        E 16 83 24 00
        E 16 83 24 00
        E 16 83 24 00
        E 16 83 24 00
        E 16 83 24 00
        E 16 83 24 00
        E 16 83 24 00
        E 16 83 24 00
        E 16 83 24 00
        E 16 83 24 00
        E 16 83 24 00
        E 16 83 24 00
        E 16 83 24 00
        E 16 83 24 00
        E 16 83 24 00
        E 16 83 24 00
        E 16 83 24 00
        E 16 83 24 00
        E 16 83 24 00
        E 16 83 24 00
        E 16 83 24 00
        E 16 83 24 00
        E 16 83 24 00
        E 16 83 24 00
        E 16 83 24 00
        E 16 83 24 00
        E 16 83 24 00
        E 16 83 24 00
        E 16 83 24 00
        E 16 83 24 00
        E 16 83 24 00
        E 16 83 24 00
        E 16 83 24 00
        E 80 93 2a 38
        E 176 83 2a 00
        E 16 83 2a 00
        E 80 93 26 38
        E 176 83 26 00
        E 16 83 26 00
        E 16 83 26 00
        E 64 93 2a 38
        E 176 83 2a 00
        E 16 83 2a 00
        E 16 83 2a 00
        E 48 93 24 38
        E 160 83 24 00
        E 16 83 24 00
        E 16 83 24 00
        E 80 93 2a 38
        E 160 83 2a 00
        E 16 83 2a 00
        E 16 83 2a 00
        E 80 93 26 38
        E 176 83 26 00
        E 16 83 26 00
        E 16 83 26 00
        E 64 93 2a 38
        E 176 83 2a 00
        E 16 83 2a 00
        E 16 83 2a 00
        E 48 93 24 38
        E 160 83 24 00
        E 16 83 24 00
        E 16 83 24 00
        E 80 93 2a 38
        E 160 83 2a 00
        E 16 83 2a 00
        E 16 83 2a 00
        E 80 93 26 38
        E 160 83 26 00
        E 16 83 26 00
        E 16 83 26 00
        E 80 93 2a 38
        E 176 83 2a 00
        E 16 83 2a 00
        E 16 83 2a 00
        E 64 93 24 38
        E 176 83 24 00
        E 16 83 24 00
        E 16 83 24 00
        E 48 93 2a 38
        E 160 83 2a 00
        E 16 83 2a 00
        E 16 83 2a 00
        E 80 93 26 38
        E 160 83 26 00
        E 16 83 26 00
        E 16 83 26 00
        E 80 93 2a 38
        E 176 83 2a 00
        E 16 83 2a 00
        E 80 93 24 38
        E 176 83 24 00
        E 16 83 24 00
        E 16 83 24 00
        E 64 93 2a 38
        E 176 83 2a 00
        E 16 83 2a 00
        E 16 83 2a 00
        E 48 93 26 38
        E 160 83 26 00
        E 16 83 26 00
        E 16 83 26 00
        E 80 93 2a 38
        E 160 83 2a 00
        E 16 83 2a 00
        E 16 83 2a 00
        E 80 93 24 38
        E 176 83 24 00
        E 16 83 24 00
        E 16 83 24 00
        E 64 93 2a 38
        E 176 83 2a 00
        E 16 83 2a 00
        E 16 83 2a 00
        E 48 93 26 38
        E 160 83 26 00
        E 16 83 26 00
        E 16 83 26 00
        E 80 93 2a 38
        E 160 83 2a 00
        E 16 83 2a 00
        E 16 83 2a 00
        E 80 93 24 38
        E 160 83 24 00
        E 16 83 24 00
        E 16 83 24 00
        E 80 93 2a 38
        E 176 83 2a 00
        E 16 83 2a 00
        E 16 83 2a 00
        E 64 93 26 38
        E 176 83 26 00
        E 16 83 26 00
        E 16 83 26 00
        E 48 93 2a 38
        E 160 83 2a 00
        E 16 83 2a 00
        E 16 83 2a 00
        E 80 93 24 38
        E 160 83 24 00
        E 16 83 24 00
        E 16 83 24 00
        E 80 93 2a 38
        E 176 83 2a 00
        E 16 83 2a 00
        E 80 93 26 38
        E 176 83 26 00
        E 16 83 26 00
        E 16 83 26 00
        E 64 93 2a 38
        E 176 83 2a 00
        E 16 83 2a 00
        E 16 83 2a 00
        E 48 93 24 58
        E 208 83 24 00
        E 16 83 24 00
        E 16 83 24 00
        E 16 83 24 00
        E 16 83 24 00
        E 16 83 24 00
        E 16 83 24 00
        E 16 83 24 00
        E 16 83 24 00
        E 16 83 24 00
        E 16 83 24 00
        E 16 83 24 00
        E 16 83 24 00
        E 16 83 24 00
        E 16 83 24 00
        E 16 83 24 00
        E 16 83 24 00
        E 16 83 24 00
        E 16 83 24 00
        E 16 83 24 00
        E 16 83 24 00
        E 16 83 24 00
        E 16 83 24 00
        E 16 83 24 00
        E 16 83 24 00
        E 16 83 24 00
        E 16 83 24 00
        E 16 83 24 00
        E 16 83 24 00
        E 16 83 24 00
        E 16 83 24 00
        E 16 83 24 00
        E 16 83 24 00
        E 16 83 24 00
        E 16 83 24 00
        E 16 83 24 00
        E 16 83 24 00
        E 16 83 24 00
        E 16 83 24 00
        E 16 83 24 00
        E 16 83 24 00
        E 16 83 24 00
        E 16 83 24 00
        E 16 83 24 00
        E 16 83 24 00
        E 16 83 24 00
        E 16 83 24 00
        E 16 83 24 00
        E 16 83 24 00
        E 16 83 24 00
        E 16 83 24 00
        E 16 83 24 00
        E 16 83 24 00
        E 16 83 24 00
        E 16 83 24 00
        E 16 83 24 00
        E 16 83 24 00
        E 16 83 24 00
        E 16 83 24 00
        E 16 83 24 00
        E 16 83 24 00
        E 16 83 24 00
        E 16 83 24 00
        E 16 83 24 00
        E 16 83 24 00
        E 16 83 24 00
        E 16 83 24 00
        E 16 83 24 00
        E 16 83 24 00
        E 16 83 24 00
        E 16 83 24 00
        E 16 83 24 00
        E 16 83 24 00
        E 16 83 24 00
        E 16 83 24 00
        E 16 83 24 00
        E 16 83 24 00
        E 16 83 24 00
        E 16 83 24 00
        E 16 83 24 00
        E 16 83 24 00
        E 16 83 24 00
        E 16 83 24 00
        E 16 83 24 00
        E 16 83 24 00
        E 16 83 24 00
        E 16 83 24 00
        E 16 83 24 00
        E 16 83 24 00
        E 16 83 24 00
        E 16 83 24 00
        E 16 83 24 00
        E 16 83 24 00
        E 16 83 24 00
        E 16 83 24 00
        E 16 83 24 00
        E 16 83 24 00
        E 16 83 24 00
        E 16 83 24 00
        E 16 83 24 00
        E 16 83 24 00
        E 16 83 24 00
        E 16 83 24 00
        E 16 83 24 00
        E 16 83 24 00
        E 16 83 24 00
        E 16 83 24 00
        E 16 83 24 00
        E 16 83 24 00
        E 16 83 24 00
        E 16 83 24 00
        E 16 83 24 00
        E 16 83 24 00
        E 16 83 24 00
        E 16 83 24 00
        E 16 83 24 00
        E 16 83 24 00
        E 16 83 24 00
        E 16 83 24 00
        E 16 83 24 00
        E 16 83 24 00
        E 16 83 24 00
        E 16 83 24 00
        E 16 83 24 00
        E 16 83 24 00
        E 16 83 24 00
        E 16 83 24 00
        E 16 83 24 00
        E 16 83 24 00
        E 16 83 24 00
        E 16 83 24 00
        E 16 83 24 00
        E 16 83 24 00
        E 16 83 24 00
        E 16 83 24 00
        E 16 83 24 00
        E 16 83 24 00
        E 16 83 24 00
        E 16 83 24 00
        E 16 83 24 00
        E 16 83 24 00
        E 16 83 24 00
        E 16 83 24 00
        E 16 83 24 00
        E 16 83 24 00
        E 16 83 24 00
        E 16 83 24 00
        E 16 83 24 00
        E 16 83 24 00
        E 16 83 24 00
        E 16 83 24 00
        E 16 83 24 00
        E 16 83 24 00
        E 16 83 24 00
        E 16 83 24 00
        E 16 83 24 00
        E 16 83 24 00
        E 16 83 24 00
        E 16 83 24 00
        E 16 83 24 00
        E 16 83 24 00
        E 16 83 24 00
        E 16 83 24 00
        E 16 83 24 00
        E 16 83 24 00
        E 16 83 24 00
        E 16 83 24 00
        E 16 83 24 00
        E 16 83 24 00
        E 16 83 24 00
        E 16 83 24 00
        E 16 83 24 00
        E 16 83 24 00
        E 16 83 24 00
        E 16 83 24 00
        E 16 83 24 00
        E 16 83 24 00
        E 16 83 24 00
        E 16 83 24 00
        E 16 83 24 00
        E 16 83 24 00
        E 16 83 24 00
        E 16 83 24 00
        E 16 83 24 00
        E 16 83 24 00
        E 16 83 24 00
        E 16 83 24 00
        E 16 83 24 00
        E 16 83 24 00
        E 16 83 24 00
        E 16 83 24 00
        E 16 83 24 00
        E 16 83 24 00
        E 16 83 24 00
        E 16 83 24 00
        E 16 83 24 00
        E 16 83 24 00
        E 16 83 24 00
        E 16 83 24 00
        E 16 83 24 00
        E 16 83 24 00
        E 16 83 24 00
        E 16 83 24 00
        E 16 83 24 00
        E 16 83 24 00
        E 16 83 24 00
        E 16 83 24 00
        E 16 83 24 00
        E 16 83 24 00
        E 16 83 24 00
        E 16 83 24 00
        E 16 83 24 00
        E 16 83 24 00
        E 16 83 24 00
        E 16 83 24 00
        E 16 83 24 00
        E 16 83 24 00
        E 16 83 24 00
        E 16 83 24 00
        E 16 83 24 00
        E 16 83 24 00
        E 16 83 24 00
        E 16 83 24 00
        E 16 83 24 00
        E 16 83 24 00
        E 16 83 24 00
        E 16 83 24 00
        E 16 83 24 00
        E 16 83 24 00
        E 16 83 24 00
        E 16 83 24 00
        E 16 83 24 00
        E 16 83 24 00
        E 16 83 24 00
        E 16 83 24 00
        E 16 83 24 00
        E 16 83 24 00
        E 16 83 24 00
        E 16 83 24 00
        E 16 83 24 00
        E 16 83 24 00
        E 16 83 24 00
        E 16 83 24 00
        E 16 83 24 00
        E 16 83 24 00
        E 16 83 24 00
        E 16 83 24 00
        E 16 83 24 00
        E 16 83 24 00
        E 16 83 24 00
        E 16 83 24 00
        E 16 83 24 00
        E 16 83 24 00
        E 16 83 24 00
        E 16 83 24 00
        E 16 83 24 00
        E 16 83 24 00
        E 16 83 24 00
        E 16 83 24 00
        E 16 83 24 00
        E 16 83 24 00
        E 16 83 24 00
        E 16 83 24 00
        E 16 83 24 00
        E 16 83 24 00
        E 16 83 24 00
        E 16 83 24 00
        E 16 83 24 00
        E 16 83 24 00
        E 16 83 24 00
        E 16 83 24 00
        E 16 83 24 00
        E 16 83 24 00
        E 16 83 24 00
        E 16 83 24 00
        E 16 83 24 00
        E 16 83 24 00
        E 16 83 24 00
        E 16 83 24 00
        E 16 83 24 00
        E 16 83 24 00
        E 16 83 24 00
        E 16 83 24 00
        E 16 83 24 00
        E 16 83 24 00
        E 16 83 24 00
        E 16 83 24 00
        E 16 83 24 00
        E 16 83 24 00
        E 16 83 24 00
        E 16 83 24 00
        E 16 83 24 00
        E 16 83 24 00
        E 16 83 24 00
        E 16 83 24 00
        E 16 83 24 00
        E 16 83 24 00
        E 16 83 24 00
        E 16 83 24 00
        E 16 83 24 00
        E 16 83 24 00
        E 16 83 24 00
        E 16 83 24 00
        E 16 83 24 00
        E 16 83 24 00
        E 16 83 24 00
        E 16 83 24 00
        E 16 83 24 00
        E 16 83 24 00
        E 16 83 24 00
        E 16 83 24 00
        E 16 83 24 00
        E 16 83 24 00
        E 16 83 24 00
        E 16 83 24 00
        E 16 83 24 00
        E 16 83 24 00
        E 16 83 24 00
        E 16 83 24 00
        E 16 83 24 00
        E 16 83 24 00
        E 16 83 24 00
        E 16 83 24 00
        E 16 83 24 00
        E 16 83 24 00
        E 16 83 24 00
        E 16 83 24 00
        E 16 83 24 00
        E 16 83 24 00
        E 16 83 24 00
        E 16 83 24 00
        E 16 83 24 00
        E 16 83 24 00
        E 16 83 24 00
        E 16 83 24 00
        E 16 83 24 00
        E 16 83 24 00
        E 16 83 24 00
        E 16 83 24 00
        E 16 83 24 00
        E 16 83 24 00
        E 16 83 24 00
        E 16 83 24 00
        E 16 83 24 00
        E 16 83 24 00
        E 16 83 24 00
        E 16 83 24 00
        E 16 83 24 00
        E 16 83 24 00
        E 16 83 24 00
        E 16 83 24 00
        E 16 83 24 00
        E 16 83 24 00
        E 16 83 24 00
        E 16 83 24 00
        E 16 83 24 00
        E 16 83 24 00
        E 16 83 24 00
        E 16 83 24 00
        E 16 83 24 00
        E 16 83 24 00
        E 16 83 24 00
        E 16 83 24 00
        E 16 83 24 00
        E 16 83 24 00
        E 16 83 24 00
        E 16 83 24 00
        E 16 83 24 00
        E 16 83 24 00
        E 16 83 24 00
        E 16 83 24 00
        E 16 83 24 00
        E 16 83 24 00
        E 16 83 24 00
        E 16 83 24 00
        E 16 83 24 00
        E 16 83 24 00
        E 16 83 24 00
        E 16 83 24 00
        E 16 83 24 00
        E 16 83 24 00
        E 16 83 24 00
        E 16 83 24 00
        E 16 83 24 00
        E 16 83 24 00
        E 16 83 24 00
        E 16 83 24 00
        E 16 83 24 00
        E 16 83 24 00
        E 16 83 24 00
        E 16 83 24 00
        E 16 83 24 00
        E 16 83 24 00
        E 16 83 24 00
        E 16 83 24 00
        E 16 83 24 00
        E 16 83 24 00
        E 16 83 24 00
        E 16 83 24 00
        E 16 83 24 00
        E 16 83 24 00
        E 16 83 24 00
        E 16 83 24 00
        E 16 83 24 00
        E 16 83 24 00
        E 16 83 24 00
        E 16 83 24 00
        E 16 83 24 00
        E 16 83 24 00
        E 16 83 24 00
        E 16 83 24 00
        E 16 83 24 00
        E 16 83 24 00
        E 16 83 24 00
        E 16 83 24 00
        E 16 83 24 00
        E 16 83 24 00
        E 16 83 24 00
        E 16 83 24 00
        E 16 83 24 00
        E 16 83 24 00
        E 16 83 24 00
        E 16 83 24 00
        E 16 83 24 00
        E 16 83 24 00
        E 16 83 24 00
        E 16 83 24 00
        E 16 83 24 00
        E 16 83 24 00
        E 16 83 24 00
        E 16 83 24 00
        E 16 83 24 00
        E 16 83 24 00
        E 16 83 24 00
        E 16 83 24 00
        E 16 83 24 00
        E 16 83 24 00
        E 16 83 24 00
        E 16 83 24 00
        E 16 83 24 00
        E 16 83 24 00
        E 16 83 24 00
        E 16 83 24 00
        E 16 83 24 00
        E 16 83 24 00
        E 16 83 24 00
        E 16 83 24 00
        E 16 83 24 00
        E 16 83 24 00
        E 16 83 24 00
        E 16 83 24 00
        E 16 83 24 00
        E 16 83 24 00
        E 16 83 24 00
        E 16 83 24 00
        E 16 83 24 00
        E 16 83 24 00
        E 16 83 24 00
        E 16 83 24 00
        E 16 83 24 00
        E 16 83 24 00
        E 16 83 24 00
        E 16 83 24 00
        E 16 83 24 00
        E 16 83 24 00
        E 16 83 24 00
        E 16 83 24 00
        E 16 83 24 00
        E 16 83 24 00
        E 16 83 24 00
        E 16 83 24 00
        E 16 83 24 00
        E 16 83 24 00
        E 16 83 24 00
        E 16 83 24 00
        E 16 83 24 00
        E 16 83 24 00
        E 16 83 24 00
        E 16 83 24 00
        E 16 83 24 00
        E 16 83 24 00
        E 16 83 24 00
        E 16 83 24 00
        E 16 83 24 00
        E 16 83 24 00
        E 16 83 24 00
        E 16 83 24 00
        E 16 83 24 00
        E 16 83 24 00
        E 16 83 24 00
        E 16 83 24 00
        E 16 83 24 00
        E 16 83 24 00
        E 16 83 24 00
        E 16 83 24 00
        E 16 83 24 00
        E 16 83 24 00
        E 16 83 24 00
        E 16 83 24 00
        E 16 83 24 00
        E 16 83 24 00
        E 16 83 24 00
        E 16 83 24 00
        E 16 83 24 00
        E 16 83 24 00
        E 16 83 24 00
        E 16 83 24 00
        E 16 83 24 00
        E 16 83 24 00
        E 16 83 24 00
        E 16 83 24 00
        E 16 83 24 00
        E 16 83 24 00
        E 16 83 24 00
        E 16 83 24 00
        E 16 83 24 00
        E 16 83 24 00
        E 16 83 24 00
        E 16 83 24 00
        E 16 83 24 00
        E 16 83 24 00
        E 16 83 24 00
        E 16 83 24 00
        E 16 83 24 00
        E 16 83 24 00
        E 16 83 24 00
        E 16 83 24 00
        E 16 83 24 00
        E 16 83 24 00
        E 16 83 24 00
        E 16 83 24 00
        E 16 83 24 00
        E 16 83 24 00
        E 16 83 24 00
        E 16 83 24 00
        E 16 83 24 00
        E 16 83 24 00
        E 16 83 24 00
        E 16 83 24 00
        E 16 83 24 00
        E 16 83 24 00
        E 16 83 24 00
        E 16 83 24 00
        E 16 83 24 00
        E 16 83 24 00
        E 16 83 24 00
        E 16 83 24 00
        E 16 83 24 00
        E 16 83 24 00
        E 16 83 24 00
        E 16 83 24 00
        E 16 83 24 00
        E 16 83 24 00
        E 16 83 24 00
        E 16 83 24 00
        E 16 83 24 00
        E 16 83 24 00
        E 16 83 24 00
        E 16 83 24 00
        E 16 83 24 00
        E 16 83 24 00
        E 16 83 24 00
        E 16 83 24 00
        E 16 83 24 00
        E 16 83 24 00
        E 16 83 24 00
        E 16 83 24 00
        E 16 83 24 00
        E 16 83 24 00
        E 16 83 24 00
        E 16 83 24 00
        E 16 83 24 00
        E 16 83 24 00
        E 16 83 24 00
        E 16 83 24 00
        E 16 83 24 00
        E 16 83 24 00
        E 16 83 24 00
        E 16 83 24 00
        E 16 83 24 00
        E 16 83 24 00
        E 16 83 24 00
        E 16 83 24 00
        E 16 83 24 00
        E 16 83 24 00
        E 16 83 24 00
        E 16 83 24 00
        E 16 83 24 00
        E 16 83 24 00
        E 16 83 24 00
        E 16 83 24 00
        E 16 83 24 00
        E 16 83 24 00
        E 16 83 24 00
        E 16 83 24 00
        E 16 83 24 00
        E 16 83 24 00
        E 16 83 24 00
        E 16 83 24 00
        E 16 83 24 00
        E 16 83 24 00
        E 16 83 24 00
        E 16 83 24 00
        E 16 83 24 00
        E 16 83 24 00
        E 16 83 24 00
        E 16 83 24 00
        E 16 83 24 00
        E 16 83 24 00
        E 16 83 24 00
        E 16 83 24 00
        E 16 83 24 00
        E 16 83 24 00
        E 16 83 24 00
        E 16 83 24 00
        E 16 83 24 00
        E 16 83 24 00
        E 16 83 24 00
        E 16 83 24 00
        E 16 83 24 00
        E 16 83 24 00
        E 16 83 24 00
        E 16 83 24 00
        E 16 83 24 00
        E 16 83 24 00
        E 16 83 24 00
        E 16 83 24 00
        E 16 83 24 00
        E 16 83 24 00
        E 16 83 24 00
        E 16 83 24 00
        E 16 83 24 00
        E 16 83 24 00
        E 16 83 24 00
        E 16 83 24 00
        E 16 83 24 00
        E 16 83 24 00
        E 16 83 24 00
        E 16 83 24 00
        E 16 83 24 00
        E 16 83 24 00
        E 16 83 24 00
        E 16 83 24 00
        E 16 83 24 00
        E 16 83 24 00
        E 16 83 24 00
        E 16 83 24 00
        E 16 83 24 00
        E 16 83 24 00
        E 16 83 24 00
        E 16 83 24 00
        E 16 83 24 00
        E 16 83 24 00
        E 16 83 24 00
        E 16 83 24 00
        E 16 83 24 00
        E 16 83 24 00
        E 16 83 24 00
        E 16 83 24 00
        E 16 83 24 00
        E 16 83 24 00
        E 16 83 24 00
        E 16 83 24 00
        E 16 83 24 00
        E 16 83 24 00
        E 16 83 24 00
        E 16 83 24 00
        E 16 83 24 00
        E 16 83 24 00
        E 16 83 24 00
        E 16 83 24 00
        E 16 83 24 00
        E 16 83 24 00
        E 16 83 24 00
        E 16 83 24 00
        E 16 83 24 00
        E 16 83 24 00
        E 16 83 24 00
        E 16 83 24 00
        E 16 83 24 00
        E 16 83 24 00
        E 16 83 24 00
        E 16 83 24 00
        E 16 83 24 00
        E 16 83 24 00
        E 16 83 24 00
        E 16 83 24 00
        E 16 83 24 00
        E 16 83 24 00
        E 16 83 24 00
        E 16 83 24 00
        E 16 83 24 00
        E 16 83 24 00
        E 16 83 24 00
        E 16 83 24 00
        E 16 83 24 00
        E 16 83 24 00
        E 16 83 24 00
        E 16 83 24 00
        E 16 83 24 00
        E 16 83 24 00
        E 16 83 24 00
        E 16 83 24 00
        E 16 83 24 00
        E 16 83 24 00
        E 16 83 24 00
        E 16 83 24 00
        E 16 83 24 00
        E 16 83 24 00
        E 16 83 24 00
        E 16 83 24 00
        E 16 83 24 00
        E 16 83 24 00
        E 16 83 24 00
        E 16 83 24 00
        E 16 83 24 00
        E 16 83 24 00
        E 16 83 24 00
        E 16 83 24 00
        E 16 83 24 00
        E 16 83 24 00
        E 16 83 24 00
        E 16 83 24 00
        E 16 83 24 00
        E 16 83 24 00
        E 16 83 24 00
        E 16 83 24 00
        E 16 83 24 00
        E 16 83 24 00
        E 16 83 24 00
        E 16 83 24 00
        E 16 83 24 00
        E 16 83 24 00
        E 16 83 24 00
        E 16 83 24 00
        E 16 83 24 00
        E 16 83 24 00
        E 16 83 24 00
        E 16 83 24 00
        E 16 83 24 00
        E 16 83 24 00
        E 16 83 24 00
        E 16 83 24 00
        E 16 83 24 00
        E 16 83 24 00
        E 16 83 24 00
        E 16 83 24 00
        E 16 83 24 00
        E 16 83 24 00
        E 16 83 24 00
        E 16 83 24 00
        E 16 83 24 00
        E 16 83 24 00
        E 16 83 24 00
        E 16 83 24 00
        E 16 83 24 00
        E 16 83 24 00
        E 16 83 24 00
        E 16 83 24 00
        E 16 83 24 00
        E 16 83 24 00
        E 16 83 24 00
        E 16 83 24 00
        E 16 83 24 00
        E 16 83 24 00
        E 16 83 24 00
        E 16 83 24 00
        E 16 83 24 00
        E 16 83 24 00
        E 16 83 24 00
        E 16 83 24 00
        E 16 83 24 00
        E 16 83 24 00
        E 16 83 24 00
        E 16 83 24 00
        E 16 83 24 00
        E 16 83 24 00
        E 16 83 24 00
        E 16 83 24 00
        E 16 83 24 00
        E 16 83 24 00
        E 16 83 24 00
        E 16 83 24 00
        E 16 83 24 00
        E 16 83 24 00
        E 16 83 24 00
        E 16 83 24 00
        E 16 83 24 00
        E 16 83 24 00
        E 16 83 24 00
        E 16 83 24 00
        E 16 83 24 00
        E 16 83 24 00
        E 16 83 24 00
        E 16 83 24 00
        E 16 83 24 00
        E 16 83 24 00
        E 16 83 24 00
        E 16 83 24 00
        E 16 83 24 00
        E 16 83 24 00
        E 16 83 24 00
        E 16 83 24 00
        E 16 83 24 00
        E 16 83 24 00
        E 16 83 24 00
        E 16 83 24 00
        E 16 83 24 00
        E 16 83 24 00
        E 16 83 24 00
        E 16 83 24 00
        E 16 83 24 00
        E 16 83 24 00
        E 16 83 24 00
        E 16 83 24 00
        E 16 83 24 00
        E 16 83 24 00
        E 16 83 24 00
        E 16 83 24 00
        E 16 83 24 00
        E 16 83 24 00
        E 16 83 24 00
        E 16 83 24 00
        E 16 83 24 00
        E 16 83 24 00
        E 16 83 24 00
        E 16 83 24 00
        E 16 83 24 00
        E 16 83 24 00
        E 16 83 24 00
        E 16 83 24 00
        E 16 83 24 00
        E 16 83 24 00
        E 16 83 24 00
        E 16 83 24 00
        E 16 83 24 00
        E 16 83 24 00
        E 16 83 24 00
        E 16 83 24 00
        E 16 83 24 00
        E 16 83 24 00
        E 16 83 24 00
        E 16 83 24 00
        E 16 83 24 00
        E 16 83 24 00
        E 16 83 24 00
        E 16 83 24 00
        E 16 83 24 00
        E 16 83 24 00
        E 16 83 24 00
        E 16 83 24 00
        E 16 83 24 00
        E 16 83 24 00
        E 16 83 24 00
        E 16 83 24 00
        E 16 83 24 00
        E 16 83 24 00
        E 16 83 24 00
        E 16 83 24 00
        E 16 83 24 00
        E 16 83 24 00
        E 16 83 24 00
        E 16 83 24 00
        E 16 83 24 00
        E 16 83 24 00
        E 16 83 24 00
        E 16 83 24 00
        E 16 83 24 00
        E 16 83 24 00
        E 16 83 24 00
        E 16 83 24 00
        E 16 83 24 00
        E 16 83 24 00
        E 16 83 24 00
        E 16 83 24 00
        E 16 83 24 00
        E 16 83 24 00
        E 16 83 24 00
        E 16 83 24 00
        E 16 83 24 00
        E 16 83 24 00
        E 16 83 24 00
        E 16 83 24 00
        E 16 83 24 00
        E 16 83 24 00
        E 16 83 24 00
        E 16 83 24 00
        E 16 83 24 00
        E 16 83 24 00
        E 16 83 24 00
        E 16 83 24 00
        E 16 83 24 00
        E 16 83 24 00
        E 16 83 24 00
        E 16 83 24 00
        E 16 83 24 00
        E 16 83 24 00
        E 16 83 24 00
        E 16 83 24 00
        E 16 83 24 00
        E 16 83 24 00
        E 16 83 24 00
        E 16 83 24 00
        E 16 83 24 00
        E 16 83 24 00
        E 16 83 24 00
        E 16 83 24 00
        E 16 83 24 00
        E 16 83 24 00
        E 16 83 24 00
        E 16 83 24 00
        E 16 83 24 00
        E 16 83 24 00
        E 16 83 24 00
        E 16 83 24 00
        E 16 83 24 00
        E 16 83 24 00
        E 16 83 24 00
        E 16 83 24 00
        E 16 83 24 00
        E 16 83 24 00
        E 16 83 24 00
        E 16 83 24 00
        E 16 83 24 00
        E 16 83 24 00
        E 16 83 24 00
        E 16 83 24 00
        E 16 83 24 00
        E 16 83 24 00
        E 16 83 24 00
        E 16 83 24 00
        E 16 83 24 00
        E 16 83 24 00
        E 16 83 24 00
        E 16 83 24 00
        E 16 83 24 00
        E 16 83 24 00
        E 16 83 24 00
        E 16 83 24 00
        E 16 83 24 00
        E 16 83 24 00
        E 16 83 24 00
        E 16 83 24 00
        E 16 83 24 00
        E 16 83 24 00
        E 16 83 24 00
        E 16 83 24 00
        E 16 83 24 00
        E 16 83 24 00
        E 16 83 24 00
        E 16 83 24 00
        E 16 83 24 00
        E 16 83 24 00
        E 16 83 24 00
        E 16 83 24 00
        E 16 83 24 00
        E 16 83 24 00
        E 16 83 24 00
        E 16 83 24 00
        E 16 83 24 00
        E 16 83 24 00
        E 16 83 24 00
        E 16 83 24 00
        E 16 83 24 00
        E 16 83 24 00
        E 16 83 24 00
        E 16 83 24 00
        E 16 83 24 00
        E 16 83 24 00
        E 16 83 24 00
        E 16 83 24 00
        E 16 83 24 00
        E 16 83 24 00
        E 16 83 24 00
        E 16 83 24 00
        E 16 83 24 00
        E 16 83 24 00
        E 16 83 24 00
        E 16 83 24 00
        E 16 83 24 00
        E 16 83 24 00
        E 16 83 24 00
        E 16 83 24 00
        E 16 83 24 00
        E 16 83 24 00
        E 16 83 24 00
        E 16 83 24 00
        E 16 83 24 00
        E 16 83 24 00
        E 16 83 24 00
        E 16 83 24 00
        E 16 83 24 00
        E 16 83 24 00
        E 16 83 24 00
        E 16 83 24 00
        E 16 83 24 00
        E 16 83 24 00
        E 16 83 24 00
        E 16 83 24 00
        E 16 83 24 00
        E 16 83 24 00
        E 16 83 24 00
        E 16 83 24 00
        E 16 83 24 00
        E 16 83 24 00
        E 16 83 24 00
        E 16 83 24 00
        E 16 83 24 00
        E 16 83 24 00
        E 16 83 24 00
        E 16 83 24 00
        E 16 83 24 00
        E 16 83 24 00
        E 16 83 24 00
        E 16 83 24 00
        E 16 83 24 00
        E 16 83 24 00
        E 16 83 24 00
        E 16 83 24 00
        E 16 83 24 00
        E 16 83 24 00
        E 16 83 24 00
        E 16 83 24 00
        E 16 83 24 00
        E 16 83 24 00
        E 16 83 24 00
        E 16 83 24 00
        E 16 83 24 00
        E 16 83 24 00
        E 16 83 24 00
        E 16 83 24 00
        E 16 83 24 00
        E 16 83 24 00
        E 16 83 24 00
        E 16 83 24 00
        E 16 83 24 00
        E 16 83 24 00
        E 16 83 24 00
        E 16 83 24 00
        E 16 83 24 00
        E 16 83 24 00
        E 16 83 24 00
        E 16 83 24 00
        E 16 83 24 00
        E 16 83 24 00
        E 16 83 24 00
        E 16 83 24 00
        E 16 83 24 00
        E 16 83 24 00
        E 16 83 24 00
        E 16 83 24 00
        E 16 83 24 00
        E 16 83 24 00
        E 16 83 24 00
        E 16 83 24 00
        E 16 83 24 00
        E 16 83 24 00
        E 16 83 24 00
        E 16 83 24 00
        E 16 83 24 00
        E 16 83 24 00
        E 16 83 24 00
        E 16 83 24 00
        E 16 83 24 00
        E 16 83 24 00
        E 16 83 24 00
        E 16 83 24 00
        E 16 83 24 00
        E 16 83 24 00
        E 16 83 24 00
        E 16 83 24 00
        E 16 83 24 00
        E 16 83 24 00
        E 16 83 24 00
        E 16 83 24 00
        E 16 83 24 00
        E 16 83 24 00
        E 16 83 24 00
        E 16 83 24 00
        E 16 83 24 00
        E 16 83 24 00
        E 16 83 24 00
        E 16 83 24 00
        E 16 83 24 00
        E 16 83 24 00
        E 16 83 24 00
        E 16 83 24 00
        E 16 83 24 00
        E 16 83 24 00
        E 16 83 24 00
        E 16 83 24 00
        E 16 83 24 00
        E 16 83 24 00
        E 16 83 24 00
        E 16 83 24 00
        E 16 83 24 00
        E 16 83 24 00
        E 16 83 24 00
        E 16 83 24 00
        E 16 83 24 00
        E 16 83 24 00
        E 16 83 24 00
        E 16 83 24 00
        E 16 83 24 00
        E 16 83 24 00
        E 16 83 24 00
        E 16 83 24 00
        E 16 83 24 00
        E 16 83 24 00
        E 16 83 24 00
        E 16 83 24 00
        E 16 83 24 00
        E 16 83 24 00
        E 16 83 24 00
        E 16 83 24 00
        E 16 83 24 00
        E 16 83 24 00
        E 16 83 24 00
        E 16 83 24 00
        E 16 83 24 00
        E 16 83 24 00
        E 16 83 24 00
        E 16 83 24 00
        E 16 83 24 00
        E 16 83 24 00
        E 16 83 24 00
        E 16 83 24 00
        E 16 83 24 00
        E 16 83 24 00
        E 16 83 24 00
        E 16 83 24 00
        E 16 83 24 00
        E 16 83 24 00
        E 16 83 24 00
        E 16 83 24 00
        E 16 83 24 00
        E 16 83 24 00
        E 16 83 24 00
        E 16 83 24 00
        E 16 83 24 00
        E 16 83 24 00
        E 16 83 24 00
        E 16 83 24 00
        E 16 83 24 00
        E 16 83 24 00
        E 16 83 24 00
        E 16 83 24 00
        E 16 83 24 00
        E 16 83 24 00
        E 16 83 24 00
        E 16 83 24 00
        E 16 83 24 00
        E 16 83 24 00
        E 16 83 24 00
        E 16 83 24 00
        E 16 83 24 00
        E 16 83 24 00
        E 16 83 24 00
        E 16 83 24 00
        E 16 83 24 00
        E 16 83 24 00
        E 16 83 24 00
        E 16 83 24 00
        E 16 83 24 00
        E 16 83 24 00
        E 16 83 24 00
        E 16 83 24 00
        E 16 83 24 00
        E 16 83 24 00
        E 16 83 24 00
        E 16 83 24 00
        E 16 83 24 00
        E 16 83 24 00
        E 16 83 24 00
        E 16 83 24 00
        E 16 83 24 00
        E 16 83 24 00
        E 16 83 24 00
        E 16 83 24 00
        E 16 83 24 00
        E 16 83 24 00
        E 16 83 24 00
        E 16 83 24 00
        E 16 83 24 00
        E 16 83 24 00
        E 16 83 24 00
        E 16 83 24 00
        E 16 83 24 00
        E 16 83 24 00
        E 16 83 24 00
        E 16 83 24 00
        E 16 83 24 00
        E 16 83 24 00
        E 16 83 24 00
        E 16 83 24 00
        E 16 83 24 00
        E 16 83 24 00
        E 16 83 24 00
        E 16 83 24 00
        E 16 83 24 00
        E 16 83 24 00
        E 16 83 24 00
        E 16 83 24 00
        E 16 83 24 00
        E 16 83 24 00
        E 16 83 24 00
        E 16 83 24 00
        E 16 83 24 00
        E 16 83 24 00
        E 16 83 24 00
        E 16 83 24 00
        E 16 83 24 00
        E 16 83 24 00
        E 16 83 24 00
        E 16 83 24 00
        E 16 83 24 00
        E 16 83 24 00
        E 16 83 24 00
        E 16 83 24 00
        E 16 83 24 00
        E 16 83 24 00
        E 16 83 24 00
        E 16 83 24 00
        E 16 83 24 00
        E 16 83 24 00
        E 16 83 24 00
        E 16 83 24 00
        E 16 83 24 00
        E 16 83 24 00
        E 16 83 24 00
        E 16 83 24 00
        E 16 83 24 00
        E 16 83 24 00
        E 16 83 24 00
        E 16 83 24 00
        E 16 83 24 00
        E 16 83 24 00
        E 16 83 24 00
        E 16 83 24 00
        E 16 83 24 00
        E 16 83 24 00
        E 16 83 24 00
        E 16 83 24 00
        E 16 83 24 00
        E 16 83 24 00
        E 16 83 24 00
        E 16 83 24 00
        E 16 83 24 00
        E 16 83 24 00
        E 16 83 24 00
        E 16 83 24 00
        E 16 83 24 00
        E 16 83 24 00
        E 16 83 24 00
        E 16 83 24 00
        E 16 83 24 00
        E 16 83 24 00
        E 16 83 24 00
        E 16 83 24 00
        E 16 83 24 00
        E 16 83 24 00
        E 16 83 24 00
        E 16 83 24 00
        E 16 83 24 00
        E 16 83 24 00
        E 16 83 24 00
        E 16 83 24 00
        E 16 83 24 00
        E 16 83 24 00
        E 16 83 24 00
        E 16 83 24 00
        E 16 83 24 00
        E 16 83 24 00
        E 16 83 24 00
        E 16 83 24 00
        E 16 83 24 00
        E 16 83 24 00
        E 16 83 24 00
        E 16 83 24 00
        E 16 83 24 00
        E 16 83 24 00
        E 16 83 24 00
        E 16 83 24 00
        E 16 83 24 00
        E 16 83 24 00
        E 16 83 24 00
        E 16 83 24 00
        E 16 83 24 00
        E 16 83 24 00
        E 16 83 24 00
        E 16 83 24 00
        E 16 83 24 00
        E 16 83 24 00
        E 16 83 24 00
        E 16 83 24 00
        E 16 83 24 00
        E 16 83 24 00
        E 16 83 24 00
        E 16 83 24 00
        E 16 83 24 00
        E 16 83 24 00
        E 16 83 24 00
        E 16 83 24 00
        E 16 83 24 00
        E 16 83 24 00
        E 16 83 24 00
        E 16 83 24 00
        E 16 83 24 00
        E 16 83 24 00
        E 16 83 24 00
        E 16 83 24 00
        E 16 83 24 00
        E 16 83 24 00
        E 16 83 24 00
        E 16 83 24 00
        E 16 83 24 00
        E 16 83 24 00
        E 16 83 24 00
        E 16 83 24 00
        E 16 83 24 00
        E 16 83 24 00
        E 16 83 24 00
        E 16 83 24 00
        E 16 83 24 00
        E 16 83 24 00
        E 16 83 24 00
        E 16 83 24 00
        E 16 83 24 00
        E 16 83 24 00
        E 16 83 24 00
        E 16 83 24 00
        E 16 83 24 00
        E 16 83 24 00
        E 16 83 24 00
        E 16 83 24 00
        E 16 83 24 00
        E 16 83 24 00
        E 16 83 24 00
        E 16 83 24 00
        E 16 83 24 00
        E 16 83 24 00
        E 16 83 24 00
        E 16 83 24 00
        E 16 83 24 00
        E 16 83 24 00
        E 16 83 24 00
        E 16 83 24 00
        E 16 83 24 00
        E 16 83 24 00
        E 16 83 24 00
        E 16 83 24 00
        E 16 83 24 00
        E 16 83 24 00
        E 16 83 24 00
        E 16 83 24 00
        E 16 83 24 00
        E 16 83 24 00
        E 16 83 24 00
        E 16 83 24 00
        E 16 83 24 00
        E 16 83 24 00
        E 16 83 24 00
        E 16 83 24 00
        E 16 83 24 00
        E 16 83 24 00
        E 16 83 24 00
        E 16 83 24 00
        E 16 83 24 00
        E 16 83 24 00
        E 16 83 24 00
        E 16 83 24 00
        E 16 83 24 00
        E 16 83 24 00
        E 16 83 24 00
        E 16 83 24 00
        E 16 83 24 00
        E 16 83 24 00
        E 16 83 24 00
        E 16 83 24 00
        E 16 83 24 00
        E 16 83 24 00
        E 16 83 24 00
        E 16 83 24 00
        E 16 83 24 00
        E 16 83 24 00
        E 16 83 24 00
        E 16 83 24 00
        E 16 83 24 00
        E 16 83 24 00
        E 16 83 24 00
        E 16 83 24 00
        E 16 83 24 00
        E 16 83 24 00
        E 16 83 24 00
        E 16 83 24 00
        E 16 83 24 00
        E 16 83 24 00
        E 16 83 24 00
        E 16 83 24 00
        E 16 83 24 00
        E 16 83 24 00
        E 16 83 24 00
        E 16 83 24 00
        E 16 83 24 00
        E 16 83 24 00
        E 16 83 24 00
        E 16 83 24 00
        E 16 83 24 00
        E 16 83 24 00
        E 16 83 24 00
        E 16 83 24 00
        E 16 83 24 00
        E 16 83 24 00
        E 16 83 24 00
        E 16 83 24 00
        E 16 83 24 00
        E 16 83 24 00
        E 16 83 24 00
        E 16 83 24 00
        E 16 83 24 00
        E 16 83 24 00
        E 16 83 24 00
        E 16 83 24 00
        E 16 83 24 00
        E 16 83 24 00
        E 16 83 24 00
        E 16 83 24 00
        E 16 83 24 00
        E 16 83 24 00
        E 16 83 24 00
        E 16 83 24 00
        E 16 83 24 00
        E 16 83 24 00
        E 16 83 24 00
        E 16 83 24 00
        E 16 83 24 00
        E 16 83 24 00
        E 16 83 24 00
        E 16 83 24 00
        E 16 83 24 00
        E 16 83 24 00
        E 16 83 24 00
        E 16 83 24 00
        E 16 83 24 00
        E 16 83 24 00
        E 16 83 24 00
        E 16 83 24 00
        E 16 83 24 00
        E 16 83 24 00
        E 16 83 24 00
        E 16 83 24 00
        E 16 83 24 00
        E 16 83 24 00
        E 16 83 24 00
        E 16 83 24 00
        E 16 83 24 00
        E 16 83 24 00
        E 16 83 24 00
        E 16 83 24 00
        E 16 83 24 00
        E 16 83 24 00
        E 16 83 24 00
        E 16 83 24 00
        E 16 83 24 00
        E 16 83 24 00
        E 16 83 24 00
        E 16 83 24 00
        E 16 83 24 00
        E 16 83 24 00
        E 16 83 24 00
        E 16 83 24 00
        E 16 83 24 00
        E 16 83 24 00
        E 16 83 24 00
        E 16 83 24 00
        E 16 83 24 00
        E 16 83 24 00
        E 16 83 24 00
        E 16 83 24 00
        E 16 83 24 00
        E 16 83 24 00
        E 16 83 24 00
        E 16 83 24 00
        E 16 83 24 00
        E 16 83 24 00
        E 16 83 24 00
        E 16 83 24 00
        E 16 83 24 00
        E 16 83 24 00
        E 16 83 24 00
        E 16 83 24 00
        E 16 83 24 00
        E 16 83 24 00
        E 16 83 24 00
        E 16 83 24 00
        E 16 83 24 00
        E 16 83 24 00
        E 16 83 24 00
        E 16 83 24 00
        E 16 83 24 00
        E 16 83 24 00
        E 16 83 24 00
        E 16 83 24 00
        E 16 83 24 00
        E 16 83 24 00
        E 16 83 24 00
        E 16 83 24 00
        E 16 83 24 00
        E 16 83 24 00
        E 16 83 24 00
        E 16 83 24 00
        E 16 83 24 00
        E 16 83 24 00
        E 16 83 24 00
        E 16 83 24 00
        E 16 83 24 00
        E 16 83 24 00
        E 16 83 24 00
        E 16 83 24 00
        E 16 83 24 00
        E 16 83 24 00
        E 16 83 24 00
        E 16 83 24 00
        E 16 83 24 00
        E 16 83 24 00
        E 16 83 24 00
        E 16 83 24 00
        E 16 83 24 00
        E 16 83 24 00
        E 16 83 24 00
        E 16 83 24 00
        E 16 83 24 00
        E 16 83 24 00
        E 16 83 24 00
        E 16 83 24 00
        E 16 83 24 00
        E 16 83 24 00
        E 16 83 24 00
        E 16 83 24 00
        E 16 83 24 00
        E 16 83 24 00
        E 16 83 24 00
        E 16 83 24 00
        E 16 83 24 00
        E 16 83 24 00
        E 16 83 24 00
        E 16 83 24 00
        E 16 83 24 00
        E 16 83 24 00
        E 16 83 24 00
        E 16 83 24 00
        E 16 83 24 00
        E 16 83 24 00
        E 16 83 24 00
        E 16 83 24 00
        E 16 83 24 00
        E 16 83 24 00
        E 16 83 24 00
        E 16 83 24 00
        E 16 83 24 00
        E 16 83 24 00
        E 16 83 24 00
        E 16 83 24 00
        E 16 83 24 00
        E 16 83 24 00
        E 16 83 24 00
        E 16 83 24 00
        E 16 83 24 00
        E 16 83 24 00
        E 16 83 24 00
        E 16 83 24 00
        E 16 83 24 00
        E 16 83 24 00
        E 16 83 24 00
        E 16 83 24 00
        E 16 83 24 00
        E 16 83 24 00
        E 16 83 24 00
        E 16 83 24 00
        E 16 83 24 00
        E 16 83 24 00
        E 16 83 24 00
        E 16 83 24 00
        E 16 83 24 00
        E 16 83 24 00
        E 16 83 24 00
        E 16 83 24 00
        E 16 83 24 00
        E 16 83 24 00
        E 16 83 24 00
        E 16 83 24 00
        E 16 83 24 00
        E 16 83 24 00
        E 16 83 24 00
        E 16 83 24 00
        E 16 83 24 00
        E 16 83 24 00
        E 16 83 24 00
        E 16 83 24 00
        E 16 83 24 00
        E 16 83 24 00
        E 16 83 24 00
        E 16 83 24 00
        E 16 83 24 00
        E 16 83 24 00
        E 16 83 24 00
        E 16 83 24 00
        E 16 83 24 00
        E 16 83 24 00
        E 16 83 24 00
        E 16 83 24 00
        E 16 83 24 00
        E 16 83 24 00
        E 16 83 24 00
        E 16 83 24 00
        E 16 83 24 00
        E 16 83 24 00
        E 16 83 24 00
        E 16 83 24 00
        E 16 83 24 00
        E 16 83 24 00
        E 16 83 24 00
        E 16 83 24 00
        E 16 83 24 00
        E 16 83 24 00
        E 16 83 24 00
        E 16 83 24 00
        E 16 83 24 00
        E 16 83 24 00
        E 16 83 24 00
        E 16 83 24 00
        E 16 83 24 00
        E 16 83 24 00
        E 16 83 24 00
        E 16 83 24 00
        E 16 83 24 00
        E 16 83 24 00
        E 16 83 24 00
        E 16 83 24 00
        E 16 83 24 00
        E 16 83 24 00
        E 16 83 24 00
        E 16 83 24 00
        E 16 83 24 00
        E 16 83 24 00
        E 16 83 24 00
        E 16 83 24 00
        E 16 83 24 00
        E 16 83 24 00
        E 16 83 24 00
        E 16 83 24 00
        E 16 83 24 00
        E 16 83 24 00
        E 16 83 24 00
        E 16 83 24 00
        E 16 83 24 00
        E 16 83 24 00
        E 16 83 24 00
        E 16 83 24 00
        E 16 83 24 00
        E 16 83 24 00
        E 16 83 24 00
        E 16 83 24 00
        E 16 83 24 00
        E 16 83 24 00
        E 16 83 24 00
        E 16 83 24 00
        E 16 83 24 00
        E 16 83 24 00
        E 16 83 24 00
        E 16 83 24 00
        E 16 83 24 00
        E 16 83 24 00
        E 16 83 24 00
        E 16 83 24 00
        E 16 83 24 00
        E 16 83 24 00
        E 16 83 24 00
        E 16 83 24 00
        E 16 83 24 00
        E 16 83 24 00
        E 16 83 24 00
        E 16 83 24 00
        E 16 83 24 00
        E 16 83 24 00
        E 16 83 24 00
        E 16 83 24 00
        E 16 83 24 00
        E 16 83 24 00
        E 16 83 24 00
        E 16 83 24 00
        E 16 83 24 00
        E 16 83 24 00
        E 16 83 24 00
        E 16 83 24 00
        E 16 83 24 00
        E 16 83 24 00
        E 16 83 24 00
        E 16 83 24 00
        E 16 83 24 00
        E 16 83 24 00
        E 16 83 24 00
        E 16 83 24 00
        E 16 83 24 00
        E 16 83 24 00
        E 16 83 24 00
        E 16 83 24 00
        E 16 83 24 00
        E 16 83 24 00
        E 16 83 24 00
        E 16 83 24 00
        E 16 83 24 00
        E 16 83 24 00
        E 16 83 24 00
        E 16 83 24 00
        E 16 83 24 00
        E 16 83 24 00
        E 16 83 24 00
        E 16 83 24 00
        E 16 83 24 00
        E 16 83 24 00
        E 16 83 24 00
        E 16 83 24 00
        E 16 83 24 00
        E 16 83 24 00
        E 16 83 24 00
        E 16 83 24 00
        E 16 83 24 00
        E 16 83 24 00
        E 16 83 24 00
        E 16 83 24 00
        E 16 83 24 00
        E 16 83 24 00
        E 16 83 24 00
        E 16 83 24 00
        E 16 83 24 00
        E 16 83 24 00
        E 16 83 24 00
        E 16 83 24 00
        E 16 83 24 00
        E 16 83 24 00
        E 16 83 24 00
        E 16 83 24 00
        E 16 83 24 00
        E 16 83 24 00
        E 16 83 24 00
        E 80 93 2a 38
        E 176 83 2a 00
        E 16 83 2a 00
        E 80 93 26 38
        E 176 83 26 00
        E 16 83 26 00
        E 16 83 26 00
        E 64 93 2a 38
        E 176 83 2a 00
        E 16 83 2a 00
        E 16 83 2a 00
        E 48 93 24 38
        E 160 83 24 00
        E 16 83 24 00
        E 16 83 24 00
        E 80 93 2a 38
        E 160 83 2a 00
        E 16 83 2a 00
        E 16 83 2a 00
        E 80 93 26 38
        E 176 83 26 00
        E 16 83 26 00
        E 16 83 26 00
        E 64 93 2a 38
        E 176 83 2a 00
        E 16 83 2a 00
        E 16 83 2a 00
        E 48 93 24 38
        E 160 83 24 00
        E 16 83 24 00
        E 16 83 24 00
        E 80 93 2a 38
        E 160 83 2a 00
        E 16 83 2a 00
        E 16 83 2a 00
        E 80 93 26 38
        E 160 83 26 00
        E 16 83 26 00
        E 16 83 26 00
        E 80 93 2a 38
        E 176 83 2a 00
        E 16 83 2a 00
        E 16 83 2a 00
        E 64 93 24 38
        E 176 83 24 00
        E 16 83 24 00
        E 16 83 24 00
        E 48 93 2a 38
        E 160 83 2a 00
        E 16 83 2a 00
        E 16 83 2a 00
        E 80 93 26 38
        E 160 83 26 00
        E 16 83 26 00
        E 16 83 26 00
        E 80 93 2a 38
        E 176 83 2a 00
        E 16 83 2a 00
        E 80 93 24 38
        E 176 83 24 00
        E 16 83 24 00
        E 16 83 24 00
        E 64 93 2a 38
        E 176 83 2a 00
        E 16 83 2a 00
        E 16 83 2a 00
        E 48 93 26 38
        E 160 83 26 00
        E 16 83 26 00
        E 16 83 26 00
        E 80 93 2a 38
        E 160 83 2a 00
        E 16 83 2a 00
        E 16 83 2a 00
        E 80 93 24 38
        E 176 83 24 00
        E 16 83 24 00
        E 80 93 2a 38
        E 176 83 2a 00
        E 16 83 2a 00
        E 16 83 2a 00
        E 48 93 26 38
        E 160 83 26 00
        E 16 83 26 00
        E 16 83 26 00
        E 80 93 2a 38
        E 160 83 2a 00
        E 16 83 2a 00
        E 16 83 2a 00
        E 80 93 24 38
        E 160 83 24 00
        E 16 83 24 00
        E 16 83 24 00
        E 80 93 2a 38
        E 176 83 2a 00
        E 16 83 2a 00
        E 16 83 2a 00
        E 64 93 26 38
        E 176 83 26 00
        E 16 83 26 00
        E 16 83 26 00
        E 48 93 2a 38
        E 160 83 2a 00
        E 16 83 2a 00
        E 16 83 2a 00
        E 80 93 24 38
        E 160 83 24 00
        E 16 83 24 00
        E 16 83 24 00
        E 80 93 2a 38
        E 176 83 2a 00
        E 16 83 2a 00
        E 80 93 26 38
        E 176 83 26 00
        E 16 83 26 00
        E 16 83 26 00
        E 64 93 2a 38
        E 176 83 2a 00
        E 16 83 2a 00
        E 16 83 2a 00
        E 48 93 24 38
        E 160 83 24 00
        E 16 83 24 00
        E 16 83 24 00
        E 80 93 2a 38
        E 160 83 2a 00
        E 16 83 2a 00
        E 16 83 2a 00
        E 80 93 26 38
        E 176 83 26 00
        E 16 83 26 00
        E 80 93 2a 38
        E 176 83 2a 00
        E 16 83 2a 00
        E 16 83 2a 00
        E 64 93 24 38
        E 176 83 24 00
        E 16 83 24 00
        E 16 83 24 00
        E 48 93 2a 38
        E 160 83 2a 00
        E 16 83 2a 00
        E 16 83 2a 00
        E 80 93 26 38
        E 160 83 26 00
        E 16 83 26 00
        E 16 83 26 00
        E 80 93 2a 38
        E 176 83 2a 00
        E 16 83 2a 00
        E 16 83 2a 00
        E 64 93 24 38
        E 176 83 24 00
        E 16 83 24 00
        E 16 83 24 00
        E 48 93 2a 38
        E 160 83 2a 00
        E 16 83 2a 00
        E 16 83 2a 00
        E 80 93 26 38
        E 160 83 26 00
        E 16 83 26 00
        E 16 83 26 00
        E 80 93 2a 38
        E 160 83 2a 00
        E 16 83 2a 00
        E 16 83 2a 00
        E 80 93 24 38
        E 176 83 24 00
        E 16 83 24 00
        E 16 83 24 00
        E 64 93 2a 38
        E 176 83 2a 00
        E 16 83 2a 00
        E 16 83 2a 00
        E 48 93 26 38
        E 160 83 26 00
        E 16 83 26 00
        E 16 83 26 00
        E 80 93 2a 38
        E 160 83 2a 00
        E 16 83 2a 00
        E 16 83 2a 00
        E 80 93 2a 40
        E 208 83 2a 00
        E 16 83 2a 00
        E 16 83 2a 00
        E 16 83 2a 00
        E 16 83 2a 00
        E 16 83 2a 00
        E 16 83 2a 00
        E 16 83 2a 00
        E 16 83 2a 00
        E 16 83 2a 00
        E 16 83 2a 00
        E 16 83 2a 00
        E 16 83 2a 00
        E 16 83 2a 00
        E 16 83 2a 00
        E 16 83 2a 00
        E 16 83 2a 00
        E 16 83 2a 00
        E 16 83 2a 00
        E 16 83 2a 00
        E 16 83 2a 00
        E 16 83 2a 00
        E 16 83 2a 00
        E 16 83 2a 00
        E 16 83 2a 00
        E 16 83 2a 00
        E 16 83 2a 00
        E 16 83 2a 00
        E 16 83 2a 00
        E 16 83 2a 00
        E 16 83 2a 00
        E 16 83 2a 00
        E 16 83 2a 00
        E 16 83 2a 00
        E 16 83 2a 00
        E 16 83 2a 00
        E 16 83 2a 00
        E 16 83 2a 00
        E 16 83 2a 00
        E 16 83 2a 00
        E 16 83 2a 00
        E 16 83 2a 00
        E 16 83 2a 00
        E 16 83 2a 00
        E 16 83 2a 00
        E 16 83 2a 00
        E 16 83 2a 00
        E 16 83 2a 00
        E 16 83 2a 00
        E 16 83 2a 00
        E 16 83 2a 00
        E 16 83 2a 00
        E 16 83 2a 00
        E 16 83 2a 00
        E 16 83 2a 00
        E 16 83 2a 00
        E 16 83 2a 00
        E 16 83 2a 00
        E 16 83 2a 00
        E 16 83 2a 00
        E 16 83 2a 00
        E 16 83 2a 00
        E 16 83 2a 00
        E 16 83 2a 00
        E 16 83 2a 00
        E 16 83 2a 00
        E 16 83 2a 00
        E 16 83 2a 00
        E 16 83 2a 00
        E 16 83 2a 00
        E 16 83 2a 00
        E 16 83 2a 00
        E 16 83 2a 00
        E 16 83 2a 00
        E 16 83 2a 00
        E 16 83 2a 00
        E 16 83 2a 00
        E 16 83 2a 00
        E 16 83 2a 00
        E 16 83 2a 00
        E 16 83 2a 00
        E 16 83 2a 00
        E 16 83 2a 00
        E 16 83 2a 00
        E 16 83 2a 00
        E 16 83 2a 00
        E 16 83 2a 00
        E 16 83 2a 00
        E 16 83 2a 00
        E 16 83 2a 00
        E 16 83 2a 00
        E 16 83 2a 00
        E 16 83 2a 00
        E 16 83 2a 00
        E 16 83 2a 00
        E 16 83 2a 00
        E 16 83 2a 00
        E 16 83 2a 00
        E 16 83 2a 00
        E 16 83 2a 00
        E 16 83 2a 00
        E 16 83 2a 00
        E 16 83 2a 00
        E 16 83 2a 00
        E 16 83 2a 00
        E 16 83 2a 00
        E 16 83 2a 00
        E 16 83 2a 00
        E 16 83 2a 00
        E 16 83 2a 00
        E 16 83 2a 00
        E 16 83 2a 00
        E 16 83 2a 00
        E 16 83 2a 00
        E 16 83 2a 00
        E 16 83 2a 00
        E 16 83 2a 00
        E 16 83 2a 00
        E 16 83 2a 00
        E 16 83 2a 00
        E 16 83 2a 00
        E 16 83 2a 00
        E 16 83 2a 00
        E 16 83 2a 00
        E 16 83 2a 00
        E 16 83 2a 00
        E 16 83 2a 00
        E 16 83 2a 00
        E 16 83 2a 00
        E 16 83 2a 00
        E 16 83 2a 00
        E 16 83 2a 00
        E 16 83 2a 00
        E 16 83 2a 00
        E 16 83 2a 00
        E 16 83 2a 00
        E 16 83 2a 00
        E 16 83 2a 00
        E 16 83 2a 00
        E 16 83 2a 00
        E 16 83 2a 00
        E 16 83 2a 00
        E 16 83 2a 00
        E 16 83 2a 00
        E 16 83 2a 00
        E 16 83 2a 00
        E 16 83 2a 00
        E 16 83 2a 00
        E 16 83 2a 00
        E 16 83 2a 00
        E 16 83 2a 00
        E 16 83 2a 00
        E 16 83 2a 00
        E 16 83 2a 00
        E 16 83 2a 00
        E 16 83 2a 00
        E 16 83 2a 00
        E 16 83 2a 00
        E 16 83 2a 00
        E 16 83 2a 00
        E 16 83 2a 00
        E 16 83 2a 00
        E 16 83 2a 00
        E 16 83 2a 00
        E 16 83 2a 00
        E 16 83 2a 00
        E 16 83 2a 00
        E 16 83 2a 00
        E 16 83 2a 00
        E 16 83 2a 00
        E 16 83 2a 00
        E 16 83 2a 00
        E 16 83 2a 00
        E 16 83 2a 00
        E 16 83 2a 00
        E 16 83 2a 00
        E 16 83 2a 00
        E 16 83 2a 00
        E 16 83 2a 00
        E 16 83 2a 00
        E 16 83 2a 00
        E 16 83 2a 00
        E 16 83 2a 00
        E 16 83 2a 00
        E 16 83 2a 00
        E 16 83 2a 00
        E 16 83 2a 00
        E 16 83 2a 00
        E 16 83 2a 00
        E 16 83 2a 00
        E 16 83 2a 00
        E 16 83 2a 00
        E 16 83 2a 00
        E 16 83 2a 00
        E 16 83 2a 00
        E 16 83 2a 00
        E 16 83 2a 00
        E 16 83 2a 00
        E 16 83 2a 00
        E 16 83 2a 00
        E 16 83 2a 00
        E 16 83 2a 00
        E 16 83 2a 00
        E 16 83 2a 00
        E 16 83 2a 00
        E 16 83 2a 00
        E 16 83 2a 00
        E 16 83 2a 00
        E 16 83 2a 00
        E 16 83 2a 00
        E 16 83 2a 00
        E 16 83 2a 00
        E 16 83 2a 00
        E 16 83 2a 00
        E 16 83 2a 00
        E 16 83 2a 00
        E 16 83 2a 00
        E 16 83 2a 00
        E 16 83 2a 00
        E 16 83 2a 00
        E 16 83 2a 00
        E 16 83 2a 00
        E 16 83 2a 00
        E 16 83 2a 00
        E 16 83 2a 00
        E 16 83 2a 00
        E 16 83 2a 00
        E 16 83 2a 00
        E 16 83 2a 00
        E 16 83 2a 00
        E 16 83 2a 00
        E 16 83 2a 00
        E 16 83 2a 00
        E 16 83 2a 00
        E 16 83 2a 00
        E 16 83 2a 00
        E 16 83 2a 00
        E 16 83 2a 00
        E 16 83 2a 00
        E 16 83 2a 00
        E 16 83 2a 00
        E 16 83 2a 00
        E 16 83 2a 00
        E 16 83 2a 00
        E 16 83 2a 00
        E 16 83 2a 00
        E 16 83 2a 00
        E 16 83 2a 00
        E 16 83 2a 00
        E 16 83 2a 00
        E 16 83 2a 00
        E 16 83 2a 00
        E 16 83 2a 00
        E 16 83 2a 00
        E 16 83 2a 00
        E 16 83 2a 00
        E 16 83 2a 00
        E 16 93 2a 78
        E 32 83 2a 00
        E 4256 93 2a 78
        E 32 83 2a 00
        E 4256 93 24 38
        E 208 83 24 00
        E 16 83 24 00
        E 16 83 24 00
        E 16 83 24 00
        E 16 83 24 00
        E 16 83 24 00
        E 16 83 24 00
        E 16 83 24 00
        E 16 83 24 00
        E 16 83 24 00
        E 16 83 24 00
        E 16 83 24 00
        E 16 83 24 00
        E 16 83 24 00
        E 16 83 24 00
        E 16 83 24 00
        E 16 83 24 00
        E 16 83 24 00
        E 16 83 24 00
        E 16 83 24 00
        E 16 83 24 00
        E 16 83 24 00
        E 16 83 24 00
        E 16 83 24 00
        E 16 83 24 00
        E 16 83 24 00
        E 16 83 24 00
        E 16 83 24 00
        E 16 83 24 00
        E 16 83 24 00
        E 16 83 24 00
        E 16 83 24 00
        E 16 83 24 00
        E 16 83 24 00
        E 16 83 24 00
        E 16 83 24 00
        E 16 83 24 00
        E 16 83 24 00
        E 16 83 24 00
        E 16 83 24 00
        E 16 83 24 00
        E 16 83 24 00
        E 16 83 24 00
        E 16 83 24 00
        E 16 83 24 00
        E 16 83 24 00
        E 16 83 24 00
        E 16 83 24 00
        E 16 83 24 00
        E 16 83 24 00
        E 16 83 24 00
        E 16 83 24 00
        E 16 83 24 00
        E 16 83 24 00
        E 16 83 24 00
        E 16 83 24 00
        E 16 83 24 00
        E 16 83 24 00
        E 16 83 24 00
        E 16 83 24 00
        E 16 83 24 00
        E 16 83 24 00
        E 16 83 24 00
        E 16 83 24 00
        E 16 83 24 00
        E 16 83 24 00
        E 16 83 24 00
        E 16 83 24 00
        E 16 83 24 00
        E 16 83 24 00
        E 16 83 24 00
        E 16 83 24 00
        E 16 83 24 00
        E 16 83 24 00
        E 16 83 24 00
        E 16 83 24 00
        E 16 83 24 00
        E 16 83 24 00
        E 16 83 24 00
        E 16 83 24 00
        E 16 83 24 00
        E 16 83 24 00
        E 16 83 24 00
        E 16 83 24 00
        E 16 83 24 00
        E 16 83 24 00
        E 16 83 24 00
        E 16 83 24 00
        E 16 83 24 00
        E 16 83 24 00
        E 16 83 24 00
        E 16 83 24 00
        E 16 83 24 00
        E 16 83 24 00
        E 16 83 24 00
        E 16 83 24 00
        E 16 83 24 00
        E 16 83 24 00
        E 16 83 24 00
        E 16 83 24 00
        E 16 83 24 00
        E 16 83 24 00
        E 16 83 24 00
        E 16 83 24 00
        E 16 83 24 00
        E 16 83 24 00
        E 16 83 24 00
        E 16 83 24 00
        E 16 83 24 00
        E 16 83 24 00
        E 16 83 24 00
        E 16 83 24 00
        E 16 83 24 00
        E 16 83 24 00
        E 16 83 24 00
        E 16 83 24 00
        E 16 83 24 00
        E 16 83 24 00
        E 16 83 24 00
        E 16 83 24 00
        E 16 83 24 00
        E 16 83 24 00
        E 16 83 24 00
        E 16 83 24 00
        E 16 83 24 00
        E 16 83 24 00
        E 16 83 24 00
        E 16 83 24 00
        E 16 83 24 00
        E 16 83 24 00
        E 16 83 24 00
        E 16 83 24 00
        E 16 83 24 00
        E 16 83 24 00
        E 80 93 2a 38
        E 176 83 2a 00
        E 16 83 2a 00
        E 16 83 2a 00
        E 64 93 26 38
        E 176 83 26 00
        E 16 83 26 00
        E 16 83 26 00
        E 48 93 2a 38
        E 160 83 2a 00
        E 16 83 2a 00
        E 16 83 2a 00
        E 80 93 24 38
        E 160 83 24 00
        E 16 83 24 00
        E 16 83 24 00
        E 80 93 2a 38
        E 176 83 2a 00
        E 16 83 2a 00
        E 80 93 26 38
        E 176 83 26 00
        E 16 83 26 00
        E 16 83 26 00
        E 64 93 2a 38
        E 176 83 2a 00
        E 16 83 2a 00
        E 16 83 2a 00
        E 48 93 24 38
        E 160 83 24 00
        E 16 83 24 00
        E 16 83 24 00
        E 80 93 2a 38
        E 160 83 2a 00
        E 16 83 2a 00
        E 16 83 2a 00
        E 80 93 26 38
        E 176 83 26 00
        E 16 83 26 00
        E 16 83 26 00
        E 64 93 2a 38
        E 176 83 2a 00
        E 16 83 2a 00
        E 16 83 2a 00
        E 48 93 24 38
        E 160 83 24 00
        E 16 83 24 00
        E 16 83 24 00
        E 80 93 2a 38
        E 160 83 2a 00
        E 16 83 2a 00
        E 16 83 2a 00
        E 80 93 26 38
        E 160 83 26 00
        E 16 83 26 00
        E 16 83 26 00
        E 80 93 2a 38
        E 176 83 2a 00
        E 16 83 2a 00
        E 16 83 2a 00
        E 64 93 24 38
        E 176 83 24 00
        E 16 83 24 00
        E 16 83 24 00
        E 48 93 2a 38
        E 160 83 2a 00
        E 16 83 2a 00
        E 16 83 2a 00
        E 80 93 26 38
        E 160 83 26 00
        E 16 83 26 00
        E 16 83 26 00
        E 80 93 2a 38
        E 176 83 2a 00
        E 16 83 2a 00
        E 80 93 24 38
        E 176 83 24 00
        E 16 83 24 00
        E 16 83 24 00
        E 64 93 2a 38
        E 176 83 2a 00
        E 16 83 2a 00
        E 16 83 2a 00
        E 48 93 26 38
        E 160 83 26 00
        E 16 83 26 00
        E 16 83 26 00
        E 80 93 2a 38
        E 160 83 2a 00
        E 16 83 2a 00
        E 16 83 2a 00
        E 80 93 24 38
        E 176 83 24 00
        E 16 83 24 00
        E 16 83 24 00
        E 64 93 2a 38
        E 176 83 2a 00
        E 16 83 2a 00
        E 16 83 2a 00
        E 48 93 26 38
        E 160 83 26 00
        E 16 83 26 00
        E 16 83 26 00
        E 80 93 2a 38
        E 160 83 2a 00
        E 16 83 2a 00
        E 16 83 2a 00
        E 80 93 24 38
        E 160 83 24 00
        E 16 83 24 00
        E 16 83 24 00
        E 80 93 2a 38
        E 176 83 2a 00
        E 16 83 2a 00
        E 16 83 2a 00
        E 64 93 26 38
        E 176 83 26 00
        E 16 83 26 00
        E 16 83 26 00
        E 48 93 2a 38
        E 160 83 2a 00
        E 16 83 2a 00
        E 16 83 2a 00
        E 80 93 24 58
        E 208 83 24 00
        E 16 83 24 00
        E 16 83 24 00
        E 16 83 24 00
        E 16 83 24 00
        E 16 83 24 00
        E 16 83 24 00
        E 16 83 24 00
        E 16 83 24 00
        E 16 83 24 00
        E 16 83 24 00
        E 16 83 24 00
        E 16 83 24 00
        E 16 83 24 00
        E 16 83 24 00
        E 16 83 24 00
        E 16 83 24 00
        E 16 83 24 00
        E 16 83 24 00
        E 16 83 24 00
        E 16 83 24 00
        E 16 83 24 00
        E 16 83 24 00
        E 16 83 24 00
        E 16 83 24 00
        E 16 83 24 00
        E 16 83 24 00
        E 16 83 24 00
        E 16 83 24 00
        E 16 83 24 00
        E 16 83 24 00
        E 16 83 24 00
        E 16 83 24 00
        E 16 83 24 00
        E 16 83 24 00
        E 16 83 24 00
        E 16 83 24 00
        E 16 83 24 00
        E 16 83 24 00
        E 16 83 24 00
        E 16 83 24 00
        E 16 83 24 00
        E 16 83 24 00
        E 16 83 24 00
        E 16 83 24 00
        E 16 83 24 00
        E 16 83 24 00
        E 16 83 24 00
        E 16 83 24 00
        E 16 83 24 00
        E 16 83 24 00
        E 16 83 24 00
        E 16 83 24 00
        E 16 83 24 00
        E 16 83 24 00
        E 16 83 24 00
        E 16 83 24 00
        E 16 83 24 00
        E 16 83 24 00
        E 16 83 24 00
        E 16 83 24 00
        E 16 83 24 00
        E 16 83 24 00
        E 16 83 24 00
        E 16 83 24 00
        E 16 83 24 00
        E 16 83 24 00
        E 16 83 24 00
        E 16 83 24 00
        E 16 83 24 00
        E 16 83 24 00
        E 16 83 24 00
        E 16 83 24 00
        E 16 83 24 00
        E 16 83 24 00
        E 16 83 24 00
        E 16 83 24 00
        E 16 83 24 00
        E 16 83 24 00
        E 16 83 24 00
        E 16 83 24 00
        E 16 83 24 00
        E 16 83 24 00
        E 16 83 24 00
        E 16 83 24 00
        E 16 83 24 00
        E 16 83 24 00
        E 16 83 24 00
        E 16 83 24 00
        E 16 83 24 00
        E 16 83 24 00
        E 16 83 24 00
        E 16 83 24 00
        E 16 83 24 00
        E 16 83 24 00
        E 16 83 24 00
        E 16 83 24 00
        E 16 83 24 00
        E 16 83 24 00
        E 16 83 24 00
        E 16 83 24 00
        E 16 83 24 00
        E 16 83 24 00
        E 16 83 24 00
        E 16 83 24 00
        E 16 83 24 00
        E 16 83 24 00
        E 16 83 24 00
        E 16 83 24 00
        E 16 83 24 00
        E 16 83 24 00
        E 16 83 24 00
        E 16 83 24 00
        E 16 83 24 00
        E 16 83 24 00
        E 16 83 24 00
        E 16 83 24 00
        E 16 83 24 00
        E 16 83 24 00
        E 16 83 24 00
        E 16 83 24 00
        E 16 83 24 00
        E 16 83 24 00
        E 16 83 24 00
        E 16 83 24 00
        E 16 83 24 00
        E 16 83 24 00
        E 16 83 24 00
        E 16 83 24 00
        E 16 83 24 00
        E 16 83 24 00
        E 16 83 24 00
        E 16 83 24 00
        E 16 83 24 00
        E 16 83 24 00
        E 16 83 24 00
        E 16 83 24 00
        E 16 83 24 00
        E 16 83 24 00
        E 16 83 24 00
        E 16 83 24 00
        E 16 83 24 00
        E 16 83 24 00
        E 16 83 24 00
        E 16 83 24 00
        E 16 83 24 00
        E 16 83 24 00
        E 0 ff 2f 00
      >
    >
  >
>